{"title":"Promenade - Ballett der Küchlein in ihren Eierschalen","artist":"Piano","durationMs":98557,"midiSha256":"2e60651f6eb8f64f66aa4634b6dd8b6ee54a2103a408216f5f4171a098b598da","midiObject":[{"NoteNumber":77,"Velocity":45,"Duration":681586,"SoundDuration":681586,"Delta":0},{"NoteNumber":81,"Velocity":45,"Duration":681586,"SoundDuration":681586,"Delta":0},{"NoteNumber":86,"Velocity":54,"Duration":681586,"SoundDuration":681586,"Delta":0},{"NoteNumber":74,"Velocity":43,"Duration":681586,"SoundDuration":681586,"Delta":0},{"NoteNumber":81,"Velocity":45,"Duration":672118,"SoundDuration":672118,"Delta":681586},{"NoteNumber":84,"Velocity":45,"Duration":672118,"SoundDuration":672118,"Delta":681586},{"NoteNumber":88,"Velocity":54,"Duration":336059,"SoundDuration":336059,"Delta":681586},{"NoteNumber":72,"Velocity":43,"Duration":672118,"SoundDuration":672118,"Delta":681586},{"NoteNumber":76,"Velocity":43,"Duration":672118,"SoundDuration":672118,"Delta":681586},{"NoteNumber":93,"Velocity":48,"Duration":336059,"SoundDuration":336059,"Delta":1017645},{"NoteNumber":81,"Velocity":45,"Duration":681586,"SoundDuration":681586,"Delta":1353704},{"NoteNumber":86,"Velocity":45,"Duration":681586,"SoundDuration":681586,"Delta":1353704},{"NoteNumber":89,"Velocity":54,"Duration":681586,"SoundDuration":681586,"Delta":1353704},{"NoteNumber":74,"Velocity":45,"Duration":681586,"SoundDuration":681586,"Delta":1353704},{"NoteNumber":77,"Velocity":45,"Duration":681586,"SoundDuration":681586,"Delta":1353704},{"NoteNumber":81,"Velocity":44,"Duration":672118,"SoundDuration":672118,"Delta":2035290},{"NoteNumber":84,"Velocity":44,"Duration":672118,"SoundDuration":672118,"Delta":2035290},{"NoteNumber":88,"Velocity":52,"Duration":336059,"SoundDuration":336059,"Delta":2035290},{"NoteNumber":72,"Velocity":41,"Duration":672118,"SoundDuration":672118,"Delta":2035290},{"NoteNumber":76,"Velocity":41,"Duration":672118,"SoundDuration":672118,"Delta":2035290},{"NoteNumber":93,"Velocity":46,"Duration":336059,"SoundDuration":336059,"Delta":2371349},{"NoteNumber":82,"Velocity":42,"Duration":686420,"SoundDuration":686420,"Delta":2707408},{"NoteNumber":86,"Velocity":42,"Duration":686420,"SoundDuration":686420,"Delta":2707408},{"NoteNumber":89,"Velocity":50,"Duration":686420,"SoundDuration":686420,"Delta":2707408},{"NoteNumber":70,"Velocity":40,"Duration":686420,"SoundDuration":686420,"Delta":2707408},{"NoteNumber":74,"Velocity":40,"Duration":686420,"SoundDuration":686420,"Delta":2707408},{"NoteNumber":79,"Velocity":47,"Duration":679116,"SoundDuration":679116,"Delta":3393828},{"NoteNumber":82,"Velocity":47,"Duration":679116,"SoundDuration":679116,"Delta":3393828},{"NoteNumber":86,"Velocity":56,"Duration":679116,"SoundDuration":679116,"Delta":3393828},{"NoteNumber":67,"Velocity":39,"Duration":679116,"SoundDuration":679116,"Delta":3393828},{"NoteNumber":70,"Velocity":39,"Duration":679116,"SoundDuration":679116,"Delta":3393828},{"NoteNumber":100,"Velocity":53,"Duration":701754,"SoundDuration":701754,"Delta":4072945},{"NoteNumber":91,"Velocity":53,"Duration":701754,"SoundDuration":701754,"Delta":4072945},{"NoteNumber":88,"Velocity":45,"Duration":701754,"SoundDuration":701754,"Delta":4072945},{"NoteNumber":64,"Velocity":34,"Duration":701754,"SoundDuration":701754,"Delta":4072945},{"NoteNumber":70,"Velocity":34,"Duration":701754,"SoundDuration":701754,"Delta":4072945},{"NoteNumber":74,"Velocity":34,"Duration":701754,"SoundDuration":701754,"Delta":4072945},{"NoteNumber":94,"Velocity":49,"Duration":722891,"SoundDuration":722891,"Delta":4774699},{"NoteNumber":91,"Velocity":41,"Duration":722891,"SoundDuration":722891,"Delta":4774699},{"NoteNumber":88,"Velocity":41,"Duration":722891,"SoundDuration":722891,"Delta":4774699},{"NoteNumber":67,"Velocity":28,"Duration":722891,"SoundDuration":722891,"Delta":4774699},{"NoteNumber":70,"Velocity":28,"Duration":722891,"SoundDuration":722891,"Delta":4774699},{"NoteNumber":74,"Velocity":28,"Duration":722891,"SoundDuration":722891,"Delta":4774699},{"NoteNumber":93,"Velocity":44,"Duration":745342,"SoundDuration":745342,"Delta":5497591},{"NoteNumber":91,"Velocity":37,"Duration":745342,"SoundDuration":745342,"Delta":5497591},{"NoteNumber":88,"Velocity":37,"Duration":745342,"SoundDuration":745342,"Delta":5497591},{"NoteNumber":69,"Velocity":25,"Duration":745342,"SoundDuration":745342,"Delta":5497591},{"NoteNumber":73,"Velocity":25,"Duration":745342,"SoundDuration":745342,"Delta":5497591},{"NoteNumber":67,"Velocity":45,"Duration":681817,"SoundDuration":681817,"Delta":7598865},{"NoteNumber":70,"Velocity":54,"Duration":681817,"SoundDuration":681817,"Delta":7598865},{"NoteNumber":55,"Velocity":36,"Duration":681817,"SoundDuration":681817,"Delta":7598865},{"NoteNumber":62,"Velocity":43,"Duration":681817,"SoundDuration":681817,"Delta":7598865},{"NoteNumber":64,"Velocity":45,"Duration":681817,"SoundDuration":681817,"Delta":8280683},{"NoteNumber":69,"Velocity":54,"Duration":681817,"SoundDuration":681817,"Delta":8280683},{"NoteNumber":57,"Velocity":36,"Duration":681817,"SoundDuration":681817,"Delta":8280683},{"NoteNumber":61,"Velocity":43,"Duration":681817,"SoundDuration":681817,"Delta":8280683},{"NoteNumber":65,"Velocity":45,"Duration":681585,"SoundDuration":681585,"Delta":8962501},{"NoteNumber":69,"Velocity":45,"Duration":681585,"SoundDuration":681585,"Delta":8962501},{"NoteNumber":74,"Velocity":54,"Duration":681585,"SoundDuration":681585,"Delta":8962501},{"NoteNumber":53,"Velocity":36,"Duration":681585,"SoundDuration":681585,"Delta":8962501},{"NoteNumber":62,"Velocity":43,"Duration":681585,"SoundDuration":681585,"Delta":8962501},{"NoteNumber":69,"Velocity":49,"Duration":672117,"SoundDuration":672117,"Delta":9644086},{"NoteNumber":73,"Velocity":49,"Duration":672117,"SoundDuration":672117,"Delta":9644086},{"NoteNumber":76,"Velocity":58,"Duration":336059,"SoundDuration":336059,"Delta":9644086},{"NoteNumber":61,"Velocity":43,"Duration":672117,"SoundDuration":672117,"Delta":9644086},{"NoteNumber":52,"Velocity":36,"Duration":672117,"SoundDuration":672117,"Delta":9644086},{"NoteNumber":81,"Velocity":53,"Duration":336058,"SoundDuration":336058,"Delta":9980146},{"NoteNumber":69,"Velocity":48,"Duration":681585,"SoundDuration":681585,"Delta":10316204},{"NoteNumber":74,"Velocity":48,"Duration":681585,"SoundDuration":681585,"Delta":10316204},{"NoteNumber":77,"Velocity":57,"Duration":681585,"SoundDuration":681585,"Delta":10316204},{"NoteNumber":62,"Velocity":45,"Duration":681585,"SoundDuration":681585,"Delta":10316204},{"NoteNumber":50,"Velocity":38,"Duration":681585,"SoundDuration":681585,"Delta":10316204},{"NoteNumber":69,"Velocity":50,"Duration":672117,"SoundDuration":672117,"Delta":10997790},{"NoteNumber":72,"Velocity":59,"Duration":672117,"SoundDuration":672117,"Delta":10997790},{"NoteNumber":76,"Velocity":59,"Duration":336059,"SoundDuration":336059,"Delta":10997790},{"NoteNumber":60,"Velocity":41,"Duration":672117,"SoundDuration":672117,"Delta":10997790},{"NoteNumber":48,"Velocity":34,"Duration":672117,"SoundDuration":672117,"Delta":10997790},{"NoteNumber":81,"Velocity":55,"Duration":336058,"SoundDuration":336058,"Delta":11333849},{"NoteNumber":65,"Velocity":51,"Duration":643518,"SoundDuration":643518,"Delta":11669908},{"NoteNumber":74,"Velocity":51,"Duration":643518,"SoundDuration":643518,"Delta":11669908},{"NoteNumber":77,"Velocity":60,"Duration":643518,"SoundDuration":643518,"Delta":11669908},{"NoteNumber":58,"Velocity":40,"Duration":643518,"SoundDuration":643518,"Delta":11669908},{"NoteNumber":46,"Velocity":34,"Duration":643518,"SoundDuration":643518,"Delta":11669908},{"NoteNumber":62,"Velocity":53,"Duration":679116,"SoundDuration":679116,"Delta":12356328},{"NoteNumber":70,"Velocity":53,"Duration":679116,"SoundDuration":679116,"Delta":12356328},{"NoteNumber":74,"Velocity":63,"Duration":679116,"SoundDuration":679116,"Delta":12356328},{"NoteNumber":55,"Velocity":47,"Duration":679116,"SoundDuration":679116,"Delta":12356328},{"NoteNumber":43,"Velocity":39,"Duration":679116,"SoundDuration":679116,"Delta":12356328},{"NoteNumber":64,"Velocity":50,"Duration":701753,"SoundDuration":701753,"Delta":13035445},{"NoteNumber":67,"Velocity":50,"Duration":701753,"SoundDuration":701753,"Delta":13035445},{"NoteNumber":76,"Velocity":59,"Duration":701753,"SoundDuration":701753,"Delta":13035445},{"NoteNumber":48,"Velocity":43,"Duration":701753,"SoundDuration":701753,"Delta":13035445},{"NoteNumber":36,"Velocity":36,"Duration":701753,"SoundDuration":701753,"Delta":13035445},{"NoteNumber":65,"Velocity":54,"Duration":722891,"SoundDuration":722891,"Delta":13737199},{"NoteNumber":70,"Velocity":54,"Duration":722891,"SoundDuration":722891,"Delta":13737199},{"NoteNumber":58,"Velocity":45,"Duration":722891,"SoundDuration":722891,"Delta":13737199},{"NoteNumber":38,"Velocity":32,"Duration":722891,"SoundDuration":722891,"Delta":13737199},{"NoteNumber":50,"Velocity":38,"Duration":722891,"SoundDuration":722891,"Delta":13737199},{"NoteNumber":57,"Velocity":44,"Duration":725806,"SoundDuration":725806,"Delta":14460091},{"NoteNumber":69,"Velocity":52,"Duration":725806,"SoundDuration":725806,"Delta":14460091},{"NoteNumber":64,"Velocity":44,"Duration":725806,"SoundDuration":725806,"Delta":14460091},{"NoteNumber":37,"Velocity":29,"Duration":725806,"SoundDuration":725806,"Delta":14460091},{"NoteNumber":49,"Velocity":35,"Duration":725806,"SoundDuration":725806,"Delta":14460091},{"NoteNumber":33,"Velocity":56,"Duration":681972,"SoundDuration":681972,"Delta":15234285},{"NoteNumber":45,"Velocity":66,"Duration":681972,"SoundDuration":681972,"Delta":15234285},{"NoteNumber":34,"Velocity":60,"Duration":677966,"SoundDuration":677966,"Delta":15916258},{"NoteNumber":46,"Velocity":71,"Duration":677966,"SoundDuration":677966,"Delta":15916258},{"NoteNumber":61,"Velocity":66,"Duration":1329732,"SoundDuration":1329732,"Delta":16594224},{"NoteNumber":49,"Velocity":56,"Duration":1329732,"SoundDuration":1329732,"Delta":16594224},{"NoteNumber":28,"Velocity":56,"Duration":670390,"SoundDuration":670390,"Delta":16594224},{"NoteNumber":40,"Velocity":66,"Duration":670390,"SoundDuration":670390,"Delta":16594224},{"NoteNumber":33,"Velocity":56,"Duration":329670,"SoundDuration":329670,"Delta":17264615},{"NoteNumber":45,"Velocity":66,"Duration":329670,"SoundDuration":329670,"Delta":17264615},{"NoteNumber":34,"Velocity":51,"Duration":329670,"SoundDuration":329670,"Delta":17594286},{"NoteNumber":46,"Velocity":61,"Duration":329670,"SoundDuration":329670,"Delta":17594286},{"NoteNumber":67,"Velocity":72,"Duration":663202,"SoundDuration":663202,"Delta":17923956},{"NoteNumber":55,"Velocity":61,"Duration":663202,"SoundDuration":663202,"Delta":17923956},{"NoteNumber":28,"Velocity":53,"Duration":663202,"SoundDuration":663202,"Delta":17923956},{"NoteNumber":40,"Velocity":63,"Duration":663202,"SoundDuration":663202,"Delta":17923956},{"NoteNumber":64,"Velocity":67,"Duration":656023,"SoundDuration":656023,"Delta":18587159},{"NoteNumber":52,"Velocity":56,"Duration":656023,"SoundDuration":656023,"Delta":18587159},{"NoteNumber":34,"Velocity":56,"Duration":328012,"SoundDuration":328012,"Delta":18587159},{"NoteNumber":46,"Velocity":66,"Duration":328012,"SoundDuration":328012,"Delta":18587159},{"NoteNumber":36,"Velocity":51,"Duration":328011,"SoundDuration":328011,"Delta":18915172},{"NoteNumber":48,"Velocity":60,"Duration":328011,"SoundDuration":328011,"Delta":18915172},{"NoteNumber":69,"Velocity":73,"Duration":1004087,"SoundDuration":1004087,"Delta":19243183},{"NoteNumber":57,"Velocity":62,"Duration":1004087,"SoundDuration":1004087,"Delta":19243183},{"NoteNumber":33,"Velocity":52,"Duration":674309,"SoundDuration":674309,"Delta":19243183},{"NoteNumber":45,"Velocity":62,"Duration":674309,"SoundDuration":674309,"Delta":19243183},{"NoteNumber":45,"Velocity":62,"Duration":618335,"SoundDuration":618335,"Delta":19917492},{"NoteNumber":57,"Velocity":74,"Duration":618335,"SoundDuration":618335,"Delta":19917492},{"NoteNumber":81,"Velocity":75,"Duration":663202,"SoundDuration":663202,"Delta":20577050},{"NoteNumber":69,"Velocity":63,"Duration":663202,"SoundDuration":663202,"Delta":20577050},{"NoteNumber":41,"Velocity":65,"Duration":663202,"SoundDuration":663202,"Delta":20577050},{"NoteNumber":53,"Velocity":77,"Duration":663202,"SoundDuration":663202,"Delta":20577050},{"NoteNumber":70,"Velocity":66,"Duration":678311,"SoundDuration":678311,"Delta":21240253},{"NoteNumber":82,"Velocity":78,"Duration":678311,"SoundDuration":678311,"Delta":21240253},{"NoteNumber":40,"Velocity":65,"Duration":333444,"SoundDuration":333444,"Delta":21240253},{"NoteNumber":52,"Velocity":77,"Duration":333444,"SoundDuration":333444,"Delta":21240253},{"NoteNumber":50,"Velocity":68,"Duration":344867,"SoundDuration":344867,"Delta":21573698},{"NoteNumber":38,"Velocity":57,"Duration":344867,"SoundDuration":344867,"Delta":21573698},{"NoteNumber":81,"Velocity":74,"Duration":678118,"SoundDuration":678118,"Delta":21918565},{"NoteNumber":69,"Velocity":62,"Duration":678118,"SoundDuration":678118,"Delta":21918565},{"NoteNumber":33,"Velocity":61,"Duration":678118,"SoundDuration":678118,"Delta":21918565},{"NoteNumber":45,"Velocity":72,"Duration":678118,"SoundDuration":678118,"Delta":21918565},{"NoteNumber":67,"Velocity":63,"Duration":339059,"SoundDuration":339059,"Delta":22596684},{"NoteNumber":79,"Velocity":75,"Duration":339059,"SoundDuration":339059,"Delta":22596684},{"NoteNumber":34,"Velocity":56,"Duration":678119,"SoundDuration":678119,"Delta":22596684},{"NoteNumber":46,"Velocity":66,"Duration":678119,"SoundDuration":678119,"Delta":22596684},{"NoteNumber":65,"Velocity":61,"Duration":339059,"SoundDuration":339059,"Delta":22935743},{"NoteNumber":77,"Velocity":72,"Duration":339059,"SoundDuration":339059,"Delta":22935743},{"NoteNumber":69,"Velocity":61,"Duration":666889,"SoundDuration":666889,"Delta":23274803},{"NoteNumber":81,"Velocity":72,"Duration":666889,"SoundDuration":666889,"Delta":23274803},{"NoteNumber":29,"Velocity":56,"Duration":666889,"SoundDuration":666889,"Delta":23274803},{"NoteNumber":41,"Velocity":66,"Duration":666889,"SoundDuration":666889,"Delta":23274803},{"NoteNumber":70,"Velocity":66,"Duration":666889,"SoundDuration":666889,"Delta":23941692},{"NoteNumber":82,"Velocity":78,"Duration":666889,"SoundDuration":666889,"Delta":23941692},{"NoteNumber":31,"Velocity":51,"Duration":1978905,"SoundDuration":1978905,"Delta":23941692},{"NoteNumber":43,"Velocity":61,"Duration":1978905,"SoundDuration":1978905,"Delta":23941692},{"NoteNumber":64,"Velocity":61,"Duration":659558,"SoundDuration":659558,"Delta":24608581},{"NoteNumber":76,"Velocity":72,"Duration":659558,"SoundDuration":659558,"Delta":24608581},{"NoteNumber":69,"Velocity":61,"Duration":326229,"SoundDuration":326229,"Delta":25268139},{"NoteNumber":81,"Velocity":72,"Duration":326229,"SoundDuration":326229,"Delta":25268139},{"NoteNumber":70,"Velocity":56,"Duration":326228,"SoundDuration":326228,"Delta":25594368},{"NoteNumber":82,"Velocity":67,"Duration":326228,"SoundDuration":326228,"Delta":25594368},{"NoteNumber":64,"Velocity":58,"Duration":663202,"SoundDuration":663202,"Delta":25920597},{"NoteNumber":76,"Velocity":69,"Duration":663202,"SoundDuration":663202,"Delta":25920597},{"NoteNumber":34,"Velocity":51,"Duration":663202,"SoundDuration":663202,"Delta":25920597},{"NoteNumber":46,"Velocity":60,"Duration":663202,"SoundDuration":663202,"Delta":25920597},{"NoteNumber":70,"Velocity":72,"Duration":328012,"SoundDuration":328012,"Delta":26583800},{"NoteNumber":82,"Velocity":72,"Duration":328012,"SoundDuration":328012,"Delta":26583800},{"NoteNumber":40,"Velocity":64,"Duration":1288188,"SoundDuration":1288188,"Delta":26583800},{"NoteNumber":52,"Velocity":64,"Duration":1288188,"SoundDuration":1288188,"Delta":26583800},{"NoteNumber":72,"Velocity":66,"Duration":328011,"SoundDuration":328011,"Delta":26911812},{"NoteNumber":84,"Velocity":66,"Duration":328011,"SoundDuration":328011,"Delta":26911812},{"NoteNumber":69,"Velocity":68,"Duration":632164,"SoundDuration":632164,"Delta":27239824},{"NoteNumber":81,"Velocity":68,"Duration":632164,"SoundDuration":632164,"Delta":27239824},{"NoteNumber":81,"Velocity":81,"Duration":681817,"SoundDuration":681817,"Delta":27914133},{"NoteNumber":93,"Velocity":81,"Duration":681817,"SoundDuration":681817,"Delta":27914133},{"NoteNumber":33,"Velocity":66,"Duration":681817,"SoundDuration":681817,"Delta":27914133},{"NoteNumber":45,"Velocity":66,"Duration":681817,"SoundDuration":681817,"Delta":27914133},{"NoteNumber":77,"Velocity":84,"Duration":685793,"SoundDuration":685793,"Delta":28595951},{"NoteNumber":89,"Velocity":84,"Duration":685793,"SoundDuration":685793,"Delta":28595951},{"NoteNumber":34,"Velocity":64,"Duration":685793,"SoundDuration":685793,"Delta":28595951},{"NoteNumber":46,"Velocity":64,"Duration":685793,"SoundDuration":685793,"Delta":28595951},{"NoteNumber":76,"Velocity":76,"Duration":350877,"SoundDuration":350877,"Delta":29281744},{"NoteNumber":88,"Velocity":76,"Duration":350877,"SoundDuration":350877,"Delta":29281744},{"NoteNumber":31,"Velocity":57,"Duration":701754,"SoundDuration":701754,"Delta":29281744},{"NoteNumber":43,"Velocity":57,"Duration":701754,"SoundDuration":701754,"Delta":29281744},{"NoteNumber":86,"Velocity":71,"Duration":350877,"SoundDuration":350877,"Delta":29632621},{"NoteNumber":74,"Velocity":71,"Duration":350877,"SoundDuration":350877,"Delta":29632621},{"NoteNumber":69,"Velocity":63,"Duration":678118,"SoundDuration":678118,"Delta":29983498},{"NoteNumber":81,"Velocity":63,"Duration":678118,"SoundDuration":678118,"Delta":29983498},{"NoteNumber":33,"Velocity":54,"Duration":678118,"SoundDuration":678118,"Delta":29983498},{"NoteNumber":45,"Velocity":54,"Duration":678118,"SoundDuration":678118,"Delta":29983498},{"NoteNumber":57,"Velocity":50,"Duration":697673,"SoundDuration":697673,"Delta":31363371},{"NoteNumber":45,"Velocity":45,"Duration":697673,"SoundDuration":697673,"Delta":31363371},{"NoteNumber":69,"Velocity":50,"Duration":644171,"SoundDuration":644171,"Delta":32061045},{"NoteNumber":57,"Velocity":45,"Duration":736195,"SoundDuration":736195,"Delta":32061045},{"NoteNumber":86,"Velocity":47,"Duration":92024,"SoundDuration":92024,"Delta":32705217},{"NoteNumber":84,"Velocity":68,"Duration":75000,"SoundDuration":75000,"Delta":32797241},{"NoteNumber":81,"Velocity":57,"Duration":75000,"SoundDuration":75000,"Delta":32797241},{"NoteNumber":77,"Velocity":57,"Duration":75000,"SoundDuration":75000,"Delta":32797241},{"NoteNumber":65,"Velocity":40,"Duration":77720,"SoundDuration":77720,"Delta":32947241},{"NoteNumber":69,"Velocity":40,"Duration":77720,"SoundDuration":77720,"Delta":32947241},{"NoteNumber":72,"Velocity":48,"Duration":77720,"SoundDuration":77720,"Delta":32947241},{"NoteNumber":73,"Velocity":50,"Duration":75000,"SoundDuration":75000,"Delta":33102681},{"NoteNumber":80,"Velocity":59,"Duration":75000,"SoundDuration":75000,"Delta":33102681},{"NoteNumber":77,"Velocity":50,"Duration":75000,"SoundDuration":75000,"Delta":33102681},{"NoteNumber":71,"Velocity":42,"Duration":76923,"SoundDuration":76923,"Delta":33252681},{"NoteNumber":68,"Velocity":35,"Duration":76923,"SoundDuration":76923,"Delta":33252681},{"NoteNumber":65,"Velocity":35,"Duration":76923,"SoundDuration":76923,"Delta":33252681},{"NoteNumber":69,"Velocity":45,"Duration":693641,"SoundDuration":693641,"Delta":34125091},{"NoteNumber":57,"Velocity":39,"Duration":693641,"SoundDuration":693641,"Delta":34125091},{"NoteNumber":81,"Velocity":36,"Duration":508474,"SoundDuration":508474,"Delta":35512375},{"NoteNumber":69,"Velocity":34,"Duration":508474,"SoundDuration":508474,"Delta":35512375},{"NoteNumber":86,"Velocity":45,"Duration":38961,"SoundDuration":38961,"Delta":36402205},{"NoteNumber":84,"Velocity":45,"Duration":75052,"SoundDuration":75052,"Delta":36441166},{"NoteNumber":81,"Velocity":38,"Duration":75052,"SoundDuration":75052,"Delta":36441166},{"NoteNumber":77,"Velocity":38,"Duration":75052,"SoundDuration":75052,"Delta":36441166},{"NoteNumber":65,"Velocity":28,"Duration":77327,"SoundDuration":77327,"Delta":36591271},{"NoteNumber":69,"Velocity":28,"Duration":77327,"SoundDuration":77327,"Delta":36591271},{"NoteNumber":72,"Velocity":34,"Duration":77327,"SoundDuration":77327,"Delta":36591271},{"NoteNumber":84,"Velocity":33,"Duration":38663,"SoundDuration":38663,"Delta":36707262},{"NoteNumber":83,"Velocity":40,"Duration":75052,"SoundDuration":75052,"Delta":36745926},{"NoteNumber":80,"Velocity":34,"Duration":75052,"SoundDuration":75052,"Delta":36745926},{"NoteNumber":77,"Velocity":34,"Duration":75052,"SoundDuration":75052,"Delta":36745926},{"NoteNumber":73,"Velocity":31,"Duration":76483,"SoundDuration":76483,"Delta":36896031},{"NoteNumber":68,"Velocity":26,"Duration":76483,"SoundDuration":76483,"Delta":36896031},{"NoteNumber":65,"Velocity":26,"Duration":76483,"SoundDuration":76483,"Delta":36896031},{"NoteNumber":86,"Velocity":40,"Duration":38241,"SoundDuration":38241,"Delta":37010757},{"NoteNumber":84,"Velocity":45,"Duration":75052,"SoundDuration":75052,"Delta":37048999},{"NoteNumber":81,"Velocity":38,"Duration":75052,"SoundDuration":75052,"Delta":37048999},{"NoteNumber":77,"Velocity":38,"Duration":75052,"SoundDuration":75052,"Delta":37048999},{"NoteNumber":65,"Velocity":28,"Duration":75864,"SoundDuration":75864,"Delta":37199104},{"NoteNumber":69,"Velocity":28,"Duration":75864,"SoundDuration":75864,"Delta":37199104},{"NoteNumber":72,"Velocity":33,"Duration":75864,"SoundDuration":75864,"Delta":37199104},{"NoteNumber":80,"Velocity":45,"Duration":76064,"SoundDuration":76064,"Delta":37350833},{"NoteNumber":77,"Velocity":38,"Duration":76064,"SoundDuration":76064,"Delta":37350833},{"NoteNumber":73,"Velocity":38,"Duration":76064,"SoundDuration":76064,"Delta":37350833},{"NoteNumber":71,"Velocity":36,"Duration":76064,"SoundDuration":76064,"Delta":37350833},{"NoteNumber":68,"Velocity":30,"Duration":76064,"SoundDuration":76064,"Delta":37350833},{"NoteNumber":86,"Velocity":31,"Duration":38032,"SoundDuration":38032,"Delta":37464931},{"NoteNumber":84,"Velocity":37,"Duration":78628,"SoundDuration":78628,"Delta":37502963},{"NoteNumber":81,"Velocity":31,"Duration":78628,"SoundDuration":78628,"Delta":37502963},{"NoteNumber":77,"Velocity":31,"Duration":78628,"SoundDuration":78628,"Delta":37502963},{"NoteNumber":86,"Velocity":45,"Duration":39314,"SoundDuration":39314,"Delta":37620906},{"NoteNumber":84,"Velocity":45,"Duration":75052,"SoundDuration":75052,"Delta":37660221},{"NoteNumber":81,"Velocity":38,"Duration":75052,"SoundDuration":75052,"Delta":37660221},{"NoteNumber":77,"Velocity":38,"Duration":75052,"SoundDuration":75052,"Delta":37660221},{"NoteNumber":65,"Velocity":28,"Duration":77327,"SoundDuration":77327,"Delta":37810326},{"NoteNumber":69,"Velocity":28,"Duration":77327,"SoundDuration":77327,"Delta":37810326},{"NoteNumber":72,"Velocity":34,"Duration":77327,"SoundDuration":77327,"Delta":37810326},{"NoteNumber":84,"Velocity":33,"Duration":38663,"SoundDuration":38663,"Delta":37926317},{"NoteNumber":83,"Velocity":40,"Duration":75052,"SoundDuration":75052,"Delta":37964981},{"NoteNumber":80,"Velocity":34,"Duration":75052,"SoundDuration":75052,"Delta":37964981},{"NoteNumber":77,"Velocity":34,"Duration":75052,"SoundDuration":75052,"Delta":37964981},{"NoteNumber":73,"Velocity":31,"Duration":76483,"SoundDuration":76483,"Delta":38115086},{"NoteNumber":68,"Velocity":26,"Duration":76483,"SoundDuration":76483,"Delta":38115086},{"NoteNumber":65,"Velocity":26,"Duration":76483,"SoundDuration":76483,"Delta":38115086},{"NoteNumber":86,"Velocity":40,"Duration":38241,"SoundDuration":38241,"Delta":38229811},{"NoteNumber":84,"Velocity":45,"Duration":75052,"SoundDuration":75052,"Delta":38268053},{"NoteNumber":81,"Velocity":38,"Duration":75052,"SoundDuration":75052,"Delta":38268053},{"NoteNumber":77,"Velocity":38,"Duration":75052,"SoundDuration":75052,"Delta":38268053},{"NoteNumber":65,"Velocity":28,"Duration":75864,"SoundDuration":75864,"Delta":38418158},{"NoteNumber":69,"Velocity":28,"Duration":75864,"SoundDuration":75864,"Delta":38418158},{"NoteNumber":72,"Velocity":33,"Duration":75864,"SoundDuration":75864,"Delta":38418158},{"NoteNumber":80,"Velocity":45,"Duration":75052,"SoundDuration":75052,"Delta":38569888},{"NoteNumber":77,"Velocity":38,"Duration":75052,"SoundDuration":75052,"Delta":38569888},{"NoteNumber":73,"Velocity":38,"Duration":75052,"SoundDuration":75052,"Delta":38569888},{"NoteNumber":68,"Velocity":30,"Duration":75949,"SoundDuration":75949,"Delta":38719993},{"NoteNumber":71,"Velocity":36,"Duration":75949,"SoundDuration":75949,"Delta":38719993},{"NoteNumber":59,"Velocity":34,"Duration":75000,"SoundDuration":75000,"Delta":38871891},{"NoteNumber":66,"Velocity":32,"Duration":37500,"SoundDuration":37500,"Delta":38984391},{"NoteNumber":67,"Velocity":32,"Duration":76335,"SoundDuration":76335,"Delta":39021891},{"NoteNumber":64,"Velocity":27,"Duration":76335,"SoundDuration":76335,"Delta":39021891},{"NoteNumber":60,"Velocity":33,"Duration":76335,"SoundDuration":76335,"Delta":39021891},{"NoteNumber":62,"Velocity":34,"Duration":74812,"SoundDuration":74812,"Delta":39174563},{"NoteNumber":69,"Velocity":32,"Duration":37406,"SoundDuration":37406,"Delta":39286783},{"NoteNumber":70,"Velocity":33,"Duration":76335,"SoundDuration":76335,"Delta":39324189},{"NoteNumber":67,"Velocity":28,"Duration":76335,"SoundDuration":76335,"Delta":39324189},{"NoteNumber":63,"Velocity":35,"Duration":76335,"SoundDuration":76335,"Delta":39324189},{"NoteNumber":64,"Velocity":36,"Duration":74626,"SoundDuration":74626,"Delta":39476861},{"NoteNumber":71,"Velocity":32,"Duration":37313,"SoundDuration":37313,"Delta":39588801},{"NoteNumber":68,"Velocity":29,"Duration":76142,"SoundDuration":76142,"Delta":39626115},{"NoteNumber":72,"Velocity":35,"Duration":76142,"SoundDuration":76142,"Delta":39626115},{"NoteNumber":65,"Velocity":38,"Duration":76142,"SoundDuration":76142,"Delta":39626115},{"NoteNumber":67,"Velocity":39,"Duration":74812,"SoundDuration":74812,"Delta":39778399},{"NoteNumber":74,"Velocity":32,"Duration":37406,"SoundDuration":37406,"Delta":39890619},{"NoteNumber":75,"Velocity":37,"Duration":75757,"SoundDuration":75757,"Delta":39928025},{"NoteNumber":72,"Velocity":31,"Duration":75757,"SoundDuration":75757,"Delta":39928025},{"NoteNumber":68,"Velocity":40,"Duration":75757,"SoundDuration":75757,"Delta":39928025},{"NoteNumber":70,"Velocity":41,"Duration":74257,"SoundDuration":74257,"Delta":40079540},{"NoteNumber":77,"Velocity":32,"Duration":37128,"SoundDuration":37128,"Delta":40190926},{"NoteNumber":78,"Velocity":39,"Duration":75257,"SoundDuration":75257,"Delta":40228055},{"NoteNumber":75,"Velocity":33,"Duration":75257,"SoundDuration":75257,"Delta":40228055},{"NoteNumber":71,"Velocity":43,"Duration":75257,"SoundDuration":75257,"Delta":40228055},{"NoteNumber":72,"Velocity":44,"Duration":74074,"SoundDuration":74074,"Delta":40379070},{"NoteNumber":81,"Velocity":32,"Duration":37036,"SoundDuration":37036,"Delta":40490181},{"NoteNumber":82,"Velocity":40,"Duration":75377,"SoundDuration":75377,"Delta":40527218},{"NoteNumber":78,"Velocity":34,"Duration":75377,"SoundDuration":75377,"Delta":40527218},{"NoteNumber":73,"Velocity":45,"Duration":75377,"SoundDuration":75377,"Delta":40527218},{"NoteNumber":74,"Velocity":46,"Duration":73891,"SoundDuration":73891,"Delta":40677972},{"NoteNumber":86,"Velocity":32,"Duration":36945,"SoundDuration":36945,"Delta":40788810},{"NoteNumber":87,"Velocity":39,"Duration":75187,"SoundDuration":75187,"Delta":40825756},{"NoteNumber":82,"Velocity":33,"Duration":75187,"SoundDuration":75187,"Delta":40825756},{"NoteNumber":79,"Velocity":33,"Duration":75187,"SoundDuration":75187,"Delta":40825756},{"NoteNumber":75,"Velocity":47,"Duration":75187,"SoundDuration":75187,"Delta":40825756},{"NoteNumber":76,"Velocity":46,"Duration":73709,"SoundDuration":73709,"Delta":40976132},{"NoteNumber":93,"Velocity":32,"Duration":36854,"SoundDuration":36854,"Delta":41086697},{"NoteNumber":91,"Velocity":39,"Duration":76726,"SoundDuration":76726,"Delta":41123552},{"NoteNumber":88,"Velocity":33,"Duration":76726,"SoundDuration":76726,"Delta":41123552},{"NoteNumber":84,"Velocity":33,"Duration":76726,"SoundDuration":76726,"Delta":41123552},{"NoteNumber":72,"Velocity":45,"Duration":76726,"SoundDuration":76726,"Delta":41123552},{"NoteNumber":86,"Velocity":45,"Duration":38961,"SoundDuration":38961,"Delta":41238641},{"NoteNumber":84,"Velocity":45,"Duration":75052,"SoundDuration":75052,"Delta":41277602},{"NoteNumber":81,"Velocity":38,"Duration":75052,"SoundDuration":75052,"Delta":41277602},{"NoteNumber":77,"Velocity":38,"Duration":75052,"SoundDuration":75052,"Delta":41277602},{"NoteNumber":65,"Velocity":28,"Duration":77327,"SoundDuration":77327,"Delta":41427707},{"NoteNumber":69,"Velocity":28,"Duration":77327,"SoundDuration":77327,"Delta":41427707},{"NoteNumber":72,"Velocity":34,"Duration":77327,"SoundDuration":77327,"Delta":41427707},{"NoteNumber":84,"Velocity":33,"Duration":38663,"SoundDuration":38663,"Delta":41543698},{"NoteNumber":83,"Velocity":40,"Duration":75052,"SoundDuration":75052,"Delta":41582362},{"NoteNumber":80,"Velocity":34,"Duration":75052,"SoundDuration":75052,"Delta":41582362},{"NoteNumber":77,"Velocity":34,"Duration":75052,"SoundDuration":75052,"Delta":41582362},{"NoteNumber":73,"Velocity":31,"Duration":76483,"SoundDuration":76483,"Delta":41732467},{"NoteNumber":68,"Velocity":26,"Duration":76483,"SoundDuration":76483,"Delta":41732467},{"NoteNumber":65,"Velocity":26,"Duration":76483,"SoundDuration":76483,"Delta":41732467},{"NoteNumber":86,"Velocity":40,"Duration":38241,"SoundDuration":38241,"Delta":41847193},{"NoteNumber":84,"Velocity":45,"Duration":75052,"SoundDuration":75052,"Delta":41885435},{"NoteNumber":81,"Velocity":38,"Duration":75052,"SoundDuration":75052,"Delta":41885435},{"NoteNumber":77,"Velocity":38,"Duration":75052,"SoundDuration":75052,"Delta":41885435},{"NoteNumber":65,"Velocity":28,"Duration":75864,"SoundDuration":75864,"Delta":42035540},{"NoteNumber":69,"Velocity":28,"Duration":75864,"SoundDuration":75864,"Delta":42035540},{"NoteNumber":72,"Velocity":33,"Duration":75864,"SoundDuration":75864,"Delta":42035540},{"NoteNumber":84,"Velocity":33,"Duration":37932,"SoundDuration":37932,"Delta":42149337},{"NoteNumber":80,"Velocity":38,"Duration":76064,"SoundDuration":76064,"Delta":42187269},{"NoteNumber":77,"Velocity":38,"Duration":76064,"SoundDuration":76064,"Delta":42187269},{"NoteNumber":83,"Velocity":45,"Duration":76064,"SoundDuration":76064,"Delta":42187269},{"NoteNumber":73,"Velocity":36,"Duration":76064,"SoundDuration":76064,"Delta":42187269},{"NoteNumber":68,"Velocity":30,"Duration":76064,"SoundDuration":76064,"Delta":42187269},{"NoteNumber":86,"Velocity":31,"Duration":38032,"SoundDuration":38032,"Delta":42301367},{"NoteNumber":84,"Velocity":37,"Duration":78628,"SoundDuration":78628,"Delta":42339399},{"NoteNumber":81,"Velocity":31,"Duration":78628,"SoundDuration":78628,"Delta":42339399},{"NoteNumber":77,"Velocity":31,"Duration":78628,"SoundDuration":78628,"Delta":42339399},{"NoteNumber":86,"Velocity":45,"Duration":39314,"SoundDuration":39314,"Delta":42457342},{"NoteNumber":84,"Velocity":45,"Duration":75052,"SoundDuration":75052,"Delta":42496657},{"NoteNumber":81,"Velocity":38,"Duration":75052,"SoundDuration":75052,"Delta":42496657},{"NoteNumber":77,"Velocity":38,"Duration":75052,"SoundDuration":75052,"Delta":42496657},{"NoteNumber":65,"Velocity":28,"Duration":77327,"SoundDuration":77327,"Delta":42646762},{"NoteNumber":69,"Velocity":28,"Duration":77327,"SoundDuration":77327,"Delta":42646762},{"NoteNumber":72,"Velocity":34,"Duration":77327,"SoundDuration":77327,"Delta":42646762},{"NoteNumber":84,"Velocity":33,"Duration":38663,"SoundDuration":38663,"Delta":42762753},{"NoteNumber":83,"Velocity":40,"Duration":75052,"SoundDuration":75052,"Delta":42801417},{"NoteNumber":80,"Velocity":34,"Duration":75052,"SoundDuration":75052,"Delta":42801417},{"NoteNumber":77,"Velocity":34,"Duration":75052,"SoundDuration":75052,"Delta":42801417},{"NoteNumber":73,"Velocity":31,"Duration":76483,"SoundDuration":76483,"Delta":42951522},{"NoteNumber":68,"Velocity":26,"Duration":76483,"SoundDuration":76483,"Delta":42951522},{"NoteNumber":65,"Velocity":26,"Duration":76483,"SoundDuration":76483,"Delta":42951522},{"NoteNumber":86,"Velocity":40,"Duration":38241,"SoundDuration":38241,"Delta":43066247},{"NoteNumber":84,"Velocity":45,"Duration":75052,"SoundDuration":75052,"Delta":43104489},{"NoteNumber":81,"Velocity":38,"Duration":75052,"SoundDuration":75052,"Delta":43104489},{"NoteNumber":77,"Velocity":38,"Duration":75052,"SoundDuration":75052,"Delta":43104489},{"NoteNumber":65,"Velocity":28,"Duration":75864,"SoundDuration":75864,"Delta":43254594},{"NoteNumber":69,"Velocity":28,"Duration":75864,"SoundDuration":75864,"Delta":43254594},{"NoteNumber":72,"Velocity":33,"Duration":75864,"SoundDuration":75864,"Delta":43254594},{"NoteNumber":80,"Velocity":45,"Duration":75052,"SoundDuration":75052,"Delta":43406324},{"NoteNumber":77,"Velocity":38,"Duration":75052,"SoundDuration":75052,"Delta":43406324},{"NoteNumber":73,"Velocity":38,"Duration":75052,"SoundDuration":75052,"Delta":43406324},{"NoteNumber":68,"Velocity":30,"Duration":75949,"SoundDuration":75949,"Delta":43556429},{"NoteNumber":71,"Velocity":36,"Duration":75949,"SoundDuration":75949,"Delta":43556429},{"NoteNumber":61,"Velocity":34,"Duration":75000,"SoundDuration":75000,"Delta":43708327},{"NoteNumber":70,"Velocity":32,"Duration":37500,"SoundDuration":37500,"Delta":43820827},{"NoteNumber":71,"Velocity":32,"Duration":76335,"SoundDuration":76335,"Delta":43858327},{"NoteNumber":68,"Velocity":27,"Duration":76335,"SoundDuration":76335,"Delta":43858327},{"NoteNumber":63,"Velocity":33,"Duration":76335,"SoundDuration":76335,"Delta":43858327},{"NoteNumber":64,"Velocity":34,"Duration":74812,"SoundDuration":74812,"Delta":44010999},{"NoteNumber":72,"Velocity":32,"Duration":37406,"SoundDuration":37406,"Delta":44123219},{"NoteNumber":73,"Velocity":33,"Duration":76335,"SoundDuration":76335,"Delta":44160625},{"NoteNumber":69,"Velocity":28,"Duration":76335,"SoundDuration":76335,"Delta":44160625},{"NoteNumber":65,"Velocity":35,"Duration":76335,"SoundDuration":76335,"Delta":44160625},{"NoteNumber":66,"Velocity":36,"Duration":74626,"SoundDuration":74626,"Delta":44313297},{"NoteNumber":75,"Velocity":32,"Duration":37313,"SoundDuration":37313,"Delta":44425237},{"NoteNumber":73,"Velocity":29,"Duration":76142,"SoundDuration":76142,"Delta":44462551},{"NoteNumber":76,"Velocity":35,"Duration":76142,"SoundDuration":76142,"Delta":44462551},{"NoteNumber":68,"Velocity":38,"Duration":76142,"SoundDuration":76142,"Delta":44462551},{"NoteNumber":69,"Velocity":39,"Duration":74812,"SoundDuration":74812,"Delta":44614835},{"NoteNumber":77,"Velocity":32,"Duration":37406,"SoundDuration":37406,"Delta":44727055},{"NoteNumber":78,"Velocity":37,"Duration":75757,"SoundDuration":75757,"Delta":44764461},{"NoteNumber":74,"Velocity":31,"Duration":75757,"SoundDuration":75757,"Delta":44764461},{"NoteNumber":70,"Velocity":40,"Duration":75757,"SoundDuration":75757,"Delta":44764461},{"NoteNumber":63,"Velocity":34,"Duration":75000,"SoundDuration":75000,"Delta":44915976},{"NoteNumber":72,"Velocity":32,"Duration":37500,"SoundDuration":37500,"Delta":45028476},{"NoteNumber":73,"Velocity":32,"Duration":76335,"SoundDuration":76335,"Delta":45065976},{"NoteNumber":70,"Velocity":27,"Duration":76335,"SoundDuration":76335,"Delta":45065976},{"NoteNumber":65,"Velocity":33,"Duration":76335,"SoundDuration":76335,"Delta":45065976},{"NoteNumber":66,"Velocity":34,"Duration":74812,"SoundDuration":74812,"Delta":45218648},{"NoteNumber":74,"Velocity":32,"Duration":37406,"SoundDuration":37406,"Delta":45330868},{"NoteNumber":75,"Velocity":33,"Duration":76335,"SoundDuration":76335,"Delta":45368274},{"NoteNumber":71,"Velocity":31,"Duration":76335,"SoundDuration":76335,"Delta":45368274},{"NoteNumber":67,"Velocity":35,"Duration":76335,"SoundDuration":76335,"Delta":45368274},{"NoteNumber":68,"Velocity":36,"Duration":74626,"SoundDuration":74626,"Delta":45520946},{"NoteNumber":76,"Velocity":32,"Duration":37313,"SoundDuration":37313,"Delta":45632886},{"NoteNumber":73,"Velocity":29,"Duration":76142,"SoundDuration":76142,"Delta":45670200},{"NoteNumber":77,"Velocity":35,"Duration":76142,"SoundDuration":76142,"Delta":45670200},{"NoteNumber":70,"Velocity":38,"Duration":76142,"SoundDuration":76142,"Delta":45670200},{"NoteNumber":71,"Velocity":39,"Duration":74812,"SoundDuration":74812,"Delta":45822484},{"NoteNumber":79,"Velocity":32,"Duration":37406,"SoundDuration":37406,"Delta":45934704},{"NoteNumber":80,"Velocity":37,"Duration":77720,"SoundDuration":77720,"Delta":45972110},{"NoteNumber":76,"Velocity":31,"Duration":77720,"SoundDuration":77720,"Delta":45972110},{"NoteNumber":72,"Velocity":40,"Duration":77720,"SoundDuration":77720,"Delta":45972110},{"NoteNumber":93,"Velocity":55,"Duration":38860,"SoundDuration":38860,"Delta":46088690},{"NoteNumber":94,"Velocity":63,"Duration":73891,"SoundDuration":73891,"Delta":46127551},{"NoteNumber":90,"Velocity":53,"Duration":73891,"SoundDuration":73891,"Delta":46127551},{"NoteNumber":60,"Velocity":51,"Duration":73891,"SoundDuration":73891,"Delta":46127551},{"NoteNumber":64,"Velocity":47,"Duration":75000,"SoundDuration":75000,"Delta":46275334},{"NoteNumber":92,"Velocity":51,"Duration":37500,"SoundDuration":37500,"Delta":46387834},{"NoteNumber":93,"Velocity":56,"Duration":73891,"SoundDuration":73891,"Delta":46425334},{"NoteNumber":89,"Velocity":47,"Duration":73891,"SoundDuration":73891,"Delta":46425334},{"NoteNumber":61,"Velocity":52,"Duration":73891,"SoundDuration":73891,"Delta":46425334},{"NoteNumber":65,"Velocity":47,"Duration":75000,"SoundDuration":75000,"Delta":46573118},{"NoteNumber":82,"Velocity":50,"Duration":37500,"SoundDuration":37500,"Delta":46685618},{"NoteNumber":83,"Velocity":55,"Duration":74074,"SoundDuration":74074,"Delta":46723118},{"NoteNumber":81,"Velocity":46,"Duration":74074,"SoundDuration":74074,"Delta":46723118},{"NoteNumber":63,"Velocity":53,"Duration":74074,"SoundDuration":74074,"Delta":46723118},{"NoteNumber":66,"Velocity":50,"Duration":75000,"SoundDuration":75000,"Delta":46871266},{"NoteNumber":82,"Velocity":47,"Duration":37500,"SoundDuration":37500,"Delta":46983766},{"NoteNumber":84,"Velocity":52,"Duration":74626,"SoundDuration":74626,"Delta":47021266},{"NoteNumber":79,"Velocity":44,"Duration":74626,"SoundDuration":74626,"Delta":47021266},{"NoteNumber":64,"Velocity":54,"Duration":74626,"SoundDuration":74626,"Delta":47021266},{"NoteNumber":67,"Velocity":52,"Duration":75757,"SoundDuration":75757,"Delta":47170519},{"NoteNumber":88,"Velocity":53,"Duration":37878,"SoundDuration":37878,"Delta":47284155},{"NoteNumber":89,"Velocity":57,"Duration":74626,"SoundDuration":74626,"Delta":47322034},{"NoteNumber":85,"Velocity":48,"Duration":74626,"SoundDuration":74626,"Delta":47322034},{"NoteNumber":65,"Velocity":56,"Duration":74626,"SoundDuration":74626,"Delta":47322034},{"NoteNumber":69,"Velocity":51,"Duration":75757,"SoundDuration":75757,"Delta":47471288},{"NoteNumber":85,"Velocity":51,"Duration":37878,"SoundDuration":37878,"Delta":47584924},{"NoteNumber":82,"Velocity":45,"Duration":75187,"SoundDuration":75187,"Delta":47622803},{"NoteNumber":86,"Velocity":54,"Duration":75187,"SoundDuration":75187,"Delta":47622803},{"NoteNumber":66,"Velocity":57,"Duration":75187,"SoundDuration":75187,"Delta":47622803},{"NoteNumber":70,"Velocity":53,"Duration":76142,"SoundDuration":76142,"Delta":47773179},{"NoteNumber":76,"Velocity":55,"Duration":38071,"SoundDuration":38071,"Delta":47887392},{"NoteNumber":73,"Velocity":51,"Duration":75187,"SoundDuration":75187,"Delta":47925463},{"NoteNumber":77,"Velocity":60,"Duration":75187,"SoundDuration":75187,"Delta":47925463},{"NoteNumber":68,"Velocity":58,"Duration":75187,"SoundDuration":75187,"Delta":47925463},{"NoteNumber":71,"Velocity":56,"Duration":76335,"SoundDuration":76335,"Delta":48075839},{"NoteNumber":78,"Velocity":53,"Duration":38168,"SoundDuration":38168,"Delta":48190343},{"NoteNumber":79,"Velocity":57,"Duration":75949,"SoundDuration":75949,"Delta":48228511},{"NoteNumber":76,"Velocity":48,"Duration":75949,"SoundDuration":75949,"Delta":48228511},{"NoteNumber":70,"Velocity":59,"Duration":151898,"SoundDuration":151898,"Delta":48228511},{"NoteNumber":72,"Velocity":55,"Duration":153846,"SoundDuration":153846,"Delta":48380410},{"NoteNumber":85,"Velocity":79,"Duration":951269,"SoundDuration":951269,"Delta":48534256},{"NoteNumber":84,"Velocity":59,"Duration":41095,"SoundDuration":41095,"Delta":49608813},{"NoteNumber":72,"Velocity":75,"Duration":104529,"SoundDuration":104529,"Delta":49649909},{"NoteNumber":86,"Velocity":45,"Duration":38961,"SoundDuration":38961,"Delta":50015762},{"NoteNumber":84,"Velocity":45,"Duration":74812,"SoundDuration":74812,"Delta":50054723},{"NoteNumber":81,"Velocity":38,"Duration":74812,"SoundDuration":74812,"Delta":50054723},{"NoteNumber":77,"Velocity":38,"Duration":74812,"SoundDuration":74812,"Delta":50054723},{"NoteNumber":65,"Velocity":28,"Duration":76530,"SoundDuration":76530,"Delta":50204349},{"NoteNumber":69,"Velocity":28,"Duration":76530,"SoundDuration":76530,"Delta":50204349},{"NoteNumber":72,"Velocity":34,"Duration":76530,"SoundDuration":76530,"Delta":50204349},{"NoteNumber":84,"Velocity":33,"Duration":38265,"SoundDuration":38265,"Delta":50319145},{"NoteNumber":83,"Velocity":40,"Duration":74626,"SoundDuration":74626,"Delta":50357410},{"NoteNumber":80,"Velocity":34,"Duration":74626,"SoundDuration":74626,"Delta":50357410},{"NoteNumber":77,"Velocity":34,"Duration":74626,"SoundDuration":74626,"Delta":50357410},{"NoteNumber":73,"Velocity":31,"Duration":76483,"SoundDuration":76483,"Delta":50506663},{"NoteNumber":68,"Velocity":26,"Duration":76483,"SoundDuration":76483,"Delta":50506663},{"NoteNumber":65,"Velocity":26,"Duration":76483,"SoundDuration":76483,"Delta":50506663},{"NoteNumber":86,"Velocity":40,"Duration":38241,"SoundDuration":38241,"Delta":50621389},{"NoteNumber":84,"Velocity":45,"Duration":74812,"SoundDuration":74812,"Delta":50659631},{"NoteNumber":81,"Velocity":38,"Duration":74812,"SoundDuration":74812,"Delta":50659631},{"NoteNumber":77,"Velocity":38,"Duration":74812,"SoundDuration":74812,"Delta":50659631},{"NoteNumber":65,"Velocity":28,"Duration":75864,"SoundDuration":75864,"Delta":50809257},{"NoteNumber":69,"Velocity":28,"Duration":75864,"SoundDuration":75864,"Delta":50809257},{"NoteNumber":72,"Velocity":33,"Duration":75864,"SoundDuration":75864,"Delta":50809257},{"NoteNumber":80,"Velocity":45,"Duration":76064,"SoundDuration":76064,"Delta":50960986},{"NoteNumber":77,"Velocity":38,"Duration":76064,"SoundDuration":76064,"Delta":50960986},{"NoteNumber":73,"Velocity":38,"Duration":76064,"SoundDuration":76064,"Delta":50960986},{"NoteNumber":71,"Velocity":36,"Duration":76064,"SoundDuration":76064,"Delta":50960986},{"NoteNumber":68,"Velocity":30,"Duration":76064,"SoundDuration":76064,"Delta":50960986},{"NoteNumber":86,"Velocity":31,"Duration":38032,"SoundDuration":38032,"Delta":51075084},{"NoteNumber":84,"Velocity":37,"Duration":78628,"SoundDuration":78628,"Delta":51113116},{"NoteNumber":81,"Velocity":31,"Duration":78628,"SoundDuration":78628,"Delta":51113116},{"NoteNumber":77,"Velocity":31,"Duration":78628,"SoundDuration":78628,"Delta":51113116},{"NoteNumber":86,"Velocity":45,"Duration":39314,"SoundDuration":39314,"Delta":51231059},{"NoteNumber":84,"Velocity":45,"Duration":75052,"SoundDuration":75052,"Delta":51270374},{"NoteNumber":81,"Velocity":38,"Duration":75052,"SoundDuration":75052,"Delta":51270374},{"NoteNumber":77,"Velocity":38,"Duration":75052,"SoundDuration":75052,"Delta":51270374},{"NoteNumber":65,"Velocity":28,"Duration":77327,"SoundDuration":77327,"Delta":51420479},{"NoteNumber":69,"Velocity":28,"Duration":77327,"SoundDuration":77327,"Delta":51420479},{"NoteNumber":72,"Velocity":34,"Duration":77327,"SoundDuration":77327,"Delta":51420479},{"NoteNumber":84,"Velocity":33,"Duration":38663,"SoundDuration":38663,"Delta":51536470},{"NoteNumber":83,"Velocity":40,"Duration":75052,"SoundDuration":75052,"Delta":51575134},{"NoteNumber":80,"Velocity":34,"Duration":75052,"SoundDuration":75052,"Delta":51575134},{"NoteNumber":77,"Velocity":34,"Duration":75052,"SoundDuration":75052,"Delta":51575134},{"NoteNumber":73,"Velocity":31,"Duration":76483,"SoundDuration":76483,"Delta":51725239},{"NoteNumber":68,"Velocity":26,"Duration":76483,"SoundDuration":76483,"Delta":51725239},{"NoteNumber":65,"Velocity":26,"Duration":76483,"SoundDuration":76483,"Delta":51725239},{"NoteNumber":86,"Velocity":40,"Duration":38241,"SoundDuration":38241,"Delta":51839964},{"NoteNumber":84,"Velocity":45,"Duration":75052,"SoundDuration":75052,"Delta":51878206},{"NoteNumber":81,"Velocity":38,"Duration":75052,"SoundDuration":75052,"Delta":51878206},{"NoteNumber":77,"Velocity":38,"Duration":75052,"SoundDuration":75052,"Delta":51878206},{"NoteNumber":65,"Velocity":28,"Duration":75864,"SoundDuration":75864,"Delta":52028311},{"NoteNumber":69,"Velocity":28,"Duration":75864,"SoundDuration":75864,"Delta":52028311},{"NoteNumber":72,"Velocity":33,"Duration":75864,"SoundDuration":75864,"Delta":52028311},{"NoteNumber":80,"Velocity":45,"Duration":75052,"SoundDuration":75052,"Delta":52180041},{"NoteNumber":77,"Velocity":38,"Duration":75052,"SoundDuration":75052,"Delta":52180041},{"NoteNumber":73,"Velocity":38,"Duration":75052,"SoundDuration":75052,"Delta":52180041},{"NoteNumber":68,"Velocity":30,"Duration":75949,"SoundDuration":75949,"Delta":52330146},{"NoteNumber":71,"Velocity":36,"Duration":75949,"SoundDuration":75949,"Delta":52330146},{"NoteNumber":59,"Velocity":34,"Duration":75000,"SoundDuration":75000,"Delta":52482044},{"NoteNumber":66,"Velocity":32,"Duration":37500,"SoundDuration":37500,"Delta":52594544},{"NoteNumber":67,"Velocity":32,"Duration":76335,"SoundDuration":76335,"Delta":52632044},{"NoteNumber":64,"Velocity":27,"Duration":76335,"SoundDuration":76335,"Delta":52632044},{"NoteNumber":60,"Velocity":33,"Duration":76335,"SoundDuration":76335,"Delta":52632044},{"NoteNumber":62,"Velocity":34,"Duration":74812,"SoundDuration":74812,"Delta":52784716},{"NoteNumber":69,"Velocity":32,"Duration":37406,"SoundDuration":37406,"Delta":52896936},{"NoteNumber":70,"Velocity":33,"Duration":76335,"SoundDuration":76335,"Delta":52934342},{"NoteNumber":67,"Velocity":28,"Duration":76335,"SoundDuration":76335,"Delta":52934342},{"NoteNumber":63,"Velocity":35,"Duration":76335,"SoundDuration":76335,"Delta":52934342},{"NoteNumber":64,"Velocity":35,"Duration":74626,"SoundDuration":74626,"Delta":53087014},{"NoteNumber":71,"Velocity":32,"Duration":37313,"SoundDuration":37313,"Delta":53198954},{"NoteNumber":68,"Velocity":29,"Duration":76142,"SoundDuration":76142,"Delta":53236268},{"NoteNumber":72,"Velocity":35,"Duration":76142,"SoundDuration":76142,"Delta":53236268},{"NoteNumber":65,"Velocity":37,"Duration":76142,"SoundDuration":76142,"Delta":53236268},{"NoteNumber":67,"Velocity":39,"Duration":74812,"SoundDuration":74812,"Delta":53388552},{"NoteNumber":74,"Velocity":32,"Duration":37406,"SoundDuration":37406,"Delta":53500772},{"NoteNumber":75,"Velocity":37,"Duration":75757,"SoundDuration":75757,"Delta":53538178},{"NoteNumber":72,"Velocity":32,"Duration":75757,"SoundDuration":75757,"Delta":53538178},{"NoteNumber":68,"Velocity":42,"Duration":75757,"SoundDuration":75757,"Delta":53538178},{"NoteNumber":70,"Velocity":44,"Duration":74257,"SoundDuration":74257,"Delta":53689693},{"NoteNumber":77,"Velocity":32,"Duration":37128,"SoundDuration":37128,"Delta":53801080},{"NoteNumber":78,"Velocity":39,"Duration":75257,"SoundDuration":75257,"Delta":53838208},{"NoteNumber":75,"Velocity":33,"Duration":75257,"SoundDuration":75257,"Delta":53838208},{"NoteNumber":71,"Velocity":43,"Duration":75257,"SoundDuration":75257,"Delta":53838208},{"NoteNumber":72,"Velocity":45,"Duration":74074,"SoundDuration":74074,"Delta":53989223},{"NoteNumber":81,"Velocity":32,"Duration":37036,"SoundDuration":37036,"Delta":54100334},{"NoteNumber":82,"Velocity":40,"Duration":75377,"SoundDuration":75377,"Delta":54137371},{"NoteNumber":78,"Velocity":34,"Duration":75377,"SoundDuration":75377,"Delta":54137371},{"NoteNumber":73,"Velocity":46,"Duration":75377,"SoundDuration":75377,"Delta":54137371},{"NoteNumber":74,"Velocity":48,"Duration":73891,"SoundDuration":73891,"Delta":54288125},{"NoteNumber":86,"Velocity":32,"Duration":36945,"SoundDuration":36945,"Delta":54398963},{"NoteNumber":87,"Velocity":39,"Duration":75187,"SoundDuration":75187,"Delta":54435909},{"NoteNumber":82,"Velocity":33,"Duration":75187,"SoundDuration":75187,"Delta":54435909},{"NoteNumber":79,"Velocity":33,"Duration":75187,"SoundDuration":75187,"Delta":54435909},{"NoteNumber":75,"Velocity":50,"Duration":75187,"SoundDuration":75187,"Delta":54435909},{"NoteNumber":76,"Velocity":50,"Duration":73709,"SoundDuration":73709,"Delta":54586285},{"NoteNumber":93,"Velocity":32,"Duration":36854,"SoundDuration":36854,"Delta":54696850},{"NoteNumber":91,"Velocity":39,"Duration":76726,"SoundDuration":76726,"Delta":54733705},{"NoteNumber":88,"Velocity":33,"Duration":76726,"SoundDuration":76726,"Delta":54733705},{"NoteNumber":84,"Velocity":33,"Duration":76726,"SoundDuration":76726,"Delta":54733705},{"NoteNumber":72,"Velocity":45,"Duration":76726,"SoundDuration":76726,"Delta":54733705},{"NoteNumber":86,"Velocity":45,"Duration":38961,"SoundDuration":38961,"Delta":54848794},{"NoteNumber":84,"Velocity":45,"Duration":75052,"SoundDuration":75052,"Delta":54887755},{"NoteNumber":81,"Velocity":38,"Duration":75052,"SoundDuration":75052,"Delta":54887755},{"NoteNumber":77,"Velocity":38,"Duration":75052,"SoundDuration":75052,"Delta":54887755},{"NoteNumber":65,"Velocity":28,"Duration":76530,"SoundDuration":76530,"Delta":55037860},{"NoteNumber":69,"Velocity":28,"Duration":76530,"SoundDuration":76530,"Delta":55037860},{"NoteNumber":72,"Velocity":34,"Duration":76530,"SoundDuration":76530,"Delta":55037860},{"NoteNumber":84,"Velocity":33,"Duration":38265,"SoundDuration":38265,"Delta":55152656},{"NoteNumber":83,"Velocity":40,"Duration":75052,"SoundDuration":75052,"Delta":55190921},{"NoteNumber":80,"Velocity":34,"Duration":75052,"SoundDuration":75052,"Delta":55190921},{"NoteNumber":77,"Velocity":34,"Duration":75052,"SoundDuration":75052,"Delta":55190921},{"NoteNumber":73,"Velocity":31,"Duration":76483,"SoundDuration":76483,"Delta":55341026},{"NoteNumber":68,"Velocity":26,"Duration":76483,"SoundDuration":76483,"Delta":55341026},{"NoteNumber":65,"Velocity":26,"Duration":76483,"SoundDuration":76483,"Delta":55341026},{"NoteNumber":86,"Velocity":40,"Duration":38241,"SoundDuration":38241,"Delta":55455752},{"NoteNumber":84,"Velocity":45,"Duration":75052,"SoundDuration":75052,"Delta":55493994},{"NoteNumber":81,"Velocity":38,"Duration":75052,"SoundDuration":75052,"Delta":55493994},{"NoteNumber":77,"Velocity":38,"Duration":75052,"SoundDuration":75052,"Delta":55493994},{"NoteNumber":65,"Velocity":28,"Duration":75864,"SoundDuration":75864,"Delta":55644099},{"NoteNumber":69,"Velocity":28,"Duration":75864,"SoundDuration":75864,"Delta":55644099},{"NoteNumber":72,"Velocity":33,"Duration":75864,"SoundDuration":75864,"Delta":55644099},{"NoteNumber":84,"Velocity":33,"Duration":37932,"SoundDuration":37932,"Delta":55757896},{"NoteNumber":80,"Velocity":38,"Duration":76064,"SoundDuration":76064,"Delta":55795828},{"NoteNumber":77,"Velocity":38,"Duration":76064,"SoundDuration":76064,"Delta":55795828},{"NoteNumber":83,"Velocity":45,"Duration":76064,"SoundDuration":76064,"Delta":55795828},{"NoteNumber":73,"Velocity":36,"Duration":76064,"SoundDuration":76064,"Delta":55795828},{"NoteNumber":68,"Velocity":30,"Duration":76064,"SoundDuration":76064,"Delta":55795828},{"NoteNumber":86,"Velocity":31,"Duration":38032,"SoundDuration":38032,"Delta":55909926},{"NoteNumber":84,"Velocity":37,"Duration":78628,"SoundDuration":78628,"Delta":55947958},{"NoteNumber":81,"Velocity":31,"Duration":78628,"SoundDuration":78628,"Delta":55947958},{"NoteNumber":77,"Velocity":31,"Duration":78628,"SoundDuration":78628,"Delta":55947958},{"NoteNumber":86,"Velocity":45,"Duration":39314,"SoundDuration":39314,"Delta":56065901},{"NoteNumber":84,"Velocity":45,"Duration":75052,"SoundDuration":75052,"Delta":56105216},{"NoteNumber":81,"Velocity":38,"Duration":75052,"SoundDuration":75052,"Delta":56105216},{"NoteNumber":77,"Velocity":38,"Duration":75052,"SoundDuration":75052,"Delta":56105216},{"NoteNumber":65,"Velocity":28,"Duration":76335,"SoundDuration":76335,"Delta":56255321},{"NoteNumber":69,"Velocity":28,"Duration":76335,"SoundDuration":76335,"Delta":56255321},{"NoteNumber":72,"Velocity":34,"Duration":76335,"SoundDuration":76335,"Delta":56255321},{"NoteNumber":84,"Velocity":33,"Duration":38168,"SoundDuration":38168,"Delta":56369825},{"NoteNumber":83,"Velocity":40,"Duration":75052,"SoundDuration":75052,"Delta":56407993},{"NoteNumber":80,"Velocity":34,"Duration":75052,"SoundDuration":75052,"Delta":56407993},{"NoteNumber":77,"Velocity":34,"Duration":75052,"SoundDuration":75052,"Delta":56407993},{"NoteNumber":73,"Velocity":31,"Duration":76483,"SoundDuration":76483,"Delta":56558098},{"NoteNumber":68,"Velocity":26,"Duration":76483,"SoundDuration":76483,"Delta":56558098},{"NoteNumber":65,"Velocity":26,"Duration":76483,"SoundDuration":76483,"Delta":56558098},{"NoteNumber":86,"Velocity":40,"Duration":38241,"SoundDuration":38241,"Delta":56672823},{"NoteNumber":84,"Velocity":45,"Duration":75052,"SoundDuration":75052,"Delta":56711065},{"NoteNumber":81,"Velocity":38,"Duration":75052,"SoundDuration":75052,"Delta":56711065},{"NoteNumber":77,"Velocity":38,"Duration":75052,"SoundDuration":75052,"Delta":56711065},{"NoteNumber":65,"Velocity":28,"Duration":75864,"SoundDuration":75864,"Delta":56861170},{"NoteNumber":69,"Velocity":28,"Duration":75864,"SoundDuration":75864,"Delta":56861170},{"NoteNumber":72,"Velocity":33,"Duration":75864,"SoundDuration":75864,"Delta":56861170},{"NoteNumber":80,"Velocity":45,"Duration":75052,"SoundDuration":75052,"Delta":57012900},{"NoteNumber":77,"Velocity":38,"Duration":75052,"SoundDuration":75052,"Delta":57012900},{"NoteNumber":73,"Velocity":38,"Duration":75052,"SoundDuration":75052,"Delta":57012900},{"NoteNumber":68,"Velocity":30,"Duration":75949,"SoundDuration":75949,"Delta":57163005},{"NoteNumber":71,"Velocity":36,"Duration":75949,"SoundDuration":75949,"Delta":57163005},{"NoteNumber":61,"Velocity":34,"Duration":75000,"SoundDuration":75000,"Delta":57314903},{"NoteNumber":70,"Velocity":32,"Duration":37500,"SoundDuration":37500,"Delta":57427403},{"NoteNumber":71,"Velocity":32,"Duration":76335,"SoundDuration":76335,"Delta":57464903},{"NoteNumber":68,"Velocity":27,"Duration":76335,"SoundDuration":76335,"Delta":57464903},{"NoteNumber":63,"Velocity":33,"Duration":76335,"SoundDuration":76335,"Delta":57464903},{"NoteNumber":64,"Velocity":34,"Duration":74812,"SoundDuration":74812,"Delta":57617575},{"NoteNumber":72,"Velocity":32,"Duration":37406,"SoundDuration":37406,"Delta":57729795},{"NoteNumber":73,"Velocity":33,"Duration":76335,"SoundDuration":76335,"Delta":57767201},{"NoteNumber":69,"Velocity":28,"Duration":76335,"SoundDuration":76335,"Delta":57767201},{"NoteNumber":65,"Velocity":35,"Duration":76335,"SoundDuration":76335,"Delta":57767201},{"NoteNumber":66,"Velocity":36,"Duration":74257,"SoundDuration":74257,"Delta":57919873},{"NoteNumber":75,"Velocity":32,"Duration":37128,"SoundDuration":37128,"Delta":58031259},{"NoteNumber":73,"Velocity":29,"Duration":76142,"SoundDuration":76142,"Delta":58068388},{"NoteNumber":76,"Velocity":35,"Duration":76142,"SoundDuration":76142,"Delta":58068388},{"NoteNumber":68,"Velocity":38,"Duration":76142,"SoundDuration":76142,"Delta":58068388},{"NoteNumber":69,"Velocity":39,"Duration":74812,"SoundDuration":74812,"Delta":58220673},{"NoteNumber":77,"Velocity":32,"Duration":37406,"SoundDuration":37406,"Delta":58332892},{"NoteNumber":78,"Velocity":37,"Duration":75757,"SoundDuration":75757,"Delta":58370299},{"NoteNumber":74,"Velocity":31,"Duration":75757,"SoundDuration":75757,"Delta":58370299},{"NoteNumber":70,"Velocity":40,"Duration":75757,"SoundDuration":75757,"Delta":58370299},{"NoteNumber":63,"Velocity":34,"Duration":75000,"SoundDuration":75000,"Delta":58521814},{"NoteNumber":72,"Velocity":32,"Duration":37500,"SoundDuration":37500,"Delta":58634314},{"NoteNumber":73,"Velocity":32,"Duration":76335,"SoundDuration":76335,"Delta":58671814},{"NoteNumber":70,"Velocity":27,"Duration":76335,"SoundDuration":76335,"Delta":58671814},{"NoteNumber":65,"Velocity":33,"Duration":76335,"SoundDuration":76335,"Delta":58671814},{"NoteNumber":66,"Velocity":34,"Duration":74812,"SoundDuration":74812,"Delta":58824486},{"NoteNumber":74,"Velocity":32,"Duration":37406,"SoundDuration":37406,"Delta":58936705},{"NoteNumber":75,"Velocity":33,"Duration":76335,"SoundDuration":76335,"Delta":58974112},{"NoteNumber":71,"Velocity":28,"Duration":76335,"SoundDuration":76335,"Delta":58974112},{"NoteNumber":67,"Velocity":35,"Duration":76335,"SoundDuration":76335,"Delta":58974112},{"NoteNumber":68,"Velocity":36,"Duration":74626,"SoundDuration":74626,"Delta":59126784},{"NoteNumber":76,"Velocity":32,"Duration":37313,"SoundDuration":37313,"Delta":59238724},{"NoteNumber":73,"Velocity":29,"Duration":76142,"SoundDuration":76142,"Delta":59276037},{"NoteNumber":77,"Velocity":35,"Duration":76142,"SoundDuration":76142,"Delta":59276037},{"NoteNumber":70,"Velocity":38,"Duration":76142,"SoundDuration":76142,"Delta":59276037},{"NoteNumber":71,"Velocity":39,"Duration":74812,"SoundDuration":74812,"Delta":59428322},{"NoteNumber":79,"Velocity":32,"Duration":37406,"SoundDuration":37406,"Delta":59540541},{"NoteNumber":80,"Velocity":37,"Duration":77720,"SoundDuration":77720,"Delta":59577948},{"NoteNumber":76,"Velocity":31,"Duration":77720,"SoundDuration":77720,"Delta":59577948},{"NoteNumber":72,"Velocity":40,"Duration":77720,"SoundDuration":77720,"Delta":59577948},{"NoteNumber":93,"Velocity":55,"Duration":38860,"SoundDuration":38860,"Delta":59694528},{"NoteNumber":94,"Velocity":65,"Duration":73349,"SoundDuration":73349,"Delta":59733388},{"NoteNumber":90,"Velocity":55,"Duration":73349,"SoundDuration":73349,"Delta":59733388},{"NoteNumber":60,"Velocity":51,"Duration":73349,"SoundDuration":73349,"Delta":59733388},{"NoteNumber":64,"Velocity":47,"Duration":74441,"SoundDuration":74441,"Delta":59880088},{"NoteNumber":92,"Velocity":51,"Duration":37220,"SoundDuration":37220,"Delta":59991750},{"NoteNumber":93,"Velocity":59,"Duration":73349,"SoundDuration":73349,"Delta":60028971},{"NoteNumber":89,"Velocity":50,"Duration":73349,"SoundDuration":73349,"Delta":60028971},{"NoteNumber":61,"Velocity":52,"Duration":73349,"SoundDuration":73349,"Delta":60028971},{"NoteNumber":65,"Velocity":47,"Duration":74441,"SoundDuration":74441,"Delta":60175671},{"NoteNumber":82,"Velocity":50,"Duration":37220,"SoundDuration":37220,"Delta":60287333},{"NoteNumber":83,"Velocity":57,"Duration":73709,"SoundDuration":73709,"Delta":60324554},{"NoteNumber":81,"Velocity":48,"Duration":73709,"SoundDuration":73709,"Delta":60324554},{"NoteNumber":63,"Velocity":53,"Duration":73709,"SoundDuration":73709,"Delta":60324554},{"NoteNumber":66,"Velocity":50,"Duration":75000,"SoundDuration":75000,"Delta":60471974},{"NoteNumber":82,"Velocity":47,"Duration":37500,"SoundDuration":37500,"Delta":60584474},{"NoteNumber":84,"Velocity":55,"Duration":74257,"SoundDuration":74257,"Delta":60621974},{"NoteNumber":79,"Velocity":46,"Duration":74257,"SoundDuration":74257,"Delta":60621974},{"NoteNumber":64,"Velocity":54,"Duration":74257,"SoundDuration":74257,"Delta":60621974},{"NoteNumber":67,"Velocity":52,"Duration":75757,"SoundDuration":75757,"Delta":60770489},{"NoteNumber":88,"Velocity":53,"Duration":37878,"SoundDuration":37878,"Delta":60884125},{"NoteNumber":89,"Velocity":59,"Duration":74626,"SoundDuration":74626,"Delta":60922004},{"NoteNumber":85,"Velocity":50,"Duration":74626,"SoundDuration":74626,"Delta":60922004},{"NoteNumber":65,"Velocity":56,"Duration":74626,"SoundDuration":74626,"Delta":60922004},{"NoteNumber":69,"Velocity":51,"Duration":75757,"SoundDuration":75757,"Delta":61071258},{"NoteNumber":85,"Velocity":51,"Duration":37878,"SoundDuration":37878,"Delta":61184894},{"NoteNumber":82,"Velocity":47,"Duration":75187,"SoundDuration":75187,"Delta":61222773},{"NoteNumber":86,"Velocity":56,"Duration":75187,"SoundDuration":75187,"Delta":61222773},{"NoteNumber":66,"Velocity":57,"Duration":75187,"SoundDuration":75187,"Delta":61222773},{"NoteNumber":70,"Velocity":53,"Duration":76142,"SoundDuration":76142,"Delta":61373149},{"NoteNumber":76,"Velocity":55,"Duration":38071,"SoundDuration":38071,"Delta":61487362},{"NoteNumber":73,"Velocity":51,"Duration":75187,"SoundDuration":75187,"Delta":61525433},{"NoteNumber":77,"Velocity":60,"Duration":75187,"SoundDuration":75187,"Delta":61525433},{"NoteNumber":68,"Velocity":58,"Duration":75187,"SoundDuration":75187,"Delta":61525433},{"NoteNumber":71,"Velocity":56,"Duration":76335,"SoundDuration":76335,"Delta":61675809},{"NoteNumber":78,"Velocity":53,"Duration":38168,"SoundDuration":38168,"Delta":61790313},{"NoteNumber":79,"Velocity":57,"Duration":75949,"SoundDuration":75949,"Delta":61828481},{"NoteNumber":76,"Velocity":48,"Duration":75949,"SoundDuration":75949,"Delta":61828481},{"NoteNumber":70,"Velocity":59,"Duration":151898,"SoundDuration":151898,"Delta":61828481},{"NoteNumber":72,"Velocity":55,"Duration":153846,"SoundDuration":153846,"Delta":61980380},{"NoteNumber":85,"Velocity":79,"Duration":951269,"SoundDuration":951269,"Delta":62134226},{"NoteNumber":84,"Velocity":59,"Duration":41095,"SoundDuration":41095,"Delta":63208783},{"NoteNumber":72,"Velocity":75,"Duration":102389,"SoundDuration":102389,"Delta":63249879},{"NoteNumber":91,"Velocity":38,"Duration":60654,"SoundDuration":60654,"Delta":63591175},{"NoteNumber":86,"Velocity":41,"Duration":632955,"SoundDuration":632955,"Delta":63651830},{"NoteNumber":89,"Velocity":41,"Duration":52597,"SoundDuration":52597,"Delta":63651830},{"NoteNumber":53,"Velocity":45,"Duration":1258700,"SoundDuration":1258700,"Delta":63651830},{"NoteNumber":91,"Velocity":33,"Duration":53156,"SoundDuration":53156,"Delta":63704427},{"NoteNumber":89,"Velocity":41,"Duration":52771,"SoundDuration":52771,"Delta":63757584},{"NoteNumber":91,"Velocity":33,"Duration":53121,"SoundDuration":53121,"Delta":63810355},{"NoteNumber":65,"Velocity":36,"Duration":158737,"SoundDuration":158737,"Delta":63810355},{"NoteNumber":89,"Velocity":41,"Duration":52565,"SoundDuration":52565,"Delta":63863476},{"NoteNumber":91,"Velocity":33,"Duration":53051,"SoundDuration":53051,"Delta":63916041},{"NoteNumber":89,"Velocity":41,"Duration":52702,"SoundDuration":52702,"Delta":63969093},{"NoteNumber":57,"Velocity":43,"Duration":315692,"SoundDuration":315692,"Delta":63969093},{"NoteNumber":91,"Velocity":33,"Duration":52770,"SoundDuration":52770,"Delta":64021795},{"NoteNumber":89,"Velocity":41,"Duration":52390,"SoundDuration":52390,"Delta":64074566},{"NoteNumber":91,"Velocity":33,"Duration":52632,"SoundDuration":52632,"Delta":64126957},{"NoteNumber":65,"Velocity":36,"Duration":157829,"SoundDuration":157829,"Delta":64126957},{"NoteNumber":89,"Velocity":41,"Duration":52840,"SoundDuration":52840,"Delta":64179589},{"NoteNumber":88,"Velocity":35,"Duration":39266,"SoundDuration":39266,"Delta":64232430},{"NoteNumber":83,"Velocity":37,"Duration":625745,"SoundDuration":625745,"Delta":64284786},{"NoteNumber":86,"Velocity":37,"Duration":52322,"SoundDuration":52322,"Delta":64284786},{"NoteNumber":56,"Velocity":45,"Duration":314587,"SoundDuration":314587,"Delta":64284786},{"NoteNumber":88,"Velocity":30,"Duration":52701,"SoundDuration":52701,"Delta":64337108},{"NoteNumber":86,"Velocity":37,"Duration":52254,"SoundDuration":52254,"Delta":64389809},{"NoteNumber":88,"Velocity":31,"Duration":52700,"SoundDuration":52700,"Delta":64442063},{"NoteNumber":65,"Velocity":36,"Duration":157310,"SoundDuration":157310,"Delta":64442063},{"NoteNumber":86,"Velocity":37,"Duration":52253,"SoundDuration":52253,"Delta":64494764},{"NoteNumber":88,"Velocity":36,"Duration":52356,"SoundDuration":52356,"Delta":64547017},{"NoteNumber":86,"Velocity":37,"Duration":51982,"SoundDuration":51982,"Delta":64599373},{"NoteNumber":59,"Velocity":43,"Duration":311157,"SoundDuration":311157,"Delta":64599373},{"NoteNumber":88,"Velocity":32,"Duration":52185,"SoundDuration":52185,"Delta":64651356},{"NoteNumber":86,"Velocity":37,"Duration":51847,"SoundDuration":51847,"Delta":64703541},{"NoteNumber":88,"Velocity":31,"Duration":51480,"SoundDuration":51480,"Delta":64755389},{"NoteNumber":65,"Velocity":36,"Duration":155142,"SoundDuration":155142,"Delta":64755389},{"NoteNumber":86,"Velocity":37,"Duration":51847,"SoundDuration":51847,"Delta":64806869},{"NoteNumber":86,"Velocity":38,"Duration":51814,"SoundDuration":51814,"Delta":64858717},{"NoteNumber":81,"Velocity":41,"Duration":310851,"SoundDuration":310851,"Delta":64910531},{"NoteNumber":84,"Velocity":41,"Duration":52083,"SoundDuration":52083,"Delta":64910531},{"NoteNumber":53,"Velocity":45,"Duration":1247192,"SoundDuration":1247192,"Delta":64910531},{"NoteNumber":86,"Velocity":32,"Duration":51646,"SoundDuration":51646,"Delta":64962614},{"NoteNumber":84,"Velocity":37,"Duration":51813,"SoundDuration":51813,"Delta":65014261},{"NoteNumber":86,"Velocity":31,"Duration":51847,"SoundDuration":51847,"Delta":65066074},{"NoteNumber":65,"Velocity":36,"Duration":155308,"SoundDuration":155308,"Delta":65066074},{"NoteNumber":84,"Velocity":37,"Duration":51646,"SoundDuration":51646,"Delta":65117922},{"NoteNumber":88,"Velocity":38,"Duration":51813,"SoundDuration":51813,"Delta":65169569},{"NoteNumber":83,"Velocity":37,"Duration":310716,"SoundDuration":310716,"Delta":65221383},{"NoteNumber":86,"Velocity":37,"Duration":51848,"SoundDuration":51848,"Delta":65221383},{"NoteNumber":59,"Velocity":43,"Duration":310716,"SoundDuration":310716,"Delta":65221383},{"NoteNumber":88,"Velocity":32,"Duration":51679,"SoundDuration":51679,"Delta":65273231},{"NoteNumber":86,"Velocity":37,"Duration":51915,"SoundDuration":51915,"Delta":65324911},{"NoteNumber":88,"Velocity":33,"Duration":51746,"SoundDuration":51746,"Delta":65376826},{"NoteNumber":65,"Velocity":35,"Duration":155273,"SoundDuration":155273,"Delta":65376826},{"NoteNumber":86,"Velocity":36,"Duration":51713,"SoundDuration":51713,"Delta":65428573},{"NoteNumber":86,"Velocity":38,"Duration":51813,"SoundDuration":51813,"Delta":65480286},{"NoteNumber":81,"Velocity":39,"Duration":312096,"SoundDuration":312096,"Delta":65532099},{"NoteNumber":84,"Velocity":39,"Duration":51813,"SoundDuration":51813,"Delta":65532099},{"NoteNumber":57,"Velocity":42,"Duration":312096,"SoundDuration":312096,"Delta":65532099},{"NoteNumber":86,"Velocity":34,"Duration":51880,"SoundDuration":51880,"Delta":65583913},{"NoteNumber":84,"Velocity":39,"Duration":51947,"SoundDuration":51947,"Delta":65635794},{"NoteNumber":86,"Velocity":33,"Duration":52083,"SoundDuration":52083,"Delta":65687742},{"NoteNumber":65,"Velocity":33,"Duration":156453,"SoundDuration":156453,"Delta":65687742},{"NoteNumber":84,"Velocity":39,"Duration":52151,"SoundDuration":52151,"Delta":65739825},{"NoteNumber":85,"Velocity":38,"Duration":52219,"SoundDuration":52219,"Delta":65791976},{"NoteNumber":77,"Velocity":36,"Duration":313527,"SoundDuration":313527,"Delta":65844196},{"NoteNumber":83,"Velocity":36,"Duration":52219,"SoundDuration":52219,"Delta":65844196},{"NoteNumber":56,"Velocity":41,"Duration":313527,"SoundDuration":313527,"Delta":65844196},{"NoteNumber":85,"Velocity":31,"Duration":52356,"SoundDuration":52356,"Delta":65896415},{"NoteNumber":83,"Velocity":36,"Duration":52049,"SoundDuration":52049,"Delta":65948772},{"NoteNumber":85,"Velocity":31,"Duration":52426,"SoundDuration":52426,"Delta":66000821},{"NoteNumber":65,"Velocity":36,"Duration":156901,"SoundDuration":156901,"Delta":66000821},{"NoteNumber":83,"Velocity":37,"Duration":52254,"SoundDuration":52254,"Delta":66053247},{"NoteNumber":86,"Velocity":36,"Duration":52220,"SoundDuration":52220,"Delta":66105502},{"NoteNumber":81,"Velocity":37,"Duration":625929,"SoundDuration":625929,"Delta":66157723},{"NoteNumber":84,"Velocity":37,"Duration":52322,"SoundDuration":52322,"Delta":66157723},{"NoteNumber":53,"Velocity":45,"Duration":1252641,"SoundDuration":1252641,"Delta":66157723},{"NoteNumber":86,"Velocity":30,"Duration":51914,"SoundDuration":51914,"Delta":66210045},{"NoteNumber":84,"Velocity":37,"Duration":52356,"SoundDuration":52356,"Delta":66261960},{"NoteNumber":86,"Velocity":31,"Duration":52083,"SoundDuration":52083,"Delta":66314316},{"NoteNumber":65,"Velocity":36,"Duration":156660,"SoundDuration":156660,"Delta":66314316},{"NoteNumber":84,"Velocity":36,"Duration":52459,"SoundDuration":52459,"Delta":66366399},{"NoteNumber":86,"Velocity":31,"Duration":52117,"SoundDuration":52117,"Delta":66418858},{"NoteNumber":84,"Velocity":36,"Duration":51948,"SoundDuration":51948,"Delta":66470976},{"NoteNumber":57,"Velocity":42,"Duration":312676,"SoundDuration":312676,"Delta":66470976},{"NoteNumber":86,"Velocity":31,"Duration":51981,"SoundDuration":51981,"Delta":66522924},{"NoteNumber":84,"Velocity":36,"Duration":51780,"SoundDuration":51780,"Delta":66574906},{"NoteNumber":86,"Velocity":30,"Duration":52287,"SoundDuration":52287,"Delta":66626686},{"NoteNumber":65,"Velocity":35,"Duration":156966,"SoundDuration":156966,"Delta":66626686},{"NoteNumber":84,"Velocity":35,"Duration":52253,"SoundDuration":52253,"Delta":66678974},{"NoteNumber":85,"Velocity":35,"Duration":52424,"SoundDuration":52424,"Delta":66731227},{"NoteNumber":77,"Velocity":35,"Duration":626711,"SoundDuration":626711,"Delta":66783652},{"NoteNumber":83,"Velocity":35,"Duration":52356,"SoundDuration":52356,"Delta":66783652},{"NoteNumber":56,"Velocity":39,"Duration":313391,"SoundDuration":313391,"Delta":66783652},{"NoteNumber":85,"Velocity":28,"Duration":52083,"SoundDuration":52083,"Delta":66836008},{"NoteNumber":83,"Velocity":35,"Duration":52529,"SoundDuration":52529,"Delta":66888092},{"NoteNumber":85,"Velocity":29,"Duration":52151,"SoundDuration":52151,"Delta":66940621},{"NoteNumber":65,"Velocity":32,"Duration":156422,"SoundDuration":156422,"Delta":66940621},{"NoteNumber":83,"Velocity":35,"Duration":51914,"SoundDuration":51914,"Delta":66992772},{"NoteNumber":85,"Velocity":30,"Duration":52356,"SoundDuration":52356,"Delta":67044687},{"NoteNumber":83,"Velocity":35,"Duration":52151,"SoundDuration":52151,"Delta":67097043},{"NoteNumber":59,"Velocity":39,"Duration":313320,"SoundDuration":313320,"Delta":67097043},{"NoteNumber":85,"Velocity":30,"Duration":52117,"SoundDuration":52117,"Delta":67149195},{"NoteNumber":83,"Velocity":34,"Duration":52356,"SoundDuration":52356,"Delta":67201312},{"NoteNumber":85,"Velocity":29,"Duration":52083,"SoundDuration":52083,"Delta":67253668},{"NoteNumber":65,"Velocity":33,"Duration":156695,"SoundDuration":156695,"Delta":67253668},{"NoteNumber":83,"Velocity":34,"Duration":52288,"SoundDuration":52288,"Delta":67305752},{"NoteNumber":83,"Velocity":33,"Duration":52323,"SoundDuration":52323,"Delta":67358041},{"NoteNumber":74,"Velocity":34,"Duration":627366,"SoundDuration":627366,"Delta":67410364},{"NoteNumber":81,"Velocity":34,"Duration":51981,"SoundDuration":51981,"Delta":67410364},{"NoteNumber":53,"Velocity":38,"Duration":627366,"SoundDuration":627366,"Delta":67410364},{"NoteNumber":83,"Velocity":27,"Duration":52321,"SoundDuration":52321,"Delta":67462346},{"NoteNumber":81,"Velocity":32,"Duration":52185,"SoundDuration":52185,"Delta":67514668},{"NoteNumber":83,"Velocity":28,"Duration":51780,"SoundDuration":51780,"Delta":67566853},{"NoteNumber":65,"Velocity":30,"Duration":156733,"SoundDuration":156733,"Delta":67566853},{"NoteNumber":81,"Velocity":32,"Duration":52425,"SoundDuration":52425,"Delta":67618633},{"NoteNumber":83,"Velocity":29,"Duration":52528,"SoundDuration":52528,"Delta":67671059},{"NoteNumber":81,"Velocity":31,"Duration":52253,"SoundDuration":52253,"Delta":67723587},{"NoteNumber":59,"Velocity":36,"Duration":314143,"SoundDuration":314143,"Delta":67723587},{"NoteNumber":83,"Velocity":29,"Duration":52390,"SoundDuration":52390,"Delta":67775840},{"NoteNumber":81,"Velocity":30,"Duration":52666,"SoundDuration":52666,"Delta":67828231},{"NoteNumber":83,"Velocity":27,"Duration":52049,"SoundDuration":52049,"Delta":67880898},{"NoteNumber":65,"Velocity":29,"Duration":156832,"SoundDuration":156832,"Delta":67880898},{"NoteNumber":81,"Velocity":30,"Duration":52220,"SoundDuration":52220,"Delta":67932948},{"NoteNumber":79,"Velocity":30,"Duration":52562,"SoundDuration":52562,"Delta":67985168},{"NoteNumber":73,"Velocity":28,"Duration":649827,"SoundDuration":649827,"Delta":68037730},{"NoteNumber":77,"Velocity":28,"Duration":52117,"SoundDuration":52117,"Delta":68037730},{"NoteNumber":57,"Velocity":34,"Duration":312506,"SoundDuration":312506,"Delta":68037730},{"NoteNumber":53,"Velocity":34,"Duration":649827,"SoundDuration":649827,"Delta":68037730},{"NoteNumber":79,"Velocity":24,"Duration":52050,"SoundDuration":52050,"Delta":68089848},{"NoteNumber":77,"Velocity":28,"Duration":52390,"SoundDuration":52390,"Delta":68141898},{"NoteNumber":79,"Velocity":23,"Duration":51881,"SoundDuration":51881,"Delta":68194289},{"NoteNumber":65,"Velocity":25,"Duration":155948,"SoundDuration":155948,"Delta":68194289},{"NoteNumber":77,"Velocity":27,"Duration":51847,"SoundDuration":51847,"Delta":68246170},{"NoteNumber":79,"Velocity":26,"Duration":52219,"SoundDuration":52219,"Delta":68298017},{"NoteNumber":77,"Velocity":28,"Duration":52083,"SoundDuration":52083,"Delta":68350237},{"NoteNumber":56,"Velocity":32,"Duration":337320,"SoundDuration":337320,"Delta":68350237},{"NoteNumber":79,"Velocity":23,"Duration":52083,"SoundDuration":52083,"Delta":68402320},{"NoteNumber":77,"Velocity":28,"Duration":52356,"SoundDuration":52356,"Delta":68454404},{"NoteNumber":79,"Velocity":24,"Duration":51847,"SoundDuration":51847,"Delta":68506761},{"NoteNumber":65,"Velocity":25,"Duration":180796,"SoundDuration":180796,"Delta":68506761},{"NoteNumber":77,"Velocity":26,"Duration":75895,"SoundDuration":75895,"Delta":68558608},{"NoteNumber":91,"Velocity":33,"Duration":53054,"SoundDuration":53054,"Delta":68634503},{"NoteNumber":86,"Velocity":36,"Duration":631264,"SoundDuration":631264,"Delta":68687558},{"NoteNumber":89,"Velocity":36,"Duration":52770,"SoundDuration":52770,"Delta":68687558},{"NoteNumber":53,"Velocity":45,"Duration":1257221,"SoundDuration":1257221,"Delta":68687558},{"NoteNumber":91,"Velocity":29,"Duration":53194,"SoundDuration":53194,"Delta":68740329},{"NoteNumber":89,"Velocity":36,"Duration":52704,"SoundDuration":52704,"Delta":68793523},{"NoteNumber":91,"Velocity":29,"Duration":52598,"SoundDuration":52598,"Delta":68846228},{"NoteNumber":65,"Velocity":41,"Duration":157039,"SoundDuration":157039,"Delta":68846228},{"NoteNumber":89,"Velocity":36,"Duration":52425,"SoundDuration":52425,"Delta":68898826},{"NoteNumber":91,"Velocity":29,"Duration":52015,"SoundDuration":52015,"Delta":68951252},{"NoteNumber":89,"Velocity":36,"Duration":52702,"SoundDuration":52702,"Delta":69003267},{"NoteNumber":57,"Velocity":43,"Duration":315554,"SoundDuration":315554,"Delta":69003267},{"NoteNumber":91,"Velocity":29,"Duration":52772,"SoundDuration":52772,"Delta":69055969},{"NoteNumber":89,"Velocity":36,"Duration":52390,"SoundDuration":52390,"Delta":69108742},{"NoteNumber":91,"Velocity":29,"Duration":52528,"SoundDuration":52528,"Delta":69161132},{"NoteNumber":65,"Velocity":38,"Duration":157689,"SoundDuration":157689,"Delta":69161132},{"NoteNumber":89,"Velocity":36,"Duration":52493,"SoundDuration":52493,"Delta":69213661},{"NoteNumber":88,"Velocity":31,"Duration":39577,"SoundDuration":39577,"Delta":69266155},{"NoteNumber":83,"Velocity":37,"Duration":625957,"SoundDuration":625957,"Delta":69318822},{"NoteNumber":86,"Velocity":37,"Duration":52459,"SoundDuration":52459,"Delta":69318822},{"NoteNumber":56,"Velocity":45,"Duration":314902,"SoundDuration":314902,"Delta":69318822},{"NoteNumber":88,"Velocity":30,"Duration":52875,"SoundDuration":52875,"Delta":69371281},{"NoteNumber":86,"Velocity":37,"Duration":52633,"SoundDuration":52633,"Delta":69424156},{"NoteNumber":88,"Velocity":31,"Duration":52253,"SoundDuration":52253,"Delta":69476789},{"NoteNumber":65,"Velocity":36,"Duration":156934,"SoundDuration":156934,"Delta":69476789},{"NoteNumber":86,"Velocity":37,"Duration":52597,"SoundDuration":52597,"Delta":69529043},{"NoteNumber":88,"Velocity":36,"Duration":52084,"SoundDuration":52084,"Delta":69581640},{"NoteNumber":86,"Velocity":37,"Duration":51646,"SoundDuration":51646,"Delta":69633724},{"NoteNumber":59,"Velocity":43,"Duration":311055,"SoundDuration":311055,"Delta":69633724},{"NoteNumber":88,"Velocity":32,"Duration":51915,"SoundDuration":51915,"Delta":69685370},{"NoteNumber":86,"Velocity":37,"Duration":51613,"SoundDuration":51613,"Delta":69737285},{"NoteNumber":88,"Velocity":31,"Duration":52084,"SoundDuration":52084,"Delta":69788898},{"NoteNumber":65,"Velocity":37,"Duration":155880,"SoundDuration":155880,"Delta":69788898},{"NoteNumber":86,"Velocity":37,"Duration":52016,"SoundDuration":52016,"Delta":69840983},{"NoteNumber":86,"Velocity":38,"Duration":51780,"SoundDuration":51780,"Delta":69892999},{"NoteNumber":81,"Velocity":41,"Duration":311221,"SoundDuration":311221,"Delta":69944779},{"NoteNumber":84,"Velocity":41,"Duration":51746,"SoundDuration":51746,"Delta":69944779},{"NoteNumber":53,"Velocity":45,"Duration":1247294,"SoundDuration":1247294,"Delta":69944779},{"NoteNumber":86,"Velocity":32,"Duration":51814,"SoundDuration":51814,"Delta":69996526},{"NoteNumber":84,"Velocity":37,"Duration":51746,"SoundDuration":51746,"Delta":70048341},{"NoteNumber":86,"Velocity":31,"Duration":52050,"SoundDuration":52050,"Delta":70100087},{"NoteNumber":65,"Velocity":36,"Duration":155913,"SoundDuration":155913,"Delta":70100087},{"NoteNumber":84,"Velocity":37,"Duration":51847,"SoundDuration":51847,"Delta":70152138},{"NoteNumber":88,"Velocity":38,"Duration":52015,"SoundDuration":52015,"Delta":70203985},{"NoteNumber":83,"Velocity":37,"Duration":310883,"SoundDuration":310883,"Delta":70256001},{"NoteNumber":86,"Velocity":37,"Duration":51780,"SoundDuration":51780,"Delta":70256001},{"NoteNumber":59,"Velocity":43,"Duration":310883,"SoundDuration":310883,"Delta":70256001},{"NoteNumber":88,"Velocity":32,"Duration":51680,"SoundDuration":51680,"Delta":70307781},{"NoteNumber":86,"Velocity":37,"Duration":51914,"SoundDuration":51914,"Delta":70359462},{"NoteNumber":88,"Velocity":33,"Duration":51813,"SoundDuration":51813,"Delta":70411377},{"NoteNumber":65,"Velocity":35,"Duration":155507,"SoundDuration":155507,"Delta":70411377},{"NoteNumber":86,"Velocity":36,"Duration":51880,"SoundDuration":51880,"Delta":70463190},{"NoteNumber":86,"Velocity":38,"Duration":51813,"SoundDuration":51813,"Delta":70515071},{"NoteNumber":81,"Velocity":39,"Duration":312096,"SoundDuration":312096,"Delta":70566884},{"NoteNumber":84,"Velocity":39,"Duration":51813,"SoundDuration":51813,"Delta":70566884},{"NoteNumber":57,"Velocity":42,"Duration":312096,"SoundDuration":312096,"Delta":70566884},{"NoteNumber":86,"Velocity":34,"Duration":51880,"SoundDuration":51880,"Delta":70618698},{"NoteNumber":84,"Velocity":39,"Duration":51947,"SoundDuration":51947,"Delta":70670579},{"NoteNumber":86,"Velocity":33,"Duration":52083,"SoundDuration":52083,"Delta":70722527},{"NoteNumber":65,"Velocity":33,"Duration":156453,"SoundDuration":156453,"Delta":70722527},{"NoteNumber":84,"Velocity":39,"Duration":52151,"SoundDuration":52151,"Delta":70774610},{"NoteNumber":85,"Velocity":38,"Duration":52219,"SoundDuration":52219,"Delta":70826761},{"NoteNumber":77,"Velocity":36,"Duration":313093,"SoundDuration":313093,"Delta":70878981},{"NoteNumber":83,"Velocity":36,"Duration":52050,"SoundDuration":52050,"Delta":70878981},{"NoteNumber":56,"Velocity":41,"Duration":313093,"SoundDuration":313093,"Delta":70878981},{"NoteNumber":85,"Velocity":31,"Duration":51679,"SoundDuration":51679,"Delta":70931031},{"NoteNumber":83,"Velocity":36,"Duration":52495,"SoundDuration":52495,"Delta":70982711},{"NoteNumber":85,"Velocity":31,"Duration":52254,"SoundDuration":52254,"Delta":71035207},{"NoteNumber":65,"Velocity":36,"Duration":156867,"SoundDuration":156867,"Delta":71035207},{"NoteNumber":83,"Velocity":37,"Duration":52426,"SoundDuration":52426,"Delta":71087461},{"NoteNumber":86,"Velocity":36,"Duration":52187,"SoundDuration":52187,"Delta":71139887},{"NoteNumber":81,"Velocity":37,"Duration":625455,"SoundDuration":625455,"Delta":71192074},{"NoteNumber":84,"Velocity":37,"Duration":52086,"SoundDuration":52086,"Delta":71192074},{"NoteNumber":53,"Velocity":45,"Duration":1255222,"SoundDuration":1255222,"Delta":71192074},{"NoteNumber":86,"Velocity":30,"Duration":52493,"SoundDuration":52493,"Delta":71244161},{"NoteNumber":84,"Velocity":37,"Duration":51881,"SoundDuration":51881,"Delta":71296654},{"NoteNumber":86,"Velocity":31,"Duration":52152,"SoundDuration":52152,"Delta":71348536},{"NoteNumber":65,"Velocity":36,"Duration":156422,"SoundDuration":156422,"Delta":71348536},{"NoteNumber":84,"Velocity":36,"Duration":52254,"SoundDuration":52254,"Delta":71400688},{"NoteNumber":86,"Velocity":31,"Duration":52016,"SoundDuration":52016,"Delta":71452942},{"NoteNumber":84,"Velocity":36,"Duration":52185,"SoundDuration":52185,"Delta":71504958},{"NoteNumber":57,"Velocity":42,"Duration":312571,"SoundDuration":312571,"Delta":71504958},{"NoteNumber":86,"Velocity":31,"Duration":51847,"SoundDuration":51847,"Delta":71557144},{"NoteNumber":84,"Velocity":36,"Duration":52016,"SoundDuration":52016,"Delta":71608991},{"NoteNumber":86,"Velocity":30,"Duration":52321,"SoundDuration":52321,"Delta":71661007},{"NoteNumber":65,"Velocity":35,"Duration":156522,"SoundDuration":156522,"Delta":71661007},{"NoteNumber":84,"Velocity":35,"Duration":52049,"SoundDuration":52049,"Delta":71713329},{"NoteNumber":85,"Velocity":35,"Duration":52151,"SoundDuration":52151,"Delta":71765378},{"NoteNumber":77,"Velocity":35,"Duration":629767,"SoundDuration":629767,"Delta":71817530},{"NoteNumber":83,"Velocity":35,"Duration":52424,"SoundDuration":52424,"Delta":71817530},{"NoteNumber":56,"Velocity":39,"Duration":314800,"SoundDuration":314800,"Delta":71817530},{"NoteNumber":85,"Velocity":28,"Duration":52805,"SoundDuration":52805,"Delta":71869954},{"NoteNumber":83,"Velocity":35,"Duration":52083,"SoundDuration":52083,"Delta":71922760},{"NoteNumber":85,"Velocity":29,"Duration":52668,"SoundDuration":52668,"Delta":71974844},{"NoteNumber":65,"Velocity":32,"Duration":157486,"SoundDuration":157486,"Delta":71974844},{"NoteNumber":83,"Velocity":35,"Duration":52357,"SoundDuration":52357,"Delta":72027512},{"NoteNumber":85,"Velocity":30,"Duration":52460,"SoundDuration":52460,"Delta":72079870},{"NoteNumber":83,"Velocity":35,"Duration":52562,"SoundDuration":52562,"Delta":72132330},{"NoteNumber":59,"Velocity":39,"Duration":314967,"SoundDuration":314967,"Delta":72132330},{"NoteNumber":85,"Velocity":30,"Duration":52390,"SoundDuration":52390,"Delta":72184893},{"NoteNumber":83,"Velocity":34,"Duration":52736,"SoundDuration":52736,"Delta":72237284},{"NoteNumber":85,"Velocity":29,"Duration":52219,"SoundDuration":52219,"Delta":72290020},{"NoteNumber":65,"Velocity":33,"Duration":157277,"SoundDuration":157277,"Delta":72290020},{"NoteNumber":83,"Velocity":34,"Duration":52666,"SoundDuration":52666,"Delta":72342240},{"NoteNumber":83,"Velocity":33,"Duration":52391,"SoundDuration":52391,"Delta":72394906},{"NoteNumber":74,"Velocity":34,"Duration":628939,"SoundDuration":628939,"Delta":72447297},{"NoteNumber":81,"Velocity":34,"Duration":52356,"SoundDuration":52356,"Delta":72447297},{"NoteNumber":53,"Velocity":38,"Duration":628939,"SoundDuration":628939,"Delta":72447297},{"NoteNumber":83,"Velocity":27,"Duration":52805,"SoundDuration":52805,"Delta":72499654},{"NoteNumber":81,"Velocity":32,"Duration":52151,"SoundDuration":52151,"Delta":72552459},{"NoteNumber":83,"Velocity":28,"Duration":52493,"SoundDuration":52493,"Delta":72604611},{"NoteNumber":65,"Velocity":30,"Duration":157241,"SoundDuration":157241,"Delta":72604611},{"NoteNumber":81,"Velocity":32,"Duration":52528,"SoundDuration":52528,"Delta":72657105},{"NoteNumber":83,"Velocity":29,"Duration":52219,"SoundDuration":52219,"Delta":72709633},{"NoteNumber":81,"Velocity":31,"Duration":52151,"SoundDuration":52151,"Delta":72761852},{"NoteNumber":59,"Velocity":36,"Duration":314384,"SoundDuration":314384,"Delta":72761852},{"NoteNumber":83,"Velocity":29,"Duration":52770,"SoundDuration":52770,"Delta":72814004},{"NoteNumber":81,"Velocity":30,"Duration":52701,"SoundDuration":52701,"Delta":72866774},{"NoteNumber":83,"Velocity":27,"Duration":52219,"SoundDuration":52219,"Delta":72919476},{"NoteNumber":65,"Velocity":29,"Duration":156760,"SoundDuration":156760,"Delta":72919476},{"NoteNumber":81,"Velocity":30,"Duration":52288,"SoundDuration":52288,"Delta":72971696},{"NoteNumber":79,"Velocity":30,"Duration":52253,"SoundDuration":52253,"Delta":73023984},{"NoteNumber":73,"Velocity":28,"Duration":629149,"SoundDuration":629149,"Delta":73076237},{"NoteNumber":77,"Velocity":28,"Duration":52945,"SoundDuration":52945,"Delta":73076237},{"NoteNumber":57,"Velocity":34,"Duration":314903,"SoundDuration":314903,"Delta":73076237},{"NoteNumber":53,"Velocity":34,"Duration":629149,"SoundDuration":629149,"Delta":73076237},{"NoteNumber":79,"Velocity":24,"Duration":52529,"SoundDuration":52529,"Delta":73129183},{"NoteNumber":77,"Velocity":28,"Duration":52015,"SoundDuration":52015,"Delta":73181712},{"NoteNumber":79,"Velocity":23,"Duration":52425,"SoundDuration":52425,"Delta":73233728},{"NoteNumber":65,"Velocity":25,"Duration":157413,"SoundDuration":157413,"Delta":73233728},{"NoteNumber":77,"Velocity":27,"Duration":52666,"SoundDuration":52666,"Delta":73286153},{"NoteNumber":79,"Velocity":26,"Duration":52321,"SoundDuration":52321,"Delta":73338819},{"NoteNumber":77,"Velocity":28,"Duration":52117,"SoundDuration":52117,"Delta":73391141},{"NoteNumber":56,"Velocity":32,"Duration":314245,"SoundDuration":314245,"Delta":73391141},{"NoteNumber":79,"Velocity":23,"Duration":52459,"SoundDuration":52459,"Delta":73443258},{"NoteNumber":77,"Velocity":28,"Duration":52356,"SoundDuration":52356,"Delta":73495718},{"NoteNumber":79,"Velocity":24,"Duration":52083,"SoundDuration":52083,"Delta":73548074},{"NoteNumber":65,"Velocity":25,"Duration":157313,"SoundDuration":157313,"Delta":73548074},{"NoteNumber":77,"Velocity":26,"Duration":52735,"SoundDuration":52735,"Delta":73600158},{"NoteNumber":89,"Velocity":42,"Duration":52493,"SoundDuration":52493,"Delta":73652893},{"NoteNumber":85,"Velocity":55,"Duration":159574,"SoundDuration":159574,"Delta":73705387},{"NoteNumber":53,"Velocity":38,"Duration":317055,"SoundDuration":317055,"Delta":73705387},{"NoteNumber":84,"Velocity":50,"Duration":157480,"SoundDuration":157480,"Delta":73864961},{"NoteNumber":65,"Velocity":30,"Duration":314960,"SoundDuration":314960,"Delta":73864961},{"NoteNumber":56,"Velocity":38,"Duration":314960,"SoundDuration":314960,"Delta":74022442},{"NoteNumber":84,"Velocity":50,"Duration":118110,"SoundDuration":118110,"Delta":74179922},{"NoteNumber":65,"Velocity":30,"Duration":317480,"SoundDuration":317480,"Delta":74179922},{"NoteNumber":84,"Velocity":48,"Duration":39370,"SoundDuration":39370,"Delta":74298033},{"NoteNumber":83,"Velocity":54,"Duration":159999,"SoundDuration":159999,"Delta":74337403},{"NoteNumber":61,"Velocity":38,"Duration":317480,"SoundDuration":317480,"Delta":74337403},{"NoteNumber":80,"Velocity":47,"Duration":157480,"SoundDuration":157480,"Delta":74497403},{"NoteNumber":65,"Velocity":29,"Duration":314960,"SoundDuration":314960,"Delta":74497403},{"NoteNumber":59,"Velocity":38,"Duration":314960,"SoundDuration":314960,"Delta":74654883},{"NoteNumber":80,"Velocity":50,"Duration":118110,"SoundDuration":118110,"Delta":74812364},{"NoteNumber":65,"Velocity":30,"Duration":316631,"SoundDuration":316631,"Delta":74812364},{"NoteNumber":89,"Velocity":50,"Duration":39370,"SoundDuration":39370,"Delta":74930474},{"NoteNumber":81,"Velocity":56,"Duration":159150,"SoundDuration":159150,"Delta":74969844},{"NoteNumber":53,"Velocity":38,"Duration":317045,"SoundDuration":317045,"Delta":74969844},{"NoteNumber":84,"Velocity":50,"Duration":157894,"SoundDuration":157894,"Delta":75128995},{"NoteNumber":65,"Velocity":30,"Duration":315788,"SoundDuration":315788,"Delta":75128995},{"NoteNumber":63,"Velocity":36,"Duration":315789,"SoundDuration":315789,"Delta":75286890},{"NoteNumber":84,"Velocity":50,"Duration":118420,"SoundDuration":118420,"Delta":75444784},{"NoteNumber":65,"Velocity":30,"Duration":314144,"SoundDuration":314144,"Delta":75444784},{"NoteNumber":84,"Velocity":50,"Duration":39473,"SoundDuration":39473,"Delta":75563205},{"NoteNumber":89,"Velocity":56,"Duration":156250,"SoundDuration":156250,"Delta":75602679},{"NoteNumber":61,"Velocity":36,"Duration":313730,"SoundDuration":313730,"Delta":75602679},{"NoteNumber":80,"Velocity":50,"Duration":157480,"SoundDuration":157480,"Delta":75758929},{"NoteNumber":65,"Velocity":31,"Duration":314960,"SoundDuration":314960,"Delta":75758929},{"NoteNumber":59,"Velocity":36,"Duration":314960,"SoundDuration":314960,"Delta":75916409},{"NoteNumber":85,"Velocity":47,"Duration":118110,"SoundDuration":118110,"Delta":76073890},{"NoteNumber":65,"Velocity":31,"Duration":157480,"SoundDuration":157480,"Delta":76073890},{"NoteNumber":89,"Velocity":50,"Duration":39370,"SoundDuration":39370,"Delta":76192000},{"NoteNumber":81,"Velocity":53,"Duration":159574,"SoundDuration":159574,"Delta":76231370},{"NoteNumber":53,"Velocity":36,"Duration":316642,"SoundDuration":316642,"Delta":76231370},{"NoteNumber":82,"Velocity":49,"Duration":157067,"SoundDuration":157067,"Delta":76390945},{"NoteNumber":65,"Velocity":31,"Duration":314136,"SoundDuration":314136,"Delta":76390945},{"NoteNumber":58,"Velocity":36,"Duration":314136,"SoundDuration":314136,"Delta":76548013},{"NoteNumber":82,"Velocity":50,"Duration":117801,"SoundDuration":117801,"Delta":76705081},{"NoteNumber":65,"Velocity":30,"Duration":316218,"SoundDuration":316218,"Delta":76705081},{"NoteNumber":89,"Velocity":50,"Duration":39266,"SoundDuration":39266,"Delta":76822882},{"NoteNumber":81,"Velocity":54,"Duration":159150,"SoundDuration":159150,"Delta":76862149},{"NoteNumber":61,"Velocity":36,"Duration":316631,"SoundDuration":316631,"Delta":76862149},{"NoteNumber":82,"Velocity":50,"Duration":157480,"SoundDuration":157480,"Delta":77021300},{"NoteNumber":65,"Velocity":30,"Duration":314960,"SoundDuration":314960,"Delta":77021300},{"NoteNumber":60,"Velocity":37,"Duration":314960,"SoundDuration":314960,"Delta":77178780},{"NoteNumber":84,"Velocity":50,"Duration":118110,"SoundDuration":118110,"Delta":77336261},{"NoteNumber":65,"Velocity":31,"Duration":157480,"SoundDuration":157480,"Delta":77336261},{"NoteNumber":89,"Velocity":50,"Duration":39370,"SoundDuration":39370,"Delta":77454371},{"NoteNumber":81,"Velocity":54,"Duration":159574,"SoundDuration":159574,"Delta":77493741},{"NoteNumber":53,"Velocity":36,"Duration":317055,"SoundDuration":317055,"Delta":77493741},{"NoteNumber":82,"Velocity":50,"Duration":157480,"SoundDuration":157480,"Delta":77653316},{"NoteNumber":65,"Velocity":29,"Duration":314960,"SoundDuration":314960,"Delta":77653316},{"NoteNumber":61,"Velocity":37,"Duration":314960,"SoundDuration":314960,"Delta":77810796},{"NoteNumber":82,"Velocity":50,"Duration":118110,"SoundDuration":118110,"Delta":77968277},{"NoteNumber":65,"Velocity":31,"Duration":317055,"SoundDuration":317055,"Delta":77968277},{"NoteNumber":89,"Velocity":50,"Duration":39370,"SoundDuration":39370,"Delta":78086387},{"NoteNumber":81,"Velocity":54,"Duration":159574,"SoundDuration":159574,"Delta":78125757},{"NoteNumber":60,"Velocity":38,"Duration":317055,"SoundDuration":317055,"Delta":78125757},{"NoteNumber":84,"Velocity":50,"Duration":157480,"SoundDuration":157480,"Delta":78285332},{"NoteNumber":65,"Velocity":31,"Duration":314960,"SoundDuration":314960,"Delta":78285332},{"NoteNumber":57,"Velocity":37,"Duration":326872,"SoundDuration":326872,"Delta":78442812},{"NoteNumber":84,"Velocity":50,"Duration":169391,"SoundDuration":169391,"Delta":78600293},{"NoteNumber":65,"Velocity":31,"Duration":169391,"SoundDuration":169391,"Delta":78600293},{"NoteNumber":89,"Velocity":42,"Duration":52493,"SoundDuration":52493,"Delta":78717191},{"NoteNumber":85,"Velocity":55,"Duration":159574,"SoundDuration":159574,"Delta":78769684},{"NoteNumber":53,"Velocity":38,"Duration":317055,"SoundDuration":317055,"Delta":78769684},{"NoteNumber":84,"Velocity":50,"Duration":157480,"SoundDuration":157480,"Delta":78929259},{"NoteNumber":65,"Velocity":46,"Duration":314960,"SoundDuration":314960,"Delta":78929259},{"NoteNumber":56,"Velocity":38,"Duration":314960,"SoundDuration":314960,"Delta":79086739},{"NoteNumber":84,"Velocity":50,"Duration":118110,"SoundDuration":118110,"Delta":79244220},{"NoteNumber":65,"Velocity":46,"Duration":317055,"SoundDuration":317055,"Delta":79244220},{"NoteNumber":84,"Velocity":48,"Duration":39370,"SoundDuration":39370,"Delta":79362330},{"NoteNumber":83,"Velocity":54,"Duration":159574,"SoundDuration":159574,"Delta":79401700},{"NoteNumber":61,"Velocity":38,"Duration":316642,"SoundDuration":316642,"Delta":79401700},{"NoteNumber":80,"Velocity":47,"Duration":157067,"SoundDuration":157067,"Delta":79561275},{"NoteNumber":65,"Velocity":45,"Duration":314136,"SoundDuration":314136,"Delta":79561275},{"NoteNumber":59,"Velocity":38,"Duration":314136,"SoundDuration":314136,"Delta":79718343},{"NoteNumber":80,"Velocity":50,"Duration":117801,"SoundDuration":117801,"Delta":79875411},{"NoteNumber":65,"Velocity":44,"Duration":316218,"SoundDuration":316218,"Delta":79875411},{"NoteNumber":89,"Velocity":50,"Duration":39266,"SoundDuration":39266,"Delta":79993212},{"NoteNumber":81,"Velocity":56,"Duration":159150,"SoundDuration":159150,"Delta":80032479},{"NoteNumber":53,"Velocity":38,"Duration":317045,"SoundDuration":317045,"Delta":80032479},{"NoteNumber":84,"Velocity":50,"Duration":157894,"SoundDuration":157894,"Delta":80191630},{"NoteNumber":65,"Velocity":36,"Duration":315788,"SoundDuration":315788,"Delta":80191630},{"NoteNumber":63,"Velocity":36,"Duration":315789,"SoundDuration":315789,"Delta":80349524},{"NoteNumber":84,"Velocity":50,"Duration":118420,"SoundDuration":118420,"Delta":80507419},{"NoteNumber":65,"Velocity":41,"Duration":317045,"SoundDuration":317045,"Delta":80507419},{"NoteNumber":84,"Velocity":50,"Duration":39473,"SoundDuration":39473,"Delta":80625840},{"NoteNumber":89,"Velocity":56,"Duration":159150,"SoundDuration":159150,"Delta":80665313},{"NoteNumber":61,"Velocity":36,"Duration":316631,"SoundDuration":316631,"Delta":80665313},{"NoteNumber":80,"Velocity":50,"Duration":157480,"SoundDuration":157480,"Delta":80824464},{"NoteNumber":65,"Velocity":31,"Duration":314960,"SoundDuration":314960,"Delta":80824464},{"NoteNumber":59,"Velocity":36,"Duration":314960,"SoundDuration":314960,"Delta":80981945},{"NoteNumber":85,"Velocity":47,"Duration":118110,"SoundDuration":118110,"Delta":81139425},{"NoteNumber":65,"Velocity":31,"Duration":157480,"SoundDuration":157480,"Delta":81139425},{"NoteNumber":89,"Velocity":50,"Duration":39370,"SoundDuration":39370,"Delta":81257536},{"NoteNumber":81,"Velocity":53,"Duration":159574,"SoundDuration":159574,"Delta":81296906},{"NoteNumber":53,"Velocity":36,"Duration":316642,"SoundDuration":316642,"Delta":81296906},{"NoteNumber":82,"Velocity":49,"Duration":157067,"SoundDuration":157067,"Delta":81456480},{"NoteNumber":65,"Velocity":31,"Duration":314136,"SoundDuration":314136,"Delta":81456480},{"NoteNumber":58,"Velocity":36,"Duration":314136,"SoundDuration":314136,"Delta":81613548},{"NoteNumber":82,"Velocity":50,"Duration":117801,"SoundDuration":117801,"Delta":81770616},{"NoteNumber":65,"Velocity":30,"Duration":316218,"SoundDuration":316218,"Delta":81770616},{"NoteNumber":89,"Velocity":50,"Duration":39266,"SoundDuration":39266,"Delta":81888417},{"NoteNumber":81,"Velocity":54,"Duration":159150,"SoundDuration":159150,"Delta":81927684},{"NoteNumber":61,"Velocity":36,"Duration":316631,"SoundDuration":316631,"Delta":81927684},{"NoteNumber":82,"Velocity":50,"Duration":157480,"SoundDuration":157480,"Delta":82086835},{"NoteNumber":65,"Velocity":30,"Duration":314960,"SoundDuration":314960,"Delta":82086835},{"NoteNumber":60,"Velocity":37,"Duration":314960,"SoundDuration":314960,"Delta":82244316},{"NoteNumber":84,"Velocity":50,"Duration":118110,"SoundDuration":118110,"Delta":82401796},{"NoteNumber":65,"Velocity":31,"Duration":157480,"SoundDuration":157480,"Delta":82401796},{"NoteNumber":89,"Velocity":50,"Duration":39370,"SoundDuration":39370,"Delta":82519907},{"NoteNumber":81,"Velocity":54,"Duration":159574,"SoundDuration":159574,"Delta":82559277},{"NoteNumber":53,"Velocity":36,"Duration":317055,"SoundDuration":317055,"Delta":82559277},{"NoteNumber":82,"Velocity":50,"Duration":157480,"SoundDuration":157480,"Delta":82718851},{"NoteNumber":65,"Velocity":29,"Duration":314960,"SoundDuration":314960,"Delta":82718851},{"NoteNumber":61,"Velocity":37,"Duration":314960,"SoundDuration":314960,"Delta":82876332},{"NoteNumber":82,"Velocity":50,"Duration":118110,"SoundDuration":118110,"Delta":83033812},{"NoteNumber":65,"Velocity":31,"Duration":317055,"SoundDuration":317055,"Delta":83033812},{"NoteNumber":89,"Velocity":50,"Duration":39370,"SoundDuration":39370,"Delta":83151923},{"NoteNumber":81,"Velocity":54,"Duration":159574,"SoundDuration":159574,"Delta":83191293},{"NoteNumber":60,"Velocity":38,"Duration":317055,"SoundDuration":317055,"Delta":83191293},{"NoteNumber":84,"Velocity":50,"Duration":157480,"SoundDuration":157480,"Delta":83350867},{"NoteNumber":65,"Velocity":31,"Duration":314960,"SoundDuration":314960,"Delta":83350867},{"NoteNumber":57,"Velocity":37,"Duration":317674,"SoundDuration":317674,"Delta":83508348},{"NoteNumber":84,"Velocity":50,"Duration":121233,"SoundDuration":121233,"Delta":83665828},{"NoteNumber":65,"Velocity":31,"Duration":160194,"SoundDuration":160194,"Delta":83665828},{"NoteNumber":86,"Velocity":45,"Duration":38961,"SoundDuration":38961,"Delta":83787062},{"NoteNumber":84,"Velocity":45,"Duration":75052,"SoundDuration":75052,"Delta":83826023},{"NoteNumber":81,"Velocity":38,"Duration":75052,"SoundDuration":75052,"Delta":83826023},{"NoteNumber":77,"Velocity":38,"Duration":75052,"SoundDuration":75052,"Delta":83826023},{"NoteNumber":65,"Velocity":28,"Duration":77327,"SoundDuration":77327,"Delta":83976128},{"NoteNumber":69,"Velocity":28,"Duration":77327,"SoundDuration":77327,"Delta":83976128},{"NoteNumber":72,"Velocity":34,"Duration":77327,"SoundDuration":77327,"Delta":83976128},{"NoteNumber":84,"Velocity":33,"Duration":38663,"SoundDuration":38663,"Delta":84092119},{"NoteNumber":83,"Velocity":40,"Duration":75052,"SoundDuration":75052,"Delta":84130783},{"NoteNumber":80,"Velocity":34,"Duration":75052,"SoundDuration":75052,"Delta":84130783},{"NoteNumber":77,"Velocity":34,"Duration":75052,"SoundDuration":75052,"Delta":84130783},{"NoteNumber":73,"Velocity":31,"Duration":76483,"SoundDuration":76483,"Delta":84280888},{"NoteNumber":68,"Velocity":26,"Duration":76483,"SoundDuration":76483,"Delta":84280888},{"NoteNumber":65,"Velocity":26,"Duration":76483,"SoundDuration":76483,"Delta":84280888},{"NoteNumber":86,"Velocity":40,"Duration":38241,"SoundDuration":38241,"Delta":84395613},{"NoteNumber":84,"Velocity":45,"Duration":75052,"SoundDuration":75052,"Delta":84433855},{"NoteNumber":81,"Velocity":38,"Duration":75052,"SoundDuration":75052,"Delta":84433855},{"NoteNumber":77,"Velocity":38,"Duration":75052,"SoundDuration":75052,"Delta":84433855},{"NoteNumber":65,"Velocity":28,"Duration":75864,"SoundDuration":75864,"Delta":84583960},{"NoteNumber":69,"Velocity":28,"Duration":75864,"SoundDuration":75864,"Delta":84583960},{"NoteNumber":72,"Velocity":33,"Duration":75864,"SoundDuration":75864,"Delta":84583960},{"NoteNumber":80,"Velocity":45,"Duration":76064,"SoundDuration":76064,"Delta":84735690},{"NoteNumber":77,"Velocity":38,"Duration":76064,"SoundDuration":76064,"Delta":84735690},{"NoteNumber":73,"Velocity":38,"Duration":76064,"SoundDuration":76064,"Delta":84735690},{"NoteNumber":71,"Velocity":36,"Duration":76064,"SoundDuration":76064,"Delta":84735690},{"NoteNumber":68,"Velocity":30,"Duration":76064,"SoundDuration":76064,"Delta":84735690},{"NoteNumber":86,"Velocity":31,"Duration":38032,"SoundDuration":38032,"Delta":84849787},{"NoteNumber":84,"Velocity":37,"Duration":78628,"SoundDuration":78628,"Delta":84887820},{"NoteNumber":81,"Velocity":31,"Duration":78628,"SoundDuration":78628,"Delta":84887820},{"NoteNumber":77,"Velocity":31,"Duration":78628,"SoundDuration":78628,"Delta":84887820},{"NoteNumber":86,"Velocity":45,"Duration":39314,"SoundDuration":39314,"Delta":85005763},{"NoteNumber":84,"Velocity":45,"Duration":75052,"SoundDuration":75052,"Delta":85045077},{"NoteNumber":81,"Velocity":38,"Duration":75052,"SoundDuration":75052,"Delta":85045077},{"NoteNumber":77,"Velocity":38,"Duration":75052,"SoundDuration":75052,"Delta":85045077},{"NoteNumber":65,"Velocity":28,"Duration":77327,"SoundDuration":77327,"Delta":85195182},{"NoteNumber":69,"Velocity":28,"Duration":77327,"SoundDuration":77327,"Delta":85195182},{"NoteNumber":72,"Velocity":34,"Duration":77327,"SoundDuration":77327,"Delta":85195182},{"NoteNumber":84,"Velocity":33,"Duration":38663,"SoundDuration":38663,"Delta":85311173},{"NoteNumber":83,"Velocity":40,"Duration":75052,"SoundDuration":75052,"Delta":85349837},{"NoteNumber":80,"Velocity":34,"Duration":75052,"SoundDuration":75052,"Delta":85349837},{"NoteNumber":77,"Velocity":34,"Duration":75052,"SoundDuration":75052,"Delta":85349837},{"NoteNumber":73,"Velocity":31,"Duration":76483,"SoundDuration":76483,"Delta":85499942},{"NoteNumber":68,"Velocity":26,"Duration":76483,"SoundDuration":76483,"Delta":85499942},{"NoteNumber":65,"Velocity":26,"Duration":76483,"SoundDuration":76483,"Delta":85499942},{"NoteNumber":86,"Velocity":40,"Duration":38241,"SoundDuration":38241,"Delta":85614668},{"NoteNumber":84,"Velocity":45,"Duration":75052,"SoundDuration":75052,"Delta":85652910},{"NoteNumber":81,"Velocity":38,"Duration":75052,"SoundDuration":75052,"Delta":85652910},{"NoteNumber":77,"Velocity":38,"Duration":75052,"SoundDuration":75052,"Delta":85652910},{"NoteNumber":65,"Velocity":28,"Duration":75864,"SoundDuration":75864,"Delta":85803015},{"NoteNumber":69,"Velocity":28,"Duration":75864,"SoundDuration":75864,"Delta":85803015},{"NoteNumber":72,"Velocity":33,"Duration":75864,"SoundDuration":75864,"Delta":85803015},{"NoteNumber":80,"Velocity":45,"Duration":75052,"SoundDuration":75052,"Delta":85954744},{"NoteNumber":77,"Velocity":38,"Duration":75052,"SoundDuration":75052,"Delta":85954744},{"NoteNumber":73,"Velocity":38,"Duration":75052,"SoundDuration":75052,"Delta":85954744},{"NoteNumber":68,"Velocity":30,"Duration":75949,"SoundDuration":75949,"Delta":86104849},{"NoteNumber":71,"Velocity":36,"Duration":75949,"SoundDuration":75949,"Delta":86104849},{"NoteNumber":59,"Velocity":34,"Duration":75000,"SoundDuration":75000,"Delta":86256748},{"NoteNumber":66,"Velocity":32,"Duration":37500,"SoundDuration":37500,"Delta":86369248},{"NoteNumber":67,"Velocity":32,"Duration":76335,"SoundDuration":76335,"Delta":86406748},{"NoteNumber":64,"Velocity":27,"Duration":76335,"SoundDuration":76335,"Delta":86406748},{"NoteNumber":60,"Velocity":33,"Duration":76335,"SoundDuration":76335,"Delta":86406748},{"NoteNumber":62,"Velocity":34,"Duration":74813,"SoundDuration":74813,"Delta":86559420},{"NoteNumber":69,"Velocity":32,"Duration":37406,"SoundDuration":37406,"Delta":86671639},{"NoteNumber":70,"Velocity":33,"Duration":75949,"SoundDuration":75949,"Delta":86709046},{"NoteNumber":67,"Velocity":28,"Duration":75949,"SoundDuration":75949,"Delta":86709046},{"NoteNumber":63,"Velocity":35,"Duration":75949,"SoundDuration":75949,"Delta":86709046},{"NoteNumber":64,"Velocity":36,"Duration":74626,"SoundDuration":74626,"Delta":86860944},{"NoteNumber":71,"Velocity":32,"Duration":37313,"SoundDuration":37313,"Delta":86972884},{"NoteNumber":68,"Velocity":29,"Duration":76142,"SoundDuration":76142,"Delta":87010198},{"NoteNumber":72,"Velocity":35,"Duration":76142,"SoundDuration":76142,"Delta":87010198},{"NoteNumber":65,"Velocity":38,"Duration":76142,"SoundDuration":76142,"Delta":87010198},{"NoteNumber":67,"Velocity":39,"Duration":74441,"SoundDuration":74441,"Delta":87162482},{"NoteNumber":74,"Velocity":32,"Duration":37220,"SoundDuration":37220,"Delta":87274145},{"NoteNumber":75,"Velocity":37,"Duration":75757,"SoundDuration":75757,"Delta":87311366},{"NoteNumber":72,"Velocity":31,"Duration":75757,"SoundDuration":75757,"Delta":87311366},{"NoteNumber":68,"Velocity":40,"Duration":75757,"SoundDuration":75757,"Delta":87311366},{"NoteNumber":70,"Velocity":41,"Duration":73891,"SoundDuration":73891,"Delta":87462881},{"NoteNumber":77,"Velocity":32,"Duration":36945,"SoundDuration":36945,"Delta":87573718},{"NoteNumber":78,"Velocity":39,"Duration":75377,"SoundDuration":75377,"Delta":87610664},{"NoteNumber":75,"Velocity":33,"Duration":75377,"SoundDuration":75377,"Delta":87610664},{"NoteNumber":71,"Velocity":43,"Duration":75377,"SoundDuration":75377,"Delta":87610664},{"NoteNumber":72,"Velocity":44,"Duration":73710,"SoundDuration":73710,"Delta":87761418},{"NoteNumber":81,"Velocity":32,"Duration":36855,"SoundDuration":36855,"Delta":87871983},{"NoteNumber":82,"Velocity":40,"Duration":74813,"SoundDuration":74813,"Delta":87908838},{"NoteNumber":78,"Velocity":34,"Duration":74813,"SoundDuration":74813,"Delta":87908838},{"NoteNumber":73,"Velocity":46,"Duration":74813,"SoundDuration":74813,"Delta":87908838},{"NoteNumber":74,"Velocity":48,"Duration":73529,"SoundDuration":73529,"Delta":88058464},{"NoteNumber":86,"Velocity":32,"Duration":36764,"SoundDuration":36764,"Delta":88168758},{"NoteNumber":87,"Velocity":39,"Duration":74626,"SoundDuration":74626,"Delta":88205523},{"NoteNumber":82,"Velocity":33,"Duration":74626,"SoundDuration":74626,"Delta":88205523},{"NoteNumber":79,"Velocity":33,"Duration":74626,"SoundDuration":74626,"Delta":88205523},{"NoteNumber":75,"Velocity":50,"Duration":74626,"SoundDuration":74626,"Delta":88205523},{"NoteNumber":76,"Velocity":50,"Duration":73349,"SoundDuration":73349,"Delta":88354777},{"NoteNumber":93,"Velocity":32,"Duration":36674,"SoundDuration":36674,"Delta":88464801},{"NoteNumber":91,"Velocity":39,"Duration":76726,"SoundDuration":76726,"Delta":88501476},{"NoteNumber":88,"Velocity":33,"Duration":76726,"SoundDuration":76726,"Delta":88501476},{"NoteNumber":84,"Velocity":33,"Duration":76726,"SoundDuration":76726,"Delta":88501476},{"NoteNumber":72,"Velocity":45,"Duration":76726,"SoundDuration":76726,"Delta":88501476},{"NoteNumber":86,"Velocity":45,"Duration":38961,"SoundDuration":38961,"Delta":88616565},{"NoteNumber":84,"Velocity":45,"Duration":75052,"SoundDuration":75052,"Delta":88655526},{"NoteNumber":81,"Velocity":38,"Duration":75052,"SoundDuration":75052,"Delta":88655526},{"NoteNumber":77,"Velocity":38,"Duration":75052,"SoundDuration":75052,"Delta":88655526},{"NoteNumber":65,"Velocity":28,"Duration":76335,"SoundDuration":76335,"Delta":88805631},{"NoteNumber":69,"Velocity":28,"Duration":76335,"SoundDuration":76335,"Delta":88805631},{"NoteNumber":72,"Velocity":34,"Duration":76335,"SoundDuration":76335,"Delta":88805631},{"NoteNumber":84,"Velocity":33,"Duration":38167,"SoundDuration":38167,"Delta":88920135},{"NoteNumber":83,"Velocity":40,"Duration":75052,"SoundDuration":75052,"Delta":88958303},{"NoteNumber":80,"Velocity":34,"Duration":75052,"SoundDuration":75052,"Delta":88958303},{"NoteNumber":77,"Velocity":34,"Duration":75052,"SoundDuration":75052,"Delta":88958303},{"NoteNumber":73,"Velocity":31,"Duration":76483,"SoundDuration":76483,"Delta":89108408},{"NoteNumber":68,"Velocity":26,"Duration":76483,"SoundDuration":76483,"Delta":89108408},{"NoteNumber":65,"Velocity":26,"Duration":76483,"SoundDuration":76483,"Delta":89108408},{"NoteNumber":86,"Velocity":40,"Duration":38241,"SoundDuration":38241,"Delta":89223134},{"NoteNumber":84,"Velocity":45,"Duration":75052,"SoundDuration":75052,"Delta":89261376},{"NoteNumber":81,"Velocity":38,"Duration":75052,"SoundDuration":75052,"Delta":89261376},{"NoteNumber":77,"Velocity":38,"Duration":75052,"SoundDuration":75052,"Delta":89261376},{"NoteNumber":65,"Velocity":28,"Duration":75864,"SoundDuration":75864,"Delta":89411481},{"NoteNumber":69,"Velocity":28,"Duration":75864,"SoundDuration":75864,"Delta":89411481},{"NoteNumber":72,"Velocity":33,"Duration":75864,"SoundDuration":75864,"Delta":89411481},{"NoteNumber":84,"Velocity":33,"Duration":37932,"SoundDuration":37932,"Delta":89525278},{"NoteNumber":80,"Velocity":38,"Duration":76064,"SoundDuration":76064,"Delta":89563210},{"NoteNumber":77,"Velocity":38,"Duration":76064,"SoundDuration":76064,"Delta":89563210},{"NoteNumber":83,"Velocity":45,"Duration":76064,"SoundDuration":76064,"Delta":89563210},{"NoteNumber":73,"Velocity":36,"Duration":76064,"SoundDuration":76064,"Delta":89563210},{"NoteNumber":68,"Velocity":30,"Duration":76064,"SoundDuration":76064,"Delta":89563210},{"NoteNumber":86,"Velocity":31,"Duration":38032,"SoundDuration":38032,"Delta":89677308},{"NoteNumber":84,"Velocity":37,"Duration":78628,"SoundDuration":78628,"Delta":89715340},{"NoteNumber":81,"Velocity":31,"Duration":78628,"SoundDuration":78628,"Delta":89715340},{"NoteNumber":77,"Velocity":31,"Duration":78628,"SoundDuration":78628,"Delta":89715340},{"NoteNumber":86,"Velocity":45,"Duration":39314,"SoundDuration":39314,"Delta":89833284},{"NoteNumber":84,"Velocity":45,"Duration":75052,"SoundDuration":75052,"Delta":89872598},{"NoteNumber":81,"Velocity":38,"Duration":75052,"SoundDuration":75052,"Delta":89872598},{"NoteNumber":77,"Velocity":38,"Duration":75052,"SoundDuration":75052,"Delta":89872598},{"NoteNumber":65,"Velocity":28,"Duration":76335,"SoundDuration":76335,"Delta":90022703},{"NoteNumber":69,"Velocity":28,"Duration":76335,"SoundDuration":76335,"Delta":90022703},{"NoteNumber":72,"Velocity":34,"Duration":76335,"SoundDuration":76335,"Delta":90022703},{"NoteNumber":84,"Velocity":33,"Duration":38167,"SoundDuration":38167,"Delta":90137207},{"NoteNumber":83,"Velocity":40,"Duration":75052,"SoundDuration":75052,"Delta":90175375},{"NoteNumber":80,"Velocity":34,"Duration":75052,"SoundDuration":75052,"Delta":90175375},{"NoteNumber":77,"Velocity":34,"Duration":75052,"SoundDuration":75052,"Delta":90175375},{"NoteNumber":73,"Velocity":31,"Duration":76483,"SoundDuration":76483,"Delta":90325480},{"NoteNumber":68,"Velocity":26,"Duration":76483,"SoundDuration":76483,"Delta":90325480},{"NoteNumber":65,"Velocity":26,"Duration":76483,"SoundDuration":76483,"Delta":90325480},{"NoteNumber":86,"Velocity":40,"Duration":38241,"SoundDuration":38241,"Delta":90440206},{"NoteNumber":84,"Velocity":45,"Duration":75052,"SoundDuration":75052,"Delta":90478447},{"NoteNumber":81,"Velocity":38,"Duration":75052,"SoundDuration":75052,"Delta":90478447},{"NoteNumber":77,"Velocity":38,"Duration":75052,"SoundDuration":75052,"Delta":90478447},{"NoteNumber":65,"Velocity":28,"Duration":75864,"SoundDuration":75864,"Delta":90628552},{"NoteNumber":69,"Velocity":28,"Duration":75864,"SoundDuration":75864,"Delta":90628552},{"NoteNumber":72,"Velocity":33,"Duration":75864,"SoundDuration":75864,"Delta":90628552},{"NoteNumber":80,"Velocity":45,"Duration":75052,"SoundDuration":75052,"Delta":90780282},{"NoteNumber":77,"Velocity":38,"Duration":75052,"SoundDuration":75052,"Delta":90780282},{"NoteNumber":73,"Velocity":38,"Duration":75052,"SoundDuration":75052,"Delta":90780282},{"NoteNumber":68,"Velocity":30,"Duration":75949,"SoundDuration":75949,"Delta":90930387},{"NoteNumber":71,"Velocity":36,"Duration":75949,"SoundDuration":75949,"Delta":90930387},{"NoteNumber":61,"Velocity":34,"Duration":75000,"SoundDuration":75000,"Delta":91082285},{"NoteNumber":70,"Velocity":32,"Duration":37500,"SoundDuration":37500,"Delta":91194785},{"NoteNumber":71,"Velocity":32,"Duration":76335,"SoundDuration":76335,"Delta":91232285},{"NoteNumber":68,"Velocity":27,"Duration":76335,"SoundDuration":76335,"Delta":91232285},{"NoteNumber":63,"Velocity":33,"Duration":76335,"SoundDuration":76335,"Delta":91232285},{"NoteNumber":64,"Velocity":34,"Duration":74813,"SoundDuration":74813,"Delta":91384957},{"NoteNumber":72,"Velocity":32,"Duration":37406,"SoundDuration":37406,"Delta":91497177},{"NoteNumber":73,"Velocity":33,"Duration":76335,"SoundDuration":76335,"Delta":91534583},{"NoteNumber":69,"Velocity":28,"Duration":76335,"SoundDuration":76335,"Delta":91534583},{"NoteNumber":65,"Velocity":35,"Duration":76335,"SoundDuration":76335,"Delta":91534583},{"NoteNumber":66,"Velocity":36,"Duration":74626,"SoundDuration":74626,"Delta":91687255},{"NoteNumber":75,"Velocity":32,"Duration":37313,"SoundDuration":37313,"Delta":91799196},{"NoteNumber":73,"Velocity":29,"Duration":76142,"SoundDuration":76142,"Delta":91836509},{"NoteNumber":76,"Velocity":35,"Duration":76142,"SoundDuration":76142,"Delta":91836509},{"NoteNumber":68,"Velocity":38,"Duration":76142,"SoundDuration":76142,"Delta":91836509},{"NoteNumber":69,"Velocity":39,"Duration":74813,"SoundDuration":74813,"Delta":91988793},{"NoteNumber":77,"Velocity":32,"Duration":37406,"SoundDuration":37406,"Delta":92101013},{"NoteNumber":78,"Velocity":37,"Duration":75757,"SoundDuration":75757,"Delta":92138419},{"NoteNumber":74,"Velocity":31,"Duration":75757,"SoundDuration":75757,"Delta":92138419},{"NoteNumber":70,"Velocity":40,"Duration":75757,"SoundDuration":75757,"Delta":92138419},{"NoteNumber":63,"Velocity":34,"Duration":75000,"SoundDuration":75000,"Delta":92289934},{"NoteNumber":72,"Velocity":32,"Duration":37500,"SoundDuration":37500,"Delta":92402434},{"NoteNumber":73,"Velocity":32,"Duration":76335,"SoundDuration":76335,"Delta":92439934},{"NoteNumber":70,"Velocity":27,"Duration":76335,"SoundDuration":76335,"Delta":92439934},{"NoteNumber":65,"Velocity":33,"Duration":76335,"SoundDuration":76335,"Delta":92439934},{"NoteNumber":66,"Velocity":34,"Duration":74813,"SoundDuration":74813,"Delta":92592606},{"NoteNumber":74,"Velocity":32,"Duration":37406,"SoundDuration":37406,"Delta":92704826},{"NoteNumber":75,"Velocity":33,"Duration":76335,"SoundDuration":76335,"Delta":92742232},{"NoteNumber":71,"Velocity":28,"Duration":76335,"SoundDuration":76335,"Delta":92742232},{"NoteNumber":67,"Velocity":35,"Duration":76335,"SoundDuration":76335,"Delta":92742232},{"NoteNumber":68,"Velocity":36,"Duration":74626,"SoundDuration":74626,"Delta":92894904},{"NoteNumber":76,"Velocity":32,"Duration":37313,"SoundDuration":37313,"Delta":93006845},{"NoteNumber":73,"Velocity":29,"Duration":76142,"SoundDuration":76142,"Delta":93044158},{"NoteNumber":77,"Velocity":35,"Duration":76142,"SoundDuration":76142,"Delta":93044158},{"NoteNumber":70,"Velocity":38,"Duration":76142,"SoundDuration":76142,"Delta":93044158},{"NoteNumber":71,"Velocity":39,"Duration":74813,"SoundDuration":74813,"Delta":93196442},{"NoteNumber":79,"Velocity":32,"Duration":37406,"SoundDuration":37406,"Delta":93308662},{"NoteNumber":80,"Velocity":37,"Duration":77720,"SoundDuration":77720,"Delta":93346068},{"NoteNumber":76,"Velocity":31,"Duration":77720,"SoundDuration":77720,"Delta":93346068},{"NoteNumber":72,"Velocity":40,"Duration":77720,"SoundDuration":77720,"Delta":93346068},{"NoteNumber":93,"Velocity":55,"Duration":38860,"SoundDuration":38860,"Delta":93462649},{"NoteNumber":94,"Velocity":63,"Duration":73891,"SoundDuration":73891,"Delta":93501509},{"NoteNumber":90,"Velocity":53,"Duration":73891,"SoundDuration":73891,"Delta":93501509},{"NoteNumber":60,"Velocity":55,"Duration":73891,"SoundDuration":73891,"Delta":93501509},{"NoteNumber":64,"Velocity":47,"Duration":75000,"SoundDuration":75000,"Delta":93649292},{"NoteNumber":92,"Velocity":51,"Duration":37500,"SoundDuration":37500,"Delta":93761792},{"NoteNumber":93,"Velocity":56,"Duration":73891,"SoundDuration":73891,"Delta":93799292},{"NoteNumber":89,"Velocity":47,"Duration":73891,"SoundDuration":73891,"Delta":93799292},{"NoteNumber":61,"Velocity":55,"Duration":73891,"SoundDuration":73891,"Delta":93799292},{"NoteNumber":65,"Velocity":47,"Duration":75000,"SoundDuration":75000,"Delta":93947076},{"NoteNumber":82,"Velocity":50,"Duration":37500,"SoundDuration":37500,"Delta":94059576},{"NoteNumber":83,"Velocity":55,"Duration":74073,"SoundDuration":74073,"Delta":94097076},{"NoteNumber":81,"Velocity":46,"Duration":74073,"SoundDuration":74073,"Delta":94097076},{"NoteNumber":63,"Velocity":55,"Duration":74073,"SoundDuration":74073,"Delta":94097076},{"NoteNumber":66,"Velocity":50,"Duration":75000,"SoundDuration":75000,"Delta":94245224},{"NoteNumber":82,"Velocity":47,"Duration":37500,"SoundDuration":37500,"Delta":94357724},{"NoteNumber":84,"Velocity":52,"Duration":74626,"SoundDuration":74626,"Delta":94395224},{"NoteNumber":79,"Velocity":44,"Duration":74626,"SoundDuration":74626,"Delta":94395224},{"NoteNumber":64,"Velocity":54,"Duration":74626,"SoundDuration":74626,"Delta":94395224},{"NoteNumber":67,"Velocity":52,"Duration":75757,"SoundDuration":75757,"Delta":94544477},{"NoteNumber":88,"Velocity":53,"Duration":37878,"SoundDuration":37878,"Delta":94658114},{"NoteNumber":89,"Velocity":57,"Duration":74626,"SoundDuration":74626,"Delta":94695992},{"NoteNumber":85,"Velocity":48,"Duration":74626,"SoundDuration":74626,"Delta":94695992},{"NoteNumber":65,"Velocity":56,"Duration":74626,"SoundDuration":74626,"Delta":94695992},{"NoteNumber":69,"Velocity":51,"Duration":75757,"SoundDuration":75757,"Delta":94845246},{"NoteNumber":85,"Velocity":51,"Duration":37878,"SoundDuration":37878,"Delta":94958882},{"NoteNumber":82,"Velocity":45,"Duration":75187,"SoundDuration":75187,"Delta":94996761},{"NoteNumber":86,"Velocity":54,"Duration":75187,"SoundDuration":75187,"Delta":94996761},{"NoteNumber":66,"Velocity":57,"Duration":75187,"SoundDuration":75187,"Delta":94996761},{"NoteNumber":70,"Velocity":53,"Duration":76142,"SoundDuration":76142,"Delta":95147137},{"NoteNumber":76,"Velocity":55,"Duration":38071,"SoundDuration":38071,"Delta":95261350},{"NoteNumber":73,"Velocity":51,"Duration":75187,"SoundDuration":75187,"Delta":95299421},{"NoteNumber":77,"Velocity":60,"Duration":75187,"SoundDuration":75187,"Delta":95299421},{"NoteNumber":68,"Velocity":58,"Duration":75187,"SoundDuration":75187,"Delta":95299421},{"NoteNumber":71,"Velocity":56,"Duration":76335,"SoundDuration":76335,"Delta":95449797},{"NoteNumber":78,"Velocity":53,"Duration":38167,"SoundDuration":38167,"Delta":95564301},{"NoteNumber":79,"Velocity":57,"Duration":75949,"SoundDuration":75949,"Delta":95602469},{"NoteNumber":76,"Velocity":48,"Duration":75949,"SoundDuration":75949,"Delta":95602469},{"NoteNumber":70,"Velocity":59,"Duration":151898,"SoundDuration":151898,"Delta":95602469},{"NoteNumber":72,"Velocity":55,"Duration":115384,"SoundDuration":115384,"Delta":95754368},{"NoteNumber":84,"Velocity":70,"Duration":38461,"SoundDuration":38461,"Delta":95869752},{"NoteNumber":72,"Velocity":62,"Duration":38461,"SoundDuration":38461,"Delta":95869752},{"NoteNumber":85,"Velocity":79,"Duration":1122996,"SoundDuration":1122996,"Delta":95908214},{"NoteNumber":73,"Velocity":71,"Duration":1122996,"SoundDuration":1122996,"Delta":95908214},{"NoteNumber":84,"Velocity":53,"Duration":40106,"SoundDuration":40106,"Delta":97151531},{"NoteNumber":72,"Velocity":46,"Duration":40106,"SoundDuration":40106,"Delta":97151531},{"NoteNumber":85,"Velocity":59,"Duration":215827,"SoundDuration":215827,"Delta":97191638},{"NoteNumber":73,"Velocity":52,"Duration":215827,"SoundDuration":215827,"Delta":97191638},{"NoteNumber":84,"Velocity":48,"Duration":53956,"SoundDuration":53956,"Delta":97569336},{"NoteNumber":72,"Velocity":37,"Duration":53956,"SoundDuration":53956,"Delta":97569336},{"NoteNumber":80,"Velocity":54,"Duration":222222,"SoundDuration":222222,"Delta":97623293},{"NoteNumber":68,"Velocity":46,"Duration":222222,"SoundDuration":222222,"Delta":97623293},{"NoteNumber":81,"Velocity":46,"Duration":192307,"SoundDuration":192307,"Delta":97845515},{"NoteNumber":69,"Velocity":46,"Duration":192307,"SoundDuration":192307,"Delta":97845515},{"NoteNumber":92,"Velocity":33,"Duration":57692,"SoundDuration":57692,"Delta":98037823},{"NoteNumber":93,"Velocity":40,"Duration":461538,"SoundDuration":461538,"Delta":98095515},{"NoteNumber":89,"Velocity":40,"Duration":461538,"SoundDuration":461538,"Delta":98095515},{"NoteNumber":84,"Velocity":34,"Duration":461538,"SoundDuration":461538,"Delta":98095515},{"NoteNumber":81,"Velocity":39,"Duration":461538,"SoundDuration":461538,"Delta":98095515},{"NoteNumber":77,"Velocity":33,"Duration":461538,"SoundDuration":461538,"Delta":98095515}]}