{"title":"Promenade - Der Markt von Limoges- Catacombae - Con mortuis in lingua mortua","artist":"Piano","durationMs":361733,"midiSha256":"44dff72af6e83fe414ef1d75bbf7fee47b60bb467a1aca0d669d079a17c47435","midiObject":[{"NoteNumber":67,"Velocity":90,"Duration":625000,"SoundDuration":625000,"Delta":0},{"NoteNumber":55,"Velocity":68,"Duration":625000,"SoundDuration":625000,"Delta":0},{"NoteNumber":65,"Velocity":85,"Duration":624509,"SoundDuration":624509,"Delta":598750},{"NoteNumber":53,"Velocity":64,"Duration":624509,"SoundDuration":624509,"Delta":598750},{"NoteNumber":70,"Velocity":89,"Duration":612273,"SoundDuration":612273,"Delta":1198750},{"NoteNumber":58,"Velocity":67,"Duration":612273,"SoundDuration":612273,"Delta":1198750},{"NoteNumber":72,"Velocity":87,"Duration":312733,"SoundDuration":312733,"Delta":1786985},{"NoteNumber":60,"Velocity":65,"Duration":312733,"SoundDuration":312733,"Delta":1786985},{"NoteNumber":77,"Velocity":73,"Duration":315771,"SoundDuration":315771,"Delta":2075446},{"NoteNumber":65,"Velocity":55,"Duration":315771,"SoundDuration":315771,"Delta":2075446},{"NoteNumber":74,"Velocity":86,"Duration":612158,"SoundDuration":612158,"Delta":2366708},{"NoteNumber":62,"Velocity":65,"Duration":612158,"SoundDuration":612158,"Delta":2366708},{"NoteNumber":72,"Velocity":85,"Duration":311591,"SoundDuration":311591,"Delta":2954943},{"NoteNumber":60,"Velocity":64,"Duration":311591,"SoundDuration":311591,"Delta":2954943},{"NoteNumber":77,"Velocity":74,"Duration":319117,"SoundDuration":319117,"Delta":3242025},{"NoteNumber":65,"Velocity":55,"Duration":319117,"SoundDuration":319117,"Delta":3242025},{"NoteNumber":74,"Velocity":85,"Duration":562500,"SoundDuration":562500,"Delta":3536142},{"NoteNumber":62,"Velocity":64,"Duration":625000,"SoundDuration":625000,"Delta":3536142},{"NoteNumber":70,"Velocity":86,"Duration":625000,"SoundDuration":625000,"Delta":4136142},{"NoteNumber":58,"Velocity":65,"Duration":562500,"SoundDuration":562500,"Delta":4136142},{"NoteNumber":72,"Velocity":86,"Duration":625000,"SoundDuration":625000,"Delta":4736142},{"NoteNumber":60,"Velocity":65,"Duration":625000,"SoundDuration":625000,"Delta":4736142},{"NoteNumber":67,"Velocity":82,"Duration":626315,"SoundDuration":626315,"Delta":5336142},{"NoteNumber":55,"Velocity":62,"Duration":626315,"SoundDuration":626315,"Delta":5336142},{"NoteNumber":65,"Velocity":81,"Duration":592105,"SoundDuration":592105,"Delta":5936142},{"NoteNumber":53,"Velocity":61,"Duration":592105,"SoundDuration":592105,"Delta":5936142},{"NoteNumber":58,"Velocity":69,"Duration":599999,"SoundDuration":599999,"Delta":6567721},{"NoteNumber":67,"Velocity":82,"Duration":599999,"SoundDuration":599999,"Delta":6567721},{"NoteNumber":62,"Velocity":69,"Duration":599999,"SoundDuration":599999,"Delta":6567721},{"NoteNumber":55,"Velocity":74,"Duration":599999,"SoundDuration":599999,"Delta":6567721},{"NoteNumber":43,"Velocity":62,"Duration":599999,"SoundDuration":599999,"Delta":6567721},{"NoteNumber":60,"Velocity":68,"Duration":600000,"SoundDuration":600000,"Delta":7167721},{"NoteNumber":57,"Velocity":68,"Duration":600000,"SoundDuration":600000,"Delta":7167721},{"NoteNumber":65,"Velocity":80,"Duration":600000,"SoundDuration":600000,"Delta":7167721},{"NoteNumber":53,"Velocity":69,"Duration":600000,"SoundDuration":600000,"Delta":7167721},{"NoteNumber":45,"Velocity":58,"Duration":600000,"SoundDuration":600000,"Delta":7167721},{"NoteNumber":62,"Velocity":68,"Duration":585366,"SoundDuration":585366,"Delta":7767721},{"NoteNumber":58,"Velocity":68,"Duration":585366,"SoundDuration":585366,"Delta":7767721},{"NoteNumber":70,"Velocity":80,"Duration":585366,"SoundDuration":585366,"Delta":7767721},{"NoteNumber":55,"Velocity":69,"Duration":585366,"SoundDuration":585366,"Delta":7767721},{"NoteNumber":43,"Velocity":58,"Duration":585366,"SoundDuration":585366,"Delta":7767721},{"NoteNumber":60,"Velocity":69,"Duration":597029,"SoundDuration":597029,"Delta":8353087},{"NoteNumber":72,"Velocity":82,"Duration":297029,"SoundDuration":297029,"Delta":8353087},{"NoteNumber":69,"Velocity":69,"Duration":597029,"SoundDuration":597029,"Delta":8353087},{"NoteNumber":53,"Velocity":66,"Duration":597029,"SoundDuration":597029,"Delta":8353087},{"NoteNumber":41,"Velocity":56,"Duration":597029,"SoundDuration":597029,"Delta":8353087},{"NoteNumber":77,"Velocity":78,"Duration":300000,"SoundDuration":300000,"Delta":8650117},{"NoteNumber":69,"Velocity":68,"Duration":591132,"SoundDuration":591132,"Delta":8950117},{"NoteNumber":74,"Velocity":81,"Duration":591132,"SoundDuration":591132,"Delta":8950117},{"NoteNumber":65,"Velocity":68,"Duration":591132,"SoundDuration":591132,"Delta":8950117},{"NoteNumber":50,"Velocity":60,"Duration":591132,"SoundDuration":591132,"Delta":8950117},{"NoteNumber":38,"Velocity":51,"Duration":591132,"SoundDuration":591132,"Delta":8950117},{"NoteNumber":60,"Velocity":68,"Duration":594058,"SoundDuration":594058,"Delta":9541250},{"NoteNumber":69,"Velocity":68,"Duration":594058,"SoundDuration":594058,"Delta":9541250},{"NoteNumber":72,"Velocity":81,"Duration":297029,"SoundDuration":297029,"Delta":9541250},{"NoteNumber":41,"Velocity":58,"Duration":594058,"SoundDuration":594058,"Delta":9541250},{"NoteNumber":53,"Velocity":69,"Duration":594058,"SoundDuration":594058,"Delta":9541250},{"NoteNumber":77,"Velocity":77,"Duration":297029,"SoundDuration":297029,"Delta":9838279},{"NoteNumber":70,"Velocity":71,"Duration":562004,"SoundDuration":562004,"Delta":10135309},{"NoteNumber":65,"Velocity":71,"Duration":562004,"SoundDuration":562004,"Delta":10135309},{"NoteNumber":74,"Velocity":84,"Duration":562004,"SoundDuration":562004,"Delta":10135309},{"NoteNumber":46,"Velocity":56,"Duration":562004,"SoundDuration":562004,"Delta":10135309},{"NoteNumber":58,"Velocity":67,"Duration":562004,"SoundDuration":562004,"Delta":10135309},{"NoteNumber":67,"Velocity":66,"Duration":599999,"SoundDuration":599999,"Delta":10734813},{"NoteNumber":62,"Velocity":66,"Duration":599999,"SoundDuration":599999,"Delta":10734813},{"NoteNumber":70,"Velocity":78,"Duration":599999,"SoundDuration":599999,"Delta":10734813},{"NoteNumber":43,"Velocity":53,"Duration":599999,"SoundDuration":599999,"Delta":10734813},{"NoteNumber":55,"Velocity":63,"Duration":599999,"SoundDuration":599999,"Delta":10734813},{"NoteNumber":67,"Velocity":65,"Duration":599999,"SoundDuration":599999,"Delta":11334813},{"NoteNumber":64,"Velocity":65,"Duration":599999,"SoundDuration":599999,"Delta":11334813},{"NoteNumber":72,"Velocity":77,"Duration":599999,"SoundDuration":599999,"Delta":11334813},{"NoteNumber":36,"Velocity":56,"Duration":599999,"SoundDuration":599999,"Delta":11334813},{"NoteNumber":48,"Velocity":67,"Duration":599999,"SoundDuration":599999,"Delta":11334813},{"NoteNumber":60,"Velocity":59,"Duration":600000,"SoundDuration":600000,"Delta":11934813},{"NoteNumber":67,"Velocity":70,"Duration":600000,"SoundDuration":600000,"Delta":11934813},{"NoteNumber":55,"Velocity":59,"Duration":600000,"SoundDuration":600000,"Delta":11934813},{"NoteNumber":52,"Velocity":58,"Duration":600000,"SoundDuration":600000,"Delta":11934813},{"NoteNumber":40,"Velocity":49,"Duration":600000,"SoundDuration":600000,"Delta":11934813},{"NoteNumber":65,"Velocity":66,"Duration":608108,"SoundDuration":608108,"Delta":12534813},{"NoteNumber":57,"Velocity":56,"Duration":608108,"SoundDuration":608108,"Delta":12534813},{"NoteNumber":60,"Velocity":56,"Duration":608108,"SoundDuration":608108,"Delta":12534813},{"NoteNumber":53,"Velocity":56,"Duration":608108,"SoundDuration":608108,"Delta":12534813},{"NoteNumber":41,"Velocity":47,"Duration":608108,"SoundDuration":608108,"Delta":12534813},{"NoteNumber":65,"Velocity":92,"Duration":625000,"SoundDuration":625000,"Delta":13183462},{"NoteNumber":53,"Velocity":70,"Duration":625000,"SoundDuration":625000,"Delta":13183462},{"NoteNumber":67,"Velocity":88,"Duration":625000,"SoundDuration":625000,"Delta":13783462},{"NoteNumber":55,"Velocity":66,"Duration":625000,"SoundDuration":625000,"Delta":13783462},{"NoteNumber":62,"Velocity":83,"Duration":616143,"SoundDuration":616143,"Delta":14383462},{"NoteNumber":50,"Velocity":63,"Duration":616143,"SoundDuration":616143,"Delta":14383462},{"NoteNumber":65,"Velocity":86,"Duration":315892,"SoundDuration":315892,"Delta":14975334},{"NoteNumber":53,"Velocity":65,"Duration":315892,"SoundDuration":315892,"Delta":14975334},{"NoteNumber":67,"Velocity":74,"Duration":320197,"SoundDuration":320197,"Delta":15266596},{"NoteNumber":55,"Velocity":55,"Duration":320197,"SoundDuration":320197,"Delta":15266596},{"NoteNumber":60,"Velocity":80,"Duration":615287,"SoundDuration":615287,"Delta":15562163},{"NoteNumber":48,"Velocity":61,"Duration":615287,"SoundDuration":615287,"Delta":15562163},{"NoteNumber":67,"Velocity":80,"Duration":314245,"SoundDuration":314245,"Delta":16153296},{"NoteNumber":55,"Velocity":61,"Duration":314245,"SoundDuration":314245,"Delta":16153296},{"NoteNumber":69,"Velocity":72,"Duration":317808,"SoundDuration":317808,"Delta":16443151},{"NoteNumber":57,"Velocity":54,"Duration":317808,"SoundDuration":317808,"Delta":16443151},{"NoteNumber":65,"Velocity":79,"Duration":565326,"SoundDuration":565326,"Delta":16735834},{"NoteNumber":53,"Velocity":60,"Duration":565326,"SoundDuration":565326,"Delta":16735834},{"NoteNumber":72,"Velocity":71,"Duration":600000,"SoundDuration":600000,"Delta":17338849},{"NoteNumber":65,"Velocity":71,"Duration":600000,"SoundDuration":600000,"Delta":17338849},{"NoteNumber":69,"Velocity":71,"Duration":600000,"SoundDuration":600000,"Delta":17338849},{"NoteNumber":77,"Velocity":84,"Duration":600000,"SoundDuration":600000,"Delta":17338849},{"NoteNumber":29,"Velocity":62,"Duration":600000,"SoundDuration":600000,"Delta":17338849},{"NoteNumber":41,"Velocity":73,"Duration":600000,"SoundDuration":600000,"Delta":17338849},{"NoteNumber":65,"Velocity":69,"Duration":588235,"SoundDuration":588235,"Delta":17938849},{"NoteNumber":62,"Velocity":69,"Duration":588235,"SoundDuration":588235,"Delta":17938849},{"NoteNumber":74,"Velocity":82,"Duration":588235,"SoundDuration":588235,"Delta":17938849},{"NoteNumber":34,"Velocity":58,"Duration":588235,"SoundDuration":588235,"Delta":17938849},{"NoteNumber":46,"Velocity":69,"Duration":588235,"SoundDuration":588235,"Delta":17938849},{"NoteNumber":72,"Velocity":80,"Duration":291261,"SoundDuration":291261,"Delta":18527084},{"NoteNumber":60,"Velocity":68,"Duration":291261,"SoundDuration":291261,"Delta":18527084},{"NoteNumber":65,"Velocity":68,"Duration":585379,"SoundDuration":585379,"Delta":18527084},{"NoteNumber":45,"Velocity":67,"Duration":291261,"SoundDuration":291261,"Delta":18527084},{"NoteNumber":33,"Velocity":56,"Duration":291261,"SoundDuration":291261,"Delta":18527084},{"NoteNumber":70,"Velocity":74,"Duration":294117,"SoundDuration":294117,"Delta":18818346},{"NoteNumber":58,"Velocity":62,"Duration":294117,"SoundDuration":294117,"Delta":18818346},{"NoteNumber":31,"Velocity":54,"Duration":294117,"SoundDuration":294117,"Delta":18818346},{"NoteNumber":43,"Velocity":64,"Duration":294117,"SoundDuration":294117,"Delta":18818346},{"NoteNumber":65,"Velocity":79,"Duration":576923,"SoundDuration":576923,"Delta":19112463},{"NoteNumber":29,"Velocity":51,"Duration":576923,"SoundDuration":576923,"Delta":19112463},{"NoteNumber":41,"Velocity":61,"Duration":576923,"SoundDuration":576923,"Delta":19112463},{"NoteNumber":65,"Velocity":92,"Duration":625000,"SoundDuration":625000,"Delta":19727848},{"NoteNumber":53,"Velocity":70,"Duration":625000,"SoundDuration":625000,"Delta":19727848},{"NoteNumber":67,"Velocity":88,"Duration":624630,"SoundDuration":624630,"Delta":20327848},{"NoteNumber":55,"Velocity":66,"Duration":624630,"SoundDuration":624630,"Delta":20327848},{"NoteNumber":62,"Velocity":85,"Duration":615404,"SoundDuration":615404,"Delta":20927848},{"NoteNumber":50,"Velocity":64,"Duration":615404,"SoundDuration":615404,"Delta":20927848},{"NoteNumber":65,"Velocity":86,"Duration":315652,"SoundDuration":315652,"Delta":21518981},{"NoteNumber":53,"Velocity":65,"Duration":315652,"SoundDuration":315652,"Delta":21518981},{"NoteNumber":67,"Velocity":77,"Duration":317313,"SoundDuration":317313,"Delta":21810243},{"NoteNumber":55,"Velocity":58,"Duration":317313,"SoundDuration":317313,"Delta":21810243},{"NoteNumber":63,"Velocity":85,"Duration":615404,"SoundDuration":615404,"Delta":22102926},{"NoteNumber":51,"Velocity":64,"Duration":615404,"SoundDuration":615404,"Delta":22102926},{"NoteNumber":70,"Velocity":94,"Duration":315892,"SoundDuration":315892,"Delta":22694059},{"NoteNumber":58,"Velocity":71,"Duration":315892,"SoundDuration":315892,"Delta":22694059},{"NoteNumber":72,"Velocity":78,"Duration":320197,"SoundDuration":320197,"Delta":22985321},{"NoteNumber":60,"Velocity":60,"Duration":320197,"SoundDuration":320197,"Delta":22985321},{"NoteNumber":68,"Velocity":81,"Duration":554187,"SoundDuration":554187,"Delta":23280888},{"NoteNumber":56,"Velocity":60,"Duration":554187,"SoundDuration":554187,"Delta":23280888},{"NoteNumber":68,"Velocity":71,"Duration":600000,"SoundDuration":600000,"Delta":23872021},{"NoteNumber":72,"Velocity":71,"Duration":600000,"SoundDuration":600000,"Delta":23872021},{"NoteNumber":75,"Velocity":71,"Duration":600000,"SoundDuration":600000,"Delta":23872021},{"NoteNumber":80,"Velocity":84,"Duration":600000,"SoundDuration":600000,"Delta":23872021},{"NoteNumber":44,"Velocity":73,"Duration":600000,"SoundDuration":600000,"Delta":23872021},{"NoteNumber":32,"Velocity":62,"Duration":600000,"SoundDuration":600000,"Delta":23872021},{"NoteNumber":77,"Velocity":80,"Duration":599999,"SoundDuration":599999,"Delta":24472021},{"NoteNumber":68,"Velocity":68,"Duration":599999,"SoundDuration":599999,"Delta":24472021},{"NoteNumber":65,"Velocity":68,"Duration":599999,"SoundDuration":599999,"Delta":24472021},{"NoteNumber":37,"Velocity":57,"Duration":599999,"SoundDuration":599999,"Delta":24472021},{"NoteNumber":49,"Velocity":68,"Duration":599999,"SoundDuration":599999,"Delta":24472021},{"NoteNumber":63,"Velocity":66,"Duration":295566,"SoundDuration":295566,"Delta":25072021},{"NoteNumber":75,"Velocity":78,"Duration":295566,"SoundDuration":295566,"Delta":25072021},{"NoteNumber":68,"Velocity":66,"Duration":295566,"SoundDuration":295566,"Delta":25072021},{"NoteNumber":36,"Velocity":56,"Duration":295566,"SoundDuration":295566,"Delta":25072021},{"NoteNumber":48,"Velocity":67,"Duration":295566,"SoundDuration":295566,"Delta":25072021},{"NoteNumber":61,"Velocity":66,"Duration":295566,"SoundDuration":295566,"Delta":25367587},{"NoteNumber":73,"Velocity":78,"Duration":295566,"SoundDuration":295566,"Delta":25367587},{"NoteNumber":46,"Velocity":63,"Duration":295566,"SoundDuration":295566,"Delta":25367587},{"NoteNumber":34,"Velocity":51,"Duration":295566,"SoundDuration":295566,"Delta":25367587},{"NoteNumber":68,"Velocity":74,"Duration":592105,"SoundDuration":592105,"Delta":25663154},{"NoteNumber":32,"Velocity":54,"Duration":592105,"SoundDuration":592105,"Delta":25663154},{"NoteNumber":44,"Velocity":64,"Duration":592105,"SoundDuration":592105,"Delta":25663154},{"NoteNumber":63,"Velocity":48,"Duration":1800000,"SoundDuration":1800000,"Delta":26294733},{"NoteNumber":56,"Velocity":48,"Duration":600000,"SoundDuration":600000,"Delta":26294733},{"NoteNumber":68,"Velocity":57,"Duration":600000,"SoundDuration":600000,"Delta":26294733},{"NoteNumber":30,"Velocity":37,"Duration":600000,"SoundDuration":600000,"Delta":26294733},{"NoteNumber":42,"Velocity":44,"Duration":600000,"SoundDuration":600000,"Delta":26294733},{"NoteNumber":58,"Velocity":49,"Duration":599999,"SoundDuration":599999,"Delta":26894733},{"NoteNumber":70,"Velocity":58,"Duration":599999,"SoundDuration":599999,"Delta":26894733},{"NoteNumber":42,"Velocity":39,"Duration":599999,"SoundDuration":599999,"Delta":26894733},{"NoteNumber":30,"Velocity":33,"Duration":599999,"SoundDuration":599999,"Delta":26894733},{"NoteNumber":68,"Velocity":58,"Duration":600000,"SoundDuration":600000,"Delta":27494733},{"NoteNumber":56,"Velocity":49,"Duration":600000,"SoundDuration":600000,"Delta":27494733},{"NoteNumber":29,"Velocity":34,"Duration":600000,"SoundDuration":600000,"Delta":27494733},{"NoteNumber":41,"Velocity":40,"Duration":600000,"SoundDuration":600000,"Delta":27494733},{"NoteNumber":63,"Velocity":49,"Duration":866778,"SoundDuration":866778,"Delta":28094733},{"NoteNumber":58,"Velocity":49,"Duration":289854,"SoundDuration":289854,"Delta":28094733},{"NoteNumber":70,"Velocity":58,"Duration":289854,"SoundDuration":289854,"Delta":28094733},{"NoteNumber":30,"Velocity":37,"Duration":578316,"SoundDuration":578316,"Delta":28094733},{"NoteNumber":42,"Velocity":44,"Duration":578316,"SoundDuration":578316,"Delta":28094733},{"NoteNumber":60,"Velocity":49,"Duration":288461,"SoundDuration":288461,"Delta":28384588},{"NoteNumber":72,"Velocity":58,"Duration":288461,"SoundDuration":288461,"Delta":28384588},{"NoteNumber":75,"Velocity":63,"Duration":288461,"SoundDuration":288461,"Delta":28673049},{"NoteNumber":63,"Velocity":53,"Duration":1175348,"SoundDuration":1175348,"Delta":28673049},{"NoteNumber":42,"Velocity":41,"Duration":579723,"SoundDuration":579723,"Delta":28673049},{"NoteNumber":30,"Velocity":34,"Duration":579723,"SoundDuration":579723,"Delta":28673049},{"NoteNumber":58,"Velocity":49,"Duration":291261,"SoundDuration":291261,"Delta":28961511},{"NoteNumber":70,"Velocity":58,"Duration":291261,"SoundDuration":291261,"Delta":28961511},{"NoteNumber":56,"Velocity":46,"Duration":595624,"SoundDuration":595624,"Delta":29252773},{"NoteNumber":68,"Velocity":55,"Duration":595624,"SoundDuration":595624,"Delta":29252773},{"NoteNumber":54,"Velocity":49,"Duration":294117,"SoundDuration":294117,"Delta":29252773},{"NoteNumber":42,"Velocity":41,"Duration":294117,"SoundDuration":294117,"Delta":29252773},{"NoteNumber":39,"Velocity":39,"Duration":301507,"SoundDuration":301507,"Delta":29546890},{"NoteNumber":51,"Velocity":46,"Duration":301507,"SoundDuration":301507,"Delta":29546890},{"NoteNumber":73,"Velocity":73,"Duration":288461,"SoundDuration":288461,"Delta":29848398},{"NoteNumber":68,"Velocity":62,"Duration":288461,"SoundDuration":288461,"Delta":29848398},{"NoteNumber":61,"Velocity":62,"Duration":288461,"SoundDuration":288461,"Delta":29848398},{"NoteNumber":65,"Velocity":62,"Duration":288461,"SoundDuration":288461,"Delta":29848398},{"NoteNumber":41,"Velocity":46,"Duration":288461,"SoundDuration":288461,"Delta":29848398},{"NoteNumber":53,"Velocity":55,"Duration":288461,"SoundDuration":288461,"Delta":29848398},{"NoteNumber":72,"Velocity":58,"Duration":292683,"SoundDuration":292683,"Delta":30136859},{"NoteNumber":75,"Velocity":69,"Duration":292683,"SoundDuration":292683,"Delta":30136859},{"NoteNumber":68,"Velocity":58,"Duration":292683,"SoundDuration":292683,"Delta":30136859},{"NoteNumber":63,"Velocity":58,"Duration":292683,"SoundDuration":292683,"Delta":30136859},{"NoteNumber":51,"Velocity":50,"Duration":292683,"SoundDuration":292683,"Delta":30136859},{"NoteNumber":39,"Velocity":42,"Duration":292683,"SoundDuration":292683,"Delta":30136859},{"NoteNumber":65,"Velocity":62,"Duration":288461,"SoundDuration":288461,"Delta":30429542},{"NoteNumber":77,"Velocity":73,"Duration":288461,"SoundDuration":288461,"Delta":30429542},{"NoteNumber":68,"Velocity":62,"Duration":288461,"SoundDuration":288461,"Delta":30429542},{"NoteNumber":73,"Velocity":62,"Duration":288461,"SoundDuration":288461,"Delta":30429542},{"NoteNumber":37,"Velocity":46,"Duration":288461,"SoundDuration":288461,"Delta":30429542},{"NoteNumber":49,"Velocity":55,"Duration":288461,"SoundDuration":288461,"Delta":30429542},{"NoteNumber":68,"Velocity":63,"Duration":288461,"SoundDuration":288461,"Delta":30718004},{"NoteNumber":80,"Velocity":75,"Duration":288461,"SoundDuration":288461,"Delta":30718004},{"NoteNumber":37,"Velocity":55,"Duration":288461,"SoundDuration":288461,"Delta":30718004},{"NoteNumber":25,"Velocity":46,"Duration":288461,"SoundDuration":288461,"Delta":30718004},{"NoteNumber":66,"Velocity":61,"Duration":287081,"SoundDuration":287081,"Delta":31006465},{"NoteNumber":78,"Velocity":72,"Duration":287081,"SoundDuration":287081,"Delta":31006465},{"NoteNumber":70,"Velocity":61,"Duration":287081,"SoundDuration":287081,"Delta":31006465},{"NoteNumber":75,"Velocity":61,"Duration":287081,"SoundDuration":287081,"Delta":31006465},{"NoteNumber":51,"Velocity":56,"Duration":287081,"SoundDuration":287081,"Delta":31006465},{"NoteNumber":39,"Velocity":47,"Duration":287081,"SoundDuration":287081,"Delta":31006465},{"NoteNumber":65,"Velocity":57,"Duration":287081,"SoundDuration":287081,"Delta":31293547},{"NoteNumber":77,"Velocity":68,"Duration":287081,"SoundDuration":287081,"Delta":31293547},{"NoteNumber":68,"Velocity":57,"Duration":287081,"SoundDuration":287081,"Delta":31293547},{"NoteNumber":73,"Velocity":57,"Duration":287081,"SoundDuration":287081,"Delta":31293547},{"NoteNumber":53,"Velocity":51,"Duration":287081,"SoundDuration":287081,"Delta":31293547},{"NoteNumber":41,"Velocity":43,"Duration":287081,"SoundDuration":287081,"Delta":31293547},{"NoteNumber":72,"Velocity":63,"Duration":292683,"SoundDuration":292683,"Delta":31580628},{"NoteNumber":75,"Velocity":75,"Duration":292683,"SoundDuration":292683,"Delta":31580628},{"NoteNumber":68,"Velocity":63,"Duration":292683,"SoundDuration":292683,"Delta":31580628},{"NoteNumber":63,"Velocity":63,"Duration":292683,"SoundDuration":292683,"Delta":31580628},{"NoteNumber":56,"Velocity":56,"Duration":292683,"SoundDuration":292683,"Delta":31580628},{"NoteNumber":44,"Velocity":47,"Duration":292683,"SoundDuration":292683,"Delta":31580628},{"NoteNumber":78,"Velocity":69,"Duration":292683,"SoundDuration":292683,"Delta":31873311},{"NoteNumber":66,"Velocity":58,"Duration":292683,"SoundDuration":292683,"Delta":31873311},{"NoteNumber":44,"Velocity":56,"Duration":292683,"SoundDuration":292683,"Delta":31873311},{"NoteNumber":32,"Velocity":47,"Duration":292683,"SoundDuration":292683,"Delta":31873311},{"NoteNumber":73,"Velocity":58,"Duration":292682,"SoundDuration":292682,"Delta":32165994},{"NoteNumber":77,"Velocity":69,"Duration":292682,"SoundDuration":292682,"Delta":32165994},{"NoteNumber":65,"Velocity":58,"Duration":292682,"SoundDuration":292682,"Delta":32165994},{"NoteNumber":70,"Velocity":58,"Duration":292682,"SoundDuration":292682,"Delta":32165994},{"NoteNumber":34,"Velocity":39,"Duration":292682,"SoundDuration":292682,"Delta":32165994},{"NoteNumber":46,"Velocity":46,"Duration":292682,"SoundDuration":292682,"Delta":32165994},{"NoteNumber":61,"Velocity":57,"Duration":292683,"SoundDuration":292683,"Delta":32458677},{"NoteNumber":73,"Velocity":68,"Duration":292683,"SoundDuration":292683,"Delta":32458677},{"NoteNumber":37,"Velocity":39,"Duration":292683,"SoundDuration":292683,"Delta":32458677},{"NoteNumber":49,"Velocity":46,"Duration":292683,"SoundDuration":292683,"Delta":32458677},{"NoteNumber":68,"Velocity":54,"Duration":598805,"SoundDuration":598805,"Delta":32751360},{"NoteNumber":63,"Velocity":54,"Duration":598805,"SoundDuration":598805,"Delta":32751360},{"NoteNumber":72,"Velocity":54,"Duration":598805,"SoundDuration":598805,"Delta":32751360},{"NoteNumber":75,"Velocity":64,"Duration":598805,"SoundDuration":598805,"Delta":32751360},{"NoteNumber":36,"Velocity":43,"Duration":292682,"SoundDuration":292682,"Delta":32751360},{"NoteNumber":48,"Velocity":51,"Duration":292682,"SoundDuration":292682,"Delta":32751360},{"NoteNumber":32,"Velocity":40,"Duration":306122,"SoundDuration":306122,"Delta":33044043},{"NoteNumber":44,"Velocity":48,"Duration":306122,"SoundDuration":306122,"Delta":33044043},{"NoteNumber":63,"Velocity":51,"Duration":600000,"SoundDuration":600000,"Delta":33350166},{"NoteNumber":56,"Velocity":51,"Duration":600000,"SoundDuration":600000,"Delta":33350166},{"NoteNumber":68,"Velocity":61,"Duration":600000,"SoundDuration":600000,"Delta":33350166},{"NoteNumber":30,"Velocity":35,"Duration":600000,"SoundDuration":600000,"Delta":33350166},{"NoteNumber":42,"Velocity":42,"Duration":600000,"SoundDuration":600000,"Delta":33350166},{"NoteNumber":63,"Velocity":51,"Duration":600000,"SoundDuration":600000,"Delta":33950166},{"NoteNumber":70,"Velocity":61,"Duration":600000,"SoundDuration":600000,"Delta":33950166},{"NoteNumber":58,"Velocity":51,"Duration":600000,"SoundDuration":600000,"Delta":33950166},{"NoteNumber":30,"Velocity":31,"Duration":600000,"SoundDuration":600000,"Delta":33950166},{"NoteNumber":42,"Velocity":37,"Duration":600000,"SoundDuration":600000,"Delta":33950166},{"NoteNumber":56,"Velocity":51,"Duration":599999,"SoundDuration":599999,"Delta":34550166},{"NoteNumber":63,"Velocity":51,"Duration":599999,"SoundDuration":599999,"Delta":34550166},{"NoteNumber":68,"Velocity":61,"Duration":599999,"SoundDuration":599999,"Delta":34550166},{"NoteNumber":42,"Velocity":44,"Duration":599999,"SoundDuration":599999,"Delta":34550166},{"NoteNumber":30,"Velocity":37,"Duration":599999,"SoundDuration":599999,"Delta":34550166},{"NoteNumber":58,"Velocity":49,"Duration":291262,"SoundDuration":291262,"Delta":35150166},{"NoteNumber":63,"Velocity":49,"Duration":870972,"SoundDuration":870972,"Delta":35150166},{"NoteNumber":70,"Velocity":58,"Duration":291262,"SoundDuration":291262,"Delta":35150166},{"NoteNumber":30,"Velocity":35,"Duration":581117,"SoundDuration":581117,"Delta":35150166},{"NoteNumber":42,"Velocity":42,"Duration":581117,"SoundDuration":581117,"Delta":35150166},{"NoteNumber":72,"Velocity":58,"Duration":289855,"SoundDuration":289855,"Delta":35441428},{"NoteNumber":60,"Velocity":49,"Duration":289855,"SoundDuration":289855,"Delta":35441428},{"NoteNumber":63,"Velocity":53,"Duration":289854,"SoundDuration":289854,"Delta":35731283},{"NoteNumber":75,"Velocity":63,"Duration":289854,"SoundDuration":289854,"Delta":35731283},{"NoteNumber":54,"Velocity":45,"Duration":289854,"SoundDuration":289854,"Delta":35731283},{"NoteNumber":42,"Velocity":38,"Duration":289854,"SoundDuration":289854,"Delta":35731283},{"NoteNumber":58,"Velocity":49,"Duration":270618,"SoundDuration":270618,"Delta":36021138},{"NoteNumber":70,"Velocity":58,"Duration":270618,"SoundDuration":270618,"Delta":36021138},{"NoteNumber":72,"Velocity":62,"Duration":600000,"SoundDuration":600000,"Delta":36330416},{"NoteNumber":67,"Velocity":52,"Duration":1791133,"SoundDuration":1791133,"Delta":36330416},{"NoteNumber":60,"Velocity":52,"Duration":600000,"SoundDuration":600000,"Delta":36330416},{"NoteNumber":46,"Velocity":41,"Duration":600000,"SoundDuration":600000,"Delta":36330416},{"NoteNumber":34,"Velocity":34,"Duration":600000,"SoundDuration":600000,"Delta":36330416},{"NoteNumber":74,"Velocity":64,"Duration":600000,"SoundDuration":600000,"Delta":36930416},{"NoteNumber":62,"Velocity":54,"Duration":600000,"SoundDuration":600000,"Delta":36930416},{"NoteNumber":46,"Velocity":38,"Duration":600000,"SoundDuration":600000,"Delta":36930416},{"NoteNumber":34,"Velocity":32,"Duration":600000,"SoundDuration":600000,"Delta":36930416},{"NoteNumber":60,"Velocity":53,"Duration":591132,"SoundDuration":591132,"Delta":37530416},{"NoteNumber":72,"Velocity":63,"Duration":591132,"SoundDuration":591132,"Delta":37530416},{"NoteNumber":33,"Velocity":34,"Duration":591132,"SoundDuration":591132,"Delta":37530416},{"NoteNumber":45,"Velocity":40,"Duration":591132,"SoundDuration":591132,"Delta":37530416},{"NoteNumber":67,"Velocity":52,"Duration":878048,"SoundDuration":878048,"Delta":38121549},{"NoteNumber":62,"Velocity":52,"Duration":292682,"SoundDuration":292682,"Delta":38121549},{"NoteNumber":74,"Velocity":62,"Duration":292682,"SoundDuration":292682,"Delta":38121549},{"NoteNumber":34,"Velocity":35,"Duration":585366,"SoundDuration":585366,"Delta":38121549},{"NoteNumber":46,"Velocity":42,"Duration":585366,"SoundDuration":585366,"Delta":38121549},{"NoteNumber":65,"Velocity":52,"Duration":292683,"SoundDuration":292683,"Delta":38414232},{"NoteNumber":77,"Velocity":62,"Duration":292683,"SoundDuration":292683,"Delta":38414232},{"NoteNumber":79,"Velocity":64,"Duration":292682,"SoundDuration":292682,"Delta":38706915},{"NoteNumber":67,"Velocity":54,"Duration":1170732,"SoundDuration":1170732,"Delta":38706915},{"NoteNumber":34,"Velocity":34,"Duration":585366,"SoundDuration":585366,"Delta":38706915},{"NoteNumber":46,"Velocity":41,"Duration":585366,"SoundDuration":585366,"Delta":38706915},{"NoteNumber":74,"Velocity":63,"Duration":292683,"SoundDuration":292683,"Delta":38999598},{"NoteNumber":62,"Velocity":53,"Duration":292683,"SoundDuration":292683,"Delta":38999598},{"NoteNumber":72,"Velocity":61,"Duration":548780,"SoundDuration":548780,"Delta":39292281},{"NoteNumber":60,"Velocity":51,"Duration":548780,"SoundDuration":548780,"Delta":39292281},{"NoteNumber":58,"Velocity":41,"Duration":548780,"SoundDuration":548780,"Delta":39292281},{"NoteNumber":46,"Velocity":34,"Duration":548780,"SoundDuration":548780,"Delta":39292281},{"NoteNumber":72,"Velocity":67,"Duration":287081,"SoundDuration":287081,"Delta":39877647},{"NoteNumber":65,"Velocity":67,"Duration":287081,"SoundDuration":287081,"Delta":39877647},{"NoteNumber":69,"Velocity":67,"Duration":287081,"SoundDuration":287081,"Delta":39877647},{"NoteNumber":77,"Velocity":79,"Duration":287081,"SoundDuration":287081,"Delta":39877647},{"NoteNumber":57,"Velocity":62,"Duration":287081,"SoundDuration":287081,"Delta":39877647},{"NoteNumber":45,"Velocity":52,"Duration":287081,"SoundDuration":287081,"Delta":39877647},{"NoteNumber":72,"Velocity":61,"Duration":292682,"SoundDuration":292682,"Delta":40164729},{"NoteNumber":79,"Velocity":72,"Duration":292682,"SoundDuration":292682,"Delta":40164729},{"NoteNumber":76,"Velocity":61,"Duration":292682,"SoundDuration":292682,"Delta":40164729},{"NoteNumber":67,"Velocity":61,"Duration":292682,"SoundDuration":292682,"Delta":40164729},{"NoteNumber":43,"Velocity":47,"Duration":292682,"SoundDuration":292682,"Delta":40164729},{"NoteNumber":55,"Velocity":56,"Duration":292682,"SoundDuration":292682,"Delta":40164729},{"NoteNumber":69,"Velocity":69,"Duration":288461,"SoundDuration":288461,"Delta":40457412},{"NoteNumber":81,"Velocity":82,"Duration":288461,"SoundDuration":288461,"Delta":40457412},{"NoteNumber":77,"Velocity":69,"Duration":288461,"SoundDuration":288461,"Delta":40457412},{"NoteNumber":72,"Velocity":69,"Duration":288461,"SoundDuration":288461,"Delta":40457412},{"NoteNumber":41,"Velocity":51,"Duration":288461,"SoundDuration":288461,"Delta":40457412},{"NoteNumber":53,"Velocity":61,"Duration":288461,"SoundDuration":288461,"Delta":40457412},{"NoteNumber":84,"Velocity":72,"Duration":284359,"SoundDuration":284359,"Delta":40745873},{"NoteNumber":72,"Velocity":61,"Duration":284359,"SoundDuration":284359,"Delta":40745873},{"NoteNumber":29,"Velocity":47,"Duration":284359,"SoundDuration":284359,"Delta":40745873},{"NoteNumber":41,"Velocity":56,"Duration":284359,"SoundDuration":284359,"Delta":40745873},{"NoteNumber":79,"Velocity":68,"Duration":288461,"SoundDuration":288461,"Delta":41030233},{"NoteNumber":70,"Velocity":68,"Duration":288461,"SoundDuration":288461,"Delta":41030233},{"NoteNumber":74,"Velocity":68,"Duration":288461,"SoundDuration":288461,"Delta":41030233},{"NoteNumber":82,"Velocity":81,"Duration":288461,"SoundDuration":288461,"Delta":41030233},{"NoteNumber":43,"Velocity":51,"Duration":288461,"SoundDuration":288461,"Delta":41030233},{"NoteNumber":55,"Velocity":61,"Duration":288461,"SoundDuration":288461,"Delta":41030233},{"NoteNumber":72,"Velocity":63,"Duration":291262,"SoundDuration":291262,"Delta":41318695},{"NoteNumber":81,"Velocity":75,"Duration":291262,"SoundDuration":291262,"Delta":41318695},{"NoteNumber":77,"Velocity":63,"Duration":291262,"SoundDuration":291262,"Delta":41318695},{"NoteNumber":69,"Velocity":63,"Duration":291262,"SoundDuration":291262,"Delta":41318695},{"NoteNumber":57,"Velocity":56,"Duration":291262,"SoundDuration":291262,"Delta":41318695},{"NoteNumber":45,"Velocity":47,"Duration":291262,"SoundDuration":291262,"Delta":41318695},{"NoteNumber":67,"Velocity":68,"Duration":289855,"SoundDuration":289855,"Delta":41609957},{"NoteNumber":79,"Velocity":81,"Duration":289855,"SoundDuration":289855,"Delta":41609957},{"NoteNumber":72,"Velocity":68,"Duration":289855,"SoundDuration":289855,"Delta":41609957},{"NoteNumber":76,"Velocity":68,"Duration":289855,"SoundDuration":289855,"Delta":41609957},{"NoteNumber":48,"Velocity":52,"Duration":289855,"SoundDuration":289855,"Delta":41609957},{"NoteNumber":60,"Velocity":62,"Duration":289855,"SoundDuration":289855,"Delta":41609957},{"NoteNumber":70,"Velocity":63,"Duration":292682,"SoundDuration":292682,"Delta":41899812},{"NoteNumber":82,"Velocity":75,"Duration":292682,"SoundDuration":292682,"Delta":41899812},{"NoteNumber":36,"Velocity":49,"Duration":292682,"SoundDuration":292682,"Delta":41899812},{"NoteNumber":48,"Velocity":58,"Duration":292682,"SoundDuration":292682,"Delta":41899812},{"NoteNumber":74,"Velocity":67,"Duration":301507,"SoundDuration":301507,"Delta":42192495},{"NoteNumber":69,"Velocity":67,"Duration":301507,"SoundDuration":301507,"Delta":42192495},{"NoteNumber":77,"Velocity":67,"Duration":301507,"SoundDuration":301507,"Delta":42192495},{"NoteNumber":81,"Velocity":79,"Duration":301507,"SoundDuration":301507,"Delta":42192495},{"NoteNumber":38,"Velocity":51,"Duration":301507,"SoundDuration":301507,"Delta":42192495},{"NoteNumber":50,"Velocity":60,"Duration":301507,"SoundDuration":301507,"Delta":42192495},{"NoteNumber":65,"Velocity":62,"Duration":301507,"SoundDuration":301507,"Delta":42494002},{"NoteNumber":77,"Velocity":74,"Duration":301507,"SoundDuration":301507,"Delta":42494002},{"NoteNumber":41,"Velocity":51,"Duration":301507,"SoundDuration":301507,"Delta":42494002},{"NoteNumber":53,"Velocity":60,"Duration":301507,"SoundDuration":301507,"Delta":42494002},{"NoteNumber":72,"Velocity":58,"Duration":603076,"SoundDuration":603076,"Delta":42795510},{"NoteNumber":67,"Velocity":58,"Duration":603076,"SoundDuration":603076,"Delta":42795510},{"NoteNumber":79,"Velocity":69,"Duration":603076,"SoundDuration":603076,"Delta":42795510},{"NoteNumber":76,"Velocity":58,"Duration":603076,"SoundDuration":603076,"Delta":42795510},{"NoteNumber":40,"Velocity":49,"Duration":298507,"SoundDuration":298507,"Delta":42795510},{"NoteNumber":52,"Velocity":58,"Duration":298507,"SoundDuration":298507,"Delta":42795510},{"NoteNumber":48,"Velocity":58,"Duration":304568,"SoundDuration":304568,"Delta":43094017},{"NoteNumber":36,"Velocity":49,"Duration":304568,"SoundDuration":304568,"Delta":43094017},{"NoteNumber":72,"Velocity":61,"Duration":600000,"SoundDuration":600000,"Delta":43398586},{"NoteNumber":67,"Velocity":51,"Duration":600000,"SoundDuration":600000,"Delta":43398586},{"NoteNumber":60,"Velocity":51,"Duration":600000,"SoundDuration":600000,"Delta":43398586},{"NoteNumber":34,"Velocity":35,"Duration":600000,"SoundDuration":600000,"Delta":43398586},{"NoteNumber":46,"Velocity":42,"Duration":600000,"SoundDuration":600000,"Delta":43398586},{"NoteNumber":74,"Velocity":61,"Duration":600000,"SoundDuration":600000,"Delta":43998586},{"NoteNumber":62,"Velocity":51,"Duration":600000,"SoundDuration":600000,"Delta":43998586},{"NoteNumber":67,"Velocity":51,"Duration":600000,"SoundDuration":600000,"Delta":43998586},{"NoteNumber":46,"Velocity":42,"Duration":600000,"SoundDuration":600000,"Delta":43998586},{"NoteNumber":34,"Velocity":35,"Duration":600000,"SoundDuration":600000,"Delta":43998586},{"NoteNumber":72,"Velocity":61,"Duration":599999,"SoundDuration":599999,"Delta":44598586},{"NoteNumber":67,"Velocity":51,"Duration":599999,"SoundDuration":599999,"Delta":44598586},{"NoteNumber":60,"Velocity":51,"Duration":599999,"SoundDuration":599999,"Delta":44598586},{"NoteNumber":34,"Velocity":37,"Duration":599999,"SoundDuration":599999,"Delta":44598586},{"NoteNumber":46,"Velocity":44,"Duration":599999,"SoundDuration":599999,"Delta":44598586},{"NoteNumber":74,"Velocity":58,"Duration":291262,"SoundDuration":291262,"Delta":45198586},{"NoteNumber":67,"Velocity":49,"Duration":291262,"SoundDuration":291262,"Delta":45198586},{"NoteNumber":62,"Velocity":49,"Duration":291262,"SoundDuration":291262,"Delta":45198586},{"NoteNumber":34,"Velocity":35,"Duration":581117,"SoundDuration":581117,"Delta":45198586},{"NoteNumber":46,"Velocity":42,"Duration":581117,"SoundDuration":581117,"Delta":45198586},{"NoteNumber":77,"Velocity":58,"Duration":289855,"SoundDuration":289855,"Delta":45489848},{"NoteNumber":65,"Velocity":49,"Duration":289855,"SoundDuration":289855,"Delta":45489848},{"NoteNumber":67,"Velocity":53,"Duration":289854,"SoundDuration":289854,"Delta":45779703},{"NoteNumber":79,"Velocity":63,"Duration":289854,"SoundDuration":289854,"Delta":45779703},{"NoteNumber":58,"Velocity":45,"Duration":289854,"SoundDuration":289854,"Delta":45779703},{"NoteNumber":46,"Velocity":38,"Duration":289854,"SoundDuration":289854,"Delta":45779703},{"NoteNumber":62,"Velocity":49,"Duration":265151,"SoundDuration":265151,"Delta":46069558},{"NoteNumber":74,"Velocity":58,"Duration":265151,"SoundDuration":265151,"Delta":46069558},{"NoteNumber":69,"Velocity":56,"Duration":585366,"SoundDuration":585366,"Delta":46372588},{"NoteNumber":81,"Velocity":67,"Duration":585366,"SoundDuration":585366,"Delta":46372588},{"NoteNumber":73,"Velocity":56,"Duration":585366,"SoundDuration":585366,"Delta":46372588},{"NoteNumber":57,"Velocity":51,"Duration":585366,"SoundDuration":585366,"Delta":46372588},{"NoteNumber":45,"Velocity":43,"Duration":585366,"SoundDuration":585366,"Delta":46372588},{"NoteNumber":74,"Velocity":54,"Duration":591132,"SoundDuration":591132,"Delta":46957954},{"NoteNumber":69,"Velocity":54,"Duration":591132,"SoundDuration":591132,"Delta":46957954},{"NoteNumber":77,"Velocity":64,"Duration":591132,"SoundDuration":591132,"Delta":46957954},{"NoteNumber":62,"Velocity":46,"Duration":591132,"SoundDuration":591132,"Delta":46957954},{"NoteNumber":50,"Velocity":46,"Duration":591132,"SoundDuration":591132,"Delta":46957954},{"NoteNumber":73,"Velocity":55,"Duration":588234,"SoundDuration":588234,"Delta":47549087},{"NoteNumber":69,"Velocity":55,"Duration":588234,"SoundDuration":588234,"Delta":47549087},{"NoteNumber":81,"Velocity":65,"Duration":588234,"SoundDuration":588234,"Delta":47549087},{"NoteNumber":57,"Velocity":51,"Duration":588234,"SoundDuration":588234,"Delta":47549087},{"NoteNumber":45,"Velocity":43,"Duration":588234,"SoundDuration":588234,"Delta":47549087},{"NoteNumber":74,"Velocity":61,"Duration":600000,"SoundDuration":600000,"Delta":48137322},{"NoteNumber":70,"Velocity":51,"Duration":600000,"SoundDuration":600000,"Delta":48137322},{"NoteNumber":64,"Velocity":51,"Duration":600000,"SoundDuration":600000,"Delta":48137322},{"NoteNumber":43,"Velocity":37,"Duration":600000,"SoundDuration":600000,"Delta":48137322},{"NoteNumber":55,"Velocity":44,"Duration":600000,"SoundDuration":600000,"Delta":48137322},{"NoteNumber":72,"Velocity":51,"Duration":585366,"SoundDuration":585366,"Delta":48737322},{"NoteNumber":69,"Velocity":51,"Duration":585366,"SoundDuration":585366,"Delta":48737322},{"NoteNumber":81,"Velocity":60,"Duration":585366,"SoundDuration":585366,"Delta":48737322},{"NoteNumber":41,"Velocity":42,"Duration":585366,"SoundDuration":585366,"Delta":48737322},{"NoteNumber":53,"Velocity":50,"Duration":585366,"SoundDuration":585366,"Delta":48737322},{"NoteNumber":64,"Velocity":47,"Duration":600000,"SoundDuration":600000,"Delta":49322688},{"NoteNumber":74,"Velocity":56,"Duration":600000,"SoundDuration":600000,"Delta":49322688},{"NoteNumber":70,"Velocity":47,"Duration":600000,"SoundDuration":600000,"Delta":49322688},{"NoteNumber":55,"Velocity":44,"Duration":600000,"SoundDuration":600000,"Delta":49322688},{"NoteNumber":43,"Velocity":37,"Duration":600000,"SoundDuration":600000,"Delta":49322688},{"NoteNumber":69,"Velocity":56,"Duration":591132,"SoundDuration":591132,"Delta":49922688},{"NoteNumber":77,"Velocity":66,"Duration":295566,"SoundDuration":295566,"Delta":49922688},{"NoteNumber":65,"Velocity":56,"Duration":591132,"SoundDuration":591132,"Delta":49922688},{"NoteNumber":50,"Velocity":52,"Duration":591132,"SoundDuration":591132,"Delta":49922688},{"NoteNumber":38,"Velocity":44,"Duration":591132,"SoundDuration":591132,"Delta":49922688},{"NoteNumber":72,"Velocity":60,"Duration":295566,"SoundDuration":295566,"Delta":50218255},{"NoteNumber":65,"Velocity":54,"Duration":554187,"SoundDuration":554187,"Delta":50513821},{"NoteNumber":74,"Velocity":64,"Duration":554187,"SoundDuration":554187,"Delta":50513821},{"NoteNumber":70,"Velocity":54,"Duration":554187,"SoundDuration":554187,"Delta":50513821},{"NoteNumber":43,"Velocity":41,"Duration":554187,"SoundDuration":554187,"Delta":50513821},{"NoteNumber":55,"Velocity":49,"Duration":554187,"SoundDuration":554187,"Delta":50513821},{"NoteNumber":69,"Velocity":52,"Duration":594305,"SoundDuration":594305,"Delta":51104954},{"NoteNumber":77,"Velocity":62,"Duration":594305,"SoundDuration":594305,"Delta":51104954},{"NoteNumber":65,"Velocity":52,"Duration":594305,"SoundDuration":594305,"Delta":51104954},{"NoteNumber":38,"Velocity":44,"Duration":594305,"SoundDuration":594305,"Delta":51104954},{"NoteNumber":50,"Velocity":52,"Duration":594305,"SoundDuration":594305,"Delta":51104954},{"NoteNumber":70,"Velocity":47,"Duration":603014,"SoundDuration":603014,"Delta":51699260},{"NoteNumber":65,"Velocity":47,"Duration":603014,"SoundDuration":603014,"Delta":51699260},{"NoteNumber":74,"Velocity":56,"Duration":603014,"SoundDuration":603014,"Delta":51699260},{"NoteNumber":55,"Velocity":42,"Duration":603014,"SoundDuration":603014,"Delta":51699260},{"NoteNumber":43,"Velocity":35,"Duration":603014,"SoundDuration":603014,"Delta":51699260},{"NoteNumber":69,"Velocity":54,"Duration":586828,"SoundDuration":586828,"Delta":52302275},{"NoteNumber":77,"Velocity":64,"Duration":291262,"SoundDuration":291262,"Delta":52302275},{"NoteNumber":65,"Velocity":54,"Duration":586828,"SoundDuration":586828,"Delta":52302275},{"NoteNumber":38,"Velocity":44,"Duration":586828,"SoundDuration":586828,"Delta":52302275},{"NoteNumber":50,"Velocity":52,"Duration":586828,"SoundDuration":586828,"Delta":52302275},{"NoteNumber":72,"Velocity":60,"Duration":295566,"SoundDuration":295566,"Delta":52593537},{"NoteNumber":74,"Velocity":62,"Duration":565326,"SoundDuration":565326,"Delta":52889103},{"NoteNumber":65,"Velocity":52,"Duration":565326,"SoundDuration":565326,"Delta":52889103},{"NoteNumber":70,"Velocity":52,"Duration":565326,"SoundDuration":565326,"Delta":52889103},{"NoteNumber":43,"Velocity":40,"Duration":565326,"SoundDuration":565326,"Delta":52889103},{"NoteNumber":55,"Velocity":48,"Duration":565326,"SoundDuration":565326,"Delta":52889103},{"NoteNumber":72,"Velocity":63,"Duration":594059,"SoundDuration":594059,"Delta":53492118},{"NoteNumber":63,"Velocity":53,"Duration":297029,"SoundDuration":297029,"Delta":53492118},{"NoteNumber":67,"Velocity":53,"Duration":594059,"SoundDuration":594059,"Delta":53492118},{"NoteNumber":36,"Velocity":43,"Duration":594059,"SoundDuration":594059,"Delta":53492118},{"NoteNumber":48,"Velocity":51,"Duration":594059,"SoundDuration":594059,"Delta":53492118},{"NoteNumber":64,"Velocity":46,"Duration":297029,"SoundDuration":297029,"Delta":53789148},{"NoteNumber":60,"Velocity":49,"Duration":600000,"SoundDuration":600000,"Delta":54086177},{"NoteNumber":69,"Velocity":58,"Duration":600000,"SoundDuration":600000,"Delta":54086177},{"NoteNumber":65,"Velocity":49,"Duration":600000,"SoundDuration":600000,"Delta":54086177},{"NoteNumber":53,"Velocity":49,"Duration":600000,"SoundDuration":600000,"Delta":54086177},{"NoteNumber":41,"Velocity":41,"Duration":600000,"SoundDuration":600000,"Delta":54086177},{"NoteNumber":65,"Velocity":46,"Duration":600000,"SoundDuration":600000,"Delta":54686177},{"NoteNumber":70,"Velocity":55,"Duration":600000,"SoundDuration":600000,"Delta":54686177},{"NoteNumber":62,"Velocity":46,"Duration":600000,"SoundDuration":600000,"Delta":54686177},{"NoteNumber":55,"Velocity":42,"Duration":600000,"SoundDuration":600000,"Delta":54686177},{"NoteNumber":43,"Velocity":35,"Duration":600000,"SoundDuration":600000,"Delta":54686177},{"NoteNumber":72,"Velocity":64,"Duration":591132,"SoundDuration":591132,"Delta":55286177},{"NoteNumber":63,"Velocity":64,"Duration":295566,"SoundDuration":295566,"Delta":55286177},{"NoteNumber":67,"Velocity":54,"Duration":591132,"SoundDuration":591132,"Delta":55286177},{"NoteNumber":36,"Velocity":42,"Duration":591132,"SoundDuration":591132,"Delta":55286177},{"NoteNumber":48,"Velocity":50,"Duration":591132,"SoundDuration":591132,"Delta":55286177},{"NoteNumber":64,"Velocity":56,"Duration":295566,"SoundDuration":295566,"Delta":55581744},{"NoteNumber":60,"Velocity":49,"Duration":565326,"SoundDuration":565326,"Delta":55877310},{"NoteNumber":65,"Velocity":49,"Duration":565326,"SoundDuration":565326,"Delta":55877310},{"NoteNumber":69,"Velocity":58,"Duration":565326,"SoundDuration":565326,"Delta":55877310},{"NoteNumber":53,"Velocity":48,"Duration":565326,"SoundDuration":565326,"Delta":55877310},{"NoteNumber":41,"Velocity":40,"Duration":565326,"SoundDuration":565326,"Delta":55877310},{"NoteNumber":65,"Velocity":63,"Duration":584027,"SoundDuration":584027,"Delta":56480325},{"NoteNumber":70,"Velocity":75,"Duration":295566,"SoundDuration":295566,"Delta":56480325},{"NoteNumber":62,"Velocity":63,"Duration":584027,"SoundDuration":584027,"Delta":56480325},{"NoteNumber":43,"Velocity":47,"Duration":584027,"SoundDuration":584027,"Delta":56480325},{"NoteNumber":55,"Velocity":56,"Duration":584027,"SoundDuration":584027,"Delta":56480325},{"NoteNumber":74,"Velocity":82,"Duration":288461,"SoundDuration":288461,"Delta":56775892},{"NoteNumber":77,"Velocity":88,"Duration":591132,"SoundDuration":591132,"Delta":57064353},{"NoteNumber":65,"Velocity":74,"Duration":591132,"SoundDuration":591132,"Delta":57064353},{"NoteNumber":41,"Velocity":60,"Duration":591132,"SoundDuration":591132,"Delta":57064353},{"NoteNumber":29,"Velocity":51,"Duration":591132,"SoundDuration":591132,"Delta":57064353},{"NoteNumber":63,"Velocity":69,"Duration":289855,"SoundDuration":289855,"Delta":57655486},{"NoteNumber":67,"Velocity":69,"Duration":289855,"SoundDuration":289855,"Delta":57655486},{"NoteNumber":75,"Velocity":82,"Duration":289855,"SoundDuration":289855,"Delta":57655486},{"NoteNumber":70,"Velocity":69,"Duration":289855,"SoundDuration":289855,"Delta":57655486},{"NoteNumber":31,"Velocity":56,"Duration":586884,"SoundDuration":586884,"Delta":57655486},{"NoteNumber":43,"Velocity":67,"Duration":586884,"SoundDuration":586884,"Delta":57655486},{"NoteNumber":62,"Velocity":66,"Duration":297029,"SoundDuration":297029,"Delta":57945341},{"NoteNumber":74,"Velocity":78,"Duration":297029,"SoundDuration":297029,"Delta":57945341},{"NoteNumber":60,"Velocity":63,"Duration":292682,"SoundDuration":292682,"Delta":58242371},{"NoteNumber":65,"Velocity":63,"Duration":292682,"SoundDuration":292682,"Delta":58242371},{"NoteNumber":69,"Velocity":63,"Duration":292682,"SoundDuration":292682,"Delta":58242371},{"NoteNumber":72,"Velocity":75,"Duration":292682,"SoundDuration":292682,"Delta":58242371},{"NoteNumber":33,"Velocity":52,"Duration":292682,"SoundDuration":292682,"Delta":58242371},{"NoteNumber":45,"Velocity":62,"Duration":292682,"SoundDuration":292682,"Delta":58242371},{"NoteNumber":70,"Velocity":71,"Duration":297029,"SoundDuration":297029,"Delta":58535054},{"NoteNumber":58,"Velocity":60,"Duration":297029,"SoundDuration":297029,"Delta":58535054},{"NoteNumber":46,"Velocity":56,"Duration":297029,"SoundDuration":297029,"Delta":58535054},{"NoteNumber":34,"Velocity":47,"Duration":297029,"SoundDuration":297029,"Delta":58535054},{"NoteNumber":65,"Velocity":69,"Duration":594059,"SoundDuration":594059,"Delta":58832083},{"NoteNumber":72,"Velocity":82,"Duration":594059,"SoundDuration":594059,"Delta":58832083},{"NoteNumber":60,"Velocity":69,"Duration":594059,"SoundDuration":594059,"Delta":58832083},{"NoteNumber":45,"Velocity":64,"Duration":594059,"SoundDuration":594059,"Delta":58832083},{"NoteNumber":33,"Velocity":54,"Duration":594059,"SoundDuration":594059,"Delta":58832083},{"NoteNumber":62,"Velocity":71,"Duration":594058,"SoundDuration":594058,"Delta":59426142},{"NoteNumber":65,"Velocity":71,"Duration":594058,"SoundDuration":594058,"Delta":59426142},{"NoteNumber":74,"Velocity":84,"Duration":594058,"SoundDuration":594058,"Delta":59426142},{"NoteNumber":34,"Velocity":56,"Duration":594058,"SoundDuration":594058,"Delta":59426142},{"NoteNumber":46,"Velocity":66,"Duration":594058,"SoundDuration":594058,"Delta":59426142},{"NoteNumber":77,"Velocity":86,"Duration":594059,"SoundDuration":594059,"Delta":60020201},{"NoteNumber":69,"Velocity":73,"Duration":594059,"SoundDuration":594059,"Delta":60020201},{"NoteNumber":65,"Velocity":73,"Duration":594059,"SoundDuration":594059,"Delta":60020201},{"NoteNumber":72,"Velocity":86,"Duration":594059,"SoundDuration":594059,"Delta":60020201},{"NoteNumber":45,"Velocity":66,"Duration":594059,"SoundDuration":594059,"Delta":60020201},{"NoteNumber":33,"Velocity":56,"Duration":594059,"SoundDuration":594059,"Delta":60020201},{"NoteNumber":79,"Velocity":90,"Duration":299999,"SoundDuration":299999,"Delta":60614260},{"NoteNumber":70,"Velocity":76,"Duration":299999,"SoundDuration":299999,"Delta":60614260},{"NoteNumber":75,"Velocity":76,"Duration":299999,"SoundDuration":299999,"Delta":60614260},{"NoteNumber":67,"Velocity":76,"Duration":299999,"SoundDuration":299999,"Delta":60614260},{"NoteNumber":31,"Velocity":53,"Duration":600000,"SoundDuration":600000,"Delta":60614260},{"NoteNumber":43,"Velocity":63,"Duration":600000,"SoundDuration":600000,"Delta":60614260},{"NoteNumber":70,"Velocity":69,"Duration":300000,"SoundDuration":300000,"Delta":60914260},{"NoteNumber":82,"Velocity":82,"Duration":300000,"SoundDuration":300000,"Delta":60914260},{"NoteNumber":77,"Velocity":89,"Duration":562500,"SoundDuration":562500,"Delta":61214260},{"NoteNumber":65,"Velocity":75,"Duration":562500,"SoundDuration":562500,"Delta":61214260},{"NoteNumber":41,"Velocity":67,"Duration":562500,"SoundDuration":562500,"Delta":61214260},{"NoteNumber":29,"Velocity":56,"Duration":562500,"SoundDuration":562500,"Delta":61214260},{"NoteNumber":70,"Velocity":68,"Duration":285714,"SoundDuration":285714,"Delta":61814260},{"NoteNumber":75,"Velocity":81,"Duration":285714,"SoundDuration":285714,"Delta":61814260},{"NoteNumber":67,"Velocity":68,"Duration":285714,"SoundDuration":285714,"Delta":61814260},{"NoteNumber":63,"Velocity":68,"Duration":285714,"SoundDuration":285714,"Delta":61814260},{"NoteNumber":31,"Velocity":53,"Duration":575569,"SoundDuration":575569,"Delta":61814260},{"NoteNumber":43,"Velocity":63,"Duration":575569,"SoundDuration":575569,"Delta":61814260},{"NoteNumber":74,"Velocity":75,"Duration":289855,"SoundDuration":289855,"Delta":62099975},{"NoteNumber":62,"Velocity":60,"Duration":289855,"SoundDuration":289855,"Delta":62099975},{"NoteNumber":72,"Velocity":73,"Duration":285714,"SoundDuration":285714,"Delta":62389830},{"NoteNumber":69,"Velocity":62,"Duration":285714,"SoundDuration":285714,"Delta":62389830},{"NoteNumber":65,"Velocity":62,"Duration":285714,"SoundDuration":285714,"Delta":62389830},{"NoteNumber":60,"Velocity":62,"Duration":285714,"SoundDuration":285714,"Delta":62389830},{"NoteNumber":45,"Velocity":62,"Duration":285714,"SoundDuration":285714,"Delta":62389830},{"NoteNumber":33,"Velocity":52,"Duration":285714,"SoundDuration":285714,"Delta":62389830},{"NoteNumber":58,"Velocity":60,"Duration":292682,"SoundDuration":292682,"Delta":62675544},{"NoteNumber":70,"Velocity":71,"Duration":292682,"SoundDuration":292682,"Delta":62675544},{"NoteNumber":46,"Velocity":55,"Duration":292682,"SoundDuration":292682,"Delta":62675544},{"NoteNumber":34,"Velocity":46,"Duration":292682,"SoundDuration":292682,"Delta":62675544},{"NoteNumber":65,"Velocity":63,"Duration":585366,"SoundDuration":585366,"Delta":62968227},{"NoteNumber":60,"Velocity":63,"Duration":585366,"SoundDuration":585366,"Delta":62968227},{"NoteNumber":72,"Velocity":75,"Duration":585366,"SoundDuration":585366,"Delta":62968227},{"NoteNumber":33,"Velocity":52,"Duration":585366,"SoundDuration":585366,"Delta":62968227},{"NoteNumber":45,"Velocity":62,"Duration":585366,"SoundDuration":585366,"Delta":62968227},{"NoteNumber":65,"Velocity":76,"Duration":603015,"SoundDuration":603015,"Delta":63553593},{"NoteNumber":62,"Velocity":76,"Duration":603015,"SoundDuration":603015,"Delta":63553593},{"NoteNumber":74,"Velocity":90,"Duration":603015,"SoundDuration":603015,"Delta":63553593},{"NoteNumber":34,"Velocity":57,"Duration":603015,"SoundDuration":603015,"Delta":63553593},{"NoteNumber":46,"Velocity":68,"Duration":603015,"SoundDuration":603015,"Delta":63553593},{"NoteNumber":69,"Velocity":74,"Duration":603014,"SoundDuration":603014,"Delta":64156608},{"NoteNumber":72,"Velocity":74,"Duration":603014,"SoundDuration":603014,"Delta":64156608},{"NoteNumber":65,"Velocity":74,"Duration":603014,"SoundDuration":603014,"Delta":64156608},{"NoteNumber":77,"Velocity":88,"Duration":603014,"SoundDuration":603014,"Delta":64156608},{"NoteNumber":45,"Velocity":68,"Duration":603014,"SoundDuration":603014,"Delta":64156608},{"NoteNumber":33,"Velocity":57,"Duration":603014,"SoundDuration":603014,"Delta":64156608},{"NoteNumber":79,"Velocity":91,"Duration":297029,"SoundDuration":297029,"Delta":64759623},{"NoteNumber":67,"Velocity":77,"Duration":297029,"SoundDuration":297029,"Delta":64759623},{"NoteNumber":76,"Velocity":91,"Duration":297029,"SoundDuration":297029,"Delta":64759623},{"NoteNumber":72,"Velocity":77,"Duration":297029,"SoundDuration":297029,"Delta":64759623},{"NoteNumber":43,"Velocity":69,"Duration":596534,"SoundDuration":596534,"Delta":64759623},{"NoteNumber":31,"Velocity":58,"Duration":596534,"SoundDuration":596534,"Delta":64759623},{"NoteNumber":82,"Velocity":82,"Duration":299504,"SoundDuration":299504,"Delta":65056653},{"NoteNumber":70,"Velocity":69,"Duration":299504,"SoundDuration":299504,"Delta":65056653},{"NoteNumber":77,"Velocity":88,"Duration":562500,"SoundDuration":562500,"Delta":65356158},{"NoteNumber":65,"Velocity":74,"Duration":562500,"SoundDuration":562500,"Delta":65356158},{"NoteNumber":41,"Velocity":66,"Duration":562500,"SoundDuration":562500,"Delta":65356158},{"NoteNumber":29,"Velocity":56,"Duration":562500,"SoundDuration":562500,"Delta":65356158},{"NoteNumber":67,"Velocity":77,"Duration":599999,"SoundDuration":599999,"Delta":65956158},{"NoteNumber":79,"Velocity":91,"Duration":599999,"SoundDuration":599999,"Delta":65956158},{"NoteNumber":43,"Velocity":69,"Duration":599999,"SoundDuration":599999,"Delta":65956158},{"NoteNumber":31,"Velocity":58,"Duration":599999,"SoundDuration":599999,"Delta":65956158},{"NoteNumber":65,"Velocity":74,"Duration":562500,"SoundDuration":562500,"Delta":66556158},{"NoteNumber":77,"Velocity":88,"Duration":562500,"SoundDuration":562500,"Delta":66556158},{"NoteNumber":29,"Velocity":56,"Duration":562500,"SoundDuration":562500,"Delta":66556158},{"NoteNumber":41,"Velocity":66,"Duration":562500,"SoundDuration":562500,"Delta":66556158},{"NoteNumber":67,"Velocity":93,"Duration":599999,"SoundDuration":599999,"Delta":67156158},{"NoteNumber":55,"Velocity":69,"Duration":599999,"SoundDuration":599999,"Delta":67156158},{"NoteNumber":65,"Velocity":90,"Duration":551470,"SoundDuration":551470,"Delta":67756158},{"NoteNumber":53,"Velocity":68,"Duration":551470,"SoundDuration":551470,"Delta":67756158},{"NoteNumber":62,"Velocity":73,"Duration":599999,"SoundDuration":599999,"Delta":68344393},{"NoteNumber":70,"Velocity":87,"Duration":599999,"SoundDuration":599999,"Delta":68344393},{"NoteNumber":58,"Velocity":73,"Duration":599999,"SoundDuration":599999,"Delta":68344393},{"NoteNumber":43,"Velocity":56,"Duration":599999,"SoundDuration":599999,"Delta":68344393},{"NoteNumber":55,"Velocity":66,"Duration":599999,"SoundDuration":599999,"Delta":68344393},{"NoteNumber":72,"Velocity":85,"Duration":292682,"SoundDuration":292682,"Delta":68944393},{"NoteNumber":60,"Velocity":72,"Duration":601961,"SoundDuration":601961,"Delta":68944393},{"NoteNumber":69,"Velocity":72,"Duration":601961,"SoundDuration":601961,"Delta":68944393},{"NoteNumber":53,"Velocity":68,"Duration":601961,"SoundDuration":601961,"Delta":68944393},{"NoteNumber":41,"Velocity":57,"Duration":601961,"SoundDuration":601961,"Delta":68944393},{"NoteNumber":65,"Velocity":68,"Duration":309278,"SoundDuration":309278,"Delta":69237076},{"NoteNumber":77,"Velocity":80,"Duration":309278,"SoundDuration":309278,"Delta":69237076},{"NoteNumber":74,"Velocity":86,"Duration":609137,"SoundDuration":609137,"Delta":69546354},{"NoteNumber":62,"Velocity":73,"Duration":609137,"SoundDuration":609137,"Delta":69546354},{"NoteNumber":70,"Velocity":73,"Duration":609137,"SoundDuration":609137,"Delta":69546354},{"NoteNumber":43,"Velocity":52,"Duration":609137,"SoundDuration":609137,"Delta":69546354},{"NoteNumber":55,"Velocity":62,"Duration":609137,"SoundDuration":609137,"Delta":69546354},{"NoteNumber":60,"Velocity":72,"Duration":599999,"SoundDuration":599999,"Delta":70155491},{"NoteNumber":69,"Velocity":72,"Duration":599999,"SoundDuration":599999,"Delta":70155491},{"NoteNumber":72,"Velocity":85,"Duration":299999,"SoundDuration":299999,"Delta":70155491},{"NoteNumber":57,"Velocity":68,"Duration":599999,"SoundDuration":599999,"Delta":70155491},{"NoteNumber":45,"Velocity":57,"Duration":599999,"SoundDuration":599999,"Delta":70155491},{"NoteNumber":65,"Velocity":66,"Duration":299999,"SoundDuration":299999,"Delta":70455491},{"NoteNumber":77,"Velocity":78,"Duration":299999,"SoundDuration":299999,"Delta":70455491},{"NoteNumber":74,"Velocity":85,"Duration":571065,"SoundDuration":571065,"Delta":70755491},{"NoteNumber":62,"Velocity":72,"Duration":571065,"SoundDuration":571065,"Delta":70755491},{"NoteNumber":70,"Velocity":72,"Duration":571065,"SoundDuration":571065,"Delta":70755491},{"NoteNumber":58,"Velocity":62,"Duration":571065,"SoundDuration":571065,"Delta":70755491},{"NoteNumber":46,"Velocity":52,"Duration":571065,"SoundDuration":571065,"Delta":70755491},{"NoteNumber":62,"Velocity":72,"Duration":609136,"SoundDuration":609136,"Delta":71364628},{"NoteNumber":58,"Velocity":72,"Duration":609136,"SoundDuration":609136,"Delta":71364628},{"NoteNumber":70,"Velocity":85,"Duration":609136,"SoundDuration":609136,"Delta":71364628},{"NoteNumber":55,"Velocity":62,"Duration":609136,"SoundDuration":609136,"Delta":71364628},{"NoteNumber":43,"Velocity":52,"Duration":609136,"SoundDuration":609136,"Delta":71364628},{"NoteNumber":67,"Velocity":71,"Duration":609137,"SoundDuration":609137,"Delta":71973765},{"NoteNumber":60,"Velocity":71,"Duration":609137,"SoundDuration":609137,"Delta":71973765},{"NoteNumber":72,"Velocity":84,"Duration":609137,"SoundDuration":609137,"Delta":71973765},{"NoteNumber":51,"Velocity":64,"Duration":609137,"SoundDuration":609137,"Delta":71973765},{"NoteNumber":39,"Velocity":54,"Duration":609137,"SoundDuration":609137,"Delta":71973765},{"NoteNumber":55,"Velocity":66,"Duration":609137,"SoundDuration":609137,"Delta":72582902},{"NoteNumber":60,"Velocity":66,"Duration":609137,"SoundDuration":609137,"Delta":72582902},{"NoteNumber":67,"Velocity":78,"Duration":609137,"SoundDuration":609137,"Delta":72582902},{"NoteNumber":40,"Velocity":49,"Duration":609137,"SoundDuration":609137,"Delta":72582902},{"NoteNumber":52,"Velocity":58,"Duration":609137,"SoundDuration":609137,"Delta":72582902},{"NoteNumber":65,"Velocity":74,"Duration":582901,"SoundDuration":582901,"Delta":73192039},{"NoteNumber":57,"Velocity":62,"Duration":582901,"SoundDuration":582901,"Delta":73192039},{"NoteNumber":60,"Velocity":62,"Duration":582901,"SoundDuration":582901,"Delta":73192039},{"NoteNumber":53,"Velocity":57,"Duration":582901,"SoundDuration":582901,"Delta":73192039},{"NoteNumber":41,"Velocity":48,"Duration":582901,"SoundDuration":582901,"Delta":73192039},{"NoteNumber":58,"Velocity":78,"Duration":609137,"SoundDuration":609137,"Delta":73813801},{"NoteNumber":62,"Velocity":78,"Duration":609137,"SoundDuration":609137,"Delta":73813801},{"NoteNumber":67,"Velocity":92,"Duration":609137,"SoundDuration":609137,"Delta":73813801},{"NoteNumber":34,"Velocity":58,"Duration":609137,"SoundDuration":609137,"Delta":73813801},{"NoteNumber":46,"Velocity":69,"Duration":609137,"SoundDuration":609137,"Delta":73813801},{"NoteNumber":57,"Velocity":77,"Duration":609136,"SoundDuration":609136,"Delta":74422938},{"NoteNumber":60,"Velocity":77,"Duration":609136,"SoundDuration":609136,"Delta":74422938},{"NoteNumber":65,"Velocity":91,"Duration":609136,"SoundDuration":609136,"Delta":74422938},{"NoteNumber":33,"Velocity":56,"Duration":609136,"SoundDuration":609136,"Delta":74422938},{"NoteNumber":45,"Velocity":66,"Duration":609136,"SoundDuration":609136,"Delta":74422938},{"NoteNumber":65,"Velocity":77,"Duration":609137,"SoundDuration":609137,"Delta":75032075},{"NoteNumber":70,"Velocity":91,"Duration":609137,"SoundDuration":609137,"Delta":75032075},{"NoteNumber":62,"Velocity":77,"Duration":609137,"SoundDuration":609137,"Delta":75032075},{"NoteNumber":58,"Velocity":77,"Duration":609137,"SoundDuration":609137,"Delta":75032075},{"NoteNumber":43,"Velocity":67,"Duration":609137,"SoundDuration":609137,"Delta":75032075},{"NoteNumber":31,"Velocity":56,"Duration":609137,"SoundDuration":609137,"Delta":75032075},{"NoteNumber":69,"Velocity":72,"Duration":621762,"SoundDuration":621762,"Delta":75641212},{"NoteNumber":65,"Velocity":72,"Duration":310880,"SoundDuration":310880,"Delta":75641212},{"NoteNumber":60,"Velocity":72,"Duration":621762,"SoundDuration":621762,"Delta":75641212},{"NoteNumber":72,"Velocity":85,"Duration":310880,"SoundDuration":310880,"Delta":75641212},{"NoteNumber":41,"Velocity":68,"Duration":621762,"SoundDuration":621762,"Delta":75641212},{"NoteNumber":29,"Velocity":57,"Duration":621762,"SoundDuration":621762,"Delta":75641212},{"NoteNumber":77,"Velocity":78,"Duration":310881,"SoundDuration":310881,"Delta":75952093},{"NoteNumber":65,"Velocity":66,"Duration":310881,"SoundDuration":310881,"Delta":75952093},{"NoteNumber":70,"Velocity":72,"Duration":571065,"SoundDuration":571065,"Delta":76262974},{"NoteNumber":62,"Velocity":72,"Duration":571065,"SoundDuration":571065,"Delta":76262974},{"NoteNumber":65,"Velocity":72,"Duration":571065,"SoundDuration":571065,"Delta":76262974},{"NoteNumber":74,"Velocity":85,"Duration":571065,"SoundDuration":571065,"Delta":76262974},{"NoteNumber":34,"Velocity":54,"Duration":571065,"SoundDuration":571065,"Delta":76262974},{"NoteNumber":46,"Velocity":64,"Duration":571065,"SoundDuration":571065,"Delta":76262974},{"NoteNumber":65,"Velocity":72,"Duration":310880,"SoundDuration":310880,"Delta":76872111},{"NoteNumber":69,"Velocity":72,"Duration":621762,"SoundDuration":621762,"Delta":76872111},{"NoteNumber":60,"Velocity":72,"Duration":621762,"SoundDuration":621762,"Delta":76872111},{"NoteNumber":72,"Velocity":85,"Duration":310880,"SoundDuration":310880,"Delta":76872111},{"NoteNumber":45,"Velocity":68,"Duration":621762,"SoundDuration":621762,"Delta":76872111},{"NoteNumber":33,"Velocity":57,"Duration":621762,"SoundDuration":621762,"Delta":76872111},{"NoteNumber":77,"Velocity":78,"Duration":310881,"SoundDuration":310881,"Delta":77182992},{"NoteNumber":65,"Velocity":66,"Duration":310881,"SoundDuration":310881,"Delta":77182992},{"NoteNumber":74,"Velocity":85,"Duration":571065,"SoundDuration":571065,"Delta":77493873},{"NoteNumber":65,"Velocity":72,"Duration":571065,"SoundDuration":571065,"Delta":77493873},{"NoteNumber":70,"Velocity":72,"Duration":571065,"SoundDuration":571065,"Delta":77493873},{"NoteNumber":62,"Velocity":72,"Duration":571065,"SoundDuration":571065,"Delta":77493873},{"NoteNumber":34,"Velocity":54,"Duration":571065,"SoundDuration":571065,"Delta":77493873},{"NoteNumber":46,"Velocity":64,"Duration":571065,"SoundDuration":571065,"Delta":77493873},{"NoteNumber":70,"Velocity":88,"Duration":621762,"SoundDuration":621762,"Delta":78103010},{"NoteNumber":62,"Velocity":74,"Duration":621762,"SoundDuration":621762,"Delta":78103010},{"NoteNumber":67,"Velocity":74,"Duration":621762,"SoundDuration":621762,"Delta":78103010},{"NoteNumber":58,"Velocity":74,"Duration":621762,"SoundDuration":621762,"Delta":78103010},{"NoteNumber":55,"Velocity":60,"Duration":621762,"SoundDuration":621762,"Delta":78103010},{"NoteNumber":43,"Velocity":51,"Duration":621762,"SoundDuration":621762,"Delta":78103010},{"NoteNumber":67,"Velocity":79,"Duration":1276595,"SoundDuration":1276595,"Delta":78724772},{"NoteNumber":75,"Velocity":93,"Duration":1276595,"SoundDuration":1276595,"Delta":78724772},{"NoteNumber":72,"Velocity":79,"Duration":1276595,"SoundDuration":1276595,"Delta":78724772},{"NoteNumber":63,"Velocity":79,"Duration":1276595,"SoundDuration":1276595,"Delta":78724772},{"NoteNumber":48,"Velocity":67,"Duration":1276595,"SoundDuration":1276595,"Delta":78724772},{"NoteNumber":36,"Velocity":56,"Duration":1276595,"SoundDuration":1276595,"Delta":78724772},{"NoteNumber":60,"Velocity":75,"Duration":1325965,"SoundDuration":1325965,"Delta":80001368},{"NoteNumber":72,"Velocity":89,"Duration":1325965,"SoundDuration":1325965,"Delta":80001368},{"NoteNumber":65,"Velocity":75,"Duration":1325965,"SoundDuration":1325965,"Delta":80001368},{"NoteNumber":69,"Velocity":75,"Duration":1325965,"SoundDuration":1325965,"Delta":80001368},{"NoteNumber":53,"Velocity":61,"Duration":1325965,"SoundDuration":1325965,"Delta":80001368},{"NoteNumber":41,"Velocity":51,"Duration":1325965,"SoundDuration":1325965,"Delta":80001368},{"NoteNumber":65,"Velocity":76,"Duration":331491,"SoundDuration":331491,"Delta":81327334},{"NoteNumber":70,"Velocity":90,"Duration":3314914,"SoundDuration":3314914,"Delta":81327334},{"NoteNumber":62,"Velocity":76,"Duration":331491,"SoundDuration":331491,"Delta":81327334},{"NoteNumber":58,"Velocity":69,"Duration":331491,"SoundDuration":331491,"Delta":81327334},{"NoteNumber":46,"Velocity":58,"Duration":331491,"SoundDuration":331491,"Delta":81327334},{"NoteNumber":70,"Velocity":89,"Duration":130855,"SoundDuration":130855,"Delta":85499392},{"NoteNumber":63,"Velocity":69,"Duration":130855,"SoundDuration":130855,"Delta":85499392},{"NoteNumber":67,"Velocity":69,"Duration":130855,"SoundDuration":130855,"Delta":85499392},{"NoteNumber":69,"Velocity":77,"Duration":130855,"SoundDuration":130855,"Delta":85630248},{"NoteNumber":58,"Velocity":56,"Duration":130855,"SoundDuration":130855,"Delta":85630248},{"NoteNumber":70,"Velocity":80,"Duration":65427,"SoundDuration":65427,"Delta":85761104},{"NoteNumber":63,"Velocity":61,"Duration":65427,"SoundDuration":65427,"Delta":85761104},{"NoteNumber":67,"Velocity":61,"Duration":65427,"SoundDuration":65427,"Delta":85761104},{"NoteNumber":70,"Velocity":80,"Duration":67180,"SoundDuration":67180,"Delta":85891959},{"NoteNumber":63,"Velocity":61,"Duration":67180,"SoundDuration":67180,"Delta":85891959},{"NoteNumber":67,"Velocity":61,"Duration":67180,"SoundDuration":67180,"Delta":85891959},{"NoteNumber":70,"Velocity":85,"Duration":130855,"SoundDuration":130855,"Delta":86026320},{"NoteNumber":63,"Velocity":67,"Duration":130855,"SoundDuration":130855,"Delta":86026320},{"NoteNumber":67,"Velocity":67,"Duration":130855,"SoundDuration":130855,"Delta":86026320},{"NoteNumber":69,"Velocity":77,"Duration":130855,"SoundDuration":130855,"Delta":86157176},{"NoteNumber":58,"Velocity":55,"Duration":130855,"SoundDuration":130855,"Delta":86157176},{"NoteNumber":70,"Velocity":80,"Duration":65427,"SoundDuration":65427,"Delta":86288031},{"NoteNumber":63,"Velocity":61,"Duration":65427,"SoundDuration":65427,"Delta":86288031},{"NoteNumber":67,"Velocity":61,"Duration":65427,"SoundDuration":65427,"Delta":86288031},{"NoteNumber":70,"Velocity":80,"Duration":66892,"SoundDuration":66892,"Delta":86418887},{"NoteNumber":63,"Velocity":61,"Duration":66892,"SoundDuration":66892,"Delta":86418887},{"NoteNumber":67,"Velocity":61,"Duration":66892,"SoundDuration":66892,"Delta":86418887},{"NoteNumber":70,"Velocity":89,"Duration":130855,"SoundDuration":130855,"Delta":86552672},{"NoteNumber":63,"Velocity":69,"Duration":130855,"SoundDuration":130855,"Delta":86552672},{"NoteNumber":67,"Velocity":69,"Duration":130855,"SoundDuration":130855,"Delta":86552672},{"NoteNumber":69,"Velocity":75,"Duration":130855,"SoundDuration":130855,"Delta":86683528},{"NoteNumber":58,"Velocity":55,"Duration":130855,"SoundDuration":130855,"Delta":86683528},{"NoteNumber":70,"Velocity":78,"Duration":65427,"SoundDuration":65427,"Delta":86814384},{"NoteNumber":63,"Velocity":59,"Duration":65427,"SoundDuration":65427,"Delta":86814384},{"NoteNumber":67,"Velocity":59,"Duration":65427,"SoundDuration":65427,"Delta":86814384},{"NoteNumber":70,"Velocity":78,"Duration":66589,"SoundDuration":66589,"Delta":86945240},{"NoteNumber":63,"Velocity":58,"Duration":66589,"SoundDuration":66589,"Delta":86945240},{"NoteNumber":67,"Velocity":58,"Duration":66589,"SoundDuration":66589,"Delta":86945240},{"NoteNumber":70,"Velocity":81,"Duration":130855,"SoundDuration":130855,"Delta":87078419},{"NoteNumber":63,"Velocity":61,"Duration":130855,"SoundDuration":130855,"Delta":87078419},{"NoteNumber":67,"Velocity":61,"Duration":130855,"SoundDuration":130855,"Delta":87078419},{"NoteNumber":69,"Velocity":69,"Duration":130855,"SoundDuration":130855,"Delta":87209275},{"NoteNumber":58,"Velocity":49,"Duration":130855,"SoundDuration":130855,"Delta":87209275},{"NoteNumber":70,"Velocity":70,"Duration":65427,"SoundDuration":65427,"Delta":87340131},{"NoteNumber":63,"Velocity":55,"Duration":65427,"SoundDuration":65427,"Delta":87340131},{"NoteNumber":67,"Velocity":55,"Duration":65427,"SoundDuration":65427,"Delta":87340131},{"NoteNumber":70,"Velocity":72,"Duration":66892,"SoundDuration":66892,"Delta":87470986},{"NoteNumber":63,"Velocity":55,"Duration":66892,"SoundDuration":66892,"Delta":87470986},{"NoteNumber":67,"Velocity":55,"Duration":66892,"SoundDuration":66892,"Delta":87470986},{"NoteNumber":70,"Velocity":85,"Duration":65427,"SoundDuration":65427,"Delta":87604772},{"NoteNumber":63,"Velocity":56,"Duration":65427,"SoundDuration":65427,"Delta":87604772},{"NoteNumber":67,"Velocity":56,"Duration":65427,"SoundDuration":65427,"Delta":87604772},{"NoteNumber":69,"Velocity":74,"Duration":65427,"SoundDuration":65427,"Delta":87735627},{"NoteNumber":63,"Velocity":52,"Duration":65427,"SoundDuration":65427,"Delta":87735627},{"NoteNumber":67,"Velocity":52,"Duration":65427,"SoundDuration":65427,"Delta":87735627},{"NoteNumber":72,"Velocity":76,"Duration":65427,"SoundDuration":65427,"Delta":87866483},{"NoteNumber":63,"Velocity":56,"Duration":65427,"SoundDuration":65427,"Delta":87866483},{"NoteNumber":67,"Velocity":56,"Duration":65427,"SoundDuration":65427,"Delta":87866483},{"NoteNumber":70,"Velocity":70,"Duration":65427,"SoundDuration":65427,"Delta":87997339},{"NoteNumber":63,"Velocity":50,"Duration":65427,"SoundDuration":65427,"Delta":87997339},{"NoteNumber":67,"Velocity":50,"Duration":65427,"SoundDuration":65427,"Delta":87997339},{"NoteNumber":75,"Velocity":80,"Duration":65427,"SoundDuration":65427,"Delta":88128195},{"NoteNumber":63,"Velocity":56,"Duration":65427,"SoundDuration":65427,"Delta":88128195},{"NoteNumber":67,"Velocity":56,"Duration":65427,"SoundDuration":65427,"Delta":88128195},{"NoteNumber":74,"Velocity":74,"Duration":65427,"SoundDuration":65427,"Delta":88259050},{"NoteNumber":63,"Velocity":52,"Duration":65427,"SoundDuration":65427,"Delta":88259050},{"NoteNumber":67,"Velocity":52,"Duration":65427,"SoundDuration":65427,"Delta":88259050},{"NoteNumber":77,"Velocity":76,"Duration":65427,"SoundDuration":65427,"Delta":88389906},{"NoteNumber":63,"Velocity":56,"Duration":65427,"SoundDuration":65427,"Delta":88389906},{"NoteNumber":67,"Velocity":56,"Duration":65427,"SoundDuration":65427,"Delta":88389906},{"NoteNumber":75,"Velocity":72,"Duration":65427,"SoundDuration":65427,"Delta":88520762},{"NoteNumber":63,"Velocity":50,"Duration":65427,"SoundDuration":65427,"Delta":88520762},{"NoteNumber":67,"Velocity":50,"Duration":65427,"SoundDuration":65427,"Delta":88520762},{"NoteNumber":78,"Velocity":78,"Duration":65427,"SoundDuration":65427,"Delta":88651618},{"NoteNumber":70,"Velocity":56,"Duration":65427,"SoundDuration":65427,"Delta":88651618},{"NoteNumber":67,"Velocity":56,"Duration":65427,"SoundDuration":65427,"Delta":88651618},{"NoteNumber":79,"Velocity":75,"Duration":64311,"SoundDuration":64311,"Delta":88782473},{"NoteNumber":70,"Velocity":50,"Duration":64311,"SoundDuration":64311,"Delta":88782473},{"NoteNumber":67,"Velocity":50,"Duration":64311,"SoundDuration":64311,"Delta":88782473},{"NoteNumber":84,"Velocity":86,"Duration":132018,"SoundDuration":132018,"Delta":88911096},{"NoteNumber":70,"Velocity":59,"Duration":66009,"SoundDuration":66009,"Delta":88911096},{"NoteNumber":67,"Velocity":59,"Duration":66009,"SoundDuration":66009,"Delta":88911096},{"NoteNumber":82,"Velocity":77,"Duration":131428,"SoundDuration":131428,"Delta":89043115},{"NoteNumber":70,"Velocity":51,"Duration":65714,"SoundDuration":65714,"Delta":89043115},{"NoteNumber":67,"Velocity":51,"Duration":65714,"SoundDuration":65714,"Delta":89043115},{"NoteNumber":80,"Velocity":81,"Duration":130855,"SoundDuration":130855,"Delta":89174544},{"NoteNumber":70,"Velocity":58,"Duration":65427,"SoundDuration":65427,"Delta":89174544},{"NoteNumber":67,"Velocity":58,"Duration":65427,"SoundDuration":65427,"Delta":89174544},{"NoteNumber":79,"Velocity":74,"Duration":130855,"SoundDuration":130855,"Delta":89305400},{"NoteNumber":67,"Velocity":53,"Duration":65427,"SoundDuration":65427,"Delta":89305400},{"NoteNumber":70,"Velocity":53,"Duration":65427,"SoundDuration":65427,"Delta":89305400},{"NoteNumber":77,"Velocity":78,"Duration":130855,"SoundDuration":130855,"Delta":89436256},{"NoteNumber":70,"Velocity":56,"Duration":65427,"SoundDuration":65427,"Delta":89436256},{"NoteNumber":67,"Velocity":56,"Duration":65427,"SoundDuration":65427,"Delta":89436256},{"NoteNumber":75,"Velocity":73,"Duration":130855,"SoundDuration":130855,"Delta":89567112},{"NoteNumber":70,"Velocity":51,"Duration":65427,"SoundDuration":65427,"Delta":89567112},{"NoteNumber":67,"Velocity":51,"Duration":65427,"SoundDuration":65427,"Delta":89567112},{"NoteNumber":83,"Velocity":73,"Duration":64588,"SoundDuration":64588,"Delta":89697967},{"NoteNumber":68,"Velocity":54,"Duration":96882,"SoundDuration":96882,"Delta":89697967},{"NoteNumber":71,"Velocity":54,"Duration":96882,"SoundDuration":96882,"Delta":89697967},{"NoteNumber":77,"Velocity":69,"Duration":66589,"SoundDuration":66589,"Delta":89827144},{"NoteNumber":68,"Velocity":48,"Duration":99884,"SoundDuration":99884,"Delta":89827144},{"NoteNumber":71,"Velocity":48,"Duration":99884,"SoundDuration":99884,"Delta":89827144},{"NoteNumber":82,"Velocity":100,"Duration":130855,"SoundDuration":130855,"Delta":89960324},{"NoteNumber":71,"Velocity":54,"Duration":98141,"SoundDuration":98141,"Delta":89960324},{"NoteNumber":75,"Velocity":54,"Duration":98141,"SoundDuration":98141,"Delta":89960324},{"NoteNumber":80,"Velocity":78,"Duration":130855,"SoundDuration":130855,"Delta":90091179},{"NoteNumber":71,"Velocity":49,"Duration":98141,"SoundDuration":98141,"Delta":90091179},{"NoteNumber":75,"Velocity":49,"Duration":98141,"SoundDuration":98141,"Delta":90091179},{"NoteNumber":83,"Velocity":74,"Duration":64867,"SoundDuration":64867,"Delta":90222035},{"NoteNumber":68,"Velocity":55,"Duration":97301,"SoundDuration":97301,"Delta":90222035},{"NoteNumber":71,"Velocity":55,"Duration":97301,"SoundDuration":97301,"Delta":90222035},{"NoteNumber":77,"Velocity":69,"Duration":64867,"SoundDuration":64867,"Delta":90351770},{"NoteNumber":68,"Velocity":51,"Duration":97301,"SoundDuration":97301,"Delta":90351770},{"NoteNumber":71,"Velocity":51,"Duration":97301,"SoundDuration":97301,"Delta":90351770},{"NoteNumber":82,"Velocity":100,"Duration":130855,"SoundDuration":130855,"Delta":90481506},{"NoteNumber":71,"Velocity":54,"Duration":98141,"SoundDuration":98141,"Delta":90481506},{"NoteNumber":75,"Velocity":54,"Duration":98141,"SoundDuration":98141,"Delta":90481506},{"NoteNumber":80,"Velocity":76,"Duration":133179,"SoundDuration":133179,"Delta":90612361},{"NoteNumber":71,"Velocity":51,"Duration":99884,"SoundDuration":99884,"Delta":90612361},{"NoteNumber":75,"Velocity":51,"Duration":99884,"SoundDuration":99884,"Delta":90612361},{"NoteNumber":83,"Velocity":96,"Duration":64588,"SoundDuration":64588,"Delta":90745541},{"NoteNumber":68,"Velocity":54,"Duration":96882,"SoundDuration":96882,"Delta":90745541},{"NoteNumber":74,"Velocity":54,"Duration":96882,"SoundDuration":96882,"Delta":90745541},{"NoteNumber":77,"Velocity":73,"Duration":66892,"SoundDuration":66892,"Delta":90874718},{"NoteNumber":68,"Velocity":39,"Duration":100338,"SoundDuration":100338,"Delta":90874718},{"NoteNumber":74,"Velocity":39,"Duration":100338,"SoundDuration":100338,"Delta":90874718},{"NoteNumber":82,"Velocity":93,"Duration":64867,"SoundDuration":64867,"Delta":91008503},{"NoteNumber":68,"Velocity":51,"Duration":97301,"SoundDuration":97301,"Delta":91008503},{"NoteNumber":74,"Velocity":51,"Duration":97301,"SoundDuration":97301,"Delta":91008503},{"NoteNumber":77,"Velocity":71,"Duration":66892,"SoundDuration":66892,"Delta":91138238},{"NoteNumber":68,"Velocity":39,"Duration":100338,"SoundDuration":100338,"Delta":91138238},{"NoteNumber":74,"Velocity":39,"Duration":100338,"SoundDuration":100338,"Delta":91138238},{"NoteNumber":81,"Velocity":87,"Duration":65149,"SoundDuration":65149,"Delta":91272023},{"NoteNumber":65,"Velocity":49,"Duration":97724,"SoundDuration":97724,"Delta":91272023},{"NoteNumber":70,"Velocity":49,"Duration":97724,"SoundDuration":97724,"Delta":91272023},{"NoteNumber":74,"Velocity":69,"Duration":66589,"SoundDuration":66589,"Delta":91402322},{"NoteNumber":65,"Velocity":37,"Duration":99884,"SoundDuration":99884,"Delta":91402322},{"NoteNumber":70,"Velocity":37,"Duration":99884,"SoundDuration":99884,"Delta":91402322},{"NoteNumber":80,"Velocity":84,"Duration":65427,"SoundDuration":65427,"Delta":91535502},{"NoteNumber":65,"Velocity":46,"Duration":98141,"SoundDuration":98141,"Delta":91535502},{"NoteNumber":70,"Velocity":46,"Duration":98141,"SoundDuration":98141,"Delta":91535502},{"NoteNumber":74,"Velocity":68,"Duration":66892,"SoundDuration":66892,"Delta":91666357},{"NoteNumber":65,"Velocity":35,"Duration":100338,"SoundDuration":100338,"Delta":91666357},{"NoteNumber":70,"Velocity":35,"Duration":100338,"SoundDuration":100338,"Delta":91666357},{"NoteNumber":70,"Velocity":81,"Duration":65427,"SoundDuration":65427,"Delta":91800143},{"NoteNumber":63,"Velocity":56,"Duration":65427,"SoundDuration":65427,"Delta":91800143},{"NoteNumber":67,"Velocity":56,"Duration":65427,"SoundDuration":65427,"Delta":91800143},{"NoteNumber":69,"Velocity":74,"Duration":65427,"SoundDuration":65427,"Delta":91930998},{"NoteNumber":63,"Velocity":52,"Duration":65427,"SoundDuration":65427,"Delta":91930998},{"NoteNumber":67,"Velocity":52,"Duration":65427,"SoundDuration":65427,"Delta":91930998},{"NoteNumber":72,"Velocity":76,"Duration":65427,"SoundDuration":65427,"Delta":92061854},{"NoteNumber":63,"Velocity":56,"Duration":65427,"SoundDuration":65427,"Delta":92061854},{"NoteNumber":67,"Velocity":56,"Duration":65427,"SoundDuration":65427,"Delta":92061854},{"NoteNumber":70,"Velocity":70,"Duration":65427,"SoundDuration":65427,"Delta":92192710},{"NoteNumber":63,"Velocity":50,"Duration":65427,"SoundDuration":65427,"Delta":92192710},{"NoteNumber":67,"Velocity":50,"Duration":65427,"SoundDuration":65427,"Delta":92192710},{"NoteNumber":75,"Velocity":80,"Duration":65427,"SoundDuration":65427,"Delta":92323566},{"NoteNumber":63,"Velocity":56,"Duration":65427,"SoundDuration":65427,"Delta":92323566},{"NoteNumber":67,"Velocity":56,"Duration":65427,"SoundDuration":65427,"Delta":92323566},{"NoteNumber":74,"Velocity":74,"Duration":65427,"SoundDuration":65427,"Delta":92454421},{"NoteNumber":63,"Velocity":52,"Duration":65427,"SoundDuration":65427,"Delta":92454421},{"NoteNumber":67,"Velocity":52,"Duration":65427,"SoundDuration":65427,"Delta":92454421},{"NoteNumber":77,"Velocity":76,"Duration":65427,"SoundDuration":65427,"Delta":92585277},{"NoteNumber":63,"Velocity":56,"Duration":65427,"SoundDuration":65427,"Delta":92585277},{"NoteNumber":67,"Velocity":56,"Duration":65427,"SoundDuration":65427,"Delta":92585277},{"NoteNumber":75,"Velocity":72,"Duration":65427,"SoundDuration":65427,"Delta":92716133},{"NoteNumber":63,"Velocity":50,"Duration":65427,"SoundDuration":65427,"Delta":92716133},{"NoteNumber":67,"Velocity":50,"Duration":65427,"SoundDuration":65427,"Delta":92716133},{"NoteNumber":78,"Velocity":78,"Duration":65427,"SoundDuration":65427,"Delta":92846989},{"NoteNumber":70,"Velocity":56,"Duration":65427,"SoundDuration":65427,"Delta":92846989},{"NoteNumber":67,"Velocity":56,"Duration":65427,"SoundDuration":65427,"Delta":92846989},{"NoteNumber":79,"Velocity":75,"Duration":64311,"SoundDuration":64311,"Delta":92977844},{"NoteNumber":70,"Velocity":50,"Duration":64311,"SoundDuration":64311,"Delta":92977844},{"NoteNumber":67,"Velocity":50,"Duration":64311,"SoundDuration":64311,"Delta":92977844},{"NoteNumber":84,"Velocity":92,"Duration":129870,"SoundDuration":129870,"Delta":93106467},{"NoteNumber":70,"Velocity":59,"Duration":64935,"SoundDuration":64935,"Delta":93106467},{"NoteNumber":67,"Velocity":59,"Duration":64935,"SoundDuration":64935,"Delta":93106467},{"NoteNumber":82,"Velocity":77,"Duration":131428,"SoundDuration":131428,"Delta":93236338},{"NoteNumber":70,"Velocity":51,"Duration":65714,"SoundDuration":65714,"Delta":93236338},{"NoteNumber":67,"Velocity":51,"Duration":65714,"SoundDuration":65714,"Delta":93236338},{"NoteNumber":80,"Velocity":81,"Duration":130855,"SoundDuration":130855,"Delta":93367767},{"NoteNumber":70,"Velocity":58,"Duration":65427,"SoundDuration":65427,"Delta":93367767},{"NoteNumber":67,"Velocity":58,"Duration":65427,"SoundDuration":65427,"Delta":93367767},{"NoteNumber":79,"Velocity":74,"Duration":130855,"SoundDuration":130855,"Delta":93498622},{"NoteNumber":70,"Velocity":53,"Duration":65427,"SoundDuration":65427,"Delta":93498622},{"NoteNumber":67,"Velocity":53,"Duration":65427,"SoundDuration":65427,"Delta":93498622},{"NoteNumber":77,"Velocity":78,"Duration":130855,"SoundDuration":130855,"Delta":93629478},{"NoteNumber":70,"Velocity":56,"Duration":65427,"SoundDuration":65427,"Delta":93629478},{"NoteNumber":67,"Velocity":56,"Duration":65427,"SoundDuration":65427,"Delta":93629478},{"NoteNumber":75,"Velocity":73,"Duration":134964,"SoundDuration":134964,"Delta":93760334},{"NoteNumber":70,"Velocity":51,"Duration":67482,"SoundDuration":67482,"Delta":93760334},{"NoteNumber":67,"Velocity":51,"Duration":67482,"SoundDuration":67482,"Delta":93760334},{"NoteNumber":90,"Velocity":87,"Duration":65427,"SoundDuration":65427,"Delta":93895299},{"NoteNumber":71,"Velocity":57,"Duration":98141,"SoundDuration":98141,"Delta":93895299},{"NoteNumber":75,"Velocity":57,"Duration":98141,"SoundDuration":98141,"Delta":93895299},{"NoteNumber":78,"Velocity":57,"Duration":523422,"SoundDuration":523422,"Delta":93895299},{"NoteNumber":87,"Velocity":69,"Duration":65427,"SoundDuration":65427,"Delta":94026155},{"NoteNumber":71,"Velocity":51,"Duration":98141,"SoundDuration":98141,"Delta":94026155},{"NoteNumber":75,"Velocity":51,"Duration":98141,"SoundDuration":98141,"Delta":94026155},{"NoteNumber":85,"Velocity":73,"Duration":65427,"SoundDuration":65427,"Delta":94157010},{"NoteNumber":71,"Velocity":53,"Duration":98141,"SoundDuration":98141,"Delta":94157010},{"NoteNumber":75,"Velocity":53,"Duration":98141,"SoundDuration":98141,"Delta":94157010},{"NoteNumber":83,"Velocity":69,"Duration":65427,"SoundDuration":65427,"Delta":94287866},{"NoteNumber":71,"Velocity":47,"Duration":98141,"SoundDuration":98141,"Delta":94287866},{"NoteNumber":75,"Velocity":47,"Duration":98141,"SoundDuration":98141,"Delta":94287866},{"NoteNumber":82,"Velocity":88,"Duration":130855,"SoundDuration":130855,"Delta":94418722},{"NoteNumber":68,"Velocity":53,"Duration":98141,"SoundDuration":98141,"Delta":94418722},{"NoteNumber":71,"Velocity":53,"Duration":98141,"SoundDuration":98141,"Delta":94418722},{"NoteNumber":76,"Velocity":53,"Duration":526927,"SoundDuration":526927,"Delta":94418722},{"NoteNumber":85,"Velocity":70,"Duration":134360,"SoundDuration":134360,"Delta":94549578},{"NoteNumber":68,"Velocity":47,"Duration":100770,"SoundDuration":100770,"Delta":94549578},{"NoteNumber":71,"Velocity":47,"Duration":100770,"SoundDuration":100770,"Delta":94549578},{"NoteNumber":83,"Velocity":80,"Duration":130855,"SoundDuration":130855,"Delta":94683938},{"NoteNumber":68,"Velocity":55,"Duration":98141,"SoundDuration":98141,"Delta":94683938},{"NoteNumber":71,"Velocity":55,"Duration":98141,"SoundDuration":98141,"Delta":94683938},{"NoteNumber":80,"Velocity":74,"Duration":130855,"SoundDuration":130855,"Delta":94814794},{"NoteNumber":68,"Velocity":48,"Duration":98141,"SoundDuration":98141,"Delta":94814794},{"NoteNumber":71,"Velocity":48,"Duration":98141,"SoundDuration":98141,"Delta":94814794},{"NoteNumber":78,"Velocity":77,"Duration":65427,"SoundDuration":65427,"Delta":94945650},{"NoteNumber":63,"Velocity":52,"Duration":98141,"SoundDuration":98141,"Delta":94945650},{"NoteNumber":66,"Velocity":52,"Duration":98141,"SoundDuration":98141,"Delta":94945650},{"NoteNumber":71,"Velocity":52,"Duration":531036,"SoundDuration":531036,"Delta":94945650},{"NoteNumber":75,"Velocity":71,"Duration":67482,"SoundDuration":67482,"Delta":95076505},{"NoteNumber":63,"Velocity":46,"Duration":101223,"SoundDuration":101223,"Delta":95076505},{"NoteNumber":66,"Velocity":46,"Duration":101223,"SoundDuration":101223,"Delta":95076505},{"NoteNumber":73,"Velocity":95,"Duration":65427,"SoundDuration":65427,"Delta":95211470},{"NoteNumber":63,"Velocity":54,"Duration":98141,"SoundDuration":98141,"Delta":95211470},{"NoteNumber":66,"Velocity":54,"Duration":98141,"SoundDuration":98141,"Delta":95211470},{"NoteNumber":71,"Velocity":76,"Duration":67180,"SoundDuration":67180,"Delta":95342326},{"NoteNumber":63,"Velocity":47,"Duration":100770,"SoundDuration":100770,"Delta":95342326},{"NoteNumber":66,"Velocity":47,"Duration":100770,"SoundDuration":100770,"Delta":95342326},{"NoteNumber":70,"Velocity":90,"Duration":130855,"SoundDuration":130855,"Delta":95476687},{"NoteNumber":59,"Velocity":55,"Duration":98141,"SoundDuration":98141,"Delta":95476687},{"NoteNumber":64,"Velocity":55,"Duration":98141,"SoundDuration":98141,"Delta":95476687},{"NoteNumber":68,"Velocity":55,"Duration":527532,"SoundDuration":527532,"Delta":95476687},{"NoteNumber":73,"Velocity":71,"Duration":130855,"SoundDuration":130855,"Delta":95607542},{"NoteNumber":59,"Velocity":47,"Duration":98141,"SoundDuration":98141,"Delta":95607542},{"NoteNumber":64,"Velocity":47,"Duration":98141,"SoundDuration":98141,"Delta":95607542},{"NoteNumber":71,"Velocity":74,"Duration":130855,"SoundDuration":130855,"Delta":95738398},{"NoteNumber":59,"Velocity":51,"Duration":98141,"SoundDuration":98141,"Delta":95738398},{"NoteNumber":64,"Velocity":51,"Duration":98141,"SoundDuration":98141,"Delta":95738398},{"NoteNumber":68,"Velocity":68,"Duration":134964,"SoundDuration":134964,"Delta":95869254},{"NoteNumber":59,"Velocity":48,"Duration":101223,"SoundDuration":101223,"Delta":95869254},{"NoteNumber":64,"Velocity":48,"Duration":101223,"SoundDuration":101223,"Delta":95869254},{"NoteNumber":65,"Velocity":62,"Duration":103388,"SoundDuration":103388,"Delta":96004219},{"NoteNumber":68,"Velocity":62,"Duration":103388,"SoundDuration":103388,"Delta":96004219},{"NoteNumber":70,"Velocity":62,"Duration":542684,"SoundDuration":542684,"Delta":96004219},{"NoteNumber":58,"Velocity":42,"Duration":137748,"SoundDuration":137748,"Delta":96004219},{"NoteNumber":65,"Velocity":66,"Duration":102340,"SoundDuration":102340,"Delta":96141967},{"NoteNumber":68,"Velocity":66,"Duration":102340,"SoundDuration":102340,"Delta":96141967},{"NoteNumber":60,"Velocity":44,"Duration":136286,"SoundDuration":136286,"Delta":96141967},{"NoteNumber":65,"Velocity":69,"Duration":101380,"SoundDuration":101380,"Delta":96278253},{"NoteNumber":68,"Velocity":69,"Duration":101380,"SoundDuration":101380,"Delta":96278253},{"NoteNumber":61,"Velocity":46,"Duration":134970,"SoundDuration":134970,"Delta":96278253},{"NoteNumber":65,"Velocity":73,"Duration":100384,"SoundDuration":100384,"Delta":96413224},{"NoteNumber":68,"Velocity":73,"Duration":100384,"SoundDuration":100384,"Delta":96413224},{"NoteNumber":62,"Velocity":48,"Duration":133679,"SoundDuration":133679,"Delta":96413224},{"NoteNumber":69,"Velocity":89,"Duration":530362,"SoundDuration":530362,"Delta":96546903},{"NoteNumber":63,"Velocity":55,"Duration":99443,"SoundDuration":99443,"Delta":96546903},{"NoteNumber":66,"Velocity":55,"Duration":99443,"SoundDuration":99443,"Delta":96546903},{"NoteNumber":78,"Velocity":68,"Duration":132590,"SoundDuration":132590,"Delta":96679494},{"NoteNumber":63,"Velocity":50,"Duration":99443,"SoundDuration":99443,"Delta":96679494},{"NoteNumber":66,"Velocity":50,"Duration":99443,"SoundDuration":99443,"Delta":96679494},{"NoteNumber":77,"Velocity":68,"Duration":132590,"SoundDuration":132590,"Delta":96812085},{"NoteNumber":63,"Velocity":50,"Duration":99443,"SoundDuration":99443,"Delta":96812085},{"NoteNumber":66,"Velocity":50,"Duration":99443,"SoundDuration":99443,"Delta":96812085},{"NoteNumber":75,"Velocity":68,"Duration":132590,"SoundDuration":132590,"Delta":96944676},{"NoteNumber":63,"Velocity":50,"Duration":99443,"SoundDuration":99443,"Delta":96944676},{"NoteNumber":66,"Velocity":50,"Duration":99443,"SoundDuration":99443,"Delta":96944676},{"NoteNumber":65,"Velocity":62,"Duration":103388,"SoundDuration":103388,"Delta":97077266},{"NoteNumber":68,"Velocity":62,"Duration":103388,"SoundDuration":103388,"Delta":97077266},{"NoteNumber":70,"Velocity":62,"Duration":542684,"SoundDuration":542684,"Delta":97077266},{"NoteNumber":58,"Velocity":40,"Duration":137748,"SoundDuration":137748,"Delta":97077266},{"NoteNumber":65,"Velocity":65,"Duration":102340,"SoundDuration":102340,"Delta":97215015},{"NoteNumber":68,"Velocity":65,"Duration":102340,"SoundDuration":102340,"Delta":97215015},{"NoteNumber":60,"Velocity":42,"Duration":136286,"SoundDuration":136286,"Delta":97215015},{"NoteNumber":65,"Velocity":68,"Duration":101380,"SoundDuration":101380,"Delta":97351301},{"NoteNumber":68,"Velocity":68,"Duration":101380,"SoundDuration":101380,"Delta":97351301},{"NoteNumber":61,"Velocity":44,"Duration":134970,"SoundDuration":134970,"Delta":97351301},{"NoteNumber":65,"Velocity":63,"Duration":100384,"SoundDuration":100384,"Delta":97486272},{"NoteNumber":68,"Velocity":63,"Duration":100384,"SoundDuration":100384,"Delta":97486272},{"NoteNumber":62,"Velocity":46,"Duration":133679,"SoundDuration":133679,"Delta":97486272},{"NoteNumber":69,"Velocity":91,"Duration":530362,"SoundDuration":530362,"Delta":97619951},{"NoteNumber":63,"Velocity":55,"Duration":99443,"SoundDuration":99443,"Delta":97619951},{"NoteNumber":66,"Velocity":55,"Duration":99443,"SoundDuration":99443,"Delta":97619951},{"NoteNumber":78,"Velocity":70,"Duration":132590,"SoundDuration":132590,"Delta":97752542},{"NoteNumber":63,"Velocity":48,"Duration":99443,"SoundDuration":99443,"Delta":97752542},{"NoteNumber":66,"Velocity":48,"Duration":99443,"SoundDuration":99443,"Delta":97752542},{"NoteNumber":77,"Velocity":68,"Duration":132590,"SoundDuration":132590,"Delta":97885133},{"NoteNumber":63,"Velocity":48,"Duration":99443,"SoundDuration":99443,"Delta":97885133},{"NoteNumber":66,"Velocity":48,"Duration":99443,"SoundDuration":99443,"Delta":97885133},{"NoteNumber":75,"Velocity":68,"Duration":132590,"SoundDuration":132590,"Delta":98017723},{"NoteNumber":63,"Velocity":49,"Duration":99443,"SoundDuration":99443,"Delta":98017723},{"NoteNumber":66,"Velocity":49,"Duration":99443,"SoundDuration":99443,"Delta":98017723},{"NoteNumber":68,"Velocity":65,"Duration":103388,"SoundDuration":103388,"Delta":98150314},{"NoteNumber":71,"Velocity":65,"Duration":103388,"SoundDuration":103388,"Delta":98150314},{"NoteNumber":73,"Velocity":65,"Duration":542684,"SoundDuration":542684,"Delta":98150314},{"NoteNumber":61,"Velocity":42,"Duration":137748,"SoundDuration":137748,"Delta":98150314},{"NoteNumber":68,"Velocity":68,"Duration":102340,"SoundDuration":102340,"Delta":98288062},{"NoteNumber":71,"Velocity":68,"Duration":102340,"SoundDuration":102340,"Delta":98288062},{"NoteNumber":63,"Velocity":44,"Duration":136286,"SoundDuration":136286,"Delta":98288062},{"NoteNumber":68,"Velocity":70,"Duration":101380,"SoundDuration":101380,"Delta":98424349},{"NoteNumber":71,"Velocity":70,"Duration":101380,"SoundDuration":101380,"Delta":98424349},{"NoteNumber":64,"Velocity":46,"Duration":134970,"SoundDuration":134970,"Delta":98424349},{"NoteNumber":68,"Velocity":73,"Duration":100384,"SoundDuration":100384,"Delta":98559320},{"NoteNumber":71,"Velocity":73,"Duration":100384,"SoundDuration":100384,"Delta":98559320},{"NoteNumber":65,"Velocity":48,"Duration":133679,"SoundDuration":133679,"Delta":98559320},{"NoteNumber":72,"Velocity":87,"Duration":533359,"SoundDuration":533359,"Delta":98692999},{"NoteNumber":66,"Velocity":58,"Duration":99443,"SoundDuration":99443,"Delta":98692999},{"NoteNumber":69,"Velocity":58,"Duration":99443,"SoundDuration":99443,"Delta":98692999},{"NoteNumber":81,"Velocity":71,"Duration":135587,"SoundDuration":135587,"Delta":98825590},{"NoteNumber":66,"Velocity":50,"Duration":101690,"SoundDuration":101690,"Delta":98825590},{"NoteNumber":69,"Velocity":50,"Duration":101690,"SoundDuration":101690,"Delta":98825590},{"NoteNumber":80,"Velocity":75,"Duration":132590,"SoundDuration":132590,"Delta":98961177},{"NoteNumber":66,"Velocity":54,"Duration":99443,"SoundDuration":99443,"Delta":98961177},{"NoteNumber":69,"Velocity":54,"Duration":99443,"SoundDuration":99443,"Delta":98961177},{"NoteNumber":78,"Velocity":71,"Duration":132590,"SoundDuration":132590,"Delta":99093767},{"NoteNumber":66,"Velocity":50,"Duration":99443,"SoundDuration":99443,"Delta":99093767},{"NoteNumber":69,"Velocity":50,"Duration":99443,"SoundDuration":99443,"Delta":99093767},{"NoteNumber":70,"Velocity":66,"Duration":103388,"SoundDuration":103388,"Delta":99226358},{"NoteNumber":74,"Velocity":66,"Duration":103388,"SoundDuration":103388,"Delta":99226358},{"NoteNumber":75,"Velocity":66,"Duration":542684,"SoundDuration":542684,"Delta":99226358},{"NoteNumber":63,"Velocity":42,"Duration":137748,"SoundDuration":137748,"Delta":99226358},{"NoteNumber":70,"Velocity":68,"Duration":102340,"SoundDuration":102340,"Delta":99364106},{"NoteNumber":74,"Velocity":68,"Duration":102340,"SoundDuration":102340,"Delta":99364106},{"NoteNumber":65,"Velocity":44,"Duration":136286,"SoundDuration":136286,"Delta":99364106},{"NoteNumber":70,"Velocity":70,"Duration":101380,"SoundDuration":101380,"Delta":99500393},{"NoteNumber":74,"Velocity":70,"Duration":101380,"SoundDuration":101380,"Delta":99500393},{"NoteNumber":66,"Velocity":46,"Duration":134970,"SoundDuration":134970,"Delta":99500393},{"NoteNumber":70,"Velocity":72,"Duration":100384,"SoundDuration":100384,"Delta":99635364},{"NoteNumber":74,"Velocity":72,"Duration":100384,"SoundDuration":100384,"Delta":99635364},{"NoteNumber":66,"Velocity":48,"Duration":133679,"SoundDuration":133679,"Delta":99635364},{"NoteNumber":74,"Velocity":87,"Duration":533359,"SoundDuration":533359,"Delta":99769043},{"NoteNumber":68,"Velocity":57,"Duration":99443,"SoundDuration":99443,"Delta":99769043},{"NoteNumber":71,"Velocity":57,"Duration":99443,"SoundDuration":99443,"Delta":99769043},{"NoteNumber":83,"Velocity":72,"Duration":135587,"SoundDuration":135587,"Delta":99901633},{"NoteNumber":68,"Velocity":48,"Duration":101690,"SoundDuration":101690,"Delta":99901633},{"NoteNumber":71,"Velocity":48,"Duration":101690,"SoundDuration":101690,"Delta":99901633},{"NoteNumber":82,"Velocity":91,"Duration":132590,"SoundDuration":132590,"Delta":100037220},{"NoteNumber":68,"Velocity":52,"Duration":99443,"SoundDuration":99443,"Delta":100037220},{"NoteNumber":71,"Velocity":52,"Duration":99443,"SoundDuration":99443,"Delta":100037220},{"NoteNumber":80,"Velocity":72,"Duration":132590,"SoundDuration":132590,"Delta":100169811},{"NoteNumber":68,"Velocity":49,"Duration":99443,"SoundDuration":99443,"Delta":100169811},{"NoteNumber":71,"Velocity":49,"Duration":99443,"SoundDuration":99443,"Delta":100169811},{"NoteNumber":58,"Velocity":54,"Duration":129735,"SoundDuration":129735,"Delta":100302402},{"NoteNumber":59,"Velocity":54,"Duration":129735,"SoundDuration":129735,"Delta":100432137},{"NoteNumber":68,"Velocity":63,"Duration":269930,"SoundDuration":269930,"Delta":100561872},{"NoteNumber":71,"Velocity":91,"Duration":269930,"SoundDuration":269930,"Delta":100561872},{"NoteNumber":63,"Velocity":44,"Duration":269930,"SoundDuration":269930,"Delta":100561872},{"NoteNumber":65,"Velocity":44,"Duration":269930,"SoundDuration":269930,"Delta":100561872},{"NoteNumber":77,"Velocity":77,"Duration":134965,"SoundDuration":134965,"Delta":100696837},{"NoteNumber":58,"Velocity":54,"Duration":130855,"SoundDuration":130855,"Delta":100831802},{"NoteNumber":59,"Velocity":54,"Duration":130855,"SoundDuration":130855,"Delta":100962658},{"NoteNumber":68,"Velocity":63,"Duration":268720,"SoundDuration":268720,"Delta":101093514},{"NoteNumber":71,"Velocity":91,"Duration":268720,"SoundDuration":268720,"Delta":101093514},{"NoteNumber":63,"Velocity":45,"Duration":268720,"SoundDuration":268720,"Delta":101093514},{"NoteNumber":65,"Velocity":45,"Duration":268720,"SoundDuration":268720,"Delta":101093514},{"NoteNumber":77,"Velocity":77,"Duration":134360,"SoundDuration":134360,"Delta":101227874},{"NoteNumber":71,"Velocity":77,"Duration":129735,"SoundDuration":129735,"Delta":101362235},{"NoteNumber":70,"Velocity":70,"Duration":130204,"SoundDuration":130204,"Delta":101491970},{"NoteNumber":65,"Velocity":56,"Duration":260874,"SoundDuration":260874,"Delta":101491970},{"NoteNumber":68,"Velocity":56,"Duration":260874,"SoundDuration":260874,"Delta":101491970},{"NoteNumber":71,"Velocity":74,"Duration":130670,"SoundDuration":130670,"Delta":101622175},{"NoteNumber":70,"Velocity":67,"Duration":131046,"SoundDuration":131046,"Delta":101752845},{"NoteNumber":64,"Velocity":52,"Duration":261531,"SoundDuration":261531,"Delta":101752845},{"NoteNumber":67,"Velocity":52,"Duration":261531,"SoundDuration":261531,"Delta":101752845},{"NoteNumber":71,"Velocity":73,"Duration":130484,"SoundDuration":130484,"Delta":101883892},{"NoteNumber":70,"Velocity":67,"Duration":131431,"SoundDuration":131431,"Delta":102014376},{"NoteNumber":63,"Velocity":49,"Duration":263930,"SoundDuration":263930,"Delta":102014376},{"NoteNumber":66,"Velocity":49,"Duration":263930,"SoundDuration":263930,"Delta":102014376},{"NoteNumber":71,"Velocity":73,"Duration":132498,"SoundDuration":132498,"Delta":102145808},{"NoteNumber":77,"Velocity":67,"Duration":141978,"SoundDuration":141978,"Delta":102278306},{"NoteNumber":62,"Velocity":48,"Duration":141978,"SoundDuration":141978,"Delta":102278306},{"NoteNumber":65,"Velocity":48,"Duration":141978,"SoundDuration":141978,"Delta":102278306},{"NoteNumber":70,"Velocity":85,"Duration":66295,"SoundDuration":66295,"Delta":102420285},{"NoteNumber":63,"Velocity":56,"Duration":66295,"SoundDuration":66295,"Delta":102420285},{"NoteNumber":67,"Velocity":56,"Duration":66295,"SoundDuration":66295,"Delta":102420285},{"NoteNumber":69,"Velocity":74,"Duration":66295,"SoundDuration":66295,"Delta":102552875},{"NoteNumber":63,"Velocity":52,"Duration":66295,"SoundDuration":66295,"Delta":102552875},{"NoteNumber":67,"Velocity":52,"Duration":66295,"SoundDuration":66295,"Delta":102552875},{"NoteNumber":72,"Velocity":76,"Duration":66295,"SoundDuration":66295,"Delta":102685466},{"NoteNumber":63,"Velocity":56,"Duration":66295,"SoundDuration":66295,"Delta":102685466},{"NoteNumber":67,"Velocity":56,"Duration":66295,"SoundDuration":66295,"Delta":102685466},{"NoteNumber":70,"Velocity":70,"Duration":66295,"SoundDuration":66295,"Delta":102818057},{"NoteNumber":63,"Velocity":50,"Duration":66295,"SoundDuration":66295,"Delta":102818057},{"NoteNumber":67,"Velocity":50,"Duration":66295,"SoundDuration":66295,"Delta":102818057},{"NoteNumber":75,"Velocity":80,"Duration":65427,"SoundDuration":65427,"Delta":102950648},{"NoteNumber":63,"Velocity":56,"Duration":65427,"SoundDuration":65427,"Delta":102950648},{"NoteNumber":67,"Velocity":56,"Duration":65427,"SoundDuration":65427,"Delta":102950648},{"NoteNumber":74,"Velocity":74,"Duration":65427,"SoundDuration":65427,"Delta":103081503},{"NoteNumber":63,"Velocity":52,"Duration":65427,"SoundDuration":65427,"Delta":103081503},{"NoteNumber":67,"Velocity":52,"Duration":65427,"SoundDuration":65427,"Delta":103081503},{"NoteNumber":77,"Velocity":76,"Duration":65427,"SoundDuration":65427,"Delta":103212359},{"NoteNumber":63,"Velocity":56,"Duration":65427,"SoundDuration":65427,"Delta":103212359},{"NoteNumber":67,"Velocity":56,"Duration":65427,"SoundDuration":65427,"Delta":103212359},{"NoteNumber":75,"Velocity":72,"Duration":65427,"SoundDuration":65427,"Delta":103343215},{"NoteNumber":63,"Velocity":50,"Duration":65427,"SoundDuration":65427,"Delta":103343215},{"NoteNumber":67,"Velocity":50,"Duration":65427,"SoundDuration":65427,"Delta":103343215},{"NoteNumber":78,"Velocity":78,"Duration":65427,"SoundDuration":65427,"Delta":103474071},{"NoteNumber":70,"Velocity":56,"Duration":65427,"SoundDuration":65427,"Delta":103474071},{"NoteNumber":67,"Velocity":56,"Duration":65427,"SoundDuration":65427,"Delta":103474071},{"NoteNumber":79,"Velocity":75,"Duration":64042,"SoundDuration":64042,"Delta":103604926},{"NoteNumber":70,"Velocity":50,"Duration":64042,"SoundDuration":64042,"Delta":103604926},{"NoteNumber":67,"Velocity":50,"Duration":64042,"SoundDuration":64042,"Delta":103604926},{"NoteNumber":84,"Velocity":94,"Duration":129176,"SoundDuration":129176,"Delta":103733011},{"NoteNumber":70,"Velocity":59,"Duration":64588,"SoundDuration":64588,"Delta":103733011},{"NoteNumber":67,"Velocity":59,"Duration":64588,"SoundDuration":64588,"Delta":103733011},{"NoteNumber":82,"Velocity":77,"Duration":131428,"SoundDuration":131428,"Delta":103862188},{"NoteNumber":70,"Velocity":51,"Duration":65714,"SoundDuration":65714,"Delta":103862188},{"NoteNumber":67,"Velocity":51,"Duration":65714,"SoundDuration":65714,"Delta":103862188},{"NoteNumber":80,"Velocity":81,"Duration":130855,"SoundDuration":130855,"Delta":103993617},{"NoteNumber":70,"Velocity":58,"Duration":65427,"SoundDuration":65427,"Delta":103993617},{"NoteNumber":67,"Velocity":58,"Duration":65427,"SoundDuration":65427,"Delta":103993617},{"NoteNumber":79,"Velocity":74,"Duration":130855,"SoundDuration":130855,"Delta":104124473},{"NoteNumber":70,"Velocity":53,"Duration":65427,"SoundDuration":65427,"Delta":104124473},{"NoteNumber":67,"Velocity":53,"Duration":65427,"SoundDuration":65427,"Delta":104124473},{"NoteNumber":77,"Velocity":78,"Duration":130855,"SoundDuration":130855,"Delta":104255328},{"NoteNumber":70,"Velocity":56,"Duration":65427,"SoundDuration":65427,"Delta":104255328},{"NoteNumber":67,"Velocity":56,"Duration":65427,"SoundDuration":65427,"Delta":104255328},{"NoteNumber":75,"Velocity":73,"Duration":130855,"SoundDuration":130855,"Delta":104386184},{"NoteNumber":70,"Velocity":51,"Duration":65427,"SoundDuration":65427,"Delta":104386184},{"NoteNumber":67,"Velocity":51,"Duration":65427,"SoundDuration":65427,"Delta":104386184},{"NoteNumber":83,"Velocity":73,"Duration":64588,"SoundDuration":64588,"Delta":104517040},{"NoteNumber":68,"Velocity":54,"Duration":96882,"SoundDuration":96882,"Delta":104517040},{"NoteNumber":71,"Velocity":54,"Duration":96882,"SoundDuration":96882,"Delta":104517040},{"NoteNumber":77,"Velocity":69,"Duration":66589,"SoundDuration":66589,"Delta":104646217},{"NoteNumber":68,"Velocity":48,"Duration":99884,"SoundDuration":99884,"Delta":104646217},{"NoteNumber":71,"Velocity":48,"Duration":99884,"SoundDuration":99884,"Delta":104646217},{"NoteNumber":82,"Velocity":96,"Duration":130855,"SoundDuration":130855,"Delta":104779396},{"NoteNumber":71,"Velocity":54,"Duration":98141,"SoundDuration":98141,"Delta":104779396},{"NoteNumber":75,"Velocity":54,"Duration":98141,"SoundDuration":98141,"Delta":104779396},{"NoteNumber":80,"Velocity":78,"Duration":130855,"SoundDuration":130855,"Delta":104910252},{"NoteNumber":71,"Velocity":49,"Duration":98141,"SoundDuration":98141,"Delta":104910252},{"NoteNumber":75,"Velocity":49,"Duration":98141,"SoundDuration":98141,"Delta":104910252},{"NoteNumber":83,"Velocity":74,"Duration":64867,"SoundDuration":64867,"Delta":105041108},{"NoteNumber":68,"Velocity":55,"Duration":97301,"SoundDuration":97301,"Delta":105041108},{"NoteNumber":71,"Velocity":55,"Duration":97301,"SoundDuration":97301,"Delta":105041108},{"NoteNumber":77,"Velocity":69,"Duration":64867,"SoundDuration":64867,"Delta":105170843},{"NoteNumber":68,"Velocity":51,"Duration":97301,"SoundDuration":97301,"Delta":105170843},{"NoteNumber":71,"Velocity":51,"Duration":97301,"SoundDuration":97301,"Delta":105170843},{"NoteNumber":82,"Velocity":94,"Duration":130855,"SoundDuration":130855,"Delta":105300578},{"NoteNumber":71,"Velocity":54,"Duration":98141,"SoundDuration":98141,"Delta":105300578},{"NoteNumber":75,"Velocity":54,"Duration":98141,"SoundDuration":98141,"Delta":105300578},{"NoteNumber":80,"Velocity":76,"Duration":133179,"SoundDuration":133179,"Delta":105431434},{"NoteNumber":71,"Velocity":51,"Duration":99884,"SoundDuration":99884,"Delta":105431434},{"NoteNumber":75,"Velocity":51,"Duration":99884,"SoundDuration":99884,"Delta":105431434},{"NoteNumber":87,"Velocity":96,"Duration":64588,"SoundDuration":64588,"Delta":105564613},{"NoteNumber":68,"Velocity":43,"Duration":526482,"SoundDuration":526482,"Delta":105564613},{"NoteNumber":72,"Velocity":54,"Duration":96882,"SoundDuration":96882,"Delta":105564613},{"NoteNumber":75,"Velocity":54,"Duration":96882,"SoundDuration":96882,"Delta":105564613},{"NoteNumber":86,"Velocity":73,"Duration":66892,"SoundDuration":66892,"Delta":105693790},{"NoteNumber":72,"Velocity":46,"Duration":100338,"SoundDuration":100338,"Delta":105693790},{"NoteNumber":75,"Velocity":46,"Duration":100338,"SoundDuration":100338,"Delta":105693790},{"NoteNumber":89,"Velocity":84,"Duration":64867,"SoundDuration":64867,"Delta":105827575},{"NoteNumber":72,"Velocity":54,"Duration":97301,"SoundDuration":97301,"Delta":105827575},{"NoteNumber":75,"Velocity":54,"Duration":97301,"SoundDuration":97301,"Delta":105827575},{"NoteNumber":87,"Velocity":71,"Duration":66892,"SoundDuration":66892,"Delta":105957311},{"NoteNumber":72,"Velocity":44,"Duration":100338,"SoundDuration":100338,"Delta":105957311},{"NoteNumber":75,"Velocity":44,"Duration":100338,"SoundDuration":100338,"Delta":105957311},{"NoteNumber":83,"Velocity":88,"Duration":130298,"SoundDuration":130298,"Delta":106091096},{"NoteNumber":63,"Velocity":43,"Duration":528119,"SoundDuration":528119,"Delta":106091096},{"NoteNumber":68,"Velocity":53,"Duration":97724,"SoundDuration":97724,"Delta":106091096},{"NoteNumber":72,"Velocity":53,"Duration":97724,"SoundDuration":97724,"Delta":106091096},{"NoteNumber":86,"Velocity":69,"Duration":133179,"SoundDuration":133179,"Delta":106221395},{"NoteNumber":68,"Velocity":43,"Duration":99884,"SoundDuration":99884,"Delta":106221395},{"NoteNumber":72,"Velocity":43,"Duration":99884,"SoundDuration":99884,"Delta":106221395},{"NoteNumber":84,"Velocity":76,"Duration":130855,"SoundDuration":130855,"Delta":106354574},{"NoteNumber":68,"Velocity":50,"Duration":98141,"SoundDuration":98141,"Delta":106354574},{"NoteNumber":72,"Velocity":50,"Duration":98141,"SoundDuration":98141,"Delta":106354574},{"NoteNumber":80,"Velocity":68,"Duration":133785,"SoundDuration":133785,"Delta":106485430},{"NoteNumber":68,"Velocity":43,"Duration":100338,"SoundDuration":100338,"Delta":106485430},{"NoteNumber":72,"Velocity":43,"Duration":100338,"SoundDuration":100338,"Delta":106485430},{"NoteNumber":79,"Velocity":89,"Duration":133785,"SoundDuration":133785,"Delta":106619215},{"NoteNumber":60,"Velocity":52,"Duration":535140,"SoundDuration":535140,"Delta":106619215},{"NoteNumber":63,"Velocity":52,"Duration":100338,"SoundDuration":100338,"Delta":106619215},{"NoteNumber":68,"Velocity":52,"Duration":100338,"SoundDuration":100338,"Delta":106619215},{"NoteNumber":82,"Velocity":72,"Duration":133785,"SoundDuration":133785,"Delta":106753000},{"NoteNumber":63,"Velocity":43,"Duration":100338,"SoundDuration":100338,"Delta":106753000},{"NoteNumber":68,"Velocity":43,"Duration":100338,"SoundDuration":100338,"Delta":106753000},{"NoteNumber":80,"Velocity":79,"Duration":133785,"SoundDuration":133785,"Delta":106886786},{"NoteNumber":63,"Velocity":49,"Duration":100338,"SoundDuration":100338,"Delta":106886786},{"NoteNumber":68,"Velocity":49,"Duration":100338,"SoundDuration":100338,"Delta":106886786},{"NoteNumber":77,"Velocity":74,"Duration":133785,"SoundDuration":133785,"Delta":107020571},{"NoteNumber":63,"Velocity":43,"Duration":100338,"SoundDuration":100338,"Delta":107020571},{"NoteNumber":68,"Velocity":43,"Duration":100338,"SoundDuration":100338,"Delta":107020571},{"NoteNumber":75,"Velocity":85,"Duration":66892,"SoundDuration":66892,"Delta":107154356},{"NoteNumber":56,"Velocity":49,"Duration":535140,"SoundDuration":535140,"Delta":107154356},{"NoteNumber":60,"Velocity":49,"Duration":100338,"SoundDuration":100338,"Delta":107154356},{"NoteNumber":63,"Velocity":49,"Duration":100338,"SoundDuration":100338,"Delta":107154356},{"NoteNumber":74,"Velocity":73,"Duration":66892,"SoundDuration":66892,"Delta":107288141},{"NoteNumber":60,"Velocity":43,"Duration":100338,"SoundDuration":100338,"Delta":107288141},{"NoteNumber":63,"Velocity":43,"Duration":100338,"SoundDuration":100338,"Delta":107288141},{"NoteNumber":77,"Velocity":91,"Duration":66892,"SoundDuration":66892,"Delta":107421927},{"NoteNumber":60,"Velocity":52,"Duration":100338,"SoundDuration":100338,"Delta":107421927},{"NoteNumber":63,"Velocity":52,"Duration":100338,"SoundDuration":100338,"Delta":107421927},{"NoteNumber":75,"Velocity":74,"Duration":66892,"SoundDuration":66892,"Delta":107555712},{"NoteNumber":60,"Velocity":43,"Duration":100338,"SoundDuration":100338,"Delta":107555712},{"NoteNumber":63,"Velocity":43,"Duration":100338,"SoundDuration":100338,"Delta":107555712},{"NoteNumber":82,"Velocity":71,"Duration":67452,"SoundDuration":67452,"Delta":107689497},{"NoteNumber":79,"Velocity":71,"Duration":67452,"SoundDuration":67452,"Delta":107689497},{"NoteNumber":55,"Velocity":60,"Duration":269808,"SoundDuration":269808,"Delta":107689497},{"NoteNumber":58,"Velocity":60,"Duration":269808,"SoundDuration":269808,"Delta":107689497},{"NoteNumber":67,"Velocity":60,"Duration":269808,"SoundDuration":269808,"Delta":107689497},{"NoteNumber":63,"Velocity":60,"Duration":269808,"SoundDuration":269808,"Delta":107689497},{"NoteNumber":82,"Velocity":73,"Duration":67452,"SoundDuration":67452,"Delta":107824401},{"NoteNumber":79,"Velocity":73,"Duration":67452,"SoundDuration":67452,"Delta":107824401},{"NoteNumber":58,"Velocity":63,"Duration":134904,"SoundDuration":134904,"Delta":107824401},{"NoteNumber":82,"Velocity":75,"Duration":67452,"SoundDuration":67452,"Delta":107959306},{"NoteNumber":79,"Velocity":75,"Duration":67452,"SoundDuration":67452,"Delta":107959306},{"NoteNumber":62,"Velocity":66,"Duration":134904,"SoundDuration":134904,"Delta":107959306},{"NoteNumber":82,"Velocity":78,"Duration":67452,"SoundDuration":67452,"Delta":108094210},{"NoteNumber":79,"Velocity":78,"Duration":67452,"SoundDuration":67452,"Delta":108094210},{"NoteNumber":63,"Velocity":69,"Duration":134904,"SoundDuration":134904,"Delta":108094210},{"NoteNumber":82,"Velocity":80,"Duration":67452,"SoundDuration":67452,"Delta":108229114},{"NoteNumber":79,"Velocity":80,"Duration":67452,"SoundDuration":67452,"Delta":108229114},{"NoteNumber":67,"Velocity":72,"Duration":134514,"SoundDuration":134514,"Delta":108229114},{"NoteNumber":82,"Velocity":82,"Duration":66775,"SoundDuration":66775,"Delta":108363629},{"NoteNumber":79,"Velocity":82,"Duration":66775,"SoundDuration":66775,"Delta":108363629},{"NoteNumber":70,"Velocity":75,"Duration":133161,"SoundDuration":133161,"Delta":108363629},{"NoteNumber":82,"Velocity":84,"Duration":66102,"SoundDuration":66102,"Delta":108496790},{"NoteNumber":79,"Velocity":84,"Duration":66102,"SoundDuration":66102,"Delta":108496790},{"NoteNumber":74,"Velocity":78,"Duration":131729,"SoundDuration":131729,"Delta":108496790},{"NoteNumber":82,"Velocity":85,"Duration":68656,"SoundDuration":68656,"Delta":108628520},{"NoteNumber":79,"Velocity":85,"Duration":68656,"SoundDuration":68656,"Delta":108628520},{"NoteNumber":75,"Velocity":81,"Duration":137312,"SoundDuration":137312,"Delta":108628520},{"NoteNumber":86,"Velocity":94,"Duration":282193,"SoundDuration":282193,"Delta":108765832},{"NoteNumber":78,"Velocity":94,"Duration":282193,"SoundDuration":282193,"Delta":108765832},{"NoteNumber":74,"Velocity":94,"Duration":282193,"SoundDuration":282193,"Delta":108765832},{"NoteNumber":66,"Velocity":84,"Duration":282193,"SoundDuration":282193,"Delta":108765832},{"NoteNumber":69,"Velocity":84,"Duration":282193,"SoundDuration":282193,"Delta":108765832},{"NoteNumber":78,"Velocity":74,"Duration":100734,"SoundDuration":100734,"Delta":109048025},{"NoteNumber":74,"Velocity":74,"Duration":100734,"SoundDuration":100734,"Delta":109048025},{"NoteNumber":57,"Velocity":71,"Duration":134312,"SoundDuration":134312,"Delta":109048025},{"NoteNumber":78,"Velocity":70,"Duration":100734,"SoundDuration":100734,"Delta":109182338},{"NoteNumber":74,"Velocity":70,"Duration":100734,"SoundDuration":100734,"Delta":109182338},{"NoteNumber":61,"Velocity":66,"Duration":134312,"SoundDuration":134312,"Delta":109182338},{"NoteNumber":78,"Velocity":76,"Duration":101030,"SoundDuration":101030,"Delta":109316650},{"NoteNumber":74,"Velocity":76,"Duration":101030,"SoundDuration":101030,"Delta":109316650},{"NoteNumber":62,"Velocity":70,"Duration":134514,"SoundDuration":134514,"Delta":109316650},{"NoteNumber":78,"Velocity":70,"Duration":100016,"SoundDuration":100016,"Delta":109451164},{"NoteNumber":74,"Velocity":70,"Duration":100016,"SoundDuration":100016,"Delta":109451164},{"NoteNumber":64,"Velocity":66,"Duration":133161,"SoundDuration":133161,"Delta":109451164},{"NoteNumber":78,"Velocity":75,"Duration":98962,"SoundDuration":98962,"Delta":109584326},{"NoteNumber":74,"Velocity":75,"Duration":98962,"SoundDuration":98962,"Delta":109584326},{"NoteNumber":66,"Velocity":70,"Duration":131729,"SoundDuration":131729,"Delta":109584326},{"NoteNumber":78,"Velocity":71,"Duration":102984,"SoundDuration":102984,"Delta":109716055},{"NoteNumber":74,"Velocity":71,"Duration":102984,"SoundDuration":102984,"Delta":109716055},{"NoteNumber":69,"Velocity":65,"Duration":137312,"SoundDuration":137312,"Delta":109716055},{"NoteNumber":76,"Velocity":89,"Duration":274252,"SoundDuration":274252,"Delta":109853367},{"NoteNumber":74,"Velocity":89,"Duration":274252,"SoundDuration":274252,"Delta":109853367},{"NoteNumber":70,"Velocity":78,"Duration":141096,"SoundDuration":141096,"Delta":109853367},{"NoteNumber":68,"Velocity":74,"Duration":133155,"SoundDuration":133155,"Delta":109994464},{"NoteNumber":82,"Velocity":70,"Duration":69277,"SoundDuration":69277,"Delta":110127620},{"NoteNumber":80,"Velocity":70,"Duration":69277,"SoundDuration":69277,"Delta":110127620},{"NoteNumber":62,"Velocity":64,"Duration":138555,"SoundDuration":138555,"Delta":110127620},{"NoteNumber":64,"Velocity":64,"Duration":138555,"SoundDuration":138555,"Delta":110127620},{"NoteNumber":82,"Velocity":67,"Duration":69277,"SoundDuration":69277,"Delta":110266175},{"NoteNumber":80,"Velocity":67,"Duration":69277,"SoundDuration":69277,"Delta":110266175},{"NoteNumber":76,"Velocity":89,"Duration":274252,"SoundDuration":274252,"Delta":110404730},{"NoteNumber":74,"Velocity":89,"Duration":274252,"SoundDuration":274252,"Delta":110404730},{"NoteNumber":70,"Velocity":77,"Duration":141096,"SoundDuration":141096,"Delta":110404730},{"NoteNumber":68,"Velocity":72,"Duration":133155,"SoundDuration":133155,"Delta":110545827},{"NoteNumber":82,"Velocity":68,"Duration":68965,"SoundDuration":68965,"Delta":110678983},{"NoteNumber":80,"Velocity":68,"Duration":68965,"SoundDuration":68965,"Delta":110678983},{"NoteNumber":62,"Velocity":67,"Duration":137930,"SoundDuration":137930,"Delta":110678983},{"NoteNumber":64,"Velocity":67,"Duration":137930,"SoundDuration":137930,"Delta":110678983},{"NoteNumber":82,"Velocity":68,"Duration":68965,"SoundDuration":68965,"Delta":110816914},{"NoteNumber":80,"Velocity":68,"Duration":68965,"SoundDuration":68965,"Delta":110816914},{"NoteNumber":74,"Velocity":71,"Duration":101223,"SoundDuration":101223,"Delta":110954845},{"NoteNumber":76,"Velocity":71,"Duration":101223,"SoundDuration":101223,"Delta":110954845},{"NoteNumber":58,"Velocity":71,"Duration":539860,"SoundDuration":539860,"Delta":110954845},{"NoteNumber":74,"Velocity":71,"Duration":101223,"SoundDuration":101223,"Delta":111089810},{"NoteNumber":76,"Velocity":71,"Duration":101223,"SoundDuration":101223,"Delta":111089810},{"NoteNumber":74,"Velocity":71,"Duration":101223,"SoundDuration":101223,"Delta":111224775},{"NoteNumber":76,"Velocity":71,"Duration":101223,"SoundDuration":101223,"Delta":111224775},{"NoteNumber":74,"Velocity":71,"Duration":101223,"SoundDuration":101223,"Delta":111359740},{"NoteNumber":76,"Velocity":71,"Duration":101223,"SoundDuration":101223,"Delta":111359740},{"NoteNumber":76,"Velocity":74,"Duration":101223,"SoundDuration":101223,"Delta":111494705},{"NoteNumber":74,"Velocity":74,"Duration":101223,"SoundDuration":101223,"Delta":111494705},{"NoteNumber":57,"Velocity":62,"Duration":134964,"SoundDuration":134964,"Delta":111494705},{"NoteNumber":74,"Velocity":77,"Duration":101223,"SoundDuration":101223,"Delta":111629670},{"NoteNumber":76,"Velocity":77,"Duration":101223,"SoundDuration":101223,"Delta":111629670},{"NoteNumber":56,"Velocity":62,"Duration":134965,"SoundDuration":134965,"Delta":111629670},{"NoteNumber":74,"Velocity":80,"Duration":101223,"SoundDuration":101223,"Delta":111764635},{"NoteNumber":76,"Velocity":80,"Duration":101223,"SoundDuration":101223,"Delta":111764635},{"NoteNumber":59,"Velocity":62,"Duration":134964,"SoundDuration":134964,"Delta":111764635},{"NoteNumber":74,"Velocity":84,"Duration":101223,"SoundDuration":101223,"Delta":111899600},{"NoteNumber":76,"Velocity":84,"Duration":101223,"SoundDuration":101223,"Delta":111899600},{"NoteNumber":58,"Velocity":62,"Duration":134964,"SoundDuration":134964,"Delta":111899600},{"NoteNumber":73,"Velocity":91,"Duration":67180,"SoundDuration":67180,"Delta":112034565},{"NoteNumber":76,"Velocity":91,"Duration":67180,"SoundDuration":67180,"Delta":112034565},{"NoteNumber":57,"Velocity":63,"Duration":67180,"SoundDuration":67180,"Delta":112034565},{"NoteNumber":73,"Velocity":82,"Duration":67793,"SoundDuration":67793,"Delta":112169228},{"NoteNumber":76,"Velocity":82,"Duration":67793,"SoundDuration":67793,"Delta":112169228},{"NoteNumber":59,"Velocity":66,"Duration":67793,"SoundDuration":67793,"Delta":112169228},{"NoteNumber":73,"Velocity":87,"Duration":68399,"SoundDuration":68399,"Delta":112305110},{"NoteNumber":76,"Velocity":87,"Duration":68399,"SoundDuration":68399,"Delta":112305110},{"NoteNumber":60,"Velocity":69,"Duration":68399,"SoundDuration":68399,"Delta":112305110},{"NoteNumber":73,"Velocity":79,"Duration":71660,"SoundDuration":71660,"Delta":112442229},{"NoteNumber":76,"Velocity":79,"Duration":71660,"SoundDuration":71660,"Delta":112442229},{"NoteNumber":61,"Velocity":71,"Duration":71660,"SoundDuration":71660,"Delta":112442229},{"NoteNumber":81,"Velocity":96,"Duration":269930,"SoundDuration":269930,"Delta":112585550},{"NoteNumber":73,"Velocity":96,"Duration":269930,"SoundDuration":269930,"Delta":112585550},{"NoteNumber":66,"Velocity":78,"Duration":134964,"SoundDuration":134964,"Delta":112585550},{"NoteNumber":64,"Velocity":70,"Duration":134965,"SoundDuration":134965,"Delta":112720515},{"NoteNumber":61,"Velocity":74,"Duration":134964,"SoundDuration":134964,"Delta":112855480},{"NoteNumber":57,"Velocity":69,"Duration":134965,"SoundDuration":134965,"Delta":112990445},{"NoteNumber":86,"Velocity":94,"Duration":282193,"SoundDuration":282193,"Delta":113125410},{"NoteNumber":78,"Velocity":94,"Duration":282193,"SoundDuration":282193,"Delta":113125410},{"NoteNumber":74,"Velocity":94,"Duration":282193,"SoundDuration":282193,"Delta":113125410},{"NoteNumber":66,"Velocity":83,"Duration":282193,"SoundDuration":282193,"Delta":113125410},{"NoteNumber":69,"Velocity":83,"Duration":282193,"SoundDuration":282193,"Delta":113125410},{"NoteNumber":78,"Velocity":75,"Duration":100734,"SoundDuration":100734,"Delta":113407604},{"NoteNumber":74,"Velocity":75,"Duration":100734,"SoundDuration":100734,"Delta":113407604},{"NoteNumber":57,"Velocity":70,"Duration":134312,"SoundDuration":134312,"Delta":113407604},{"NoteNumber":78,"Velocity":70,"Duration":100734,"SoundDuration":100734,"Delta":113541916},{"NoteNumber":74,"Velocity":70,"Duration":100734,"SoundDuration":100734,"Delta":113541916},{"NoteNumber":61,"Velocity":65,"Duration":134312,"SoundDuration":134312,"Delta":113541916},{"NoteNumber":78,"Velocity":75,"Duration":101030,"SoundDuration":101030,"Delta":113676228},{"NoteNumber":74,"Velocity":75,"Duration":101030,"SoundDuration":101030,"Delta":113676228},{"NoteNumber":62,"Velocity":70,"Duration":134514,"SoundDuration":134514,"Delta":113676228},{"NoteNumber":78,"Velocity":69,"Duration":100016,"SoundDuration":100016,"Delta":113810742},{"NoteNumber":74,"Velocity":69,"Duration":100016,"SoundDuration":100016,"Delta":113810742},{"NoteNumber":64,"Velocity":65,"Duration":133161,"SoundDuration":133161,"Delta":113810742},{"NoteNumber":78,"Velocity":75,"Duration":98962,"SoundDuration":98962,"Delta":113943904},{"NoteNumber":74,"Velocity":75,"Duration":98962,"SoundDuration":98962,"Delta":113943904},{"NoteNumber":66,"Velocity":70,"Duration":131729,"SoundDuration":131729,"Delta":113943904},{"NoteNumber":78,"Velocity":70,"Duration":102984,"SoundDuration":102984,"Delta":114075633},{"NoteNumber":74,"Velocity":70,"Duration":102984,"SoundDuration":102984,"Delta":114075633},{"NoteNumber":69,"Velocity":66,"Duration":137312,"SoundDuration":137312,"Delta":114075633},{"NoteNumber":76,"Velocity":89,"Duration":274252,"SoundDuration":274252,"Delta":114212946},{"NoteNumber":78,"Velocity":89,"Duration":274252,"SoundDuration":274252,"Delta":114212946},{"NoteNumber":72,"Velocity":78,"Duration":141096,"SoundDuration":141096,"Delta":114212946},{"NoteNumber":70,"Velocity":73,"Duration":133155,"SoundDuration":133155,"Delta":114354042},{"NoteNumber":84,"Velocity":68,"Duration":69277,"SoundDuration":69277,"Delta":114487198},{"NoteNumber":82,"Velocity":68,"Duration":69277,"SoundDuration":69277,"Delta":114487198},{"NoteNumber":66,"Velocity":67,"Duration":138555,"SoundDuration":138555,"Delta":114487198},{"NoteNumber":64,"Velocity":67,"Duration":138555,"SoundDuration":138555,"Delta":114487198},{"NoteNumber":84,"Velocity":68,"Duration":69277,"SoundDuration":69277,"Delta":114625753},{"NoteNumber":82,"Velocity":68,"Duration":69277,"SoundDuration":69277,"Delta":114625753},{"NoteNumber":76,"Velocity":89,"Duration":274252,"SoundDuration":274252,"Delta":114764309},{"NoteNumber":78,"Velocity":89,"Duration":274252,"SoundDuration":274252,"Delta":114764309},{"NoteNumber":72,"Velocity":77,"Duration":141096,"SoundDuration":141096,"Delta":114764309},{"NoteNumber":70,"Velocity":72,"Duration":133155,"SoundDuration":133155,"Delta":114905405},{"NoteNumber":84,"Velocity":69,"Duration":68965,"SoundDuration":68965,"Delta":115038561},{"NoteNumber":82,"Velocity":69,"Duration":68965,"SoundDuration":68965,"Delta":115038561},{"NoteNumber":66,"Velocity":66,"Duration":137930,"SoundDuration":137930,"Delta":115038561},{"NoteNumber":64,"Velocity":66,"Duration":137930,"SoundDuration":137930,"Delta":115038561},{"NoteNumber":84,"Velocity":69,"Duration":68965,"SoundDuration":68965,"Delta":115176492},{"NoteNumber":82,"Velocity":69,"Duration":68965,"SoundDuration":68965,"Delta":115176492},{"NoteNumber":78,"Velocity":71,"Duration":101223,"SoundDuration":101223,"Delta":115314423},{"NoteNumber":76,"Velocity":71,"Duration":101223,"SoundDuration":101223,"Delta":115314423},{"NoteNumber":60,"Velocity":71,"Duration":539860,"SoundDuration":539860,"Delta":115314423},{"NoteNumber":78,"Velocity":71,"Duration":101223,"SoundDuration":101223,"Delta":115449388},{"NoteNumber":76,"Velocity":71,"Duration":101223,"SoundDuration":101223,"Delta":115449388},{"NoteNumber":78,"Velocity":71,"Duration":101223,"SoundDuration":101223,"Delta":115584353},{"NoteNumber":76,"Velocity":71,"Duration":101223,"SoundDuration":101223,"Delta":115584353},{"NoteNumber":78,"Velocity":71,"Duration":101223,"SoundDuration":101223,"Delta":115719318},{"NoteNumber":76,"Velocity":71,"Duration":101223,"SoundDuration":101223,"Delta":115719318},{"NoteNumber":76,"Velocity":70,"Duration":101223,"SoundDuration":101223,"Delta":115854283},{"NoteNumber":78,"Velocity":70,"Duration":101223,"SoundDuration":101223,"Delta":115854283},{"NoteNumber":59,"Velocity":62,"Duration":134964,"SoundDuration":134964,"Delta":115854283},{"NoteNumber":78,"Velocity":71,"Duration":101223,"SoundDuration":101223,"Delta":115989248},{"NoteNumber":76,"Velocity":71,"Duration":101223,"SoundDuration":101223,"Delta":115989248},{"NoteNumber":58,"Velocity":62,"Duration":134965,"SoundDuration":134965,"Delta":115989248},{"NoteNumber":78,"Velocity":73,"Duration":101223,"SoundDuration":101223,"Delta":116124213},{"NoteNumber":76,"Velocity":73,"Duration":101223,"SoundDuration":101223,"Delta":116124213},{"NoteNumber":61,"Velocity":62,"Duration":134964,"SoundDuration":134964,"Delta":116124213},{"NoteNumber":78,"Velocity":75,"Duration":101223,"SoundDuration":101223,"Delta":116259178},{"NoteNumber":76,"Velocity":75,"Duration":101223,"SoundDuration":101223,"Delta":116259178},{"NoteNumber":60,"Velocity":62,"Duration":134964,"SoundDuration":134964,"Delta":116259178},{"NoteNumber":78,"Velocity":81,"Duration":67180,"SoundDuration":67180,"Delta":116394143},{"NoteNumber":75,"Velocity":81,"Duration":67180,"SoundDuration":67180,"Delta":116394143},{"NoteNumber":59,"Velocity":61,"Duration":67180,"SoundDuration":67180,"Delta":116394143},{"NoteNumber":78,"Velocity":74,"Duration":67793,"SoundDuration":67793,"Delta":116528806},{"NoteNumber":75,"Velocity":74,"Duration":67793,"SoundDuration":67793,"Delta":116528806},{"NoteNumber":61,"Velocity":63,"Duration":67793,"SoundDuration":67793,"Delta":116528806},{"NoteNumber":78,"Velocity":79,"Duration":68399,"SoundDuration":68399,"Delta":116664688},{"NoteNumber":75,"Velocity":79,"Duration":68399,"SoundDuration":68399,"Delta":116664688},{"NoteNumber":62,"Velocity":65,"Duration":68399,"SoundDuration":68399,"Delta":116664688},{"NoteNumber":78,"Velocity":71,"Duration":71660,"SoundDuration":71660,"Delta":116801807},{"NoteNumber":75,"Velocity":71,"Duration":71660,"SoundDuration":71660,"Delta":116801807},{"NoteNumber":63,"Velocity":67,"Duration":71660,"SoundDuration":71660,"Delta":116801807},{"NoteNumber":83,"Velocity":85,"Duration":269930,"SoundDuration":269930,"Delta":116945128},{"NoteNumber":75,"Velocity":85,"Duration":269930,"SoundDuration":269930,"Delta":116945128},{"NoteNumber":67,"Velocity":73,"Duration":134964,"SoundDuration":134964,"Delta":116945128},{"NoteNumber":65,"Velocity":66,"Duration":134965,"SoundDuration":134965,"Delta":117080093},{"NoteNumber":63,"Velocity":71,"Duration":134964,"SoundDuration":134964,"Delta":117215058},{"NoteNumber":59,"Velocity":66,"Duration":134965,"SoundDuration":134965,"Delta":117350023},{"NoteNumber":88,"Velocity":94,"Duration":282193,"SoundDuration":282193,"Delta":117484988},{"NoteNumber":76,"Velocity":94,"Duration":282193,"SoundDuration":282193,"Delta":117484988},{"NoteNumber":71,"Velocity":83,"Duration":282193,"SoundDuration":282193,"Delta":117484988},{"NoteNumber":64,"Velocity":83,"Duration":282193,"SoundDuration":282193,"Delta":117484988},{"NoteNumber":67,"Velocity":83,"Duration":282193,"SoundDuration":282193,"Delta":117484988},{"NoteNumber":75,"Velocity":70,"Duration":134312,"SoundDuration":134312,"Delta":117767182},{"NoteNumber":67,"Velocity":66,"Duration":100734,"SoundDuration":100734,"Delta":117767182},{"NoteNumber":64,"Velocity":66,"Duration":100734,"SoundDuration":100734,"Delta":117767182},{"NoteNumber":76,"Velocity":67,"Duration":134312,"SoundDuration":134312,"Delta":117901494},{"NoteNumber":64,"Velocity":58,"Duration":100734,"SoundDuration":100734,"Delta":117901494},{"NoteNumber":67,"Velocity":58,"Duration":100734,"SoundDuration":100734,"Delta":117901494},{"NoteNumber":78,"Velocity":72,"Duration":134514,"SoundDuration":134514,"Delta":118035806},{"NoteNumber":64,"Velocity":66,"Duration":101030,"SoundDuration":101030,"Delta":118035806},{"NoteNumber":67,"Velocity":66,"Duration":101030,"SoundDuration":101030,"Delta":118035806},{"NoteNumber":79,"Velocity":70,"Duration":133161,"SoundDuration":133161,"Delta":118170321},{"NoteNumber":64,"Velocity":58,"Duration":100016,"SoundDuration":100016,"Delta":118170321},{"NoteNumber":67,"Velocity":58,"Duration":100016,"SoundDuration":100016,"Delta":118170321},{"NoteNumber":82,"Velocity":74,"Duration":131729,"SoundDuration":131729,"Delta":118303482},{"NoteNumber":64,"Velocity":66,"Duration":98962,"SoundDuration":98962,"Delta":118303482},{"NoteNumber":67,"Velocity":66,"Duration":98962,"SoundDuration":98962,"Delta":118303482},{"NoteNumber":83,"Velocity":72,"Duration":137312,"SoundDuration":137312,"Delta":118435212},{"NoteNumber":64,"Velocity":59,"Duration":102984,"SoundDuration":102984,"Delta":118435212},{"NoteNumber":67,"Velocity":59,"Duration":102984,"SoundDuration":102984,"Delta":118435212},{"NoteNumber":77,"Velocity":89,"Duration":277895,"SoundDuration":277895,"Delta":118572524},{"NoteNumber":86,"Velocity":89,"Duration":277895,"SoundDuration":277895,"Delta":118572524},{"NoteNumber":74,"Velocity":89,"Duration":277895,"SoundDuration":277895,"Delta":118572524},{"NoteNumber":62,"Velocity":70,"Duration":277895,"SoundDuration":277895,"Delta":118572524},{"NoteNumber":69,"Velocity":70,"Duration":141096,"SoundDuration":141096,"Delta":118572524},{"NoteNumber":69,"Velocity":65,"Duration":136798,"SoundDuration":136798,"Delta":118713621},{"NoteNumber":80,"Velocity":74,"Duration":138760,"SoundDuration":138760,"Delta":118850420},{"NoteNumber":74,"Velocity":74,"Duration":277520,"SoundDuration":277520,"Delta":118850420},{"NoteNumber":77,"Velocity":74,"Duration":277520,"SoundDuration":277520,"Delta":118850420},{"NoteNumber":71,"Velocity":66,"Duration":138760,"SoundDuration":138760,"Delta":118850420},{"NoteNumber":79,"Velocity":76,"Duration":138760,"SoundDuration":138760,"Delta":118989180},{"NoteNumber":71,"Velocity":59,"Duration":138760,"SoundDuration":138760,"Delta":118989180},{"NoteNumber":84,"Velocity":94,"Duration":282193,"SoundDuration":282193,"Delta":119127941},{"NoteNumber":75,"Velocity":79,"Duration":282193,"SoundDuration":282193,"Delta":119127941},{"NoteNumber":72,"Velocity":73,"Duration":282193,"SoundDuration":282193,"Delta":119127941},{"NoteNumber":63,"Velocity":62,"Duration":282193,"SoundDuration":282193,"Delta":119127941},{"NoteNumber":67,"Velocity":62,"Duration":282193,"SoundDuration":282193,"Delta":119127941},{"NoteNumber":71,"Velocity":70,"Duration":134312,"SoundDuration":134312,"Delta":119410134},{"NoteNumber":60,"Velocity":66,"Duration":100734,"SoundDuration":100734,"Delta":119410134},{"NoteNumber":63,"Velocity":66,"Duration":100734,"SoundDuration":100734,"Delta":119410134},{"NoteNumber":72,"Velocity":67,"Duration":134312,"SoundDuration":134312,"Delta":119544446},{"NoteNumber":63,"Velocity":58,"Duration":100734,"SoundDuration":100734,"Delta":119544446},{"NoteNumber":60,"Velocity":58,"Duration":100734,"SoundDuration":100734,"Delta":119544446},{"NoteNumber":74,"Velocity":72,"Duration":134514,"SoundDuration":134514,"Delta":119678759},{"NoteNumber":63,"Velocity":66,"Duration":101030,"SoundDuration":101030,"Delta":119678759},{"NoteNumber":60,"Velocity":66,"Duration":101030,"SoundDuration":101030,"Delta":119678759},{"NoteNumber":75,"Velocity":70,"Duration":133161,"SoundDuration":133161,"Delta":119813273},{"NoteNumber":63,"Velocity":58,"Duration":100016,"SoundDuration":100016,"Delta":119813273},{"NoteNumber":60,"Velocity":58,"Duration":100016,"SoundDuration":100016,"Delta":119813273},{"NoteNumber":78,"Velocity":74,"Duration":131729,"SoundDuration":131729,"Delta":119946434},{"NoteNumber":63,"Velocity":66,"Duration":98962,"SoundDuration":98962,"Delta":119946434},{"NoteNumber":60,"Velocity":66,"Duration":98962,"SoundDuration":98962,"Delta":119946434},{"NoteNumber":79,"Velocity":72,"Duration":137312,"SoundDuration":137312,"Delta":120078164},{"NoteNumber":63,"Velocity":59,"Duration":102984,"SoundDuration":102984,"Delta":120078164},{"NoteNumber":60,"Velocity":59,"Duration":102984,"SoundDuration":102984,"Delta":120078164},{"NoteNumber":73,"Velocity":89,"Duration":277895,"SoundDuration":277895,"Delta":120215476},{"NoteNumber":82,"Velocity":89,"Duration":277895,"SoundDuration":277895,"Delta":120215476},{"NoteNumber":70,"Velocity":89,"Duration":277895,"SoundDuration":277895,"Delta":120215476},{"NoteNumber":58,"Velocity":70,"Duration":277895,"SoundDuration":277895,"Delta":120215476},{"NoteNumber":65,"Velocity":70,"Duration":141096,"SoundDuration":141096,"Delta":120215476},{"NoteNumber":65,"Velocity":65,"Duration":136798,"SoundDuration":136798,"Delta":120356573},{"NoteNumber":76,"Velocity":74,"Duration":139353,"SoundDuration":139353,"Delta":120493372},{"NoteNumber":73,"Velocity":74,"Duration":278706,"SoundDuration":278706,"Delta":120493372},{"NoteNumber":70,"Velocity":74,"Duration":278706,"SoundDuration":278706,"Delta":120493372},{"NoteNumber":67,"Velocity":66,"Duration":139353,"SoundDuration":139353,"Delta":120493372},{"NoteNumber":75,"Velocity":70,"Duration":139353,"SoundDuration":139353,"Delta":120632725},{"NoteNumber":67,"Velocity":59,"Duration":139353,"SoundDuration":139353,"Delta":120632725},{"NoteNumber":80,"Velocity":94,"Duration":282193,"SoundDuration":282193,"Delta":120772079},{"NoteNumber":72,"Velocity":79,"Duration":282193,"SoundDuration":282193,"Delta":120772079},{"NoteNumber":75,"Velocity":79,"Duration":282193,"SoundDuration":282193,"Delta":120772079},{"NoteNumber":68,"Velocity":75,"Duration":282193,"SoundDuration":282193,"Delta":120772079},{"NoteNumber":63,"Velocity":63,"Duration":282193,"SoundDuration":282193,"Delta":120772079},{"NoteNumber":60,"Velocity":63,"Duration":282193,"SoundDuration":282193,"Delta":120772079},{"NoteNumber":71,"Velocity":70,"Duration":134312,"SoundDuration":134312,"Delta":121054272},{"NoteNumber":68,"Velocity":66,"Duration":100734,"SoundDuration":100734,"Delta":121054272},{"NoteNumber":63,"Velocity":66,"Duration":100734,"SoundDuration":100734,"Delta":121054272},{"NoteNumber":72,"Velocity":67,"Duration":134312,"SoundDuration":134312,"Delta":121188585},{"NoteNumber":63,"Velocity":58,"Duration":100734,"SoundDuration":100734,"Delta":121188585},{"NoteNumber":68,"Velocity":58,"Duration":100734,"SoundDuration":100734,"Delta":121188585},{"NoteNumber":67,"Velocity":71,"Duration":134514,"SoundDuration":134514,"Delta":121322897},{"NoteNumber":63,"Velocity":66,"Duration":101030,"SoundDuration":101030,"Delta":121322897},{"NoteNumber":60,"Velocity":66,"Duration":101030,"SoundDuration":101030,"Delta":121322897},{"NoteNumber":68,"Velocity":67,"Duration":133161,"SoundDuration":133161,"Delta":121457411},{"NoteNumber":63,"Velocity":58,"Duration":100016,"SoundDuration":100016,"Delta":121457411},{"NoteNumber":60,"Velocity":58,"Duration":100016,"SoundDuration":100016,"Delta":121457411},{"NoteNumber":71,"Velocity":72,"Duration":131729,"SoundDuration":131729,"Delta":121590573},{"NoteNumber":63,"Velocity":66,"Duration":98962,"SoundDuration":98962,"Delta":121590573},{"NoteNumber":56,"Velocity":66,"Duration":98962,"SoundDuration":98962,"Delta":121590573},{"NoteNumber":72,"Velocity":68,"Duration":137312,"SoundDuration":137312,"Delta":121722302},{"NoteNumber":63,"Velocity":59,"Duration":102984,"SoundDuration":102984,"Delta":121722302},{"NoteNumber":56,"Velocity":59,"Duration":102984,"SoundDuration":102984,"Delta":121722302},{"NoteNumber":58,"Velocity":70,"Duration":141096,"SoundDuration":141096,"Delta":121859614},{"NoteNumber":59,"Velocity":65,"Duration":136798,"SoundDuration":136798,"Delta":122000711},{"NoteNumber":71,"Velocity":88,"Duration":133452,"SoundDuration":133452,"Delta":122137510},{"NoteNumber":68,"Velocity":79,"Duration":268053,"SoundDuration":268053,"Delta":122137510},{"NoteNumber":63,"Velocity":66,"Duration":268053,"SoundDuration":268053,"Delta":122137510},{"NoteNumber":65,"Velocity":66,"Duration":268053,"SoundDuration":268053,"Delta":122137510},{"NoteNumber":77,"Velocity":80,"Duration":134601,"SoundDuration":134601,"Delta":122270962},{"NoteNumber":80,"Velocity":94,"Duration":282193,"SoundDuration":282193,"Delta":122405564},{"NoteNumber":72,"Velocity":79,"Duration":282193,"SoundDuration":282193,"Delta":122405564},{"NoteNumber":75,"Velocity":79,"Duration":282193,"SoundDuration":282193,"Delta":122405564},{"NoteNumber":68,"Velocity":73,"Duration":282193,"SoundDuration":282193,"Delta":122405564},{"NoteNumber":63,"Velocity":62,"Duration":282193,"SoundDuration":282193,"Delta":122405564},{"NoteNumber":60,"Velocity":62,"Duration":282193,"SoundDuration":282193,"Delta":122405564},{"NoteNumber":71,"Velocity":70,"Duration":134312,"SoundDuration":134312,"Delta":122687757},{"NoteNumber":68,"Velocity":66,"Duration":100734,"SoundDuration":100734,"Delta":122687757},{"NoteNumber":63,"Velocity":66,"Duration":100734,"SoundDuration":100734,"Delta":122687757},{"NoteNumber":72,"Velocity":65,"Duration":134312,"SoundDuration":134312,"Delta":122822069},{"NoteNumber":63,"Velocity":58,"Duration":100734,"SoundDuration":100734,"Delta":122822069},{"NoteNumber":68,"Velocity":58,"Duration":100734,"SoundDuration":100734,"Delta":122822069},{"NoteNumber":67,"Velocity":71,"Duration":134514,"SoundDuration":134514,"Delta":122956382},{"NoteNumber":63,"Velocity":66,"Duration":101030,"SoundDuration":101030,"Delta":122956382},{"NoteNumber":60,"Velocity":66,"Duration":101030,"SoundDuration":101030,"Delta":122956382},{"NoteNumber":68,"Velocity":67,"Duration":133161,"SoundDuration":133161,"Delta":123090896},{"NoteNumber":63,"Velocity":58,"Duration":100016,"SoundDuration":100016,"Delta":123090896},{"NoteNumber":60,"Velocity":58,"Duration":100016,"SoundDuration":100016,"Delta":123090896},{"NoteNumber":71,"Velocity":74,"Duration":131729,"SoundDuration":131729,"Delta":123224058},{"NoteNumber":63,"Velocity":66,"Duration":98962,"SoundDuration":98962,"Delta":123224058},{"NoteNumber":56,"Velocity":66,"Duration":98962,"SoundDuration":98962,"Delta":123224058},{"NoteNumber":72,"Velocity":67,"Duration":137312,"SoundDuration":137312,"Delta":123355787},{"NoteNumber":63,"Velocity":59,"Duration":102984,"SoundDuration":102984,"Delta":123355787},{"NoteNumber":56,"Velocity":59,"Duration":102984,"SoundDuration":102984,"Delta":123355787},{"NoteNumber":58,"Velocity":70,"Duration":141096,"SoundDuration":141096,"Delta":123493099},{"NoteNumber":59,"Velocity":65,"Duration":136798,"SoundDuration":136798,"Delta":123634196},{"NoteNumber":71,"Velocity":85,"Duration":136799,"SoundDuration":136799,"Delta":123770995},{"NoteNumber":68,"Velocity":77,"Duration":273598,"SoundDuration":273598,"Delta":123770995},{"NoteNumber":63,"Velocity":66,"Duration":273598,"SoundDuration":273598,"Delta":123770995},{"NoteNumber":65,"Velocity":66,"Duration":273598,"SoundDuration":273598,"Delta":123770995},{"NoteNumber":77,"Velocity":80,"Duration":136798,"SoundDuration":136798,"Delta":123907794},{"NoteNumber":76,"Velocity":89,"Duration":274252,"SoundDuration":274252,"Delta":124044593},{"NoteNumber":74,"Velocity":89,"Duration":274252,"SoundDuration":274252,"Delta":124044593},{"NoteNumber":70,"Velocity":77,"Duration":141096,"SoundDuration":141096,"Delta":124044593},{"NoteNumber":68,"Velocity":72,"Duration":133155,"SoundDuration":133155,"Delta":124185690},{"NoteNumber":82,"Velocity":68,"Duration":68965,"SoundDuration":68965,"Delta":124318846},{"NoteNumber":80,"Velocity":68,"Duration":68965,"SoundDuration":68965,"Delta":124318846},{"NoteNumber":62,"Velocity":67,"Duration":275862,"SoundDuration":275862,"Delta":124318846},{"NoteNumber":64,"Velocity":67,"Duration":275862,"SoundDuration":275862,"Delta":124318846},{"NoteNumber":82,"Velocity":68,"Duration":68965,"SoundDuration":68965,"Delta":124456777},{"NoteNumber":80,"Velocity":68,"Duration":68965,"SoundDuration":68965,"Delta":124456777},{"NoteNumber":85,"Velocity":94,"Duration":282193,"SoundDuration":282193,"Delta":124594708},{"NoteNumber":73,"Velocity":79,"Duration":282193,"SoundDuration":282193,"Delta":124594708},{"NoteNumber":77,"Velocity":79,"Duration":282193,"SoundDuration":282193,"Delta":124594708},{"NoteNumber":61,"Velocity":70,"Duration":282193,"SoundDuration":282193,"Delta":124594708},{"NoteNumber":68,"Velocity":70,"Duration":282193,"SoundDuration":282193,"Delta":124594708},{"NoteNumber":71,"Velocity":83,"Duration":282193,"SoundDuration":282193,"Delta":124594708},{"NoteNumber":76,"Velocity":70,"Duration":134312,"SoundDuration":134312,"Delta":124876901},{"NoteNumber":68,"Velocity":66,"Duration":100734,"SoundDuration":100734,"Delta":124876901},{"NoteNumber":71,"Velocity":66,"Duration":100734,"SoundDuration":100734,"Delta":124876901},{"NoteNumber":77,"Velocity":65,"Duration":134312,"SoundDuration":134312,"Delta":125011213},{"NoteNumber":71,"Velocity":58,"Duration":100734,"SoundDuration":100734,"Delta":125011213},{"NoteNumber":68,"Velocity":58,"Duration":100734,"SoundDuration":100734,"Delta":125011213},{"NoteNumber":72,"Velocity":70,"Duration":134514,"SoundDuration":134514,"Delta":125145526},{"NoteNumber":65,"Velocity":66,"Duration":101030,"SoundDuration":101030,"Delta":125145526},{"NoteNumber":68,"Velocity":66,"Duration":101030,"SoundDuration":101030,"Delta":125145526},{"NoteNumber":73,"Velocity":66,"Duration":133161,"SoundDuration":133161,"Delta":125280040},{"NoteNumber":65,"Velocity":58,"Duration":100016,"SoundDuration":100016,"Delta":125280040},{"NoteNumber":68,"Velocity":58,"Duration":100016,"SoundDuration":100016,"Delta":125280040},{"NoteNumber":76,"Velocity":71,"Duration":131729,"SoundDuration":131729,"Delta":125413201},{"NoteNumber":68,"Velocity":66,"Duration":98962,"SoundDuration":98962,"Delta":125413201},{"NoteNumber":61,"Velocity":66,"Duration":98962,"SoundDuration":98962,"Delta":125413201},{"NoteNumber":77,"Velocity":67,"Duration":137312,"SoundDuration":137312,"Delta":125544931},{"NoteNumber":68,"Velocity":59,"Duration":102984,"SoundDuration":102984,"Delta":125544931},{"NoteNumber":61,"Velocity":59,"Duration":102984,"SoundDuration":102984,"Delta":125544931},{"NoteNumber":63,"Velocity":70,"Duration":141096,"SoundDuration":141096,"Delta":125682243},{"NoteNumber":64,"Velocity":65,"Duration":136798,"SoundDuration":136798,"Delta":125823340},{"NoteNumber":76,"Velocity":85,"Duration":136799,"SoundDuration":136799,"Delta":125960139},{"NoteNumber":73,"Velocity":85,"Duration":273598,"SoundDuration":273598,"Delta":125960139},{"NoteNumber":68,"Velocity":66,"Duration":273598,"SoundDuration":273598,"Delta":125960139},{"NoteNumber":70,"Velocity":66,"Duration":273598,"SoundDuration":273598,"Delta":125960139},{"NoteNumber":82,"Velocity":80,"Duration":136798,"SoundDuration":136798,"Delta":126096938},{"NoteNumber":76,"Velocity":89,"Duration":274252,"SoundDuration":274252,"Delta":126233737},{"NoteNumber":74,"Velocity":89,"Duration":274252,"SoundDuration":274252,"Delta":126233737},{"NoteNumber":70,"Velocity":77,"Duration":141096,"SoundDuration":141096,"Delta":126233737},{"NoteNumber":68,"Velocity":72,"Duration":133155,"SoundDuration":133155,"Delta":126374834},{"NoteNumber":82,"Velocity":68,"Duration":68965,"SoundDuration":68965,"Delta":126507989},{"NoteNumber":81,"Velocity":68,"Duration":68965,"SoundDuration":68965,"Delta":126507989},{"NoteNumber":62,"Velocity":67,"Duration":137930,"SoundDuration":137930,"Delta":126507989},{"NoteNumber":64,"Velocity":67,"Duration":137930,"SoundDuration":137930,"Delta":126507989},{"NoteNumber":82,"Velocity":68,"Duration":68965,"SoundDuration":68965,"Delta":126645920},{"NoteNumber":81,"Velocity":68,"Duration":68965,"SoundDuration":68965,"Delta":126645920},{"NoteNumber":63,"Velocity":70,"Duration":141096,"SoundDuration":141096,"Delta":126783851},{"NoteNumber":64,"Velocity":65,"Duration":136798,"SoundDuration":136798,"Delta":126924948},{"NoteNumber":76,"Velocity":85,"Duration":136799,"SoundDuration":136799,"Delta":127061747},{"NoteNumber":73,"Velocity":85,"Duration":273598,"SoundDuration":273598,"Delta":127061747},{"NoteNumber":68,"Velocity":66,"Duration":273598,"SoundDuration":273598,"Delta":127061747},{"NoteNumber":70,"Velocity":66,"Duration":273598,"SoundDuration":273598,"Delta":127061747},{"NoteNumber":82,"Velocity":80,"Duration":136798,"SoundDuration":136798,"Delta":127198546},{"NoteNumber":63,"Velocity":70,"Duration":141096,"SoundDuration":141096,"Delta":127335345},{"NoteNumber":64,"Velocity":65,"Duration":136798,"SoundDuration":136798,"Delta":127476442},{"NoteNumber":76,"Velocity":85,"Duration":136799,"SoundDuration":136799,"Delta":127613241},{"NoteNumber":74,"Velocity":85,"Duration":273598,"SoundDuration":273598,"Delta":127613241},{"NoteNumber":68,"Velocity":66,"Duration":273598,"SoundDuration":273598,"Delta":127613241},{"NoteNumber":71,"Velocity":66,"Duration":273598,"SoundDuration":273598,"Delta":127613241},{"NoteNumber":83,"Velocity":80,"Duration":136798,"SoundDuration":136798,"Delta":127750040},{"NoteNumber":76,"Velocity":89,"Duration":274252,"SoundDuration":274252,"Delta":127886839},{"NoteNumber":74,"Velocity":89,"Duration":274252,"SoundDuration":274252,"Delta":127886839},{"NoteNumber":70,"Velocity":77,"Duration":141096,"SoundDuration":141096,"Delta":127886839},{"NoteNumber":68,"Velocity":72,"Duration":133155,"SoundDuration":133155,"Delta":128027936},{"NoteNumber":82,"Velocity":72,"Duration":68965,"SoundDuration":68965,"Delta":128161091},{"NoteNumber":80,"Velocity":72,"Duration":68965,"SoundDuration":68965,"Delta":128161091},{"NoteNumber":62,"Velocity":67,"Duration":275861,"SoundDuration":275861,"Delta":128161091},{"NoteNumber":64,"Velocity":67,"Duration":275861,"SoundDuration":275861,"Delta":128161091},{"NoteNumber":82,"Velocity":72,"Duration":68965,"SoundDuration":68965,"Delta":128299022},{"NoteNumber":80,"Velocity":72,"Duration":68965,"SoundDuration":68965,"Delta":128299022},{"NoteNumber":63,"Velocity":70,"Duration":141096,"SoundDuration":141096,"Delta":128436953},{"NoteNumber":64,"Velocity":65,"Duration":136798,"SoundDuration":136798,"Delta":128578050},{"NoteNumber":76,"Velocity":85,"Duration":136798,"SoundDuration":136798,"Delta":128714849},{"NoteNumber":74,"Velocity":85,"Duration":273597,"SoundDuration":273597,"Delta":128714849},{"NoteNumber":68,"Velocity":66,"Duration":273597,"SoundDuration":273597,"Delta":128714849},{"NoteNumber":71,"Velocity":66,"Duration":273597,"SoundDuration":273597,"Delta":128714849},{"NoteNumber":83,"Velocity":80,"Duration":136798,"SoundDuration":136798,"Delta":128851648},{"NoteNumber":63,"Velocity":70,"Duration":141096,"SoundDuration":141096,"Delta":128988447},{"NoteNumber":64,"Velocity":65,"Duration":136798,"SoundDuration":136798,"Delta":129129544},{"NoteNumber":79,"Velocity":85,"Duration":136798,"SoundDuration":136798,"Delta":129266343},{"NoteNumber":76,"Velocity":85,"Duration":273597,"SoundDuration":273597,"Delta":129266343},{"NoteNumber":69,"Velocity":66,"Duration":273597,"SoundDuration":273597,"Delta":129266343},{"NoteNumber":73,"Velocity":66,"Duration":273597,"SoundDuration":273597,"Delta":129266343},{"NoteNumber":85,"Velocity":80,"Duration":136798,"SoundDuration":136798,"Delta":129403142},{"NoteNumber":76,"Velocity":89,"Duration":274252,"SoundDuration":274252,"Delta":129539941},{"NoteNumber":74,"Velocity":89,"Duration":274252,"SoundDuration":274252,"Delta":129539941},{"NoteNumber":70,"Velocity":77,"Duration":141096,"SoundDuration":141096,"Delta":129539941},{"NoteNumber":68,"Velocity":72,"Duration":133155,"SoundDuration":133155,"Delta":129681038},{"NoteNumber":82,"Velocity":73,"Duration":68965,"SoundDuration":68965,"Delta":129814193},{"NoteNumber":80,"Velocity":73,"Duration":68965,"SoundDuration":68965,"Delta":129814193},{"NoteNumber":62,"Velocity":67,"Duration":137931,"SoundDuration":137931,"Delta":129814193},{"NoteNumber":64,"Velocity":67,"Duration":137931,"SoundDuration":137931,"Delta":129814193},{"NoteNumber":82,"Velocity":73,"Duration":68965,"SoundDuration":68965,"Delta":129952124},{"NoteNumber":80,"Velocity":73,"Duration":68965,"SoundDuration":68965,"Delta":129952124},{"NoteNumber":63,"Velocity":70,"Duration":141096,"SoundDuration":141096,"Delta":130090055},{"NoteNumber":64,"Velocity":65,"Duration":136798,"SoundDuration":136798,"Delta":130231152},{"NoteNumber":79,"Velocity":85,"Duration":136798,"SoundDuration":136798,"Delta":130367951},{"NoteNumber":76,"Velocity":85,"Duration":273597,"SoundDuration":273597,"Delta":130367951},{"NoteNumber":69,"Velocity":66,"Duration":273597,"SoundDuration":273597,"Delta":130367951},{"NoteNumber":73,"Velocity":66,"Duration":273597,"SoundDuration":273597,"Delta":130367951},{"NoteNumber":85,"Velocity":80,"Duration":136798,"SoundDuration":136798,"Delta":130504750},{"NoteNumber":63,"Velocity":70,"Duration":141096,"SoundDuration":141096,"Delta":130641549},{"NoteNumber":64,"Velocity":65,"Duration":136798,"SoundDuration":136798,"Delta":130782646},{"NoteNumber":79,"Velocity":85,"Duration":136798,"SoundDuration":136798,"Delta":130919445},{"NoteNumber":76,"Velocity":85,"Duration":273597,"SoundDuration":273597,"Delta":130919445},{"NoteNumber":69,"Velocity":66,"Duration":273597,"SoundDuration":273597,"Delta":130919445},{"NoteNumber":73,"Velocity":66,"Duration":273597,"SoundDuration":273597,"Delta":130919445},{"NoteNumber":85,"Velocity":80,"Duration":136798,"SoundDuration":136798,"Delta":131056244},{"NoteNumber":63,"Velocity":70,"Duration":141096,"SoundDuration":141096,"Delta":131193043},{"NoteNumber":64,"Velocity":65,"Duration":136798,"SoundDuration":136798,"Delta":131334140},{"NoteNumber":79,"Velocity":85,"Duration":136798,"SoundDuration":136798,"Delta":131470939},{"NoteNumber":76,"Velocity":85,"Duration":273597,"SoundDuration":273597,"Delta":131470939},{"NoteNumber":69,"Velocity":66,"Duration":273597,"SoundDuration":273597,"Delta":131470939},{"NoteNumber":73,"Velocity":66,"Duration":273597,"SoundDuration":273597,"Delta":131470939},{"NoteNumber":85,"Velocity":80,"Duration":136798,"SoundDuration":136798,"Delta":131607738},{"NoteNumber":68,"Velocity":70,"Duration":141096,"SoundDuration":141096,"Delta":131744537},{"NoteNumber":69,"Velocity":65,"Duration":136798,"SoundDuration":136798,"Delta":131885633},{"NoteNumber":81,"Velocity":85,"Duration":140647,"SoundDuration":140647,"Delta":132022432},{"NoteNumber":79,"Velocity":85,"Duration":281294,"SoundDuration":281294,"Delta":132022432},{"NoteNumber":76,"Velocity":66,"Duration":281294,"SoundDuration":281294,"Delta":132022432},{"NoteNumber":73,"Velocity":66,"Duration":281294,"SoundDuration":281294,"Delta":132022432},{"NoteNumber":88,"Velocity":76,"Duration":140647,"SoundDuration":140647,"Delta":132163079},{"NoteNumber":81,"Velocity":89,"Duration":142639,"SoundDuration":142639,"Delta":132303726},{"NoteNumber":79,"Velocity":89,"Duration":285279,"SoundDuration":285279,"Delta":132303726},{"NoteNumber":76,"Velocity":66,"Duration":285279,"SoundDuration":285279,"Delta":132303726},{"NoteNumber":73,"Velocity":66,"Duration":285279,"SoundDuration":285279,"Delta":132303726},{"NoteNumber":88,"Velocity":81,"Duration":142639,"SoundDuration":142639,"Delta":132446366},{"NoteNumber":81,"Velocity":93,"Duration":146113,"SoundDuration":146113,"Delta":132589006},{"NoteNumber":79,"Velocity":93,"Duration":292226,"SoundDuration":292226,"Delta":132589006},{"NoteNumber":76,"Velocity":66,"Duration":292226,"SoundDuration":292226,"Delta":132589006},{"NoteNumber":73,"Velocity":66,"Duration":292226,"SoundDuration":292226,"Delta":132589006},{"NoteNumber":88,"Velocity":80,"Duration":146113,"SoundDuration":146113,"Delta":132735119},{"NoteNumber":74,"Velocity":94,"Duration":68088,"SoundDuration":68088,"Delta":132881233},{"NoteNumber":62,"Velocity":79,"Duration":68088,"SoundDuration":68088,"Delta":132881233},{"NoteNumber":74,"Velocity":86,"Duration":67990,"SoundDuration":67990,"Delta":133017411},{"NoteNumber":62,"Velocity":71,"Duration":67990,"SoundDuration":67990,"Delta":133017411},{"NoteNumber":74,"Velocity":94,"Duration":67689,"SoundDuration":67689,"Delta":133153195},{"NoteNumber":62,"Velocity":79,"Duration":67689,"SoundDuration":67689,"Delta":133153195},{"NoteNumber":74,"Velocity":85,"Duration":67482,"SoundDuration":67482,"Delta":133288367},{"NoteNumber":62,"Velocity":71,"Duration":67482,"SoundDuration":67482,"Delta":133288367},{"NoteNumber":74,"Velocity":94,"Duration":67180,"SoundDuration":67180,"Delta":133423131},{"NoteNumber":62,"Velocity":80,"Duration":67180,"SoundDuration":67180,"Delta":133423131},{"NoteNumber":75,"Velocity":88,"Duration":66892,"SoundDuration":66892,"Delta":133557299},{"NoteNumber":63,"Velocity":73,"Duration":66892,"SoundDuration":66892,"Delta":133557299},{"NoteNumber":74,"Velocity":94,"Duration":66589,"SoundDuration":66589,"Delta":133691085},{"NoteNumber":62,"Velocity":81,"Duration":66589,"SoundDuration":66589,"Delta":133691085},{"NoteNumber":77,"Velocity":88,"Duration":66295,"SoundDuration":66295,"Delta":133824264},{"NoteNumber":65,"Velocity":71,"Duration":66295,"SoundDuration":66295,"Delta":133824264},{"NoteNumber":74,"Velocity":94,"Duration":66009,"SoundDuration":66009,"Delta":133956855},{"NoteNumber":62,"Velocity":81,"Duration":66009,"SoundDuration":66009,"Delta":133956855},{"NoteNumber":74,"Velocity":86,"Duration":66009,"SoundDuration":66009,"Delta":134088874},{"NoteNumber":62,"Velocity":72,"Duration":66009,"SoundDuration":66009,"Delta":134088874},{"NoteNumber":74,"Velocity":94,"Duration":66009,"SoundDuration":66009,"Delta":134220893},{"NoteNumber":62,"Velocity":81,"Duration":66009,"SoundDuration":66009,"Delta":134220893},{"NoteNumber":74,"Velocity":86,"Duration":66009,"SoundDuration":66009,"Delta":134352912},{"NoteNumber":62,"Velocity":73,"Duration":66009,"SoundDuration":66009,"Delta":134352912},{"NoteNumber":74,"Velocity":94,"Duration":66009,"SoundDuration":66009,"Delta":134484931},{"NoteNumber":62,"Velocity":81,"Duration":66009,"SoundDuration":66009,"Delta":134484931},{"NoteNumber":76,"Velocity":86,"Duration":66009,"SoundDuration":66009,"Delta":134616950},{"NoteNumber":64,"Velocity":73,"Duration":66009,"SoundDuration":66009,"Delta":134616950},{"NoteNumber":74,"Velocity":94,"Duration":66009,"SoundDuration":66009,"Delta":134748969},{"NoteNumber":62,"Velocity":81,"Duration":66009,"SoundDuration":66009,"Delta":134748969},{"NoteNumber":81,"Velocity":85,"Duration":66009,"SoundDuration":66009,"Delta":134880988},{"NoteNumber":69,"Velocity":72,"Duration":66009,"SoundDuration":66009,"Delta":134880988},{"NoteNumber":74,"Velocity":92,"Duration":66009,"SoundDuration":66009,"Delta":135013007},{"NoteNumber":74,"Velocity":87,"Duration":66009,"SoundDuration":66009,"Delta":135145026},{"NoteNumber":74,"Velocity":86,"Duration":66009,"SoundDuration":66009,"Delta":135277045},{"NoteNumber":74,"Velocity":86,"Duration":66009,"SoundDuration":66009,"Delta":135409064},{"NoteNumber":74,"Velocity":92,"Duration":98253,"SoundDuration":98253,"Delta":135541083},{"NoteNumber":74,"Velocity":92,"Duration":98253,"SoundDuration":98253,"Delta":135672087},{"NoteNumber":73,"Velocity":75,"Duration":131004,"SoundDuration":131004,"Delta":135672087},{"NoteNumber":74,"Velocity":91,"Duration":98684,"SoundDuration":98684,"Delta":135803091},{"NoteNumber":72,"Velocity":74,"Duration":131578,"SoundDuration":131578,"Delta":135803091},{"NoteNumber":74,"Velocity":91,"Duration":98684,"SoundDuration":98684,"Delta":135934670},{"NoteNumber":71,"Velocity":73,"Duration":131579,"SoundDuration":131579,"Delta":135934670},{"NoteNumber":74,"Velocity":90,"Duration":99118,"SoundDuration":99118,"Delta":136066249},{"NoteNumber":70,"Velocity":72,"Duration":132158,"SoundDuration":132158,"Delta":136066249},{"NoteNumber":74,"Velocity":90,"Duration":99118,"SoundDuration":99118,"Delta":136198408},{"NoteNumber":69,"Velocity":72,"Duration":132158,"SoundDuration":132158,"Delta":136198408},{"NoteNumber":74,"Velocity":89,"Duration":99557,"SoundDuration":99557,"Delta":136330566},{"NoteNumber":68,"Velocity":71,"Duration":132743,"SoundDuration":132743,"Delta":136330566},{"NoteNumber":74,"Velocity":88,"Duration":99557,"SoundDuration":99557,"Delta":136463310},{"NoteNumber":67,"Velocity":70,"Duration":132743,"SoundDuration":132743,"Delta":136463310},{"NoteNumber":74,"Velocity":88,"Duration":99999,"SoundDuration":99999,"Delta":136596053},{"NoteNumber":66,"Velocity":69,"Duration":133333,"SoundDuration":133333,"Delta":136596053},{"NoteNumber":74,"Velocity":87,"Duration":99999,"SoundDuration":99999,"Delta":136729386},{"NoteNumber":65,"Velocity":68,"Duration":133333,"SoundDuration":133333,"Delta":136729386},{"NoteNumber":74,"Velocity":87,"Duration":100446,"SoundDuration":100446,"Delta":136862719},{"NoteNumber":64,"Velocity":67,"Duration":133928,"SoundDuration":133928,"Delta":136862719},{"NoteNumber":74,"Velocity":86,"Duration":100496,"SoundDuration":100496,"Delta":136996648},{"NoteNumber":63,"Velocity":66,"Duration":134128,"SoundDuration":134128,"Delta":136996648},{"NoteNumber":70,"Velocity":85,"Duration":65789,"SoundDuration":65789,"Delta":137130777},{"NoteNumber":63,"Velocity":56,"Duration":98684,"SoundDuration":98684,"Delta":137130777},{"NoteNumber":67,"Velocity":56,"Duration":98684,"SoundDuration":98684,"Delta":137130777},{"NoteNumber":69,"Velocity":74,"Duration":65789,"SoundDuration":65789,"Delta":137262356},{"NoteNumber":63,"Velocity":52,"Duration":98684,"SoundDuration":98684,"Delta":137262356},{"NoteNumber":67,"Velocity":52,"Duration":98684,"SoundDuration":98684,"Delta":137262356},{"NoteNumber":72,"Velocity":76,"Duration":65502,"SoundDuration":65502,"Delta":137393935},{"NoteNumber":63,"Velocity":56,"Duration":98253,"SoundDuration":98253,"Delta":137393935},{"NoteNumber":67,"Velocity":56,"Duration":98253,"SoundDuration":98253,"Delta":137393935},{"NoteNumber":70,"Velocity":70,"Duration":65502,"SoundDuration":65502,"Delta":137524939},{"NoteNumber":63,"Velocity":50,"Duration":98253,"SoundDuration":98253,"Delta":137524939},{"NoteNumber":67,"Velocity":50,"Duration":98253,"SoundDuration":98253,"Delta":137524939},{"NoteNumber":75,"Velocity":80,"Duration":65217,"SoundDuration":65217,"Delta":137655943},{"NoteNumber":63,"Velocity":56,"Duration":97826,"SoundDuration":97826,"Delta":137655943},{"NoteNumber":67,"Velocity":56,"Duration":97826,"SoundDuration":97826,"Delta":137655943},{"NoteNumber":74,"Velocity":74,"Duration":65217,"SoundDuration":65217,"Delta":137786378},{"NoteNumber":63,"Velocity":52,"Duration":97826,"SoundDuration":97826,"Delta":137786378},{"NoteNumber":67,"Velocity":52,"Duration":97826,"SoundDuration":97826,"Delta":137786378},{"NoteNumber":77,"Velocity":76,"Duration":65217,"SoundDuration":65217,"Delta":137916813},{"NoteNumber":63,"Velocity":56,"Duration":97826,"SoundDuration":97826,"Delta":137916813},{"NoteNumber":67,"Velocity":56,"Duration":97826,"SoundDuration":97826,"Delta":137916813},{"NoteNumber":75,"Velocity":72,"Duration":65217,"SoundDuration":65217,"Delta":138047247},{"NoteNumber":63,"Velocity":50,"Duration":97826,"SoundDuration":97826,"Delta":138047247},{"NoteNumber":67,"Velocity":50,"Duration":97826,"SoundDuration":97826,"Delta":138047247},{"NoteNumber":78,"Velocity":78,"Duration":65217,"SoundDuration":65217,"Delta":138177682},{"NoteNumber":70,"Velocity":56,"Duration":97826,"SoundDuration":97826,"Delta":138177682},{"NoteNumber":67,"Velocity":56,"Duration":97826,"SoundDuration":97826,"Delta":138177682},{"NoteNumber":79,"Velocity":75,"Duration":64588,"SoundDuration":64588,"Delta":138308117},{"NoteNumber":70,"Velocity":50,"Duration":96882,"SoundDuration":96882,"Delta":138308117},{"NoteNumber":67,"Velocity":50,"Duration":96882,"SoundDuration":96882,"Delta":138308117},{"NoteNumber":84,"Velocity":93,"Duration":129870,"SoundDuration":129870,"Delta":138437294},{"NoteNumber":70,"Velocity":59,"Duration":97402,"SoundDuration":97402,"Delta":138437294},{"NoteNumber":67,"Velocity":59,"Duration":97402,"SoundDuration":97402,"Delta":138437294},{"NoteNumber":82,"Velocity":77,"Duration":131428,"SoundDuration":131428,"Delta":138567164},{"NoteNumber":70,"Velocity":51,"Duration":98571,"SoundDuration":98571,"Delta":138567164},{"NoteNumber":67,"Velocity":51,"Duration":98571,"SoundDuration":98571,"Delta":138567164},{"NoteNumber":80,"Velocity":81,"Duration":130855,"SoundDuration":130855,"Delta":138698593},{"NoteNumber":70,"Velocity":58,"Duration":98141,"SoundDuration":98141,"Delta":138698593},{"NoteNumber":67,"Velocity":58,"Duration":98141,"SoundDuration":98141,"Delta":138698593},{"NoteNumber":79,"Velocity":74,"Duration":130855,"SoundDuration":130855,"Delta":138829449},{"NoteNumber":70,"Velocity":53,"Duration":98141,"SoundDuration":98141,"Delta":138829449},{"NoteNumber":67,"Velocity":53,"Duration":98141,"SoundDuration":98141,"Delta":138829449},{"NoteNumber":77,"Velocity":78,"Duration":130855,"SoundDuration":130855,"Delta":138960304},{"NoteNumber":70,"Velocity":56,"Duration":98141,"SoundDuration":98141,"Delta":138960304},{"NoteNumber":67,"Velocity":56,"Duration":98141,"SoundDuration":98141,"Delta":138960304},{"NoteNumber":75,"Velocity":73,"Duration":130855,"SoundDuration":130855,"Delta":139091160},{"NoteNumber":70,"Velocity":51,"Duration":98141,"SoundDuration":98141,"Delta":139091160},{"NoteNumber":67,"Velocity":51,"Duration":98141,"SoundDuration":98141,"Delta":139091160},{"NoteNumber":83,"Velocity":73,"Duration":64588,"SoundDuration":64588,"Delta":139222016},{"NoteNumber":68,"Velocity":54,"Duration":96882,"SoundDuration":96882,"Delta":139222016},{"NoteNumber":71,"Velocity":54,"Duration":96882,"SoundDuration":96882,"Delta":139222016},{"NoteNumber":77,"Velocity":69,"Duration":66589,"SoundDuration":66589,"Delta":139351193},{"NoteNumber":68,"Velocity":48,"Duration":99884,"SoundDuration":99884,"Delta":139351193},{"NoteNumber":71,"Velocity":48,"Duration":99884,"SoundDuration":99884,"Delta":139351193},{"NoteNumber":82,"Velocity":99,"Duration":130855,"SoundDuration":130855,"Delta":139484372},{"NoteNumber":71,"Velocity":54,"Duration":98141,"SoundDuration":98141,"Delta":139484372},{"NoteNumber":75,"Velocity":54,"Duration":98141,"SoundDuration":98141,"Delta":139484372},{"NoteNumber":80,"Velocity":78,"Duration":130855,"SoundDuration":130855,"Delta":139615228},{"NoteNumber":71,"Velocity":49,"Duration":98141,"SoundDuration":98141,"Delta":139615228},{"NoteNumber":75,"Velocity":49,"Duration":98141,"SoundDuration":98141,"Delta":139615228},{"NoteNumber":83,"Velocity":74,"Duration":64867,"SoundDuration":64867,"Delta":139746084},{"NoteNumber":68,"Velocity":55,"Duration":97301,"SoundDuration":97301,"Delta":139746084},{"NoteNumber":71,"Velocity":55,"Duration":97301,"SoundDuration":97301,"Delta":139746084},{"NoteNumber":77,"Velocity":69,"Duration":64867,"SoundDuration":64867,"Delta":139875819},{"NoteNumber":68,"Velocity":51,"Duration":97301,"SoundDuration":97301,"Delta":139875819},{"NoteNumber":71,"Velocity":51,"Duration":97301,"SoundDuration":97301,"Delta":139875819},{"NoteNumber":82,"Velocity":99,"Duration":130855,"SoundDuration":130855,"Delta":140005554},{"NoteNumber":71,"Velocity":54,"Duration":98141,"SoundDuration":98141,"Delta":140005554},{"NoteNumber":75,"Velocity":54,"Duration":98141,"SoundDuration":98141,"Delta":140005554},{"NoteNumber":80,"Velocity":76,"Duration":133179,"SoundDuration":133179,"Delta":140136410},{"NoteNumber":71,"Velocity":51,"Duration":99884,"SoundDuration":99884,"Delta":140136410},{"NoteNumber":75,"Velocity":51,"Duration":99884,"SoundDuration":99884,"Delta":140136410},{"NoteNumber":83,"Velocity":98,"Duration":64588,"SoundDuration":64588,"Delta":140269589},{"NoteNumber":68,"Velocity":51,"Duration":96882,"SoundDuration":96882,"Delta":140269589},{"NoteNumber":74,"Velocity":51,"Duration":96882,"SoundDuration":96882,"Delta":140269589},{"NoteNumber":77,"Velocity":73,"Duration":66892,"SoundDuration":66892,"Delta":140398766},{"NoteNumber":68,"Velocity":42,"Duration":100338,"SoundDuration":100338,"Delta":140398766},{"NoteNumber":74,"Velocity":42,"Duration":100338,"SoundDuration":100338,"Delta":140398766},{"NoteNumber":82,"Velocity":89,"Duration":64867,"SoundDuration":64867,"Delta":140532551},{"NoteNumber":68,"Velocity":49,"Duration":97301,"SoundDuration":97301,"Delta":140532551},{"NoteNumber":74,"Velocity":49,"Duration":97301,"SoundDuration":97301,"Delta":140532551},{"NoteNumber":77,"Velocity":71,"Duration":66892,"SoundDuration":66892,"Delta":140662287},{"NoteNumber":68,"Velocity":39,"Duration":100338,"SoundDuration":100338,"Delta":140662287},{"NoteNumber":74,"Velocity":39,"Duration":100338,"SoundDuration":100338,"Delta":140662287},{"NoteNumber":81,"Velocity":83,"Duration":65149,"SoundDuration":65149,"Delta":140796072},{"NoteNumber":65,"Velocity":47,"Duration":97724,"SoundDuration":97724,"Delta":140796072},{"NoteNumber":70,"Velocity":47,"Duration":97724,"SoundDuration":97724,"Delta":140796072},{"NoteNumber":74,"Velocity":69,"Duration":66589,"SoundDuration":66589,"Delta":140926371},{"NoteNumber":65,"Velocity":38,"Duration":99884,"SoundDuration":99884,"Delta":140926371},{"NoteNumber":70,"Velocity":38,"Duration":99884,"SoundDuration":99884,"Delta":140926371},{"NoteNumber":80,"Velocity":82,"Duration":65427,"SoundDuration":65427,"Delta":141059550},{"NoteNumber":65,"Velocity":46,"Duration":98141,"SoundDuration":98141,"Delta":141059550},{"NoteNumber":70,"Velocity":46,"Duration":98141,"SoundDuration":98141,"Delta":141059550},{"NoteNumber":74,"Velocity":68,"Duration":66892,"SoundDuration":66892,"Delta":141190406},{"NoteNumber":65,"Velocity":36,"Duration":100338,"SoundDuration":100338,"Delta":141190406},{"NoteNumber":70,"Velocity":36,"Duration":100338,"SoundDuration":100338,"Delta":141190406},{"NoteNumber":70,"Velocity":81,"Duration":65427,"SoundDuration":65427,"Delta":141324191},{"NoteNumber":63,"Velocity":56,"Duration":98141,"SoundDuration":98141,"Delta":141324191},{"NoteNumber":67,"Velocity":56,"Duration":98141,"SoundDuration":98141,"Delta":141324191},{"NoteNumber":69,"Velocity":74,"Duration":65427,"SoundDuration":65427,"Delta":141455047},{"NoteNumber":63,"Velocity":52,"Duration":98141,"SoundDuration":98141,"Delta":141455047},{"NoteNumber":67,"Velocity":52,"Duration":98141,"SoundDuration":98141,"Delta":141455047},{"NoteNumber":72,"Velocity":76,"Duration":65427,"SoundDuration":65427,"Delta":141585903},{"NoteNumber":63,"Velocity":56,"Duration":98141,"SoundDuration":98141,"Delta":141585903},{"NoteNumber":67,"Velocity":56,"Duration":98141,"SoundDuration":98141,"Delta":141585903},{"NoteNumber":70,"Velocity":70,"Duration":65427,"SoundDuration":65427,"Delta":141716758},{"NoteNumber":63,"Velocity":50,"Duration":98141,"SoundDuration":98141,"Delta":141716758},{"NoteNumber":67,"Velocity":50,"Duration":98141,"SoundDuration":98141,"Delta":141716758},{"NoteNumber":75,"Velocity":80,"Duration":65427,"SoundDuration":65427,"Delta":141847614},{"NoteNumber":63,"Velocity":56,"Duration":98141,"SoundDuration":98141,"Delta":141847614},{"NoteNumber":67,"Velocity":56,"Duration":98141,"SoundDuration":98141,"Delta":141847614},{"NoteNumber":74,"Velocity":74,"Duration":65427,"SoundDuration":65427,"Delta":141978470},{"NoteNumber":63,"Velocity":52,"Duration":98141,"SoundDuration":98141,"Delta":141978470},{"NoteNumber":67,"Velocity":52,"Duration":98141,"SoundDuration":98141,"Delta":141978470},{"NoteNumber":77,"Velocity":76,"Duration":65427,"SoundDuration":65427,"Delta":142109326},{"NoteNumber":63,"Velocity":56,"Duration":98141,"SoundDuration":98141,"Delta":142109326},{"NoteNumber":67,"Velocity":56,"Duration":98141,"SoundDuration":98141,"Delta":142109326},{"NoteNumber":75,"Velocity":72,"Duration":65427,"SoundDuration":65427,"Delta":142240181},{"NoteNumber":63,"Velocity":50,"Duration":98141,"SoundDuration":98141,"Delta":142240181},{"NoteNumber":67,"Velocity":50,"Duration":98141,"SoundDuration":98141,"Delta":142240181},{"NoteNumber":78,"Velocity":78,"Duration":65427,"SoundDuration":65427,"Delta":142371037},{"NoteNumber":70,"Velocity":56,"Duration":98141,"SoundDuration":98141,"Delta":142371037},{"NoteNumber":67,"Velocity":56,"Duration":98141,"SoundDuration":98141,"Delta":142371037},{"NoteNumber":79,"Velocity":75,"Duration":64588,"SoundDuration":64588,"Delta":142501893},{"NoteNumber":70,"Velocity":50,"Duration":96882,"SoundDuration":96882,"Delta":142501893},{"NoteNumber":67,"Velocity":50,"Duration":96882,"SoundDuration":96882,"Delta":142501893},{"NoteNumber":84,"Velocity":94,"Duration":129870,"SoundDuration":129870,"Delta":142631070},{"NoteNumber":70,"Velocity":59,"Duration":97402,"SoundDuration":97402,"Delta":142631070},{"NoteNumber":67,"Velocity":59,"Duration":97402,"SoundDuration":97402,"Delta":142631070},{"NoteNumber":82,"Velocity":77,"Duration":131428,"SoundDuration":131428,"Delta":142760940},{"NoteNumber":70,"Velocity":51,"Duration":98571,"SoundDuration":98571,"Delta":142760940},{"NoteNumber":67,"Velocity":51,"Duration":98571,"SoundDuration":98571,"Delta":142760940},{"NoteNumber":80,"Velocity":81,"Duration":130855,"SoundDuration":130855,"Delta":142892369},{"NoteNumber":70,"Velocity":58,"Duration":98141,"SoundDuration":98141,"Delta":142892369},{"NoteNumber":67,"Velocity":58,"Duration":98141,"SoundDuration":98141,"Delta":142892369},{"NoteNumber":79,"Velocity":74,"Duration":130855,"SoundDuration":130855,"Delta":143023225},{"NoteNumber":70,"Velocity":53,"Duration":98141,"SoundDuration":98141,"Delta":143023225},{"NoteNumber":67,"Velocity":53,"Duration":98141,"SoundDuration":98141,"Delta":143023225},{"NoteNumber":77,"Velocity":78,"Duration":130855,"SoundDuration":130855,"Delta":143154080},{"NoteNumber":70,"Velocity":56,"Duration":98141,"SoundDuration":98141,"Delta":143154080},{"NoteNumber":67,"Velocity":56,"Duration":98141,"SoundDuration":98141,"Delta":143154080},{"NoteNumber":75,"Velocity":73,"Duration":134964,"SoundDuration":134964,"Delta":143284936},{"NoteNumber":70,"Velocity":51,"Duration":101223,"SoundDuration":101223,"Delta":143284936},{"NoteNumber":67,"Velocity":51,"Duration":101223,"SoundDuration":101223,"Delta":143284936},{"NoteNumber":90,"Velocity":87,"Duration":65427,"SoundDuration":65427,"Delta":143419901},{"NoteNumber":71,"Velocity":57,"Duration":98141,"SoundDuration":98141,"Delta":143419901},{"NoteNumber":75,"Velocity":57,"Duration":98141,"SoundDuration":98141,"Delta":143419901},{"NoteNumber":78,"Velocity":57,"Duration":523423,"SoundDuration":523423,"Delta":143419901},{"NoteNumber":87,"Velocity":69,"Duration":65427,"SoundDuration":65427,"Delta":143550757},{"NoteNumber":71,"Velocity":51,"Duration":98141,"SoundDuration":98141,"Delta":143550757},{"NoteNumber":75,"Velocity":51,"Duration":98141,"SoundDuration":98141,"Delta":143550757},{"NoteNumber":85,"Velocity":73,"Duration":65427,"SoundDuration":65427,"Delta":143681613},{"NoteNumber":71,"Velocity":53,"Duration":98141,"SoundDuration":98141,"Delta":143681613},{"NoteNumber":75,"Velocity":53,"Duration":98141,"SoundDuration":98141,"Delta":143681613},{"NoteNumber":83,"Velocity":69,"Duration":65427,"SoundDuration":65427,"Delta":143812468},{"NoteNumber":71,"Velocity":47,"Duration":98141,"SoundDuration":98141,"Delta":143812468},{"NoteNumber":75,"Velocity":47,"Duration":98141,"SoundDuration":98141,"Delta":143812468},{"NoteNumber":82,"Velocity":96,"Duration":130855,"SoundDuration":130855,"Delta":143943324},{"NoteNumber":68,"Velocity":53,"Duration":98141,"SoundDuration":98141,"Delta":143943324},{"NoteNumber":71,"Velocity":53,"Duration":98141,"SoundDuration":98141,"Delta":143943324},{"NoteNumber":76,"Velocity":53,"Duration":526927,"SoundDuration":526927,"Delta":143943324},{"NoteNumber":85,"Velocity":70,"Duration":134360,"SoundDuration":134360,"Delta":144074180},{"NoteNumber":68,"Velocity":47,"Duration":100770,"SoundDuration":100770,"Delta":144074180},{"NoteNumber":71,"Velocity":47,"Duration":100770,"SoundDuration":100770,"Delta":144074180},{"NoteNumber":83,"Velocity":81,"Duration":130855,"SoundDuration":130855,"Delta":144208540},{"NoteNumber":68,"Velocity":55,"Duration":98141,"SoundDuration":98141,"Delta":144208540},{"NoteNumber":71,"Velocity":55,"Duration":98141,"SoundDuration":98141,"Delta":144208540},{"NoteNumber":80,"Velocity":74,"Duration":130855,"SoundDuration":130855,"Delta":144339396},{"NoteNumber":68,"Velocity":48,"Duration":98141,"SoundDuration":98141,"Delta":144339396},{"NoteNumber":71,"Velocity":48,"Duration":98141,"SoundDuration":98141,"Delta":144339396},{"NoteNumber":78,"Velocity":77,"Duration":65427,"SoundDuration":65427,"Delta":144470252},{"NoteNumber":63,"Velocity":52,"Duration":98141,"SoundDuration":98141,"Delta":144470252},{"NoteNumber":66,"Velocity":52,"Duration":98141,"SoundDuration":98141,"Delta":144470252},{"NoteNumber":71,"Velocity":52,"Duration":531037,"SoundDuration":531037,"Delta":144470252},{"NoteNumber":75,"Velocity":71,"Duration":67482,"SoundDuration":67482,"Delta":144601108},{"NoteNumber":63,"Velocity":46,"Duration":101223,"SoundDuration":101223,"Delta":144601108},{"NoteNumber":66,"Velocity":46,"Duration":101223,"SoundDuration":101223,"Delta":144601108},{"NoteNumber":73,"Velocity":95,"Duration":65427,"SoundDuration":65427,"Delta":144736073},{"NoteNumber":63,"Velocity":54,"Duration":98141,"SoundDuration":98141,"Delta":144736073},{"NoteNumber":66,"Velocity":54,"Duration":98141,"SoundDuration":98141,"Delta":144736073},{"NoteNumber":71,"Velocity":76,"Duration":67180,"SoundDuration":67180,"Delta":144866928},{"NoteNumber":63,"Velocity":47,"Duration":100770,"SoundDuration":100770,"Delta":144866928},{"NoteNumber":66,"Velocity":47,"Duration":100770,"SoundDuration":100770,"Delta":144866928},{"NoteNumber":70,"Velocity":98,"Duration":130855,"SoundDuration":130855,"Delta":145001289},{"NoteNumber":59,"Velocity":55,"Duration":98141,"SoundDuration":98141,"Delta":145001289},{"NoteNumber":64,"Velocity":55,"Duration":98141,"SoundDuration":98141,"Delta":145001289},{"NoteNumber":68,"Velocity":55,"Duration":527532,"SoundDuration":527532,"Delta":145001289},{"NoteNumber":73,"Velocity":71,"Duration":130855,"SoundDuration":130855,"Delta":145132145},{"NoteNumber":59,"Velocity":47,"Duration":98141,"SoundDuration":98141,"Delta":145132145},{"NoteNumber":64,"Velocity":47,"Duration":98141,"SoundDuration":98141,"Delta":145132145},{"NoteNumber":71,"Velocity":74,"Duration":130855,"SoundDuration":130855,"Delta":145263000},{"NoteNumber":59,"Velocity":51,"Duration":98141,"SoundDuration":98141,"Delta":145263000},{"NoteNumber":64,"Velocity":51,"Duration":98141,"SoundDuration":98141,"Delta":145263000},{"NoteNumber":68,"Velocity":68,"Duration":134964,"SoundDuration":134964,"Delta":145393856},{"NoteNumber":59,"Velocity":48,"Duration":101223,"SoundDuration":101223,"Delta":145393856},{"NoteNumber":64,"Velocity":48,"Duration":101223,"SoundDuration":101223,"Delta":145393856},{"NoteNumber":65,"Velocity":62,"Duration":103388,"SoundDuration":103388,"Delta":145528821},{"NoteNumber":68,"Velocity":62,"Duration":103388,"SoundDuration":103388,"Delta":145528821},{"NoteNumber":70,"Velocity":62,"Duration":542684,"SoundDuration":542684,"Delta":145528821},{"NoteNumber":58,"Velocity":42,"Duration":137748,"SoundDuration":137748,"Delta":145528821},{"NoteNumber":65,"Velocity":66,"Duration":102340,"SoundDuration":102340,"Delta":145666569},{"NoteNumber":68,"Velocity":66,"Duration":102340,"SoundDuration":102340,"Delta":145666569},{"NoteNumber":60,"Velocity":44,"Duration":136286,"SoundDuration":136286,"Delta":145666569},{"NoteNumber":65,"Velocity":69,"Duration":101380,"SoundDuration":101380,"Delta":145802856},{"NoteNumber":68,"Velocity":69,"Duration":101380,"SoundDuration":101380,"Delta":145802856},{"NoteNumber":61,"Velocity":46,"Duration":134970,"SoundDuration":134970,"Delta":145802856},{"NoteNumber":65,"Velocity":73,"Duration":100384,"SoundDuration":100384,"Delta":145937827},{"NoteNumber":68,"Velocity":73,"Duration":100384,"SoundDuration":100384,"Delta":145937827},{"NoteNumber":62,"Velocity":48,"Duration":133679,"SoundDuration":133679,"Delta":145937827},{"NoteNumber":69,"Velocity":88,"Duration":530362,"SoundDuration":530362,"Delta":146071506},{"NoteNumber":63,"Velocity":55,"Duration":99443,"SoundDuration":99443,"Delta":146071506},{"NoteNumber":66,"Velocity":55,"Duration":99443,"SoundDuration":99443,"Delta":146071506},{"NoteNumber":78,"Velocity":68,"Duration":132590,"SoundDuration":132590,"Delta":146204097},{"NoteNumber":63,"Velocity":50,"Duration":99443,"SoundDuration":99443,"Delta":146204097},{"NoteNumber":66,"Velocity":50,"Duration":99443,"SoundDuration":99443,"Delta":146204097},{"NoteNumber":77,"Velocity":68,"Duration":132590,"SoundDuration":132590,"Delta":146336687},{"NoteNumber":63,"Velocity":50,"Duration":99443,"SoundDuration":99443,"Delta":146336687},{"NoteNumber":66,"Velocity":50,"Duration":99443,"SoundDuration":99443,"Delta":146336687},{"NoteNumber":75,"Velocity":68,"Duration":132590,"SoundDuration":132590,"Delta":146469278},{"NoteNumber":63,"Velocity":50,"Duration":99443,"SoundDuration":99443,"Delta":146469278},{"NoteNumber":66,"Velocity":50,"Duration":99443,"SoundDuration":99443,"Delta":146469278},{"NoteNumber":65,"Velocity":62,"Duration":103388,"SoundDuration":103388,"Delta":146601869},{"NoteNumber":68,"Velocity":62,"Duration":103388,"SoundDuration":103388,"Delta":146601869},{"NoteNumber":70,"Velocity":62,"Duration":542684,"SoundDuration":542684,"Delta":146601869},{"NoteNumber":58,"Velocity":40,"Duration":137748,"SoundDuration":137748,"Delta":146601869},{"NoteNumber":65,"Velocity":65,"Duration":102340,"SoundDuration":102340,"Delta":146739617},{"NoteNumber":68,"Velocity":65,"Duration":102340,"SoundDuration":102340,"Delta":146739617},{"NoteNumber":60,"Velocity":42,"Duration":136286,"SoundDuration":136286,"Delta":146739617},{"NoteNumber":65,"Velocity":68,"Duration":101380,"SoundDuration":101380,"Delta":146875904},{"NoteNumber":68,"Velocity":68,"Duration":101380,"SoundDuration":101380,"Delta":146875904},{"NoteNumber":61,"Velocity":44,"Duration":134970,"SoundDuration":134970,"Delta":146875904},{"NoteNumber":65,"Velocity":63,"Duration":100384,"SoundDuration":100384,"Delta":147010874},{"NoteNumber":68,"Velocity":63,"Duration":100384,"SoundDuration":100384,"Delta":147010874},{"NoteNumber":62,"Velocity":46,"Duration":133679,"SoundDuration":133679,"Delta":147010874},{"NoteNumber":69,"Velocity":88,"Duration":530362,"SoundDuration":530362,"Delta":147144554},{"NoteNumber":63,"Velocity":55,"Duration":99443,"SoundDuration":99443,"Delta":147144554},{"NoteNumber":66,"Velocity":55,"Duration":99443,"SoundDuration":99443,"Delta":147144554},{"NoteNumber":78,"Velocity":70,"Duration":132590,"SoundDuration":132590,"Delta":147277144},{"NoteNumber":63,"Velocity":48,"Duration":99443,"SoundDuration":99443,"Delta":147277144},{"NoteNumber":66,"Velocity":48,"Duration":99443,"SoundDuration":99443,"Delta":147277144},{"NoteNumber":77,"Velocity":68,"Duration":132590,"SoundDuration":132590,"Delta":147409735},{"NoteNumber":63,"Velocity":48,"Duration":99443,"SoundDuration":99443,"Delta":147409735},{"NoteNumber":66,"Velocity":48,"Duration":99443,"SoundDuration":99443,"Delta":147409735},{"NoteNumber":75,"Velocity":68,"Duration":132590,"SoundDuration":132590,"Delta":147542326},{"NoteNumber":63,"Velocity":49,"Duration":99443,"SoundDuration":99443,"Delta":147542326},{"NoteNumber":66,"Velocity":49,"Duration":99443,"SoundDuration":99443,"Delta":147542326},{"NoteNumber":68,"Velocity":65,"Duration":103388,"SoundDuration":103388,"Delta":147674917},{"NoteNumber":71,"Velocity":65,"Duration":103388,"SoundDuration":103388,"Delta":147674917},{"NoteNumber":73,"Velocity":65,"Duration":542684,"SoundDuration":542684,"Delta":147674917},{"NoteNumber":61,"Velocity":42,"Duration":137748,"SoundDuration":137748,"Delta":147674917},{"NoteNumber":68,"Velocity":68,"Duration":102340,"SoundDuration":102340,"Delta":147812665},{"NoteNumber":71,"Velocity":68,"Duration":102340,"SoundDuration":102340,"Delta":147812665},{"NoteNumber":63,"Velocity":44,"Duration":136286,"SoundDuration":136286,"Delta":147812665},{"NoteNumber":68,"Velocity":70,"Duration":101380,"SoundDuration":101380,"Delta":147948951},{"NoteNumber":71,"Velocity":70,"Duration":101380,"SoundDuration":101380,"Delta":147948951},{"NoteNumber":64,"Velocity":46,"Duration":134970,"SoundDuration":134970,"Delta":147948951},{"NoteNumber":68,"Velocity":73,"Duration":100384,"SoundDuration":100384,"Delta":148083922},{"NoteNumber":71,"Velocity":73,"Duration":100384,"SoundDuration":100384,"Delta":148083922},{"NoteNumber":65,"Velocity":48,"Duration":133679,"SoundDuration":133679,"Delta":148083922},{"NoteNumber":72,"Velocity":85,"Duration":533359,"SoundDuration":533359,"Delta":148217601},{"NoteNumber":66,"Velocity":58,"Duration":99443,"SoundDuration":99443,"Delta":148217601},{"NoteNumber":69,"Velocity":58,"Duration":99443,"SoundDuration":99443,"Delta":148217601},{"NoteNumber":81,"Velocity":71,"Duration":135586,"SoundDuration":135586,"Delta":148350192},{"NoteNumber":66,"Velocity":50,"Duration":101690,"SoundDuration":101690,"Delta":148350192},{"NoteNumber":69,"Velocity":50,"Duration":101690,"SoundDuration":101690,"Delta":148350192},{"NoteNumber":80,"Velocity":79,"Duration":132590,"SoundDuration":132590,"Delta":148485779},{"NoteNumber":66,"Velocity":55,"Duration":99443,"SoundDuration":99443,"Delta":148485779},{"NoteNumber":69,"Velocity":55,"Duration":99443,"SoundDuration":99443,"Delta":148485779},{"NoteNumber":78,"Velocity":71,"Duration":132590,"SoundDuration":132590,"Delta":148618370},{"NoteNumber":66,"Velocity":50,"Duration":99443,"SoundDuration":99443,"Delta":148618370},{"NoteNumber":69,"Velocity":50,"Duration":99443,"SoundDuration":99443,"Delta":148618370},{"NoteNumber":70,"Velocity":66,"Duration":103388,"SoundDuration":103388,"Delta":148750960},{"NoteNumber":74,"Velocity":66,"Duration":103388,"SoundDuration":103388,"Delta":148750960},{"NoteNumber":75,"Velocity":66,"Duration":542684,"SoundDuration":542684,"Delta":148750960},{"NoteNumber":63,"Velocity":42,"Duration":137748,"SoundDuration":137748,"Delta":148750960},{"NoteNumber":70,"Velocity":68,"Duration":102340,"SoundDuration":102340,"Delta":148888709},{"NoteNumber":74,"Velocity":68,"Duration":102340,"SoundDuration":102340,"Delta":148888709},{"NoteNumber":65,"Velocity":44,"Duration":136286,"SoundDuration":136286,"Delta":148888709},{"NoteNumber":70,"Velocity":70,"Duration":101380,"SoundDuration":101380,"Delta":149024995},{"NoteNumber":74,"Velocity":70,"Duration":101380,"SoundDuration":101380,"Delta":149024995},{"NoteNumber":66,"Velocity":46,"Duration":134970,"SoundDuration":134970,"Delta":149024995},{"NoteNumber":70,"Velocity":72,"Duration":100384,"SoundDuration":100384,"Delta":149159966},{"NoteNumber":74,"Velocity":72,"Duration":100384,"SoundDuration":100384,"Delta":149159966},{"NoteNumber":66,"Velocity":48,"Duration":133679,"SoundDuration":133679,"Delta":149159966},{"NoteNumber":74,"Velocity":88,"Duration":533359,"SoundDuration":533359,"Delta":149293645},{"NoteNumber":68,"Velocity":57,"Duration":99443,"SoundDuration":99443,"Delta":149293645},{"NoteNumber":71,"Velocity":57,"Duration":99443,"SoundDuration":99443,"Delta":149293645},{"NoteNumber":83,"Velocity":72,"Duration":135586,"SoundDuration":135586,"Delta":149426236},{"NoteNumber":68,"Velocity":48,"Duration":101690,"SoundDuration":101690,"Delta":149426236},{"NoteNumber":71,"Velocity":48,"Duration":101690,"SoundDuration":101690,"Delta":149426236},{"NoteNumber":82,"Velocity":85,"Duration":132590,"SoundDuration":132590,"Delta":149561823},{"NoteNumber":68,"Velocity":53,"Duration":99443,"SoundDuration":99443,"Delta":149561823},{"NoteNumber":71,"Velocity":53,"Duration":99443,"SoundDuration":99443,"Delta":149561823},{"NoteNumber":80,"Velocity":72,"Duration":132590,"SoundDuration":132590,"Delta":149694414},{"NoteNumber":68,"Velocity":49,"Duration":99443,"SoundDuration":99443,"Delta":149694414},{"NoteNumber":71,"Velocity":49,"Duration":99443,"SoundDuration":99443,"Delta":149694414},{"NoteNumber":58,"Velocity":54,"Duration":129735,"SoundDuration":129735,"Delta":149827004},{"NoteNumber":59,"Velocity":54,"Duration":129735,"SoundDuration":129735,"Delta":149956740},{"NoteNumber":68,"Velocity":76,"Duration":269929,"SoundDuration":269929,"Delta":150086475},{"NoteNumber":71,"Velocity":83,"Duration":269929,"SoundDuration":269929,"Delta":150086475},{"NoteNumber":63,"Velocity":54,"Duration":269929,"SoundDuration":269929,"Delta":150086475},{"NoteNumber":65,"Velocity":54,"Duration":269929,"SoundDuration":269929,"Delta":150086475},{"NoteNumber":77,"Velocity":77,"Duration":134964,"SoundDuration":134964,"Delta":150221440},{"NoteNumber":58,"Velocity":54,"Duration":130855,"SoundDuration":130855,"Delta":150356405},{"NoteNumber":59,"Velocity":54,"Duration":130855,"SoundDuration":130855,"Delta":150487261},{"NoteNumber":68,"Velocity":76,"Duration":274364,"SoundDuration":274364,"Delta":150618116},{"NoteNumber":71,"Velocity":83,"Duration":274364,"SoundDuration":274364,"Delta":150618116},{"NoteNumber":63,"Velocity":54,"Duration":274364,"SoundDuration":274364,"Delta":150618116},{"NoteNumber":65,"Velocity":54,"Duration":274364,"SoundDuration":274364,"Delta":150618116},{"NoteNumber":77,"Velocity":77,"Duration":140003,"SoundDuration":140003,"Delta":150752477},{"NoteNumber":76,"Velocity":89,"Duration":274252,"SoundDuration":274252,"Delta":150892481},{"NoteNumber":74,"Velocity":89,"Duration":274252,"SoundDuration":274252,"Delta":150892481},{"NoteNumber":70,"Velocity":78,"Duration":141096,"SoundDuration":141096,"Delta":150892481},{"NoteNumber":68,"Velocity":74,"Duration":133155,"SoundDuration":133155,"Delta":151033577},{"NoteNumber":82,"Velocity":70,"Duration":69277,"SoundDuration":69277,"Delta":151166733},{"NoteNumber":80,"Velocity":70,"Duration":69277,"SoundDuration":69277,"Delta":151166733},{"NoteNumber":62,"Velocity":64,"Duration":138555,"SoundDuration":138555,"Delta":151166733},{"NoteNumber":64,"Velocity":64,"Duration":138555,"SoundDuration":138555,"Delta":151166733},{"NoteNumber":82,"Velocity":70,"Duration":69277,"SoundDuration":69277,"Delta":151305288},{"NoteNumber":80,"Velocity":70,"Duration":69277,"SoundDuration":69277,"Delta":151305288},{"NoteNumber":76,"Velocity":89,"Duration":274252,"SoundDuration":274252,"Delta":151443844},{"NoteNumber":74,"Velocity":89,"Duration":274252,"SoundDuration":274252,"Delta":151443844},{"NoteNumber":70,"Velocity":77,"Duration":141096,"SoundDuration":141096,"Delta":151443844},{"NoteNumber":68,"Velocity":72,"Duration":133155,"SoundDuration":133155,"Delta":151584940},{"NoteNumber":82,"Velocity":68,"Duration":68965,"SoundDuration":68965,"Delta":151718096},{"NoteNumber":80,"Velocity":68,"Duration":68965,"SoundDuration":68965,"Delta":151718096},{"NoteNumber":62,"Velocity":63,"Duration":137931,"SoundDuration":137931,"Delta":151718096},{"NoteNumber":64,"Velocity":63,"Duration":137931,"SoundDuration":137931,"Delta":151718096},{"NoteNumber":82,"Velocity":68,"Duration":68965,"SoundDuration":68965,"Delta":151856027},{"NoteNumber":80,"Velocity":68,"Duration":68965,"SoundDuration":68965,"Delta":151856027},{"NoteNumber":70,"Velocity":85,"Duration":130855,"SoundDuration":130855,"Delta":151993958},{"NoteNumber":63,"Velocity":56,"Duration":98141,"SoundDuration":98141,"Delta":151993958},{"NoteNumber":67,"Velocity":56,"Duration":98141,"SoundDuration":98141,"Delta":151993958},{"NoteNumber":69,"Velocity":74,"Duration":130855,"SoundDuration":130855,"Delta":152124814},{"NoteNumber":63,"Velocity":52,"Duration":98141,"SoundDuration":98141,"Delta":152124814},{"NoteNumber":67,"Velocity":52,"Duration":98141,"SoundDuration":98141,"Delta":152124814},{"NoteNumber":72,"Velocity":76,"Duration":130855,"SoundDuration":130855,"Delta":152255670},{"NoteNumber":63,"Velocity":56,"Duration":98141,"SoundDuration":98141,"Delta":152255670},{"NoteNumber":67,"Velocity":56,"Duration":98141,"SoundDuration":98141,"Delta":152255670},{"NoteNumber":70,"Velocity":70,"Duration":130855,"SoundDuration":130855,"Delta":152386525},{"NoteNumber":63,"Velocity":50,"Duration":98141,"SoundDuration":98141,"Delta":152386525},{"NoteNumber":67,"Velocity":50,"Duration":98141,"SoundDuration":98141,"Delta":152386525},{"NoteNumber":75,"Velocity":80,"Duration":132590,"SoundDuration":132590,"Delta":152517381},{"NoteNumber":63,"Velocity":56,"Duration":99443,"SoundDuration":99443,"Delta":152517381},{"NoteNumber":67,"Velocity":56,"Duration":99443,"SoundDuration":99443,"Delta":152517381},{"NoteNumber":74,"Velocity":74,"Duration":132590,"SoundDuration":132590,"Delta":152649972},{"NoteNumber":63,"Velocity":52,"Duration":99443,"SoundDuration":99443,"Delta":152649972},{"NoteNumber":67,"Velocity":52,"Duration":99443,"SoundDuration":99443,"Delta":152649972},{"NoteNumber":77,"Velocity":76,"Duration":132590,"SoundDuration":132590,"Delta":152782563},{"NoteNumber":63,"Velocity":56,"Duration":99443,"SoundDuration":99443,"Delta":152782563},{"NoteNumber":67,"Velocity":56,"Duration":99443,"SoundDuration":99443,"Delta":152782563},{"NoteNumber":75,"Velocity":72,"Duration":142639,"SoundDuration":142639,"Delta":152915153},{"NoteNumber":63,"Velocity":50,"Duration":106979,"SoundDuration":106979,"Delta":152915153},{"NoteNumber":67,"Velocity":50,"Duration":106979,"SoundDuration":106979,"Delta":152915153},{"NoteNumber":76,"Velocity":89,"Duration":274252,"SoundDuration":274252,"Delta":153057793},{"NoteNumber":74,"Velocity":89,"Duration":274252,"SoundDuration":274252,"Delta":153057793},{"NoteNumber":70,"Velocity":77,"Duration":141096,"SoundDuration":141096,"Delta":153057793},{"NoteNumber":68,"Velocity":72,"Duration":133155,"SoundDuration":133155,"Delta":153198890},{"NoteNumber":82,"Velocity":68,"Duration":68965,"SoundDuration":68965,"Delta":153332046},{"NoteNumber":80,"Velocity":68,"Duration":68965,"SoundDuration":68965,"Delta":153332046},{"NoteNumber":62,"Velocity":67,"Duration":275861,"SoundDuration":275861,"Delta":153332046},{"NoteNumber":64,"Velocity":67,"Duration":275861,"SoundDuration":275861,"Delta":153332046},{"NoteNumber":82,"Velocity":68,"Duration":68965,"SoundDuration":68965,"Delta":153469977},{"NoteNumber":80,"Velocity":68,"Duration":68965,"SoundDuration":68965,"Delta":153469977},{"NoteNumber":58,"Velocity":70,"Duration":141096,"SoundDuration":141096,"Delta":153607908},{"NoteNumber":59,"Velocity":59,"Duration":136798,"SoundDuration":136798,"Delta":153749004},{"NoteNumber":71,"Velocity":74,"Duration":136798,"SoundDuration":136798,"Delta":153885803},{"NoteNumber":68,"Velocity":74,"Duration":268574,"SoundDuration":268574,"Delta":153885803},{"NoteNumber":63,"Velocity":50,"Duration":268574,"SoundDuration":268574,"Delta":153885803},{"NoteNumber":65,"Velocity":50,"Duration":268574,"SoundDuration":268574,"Delta":153885803},{"NoteNumber":77,"Velocity":77,"Duration":131775,"SoundDuration":131775,"Delta":154022602},{"NoteNumber":78,"Velocity":78,"Duration":66295,"SoundDuration":66295,"Delta":154154378},{"NoteNumber":63,"Velocity":56,"Duration":99443,"SoundDuration":99443,"Delta":154154378},{"NoteNumber":67,"Velocity":56,"Duration":99443,"SoundDuration":99443,"Delta":154154378},{"NoteNumber":79,"Velocity":75,"Duration":65427,"SoundDuration":65427,"Delta":154286969},{"NoteNumber":63,"Velocity":50,"Duration":98141,"SoundDuration":98141,"Delta":154286969},{"NoteNumber":67,"Velocity":50,"Duration":98141,"SoundDuration":98141,"Delta":154286969},{"NoteNumber":84,"Velocity":86,"Duration":132019,"SoundDuration":132019,"Delta":154417824},{"NoteNumber":63,"Velocity":59,"Duration":99014,"SoundDuration":99014,"Delta":154417824},{"NoteNumber":67,"Velocity":59,"Duration":99014,"SoundDuration":99014,"Delta":154417824},{"NoteNumber":82,"Velocity":77,"Duration":131428,"SoundDuration":131428,"Delta":154549843},{"NoteNumber":63,"Velocity":51,"Duration":98571,"SoundDuration":98571,"Delta":154549843},{"NoteNumber":67,"Velocity":51,"Duration":98571,"SoundDuration":98571,"Delta":154549843},{"NoteNumber":80,"Velocity":81,"Duration":130855,"SoundDuration":130855,"Delta":154681272},{"NoteNumber":70,"Velocity":58,"Duration":98141,"SoundDuration":98141,"Delta":154681272},{"NoteNumber":67,"Velocity":58,"Duration":98141,"SoundDuration":98141,"Delta":154681272},{"NoteNumber":79,"Velocity":74,"Duration":130855,"SoundDuration":130855,"Delta":154812128},{"NoteNumber":70,"Velocity":53,"Duration":98141,"SoundDuration":98141,"Delta":154812128},{"NoteNumber":67,"Velocity":53,"Duration":98141,"SoundDuration":98141,"Delta":154812128},{"NoteNumber":77,"Velocity":78,"Duration":130855,"SoundDuration":130855,"Delta":154942984},{"NoteNumber":70,"Velocity":56,"Duration":98141,"SoundDuration":98141,"Delta":154942984},{"NoteNumber":67,"Velocity":56,"Duration":98141,"SoundDuration":98141,"Delta":154942984},{"NoteNumber":75,"Velocity":73,"Duration":136954,"SoundDuration":136954,"Delta":155073840},{"NoteNumber":70,"Velocity":51,"Duration":101953,"SoundDuration":101953,"Delta":155073840},{"NoteNumber":67,"Velocity":51,"Duration":101953,"SoundDuration":101953,"Delta":155073840},{"NoteNumber":76,"Velocity":89,"Duration":274252,"SoundDuration":274252,"Delta":155210794},{"NoteNumber":74,"Velocity":89,"Duration":274252,"SoundDuration":274252,"Delta":155210794},{"NoteNumber":70,"Velocity":77,"Duration":141096,"SoundDuration":141096,"Delta":155210794},{"NoteNumber":68,"Velocity":72,"Duration":133155,"SoundDuration":133155,"Delta":155351891},{"NoteNumber":82,"Velocity":68,"Duration":68965,"SoundDuration":68965,"Delta":155485047},{"NoteNumber":80,"Velocity":68,"Duration":68965,"SoundDuration":68965,"Delta":155485047},{"NoteNumber":62,"Velocity":67,"Duration":275861,"SoundDuration":275861,"Delta":155485047},{"NoteNumber":64,"Velocity":67,"Duration":275861,"SoundDuration":275861,"Delta":155485047},{"NoteNumber":82,"Velocity":68,"Duration":68965,"SoundDuration":68965,"Delta":155622978},{"NoteNumber":80,"Velocity":68,"Duration":68965,"SoundDuration":68965,"Delta":155622978},{"NoteNumber":58,"Velocity":70,"Duration":141096,"SoundDuration":141096,"Delta":155760909},{"NoteNumber":59,"Velocity":65,"Duration":136798,"SoundDuration":136798,"Delta":155902005},{"NoteNumber":71,"Velocity":76,"Duration":136798,"SoundDuration":136798,"Delta":156038804},{"NoteNumber":68,"Velocity":76,"Duration":273597,"SoundDuration":273597,"Delta":156038804},{"NoteNumber":63,"Velocity":59,"Duration":273597,"SoundDuration":273597,"Delta":156038804},{"NoteNumber":65,"Velocity":59,"Duration":273597,"SoundDuration":273597,"Delta":156038804},{"NoteNumber":77,"Velocity":80,"Duration":136798,"SoundDuration":136798,"Delta":156175603},{"NoteNumber":71,"Velocity":73,"Duration":136799,"SoundDuration":136799,"Delta":156312402},{"NoteNumber":65,"Velocity":73,"Duration":273598,"SoundDuration":273598,"Delta":156312402},{"NoteNumber":70,"Velocity":74,"Duration":136798,"SoundDuration":136798,"Delta":156449201},{"NoteNumber":77,"Velocity":89,"Duration":281689,"SoundDuration":281689,"Delta":156586000},{"NoteNumber":89,"Velocity":89,"Duration":140845,"SoundDuration":140845,"Delta":156586000},{"NoteNumber":62,"Velocity":69,"Duration":281689,"SoundDuration":281689,"Delta":156586000},{"NoteNumber":74,"Velocity":69,"Duration":281689,"SoundDuration":281689,"Delta":156586000},{"NoteNumber":82,"Velocity":74,"Duration":140844,"SoundDuration":140844,"Delta":156726845},{"NoteNumber":71,"Velocity":73,"Duration":142857,"SoundDuration":142857,"Delta":156867690},{"NoteNumber":65,"Velocity":73,"Duration":285714,"SoundDuration":285714,"Delta":156867690},{"NoteNumber":70,"Velocity":75,"Duration":142857,"SoundDuration":142857,"Delta":157010548},{"NoteNumber":77,"Velocity":89,"Duration":291261,"SoundDuration":291261,"Delta":157153405},{"NoteNumber":89,"Velocity":89,"Duration":145631,"SoundDuration":145631,"Delta":157153405},{"NoteNumber":62,"Velocity":70,"Duration":291261,"SoundDuration":291261,"Delta":157153405},{"NoteNumber":74,"Velocity":70,"Duration":291261,"SoundDuration":291261,"Delta":157153405},{"NoteNumber":82,"Velocity":74,"Duration":145630,"SoundDuration":145630,"Delta":157299036},{"NoteNumber":71,"Velocity":74,"Duration":145631,"SoundDuration":145631,"Delta":157444667},{"NoteNumber":65,"Velocity":74,"Duration":291261,"SoundDuration":291261,"Delta":157444667},{"NoteNumber":70,"Velocity":75,"Duration":145630,"SoundDuration":145630,"Delta":157590298},{"NoteNumber":77,"Velocity":91,"Duration":301507,"SoundDuration":301507,"Delta":157735929},{"NoteNumber":89,"Velocity":91,"Duration":150753,"SoundDuration":150753,"Delta":157735929},{"NoteNumber":62,"Velocity":72,"Duration":301507,"SoundDuration":301507,"Delta":157735929},{"NoteNumber":74,"Velocity":72,"Duration":301507,"SoundDuration":301507,"Delta":157735929},{"NoteNumber":82,"Velocity":73,"Duration":150753,"SoundDuration":150753,"Delta":157886683},{"NoteNumber":58,"Velocity":88,"Duration":172832,"SoundDuration":172832,"Delta":158760205},{"NoteNumber":67,"Velocity":56,"Duration":86247,"SoundDuration":86247,"Delta":158846790},{"NoteNumber":70,"Velocity":63,"Duration":86247,"SoundDuration":86247,"Delta":158846790},{"NoteNumber":63,"Velocity":56,"Duration":86247,"SoundDuration":86247,"Delta":158846790},{"NoteNumber":60,"Velocity":78,"Duration":171636,"SoundDuration":171636,"Delta":158933037},{"NoteNumber":70,"Velocity":66,"Duration":85557,"SoundDuration":85557,"Delta":159019116},{"NoteNumber":67,"Velocity":59,"Duration":85557,"SoundDuration":85557,"Delta":159019116},{"NoteNumber":63,"Velocity":59,"Duration":85557,"SoundDuration":85557,"Delta":159019116},{"NoteNumber":62,"Velocity":81,"Duration":170455,"SoundDuration":170455,"Delta":159104674},{"NoteNumber":67,"Velocity":55,"Duration":85062,"SoundDuration":85062,"Delta":159190066},{"NoteNumber":70,"Velocity":62,"Duration":85062,"SoundDuration":85062,"Delta":159190066},{"NoteNumber":63,"Velocity":83,"Duration":169326,"SoundDuration":169326,"Delta":159275129},{"NoteNumber":72,"Velocity":70,"Duration":84583,"SoundDuration":84583,"Delta":159359873},{"NoteNumber":70,"Velocity":63,"Duration":84583,"SoundDuration":84583,"Delta":159359873},{"NoteNumber":67,"Velocity":63,"Duration":84583,"SoundDuration":84583,"Delta":159359873},{"NoteNumber":62,"Velocity":90,"Duration":169166,"SoundDuration":169166,"Delta":159444456},{"NoteNumber":67,"Velocity":56,"Duration":84583,"SoundDuration":84583,"Delta":159529039},{"NoteNumber":70,"Velocity":56,"Duration":84583,"SoundDuration":84583,"Delta":159529039},{"NoteNumber":75,"Velocity":63,"Duration":84583,"SoundDuration":84583,"Delta":159529039},{"NoteNumber":63,"Velocity":79,"Duration":168161,"SoundDuration":168161,"Delta":159613622},{"NoteNumber":75,"Velocity":61,"Duration":84080,"SoundDuration":84080,"Delta":159697703},{"NoteNumber":70,"Velocity":54,"Duration":84080,"SoundDuration":84080,"Delta":159697703},{"NoteNumber":67,"Velocity":54,"Duration":84080,"SoundDuration":84080,"Delta":159697703},{"NoteNumber":65,"Velocity":82,"Duration":167205,"SoundDuration":167205,"Delta":159781784},{"NoteNumber":75,"Velocity":67,"Duration":83602,"SoundDuration":83602,"Delta":159865387},{"NoteNumber":70,"Velocity":60,"Duration":83602,"SoundDuration":83602,"Delta":159865387},{"NoteNumber":74,"Velocity":60,"Duration":83602,"SoundDuration":83602,"Delta":159865387},{"NoteNumber":67,"Velocity":78,"Duration":170247,"SoundDuration":170247,"Delta":159948989},{"NoteNumber":75,"Velocity":68,"Duration":87108,"SoundDuration":87108,"Delta":160032129},{"NoteNumber":70,"Velocity":61,"Duration":87108,"SoundDuration":87108,"Delta":160032129},{"NoteNumber":74,"Velocity":68,"Duration":87108,"SoundDuration":87108,"Delta":160032129},{"NoteNumber":65,"Velocity":88,"Duration":177430,"SoundDuration":177430,"Delta":160119237},{"NoteNumber":75,"Velocity":63,"Duration":88715,"SoundDuration":88715,"Delta":160207952},{"NoteNumber":84,"Velocity":70,"Duration":88715,"SoundDuration":88715,"Delta":160207952},{"NoteNumber":80,"Velocity":63,"Duration":88715,"SoundDuration":88715,"Delta":160207952},{"NoteNumber":72,"Velocity":83,"Duration":176509,"SoundDuration":176509,"Delta":160296667},{"NoteNumber":80,"Velocity":64,"Duration":88162,"SoundDuration":88162,"Delta":160385014},{"NoteNumber":77,"Velocity":57,"Duration":88162,"SoundDuration":88162,"Delta":160385014},{"NoteNumber":75,"Velocity":57,"Duration":88162,"SoundDuration":88162,"Delta":160385014},{"NoteNumber":68,"Velocity":84,"Duration":175432,"SoundDuration":175432,"Delta":160473177},{"NoteNumber":77,"Velocity":64,"Duration":87626,"SoundDuration":87626,"Delta":160560983},{"NoteNumber":75,"Velocity":57,"Duration":87626,"SoundDuration":87626,"Delta":160560983},{"NoteNumber":72,"Velocity":57,"Duration":87626,"SoundDuration":87626,"Delta":160560983},{"NoteNumber":65,"Velocity":82,"Duration":174388,"SoundDuration":174388,"Delta":160648610},{"NoteNumber":68,"Velocity":61,"Duration":87107,"SoundDuration":87107,"Delta":160735891},{"NoteNumber":72,"Velocity":61,"Duration":87107,"SoundDuration":87107,"Delta":160735891},{"NoteNumber":75,"Velocity":68,"Duration":87107,"SoundDuration":87107,"Delta":160735891},{"NoteNumber":63,"Velocity":91,"Duration":174735,"SoundDuration":174735,"Delta":160822999},{"NoteNumber":72,"Velocity":70,"Duration":87626,"SoundDuration":87626,"Delta":160910107},{"NoteNumber":70,"Velocity":63,"Duration":87626,"SoundDuration":87626,"Delta":160910107},{"NoteNumber":67,"Velocity":63,"Duration":87626,"SoundDuration":87626,"Delta":160910107},{"NoteNumber":62,"Velocity":83,"Duration":176331,"SoundDuration":176331,"Delta":160997734},{"NoteNumber":74,"Velocity":64,"Duration":88346,"SoundDuration":88346,"Delta":161085718},{"NoteNumber":70,"Velocity":57,"Duration":88346,"SoundDuration":88346,"Delta":161085718},{"NoteNumber":67,"Velocity":57,"Duration":88346,"SoundDuration":88346,"Delta":161085718},{"NoteNumber":60,"Velocity":89,"Duration":182448,"SoundDuration":182448,"Delta":161174065},{"NoteNumber":75,"Velocity":68,"Duration":92461,"SoundDuration":92461,"Delta":161264052},{"NoteNumber":70,"Velocity":61,"Duration":92461,"SoundDuration":92461,"Delta":161264052},{"NoteNumber":67,"Velocity":61,"Duration":92461,"SoundDuration":92461,"Delta":161264052},{"NoteNumber":58,"Velocity":80,"Duration":199207,"SoundDuration":199207,"Delta":161356514},{"NoteNumber":79,"Velocity":69,"Duration":103906,"SoundDuration":103906,"Delta":161451815},{"NoteNumber":70,"Velocity":62,"Duration":103906,"SoundDuration":103906,"Delta":161451815},{"NoteNumber":67,"Velocity":62,"Duration":103906,"SoundDuration":103906,"Delta":161451815},{"NoteNumber":58,"Velocity":88,"Duration":179412,"SoundDuration":179412,"Delta":161555722},{"NoteNumber":70,"Velocity":63,"Duration":89613,"SoundDuration":89613,"Delta":161645520},{"NoteNumber":67,"Velocity":56,"Duration":89613,"SoundDuration":89613,"Delta":161645520},{"NoteNumber":63,"Velocity":56,"Duration":89613,"SoundDuration":89613,"Delta":161645520},{"NoteNumber":60,"Velocity":82,"Duration":178134,"SoundDuration":178134,"Delta":161735134},{"NoteNumber":67,"Velocity":55,"Duration":88891,"SoundDuration":88891,"Delta":161824377},{"NoteNumber":70,"Velocity":62,"Duration":88891,"SoundDuration":88891,"Delta":161824377},{"NoteNumber":63,"Velocity":55,"Duration":88891,"SoundDuration":88891,"Delta":161824377},{"NoteNumber":62,"Velocity":84,"Duration":176878,"SoundDuration":176878,"Delta":161913269},{"NoteNumber":67,"Velocity":61,"Duration":88162,"SoundDuration":88162,"Delta":162001984},{"NoteNumber":70,"Velocity":68,"Duration":88162,"SoundDuration":88162,"Delta":162001984},{"NoteNumber":63,"Velocity":79,"Duration":175432,"SoundDuration":175432,"Delta":162090147},{"NoteNumber":72,"Velocity":66,"Duration":87626,"SoundDuration":87626,"Delta":162177952},{"NoteNumber":70,"Velocity":59,"Duration":87626,"SoundDuration":87626,"Delta":162177952},{"NoteNumber":67,"Velocity":59,"Duration":87626,"SoundDuration":87626,"Delta":162177952},{"NoteNumber":62,"Velocity":90,"Duration":174041,"SoundDuration":174041,"Delta":162265579},{"NoteNumber":67,"Velocity":56,"Duration":86933,"SoundDuration":86933,"Delta":162352687},{"NoteNumber":70,"Velocity":56,"Duration":86933,"SoundDuration":86933,"Delta":162352687},{"NoteNumber":75,"Velocity":63,"Duration":86933,"SoundDuration":86933,"Delta":162352687},{"NoteNumber":63,"Velocity":78,"Duration":172663,"SoundDuration":172663,"Delta":162439621},{"NoteNumber":75,"Velocity":62,"Duration":86078,"SoundDuration":86078,"Delta":162526206},{"NoteNumber":70,"Velocity":55,"Duration":86078,"SoundDuration":86078,"Delta":162526206},{"NoteNumber":67,"Velocity":55,"Duration":86078,"SoundDuration":86078,"Delta":162526206},{"NoteNumber":65,"Velocity":83,"Duration":171462,"SoundDuration":171462,"Delta":162612284},{"NoteNumber":70,"Velocity":60,"Duration":85557,"SoundDuration":85557,"Delta":162698189},{"NoteNumber":74,"Velocity":60,"Duration":85557,"SoundDuration":85557,"Delta":162698189},{"NoteNumber":75,"Velocity":67,"Duration":85557,"SoundDuration":85557,"Delta":162698189},{"NoteNumber":67,"Velocity":79,"Duration":170131,"SoundDuration":170131,"Delta":162783747},{"NoteNumber":75,"Velocity":64,"Duration":84903,"SoundDuration":84903,"Delta":162868975},{"NoteNumber":70,"Velocity":57,"Duration":84903,"SoundDuration":84903,"Delta":162868975},{"NoteNumber":74,"Velocity":57,"Duration":84903,"SoundDuration":84903,"Delta":162868975},{"NoteNumber":65,"Velocity":88,"Duration":173170,"SoundDuration":173170,"Delta":162953878},{"NoteNumber":75,"Velocity":57,"Duration":86585,"SoundDuration":86585,"Delta":163040463},{"NoteNumber":84,"Velocity":64,"Duration":86585,"SoundDuration":86585,"Delta":163040463},{"NoteNumber":80,"Velocity":57,"Duration":86585,"SoundDuration":86585,"Delta":163040463},{"NoteNumber":72,"Velocity":81,"Duration":172156,"SoundDuration":172156,"Delta":163127048},{"NoteNumber":75,"Velocity":63,"Duration":86078,"SoundDuration":86078,"Delta":163213127},{"NoteNumber":80,"Velocity":71,"Duration":86078,"SoundDuration":86078,"Delta":163213127},{"NoteNumber":77,"Velocity":63,"Duration":86078,"SoundDuration":86078,"Delta":163213127},{"NoteNumber":68,"Velocity":85,"Duration":171115,"SoundDuration":171115,"Delta":163299205},{"NoteNumber":77,"Velocity":70,"Duration":85557,"SoundDuration":85557,"Delta":163384763},{"NoteNumber":75,"Velocity":63,"Duration":85557,"SoundDuration":85557,"Delta":163384763},{"NoteNumber":72,"Velocity":63,"Duration":85557,"SoundDuration":85557,"Delta":163384763},{"NoteNumber":65,"Velocity":80,"Duration":170126,"SoundDuration":170126,"Delta":163470321},{"NoteNumber":68,"Velocity":62,"Duration":85063,"SoundDuration":85063,"Delta":163555384},{"NoteNumber":72,"Velocity":62,"Duration":85063,"SoundDuration":85063,"Delta":163555384},{"NoteNumber":75,"Velocity":69,"Duration":85063,"SoundDuration":85063,"Delta":163555384},{"NoteNumber":63,"Velocity":89,"Duration":169166,"SoundDuration":169166,"Delta":163640447},{"NoteNumber":72,"Velocity":68,"Duration":84583,"SoundDuration":84583,"Delta":163725030},{"NoteNumber":70,"Velocity":61,"Duration":84583,"SoundDuration":84583,"Delta":163725030},{"NoteNumber":67,"Velocity":61,"Duration":84583,"SoundDuration":84583,"Delta":163725030},{"NoteNumber":62,"Velocity":78,"Duration":169166,"SoundDuration":169166,"Delta":163809613},{"NoteNumber":74,"Velocity":67,"Duration":84583,"SoundDuration":84583,"Delta":163894196},{"NoteNumber":70,"Velocity":60,"Duration":84583,"SoundDuration":84583,"Delta":163894196},{"NoteNumber":67,"Velocity":60,"Duration":84583,"SoundDuration":84583,"Delta":163894196},{"NoteNumber":60,"Velocity":84,"Duration":169166,"SoundDuration":169166,"Delta":163978780},{"NoteNumber":75,"Velocity":66,"Duration":84583,"SoundDuration":84583,"Delta":164063363},{"NoteNumber":70,"Velocity":59,"Duration":84583,"SoundDuration":84583,"Delta":164063363},{"NoteNumber":67,"Velocity":59,"Duration":84583,"SoundDuration":84583,"Delta":164063363},{"NoteNumber":58,"Velocity":78,"Duration":169166,"SoundDuration":169166,"Delta":164147946},{"NoteNumber":79,"Velocity":69,"Duration":84583,"SoundDuration":84583,"Delta":164232529},{"NoteNumber":70,"Velocity":62,"Duration":84583,"SoundDuration":84583,"Delta":164232529},{"NoteNumber":67,"Velocity":62,"Duration":84583,"SoundDuration":84583,"Delta":164232529},{"NoteNumber":67,"Velocity":88,"Duration":169166,"SoundDuration":169166,"Delta":164317113},{"NoteNumber":70,"Velocity":59,"Duration":84583,"SoundDuration":84583,"Delta":164401696},{"NoteNumber":79,"Velocity":66,"Duration":84583,"SoundDuration":84583,"Delta":164401696},{"NoteNumber":75,"Velocity":59,"Duration":84583,"SoundDuration":84583,"Delta":164401696},{"NoteNumber":62,"Velocity":81,"Duration":169166,"SoundDuration":169166,"Delta":164486279},{"NoteNumber":66,"Velocity":55,"Duration":84583,"SoundDuration":84583,"Delta":164570862},{"NoteNumber":70,"Velocity":55,"Duration":84583,"SoundDuration":84583,"Delta":164570862},{"NoteNumber":74,"Velocity":62,"Duration":84583,"SoundDuration":84583,"Delta":164570862},{"NoteNumber":63,"Velocity":88,"Duration":169166,"SoundDuration":169166,"Delta":164655446},{"NoteNumber":70,"Velocity":56,"Duration":84583,"SoundDuration":84583,"Delta":164740029},{"NoteNumber":67,"Velocity":56,"Duration":84583,"SoundDuration":84583,"Delta":164740029},{"NoteNumber":75,"Velocity":63,"Duration":84583,"SoundDuration":84583,"Delta":164740029},{"NoteNumber":59,"Velocity":79,"Duration":169166,"SoundDuration":169166,"Delta":164824612},{"NoteNumber":63,"Velocity":54,"Duration":84583,"SoundDuration":84583,"Delta":164909195},{"NoteNumber":67,"Velocity":54,"Duration":84583,"SoundDuration":84583,"Delta":164909195},{"NoteNumber":71,"Velocity":60,"Duration":84583,"SoundDuration":84583,"Delta":164909195},{"NoteNumber":60,"Velocity":83,"Duration":168161,"SoundDuration":168161,"Delta":164993779},{"NoteNumber":63,"Velocity":56,"Duration":84080,"SoundDuration":84080,"Delta":165077859},{"NoteNumber":67,"Velocity":56,"Duration":84080,"SoundDuration":84080,"Delta":165077859},{"NoteNumber":72,"Velocity":63,"Duration":84080,"SoundDuration":84080,"Delta":165077859},{"NoteNumber":61,"Velocity":75,"Duration":168831,"SoundDuration":168831,"Delta":165161940},{"NoteNumber":73,"Velocity":61,"Duration":84583,"SoundDuration":84583,"Delta":165246188},{"NoteNumber":67,"Velocity":54,"Duration":84583,"SoundDuration":84583,"Delta":165246188},{"NoteNumber":63,"Velocity":54,"Duration":84583,"SoundDuration":84583,"Delta":165246188},{"NoteNumber":62,"Velocity":81,"Duration":169486,"SoundDuration":169486,"Delta":165330772},{"NoteNumber":74,"Velocity":63,"Duration":84903,"SoundDuration":84903,"Delta":165415355},{"NoteNumber":70,"Velocity":56,"Duration":84903,"SoundDuration":84903,"Delta":165415355},{"NoteNumber":67,"Velocity":56,"Duration":84903,"SoundDuration":84903,"Delta":165415355},{"NoteNumber":58,"Velocity":78,"Duration":170125,"SoundDuration":170125,"Delta":165500258},{"NoteNumber":77,"Velocity":63,"Duration":85062,"SoundDuration":85062,"Delta":165585321},{"NoteNumber":74,"Velocity":56,"Duration":85062,"SoundDuration":85062,"Delta":165585321},{"NoteNumber":68,"Velocity":56,"Duration":85062,"SoundDuration":85062,"Delta":165585321},{"NoteNumber":67,"Velocity":88,"Duration":164365,"SoundDuration":164365,"Delta":165670384},{"NoteNumber":75,"Velocity":56,"Duration":82182,"SoundDuration":82182,"Delta":165752567},{"NoteNumber":79,"Velocity":63,"Duration":82182,"SoundDuration":82182,"Delta":165752567},{"NoteNumber":70,"Velocity":56,"Duration":82182,"SoundDuration":82182,"Delta":165752567},{"NoteNumber":62,"Velocity":79,"Duration":164365,"SoundDuration":164365,"Delta":165834749},{"NoteNumber":70,"Velocity":53,"Duration":82182,"SoundDuration":82182,"Delta":165916932},{"NoteNumber":66,"Velocity":53,"Duration":82182,"SoundDuration":82182,"Delta":165916932},{"NoteNumber":74,"Velocity":59,"Duration":82182,"SoundDuration":82182,"Delta":165916932},{"NoteNumber":63,"Velocity":84,"Duration":164365,"SoundDuration":164365,"Delta":165999115},{"NoteNumber":75,"Velocity":63,"Duration":82182,"SoundDuration":82182,"Delta":166081298},{"NoteNumber":67,"Velocity":56,"Duration":82182,"SoundDuration":82182,"Delta":166081298},{"NoteNumber":70,"Velocity":56,"Duration":82182,"SoundDuration":82182,"Delta":166081298},{"NoteNumber":59,"Velocity":78,"Duration":164365,"SoundDuration":164365,"Delta":166163480},{"NoteNumber":63,"Velocity":52,"Duration":82182,"SoundDuration":82182,"Delta":166245663},{"NoteNumber":67,"Velocity":52,"Duration":82182,"SoundDuration":82182,"Delta":166245663},{"NoteNumber":71,"Velocity":58,"Duration":82182,"SoundDuration":82182,"Delta":166245663},{"NoteNumber":60,"Velocity":84,"Duration":164365,"SoundDuration":164365,"Delta":166327846},{"NoteNumber":63,"Velocity":56,"Duration":82182,"SoundDuration":82182,"Delta":166410029},{"NoteNumber":67,"Velocity":56,"Duration":82182,"SoundDuration":82182,"Delta":166410029},{"NoteNumber":72,"Velocity":63,"Duration":82182,"SoundDuration":82182,"Delta":166410029},{"NoteNumber":61,"Velocity":75,"Duration":164365,"SoundDuration":164365,"Delta":166492211},{"NoteNumber":63,"Velocity":54,"Duration":82182,"SoundDuration":82182,"Delta":166574394},{"NoteNumber":67,"Velocity":54,"Duration":82182,"SoundDuration":82182,"Delta":166574394},{"NoteNumber":73,"Velocity":61,"Duration":82182,"SoundDuration":82182,"Delta":166574394},{"NoteNumber":62,"Velocity":83,"Duration":164365,"SoundDuration":164365,"Delta":166656577},{"NoteNumber":67,"Velocity":56,"Duration":82182,"SoundDuration":82182,"Delta":166738760},{"NoteNumber":70,"Velocity":56,"Duration":82182,"SoundDuration":82182,"Delta":166738760},{"NoteNumber":74,"Velocity":63,"Duration":82182,"SoundDuration":82182,"Delta":166738760},{"NoteNumber":58,"Velocity":77,"Duration":164365,"SoundDuration":164365,"Delta":166820942},{"NoteNumber":68,"Velocity":52,"Duration":82182,"SoundDuration":82182,"Delta":166903125},{"NoteNumber":74,"Velocity":52,"Duration":82182,"SoundDuration":82182,"Delta":166903125},{"NoteNumber":77,"Velocity":58,"Duration":82182,"SoundDuration":82182,"Delta":166903125},{"NoteNumber":63,"Velocity":82,"Duration":159846,"SoundDuration":159846,"Delta":166985308},{"NoteNumber":67,"Velocity":62,"Duration":79923,"SoundDuration":79923,"Delta":167065231},{"NoteNumber":64,"Velocity":83,"Duration":159270,"SoundDuration":159270,"Delta":167145154},{"NoteNumber":67,"Velocity":56,"Duration":79491,"SoundDuration":79491,"Delta":167224934},{"NoteNumber":72,"Velocity":63,"Duration":79491,"SoundDuration":79491,"Delta":167224934},{"NoteNumber":65,"Velocity":84,"Duration":158697,"SoundDuration":158697,"Delta":167304425},{"NoteNumber":69,"Velocity":64,"Duration":79206,"SoundDuration":79206,"Delta":167383916},{"NoteNumber":66,"Velocity":85,"Duration":158127,"SoundDuration":158127,"Delta":167463123},{"NoteNumber":69,"Velocity":59,"Duration":79063,"SoundDuration":79063,"Delta":167542186},{"NoteNumber":74,"Velocity":66,"Duration":79063,"SoundDuration":79063,"Delta":167542186},{"NoteNumber":67,"Velocity":86,"Duration":157265,"SoundDuration":157265,"Delta":167621250},{"NoteNumber":70,"Velocity":68,"Duration":78632,"SoundDuration":78632,"Delta":167699883},{"NoteNumber":68,"Velocity":88,"Duration":156708,"SoundDuration":156708,"Delta":167778516},{"NoteNumber":72,"Velocity":62,"Duration":78214,"SoundDuration":78214,"Delta":167857010},{"NoteNumber":77,"Velocity":69,"Duration":78214,"SoundDuration":78214,"Delta":167857010},{"NoteNumber":69,"Velocity":88,"Duration":156142,"SoundDuration":156142,"Delta":167935224},{"NoteNumber":73,"Velocity":70,"Duration":77928,"SoundDuration":77928,"Delta":168013439},{"NoteNumber":70,"Velocity":89,"Duration":155296,"SoundDuration":155296,"Delta":168091367},{"NoteNumber":79,"Velocity":71,"Duration":77511,"SoundDuration":77511,"Delta":168169152},{"NoteNumber":74,"Velocity":63,"Duration":77511,"SoundDuration":77511,"Delta":168169152},{"NoteNumber":72,"Velocity":90,"Duration":155296,"SoundDuration":155296,"Delta":168246663},{"NoteNumber":75,"Velocity":72,"Duration":77784,"SoundDuration":77784,"Delta":168324175},{"NoteNumber":73,"Velocity":91,"Duration":154475,"SoundDuration":154475,"Delta":168401960},{"NoteNumber":80,"Velocity":74,"Duration":77100,"SoundDuration":77100,"Delta":168479335},{"NoteNumber":76,"Velocity":66,"Duration":77100,"SoundDuration":77100,"Delta":168479335},{"NoteNumber":74,"Velocity":92,"Duration":153390,"SoundDuration":153390,"Delta":168556435},{"NoteNumber":78,"Velocity":75,"Duration":76561,"SoundDuration":76561,"Delta":168633264},{"NoteNumber":75,"Velocity":93,"Duration":152064,"SoundDuration":152064,"Delta":168709826},{"NoteNumber":84,"Velocity":77,"Duration":75898,"SoundDuration":75898,"Delta":168785992},{"NoteNumber":79,"Velocity":69,"Duration":75898,"SoundDuration":75898,"Delta":168785992},{"NoteNumber":76,"Velocity":94,"Duration":150992,"SoundDuration":150992,"Delta":168861890},{"NoteNumber":80,"Velocity":78,"Duration":75361,"SoundDuration":75361,"Delta":168937521},{"NoteNumber":77,"Velocity":95,"Duration":149711,"SoundDuration":149711,"Delta":169012883},{"NoteNumber":86,"Velocity":79,"Duration":74726,"SoundDuration":74726,"Delta":169087868},{"NoteNumber":80,"Velocity":71,"Duration":74726,"SoundDuration":74726,"Delta":169087868},{"NoteNumber":78,"Velocity":96,"Duration":148682,"SoundDuration":148682,"Delta":169162594},{"NoteNumber":86,"Velocity":81,"Duration":74213,"SoundDuration":74213,"Delta":169237063},{"NoteNumber":82,"Velocity":72,"Duration":74213,"SoundDuration":74213,"Delta":169237063},{"NoteNumber":79,"Velocity":97,"Duration":252845,"SoundDuration":252845,"Delta":169311277},{"NoteNumber":91,"Velocity":82,"Duration":178997,"SoundDuration":178997,"Delta":169385125},{"NoteNumber":82,"Velocity":73,"Duration":178997,"SoundDuration":178997,"Delta":169385125},{"NoteNumber":59,"Velocity":105,"Duration":3099806,"SoundDuration":3099806,"Delta":169564122},{"NoteNumber":35,"Velocity":74,"Duration":3099806,"SoundDuration":3099806,"Delta":169564122},{"NoteNumber":47,"Velocity":93,"Duration":3099806,"SoundDuration":3099806,"Delta":169564122},{"NoteNumber":55,"Velocity":42,"Duration":3099707,"SoundDuration":3099707,"Delta":172663929},{"NoteNumber":31,"Velocity":30,"Duration":3099707,"SoundDuration":3099707,"Delta":172663929},{"NoteNumber":43,"Velocity":39,"Duration":3099707,"SoundDuration":3099707,"Delta":172663929},{"NoteNumber":67,"Velocity":91,"Duration":3099707,"SoundDuration":3099707,"Delta":175763637},{"NoteNumber":43,"Velocity":64,"Duration":3099707,"SoundDuration":3099707,"Delta":175763637},{"NoteNumber":55,"Velocity":79,"Duration":3099707,"SoundDuration":3099707,"Delta":175763637},{"NoteNumber":66,"Velocity":109,"Duration":5424953,"SoundDuration":5424953,"Delta":178863345},{"NoteNumber":59,"Velocity":85,"Duration":5424953,"SoundDuration":5424953,"Delta":178863345},{"NoteNumber":55,"Velocity":85,"Duration":5424953,"SoundDuration":5424953,"Delta":178863345},{"NoteNumber":38,"Velocity":57,"Duration":2712477,"SoundDuration":2712477,"Delta":178863345},{"NoteNumber":50,"Velocity":72,"Duration":2712477,"SoundDuration":2712477,"Delta":178863345},{"NoteNumber":37,"Velocity":38,"Duration":2712476,"SoundDuration":2712476,"Delta":181575822},{"NoteNumber":49,"Velocity":48,"Duration":2712476,"SoundDuration":2712476,"Delta":181575822},{"NoteNumber":58,"Velocity":83,"Duration":2712477,"SoundDuration":2712477,"Delta":184288299},{"NoteNumber":66,"Velocity":106,"Duration":5652870,"SoundDuration":5652870,"Delta":184288299},{"NoteNumber":55,"Velocity":83,"Duration":5652870,"SoundDuration":5652870,"Delta":184288299},{"NoteNumber":36,"Velocity":50,"Duration":2712477,"SoundDuration":2712477,"Delta":184288299},{"NoteNumber":48,"Velocity":67,"Duration":2712477,"SoundDuration":2712477,"Delta":184288299},{"NoteNumber":59,"Velocity":50,"Duration":2940393,"SoundDuration":2940393,"Delta":187000776},{"NoteNumber":35,"Velocity":33,"Duration":2940393,"SoundDuration":2940393,"Delta":187000776},{"NoteNumber":47,"Velocity":42,"Duration":2940393,"SoundDuration":2940393,"Delta":187000776},{"NoteNumber":61,"Velocity":87,"Duration":3396225,"SoundDuration":3396225,"Delta":189941169},{"NoteNumber":66,"Velocity":105,"Duration":3396225,"SoundDuration":3396225,"Delta":189941169},{"NoteNumber":55,"Velocity":87,"Duration":3396225,"SoundDuration":3396225,"Delta":189941169},{"NoteNumber":34,"Velocity":61,"Duration":3396225,"SoundDuration":3396225,"Delta":189941169},{"NoteNumber":46,"Velocity":77,"Duration":3396225,"SoundDuration":3396225,"Delta":189941169},{"NoteNumber":62,"Velocity":64,"Duration":2712477,"SoundDuration":2712477,"Delta":193337394},{"NoteNumber":66,"Velocity":72,"Duration":5645027,"SoundDuration":5645027,"Delta":193337394},{"NoteNumber":54,"Velocity":64,"Duration":5645027,"SoundDuration":5645027,"Delta":193337394},{"NoteNumber":33,"Velocity":46,"Duration":2712477,"SoundDuration":2712477,"Delta":193337394},{"NoteNumber":45,"Velocity":58,"Duration":2712477,"SoundDuration":2712477,"Delta":193337394},{"NoteNumber":59,"Velocity":45,"Duration":2932550,"SoundDuration":2932550,"Delta":196049871},{"NoteNumber":31,"Velocity":34,"Duration":2932550,"SoundDuration":2932550,"Delta":196049871},{"NoteNumber":43,"Velocity":43,"Duration":2932550,"SoundDuration":2932550,"Delta":196049871},{"NoteNumber":66,"Velocity":40,"Duration":2447482,"SoundDuration":2447482,"Delta":198982422},{"NoteNumber":61,"Velocity":36,"Duration":2447482,"SoundDuration":2447482,"Delta":198982422},{"NoteNumber":54,"Velocity":36,"Duration":2447482,"SoundDuration":2447482,"Delta":198982422},{"NoteNumber":30,"Velocity":22,"Duration":2447482,"SoundDuration":2447482,"Delta":198982422},{"NoteNumber":42,"Velocity":28,"Duration":2447482,"SoundDuration":2447482,"Delta":198982422},{"NoteNumber":47,"Velocity":86,"Duration":3099707,"SoundDuration":3099707,"Delta":202653645},{"NoteNumber":55,"Velocity":96,"Duration":3099707,"SoundDuration":3099707,"Delta":202653645},{"NoteNumber":59,"Velocity":104,"Duration":3099707,"SoundDuration":3099707,"Delta":202653645},{"NoteNumber":31,"Velocity":62,"Duration":3099707,"SoundDuration":3099707,"Delta":202653645},{"NoteNumber":35,"Velocity":62,"Duration":3099707,"SoundDuration":3099707,"Delta":202653645},{"NoteNumber":43,"Velocity":78,"Duration":3099707,"SoundDuration":3099707,"Delta":202653645},{"NoteNumber":46,"Velocity":80,"Duration":3099708,"SoundDuration":3099708,"Delta":205753353},{"NoteNumber":58,"Velocity":97,"Duration":3099708,"SoundDuration":3099708,"Delta":205753353},{"NoteNumber":55,"Velocity":89,"Duration":3099708,"SoundDuration":3099708,"Delta":205753353},{"NoteNumber":34,"Velocity":58,"Duration":3099708,"SoundDuration":3099708,"Delta":205753353},{"NoteNumber":31,"Velocity":58,"Duration":3099708,"SoundDuration":3099708,"Delta":205753353},{"NoteNumber":43,"Velocity":74,"Duration":3099708,"SoundDuration":3099708,"Delta":205753353},{"NoteNumber":58,"Velocity":82,"Duration":3364485,"SoundDuration":3364485,"Delta":208853061},{"NoteNumber":70,"Velocity":98,"Duration":3364485,"SoundDuration":3364485,"Delta":208853061},{"NoteNumber":67,"Velocity":95,"Duration":3364485,"SoundDuration":3364485,"Delta":208853061},{"NoteNumber":46,"Velocity":56,"Duration":3364485,"SoundDuration":3364485,"Delta":208853061},{"NoteNumber":43,"Velocity":56,"Duration":3364485,"SoundDuration":3364485,"Delta":208853061},{"NoteNumber":55,"Velocity":71,"Duration":3364485,"SoundDuration":3364485,"Delta":208853061},{"NoteNumber":62,"Velocity":60,"Duration":2712477,"SoundDuration":2712477,"Delta":212217546},{"NoteNumber":64,"Velocity":60,"Duration":5424954,"SoundDuration":5424954,"Delta":212217546},{"NoteNumber":57,"Velocity":54,"Duration":5424954,"SoundDuration":5424954,"Delta":212217546},{"NoteNumber":52,"Velocity":54,"Duration":5424954,"SoundDuration":5424954,"Delta":212217546},{"NoteNumber":33,"Velocity":33,"Duration":5424954,"SoundDuration":5424954,"Delta":212217546},{"NoteNumber":40,"Velocity":33,"Duration":5424954,"SoundDuration":5424954,"Delta":212217546},{"NoteNumber":45,"Velocity":42,"Duration":5424954,"SoundDuration":5424954,"Delta":212217546},{"NoteNumber":61,"Velocity":50,"Duration":2712477,"SoundDuration":2712477,"Delta":214930023},{"NoteNumber":65,"Velocity":63,"Duration":5333866,"SoundDuration":5333866,"Delta":217642500},{"NoteNumber":61,"Velocity":63,"Duration":2712477,"SoundDuration":2712477,"Delta":217642500},{"NoteNumber":69,"Velocity":63,"Duration":4464301,"SoundDuration":4464301,"Delta":217642500},{"NoteNumber":57,"Velocity":56,"Duration":5333866,"SoundDuration":5333866,"Delta":217642500},{"NoteNumber":33,"Velocity":36,"Duration":5333866,"SoundDuration":5333866,"Delta":217642500},{"NoteNumber":41,"Velocity":36,"Duration":5333866,"SoundDuration":5333866,"Delta":217642500},{"NoteNumber":45,"Velocity":46,"Duration":5333866,"SoundDuration":5333866,"Delta":217642500},{"NoteNumber":62,"Velocity":58,"Duration":1751823,"SoundDuration":1751823,"Delta":220354977},{"NoteNumber":69,"Velocity":54,"Duration":869564,"SoundDuration":869564,"Delta":222106801},{"NoteNumber":69,"Velocity":60,"Duration":5326476,"SoundDuration":5326476,"Delta":222976366},{"NoteNumber":60,"Velocity":54,"Duration":5326476,"SoundDuration":5326476,"Delta":222976366},{"NoteNumber":62,"Velocity":54,"Duration":5326476,"SoundDuration":5326476,"Delta":222976366},{"NoteNumber":74,"Velocity":71,"Duration":2712477,"SoundDuration":2712477,"Delta":222976366},{"NoteNumber":33,"Velocity":36,"Duration":9446725,"SoundDuration":9446725,"Delta":222976366},{"NoteNumber":42,"Velocity":36,"Duration":5326476,"SoundDuration":5326476,"Delta":222976366},{"NoteNumber":45,"Velocity":46,"Duration":5326476,"SoundDuration":5326476,"Delta":222976366},{"NoteNumber":73,"Velocity":66,"Duration":1742666,"SoundDuration":1742666,"Delta":225688843},{"NoteNumber":74,"Velocity":62,"Duration":871332,"SoundDuration":871332,"Delta":227431509},{"NoteNumber":62,"Velocity":56,"Duration":2746833,"SoundDuration":2746833,"Delta":228302842},{"NoteNumber":67,"Velocity":63,"Duration":2746833,"SoundDuration":2746833,"Delta":228302842},{"NoteNumber":72,"Velocity":63,"Duration":2746833,"SoundDuration":2746833,"Delta":228302842},{"NoteNumber":50,"Velocity":41,"Duration":4120249,"SoundDuration":4120249,"Delta":228302842},{"NoteNumber":43,"Velocity":41,"Duration":4120249,"SoundDuration":4120249,"Delta":228302842},{"NoteNumber":62,"Velocity":45,"Duration":1373416,"SoundDuration":1373416,"Delta":231049675},{"NoteNumber":67,"Velocity":50,"Duration":1373416,"SoundDuration":1373416,"Delta":231049675},{"NoteNumber":70,"Velocity":50,"Duration":1373416,"SoundDuration":1373416,"Delta":231049675},{"NoteNumber":55,"Velocity":111,"Duration":1205302,"SoundDuration":1205302,"Delta":232880897},{"NoteNumber":31,"Velocity":58,"Duration":1205302,"SoundDuration":1205302,"Delta":232880897},{"NoteNumber":43,"Velocity":73,"Duration":1205302,"SoundDuration":1205302,"Delta":232880897},{"NoteNumber":79,"Velocity":109,"Duration":3270941,"SoundDuration":3270941,"Delta":234086200},{"NoteNumber":75,"Velocity":95,"Duration":3270941,"SoundDuration":3270941,"Delta":234086200},{"NoteNumber":70,"Velocity":82,"Duration":3270941,"SoundDuration":3270941,"Delta":234086200},{"NoteNumber":67,"Velocity":82,"Duration":3270941,"SoundDuration":3270941,"Delta":234086200},{"NoteNumber":63,"Velocity":80,"Duration":3270941,"SoundDuration":3270941,"Delta":234086200},{"NoteNumber":58,"Velocity":72,"Duration":3270941,"SoundDuration":3270941,"Delta":234086200},{"NoteNumber":55,"Velocity":64,"Duration":3270941,"SoundDuration":3270941,"Delta":234086200},{"NoteNumber":55,"Velocity":55,"Duration":3049295,"SoundDuration":3049295,"Delta":237357142},{"NoteNumber":60,"Velocity":55,"Duration":3049295,"SoundDuration":3049295,"Delta":237357142},{"NoteNumber":64,"Velocity":61,"Duration":3049295,"SoundDuration":3049295,"Delta":237357142},{"NoteNumber":67,"Velocity":61,"Duration":3049295,"SoundDuration":3049295,"Delta":237357142},{"NoteNumber":52,"Velocity":48,"Duration":3049295,"SoundDuration":3049295,"Delta":237357142},{"NoteNumber":43,"Velocity":38,"Duration":3042980,"SoundDuration":3042980,"Delta":237414316},{"NoteNumber":58,"Velocity":74,"Duration":2643288,"SoundDuration":2643288,"Delta":240406438},{"NoteNumber":64,"Velocity":83,"Duration":2643288,"SoundDuration":2643288,"Delta":240406438},{"NoteNumber":67,"Velocity":83,"Duration":2643288,"SoundDuration":2643288,"Delta":240406438},{"NoteNumber":48,"Velocity":52,"Duration":904158,"SoundDuration":904158,"Delta":240406438},{"NoteNumber":42,"Velocity":47,"Duration":7860679,"SoundDuration":7860679,"Delta":240406438},{"NoteNumber":49,"Velocity":52,"Duration":1739129,"SoundDuration":1739129,"Delta":241310597},{"NoteNumber":59,"Velocity":67,"Duration":2608695,"SoundDuration":2608695,"Delta":243049727},{"NoteNumber":62,"Velocity":75,"Duration":2608695,"SoundDuration":2608695,"Delta":243049727},{"NoteNumber":66,"Velocity":75,"Duration":2608695,"SoundDuration":2608695,"Delta":243049727},{"NoteNumber":50,"Velocity":55,"Duration":2608695,"SoundDuration":2608695,"Delta":243049727},{"NoteNumber":55,"Velocity":53,"Duration":2608695,"SoundDuration":2608695,"Delta":245658422},{"NoteNumber":61,"Velocity":60,"Duration":2608695,"SoundDuration":2608695,"Delta":245658422},{"NoteNumber":64,"Velocity":60,"Duration":2608695,"SoundDuration":2608695,"Delta":245658422},{"NoteNumber":52,"Velocity":44,"Duration":2608695,"SoundDuration":2608695,"Delta":245658422},{"NoteNumber":56,"Velocity":50,"Duration":2608694,"SoundDuration":2608694,"Delta":248267117},{"NoteNumber":59,"Velocity":56,"Duration":2608694,"SoundDuration":2608694,"Delta":248267117},{"NoteNumber":62,"Velocity":56,"Duration":2608694,"SoundDuration":2608694,"Delta":248267117},{"NoteNumber":53,"Velocity":39,"Duration":2608694,"SoundDuration":2608694,"Delta":248267117},{"NoteNumber":42,"Velocity":39,"Duration":2608694,"SoundDuration":2608694,"Delta":248267117},{"NoteNumber":53,"Velocity":82,"Duration":9222254,"SoundDuration":9222254,"Delta":250875812},{"NoteNumber":56,"Velocity":82,"Duration":9222254,"SoundDuration":9222254,"Delta":250875812},{"NoteNumber":62,"Velocity":100,"Duration":9222254,"SoundDuration":9222254,"Delta":250875812},{"NoteNumber":59,"Velocity":92,"Duration":9222254,"SoundDuration":9222254,"Delta":250875812},{"NoteNumber":42,"Velocity":63,"Duration":9222254,"SoundDuration":9222254,"Delta":250875812},{"NoteNumber":47,"Velocity":71,"Duration":9222254,"SoundDuration":9222254,"Delta":250875812},{"NoteNumber":50,"Velocity":79,"Duration":9222254,"SoundDuration":9222254,"Delta":250875812},{"NoteNumber":90,"Velocity":31,"Duration":101425,"SoundDuration":101425,"Delta":261865149},{"NoteNumber":78,"Velocity":19,"Duration":102732,"SoundDuration":102732,"Delta":261966575},{"NoteNumber":90,"Velocity":31,"Duration":104042,"SoundDuration":104042,"Delta":262069307},{"NoteNumber":78,"Velocity":18,"Duration":99916,"SoundDuration":99916,"Delta":262173350},{"NoteNumber":90,"Velocity":31,"Duration":101436,"SoundDuration":101436,"Delta":262273267},{"NoteNumber":78,"Velocity":19,"Duration":102711,"SoundDuration":102711,"Delta":262374703},{"NoteNumber":90,"Velocity":31,"Duration":101685,"SoundDuration":101685,"Delta":262477415},{"NoteNumber":78,"Velocity":19,"Duration":100421,"SoundDuration":100421,"Delta":262579100},{"NoteNumber":90,"Velocity":31,"Duration":102711,"SoundDuration":102711,"Delta":262679522},{"NoteNumber":78,"Velocity":19,"Duration":100429,"SoundDuration":100429,"Delta":262782234},{"NoteNumber":90,"Velocity":32,"Duration":98944,"SoundDuration":98944,"Delta":262882664},{"NoteNumber":78,"Velocity":19,"Duration":99675,"SoundDuration":99675,"Delta":262981608},{"NoteNumber":90,"Velocity":32,"Duration":102451,"SoundDuration":102451,"Delta":263081284},{"NoteNumber":78,"Velocity":20,"Duration":99928,"SoundDuration":99928,"Delta":263183735},{"NoteNumber":90,"Velocity":32,"Duration":97742,"SoundDuration":97742,"Delta":263283664},{"NoteNumber":78,"Velocity":20,"Duration":100418,"SoundDuration":100418,"Delta":263381406},{"NoteNumber":90,"Velocity":32,"Duration":101173,"SoundDuration":101173,"Delta":263481825},{"NoteNumber":78,"Velocity":20,"Duration":98463,"SoundDuration":98463,"Delta":263582998},{"NoteNumber":90,"Velocity":33,"Duration":97034,"SoundDuration":97034,"Delta":263681462},{"NoteNumber":78,"Velocity":20,"Duration":98460,"SoundDuration":98460,"Delta":263778496},{"NoteNumber":90,"Velocity":33,"Duration":98702,"SoundDuration":98702,"Delta":263876957},{"NoteNumber":78,"Velocity":20,"Duration":95897,"SoundDuration":95897,"Delta":263975660},{"NoteNumber":90,"Velocity":33,"Duration":94756,"SoundDuration":94756,"Delta":264071557},{"NoteNumber":78,"Velocity":20,"Duration":94756,"SoundDuration":94756,"Delta":264166314},{"NoteNumber":90,"Velocity":34,"Duration":97268,"SoundDuration":97268,"Delta":264261071},{"NoteNumber":78,"Velocity":21,"Duration":99426,"SoundDuration":99426,"Delta":264358340},{"NoteNumber":90,"Velocity":34,"Duration":97521,"SoundDuration":97521,"Delta":264457766},{"NoteNumber":78,"Velocity":20,"Duration":95206,"SoundDuration":95206,"Delta":264555288},{"NoteNumber":90,"Velocity":34,"Duration":95435,"SoundDuration":95435,"Delta":264650495},{"NoteNumber":78,"Velocity":21,"Duration":97268,"SoundDuration":97268,"Delta":264745930},{"NoteNumber":90,"Velocity":34,"Duration":97503,"SoundDuration":97503,"Delta":264843199},{"NoteNumber":78,"Velocity":21,"Duration":97503,"SoundDuration":97503,"Delta":264940703},{"NoteNumber":90,"Velocity":34,"Duration":96806,"SoundDuration":96806,"Delta":265038207},{"NoteNumber":78,"Velocity":21,"Duration":95432,"SoundDuration":95432,"Delta":265135014},{"NoteNumber":90,"Velocity":34,"Duration":95431,"SoundDuration":95431,"Delta":265230446},{"NoteNumber":78,"Velocity":21,"Duration":97034,"SoundDuration":97034,"Delta":265325878},{"NoteNumber":90,"Velocity":34,"Duration":98218,"SoundDuration":98218,"Delta":265422912},{"NoteNumber":78,"Velocity":21,"Duration":95435,"SoundDuration":95435,"Delta":265521131},{"NoteNumber":90,"Velocity":34,"Duration":94534,"SoundDuration":94534,"Delta":265616566},{"NoteNumber":78,"Velocity":21,"Duration":95660,"SoundDuration":95660,"Delta":265711101},{"NoteNumber":90,"Velocity":34,"Duration":97268,"SoundDuration":97268,"Delta":265806761},{"NoteNumber":78,"Velocity":21,"Duration":96344,"SoundDuration":96344,"Delta":265904030},{"NoteNumber":90,"Velocity":34,"Duration":95432,"SoundDuration":95432,"Delta":266000374},{"NoteNumber":78,"Velocity":21,"Duration":96122,"SoundDuration":96122,"Delta":266095806},{"NoteNumber":90,"Velocity":34,"Duration":97503,"SoundDuration":97503,"Delta":266191929},{"NoteNumber":78,"Velocity":21,"Duration":96344,"SoundDuration":96344,"Delta":266289433},{"NoteNumber":90,"Velocity":34,"Duration":94981,"SoundDuration":94981,"Delta":266385777},{"NoteNumber":78,"Velocity":21,"Duration":94756,"SoundDuration":94756,"Delta":266480759},{"NoteNumber":90,"Velocity":34,"Duration":95663,"SoundDuration":95663,"Delta":266575516},{"NoteNumber":78,"Velocity":21,"Duration":96116,"SoundDuration":96116,"Delta":266671179},{"NoteNumber":90,"Velocity":34,"Duration":94312,"SoundDuration":94312,"Delta":266767296},{"NoteNumber":78,"Velocity":20,"Duration":96125,"SoundDuration":96125,"Delta":266861609},{"NoteNumber":90,"Velocity":34,"Duration":97041,"SoundDuration":97041,"Delta":266957735},{"NoteNumber":78,"Velocity":21,"Duration":95432,"SoundDuration":95432,"Delta":267054776},{"NoteNumber":90,"Velocity":34,"Duration":94756,"SoundDuration":94756,"Delta":267150208},{"NoteNumber":78,"Velocity":21,"Duration":95432,"SoundDuration":95432,"Delta":267244965},{"NoteNumber":90,"Velocity":34,"Duration":94981,"SoundDuration":94981,"Delta":267340397},{"NoteNumber":59,"Velocity":42,"Duration":759733,"SoundDuration":759733,"Delta":267340397},{"NoteNumber":64,"Velocity":42,"Duration":759733,"SoundDuration":759733,"Delta":267340397},{"NoteNumber":67,"Velocity":54,"Duration":759733,"SoundDuration":759733,"Delta":267340397},{"NoteNumber":78,"Velocity":21,"Duration":93661,"SoundDuration":93661,"Delta":267435379},{"NoteNumber":90,"Velocity":34,"Duration":95435,"SoundDuration":95435,"Delta":267529040},{"NoteNumber":78,"Velocity":21,"Duration":96571,"SoundDuration":96571,"Delta":267624475},{"NoteNumber":90,"Velocity":34,"Duration":94759,"SoundDuration":94759,"Delta":267721047},{"NoteNumber":78,"Velocity":21,"Duration":93446,"SoundDuration":93446,"Delta":267815807},{"NoteNumber":90,"Velocity":34,"Duration":94759,"SoundDuration":94759,"Delta":267909253},{"NoteNumber":78,"Velocity":21,"Duration":96116,"SoundDuration":96116,"Delta":268004013},{"NoteNumber":90,"Velocity":34,"Duration":95435,"SoundDuration":95435,"Delta":268100130},{"NoteNumber":58,"Velocity":35,"Duration":760073,"SoundDuration":760073,"Delta":268100130},{"NoteNumber":61,"Velocity":35,"Duration":760073,"SoundDuration":760073,"Delta":268100130},{"NoteNumber":66,"Velocity":44,"Duration":760073,"SoundDuration":760073,"Delta":268100130},{"NoteNumber":78,"Velocity":21,"Duration":94312,"SoundDuration":94312,"Delta":268195565},{"NoteNumber":90,"Velocity":34,"Duration":96344,"SoundDuration":96344,"Delta":268289878},{"NoteNumber":78,"Velocity":21,"Duration":96578,"SoundDuration":96578,"Delta":268386223},{"NoteNumber":90,"Velocity":34,"Duration":93894,"SoundDuration":93894,"Delta":268482801},{"NoteNumber":78,"Velocity":21,"Duration":92160,"SoundDuration":92160,"Delta":268576695},{"NoteNumber":90,"Velocity":34,"Duration":94534,"SoundDuration":94534,"Delta":268668856},{"NoteNumber":78,"Velocity":21,"Duration":96813,"SoundDuration":96813,"Delta":268763390},{"NoteNumber":90,"Velocity":34,"Duration":97041,"SoundDuration":97041,"Delta":268860204},{"NoteNumber":62,"Velocity":43,"Duration":765327,"SoundDuration":765327,"Delta":268860204},{"NoteNumber":66,"Velocity":43,"Duration":765327,"SoundDuration":765327,"Delta":268860204},{"NoteNumber":71,"Velocity":55,"Duration":765327,"SoundDuration":765327,"Delta":268860204},{"NoteNumber":78,"Velocity":21,"Duration":94981,"SoundDuration":94981,"Delta":268957245},{"NoteNumber":90,"Velocity":34,"Duration":96343,"SoundDuration":96343,"Delta":269052227},{"NoteNumber":78,"Velocity":20,"Duration":96799,"SoundDuration":96799,"Delta":269148571},{"NoteNumber":90,"Velocity":34,"Duration":95890,"SoundDuration":95890,"Delta":269245370},{"NoteNumber":78,"Velocity":21,"Duration":94756,"SoundDuration":94756,"Delta":269341261},{"NoteNumber":90,"Velocity":34,"Duration":94756,"SoundDuration":94756,"Delta":269436017},{"NoteNumber":78,"Velocity":21,"Duration":94756,"SoundDuration":94756,"Delta":269530774},{"NoteNumber":90,"Velocity":34,"Duration":94538,"SoundDuration":94538,"Delta":269625531},{"NoteNumber":66,"Velocity":41,"Duration":766103,"SoundDuration":766103,"Delta":269625531},{"NoteNumber":70,"Velocity":41,"Duration":1148778,"SoundDuration":1148778,"Delta":269625531},{"NoteNumber":73,"Velocity":52,"Duration":766103,"SoundDuration":766103,"Delta":269625531},{"NoteNumber":78,"Velocity":21,"Duration":96115,"SoundDuration":96115,"Delta":269720069},{"NoteNumber":90,"Velocity":34,"Duration":96571,"SoundDuration":96571,"Delta":269816185},{"NoteNumber":78,"Velocity":21,"Duration":94098,"SoundDuration":94098,"Delta":269912757},{"NoteNumber":90,"Velocity":34,"Duration":96353,"SoundDuration":96353,"Delta":270006855},{"NoteNumber":78,"Velocity":21,"Duration":98218,"SoundDuration":98218,"Delta":270103208},{"NoteNumber":90,"Velocity":34,"Duration":94538,"SoundDuration":94538,"Delta":270201427},{"NoteNumber":78,"Velocity":21,"Duration":95669,"SoundDuration":95669,"Delta":270295965},{"NoteNumber":90,"Velocity":34,"Duration":96571,"SoundDuration":96571,"Delta":270391634},{"NoteNumber":78,"Velocity":52,"Duration":80552,"SoundDuration":80552,"Delta":270391634},{"NoteNumber":78,"Velocity":19,"Duration":94091,"SoundDuration":94091,"Delta":270488206},{"NoteNumber":90,"Velocity":34,"Duration":96571,"SoundDuration":96571,"Delta":270582297},{"NoteNumber":78,"Velocity":20,"Duration":95440,"SoundDuration":95440,"Delta":270678869},{"NoteNumber":90,"Velocity":33,"Duration":94766,"SoundDuration":94766,"Delta":270774309},{"NoteNumber":78,"Velocity":20,"Duration":96799,"SoundDuration":96799,"Delta":270869076},{"NoteNumber":90,"Velocity":32,"Duration":96344,"SoundDuration":96344,"Delta":270965875},{"NoteNumber":78,"Velocity":20,"Duration":95432,"SoundDuration":95432,"Delta":271062219},{"NoteNumber":90,"Velocity":34,"Duration":94534,"SoundDuration":94534,"Delta":271157651},{"NoteNumber":67,"Velocity":44,"Duration":753992,"SoundDuration":753992,"Delta":271157651},{"NoteNumber":71,"Velocity":44,"Duration":753992,"SoundDuration":753992,"Delta":271157651},{"NoteNumber":74,"Velocity":56,"Duration":753992,"SoundDuration":753992,"Delta":271157651},{"NoteNumber":78,"Velocity":21,"Duration":93446,"SoundDuration":93446,"Delta":271252186},{"NoteNumber":90,"Velocity":34,"Duration":95432,"SoundDuration":95432,"Delta":271345632},{"NoteNumber":78,"Velocity":20,"Duration":93014,"SoundDuration":93014,"Delta":271441064},{"NoteNumber":90,"Velocity":34,"Duration":93451,"SoundDuration":93451,"Delta":271534079},{"NoteNumber":78,"Velocity":21,"Duration":94319,"SoundDuration":94319,"Delta":271627530},{"NoteNumber":90,"Velocity":34,"Duration":93883,"SoundDuration":93883,"Delta":271721850},{"NoteNumber":78,"Velocity":21,"Duration":95910,"SoundDuration":95910,"Delta":271815733},{"NoteNumber":90,"Velocity":34,"Duration":96806,"SoundDuration":96806,"Delta":271911644},{"NoteNumber":65,"Velocity":41,"Duration":780131,"SoundDuration":780131,"Delta":271911644},{"NoteNumber":71,"Velocity":41,"Duration":780131,"SoundDuration":780131,"Delta":271911644},{"NoteNumber":73,"Velocity":51,"Duration":780131,"SoundDuration":780131,"Delta":271911644},{"NoteNumber":78,"Velocity":21,"Duration":97521,"SoundDuration":97521,"Delta":272008451},{"NoteNumber":90,"Velocity":34,"Duration":97749,"SoundDuration":97749,"Delta":272105972},{"NoteNumber":78,"Velocity":21,"Duration":97518,"SoundDuration":97518,"Delta":272203722},{"NoteNumber":90,"Velocity":34,"Duration":97518,"SoundDuration":97518,"Delta":272301240},{"NoteNumber":78,"Velocity":21,"Duration":96579,"SoundDuration":96579,"Delta":272398758},{"NoteNumber":90,"Velocity":34,"Duration":98218,"SoundDuration":98218,"Delta":272495337},{"NoteNumber":78,"Velocity":21,"Duration":98219,"SoundDuration":98219,"Delta":272593556},{"NoteNumber":90,"Velocity":32,"Duration":94323,"SoundDuration":94323,"Delta":272691775},{"NoteNumber":66,"Velocity":46,"Duration":382468,"SoundDuration":382468,"Delta":272691775},{"NoteNumber":70,"Velocity":46,"Duration":382468,"SoundDuration":382468,"Delta":272691775},{"NoteNumber":78,"Velocity":57,"Duration":78748,"SoundDuration":78748,"Delta":272691775},{"NoteNumber":78,"Velocity":21,"Duration":95435,"SoundDuration":95435,"Delta":272786099},{"NoteNumber":90,"Velocity":33,"Duration":95669,"SoundDuration":95669,"Delta":272881534},{"NoteNumber":78,"Velocity":20,"Duration":97041,"SoundDuration":97041,"Delta":272977203},{"NoteNumber":90,"Velocity":33,"Duration":95437,"SoundDuration":95437,"Delta":273074244},{"NoteNumber":78,"Velocity":20,"Duration":97268,"SoundDuration":97268,"Delta":273169682},{"NoteNumber":90,"Velocity":32,"Duration":95210,"SoundDuration":95210,"Delta":273266951},{"NoteNumber":78,"Velocity":20,"Duration":94756,"SoundDuration":94756,"Delta":273362161},{"NoteNumber":90,"Velocity":34,"Duration":96343,"SoundDuration":96343,"Delta":273456918},{"NoteNumber":71,"Velocity":43,"Duration":764682,"SoundDuration":764682,"Delta":273456918},{"NoteNumber":74,"Velocity":55,"Duration":764682,"SoundDuration":764682,"Delta":273456918},{"NoteNumber":78,"Velocity":21,"Duration":94312,"SoundDuration":94312,"Delta":273553261},{"NoteNumber":90,"Velocity":34,"Duration":96343,"SoundDuration":96343,"Delta":273647574},{"NoteNumber":78,"Velocity":20,"Duration":94551,"SoundDuration":94551,"Delta":273743918},{"NoteNumber":90,"Velocity":34,"Duration":94778,"SoundDuration":94778,"Delta":273838469},{"NoteNumber":78,"Velocity":21,"Duration":96344,"SoundDuration":96344,"Delta":273933248},{"NoteNumber":90,"Velocity":34,"Duration":96116,"SoundDuration":96116,"Delta":274029592},{"NoteNumber":78,"Velocity":21,"Duration":95890,"SoundDuration":95890,"Delta":274125709},{"NoteNumber":90,"Velocity":34,"Duration":94091,"SoundDuration":94091,"Delta":274221600},{"NoteNumber":66,"Velocity":41,"Duration":767906,"SoundDuration":767906,"Delta":274221600},{"NoteNumber":73,"Velocity":52,"Duration":767906,"SoundDuration":767906,"Delta":274221600},{"NoteNumber":78,"Velocity":21,"Duration":98229,"SoundDuration":98229,"Delta":274315691},{"NoteNumber":90,"Velocity":34,"Duration":94538,"SoundDuration":94538,"Delta":274413921},{"NoteNumber":78,"Velocity":21,"Duration":94766,"SoundDuration":94766,"Delta":274508459},{"NoteNumber":90,"Velocity":34,"Duration":98944,"SoundDuration":98944,"Delta":274603225},{"NoteNumber":78,"Velocity":21,"Duration":95013,"SoundDuration":95013,"Delta":274702170},{"NoteNumber":90,"Velocity":34,"Duration":94773,"SoundDuration":94773,"Delta":274797183},{"NoteNumber":78,"Velocity":21,"Duration":97549,"SoundDuration":97549,"Delta":274891957},{"NoteNumber":90,"Velocity":33,"Duration":98944,"SoundDuration":98944,"Delta":274989506},{"NoteNumber":67,"Velocity":40,"Duration":791954,"SoundDuration":791954,"Delta":274989506},{"NoteNumber":71,"Velocity":50,"Duration":791954,"SoundDuration":791954,"Delta":274989506},{"NoteNumber":78,"Velocity":21,"Duration":99928,"SoundDuration":99928,"Delta":275088451},{"NoteNumber":90,"Velocity":31,"Duration":99448,"SoundDuration":99448,"Delta":275188380},{"NoteNumber":78,"Velocity":21,"Duration":96799,"SoundDuration":96799,"Delta":275287828},{"NoteNumber":90,"Velocity":32,"Duration":100920,"SoundDuration":100920,"Delta":275384627},{"NoteNumber":78,"Velocity":21,"Duration":97059,"SoundDuration":97059,"Delta":275485548},{"NoteNumber":90,"Velocity":34,"Duration":99426,"SoundDuration":99426,"Delta":275582607},{"NoteNumber":78,"Velocity":21,"Duration":99426,"SoundDuration":99426,"Delta":275682034},{"NoteNumber":90,"Velocity":33,"Duration":99433,"SoundDuration":99433,"Delta":275781461},{"NoteNumber":66,"Velocity":50,"Duration":794794,"SoundDuration":794794,"Delta":275781461},{"NoteNumber":78,"Velocity":21,"Duration":100671,"SoundDuration":100671,"Delta":275880895},{"NoteNumber":90,"Velocity":33,"Duration":98950,"SoundDuration":98950,"Delta":275981566},{"NoteNumber":78,"Velocity":20,"Duration":100165,"SoundDuration":100165,"Delta":276080517},{"NoteNumber":90,"Velocity":32,"Duration":97984,"SoundDuration":97984,"Delta":276180683},{"NoteNumber":78,"Velocity":21,"Duration":100414,"SoundDuration":100414,"Delta":276278667},{"NoteNumber":90,"Velocity":32,"Duration":98228,"SoundDuration":98228,"Delta":276379082},{"NoteNumber":78,"Velocity":21,"Duration":98943,"SoundDuration":98943,"Delta":276477311},{"NoteNumber":90,"Velocity":36,"Duration":100418,"SoundDuration":100418,"Delta":276576255},{"NoteNumber":31,"Velocity":43,"Duration":792107,"SoundDuration":792107,"Delta":276576255},{"NoteNumber":43,"Velocity":55,"Duration":792107,"SoundDuration":792107,"Delta":276576255},{"NoteNumber":78,"Velocity":26,"Duration":98222,"SoundDuration":98222,"Delta":276676674},{"NoteNumber":90,"Velocity":37,"Duration":98712,"SoundDuration":98712,"Delta":276774896},{"NoteNumber":78,"Velocity":28,"Duration":99924,"SoundDuration":99924,"Delta":276873609},{"NoteNumber":90,"Velocity":40,"Duration":97503,"SoundDuration":97503,"Delta":276973534},{"NoteNumber":78,"Velocity":29,"Duration":98463,"SoundDuration":98463,"Delta":277071037},{"NoteNumber":90,"Velocity":40,"Duration":99916,"SoundDuration":99916,"Delta":277169501},{"NoteNumber":78,"Velocity":31,"Duration":98944,"SoundDuration":98944,"Delta":277269418},{"NoteNumber":90,"Velocity":40,"Duration":98944,"SoundDuration":98944,"Delta":277368362},{"NoteNumber":30,"Velocity":41,"Duration":786093,"SoundDuration":786093,"Delta":277368362},{"NoteNumber":42,"Velocity":51,"Duration":786093,"SoundDuration":786093,"Delta":277368362},{"NoteNumber":78,"Velocity":31,"Duration":97507,"SoundDuration":97507,"Delta":277467307},{"NoteNumber":90,"Velocity":40,"Duration":98228,"SoundDuration":98228,"Delta":277564814},{"NoteNumber":78,"Velocity":31,"Duration":99697,"SoundDuration":99697,"Delta":277663043},{"NoteNumber":90,"Velocity":41,"Duration":97507,"SoundDuration":97507,"Delta":277762740},{"NoteNumber":78,"Velocity":32,"Duration":98944,"SoundDuration":98944,"Delta":277860248},{"NoteNumber":90,"Velocity":42,"Duration":98464,"SoundDuration":98464,"Delta":277959192},{"NoteNumber":78,"Velocity":34,"Duration":96799,"SoundDuration":96799,"Delta":278057657},{"NoteNumber":89,"Velocity":48,"Duration":94534,"SoundDuration":94534,"Delta":278154456},{"NoteNumber":35,"Velocity":43,"Duration":763837,"SoundDuration":763837,"Delta":278154456},{"NoteNumber":47,"Velocity":55,"Duration":763837,"SoundDuration":763837,"Delta":278154456},{"NoteNumber":77,"Velocity":39,"Duration":94998,"SoundDuration":94998,"Delta":278248991},{"NoteNumber":89,"Velocity":47,"Duration":95890,"SoundDuration":95890,"Delta":278343989},{"NoteNumber":77,"Velocity":35,"Duration":96131,"SoundDuration":96131,"Delta":278439880},{"NoteNumber":89,"Velocity":48,"Duration":97503,"SoundDuration":97503,"Delta":278536011},{"NoteNumber":77,"Velocity":39,"Duration":95890,"SoundDuration":95890,"Delta":278633515},{"NoteNumber":89,"Velocity":48,"Duration":93661,"SoundDuration":93661,"Delta":278729406},{"NoteNumber":77,"Velocity":39,"Duration":95225,"SoundDuration":95225,"Delta":278823067},{"NoteNumber":88,"Velocity":50,"Duration":97503,"SoundDuration":97503,"Delta":278918293},{"NoteNumber":37,"Velocity":40,"Duration":768120,"SoundDuration":768120,"Delta":278918293},{"NoteNumber":49,"Velocity":50,"Duration":768120,"SoundDuration":768120,"Delta":278918293},{"NoteNumber":76,"Velocity":40,"Duration":94988,"SoundDuration":94988,"Delta":279015797},{"NoteNumber":88,"Velocity":50,"Duration":95213,"SoundDuration":95213,"Delta":279110785},{"NoteNumber":76,"Velocity":39,"Duration":96799,"SoundDuration":96799,"Delta":279205999},{"NoteNumber":88,"Velocity":49,"Duration":95441,"SoundDuration":95441,"Delta":279302798},{"NoteNumber":76,"Velocity":39,"Duration":94998,"SoundDuration":94998,"Delta":279398239},{"NoteNumber":88,"Velocity":49,"Duration":96116,"SoundDuration":96116,"Delta":279493238},{"NoteNumber":76,"Velocity":39,"Duration":97059,"SoundDuration":97059,"Delta":279589355},{"NoteNumber":86,"Velocity":56,"Duration":98218,"SoundDuration":98218,"Delta":279686414},{"NoteNumber":42,"Velocity":42,"Duration":785251,"SoundDuration":785251,"Delta":279686414},{"NoteNumber":54,"Velocity":54,"Duration":785251,"SoundDuration":785251,"Delta":279686414},{"NoteNumber":74,"Velocity":42,"Duration":99192,"SoundDuration":99192,"Delta":279784633},{"NoteNumber":86,"Velocity":56,"Duration":99697,"SoundDuration":99697,"Delta":279883826},{"NoteNumber":74,"Velocity":43,"Duration":95660,"SoundDuration":95660,"Delta":279983524},{"NoteNumber":86,"Velocity":56,"Duration":96578,"SoundDuration":96578,"Delta":280079184},{"NoteNumber":74,"Velocity":43,"Duration":100414,"SoundDuration":100414,"Delta":280175762},{"NoteNumber":86,"Velocity":56,"Duration":97984,"SoundDuration":97984,"Delta":280276177},{"NoteNumber":74,"Velocity":42,"Duration":97503,"SoundDuration":97503,"Delta":280374161},{"NoteNumber":83,"Velocity":52,"Duration":95435,"SoundDuration":95435,"Delta":280471665},{"NoteNumber":38,"Velocity":43,"Duration":764226,"SoundDuration":764226,"Delta":280471665},{"NoteNumber":50,"Velocity":55,"Duration":764226,"SoundDuration":764226,"Delta":280471665},{"NoteNumber":71,"Velocity":43,"Duration":94981,"SoundDuration":94981,"Delta":280567100},{"NoteNumber":83,"Velocity":52,"Duration":97041,"SoundDuration":97041,"Delta":280662082},{"NoteNumber":71,"Velocity":41,"Duration":95213,"SoundDuration":95213,"Delta":280759124},{"NoteNumber":83,"Velocity":52,"Duration":94108,"SoundDuration":94108,"Delta":280854337},{"NoteNumber":71,"Velocity":42,"Duration":96799,"SoundDuration":96799,"Delta":280948445},{"NoteNumber":83,"Velocity":52,"Duration":95890,"SoundDuration":95890,"Delta":281045244},{"NoteNumber":71,"Velocity":42,"Duration":94756,"SoundDuration":94756,"Delta":281141135},{"NoteNumber":82,"Velocity":51,"Duration":93883,"SoundDuration":93883,"Delta":281235892},{"NoteNumber":37,"Velocity":40,"Duration":752847,"SoundDuration":752847,"Delta":281235892},{"NoteNumber":49,"Velocity":50,"Duration":752847,"SoundDuration":752847,"Delta":281235892},{"NoteNumber":70,"Velocity":42,"Duration":93667,"SoundDuration":93667,"Delta":281329775},{"NoteNumber":82,"Velocity":51,"Duration":94981,"SoundDuration":94981,"Delta":281423442},{"NoteNumber":70,"Velocity":42,"Duration":92801,"SoundDuration":92801,"Delta":281518424},{"NoteNumber":82,"Velocity":51,"Duration":95432,"SoundDuration":95432,"Delta":281611226},{"NoteNumber":70,"Velocity":42,"Duration":94544,"SoundDuration":94544,"Delta":281706658},{"NoteNumber":82,"Velocity":51,"Duration":93445,"SoundDuration":93445,"Delta":281801203},{"NoteNumber":70,"Velocity":41,"Duration":94091,"SoundDuration":94091,"Delta":281894648},{"NoteNumber":81,"Velocity":50,"Duration":96806,"SoundDuration":96806,"Delta":281988739},{"NoteNumber":42,"Velocity":41,"Duration":772456,"SoundDuration":772456,"Delta":281988739},{"NoteNumber":54,"Velocity":51,"Duration":772456,"SoundDuration":772456,"Delta":281988739},{"NoteNumber":69,"Velocity":40,"Duration":96361,"SoundDuration":96361,"Delta":282085546},{"NoteNumber":81,"Velocity":49,"Duration":97279,"SoundDuration":97279,"Delta":282181907},{"NoteNumber":69,"Velocity":39,"Duration":96578,"SoundDuration":96578,"Delta":282279187},{"NoteNumber":81,"Velocity":48,"Duration":96115,"SoundDuration":96115,"Delta":282375765},{"NoteNumber":69,"Velocity":39,"Duration":96602,"SoundDuration":96602,"Delta":282471881},{"NoteNumber":81,"Velocity":48,"Duration":97279,"SoundDuration":97279,"Delta":282568484},{"NoteNumber":69,"Velocity":39,"Duration":95432,"SoundDuration":95432,"Delta":282665764},{"NoteNumber":80,"Velocity":48,"Duration":98218,"SoundDuration":98218,"Delta":282761196},{"NoteNumber":38,"Velocity":43,"Duration":1568087,"SoundDuration":1568087,"Delta":282761196},{"NoteNumber":50,"Velocity":55,"Duration":1568087,"SoundDuration":1568087,"Delta":282761196},{"NoteNumber":68,"Velocity":39,"Duration":95887,"SoundDuration":95887,"Delta":282859415},{"NoteNumber":80,"Velocity":48,"Duration":95437,"SoundDuration":95437,"Delta":282955303},{"NoteNumber":68,"Velocity":39,"Duration":98218,"SoundDuration":98218,"Delta":283050740},{"NoteNumber":80,"Velocity":48,"Duration":95660,"SoundDuration":95660,"Delta":283148959},{"NoteNumber":68,"Velocity":39,"Duration":96350,"SoundDuration":96350,"Delta":283244620},{"NoteNumber":80,"Velocity":48,"Duration":97507,"SoundDuration":97507,"Delta":283340971},{"NoteNumber":68,"Velocity":39,"Duration":98484,"SoundDuration":98484,"Delta":283438478},{"NoteNumber":79,"Velocity":43,"Duration":98460,"SoundDuration":98460,"Delta":283536962},{"NoteNumber":67,"Velocity":34,"Duration":99433,"SoundDuration":99433,"Delta":283635423},{"NoteNumber":79,"Velocity":44,"Duration":98954,"SoundDuration":98954,"Delta":283734857},{"NoteNumber":67,"Velocity":35,"Duration":99433,"SoundDuration":99433,"Delta":283833811},{"NoteNumber":79,"Velocity":43,"Duration":99682,"SoundDuration":99682,"Delta":283933245},{"NoteNumber":67,"Velocity":35,"Duration":97984,"SoundDuration":97984,"Delta":284032928},{"NoteNumber":79,"Velocity":47,"Duration":99185,"SoundDuration":99185,"Delta":284130912},{"NoteNumber":67,"Velocity":34,"Duration":99185,"SoundDuration":99185,"Delta":284230098},{"NoteNumber":79,"Velocity":42,"Duration":96579,"SoundDuration":96579,"Delta":284329284},{"NoteNumber":35,"Velocity":41,"Duration":772728,"SoundDuration":772728,"Delta":284329284},{"NoteNumber":47,"Velocity":52,"Duration":772728,"SoundDuration":772728,"Delta":284329284},{"NoteNumber":67,"Velocity":35,"Duration":94981,"SoundDuration":94981,"Delta":284425863},{"NoteNumber":79,"Velocity":42,"Duration":94993,"SoundDuration":94993,"Delta":284520845},{"NoteNumber":67,"Velocity":35,"Duration":97503,"SoundDuration":97503,"Delta":284615839},{"NoteNumber":79,"Velocity":42,"Duration":95660,"SoundDuration":95660,"Delta":284713342},{"NoteNumber":67,"Velocity":35,"Duration":97980,"SoundDuration":97980,"Delta":284809003},{"NoteNumber":79,"Velocity":42,"Duration":98229,"SoundDuration":98229,"Delta":284906983},{"NoteNumber":67,"Velocity":35,"Duration":96799,"SoundDuration":96799,"Delta":285005213},{"NoteNumber":77,"Velocity":44,"Duration":94551,"SoundDuration":94551,"Delta":285102012},{"NoteNumber":37,"Velocity":44,"Duration":764463,"SoundDuration":764463,"Delta":285102012},{"NoteNumber":49,"Velocity":56,"Duration":764463,"SoundDuration":764463,"Delta":285102012},{"NoteNumber":65,"Velocity":36,"Duration":94323,"SoundDuration":94323,"Delta":285196563},{"NoteNumber":77,"Velocity":44,"Duration":96571,"SoundDuration":96571,"Delta":285290886},{"NoteNumber":65,"Velocity":34,"Duration":96571,"SoundDuration":96571,"Delta":285387458},{"NoteNumber":77,"Velocity":44,"Duration":94098,"SoundDuration":94098,"Delta":285484030},{"NoteNumber":65,"Velocity":34,"Duration":96571,"SoundDuration":96571,"Delta":285578128},{"NoteNumber":77,"Velocity":44,"Duration":96343,"SoundDuration":96343,"Delta":285674700},{"NoteNumber":65,"Velocity":33,"Duration":95432,"SoundDuration":95432,"Delta":285771043},{"NoteNumber":77,"Velocity":44,"Duration":100671,"SoundDuration":100671,"Delta":285866475},{"NoteNumber":35,"Velocity":41,"Duration":804707,"SoundDuration":804707,"Delta":285866475},{"NoteNumber":47,"Velocity":52,"Duration":804707,"SoundDuration":804707,"Delta":285866475},{"NoteNumber":65,"Velocity":32,"Duration":99185,"SoundDuration":99185,"Delta":285967147},{"NoteNumber":77,"Velocity":42,"Duration":98950,"SoundDuration":98950,"Delta":286066332},{"NoteNumber":65,"Velocity":32,"Duration":101173,"SoundDuration":101173,"Delta":286165283},{"NoteNumber":77,"Velocity":41,"Duration":100177,"SoundDuration":100177,"Delta":286266457},{"NoteNumber":65,"Velocity":32,"Duration":101677,"SoundDuration":101677,"Delta":286366635},{"NoteNumber":77,"Velocity":41,"Duration":102451,"SoundDuration":102451,"Delta":286468313},{"NoteNumber":65,"Velocity":33,"Duration":100418,"SoundDuration":100418,"Delta":286570764},{"NoteNumber":78,"Velocity":39,"Duration":102980,"SoundDuration":102980,"Delta":286671182},{"NoteNumber":30,"Velocity":36,"Duration":811363,"SoundDuration":811363,"Delta":286671182},{"NoteNumber":42,"Velocity":46,"Duration":811363,"SoundDuration":811363,"Delta":286671182},{"NoteNumber":66,"Velocity":32,"Duration":104311,"SoundDuration":104311,"Delta":286774163},{"NoteNumber":78,"Velocity":39,"Duration":100682,"SoundDuration":100682,"Delta":286878474},{"NoteNumber":66,"Velocity":31,"Duration":99916,"SoundDuration":99916,"Delta":286979156},{"NoteNumber":78,"Velocity":37,"Duration":101677,"SoundDuration":101677,"Delta":287079073},{"NoteNumber":66,"Velocity":31,"Duration":101424,"SoundDuration":101424,"Delta":287180751},{"NoteNumber":78,"Velocity":37,"Duration":99185,"SoundDuration":99185,"Delta":287282176},{"NoteNumber":66,"Velocity":29,"Duration":101184,"SoundDuration":101184,"Delta":287381362},{"NoteNumber":90,"Velocity":36,"Duration":102711,"SoundDuration":102711,"Delta":287482546},{"NoteNumber":78,"Velocity":28,"Duration":100923,"SoundDuration":100923,"Delta":287585258},{"NoteNumber":90,"Velocity":36,"Duration":100923,"SoundDuration":100923,"Delta":287686181},{"NoteNumber":78,"Velocity":28,"Duration":101929,"SoundDuration":101929,"Delta":287787105},{"NoteNumber":90,"Velocity":35,"Duration":101929,"SoundDuration":101929,"Delta":287889035},{"NoteNumber":78,"Velocity":27,"Duration":99675,"SoundDuration":99675,"Delta":287990965},{"NoteNumber":90,"Velocity":35,"Duration":99184,"SoundDuration":99184,"Delta":288090641},{"NoteNumber":78,"Velocity":26,"Duration":98711,"SoundDuration":98711,"Delta":288189826},{"NoteNumber":90,"Velocity":36,"Duration":94981,"SoundDuration":94981,"Delta":288288537},{"NoteNumber":58,"Velocity":44,"Duration":770059,"SoundDuration":770059,"Delta":288288537},{"NoteNumber":61,"Velocity":44,"Duration":770059,"SoundDuration":770059,"Delta":288288537},{"NoteNumber":66,"Velocity":56,"Duration":770059,"SoundDuration":770059,"Delta":288288537},{"NoteNumber":78,"Velocity":28,"Duration":98711,"SoundDuration":98711,"Delta":288383519},{"NoteNumber":90,"Velocity":39,"Duration":95887,"SoundDuration":95887,"Delta":288482230},{"NoteNumber":78,"Velocity":28,"Duration":95431,"SoundDuration":95431,"Delta":288578118},{"NoteNumber":90,"Velocity":37,"Duration":98702,"SoundDuration":98702,"Delta":288673550},{"NoteNumber":78,"Velocity":29,"Duration":96135,"SoundDuration":96135,"Delta":288772253},{"NoteNumber":90,"Velocity":37,"Duration":94091,"SoundDuration":94091,"Delta":288868389},{"NoteNumber":78,"Velocity":34,"Duration":96116,"SoundDuration":96116,"Delta":288962480},{"NoteNumber":89,"Velocity":42,"Duration":95888,"SoundDuration":95888,"Delta":289058597},{"NoteNumber":59,"Velocity":42,"Duration":762438,"SoundDuration":762438,"Delta":289058597},{"NoteNumber":62,"Velocity":42,"Duration":762438,"SoundDuration":762438,"Delta":289058597},{"NoteNumber":67,"Velocity":54,"Duration":762438,"SoundDuration":762438,"Delta":289058597},{"NoteNumber":77,"Velocity":35,"Duration":93451,"SoundDuration":93451,"Delta":289154485},{"NoteNumber":89,"Velocity":42,"Duration":95681,"SoundDuration":95681,"Delta":289247937},{"NoteNumber":77,"Velocity":35,"Duration":95435,"SoundDuration":95435,"Delta":289343618},{"NoteNumber":89,"Velocity":42,"Duration":94988,"SoundDuration":94988,"Delta":289439054},{"NoteNumber":77,"Velocity":35,"Duration":96799,"SoundDuration":96799,"Delta":289534042},{"NoteNumber":89,"Velocity":42,"Duration":95437,"SoundDuration":95437,"Delta":289630841},{"NoteNumber":77,"Velocity":35,"Duration":94756,"SoundDuration":94756,"Delta":289726278},{"NoteNumber":88,"Velocity":46,"Duration":96799,"SoundDuration":96799,"Delta":289821035},{"NoteNumber":55,"Velocity":41,"Duration":783753,"SoundDuration":783753,"Delta":289821035},{"NoteNumber":60,"Velocity":41,"Duration":783753,"SoundDuration":783753,"Delta":289821035},{"NoteNumber":64,"Velocity":51,"Duration":783753,"SoundDuration":783753,"Delta":289821035},{"NoteNumber":76,"Velocity":37,"Duration":98464,"SoundDuration":98464,"Delta":289917834},{"NoteNumber":88,"Velocity":46,"Duration":98229,"SoundDuration":98229,"Delta":290016299},{"NoteNumber":76,"Velocity":39,"Duration":95660,"SoundDuration":95660,"Delta":290114528},{"NoteNumber":88,"Velocity":46,"Duration":99426,"SoundDuration":99426,"Delta":290210188},{"NoteNumber":76,"Velocity":40,"Duration":99667,"SoundDuration":99667,"Delta":290309615},{"NoteNumber":88,"Velocity":46,"Duration":97286,"SoundDuration":97286,"Delta":290409283},{"NoteNumber":76,"Velocity":40,"Duration":98218,"SoundDuration":98218,"Delta":290506570},{"NoteNumber":85,"Velocity":51,"Duration":95663,"SoundDuration":95663,"Delta":290604789},{"NoteNumber":54,"Velocity":46,"Duration":768154,"SoundDuration":768154,"Delta":290604789},{"NoteNumber":58,"Velocity":46,"Duration":768154,"SoundDuration":768154,"Delta":290604789},{"NoteNumber":66,"Velocity":58,"Duration":768154,"SoundDuration":768154,"Delta":290604789},{"NoteNumber":73,"Velocity":40,"Duration":95441,"SoundDuration":95441,"Delta":290700452},{"NoteNumber":85,"Velocity":50,"Duration":97980,"SoundDuration":97980,"Delta":290795894},{"NoteNumber":73,"Velocity":39,"Duration":95215,"SoundDuration":95215,"Delta":290893875},{"NoteNumber":85,"Velocity":50,"Duration":94766,"SoundDuration":94766,"Delta":290989090},{"NoteNumber":73,"Velocity":40,"Duration":96806,"SoundDuration":96806,"Delta":291083857},{"NoteNumber":85,"Velocity":48,"Duration":94534,"SoundDuration":94534,"Delta":291180663},{"NoteNumber":73,"Velocity":40,"Duration":97745,"SoundDuration":97745,"Delta":291275198},{"NoteNumber":83,"Velocity":46,"Duration":97745,"SoundDuration":97745,"Delta":291372944},{"NoteNumber":59,"Velocity":44,"Duration":769957,"SoundDuration":769957,"Delta":291372944},{"NoteNumber":55,"Velocity":44,"Duration":769957,"SoundDuration":769957,"Delta":291372944},{"NoteNumber":67,"Velocity":56,"Duration":769957,"SoundDuration":769957,"Delta":291372944},{"NoteNumber":71,"Velocity":37,"Duration":94312,"SoundDuration":94312,"Delta":291470689},{"NoteNumber":83,"Velocity":46,"Duration":97272,"SoundDuration":97272,"Delta":291565002},{"NoteNumber":71,"Velocity":39,"Duration":97279,"SoundDuration":97279,"Delta":291662275},{"NoteNumber":83,"Velocity":46,"Duration":94759,"SoundDuration":94759,"Delta":291759555},{"NoteNumber":71,"Velocity":40,"Duration":94988,"SoundDuration":94988,"Delta":291854315},{"NoteNumber":83,"Velocity":46,"Duration":96799,"SoundDuration":96799,"Delta":291949303},{"NoteNumber":71,"Velocity":40,"Duration":96799,"SoundDuration":96799,"Delta":292046102},{"NoteNumber":81,"Velocity":43,"Duration":98944,"SoundDuration":98944,"Delta":292142901},{"NoteNumber":57,"Velocity":42,"Duration":789235,"SoundDuration":789235,"Delta":292142901},{"NoteNumber":60,"Velocity":42,"Duration":789235,"SoundDuration":789235,"Delta":292142901},{"NoteNumber":64,"Velocity":54,"Duration":789235,"SoundDuration":789235,"Delta":292142901},{"NoteNumber":69,"Velocity":35,"Duration":97742,"SoundDuration":97742,"Delta":292241846},{"NoteNumber":81,"Velocity":42,"Duration":98702,"SoundDuration":98702,"Delta":292339588},{"NoteNumber":69,"Velocity":35,"Duration":98011,"SoundDuration":98011,"Delta":292438291},{"NoteNumber":81,"Velocity":42,"Duration":100682,"SoundDuration":100682,"Delta":292536303},{"NoteNumber":69,"Velocity":34,"Duration":97503,"SoundDuration":97503,"Delta":292636986},{"NoteNumber":81,"Velocity":42,"Duration":98702,"SoundDuration":98702,"Delta":292734489},{"NoteNumber":69,"Velocity":34,"Duration":98944,"SoundDuration":98944,"Delta":292833192},{"NoteNumber":86,"Velocity":54,"Duration":94313,"SoundDuration":94313,"Delta":292932137},{"NoteNumber":62,"Velocity":46,"Duration":1529229,"SoundDuration":1529229,"Delta":292932137},{"NoteNumber":66,"Velocity":46,"Duration":763128,"SoundDuration":763128,"Delta":292932137},{"NoteNumber":69,"Velocity":58,"Duration":763128,"SoundDuration":763128,"Delta":292932137},{"NoteNumber":74,"Velocity":44,"Duration":96366,"SoundDuration":96366,"Delta":293026450},{"NoteNumber":86,"Velocity":54,"Duration":95662,"SoundDuration":95662,"Delta":293122816},{"NoteNumber":74,"Velocity":46,"Duration":94766,"SoundDuration":94766,"Delta":293218479},{"NoteNumber":86,"Velocity":54,"Duration":96571,"SoundDuration":96571,"Delta":293313245},{"NoteNumber":74,"Velocity":46,"Duration":94098,"SoundDuration":94098,"Delta":293409817},{"NoteNumber":86,"Velocity":54,"Duration":94551,"SoundDuration":94551,"Delta":293503915},{"NoteNumber":74,"Velocity":46,"Duration":96799,"SoundDuration":96799,"Delta":293598466},{"NoteNumber":86,"Velocity":56,"Duration":95669,"SoundDuration":95669,"Delta":293695265},{"NoteNumber":67,"Velocity":46,"Duration":766101,"SoundDuration":766101,"Delta":293695265},{"NoteNumber":71,"Velocity":57,"Duration":766101,"SoundDuration":766101,"Delta":293695265},{"NoteNumber":74,"Velocity":49,"Duration":94098,"SoundDuration":94098,"Delta":293790934},{"NoteNumber":86,"Velocity":55,"Duration":96343,"SoundDuration":96343,"Delta":293885032},{"NoteNumber":74,"Velocity":51,"Duration":97745,"SoundDuration":97745,"Delta":293981376},{"NoteNumber":86,"Velocity":56,"Duration":97518,"SoundDuration":97518,"Delta":294079122},{"NoteNumber":74,"Velocity":49,"Duration":94534,"SoundDuration":94534,"Delta":294176640},{"NoteNumber":86,"Velocity":56,"Duration":94759,"SoundDuration":94759,"Delta":294271175},{"NoteNumber":74,"Velocity":44,"Duration":95432,"SoundDuration":95432,"Delta":294365935},{"NoteNumber":85,"Velocity":50,"Duration":98705,"SoundDuration":98705,"Delta":294461367},{"NoteNumber":66,"Velocity":55,"Duration":3091106,"SoundDuration":3091106,"Delta":294461367},{"NoteNumber":58,"Velocity":49,"Duration":784862,"SoundDuration":784862,"Delta":294461367},{"NoteNumber":61,"Velocity":43,"Duration":1555029,"SoundDuration":1555029,"Delta":294461367},{"NoteNumber":73,"Velocity":39,"Duration":97507,"SoundDuration":97507,"Delta":294560072},{"NoteNumber":85,"Velocity":50,"Duration":98943,"SoundDuration":98943,"Delta":294657579},{"NoteNumber":73,"Velocity":37,"Duration":98701,"SoundDuration":98701,"Delta":294756523},{"NoteNumber":85,"Velocity":49,"Duration":97514,"SoundDuration":97514,"Delta":294855225},{"NoteNumber":73,"Velocity":37,"Duration":98944,"SoundDuration":98944,"Delta":294952739},{"NoteNumber":85,"Velocity":49,"Duration":97503,"SoundDuration":97503,"Delta":295051684},{"NoteNumber":73,"Velocity":39,"Duration":97041,"SoundDuration":97041,"Delta":295149188},{"NoteNumber":90,"Velocity":42,"Duration":95435,"SoundDuration":95435,"Delta":295246229},{"NoteNumber":54,"Velocity":42,"Duration":770166,"SoundDuration":770166,"Delta":295246229},{"NoteNumber":78,"Velocity":34,"Duration":95663,"SoundDuration":95663,"Delta":295341665},{"NoteNumber":90,"Velocity":42,"Duration":97980,"SoundDuration":97980,"Delta":295437328},{"NoteNumber":78,"Velocity":34,"Duration":95890,"SoundDuration":95890,"Delta":295535309},{"NoteNumber":90,"Velocity":42,"Duration":94988,"SoundDuration":94988,"Delta":295631200},{"NoteNumber":78,"Velocity":34,"Duration":97742,"SoundDuration":97742,"Delta":295726188},{"NoteNumber":90,"Velocity":42,"Duration":95887,"SoundDuration":95887,"Delta":295823930},{"NoteNumber":78,"Velocity":34,"Duration":96578,"SoundDuration":96578,"Delta":295919818},{"NoteNumber":93,"Velocity":49,"Duration":95669,"SoundDuration":95669,"Delta":296016396},{"NoteNumber":69,"Velocity":42,"Duration":765603,"SoundDuration":765603,"Delta":296016396},{"NoteNumber":74,"Velocity":42,"Duration":765603,"SoundDuration":765603,"Delta":296016396},{"NoteNumber":78,"Velocity":54,"Duration":79987,"SoundDuration":79987,"Delta":296016396},{"NoteNumber":81,"Velocity":37,"Duration":95669,"SoundDuration":95669,"Delta":296112065},{"NoteNumber":93,"Velocity":49,"Duration":96343,"SoundDuration":96343,"Delta":296207734},{"NoteNumber":81,"Velocity":39,"Duration":94312,"SoundDuration":94312,"Delta":296304078},{"NoteNumber":93,"Velocity":49,"Duration":96816,"SoundDuration":96816,"Delta":296398391},{"NoteNumber":81,"Velocity":39,"Duration":96350,"SoundDuration":96350,"Delta":296495207},{"NoteNumber":93,"Velocity":49,"Duration":94098,"SoundDuration":94098,"Delta":296591558},{"NoteNumber":81,"Velocity":39,"Duration":96343,"SoundDuration":96343,"Delta":296685656},{"NoteNumber":90,"Velocity":49,"Duration":98702,"SoundDuration":98702,"Delta":296782000},{"NoteNumber":71,"Velocity":48,"Duration":770472,"SoundDuration":770472,"Delta":296782000},{"NoteNumber":74,"Velocity":60,"Duration":770472,"SoundDuration":770472,"Delta":296782000},{"NoteNumber":78,"Velocity":37,"Duration":95662,"SoundDuration":95662,"Delta":296880703},{"NoteNumber":90,"Velocity":42,"Duration":95675,"SoundDuration":95675,"Delta":296976365},{"NoteNumber":78,"Velocity":35,"Duration":98222,"SoundDuration":98222,"Delta":297072041},{"NoteNumber":90,"Velocity":41,"Duration":96344,"SoundDuration":96344,"Delta":297170263},{"NoteNumber":78,"Velocity":34,"Duration":94312,"SoundDuration":94312,"Delta":297266608},{"NoteNumber":90,"Velocity":41,"Duration":95435,"SoundDuration":95435,"Delta":297360921},{"NoteNumber":78,"Velocity":34,"Duration":96116,"SoundDuration":96116,"Delta":297456356},{"NoteNumber":90,"Velocity":40,"Duration":94981,"SoundDuration":94981,"Delta":297552473},{"NoteNumber":66,"Velocity":46,"Duration":787751,"SoundDuration":787751,"Delta":297552473},{"NoteNumber":73,"Velocity":58,"Duration":787751,"SoundDuration":787751,"Delta":297552473},{"NoteNumber":78,"Velocity":33,"Duration":96589,"SoundDuration":96589,"Delta":297647455},{"NoteNumber":90,"Velocity":40,"Duration":101173,"SoundDuration":101173,"Delta":297744044},{"NoteNumber":78,"Velocity":33,"Duration":98712,"SoundDuration":98712,"Delta":297845218},{"NoteNumber":90,"Velocity":39,"Duration":98474,"SoundDuration":98474,"Delta":297943930},{"NoteNumber":78,"Velocity":32,"Duration":100414,"SoundDuration":100414,"Delta":298042404},{"NoteNumber":90,"Velocity":37,"Duration":99185,"SoundDuration":99185,"Delta":298142819},{"NoteNumber":78,"Velocity":31,"Duration":98218,"SoundDuration":98218,"Delta":298242005},{"NoteNumber":90,"Velocity":37,"Duration":103240,"SoundDuration":103240,"Delta":298340224},{"NoteNumber":67,"Velocity":41,"Duration":821880,"SoundDuration":821880,"Delta":298340224},{"NoteNumber":71,"Velocity":52,"Duration":821880,"SoundDuration":821880,"Delta":298340224},{"NoteNumber":78,"Velocity":29,"Duration":101173,"SoundDuration":101173,"Delta":298443465},{"NoteNumber":90,"Velocity":36,"Duration":103505,"SoundDuration":103505,"Delta":298544638},{"NoteNumber":78,"Velocity":29,"Duration":101697,"SoundDuration":101697,"Delta":298648144},{"NoteNumber":90,"Velocity":36,"Duration":102479,"SoundDuration":102479,"Delta":298749842},{"NoteNumber":78,"Velocity":31,"Duration":104311,"SoundDuration":104311,"Delta":298852321},{"NoteNumber":90,"Velocity":35,"Duration":101686,"SoundDuration":101686,"Delta":298956633},{"NoteNumber":78,"Velocity":28,"Duration":103785,"SoundDuration":103785,"Delta":299058319},{"NoteNumber":90,"Velocity":34,"Duration":104847,"SoundDuration":104847,"Delta":299162105},{"NoteNumber":66,"Velocity":49,"Duration":821029,"SoundDuration":821029,"Delta":299162105},{"NoteNumber":78,"Velocity":27,"Duration":101172,"SoundDuration":101172,"Delta":299266952},{"NoteNumber":90,"Velocity":34,"Duration":104578,"SoundDuration":104578,"Delta":299368125},{"NoteNumber":78,"Velocity":26,"Duration":104847,"SoundDuration":104847,"Delta":299472704},{"NoteNumber":90,"Velocity":34,"Duration":101172,"SoundDuration":101172,"Delta":299577552},{"NoteNumber":78,"Velocity":27,"Duration":101184,"SoundDuration":101184,"Delta":299678724},{"NoteNumber":90,"Velocity":34,"Duration":102711,"SoundDuration":102711,"Delta":299779909},{"NoteNumber":78,"Velocity":26,"Duration":100513,"SoundDuration":100513,"Delta":299882620},{"NoteNumber":88,"Velocity":52,"Duration":94981,"SoundDuration":94981,"Delta":299983134},{"NoteNumber":30,"Velocity":46,"Duration":769058,"SoundDuration":769058,"Delta":299983134},{"NoteNumber":42,"Velocity":58,"Duration":769058,"SoundDuration":769058,"Delta":299983134},{"NoteNumber":76,"Velocity":42,"Duration":96831,"SoundDuration":96831,"Delta":300078116},{"NoteNumber":88,"Velocity":52,"Duration":95437,"SoundDuration":95437,"Delta":300174947},{"NoteNumber":76,"Velocity":42,"Duration":97518,"SoundDuration":97518,"Delta":300270384},{"NoteNumber":88,"Velocity":52,"Duration":96135,"SoundDuration":96135,"Delta":300367903},{"NoteNumber":76,"Velocity":44,"Duration":94766,"SoundDuration":94766,"Delta":300464038},{"NoteNumber":88,"Velocity":52,"Duration":97034,"SoundDuration":97034,"Delta":300558805},{"NoteNumber":76,"Velocity":44,"Duration":96353,"SoundDuration":96353,"Delta":300655839},{"NoteNumber":88,"Velocity":52,"Duration":93229,"SoundDuration":93229,"Delta":300752192},{"NoteNumber":31,"Velocity":46,"Duration":753743,"SoundDuration":753743,"Delta":300752192},{"NoteNumber":43,"Velocity":57,"Duration":753743,"SoundDuration":753743,"Delta":300752192},{"NoteNumber":76,"Velocity":44,"Duration":93445,"SoundDuration":93445,"Delta":300845422},{"NoteNumber":88,"Velocity":52,"Duration":95435,"SoundDuration":95435,"Delta":300938867},{"NoteNumber":76,"Velocity":42,"Duration":95663,"SoundDuration":95663,"Delta":301034302},{"NoteNumber":88,"Velocity":52,"Duration":93014,"SoundDuration":93014,"Delta":301129966},{"NoteNumber":76,"Velocity":43,"Duration":94759,"SoundDuration":94759,"Delta":301222980},{"NoteNumber":88,"Velocity":52,"Duration":94104,"SoundDuration":94104,"Delta":301317740},{"NoteNumber":76,"Velocity":43,"Duration":94091,"SoundDuration":94091,"Delta":301411844},{"NoteNumber":85,"Velocity":50,"Duration":98218,"SoundDuration":98218,"Delta":301505936},{"NoteNumber":28,"Velocity":43,"Duration":779862,"SoundDuration":779862,"Delta":301505936},{"NoteNumber":40,"Velocity":55,"Duration":779862,"SoundDuration":779862,"Delta":301505936},{"NoteNumber":73,"Velocity":41,"Duration":96799,"SoundDuration":96799,"Delta":301604155},{"NoteNumber":85,"Velocity":50,"Duration":97272,"SoundDuration":97272,"Delta":301700954},{"NoteNumber":73,"Velocity":42,"Duration":98229,"SoundDuration":98229,"Delta":301798226},{"NoteNumber":85,"Velocity":50,"Duration":97279,"SoundDuration":97279,"Delta":301896456},{"NoteNumber":73,"Velocity":42,"Duration":98464,"SoundDuration":98464,"Delta":301993735},{"NoteNumber":85,"Velocity":50,"Duration":96799,"SoundDuration":96799,"Delta":302092200},{"NoteNumber":73,"Velocity":42,"Duration":96799,"SoundDuration":96799,"Delta":302188999},{"NoteNumber":88,"Velocity":52,"Duration":93232,"SoundDuration":93232,"Delta":302285798},{"NoteNumber":30,"Velocity":46,"Duration":751817,"SoundDuration":751817,"Delta":302285798},{"NoteNumber":42,"Velocity":57,"Duration":751817,"SoundDuration":751817,"Delta":302285798},{"NoteNumber":76,"Velocity":44,"Duration":92588,"SoundDuration":92588,"Delta":302379031},{"NoteNumber":88,"Velocity":52,"Duration":95890,"SoundDuration":95890,"Delta":302471620},{"NoteNumber":76,"Velocity":44,"Duration":95215,"SoundDuration":95215,"Delta":302567510},{"NoteNumber":88,"Velocity":52,"Duration":93229,"SoundDuration":93229,"Delta":302662726},{"NoteNumber":76,"Velocity":44,"Duration":94985,"SoundDuration":94985,"Delta":302755956},{"NoteNumber":88,"Velocity":52,"Duration":93445,"SoundDuration":93445,"Delta":302850941},{"NoteNumber":76,"Velocity":43,"Duration":93229,"SoundDuration":93229,"Delta":302944386},{"NoteNumber":88,"Velocity":58,"Duration":95210,"SoundDuration":95210,"Delta":303037616},{"NoteNumber":31,"Velocity":43,"Duration":755058,"SoundDuration":755058,"Delta":303037616},{"NoteNumber":43,"Velocity":55,"Duration":755058,"SoundDuration":755058,"Delta":303037616},{"NoteNumber":76,"Velocity":50,"Duration":93876,"SoundDuration":93876,"Delta":303132826},{"NoteNumber":88,"Velocity":58,"Duration":93445,"SoundDuration":93445,"Delta":303226702},{"NoteNumber":76,"Velocity":50,"Duration":96116,"SoundDuration":96116,"Delta":303320147},{"NoteNumber":88,"Velocity":58,"Duration":95213,"SoundDuration":95213,"Delta":303416264},{"NoteNumber":76,"Velocity":50,"Duration":93014,"SoundDuration":93014,"Delta":303511477},{"NoteNumber":88,"Velocity":58,"Duration":94091,"SoundDuration":94091,"Delta":303604492},{"NoteNumber":76,"Velocity":51,"Duration":94091,"SoundDuration":94091,"Delta":303698583},{"NoteNumber":85,"Velocity":55,"Duration":97749,"SoundDuration":97749,"Delta":303792674},{"NoteNumber":28,"Velocity":43,"Duration":786636,"SoundDuration":786636,"Delta":303792674},{"NoteNumber":40,"Velocity":55,"Duration":786636,"SoundDuration":786636,"Delta":303792674},{"NoteNumber":73,"Velocity":46,"Duration":97514,"SoundDuration":97514,"Delta":303890424},{"NoteNumber":85,"Velocity":55,"Duration":100165,"SoundDuration":100165,"Delta":303987938},{"NoteNumber":73,"Velocity":48,"Duration":99192,"SoundDuration":99192,"Delta":304088104},{"NoteNumber":85,"Velocity":55,"Duration":96115,"SoundDuration":96115,"Delta":304187297},{"NoteNumber":73,"Velocity":47,"Duration":98228,"SoundDuration":98228,"Delta":304283413},{"NoteNumber":85,"Velocity":55,"Duration":99667,"SoundDuration":99667,"Delta":304381641},{"NoteNumber":73,"Velocity":48,"Duration":98002,"SoundDuration":98002,"Delta":304481309},{"NoteNumber":84,"Velocity":56,"Duration":95435,"SoundDuration":95435,"Delta":304579311},{"NoteNumber":33,"Velocity":46,"Duration":772766,"SoundDuration":772766,"Delta":304579311},{"NoteNumber":45,"Velocity":58,"Duration":772766,"SoundDuration":772766,"Delta":304579311},{"NoteNumber":72,"Velocity":48,"Duration":95890,"SoundDuration":95890,"Delta":304674746},{"NoteNumber":84,"Velocity":56,"Duration":96799,"SoundDuration":96799,"Delta":304770637},{"NoteNumber":72,"Velocity":47,"Duration":95437,"SoundDuration":95437,"Delta":304867436},{"NoteNumber":84,"Velocity":56,"Duration":98702,"SoundDuration":98702,"Delta":304962874},{"NoteNumber":72,"Velocity":46,"Duration":97760,"SoundDuration":97760,"Delta":305061577},{"NoteNumber":84,"Velocity":56,"Duration":94759,"SoundDuration":94759,"Delta":305159337},{"NoteNumber":72,"Velocity":48,"Duration":97980,"SoundDuration":97980,"Delta":305254097},{"NoteNumber":83,"Velocity":55,"Duration":98222,"SoundDuration":98222,"Delta":305352077},{"NoteNumber":35,"Velocity":43,"Duration":773860,"SoundDuration":773860,"Delta":305352077},{"NoteNumber":47,"Velocity":55,"Duration":773860,"SoundDuration":773860,"Delta":305352077},{"NoteNumber":71,"Velocity":48,"Duration":95660,"SoundDuration":95660,"Delta":305450300},{"NoteNumber":83,"Velocity":55,"Duration":97034,"SoundDuration":97034,"Delta":305545960},{"NoteNumber":71,"Velocity":48,"Duration":95662,"SoundDuration":95662,"Delta":305642994},{"NoteNumber":83,"Velocity":55,"Duration":95210,"SoundDuration":95210,"Delta":305738657},{"NoteNumber":71,"Velocity":48,"Duration":97518,"SoundDuration":97518,"Delta":305833867},{"NoteNumber":83,"Velocity":55,"Duration":97980,"SoundDuration":97980,"Delta":305931385},{"NoteNumber":71,"Velocity":47,"Duration":96571,"SoundDuration":96571,"Delta":306029366},{"NoteNumber":82,"Velocity":50,"Duration":95887,"SoundDuration":95887,"Delta":306125938},{"NoteNumber":30,"Velocity":42,"Duration":1551341,"SoundDuration":1551341,"Delta":306125938},{"NoteNumber":42,"Velocity":54,"Duration":1551341,"SoundDuration":1551341,"Delta":306125938},{"NoteNumber":70,"Velocity":43,"Duration":97980,"SoundDuration":97980,"Delta":306221825},{"NoteNumber":82,"Velocity":50,"Duration":97507,"SoundDuration":97507,"Delta":306319806},{"NoteNumber":70,"Velocity":41,"Duration":94981,"SoundDuration":94981,"Delta":306417313},{"NoteNumber":82,"Velocity":50,"Duration":95662,"SoundDuration":95662,"Delta":306512295},{"NoteNumber":70,"Velocity":41,"Duration":96813,"SoundDuration":96813,"Delta":306607958},{"NoteNumber":82,"Velocity":50,"Duration":97279,"SoundDuration":97279,"Delta":306704771},{"NoteNumber":70,"Velocity":42,"Duration":98944,"SoundDuration":98944,"Delta":306802051},{"NoteNumber":81,"Velocity":47,"Duration":97521,"SoundDuration":97521,"Delta":306900995},{"NoteNumber":69,"Velocity":40,"Duration":95437,"SoundDuration":95437,"Delta":306998517},{"NoteNumber":81,"Velocity":47,"Duration":98222,"SoundDuration":98222,"Delta":307093955},{"NoteNumber":69,"Velocity":40,"Duration":98944,"SoundDuration":98944,"Delta":307192177},{"NoteNumber":81,"Velocity":47,"Duration":97521,"SoundDuration":97521,"Delta":307291122},{"NoteNumber":69,"Velocity":40,"Duration":94981,"SoundDuration":94981,"Delta":307388644},{"NoteNumber":81,"Velocity":47,"Duration":95672,"SoundDuration":95672,"Delta":307483626},{"NoteNumber":69,"Velocity":41,"Duration":97980,"SoundDuration":97980,"Delta":307579298},{"NoteNumber":80,"Velocity":54,"Duration":98944,"SoundDuration":98944,"Delta":307677279},{"NoteNumber":42,"Velocity":46,"Duration":778032,"SoundDuration":778032,"Delta":307677279},{"NoteNumber":54,"Velocity":58,"Duration":778032,"SoundDuration":778032,"Delta":307677279},{"NoteNumber":68,"Velocity":46,"Duration":97521,"SoundDuration":97521,"Delta":307776223},{"NoteNumber":80,"Velocity":54,"Duration":95432,"SoundDuration":95432,"Delta":307873745},{"NoteNumber":68,"Velocity":44,"Duration":96118,"SoundDuration":96118,"Delta":307969177},{"NoteNumber":80,"Velocity":54,"Duration":97503,"SoundDuration":97503,"Delta":308065295},{"NoteNumber":68,"Velocity":44,"Duration":97503,"SoundDuration":97503,"Delta":308162799},{"NoteNumber":80,"Velocity":54,"Duration":97503,"SoundDuration":97503,"Delta":308260303},{"NoteNumber":68,"Velocity":46,"Duration":97503,"SoundDuration":97503,"Delta":308357807},{"NoteNumber":79,"Velocity":54,"Duration":97742,"SoundDuration":97742,"Delta":308455311},{"NoteNumber":38,"Velocity":47,"Duration":784255,"SoundDuration":784255,"Delta":308455311},{"NoteNumber":50,"Velocity":59,"Duration":784255,"SoundDuration":784255,"Delta":308455311},{"NoteNumber":67,"Velocity":43,"Duration":96799,"SoundDuration":96799,"Delta":308553053},{"NoteNumber":79,"Velocity":50,"Duration":97987,"SoundDuration":97987,"Delta":308649852},{"NoteNumber":67,"Velocity":42,"Duration":100671,"SoundDuration":100671,"Delta":308747840},{"NoteNumber":79,"Velocity":50,"Duration":96817,"SoundDuration":96817,"Delta":308848511},{"NoteNumber":67,"Velocity":44,"Duration":97527,"SoundDuration":97527,"Delta":308945329},{"NoteNumber":79,"Velocity":50,"Duration":99675,"SoundDuration":99675,"Delta":309042857},{"NoteNumber":67,"Velocity":42,"Duration":97034,"SoundDuration":97034,"Delta":309142533},{"NoteNumber":77,"Velocity":48,"Duration":101938,"SoundDuration":101938,"Delta":309239567},{"NoteNumber":37,"Velocity":43,"Duration":814901,"SoundDuration":814901,"Delta":309239567},{"NoteNumber":49,"Velocity":55,"Duration":814901,"SoundDuration":814901,"Delta":309239567},{"NoteNumber":65,"Velocity":41,"Duration":100414,"SoundDuration":100414,"Delta":309341505},{"NoteNumber":77,"Velocity":48,"Duration":102732,"SoundDuration":102732,"Delta":309441920},{"NoteNumber":65,"Velocity":41,"Duration":102479,"SoundDuration":102479,"Delta":309544652},{"NoteNumber":77,"Velocity":48,"Duration":99185,"SoundDuration":99185,"Delta":309647132},{"NoteNumber":65,"Velocity":41,"Duration":102715,"SoundDuration":102715,"Delta":309746317},{"NoteNumber":77,"Velocity":46,"Duration":103505,"SoundDuration":103505,"Delta":309849033},{"NoteNumber":65,"Velocity":39,"Duration":101929,"SoundDuration":101929,"Delta":309952538},{"NoteNumber":77,"Velocity":48,"Duration":105124,"SoundDuration":105124,"Delta":310054468},{"NoteNumber":35,"Velocity":43,"Duration":838938,"SoundDuration":838938,"Delta":310054468},{"NoteNumber":47,"Velocity":55,"Duration":838938,"SoundDuration":838938,"Delta":310054468},{"NoteNumber":65,"Velocity":39,"Duration":103790,"SoundDuration":103790,"Delta":310159593},{"NoteNumber":77,"Velocity":44,"Duration":106237,"SoundDuration":106237,"Delta":310263383},{"NoteNumber":65,"Velocity":39,"Duration":103244,"SoundDuration":103244,"Delta":310369621},{"NoteNumber":77,"Velocity":44,"Duration":105951,"SoundDuration":105951,"Delta":310472866},{"NoteNumber":65,"Velocity":37,"Duration":103774,"SoundDuration":103774,"Delta":310578817},{"NoteNumber":77,"Velocity":44,"Duration":105947,"SoundDuration":105947,"Delta":310682592},{"NoteNumber":65,"Velocity":39,"Duration":104868,"SoundDuration":104868,"Delta":310788539},{"NoteNumber":78,"Velocity":41,"Duration":101938,"SoundDuration":101938,"Delta":310893407},{"NoteNumber":30,"Velocity":41,"Duration":816156,"SoundDuration":816156,"Delta":310893407},{"NoteNumber":42,"Velocity":52,"Duration":816156,"SoundDuration":816156,"Delta":310893407},{"NoteNumber":66,"Velocity":37,"Duration":102723,"SoundDuration":102723,"Delta":310995346},{"NoteNumber":78,"Velocity":41,"Duration":102463,"SoundDuration":102463,"Delta":311098069},{"NoteNumber":66,"Velocity":36,"Duration":99916,"SoundDuration":99916,"Delta":311200533},{"NoteNumber":78,"Velocity":41,"Duration":103248,"SoundDuration":103248,"Delta":311300450},{"NoteNumber":66,"Velocity":34,"Duration":103517,"SoundDuration":103517,"Delta":311403699},{"NoteNumber":78,"Velocity":40,"Duration":101173,"SoundDuration":101173,"Delta":311507216},{"NoteNumber":66,"Velocity":34,"Duration":101173,"SoundDuration":101173,"Delta":311608390},{"NoteNumber":78,"Velocity":40,"Duration":100920,"SoundDuration":100920,"Delta":311709564},{"NoteNumber":66,"Velocity":32,"Duration":100414,"SoundDuration":100414,"Delta":311810484},{"NoteNumber":78,"Velocity":40,"Duration":102711,"SoundDuration":102711,"Delta":311910899},{"NoteNumber":66,"Velocity":32,"Duration":100923,"SoundDuration":100923,"Delta":312013611},{"NoteNumber":78,"Velocity":39,"Duration":99434,"SoundDuration":99434,"Delta":312114535},{"NoteNumber":66,"Velocity":31,"Duration":102711,"SoundDuration":102711,"Delta":312213969},{"NoteNumber":78,"Velocity":39,"Duration":102198,"SoundDuration":102198,"Delta":312316681},{"NoteNumber":66,"Velocity":31,"Duration":100667,"SoundDuration":100667,"Delta":312418880},{"NoteNumber":78,"Velocity":39,"Duration":99924,"SoundDuration":99924,"Delta":312519548},{"NoteNumber":66,"Velocity":28,"Duration":97742,"SoundDuration":97742,"Delta":312619473},{"NoteNumber":78,"Velocity":37,"Duration":100671,"SoundDuration":100671,"Delta":312717215},{"NoteNumber":66,"Velocity":28,"Duration":100430,"SoundDuration":100430,"Delta":312817887},{"NoteNumber":78,"Velocity":37,"Duration":97745,"SoundDuration":97745,"Delta":312918317},{"NoteNumber":66,"Velocity":28,"Duration":101173,"SoundDuration":101173,"Delta":313016063},{"NoteNumber":78,"Velocity":34,"Duration":100169,"SoundDuration":100169,"Delta":313117237},{"NoteNumber":66,"Velocity":25,"Duration":99667,"SoundDuration":99667,"Delta":313217406},{"NoteNumber":66,"Velocity":43,"Duration":196931,"SoundDuration":196931,"Delta":313317074},{"NoteNumber":72,"Velocity":52,"Duration":3842611,"SoundDuration":3842611,"Delta":313317074},{"NoteNumber":76,"Velocity":52,"Duration":2330804,"SoundDuration":2330804,"Delta":313317074},{"NoteNumber":78,"Velocity":37,"Duration":97745,"SoundDuration":97745,"Delta":313317074},{"NoteNumber":50,"Velocity":34,"Duration":4609973,"SoundDuration":4609973,"Delta":313317074},{"NoteNumber":57,"Velocity":34,"Duration":4609973,"SoundDuration":4609973,"Delta":313317074},{"NoteNumber":60,"Velocity":34,"Duration":4609973,"SoundDuration":4609973,"Delta":313317074},{"NoteNumber":64,"Velocity":43,"Duration":2330804,"SoundDuration":2330804,"Delta":313317074},{"NoteNumber":66,"Velocity":25,"Duration":296617,"SoundDuration":296617,"Delta":313414820},{"NoteNumber":78,"Velocity":37,"Duration":99682,"SoundDuration":99682,"Delta":313514005},{"NoteNumber":66,"Velocity":25,"Duration":297349,"SoundDuration":297349,"Delta":313613688},{"NoteNumber":78,"Velocity":37,"Duration":100165,"SoundDuration":100165,"Delta":313711438},{"NoteNumber":66,"Velocity":25,"Duration":293267,"SoundDuration":293267,"Delta":313811604},{"NoteNumber":78,"Velocity":37,"Duration":96799,"SoundDuration":96799,"Delta":313911038},{"NoteNumber":66,"Velocity":25,"Duration":288587,"SoundDuration":288587,"Delta":314007837},{"NoteNumber":78,"Velocity":37,"Duration":96571,"SoundDuration":96571,"Delta":314104871},{"NoteNumber":66,"Velocity":25,"Duration":290007,"SoundDuration":290007,"Delta":314201442},{"NoteNumber":78,"Velocity":37,"Duration":97279,"SoundDuration":97279,"Delta":314296424},{"NoteNumber":66,"Velocity":25,"Duration":293034,"SoundDuration":293034,"Delta":314393704},{"NoteNumber":78,"Velocity":37,"Duration":96344,"SoundDuration":96344,"Delta":314491450},{"NoteNumber":66,"Velocity":25,"Duration":294468,"SoundDuration":294468,"Delta":314587794},{"NoteNumber":78,"Velocity":37,"Duration":98944,"SoundDuration":98944,"Delta":314686739},{"NoteNumber":66,"Velocity":25,"Duration":285237,"SoundDuration":285237,"Delta":314785683},{"NoteNumber":78,"Velocity":37,"Duration":95213,"SoundDuration":95213,"Delta":314882263},{"NoteNumber":66,"Velocity":25,"Duration":286609,"SoundDuration":286609,"Delta":314977476},{"NoteNumber":78,"Velocity":37,"Duration":95660,"SoundDuration":95660,"Delta":315070921},{"NoteNumber":66,"Velocity":25,"Duration":288607,"SoundDuration":288607,"Delta":315166582},{"NoteNumber":78,"Velocity":37,"Duration":95662,"SoundDuration":95662,"Delta":315264085},{"NoteNumber":66,"Velocity":25,"Duration":288130,"SoundDuration":288130,"Delta":315359748},{"NoteNumber":78,"Velocity":37,"Duration":96799,"SoundDuration":96799,"Delta":315455189},{"NoteNumber":66,"Velocity":25,"Duration":282352,"SoundDuration":282352,"Delta":315551988},{"NoteNumber":74,"Velocity":50,"Duration":1511806,"SoundDuration":1511806,"Delta":315647879},{"NoteNumber":78,"Velocity":50,"Duration":93660,"SoundDuration":93660,"Delta":315647879},{"NoteNumber":62,"Velocity":41,"Duration":1511806,"SoundDuration":1511806,"Delta":315647879},{"NoteNumber":66,"Velocity":25,"Duration":283906,"SoundDuration":283906,"Delta":315741539},{"NoteNumber":78,"Velocity":37,"Duration":94988,"SoundDuration":94988,"Delta":315834341},{"NoteNumber":66,"Velocity":25,"Duration":284125,"SoundDuration":284125,"Delta":315929329},{"NoteNumber":78,"Velocity":37,"Duration":93451,"SoundDuration":93451,"Delta":316025446},{"NoteNumber":66,"Velocity":25,"Duration":285238,"SoundDuration":285238,"Delta":316118898},{"NoteNumber":78,"Velocity":37,"Duration":96799,"SoundDuration":96799,"Delta":316213455},{"NoteNumber":66,"Velocity":25,"Duration":286569,"SoundDuration":286569,"Delta":316310254},{"NoteNumber":78,"Velocity":37,"Duration":96115,"SoundDuration":96115,"Delta":316404136},{"NoteNumber":66,"Velocity":25,"Duration":285204,"SoundDuration":285204,"Delta":316500252},{"NoteNumber":78,"Velocity":37,"Duration":94098,"SoundDuration":94098,"Delta":316596824},{"NoteNumber":66,"Velocity":25,"Duration":282086,"SoundDuration":282086,"Delta":316690922},{"NoteNumber":78,"Velocity":37,"Duration":94534,"SoundDuration":94534,"Delta":316785457},{"NoteNumber":66,"Velocity":25,"Duration":279693,"SoundDuration":279693,"Delta":316879992},{"NoteNumber":78,"Velocity":37,"Duration":93230,"SoundDuration":93230,"Delta":316973009},{"NoteNumber":66,"Velocity":25,"Duration":285000,"SoundDuration":285000,"Delta":317066239},{"NoteNumber":72,"Velocity":48,"Duration":767362,"SoundDuration":767362,"Delta":317159685},{"NoteNumber":78,"Velocity":48,"Duration":96344,"SoundDuration":96344,"Delta":317159685},{"NoteNumber":60,"Velocity":39,"Duration":767362,"SoundDuration":767362,"Delta":317159685},{"NoteNumber":66,"Velocity":25,"Duration":286541,"SoundDuration":286541,"Delta":317256029},{"NoteNumber":78,"Velocity":37,"Duration":96571,"SoundDuration":96571,"Delta":317351240},{"NoteNumber":66,"Velocity":25,"Duration":287903,"SoundDuration":287903,"Delta":317447811},{"NoteNumber":78,"Velocity":37,"Duration":96571,"SoundDuration":96571,"Delta":317542571},{"NoteNumber":66,"Velocity":25,"Duration":287904,"SoundDuration":287904,"Delta":317639143},{"NoteNumber":78,"Velocity":37,"Duration":95210,"SoundDuration":95210,"Delta":317735715},{"NoteNumber":66,"Velocity":25,"Duration":96122,"SoundDuration":96122,"Delta":317830925},{"NoteNumber":78,"Velocity":48,"Duration":291665,"SoundDuration":291665,"Delta":317927047},{"NoteNumber":66,"Velocity":37,"Duration":196230,"SoundDuration":196230,"Delta":317927047},{"NoteNumber":70,"Velocity":37,"Duration":774426,"SoundDuration":774426,"Delta":317927047},{"NoteNumber":73,"Velocity":37,"Duration":774426,"SoundDuration":774426,"Delta":317927047},{"NoteNumber":54,"Velocity":33,"Duration":774426,"SoundDuration":774426,"Delta":317927047},{"NoteNumber":58,"Velocity":33,"Duration":774426,"SoundDuration":774426,"Delta":317927047},{"NoteNumber":61,"Velocity":42,"Duration":774426,"SoundDuration":774426,"Delta":317927047},{"NoteNumber":66,"Velocity":25,"Duration":290229,"SoundDuration":290229,"Delta":318025991},{"NoteNumber":78,"Velocity":37,"Duration":291887,"SoundDuration":291887,"Delta":318123278},{"NoteNumber":66,"Velocity":25,"Duration":291662,"SoundDuration":291662,"Delta":318218713},{"NoteNumber":78,"Velocity":37,"Duration":289136,"SoundDuration":289136,"Delta":318316221},{"NoteNumber":66,"Velocity":25,"Duration":286308,"SoundDuration":286308,"Delta":318415165},{"NoteNumber":78,"Velocity":37,"Duration":191098,"SoundDuration":191098,"Delta":318510375},{"NoteNumber":66,"Velocity":25,"Duration":96116,"SoundDuration":96116,"Delta":318605357},{"NoteNumber":78,"Velocity":32,"Duration":92588,"SoundDuration":92588,"Delta":318701474},{"NoteNumber":42,"Velocity":37,"Duration":749974,"SoundDuration":749974,"Delta":318701474},{"NoteNumber":66,"Velocity":20,"Duration":93232,"SoundDuration":93232,"Delta":318794063},{"NoteNumber":78,"Velocity":32,"Duration":94544,"SoundDuration":94544,"Delta":318887296},{"NoteNumber":66,"Velocity":20,"Duration":93014,"SoundDuration":93014,"Delta":318981841},{"NoteNumber":78,"Velocity":32,"Duration":94098,"SoundDuration":94098,"Delta":319074855},{"NoteNumber":66,"Velocity":20,"Duration":94313,"SoundDuration":94313,"Delta":319168953},{"NoteNumber":78,"Velocity":32,"Duration":94091,"SoundDuration":94091,"Delta":319263266},{"NoteNumber":66,"Velocity":21,"Duration":94091,"SoundDuration":94091,"Delta":319357357},{"NoteNumber":78,"Velocity":33,"Duration":95440,"SoundDuration":95440,"Delta":319451448},{"NoteNumber":49,"Velocity":39,"Duration":765431,"SoundDuration":765431,"Delta":319451448},{"NoteNumber":66,"Velocity":21,"Duration":93014,"SoundDuration":93014,"Delta":319546889},{"NoteNumber":78,"Velocity":33,"Duration":97279,"SoundDuration":97279,"Delta":319639904},{"NoteNumber":66,"Velocity":21,"Duration":97034,"SoundDuration":97034,"Delta":319737184},{"NoteNumber":78,"Velocity":33,"Duration":94538,"SoundDuration":94538,"Delta":319834218},{"NoteNumber":66,"Velocity":21,"Duration":96799,"SoundDuration":96799,"Delta":319928756},{"NoteNumber":78,"Velocity":33,"Duration":96118,"SoundDuration":96118,"Delta":320025555},{"NoteNumber":66,"Velocity":21,"Duration":95206,"SoundDuration":95206,"Delta":320121673},{"NoteNumber":78,"Velocity":34,"Duration":94107,"SoundDuration":94107,"Delta":320216880},{"NoteNumber":54,"Velocity":42,"Duration":755506,"SoundDuration":755506,"Delta":320216880},{"NoteNumber":66,"Velocity":23,"Duration":93229,"SoundDuration":93229,"Delta":320310987},{"NoteNumber":78,"Velocity":34,"Duration":95888,"SoundDuration":95888,"Delta":320404217},{"NoteNumber":66,"Velocity":23,"Duration":94759,"SoundDuration":94759,"Delta":320500106},{"NoteNumber":78,"Velocity":34,"Duration":94108,"SoundDuration":94108,"Delta":320594866},{"NoteNumber":66,"Velocity":23,"Duration":95432,"SoundDuration":95432,"Delta":320688974},{"NoteNumber":78,"Velocity":34,"Duration":94534,"SoundDuration":94534,"Delta":320784406},{"NoteNumber":66,"Velocity":23,"Duration":93446,"SoundDuration":93446,"Delta":320878941},{"NoteNumber":78,"Velocity":35,"Duration":93014,"SoundDuration":93014,"Delta":320972387},{"NoteNumber":58,"Velocity":44,"Duration":750435,"SoundDuration":750435,"Delta":320972387},{"NoteNumber":66,"Velocity":23,"Duration":94098,"SoundDuration":94098,"Delta":321065401},{"NoteNumber":78,"Velocity":35,"Duration":95206,"SoundDuration":95206,"Delta":321159499},{"NoteNumber":66,"Velocity":23,"Duration":92801,"SoundDuration":92801,"Delta":321254706},{"NoteNumber":78,"Velocity":35,"Duration":94312,"SoundDuration":94312,"Delta":321347508},{"NoteNumber":66,"Velocity":23,"Duration":94756,"SoundDuration":94756,"Delta":321441821},{"NoteNumber":78,"Velocity":35,"Duration":93445,"SoundDuration":93445,"Delta":321536578},{"NoteNumber":66,"Velocity":24,"Duration":92798,"SoundDuration":92798,"Delta":321630023},{"NoteNumber":78,"Velocity":36,"Duration":100931,"SoundDuration":100931,"Delta":321722822},{"NoteNumber":61,"Velocity":49,"Duration":807012,"SoundDuration":807012,"Delta":321722822},{"NoteNumber":66,"Velocity":24,"Duration":101184,"SoundDuration":101184,"Delta":321823753},{"NoteNumber":78,"Velocity":36,"Duration":101218,"SoundDuration":101218,"Delta":321924938},{"NoteNumber":66,"Velocity":24,"Duration":102475,"SoundDuration":102475,"Delta":322026156},{"NoteNumber":78,"Velocity":36,"Duration":99939,"SoundDuration":99939,"Delta":322128631},{"NoteNumber":66,"Velocity":24,"Duration":101172,"SoundDuration":101172,"Delta":322228571},{"NoteNumber":78,"Velocity":36,"Duration":99675,"SoundDuration":99675,"Delta":322329744},{"NoteNumber":66,"Velocity":24,"Duration":100414,"SoundDuration":100414,"Delta":322429419},{"NoteNumber":66,"Velocity":43,"Duration":195047,"SoundDuration":195047,"Delta":322529834},{"NoteNumber":72,"Velocity":52,"Duration":3827904,"SoundDuration":3827904,"Delta":322529834},{"NoteNumber":76,"Velocity":52,"Duration":2321945,"SoundDuration":2321945,"Delta":322529834},{"NoteNumber":78,"Velocity":37,"Duration":96344,"SoundDuration":96344,"Delta":322529834},{"NoteNumber":50,"Velocity":34,"Duration":4598642,"SoundDuration":4598642,"Delta":322529834},{"NoteNumber":57,"Velocity":34,"Duration":4598642,"SoundDuration":4598642,"Delta":322529834},{"NoteNumber":60,"Velocity":43,"Duration":4598642,"SoundDuration":4598642,"Delta":322529834},{"NoteNumber":64,"Velocity":43,"Duration":2321945,"SoundDuration":2321945,"Delta":322529834},{"NoteNumber":66,"Velocity":21,"Duration":294916,"SoundDuration":294916,"Delta":322626179},{"NoteNumber":78,"Velocity":32,"Duration":97749,"SoundDuration":97749,"Delta":322724882},{"NoteNumber":66,"Velocity":20,"Duration":293766,"SoundDuration":293766,"Delta":322822631},{"NoteNumber":78,"Velocity":32,"Duration":96116,"SoundDuration":96116,"Delta":322921095},{"NoteNumber":66,"Velocity":21,"Duration":294213,"SoundDuration":294213,"Delta":323017212},{"NoteNumber":78,"Velocity":32,"Duration":98228,"SoundDuration":98228,"Delta":323116398},{"NoteNumber":66,"Velocity":21,"Duration":290418,"SoundDuration":290418,"Delta":323214626},{"NoteNumber":78,"Velocity":33,"Duration":96115,"SoundDuration":96115,"Delta":323311425},{"NoteNumber":66,"Velocity":21,"Duration":290448,"SoundDuration":290448,"Delta":323407541},{"NoteNumber":78,"Velocity":34,"Duration":96353,"SoundDuration":96353,"Delta":323505045},{"NoteNumber":66,"Velocity":21,"Duration":291423,"SoundDuration":291423,"Delta":323601399},{"NoteNumber":78,"Velocity":34,"Duration":98944,"SoundDuration":98944,"Delta":323697990},{"NoteNumber":66,"Velocity":21,"Duration":289514,"SoundDuration":289514,"Delta":323796935},{"NoteNumber":78,"Velocity":35,"Duration":96813,"SoundDuration":96813,"Delta":323892822},{"NoteNumber":66,"Velocity":23,"Duration":288369,"SoundDuration":288369,"Delta":323989636},{"NoteNumber":78,"Velocity":35,"Duration":94756,"SoundDuration":94756,"Delta":324086449},{"NoteNumber":66,"Velocity":23,"Duration":288580,"SoundDuration":288580,"Delta":324181206},{"NoteNumber":78,"Velocity":35,"Duration":95890,"SoundDuration":95890,"Delta":324278005},{"NoteNumber":66,"Velocity":23,"Duration":286107,"SoundDuration":286107,"Delta":324373896},{"NoteNumber":78,"Velocity":35,"Duration":96118,"SoundDuration":96118,"Delta":324469787},{"NoteNumber":66,"Velocity":25,"Duration":285875,"SoundDuration":285875,"Delta":324565905},{"NoteNumber":78,"Velocity":36,"Duration":95888,"SoundDuration":95888,"Delta":324660003},{"NoteNumber":66,"Velocity":25,"Duration":282569,"SoundDuration":282569,"Delta":324755892},{"NoteNumber":74,"Velocity":50,"Duration":1505959,"SoundDuration":1505959,"Delta":324851780},{"NoteNumber":78,"Velocity":50,"Duration":92798,"SoundDuration":92798,"Delta":324851780},{"NoteNumber":62,"Velocity":41,"Duration":1505959,"SoundDuration":1505959,"Delta":324851780},{"NoteNumber":66,"Velocity":25,"Duration":282534,"SoundDuration":282534,"Delta":324944579},{"NoteNumber":78,"Velocity":37,"Duration":95206,"SoundDuration":95206,"Delta":325038461},{"NoteNumber":66,"Velocity":25,"Duration":281212,"SoundDuration":281212,"Delta":325133668},{"NoteNumber":78,"Velocity":37,"Duration":93447,"SoundDuration":93447,"Delta":325227113},{"NoteNumber":66,"Velocity":25,"Duration":283213,"SoundDuration":283213,"Delta":325320561},{"NoteNumber":78,"Velocity":37,"Duration":93230,"SoundDuration":93230,"Delta":325414881},{"NoteNumber":66,"Velocity":25,"Duration":283440,"SoundDuration":283440,"Delta":325508111},{"NoteNumber":78,"Velocity":36,"Duration":93016,"SoundDuration":93016,"Delta":325603775},{"NoteNumber":66,"Velocity":25,"Duration":282106,"SoundDuration":282106,"Delta":325696792},{"NoteNumber":78,"Velocity":36,"Duration":94544,"SoundDuration":94544,"Delta":325791551},{"NoteNumber":66,"Velocity":25,"Duration":282129,"SoundDuration":282129,"Delta":325886096},{"NoteNumber":78,"Velocity":37,"Duration":95660,"SoundDuration":95660,"Delta":325978898},{"NoteNumber":66,"Velocity":25,"Duration":283180,"SoundDuration":283180,"Delta":326074559},{"NoteNumber":78,"Velocity":37,"Duration":94756,"SoundDuration":94756,"Delta":326168226},{"NoteNumber":66,"Velocity":25,"Duration":286102,"SoundDuration":286102,"Delta":326262983},{"NoteNumber":72,"Velocity":48,"Duration":770737,"SoundDuration":770737,"Delta":326357739},{"NoteNumber":78,"Velocity":48,"Duration":94981,"SoundDuration":94981,"Delta":326357739},{"NoteNumber":60,"Velocity":39,"Duration":770737,"SoundDuration":770737,"Delta":326357739},{"NoteNumber":66,"Velocity":21,"Duration":287735,"SoundDuration":287735,"Delta":326452721},{"NoteNumber":78,"Velocity":36,"Duration":97051,"SoundDuration":97051,"Delta":326549085},{"NoteNumber":66,"Velocity":21,"Duration":290071,"SoundDuration":290071,"Delta":326646137},{"NoteNumber":78,"Velocity":37,"Duration":96806,"SoundDuration":96806,"Delta":326740457},{"NoteNumber":66,"Velocity":21,"Duration":291213,"SoundDuration":291213,"Delta":326837263},{"NoteNumber":78,"Velocity":34,"Duration":97058,"SoundDuration":97058,"Delta":326936208},{"NoteNumber":66,"Velocity":25,"Duration":95210,"SoundDuration":95210,"Delta":327033267},{"NoteNumber":78,"Velocity":48,"Duration":291645,"SoundDuration":291645,"Delta":327128477},{"NoteNumber":66,"Velocity":37,"Duration":196210,"SoundDuration":196210,"Delta":327128477},{"NoteNumber":70,"Velocity":37,"Duration":772492,"SoundDuration":772492,"Delta":327128477},{"NoteNumber":73,"Velocity":37,"Duration":772492,"SoundDuration":772492,"Delta":327128477},{"NoteNumber":54,"Velocity":33,"Duration":772492,"SoundDuration":772492,"Delta":327128477},{"NoteNumber":58,"Velocity":33,"Duration":772492,"SoundDuration":772492,"Delta":327128477},{"NoteNumber":61,"Velocity":42,"Duration":772492,"SoundDuration":772492,"Delta":327128477},{"NoteNumber":66,"Velocity":25,"Duration":288383,"SoundDuration":288383,"Delta":327227180},{"NoteNumber":78,"Velocity":37,"Duration":288379,"SoundDuration":288379,"Delta":327324687},{"NoteNumber":66,"Velocity":25,"Duration":289295,"SoundDuration":289295,"Delta":327420122},{"NoteNumber":78,"Velocity":36,"Duration":289289,"SoundDuration":289289,"Delta":327515563},{"NoteNumber":66,"Velocity":25,"Duration":287903,"SoundDuration":287903,"Delta":327613067},{"NoteNumber":78,"Velocity":34,"Duration":191552,"SoundDuration":191552,"Delta":327709418},{"NoteNumber":66,"Velocity":25,"Duration":96116,"SoundDuration":96116,"Delta":327804853},{"NoteNumber":78,"Velocity":32,"Duration":91530,"SoundDuration":91530,"Delta":327900970},{"NoteNumber":42,"Velocity":37,"Duration":752714,"SoundDuration":752714,"Delta":327900970},{"NoteNumber":66,"Velocity":20,"Duration":94985,"SoundDuration":94985,"Delta":327992500},{"NoteNumber":78,"Velocity":32,"Duration":95206,"SoundDuration":95206,"Delta":328087485},{"NoteNumber":66,"Velocity":20,"Duration":93016,"SoundDuration":93016,"Delta":328182692},{"NoteNumber":78,"Velocity":32,"Duration":96116,"SoundDuration":96116,"Delta":328275709},{"NoteNumber":66,"Velocity":20,"Duration":94107,"SoundDuration":94107,"Delta":328371826},{"NoteNumber":78,"Velocity":32,"Duration":93660,"SoundDuration":93660,"Delta":328465933},{"NoteNumber":66,"Velocity":21,"Duration":94091,"SoundDuration":94091,"Delta":328559593},{"NoteNumber":78,"Velocity":33,"Duration":96343,"SoundDuration":96343,"Delta":328653684},{"NoteNumber":49,"Velocity":39,"Duration":772179,"SoundDuration":772179,"Delta":328653684},{"NoteNumber":66,"Velocity":21,"Duration":95662,"SoundDuration":95662,"Delta":328750028},{"NoteNumber":78,"Velocity":33,"Duration":95888,"SoundDuration":95888,"Delta":328845690},{"NoteNumber":66,"Velocity":21,"Duration":96116,"SoundDuration":96116,"Delta":328941579},{"NoteNumber":78,"Velocity":33,"Duration":95890,"SoundDuration":95890,"Delta":329037696},{"NoteNumber":66,"Velocity":21,"Duration":97268,"SoundDuration":97268,"Delta":329133587},{"NoteNumber":78,"Velocity":33,"Duration":97503,"SoundDuration":97503,"Delta":329230856},{"NoteNumber":66,"Velocity":21,"Duration":97503,"SoundDuration":97503,"Delta":329328360},{"NoteNumber":78,"Velocity":34,"Duration":94538,"SoundDuration":94538,"Delta":329425864},{"NoteNumber":54,"Velocity":41,"Duration":761734,"SoundDuration":761734,"Delta":329425864},{"NoteNumber":66,"Velocity":23,"Duration":95888,"SoundDuration":95888,"Delta":329520402},{"NoteNumber":78,"Velocity":34,"Duration":95888,"SoundDuration":95888,"Delta":329616290},{"NoteNumber":66,"Velocity":23,"Duration":94312,"SoundDuration":94312,"Delta":329712179},{"NoteNumber":78,"Velocity":34,"Duration":95888,"SoundDuration":95888,"Delta":329806492},{"NoteNumber":66,"Velocity":23,"Duration":96571,"SoundDuration":96571,"Delta":329902380},{"NoteNumber":78,"Velocity":34,"Duration":94323,"SoundDuration":94323,"Delta":329998952},{"NoteNumber":66,"Velocity":23,"Duration":94323,"SoundDuration":94323,"Delta":330093275},{"NoteNumber":78,"Velocity":35,"Duration":93445,"SoundDuration":93445,"Delta":330187598},{"NoteNumber":58,"Velocity":44,"Duration":753150,"SoundDuration":753150,"Delta":330187598},{"NoteNumber":66,"Velocity":23,"Duration":94534,"SoundDuration":94534,"Delta":330281044},{"NoteNumber":78,"Velocity":35,"Duration":92806,"SoundDuration":92806,"Delta":330375579},{"NoteNumber":66,"Velocity":23,"Duration":94107,"SoundDuration":94107,"Delta":330468385},{"NoteNumber":78,"Velocity":35,"Duration":94544,"SoundDuration":94544,"Delta":330562493},{"NoteNumber":66,"Velocity":23,"Duration":94770,"SoundDuration":94770,"Delta":330657038},{"NoteNumber":78,"Velocity":35,"Duration":94335,"SoundDuration":94335,"Delta":330751808},{"NoteNumber":66,"Velocity":24,"Duration":94605,"SoundDuration":94605,"Delta":330846143},{"NoteNumber":78,"Velocity":36,"Duration":98219,"SoundDuration":98219,"Delta":330940749},{"NoteNumber":61,"Velocity":49,"Duration":782519,"SoundDuration":782519,"Delta":330940749},{"NoteNumber":66,"Velocity":24,"Duration":97980,"SoundDuration":97980,"Delta":331038968},{"NoteNumber":78,"Velocity":36,"Duration":97749,"SoundDuration":97749,"Delta":331136948},{"NoteNumber":66,"Velocity":24,"Duration":98944,"SoundDuration":98944,"Delta":331234698},{"NoteNumber":78,"Velocity":36,"Duration":97521,"SoundDuration":97521,"Delta":331333642},{"NoteNumber":66,"Velocity":24,"Duration":95662,"SoundDuration":95662,"Delta":331431164},{"NoteNumber":78,"Velocity":36,"Duration":97980,"SoundDuration":97980,"Delta":331526827},{"NoteNumber":66,"Velocity":24,"Duration":98460,"SoundDuration":98460,"Delta":331624807},{"NoteNumber":66,"Velocity":43,"Duration":193612,"SoundDuration":193612,"Delta":331723268},{"NoteNumber":73,"Velocity":52,"Duration":4635028,"SoundDuration":4635028,"Delta":331723268},{"NoteNumber":75,"Velocity":52,"Duration":2317394,"SoundDuration":2317394,"Delta":331723268},{"NoteNumber":78,"Velocity":37,"Duration":96578,"SoundDuration":96578,"Delta":331723268},{"NoteNumber":63,"Velocity":34,"Duration":2317394,"SoundDuration":2317394,"Delta":331723268},{"NoteNumber":47,"Velocity":34,"Duration":4635028,"SoundDuration":4635028,"Delta":331723268},{"NoteNumber":54,"Velocity":34,"Duration":4635028,"SoundDuration":4635028,"Delta":331723268},{"NoteNumber":66,"Velocity":25,"Duration":293277,"SoundDuration":293277,"Delta":331819846},{"NoteNumber":78,"Velocity":37,"Duration":99426,"SoundDuration":99426,"Delta":331916881},{"NoteNumber":66,"Velocity":25,"Duration":292097,"SoundDuration":292097,"Delta":332016307},{"NoteNumber":78,"Velocity":37,"Duration":96578,"SoundDuration":96578,"Delta":332113124},{"NoteNumber":66,"Velocity":25,"Duration":293710,"SoundDuration":293710,"Delta":332209702},{"NoteNumber":78,"Velocity":37,"Duration":97503,"SoundDuration":97503,"Delta":332308405},{"NoteNumber":66,"Velocity":25,"Duration":290909,"SoundDuration":290909,"Delta":332405909},{"NoteNumber":78,"Velocity":37,"Duration":95663,"SoundDuration":95663,"Delta":332503413},{"NoteNumber":66,"Velocity":25,"Duration":288191,"SoundDuration":288191,"Delta":332599076},{"NoteNumber":78,"Velocity":37,"Duration":95435,"SoundDuration":95435,"Delta":332696819},{"NoteNumber":66,"Velocity":25,"Duration":288419,"SoundDuration":288419,"Delta":332792254},{"NoteNumber":78,"Velocity":37,"Duration":97745,"SoundDuration":97745,"Delta":332887267},{"NoteNumber":66,"Velocity":25,"Duration":290198,"SoundDuration":290198,"Delta":332985013},{"NoteNumber":78,"Velocity":37,"Duration":97503,"SoundDuration":97503,"Delta":333080673},{"NoteNumber":66,"Velocity":25,"Duration":290436,"SoundDuration":290436,"Delta":333178177},{"NoteNumber":78,"Velocity":37,"Duration":96571,"SoundDuration":96571,"Delta":333275211},{"NoteNumber":66,"Velocity":25,"Duration":287986,"SoundDuration":287986,"Delta":333371783},{"NoteNumber":78,"Velocity":37,"Duration":97272,"SoundDuration":97272,"Delta":333468614},{"NoteNumber":66,"Velocity":25,"Duration":284998,"SoundDuration":284998,"Delta":333565887},{"NoteNumber":78,"Velocity":39,"Duration":94998,"SoundDuration":94998,"Delta":333659770},{"NoteNumber":66,"Velocity":25,"Duration":285894,"SoundDuration":285894,"Delta":333754768},{"NoteNumber":78,"Velocity":39,"Duration":93661,"SoundDuration":93661,"Delta":333850885},{"NoteNumber":66,"Velocity":25,"Duration":286537,"SoundDuration":286537,"Delta":333944546},{"NoteNumber":69,"Velocity":47,"Duration":1543087,"SoundDuration":1543087,"Delta":334040663},{"NoteNumber":78,"Velocity":47,"Duration":95206,"SoundDuration":95206,"Delta":334040663},{"NoteNumber":57,"Velocity":40,"Duration":1543087,"SoundDuration":1543087,"Delta":334040663},{"NoteNumber":66,"Velocity":25,"Duration":288128,"SoundDuration":288128,"Delta":334135870},{"NoteNumber":78,"Velocity":36,"Duration":96799,"SoundDuration":96799,"Delta":334231083},{"NoteNumber":66,"Velocity":25,"Duration":289510,"SoundDuration":289510,"Delta":334327882},{"NoteNumber":78,"Velocity":36,"Duration":95890,"SoundDuration":95890,"Delta":334423998},{"NoteNumber":66,"Velocity":23,"Duration":291600,"SoundDuration":291600,"Delta":334519889},{"NoteNumber":78,"Velocity":34,"Duration":96115,"SoundDuration":96115,"Delta":334617393},{"NoteNumber":66,"Velocity":25,"Duration":292822,"SoundDuration":292822,"Delta":334713509},{"NoteNumber":78,"Velocity":35,"Duration":98944,"SoundDuration":98944,"Delta":334811490},{"NoteNumber":66,"Velocity":23,"Duration":288842,"SoundDuration":288842,"Delta":334910435},{"NoteNumber":78,"Velocity":34,"Duration":95440,"SoundDuration":95440,"Delta":335006332},{"NoteNumber":66,"Velocity":21,"Duration":288835,"SoundDuration":288835,"Delta":335101773},{"NoteNumber":78,"Velocity":34,"Duration":96571,"SoundDuration":96571,"Delta":335199277},{"NoteNumber":66,"Velocity":23,"Duration":287902,"SoundDuration":287902,"Delta":335295848},{"NoteNumber":78,"Velocity":33,"Duration":96343,"SoundDuration":96343,"Delta":335390608},{"NoteNumber":66,"Velocity":23,"Duration":289956,"SoundDuration":289956,"Delta":335486952},{"NoteNumber":70,"Velocity":40,"Duration":774545,"SoundDuration":774545,"Delta":335583751},{"NoteNumber":78,"Velocity":40,"Duration":96344,"SoundDuration":96344,"Delta":335583751},{"NoteNumber":58,"Velocity":39,"Duration":774545,"SoundDuration":774545,"Delta":335583751},{"NoteNumber":66,"Velocity":25,"Duration":288823,"SoundDuration":288823,"Delta":335680095},{"NoteNumber":78,"Velocity":32,"Duration":96122,"SoundDuration":96122,"Delta":335776908},{"NoteNumber":66,"Velocity":21,"Duration":291873,"SoundDuration":291873,"Delta":335873031},{"NoteNumber":78,"Velocity":32,"Duration":98464,"SoundDuration":98464,"Delta":335968919},{"NoteNumber":66,"Velocity":20,"Duration":290913,"SoundDuration":290913,"Delta":336067383},{"NoteNumber":78,"Velocity":34,"Duration":95887,"SoundDuration":95887,"Delta":336164905},{"NoteNumber":66,"Velocity":23,"Duration":97503,"SoundDuration":97503,"Delta":336260793},{"NoteNumber":78,"Velocity":42,"Duration":289286,"SoundDuration":289286,"Delta":336358297},{"NoteNumber":66,"Velocity":33,"Duration":193164,"SoundDuration":193164,"Delta":336358297},{"NoteNumber":70,"Velocity":33,"Duration":1531012,"SoundDuration":1531012,"Delta":336358297},{"NoteNumber":73,"Velocity":33,"Duration":1531012,"SoundDuration":1531012,"Delta":336358297},{"NoteNumber":54,"Velocity":28,"Duration":3824689,"SoundDuration":3824689,"Delta":336358297},{"NoteNumber":58,"Velocity":28,"Duration":3824689,"SoundDuration":3824689,"Delta":336358297},{"NoteNumber":61,"Velocity":36,"Duration":3824689,"SoundDuration":3824689,"Delta":336358297},{"NoteNumber":66,"Velocity":25,"Duration":290443,"SoundDuration":290443,"Delta":336454647},{"NoteNumber":78,"Velocity":36,"Duration":291848,"SoundDuration":291848,"Delta":336551461},{"NoteNumber":66,"Velocity":24,"Duration":293233,"SoundDuration":293233,"Delta":336647583},{"NoteNumber":78,"Velocity":35,"Duration":291842,"SoundDuration":291842,"Delta":336745091},{"NoteNumber":66,"Velocity":24,"Duration":290422,"SoundDuration":290422,"Delta":336843310},{"NoteNumber":78,"Velocity":35,"Duration":287450,"SoundDuration":287450,"Delta":336940817},{"NoteNumber":66,"Velocity":24,"Duration":284135,"SoundDuration":284135,"Delta":337036933},{"NoteNumber":78,"Velocity":37,"Duration":281249,"SoundDuration":281249,"Delta":337133732},{"NoteNumber":66,"Velocity":23,"Duration":283513,"SoundDuration":283513,"Delta":337228267},{"NoteNumber":78,"Velocity":35,"Duration":286827,"SoundDuration":286827,"Delta":337321069},{"NoteNumber":66,"Velocity":23,"Duration":286145,"SoundDuration":286145,"Delta":337414982},{"NoteNumber":78,"Velocity":34,"Duration":283437,"SoundDuration":283437,"Delta":337511781},{"NoteNumber":66,"Velocity":23,"Duration":281412,"SoundDuration":281412,"Delta":337607897},{"NoteNumber":78,"Velocity":34,"Duration":188182,"SoundDuration":188182,"Delta":337701127},{"NoteNumber":66,"Velocity":23,"Duration":94091,"SoundDuration":94091,"Delta":337795218},{"NoteNumber":78,"Velocity":33,"Duration":95435,"SoundDuration":95435,"Delta":337889309},{"NoteNumber":66,"Velocity":21,"Duration":95213,"SoundDuration":95213,"Delta":337984745},{"NoteNumber":78,"Velocity":33,"Duration":96799,"SoundDuration":96799,"Delta":338079958},{"NoteNumber":66,"Velocity":21,"Duration":95890,"SoundDuration":95890,"Delta":338176757},{"NoteNumber":78,"Velocity":33,"Duration":95903,"SoundDuration":95903,"Delta":338272648},{"NoteNumber":66,"Velocity":21,"Duration":98218,"SoundDuration":98218,"Delta":338368552},{"NoteNumber":78,"Velocity":32,"Duration":95890,"SoundDuration":95890,"Delta":338466771},{"NoteNumber":66,"Velocity":20,"Duration":95660,"SoundDuration":95660,"Delta":338562662},{"NoteNumber":78,"Velocity":32,"Duration":94534,"SoundDuration":94534,"Delta":338658322},{"NoteNumber":35,"Velocity":24,"Duration":1918042,"SoundDuration":1918042,"Delta":338658322},{"NoteNumber":42,"Velocity":31,"Duration":1918042,"SoundDuration":1918042,"Delta":338658322},{"NoteNumber":66,"Velocity":20,"Duration":96589,"SoundDuration":96589,"Delta":338752857},{"NoteNumber":78,"Velocity":32,"Duration":96816,"SoundDuration":96816,"Delta":338849446},{"NoteNumber":66,"Velocity":20,"Duration":94988,"SoundDuration":94988,"Delta":338946263},{"NoteNumber":78,"Velocity":32,"Duration":97268,"SoundDuration":97268,"Delta":339041251},{"NoteNumber":66,"Velocity":20,"Duration":95213,"SoundDuration":95213,"Delta":339138520},{"NoteNumber":78,"Velocity":32,"Duration":96116,"SoundDuration":96116,"Delta":339233733},{"NoteNumber":66,"Velocity":20,"Duration":96116,"SoundDuration":96116,"Delta":339329850},{"NoteNumber":78,"Velocity":32,"Duration":94098,"SoundDuration":94098,"Delta":339425967},{"NoteNumber":66,"Velocity":20,"Duration":94545,"SoundDuration":94545,"Delta":339520065},{"NoteNumber":78,"Velocity":32,"Duration":94098,"SoundDuration":94098,"Delta":339614610},{"NoteNumber":66,"Velocity":20,"Duration":95206,"SoundDuration":95206,"Delta":339708708},{"NoteNumber":78,"Velocity":32,"Duration":94098,"SoundDuration":94098,"Delta":339803915},{"NoteNumber":66,"Velocity":20,"Duration":96343,"SoundDuration":96343,"Delta":339898013},{"NoteNumber":78,"Velocity":32,"Duration":94538,"SoundDuration":94538,"Delta":339994357},{"NoteNumber":66,"Velocity":20,"Duration":94091,"SoundDuration":94091,"Delta":340088895},{"NoteNumber":78,"Velocity":32,"Duration":98460,"SoundDuration":98460,"Delta":340182986},{"NoteNumber":66,"Velocity":20,"Duration":97268,"SoundDuration":97268,"Delta":340281447},{"NoteNumber":78,"Velocity":32,"Duration":98705,"SoundDuration":98705,"Delta":340378716},{"NoteNumber":66,"Velocity":20,"Duration":98943,"SoundDuration":98943,"Delta":340477421},{"NoteNumber":78,"Velocity":32,"Duration":96806,"SoundDuration":96806,"Delta":340576365},{"NoteNumber":66,"Velocity":20,"Duration":97531,"SoundDuration":97531,"Delta":340673172},{"NoteNumber":78,"Velocity":32,"Duration":98944,"SoundDuration":98944,"Delta":340770703},{"NoteNumber":66,"Velocity":20,"Duration":96579,"SoundDuration":96579,"Delta":340869648},{"NoteNumber":66,"Velocity":43,"Duration":197669,"SoundDuration":197669,"Delta":340966227},{"NoteNumber":73,"Velocity":52,"Duration":4600970,"SoundDuration":4600970,"Delta":340966227},{"NoteNumber":75,"Velocity":52,"Duration":2317224,"SoundDuration":2317224,"Delta":340966227},{"NoteNumber":78,"Velocity":37,"Duration":98243,"SoundDuration":98243,"Delta":340966227},{"NoteNumber":63,"Velocity":34,"Duration":2317224,"SoundDuration":2317224,"Delta":340966227},{"NoteNumber":47,"Velocity":34,"Duration":4600970,"SoundDuration":4600970,"Delta":340966227},{"NoteNumber":54,"Velocity":34,"Duration":2317224,"SoundDuration":2317224,"Delta":340966227},{"NoteNumber":66,"Velocity":25,"Duration":294936,"SoundDuration":294936,"Delta":341064470},{"NoteNumber":78,"Velocity":37,"Duration":96806,"SoundDuration":96806,"Delta":341163897},{"NoteNumber":66,"Velocity":25,"Duration":293966,"SoundDuration":293966,"Delta":341260704},{"NoteNumber":78,"Velocity":37,"Duration":98464,"SoundDuration":98464,"Delta":341359406},{"NoteNumber":66,"Velocity":25,"Duration":292308,"SoundDuration":292308,"Delta":341457871},{"NoteNumber":78,"Velocity":37,"Duration":98218,"SoundDuration":98218,"Delta":341554670},{"NoteNumber":66,"Velocity":25,"Duration":288668,"SoundDuration":288668,"Delta":341652889},{"NoteNumber":78,"Velocity":37,"Duration":94981,"SoundDuration":94981,"Delta":341750179},{"NoteNumber":66,"Velocity":25,"Duration":287989,"SoundDuration":287989,"Delta":341845161},{"NoteNumber":78,"Velocity":37,"Duration":97279,"SoundDuration":97279,"Delta":341941557},{"NoteNumber":66,"Velocity":25,"Duration":287714,"SoundDuration":287714,"Delta":342038837},{"NoteNumber":78,"Velocity":37,"Duration":97503,"SoundDuration":97503,"Delta":342133150},{"NoteNumber":66,"Velocity":25,"Duration":287227,"SoundDuration":287227,"Delta":342230654},{"NoteNumber":78,"Velocity":37,"Duration":95441,"SoundDuration":95441,"Delta":342326552},{"NoteNumber":66,"Velocity":25,"Duration":286317,"SoundDuration":286317,"Delta":342421993},{"NoteNumber":78,"Velocity":37,"Duration":95890,"SoundDuration":95890,"Delta":342517882},{"NoteNumber":66,"Velocity":25,"Duration":286566,"SoundDuration":286566,"Delta":342613773},{"NoteNumber":78,"Velocity":37,"Duration":97268,"SoundDuration":97268,"Delta":342708311},{"NoteNumber":66,"Velocity":25,"Duration":286313,"SoundDuration":286313,"Delta":342805580},{"NoteNumber":78,"Velocity":39,"Duration":96571,"SoundDuration":96571,"Delta":342900340},{"NoteNumber":66,"Velocity":25,"Duration":286540,"SoundDuration":286540,"Delta":342996912},{"NoteNumber":78,"Velocity":39,"Duration":96116,"SoundDuration":96116,"Delta":343091893},{"NoteNumber":66,"Velocity":25,"Duration":282779,"SoundDuration":282779,"Delta":343188010},{"NoteNumber":69,"Velocity":47,"Duration":1508169,"SoundDuration":1508169,"Delta":343283452},{"NoteNumber":78,"Velocity":47,"Duration":93014,"SoundDuration":93014,"Delta":343283452},{"NoteNumber":57,"Velocity":40,"Duration":1508169,"SoundDuration":1508169,"Delta":343283452},{"NoteNumber":66,"Velocity":25,"Duration":282534,"SoundDuration":282534,"Delta":343376467},{"NoteNumber":78,"Velocity":37,"Duration":94759,"SoundDuration":94759,"Delta":343470790},{"NoteNumber":66,"Velocity":25,"Duration":282100,"SoundDuration":282100,"Delta":343565550},{"NoteNumber":78,"Velocity":37,"Duration":94988,"SoundDuration":94988,"Delta":343659001},{"NoteNumber":66,"Velocity":25,"Duration":284530,"SoundDuration":284530,"Delta":343753989},{"NoteNumber":78,"Velocity":37,"Duration":95888,"SoundDuration":95888,"Delta":343847650},{"NoteNumber":66,"Velocity":25,"Duration":282755,"SoundDuration":282755,"Delta":343943538},{"NoteNumber":78,"Velocity":37,"Duration":93016,"SoundDuration":93016,"Delta":344038520},{"NoteNumber":66,"Velocity":25,"Duration":281015,"SoundDuration":281015,"Delta":344131537},{"NoteNumber":78,"Velocity":37,"Duration":94098,"SoundDuration":94098,"Delta":344226293},{"NoteNumber":66,"Velocity":25,"Duration":282590,"SoundDuration":282590,"Delta":344320392},{"NoteNumber":78,"Velocity":37,"Duration":95441,"SoundDuration":95441,"Delta":344412552},{"NoteNumber":66,"Velocity":25,"Duration":283628,"SoundDuration":283628,"Delta":344507993},{"NoteNumber":78,"Velocity":37,"Duration":93883,"SoundDuration":93883,"Delta":344602982},{"NoteNumber":66,"Velocity":25,"Duration":286813,"SoundDuration":286813,"Delta":344696865},{"NoteNumber":70,"Velocity":40,"Duration":775576,"SoundDuration":775576,"Delta":344791621},{"NoteNumber":78,"Velocity":40,"Duration":94534,"SoundDuration":94534,"Delta":344791621},{"NoteNumber":58,"Velocity":39,"Duration":775576,"SoundDuration":775576,"Delta":344791621},{"NoteNumber":66,"Velocity":25,"Duration":292809,"SoundDuration":292809,"Delta":344886156},{"NoteNumber":78,"Velocity":35,"Duration":98944,"SoundDuration":98944,"Delta":344983678},{"NoteNumber":66,"Velocity":25,"Duration":289984,"SoundDuration":289984,"Delta":345082623},{"NoteNumber":78,"Velocity":34,"Duration":97279,"SoundDuration":97279,"Delta":345178966},{"NoteNumber":66,"Velocity":25,"Duration":290951,"SoundDuration":290951,"Delta":345276246},{"NoteNumber":78,"Velocity":34,"Duration":98702,"SoundDuration":98702,"Delta":345372607},{"NoteNumber":66,"Velocity":25,"Duration":95887,"SoundDuration":95887,"Delta":345471310},{"NoteNumber":78,"Velocity":42,"Duration":290212,"SoundDuration":290212,"Delta":345567198},{"NoteNumber":66,"Velocity":33,"Duration":193861,"SoundDuration":193861,"Delta":345567198},{"NoteNumber":70,"Velocity":33,"Duration":1529912,"SoundDuration":1529912,"Delta":345567198},{"NoteNumber":73,"Velocity":33,"Duration":1529912,"SoundDuration":1529912,"Delta":345567198},{"NoteNumber":54,"Velocity":28,"Duration":3824916,"SoundDuration":3824916,"Delta":345567198},{"NoteNumber":58,"Velocity":28,"Duration":3824916,"SoundDuration":3824916,"Delta":345567198},{"NoteNumber":61,"Velocity":36,"Duration":3824916,"SoundDuration":3824916,"Delta":345567198},{"NoteNumber":66,"Velocity":25,"Duration":289500,"SoundDuration":289500,"Delta":345664943},{"NoteNumber":78,"Velocity":36,"Duration":289273,"SoundDuration":289273,"Delta":345761059},{"NoteNumber":66,"Velocity":24,"Duration":289494,"SoundDuration":289494,"Delta":345857410},{"NoteNumber":78,"Velocity":35,"Duration":289259,"SoundDuration":289259,"Delta":345954444},{"NoteNumber":66,"Velocity":24,"Duration":290169,"SoundDuration":290169,"Delta":346050333},{"NoteNumber":78,"Velocity":35,"Duration":287696,"SoundDuration":287696,"Delta":346146905},{"NoteNumber":66,"Velocity":24,"Duration":284126,"SoundDuration":284126,"Delta":346243704},{"NoteNumber":78,"Velocity":37,"Duration":282762,"SoundDuration":282762,"Delta":346340503},{"NoteNumber":66,"Velocity":23,"Duration":282540,"SoundDuration":282540,"Delta":346434601},{"NoteNumber":78,"Velocity":35,"Duration":284068,"SoundDuration":284068,"Delta":346527830},{"NoteNumber":66,"Velocity":23,"Duration":283190,"SoundDuration":283190,"Delta":346623266},{"NoteNumber":78,"Velocity":34,"Duration":284296,"SoundDuration":284296,"Delta":346717142},{"NoteNumber":66,"Velocity":23,"Duration":285211,"SoundDuration":285211,"Delta":346811898},{"NoteNumber":78,"Velocity":34,"Duration":190654,"SoundDuration":190654,"Delta":346906456},{"NoteNumber":66,"Velocity":23,"Duration":95672,"SoundDuration":95672,"Delta":347001438},{"NoteNumber":78,"Velocity":33,"Duration":97034,"SoundDuration":97034,"Delta":347097110},{"NoteNumber":66,"Velocity":21,"Duration":96115,"SoundDuration":96115,"Delta":347194144},{"NoteNumber":78,"Velocity":33,"Duration":97521,"SoundDuration":97521,"Delta":347290260},{"NoteNumber":66,"Velocity":21,"Duration":96135,"SoundDuration":96135,"Delta":347387782},{"NoteNumber":78,"Velocity":33,"Duration":96571,"SoundDuration":96571,"Delta":347483918},{"NoteNumber":66,"Velocity":21,"Duration":97980,"SoundDuration":97980,"Delta":347580490},{"NoteNumber":78,"Velocity":32,"Duration":96578,"SoundDuration":96578,"Delta":347678470},{"NoteNumber":66,"Velocity":20,"Duration":95432,"SoundDuration":95432,"Delta":347775049},{"NoteNumber":78,"Velocity":32,"Duration":94770,"SoundDuration":94770,"Delta":347870481},{"NoteNumber":35,"Velocity":24,"Duration":1911983,"SoundDuration":1911983,"Delta":347870481},{"NoteNumber":42,"Velocity":31,"Duration":1911983,"SoundDuration":1911983,"Delta":347870481},{"NoteNumber":66,"Velocity":20,"Duration":96571,"SoundDuration":96571,"Delta":347965251},{"NoteNumber":78,"Velocity":32,"Duration":95888,"SoundDuration":95888,"Delta":348061822},{"NoteNumber":66,"Velocity":20,"Duration":93882,"SoundDuration":93882,"Delta":348157711},{"NoteNumber":78,"Velocity":32,"Duration":95722,"SoundDuration":95722,"Delta":348251593},{"NoteNumber":66,"Velocity":20,"Duration":96806,"SoundDuration":96806,"Delta":348347316},{"NoteNumber":78,"Velocity":32,"Duration":94759,"SoundDuration":94759,"Delta":348444123},{"NoteNumber":66,"Velocity":20,"Duration":95663,"SoundDuration":95663,"Delta":348538882},{"NoteNumber":78,"Velocity":32,"Duration":94756,"SoundDuration":94756,"Delta":348634546},{"NoteNumber":66,"Velocity":20,"Duration":94538,"SoundDuration":94538,"Delta":348729303},{"NoteNumber":78,"Velocity":32,"Duration":95206,"SoundDuration":95206,"Delta":348823841},{"NoteNumber":66,"Velocity":20,"Duration":92801,"SoundDuration":92801,"Delta":348919048},{"NoteNumber":78,"Velocity":32,"Duration":94131,"SoundDuration":94131,"Delta":349011849},{"NoteNumber":66,"Velocity":20,"Duration":94323,"SoundDuration":94323,"Delta":349105981},{"NoteNumber":78,"Velocity":32,"Duration":95206,"SoundDuration":95206,"Delta":349200304},{"NoteNumber":66,"Velocity":20,"Duration":96602,"SoundDuration":96602,"Delta":349295511},{"NoteNumber":78,"Velocity":32,"Duration":97980,"SoundDuration":97980,"Delta":349392114},{"NoteNumber":66,"Velocity":20,"Duration":96115,"SoundDuration":96115,"Delta":349490094},{"NoteNumber":78,"Velocity":32,"Duration":98504,"SoundDuration":98504,"Delta":349586210},{"NoteNumber":66,"Velocity":20,"Duration":97749,"SoundDuration":97749,"Delta":349684715},{"NoteNumber":78,"Velocity":32,"Duration":98705,"SoundDuration":98705,"Delta":349782465},{"NoteNumber":66,"Velocity":20,"Duration":100177,"SoundDuration":100177,"Delta":349881170},{"NoteNumber":78,"Velocity":32,"Duration":97272,"SoundDuration":97272,"Delta":349981348},{"NoteNumber":66,"Velocity":20,"Duration":96799,"SoundDuration":96799,"Delta":350078620},{"NoteNumber":78,"Velocity":42,"Duration":289107,"SoundDuration":289107,"Delta":350175419},{"NoteNumber":66,"Velocity":33,"Duration":190884,"SoundDuration":190884,"Delta":350175419},{"NoteNumber":71,"Velocity":33,"Duration":3846947,"SoundDuration":3846947,"Delta":350175419},{"NoteNumber":75,"Velocity":42,"Duration":3846947,"SoundDuration":3846947,"Delta":350175419},{"NoteNumber":54,"Velocity":26,"Duration":3846947,"SoundDuration":3846947,"Delta":350175419},{"NoteNumber":59,"Velocity":26,"Duration":3846947,"SoundDuration":3846947,"Delta":350175419},{"NoteNumber":63,"Velocity":33,"Duration":3846947,"SoundDuration":3846947,"Delta":350175419},{"NoteNumber":66,"Velocity":25,"Duration":288651,"SoundDuration":288651,"Delta":350271310},{"NoteNumber":78,"Velocity":37,"Duration":289326,"SoundDuration":289326,"Delta":350366304},{"NoteNumber":66,"Velocity":25,"Duration":288853,"SoundDuration":288853,"Delta":350464527},{"NoteNumber":78,"Velocity":36,"Duration":289769,"SoundDuration":289769,"Delta":350559962},{"NoteNumber":66,"Velocity":25,"Duration":291604,"SoundDuration":291604,"Delta":350655631},{"NoteNumber":78,"Velocity":36,"Duration":288167,"SoundDuration":288167,"Delta":350753380},{"NoteNumber":66,"Velocity":25,"Duration":287705,"SoundDuration":287705,"Delta":350849731},{"NoteNumber":78,"Velocity":32,"Duration":284736,"SoundDuration":284736,"Delta":350947235},{"NoteNumber":35,"Velocity":36,"Duration":756622,"SoundDuration":756622,"Delta":350947235},{"NoteNumber":66,"Velocity":19,"Duration":283239,"SoundDuration":283239,"Delta":351041548},{"NoteNumber":78,"Velocity":29,"Duration":282557,"SoundDuration":282557,"Delta":351137436},{"NoteNumber":66,"Velocity":19,"Duration":281692,"SoundDuration":281692,"Delta":351231971},{"NoteNumber":78,"Velocity":29,"Duration":283633,"SoundDuration":283633,"Delta":351324787},{"NoteNumber":66,"Velocity":19,"Duration":283863,"SoundDuration":283863,"Delta":351419994},{"NoteNumber":78,"Velocity":29,"Duration":286766,"SoundDuration":286766,"Delta":351513663},{"NoteNumber":66,"Velocity":19,"Duration":288597,"SoundDuration":288597,"Delta":351608420},{"NoteNumber":78,"Velocity":31,"Duration":290428,"SoundDuration":290428,"Delta":351703858},{"NoteNumber":42,"Velocity":36,"Duration":770117,"SoundDuration":770117,"Delta":351703858},{"NoteNumber":66,"Velocity":20,"Duration":289520,"SoundDuration":289520,"Delta":351800429},{"NoteNumber":78,"Velocity":31,"Duration":289739,"SoundDuration":289739,"Delta":351897017},{"NoteNumber":66,"Velocity":20,"Duration":287455,"SoundDuration":287455,"Delta":351994286},{"NoteNumber":78,"Velocity":31,"Duration":287908,"SoundDuration":287908,"Delta":352089950},{"NoteNumber":66,"Velocity":20,"Duration":287218,"SoundDuration":287218,"Delta":352186757},{"NoteNumber":78,"Velocity":31,"Duration":286778,"SoundDuration":286778,"Delta":352281742},{"NoteNumber":66,"Velocity":20,"Duration":286778,"SoundDuration":286778,"Delta":352377858},{"NoteNumber":78,"Velocity":31,"Duration":283900,"SoundDuration":283900,"Delta":352473975},{"NoteNumber":51,"Velocity":36,"Duration":759546,"SoundDuration":759546,"Delta":352473975},{"NoteNumber":66,"Velocity":20,"Duration":284137,"SoundDuration":284137,"Delta":352568520},{"NoteNumber":78,"Velocity":31,"Duration":284137,"SoundDuration":284137,"Delta":352664637},{"NoteNumber":66,"Velocity":20,"Duration":284781,"SoundDuration":284781,"Delta":352757876},{"NoteNumber":78,"Velocity":32,"Duration":285431,"SoundDuration":285431,"Delta":352852658},{"NoteNumber":66,"Velocity":20,"Duration":284746,"SoundDuration":284746,"Delta":352948775},{"NoteNumber":78,"Velocity":32,"Duration":289808,"SoundDuration":289808,"Delta":353042657},{"NoteNumber":66,"Velocity":20,"Duration":291183,"SoundDuration":291183,"Delta":353138089},{"NoteNumber":78,"Velocity":32,"Duration":294215,"SoundDuration":294215,"Delta":353233521},{"NoteNumber":59,"Velocity":34,"Duration":788845,"SoundDuration":788845,"Delta":353233521},{"NoteNumber":66,"Velocity":20,"Duration":293020,"SoundDuration":293020,"Delta":353332466},{"NoteNumber":78,"Velocity":32,"Duration":294933,"SoundDuration":294933,"Delta":353429273},{"NoteNumber":66,"Velocity":20,"Duration":297642,"SoundDuration":297642,"Delta":353527737},{"NoteNumber":78,"Velocity":32,"Duration":297656,"SoundDuration":297656,"Delta":353625486},{"NoteNumber":66,"Velocity":21,"Duration":298160,"SoundDuration":298160,"Delta":353724206},{"NoteNumber":78,"Velocity":32,"Duration":196987,"SoundDuration":196987,"Delta":353825379},{"NoteNumber":66,"Velocity":21,"Duration":99224,"SoundDuration":99224,"Delta":353923142},{"NoteNumber":78,"Velocity":33,"Duration":100670,"SoundDuration":100670,"Delta":354022367},{"NoteNumber":63,"Velocity":34,"Duration":821239,"SoundDuration":821239,"Delta":354022367},{"NoteNumber":66,"Velocity":21,"Duration":100923,"SoundDuration":100923,"Delta":354123038},{"NoteNumber":78,"Velocity":33,"Duration":101677,"SoundDuration":101677,"Delta":354223961},{"NoteNumber":66,"Velocity":21,"Duration":99266,"SoundDuration":99266,"Delta":354325639},{"NoteNumber":78,"Velocity":33,"Duration":103228,"SoundDuration":103228,"Delta":354424906},{"NoteNumber":66,"Velocity":21,"Duration":103451,"SoundDuration":103451,"Delta":354528134},{"NoteNumber":78,"Velocity":33,"Duration":105637,"SoundDuration":105637,"Delta":354631586},{"NoteNumber":66,"Velocity":21,"Duration":106382,"SoundDuration":106382,"Delta":354737223},{"NoteNumber":78,"Velocity":32,"Duration":96360,"SoundDuration":96360,"Delta":354843606},{"NoteNumber":90,"Velocity":38,"Duration":6890345,"SoundDuration":6890345,"Delta":354843606},{"NoteNumber":87,"Velocity":38,"Duration":6890345,"SoundDuration":6890345,"Delta":354843606},{"NoteNumber":83,"Velocity":38,"Duration":6890345,"SoundDuration":6890345,"Delta":354843606},{"NoteNumber":66,"Velocity":19,"Duration":96363,"SoundDuration":96363,"Delta":354939967},{"NoteNumber":78,"Velocity":33,"Duration":95543,"SoundDuration":95543,"Delta":355036330},{"NoteNumber":66,"Velocity":19,"Duration":95949,"SoundDuration":95949,"Delta":355131874},{"NoteNumber":78,"Velocity":32,"Duration":95755,"SoundDuration":95755,"Delta":355227824},{"NoteNumber":66,"Velocity":19,"Duration":95551,"SoundDuration":95551,"Delta":355323580},{"NoteNumber":78,"Velocity":32,"Duration":93750,"SoundDuration":93750,"Delta":355419131},{"NoteNumber":66,"Velocity":20,"Duration":93863,"SoundDuration":93863,"Delta":355512881},{"NoteNumber":78,"Velocity":34,"Duration":93014,"SoundDuration":93014,"Delta":355606745},{"NoteNumber":66,"Velocity":20,"Duration":94312,"SoundDuration":94312,"Delta":355699760},{"NoteNumber":78,"Velocity":32,"Duration":93232,"SoundDuration":93232,"Delta":355794073},{"NoteNumber":66,"Velocity":20,"Duration":95432,"SoundDuration":95432,"Delta":355887305},{"NoteNumber":78,"Velocity":31,"Duration":92373,"SoundDuration":92373,"Delta":355982737},{"NoteNumber":66,"Velocity":20,"Duration":94312,"SoundDuration":94312,"Delta":356075110},{"NoteNumber":78,"Velocity":31,"Duration":94091,"SoundDuration":94091,"Delta":356169423},{"NoteNumber":66,"Velocity":20,"Duration":93661,"SoundDuration":93661,"Delta":356263514},{"NoteNumber":78,"Velocity":29,"Duration":95009,"SoundDuration":95009,"Delta":356357176},{"NoteNumber":66,"Velocity":19,"Duration":95215,"SoundDuration":95215,"Delta":356452185},{"NoteNumber":78,"Velocity":29,"Duration":93667,"SoundDuration":93667,"Delta":356547401},{"NoteNumber":66,"Velocity":18,"Duration":94329,"SoundDuration":94329,"Delta":356641068},{"NoteNumber":78,"Velocity":29,"Duration":92803,"SoundDuration":92803,"Delta":356735398},{"NoteNumber":66,"Velocity":18,"Duration":95432,"SoundDuration":95432,"Delta":356828201},{"NoteNumber":78,"Velocity":28,"Duration":94319,"SoundDuration":94319,"Delta":356923633},{"NoteNumber":66,"Velocity":18,"Duration":93017,"SoundDuration":93017,"Delta":357017953},{"NoteNumber":78,"Velocity":27,"Duration":95432,"SoundDuration":95432,"Delta":357110971},{"NoteNumber":66,"Velocity":18,"Duration":94323,"SoundDuration":94323,"Delta":357206403},{"NoteNumber":78,"Velocity":27,"Duration":93016,"SoundDuration":93016,"Delta":357300726},{"NoteNumber":66,"Velocity":17,"Duration":95206,"SoundDuration":95206,"Delta":357393743},{"NoteNumber":78,"Velocity":26,"Duration":93882,"SoundDuration":93882,"Delta":357488950},{"NoteNumber":66,"Velocity":17,"Duration":91530,"SoundDuration":91530,"Delta":357582832},{"NoteNumber":78,"Velocity":26,"Duration":94759,"SoundDuration":94759,"Delta":357674362},{"NoteNumber":66,"Velocity":17,"Duration":94750,"SoundDuration":94750,"Delta":357769122},{"NoteNumber":78,"Velocity":24,"Duration":96448,"SoundDuration":96448,"Delta":357863872},{"NoteNumber":66,"Velocity":16,"Duration":94282,"SoundDuration":94282,"Delta":357960321},{"NoteNumber":78,"Velocity":24,"Duration":94281,"SoundDuration":94281,"Delta":358054603},{"NoteNumber":66,"Velocity":15,"Duration":93565,"SoundDuration":93565,"Delta":358148884},{"NoteNumber":78,"Velocity":24,"Duration":93567,"SoundDuration":93567,"Delta":358242450},{"NoteNumber":66,"Velocity":15,"Duration":95274,"SoundDuration":95274,"Delta":358336017},{"NoteNumber":78,"Velocity":23,"Duration":94014,"SoundDuration":94014,"Delta":358431292},{"NoteNumber":66,"Velocity":15,"Duration":93480,"SoundDuration":93480,"Delta":358525306},{"NoteNumber":78,"Velocity":22,"Duration":95432,"SoundDuration":95432,"Delta":358618787},{"NoteNumber":66,"Velocity":15,"Duration":93708,"SoundDuration":93708,"Delta":358714219},{"NoteNumber":78,"Velocity":22,"Duration":93473,"SoundDuration":93473,"Delta":358807928},{"NoteNumber":66,"Velocity":14,"Duration":95206,"SoundDuration":95206,"Delta":358901401},{"NoteNumber":78,"Velocity":22,"Duration":93129,"SoundDuration":93129,"Delta":358996608},{"NoteNumber":66,"Velocity":14,"Duration":92127,"SoundDuration":92127,"Delta":359089738},{"NoteNumber":78,"Velocity":22,"Duration":95072,"SoundDuration":95072,"Delta":359181865},{"NoteNumber":66,"Velocity":14,"Duration":95049,"SoundDuration":95049,"Delta":359276938},{"NoteNumber":78,"Velocity":22,"Duration":96822,"SoundDuration":96822,"Delta":359371988},{"NoteNumber":66,"Velocity":15,"Duration":98733,"SoundDuration":98733,"Delta":359468810},{"NoteNumber":78,"Velocity":22,"Duration":95609,"SoundDuration":95609,"Delta":359567543},{"NoteNumber":66,"Velocity":14,"Duration":94997,"SoundDuration":94997,"Delta":359663153},{"NoteNumber":78,"Velocity":22,"Duration":94637,"SoundDuration":94637,"Delta":359758151},{"NoteNumber":66,"Velocity":14,"Duration":93305,"SoundDuration":93305,"Delta":359852788},{"NoteNumber":78,"Velocity":22,"Duration":95488,"SoundDuration":95488,"Delta":359946094},{"NoteNumber":66,"Velocity":14,"Duration":95445,"SoundDuration":95445,"Delta":360041582},{"NoteNumber":78,"Velocity":20,"Duration":97325,"SoundDuration":97325,"Delta":360137028},{"NoteNumber":66,"Velocity":13,"Duration":95079,"SoundDuration":95079,"Delta":360234353},{"NoteNumber":78,"Velocity":20,"Duration":97224,"SoundDuration":97224,"Delta":360329433},{"NoteNumber":66,"Velocity":12,"Duration":100563,"SoundDuration":100563,"Delta":360426657},{"NoteNumber":78,"Velocity":20,"Duration":99367,"SoundDuration":99367,"Delta":360527220},{"NoteNumber":66,"Velocity":12,"Duration":99875,"SoundDuration":99875,"Delta":360626588},{"NoteNumber":78,"Velocity":19,"Duration":100073,"SoundDuration":100073,"Delta":360726463},{"NoteNumber":66,"Velocity":12,"Duration":99804,"SoundDuration":99804,"Delta":360826536},{"NoteNumber":78,"Velocity":18,"Duration":102672,"SoundDuration":102672,"Delta":360926341},{"NoteNumber":66,"Velocity":12,"Duration":100369,"SoundDuration":100369,"Delta":361029013},{"NoteNumber":78,"Velocity":18,"Duration":99121,"SoundDuration":99121,"Delta":361129383},{"NoteNumber":66,"Velocity":11,"Duration":100448,"SoundDuration":100448,"Delta":361228504},{"NoteNumber":78,"Velocity":18,"Duration":100474,"SoundDuration":100474,"Delta":361328952},{"NoteNumber":66,"Velocity":11,"Duration":101329,"SoundDuration":101329,"Delta":361429427},{"NoteNumber":78,"Velocity":18,"Duration":100471,"SoundDuration":100471,"Delta":361530756},{"NoteNumber":66,"Velocity":11,"Duration":102723,"SoundDuration":102723,"Delta":361631228}]}