{"title":"Reminiscnenes do Don Juan","artist":"Piano","durationMs":1009482,"midiSha256":"538670d6c26e334ee6d0841d7669f78030916f1f6d6158d1616b84afe8b5b457","midiObject":[{"NoteNumber":38,"Velocity":46,"Duration":945398,"SoundDuration":945398,"Delta":0},{"NoteNumber":45,"Velocity":51,"Duration":879522,"SoundDuration":879522,"Delta":65876},{"NoteNumber":50,"Velocity":55,"Duration":818615,"SoundDuration":818615,"Delta":126782},{"NoteNumber":69,"Velocity":65,"Duration":762123,"SoundDuration":762123,"Delta":183274},{"NoteNumber":57,"Velocity":55,"Duration":762123,"SoundDuration":762123,"Delta":183274},{"NoteNumber":62,"Velocity":55,"Duration":762123,"SoundDuration":762123,"Delta":183274},{"NoteNumber":53,"Velocity":63,"Duration":762123,"SoundDuration":762123,"Delta":183274},{"NoteNumber":40,"Velocity":44,"Duration":1893881,"SoundDuration":1893881,"Delta":945398},{"NoteNumber":45,"Velocity":48,"Duration":1824531,"SoundDuration":1824531,"Delta":1014748},{"NoteNumber":49,"Velocity":53,"Duration":1759885,"SoundDuration":1759885,"Delta":1079394},{"NoteNumber":69,"Velocity":72,"Duration":1289601,"SoundDuration":1289601,"Delta":1139842},{"NoteNumber":57,"Velocity":61,"Duration":1289601,"SoundDuration":1289601,"Delta":1139842},{"NoteNumber":61,"Velocity":61,"Duration":1699437,"SoundDuration":1699437,"Delta":1139842},{"NoteNumber":55,"Velocity":48,"Duration":1699437,"SoundDuration":1699437,"Delta":1139842},{"NoteNumber":69,"Velocity":63,"Duration":409836,"SoundDuration":409836,"Delta":2429443},{"NoteNumber":57,"Velocity":54,"Duration":409836,"SoundDuration":409836,"Delta":2429443},{"NoteNumber":57,"Velocity":70,"Duration":920245,"SoundDuration":920245,"Delta":2839279},{"NoteNumber":69,"Velocity":70,"Duration":920245,"SoundDuration":920245,"Delta":2839279},{"NoteNumber":62,"Velocity":59,"Duration":920245,"SoundDuration":920245,"Delta":2839279},{"NoteNumber":50,"Velocity":59,"Duration":920245,"SoundDuration":920245,"Delta":2839279},{"NoteNumber":53,"Velocity":59,"Duration":920245,"SoundDuration":920245,"Delta":2839279},{"NoteNumber":41,"Velocity":50,"Duration":920245,"SoundDuration":920245,"Delta":2839279},{"NoteNumber":45,"Velocity":50,"Duration":920245,"SoundDuration":920245,"Delta":2839279},{"NoteNumber":57,"Velocity":68,"Duration":1025815,"SoundDuration":1025815,"Delta":3759524},{"NoteNumber":69,"Velocity":68,"Duration":1025815,"SoundDuration":1025815,"Delta":3759524},{"NoteNumber":60,"Velocity":57,"Duration":1025815,"SoundDuration":1025815,"Delta":3759524},{"NoteNumber":64,"Velocity":57,"Duration":1025815,"SoundDuration":1025815,"Delta":3759524},{"NoteNumber":52,"Velocity":60,"Duration":1025815,"SoundDuration":1025815,"Delta":3759524},{"NoteNumber":40,"Velocity":51,"Duration":1025815,"SoundDuration":1025815,"Delta":3759524},{"NoteNumber":45,"Velocity":51,"Duration":1025815,"SoundDuration":1025815,"Delta":3759524},{"NoteNumber":48,"Velocity":51,"Duration":1025815,"SoundDuration":1025815,"Delta":3759524},{"NoteNumber":69,"Velocity":75,"Duration":1986813,"SoundDuration":1986813,"Delta":4785340},{"NoteNumber":60,"Velocity":47,"Duration":952380,"SoundDuration":952380,"Delta":4785340},{"NoteNumber":66,"Velocity":59,"Duration":952380,"SoundDuration":952380,"Delta":4785340},{"NoteNumber":57,"Velocity":48,"Duration":1986813,"SoundDuration":1986813,"Delta":4785340},{"NoteNumber":51,"Velocity":59,"Duration":952380,"SoundDuration":952380,"Delta":4785340},{"NoteNumber":39,"Velocity":40,"Duration":952380,"SoundDuration":952380,"Delta":4785340},{"NoteNumber":45,"Velocity":45,"Duration":952380,"SoundDuration":952380,"Delta":4785340},{"NoteNumber":48,"Velocity":54,"Duration":952380,"SoundDuration":952380,"Delta":4785340},{"NoteNumber":66,"Velocity":62,"Duration":1034432,"SoundDuration":1034432,"Delta":5737721},{"NoteNumber":60,"Velocity":52,"Duration":1034432,"SoundDuration":1034432,"Delta":5737721},{"NoteNumber":51,"Velocity":56,"Duration":1034432,"SoundDuration":1034432,"Delta":5737721},{"NoteNumber":39,"Velocity":47,"Duration":1034432,"SoundDuration":1034432,"Delta":5737721},{"NoteNumber":48,"Velocity":47,"Duration":1034432,"SoundDuration":1034432,"Delta":5737721},{"NoteNumber":45,"Velocity":35,"Duration":141509,"SoundDuration":141509,"Delta":5737721},{"NoteNumber":44,"Velocity":36,"Duration":141509,"SoundDuration":141509,"Delta":5879231},{"NoteNumber":45,"Velocity":39,"Duration":133928,"SoundDuration":133928,"Delta":6020740},{"NoteNumber":44,"Velocity":42,"Duration":133928,"SoundDuration":133928,"Delta":6154669},{"NoteNumber":45,"Velocity":44,"Duration":125000,"SoundDuration":125000,"Delta":6288597},{"NoteNumber":44,"Velocity":46,"Duration":125000,"SoundDuration":125000,"Delta":6413597},{"NoteNumber":45,"Velocity":47,"Duration":119047,"SoundDuration":119047,"Delta":6538597},{"NoteNumber":44,"Velocity":47,"Duration":114509,"SoundDuration":114509,"Delta":6657645},{"NoteNumber":69,"Velocity":73,"Duration":900995,"SoundDuration":900995,"Delta":6772154},{"NoteNumber":60,"Velocity":48,"Duration":900995,"SoundDuration":900995,"Delta":6772154},{"NoteNumber":66,"Velocity":55,"Duration":900995,"SoundDuration":900995,"Delta":6772154},{"NoteNumber":57,"Velocity":51,"Duration":900995,"SoundDuration":900995,"Delta":6772154},{"NoteNumber":51,"Velocity":53,"Duration":900995,"SoundDuration":900995,"Delta":6772154},{"NoteNumber":39,"Velocity":39,"Duration":900995,"SoundDuration":900995,"Delta":6772154},{"NoteNumber":48,"Velocity":44,"Duration":900995,"SoundDuration":900995,"Delta":6772154},{"NoteNumber":45,"Velocity":49,"Duration":72463,"SoundDuration":72463,"Delta":6772154},{"NoteNumber":44,"Velocity":44,"Duration":72463,"SoundDuration":72463,"Delta":6844618},{"NoteNumber":45,"Velocity":49,"Duration":72463,"SoundDuration":72463,"Delta":6917082},{"NoteNumber":44,"Velocity":43,"Duration":74626,"SoundDuration":74626,"Delta":6989545},{"NoteNumber":45,"Velocity":49,"Duration":74626,"SoundDuration":74626,"Delta":7064172},{"NoteNumber":44,"Velocity":44,"Duration":74626,"SoundDuration":74626,"Delta":7138799},{"NoteNumber":45,"Velocity":49,"Duration":78125,"SoundDuration":78125,"Delta":7213426},{"NoteNumber":44,"Velocity":44,"Duration":78125,"SoundDuration":78125,"Delta":7291551},{"NoteNumber":45,"Velocity":49,"Duration":78125,"SoundDuration":78125,"Delta":7369676},{"NoteNumber":44,"Velocity":43,"Duration":74626,"SoundDuration":74626,"Delta":7447801},{"NoteNumber":45,"Velocity":49,"Duration":74626,"SoundDuration":74626,"Delta":7522428},{"NoteNumber":44,"Velocity":44,"Duration":76094,"SoundDuration":76094,"Delta":7597055},{"NoteNumber":45,"Velocity":49,"Duration":80843,"SoundDuration":80843,"Delta":7660854},{"NoteNumber":66,"Velocity":48,"Duration":986990,"SoundDuration":986990,"Delta":7673150},{"NoteNumber":69,"Velocity":71,"Duration":686990,"SoundDuration":686990,"Delta":7673150},{"NoteNumber":60,"Velocity":45,"Duration":986990,"SoundDuration":986990,"Delta":7673150},{"NoteNumber":57,"Velocity":54,"Duration":686990,"SoundDuration":686990,"Delta":7673150},{"NoteNumber":51,"Velocity":62,"Duration":986990,"SoundDuration":986990,"Delta":7673150},{"NoteNumber":39,"Velocity":45,"Duration":986990,"SoundDuration":986990,"Delta":7673150},{"NoteNumber":48,"Velocity":44,"Duration":986990,"SoundDuration":986990,"Delta":7673150},{"NoteNumber":44,"Velocity":44,"Duration":80645,"SoundDuration":80645,"Delta":7741698},{"NoteNumber":45,"Velocity":49,"Duration":80645,"SoundDuration":80645,"Delta":7822343},{"NoteNumber":44,"Velocity":44,"Duration":72811,"SoundDuration":72811,"Delta":7902988},{"NoteNumber":45,"Velocity":49,"Duration":71428,"SoundDuration":71428,"Delta":7975799},{"NoteNumber":44,"Velocity":44,"Duration":71428,"SoundDuration":71428,"Delta":8047228},{"NoteNumber":45,"Velocity":49,"Duration":115384,"SoundDuration":115384,"Delta":8129371},{"NoteNumber":43,"Velocity":45,"Duration":115384,"SoundDuration":115384,"Delta":8244755},{"NoteNumber":69,"Velocity":66,"Duration":300000,"SoundDuration":300000,"Delta":8360140},{"NoteNumber":57,"Velocity":55,"Duration":300000,"SoundDuration":300000,"Delta":8360140},{"NoteNumber":42,"Velocity":50,"Duration":150000,"SoundDuration":150000,"Delta":8360140},{"NoteNumber":41,"Velocity":45,"Duration":150000,"SoundDuration":150000,"Delta":8510140},{"NoteNumber":64,"Velocity":72,"Duration":3693680,"SoundDuration":3693680,"Delta":8660140},{"NoteNumber":60,"Velocity":61,"Duration":1758740,"SoundDuration":1758740,"Delta":8660140},{"NoteNumber":57,"Velocity":61,"Duration":1758740,"SoundDuration":1758740,"Delta":8660140},{"NoteNumber":52,"Velocity":61,"Duration":3693680,"SoundDuration":3693680,"Delta":8660140},{"NoteNumber":48,"Velocity":69,"Duration":1758740,"SoundDuration":1758740,"Delta":8660140},{"NoteNumber":45,"Velocity":58,"Duration":1758740,"SoundDuration":1758740,"Delta":8660140},{"NoteNumber":40,"Velocity":53,"Duration":94696,"SoundDuration":94696,"Delta":8660140},{"NoteNumber":39,"Velocity":48,"Duration":94696,"SoundDuration":94696,"Delta":8735898},{"NoteNumber":40,"Velocity":53,"Duration":95918,"SoundDuration":95918,"Delta":8811655},{"NoteNumber":39,"Velocity":47,"Duration":100806,"SoundDuration":100806,"Delta":8887413},{"NoteNumber":40,"Velocity":53,"Duration":100806,"SoundDuration":100806,"Delta":8968058},{"NoteNumber":39,"Velocity":48,"Duration":97622,"SoundDuration":97622,"Delta":9048703},{"NoteNumber":40,"Velocity":53,"Duration":94173,"SoundDuration":94173,"Delta":9127389},{"NoteNumber":39,"Velocity":46,"Duration":92995,"SoundDuration":92995,"Delta":9202909},{"NoteNumber":40,"Velocity":52,"Duration":91844,"SoundDuration":91844,"Delta":9277524},{"NoteNumber":39,"Velocity":48,"Duration":90779,"SoundDuration":90779,"Delta":9351043},{"NoteNumber":40,"Velocity":52,"Duration":89686,"SoundDuration":89686,"Delta":9423709},{"NoteNumber":39,"Velocity":46,"Duration":88619,"SoundDuration":88619,"Delta":9495542},{"NoteNumber":40,"Velocity":51,"Duration":88015,"SoundDuration":88015,"Delta":9566558},{"NoteNumber":39,"Velocity":46,"Duration":88015,"SoundDuration":88015,"Delta":9636970},{"NoteNumber":40,"Velocity":51,"Duration":87773,"SoundDuration":87773,"Delta":9707383},{"NoteNumber":39,"Velocity":45,"Duration":86805,"SoundDuration":86805,"Delta":9777795},{"NoteNumber":40,"Velocity":52,"Duration":86805,"SoundDuration":86805,"Delta":9847240},{"NoteNumber":39,"Velocity":45,"Duration":88383,"SoundDuration":88383,"Delta":9916684},{"NoteNumber":40,"Velocity":51,"Duration":94696,"SoundDuration":94696,"Delta":9986129},{"NoteNumber":39,"Velocity":45,"Duration":94696,"SoundDuration":94696,"Delta":10061886},{"NoteNumber":40,"Velocity":51,"Duration":92880,"SoundDuration":92880,"Delta":10137644},{"NoteNumber":39,"Velocity":46,"Duration":85616,"SoundDuration":85616,"Delta":10213401},{"NoteNumber":40,"Velocity":51,"Duration":85616,"SoundDuration":85616,"Delta":10281895},{"NoteNumber":39,"Velocity":46,"Duration":85385,"SoundDuration":85385,"Delta":10350388},{"NoteNumber":59,"Velocity":72,"Duration":1934939,"SoundDuration":1934939,"Delta":10418881},{"NoteNumber":56,"Velocity":61,"Duration":1934939,"SoundDuration":1934939,"Delta":10418881},{"NoteNumber":47,"Velocity":61,"Duration":1934939,"SoundDuration":1934939,"Delta":10418881},{"NoteNumber":44,"Velocity":51,"Duration":1934939,"SoundDuration":1934939,"Delta":10418881},{"NoteNumber":40,"Velocity":53,"Duration":84459,"SoundDuration":84459,"Delta":10418881},{"NoteNumber":39,"Velocity":45,"Duration":84459,"SoundDuration":84459,"Delta":10486448},{"NoteNumber":40,"Velocity":51,"Duration":86506,"SoundDuration":86506,"Delta":10554016},{"NoteNumber":39,"Velocity":45,"Duration":94696,"SoundDuration":94696,"Delta":10621584},{"NoteNumber":40,"Velocity":51,"Duration":94696,"SoundDuration":94696,"Delta":10697341},{"NoteNumber":39,"Velocity":45,"Duration":94414,"SoundDuration":94414,"Delta":10773099},{"NoteNumber":40,"Velocity":51,"Duration":93283,"SoundDuration":93283,"Delta":10848856},{"NoteNumber":39,"Velocity":45,"Duration":93283,"SoundDuration":93283,"Delta":10923483},{"NoteNumber":40,"Velocity":51,"Duration":93857,"SoundDuration":93857,"Delta":10998110},{"NoteNumber":39,"Velocity":45,"Duration":87792,"SoundDuration":87792,"Delta":11072737},{"NoteNumber":40,"Velocity":51,"Duration":68968,"SoundDuration":68968,"Delta":11149660},{"NoteNumber":39,"Velocity":46,"Duration":78795,"SoundDuration":78795,"Delta":11202885},{"NoteNumber":40,"Velocity":48,"Duration":110759,"SoundDuration":110759,"Delta":11265858},{"NoteNumber":39,"Velocity":48,"Duration":110759,"SoundDuration":110759,"Delta":11360794},{"NoteNumber":40,"Velocity":60,"Duration":111655,"SoundDuration":111655,"Delta":11455731},{"NoteNumber":38,"Velocity":63,"Duration":115773,"SoundDuration":115773,"Delta":11567386},{"NoteNumber":37,"Velocity":67,"Duration":104597,"SoundDuration":104597,"Delta":11737978},{"NoteNumber":36,"Velocity":70,"Duration":95800,"SoundDuration":95800,"Delta":11892973},{"NoteNumber":35,"Velocity":73,"Duration":154995,"SoundDuration":154995,"Delta":12034557},{"NoteNumber":34,"Velocity":77,"Duration":108219,"SoundDuration":108219,"Delta":12189552},{"NoteNumber":33,"Velocity":64,"Duration":2350637,"SoundDuration":2350637,"Delta":12353820},{"NoteNumber":40,"Velocity":56,"Duration":2271153,"SoundDuration":2271153,"Delta":12433304},{"NoteNumber":45,"Velocity":59,"Duration":2200670,"SoundDuration":2200670,"Delta":12503787},{"NoteNumber":52,"Velocity":61,"Duration":2137625,"SoundDuration":2137625,"Delta":12566832},{"NoteNumber":57,"Velocity":61,"Duration":2137625,"SoundDuration":2137625,"Delta":12566832},{"NoteNumber":61,"Velocity":61,"Duration":2137625,"SoundDuration":2137625,"Delta":12566832},{"NoteNumber":64,"Velocity":72,"Duration":2137625,"SoundDuration":2137625,"Delta":12566832},{"NoteNumber":49,"Velocity":64,"Duration":2137625,"SoundDuration":2137625,"Delta":12566832},{"NoteNumber":67,"Velocity":76,"Duration":300000,"SoundDuration":300000,"Delta":16792408},{"NoteNumber":55,"Velocity":63,"Duration":300000,"SoundDuration":300000,"Delta":16792408},{"NoteNumber":62,"Velocity":63,"Duration":300000,"SoundDuration":300000,"Delta":16792408},{"NoteNumber":65,"Velocity":63,"Duration":300000,"SoundDuration":300000,"Delta":16792408},{"NoteNumber":50,"Velocity":72,"Duration":300000,"SoundDuration":300000,"Delta":16792408},{"NoteNumber":43,"Velocity":60,"Duration":300000,"SoundDuration":300000,"Delta":16792408},{"NoteNumber":35,"Velocity":50,"Duration":300000,"SoundDuration":300000,"Delta":16792408},{"NoteNumber":67,"Velocity":82,"Duration":476190,"SoundDuration":476190,"Delta":17092408},{"NoteNumber":60,"Velocity":70,"Duration":476190,"SoundDuration":476190,"Delta":17092408},{"NoteNumber":64,"Velocity":70,"Duration":476190,"SoundDuration":476190,"Delta":17092408},{"NoteNumber":55,"Velocity":59,"Duration":476190,"SoundDuration":476190,"Delta":17092408},{"NoteNumber":52,"Velocity":79,"Duration":476190,"SoundDuration":476190,"Delta":17092408},{"NoteNumber":43,"Velocity":66,"Duration":476190,"SoundDuration":476190,"Delta":17092408},{"NoteNumber":36,"Velocity":55,"Duration":476190,"SoundDuration":476190,"Delta":17092408},{"NoteNumber":67,"Velocity":79,"Duration":476190,"SoundDuration":476190,"Delta":18044789},{"NoteNumber":60,"Velocity":64,"Duration":476190,"SoundDuration":476190,"Delta":18044789},{"NoteNumber":63,"Velocity":64,"Duration":476190,"SoundDuration":476190,"Delta":18044789},{"NoteNumber":55,"Velocity":54,"Duration":476190,"SoundDuration":476190,"Delta":18044789},{"NoteNumber":51,"Velocity":71,"Duration":476190,"SoundDuration":476190,"Delta":18044789},{"NoteNumber":43,"Velocity":59,"Duration":476190,"SoundDuration":476190,"Delta":18044789},{"NoteNumber":36,"Velocity":50,"Duration":476190,"SoundDuration":476190,"Delta":18044789},{"NoteNumber":67,"Velocity":78,"Duration":394736,"SoundDuration":394736,"Delta":19391907},{"NoteNumber":59,"Velocity":65,"Duration":394736,"SoundDuration":394736,"Delta":19391907},{"NoteNumber":62,"Velocity":65,"Duration":394736,"SoundDuration":394736,"Delta":19391907},{"NoteNumber":55,"Velocity":55,"Duration":394736,"SoundDuration":394736,"Delta":19391907},{"NoteNumber":47,"Velocity":73,"Duration":394736,"SoundDuration":394736,"Delta":19391907},{"NoteNumber":50,"Velocity":73,"Duration":394736,"SoundDuration":394736,"Delta":19391907},{"NoteNumber":38,"Velocity":53,"Duration":394736,"SoundDuration":394736,"Delta":19391907},{"NoteNumber":67,"Velocity":82,"Duration":500000,"SoundDuration":500000,"Delta":19786644},{"NoteNumber":58,"Velocity":70,"Duration":500000,"SoundDuration":500000,"Delta":19786644},{"NoteNumber":61,"Velocity":70,"Duration":500000,"SoundDuration":500000,"Delta":19786644},{"NoteNumber":55,"Velocity":59,"Duration":500000,"SoundDuration":500000,"Delta":19786644},{"NoteNumber":49,"Velocity":79,"Duration":500000,"SoundDuration":500000,"Delta":19786644},{"NoteNumber":46,"Velocity":66,"Duration":500000,"SoundDuration":500000,"Delta":19786644},{"NoteNumber":40,"Velocity":55,"Duration":500000,"SoundDuration":500000,"Delta":19786644},{"NoteNumber":67,"Velocity":78,"Duration":500000,"SoundDuration":500000,"Delta":20786644},{"NoteNumber":58,"Velocity":65,"Duration":500000,"SoundDuration":500000,"Delta":20786644},{"NoteNumber":61,"Velocity":65,"Duration":500000,"SoundDuration":500000,"Delta":20786644},{"NoteNumber":55,"Velocity":55,"Duration":500000,"SoundDuration":500000,"Delta":20786644},{"NoteNumber":49,"Velocity":74,"Duration":500000,"SoundDuration":500000,"Delta":20786644},{"NoteNumber":46,"Velocity":63,"Duration":500000,"SoundDuration":500000,"Delta":20786644},{"NoteNumber":40,"Velocity":54,"Duration":500000,"SoundDuration":500000,"Delta":20786644},{"NoteNumber":67,"Velocity":42,"Duration":799983,"SoundDuration":799983,"Delta":22786644},{"NoteNumber":55,"Velocity":32,"Duration":799983,"SoundDuration":799983,"Delta":22786644},{"NoteNumber":60,"Velocity":36,"Duration":1035794,"SoundDuration":1035794,"Delta":22786644},{"NoteNumber":48,"Velocity":33,"Duration":1035794,"SoundDuration":1035794,"Delta":22786644},{"NoteNumber":39,"Velocity":27,"Duration":1035794,"SoundDuration":1035794,"Delta":22786644},{"NoteNumber":43,"Velocity":26,"Duration":138514,"SoundDuration":138514,"Delta":22788628},{"NoteNumber":42,"Velocity":27,"Duration":141509,"SoundDuration":141509,"Delta":22927142},{"NoteNumber":43,"Velocity":29,"Duration":134939,"SoundDuration":134939,"Delta":23068652},{"NoteNumber":42,"Velocity":32,"Duration":133928,"SoundDuration":133928,"Delta":23203591},{"NoteNumber":43,"Velocity":34,"Duration":126190,"SoundDuration":126190,"Delta":23337520},{"NoteNumber":42,"Velocity":36,"Duration":125000,"SoundDuration":125000,"Delta":23463710},{"NoteNumber":55,"Velocity":37,"Duration":235811,"SoundDuration":235811,"Delta":23586627},{"NoteNumber":67,"Velocity":45,"Duration":235811,"SoundDuration":235811,"Delta":23586627},{"NoteNumber":43,"Velocity":37,"Duration":119841,"SoundDuration":119841,"Delta":23588710},{"NoteNumber":42,"Velocity":38,"Duration":115719,"SoundDuration":115719,"Delta":23708551},{"NoteNumber":67,"Velocity":54,"Duration":899231,"SoundDuration":899231,"Delta":23822438},{"NoteNumber":62,"Velocity":44,"Duration":899231,"SoundDuration":899231,"Delta":23822438},{"NoteNumber":50,"Velocity":41,"Duration":899231,"SoundDuration":899231,"Delta":23822438},{"NoteNumber":47,"Velocity":32,"Duration":899231,"SoundDuration":899231,"Delta":23822438},{"NoteNumber":38,"Velocity":30,"Duration":899231,"SoundDuration":899231,"Delta":23822438},{"NoteNumber":43,"Velocity":41,"Duration":72633,"SoundDuration":72633,"Delta":23824271},{"NoteNumber":59,"Velocity":43,"Duration":900962,"SoundDuration":900962,"Delta":23837101},{"NoteNumber":55,"Velocity":37,"Duration":901178,"SoundDuration":901178,"Delta":23838934},{"NoteNumber":42,"Velocity":36,"Duration":72463,"SoundDuration":72463,"Delta":23896905},{"NoteNumber":43,"Velocity":41,"Duration":72463,"SoundDuration":72463,"Delta":23969368},{"NoteNumber":42,"Velocity":36,"Duration":74194,"SoundDuration":74194,"Delta":24041832},{"NoteNumber":43,"Velocity":42,"Duration":74626,"SoundDuration":74626,"Delta":24116026},{"NoteNumber":42,"Velocity":37,"Duration":74626,"SoundDuration":74626,"Delta":24190653},{"NoteNumber":43,"Velocity":43,"Duration":77425,"SoundDuration":77425,"Delta":24265280},{"NoteNumber":42,"Velocity":38,"Duration":78125,"SoundDuration":78125,"Delta":24342705},{"NoteNumber":43,"Velocity":44,"Duration":78125,"SoundDuration":78125,"Delta":24420830},{"NoteNumber":42,"Velocity":38,"Duration":75326,"SoundDuration":75326,"Delta":24498955},{"NoteNumber":43,"Velocity":45,"Duration":74626,"SoundDuration":74626,"Delta":24574282},{"NoteNumber":42,"Velocity":40,"Duration":74810,"SoundDuration":74810,"Delta":24648909},{"NoteNumber":43,"Velocity":45,"Duration":80190,"SoundDuration":80190,"Delta":24712341},{"NoteNumber":58,"Velocity":42,"Duration":982933,"SoundDuration":982933,"Delta":24721670},{"NoteNumber":64,"Velocity":47,"Duration":982933,"SoundDuration":982933,"Delta":24721670},{"NoteNumber":55,"Velocity":47,"Duration":458592,"SoundDuration":458592,"Delta":24721670},{"NoteNumber":67,"Velocity":62,"Duration":458592,"SoundDuration":458592,"Delta":24721670},{"NoteNumber":52,"Velocity":54,"Duration":982933,"SoundDuration":982933,"Delta":24721670},{"NoteNumber":46,"Velocity":44,"Duration":982933,"SoundDuration":982933,"Delta":24721670},{"NoteNumber":37,"Velocity":39,"Duration":982933,"SoundDuration":982933,"Delta":24721670},{"NoteNumber":42,"Velocity":40,"Duration":80645,"SoundDuration":80645,"Delta":24792532},{"NoteNumber":43,"Velocity":45,"Duration":80645,"SoundDuration":80645,"Delta":24873177},{"NoteNumber":42,"Velocity":41,"Duration":74654,"SoundDuration":74654,"Delta":24953822},{"NoteNumber":43,"Velocity":46,"Duration":71428,"SoundDuration":71428,"Delta":25028477},{"NoteNumber":42,"Velocity":42,"Duration":71428,"SoundDuration":71428,"Delta":25099905},{"NoteNumber":55,"Velocity":54,"Duration":524340,"SoundDuration":524340,"Delta":25180262},{"NoteNumber":67,"Velocity":63,"Duration":524340,"SoundDuration":524340,"Delta":25180262},{"NoteNumber":43,"Velocity":47,"Duration":114285,"SoundDuration":114285,"Delta":25182048},{"NoteNumber":41,"Velocity":44,"Duration":115384,"SoundDuration":115384,"Delta":25296334},{"NoteNumber":40,"Velocity":49,"Duration":145384,"SoundDuration":145384,"Delta":25411718},{"NoteNumber":39,"Velocity":45,"Duration":149393,"SoundDuration":149393,"Delta":25557103},{"NoteNumber":55,"Velocity":61,"Duration":868358,"SoundDuration":868358,"Delta":25704603},{"NoteNumber":57,"Velocity":61,"Duration":868358,"SoundDuration":868358,"Delta":25704603},{"NoteNumber":50,"Velocity":61,"Duration":2909378,"SoundDuration":2909378,"Delta":25704603},{"NoteNumber":62,"Velocity":72,"Duration":2909378,"SoundDuration":2909378,"Delta":25704603},{"NoteNumber":43,"Velocity":56,"Duration":868358,"SoundDuration":868358,"Delta":25704603},{"NoteNumber":45,"Velocity":56,"Duration":868358,"SoundDuration":868358,"Delta":25704603},{"NoteNumber":38,"Velocity":51,"Duration":94696,"SoundDuration":94696,"Delta":25704603},{"NoteNumber":37,"Velocity":46,"Duration":94696,"SoundDuration":94696,"Delta":25780361},{"NoteNumber":38,"Velocity":51,"Duration":93118,"SoundDuration":93118,"Delta":25856118},{"NoteNumber":37,"Velocity":45,"Duration":86805,"SoundDuration":86805,"Delta":25931876},{"NoteNumber":38,"Velocity":52,"Duration":86805,"SoundDuration":86805,"Delta":26001320},{"NoteNumber":37,"Velocity":45,"Duration":88383,"SoundDuration":88383,"Delta":26070765},{"NoteNumber":38,"Velocity":51,"Duration":94696,"SoundDuration":94696,"Delta":26140209},{"NoteNumber":37,"Velocity":45,"Duration":94696,"SoundDuration":94696,"Delta":26215967},{"NoteNumber":38,"Velocity":51,"Duration":92880,"SoundDuration":92880,"Delta":26291724},{"NoteNumber":37,"Velocity":46,"Duration":85616,"SoundDuration":85616,"Delta":26367482},{"NoteNumber":38,"Velocity":51,"Duration":85616,"SoundDuration":85616,"Delta":26435975},{"NoteNumber":37,"Velocity":46,"Duration":85385,"SoundDuration":85385,"Delta":26504468},{"NoteNumber":57,"Velocity":72,"Duration":2041020,"SoundDuration":2041020,"Delta":26572961},{"NoteNumber":54,"Velocity":61,"Duration":2041020,"SoundDuration":2041020,"Delta":26572961},{"NoteNumber":45,"Velocity":61,"Duration":2041020,"SoundDuration":2041020,"Delta":26572961},{"NoteNumber":42,"Velocity":51,"Duration":2041020,"SoundDuration":2041020,"Delta":26572961},{"NoteNumber":38,"Velocity":56,"Duration":84459,"SoundDuration":84459,"Delta":26572961},{"NoteNumber":39,"Velocity":51,"Duration":84459,"SoundDuration":84459,"Delta":26640529},{"NoteNumber":38,"Velocity":56,"Duration":86506,"SoundDuration":86506,"Delta":26708096},{"NoteNumber":39,"Velocity":52,"Duration":94696,"SoundDuration":94696,"Delta":26775664},{"NoteNumber":38,"Velocity":55,"Duration":94696,"SoundDuration":94696,"Delta":26851422},{"NoteNumber":39,"Velocity":51,"Duration":94414,"SoundDuration":94414,"Delta":26927179},{"NoteNumber":38,"Velocity":55,"Duration":93283,"SoundDuration":93283,"Delta":27002937},{"NoteNumber":39,"Velocity":53,"Duration":93283,"SoundDuration":93283,"Delta":27077564},{"NoteNumber":38,"Velocity":54,"Duration":74626,"SoundDuration":74626,"Delta":27152190},{"NoteNumber":39,"Velocity":52,"Duration":96153,"SoundDuration":96153,"Delta":27226817},{"NoteNumber":38,"Velocity":55,"Duration":96153,"SoundDuration":96153,"Delta":27303740},{"NoteNumber":39,"Velocity":53,"Duration":98471,"SoundDuration":98471,"Delta":27380663},{"NoteNumber":38,"Velocity":56,"Duration":164000,"SoundDuration":164000,"Delta":27457586},{"NoteNumber":39,"Velocity":54,"Duration":208275,"SoundDuration":208275,"Delta":27586874},{"NoteNumber":38,"Velocity":60,"Duration":111373,"SoundDuration":111373,"Delta":27795150},{"NoteNumber":36,"Velocity":63,"Duration":96824,"SoundDuration":96824,"Delta":27957334},{"NoteNumber":35,"Velocity":67,"Duration":88273,"SoundDuration":88273,"Delta":28100280},{"NoteNumber":34,"Velocity":70,"Duration":81112,"SoundDuration":81112,"Delta":28230781},{"NoteNumber":33,"Velocity":73,"Duration":125121,"SoundDuration":125121,"Delta":28351833},{"NoteNumber":32,"Velocity":77,"Duration":89032,"SoundDuration":89032,"Delta":28476954},{"NoteNumber":31,"Velocity":77,"Duration":2724339,"SoundDuration":2724339,"Delta":28613982},{"NoteNumber":38,"Velocity":56,"Duration":2657381,"SoundDuration":2657381,"Delta":28680939},{"NoteNumber":43,"Velocity":59,"Duration":2595903,"SoundDuration":2595903,"Delta":28742417},{"NoteNumber":47,"Velocity":64,"Duration":2540043,"SoundDuration":2540043,"Delta":28798277},{"NoteNumber":50,"Velocity":65,"Duration":2485703,"SoundDuration":2485703,"Delta":28852617},{"NoteNumber":55,"Velocity":69,"Duration":2431363,"SoundDuration":2431363,"Delta":28906957},{"NoteNumber":59,"Velocity":72,"Duration":2367743,"SoundDuration":2367743,"Delta":28970577},{"NoteNumber":62,"Velocity":76,"Duration":2275485,"SoundDuration":2275485,"Delta":29062835},{"NoteNumber":62,"Velocity":66,"Duration":190969,"SoundDuration":190969,"Delta":34110357},{"NoteNumber":50,"Velocity":62,"Duration":97425,"SoundDuration":97425,"Delta":34110357},{"NoteNumber":44,"Velocity":77,"Duration":376633,"SoundDuration":376633,"Delta":34110357},{"NoteNumber":35,"Velocity":69,"Duration":376633,"SoundDuration":376633,"Delta":34110357},{"NoteNumber":41,"Velocity":69,"Duration":376633,"SoundDuration":376633,"Delta":34110357},{"NoteNumber":56,"Velocity":48,"Duration":95120,"SoundDuration":95120,"Delta":34207782},{"NoteNumber":53,"Velocity":40,"Duration":95120,"SoundDuration":95120,"Delta":34207782},{"NoteNumber":62,"Velocity":50,"Duration":92922,"SoundDuration":92922,"Delta":34302902},{"NoteNumber":62,"Velocity":51,"Duration":91165,"SoundDuration":91165,"Delta":34395825},{"NoteNumber":68,"Velocity":53,"Duration":89147,"SoundDuration":89147,"Delta":34486990},{"NoteNumber":65,"Velocity":45,"Duration":89147,"SoundDuration":89147,"Delta":34486990},{"NoteNumber":74,"Velocity":54,"Duration":87366,"SoundDuration":87366,"Delta":34576138},{"NoteNumber":74,"Velocity":55,"Duration":85663,"SoundDuration":85663,"Delta":34663505},{"NoteNumber":80,"Velocity":57,"Duration":84016,"SoundDuration":84016,"Delta":34749168},{"NoteNumber":77,"Velocity":48,"Duration":84016,"SoundDuration":84016,"Delta":34749168},{"NoteNumber":86,"Velocity":58,"Duration":83380,"SoundDuration":83380,"Delta":34833185},{"NoteNumber":86,"Velocity":60,"Duration":84397,"SoundDuration":84397,"Delta":34916565},{"NoteNumber":92,"Velocity":63,"Duration":111709,"SoundDuration":111709,"Delta":35000963},{"NoteNumber":89,"Velocity":54,"Duration":111709,"SoundDuration":111709,"Delta":35000963},{"NoteNumber":98,"Velocity":68,"Duration":83855,"SoundDuration":83855,"Delta":35112673},{"NoteNumber":62,"Velocity":74,"Duration":790252,"SoundDuration":790252,"Delta":35112673},{"NoteNumber":50,"Velocity":66,"Duration":1073732,"SoundDuration":1073732,"Delta":35112673},{"NoteNumber":53,"Velocity":66,"Duration":978705,"SoundDuration":978705,"Delta":35112673},{"NoteNumber":56,"Velocity":66,"Duration":978705,"SoundDuration":978705,"Delta":35112673},{"NoteNumber":92,"Velocity":68,"Duration":84768,"SoundDuration":84768,"Delta":35196528},{"NoteNumber":89,"Velocity":57,"Duration":84768,"SoundDuration":84768,"Delta":35196528},{"NoteNumber":86,"Velocity":66,"Duration":85722,"SoundDuration":85722,"Delta":35281297},{"NoteNumber":86,"Velocity":64,"Duration":86675,"SoundDuration":86675,"Delta":35367020},{"NoteNumber":80,"Velocity":63,"Duration":87651,"SoundDuration":87651,"Delta":35453695},{"NoteNumber":77,"Velocity":53,"Duration":87651,"SoundDuration":87651,"Delta":35453695},{"NoteNumber":74,"Velocity":61,"Duration":88817,"SoundDuration":88817,"Delta":35541347},{"NoteNumber":74,"Velocity":60,"Duration":89857,"SoundDuration":89857,"Delta":35630165},{"NoteNumber":68,"Velocity":58,"Duration":90903,"SoundDuration":90903,"Delta":35720022},{"NoteNumber":65,"Velocity":49,"Duration":90903,"SoundDuration":90903,"Delta":35720022},{"NoteNumber":62,"Velocity":56,"Duration":185100,"SoundDuration":185100,"Delta":35810925},{"NoteNumber":62,"Velocity":54,"Duration":468319,"SoundDuration":468319,"Delta":35902925},{"NoteNumber":56,"Velocity":57,"Duration":283570,"SoundDuration":283570,"Delta":35996026},{"NoteNumber":53,"Velocity":48,"Duration":283570,"SoundDuration":283570,"Delta":35996026},{"NoteNumber":50,"Velocity":62,"Duration":458676,"SoundDuration":458676,"Delta":36091378},{"NoteNumber":44,"Velocity":74,"Duration":369939,"SoundDuration":369939,"Delta":36091378},{"NoteNumber":35,"Velocity":66,"Duration":369939,"SoundDuration":369939,"Delta":36091378},{"NoteNumber":41,"Velocity":66,"Duration":369939,"SoundDuration":369939,"Delta":36091378},{"NoteNumber":56,"Velocity":55,"Duration":363649,"SoundDuration":363649,"Delta":36186405},{"NoteNumber":53,"Velocity":46,"Duration":363649,"SoundDuration":363649,"Delta":36186405},{"NoteNumber":62,"Velocity":56,"Duration":181721,"SoundDuration":181721,"Delta":36279596},{"NoteNumber":62,"Velocity":57,"Duration":178810,"SoundDuration":178810,"Delta":36371244},{"NoteNumber":68,"Velocity":59,"Duration":88736,"SoundDuration":88736,"Delta":36461318},{"NoteNumber":65,"Velocity":50,"Duration":88736,"SoundDuration":88736,"Delta":36461318},{"NoteNumber":74,"Velocity":60,"Duration":87129,"SoundDuration":87129,"Delta":36550055},{"NoteNumber":74,"Velocity":61,"Duration":85814,"SoundDuration":85814,"Delta":36637184},{"NoteNumber":80,"Velocity":62,"Duration":84518,"SoundDuration":84518,"Delta":36722998},{"NoteNumber":77,"Velocity":52,"Duration":84518,"SoundDuration":84518,"Delta":36722998},{"NoteNumber":86,"Velocity":63,"Duration":83222,"SoundDuration":83222,"Delta":36807517},{"NoteNumber":86,"Velocity":64,"Duration":81806,"SoundDuration":81806,"Delta":36890739},{"NoteNumber":92,"Velocity":66,"Duration":108154,"SoundDuration":108154,"Delta":36972546},{"NoteNumber":89,"Velocity":55,"Duration":108154,"SoundDuration":108154,"Delta":36972546},{"NoteNumber":98,"Velocity":68,"Duration":83193,"SoundDuration":83193,"Delta":37080700},{"NoteNumber":50,"Velocity":74,"Duration":695986,"SoundDuration":695986,"Delta":37080700},{"NoteNumber":53,"Velocity":74,"Duration":695986,"SoundDuration":695986,"Delta":37080700},{"NoteNumber":56,"Velocity":74,"Duration":695986,"SoundDuration":695986,"Delta":37080700},{"NoteNumber":62,"Velocity":74,"Duration":695986,"SoundDuration":695986,"Delta":37080700},{"NoteNumber":92,"Velocity":67,"Duration":84236,"SoundDuration":84236,"Delta":37163894},{"NoteNumber":89,"Velocity":56,"Duration":84236,"SoundDuration":84236,"Delta":37163894},{"NoteNumber":86,"Velocity":65,"Duration":85312,"SoundDuration":85312,"Delta":37248130},{"NoteNumber":86,"Velocity":64,"Duration":86303,"SoundDuration":86303,"Delta":37333443},{"NoteNumber":80,"Velocity":63,"Duration":87587,"SoundDuration":87587,"Delta":37419747},{"NoteNumber":77,"Velocity":54,"Duration":87587,"SoundDuration":87587,"Delta":37419747},{"NoteNumber":74,"Velocity":63,"Duration":88589,"SoundDuration":88589,"Delta":37507334},{"NoteNumber":74,"Velocity":61,"Duration":89773,"SoundDuration":89773,"Delta":37595924},{"NoteNumber":68,"Velocity":60,"Duration":90988,"SoundDuration":90988,"Delta":37685698},{"NoteNumber":65,"Velocity":50,"Duration":90988,"SoundDuration":90988,"Delta":37685698},{"NoteNumber":62,"Velocity":59,"Duration":92960,"SoundDuration":92960,"Delta":37776686},{"NoteNumber":62,"Velocity":57,"Duration":93457,"SoundDuration":93457,"Delta":37869647},{"NoteNumber":56,"Velocity":56,"Duration":178614,"SoundDuration":178614,"Delta":37963105},{"NoteNumber":53,"Velocity":47,"Duration":178614,"SoundDuration":178614,"Delta":37963105},{"NoteNumber":50,"Velocity":87,"Duration":387146,"SoundDuration":387146,"Delta":38141719},{"NoteNumber":35,"Velocity":70,"Duration":387146,"SoundDuration":387146,"Delta":38141719},{"NoteNumber":41,"Velocity":75,"Duration":387146,"SoundDuration":387146,"Delta":38141719},{"NoteNumber":44,"Velocity":81,"Duration":387146,"SoundDuration":387146,"Delta":38141719},{"NoteNumber":57,"Velocity":74,"Duration":191063,"SoundDuration":191063,"Delta":42400683},{"NoteNumber":45,"Velocity":74,"Duration":97856,"SoundDuration":97856,"Delta":42400683},{"NoteNumber":43,"Velocity":81,"Duration":383142,"SoundDuration":383142,"Delta":42400683},{"NoteNumber":37,"Velocity":72,"Duration":383142,"SoundDuration":383142,"Delta":42400683},{"NoteNumber":40,"Velocity":72,"Duration":383142,"SoundDuration":383142,"Delta":42400683},{"NoteNumber":52,"Velocity":50,"Duration":96396,"SoundDuration":96396,"Delta":42498540},{"NoteNumber":49,"Velocity":45,"Duration":96396,"SoundDuration":96396,"Delta":42498540},{"NoteNumber":57,"Velocity":52,"Duration":95139,"SoundDuration":95139,"Delta":42594936},{"NoteNumber":57,"Velocity":54,"Duration":93750,"SoundDuration":93750,"Delta":42690076},{"NoteNumber":64,"Velocity":55,"Duration":92352,"SoundDuration":92352,"Delta":42783826},{"NoteNumber":61,"Velocity":51,"Duration":92352,"SoundDuration":92352,"Delta":42783826},{"NoteNumber":69,"Velocity":56,"Duration":91005,"SoundDuration":91005,"Delta":42876179},{"NoteNumber":69,"Velocity":58,"Duration":89756,"SoundDuration":89756,"Delta":42967184},{"NoteNumber":76,"Velocity":60,"Duration":88654,"SoundDuration":88654,"Delta":43056941},{"NoteNumber":73,"Velocity":55,"Duration":88654,"SoundDuration":88654,"Delta":43056941},{"NoteNumber":81,"Velocity":61,"Duration":87318,"SoundDuration":87318,"Delta":43145596},{"NoteNumber":81,"Velocity":63,"Duration":84816,"SoundDuration":84816,"Delta":43232915},{"NoteNumber":88,"Velocity":64,"Duration":121772,"SoundDuration":121772,"Delta":43317731},{"NoteNumber":85,"Velocity":60,"Duration":121772,"SoundDuration":121772,"Delta":43317731},{"NoteNumber":93,"Velocity":71,"Duration":82239,"SoundDuration":82239,"Delta":43439504},{"NoteNumber":57,"Velocity":78,"Duration":779316,"SoundDuration":779316,"Delta":43439504},{"NoteNumber":49,"Velocity":69,"Duration":967631,"SoundDuration":967631,"Delta":43439504},{"NoteNumber":52,"Velocity":69,"Duration":967631,"SoundDuration":967631,"Delta":43439504},{"NoteNumber":55,"Velocity":69,"Duration":1425023,"SoundDuration":1425023,"Delta":43439504},{"NoteNumber":88,"Velocity":67,"Duration":83150,"SoundDuration":83150,"Delta":43521744},{"NoteNumber":85,"Velocity":63,"Duration":83150,"SoundDuration":83150,"Delta":43521744},{"NoteNumber":81,"Velocity":66,"Duration":84192,"SoundDuration":84192,"Delta":43604895},{"NoteNumber":81,"Velocity":64,"Duration":85267,"SoundDuration":85267,"Delta":43689087},{"NoteNumber":76,"Velocity":63,"Duration":86489,"SoundDuration":86489,"Delta":43774354},{"NoteNumber":73,"Velocity":58,"Duration":86489,"SoundDuration":86489,"Delta":43774354},{"NoteNumber":69,"Velocity":61,"Duration":87684,"SoundDuration":87684,"Delta":43860844},{"NoteNumber":69,"Velocity":59,"Duration":88850,"SoundDuration":88850,"Delta":43948528},{"NoteNumber":64,"Velocity":57,"Duration":90040,"SoundDuration":90040,"Delta":44037378},{"NoteNumber":61,"Velocity":53,"Duration":90040,"SoundDuration":90040,"Delta":44037378},{"NoteNumber":57,"Velocity":55,"Duration":184275,"SoundDuration":184275,"Delta":44127418},{"NoteNumber":57,"Velocity":54,"Duration":466716,"SoundDuration":466716,"Delta":44218821},{"NoteNumber":52,"Velocity":53,"Duration":282336,"SoundDuration":282336,"Delta":44311694},{"NoteNumber":49,"Velocity":48,"Duration":282336,"SoundDuration":282336,"Delta":44311694},{"NoteNumber":45,"Velocity":53,"Duration":94097,"SoundDuration":94097,"Delta":44407136},{"NoteNumber":40,"Velocity":69,"Duration":368491,"SoundDuration":368491,"Delta":44407136},{"NoteNumber":37,"Velocity":69,"Duration":368491,"SoundDuration":368491,"Delta":44407136},{"NoteNumber":43,"Velocity":78,"Duration":368491,"SoundDuration":368491,"Delta":44407136},{"NoteNumber":52,"Velocity":55,"Duration":363294,"SoundDuration":363294,"Delta":44501233},{"NoteNumber":49,"Velocity":39,"Duration":363294,"SoundDuration":363294,"Delta":44501233},{"NoteNumber":57,"Velocity":51,"Duration":181596,"SoundDuration":181596,"Delta":44594031},{"NoteNumber":57,"Velocity":53,"Duration":178989,"SoundDuration":178989,"Delta":44685538},{"NoteNumber":64,"Velocity":54,"Duration":88899,"SoundDuration":88899,"Delta":44775628},{"NoteNumber":61,"Velocity":50,"Duration":88899,"SoundDuration":88899,"Delta":44775628},{"NoteNumber":69,"Velocity":56,"Duration":87732,"SoundDuration":87732,"Delta":44864527},{"NoteNumber":69,"Velocity":58,"Duration":86581,"SoundDuration":86581,"Delta":44952260},{"NoteNumber":76,"Velocity":60,"Duration":85312,"SoundDuration":85312,"Delta":45038842},{"NoteNumber":73,"Velocity":55,"Duration":85312,"SoundDuration":85312,"Delta":45038842},{"NoteNumber":81,"Velocity":62,"Duration":84236,"SoundDuration":84236,"Delta":45124154},{"NoteNumber":81,"Velocity":63,"Duration":81507,"SoundDuration":81507,"Delta":45208391},{"NoteNumber":88,"Velocity":66,"Duration":111640,"SoundDuration":111640,"Delta":45289898},{"NoteNumber":85,"Velocity":62,"Duration":111640,"SoundDuration":111640,"Delta":45289898},{"NoteNumber":93,"Velocity":71,"Duration":82650,"SoundDuration":82650,"Delta":45401538},{"NoteNumber":49,"Velocity":78,"Duration":696725,"SoundDuration":696725,"Delta":45401538},{"NoteNumber":52,"Velocity":78,"Duration":696725,"SoundDuration":696725,"Delta":45401538},{"NoteNumber":55,"Velocity":78,"Duration":696725,"SoundDuration":696725,"Delta":45401538},{"NoteNumber":57,"Velocity":78,"Duration":696725,"SoundDuration":696725,"Delta":45401538},{"NoteNumber":88,"Velocity":70,"Duration":83928,"SoundDuration":83928,"Delta":45484189},{"NoteNumber":85,"Velocity":65,"Duration":83928,"SoundDuration":83928,"Delta":45484189},{"NoteNumber":81,"Velocity":68,"Duration":85146,"SoundDuration":85146,"Delta":45568118},{"NoteNumber":81,"Velocity":66,"Duration":86335,"SoundDuration":86335,"Delta":45653265},{"NoteNumber":76,"Velocity":64,"Duration":87667,"SoundDuration":87667,"Delta":45739600},{"NoteNumber":73,"Velocity":60,"Duration":87667,"SoundDuration":87667,"Delta":45739600},{"NoteNumber":69,"Velocity":63,"Duration":88866,"SoundDuration":88866,"Delta":45827268},{"NoteNumber":69,"Velocity":61,"Duration":90377,"SoundDuration":90377,"Delta":45916135},{"NoteNumber":64,"Velocity":60,"Duration":91752,"SoundDuration":91752,"Delta":46006512},{"NoteNumber":61,"Velocity":55,"Duration":91752,"SoundDuration":91752,"Delta":46006512},{"NoteNumber":57,"Velocity":58,"Duration":93065,"SoundDuration":93065,"Delta":46098264},{"NoteNumber":57,"Velocity":56,"Duration":94553,"SoundDuration":94553,"Delta":46191330},{"NoteNumber":52,"Velocity":54,"Duration":164871,"SoundDuration":164871,"Delta":46285884},{"NoteNumber":49,"Velocity":50,"Duration":164871,"SoundDuration":164871,"Delta":46285884},{"NoteNumber":45,"Velocity":87,"Duration":392207,"SoundDuration":392207,"Delta":46450755},{"NoteNumber":37,"Velocity":70,"Duration":392207,"SoundDuration":392207,"Delta":46450755},{"NoteNumber":40,"Velocity":75,"Duration":392207,"SoundDuration":392207,"Delta":46450755},{"NoteNumber":43,"Velocity":82,"Duration":392207,"SoundDuration":392207,"Delta":46450755},{"NoteNumber":38,"Velocity":33,"Duration":1007732,"SoundDuration":1007732,"Delta":50022673},{"NoteNumber":45,"Velocity":39,"Duration":934217,"SoundDuration":934217,"Delta":50096188},{"NoteNumber":50,"Velocity":45,"Duration":860702,"SoundDuration":860702,"Delta":50169703},{"NoteNumber":57,"Velocity":49,"Duration":238815,"SoundDuration":238815,"Delta":50243218},{"NoteNumber":69,"Velocity":49,"Duration":999412,"SoundDuration":999412,"Delta":50243218},{"NoteNumber":62,"Velocity":41,"Duration":999412,"SoundDuration":999412,"Delta":50243218},{"NoteNumber":53,"Velocity":44,"Duration":787187,"SoundDuration":787187,"Delta":50243218},{"NoteNumber":58,"Velocity":45,"Duration":238815,"SoundDuration":238815,"Delta":50482034},{"NoteNumber":57,"Velocity":48,"Duration":238815,"SoundDuration":238815,"Delta":50720849},{"NoteNumber":58,"Velocity":45,"Duration":282965,"SoundDuration":282965,"Delta":50959665},{"NoteNumber":40,"Velocity":32,"Duration":2003340,"SoundDuration":2003340,"Delta":51030406},{"NoteNumber":45,"Velocity":32,"Duration":1932599,"SoundDuration":1932599,"Delta":51101148},{"NoteNumber":49,"Velocity":32,"Duration":1861857,"SoundDuration":1861857,"Delta":51171889},{"NoteNumber":57,"Velocity":52,"Duration":238815,"SoundDuration":238815,"Delta":51242630},{"NoteNumber":69,"Velocity":52,"Duration":1432893,"SoundDuration":1432893,"Delta":51242630},{"NoteNumber":61,"Velocity":44,"Duration":1432893,"SoundDuration":1432893,"Delta":51242630},{"NoteNumber":55,"Velocity":39,"Duration":1791116,"SoundDuration":1791116,"Delta":51242630},{"NoteNumber":58,"Velocity":45,"Duration":238815,"SoundDuration":238815,"Delta":51481446},{"NoteNumber":57,"Velocity":48,"Duration":238815,"SoundDuration":238815,"Delta":51720261},{"NoteNumber":58,"Velocity":45,"Duration":238815,"SoundDuration":238815,"Delta":51959077},{"NoteNumber":57,"Velocity":48,"Duration":199012,"SoundDuration":199012,"Delta":52197892},{"NoteNumber":62,"Velocity":46,"Duration":238815,"SoundDuration":238815,"Delta":52436708},{"NoteNumber":61,"Velocity":48,"Duration":238815,"SoundDuration":238815,"Delta":52675523},{"NoteNumber":69,"Velocity":51,"Duration":524852,"SoundDuration":524852,"Delta":52675523},{"NoteNumber":58,"Velocity":48,"Duration":286037,"SoundDuration":286037,"Delta":52914339},{"NoteNumber":41,"Velocity":26,"Duration":999830,"SoundDuration":999830,"Delta":53033747},{"NoteNumber":45,"Velocity":29,"Duration":972059,"SoundDuration":972059,"Delta":53061518},{"NoteNumber":50,"Velocity":32,"Duration":944287,"SoundDuration":944287,"Delta":53089290},{"NoteNumber":53,"Velocity":35,"Duration":916516,"SoundDuration":916516,"Delta":53117061},{"NoteNumber":57,"Velocity":39,"Duration":293600,"SoundDuration":293600,"Delta":53144833},{"NoteNumber":62,"Velocity":43,"Duration":983903,"SoundDuration":983903,"Delta":53172605},{"NoteNumber":69,"Velocity":48,"Duration":956131,"SoundDuration":956131,"Delta":53200376},{"NoteNumber":58,"Velocity":45,"Duration":238057,"SoundDuration":238057,"Delta":53438434},{"NoteNumber":57,"Velocity":49,"Duration":238057,"SoundDuration":238057,"Delta":53676491},{"NoteNumber":58,"Velocity":45,"Duration":241959,"SoundDuration":241959,"Delta":53914549},{"NoteNumber":40,"Velocity":32,"Duration":1052409,"SoundDuration":1052409,"Delta":54033578},{"NoteNumber":45,"Velocity":35,"Duration":1031920,"SoundDuration":1031920,"Delta":54054066},{"NoteNumber":48,"Velocity":37,"Duration":1011432,"SoundDuration":1011432,"Delta":54074554},{"NoteNumber":52,"Velocity":40,"Duration":990944,"SoundDuration":990944,"Delta":54095043},{"NoteNumber":57,"Velocity":40,"Duration":247602,"SoundDuration":247602,"Delta":54115531},{"NoteNumber":64,"Velocity":43,"Duration":241000,"SoundDuration":241000,"Delta":54136020},{"NoteNumber":69,"Velocity":51,"Duration":929478,"SoundDuration":929478,"Delta":54156508},{"NoteNumber":64,"Velocity":51,"Duration":234338,"SoundDuration":234338,"Delta":54382971},{"NoteNumber":60,"Velocity":52,"Duration":234338,"SoundDuration":234338,"Delta":54617310},{"NoteNumber":59,"Velocity":48,"Duration":234338,"SoundDuration":234338,"Delta":54851648},{"NoteNumber":57,"Velocity":59,"Duration":256548,"SoundDuration":256548,"Delta":55085987},{"NoteNumber":69,"Velocity":59,"Duration":1892141,"SoundDuration":1892141,"Delta":55085987},{"NoteNumber":66,"Velocity":50,"Duration":1167333,"SoundDuration":1167333,"Delta":55085987},{"NoteNumber":51,"Velocity":49,"Duration":951850,"SoundDuration":951850,"Delta":55085987},{"NoteNumber":39,"Velocity":41,"Duration":951850,"SoundDuration":951850,"Delta":55085987},{"NoteNumber":48,"Velocity":38,"Duration":951850,"SoundDuration":951850,"Delta":55085987},{"NoteNumber":59,"Velocity":49,"Duration":232410,"SoundDuration":232410,"Delta":55342535},{"NoteNumber":57,"Velocity":54,"Duration":231445,"SoundDuration":231445,"Delta":55574945},{"NoteNumber":59,"Velocity":49,"Duration":231445,"SoundDuration":231445,"Delta":55806391},{"NoteNumber":57,"Velocity":56,"Duration":215483,"SoundDuration":215483,"Delta":56037837},{"NoteNumber":51,"Velocity":42,"Duration":940291,"SoundDuration":940291,"Delta":56037837},{"NoteNumber":39,"Velocity":36,"Duration":940291,"SoundDuration":940291,"Delta":56037837},{"NoteNumber":48,"Velocity":36,"Duration":940291,"SoundDuration":940291,"Delta":56037837},{"NoteNumber":45,"Velocity":36,"Duration":117536,"SoundDuration":117536,"Delta":56037837},{"NoteNumber":44,"Velocity":38,"Duration":117536,"SoundDuration":117536,"Delta":56155373},{"NoteNumber":66,"Velocity":54,"Duration":235072,"SoundDuration":235072,"Delta":56272910},{"NoteNumber":45,"Velocity":42,"Duration":117536,"SoundDuration":117536,"Delta":56272910},{"NoteNumber":44,"Velocity":45,"Duration":117536,"SoundDuration":117536,"Delta":56390446},{"NoteNumber":60,"Velocity":57,"Duration":235072,"SoundDuration":235072,"Delta":56507982},{"NoteNumber":45,"Velocity":46,"Duration":117536,"SoundDuration":117536,"Delta":56507982},{"NoteNumber":44,"Velocity":50,"Duration":117536,"SoundDuration":117536,"Delta":56625519},{"NoteNumber":59,"Velocity":54,"Duration":235072,"SoundDuration":235072,"Delta":56743055},{"NoteNumber":45,"Velocity":52,"Duration":117536,"SoundDuration":117536,"Delta":56743055},{"NoteNumber":44,"Velocity":52,"Duration":117536,"SoundDuration":117536,"Delta":56860592},{"NoteNumber":57,"Velocity":62,"Duration":231445,"SoundDuration":231445,"Delta":56978128},{"NoteNumber":69,"Velocity":62,"Duration":925783,"SoundDuration":925783,"Delta":56978128},{"NoteNumber":66,"Velocity":52,"Duration":925783,"SoundDuration":925783,"Delta":56978128},{"NoteNumber":51,"Velocity":44,"Duration":925783,"SoundDuration":925783,"Delta":56978128},{"NoteNumber":39,"Velocity":37,"Duration":925783,"SoundDuration":925783,"Delta":56978128},{"NoteNumber":48,"Velocity":37,"Duration":925783,"SoundDuration":925783,"Delta":56978128},{"NoteNumber":45,"Velocity":54,"Duration":77148,"SoundDuration":77148,"Delta":56978128},{"NoteNumber":44,"Velocity":48,"Duration":77148,"SoundDuration":77148,"Delta":57055277},{"NoteNumber":45,"Velocity":54,"Duration":77148,"SoundDuration":77148,"Delta":57132425},{"NoteNumber":59,"Velocity":54,"Duration":231445,"SoundDuration":231445,"Delta":57209574},{"NoteNumber":44,"Velocity":47,"Duration":77148,"SoundDuration":77148,"Delta":57209574},{"NoteNumber":45,"Velocity":55,"Duration":77148,"SoundDuration":77148,"Delta":57286722},{"NoteNumber":44,"Velocity":49,"Duration":77148,"SoundDuration":77148,"Delta":57363871},{"NoteNumber":57,"Velocity":60,"Duration":231445,"SoundDuration":231445,"Delta":57441019},{"NoteNumber":45,"Velocity":55,"Duration":77148,"SoundDuration":77148,"Delta":57441019},{"NoteNumber":44,"Velocity":49,"Duration":77148,"SoundDuration":77148,"Delta":57518168},{"NoteNumber":45,"Velocity":55,"Duration":77148,"SoundDuration":77148,"Delta":57595317},{"NoteNumber":59,"Velocity":55,"Duration":231445,"SoundDuration":231445,"Delta":57672465},{"NoteNumber":44,"Velocity":49,"Duration":77148,"SoundDuration":77148,"Delta":57672465},{"NoteNumber":45,"Velocity":56,"Duration":77148,"SoundDuration":77148,"Delta":57749614},{"NoteNumber":44,"Velocity":50,"Duration":77148,"SoundDuration":77148,"Delta":57826762},{"NoteNumber":45,"Velocity":56,"Duration":77148,"SoundDuration":77148,"Delta":57892339},{"NoteNumber":57,"Velocity":65,"Duration":231445,"SoundDuration":231445,"Delta":57903911},{"NoteNumber":69,"Velocity":65,"Duration":954263,"SoundDuration":954263,"Delta":57903911},{"NoteNumber":66,"Velocity":54,"Duration":954263,"SoundDuration":954263,"Delta":57903911},{"NoteNumber":51,"Velocity":46,"Duration":954263,"SoundDuration":954263,"Delta":57903911},{"NoteNumber":39,"Velocity":39,"Duration":954263,"SoundDuration":954263,"Delta":57903911},{"NoteNumber":48,"Velocity":39,"Duration":954263,"SoundDuration":954263,"Delta":57903911},{"NoteNumber":44,"Velocity":50,"Duration":77148,"SoundDuration":77148,"Delta":57969487},{"NoteNumber":45,"Velocity":57,"Duration":77148,"SoundDuration":77148,"Delta":58046636},{"NoteNumber":44,"Velocity":51,"Duration":77148,"SoundDuration":77148,"Delta":58123784},{"NoteNumber":60,"Velocity":59,"Duration":231445,"SoundDuration":231445,"Delta":58135357},{"NoteNumber":45,"Velocity":57,"Duration":77148,"SoundDuration":77148,"Delta":58200933},{"NoteNumber":44,"Velocity":51,"Duration":77148,"SoundDuration":77148,"Delta":58278082},{"NoteNumber":59,"Velocity":63,"Duration":231445,"SoundDuration":231445,"Delta":58366802},{"NoteNumber":45,"Velocity":56,"Duration":115722,"SoundDuration":115722,"Delta":58366802},{"NoteNumber":43,"Velocity":53,"Duration":115722,"SoundDuration":115722,"Delta":58482525},{"NoteNumber":57,"Velocity":59,"Duration":259925,"SoundDuration":259925,"Delta":58598248},{"NoteNumber":42,"Velocity":56,"Duration":115722,"SoundDuration":115722,"Delta":58598248},{"NoteNumber":41,"Velocity":54,"Duration":144202,"SoundDuration":144202,"Delta":58713971},{"NoteNumber":52,"Velocity":59,"Duration":257895,"SoundDuration":257895,"Delta":58858174},{"NoteNumber":60,"Velocity":67,"Duration":1889955,"SoundDuration":1889955,"Delta":58858174},{"NoteNumber":64,"Velocity":67,"Duration":1889955,"SoundDuration":1889955,"Delta":58858174},{"NoteNumber":45,"Velocity":61,"Duration":1889955,"SoundDuration":1889955,"Delta":58858174},{"NoteNumber":48,"Velocity":61,"Duration":1889955,"SoundDuration":1889955,"Delta":58858174},{"NoteNumber":40,"Velocity":53,"Duration":99190,"SoundDuration":99190,"Delta":58858174},{"NoteNumber":39,"Velocity":48,"Duration":99190,"SoundDuration":99190,"Delta":58937527},{"NoteNumber":40,"Velocity":53,"Duration":99190,"SoundDuration":99190,"Delta":59016879},{"NoteNumber":53,"Velocity":52,"Duration":255657,"SoundDuration":255657,"Delta":59096232},{"NoteNumber":39,"Velocity":47,"Duration":98941,"SoundDuration":98941,"Delta":59096232},{"NoteNumber":40,"Velocity":53,"Duration":97946,"SoundDuration":97946,"Delta":59175584},{"NoteNumber":39,"Velocity":48,"Duration":97946,"SoundDuration":97946,"Delta":59253942},{"NoteNumber":52,"Velocity":59,"Duration":254662,"SoundDuration":254662,"Delta":59332299},{"NoteNumber":40,"Velocity":53,"Duration":97946,"SoundDuration":97946,"Delta":59332299},{"NoteNumber":39,"Velocity":46,"Duration":97946,"SoundDuration":97946,"Delta":59410657},{"NoteNumber":40,"Velocity":52,"Duration":97946,"SoundDuration":97946,"Delta":59489014},{"NoteNumber":53,"Velocity":52,"Duration":254662,"SoundDuration":254662,"Delta":59567372},{"NoteNumber":39,"Velocity":48,"Duration":97946,"SoundDuration":97946,"Delta":59567372},{"NoteNumber":40,"Velocity":52,"Duration":97946,"SoundDuration":97946,"Delta":59645730},{"NoteNumber":39,"Velocity":46,"Duration":97946,"SoundDuration":97946,"Delta":59724087},{"NoteNumber":52,"Velocity":59,"Duration":235072,"SoundDuration":235072,"Delta":59802445},{"NoteNumber":40,"Velocity":51,"Duration":97946,"SoundDuration":97946,"Delta":59802445},{"NoteNumber":39,"Velocity":46,"Duration":97946,"SoundDuration":97946,"Delta":59880802},{"NoteNumber":40,"Velocity":51,"Duration":97946,"SoundDuration":97946,"Delta":59959160},{"NoteNumber":57,"Velocity":54,"Duration":254662,"SoundDuration":254662,"Delta":60037517},{"NoteNumber":39,"Velocity":45,"Duration":97946,"SoundDuration":97946,"Delta":60037517},{"NoteNumber":40,"Velocity":52,"Duration":97946,"SoundDuration":97946,"Delta":60115875},{"NoteNumber":39,"Velocity":45,"Duration":97946,"SoundDuration":97946,"Delta":60194233},{"NoteNumber":55,"Velocity":59,"Duration":254662,"SoundDuration":254662,"Delta":60272590},{"NoteNumber":40,"Velocity":51,"Duration":97946,"SoundDuration":97946,"Delta":60272590},{"NoteNumber":39,"Velocity":45,"Duration":97946,"SoundDuration":97946,"Delta":60350948},{"NoteNumber":40,"Velocity":51,"Duration":97946,"SoundDuration":97946,"Delta":60429305},{"NoteNumber":53,"Velocity":54,"Duration":240467,"SoundDuration":240467,"Delta":60507663},{"NoteNumber":39,"Velocity":46,"Duration":97946,"SoundDuration":97946,"Delta":60507663},{"NoteNumber":40,"Velocity":51,"Duration":100644,"SoundDuration":100644,"Delta":60586021},{"NoteNumber":39,"Velocity":46,"Duration":101791,"SoundDuration":101791,"Delta":60666176},{"NoteNumber":52,"Velocity":59,"Duration":257895,"SoundDuration":257895,"Delta":60748130},{"NoteNumber":59,"Velocity":67,"Duration":1400072,"SoundDuration":1400072,"Delta":60748130},{"NoteNumber":64,"Velocity":67,"Duration":1840968,"SoundDuration":1840968,"Delta":60748130},{"NoteNumber":44,"Velocity":57,"Duration":1840968,"SoundDuration":1840968,"Delta":60748130},{"NoteNumber":47,"Velocity":57,"Duration":1840968,"SoundDuration":1840968,"Delta":60748130},{"NoteNumber":40,"Velocity":53,"Duration":99190,"SoundDuration":99190,"Delta":60748130},{"NoteNumber":39,"Velocity":45,"Duration":99190,"SoundDuration":99190,"Delta":60827482},{"NoteNumber":40,"Velocity":51,"Duration":99190,"SoundDuration":99190,"Delta":60906835},{"NoteNumber":53,"Velocity":56,"Duration":250299,"SoundDuration":250299,"Delta":60986187},{"NoteNumber":39,"Velocity":45,"Duration":98346,"SoundDuration":98346,"Delta":60986187},{"NoteNumber":40,"Velocity":51,"Duration":94970,"SoundDuration":94970,"Delta":61065540},{"NoteNumber":39,"Velocity":45,"Duration":94970,"SoundDuration":94970,"Delta":61141516},{"NoteNumber":52,"Velocity":56,"Duration":246923,"SoundDuration":246923,"Delta":61217493},{"NoteNumber":40,"Velocity":51,"Duration":94970,"SoundDuration":94970,"Delta":61217493},{"NoteNumber":39,"Velocity":45,"Duration":94970,"SoundDuration":94970,"Delta":61293469},{"NoteNumber":40,"Velocity":51,"Duration":94970,"SoundDuration":94970,"Delta":61369445},{"NoteNumber":53,"Velocity":50,"Duration":246923,"SoundDuration":246923,"Delta":61445422},{"NoteNumber":39,"Velocity":45,"Duration":94970,"SoundDuration":94970,"Delta":61445422},{"NoteNumber":40,"Velocity":51,"Duration":94970,"SoundDuration":94970,"Delta":61521398},{"NoteNumber":39,"Velocity":46,"Duration":94970,"SoundDuration":94970,"Delta":61597374},{"NoteNumber":52,"Velocity":54,"Duration":227929,"SoundDuration":227929,"Delta":61673351},{"NoteNumber":40,"Velocity":48,"Duration":132958,"SoundDuration":132958,"Delta":61673351},{"NoteNumber":39,"Velocity":48,"Duration":132958,"SoundDuration":132958,"Delta":61787315},{"NoteNumber":59,"Velocity":49,"Duration":687818,"SoundDuration":687818,"Delta":61901280},{"NoteNumber":40,"Velocity":49,"Duration":113964,"SoundDuration":113964,"Delta":61901280},{"NoteNumber":38,"Velocity":53,"Duration":75976,"SoundDuration":75976,"Delta":62015244},{"NoteNumber":56,"Velocity":59,"Duration":246923,"SoundDuration":246923,"Delta":62129209},{"NoteNumber":37,"Velocity":55,"Duration":75976,"SoundDuration":75976,"Delta":62129209},{"NoteNumber":36,"Velocity":58,"Duration":75976,"SoundDuration":75976,"Delta":62243173},{"NoteNumber":53,"Velocity":54,"Duration":231960,"SoundDuration":231960,"Delta":62357138},{"NoteNumber":35,"Velocity":62,"Duration":113964,"SoundDuration":113964,"Delta":62357138},{"NoteNumber":34,"Velocity":64,"Duration":75976,"SoundDuration":75976,"Delta":62471102},{"NoteNumber":33,"Velocity":46,"Duration":1881030,"SoundDuration":1881030,"Delta":62589098},{"NoteNumber":40,"Velocity":46,"Duration":1856997,"SoundDuration":1856997,"Delta":62613132},{"NoteNumber":45,"Velocity":46,"Duration":1833649,"SoundDuration":1833649,"Delta":62636480},{"NoteNumber":49,"Velocity":46,"Duration":1811332,"SoundDuration":1811332,"Delta":62658797},{"NoteNumber":64,"Velocity":59,"Duration":1789014,"SoundDuration":1789014,"Delta":62681114},{"NoteNumber":61,"Velocity":59,"Duration":1106907,"SoundDuration":1106907,"Delta":62681114},{"NoteNumber":52,"Velocity":59,"Duration":169462,"SoundDuration":169462,"Delta":62681114},{"NoteNumber":53,"Velocity":44,"Duration":241554,"SoundDuration":241554,"Delta":62850577},{"NoteNumber":52,"Velocity":51,"Duration":237341,"SoundDuration":237341,"Delta":63092132},{"NoteNumber":53,"Velocity":45,"Duration":237341,"SoundDuration":237341,"Delta":63329474},{"NoteNumber":52,"Velocity":49,"Duration":165904,"SoundDuration":165904,"Delta":63566816},{"NoteNumber":61,"Velocity":54,"Duration":682107,"SoundDuration":682107,"Delta":63788022},{"NoteNumber":57,"Velocity":51,"Duration":230450,"SoundDuration":230450,"Delta":64018472},{"NoteNumber":53,"Velocity":49,"Duration":221206,"SoundDuration":221206,"Delta":64248923},{"NoteNumber":52,"Velocity":54,"Duration":168387,"SoundDuration":168387,"Delta":64470129},{"NoteNumber":57,"Velocity":51,"Duration":231554,"SoundDuration":231554,"Delta":64694647},{"NoteNumber":53,"Velocity":53,"Duration":229379,"SoundDuration":229379,"Delta":64926201},{"NoteNumber":52,"Velocity":50,"Duration":217991,"SoundDuration":217991,"Delta":65155580},{"NoteNumber":49,"Velocity":52,"Duration":165904,"SoundDuration":165904,"Delta":65373571},{"NoteNumber":53,"Velocity":54,"Duration":230450,"SoundDuration":230450,"Delta":65594778},{"NoteNumber":52,"Velocity":51,"Duration":231882,"SoundDuration":231882,"Delta":65825228},{"NoteNumber":49,"Velocity":47,"Duration":246839,"SoundDuration":246839,"Delta":66057110},{"NoteNumber":45,"Velocity":56,"Duration":235072,"SoundDuration":235072,"Delta":66303950},{"NoteNumber":46,"Velocity":53,"Duration":232412,"SoundDuration":232412,"Delta":66539023},{"NoteNumber":47,"Velocity":56,"Duration":230126,"SoundDuration":230126,"Delta":66771436},{"NoteNumber":48,"Velocity":56,"Duration":227900,"SoundDuration":227900,"Delta":67001563},{"NoteNumber":49,"Velocity":54,"Duration":224517,"SoundDuration":224517,"Delta":67229463},{"NoteNumber":50,"Velocity":54,"Duration":222365,"SoundDuration":222365,"Delta":67453980},{"NoteNumber":51,"Velocity":56,"Duration":220268,"SoundDuration":220268,"Delta":67676345},{"NoteNumber":52,"Velocity":57,"Duration":217965,"SoundDuration":217965,"Delta":67896614},{"NoteNumber":53,"Velocity":58,"Duration":214868,"SoundDuration":214868,"Delta":68114580},{"NoteNumber":54,"Velocity":60,"Duration":214869,"SoundDuration":214869,"Delta":68329449},{"NoteNumber":55,"Velocity":61,"Duration":214868,"SoundDuration":214868,"Delta":68544318},{"NoteNumber":56,"Velocity":63,"Duration":214869,"SoundDuration":214869,"Delta":68759187},{"NoteNumber":55,"Velocity":69,"Duration":214868,"SoundDuration":214868,"Delta":68974056},{"NoteNumber":56,"Velocity":66,"Duration":214869,"SoundDuration":214869,"Delta":69188925},{"NoteNumber":67,"Velocity":68,"Duration":447151,"SoundDuration":447151,"Delta":69403794},{"NoteNumber":55,"Velocity":63,"Duration":219222,"SoundDuration":219222,"Delta":69403794},{"NoteNumber":65,"Velocity":57,"Duration":447151,"SoundDuration":447151,"Delta":69403794},{"NoteNumber":35,"Velocity":36,"Duration":447151,"SoundDuration":447151,"Delta":69403794},{"NoteNumber":43,"Velocity":43,"Duration":447151,"SoundDuration":447151,"Delta":69403794},{"NoteNumber":50,"Velocity":51,"Duration":447151,"SoundDuration":447151,"Delta":69403794},{"NoteNumber":56,"Velocity":59,"Duration":227929,"SoundDuration":227929,"Delta":69623016},{"NoteNumber":67,"Velocity":73,"Duration":445037,"SoundDuration":445037,"Delta":69850945},{"NoteNumber":55,"Velocity":62,"Duration":222519,"SoundDuration":222519,"Delta":69850945},{"NoteNumber":64,"Velocity":62,"Duration":445037,"SoundDuration":445037,"Delta":69850945},{"NoteNumber":52,"Velocity":56,"Duration":445037,"SoundDuration":445037,"Delta":69850945},{"NoteNumber":43,"Velocity":46,"Duration":445037,"SoundDuration":445037,"Delta":69850945},{"NoteNumber":36,"Velocity":39,"Duration":445037,"SoundDuration":445037,"Delta":69850945},{"NoteNumber":56,"Velocity":56,"Duration":222518,"SoundDuration":222518,"Delta":70073464},{"NoteNumber":55,"Velocity":59,"Duration":222519,"SoundDuration":222519,"Delta":70295983},{"NoteNumber":56,"Velocity":56,"Duration":222518,"SoundDuration":222518,"Delta":70518502},{"NoteNumber":67,"Velocity":71,"Duration":445038,"SoundDuration":445038,"Delta":70741021},{"NoteNumber":55,"Velocity":56,"Duration":203975,"SoundDuration":203975,"Delta":70741021},{"NoteNumber":63,"Velocity":60,"Duration":445038,"SoundDuration":445038,"Delta":70741021},{"NoteNumber":51,"Velocity":50,"Duration":445038,"SoundDuration":445038,"Delta":70741021},{"NoteNumber":43,"Velocity":42,"Duration":445038,"SoundDuration":445038,"Delta":70741021},{"NoteNumber":36,"Velocity":36,"Duration":445038,"SoundDuration":445038,"Delta":70741021},{"NoteNumber":60,"Velocity":62,"Duration":222519,"SoundDuration":222519,"Delta":70963540},{"NoteNumber":58,"Velocity":58,"Duration":222518,"SoundDuration":222518,"Delta":71186059},{"NoteNumber":56,"Velocity":58,"Duration":222519,"SoundDuration":222519,"Delta":71408578},{"NoteNumber":55,"Velocity":62,"Duration":222519,"SoundDuration":222519,"Delta":71631097},{"NoteNumber":56,"Velocity":56,"Duration":233383,"SoundDuration":233383,"Delta":71853616},{"NoteNumber":67,"Velocity":70,"Duration":454152,"SoundDuration":454152,"Delta":72086999},{"NoteNumber":55,"Velocity":62,"Duration":232945,"SoundDuration":232945,"Delta":72086999},{"NoteNumber":62,"Velocity":59,"Duration":454152,"SoundDuration":454152,"Delta":72086999},{"NoteNumber":47,"Velocity":52,"Duration":454152,"SoundDuration":454152,"Delta":72086999},{"NoteNumber":50,"Velocity":52,"Duration":454152,"SoundDuration":454152,"Delta":72086999},{"NoteNumber":38,"Velocity":37,"Duration":454152,"SoundDuration":454152,"Delta":72086999},{"NoteNumber":56,"Velocity":56,"Duration":221206,"SoundDuration":221206,"Delta":72319945},{"NoteNumber":67,"Velocity":73,"Duration":442412,"SoundDuration":442412,"Delta":72541151},{"NoteNumber":55,"Velocity":62,"Duration":221206,"SoundDuration":221206,"Delta":72541151},{"NoteNumber":61,"Velocity":62,"Duration":442412,"SoundDuration":442412,"Delta":72541151},{"NoteNumber":49,"Velocity":56,"Duration":442412,"SoundDuration":442412,"Delta":72541151},{"NoteNumber":46,"Velocity":46,"Duration":442412,"SoundDuration":442412,"Delta":72541151},{"NoteNumber":40,"Velocity":39,"Duration":442412,"SoundDuration":442412,"Delta":72541151},{"NoteNumber":57,"Velocity":56,"Duration":221206,"SoundDuration":221206,"Delta":72762357},{"NoteNumber":55,"Velocity":62,"Duration":221206,"SoundDuration":221206,"Delta":72983564},{"NoteNumber":57,"Velocity":56,"Duration":221206,"SoundDuration":221206,"Delta":73204770},{"NoteNumber":67,"Velocity":70,"Duration":456065,"SoundDuration":456065,"Delta":73425976},{"NoteNumber":55,"Velocity":58,"Duration":212158,"SoundDuration":212158,"Delta":73425976},{"NoteNumber":61,"Velocity":59,"Duration":456065,"SoundDuration":456065,"Delta":73425976},{"NoteNumber":49,"Velocity":53,"Duration":456065,"SoundDuration":456065,"Delta":73425976},{"NoteNumber":46,"Velocity":45,"Duration":456065,"SoundDuration":456065,"Delta":73425976},{"NoteNumber":40,"Velocity":38,"Duration":456065,"SoundDuration":456065,"Delta":73425976},{"NoteNumber":60,"Velocity":60,"Duration":224619,"SoundDuration":224619,"Delta":73657422},{"NoteNumber":58,"Velocity":59,"Duration":221206,"SoundDuration":221206,"Delta":73882041},{"NoteNumber":57,"Velocity":59,"Duration":221206,"SoundDuration":221206,"Delta":74103248},{"NoteNumber":55,"Velocity":62,"Duration":221206,"SoundDuration":221206,"Delta":74324454},{"NoteNumber":57,"Velocity":56,"Duration":221206,"SoundDuration":221206,"Delta":74545660},{"NoteNumber":55,"Velocity":62,"Duration":224619,"SoundDuration":224619,"Delta":74766866},{"NoteNumber":57,"Velocity":56,"Duration":231445,"SoundDuration":231445,"Delta":74991486},{"NoteNumber":67,"Velocity":50,"Duration":653974,"SoundDuration":653974,"Delta":75222932},{"NoteNumber":55,"Velocity":62,"Duration":199825,"SoundDuration":199825,"Delta":75222932},{"NoteNumber":60,"Velocity":42,"Duration":217991,"SoundDuration":217991,"Delta":75222932},{"NoteNumber":48,"Velocity":40,"Duration":871966,"SoundDuration":871966,"Delta":75222932},{"NoteNumber":39,"Velocity":33,"Duration":871966,"SoundDuration":871966,"Delta":75222932},{"NoteNumber":43,"Velocity":35,"Duration":108995,"SoundDuration":108995,"Delta":75224748},{"NoteNumber":42,"Velocity":36,"Duration":108995,"SoundDuration":108995,"Delta":75333744},{"NoteNumber":60,"Velocity":53,"Duration":653974,"SoundDuration":653974,"Delta":75440923},{"NoteNumber":43,"Velocity":39,"Duration":108995,"SoundDuration":108995,"Delta":75442740},{"NoteNumber":42,"Velocity":42,"Duration":108995,"SoundDuration":108995,"Delta":75551735},{"NoteNumber":58,"Velocity":53,"Duration":217991,"SoundDuration":217991,"Delta":75658915},{"NoteNumber":43,"Velocity":44,"Duration":108995,"SoundDuration":108995,"Delta":75660731},{"NoteNumber":42,"Velocity":46,"Duration":108995,"SoundDuration":108995,"Delta":75769727},{"NoteNumber":57,"Velocity":53,"Duration":217991,"SoundDuration":217991,"Delta":75876906},{"NoteNumber":43,"Velocity":47,"Duration":108995,"SoundDuration":108995,"Delta":75878723},{"NoteNumber":42,"Velocity":47,"Duration":108995,"SoundDuration":108995,"Delta":75987718},{"NoteNumber":67,"Velocity":51,"Duration":871966,"SoundDuration":871966,"Delta":76094898},{"NoteNumber":55,"Velocity":51,"Duration":199825,"SoundDuration":199825,"Delta":76094898},{"NoteNumber":59,"Velocity":51,"Duration":871966,"SoundDuration":871966,"Delta":76094898},{"NoteNumber":50,"Velocity":44,"Duration":871966,"SoundDuration":871966,"Delta":76094898},{"NoteNumber":47,"Velocity":35,"Duration":871966,"SoundDuration":871966,"Delta":76094898},{"NoteNumber":38,"Velocity":32,"Duration":871966,"SoundDuration":871966,"Delta":76094898},{"NoteNumber":43,"Velocity":49,"Duration":72663,"SoundDuration":72663,"Delta":76096714},{"NoteNumber":42,"Velocity":44,"Duration":72663,"SoundDuration":72663,"Delta":76169378},{"NoteNumber":43,"Velocity":49,"Duration":72663,"SoundDuration":72663,"Delta":76242042},{"NoteNumber":62,"Velocity":54,"Duration":217991,"SoundDuration":217991,"Delta":76312889},{"NoteNumber":42,"Velocity":43,"Duration":72663,"SoundDuration":72663,"Delta":76314706},{"NoteNumber":43,"Velocity":49,"Duration":72663,"SoundDuration":72663,"Delta":76387369},{"NoteNumber":42,"Velocity":44,"Duration":72663,"SoundDuration":72663,"Delta":76460033},{"NoteNumber":58,"Velocity":54,"Duration":217991,"SoundDuration":217991,"Delta":76530881},{"NoteNumber":43,"Velocity":49,"Duration":72663,"SoundDuration":72663,"Delta":76532697},{"NoteNumber":42,"Velocity":44,"Duration":72663,"SoundDuration":72663,"Delta":76605361},{"NoteNumber":43,"Velocity":49,"Duration":72663,"SoundDuration":72663,"Delta":76678025},{"NoteNumber":55,"Velocity":54,"Duration":217991,"SoundDuration":217991,"Delta":76748872},{"NoteNumber":42,"Velocity":43,"Duration":72663,"SoundDuration":72663,"Delta":76750689},{"NoteNumber":43,"Velocity":49,"Duration":72663,"SoundDuration":72663,"Delta":76823352},{"NoteNumber":42,"Velocity":44,"Duration":72663,"SoundDuration":72663,"Delta":76896016},{"NoteNumber":43,"Velocity":49,"Duration":72663,"SoundDuration":72663,"Delta":76957781},{"NoteNumber":67,"Velocity":54,"Duration":435982,"SoundDuration":435982,"Delta":76966864},{"NoteNumber":55,"Velocity":54,"Duration":199825,"SoundDuration":199825,"Delta":76966864},{"NoteNumber":58,"Velocity":54,"Duration":432349,"SoundDuration":432349,"Delta":76966864},{"NoteNumber":52,"Velocity":53,"Duration":889904,"SoundDuration":889904,"Delta":76966864},{"NoteNumber":46,"Velocity":42,"Duration":889904,"SoundDuration":889904,"Delta":76966864},{"NoteNumber":37,"Velocity":38,"Duration":889904,"SoundDuration":889904,"Delta":76966864},{"NoteNumber":42,"Velocity":44,"Duration":72663,"SoundDuration":72663,"Delta":77030444},{"NoteNumber":43,"Velocity":49,"Duration":72663,"SoundDuration":72663,"Delta":77103108},{"NoteNumber":42,"Velocity":44,"Duration":72663,"SoundDuration":72663,"Delta":77175772},{"NoteNumber":64,"Velocity":60,"Duration":217991,"SoundDuration":217991,"Delta":77184855},{"NoteNumber":43,"Velocity":49,"Duration":72663,"SoundDuration":72663,"Delta":77248436},{"NoteNumber":42,"Velocity":44,"Duration":72663,"SoundDuration":72663,"Delta":77321100},{"NoteNumber":58,"Velocity":58,"Duration":222476,"SoundDuration":222476,"Delta":77402847},{"NoteNumber":43,"Velocity":49,"Duration":108995,"SoundDuration":108995,"Delta":77404663},{"NoteNumber":41,"Velocity":45,"Duration":113592,"SoundDuration":113592,"Delta":77513659},{"NoteNumber":55,"Velocity":58,"Duration":231445,"SoundDuration":231445,"Delta":77625323},{"NoteNumber":40,"Velocity":50,"Duration":115722,"SoundDuration":115722,"Delta":77627252},{"NoteNumber":39,"Velocity":45,"Duration":115610,"SoundDuration":115610,"Delta":77742974},{"NoteNumber":62,"Velocity":72,"Duration":1740445,"SoundDuration":1740445,"Delta":77856769},{"NoteNumber":50,"Velocity":58,"Duration":236157,"SoundDuration":236157,"Delta":77856769},{"NoteNumber":57,"Velocity":61,"Duration":1326114,"SoundDuration":1326114,"Delta":77856769},{"NoteNumber":43,"Velocity":54,"Duration":871966,"SoundDuration":871966,"Delta":77856769},{"NoteNumber":45,"Velocity":57,"Duration":871966,"SoundDuration":871966,"Delta":77856769},{"NoteNumber":38,"Velocity":51,"Duration":136244,"SoundDuration":136244,"Delta":77856769},{"NoteNumber":37,"Velocity":46,"Duration":136244,"SoundDuration":136244,"Delta":77965764},{"NoteNumber":51,"Velocity":53,"Duration":236157,"SoundDuration":236157,"Delta":78074760},{"NoteNumber":38,"Velocity":51,"Duration":136244,"SoundDuration":136244,"Delta":78074760},{"NoteNumber":37,"Velocity":45,"Duration":136244,"SoundDuration":136244,"Delta":78183756},{"NoteNumber":50,"Velocity":58,"Duration":236157,"SoundDuration":236157,"Delta":78292752},{"NoteNumber":38,"Velocity":52,"Duration":136244,"SoundDuration":136244,"Delta":78292752},{"NoteNumber":37,"Velocity":45,"Duration":136244,"SoundDuration":136244,"Delta":78401747},{"NoteNumber":51,"Velocity":53,"Duration":236157,"SoundDuration":236157,"Delta":78510743},{"NoteNumber":38,"Velocity":51,"Duration":136244,"SoundDuration":136244,"Delta":78510743},{"NoteNumber":37,"Velocity":45,"Duration":136244,"SoundDuration":136244,"Delta":78619739},{"NoteNumber":50,"Velocity":54,"Duration":199825,"SoundDuration":199825,"Delta":78728735},{"NoteNumber":45,"Velocity":61,"Duration":1773339,"SoundDuration":1773339,"Delta":78728735},{"NoteNumber":42,"Velocity":51,"Duration":1773339,"SoundDuration":1773339,"Delta":78728735},{"NoteNumber":38,"Velocity":56,"Duration":136244,"SoundDuration":136244,"Delta":78728735},{"NoteNumber":39,"Velocity":51,"Duration":136244,"SoundDuration":136244,"Delta":78837730},{"NoteNumber":57,"Velocity":58,"Duration":650487,"SoundDuration":650487,"Delta":78946726},{"NoteNumber":38,"Velocity":56,"Duration":136244,"SoundDuration":136244,"Delta":78946726},{"NoteNumber":39,"Velocity":52,"Duration":136244,"SoundDuration":136244,"Delta":79055722},{"NoteNumber":54,"Velocity":54,"Duration":235532,"SoundDuration":235532,"Delta":79164718},{"NoteNumber":38,"Velocity":55,"Duration":136244,"SoundDuration":136244,"Delta":79164718},{"NoteNumber":39,"Velocity":51,"Duration":135490,"SoundDuration":135490,"Delta":79273713},{"NoteNumber":51,"Velocity":54,"Duration":232774,"SoundDuration":232774,"Delta":79382345},{"NoteNumber":38,"Velocity":55,"Duration":134293,"SoundDuration":134293,"Delta":79382345},{"NoteNumber":39,"Velocity":53,"Duration":134293,"SoundDuration":134293,"Delta":79489779},{"NoteNumber":50,"Velocity":56,"Duration":233659,"SoundDuration":233659,"Delta":79597214},{"NoteNumber":38,"Velocity":56,"Duration":125340,"SoundDuration":125340,"Delta":79597214},{"NoteNumber":39,"Velocity":54,"Duration":108059,"SoundDuration":108059,"Delta":79704648},{"NoteNumber":51,"Velocity":54,"Duration":239777,"SoundDuration":239777,"Delta":79812707},{"NoteNumber":38,"Velocity":60,"Duration":72824,"SoundDuration":72824,"Delta":79812707},{"NoteNumber":36,"Velocity":63,"Duration":73956,"SoundDuration":73956,"Delta":79922400},{"NoteNumber":50,"Velocity":58,"Duration":245915,"SoundDuration":245915,"Delta":80033775},{"NoteNumber":35,"Velocity":67,"Duration":75151,"SoundDuration":75151,"Delta":80033775},{"NoteNumber":34,"Velocity":70,"Duration":76357,"SoundDuration":76357,"Delta":80146915},{"NoteNumber":51,"Velocity":54,"Duration":261444,"SoundDuration":261444,"Delta":80260981},{"NoteNumber":33,"Velocity":73,"Duration":114352,"SoundDuration":114352,"Delta":80260981},{"NoteNumber":32,"Velocity":77,"Duration":80893,"SoundDuration":80893,"Delta":80375333},{"NoteNumber":31,"Velocity":45,"Duration":471752,"SoundDuration":471752,"Delta":80502074},{"NoteNumber":38,"Velocity":45,"Duration":451401,"SoundDuration":451401,"Delta":80522425},{"NoteNumber":43,"Velocity":46,"Duration":431499,"SoundDuration":431499,"Delta":80542326},{"NoteNumber":50,"Velocity":61,"Duration":179111,"SoundDuration":179111,"Delta":80562227},{"NoteNumber":62,"Velocity":61,"Duration":679141,"SoundDuration":679141,"Delta":80562227},{"NoteNumber":59,"Velocity":61,"Duration":179111,"SoundDuration":179111,"Delta":80562227},{"NoteNumber":47,"Velocity":46,"Duration":411598,"SoundDuration":411598,"Delta":80562227},{"NoteNumber":59,"Velocity":49,"Duration":232487,"SoundDuration":232487,"Delta":80741339},{"NoteNumber":55,"Velocity":44,"Duration":229322,"SoundDuration":229322,"Delta":80973826},{"NoteNumber":51,"Velocity":44,"Duration":229322,"SoundDuration":229322,"Delta":81203149},{"NoteNumber":50,"Velocity":49,"Duration":171992,"SoundDuration":171992,"Delta":81432471},{"NoteNumber":55,"Velocity":45,"Duration":228393,"SoundDuration":228393,"Delta":81661794},{"NoteNumber":50,"Velocity":45,"Duration":227928,"SoundDuration":227928,"Delta":81890188},{"NoteNumber":48,"Velocity":44,"Duration":227929,"SoundDuration":227929,"Delta":82118117},{"NoteNumber":47,"Velocity":49,"Duration":170946,"SoundDuration":170946,"Delta":82346046},{"NoteNumber":51,"Velocity":47,"Duration":227929,"SoundDuration":227929,"Delta":82573975},{"NoteNumber":50,"Velocity":47,"Duration":232845,"SoundDuration":232845,"Delta":82801904},{"NoteNumber":47,"Velocity":46,"Duration":241728,"SoundDuration":241728,"Delta":83034750},{"NoteNumber":43,"Velocity":54,"Duration":234619,"SoundDuration":234619,"Delta":83276478},{"NoteNumber":42,"Velocity":49,"Duration":230126,"SoundDuration":230126,"Delta":83511097},{"NoteNumber":43,"Velocity":56,"Duration":225796,"SoundDuration":225796,"Delta":83741224},{"NoteNumber":42,"Velocity":54,"Duration":221218,"SoundDuration":221218,"Delta":83967021},{"NoteNumber":43,"Velocity":59,"Duration":227929,"SoundDuration":227929,"Delta":84188239},{"NoteNumber":31,"Velocity":53,"Duration":227929,"SoundDuration":227929,"Delta":84188239},{"NoteNumber":42,"Velocity":54,"Duration":227132,"SoundDuration":227132,"Delta":84416168},{"NoteNumber":30,"Velocity":46,"Duration":227132,"SoundDuration":227132,"Delta":84416168},{"NoteNumber":43,"Velocity":59,"Duration":224517,"SoundDuration":224517,"Delta":84643301},{"NoteNumber":31,"Velocity":53,"Duration":224517,"SoundDuration":224517,"Delta":84643301},{"NoteNumber":42,"Velocity":54,"Duration":223993,"SoundDuration":223993,"Delta":84867818},{"NoteNumber":30,"Velocity":47,"Duration":223993,"SoundDuration":223993,"Delta":84867818},{"NoteNumber":43,"Velocity":58,"Duration":221206,"SoundDuration":221206,"Delta":85091811},{"NoteNumber":31,"Velocity":46,"Duration":221206,"SoundDuration":221206,"Delta":85091811},{"NoteNumber":44,"Velocity":62,"Duration":220965,"SoundDuration":220965,"Delta":85313018},{"NoteNumber":32,"Velocity":51,"Duration":220965,"SoundDuration":220965,"Delta":85313018},{"NoteNumber":45,"Velocity":67,"Duration":217991,"SoundDuration":217991,"Delta":85533983},{"NoteNumber":33,"Velocity":54,"Duration":217991,"SoundDuration":217991,"Delta":85533983},{"NoteNumber":46,"Velocity":72,"Duration":150794,"SoundDuration":150794,"Delta":85751974},{"NoteNumber":34,"Velocity":58,"Duration":150794,"SoundDuration":150794,"Delta":85751974},{"NoteNumber":35,"Velocity":52,"Duration":301589,"SoundDuration":301589,"Delta":85902769},{"NoteNumber":38,"Velocity":54,"Duration":280690,"SoundDuration":280690,"Delta":85923669},{"NoteNumber":41,"Velocity":58,"Duration":259790,"SoundDuration":259790,"Delta":85944568},{"NoteNumber":44,"Velocity":62,"Duration":238891,"SoundDuration":238891,"Delta":85965468},{"NoteNumber":86,"Velocity":89,"Duration":888367,"SoundDuration":888367,"Delta":85986367},{"NoteNumber":80,"Velocity":77,"Duration":888367,"SoundDuration":888367,"Delta":85986367},{"NoteNumber":77,"Velocity":69,"Duration":888367,"SoundDuration":888367,"Delta":85986367},{"NoteNumber":74,"Velocity":69,"Duration":888367,"SoundDuration":888367,"Delta":85986367},{"NoteNumber":47,"Velocity":65,"Duration":217991,"SoundDuration":217991,"Delta":85986367},{"NoteNumber":48,"Velocity":58,"Duration":217991,"SoundDuration":217991,"Delta":86204359},{"NoteNumber":36,"Velocity":49,"Duration":217991,"SoundDuration":217991,"Delta":86204359},{"NoteNumber":47,"Velocity":58,"Duration":217991,"SoundDuration":217991,"Delta":86422350},{"NoteNumber":35,"Velocity":49,"Duration":217991,"SoundDuration":217991,"Delta":86422350},{"NoteNumber":48,"Velocity":54,"Duration":234392,"SoundDuration":234392,"Delta":86640342},{"NoteNumber":36,"Velocity":45,"Duration":234392,"SoundDuration":234392,"Delta":86640342},{"NoteNumber":86,"Velocity":89,"Duration":1760333,"SoundDuration":1760333,"Delta":86874735},{"NoteNumber":80,"Velocity":77,"Duration":1760333,"SoundDuration":1760333,"Delta":86874735},{"NoteNumber":77,"Velocity":69,"Duration":1760333,"SoundDuration":1760333,"Delta":86874735},{"NoteNumber":74,"Velocity":69,"Duration":1760333,"SoundDuration":1760333,"Delta":86874735},{"NoteNumber":38,"Velocity":58,"Duration":163493,"SoundDuration":163493,"Delta":86874735},{"NoteNumber":41,"Velocity":58,"Duration":108995,"SoundDuration":108995,"Delta":86874735},{"NoteNumber":44,"Velocity":58,"Duration":163493,"SoundDuration":163493,"Delta":86874735},{"NoteNumber":35,"Velocity":58,"Duration":163493,"SoundDuration":163493,"Delta":86874735},{"NoteNumber":47,"Velocity":58,"Duration":163493,"SoundDuration":163493,"Delta":86874735},{"NoteNumber":51,"Velocity":59,"Duration":236157,"SoundDuration":236157,"Delta":87092726},{"NoteNumber":39,"Velocity":50,"Duration":236157,"SoundDuration":236157,"Delta":87092726},{"NoteNumber":50,"Velocity":58,"Duration":236157,"SoundDuration":236157,"Delta":87310718},{"NoteNumber":38,"Velocity":49,"Duration":236157,"SoundDuration":236157,"Delta":87310718},{"NoteNumber":48,"Velocity":56,"Duration":217991,"SoundDuration":217991,"Delta":87528709},{"NoteNumber":36,"Velocity":47,"Duration":217991,"SoundDuration":217991,"Delta":87528709},{"NoteNumber":47,"Velocity":61,"Duration":217991,"SoundDuration":217991,"Delta":87746701},{"NoteNumber":35,"Velocity":51,"Duration":217991,"SoundDuration":217991,"Delta":87746701},{"NoteNumber":48,"Velocity":55,"Duration":217991,"SoundDuration":217991,"Delta":87964692},{"NoteNumber":36,"Velocity":46,"Duration":217991,"SoundDuration":217991,"Delta":87964692},{"NoteNumber":47,"Velocity":59,"Duration":217991,"SoundDuration":217991,"Delta":88182684},{"NoteNumber":35,"Velocity":50,"Duration":217991,"SoundDuration":217991,"Delta":88182684},{"NoteNumber":36,"Velocity":55,"Duration":150794,"SoundDuration":150794,"Delta":88400675},{"NoteNumber":48,"Velocity":55,"Duration":150794,"SoundDuration":150794,"Delta":88400675},{"NoteNumber":35,"Velocity":53,"Duration":298467,"SoundDuration":298467,"Delta":88551470},{"NoteNumber":38,"Velocity":54,"Duration":277567,"SoundDuration":277567,"Delta":88572369},{"NoteNumber":41,"Velocity":55,"Duration":256668,"SoundDuration":256668,"Delta":88593269},{"NoteNumber":44,"Velocity":57,"Duration":235768,"SoundDuration":235768,"Delta":88614168},{"NoteNumber":86,"Velocity":89,"Duration":877438,"SoundDuration":877438,"Delta":88635068},{"NoteNumber":80,"Velocity":76,"Duration":877438,"SoundDuration":877438,"Delta":88635068},{"NoteNumber":77,"Velocity":70,"Duration":877438,"SoundDuration":877438,"Delta":88635068},{"NoteNumber":74,"Velocity":70,"Duration":877438,"SoundDuration":877438,"Delta":88635068},{"NoteNumber":47,"Velocity":59,"Duration":214868,"SoundDuration":214868,"Delta":88635068},{"NoteNumber":52,"Velocity":56,"Duration":232774,"SoundDuration":232774,"Delta":88849937},{"NoteNumber":40,"Velocity":47,"Duration":232774,"SoundDuration":232774,"Delta":88849937},{"NoteNumber":50,"Velocity":58,"Duration":232774,"SoundDuration":232774,"Delta":89064806},{"NoteNumber":38,"Velocity":49,"Duration":232774,"SoundDuration":232774,"Delta":89064806},{"NoteNumber":48,"Velocity":57,"Duration":149233,"SoundDuration":149233,"Delta":89279675},{"NoteNumber":36,"Velocity":48,"Duration":149233,"SoundDuration":149233,"Delta":89279675},{"NoteNumber":35,"Velocity":52,"Duration":298467,"SoundDuration":298467,"Delta":89428909},{"NoteNumber":38,"Velocity":54,"Duration":277567,"SoundDuration":277567,"Delta":89449808},{"NoteNumber":41,"Velocity":58,"Duration":256668,"SoundDuration":256668,"Delta":89470708},{"NoteNumber":44,"Velocity":62,"Duration":235768,"SoundDuration":235768,"Delta":89491607},{"NoteNumber":86,"Velocity":89,"Duration":859476,"SoundDuration":859476,"Delta":89512507},{"NoteNumber":80,"Velocity":74,"Duration":859476,"SoundDuration":859476,"Delta":89512507},{"NoteNumber":77,"Velocity":69,"Duration":859476,"SoundDuration":859476,"Delta":89512507},{"NoteNumber":74,"Velocity":69,"Duration":859476,"SoundDuration":859476,"Delta":89512507},{"NoteNumber":47,"Velocity":65,"Duration":214868,"SoundDuration":214868,"Delta":89512507},{"NoteNumber":48,"Velocity":58,"Duration":214869,"SoundDuration":214869,"Delta":89727376},{"NoteNumber":36,"Velocity":49,"Duration":214869,"SoundDuration":214869,"Delta":89727376},{"NoteNumber":50,"Velocity":61,"Duration":214868,"SoundDuration":214868,"Delta":89942245},{"NoteNumber":38,"Velocity":51,"Duration":214868,"SoundDuration":214868,"Delta":89942245},{"NoteNumber":52,"Velocity":58,"Duration":214869,"SoundDuration":214869,"Delta":90157114},{"NoteNumber":40,"Velocity":49,"Duration":214869,"SoundDuration":214869,"Delta":90157114},{"NoteNumber":53,"Velocity":58,"Duration":211834,"SoundDuration":211834,"Delta":90371983},{"NoteNumber":41,"Velocity":49,"Duration":211834,"SoundDuration":211834,"Delta":90371983},{"NoteNumber":56,"Velocity":61,"Duration":211834,"SoundDuration":211834,"Delta":90583817},{"NoteNumber":44,"Velocity":51,"Duration":211834,"SoundDuration":211834,"Delta":90583817},{"NoteNumber":57,"Velocity":63,"Duration":211834,"SoundDuration":211834,"Delta":90795652},{"NoteNumber":45,"Velocity":54,"Duration":211834,"SoundDuration":211834,"Delta":90795652},{"NoteNumber":47,"Velocity":66,"Duration":225324,"SoundDuration":225324,"Delta":91007486},{"NoteNumber":59,"Velocity":66,"Duration":225324,"SoundDuration":225324,"Delta":91007486},{"NoteNumber":59,"Velocity":68,"Duration":214868,"SoundDuration":214868,"Delta":91232811},{"NoteNumber":47,"Velocity":57,"Duration":214868,"SoundDuration":214868,"Delta":91232811},{"NoteNumber":57,"Velocity":67,"Duration":214869,"SoundDuration":214869,"Delta":91447680},{"NoteNumber":45,"Velocity":56,"Duration":214869,"SoundDuration":214869,"Delta":91447680},{"NoteNumber":56,"Velocity":66,"Duration":214868,"SoundDuration":214868,"Delta":91662549},{"NoteNumber":44,"Velocity":55,"Duration":214868,"SoundDuration":214868,"Delta":91662549},{"NoteNumber":53,"Velocity":64,"Duration":214869,"SoundDuration":214869,"Delta":91877418},{"NoteNumber":41,"Velocity":54,"Duration":214869,"SoundDuration":214869,"Delta":91877418},{"NoteNumber":52,"Velocity":63,"Duration":211910,"SoundDuration":211910,"Delta":92092287},{"NoteNumber":40,"Velocity":54,"Duration":211910,"SoundDuration":211910,"Delta":92092287},{"NoteNumber":50,"Velocity":63,"Duration":213933,"SoundDuration":213933,"Delta":92304197},{"NoteNumber":38,"Velocity":53,"Duration":213933,"SoundDuration":213933,"Delta":92304197},{"NoteNumber":48,"Velocity":61,"Duration":216170,"SoundDuration":216170,"Delta":92518131},{"NoteNumber":36,"Velocity":51,"Duration":216170,"SoundDuration":216170,"Delta":92518131},{"NoteNumber":47,"Velocity":60,"Duration":145327,"SoundDuration":145327,"Delta":92734301},{"NoteNumber":35,"Velocity":50,"Duration":145327,"SoundDuration":145327,"Delta":92734301},{"NoteNumber":37,"Velocity":52,"Duration":294298,"SoundDuration":294298,"Delta":92879629},{"NoteNumber":40,"Velocity":54,"Duration":276132,"SoundDuration":276132,"Delta":92897795},{"NoteNumber":43,"Velocity":58,"Duration":257966,"SoundDuration":257966,"Delta":92915960},{"NoteNumber":45,"Velocity":62,"Duration":239640,"SoundDuration":239640,"Delta":92934287},{"NoteNumber":81,"Velocity":89,"Duration":884824,"SoundDuration":884824,"Delta":92952721},{"NoteNumber":79,"Velocity":77,"Duration":884824,"SoundDuration":884824,"Delta":92952721},{"NoteNumber":76,"Velocity":69,"Duration":884824,"SoundDuration":884824,"Delta":92952721},{"NoteNumber":69,"Velocity":69,"Duration":884824,"SoundDuration":884824,"Delta":92952721},{"NoteNumber":49,"Velocity":65,"Duration":221206,"SoundDuration":221206,"Delta":92952721},{"NoteNumber":50,"Velocity":58,"Duration":221206,"SoundDuration":221206,"Delta":93173927},{"NoteNumber":38,"Velocity":49,"Duration":221206,"SoundDuration":221206,"Delta":93173927},{"NoteNumber":49,"Velocity":58,"Duration":221206,"SoundDuration":221206,"Delta":93395134},{"NoteNumber":37,"Velocity":49,"Duration":221206,"SoundDuration":221206,"Delta":93395134},{"NoteNumber":50,"Velocity":54,"Duration":221206,"SoundDuration":221206,"Delta":93616340},{"NoteNumber":38,"Velocity":45,"Duration":221206,"SoundDuration":221206,"Delta":93616340},{"NoteNumber":81,"Velocity":89,"Duration":1759105,"SoundDuration":1759105,"Delta":93837546},{"NoteNumber":79,"Velocity":77,"Duration":1759105,"SoundDuration":1759105,"Delta":93837546},{"NoteNumber":76,"Velocity":69,"Duration":1759105,"SoundDuration":1759105,"Delta":93837546},{"NoteNumber":69,"Velocity":69,"Duration":1759105,"SoundDuration":1759105,"Delta":93837546},{"NoteNumber":40,"Velocity":58,"Duration":176304,"SoundDuration":176304,"Delta":93837546},{"NoteNumber":43,"Velocity":58,"Duration":117536,"SoundDuration":117536,"Delta":93837546},{"NoteNumber":45,"Velocity":58,"Duration":176304,"SoundDuration":176304,"Delta":93837546},{"NoteNumber":37,"Velocity":58,"Duration":176304,"SoundDuration":176304,"Delta":93837546},{"NoteNumber":49,"Velocity":58,"Duration":176304,"SoundDuration":176304,"Delta":93837546},{"NoteNumber":53,"Velocity":59,"Duration":221390,"SoundDuration":221390,"Delta":94072619},{"NoteNumber":41,"Velocity":50,"Duration":221390,"SoundDuration":221390,"Delta":94072619},{"NoteNumber":52,"Velocity":58,"Duration":236157,"SoundDuration":236157,"Delta":94275843},{"NoteNumber":40,"Velocity":49,"Duration":236157,"SoundDuration":236157,"Delta":94275843},{"NoteNumber":50,"Velocity":56,"Duration":217991,"SoundDuration":217991,"Delta":94493835},{"NoteNumber":38,"Velocity":47,"Duration":217991,"SoundDuration":217991,"Delta":94493835},{"NoteNumber":49,"Velocity":61,"Duration":221206,"SoundDuration":221206,"Delta":94711826},{"NoteNumber":37,"Velocity":51,"Duration":221206,"SoundDuration":221206,"Delta":94711826},{"NoteNumber":50,"Velocity":55,"Duration":221206,"SoundDuration":221206,"Delta":94933033},{"NoteNumber":38,"Velocity":46,"Duration":221206,"SoundDuration":221206,"Delta":94933033},{"NoteNumber":49,"Velocity":59,"Duration":221206,"SoundDuration":221206,"Delta":95154239},{"NoteNumber":37,"Velocity":50,"Duration":221206,"SoundDuration":221206,"Delta":95154239},{"NoteNumber":38,"Velocity":55,"Duration":147470,"SoundDuration":147470,"Delta":95375445},{"NoteNumber":50,"Velocity":55,"Duration":147470,"SoundDuration":147470,"Delta":95375445},{"NoteNumber":37,"Velocity":53,"Duration":294941,"SoundDuration":294941,"Delta":95522916},{"NoteNumber":40,"Velocity":54,"Duration":276507,"SoundDuration":276507,"Delta":95541350},{"NoteNumber":43,"Velocity":55,"Duration":258073,"SoundDuration":258073,"Delta":95559784},{"NoteNumber":45,"Velocity":57,"Duration":239640,"SoundDuration":239640,"Delta":95578217},{"NoteNumber":81,"Velocity":89,"Duration":884824,"SoundDuration":884824,"Delta":95596651},{"NoteNumber":79,"Velocity":76,"Duration":884824,"SoundDuration":884824,"Delta":95596651},{"NoteNumber":76,"Velocity":70,"Duration":884824,"SoundDuration":884824,"Delta":95596651},{"NoteNumber":69,"Velocity":70,"Duration":884824,"SoundDuration":884824,"Delta":95596651},{"NoteNumber":49,"Velocity":59,"Duration":221206,"SoundDuration":221206,"Delta":95596651},{"NoteNumber":53,"Velocity":56,"Duration":239640,"SoundDuration":239640,"Delta":95817858},{"NoteNumber":41,"Velocity":47,"Duration":239640,"SoundDuration":239640,"Delta":95817858},{"NoteNumber":52,"Velocity":58,"Duration":239640,"SoundDuration":239640,"Delta":96039064},{"NoteNumber":40,"Velocity":49,"Duration":239640,"SoundDuration":239640,"Delta":96039064},{"NoteNumber":50,"Velocity":57,"Duration":221206,"SoundDuration":221206,"Delta":96260270},{"NoteNumber":38,"Velocity":48,"Duration":221206,"SoundDuration":221206,"Delta":96260270},{"NoteNumber":79,"Velocity":43,"Duration":1333181,"SoundDuration":1333181,"Delta":96481476},{"NoteNumber":81,"Velocity":43,"Duration":1333181,"SoundDuration":1333181,"Delta":96481476},{"NoteNumber":76,"Velocity":43,"Duration":1333181,"SoundDuration":1333181,"Delta":96481476},{"NoteNumber":69,"Velocity":43,"Duration":1333181,"SoundDuration":1333181,"Delta":96481476},{"NoteNumber":37,"Velocity":36,"Duration":224517,"SoundDuration":224517,"Delta":96481476},{"NoteNumber":49,"Velocity":36,"Duration":224517,"SoundDuration":224517,"Delta":96481476},{"NoteNumber":50,"Velocity":35,"Duration":224517,"SoundDuration":224517,"Delta":96705994},{"NoteNumber":38,"Velocity":35,"Duration":224517,"SoundDuration":224517,"Delta":96705994},{"NoteNumber":52,"Velocity":37,"Duration":224517,"SoundDuration":224517,"Delta":96930511},{"NoteNumber":40,"Velocity":37,"Duration":224517,"SoundDuration":224517,"Delta":96930511},{"NoteNumber":53,"Velocity":35,"Duration":223647,"SoundDuration":223647,"Delta":97155028},{"NoteNumber":41,"Velocity":35,"Duration":223647,"SoundDuration":223647,"Delta":97155028},{"NoteNumber":55,"Velocity":37,"Duration":217991,"SoundDuration":217991,"Delta":97378675},{"NoteNumber":43,"Velocity":37,"Duration":217991,"SoundDuration":217991,"Delta":97378675},{"NoteNumber":57,"Velocity":39,"Duration":214358,"SoundDuration":214358,"Delta":97596667},{"NoteNumber":45,"Velocity":39,"Duration":217991,"SoundDuration":217991,"Delta":97596667},{"NoteNumber":57,"Velocity":39,"Duration":459755,"SoundDuration":459755,"Delta":97814658},{"NoteNumber":64,"Velocity":39,"Duration":459755,"SoundDuration":459755,"Delta":97814658},{"NoteNumber":67,"Velocity":39,"Duration":459755,"SoundDuration":459755,"Delta":97814658},{"NoteNumber":69,"Velocity":39,"Duration":459755,"SoundDuration":459755,"Delta":97814658},{"NoteNumber":58,"Velocity":42,"Duration":217991,"SoundDuration":217991,"Delta":97814658},{"NoteNumber":46,"Velocity":42,"Duration":217991,"SoundDuration":217991,"Delta":97814658},{"NoteNumber":49,"Velocity":45,"Duration":241764,"SoundDuration":241764,"Delta":98032650},{"NoteNumber":61,"Velocity":45,"Duration":241764,"SoundDuration":241764,"Delta":98032650},{"NoteNumber":57,"Velocity":40,"Duration":659028,"SoundDuration":659028,"Delta":98274414},{"NoteNumber":64,"Velocity":40,"Duration":1249125,"SoundDuration":1249125,"Delta":98274414},{"NoteNumber":67,"Velocity":40,"Duration":1249125,"SoundDuration":1249125,"Delta":98274414},{"NoteNumber":69,"Velocity":40,"Duration":832459,"SoundDuration":832459,"Delta":98274414},{"NoteNumber":61,"Velocity":46,"Duration":223880,"SoundDuration":223880,"Delta":98274414},{"NoteNumber":49,"Velocity":46,"Duration":223880,"SoundDuration":223880,"Delta":98274414},{"NoteNumber":58,"Velocity":47,"Duration":223880,"SoundDuration":223880,"Delta":98498294},{"NoteNumber":46,"Velocity":47,"Duration":223880,"SoundDuration":223880,"Delta":98498294},{"NoteNumber":57,"Velocity":47,"Duration":801364,"SoundDuration":801364,"Delta":98722175},{"NoteNumber":45,"Velocity":47,"Duration":211267,"SoundDuration":211267,"Delta":98722175},{"NoteNumber":55,"Velocity":47,"Duration":173430,"SoundDuration":173430,"Delta":98933442},{"NoteNumber":43,"Velocity":47,"Duration":173430,"SoundDuration":173430,"Delta":98933442},{"NoteNumber":69,"Velocity":49,"Duration":503381,"SoundDuration":503381,"Delta":99020157},{"NoteNumber":81,"Velocity":54,"Duration":86715,"SoundDuration":86715,"Delta":99020157},{"NoteNumber":69,"Velocity":54,"Duration":416666,"SoundDuration":416666,"Delta":99106873},{"NoteNumber":81,"Velocity":54,"Duration":870023,"SoundDuration":870023,"Delta":99106873},{"NoteNumber":53,"Velocity":46,"Duration":208333,"SoundDuration":208333,"Delta":99106873},{"NoteNumber":41,"Velocity":46,"Duration":208333,"SoundDuration":208333,"Delta":99106873},{"NoteNumber":52,"Velocity":46,"Duration":208333,"SoundDuration":208333,"Delta":99315206},{"NoteNumber":40,"Velocity":46,"Duration":208333,"SoundDuration":208333,"Delta":99315206},{"NoteNumber":57,"Velocity":45,"Duration":453357,"SoundDuration":453357,"Delta":99523539},{"NoteNumber":64,"Velocity":45,"Duration":453357,"SoundDuration":453357,"Delta":99523539},{"NoteNumber":67,"Velocity":45,"Duration":453357,"SoundDuration":453357,"Delta":99523539},{"NoteNumber":69,"Velocity":45,"Duration":453357,"SoundDuration":453357,"Delta":99523539},{"NoteNumber":50,"Velocity":46,"Duration":223880,"SoundDuration":223880,"Delta":99523539},{"NoteNumber":38,"Velocity":46,"Duration":223880,"SoundDuration":223880,"Delta":99523539},{"NoteNumber":49,"Velocity":45,"Duration":229476,"SoundDuration":229476,"Delta":99747420},{"NoteNumber":37,"Velocity":45,"Duration":229476,"SoundDuration":229476,"Delta":99747420},{"NoteNumber":70,"Velocity":60,"Duration":1225548,"SoundDuration":1225548,"Delta":99976896},{"NoteNumber":69,"Velocity":47,"Duration":1225548,"SoundDuration":1225548,"Delta":99976896},{"NoteNumber":65,"Velocity":47,"Duration":1225548,"SoundDuration":1225548,"Delta":99976896},{"NoteNumber":58,"Velocity":47,"Duration":1222123,"SoundDuration":1222123,"Delta":99976896},{"NoteNumber":38,"Velocity":53,"Duration":214868,"SoundDuration":214868,"Delta":99976896},{"NoteNumber":50,"Velocity":53,"Duration":214868,"SoundDuration":214868,"Delta":99976896},{"NoteNumber":52,"Velocity":51,"Duration":214869,"SoundDuration":214869,"Delta":100191765},{"NoteNumber":40,"Velocity":51,"Duration":214869,"SoundDuration":214869,"Delta":100191765},{"NoteNumber":53,"Velocity":53,"Duration":205479,"SoundDuration":205479,"Delta":100406634},{"NoteNumber":41,"Velocity":53,"Duration":205479,"SoundDuration":205479,"Delta":100406634},{"NoteNumber":55,"Velocity":47,"Duration":179371,"SoundDuration":179371,"Delta":100612114},{"NoteNumber":43,"Velocity":47,"Duration":179371,"SoundDuration":179371,"Delta":100612114},{"NoteNumber":81,"Velocity":60,"Duration":92656,"SoundDuration":92656,"Delta":100698829},{"NoteNumber":93,"Velocity":66,"Duration":92656,"SoundDuration":92656,"Delta":100698829},{"NoteNumber":81,"Velocity":66,"Duration":845405,"SoundDuration":845405,"Delta":100791486},{"NoteNumber":93,"Velocity":66,"Duration":845405,"SoundDuration":845405,"Delta":100791486},{"NoteNumber":57,"Velocity":51,"Duration":205479,"SoundDuration":205479,"Delta":100791486},{"NoteNumber":45,"Velocity":51,"Duration":205479,"SoundDuration":205479,"Delta":100791486},{"NoteNumber":58,"Velocity":53,"Duration":205479,"SoundDuration":205479,"Delta":100996965},{"NoteNumber":46,"Velocity":53,"Duration":205479,"SoundDuration":205479,"Delta":100996965},{"NoteNumber":69,"Velocity":51,"Duration":434446,"SoundDuration":434446,"Delta":101202445},{"NoteNumber":58,"Velocity":51,"Duration":434446,"SoundDuration":434446,"Delta":101202445},{"NoteNumber":65,"Velocity":51,"Duration":434446,"SoundDuration":434446,"Delta":101202445},{"NoteNumber":70,"Velocity":51,"Duration":434446,"SoundDuration":434446,"Delta":101202445},{"NoteNumber":61,"Velocity":54,"Duration":217391,"SoundDuration":217391,"Delta":101202445},{"NoteNumber":49,"Velocity":54,"Duration":217391,"SoundDuration":217391,"Delta":101202445},{"NoteNumber":50,"Velocity":56,"Duration":217054,"SoundDuration":217054,"Delta":101419836},{"NoteNumber":62,"Velocity":56,"Duration":217054,"SoundDuration":217054,"Delta":101419836},{"NoteNumber":69,"Velocity":51,"Duration":790756,"SoundDuration":790756,"Delta":101636891},{"NoteNumber":59,"Velocity":51,"Duration":617326,"SoundDuration":617326,"Delta":101636891},{"NoteNumber":66,"Velocity":51,"Duration":1196162,"SoundDuration":1196162,"Delta":101636891},{"NoteNumber":71,"Velocity":51,"Duration":1196162,"SoundDuration":1196162,"Delta":101636891},{"NoteNumber":63,"Velocity":59,"Duration":214868,"SoundDuration":214868,"Delta":101636891},{"NoteNumber":51,"Velocity":59,"Duration":214868,"SoundDuration":214868,"Delta":101636891},{"NoteNumber":60,"Velocity":57,"Duration":214869,"SoundDuration":214869,"Delta":101851760},{"NoteNumber":48,"Velocity":57,"Duration":214869,"SoundDuration":214869,"Delta":101851760},{"NoteNumber":59,"Velocity":56,"Duration":766424,"SoundDuration":766424,"Delta":102066629},{"NoteNumber":47,"Velocity":56,"Duration":187588,"SoundDuration":187588,"Delta":102066629},{"NoteNumber":57,"Velocity":55,"Duration":173430,"SoundDuration":173430,"Delta":102254217},{"NoteNumber":45,"Velocity":55,"Duration":173430,"SoundDuration":173430,"Delta":102254217},{"NoteNumber":69,"Velocity":57,"Duration":492120,"SoundDuration":492120,"Delta":102340933},{"NoteNumber":81,"Velocity":63,"Duration":86715,"SoundDuration":86715,"Delta":102340933},{"NoteNumber":69,"Velocity":63,"Duration":405405,"SoundDuration":405405,"Delta":102427648},{"NoteNumber":81,"Velocity":63,"Duration":839843,"SoundDuration":839843,"Delta":102427648},{"NoteNumber":55,"Velocity":54,"Duration":202702,"SoundDuration":202702,"Delta":102427648},{"NoteNumber":43,"Velocity":54,"Duration":202702,"SoundDuration":202702,"Delta":102427648},{"NoteNumber":54,"Velocity":53,"Duration":202702,"SoundDuration":202702,"Delta":102630351},{"NoteNumber":42,"Velocity":53,"Duration":202702,"SoundDuration":202702,"Delta":102630351},{"NoteNumber":59,"Velocity":51,"Duration":434437,"SoundDuration":434437,"Delta":102833053},{"NoteNumber":66,"Velocity":51,"Duration":434437,"SoundDuration":434437,"Delta":102833053},{"NoteNumber":69,"Velocity":51,"Duration":434437,"SoundDuration":434437,"Delta":102833053},{"NoteNumber":71,"Velocity":51,"Duration":434437,"SoundDuration":434437,"Delta":102833053},{"NoteNumber":52,"Velocity":52,"Duration":211267,"SoundDuration":211267,"Delta":102833053},{"NoteNumber":40,"Velocity":52,"Duration":211267,"SoundDuration":211267,"Delta":102833053},{"NoteNumber":51,"Velocity":50,"Duration":223170,"SoundDuration":223170,"Delta":103044321},{"NoteNumber":39,"Velocity":50,"Duration":223170,"SoundDuration":223170,"Delta":103044321},{"NoteNumber":72,"Velocity":65,"Duration":1232114,"SoundDuration":1232114,"Delta":103267491},{"NoteNumber":69,"Velocity":52,"Duration":1232114,"SoundDuration":1232114,"Delta":103267491},{"NoteNumber":60,"Velocity":52,"Duration":1228690,"SoundDuration":1228690,"Delta":103267491},{"NoteNumber":40,"Velocity":58,"Duration":211834,"SoundDuration":211834,"Delta":103267491},{"NoteNumber":52,"Velocity":58,"Duration":211834,"SoundDuration":211834,"Delta":103267491},{"NoteNumber":54,"Velocity":56,"Duration":211834,"SoundDuration":211834,"Delta":103479326},{"NoteNumber":42,"Velocity":56,"Duration":211834,"SoundDuration":211834,"Delta":103479326},{"NoteNumber":56,"Velocity":58,"Duration":197368,"SoundDuration":197368,"Delta":103691160},{"NoteNumber":44,"Velocity":58,"Duration":197368,"SoundDuration":197368,"Delta":103691160},{"NoteNumber":57,"Velocity":53,"Duration":200118,"SoundDuration":200118,"Delta":103888529},{"NoteNumber":45,"Velocity":53,"Duration":200118,"SoundDuration":200118,"Delta":103888529},{"NoteNumber":81,"Velocity":66,"Duration":101433,"SoundDuration":101433,"Delta":103987213},{"NoteNumber":93,"Velocity":73,"Duration":101433,"SoundDuration":101433,"Delta":103987213},{"NoteNumber":81,"Velocity":73,"Duration":845405,"SoundDuration":845405,"Delta":104088647},{"NoteNumber":93,"Velocity":73,"Duration":845405,"SoundDuration":845405,"Delta":104088647},{"NoteNumber":59,"Velocity":56,"Duration":205479,"SoundDuration":205479,"Delta":104088647},{"NoteNumber":47,"Velocity":56,"Duration":205479,"SoundDuration":205479,"Delta":104088647},{"NoteNumber":60,"Velocity":58,"Duration":205479,"SoundDuration":205479,"Delta":104294126},{"NoteNumber":48,"Velocity":58,"Duration":205479,"SoundDuration":205479,"Delta":104294126},{"NoteNumber":69,"Velocity":56,"Duration":434446,"SoundDuration":434446,"Delta":104499606},{"NoteNumber":60,"Velocity":56,"Duration":434446,"SoundDuration":434446,"Delta":104499606},{"NoteNumber":72,"Velocity":56,"Duration":434446,"SoundDuration":434446,"Delta":104499606},{"NoteNumber":62,"Velocity":61,"Duration":217391,"SoundDuration":217391,"Delta":104499606},{"NoteNumber":50,"Velocity":61,"Duration":217391,"SoundDuration":217391,"Delta":104499606},{"NoteNumber":52,"Velocity":63,"Duration":217054,"SoundDuration":217054,"Delta":104716997},{"NoteNumber":64,"Velocity":63,"Duration":217054,"SoundDuration":217054,"Delta":104716997},{"NoteNumber":67,"Velocity":56,"Duration":1265924,"SoundDuration":1265924,"Delta":104934052},{"NoteNumber":69,"Velocity":56,"Duration":836186,"SoundDuration":836186,"Delta":104934052},{"NoteNumber":61,"Velocity":56,"Duration":632962,"SoundDuration":632962,"Delta":104934052},{"NoteNumber":73,"Velocity":56,"Duration":1265924,"SoundDuration":1265924,"Delta":104934052},{"NoteNumber":64,"Velocity":65,"Duration":214868,"SoundDuration":214868,"Delta":104934052},{"NoteNumber":52,"Velocity":65,"Duration":214868,"SoundDuration":214868,"Delta":104934052},{"NoteNumber":62,"Velocity":63,"Duration":214869,"SoundDuration":214869,"Delta":105148921},{"NoteNumber":50,"Velocity":63,"Duration":214869,"SoundDuration":214869,"Delta":105148921},{"NoteNumber":61,"Velocity":63,"Duration":836186,"SoundDuration":836186,"Delta":105363790},{"NoteNumber":49,"Velocity":63,"Duration":203224,"SoundDuration":203224,"Delta":105363790},{"NoteNumber":58,"Velocity":62,"Duration":203224,"SoundDuration":203224,"Delta":105567015},{"NoteNumber":46,"Velocity":62,"Duration":203224,"SoundDuration":203224,"Delta":105567015},{"NoteNumber":69,"Velocity":63,"Duration":531350,"SoundDuration":531350,"Delta":105668627},{"NoteNumber":81,"Velocity":71,"Duration":101612,"SoundDuration":101612,"Delta":105668627},{"NoteNumber":69,"Velocity":71,"Duration":429738,"SoundDuration":429738,"Delta":105770239},{"NoteNumber":81,"Velocity":71,"Duration":982284,"SoundDuration":982284,"Delta":105770239},{"NoteNumber":57,"Velocity":60,"Duration":214868,"SoundDuration":214868,"Delta":105770239},{"NoteNumber":45,"Velocity":60,"Duration":214868,"SoundDuration":214868,"Delta":105770239},{"NoteNumber":55,"Velocity":58,"Duration":214869,"SoundDuration":214869,"Delta":105985108},{"NoteNumber":43,"Velocity":58,"Duration":214869,"SoundDuration":214869,"Delta":105985108},{"NoteNumber":61,"Velocity":56,"Duration":552546,"SoundDuration":552546,"Delta":106199977},{"NoteNumber":67,"Velocity":56,"Duration":552546,"SoundDuration":552546,"Delta":106199977},{"NoteNumber":69,"Velocity":56,"Duration":552546,"SoundDuration":552546,"Delta":106199977},{"NoteNumber":73,"Velocity":56,"Duration":552546,"SoundDuration":552546,"Delta":106199977},{"NoteNumber":53,"Velocity":57,"Duration":214868,"SoundDuration":214868,"Delta":106199977},{"NoteNumber":41,"Velocity":57,"Duration":214868,"SoundDuration":214868,"Delta":106199977},{"NoteNumber":52,"Velocity":55,"Duration":337677,"SoundDuration":337677,"Delta":106414846},{"NoteNumber":40,"Velocity":55,"Duration":337677,"SoundDuration":337677,"Delta":106414846},{"NoteNumber":74,"Velocity":36,"Duration":230628,"SoundDuration":230628,"Delta":106752523},{"NoteNumber":62,"Velocity":31,"Duration":230628,"SoundDuration":230628,"Delta":106752523},{"NoteNumber":70,"Velocity":31,"Duration":230628,"SoundDuration":230628,"Delta":106752523},{"NoteNumber":53,"Velocity":38,"Duration":1734500,"SoundDuration":1734500,"Delta":106752523},{"NoteNumber":41,"Velocity":32,"Duration":453583,"SoundDuration":453583,"Delta":106752523},{"NoteNumber":46,"Velocity":32,"Duration":1734500,"SoundDuration":1734500,"Delta":106752523},{"NoteNumber":50,"Velocity":32,"Duration":1734500,"SoundDuration":1734500,"Delta":106752523},{"NoteNumber":75,"Velocity":38,"Duration":226707,"SoundDuration":226707,"Delta":106983152},{"NoteNumber":63,"Velocity":32,"Duration":226707,"SoundDuration":226707,"Delta":106983152},{"NoteNumber":72,"Velocity":32,"Duration":226707,"SoundDuration":226707,"Delta":106983152},{"NoteNumber":77,"Velocity":40,"Duration":222915,"SoundDuration":222915,"Delta":107209860},{"NoteNumber":65,"Velocity":34,"Duration":222915,"SoundDuration":222915,"Delta":107209860},{"NoteNumber":74,"Velocity":34,"Duration":222915,"SoundDuration":222915,"Delta":107209860},{"NoteNumber":38,"Velocity":28,"Duration":56297,"SoundDuration":56297,"Delta":107209860},{"NoteNumber":29,"Velocity":24,"Duration":56297,"SoundDuration":56297,"Delta":107209860},{"NoteNumber":34,"Velocity":24,"Duration":56297,"SoundDuration":56297,"Delta":107209860},{"NoteNumber":41,"Velocity":28,"Duration":55687,"SoundDuration":55687,"Delta":107266157},{"NoteNumber":38,"Velocity":29,"Duration":55465,"SoundDuration":55465,"Delta":107321845},{"NoteNumber":29,"Velocity":24,"Duration":55465,"SoundDuration":55465,"Delta":107321845},{"NoteNumber":34,"Velocity":24,"Duration":55465,"SoundDuration":55465,"Delta":107321845},{"NoteNumber":41,"Velocity":29,"Duration":55465,"SoundDuration":55465,"Delta":107377310},{"NoteNumber":75,"Velocity":44,"Duration":219063,"SoundDuration":219063,"Delta":107432775},{"NoteNumber":79,"Velocity":44,"Duration":219063,"SoundDuration":219063,"Delta":107432775},{"NoteNumber":67,"Velocity":36,"Duration":219063,"SoundDuration":219063,"Delta":107432775},{"NoteNumber":38,"Velocity":29,"Duration":55276,"SoundDuration":55276,"Delta":107432775},{"NoteNumber":29,"Velocity":25,"Duration":55276,"SoundDuration":55276,"Delta":107432775},{"NoteNumber":34,"Velocity":25,"Duration":55276,"SoundDuration":55276,"Delta":107432775},{"NoteNumber":41,"Velocity":29,"Duration":54656,"SoundDuration":54656,"Delta":107488052},{"NoteNumber":38,"Velocity":30,"Duration":54656,"SoundDuration":54656,"Delta":107542708},{"NoteNumber":29,"Velocity":25,"Duration":54656,"SoundDuration":54656,"Delta":107542708},{"NoteNumber":34,"Velocity":25,"Duration":54656,"SoundDuration":54656,"Delta":107542708},{"NoteNumber":41,"Velocity":30,"Duration":54473,"SoundDuration":54473,"Delta":107597365},{"NoteNumber":81,"Velocity":45,"Duration":215486,"SoundDuration":215486,"Delta":107651839},{"NoteNumber":69,"Velocity":38,"Duration":215486,"SoundDuration":215486,"Delta":107651839},{"NoteNumber":77,"Velocity":38,"Duration":215486,"SoundDuration":215486,"Delta":107651839},{"NoteNumber":38,"Velocity":30,"Duration":53871,"SoundDuration":53871,"Delta":107651839},{"NoteNumber":29,"Velocity":26,"Duration":53871,"SoundDuration":53871,"Delta":107651839},{"NoteNumber":34,"Velocity":26,"Duration":53871,"SoundDuration":53871,"Delta":107651839},{"NoteNumber":41,"Velocity":30,"Duration":53871,"SoundDuration":53871,"Delta":107705710},{"NoteNumber":38,"Velocity":31,"Duration":53871,"SoundDuration":53871,"Delta":107759582},{"NoteNumber":29,"Velocity":26,"Duration":53871,"SoundDuration":53871,"Delta":107759582},{"NoteNumber":34,"Velocity":26,"Duration":53871,"SoundDuration":53871,"Delta":107759582},{"NoteNumber":41,"Velocity":32,"Duration":53871,"SoundDuration":53871,"Delta":107813453},{"NoteNumber":82,"Velocity":48,"Duration":215486,"SoundDuration":215486,"Delta":107867325},{"NoteNumber":70,"Velocity":41,"Duration":215486,"SoundDuration":215486,"Delta":107867325},{"NoteNumber":79,"Velocity":41,"Duration":215486,"SoundDuration":215486,"Delta":107867325},{"NoteNumber":38,"Velocity":32,"Duration":53871,"SoundDuration":53871,"Delta":107867325},{"NoteNumber":29,"Velocity":27,"Duration":53871,"SoundDuration":53871,"Delta":107867325},{"NoteNumber":34,"Velocity":27,"Duration":53871,"SoundDuration":53871,"Delta":107867325},{"NoteNumber":41,"Velocity":33,"Duration":53871,"SoundDuration":53871,"Delta":107921196},{"NoteNumber":38,"Velocity":33,"Duration":53871,"SoundDuration":53871,"Delta":107975068},{"NoteNumber":29,"Velocity":27,"Duration":53871,"SoundDuration":53871,"Delta":107975068},{"NoteNumber":34,"Velocity":27,"Duration":53871,"SoundDuration":53871,"Delta":107975068},{"NoteNumber":41,"Velocity":33,"Duration":53871,"SoundDuration":53871,"Delta":108028940},{"NoteNumber":84,"Velocity":51,"Duration":215486,"SoundDuration":215486,"Delta":108082811},{"NoteNumber":72,"Velocity":43,"Duration":215486,"SoundDuration":215486,"Delta":108082811},{"NoteNumber":81,"Velocity":43,"Duration":215486,"SoundDuration":215486,"Delta":108082811},{"NoteNumber":38,"Velocity":33,"Duration":53871,"SoundDuration":53871,"Delta":108082811},{"NoteNumber":29,"Velocity":28,"Duration":53871,"SoundDuration":53871,"Delta":108082811},{"NoteNumber":34,"Velocity":28,"Duration":53871,"SoundDuration":53871,"Delta":108082811},{"NoteNumber":41,"Velocity":34,"Duration":53871,"SoundDuration":53871,"Delta":108136683},{"NoteNumber":38,"Velocity":34,"Duration":53871,"SoundDuration":53871,"Delta":108190554},{"NoteNumber":29,"Velocity":28,"Duration":53871,"SoundDuration":53871,"Delta":108190554},{"NoteNumber":34,"Velocity":28,"Duration":53871,"SoundDuration":53871,"Delta":108190554},{"NoteNumber":41,"Velocity":34,"Duration":53871,"SoundDuration":53871,"Delta":108244426},{"NoteNumber":86,"Velocity":54,"Duration":251635,"SoundDuration":251635,"Delta":108298297},{"NoteNumber":74,"Velocity":45,"Duration":251635,"SoundDuration":251635,"Delta":108298297},{"NoteNumber":82,"Velocity":45,"Duration":251635,"SoundDuration":251635,"Delta":108298297},{"NoteNumber":38,"Velocity":35,"Duration":62908,"SoundDuration":62908,"Delta":108298297},{"NoteNumber":29,"Velocity":29,"Duration":62908,"SoundDuration":62908,"Delta":108298297},{"NoteNumber":34,"Velocity":29,"Duration":62908,"SoundDuration":62908,"Delta":108298297},{"NoteNumber":41,"Velocity":36,"Duration":62908,"SoundDuration":62908,"Delta":108361206},{"NoteNumber":38,"Velocity":36,"Duration":62908,"SoundDuration":62908,"Delta":108424115},{"NoteNumber":29,"Velocity":29,"Duration":62908,"SoundDuration":62908,"Delta":108424115},{"NoteNumber":34,"Velocity":29,"Duration":62908,"SoundDuration":62908,"Delta":108424115},{"NoteNumber":41,"Velocity":51,"Duration":58715,"SoundDuration":58715,"Delta":108487024},{"NoteNumber":41,"Velocity":36,"Duration":486698,"SoundDuration":486698,"Delta":108487024},{"NoteNumber":46,"Velocity":53,"Duration":1777134,"SoundDuration":1777134,"Delta":108507994},{"NoteNumber":50,"Velocity":54,"Duration":1756164,"SoundDuration":1756164,"Delta":108528963},{"NoteNumber":86,"Velocity":56,"Duration":215486,"SoundDuration":215486,"Delta":108549933},{"NoteNumber":74,"Velocity":40,"Duration":215486,"SoundDuration":215486,"Delta":108549933},{"NoteNumber":82,"Velocity":40,"Duration":215486,"SoundDuration":215486,"Delta":108549933},{"NoteNumber":58,"Velocity":54,"Duration":1735194,"SoundDuration":1735194,"Delta":108549933},{"NoteNumber":84,"Velocity":58,"Duration":215486,"SoundDuration":215486,"Delta":108765419},{"NoteNumber":72,"Velocity":49,"Duration":215486,"SoundDuration":215486,"Delta":108765419},{"NoteNumber":81,"Velocity":49,"Duration":215486,"SoundDuration":215486,"Delta":108765419},{"NoteNumber":82,"Velocity":58,"Duration":215486,"SoundDuration":215486,"Delta":108980906},{"NoteNumber":70,"Velocity":49,"Duration":215486,"SoundDuration":215486,"Delta":108980906},{"NoteNumber":79,"Velocity":49,"Duration":215486,"SoundDuration":215486,"Delta":108980906},{"NoteNumber":38,"Velocity":36,"Duration":53871,"SoundDuration":53871,"Delta":108980906},{"NoteNumber":29,"Velocity":30,"Duration":53871,"SoundDuration":53871,"Delta":108980906},{"NoteNumber":34,"Velocity":30,"Duration":53871,"SoundDuration":53871,"Delta":108980906},{"NoteNumber":41,"Velocity":36,"Duration":53871,"SoundDuration":53871,"Delta":109034777},{"NoteNumber":38,"Velocity":36,"Duration":53871,"SoundDuration":53871,"Delta":109088649},{"NoteNumber":29,"Velocity":31,"Duration":53871,"SoundDuration":53871,"Delta":109088649},{"NoteNumber":34,"Velocity":31,"Duration":53871,"SoundDuration":53871,"Delta":109088649},{"NoteNumber":41,"Velocity":36,"Duration":53871,"SoundDuration":53871,"Delta":109142520},{"NoteNumber":81,"Velocity":58,"Duration":215486,"SoundDuration":215486,"Delta":109196392},{"NoteNumber":69,"Velocity":49,"Duration":215486,"SoundDuration":215486,"Delta":109196392},{"NoteNumber":77,"Velocity":49,"Duration":215486,"SoundDuration":215486,"Delta":109196392},{"NoteNumber":38,"Velocity":36,"Duration":53871,"SoundDuration":53871,"Delta":109196392},{"NoteNumber":29,"Velocity":31,"Duration":53871,"SoundDuration":53871,"Delta":109196392},{"NoteNumber":34,"Velocity":31,"Duration":53871,"SoundDuration":53871,"Delta":109196392},{"NoteNumber":41,"Velocity":36,"Duration":53871,"SoundDuration":53871,"Delta":109250263},{"NoteNumber":38,"Velocity":37,"Duration":53871,"SoundDuration":53871,"Delta":109304135},{"NoteNumber":29,"Velocity":31,"Duration":53871,"SoundDuration":53871,"Delta":109304135},{"NoteNumber":34,"Velocity":31,"Duration":53871,"SoundDuration":53871,"Delta":109304135},{"NoteNumber":41,"Velocity":37,"Duration":53871,"SoundDuration":53871,"Delta":109358007},{"NoteNumber":79,"Velocity":59,"Duration":215486,"SoundDuration":215486,"Delta":109411878},{"NoteNumber":67,"Velocity":50,"Duration":215486,"SoundDuration":215486,"Delta":109411878},{"NoteNumber":75,"Velocity":50,"Duration":215486,"SoundDuration":215486,"Delta":109411878},{"NoteNumber":38,"Velocity":37,"Duration":53871,"SoundDuration":53871,"Delta":109411878},{"NoteNumber":29,"Velocity":31,"Duration":53871,"SoundDuration":53871,"Delta":109411878},{"NoteNumber":34,"Velocity":31,"Duration":53871,"SoundDuration":53871,"Delta":109411878},{"NoteNumber":41,"Velocity":37,"Duration":53871,"SoundDuration":53871,"Delta":109465750},{"NoteNumber":38,"Velocity":37,"Duration":53871,"SoundDuration":53871,"Delta":109519621},{"NoteNumber":29,"Velocity":31,"Duration":53871,"SoundDuration":53871,"Delta":109519621},{"NoteNumber":34,"Velocity":31,"Duration":53871,"SoundDuration":53871,"Delta":109519621},{"NoteNumber":41,"Velocity":37,"Duration":53871,"SoundDuration":53871,"Delta":109573493},{"NoteNumber":77,"Velocity":59,"Duration":215486,"SoundDuration":215486,"Delta":109627364},{"NoteNumber":65,"Velocity":50,"Duration":215486,"SoundDuration":215486,"Delta":109627364},{"NoteNumber":74,"Velocity":50,"Duration":215486,"SoundDuration":215486,"Delta":109627364},{"NoteNumber":38,"Velocity":37,"Duration":53871,"SoundDuration":53871,"Delta":109627364},{"NoteNumber":29,"Velocity":32,"Duration":53871,"SoundDuration":53871,"Delta":109627364},{"NoteNumber":34,"Velocity":32,"Duration":53871,"SoundDuration":53871,"Delta":109627364},{"NoteNumber":41,"Velocity":37,"Duration":53871,"SoundDuration":53871,"Delta":109681236},{"NoteNumber":38,"Velocity":37,"Duration":53871,"SoundDuration":53871,"Delta":109735107},{"NoteNumber":29,"Velocity":32,"Duration":53871,"SoundDuration":53871,"Delta":109735107},{"NoteNumber":34,"Velocity":32,"Duration":53871,"SoundDuration":53871,"Delta":109735107},{"NoteNumber":41,"Velocity":37,"Duration":53871,"SoundDuration":53871,"Delta":109788979},{"NoteNumber":75,"Velocity":60,"Duration":215486,"SoundDuration":215486,"Delta":109842851},{"NoteNumber":63,"Velocity":50,"Duration":215486,"SoundDuration":215486,"Delta":109842851},{"NoteNumber":72,"Velocity":50,"Duration":215486,"SoundDuration":215486,"Delta":109842851},{"NoteNumber":38,"Velocity":38,"Duration":53871,"SoundDuration":53871,"Delta":109842851},{"NoteNumber":29,"Velocity":32,"Duration":53871,"SoundDuration":53871,"Delta":109842851},{"NoteNumber":34,"Velocity":32,"Duration":53871,"SoundDuration":53871,"Delta":109842851},{"NoteNumber":41,"Velocity":38,"Duration":53871,"SoundDuration":53871,"Delta":109896722},{"NoteNumber":38,"Velocity":38,"Duration":53871,"SoundDuration":53871,"Delta":109950594},{"NoteNumber":29,"Velocity":32,"Duration":53871,"SoundDuration":53871,"Delta":109950594},{"NoteNumber":34,"Velocity":32,"Duration":53871,"SoundDuration":53871,"Delta":109950594},{"NoteNumber":41,"Velocity":38,"Duration":53871,"SoundDuration":53871,"Delta":110004465},{"NoteNumber":74,"Velocity":60,"Duration":226791,"SoundDuration":226791,"Delta":110058337},{"NoteNumber":62,"Velocity":50,"Duration":226791,"SoundDuration":226791,"Delta":110058337},{"NoteNumber":70,"Velocity":50,"Duration":226791,"SoundDuration":226791,"Delta":110058337},{"NoteNumber":38,"Velocity":38,"Duration":57155,"SoundDuration":57155,"Delta":110058337},{"NoteNumber":29,"Velocity":32,"Duration":57155,"SoundDuration":57155,"Delta":110058337},{"NoteNumber":34,"Velocity":32,"Duration":57155,"SoundDuration":57155,"Delta":110058337},{"NoteNumber":41,"Velocity":38,"Duration":57155,"SoundDuration":57155,"Delta":110115493},{"NoteNumber":38,"Velocity":38,"Duration":57155,"SoundDuration":57155,"Delta":110172649},{"NoteNumber":29,"Velocity":32,"Duration":57155,"SoundDuration":57155,"Delta":110172649},{"NoteNumber":34,"Velocity":32,"Duration":57155,"SoundDuration":57155,"Delta":110172649},{"NoteNumber":41,"Velocity":54,"Duration":51679,"SoundDuration":51679,"Delta":110229805},{"NoteNumber":41,"Velocity":34,"Duration":486446,"SoundDuration":486446,"Delta":110229805},{"NoteNumber":48,"Velocity":54,"Duration":1683217,"SoundDuration":1683217,"Delta":110248690},{"NoteNumber":51,"Velocity":54,"Duration":1664998,"SoundDuration":1664998,"Delta":110266909},{"NoteNumber":75,"Velocity":56,"Duration":218626,"SoundDuration":218626,"Delta":110285128},{"NoteNumber":63,"Velocity":47,"Duration":218626,"SoundDuration":218626,"Delta":110285128},{"NoteNumber":72,"Velocity":47,"Duration":218626,"SoundDuration":218626,"Delta":110285128},{"NoteNumber":56,"Velocity":64,"Duration":1646779,"SoundDuration":1646779,"Delta":110285128},{"NoteNumber":77,"Velocity":57,"Duration":216088,"SoundDuration":216088,"Delta":110503755},{"NoteNumber":65,"Velocity":48,"Duration":216088,"SoundDuration":216088,"Delta":110503755},{"NoteNumber":74,"Velocity":48,"Duration":216088,"SoundDuration":216088,"Delta":110503755},{"NoteNumber":79,"Velocity":58,"Duration":214163,"SoundDuration":214163,"Delta":110719843},{"NoteNumber":67,"Velocity":49,"Duration":214163,"SoundDuration":214163,"Delta":110719843},{"NoteNumber":75,"Velocity":49,"Duration":214163,"SoundDuration":214163,"Delta":110719843},{"NoteNumber":39,"Velocity":34,"Duration":53871,"SoundDuration":53871,"Delta":110719843},{"NoteNumber":29,"Velocity":28,"Duration":53871,"SoundDuration":53871,"Delta":110719843},{"NoteNumber":33,"Velocity":28,"Duration":53871,"SoundDuration":53871,"Delta":110719843},{"NoteNumber":41,"Velocity":34,"Duration":53871,"SoundDuration":53871,"Delta":110773715},{"NoteNumber":39,"Velocity":34,"Duration":53312,"SoundDuration":53312,"Delta":110827586},{"NoteNumber":29,"Velocity":28,"Duration":53312,"SoundDuration":53312,"Delta":110827586},{"NoteNumber":33,"Velocity":28,"Duration":53312,"SoundDuration":53312,"Delta":110827586},{"NoteNumber":41,"Velocity":34,"Duration":53108,"SoundDuration":53108,"Delta":110880898},{"NoteNumber":81,"Velocity":60,"Duration":211890,"SoundDuration":211890,"Delta":110934007},{"NoteNumber":77,"Velocity":50,"Duration":211890,"SoundDuration":211890,"Delta":110934007},{"NoteNumber":69,"Velocity":50,"Duration":211890,"SoundDuration":211890,"Delta":110934007},{"NoteNumber":39,"Velocity":34,"Duration":53108,"SoundDuration":53108,"Delta":110934007},{"NoteNumber":29,"Velocity":28,"Duration":53108,"SoundDuration":53108,"Delta":110934007},{"NoteNumber":33,"Velocity":28,"Duration":53108,"SoundDuration":53108,"Delta":110934007},{"NoteNumber":41,"Velocity":34,"Duration":53108,"SoundDuration":53108,"Delta":110987116},{"NoteNumber":39,"Velocity":34,"Duration":53108,"SoundDuration":53108,"Delta":111040224},{"NoteNumber":29,"Velocity":28,"Duration":53108,"SoundDuration":53108,"Delta":111040224},{"NoteNumber":33,"Velocity":28,"Duration":53108,"SoundDuration":53108,"Delta":111040224},{"NoteNumber":41,"Velocity":34,"Duration":52564,"SoundDuration":52564,"Delta":111093333},{"NoteNumber":82,"Velocity":61,"Duration":209468,"SoundDuration":209468,"Delta":111145898},{"NoteNumber":70,"Velocity":51,"Duration":209468,"SoundDuration":209468,"Delta":111145898},{"NoteNumber":79,"Velocity":51,"Duration":209468,"SoundDuration":209468,"Delta":111145898},{"NoteNumber":39,"Velocity":38,"Duration":52367,"SoundDuration":52367,"Delta":111145898},{"NoteNumber":29,"Velocity":32,"Duration":52367,"SoundDuration":52367,"Delta":111145898},{"NoteNumber":33,"Velocity":32,"Duration":52367,"SoundDuration":52367,"Delta":111145898},{"NoteNumber":41,"Velocity":38,"Duration":52366,"SoundDuration":52366,"Delta":111198265},{"NoteNumber":39,"Velocity":38,"Duration":52367,"SoundDuration":52367,"Delta":111250632},{"NoteNumber":29,"Velocity":32,"Duration":52367,"SoundDuration":52367,"Delta":111250632},{"NoteNumber":33,"Velocity":32,"Duration":52367,"SoundDuration":52367,"Delta":111250632},{"NoteNumber":41,"Velocity":38,"Duration":52367,"SoundDuration":52367,"Delta":111302999},{"NoteNumber":84,"Velocity":62,"Duration":207135,"SoundDuration":207135,"Delta":111355366},{"NoteNumber":72,"Velocity":52,"Duration":207135,"SoundDuration":207135,"Delta":111355366},{"NoteNumber":81,"Velocity":52,"Duration":207135,"SoundDuration":207135,"Delta":111355366},{"NoteNumber":39,"Velocity":38,"Duration":52198,"SoundDuration":52198,"Delta":111355366},{"NoteNumber":29,"Velocity":32,"Duration":52198,"SoundDuration":52198,"Delta":111355366},{"NoteNumber":33,"Velocity":32,"Duration":52198,"SoundDuration":52198,"Delta":111355366},{"NoteNumber":41,"Velocity":39,"Duration":51645,"SoundDuration":51645,"Delta":111407564},{"NoteNumber":39,"Velocity":39,"Duration":51645,"SoundDuration":51645,"Delta":111459210},{"NoteNumber":29,"Velocity":33,"Duration":51645,"SoundDuration":51645,"Delta":111459210},{"NoteNumber":33,"Velocity":33,"Duration":51645,"SoundDuration":51645,"Delta":111459210},{"NoteNumber":41,"Velocity":39,"Duration":51645,"SoundDuration":51645,"Delta":111510856},{"NoteNumber":86,"Velocity":63,"Duration":205366,"SoundDuration":205366,"Delta":111562502},{"NoteNumber":74,"Velocity":54,"Duration":205366,"SoundDuration":205366,"Delta":111562502},{"NoteNumber":82,"Velocity":54,"Duration":205366,"SoundDuration":205366,"Delta":111562502},{"NoteNumber":39,"Velocity":39,"Duration":51645,"SoundDuration":51645,"Delta":111562502},{"NoteNumber":29,"Velocity":33,"Duration":51645,"SoundDuration":51645,"Delta":111562502},{"NoteNumber":33,"Velocity":33,"Duration":51645,"SoundDuration":51645,"Delta":111562502},{"NoteNumber":41,"Velocity":39,"Duration":51645,"SoundDuration":51645,"Delta":111614147},{"NoteNumber":39,"Velocity":39,"Duration":51131,"SoundDuration":51131,"Delta":111665793},{"NoteNumber":29,"Velocity":33,"Duration":51131,"SoundDuration":51131,"Delta":111665793},{"NoteNumber":33,"Velocity":33,"Duration":51131,"SoundDuration":51131,"Delta":111665793},{"NoteNumber":41,"Velocity":39,"Duration":50944,"SoundDuration":50944,"Delta":111716924},{"NoteNumber":87,"Velocity":64,"Duration":215218,"SoundDuration":215218,"Delta":111767868},{"NoteNumber":75,"Velocity":54,"Duration":215218,"SoundDuration":215218,"Delta":111767868},{"NoteNumber":84,"Velocity":54,"Duration":215218,"SoundDuration":215218,"Delta":111767868},{"NoteNumber":39,"Velocity":39,"Duration":55465,"SoundDuration":55465,"Delta":111767868},{"NoteNumber":29,"Velocity":33,"Duration":55465,"SoundDuration":55465,"Delta":111767868},{"NoteNumber":33,"Velocity":33,"Duration":55465,"SoundDuration":55465,"Delta":111767868},{"NoteNumber":41,"Velocity":39,"Duration":55465,"SoundDuration":55465,"Delta":111823334},{"NoteNumber":39,"Velocity":39,"Duration":53108,"SoundDuration":53108,"Delta":111878799},{"NoteNumber":29,"Velocity":33,"Duration":53108,"SoundDuration":53108,"Delta":111878799},{"NoteNumber":33,"Velocity":33,"Duration":53108,"SoundDuration":53108,"Delta":111878799},{"NoteNumber":41,"Velocity":39,"Duration":51179,"SoundDuration":51179,"Delta":111931907},{"NoteNumber":87,"Velocity":68,"Duration":203776,"SoundDuration":203776,"Delta":111983087},{"NoteNumber":75,"Velocity":57,"Duration":203776,"SoundDuration":203776,"Delta":111983087},{"NoteNumber":84,"Velocity":57,"Duration":203776,"SoundDuration":203776,"Delta":111983087},{"NoteNumber":29,"Velocity":36,"Duration":101888,"SoundDuration":101888,"Delta":111983087},{"NoteNumber":33,"Velocity":36,"Duration":101888,"SoundDuration":101888,"Delta":111983087},{"NoteNumber":39,"Velocity":39,"Duration":101888,"SoundDuration":101888,"Delta":111983087},{"NoteNumber":41,"Velocity":40,"Duration":101888,"SoundDuration":101888,"Delta":112084976},{"NoteNumber":86,"Velocity":66,"Duration":205694,"SoundDuration":205694,"Delta":112186864},{"NoteNumber":74,"Velocity":55,"Duration":205694,"SoundDuration":205694,"Delta":112186864},{"NoteNumber":82,"Velocity":55,"Duration":205694,"SoundDuration":205694,"Delta":112186864},{"NoteNumber":30,"Velocity":40,"Duration":102402,"SoundDuration":102402,"Delta":112186864},{"NoteNumber":41,"Velocity":40,"Duration":103291,"SoundDuration":103291,"Delta":112289267},{"NoteNumber":84,"Velocity":67,"Duration":207472,"SoundDuration":207472,"Delta":112392559},{"NoteNumber":72,"Velocity":56,"Duration":207472,"SoundDuration":207472,"Delta":112392559},{"NoteNumber":81,"Velocity":56,"Duration":207472,"SoundDuration":207472,"Delta":112392559},{"NoteNumber":31,"Velocity":40,"Duration":103291,"SoundDuration":103291,"Delta":112392559},{"NoteNumber":41,"Velocity":40,"Duration":104181,"SoundDuration":104181,"Delta":112495850},{"NoteNumber":82,"Velocity":69,"Duration":209468,"SoundDuration":209468,"Delta":112600031},{"NoteNumber":70,"Velocity":58,"Duration":209468,"SoundDuration":209468,"Delta":112600031},{"NoteNumber":79,"Velocity":58,"Duration":209468,"SoundDuration":209468,"Delta":112600031},{"NoteNumber":32,"Velocity":40,"Duration":104733,"SoundDuration":104733,"Delta":112600031},{"NoteNumber":41,"Velocity":41,"Duration":104734,"SoundDuration":104734,"Delta":112704765},{"NoteNumber":81,"Velocity":70,"Duration":212236,"SoundDuration":212236,"Delta":112809499},{"NoteNumber":69,"Velocity":59,"Duration":212236,"SoundDuration":212236,"Delta":112809499},{"NoteNumber":77,"Velocity":59,"Duration":212236,"SoundDuration":212236,"Delta":112809499},{"NoteNumber":33,"Velocity":41,"Duration":106019,"SoundDuration":106019,"Delta":112809499},{"NoteNumber":41,"Velocity":41,"Duration":106217,"SoundDuration":106217,"Delta":112915519},{"NoteNumber":79,"Velocity":72,"Duration":214138,"SoundDuration":214138,"Delta":113021736},{"NoteNumber":67,"Velocity":61,"Duration":214138,"SoundDuration":214138,"Delta":113021736},{"NoteNumber":75,"Velocity":61,"Duration":214138,"SoundDuration":214138,"Delta":113021736},{"NoteNumber":34,"Velocity":41,"Duration":106395,"SoundDuration":106395,"Delta":113021736},{"NoteNumber":41,"Velocity":42,"Duration":107743,"SoundDuration":107743,"Delta":113128131},{"NoteNumber":77,"Velocity":72,"Duration":216062,"SoundDuration":216062,"Delta":113235874},{"NoteNumber":65,"Velocity":61,"Duration":216062,"SoundDuration":216062,"Delta":113235874},{"NoteNumber":74,"Velocity":61,"Duration":216062,"SoundDuration":216062,"Delta":113235874},{"NoteNumber":35,"Velocity":42,"Duration":107743,"SoundDuration":107743,"Delta":113235874},{"NoteNumber":41,"Velocity":42,"Duration":108318,"SoundDuration":108318,"Delta":113343617},{"NoteNumber":75,"Velocity":73,"Duration":351911,"SoundDuration":351911,"Delta":113451936},{"NoteNumber":63,"Velocity":62,"Duration":351911,"SoundDuration":351911,"Delta":113451936},{"NoteNumber":72,"Velocity":62,"Duration":351911,"SoundDuration":351911,"Delta":113451936},{"NoteNumber":36,"Velocity":42,"Duration":127964,"SoundDuration":127964,"Delta":113451936},{"NoteNumber":41,"Velocity":42,"Duration":216482,"SoundDuration":216482,"Delta":113579901},{"NoteNumber":75,"Velocity":36,"Duration":230628,"SoundDuration":230628,"Delta":113803848},{"NoteNumber":63,"Velocity":31,"Duration":230628,"SoundDuration":230628,"Delta":113803848},{"NoteNumber":71,"Velocity":31,"Duration":230628,"SoundDuration":230628,"Delta":113803848},{"NoteNumber":54,"Velocity":38,"Duration":1719895,"SoundDuration":1719895,"Delta":113803848},{"NoteNumber":42,"Velocity":32,"Duration":453583,"SoundDuration":453583,"Delta":113803848},{"NoteNumber":47,"Velocity":32,"Duration":1719895,"SoundDuration":1719895,"Delta":113803848},{"NoteNumber":51,"Velocity":32,"Duration":1719895,"SoundDuration":1719895,"Delta":113803848},{"NoteNumber":76,"Velocity":38,"Duration":226707,"SoundDuration":226707,"Delta":114034477},{"NoteNumber":64,"Velocity":32,"Duration":226707,"SoundDuration":226707,"Delta":114034477},{"NoteNumber":73,"Velocity":32,"Duration":226707,"SoundDuration":226707,"Delta":114034477},{"NoteNumber":78,"Velocity":40,"Duration":222915,"SoundDuration":222915,"Delta":114261185},{"NoteNumber":66,"Velocity":34,"Duration":222915,"SoundDuration":222915,"Delta":114261185},{"NoteNumber":75,"Velocity":34,"Duration":222915,"SoundDuration":222915,"Delta":114261185},{"NoteNumber":39,"Velocity":28,"Duration":56297,"SoundDuration":56297,"Delta":114261185},{"NoteNumber":30,"Velocity":24,"Duration":56297,"SoundDuration":56297,"Delta":114261185},{"NoteNumber":35,"Velocity":24,"Duration":56297,"SoundDuration":56297,"Delta":114261185},{"NoteNumber":42,"Velocity":28,"Duration":55687,"SoundDuration":55687,"Delta":114317482},{"NoteNumber":39,"Velocity":29,"Duration":55465,"SoundDuration":55465,"Delta":114373170},{"NoteNumber":30,"Velocity":24,"Duration":55465,"SoundDuration":55465,"Delta":114373170},{"NoteNumber":35,"Velocity":24,"Duration":55465,"SoundDuration":55465,"Delta":114373170},{"NoteNumber":42,"Velocity":29,"Duration":55465,"SoundDuration":55465,"Delta":114428635},{"NoteNumber":76,"Velocity":44,"Duration":219063,"SoundDuration":219063,"Delta":114484100},{"NoteNumber":80,"Velocity":44,"Duration":219063,"SoundDuration":219063,"Delta":114484100},{"NoteNumber":68,"Velocity":36,"Duration":219063,"SoundDuration":219063,"Delta":114484100},{"NoteNumber":39,"Velocity":29,"Duration":55276,"SoundDuration":55276,"Delta":114484100},{"NoteNumber":30,"Velocity":25,"Duration":55276,"SoundDuration":55276,"Delta":114484100},{"NoteNumber":35,"Velocity":25,"Duration":55276,"SoundDuration":55276,"Delta":114484100},{"NoteNumber":42,"Velocity":29,"Duration":54656,"SoundDuration":54656,"Delta":114539377},{"NoteNumber":39,"Velocity":30,"Duration":54656,"SoundDuration":54656,"Delta":114594033},{"NoteNumber":30,"Velocity":25,"Duration":54656,"SoundDuration":54656,"Delta":114594033},{"NoteNumber":35,"Velocity":25,"Duration":54656,"SoundDuration":54656,"Delta":114594033},{"NoteNumber":42,"Velocity":30,"Duration":54473,"SoundDuration":54473,"Delta":114648690},{"NoteNumber":82,"Velocity":45,"Duration":215486,"SoundDuration":215486,"Delta":114703164},{"NoteNumber":70,"Velocity":38,"Duration":215486,"SoundDuration":215486,"Delta":114703164},{"NoteNumber":78,"Velocity":38,"Duration":215486,"SoundDuration":215486,"Delta":114703164},{"NoteNumber":39,"Velocity":30,"Duration":53871,"SoundDuration":53871,"Delta":114703164},{"NoteNumber":30,"Velocity":26,"Duration":53871,"SoundDuration":53871,"Delta":114703164},{"NoteNumber":35,"Velocity":26,"Duration":53871,"SoundDuration":53871,"Delta":114703164},{"NoteNumber":42,"Velocity":30,"Duration":53871,"SoundDuration":53871,"Delta":114757035},{"NoteNumber":39,"Velocity":31,"Duration":53871,"SoundDuration":53871,"Delta":114810907},{"NoteNumber":30,"Velocity":26,"Duration":53871,"SoundDuration":53871,"Delta":114810907},{"NoteNumber":35,"Velocity":26,"Duration":53871,"SoundDuration":53871,"Delta":114810907},{"NoteNumber":42,"Velocity":32,"Duration":53871,"SoundDuration":53871,"Delta":114864778},{"NoteNumber":83,"Velocity":48,"Duration":215486,"SoundDuration":215486,"Delta":114918650},{"NoteNumber":71,"Velocity":41,"Duration":215486,"SoundDuration":215486,"Delta":114918650},{"NoteNumber":80,"Velocity":41,"Duration":215486,"SoundDuration":215486,"Delta":114918650},{"NoteNumber":39,"Velocity":32,"Duration":53871,"SoundDuration":53871,"Delta":114918650},{"NoteNumber":30,"Velocity":27,"Duration":53871,"SoundDuration":53871,"Delta":114918650},{"NoteNumber":35,"Velocity":27,"Duration":53871,"SoundDuration":53871,"Delta":114918650},{"NoteNumber":42,"Velocity":33,"Duration":53871,"SoundDuration":53871,"Delta":114972521},{"NoteNumber":39,"Velocity":33,"Duration":53871,"SoundDuration":53871,"Delta":115026393},{"NoteNumber":30,"Velocity":27,"Duration":53871,"SoundDuration":53871,"Delta":115026393},{"NoteNumber":35,"Velocity":27,"Duration":53871,"SoundDuration":53871,"Delta":115026393},{"NoteNumber":42,"Velocity":33,"Duration":53871,"SoundDuration":53871,"Delta":115080265},{"NoteNumber":85,"Velocity":51,"Duration":215486,"SoundDuration":215486,"Delta":115134136},{"NoteNumber":73,"Velocity":43,"Duration":215486,"SoundDuration":215486,"Delta":115134136},{"NoteNumber":82,"Velocity":43,"Duration":215486,"SoundDuration":215486,"Delta":115134136},{"NoteNumber":39,"Velocity":33,"Duration":53871,"SoundDuration":53871,"Delta":115134136},{"NoteNumber":30,"Velocity":28,"Duration":53871,"SoundDuration":53871,"Delta":115134136},{"NoteNumber":35,"Velocity":28,"Duration":53871,"SoundDuration":53871,"Delta":115134136},{"NoteNumber":42,"Velocity":34,"Duration":53871,"SoundDuration":53871,"Delta":115188008},{"NoteNumber":39,"Velocity":34,"Duration":53871,"SoundDuration":53871,"Delta":115241879},{"NoteNumber":30,"Velocity":28,"Duration":53871,"SoundDuration":53871,"Delta":115241879},{"NoteNumber":35,"Velocity":28,"Duration":53871,"SoundDuration":53871,"Delta":115241879},{"NoteNumber":42,"Velocity":34,"Duration":53871,"SoundDuration":53871,"Delta":115295751},{"NoteNumber":87,"Velocity":54,"Duration":232162,"SoundDuration":232162,"Delta":115349622},{"NoteNumber":75,"Velocity":45,"Duration":232162,"SoundDuration":232162,"Delta":115349622},{"NoteNumber":83,"Velocity":45,"Duration":232162,"SoundDuration":232162,"Delta":115349622},{"NoteNumber":39,"Velocity":35,"Duration":58040,"SoundDuration":58040,"Delta":115349622},{"NoteNumber":30,"Velocity":29,"Duration":58040,"SoundDuration":58040,"Delta":115349622},{"NoteNumber":35,"Velocity":29,"Duration":58040,"SoundDuration":58040,"Delta":115349622},{"NoteNumber":42,"Velocity":36,"Duration":58040,"SoundDuration":58040,"Delta":115407663},{"NoteNumber":39,"Velocity":36,"Duration":58040,"SoundDuration":58040,"Delta":115465704},{"NoteNumber":30,"Velocity":29,"Duration":58040,"SoundDuration":58040,"Delta":115465704},{"NoteNumber":35,"Velocity":29,"Duration":58040,"SoundDuration":58040,"Delta":115465704},{"NoteNumber":42,"Velocity":51,"Duration":54171,"SoundDuration":54171,"Delta":115523744},{"NoteNumber":42,"Velocity":36,"Duration":481830,"SoundDuration":481830,"Delta":115523744},{"NoteNumber":47,"Velocity":53,"Duration":1773454,"SoundDuration":1773454,"Delta":115543091},{"NoteNumber":51,"Velocity":54,"Duration":1754107,"SoundDuration":1754107,"Delta":115562438},{"NoteNumber":87,"Velocity":56,"Duration":215486,"SoundDuration":215486,"Delta":115581785},{"NoteNumber":75,"Velocity":40,"Duration":215486,"SoundDuration":215486,"Delta":115581785},{"NoteNumber":83,"Velocity":40,"Duration":215486,"SoundDuration":215486,"Delta":115581785},{"NoteNumber":59,"Velocity":54,"Duration":1734760,"SoundDuration":1734760,"Delta":115581785},{"NoteNumber":85,"Velocity":58,"Duration":215486,"SoundDuration":215486,"Delta":115797271},{"NoteNumber":73,"Velocity":49,"Duration":215486,"SoundDuration":215486,"Delta":115797271},{"NoteNumber":82,"Velocity":49,"Duration":215486,"SoundDuration":215486,"Delta":115797271},{"NoteNumber":83,"Velocity":58,"Duration":215486,"SoundDuration":215486,"Delta":116012757},{"NoteNumber":71,"Velocity":49,"Duration":215486,"SoundDuration":215486,"Delta":116012757},{"NoteNumber":80,"Velocity":49,"Duration":215486,"SoundDuration":215486,"Delta":116012757},{"NoteNumber":39,"Velocity":36,"Duration":53871,"SoundDuration":53871,"Delta":116012757},{"NoteNumber":30,"Velocity":30,"Duration":53871,"SoundDuration":53871,"Delta":116012757},{"NoteNumber":35,"Velocity":30,"Duration":53871,"SoundDuration":53871,"Delta":116012757},{"NoteNumber":42,"Velocity":36,"Duration":53871,"SoundDuration":53871,"Delta":116066629},{"NoteNumber":39,"Velocity":36,"Duration":53871,"SoundDuration":53871,"Delta":116120500},{"NoteNumber":30,"Velocity":31,"Duration":53871,"SoundDuration":53871,"Delta":116120500},{"NoteNumber":35,"Velocity":31,"Duration":53871,"SoundDuration":53871,"Delta":116120500},{"NoteNumber":42,"Velocity":36,"Duration":53871,"SoundDuration":53871,"Delta":116174372},{"NoteNumber":82,"Velocity":58,"Duration":215486,"SoundDuration":215486,"Delta":116228243},{"NoteNumber":70,"Velocity":49,"Duration":215486,"SoundDuration":215486,"Delta":116228243},{"NoteNumber":78,"Velocity":49,"Duration":215486,"SoundDuration":215486,"Delta":116228243},{"NoteNumber":39,"Velocity":36,"Duration":53871,"SoundDuration":53871,"Delta":116228243},{"NoteNumber":30,"Velocity":31,"Duration":53871,"SoundDuration":53871,"Delta":116228243},{"NoteNumber":35,"Velocity":31,"Duration":53871,"SoundDuration":53871,"Delta":116228243},{"NoteNumber":42,"Velocity":36,"Duration":53871,"SoundDuration":53871,"Delta":116282115},{"NoteNumber":39,"Velocity":37,"Duration":53871,"SoundDuration":53871,"Delta":116335987},{"NoteNumber":30,"Velocity":31,"Duration":53871,"SoundDuration":53871,"Delta":116335987},{"NoteNumber":35,"Velocity":31,"Duration":53871,"SoundDuration":53871,"Delta":116335987},{"NoteNumber":42,"Velocity":37,"Duration":53871,"SoundDuration":53871,"Delta":116389858},{"NoteNumber":80,"Velocity":59,"Duration":215486,"SoundDuration":215486,"Delta":116443730},{"NoteNumber":68,"Velocity":50,"Duration":215486,"SoundDuration":215486,"Delta":116443730},{"NoteNumber":76,"Velocity":50,"Duration":215486,"SoundDuration":215486,"Delta":116443730},{"NoteNumber":39,"Velocity":37,"Duration":53871,"SoundDuration":53871,"Delta":116443730},{"NoteNumber":30,"Velocity":31,"Duration":53871,"SoundDuration":53871,"Delta":116443730},{"NoteNumber":35,"Velocity":31,"Duration":53871,"SoundDuration":53871,"Delta":116443730},{"NoteNumber":42,"Velocity":37,"Duration":53871,"SoundDuration":53871,"Delta":116497601},{"NoteNumber":39,"Velocity":37,"Duration":53871,"SoundDuration":53871,"Delta":116551473},{"NoteNumber":30,"Velocity":31,"Duration":53871,"SoundDuration":53871,"Delta":116551473},{"NoteNumber":35,"Velocity":31,"Duration":53871,"SoundDuration":53871,"Delta":116551473},{"NoteNumber":42,"Velocity":37,"Duration":53871,"SoundDuration":53871,"Delta":116605344},{"NoteNumber":78,"Velocity":59,"Duration":215486,"SoundDuration":215486,"Delta":116659216},{"NoteNumber":66,"Velocity":50,"Duration":215486,"SoundDuration":215486,"Delta":116659216},{"NoteNumber":75,"Velocity":50,"Duration":215486,"SoundDuration":215486,"Delta":116659216},{"NoteNumber":39,"Velocity":37,"Duration":53871,"SoundDuration":53871,"Delta":116659216},{"NoteNumber":30,"Velocity":32,"Duration":53871,"SoundDuration":53871,"Delta":116659216},{"NoteNumber":35,"Velocity":32,"Duration":53871,"SoundDuration":53871,"Delta":116659216},{"NoteNumber":42,"Velocity":37,"Duration":53871,"SoundDuration":53871,"Delta":116713087},{"NoteNumber":39,"Velocity":37,"Duration":53871,"SoundDuration":53871,"Delta":116766959},{"NoteNumber":30,"Velocity":32,"Duration":53871,"SoundDuration":53871,"Delta":116766959},{"NoteNumber":35,"Velocity":32,"Duration":53871,"SoundDuration":53871,"Delta":116766959},{"NoteNumber":42,"Velocity":37,"Duration":53871,"SoundDuration":53871,"Delta":116820831},{"NoteNumber":76,"Velocity":60,"Duration":215486,"SoundDuration":215486,"Delta":116874702},{"NoteNumber":64,"Velocity":50,"Duration":215486,"SoundDuration":215486,"Delta":116874702},{"NoteNumber":73,"Velocity":50,"Duration":215486,"SoundDuration":215486,"Delta":116874702},{"NoteNumber":39,"Velocity":38,"Duration":53871,"SoundDuration":53871,"Delta":116874702},{"NoteNumber":30,"Velocity":32,"Duration":53871,"SoundDuration":53871,"Delta":116874702},{"NoteNumber":35,"Velocity":32,"Duration":53871,"SoundDuration":53871,"Delta":116874702},{"NoteNumber":42,"Velocity":38,"Duration":53871,"SoundDuration":53871,"Delta":116928574},{"NoteNumber":39,"Velocity":38,"Duration":53871,"SoundDuration":53871,"Delta":116982445},{"NoteNumber":30,"Velocity":32,"Duration":53871,"SoundDuration":53871,"Delta":116982445},{"NoteNumber":35,"Velocity":32,"Duration":53871,"SoundDuration":53871,"Delta":116982445},{"NoteNumber":42,"Velocity":38,"Duration":53871,"SoundDuration":53871,"Delta":117036317},{"NoteNumber":75,"Velocity":60,"Duration":226356,"SoundDuration":226356,"Delta":117090188},{"NoteNumber":63,"Velocity":50,"Duration":226356,"SoundDuration":226356,"Delta":117090188},{"NoteNumber":71,"Velocity":50,"Duration":226356,"SoundDuration":226356,"Delta":117090188},{"NoteNumber":39,"Velocity":38,"Duration":57155,"SoundDuration":57155,"Delta":117090188},{"NoteNumber":30,"Velocity":32,"Duration":57155,"SoundDuration":57155,"Delta":117090188},{"NoteNumber":35,"Velocity":32,"Duration":57155,"SoundDuration":57155,"Delta":117090188},{"NoteNumber":42,"Velocity":38,"Duration":57155,"SoundDuration":57155,"Delta":117147344},{"NoteNumber":39,"Velocity":38,"Duration":57155,"SoundDuration":57155,"Delta":117204500},{"NoteNumber":30,"Velocity":32,"Duration":57155,"SoundDuration":57155,"Delta":117204500},{"NoteNumber":35,"Velocity":32,"Duration":57155,"SoundDuration":57155,"Delta":117204500},{"NoteNumber":42,"Velocity":54,"Duration":51317,"SoundDuration":51317,"Delta":117261656},{"NoteNumber":42,"Velocity":34,"Duration":477625,"SoundDuration":477625,"Delta":117261656},{"NoteNumber":49,"Velocity":54,"Duration":1661562,"SoundDuration":1661562,"Delta":117280542},{"NoteNumber":52,"Velocity":54,"Duration":1643415,"SoundDuration":1643415,"Delta":117298688},{"NoteNumber":76,"Velocity":56,"Duration":214285,"SoundDuration":214285,"Delta":117316545},{"NoteNumber":64,"Velocity":47,"Duration":214285,"SoundDuration":214285,"Delta":117316545},{"NoteNumber":73,"Velocity":47,"Duration":214285,"SoundDuration":214285,"Delta":117316545},{"NoteNumber":57,"Velocity":64,"Duration":1625558,"SoundDuration":1625558,"Delta":117316545},{"NoteNumber":78,"Velocity":57,"Duration":211971,"SoundDuration":211971,"Delta":117530831},{"NoteNumber":66,"Velocity":48,"Duration":211971,"SoundDuration":211971,"Delta":117530831},{"NoteNumber":75,"Velocity":48,"Duration":211971,"SoundDuration":211971,"Delta":117530831},{"NoteNumber":80,"Velocity":58,"Duration":209995,"SoundDuration":209995,"Delta":117742803},{"NoteNumber":68,"Velocity":49,"Duration":209995,"SoundDuration":209995,"Delta":117742803},{"NoteNumber":76,"Velocity":49,"Duration":209995,"SoundDuration":209995,"Delta":117742803},{"NoteNumber":40,"Velocity":34,"Duration":52816,"SoundDuration":52816,"Delta":117742803},{"NoteNumber":30,"Velocity":28,"Duration":52816,"SoundDuration":52816,"Delta":117742803},{"NoteNumber":34,"Velocity":28,"Duration":52816,"SoundDuration":52816,"Delta":117742803},{"NoteNumber":42,"Velocity":34,"Duration":52816,"SoundDuration":52816,"Delta":117795620},{"NoteNumber":40,"Velocity":34,"Duration":52278,"SoundDuration":52278,"Delta":117848437},{"NoteNumber":30,"Velocity":28,"Duration":52278,"SoundDuration":52278,"Delta":117848437},{"NoteNumber":34,"Velocity":28,"Duration":52278,"SoundDuration":52278,"Delta":117848437},{"NoteNumber":42,"Velocity":34,"Duration":52083,"SoundDuration":52083,"Delta":117900715},{"NoteNumber":82,"Velocity":60,"Duration":208047,"SoundDuration":208047,"Delta":117952799},{"NoteNumber":78,"Velocity":50,"Duration":208047,"SoundDuration":208047,"Delta":117952799},{"NoteNumber":70,"Velocity":50,"Duration":208047,"SoundDuration":208047,"Delta":117952799},{"NoteNumber":40,"Velocity":34,"Duration":52083,"SoundDuration":52083,"Delta":117952799},{"NoteNumber":30,"Velocity":28,"Duration":52083,"SoundDuration":52083,"Delta":117952799},{"NoteNumber":34,"Velocity":28,"Duration":52083,"SoundDuration":52083,"Delta":117952799},{"NoteNumber":42,"Velocity":34,"Duration":52083,"SoundDuration":52083,"Delta":118004882},{"NoteNumber":40,"Velocity":34,"Duration":52083,"SoundDuration":52083,"Delta":118056965},{"NoteNumber":30,"Velocity":28,"Duration":52083,"SoundDuration":52083,"Delta":118056965},{"NoteNumber":34,"Velocity":28,"Duration":52083,"SoundDuration":52083,"Delta":118056965},{"NoteNumber":42,"Velocity":34,"Duration":51797,"SoundDuration":51797,"Delta":118109049},{"NoteNumber":83,"Velocity":61,"Duration":205479,"SoundDuration":205479,"Delta":118160847},{"NoteNumber":71,"Velocity":51,"Duration":205479,"SoundDuration":205479,"Delta":118160847},{"NoteNumber":80,"Velocity":51,"Duration":205479,"SoundDuration":205479,"Delta":118160847},{"NoteNumber":40,"Velocity":38,"Duration":51369,"SoundDuration":51369,"Delta":118160847},{"NoteNumber":30,"Velocity":32,"Duration":51369,"SoundDuration":51369,"Delta":118160847},{"NoteNumber":34,"Velocity":32,"Duration":51369,"SoundDuration":51369,"Delta":118160847},{"NoteNumber":42,"Velocity":38,"Duration":51369,"SoundDuration":51369,"Delta":118212217},{"NoteNumber":40,"Velocity":38,"Duration":51369,"SoundDuration":51369,"Delta":118263586},{"NoteNumber":30,"Velocity":32,"Duration":51369,"SoundDuration":51369,"Delta":118263586},{"NoteNumber":34,"Velocity":32,"Duration":51369,"SoundDuration":51369,"Delta":118263586},{"NoteNumber":42,"Velocity":38,"Duration":51369,"SoundDuration":51369,"Delta":118314956},{"NoteNumber":85,"Velocity":62,"Duration":206371,"SoundDuration":206371,"Delta":118366326},{"NoteNumber":73,"Velocity":52,"Duration":206371,"SoundDuration":206371,"Delta":118366326},{"NoteNumber":82,"Velocity":52,"Duration":206371,"SoundDuration":206371,"Delta":118366326},{"NoteNumber":40,"Velocity":38,"Duration":51434,"SoundDuration":51434,"Delta":118366326},{"NoteNumber":30,"Velocity":32,"Duration":51434,"SoundDuration":51434,"Delta":118366326},{"NoteNumber":34,"Velocity":32,"Duration":51434,"SoundDuration":51434,"Delta":118366326},{"NoteNumber":42,"Velocity":39,"Duration":51645,"SoundDuration":51645,"Delta":118417760},{"NoteNumber":40,"Velocity":39,"Duration":51645,"SoundDuration":51645,"Delta":118469406},{"NoteNumber":30,"Velocity":33,"Duration":51645,"SoundDuration":51645,"Delta":118469406},{"NoteNumber":34,"Velocity":33,"Duration":51645,"SoundDuration":51645,"Delta":118469406},{"NoteNumber":42,"Velocity":39,"Duration":51645,"SoundDuration":51645,"Delta":118521052},{"NoteNumber":87,"Velocity":63,"Duration":205366,"SoundDuration":205366,"Delta":118572698},{"NoteNumber":75,"Velocity":54,"Duration":205366,"SoundDuration":205366,"Delta":118572698},{"NoteNumber":83,"Velocity":54,"Duration":205366,"SoundDuration":205366,"Delta":118572698},{"NoteNumber":40,"Velocity":39,"Duration":51645,"SoundDuration":51645,"Delta":118572698},{"NoteNumber":30,"Velocity":33,"Duration":51645,"SoundDuration":51645,"Delta":118572698},{"NoteNumber":34,"Velocity":33,"Duration":51645,"SoundDuration":51645,"Delta":118572698},{"NoteNumber":42,"Velocity":39,"Duration":51645,"SoundDuration":51645,"Delta":118624343},{"NoteNumber":40,"Velocity":39,"Duration":51131,"SoundDuration":51131,"Delta":118675989},{"NoteNumber":30,"Velocity":33,"Duration":51131,"SoundDuration":51131,"Delta":118675989},{"NoteNumber":34,"Velocity":33,"Duration":51131,"SoundDuration":51131,"Delta":118675989},{"NoteNumber":42,"Velocity":39,"Duration":50944,"SoundDuration":50944,"Delta":118727120},{"NoteNumber":88,"Velocity":64,"Duration":215218,"SoundDuration":215218,"Delta":118778065},{"NoteNumber":76,"Velocity":54,"Duration":215218,"SoundDuration":215218,"Delta":118778065},{"NoteNumber":85,"Velocity":54,"Duration":215218,"SoundDuration":215218,"Delta":118778065},{"NoteNumber":40,"Velocity":39,"Duration":55465,"SoundDuration":55465,"Delta":118778065},{"NoteNumber":30,"Velocity":33,"Duration":55465,"SoundDuration":55465,"Delta":118778065},{"NoteNumber":34,"Velocity":33,"Duration":55465,"SoundDuration":55465,"Delta":118778065},{"NoteNumber":42,"Velocity":39,"Duration":55465,"SoundDuration":55465,"Delta":118833530},{"NoteNumber":40,"Velocity":39,"Duration":53108,"SoundDuration":53108,"Delta":118888995},{"NoteNumber":30,"Velocity":33,"Duration":53108,"SoundDuration":53108,"Delta":118888995},{"NoteNumber":34,"Velocity":33,"Duration":53108,"SoundDuration":53108,"Delta":118888995},{"NoteNumber":42,"Velocity":39,"Duration":51179,"SoundDuration":51179,"Delta":118942104},{"NoteNumber":88,"Velocity":68,"Duration":203776,"SoundDuration":203776,"Delta":118993284},{"NoteNumber":76,"Velocity":57,"Duration":203776,"SoundDuration":203776,"Delta":118993284},{"NoteNumber":85,"Velocity":57,"Duration":203776,"SoundDuration":203776,"Delta":118993284},{"NoteNumber":30,"Velocity":36,"Duration":101888,"SoundDuration":101888,"Delta":118993284},{"NoteNumber":34,"Velocity":36,"Duration":101888,"SoundDuration":101888,"Delta":118993284},{"NoteNumber":40,"Velocity":39,"Duration":101888,"SoundDuration":101888,"Delta":118993284},{"NoteNumber":42,"Velocity":40,"Duration":101888,"SoundDuration":101888,"Delta":119095172},{"NoteNumber":87,"Velocity":66,"Duration":205694,"SoundDuration":205694,"Delta":119197060},{"NoteNumber":75,"Velocity":55,"Duration":205694,"SoundDuration":205694,"Delta":119197060},{"NoteNumber":83,"Velocity":55,"Duration":205694,"SoundDuration":205694,"Delta":119197060},{"NoteNumber":31,"Velocity":40,"Duration":102402,"SoundDuration":102402,"Delta":119197060},{"NoteNumber":42,"Velocity":40,"Duration":103291,"SoundDuration":103291,"Delta":119299463},{"NoteNumber":85,"Velocity":67,"Duration":207472,"SoundDuration":207472,"Delta":119402755},{"NoteNumber":73,"Velocity":56,"Duration":207472,"SoundDuration":207472,"Delta":119402755},{"NoteNumber":82,"Velocity":56,"Duration":207472,"SoundDuration":207472,"Delta":119402755},{"NoteNumber":32,"Velocity":40,"Duration":103291,"SoundDuration":103291,"Delta":119402755},{"NoteNumber":42,"Velocity":40,"Duration":104181,"SoundDuration":104181,"Delta":119506046},{"NoteNumber":83,"Velocity":69,"Duration":209468,"SoundDuration":209468,"Delta":119610227},{"NoteNumber":71,"Velocity":58,"Duration":209468,"SoundDuration":209468,"Delta":119610227},{"NoteNumber":80,"Velocity":58,"Duration":209468,"SoundDuration":209468,"Delta":119610227},{"NoteNumber":33,"Velocity":40,"Duration":104733,"SoundDuration":104733,"Delta":119610227},{"NoteNumber":42,"Velocity":41,"Duration":104734,"SoundDuration":104734,"Delta":119714961},{"NoteNumber":82,"Velocity":70,"Duration":212236,"SoundDuration":212236,"Delta":119819695},{"NoteNumber":70,"Velocity":59,"Duration":212236,"SoundDuration":212236,"Delta":119819695},{"NoteNumber":78,"Velocity":59,"Duration":212236,"SoundDuration":212236,"Delta":119819695},{"NoteNumber":34,"Velocity":41,"Duration":106019,"SoundDuration":106019,"Delta":119819695},{"NoteNumber":42,"Velocity":41,"Duration":106217,"SoundDuration":106217,"Delta":119925715},{"NoteNumber":80,"Velocity":72,"Duration":214138,"SoundDuration":214138,"Delta":120031932},{"NoteNumber":68,"Velocity":61,"Duration":214138,"SoundDuration":214138,"Delta":120031932},{"NoteNumber":76,"Velocity":61,"Duration":214138,"SoundDuration":214138,"Delta":120031932},{"NoteNumber":35,"Velocity":41,"Duration":106395,"SoundDuration":106395,"Delta":120031932},{"NoteNumber":42,"Velocity":42,"Duration":107743,"SoundDuration":107743,"Delta":120138327},{"NoteNumber":78,"Velocity":72,"Duration":216062,"SoundDuration":216062,"Delta":120246070},{"NoteNumber":66,"Velocity":61,"Duration":216062,"SoundDuration":216062,"Delta":120246070},{"NoteNumber":75,"Velocity":61,"Duration":216062,"SoundDuration":216062,"Delta":120246070},{"NoteNumber":36,"Velocity":42,"Duration":107743,"SoundDuration":107743,"Delta":120246070},{"NoteNumber":42,"Velocity":42,"Duration":108318,"SoundDuration":108318,"Delta":120353813},{"NoteNumber":76,"Velocity":73,"Duration":239354,"SoundDuration":239354,"Delta":120462132},{"NoteNumber":64,"Velocity":62,"Duration":239354,"SoundDuration":239354,"Delta":120462132},{"NoteNumber":73,"Velocity":62,"Duration":239354,"SoundDuration":239354,"Delta":120462132},{"NoteNumber":37,"Velocity":42,"Duration":127964,"SoundDuration":127964,"Delta":120462132},{"NoteNumber":42,"Velocity":42,"Duration":111389,"SoundDuration":111389,"Delta":120590097},{"NoteNumber":43,"Velocity":58,"Duration":474508,"SoundDuration":474508,"Delta":120647862},{"NoteNumber":49,"Velocity":60,"Duration":1668832,"SoundDuration":1668832,"Delta":120666081},{"NoteNumber":52,"Velocity":61,"Duration":1651129,"SoundDuration":1651129,"Delta":120683784},{"NoteNumber":76,"Velocity":69,"Duration":212434,"SoundDuration":212434,"Delta":120701487},{"NoteNumber":73,"Velocity":58,"Duration":212434,"SoundDuration":212434,"Delta":120701487},{"NoteNumber":64,"Velocity":58,"Duration":212434,"SoundDuration":212434,"Delta":120701487},{"NoteNumber":70,"Velocity":58,"Duration":212434,"SoundDuration":212434,"Delta":120701487},{"NoteNumber":58,"Velocity":63,"Duration":1633426,"SoundDuration":1633426,"Delta":120701487},{"NoteNumber":77,"Velocity":70,"Duration":211940,"SoundDuration":211940,"Delta":120913921},{"NoteNumber":65,"Velocity":59,"Duration":211940,"SoundDuration":211940,"Delta":120913921},{"NoteNumber":79,"Velocity":71,"Duration":209468,"SoundDuration":209468,"Delta":121125861},{"NoteNumber":67,"Velocity":60,"Duration":209468,"SoundDuration":209468,"Delta":121125861},{"NoteNumber":40,"Velocity":41,"Duration":104734,"SoundDuration":104734,"Delta":121125861},{"NoteNumber":37,"Velocity":36,"Duration":52367,"SoundDuration":52367,"Delta":121125861},{"NoteNumber":31,"Velocity":35,"Duration":52367,"SoundDuration":52367,"Delta":121125861},{"NoteNumber":34,"Velocity":35,"Duration":52367,"SoundDuration":52367,"Delta":121125861},{"NoteNumber":43,"Velocity":41,"Duration":52367,"SoundDuration":52367,"Delta":121178228},{"NoteNumber":40,"Velocity":42,"Duration":104733,"SoundDuration":104733,"Delta":121230595},{"NoteNumber":37,"Velocity":36,"Duration":52367,"SoundDuration":52367,"Delta":121230595},{"NoteNumber":31,"Velocity":35,"Duration":52367,"SoundDuration":52367,"Delta":121230595},{"NoteNumber":34,"Velocity":35,"Duration":52367,"SoundDuration":52367,"Delta":121230595},{"NoteNumber":43,"Velocity":42,"Duration":52366,"SoundDuration":52366,"Delta":121282962},{"NoteNumber":80,"Velocity":72,"Duration":208987,"SoundDuration":208987,"Delta":121335329},{"NoteNumber":68,"Velocity":61,"Duration":208987,"SoundDuration":208987,"Delta":121335329},{"NoteNumber":40,"Velocity":43,"Duration":104734,"SoundDuration":104734,"Delta":121335329},{"NoteNumber":37,"Velocity":36,"Duration":52367,"SoundDuration":52367,"Delta":121335329},{"NoteNumber":31,"Velocity":36,"Duration":52367,"SoundDuration":52367,"Delta":121335329},{"NoteNumber":34,"Velocity":36,"Duration":52367,"SoundDuration":52367,"Delta":121335329},{"NoteNumber":43,"Velocity":43,"Duration":52367,"SoundDuration":52367,"Delta":121387696},{"NoteNumber":40,"Velocity":44,"Duration":104253,"SoundDuration":104253,"Delta":121440063},{"NoteNumber":37,"Velocity":36,"Duration":52367,"SoundDuration":52367,"Delta":121440063},{"NoteNumber":31,"Velocity":36,"Duration":52367,"SoundDuration":52367,"Delta":121440063},{"NoteNumber":34,"Velocity":36,"Duration":52367,"SoundDuration":52367,"Delta":121440063},{"NoteNumber":43,"Velocity":44,"Duration":51886,"SoundDuration":51886,"Delta":121492430},{"NoteNumber":82,"Velocity":72,"Duration":206582,"SoundDuration":206582,"Delta":121544317},{"NoteNumber":70,"Velocity":61,"Duration":206582,"SoundDuration":206582,"Delta":121544317},{"NoteNumber":40,"Velocity":45,"Duration":103291,"SoundDuration":103291,"Delta":121544317},{"NoteNumber":37,"Velocity":36,"Duration":51645,"SoundDuration":51645,"Delta":121544317},{"NoteNumber":31,"Velocity":37,"Duration":51645,"SoundDuration":51645,"Delta":121544317},{"NoteNumber":34,"Velocity":37,"Duration":51645,"SoundDuration":51645,"Delta":121544317},{"NoteNumber":43,"Velocity":45,"Duration":51645,"SoundDuration":51645,"Delta":121595962},{"NoteNumber":40,"Velocity":45,"Duration":103291,"SoundDuration":103291,"Delta":121647608},{"NoteNumber":37,"Velocity":36,"Duration":51645,"SoundDuration":51645,"Delta":121647608},{"NoteNumber":31,"Velocity":38,"Duration":51645,"SoundDuration":51645,"Delta":121647608},{"NoteNumber":34,"Velocity":38,"Duration":51645,"SoundDuration":51645,"Delta":121647608},{"NoteNumber":43,"Velocity":46,"Duration":51645,"SoundDuration":51645,"Delta":121699254},{"NoteNumber":84,"Velocity":73,"Duration":206115,"SoundDuration":206115,"Delta":121750900},{"NoteNumber":72,"Velocity":62,"Duration":206115,"SoundDuration":206115,"Delta":121750900},{"NoteNumber":40,"Velocity":46,"Duration":103291,"SoundDuration":103291,"Delta":121750900},{"NoteNumber":37,"Velocity":36,"Duration":51645,"SoundDuration":51645,"Delta":121750900},{"NoteNumber":31,"Velocity":39,"Duration":51645,"SoundDuration":51645,"Delta":121750900},{"NoteNumber":34,"Velocity":39,"Duration":51645,"SoundDuration":51645,"Delta":121750900},{"NoteNumber":43,"Velocity":47,"Duration":51645,"SoundDuration":51645,"Delta":121802545},{"NoteNumber":40,"Velocity":47,"Duration":102823,"SoundDuration":102823,"Delta":121854191},{"NoteNumber":37,"Velocity":36,"Duration":51645,"SoundDuration":51645,"Delta":121854191},{"NoteNumber":31,"Velocity":40,"Duration":51645,"SoundDuration":51645,"Delta":121854191},{"NoteNumber":34,"Velocity":40,"Duration":51645,"SoundDuration":51645,"Delta":121854191},{"NoteNumber":43,"Velocity":48,"Duration":51178,"SoundDuration":51178,"Delta":121905837},{"NoteNumber":85,"Velocity":74,"Duration":203776,"SoundDuration":203776,"Delta":121957015},{"NoteNumber":73,"Velocity":63,"Duration":203776,"SoundDuration":203776,"Delta":121957015},{"NoteNumber":40,"Velocity":49,"Duration":101888,"SoundDuration":101888,"Delta":121957015},{"NoteNumber":37,"Velocity":36,"Duration":50944,"SoundDuration":50944,"Delta":121957015},{"NoteNumber":31,"Velocity":41,"Duration":50944,"SoundDuration":50944,"Delta":121957015},{"NoteNumber":34,"Velocity":41,"Duration":50944,"SoundDuration":50944,"Delta":121957015},{"NoteNumber":43,"Velocity":49,"Duration":50944,"SoundDuration":50944,"Delta":122007959},{"NoteNumber":40,"Velocity":50,"Duration":101888,"SoundDuration":101888,"Delta":122058903},{"NoteNumber":37,"Velocity":36,"Duration":50944,"SoundDuration":50944,"Delta":122058903},{"NoteNumber":31,"Velocity":42,"Duration":50944,"SoundDuration":50944,"Delta":122058903},{"NoteNumber":34,"Velocity":42,"Duration":50944,"SoundDuration":50944,"Delta":122058903},{"NoteNumber":43,"Velocity":50,"Duration":50944,"SoundDuration":50944,"Delta":122109847},{"NoteNumber":88,"Velocity":75,"Duration":232162,"SoundDuration":232162,"Delta":122160792},{"NoteNumber":76,"Velocity":63,"Duration":232162,"SoundDuration":232162,"Delta":122160792},{"NoteNumber":40,"Velocity":51,"Duration":116081,"SoundDuration":116081,"Delta":122160792},{"NoteNumber":37,"Velocity":36,"Duration":58040,"SoundDuration":58040,"Delta":122160792},{"NoteNumber":31,"Velocity":43,"Duration":58040,"SoundDuration":58040,"Delta":122160792},{"NoteNumber":34,"Velocity":43,"Duration":58040,"SoundDuration":58040,"Delta":122160792},{"NoteNumber":43,"Velocity":51,"Duration":58040,"SoundDuration":58040,"Delta":122218832},{"NoteNumber":40,"Velocity":52,"Duration":116081,"SoundDuration":116081,"Delta":122276873},{"NoteNumber":37,"Velocity":36,"Duration":58040,"SoundDuration":58040,"Delta":122276873},{"NoteNumber":31,"Velocity":44,"Duration":58040,"SoundDuration":58040,"Delta":122276873},{"NoteNumber":34,"Velocity":44,"Duration":58040,"SoundDuration":58040,"Delta":122276873},{"NoteNumber":44,"Velocity":59,"Duration":458801,"SoundDuration":458801,"Delta":122334913},{"NoteNumber":43,"Velocity":52,"Duration":58040,"SoundDuration":58040,"Delta":122334913},{"NoteNumber":48,"Velocity":61,"Duration":1644397,"SoundDuration":1644397,"Delta":122354260},{"NoteNumber":53,"Velocity":62,"Duration":1625050,"SoundDuration":1625050,"Delta":122373607},{"NoteNumber":89,"Velocity":76,"Duration":203776,"SoundDuration":203776,"Delta":122392954},{"NoteNumber":80,"Velocity":64,"Duration":203776,"SoundDuration":203776,"Delta":122392954},{"NoteNumber":77,"Velocity":64,"Duration":203776,"SoundDuration":203776,"Delta":122392954},{"NoteNumber":84,"Velocity":64,"Duration":203776,"SoundDuration":203776,"Delta":122392954},{"NoteNumber":56,"Velocity":63,"Duration":1605704,"SoundDuration":1605704,"Delta":122392954},{"NoteNumber":87,"Velocity":76,"Duration":203776,"SoundDuration":203776,"Delta":122596731},{"NoteNumber":75,"Velocity":64,"Duration":203776,"SoundDuration":203776,"Delta":122596731},{"NoteNumber":85,"Velocity":75,"Duration":203776,"SoundDuration":203776,"Delta":122800507},{"NoteNumber":73,"Velocity":63,"Duration":203776,"SoundDuration":203776,"Delta":122800507},{"NoteNumber":41,"Velocity":45,"Duration":50944,"SoundDuration":50944,"Delta":122800507},{"NoteNumber":32,"Velocity":38,"Duration":50944,"SoundDuration":50944,"Delta":122800507},{"NoteNumber":36,"Velocity":38,"Duration":50944,"SoundDuration":50944,"Delta":122800507},{"NoteNumber":44,"Velocity":45,"Duration":50944,"SoundDuration":50944,"Delta":122851452},{"NoteNumber":41,"Velocity":45,"Duration":50944,"SoundDuration":50944,"Delta":122902396},{"NoteNumber":32,"Velocity":38,"Duration":50944,"SoundDuration":50944,"Delta":122902396},{"NoteNumber":36,"Velocity":38,"Duration":50944,"SoundDuration":50944,"Delta":122902396},{"NoteNumber":44,"Velocity":46,"Duration":50944,"SoundDuration":50944,"Delta":122953340},{"NoteNumber":84,"Velocity":75,"Duration":206349,"SoundDuration":206349,"Delta":123004284},{"NoteNumber":72,"Velocity":63,"Duration":206349,"SoundDuration":206349,"Delta":123004284},{"NoteNumber":41,"Velocity":46,"Duration":51411,"SoundDuration":51411,"Delta":123004284},{"NoteNumber":32,"Velocity":39,"Duration":51411,"SoundDuration":51411,"Delta":123004284},{"NoteNumber":36,"Velocity":39,"Duration":51411,"SoundDuration":51411,"Delta":123004284},{"NoteNumber":44,"Velocity":47,"Duration":51645,"SoundDuration":51645,"Delta":123055696},{"NoteNumber":41,"Velocity":47,"Duration":51645,"SoundDuration":51645,"Delta":123107342},{"NoteNumber":32,"Velocity":40,"Duration":51645,"SoundDuration":51645,"Delta":123107342},{"NoteNumber":36,"Velocity":40,"Duration":51645,"SoundDuration":51645,"Delta":123107342},{"NoteNumber":44,"Velocity":48,"Duration":51645,"SoundDuration":51645,"Delta":123158988},{"NoteNumber":82,"Velocity":74,"Duration":207785,"SoundDuration":207785,"Delta":123210633},{"NoteNumber":70,"Velocity":63,"Duration":207785,"SoundDuration":207785,"Delta":123210633},{"NoteNumber":41,"Velocity":48,"Duration":51645,"SoundDuration":51645,"Delta":123210633},{"NoteNumber":32,"Velocity":40,"Duration":51645,"SoundDuration":51645,"Delta":123210633},{"NoteNumber":36,"Velocity":40,"Duration":51645,"SoundDuration":51645,"Delta":123210633},{"NoteNumber":44,"Velocity":49,"Duration":51645,"SoundDuration":51645,"Delta":123262279},{"NoteNumber":41,"Velocity":49,"Duration":52126,"SoundDuration":52126,"Delta":123313925},{"NoteNumber":32,"Velocity":41,"Duration":52126,"SoundDuration":52126,"Delta":123313925},{"NoteNumber":36,"Velocity":41,"Duration":52126,"SoundDuration":52126,"Delta":123313925},{"NoteNumber":44,"Velocity":50,"Duration":52367,"SoundDuration":52367,"Delta":123366051},{"NoteNumber":80,"Velocity":73,"Duration":209468,"SoundDuration":209468,"Delta":123418418},{"NoteNumber":68,"Velocity":62,"Duration":209468,"SoundDuration":209468,"Delta":123418418},{"NoteNumber":41,"Velocity":50,"Duration":52367,"SoundDuration":52367,"Delta":123418418},{"NoteNumber":32,"Velocity":42,"Duration":52367,"SoundDuration":52367,"Delta":123418418},{"NoteNumber":36,"Velocity":42,"Duration":52367,"SoundDuration":52367,"Delta":123418418},{"NoteNumber":44,"Velocity":50,"Duration":52367,"SoundDuration":52367,"Delta":123470785},{"NoteNumber":41,"Velocity":51,"Duration":52366,"SoundDuration":52366,"Delta":123523152},{"NoteNumber":32,"Velocity":43,"Duration":52366,"SoundDuration":52366,"Delta":123523152},{"NoteNumber":36,"Velocity":43,"Duration":52366,"SoundDuration":52366,"Delta":123523152},{"NoteNumber":44,"Velocity":51,"Duration":52367,"SoundDuration":52367,"Delta":123575519},{"NoteNumber":79,"Velocity":72,"Duration":211445,"SoundDuration":211445,"Delta":123627886},{"NoteNumber":67,"Velocity":61,"Duration":211445,"SoundDuration":211445,"Delta":123627886},{"NoteNumber":41,"Velocity":52,"Duration":52367,"SoundDuration":52367,"Delta":123627886},{"NoteNumber":32,"Velocity":44,"Duration":52367,"SoundDuration":52367,"Delta":123627886},{"NoteNumber":36,"Velocity":44,"Duration":52367,"SoundDuration":52367,"Delta":123627886},{"NoteNumber":44,"Velocity":52,"Duration":52861,"SoundDuration":52861,"Delta":123680253},{"NoteNumber":41,"Velocity":53,"Duration":53108,"SoundDuration":53108,"Delta":123733115},{"NoteNumber":32,"Velocity":45,"Duration":53108,"SoundDuration":53108,"Delta":123733115},{"NoteNumber":36,"Velocity":45,"Duration":53108,"SoundDuration":53108,"Delta":123733115},{"NoteNumber":44,"Velocity":53,"Duration":53108,"SoundDuration":53108,"Delta":123786223},{"NoteNumber":77,"Velocity":72,"Duration":212434,"SoundDuration":212434,"Delta":123839332},{"NoteNumber":65,"Velocity":61,"Duration":212434,"SoundDuration":212434,"Delta":123839332},{"NoteNumber":41,"Velocity":54,"Duration":53108,"SoundDuration":53108,"Delta":123839332},{"NoteNumber":32,"Velocity":45,"Duration":53108,"SoundDuration":53108,"Delta":123839332},{"NoteNumber":36,"Velocity":45,"Duration":53108,"SoundDuration":53108,"Delta":123839332},{"NoteNumber":44,"Velocity":54,"Duration":53108,"SoundDuration":53108,"Delta":123892441},{"NoteNumber":41,"Velocity":54,"Duration":53108,"SoundDuration":53108,"Delta":123945549},{"NoteNumber":32,"Velocity":45,"Duration":53108,"SoundDuration":53108,"Delta":123945549},{"NoteNumber":36,"Velocity":45,"Duration":53108,"SoundDuration":53108,"Delta":123945549},{"NoteNumber":45,"Velocity":62,"Duration":472113,"SoundDuration":472113,"Delta":123998658},{"NoteNumber":44,"Velocity":54,"Duration":49568,"SoundDuration":49568,"Delta":123998658},{"NoteNumber":51,"Velocity":63,"Duration":1650163,"SoundDuration":1650163,"Delta":124016361},{"NoteNumber":54,"Velocity":66,"Duration":1632460,"SoundDuration":1632460,"Delta":124034064},{"NoteNumber":78,"Velocity":72,"Duration":212434,"SoundDuration":212434,"Delta":124051767},{"NoteNumber":75,"Velocity":61,"Duration":212434,"SoundDuration":212434,"Delta":124051767},{"NoteNumber":66,"Velocity":61,"Duration":212434,"SoundDuration":212434,"Delta":124051767},{"NoteNumber":72,"Velocity":61,"Duration":212434,"SoundDuration":212434,"Delta":124051767},{"NoteNumber":60,"Velocity":70,"Duration":1614757,"SoundDuration":1614757,"Delta":124051767},{"NoteNumber":79,"Velocity":71,"Duration":210061,"SoundDuration":210061,"Delta":124264201},{"NoteNumber":67,"Velocity":60,"Duration":210061,"SoundDuration":210061,"Delta":124264201},{"NoteNumber":81,"Velocity":72,"Duration":208313,"SoundDuration":208313,"Delta":124474262},{"NoteNumber":69,"Velocity":61,"Duration":208313,"SoundDuration":208313,"Delta":124474262},{"NoteNumber":42,"Velocity":40,"Duration":104733,"SoundDuration":104733,"Delta":124474262},{"NoteNumber":39,"Velocity":40,"Duration":52366,"SoundDuration":52366,"Delta":124474262},{"NoteNumber":33,"Velocity":34,"Duration":52366,"SoundDuration":52366,"Delta":124474262},{"NoteNumber":36,"Velocity":34,"Duration":52366,"SoundDuration":52366,"Delta":124474262},{"NoteNumber":45,"Velocity":41,"Duration":52367,"SoundDuration":52367,"Delta":124526629},{"NoteNumber":42,"Velocity":42,"Duration":103579,"SoundDuration":103579,"Delta":124578996},{"NoteNumber":39,"Velocity":42,"Duration":51934,"SoundDuration":51934,"Delta":124578996},{"NoteNumber":33,"Velocity":35,"Duration":51934,"SoundDuration":51934,"Delta":124578996},{"NoteNumber":36,"Velocity":35,"Duration":51934,"SoundDuration":51934,"Delta":124578996},{"NoteNumber":45,"Velocity":43,"Duration":51645,"SoundDuration":51645,"Delta":124630931},{"NoteNumber":82,"Velocity":72,"Duration":206582,"SoundDuration":206582,"Delta":124682576},{"NoteNumber":70,"Velocity":61,"Duration":206582,"SoundDuration":206582,"Delta":124682576},{"NoteNumber":42,"Velocity":44,"Duration":103291,"SoundDuration":103291,"Delta":124682576},{"NoteNumber":39,"Velocity":44,"Duration":51645,"SoundDuration":51645,"Delta":124682576},{"NoteNumber":33,"Velocity":36,"Duration":51645,"SoundDuration":51645,"Delta":124682576},{"NoteNumber":36,"Velocity":36,"Duration":51645,"SoundDuration":51645,"Delta":124682576},{"NoteNumber":45,"Velocity":45,"Duration":51645,"SoundDuration":51645,"Delta":124734222},{"NoteNumber":42,"Velocity":45,"Duration":103291,"SoundDuration":103291,"Delta":124785868},{"NoteNumber":39,"Velocity":45,"Duration":51645,"SoundDuration":51645,"Delta":124785868},{"NoteNumber":33,"Velocity":38,"Duration":51645,"SoundDuration":51645,"Delta":124785868},{"NoteNumber":36,"Velocity":38,"Duration":51645,"SoundDuration":51645,"Delta":124785868},{"NoteNumber":45,"Velocity":46,"Duration":51645,"SoundDuration":51645,"Delta":124837514},{"NoteNumber":84,"Velocity":74,"Duration":203776,"SoundDuration":203776,"Delta":124889159},{"NoteNumber":72,"Velocity":63,"Duration":203776,"SoundDuration":203776,"Delta":124889159},{"NoteNumber":42,"Velocity":47,"Duration":101888,"SoundDuration":101888,"Delta":124889159},{"NoteNumber":39,"Velocity":47,"Duration":50944,"SoundDuration":50944,"Delta":124889159},{"NoteNumber":33,"Velocity":40,"Duration":50944,"SoundDuration":50944,"Delta":124889159},{"NoteNumber":36,"Velocity":40,"Duration":50944,"SoundDuration":50944,"Delta":124889159},{"NoteNumber":45,"Velocity":48,"Duration":50944,"SoundDuration":50944,"Delta":124940104},{"NoteNumber":42,"Velocity":48,"Duration":101888,"SoundDuration":101888,"Delta":124991048},{"NoteNumber":39,"Velocity":48,"Duration":50944,"SoundDuration":50944,"Delta":124991048},{"NoteNumber":33,"Velocity":40,"Duration":50944,"SoundDuration":50944,"Delta":124991048},{"NoteNumber":36,"Velocity":40,"Duration":50944,"SoundDuration":50944,"Delta":124991048},{"NoteNumber":45,"Velocity":49,"Duration":50944,"SoundDuration":50944,"Delta":125041992},{"NoteNumber":86,"Velocity":75,"Duration":202137,"SoundDuration":202137,"Delta":125092936},{"NoteNumber":74,"Velocity":63,"Duration":202137,"SoundDuration":202137,"Delta":125092936},{"NoteNumber":42,"Velocity":50,"Duration":101615,"SoundDuration":101615,"Delta":125092936},{"NoteNumber":39,"Velocity":50,"Duration":50944,"SoundDuration":50944,"Delta":125092936},{"NoteNumber":33,"Velocity":42,"Duration":50944,"SoundDuration":50944,"Delta":125092936},{"NoteNumber":36,"Velocity":42,"Duration":50944,"SoundDuration":50944,"Delta":125092936},{"NoteNumber":45,"Velocity":51,"Duration":50671,"SoundDuration":50671,"Delta":125143880},{"NoteNumber":42,"Velocity":52,"Duration":100522,"SoundDuration":100522,"Delta":125194551},{"NoteNumber":39,"Velocity":52,"Duration":50261,"SoundDuration":50261,"Delta":125194551},{"NoteNumber":33,"Velocity":44,"Duration":50261,"SoundDuration":50261,"Delta":125194551},{"NoteNumber":36,"Velocity":44,"Duration":50261,"SoundDuration":50261,"Delta":125194551},{"NoteNumber":45,"Velocity":53,"Duration":50261,"SoundDuration":50261,"Delta":125244813},{"NoteNumber":87,"Velocity":76,"Duration":199981,"SoundDuration":199981,"Delta":125295074},{"NoteNumber":75,"Velocity":64,"Duration":199981,"SoundDuration":199981,"Delta":125295074},{"NoteNumber":42,"Velocity":54,"Duration":100522,"SoundDuration":100522,"Delta":125295074},{"NoteNumber":39,"Velocity":54,"Duration":50261,"SoundDuration":50261,"Delta":125295074},{"NoteNumber":33,"Velocity":45,"Duration":50261,"SoundDuration":50261,"Delta":125295074},{"NoteNumber":36,"Velocity":45,"Duration":50261,"SoundDuration":50261,"Delta":125295074},{"NoteNumber":45,"Velocity":54,"Duration":50261,"SoundDuration":50261,"Delta":125345335},{"NoteNumber":42,"Velocity":55,"Duration":99459,"SoundDuration":99459,"Delta":125395597},{"NoteNumber":39,"Velocity":55,"Duration":49862,"SoundDuration":49862,"Delta":125395597},{"NoteNumber":33,"Velocity":46,"Duration":49862,"SoundDuration":49862,"Delta":125395597},{"NoteNumber":36,"Velocity":46,"Duration":49862,"SoundDuration":49862,"Delta":125395597},{"NoteNumber":45,"Velocity":56,"Duration":49596,"SoundDuration":49596,"Delta":125445459},{"NoteNumber":90,"Velocity":77,"Duration":228623,"SoundDuration":228623,"Delta":125495056},{"NoteNumber":78,"Velocity":65,"Duration":228623,"SoundDuration":228623,"Delta":125495056},{"NoteNumber":42,"Velocity":57,"Duration":114311,"SoundDuration":114311,"Delta":125495056},{"NoteNumber":39,"Velocity":57,"Duration":57155,"SoundDuration":57155,"Delta":125495056},{"NoteNumber":33,"Velocity":48,"Duration":57155,"SoundDuration":57155,"Delta":125495056},{"NoteNumber":36,"Velocity":48,"Duration":57155,"SoundDuration":57155,"Delta":125495056},{"NoteNumber":45,"Velocity":58,"Duration":57155,"SoundDuration":57155,"Delta":125552212},{"NoteNumber":42,"Velocity":59,"Duration":114311,"SoundDuration":114311,"Delta":125609368},{"NoteNumber":39,"Velocity":59,"Duration":57155,"SoundDuration":57155,"Delta":125609368},{"NoteNumber":33,"Velocity":50,"Duration":57155,"SoundDuration":57155,"Delta":125609368},{"NoteNumber":36,"Velocity":50,"Duration":57155,"SoundDuration":57155,"Delta":125609368},{"NoteNumber":46,"Velocity":65,"Duration":444208,"SoundDuration":444208,"Delta":125666524},{"NoteNumber":45,"Velocity":59,"Duration":57155,"SoundDuration":57155,"Delta":125666524},{"NoteNumber":50,"Velocity":67,"Duration":1611774,"SoundDuration":1611774,"Delta":125685576},{"NoteNumber":55,"Velocity":69,"Duration":1592723,"SoundDuration":1592723,"Delta":125704628},{"NoteNumber":91,"Velocity":79,"Duration":195796,"SoundDuration":195796,"Delta":125723680},{"NoteNumber":82,"Velocity":66,"Duration":195796,"SoundDuration":195796,"Delta":125723680},{"NoteNumber":79,"Velocity":66,"Duration":195796,"SoundDuration":195796,"Delta":125723680},{"NoteNumber":86,"Velocity":66,"Duration":195796,"SoundDuration":195796,"Delta":125723680},{"NoteNumber":58,"Velocity":71,"Duration":1573671,"SoundDuration":1573671,"Delta":125723680},{"NoteNumber":89,"Velocity":78,"Duration":197868,"SoundDuration":197868,"Delta":125919477},{"NoteNumber":77,"Velocity":65,"Duration":197868,"SoundDuration":197868,"Delta":125919477},{"NoteNumber":87,"Velocity":79,"Duration":199981,"SoundDuration":199981,"Delta":126117345},{"NoteNumber":75,"Velocity":66,"Duration":199981,"SoundDuration":199981,"Delta":126117345},{"NoteNumber":43,"Velocity":41,"Duration":49596,"SoundDuration":49596,"Delta":126117345},{"NoteNumber":34,"Velocity":35,"Duration":49596,"SoundDuration":49596,"Delta":126117345},{"NoteNumber":38,"Velocity":35,"Duration":49596,"SoundDuration":49596,"Delta":126117345},{"NoteNumber":46,"Velocity":42,"Duration":49862,"SoundDuration":49862,"Delta":126166942},{"NoteNumber":43,"Velocity":42,"Duration":50261,"SoundDuration":50261,"Delta":126216804},{"NoteNumber":34,"Velocity":35,"Duration":50261,"SoundDuration":50261,"Delta":126216804},{"NoteNumber":38,"Velocity":35,"Duration":50261,"SoundDuration":50261,"Delta":126216804},{"NoteNumber":46,"Velocity":43,"Duration":50261,"SoundDuration":50261,"Delta":126267066},{"NoteNumber":86,"Velocity":79,"Duration":202138,"SoundDuration":202138,"Delta":126317327},{"NoteNumber":74,"Velocity":66,"Duration":202138,"SoundDuration":202138,"Delta":126317327},{"NoteNumber":43,"Velocity":44,"Duration":50261,"SoundDuration":50261,"Delta":126317327},{"NoteNumber":34,"Velocity":36,"Duration":50261,"SoundDuration":50261,"Delta":126317327},{"NoteNumber":38,"Velocity":36,"Duration":50261,"SoundDuration":50261,"Delta":126317327},{"NoteNumber":46,"Velocity":45,"Duration":50261,"SoundDuration":50261,"Delta":126367589},{"NoteNumber":43,"Velocity":45,"Duration":50671,"SoundDuration":50671,"Delta":126417850},{"NoteNumber":34,"Velocity":37,"Duration":50671,"SoundDuration":50671,"Delta":126417850},{"NoteNumber":38,"Velocity":37,"Duration":50671,"SoundDuration":50671,"Delta":126417850},{"NoteNumber":46,"Velocity":45,"Duration":50944,"SoundDuration":50944,"Delta":126468521},{"NoteNumber":84,"Velocity":80,"Duration":204337,"SoundDuration":204337,"Delta":126519465},{"NoteNumber":72,"Velocity":67,"Duration":204337,"SoundDuration":204337,"Delta":126519465},{"NoteNumber":43,"Velocity":46,"Duration":50944,"SoundDuration":50944,"Delta":126519465},{"NoteNumber":34,"Velocity":39,"Duration":50944,"SoundDuration":50944,"Delta":126519465},{"NoteNumber":38,"Velocity":39,"Duration":50944,"SoundDuration":50944,"Delta":126519465},{"NoteNumber":46,"Velocity":47,"Duration":50944,"SoundDuration":50944,"Delta":126570409},{"NoteNumber":43,"Velocity":47,"Duration":50944,"SoundDuration":50944,"Delta":126621354},{"NoteNumber":34,"Velocity":40,"Duration":50944,"SoundDuration":50944,"Delta":126621354},{"NoteNumber":38,"Velocity":40,"Duration":50944,"SoundDuration":50944,"Delta":126621354},{"NoteNumber":46,"Velocity":48,"Duration":51505,"SoundDuration":51505,"Delta":126672298},{"NoteNumber":82,"Velocity":81,"Duration":206582,"SoundDuration":206582,"Delta":126723803},{"NoteNumber":70,"Velocity":68,"Duration":206582,"SoundDuration":206582,"Delta":126723803},{"NoteNumber":43,"Velocity":49,"Duration":51645,"SoundDuration":51645,"Delta":126723803},{"NoteNumber":34,"Velocity":41,"Duration":51645,"SoundDuration":51645,"Delta":126723803},{"NoteNumber":38,"Velocity":41,"Duration":51645,"SoundDuration":51645,"Delta":126723803},{"NoteNumber":46,"Velocity":50,"Duration":51645,"SoundDuration":51645,"Delta":126775449},{"NoteNumber":43,"Velocity":50,"Duration":51645,"SoundDuration":51645,"Delta":126827095},{"NoteNumber":34,"Velocity":42,"Duration":51645,"SoundDuration":51645,"Delta":126827095},{"NoteNumber":38,"Velocity":42,"Duration":51645,"SoundDuration":51645,"Delta":126827095},{"NoteNumber":46,"Velocity":51,"Duration":51645,"SoundDuration":51645,"Delta":126878740},{"NoteNumber":81,"Velocity":81,"Duration":209467,"SoundDuration":209467,"Delta":126930386},{"NoteNumber":69,"Velocity":69,"Duration":209467,"SoundDuration":209467,"Delta":126930386},{"NoteNumber":43,"Velocity":52,"Duration":52367,"SoundDuration":52367,"Delta":126930386},{"NoteNumber":34,"Velocity":44,"Duration":52367,"SoundDuration":52367,"Delta":126930386},{"NoteNumber":38,"Velocity":44,"Duration":52367,"SoundDuration":52367,"Delta":126930386},{"NoteNumber":46,"Velocity":53,"Duration":52367,"SoundDuration":52367,"Delta":126982753},{"NoteNumber":43,"Velocity":53,"Duration":52367,"SoundDuration":52367,"Delta":127035120},{"NoteNumber":34,"Velocity":45,"Duration":52367,"SoundDuration":52367,"Delta":127035120},{"NoteNumber":38,"Velocity":45,"Duration":52367,"SoundDuration":52367,"Delta":127035120},{"NoteNumber":46,"Velocity":54,"Duration":52366,"SoundDuration":52366,"Delta":127087487},{"NoteNumber":79,"Velocity":82,"Duration":209502,"SoundDuration":209502,"Delta":127139854},{"NoteNumber":67,"Velocity":70,"Duration":209502,"SoundDuration":209502,"Delta":127139854},{"NoteNumber":43,"Velocity":54,"Duration":52515,"SoundDuration":52515,"Delta":127139854},{"NoteNumber":34,"Velocity":45,"Duration":52515,"SoundDuration":52515,"Delta":127139854},{"NoteNumber":38,"Velocity":45,"Duration":52515,"SoundDuration":52515,"Delta":127139854},{"NoteNumber":46,"Velocity":55,"Duration":52614,"SoundDuration":52614,"Delta":127192370},{"NoteNumber":43,"Velocity":55,"Duration":52367,"SoundDuration":52367,"Delta":127244984},{"NoteNumber":34,"Velocity":46,"Duration":52367,"SoundDuration":52367,"Delta":127244984},{"NoteNumber":38,"Velocity":46,"Duration":52367,"SoundDuration":52367,"Delta":127244984},{"NoteNumber":47,"Velocity":63,"Duration":821430,"SoundDuration":821430,"Delta":127297351},{"NoteNumber":46,"Velocity":56,"Duration":52006,"SoundDuration":52006,"Delta":127297351},{"NoteNumber":53,"Velocity":64,"Duration":803975,"SoundDuration":803975,"Delta":127314806},{"NoteNumber":56,"Velocity":66,"Duration":786639,"SoundDuration":786639,"Delta":127332142},{"NoteNumber":77,"Velocity":86,"Duration":206583,"SoundDuration":206583,"Delta":127349357},{"NoteNumber":80,"Velocity":86,"Duration":206583,"SoundDuration":206583,"Delta":127349357},{"NoteNumber":68,"Velocity":72,"Duration":206583,"SoundDuration":206583,"Delta":127349357},{"NoteNumber":74,"Velocity":72,"Duration":206583,"SoundDuration":206583,"Delta":127349357},{"NoteNumber":62,"Velocity":69,"Duration":769424,"SoundDuration":769424,"Delta":127349357},{"NoteNumber":81,"Velocity":82,"Duration":206232,"SoundDuration":206232,"Delta":127555940},{"NoteNumber":69,"Velocity":70,"Duration":206232,"SoundDuration":206232,"Delta":127555940},{"NoteNumber":82,"Velocity":82,"Duration":203776,"SoundDuration":203776,"Delta":127762172},{"NoteNumber":70,"Velocity":70,"Duration":203776,"SoundDuration":203776,"Delta":127762172},{"NoteNumber":44,"Velocity":62,"Duration":203776,"SoundDuration":203776,"Delta":127762172},{"NoteNumber":35,"Velocity":52,"Duration":203776,"SoundDuration":203776,"Delta":127762172},{"NoteNumber":41,"Velocity":52,"Duration":203776,"SoundDuration":203776,"Delta":127762172},{"NoteNumber":83,"Velocity":82,"Duration":203435,"SoundDuration":203435,"Delta":127965949},{"NoteNumber":71,"Velocity":70,"Duration":203435,"SoundDuration":203435,"Delta":127965949},{"NoteNumber":47,"Velocity":61,"Duration":1616352,"SoundDuration":1616352,"Delta":128118782},{"NoteNumber":53,"Velocity":63,"Duration":1599371,"SoundDuration":1599371,"Delta":128135763},{"NoteNumber":56,"Velocity":64,"Duration":1582503,"SoundDuration":1582503,"Delta":128152631},{"NoteNumber":84,"Velocity":83,"Duration":201227,"SoundDuration":201227,"Delta":128169384},{"NoteNumber":72,"Velocity":72,"Duration":201227,"SoundDuration":201227,"Delta":128169384},{"NoteNumber":62,"Velocity":67,"Duration":1565750,"SoundDuration":1565750,"Delta":128169384},{"NoteNumber":85,"Velocity":84,"Duration":203776,"SoundDuration":203776,"Delta":128370612},{"NoteNumber":73,"Velocity":71,"Duration":203776,"SoundDuration":203776,"Delta":128370612},{"NoteNumber":86,"Velocity":86,"Duration":203776,"SoundDuration":203776,"Delta":128574389},{"NoteNumber":74,"Velocity":72,"Duration":203776,"SoundDuration":203776,"Delta":128574389},{"NoteNumber":44,"Velocity":61,"Duration":203776,"SoundDuration":203776,"Delta":128574389},{"NoteNumber":35,"Velocity":51,"Duration":203776,"SoundDuration":203776,"Delta":128574389},{"NoteNumber":41,"Velocity":51,"Duration":203776,"SoundDuration":203776,"Delta":128574389},{"NoteNumber":87,"Velocity":86,"Duration":203048,"SoundDuration":203048,"Delta":128778166},{"NoteNumber":75,"Velocity":72,"Duration":203048,"SoundDuration":203048,"Delta":128778166},{"NoteNumber":88,"Velocity":86,"Duration":201045,"SoundDuration":201045,"Delta":128981214},{"NoteNumber":76,"Velocity":72,"Duration":201045,"SoundDuration":201045,"Delta":128981214},{"NoteNumber":50,"Velocity":61,"Duration":201045,"SoundDuration":201045,"Delta":128981214},{"NoteNumber":41,"Velocity":51,"Duration":201045,"SoundDuration":201045,"Delta":128981214},{"NoteNumber":44,"Velocity":51,"Duration":201045,"SoundDuration":201045,"Delta":128981214},{"NoteNumber":89,"Velocity":84,"Duration":201045,"SoundDuration":201045,"Delta":129182259},{"NoteNumber":77,"Velocity":71,"Duration":201045,"SoundDuration":201045,"Delta":129182259},{"NoteNumber":90,"Velocity":84,"Duration":201045,"SoundDuration":201045,"Delta":129383305},{"NoteNumber":78,"Velocity":71,"Duration":201045,"SoundDuration":201045,"Delta":129383305},{"NoteNumber":44,"Velocity":61,"Duration":201045,"SoundDuration":201045,"Delta":129383305},{"NoteNumber":35,"Velocity":51,"Duration":201045,"SoundDuration":201045,"Delta":129383305},{"NoteNumber":41,"Velocity":51,"Duration":201045,"SoundDuration":201045,"Delta":129383305},{"NoteNumber":91,"Velocity":84,"Duration":200868,"SoundDuration":200868,"Delta":129584350},{"NoteNumber":79,"Velocity":71,"Duration":200868,"SoundDuration":200868,"Delta":129584350},{"NoteNumber":47,"Velocity":63,"Duration":793990,"SoundDuration":793990,"Delta":129735135},{"NoteNumber":53,"Velocity":65,"Duration":777236,"SoundDuration":777236,"Delta":129751888},{"NoteNumber":56,"Velocity":66,"Duration":760482,"SoundDuration":760482,"Delta":129768642},{"NoteNumber":92,"Velocity":86,"Duration":198386,"SoundDuration":198386,"Delta":129785219},{"NoteNumber":80,"Velocity":72,"Duration":198386,"SoundDuration":198386,"Delta":129785219},{"NoteNumber":62,"Velocity":68,"Duration":743906,"SoundDuration":743906,"Delta":129785219},{"NoteNumber":93,"Velocity":84,"Duration":198386,"SoundDuration":198386,"Delta":129983605},{"NoteNumber":81,"Velocity":71,"Duration":198386,"SoundDuration":198386,"Delta":129983605},{"NoteNumber":94,"Velocity":84,"Duration":198386,"SoundDuration":198386,"Delta":130181992},{"NoteNumber":82,"Velocity":71,"Duration":198386,"SoundDuration":198386,"Delta":130181992},{"NoteNumber":44,"Velocity":63,"Duration":198386,"SoundDuration":198386,"Delta":130181992},{"NoteNumber":35,"Velocity":54,"Duration":198386,"SoundDuration":198386,"Delta":130181992},{"NoteNumber":41,"Velocity":54,"Duration":198386,"SoundDuration":198386,"Delta":130181992},{"NoteNumber":95,"Velocity":84,"Duration":197695,"SoundDuration":197695,"Delta":130380378},{"NoteNumber":83,"Velocity":71,"Duration":197695,"SoundDuration":197695,"Delta":130380378},{"NoteNumber":47,"Velocity":63,"Duration":1162074,"SoundDuration":1162074,"Delta":130529125},{"NoteNumber":53,"Velocity":65,"Duration":1162512,"SoundDuration":1162512,"Delta":130545441},{"NoteNumber":56,"Velocity":67,"Duration":1162949,"SoundDuration":1162949,"Delta":130561758},{"NoteNumber":96,"Velocity":85,"Duration":195796,"SoundDuration":195796,"Delta":130578074},{"NoteNumber":84,"Velocity":72,"Duration":195796,"SoundDuration":195796,"Delta":130578074},{"NoteNumber":62,"Velocity":69,"Duration":1163500,"SoundDuration":1163500,"Delta":130578074},{"NoteNumber":97,"Velocity":86,"Duration":195796,"SoundDuration":195796,"Delta":130773871},{"NoteNumber":85,"Velocity":72,"Duration":195796,"SoundDuration":195796,"Delta":130773871},{"NoteNumber":98,"Velocity":87,"Duration":195796,"SoundDuration":195796,"Delta":130969668},{"NoteNumber":86,"Velocity":73,"Duration":195796,"SoundDuration":195796,"Delta":130969668},{"NoteNumber":44,"Velocity":58,"Duration":195796,"SoundDuration":195796,"Delta":130969668},{"NoteNumber":35,"Velocity":49,"Duration":195796,"SoundDuration":195796,"Delta":130969668},{"NoteNumber":41,"Velocity":49,"Duration":195796,"SoundDuration":195796,"Delta":130969668},{"NoteNumber":99,"Velocity":87,"Duration":195796,"SoundDuration":195796,"Delta":131165465},{"NoteNumber":87,"Velocity":73,"Duration":195796,"SoundDuration":195796,"Delta":131165465},{"NoteNumber":100,"Velocity":88,"Duration":196638,"SoundDuration":196638,"Delta":131361262},{"NoteNumber":88,"Velocity":74,"Duration":196638,"SoundDuration":196638,"Delta":131361262},{"NoteNumber":50,"Velocity":64,"Duration":196638,"SoundDuration":196638,"Delta":131361262},{"NoteNumber":41,"Velocity":54,"Duration":196638,"SoundDuration":196638,"Delta":131361262},{"NoteNumber":44,"Velocity":54,"Duration":196638,"SoundDuration":196638,"Delta":131361262},{"NoteNumber":98,"Velocity":89,"Duration":200655,"SoundDuration":200655,"Delta":131557901},{"NoteNumber":101,"Velocity":89,"Duration":200655,"SoundDuration":200655,"Delta":131557901},{"NoteNumber":89,"Velocity":75,"Duration":200655,"SoundDuration":200655,"Delta":131557901},{"NoteNumber":98,"Velocity":75,"Duration":204688,"SoundDuration":204688,"Delta":131758556},{"NoteNumber":101,"Velocity":90,"Duration":204688,"SoundDuration":204688,"Delta":131758556},{"NoteNumber":90,"Velocity":75,"Duration":204688,"SoundDuration":204688,"Delta":131758556},{"NoteNumber":56,"Velocity":70,"Duration":204688,"SoundDuration":204688,"Delta":131758556},{"NoteNumber":47,"Velocity":59,"Duration":204688,"SoundDuration":204688,"Delta":131758556},{"NoteNumber":53,"Velocity":59,"Duration":204688,"SoundDuration":204688,"Delta":131758556},{"NoteNumber":98,"Velocity":76,"Duration":209045,"SoundDuration":209045,"Delta":131963245},{"NoteNumber":101,"Velocity":90,"Duration":209045,"SoundDuration":209045,"Delta":131963245},{"NoteNumber":91,"Velocity":76,"Duration":209045,"SoundDuration":209045,"Delta":131963245},{"NoteNumber":98,"Velocity":91,"Duration":424869,"SoundDuration":424869,"Delta":132172291},{"NoteNumber":101,"Velocity":91,"Duration":424869,"SoundDuration":424869,"Delta":132172291},{"NoteNumber":92,"Velocity":77,"Duration":424869,"SoundDuration":424869,"Delta":132172291},{"NoteNumber":62,"Velocity":76,"Duration":212434,"SoundDuration":212434,"Delta":132172291},{"NoteNumber":53,"Velocity":64,"Duration":212434,"SoundDuration":212434,"Delta":132172291},{"NoteNumber":56,"Velocity":64,"Duration":212434,"SoundDuration":212434,"Delta":132172291},{"NoteNumber":81,"Velocity":86,"Duration":206583,"SoundDuration":206583,"Delta":133870664},{"NoteNumber":69,"Velocity":72,"Duration":206583,"SoundDuration":206583,"Delta":133870664},{"NoteNumber":76,"Velocity":72,"Duration":206583,"SoundDuration":206583,"Delta":133870664},{"NoteNumber":49,"Velocity":64,"Duration":820027,"SoundDuration":820027,"Delta":133870664},{"NoteNumber":55,"Velocity":66,"Duration":820027,"SoundDuration":820027,"Delta":133870664},{"NoteNumber":57,"Velocity":69,"Duration":820027,"SoundDuration":820027,"Delta":133870664},{"NoteNumber":82,"Velocity":82,"Duration":206232,"SoundDuration":206232,"Delta":134077247},{"NoteNumber":70,"Velocity":70,"Duration":206232,"SoundDuration":206232,"Delta":134077247},{"NoteNumber":83,"Velocity":81,"Duration":203776,"SoundDuration":203776,"Delta":134283480},{"NoteNumber":71,"Velocity":70,"Duration":203776,"SoundDuration":203776,"Delta":134283480},{"NoteNumber":45,"Velocity":62,"Duration":203776,"SoundDuration":203776,"Delta":134283480},{"NoteNumber":37,"Velocity":52,"Duration":203776,"SoundDuration":203776,"Delta":134283480},{"NoteNumber":43,"Velocity":52,"Duration":203776,"SoundDuration":203776,"Delta":134283480},{"NoteNumber":84,"Velocity":81,"Duration":203435,"SoundDuration":203435,"Delta":134487256},{"NoteNumber":72,"Velocity":69,"Duration":203435,"SoundDuration":203435,"Delta":134487256},{"NoteNumber":85,"Velocity":84,"Duration":201227,"SoundDuration":201227,"Delta":134690692},{"NoteNumber":73,"Velocity":60,"Duration":201227,"SoundDuration":201227,"Delta":134690692},{"NoteNumber":49,"Velocity":63,"Duration":1615834,"SoundDuration":1615834,"Delta":134690692},{"NoteNumber":55,"Velocity":64,"Duration":1615834,"SoundDuration":1615834,"Delta":134690692},{"NoteNumber":57,"Velocity":67,"Duration":1615834,"SoundDuration":1615834,"Delta":134690692},{"NoteNumber":86,"Velocity":84,"Duration":203776,"SoundDuration":203776,"Delta":134891919},{"NoteNumber":74,"Velocity":72,"Duration":203776,"SoundDuration":203776,"Delta":134891919},{"NoteNumber":87,"Velocity":86,"Duration":203776,"SoundDuration":203776,"Delta":135095696},{"NoteNumber":75,"Velocity":72,"Duration":203776,"SoundDuration":203776,"Delta":135095696},{"NoteNumber":45,"Velocity":61,"Duration":203776,"SoundDuration":203776,"Delta":135095696},{"NoteNumber":37,"Velocity":51,"Duration":203776,"SoundDuration":203776,"Delta":135095696},{"NoteNumber":43,"Velocity":51,"Duration":203776,"SoundDuration":203776,"Delta":135095696},{"NoteNumber":88,"Velocity":86,"Duration":203048,"SoundDuration":203048,"Delta":135299473},{"NoteNumber":76,"Velocity":72,"Duration":203048,"SoundDuration":203048,"Delta":135299473},{"NoteNumber":89,"Velocity":86,"Duration":201045,"SoundDuration":201045,"Delta":135502521},{"NoteNumber":77,"Velocity":61,"Duration":201045,"SoundDuration":201045,"Delta":135502521},{"NoteNumber":52,"Velocity":61,"Duration":201045,"SoundDuration":201045,"Delta":135502521},{"NoteNumber":43,"Velocity":51,"Duration":201045,"SoundDuration":201045,"Delta":135502521},{"NoteNumber":45,"Velocity":51,"Duration":201045,"SoundDuration":201045,"Delta":135502521},{"NoteNumber":90,"Velocity":85,"Duration":201045,"SoundDuration":201045,"Delta":135703567},{"NoteNumber":78,"Velocity":72,"Duration":201045,"SoundDuration":201045,"Delta":135703567},{"NoteNumber":91,"Velocity":85,"Duration":201045,"SoundDuration":201045,"Delta":135904612},{"NoteNumber":79,"Velocity":72,"Duration":201045,"SoundDuration":201045,"Delta":135904612},{"NoteNumber":45,"Velocity":61,"Duration":201045,"SoundDuration":201045,"Delta":135904612},{"NoteNumber":37,"Velocity":51,"Duration":201045,"SoundDuration":201045,"Delta":135904612},{"NoteNumber":43,"Velocity":51,"Duration":201045,"SoundDuration":201045,"Delta":135904612},{"NoteNumber":92,"Velocity":85,"Duration":200868,"SoundDuration":200868,"Delta":136105658},{"NoteNumber":80,"Velocity":72,"Duration":200868,"SoundDuration":200868,"Delta":136105658},{"NoteNumber":93,"Velocity":86,"Duration":198386,"SoundDuration":198386,"Delta":136306526},{"NoteNumber":81,"Velocity":72,"Duration":198386,"SoundDuration":198386,"Delta":136306526},{"NoteNumber":49,"Velocity":65,"Duration":792855,"SoundDuration":792855,"Delta":136306526},{"NoteNumber":55,"Velocity":66,"Duration":792855,"SoundDuration":792855,"Delta":136306526},{"NoteNumber":57,"Velocity":68,"Duration":792855,"SoundDuration":792855,"Delta":136306526},{"NoteNumber":93,"Velocity":84,"Duration":198386,"SoundDuration":198386,"Delta":136504912},{"NoteNumber":82,"Velocity":71,"Duration":198386,"SoundDuration":198386,"Delta":136504912},{"NoteNumber":93,"Velocity":84,"Duration":198386,"SoundDuration":198386,"Delta":136703299},{"NoteNumber":83,"Velocity":71,"Duration":198386,"SoundDuration":198386,"Delta":136703299},{"NoteNumber":81,"Velocity":71,"Duration":198386,"SoundDuration":198386,"Delta":136703299},{"NoteNumber":45,"Velocity":63,"Duration":198386,"SoundDuration":198386,"Delta":136703299},{"NoteNumber":37,"Velocity":54,"Duration":198386,"SoundDuration":198386,"Delta":136703299},{"NoteNumber":43,"Velocity":54,"Duration":198386,"SoundDuration":198386,"Delta":136703299},{"NoteNumber":93,"Velocity":84,"Duration":197695,"SoundDuration":197695,"Delta":136901685},{"NoteNumber":84,"Velocity":71,"Duration":197695,"SoundDuration":197695,"Delta":136901685},{"NoteNumber":81,"Velocity":71,"Duration":197695,"SoundDuration":197695,"Delta":136901685},{"NoteNumber":81,"Velocity":72,"Duration":195796,"SoundDuration":195796,"Delta":137099381},{"NoteNumber":93,"Velocity":85,"Duration":195796,"SoundDuration":195796,"Delta":137099381},{"NoteNumber":85,"Velocity":72,"Duration":195796,"SoundDuration":195796,"Delta":137099381},{"NoteNumber":49,"Velocity":65,"Duration":783187,"SoundDuration":783187,"Delta":137099381},{"NoteNumber":55,"Velocity":67,"Duration":783187,"SoundDuration":783187,"Delta":137099381},{"NoteNumber":57,"Velocity":69,"Duration":734238,"SoundDuration":734238,"Delta":137099381},{"NoteNumber":81,"Velocity":72,"Duration":195796,"SoundDuration":195796,"Delta":137295178},{"NoteNumber":93,"Velocity":86,"Duration":195796,"SoundDuration":195796,"Delta":137295178},{"NoteNumber":86,"Velocity":72,"Duration":195796,"SoundDuration":195796,"Delta":137295178},{"NoteNumber":81,"Velocity":73,"Duration":195796,"SoundDuration":195796,"Delta":137490975},{"NoteNumber":93,"Velocity":87,"Duration":195796,"SoundDuration":195796,"Delta":137490975},{"NoteNumber":87,"Velocity":73,"Duration":195796,"SoundDuration":195796,"Delta":137490975},{"NoteNumber":45,"Velocity":58,"Duration":195796,"SoundDuration":195796,"Delta":137490975},{"NoteNumber":37,"Velocity":49,"Duration":195796,"SoundDuration":195796,"Delta":137490975},{"NoteNumber":43,"Velocity":49,"Duration":195796,"SoundDuration":195796,"Delta":137490975},{"NoteNumber":81,"Velocity":73,"Duration":195796,"SoundDuration":195796,"Delta":137686772},{"NoteNumber":93,"Velocity":87,"Duration":195796,"SoundDuration":195796,"Delta":137686772},{"NoteNumber":88,"Velocity":73,"Duration":195796,"SoundDuration":195796,"Delta":137686772},{"NoteNumber":81,"Velocity":74,"Duration":196638,"SoundDuration":196638,"Delta":137882569},{"NoteNumber":93,"Velocity":88,"Duration":196638,"SoundDuration":196638,"Delta":137882569},{"NoteNumber":89,"Velocity":74,"Duration":196638,"SoundDuration":196638,"Delta":137882569},{"NoteNumber":52,"Velocity":64,"Duration":196638,"SoundDuration":196638,"Delta":137882569},{"NoteNumber":43,"Velocity":54,"Duration":196638,"SoundDuration":196638,"Delta":137882569},{"NoteNumber":45,"Velocity":54,"Duration":196638,"SoundDuration":196638,"Delta":137882569},{"NoteNumber":90,"Velocity":75,"Duration":200655,"SoundDuration":200655,"Delta":138079208},{"NoteNumber":93,"Velocity":89,"Duration":200655,"SoundDuration":200655,"Delta":138079208},{"NoteNumber":81,"Velocity":75,"Duration":200655,"SoundDuration":200655,"Delta":138079208},{"NoteNumber":81,"Velocity":76,"Duration":204688,"SoundDuration":204688,"Delta":138279864},{"NoteNumber":93,"Velocity":90,"Duration":204688,"SoundDuration":204688,"Delta":138279864},{"NoteNumber":91,"Velocity":76,"Duration":204688,"SoundDuration":204688,"Delta":138279864},{"NoteNumber":57,"Velocity":70,"Duration":204688,"SoundDuration":204688,"Delta":138279864},{"NoteNumber":49,"Velocity":59,"Duration":204688,"SoundDuration":204688,"Delta":138279864},{"NoteNumber":55,"Velocity":59,"Duration":204688,"SoundDuration":204688,"Delta":138279864},{"NoteNumber":81,"Velocity":77,"Duration":209045,"SoundDuration":209045,"Delta":138484552},{"NoteNumber":93,"Velocity":90,"Duration":209045,"SoundDuration":209045,"Delta":138484552},{"NoteNumber":92,"Velocity":77,"Duration":209045,"SoundDuration":209045,"Delta":138484552},{"NoteNumber":93,"Velocity":91,"Duration":424869,"SoundDuration":424869,"Delta":138693598},{"NoteNumber":81,"Velocity":77,"Duration":424869,"SoundDuration":424869,"Delta":138693598},{"NoteNumber":61,"Velocity":64,"Duration":212434,"SoundDuration":212434,"Delta":138693598},{"NoteNumber":69,"Velocity":76,"Duration":212434,"SoundDuration":212434,"Delta":138693598},{"NoteNumber":64,"Velocity":64,"Duration":212434,"SoundDuration":212434,"Delta":138693598},{"NoteNumber":67,"Velocity":64,"Duration":212434,"SoundDuration":212434,"Delta":138693598},{"NoteNumber":69,"Velocity":63,"Duration":1699476,"SoundDuration":1699476,"Delta":140393074},{"NoteNumber":57,"Velocity":60,"Duration":1699476,"SoundDuration":1699476,"Delta":140393074},{"NoteNumber":66,"Velocity":63,"Duration":1699476,"SoundDuration":1699476,"Delta":142092550},{"NoteNumber":54,"Velocity":56,"Duration":1699476,"SoundDuration":1699476,"Delta":142092550},{"NoteNumber":62,"Velocity":65,"Duration":1699476,"SoundDuration":1699476,"Delta":143792026},{"NoteNumber":50,"Velocity":60,"Duration":1699476,"SoundDuration":1699476,"Delta":143792026},{"NoteNumber":70,"Velocity":63,"Duration":1191419,"SoundDuration":1191419,"Delta":145491502},{"NoteNumber":58,"Velocity":57,"Duration":1191419,"SoundDuration":1191419,"Delta":145491502},{"NoteNumber":70,"Velocity":58,"Duration":405264,"SoundDuration":405264,"Delta":146682921},{"NoteNumber":58,"Velocity":55,"Duration":405264,"SoundDuration":405264,"Delta":146682921},{"NoteNumber":63,"Velocity":63,"Duration":1556696,"SoundDuration":1556696,"Delta":147088186},{"NoteNumber":30,"Velocity":40,"Duration":207491,"SoundDuration":207491,"Delta":147088186},{"NoteNumber":51,"Velocity":18,"Duration":52053,"SoundDuration":52053,"Delta":147088186},{"NoteNumber":60,"Velocity":18,"Duration":51939,"SoundDuration":51939,"Delta":147140240},{"NoteNumber":57,"Velocity":15,"Duration":51939,"SoundDuration":51939,"Delta":147140240},{"NoteNumber":51,"Velocity":18,"Duration":51939,"SoundDuration":51939,"Delta":147192179},{"NoteNumber":60,"Velocity":19,"Duration":51560,"SoundDuration":51560,"Delta":147244118},{"NoteNumber":57,"Velocity":16,"Duration":51560,"SoundDuration":51560,"Delta":147244118},{"NoteNumber":31,"Velocity":41,"Duration":203629,"SoundDuration":203629,"Delta":147295678},{"NoteNumber":51,"Velocity":19,"Duration":51229,"SoundDuration":51229,"Delta":147295678},{"NoteNumber":60,"Velocity":19,"Duration":51229,"SoundDuration":51229,"Delta":147346908},{"NoteNumber":57,"Velocity":16,"Duration":51229,"SoundDuration":51229,"Delta":147346908},{"NoteNumber":51,"Velocity":20,"Duration":50631,"SoundDuration":50631,"Delta":147398137},{"NoteNumber":60,"Velocity":20,"Duration":50539,"SoundDuration":50539,"Delta":147448768},{"NoteNumber":57,"Velocity":17,"Duration":50539,"SoundDuration":50539,"Delta":147448768},{"NoteNumber":32,"Velocity":43,"Duration":200005,"SoundDuration":200005,"Delta":147499308},{"NoteNumber":51,"Velocity":20,"Duration":50404,"SoundDuration":50404,"Delta":147499308},{"NoteNumber":60,"Velocity":21,"Duration":49867,"SoundDuration":49867,"Delta":147549712},{"NoteNumber":57,"Velocity":18,"Duration":49867,"SoundDuration":49867,"Delta":147549712},{"NoteNumber":51,"Velocity":21,"Duration":49866,"SoundDuration":49866,"Delta":147599579},{"NoteNumber":60,"Velocity":21,"Duration":49867,"SoundDuration":49867,"Delta":147649446},{"NoteNumber":57,"Velocity":18,"Duration":49867,"SoundDuration":49867,"Delta":147649446},{"NoteNumber":33,"Velocity":44,"Duration":196000,"SoundDuration":196000,"Delta":147699313},{"NoteNumber":51,"Velocity":22,"Duration":49212,"SoundDuration":49212,"Delta":147699313},{"NoteNumber":60,"Velocity":22,"Duration":49212,"SoundDuration":49212,"Delta":147748526},{"NoteNumber":57,"Velocity":18,"Duration":49212,"SoundDuration":49212,"Delta":147748526},{"NoteNumber":51,"Velocity":22,"Duration":49000,"SoundDuration":49000,"Delta":147797738},{"NoteNumber":60,"Velocity":22,"Duration":48575,"SoundDuration":48575,"Delta":147846739},{"NoteNumber":57,"Velocity":18,"Duration":48575,"SoundDuration":48575,"Delta":147846739},{"NoteNumber":34,"Velocity":45,"Duration":192644,"SoundDuration":192644,"Delta":147895314},{"NoteNumber":51,"Velocity":23,"Duration":48575,"SoundDuration":48575,"Delta":147895314},{"NoteNumber":60,"Velocity":23,"Duration":48160,"SoundDuration":48160,"Delta":147943889},{"NoteNumber":57,"Velocity":19,"Duration":48160,"SoundDuration":48160,"Delta":147943889},{"NoteNumber":51,"Velocity":23,"Duration":47953,"SoundDuration":47953,"Delta":147992050},{"NoteNumber":60,"Velocity":24,"Duration":47953,"SoundDuration":47953,"Delta":148040004},{"NoteNumber":57,"Velocity":19,"Duration":47953,"SoundDuration":47953,"Delta":148040004},{"NoteNumber":35,"Velocity":46,"Duration":188921,"SoundDuration":188921,"Delta":148087958},{"NoteNumber":51,"Velocity":24,"Duration":47348,"SoundDuration":47348,"Delta":148087958},{"NoteNumber":60,"Velocity":24,"Duration":47348,"SoundDuration":47348,"Delta":148135306},{"NoteNumber":57,"Velocity":19,"Duration":47348,"SoundDuration":47348,"Delta":148135306},{"NoteNumber":51,"Velocity":25,"Duration":47348,"SoundDuration":47348,"Delta":148182655},{"NoteNumber":60,"Velocity":25,"Duration":46876,"SoundDuration":46876,"Delta":148230003},{"NoteNumber":57,"Velocity":20,"Duration":46876,"SoundDuration":46876,"Delta":148230003},{"NoteNumber":36,"Velocity":49,"Duration":185803,"SoundDuration":185803,"Delta":148276879},{"NoteNumber":51,"Velocity":25,"Duration":46758,"SoundDuration":46758,"Delta":148276879},{"NoteNumber":60,"Velocity":26,"Duration":46681,"SoundDuration":46681,"Delta":148323637},{"NoteNumber":57,"Velocity":21,"Duration":46681,"SoundDuration":46681,"Delta":148323637},{"NoteNumber":51,"Velocity":26,"Duration":46182,"SoundDuration":46182,"Delta":148370319},{"NoteNumber":60,"Velocity":26,"Duration":46182,"SoundDuration":46182,"Delta":148416501},{"NoteNumber":57,"Velocity":21,"Duration":46182,"SoundDuration":46182,"Delta":148416501},{"NoteNumber":37,"Velocity":53,"Duration":182199,"SoundDuration":182199,"Delta":148462683},{"NoteNumber":51,"Velocity":27,"Duration":45920,"SoundDuration":45920,"Delta":148462683},{"NoteNumber":60,"Velocity":27,"Duration":45620,"SoundDuration":45620,"Delta":148508603},{"NoteNumber":57,"Velocity":22,"Duration":45620,"SoundDuration":45620,"Delta":148508603},{"NoteNumber":51,"Velocity":27,"Duration":45620,"SoundDuration":45620,"Delta":148554224},{"NoteNumber":60,"Velocity":27,"Duration":45039,"SoundDuration":45039,"Delta":148599844},{"NoteNumber":57,"Velocity":22,"Duration":45039,"SoundDuration":45039,"Delta":148599844},{"NoteNumber":63,"Velocity":63,"Duration":708825,"SoundDuration":708825,"Delta":148644883},{"NoteNumber":38,"Velocity":55,"Duration":178147,"SoundDuration":178147,"Delta":148644883},{"NoteNumber":51,"Velocity":27,"Duration":44536,"SoundDuration":44536,"Delta":148644883},{"NoteNumber":60,"Velocity":27,"Duration":44536,"SoundDuration":44536,"Delta":148689420},{"NoteNumber":57,"Velocity":23,"Duration":44536,"SoundDuration":44536,"Delta":148689420},{"NoteNumber":51,"Velocity":27,"Duration":44536,"SoundDuration":44536,"Delta":148733957},{"NoteNumber":60,"Velocity":28,"Duration":44536,"SoundDuration":44536,"Delta":148778494},{"NoteNumber":57,"Velocity":24,"Duration":44536,"SoundDuration":44536,"Delta":148778494},{"NoteNumber":39,"Velocity":59,"Duration":178147,"SoundDuration":178147,"Delta":148823031},{"NoteNumber":51,"Velocity":28,"Duration":44536,"SoundDuration":44536,"Delta":148823031},{"NoteNumber":60,"Velocity":28,"Duration":44536,"SoundDuration":44536,"Delta":148867567},{"NoteNumber":57,"Velocity":24,"Duration":44536,"SoundDuration":44536,"Delta":148867567},{"NoteNumber":51,"Velocity":29,"Duration":44536,"SoundDuration":44536,"Delta":148912104},{"NoteNumber":60,"Velocity":29,"Duration":44536,"SoundDuration":44536,"Delta":148956641},{"NoteNumber":57,"Velocity":25,"Duration":44536,"SoundDuration":44536,"Delta":148956641},{"NoteNumber":40,"Velocity":62,"Duration":176474,"SoundDuration":176474,"Delta":149001178},{"NoteNumber":51,"Velocity":29,"Duration":44432,"SoundDuration":44432,"Delta":149001178},{"NoteNumber":60,"Velocity":30,"Duration":44014,"SoundDuration":44014,"Delta":149045610},{"NoteNumber":57,"Velocity":25,"Duration":44014,"SoundDuration":44014,"Delta":149045610},{"NoteNumber":51,"Velocity":30,"Duration":44014,"SoundDuration":44014,"Delta":149089624},{"NoteNumber":60,"Velocity":30,"Duration":44014,"SoundDuration":44014,"Delta":149133638},{"NoteNumber":57,"Velocity":25,"Duration":44014,"SoundDuration":44014,"Delta":149133638},{"NoteNumber":41,"Velocity":65,"Duration":176056,"SoundDuration":176056,"Delta":149177652},{"NoteNumber":51,"Velocity":31,"Duration":44014,"SoundDuration":44014,"Delta":149177652},{"NoteNumber":60,"Velocity":31,"Duration":44014,"SoundDuration":44014,"Delta":149221666},{"NoteNumber":57,"Velocity":26,"Duration":44014,"SoundDuration":44014,"Delta":149221666},{"NoteNumber":51,"Velocity":31,"Duration":44014,"SoundDuration":44014,"Delta":149265680},{"NoteNumber":60,"Velocity":32,"Duration":44014,"SoundDuration":44014,"Delta":149309694},{"NoteNumber":57,"Velocity":27,"Duration":44014,"SoundDuration":44014,"Delta":149309694},{"NoteNumber":63,"Velocity":60,"Duration":731373,"SoundDuration":731373,"Delta":149353709},{"NoteNumber":42,"Velocity":68,"Duration":731373,"SoundDuration":731373,"Delta":149353709},{"NoteNumber":48,"Velocity":68,"Duration":731373,"SoundDuration":731373,"Delta":149353709},{"NoteNumber":51,"Velocity":32,"Duration":44014,"SoundDuration":44014,"Delta":149353709},{"NoteNumber":60,"Velocity":32,"Duration":43673,"SoundDuration":43673,"Delta":149397723},{"NoteNumber":57,"Velocity":27,"Duration":43673,"SoundDuration":43673,"Delta":149397723},{"NoteNumber":51,"Velocity":32,"Duration":43503,"SoundDuration":43503,"Delta":149441396},{"NoteNumber":60,"Velocity":33,"Duration":43503,"SoundDuration":43503,"Delta":149484900},{"NoteNumber":57,"Velocity":27,"Duration":43503,"SoundDuration":43503,"Delta":149484900},{"NoteNumber":51,"Velocity":33,"Duration":43503,"SoundDuration":43503,"Delta":149528403},{"NoteNumber":60,"Velocity":33,"Duration":43503,"SoundDuration":43503,"Delta":149571907},{"NoteNumber":57,"Velocity":27,"Duration":43503,"SoundDuration":43503,"Delta":149571907},{"NoteNumber":51,"Velocity":34,"Duration":43503,"SoundDuration":43503,"Delta":149615410},{"NoteNumber":60,"Velocity":34,"Duration":43503,"SoundDuration":43503,"Delta":149658914},{"NoteNumber":57,"Velocity":28,"Duration":43503,"SoundDuration":43503,"Delta":149658914},{"NoteNumber":51,"Velocity":34,"Duration":43503,"SoundDuration":43503,"Delta":149702417},{"NoteNumber":60,"Velocity":35,"Duration":43436,"SoundDuration":43436,"Delta":149745921},{"NoteNumber":57,"Velocity":29,"Duration":43436,"SoundDuration":43436,"Delta":149745921},{"NoteNumber":51,"Velocity":35,"Duration":43004,"SoundDuration":43004,"Delta":149789358},{"NoteNumber":60,"Velocity":35,"Duration":43004,"SoundDuration":43004,"Delta":149832362},{"NoteNumber":57,"Velocity":29,"Duration":43004,"SoundDuration":43004,"Delta":149832362},{"NoteNumber":51,"Velocity":36,"Duration":52367,"SoundDuration":52367,"Delta":149875367},{"NoteNumber":60,"Velocity":36,"Duration":52367,"SoundDuration":52367,"Delta":149927734},{"NoteNumber":57,"Velocity":30,"Duration":52367,"SoundDuration":52367,"Delta":149927734},{"NoteNumber":51,"Velocity":36,"Duration":52367,"SoundDuration":52367,"Delta":149980101},{"NoteNumber":60,"Velocity":36,"Duration":52614,"SoundDuration":52614,"Delta":150032468},{"NoteNumber":57,"Velocity":30,"Duration":52614,"SoundDuration":52614,"Delta":150032468},{"NoteNumber":62,"Velocity":64,"Duration":1557612,"SoundDuration":1557612,"Delta":150085082},{"NoteNumber":48,"Velocity":68,"Duration":1557612,"SoundDuration":1557612,"Delta":150085082},{"NoteNumber":43,"Velocity":68,"Duration":209179,"SoundDuration":209179,"Delta":150085082},{"NoteNumber":50,"Velocity":37,"Duration":52367,"SoundDuration":52367,"Delta":150085082},{"NoteNumber":60,"Velocity":37,"Duration":52367,"SoundDuration":52367,"Delta":150137449},{"NoteNumber":55,"Velocity":31,"Duration":52367,"SoundDuration":52367,"Delta":150137449},{"NoteNumber":50,"Velocity":37,"Duration":52367,"SoundDuration":52367,"Delta":150189816},{"NoteNumber":60,"Velocity":37,"Duration":52078,"SoundDuration":52078,"Delta":150242183},{"NoteNumber":55,"Velocity":31,"Duration":52078,"SoundDuration":52078,"Delta":150242183},{"NoteNumber":42,"Velocity":65,"Duration":205107,"SoundDuration":205107,"Delta":150294262},{"NoteNumber":50,"Velocity":37,"Duration":51645,"SoundDuration":51645,"Delta":150294262},{"NoteNumber":60,"Velocity":36,"Duration":51645,"SoundDuration":51645,"Delta":150345907},{"NoteNumber":55,"Velocity":30,"Duration":51645,"SoundDuration":51645,"Delta":150345907},{"NoteNumber":50,"Velocity":36,"Duration":51276,"SoundDuration":51276,"Delta":150397553},{"NoteNumber":60,"Velocity":36,"Duration":50539,"SoundDuration":50539,"Delta":150448830},{"NoteNumber":55,"Velocity":30,"Duration":50539,"SoundDuration":50539,"Delta":150448830},{"NoteNumber":41,"Velocity":63,"Duration":200364,"SoundDuration":200364,"Delta":150499369},{"NoteNumber":50,"Velocity":36,"Duration":50539,"SoundDuration":50539,"Delta":150499369},{"NoteNumber":60,"Velocity":36,"Duration":50091,"SoundDuration":50091,"Delta":150549908},{"NoteNumber":55,"Velocity":30,"Duration":50091,"SoundDuration":50091,"Delta":150549908},{"NoteNumber":50,"Velocity":36,"Duration":49867,"SoundDuration":49867,"Delta":150599999},{"NoteNumber":60,"Velocity":36,"Duration":49866,"SoundDuration":49866,"Delta":150649866},{"NoteNumber":55,"Velocity":30,"Duration":49866,"SoundDuration":49866,"Delta":150649866},{"NoteNumber":40,"Velocity":61,"Duration":196000,"SoundDuration":196000,"Delta":150699733},{"NoteNumber":50,"Velocity":36,"Duration":49212,"SoundDuration":49212,"Delta":150699733},{"NoteNumber":60,"Velocity":35,"Duration":49212,"SoundDuration":49212,"Delta":150748946},{"NoteNumber":55,"Velocity":29,"Duration":49212,"SoundDuration":49212,"Delta":150748946},{"NoteNumber":50,"Velocity":35,"Duration":49000,"SoundDuration":49000,"Delta":150798158},{"NoteNumber":60,"Velocity":35,"Duration":48575,"SoundDuration":48575,"Delta":150847158},{"NoteNumber":55,"Velocity":29,"Duration":48575,"SoundDuration":48575,"Delta":150847158},{"NoteNumber":39,"Velocity":59,"Duration":192321,"SoundDuration":192321,"Delta":150895734},{"NoteNumber":50,"Velocity":35,"Duration":48575,"SoundDuration":48575,"Delta":150895734},{"NoteNumber":60,"Velocity":34,"Duration":48160,"SoundDuration":48160,"Delta":150944309},{"NoteNumber":55,"Velocity":28,"Duration":48160,"SoundDuration":48160,"Delta":150944309},{"NoteNumber":50,"Velocity":34,"Duration":47953,"SoundDuration":47953,"Delta":150992470},{"NoteNumber":60,"Velocity":34,"Duration":47631,"SoundDuration":47631,"Delta":151040424},{"NoteNumber":55,"Velocity":28,"Duration":47631,"SoundDuration":47631,"Delta":151040424},{"NoteNumber":38,"Velocity":56,"Duration":188291,"SoundDuration":188291,"Delta":151088055},{"NoteNumber":50,"Velocity":34,"Duration":47348,"SoundDuration":47348,"Delta":151088055},{"NoteNumber":60,"Velocity":33,"Duration":47348,"SoundDuration":47348,"Delta":151135403},{"NoteNumber":55,"Velocity":27,"Duration":47348,"SoundDuration":47348,"Delta":151135403},{"NoteNumber":50,"Velocity":33,"Duration":46836,"SoundDuration":46836,"Delta":151182752},{"NoteNumber":60,"Velocity":33,"Duration":46758,"SoundDuration":46758,"Delta":151229589},{"NoteNumber":55,"Velocity":27,"Duration":46758,"SoundDuration":46758,"Delta":151229589},{"NoteNumber":37,"Velocity":54,"Duration":184890,"SoundDuration":184890,"Delta":151276347},{"NoteNumber":50,"Velocity":33,"Duration":46642,"SoundDuration":46642,"Delta":151276347},{"NoteNumber":60,"Velocity":32,"Duration":46182,"SoundDuration":46182,"Delta":151322990},{"NoteNumber":55,"Velocity":27,"Duration":46182,"SoundDuration":46182,"Delta":151322990},{"NoteNumber":50,"Velocity":32,"Duration":46182,"SoundDuration":46182,"Delta":151369172},{"NoteNumber":60,"Velocity":32,"Duration":45882,"SoundDuration":45882,"Delta":151415354},{"NoteNumber":55,"Velocity":27,"Duration":45882,"SoundDuration":45882,"Delta":151415354},{"NoteNumber":36,"Velocity":48,"Duration":181458,"SoundDuration":181458,"Delta":151461237},{"NoteNumber":50,"Velocity":32,"Duration":45620,"SoundDuration":45620,"Delta":151461237},{"NoteNumber":60,"Velocity":31,"Duration":45620,"SoundDuration":45620,"Delta":151506857},{"NoteNumber":55,"Velocity":26,"Duration":45620,"SoundDuration":45620,"Delta":151506857},{"NoteNumber":50,"Velocity":31,"Duration":45145,"SoundDuration":45145,"Delta":151552478},{"NoteNumber":60,"Velocity":31,"Duration":45072,"SoundDuration":45072,"Delta":151597623},{"NoteNumber":55,"Velocity":26,"Duration":45072,"SoundDuration":45072,"Delta":151597623},{"NoteNumber":47,"Velocity":47,"Duration":719928,"SoundDuration":719928,"Delta":151642695},{"NoteNumber":35,"Velocity":47,"Duration":178290,"SoundDuration":178290,"Delta":151642695},{"NoteNumber":50,"Velocity":31,"Duration":44679,"SoundDuration":44679,"Delta":151642695},{"NoteNumber":59,"Velocity":30,"Duration":44536,"SoundDuration":44536,"Delta":151687374},{"NoteNumber":55,"Velocity":25,"Duration":44536,"SoundDuration":44536,"Delta":151687374},{"NoteNumber":50,"Velocity":30,"Duration":44536,"SoundDuration":44536,"Delta":151731911},{"NoteNumber":59,"Velocity":30,"Duration":44536,"SoundDuration":44536,"Delta":151776448},{"NoteNumber":55,"Velocity":25,"Duration":44536,"SoundDuration":44536,"Delta":151776448},{"NoteNumber":34,"Velocity":46,"Duration":178147,"SoundDuration":178147,"Delta":151820985},{"NoteNumber":50,"Velocity":30,"Duration":44536,"SoundDuration":44536,"Delta":151820985},{"NoteNumber":59,"Velocity":29,"Duration":44536,"SoundDuration":44536,"Delta":151865522},{"NoteNumber":55,"Velocity":25,"Duration":44536,"SoundDuration":44536,"Delta":151865522},{"NoteNumber":50,"Velocity":29,"Duration":44536,"SoundDuration":44536,"Delta":151910059},{"NoteNumber":59,"Velocity":29,"Duration":44536,"SoundDuration":44536,"Delta":151954595},{"NoteNumber":55,"Velocity":25,"Duration":44536,"SoundDuration":44536,"Delta":151954595},{"NoteNumber":33,"Velocity":45,"Duration":180691,"SoundDuration":180691,"Delta":151999132},{"NoteNumber":50,"Velocity":29,"Duration":44536,"SoundDuration":44536,"Delta":151999132},{"NoteNumber":59,"Velocity":28,"Duration":44536,"SoundDuration":44536,"Delta":152043669},{"NoteNumber":55,"Velocity":24,"Duration":44536,"SoundDuration":44536,"Delta":152043669},{"NoteNumber":50,"Velocity":28,"Duration":45667,"SoundDuration":45667,"Delta":152088206},{"NoteNumber":59,"Velocity":28,"Duration":45950,"SoundDuration":45950,"Delta":152133873},{"NoteNumber":55,"Velocity":24,"Duration":45950,"SoundDuration":45950,"Delta":152133873},{"NoteNumber":32,"Velocity":45,"Duration":137405,"SoundDuration":137405,"Delta":152179824},{"NoteNumber":50,"Velocity":28,"Duration":45950,"SoundDuration":45950,"Delta":152179824},{"NoteNumber":55,"Velocity":27,"Duration":45950,"SoundDuration":45950,"Delta":152225774},{"NoteNumber":59,"Velocity":27,"Duration":45950,"SoundDuration":45950,"Delta":152225774},{"NoteNumber":50,"Velocity":27,"Duration":45505,"SoundDuration":45505,"Delta":152271724},{"NoteNumber":31,"Velocity":38,"Duration":239821,"SoundDuration":239821,"Delta":152317229},{"NoteNumber":59,"Velocity":27,"Duration":45394,"SoundDuration":45394,"Delta":152317229},{"NoteNumber":55,"Velocity":23,"Duration":45394,"SoundDuration":45394,"Delta":152317229},{"NoteNumber":38,"Velocity":44,"Duration":217124,"SoundDuration":217124,"Delta":152339926},{"NoteNumber":50,"Velocity":57,"Duration":194427,"SoundDuration":194427,"Delta":152362623},{"NoteNumber":55,"Velocity":57,"Duration":194427,"SoundDuration":194427,"Delta":152362623},{"NoteNumber":58,"Velocity":57,"Duration":194427,"SoundDuration":194427,"Delta":152362623},{"NoteNumber":46,"Velocity":48,"Duration":194427,"SoundDuration":194427,"Delta":152362623},{"NoteNumber":63,"Velocity":63,"Duration":1699476,"SoundDuration":1699476,"Delta":153158595},{"NoteNumber":51,"Velocity":60,"Duration":1699476,"SoundDuration":1699476,"Delta":153158595},{"NoteNumber":70,"Velocity":63,"Duration":1274607,"SoundDuration":1274607,"Delta":154858071},{"NoteNumber":58,"Velocity":56,"Duration":1274607,"SoundDuration":1274607,"Delta":154858071},{"NoteNumber":70,"Velocity":58,"Duration":424869,"SoundDuration":424869,"Delta":156132678},{"NoteNumber":58,"Velocity":55,"Duration":424869,"SoundDuration":424869,"Delta":156132678},{"NoteNumber":61,"Velocity":65,"Duration":1699476,"SoundDuration":1699476,"Delta":156557547},{"NoteNumber":49,"Velocity":60,"Duration":1699476,"SoundDuration":1699476,"Delta":156557547},{"NoteNumber":65,"Velocity":63,"Duration":1596684,"SoundDuration":1596684,"Delta":158257023},{"NoteNumber":53,"Velocity":57,"Duration":1596684,"SoundDuration":1596684,"Delta":158257023},{"NoteNumber":59,"Velocity":63,"Duration":1608119,"SoundDuration":1608119,"Delta":159853707},{"NoteNumber":35,"Velocity":37,"Duration":211791,"SoundDuration":211791,"Delta":159853707},{"NoteNumber":32,"Velocity":27,"Duration":211791,"SoundDuration":211791,"Delta":159853707},{"NoteNumber":47,"Velocity":18,"Duration":52465,"SoundDuration":52465,"Delta":159853707},{"NoteNumber":53,"Velocity":18,"Duration":53108,"SoundDuration":53108,"Delta":159906173},{"NoteNumber":50,"Velocity":15,"Duration":53108,"SoundDuration":53108,"Delta":159906173},{"NoteNumber":47,"Velocity":18,"Duration":53108,"SoundDuration":53108,"Delta":159959282},{"NoteNumber":53,"Velocity":19,"Duration":53108,"SoundDuration":53108,"Delta":160012390},{"NoteNumber":50,"Velocity":16,"Duration":53108,"SoundDuration":53108,"Delta":160012390},{"NoteNumber":36,"Velocity":37,"Duration":209774,"SoundDuration":209774,"Delta":160065499},{"NoteNumber":33,"Velocity":32,"Duration":209774,"SoundDuration":209774,"Delta":160065499},{"NoteNumber":47,"Velocity":19,"Duration":53009,"SoundDuration":53009,"Delta":160065499},{"NoteNumber":53,"Velocity":19,"Duration":52367,"SoundDuration":52367,"Delta":160118509},{"NoteNumber":50,"Velocity":16,"Duration":52367,"SoundDuration":52367,"Delta":160118509},{"NoteNumber":47,"Velocity":20,"Duration":52367,"SoundDuration":52367,"Delta":160170876},{"NoteNumber":53,"Velocity":20,"Duration":52030,"SoundDuration":52030,"Delta":160223243},{"NoteNumber":50,"Velocity":17,"Duration":52030,"SoundDuration":52030,"Delta":160223243},{"NoteNumber":37,"Velocity":39,"Duration":206255,"SoundDuration":206255,"Delta":160275273},{"NoteNumber":34,"Velocity":34,"Duration":206255,"SoundDuration":206255,"Delta":160275273},{"NoteNumber":47,"Velocity":20,"Duration":51645,"SoundDuration":51645,"Delta":160275273},{"NoteNumber":53,"Velocity":21,"Duration":51645,"SoundDuration":51645,"Delta":160326919},{"NoteNumber":50,"Velocity":18,"Duration":51645,"SoundDuration":51645,"Delta":160326919},{"NoteNumber":47,"Velocity":21,"Duration":51645,"SoundDuration":51645,"Delta":160378565},{"NoteNumber":53,"Velocity":21,"Duration":51318,"SoundDuration":51318,"Delta":160430211},{"NoteNumber":50,"Velocity":18,"Duration":51318,"SoundDuration":51318,"Delta":160430211},{"NoteNumber":38,"Velocity":41,"Duration":202547,"SoundDuration":202547,"Delta":160481529},{"NoteNumber":35,"Velocity":35,"Duration":202547,"SoundDuration":202547,"Delta":160481529},{"NoteNumber":47,"Velocity":22,"Duration":50944,"SoundDuration":50944,"Delta":160481529},{"NoteNumber":53,"Velocity":22,"Duration":50944,"SoundDuration":50944,"Delta":160532473},{"NoteNumber":50,"Velocity":18,"Duration":50944,"SoundDuration":50944,"Delta":160532473},{"NoteNumber":47,"Velocity":22,"Duration":50397,"SoundDuration":50397,"Delta":160583417},{"NoteNumber":53,"Velocity":22,"Duration":50261,"SoundDuration":50261,"Delta":160633815},{"NoteNumber":50,"Velocity":18,"Duration":50261,"SoundDuration":50261,"Delta":160633815},{"NoteNumber":39,"Velocity":42,"Duration":198962,"SoundDuration":198962,"Delta":160684077},{"NoteNumber":36,"Velocity":36,"Duration":198962,"SoundDuration":198962,"Delta":160684077},{"NoteNumber":47,"Velocity":23,"Duration":50172,"SoundDuration":50172,"Delta":160684077},{"NoteNumber":53,"Velocity":23,"Duration":49596,"SoundDuration":49596,"Delta":160734249},{"NoteNumber":50,"Velocity":19,"Duration":49596,"SoundDuration":49596,"Delta":160734249},{"NoteNumber":47,"Velocity":23,"Duration":49596,"SoundDuration":49596,"Delta":160783846},{"NoteNumber":53,"Velocity":24,"Duration":49596,"SoundDuration":49596,"Delta":160833443},{"NoteNumber":50,"Velocity":19,"Duration":49596,"SoundDuration":49596,"Delta":160833443},{"NoteNumber":40,"Velocity":44,"Duration":196063,"SoundDuration":196063,"Delta":160883039},{"NoteNumber":37,"Velocity":38,"Duration":196063,"SoundDuration":196063,"Delta":160883039},{"NoteNumber":47,"Velocity":24,"Duration":49510,"SoundDuration":49510,"Delta":160883039},{"NoteNumber":53,"Velocity":24,"Duration":48949,"SoundDuration":48949,"Delta":160932549},{"NoteNumber":50,"Velocity":19,"Duration":48949,"SoundDuration":48949,"Delta":160932549},{"NoteNumber":47,"Velocity":25,"Duration":48949,"SoundDuration":48949,"Delta":160981499},{"NoteNumber":53,"Velocity":25,"Duration":48654,"SoundDuration":48654,"Delta":161030448},{"NoteNumber":50,"Velocity":20,"Duration":48654,"SoundDuration":48654,"Delta":161030448},{"NoteNumber":41,"Velocity":45,"Duration":192987,"SoundDuration":192987,"Delta":161079103},{"NoteNumber":38,"Velocity":40,"Duration":192987,"SoundDuration":192987,"Delta":161079103},{"NoteNumber":47,"Velocity":25,"Duration":48318,"SoundDuration":48318,"Delta":161079103},{"NoteNumber":53,"Velocity":26,"Duration":48318,"SoundDuration":48318,"Delta":161127421},{"NoteNumber":50,"Velocity":21,"Duration":48318,"SoundDuration":48318,"Delta":161127421},{"NoteNumber":47,"Velocity":26,"Duration":48318,"SoundDuration":48318,"Delta":161175740},{"NoteNumber":53,"Velocity":26,"Duration":48031,"SoundDuration":48031,"Delta":161224058},{"NoteNumber":50,"Velocity":21,"Duration":48031,"SoundDuration":48031,"Delta":161224058},{"NoteNumber":42,"Velocity":47,"Duration":189736,"SoundDuration":189736,"Delta":161272090},{"NoteNumber":39,"Velocity":42,"Duration":189736,"SoundDuration":189736,"Delta":161272090},{"NoteNumber":47,"Velocity":27,"Duration":47703,"SoundDuration":47703,"Delta":161272090},{"NoteNumber":53,"Velocity":27,"Duration":47703,"SoundDuration":47703,"Delta":161319794},{"NoteNumber":50,"Velocity":22,"Duration":47703,"SoundDuration":47703,"Delta":161319794},{"NoteNumber":47,"Velocity":27,"Duration":47224,"SoundDuration":47224,"Delta":161367498},{"NoteNumber":53,"Velocity":27,"Duration":47104,"SoundDuration":47104,"Delta":161414722},{"NoteNumber":50,"Velocity":22,"Duration":47104,"SoundDuration":47104,"Delta":161414722},{"NoteNumber":64,"Velocity":63,"Duration":1389044,"SoundDuration":1389044,"Delta":161461827},{"NoteNumber":43,"Velocity":48,"Duration":186587,"SoundDuration":186587,"Delta":161461827},{"NoteNumber":40,"Velocity":43,"Duration":186587,"SoundDuration":186587,"Delta":161461827},{"NoteNumber":52,"Velocity":27,"Duration":47026,"SoundDuration":47026,"Delta":161461827},{"NoteNumber":59,"Velocity":27,"Duration":46520,"SoundDuration":46520,"Delta":161508854},{"NoteNumber":56,"Velocity":23,"Duration":46520,"SoundDuration":46520,"Delta":161508854},{"NoteNumber":52,"Velocity":27,"Duration":46520,"SoundDuration":46520,"Delta":161555374},{"NoteNumber":59,"Velocity":28,"Duration":46520,"SoundDuration":46520,"Delta":161601894},{"NoteNumber":56,"Velocity":24,"Duration":46520,"SoundDuration":46520,"Delta":161601894},{"NoteNumber":44,"Velocity":50,"Duration":186081,"SoundDuration":186081,"Delta":161648415},{"NoteNumber":41,"Velocity":45,"Duration":186081,"SoundDuration":186081,"Delta":161648415},{"NoteNumber":52,"Velocity":28,"Duration":46520,"SoundDuration":46520,"Delta":161648415},{"NoteNumber":59,"Velocity":28,"Duration":46520,"SoundDuration":46520,"Delta":161694935},{"NoteNumber":56,"Velocity":24,"Duration":46520,"SoundDuration":46520,"Delta":161694935},{"NoteNumber":52,"Velocity":29,"Duration":46520,"SoundDuration":46520,"Delta":161741455},{"NoteNumber":59,"Velocity":29,"Duration":46520,"SoundDuration":46520,"Delta":161787976},{"NoteNumber":56,"Velocity":25,"Duration":46520,"SoundDuration":46520,"Delta":161787976},{"NoteNumber":45,"Velocity":52,"Duration":185055,"SoundDuration":185055,"Delta":161834496},{"NoteNumber":42,"Velocity":46,"Duration":185055,"SoundDuration":185055,"Delta":161834496},{"NoteNumber":52,"Velocity":29,"Duration":46520,"SoundDuration":46520,"Delta":161834496},{"NoteNumber":59,"Velocity":30,"Duration":46520,"SoundDuration":46520,"Delta":161881016},{"NoteNumber":56,"Velocity":25,"Duration":46520,"SoundDuration":46520,"Delta":161881016},{"NoteNumber":52,"Velocity":30,"Duration":46064,"SoundDuration":46064,"Delta":161927536},{"NoteNumber":59,"Velocity":30,"Duration":45950,"SoundDuration":45950,"Delta":161973601},{"NoteNumber":56,"Velocity":25,"Duration":45950,"SoundDuration":45950,"Delta":161973601},{"NoteNumber":46,"Velocity":53,"Duration":183800,"SoundDuration":183800,"Delta":162019551},{"NoteNumber":43,"Velocity":47,"Duration":183800,"SoundDuration":183800,"Delta":162019551},{"NoteNumber":52,"Velocity":31,"Duration":45950,"SoundDuration":45950,"Delta":162019551},{"NoteNumber":59,"Velocity":31,"Duration":45950,"SoundDuration":45950,"Delta":162065501},{"NoteNumber":56,"Velocity":26,"Duration":45950,"SoundDuration":45950,"Delta":162065501},{"NoteNumber":52,"Velocity":31,"Duration":45950,"SoundDuration":45950,"Delta":162111451},{"NoteNumber":59,"Velocity":32,"Duration":45950,"SoundDuration":45950,"Delta":162157402},{"NoteNumber":56,"Velocity":27,"Duration":45950,"SoundDuration":45950,"Delta":162157402},{"NoteNumber":44,"Velocity":49,"Duration":753227,"SoundDuration":753227,"Delta":162203352},{"NoteNumber":47,"Velocity":54,"Duration":753227,"SoundDuration":753227,"Delta":162203352},{"NoteNumber":52,"Velocity":32,"Duration":45876,"SoundDuration":45876,"Delta":162203352},{"NoteNumber":59,"Velocity":32,"Duration":45393,"SoundDuration":45393,"Delta":162249228},{"NoteNumber":56,"Velocity":27,"Duration":45393,"SoundDuration":45393,"Delta":162249228},{"NoteNumber":52,"Velocity":32,"Duration":45394,"SoundDuration":45394,"Delta":162294622},{"NoteNumber":59,"Velocity":33,"Duration":45393,"SoundDuration":45393,"Delta":162340016},{"NoteNumber":56,"Velocity":27,"Duration":45393,"SoundDuration":45393,"Delta":162340016},{"NoteNumber":52,"Velocity":33,"Duration":45394,"SoundDuration":45394,"Delta":162385410},{"NoteNumber":59,"Velocity":33,"Duration":45393,"SoundDuration":45393,"Delta":162430804},{"NoteNumber":56,"Velocity":27,"Duration":45393,"SoundDuration":45393,"Delta":162430804},{"NoteNumber":52,"Velocity":34,"Duration":45394,"SoundDuration":45394,"Delta":162476198},{"NoteNumber":59,"Velocity":34,"Duration":45140,"SoundDuration":45140,"Delta":162521592},{"NoteNumber":56,"Velocity":28,"Duration":45140,"SoundDuration":45140,"Delta":162521592},{"NoteNumber":52,"Velocity":34,"Duration":44851,"SoundDuration":44851,"Delta":162566733},{"NoteNumber":59,"Velocity":35,"Duration":44851,"SoundDuration":44851,"Delta":162611584},{"NoteNumber":56,"Velocity":29,"Duration":44851,"SoundDuration":44851,"Delta":162611584},{"NoteNumber":52,"Velocity":35,"Duration":44851,"SoundDuration":44851,"Delta":162656435},{"NoteNumber":59,"Velocity":35,"Duration":44851,"SoundDuration":44851,"Delta":162701286},{"NoteNumber":56,"Velocity":29,"Duration":44851,"SoundDuration":44851,"Delta":162701286},{"NoteNumber":52,"Velocity":36,"Duration":52367,"SoundDuration":52367,"Delta":162746137},{"NoteNumber":59,"Velocity":36,"Duration":52367,"SoundDuration":52367,"Delta":162798504},{"NoteNumber":56,"Velocity":30,"Duration":52367,"SoundDuration":52367,"Delta":162798504},{"NoteNumber":50,"Velocity":58,"Duration":105708,"SoundDuration":105708,"Delta":162850871},{"NoteNumber":62,"Velocity":60,"Duration":105708,"SoundDuration":105708,"Delta":162850871},{"NoteNumber":52,"Velocity":36,"Duration":52367,"SoundDuration":52367,"Delta":162850871},{"NoteNumber":59,"Velocity":36,"Duration":53341,"SoundDuration":53341,"Delta":162903238},{"NoteNumber":56,"Velocity":30,"Duration":53341,"SoundDuration":53341,"Delta":162903238},{"NoteNumber":60,"Velocity":64,"Duration":1679958,"SoundDuration":1679958,"Delta":162956580},{"NoteNumber":45,"Velocity":54,"Duration":147907,"SoundDuration":147907,"Delta":162956580},{"NoteNumber":48,"Velocity":37,"Duration":55465,"SoundDuration":55465,"Delta":162956580},{"NoteNumber":52,"Velocity":37,"Duration":55465,"SoundDuration":55465,"Delta":163012045},{"NoteNumber":48,"Velocity":37,"Duration":55465,"SoundDuration":55465,"Delta":163067510},{"NoteNumber":44,"Velocity":48,"Duration":146398,"SoundDuration":146398,"Delta":163104487},{"NoteNumber":47,"Velocity":54,"Duration":146398,"SoundDuration":146398,"Delta":163104487},{"NoteNumber":52,"Velocity":37,"Duration":55034,"SoundDuration":55034,"Delta":163122975},{"NoteNumber":48,"Velocity":37,"Duration":54656,"SoundDuration":54656,"Delta":163178009},{"NoteNumber":52,"Velocity":36,"Duration":54656,"SoundDuration":54656,"Delta":163232666},{"NoteNumber":43,"Velocity":46,"Duration":145123,"SoundDuration":145123,"Delta":163250885},{"NoteNumber":46,"Velocity":52,"Duration":145123,"SoundDuration":145123,"Delta":163250885},{"NoteNumber":48,"Velocity":36,"Duration":54656,"SoundDuration":54656,"Delta":163287323},{"NoteNumber":52,"Velocity":36,"Duration":54028,"SoundDuration":54028,"Delta":163341980},{"NoteNumber":42,"Velocity":45,"Duration":143657,"SoundDuration":143657,"Delta":163396008},{"NoteNumber":45,"Velocity":51,"Duration":143657,"SoundDuration":143657,"Delta":163396008},{"NoteNumber":48,"Velocity":36,"Duration":53871,"SoundDuration":53871,"Delta":163396008},{"NoteNumber":52,"Velocity":36,"Duration":53871,"SoundDuration":53871,"Delta":163449880},{"NoteNumber":48,"Velocity":36,"Duration":53820,"SoundDuration":53820,"Delta":163503751},{"NoteNumber":41,"Velocity":45,"Duration":141826,"SoundDuration":141826,"Delta":163539666},{"NoteNumber":44,"Velocity":50,"Duration":141826,"SoundDuration":141826,"Delta":163539666},{"NoteNumber":52,"Velocity":36,"Duration":53108,"SoundDuration":53108,"Delta":163557572},{"NoteNumber":48,"Velocity":36,"Duration":53108,"SoundDuration":53108,"Delta":163610681},{"NoteNumber":52,"Velocity":35,"Duration":53108,"SoundDuration":53108,"Delta":163663789},{"NoteNumber":40,"Velocity":43,"Duration":140634,"SoundDuration":140634,"Delta":163681492},{"NoteNumber":43,"Velocity":48,"Duration":140634,"SoundDuration":140634,"Delta":163681492},{"NoteNumber":48,"Velocity":35,"Duration":52861,"SoundDuration":52861,"Delta":163716898},{"NoteNumber":52,"Velocity":35,"Duration":52366,"SoundDuration":52366,"Delta":163769759},{"NoteNumber":39,"Velocity":42,"Duration":139068,"SoundDuration":139068,"Delta":163822126},{"NoteNumber":42,"Velocity":47,"Duration":139068,"SoundDuration":139068,"Delta":163822126},{"NoteNumber":48,"Velocity":35,"Duration":52367,"SoundDuration":52367,"Delta":163822126},{"NoteNumber":52,"Velocity":34,"Duration":52270,"SoundDuration":52270,"Delta":163874493},{"NoteNumber":48,"Velocity":34,"Duration":51645,"SoundDuration":51645,"Delta":163926764},{"NoteNumber":38,"Velocity":41,"Duration":137722,"SoundDuration":137722,"Delta":163961195},{"NoteNumber":41,"Velocity":46,"Duration":137722,"SoundDuration":137722,"Delta":163961195},{"NoteNumber":52,"Velocity":34,"Duration":51645,"SoundDuration":51645,"Delta":163978410},{"NoteNumber":48,"Velocity":34,"Duration":51645,"SoundDuration":51645,"Delta":164030056},{"NoteNumber":52,"Velocity":33,"Duration":51365,"SoundDuration":51365,"Delta":164081701},{"NoteNumber":37,"Velocity":39,"Duration":136038,"SoundDuration":136038,"Delta":164098917},{"NoteNumber":40,"Velocity":45,"Duration":136038,"SoundDuration":136038,"Delta":164098917},{"NoteNumber":48,"Velocity":33,"Duration":50944,"SoundDuration":50944,"Delta":164133066},{"NoteNumber":52,"Velocity":33,"Duration":50944,"SoundDuration":50944,"Delta":164184011},{"NoteNumber":36,"Velocity":38,"Duration":134940,"SoundDuration":134940,"Delta":164234955},{"NoteNumber":39,"Velocity":44,"Duration":134940,"SoundDuration":134940,"Delta":164234955},{"NoteNumber":48,"Velocity":33,"Duration":50944,"SoundDuration":50944,"Delta":164234955},{"NoteNumber":52,"Velocity":32,"Duration":50488,"SoundDuration":50488,"Delta":164285899},{"NoteNumber":48,"Velocity":32,"Duration":50261,"SoundDuration":50261,"Delta":164336388},{"NoteNumber":35,"Velocity":37,"Duration":133853,"SoundDuration":133853,"Delta":164369896},{"NoteNumber":38,"Velocity":43,"Duration":133853,"SoundDuration":133853,"Delta":164369896},{"NoteNumber":52,"Velocity":32,"Duration":50261,"SoundDuration":50261,"Delta":164386649},{"NoteNumber":48,"Velocity":32,"Duration":50261,"SoundDuration":50261,"Delta":164436911},{"NoteNumber":52,"Velocity":31,"Duration":49640,"SoundDuration":49640,"Delta":164487172},{"NoteNumber":34,"Velocity":36,"Duration":132789,"SoundDuration":132789,"Delta":164503749},{"NoteNumber":37,"Velocity":41,"Duration":132789,"SoundDuration":132789,"Delta":164503749},{"NoteNumber":48,"Velocity":31,"Duration":49596,"SoundDuration":49596,"Delta":164536813},{"NoteNumber":52,"Velocity":31,"Duration":50128,"SoundDuration":50128,"Delta":164586410},{"NoteNumber":57,"Velocity":57,"Duration":780288,"SoundDuration":780288,"Delta":164636538},{"NoteNumber":33,"Velocity":31,"Duration":397859,"SoundDuration":397859,"Delta":164636538},{"NoteNumber":36,"Velocity":48,"Duration":397859,"SoundDuration":397859,"Delta":164636538},{"NoteNumber":48,"Velocity":31,"Duration":50261,"SoundDuration":50261,"Delta":164636538},{"NoteNumber":52,"Velocity":30,"Duration":50261,"SoundDuration":50261,"Delta":164686799},{"NoteNumber":48,"Velocity":30,"Duration":50217,"SoundDuration":50217,"Delta":164737061},{"NoteNumber":52,"Velocity":30,"Duration":49596,"SoundDuration":49596,"Delta":164787278},{"NoteNumber":48,"Velocity":30,"Duration":49596,"SoundDuration":49596,"Delta":164836875},{"NoteNumber":52,"Velocity":29,"Duration":49596,"SoundDuration":49596,"Delta":164886471},{"NoteNumber":48,"Velocity":29,"Duration":49380,"SoundDuration":49380,"Delta":164936068},{"NoteNumber":52,"Velocity":29,"Duration":48949,"SoundDuration":48949,"Delta":164985449},{"NoteNumber":48,"Velocity":29,"Duration":48949,"SoundDuration":48949,"Delta":165034398},{"NoteNumber":52,"Velocity":28,"Duration":48949,"SoundDuration":48949,"Delta":165083347},{"NoteNumber":48,"Velocity":28,"Duration":48570,"SoundDuration":48570,"Delta":165132296},{"NoteNumber":52,"Velocity":28,"Duration":48318,"SoundDuration":48318,"Delta":165180867},{"NoteNumber":48,"Velocity":28,"Duration":48318,"SoundDuration":48318,"Delta":165229186},{"NoteNumber":52,"Velocity":27,"Duration":48072,"SoundDuration":48072,"Delta":165277504},{"NoteNumber":69,"Velocity":48,"Duration":91249,"SoundDuration":91249,"Delta":165325577},{"NoteNumber":57,"Velocity":43,"Duration":91249,"SoundDuration":91249,"Delta":165325577},{"NoteNumber":48,"Velocity":27,"Duration":45855,"SoundDuration":45855,"Delta":165325577},{"NoteNumber":52,"Velocity":27,"Duration":45394,"SoundDuration":45394,"Delta":165371433},{"NoteNumber":69,"Velocity":54,"Duration":392947,"SoundDuration":392947,"Delta":165416827},{"NoteNumber":57,"Velocity":49,"Duration":392947,"SoundDuration":392947,"Delta":165416827},{"NoteNumber":48,"Velocity":31,"Duration":45637,"SoundDuration":45637,"Delta":165416827},{"NoteNumber":52,"Velocity":30,"Duration":49596,"SoundDuration":49596,"Delta":165462465},{"NoteNumber":48,"Velocity":30,"Duration":49596,"SoundDuration":49596,"Delta":165512061},{"NoteNumber":52,"Velocity":30,"Duration":49596,"SoundDuration":49596,"Delta":165561658},{"NoteNumber":48,"Velocity":30,"Duration":49596,"SoundDuration":49596,"Delta":165611255},{"NoteNumber":52,"Velocity":29,"Duration":49596,"SoundDuration":49596,"Delta":165660851},{"NoteNumber":48,"Velocity":29,"Duration":49596,"SoundDuration":49596,"Delta":165710448},{"NoteNumber":52,"Velocity":29,"Duration":49729,"SoundDuration":49729,"Delta":165760045},{"NoteNumber":48,"Velocity":29,"Duration":50261,"SoundDuration":50261,"Delta":165809774},{"NoteNumber":52,"Velocity":28,"Duration":50261,"SoundDuration":50261,"Delta":165860035},{"NoteNumber":48,"Velocity":28,"Duration":50261,"SoundDuration":50261,"Delta":165910297},{"NoteNumber":52,"Velocity":28,"Duration":50261,"SoundDuration":50261,"Delta":165960558},{"NoteNumber":48,"Velocity":28,"Duration":50261,"SoundDuration":50261,"Delta":166010820},{"NoteNumber":52,"Velocity":27,"Duration":50261,"SoundDuration":50261,"Delta":166061081},{"NoteNumber":45,"Velocity":46,"Duration":67493,"SoundDuration":67493,"Delta":166111342},{"NoteNumber":57,"Velocity":54,"Duration":67493,"SoundDuration":67493,"Delta":166111342},{"NoteNumber":48,"Velocity":27,"Duration":50511,"SoundDuration":50511,"Delta":166111342},{"NoteNumber":52,"Velocity":27,"Duration":50916,"SoundDuration":50916,"Delta":166161854},{"NoteNumber":48,"Velocity":47,"Duration":552823,"SoundDuration":552823,"Delta":166178836},{"NoteNumber":52,"Velocity":47,"Duration":779625,"SoundDuration":779625,"Delta":166195817},{"NoteNumber":57,"Velocity":35,"Duration":135116,"SoundDuration":135116,"Delta":166212771},{"NoteNumber":45,"Velocity":45,"Duration":135116,"SoundDuration":135116,"Delta":166212771},{"NoteNumber":36,"Velocity":47,"Duration":762672,"SoundDuration":762672,"Delta":166212771},{"NoteNumber":40,"Velocity":47,"Duration":762672,"SoundDuration":762672,"Delta":166212771},{"NoteNumber":58,"Velocity":36,"Duration":130732,"SoundDuration":130732,"Delta":166347888},{"NoteNumber":46,"Velocity":25,"Duration":130732,"SoundDuration":130732,"Delta":166347888},{"NoteNumber":59,"Velocity":36,"Duration":127499,"SoundDuration":127499,"Delta":166478620},{"NoteNumber":47,"Velocity":26,"Duration":127499,"SoundDuration":127499,"Delta":166478620},{"NoteNumber":60,"Velocity":38,"Duration":125539,"SoundDuration":125539,"Delta":166606120},{"NoteNumber":48,"Velocity":27,"Duration":369323,"SoundDuration":369323,"Delta":166606120},{"NoteNumber":61,"Velocity":39,"Duration":122801,"SoundDuration":122801,"Delta":166731659},{"NoteNumber":49,"Velocity":28,"Duration":122801,"SoundDuration":122801,"Delta":166731659},{"NoteNumber":62,"Velocity":40,"Duration":120982,"SoundDuration":120982,"Delta":166854460},{"NoteNumber":50,"Velocity":30,"Duration":120982,"SoundDuration":120982,"Delta":166854460},{"NoteNumber":63,"Velocity":42,"Duration":118438,"SoundDuration":118438,"Delta":166975443},{"NoteNumber":51,"Velocity":31,"Duration":118438,"SoundDuration":118438,"Delta":166975443},{"NoteNumber":64,"Velocity":43,"Duration":116778,"SoundDuration":116778,"Delta":167093881},{"NoteNumber":52,"Velocity":32,"Duration":116778,"SoundDuration":116778,"Delta":167093881},{"NoteNumber":65,"Velocity":44,"Duration":118336,"SoundDuration":118336,"Delta":167210660},{"NoteNumber":53,"Velocity":34,"Duration":118336,"SoundDuration":118336,"Delta":167210660},{"NoteNumber":66,"Velocity":45,"Duration":110277,"SoundDuration":110277,"Delta":167328996},{"NoteNumber":54,"Velocity":35,"Duration":110277,"SoundDuration":110277,"Delta":167328996},{"NoteNumber":67,"Velocity":46,"Duration":110277,"SoundDuration":110277,"Delta":167439274},{"NoteNumber":55,"Velocity":36,"Duration":110277,"SoundDuration":110277,"Delta":167439274},{"NoteNumber":68,"Velocity":47,"Duration":110277,"SoundDuration":110277,"Delta":167549551},{"NoteNumber":56,"Velocity":36,"Duration":110277,"SoundDuration":110277,"Delta":167549551},{"NoteNumber":69,"Velocity":51,"Duration":129288,"SoundDuration":129288,"Delta":167659829},{"NoteNumber":81,"Velocity":51,"Duration":129288,"SoundDuration":129288,"Delta":167659829},{"NoteNumber":48,"Velocity":53,"Duration":129288,"SoundDuration":129288,"Delta":167659829},{"NoteNumber":52,"Velocity":53,"Duration":129288,"SoundDuration":129288,"Delta":167659829},{"NoteNumber":57,"Velocity":53,"Duration":129288,"SoundDuration":129288,"Delta":167659829},{"NoteNumber":69,"Velocity":51,"Duration":126393,"SoundDuration":126393,"Delta":167789117},{"NoteNumber":81,"Velocity":62,"Duration":734341,"SoundDuration":734341,"Delta":167789117},{"NoteNumber":48,"Velocity":52,"Duration":734341,"SoundDuration":734341,"Delta":167789117},{"NoteNumber":52,"Velocity":52,"Duration":734341,"SoundDuration":734341,"Delta":167789117},{"NoteNumber":57,"Velocity":52,"Duration":126393,"SoundDuration":126393,"Delta":167789117},{"NoteNumber":68,"Velocity":51,"Duration":125222,"SoundDuration":125222,"Delta":167915511},{"NoteNumber":56,"Velocity":38,"Duration":125222,"SoundDuration":125222,"Delta":167915511},{"NoteNumber":67,"Velocity":50,"Duration":123102,"SoundDuration":123102,"Delta":168040734},{"NoteNumber":55,"Velocity":38,"Duration":123102,"SoundDuration":123102,"Delta":168040734},{"NoteNumber":66,"Velocity":49,"Duration":121605,"SoundDuration":121605,"Delta":168163836},{"NoteNumber":54,"Velocity":37,"Duration":121605,"SoundDuration":121605,"Delta":168163836},{"NoteNumber":65,"Velocity":48,"Duration":119857,"SoundDuration":119857,"Delta":168285442},{"NoteNumber":53,"Velocity":36,"Duration":119857,"SoundDuration":119857,"Delta":168285442},{"NoteNumber":64,"Velocity":47,"Duration":118158,"SoundDuration":118158,"Delta":168405300},{"NoteNumber":52,"Velocity":36,"Duration":118158,"SoundDuration":118158,"Delta":168405300},{"NoteNumber":63,"Velocity":46,"Duration":116778,"SoundDuration":116778,"Delta":168523458},{"NoteNumber":51,"Velocity":36,"Duration":116778,"SoundDuration":116778,"Delta":168523458},{"NoteNumber":62,"Velocity":45,"Duration":115130,"SoundDuration":115130,"Delta":168640237},{"NoteNumber":50,"Velocity":35,"Duration":115130,"SoundDuration":115130,"Delta":168640237},{"NoteNumber":61,"Velocity":44,"Duration":113336,"SoundDuration":113336,"Delta":168755367},{"NoteNumber":49,"Velocity":34,"Duration":113336,"SoundDuration":113336,"Delta":168755367},{"NoteNumber":60,"Velocity":43,"Duration":107127,"SoundDuration":107127,"Delta":168868704},{"NoteNumber":48,"Velocity":34,"Duration":107127,"SoundDuration":107127,"Delta":168868704},{"NoteNumber":59,"Velocity":43,"Duration":107127,"SoundDuration":107127,"Delta":168975831},{"NoteNumber":47,"Velocity":33,"Duration":107127,"SoundDuration":107127,"Delta":168975831},{"NoteNumber":58,"Velocity":42,"Duration":107127,"SoundDuration":107127,"Delta":169082959},{"NoteNumber":46,"Velocity":33,"Duration":107127,"SoundDuration":107127,"Delta":169082959},{"NoteNumber":52,"Velocity":58,"Duration":118493,"SoundDuration":118493,"Delta":169190086},{"NoteNumber":57,"Velocity":58,"Duration":118493,"SoundDuration":118493,"Delta":169190086},{"NoteNumber":36,"Velocity":50,"Duration":118493,"SoundDuration":118493,"Delta":169190086},{"NoteNumber":45,"Velocity":50,"Duration":118493,"SoundDuration":118493,"Delta":169190086},{"NoteNumber":53,"Velocity":45,"Duration":744775,"SoundDuration":744775,"Delta":169308580},{"NoteNumber":58,"Velocity":48,"Duration":128148,"SoundDuration":128148,"Delta":169308580},{"NoteNumber":38,"Velocity":47,"Duration":744775,"SoundDuration":744775,"Delta":169308580},{"NoteNumber":46,"Velocity":45,"Duration":128148,"SoundDuration":128148,"Delta":169308580},{"NoteNumber":57,"Velocity":60,"Duration":744660,"SoundDuration":744660,"Delta":169310182},{"NoteNumber":59,"Velocity":45,"Duration":126526,"SoundDuration":126526,"Delta":169436728},{"NoteNumber":47,"Velocity":34,"Duration":126526,"SoundDuration":126526,"Delta":169436728},{"NoteNumber":60,"Velocity":45,"Duration":124945,"SoundDuration":124945,"Delta":169563255},{"NoteNumber":48,"Velocity":35,"Duration":124945,"SoundDuration":124945,"Delta":169563255},{"NoteNumber":61,"Velocity":45,"Duration":123403,"SoundDuration":123403,"Delta":169688200},{"NoteNumber":49,"Velocity":36,"Duration":123403,"SoundDuration":123403,"Delta":169688200},{"NoteNumber":62,"Velocity":47,"Duration":121605,"SoundDuration":121605,"Delta":169811604},{"NoteNumber":50,"Velocity":36,"Duration":121605,"SoundDuration":121605,"Delta":169811604},{"NoteNumber":63,"Velocity":48,"Duration":120144,"SoundDuration":120144,"Delta":169933210},{"NoteNumber":51,"Velocity":37,"Duration":120144,"SoundDuration":120144,"Delta":169933210},{"NoteNumber":64,"Velocity":49,"Duration":118718,"SoundDuration":118718,"Delta":170053355},{"NoteNumber":52,"Velocity":38,"Duration":118718,"SoundDuration":118718,"Delta":170053355},{"NoteNumber":65,"Velocity":51,"Duration":117325,"SoundDuration":117325,"Delta":170172073},{"NoteNumber":53,"Velocity":39,"Duration":117325,"SoundDuration":117325,"Delta":170172073},{"NoteNumber":66,"Velocity":52,"Duration":115964,"SoundDuration":115964,"Delta":170289399},{"NoteNumber":54,"Velocity":40,"Duration":115964,"SoundDuration":115964,"Delta":170289399},{"NoteNumber":67,"Velocity":53,"Duration":110277,"SoundDuration":110277,"Delta":170405363},{"NoteNumber":55,"Velocity":41,"Duration":110277,"SoundDuration":110277,"Delta":170405363},{"NoteNumber":68,"Velocity":54,"Duration":110277,"SoundDuration":110277,"Delta":170515641},{"NoteNumber":56,"Velocity":42,"Duration":110277,"SoundDuration":110277,"Delta":170515641},{"NoteNumber":69,"Velocity":54,"Duration":110277,"SoundDuration":110277,"Delta":170625919},{"NoteNumber":57,"Velocity":43,"Duration":110277,"SoundDuration":110277,"Delta":170625919},{"NoteNumber":70,"Velocity":55,"Duration":129288,"SoundDuration":129288,"Delta":170736197},{"NoteNumber":81,"Velocity":69,"Duration":129288,"SoundDuration":129288,"Delta":170736197},{"NoteNumber":50,"Velocity":54,"Duration":129288,"SoundDuration":129288,"Delta":170736197},{"NoteNumber":53,"Velocity":54,"Duration":129288,"SoundDuration":129288,"Delta":170736197},{"NoteNumber":58,"Velocity":54,"Duration":129288,"SoundDuration":129288,"Delta":170736197},{"NoteNumber":71,"Velocity":55,"Duration":126393,"SoundDuration":126393,"Delta":170865485},{"NoteNumber":81,"Velocity":71,"Duration":733446,"SoundDuration":733446,"Delta":170865485},{"NoteNumber":51,"Velocity":52,"Duration":733446,"SoundDuration":733446,"Delta":170865485},{"NoteNumber":54,"Velocity":52,"Duration":733446,"SoundDuration":733446,"Delta":170865485},{"NoteNumber":59,"Velocity":52,"Duration":126393,"SoundDuration":126393,"Delta":170865485},{"NoteNumber":70,"Velocity":57,"Duration":125222,"SoundDuration":125222,"Delta":170991879},{"NoteNumber":58,"Velocity":45,"Duration":125222,"SoundDuration":125222,"Delta":170991879},{"NoteNumber":69,"Velocity":56,"Duration":123102,"SoundDuration":123102,"Delta":171117101},{"NoteNumber":57,"Velocity":45,"Duration":123102,"SoundDuration":123102,"Delta":171117101},{"NoteNumber":68,"Velocity":54,"Duration":121312,"SoundDuration":121312,"Delta":171240204},{"NoteNumber":56,"Velocity":44,"Duration":121312,"SoundDuration":121312,"Delta":171240204},{"NoteNumber":67,"Velocity":54,"Duration":119571,"SoundDuration":119571,"Delta":171361516},{"NoteNumber":55,"Velocity":44,"Duration":119571,"SoundDuration":119571,"Delta":171361516},{"NoteNumber":66,"Velocity":53,"Duration":117844,"SoundDuration":117844,"Delta":171481087},{"NoteNumber":54,"Velocity":43,"Duration":117844,"SoundDuration":117844,"Delta":171481087},{"NoteNumber":65,"Velocity":51,"Duration":116232,"SoundDuration":116232,"Delta":171598931},{"NoteNumber":53,"Velocity":42,"Duration":116232,"SoundDuration":116232,"Delta":171598931},{"NoteNumber":64,"Velocity":50,"Duration":114847,"SoundDuration":114847,"Delta":171719473},{"NoteNumber":52,"Velocity":41,"Duration":114847,"SoundDuration":114847,"Delta":171719473},{"NoteNumber":63,"Velocity":49,"Duration":113336,"SoundDuration":113336,"Delta":171830060},{"NoteNumber":51,"Velocity":40,"Duration":113336,"SoundDuration":113336,"Delta":171830060},{"NoteNumber":62,"Velocity":47,"Duration":107127,"SoundDuration":107127,"Delta":171943396},{"NoteNumber":50,"Velocity":39,"Duration":107127,"SoundDuration":107127,"Delta":171943396},{"NoteNumber":61,"Velocity":46,"Duration":107127,"SoundDuration":107127,"Delta":172050524},{"NoteNumber":49,"Velocity":39,"Duration":107127,"SoundDuration":107127,"Delta":172050524},{"NoteNumber":60,"Velocity":46,"Duration":107127,"SoundDuration":107127,"Delta":172157651},{"NoteNumber":48,"Velocity":39,"Duration":107127,"SoundDuration":107127,"Delta":172157651},{"NoteNumber":58,"Velocity":48,"Duration":126024,"SoundDuration":126024,"Delta":172264779},{"NoteNumber":53,"Velocity":33,"Duration":126024,"SoundDuration":126024,"Delta":172264779},{"NoteNumber":59,"Velocity":66,"Duration":126024,"SoundDuration":126024,"Delta":172264779},{"NoteNumber":39,"Velocity":35,"Duration":126024,"SoundDuration":126024,"Delta":172264779},{"NoteNumber":47,"Velocity":50,"Duration":126024,"SoundDuration":126024,"Delta":172264779},{"NoteNumber":57,"Velocity":54,"Duration":727476,"SoundDuration":727476,"Delta":172390804},{"NoteNumber":60,"Velocity":66,"Duration":126210,"SoundDuration":126210,"Delta":172390804},{"NoteNumber":40,"Velocity":54,"Duration":727476,"SoundDuration":727476,"Delta":172390804},{"NoteNumber":48,"Velocity":45,"Duration":126210,"SoundDuration":126210,"Delta":172390804},{"NoteNumber":61,"Velocity":50,"Duration":124328,"SoundDuration":124328,"Delta":172517014},{"NoteNumber":49,"Velocity":40,"Duration":124328,"SoundDuration":124328,"Delta":172517014},{"NoteNumber":62,"Velocity":51,"Duration":122163,"SoundDuration":122163,"Delta":172641343},{"NoteNumber":50,"Velocity":41,"Duration":122163,"SoundDuration":122163,"Delta":172641343},{"NoteNumber":63,"Velocity":52,"Duration":120144,"SoundDuration":120144,"Delta":172763506},{"NoteNumber":51,"Velocity":42,"Duration":120144,"SoundDuration":120144,"Delta":172763506},{"NoteNumber":64,"Velocity":53,"Duration":118158,"SoundDuration":118158,"Delta":172883650},{"NoteNumber":52,"Velocity":43,"Duration":118158,"SoundDuration":118158,"Delta":172883650},{"NoteNumber":65,"Velocity":53,"Duration":116471,"SoundDuration":116471,"Delta":173001809},{"NoteNumber":53,"Velocity":44,"Duration":116471,"SoundDuration":116471,"Delta":173001809},{"NoteNumber":66,"Velocity":54,"Duration":114374,"SoundDuration":114374,"Delta":173118280},{"NoteNumber":54,"Velocity":44,"Duration":114374,"SoundDuration":114374,"Delta":173118280},{"NoteNumber":67,"Velocity":54,"Duration":112825,"SoundDuration":112825,"Delta":173232654},{"NoteNumber":55,"Velocity":45,"Duration":112825,"SoundDuration":112825,"Delta":173232654},{"NoteNumber":68,"Velocity":55,"Duration":111042,"SoundDuration":111042,"Delta":173345480},{"NoteNumber":56,"Velocity":45,"Duration":111042,"SoundDuration":111042,"Delta":173345480},{"NoteNumber":69,"Velocity":56,"Duration":110277,"SoundDuration":110277,"Delta":173456523},{"NoteNumber":57,"Velocity":46,"Duration":110277,"SoundDuration":110277,"Delta":173456523},{"NoteNumber":70,"Velocity":56,"Duration":110277,"SoundDuration":110277,"Delta":173566801},{"NoteNumber":58,"Velocity":47,"Duration":110277,"SoundDuration":110277,"Delta":173566801},{"NoteNumber":71,"Velocity":57,"Duration":110277,"SoundDuration":110277,"Delta":173677078},{"NoteNumber":59,"Velocity":45,"Duration":110277,"SoundDuration":110277,"Delta":173677078},{"NoteNumber":69,"Velocity":53,"Duration":128103,"SoundDuration":128103,"Delta":173787356},{"NoteNumber":72,"Velocity":57,"Duration":128103,"SoundDuration":128103,"Delta":173787356},{"NoteNumber":81,"Velocity":77,"Duration":128103,"SoundDuration":128103,"Delta":173787356},{"NoteNumber":52,"Velocity":45,"Duration":128103,"SoundDuration":128103,"Delta":173787356},{"NoteNumber":57,"Velocity":45,"Duration":128103,"SoundDuration":128103,"Delta":173787356},{"NoteNumber":60,"Velocity":45,"Duration":128103,"SoundDuration":128103,"Delta":173787356},{"NoteNumber":69,"Velocity":70,"Duration":369955,"SoundDuration":369955,"Delta":173915459},{"NoteNumber":73,"Velocity":57,"Duration":124945,"SoundDuration":124945,"Delta":173915459},{"NoteNumber":81,"Velocity":77,"Duration":725590,"SoundDuration":725590,"Delta":173915459},{"NoteNumber":52,"Velocity":55,"Duration":725590,"SoundDuration":725590,"Delta":173915459},{"NoteNumber":55,"Velocity":55,"Duration":725590,"SoundDuration":725590,"Delta":173915459},{"NoteNumber":61,"Velocity":55,"Duration":124945,"SoundDuration":124945,"Delta":173915459},{"NoteNumber":72,"Velocity":61,"Duration":123403,"SoundDuration":123403,"Delta":174040405},{"NoteNumber":60,"Velocity":51,"Duration":123403,"SoundDuration":123403,"Delta":174040405},{"NoteNumber":71,"Velocity":59,"Duration":121605,"SoundDuration":121605,"Delta":174163809},{"NoteNumber":59,"Velocity":49,"Duration":121605,"SoundDuration":121605,"Delta":174163809},{"NoteNumber":70,"Velocity":58,"Duration":120144,"SoundDuration":120144,"Delta":174285415},{"NoteNumber":58,"Velocity":47,"Duration":120144,"SoundDuration":120144,"Delta":174285415},{"NoteNumber":69,"Velocity":56,"Duration":118438,"SoundDuration":118438,"Delta":174405560},{"NoteNumber":57,"Velocity":46,"Duration":118438,"SoundDuration":118438,"Delta":174405560},{"NoteNumber":68,"Velocity":55,"Duration":117051,"SoundDuration":117051,"Delta":174523998},{"NoteNumber":56,"Velocity":45,"Duration":117051,"SoundDuration":117051,"Delta":174523998},{"NoteNumber":67,"Velocity":54,"Duration":115430,"SoundDuration":115430,"Delta":174641050},{"NoteNumber":55,"Velocity":45,"Duration":115430,"SoundDuration":115430,"Delta":174641050},{"NoteNumber":66,"Velocity":52,"Duration":114064,"SoundDuration":114064,"Delta":174760790},{"NoteNumber":54,"Velocity":44,"Duration":114064,"SoundDuration":114064,"Delta":174760790},{"NoteNumber":65,"Velocity":51,"Duration":112539,"SoundDuration":112539,"Delta":174870593},{"NoteNumber":53,"Velocity":43,"Duration":112539,"SoundDuration":112539,"Delta":174870593},{"NoteNumber":64,"Velocity":49,"Duration":84902,"SoundDuration":84902,"Delta":174983133},{"NoteNumber":52,"Velocity":41,"Duration":84902,"SoundDuration":84902,"Delta":174983133},{"NoteNumber":63,"Velocity":48,"Duration":87207,"SoundDuration":87207,"Delta":175068035},{"NoteNumber":51,"Velocity":41,"Duration":87207,"SoundDuration":87207,"Delta":175068035},{"NoteNumber":62,"Velocity":47,"Duration":89637,"SoundDuration":89637,"Delta":175155242},{"NoteNumber":50,"Velocity":40,"Duration":89637,"SoundDuration":89637,"Delta":175155242},{"NoteNumber":57,"Velocity":46,"Duration":92590,"SoundDuration":92590,"Delta":175244879},{"NoteNumber":61,"Velocity":46,"Duration":92590,"SoundDuration":92590,"Delta":175244879},{"NoteNumber":40,"Velocity":50,"Duration":92590,"SoundDuration":92590,"Delta":175244879},{"NoteNumber":43,"Velocity":50,"Duration":92590,"SoundDuration":92590,"Delta":175244879},{"NoteNumber":49,"Velocity":50,"Duration":92590,"SoundDuration":92590,"Delta":175244879},{"NoteNumber":57,"Velocity":46,"Duration":718264,"SoundDuration":718264,"Delta":175337470},{"NoteNumber":62,"Velocity":46,"Duration":92581,"SoundDuration":92581,"Delta":175337470},{"NoteNumber":41,"Velocity":49,"Duration":718264,"SoundDuration":718264,"Delta":175337470},{"NoteNumber":50,"Velocity":42,"Duration":92581,"SoundDuration":92581,"Delta":175337470},{"NoteNumber":63,"Velocity":47,"Duration":91828,"SoundDuration":91828,"Delta":175430051},{"NoteNumber":51,"Velocity":41,"Duration":91828,"SoundDuration":91828,"Delta":175430051},{"NoteNumber":64,"Velocity":48,"Duration":91084,"SoundDuration":91084,"Delta":175521880},{"NoteNumber":52,"Velocity":42,"Duration":91084,"SoundDuration":91084,"Delta":175521880},{"NoteNumber":65,"Velocity":49,"Duration":90350,"SoundDuration":90350,"Delta":175612965},{"NoteNumber":53,"Velocity":42,"Duration":90350,"SoundDuration":90350,"Delta":175612965},{"NoteNumber":66,"Velocity":50,"Duration":89275,"SoundDuration":89275,"Delta":175703315},{"NoteNumber":54,"Velocity":43,"Duration":89275,"SoundDuration":89275,"Delta":175703315},{"NoteNumber":67,"Velocity":51,"Duration":88399,"SoundDuration":88399,"Delta":175792590},{"NoteNumber":55,"Velocity":44,"Duration":88399,"SoundDuration":88399,"Delta":175792590},{"NoteNumber":68,"Velocity":52,"Duration":87711,"SoundDuration":87711,"Delta":175880990},{"NoteNumber":56,"Velocity":45,"Duration":87711,"SoundDuration":87711,"Delta":175880990},{"NoteNumber":69,"Velocity":53,"Duration":87032,"SoundDuration":87032,"Delta":175968702},{"NoteNumber":57,"Velocity":45,"Duration":87032,"SoundDuration":87032,"Delta":175968702},{"NoteNumber":70,"Velocity":54,"Duration":86196,"SoundDuration":86196,"Delta":176055734},{"NoteNumber":58,"Velocity":45,"Duration":86196,"SoundDuration":86196,"Delta":176055734},{"NoteNumber":71,"Velocity":54,"Duration":85380,"SoundDuration":85380,"Delta":176141931},{"NoteNumber":59,"Velocity":46,"Duration":85380,"SoundDuration":85380,"Delta":176141931},{"NoteNumber":72,"Velocity":54,"Duration":84579,"SoundDuration":84579,"Delta":176227312},{"NoteNumber":60,"Velocity":47,"Duration":84579,"SoundDuration":84579,"Delta":176227312},{"NoteNumber":73,"Velocity":55,"Duration":83948,"SoundDuration":83948,"Delta":176311892},{"NoteNumber":61,"Velocity":48,"Duration":83948,"SoundDuration":83948,"Delta":176311892},{"NoteNumber":74,"Velocity":57,"Duration":83324,"SoundDuration":83324,"Delta":176395840},{"NoteNumber":62,"Velocity":49,"Duration":83324,"SoundDuration":83324,"Delta":176395840},{"NoteNumber":75,"Velocity":57,"Duration":82408,"SoundDuration":82408,"Delta":176479164},{"NoteNumber":63,"Velocity":49,"Duration":82408,"SoundDuration":82408,"Delta":176479164},{"NoteNumber":76,"Velocity":58,"Duration":81811,"SoundDuration":81811,"Delta":176561572},{"NoteNumber":64,"Velocity":50,"Duration":81811,"SoundDuration":81811,"Delta":176561572},{"NoteNumber":77,"Velocity":59,"Duration":81074,"SoundDuration":81074,"Delta":176643384},{"NoteNumber":65,"Velocity":51,"Duration":81074,"SoundDuration":81074,"Delta":176643384},{"NoteNumber":78,"Velocity":60,"Duration":80493,"SoundDuration":80493,"Delta":176724459},{"NoteNumber":66,"Velocity":52,"Duration":80493,"SoundDuration":80493,"Delta":176724459},{"NoteNumber":79,"Velocity":61,"Duration":79778,"SoundDuration":79778,"Delta":176804952},{"NoteNumber":67,"Velocity":52,"Duration":79778,"SoundDuration":79778,"Delta":176804952},{"NoteNumber":80,"Velocity":62,"Duration":79078,"SoundDuration":79078,"Delta":176884731},{"NoteNumber":68,"Velocity":53,"Duration":79078,"SoundDuration":79078,"Delta":176884731},{"NoteNumber":81,"Velocity":63,"Duration":78527,"SoundDuration":78527,"Delta":176963810},{"NoteNumber":69,"Velocity":54,"Duration":78527,"SoundDuration":78527,"Delta":176963810},{"NoteNumber":82,"Velocity":63,"Duration":77848,"SoundDuration":77848,"Delta":177042338},{"NoteNumber":70,"Velocity":54,"Duration":77848,"SoundDuration":77848,"Delta":177042338},{"NoteNumber":83,"Velocity":64,"Duration":77311,"SoundDuration":77311,"Delta":177120186},{"NoteNumber":71,"Velocity":55,"Duration":77311,"SoundDuration":77311,"Delta":177120186},{"NoteNumber":84,"Velocity":65,"Duration":76522,"SoundDuration":76522,"Delta":177197498},{"NoteNumber":72,"Velocity":55,"Duration":76522,"SoundDuration":76522,"Delta":177197498},{"NoteNumber":85,"Velocity":66,"Duration":86196,"SoundDuration":86196,"Delta":177274021},{"NoteNumber":73,"Velocity":56,"Duration":86196,"SoundDuration":86196,"Delta":177274021},{"NoteNumber":86,"Velocity":77,"Duration":86196,"SoundDuration":86196,"Delta":177360218},{"NoteNumber":74,"Velocity":65,"Duration":86196,"SoundDuration":86196,"Delta":177360218},{"NoteNumber":85,"Velocity":66,"Duration":86033,"SoundDuration":86033,"Delta":177446415},{"NoteNumber":73,"Velocity":57,"Duration":86033,"SoundDuration":86033,"Delta":177446415},{"NoteNumber":84,"Velocity":65,"Duration":85217,"SoundDuration":85217,"Delta":177532448},{"NoteNumber":72,"Velocity":58,"Duration":85217,"SoundDuration":85217,"Delta":177532448},{"NoteNumber":83,"Velocity":63,"Duration":84898,"SoundDuration":84898,"Delta":177617666},{"NoteNumber":71,"Velocity":56,"Duration":84898,"SoundDuration":84898,"Delta":177617666},{"NoteNumber":82,"Velocity":63,"Duration":84260,"SoundDuration":84260,"Delta":177702564},{"NoteNumber":70,"Velocity":55,"Duration":84260,"SoundDuration":84260,"Delta":177702564},{"NoteNumber":81,"Velocity":62,"Duration":83792,"SoundDuration":83792,"Delta":177786825},{"NoteNumber":69,"Velocity":54,"Duration":83792,"SoundDuration":83792,"Delta":177786825},{"NoteNumber":80,"Velocity":60,"Duration":83324,"SoundDuration":83324,"Delta":177870617},{"NoteNumber":68,"Velocity":54,"Duration":83324,"SoundDuration":83324,"Delta":177870617},{"NoteNumber":79,"Velocity":59,"Duration":82561,"SoundDuration":82561,"Delta":177953941},{"NoteNumber":67,"Velocity":53,"Duration":82561,"SoundDuration":82561,"Delta":177953941},{"NoteNumber":78,"Velocity":58,"Duration":82408,"SoundDuration":82408,"Delta":178036502},{"NoteNumber":66,"Velocity":52,"Duration":82408,"SoundDuration":82408,"Delta":178036502},{"NoteNumber":77,"Velocity":57,"Duration":81512,"SoundDuration":81512,"Delta":178118911},{"NoteNumber":65,"Velocity":51,"Duration":81512,"SoundDuration":81512,"Delta":178118911},{"NoteNumber":76,"Velocity":55,"Duration":81366,"SoundDuration":81366,"Delta":178200423},{"NoteNumber":64,"Velocity":50,"Duration":81366,"SoundDuration":81366,"Delta":178200423},{"NoteNumber":75,"Velocity":54,"Duration":80636,"SoundDuration":80636,"Delta":178281790},{"NoteNumber":63,"Velocity":49,"Duration":80636,"SoundDuration":80636,"Delta":178281790},{"NoteNumber":74,"Velocity":53,"Duration":80207,"SoundDuration":80207,"Delta":178362427},{"NoteNumber":62,"Velocity":48,"Duration":80207,"SoundDuration":80207,"Delta":178362427},{"NoteNumber":73,"Velocity":52,"Duration":79778,"SoundDuration":79778,"Delta":178442634},{"NoteNumber":61,"Velocity":47,"Duration":79778,"SoundDuration":79778,"Delta":178442634},{"NoteNumber":72,"Velocity":51,"Duration":79218,"SoundDuration":79218,"Delta":178522413},{"NoteNumber":60,"Velocity":46,"Duration":79218,"SoundDuration":79218,"Delta":178522413},{"NoteNumber":71,"Velocity":49,"Duration":78938,"SoundDuration":78938,"Delta":178601632},{"NoteNumber":59,"Velocity":45,"Duration":78938,"SoundDuration":78938,"Delta":178601632},{"NoteNumber":70,"Velocity":48,"Duration":78253,"SoundDuration":78253,"Delta":178680571},{"NoteNumber":58,"Velocity":44,"Duration":78253,"SoundDuration":78253,"Delta":178680571},{"NoteNumber":69,"Velocity":47,"Duration":77982,"SoundDuration":77982,"Delta":178758825},{"NoteNumber":57,"Velocity":44,"Duration":77982,"SoundDuration":77982,"Delta":178758825},{"NoteNumber":68,"Velocity":46,"Duration":77311,"SoundDuration":77311,"Delta":178836808},{"NoteNumber":56,"Velocity":42,"Duration":77311,"SoundDuration":77311,"Delta":178836808},{"NoteNumber":67,"Velocity":45,"Duration":77048,"SoundDuration":77048,"Delta":178914119},{"NoteNumber":55,"Velocity":41,"Duration":77048,"SoundDuration":77048,"Delta":178914119},{"NoteNumber":66,"Velocity":44,"Duration":76522,"SoundDuration":76522,"Delta":178991168},{"NoteNumber":54,"Velocity":40,"Duration":76522,"SoundDuration":76522,"Delta":178991168},{"NoteNumber":65,"Velocity":43,"Duration":76494,"SoundDuration":76494,"Delta":179067691},{"NoteNumber":53,"Velocity":39,"Duration":76494,"SoundDuration":76494,"Delta":179067691},{"NoteNumber":64,"Velocity":41,"Duration":79836,"SoundDuration":79836,"Delta":179144186},{"NoteNumber":52,"Velocity":38,"Duration":79836,"SoundDuration":79836,"Delta":179144186},{"NoteNumber":63,"Velocity":40,"Duration":84470,"SoundDuration":84470,"Delta":179224022},{"NoteNumber":51,"Velocity":50,"Duration":55732,"SoundDuration":55732,"Delta":179224022},{"NoteNumber":41,"Velocity":63,"Duration":381686,"SoundDuration":381686,"Delta":179279754},{"NoteNumber":50,"Velocity":63,"Duration":367400,"SoundDuration":367400,"Delta":179294041},{"NoteNumber":62,"Velocity":39,"Duration":89300,"SoundDuration":89300,"Delta":179308492},{"NoteNumber":58,"Velocity":82,"Duration":2025585,"SoundDuration":2025585,"Delta":179308492},{"NoteNumber":60,"Velocity":39,"Duration":88224,"SoundDuration":88224,"Delta":179397793},{"NoteNumber":63,"Velocity":39,"Duration":88224,"SoundDuration":88224,"Delta":179397793},{"NoteNumber":61,"Velocity":40,"Duration":88224,"SoundDuration":88224,"Delta":179486017},{"NoteNumber":64,"Velocity":40,"Duration":88224,"SoundDuration":88224,"Delta":179486017},{"NoteNumber":62,"Velocity":41,"Duration":87199,"SoundDuration":87199,"Delta":179574242},{"NoteNumber":65,"Velocity":41,"Duration":87199,"SoundDuration":87199,"Delta":179574242},{"NoteNumber":63,"Velocity":42,"Duration":87199,"SoundDuration":87199,"Delta":179661441},{"NoteNumber":66,"Velocity":42,"Duration":87199,"SoundDuration":87199,"Delta":179661441},{"NoteNumber":64,"Velocity":43,"Duration":86865,"SoundDuration":86865,"Delta":179748641},{"NoteNumber":67,"Velocity":43,"Duration":86865,"SoundDuration":86865,"Delta":179748641},{"NoteNumber":65,"Velocity":44,"Duration":86196,"SoundDuration":86196,"Delta":179835506},{"NoteNumber":68,"Velocity":44,"Duration":86196,"SoundDuration":86196,"Delta":179835506},{"NoteNumber":66,"Velocity":45,"Duration":86196,"SoundDuration":86196,"Delta":179921703},{"NoteNumber":69,"Velocity":45,"Duration":86196,"SoundDuration":86196,"Delta":179921703},{"NoteNumber":67,"Velocity":45,"Duration":85380,"SoundDuration":85380,"Delta":180007900},{"NoteNumber":70,"Velocity":45,"Duration":85380,"SoundDuration":85380,"Delta":180007900},{"NoteNumber":68,"Velocity":45,"Duration":85217,"SoundDuration":85217,"Delta":180093280},{"NoteNumber":71,"Velocity":45,"Duration":85217,"SoundDuration":85217,"Delta":180093280},{"NoteNumber":69,"Velocity":46,"Duration":85058,"SoundDuration":85058,"Delta":180178498},{"NoteNumber":72,"Velocity":46,"Duration":85058,"SoundDuration":85058,"Delta":180178498},{"NoteNumber":70,"Velocity":47,"Duration":84260,"SoundDuration":84260,"Delta":180263556},{"NoteNumber":73,"Velocity":47,"Duration":84260,"SoundDuration":84260,"Delta":180263556},{"NoteNumber":71,"Velocity":48,"Duration":84260,"SoundDuration":84260,"Delta":180347816},{"NoteNumber":74,"Velocity":48,"Duration":84260,"SoundDuration":84260,"Delta":180347816},{"NoteNumber":72,"Velocity":49,"Duration":83636,"SoundDuration":83636,"Delta":180432077},{"NoteNumber":75,"Velocity":49,"Duration":83636,"SoundDuration":83636,"Delta":180432077},{"NoteNumber":73,"Velocity":50,"Duration":83324,"SoundDuration":83324,"Delta":180515713},{"NoteNumber":76,"Velocity":50,"Duration":83324,"SoundDuration":83324,"Delta":180515713},{"NoteNumber":74,"Velocity":51,"Duration":83324,"SoundDuration":83324,"Delta":180599037},{"NoteNumber":77,"Velocity":51,"Duration":83324,"SoundDuration":83324,"Delta":180599037},{"NoteNumber":75,"Velocity":52,"Duration":82408,"SoundDuration":82408,"Delta":180682361},{"NoteNumber":78,"Velocity":52,"Duration":82408,"SoundDuration":82408,"Delta":180682361},{"NoteNumber":76,"Velocity":53,"Duration":82408,"SoundDuration":82408,"Delta":180764770},{"NoteNumber":79,"Velocity":53,"Duration":82408,"SoundDuration":82408,"Delta":180764770},{"NoteNumber":77,"Velocity":53,"Duration":81960,"SoundDuration":81960,"Delta":180847178},{"NoteNumber":80,"Velocity":53,"Duration":81960,"SoundDuration":81960,"Delta":180847178},{"NoteNumber":78,"Velocity":54,"Duration":81512,"SoundDuration":81512,"Delta":180929139},{"NoteNumber":81,"Velocity":54,"Duration":81512,"SoundDuration":81512,"Delta":180929139},{"NoteNumber":79,"Velocity":54,"Duration":81512,"SoundDuration":81512,"Delta":181010652},{"NoteNumber":82,"Velocity":54,"Duration":81512,"SoundDuration":81512,"Delta":181010652},{"NoteNumber":80,"Velocity":55,"Duration":80782,"SoundDuration":80782,"Delta":181092164},{"NoteNumber":83,"Velocity":55,"Duration":80782,"SoundDuration":80782,"Delta":181092164},{"NoteNumber":81,"Velocity":56,"Duration":80636,"SoundDuration":80636,"Delta":181172947},{"NoteNumber":84,"Velocity":56,"Duration":80636,"SoundDuration":80636,"Delta":181172947},{"NoteNumber":82,"Velocity":57,"Duration":80493,"SoundDuration":80493,"Delta":181253584},{"NoteNumber":85,"Velocity":57,"Duration":80493,"SoundDuration":80493,"Delta":181253584},{"NoteNumber":83,"Velocity":58,"Duration":79778,"SoundDuration":79778,"Delta":181334077},{"NoteNumber":86,"Velocity":58,"Duration":79778,"SoundDuration":79778,"Delta":181334077},{"NoteNumber":84,"Velocity":59,"Duration":79778,"SoundDuration":79778,"Delta":181413856},{"NoteNumber":87,"Velocity":59,"Duration":79778,"SoundDuration":79778,"Delta":181413856},{"NoteNumber":85,"Velocity":60,"Duration":79218,"SoundDuration":79218,"Delta":181493635},{"NoteNumber":88,"Velocity":60,"Duration":79218,"SoundDuration":79218,"Delta":181493635},{"NoteNumber":58,"Velocity":74,"Duration":782659,"SoundDuration":782659,"Delta":181493635},{"NoteNumber":86,"Velocity":60,"Duration":78938,"SoundDuration":78938,"Delta":181572854},{"NoteNumber":89,"Velocity":60,"Duration":78938,"SoundDuration":78938,"Delta":181572854},{"NoteNumber":87,"Velocity":61,"Duration":78939,"SoundDuration":78939,"Delta":181651793},{"NoteNumber":90,"Velocity":61,"Duration":78939,"SoundDuration":78939,"Delta":181651793},{"NoteNumber":88,"Velocity":62,"Duration":78116,"SoundDuration":78116,"Delta":181730732},{"NoteNumber":91,"Velocity":62,"Duration":78116,"SoundDuration":78116,"Delta":181730732},{"NoteNumber":89,"Velocity":63,"Duration":78116,"SoundDuration":78116,"Delta":181808848},{"NoteNumber":92,"Velocity":63,"Duration":78116,"SoundDuration":78116,"Delta":181808848},{"NoteNumber":90,"Velocity":63,"Duration":77714,"SoundDuration":77714,"Delta":181886965},{"NoteNumber":93,"Velocity":63,"Duration":77714,"SoundDuration":77714,"Delta":181886965},{"NoteNumber":91,"Velocity":64,"Duration":77311,"SoundDuration":77311,"Delta":181964680},{"NoteNumber":94,"Velocity":64,"Duration":77311,"SoundDuration":77311,"Delta":181964680},{"NoteNumber":92,"Velocity":65,"Duration":77311,"SoundDuration":77311,"Delta":182041991},{"NoteNumber":95,"Velocity":65,"Duration":77311,"SoundDuration":77311,"Delta":182041991},{"NoteNumber":93,"Velocity":66,"Duration":76646,"SoundDuration":76646,"Delta":182119303},{"NoteNumber":96,"Velocity":66,"Duration":76646,"SoundDuration":76646,"Delta":182119303},{"NoteNumber":94,"Velocity":67,"Duration":80344,"SoundDuration":80344,"Delta":182195950},{"NoteNumber":97,"Velocity":67,"Duration":80344,"SoundDuration":80344,"Delta":182195950},{"NoteNumber":95,"Velocity":72,"Duration":85555,"SoundDuration":85555,"Delta":182276294},{"NoteNumber":98,"Velocity":72,"Duration":85555,"SoundDuration":85555,"Delta":182276294},{"NoteNumber":41,"Velocity":69,"Duration":488407,"SoundDuration":488407,"Delta":182318308},{"NoteNumber":51,"Velocity":72,"Duration":474055,"SoundDuration":474055,"Delta":182332660},{"NoteNumber":57,"Velocity":74,"Duration":459537,"SoundDuration":459537,"Delta":182347178},{"NoteNumber":96,"Velocity":66,"Duration":126763,"SoundDuration":126763,"Delta":182361849},{"NoteNumber":99,"Velocity":66,"Duration":126763,"SoundDuration":126763,"Delta":182361849},{"NoteNumber":60,"Velocity":82,"Duration":1517884,"SoundDuration":1517884,"Delta":182361849},{"NoteNumber":95,"Velocity":66,"Duration":109033,"SoundDuration":109033,"Delta":182488613},{"NoteNumber":98,"Velocity":66,"Duration":109033,"SoundDuration":109033,"Delta":182488613},{"NoteNumber":94,"Velocity":65,"Duration":105929,"SoundDuration":105929,"Delta":182597646},{"NoteNumber":97,"Velocity":65,"Duration":105929,"SoundDuration":105929,"Delta":182597646},{"NoteNumber":93,"Velocity":64,"Duration":103139,"SoundDuration":103139,"Delta":182703576},{"NoteNumber":96,"Velocity":64,"Duration":103139,"SoundDuration":103139,"Delta":182703576},{"NoteNumber":92,"Velocity":64,"Duration":100478,"SoundDuration":100478,"Delta":182806715},{"NoteNumber":95,"Velocity":64,"Duration":100478,"SoundDuration":100478,"Delta":182806715},{"NoteNumber":91,"Velocity":63,"Duration":97939,"SoundDuration":97939,"Delta":182907194},{"NoteNumber":94,"Velocity":63,"Duration":97939,"SoundDuration":97939,"Delta":182907194},{"NoteNumber":90,"Velocity":63,"Duration":95346,"SoundDuration":95346,"Delta":183005133},{"NoteNumber":93,"Velocity":63,"Duration":95346,"SoundDuration":95346,"Delta":183005133},{"NoteNumber":89,"Velocity":62,"Duration":92970,"SoundDuration":92970,"Delta":183100480},{"NoteNumber":92,"Velocity":62,"Duration":92970,"SoundDuration":92970,"Delta":183100480},{"NoteNumber":88,"Velocity":62,"Duration":90751,"SoundDuration":90751,"Delta":183193450},{"NoteNumber":91,"Velocity":62,"Duration":90751,"SoundDuration":90751,"Delta":183193450},{"NoteNumber":87,"Velocity":61,"Duration":88704,"SoundDuration":88704,"Delta":183284202},{"NoteNumber":90,"Velocity":61,"Duration":88704,"SoundDuration":88704,"Delta":183284202},{"NoteNumber":86,"Velocity":60,"Duration":86728,"SoundDuration":86728,"Delta":183372906},{"NoteNumber":89,"Velocity":60,"Duration":86728,"SoundDuration":86728,"Delta":183372906},{"NoteNumber":85,"Velocity":59,"Duration":84688,"SoundDuration":84688,"Delta":183459635},{"NoteNumber":88,"Velocity":59,"Duration":84688,"SoundDuration":84688,"Delta":183459635},{"NoteNumber":84,"Velocity":59,"Duration":84034,"SoundDuration":84034,"Delta":183544323},{"NoteNumber":87,"Velocity":59,"Duration":84034,"SoundDuration":84034,"Delta":183544323},{"NoteNumber":83,"Velocity":58,"Duration":84260,"SoundDuration":84260,"Delta":183628357},{"NoteNumber":86,"Velocity":58,"Duration":84260,"SoundDuration":84260,"Delta":183628357},{"NoteNumber":82,"Velocity":57,"Duration":83792,"SoundDuration":83792,"Delta":183712618},{"NoteNumber":85,"Velocity":57,"Duration":83792,"SoundDuration":83792,"Delta":183712618},{"NoteNumber":81,"Velocity":57,"Duration":83324,"SoundDuration":83324,"Delta":183796410},{"NoteNumber":84,"Velocity":57,"Duration":83324,"SoundDuration":83324,"Delta":183796410},{"NoteNumber":80,"Velocity":56,"Duration":83018,"SoundDuration":83018,"Delta":183879734},{"NoteNumber":83,"Velocity":56,"Duration":83018,"SoundDuration":83018,"Delta":183879734},{"NoteNumber":79,"Velocity":55,"Duration":82408,"SoundDuration":82408,"Delta":183962753},{"NoteNumber":82,"Velocity":55,"Duration":82408,"SoundDuration":82408,"Delta":183962753},{"NoteNumber":78,"Velocity":54,"Duration":82109,"SoundDuration":82109,"Delta":184045161},{"NoteNumber":81,"Velocity":54,"Duration":82109,"SoundDuration":82109,"Delta":184045161},{"NoteNumber":77,"Velocity":54,"Duration":81512,"SoundDuration":81512,"Delta":184127271},{"NoteNumber":80,"Velocity":54,"Duration":81512,"SoundDuration":81512,"Delta":184127271},{"NoteNumber":76,"Velocity":54,"Duration":81220,"SoundDuration":81220,"Delta":184208784},{"NoteNumber":79,"Velocity":54,"Duration":81220,"SoundDuration":81220,"Delta":184208784},{"NoteNumber":75,"Velocity":53,"Duration":80636,"SoundDuration":80636,"Delta":184290005},{"NoteNumber":78,"Velocity":53,"Duration":80636,"SoundDuration":80636,"Delta":184290005},{"NoteNumber":51,"Velocity":79,"Duration":1244762,"SoundDuration":1244762,"Delta":184290005},{"NoteNumber":74,"Velocity":53,"Duration":80493,"SoundDuration":80493,"Delta":184370642},{"NoteNumber":77,"Velocity":53,"Duration":80493,"SoundDuration":80493,"Delta":184370642},{"NoteNumber":73,"Velocity":52,"Duration":79778,"SoundDuration":79778,"Delta":184451135},{"NoteNumber":76,"Velocity":52,"Duration":79778,"SoundDuration":79778,"Delta":184451135},{"NoteNumber":72,"Velocity":51,"Duration":79638,"SoundDuration":79638,"Delta":184530914},{"NoteNumber":75,"Velocity":51,"Duration":79638,"SoundDuration":79638,"Delta":184530914},{"NoteNumber":71,"Velocity":50,"Duration":78938,"SoundDuration":78938,"Delta":184610553},{"NoteNumber":74,"Velocity":50,"Duration":78938,"SoundDuration":78938,"Delta":184610553},{"NoteNumber":70,"Velocity":50,"Duration":78939,"SoundDuration":78939,"Delta":184689492},{"NoteNumber":73,"Velocity":50,"Duration":78939,"SoundDuration":78939,"Delta":184689492},{"NoteNumber":69,"Velocity":49,"Duration":78116,"SoundDuration":78116,"Delta":184768431},{"NoteNumber":72,"Velocity":49,"Duration":78116,"SoundDuration":78116,"Delta":184768431},{"NoteNumber":68,"Velocity":48,"Duration":78116,"SoundDuration":78116,"Delta":184846547},{"NoteNumber":71,"Velocity":48,"Duration":78116,"SoundDuration":78116,"Delta":184846547},{"NoteNumber":67,"Velocity":48,"Duration":77311,"SoundDuration":77311,"Delta":184924664},{"NoteNumber":70,"Velocity":48,"Duration":77311,"SoundDuration":77311,"Delta":184924664},{"NoteNumber":66,"Velocity":47,"Duration":77311,"SoundDuration":77311,"Delta":185001976},{"NoteNumber":69,"Velocity":47,"Duration":77311,"SoundDuration":77311,"Delta":185001976},{"NoteNumber":65,"Velocity":46,"Duration":76522,"SoundDuration":76522,"Delta":185079288},{"NoteNumber":68,"Velocity":46,"Duration":76522,"SoundDuration":76522,"Delta":185079288},{"NoteNumber":64,"Velocity":45,"Duration":76522,"SoundDuration":76522,"Delta":185155810},{"NoteNumber":67,"Velocity":45,"Duration":76522,"SoundDuration":76522,"Delta":185155810},{"NoteNumber":63,"Velocity":45,"Duration":75878,"SoundDuration":75878,"Delta":185232333},{"NoteNumber":66,"Velocity":45,"Duration":75878,"SoundDuration":75878,"Delta":185232333},{"NoteNumber":62,"Velocity":45,"Duration":75749,"SoundDuration":75749,"Delta":185308212},{"NoteNumber":65,"Velocity":45,"Duration":75749,"SoundDuration":75749,"Delta":185308212},{"NoteNumber":61,"Velocity":44,"Duration":75118,"SoundDuration":75118,"Delta":185383962},{"NoteNumber":64,"Velocity":44,"Duration":75118,"SoundDuration":75118,"Delta":185383962},{"NoteNumber":60,"Velocity":43,"Duration":75686,"SoundDuration":75686,"Delta":185459080},{"NoteNumber":63,"Velocity":43,"Duration":75686,"SoundDuration":75686,"Delta":185459080},{"NoteNumber":64,"Velocity":57,"Duration":83324,"SoundDuration":83324,"Delta":185534767},{"NoteNumber":57,"Velocity":45,"Duration":83324,"SoundDuration":83324,"Delta":185534767},{"NoteNumber":60,"Velocity":45,"Duration":83324,"SoundDuration":83324,"Delta":185534767},{"NoteNumber":52,"Velocity":56,"Duration":83324,"SoundDuration":83324,"Delta":185534767},{"NoteNumber":40,"Velocity":45,"Duration":83324,"SoundDuration":83324,"Delta":185534767},{"NoteNumber":45,"Velocity":45,"Duration":83324,"SoundDuration":83324,"Delta":185534767},{"NoteNumber":48,"Velocity":45,"Duration":83324,"SoundDuration":83324,"Delta":185534767},{"NoteNumber":65,"Velocity":44,"Duration":82790,"SoundDuration":82790,"Delta":185618091},{"NoteNumber":53,"Velocity":41,"Duration":82790,"SoundDuration":82790,"Delta":185618091},{"NoteNumber":66,"Velocity":45,"Duration":82184,"SoundDuration":82184,"Delta":185700881},{"NoteNumber":54,"Velocity":42,"Duration":82184,"SoundDuration":82184,"Delta":185700881},{"NoteNumber":67,"Velocity":45,"Duration":81512,"SoundDuration":81512,"Delta":185783066},{"NoteNumber":55,"Velocity":42,"Duration":81512,"SoundDuration":81512,"Delta":185783066},{"NoteNumber":68,"Velocity":46,"Duration":80709,"SoundDuration":80709,"Delta":185864579},{"NoteNumber":56,"Velocity":43,"Duration":80709,"SoundDuration":80709,"Delta":185864579},{"NoteNumber":69,"Velocity":47,"Duration":80279,"SoundDuration":80279,"Delta":185945288},{"NoteNumber":57,"Velocity":44,"Duration":80279,"SoundDuration":80279,"Delta":185945288},{"NoteNumber":70,"Velocity":49,"Duration":79708,"SoundDuration":79708,"Delta":186025567},{"NoteNumber":58,"Velocity":45,"Duration":79708,"SoundDuration":79708,"Delta":186025567},{"NoteNumber":71,"Velocity":49,"Duration":78939,"SoundDuration":78939,"Delta":186105276},{"NoteNumber":59,"Velocity":45,"Duration":78939,"SoundDuration":78939,"Delta":186105276},{"NoteNumber":72,"Velocity":51,"Duration":78322,"SoundDuration":78322,"Delta":186184215},{"NoteNumber":60,"Velocity":45,"Duration":78322,"SoundDuration":78322,"Delta":186184215},{"NoteNumber":73,"Velocity":52,"Duration":77915,"SoundDuration":77915,"Delta":186262538},{"NoteNumber":61,"Velocity":46,"Duration":77915,"SoundDuration":77915,"Delta":186262538},{"NoteNumber":74,"Velocity":53,"Duration":77311,"SoundDuration":77311,"Delta":186340453},{"NoteNumber":62,"Velocity":47,"Duration":77311,"SoundDuration":77311,"Delta":186340453},{"NoteNumber":75,"Velocity":54,"Duration":76588,"SoundDuration":76588,"Delta":186417765},{"NoteNumber":63,"Velocity":48,"Duration":76588,"SoundDuration":76588,"Delta":186417765},{"NoteNumber":76,"Velocity":54,"Duration":76071,"SoundDuration":76071,"Delta":186494353},{"NoteNumber":64,"Velocity":49,"Duration":76071,"SoundDuration":76071,"Delta":186494353},{"NoteNumber":77,"Velocity":55,"Duration":75686,"SoundDuration":75686,"Delta":186570425},{"NoteNumber":63,"Velocity":50,"Duration":75686,"SoundDuration":75686,"Delta":186570425},{"NoteNumber":78,"Velocity":56,"Duration":74992,"SoundDuration":74992,"Delta":186646112},{"NoteNumber":62,"Velocity":51,"Duration":74992,"SoundDuration":74992,"Delta":186646112},{"NoteNumber":79,"Velocity":57,"Duration":74435,"SoundDuration":74435,"Delta":186721104},{"NoteNumber":61,"Velocity":51,"Duration":74435,"SoundDuration":74435,"Delta":186721104},{"NoteNumber":80,"Velocity":58,"Duration":73946,"SoundDuration":73946,"Delta":186795540},{"NoteNumber":60,"Velocity":52,"Duration":73946,"SoundDuration":73946,"Delta":186795540},{"NoteNumber":81,"Velocity":59,"Duration":73522,"SoundDuration":73522,"Delta":186869487},{"NoteNumber":59,"Velocity":53,"Duration":73522,"SoundDuration":73522,"Delta":186869487},{"NoteNumber":82,"Velocity":61,"Duration":73522,"SoundDuration":73522,"Delta":186943009},{"NoteNumber":58,"Velocity":54,"Duration":73522,"SoundDuration":73522,"Delta":186943009},{"NoteNumber":83,"Velocity":61,"Duration":73522,"SoundDuration":73522,"Delta":187016532},{"NoteNumber":57,"Velocity":54,"Duration":73522,"SoundDuration":73522,"Delta":187016532},{"NoteNumber":84,"Velocity":63,"Duration":73224,"SoundDuration":73224,"Delta":187090054},{"NoteNumber":56,"Velocity":54,"Duration":73224,"SoundDuration":73224,"Delta":187090054},{"NoteNumber":85,"Velocity":63,"Duration":72808,"SoundDuration":72808,"Delta":187163279},{"NoteNumber":55,"Velocity":55,"Duration":72808,"SoundDuration":72808,"Delta":187163279},{"NoteNumber":86,"Velocity":64,"Duration":72808,"SoundDuration":72808,"Delta":187236087},{"NoteNumber":54,"Velocity":56,"Duration":72808,"SoundDuration":72808,"Delta":187236087},{"NoteNumber":87,"Velocity":65,"Duration":72808,"SoundDuration":72808,"Delta":187308896},{"NoteNumber":53,"Velocity":57,"Duration":72808,"SoundDuration":72808,"Delta":187308896},{"NoteNumber":88,"Velocity":66,"Duration":72400,"SoundDuration":72400,"Delta":187381704},{"NoteNumber":52,"Velocity":58,"Duration":72400,"SoundDuration":72400,"Delta":187381704},{"NoteNumber":89,"Velocity":67,"Duration":72108,"SoundDuration":72108,"Delta":187454104},{"NoteNumber":51,"Velocity":59,"Duration":72108,"SoundDuration":72108,"Delta":187454104},{"NoteNumber":90,"Velocity":68,"Duration":72108,"SoundDuration":72108,"Delta":187526213},{"NoteNumber":50,"Velocity":59,"Duration":72108,"SoundDuration":72108,"Delta":187526213},{"NoteNumber":91,"Velocity":69,"Duration":72108,"SoundDuration":72108,"Delta":187598321},{"NoteNumber":49,"Velocity":60,"Duration":72108,"SoundDuration":72108,"Delta":187598321},{"NoteNumber":92,"Velocity":70,"Duration":71593,"SoundDuration":71593,"Delta":187670430},{"NoteNumber":48,"Velocity":61,"Duration":71593,"SoundDuration":71593,"Delta":187670430},{"NoteNumber":93,"Velocity":71,"Duration":71421,"SoundDuration":71421,"Delta":187742023},{"NoteNumber":47,"Velocity":62,"Duration":71421,"SoundDuration":71421,"Delta":187742023},{"NoteNumber":94,"Velocity":72,"Duration":71421,"SoundDuration":71421,"Delta":187813445},{"NoteNumber":46,"Velocity":63,"Duration":71421,"SoundDuration":71421,"Delta":187813445},{"NoteNumber":95,"Velocity":72,"Duration":71421,"SoundDuration":71421,"Delta":187884867},{"NoteNumber":45,"Velocity":63,"Duration":71421,"SoundDuration":71421,"Delta":187884867},{"NoteNumber":96,"Velocity":74,"Duration":70804,"SoundDuration":70804,"Delta":187956288},{"NoteNumber":44,"Velocity":63,"Duration":70804,"SoundDuration":70804,"Delta":187956288},{"NoteNumber":97,"Velocity":75,"Duration":70748,"SoundDuration":70748,"Delta":188027093},{"NoteNumber":43,"Velocity":64,"Duration":70748,"SoundDuration":70748,"Delta":188027093},{"NoteNumber":98,"Velocity":76,"Duration":70747,"SoundDuration":70747,"Delta":188097841},{"NoteNumber":42,"Velocity":65,"Duration":70747,"SoundDuration":70747,"Delta":188097841},{"NoteNumber":99,"Velocity":77,"Duration":71229,"SoundDuration":71229,"Delta":188168589},{"NoteNumber":41,"Velocity":66,"Duration":71229,"SoundDuration":71229,"Delta":188168589},{"NoteNumber":100,"Velocity":89,"Duration":153045,"SoundDuration":153045,"Delta":188239818},{"NoteNumber":96,"Velocity":75,"Duration":153045,"SoundDuration":153045,"Delta":188239818},{"NoteNumber":93,"Velocity":75,"Duration":153045,"SoundDuration":153045,"Delta":188239818},{"NoteNumber":88,"Velocity":75,"Duration":153045,"SoundDuration":153045,"Delta":188239818},{"NoteNumber":52,"Velocity":80,"Duration":153045,"SoundDuration":153045,"Delta":188239818},{"NoteNumber":48,"Velocity":67,"Duration":153045,"SoundDuration":153045,"Delta":188239818},{"NoteNumber":45,"Velocity":67,"Duration":153045,"SoundDuration":153045,"Delta":188239818},{"NoteNumber":40,"Velocity":67,"Duration":153045,"SoundDuration":153045,"Delta":188239818},{"NoteNumber":101,"Velocity":84,"Duration":153045,"SoundDuration":153045,"Delta":188852000},{"NoteNumber":89,"Velocity":71,"Duration":153045,"SoundDuration":153045,"Delta":188852000},{"NoteNumber":93,"Velocity":71,"Duration":153045,"SoundDuration":153045,"Delta":188852000},{"NoteNumber":96,"Velocity":71,"Duration":153045,"SoundDuration":153045,"Delta":188852000},{"NoteNumber":53,"Velocity":79,"Duration":153045,"SoundDuration":153045,"Delta":188852000},{"NoteNumber":38,"Velocity":66,"Duration":153045,"SoundDuration":153045,"Delta":188852000},{"NoteNumber":45,"Velocity":66,"Duration":153045,"SoundDuration":153045,"Delta":188852000},{"NoteNumber":48,"Velocity":66,"Duration":153045,"SoundDuration":153045,"Delta":188852000},{"NoteNumber":39,"Velocity":42,"Duration":622252,"SoundDuration":622252,"Delta":190589072},{"NoteNumber":47,"Velocity":45,"Duration":568681,"SoundDuration":568681,"Delta":190642643},{"NoteNumber":54,"Velocity":47,"Duration":515109,"SoundDuration":515109,"Delta":190696215},{"NoteNumber":57,"Velocity":49,"Duration":1829670,"SoundDuration":1829670,"Delta":190723000},{"NoteNumber":59,"Velocity":49,"Duration":1802884,"SoundDuration":1802884,"Delta":190749786},{"NoteNumber":48,"Velocity":56,"Duration":230769,"SoundDuration":230769,"Delta":190980555},{"NoteNumber":47,"Velocity":59,"Duration":230769,"SoundDuration":230769,"Delta":191211325},{"NoteNumber":48,"Velocity":56,"Duration":230769,"SoundDuration":230769,"Delta":191442094},{"NoteNumber":47,"Velocity":56,"Duration":211538,"SoundDuration":211538,"Delta":191672863},{"NoteNumber":52,"Velocity":62,"Duration":230769,"SoundDuration":230769,"Delta":191903632},{"NoteNumber":50,"Velocity":58,"Duration":230769,"SoundDuration":230769,"Delta":192134402},{"NoteNumber":48,"Velocity":58,"Duration":299440,"SoundDuration":299440,"Delta":192365171},{"NoteNumber":40,"Velocity":42,"Duration":685967,"SoundDuration":685967,"Delta":192458921},{"NoteNumber":47,"Velocity":45,"Duration":592217,"SoundDuration":592217,"Delta":192552671},{"NoteNumber":52,"Velocity":47,"Duration":536246,"SoundDuration":536246,"Delta":192608641},{"NoteNumber":57,"Velocity":49,"Duration":1841700,"SoundDuration":1841700,"Delta":192636626},{"NoteNumber":59,"Velocity":49,"Duration":1813715,"SoundDuration":1813715,"Delta":192664611},{"NoteNumber":48,"Velocity":56,"Duration":234375,"SoundDuration":234375,"Delta":192910513},{"NoteNumber":47,"Velocity":62,"Duration":234375,"SoundDuration":234375,"Delta":193144888},{"NoteNumber":48,"Velocity":56,"Duration":250000,"SoundDuration":250000,"Delta":193379263},{"NoteNumber":47,"Velocity":56,"Duration":241935,"SoundDuration":241935,"Delta":193629263},{"NoteNumber":52,"Velocity":62,"Duration":241935,"SoundDuration":241935,"Delta":193871198},{"NoteNumber":50,"Velocity":58,"Duration":238095,"SoundDuration":238095,"Delta":194113134},{"NoteNumber":48,"Velocity":58,"Duration":313567,"SoundDuration":313567,"Delta":194351229},{"NoteNumber":57,"Velocity":56,"Duration":144104,"SoundDuration":144104,"Delta":194478326},{"NoteNumber":59,"Velocity":56,"Duration":144104,"SoundDuration":144104,"Delta":194478326},{"NoteNumber":41,"Velocity":42,"Duration":560497,"SoundDuration":560497,"Delta":194622431},{"NoteNumber":47,"Velocity":45,"Duration":539314,"SoundDuration":539314,"Delta":194643614},{"NoteNumber":50,"Velocity":47,"Duration":518131,"SoundDuration":518131,"Delta":194664797},{"NoteNumber":57,"Velocity":49,"Duration":1869797,"SoundDuration":1869797,"Delta":194664797},{"NoteNumber":59,"Velocity":49,"Duration":1869797,"SoundDuration":1869797,"Delta":194664797},{"NoteNumber":48,"Velocity":52,"Duration":260915,"SoundDuration":260915,"Delta":194922013},{"NoteNumber":47,"Velocity":54,"Duration":260914,"SoundDuration":260914,"Delta":195182928},{"NoteNumber":48,"Velocity":51,"Duration":249958,"SoundDuration":249958,"Delta":195443843},{"NoteNumber":47,"Velocity":51,"Duration":214906,"SoundDuration":214906,"Delta":195693801},{"NoteNumber":52,"Velocity":57,"Duration":234338,"SoundDuration":234338,"Delta":195928236},{"NoteNumber":50,"Velocity":54,"Duration":241964,"SoundDuration":241964,"Delta":196162574},{"NoteNumber":48,"Velocity":54,"Duration":254043,"SoundDuration":254043,"Delta":196404539},{"NoteNumber":47,"Velocity":45,"Duration":237729,"SoundDuration":237729,"Delta":196658582},{"NoteNumber":52,"Velocity":54,"Duration":238133,"SoundDuration":238133,"Delta":196896311},{"NoteNumber":50,"Velocity":51,"Duration":238133,"SoundDuration":238133,"Delta":197134444},{"NoteNumber":48,"Velocity":45,"Duration":267127,"SoundDuration":267127,"Delta":197372577},{"NoteNumber":41,"Velocity":34,"Duration":669511,"SoundDuration":669511,"Delta":197432110},{"NoteNumber":47,"Velocity":36,"Duration":679458,"SoundDuration":679458,"Delta":197491644},{"NoteNumber":51,"Velocity":40,"Duration":605774,"SoundDuration":605774,"Delta":197565328},{"NoteNumber":57,"Velocity":42,"Duration":1168911,"SoundDuration":1168911,"Delta":197639705},{"NoteNumber":59,"Velocity":42,"Duration":1168911,"SoundDuration":1168911,"Delta":197639705},{"NoteNumber":48,"Velocity":49,"Duration":272307,"SoundDuration":272307,"Delta":197898795},{"NoteNumber":47,"Velocity":45,"Duration":287394,"SoundDuration":287394,"Delta":198171103},{"NoteNumber":48,"Velocity":45,"Duration":350118,"SoundDuration":350118,"Delta":198458498},{"NoteNumber":40,"Velocity":33,"Duration":620963,"SoundDuration":620963,"Delta":198808616},{"NoteNumber":47,"Velocity":35,"Duration":580077,"SoundDuration":580077,"Delta":198849502},{"NoteNumber":52,"Velocity":36,"Duration":541348,"SoundDuration":541348,"Delta":198888231},{"NoteNumber":56,"Velocity":37,"Duration":464013,"SoundDuration":464013,"Delta":198926898},{"NoteNumber":59,"Velocity":40,"Duration":464013,"SoundDuration":464013,"Delta":198965566},{"NoteNumber":71,"Velocity":39,"Duration":856898,"SoundDuration":856898,"Delta":200423183},{"NoteNumber":68,"Velocity":33,"Duration":856898,"SoundDuration":856898,"Delta":200423183},{"NoteNumber":68,"Velocity":38,"Duration":428449,"SoundDuration":428449,"Delta":201280081},{"NoteNumber":64,"Velocity":32,"Duration":428449,"SoundDuration":428449,"Delta":201280081},{"NoteNumber":74,"Velocity":38,"Duration":1261792,"SoundDuration":1261792,"Delta":202136979},{"NoteNumber":71,"Velocity":32,"Duration":1261792,"SoundDuration":1261792,"Delta":202136979},{"NoteNumber":76,"Velocity":38,"Duration":137631,"SoundDuration":137631,"Delta":203398772},{"NoteNumber":73,"Velocity":32,"Duration":137631,"SoundDuration":137631,"Delta":203398772},{"NoteNumber":74,"Velocity":35,"Duration":142145,"SoundDuration":142145,"Delta":203536403},{"NoteNumber":71,"Velocity":29,"Duration":142145,"SoundDuration":142145,"Delta":203536403},{"NoteNumber":73,"Velocity":35,"Duration":149131,"SoundDuration":149131,"Delta":203678549},{"NoteNumber":69,"Velocity":29,"Duration":149131,"SoundDuration":149131,"Delta":203678549},{"NoteNumber":68,"Velocity":27,"Duration":856898,"SoundDuration":856898,"Delta":203827680},{"NoteNumber":71,"Velocity":33,"Duration":856898,"SoundDuration":856898,"Delta":203827680},{"NoteNumber":74,"Velocity":43,"Duration":749812,"SoundDuration":749812,"Delta":206936500},{"NoteNumber":71,"Velocity":36,"Duration":749812,"SoundDuration":749812,"Delta":206936500},{"NoteNumber":71,"Velocity":38,"Duration":374906,"SoundDuration":374906,"Delta":207686312},{"NoteNumber":68,"Velocity":32,"Duration":374906,"SoundDuration":374906,"Delta":207686312},{"NoteNumber":78,"Velocity":38,"Duration":999777,"SoundDuration":999777,"Delta":208436125},{"NoteNumber":74,"Velocity":32,"Duration":999777,"SoundDuration":999777,"Delta":208436125},{"NoteNumber":80,"Velocity":36,"Duration":90892,"SoundDuration":90892,"Delta":209435902},{"NoteNumber":76,"Velocity":30,"Duration":90892,"SoundDuration":90892,"Delta":209435902},{"NoteNumber":78,"Velocity":33,"Duration":90892,"SoundDuration":90892,"Delta":209526795},{"NoteNumber":74,"Velocity":27,"Duration":90892,"SoundDuration":90892,"Delta":209526795},{"NoteNumber":76,"Velocity":35,"Duration":90892,"SoundDuration":90892,"Delta":209617688},{"NoteNumber":73,"Velocity":29,"Duration":90892,"SoundDuration":90892,"Delta":209617688},{"NoteNumber":83,"Velocity":42,"Duration":978048,"SoundDuration":978048,"Delta":209708580},{"NoteNumber":78,"Velocity":35,"Duration":978048,"SoundDuration":978048,"Delta":209708580},{"NoteNumber":74,"Velocity":34,"Duration":978048,"SoundDuration":978048,"Delta":209708580},{"NoteNumber":85,"Velocity":42,"Duration":94321,"SoundDuration":94321,"Delta":210686628},{"NoteNumber":80,"Velocity":35,"Duration":94321,"SoundDuration":94321,"Delta":210686628},{"NoteNumber":76,"Velocity":32,"Duration":94321,"SoundDuration":94321,"Delta":210686628},{"NoteNumber":83,"Velocity":36,"Duration":94321,"SoundDuration":94321,"Delta":210780950},{"NoteNumber":78,"Velocity":30,"Duration":94321,"SoundDuration":94321,"Delta":210780950},{"NoteNumber":74,"Velocity":28,"Duration":94321,"SoundDuration":94321,"Delta":210780950},{"NoteNumber":81,"Velocity":36,"Duration":94321,"SoundDuration":94321,"Delta":210875272},{"NoteNumber":76,"Velocity":30,"Duration":94321,"SoundDuration":94321,"Delta":210875272},{"NoteNumber":73,"Velocity":28,"Duration":94321,"SoundDuration":94321,"Delta":210875272},{"NoteNumber":86,"Velocity":45,"Duration":999777,"SoundDuration":999777,"Delta":210969594},{"NoteNumber":80,"Velocity":38,"Duration":999777,"SoundDuration":999777,"Delta":210969594},{"NoteNumber":71,"Velocity":36,"Duration":999777,"SoundDuration":999777,"Delta":210969594},{"NoteNumber":88,"Velocity":47,"Duration":92575,"SoundDuration":92575,"Delta":211969371},{"NoteNumber":73,"Velocity":36,"Duration":92575,"SoundDuration":92575,"Delta":211969371},{"NoteNumber":86,"Velocity":40,"Duration":92575,"SoundDuration":92575,"Delta":212061947},{"NoteNumber":71,"Velocity":32,"Duration":92575,"SoundDuration":92575,"Delta":212061947},{"NoteNumber":85,"Velocity":40,"Duration":92575,"SoundDuration":92575,"Delta":212154522},{"NoteNumber":69,"Velocity":32,"Duration":92575,"SoundDuration":92575,"Delta":212154522},{"NoteNumber":90,"Velocity":49,"Duration":1615293,"SoundDuration":1615293,"Delta":212247098},{"NoteNumber":83,"Velocity":41,"Duration":1615293,"SoundDuration":1615293,"Delta":212247098},{"NoteNumber":62,"Velocity":35,"Duration":1615293,"SoundDuration":1615293,"Delta":212247098},{"NoteNumber":68,"Velocity":42,"Duration":1615293,"SoundDuration":1615293,"Delta":212247098},{"NoteNumber":89,"Velocity":38,"Duration":208294,"SoundDuration":208294,"Delta":213862391},{"NoteNumber":83,"Velocity":38,"Duration":208294,"SoundDuration":208294,"Delta":213862391},{"NoteNumber":61,"Velocity":34,"Duration":208294,"SoundDuration":208294,"Delta":213862391},{"NoteNumber":68,"Velocity":34,"Duration":208294,"SoundDuration":208294,"Delta":213862391},{"NoteNumber":89,"Velocity":43,"Duration":204508,"SoundDuration":204508,"Delta":214140118},{"NoteNumber":83,"Velocity":43,"Duration":204508,"SoundDuration":204508,"Delta":214140118},{"NoteNumber":61,"Velocity":38,"Duration":204508,"SoundDuration":204508,"Delta":214140118},{"NoteNumber":68,"Velocity":38,"Duration":204508,"SoundDuration":204508,"Delta":214140118},{"NoteNumber":88,"Velocity":38,"Duration":200856,"SoundDuration":200856,"Delta":214411578},{"NoteNumber":83,"Velocity":38,"Duration":200856,"SoundDuration":200856,"Delta":214411578},{"NoteNumber":67,"Velocity":35,"Duration":200856,"SoundDuration":200856,"Delta":214411578},{"NoteNumber":73,"Velocity":35,"Duration":200856,"SoundDuration":200856,"Delta":214411578},{"NoteNumber":83,"Velocity":43,"Duration":196199,"SoundDuration":196199,"Delta":214678213},{"NoteNumber":88,"Velocity":43,"Duration":196199,"SoundDuration":196199,"Delta":214678213},{"NoteNumber":67,"Velocity":38,"Duration":196199,"SoundDuration":196199,"Delta":214678213},{"NoteNumber":73,"Velocity":38,"Duration":196199,"SoundDuration":196199,"Delta":214678213},{"NoteNumber":82,"Velocity":38,"Duration":192836,"SoundDuration":192836,"Delta":214939057},{"NoteNumber":88,"Velocity":38,"Duration":192836,"SoundDuration":192836,"Delta":214939057},{"NoteNumber":66,"Velocity":34,"Duration":192836,"SoundDuration":192836,"Delta":214939057},{"NoteNumber":73,"Velocity":34,"Duration":192836,"SoundDuration":192836,"Delta":214939057},{"NoteNumber":82,"Velocity":42,"Duration":188527,"SoundDuration":188527,"Delta":215195442},{"NoteNumber":88,"Velocity":42,"Duration":188527,"SoundDuration":188527,"Delta":215195442},{"NoteNumber":66,"Velocity":38,"Duration":188527,"SoundDuration":188527,"Delta":215195442},{"NoteNumber":73,"Velocity":38,"Duration":188527,"SoundDuration":188527,"Delta":215195442},{"NoteNumber":81,"Velocity":38,"Duration":309253,"SoundDuration":309253,"Delta":215449170},{"NoteNumber":88,"Velocity":38,"Duration":309253,"SoundDuration":309253,"Delta":215449170},{"NoteNumber":72,"Velocity":36,"Duration":170415,"SoundDuration":170415,"Delta":215449170},{"NoteNumber":78,"Velocity":36,"Duration":170415,"SoundDuration":170415,"Delta":215449170},{"NoteNumber":72,"Velocity":38,"Duration":1691112,"SoundDuration":1691112,"Delta":215619586},{"NoteNumber":78,"Velocity":38,"Duration":1598554,"SoundDuration":1598554,"Delta":215712144},{"NoteNumber":81,"Velocity":42,"Duration":1505996,"SoundDuration":1505996,"Delta":215804702},{"NoteNumber":88,"Velocity":47,"Duration":1413437,"SoundDuration":1413437,"Delta":215897260},{"NoteNumber":81,"Velocity":46,"Duration":212720,"SoundDuration":212720,"Delta":217310698},{"NoteNumber":87,"Velocity":46,"Duration":212720,"SoundDuration":212720,"Delta":217310698},{"NoteNumber":71,"Velocity":33,"Duration":212720,"SoundDuration":212720,"Delta":217310698},{"NoteNumber":78,"Velocity":38,"Duration":212720,"SoundDuration":212720,"Delta":217310698},{"NoteNumber":80,"Velocity":39,"Duration":212720,"SoundDuration":212720,"Delta":217523419},{"NoteNumber":86,"Velocity":43,"Duration":425441,"SoundDuration":425441,"Delta":217523419},{"NoteNumber":71,"Velocity":29,"Duration":212720,"SoundDuration":212720,"Delta":217523419},{"NoteNumber":77,"Velocity":35,"Duration":212720,"SoundDuration":212720,"Delta":217523419},{"NoteNumber":79,"Velocity":45,"Duration":212720,"SoundDuration":212720,"Delta":217736140},{"NoteNumber":72,"Velocity":33,"Duration":212720,"SoundDuration":212720,"Delta":217736140},{"NoteNumber":76,"Velocity":38,"Duration":212720,"SoundDuration":212720,"Delta":217736140},{"NoteNumber":79,"Velocity":36,"Duration":212720,"SoundDuration":212720,"Delta":217948860},{"NoteNumber":85,"Velocity":41,"Duration":428315,"SoundDuration":428315,"Delta":217948860},{"NoteNumber":70,"Velocity":28,"Duration":212720,"SoundDuration":212720,"Delta":217948860},{"NoteNumber":76,"Velocity":34,"Duration":212720,"SoundDuration":212720,"Delta":217948860},{"NoteNumber":78,"Velocity":44,"Duration":215594,"SoundDuration":215594,"Delta":218161581},{"NoteNumber":71,"Velocity":33,"Duration":215594,"SoundDuration":215594,"Delta":218161581},{"NoteNumber":75,"Velocity":38,"Duration":215594,"SoundDuration":215594,"Delta":218161581},{"NoteNumber":77,"Velocity":36,"Duration":243444,"SoundDuration":243444,"Delta":218377175},{"NoteNumber":83,"Velocity":42,"Duration":470045,"SoundDuration":470045,"Delta":218377175},{"NoteNumber":68,"Velocity":30,"Duration":243444,"SoundDuration":243444,"Delta":218377175},{"NoteNumber":74,"Velocity":36,"Duration":243444,"SoundDuration":243444,"Delta":218377175},{"NoteNumber":76,"Velocity":46,"Duration":226600,"SoundDuration":226600,"Delta":218620620},{"NoteNumber":69,"Velocity":33,"Duration":226600,"SoundDuration":226600,"Delta":218620620},{"NoteNumber":73,"Velocity":38,"Duration":226600,"SoundDuration":226600,"Delta":218620620},{"NoteNumber":76,"Velocity":35,"Duration":235216,"SoundDuration":235216,"Delta":218847221},{"NoteNumber":81,"Velocity":41,"Duration":490892,"SoundDuration":490892,"Delta":218847221},{"NoteNumber":66,"Velocity":29,"Duration":235216,"SoundDuration":235216,"Delta":218847221},{"NoteNumber":72,"Velocity":35,"Duration":235216,"SoundDuration":235216,"Delta":218847221},{"NoteNumber":74,"Velocity":44,"Duration":255675,"SoundDuration":255675,"Delta":219082437},{"NoteNumber":67,"Velocity":33,"Duration":255675,"SoundDuration":255675,"Delta":219082437},{"NoteNumber":71,"Velocity":38,"Duration":255675,"SoundDuration":255675,"Delta":219082437},{"NoteNumber":74,"Velocity":33,"Duration":281589,"SoundDuration":281589,"Delta":219338113},{"NoteNumber":79,"Velocity":37,"Duration":594243,"SoundDuration":594243,"Delta":219338113},{"NoteNumber":64,"Velocity":29,"Duration":281589,"SoundDuration":281589,"Delta":219338113},{"NoteNumber":70,"Velocity":35,"Duration":281589,"SoundDuration":281589,"Delta":219338113},{"NoteNumber":72,"Velocity":38,"Duration":190248,"SoundDuration":190248,"Delta":219619702},{"NoteNumber":65,"Velocity":33,"Duration":190248,"SoundDuration":190248,"Delta":219619702},{"NoteNumber":69,"Velocity":38,"Duration":190248,"SoundDuration":190248,"Delta":219619702},{"NoteNumber":71,"Velocity":38,"Duration":521763,"SoundDuration":521763,"Delta":219809950},{"NoteNumber":79,"Velocity":38,"Duration":399356,"SoundDuration":399356,"Delta":219932357},{"NoteNumber":62,"Velocity":30,"Duration":399356,"SoundDuration":399356,"Delta":219932357},{"NoteNumber":69,"Velocity":36,"Duration":399356,"SoundDuration":399356,"Delta":219932357},{"NoteNumber":77,"Velocity":42,"Duration":462784,"SoundDuration":462784,"Delta":220772631},{"NoteNumber":71,"Velocity":35,"Duration":462784,"SoundDuration":462784,"Delta":220772631},{"NoteNumber":69,"Velocity":38,"Duration":462784,"SoundDuration":462784,"Delta":220772631},{"NoteNumber":62,"Velocity":32,"Duration":462784,"SoundDuration":462784,"Delta":220772631},{"NoteNumber":76,"Velocity":41,"Duration":481970,"SoundDuration":481970,"Delta":221288967},{"NoteNumber":71,"Velocity":35,"Duration":481970,"SoundDuration":481970,"Delta":221288967},{"NoteNumber":69,"Velocity":38,"Duration":481970,"SoundDuration":481970,"Delta":221288967},{"NoteNumber":64,"Velocity":32,"Duration":481970,"SoundDuration":481970,"Delta":221288967},{"NoteNumber":74,"Velocity":39,"Duration":481970,"SoundDuration":481970,"Delta":221824490},{"NoteNumber":71,"Velocity":33,"Duration":481970,"SoundDuration":481970,"Delta":221824490},{"NoteNumber":69,"Velocity":37,"Duration":481970,"SoundDuration":481970,"Delta":221824490},{"NoteNumber":65,"Velocity":31,"Duration":481970,"SoundDuration":481970,"Delta":221824490},{"NoteNumber":80,"Velocity":42,"Duration":481970,"SoundDuration":481970,"Delta":224502105},{"NoteNumber":71,"Velocity":35,"Duration":481970,"SoundDuration":481970,"Delta":224502105},{"NoteNumber":69,"Velocity":37,"Duration":481970,"SoundDuration":481970,"Delta":224502105},{"NoteNumber":62,"Velocity":31,"Duration":481970,"SoundDuration":481970,"Delta":224502105},{"NoteNumber":78,"Velocity":41,"Duration":481970,"SoundDuration":481970,"Delta":225037628},{"NoteNumber":71,"Velocity":35,"Duration":481970,"SoundDuration":481970,"Delta":225037628},{"NoteNumber":69,"Velocity":36,"Duration":481970,"SoundDuration":481970,"Delta":225037628},{"NoteNumber":62,"Velocity":30,"Duration":481970,"SoundDuration":481970,"Delta":225037628},{"NoteNumber":76,"Velocity":40,"Duration":481970,"SoundDuration":481970,"Delta":225573151},{"NoteNumber":71,"Velocity":34,"Duration":481970,"SoundDuration":481970,"Delta":225573151},{"NoteNumber":69,"Velocity":36,"Duration":481970,"SoundDuration":481970,"Delta":225573151},{"NoteNumber":64,"Velocity":30,"Duration":481970,"SoundDuration":481970,"Delta":225573151},{"NoteNumber":74,"Velocity":39,"Duration":240985,"SoundDuration":240985,"Delta":226108674},{"NoteNumber":71,"Velocity":33,"Duration":240985,"SoundDuration":240985,"Delta":226108674},{"NoteNumber":69,"Velocity":34,"Duration":240985,"SoundDuration":240985,"Delta":226108674},{"NoteNumber":66,"Velocity":28,"Duration":240985,"SoundDuration":240985,"Delta":226108674},{"NoteNumber":68,"Velocity":34,"Duration":2409853,"SoundDuration":2409853,"Delta":226376436},{"NoteNumber":71,"Velocity":35,"Duration":2275972,"SoundDuration":2275972,"Delta":226510316},{"NoteNumber":66,"Velocity":38,"Duration":1428061,"SoundDuration":1428061,"Delta":226644197},{"NoteNumber":74,"Velocity":38,"Duration":2142091,"SoundDuration":2142091,"Delta":226644197},{"NoteNumber":65,"Velocity":34,"Duration":714030,"SoundDuration":714030,"Delta":228072259},{"NoteNumber":64,"Velocity":33,"Duration":714030,"SoundDuration":714030,"Delta":228786289},{"NoteNumber":68,"Velocity":36,"Duration":714030,"SoundDuration":714030,"Delta":228786289},{"NoteNumber":73,"Velocity":38,"Duration":714030,"SoundDuration":714030,"Delta":228786289},{"NoteNumber":63,"Velocity":30,"Duration":1175779,"SoundDuration":1175779,"Delta":229500320},{"NoteNumber":68,"Velocity":33,"Duration":1175779,"SoundDuration":1175779,"Delta":229500320},{"NoteNumber":72,"Velocity":38,"Duration":1175779,"SoundDuration":1175779,"Delta":229500320},{"NoteNumber":62,"Velocity":32,"Duration":463306,"SoundDuration":463306,"Delta":231340689},{"NoteNumber":68,"Velocity":35,"Duration":463306,"SoundDuration":463306,"Delta":231340689},{"NoteNumber":71,"Velocity":38,"Duration":463306,"SoundDuration":463306,"Delta":231340689},{"NoteNumber":52,"Velocity":35,"Duration":463306,"SoundDuration":463306,"Delta":231340689},{"NoteNumber":45,"Velocity":35,"Duration":897690,"SoundDuration":897690,"Delta":231803995},{"NoteNumber":49,"Velocity":35,"Duration":758698,"SoundDuration":758698,"Delta":231942987},{"NoteNumber":57,"Velocity":44,"Duration":619706,"SoundDuration":619706,"Delta":232081978},{"NoteNumber":69,"Velocity":28,"Duration":245942,"SoundDuration":245942,"Delta":232701685},{"NoteNumber":64,"Velocity":24,"Duration":245942,"SoundDuration":245942,"Delta":232701685},{"NoteNumber":61,"Velocity":24,"Duration":245942,"SoundDuration":245942,"Delta":232701685},{"NoteNumber":57,"Velocity":42,"Duration":245942,"SoundDuration":245942,"Delta":232701685},{"NoteNumber":59,"Velocity":37,"Duration":284882,"SoundDuration":284882,"Delta":232947627},{"NoteNumber":45,"Velocity":35,"Duration":667370,"SoundDuration":667370,"Delta":233232509},{"NoteNumber":52,"Velocity":35,"Duration":619890,"SoundDuration":619890,"Delta":233279990},{"NoteNumber":61,"Velocity":45,"Duration":572409,"SoundDuration":572409,"Delta":233327470},{"NoteNumber":69,"Velocity":28,"Duration":316388,"SoundDuration":316388,"Delta":233899880},{"NoteNumber":61,"Velocity":24,"Duration":316388,"SoundDuration":316388,"Delta":233899880},{"NoteNumber":64,"Velocity":24,"Duration":316388,"SoundDuration":316388,"Delta":233899880},{"NoteNumber":57,"Velocity":42,"Duration":553680,"SoundDuration":553680,"Delta":233899880},{"NoteNumber":38,"Velocity":31,"Duration":651507,"SoundDuration":651507,"Delta":234453561},{"NoteNumber":54,"Velocity":42,"Duration":572409,"SoundDuration":572409,"Delta":234532658},{"NoteNumber":71,"Velocity":34,"Duration":291772,"SoundDuration":291772,"Delta":235105068},{"NoteNumber":62,"Velocity":28,"Duration":291772,"SoundDuration":291772,"Delta":235105068},{"NoteNumber":66,"Velocity":28,"Duration":291772,"SoundDuration":291772,"Delta":235105068},{"NoteNumber":59,"Velocity":44,"Duration":1183118,"SoundDuration":1183118,"Delta":235105068},{"NoteNumber":39,"Velocity":31,"Duration":607164,"SoundDuration":607164,"Delta":235688612},{"NoteNumber":66,"Velocity":31,"Duration":316388,"SoundDuration":316388,"Delta":236295776},{"NoteNumber":59,"Velocity":26,"Duration":316388,"SoundDuration":316388,"Delta":236295776},{"NoteNumber":57,"Velocity":43,"Duration":553680,"SoundDuration":553680,"Delta":236295776},{"NoteNumber":40,"Velocity":31,"Duration":717736,"SoundDuration":717736,"Delta":236849457},{"NoteNumber":56,"Velocity":44,"Duration":495485,"SoundDuration":495485,"Delta":236928554},{"NoteNumber":56,"Velocity":24,"Duration":372572,"SoundDuration":372572,"Delta":237465330},{"NoteNumber":59,"Velocity":24,"Duration":337186,"SoundDuration":337186,"Delta":237500716},{"NoteNumber":64,"Velocity":24,"Duration":303948,"SoundDuration":303948,"Delta":237533955},{"NoteNumber":68,"Velocity":28,"Duration":270709,"SoundDuration":270709,"Delta":237567194},{"NoteNumber":56,"Velocity":40,"Duration":286204,"SoundDuration":286204,"Delta":237837903},{"NoteNumber":47,"Velocity":31,"Duration":583543,"SoundDuration":583543,"Delta":238124108},{"NoteNumber":57,"Velocity":43,"Duration":893397,"SoundDuration":893397,"Delta":238124108},{"NoteNumber":66,"Velocity":29,"Duration":309853,"SoundDuration":309853,"Delta":238707652},{"NoteNumber":63,"Velocity":25,"Duration":309853,"SoundDuration":309853,"Delta":238707652},{"NoteNumber":59,"Velocity":44,"Duration":619706,"SoundDuration":619706,"Delta":238707652},{"NoteNumber":64,"Velocity":29,"Duration":632778,"SoundDuration":632778,"Delta":239327359},{"NoteNumber":56,"Velocity":25,"Duration":632778,"SoundDuration":632778,"Delta":239327359},{"NoteNumber":40,"Velocity":31,"Duration":632778,"SoundDuration":632778,"Delta":239327359},{"NoteNumber":52,"Velocity":45,"Duration":2663206,"SoundDuration":2663206,"Delta":239327359},{"NoteNumber":76,"Velocity":30,"Duration":1286225,"SoundDuration":1286225,"Delta":239960137},{"NoteNumber":64,"Velocity":25,"Duration":1280670,"SoundDuration":1280670,"Delta":239960137},{"NoteNumber":74,"Velocity":33,"Duration":619706,"SoundDuration":619706,"Delta":239960137},{"NoteNumber":71,"Velocity":27,"Duration":619706,"SoundDuration":619706,"Delta":239960137},{"NoteNumber":59,"Velocity":27,"Duration":619706,"SoundDuration":619706,"Delta":239960137},{"NoteNumber":56,"Velocity":22,"Duration":619706,"SoundDuration":619706,"Delta":239960137},{"NoteNumber":73,"Velocity":32,"Duration":666518,"SoundDuration":666518,"Delta":240579843},{"NoteNumber":69,"Velocity":27,"Duration":666518,"SoundDuration":666518,"Delta":240579843},{"NoteNumber":61,"Velocity":25,"Duration":666518,"SoundDuration":666518,"Delta":240579843},{"NoteNumber":57,"Velocity":20,"Duration":666518,"SoundDuration":666518,"Delta":240579843},{"NoteNumber":76,"Velocity":29,"Duration":744203,"SoundDuration":744203,"Delta":241246362},{"NoteNumber":68,"Velocity":30,"Duration":744203,"SoundDuration":744203,"Delta":241246362},{"NoteNumber":62,"Velocity":25,"Duration":744203,"SoundDuration":744203,"Delta":241246362},{"NoteNumber":64,"Velocity":23,"Duration":744203,"SoundDuration":744203,"Delta":241246362},{"NoteNumber":59,"Velocity":19,"Duration":744203,"SoundDuration":744203,"Delta":241246362},{"NoteNumber":45,"Velocity":35,"Duration":753587,"SoundDuration":753587,"Delta":241856685},{"NoteNumber":49,"Velocity":35,"Duration":686646,"SoundDuration":686646,"Delta":241923625},{"NoteNumber":57,"Velocity":44,"Duration":619706,"SoundDuration":619706,"Delta":241990565},{"NoteNumber":69,"Velocity":28,"Duration":260915,"SoundDuration":260915,"Delta":242610272},{"NoteNumber":64,"Velocity":24,"Duration":260915,"SoundDuration":260915,"Delta":242610272},{"NoteNumber":61,"Velocity":24,"Duration":260915,"SoundDuration":260915,"Delta":242610272},{"NoteNumber":57,"Velocity":42,"Duration":260915,"SoundDuration":260915,"Delta":242610272},{"NoteNumber":59,"Velocity":35,"Duration":255739,"SoundDuration":255739,"Delta":242871187},{"NoteNumber":45,"Velocity":35,"Duration":646939,"SoundDuration":646939,"Delta":243126927},{"NoteNumber":52,"Velocity":35,"Duration":604315,"SoundDuration":604315,"Delta":243169550},{"NoteNumber":61,"Velocity":45,"Duration":557011,"SoundDuration":557011,"Delta":243212173},{"NoteNumber":69,"Velocity":28,"Duration":316388,"SoundDuration":316388,"Delta":243773866},{"NoteNumber":61,"Velocity":24,"Duration":316388,"SoundDuration":316388,"Delta":243773866},{"NoteNumber":64,"Velocity":24,"Duration":316388,"SoundDuration":316388,"Delta":243773866},{"NoteNumber":57,"Velocity":42,"Duration":553680,"SoundDuration":553680,"Delta":243773866},{"NoteNumber":38,"Velocity":31,"Duration":651507,"SoundDuration":651507,"Delta":244327547},{"NoteNumber":54,"Velocity":42,"Duration":572409,"SoundDuration":572409,"Delta":244406644},{"NoteNumber":71,"Velocity":34,"Duration":291772,"SoundDuration":291772,"Delta":244979054},{"NoteNumber":62,"Velocity":28,"Duration":291772,"SoundDuration":291772,"Delta":244979054},{"NoteNumber":66,"Velocity":28,"Duration":291772,"SoundDuration":291772,"Delta":244979054},{"NoteNumber":59,"Velocity":40,"Duration":1190708,"SoundDuration":1190708,"Delta":244979054},{"NoteNumber":38,"Velocity":31,"Duration":607164,"SoundDuration":607164,"Delta":245562598},{"NoteNumber":71,"Velocity":34,"Duration":297560,"SoundDuration":297560,"Delta":246169762},{"NoteNumber":66,"Velocity":31,"Duration":297560,"SoundDuration":297560,"Delta":246169762},{"NoteNumber":62,"Velocity":26,"Duration":297560,"SoundDuration":297560,"Delta":246169762},{"NoteNumber":57,"Velocity":43,"Duration":520729,"SoundDuration":520729,"Delta":246169762},{"NoteNumber":40,"Velocity":31,"Duration":556589,"SoundDuration":556589,"Delta":246764882},{"NoteNumber":57,"Velocity":44,"Duration":280846,"SoundDuration":280846,"Delta":246764882},{"NoteNumber":56,"Velocity":44,"Duration":275743,"SoundDuration":275743,"Delta":247045729},{"NoteNumber":59,"Velocity":24,"Duration":286204,"SoundDuration":286204,"Delta":247321472},{"NoteNumber":62,"Velocity":24,"Duration":286204,"SoundDuration":286204,"Delta":247321472},{"NoteNumber":68,"Velocity":28,"Duration":286204,"SoundDuration":286204,"Delta":247321472},{"NoteNumber":54,"Velocity":44,"Duration":214653,"SoundDuration":214653,"Delta":247321472},{"NoteNumber":52,"Velocity":40,"Duration":214653,"SoundDuration":214653,"Delta":247607677},{"NoteNumber":40,"Velocity":31,"Duration":583543,"SoundDuration":583543,"Delta":247893882},{"NoteNumber":52,"Velocity":43,"Duration":116708,"SoundDuration":116708,"Delta":247893882},{"NoteNumber":54,"Velocity":43,"Duration":116708,"SoundDuration":116708,"Delta":248010591},{"NoteNumber":52,"Velocity":43,"Duration":116708,"SoundDuration":116708,"Delta":248127299},{"NoteNumber":51,"Velocity":43,"Duration":116708,"SoundDuration":116708,"Delta":248244008},{"NoteNumber":52,"Velocity":43,"Duration":116708,"SoundDuration":116708,"Delta":248360717},{"NoteNumber":59,"Velocity":25,"Duration":309853,"SoundDuration":309853,"Delta":248477426},{"NoteNumber":64,"Velocity":29,"Duration":309853,"SoundDuration":309853,"Delta":248477426},{"NoteNumber":62,"Velocity":25,"Duration":309853,"SoundDuration":309853,"Delta":248477426},{"NoteNumber":54,"Velocity":44,"Duration":232389,"SoundDuration":232389,"Delta":248477426},{"NoteNumber":56,"Velocity":44,"Duration":232389,"SoundDuration":232389,"Delta":248787279},{"NoteNumber":64,"Velocity":29,"Duration":632778,"SoundDuration":632778,"Delta":249097132},{"NoteNumber":61,"Velocity":25,"Duration":632778,"SoundDuration":632778,"Delta":249097132},{"NoteNumber":45,"Velocity":31,"Duration":632778,"SoundDuration":632778,"Delta":249097132},{"NoteNumber":57,"Velocity":45,"Duration":632778,"SoundDuration":632778,"Delta":249097132},{"NoteNumber":88,"Velocity":39,"Duration":619706,"SoundDuration":619706,"Delta":249729910},{"NoteNumber":76,"Velocity":32,"Duration":619706,"SoundDuration":619706,"Delta":249729910},{"NoteNumber":64,"Velocity":29,"Duration":619706,"SoundDuration":619706,"Delta":249729910},{"NoteNumber":61,"Velocity":24,"Duration":619706,"SoundDuration":619706,"Delta":249729910},{"NoteNumber":78,"Velocity":32,"Duration":660647,"SoundDuration":660647,"Delta":250349617},{"NoteNumber":86,"Velocity":38,"Duration":660647,"SoundDuration":660647,"Delta":250349617},{"NoteNumber":74,"Velocity":32,"Duration":660647,"SoundDuration":660647,"Delta":250349617},{"NoteNumber":66,"Velocity":27,"Duration":660647,"SoundDuration":660647,"Delta":250349617},{"NoteNumber":59,"Velocity":22,"Duration":660647,"SoundDuration":660647,"Delta":250349617},{"NoteNumber":71,"Velocity":29,"Duration":701518,"SoundDuration":701518,"Delta":251010264},{"NoteNumber":83,"Velocity":36,"Duration":701518,"SoundDuration":701518,"Delta":251010264},{"NoteNumber":74,"Velocity":29,"Duration":701518,"SoundDuration":701518,"Delta":251010264},{"NoteNumber":68,"Velocity":25,"Duration":701518,"SoundDuration":701518,"Delta":251010264},{"NoteNumber":52,"Velocity":21,"Duration":701518,"SoundDuration":701518,"Delta":251010264},{"NoteNumber":64,"Velocity":40,"Duration":185597,"SoundDuration":185597,"Delta":251526186},{"NoteNumber":69,"Velocity":50,"Duration":798461,"SoundDuration":798461,"Delta":251711783},{"NoteNumber":45,"Velocity":33,"Duration":276701,"SoundDuration":276701,"Delta":251711783},{"NoteNumber":61,"Velocity":30,"Duration":245058,"SoundDuration":245058,"Delta":252265187},{"NoteNumber":64,"Velocity":34,"Duration":245058,"SoundDuration":245058,"Delta":252265187},{"NoteNumber":57,"Velocity":28,"Duration":245058,"SoundDuration":245058,"Delta":252265187},{"NoteNumber":52,"Velocity":24,"Duration":245058,"SoundDuration":245058,"Delta":252265187},{"NoteNumber":71,"Velocity":43,"Duration":224954,"SoundDuration":224954,"Delta":252510245},{"NoteNumber":73,"Velocity":51,"Duration":796074,"SoundDuration":796074,"Delta":252810185},{"NoteNumber":33,"Velocity":34,"Duration":262191,"SoundDuration":262191,"Delta":252810185},{"NoteNumber":61,"Velocity":30,"Duration":271690,"SoundDuration":271690,"Delta":253334569},{"NoteNumber":64,"Velocity":34,"Duration":271690,"SoundDuration":271690,"Delta":253334569},{"NoteNumber":57,"Velocity":28,"Duration":271690,"SoundDuration":271690,"Delta":253334569},{"NoteNumber":52,"Velocity":24,"Duration":271690,"SoundDuration":271690,"Delta":253334569},{"NoteNumber":69,"Velocity":47,"Duration":271690,"SoundDuration":271690,"Delta":253606259},{"NoteNumber":66,"Velocity":47,"Duration":585823,"SoundDuration":585823,"Delta":253877949},{"NoteNumber":38,"Velocity":33,"Duration":292911,"SoundDuration":292911,"Delta":253877949},{"NoteNumber":62,"Velocity":37,"Duration":330915,"SoundDuration":330915,"Delta":254390544},{"NoteNumber":71,"Velocity":50,"Duration":1089978,"SoundDuration":1089978,"Delta":254463772},{"NoteNumber":59,"Velocity":28,"Duration":257687,"SoundDuration":257687,"Delta":254463772},{"NoteNumber":54,"Velocity":24,"Duration":257687,"SoundDuration":257687,"Delta":254463772},{"NoteNumber":39,"Velocity":34,"Duration":287301,"SoundDuration":287301,"Delta":254979147},{"NoteNumber":66,"Velocity":37,"Duration":271689,"SoundDuration":271689,"Delta":255553750},{"NoteNumber":69,"Velocity":49,"Duration":543380,"SoundDuration":543380,"Delta":255553750},{"NoteNumber":59,"Velocity":28,"Duration":271689,"SoundDuration":271689,"Delta":255553750},{"NoteNumber":51,"Velocity":24,"Duration":271689,"SoundDuration":271689,"Delta":255553750},{"NoteNumber":68,"Velocity":50,"Duration":810533,"SoundDuration":810533,"Delta":256097130},{"NoteNumber":40,"Velocity":33,"Duration":286204,"SoundDuration":286204,"Delta":256097130},{"NoteNumber":59,"Velocity":32,"Duration":245057,"SoundDuration":245057,"Delta":256662606},{"NoteNumber":64,"Velocity":34,"Duration":245057,"SoundDuration":245057,"Delta":256662606},{"NoteNumber":56,"Velocity":28,"Duration":245057,"SoundDuration":245057,"Delta":256662606},{"NoteNumber":52,"Velocity":24,"Duration":245057,"SoundDuration":245057,"Delta":256662606},{"NoteNumber":68,"Velocity":45,"Duration":266856,"SoundDuration":266856,"Delta":256907664},{"NoteNumber":69,"Velocity":49,"Duration":854518,"SoundDuration":854518,"Delta":257174520},{"NoteNumber":35,"Velocity":34,"Duration":271689,"SoundDuration":271689,"Delta":257174520},{"NoteNumber":57,"Velocity":36,"Duration":311138,"SoundDuration":311138,"Delta":257717900},{"NoteNumber":63,"Velocity":36,"Duration":311138,"SoundDuration":311138,"Delta":257717900},{"NoteNumber":71,"Velocity":50,"Duration":622277,"SoundDuration":622277,"Delta":257717900},{"NoteNumber":54,"Velocity":28,"Duration":311138,"SoundDuration":311138,"Delta":257717900},{"NoteNumber":47,"Velocity":24,"Duration":311138,"SoundDuration":311138,"Delta":257717900},{"NoteNumber":40,"Velocity":31,"Duration":782581,"SoundDuration":782581,"Delta":258145716},{"NoteNumber":47,"Velocity":31,"Duration":743689,"SoundDuration":743689,"Delta":258184608},{"NoteNumber":52,"Velocity":41,"Duration":704797,"SoundDuration":704797,"Delta":258223501},{"NoteNumber":56,"Velocity":25,"Duration":665904,"SoundDuration":665904,"Delta":258262393},{"NoteNumber":64,"Velocity":29,"Duration":332952,"SoundDuration":332952,"Delta":258301285},{"NoteNumber":71,"Velocity":45,"Duration":294060,"SoundDuration":294060,"Delta":258340178},{"NoteNumber":64,"Velocity":42,"Duration":294060,"SoundDuration":294060,"Delta":258634238},{"NoteNumber":76,"Velocity":30,"Duration":1204093,"SoundDuration":1204093,"Delta":258928298},{"NoteNumber":64,"Velocity":25,"Duration":1204093,"SoundDuration":1204093,"Delta":258928298},{"NoteNumber":74,"Velocity":33,"Duration":565930,"SoundDuration":565930,"Delta":258928298},{"NoteNumber":71,"Velocity":27,"Duration":565930,"SoundDuration":565930,"Delta":258928298},{"NoteNumber":52,"Velocity":22,"Duration":1204093,"SoundDuration":1204093,"Delta":258928298},{"NoteNumber":59,"Velocity":27,"Duration":565930,"SoundDuration":565930,"Delta":258928298},{"NoteNumber":56,"Velocity":22,"Duration":565930,"SoundDuration":565930,"Delta":258928298},{"NoteNumber":73,"Velocity":32,"Duration":398851,"SoundDuration":398851,"Delta":259494229},{"NoteNumber":69,"Velocity":27,"Duration":398851,"SoundDuration":398851,"Delta":259494229},{"NoteNumber":61,"Velocity":25,"Duration":398851,"SoundDuration":398851,"Delta":259494229},{"NoteNumber":57,"Velocity":20,"Duration":398851,"SoundDuration":398851,"Delta":259494229},{"NoteNumber":52,"Velocity":19,"Duration":924797,"SoundDuration":924797,"Delta":259893080},{"NoteNumber":59,"Velocity":19,"Duration":884912,"SoundDuration":884912,"Delta":259932965},{"NoteNumber":64,"Velocity":23,"Duration":845027,"SoundDuration":845027,"Delta":259972850},{"NoteNumber":62,"Velocity":25,"Duration":805141,"SoundDuration":805141,"Delta":260012735},{"NoteNumber":68,"Velocity":25,"Duration":765256,"SoundDuration":765256,"Delta":260052621},{"NoteNumber":71,"Velocity":30,"Duration":725371,"SoundDuration":725371,"Delta":260092506},{"NoteNumber":74,"Velocity":25,"Duration":685486,"SoundDuration":685486,"Delta":260132391},{"NoteNumber":64,"Velocity":40,"Duration":185597,"SoundDuration":185597,"Delta":260632280},{"NoteNumber":69,"Velocity":50,"Duration":798461,"SoundDuration":798461,"Delta":260817877},{"NoteNumber":45,"Velocity":33,"Duration":276701,"SoundDuration":276701,"Delta":260817877},{"NoteNumber":61,"Velocity":30,"Duration":245057,"SoundDuration":245057,"Delta":261371281},{"NoteNumber":64,"Velocity":34,"Duration":245057,"SoundDuration":245057,"Delta":261371281},{"NoteNumber":57,"Velocity":28,"Duration":245057,"SoundDuration":245057,"Delta":261371281},{"NoteNumber":52,"Velocity":24,"Duration":245057,"SoundDuration":245057,"Delta":261371281},{"NoteNumber":71,"Velocity":43,"Duration":224955,"SoundDuration":224955,"Delta":261616339},{"NoteNumber":73,"Velocity":51,"Duration":796073,"SoundDuration":796073,"Delta":261916279},{"NoteNumber":33,"Velocity":34,"Duration":262192,"SoundDuration":262192,"Delta":261916279},{"NoteNumber":61,"Velocity":30,"Duration":271689,"SoundDuration":271689,"Delta":262440663},{"NoteNumber":64,"Velocity":34,"Duration":271689,"SoundDuration":271689,"Delta":262440663},{"NoteNumber":57,"Velocity":28,"Duration":271689,"SoundDuration":271689,"Delta":262440663},{"NoteNumber":52,"Velocity":24,"Duration":271689,"SoundDuration":271689,"Delta":262440663},{"NoteNumber":69,"Velocity":47,"Duration":271690,"SoundDuration":271690,"Delta":262712353},{"NoteNumber":66,"Velocity":47,"Duration":539471,"SoundDuration":539471,"Delta":262984043},{"NoteNumber":38,"Velocity":33,"Duration":269735,"SoundDuration":269735,"Delta":262984043},{"NoteNumber":62,"Velocity":37,"Duration":257687,"SoundDuration":257687,"Delta":263523514},{"NoteNumber":71,"Velocity":50,"Duration":1089978,"SoundDuration":1089978,"Delta":263523514},{"NoteNumber":59,"Velocity":28,"Duration":257687,"SoundDuration":257687,"Delta":263523514},{"NoteNumber":54,"Velocity":24,"Duration":257687,"SoundDuration":257687,"Delta":263523514},{"NoteNumber":38,"Velocity":34,"Duration":287301,"SoundDuration":287301,"Delta":264038890},{"NoteNumber":66,"Velocity":37,"Duration":271689,"SoundDuration":271689,"Delta":264613492},{"NoteNumber":69,"Velocity":49,"Duration":543380,"SoundDuration":543380,"Delta":264613492},{"NoteNumber":50,"Velocity":24,"Duration":271689,"SoundDuration":271689,"Delta":264613492},{"NoteNumber":59,"Velocity":28,"Duration":271689,"SoundDuration":271689,"Delta":264613492},{"NoteNumber":69,"Velocity":47,"Duration":286204,"SoundDuration":286204,"Delta":265156872},{"NoteNumber":40,"Velocity":33,"Duration":286204,"SoundDuration":286204,"Delta":265156872},{"NoteNumber":68,"Velocity":47,"Duration":261398,"SoundDuration":261398,"Delta":265443077},{"NoteNumber":59,"Velocity":32,"Duration":245057,"SoundDuration":245057,"Delta":265704476},{"NoteNumber":62,"Velocity":34,"Duration":245057,"SoundDuration":245057,"Delta":265704476},{"NoteNumber":66,"Velocity":47,"Duration":183793,"SoundDuration":183793,"Delta":265704476},{"NoteNumber":56,"Velocity":28,"Duration":245057,"SoundDuration":245057,"Delta":265704476},{"NoteNumber":52,"Velocity":24,"Duration":245057,"SoundDuration":245057,"Delta":265704476},{"NoteNumber":64,"Velocity":44,"Duration":200142,"SoundDuration":200142,"Delta":265949534},{"NoteNumber":64,"Velocity":46,"Duration":108676,"SoundDuration":108676,"Delta":266216390},{"NoteNumber":40,"Velocity":34,"Duration":271689,"SoundDuration":271689,"Delta":266216390},{"NoteNumber":66,"Velocity":46,"Duration":108676,"SoundDuration":108676,"Delta":266325066},{"NoteNumber":64,"Velocity":46,"Duration":108676,"SoundDuration":108676,"Delta":266433742},{"NoteNumber":63,"Velocity":46,"Duration":108676,"SoundDuration":108676,"Delta":266542418},{"NoteNumber":64,"Velocity":46,"Duration":108676,"SoundDuration":108676,"Delta":266651094},{"NoteNumber":62,"Velocity":36,"Duration":276701,"SoundDuration":276701,"Delta":266759770},{"NoteNumber":66,"Velocity":47,"Duration":207526,"SoundDuration":207526,"Delta":266759770},{"NoteNumber":59,"Velocity":28,"Duration":276701,"SoundDuration":276701,"Delta":266759770},{"NoteNumber":52,"Velocity":24,"Duration":276701,"SoundDuration":276701,"Delta":266759770},{"NoteNumber":68,"Velocity":47,"Duration":207526,"SoundDuration":207526,"Delta":267036472},{"NoteNumber":69,"Velocity":47,"Duration":203767,"SoundDuration":203767,"Delta":267313174},{"NoteNumber":37,"Velocity":33,"Duration":271689,"SoundDuration":271689,"Delta":267313174},{"NoteNumber":73,"Velocity":49,"Duration":212224,"SoundDuration":212224,"Delta":267584864},{"NoteNumber":64,"Velocity":37,"Duration":276701,"SoundDuration":276701,"Delta":267867829},{"NoteNumber":76,"Velocity":54,"Duration":1128006,"SoundDuration":1128006,"Delta":267867829},{"NoteNumber":52,"Velocity":24,"Duration":276701,"SoundDuration":276701,"Delta":267867829},{"NoteNumber":61,"Velocity":28,"Duration":276701,"SoundDuration":276701,"Delta":267867829},{"NoteNumber":57,"Velocity":24,"Duration":276701,"SoundDuration":276701,"Delta":267867829},{"NoteNumber":32,"Velocity":44,"Duration":287301,"SoundDuration":287301,"Delta":268421233},{"NoteNumber":62,"Velocity":37,"Duration":271689,"SoundDuration":271689,"Delta":268995835},{"NoteNumber":64,"Velocity":37,"Duration":271689,"SoundDuration":271689,"Delta":268995835},{"NoteNumber":71,"Velocity":49,"Duration":543380,"SoundDuration":543380,"Delta":268995835},{"NoteNumber":52,"Velocity":24,"Duration":271689,"SoundDuration":271689,"Delta":268995835},{"NoteNumber":59,"Velocity":28,"Duration":271689,"SoundDuration":271689,"Delta":268995835},{"NoteNumber":74,"Velocity":47,"Duration":266768,"SoundDuration":266768,"Delta":269539215},{"NoteNumber":33,"Velocity":33,"Duration":266768,"SoundDuration":266768,"Delta":269539215},{"NoteNumber":73,"Velocity":47,"Duration":264067,"SoundDuration":264067,"Delta":269805983},{"NoteNumber":61,"Velocity":32,"Duration":245057,"SoundDuration":245057,"Delta":270070051},{"NoteNumber":64,"Velocity":34,"Duration":245057,"SoundDuration":245057,"Delta":270070051},{"NoteNumber":71,"Velocity":47,"Duration":183793,"SoundDuration":183793,"Delta":270070051},{"NoteNumber":57,"Velocity":28,"Duration":245057,"SoundDuration":245057,"Delta":270070051},{"NoteNumber":52,"Velocity":24,"Duration":245057,"SoundDuration":245057,"Delta":270070051},{"NoteNumber":69,"Velocity":44,"Duration":200142,"SoundDuration":200142,"Delta":270315109},{"NoteNumber":69,"Velocity":46,"Duration":82221,"SoundDuration":82221,"Delta":270581966},{"NoteNumber":40,"Velocity":34,"Duration":281902,"SoundDuration":281902,"Delta":270581966},{"NoteNumber":69,"Velocity":43,"Duration":93967,"SoundDuration":93967,"Delta":270675933},{"NoteNumber":71,"Velocity":43,"Duration":112760,"SoundDuration":112760,"Delta":270769900},{"NoteNumber":69,"Velocity":43,"Duration":93967,"SoundDuration":93967,"Delta":270863868},{"NoteNumber":68,"Velocity":43,"Duration":93967,"SoundDuration":93967,"Delta":270957835},{"NoteNumber":69,"Velocity":43,"Duration":93967,"SoundDuration":93967,"Delta":271051802},{"NoteNumber":62,"Velocity":36,"Duration":348755,"SoundDuration":348755,"Delta":271145770},{"NoteNumber":73,"Velocity":47,"Duration":261567,"SoundDuration":261567,"Delta":271145770},{"NoteNumber":57,"Velocity":24,"Duration":348755,"SoundDuration":348755,"Delta":271145770},{"NoteNumber":64,"Velocity":28,"Duration":348755,"SoundDuration":348755,"Delta":271145770},{"NoteNumber":52,"Velocity":24,"Duration":348755,"SoundDuration":348755,"Delta":271145770},{"NoteNumber":71,"Velocity":45,"Duration":133428,"SoundDuration":133428,"Delta":271627954},{"NoteNumber":69,"Velocity":47,"Duration":287301,"SoundDuration":287301,"Delta":271761382},{"NoteNumber":61,"Velocity":40,"Duration":287301,"SoundDuration":287301,"Delta":271761382},{"NoteNumber":57,"Velocity":36,"Duration":287301,"SoundDuration":287301,"Delta":271761382},{"NoteNumber":45,"Velocity":30,"Duration":287301,"SoundDuration":287301,"Delta":271761382},{"NoteNumber":52,"Velocity":30,"Duration":287301,"SoundDuration":287301,"Delta":271761382},{"NoteNumber":97,"Velocity":44,"Duration":282965,"SoundDuration":282965,"Delta":272335985},{"NoteNumber":85,"Velocity":36,"Duration":282965,"SoundDuration":282965,"Delta":272335985},{"NoteNumber":88,"Velocity":36,"Duration":282965,"SoundDuration":282965,"Delta":272335985},{"NoteNumber":73,"Velocity":28,"Duration":282965,"SoundDuration":282965,"Delta":272335985},{"NoteNumber":57,"Velocity":24,"Duration":282965,"SoundDuration":282965,"Delta":272335985},{"NoteNumber":64,"Velocity":24,"Duration":282965,"SoundDuration":282965,"Delta":272335985},{"NoteNumber":93,"Velocity":44,"Duration":282965,"SoundDuration":282965,"Delta":272901916},{"NoteNumber":81,"Velocity":36,"Duration":282965,"SoundDuration":282965,"Delta":272901916},{"NoteNumber":85,"Velocity":36,"Duration":282965,"SoundDuration":282965,"Delta":272901916},{"NoteNumber":69,"Velocity":28,"Duration":282965,"SoundDuration":282965,"Delta":272901916},{"NoteNumber":57,"Velocity":24,"Duration":282965,"SoundDuration":282965,"Delta":272901916},{"NoteNumber":61,"Velocity":24,"Duration":282965,"SoundDuration":282965,"Delta":272901916},{"NoteNumber":59,"Velocity":53,"Duration":535618,"SoundDuration":535618,"Delta":274033778},{"NoteNumber":56,"Velocity":45,"Duration":535618,"SoundDuration":535618,"Delta":274033778},{"NoteNumber":40,"Velocity":33,"Duration":267809,"SoundDuration":267809,"Delta":274033778},{"NoteNumber":56,"Velocity":50,"Duration":282965,"SoundDuration":282965,"Delta":274569396},{"NoteNumber":71,"Velocity":33,"Duration":282965,"SoundDuration":282965,"Delta":274569396},{"NoteNumber":64,"Velocity":27,"Duration":282965,"SoundDuration":282965,"Delta":274569396},{"NoteNumber":68,"Velocity":27,"Duration":282965,"SoundDuration":282965,"Delta":274569396},{"NoteNumber":52,"Velocity":47,"Duration":212224,"SoundDuration":212224,"Delta":274852362},{"NoteNumber":61,"Velocity":53,"Duration":535618,"SoundDuration":535618,"Delta":275135327},{"NoteNumber":57,"Velocity":45,"Duration":535618,"SoundDuration":535618,"Delta":275135327},{"NoteNumber":40,"Velocity":33,"Duration":267809,"SoundDuration":267809,"Delta":275135327},{"NoteNumber":64,"Velocity":51,"Duration":282965,"SoundDuration":282965,"Delta":275670946},{"NoteNumber":61,"Velocity":43,"Duration":282965,"SoundDuration":282965,"Delta":275670946},{"NoteNumber":73,"Velocity":33,"Duration":282965,"SoundDuration":282965,"Delta":275670946},{"NoteNumber":69,"Velocity":27,"Duration":282965,"SoundDuration":282965,"Delta":275670946},{"NoteNumber":61,"Velocity":47,"Duration":212224,"SoundDuration":212224,"Delta":275953911},{"NoteNumber":57,"Velocity":40,"Duration":212224,"SoundDuration":212224,"Delta":275953911},{"NoteNumber":59,"Velocity":54,"Duration":859777,"SoundDuration":859777,"Delta":276236877},{"NoteNumber":56,"Velocity":45,"Duration":859777,"SoundDuration":859777,"Delta":276236877},{"NoteNumber":40,"Velocity":33,"Duration":288406,"SoundDuration":288406,"Delta":276236877},{"NoteNumber":59,"Velocity":27,"Duration":355067,"SoundDuration":355067,"Delta":276741587},{"NoteNumber":68,"Velocity":27,"Duration":319016,"SoundDuration":319016,"Delta":276777638},{"NoteNumber":76,"Velocity":33,"Duration":282965,"SoundDuration":282965,"Delta":276813689},{"NoteNumber":56,"Velocity":47,"Duration":282965,"SoundDuration":282965,"Delta":277096654},{"NoteNumber":52,"Velocity":40,"Duration":282965,"SoundDuration":282965,"Delta":277096654},{"NoteNumber":64,"Velocity":27,"Duration":364801,"SoundDuration":364801,"Delta":277308878},{"NoteNumber":71,"Velocity":27,"Duration":329430,"SoundDuration":329430,"Delta":277344249},{"NoteNumber":59,"Velocity":50,"Duration":294060,"SoundDuration":294060,"Delta":277379620},{"NoteNumber":56,"Velocity":42,"Duration":294060,"SoundDuration":294060,"Delta":277379620},{"NoteNumber":80,"Velocity":33,"Duration":294060,"SoundDuration":294060,"Delta":277379620},{"NoteNumber":68,"Velocity":27,"Duration":327709,"SoundDuration":327709,"Delta":277894225},{"NoteNumber":76,"Velocity":27,"Duration":290951,"SoundDuration":290951,"Delta":277930982},{"NoteNumber":83,"Velocity":33,"Duration":254194,"SoundDuration":254194,"Delta":277967740},{"NoteNumber":71,"Velocity":44,"Duration":254194,"SoundDuration":254194,"Delta":278221934},{"NoteNumber":66,"Velocity":33,"Duration":1780789,"SoundDuration":1780789,"Delta":278476128},{"NoteNumber":70,"Velocity":51,"Duration":267809,"SoundDuration":267809,"Delta":278476128},{"NoteNumber":51,"Velocity":27,"Duration":2060913,"SoundDuration":2060913,"Delta":278476128},{"NoteNumber":59,"Velocity":33,"Duration":2060913,"SoundDuration":2060913,"Delta":278476128},{"NoteNumber":71,"Velocity":45,"Duration":267809,"SoundDuration":267809,"Delta":278743937},{"NoteNumber":73,"Velocity":49,"Duration":245861,"SoundDuration":245861,"Delta":279011747},{"NoteNumber":71,"Velocity":45,"Duration":245861,"SoundDuration":245861,"Delta":279257608},{"NoteNumber":70,"Velocity":48,"Duration":249958,"SoundDuration":249958,"Delta":279503469},{"NoteNumber":71,"Velocity":45,"Duration":266461,"SoundDuration":266461,"Delta":279753427},{"NoteNumber":69,"Velocity":48,"Duration":258576,"SoundDuration":258576,"Delta":280019889},{"NoteNumber":66,"Velocity":45,"Duration":258576,"SoundDuration":258576,"Delta":280278465},{"NoteNumber":64,"Velocity":48,"Duration":574684,"SoundDuration":574684,"Delta":280537041},{"NoteNumber":68,"Velocity":48,"Duration":574684,"SoundDuration":574684,"Delta":280537041},{"NoteNumber":52,"Velocity":28,"Duration":288406,"SoundDuration":288406,"Delta":280537041},{"NoteNumber":59,"Velocity":33,"Duration":288406,"SoundDuration":288406,"Delta":280537041},{"NoteNumber":92,"Velocity":38,"Duration":122930,"SoundDuration":122930,"Delta":281111726},{"NoteNumber":88,"Velocity":30,"Duration":122930,"SoundDuration":122930,"Delta":281111726},{"NoteNumber":64,"Velocity":30,"Duration":245861,"SoundDuration":245861,"Delta":281111726},{"NoteNumber":71,"Velocity":30,"Duration":245861,"SoundDuration":245861,"Delta":281111726},{"NoteNumber":80,"Velocity":30,"Duration":245861,"SoundDuration":245861,"Delta":281111726},{"NoteNumber":93,"Velocity":39,"Duration":122930,"SoundDuration":122930,"Delta":281234657},{"NoteNumber":90,"Velocity":31,"Duration":122930,"SoundDuration":122930,"Delta":281234657},{"NoteNumber":95,"Velocity":43,"Duration":122930,"SoundDuration":122930,"Delta":281357587},{"NoteNumber":92,"Velocity":34,"Duration":122930,"SoundDuration":122930,"Delta":281357587},{"NoteNumber":93,"Velocity":41,"Duration":138888,"SoundDuration":138888,"Delta":281480518},{"NoteNumber":90,"Velocity":32,"Duration":138888,"SoundDuration":138888,"Delta":281480518},{"NoteNumber":92,"Velocity":39,"Duration":288406,"SoundDuration":288406,"Delta":281619407},{"NoteNumber":88,"Velocity":31,"Duration":288406,"SoundDuration":288406,"Delta":281619407},{"NoteNumber":64,"Velocity":31,"Duration":288406,"SoundDuration":288406,"Delta":281619407},{"NoteNumber":68,"Velocity":31,"Duration":288406,"SoundDuration":288406,"Delta":281619407},{"NoteNumber":76,"Velocity":31,"Duration":288406,"SoundDuration":288406,"Delta":281619407},{"NoteNumber":59,"Velocity":53,"Duration":535618,"SoundDuration":535618,"Delta":282773031},{"NoteNumber":56,"Velocity":45,"Duration":535618,"SoundDuration":535618,"Delta":282773031},{"NoteNumber":40,"Velocity":33,"Duration":267809,"SoundDuration":267809,"Delta":282773031},{"NoteNumber":56,"Velocity":50,"Duration":282965,"SoundDuration":282965,"Delta":283308649},{"NoteNumber":71,"Velocity":33,"Duration":282965,"SoundDuration":282965,"Delta":283308649},{"NoteNumber":64,"Velocity":27,"Duration":282965,"SoundDuration":282965,"Delta":283308649},{"NoteNumber":68,"Velocity":27,"Duration":282965,"SoundDuration":282965,"Delta":283308649},{"NoteNumber":52,"Velocity":47,"Duration":212224,"SoundDuration":212224,"Delta":283591615},{"NoteNumber":57,"Velocity":38,"Duration":86209,"SoundDuration":86209,"Delta":283876299},{"NoteNumber":61,"Velocity":38,"Duration":86209,"SoundDuration":86209,"Delta":283876299},{"NoteNumber":40,"Velocity":33,"Duration":282601,"SoundDuration":282601,"Delta":283876299},{"NoteNumber":57,"Velocity":33,"Duration":94624,"SoundDuration":94624,"Delta":283975006},{"NoteNumber":61,"Velocity":33,"Duration":94624,"SoundDuration":94624,"Delta":283975006},{"NoteNumber":59,"Velocity":36,"Duration":89269,"SoundDuration":89269,"Delta":284069631},{"NoteNumber":63,"Velocity":36,"Duration":89269,"SoundDuration":89269,"Delta":284069631},{"NoteNumber":57,"Velocity":33,"Duration":89269,"SoundDuration":89269,"Delta":284158901},{"NoteNumber":61,"Velocity":33,"Duration":89269,"SoundDuration":89269,"Delta":284158901},{"NoteNumber":56,"Velocity":38,"Duration":105595,"SoundDuration":105595,"Delta":284248171},{"NoteNumber":60,"Velocity":38,"Duration":105595,"SoundDuration":105595,"Delta":284248171},{"NoteNumber":57,"Velocity":33,"Duration":91441,"SoundDuration":91441,"Delta":284353766},{"NoteNumber":61,"Velocity":33,"Duration":91441,"SoundDuration":91441,"Delta":284353766},{"NoteNumber":61,"Velocity":43,"Duration":330420,"SoundDuration":330420,"Delta":284445207},{"NoteNumber":64,"Velocity":51,"Duration":299939,"SoundDuration":299939,"Delta":284475688},{"NoteNumber":73,"Velocity":33,"Duration":299939,"SoundDuration":299939,"Delta":284475688},{"NoteNumber":69,"Velocity":27,"Duration":299939,"SoundDuration":299939,"Delta":284475688},{"NoteNumber":61,"Velocity":47,"Duration":208294,"SoundDuration":208294,"Delta":284775628},{"NoteNumber":57,"Velocity":40,"Duration":208294,"SoundDuration":208294,"Delta":284775628},{"NoteNumber":59,"Velocity":54,"Duration":859777,"SoundDuration":859777,"Delta":285053354},{"NoteNumber":56,"Velocity":45,"Duration":859777,"SoundDuration":859777,"Delta":285053354},{"NoteNumber":40,"Velocity":33,"Duration":288406,"SoundDuration":288406,"Delta":285053354},{"NoteNumber":59,"Velocity":27,"Duration":355067,"SoundDuration":355067,"Delta":285558064},{"NoteNumber":68,"Velocity":27,"Duration":319016,"SoundDuration":319016,"Delta":285594115},{"NoteNumber":76,"Velocity":33,"Duration":282965,"SoundDuration":282965,"Delta":285630166},{"NoteNumber":56,"Velocity":47,"Duration":282965,"SoundDuration":282965,"Delta":285913131},{"NoteNumber":52,"Velocity":40,"Duration":282965,"SoundDuration":282965,"Delta":285913131},{"NoteNumber":64,"Velocity":27,"Duration":364801,"SoundDuration":364801,"Delta":286125356},{"NoteNumber":71,"Velocity":27,"Duration":329430,"SoundDuration":329430,"Delta":286160726},{"NoteNumber":59,"Velocity":50,"Duration":294060,"SoundDuration":294060,"Delta":286196097},{"NoteNumber":56,"Velocity":42,"Duration":294060,"SoundDuration":294060,"Delta":286196097},{"NoteNumber":80,"Velocity":33,"Duration":294060,"SoundDuration":294060,"Delta":286196097},{"NoteNumber":68,"Velocity":27,"Duration":327709,"SoundDuration":327709,"Delta":286710702},{"NoteNumber":76,"Velocity":27,"Duration":290951,"SoundDuration":290951,"Delta":286747459},{"NoteNumber":83,"Velocity":33,"Duration":254194,"SoundDuration":254194,"Delta":286784217},{"NoteNumber":71,"Velocity":44,"Duration":789794,"SoundDuration":789794,"Delta":287038411},{"NoteNumber":66,"Velocity":33,"Duration":2023372,"SoundDuration":2023372,"Delta":287292605},{"NoteNumber":51,"Velocity":27,"Duration":2023372,"SoundDuration":2023372,"Delta":287292605},{"NoteNumber":59,"Velocity":33,"Duration":2023372,"SoundDuration":2023372,"Delta":287292605},{"NoteNumber":71,"Velocity":49,"Duration":245861,"SoundDuration":245861,"Delta":287828205},{"NoteNumber":71,"Velocity":45,"Duration":245861,"SoundDuration":245861,"Delta":288074067},{"NoteNumber":70,"Velocity":48,"Duration":241896,"SoundDuration":241896,"Delta":288319928},{"NoteNumber":71,"Velocity":45,"Duration":262431,"SoundDuration":262431,"Delta":288561824},{"NoteNumber":69,"Velocity":48,"Duration":245861,"SoundDuration":245861,"Delta":288824255},{"NoteNumber":71,"Velocity":45,"Duration":245861,"SoundDuration":245861,"Delta":289070117},{"NoteNumber":64,"Velocity":33,"Duration":1025515,"SoundDuration":1025515,"Delta":289315978},{"NoteNumber":68,"Velocity":51,"Duration":245861,"SoundDuration":245861,"Delta":289315978},{"NoteNumber":52,"Velocity":27,"Duration":499291,"SoundDuration":499291,"Delta":289315978},{"NoteNumber":59,"Velocity":33,"Duration":499291,"SoundDuration":499291,"Delta":289315978},{"NoteNumber":71,"Velocity":45,"Duration":253430,"SoundDuration":253430,"Delta":289561839},{"NoteNumber":71,"Velocity":45,"Duration":131555,"SoundDuration":131555,"Delta":289815270},{"NoteNumber":71,"Velocity":45,"Duration":131555,"SoundDuration":131555,"Delta":290078381},{"NoteNumber":66,"Velocity":33,"Duration":996050,"SoundDuration":996050,"Delta":290341493},{"NoteNumber":70,"Velocity":48,"Duration":241896,"SoundDuration":241896,"Delta":290341493},{"NoteNumber":51,"Velocity":27,"Duration":996050,"SoundDuration":996050,"Delta":290341493},{"NoteNumber":59,"Velocity":33,"Duration":1488006,"SoundDuration":1488006,"Delta":290341493},{"NoteNumber":71,"Velocity":45,"Duration":262431,"SoundDuration":262431,"Delta":290583390},{"NoteNumber":69,"Velocity":48,"Duration":245861,"SoundDuration":245861,"Delta":290845821},{"NoteNumber":71,"Velocity":45,"Duration":245861,"SoundDuration":245861,"Delta":291091682},{"NoteNumber":64,"Velocity":33,"Duration":975749,"SoundDuration":975749,"Delta":291337543},{"NoteNumber":68,"Velocity":51,"Duration":250060,"SoundDuration":250060,"Delta":291337543},{"NoteNumber":52,"Velocity":27,"Duration":491956,"SoundDuration":491956,"Delta":291337543},{"NoteNumber":71,"Velocity":45,"Duration":241896,"SoundDuration":241896,"Delta":291587603},{"NoteNumber":71,"Velocity":45,"Duration":120948,"SoundDuration":120948,"Delta":291829500},{"NoteNumber":71,"Velocity":45,"Duration":120948,"SoundDuration":120948,"Delta":292071396},{"NoteNumber":70,"Velocity":48,"Duration":158704,"SoundDuration":158704,"Delta":292313293},{"NoteNumber":66,"Velocity":33,"Duration":1015721,"SoundDuration":1015721,"Delta":292313293},{"NoteNumber":51,"Velocity":27,"Duration":1015721,"SoundDuration":1015721,"Delta":292313293},{"NoteNumber":59,"Velocity":33,"Duration":1015721,"SoundDuration":1015721,"Delta":292313293},{"NoteNumber":73,"Velocity":45,"Duration":158704,"SoundDuration":158704,"Delta":292471998},{"NoteNumber":71,"Velocity":45,"Duration":181159,"SoundDuration":181159,"Delta":292630703},{"NoteNumber":69,"Velocity":48,"Duration":172384,"SoundDuration":172384,"Delta":292811862},{"NoteNumber":73,"Velocity":44,"Duration":172383,"SoundDuration":172383,"Delta":292984246},{"NoteNumber":71,"Velocity":44,"Duration":172384,"SoundDuration":172384,"Delta":293156630},{"NoteNumber":64,"Velocity":54,"Duration":517152,"SoundDuration":517152,"Delta":293329014},{"NoteNumber":68,"Velocity":54,"Duration":517152,"SoundDuration":517152,"Delta":293329014},{"NoteNumber":52,"Velocity":33,"Duration":517152,"SoundDuration":517152,"Delta":293329014},{"NoteNumber":59,"Velocity":33,"Duration":517152,"SoundDuration":517152,"Delta":293329014},{"NoteNumber":64,"Velocity":46,"Duration":258576,"SoundDuration":258576,"Delta":293846166},{"NoteNumber":56,"Velocity":30,"Duration":258576,"SoundDuration":258576,"Delta":293846166},{"NoteNumber":56,"Velocity":53,"Duration":517152,"SoundDuration":517152,"Delta":294363318},{"NoteNumber":59,"Velocity":53,"Duration":517152,"SoundDuration":517152,"Delta":294363318},{"NoteNumber":40,"Velocity":35,"Duration":258576,"SoundDuration":258576,"Delta":294363318},{"NoteNumber":52,"Velocity":48,"Duration":258576,"SoundDuration":258576,"Delta":294880470},{"NoteNumber":56,"Velocity":48,"Duration":258576,"SoundDuration":258576,"Delta":294880470},{"NoteNumber":68,"Velocity":33,"Duration":517152,"SoundDuration":517152,"Delta":294880470},{"NoteNumber":71,"Velocity":33,"Duration":517152,"SoundDuration":517152,"Delta":294880470},{"NoteNumber":59,"Velocity":55,"Duration":1010066,"SoundDuration":1010066,"Delta":295397622},{"NoteNumber":62,"Velocity":55,"Duration":1010066,"SoundDuration":1010066,"Delta":295397622},{"NoteNumber":40,"Velocity":37,"Duration":234338,"SoundDuration":234338,"Delta":295397622},{"NoteNumber":74,"Velocity":51,"Duration":517152,"SoundDuration":517152,"Delta":295631960},{"NoteNumber":71,"Velocity":43,"Duration":517152,"SoundDuration":517152,"Delta":295631960},{"NoteNumber":73,"Velocity":44,"Duration":86191,"SoundDuration":86191,"Delta":296149112},{"NoteNumber":76,"Velocity":44,"Duration":86191,"SoundDuration":86191,"Delta":296149112},{"NoteNumber":71,"Velocity":41,"Duration":86191,"SoundDuration":86191,"Delta":296235304},{"NoteNumber":74,"Velocity":41,"Duration":86191,"SoundDuration":86191,"Delta":296235304},{"NoteNumber":73,"Velocity":41,"Duration":86192,"SoundDuration":86192,"Delta":296321496},{"NoteNumber":69,"Velocity":41,"Duration":86192,"SoundDuration":86192,"Delta":296321496},{"NoteNumber":52,"Velocity":48,"Duration":258576,"SoundDuration":258576,"Delta":296407688},{"NoteNumber":59,"Velocity":48,"Duration":258576,"SoundDuration":258576,"Delta":296407688},{"NoteNumber":68,"Velocity":44,"Duration":129287,"SoundDuration":129287,"Delta":296407688},{"NoteNumber":71,"Velocity":44,"Duration":129287,"SoundDuration":129287,"Delta":296407688},{"NoteNumber":66,"Velocity":40,"Duration":129287,"SoundDuration":129287,"Delta":296666264},{"NoteNumber":74,"Velocity":40,"Duration":129287,"SoundDuration":129287,"Delta":296666264},{"NoteNumber":64,"Velocity":44,"Duration":129287,"SoundDuration":129287,"Delta":296924840},{"NoteNumber":73,"Velocity":44,"Duration":129287,"SoundDuration":129287,"Delta":296924840},{"NoteNumber":62,"Velocity":40,"Duration":129288,"SoundDuration":129288,"Delta":297183416},{"NoteNumber":71,"Velocity":40,"Duration":129288,"SoundDuration":129288,"Delta":297183416},{"NoteNumber":57,"Velocity":47,"Duration":579374,"SoundDuration":579374,"Delta":297441992},{"NoteNumber":61,"Velocity":33,"Duration":296409,"SoundDuration":296409,"Delta":297441992},{"NoteNumber":69,"Velocity":33,"Duration":296409,"SoundDuration":296409,"Delta":297441992},{"NoteNumber":57,"Velocity":46,"Duration":206126,"SoundDuration":206126,"Delta":298021367},{"NoteNumber":64,"Velocity":28,"Duration":270770,"SoundDuration":270770,"Delta":298021367},{"NoteNumber":61,"Velocity":28,"Duration":270770,"SoundDuration":270770,"Delta":298021367},{"NoteNumber":69,"Velocity":28,"Duration":270770,"SoundDuration":270770,"Delta":298021367},{"NoteNumber":59,"Velocity":42,"Duration":193932,"SoundDuration":193932,"Delta":298292138},{"NoteNumber":61,"Velocity":47,"Duration":526223,"SoundDuration":526223,"Delta":298550714},{"NoteNumber":45,"Velocity":34,"Duration":263111,"SoundDuration":263111,"Delta":298550714},{"NoteNumber":57,"Velocity":43,"Duration":477186,"SoundDuration":477186,"Delta":299076937},{"NoteNumber":61,"Velocity":28,"Duration":272677,"SoundDuration":272677,"Delta":299076937},{"NoteNumber":64,"Velocity":28,"Duration":272677,"SoundDuration":272677,"Delta":299076937},{"NoteNumber":69,"Velocity":28,"Duration":272677,"SoundDuration":272677,"Delta":299076937},{"NoteNumber":54,"Velocity":43,"Duration":572409,"SoundDuration":572409,"Delta":299622293},{"NoteNumber":38,"Velocity":36,"Duration":286204,"SoundDuration":286204,"Delta":299622293},{"NoteNumber":59,"Velocity":48,"Duration":1077959,"SoundDuration":1077959,"Delta":300194703},{"NoteNumber":62,"Velocity":31,"Duration":517152,"SoundDuration":517152,"Delta":300194703},{"NoteNumber":66,"Velocity":31,"Duration":517152,"SoundDuration":517152,"Delta":300194703},{"NoteNumber":71,"Velocity":31,"Duration":517152,"SoundDuration":517152,"Delta":300194703},{"NoteNumber":39,"Velocity":42,"Duration":288129,"SoundDuration":288129,"Delta":300711855},{"NoteNumber":59,"Velocity":42,"Duration":280541,"SoundDuration":280541,"Delta":301272663},{"NoteNumber":66,"Velocity":42,"Duration":280541,"SoundDuration":280541,"Delta":301272663},{"NoteNumber":69,"Velocity":42,"Duration":568947,"SoundDuration":568947,"Delta":301272663},{"NoteNumber":51,"Velocity":31,"Duration":280541,"SoundDuration":280541,"Delta":301272663},{"NoteNumber":54,"Velocity":31,"Duration":280541,"SoundDuration":280541,"Delta":301272663},{"NoteNumber":68,"Velocity":48,"Duration":801409,"SoundDuration":801409,"Delta":301841611},{"NoteNumber":40,"Velocity":36,"Duration":282965,"SoundDuration":282965,"Delta":301841611},{"NoteNumber":59,"Velocity":33,"Duration":245861,"SoundDuration":245861,"Delta":302397159},{"NoteNumber":64,"Velocity":33,"Duration":245861,"SoundDuration":245861,"Delta":302397159},{"NoteNumber":52,"Velocity":31,"Duration":245861,"SoundDuration":245861,"Delta":302397159},{"NoteNumber":56,"Velocity":31,"Duration":245861,"SoundDuration":245861,"Delta":302397159},{"NoteNumber":68,"Velocity":42,"Duration":286204,"SoundDuration":286204,"Delta":302643020},{"NoteNumber":69,"Velocity":44,"Duration":535618,"SoundDuration":535618,"Delta":302929225},{"NoteNumber":35,"Velocity":36,"Duration":267809,"SoundDuration":267809,"Delta":302929225},{"NoteNumber":57,"Velocity":46,"Duration":344678,"SoundDuration":344678,"Delta":303397891},{"NoteNumber":63,"Velocity":46,"Duration":311202,"SoundDuration":311202,"Delta":303431368},{"NoteNumber":71,"Velocity":46,"Duration":555452,"SoundDuration":555452,"Delta":303464844},{"NoteNumber":47,"Velocity":31,"Duration":277726,"SoundDuration":277726,"Delta":303464844},{"NoteNumber":54,"Velocity":31,"Duration":277726,"SoundDuration":277726,"Delta":303464844},{"NoteNumber":56,"Velocity":25,"Duration":702209,"SoundDuration":702209,"Delta":303950865},{"NoteNumber":64,"Velocity":29,"Duration":351104,"SoundDuration":351104,"Delta":303985580},{"NoteNumber":71,"Velocity":45,"Duration":316389,"SoundDuration":316389,"Delta":304020296},{"NoteNumber":40,"Velocity":31,"Duration":632777,"SoundDuration":632777,"Delta":304020296},{"NoteNumber":64,"Velocity":42,"Duration":316388,"SoundDuration":316388,"Delta":304336685},{"NoteNumber":86,"Velocity":37,"Duration":565930,"SoundDuration":565930,"Delta":304653074},{"NoteNumber":74,"Velocity":31,"Duration":565930,"SoundDuration":565930,"Delta":304653074},{"NoteNumber":83,"Velocity":31,"Duration":565930,"SoundDuration":565930,"Delta":304653074},{"NoteNumber":59,"Velocity":30,"Duration":565930,"SoundDuration":565930,"Delta":304653074},{"NoteNumber":56,"Velocity":25,"Duration":1204093,"SoundDuration":1204093,"Delta":304653074},{"NoteNumber":73,"Velocity":31,"Duration":638162,"SoundDuration":638162,"Delta":305219005},{"NoteNumber":85,"Velocity":36,"Duration":638162,"SoundDuration":638162,"Delta":305219005},{"NoteNumber":81,"Velocity":31,"Duration":638162,"SoundDuration":638162,"Delta":305219005},{"NoteNumber":61,"Velocity":28,"Duration":638162,"SoundDuration":638162,"Delta":305219005},{"NoteNumber":57,"Velocity":23,"Duration":638162,"SoundDuration":638162,"Delta":305219005},{"NoteNumber":71,"Velocity":34,"Duration":717084,"SoundDuration":717084,"Delta":305857167},{"NoteNumber":83,"Velocity":27,"Duration":717084,"SoundDuration":717084,"Delta":305857167},{"NoteNumber":80,"Velocity":27,"Duration":717084,"SoundDuration":717084,"Delta":305857167},{"NoteNumber":52,"Velocity":22,"Duration":717084,"SoundDuration":717084,"Delta":305857167},{"NoteNumber":59,"Velocity":22,"Duration":717084,"SoundDuration":717084,"Delta":305857167},{"NoteNumber":62,"Velocity":26,"Duration":717084,"SoundDuration":717084,"Delta":305857167},{"NoteNumber":45,"Velocity":35,"Duration":753587,"SoundDuration":753587,"Delta":306440371},{"NoteNumber":49,"Velocity":35,"Duration":686646,"SoundDuration":686646,"Delta":306507311},{"NoteNumber":57,"Velocity":44,"Duration":619706,"SoundDuration":619706,"Delta":306574252},{"NoteNumber":69,"Velocity":28,"Duration":270709,"SoundDuration":270709,"Delta":307193958},{"NoteNumber":64,"Velocity":24,"Duration":270709,"SoundDuration":270709,"Delta":307193958},{"NoteNumber":61,"Velocity":24,"Duration":270709,"SoundDuration":270709,"Delta":307193958},{"NoteNumber":57,"Velocity":42,"Duration":270709,"SoundDuration":270709,"Delta":307193958},{"NoteNumber":59,"Velocity":37,"Duration":226768,"SoundDuration":226768,"Delta":307464667},{"NoteNumber":45,"Velocity":35,"Duration":572409,"SoundDuration":572409,"Delta":307767026},{"NoteNumber":52,"Velocity":35,"Duration":572409,"SoundDuration":572409,"Delta":307767026},{"NoteNumber":61,"Velocity":45,"Duration":565254,"SoundDuration":565254,"Delta":307767026},{"NoteNumber":69,"Velocity":28,"Duration":316389,"SoundDuration":316389,"Delta":308339436},{"NoteNumber":61,"Velocity":24,"Duration":316389,"SoundDuration":316389,"Delta":308339436},{"NoteNumber":64,"Velocity":24,"Duration":316389,"SoundDuration":316389,"Delta":308339436},{"NoteNumber":57,"Velocity":42,"Duration":553680,"SoundDuration":553680,"Delta":308339436},{"NoteNumber":42,"Velocity":38,"Duration":1818595,"SoundDuration":1818595,"Delta":308893117},{"NoteNumber":62,"Velocity":41,"Duration":1739497,"SoundDuration":1739497,"Delta":308972214},{"NoteNumber":57,"Velocity":45,"Duration":1739497,"SoundDuration":1739497,"Delta":308972214},{"NoteNumber":69,"Velocity":47,"Duration":1453292,"SoundDuration":1453292,"Delta":309258419},{"NoteNumber":74,"Velocity":49,"Duration":1167087,"SoundDuration":1167087,"Delta":309544624},{"NoteNumber":74,"Velocity":47,"Duration":291771,"SoundDuration":291771,"Delta":311003484},{"NoteNumber":62,"Velocity":32,"Duration":2183264,"SoundDuration":2183264,"Delta":311295256},{"NoteNumber":64,"Velocity":34,"Duration":2183264,"SoundDuration":2183264,"Delta":311295256},{"NoteNumber":74,"Velocity":47,"Duration":266768,"SoundDuration":266768,"Delta":311295256},{"NoteNumber":52,"Velocity":29,"Duration":2183264,"SoundDuration":2183264,"Delta":311295256},{"NoteNumber":59,"Velocity":33,"Duration":2183264,"SoundDuration":2183264,"Delta":311295256},{"NoteNumber":68,"Velocity":47,"Duration":264067,"SoundDuration":264067,"Delta":311562024},{"NoteNumber":68,"Velocity":47,"Duration":183793,"SoundDuration":183793,"Delta":311826092},{"NoteNumber":68,"Velocity":44,"Duration":200142,"SoundDuration":200142,"Delta":312071150},{"NoteNumber":68,"Velocity":46,"Duration":82221,"SoundDuration":82221,"Delta":312338006},{"NoteNumber":68,"Velocity":43,"Duration":82221,"SoundDuration":82221,"Delta":312431974},{"NoteNumber":69,"Velocity":43,"Duration":82221,"SoundDuration":82221,"Delta":312525941},{"NoteNumber":68,"Velocity":43,"Duration":82221,"SoundDuration":82221,"Delta":312619908},{"NoteNumber":66,"Velocity":43,"Duration":82221,"SoundDuration":82221,"Delta":312713876},{"NoteNumber":68,"Velocity":43,"Duration":82221,"SoundDuration":82221,"Delta":312807843},{"NoteNumber":69,"Velocity":47,"Duration":232389,"SoundDuration":232389,"Delta":312901810},{"NoteNumber":71,"Velocity":45,"Duration":200142,"SoundDuration":200142,"Delta":313211664},{"NoteNumber":69,"Velocity":47,"Duration":563804,"SoundDuration":563804,"Delta":313478520},{"NoteNumber":61,"Velocity":40,"Duration":563804,"SoundDuration":563804,"Delta":313478520},{"NoteNumber":45,"Velocity":33,"Duration":563804,"SoundDuration":563804,"Delta":313478520},{"NoteNumber":57,"Velocity":44,"Duration":281902,"SoundDuration":281902,"Delta":313760422},{"NoteNumber":69,"Velocity":28,"Duration":561350,"SoundDuration":561350,"Delta":314042324},{"NoteNumber":64,"Velocity":24,"Duration":561350,"SoundDuration":561350,"Delta":314042324},{"NoteNumber":61,"Velocity":24,"Duration":554084,"SoundDuration":554084,"Delta":314042324},{"NoteNumber":57,"Velocity":45,"Duration":270709,"SoundDuration":270709,"Delta":314042324},{"NoteNumber":59,"Velocity":48,"Duration":217980,"SoundDuration":217980,"Delta":314313033},{"NoteNumber":45,"Velocity":41,"Duration":543380,"SoundDuration":543380,"Delta":314603675},{"NoteNumber":52,"Velocity":44,"Duration":543380,"SoundDuration":543380,"Delta":314603675},{"NoteNumber":61,"Velocity":54,"Duration":536587,"SoundDuration":536587,"Delta":314603675},{"NoteNumber":69,"Velocity":28,"Duration":632777,"SoundDuration":632777,"Delta":315147055},{"NoteNumber":61,"Velocity":24,"Duration":632777,"SoundDuration":632777,"Delta":315147055},{"NoteNumber":64,"Velocity":24,"Duration":632777,"SoundDuration":632777,"Delta":315147055},{"NoteNumber":57,"Velocity":42,"Duration":553680,"SoundDuration":553680,"Delta":315147055},{"NoteNumber":42,"Velocity":38,"Duration":1223800,"SoundDuration":1223800,"Delta":315700735},{"NoteNumber":62,"Velocity":38,"Duration":1139940,"SoundDuration":1139940,"Delta":315779833},{"NoteNumber":57,"Velocity":45,"Duration":1144703,"SoundDuration":1144703,"Delta":315779833},{"NoteNumber":69,"Velocity":41,"Duration":143102,"SoundDuration":143102,"Delta":315922935},{"NoteNumber":74,"Velocity":44,"Duration":143102,"SoundDuration":143102,"Delta":316066038},{"NoteNumber":78,"Velocity":45,"Duration":904967,"SoundDuration":904967,"Delta":316209140},{"NoteNumber":90,"Velocity":48,"Duration":761865,"SoundDuration":761865,"Delta":316352243},{"NoteNumber":62,"Velocity":41,"Duration":555380,"SoundDuration":555380,"Delta":316924536},{"NoteNumber":71,"Velocity":41,"Duration":555380,"SoundDuration":555380,"Delta":316924536},{"NoteNumber":78,"Velocity":40,"Duration":185079,"SoundDuration":185079,"Delta":317114108},{"NoteNumber":90,"Velocity":40,"Duration":185079,"SoundDuration":185079,"Delta":317114108},{"NoteNumber":78,"Velocity":42,"Duration":180729,"SoundDuration":180729,"Delta":317299188},{"NoteNumber":90,"Velocity":42,"Duration":180729,"SoundDuration":180729,"Delta":317299188},{"NoteNumber":78,"Velocity":45,"Duration":176525,"SoundDuration":176525,"Delta":317479917},{"NoteNumber":90,"Velocity":45,"Duration":176525,"SoundDuration":176525,"Delta":317479917},{"NoteNumber":61,"Velocity":41,"Duration":517926,"SoundDuration":517926,"Delta":317479917},{"NoteNumber":69,"Velocity":41,"Duration":517926,"SoundDuration":517926,"Delta":317479917},{"NoteNumber":78,"Velocity":46,"Duration":172693,"SoundDuration":172693,"Delta":317656443},{"NoteNumber":90,"Velocity":46,"Duration":172693,"SoundDuration":172693,"Delta":317656443},{"NoteNumber":78,"Velocity":49,"Duration":168707,"SoundDuration":168707,"Delta":317829136},{"NoteNumber":90,"Velocity":49,"Duration":168707,"SoundDuration":168707,"Delta":317829136},{"NoteNumber":78,"Velocity":54,"Duration":498256,"SoundDuration":498256,"Delta":317997844},{"NoteNumber":90,"Velocity":54,"Duration":124564,"SoundDuration":124564,"Delta":317997844},{"NoteNumber":52,"Velocity":37,"Duration":498256,"SoundDuration":498256,"Delta":317997844},{"NoteNumber":62,"Velocity":37,"Duration":498256,"SoundDuration":498256,"Delta":317997844},{"NoteNumber":59,"Velocity":37,"Duration":498256,"SoundDuration":498256,"Delta":317997844},{"NoteNumber":68,"Velocity":37,"Duration":498256,"SoundDuration":498256,"Delta":317997844},{"NoteNumber":80,"Velocity":48,"Duration":124563,"SoundDuration":124563,"Delta":318122408},{"NoteNumber":90,"Velocity":44,"Duration":124564,"SoundDuration":124564,"Delta":318246972},{"NoteNumber":92,"Velocity":44,"Duration":124564,"SoundDuration":124564,"Delta":318371536},{"NoteNumber":102,"Velocity":54,"Duration":124563,"SoundDuration":124563,"Delta":318496100},{"NoteNumber":92,"Velocity":45,"Duration":124564,"SoundDuration":124564,"Delta":318620664},{"NoteNumber":90,"Velocity":41,"Duration":124563,"SoundDuration":124563,"Delta":318745228},{"NoteNumber":80,"Velocity":41,"Duration":124564,"SoundDuration":124564,"Delta":318869792},{"NoteNumber":90,"Velocity":50,"Duration":124564,"SoundDuration":124564,"Delta":318994356},{"NoteNumber":80,"Velocity":41,"Duration":124563,"SoundDuration":124563,"Delta":319118920},{"NoteNumber":78,"Velocity":41,"Duration":124564,"SoundDuration":124564,"Delta":319243484},{"NoteNumber":68,"Velocity":36,"Duration":103707,"SoundDuration":103707,"Delta":319368048},{"NoteNumber":68,"Velocity":36,"Duration":142804,"SoundDuration":142804,"Delta":319492379},{"NoteNumber":68,"Velocity":35,"Duration":136023,"SoundDuration":136023,"Delta":319655148},{"NoteNumber":68,"Velocity":36,"Duration":129364,"SoundDuration":129364,"Delta":319810223},{"NoteNumber":40,"Velocity":26,"Duration":500323,"SoundDuration":500323,"Delta":319903359},{"NoteNumber":52,"Velocity":30,"Duration":472871,"SoundDuration":472871,"Delta":319930811},{"NoteNumber":62,"Velocity":43,"Duration":446541,"SoundDuration":446541,"Delta":319957142},{"NoteNumber":64,"Velocity":43,"Duration":446541,"SoundDuration":446541,"Delta":319957142},{"NoteNumber":68,"Velocity":50,"Duration":119708,"SoundDuration":119708,"Delta":319957142},{"NoteNumber":59,"Velocity":35,"Duration":446541,"SoundDuration":446541,"Delta":319957142},{"NoteNumber":68,"Velocity":37,"Duration":120430,"SoundDuration":120430,"Delta":320100793},{"NoteNumber":69,"Velocity":41,"Duration":91229,"SoundDuration":91229,"Delta":320221223},{"NoteNumber":68,"Velocity":37,"Duration":91229,"SoundDuration":91229,"Delta":320312453},{"NoteNumber":67,"Velocity":36,"Duration":90973,"SoundDuration":90973,"Delta":320403683},{"NoteNumber":68,"Velocity":36,"Duration":90133,"SoundDuration":90133,"Delta":320494657},{"NoteNumber":69,"Velocity":36,"Duration":90133,"SoundDuration":90133,"Delta":320584790},{"NoteNumber":70,"Velocity":36,"Duration":89883,"SoundDuration":89883,"Delta":320674924},{"NoteNumber":71,"Velocity":36,"Duration":89063,"SoundDuration":89063,"Delta":320764807},{"NoteNumber":72,"Velocity":37,"Duration":89063,"SoundDuration":89063,"Delta":320853870},{"NoteNumber":73,"Velocity":38,"Duration":88819,"SoundDuration":88819,"Delta":320942933},{"NoteNumber":74,"Velocity":39,"Duration":88017,"SoundDuration":88017,"Delta":321031752},{"NoteNumber":75,"Velocity":40,"Duration":88017,"SoundDuration":88017,"Delta":321119770},{"NoteNumber":76,"Velocity":41,"Duration":87779,"SoundDuration":87779,"Delta":321207788},{"NoteNumber":77,"Velocity":42,"Duration":86996,"SoundDuration":86996,"Delta":321295568},{"NoteNumber":78,"Velocity":43,"Duration":86996,"SoundDuration":86996,"Delta":321382565},{"NoteNumber":79,"Velocity":44,"Duration":86764,"SoundDuration":86764,"Delta":321469562},{"NoteNumber":80,"Velocity":44,"Duration":85999,"SoundDuration":85999,"Delta":321556326},{"NoteNumber":81,"Velocity":45,"Duration":85999,"SoundDuration":85999,"Delta":321642325},{"NoteNumber":82,"Velocity":45,"Duration":85771,"SoundDuration":85771,"Delta":321728324},{"NoteNumber":83,"Velocity":46,"Duration":85024,"SoundDuration":85024,"Delta":321814096},{"NoteNumber":84,"Velocity":47,"Duration":85024,"SoundDuration":85024,"Delta":321899120},{"NoteNumber":85,"Velocity":48,"Duration":84801,"SoundDuration":84801,"Delta":321984145},{"NoteNumber":86,"Velocity":49,"Duration":84071,"SoundDuration":84071,"Delta":322068947},{"NoteNumber":87,"Velocity":50,"Duration":84071,"SoundDuration":84071,"Delta":322153018},{"NoteNumber":88,"Velocity":50,"Duration":83853,"SoundDuration":83853,"Delta":322237089},{"NoteNumber":89,"Velocity":51,"Duration":83139,"SoundDuration":83139,"Delta":322320943},{"NoteNumber":90,"Velocity":52,"Duration":83139,"SoundDuration":83139,"Delta":322404082},{"NoteNumber":91,"Velocity":53,"Duration":82926,"SoundDuration":82926,"Delta":322487222},{"NoteNumber":92,"Velocity":54,"Duration":82227,"SoundDuration":82227,"Delta":322570148},{"NoteNumber":93,"Velocity":54,"Duration":82227,"SoundDuration":82227,"Delta":322652376},{"NoteNumber":94,"Velocity":55,"Duration":81290,"SoundDuration":81290,"Delta":322734604},{"NoteNumber":95,"Velocity":56,"Duration":79609,"SoundDuration":79609,"Delta":322815895},{"NoteNumber":96,"Velocity":57,"Duration":79121,"SoundDuration":79121,"Delta":322895504},{"NoteNumber":97,"Velocity":58,"Duration":78568,"SoundDuration":78568,"Delta":322974626},{"NoteNumber":98,"Velocity":58,"Duration":77954,"SoundDuration":77954,"Delta":323053195},{"NoteNumber":99,"Velocity":59,"Duration":87031,"SoundDuration":87031,"Delta":323131149},{"NoteNumber":100,"Velocity":60,"Duration":84820,"SoundDuration":84820,"Delta":323218181},{"NoteNumber":101,"Velocity":62,"Duration":86218,"SoundDuration":86218,"Delta":323303001},{"NoteNumber":102,"Velocity":72,"Duration":89063,"SoundDuration":89063,"Delta":323389220},{"NoteNumber":68,"Velocity":43,"Duration":287301,"SoundDuration":287301,"Delta":324032773},{"NoteNumber":62,"Velocity":49,"Duration":287301,"SoundDuration":287301,"Delta":324032773},{"NoteNumber":52,"Velocity":43,"Duration":215475,"SoundDuration":215475,"Delta":324032773},{"NoteNumber":45,"Velocity":37,"Duration":353727,"SoundDuration":353727,"Delta":324248249},{"NoteNumber":52,"Velocity":37,"Duration":317814,"SoundDuration":317814,"Delta":324284162},{"NoteNumber":69,"Velocity":43,"Duration":563804,"SoundDuration":563804,"Delta":324320074},{"NoteNumber":61,"Velocity":58,"Duration":563804,"SoundDuration":563804,"Delta":324320074},{"NoteNumber":40,"Velocity":37,"Duration":281902,"SoundDuration":281902,"Delta":324601976},{"NoteNumber":49,"Velocity":37,"Duration":281902,"SoundDuration":281902,"Delta":324883878},{"NoteNumber":52,"Velocity":37,"Duration":281902,"SoundDuration":281902,"Delta":324883878},{"NoteNumber":57,"Velocity":52,"Duration":281902,"SoundDuration":281902,"Delta":324883878},{"NoteNumber":40,"Velocity":37,"Duration":176188,"SoundDuration":176188,"Delta":325165780},{"NoteNumber":52,"Velocity":53,"Duration":176188,"SoundDuration":176188,"Delta":325165780},{"NoteNumber":47,"Velocity":37,"Duration":363401,"SoundDuration":363401,"Delta":325341969},{"NoteNumber":52,"Velocity":37,"Duration":328163,"SoundDuration":328163,"Delta":325377207},{"NoteNumber":56,"Velocity":37,"Duration":292925,"SoundDuration":292925,"Delta":325412445},{"NoteNumber":62,"Velocity":57,"Duration":777567,"SoundDuration":777567,"Delta":325447682},{"NoteNumber":40,"Velocity":37,"Duration":257687,"SoundDuration":257687,"Delta":325705370},{"NoteNumber":50,"Velocity":37,"Duration":262192,"SoundDuration":262192,"Delta":325963058},{"NoteNumber":62,"Velocity":45,"Duration":262191,"SoundDuration":262191,"Delta":326225250},{"NoteNumber":64,"Velocity":45,"Duration":262191,"SoundDuration":262191,"Delta":326225250},{"NoteNumber":71,"Velocity":45,"Duration":262191,"SoundDuration":262191,"Delta":326225250},{"NoteNumber":76,"Velocity":50,"Duration":262191,"SoundDuration":262191,"Delta":326225250},{"NoteNumber":40,"Velocity":37,"Duration":262191,"SoundDuration":262191,"Delta":326225250},{"NoteNumber":56,"Velocity":41,"Duration":262191,"SoundDuration":262191,"Delta":326225250},{"NoteNumber":61,"Velocity":33,"Duration":538893,"SoundDuration":538893,"Delta":326487442},{"NoteNumber":69,"Velocity":33,"Duration":538893,"SoundDuration":538893,"Delta":326487442},{"NoteNumber":75,"Velocity":55,"Duration":276701,"SoundDuration":276701,"Delta":326487442},{"NoteNumber":49,"Velocity":41,"Duration":538893,"SoundDuration":538893,"Delta":326487442},{"NoteNumber":57,"Velocity":41,"Duration":538893,"SoundDuration":538893,"Delta":326487442},{"NoteNumber":76,"Velocity":50,"Duration":262192,"SoundDuration":262192,"Delta":326764144},{"NoteNumber":69,"Velocity":33,"Duration":499503,"SoundDuration":499503,"Delta":327026336},{"NoteNumber":78,"Velocity":54,"Duration":251529,"SoundDuration":251529,"Delta":327026336},{"NoteNumber":61,"Velocity":33,"Duration":499503,"SoundDuration":499503,"Delta":327026336},{"NoteNumber":64,"Velocity":33,"Duration":499503,"SoundDuration":499503,"Delta":327026336},{"NoteNumber":76,"Velocity":50,"Duration":247974,"SoundDuration":247974,"Delta":327277865},{"NoteNumber":75,"Velocity":53,"Duration":257687,"SoundDuration":257687,"Delta":327525839},{"NoteNumber":76,"Velocity":50,"Duration":270326,"SoundDuration":270326,"Delta":327783527},{"NoteNumber":64,"Velocity":33,"Duration":524333,"SoundDuration":524333,"Delta":328053854},{"NoteNumber":74,"Velocity":53,"Duration":258576,"SoundDuration":258576,"Delta":328053854},{"NoteNumber":56,"Velocity":33,"Duration":452508,"SoundDuration":452508,"Delta":328053854},{"NoteNumber":59,"Velocity":33,"Duration":452508,"SoundDuration":452508,"Delta":328053854},{"NoteNumber":71,"Velocity":50,"Duration":265757,"SoundDuration":265757,"Delta":328312430},{"NoteNumber":45,"Velocity":37,"Duration":353727,"SoundDuration":353727,"Delta":328506362},{"NoteNumber":52,"Velocity":37,"Duration":317814,"SoundDuration":317814,"Delta":328542274},{"NoteNumber":64,"Velocity":34,"Duration":563804,"SoundDuration":563804,"Delta":328578187},{"NoteNumber":69,"Velocity":34,"Duration":563804,"SoundDuration":563804,"Delta":328578187},{"NoteNumber":73,"Velocity":43,"Duration":563804,"SoundDuration":563804,"Delta":328578187},{"NoteNumber":61,"Velocity":58,"Duration":563804,"SoundDuration":563804,"Delta":328578187},{"NoteNumber":40,"Velocity":37,"Duration":281902,"SoundDuration":281902,"Delta":328860089},{"NoteNumber":49,"Velocity":37,"Duration":281902,"SoundDuration":281902,"Delta":329141991},{"NoteNumber":52,"Velocity":37,"Duration":281902,"SoundDuration":281902,"Delta":329141991},{"NoteNumber":57,"Velocity":52,"Duration":281902,"SoundDuration":281902,"Delta":329141991},{"NoteNumber":40,"Velocity":37,"Duration":176188,"SoundDuration":176188,"Delta":329423893},{"NoteNumber":52,"Velocity":53,"Duration":176188,"SoundDuration":176188,"Delta":329423893},{"NoteNumber":47,"Velocity":37,"Duration":363401,"SoundDuration":363401,"Delta":329600082},{"NoteNumber":52,"Velocity":37,"Duration":328163,"SoundDuration":328163,"Delta":329635320},{"NoteNumber":56,"Velocity":37,"Duration":292925,"SoundDuration":292925,"Delta":329670557},{"NoteNumber":62,"Velocity":57,"Duration":777567,"SoundDuration":777567,"Delta":329705795},{"NoteNumber":40,"Velocity":37,"Duration":257687,"SoundDuration":257687,"Delta":329963483},{"NoteNumber":50,"Velocity":37,"Duration":262192,"SoundDuration":262192,"Delta":330221171},{"NoteNumber":62,"Velocity":45,"Duration":262191,"SoundDuration":262191,"Delta":330483363},{"NoteNumber":64,"Velocity":45,"Duration":262191,"SoundDuration":262191,"Delta":330483363},{"NoteNumber":71,"Velocity":45,"Duration":262191,"SoundDuration":262191,"Delta":330483363},{"NoteNumber":76,"Velocity":50,"Duration":538893,"SoundDuration":538893,"Delta":330483363},{"NoteNumber":40,"Velocity":37,"Duration":262191,"SoundDuration":262191,"Delta":330483363},{"NoteNumber":56,"Velocity":41,"Duration":262191,"SoundDuration":262191,"Delta":330483363},{"NoteNumber":61,"Velocity":33,"Duration":276701,"SoundDuration":276701,"Delta":330745555},{"NoteNumber":69,"Velocity":33,"Duration":276701,"SoundDuration":276701,"Delta":330745555},{"NoteNumber":49,"Velocity":41,"Duration":538893,"SoundDuration":538893,"Delta":330745555},{"NoteNumber":57,"Velocity":41,"Duration":538893,"SoundDuration":538893,"Delta":330745555},{"NoteNumber":76,"Velocity":38,"Duration":196643,"SoundDuration":196643,"Delta":331022256},{"NoteNumber":88,"Velocity":50,"Duration":196643,"SoundDuration":196643,"Delta":331022256},{"NoteNumber":76,"Velocity":41,"Duration":194666,"SoundDuration":194666,"Delta":331284448},{"NoteNumber":88,"Velocity":54,"Duration":194666,"SoundDuration":194666,"Delta":331284448},{"NoteNumber":76,"Velocity":38,"Duration":190710,"SoundDuration":190710,"Delta":331542685},{"NoteNumber":88,"Velocity":50,"Duration":190710,"SoundDuration":190710,"Delta":331542685},{"NoteNumber":75,"Velocity":40,"Duration":241118,"SoundDuration":241118,"Delta":331796965},{"NoteNumber":87,"Velocity":53,"Duration":241118,"SoundDuration":241118,"Delta":331796965},{"NoteNumber":56,"Velocity":33,"Duration":993276,"SoundDuration":993276,"Delta":331796965},{"NoteNumber":64,"Velocity":33,"Duration":993276,"SoundDuration":993276,"Delta":331796965},{"NoteNumber":71,"Velocity":33,"Duration":993276,"SoundDuration":993276,"Delta":331796965},{"NoteNumber":76,"Velocity":38,"Duration":262042,"SoundDuration":262042,"Delta":332038084},{"NoteNumber":88,"Velocity":50,"Duration":262042,"SoundDuration":262042,"Delta":332038084},{"NoteNumber":74,"Velocity":40,"Duration":245057,"SoundDuration":245057,"Delta":332300126},{"NoteNumber":86,"Velocity":53,"Duration":245057,"SoundDuration":245057,"Delta":332300126},{"NoteNumber":76,"Velocity":38,"Duration":183793,"SoundDuration":183793,"Delta":332545184},{"NoteNumber":88,"Velocity":50,"Duration":183793,"SoundDuration":183793,"Delta":332545184},{"NoteNumber":57,"Velocity":30,"Duration":306322,"SoundDuration":306322,"Delta":332728977},{"NoteNumber":64,"Velocity":33,"Duration":275690,"SoundDuration":275690,"Delta":332759610},{"NoteNumber":76,"Velocity":42,"Duration":245057,"SoundDuration":245057,"Delta":332790242},{"NoteNumber":88,"Velocity":54,"Duration":245057,"SoundDuration":245057,"Delta":332790242},{"NoteNumber":73,"Velocity":43,"Duration":245057,"SoundDuration":245057,"Delta":332790242},{"NoteNumber":73,"Velocity":38,"Duration":183793,"SoundDuration":183793,"Delta":333035300},{"NoteNumber":85,"Velocity":50,"Duration":183793,"SoundDuration":183793,"Delta":333035300},{"NoteNumber":73,"Velocity":38,"Duration":183793,"SoundDuration":183793,"Delta":333280358},{"NoteNumber":85,"Velocity":50,"Duration":183793,"SoundDuration":183793,"Delta":333280358},{"NoteNumber":73,"Velocity":38,"Duration":196643,"SoundDuration":196643,"Delta":333525416},{"NoteNumber":85,"Velocity":50,"Duration":196643,"SoundDuration":196643,"Delta":333525416},{"NoteNumber":72,"Velocity":41,"Duration":245057,"SoundDuration":245057,"Delta":333787608},{"NoteNumber":84,"Velocity":54,"Duration":245057,"SoundDuration":245057,"Delta":333787608},{"NoteNumber":53,"Velocity":28,"Duration":905659,"SoundDuration":905659,"Delta":333787608},{"NoteNumber":61,"Velocity":29,"Duration":905659,"SoundDuration":905659,"Delta":333787608},{"NoteNumber":68,"Velocity":33,"Duration":905659,"SoundDuration":905659,"Delta":333787608},{"NoteNumber":73,"Velocity":38,"Duration":245058,"SoundDuration":245058,"Delta":334032666},{"NoteNumber":85,"Velocity":50,"Duration":245058,"SoundDuration":245058,"Delta":334032666},{"NoteNumber":71,"Velocity":41,"Duration":239734,"SoundDuration":239734,"Delta":334277724},{"NoteNumber":83,"Velocity":54,"Duration":239734,"SoundDuration":239734,"Delta":334277724},{"NoteNumber":73,"Velocity":38,"Duration":175808,"SoundDuration":175808,"Delta":334517459},{"NoteNumber":85,"Velocity":50,"Duration":175808,"SoundDuration":175808,"Delta":334517459},{"NoteNumber":54,"Velocity":30,"Duration":307730,"SoundDuration":307730,"Delta":334693268},{"NoteNumber":61,"Velocity":33,"Duration":278429,"SoundDuration":278429,"Delta":334722569},{"NoteNumber":73,"Velocity":42,"Duration":249127,"SoundDuration":249127,"Delta":334751871},{"NoteNumber":85,"Velocity":54,"Duration":249127,"SoundDuration":249127,"Delta":334751871},{"NoteNumber":69,"Velocity":43,"Duration":249127,"SoundDuration":249127,"Delta":334751871},{"NoteNumber":69,"Velocity":38,"Duration":186846,"SoundDuration":186846,"Delta":335000999},{"NoteNumber":81,"Velocity":50,"Duration":186846,"SoundDuration":186846,"Delta":335000999},{"NoteNumber":69,"Velocity":38,"Duration":186845,"SoundDuration":186845,"Delta":335250127},{"NoteNumber":81,"Velocity":50,"Duration":186845,"SoundDuration":186845,"Delta":335250127},{"NoteNumber":69,"Velocity":38,"Duration":186846,"SoundDuration":186846,"Delta":335499255},{"NoteNumber":81,"Velocity":50,"Duration":186846,"SoundDuration":186846,"Delta":335499255},{"NoteNumber":68,"Velocity":43,"Duration":177904,"SoundDuration":177904,"Delta":335748383},{"NoteNumber":80,"Velocity":55,"Duration":177904,"SoundDuration":177904,"Delta":335748383},{"NoteNumber":49,"Velocity":28,"Duration":1041866,"SoundDuration":1041866,"Delta":335748383},{"NoteNumber":57,"Velocity":29,"Duration":1041866,"SoundDuration":1041866,"Delta":335748383},{"NoteNumber":64,"Velocity":33,"Duration":1041866,"SoundDuration":1041866,"Delta":335748383},{"NoteNumber":71,"Velocity":39,"Duration":170266,"SoundDuration":170266,"Delta":335926287},{"NoteNumber":83,"Velocity":51,"Duration":170266,"SoundDuration":170266,"Delta":335926287},{"NoteNumber":69,"Velocity":39,"Duration":162627,"SoundDuration":162627,"Delta":336096553},{"NoteNumber":81,"Velocity":51,"Duration":162627,"SoundDuration":162627,"Delta":336096553},{"NoteNumber":67,"Velocity":42,"Duration":177022,"SoundDuration":177022,"Delta":336259181},{"NoteNumber":79,"Velocity":54,"Duration":177022,"SoundDuration":177022,"Delta":336259181},{"NoteNumber":71,"Velocity":38,"Duration":265533,"SoundDuration":265533,"Delta":336436204},{"NoteNumber":83,"Velocity":50,"Duration":265533,"SoundDuration":265533,"Delta":336436204},{"NoteNumber":69,"Velocity":38,"Duration":66383,"SoundDuration":66383,"Delta":336701737},{"NoteNumber":81,"Velocity":50,"Duration":66383,"SoundDuration":66383,"Delta":336701737},{"NoteNumber":50,"Velocity":40,"Duration":331917,"SoundDuration":331917,"Delta":336723865},{"NoteNumber":57,"Velocity":43,"Duration":298725,"SoundDuration":298725,"Delta":336757057},{"NoteNumber":69,"Velocity":41,"Duration":265533,"SoundDuration":265533,"Delta":336790249},{"NoteNumber":81,"Velocity":54,"Duration":265533,"SoundDuration":265533,"Delta":336790249},{"NoteNumber":66,"Velocity":46,"Duration":265533,"SoundDuration":265533,"Delta":336790249},{"NoteNumber":66,"Velocity":39,"Duration":199150,"SoundDuration":199150,"Delta":337055782},{"NoteNumber":78,"Velocity":51,"Duration":199150,"SoundDuration":199150,"Delta":337055782},{"NoteNumber":66,"Velocity":39,"Duration":526223,"SoundDuration":526223,"Delta":337321316},{"NoteNumber":74,"Velocity":43,"Duration":526223,"SoundDuration":526223,"Delta":337321316},{"NoteNumber":78,"Velocity":51,"Duration":526223,"SoundDuration":526223,"Delta":337321316},{"NoteNumber":57,"Velocity":43,"Duration":394667,"SoundDuration":394667,"Delta":337321316},{"NoteNumber":50,"Velocity":36,"Duration":394667,"SoundDuration":394667,"Delta":337321316},{"NoteNumber":47,"Velocity":36,"Duration":87703,"SoundDuration":87703,"Delta":337584428},{"NoteNumber":54,"Velocity":37,"Duration":87703,"SoundDuration":87703,"Delta":337672132},{"NoteNumber":62,"Velocity":41,"Duration":87703,"SoundDuration":87703,"Delta":337759836},{"NoteNumber":74,"Velocity":43,"Duration":282965,"SoundDuration":282965,"Delta":337847540},{"NoteNumber":66,"Velocity":36,"Duration":282965,"SoundDuration":282965,"Delta":337847540},{"NoteNumber":62,"Velocity":55,"Duration":526223,"SoundDuration":526223,"Delta":338413471},{"NoteNumber":62,"Velocity":60,"Duration":277726,"SoundDuration":277726,"Delta":338939694},{"NoteNumber":56,"Velocity":56,"Duration":740603,"SoundDuration":740603,"Delta":339217420},{"NoteNumber":59,"Velocity":36,"Duration":416589,"SoundDuration":416589,"Delta":339495147},{"NoteNumber":68,"Velocity":43,"Duration":416589,"SoundDuration":416589,"Delta":339495147},{"NoteNumber":52,"Velocity":36,"Duration":416589,"SoundDuration":416589,"Delta":339495147},{"NoteNumber":49,"Velocity":36,"Duration":92575,"SoundDuration":92575,"Delta":339772873},{"NoteNumber":56,"Velocity":37,"Duration":185150,"SoundDuration":185150,"Delta":339865448},{"NoteNumber":64,"Velocity":41,"Duration":92575,"SoundDuration":92575,"Delta":339958024},{"NoteNumber":76,"Velocity":43,"Duration":299939,"SoundDuration":299939,"Delta":340050599},{"NoteNumber":68,"Velocity":36,"Duration":299939,"SoundDuration":299939,"Delta":340050599},{"NoteNumber":64,"Velocity":55,"Duration":526223,"SoundDuration":526223,"Delta":340650479},{"NoteNumber":64,"Velocity":60,"Duration":272677,"SoundDuration":272677,"Delta":341176703},{"NoteNumber":57,"Velocity":56,"Duration":727140,"SoundDuration":727140,"Delta":341449380},{"NoteNumber":61,"Velocity":36,"Duration":409016,"SoundDuration":409016,"Delta":341722058},{"NoteNumber":69,"Velocity":43,"Duration":409016,"SoundDuration":409016,"Delta":341722058},{"NoteNumber":54,"Velocity":36,"Duration":409016,"SoundDuration":409016,"Delta":341722058},{"NoteNumber":50,"Velocity":36,"Duration":90892,"SoundDuration":90892,"Delta":341994736},{"NoteNumber":57,"Velocity":37,"Duration":181785,"SoundDuration":181785,"Delta":342085628},{"NoteNumber":66,"Velocity":41,"Duration":90892,"SoundDuration":90892,"Delta":342176521},{"NoteNumber":78,"Velocity":43,"Duration":312434,"SoundDuration":312434,"Delta":342267414},{"NoteNumber":69,"Velocity":36,"Duration":312434,"SoundDuration":312434,"Delta":342267414},{"NoteNumber":90,"Velocity":55,"Duration":618684,"SoundDuration":618684,"Delta":343168780},{"NoteNumber":78,"Velocity":55,"Duration":618684,"SoundDuration":618684,"Delta":343168780},{"NoteNumber":88,"Velocity":55,"Duration":232006,"SoundDuration":232006,"Delta":343787465},{"NoteNumber":76,"Velocity":55,"Duration":232006,"SoundDuration":232006,"Delta":343787465},{"NoteNumber":44,"Velocity":37,"Duration":1298989,"SoundDuration":1298989,"Delta":343787465},{"NoteNumber":52,"Velocity":37,"Duration":1298989,"SoundDuration":1298989,"Delta":343787465},{"NoteNumber":59,"Velocity":43,"Duration":1298989,"SoundDuration":1298989,"Delta":343787465},{"NoteNumber":87,"Velocity":51,"Duration":232006,"SoundDuration":232006,"Delta":344096807},{"NoteNumber":75,"Velocity":51,"Duration":232006,"SoundDuration":232006,"Delta":344096807},{"NoteNumber":74,"Velocity":46,"Duration":680305,"SoundDuration":680305,"Delta":344406149},{"NoteNumber":86,"Velocity":50,"Duration":228588,"SoundDuration":228588,"Delta":344406149},{"NoteNumber":86,"Velocity":42,"Duration":150572,"SoundDuration":150572,"Delta":344634738},{"NoteNumber":88,"Velocity":45,"Duration":150572,"SoundDuration":150572,"Delta":344785310},{"NoteNumber":86,"Velocity":42,"Duration":150572,"SoundDuration":150572,"Delta":344935882},{"NoteNumber":85,"Velocity":46,"Duration":149436,"SoundDuration":149436,"Delta":345086455},{"NoteNumber":86,"Velocity":42,"Duration":146659,"SoundDuration":146659,"Delta":345235891},{"NoteNumber":97,"Velocity":49,"Duration":143983,"SoundDuration":143983,"Delta":345382550},{"NoteNumber":95,"Velocity":44,"Duration":141402,"SoundDuration":141402,"Delta":345526533},{"NoteNumber":92,"Velocity":44,"Duration":138955,"SoundDuration":138955,"Delta":345667936},{"NoteNumber":86,"Velocity":44,"Duration":136550,"SoundDuration":136550,"Delta":345806891},{"NoteNumber":87,"Velocity":45,"Duration":134226,"SoundDuration":134226,"Delta":345943441},{"NoteNumber":88,"Velocity":46,"Duration":131980,"SoundDuration":131980,"Delta":346077668},{"NoteNumber":89,"Velocity":48,"Duration":128889,"SoundDuration":128889,"Delta":346209649},{"NoteNumber":92,"Velocity":52,"Duration":127529,"SoundDuration":127529,"Delta":346338539},{"NoteNumber":90,"Velocity":45,"Duration":126036,"SoundDuration":126036,"Delta":346466068},{"NoteNumber":86,"Velocity":45,"Duration":125397,"SoundDuration":125397,"Delta":346592105},{"NoteNumber":80,"Velocity":45,"Duration":123747,"SoundDuration":123747,"Delta":346717502},{"NoteNumber":81,"Velocity":44,"Duration":123102,"SoundDuration":123102,"Delta":346841250},{"NoteNumber":82,"Velocity":46,"Duration":121339,"SoundDuration":121339,"Delta":346964352},{"NoteNumber":85,"Velocity":49,"Duration":119057,"SoundDuration":119057,"Delta":347085691},{"NoteNumber":83,"Velocity":45,"Duration":114588,"SoundDuration":114588,"Delta":347204749},{"NoteNumber":80,"Velocity":45,"Duration":110644,"SoundDuration":110644,"Delta":347319338},{"NoteNumber":74,"Velocity":44,"Duration":106960,"SoundDuration":106960,"Delta":347429982},{"NoteNumber":75,"Velocity":42,"Duration":103325,"SoundDuration":103325,"Delta":347536943},{"NoteNumber":76,"Velocity":45,"Duration":100152,"SoundDuration":100152,"Delta":347640269},{"NoteNumber":77,"Velocity":48,"Duration":97041,"SoundDuration":97041,"Delta":347740421},{"NoteNumber":80,"Velocity":50,"Duration":94629,"SoundDuration":94629,"Delta":347837463},{"NoteNumber":78,"Velocity":42,"Duration":91926,"SoundDuration":91926,"Delta":347932093},{"NoteNumber":74,"Velocity":42,"Duration":89406,"SoundDuration":89406,"Delta":348024019},{"NoteNumber":68,"Velocity":42,"Duration":86919,"SoundDuration":86919,"Delta":348113426},{"NoteNumber":69,"Velocity":45,"Duration":84567,"SoundDuration":84567,"Delta":348200345},{"NoteNumber":70,"Velocity":39,"Duration":83310,"SoundDuration":83310,"Delta":348284912},{"NoteNumber":73,"Velocity":44,"Duration":83003,"SoundDuration":83003,"Delta":348368223},{"NoteNumber":71,"Velocity":39,"Duration":82140,"SoundDuration":82140,"Delta":348451227},{"NoteNumber":74,"Velocity":46,"Duration":81309,"SoundDuration":81309,"Delta":348533367},{"NoteNumber":78,"Velocity":42,"Duration":80480,"SoundDuration":80480,"Delta":348614676},{"NoteNumber":75,"Velocity":47,"Duration":79667,"SoundDuration":79667,"Delta":348695156},{"NoteNumber":76,"Velocity":45,"Duration":78871,"SoundDuration":78871,"Delta":348774824},{"NoteNumber":80,"Velocity":48,"Duration":78091,"SoundDuration":78091,"Delta":348853695},{"NoteNumber":85,"Velocity":44,"Duration":77167,"SoundDuration":77167,"Delta":348931787},{"NoteNumber":82,"Velocity":48,"Duration":76420,"SoundDuration":76420,"Delta":349008954},{"NoteNumber":83,"Velocity":44,"Duration":75687,"SoundDuration":75687,"Delta":349085375},{"NoteNumber":86,"Velocity":48,"Duration":74968,"SoundDuration":74968,"Delta":349161063},{"NoteNumber":90,"Velocity":45,"Duration":74263,"SoundDuration":74263,"Delta":349236031},{"NoteNumber":87,"Velocity":48,"Duration":73571,"SoundDuration":73571,"Delta":349310295},{"NoteNumber":88,"Velocity":45,"Duration":72903,"SoundDuration":72903,"Delta":349383866},{"NoteNumber":92,"Velocity":48,"Duration":72235,"SoundDuration":72235,"Delta":349456769},{"NoteNumber":97,"Velocity":45,"Duration":71434,"SoundDuration":71434,"Delta":349529005},{"NoteNumber":94,"Velocity":45,"Duration":68927,"SoundDuration":68927,"Delta":349600439},{"NoteNumber":95,"Velocity":43,"Duration":68927,"SoundDuration":68927,"Delta":349669367},{"NoteNumber":98,"Velocity":43,"Duration":68927,"SoundDuration":68927,"Delta":349738294},{"NoteNumber":101,"Velocity":43,"Duration":78279,"SoundDuration":78279,"Delta":349807222},{"NoteNumber":94,"Velocity":45,"Duration":68927,"SoundDuration":68927,"Delta":349885502},{"NoteNumber":95,"Velocity":43,"Duration":68927,"SoundDuration":68927,"Delta":349954429},{"NoteNumber":98,"Velocity":45,"Duration":68927,"SoundDuration":68927,"Delta":350023357},{"NoteNumber":100,"Velocity":45,"Duration":79105,"SoundDuration":79105,"Delta":350092284},{"NoteNumber":94,"Velocity":49,"Duration":72247,"SoundDuration":72247,"Delta":350171390},{"NoteNumber":95,"Velocity":46,"Duration":72247,"SoundDuration":72247,"Delta":350243637},{"NoteNumber":98,"Velocity":46,"Duration":72247,"SoundDuration":72247,"Delta":350315884},{"NoteNumber":101,"Velocity":47,"Duration":81690,"SoundDuration":81690,"Delta":350388132},{"NoteNumber":94,"Velocity":53,"Duration":72950,"SoundDuration":72950,"Delta":350469822},{"NoteNumber":95,"Velocity":50,"Duration":72950,"SoundDuration":72950,"Delta":350542772},{"NoteNumber":98,"Velocity":51,"Duration":72950,"SoundDuration":72950,"Delta":350615723},{"NoteNumber":100,"Velocity":52,"Duration":81690,"SoundDuration":81690,"Delta":350688673},{"NoteNumber":94,"Velocity":55,"Duration":74397,"SoundDuration":74397,"Delta":350770363},{"NoteNumber":95,"Velocity":54,"Duration":73666,"SoundDuration":73666,"Delta":350844761},{"NoteNumber":98,"Velocity":54,"Duration":73666,"SoundDuration":73666,"Delta":350918427},{"NoteNumber":101,"Velocity":54,"Duration":80810,"SoundDuration":80810,"Delta":350992094},{"NoteNumber":94,"Velocity":59,"Duration":73666,"SoundDuration":73666,"Delta":351072904},{"NoteNumber":95,"Velocity":55,"Duration":73666,"SoundDuration":73666,"Delta":351146571},{"NoteNumber":98,"Velocity":55,"Duration":73666,"SoundDuration":73666,"Delta":351220237},{"NoteNumber":100,"Velocity":55,"Duration":73666,"SoundDuration":73666,"Delta":351293904},{"NoteNumber":94,"Velocity":62,"Duration":67683,"SoundDuration":67683,"Delta":351367571},{"NoteNumber":95,"Velocity":57,"Duration":67683,"SoundDuration":67683,"Delta":351435254},{"NoteNumber":98,"Velocity":49,"Duration":70881,"SoundDuration":70881,"Delta":351502937},{"NoteNumber":101,"Velocity":49,"Duration":68299,"SoundDuration":68299,"Delta":351573819},{"NoteNumber":99,"Velocity":54,"Duration":67683,"SoundDuration":67683,"Delta":351642119},{"NoteNumber":100,"Velocity":49,"Duration":71557,"SoundDuration":71557,"Delta":351709802},{"NoteNumber":98,"Velocity":54,"Duration":67683,"SoundDuration":67683,"Delta":351781360},{"NoteNumber":99,"Velocity":49,"Duration":67683,"SoundDuration":67683,"Delta":351849044},{"NoteNumber":97,"Velocity":54,"Duration":72950,"SoundDuration":72950,"Delta":351916727},{"NoteNumber":98,"Velocity":49,"Duration":72247,"SoundDuration":72247,"Delta":351989677},{"NoteNumber":96,"Velocity":54,"Duration":67683,"SoundDuration":67683,"Delta":352061924},{"NoteNumber":97,"Velocity":49,"Duration":67078,"SoundDuration":67078,"Delta":352129608},{"NoteNumber":95,"Velocity":54,"Duration":68927,"SoundDuration":68927,"Delta":352196686},{"NoteNumber":96,"Velocity":49,"Duration":70881,"SoundDuration":70881,"Delta":352265613},{"NoteNumber":94,"Velocity":54,"Duration":68927,"SoundDuration":68927,"Delta":352336495},{"NoteNumber":95,"Velocity":49,"Duration":67683,"SoundDuration":67683,"Delta":352405423},{"NoteNumber":93,"Velocity":54,"Duration":70881,"SoundDuration":70881,"Delta":352473106},{"NoteNumber":94,"Velocity":45,"Duration":70881,"SoundDuration":70881,"Delta":352543988},{"NoteNumber":92,"Velocity":50,"Duration":67683,"SoundDuration":67683,"Delta":352614870},{"NoteNumber":93,"Velocity":46,"Duration":65325,"SoundDuration":65325,"Delta":352682553},{"NoteNumber":91,"Velocity":50,"Duration":67078,"SoundDuration":67078,"Delta":352747878},{"NoteNumber":92,"Velocity":46,"Duration":70218,"SoundDuration":70218,"Delta":352814956},{"NoteNumber":90,"Velocity":50,"Duration":71557,"SoundDuration":71557,"Delta":352885175},{"NoteNumber":91,"Velocity":46,"Duration":67078,"SoundDuration":67078,"Delta":352956733},{"NoteNumber":89,"Velocity":50,"Duration":67078,"SoundDuration":67078,"Delta":353023811},{"NoteNumber":90,"Velocity":46,"Duration":70881,"SoundDuration":70881,"Delta":353090889},{"NoteNumber":88,"Velocity":50,"Duration":72247,"SoundDuration":72247,"Delta":353161771},{"NoteNumber":89,"Velocity":45,"Duration":78944,"SoundDuration":78944,"Delta":353234018},{"NoteNumber":87,"Velocity":51,"Duration":71557,"SoundDuration":71557,"Delta":353312962},{"NoteNumber":88,"Velocity":44,"Duration":71558,"SoundDuration":71558,"Delta":353384520},{"NoteNumber":86,"Velocity":45,"Duration":71557,"SoundDuration":71557,"Delta":353456078},{"NoteNumber":87,"Velocity":43,"Duration":71557,"SoundDuration":71557,"Delta":353527636},{"NoteNumber":85,"Velocity":47,"Duration":71558,"SoundDuration":71558,"Delta":353599194},{"NoteNumber":86,"Velocity":43,"Duration":71557,"SoundDuration":71557,"Delta":353670752},{"NoteNumber":84,"Velocity":48,"Duration":71557,"SoundDuration":71557,"Delta":353742310},{"NoteNumber":85,"Velocity":43,"Duration":71558,"SoundDuration":71558,"Delta":353813868},{"NoteNumber":83,"Velocity":48,"Duration":71787,"SoundDuration":71787,"Delta":353885426},{"NoteNumber":84,"Velocity":43,"Duration":72247,"SoundDuration":72247,"Delta":353957214},{"NoteNumber":82,"Velocity":49,"Duration":72856,"SoundDuration":72856,"Delta":354029462},{"NoteNumber":83,"Velocity":42,"Duration":73224,"SoundDuration":73224,"Delta":354102318},{"NoteNumber":81,"Velocity":49,"Duration":73666,"SoundDuration":73666,"Delta":354175543},{"NoteNumber":82,"Velocity":45,"Duration":74336,"SoundDuration":74336,"Delta":354249209},{"NoteNumber":80,"Velocity":49,"Duration":74720,"SoundDuration":74720,"Delta":354323546},{"NoteNumber":81,"Velocity":44,"Duration":75282,"SoundDuration":75282,"Delta":354398266},{"NoteNumber":79,"Velocity":50,"Duration":75903,"SoundDuration":75903,"Delta":354473548},{"NoteNumber":80,"Velocity":43,"Duration":76446,"SoundDuration":76446,"Delta":354549452},{"NoteNumber":78,"Velocity":49,"Duration":76864,"SoundDuration":76864,"Delta":354625898},{"NoteNumber":79,"Velocity":44,"Duration":77471,"SoundDuration":77471,"Delta":354702762},{"NoteNumber":77,"Velocity":48,"Duration":78077,"SoundDuration":78077,"Delta":354780234},{"NoteNumber":78,"Velocity":42,"Duration":78513,"SoundDuration":78513,"Delta":354858311},{"NoteNumber":76,"Velocity":49,"Duration":79105,"SoundDuration":79105,"Delta":354936825},{"NoteNumber":77,"Velocity":44,"Duration":79794,"SoundDuration":79794,"Delta":355015931},{"NoteNumber":75,"Velocity":49,"Duration":80422,"SoundDuration":80422,"Delta":355095725},{"NoteNumber":76,"Velocity":44,"Duration":80868,"SoundDuration":80868,"Delta":355176148},{"NoteNumber":74,"Velocity":49,"Duration":81690,"SoundDuration":81690,"Delta":355257017},{"NoteNumber":76,"Velocity":43,"Duration":82230,"SoundDuration":82230,"Delta":355338707},{"NoteNumber":73,"Velocity":48,"Duration":82712,"SoundDuration":82712,"Delta":355420937},{"NoteNumber":76,"Velocity":45,"Duration":83509,"SoundDuration":83509,"Delta":355503650},{"NoteNumber":74,"Velocity":45,"Duration":84120,"SoundDuration":84120,"Delta":355587160},{"NoteNumber":76,"Velocity":42,"Duration":86221,"SoundDuration":86221,"Delta":355671280},{"NoteNumber":70,"Velocity":39,"Duration":82452,"SoundDuration":82452,"Delta":355757502},{"NoteNumber":76,"Velocity":36,"Duration":81690,"SoundDuration":81690,"Delta":355839954},{"NoteNumber":71,"Velocity":43,"Duration":82589,"SoundDuration":82589,"Delta":355921644},{"NoteNumber":76,"Velocity":41,"Duration":82712,"SoundDuration":82712,"Delta":356004234},{"NoteNumber":73,"Velocity":46,"Duration":83509,"SoundDuration":83509,"Delta":356086947},{"NoteNumber":76,"Velocity":42,"Duration":84011,"SoundDuration":84011,"Delta":356170457},{"NoteNumber":74,"Velocity":49,"Duration":84450,"SoundDuration":84450,"Delta":356254468},{"NoteNumber":76,"Velocity":42,"Duration":85091,"SoundDuration":85091,"Delta":356338918},{"NoteNumber":70,"Velocity":39,"Duration":85477,"SoundDuration":85477,"Delta":356424009},{"NoteNumber":76,"Velocity":37,"Duration":86395,"SoundDuration":86395,"Delta":356509486},{"NoteNumber":71,"Velocity":44,"Duration":86596,"SoundDuration":86596,"Delta":356595882},{"NoteNumber":76,"Velocity":41,"Duration":87402,"SoundDuration":87402,"Delta":356682479},{"NoteNumber":73,"Velocity":48,"Duration":87471,"SoundDuration":87471,"Delta":356769881},{"NoteNumber":76,"Velocity":45,"Duration":88714,"SoundDuration":88714,"Delta":356857352},{"NoteNumber":74,"Velocity":48,"Duration":101072,"SoundDuration":101072,"Delta":356946067},{"NoteNumber":76,"Velocity":43,"Duration":106627,"SoundDuration":106627,"Delta":357047139},{"NoteNumber":70,"Velocity":40,"Duration":111287,"SoundDuration":111287,"Delta":357153766},{"NoteNumber":76,"Velocity":38,"Duration":116590,"SoundDuration":116590,"Delta":357265054},{"NoteNumber":71,"Velocity":43,"Duration":122349,"SoundDuration":122349,"Delta":357381645},{"NoteNumber":76,"Velocity":39,"Duration":128565,"SoundDuration":128565,"Delta":357503994},{"NoteNumber":72,"Velocity":45,"Duration":135747,"SoundDuration":135747,"Delta":357632559},{"NoteNumber":76,"Velocity":43,"Duration":143509,"SoundDuration":143509,"Delta":357768306},{"NoteNumber":73,"Velocity":47,"Duration":151040,"SoundDuration":151040,"Delta":357911816},{"NoteNumber":76,"Velocity":45,"Duration":159749,"SoundDuration":159749,"Delta":358062856},{"NoteNumber":74,"Velocity":50,"Duration":166563,"SoundDuration":166563,"Delta":358222606},{"NoteNumber":76,"Velocity":45,"Duration":173318,"SoundDuration":173318,"Delta":358389170},{"NoteNumber":70,"Velocity":46,"Duration":180129,"SoundDuration":180129,"Delta":358562488},{"NoteNumber":76,"Velocity":39,"Duration":188049,"SoundDuration":188049,"Delta":358742618},{"NoteNumber":71,"Velocity":45,"Duration":424015,"SoundDuration":424015,"Delta":358930667},{"NoteNumber":76,"Velocity":43,"Duration":420178,"SoundDuration":420178,"Delta":359354683},{"NoteNumber":64,"Velocity":37,"Duration":412844,"SoundDuration":412844,"Delta":359774861},{"NoteNumber":72,"Velocity":45,"Duration":412844,"SoundDuration":412844,"Delta":359774861},{"NoteNumber":56,"Velocity":35,"Duration":412844,"SoundDuration":412844,"Delta":359774861},{"NoteNumber":73,"Velocity":50,"Duration":577136,"SoundDuration":577136,"Delta":360187706},{"NoteNumber":64,"Velocity":42,"Duration":283019,"SoundDuration":283019,"Delta":360187706},{"NoteNumber":57,"Velocity":42,"Duration":577136,"SoundDuration":577136,"Delta":360187706},{"NoteNumber":45,"Velocity":35,"Duration":3365228,"SoundDuration":3365228,"Delta":360187706},{"NoteNumber":52,"Velocity":35,"Duration":1954613,"SoundDuration":1954613,"Delta":360187706},{"NoteNumber":61,"Velocity":39,"Duration":294117,"SoundDuration":294117,"Delta":360470725},{"NoteNumber":71,"Velocity":45,"Duration":280373,"SoundDuration":280373,"Delta":360764842},{"NoteNumber":64,"Velocity":37,"Duration":280373,"SoundDuration":280373,"Delta":360764842},{"NoteNumber":56,"Velocity":37,"Duration":280373,"SoundDuration":280373,"Delta":360764842},{"NoteNumber":73,"Velocity":48,"Duration":548230,"SoundDuration":548230,"Delta":361045216},{"NoteNumber":64,"Velocity":40,"Duration":267856,"SoundDuration":267856,"Delta":361045216},{"NoteNumber":57,"Velocity":44,"Duration":548230,"SoundDuration":548230,"Delta":361045216},{"NoteNumber":61,"Velocity":37,"Duration":280373,"SoundDuration":280373,"Delta":361313073},{"NoteNumber":74,"Velocity":45,"Duration":285714,"SoundDuration":285714,"Delta":361593447},{"NoteNumber":64,"Velocity":37,"Duration":285714,"SoundDuration":285714,"Delta":361593447},{"NoteNumber":59,"Velocity":40,"Duration":285714,"SoundDuration":285714,"Delta":361593447},{"NoteNumber":71,"Velocity":48,"Duration":263157,"SoundDuration":263157,"Delta":361879162},{"NoteNumber":64,"Velocity":40,"Duration":263157,"SoundDuration":263157,"Delta":361879162},{"NoteNumber":56,"Velocity":44,"Duration":263157,"SoundDuration":263157,"Delta":361879162},{"NoteNumber":76,"Velocity":51,"Duration":1116496,"SoundDuration":1116496,"Delta":362142320},{"NoteNumber":64,"Velocity":43,"Duration":1116496,"SoundDuration":1116496,"Delta":362142320},{"NoteNumber":56,"Velocity":36,"Duration":275229,"SoundDuration":275229,"Delta":362142320},{"NoteNumber":52,"Velocity":30,"Duration":1410614,"SoundDuration":1410614,"Delta":362142320},{"NoteNumber":57,"Velocity":39,"Duration":275229,"SoundDuration":275229,"Delta":362417549},{"NoteNumber":54,"Velocity":33,"Duration":275229,"SoundDuration":275229,"Delta":362417549},{"NoteNumber":59,"Velocity":43,"Duration":283019,"SoundDuration":283019,"Delta":362692779},{"NoteNumber":56,"Velocity":36,"Duration":283019,"SoundDuration":283019,"Delta":362692779},{"NoteNumber":61,"Velocity":45,"Duration":283018,"SoundDuration":283018,"Delta":362975798},{"NoteNumber":57,"Velocity":38,"Duration":283018,"SoundDuration":283018,"Delta":362975798},{"NoteNumber":71,"Velocity":45,"Duration":294117,"SoundDuration":294117,"Delta":363258817},{"NoteNumber":64,"Velocity":37,"Duration":294117,"SoundDuration":294117,"Delta":363258817},{"NoteNumber":62,"Velocity":48,"Duration":294117,"SoundDuration":294117,"Delta":363258817},{"NoteNumber":56,"Velocity":40,"Duration":294117,"SoundDuration":294117,"Delta":363258817},{"NoteNumber":73,"Velocity":50,"Duration":543086,"SoundDuration":543086,"Delta":363552934},{"NoteNumber":64,"Velocity":42,"Duration":267856,"SoundDuration":267856,"Delta":363552934},{"NoteNumber":57,"Velocity":42,"Duration":543086,"SoundDuration":543086,"Delta":363552934},{"NoteNumber":45,"Velocity":35,"Duration":3356418,"SoundDuration":3356418,"Delta":363552934},{"NoteNumber":52,"Velocity":35,"Duration":1939534,"SoundDuration":1939534,"Delta":363552934},{"NoteNumber":61,"Velocity":39,"Duration":275229,"SoundDuration":275229,"Delta":363820791},{"NoteNumber":71,"Velocity":45,"Duration":283019,"SoundDuration":283019,"Delta":364096021},{"NoteNumber":64,"Velocity":37,"Duration":283019,"SoundDuration":283019,"Delta":364096021},{"NoteNumber":56,"Velocity":37,"Duration":283019,"SoundDuration":283019,"Delta":364096021},{"NoteNumber":73,"Velocity":48,"Duration":558441,"SoundDuration":558441,"Delta":364379040},{"NoteNumber":64,"Velocity":40,"Duration":272727,"SoundDuration":272727,"Delta":364379040},{"NoteNumber":57,"Velocity":44,"Duration":558441,"SoundDuration":558441,"Delta":364379040},{"NoteNumber":61,"Velocity":37,"Duration":285714,"SoundDuration":285714,"Delta":364651767},{"NoteNumber":74,"Velocity":45,"Duration":294117,"SoundDuration":294117,"Delta":364937482},{"NoteNumber":64,"Velocity":37,"Duration":294117,"SoundDuration":294117,"Delta":364937482},{"NoteNumber":59,"Velocity":40,"Duration":294117,"SoundDuration":294117,"Delta":364937482},{"NoteNumber":71,"Velocity":48,"Duration":260869,"SoundDuration":260869,"Delta":365231599},{"NoteNumber":64,"Velocity":40,"Duration":260869,"SoundDuration":260869,"Delta":365231599},{"NoteNumber":56,"Velocity":44,"Duration":260869,"SoundDuration":260869,"Delta":365231599},{"NoteNumber":76,"Velocity":51,"Duration":1116884,"SoundDuration":1116884,"Delta":365492469},{"NoteNumber":64,"Velocity":43,"Duration":1116884,"SoundDuration":1116884,"Delta":365492469},{"NoteNumber":56,"Velocity":36,"Duration":272727,"SoundDuration":272727,"Delta":365492469},{"NoteNumber":52,"Velocity":30,"Duration":1416884,"SoundDuration":1416884,"Delta":365492469},{"NoteNumber":57,"Velocity":39,"Duration":272727,"SoundDuration":272727,"Delta":365765196},{"NoteNumber":54,"Velocity":33,"Duration":272727,"SoundDuration":272727,"Delta":365765196},{"NoteNumber":59,"Velocity":43,"Duration":285714,"SoundDuration":285714,"Delta":366037924},{"NoteNumber":56,"Velocity":36,"Duration":285714,"SoundDuration":285714,"Delta":366037924},{"NoteNumber":61,"Velocity":45,"Duration":285714,"SoundDuration":285714,"Delta":366323638},{"NoteNumber":57,"Velocity":38,"Duration":285714,"SoundDuration":285714,"Delta":366323638},{"NoteNumber":71,"Velocity":44,"Duration":300000,"SoundDuration":300000,"Delta":366609353},{"NoteNumber":64,"Velocity":44,"Duration":300000,"SoundDuration":300000,"Delta":366609353},{"NoteNumber":62,"Velocity":48,"Duration":300000,"SoundDuration":300000,"Delta":366609353},{"NoteNumber":56,"Velocity":40,"Duration":300000,"SoundDuration":300000,"Delta":366609353},{"NoteNumber":73,"Velocity":54,"Duration":263157,"SoundDuration":263157,"Delta":366909353},{"NoteNumber":64,"Velocity":45,"Duration":263157,"SoundDuration":263157,"Delta":366909353},{"NoteNumber":69,"Velocity":45,"Duration":263157,"SoundDuration":263157,"Delta":366909353},{"NoteNumber":61,"Velocity":43,"Duration":788859,"SoundDuration":788859,"Delta":366909353},{"NoteNumber":57,"Velocity":36,"Duration":788859,"SoundDuration":788859,"Delta":366909353},{"NoteNumber":76,"Velocity":48,"Duration":280373,"SoundDuration":280373,"Delta":367172511},{"NoteNumber":73,"Velocity":40,"Duration":280373,"SoundDuration":280373,"Delta":367172511},{"NoteNumber":73,"Velocity":48,"Duration":280373,"SoundDuration":280373,"Delta":367452885},{"NoteNumber":69,"Velocity":40,"Duration":280373,"SoundDuration":280373,"Delta":367452885},{"NoteNumber":50,"Velocity":34,"Duration":866571,"SoundDuration":866571,"Delta":367698212},{"NoteNumber":62,"Velocity":34,"Duration":283009,"SoundDuration":283009,"Delta":367715735},{"NoteNumber":74,"Velocity":52,"Duration":265486,"SoundDuration":265486,"Delta":367733259},{"NoteNumber":71,"Velocity":44,"Duration":265486,"SoundDuration":265486,"Delta":367733259},{"NoteNumber":66,"Velocity":40,"Duration":265486,"SoundDuration":265486,"Delta":367733259},{"NoteNumber":78,"Velocity":47,"Duration":283019,"SoundDuration":283019,"Delta":367998745},{"NoteNumber":74,"Velocity":40,"Duration":283019,"SoundDuration":283019,"Delta":367998745},{"NoteNumber":62,"Velocity":37,"Duration":283019,"SoundDuration":283019,"Delta":367998745},{"NoteNumber":59,"Velocity":31,"Duration":283019,"SoundDuration":283019,"Delta":367998745},{"NoteNumber":74,"Velocity":47,"Duration":283018,"SoundDuration":283018,"Delta":368281764},{"NoteNumber":71,"Velocity":40,"Duration":283018,"SoundDuration":283018,"Delta":368281764},{"NoteNumber":66,"Velocity":37,"Duration":283018,"SoundDuration":283018,"Delta":368281764},{"NoteNumber":62,"Velocity":31,"Duration":283018,"SoundDuration":283018,"Delta":368281764},{"NoteNumber":73,"Velocity":53,"Duration":809981,"SoundDuration":809981,"Delta":368564783},{"NoteNumber":69,"Velocity":45,"Duration":809981,"SoundDuration":809981,"Delta":368564783},{"NoteNumber":64,"Velocity":42,"Duration":256410,"SoundDuration":256410,"Delta":368564783},{"NoteNumber":52,"Velocity":42,"Duration":809981,"SoundDuration":809981,"Delta":368564783},{"NoteNumber":61,"Velocity":35,"Duration":256410,"SoundDuration":256410,"Delta":368564783},{"NoteNumber":61,"Velocity":39,"Duration":267856,"SoundDuration":267856,"Delta":368821194},{"NoteNumber":57,"Velocity":33,"Duration":267856,"SoundDuration":267856,"Delta":368821194},{"NoteNumber":64,"Velocity":39,"Duration":285714,"SoundDuration":285714,"Delta":369089051},{"NoteNumber":61,"Velocity":33,"Duration":285714,"SoundDuration":285714,"Delta":369089051},{"NoteNumber":71,"Velocity":46,"Duration":260869,"SoundDuration":260869,"Delta":369374765},{"NoteNumber":62,"Velocity":39,"Duration":260869,"SoundDuration":260869,"Delta":369374765},{"NoteNumber":64,"Velocity":39,"Duration":260869,"SoundDuration":260869,"Delta":369374765},{"NoteNumber":68,"Velocity":39,"Duration":260869,"SoundDuration":260869,"Delta":369374765},{"NoteNumber":40,"Velocity":37,"Duration":260869,"SoundDuration":260869,"Delta":369374765},{"NoteNumber":74,"Velocity":46,"Duration":285714,"SoundDuration":285714,"Delta":369635635},{"NoteNumber":71,"Velocity":38,"Duration":285714,"SoundDuration":285714,"Delta":369635635},{"NoteNumber":59,"Velocity":40,"Duration":285714,"SoundDuration":285714,"Delta":369635635},{"NoteNumber":52,"Velocity":34,"Duration":285714,"SoundDuration":285714,"Delta":369635635},{"NoteNumber":71,"Velocity":43,"Duration":285714,"SoundDuration":285714,"Delta":369921349},{"NoteNumber":68,"Velocity":36,"Duration":285714,"SoundDuration":285714,"Delta":369921349},{"NoteNumber":62,"Velocity":37,"Duration":285714,"SoundDuration":285714,"Delta":369921349},{"NoteNumber":59,"Velocity":31,"Duration":285714,"SoundDuration":285714,"Delta":369921349},{"NoteNumber":69,"Velocity":42,"Duration":149999,"SoundDuration":149999,"Delta":370207064},{"NoteNumber":61,"Velocity":35,"Duration":149999,"SoundDuration":149999,"Delta":370207064},{"NoteNumber":57,"Velocity":43,"Duration":149999,"SoundDuration":149999,"Delta":370207064},{"NoteNumber":45,"Velocity":36,"Duration":149999,"SoundDuration":149999,"Delta":370207064},{"NoteNumber":52,"Velocity":36,"Duration":149999,"SoundDuration":149999,"Delta":370207064},{"NoteNumber":81,"Velocity":50,"Duration":510681,"SoundDuration":510681,"Delta":370507064},{"NoteNumber":73,"Velocity":42,"Duration":255340,"SoundDuration":255340,"Delta":370507064},{"NoteNumber":64,"Velocity":43,"Duration":255340,"SoundDuration":255340,"Delta":370507064},{"NoteNumber":75,"Velocity":47,"Duration":255340,"SoundDuration":255340,"Delta":370762405},{"NoteNumber":66,"Velocity":45,"Duration":255340,"SoundDuration":255340,"Delta":370762405},{"NoteNumber":80,"Velocity":48,"Duration":259763,"SoundDuration":259763,"Delta":371017746},{"NoteNumber":76,"Velocity":39,"Duration":259763,"SoundDuration":259763,"Delta":371017746},{"NoteNumber":68,"Velocity":47,"Duration":259763,"SoundDuration":259763,"Delta":371017746},{"NoteNumber":76,"Velocity":48,"Duration":266690,"SoundDuration":266690,"Delta":371277509},{"NoteNumber":71,"Velocity":40,"Duration":266690,"SoundDuration":266690,"Delta":371277509},{"NoteNumber":67,"Velocity":49,"Duration":266690,"SoundDuration":266690,"Delta":371277509},{"NoteNumber":79,"Velocity":50,"Duration":266690,"SoundDuration":266690,"Delta":371544199},{"NoteNumber":73,"Velocity":42,"Duration":266690,"SoundDuration":266690,"Delta":371544199},{"NoteNumber":64,"Velocity":51,"Duration":266690,"SoundDuration":266690,"Delta":371544199},{"NoteNumber":78,"Velocity":52,"Duration":258620,"SoundDuration":258620,"Delta":371810890},{"NoteNumber":74,"Velocity":44,"Duration":258620,"SoundDuration":258620,"Delta":371810890},{"NoteNumber":62,"Velocity":53,"Duration":258620,"SoundDuration":258620,"Delta":371810890},{"NoteNumber":74,"Velocity":52,"Duration":272727,"SoundDuration":272727,"Delta":372069510},{"NoteNumber":70,"Velocity":44,"Duration":272727,"SoundDuration":272727,"Delta":372069510},{"NoteNumber":65,"Velocity":53,"Duration":272727,"SoundDuration":272727,"Delta":372069510},{"NoteNumber":77,"Velocity":53,"Duration":272727,"SoundDuration":272727,"Delta":372342238},{"NoteNumber":69,"Velocity":44,"Duration":272727,"SoundDuration":272727,"Delta":372342238},{"NoteNumber":60,"Velocity":54,"Duration":272727,"SoundDuration":272727,"Delta":372342238},{"NoteNumber":76,"Velocity":55,"Duration":288461,"SoundDuration":288461,"Delta":372614965},{"NoteNumber":68,"Velocity":46,"Duration":288461,"SoundDuration":288461,"Delta":372614965},{"NoteNumber":59,"Velocity":50,"Duration":288461,"SoundDuration":288461,"Delta":372614965},{"NoteNumber":71,"Velocity":48,"Duration":303030,"SoundDuration":303030,"Delta":372903427},{"NoteNumber":64,"Velocity":40,"Duration":303030,"SoundDuration":303030,"Delta":372903427},{"NoteNumber":56,"Velocity":46,"Duration":303030,"SoundDuration":303030,"Delta":372903427},{"NoteNumber":68,"Velocity":37,"Duration":235247,"SoundDuration":235247,"Delta":373168578},{"NoteNumber":83,"Velocity":45,"Duration":236842,"SoundDuration":236842,"Delta":373206457},{"NoteNumber":56,"Velocity":37,"Duration":236842,"SoundDuration":236842,"Delta":373206457},{"NoteNumber":62,"Velocity":41,"Duration":236842,"SoundDuration":236842,"Delta":373206457},{"NoteNumber":45,"Velocity":35,"Duration":1649968,"SoundDuration":1649968,"Delta":373443299},{"NoteNumber":52,"Velocity":35,"Duration":317831,"SoundDuration":317831,"Delta":373463036},{"NoteNumber":61,"Velocity":42,"Duration":331576,"SoundDuration":331576,"Delta":373482773},{"NoteNumber":69,"Velocity":42,"Duration":546214,"SoundDuration":546214,"Delta":373502510},{"NoteNumber":85,"Velocity":50,"Duration":526477,"SoundDuration":526477,"Delta":373522247},{"NoteNumber":52,"Velocity":37,"Duration":814033,"SoundDuration":814033,"Delta":373780867},{"NoteNumber":68,"Velocity":37,"Duration":316501,"SoundDuration":316501,"Delta":374015242},{"NoteNumber":83,"Velocity":45,"Duration":283019,"SoundDuration":283019,"Delta":374048724},{"NoteNumber":56,"Velocity":32,"Duration":283019,"SoundDuration":283019,"Delta":374048724},{"NoteNumber":59,"Velocity":37,"Duration":283019,"SoundDuration":283019,"Delta":374048724},{"NoteNumber":69,"Velocity":40,"Duration":576313,"SoundDuration":576313,"Delta":374296366},{"NoteNumber":85,"Velocity":48,"Duration":540935,"SoundDuration":540935,"Delta":374331743},{"NoteNumber":57,"Velocity":36,"Duration":540935,"SoundDuration":540935,"Delta":374331743},{"NoteNumber":61,"Velocity":44,"Duration":540935,"SoundDuration":540935,"Delta":374331743},{"NoteNumber":52,"Velocity":40,"Duration":571895,"SoundDuration":571895,"Delta":374594901},{"NoteNumber":68,"Velocity":37,"Duration":218545,"SoundDuration":218545,"Delta":374837957},{"NoteNumber":86,"Velocity":45,"Duration":220588,"SoundDuration":220588,"Delta":374872679},{"NoteNumber":59,"Velocity":36,"Duration":220588,"SoundDuration":220588,"Delta":374872679},{"NoteNumber":62,"Velocity":40,"Duration":220588,"SoundDuration":220588,"Delta":374872679},{"NoteNumber":45,"Velocity":35,"Duration":1646800,"SoundDuration":1646800,"Delta":375093267},{"NoteNumber":52,"Velocity":35,"Duration":313767,"SoundDuration":313767,"Delta":375111650},{"NoteNumber":59,"Velocity":44,"Duration":295385,"SoundDuration":295385,"Delta":375130032},{"NoteNumber":68,"Velocity":40,"Duration":277002,"SoundDuration":277002,"Delta":375148414},{"NoteNumber":83,"Velocity":48,"Duration":258620,"SoundDuration":258620,"Delta":375166797},{"NoteNumber":88,"Velocity":51,"Duration":1091878,"SoundDuration":1091878,"Delta":375425417},{"NoteNumber":76,"Velocity":43,"Duration":1091878,"SoundDuration":1091878,"Delta":375425417},{"NoteNumber":64,"Velocity":45,"Duration":1091878,"SoundDuration":1091878,"Delta":375425417},{"NoteNumber":56,"Velocity":36,"Duration":277778,"SoundDuration":277778,"Delta":375425417},{"NoteNumber":52,"Velocity":30,"Duration":1091878,"SoundDuration":1091878,"Delta":375425417},{"NoteNumber":57,"Velocity":39,"Duration":277778,"SoundDuration":277778,"Delta":375703195},{"NoteNumber":54,"Velocity":33,"Duration":277778,"SoundDuration":277778,"Delta":375703195},{"NoteNumber":59,"Velocity":43,"Duration":263157,"SoundDuration":263157,"Delta":375980973},{"NoteNumber":56,"Velocity":36,"Duration":263157,"SoundDuration":263157,"Delta":375980973},{"NoteNumber":61,"Velocity":45,"Duration":273164,"SoundDuration":273164,"Delta":376244131},{"NoteNumber":57,"Velocity":38,"Duration":273164,"SoundDuration":273164,"Delta":376244131},{"NoteNumber":68,"Velocity":37,"Duration":265673,"SoundDuration":265673,"Delta":376474394},{"NoteNumber":76,"Velocity":37,"Duration":244222,"SoundDuration":244222,"Delta":376495845},{"NoteNumber":83,"Velocity":45,"Duration":222772,"SoundDuration":222772,"Delta":376517296},{"NoteNumber":52,"Velocity":37,"Duration":222772,"SoundDuration":222772,"Delta":376517296},{"NoteNumber":62,"Velocity":41,"Duration":222772,"SoundDuration":222772,"Delta":376517296},{"NoteNumber":59,"Velocity":37,"Duration":222772,"SoundDuration":222772,"Delta":376517296},{"NoteNumber":45,"Velocity":35,"Duration":1652149,"SoundDuration":1652149,"Delta":376740068},{"NoteNumber":52,"Velocity":35,"Duration":312103,"SoundDuration":312103,"Delta":376758632},{"NoteNumber":61,"Velocity":42,"Duration":327323,"SoundDuration":327323,"Delta":376777197},{"NoteNumber":69,"Velocity":42,"Duration":551433,"SoundDuration":551433,"Delta":376789573},{"NoteNumber":76,"Velocity":42,"Duration":563567,"SoundDuration":563567,"Delta":376801949},{"NoteNumber":85,"Velocity":50,"Duration":526680,"SoundDuration":526680,"Delta":376814325},{"NoteNumber":52,"Velocity":37,"Duration":825257,"SoundDuration":825257,"Delta":377070736},{"NoteNumber":68,"Velocity":37,"Duration":327901,"SoundDuration":327901,"Delta":377307222},{"NoteNumber":76,"Velocity":37,"Duration":311009,"SoundDuration":311009,"Delta":377324114},{"NoteNumber":83,"Velocity":45,"Duration":294117,"SoundDuration":294117,"Delta":377341006},{"NoteNumber":56,"Velocity":32,"Duration":294117,"SoundDuration":294117,"Delta":377341006},{"NoteNumber":59,"Velocity":37,"Duration":294117,"SoundDuration":294117,"Delta":377341006},{"NoteNumber":69,"Velocity":40,"Duration":575412,"SoundDuration":575412,"Delta":377598359},{"NoteNumber":76,"Velocity":40,"Duration":557029,"SoundDuration":557029,"Delta":377616741},{"NoteNumber":85,"Velocity":48,"Duration":538647,"SoundDuration":538647,"Delta":377635124},{"NoteNumber":57,"Velocity":36,"Duration":538647,"SoundDuration":538647,"Delta":377635124},{"NoteNumber":61,"Velocity":44,"Duration":538647,"SoundDuration":538647,"Delta":377635124},{"NoteNumber":52,"Velocity":40,"Duration":569040,"SoundDuration":569040,"Delta":377895993},{"NoteNumber":68,"Velocity":37,"Duration":253168,"SoundDuration":253168,"Delta":378139049},{"NoteNumber":76,"Velocity":37,"Duration":235807,"SoundDuration":235807,"Delta":378156410},{"NoteNumber":86,"Velocity":45,"Duration":218446,"SoundDuration":218446,"Delta":378173771},{"NoteNumber":59,"Velocity":36,"Duration":218446,"SoundDuration":218446,"Delta":378173771},{"NoteNumber":62,"Velocity":40,"Duration":218446,"SoundDuration":218446,"Delta":378173771},{"NoteNumber":45,"Velocity":35,"Duration":1745950,"SoundDuration":1745950,"Delta":378392218},{"NoteNumber":52,"Velocity":35,"Duration":315481,"SoundDuration":315481,"Delta":378410422},{"NoteNumber":59,"Velocity":44,"Duration":297277,"SoundDuration":297277,"Delta":378428625},{"NoteNumber":68,"Velocity":40,"Duration":285141,"SoundDuration":285141,"Delta":378440761},{"NoteNumber":76,"Velocity":40,"Duration":273005,"SoundDuration":273005,"Delta":378452897},{"NoteNumber":83,"Velocity":48,"Duration":260869,"SoundDuration":260869,"Delta":378465033},{"NoteNumber":88,"Velocity":51,"Duration":1149765,"SoundDuration":1149765,"Delta":378725903},{"NoteNumber":76,"Velocity":43,"Duration":1149765,"SoundDuration":1149765,"Delta":378725903},{"NoteNumber":56,"Velocity":36,"Duration":280373,"SoundDuration":280373,"Delta":378725903},{"NoteNumber":64,"Velocity":45,"Duration":1149765,"SoundDuration":1149765,"Delta":378725903},{"NoteNumber":52,"Velocity":30,"Duration":1149765,"SoundDuration":1149765,"Delta":378725903},{"NoteNumber":54,"Velocity":33,"Duration":280373,"SoundDuration":280373,"Delta":379006277},{"NoteNumber":57,"Velocity":39,"Duration":280373,"SoundDuration":280373,"Delta":379006277},{"NoteNumber":56,"Velocity":36,"Duration":291262,"SoundDuration":291262,"Delta":379286651},{"NoteNumber":59,"Velocity":43,"Duration":291262,"SoundDuration":291262,"Delta":379286651},{"NoteNumber":57,"Velocity":38,"Duration":297755,"SoundDuration":297755,"Delta":379577913},{"NoteNumber":61,"Velocity":45,"Duration":297755,"SoundDuration":297755,"Delta":379577913},{"NoteNumber":68,"Velocity":37,"Duration":267901,"SoundDuration":267901,"Delta":379832767},{"NoteNumber":76,"Velocity":37,"Duration":246450,"SoundDuration":246450,"Delta":379854218},{"NoteNumber":83,"Velocity":45,"Duration":262499,"SoundDuration":262499,"Delta":379875668},{"NoteNumber":52,"Velocity":37,"Duration":262499,"SoundDuration":262499,"Delta":379875668},{"NoteNumber":59,"Velocity":37,"Duration":262499,"SoundDuration":262499,"Delta":379875668},{"NoteNumber":62,"Velocity":41,"Duration":262499,"SoundDuration":262499,"Delta":379875668},{"NoteNumber":69,"Velocity":42,"Duration":862612,"SoundDuration":862612,"Delta":380138168},{"NoteNumber":76,"Velocity":42,"Duration":837794,"SoundDuration":837794,"Delta":380156918},{"NoteNumber":85,"Velocity":50,"Duration":825112,"SoundDuration":825112,"Delta":380175668},{"NoteNumber":61,"Velocity":42,"Duration":258620,"SoundDuration":258620,"Delta":380175668},{"NoteNumber":45,"Velocity":42,"Duration":825112,"SoundDuration":825112,"Delta":380175668},{"NoteNumber":61,"Velocity":32,"Duration":275229,"SoundDuration":275229,"Delta":380434289},{"NoteNumber":64,"Velocity":37,"Duration":275229,"SoundDuration":275229,"Delta":380434289},{"NoteNumber":57,"Velocity":32,"Duration":218446,"SoundDuration":218446,"Delta":380709518},{"NoteNumber":61,"Velocity":37,"Duration":218446,"SoundDuration":218446,"Delta":380709518},{"NoteNumber":50,"Velocity":42,"Duration":926097,"SoundDuration":926097,"Delta":380927965},{"NoteNumber":62,"Velocity":36,"Duration":317769,"SoundDuration":317769,"Delta":380946169},{"NoteNumber":66,"Velocity":44,"Duration":299565,"SoundDuration":299565,"Delta":380964372},{"NoteNumber":71,"Velocity":40,"Duration":281361,"SoundDuration":281361,"Delta":380982576},{"NoteNumber":86,"Velocity":48,"Duration":263157,"SoundDuration":263157,"Delta":381000780},{"NoteNumber":74,"Velocity":45,"Duration":296821,"SoundDuration":296821,"Delta":381247491},{"NoteNumber":90,"Velocity":48,"Duration":280373,"SoundDuration":280373,"Delta":381263938},{"NoteNumber":59,"Velocity":32,"Duration":280373,"SoundDuration":280373,"Delta":381263938},{"NoteNumber":62,"Velocity":37,"Duration":280373,"SoundDuration":280373,"Delta":381263938},{"NoteNumber":71,"Velocity":37,"Duration":299292,"SoundDuration":299292,"Delta":381509265},{"NoteNumber":86,"Velocity":45,"Duration":264246,"SoundDuration":264246,"Delta":381544312},{"NoteNumber":62,"Velocity":36,"Duration":264246,"SoundDuration":264246,"Delta":381544312},{"NoteNumber":66,"Velocity":40,"Duration":264246,"SoundDuration":264246,"Delta":381544312},{"NoteNumber":69,"Velocity":42,"Duration":857696,"SoundDuration":857696,"Delta":381808558},{"NoteNumber":85,"Velocity":50,"Duration":812191,"SoundDuration":812191,"Delta":381854063},{"NoteNumber":61,"Velocity":35,"Duration":258620,"SoundDuration":258620,"Delta":381854063},{"NoteNumber":64,"Velocity":42,"Duration":258620,"SoundDuration":258620,"Delta":381854063},{"NoteNumber":52,"Velocity":42,"Duration":812191,"SoundDuration":812191,"Delta":381854063},{"NoteNumber":57,"Velocity":32,"Duration":267856,"SoundDuration":267856,"Delta":382112683},{"NoteNumber":61,"Velocity":37,"Duration":267856,"SoundDuration":267856,"Delta":382112683},{"NoteNumber":61,"Velocity":32,"Duration":214285,"SoundDuration":214285,"Delta":382380540},{"NoteNumber":64,"Velocity":37,"Duration":214285,"SoundDuration":214285,"Delta":382380540},{"NoteNumber":40,"Velocity":42,"Duration":71428,"SoundDuration":71428,"Delta":382594826},{"NoteNumber":68,"Velocity":40,"Duration":296583,"SoundDuration":296583,"Delta":382630540},{"NoteNumber":76,"Velocity":40,"Duration":278726,"SoundDuration":278726,"Delta":382648397},{"NoteNumber":83,"Velocity":48,"Duration":260869,"SoundDuration":260869,"Delta":382666255},{"NoteNumber":59,"Velocity":36,"Duration":260869,"SoundDuration":260869,"Delta":382666255},{"NoteNumber":62,"Velocity":44,"Duration":260869,"SoundDuration":260869,"Delta":382666255},{"NoteNumber":71,"Velocity":45,"Duration":294082,"SoundDuration":294082,"Delta":382910820},{"NoteNumber":86,"Velocity":48,"Duration":277778,"SoundDuration":277778,"Delta":382927124},{"NoteNumber":52,"Velocity":32,"Duration":277778,"SoundDuration":277778,"Delta":382927124},{"NoteNumber":59,"Velocity":37,"Duration":277778,"SoundDuration":277778,"Delta":382927124},{"NoteNumber":68,"Velocity":37,"Duration":227162,"SoundDuration":227162,"Delta":383170180},{"NoteNumber":83,"Velocity":45,"Duration":231099,"SoundDuration":231099,"Delta":383204902},{"NoteNumber":59,"Velocity":36,"Duration":231099,"SoundDuration":231099,"Delta":383204902},{"NoteNumber":62,"Velocity":40,"Duration":231099,"SoundDuration":231099,"Delta":383204902},{"NoteNumber":45,"Velocity":32,"Duration":235837,"SoundDuration":235837,"Delta":383436002},{"NoteNumber":52,"Velocity":35,"Duration":222950,"SoundDuration":222950,"Delta":383448889},{"NoteNumber":57,"Velocity":37,"Duration":185792,"SoundDuration":185792,"Delta":383461775},{"NoteNumber":61,"Velocity":40,"Duration":197177,"SoundDuration":197177,"Delta":383474662},{"NoteNumber":64,"Velocity":39,"Duration":184290,"SoundDuration":184290,"Delta":383487548},{"NoteNumber":69,"Velocity":42,"Duration":171404,"SoundDuration":171404,"Delta":383500435},{"NoteNumber":73,"Velocity":45,"Duration":158517,"SoundDuration":158517,"Delta":383513322},{"NoteNumber":81,"Velocity":47,"Duration":145630,"SoundDuration":145630,"Delta":383526208},{"NoteNumber":76,"Velocity":43,"Duration":43478,"SoundDuration":43478,"Delta":384264111},{"NoteNumber":85,"Velocity":51,"Duration":43478,"SoundDuration":43478,"Delta":384264111},{"NoteNumber":78,"Velocity":40,"Duration":21739,"SoundDuration":21739,"Delta":384307589},{"NoteNumber":86,"Velocity":47,"Duration":21739,"SoundDuration":21739,"Delta":384307589},{"NoteNumber":85,"Velocity":49,"Duration":65217,"SoundDuration":65217,"Delta":384351067},{"NoteNumber":76,"Velocity":41,"Duration":65217,"SoundDuration":65217,"Delta":384351067},{"NoteNumber":69,"Velocity":44,"Duration":65217,"SoundDuration":65217,"Delta":384351067},{"NoteNumber":57,"Velocity":36,"Duration":65217,"SoundDuration":65217,"Delta":384351067},{"NoteNumber":67,"Velocity":36,"Duration":65217,"SoundDuration":65217,"Delta":384351067},{"NoteNumber":83,"Velocity":49,"Duration":30487,"SoundDuration":30487,"Delta":384733888},{"NoteNumber":71,"Velocity":41,"Duration":30487,"SoundDuration":30487,"Delta":384733888},{"NoteNumber":85,"Velocity":46,"Duration":72115,"SoundDuration":72115,"Delta":384855839},{"NoteNumber":76,"Velocity":39,"Duration":72115,"SoundDuration":72115,"Delta":384855839},{"NoteNumber":69,"Velocity":37,"Duration":72115,"SoundDuration":72115,"Delta":384855839},{"NoteNumber":57,"Velocity":31,"Duration":72115,"SoundDuration":72115,"Delta":384855839},{"NoteNumber":67,"Velocity":31,"Duration":72115,"SoundDuration":72115,"Delta":384855839},{"NoteNumber":86,"Velocity":51,"Duration":65217,"SoundDuration":65217,"Delta":385144301},{"NoteNumber":78,"Velocity":43,"Duration":65217,"SoundDuration":65217,"Delta":385144301},{"NoteNumber":62,"Velocity":40,"Duration":65217,"SoundDuration":65217,"Delta":385144301},{"NoteNumber":66,"Velocity":40,"Duration":65217,"SoundDuration":65217,"Delta":385144301},{"NoteNumber":69,"Velocity":40,"Duration":65217,"SoundDuration":65217,"Delta":385144301},{"NoteNumber":88,"Velocity":45,"Duration":30991,"SoundDuration":30991,"Delta":385529137},{"NoteNumber":79,"Velocity":38,"Duration":30991,"SoundDuration":30991,"Delta":385529137},{"NoteNumber":86,"Velocity":48,"Duration":53066,"SoundDuration":53066,"Delta":385653104},{"NoteNumber":78,"Velocity":40,"Duration":53066,"SoundDuration":53066,"Delta":385653104},{"NoteNumber":69,"Velocity":41,"Duration":53066,"SoundDuration":53066,"Delta":385653104},{"NoteNumber":62,"Velocity":35,"Duration":53066,"SoundDuration":53066,"Delta":385653104},{"NoteNumber":66,"Velocity":35,"Duration":53066,"SoundDuration":53066,"Delta":385653104},{"NoteNumber":76,"Velocity":43,"Duration":47169,"SoundDuration":47169,"Delta":385841783},{"NoteNumber":85,"Velocity":51,"Duration":47169,"SoundDuration":47169,"Delta":385841783},{"NoteNumber":78,"Velocity":40,"Duration":23584,"SoundDuration":23584,"Delta":385888953},{"NoteNumber":86,"Velocity":47,"Duration":23584,"SoundDuration":23584,"Delta":385888953},{"NoteNumber":85,"Velocity":49,"Duration":66371,"SoundDuration":66371,"Delta":385936123},{"NoteNumber":76,"Velocity":41,"Duration":66371,"SoundDuration":66371,"Delta":385936123},{"NoteNumber":69,"Velocity":44,"Duration":66371,"SoundDuration":66371,"Delta":385936123},{"NoteNumber":57,"Velocity":36,"Duration":66371,"SoundDuration":66371,"Delta":385936123},{"NoteNumber":67,"Velocity":36,"Duration":66371,"SoundDuration":66371,"Delta":385936123},{"NoteNumber":83,"Velocity":49,"Duration":30991,"SoundDuration":30991,"Delta":386325577},{"NoteNumber":74,"Velocity":41,"Duration":30991,"SoundDuration":30991,"Delta":386325577},{"NoteNumber":85,"Velocity":46,"Duration":71428,"SoundDuration":71428,"Delta":386449544},{"NoteNumber":76,"Velocity":39,"Duration":71428,"SoundDuration":71428,"Delta":386449544},{"NoteNumber":69,"Velocity":37,"Duration":71428,"SoundDuration":71428,"Delta":386449544},{"NoteNumber":57,"Velocity":31,"Duration":71428,"SoundDuration":71428,"Delta":386449544},{"NoteNumber":67,"Velocity":31,"Duration":71428,"SoundDuration":71428,"Delta":386449544},{"NoteNumber":86,"Velocity":51,"Duration":129310,"SoundDuration":129310,"Delta":386735258},{"NoteNumber":78,"Velocity":43,"Duration":129310,"SoundDuration":129310,"Delta":386735258},{"NoteNumber":62,"Velocity":40,"Duration":129310,"SoundDuration":129310,"Delta":386735258},{"NoteNumber":66,"Velocity":40,"Duration":129310,"SoundDuration":129310,"Delta":386735258},{"NoteNumber":69,"Velocity":40,"Duration":129310,"SoundDuration":129310,"Delta":386735258},{"NoteNumber":98,"Velocity":50,"Duration":47626,"SoundDuration":47626,"Delta":387252499},{"NoteNumber":97,"Velocity":50,"Duration":48281,"SoundDuration":48281,"Delta":387300126},{"NoteNumber":95,"Velocity":49,"Duration":49038,"SoundDuration":49038,"Delta":387348407},{"NoteNumber":93,"Velocity":48,"Duration":49793,"SoundDuration":49793,"Delta":387397446},{"NoteNumber":92,"Velocity":48,"Duration":35842,"SoundDuration":35842,"Delta":387447239},{"NoteNumber":90,"Velocity":47,"Duration":36364,"SoundDuration":36364,"Delta":387483082},{"NoteNumber":88,"Velocity":47,"Duration":36900,"SoundDuration":36900,"Delta":387519446},{"NoteNumber":86,"Velocity":46,"Duration":37453,"SoundDuration":37453,"Delta":387556347},{"NoteNumber":85,"Velocity":46,"Duration":38023,"SoundDuration":38023,"Delta":387593800},{"NoteNumber":83,"Velocity":45,"Duration":38610,"SoundDuration":38610,"Delta":387631824},{"NoteNumber":81,"Velocity":45,"Duration":796459,"SoundDuration":796459,"Delta":387670434},{"NoteNumber":73,"Velocity":43,"Duration":65217,"SoundDuration":65217,"Delta":388466894},{"NoteNumber":81,"Velocity":51,"Duration":65217,"SoundDuration":65217,"Delta":388466894},{"NoteNumber":52,"Velocity":40,"Duration":65217,"SoundDuration":65217,"Delta":388466894},{"NoteNumber":61,"Velocity":40,"Duration":65217,"SoundDuration":65217,"Delta":388466894},{"NoteNumber":64,"Velocity":40,"Duration":65217,"SoundDuration":65217,"Delta":388466894},{"NoteNumber":74,"Velocity":38,"Duration":32051,"SoundDuration":32051,"Delta":388853739},{"NoteNumber":83,"Velocity":45,"Duration":32051,"SoundDuration":32051,"Delta":388853739},{"NoteNumber":73,"Velocity":40,"Duration":61141,"SoundDuration":61141,"Delta":388981944},{"NoteNumber":81,"Velocity":48,"Duration":61141,"SoundDuration":61141,"Delta":388981944},{"NoteNumber":64,"Velocity":41,"Duration":61141,"SoundDuration":61141,"Delta":388981944},{"NoteNumber":52,"Velocity":35,"Duration":61141,"SoundDuration":61141,"Delta":388981944},{"NoteNumber":61,"Velocity":35,"Duration":61141,"SoundDuration":61141,"Delta":388981944},{"NoteNumber":80,"Velocity":51,"Duration":43103,"SoundDuration":43103,"Delta":389188091},{"NoteNumber":71,"Velocity":43,"Duration":43103,"SoundDuration":43103,"Delta":389188091},{"NoteNumber":81,"Velocity":47,"Duration":43103,"SoundDuration":43103,"Delta":389231195},{"NoteNumber":73,"Velocity":40,"Duration":43103,"SoundDuration":43103,"Delta":389231195},{"NoteNumber":71,"Velocity":41,"Duration":64655,"SoundDuration":64655,"Delta":389274298},{"NoteNumber":80,"Velocity":49,"Duration":64655,"SoundDuration":64655,"Delta":389274298},{"NoteNumber":64,"Velocity":44,"Duration":64655,"SoundDuration":64655,"Delta":389274298},{"NoteNumber":52,"Velocity":36,"Duration":64655,"SoundDuration":64655,"Delta":389274298},{"NoteNumber":62,"Velocity":36,"Duration":64655,"SoundDuration":64655,"Delta":389274298},{"NoteNumber":69,"Velocity":41,"Duration":30991,"SoundDuration":30991,"Delta":389656886},{"NoteNumber":78,"Velocity":49,"Duration":30991,"SoundDuration":30991,"Delta":389656886},{"NoteNumber":80,"Velocity":46,"Duration":70093,"SoundDuration":70093,"Delta":389780853},{"NoteNumber":71,"Velocity":39,"Duration":70093,"SoundDuration":70093,"Delta":389780853},{"NoteNumber":64,"Velocity":37,"Duration":70093,"SoundDuration":70093,"Delta":389780853},{"NoteNumber":52,"Velocity":31,"Duration":70093,"SoundDuration":70093,"Delta":389780853},{"NoteNumber":62,"Velocity":31,"Duration":70093,"SoundDuration":70093,"Delta":389780853},{"NoteNumber":81,"Velocity":51,"Duration":69444,"SoundDuration":69444,"Delta":390061227},{"NoteNumber":73,"Velocity":43,"Duration":69444,"SoundDuration":69444,"Delta":390061227},{"NoteNumber":57,"Velocity":40,"Duration":69444,"SoundDuration":69444,"Delta":390061227},{"NoteNumber":61,"Velocity":40,"Duration":69444,"SoundDuration":69444,"Delta":390061227},{"NoteNumber":64,"Velocity":40,"Duration":69444,"SoundDuration":69444,"Delta":390061227},{"NoteNumber":86,"Velocity":48,"Duration":46446,"SoundDuration":46446,"Delta":390599805},{"NoteNumber":90,"Velocity":48,"Duration":46446,"SoundDuration":46446,"Delta":390599805},{"NoteNumber":85,"Velocity":48,"Duration":47029,"SoundDuration":47029,"Delta":390646252},{"NoteNumber":83,"Velocity":47,"Duration":47626,"SoundDuration":47626,"Delta":390693281},{"NoteNumber":81,"Velocity":46,"Duration":48239,"SoundDuration":48239,"Delta":390740908},{"NoteNumber":80,"Velocity":45,"Duration":35587,"SoundDuration":35587,"Delta":390789147},{"NoteNumber":78,"Velocity":45,"Duration":36101,"SoundDuration":36101,"Delta":390824735},{"NoteNumber":76,"Velocity":44,"Duration":36496,"SoundDuration":36496,"Delta":390860836},{"NoteNumber":74,"Velocity":44,"Duration":46728,"SoundDuration":46728,"Delta":390897333},{"NoteNumber":73,"Velocity":51,"Duration":50095,"SoundDuration":50095,"Delta":390944062},{"NoteNumber":64,"Velocity":43,"Duration":50095,"SoundDuration":50095,"Delta":390944062},{"NoteNumber":74,"Velocity":47,"Duration":50095,"SoundDuration":50095,"Delta":390994157},{"NoteNumber":66,"Velocity":40,"Duration":50095,"SoundDuration":50095,"Delta":390994157},{"NoteNumber":64,"Velocity":41,"Duration":65789,"SoundDuration":65789,"Delta":391044252},{"NoteNumber":73,"Velocity":49,"Duration":65789,"SoundDuration":65789,"Delta":391044252},{"NoteNumber":57,"Velocity":44,"Duration":65789,"SoundDuration":65789,"Delta":391044252},{"NoteNumber":45,"Velocity":36,"Duration":65789,"SoundDuration":65789,"Delta":391044252},{"NoteNumber":55,"Velocity":36,"Duration":65789,"SoundDuration":65789,"Delta":391044252},{"NoteNumber":62,"Velocity":41,"Duration":31250,"SoundDuration":31250,"Delta":391432410},{"NoteNumber":71,"Velocity":49,"Duration":31250,"SoundDuration":31250,"Delta":391432410},{"NoteNumber":64,"Velocity":39,"Duration":70093,"SoundDuration":70093,"Delta":391557410},{"NoteNumber":73,"Velocity":46,"Duration":70093,"SoundDuration":70093,"Delta":391557410},{"NoteNumber":57,"Velocity":37,"Duration":70093,"SoundDuration":70093,"Delta":391557410},{"NoteNumber":45,"Velocity":31,"Duration":70093,"SoundDuration":70093,"Delta":391557410},{"NoteNumber":55,"Velocity":31,"Duration":70093,"SoundDuration":70093,"Delta":391557410},{"NoteNumber":66,"Velocity":43,"Duration":69444,"SoundDuration":69444,"Delta":391837784},{"NoteNumber":74,"Velocity":51,"Duration":69444,"SoundDuration":69444,"Delta":391837784},{"NoteNumber":50,"Velocity":40,"Duration":69444,"SoundDuration":69444,"Delta":391837784},{"NoteNumber":54,"Velocity":40,"Duration":69444,"SoundDuration":69444,"Delta":391837784},{"NoteNumber":57,"Velocity":40,"Duration":69444,"SoundDuration":69444,"Delta":391837784},{"NoteNumber":67,"Velocity":38,"Duration":31250,"SoundDuration":31250,"Delta":392237061},{"NoteNumber":76,"Velocity":45,"Duration":31250,"SoundDuration":31250,"Delta":392237061},{"NoteNumber":66,"Velocity":40,"Duration":61141,"SoundDuration":61141,"Delta":392362061},{"NoteNumber":74,"Velocity":48,"Duration":61141,"SoundDuration":61141,"Delta":392362061},{"NoteNumber":57,"Velocity":41,"Duration":61141,"SoundDuration":61141,"Delta":392362061},{"NoteNumber":50,"Velocity":35,"Duration":61141,"SoundDuration":61141,"Delta":392362061},{"NoteNumber":54,"Velocity":35,"Duration":61141,"SoundDuration":61141,"Delta":392362061},{"NoteNumber":73,"Velocity":51,"Duration":44642,"SoundDuration":44642,"Delta":392569747},{"NoteNumber":64,"Velocity":43,"Duration":44642,"SoundDuration":44642,"Delta":392569747},{"NoteNumber":74,"Velocity":47,"Duration":44642,"SoundDuration":44642,"Delta":392614390},{"NoteNumber":66,"Velocity":40,"Duration":44642,"SoundDuration":44642,"Delta":392614390},{"NoteNumber":64,"Velocity":41,"Duration":66964,"SoundDuration":66964,"Delta":392659033},{"NoteNumber":73,"Velocity":49,"Duration":66964,"SoundDuration":66964,"Delta":392659033},{"NoteNumber":57,"Velocity":44,"Duration":66964,"SoundDuration":66964,"Delta":392659033},{"NoteNumber":45,"Velocity":36,"Duration":66964,"SoundDuration":66964,"Delta":392659033},{"NoteNumber":55,"Velocity":36,"Duration":66964,"SoundDuration":66964,"Delta":392659033},{"NoteNumber":71,"Velocity":49,"Duration":31250,"SoundDuration":31250,"Delta":393051890},{"NoteNumber":62,"Velocity":41,"Duration":31250,"SoundDuration":31250,"Delta":393051890},{"NoteNumber":73,"Velocity":46,"Duration":70754,"SoundDuration":70754,"Delta":393176890},{"NoteNumber":64,"Velocity":39,"Duration":70754,"SoundDuration":70754,"Delta":393176890},{"NoteNumber":57,"Velocity":37,"Duration":70754,"SoundDuration":70754,"Delta":393176890},{"NoteNumber":45,"Velocity":31,"Duration":70754,"SoundDuration":70754,"Delta":393176890},{"NoteNumber":55,"Velocity":31,"Duration":70754,"SoundDuration":70754,"Delta":393176890},{"NoteNumber":74,"Velocity":51,"Duration":78279,"SoundDuration":78279,"Delta":393459909},{"NoteNumber":66,"Velocity":43,"Duration":78279,"SoundDuration":78279,"Delta":393459909},{"NoteNumber":50,"Velocity":40,"Duration":78279,"SoundDuration":78279,"Delta":393459909},{"NoteNumber":54,"Velocity":40,"Duration":78279,"SoundDuration":78279,"Delta":393459909},{"NoteNumber":57,"Velocity":40,"Duration":78279,"SoundDuration":78279,"Delta":393459909},{"NoteNumber":93,"Velocity":50,"Duration":38060,"SoundDuration":38060,"Delta":394014371},{"NoteNumber":90,"Velocity":50,"Duration":38060,"SoundDuration":38060,"Delta":394014371},{"NoteNumber":86,"Velocity":50,"Duration":38447,"SoundDuration":38447,"Delta":394052432},{"NoteNumber":85,"Velocity":49,"Duration":38920,"SoundDuration":38920,"Delta":394090880},{"NoteNumber":83,"Velocity":48,"Duration":39399,"SoundDuration":39399,"Delta":394129800},{"NoteNumber":81,"Velocity":48,"Duration":39963,"SoundDuration":39963,"Delta":394169199},{"NoteNumber":80,"Velocity":47,"Duration":33991,"SoundDuration":33991,"Delta":394209162},{"NoteNumber":78,"Velocity":46,"Duration":34585,"SoundDuration":34585,"Delta":394243154},{"NoteNumber":76,"Velocity":46,"Duration":35230,"SoundDuration":35230,"Delta":394277739},{"NoteNumber":74,"Velocity":45,"Duration":35856,"SoundDuration":35856,"Delta":394312970},{"NoteNumber":73,"Velocity":45,"Duration":36530,"SoundDuration":36530,"Delta":394348826},{"NoteNumber":71,"Velocity":45,"Duration":37252,"SoundDuration":37252,"Delta":394385357},{"NoteNumber":69,"Velocity":47,"Duration":782608,"SoundDuration":782608,"Delta":394422609},{"NoteNumber":61,"Velocity":43,"Duration":70754,"SoundDuration":70754,"Delta":395205218},{"NoteNumber":69,"Velocity":51,"Duration":70754,"SoundDuration":70754,"Delta":395205218},{"NoteNumber":40,"Velocity":40,"Duration":70754,"SoundDuration":70754,"Delta":395205218},{"NoteNumber":49,"Velocity":40,"Duration":70754,"SoundDuration":70754,"Delta":395205218},{"NoteNumber":52,"Velocity":40,"Duration":70754,"SoundDuration":70754,"Delta":395205218},{"NoteNumber":62,"Velocity":38,"Duration":31512,"SoundDuration":31512,"Delta":395608000},{"NoteNumber":71,"Velocity":45,"Duration":31512,"SoundDuration":31512,"Delta":395608000},{"NoteNumber":61,"Velocity":40,"Duration":62500,"SoundDuration":62500,"Delta":395734050},{"NoteNumber":69,"Velocity":48,"Duration":62500,"SoundDuration":62500,"Delta":395734050},{"NoteNumber":52,"Velocity":41,"Duration":62500,"SoundDuration":62500,"Delta":395734050},{"NoteNumber":40,"Velocity":35,"Duration":62500,"SoundDuration":62500,"Delta":395734050},{"NoteNumber":49,"Velocity":35,"Duration":62500,"SoundDuration":62500,"Delta":395734050},{"NoteNumber":68,"Velocity":51,"Duration":45045,"SoundDuration":45045,"Delta":395945762},{"NoteNumber":59,"Velocity":43,"Duration":45045,"SoundDuration":45045,"Delta":395945762},{"NoteNumber":69,"Velocity":47,"Duration":45045,"SoundDuration":45045,"Delta":395990807},{"NoteNumber":61,"Velocity":40,"Duration":45045,"SoundDuration":45045,"Delta":395990807},{"NoteNumber":59,"Velocity":41,"Duration":67567,"SoundDuration":67567,"Delta":396035852},{"NoteNumber":68,"Velocity":49,"Duration":67567,"SoundDuration":67567,"Delta":396035852},{"NoteNumber":52,"Velocity":44,"Duration":67567,"SoundDuration":67567,"Delta":396035852},{"NoteNumber":40,"Velocity":36,"Duration":67567,"SoundDuration":67567,"Delta":396035852},{"NoteNumber":50,"Velocity":36,"Duration":67567,"SoundDuration":67567,"Delta":396035852},{"NoteNumber":57,"Velocity":41,"Duration":31512,"SoundDuration":31512,"Delta":396432173},{"NoteNumber":66,"Velocity":49,"Duration":31512,"SoundDuration":31512,"Delta":396432173},{"NoteNumber":68,"Velocity":46,"Duration":70754,"SoundDuration":70754,"Delta":396558224},{"NoteNumber":59,"Velocity":39,"Duration":70754,"SoundDuration":70754,"Delta":396558224},{"NoteNumber":52,"Velocity":37,"Duration":70754,"SoundDuration":70754,"Delta":396558224},{"NoteNumber":40,"Velocity":31,"Duration":70754,"SoundDuration":70754,"Delta":396558224},{"NoteNumber":50,"Velocity":31,"Duration":70754,"SoundDuration":70754,"Delta":396558224},{"NoteNumber":69,"Velocity":51,"Duration":69444,"SoundDuration":69444,"Delta":396841243},{"NoteNumber":61,"Velocity":43,"Duration":69444,"SoundDuration":69444,"Delta":396841243},{"NoteNumber":45,"Velocity":40,"Duration":69444,"SoundDuration":69444,"Delta":396841243},{"NoteNumber":49,"Velocity":40,"Duration":69444,"SoundDuration":69444,"Delta":396841243},{"NoteNumber":52,"Velocity":40,"Duration":69444,"SoundDuration":69444,"Delta":396841243},{"NoteNumber":93,"Velocity":51,"Duration":46374,"SoundDuration":46374,"Delta":397431469},{"NoteNumber":97,"Velocity":51,"Duration":46374,"SoundDuration":46374,"Delta":397431469},{"NoteNumber":92,"Velocity":51,"Duration":46745,"SoundDuration":46745,"Delta":397477843},{"NoteNumber":90,"Velocity":50,"Duration":47117,"SoundDuration":47117,"Delta":397524589},{"NoteNumber":88,"Velocity":50,"Duration":47561,"SoundDuration":47561,"Delta":397571707},{"NoteNumber":86,"Velocity":50,"Duration":47976,"SoundDuration":47976,"Delta":397619268},{"NoteNumber":85,"Velocity":49,"Duration":48373,"SoundDuration":48373,"Delta":397667245},{"NoteNumber":83,"Velocity":49,"Duration":48825,"SoundDuration":48825,"Delta":397715619},{"NoteNumber":81,"Velocity":48,"Duration":49466,"SoundDuration":49466,"Delta":397764445},{"NoteNumber":80,"Velocity":48,"Duration":45008,"SoundDuration":45008,"Delta":397813911},{"NoteNumber":78,"Velocity":47,"Duration":45839,"SoundDuration":45839,"Delta":397858919},{"NoteNumber":76,"Velocity":47,"Duration":46747,"SoundDuration":46747,"Delta":397904759},{"NoteNumber":74,"Velocity":47,"Duration":47660,"SoundDuration":47660,"Delta":397951506},{"NoteNumber":73,"Velocity":46,"Duration":48282,"SoundDuration":48282,"Delta":397999166},{"NoteNumber":71,"Velocity":46,"Duration":50900,"SoundDuration":50900,"Delta":398047449},{"NoteNumber":69,"Velocity":46,"Duration":51611,"SoundDuration":51611,"Delta":398098349},{"NoteNumber":68,"Velocity":45,"Duration":52577,"SoundDuration":52577,"Delta":398149961},{"NoteNumber":66,"Velocity":45,"Duration":53081,"SoundDuration":53081,"Delta":398202538},{"NoteNumber":64,"Velocity":43,"Duration":72815,"SoundDuration":72815,"Delta":398255620},{"NoteNumber":76,"Velocity":55,"Duration":72815,"SoundDuration":72815,"Delta":398255620},{"NoteNumber":73,"Velocity":47,"Duration":72815,"SoundDuration":72815,"Delta":398255620},{"NoteNumber":69,"Velocity":46,"Duration":78279,"SoundDuration":78279,"Delta":398546882},{"NoteNumber":73,"Velocity":55,"Duration":78279,"SoundDuration":78279,"Delta":398546882},{"NoteNumber":61,"Velocity":46,"Duration":78279,"SoundDuration":78279,"Delta":398546882},{"NoteNumber":40,"Velocity":44,"Duration":78279,"SoundDuration":78279,"Delta":398546882},{"NoteNumber":49,"Velocity":44,"Duration":78279,"SoundDuration":78279,"Delta":398546882},{"NoteNumber":52,"Velocity":44,"Duration":78279,"SoundDuration":78279,"Delta":398546882},{"NoteNumber":71,"Velocity":42,"Duration":32327,"SoundDuration":32327,"Delta":398966484},{"NoteNumber":74,"Velocity":50,"Duration":32327,"SoundDuration":32327,"Delta":398966484},{"NoteNumber":62,"Velocity":42,"Duration":32327,"SoundDuration":32327,"Delta":398966484},{"NoteNumber":69,"Velocity":44,"Duration":78125,"SoundDuration":78125,"Delta":399095794},{"NoteNumber":61,"Velocity":44,"Duration":78125,"SoundDuration":78125,"Delta":399095794},{"NoteNumber":73,"Velocity":53,"Duration":78125,"SoundDuration":78125,"Delta":399095794},{"NoteNumber":52,"Velocity":45,"Duration":58593,"SoundDuration":58593,"Delta":399095794},{"NoteNumber":40,"Velocity":37,"Duration":58593,"SoundDuration":58593,"Delta":399095794},{"NoteNumber":49,"Velocity":37,"Duration":58593,"SoundDuration":58593,"Delta":399095794},{"NoteNumber":68,"Velocity":45,"Duration":66964,"SoundDuration":66964,"Delta":399385973},{"NoteNumber":59,"Velocity":45,"Duration":66964,"SoundDuration":66964,"Delta":399385973},{"NoteNumber":71,"Velocity":54,"Duration":66964,"SoundDuration":66964,"Delta":399385973},{"NoteNumber":50,"Velocity":40,"Duration":66964,"SoundDuration":66964,"Delta":399385973},{"NoteNumber":52,"Velocity":47,"Duration":66964,"SoundDuration":66964,"Delta":399385973},{"NoteNumber":40,"Velocity":40,"Duration":66964,"SoundDuration":66964,"Delta":399385973},{"NoteNumber":47,"Velocity":40,"Duration":66964,"SoundDuration":66964,"Delta":399385973},{"NoteNumber":66,"Velocity":45,"Duration":31250,"SoundDuration":31250,"Delta":399778830},{"NoteNumber":69,"Velocity":54,"Duration":31250,"SoundDuration":31250,"Delta":399778830},{"NoteNumber":57,"Velocity":45,"Duration":31250,"SoundDuration":31250,"Delta":399778830},{"NoteNumber":68,"Velocity":43,"Duration":76530,"SoundDuration":76530,"Delta":399903830},{"NoteNumber":71,"Velocity":51,"Duration":76530,"SoundDuration":76530,"Delta":399903830},{"NoteNumber":59,"Velocity":43,"Duration":76530,"SoundDuration":76530,"Delta":399903830},{"NoteNumber":50,"Velocity":34,"Duration":76530,"SoundDuration":76530,"Delta":399903830},{"NoteNumber":52,"Velocity":41,"Duration":76530,"SoundDuration":76530,"Delta":399903830},{"NoteNumber":40,"Velocity":34,"Duration":76530,"SoundDuration":76530,"Delta":399903830},{"NoteNumber":47,"Velocity":34,"Duration":76530,"SoundDuration":76530,"Delta":399903830},{"NoteNumber":69,"Velocity":46,"Duration":78279,"SoundDuration":78279,"Delta":400209952},{"NoteNumber":61,"Velocity":46,"Duration":78279,"SoundDuration":78279,"Delta":400209952},{"NoteNumber":73,"Velocity":55,"Duration":78279,"SoundDuration":78279,"Delta":400209952},{"NoteNumber":52,"Velocity":44,"Duration":78279,"SoundDuration":78279,"Delta":400209952},{"NoteNumber":45,"Velocity":44,"Duration":78279,"SoundDuration":78279,"Delta":400209952},{"NoteNumber":49,"Velocity":44,"Duration":78279,"SoundDuration":78279,"Delta":400209952},{"NoteNumber":57,"Velocity":44,"Duration":78279,"SoundDuration":78279,"Delta":400209952},{"NoteNumber":97,"Velocity":53,"Duration":47276,"SoundDuration":47276,"Delta":400759119},{"NoteNumber":100,"Velocity":53,"Duration":47276,"SoundDuration":47276,"Delta":400759119},{"NoteNumber":93,"Velocity":53,"Duration":47726,"SoundDuration":47726,"Delta":400806395},{"NoteNumber":92,"Velocity":53,"Duration":48226,"SoundDuration":48226,"Delta":400854122},{"NoteNumber":90,"Velocity":52,"Duration":48694,"SoundDuration":48694,"Delta":400902348},{"NoteNumber":88,"Velocity":52,"Duration":49215,"SoundDuration":49215,"Delta":400951043},{"NoteNumber":86,"Velocity":51,"Duration":55341,"SoundDuration":55341,"Delta":401000258},{"NoteNumber":85,"Velocity":50,"Duration":48373,"SoundDuration":48373,"Delta":401055600},{"NoteNumber":83,"Velocity":50,"Duration":48825,"SoundDuration":48825,"Delta":401103974},{"NoteNumber":81,"Velocity":49,"Duration":49904,"SoundDuration":49904,"Delta":401152799},{"NoteNumber":80,"Velocity":49,"Duration":44972,"SoundDuration":44972,"Delta":401202704},{"NoteNumber":78,"Velocity":48,"Duration":45606,"SoundDuration":45606,"Delta":401247676},{"NoteNumber":76,"Velocity":48,"Duration":46251,"SoundDuration":46251,"Delta":401293283},{"NoteNumber":74,"Velocity":47,"Duration":46899,"SoundDuration":46899,"Delta":401339534},{"NoteNumber":73,"Velocity":47,"Duration":46672,"SoundDuration":46672,"Delta":401386433},{"NoteNumber":71,"Velocity":46,"Duration":50314,"SoundDuration":50314,"Delta":401433106},{"NoteNumber":69,"Velocity":46,"Duration":51189,"SoundDuration":51189,"Delta":401483420},{"NoteNumber":68,"Velocity":45,"Duration":52565,"SoundDuration":52565,"Delta":401534610},{"NoteNumber":66,"Velocity":45,"Duration":53081,"SoundDuration":53081,"Delta":401587175},{"NoteNumber":64,"Velocity":51,"Duration":84269,"SoundDuration":84269,"Delta":401640257},{"NoteNumber":76,"Velocity":66,"Duration":84269,"SoundDuration":84269,"Delta":401640257},{"NoteNumber":73,"Velocity":56,"Duration":84269,"SoundDuration":84269,"Delta":401640257},{"NoteNumber":69,"Velocity":58,"Duration":84269,"SoundDuration":84269,"Delta":401977336},{"NoteNumber":73,"Velocity":69,"Duration":84269,"SoundDuration":84269,"Delta":401977336},{"NoteNumber":61,"Velocity":58,"Duration":84269,"SoundDuration":84269,"Delta":401977336},{"NoteNumber":40,"Velocity":54,"Duration":84269,"SoundDuration":84269,"Delta":401977336},{"NoteNumber":49,"Velocity":54,"Duration":84269,"SoundDuration":84269,"Delta":401977336},{"NoteNumber":52,"Velocity":54,"Duration":84269,"SoundDuration":84269,"Delta":401977336},{"NoteNumber":71,"Velocity":51,"Duration":33185,"SoundDuration":33185,"Delta":402410255},{"NoteNumber":74,"Velocity":62,"Duration":33185,"SoundDuration":33185,"Delta":402410255},{"NoteNumber":62,"Velocity":51,"Duration":33185,"SoundDuration":33185,"Delta":402410255},{"NoteNumber":69,"Velocity":54,"Duration":81521,"SoundDuration":81521,"Delta":402542999},{"NoteNumber":61,"Velocity":54,"Duration":81521,"SoundDuration":81521,"Delta":402542999},{"NoteNumber":73,"Velocity":65,"Duration":81521,"SoundDuration":81521,"Delta":402542999},{"NoteNumber":52,"Velocity":54,"Duration":61141,"SoundDuration":61141,"Delta":402542999},{"NoteNumber":40,"Velocity":46,"Duration":61141,"SoundDuration":61141,"Delta":402542999},{"NoteNumber":49,"Velocity":46,"Duration":61141,"SoundDuration":61141,"Delta":402542999},{"NoteNumber":68,"Velocity":54,"Duration":68807,"SoundDuration":68807,"Delta":402843657},{"NoteNumber":59,"Velocity":54,"Duration":68807,"SoundDuration":68807,"Delta":402843657},{"NoteNumber":71,"Velocity":66,"Duration":68807,"SoundDuration":68807,"Delta":402843657},{"NoteNumber":50,"Velocity":49,"Duration":68807,"SoundDuration":68807,"Delta":402843657},{"NoteNumber":52,"Velocity":59,"Duration":68807,"SoundDuration":68807,"Delta":402843657},{"NoteNumber":40,"Velocity":49,"Duration":68807,"SoundDuration":68807,"Delta":402843657},{"NoteNumber":47,"Velocity":49,"Duration":68807,"SoundDuration":68807,"Delta":402843657},{"NoteNumber":66,"Velocity":54,"Duration":32327,"SoundDuration":32327,"Delta":403248197},{"NoteNumber":69,"Velocity":66,"Duration":32327,"SoundDuration":32327,"Delta":403248197},{"NoteNumber":57,"Velocity":54,"Duration":32327,"SoundDuration":32327,"Delta":403248197},{"NoteNumber":68,"Velocity":53,"Duration":74999,"SoundDuration":74999,"Delta":403377507},{"NoteNumber":71,"Velocity":63,"Duration":74999,"SoundDuration":74999,"Delta":403377507},{"NoteNumber":59,"Velocity":53,"Duration":74999,"SoundDuration":74999,"Delta":403377507},{"NoteNumber":50,"Velocity":42,"Duration":74999,"SoundDuration":74999,"Delta":403377507},{"NoteNumber":52,"Velocity":50,"Duration":74999,"SoundDuration":74999,"Delta":403377507},{"NoteNumber":40,"Velocity":42,"Duration":74999,"SoundDuration":74999,"Delta":403377507},{"NoteNumber":47,"Velocity":42,"Duration":74999,"SoundDuration":74999,"Delta":403377507},{"NoteNumber":69,"Velocity":58,"Duration":70093,"SoundDuration":70093,"Delta":403677507},{"NoteNumber":61,"Velocity":58,"Duration":70093,"SoundDuration":70093,"Delta":403677507},{"NoteNumber":73,"Velocity":69,"Duration":70093,"SoundDuration":70093,"Delta":403677507},{"NoteNumber":52,"Velocity":54,"Duration":70093,"SoundDuration":70093,"Delta":403677507},{"NoteNumber":45,"Velocity":54,"Duration":70093,"SoundDuration":70093,"Delta":403677507},{"NoteNumber":49,"Velocity":54,"Duration":70093,"SoundDuration":70093,"Delta":403677507},{"NoteNumber":57,"Velocity":54,"Duration":70093,"SoundDuration":70093,"Delta":403677507},{"NoteNumber":75,"Velocity":54,"Duration":46232,"SoundDuration":46232,"Delta":404286905},{"NoteNumber":66,"Velocity":42,"Duration":46232,"SoundDuration":46232,"Delta":404286905},{"NoteNumber":76,"Velocity":56,"Duration":46931,"SoundDuration":46931,"Delta":404333137},{"NoteNumber":64,"Velocity":44,"Duration":46931,"SoundDuration":46931,"Delta":404333137},{"NoteNumber":78,"Velocity":58,"Duration":47571,"SoundDuration":47571,"Delta":404380069},{"NoteNumber":62,"Velocity":45,"Duration":47571,"SoundDuration":47571,"Delta":404380069},{"NoteNumber":80,"Velocity":60,"Duration":48327,"SoundDuration":48327,"Delta":404427641},{"NoteNumber":61,"Velocity":45,"Duration":48327,"SoundDuration":48327,"Delta":404427641},{"NoteNumber":81,"Velocity":62,"Duration":48996,"SoundDuration":48996,"Delta":404475968},{"NoteNumber":59,"Velocity":47,"Duration":48996,"SoundDuration":48996,"Delta":404475968},{"NoteNumber":83,"Velocity":63,"Duration":49787,"SoundDuration":49787,"Delta":404524964},{"NoteNumber":57,"Velocity":48,"Duration":49787,"SoundDuration":49787,"Delta":404524964},{"NoteNumber":85,"Velocity":65,"Duration":50531,"SoundDuration":50531,"Delta":404574752},{"NoteNumber":56,"Velocity":49,"Duration":50531,"SoundDuration":50531,"Delta":404574752},{"NoteNumber":86,"Velocity":67,"Duration":51355,"SoundDuration":51355,"Delta":404625284},{"NoteNumber":54,"Velocity":51,"Duration":51355,"SoundDuration":51355,"Delta":404625284},{"NoteNumber":88,"Velocity":69,"Duration":52117,"SoundDuration":52117,"Delta":404676639},{"NoteNumber":52,"Velocity":52,"Duration":52117,"SoundDuration":52117,"Delta":404676639},{"NoteNumber":90,"Velocity":71,"Duration":53013,"SoundDuration":53013,"Delta":404728757},{"NoteNumber":50,"Velocity":53,"Duration":53013,"SoundDuration":53013,"Delta":404728757},{"NoteNumber":92,"Velocity":72,"Duration":53877,"SoundDuration":53877,"Delta":404781770},{"NoteNumber":49,"Velocity":54,"Duration":53877,"SoundDuration":53877,"Delta":404781770},{"NoteNumber":93,"Velocity":73,"Duration":54795,"SoundDuration":54795,"Delta":404835647},{"NoteNumber":47,"Velocity":55,"Duration":54795,"SoundDuration":54795,"Delta":404835647},{"NoteNumber":95,"Velocity":75,"Duration":55656,"SoundDuration":55656,"Delta":404890443},{"NoteNumber":45,"Velocity":56,"Duration":55656,"SoundDuration":55656,"Delta":404890443},{"NoteNumber":97,"Velocity":77,"Duration":56693,"SoundDuration":56693,"Delta":404946099},{"NoteNumber":44,"Velocity":58,"Duration":56693,"SoundDuration":56693,"Delta":404946099},{"NoteNumber":98,"Velocity":79,"Duration":58262,"SoundDuration":58262,"Delta":405002792},{"NoteNumber":42,"Velocity":59,"Duration":58262,"SoundDuration":58262,"Delta":405002792},{"NoteNumber":97,"Velocity":84,"Duration":172413,"SoundDuration":172413,"Delta":405061055},{"NoteNumber":100,"Velocity":84,"Duration":172413,"SoundDuration":172413,"Delta":405061055},{"NoteNumber":88,"Velocity":71,"Duration":172413,"SoundDuration":172413,"Delta":405061055},{"NoteNumber":52,"Velocity":63,"Duration":172413,"SoundDuration":172413,"Delta":405061055},{"NoteNumber":40,"Velocity":53,"Duration":172413,"SoundDuration":172413,"Delta":405061055},{"NoteNumber":49,"Velocity":53,"Duration":172413,"SoundDuration":172413,"Delta":405061055},{"NoteNumber":40,"Velocity":58,"Duration":153465,"SoundDuration":153465,"Delta":405400135},{"NoteNumber":100,"Velocity":87,"Duration":153358,"SoundDuration":153358,"Delta":405405354},{"NoteNumber":93,"Velocity":73,"Duration":153358,"SoundDuration":153358,"Delta":405405354},{"NoteNumber":88,"Velocity":73,"Duration":153358,"SoundDuration":153358,"Delta":405405354},{"NoteNumber":97,"Velocity":73,"Duration":153358,"SoundDuration":153358,"Delta":405405354},{"NoteNumber":49,"Velocity":58,"Duration":153358,"SoundDuration":153358,"Delta":405405354},{"NoteNumber":52,"Velocity":69,"Duration":153358,"SoundDuration":153358,"Delta":405405354},{"NoteNumber":45,"Velocity":58,"Duration":153358,"SoundDuration":153358,"Delta":405405354},{"NoteNumber":98,"Velocity":81,"Duration":72815,"SoundDuration":72815,"Delta":405849974},{"NoteNumber":100,"Velocity":81,"Duration":72815,"SoundDuration":72815,"Delta":405849974},{"NoteNumber":95,"Velocity":68,"Duration":72815,"SoundDuration":72815,"Delta":405849974},{"NoteNumber":88,"Velocity":68,"Duration":72815,"SoundDuration":72815,"Delta":405849974},{"NoteNumber":52,"Velocity":66,"Duration":72815,"SoundDuration":72815,"Delta":405849974},{"NoteNumber":40,"Velocity":56,"Duration":72815,"SoundDuration":72815,"Delta":405849974},{"NoteNumber":47,"Velocity":56,"Duration":72815,"SoundDuration":72815,"Delta":405849974},{"NoteNumber":50,"Velocity":56,"Duration":72815,"SoundDuration":72815,"Delta":405849974},{"NoteNumber":100,"Velocity":82,"Duration":170138,"SoundDuration":170138,"Delta":405996257},{"NoteNumber":88,"Velocity":69,"Duration":170138,"SoundDuration":170138,"Delta":405996257},{"NoteNumber":97,"Velocity":69,"Duration":170138,"SoundDuration":170138,"Delta":405996257},{"NoteNumber":93,"Velocity":69,"Duration":170138,"SoundDuration":170138,"Delta":405996257},{"NoteNumber":52,"Velocity":66,"Duration":128117,"SoundDuration":128117,"Delta":405996257},{"NoteNumber":40,"Velocity":56,"Duration":128117,"SoundDuration":128117,"Delta":405996257},{"NoteNumber":45,"Velocity":56,"Duration":85411,"SoundDuration":85411,"Delta":405996257},{"NoteNumber":49,"Velocity":56,"Duration":128117,"SoundDuration":128117,"Delta":405996257},{"NoteNumber":40,"Velocity":60,"Duration":145630,"SoundDuration":145630,"Delta":406307172},{"NoteNumber":100,"Velocity":86,"Duration":145631,"SoundDuration":145631,"Delta":406312026},{"NoteNumber":88,"Velocity":72,"Duration":145631,"SoundDuration":145631,"Delta":406312026},{"NoteNumber":92,"Velocity":72,"Duration":145631,"SoundDuration":145631,"Delta":406312026},{"NoteNumber":95,"Velocity":72,"Duration":145631,"SoundDuration":145631,"Delta":406312026},{"NoteNumber":52,"Velocity":71,"Duration":145631,"SoundDuration":145631,"Delta":406312026},{"NoteNumber":47,"Velocity":60,"Duration":145631,"SoundDuration":145631,"Delta":406312026},{"NoteNumber":44,"Velocity":60,"Duration":145631,"SoundDuration":145631,"Delta":406312026},{"NoteNumber":100,"Velocity":81,"Duration":72815,"SoundDuration":72815,"Delta":406748919},{"NoteNumber":88,"Velocity":68,"Duration":72815,"SoundDuration":72815,"Delta":406748919},{"NoteNumber":90,"Velocity":68,"Duration":72815,"SoundDuration":72815,"Delta":406748919},{"NoteNumber":93,"Velocity":68,"Duration":72815,"SoundDuration":72815,"Delta":406748919},{"NoteNumber":52,"Velocity":63,"Duration":72815,"SoundDuration":72815,"Delta":406748919},{"NoteNumber":40,"Velocity":52,"Duration":72815,"SoundDuration":72815,"Delta":406748919},{"NoteNumber":42,"Velocity":52,"Duration":72815,"SoundDuration":72815,"Delta":406748919},{"NoteNumber":45,"Velocity":52,"Duration":72815,"SoundDuration":72815,"Delta":406748919},{"NoteNumber":40,"Velocity":52,"Duration":168716,"SoundDuration":168716,"Delta":406889696},{"NoteNumber":100,"Velocity":81,"Duration":168900,"SoundDuration":168900,"Delta":406895142},{"NoteNumber":88,"Velocity":68,"Duration":168900,"SoundDuration":168900,"Delta":406895142},{"NoteNumber":92,"Velocity":68,"Duration":168900,"SoundDuration":168900,"Delta":406895142},{"NoteNumber":95,"Velocity":68,"Duration":168900,"SoundDuration":168900,"Delta":406895142},{"NoteNumber":52,"Velocity":63,"Duration":168900,"SoundDuration":168900,"Delta":406895142},{"NoteNumber":47,"Velocity":52,"Duration":168900,"SoundDuration":168900,"Delta":406895142},{"NoteNumber":44,"Velocity":52,"Duration":168900,"SoundDuration":168900,"Delta":406895142},{"NoteNumber":105,"Velocity":85,"Duration":598802,"SoundDuration":598802,"Delta":407232531},{"NoteNumber":93,"Velocity":72,"Duration":598802,"SoundDuration":598802,"Delta":407232531},{"NoteNumber":97,"Velocity":72,"Duration":598802,"SoundDuration":598802,"Delta":407232531},{"NoteNumber":45,"Velocity":66,"Duration":586403,"SoundDuration":586403,"Delta":407232531},{"NoteNumber":40,"Velocity":56,"Duration":598802,"SoundDuration":598802,"Delta":407232531},{"NoteNumber":37,"Velocity":56,"Duration":598802,"SoundDuration":598802,"Delta":407232531},{"NoteNumber":33,"Velocity":56,"Duration":598802,"SoundDuration":598802,"Delta":407232531},{"NoteNumber":71,"Velocity":45,"Duration":78133,"SoundDuration":78133,"Delta":408235545},{"NoteNumber":68,"Velocity":37,"Duration":78133,"SoundDuration":78133,"Delta":408235545},{"NoteNumber":64,"Velocity":36,"Duration":78133,"SoundDuration":78133,"Delta":408235545},{"NoteNumber":52,"Velocity":30,"Duration":78133,"SoundDuration":78133,"Delta":408235545},{"NoteNumber":69,"Velocity":41,"Duration":33485,"SoundDuration":33485,"Delta":408682018},{"NoteNumber":66,"Velocity":35,"Duration":33485,"SoundDuration":33485,"Delta":408682018},{"NoteNumber":64,"Velocity":32,"Duration":33485,"SoundDuration":33485,"Delta":408682018},{"NoteNumber":52,"Velocity":27,"Duration":33485,"SoundDuration":33485,"Delta":408682018},{"NoteNumber":71,"Velocity":41,"Duration":66970,"SoundDuration":66970,"Delta":408815959},{"NoteNumber":68,"Velocity":35,"Duration":66970,"SoundDuration":66970,"Delta":408815959},{"NoteNumber":64,"Velocity":32,"Duration":66970,"SoundDuration":66970,"Delta":408815959},{"NoteNumber":52,"Velocity":27,"Duration":66970,"SoundDuration":66970,"Delta":408815959},{"NoteNumber":73,"Velocity":45,"Duration":73898,"SoundDuration":73898,"Delta":409142882},{"NoteNumber":69,"Velocity":37,"Duration":73898,"SoundDuration":73898,"Delta":409142882},{"NoteNumber":64,"Velocity":36,"Duration":73898,"SoundDuration":73898,"Delta":409142882},{"NoteNumber":57,"Velocity":30,"Duration":73898,"SoundDuration":73898,"Delta":409142882},{"NoteNumber":74,"Velocity":43,"Duration":33939,"SoundDuration":33939,"Delta":409574236},{"NoteNumber":71,"Velocity":36,"Duration":33939,"SoundDuration":33939,"Delta":409574236},{"NoteNumber":64,"Velocity":35,"Duration":33939,"SoundDuration":33939,"Delta":409574236},{"NoteNumber":57,"Velocity":29,"Duration":33939,"SoundDuration":33939,"Delta":409574236},{"NoteNumber":73,"Velocity":43,"Duration":67879,"SoundDuration":67879,"Delta":409709995},{"NoteNumber":69,"Velocity":36,"Duration":67879,"SoundDuration":67879,"Delta":409709995},{"NoteNumber":64,"Velocity":35,"Duration":67879,"SoundDuration":67879,"Delta":409709995},{"NoteNumber":57,"Velocity":29,"Duration":67879,"SoundDuration":67879,"Delta":409709995},{"NoteNumber":71,"Velocity":45,"Duration":74634,"SoundDuration":74634,"Delta":410020193},{"NoteNumber":68,"Velocity":37,"Duration":74634,"SoundDuration":74634,"Delta":410020193},{"NoteNumber":64,"Velocity":36,"Duration":74634,"SoundDuration":74634,"Delta":410020193},{"NoteNumber":52,"Velocity":30,"Duration":74634,"SoundDuration":74634,"Delta":410020193},{"NoteNumber":62,"Velocity":30,"Duration":74634,"SoundDuration":74634,"Delta":410020193},{"NoteNumber":69,"Velocity":40,"Duration":34565,"SoundDuration":34565,"Delta":410456992},{"NoteNumber":66,"Velocity":34,"Duration":34565,"SoundDuration":34565,"Delta":410456992},{"NoteNumber":64,"Velocity":34,"Duration":34565,"SoundDuration":34565,"Delta":410456992},{"NoteNumber":52,"Velocity":28,"Duration":34565,"SoundDuration":34565,"Delta":410456992},{"NoteNumber":62,"Velocity":28,"Duration":34565,"SoundDuration":34565,"Delta":410456992},{"NoteNumber":71,"Velocity":40,"Duration":69130,"SoundDuration":69130,"Delta":410595253},{"NoteNumber":68,"Velocity":34,"Duration":69130,"SoundDuration":69130,"Delta":410595253},{"NoteNumber":64,"Velocity":34,"Duration":69130,"SoundDuration":69130,"Delta":410595253},{"NoteNumber":52,"Velocity":28,"Duration":69130,"SoundDuration":69130,"Delta":410595253},{"NoteNumber":62,"Velocity":28,"Duration":69130,"SoundDuration":69130,"Delta":410595253},{"NoteNumber":69,"Velocity":45,"Duration":283019,"SoundDuration":283019,"Delta":410912107},{"NoteNumber":64,"Velocity":37,"Duration":283019,"SoundDuration":283019,"Delta":410912107},{"NoteNumber":61,"Velocity":36,"Duration":283019,"SoundDuration":283019,"Delta":410912107},{"NoteNumber":57,"Velocity":30,"Duration":283019,"SoundDuration":283019,"Delta":410912107},{"NoteNumber":88,"Velocity":86,"Duration":419382,"SoundDuration":419382,"Delta":411761164},{"NoteNumber":76,"Velocity":72,"Duration":419382,"SoundDuration":419382,"Delta":411761164},{"NoteNumber":80,"Velocity":72,"Duration":419382,"SoundDuration":419382,"Delta":411761164},{"NoteNumber":83,"Velocity":72,"Duration":419382,"SoundDuration":419382,"Delta":411761164},{"NoteNumber":40,"Velocity":60,"Duration":419382,"SoundDuration":419382,"Delta":411761164},{"NoteNumber":52,"Velocity":71,"Duration":419382,"SoundDuration":419382,"Delta":411761164},{"NoteNumber":47,"Velocity":60,"Duration":419382,"SoundDuration":419382,"Delta":411761164},{"NoteNumber":44,"Velocity":60,"Duration":419382,"SoundDuration":419382,"Delta":411761164},{"NoteNumber":88,"Velocity":81,"Duration":137264,"SoundDuration":137264,"Delta":412180547},{"NoteNumber":76,"Velocity":68,"Duration":137264,"SoundDuration":137264,"Delta":412180547},{"NoteNumber":78,"Velocity":68,"Duration":137264,"SoundDuration":137264,"Delta":412180547},{"NoteNumber":81,"Velocity":68,"Duration":137264,"SoundDuration":137264,"Delta":412180547},{"NoteNumber":52,"Velocity":63,"Duration":137264,"SoundDuration":137264,"Delta":412180547},{"NoteNumber":40,"Velocity":52,"Duration":137264,"SoundDuration":137264,"Delta":412180547},{"NoteNumber":42,"Velocity":52,"Duration":137264,"SoundDuration":137264,"Delta":412180547},{"NoteNumber":45,"Velocity":52,"Duration":137264,"SoundDuration":137264,"Delta":412180547},{"NoteNumber":40,"Velocity":52,"Duration":315972,"SoundDuration":315972,"Delta":412312366},{"NoteNumber":88,"Velocity":81,"Duration":315744,"SoundDuration":315744,"Delta":412317812},{"NoteNumber":76,"Velocity":68,"Duration":315744,"SoundDuration":315744,"Delta":412317812},{"NoteNumber":80,"Velocity":68,"Duration":315744,"SoundDuration":315744,"Delta":412317812},{"NoteNumber":83,"Velocity":68,"Duration":315744,"SoundDuration":315744,"Delta":412317812},{"NoteNumber":52,"Velocity":63,"Duration":315744,"SoundDuration":315744,"Delta":412317812},{"NoteNumber":47,"Velocity":52,"Duration":315744,"SoundDuration":315744,"Delta":412317812},{"NoteNumber":44,"Velocity":52,"Duration":315744,"SoundDuration":315744,"Delta":412317812},{"NoteNumber":88,"Velocity":87,"Duration":419382,"SoundDuration":419382,"Delta":412633557},{"NoteNumber":81,"Velocity":73,"Duration":419382,"SoundDuration":419382,"Delta":412633557},{"NoteNumber":76,"Velocity":73,"Duration":419382,"SoundDuration":419382,"Delta":412633557},{"NoteNumber":85,"Velocity":73,"Duration":419382,"SoundDuration":419382,"Delta":412633557},{"NoteNumber":45,"Velocity":52,"Duration":419382,"SoundDuration":419382,"Delta":412633557},{"NoteNumber":49,"Velocity":52,"Duration":419382,"SoundDuration":419382,"Delta":412633557},{"NoteNumber":52,"Velocity":58,"Duration":419382,"SoundDuration":419382,"Delta":412633557},{"NoteNumber":86,"Velocity":81,"Duration":137324,"SoundDuration":137324,"Delta":413052939},{"NoteNumber":88,"Velocity":81,"Duration":137324,"SoundDuration":137324,"Delta":413052939},{"NoteNumber":83,"Velocity":68,"Duration":137324,"SoundDuration":137324,"Delta":413052939},{"NoteNumber":76,"Velocity":68,"Duration":137324,"SoundDuration":137324,"Delta":413052939},{"NoteNumber":52,"Velocity":66,"Duration":137324,"SoundDuration":137324,"Delta":413052939},{"NoteNumber":47,"Velocity":56,"Duration":137324,"SoundDuration":137324,"Delta":413052939},{"NoteNumber":50,"Velocity":56,"Duration":137324,"SoundDuration":137324,"Delta":413052939},{"NoteNumber":88,"Velocity":82,"Duration":312995,"SoundDuration":312995,"Delta":413190264},{"NoteNumber":76,"Velocity":69,"Duration":312995,"SoundDuration":312995,"Delta":413190264},{"NoteNumber":85,"Velocity":69,"Duration":312995,"SoundDuration":312995,"Delta":413190264},{"NoteNumber":81,"Velocity":69,"Duration":312995,"SoundDuration":312995,"Delta":413190264},{"NoteNumber":52,"Velocity":66,"Duration":312995,"SoundDuration":312995,"Delta":413190264},{"NoteNumber":45,"Velocity":56,"Duration":312995,"SoundDuration":312995,"Delta":413190264},{"NoteNumber":49,"Velocity":56,"Duration":312995,"SoundDuration":312995,"Delta":413190264},{"NoteNumber":40,"Velocity":60,"Duration":422294,"SoundDuration":422294,"Delta":413498498},{"NoteNumber":88,"Velocity":86,"Duration":422078,"SoundDuration":422078,"Delta":413503259},{"NoteNumber":76,"Velocity":72,"Duration":422078,"SoundDuration":422078,"Delta":413503259},{"NoteNumber":80,"Velocity":72,"Duration":422078,"SoundDuration":422078,"Delta":413503259},{"NoteNumber":83,"Velocity":72,"Duration":422078,"SoundDuration":422078,"Delta":413503259},{"NoteNumber":52,"Velocity":71,"Duration":422078,"SoundDuration":422078,"Delta":413503259},{"NoteNumber":47,"Velocity":60,"Duration":422078,"SoundDuration":422078,"Delta":413503259},{"NoteNumber":44,"Velocity":60,"Duration":422078,"SoundDuration":422078,"Delta":413503259},{"NoteNumber":88,"Velocity":81,"Duration":137264,"SoundDuration":137264,"Delta":413925338},{"NoteNumber":76,"Velocity":68,"Duration":137264,"SoundDuration":137264,"Delta":413925338},{"NoteNumber":78,"Velocity":68,"Duration":137264,"SoundDuration":137264,"Delta":413925338},{"NoteNumber":81,"Velocity":68,"Duration":137264,"SoundDuration":137264,"Delta":413925338},{"NoteNumber":52,"Velocity":63,"Duration":137264,"SoundDuration":137264,"Delta":413925338},{"NoteNumber":40,"Velocity":52,"Duration":137264,"SoundDuration":137264,"Delta":413925338},{"NoteNumber":42,"Velocity":52,"Duration":137264,"SoundDuration":137264,"Delta":413925338},{"NoteNumber":45,"Velocity":52,"Duration":137264,"SoundDuration":137264,"Delta":413925338},{"NoteNumber":40,"Velocity":52,"Duration":337616,"SoundDuration":337616,"Delta":414057156},{"NoteNumber":88,"Velocity":81,"Duration":337388,"SoundDuration":337388,"Delta":414062602},{"NoteNumber":76,"Velocity":68,"Duration":337388,"SoundDuration":337388,"Delta":414062602},{"NoteNumber":80,"Velocity":68,"Duration":337388,"SoundDuration":337388,"Delta":414062602},{"NoteNumber":83,"Velocity":68,"Duration":337388,"SoundDuration":337388,"Delta":414062602},{"NoteNumber":52,"Velocity":63,"Duration":337388,"SoundDuration":337388,"Delta":414062602},{"NoteNumber":47,"Velocity":52,"Duration":337388,"SoundDuration":337388,"Delta":414062602},{"NoteNumber":44,"Velocity":52,"Duration":337388,"SoundDuration":337388,"Delta":414062602},{"NoteNumber":93,"Velocity":95,"Duration":598802,"SoundDuration":598802,"Delta":414399991},{"NoteNumber":81,"Velocity":72,"Duration":598802,"SoundDuration":598802,"Delta":414399991},{"NoteNumber":85,"Velocity":81,"Duration":598802,"SoundDuration":598802,"Delta":414399991},{"NoteNumber":45,"Velocity":66,"Duration":586403,"SoundDuration":586403,"Delta":414399991},{"NoteNumber":40,"Velocity":56,"Duration":598802,"SoundDuration":598802,"Delta":414399991},{"NoteNumber":37,"Velocity":56,"Duration":598802,"SoundDuration":598802,"Delta":414399991},{"NoteNumber":33,"Velocity":56,"Duration":598802,"SoundDuration":598802,"Delta":414399991},{"NoteNumber":52,"Velocity":45,"Duration":452586,"SoundDuration":452586,"Delta":415792444},{"NoteNumber":45,"Velocity":36,"Duration":641002,"SoundDuration":641002,"Delta":416245031},{"NoteNumber":49,"Velocity":36,"Duration":602553,"SoundDuration":602553,"Delta":416283480},{"NoteNumber":57,"Velocity":49,"Duration":215100,"SoundDuration":215100,"Delta":416322870},{"NoteNumber":59,"Velocity":42,"Duration":178571,"SoundDuration":178571,"Delta":416537970},{"NoteNumber":57,"Velocity":42,"Duration":169491,"SoundDuration":169491,"Delta":416716542},{"NoteNumber":61,"Velocity":36,"Duration":241935,"SoundDuration":241935,"Delta":416886033},{"NoteNumber":64,"Velocity":36,"Duration":241935,"SoundDuration":241935,"Delta":416886033},{"NoteNumber":69,"Velocity":36,"Duration":241935,"SoundDuration":241935,"Delta":416886033},{"NoteNumber":56,"Velocity":47,"Duration":161290,"SoundDuration":161290,"Delta":416886033},{"NoteNumber":57,"Velocity":43,"Duration":161290,"SoundDuration":161290,"Delta":417047324},{"NoteNumber":59,"Velocity":43,"Duration":115191,"SoundDuration":115191,"Delta":417208614},{"NoteNumber":45,"Velocity":36,"Duration":326703,"SoundDuration":326703,"Delta":417323806},{"NoteNumber":52,"Velocity":36,"Duration":290366,"SoundDuration":290366,"Delta":417360143},{"NoteNumber":61,"Velocity":49,"Duration":172062,"SoundDuration":172062,"Delta":417396480},{"NoteNumber":60,"Velocity":45,"Duration":163934,"SoundDuration":163934,"Delta":417568542},{"NoteNumber":62,"Velocity":45,"Duration":156250,"SoundDuration":156250,"Delta":417732477},{"NoteNumber":64,"Velocity":36,"Duration":236895,"SoundDuration":236895,"Delta":417888727},{"NoteNumber":69,"Velocity":36,"Duration":236895,"SoundDuration":236895,"Delta":417888727},{"NoteNumber":61,"Velocity":49,"Duration":156250,"SoundDuration":156250,"Delta":417888727},{"NoteNumber":59,"Velocity":45,"Duration":161290,"SoundDuration":161290,"Delta":418044977},{"NoteNumber":57,"Velocity":45,"Duration":170068,"SoundDuration":170068,"Delta":418206267},{"NoteNumber":50,"Velocity":36,"Duration":250538,"SoundDuration":250538,"Delta":418376335},{"NoteNumber":54,"Velocity":49,"Duration":172413,"SoundDuration":172413,"Delta":418376335},{"NoteNumber":56,"Velocity":43,"Duration":156250,"SoundDuration":156250,"Delta":418548749},{"NoteNumber":54,"Velocity":43,"Duration":156250,"SoundDuration":156250,"Delta":418704999},{"NoteNumber":62,"Velocity":36,"Duration":234375,"SoundDuration":234375,"Delta":418861249},{"NoteNumber":66,"Velocity":36,"Duration":234375,"SoundDuration":234375,"Delta":418861249},{"NoteNumber":71,"Velocity":36,"Duration":234375,"SoundDuration":234375,"Delta":418861249},{"NoteNumber":53,"Velocity":45,"Duration":156250,"SoundDuration":156250,"Delta":418861249},{"NoteNumber":54,"Velocity":43,"Duration":156250,"SoundDuration":156250,"Delta":419017499},{"NoteNumber":58,"Velocity":43,"Duration":156250,"SoundDuration":156250,"Delta":419173749},{"NoteNumber":51,"Velocity":36,"Duration":242718,"SoundDuration":242718,"Delta":419329999},{"NoteNumber":59,"Velocity":48,"Duration":161812,"SoundDuration":161812,"Delta":419329999},{"NoteNumber":61,"Velocity":42,"Duration":161812,"SoundDuration":161812,"Delta":419491811},{"NoteNumber":59,"Velocity":42,"Duration":161812,"SoundDuration":161812,"Delta":419653624},{"NoteNumber":66,"Velocity":36,"Duration":242718,"SoundDuration":242718,"Delta":419815436},{"NoteNumber":69,"Velocity":36,"Duration":242718,"SoundDuration":242718,"Delta":419815436},{"NoteNumber":71,"Velocity":36,"Duration":242718,"SoundDuration":242718,"Delta":419815436},{"NoteNumber":58,"Velocity":45,"Duration":161812,"SoundDuration":161812,"Delta":419815436},{"NoteNumber":59,"Velocity":43,"Duration":161812,"SoundDuration":161812,"Delta":419977248},{"NoteNumber":57,"Velocity":43,"Duration":176056,"SoundDuration":176056,"Delta":420139061},{"NoteNumber":52,"Velocity":36,"Duration":257581,"SoundDuration":257581,"Delta":420315117},{"NoteNumber":56,"Velocity":54,"Duration":179211,"SoundDuration":179211,"Delta":420315117},{"NoteNumber":66,"Velocity":45,"Duration":156739,"SoundDuration":156739,"Delta":420494328},{"NoteNumber":64,"Velocity":45,"Duration":156739,"SoundDuration":156739,"Delta":420651068},{"NoteNumber":71,"Velocity":36,"Duration":235109,"SoundDuration":235109,"Delta":420807808},{"NoteNumber":68,"Velocity":36,"Duration":235109,"SoundDuration":235109,"Delta":420807808},{"NoteNumber":63,"Velocity":50,"Duration":156739,"SoundDuration":156739,"Delta":420807808},{"NoteNumber":64,"Velocity":45,"Duration":156739,"SoundDuration":156739,"Delta":420964548},{"NoteNumber":56,"Velocity":45,"Duration":156739,"SoundDuration":156739,"Delta":421121288},{"NoteNumber":47,"Velocity":36,"Duration":238853,"SoundDuration":238853,"Delta":421278028},{"NoteNumber":51,"Velocity":36,"Duration":238853,"SoundDuration":238853,"Delta":421278028},{"NoteNumber":57,"Velocity":48,"Duration":159235,"SoundDuration":159235,"Delta":421278028},{"NoteNumber":60,"Velocity":44,"Duration":159235,"SoundDuration":159235,"Delta":421437263},{"NoteNumber":59,"Velocity":44,"Duration":159235,"SoundDuration":159235,"Delta":421596499},{"NoteNumber":63,"Velocity":36,"Duration":238853,"SoundDuration":238853,"Delta":421755735},{"NoteNumber":71,"Velocity":36,"Duration":238853,"SoundDuration":238853,"Delta":421755735},{"NoteNumber":69,"Velocity":36,"Duration":238853,"SoundDuration":238853,"Delta":421755735},{"NoteNumber":66,"Velocity":36,"Duration":238853,"SoundDuration":238853,"Delta":421755735},{"NoteNumber":58,"Velocity":48,"Duration":159235,"SoundDuration":159235,"Delta":421755735},{"NoteNumber":59,"Velocity":44,"Duration":159235,"SoundDuration":159235,"Delta":421914970},{"NoteNumber":51,"Velocity":44,"Duration":179211,"SoundDuration":179211,"Delta":422074206},{"NoteNumber":40,"Velocity":36,"Duration":253059,"SoundDuration":253059,"Delta":422253417},{"NoteNumber":52,"Velocity":49,"Duration":172413,"SoundDuration":172413,"Delta":422253417},{"NoteNumber":56,"Velocity":45,"Duration":161290,"SoundDuration":161290,"Delta":422425831},{"NoteNumber":59,"Velocity":45,"Duration":161290,"SoundDuration":161290,"Delta":422587122},{"NoteNumber":52,"Velocity":41,"Duration":495590,"SoundDuration":495590,"Delta":422748412},{"NoteNumber":56,"Velocity":41,"Duration":495590,"SoundDuration":495590,"Delta":422748412},{"NoteNumber":64,"Velocity":49,"Duration":495590,"SoundDuration":495590,"Delta":422748412},{"NoteNumber":68,"Velocity":44,"Duration":334300,"SoundDuration":334300,"Delta":422909702},{"NoteNumber":78,"Velocity":44,"Duration":161290,"SoundDuration":161290,"Delta":422909702},{"NoteNumber":76,"Velocity":45,"Duration":173010,"SoundDuration":173010,"Delta":423070993},{"NoteNumber":75,"Velocity":48,"Duration":169491,"SoundDuration":169491,"Delta":423244003},{"NoteNumber":69,"Velocity":40,"Duration":336633,"SoundDuration":336633,"Delta":423244003},{"NoteNumber":60,"Velocity":45,"Duration":336633,"SoundDuration":336633,"Delta":423244003},{"NoteNumber":53,"Velocity":38,"Duration":169491,"SoundDuration":169491,"Delta":423244003},{"NoteNumber":74,"Velocity":50,"Duration":499143,"SoundDuration":499143,"Delta":423413494},{"NoteNumber":54,"Velocity":42,"Duration":167141,"SoundDuration":167141,"Delta":423413494},{"NoteNumber":65,"Velocity":47,"Duration":162336,"SoundDuration":162336,"Delta":423580636},{"NoteNumber":59,"Velocity":37,"Duration":332001,"SoundDuration":332001,"Delta":423580636},{"NoteNumber":55,"Velocity":30,"Duration":162336,"SoundDuration":162336,"Delta":423580636},{"NoteNumber":64,"Velocity":45,"Duration":169665,"SoundDuration":169665,"Delta":423742973},{"NoteNumber":56,"Velocity":39,"Duration":169665,"SoundDuration":169665,"Delta":423742973},{"NoteNumber":71,"Velocity":45,"Duration":178749,"SoundDuration":178749,"Delta":423912638},{"NoteNumber":68,"Velocity":37,"Duration":402178,"SoundDuration":402178,"Delta":423912638},{"NoteNumber":62,"Velocity":38,"Duration":178749,"SoundDuration":178749,"Delta":423912638},{"NoteNumber":52,"Velocity":32,"Duration":402178,"SoundDuration":402178,"Delta":423912638},{"NoteNumber":73,"Velocity":45,"Duration":223428,"SoundDuration":223428,"Delta":424091388},{"NoteNumber":64,"Velocity":39,"Duration":223428,"SoundDuration":223428,"Delta":424091388},{"NoteNumber":45,"Velocity":36,"Duration":538790,"SoundDuration":538790,"Delta":424314816},{"NoteNumber":49,"Velocity":36,"Duration":538790,"SoundDuration":538790,"Delta":424314816},{"NoteNumber":57,"Velocity":49,"Duration":202061,"SoundDuration":202061,"Delta":424314816},{"NoteNumber":59,"Velocity":42,"Duration":175438,"SoundDuration":175438,"Delta":424516877},{"NoteNumber":57,"Velocity":42,"Duration":161290,"SoundDuration":161290,"Delta":424692316},{"NoteNumber":61,"Velocity":36,"Duration":241935,"SoundDuration":241935,"Delta":424853606},{"NoteNumber":64,"Velocity":36,"Duration":241935,"SoundDuration":241935,"Delta":424853606},{"NoteNumber":69,"Velocity":36,"Duration":241935,"SoundDuration":241935,"Delta":424853606},{"NoteNumber":56,"Velocity":47,"Duration":161290,"SoundDuration":161290,"Delta":424853606},{"NoteNumber":57,"Velocity":43,"Duration":161290,"SoundDuration":161290,"Delta":425014897},{"NoteNumber":59,"Velocity":43,"Duration":106292,"SoundDuration":106292,"Delta":425176187},{"NoteNumber":45,"Velocity":36,"Duration":313112,"SoundDuration":313112,"Delta":425282480},{"NoteNumber":52,"Velocity":36,"Duration":281224,"SoundDuration":281224,"Delta":425314367},{"NoteNumber":61,"Velocity":49,"Duration":172413,"SoundDuration":172413,"Delta":425346255},{"NoteNumber":60,"Velocity":45,"Duration":153846,"SoundDuration":153846,"Delta":425518669},{"NoteNumber":62,"Velocity":45,"Duration":153846,"SoundDuration":153846,"Delta":425672515},{"NoteNumber":64,"Velocity":36,"Duration":230769,"SoundDuration":230769,"Delta":425826361},{"NoteNumber":69,"Velocity":36,"Duration":230769,"SoundDuration":230769,"Delta":425826361},{"NoteNumber":61,"Velocity":49,"Duration":153846,"SoundDuration":153846,"Delta":425826361},{"NoteNumber":59,"Velocity":45,"Duration":153846,"SoundDuration":153846,"Delta":425980207},{"NoteNumber":57,"Velocity":45,"Duration":170068,"SoundDuration":170068,"Delta":426134054},{"NoteNumber":50,"Velocity":36,"Duration":238853,"SoundDuration":238853,"Delta":426304122},{"NoteNumber":54,"Velocity":49,"Duration":159235,"SoundDuration":159235,"Delta":426304122},{"NoteNumber":56,"Velocity":43,"Duration":159235,"SoundDuration":159235,"Delta":426463357},{"NoteNumber":54,"Velocity":43,"Duration":159235,"SoundDuration":159235,"Delta":426622593},{"NoteNumber":62,"Velocity":36,"Duration":238853,"SoundDuration":238853,"Delta":426781829},{"NoteNumber":66,"Velocity":36,"Duration":238853,"SoundDuration":238853,"Delta":426781829},{"NoteNumber":71,"Velocity":36,"Duration":238853,"SoundDuration":238853,"Delta":426781829},{"NoteNumber":53,"Velocity":45,"Duration":159235,"SoundDuration":159235,"Delta":426781829},{"NoteNumber":54,"Velocity":43,"Duration":159235,"SoundDuration":159235,"Delta":426941064},{"NoteNumber":58,"Velocity":43,"Duration":159235,"SoundDuration":159235,"Delta":427100300},{"NoteNumber":50,"Velocity":36,"Duration":242718,"SoundDuration":242718,"Delta":427259536},{"NoteNumber":59,"Velocity":48,"Duration":161812,"SoundDuration":161812,"Delta":427259536},{"NoteNumber":61,"Velocity":42,"Duration":161812,"SoundDuration":161812,"Delta":427421348},{"NoteNumber":59,"Velocity":42,"Duration":161812,"SoundDuration":161812,"Delta":427583160},{"NoteNumber":62,"Velocity":36,"Duration":242718,"SoundDuration":242718,"Delta":427744973},{"NoteNumber":66,"Velocity":36,"Duration":242718,"SoundDuration":242718,"Delta":427744973},{"NoteNumber":71,"Velocity":36,"Duration":242718,"SoundDuration":242718,"Delta":427744973},{"NoteNumber":58,"Velocity":45,"Duration":161812,"SoundDuration":161812,"Delta":427744973},{"NoteNumber":59,"Velocity":43,"Duration":161812,"SoundDuration":161812,"Delta":427906785},{"NoteNumber":57,"Velocity":43,"Duration":110035,"SoundDuration":110035,"Delta":428068597},{"NoteNumber":40,"Velocity":36,"Duration":323602,"SoundDuration":323602,"Delta":428178632},{"NoteNumber":57,"Velocity":54,"Duration":156810,"SoundDuration":156810,"Delta":428244654},{"NoteNumber":56,"Velocity":45,"Duration":156739,"SoundDuration":156739,"Delta":428423865},{"NoteNumber":54,"Velocity":45,"Duration":156739,"SoundDuration":156739,"Delta":428580605},{"NoteNumber":62,"Velocity":36,"Duration":235109,"SoundDuration":235109,"Delta":428737345},{"NoteNumber":64,"Velocity":36,"Duration":235109,"SoundDuration":235109,"Delta":428737345},{"NoteNumber":71,"Velocity":36,"Duration":235109,"SoundDuration":235109,"Delta":428737345},{"NoteNumber":68,"Velocity":36,"Duration":235109,"SoundDuration":235109,"Delta":428737345},{"NoteNumber":54,"Velocity":50,"Duration":156739,"SoundDuration":156739,"Delta":428737345},{"NoteNumber":52,"Velocity":45,"Duration":156739,"SoundDuration":156739,"Delta":428894085},{"NoteNumber":51,"Velocity":45,"Duration":137147,"SoundDuration":137147,"Delta":429050824},{"NoteNumber":40,"Velocity":36,"Duration":238853,"SoundDuration":238853,"Delta":429207564},{"NoteNumber":51,"Velocity":48,"Duration":159235,"SoundDuration":159235,"Delta":429207564},{"NoteNumber":52,"Velocity":44,"Duration":159235,"SoundDuration":159235,"Delta":429366800},{"NoteNumber":53,"Velocity":44,"Duration":159235,"SoundDuration":159235,"Delta":429526036},{"NoteNumber":62,"Velocity":36,"Duration":512544,"SoundDuration":512544,"Delta":429685271},{"NoteNumber":76,"Velocity":36,"Duration":695695,"SoundDuration":695695,"Delta":429685271},{"NoteNumber":71,"Velocity":36,"Duration":512544,"SoundDuration":512544,"Delta":429685271},{"NoteNumber":64,"Velocity":36,"Duration":512544,"SoundDuration":512544,"Delta":429685271},{"NoteNumber":54,"Velocity":48,"Duration":166666,"SoundDuration":166666,"Delta":429685271},{"NoteNumber":55,"Velocity":44,"Duration":166666,"SoundDuration":166666,"Delta":429851938},{"NoteNumber":56,"Velocity":44,"Duration":179211,"SoundDuration":179211,"Delta":430018605},{"NoteNumber":61,"Velocity":40,"Duration":183150,"SoundDuration":183150,"Delta":430197816},{"NoteNumber":69,"Velocity":40,"Duration":183150,"SoundDuration":183150,"Delta":430197816},{"NoteNumber":45,"Velocity":40,"Duration":183150,"SoundDuration":183150,"Delta":430197816},{"NoteNumber":52,"Velocity":40,"Duration":183150,"SoundDuration":183150,"Delta":430197816},{"NoteNumber":57,"Velocity":40,"Duration":183150,"SoundDuration":183150,"Delta":430197816},{"NoteNumber":69,"Velocity":46,"Duration":132565,"SoundDuration":132565,"Delta":430380966},{"NoteNumber":76,"Velocity":46,"Duration":132565,"SoundDuration":132565,"Delta":430380966},{"NoteNumber":64,"Velocity":50,"Duration":132565,"SoundDuration":132565,"Delta":430380966},{"NoteNumber":61,"Velocity":50,"Duration":132565,"SoundDuration":132565,"Delta":430380966},{"NoteNumber":69,"Velocity":46,"Duration":122971,"SoundDuration":122971,"Delta":430554522},{"NoteNumber":76,"Velocity":46,"Duration":122971,"SoundDuration":122971,"Delta":430554522},{"NoteNumber":64,"Velocity":49,"Duration":122971,"SoundDuration":122971,"Delta":430554522},{"NoteNumber":61,"Velocity":49,"Duration":122971,"SoundDuration":122971,"Delta":430554522},{"NoteNumber":69,"Velocity":45,"Duration":120019,"SoundDuration":120019,"Delta":430718483},{"NoteNumber":76,"Velocity":45,"Duration":120019,"SoundDuration":120019,"Delta":430718483},{"NoteNumber":61,"Velocity":49,"Duration":120019,"SoundDuration":120019,"Delta":430718483},{"NoteNumber":64,"Velocity":49,"Duration":120019,"SoundDuration":120019,"Delta":430718483},{"NoteNumber":69,"Velocity":45,"Duration":120019,"SoundDuration":120019,"Delta":430878509},{"NoteNumber":75,"Velocity":45,"Duration":120019,"SoundDuration":120019,"Delta":430878509},{"NoteNumber":60,"Velocity":48,"Duration":120019,"SoundDuration":120019,"Delta":430878509},{"NoteNumber":66,"Velocity":48,"Duration":120019,"SoundDuration":120019,"Delta":430878509},{"NoteNumber":69,"Velocity":45,"Duration":123497,"SoundDuration":123497,"Delta":431038535},{"NoteNumber":75,"Velocity":45,"Duration":123497,"SoundDuration":123497,"Delta":431038535},{"NoteNumber":60,"Velocity":47,"Duration":123497,"SoundDuration":123497,"Delta":431038535},{"NoteNumber":66,"Velocity":47,"Duration":123497,"SoundDuration":123497,"Delta":431038535},{"NoteNumber":69,"Velocity":45,"Duration":133184,"SoundDuration":133184,"Delta":431204429},{"NoteNumber":75,"Velocity":45,"Duration":133184,"SoundDuration":133184,"Delta":431204429},{"NoteNumber":60,"Velocity":46,"Duration":133184,"SoundDuration":133184,"Delta":431204429},{"NoteNumber":66,"Velocity":46,"Duration":133184,"SoundDuration":133184,"Delta":431204429},{"NoteNumber":69,"Velocity":44,"Duration":138171,"SoundDuration":138171,"Delta":431382636},{"NoteNumber":74,"Velocity":44,"Duration":138171,"SoundDuration":138171,"Delta":431382636},{"NoteNumber":59,"Velocity":45,"Duration":138171,"SoundDuration":138171,"Delta":431382636},{"NoteNumber":65,"Velocity":45,"Duration":138171,"SoundDuration":138171,"Delta":431382636},{"NoteNumber":69,"Velocity":44,"Duration":146637,"SoundDuration":146637,"Delta":431568143},{"NoteNumber":74,"Velocity":44,"Duration":146637,"SoundDuration":146637,"Delta":431568143},{"NoteNumber":59,"Velocity":45,"Duration":146637,"SoundDuration":146637,"Delta":431568143},{"NoteNumber":65,"Velocity":45,"Duration":146637,"SoundDuration":146637,"Delta":431568143},{"NoteNumber":69,"Velocity":43,"Duration":155691,"SoundDuration":155691,"Delta":431765043},{"NoteNumber":74,"Velocity":43,"Duration":155691,"SoundDuration":155691,"Delta":431765043},{"NoteNumber":59,"Velocity":45,"Duration":155691,"SoundDuration":155691,"Delta":431765043},{"NoteNumber":65,"Velocity":45,"Duration":155691,"SoundDuration":155691,"Delta":431765043},{"NoteNumber":68,"Velocity":42,"Duration":82110,"SoundDuration":82110,"Delta":431974397},{"NoteNumber":71,"Velocity":42,"Duration":82110,"SoundDuration":82110,"Delta":431974397},{"NoteNumber":52,"Velocity":44,"Duration":82110,"SoundDuration":82110,"Delta":431974397},{"NoteNumber":62,"Velocity":44,"Duration":82110,"SoundDuration":82110,"Delta":431974397},{"NoteNumber":68,"Velocity":42,"Duration":100026,"SoundDuration":100026,"Delta":432198419},{"NoteNumber":73,"Velocity":42,"Duration":100026,"SoundDuration":100026,"Delta":432198419},{"NoteNumber":52,"Velocity":43,"Duration":100026,"SoundDuration":100026,"Delta":432198419},{"NoteNumber":64,"Velocity":43,"Duration":100026,"SoundDuration":100026,"Delta":432198419},{"NoteNumber":61,"Velocity":36,"Duration":513524,"SoundDuration":513524,"Delta":432465157},{"NoteNumber":69,"Velocity":51,"Duration":189394,"SoundDuration":189394,"Delta":432465157},{"NoteNumber":57,"Velocity":36,"Duration":277113,"SoundDuration":277113,"Delta":432465157},{"NoteNumber":45,"Velocity":30,"Duration":277113,"SoundDuration":277113,"Delta":432465157},{"NoteNumber":52,"Velocity":30,"Duration":277113,"SoundDuration":277113,"Delta":432465157},{"NoteNumber":71,"Velocity":45,"Duration":168888,"SoundDuration":168888,"Delta":432654551},{"NoteNumber":69,"Velocity":45,"Duration":161290,"SoundDuration":161290,"Delta":432823439},{"NoteNumber":68,"Velocity":47,"Duration":161290,"SoundDuration":161290,"Delta":432984729},{"NoteNumber":64,"Velocity":35,"Duration":241935,"SoundDuration":241935,"Delta":432984729},{"NoteNumber":61,"Velocity":29,"Duration":241935,"SoundDuration":241935,"Delta":432984729},{"NoteNumber":69,"Velocity":43,"Duration":161290,"SoundDuration":161290,"Delta":433146020},{"NoteNumber":71,"Velocity":43,"Duration":115191,"SoundDuration":115191,"Delta":433307310},{"NoteNumber":73,"Velocity":36,"Duration":36337,"SoundDuration":36337,"Delta":433422502},{"NoteNumber":74,"Velocity":36,"Duration":36337,"SoundDuration":36337,"Delta":433458839},{"NoteNumber":64,"Velocity":36,"Duration":481797,"SoundDuration":481797,"Delta":433495176},{"NoteNumber":69,"Velocity":36,"Duration":481797,"SoundDuration":481797,"Delta":433495176},{"NoteNumber":73,"Velocity":49,"Duration":168318,"SoundDuration":168318,"Delta":433495176},{"NoteNumber":45,"Velocity":36,"Duration":246688,"SoundDuration":246688,"Delta":433495176},{"NoteNumber":72,"Velocity":45,"Duration":156739,"SoundDuration":156739,"Delta":433663494},{"NoteNumber":74,"Velocity":45,"Duration":156739,"SoundDuration":156739,"Delta":433820234},{"NoteNumber":73,"Velocity":49,"Duration":156739,"SoundDuration":156739,"Delta":433976974},{"NoteNumber":61,"Velocity":33,"Duration":235109,"SoundDuration":235109,"Delta":433976974},{"NoteNumber":57,"Velocity":27,"Duration":235109,"SoundDuration":235109,"Delta":433976974},{"NoteNumber":52,"Velocity":27,"Duration":235109,"SoundDuration":235109,"Delta":433976974},{"NoteNumber":71,"Velocity":45,"Duration":156739,"SoundDuration":156739,"Delta":434133714},{"NoteNumber":69,"Velocity":45,"Duration":170068,"SoundDuration":170068,"Delta":434290453},{"NoteNumber":68,"Velocity":51,"Duration":189394,"SoundDuration":189394,"Delta":434460521},{"NoteNumber":38,"Velocity":41,"Duration":269011,"SoundDuration":269011,"Delta":434460521},{"NoteNumber":66,"Velocity":45,"Duration":160786,"SoundDuration":160786,"Delta":434649915},{"NoteNumber":80,"Velocity":52,"Duration":162337,"SoundDuration":162337,"Delta":434810702},{"NoteNumber":50,"Velocity":34,"Duration":1072927,"SoundDuration":1072927,"Delta":434881725},{"NoteNumber":57,"Velocity":36,"Duration":1042489,"SoundDuration":1042489,"Delta":434912163},{"NoteNumber":59,"Velocity":37,"Duration":1012051,"SoundDuration":1012051,"Delta":434942601},{"NoteNumber":78,"Velocity":54,"Duration":162337,"SoundDuration":162337,"Delta":434973040},{"NoteNumber":66,"Velocity":39,"Duration":981612,"SoundDuration":981612,"Delta":434973040},{"NoteNumber":92,"Velocity":51,"Duration":162337,"SoundDuration":162337,"Delta":435135377},{"NoteNumber":90,"Velocity":54,"Duration":175139,"SoundDuration":175139,"Delta":435297715},{"NoteNumber":97,"Velocity":58,"Duration":168318,"SoundDuration":168318,"Delta":435472855},{"NoteNumber":95,"Velocity":55,"Duration":156739,"SoundDuration":156739,"Delta":435641173},{"NoteNumber":90,"Velocity":55,"Duration":156739,"SoundDuration":156739,"Delta":435797913},{"NoteNumber":85,"Velocity":58,"Duration":160368,"SoundDuration":160368,"Delta":435954653},{"NoteNumber":66,"Velocity":45,"Duration":503296,"SoundDuration":503296,"Delta":435954653},{"NoteNumber":59,"Velocity":39,"Duration":503296,"SoundDuration":503296,"Delta":435954653},{"NoteNumber":51,"Velocity":39,"Duration":503296,"SoundDuration":503296,"Delta":435954653},{"NoteNumber":83,"Velocity":50,"Duration":160771,"SoundDuration":160771,"Delta":436115021},{"NoteNumber":78,"Velocity":50,"Duration":182156,"SoundDuration":182156,"Delta":436275793},{"NoteNumber":81,"Velocity":50,"Duration":182156,"SoundDuration":182156,"Delta":436275793},{"NoteNumber":80,"Velocity":56,"Duration":171399,"SoundDuration":171399,"Delta":436457949},{"NoteNumber":78,"Velocity":56,"Duration":171399,"SoundDuration":171399,"Delta":436457949},{"NoteNumber":52,"Velocity":43,"Duration":503625,"SoundDuration":503625,"Delta":436457949},{"NoteNumber":59,"Velocity":43,"Duration":503625,"SoundDuration":503625,"Delta":436457949},{"NoteNumber":68,"Velocity":48,"Duration":503625,"SoundDuration":503625,"Delta":436457949},{"NoteNumber":76,"Velocity":48,"Duration":166112,"SoundDuration":166112,"Delta":436629349},{"NoteNumber":73,"Velocity":48,"Duration":166112,"SoundDuration":166112,"Delta":436795462},{"NoteNumber":71,"Velocity":49,"Duration":166112,"SoundDuration":166112,"Delta":436961575},{"NoteNumber":56,"Velocity":36,"Duration":249169,"SoundDuration":249169,"Delta":436961575},{"NoteNumber":59,"Velocity":36,"Duration":249169,"SoundDuration":249169,"Delta":436961575},{"NoteNumber":68,"Velocity":47,"Duration":169310,"SoundDuration":169310,"Delta":437127688},{"NoteNumber":68,"Velocity":54,"Duration":181159,"SoundDuration":181159,"Delta":437296998},{"NoteNumber":64,"Velocity":47,"Duration":181159,"SoundDuration":181159,"Delta":437296998},{"NoteNumber":64,"Velocity":40,"Duration":168504,"SoundDuration":168504,"Delta":437478158},{"NoteNumber":69,"Velocity":55,"Duration":168504,"SoundDuration":168504,"Delta":437478158},{"NoteNumber":66,"Velocity":49,"Duration":168504,"SoundDuration":168504,"Delta":437478158},{"NoteNumber":47,"Velocity":36,"Duration":250204,"SoundDuration":250204,"Delta":437478158},{"NoteNumber":60,"Velocity":46,"Duration":163398,"SoundDuration":163398,"Delta":437646663},{"NoteNumber":59,"Velocity":46,"Duration":163398,"SoundDuration":163398,"Delta":437810061},{"NoteNumber":57,"Velocity":50,"Duration":163398,"SoundDuration":163398,"Delta":437973460},{"NoteNumber":63,"Velocity":39,"Duration":490196,"SoundDuration":490196,"Delta":437973460},{"NoteNumber":66,"Velocity":39,"Duration":490196,"SoundDuration":490196,"Delta":437973460},{"NoteNumber":71,"Velocity":52,"Duration":490196,"SoundDuration":490196,"Delta":437973460},{"NoteNumber":54,"Velocity":50,"Duration":163398,"SoundDuration":163398,"Delta":438136859},{"NoteNumber":51,"Velocity":50,"Duration":163398,"SoundDuration":163398,"Delta":438300257},{"NoteNumber":40,"Velocity":36,"Duration":546711,"SoundDuration":546711,"Delta":438402382},{"NoteNumber":44,"Velocity":36,"Duration":516074,"SoundDuration":516074,"Delta":438433019},{"NoteNumber":52,"Velocity":57,"Duration":161812,"SoundDuration":161812,"Delta":438463656},{"NoteNumber":56,"Velocity":45,"Duration":161812,"SoundDuration":161812,"Delta":438625468},{"NoteNumber":59,"Velocity":45,"Duration":161812,"SoundDuration":161812,"Delta":438787281},{"NoteNumber":52,"Velocity":36,"Duration":518518,"SoundDuration":518518,"Delta":438949093},{"NoteNumber":56,"Velocity":36,"Duration":518518,"SoundDuration":518518,"Delta":438949093},{"NoteNumber":64,"Velocity":49,"Duration":518518,"SoundDuration":518518,"Delta":438949093},{"NoteNumber":68,"Velocity":44,"Duration":351851,"SoundDuration":351851,"Delta":439115760},{"NoteNumber":78,"Velocity":44,"Duration":166666,"SoundDuration":166666,"Delta":439115760},{"NoteNumber":76,"Velocity":45,"Duration":185185,"SoundDuration":185185,"Delta":439282426},{"NoteNumber":75,"Velocity":48,"Duration":168239,"SoundDuration":168239,"Delta":439467612},{"NoteNumber":69,"Velocity":40,"Duration":330650,"SoundDuration":330650,"Delta":439467612},{"NoteNumber":60,"Velocity":45,"Duration":330650,"SoundDuration":330650,"Delta":439467612},{"NoteNumber":53,"Velocity":38,"Duration":168239,"SoundDuration":168239,"Delta":439467612},{"NoteNumber":74,"Velocity":50,"Duration":491252,"SoundDuration":491252,"Delta":439635851},{"NoteNumber":54,"Velocity":42,"Duration":162411,"SoundDuration":162411,"Delta":439635851},{"NoteNumber":65,"Velocity":47,"Duration":164542,"SoundDuration":164542,"Delta":439798263},{"NoteNumber":59,"Velocity":37,"Duration":328840,"SoundDuration":328840,"Delta":439798263},{"NoteNumber":55,"Velocity":30,"Duration":164542,"SoundDuration":164542,"Delta":439798263},{"NoteNumber":64,"Velocity":45,"Duration":164298,"SoundDuration":164298,"Delta":439962805},{"NoteNumber":56,"Velocity":39,"Duration":164298,"SoundDuration":164298,"Delta":439962805},{"NoteNumber":71,"Velocity":45,"Duration":175454,"SoundDuration":175454,"Delta":440127103},{"NoteNumber":68,"Velocity":37,"Duration":175454,"SoundDuration":175454,"Delta":440127103},{"NoteNumber":62,"Velocity":38,"Duration":175454,"SoundDuration":175454,"Delta":440127103},{"NoteNumber":52,"Velocity":32,"Duration":175454,"SoundDuration":175454,"Delta":440127103},{"NoteNumber":68,"Velocity":33,"Duration":184716,"SoundDuration":184716,"Delta":440302558},{"NoteNumber":73,"Velocity":45,"Duration":184716,"SoundDuration":184716,"Delta":440302558},{"NoteNumber":52,"Velocity":32,"Duration":184716,"SoundDuration":184716,"Delta":440302558},{"NoteNumber":64,"Velocity":39,"Duration":184716,"SoundDuration":184716,"Delta":440302558},{"NoteNumber":61,"Velocity":36,"Duration":504401,"SoundDuration":504401,"Delta":440487275},{"NoteNumber":69,"Velocity":51,"Duration":189394,"SoundDuration":189394,"Delta":440487275},{"NoteNumber":57,"Velocity":36,"Duration":269011,"SoundDuration":269011,"Delta":440487275},{"NoteNumber":45,"Velocity":30,"Duration":269011,"SoundDuration":269011,"Delta":440487275},{"NoteNumber":52,"Velocity":30,"Duration":269011,"SoundDuration":269011,"Delta":440487275},{"NoteNumber":71,"Velocity":45,"Duration":160786,"SoundDuration":160786,"Delta":440676669},{"NoteNumber":69,"Velocity":45,"Duration":162337,"SoundDuration":162337,"Delta":440837456},{"NoteNumber":68,"Velocity":47,"Duration":162337,"SoundDuration":162337,"Delta":440999793},{"NoteNumber":64,"Velocity":35,"Duration":243506,"SoundDuration":243506,"Delta":440999793},{"NoteNumber":61,"Velocity":29,"Duration":243506,"SoundDuration":243506,"Delta":440999793},{"NoteNumber":69,"Velocity":43,"Duration":162337,"SoundDuration":162337,"Delta":441162131},{"NoteNumber":71,"Velocity":43,"Duration":115191,"SoundDuration":115191,"Delta":441324469},{"NoteNumber":73,"Velocity":36,"Duration":36337,"SoundDuration":36337,"Delta":441439660},{"NoteNumber":74,"Velocity":36,"Duration":36337,"SoundDuration":36337,"Delta":441475997},{"NoteNumber":64,"Velocity":36,"Duration":481797,"SoundDuration":481797,"Delta":441512334},{"NoteNumber":69,"Velocity":36,"Duration":481797,"SoundDuration":481797,"Delta":441512334},{"NoteNumber":73,"Velocity":49,"Duration":168318,"SoundDuration":168318,"Delta":441512334},{"NoteNumber":45,"Velocity":36,"Duration":246688,"SoundDuration":246688,"Delta":441512334},{"NoteNumber":72,"Velocity":45,"Duration":156739,"SoundDuration":156739,"Delta":441680653},{"NoteNumber":74,"Velocity":45,"Duration":156739,"SoundDuration":156739,"Delta":441837392},{"NoteNumber":73,"Velocity":49,"Duration":156739,"SoundDuration":156739,"Delta":441994132},{"NoteNumber":61,"Velocity":33,"Duration":235109,"SoundDuration":235109,"Delta":441994132},{"NoteNumber":57,"Velocity":27,"Duration":235109,"SoundDuration":235109,"Delta":441994132},{"NoteNumber":52,"Velocity":27,"Duration":235109,"SoundDuration":235109,"Delta":441994132},{"NoteNumber":71,"Velocity":45,"Duration":156739,"SoundDuration":156739,"Delta":442150872},{"NoteNumber":69,"Velocity":45,"Duration":170068,"SoundDuration":170068,"Delta":442307612},{"NoteNumber":68,"Velocity":51,"Duration":189394,"SoundDuration":189394,"Delta":442477680},{"NoteNumber":38,"Velocity":41,"Duration":269011,"SoundDuration":269011,"Delta":442477680},{"NoteNumber":66,"Velocity":45,"Duration":160786,"SoundDuration":160786,"Delta":442667074},{"NoteNumber":80,"Velocity":52,"Duration":162337,"SoundDuration":162337,"Delta":442827861},{"NoteNumber":50,"Velocity":34,"Duration":983711,"SoundDuration":983711,"Delta":442929322},{"NoteNumber":59,"Velocity":37,"Duration":953273,"SoundDuration":953273,"Delta":442959760},{"NoteNumber":78,"Velocity":54,"Duration":162337,"SoundDuration":162337,"Delta":442990198},{"NoteNumber":66,"Velocity":39,"Duration":922835,"SoundDuration":922835,"Delta":442990198},{"NoteNumber":92,"Velocity":51,"Duration":162337,"SoundDuration":162337,"Delta":443152536},{"NoteNumber":90,"Velocity":54,"Duration":175139,"SoundDuration":175139,"Delta":443314874},{"NoteNumber":97,"Velocity":58,"Duration":168318,"SoundDuration":168318,"Delta":443490013},{"NoteNumber":95,"Velocity":55,"Duration":156739,"SoundDuration":156739,"Delta":443658331},{"NoteNumber":90,"Velocity":55,"Duration":156739,"SoundDuration":156739,"Delta":443815071},{"NoteNumber":50,"Velocity":39,"Duration":562073,"SoundDuration":562073,"Delta":443913034},{"NoteNumber":59,"Velocity":39,"Duration":532685,"SoundDuration":532685,"Delta":443942422},{"NoteNumber":85,"Velocity":58,"Duration":160368,"SoundDuration":160368,"Delta":443971811},{"NoteNumber":66,"Velocity":45,"Duration":503296,"SoundDuration":503296,"Delta":443971811},{"NoteNumber":83,"Velocity":50,"Duration":160771,"SoundDuration":160771,"Delta":444132180},{"NoteNumber":78,"Velocity":50,"Duration":182156,"SoundDuration":182156,"Delta":444292951},{"NoteNumber":81,"Velocity":50,"Duration":182156,"SoundDuration":182156,"Delta":444292951},{"NoteNumber":71,"Velocity":45,"Duration":321543,"SoundDuration":321543,"Delta":444475108},{"NoteNumber":74,"Velocity":45,"Duration":321543,"SoundDuration":321543,"Delta":444475108},{"NoteNumber":81,"Velocity":51,"Duration":160771,"SoundDuration":160771,"Delta":444475108},{"NoteNumber":40,"Velocity":47,"Duration":241157,"SoundDuration":241157,"Delta":444475108},{"NoteNumber":80,"Velocity":45,"Duration":160771,"SoundDuration":160771,"Delta":444635879},{"NoteNumber":90,"Velocity":52,"Duration":155763,"SoundDuration":155763,"Delta":444796651},{"NoteNumber":80,"Velocity":38,"Duration":311526,"SoundDuration":311526,"Delta":444796651},{"NoteNumber":83,"Velocity":38,"Duration":311526,"SoundDuration":311526,"Delta":444796651},{"NoteNumber":52,"Velocity":34,"Duration":325079,"SoundDuration":325079,"Delta":444864797},{"NoteNumber":59,"Velocity":36,"Duration":295873,"SoundDuration":295873,"Delta":444894003},{"NoteNumber":62,"Velocity":37,"Duration":266668,"SoundDuration":266668,"Delta":444923208},{"NoteNumber":88,"Velocity":54,"Duration":155763,"SoundDuration":155763,"Delta":444952414},{"NoteNumber":68,"Velocity":39,"Duration":237462,"SoundDuration":237462,"Delta":444952414},{"NoteNumber":85,"Velocity":51,"Duration":163398,"SoundDuration":163398,"Delta":445108177},{"NoteNumber":74,"Velocity":38,"Duration":326797,"SoundDuration":326797,"Delta":445108177},{"NoteNumber":80,"Velocity":38,"Duration":326797,"SoundDuration":326797,"Delta":445108177},{"NoteNumber":83,"Velocity":54,"Duration":163398,"SoundDuration":163398,"Delta":445271576},{"NoteNumber":71,"Velocity":45,"Duration":306748,"SoundDuration":306748,"Delta":445434975},{"NoteNumber":74,"Velocity":45,"Duration":306748,"SoundDuration":306748,"Delta":445434975},{"NoteNumber":81,"Velocity":58,"Duration":153374,"SoundDuration":153374,"Delta":445434975},{"NoteNumber":40,"Velocity":45,"Duration":230061,"SoundDuration":230061,"Delta":445434975},{"NoteNumber":80,"Velocity":55,"Duration":153374,"SoundDuration":153374,"Delta":445588349},{"NoteNumber":78,"Velocity":55,"Duration":153374,"SoundDuration":153374,"Delta":445741723},{"NoteNumber":68,"Velocity":38,"Duration":306748,"SoundDuration":306748,"Delta":445741723},{"NoteNumber":71,"Velocity":38,"Duration":306748,"SoundDuration":306748,"Delta":445741723},{"NoteNumber":52,"Velocity":34,"Duration":321346,"SoundDuration":321346,"Delta":445808824},{"NoteNumber":59,"Velocity":36,"Duration":292588,"SoundDuration":292588,"Delta":445837582},{"NoteNumber":62,"Velocity":37,"Duration":263831,"SoundDuration":263831,"Delta":445866339},{"NoteNumber":76,"Velocity":58,"Duration":153374,"SoundDuration":153374,"Delta":445895097},{"NoteNumber":64,"Velocity":39,"Duration":235073,"SoundDuration":235073,"Delta":445895097},{"NoteNumber":78,"Velocity":50,"Duration":163398,"SoundDuration":163398,"Delta":446048471},{"NoteNumber":71,"Velocity":38,"Duration":327083,"SoundDuration":327083,"Delta":446048471},{"NoteNumber":74,"Velocity":38,"Duration":327083,"SoundDuration":327083,"Delta":446048471},{"NoteNumber":80,"Velocity":50,"Duration":163684,"SoundDuration":163684,"Delta":446211870},{"NoteNumber":49,"Velocity":40,"Duration":556991,"SoundDuration":556991,"Delta":446313994},{"NoteNumber":57,"Velocity":40,"Duration":526354,"SoundDuration":526354,"Delta":446344631},{"NoteNumber":73,"Velocity":52,"Duration":249760,"SoundDuration":249760,"Delta":446375554},{"NoteNumber":81,"Velocity":52,"Duration":166666,"SoundDuration":166666,"Delta":446375554},{"NoteNumber":64,"Velocity":47,"Duration":249760,"SoundDuration":249760,"Delta":446375554},{"NoteNumber":76,"Velocity":54,"Duration":165061,"SoundDuration":165061,"Delta":446542221},{"NoteNumber":85,"Velocity":54,"Duration":165061,"SoundDuration":165061,"Delta":446542221},{"NoteNumber":73,"Velocity":46,"Duration":245670,"SoundDuration":245670,"Delta":446625315},{"NoteNumber":64,"Velocity":39,"Duration":245670,"SoundDuration":245670,"Delta":446625315},{"NoteNumber":69,"Velocity":39,"Duration":245670,"SoundDuration":245670,"Delta":446625315},{"NoteNumber":81,"Velocity":56,"Duration":163703,"SoundDuration":163703,"Delta":446707283},{"NoteNumber":88,"Velocity":56,"Duration":163703,"SoundDuration":163703,"Delta":446707283},{"NoteNumber":85,"Velocity":59,"Duration":161290,"SoundDuration":161290,"Delta":446870986},{"NoteNumber":93,"Velocity":59,"Duration":161290,"SoundDuration":161290,"Delta":446870986},{"NoteNumber":76,"Velocity":54,"Duration":512904,"SoundDuration":512904,"Delta":446870986},{"NoteNumber":61,"Velocity":45,"Duration":512904,"SoundDuration":512904,"Delta":446870986},{"NoteNumber":69,"Velocity":45,"Duration":512904,"SoundDuration":512904,"Delta":446870986},{"NoteNumber":88,"Velocity":62,"Duration":159306,"SoundDuration":159306,"Delta":447032276},{"NoteNumber":97,"Velocity":62,"Duration":159306,"SoundDuration":159306,"Delta":447032276},{"NoteNumber":93,"Velocity":63,"Duration":192307,"SoundDuration":192307,"Delta":447191582},{"NoteNumber":100,"Velocity":63,"Duration":192307,"SoundDuration":192307,"Delta":447191582},{"NoteNumber":100,"Velocity":66,"Duration":322580,"SoundDuration":322580,"Delta":447383890},{"NoteNumber":95,"Velocity":66,"Duration":161290,"SoundDuration":161290,"Delta":447383890},{"NoteNumber":56,"Velocity":47,"Duration":483871,"SoundDuration":483871,"Delta":447383890},{"NoteNumber":44,"Velocity":40,"Duration":483871,"SoundDuration":483871,"Delta":447383890},{"NoteNumber":52,"Velocity":40,"Duration":483871,"SoundDuration":483871,"Delta":447383890},{"NoteNumber":88,"Velocity":65,"Duration":161290,"SoundDuration":161290,"Delta":447545180},{"NoteNumber":76,"Velocity":58,"Duration":483870,"SoundDuration":483870,"Delta":447625825},{"NoteNumber":64,"Velocity":49,"Duration":483870,"SoundDuration":483870,"Delta":447625825},{"NoteNumber":71,"Velocity":49,"Duration":483870,"SoundDuration":483870,"Delta":447625825},{"NoteNumber":95,"Velocity":64,"Duration":322580,"SoundDuration":322580,"Delta":447706471},{"NoteNumber":88,"Velocity":64,"Duration":161290,"SoundDuration":161290,"Delta":447706471},{"NoteNumber":83,"Velocity":63,"Duration":161290,"SoundDuration":161290,"Delta":447867761},{"NoteNumber":88,"Velocity":63,"Duration":337836,"SoundDuration":337836,"Delta":448029051},{"NoteNumber":83,"Velocity":63,"Duration":161290,"SoundDuration":161290,"Delta":448029051},{"NoteNumber":71,"Velocity":47,"Duration":257190,"SoundDuration":257190,"Delta":448109696},{"NoteNumber":59,"Velocity":40,"Duration":257190,"SoundDuration":257190,"Delta":448109696},{"NoteNumber":68,"Velocity":40,"Duration":257190,"SoundDuration":257190,"Delta":448109696},{"NoteNumber":76,"Velocity":62,"Duration":176545,"SoundDuration":176545,"Delta":448190342},{"NoteNumber":76,"Velocity":54,"Duration":321878,"SoundDuration":321878,"Delta":448366887},{"NoteNumber":88,"Velocity":61,"Duration":321878,"SoundDuration":321878,"Delta":448366887},{"NoteNumber":86,"Velocity":61,"Duration":159563,"SoundDuration":159563,"Delta":448366887},{"NoteNumber":57,"Velocity":54,"Duration":487041,"SoundDuration":487041,"Delta":448366887},{"NoteNumber":45,"Velocity":45,"Duration":487041,"SoundDuration":487041,"Delta":448366887},{"NoteNumber":52,"Velocity":45,"Duration":487041,"SoundDuration":487041,"Delta":448366887},{"NoteNumber":85,"Velocity":61,"Duration":162315,"SoundDuration":162315,"Delta":448526451},{"NoteNumber":76,"Velocity":53,"Duration":333275,"SoundDuration":333275,"Delta":448688766},{"NoteNumber":88,"Velocity":60,"Duration":333275,"SoundDuration":333275,"Delta":448688766},{"NoteNumber":84,"Velocity":60,"Duration":165162,"SoundDuration":165162,"Delta":448688766},{"NoteNumber":72,"Velocity":45,"Duration":165162,"SoundDuration":165162,"Delta":448688766},{"NoteNumber":64,"Velocity":41,"Duration":165162,"SoundDuration":165162,"Delta":448688766},{"NoteNumber":83,"Velocity":60,"Duration":168112,"SoundDuration":168112,"Delta":448853929},{"NoteNumber":71,"Velocity":45,"Duration":168112,"SoundDuration":168112,"Delta":448853929},{"NoteNumber":63,"Velocity":41,"Duration":168112,"SoundDuration":168112,"Delta":448853929},{"NoteNumber":76,"Velocity":53,"Duration":370807,"SoundDuration":370807,"Delta":449022041},{"NoteNumber":88,"Velocity":59,"Duration":370807,"SoundDuration":370807,"Delta":449022041},{"NoteNumber":82,"Velocity":59,"Duration":193006,"SoundDuration":193006,"Delta":449022041},{"NoteNumber":70,"Velocity":45,"Duration":193006,"SoundDuration":193006,"Delta":449022041},{"NoteNumber":62,"Velocity":40,"Duration":193006,"SoundDuration":193006,"Delta":449022041},{"NoteNumber":81,"Velocity":58,"Duration":177800,"SoundDuration":177800,"Delta":449215048},{"NoteNumber":69,"Velocity":45,"Duration":177800,"SoundDuration":177800,"Delta":449215048},{"NoteNumber":61,"Velocity":40,"Duration":177800,"SoundDuration":177800,"Delta":449215048},{"NoteNumber":52,"Velocity":45,"Duration":1467792,"SoundDuration":1467792,"Delta":449328193},{"NoteNumber":61,"Velocity":36,"Duration":212207,"SoundDuration":212207,"Delta":449360521},{"NoteNumber":76,"Velocity":49,"Duration":372166,"SoundDuration":372166,"Delta":449392849},{"NoteNumber":88,"Velocity":54,"Duration":372166,"SoundDuration":372166,"Delta":449392849},{"NoteNumber":81,"Velocity":54,"Duration":179880,"SoundDuration":179880,"Delta":449392849},{"NoteNumber":69,"Velocity":41,"Duration":179880,"SoundDuration":179880,"Delta":449392849},{"NoteNumber":80,"Velocity":54,"Duration":192286,"SoundDuration":192286,"Delta":449572729},{"NoteNumber":60,"Velocity":36,"Duration":192286,"SoundDuration":192286,"Delta":449572729},{"NoteNumber":68,"Velocity":41,"Duration":192286,"SoundDuration":192286,"Delta":449572729},{"NoteNumber":76,"Velocity":48,"Duration":622806,"SoundDuration":622806,"Delta":449765015},{"NoteNumber":88,"Velocity":53,"Duration":622806,"SoundDuration":622806,"Delta":449765015},{"NoteNumber":81,"Velocity":53,"Duration":206140,"SoundDuration":206140,"Delta":449765015},{"NoteNumber":61,"Velocity":36,"Duration":206140,"SoundDuration":206140,"Delta":449765015},{"NoteNumber":69,"Velocity":40,"Duration":206140,"SoundDuration":206140,"Delta":449765015},{"NoteNumber":85,"Velocity":53,"Duration":416666,"SoundDuration":416666,"Delta":449971156},{"NoteNumber":64,"Velocity":31,"Duration":416666,"SoundDuration":416666,"Delta":449971156},{"NoteNumber":73,"Velocity":38,"Duration":416666,"SoundDuration":416666,"Delta":449971156},{"NoteNumber":76,"Velocity":38,"Duration":408163,"SoundDuration":408163,"Delta":450387822},{"NoteNumber":88,"Velocity":49,"Duration":408163,"SoundDuration":408163,"Delta":450387822},{"NoteNumber":84,"Velocity":45,"Duration":204081,"SoundDuration":204081,"Delta":450387822},{"NoteNumber":68,"Velocity":32,"Duration":408163,"SoundDuration":408163,"Delta":450387822},{"NoteNumber":63,"Velocity":30,"Duration":204081,"SoundDuration":204081,"Delta":450387822},{"NoteNumber":72,"Velocity":36,"Duration":204081,"SoundDuration":204081,"Delta":450387822},{"NoteNumber":83,"Velocity":50,"Duration":140306,"SoundDuration":140306,"Delta":450591904},{"NoteNumber":62,"Velocity":32,"Duration":140306,"SoundDuration":140306,"Delta":450591904},{"NoteNumber":71,"Velocity":36,"Duration":140306,"SoundDuration":140306,"Delta":450591904},{"NoteNumber":57,"Velocity":36,"Duration":323410,"SoundDuration":323410,"Delta":450732210},{"NoteNumber":64,"Velocity":36,"Duration":310655,"SoundDuration":310655,"Delta":450744965},{"NoteNumber":69,"Velocity":36,"Duration":297900,"SoundDuration":297900,"Delta":450757720},{"NoteNumber":73,"Velocity":49,"Duration":203446,"SoundDuration":203446,"Delta":450770475},{"NoteNumber":81,"Velocity":54,"Duration":190691,"SoundDuration":190691,"Delta":450783230},{"NoteNumber":88,"Velocity":56,"Duration":177935,"SoundDuration":177935,"Delta":450795986},{"NoteNumber":69,"Velocity":55,"Duration":122548,"SoundDuration":122548,"Delta":450973922},{"NoteNumber":85,"Velocity":55,"Duration":122548,"SoundDuration":122548,"Delta":451137320},{"NoteNumber":45,"Velocity":38,"Duration":287860,"SoundDuration":287860,"Delta":451239444},{"NoteNumber":52,"Velocity":38,"Duration":257223,"SoundDuration":257223,"Delta":451270082},{"NoteNumber":73,"Velocity":61,"Duration":113292,"SoundDuration":113292,"Delta":451300719},{"NoteNumber":61,"Velocity":38,"Duration":226585,"SoundDuration":226585,"Delta":451300719},{"NoteNumber":88,"Velocity":53,"Duration":113292,"SoundDuration":113292,"Delta":451414012},{"NoteNumber":76,"Velocity":61,"Duration":113292,"SoundDuration":113292,"Delta":451527305},{"NoteNumber":97,"Velocity":53,"Duration":113292,"SoundDuration":113292,"Delta":451640598},{"NoteNumber":93,"Velocity":61,"Duration":272727,"SoundDuration":272727,"Delta":451753891},{"NoteNumber":81,"Velocity":61,"Duration":272727,"SoundDuration":272727,"Delta":451753891},{"NoteNumber":45,"Velocity":38,"Duration":272727,"SoundDuration":272727,"Delta":451753891},{"NoteNumber":49,"Velocity":38,"Duration":272727,"SoundDuration":272727,"Delta":451753891},{"NoteNumber":57,"Velocity":38,"Duration":272727,"SoundDuration":272727,"Delta":451753891},{"NoteNumber":51,"Velocity":57,"Duration":173611,"SoundDuration":173611,"Delta":452299345},{"NoteNumber":52,"Velocity":53,"Duration":173611,"SoundDuration":173611,"Delta":452472957},{"NoteNumber":61,"Velocity":53,"Duration":173611,"SoundDuration":173611,"Delta":452646568},{"NoteNumber":57,"Velocity":45,"Duration":173611,"SoundDuration":173611,"Delta":452646568},{"NoteNumber":59,"Velocity":58,"Duration":170648,"SoundDuration":170648,"Delta":452820179},{"NoteNumber":56,"Velocity":49,"Duration":170648,"SoundDuration":170648,"Delta":452820179},{"NoteNumber":40,"Velocity":54,"Duration":255972,"SoundDuration":255972,"Delta":452820179},{"NoteNumber":56,"Velocity":50,"Duration":170648,"SoundDuration":170648,"Delta":452990827},{"NoteNumber":52,"Velocity":42,"Duration":170648,"SoundDuration":170648,"Delta":452990827},{"NoteNumber":57,"Velocity":50,"Duration":170648,"SoundDuration":170648,"Delta":453161476},{"NoteNumber":54,"Velocity":42,"Duration":170648,"SoundDuration":170648,"Delta":453161476},{"NoteNumber":59,"Velocity":52,"Duration":159744,"SoundDuration":159744,"Delta":453332124},{"NoteNumber":56,"Velocity":44,"Duration":159744,"SoundDuration":159744,"Delta":453332124},{"NoteNumber":71,"Velocity":54,"Duration":239616,"SoundDuration":239616,"Delta":453332124},{"NoteNumber":68,"Velocity":45,"Duration":239616,"SoundDuration":239616,"Delta":453332124},{"NoteNumber":61,"Velocity":52,"Duration":159744,"SoundDuration":159744,"Delta":453491869},{"NoteNumber":57,"Velocity":44,"Duration":159744,"SoundDuration":159744,"Delta":453491869},{"NoteNumber":68,"Velocity":45,"Duration":239616,"SoundDuration":239616,"Delta":453571741},{"NoteNumber":64,"Velocity":38,"Duration":239616,"SoundDuration":239616,"Delta":453571741},{"NoteNumber":63,"Velocity":54,"Duration":159744,"SoundDuration":159744,"Delta":453651613},{"NoteNumber":59,"Velocity":45,"Duration":159744,"SoundDuration":159744,"Delta":453651613},{"NoteNumber":64,"Velocity":58,"Duration":165016,"SoundDuration":165016,"Delta":453811357},{"NoteNumber":61,"Velocity":49,"Duration":165016,"SoundDuration":165016,"Delta":453811357},{"NoteNumber":52,"Velocity":51,"Duration":247524,"SoundDuration":247524,"Delta":453811357},{"NoteNumber":63,"Velocity":54,"Duration":165016,"SoundDuration":165016,"Delta":453976374},{"NoteNumber":60,"Velocity":45,"Duration":165016,"SoundDuration":165016,"Delta":453976374},{"NoteNumber":66,"Velocity":54,"Duration":165016,"SoundDuration":165016,"Delta":454141390},{"NoteNumber":63,"Velocity":45,"Duration":165016,"SoundDuration":165016,"Delta":454141390},{"NoteNumber":64,"Velocity":54,"Duration":165016,"SoundDuration":165016,"Delta":454306407},{"NoteNumber":61,"Velocity":45,"Duration":165016,"SoundDuration":165016,"Delta":454306407},{"NoteNumber":76,"Velocity":54,"Duration":247524,"SoundDuration":247524,"Delta":454306407},{"NoteNumber":73,"Velocity":45,"Duration":247524,"SoundDuration":247524,"Delta":454306407},{"NoteNumber":63,"Velocity":54,"Duration":165016,"SoundDuration":165016,"Delta":454471423},{"NoteNumber":59,"Velocity":45,"Duration":165016,"SoundDuration":165016,"Delta":454471423},{"NoteNumber":73,"Velocity":47,"Duration":269075,"SoundDuration":269075,"Delta":454553932},{"NoteNumber":69,"Velocity":40,"Duration":269075,"SoundDuration":269075,"Delta":454553932},{"NoteNumber":61,"Velocity":54,"Duration":186567,"SoundDuration":186567,"Delta":454636440},{"NoteNumber":57,"Velocity":45,"Duration":186567,"SoundDuration":186567,"Delta":454636440},{"NoteNumber":58,"Velocity":59,"Duration":162337,"SoundDuration":162337,"Delta":454823007},{"NoteNumber":55,"Velocity":50,"Duration":162337,"SoundDuration":162337,"Delta":454823007},{"NoteNumber":40,"Velocity":53,"Duration":243506,"SoundDuration":243506,"Delta":454823007},{"NoteNumber":59,"Velocity":51,"Duration":162337,"SoundDuration":162337,"Delta":454985345},{"NoteNumber":56,"Velocity":43,"Duration":162337,"SoundDuration":162337,"Delta":454985345},{"NoteNumber":56,"Velocity":51,"Duration":162337,"SoundDuration":162337,"Delta":455147682},{"NoteNumber":52,"Velocity":43,"Duration":162337,"SoundDuration":162337,"Delta":455147682},{"NoteNumber":59,"Velocity":53,"Duration":162337,"SoundDuration":162337,"Delta":455310020},{"NoteNumber":56,"Velocity":45,"Duration":162337,"SoundDuration":162337,"Delta":455310020},{"NoteNumber":71,"Velocity":54,"Duration":324675,"SoundDuration":324675,"Delta":455310020},{"NoteNumber":68,"Velocity":45,"Duration":324675,"SoundDuration":324675,"Delta":455310020},{"NoteNumber":64,"Velocity":50,"Duration":162337,"SoundDuration":162337,"Delta":455472358},{"NoteNumber":59,"Velocity":42,"Duration":162337,"SoundDuration":162337,"Delta":455472358},{"NoteNumber":68,"Velocity":50,"Duration":162337,"SoundDuration":162337,"Delta":455634695},{"NoteNumber":64,"Velocity":47,"Duration":162337,"SoundDuration":162337,"Delta":455634695},{"NoteNumber":71,"Velocity":53,"Duration":157232,"SoundDuration":157232,"Delta":455797033},{"NoteNumber":68,"Velocity":53,"Duration":157232,"SoundDuration":157232,"Delta":455797033},{"NoteNumber":76,"Velocity":54,"Duration":157232,"SoundDuration":157232,"Delta":455954266},{"NoteNumber":71,"Velocity":45,"Duration":157232,"SoundDuration":157232,"Delta":455954266},{"NoteNumber":80,"Velocity":55,"Duration":157232,"SoundDuration":157232,"Delta":456111498},{"NoteNumber":76,"Velocity":46,"Duration":157232,"SoundDuration":157232,"Delta":456111498},{"NoteNumber":83,"Velocity":58,"Duration":82508,"SoundDuration":82508,"Delta":456268731},{"NoteNumber":80,"Velocity":49,"Duration":82508,"SoundDuration":82508,"Delta":456268731},{"NoteNumber":83,"Velocity":54,"Duration":82508,"SoundDuration":82508,"Delta":456433748},{"NoteNumber":80,"Velocity":45,"Duration":82508,"SoundDuration":82508,"Delta":456433748},{"NoteNumber":83,"Velocity":54,"Duration":82508,"SoundDuration":82508,"Delta":456598764},{"NoteNumber":80,"Velocity":45,"Duration":82508,"SoundDuration":82508,"Delta":456598764},{"NoteNumber":83,"Velocity":58,"Duration":81168,"SoundDuration":81168,"Delta":456763781},{"NoteNumber":80,"Velocity":49,"Duration":81168,"SoundDuration":81168,"Delta":456763781},{"NoteNumber":51,"Velocity":54,"Duration":1962392,"SoundDuration":1962392,"Delta":456763781},{"NoteNumber":83,"Velocity":54,"Duration":81168,"SoundDuration":81168,"Delta":456926118},{"NoteNumber":80,"Velocity":45,"Duration":81168,"SoundDuration":81168,"Delta":456926118},{"NoteNumber":71,"Velocity":49,"Duration":182629,"SoundDuration":182629,"Delta":457007287},{"NoteNumber":59,"Velocity":41,"Duration":182629,"SoundDuration":182629,"Delta":457007287},{"NoteNumber":66,"Velocity":41,"Duration":182629,"SoundDuration":182629,"Delta":457007287},{"NoteNumber":83,"Velocity":54,"Duration":81168,"SoundDuration":81168,"Delta":457088456},{"NoteNumber":80,"Velocity":45,"Duration":81168,"SoundDuration":81168,"Delta":457088456},{"NoteNumber":83,"Velocity":56,"Duration":162337,"SoundDuration":162337,"Delta":457250794},{"NoteNumber":80,"Velocity":47,"Duration":162337,"SoundDuration":162337,"Delta":457250794},{"NoteNumber":71,"Velocity":49,"Duration":182629,"SoundDuration":182629,"Delta":457250794},{"NoteNumber":59,"Velocity":41,"Duration":182629,"SoundDuration":182629,"Delta":457250794},{"NoteNumber":66,"Velocity":41,"Duration":182629,"SoundDuration":182629,"Delta":457250794},{"NoteNumber":85,"Velocity":54,"Duration":162337,"SoundDuration":162337,"Delta":457413131},{"NoteNumber":81,"Velocity":45,"Duration":162337,"SoundDuration":162337,"Delta":457413131},{"NoteNumber":71,"Velocity":49,"Duration":191592,"SoundDuration":191592,"Delta":457494300},{"NoteNumber":59,"Velocity":41,"Duration":191592,"SoundDuration":191592,"Delta":457494300},{"NoteNumber":66,"Velocity":41,"Duration":191592,"SoundDuration":191592,"Delta":457494300},{"NoteNumber":83,"Velocity":54,"Duration":88339,"SoundDuration":88339,"Delta":457575469},{"NoteNumber":80,"Velocity":45,"Duration":88339,"SoundDuration":88339,"Delta":457575469},{"NoteNumber":82,"Velocity":58,"Duration":162337,"SoundDuration":162337,"Delta":457752147},{"NoteNumber":79,"Velocity":49,"Duration":162337,"SoundDuration":162337,"Delta":457752147},{"NoteNumber":70,"Velocity":52,"Duration":243506,"SoundDuration":243506,"Delta":457752147},{"NoteNumber":59,"Velocity":44,"Duration":243506,"SoundDuration":243506,"Delta":457752147},{"NoteNumber":66,"Velocity":44,"Duration":243506,"SoundDuration":243506,"Delta":457752147},{"NoteNumber":83,"Velocity":54,"Duration":162337,"SoundDuration":162337,"Delta":457914485},{"NoteNumber":80,"Velocity":45,"Duration":162337,"SoundDuration":162337,"Delta":457914485},{"NoteNumber":71,"Velocity":51,"Duration":182629,"SoundDuration":182629,"Delta":457995654},{"NoteNumber":59,"Velocity":43,"Duration":182629,"SoundDuration":182629,"Delta":457995654},{"NoteNumber":66,"Velocity":43,"Duration":182629,"SoundDuration":182629,"Delta":457995654},{"NoteNumber":82,"Velocity":54,"Duration":81168,"SoundDuration":81168,"Delta":458076823},{"NoteNumber":79,"Velocity":45,"Duration":81168,"SoundDuration":81168,"Delta":458076823},{"NoteNumber":81,"Velocity":57,"Duration":162337,"SoundDuration":162337,"Delta":458239160},{"NoteNumber":78,"Velocity":48,"Duration":162337,"SoundDuration":162337,"Delta":458239160},{"NoteNumber":69,"Velocity":54,"Duration":243506,"SoundDuration":243506,"Delta":458239160},{"NoteNumber":59,"Velocity":45,"Duration":243506,"SoundDuration":243506,"Delta":458239160},{"NoteNumber":66,"Velocity":45,"Duration":243506,"SoundDuration":243506,"Delta":458239160},{"NoteNumber":83,"Velocity":54,"Duration":162337,"SoundDuration":162337,"Delta":458401498},{"NoteNumber":80,"Velocity":45,"Duration":162337,"SoundDuration":162337,"Delta":458401498},{"NoteNumber":71,"Velocity":51,"Duration":182629,"SoundDuration":182629,"Delta":458482667},{"NoteNumber":59,"Velocity":43,"Duration":182629,"SoundDuration":182629,"Delta":458482667},{"NoteNumber":66,"Velocity":43,"Duration":182629,"SoundDuration":182629,"Delta":458482667},{"NoteNumber":81,"Velocity":54,"Duration":162337,"SoundDuration":162337,"Delta":458563836},{"NoteNumber":78,"Velocity":45,"Duration":162337,"SoundDuration":162337,"Delta":458563836},{"NoteNumber":52,"Velocity":43,"Duration":565408,"SoundDuration":565408,"Delta":458665297},{"NoteNumber":59,"Velocity":45,"Duration":534969,"SoundDuration":534969,"Delta":458695735},{"NoteNumber":80,"Velocity":57,"Duration":179856,"SoundDuration":179856,"Delta":458726173},{"NoteNumber":76,"Velocity":48,"Duration":179856,"SoundDuration":179856,"Delta":458726173},{"NoteNumber":68,"Velocity":54,"Duration":504531,"SoundDuration":504531,"Delta":458726173},{"NoteNumber":95,"Velocity":58,"Duration":162337,"SoundDuration":162337,"Delta":458906030},{"NoteNumber":92,"Velocity":49,"Duration":162337,"SoundDuration":162337,"Delta":458906030},{"NoteNumber":93,"Velocity":55,"Duration":162337,"SoundDuration":162337,"Delta":459068367},{"NoteNumber":90,"Velocity":46,"Duration":162337,"SoundDuration":162337,"Delta":459068367},{"NoteNumber":92,"Velocity":54,"Duration":162337,"SoundDuration":162337,"Delta":459230705},{"NoteNumber":88,"Velocity":45,"Duration":162337,"SoundDuration":162337,"Delta":459230705},{"NoteNumber":71,"Velocity":54,"Duration":243506,"SoundDuration":243506,"Delta":459230705},{"NoteNumber":64,"Velocity":45,"Duration":243506,"SoundDuration":243506,"Delta":459230705},{"NoteNumber":68,"Velocity":45,"Duration":243506,"SoundDuration":243506,"Delta":459230705},{"NoteNumber":83,"Velocity":54,"Duration":162337,"SoundDuration":162337,"Delta":459393043},{"NoteNumber":80,"Velocity":45,"Duration":162337,"SoundDuration":162337,"Delta":459393043},{"NoteNumber":81,"Velocity":52,"Duration":162337,"SoundDuration":162337,"Delta":459555380},{"NoteNumber":78,"Velocity":44,"Duration":162337,"SoundDuration":162337,"Delta":459555380},{"NoteNumber":80,"Velocity":54,"Duration":232683,"SoundDuration":232683,"Delta":459717718},{"NoteNumber":76,"Velocity":45,"Duration":232683,"SoundDuration":232683,"Delta":459717718},{"NoteNumber":71,"Velocity":53,"Duration":162337,"SoundDuration":162337,"Delta":459869233},{"NoteNumber":68,"Velocity":45,"Duration":162337,"SoundDuration":162337,"Delta":459869233},{"NoteNumber":69,"Velocity":53,"Duration":162337,"SoundDuration":162337,"Delta":460031571},{"NoteNumber":66,"Velocity":45,"Duration":162337,"SoundDuration":162337,"Delta":460031571},{"NoteNumber":68,"Velocity":53,"Duration":185185,"SoundDuration":185185,"Delta":460193908},{"NoteNumber":64,"Velocity":45,"Duration":185185,"SoundDuration":185185,"Delta":460193908},{"NoteNumber":56,"Velocity":54,"Duration":120967,"SoundDuration":120967,"Delta":460379094},{"NoteNumber":52,"Velocity":45,"Duration":120967,"SoundDuration":120967,"Delta":460379094},{"NoteNumber":57,"Velocity":54,"Duration":120967,"SoundDuration":120967,"Delta":460540384},{"NoteNumber":54,"Velocity":45,"Duration":120967,"SoundDuration":120967,"Delta":460540384},{"NoteNumber":59,"Velocity":58,"Duration":170648,"SoundDuration":170648,"Delta":460701674},{"NoteNumber":56,"Velocity":49,"Duration":170648,"SoundDuration":170648,"Delta":460701674},{"NoteNumber":40,"Velocity":54,"Duration":255972,"SoundDuration":255972,"Delta":460701674},{"NoteNumber":56,"Velocity":50,"Duration":170648,"SoundDuration":170648,"Delta":460872323},{"NoteNumber":52,"Velocity":42,"Duration":170648,"SoundDuration":170648,"Delta":460872323},{"NoteNumber":57,"Velocity":50,"Duration":170648,"SoundDuration":170648,"Delta":461042971},{"NoteNumber":54,"Velocity":42,"Duration":170648,"SoundDuration":170648,"Delta":461042971},{"NoteNumber":59,"Velocity":52,"Duration":159744,"SoundDuration":159744,"Delta":461213620},{"NoteNumber":56,"Velocity":44,"Duration":159744,"SoundDuration":159744,"Delta":461213620},{"NoteNumber":71,"Velocity":54,"Duration":239616,"SoundDuration":239616,"Delta":461213620},{"NoteNumber":68,"Velocity":45,"Duration":239616,"SoundDuration":239616,"Delta":461213620},{"NoteNumber":61,"Velocity":52,"Duration":159744,"SoundDuration":159744,"Delta":461373364},{"NoteNumber":57,"Velocity":44,"Duration":159744,"SoundDuration":159744,"Delta":461373364},{"NoteNumber":68,"Velocity":45,"Duration":239616,"SoundDuration":239616,"Delta":461453236},{"NoteNumber":64,"Velocity":38,"Duration":239616,"SoundDuration":239616,"Delta":461453236},{"NoteNumber":63,"Velocity":54,"Duration":159744,"SoundDuration":159744,"Delta":461533108},{"NoteNumber":59,"Velocity":45,"Duration":159744,"SoundDuration":159744,"Delta":461533108},{"NoteNumber":64,"Velocity":58,"Duration":165016,"SoundDuration":165016,"Delta":461692853},{"NoteNumber":61,"Velocity":49,"Duration":165016,"SoundDuration":165016,"Delta":461692853},{"NoteNumber":52,"Velocity":51,"Duration":247524,"SoundDuration":247524,"Delta":461692853},{"NoteNumber":63,"Velocity":54,"Duration":165016,"SoundDuration":165016,"Delta":461857869},{"NoteNumber":60,"Velocity":45,"Duration":165016,"SoundDuration":165016,"Delta":461857869},{"NoteNumber":66,"Velocity":54,"Duration":165016,"SoundDuration":165016,"Delta":462022886},{"NoteNumber":63,"Velocity":45,"Duration":165016,"SoundDuration":165016,"Delta":462022886},{"NoteNumber":64,"Velocity":54,"Duration":165016,"SoundDuration":165016,"Delta":462187902},{"NoteNumber":61,"Velocity":45,"Duration":165016,"SoundDuration":165016,"Delta":462187902},{"NoteNumber":76,"Velocity":54,"Duration":247524,"SoundDuration":247524,"Delta":462187902},{"NoteNumber":73,"Velocity":45,"Duration":247524,"SoundDuration":247524,"Delta":462187902},{"NoteNumber":63,"Velocity":54,"Duration":165016,"SoundDuration":165016,"Delta":462352919},{"NoteNumber":59,"Velocity":45,"Duration":165016,"SoundDuration":165016,"Delta":462352919},{"NoteNumber":73,"Velocity":47,"Duration":269075,"SoundDuration":269075,"Delta":462435427},{"NoteNumber":69,"Velocity":40,"Duration":269075,"SoundDuration":269075,"Delta":462435427},{"NoteNumber":61,"Velocity":54,"Duration":186567,"SoundDuration":186567,"Delta":462517935},{"NoteNumber":57,"Velocity":45,"Duration":186567,"SoundDuration":186567,"Delta":462517935},{"NoteNumber":58,"Velocity":59,"Duration":162337,"SoundDuration":162337,"Delta":462704502},{"NoteNumber":55,"Velocity":50,"Duration":162337,"SoundDuration":162337,"Delta":462704502},{"NoteNumber":40,"Velocity":53,"Duration":243506,"SoundDuration":243506,"Delta":462704502},{"NoteNumber":59,"Velocity":51,"Duration":162337,"SoundDuration":162337,"Delta":462866840},{"NoteNumber":56,"Velocity":43,"Duration":162337,"SoundDuration":162337,"Delta":462866840},{"NoteNumber":56,"Velocity":51,"Duration":162337,"SoundDuration":162337,"Delta":463029178},{"NoteNumber":52,"Velocity":43,"Duration":162337,"SoundDuration":162337,"Delta":463029178},{"NoteNumber":59,"Velocity":53,"Duration":162337,"SoundDuration":162337,"Delta":463191515},{"NoteNumber":56,"Velocity":45,"Duration":162337,"SoundDuration":162337,"Delta":463191515},{"NoteNumber":71,"Velocity":54,"Duration":324675,"SoundDuration":324675,"Delta":463191515},{"NoteNumber":68,"Velocity":45,"Duration":324675,"SoundDuration":324675,"Delta":463191515},{"NoteNumber":64,"Velocity":50,"Duration":162337,"SoundDuration":162337,"Delta":463353853},{"NoteNumber":59,"Velocity":42,"Duration":162337,"SoundDuration":162337,"Delta":463353853},{"NoteNumber":68,"Velocity":50,"Duration":162337,"SoundDuration":162337,"Delta":463516191},{"NoteNumber":64,"Velocity":47,"Duration":162337,"SoundDuration":162337,"Delta":463516191},{"NoteNumber":71,"Velocity":53,"Duration":157232,"SoundDuration":157232,"Delta":463678528},{"NoteNumber":68,"Velocity":53,"Duration":157232,"SoundDuration":157232,"Delta":463678528},{"NoteNumber":76,"Velocity":54,"Duration":157232,"SoundDuration":157232,"Delta":463835761},{"NoteNumber":71,"Velocity":45,"Duration":157232,"SoundDuration":157232,"Delta":463835761},{"NoteNumber":80,"Velocity":55,"Duration":157232,"SoundDuration":157232,"Delta":463992994},{"NoteNumber":76,"Velocity":46,"Duration":157232,"SoundDuration":157232,"Delta":463992994},{"NoteNumber":83,"Velocity":58,"Duration":82508,"SoundDuration":82508,"Delta":464150226},{"NoteNumber":80,"Velocity":49,"Duration":82508,"SoundDuration":82508,"Delta":464150226},{"NoteNumber":83,"Velocity":54,"Duration":82508,"SoundDuration":82508,"Delta":464315243},{"NoteNumber":80,"Velocity":45,"Duration":82508,"SoundDuration":82508,"Delta":464315243},{"NoteNumber":83,"Velocity":54,"Duration":82508,"SoundDuration":82508,"Delta":464480259},{"NoteNumber":80,"Velocity":45,"Duration":82508,"SoundDuration":82508,"Delta":464480259},{"NoteNumber":83,"Velocity":58,"Duration":81168,"SoundDuration":81168,"Delta":464645276},{"NoteNumber":80,"Velocity":49,"Duration":81168,"SoundDuration":81168,"Delta":464645276},{"NoteNumber":51,"Velocity":54,"Duration":1962392,"SoundDuration":1962392,"Delta":464645276},{"NoteNumber":83,"Velocity":54,"Duration":81168,"SoundDuration":81168,"Delta":464807614},{"NoteNumber":80,"Velocity":45,"Duration":81168,"SoundDuration":81168,"Delta":464807614},{"NoteNumber":71,"Velocity":49,"Duration":182629,"SoundDuration":182629,"Delta":464888782},{"NoteNumber":59,"Velocity":41,"Duration":182629,"SoundDuration":182629,"Delta":464888782},{"NoteNumber":66,"Velocity":41,"Duration":182629,"SoundDuration":182629,"Delta":464888782},{"NoteNumber":83,"Velocity":54,"Duration":81168,"SoundDuration":81168,"Delta":464969951},{"NoteNumber":80,"Velocity":45,"Duration":81168,"SoundDuration":81168,"Delta":464969951},{"NoteNumber":83,"Velocity":56,"Duration":162337,"SoundDuration":162337,"Delta":465132289},{"NoteNumber":80,"Velocity":47,"Duration":162337,"SoundDuration":162337,"Delta":465132289},{"NoteNumber":71,"Velocity":49,"Duration":182629,"SoundDuration":182629,"Delta":465132289},{"NoteNumber":59,"Velocity":41,"Duration":182629,"SoundDuration":182629,"Delta":465132289},{"NoteNumber":66,"Velocity":41,"Duration":182629,"SoundDuration":182629,"Delta":465132289},{"NoteNumber":85,"Velocity":54,"Duration":162337,"SoundDuration":162337,"Delta":465294627},{"NoteNumber":81,"Velocity":45,"Duration":162337,"SoundDuration":162337,"Delta":465294627},{"NoteNumber":71,"Velocity":49,"Duration":191592,"SoundDuration":191592,"Delta":465375795},{"NoteNumber":59,"Velocity":41,"Duration":191592,"SoundDuration":191592,"Delta":465375795},{"NoteNumber":66,"Velocity":41,"Duration":191592,"SoundDuration":191592,"Delta":465375795},{"NoteNumber":83,"Velocity":54,"Duration":88339,"SoundDuration":88339,"Delta":465456964},{"NoteNumber":80,"Velocity":45,"Duration":88339,"SoundDuration":88339,"Delta":465456964},{"NoteNumber":82,"Velocity":58,"Duration":162337,"SoundDuration":162337,"Delta":465633643},{"NoteNumber":79,"Velocity":49,"Duration":162337,"SoundDuration":162337,"Delta":465633643},{"NoteNumber":70,"Velocity":52,"Duration":243506,"SoundDuration":243506,"Delta":465633643},{"NoteNumber":59,"Velocity":44,"Duration":243506,"SoundDuration":243506,"Delta":465633643},{"NoteNumber":66,"Velocity":44,"Duration":243506,"SoundDuration":243506,"Delta":465633643},{"NoteNumber":83,"Velocity":54,"Duration":162337,"SoundDuration":162337,"Delta":465795980},{"NoteNumber":80,"Velocity":45,"Duration":162337,"SoundDuration":162337,"Delta":465795980},{"NoteNumber":71,"Velocity":51,"Duration":243506,"SoundDuration":243506,"Delta":465877149},{"NoteNumber":59,"Velocity":43,"Duration":182629,"SoundDuration":182629,"Delta":465877149},{"NoteNumber":66,"Velocity":43,"Duration":182629,"SoundDuration":182629,"Delta":465877149},{"NoteNumber":82,"Velocity":54,"Duration":81168,"SoundDuration":81168,"Delta":465958318},{"NoteNumber":79,"Velocity":45,"Duration":81168,"SoundDuration":81168,"Delta":465958318},{"NoteNumber":81,"Velocity":57,"Duration":162337,"SoundDuration":162337,"Delta":466120656},{"NoteNumber":78,"Velocity":48,"Duration":162337,"SoundDuration":162337,"Delta":466120656},{"NoteNumber":69,"Velocity":54,"Duration":243506,"SoundDuration":243506,"Delta":466120656},{"NoteNumber":59,"Velocity":45,"Duration":243506,"SoundDuration":243506,"Delta":466120656},{"NoteNumber":66,"Velocity":45,"Duration":243506,"SoundDuration":243506,"Delta":466120656},{"NoteNumber":83,"Velocity":54,"Duration":162337,"SoundDuration":162337,"Delta":466282993},{"NoteNumber":80,"Velocity":45,"Duration":162337,"SoundDuration":162337,"Delta":466282993},{"NoteNumber":71,"Velocity":51,"Duration":243506,"SoundDuration":243506,"Delta":466364162},{"NoteNumber":59,"Velocity":43,"Duration":182629,"SoundDuration":182629,"Delta":466364162},{"NoteNumber":66,"Velocity":43,"Duration":182629,"SoundDuration":182629,"Delta":466364162},{"NoteNumber":81,"Velocity":54,"Duration":81168,"SoundDuration":81168,"Delta":466445331},{"NoteNumber":78,"Velocity":45,"Duration":81168,"SoundDuration":81168,"Delta":466445331},{"NoteNumber":80,"Velocity":52,"Duration":81168,"SoundDuration":81168,"Delta":466607669},{"NoteNumber":76,"Velocity":44,"Duration":81168,"SoundDuration":81168,"Delta":466607669},{"NoteNumber":52,"Velocity":48,"Duration":988366,"SoundDuration":988366,"Delta":466607669},{"NoteNumber":83,"Velocity":41,"Duration":162337,"SoundDuration":162337,"Delta":466770006},{"NoteNumber":95,"Velocity":49,"Duration":81168,"SoundDuration":81168,"Delta":466770006},{"NoteNumber":92,"Velocity":41,"Duration":81168,"SoundDuration":81168,"Delta":466770006},{"NoteNumber":71,"Velocity":45,"Duration":182629,"SoundDuration":182629,"Delta":466851175},{"NoteNumber":59,"Velocity":37,"Duration":182629,"SoundDuration":182629,"Delta":466851175},{"NoteNumber":68,"Velocity":37,"Duration":182629,"SoundDuration":182629,"Delta":466851175},{"NoteNumber":83,"Velocity":42,"Duration":162337,"SoundDuration":162337,"Delta":466932344},{"NoteNumber":95,"Velocity":50,"Duration":81168,"SoundDuration":81168,"Delta":466932344},{"NoteNumber":92,"Velocity":42,"Duration":81168,"SoundDuration":81168,"Delta":466932344},{"NoteNumber":83,"Velocity":45,"Duration":162337,"SoundDuration":162337,"Delta":467094682},{"NoteNumber":95,"Velocity":54,"Duration":162337,"SoundDuration":162337,"Delta":467094682},{"NoteNumber":92,"Velocity":45,"Duration":162337,"SoundDuration":162337,"Delta":467094682},{"NoteNumber":71,"Velocity":46,"Duration":182629,"SoundDuration":182629,"Delta":467094682},{"NoteNumber":59,"Velocity":39,"Duration":182629,"SoundDuration":182629,"Delta":467094682},{"NoteNumber":68,"Velocity":39,"Duration":182629,"SoundDuration":182629,"Delta":467094682},{"NoteNumber":85,"Velocity":44,"Duration":162337,"SoundDuration":162337,"Delta":467257019},{"NoteNumber":97,"Velocity":52,"Duration":162337,"SoundDuration":162337,"Delta":467257019},{"NoteNumber":93,"Velocity":44,"Duration":162337,"SoundDuration":162337,"Delta":467257019},{"NoteNumber":71,"Velocity":48,"Duration":191592,"SoundDuration":191592,"Delta":467338188},{"NoteNumber":59,"Velocity":40,"Duration":191592,"SoundDuration":191592,"Delta":467338188},{"NoteNumber":68,"Velocity":40,"Duration":191592,"SoundDuration":191592,"Delta":467338188},{"NoteNumber":83,"Velocity":45,"Duration":88339,"SoundDuration":88339,"Delta":467419357},{"NoteNumber":95,"Velocity":54,"Duration":88339,"SoundDuration":88339,"Delta":467419357},{"NoteNumber":92,"Velocity":45,"Duration":88339,"SoundDuration":88339,"Delta":467419357},{"NoteNumber":82,"Velocity":49,"Duration":162337,"SoundDuration":162337,"Delta":467596036},{"NoteNumber":94,"Velocity":58,"Duration":162337,"SoundDuration":162337,"Delta":467596036},{"NoteNumber":91,"Velocity":49,"Duration":162337,"SoundDuration":162337,"Delta":467596036},{"NoteNumber":51,"Velocity":54,"Duration":974025,"SoundDuration":974025,"Delta":467596036},{"NoteNumber":83,"Velocity":44,"Duration":162337,"SoundDuration":162337,"Delta":467758373},{"NoteNumber":95,"Velocity":52,"Duration":162337,"SoundDuration":162337,"Delta":467758373},{"NoteNumber":92,"Velocity":44,"Duration":162337,"SoundDuration":162337,"Delta":467758373},{"NoteNumber":70,"Velocity":49,"Duration":182629,"SoundDuration":182629,"Delta":467839542},{"NoteNumber":59,"Velocity":41,"Duration":182629,"SoundDuration":182629,"Delta":467839542},{"NoteNumber":66,"Velocity":41,"Duration":182629,"SoundDuration":182629,"Delta":467839542},{"NoteNumber":82,"Velocity":46,"Duration":81168,"SoundDuration":81168,"Delta":467920711},{"NoteNumber":94,"Velocity":51,"Duration":81168,"SoundDuration":81168,"Delta":467920711},{"NoteNumber":91,"Velocity":43,"Duration":81168,"SoundDuration":81168,"Delta":467920711},{"NoteNumber":81,"Velocity":45,"Duration":162337,"SoundDuration":162337,"Delta":468083049},{"NoteNumber":93,"Velocity":54,"Duration":162337,"SoundDuration":162337,"Delta":468083049},{"NoteNumber":90,"Velocity":45,"Duration":162337,"SoundDuration":162337,"Delta":468083049},{"NoteNumber":71,"Velocity":51,"Duration":243506,"SoundDuration":243506,"Delta":468083049},{"NoteNumber":59,"Velocity":42,"Duration":243506,"SoundDuration":243506,"Delta":468083049},{"NoteNumber":66,"Velocity":42,"Duration":243506,"SoundDuration":243506,"Delta":468083049},{"NoteNumber":83,"Velocity":41,"Duration":162337,"SoundDuration":162337,"Delta":468245386},{"NoteNumber":95,"Velocity":49,"Duration":162337,"SoundDuration":162337,"Delta":468245386},{"NoteNumber":92,"Velocity":41,"Duration":162337,"SoundDuration":162337,"Delta":468245386},{"NoteNumber":69,"Velocity":45,"Duration":243506,"SoundDuration":243506,"Delta":468326555},{"NoteNumber":59,"Velocity":38,"Duration":182629,"SoundDuration":182629,"Delta":468326555},{"NoteNumber":66,"Velocity":38,"Duration":182629,"SoundDuration":182629,"Delta":468326555},{"NoteNumber":93,"Velocity":49,"Duration":81168,"SoundDuration":81168,"Delta":468407724},{"NoteNumber":81,"Velocity":41,"Duration":81168,"SoundDuration":81168,"Delta":468407724},{"NoteNumber":90,"Velocity":41,"Duration":81168,"SoundDuration":81168,"Delta":468407724},{"NoteNumber":80,"Velocity":44,"Duration":81168,"SoundDuration":81168,"Delta":468570062},{"NoteNumber":92,"Velocity":52,"Duration":81168,"SoundDuration":81168,"Delta":468570062},{"NoteNumber":88,"Velocity":44,"Duration":81168,"SoundDuration":81168,"Delta":468570062},{"NoteNumber":52,"Velocity":48,"Duration":988366,"SoundDuration":988366,"Delta":468570062},{"NoteNumber":83,"Velocity":41,"Duration":162337,"SoundDuration":162337,"Delta":468732399},{"NoteNumber":95,"Velocity":49,"Duration":81168,"SoundDuration":81168,"Delta":468732399},{"NoteNumber":92,"Velocity":41,"Duration":81168,"SoundDuration":81168,"Delta":468732399},{"NoteNumber":71,"Velocity":45,"Duration":182629,"SoundDuration":182629,"Delta":468813568},{"NoteNumber":59,"Velocity":37,"Duration":182629,"SoundDuration":182629,"Delta":468813568},{"NoteNumber":68,"Velocity":37,"Duration":182629,"SoundDuration":182629,"Delta":468813568},{"NoteNumber":83,"Velocity":42,"Duration":162337,"SoundDuration":162337,"Delta":468894737},{"NoteNumber":95,"Velocity":50,"Duration":81168,"SoundDuration":81168,"Delta":468894737},{"NoteNumber":92,"Velocity":42,"Duration":81168,"SoundDuration":81168,"Delta":468894737},{"NoteNumber":83,"Velocity":45,"Duration":162337,"SoundDuration":162337,"Delta":469057075},{"NoteNumber":95,"Velocity":54,"Duration":162337,"SoundDuration":162337,"Delta":469057075},{"NoteNumber":92,"Velocity":45,"Duration":162337,"SoundDuration":162337,"Delta":469057075},{"NoteNumber":71,"Velocity":46,"Duration":182629,"SoundDuration":182629,"Delta":469057075},{"NoteNumber":59,"Velocity":39,"Duration":182629,"SoundDuration":182629,"Delta":469057075},{"NoteNumber":68,"Velocity":39,"Duration":182629,"SoundDuration":182629,"Delta":469057075},{"NoteNumber":85,"Velocity":44,"Duration":162337,"SoundDuration":162337,"Delta":469219412},{"NoteNumber":97,"Velocity":52,"Duration":162337,"SoundDuration":162337,"Delta":469219412},{"NoteNumber":93,"Velocity":44,"Duration":162337,"SoundDuration":162337,"Delta":469219412},{"NoteNumber":71,"Velocity":48,"Duration":191592,"SoundDuration":191592,"Delta":469300581},{"NoteNumber":59,"Velocity":40,"Duration":191592,"SoundDuration":191592,"Delta":469300581},{"NoteNumber":68,"Velocity":40,"Duration":191592,"SoundDuration":191592,"Delta":469300581},{"NoteNumber":83,"Velocity":45,"Duration":88339,"SoundDuration":88339,"Delta":469381750},{"NoteNumber":95,"Velocity":54,"Duration":88339,"SoundDuration":88339,"Delta":469381750},{"NoteNumber":92,"Velocity":45,"Duration":88339,"SoundDuration":88339,"Delta":469381750},{"NoteNumber":82,"Velocity":49,"Duration":162337,"SoundDuration":162337,"Delta":469558428},{"NoteNumber":94,"Velocity":58,"Duration":162337,"SoundDuration":162337,"Delta":469558428},{"NoteNumber":91,"Velocity":49,"Duration":162337,"SoundDuration":162337,"Delta":469558428},{"NoteNumber":51,"Velocity":54,"Duration":974025,"SoundDuration":974025,"Delta":469558428},{"NoteNumber":83,"Velocity":44,"Duration":162337,"SoundDuration":162337,"Delta":469720766},{"NoteNumber":95,"Velocity":52,"Duration":162337,"SoundDuration":162337,"Delta":469720766},{"NoteNumber":92,"Velocity":44,"Duration":162337,"SoundDuration":162337,"Delta":469720766},{"NoteNumber":70,"Velocity":49,"Duration":182629,"SoundDuration":182629,"Delta":469801935},{"NoteNumber":59,"Velocity":41,"Duration":182629,"SoundDuration":182629,"Delta":469801935},{"NoteNumber":66,"Velocity":41,"Duration":182629,"SoundDuration":182629,"Delta":469801935},{"NoteNumber":82,"Velocity":46,"Duration":81168,"SoundDuration":81168,"Delta":469883104},{"NoteNumber":94,"Velocity":51,"Duration":81168,"SoundDuration":81168,"Delta":469883104},{"NoteNumber":91,"Velocity":43,"Duration":81168,"SoundDuration":81168,"Delta":469883104},{"NoteNumber":81,"Velocity":45,"Duration":162337,"SoundDuration":162337,"Delta":470045441},{"NoteNumber":93,"Velocity":54,"Duration":162337,"SoundDuration":162337,"Delta":470045441},{"NoteNumber":90,"Velocity":45,"Duration":162337,"SoundDuration":162337,"Delta":470045441},{"NoteNumber":71,"Velocity":51,"Duration":243506,"SoundDuration":243506,"Delta":470045441},{"NoteNumber":59,"Velocity":42,"Duration":243506,"SoundDuration":243506,"Delta":470045441},{"NoteNumber":66,"Velocity":42,"Duration":243506,"SoundDuration":243506,"Delta":470045441},{"NoteNumber":83,"Velocity":41,"Duration":162337,"SoundDuration":162337,"Delta":470207779},{"NoteNumber":95,"Velocity":49,"Duration":162337,"SoundDuration":162337,"Delta":470207779},{"NoteNumber":92,"Velocity":41,"Duration":162337,"SoundDuration":162337,"Delta":470207779},{"NoteNumber":69,"Velocity":45,"Duration":152191,"SoundDuration":152191,"Delta":470288948},{"NoteNumber":59,"Velocity":38,"Duration":152191,"SoundDuration":152191,"Delta":470288948},{"NoteNumber":66,"Velocity":38,"Duration":152191,"SoundDuration":152191,"Delta":470288948},{"NoteNumber":93,"Velocity":49,"Duration":81168,"SoundDuration":81168,"Delta":470370117},{"NoteNumber":81,"Velocity":41,"Duration":81168,"SoundDuration":81168,"Delta":470370117},{"NoteNumber":90,"Velocity":41,"Duration":81168,"SoundDuration":81168,"Delta":470370117},{"NoteNumber":52,"Velocity":48,"Duration":359359,"SoundDuration":359359,"Delta":470441139},{"NoteNumber":59,"Velocity":48,"Duration":328920,"SoundDuration":328920,"Delta":470471578},{"NoteNumber":64,"Velocity":48,"Duration":298482,"SoundDuration":298482,"Delta":470502016},{"NoteNumber":92,"Velocity":52,"Duration":188679,"SoundDuration":188679,"Delta":470532454},{"NoteNumber":80,"Velocity":44,"Duration":188679,"SoundDuration":188679,"Delta":470532454},{"NoteNumber":88,"Velocity":44,"Duration":188679,"SoundDuration":188679,"Delta":470532454},{"NoteNumber":68,"Velocity":52,"Duration":268044,"SoundDuration":268044,"Delta":470532454},{"NoteNumber":56,"Velocity":48,"Duration":161812,"SoundDuration":161812,"Delta":470881405},{"NoteNumber":56,"Velocity":54,"Duration":161812,"SoundDuration":161812,"Delta":471043217},{"NoteNumber":47,"Velocity":48,"Duration":242718,"SoundDuration":242718,"Delta":471043217},{"NoteNumber":40,"Velocity":48,"Duration":242718,"SoundDuration":242718,"Delta":471053330},{"NoteNumber":55,"Velocity":48,"Duration":161812,"SoundDuration":161812,"Delta":471205029},{"NoteNumber":54,"Velocity":46,"Duration":161812,"SoundDuration":161812,"Delta":471366842},{"NoteNumber":53,"Velocity":52,"Duration":161812,"SoundDuration":161812,"Delta":471528654},{"NoteNumber":59,"Velocity":47,"Duration":492956,"SoundDuration":492956,"Delta":471528654},{"NoteNumber":68,"Velocity":49,"Duration":492956,"SoundDuration":492956,"Delta":471528654},{"NoteNumber":71,"Velocity":54,"Duration":492956,"SoundDuration":492956,"Delta":471528654},{"NoteNumber":52,"Velocity":49,"Duration":172413,"SoundDuration":172413,"Delta":471690466},{"NoteNumber":56,"Velocity":43,"Duration":158730,"SoundDuration":158730,"Delta":471862880},{"NoteNumber":59,"Velocity":49,"Duration":158730,"SoundDuration":158730,"Delta":471862880},{"NoteNumber":40,"Velocity":43,"Duration":475198,"SoundDuration":475198,"Delta":472017642},{"NoteNumber":47,"Velocity":49,"Duration":475000,"SoundDuration":475000,"Delta":472019626},{"NoteNumber":55,"Velocity":45,"Duration":158730,"SoundDuration":158730,"Delta":472021610},{"NoteNumber":58,"Velocity":52,"Duration":158730,"SoundDuration":158730,"Delta":472021610},{"NoteNumber":54,"Velocity":44,"Duration":158730,"SoundDuration":158730,"Delta":472180341},{"NoteNumber":57,"Velocity":50,"Duration":158730,"SoundDuration":158730,"Delta":472180341},{"NoteNumber":52,"Velocity":44,"Duration":157341,"SoundDuration":157341,"Delta":472339071},{"NoteNumber":56,"Velocity":50,"Duration":157341,"SoundDuration":157341,"Delta":472339071},{"NoteNumber":62,"Velocity":58,"Duration":143555,"SoundDuration":143555,"Delta":472496412},{"NoteNumber":59,"Velocity":58,"Duration":143555,"SoundDuration":143555,"Delta":472496412},{"NoteNumber":64,"Velocity":49,"Duration":438830,"SoundDuration":438830,"Delta":472496412},{"NoteNumber":71,"Velocity":49,"Duration":438830,"SoundDuration":438830,"Delta":472496412},{"NoteNumber":74,"Velocity":54,"Duration":438830,"SoundDuration":438830,"Delta":472496412},{"NoteNumber":61,"Velocity":57,"Duration":146179,"SoundDuration":146179,"Delta":472639968},{"NoteNumber":58,"Velocity":50,"Duration":146179,"SoundDuration":146179,"Delta":472639968},{"NoteNumber":60,"Velocity":55,"Duration":149094,"SoundDuration":149094,"Delta":472786148},{"NoteNumber":57,"Velocity":48,"Duration":149094,"SoundDuration":149094,"Delta":472786148},{"NoteNumber":56,"Velocity":46,"Duration":149772,"SoundDuration":149772,"Delta":472935243},{"NoteNumber":59,"Velocity":54,"Duration":149772,"SoundDuration":149772,"Delta":472935243},{"NoteNumber":62,"Velocity":49,"Duration":137390,"SoundDuration":137390,"Delta":473085015},{"NoteNumber":66,"Velocity":56,"Duration":137390,"SoundDuration":137390,"Delta":473085015},{"NoteNumber":61,"Velocity":47,"Duration":139426,"SoundDuration":139426,"Delta":473222406},{"NoteNumber":64,"Velocity":54,"Duration":139426,"SoundDuration":139426,"Delta":473222406},{"NoteNumber":63,"Velocity":53,"Duration":141524,"SoundDuration":141524,"Delta":473361833},{"NoteNumber":60,"Velocity":45,"Duration":141524,"SoundDuration":141524,"Delta":473361833},{"NoteNumber":62,"Velocity":51,"Duration":143685,"SoundDuration":143685,"Delta":473503357},{"NoteNumber":59,"Velocity":44,"Duration":143685,"SoundDuration":143685,"Delta":473503357},{"NoteNumber":68,"Velocity":50,"Duration":131805,"SoundDuration":131805,"Delta":473647042},{"NoteNumber":71,"Velocity":57,"Duration":131805,"SoundDuration":131805,"Delta":473647042},{"NoteNumber":67,"Velocity":47,"Duration":133766,"SoundDuration":133766,"Delta":473778848},{"NoteNumber":70,"Velocity":54,"Duration":133766,"SoundDuration":133766,"Delta":473778848},{"NoteNumber":66,"Velocity":45,"Duration":137726,"SoundDuration":137726,"Delta":473912614},{"NoteNumber":69,"Velocity":53,"Duration":137726,"SoundDuration":137726,"Delta":473912614},{"NoteNumber":64,"Velocity":43,"Duration":140845,"SoundDuration":140845,"Delta":474050341},{"NoteNumber":68,"Velocity":50,"Duration":140845,"SoundDuration":140845,"Delta":474050341},{"NoteNumber":71,"Velocity":48,"Duration":130232,"SoundDuration":130232,"Delta":474191186},{"NoteNumber":74,"Velocity":55,"Duration":130232,"SoundDuration":130232,"Delta":474191186},{"NoteNumber":70,"Velocity":46,"Duration":131567,"SoundDuration":131567,"Delta":474321418},{"NoteNumber":73,"Velocity":54,"Duration":131567,"SoundDuration":131567,"Delta":474321418},{"NoteNumber":69,"Velocity":45,"Duration":134666,"SoundDuration":134666,"Delta":474452985},{"NoteNumber":72,"Velocity":52,"Duration":134666,"SoundDuration":134666,"Delta":474452985},{"NoteNumber":68,"Velocity":42,"Duration":137985,"SoundDuration":137985,"Delta":474587652},{"NoteNumber":71,"Velocity":49,"Duration":137985,"SoundDuration":137985,"Delta":474587652},{"NoteNumber":78,"Velocity":57,"Duration":121552,"SoundDuration":121552,"Delta":474725637},{"NoteNumber":74,"Velocity":50,"Duration":121552,"SoundDuration":121552,"Delta":474725637},{"NoteNumber":76,"Velocity":55,"Duration":122572,"SoundDuration":122572,"Delta":474847190},{"NoteNumber":73,"Velocity":55,"Duration":122572,"SoundDuration":122572,"Delta":474847190},{"NoteNumber":75,"Velocity":54,"Duration":124208,"SoundDuration":124208,"Delta":474969762},{"NoteNumber":72,"Velocity":46,"Duration":124208,"SoundDuration":124208,"Delta":474969762},{"NoteNumber":74,"Velocity":52,"Duration":124546,"SoundDuration":124546,"Delta":475093970},{"NoteNumber":71,"Velocity":45,"Duration":124546,"SoundDuration":124546,"Delta":475093970},{"NoteNumber":83,"Velocity":59,"Duration":117048,"SoundDuration":117048,"Delta":475218517},{"NoteNumber":80,"Velocity":52,"Duration":117048,"SoundDuration":117048,"Delta":475218517},{"NoteNumber":82,"Velocity":57,"Duration":118839,"SoundDuration":118839,"Delta":475335565},{"NoteNumber":79,"Velocity":50,"Duration":118839,"SoundDuration":118839,"Delta":475335565},{"NoteNumber":81,"Velocity":55,"Duration":120960,"SoundDuration":120960,"Delta":475454404},{"NoteNumber":78,"Velocity":48,"Duration":120960,"SoundDuration":120960,"Delta":475454404},{"NoteNumber":80,"Velocity":54,"Duration":121692,"SoundDuration":121692,"Delta":475575365},{"NoteNumber":76,"Velocity":46,"Duration":121692,"SoundDuration":121692,"Delta":475575365},{"NoteNumber":86,"Velocity":61,"Duration":112817,"SoundDuration":112817,"Delta":475697057},{"NoteNumber":83,"Velocity":54,"Duration":112817,"SoundDuration":112817,"Delta":475697057},{"NoteNumber":85,"Velocity":59,"Duration":117181,"SoundDuration":117181,"Delta":475809875},{"NoteNumber":82,"Velocity":52,"Duration":117181,"SoundDuration":117181,"Delta":475809875},{"NoteNumber":84,"Velocity":57,"Duration":121892,"SoundDuration":121892,"Delta":475927056},{"NoteNumber":81,"Velocity":50,"Duration":121892,"SoundDuration":121892,"Delta":475927056},{"NoteNumber":83,"Velocity":55,"Duration":115907,"SoundDuration":115907,"Delta":476048948},{"NoteNumber":80,"Velocity":48,"Duration":115907,"SoundDuration":115907,"Delta":476048948},{"NoteNumber":86,"Velocity":58,"Duration":107647,"SoundDuration":107647,"Delta":476164856},{"NoteNumber":90,"Velocity":65,"Duration":107647,"SoundDuration":107647,"Delta":476164856},{"NoteNumber":85,"Velocity":56,"Duration":109533,"SoundDuration":109533,"Delta":476272503},{"NoteNumber":88,"Velocity":63,"Duration":109533,"SoundDuration":109533,"Delta":476272503},{"NoteNumber":84,"Velocity":54,"Duration":111672,"SoundDuration":111672,"Delta":476382036},{"NoteNumber":87,"Velocity":62,"Duration":111672,"SoundDuration":111672,"Delta":476382036},{"NoteNumber":83,"Velocity":53,"Duration":110163,"SoundDuration":110163,"Delta":476493709},{"NoteNumber":86,"Velocity":60,"Duration":110163,"SoundDuration":110163,"Delta":476493709},{"NoteNumber":95,"Velocity":64,"Duration":104174,"SoundDuration":104174,"Delta":476603873},{"NoteNumber":92,"Velocity":57,"Duration":104174,"SoundDuration":104174,"Delta":476603873},{"NoteNumber":94,"Velocity":62,"Duration":106617,"SoundDuration":106617,"Delta":476708048},{"NoteNumber":91,"Velocity":54,"Duration":106617,"SoundDuration":106617,"Delta":476708048},{"NoteNumber":93,"Velocity":59,"Duration":109482,"SoundDuration":109482,"Delta":476814665},{"NoteNumber":90,"Velocity":52,"Duration":109482,"SoundDuration":109482,"Delta":476814665},{"NoteNumber":92,"Velocity":57,"Duration":117248,"SoundDuration":117248,"Delta":476924148},{"NoteNumber":88,"Velocity":50,"Duration":117248,"SoundDuration":117248,"Delta":476924148},{"NoteNumber":98,"Velocity":65,"Duration":107526,"SoundDuration":107526,"Delta":477041396},{"NoteNumber":93,"Velocity":65,"Duration":107526,"SoundDuration":107526,"Delta":477041396},{"NoteNumber":90,"Velocity":51,"Duration":107526,"SoundDuration":107526,"Delta":477041396},{"NoteNumber":97,"Velocity":65,"Duration":106554,"SoundDuration":106554,"Delta":477148923},{"NoteNumber":92,"Velocity":51,"Duration":106554,"SoundDuration":106554,"Delta":477148923},{"NoteNumber":89,"Velocity":51,"Duration":106554,"SoundDuration":106554,"Delta":477148923},{"NoteNumber":96,"Velocity":64,"Duration":105264,"SoundDuration":105264,"Delta":477255478},{"NoteNumber":91,"Velocity":51,"Duration":105264,"SoundDuration":105264,"Delta":477255478},{"NoteNumber":88,"Velocity":51,"Duration":105264,"SoundDuration":105264,"Delta":477255478},{"NoteNumber":95,"Velocity":64,"Duration":104005,"SoundDuration":104005,"Delta":477360742},{"NoteNumber":90,"Velocity":51,"Duration":104005,"SoundDuration":104005,"Delta":477360742},{"NoteNumber":87,"Velocity":51,"Duration":104005,"SoundDuration":104005,"Delta":477360742},{"NoteNumber":94,"Velocity":63,"Duration":102829,"SoundDuration":102829,"Delta":477464748},{"NoteNumber":89,"Velocity":51,"Duration":102829,"SoundDuration":102829,"Delta":477464748},{"NoteNumber":86,"Velocity":51,"Duration":102829,"SoundDuration":102829,"Delta":477464748},{"NoteNumber":93,"Velocity":63,"Duration":101784,"SoundDuration":101784,"Delta":477567578},{"NoteNumber":88,"Velocity":50,"Duration":101784,"SoundDuration":101784,"Delta":477567578},{"NoteNumber":85,"Velocity":50,"Duration":101784,"SoundDuration":101784,"Delta":477567578},{"NoteNumber":87,"Velocity":63,"Duration":103092,"SoundDuration":103092,"Delta":477669362},{"NoteNumber":92,"Velocity":63,"Duration":103092,"SoundDuration":103092,"Delta":477669362},{"NoteNumber":84,"Velocity":50,"Duration":103092,"SoundDuration":103092,"Delta":477669362},{"NoteNumber":91,"Velocity":62,"Duration":103092,"SoundDuration":103092,"Delta":477772455},{"NoteNumber":83,"Velocity":49,"Duration":103092,"SoundDuration":103092,"Delta":477772455},{"NoteNumber":86,"Velocity":49,"Duration":103092,"SoundDuration":103092,"Delta":477772455},{"NoteNumber":90,"Velocity":62,"Duration":103092,"SoundDuration":103092,"Delta":477875548},{"NoteNumber":82,"Velocity":49,"Duration":103092,"SoundDuration":103092,"Delta":477875548},{"NoteNumber":85,"Velocity":49,"Duration":103092,"SoundDuration":103092,"Delta":477875548},{"NoteNumber":89,"Velocity":61,"Duration":103092,"SoundDuration":103092,"Delta":477978640},{"NoteNumber":81,"Velocity":48,"Duration":103092,"SoundDuration":103092,"Delta":477978640},{"NoteNumber":84,"Velocity":48,"Duration":103092,"SoundDuration":103092,"Delta":477978640},{"NoteNumber":88,"Velocity":60,"Duration":103092,"SoundDuration":103092,"Delta":478081733},{"NoteNumber":80,"Velocity":47,"Duration":103092,"SoundDuration":103092,"Delta":478081733},{"NoteNumber":83,"Velocity":47,"Duration":103092,"SoundDuration":103092,"Delta":478081733},{"NoteNumber":87,"Velocity":60,"Duration":103468,"SoundDuration":103468,"Delta":478184826},{"NoteNumber":79,"Velocity":47,"Duration":103468,"SoundDuration":103468,"Delta":478184826},{"NoteNumber":82,"Velocity":47,"Duration":103468,"SoundDuration":103468,"Delta":478184826},{"NoteNumber":86,"Velocity":59,"Duration":104166,"SoundDuration":104166,"Delta":478288295},{"NoteNumber":81,"Velocity":59,"Duration":104166,"SoundDuration":104166,"Delta":478288295},{"NoteNumber":78,"Velocity":47,"Duration":104166,"SoundDuration":104166,"Delta":478288295},{"NoteNumber":85,"Velocity":59,"Duration":104166,"SoundDuration":104166,"Delta":478392461},{"NoteNumber":80,"Velocity":47,"Duration":104166,"SoundDuration":104166,"Delta":478392461},{"NoteNumber":77,"Velocity":47,"Duration":104166,"SoundDuration":104166,"Delta":478392461},{"NoteNumber":84,"Velocity":58,"Duration":104166,"SoundDuration":104166,"Delta":478496628},{"NoteNumber":79,"Velocity":46,"Duration":104166,"SoundDuration":104166,"Delta":478496628},{"NoteNumber":76,"Velocity":46,"Duration":104166,"SoundDuration":104166,"Delta":478496628},{"NoteNumber":83,"Velocity":57,"Duration":104166,"SoundDuration":104166,"Delta":478600795},{"NoteNumber":78,"Velocity":45,"Duration":104166,"SoundDuration":104166,"Delta":478600795},{"NoteNumber":75,"Velocity":45,"Duration":104166,"SoundDuration":104166,"Delta":478600795},{"NoteNumber":82,"Velocity":57,"Duration":104166,"SoundDuration":104166,"Delta":478704961},{"NoteNumber":77,"Velocity":45,"Duration":104166,"SoundDuration":104166,"Delta":478704961},{"NoteNumber":74,"Velocity":45,"Duration":104166,"SoundDuration":104166,"Delta":478704961},{"NoteNumber":81,"Velocity":56,"Duration":104221,"SoundDuration":104221,"Delta":478809128},{"NoteNumber":76,"Velocity":45,"Duration":104221,"SoundDuration":104221,"Delta":478809128},{"NoteNumber":73,"Velocity":45,"Duration":104221,"SoundDuration":104221,"Delta":478809128},{"NoteNumber":80,"Velocity":56,"Duration":105938,"SoundDuration":105938,"Delta":478913350},{"NoteNumber":72,"Velocity":45,"Duration":105938,"SoundDuration":105938,"Delta":478913350},{"NoteNumber":75,"Velocity":45,"Duration":105938,"SoundDuration":105938,"Delta":478913350},{"NoteNumber":79,"Velocity":55,"Duration":109482,"SoundDuration":109482,"Delta":479019288},{"NoteNumber":71,"Velocity":44,"Duration":109482,"SoundDuration":109482,"Delta":479019288},{"NoteNumber":74,"Velocity":44,"Duration":109482,"SoundDuration":109482,"Delta":479019288},{"NoteNumber":78,"Velocity":55,"Duration":114895,"SoundDuration":114895,"Delta":479128771},{"NoteNumber":70,"Velocity":44,"Duration":114895,"SoundDuration":114895,"Delta":479128771},{"NoteNumber":73,"Velocity":44,"Duration":114895,"SoundDuration":114895,"Delta":479128771},{"NoteNumber":77,"Velocity":54,"Duration":120660,"SoundDuration":120660,"Delta":479243666},{"NoteNumber":69,"Velocity":44,"Duration":120660,"SoundDuration":120660,"Delta":479243666},{"NoteNumber":72,"Velocity":44,"Duration":120660,"SoundDuration":120660,"Delta":479243666},{"NoteNumber":76,"Velocity":54,"Duration":126947,"SoundDuration":126947,"Delta":479364326},{"NoteNumber":68,"Velocity":43,"Duration":126947,"SoundDuration":126947,"Delta":479364326},{"NoteNumber":71,"Velocity":43,"Duration":126947,"SoundDuration":126947,"Delta":479364326},{"NoteNumber":75,"Velocity":54,"Duration":133912,"SoundDuration":133912,"Delta":479491274},{"NoteNumber":67,"Velocity":43,"Duration":133912,"SoundDuration":133912,"Delta":479491274},{"NoteNumber":70,"Velocity":43,"Duration":133912,"SoundDuration":133912,"Delta":479491274},{"NoteNumber":74,"Velocity":63,"Duration":97402,"SoundDuration":97402,"Delta":479625186},{"NoteNumber":66,"Velocity":53,"Duration":97402,"SoundDuration":97402,"Delta":479625186},{"NoteNumber":69,"Velocity":53,"Duration":97402,"SoundDuration":97402,"Delta":479625186},{"NoteNumber":74,"Velocity":58,"Duration":97402,"SoundDuration":97402,"Delta":479755056},{"NoteNumber":65,"Velocity":48,"Duration":97402,"SoundDuration":97402,"Delta":479755056},{"NoteNumber":69,"Velocity":48,"Duration":97402,"SoundDuration":97402,"Delta":479755056},{"NoteNumber":74,"Velocity":58,"Duration":107142,"SoundDuration":107142,"Delta":479884927},{"NoteNumber":65,"Velocity":49,"Duration":107142,"SoundDuration":107142,"Delta":479884927},{"NoteNumber":69,"Velocity":49,"Duration":107142,"SoundDuration":107142,"Delta":479884927},{"NoteNumber":74,"Velocity":63,"Duration":98684,"SoundDuration":98684,"Delta":480027784},{"NoteNumber":65,"Velocity":54,"Duration":98684,"SoundDuration":98684,"Delta":480027784},{"NoteNumber":69,"Velocity":54,"Duration":98684,"SoundDuration":98684,"Delta":480027784},{"NoteNumber":73,"Velocity":60,"Duration":98684,"SoundDuration":98684,"Delta":480159363},{"NoteNumber":64,"Velocity":50,"Duration":98684,"SoundDuration":98684,"Delta":480159363},{"NoteNumber":69,"Velocity":50,"Duration":98684,"SoundDuration":98684,"Delta":480159363},{"NoteNumber":73,"Velocity":61,"Duration":115384,"SoundDuration":115384,"Delta":480290942},{"NoteNumber":64,"Velocity":51,"Duration":115384,"SoundDuration":115384,"Delta":480290942},{"NoteNumber":69,"Velocity":51,"Duration":115384,"SoundDuration":115384,"Delta":480290942},{"NoteNumber":73,"Velocity":66,"Duration":111940,"SoundDuration":111940,"Delta":480444788},{"NoteNumber":64,"Velocity":55,"Duration":111940,"SoundDuration":111940,"Delta":480444788},{"NoteNumber":69,"Velocity":55,"Duration":111940,"SoundDuration":111940,"Delta":480444788},{"NoteNumber":78,"Velocity":61,"Duration":102739,"SoundDuration":102739,"Delta":480594042},{"NoteNumber":63,"Velocity":51,"Duration":102739,"SoundDuration":102739,"Delta":480594042},{"NoteNumber":69,"Velocity":51,"Duration":102739,"SoundDuration":102739,"Delta":480594042},{"NoteNumber":72,"Velocity":51,"Duration":102739,"SoundDuration":102739,"Delta":480594042},{"NoteNumber":78,"Velocity":61,"Duration":102739,"SoundDuration":102739,"Delta":480731028},{"NoteNumber":63,"Velocity":51,"Duration":102739,"SoundDuration":102739,"Delta":480731028},{"NoteNumber":69,"Velocity":51,"Duration":102739,"SoundDuration":102739,"Delta":480731028},{"NoteNumber":72,"Velocity":51,"Duration":102739,"SoundDuration":102739,"Delta":480731028},{"NoteNumber":78,"Velocity":66,"Duration":102739,"SoundDuration":102739,"Delta":480868014},{"NoteNumber":63,"Velocity":55,"Duration":102739,"SoundDuration":102739,"Delta":480868014},{"NoteNumber":69,"Velocity":55,"Duration":102739,"SoundDuration":102739,"Delta":480868014},{"NoteNumber":72,"Velocity":55,"Duration":102739,"SoundDuration":102739,"Delta":480868014},{"NoteNumber":78,"Velocity":61,"Duration":102739,"SoundDuration":102739,"Delta":481005001},{"NoteNumber":62,"Velocity":51,"Duration":102739,"SoundDuration":102739,"Delta":481005001},{"NoteNumber":68,"Velocity":51,"Duration":102739,"SoundDuration":102739,"Delta":481005001},{"NoteNumber":71,"Velocity":51,"Duration":102739,"SoundDuration":102739,"Delta":481005001},{"NoteNumber":78,"Velocity":61,"Duration":102739,"SoundDuration":102739,"Delta":481141987},{"NoteNumber":62,"Velocity":51,"Duration":102739,"SoundDuration":102739,"Delta":481141987},{"NoteNumber":68,"Velocity":51,"Duration":102739,"SoundDuration":102739,"Delta":481141987},{"NoteNumber":71,"Velocity":51,"Duration":102739,"SoundDuration":102739,"Delta":481141987},{"NoteNumber":78,"Velocity":65,"Duration":211820,"SoundDuration":211820,"Delta":481279311},{"NoteNumber":62,"Velocity":55,"Duration":211820,"SoundDuration":211820,"Delta":481279311},{"NoteNumber":68,"Velocity":55,"Duration":211820,"SoundDuration":211820,"Delta":481279311},{"NoteNumber":71,"Velocity":55,"Duration":211820,"SoundDuration":211820,"Delta":481279311},{"NoteNumber":77,"Velocity":63,"Duration":434019,"SoundDuration":434019,"Delta":481491132},{"NoteNumber":61,"Velocity":54,"Duration":434019,"SoundDuration":434019,"Delta":481491132},{"NoteNumber":68,"Velocity":54,"Duration":434019,"SoundDuration":434019,"Delta":481491132},{"NoteNumber":71,"Velocity":54,"Duration":434019,"SoundDuration":434019,"Delta":481491132},{"NoteNumber":76,"Velocity":62,"Duration":452992,"SoundDuration":452992,"Delta":481925152},{"NoteNumber":58,"Velocity":52,"Duration":452992,"SoundDuration":452992,"Delta":481925152},{"NoteNumber":67,"Velocity":52,"Duration":452992,"SoundDuration":452992,"Delta":481925152},{"NoteNumber":73,"Velocity":52,"Duration":452992,"SoundDuration":452992,"Delta":481925152},{"NoteNumber":75,"Velocity":59,"Duration":495447,"SoundDuration":495447,"Delta":482378144},{"NoteNumber":59,"Velocity":50,"Duration":495447,"SoundDuration":495447,"Delta":482378144},{"NoteNumber":66,"Velocity":50,"Duration":495447,"SoundDuration":495447,"Delta":482378144},{"NoteNumber":71,"Velocity":50,"Duration":495447,"SoundDuration":495447,"Delta":482378144},{"NoteNumber":74,"Velocity":55,"Duration":546737,"SoundDuration":546737,"Delta":482873591},{"NoteNumber":57,"Velocity":46,"Duration":546737,"SoundDuration":546737,"Delta":482873591},{"NoteNumber":62,"Velocity":46,"Duration":546737,"SoundDuration":546737,"Delta":482873591},{"NoteNumber":66,"Velocity":46,"Duration":546737,"SoundDuration":546737,"Delta":482873591},{"NoteNumber":72,"Velocity":46,"Duration":546737,"SoundDuration":546737,"Delta":482873591},{"NoteNumber":74,"Velocity":52,"Duration":758209,"SoundDuration":758209,"Delta":483420328},{"NoteNumber":67,"Velocity":44,"Duration":758209,"SoundDuration":758209,"Delta":483420328},{"NoteNumber":72,"Velocity":44,"Duration":758209,"SoundDuration":758209,"Delta":483420328},{"NoteNumber":62,"Velocity":42,"Duration":758209,"SoundDuration":758209,"Delta":483420328},{"NoteNumber":55,"Velocity":35,"Duration":758209,"SoundDuration":758209,"Delta":483420328},{"NoteNumber":74,"Velocity":41,"Duration":681818,"SoundDuration":681818,"Delta":484178538},{"NoteNumber":67,"Velocity":35,"Duration":681818,"SoundDuration":681818,"Delta":484178538},{"NoteNumber":71,"Velocity":35,"Duration":681818,"SoundDuration":681818,"Delta":484178538},{"NoteNumber":62,"Velocity":33,"Duration":681818,"SoundDuration":681818,"Delta":484178538},{"NoteNumber":55,"Velocity":27,"Duration":681818,"SoundDuration":681818,"Delta":484178538},{"NoteNumber":74,"Velocity":36,"Duration":217391,"SoundDuration":217391,"Delta":485077747},{"NoteNumber":67,"Velocity":30,"Duration":217391,"SoundDuration":217391,"Delta":485077747},{"NoteNumber":59,"Velocity":34,"Duration":217391,"SoundDuration":217391,"Delta":485077747},{"NoteNumber":53,"Velocity":28,"Duration":217391,"SoundDuration":217391,"Delta":485077747},{"NoteNumber":79,"Velocity":36,"Duration":217391,"SoundDuration":217391,"Delta":485295138},{"NoteNumber":67,"Velocity":30,"Duration":217391,"SoundDuration":217391,"Delta":485295138},{"NoteNumber":60,"Velocity":34,"Duration":217391,"SoundDuration":217391,"Delta":485295138},{"NoteNumber":52,"Velocity":28,"Duration":217391,"SoundDuration":217391,"Delta":485295138},{"NoteNumber":74,"Velocity":36,"Duration":217391,"SoundDuration":217391,"Delta":485512530},{"NoteNumber":67,"Velocity":30,"Duration":217391,"SoundDuration":217391,"Delta":485512530},{"NoteNumber":59,"Velocity":34,"Duration":217391,"SoundDuration":217391,"Delta":485512530},{"NoteNumber":53,"Velocity":28,"Duration":217391,"SoundDuration":217391,"Delta":485512530},{"NoteNumber":79,"Velocity":40,"Duration":327511,"SoundDuration":327511,"Delta":485729921},{"NoteNumber":67,"Velocity":34,"Duration":327511,"SoundDuration":327511,"Delta":485729921},{"NoteNumber":60,"Velocity":40,"Duration":327511,"SoundDuration":327511,"Delta":485729921},{"NoteNumber":52,"Velocity":34,"Duration":327511,"SoundDuration":327511,"Delta":485729921},{"NoteNumber":64,"Velocity":35,"Duration":2679096,"SoundDuration":2679096,"Delta":487039965},{"NoteNumber":62,"Velocity":33,"Duration":2679096,"SoundDuration":2679096,"Delta":487039965},{"NoteNumber":68,"Velocity":37,"Duration":172413,"SoundDuration":172413,"Delta":487039965},{"NoteNumber":40,"Velocity":40,"Duration":2679096,"SoundDuration":2679096,"Delta":487039965},{"NoteNumber":68,"Velocity":37,"Duration":172413,"SoundDuration":172413,"Delta":487212379},{"NoteNumber":69,"Velocity":40,"Duration":172413,"SoundDuration":172413,"Delta":487384793},{"NoteNumber":68,"Velocity":36,"Duration":172413,"SoundDuration":172413,"Delta":487557206},{"NoteNumber":66,"Velocity":36,"Duration":172413,"SoundDuration":172413,"Delta":487729620},{"NoteNumber":68,"Velocity":36,"Duration":172413,"SoundDuration":172413,"Delta":487902034},{"NoteNumber":71,"Velocity":40,"Duration":416666,"SoundDuration":416666,"Delta":488074448},{"NoteNumber":56,"Velocity":40,"Duration":1644613,"SoundDuration":1644613,"Delta":488074448},{"NoteNumber":71,"Velocity":38,"Duration":843331,"SoundDuration":843331,"Delta":488491115},{"NoteNumber":72,"Velocity":37,"Duration":384615,"SoundDuration":384615,"Delta":489334446},{"NoteNumber":57,"Velocity":61,"Duration":86505,"SoundDuration":86505,"Delta":489719061},{"NoteNumber":45,"Velocity":46,"Duration":86505,"SoundDuration":86505,"Delta":489719061},{"NoteNumber":47,"Velocity":39,"Duration":79617,"SoundDuration":79617,"Delta":489892071},{"NoteNumber":59,"Velocity":48,"Duration":79617,"SoundDuration":79617,"Delta":489892071},{"NoteNumber":45,"Velocity":39,"Duration":81168,"SoundDuration":81168,"Delta":490052858},{"NoteNumber":57,"Velocity":48,"Duration":81168,"SoundDuration":81168,"Delta":490052858},{"NoteNumber":73,"Velocity":45,"Duration":263798,"SoundDuration":263798,"Delta":490215196},{"NoteNumber":61,"Velocity":38,"Duration":263798,"SoundDuration":263798,"Delta":490215196},{"NoteNumber":64,"Velocity":38,"Duration":243506,"SoundDuration":243506,"Delta":490215196},{"NoteNumber":56,"Velocity":54,"Duration":81168,"SoundDuration":81168,"Delta":490215196},{"NoteNumber":44,"Velocity":45,"Duration":81168,"SoundDuration":81168,"Delta":490215196},{"NoteNumber":45,"Velocity":41,"Duration":81168,"SoundDuration":81168,"Delta":490377533},{"NoteNumber":57,"Velocity":49,"Duration":81168,"SoundDuration":81168,"Delta":490377533},{"NoteNumber":68,"Velocity":43,"Duration":243506,"SoundDuration":243506,"Delta":490458702},{"NoteNumber":62,"Velocity":36,"Duration":243506,"SoundDuration":243506,"Delta":490458702},{"NoteNumber":64,"Velocity":36,"Duration":243506,"SoundDuration":243506,"Delta":490458702},{"NoteNumber":47,"Velocity":41,"Duration":50730,"SoundDuration":50730,"Delta":490539871},{"NoteNumber":59,"Velocity":49,"Duration":50730,"SoundDuration":50730,"Delta":490539871},{"NoteNumber":61,"Velocity":61,"Duration":86805,"SoundDuration":86805,"Delta":490702209},{"NoteNumber":49,"Velocity":46,"Duration":86805,"SoundDuration":86805,"Delta":490702209},{"NoteNumber":48,"Velocity":43,"Duration":78369,"SoundDuration":78369,"Delta":490870527},{"NoteNumber":60,"Velocity":51,"Duration":78369,"SoundDuration":78369,"Delta":490870527},{"NoteNumber":50,"Velocity":43,"Duration":78369,"SoundDuration":78369,"Delta":491027267},{"NoteNumber":62,"Velocity":51,"Duration":78369,"SoundDuration":78369,"Delta":491027267},{"NoteNumber":69,"Velocity":46,"Duration":235109,"SoundDuration":235109,"Delta":491184006},{"NoteNumber":64,"Velocity":39,"Duration":483547,"SoundDuration":483547,"Delta":491184006},{"NoteNumber":61,"Velocity":56,"Duration":78369,"SoundDuration":78369,"Delta":491184006},{"NoteNumber":49,"Velocity":46,"Duration":78369,"SoundDuration":78369,"Delta":491184006},{"NoteNumber":47,"Velocity":43,"Duration":78369,"SoundDuration":78369,"Delta":491340746},{"NoteNumber":59,"Velocity":51,"Duration":78369,"SoundDuration":78369,"Delta":491340746},{"NoteNumber":73,"Velocity":44,"Duration":248437,"SoundDuration":248437,"Delta":491419116},{"NoteNumber":69,"Velocity":36,"Duration":248437,"SoundDuration":248437,"Delta":491419116},{"NoteNumber":45,"Velocity":43,"Duration":85034,"SoundDuration":85034,"Delta":491497486},{"NoteNumber":57,"Velocity":51,"Duration":85034,"SoundDuration":85034,"Delta":491497486},{"NoteNumber":54,"Velocity":56,"Duration":79617,"SoundDuration":79617,"Delta":491667554},{"NoteNumber":42,"Velocity":58,"Duration":79617,"SoundDuration":79617,"Delta":491667554},{"NoteNumber":44,"Velocity":41,"Duration":79617,"SoundDuration":79617,"Delta":491826790},{"NoteNumber":56,"Velocity":49,"Duration":79617,"SoundDuration":79617,"Delta":491826790},{"NoteNumber":78,"Velocity":57,"Duration":497611,"SoundDuration":497611,"Delta":491906408},{"NoteNumber":70,"Velocity":55,"Duration":497611,"SoundDuration":497611,"Delta":491906408},{"NoteNumber":64,"Velocity":58,"Duration":497611,"SoundDuration":497611,"Delta":491906408},{"NoteNumber":42,"Velocity":41,"Duration":79617,"SoundDuration":79617,"Delta":491986025},{"NoteNumber":54,"Velocity":49,"Duration":79617,"SoundDuration":79617,"Delta":491986025},{"NoteNumber":53,"Velocity":52,"Duration":79617,"SoundDuration":79617,"Delta":492145261},{"NoteNumber":41,"Velocity":44,"Duration":79617,"SoundDuration":79617,"Delta":492145261},{"NoteNumber":42,"Velocity":41,"Duration":79617,"SoundDuration":79617,"Delta":492304497},{"NoteNumber":54,"Velocity":49,"Duration":79617,"SoundDuration":79617,"Delta":492304497},{"NoteNumber":71,"Velocity":45,"Duration":238853,"SoundDuration":238853,"Delta":492384115},{"NoteNumber":62,"Velocity":37,"Duration":238853,"SoundDuration":238853,"Delta":492384115},{"NoteNumber":46,"Velocity":41,"Duration":79617,"SoundDuration":79617,"Delta":492463732},{"NoteNumber":58,"Velocity":49,"Duration":79617,"SoundDuration":79617,"Delta":492463732},{"NoteNumber":59,"Velocity":61,"Duration":80906,"SoundDuration":80906,"Delta":492622968},{"NoteNumber":47,"Velocity":45,"Duration":80906,"SoundDuration":80906,"Delta":492622968},{"NoteNumber":49,"Velocity":39,"Duration":80906,"SoundDuration":80906,"Delta":492784780},{"NoteNumber":61,"Velocity":48,"Duration":80906,"SoundDuration":80906,"Delta":492784780},{"NoteNumber":47,"Velocity":39,"Duration":80906,"SoundDuration":80906,"Delta":492946593},{"NoteNumber":59,"Velocity":48,"Duration":80906,"SoundDuration":80906,"Delta":492946593},{"NoteNumber":71,"Velocity":38,"Duration":242718,"SoundDuration":242718,"Delta":493108405},{"NoteNumber":63,"Velocity":32,"Duration":242718,"SoundDuration":242718,"Delta":493108405},{"NoteNumber":66,"Velocity":32,"Duration":242718,"SoundDuration":242718,"Delta":493108405},{"NoteNumber":58,"Velocity":52,"Duration":80906,"SoundDuration":80906,"Delta":493108405},{"NoteNumber":46,"Velocity":44,"Duration":80906,"SoundDuration":80906,"Delta":493108405},{"NoteNumber":47,"Velocity":41,"Duration":80906,"SoundDuration":80906,"Delta":493270217},{"NoteNumber":59,"Velocity":49,"Duration":80906,"SoundDuration":80906,"Delta":493270217},{"NoteNumber":71,"Velocity":38,"Duration":248130,"SoundDuration":248130,"Delta":493351124},{"NoteNumber":63,"Velocity":32,"Duration":248130,"SoundDuration":248130,"Delta":493351124},{"NoteNumber":66,"Velocity":32,"Duration":248130,"SoundDuration":248130,"Delta":493351124},{"NoteNumber":45,"Velocity":41,"Duration":83612,"SoundDuration":83612,"Delta":493432030},{"NoteNumber":57,"Velocity":49,"Duration":83612,"SoundDuration":83612,"Delta":493432030},{"NoteNumber":76,"Velocity":58,"Duration":732655,"SoundDuration":732655,"Delta":493599254},{"NoteNumber":64,"Velocity":47,"Duration":399583,"SoundDuration":399583,"Delta":493599254},{"NoteNumber":71,"Velocity":47,"Duration":732655,"SoundDuration":732655,"Delta":493599254},{"NoteNumber":56,"Velocity":62,"Duration":82236,"SoundDuration":82236,"Delta":493599254},{"NoteNumber":44,"Velocity":52,"Duration":82236,"SoundDuration":82236,"Delta":493599254},{"NoteNumber":66,"Velocity":51,"Duration":78369,"SoundDuration":78369,"Delta":493763727},{"NoteNumber":54,"Velocity":43,"Duration":78369,"SoundDuration":78369,"Delta":493763727},{"NoteNumber":52,"Velocity":43,"Duration":78369,"SoundDuration":78369,"Delta":493920467},{"NoteNumber":64,"Velocity":51,"Duration":391849,"SoundDuration":391849,"Delta":493920467},{"NoteNumber":51,"Velocity":48,"Duration":78369,"SoundDuration":78369,"Delta":494077207},{"NoteNumber":63,"Velocity":57,"Duration":78369,"SoundDuration":78369,"Delta":494077207},{"NoteNumber":64,"Velocity":52,"Duration":78369,"SoundDuration":78369,"Delta":494233947},{"NoteNumber":52,"Velocity":44,"Duration":78369,"SoundDuration":78369,"Delta":494233947},{"NoteNumber":68,"Velocity":46,"Duration":235109,"SoundDuration":235109,"Delta":494312317},{"NoteNumber":64,"Velocity":39,"Duration":235109,"SoundDuration":235109,"Delta":494312317},{"NoteNumber":44,"Velocity":44,"Duration":78369,"SoundDuration":78369,"Delta":494390687},{"NoteNumber":56,"Velocity":52,"Duration":78369,"SoundDuration":78369,"Delta":494390687},{"NoteNumber":42,"Velocity":45,"Duration":79617,"SoundDuration":79617,"Delta":494547427},{"NoteNumber":54,"Velocity":55,"Duration":79617,"SoundDuration":79617,"Delta":494547427},{"NoteNumber":56,"Velocity":50,"Duration":79617,"SoundDuration":79617,"Delta":494706662},{"NoteNumber":44,"Velocity":42,"Duration":79617,"SoundDuration":79617,"Delta":494706662},{"NoteNumber":72,"Velocity":52,"Duration":497611,"SoundDuration":497611,"Delta":494786280},{"NoteNumber":64,"Velocity":44,"Duration":497611,"SoundDuration":497611,"Delta":494786280},{"NoteNumber":57,"Velocity":44,"Duration":477707,"SoundDuration":477707,"Delta":494786280},{"NoteNumber":42,"Velocity":42,"Duration":79617,"SoundDuration":79617,"Delta":494865898},{"NoteNumber":54,"Velocity":50,"Duration":79617,"SoundDuration":79617,"Delta":494865898},{"NoteNumber":41,"Velocity":45,"Duration":79617,"SoundDuration":79617,"Delta":495025134},{"NoteNumber":53,"Velocity":55,"Duration":79617,"SoundDuration":79617,"Delta":495025134},{"NoteNumber":54,"Velocity":50,"Duration":79617,"SoundDuration":79617,"Delta":495184369},{"NoteNumber":42,"Velocity":42,"Duration":79617,"SoundDuration":79617,"Delta":495184369},{"NoteNumber":71,"Velocity":43,"Duration":258829,"SoundDuration":258829,"Delta":495263987},{"NoteNumber":57,"Velocity":36,"Duration":258829,"SoundDuration":258829,"Delta":495263987},{"NoteNumber":63,"Velocity":36,"Duration":258829,"SoundDuration":258829,"Delta":495263987},{"NoteNumber":35,"Velocity":42,"Duration":89605,"SoundDuration":89605,"Delta":495343605},{"NoteNumber":47,"Velocity":50,"Duration":89605,"SoundDuration":89605,"Delta":495343605},{"NoteNumber":52,"Velocity":54,"Duration":161812,"SoundDuration":161812,"Delta":495522816},{"NoteNumber":40,"Velocity":45,"Duration":161812,"SoundDuration":161812,"Delta":495522816},{"NoteNumber":56,"Velocity":48,"Duration":161812,"SoundDuration":161812,"Delta":495684629},{"NoteNumber":44,"Velocity":40,"Duration":161812,"SoundDuration":161812,"Delta":495684629},{"NoteNumber":59,"Velocity":49,"Duration":161812,"SoundDuration":161812,"Delta":495846441},{"NoteNumber":47,"Velocity":41,"Duration":161812,"SoundDuration":161812,"Delta":495846441},{"NoteNumber":64,"Velocity":54,"Duration":121359,"SoundDuration":121359,"Delta":496008253},{"NoteNumber":52,"Velocity":45,"Duration":121359,"SoundDuration":121359,"Delta":496008253},{"NoteNumber":56,"Velocity":45,"Duration":121359,"SoundDuration":121359,"Delta":496008253},{"NoteNumber":68,"Velocity":49,"Duration":161812,"SoundDuration":161812,"Delta":496170066},{"NoteNumber":56,"Velocity":42,"Duration":161812,"SoundDuration":161812,"Delta":496170066},{"NoteNumber":71,"Velocity":54,"Duration":173010,"SoundDuration":173010,"Delta":496331878},{"NoteNumber":59,"Velocity":45,"Duration":173010,"SoundDuration":173010,"Delta":496331878},{"NoteNumber":76,"Velocity":63,"Duration":89087,"SoundDuration":89087,"Delta":496504888},{"NoteNumber":64,"Velocity":54,"Duration":89087,"SoundDuration":89087,"Delta":496504888},{"NoteNumber":88,"Velocity":63,"Duration":54880,"SoundDuration":54880,"Delta":496666440},{"NoteNumber":80,"Velocity":53,"Duration":54880,"SoundDuration":54880,"Delta":496666440},{"NoteNumber":76,"Velocity":53,"Duration":54880,"SoundDuration":54880,"Delta":496666440},{"NoteNumber":64,"Velocity":59,"Duration":54880,"SoundDuration":54880,"Delta":496666440},{"NoteNumber":59,"Velocity":50,"Duration":54880,"SoundDuration":54880,"Delta":496666440},{"NoteNumber":52,"Velocity":50,"Duration":54880,"SoundDuration":54880,"Delta":496666440},{"NoteNumber":87,"Velocity":54,"Duration":55970,"SoundDuration":55970,"Delta":496813397},{"NoteNumber":81,"Velocity":45,"Duration":55970,"SoundDuration":55970,"Delta":496813397},{"NoteNumber":75,"Velocity":45,"Duration":55970,"SoundDuration":55970,"Delta":496813397},{"NoteNumber":63,"Velocity":54,"Duration":55970,"SoundDuration":55970,"Delta":496813397},{"NoteNumber":59,"Velocity":45,"Duration":55970,"SoundDuration":55970,"Delta":496813397},{"NoteNumber":53,"Velocity":45,"Duration":55970,"SoundDuration":55970,"Delta":496813397},{"NoteNumber":86,"Velocity":62,"Duration":57692,"SoundDuration":57692,"Delta":496964378},{"NoteNumber":81,"Velocity":51,"Duration":57692,"SoundDuration":57692,"Delta":496964378},{"NoteNumber":74,"Velocity":51,"Duration":57692,"SoundDuration":57692,"Delta":496964378},{"NoteNumber":62,"Velocity":62,"Duration":57692,"SoundDuration":57692,"Delta":496964378},{"NoteNumber":60,"Velocity":51,"Duration":57692,"SoundDuration":57692,"Delta":496964378},{"NoteNumber":54,"Velocity":51,"Duration":57692,"SoundDuration":57692,"Delta":496964378},{"NoteNumber":86,"Velocity":54,"Duration":59492,"SoundDuration":59492,"Delta":497119696},{"NoteNumber":77,"Velocity":45,"Duration":59492,"SoundDuration":59492,"Delta":497119696},{"NoteNumber":74,"Velocity":45,"Duration":59492,"SoundDuration":59492,"Delta":497119696},{"NoteNumber":59,"Velocity":54,"Duration":59492,"SoundDuration":59492,"Delta":497119696},{"NoteNumber":55,"Velocity":45,"Duration":59492,"SoundDuration":59492,"Delta":497119696},{"NoteNumber":83,"Velocity":54,"Duration":61240,"SoundDuration":61240,"Delta":497279391},{"NoteNumber":76,"Velocity":45,"Duration":61240,"SoundDuration":61240,"Delta":497279391},{"NoteNumber":71,"Velocity":45,"Duration":61240,"SoundDuration":61240,"Delta":497279391},{"NoteNumber":62,"Velocity":54,"Duration":61240,"SoundDuration":61240,"Delta":497279391},{"NoteNumber":56,"Velocity":45,"Duration":61240,"SoundDuration":61240,"Delta":497279391},{"NoteNumber":57,"Velocity":61,"Duration":86505,"SoundDuration":86505,"Delta":497445017},{"NoteNumber":45,"Velocity":46,"Duration":86505,"SoundDuration":86505,"Delta":497445017},{"NoteNumber":47,"Velocity":39,"Duration":79617,"SoundDuration":79617,"Delta":497618027},{"NoteNumber":59,"Velocity":48,"Duration":79617,"SoundDuration":79617,"Delta":497618027},{"NoteNumber":45,"Velocity":39,"Duration":81168,"SoundDuration":81168,"Delta":497778814},{"NoteNumber":57,"Velocity":48,"Duration":81168,"SoundDuration":81168,"Delta":497778814},{"NoteNumber":73,"Velocity":45,"Duration":263798,"SoundDuration":263798,"Delta":497941151},{"NoteNumber":61,"Velocity":38,"Duration":263798,"SoundDuration":263798,"Delta":497941151},{"NoteNumber":64,"Velocity":38,"Duration":243506,"SoundDuration":243506,"Delta":497941151},{"NoteNumber":56,"Velocity":54,"Duration":81168,"SoundDuration":81168,"Delta":497941151},{"NoteNumber":44,"Velocity":45,"Duration":81168,"SoundDuration":81168,"Delta":497941151},{"NoteNumber":45,"Velocity":41,"Duration":81168,"SoundDuration":81168,"Delta":498103489},{"NoteNumber":57,"Velocity":49,"Duration":81168,"SoundDuration":81168,"Delta":498103489},{"NoteNumber":68,"Velocity":43,"Duration":243506,"SoundDuration":243506,"Delta":498184658},{"NoteNumber":62,"Velocity":36,"Duration":243506,"SoundDuration":243506,"Delta":498184658},{"NoteNumber":64,"Velocity":36,"Duration":243506,"SoundDuration":243506,"Delta":498184658},{"NoteNumber":47,"Velocity":41,"Duration":50730,"SoundDuration":50730,"Delta":498265827},{"NoteNumber":59,"Velocity":49,"Duration":50730,"SoundDuration":50730,"Delta":498265827},{"NoteNumber":61,"Velocity":61,"Duration":86805,"SoundDuration":86805,"Delta":498428164},{"NoteNumber":49,"Velocity":46,"Duration":86805,"SoundDuration":86805,"Delta":498428164},{"NoteNumber":48,"Velocity":43,"Duration":78369,"SoundDuration":78369,"Delta":498596483},{"NoteNumber":60,"Velocity":51,"Duration":78369,"SoundDuration":78369,"Delta":498596483},{"NoteNumber":50,"Velocity":43,"Duration":78369,"SoundDuration":78369,"Delta":498753222},{"NoteNumber":62,"Velocity":51,"Duration":78369,"SoundDuration":78369,"Delta":498753222},{"NoteNumber":69,"Velocity":46,"Duration":235109,"SoundDuration":235109,"Delta":498909962},{"NoteNumber":64,"Velocity":39,"Duration":235109,"SoundDuration":235109,"Delta":498909962},{"NoteNumber":61,"Velocity":56,"Duration":78369,"SoundDuration":78369,"Delta":498909962},{"NoteNumber":49,"Velocity":46,"Duration":78369,"SoundDuration":78369,"Delta":498909962},{"NoteNumber":47,"Velocity":43,"Duration":78369,"SoundDuration":78369,"Delta":499066702},{"NoteNumber":59,"Velocity":51,"Duration":78369,"SoundDuration":78369,"Delta":499066702},{"NoteNumber":73,"Velocity":44,"Duration":248437,"SoundDuration":248437,"Delta":499145072},{"NoteNumber":64,"Velocity":36,"Duration":248437,"SoundDuration":248437,"Delta":499145072},{"NoteNumber":69,"Velocity":36,"Duration":248437,"SoundDuration":248437,"Delta":499145072},{"NoteNumber":45,"Velocity":43,"Duration":85034,"SoundDuration":85034,"Delta":499223442},{"NoteNumber":57,"Velocity":51,"Duration":85034,"SoundDuration":85034,"Delta":499223442},{"NoteNumber":54,"Velocity":54,"Duration":161812,"SoundDuration":161812,"Delta":499393510},{"NoteNumber":42,"Velocity":45,"Duration":161812,"SoundDuration":161812,"Delta":499393510},{"NoteNumber":45,"Velocity":40,"Duration":161812,"SoundDuration":161812,"Delta":499555322},{"NoteNumber":57,"Velocity":48,"Duration":161812,"SoundDuration":161812,"Delta":499555322},{"NoteNumber":50,"Velocity":40,"Duration":161812,"SoundDuration":161812,"Delta":499717135},{"NoteNumber":62,"Velocity":48,"Duration":161812,"SoundDuration":161812,"Delta":499717135},{"NoteNumber":62,"Velocity":48,"Duration":242718,"SoundDuration":242718,"Delta":499878947},{"NoteNumber":69,"Velocity":48,"Duration":242718,"SoundDuration":242718,"Delta":499878947},{"NoteNumber":74,"Velocity":54,"Duration":242718,"SoundDuration":242718,"Delta":499878947},{"NoteNumber":66,"Velocity":52,"Duration":121359,"SoundDuration":121359,"Delta":499878947},{"NoteNumber":54,"Velocity":44,"Duration":121359,"SoundDuration":121359,"Delta":499878947},{"NoteNumber":69,"Velocity":54,"Duration":161812,"SoundDuration":161812,"Delta":500040759},{"NoteNumber":57,"Velocity":45,"Duration":161812,"SoundDuration":161812,"Delta":500040759},{"NoteNumber":73,"Velocity":58,"Duration":173010,"SoundDuration":173010,"Delta":500204734},{"NoteNumber":61,"Velocity":49,"Duration":173010,"SoundDuration":173010,"Delta":500204734},{"NoteNumber":74,"Velocity":61,"Duration":164891,"SoundDuration":164891,"Delta":500375582},{"NoteNumber":62,"Velocity":51,"Duration":164891,"SoundDuration":164891,"Delta":500375582},{"NoteNumber":86,"Velocity":54,"Duration":80906,"SoundDuration":80906,"Delta":500540474},{"NoteNumber":74,"Velocity":45,"Duration":80906,"SoundDuration":80906,"Delta":500540474},{"NoteNumber":86,"Velocity":54,"Duration":82203,"SoundDuration":82203,"Delta":500702885},{"NoteNumber":74,"Velocity":45,"Duration":82203,"SoundDuration":82203,"Delta":500702885},{"NoteNumber":86,"Velocity":56,"Duration":83162,"SoundDuration":83162,"Delta":500867055},{"NoteNumber":74,"Velocity":47,"Duration":83162,"SoundDuration":83162,"Delta":500867055},{"NoteNumber":86,"Velocity":53,"Duration":86170,"SoundDuration":86170,"Delta":501034399},{"NoteNumber":74,"Velocity":45,"Duration":86170,"SoundDuration":86170,"Delta":501034399},{"NoteNumber":86,"Velocity":54,"Duration":89285,"SoundDuration":89285,"Delta":501207952},{"NoteNumber":74,"Velocity":45,"Duration":89285,"SoundDuration":89285,"Delta":501207952},{"NoteNumber":86,"Velocity":56,"Duration":185185,"SoundDuration":185185,"Delta":501388157},{"NoteNumber":74,"Velocity":47,"Duration":185185,"SoundDuration":185185,"Delta":501388157},{"NoteNumber":80,"Velocity":53,"Duration":82055,"SoundDuration":82055,"Delta":501573343},{"NoteNumber":68,"Velocity":45,"Duration":82055,"SoundDuration":82055,"Delta":501573343},{"NoteNumber":62,"Velocity":42,"Duration":180868,"SoundDuration":180868,"Delta":501655398},{"NoteNumber":52,"Velocity":35,"Duration":180868,"SoundDuration":180868,"Delta":501655398},{"NoteNumber":59,"Velocity":35,"Duration":180868,"SoundDuration":180868,"Delta":501655398},{"NoteNumber":80,"Velocity":53,"Duration":79379,"SoundDuration":79379,"Delta":501737656},{"NoteNumber":68,"Velocity":45,"Duration":79379,"SoundDuration":79379,"Delta":501737656},{"NoteNumber":80,"Velocity":53,"Duration":74626,"SoundDuration":74626,"Delta":501892811},{"NoteNumber":68,"Velocity":45,"Duration":74626,"SoundDuration":74626,"Delta":501892811},{"NoteNumber":62,"Velocity":42,"Duration":169611,"SoundDuration":169611,"Delta":501892811},{"NoteNumber":52,"Velocity":35,"Duration":169611,"SoundDuration":169611,"Delta":501892811},{"NoteNumber":59,"Velocity":35,"Duration":169611,"SoundDuration":169611,"Delta":501892811},{"NoteNumber":80,"Velocity":53,"Duration":76456,"SoundDuration":76456,"Delta":502043426},{"NoteNumber":68,"Velocity":45,"Duration":76456,"SoundDuration":76456,"Delta":502043426},{"NoteNumber":62,"Velocity":42,"Duration":174881,"SoundDuration":174881,"Delta":502119883},{"NoteNumber":52,"Velocity":35,"Duration":174881,"SoundDuration":174881,"Delta":502119883},{"NoteNumber":59,"Velocity":35,"Duration":174881,"SoundDuration":174881,"Delta":502119883},{"NoteNumber":80,"Velocity":52,"Duration":78128,"SoundDuration":78128,"Delta":502197043},{"NoteNumber":68,"Velocity":44,"Duration":78128,"SoundDuration":78128,"Delta":502197043},{"NoteNumber":80,"Velocity":51,"Duration":78369,"SoundDuration":78369,"Delta":502354290},{"NoteNumber":68,"Velocity":43,"Duration":78369,"SoundDuration":78369,"Delta":502354290},{"NoteNumber":62,"Velocity":46,"Duration":470219,"SoundDuration":470219,"Delta":502354290},{"NoteNumber":52,"Velocity":39,"Duration":470219,"SoundDuration":470219,"Delta":502354290},{"NoteNumber":59,"Velocity":39,"Duration":470219,"SoundDuration":470219,"Delta":502354290},{"NoteNumber":80,"Velocity":51,"Duration":78369,"SoundDuration":78369,"Delta":502511030},{"NoteNumber":68,"Velocity":43,"Duration":78369,"SoundDuration":78369,"Delta":502511030},{"NoteNumber":80,"Velocity":50,"Duration":78369,"SoundDuration":78369,"Delta":502667770},{"NoteNumber":68,"Velocity":42,"Duration":78369,"SoundDuration":78369,"Delta":502667770},{"NoteNumber":40,"Velocity":36,"Duration":324773,"SoundDuration":324773,"Delta":502736343},{"NoteNumber":47,"Velocity":36,"Duration":295384,"SoundDuration":295384,"Delta":502765732},{"NoteNumber":50,"Velocity":36,"Duration":265995,"SoundDuration":265995,"Delta":502795121},{"NoteNumber":80,"Velocity":49,"Duration":156989,"SoundDuration":156989,"Delta":502824509},{"NoteNumber":68,"Velocity":41,"Duration":156989,"SoundDuration":156989,"Delta":502824509},{"NoteNumber":56,"Velocity":43,"Duration":236607,"SoundDuration":236607,"Delta":502824509},{"NoteNumber":81,"Velocity":48,"Duration":160524,"SoundDuration":160524,"Delta":502981499},{"NoteNumber":69,"Velocity":40,"Duration":160524,"SoundDuration":160524,"Delta":502981499},{"NoteNumber":83,"Velocity":47,"Duration":165032,"SoundDuration":165032,"Delta":503142023},{"NoteNumber":71,"Velocity":40,"Duration":165032,"SoundDuration":165032,"Delta":503142023},{"NoteNumber":57,"Velocity":61,"Duration":86505,"SoundDuration":86505,"Delta":503307055},{"NoteNumber":45,"Velocity":46,"Duration":86505,"SoundDuration":86505,"Delta":503307055},{"NoteNumber":47,"Velocity":39,"Duration":79617,"SoundDuration":79617,"Delta":503480066},{"NoteNumber":59,"Velocity":48,"Duration":79617,"SoundDuration":79617,"Delta":503480066},{"NoteNumber":45,"Velocity":39,"Duration":81168,"SoundDuration":81168,"Delta":503640852},{"NoteNumber":57,"Velocity":48,"Duration":81168,"SoundDuration":81168,"Delta":503640852},{"NoteNumber":73,"Velocity":45,"Duration":263798,"SoundDuration":263798,"Delta":503803190},{"NoteNumber":61,"Velocity":38,"Duration":263798,"SoundDuration":263798,"Delta":503803190},{"NoteNumber":64,"Velocity":38,"Duration":243506,"SoundDuration":243506,"Delta":503803190},{"NoteNumber":56,"Velocity":54,"Duration":81168,"SoundDuration":81168,"Delta":503803190},{"NoteNumber":44,"Velocity":45,"Duration":81168,"SoundDuration":81168,"Delta":503803190},{"NoteNumber":45,"Velocity":41,"Duration":81168,"SoundDuration":81168,"Delta":503965528},{"NoteNumber":57,"Velocity":49,"Duration":81168,"SoundDuration":81168,"Delta":503965528},{"NoteNumber":68,"Velocity":43,"Duration":243506,"SoundDuration":243506,"Delta":504046697},{"NoteNumber":62,"Velocity":36,"Duration":243506,"SoundDuration":243506,"Delta":504046697},{"NoteNumber":64,"Velocity":36,"Duration":243506,"SoundDuration":243506,"Delta":504046697},{"NoteNumber":47,"Velocity":41,"Duration":50730,"SoundDuration":50730,"Delta":504127865},{"NoteNumber":59,"Velocity":49,"Duration":50730,"SoundDuration":50730,"Delta":504127865},{"NoteNumber":61,"Velocity":61,"Duration":86805,"SoundDuration":86805,"Delta":504290203},{"NoteNumber":49,"Velocity":46,"Duration":86805,"SoundDuration":86805,"Delta":504290203},{"NoteNumber":48,"Velocity":43,"Duration":78369,"SoundDuration":78369,"Delta":504458521},{"NoteNumber":60,"Velocity":51,"Duration":78369,"SoundDuration":78369,"Delta":504458521},{"NoteNumber":50,"Velocity":43,"Duration":78369,"SoundDuration":78369,"Delta":504615261},{"NoteNumber":62,"Velocity":51,"Duration":78369,"SoundDuration":78369,"Delta":504615261},{"NoteNumber":69,"Velocity":46,"Duration":235109,"SoundDuration":235109,"Delta":504772001},{"NoteNumber":64,"Velocity":39,"Duration":483547,"SoundDuration":483547,"Delta":504772001},{"NoteNumber":61,"Velocity":56,"Duration":78369,"SoundDuration":78369,"Delta":504772001},{"NoteNumber":49,"Velocity":46,"Duration":78369,"SoundDuration":78369,"Delta":504772001},{"NoteNumber":47,"Velocity":43,"Duration":78369,"SoundDuration":78369,"Delta":504928741},{"NoteNumber":59,"Velocity":51,"Duration":78369,"SoundDuration":78369,"Delta":504928741},{"NoteNumber":73,"Velocity":44,"Duration":248437,"SoundDuration":248437,"Delta":505007111},{"NoteNumber":69,"Velocity":36,"Duration":248437,"SoundDuration":248437,"Delta":505007111},{"NoteNumber":45,"Velocity":43,"Duration":85034,"SoundDuration":85034,"Delta":505085481},{"NoteNumber":57,"Velocity":51,"Duration":85034,"SoundDuration":85034,"Delta":505085481},{"NoteNumber":54,"Velocity":54,"Duration":161812,"SoundDuration":161812,"Delta":505255549},{"NoteNumber":42,"Velocity":45,"Duration":161812,"SoundDuration":161812,"Delta":505255549},{"NoteNumber":45,"Velocity":40,"Duration":161812,"SoundDuration":161812,"Delta":505417361},{"NoteNumber":57,"Velocity":48,"Duration":161812,"SoundDuration":161812,"Delta":505417361},{"NoteNumber":50,"Velocity":40,"Duration":161812,"SoundDuration":161812,"Delta":505579173},{"NoteNumber":62,"Velocity":48,"Duration":161812,"SoundDuration":161812,"Delta":505579173},{"NoteNumber":62,"Velocity":48,"Duration":303398,"SoundDuration":303398,"Delta":505680306},{"NoteNumber":69,"Velocity":48,"Duration":273058,"SoundDuration":273058,"Delta":505710646},{"NoteNumber":78,"Velocity":54,"Duration":242718,"SoundDuration":242718,"Delta":505740986},{"NoteNumber":66,"Velocity":52,"Duration":121359,"SoundDuration":121359,"Delta":505740986},{"NoteNumber":54,"Velocity":44,"Duration":121359,"SoundDuration":121359,"Delta":505740986},{"NoteNumber":69,"Velocity":54,"Duration":161812,"SoundDuration":161812,"Delta":505902798},{"NoteNumber":57,"Velocity":45,"Duration":161812,"SoundDuration":161812,"Delta":505902798},{"NoteNumber":62,"Velocity":49,"Duration":173010,"SoundDuration":173010,"Delta":506066773},{"NoteNumber":74,"Velocity":58,"Duration":173010,"SoundDuration":173010,"Delta":506066773},{"NoteNumber":78,"Velocity":61,"Duration":165619,"SoundDuration":165619,"Delta":506237621},{"NoteNumber":66,"Velocity":51,"Duration":165619,"SoundDuration":165619,"Delta":506237621},{"NoteNumber":90,"Velocity":45,"Duration":82847,"SoundDuration":82847,"Delta":506362059},{"NoteNumber":78,"Velocity":37,"Duration":82847,"SoundDuration":82847,"Delta":506362059},{"NoteNumber":90,"Velocity":46,"Duration":84745,"SoundDuration":84745,"Delta":506486609},{"NoteNumber":78,"Velocity":39,"Duration":84745,"SoundDuration":84745,"Delta":506486609},{"NoteNumber":90,"Velocity":47,"Duration":86206,"SoundDuration":86206,"Delta":506614093},{"NoteNumber":78,"Velocity":40,"Duration":86206,"SoundDuration":86206,"Delta":506614093},{"NoteNumber":90,"Velocity":49,"Duration":88071,"SoundDuration":88071,"Delta":506744160},{"NoteNumber":78,"Velocity":41,"Duration":88071,"SoundDuration":88071,"Delta":506744160},{"NoteNumber":71,"Velocity":56,"Duration":269829,"SoundDuration":269829,"Delta":506744160},{"NoteNumber":62,"Velocity":47,"Duration":269829,"SoundDuration":269829,"Delta":506744160},{"NoteNumber":90,"Velocity":51,"Duration":90909,"SoundDuration":90909,"Delta":506877037},{"NoteNumber":78,"Velocity":43,"Duration":90909,"SoundDuration":90909,"Delta":506877037},{"NoteNumber":90,"Velocity":52,"Duration":92723,"SoundDuration":92723,"Delta":507013989},{"NoteNumber":78,"Velocity":44,"Duration":92723,"SoundDuration":92723,"Delta":507013989},{"NoteNumber":69,"Velocity":52,"Duration":283229,"SoundDuration":283229,"Delta":507013989},{"NoteNumber":61,"Velocity":44,"Duration":283229,"SoundDuration":283229,"Delta":507013989},{"NoteNumber":90,"Velocity":54,"Duration":94929,"SoundDuration":94929,"Delta":507153883},{"NoteNumber":78,"Velocity":45,"Duration":94929,"SoundDuration":94929,"Delta":507153883},{"NoteNumber":90,"Velocity":55,"Duration":154449,"SoundDuration":154449,"Delta":507297219},{"NoteNumber":78,"Velocity":55,"Duration":154449,"SoundDuration":154449,"Delta":507297219},{"NoteNumber":59,"Velocity":44,"Duration":291500,"SoundDuration":291500,"Delta":507297219},{"NoteNumber":62,"Velocity":45,"Duration":291500,"SoundDuration":291500,"Delta":507297219},{"NoteNumber":68,"Velocity":54,"Duration":245246,"SoundDuration":245246,"Delta":507297219},{"NoteNumber":80,"Velocity":47,"Duration":90796,"SoundDuration":90796,"Delta":507451669},{"NoteNumber":68,"Velocity":40,"Duration":137050,"SoundDuration":137050,"Delta":507451669},{"NoteNumber":80,"Velocity":47,"Duration":90909,"SoundDuration":90909,"Delta":507588720},{"NoteNumber":68,"Velocity":40,"Duration":90909,"SoundDuration":90909,"Delta":507588720},{"NoteNumber":80,"Velocity":47,"Duration":89285,"SoundDuration":89285,"Delta":507724677},{"NoteNumber":68,"Velocity":40,"Duration":89285,"SoundDuration":89285,"Delta":507724677},{"NoteNumber":40,"Velocity":45,"Duration":355640,"SoundDuration":355640,"Delta":507758159},{"NoteNumber":47,"Velocity":47,"Duration":322158,"SoundDuration":322158,"Delta":507791642},{"NoteNumber":50,"Velocity":50,"Duration":288872,"SoundDuration":288872,"Delta":507824928},{"NoteNumber":80,"Velocity":47,"Duration":77775,"SoundDuration":77775,"Delta":507857823},{"NoteNumber":68,"Velocity":40,"Duration":77775,"SoundDuration":77775,"Delta":507857823},{"NoteNumber":56,"Velocity":52,"Duration":255977,"SoundDuration":255977,"Delta":507857823},{"NoteNumber":80,"Velocity":47,"Duration":76563,"SoundDuration":76563,"Delta":507961460},{"NoteNumber":68,"Velocity":40,"Duration":76563,"SoundDuration":76563,"Delta":507961460},{"NoteNumber":80,"Velocity":47,"Duration":75353,"SoundDuration":75353,"Delta":508063447},{"NoteNumber":68,"Velocity":40,"Duration":75353,"SoundDuration":75353,"Delta":508063447},{"NoteNumber":80,"Velocity":48,"Duration":73770,"SoundDuration":73770,"Delta":508163391},{"NoteNumber":68,"Velocity":40,"Duration":73770,"SoundDuration":73770,"Delta":508163391},{"NoteNumber":80,"Velocity":48,"Duration":73999,"SoundDuration":73999,"Delta":508261751},{"NoteNumber":68,"Velocity":40,"Duration":73999,"SoundDuration":73999,"Delta":508261751},{"NoteNumber":80,"Velocity":47,"Duration":97490,"SoundDuration":97490,"Delta":508360422},{"NoteNumber":68,"Velocity":40,"Duration":97490,"SoundDuration":97490,"Delta":508360422},{"NoteNumber":81,"Velocity":48,"Duration":96710,"SoundDuration":96710,"Delta":508457912},{"NoteNumber":69,"Velocity":40,"Duration":96710,"SoundDuration":96710,"Delta":508457912},{"NoteNumber":82,"Velocity":49,"Duration":95238,"SoundDuration":95238,"Delta":508554623},{"NoteNumber":70,"Velocity":41,"Duration":95238,"SoundDuration":95238,"Delta":508554623},{"NoteNumber":83,"Velocity":50,"Duration":93750,"SoundDuration":93750,"Delta":508649861},{"NoteNumber":71,"Velocity":42,"Duration":93750,"SoundDuration":93750,"Delta":508649861},{"NoteNumber":84,"Velocity":51,"Duration":92397,"SoundDuration":92397,"Delta":508743611},{"NoteNumber":72,"Velocity":43,"Duration":92397,"SoundDuration":92397,"Delta":508743611},{"NoteNumber":85,"Velocity":53,"Duration":91054,"SoundDuration":91054,"Delta":508836009},{"NoteNumber":73,"Velocity":45,"Duration":91054,"SoundDuration":91054,"Delta":508836009},{"NoteNumber":86,"Velocity":54,"Duration":89092,"SoundDuration":89092,"Delta":508927063},{"NoteNumber":74,"Velocity":45,"Duration":89092,"SoundDuration":89092,"Delta":508927063},{"NoteNumber":75,"Velocity":45,"Duration":90976,"SoundDuration":90976,"Delta":509016156},{"NoteNumber":87,"Velocity":54,"Duration":90976,"SoundDuration":90976,"Delta":509016156},{"NoteNumber":88,"Velocity":55,"Duration":93989,"SoundDuration":93989,"Delta":509107132},{"NoteNumber":76,"Velocity":46,"Duration":93989,"SoundDuration":93989,"Delta":509107132},{"NoteNumber":89,"Velocity":57,"Duration":103482,"SoundDuration":103482,"Delta":509201121},{"NoteNumber":77,"Velocity":48,"Duration":103482,"SoundDuration":103482,"Delta":509201121},{"NoteNumber":90,"Velocity":61,"Duration":312500,"SoundDuration":312500,"Delta":509304604},{"NoteNumber":78,"Velocity":51,"Duration":312500,"SoundDuration":312500,"Delta":509304604},{"NoteNumber":78,"Velocity":52,"Duration":529100,"SoundDuration":529100,"Delta":510061879},{"NoteNumber":66,"Velocity":44,"Duration":529100,"SoundDuration":529100,"Delta":510061879},{"NoteNumber":80,"Velocity":52,"Duration":336021,"SoundDuration":336021,"Delta":510933339},{"NoteNumber":68,"Velocity":44,"Duration":336021,"SoundDuration":336021,"Delta":510933339},{"NoteNumber":45,"Velocity":42,"Duration":501612,"SoundDuration":501612,"Delta":511269360},{"NoteNumber":52,"Velocity":46,"Duration":679377,"SoundDuration":679377,"Delta":511370167},{"NoteNumber":81,"Velocity":59,"Duration":200000,"SoundDuration":200000,"Delta":511470973},{"NoteNumber":69,"Velocity":49,"Duration":200000,"SoundDuration":200000,"Delta":511470973},{"NoteNumber":61,"Velocity":62,"Duration":578571,"SoundDuration":578571,"Delta":511470973},{"NoteNumber":75,"Velocity":56,"Duration":200000,"SoundDuration":200000,"Delta":511670973},{"NoteNumber":63,"Velocity":47,"Duration":200000,"SoundDuration":200000,"Delta":511670973},{"NoteNumber":40,"Velocity":54,"Duration":278571,"SoundDuration":278571,"Delta":511770973},{"NoteNumber":76,"Velocity":57,"Duration":178571,"SoundDuration":178571,"Delta":511870973},{"NoteNumber":64,"Velocity":48,"Duration":178571,"SoundDuration":178571,"Delta":511870973},{"NoteNumber":78,"Velocity":62,"Duration":185185,"SoundDuration":185185,"Delta":512049545},{"NoteNumber":69,"Velocity":43,"Duration":587978,"SoundDuration":587978,"Delta":512049545},{"NoteNumber":73,"Velocity":49,"Duration":587978,"SoundDuration":587978,"Delta":512049545},{"NoteNumber":66,"Velocity":47,"Duration":185185,"SoundDuration":185185,"Delta":512049545},{"NoteNumber":57,"Velocity":60,"Duration":277777,"SoundDuration":277777,"Delta":512049545},{"NoteNumber":52,"Velocity":50,"Duration":277777,"SoundDuration":277777,"Delta":512049545},{"NoteNumber":49,"Velocity":42,"Duration":277777,"SoundDuration":277777,"Delta":512049545},{"NoteNumber":75,"Velocity":59,"Duration":189117,"SoundDuration":189117,"Delta":512234730},{"NoteNumber":63,"Velocity":49,"Duration":189117,"SoundDuration":189117,"Delta":512234730},{"NoteNumber":52,"Velocity":55,"Duration":190007,"SoundDuration":190007,"Delta":512327322},{"NoteNumber":40,"Velocity":55,"Duration":190007,"SoundDuration":190007,"Delta":512327322},{"NoteNumber":76,"Velocity":57,"Duration":213675,"SoundDuration":213675,"Delta":512423848},{"NoteNumber":64,"Velocity":48,"Duration":213675,"SoundDuration":213675,"Delta":512423848},{"NoteNumber":47,"Velocity":50,"Duration":393915,"SoundDuration":393915,"Delta":512517330},{"NoteNumber":52,"Velocity":50,"Duration":611074,"SoundDuration":611074,"Delta":512557395},{"NoteNumber":56,"Velocity":50,"Duration":571010,"SoundDuration":571010,"Delta":512597459},{"NoteNumber":62,"Velocity":62,"Duration":530945,"SoundDuration":530945,"Delta":512637523},{"NoteNumber":87,"Velocity":62,"Duration":174852,"SoundDuration":174852,"Delta":512820005},{"NoteNumber":75,"Velocity":52,"Duration":174852,"SoundDuration":174852,"Delta":512820005},{"NoteNumber":40,"Velocity":53,"Duration":257223,"SoundDuration":257223,"Delta":512911245},{"NoteNumber":88,"Velocity":63,"Duration":173611,"SoundDuration":173611,"Delta":512994857},{"NoteNumber":76,"Velocity":53,"Duration":173611,"SoundDuration":173611,"Delta":512994857},{"NoteNumber":90,"Velocity":65,"Duration":179211,"SoundDuration":179211,"Delta":513168469},{"NoteNumber":83,"Velocity":55,"Duration":552908,"SoundDuration":552908,"Delta":513168469},{"NoteNumber":78,"Velocity":47,"Duration":179211,"SoundDuration":179211,"Delta":513168469},{"NoteNumber":56,"Velocity":59,"Duration":552908,"SoundDuration":552908,"Delta":513168469},{"NoteNumber":50,"Velocity":50,"Duration":268817,"SoundDuration":268817,"Delta":513168469},{"NoteNumber":87,"Velocity":63,"Duration":184302,"SoundDuration":184302,"Delta":513347680},{"NoteNumber":75,"Velocity":54,"Duration":184302,"SoundDuration":184302,"Delta":513347680},{"NoteNumber":40,"Velocity":54,"Duration":284090,"SoundDuration":284090,"Delta":513437286},{"NoteNumber":88,"Velocity":61,"Duration":189393,"SoundDuration":189393,"Delta":513531983},{"NoteNumber":76,"Velocity":51,"Duration":189393,"SoundDuration":189393,"Delta":513531983},{"NoteNumber":57,"Velocity":59,"Duration":256461,"SoundDuration":256461,"Delta":513721377},{"NoteNumber":49,"Velocity":50,"Duration":256461,"SoundDuration":256461,"Delta":513721377},{"NoteNumber":52,"Velocity":50,"Duration":256461,"SoundDuration":256461,"Delta":513721377},{"NoteNumber":100,"Velocity":54,"Duration":127118,"SoundDuration":127118,"Delta":513893093},{"NoteNumber":97,"Velocity":54,"Duration":127118,"SoundDuration":127118,"Delta":513893093},{"NoteNumber":88,"Velocity":45,"Duration":127118,"SoundDuration":127118,"Delta":513893093},{"NoteNumber":76,"Velocity":54,"Duration":187864,"SoundDuration":187864,"Delta":513977838},{"NoteNumber":64,"Velocity":45,"Duration":187864,"SoundDuration":187864,"Delta":513977838},{"NoteNumber":73,"Velocity":45,"Duration":187864,"SoundDuration":187864,"Delta":513977838},{"NoteNumber":100,"Velocity":56,"Duration":124316,"SoundDuration":124316,"Delta":514061878},{"NoteNumber":97,"Velocity":56,"Duration":124316,"SoundDuration":124316,"Delta":514061878},{"NoteNumber":88,"Velocity":47,"Duration":124316,"SoundDuration":124316,"Delta":514061878},{"NoteNumber":100,"Velocity":58,"Duration":121628,"SoundDuration":121628,"Delta":514227179},{"NoteNumber":97,"Velocity":58,"Duration":121628,"SoundDuration":121628,"Delta":514227179},{"NoteNumber":88,"Velocity":49,"Duration":121628,"SoundDuration":121628,"Delta":514227179},{"NoteNumber":76,"Velocity":56,"Duration":181792,"SoundDuration":181792,"Delta":514227179},{"NoteNumber":64,"Velocity":47,"Duration":181792,"SoundDuration":181792,"Delta":514227179},{"NoteNumber":73,"Velocity":47,"Duration":181792,"SoundDuration":181792,"Delta":514227179},{"NoteNumber":100,"Velocity":61,"Duration":119661,"SoundDuration":119661,"Delta":514389130},{"NoteNumber":97,"Velocity":61,"Duration":119661,"SoundDuration":119661,"Delta":514389130},{"NoteNumber":88,"Velocity":51,"Duration":119661,"SoundDuration":119661,"Delta":514389130},{"NoteNumber":76,"Velocity":59,"Duration":187211,"SoundDuration":187211,"Delta":514468495},{"NoteNumber":64,"Velocity":50,"Duration":187211,"SoundDuration":187211,"Delta":514468495},{"NoteNumber":73,"Velocity":50,"Duration":187211,"SoundDuration":187211,"Delta":514468495},{"NoteNumber":100,"Velocity":60,"Duration":127423,"SoundDuration":127423,"Delta":514549909},{"NoteNumber":97,"Velocity":60,"Duration":127423,"SoundDuration":127423,"Delta":514549909},{"NoteNumber":88,"Velocity":50,"Duration":127423,"SoundDuration":127423,"Delta":514549909},{"NoteNumber":99,"Velocity":63,"Duration":163934,"SoundDuration":163934,"Delta":514721195},{"NoteNumber":96,"Velocity":63,"Duration":163934,"SoundDuration":163934,"Delta":514721195},{"NoteNumber":87,"Velocity":54,"Duration":163934,"SoundDuration":163934,"Delta":514721195},{"NoteNumber":56,"Velocity":62,"Duration":491803,"SoundDuration":491803,"Delta":514721195},{"NoteNumber":100,"Velocity":63,"Duration":163934,"SoundDuration":163934,"Delta":514885129},{"NoteNumber":97,"Velocity":63,"Duration":163934,"SoundDuration":163934,"Delta":514885129},{"NoteNumber":88,"Velocity":53,"Duration":163934,"SoundDuration":163934,"Delta":514885129},{"NoteNumber":75,"Velocity":59,"Duration":245901,"SoundDuration":245901,"Delta":514967097},{"NoteNumber":64,"Velocity":38,"Duration":509059,"SoundDuration":509059,"Delta":514967097},{"NoteNumber":72,"Velocity":48,"Duration":245901,"SoundDuration":245901,"Delta":514967097},{"NoteNumber":99,"Velocity":62,"Duration":163934,"SoundDuration":163934,"Delta":515049064},{"NoteNumber":96,"Velocity":62,"Duration":163934,"SoundDuration":163934,"Delta":515049064},{"NoteNumber":87,"Velocity":52,"Duration":163934,"SoundDuration":163934,"Delta":515049064},{"NoteNumber":100,"Velocity":60,"Duration":175438,"SoundDuration":175438,"Delta":515212998},{"NoteNumber":97,"Velocity":60,"Duration":175438,"SoundDuration":175438,"Delta":515212998},{"NoteNumber":88,"Velocity":50,"Duration":175438,"SoundDuration":175438,"Delta":515212998},{"NoteNumber":76,"Velocity":59,"Duration":263157,"SoundDuration":263157,"Delta":515212998},{"NoteNumber":73,"Velocity":50,"Duration":263157,"SoundDuration":263157,"Delta":515212998},{"NoteNumber":98,"Velocity":59,"Duration":175438,"SoundDuration":175438,"Delta":515388437},{"NoteNumber":95,"Velocity":59,"Duration":175438,"SoundDuration":175438,"Delta":515388437},{"NoteNumber":86,"Velocity":49,"Duration":175438,"SoundDuration":175438,"Delta":515388437},{"NoteNumber":74,"Velocity":59,"Duration":197368,"SoundDuration":197368,"Delta":515476156},{"NoteNumber":64,"Velocity":50,"Duration":197368,"SoundDuration":197368,"Delta":515476156},{"NoteNumber":71,"Velocity":50,"Duration":197368,"SoundDuration":197368,"Delta":515476156},{"NoteNumber":100,"Velocity":58,"Duration":208855,"SoundDuration":208855,"Delta":515563876},{"NoteNumber":97,"Velocity":58,"Duration":208855,"SoundDuration":208855,"Delta":515563876},{"NoteNumber":88,"Velocity":49,"Duration":208855,"SoundDuration":208855,"Delta":515563876},{"NoteNumber":45,"Velocity":47,"Duration":333581,"SoundDuration":333581,"Delta":515673525},{"NoteNumber":52,"Velocity":54,"Duration":542598,"SoundDuration":542598,"Delta":515723128},{"NoteNumber":61,"Velocity":72,"Duration":492995,"SoundDuration":492995,"Delta":515772731},{"NoteNumber":75,"Velocity":56,"Duration":164331,"SoundDuration":164331,"Delta":515928981},{"NoteNumber":63,"Velocity":47,"Duration":164331,"SoundDuration":164331,"Delta":515928981},{"NoteNumber":40,"Velocity":54,"Duration":258620,"SoundDuration":258620,"Delta":516007106},{"NoteNumber":76,"Velocity":57,"Duration":172413,"SoundDuration":172413,"Delta":516093313},{"NoteNumber":64,"Velocity":48,"Duration":172413,"SoundDuration":172413,"Delta":516093313},{"NoteNumber":78,"Velocity":62,"Duration":166666,"SoundDuration":166666,"Delta":516265727},{"NoteNumber":69,"Velocity":42,"Duration":518518,"SoundDuration":518518,"Delta":516265727},{"NoteNumber":73,"Velocity":49,"Duration":518518,"SoundDuration":518518,"Delta":516265727},{"NoteNumber":66,"Velocity":47,"Duration":166666,"SoundDuration":166666,"Delta":516265727},{"NoteNumber":57,"Velocity":61,"Duration":250000,"SoundDuration":250000,"Delta":516265727},{"NoteNumber":52,"Velocity":50,"Duration":250000,"SoundDuration":250000,"Delta":516265727},{"NoteNumber":49,"Velocity":40,"Duration":250000,"SoundDuration":250000,"Delta":516265727},{"NoteNumber":75,"Velocity":59,"Duration":166666,"SoundDuration":166666,"Delta":516432394},{"NoteNumber":63,"Velocity":49,"Duration":166666,"SoundDuration":166666,"Delta":516432394},{"NoteNumber":52,"Velocity":55,"Duration":164351,"SoundDuration":164351,"Delta":516515727},{"NoteNumber":40,"Velocity":55,"Duration":164351,"SoundDuration":164351,"Delta":516515727},{"NoteNumber":76,"Velocity":57,"Duration":185185,"SoundDuration":185185,"Delta":516599060},{"NoteNumber":64,"Velocity":48,"Duration":185185,"SoundDuration":185185,"Delta":516599060},{"NoteNumber":47,"Velocity":50,"Duration":334935,"SoundDuration":334935,"Delta":516680079},{"NoteNumber":52,"Velocity":50,"Duration":542149,"SoundDuration":542149,"Delta":516714801},{"NoteNumber":56,"Velocity":50,"Duration":507426,"SoundDuration":507426,"Delta":516749523},{"NoteNumber":62,"Velocity":70,"Duration":472704,"SoundDuration":472704,"Delta":516784245},{"NoteNumber":87,"Velocity":55,"Duration":157568,"SoundDuration":157568,"Delta":516938092},{"NoteNumber":75,"Velocity":46,"Duration":157568,"SoundDuration":157568,"Delta":516938092},{"NoteNumber":40,"Velocity":53,"Duration":241935,"SoundDuration":241935,"Delta":517015015},{"NoteNumber":88,"Velocity":56,"Duration":161290,"SoundDuration":161290,"Delta":517095660},{"NoteNumber":76,"Velocity":47,"Duration":161290,"SoundDuration":161290,"Delta":517095660},{"NoteNumber":90,"Velocity":58,"Duration":153846,"SoundDuration":153846,"Delta":517256950},{"NoteNumber":83,"Velocity":49,"Duration":504037,"SoundDuration":504037,"Delta":517256950},{"NoteNumber":78,"Velocity":49,"Duration":153846,"SoundDuration":153846,"Delta":517256950},{"NoteNumber":56,"Velocity":64,"Duration":504037,"SoundDuration":504037,"Delta":517256950},{"NoteNumber":50,"Velocity":50,"Duration":230769,"SoundDuration":230769,"Delta":517256950},{"NoteNumber":87,"Velocity":56,"Duration":171620,"SoundDuration":171620,"Delta":517410796},{"NoteNumber":75,"Velocity":48,"Duration":171620,"SoundDuration":171620,"Delta":517410796},{"NoteNumber":40,"Velocity":54,"Duration":273268,"SoundDuration":273268,"Delta":517487719},{"NoteNumber":88,"Velocity":54,"Duration":178571,"SoundDuration":178571,"Delta":517582416},{"NoteNumber":76,"Velocity":45,"Duration":178571,"SoundDuration":178571,"Delta":517582416},{"NoteNumber":57,"Velocity":59,"Duration":244579,"SoundDuration":244579,"Delta":517760988},{"NoteNumber":49,"Velocity":50,"Duration":244579,"SoundDuration":244579,"Delta":517760988},{"NoteNumber":52,"Velocity":50,"Duration":244579,"SoundDuration":244579,"Delta":517760988},{"NoteNumber":100,"Velocity":54,"Duration":120967,"SoundDuration":120967,"Delta":517924922},{"NoteNumber":97,"Velocity":54,"Duration":120967,"SoundDuration":120967,"Delta":517924922},{"NoteNumber":88,"Velocity":45,"Duration":120967,"SoundDuration":120967,"Delta":517924922},{"NoteNumber":76,"Velocity":51,"Duration":179851,"SoundDuration":179851,"Delta":518005568},{"NoteNumber":64,"Velocity":43,"Duration":179851,"SoundDuration":179851,"Delta":518005568},{"NoteNumber":73,"Velocity":43,"Duration":179851,"SoundDuration":179851,"Delta":518005568},{"NoteNumber":100,"Velocity":56,"Duration":119047,"SoundDuration":119047,"Delta":518086213},{"NoteNumber":97,"Velocity":56,"Duration":119047,"SoundDuration":119047,"Delta":518086213},{"NoteNumber":88,"Velocity":47,"Duration":119047,"SoundDuration":119047,"Delta":518086213},{"NoteNumber":100,"Velocity":58,"Duration":117187,"SoundDuration":117187,"Delta":518244323},{"NoteNumber":97,"Velocity":58,"Duration":117187,"SoundDuration":117187,"Delta":518244323},{"NoteNumber":88,"Velocity":49,"Duration":117187,"SoundDuration":117187,"Delta":518244323},{"NoteNumber":76,"Velocity":53,"Duration":174879,"SoundDuration":174879,"Delta":518244323},{"NoteNumber":64,"Velocity":45,"Duration":174879,"SoundDuration":174879,"Delta":518244323},{"NoteNumber":73,"Velocity":45,"Duration":174879,"SoundDuration":174879,"Delta":518244323},{"NoteNumber":100,"Velocity":61,"Duration":116745,"SoundDuration":116745,"Delta":518399972},{"NoteNumber":97,"Velocity":61,"Duration":116745,"SoundDuration":116745,"Delta":518399972},{"NoteNumber":88,"Velocity":51,"Duration":116745,"SoundDuration":116745,"Delta":518399972},{"NoteNumber":76,"Velocity":55,"Duration":186738,"SoundDuration":186738,"Delta":518476895},{"NoteNumber":64,"Velocity":47,"Duration":186738,"SoundDuration":186738,"Delta":518476895},{"NoteNumber":73,"Velocity":47,"Duration":186738,"SoundDuration":186738,"Delta":518476895},{"NoteNumber":100,"Velocity":60,"Duration":127423,"SoundDuration":127423,"Delta":518557836},{"NoteNumber":97,"Velocity":60,"Duration":127423,"SoundDuration":127423,"Delta":518557836},{"NoteNumber":88,"Velocity":50,"Duration":127423,"SoundDuration":127423,"Delta":518557836},{"NoteNumber":99,"Velocity":63,"Duration":166666,"SoundDuration":166666,"Delta":518729121},{"NoteNumber":96,"Velocity":63,"Duration":166666,"SoundDuration":166666,"Delta":518729121},{"NoteNumber":87,"Velocity":54,"Duration":166666,"SoundDuration":166666,"Delta":518729121},{"NoteNumber":56,"Velocity":62,"Duration":484375,"SoundDuration":484375,"Delta":518729121},{"NoteNumber":100,"Velocity":63,"Duration":161458,"SoundDuration":161458,"Delta":518895788},{"NoteNumber":97,"Velocity":63,"Duration":161458,"SoundDuration":161458,"Delta":518895788},{"NoteNumber":88,"Velocity":53,"Duration":161458,"SoundDuration":161458,"Delta":518895788},{"NoteNumber":75,"Velocity":55,"Duration":234375,"SoundDuration":234375,"Delta":518979121},{"NoteNumber":64,"Velocity":40,"Duration":468750,"SoundDuration":468750,"Delta":518979121},{"NoteNumber":72,"Velocity":47,"Duration":234375,"SoundDuration":234375,"Delta":518979121},{"NoteNumber":99,"Velocity":62,"Duration":156250,"SoundDuration":156250,"Delta":519057246},{"NoteNumber":96,"Velocity":62,"Duration":156250,"SoundDuration":156250,"Delta":519057246},{"NoteNumber":87,"Velocity":52,"Duration":156250,"SoundDuration":156250,"Delta":519057246},{"NoteNumber":100,"Velocity":60,"Duration":156250,"SoundDuration":156250,"Delta":519213496},{"NoteNumber":97,"Velocity":60,"Duration":156250,"SoundDuration":156250,"Delta":519213496},{"NoteNumber":88,"Velocity":50,"Duration":156250,"SoundDuration":156250,"Delta":519213496},{"NoteNumber":76,"Velocity":55,"Duration":234375,"SoundDuration":234375,"Delta":519213496},{"NoteNumber":73,"Velocity":47,"Duration":234375,"SoundDuration":234375,"Delta":519213496},{"NoteNumber":98,"Velocity":59,"Duration":156250,"SoundDuration":156250,"Delta":519369746},{"NoteNumber":95,"Velocity":59,"Duration":156250,"SoundDuration":156250,"Delta":519369746},{"NoteNumber":86,"Velocity":49,"Duration":156250,"SoundDuration":156250,"Delta":519369746},{"NoteNumber":74,"Velocity":55,"Duration":234375,"SoundDuration":234375,"Delta":519447871},{"NoteNumber":64,"Velocity":47,"Duration":234375,"SoundDuration":234375,"Delta":519447871},{"NoteNumber":71,"Velocity":47,"Duration":234375,"SoundDuration":234375,"Delta":519447871},{"NoteNumber":100,"Velocity":58,"Duration":117187,"SoundDuration":117187,"Delta":519525996},{"NoteNumber":97,"Velocity":58,"Duration":117187,"SoundDuration":117187,"Delta":519525996},{"NoteNumber":88,"Velocity":49,"Duration":117187,"SoundDuration":117187,"Delta":519525996},{"NoteNumber":100,"Velocity":61,"Duration":172333,"SoundDuration":172333,"Delta":519682246},{"NoteNumber":97,"Velocity":53,"Duration":172333,"SoundDuration":172333,"Delta":519682246},{"NoteNumber":88,"Velocity":45,"Duration":172333,"SoundDuration":172333,"Delta":519682246},{"NoteNumber":57,"Velocity":59,"Duration":252978,"SoundDuration":252978,"Delta":519682246},{"NoteNumber":97,"Velocity":54,"Duration":120327,"SoundDuration":120327,"Delta":519854580},{"NoteNumber":85,"Velocity":45,"Duration":120327,"SoundDuration":120327,"Delta":519854580},{"NoteNumber":93,"Velocity":54,"Duration":120327,"SoundDuration":120327,"Delta":519854580},{"NoteNumber":73,"Velocity":51,"Duration":177641,"SoundDuration":177641,"Delta":519935225},{"NoteNumber":64,"Velocity":43,"Duration":177641,"SoundDuration":177641,"Delta":519935225},{"NoteNumber":69,"Velocity":43,"Duration":177641,"SoundDuration":177641,"Delta":519935225},{"NoteNumber":85,"Velocity":47,"Duration":117807,"SoundDuration":117807,"Delta":520014590},{"NoteNumber":93,"Velocity":47,"Duration":117807,"SoundDuration":117807,"Delta":520014590},{"NoteNumber":97,"Velocity":56,"Duration":117807,"SoundDuration":117807,"Delta":520014590},{"NoteNumber":85,"Velocity":49,"Duration":115384,"SoundDuration":115384,"Delta":520171460},{"NoteNumber":97,"Velocity":58,"Duration":115384,"SoundDuration":115384,"Delta":520171460},{"NoteNumber":93,"Velocity":49,"Duration":115384,"SoundDuration":115384,"Delta":520171460},{"NoteNumber":73,"Velocity":53,"Duration":172202,"SoundDuration":172202,"Delta":520171460},{"NoteNumber":64,"Velocity":45,"Duration":172202,"SoundDuration":172202,"Delta":520171460},{"NoteNumber":69,"Velocity":45,"Duration":172202,"SoundDuration":172202,"Delta":520171460},{"NoteNumber":97,"Velocity":61,"Duration":112505,"SoundDuration":112505,"Delta":520324724},{"NoteNumber":93,"Velocity":51,"Duration":112505,"SoundDuration":112505,"Delta":520324724},{"NoteNumber":85,"Velocity":51,"Duration":112505,"SoundDuration":112505,"Delta":520324724},{"NoteNumber":73,"Velocity":55,"Duration":182173,"SoundDuration":182173,"Delta":520399916},{"NoteNumber":64,"Velocity":47,"Duration":182173,"SoundDuration":182173,"Delta":520399916},{"NoteNumber":69,"Velocity":47,"Duration":182173,"SoundDuration":182173,"Delta":520399916},{"NoteNumber":85,"Velocity":50,"Duration":127423,"SoundDuration":127423,"Delta":520476292},{"NoteNumber":97,"Velocity":60,"Duration":127423,"SoundDuration":127423,"Delta":520476292},{"NoteNumber":93,"Velocity":50,"Duration":127423,"SoundDuration":127423,"Delta":520476292},{"NoteNumber":92,"Velocity":54,"Duration":163934,"SoundDuration":163934,"Delta":520647577},{"NoteNumber":96,"Velocity":63,"Duration":163934,"SoundDuration":163934,"Delta":520647577},{"NoteNumber":84,"Velocity":54,"Duration":163934,"SoundDuration":163934,"Delta":520647577},{"NoteNumber":53,"Velocity":62,"Duration":466452,"SoundDuration":466452,"Delta":520647577},{"NoteNumber":93,"Velocity":53,"Duration":151002,"SoundDuration":151002,"Delta":520811512},{"NoteNumber":85,"Velocity":53,"Duration":151002,"SoundDuration":151002,"Delta":520811512},{"NoteNumber":97,"Velocity":63,"Duration":151002,"SoundDuration":151002,"Delta":520811512},{"NoteNumber":72,"Velocity":55,"Duration":226141,"SoundDuration":226141,"Delta":520887888},{"NoteNumber":61,"Velocity":41,"Duration":458302,"SoundDuration":458302,"Delta":520887888},{"NoteNumber":68,"Velocity":47,"Duration":226141,"SoundDuration":226141,"Delta":520887888},{"NoteNumber":84,"Velocity":52,"Duration":151515,"SoundDuration":151515,"Delta":520962514},{"NoteNumber":96,"Velocity":62,"Duration":151515,"SoundDuration":151515,"Delta":520962514},{"NoteNumber":92,"Velocity":52,"Duration":151515,"SoundDuration":151515,"Delta":520962514},{"NoteNumber":85,"Velocity":50,"Duration":151515,"SoundDuration":151515,"Delta":521114030},{"NoteNumber":97,"Velocity":60,"Duration":151515,"SoundDuration":151515,"Delta":521114030},{"NoteNumber":93,"Velocity":60,"Duration":151515,"SoundDuration":151515,"Delta":521114030},{"NoteNumber":73,"Velocity":55,"Duration":232160,"SoundDuration":232160,"Delta":521114030},{"NoteNumber":69,"Velocity":47,"Duration":232160,"SoundDuration":232160,"Delta":521114030},{"NoteNumber":83,"Velocity":49,"Duration":161290,"SoundDuration":161290,"Delta":521265545},{"NoteNumber":95,"Velocity":59,"Duration":161290,"SoundDuration":161290,"Delta":521265545},{"NoteNumber":92,"Velocity":49,"Duration":161290,"SoundDuration":161290,"Delta":521265545},{"NoteNumber":71,"Velocity":55,"Duration":253059,"SoundDuration":253059,"Delta":521346190},{"NoteNumber":61,"Velocity":47,"Duration":253059,"SoundDuration":253059,"Delta":521346190},{"NoteNumber":68,"Velocity":47,"Duration":253059,"SoundDuration":253059,"Delta":521346190},{"NoteNumber":97,"Velocity":58,"Duration":129310,"SoundDuration":129310,"Delta":521426835},{"NoteNumber":93,"Velocity":49,"Duration":129310,"SoundDuration":129310,"Delta":521426835},{"NoteNumber":85,"Velocity":49,"Duration":129310,"SoundDuration":129310,"Delta":521426835},{"NoteNumber":85,"Velocity":45,"Duration":169445,"SoundDuration":169445,"Delta":521599249},{"NoteNumber":93,"Velocity":53,"Duration":169445,"SoundDuration":169445,"Delta":521599249},{"NoteNumber":97,"Velocity":61,"Duration":169445,"SoundDuration":169445,"Delta":521599249},{"NoteNumber":54,"Velocity":59,"Duration":251681,"SoundDuration":251681,"Delta":521599249},{"NoteNumber":93,"Velocity":54,"Duration":122689,"SoundDuration":122689,"Delta":521768694},{"NoteNumber":81,"Velocity":45,"Duration":122689,"SoundDuration":122689,"Delta":521768694},{"NoteNumber":90,"Velocity":45,"Duration":122689,"SoundDuration":122689,"Delta":521768694},{"NoteNumber":69,"Velocity":51,"Duration":181716,"SoundDuration":181716,"Delta":521850931},{"NoteNumber":61,"Velocity":43,"Duration":181716,"SoundDuration":181716,"Delta":521850931},{"NoteNumber":66,"Velocity":43,"Duration":181716,"SoundDuration":181716,"Delta":521850931},{"NoteNumber":93,"Velocity":56,"Duration":120715,"SoundDuration":120715,"Delta":521931837},{"NoteNumber":90,"Velocity":47,"Duration":120715,"SoundDuration":120715,"Delta":521931837},{"NoteNumber":81,"Velocity":47,"Duration":120715,"SoundDuration":120715,"Delta":521931837},{"NoteNumber":93,"Velocity":58,"Duration":118802,"SoundDuration":118802,"Delta":522092361},{"NoteNumber":81,"Velocity":49,"Duration":118802,"SoundDuration":118802,"Delta":522092361},{"NoteNumber":90,"Velocity":49,"Duration":118802,"SoundDuration":118802,"Delta":522092361},{"NoteNumber":69,"Velocity":53,"Duration":177580,"SoundDuration":177580,"Delta":522092361},{"NoteNumber":61,"Velocity":45,"Duration":177580,"SoundDuration":177580,"Delta":522092361},{"NoteNumber":66,"Velocity":45,"Duration":177580,"SoundDuration":177580,"Delta":522092361},{"NoteNumber":93,"Velocity":61,"Duration":116466,"SoundDuration":116466,"Delta":522250349},{"NoteNumber":90,"Velocity":51,"Duration":116466,"SoundDuration":116466,"Delta":522250349},{"NoteNumber":81,"Velocity":51,"Duration":116466,"SoundDuration":116466,"Delta":522250349},{"NoteNumber":69,"Velocity":55,"Duration":175676,"SoundDuration":175676,"Delta":522328235},{"NoteNumber":61,"Velocity":47,"Duration":175676,"SoundDuration":175676,"Delta":522328235},{"NoteNumber":66,"Velocity":47,"Duration":175676,"SoundDuration":175676,"Delta":522328235},{"NoteNumber":81,"Velocity":50,"Duration":118178,"SoundDuration":118178,"Delta":522405637},{"NoteNumber":93,"Velocity":60,"Duration":118178,"SoundDuration":118178,"Delta":522405637},{"NoteNumber":90,"Velocity":50,"Duration":118178,"SoundDuration":118178,"Delta":522405637},{"NoteNumber":92,"Velocity":63,"Duration":167223,"SoundDuration":167223,"Delta":522563625},{"NoteNumber":80,"Velocity":54,"Duration":167223,"SoundDuration":167223,"Delta":522563625},{"NoteNumber":89,"Velocity":54,"Duration":167223,"SoundDuration":167223,"Delta":522563625},{"NoteNumber":49,"Velocity":62,"Duration":479723,"SoundDuration":479723,"Delta":522563625},{"NoteNumber":93,"Velocity":63,"Duration":156250,"SoundDuration":156250,"Delta":522730849},{"NoteNumber":81,"Velocity":53,"Duration":156250,"SoundDuration":156250,"Delta":522730849},{"NoteNumber":90,"Velocity":53,"Duration":156250,"SoundDuration":156250,"Delta":522730849},{"NoteNumber":68,"Velocity":55,"Duration":234375,"SoundDuration":234375,"Delta":522808974},{"NoteNumber":57,"Velocity":47,"Duration":468750,"SoundDuration":468750,"Delta":522808974},{"NoteNumber":65,"Velocity":47,"Duration":234375,"SoundDuration":234375,"Delta":522808974},{"NoteNumber":92,"Velocity":62,"Duration":156250,"SoundDuration":156250,"Delta":522887099},{"NoteNumber":80,"Velocity":52,"Duration":156250,"SoundDuration":156250,"Delta":522887099},{"NoteNumber":89,"Velocity":52,"Duration":156250,"SoundDuration":156250,"Delta":522887099},{"NoteNumber":93,"Velocity":60,"Duration":156250,"SoundDuration":156250,"Delta":523043349},{"NoteNumber":81,"Velocity":50,"Duration":156250,"SoundDuration":156250,"Delta":523043349},{"NoteNumber":90,"Velocity":50,"Duration":156250,"SoundDuration":156250,"Delta":523043349},{"NoteNumber":69,"Velocity":55,"Duration":234375,"SoundDuration":234375,"Delta":523043349},{"NoteNumber":66,"Velocity":47,"Duration":234375,"SoundDuration":234375,"Delta":523043349},{"NoteNumber":91,"Velocity":59,"Duration":156250,"SoundDuration":156250,"Delta":523199599},{"NoteNumber":79,"Velocity":49,"Duration":156250,"SoundDuration":156250,"Delta":523199599},{"NoteNumber":88,"Velocity":49,"Duration":156250,"SoundDuration":156250,"Delta":523199599},{"NoteNumber":67,"Velocity":55,"Duration":175781,"SoundDuration":175781,"Delta":523277724},{"NoteNumber":57,"Velocity":47,"Duration":175781,"SoundDuration":175781,"Delta":523277724},{"NoteNumber":64,"Velocity":47,"Duration":175781,"SoundDuration":175781,"Delta":523277724},{"NoteNumber":93,"Velocity":58,"Duration":117187,"SoundDuration":117187,"Delta":523355849},{"NoteNumber":90,"Velocity":49,"Duration":117187,"SoundDuration":117187,"Delta":523355849},{"NoteNumber":81,"Velocity":49,"Duration":117187,"SoundDuration":117187,"Delta":523355849},{"NoteNumber":50,"Velocity":52,"Duration":286682,"SoundDuration":286682,"Delta":523453505},{"NoteNumber":57,"Velocity":52,"Duration":257385,"SoundDuration":257385,"Delta":523482802},{"NoteNumber":93,"Velocity":68,"Duration":156250,"SoundDuration":156250,"Delta":523512099},{"NoteNumber":81,"Velocity":57,"Duration":156250,"SoundDuration":156250,"Delta":523512099},{"NoteNumber":90,"Velocity":57,"Duration":156250,"SoundDuration":156250,"Delta":523512099},{"NoteNumber":66,"Velocity":62,"Duration":228089,"SoundDuration":228089,"Delta":523512099},{"NoteNumber":90,"Velocity":51,"Duration":53879,"SoundDuration":53879,"Delta":523668349},{"NoteNumber":86,"Velocity":51,"Duration":53879,"SoundDuration":53879,"Delta":523668349},{"NoteNumber":38,"Velocity":54,"Duration":80818,"SoundDuration":80818,"Delta":523740188},{"NoteNumber":90,"Velocity":54,"Duration":53879,"SoundDuration":53879,"Delta":523812027},{"NoteNumber":86,"Velocity":54,"Duration":53879,"SoundDuration":53879,"Delta":523812027},{"NoteNumber":78,"Velocity":47,"Duration":56306,"SoundDuration":56306,"Delta":523955705},{"NoteNumber":81,"Velocity":47,"Duration":56306,"SoundDuration":56306,"Delta":523955705},{"NoteNumber":45,"Velocity":55,"Duration":84459,"SoundDuration":84459,"Delta":523955705},{"NoteNumber":86,"Velocity":54,"Duration":56306,"SoundDuration":56306,"Delta":524105856},{"NoteNumber":90,"Velocity":54,"Duration":56306,"SoundDuration":56306,"Delta":524105856},{"NoteNumber":54,"Velocity":55,"Duration":63813,"SoundDuration":63813,"Delta":524180931},{"NoteNumber":74,"Velocity":49,"Duration":63775,"SoundDuration":63775,"Delta":524256006},{"NoteNumber":78,"Velocity":49,"Duration":63775,"SoundDuration":63775,"Delta":524256006},{"NoteNumber":47,"Velocity":52,"Duration":236387,"SoundDuration":236387,"Delta":524362298},{"NoteNumber":54,"Velocity":52,"Duration":211683,"SoundDuration":211683,"Delta":524394186},{"NoteNumber":98,"Velocity":73,"Duration":62709,"SoundDuration":62709,"Delta":524426074},{"NoteNumber":95,"Velocity":68,"Duration":62709,"SoundDuration":62709,"Delta":524426074},{"NoteNumber":62,"Velocity":62,"Duration":185183,"SoundDuration":185183,"Delta":524426074},{"NoteNumber":90,"Velocity":51,"Duration":53879,"SoundDuration":53879,"Delta":524593298},{"NoteNumber":86,"Velocity":51,"Duration":53879,"SoundDuration":53879,"Delta":524593298},{"NoteNumber":35,"Velocity":54,"Duration":80818,"SoundDuration":80818,"Delta":524665137},{"NoteNumber":98,"Velocity":54,"Duration":53879,"SoundDuration":53879,"Delta":524736976},{"NoteNumber":95,"Velocity":54,"Duration":53879,"SoundDuration":53879,"Delta":524736976},{"NoteNumber":83,"Velocity":47,"Duration":57164,"SoundDuration":57164,"Delta":524880654},{"NoteNumber":86,"Velocity":47,"Duration":57164,"SoundDuration":57164,"Delta":524880654},{"NoteNumber":42,"Velocity":55,"Duration":85746,"SoundDuration":85746,"Delta":524880654},{"NoteNumber":95,"Velocity":54,"Duration":57164,"SoundDuration":57164,"Delta":525033093},{"NoteNumber":98,"Velocity":54,"Duration":57164,"SoundDuration":57164,"Delta":525033093},{"NoteNumber":50,"Velocity":55,"Duration":64786,"SoundDuration":64786,"Delta":525109313},{"NoteNumber":78,"Velocity":49,"Duration":65104,"SoundDuration":65104,"Delta":525185532},{"NoteNumber":83,"Velocity":49,"Duration":65104,"SoundDuration":65104,"Delta":525185532},{"NoteNumber":52,"Velocity":62,"Duration":301772,"SoundDuration":301772,"Delta":525294039},{"NoteNumber":59,"Velocity":52,"Duration":270417,"SoundDuration":270417,"Delta":525325394},{"NoteNumber":83,"Velocity":52,"Duration":167223,"SoundDuration":167223,"Delta":525356748},{"NoteNumber":86,"Velocity":65,"Duration":167223,"SoundDuration":167223,"Delta":525356748},{"NoteNumber":74,"Velocity":57,"Duration":167223,"SoundDuration":167223,"Delta":525356748},{"NoteNumber":68,"Velocity":62,"Duration":239063,"SoundDuration":239063,"Delta":525356748},{"NoteNumber":80,"Velocity":51,"Duration":53879,"SoundDuration":53879,"Delta":525523972},{"NoteNumber":76,"Velocity":51,"Duration":53879,"SoundDuration":53879,"Delta":525523972},{"NoteNumber":40,"Velocity":54,"Duration":80818,"SoundDuration":80818,"Delta":525595811},{"NoteNumber":92,"Velocity":54,"Duration":53879,"SoundDuration":53879,"Delta":525667650},{"NoteNumber":88,"Velocity":54,"Duration":53879,"SoundDuration":53879,"Delta":525667650},{"NoteNumber":80,"Velocity":47,"Duration":57164,"SoundDuration":57164,"Delta":525811328},{"NoteNumber":83,"Velocity":47,"Duration":57164,"SoundDuration":57164,"Delta":525811328},{"NoteNumber":47,"Velocity":55,"Duration":85746,"SoundDuration":85746,"Delta":525811328},{"NoteNumber":88,"Velocity":54,"Duration":57164,"SoundDuration":57164,"Delta":525963767},{"NoteNumber":92,"Velocity":54,"Duration":57164,"SoundDuration":57164,"Delta":525963767},{"NoteNumber":56,"Velocity":55,"Duration":64786,"SoundDuration":64786,"Delta":526039987},{"NoteNumber":76,"Velocity":49,"Duration":67446,"SoundDuration":67446,"Delta":526116206},{"NoteNumber":80,"Velocity":49,"Duration":67446,"SoundDuration":67446,"Delta":526116206},{"NoteNumber":49,"Velocity":52,"Duration":240057,"SoundDuration":240057,"Delta":526228616},{"NoteNumber":56,"Velocity":52,"Duration":213518,"SoundDuration":213518,"Delta":526262339},{"NoteNumber":100,"Velocity":73,"Duration":62709,"SoundDuration":62709,"Delta":526296063},{"NoteNumber":97,"Velocity":68,"Duration":62709,"SoundDuration":62709,"Delta":526296063},{"NoteNumber":64,"Velocity":62,"Duration":185183,"SoundDuration":185183,"Delta":526296063},{"NoteNumber":92,"Velocity":51,"Duration":53879,"SoundDuration":53879,"Delta":526463287},{"NoteNumber":88,"Velocity":51,"Duration":53879,"SoundDuration":53879,"Delta":526463287},{"NoteNumber":37,"Velocity":54,"Duration":80818,"SoundDuration":80818,"Delta":526535126},{"NoteNumber":100,"Velocity":54,"Duration":53879,"SoundDuration":53879,"Delta":526606965},{"NoteNumber":97,"Velocity":54,"Duration":53879,"SoundDuration":53879,"Delta":526606965},{"NoteNumber":85,"Velocity":47,"Duration":55473,"SoundDuration":55473,"Delta":526750643},{"NoteNumber":88,"Velocity":47,"Duration":55473,"SoundDuration":55473,"Delta":526750643},{"NoteNumber":44,"Velocity":55,"Duration":83210,"SoundDuration":83210,"Delta":526750643},{"NoteNumber":97,"Velocity":54,"Duration":55473,"SoundDuration":55473,"Delta":526898572},{"NoteNumber":100,"Velocity":54,"Duration":55473,"SoundDuration":55473,"Delta":526898572},{"NoteNumber":52,"Velocity":55,"Duration":62869,"SoundDuration":62869,"Delta":526972536},{"NoteNumber":80,"Velocity":49,"Duration":66254,"SoundDuration":66254,"Delta":527046501},{"NoteNumber":85,"Velocity":49,"Duration":66254,"SoundDuration":66254,"Delta":527046501},{"NoteNumber":54,"Velocity":62,"Duration":301772,"SoundDuration":301772,"Delta":527156925},{"NoteNumber":61,"Velocity":52,"Duration":270417,"SoundDuration":270417,"Delta":527188279},{"NoteNumber":88,"Velocity":65,"Duration":167223,"SoundDuration":167223,"Delta":527219634},{"NoteNumber":76,"Velocity":57,"Duration":167223,"SoundDuration":167223,"Delta":527219634},{"NoteNumber":85,"Velocity":52,"Duration":167223,"SoundDuration":167223,"Delta":527219634},{"NoteNumber":69,"Velocity":62,"Duration":239063,"SoundDuration":239063,"Delta":527219634},{"NoteNumber":81,"Velocity":51,"Duration":53879,"SoundDuration":53879,"Delta":527386858},{"NoteNumber":78,"Velocity":51,"Duration":53879,"SoundDuration":53879,"Delta":527386858},{"NoteNumber":42,"Velocity":54,"Duration":80818,"SoundDuration":80818,"Delta":527458697},{"NoteNumber":93,"Velocity":54,"Duration":53879,"SoundDuration":53879,"Delta":527530536},{"NoteNumber":90,"Velocity":54,"Duration":53879,"SoundDuration":53879,"Delta":527530536},{"NoteNumber":81,"Velocity":47,"Duration":57164,"SoundDuration":57164,"Delta":527674214},{"NoteNumber":85,"Velocity":47,"Duration":57164,"SoundDuration":57164,"Delta":527674214},{"NoteNumber":49,"Velocity":55,"Duration":85746,"SoundDuration":85746,"Delta":527674214},{"NoteNumber":90,"Velocity":54,"Duration":57164,"SoundDuration":57164,"Delta":527826653},{"NoteNumber":93,"Velocity":54,"Duration":57164,"SoundDuration":57164,"Delta":527826653},{"NoteNumber":57,"Velocity":55,"Duration":64786,"SoundDuration":64786,"Delta":527902873},{"NoteNumber":78,"Velocity":49,"Duration":63775,"SoundDuration":63775,"Delta":527979092},{"NoteNumber":81,"Velocity":49,"Duration":63775,"SoundDuration":63775,"Delta":527979092},{"NoteNumber":50,"Velocity":52,"Duration":236877,"SoundDuration":236877,"Delta":528085385},{"NoteNumber":57,"Velocity":52,"Duration":212826,"SoundDuration":212826,"Delta":528117272},{"NoteNumber":101,"Velocity":73,"Duration":62709,"SoundDuration":62709,"Delta":528149160},{"NoteNumber":98,"Velocity":68,"Duration":62709,"SoundDuration":62709,"Delta":528149160},{"NoteNumber":65,"Velocity":62,"Duration":186816,"SoundDuration":186816,"Delta":528149160},{"NoteNumber":93,"Velocity":51,"Duration":58777,"SoundDuration":58777,"Delta":528316384},{"NoteNumber":89,"Velocity":51,"Duration":58777,"SoundDuration":58777,"Delta":528316384},{"NoteNumber":38,"Velocity":54,"Duration":88166,"SoundDuration":88166,"Delta":528394754},{"NoteNumber":101,"Velocity":54,"Duration":58351,"SoundDuration":58351,"Delta":528473124},{"NoteNumber":98,"Velocity":54,"Duration":58351,"SoundDuration":58351,"Delta":528473124},{"NoteNumber":86,"Velocity":47,"Duration":58172,"SoundDuration":58172,"Delta":528626581},{"NoteNumber":89,"Velocity":47,"Duration":58172,"SoundDuration":58172,"Delta":528626581},{"NoteNumber":45,"Velocity":55,"Duration":87531,"SoundDuration":87531,"Delta":528626581},{"NoteNumber":98,"Velocity":54,"Duration":60486,"SoundDuration":60486,"Delta":528783592},{"NoteNumber":101,"Velocity":54,"Duration":60486,"SoundDuration":60486,"Delta":528783592},{"NoteNumber":53,"Velocity":55,"Duration":70055,"SoundDuration":70055,"Delta":528864503},{"NoteNumber":81,"Velocity":49,"Duration":63064,"SoundDuration":63064,"Delta":528947017},{"NoteNumber":86,"Velocity":49,"Duration":63064,"SoundDuration":63064,"Delta":528947017},{"NoteNumber":44,"Velocity":51,"Duration":286213,"SoundDuration":286213,"Delta":529052674},{"NoteNumber":52,"Velocity":51,"Duration":255526,"SoundDuration":255526,"Delta":529083361},{"NoteNumber":100,"Velocity":74,"Duration":152959,"SoundDuration":152959,"Delta":529113029},{"NoteNumber":88,"Velocity":63,"Duration":152959,"SoundDuration":152959,"Delta":529113029},{"NoteNumber":95,"Velocity":63,"Duration":152959,"SoundDuration":152959,"Delta":529113029},{"NoteNumber":59,"Velocity":61,"Duration":225859,"SoundDuration":225859,"Delta":529113029},{"NoteNumber":99,"Velocity":62,"Duration":144327,"SoundDuration":144327,"Delta":529265988},{"NoteNumber":100,"Velocity":75,"Duration":141649,"SoundDuration":141649,"Delta":529410316},{"NoteNumber":32,"Velocity":57,"Duration":141649,"SoundDuration":141649,"Delta":529410316},{"NoteNumber":98,"Velocity":61,"Duration":104753,"SoundDuration":104753,"Delta":529551966},{"NoteNumber":35,"Velocity":49,"Duration":104753,"SoundDuration":104753,"Delta":529551966},{"NoteNumber":100,"Velocity":77,"Duration":103120,"SoundDuration":103120,"Delta":529691442},{"NoteNumber":32,"Velocity":57,"Duration":103120,"SoundDuration":103120,"Delta":529691442},{"NoteNumber":95,"Velocity":56,"Duration":101536,"SoundDuration":101536,"Delta":529828809},{"NoteNumber":38,"Velocity":50,"Duration":101536,"SoundDuration":101536,"Delta":529828809},{"NoteNumber":100,"Velocity":77,"Duration":100000,"SoundDuration":100000,"Delta":529964129},{"NoteNumber":32,"Velocity":57,"Duration":100000,"SoundDuration":100000,"Delta":529964129},{"NoteNumber":92,"Velocity":52,"Duration":100000,"SoundDuration":100000,"Delta":530097462},{"NoteNumber":40,"Velocity":50,"Duration":100000,"SoundDuration":100000,"Delta":530097462},{"NoteNumber":100,"Velocity":77,"Duration":100000,"SoundDuration":100000,"Delta":530230796},{"NoteNumber":32,"Velocity":57,"Duration":100000,"SoundDuration":100000,"Delta":530230796},{"NoteNumber":88,"Velocity":52,"Duration":101351,"SoundDuration":101351,"Delta":530364129},{"NoteNumber":44,"Velocity":48,"Duration":101351,"SoundDuration":101351,"Delta":530364129},{"NoteNumber":100,"Velocity":79,"Duration":101351,"SoundDuration":101351,"Delta":530499264},{"NoteNumber":32,"Velocity":56,"Duration":101351,"SoundDuration":101351,"Delta":530499264},{"NoteNumber":86,"Velocity":50,"Duration":101351,"SoundDuration":101351,"Delta":530634399},{"NoteNumber":47,"Velocity":49,"Duration":101351,"SoundDuration":101351,"Delta":530634399},{"NoteNumber":100,"Velocity":79,"Duration":102739,"SoundDuration":102739,"Delta":530769534},{"NoteNumber":32,"Velocity":56,"Duration":102739,"SoundDuration":102739,"Delta":530769534},{"NoteNumber":83,"Velocity":50,"Duration":103928,"SoundDuration":103928,"Delta":530906521},{"NoteNumber":50,"Velocity":48,"Duration":103928,"SoundDuration":103928,"Delta":530906521},{"NoteNumber":100,"Velocity":79,"Duration":104900,"SoundDuration":104900,"Delta":531045172},{"NoteNumber":32,"Velocity":56,"Duration":104900,"SoundDuration":104900,"Delta":531045172},{"NoteNumber":80,"Velocity":50,"Duration":105633,"SoundDuration":105633,"Delta":531185283},{"NoteNumber":52,"Velocity":49,"Duration":105633,"SoundDuration":105633,"Delta":531185283},{"NoteNumber":100,"Velocity":79,"Duration":107142,"SoundDuration":107142,"Delta":531326380},{"NoteNumber":32,"Velocity":56,"Duration":107142,"SoundDuration":107142,"Delta":531326380},{"NoteNumber":76,"Velocity":51,"Duration":108436,"SoundDuration":108436,"Delta":531469237},{"NoteNumber":56,"Velocity":49,"Duration":108436,"SoundDuration":108436,"Delta":531469237},{"NoteNumber":100,"Velocity":79,"Duration":111133,"SoundDuration":111133,"Delta":531613906},{"NoteNumber":32,"Velocity":56,"Duration":111133,"SoundDuration":111133,"Delta":531613906},{"NoteNumber":74,"Velocity":51,"Duration":117817,"SoundDuration":117817,"Delta":531763209},{"NoteNumber":59,"Velocity":48,"Duration":117817,"SoundDuration":117817,"Delta":531763209},{"NoteNumber":100,"Velocity":79,"Duration":129451,"SoundDuration":129451,"Delta":531921359},{"NoteNumber":32,"Velocity":56,"Duration":129451,"SoundDuration":129451,"Delta":531921359},{"NoteNumber":71,"Velocity":51,"Duration":153899,"SoundDuration":153899,"Delta":532097577},{"NoteNumber":62,"Velocity":48,"Duration":153899,"SoundDuration":153899,"Delta":532097577},{"NoteNumber":100,"Velocity":79,"Duration":175369,"SoundDuration":175369,"Delta":532307032},{"NoteNumber":32,"Velocity":56,"Duration":175369,"SoundDuration":175369,"Delta":532307032},{"NoteNumber":68,"Velocity":51,"Duration":202702,"SoundDuration":202702,"Delta":532546546},{"NoteNumber":64,"Velocity":51,"Duration":202702,"SoundDuration":202702,"Delta":532546546},{"NoteNumber":100,"Velocity":79,"Duration":245095,"SoundDuration":245095,"Delta":532816817},{"NoteNumber":32,"Velocity":61,"Duration":245095,"SoundDuration":245095,"Delta":532816817},{"NoteNumber":56,"Velocity":62,"Duration":391126,"SoundDuration":391126,"Delta":533695357},{"NoteNumber":65,"Velocity":59,"Duration":252129,"SoundDuration":252129,"Delta":533750387},{"NoteNumber":71,"Velocity":70,"Duration":336096,"SoundDuration":336096,"Delta":533750387},{"NoteNumber":64,"Velocity":43,"Duration":126931,"SoundDuration":126931,"Delta":533883397},{"NoteNumber":65,"Velocity":40,"Duration":120797,"SoundDuration":120797,"Delta":534010329},{"NoteNumber":57,"Velocity":62,"Duration":352901,"SoundDuration":352901,"Delta":534086483},{"NoteNumber":64,"Velocity":40,"Duration":118347,"SoundDuration":118347,"Delta":534131126},{"NoteNumber":72,"Velocity":70,"Duration":308258,"SoundDuration":308258,"Delta":534131126},{"NoteNumber":65,"Velocity":40,"Duration":117236,"SoundDuration":117236,"Delta":534249473},{"NoteNumber":64,"Velocity":40,"Duration":115878,"SoundDuration":115878,"Delta":534366710},{"NoteNumber":66,"Velocity":43,"Duration":158045,"SoundDuration":158045,"Delta":534482588},{"NoteNumber":64,"Velocity":40,"Duration":86206,"SoundDuration":86206,"Delta":534568795},{"NoteNumber":66,"Velocity":40,"Duration":86206,"SoundDuration":86206,"Delta":534655002},{"NoteNumber":64,"Velocity":40,"Duration":86206,"SoundDuration":86206,"Delta":534741209},{"NoteNumber":58,"Velocity":62,"Duration":351177,"SoundDuration":351177,"Delta":534784312},{"NoteNumber":67,"Velocity":52,"Duration":158783,"SoundDuration":158783,"Delta":534827416},{"NoteNumber":73,"Velocity":69,"Duration":308074,"SoundDuration":308074,"Delta":534827416},{"NoteNumber":64,"Velocity":40,"Duration":87282,"SoundDuration":87282,"Delta":534913622},{"NoteNumber":67,"Velocity":40,"Duration":89220,"SoundDuration":89220,"Delta":535000905},{"NoteNumber":64,"Velocity":40,"Duration":91096,"SoundDuration":91096,"Delta":535090126},{"NoteNumber":59,"Velocity":62,"Duration":360095,"SoundDuration":360095,"Delta":535135490},{"NoteNumber":68,"Velocity":58,"Duration":166289,"SoundDuration":166289,"Delta":535181222},{"NoteNumber":74,"Velocity":70,"Duration":314363,"SoundDuration":314363,"Delta":535181222},{"NoteNumber":64,"Velocity":37,"Duration":90074,"SoundDuration":90074,"Delta":535272318},{"NoteNumber":68,"Velocity":40,"Duration":89075,"SoundDuration":89075,"Delta":535362392},{"NoteNumber":64,"Velocity":38,"Duration":88235,"SoundDuration":88235,"Delta":535451468},{"NoteNumber":68,"Velocity":40,"Duration":88235,"SoundDuration":88235,"Delta":535539703},{"NoteNumber":64,"Velocity":36,"Duration":88235,"SoundDuration":88235,"Delta":535627939},{"NoteNumber":68,"Velocity":40,"Duration":88235,"SoundDuration":88235,"Delta":535716174},{"NoteNumber":64,"Velocity":37,"Duration":88235,"SoundDuration":88235,"Delta":535804409},{"NoteNumber":59,"Velocity":60,"Duration":351299,"SoundDuration":351299,"Delta":535848527},{"NoteNumber":68,"Velocity":54,"Duration":161114,"SoundDuration":161114,"Delta":535892644},{"NoteNumber":74,"Velocity":66,"Duration":307181,"SoundDuration":307181,"Delta":535892644},{"NoteNumber":64,"Velocity":37,"Duration":87414,"SoundDuration":87414,"Delta":535980880},{"NoteNumber":68,"Velocity":39,"Duration":87414,"SoundDuration":87414,"Delta":536068294},{"NoteNumber":64,"Velocity":37,"Duration":88375,"SoundDuration":88375,"Delta":536155708},{"NoteNumber":60,"Velocity":58,"Duration":345768,"SoundDuration":345768,"Delta":536199826},{"NoteNumber":66,"Velocity":54,"Duration":159465,"SoundDuration":159465,"Delta":536244084},{"NoteNumber":69,"Velocity":54,"Duration":88246,"SoundDuration":88246,"Delta":536244084},{"NoteNumber":75,"Velocity":66,"Duration":301510,"SoundDuration":301510,"Delta":536244084},{"NoteNumber":64,"Velocity":36,"Duration":85423,"SoundDuration":85423,"Delta":536332330},{"NoteNumber":66,"Velocity":39,"Duration":85227,"SoundDuration":85227,"Delta":536417754},{"NoteNumber":69,"Velocity":39,"Duration":85227,"SoundDuration":85227,"Delta":536417754},{"NoteNumber":64,"Velocity":36,"Duration":85227,"SoundDuration":85227,"Delta":536502981},{"NoteNumber":66,"Velocity":39,"Duration":85227,"SoundDuration":85227,"Delta":536588208},{"NoteNumber":69,"Velocity":39,"Duration":85227,"SoundDuration":85227,"Delta":536588208},{"NoteNumber":64,"Velocity":36,"Duration":85227,"SoundDuration":85227,"Delta":536673435},{"NoteNumber":66,"Velocity":39,"Duration":85227,"SoundDuration":85227,"Delta":536758663},{"NoteNumber":69,"Velocity":39,"Duration":85227,"SoundDuration":85227,"Delta":536758663},{"NoteNumber":64,"Velocity":37,"Duration":85227,"SoundDuration":85227,"Delta":536843890},{"NoteNumber":61,"Velocity":58,"Duration":384071,"SoundDuration":384071,"Delta":536886503},{"NoteNumber":67,"Velocity":54,"Duration":85227,"SoundDuration":85227,"Delta":536929117},{"NoteNumber":70,"Velocity":54,"Duration":155898,"SoundDuration":155898,"Delta":536929117},{"NoteNumber":76,"Velocity":62,"Duration":341458,"SoundDuration":341458,"Delta":536929117},{"NoteNumber":64,"Velocity":39,"Duration":84716,"SoundDuration":84716,"Delta":537014344},{"NoteNumber":67,"Velocity":41,"Duration":84971,"SoundDuration":84971,"Delta":537099061},{"NoteNumber":70,"Velocity":41,"Duration":84971,"SoundDuration":84971,"Delta":537099061},{"NoteNumber":64,"Velocity":39,"Duration":86542,"SoundDuration":86542,"Delta":537184033},{"NoteNumber":70,"Velocity":61,"Duration":155670,"SoundDuration":155670,"Delta":537270575},{"NoteNumber":77,"Velocity":69,"Duration":338254,"SoundDuration":338254,"Delta":537270575},{"NoteNumber":62,"Velocity":58,"Duration":338254,"SoundDuration":338254,"Delta":537270575},{"NoteNumber":65,"Velocity":42,"Duration":84269,"SoundDuration":84269,"Delta":537356021},{"NoteNumber":70,"Velocity":45,"Duration":84269,"SoundDuration":84269,"Delta":537440290},{"NoteNumber":65,"Velocity":41,"Duration":84269,"SoundDuration":84269,"Delta":537524560},{"NoteNumber":70,"Velocity":45,"Duration":84269,"SoundDuration":84269,"Delta":537608830},{"NoteNumber":65,"Velocity":41,"Duration":84269,"SoundDuration":84269,"Delta":537693099},{"NoteNumber":70,"Velocity":45,"Duration":84269,"SoundDuration":84269,"Delta":537777369},{"NoteNumber":65,"Velocity":42,"Duration":84269,"SoundDuration":84269,"Delta":537861638},{"NoteNumber":70,"Velocity":45,"Duration":82664,"SoundDuration":82664,"Delta":537945908},{"NoteNumber":65,"Velocity":42,"Duration":82906,"SoundDuration":82906,"Delta":538028573},{"NoteNumber":70,"Velocity":45,"Duration":83770,"SoundDuration":83770,"Delta":538111479},{"NoteNumber":65,"Velocity":42,"Duration":83645,"SoundDuration":83645,"Delta":538195249},{"NoteNumber":68,"Velocity":45,"Duration":83333,"SoundDuration":83333,"Delta":538278894},{"NoteNumber":70,"Velocity":45,"Duration":152686,"SoundDuration":152686,"Delta":538278894},{"NoteNumber":77,"Velocity":68,"Duration":331138,"SoundDuration":331138,"Delta":538278894},{"NoteNumber":62,"Velocity":57,"Duration":331138,"SoundDuration":331138,"Delta":538278894},{"NoteNumber":65,"Velocity":42,"Duration":83089,"SoundDuration":83089,"Delta":538362228},{"NoteNumber":68,"Velocity":52,"Duration":82417,"SoundDuration":82417,"Delta":538445317},{"NoteNumber":70,"Velocity":52,"Duration":82417,"SoundDuration":82417,"Delta":538445317},{"NoteNumber":65,"Velocity":41,"Duration":82298,"SoundDuration":82298,"Delta":538527735},{"NoteNumber":68,"Velocity":44,"Duration":81521,"SoundDuration":81521,"Delta":538610033},{"NoteNumber":70,"Velocity":44,"Duration":81521,"SoundDuration":81521,"Delta":538610033},{"NoteNumber":65,"Velocity":41,"Duration":81521,"SoundDuration":81521,"Delta":538691554},{"NoteNumber":68,"Velocity":44,"Duration":81521,"SoundDuration":81521,"Delta":538773076},{"NoteNumber":70,"Velocity":44,"Duration":81521,"SoundDuration":81521,"Delta":538773076},{"NoteNumber":65,"Velocity":41,"Duration":81521,"SoundDuration":81521,"Delta":538854598},{"NoteNumber":68,"Velocity":44,"Duration":81521,"SoundDuration":81521,"Delta":538936120},{"NoteNumber":70,"Velocity":44,"Duration":81521,"SoundDuration":81521,"Delta":538936120},{"NoteNumber":65,"Velocity":40,"Duration":81521,"SoundDuration":81521,"Delta":539017641},{"NoteNumber":68,"Velocity":44,"Duration":81521,"SoundDuration":81521,"Delta":539099163},{"NoteNumber":70,"Velocity":44,"Duration":81521,"SoundDuration":81521,"Delta":539099163},{"NoteNumber":65,"Velocity":41,"Duration":82015,"SoundDuration":82015,"Delta":539180685},{"NoteNumber":70,"Velocity":52,"Duration":155898,"SoundDuration":155898,"Delta":539262701},{"NoteNumber":78,"Velocity":68,"Duration":337609,"SoundDuration":337609,"Delta":539262701},{"NoteNumber":63,"Velocity":57,"Duration":337609,"SoundDuration":337609,"Delta":539262701},{"NoteNumber":66,"Velocity":42,"Duration":84716,"SoundDuration":84716,"Delta":539347928},{"NoteNumber":70,"Velocity":45,"Duration":84269,"SoundDuration":84269,"Delta":539432645},{"NoteNumber":66,"Velocity":41,"Duration":83395,"SoundDuration":83395,"Delta":539516914},{"NoteNumber":70,"Velocity":45,"Duration":83028,"SoundDuration":83028,"Delta":539600310},{"NoteNumber":66,"Velocity":41,"Duration":82417,"SoundDuration":82417,"Delta":539683338},{"NoteNumber":70,"Velocity":45,"Duration":81760,"SoundDuration":81760,"Delta":539765756},{"NoteNumber":66,"Velocity":41,"Duration":81171,"SoundDuration":81171,"Delta":539847516},{"NoteNumber":70,"Velocity":45,"Duration":80645,"SoundDuration":80645,"Delta":539928687},{"NoteNumber":66,"Velocity":40,"Duration":80645,"SoundDuration":80645,"Delta":540009333},{"NoteNumber":70,"Velocity":45,"Duration":80645,"SoundDuration":80645,"Delta":540089978},{"NoteNumber":66,"Velocity":41,"Duration":79966,"SoundDuration":79966,"Delta":540170623},{"NoteNumber":70,"Velocity":62,"Duration":78947,"SoundDuration":78947,"Delta":540250589},{"NoteNumber":71,"Velocity":62,"Duration":144736,"SoundDuration":144736,"Delta":540250589},{"NoteNumber":78,"Velocity":69,"Duration":315789,"SoundDuration":315789,"Delta":540250589},{"NoteNumber":63,"Velocity":58,"Duration":315789,"SoundDuration":315789,"Delta":540250589},{"NoteNumber":66,"Velocity":44,"Duration":78947,"SoundDuration":78947,"Delta":540329536},{"NoteNumber":70,"Velocity":47,"Duration":78947,"SoundDuration":78947,"Delta":540408484},{"NoteNumber":71,"Velocity":47,"Duration":78947,"SoundDuration":78947,"Delta":540408484},{"NoteNumber":66,"Velocity":44,"Duration":78947,"SoundDuration":78947,"Delta":540487431},{"NoteNumber":70,"Velocity":47,"Duration":79003,"SoundDuration":79003,"Delta":540566378},{"NoteNumber":71,"Velocity":47,"Duration":79003,"SoundDuration":79003,"Delta":540566378},{"NoteNumber":66,"Velocity":43,"Duration":79787,"SoundDuration":79787,"Delta":540645382},{"NoteNumber":70,"Velocity":47,"Duration":80416,"SoundDuration":80416,"Delta":540725169},{"NoteNumber":71,"Velocity":47,"Duration":80416,"SoundDuration":80416,"Delta":540725169},{"NoteNumber":66,"Velocity":44,"Duration":78854,"SoundDuration":78854,"Delta":540805585},{"NoteNumber":70,"Velocity":47,"Duration":79799,"SoundDuration":79799,"Delta":540884440},{"NoteNumber":71,"Velocity":47,"Duration":79799,"SoundDuration":79799,"Delta":540884440},{"NoteNumber":66,"Velocity":44,"Duration":82961,"SoundDuration":82961,"Delta":540964240},{"NoteNumber":70,"Velocity":47,"Duration":87047,"SoundDuration":87047,"Delta":541047201},{"NoteNumber":71,"Velocity":47,"Duration":87047,"SoundDuration":87047,"Delta":541047201},{"NoteNumber":66,"Velocity":44,"Duration":106237,"SoundDuration":106237,"Delta":541134249},{"NoteNumber":71,"Velocity":62,"Duration":129750,"SoundDuration":129750,"Delta":541240486},{"NoteNumber":69,"Velocity":52,"Duration":129750,"SoundDuration":129750,"Delta":541240486},{"NoteNumber":65,"Velocity":48,"Duration":102755,"SoundDuration":102755,"Delta":541370237},{"NoteNumber":71,"Velocity":48,"Duration":86393,"SoundDuration":86393,"Delta":541472992},{"NoteNumber":69,"Velocity":40,"Duration":86393,"SoundDuration":86393,"Delta":541472992},{"NoteNumber":65,"Velocity":48,"Duration":84462,"SoundDuration":84462,"Delta":541559386},{"NoteNumber":71,"Velocity":48,"Duration":83028,"SoundDuration":83028,"Delta":541643849},{"NoteNumber":69,"Velocity":40,"Duration":83028,"SoundDuration":83028,"Delta":541643849},{"NoteNumber":65,"Velocity":48,"Duration":82754,"SoundDuration":82754,"Delta":541726877},{"NoteNumber":71,"Velocity":48,"Duration":80967,"SoundDuration":80967,"Delta":541809632},{"NoteNumber":69,"Velocity":40,"Duration":80967,"SoundDuration":80967,"Delta":541809632},{"NoteNumber":65,"Velocity":48,"Duration":79256,"SoundDuration":79256,"Delta":541890599},{"NoteNumber":71,"Velocity":48,"Duration":77668,"SoundDuration":77668,"Delta":541969856},{"NoteNumber":69,"Velocity":40,"Duration":77668,"SoundDuration":77668,"Delta":541969856},{"NoteNumber":65,"Velocity":48,"Duration":77319,"SoundDuration":77319,"Delta":542047524},{"NoteNumber":71,"Velocity":48,"Duration":78947,"SoundDuration":78947,"Delta":542124844},{"NoteNumber":69,"Velocity":40,"Duration":78947,"SoundDuration":78947,"Delta":542124844},{"NoteNumber":65,"Velocity":48,"Duration":78947,"SoundDuration":78947,"Delta":542203791},{"NoteNumber":71,"Velocity":54,"Duration":77319,"SoundDuration":77319,"Delta":542282739},{"NoteNumber":69,"Velocity":45,"Duration":77319,"SoundDuration":77319,"Delta":542282739},{"NoteNumber":65,"Velocity":48,"Duration":77319,"SoundDuration":77319,"Delta":542360058},{"NoteNumber":71,"Velocity":48,"Duration":73529,"SoundDuration":73529,"Delta":542437378},{"NoteNumber":69,"Velocity":40,"Duration":73529,"SoundDuration":73529,"Delta":542437378},{"NoteNumber":65,"Velocity":48,"Duration":73529,"SoundDuration":73529,"Delta":542510907},{"NoteNumber":71,"Velocity":48,"Duration":76530,"SoundDuration":76530,"Delta":542584437},{"NoteNumber":69,"Velocity":40,"Duration":76530,"SoundDuration":76530,"Delta":542584437},{"NoteNumber":65,"Velocity":48,"Duration":76530,"SoundDuration":76530,"Delta":542660967},{"NoteNumber":71,"Velocity":48,"Duration":79787,"SoundDuration":79787,"Delta":542737498},{"NoteNumber":69,"Velocity":40,"Duration":79787,"SoundDuration":79787,"Delta":542737498},{"NoteNumber":65,"Velocity":48,"Duration":79787,"SoundDuration":79787,"Delta":542817285},{"NoteNumber":71,"Velocity":48,"Duration":70754,"SoundDuration":70754,"Delta":542897073},{"NoteNumber":69,"Velocity":40,"Duration":70754,"SoundDuration":70754,"Delta":542897073},{"NoteNumber":65,"Velocity":48,"Duration":70754,"SoundDuration":70754,"Delta":542967827},{"NoteNumber":71,"Velocity":48,"Duration":75757,"SoundDuration":75757,"Delta":543038582},{"NoteNumber":69,"Velocity":40,"Duration":75757,"SoundDuration":75757,"Delta":543038582},{"NoteNumber":65,"Velocity":48,"Duration":75757,"SoundDuration":75757,"Delta":543114340},{"NoteNumber":71,"Velocity":54,"Duration":72815,"SoundDuration":72815,"Delta":543190097},{"NoteNumber":69,"Velocity":45,"Duration":72815,"SoundDuration":72815,"Delta":543190097},{"NoteNumber":65,"Velocity":50,"Duration":72815,"SoundDuration":72815,"Delta":543262913},{"NoteNumber":71,"Velocity":50,"Duration":67567,"SoundDuration":67567,"Delta":543335728},{"NoteNumber":69,"Velocity":42,"Duration":67567,"SoundDuration":67567,"Delta":543335728},{"NoteNumber":65,"Velocity":50,"Duration":67567,"SoundDuration":67567,"Delta":543403296},{"NoteNumber":71,"Velocity":50,"Duration":72115,"SoundDuration":72115,"Delta":543470864},{"NoteNumber":69,"Velocity":42,"Duration":72115,"SoundDuration":72115,"Delta":543470864},{"NoteNumber":65,"Velocity":50,"Duration":72115,"SoundDuration":72115,"Delta":543542979},{"NoteNumber":71,"Velocity":50,"Duration":66964,"SoundDuration":66964,"Delta":543615094},{"NoteNumber":69,"Velocity":42,"Duration":66964,"SoundDuration":66964,"Delta":543615094},{"NoteNumber":65,"Velocity":50,"Duration":66964,"SoundDuration":66964,"Delta":543682059},{"NoteNumber":71,"Velocity":50,"Duration":69444,"SoundDuration":69444,"Delta":543749023},{"NoteNumber":69,"Velocity":42,"Duration":69444,"SoundDuration":69444,"Delta":543749023},{"NoteNumber":65,"Velocity":50,"Duration":69444,"SoundDuration":69444,"Delta":543818467},{"NoteNumber":71,"Velocity":50,"Duration":66964,"SoundDuration":66964,"Delta":543887912},{"NoteNumber":69,"Velocity":42,"Duration":66964,"SoundDuration":66964,"Delta":543887912},{"NoteNumber":65,"Velocity":50,"Duration":66964,"SoundDuration":66964,"Delta":543954876},{"NoteNumber":71,"Velocity":57,"Duration":67567,"SoundDuration":67567,"Delta":544021840},{"NoteNumber":69,"Velocity":45,"Duration":67567,"SoundDuration":67567,"Delta":544021840},{"NoteNumber":65,"Velocity":50,"Duration":67567,"SoundDuration":67567,"Delta":544089408},{"NoteNumber":71,"Velocity":50,"Duration":70093,"SoundDuration":70093,"Delta":544156976},{"NoteNumber":69,"Velocity":42,"Duration":70093,"SoundDuration":70093,"Delta":544156976},{"NoteNumber":65,"Velocity":50,"Duration":70093,"SoundDuration":70093,"Delta":544227069},{"NoteNumber":71,"Velocity":50,"Duration":70093,"SoundDuration":70093,"Delta":544297163},{"NoteNumber":69,"Velocity":42,"Duration":70093,"SoundDuration":70093,"Delta":544297163},{"NoteNumber":65,"Velocity":50,"Duration":70093,"SoundDuration":70093,"Delta":544367256},{"NoteNumber":71,"Velocity":50,"Duration":72115,"SoundDuration":72115,"Delta":544437350},{"NoteNumber":69,"Velocity":42,"Duration":72115,"SoundDuration":72115,"Delta":544437350},{"NoteNumber":65,"Velocity":50,"Duration":72115,"SoundDuration":72115,"Delta":544509465},{"NoteNumber":71,"Velocity":50,"Duration":78947,"SoundDuration":78947,"Delta":544581580},{"NoteNumber":69,"Velocity":42,"Duration":78947,"SoundDuration":78947,"Delta":544581580},{"NoteNumber":65,"Velocity":50,"Duration":78947,"SoundDuration":78947,"Delta":544660528},{"NoteNumber":71,"Velocity":50,"Duration":85227,"SoundDuration":85227,"Delta":544739475},{"NoteNumber":69,"Velocity":42,"Duration":85227,"SoundDuration":85227,"Delta":544739475},{"NoteNumber":65,"Velocity":50,"Duration":83683,"SoundDuration":83683,"Delta":544824702},{"NoteNumber":76,"Velocity":48,"Duration":196494,"SoundDuration":196494,"Delta":544908386},{"NoteNumber":74,"Velocity":45,"Duration":196494,"SoundDuration":196494,"Delta":544908386},{"NoteNumber":68,"Velocity":47,"Duration":98688,"SoundDuration":98688,"Delta":544908386},{"NoteNumber":64,"Velocity":36,"Duration":98688,"SoundDuration":98688,"Delta":544908386},{"NoteNumber":69,"Velocity":48,"Duration":97805,"SoundDuration":97805,"Delta":545007074},{"NoteNumber":65,"Velocity":37,"Duration":97805,"SoundDuration":97805,"Delta":545007074},{"NoteNumber":70,"Velocity":49,"Duration":97046,"SoundDuration":97046,"Delta":545104880},{"NoteNumber":66,"Velocity":39,"Duration":97046,"SoundDuration":97046,"Delta":545104880},{"NoteNumber":71,"Velocity":51,"Duration":96298,"SoundDuration":96298,"Delta":545201927},{"NoteNumber":67,"Velocity":40,"Duration":96298,"SoundDuration":96298,"Delta":545201927},{"NoteNumber":72,"Velocity":52,"Duration":95461,"SoundDuration":95461,"Delta":545298225},{"NoteNumber":68,"Velocity":42,"Duration":95461,"SoundDuration":95461,"Delta":545298225},{"NoteNumber":73,"Velocity":54,"Duration":94717,"SoundDuration":94717,"Delta":545393686},{"NoteNumber":69,"Velocity":43,"Duration":94717,"SoundDuration":94717,"Delta":545393686},{"NoteNumber":74,"Velocity":54,"Duration":94005,"SoundDuration":94005,"Delta":545488404},{"NoteNumber":70,"Velocity":45,"Duration":94005,"SoundDuration":94005,"Delta":545488404},{"NoteNumber":75,"Velocity":55,"Duration":93303,"SoundDuration":93303,"Delta":545582409},{"NoteNumber":71,"Velocity":46,"Duration":93303,"SoundDuration":93303,"Delta":545582409},{"NoteNumber":76,"Velocity":57,"Duration":92517,"SoundDuration":92517,"Delta":545675713},{"NoteNumber":72,"Velocity":47,"Duration":92517,"SoundDuration":92517,"Delta":545675713},{"NoteNumber":77,"Velocity":58,"Duration":91818,"SoundDuration":91818,"Delta":545768230},{"NoteNumber":73,"Velocity":49,"Duration":91818,"SoundDuration":91818,"Delta":545768230},{"NoteNumber":78,"Velocity":60,"Duration":91149,"SoundDuration":91149,"Delta":545860049},{"NoteNumber":74,"Velocity":50,"Duration":91149,"SoundDuration":91149,"Delta":545860049},{"NoteNumber":79,"Velocity":61,"Duration":90114,"SoundDuration":90114,"Delta":545951198},{"NoteNumber":75,"Velocity":52,"Duration":90114,"SoundDuration":90114,"Delta":545951198},{"NoteNumber":80,"Velocity":62,"Duration":88757,"SoundDuration":88757,"Delta":546041313},{"NoteNumber":88,"Velocity":62,"Duration":177044,"SoundDuration":177044,"Delta":546041313},{"NoteNumber":86,"Velocity":62,"Duration":177044,"SoundDuration":177044,"Delta":546041313},{"NoteNumber":76,"Velocity":55,"Duration":88757,"SoundDuration":88757,"Delta":546041313},{"NoteNumber":81,"Velocity":54,"Duration":88287,"SoundDuration":88287,"Delta":546130071},{"NoteNumber":77,"Velocity":42,"Duration":88287,"SoundDuration":88287,"Delta":546130071},{"NoteNumber":82,"Velocity":55,"Duration":87874,"SoundDuration":87874,"Delta":546218358},{"NoteNumber":78,"Velocity":44,"Duration":87874,"SoundDuration":87874,"Delta":546218358},{"NoteNumber":83,"Velocity":56,"Duration":87464,"SoundDuration":87464,"Delta":546306232},{"NoteNumber":79,"Velocity":45,"Duration":87464,"SoundDuration":87464,"Delta":546306232},{"NoteNumber":84,"Velocity":57,"Duration":87058,"SoundDuration":87058,"Delta":546393696},{"NoteNumber":80,"Velocity":46,"Duration":87058,"SoundDuration":87058,"Delta":546393696},{"NoteNumber":85,"Velocity":59,"Duration":86655,"SoundDuration":86655,"Delta":546480754},{"NoteNumber":81,"Velocity":48,"Duration":86655,"SoundDuration":86655,"Delta":546480754},{"NoteNumber":86,"Velocity":60,"Duration":86206,"SoundDuration":86206,"Delta":546567410},{"NoteNumber":82,"Velocity":50,"Duration":86206,"SoundDuration":86206,"Delta":546567410},{"NoteNumber":87,"Velocity":61,"Duration":85829,"SoundDuration":85829,"Delta":546653617},{"NoteNumber":83,"Velocity":52,"Duration":85829,"SoundDuration":85829,"Delta":546653617},{"NoteNumber":88,"Velocity":62,"Duration":85438,"SoundDuration":85438,"Delta":546739446},{"NoteNumber":84,"Velocity":53,"Duration":85438,"SoundDuration":85438,"Delta":546739446},{"NoteNumber":89,"Velocity":63,"Duration":85050,"SoundDuration":85050,"Delta":546824884},{"NoteNumber":85,"Velocity":54,"Duration":85050,"SoundDuration":85050,"Delta":546824884},{"NoteNumber":90,"Velocity":64,"Duration":84666,"SoundDuration":84666,"Delta":546909935},{"NoteNumber":86,"Velocity":56,"Duration":84666,"SoundDuration":84666,"Delta":546909935},{"NoteNumber":91,"Velocity":65,"Duration":84269,"SoundDuration":84269,"Delta":546994601},{"NoteNumber":87,"Velocity":58,"Duration":84269,"SoundDuration":84269,"Delta":546994601},{"NoteNumber":100,"Velocity":69,"Duration":167613,"SoundDuration":167613,"Delta":547078871},{"NoteNumber":98,"Velocity":69,"Duration":167613,"SoundDuration":167613,"Delta":547078871},{"NoteNumber":92,"Velocity":69,"Duration":83814,"SoundDuration":83814,"Delta":547078871},{"NoteNumber":88,"Velocity":55,"Duration":83814,"SoundDuration":83814,"Delta":547078871},{"NoteNumber":93,"Velocity":59,"Duration":83798,"SoundDuration":83798,"Delta":547162686},{"NoteNumber":90,"Velocity":52,"Duration":83798,"SoundDuration":83798,"Delta":547162686},{"NoteNumber":94,"Velocity":61,"Duration":83798,"SoundDuration":83798,"Delta":547246485},{"NoteNumber":91,"Velocity":54,"Duration":83798,"SoundDuration":83798,"Delta":547246485},{"NoteNumber":95,"Velocity":63,"Duration":83798,"SoundDuration":83798,"Delta":547330284},{"NoteNumber":92,"Velocity":56,"Duration":83798,"SoundDuration":83798,"Delta":547330284},{"NoteNumber":96,"Velocity":65,"Duration":83410,"SoundDuration":83410,"Delta":547414083},{"NoteNumber":93,"Velocity":58,"Duration":83410,"SoundDuration":83410,"Delta":547414083},{"NoteNumber":97,"Velocity":67,"Duration":83333,"SoundDuration":83333,"Delta":547497494},{"NoteNumber":94,"Velocity":60,"Duration":83333,"SoundDuration":83333,"Delta":547497494},{"NoteNumber":100,"Velocity":71,"Duration":166530,"SoundDuration":166530,"Delta":547580827},{"NoteNumber":98,"Velocity":71,"Duration":166530,"SoundDuration":166530,"Delta":547580827},{"NoteNumber":95,"Velocity":63,"Duration":83026,"SoundDuration":83026,"Delta":547580827},{"NoteNumber":97,"Velocity":69,"Duration":83504,"SoundDuration":83504,"Delta":547663853},{"NoteNumber":94,"Velocity":59,"Duration":83504,"SoundDuration":83504,"Delta":547663853},{"NoteNumber":96,"Velocity":66,"Duration":84144,"SoundDuration":84144,"Delta":547747357},{"NoteNumber":93,"Velocity":58,"Duration":84144,"SoundDuration":84144,"Delta":547747357},{"NoteNumber":95,"Velocity":63,"Duration":84922,"SoundDuration":84922,"Delta":547831502},{"NoteNumber":92,"Velocity":57,"Duration":84922,"SoundDuration":84922,"Delta":547831502},{"NoteNumber":94,"Velocity":62,"Duration":85584,"SoundDuration":85584,"Delta":547916424},{"NoteNumber":91,"Velocity":56,"Duration":85584,"SoundDuration":85584,"Delta":547916424},{"NoteNumber":93,"Velocity":59,"Duration":86099,"SoundDuration":86099,"Delta":548002009},{"NoteNumber":90,"Velocity":55,"Duration":86099,"SoundDuration":86099,"Delta":548002009},{"NoteNumber":100,"Velocity":69,"Duration":167070,"SoundDuration":167070,"Delta":548088108},{"NoteNumber":98,"Velocity":69,"Duration":167070,"SoundDuration":167070,"Delta":548088108},{"NoteNumber":92,"Velocity":69,"Duration":83783,"SoundDuration":83783,"Delta":548088108},{"NoteNumber":88,"Velocity":55,"Duration":83783,"SoundDuration":83783,"Delta":548088108},{"NoteNumber":93,"Velocity":59,"Duration":83287,"SoundDuration":83287,"Delta":548171891},{"NoteNumber":90,"Velocity":52,"Duration":83287,"SoundDuration":83287,"Delta":548171891},{"NoteNumber":94,"Velocity":61,"Duration":82797,"SoundDuration":82797,"Delta":548255179},{"NoteNumber":91,"Velocity":54,"Duration":82797,"SoundDuration":82797,"Delta":548255179},{"NoteNumber":95,"Velocity":63,"Duration":82372,"SoundDuration":82372,"Delta":548337976},{"NoteNumber":92,"Velocity":56,"Duration":82372,"SoundDuration":82372,"Delta":548337976},{"NoteNumber":96,"Velocity":65,"Duration":81893,"SoundDuration":81893,"Delta":548420348},{"NoteNumber":93,"Velocity":58,"Duration":81893,"SoundDuration":81893,"Delta":548420348},{"NoteNumber":97,"Velocity":67,"Duration":81418,"SoundDuration":81418,"Delta":548502241},{"NoteNumber":94,"Velocity":60,"Duration":81418,"SoundDuration":81418,"Delta":548502241},{"NoteNumber":100,"Velocity":71,"Duration":164169,"SoundDuration":164169,"Delta":548583660},{"NoteNumber":98,"Velocity":71,"Duration":164169,"SoundDuration":164169,"Delta":548583660},{"NoteNumber":95,"Velocity":63,"Duration":81523,"SoundDuration":81523,"Delta":548583660},{"NoteNumber":97,"Velocity":69,"Duration":82646,"SoundDuration":82646,"Delta":548665183},{"NoteNumber":94,"Velocity":59,"Duration":82646,"SoundDuration":82646,"Delta":548665183},{"NoteNumber":96,"Velocity":66,"Duration":83800,"SoundDuration":83800,"Delta":548747829},{"NoteNumber":93,"Velocity":58,"Duration":83800,"SoundDuration":83800,"Delta":548747829},{"NoteNumber":95,"Velocity":63,"Duration":84987,"SoundDuration":84987,"Delta":548831630},{"NoteNumber":92,"Velocity":57,"Duration":84987,"SoundDuration":84987,"Delta":548831630},{"NoteNumber":94,"Velocity":62,"Duration":86208,"SoundDuration":86208,"Delta":548916617},{"NoteNumber":91,"Velocity":56,"Duration":86208,"SoundDuration":86208,"Delta":548916617},{"NoteNumber":93,"Velocity":59,"Duration":87989,"SoundDuration":87989,"Delta":549002826},{"NoteNumber":90,"Velocity":55,"Duration":87989,"SoundDuration":87989,"Delta":549002826},{"NoteNumber":100,"Velocity":69,"Duration":174069,"SoundDuration":174069,"Delta":549090815},{"NoteNumber":98,"Velocity":69,"Duration":174069,"SoundDuration":174069,"Delta":549090815},{"NoteNumber":92,"Velocity":69,"Duration":87430,"SoundDuration":87430,"Delta":549090815},{"NoteNumber":88,"Velocity":55,"Duration":87430,"SoundDuration":87430,"Delta":549090815},{"NoteNumber":93,"Velocity":57,"Duration":86639,"SoundDuration":86639,"Delta":549178246},{"NoteNumber":90,"Velocity":52,"Duration":86639,"SoundDuration":86639,"Delta":549178246},{"NoteNumber":94,"Velocity":59,"Duration":85927,"SoundDuration":85927,"Delta":549264885},{"NoteNumber":91,"Velocity":54,"Duration":85927,"SoundDuration":85927,"Delta":549264885},{"NoteNumber":95,"Velocity":61,"Duration":85163,"SoundDuration":85163,"Delta":549350813},{"NoteNumber":92,"Velocity":55,"Duration":85163,"SoundDuration":85163,"Delta":549350813},{"NoteNumber":96,"Velocity":63,"Duration":84476,"SoundDuration":84476,"Delta":549435976},{"NoteNumber":93,"Velocity":57,"Duration":84476,"SoundDuration":84476,"Delta":549435976},{"NoteNumber":97,"Velocity":65,"Duration":83737,"SoundDuration":83737,"Delta":549520452},{"NoteNumber":94,"Velocity":59,"Duration":83737,"SoundDuration":83737,"Delta":549520452},{"NoteNumber":98,"Velocity":67,"Duration":83057,"SoundDuration":83057,"Delta":549604190},{"NoteNumber":95,"Velocity":61,"Duration":83057,"SoundDuration":83057,"Delta":549604190},{"NoteNumber":99,"Velocity":69,"Duration":83087,"SoundDuration":83087,"Delta":549687247},{"NoteNumber":96,"Velocity":63,"Duration":83087,"SoundDuration":83087,"Delta":549687247},{"NoteNumber":100,"Velocity":72,"Duration":84019,"SoundDuration":84019,"Delta":549770335},{"NoteNumber":97,"Velocity":64,"Duration":84019,"SoundDuration":84019,"Delta":549770335},{"NoteNumber":101,"Velocity":75,"Duration":85067,"SoundDuration":85067,"Delta":549854354},{"NoteNumber":98,"Velocity":66,"Duration":85067,"SoundDuration":85067,"Delta":549854354},{"NoteNumber":100,"Velocity":73,"Duration":86109,"SoundDuration":86109,"Delta":549939421},{"NoteNumber":97,"Velocity":63,"Duration":86109,"SoundDuration":86109,"Delta":549939421},{"NoteNumber":99,"Velocity":73,"Duration":87176,"SoundDuration":87176,"Delta":550025530},{"NoteNumber":96,"Velocity":63,"Duration":87176,"SoundDuration":87176,"Delta":550025530},{"NoteNumber":98,"Velocity":70,"Duration":88271,"SoundDuration":88271,"Delta":550112707},{"NoteNumber":95,"Velocity":62,"Duration":88271,"SoundDuration":88271,"Delta":550112707},{"NoteNumber":95,"Velocity":68,"Duration":89393,"SoundDuration":89393,"Delta":550200978},{"NoteNumber":92,"Velocity":62,"Duration":89393,"SoundDuration":89393,"Delta":550200978},{"NoteNumber":92,"Velocity":65,"Duration":90544,"SoundDuration":90544,"Delta":550290372},{"NoteNumber":89,"Velocity":60,"Duration":90544,"SoundDuration":90544,"Delta":550290372},{"NoteNumber":89,"Velocity":63,"Duration":91763,"SoundDuration":91763,"Delta":550380916},{"NoteNumber":86,"Velocity":57,"Duration":91763,"SoundDuration":91763,"Delta":550380916},{"NoteNumber":88,"Velocity":60,"Duration":92289,"SoundDuration":92289,"Delta":550472679},{"NoteNumber":85,"Velocity":55,"Duration":92289,"SoundDuration":92289,"Delta":550472679},{"NoteNumber":87,"Velocity":57,"Duration":91094,"SoundDuration":91094,"Delta":550564969},{"NoteNumber":84,"Velocity":53,"Duration":91094,"SoundDuration":91094,"Delta":550564969},{"NoteNumber":86,"Velocity":55,"Duration":89929,"SoundDuration":89929,"Delta":550656063},{"NoteNumber":83,"Velocity":51,"Duration":89929,"SoundDuration":89929,"Delta":550656063},{"NoteNumber":87,"Velocity":53,"Duration":88759,"SoundDuration":88759,"Delta":550745993},{"NoteNumber":84,"Velocity":48,"Duration":88759,"SoundDuration":88759,"Delta":550745993},{"NoteNumber":88,"Velocity":54,"Duration":88202,"SoundDuration":88202,"Delta":550834752},{"NoteNumber":85,"Velocity":53,"Duration":88202,"SoundDuration":88202,"Delta":550834752},{"NoteNumber":89,"Velocity":53,"Duration":89500,"SoundDuration":89500,"Delta":550922955},{"NoteNumber":86,"Velocity":51,"Duration":89500,"SoundDuration":89500,"Delta":550922955},{"NoteNumber":88,"Velocity":51,"Duration":90874,"SoundDuration":90874,"Delta":551012456},{"NoteNumber":85,"Velocity":50,"Duration":90874,"SoundDuration":90874,"Delta":551012456},{"NoteNumber":87,"Velocity":49,"Duration":92253,"SoundDuration":92253,"Delta":551103330},{"NoteNumber":84,"Velocity":48,"Duration":92253,"SoundDuration":92253,"Delta":551103330},{"NoteNumber":86,"Velocity":51,"Duration":92937,"SoundDuration":92937,"Delta":551195583},{"NoteNumber":83,"Velocity":47,"Duration":92937,"SoundDuration":92937,"Delta":551195583},{"NoteNumber":83,"Velocity":49,"Duration":91913,"SoundDuration":91913,"Delta":551288521},{"NoteNumber":80,"Velocity":45,"Duration":91913,"SoundDuration":91913,"Delta":551288521},{"NoteNumber":80,"Velocity":48,"Duration":90945,"SoundDuration":90945,"Delta":551380434},{"NoteNumber":77,"Velocity":45,"Duration":90945,"SoundDuration":90945,"Delta":551380434},{"NoteNumber":77,"Velocity":47,"Duration":90908,"SoundDuration":90908,"Delta":551471380},{"NoteNumber":74,"Velocity":45,"Duration":90908,"SoundDuration":90908,"Delta":551471380},{"NoteNumber":76,"Velocity":46,"Duration":90909,"SoundDuration":90909,"Delta":551562289},{"NoteNumber":73,"Velocity":45,"Duration":90909,"SoundDuration":90909,"Delta":551562289},{"NoteNumber":75,"Velocity":46,"Duration":93200,"SoundDuration":93200,"Delta":551653198},{"NoteNumber":72,"Velocity":45,"Duration":93200,"SoundDuration":93200,"Delta":551653198},{"NoteNumber":74,"Velocity":47,"Duration":97447,"SoundDuration":97447,"Delta":551746399},{"NoteNumber":71,"Velocity":46,"Duration":97447,"SoundDuration":97447,"Delta":551746399},{"NoteNumber":75,"Velocity":48,"Duration":95950,"SoundDuration":95950,"Delta":551843846},{"NoteNumber":72,"Velocity":48,"Duration":95950,"SoundDuration":95950,"Delta":551843846},{"NoteNumber":76,"Velocity":49,"Duration":94579,"SoundDuration":94579,"Delta":551939797},{"NoteNumber":73,"Velocity":48,"Duration":94579,"SoundDuration":94579,"Delta":551939797},{"NoteNumber":77,"Velocity":49,"Duration":93131,"SoundDuration":93131,"Delta":552034377},{"NoteNumber":74,"Velocity":46,"Duration":93131,"SoundDuration":93131,"Delta":552034377},{"NoteNumber":76,"Velocity":48,"Duration":94549,"SoundDuration":94549,"Delta":552127508},{"NoteNumber":73,"Velocity":45,"Duration":94549,"SoundDuration":94549,"Delta":552127508},{"NoteNumber":74,"Velocity":46,"Duration":98356,"SoundDuration":98356,"Delta":552222058},{"NoteNumber":71,"Velocity":44,"Duration":98356,"SoundDuration":98356,"Delta":552222058},{"NoteNumber":71,"Velocity":48,"Duration":98774,"SoundDuration":98774,"Delta":552320414},{"NoteNumber":68,"Velocity":36,"Duration":98774,"SoundDuration":98774,"Delta":552320414},{"NoteNumber":74,"Velocity":45,"Duration":96818,"SoundDuration":96818,"Delta":552419188},{"NoteNumber":71,"Velocity":37,"Duration":96818,"SoundDuration":96818,"Delta":552419188},{"NoteNumber":76,"Velocity":47,"Duration":95019,"SoundDuration":95019,"Delta":552516007},{"NoteNumber":73,"Velocity":40,"Duration":95019,"SoundDuration":95019,"Delta":552516007},{"NoteNumber":77,"Velocity":48,"Duration":94302,"SoundDuration":94302,"Delta":552611027},{"NoteNumber":74,"Velocity":40,"Duration":94302,"SoundDuration":94302,"Delta":552611027},{"NoteNumber":76,"Velocity":47,"Duration":96074,"SoundDuration":96074,"Delta":552705330},{"NoteNumber":73,"Velocity":40,"Duration":96074,"SoundDuration":96074,"Delta":552705330},{"NoteNumber":74,"Velocity":46,"Duration":98043,"SoundDuration":98043,"Delta":552801405},{"NoteNumber":71,"Velocity":39,"Duration":98043,"SoundDuration":98043,"Delta":552801405},{"NoteNumber":68,"Velocity":50,"Duration":98642,"SoundDuration":98642,"Delta":552899448},{"NoteNumber":64,"Velocity":37,"Duration":98642,"SoundDuration":98642,"Delta":552899448},{"NoteNumber":74,"Velocity":44,"Duration":97446,"SoundDuration":97446,"Delta":552998091},{"NoteNumber":71,"Velocity":36,"Duration":97446,"SoundDuration":97446,"Delta":552998091},{"NoteNumber":76,"Velocity":45,"Duration":96278,"SoundDuration":96278,"Delta":553095537},{"NoteNumber":73,"Velocity":37,"Duration":96278,"SoundDuration":96278,"Delta":553095537},{"NoteNumber":77,"Velocity":46,"Duration":96032,"SoundDuration":96032,"Delta":553191816},{"NoteNumber":74,"Velocity":39,"Duration":96032,"SoundDuration":96032,"Delta":553191816},{"NoteNumber":76,"Velocity":45,"Duration":97362,"SoundDuration":97362,"Delta":553287849},{"NoteNumber":73,"Velocity":37,"Duration":97362,"SoundDuration":97362,"Delta":553287849},{"NoteNumber":74,"Velocity":45,"Duration":98774,"SoundDuration":98774,"Delta":553385212},{"NoteNumber":71,"Velocity":37,"Duration":98774,"SoundDuration":98774,"Delta":553385212},{"NoteNumber":69,"Velocity":50,"Duration":99384,"SoundDuration":99384,"Delta":553483986},{"NoteNumber":66,"Velocity":36,"Duration":99384,"SoundDuration":99384,"Delta":553483986},{"NoteNumber":74,"Velocity":44,"Duration":97617,"SoundDuration":97617,"Delta":553583371},{"NoteNumber":71,"Velocity":36,"Duration":97617,"SoundDuration":97617,"Delta":553583371},{"NoteNumber":76,"Velocity":45,"Duration":95952,"SoundDuration":95952,"Delta":553680988},{"NoteNumber":73,"Velocity":37,"Duration":95952,"SoundDuration":95952,"Delta":553680988},{"NoteNumber":78,"Velocity":45,"Duration":95340,"SoundDuration":95340,"Delta":553776940},{"NoteNumber":74,"Velocity":38,"Duration":95340,"SoundDuration":95340,"Delta":553776940},{"NoteNumber":76,"Velocity":45,"Duration":96651,"SoundDuration":96651,"Delta":553872281},{"NoteNumber":73,"Velocity":37,"Duration":96651,"SoundDuration":96651,"Delta":553872281},{"NoteNumber":74,"Velocity":43,"Duration":97913,"SoundDuration":97913,"Delta":553968932},{"NoteNumber":71,"Velocity":36,"Duration":97913,"SoundDuration":97913,"Delta":553968932},{"NoteNumber":70,"Velocity":49,"Duration":98340,"SoundDuration":98340,"Delta":554066846},{"NoteNumber":67,"Velocity":35,"Duration":98340,"SoundDuration":98340,"Delta":554066846},{"NoteNumber":74,"Velocity":40,"Duration":97361,"SoundDuration":97361,"Delta":554165186},{"NoteNumber":71,"Velocity":34,"Duration":97361,"SoundDuration":97361,"Delta":554165186},{"NoteNumber":76,"Velocity":41,"Duration":96360,"SoundDuration":96360,"Delta":554262548},{"NoteNumber":73,"Velocity":35,"Duration":96360,"SoundDuration":96360,"Delta":554262548},{"NoteNumber":78,"Velocity":43,"Duration":96733,"SoundDuration":96733,"Delta":554358908},{"NoteNumber":74,"Velocity":36,"Duration":96733,"SoundDuration":96733,"Delta":554358908},{"NoteNumber":76,"Velocity":43,"Duration":97572,"SoundDuration":97572,"Delta":554455642},{"NoteNumber":73,"Velocity":36,"Duration":97572,"SoundDuration":97572,"Delta":554455642},{"NoteNumber":74,"Velocity":40,"Duration":98383,"SoundDuration":98383,"Delta":554553214},{"NoteNumber":71,"Velocity":34,"Duration":98383,"SoundDuration":98383,"Delta":554553214},{"NoteNumber":71,"Velocity":49,"Duration":99337,"SoundDuration":99337,"Delta":554651598},{"NoteNumber":68,"Velocity":34,"Duration":99337,"SoundDuration":99337,"Delta":554651598},{"NoteNumber":74,"Velocity":40,"Duration":98684,"SoundDuration":98684,"Delta":554750935},{"NoteNumber":71,"Velocity":34,"Duration":98684,"SoundDuration":98684,"Delta":554750935},{"NoteNumber":78,"Velocity":44,"Duration":98082,"SoundDuration":98082,"Delta":554849620},{"NoteNumber":74,"Velocity":34,"Duration":195569,"SoundDuration":195569,"Delta":554849620},{"NoteNumber":76,"Velocity":40,"Duration":97487,"SoundDuration":97487,"Delta":554947702},{"NoteNumber":77,"Velocity":44,"Duration":96899,"SoundDuration":96899,"Delta":555045189},{"NoteNumber":76,"Velocity":40,"Duration":96319,"SoundDuration":96319,"Delta":555142089},{"NoteNumber":78,"Velocity":44,"Duration":95745,"SoundDuration":95745,"Delta":555238408},{"NoteNumber":76,"Velocity":40,"Duration":95178,"SoundDuration":95178,"Delta":555334154},{"NoteNumber":77,"Velocity":45,"Duration":94618,"SoundDuration":94618,"Delta":555429333},{"NoteNumber":76,"Velocity":40,"Duration":94064,"SoundDuration":94064,"Delta":555523951},{"NoteNumber":78,"Velocity":45,"Duration":93517,"SoundDuration":93517,"Delta":555618015},{"NoteNumber":76,"Velocity":41,"Duration":92899,"SoundDuration":92899,"Delta":555711532},{"NoteNumber":77,"Velocity":45,"Duration":88757,"SoundDuration":88757,"Delta":555804432},{"NoteNumber":76,"Velocity":42,"Duration":93750,"SoundDuration":93750,"Delta":555893189},{"NoteNumber":78,"Velocity":45,"Duration":92024,"SoundDuration":92024,"Delta":555986939},{"NoteNumber":76,"Velocity":40,"Duration":90361,"SoundDuration":90361,"Delta":556078964},{"NoteNumber":77,"Velocity":45,"Duration":93750,"SoundDuration":93750,"Delta":556169325},{"NoteNumber":76,"Velocity":40,"Duration":89285,"SoundDuration":89285,"Delta":556263075},{"NoteNumber":78,"Velocity":44,"Duration":93750,"SoundDuration":93750,"Delta":556352361},{"NoteNumber":76,"Velocity":40,"Duration":87719,"SoundDuration":87719,"Delta":556446111},{"NoteNumber":77,"Velocity":43,"Duration":90361,"SoundDuration":90361,"Delta":556533830},{"NoteNumber":76,"Velocity":38,"Duration":88757,"SoundDuration":88757,"Delta":556624192},{"NoteNumber":78,"Velocity":42,"Duration":90909,"SoundDuration":90909,"Delta":556712949},{"NoteNumber":76,"Velocity":38,"Duration":87209,"SoundDuration":87209,"Delta":556803858},{"NoteNumber":77,"Velocity":41,"Duration":90909,"SoundDuration":90909,"Delta":556891067},{"NoteNumber":76,"Velocity":37,"Duration":86705,"SoundDuration":86705,"Delta":556981976},{"NoteNumber":78,"Velocity":40,"Duration":90361,"SoundDuration":90361,"Delta":557068682},{"NoteNumber":76,"Velocity":37,"Duration":86206,"SoundDuration":86206,"Delta":557159043},{"NoteNumber":78,"Velocity":39,"Duration":89820,"SoundDuration":89820,"Delta":557245250},{"NoteNumber":76,"Velocity":36,"Duration":86705,"SoundDuration":86705,"Delta":557335070},{"NoteNumber":78,"Velocity":38,"Duration":88757,"SoundDuration":88757,"Delta":557421776},{"NoteNumber":76,"Velocity":36,"Duration":87719,"SoundDuration":87719,"Delta":557510533},{"NoteNumber":78,"Velocity":37,"Duration":89285,"SoundDuration":89285,"Delta":557598252},{"NoteNumber":76,"Velocity":33,"Duration":86705,"SoundDuration":86705,"Delta":557687538},{"NoteNumber":78,"Velocity":36,"Duration":90361,"SoundDuration":90361,"Delta":557774243},{"NoteNumber":76,"Velocity":33,"Duration":89221,"SoundDuration":89221,"Delta":557864605},{"NoteNumber":78,"Velocity":36,"Duration":93400,"SoundDuration":93400,"Delta":557953827},{"NoteNumber":76,"Velocity":32,"Duration":94182,"SoundDuration":94182,"Delta":558047227},{"NoteNumber":78,"Velocity":35,"Duration":95058,"SoundDuration":95058,"Delta":558141410},{"NoteNumber":76,"Velocity":32,"Duration":95908,"SoundDuration":95908,"Delta":558236468},{"NoteNumber":78,"Velocity":34,"Duration":96733,"SoundDuration":96733,"Delta":558332377},{"NoteNumber":76,"Velocity":31,"Duration":97614,"SoundDuration":97614,"Delta":558429111},{"NoteNumber":78,"Velocity":33,"Duration":98966,"SoundDuration":98966,"Delta":558526725},{"NoteNumber":76,"Velocity":30,"Duration":101471,"SoundDuration":101471,"Delta":558625691},{"NoteNumber":78,"Velocity":32,"Duration":104045,"SoundDuration":104045,"Delta":558727163},{"NoteNumber":76,"Velocity":29,"Duration":132704,"SoundDuration":132704,"Delta":558831209},{"NoteNumber":83,"Velocity":45,"Duration":295857,"SoundDuration":295857,"Delta":558963913},{"NoteNumber":71,"Velocity":36,"Duration":147928,"SoundDuration":147928,"Delta":558963913},{"NoteNumber":56,"Velocity":35,"Duration":147928,"SoundDuration":147928,"Delta":558963913},{"NoteNumber":76,"Velocity":36,"Duration":147928,"SoundDuration":147928,"Delta":559111842},{"NoteNumber":64,"Velocity":31,"Duration":147928,"SoundDuration":147928,"Delta":559111842},{"NoteNumber":85,"Velocity":47,"Duration":577136,"SoundDuration":577136,"Delta":559259771},{"NoteNumber":73,"Velocity":36,"Duration":141509,"SoundDuration":141509,"Delta":559259771},{"NoteNumber":45,"Velocity":38,"Duration":141509,"SoundDuration":141509,"Delta":559259771},{"NoteNumber":76,"Velocity":36,"Duration":141509,"SoundDuration":141509,"Delta":559401281},{"NoteNumber":52,"Velocity":31,"Duration":141509,"SoundDuration":141509,"Delta":559401281},{"NoteNumber":78,"Velocity":39,"Duration":147058,"SoundDuration":147058,"Delta":559542790},{"NoteNumber":57,"Velocity":34,"Duration":147058,"SoundDuration":147058,"Delta":559542790},{"NoteNumber":76,"Velocity":36,"Duration":147058,"SoundDuration":147058,"Delta":559689849},{"NoteNumber":64,"Velocity":31,"Duration":147058,"SoundDuration":147058,"Delta":559689849},{"NoteNumber":83,"Velocity":43,"Duration":280374,"SoundDuration":280374,"Delta":559836908},{"NoteNumber":71,"Velocity":36,"Duration":140186,"SoundDuration":140186,"Delta":559836908},{"NoteNumber":56,"Velocity":36,"Duration":140186,"SoundDuration":140186,"Delta":559836908},{"NoteNumber":76,"Velocity":36,"Duration":140187,"SoundDuration":140187,"Delta":559977095},{"NoteNumber":64,"Velocity":31,"Duration":140187,"SoundDuration":140187,"Delta":559977095},{"NoteNumber":85,"Velocity":47,"Duration":548231,"SoundDuration":548231,"Delta":560117282},{"NoteNumber":73,"Velocity":36,"Duration":133928,"SoundDuration":133928,"Delta":560117282},{"NoteNumber":45,"Velocity":35,"Duration":133928,"SoundDuration":133928,"Delta":560117282},{"NoteNumber":76,"Velocity":36,"Duration":133928,"SoundDuration":133928,"Delta":560251210},{"NoteNumber":52,"Velocity":31,"Duration":133928,"SoundDuration":133928,"Delta":560251210},{"NoteNumber":78,"Velocity":39,"Duration":140186,"SoundDuration":140186,"Delta":560385139},{"NoteNumber":57,"Velocity":34,"Duration":140186,"SoundDuration":140186,"Delta":560385139},{"NoteNumber":76,"Velocity":36,"Duration":140187,"SoundDuration":140187,"Delta":560525326},{"NoteNumber":64,"Velocity":31,"Duration":140187,"SoundDuration":140187,"Delta":560525326},{"NoteNumber":86,"Velocity":44,"Duration":285714,"SoundDuration":285714,"Delta":560665513},{"NoteNumber":74,"Velocity":36,"Duration":142857,"SoundDuration":142857,"Delta":560665513},{"NoteNumber":59,"Velocity":31,"Duration":142857,"SoundDuration":142857,"Delta":560665513},{"NoteNumber":76,"Velocity":36,"Duration":142857,"SoundDuration":142857,"Delta":560808370},{"NoteNumber":64,"Velocity":31,"Duration":142857,"SoundDuration":142857,"Delta":560808370},{"NoteNumber":83,"Velocity":48,"Duration":263157,"SoundDuration":263157,"Delta":560951227},{"NoteNumber":74,"Velocity":36,"Duration":131578,"SoundDuration":131578,"Delta":560951227},{"NoteNumber":56,"Velocity":36,"Duration":131578,"SoundDuration":131578,"Delta":560951227},{"NoteNumber":76,"Velocity":36,"Duration":131578,"SoundDuration":131578,"Delta":561082806},{"NoteNumber":64,"Velocity":31,"Duration":131578,"SoundDuration":131578,"Delta":561082806},{"NoteNumber":88,"Velocity":49,"Duration":550459,"SoundDuration":550459,"Delta":561214385},{"NoteNumber":80,"Velocity":36,"Duration":137614,"SoundDuration":137614,"Delta":561214385},{"NoteNumber":52,"Velocity":35,"Duration":137614,"SoundDuration":137614,"Delta":561214385},{"NoteNumber":76,"Velocity":36,"Duration":137614,"SoundDuration":137614,"Delta":561352000},{"NoteNumber":68,"Velocity":31,"Duration":137614,"SoundDuration":137614,"Delta":561352000},{"NoteNumber":81,"Velocity":40,"Duration":137614,"SoundDuration":137614,"Delta":561489615},{"NoteNumber":53,"Velocity":35,"Duration":137614,"SoundDuration":137614,"Delta":561489615},{"NoteNumber":76,"Velocity":36,"Duration":137614,"SoundDuration":137614,"Delta":561627230},{"NoteNumber":69,"Velocity":31,"Duration":137614,"SoundDuration":137614,"Delta":561627230},{"NoteNumber":82,"Velocity":42,"Duration":141509,"SoundDuration":141509,"Delta":561764844},{"NoteNumber":54,"Velocity":35,"Duration":141509,"SoundDuration":141509,"Delta":561764844},{"NoteNumber":76,"Velocity":36,"Duration":141509,"SoundDuration":141509,"Delta":561906354},{"NoteNumber":70,"Velocity":31,"Duration":141509,"SoundDuration":141509,"Delta":561906354},{"NoteNumber":83,"Velocity":42,"Duration":141509,"SoundDuration":141509,"Delta":562047863},{"NoteNumber":55,"Velocity":36,"Duration":141509,"SoundDuration":141509,"Delta":562047863},{"NoteNumber":76,"Velocity":36,"Duration":141509,"SoundDuration":141509,"Delta":562189373},{"NoteNumber":71,"Velocity":31,"Duration":141509,"SoundDuration":141509,"Delta":562189373},{"NoteNumber":84,"Velocity":45,"Duration":147058,"SoundDuration":147058,"Delta":562330882},{"NoteNumber":56,"Velocity":36,"Duration":147058,"SoundDuration":147058,"Delta":562330882},{"NoteNumber":76,"Velocity":36,"Duration":147058,"SoundDuration":147058,"Delta":562477941},{"NoteNumber":72,"Velocity":31,"Duration":147058,"SoundDuration":147058,"Delta":562477941},{"NoteNumber":85,"Velocity":47,"Duration":543086,"SoundDuration":543086,"Delta":562625000},{"NoteNumber":73,"Velocity":36,"Duration":133928,"SoundDuration":133928,"Delta":562625000},{"NoteNumber":45,"Velocity":38,"Duration":133928,"SoundDuration":133928,"Delta":562625000},{"NoteNumber":76,"Velocity":36,"Duration":133928,"SoundDuration":133928,"Delta":562758928},{"NoteNumber":52,"Velocity":31,"Duration":133928,"SoundDuration":133928,"Delta":562758928},{"NoteNumber":78,"Velocity":39,"Duration":137614,"SoundDuration":137614,"Delta":562892857},{"NoteNumber":57,"Velocity":34,"Duration":137614,"SoundDuration":137614,"Delta":562892857},{"NoteNumber":76,"Velocity":36,"Duration":137614,"SoundDuration":137614,"Delta":563030472},{"NoteNumber":64,"Velocity":31,"Duration":137614,"SoundDuration":137614,"Delta":563030472},{"NoteNumber":83,"Velocity":43,"Duration":283018,"SoundDuration":283018,"Delta":563168086},{"NoteNumber":71,"Velocity":36,"Duration":141509,"SoundDuration":141509,"Delta":563168086},{"NoteNumber":56,"Velocity":36,"Duration":141509,"SoundDuration":141509,"Delta":563168086},{"NoteNumber":76,"Velocity":36,"Duration":141509,"SoundDuration":141509,"Delta":563309596},{"NoteNumber":64,"Velocity":31,"Duration":141509,"SoundDuration":141509,"Delta":563309596},{"NoteNumber":85,"Velocity":47,"Duration":558442,"SoundDuration":558442,"Delta":563451105},{"NoteNumber":73,"Velocity":36,"Duration":136363,"SoundDuration":136363,"Delta":563451105},{"NoteNumber":45,"Velocity":35,"Duration":136363,"SoundDuration":136363,"Delta":563451105},{"NoteNumber":76,"Velocity":36,"Duration":136363,"SoundDuration":136363,"Delta":563587469},{"NoteNumber":52,"Velocity":31,"Duration":136363,"SoundDuration":136363,"Delta":563587469},{"NoteNumber":78,"Velocity":39,"Duration":142857,"SoundDuration":142857,"Delta":563723833},{"NoteNumber":57,"Velocity":34,"Duration":142857,"SoundDuration":142857,"Delta":563723833},{"NoteNumber":76,"Velocity":36,"Duration":142857,"SoundDuration":142857,"Delta":563866690},{"NoteNumber":64,"Velocity":31,"Duration":142857,"SoundDuration":142857,"Delta":563866690},{"NoteNumber":86,"Velocity":44,"Duration":294117,"SoundDuration":294117,"Delta":564009547},{"NoteNumber":74,"Velocity":36,"Duration":147058,"SoundDuration":147058,"Delta":564009547},{"NoteNumber":59,"Velocity":31,"Duration":147058,"SoundDuration":147058,"Delta":564009547},{"NoteNumber":76,"Velocity":36,"Duration":147058,"SoundDuration":147058,"Delta":564156606},{"NoteNumber":64,"Velocity":31,"Duration":147058,"SoundDuration":147058,"Delta":564156606},{"NoteNumber":83,"Velocity":48,"Duration":260869,"SoundDuration":260869,"Delta":564303665},{"NoteNumber":71,"Velocity":36,"Duration":130434,"SoundDuration":130434,"Delta":564303665},{"NoteNumber":56,"Velocity":36,"Duration":130434,"SoundDuration":130434,"Delta":564303665},{"NoteNumber":76,"Velocity":36,"Duration":130434,"SoundDuration":130434,"Delta":564434100},{"NoteNumber":64,"Velocity":31,"Duration":130434,"SoundDuration":130434,"Delta":564434100},{"NoteNumber":88,"Velocity":49,"Duration":545454,"SoundDuration":545454,"Delta":564564534},{"NoteNumber":80,"Velocity":36,"Duration":136363,"SoundDuration":136363,"Delta":564564534},{"NoteNumber":52,"Velocity":35,"Duration":136363,"SoundDuration":136363,"Delta":564564534},{"NoteNumber":76,"Velocity":36,"Duration":136363,"SoundDuration":136363,"Delta":564700898},{"NoteNumber":68,"Velocity":31,"Duration":136363,"SoundDuration":136363,"Delta":564700898},{"NoteNumber":81,"Velocity":40,"Duration":136363,"SoundDuration":136363,"Delta":564837262},{"NoteNumber":53,"Velocity":35,"Duration":136363,"SoundDuration":136363,"Delta":564837262},{"NoteNumber":76,"Velocity":36,"Duration":136363,"SoundDuration":136363,"Delta":564973626},{"NoteNumber":69,"Velocity":31,"Duration":136363,"SoundDuration":136363,"Delta":564973626},{"NoteNumber":82,"Velocity":42,"Duration":142857,"SoundDuration":142857,"Delta":565109989},{"NoteNumber":54,"Velocity":35,"Duration":142857,"SoundDuration":142857,"Delta":565109989},{"NoteNumber":76,"Velocity":36,"Duration":142857,"SoundDuration":142857,"Delta":565252847},{"NoteNumber":70,"Velocity":31,"Duration":142857,"SoundDuration":142857,"Delta":565252847},{"NoteNumber":83,"Velocity":42,"Duration":142857,"SoundDuration":142857,"Delta":565395704},{"NoteNumber":55,"Velocity":36,"Duration":142857,"SoundDuration":142857,"Delta":565395704},{"NoteNumber":76,"Velocity":36,"Duration":142857,"SoundDuration":142857,"Delta":565538561},{"NoteNumber":71,"Velocity":31,"Duration":142857,"SoundDuration":142857,"Delta":565538561},{"NoteNumber":84,"Velocity":42,"Duration":149999,"SoundDuration":149999,"Delta":565681418},{"NoteNumber":56,"Velocity":36,"Duration":149999,"SoundDuration":149999,"Delta":565681418},{"NoteNumber":76,"Velocity":36,"Duration":149999,"SoundDuration":149999,"Delta":565831418},{"NoteNumber":72,"Velocity":31,"Duration":149999,"SoundDuration":149999,"Delta":565831418},{"NoteNumber":85,"Velocity":48,"Duration":543532,"SoundDuration":543532,"Delta":565981418},{"NoteNumber":81,"Velocity":40,"Duration":543532,"SoundDuration":543532,"Delta":565981418},{"NoteNumber":73,"Velocity":36,"Duration":131578,"SoundDuration":131578,"Delta":565981418},{"NoteNumber":45,"Velocity":38,"Duration":131578,"SoundDuration":131578,"Delta":565981418},{"NoteNumber":76,"Velocity":36,"Duration":131578,"SoundDuration":131578,"Delta":566112997},{"NoteNumber":52,"Velocity":31,"Duration":131578,"SoundDuration":131578,"Delta":566112997},{"NoteNumber":78,"Velocity":39,"Duration":140186,"SoundDuration":140186,"Delta":566244576},{"NoteNumber":61,"Velocity":34,"Duration":140186,"SoundDuration":140186,"Delta":566244576},{"NoteNumber":76,"Velocity":36,"Duration":140187,"SoundDuration":140187,"Delta":566384763},{"NoteNumber":64,"Velocity":31,"Duration":140187,"SoundDuration":140187,"Delta":566384763},{"NoteNumber":73,"Velocity":36,"Duration":140186,"SoundDuration":140186,"Delta":566524950},{"NoteNumber":57,"Velocity":36,"Duration":140186,"SoundDuration":140186,"Delta":566524950},{"NoteNumber":76,"Velocity":36,"Duration":140186,"SoundDuration":140186,"Delta":566665137},{"NoteNumber":61,"Velocity":31,"Duration":140186,"SoundDuration":140186,"Delta":566665137},{"NoteNumber":74,"Velocity":36,"Duration":132743,"SoundDuration":132743,"Delta":566805324},{"NoteNumber":83,"Velocity":41,"Duration":265486,"SoundDuration":265486,"Delta":566805324},{"NoteNumber":86,"Velocity":49,"Duration":265486,"SoundDuration":265486,"Delta":566805324},{"NoteNumber":50,"Velocity":35,"Duration":132743,"SoundDuration":132743,"Delta":566805324},{"NoteNumber":78,"Velocity":36,"Duration":132743,"SoundDuration":132743,"Delta":566938068},{"NoteNumber":59,"Velocity":31,"Duration":132743,"SoundDuration":132743,"Delta":566938068},{"NoteNumber":90,"Velocity":45,"Duration":283018,"SoundDuration":283018,"Delta":567070811},{"NoteNumber":86,"Velocity":38,"Duration":283018,"SoundDuration":283018,"Delta":567070811},{"NoteNumber":80,"Velocity":39,"Duration":141509,"SoundDuration":141509,"Delta":567070811},{"NoteNumber":62,"Velocity":34,"Duration":141509,"SoundDuration":141509,"Delta":567070811},{"NoteNumber":78,"Velocity":36,"Duration":141509,"SoundDuration":141509,"Delta":567212320},{"NoteNumber":66,"Velocity":31,"Duration":141509,"SoundDuration":141509,"Delta":567212320},{"NoteNumber":74,"Velocity":36,"Duration":141509,"SoundDuration":141509,"Delta":567353830},{"NoteNumber":83,"Velocity":38,"Duration":283019,"SoundDuration":283019,"Delta":567353830},{"NoteNumber":86,"Velocity":45,"Duration":283019,"SoundDuration":283019,"Delta":567353830},{"NoteNumber":59,"Velocity":31,"Duration":141509,"SoundDuration":141509,"Delta":567353830},{"NoteNumber":78,"Velocity":36,"Duration":141509,"SoundDuration":141509,"Delta":567495339},{"NoteNumber":62,"Velocity":31,"Duration":141509,"SoundDuration":141509,"Delta":567495339},{"NoteNumber":81,"Velocity":44,"Duration":256410,"SoundDuration":256410,"Delta":567636849},{"NoteNumber":85,"Velocity":52,"Duration":256410,"SoundDuration":256410,"Delta":567636849},{"NoteNumber":73,"Velocity":36,"Duration":128205,"SoundDuration":128205,"Delta":567636849},{"NoteNumber":52,"Velocity":38,"Duration":128205,"SoundDuration":128205,"Delta":567636849},{"NoteNumber":76,"Velocity":36,"Duration":128205,"SoundDuration":128205,"Delta":567765054},{"NoteNumber":61,"Velocity":31,"Duration":128205,"SoundDuration":128205,"Delta":567765054},{"NoteNumber":88,"Velocity":47,"Duration":267857,"SoundDuration":267857,"Delta":567893259},{"NoteNumber":78,"Velocity":39,"Duration":133928,"SoundDuration":133928,"Delta":567893259},{"NoteNumber":85,"Velocity":40,"Duration":267857,"SoundDuration":267857,"Delta":567893259},{"NoteNumber":69,"Velocity":34,"Duration":133928,"SoundDuration":133928,"Delta":567893259},{"NoteNumber":76,"Velocity":36,"Duration":133928,"SoundDuration":133928,"Delta":568027188},{"NoteNumber":73,"Velocity":31,"Duration":133928,"SoundDuration":133928,"Delta":568027188},{"NoteNumber":81,"Velocity":40,"Duration":285714,"SoundDuration":285714,"Delta":568161116},{"NoteNumber":73,"Velocity":36,"Duration":142857,"SoundDuration":142857,"Delta":568161116},{"NoteNumber":85,"Velocity":47,"Duration":285714,"SoundDuration":285714,"Delta":568161116},{"NoteNumber":64,"Velocity":36,"Duration":142857,"SoundDuration":142857,"Delta":568161116},{"NoteNumber":76,"Velocity":36,"Duration":142857,"SoundDuration":142857,"Delta":568303974},{"NoteNumber":69,"Velocity":31,"Duration":142857,"SoundDuration":142857,"Delta":568303974},{"NoteNumber":83,"Velocity":53,"Duration":260869,"SoundDuration":260869,"Delta":568446831},{"NoteNumber":80,"Velocity":45,"Duration":260869,"SoundDuration":260869,"Delta":568446831},{"NoteNumber":71,"Velocity":36,"Duration":130434,"SoundDuration":130434,"Delta":568446831},{"NoteNumber":52,"Velocity":35,"Duration":130434,"SoundDuration":130434,"Delta":568446831},{"NoteNumber":76,"Velocity":36,"Duration":130434,"SoundDuration":130434,"Delta":568577266},{"NoteNumber":62,"Velocity":31,"Duration":130434,"SoundDuration":130434,"Delta":568577266},{"NoteNumber":83,"Velocity":40,"Duration":285714,"SoundDuration":285714,"Delta":568707700},{"NoteNumber":86,"Velocity":48,"Duration":285714,"SoundDuration":285714,"Delta":568707700},{"NoteNumber":77,"Velocity":39,"Duration":142857,"SoundDuration":142857,"Delta":568707700},{"NoteNumber":68,"Velocity":34,"Duration":142857,"SoundDuration":142857,"Delta":568707700},{"NoteNumber":76,"Velocity":36,"Duration":142857,"SoundDuration":142857,"Delta":568850558},{"NoteNumber":71,"Velocity":31,"Duration":142857,"SoundDuration":142857,"Delta":568850558},{"NoteNumber":80,"Velocity":40,"Duration":285714,"SoundDuration":285714,"Delta":568993415},{"NoteNumber":71,"Velocity":36,"Duration":142857,"SoundDuration":142857,"Delta":568993415},{"NoteNumber":83,"Velocity":48,"Duration":285714,"SoundDuration":285714,"Delta":568993415},{"NoteNumber":62,"Velocity":31,"Duration":142857,"SoundDuration":142857,"Delta":568993415},{"NoteNumber":76,"Velocity":36,"Duration":142857,"SoundDuration":142857,"Delta":569136272},{"NoteNumber":68,"Velocity":31,"Duration":142857,"SoundDuration":142857,"Delta":569136272},{"NoteNumber":69,"Velocity":41,"Duration":149999,"SoundDuration":149999,"Delta":569279129},{"NoteNumber":81,"Velocity":51,"Duration":560869,"SoundDuration":560869,"Delta":569279129},{"NoteNumber":61,"Velocity":32,"Duration":149999,"SoundDuration":149999,"Delta":569279129},{"NoteNumber":64,"Velocity":32,"Duration":149999,"SoundDuration":149999,"Delta":569279129},{"NoteNumber":73,"Velocity":41,"Duration":149999,"SoundDuration":149999,"Delta":569429129},{"NoteNumber":64,"Velocity":33,"Duration":149999,"SoundDuration":149999,"Delta":569429129},{"NoteNumber":76,"Velocity":41,"Duration":130434,"SoundDuration":130434,"Delta":569579129},{"NoteNumber":69,"Velocity":34,"Duration":130434,"SoundDuration":130434,"Delta":569579129},{"NoteNumber":81,"Velocity":41,"Duration":130434,"SoundDuration":130434,"Delta":569709564},{"NoteNumber":73,"Velocity":34,"Duration":130434,"SoundDuration":130434,"Delta":569709564},{"NoteNumber":85,"Velocity":42,"Duration":130434,"SoundDuration":130434,"Delta":569839999},{"NoteNumber":93,"Velocity":51,"Duration":260869,"SoundDuration":260869,"Delta":569839999},{"NoteNumber":76,"Velocity":35,"Duration":130434,"SoundDuration":130434,"Delta":569839999},{"NoteNumber":87,"Velocity":44,"Duration":130434,"SoundDuration":130434,"Delta":569970434},{"NoteNumber":78,"Velocity":36,"Duration":130434,"SoundDuration":130434,"Delta":569970434},{"NoteNumber":88,"Velocity":45,"Duration":132743,"SoundDuration":132743,"Delta":570100868},{"NoteNumber":92,"Velocity":51,"Duration":265486,"SoundDuration":265486,"Delta":570100868},{"NoteNumber":80,"Velocity":36,"Duration":132743,"SoundDuration":132743,"Delta":570100868},{"NoteNumber":83,"Velocity":44,"Duration":132743,"SoundDuration":132743,"Delta":570233612},{"NoteNumber":76,"Velocity":36,"Duration":132743,"SoundDuration":132743,"Delta":570233612},{"NoteNumber":80,"Velocity":45,"Duration":138888,"SoundDuration":138888,"Delta":570366355},{"NoteNumber":88,"Velocity":54,"Duration":277778,"SoundDuration":277778,"Delta":570366355},{"NoteNumber":71,"Velocity":31,"Duration":138888,"SoundDuration":138888,"Delta":570366355},{"NoteNumber":81,"Velocity":45,"Duration":138889,"SoundDuration":138889,"Delta":570505244},{"NoteNumber":73,"Velocity":31,"Duration":138889,"SoundDuration":138889,"Delta":570505244},{"NoteNumber":83,"Velocity":46,"Duration":138888,"SoundDuration":138888,"Delta":570644133},{"NoteNumber":91,"Velocity":54,"Duration":277778,"SoundDuration":277778,"Delta":570644133},{"NoteNumber":74,"Velocity":33,"Duration":138888,"SoundDuration":138888,"Delta":570644133},{"NoteNumber":85,"Velocity":45,"Duration":138889,"SoundDuration":138889,"Delta":570783022},{"NoteNumber":76,"Velocity":31,"Duration":138889,"SoundDuration":138889,"Delta":570783022},{"NoteNumber":86,"Velocity":47,"Duration":129310,"SoundDuration":129310,"Delta":570921911},{"NoteNumber":90,"Velocity":58,"Duration":258620,"SoundDuration":258620,"Delta":570921911},{"NoteNumber":78,"Velocity":36,"Duration":129310,"SoundDuration":129310,"Delta":570921911},{"NoteNumber":81,"Velocity":47,"Duration":129310,"SoundDuration":129310,"Delta":571051221},{"NoteNumber":74,"Velocity":36,"Duration":129310,"SoundDuration":129310,"Delta":571051221},{"NoteNumber":77,"Velocity":46,"Duration":136363,"SoundDuration":136363,"Delta":571180531},{"NoteNumber":86,"Velocity":56,"Duration":272727,"SoundDuration":272727,"Delta":571180531},{"NoteNumber":70,"Velocity":36,"Duration":136363,"SoundDuration":136363,"Delta":571180531},{"NoteNumber":74,"Velocity":49,"Duration":136363,"SoundDuration":136363,"Delta":571316895},{"NoteNumber":65,"Velocity":37,"Duration":136363,"SoundDuration":136363,"Delta":571316895},{"NoteNumber":82,"Velocity":48,"Duration":136363,"SoundDuration":136363,"Delta":571453259},{"NoteNumber":89,"Velocity":57,"Duration":272727,"SoundDuration":272727,"Delta":571453259},{"NoteNumber":62,"Velocity":38,"Duration":136363,"SoundDuration":136363,"Delta":571453259},{"NoteNumber":81,"Velocity":50,"Duration":136363,"SoundDuration":136363,"Delta":571589623},{"NoteNumber":60,"Velocity":38,"Duration":136363,"SoundDuration":136363,"Delta":571589623},{"NoteNumber":80,"Velocity":49,"Duration":144230,"SoundDuration":144230,"Delta":571725986},{"NoteNumber":88,"Velocity":59,"Duration":288461,"SoundDuration":288461,"Delta":571725986},{"NoteNumber":59,"Velocity":41,"Duration":144230,"SoundDuration":144230,"Delta":571725986},{"NoteNumber":76,"Velocity":49,"Duration":144230,"SoundDuration":144230,"Delta":571870217},{"NoteNumber":64,"Velocity":38,"Duration":144230,"SoundDuration":144230,"Delta":571870217},{"NoteNumber":71,"Velocity":44,"Duration":151515,"SoundDuration":151515,"Delta":572014448},{"NoteNumber":83,"Velocity":51,"Duration":303030,"SoundDuration":303030,"Delta":572014448},{"NoteNumber":56,"Velocity":38,"Duration":151515,"SoundDuration":151515,"Delta":572014448},{"NoteNumber":76,"Velocity":45,"Duration":151515,"SoundDuration":151515,"Delta":572165963},{"NoteNumber":64,"Velocity":36,"Duration":151515,"SoundDuration":151515,"Delta":572165963},{"NoteNumber":72,"Velocity":37,"Duration":157894,"SoundDuration":157894,"Delta":572317478},{"NoteNumber":84,"Velocity":47,"Duration":315789,"SoundDuration":315789,"Delta":572317478},{"NoteNumber":52,"Velocity":36,"Duration":157894,"SoundDuration":157894,"Delta":572317478},{"NoteNumber":56,"Velocity":36,"Duration":157894,"SoundDuration":157894,"Delta":572317478},{"NoteNumber":76,"Velocity":42,"Duration":157894,"SoundDuration":157894,"Delta":572475373},{"NoteNumber":64,"Velocity":34,"Duration":157894,"SoundDuration":157894,"Delta":572475373},{"NoteNumber":85,"Velocity":47,"Duration":576982,"SoundDuration":576982,"Delta":572633268},{"NoteNumber":73,"Velocity":36,"Duration":141509,"SoundDuration":141509,"Delta":572633268},{"NoteNumber":45,"Velocity":38,"Duration":141509,"SoundDuration":141509,"Delta":572633268},{"NoteNumber":76,"Velocity":36,"Duration":142156,"SoundDuration":142156,"Delta":572774777},{"NoteNumber":52,"Velocity":31,"Duration":142156,"SoundDuration":142156,"Delta":572774777},{"NoteNumber":78,"Velocity":39,"Duration":147058,"SoundDuration":147058,"Delta":572916934},{"NoteNumber":57,"Velocity":34,"Duration":147058,"SoundDuration":147058,"Delta":572916934},{"NoteNumber":76,"Velocity":36,"Duration":146257,"SoundDuration":146257,"Delta":573063993},{"NoteNumber":64,"Velocity":31,"Duration":146257,"SoundDuration":146257,"Delta":573063993},{"NoteNumber":83,"Velocity":43,"Duration":279643,"SoundDuration":279643,"Delta":573210250},{"NoteNumber":71,"Velocity":36,"Duration":140186,"SoundDuration":140186,"Delta":573210250},{"NoteNumber":56,"Velocity":36,"Duration":140186,"SoundDuration":140186,"Delta":573210250},{"NoteNumber":76,"Velocity":36,"Duration":139456,"SoundDuration":139456,"Delta":573350437},{"NoteNumber":64,"Velocity":31,"Duration":139456,"SoundDuration":139456,"Delta":573350437},{"NoteNumber":85,"Velocity":47,"Duration":549272,"SoundDuration":549272,"Delta":573489894},{"NoteNumber":73,"Velocity":36,"Duration":133928,"SoundDuration":133928,"Delta":573489894},{"NoteNumber":45,"Velocity":35,"Duration":133928,"SoundDuration":133928,"Delta":573489894},{"NoteNumber":76,"Velocity":36,"Duration":134658,"SoundDuration":134658,"Delta":573623822},{"NoteNumber":52,"Velocity":31,"Duration":134658,"SoundDuration":134658,"Delta":573623822},{"NoteNumber":78,"Velocity":39,"Duration":140186,"SoundDuration":140186,"Delta":573758481},{"NoteNumber":57,"Velocity":34,"Duration":140186,"SoundDuration":140186,"Delta":573758481},{"NoteNumber":76,"Velocity":36,"Duration":140498,"SoundDuration":140498,"Delta":573898668},{"NoteNumber":64,"Velocity":31,"Duration":140498,"SoundDuration":140498,"Delta":573898668},{"NoteNumber":86,"Velocity":44,"Duration":284398,"SoundDuration":284398,"Delta":574039167},{"NoteNumber":74,"Velocity":36,"Duration":142857,"SoundDuration":142857,"Delta":574039167},{"NoteNumber":59,"Velocity":31,"Duration":142857,"SoundDuration":142857,"Delta":574039167},{"NoteNumber":76,"Velocity":36,"Duration":141541,"SoundDuration":141541,"Delta":574182024},{"NoteNumber":64,"Velocity":31,"Duration":141541,"SoundDuration":141541,"Delta":574182024},{"NoteNumber":83,"Velocity":48,"Duration":263862,"SoundDuration":263862,"Delta":574323565},{"NoteNumber":71,"Velocity":36,"Duration":131578,"SoundDuration":131578,"Delta":574323565},{"NoteNumber":56,"Velocity":36,"Duration":131578,"SoundDuration":131578,"Delta":574323565},{"NoteNumber":76,"Velocity":36,"Duration":132283,"SoundDuration":132283,"Delta":574455144},{"NoteNumber":64,"Velocity":31,"Duration":132283,"SoundDuration":132283,"Delta":574455144},{"NoteNumber":88,"Velocity":49,"Duration":550913,"SoundDuration":550913,"Delta":574587427},{"NoteNumber":80,"Velocity":36,"Duration":137614,"SoundDuration":137614,"Delta":574587427},{"NoteNumber":52,"Velocity":35,"Duration":137614,"SoundDuration":137614,"Delta":574587427},{"NoteNumber":76,"Velocity":36,"Duration":137614,"SoundDuration":137614,"Delta":574725042},{"NoteNumber":68,"Velocity":31,"Duration":137614,"SoundDuration":137614,"Delta":574725042},{"NoteNumber":81,"Velocity":40,"Duration":137614,"SoundDuration":137614,"Delta":574862657},{"NoteNumber":53,"Velocity":35,"Duration":137614,"SoundDuration":137614,"Delta":574862657},{"NoteNumber":76,"Velocity":36,"Duration":138069,"SoundDuration":138069,"Delta":575000272},{"NoteNumber":69,"Velocity":31,"Duration":138069,"SoundDuration":138069,"Delta":575000272},{"NoteNumber":82,"Velocity":42,"Duration":141509,"SoundDuration":141509,"Delta":575138341},{"NoteNumber":54,"Velocity":35,"Duration":141509,"SoundDuration":141509,"Delta":575138341},{"NoteNumber":76,"Velocity":36,"Duration":141509,"SoundDuration":141509,"Delta":575279850},{"NoteNumber":70,"Velocity":31,"Duration":141509,"SoundDuration":141509,"Delta":575279850},{"NoteNumber":83,"Velocity":42,"Duration":141509,"SoundDuration":141509,"Delta":575421360},{"NoteNumber":55,"Velocity":36,"Duration":141509,"SoundDuration":141509,"Delta":575421360},{"NoteNumber":76,"Velocity":36,"Duration":142156,"SoundDuration":142156,"Delta":575562869},{"NoteNumber":71,"Velocity":31,"Duration":142156,"SoundDuration":142156,"Delta":575562869},{"NoteNumber":84,"Velocity":45,"Duration":147058,"SoundDuration":147058,"Delta":575705026},{"NoteNumber":56,"Velocity":36,"Duration":147058,"SoundDuration":147058,"Delta":575705026},{"NoteNumber":76,"Velocity":36,"Duration":145526,"SoundDuration":145526,"Delta":575852085},{"NoteNumber":72,"Velocity":31,"Duration":145526,"SoundDuration":145526,"Delta":575852085},{"NoteNumber":85,"Velocity":47,"Duration":543970,"SoundDuration":543970,"Delta":575997612},{"NoteNumber":73,"Velocity":36,"Duration":133928,"SoundDuration":133928,"Delta":575997612},{"NoteNumber":45,"Velocity":38,"Duration":133928,"SoundDuration":133928,"Delta":575997612},{"NoteNumber":76,"Velocity":36,"Duration":134358,"SoundDuration":134358,"Delta":576131540},{"NoteNumber":52,"Velocity":31,"Duration":134358,"SoundDuration":134358,"Delta":576131540},{"NoteNumber":78,"Velocity":39,"Duration":137614,"SoundDuration":137614,"Delta":576265899},{"NoteNumber":57,"Velocity":34,"Duration":137614,"SoundDuration":137614,"Delta":576265899},{"NoteNumber":76,"Velocity":36,"Duration":138069,"SoundDuration":138069,"Delta":576403514},{"NoteNumber":64,"Velocity":31,"Duration":138069,"SoundDuration":138069,"Delta":576403514},{"NoteNumber":83,"Velocity":43,"Duration":282418,"SoundDuration":282418,"Delta":576541583},{"NoteNumber":71,"Velocity":36,"Duration":141509,"SoundDuration":141509,"Delta":576541583},{"NoteNumber":56,"Velocity":36,"Duration":141509,"SoundDuration":141509,"Delta":576541583},{"NoteNumber":76,"Velocity":36,"Duration":140909,"SoundDuration":140909,"Delta":576683092},{"NoteNumber":64,"Velocity":31,"Duration":140909,"SoundDuration":140909,"Delta":576683092},{"NoteNumber":85,"Velocity":47,"Duration":559689,"SoundDuration":559689,"Delta":576824001},{"NoteNumber":73,"Velocity":36,"Duration":136363,"SoundDuration":136363,"Delta":576824001},{"NoteNumber":45,"Velocity":35,"Duration":136363,"SoundDuration":136363,"Delta":576824001},{"NoteNumber":76,"Velocity":36,"Duration":137121,"SoundDuration":137121,"Delta":576960365},{"NoteNumber":52,"Velocity":31,"Duration":137121,"SoundDuration":137121,"Delta":576960365},{"NoteNumber":78,"Velocity":39,"Duration":142857,"SoundDuration":142857,"Delta":577097487},{"NoteNumber":57,"Velocity":34,"Duration":142857,"SoundDuration":142857,"Delta":577097487},{"NoteNumber":76,"Velocity":36,"Duration":143347,"SoundDuration":143347,"Delta":577240344},{"NoteNumber":64,"Velocity":31,"Duration":143347,"SoundDuration":143347,"Delta":577240344},{"NoteNumber":86,"Velocity":44,"Duration":292178,"SoundDuration":292178,"Delta":577383691},{"NoteNumber":74,"Velocity":36,"Duration":147058,"SoundDuration":147058,"Delta":577383691},{"NoteNumber":59,"Velocity":31,"Duration":147058,"SoundDuration":147058,"Delta":577383691},{"NoteNumber":76,"Velocity":36,"Duration":145119,"SoundDuration":145119,"Delta":577530750},{"NoteNumber":64,"Velocity":31,"Duration":145119,"SoundDuration":145119,"Delta":577530750},{"NoteNumber":83,"Velocity":48,"Duration":261561,"SoundDuration":261561,"Delta":577675869},{"NoteNumber":71,"Velocity":36,"Duration":130434,"SoundDuration":130434,"Delta":577675869},{"NoteNumber":56,"Velocity":36,"Duration":130434,"SoundDuration":130434,"Delta":577675869},{"NoteNumber":76,"Velocity":36,"Duration":131126,"SoundDuration":131126,"Delta":577806304},{"NoteNumber":64,"Velocity":31,"Duration":131126,"SoundDuration":131126,"Delta":577806304},{"NoteNumber":88,"Velocity":49,"Duration":546212,"SoundDuration":546212,"Delta":577937430},{"NoteNumber":80,"Velocity":36,"Duration":136363,"SoundDuration":136363,"Delta":577937430},{"NoteNumber":52,"Velocity":35,"Duration":136363,"SoundDuration":136363,"Delta":577937430},{"NoteNumber":76,"Velocity":36,"Duration":136363,"SoundDuration":136363,"Delta":578073794},{"NoteNumber":68,"Velocity":31,"Duration":136363,"SoundDuration":136363,"Delta":578073794},{"NoteNumber":81,"Velocity":40,"Duration":136363,"SoundDuration":136363,"Delta":578210158},{"NoteNumber":53,"Velocity":35,"Duration":136363,"SoundDuration":136363,"Delta":578210158},{"NoteNumber":76,"Velocity":36,"Duration":137121,"SoundDuration":137121,"Delta":578346522},{"NoteNumber":69,"Velocity":31,"Duration":137121,"SoundDuration":137121,"Delta":578346522},{"NoteNumber":82,"Velocity":42,"Duration":142857,"SoundDuration":142857,"Delta":578483643},{"NoteNumber":54,"Velocity":35,"Duration":142857,"SoundDuration":142857,"Delta":578483643},{"NoteNumber":76,"Velocity":36,"Duration":142857,"SoundDuration":142857,"Delta":578626500},{"NoteNumber":70,"Velocity":31,"Duration":142857,"SoundDuration":142857,"Delta":578626500},{"NoteNumber":83,"Velocity":42,"Duration":142857,"SoundDuration":142857,"Delta":578769358},{"NoteNumber":55,"Velocity":36,"Duration":142857,"SoundDuration":142857,"Delta":578769358},{"NoteNumber":76,"Velocity":36,"Duration":143690,"SoundDuration":143690,"Delta":578912215},{"NoteNumber":71,"Velocity":31,"Duration":143690,"SoundDuration":143690,"Delta":578912215},{"NoteNumber":84,"Velocity":42,"Duration":149999,"SoundDuration":149999,"Delta":579055905},{"NoteNumber":56,"Velocity":36,"Duration":149999,"SoundDuration":149999,"Delta":579055905},{"NoteNumber":76,"Velocity":36,"Duration":147850,"SoundDuration":147850,"Delta":579205905},{"NoteNumber":72,"Velocity":31,"Duration":147850,"SoundDuration":147850,"Delta":579205905},{"NoteNumber":81,"Velocity":40,"Duration":544536,"SoundDuration":544536,"Delta":579353756},{"NoteNumber":73,"Velocity":36,"Duration":131578,"SoundDuration":131578,"Delta":579353756},{"NoteNumber":85,"Velocity":48,"Duration":544536,"SoundDuration":544536,"Delta":579353756},{"NoteNumber":45,"Velocity":38,"Duration":131578,"SoundDuration":131578,"Delta":579353756},{"NoteNumber":76,"Velocity":36,"Duration":132583,"SoundDuration":132583,"Delta":579485335},{"NoteNumber":52,"Velocity":31,"Duration":132583,"SoundDuration":132583,"Delta":579485335},{"NoteNumber":78,"Velocity":39,"Duration":140186,"SoundDuration":140186,"Delta":579617919},{"NoteNumber":61,"Velocity":34,"Duration":140186,"SoundDuration":140186,"Delta":579617919},{"NoteNumber":76,"Velocity":36,"Duration":140187,"SoundDuration":140187,"Delta":579758106},{"NoteNumber":64,"Velocity":31,"Duration":140187,"SoundDuration":140187,"Delta":579758106},{"NoteNumber":73,"Velocity":36,"Duration":140186,"SoundDuration":140186,"Delta":579898293},{"NoteNumber":57,"Velocity":36,"Duration":140186,"SoundDuration":140186,"Delta":579898293},{"NoteNumber":76,"Velocity":36,"Duration":139318,"SoundDuration":139318,"Delta":580038480},{"NoteNumber":61,"Velocity":31,"Duration":139318,"SoundDuration":139318,"Delta":580038480},{"NoteNumber":83,"Velocity":41,"Duration":266509,"SoundDuration":266509,"Delta":580177798},{"NoteNumber":86,"Velocity":49,"Duration":266509,"SoundDuration":266509,"Delta":580177798},{"NoteNumber":74,"Velocity":36,"Duration":132743,"SoundDuration":132743,"Delta":580177798},{"NoteNumber":50,"Velocity":35,"Duration":132743,"SoundDuration":132743,"Delta":580177798},{"NoteNumber":78,"Velocity":36,"Duration":133765,"SoundDuration":133765,"Delta":580310541},{"NoteNumber":59,"Velocity":31,"Duration":133765,"SoundDuration":133765,"Delta":580310541},{"NoteNumber":90,"Velocity":45,"Duration":283018,"SoundDuration":283018,"Delta":580444307},{"NoteNumber":86,"Velocity":38,"Duration":283018,"SoundDuration":283018,"Delta":580444307},{"NoteNumber":80,"Velocity":39,"Duration":141509,"SoundDuration":141509,"Delta":580444307},{"NoteNumber":62,"Velocity":34,"Duration":141509,"SoundDuration":141509,"Delta":580444307},{"NoteNumber":78,"Velocity":36,"Duration":141509,"SoundDuration":141509,"Delta":580585817},{"NoteNumber":66,"Velocity":31,"Duration":141509,"SoundDuration":141509,"Delta":580585817},{"NoteNumber":74,"Velocity":36,"Duration":141509,"SoundDuration":141509,"Delta":580727326},{"NoteNumber":83,"Velocity":38,"Duration":281466,"SoundDuration":281466,"Delta":580727326},{"NoteNumber":86,"Velocity":45,"Duration":281466,"SoundDuration":281466,"Delta":580727326},{"NoteNumber":59,"Velocity":31,"Duration":141509,"SoundDuration":141509,"Delta":580727326},{"NoteNumber":78,"Velocity":36,"Duration":139957,"SoundDuration":139957,"Delta":580868836},{"NoteNumber":62,"Velocity":31,"Duration":139957,"SoundDuration":139957,"Delta":580868836},{"NoteNumber":85,"Velocity":52,"Duration":257078,"SoundDuration":257078,"Delta":581008793},{"NoteNumber":73,"Velocity":36,"Duration":128205,"SoundDuration":128205,"Delta":581008793},{"NoteNumber":81,"Velocity":44,"Duration":257078,"SoundDuration":257078,"Delta":581008793},{"NoteNumber":52,"Velocity":38,"Duration":128205,"SoundDuration":128205,"Delta":581008793},{"NoteNumber":76,"Velocity":36,"Duration":128872,"SoundDuration":128872,"Delta":581136998},{"NoteNumber":61,"Velocity":31,"Duration":128872,"SoundDuration":128872,"Delta":581136998},{"NoteNumber":88,"Velocity":47,"Duration":268898,"SoundDuration":268898,"Delta":581265871},{"NoteNumber":78,"Velocity":39,"Duration":133928,"SoundDuration":133928,"Delta":581265871},{"NoteNumber":85,"Velocity":40,"Duration":268898,"SoundDuration":268898,"Delta":581265871},{"NoteNumber":69,"Velocity":34,"Duration":133928,"SoundDuration":133928,"Delta":581265871},{"NoteNumber":76,"Velocity":36,"Duration":134970,"SoundDuration":134970,"Delta":581399800},{"NoteNumber":73,"Velocity":31,"Duration":134970,"SoundDuration":134970,"Delta":581399800},{"NoteNumber":81,"Velocity":40,"Duration":284265,"SoundDuration":284265,"Delta":581534770},{"NoteNumber":73,"Velocity":36,"Duration":142857,"SoundDuration":142857,"Delta":581534770},{"NoteNumber":85,"Velocity":47,"Duration":284265,"SoundDuration":284265,"Delta":581534770},{"NoteNumber":64,"Velocity":36,"Duration":142857,"SoundDuration":142857,"Delta":581534770},{"NoteNumber":76,"Velocity":36,"Duration":141407,"SoundDuration":141407,"Delta":581677627},{"NoteNumber":69,"Velocity":31,"Duration":141407,"SoundDuration":141407,"Delta":581677627},{"NoteNumber":83,"Velocity":53,"Duration":262318,"SoundDuration":262318,"Delta":581819035},{"NoteNumber":80,"Velocity":45,"Duration":262318,"SoundDuration":262318,"Delta":581819035},{"NoteNumber":71,"Velocity":36,"Duration":130434,"SoundDuration":130434,"Delta":581819035},{"NoteNumber":52,"Velocity":35,"Duration":130434,"SoundDuration":130434,"Delta":581819035},{"NoteNumber":76,"Velocity":36,"Duration":131884,"SoundDuration":131884,"Delta":581949470},{"NoteNumber":62,"Velocity":31,"Duration":131884,"SoundDuration":131884,"Delta":581949470},{"NoteNumber":77,"Velocity":39,"Duration":142857,"SoundDuration":142857,"Delta":582081354},{"NoteNumber":83,"Velocity":40,"Duration":285714,"SoundDuration":285714,"Delta":582081354},{"NoteNumber":86,"Velocity":48,"Duration":285714,"SoundDuration":285714,"Delta":582081354},{"NoteNumber":68,"Velocity":34,"Duration":142857,"SoundDuration":142857,"Delta":582081354},{"NoteNumber":76,"Velocity":36,"Duration":142857,"SoundDuration":142857,"Delta":582224211},{"NoteNumber":71,"Velocity":31,"Duration":142857,"SoundDuration":142857,"Delta":582224211},{"NoteNumber":71,"Velocity":36,"Duration":142857,"SoundDuration":142857,"Delta":582367069},{"NoteNumber":83,"Velocity":48,"Duration":285714,"SoundDuration":285714,"Delta":582367069},{"NoteNumber":80,"Velocity":40,"Duration":285714,"SoundDuration":285714,"Delta":582367069},{"NoteNumber":62,"Velocity":31,"Duration":142857,"SoundDuration":142857,"Delta":582367069},{"NoteNumber":76,"Velocity":36,"Duration":142857,"SoundDuration":142857,"Delta":582509926},{"NoteNumber":68,"Velocity":31,"Duration":142857,"SoundDuration":142857,"Delta":582509926},{"NoteNumber":73,"Velocity":49,"Duration":142857,"SoundDuration":142857,"Delta":582652783},{"NoteNumber":69,"Velocity":41,"Duration":142857,"SoundDuration":142857,"Delta":582652783},{"NoteNumber":81,"Velocity":56,"Duration":142857,"SoundDuration":142857,"Delta":582652783},{"NoteNumber":45,"Velocity":32,"Duration":142857,"SoundDuration":142857,"Delta":582652783},{"NoteNumber":52,"Velocity":39,"Duration":142857,"SoundDuration":142857,"Delta":582652783},{"NoteNumber":57,"Velocity":45,"Duration":142857,"SoundDuration":142857,"Delta":582652783},{"NoteNumber":73,"Velocity":49,"Duration":142857,"SoundDuration":142857,"Delta":583224212},{"NoteNumber":57,"Velocity":41,"Duration":179538,"SoundDuration":179538,"Delta":583456045},{"NoteNumber":64,"Velocity":41,"Duration":163234,"SoundDuration":163234,"Delta":583472349},{"NoteNumber":67,"Velocity":41,"Duration":146929,"SoundDuration":146929,"Delta":583488653},{"NoteNumber":73,"Velocity":52,"Duration":130625,"SoundDuration":130625,"Delta":583504958},{"NoteNumber":81,"Velocity":43,"Duration":65694,"SoundDuration":65694,"Delta":583602784},{"NoteNumber":85,"Velocity":44,"Duration":64842,"SoundDuration":64842,"Delta":583701182},{"NoteNumber":93,"Velocity":45,"Duration":63560,"SoundDuration":63560,"Delta":583798076},{"NoteNumber":93,"Velocity":46,"Duration":62327,"SoundDuration":62327,"Delta":583893149},{"NoteNumber":71,"Velocity":49,"Duration":62327,"SoundDuration":62327,"Delta":583893149},{"NoteNumber":85,"Velocity":45,"Duration":62413,"SoundDuration":62413,"Delta":583986469},{"NoteNumber":73,"Velocity":46,"Duration":126056,"SoundDuration":126056,"Delta":584017633},{"NoteNumber":81,"Velocity":44,"Duration":63381,"SoundDuration":63381,"Delta":584080308},{"NoteNumber":73,"Velocity":44,"Duration":64864,"SoundDuration":64864,"Delta":584175559},{"NoteNumber":62,"Velocity":43,"Duration":165546,"SoundDuration":165546,"Delta":584240424},{"NoteNumber":66,"Velocity":43,"Duration":148754,"SoundDuration":148754,"Delta":584257216},{"NoteNumber":74,"Velocity":54,"Duration":132161,"SoundDuration":132161,"Delta":584273809},{"NoteNumber":81,"Velocity":43,"Duration":65503,"SoundDuration":65503,"Delta":584373075},{"NoteNumber":86,"Velocity":44,"Duration":64842,"SoundDuration":64842,"Delta":584471187},{"NoteNumber":93,"Velocity":45,"Duration":64012,"SoundDuration":64012,"Delta":584568265},{"NoteNumber":93,"Velocity":46,"Duration":63740,"SoundDuration":63740,"Delta":584664057},{"NoteNumber":76,"Velocity":45,"Duration":63740,"SoundDuration":63740,"Delta":584664057},{"NoteNumber":86,"Velocity":45,"Duration":64563,"SoundDuration":64563,"Delta":584759849},{"NoteNumber":74,"Velocity":48,"Duration":97451,"SoundDuration":97451,"Delta":584792084},{"NoteNumber":81,"Velocity":44,"Duration":65408,"SoundDuration":65408,"Delta":584856927},{"NoteNumber":74,"Velocity":44,"Duration":67503,"SoundDuration":67503,"Delta":584955230},{"NoteNumber":57,"Velocity":41,"Duration":181310,"SoundDuration":181310,"Delta":585005136},{"NoteNumber":64,"Velocity":41,"Duration":163712,"SoundDuration":163712,"Delta":585022733},{"NoteNumber":67,"Velocity":41,"Duration":147454,"SoundDuration":147454,"Delta":585038992},{"NoteNumber":73,"Velocity":52,"Duration":131006,"SoundDuration":131006,"Delta":585055439},{"NoteNumber":81,"Velocity":43,"Duration":65123,"SoundDuration":65123,"Delta":585153837},{"NoteNumber":85,"Velocity":44,"Duration":64286,"SoundDuration":64286,"Delta":585251289},{"NoteNumber":93,"Velocity":45,"Duration":63649,"SoundDuration":63649,"Delta":585347627},{"NoteNumber":93,"Velocity":46,"Duration":63025,"SoundDuration":63025,"Delta":585442878},{"NoteNumber":71,"Velocity":49,"Duration":63025,"SoundDuration":63025,"Delta":585442878},{"NoteNumber":85,"Velocity":45,"Duration":63830,"SoundDuration":63830,"Delta":585537683},{"NoteNumber":73,"Velocity":46,"Duration":128757,"SoundDuration":128757,"Delta":585569463},{"NoteNumber":81,"Velocity":44,"Duration":64655,"SoundDuration":64655,"Delta":585633565},{"NoteNumber":73,"Velocity":44,"Duration":64954,"SoundDuration":64954,"Delta":585730548},{"NoteNumber":62,"Velocity":43,"Duration":130434,"SoundDuration":130434,"Delta":585827831},{"NoteNumber":74,"Velocity":54,"Duration":130434,"SoundDuration":130434,"Delta":585827831},{"NoteNumber":66,"Velocity":43,"Duration":130434,"SoundDuration":130434,"Delta":585827831},{"NoteNumber":69,"Velocity":34,"Duration":55702,"SoundDuration":55702,"Delta":586349570},{"NoteNumber":66,"Velocity":28,"Duration":55702,"SoundDuration":55702,"Delta":586349570},{"NoteNumber":71,"Velocity":35,"Duration":51196,"SoundDuration":51196,"Delta":586405272},{"NoteNumber":67,"Velocity":29,"Duration":51196,"SoundDuration":51196,"Delta":586405272},{"NoteNumber":73,"Velocity":36,"Duration":50876,"SoundDuration":50876,"Delta":586456469},{"NoteNumber":69,"Velocity":31,"Duration":50876,"SoundDuration":50876,"Delta":586456469},{"NoteNumber":74,"Velocity":37,"Duration":50647,"SoundDuration":50647,"Delta":586507346},{"NoteNumber":71,"Velocity":31,"Duration":50647,"SoundDuration":50647,"Delta":586507346},{"NoteNumber":76,"Velocity":39,"Duration":50335,"SoundDuration":50335,"Delta":586557993},{"NoteNumber":73,"Velocity":32,"Duration":50335,"SoundDuration":50335,"Delta":586557993},{"NoteNumber":78,"Velocity":40,"Duration":50083,"SoundDuration":50083,"Delta":586608328},{"NoteNumber":74,"Velocity":34,"Duration":50083,"SoundDuration":50083,"Delta":586608328},{"NoteNumber":79,"Velocity":41,"Duration":49862,"SoundDuration":49862,"Delta":586658412},{"NoteNumber":76,"Velocity":35,"Duration":49862,"SoundDuration":49862,"Delta":586658412},{"NoteNumber":81,"Velocity":43,"Duration":49641,"SoundDuration":49641,"Delta":586708274},{"NoteNumber":78,"Velocity":36,"Duration":49641,"SoundDuration":49641,"Delta":586708274},{"NoteNumber":83,"Velocity":44,"Duration":49342,"SoundDuration":49342,"Delta":586757916},{"NoteNumber":79,"Velocity":36,"Duration":49342,"SoundDuration":49342,"Delta":586757916},{"NoteNumber":85,"Velocity":45,"Duration":49100,"SoundDuration":49100,"Delta":586807258},{"NoteNumber":81,"Velocity":38,"Duration":49100,"SoundDuration":49100,"Delta":586807258},{"NoteNumber":86,"Velocity":47,"Duration":48886,"SoundDuration":48886,"Delta":586856358},{"NoteNumber":83,"Velocity":40,"Duration":48886,"SoundDuration":48886,"Delta":586856358},{"NoteNumber":88,"Velocity":48,"Duration":48675,"SoundDuration":48675,"Delta":586905245},{"NoteNumber":85,"Velocity":40,"Duration":48675,"SoundDuration":48675,"Delta":586905245},{"NoteNumber":90,"Velocity":49,"Duration":65217,"SoundDuration":65217,"Delta":586953920},{"NoteNumber":86,"Velocity":41,"Duration":65217,"SoundDuration":65217,"Delta":586953920},{"NoteNumber":52,"Velocity":43,"Duration":165546,"SoundDuration":165546,"Delta":587703920},{"NoteNumber":61,"Velocity":43,"Duration":148754,"SoundDuration":148754,"Delta":587720712},{"NoteNumber":69,"Velocity":54,"Duration":132161,"SoundDuration":132161,"Delta":587737305},{"NoteNumber":76,"Velocity":43,"Duration":65503,"SoundDuration":65503,"Delta":587836572},{"NoteNumber":81,"Velocity":44,"Duration":64842,"SoundDuration":64842,"Delta":587934684},{"NoteNumber":88,"Velocity":45,"Duration":64012,"SoundDuration":64012,"Delta":588031762},{"NoteNumber":88,"Velocity":46,"Duration":63740,"SoundDuration":63740,"Delta":588127554},{"NoteNumber":71,"Velocity":45,"Duration":63740,"SoundDuration":63740,"Delta":588127554},{"NoteNumber":81,"Velocity":45,"Duration":64563,"SoundDuration":64563,"Delta":588223345},{"NoteNumber":69,"Velocity":48,"Duration":97451,"SoundDuration":97451,"Delta":588255581},{"NoteNumber":76,"Velocity":44,"Duration":65408,"SoundDuration":65408,"Delta":588320423},{"NoteNumber":69,"Velocity":44,"Duration":67503,"SoundDuration":67503,"Delta":588418726},{"NoteNumber":52,"Velocity":41,"Duration":181310,"SoundDuration":181310,"Delta":588468632},{"NoteNumber":59,"Velocity":41,"Duration":163712,"SoundDuration":163712,"Delta":588486230},{"NoteNumber":62,"Velocity":41,"Duration":147454,"SoundDuration":147454,"Delta":588502488},{"NoteNumber":68,"Velocity":52,"Duration":131006,"SoundDuration":131006,"Delta":588518936},{"NoteNumber":76,"Velocity":43,"Duration":65123,"SoundDuration":65123,"Delta":588617334},{"NoteNumber":80,"Velocity":44,"Duration":64286,"SoundDuration":64286,"Delta":588714785},{"NoteNumber":88,"Velocity":45,"Duration":63649,"SoundDuration":63649,"Delta":588811123},{"NoteNumber":88,"Velocity":46,"Duration":63025,"SoundDuration":63025,"Delta":588906375},{"NoteNumber":66,"Velocity":49,"Duration":63025,"SoundDuration":63025,"Delta":588906375},{"NoteNumber":80,"Velocity":45,"Duration":63830,"SoundDuration":63830,"Delta":589001180},{"NoteNumber":68,"Velocity":46,"Duration":128757,"SoundDuration":128757,"Delta":589032959},{"NoteNumber":76,"Velocity":44,"Duration":64655,"SoundDuration":64655,"Delta":589097062},{"NoteNumber":68,"Velocity":44,"Duration":64954,"SoundDuration":64954,"Delta":589194045},{"NoteNumber":57,"Velocity":43,"Duration":130434,"SoundDuration":130434,"Delta":589291327},{"NoteNumber":69,"Velocity":54,"Duration":130434,"SoundDuration":130434,"Delta":589291327},{"NoteNumber":61,"Velocity":43,"Duration":130434,"SoundDuration":130434,"Delta":589291327},{"NoteNumber":98,"Velocity":34,"Duration":55702,"SoundDuration":55702,"Delta":589813066},{"NoteNumber":90,"Velocity":28,"Duration":55702,"SoundDuration":55702,"Delta":589813066},{"NoteNumber":97,"Velocity":35,"Duration":51196,"SoundDuration":51196,"Delta":589868769},{"NoteNumber":88,"Velocity":29,"Duration":51196,"SoundDuration":51196,"Delta":589868769},{"NoteNumber":95,"Velocity":36,"Duration":50876,"SoundDuration":50876,"Delta":589919965},{"NoteNumber":86,"Velocity":31,"Duration":50876,"SoundDuration":50876,"Delta":589919965},{"NoteNumber":93,"Velocity":37,"Duration":50647,"SoundDuration":50647,"Delta":589970842},{"NoteNumber":85,"Velocity":31,"Duration":50647,"SoundDuration":50647,"Delta":589970842},{"NoteNumber":92,"Velocity":39,"Duration":50335,"SoundDuration":50335,"Delta":590021489},{"NoteNumber":83,"Velocity":32,"Duration":50335,"SoundDuration":50335,"Delta":590021489},{"NoteNumber":90,"Velocity":40,"Duration":50083,"SoundDuration":50083,"Delta":590071825},{"NoteNumber":81,"Velocity":34,"Duration":50083,"SoundDuration":50083,"Delta":590071825},{"NoteNumber":88,"Velocity":41,"Duration":49862,"SoundDuration":49862,"Delta":590121909},{"NoteNumber":80,"Velocity":35,"Duration":49862,"SoundDuration":49862,"Delta":590121909},{"NoteNumber":86,"Velocity":43,"Duration":49641,"SoundDuration":49641,"Delta":590171771},{"NoteNumber":78,"Velocity":36,"Duration":49641,"SoundDuration":49641,"Delta":590171771},{"NoteNumber":85,"Velocity":44,"Duration":49342,"SoundDuration":49342,"Delta":590221413},{"NoteNumber":76,"Velocity":36,"Duration":49342,"SoundDuration":49342,"Delta":590221413},{"NoteNumber":83,"Velocity":45,"Duration":49100,"SoundDuration":49100,"Delta":590270755},{"NoteNumber":74,"Velocity":38,"Duration":49100,"SoundDuration":49100,"Delta":590270755},{"NoteNumber":81,"Velocity":47,"Duration":48886,"SoundDuration":48886,"Delta":590319855},{"NoteNumber":73,"Velocity":40,"Duration":48886,"SoundDuration":48886,"Delta":590319855},{"NoteNumber":80,"Velocity":48,"Duration":48966,"SoundDuration":48966,"Delta":590368742},{"NoteNumber":71,"Velocity":40,"Duration":48966,"SoundDuration":48966,"Delta":590368742},{"NoteNumber":78,"Velocity":49,"Duration":65200,"SoundDuration":65200,"Delta":590417709},{"NoteNumber":69,"Velocity":41,"Duration":48966,"SoundDuration":48966,"Delta":590417709},{"NoteNumber":68,"Velocity":41,"Duration":48701,"SoundDuration":48701,"Delta":590466675},{"NoteNumber":76,"Velocity":49,"Duration":48701,"SoundDuration":48701,"Delta":590466675},{"NoteNumber":66,"Velocity":41,"Duration":49773,"SoundDuration":49773,"Delta":590515376},{"NoteNumber":74,"Velocity":41,"Duration":49773,"SoundDuration":49773,"Delta":590515376},{"NoteNumber":45,"Velocity":41,"Duration":179162,"SoundDuration":179162,"Delta":590582839},{"NoteNumber":52,"Velocity":41,"Duration":161473,"SoundDuration":161473,"Delta":590600527},{"NoteNumber":55,"Velocity":41,"Duration":143785,"SoundDuration":143785,"Delta":590618216},{"NoteNumber":61,"Velocity":57,"Duration":126096,"SoundDuration":126096,"Delta":590635905},{"NoteNumber":69,"Velocity":43,"Duration":65241,"SoundDuration":65241,"Delta":590729655},{"NoteNumber":73,"Velocity":44,"Duration":64842,"SoundDuration":64842,"Delta":590827600},{"NoteNumber":81,"Velocity":45,"Duration":63560,"SoundDuration":63560,"Delta":590924494},{"NoteNumber":81,"Velocity":46,"Duration":62327,"SoundDuration":62327,"Delta":591019567},{"NoteNumber":59,"Velocity":54,"Duration":62327,"SoundDuration":62327,"Delta":591019567},{"NoteNumber":73,"Velocity":45,"Duration":62413,"SoundDuration":62413,"Delta":591112887},{"NoteNumber":61,"Velocity":51,"Duration":126056,"SoundDuration":126056,"Delta":591144051},{"NoteNumber":69,"Velocity":44,"Duration":63381,"SoundDuration":63381,"Delta":591206726},{"NoteNumber":61,"Velocity":44,"Duration":64864,"SoundDuration":64864,"Delta":591301977},{"NoteNumber":50,"Velocity":43,"Duration":132161,"SoundDuration":132161,"Delta":591400227},{"NoteNumber":54,"Velocity":43,"Duration":132161,"SoundDuration":132161,"Delta":591400227},{"NoteNumber":62,"Velocity":59,"Duration":132161,"SoundDuration":132161,"Delta":591400227},{"NoteNumber":69,"Velocity":43,"Duration":65503,"SoundDuration":65503,"Delta":591499493},{"NoteNumber":74,"Velocity":44,"Duration":64842,"SoundDuration":64842,"Delta":591597605},{"NoteNumber":81,"Velocity":45,"Duration":64012,"SoundDuration":64012,"Delta":591694683},{"NoteNumber":81,"Velocity":46,"Duration":63740,"SoundDuration":63740,"Delta":591790475},{"NoteNumber":64,"Velocity":50,"Duration":63740,"SoundDuration":63740,"Delta":591790475},{"NoteNumber":74,"Velocity":45,"Duration":64563,"SoundDuration":64563,"Delta":591886267},{"NoteNumber":62,"Velocity":53,"Duration":97451,"SoundDuration":97451,"Delta":591918502},{"NoteNumber":69,"Velocity":44,"Duration":65408,"SoundDuration":65408,"Delta":591983345},{"NoteNumber":62,"Velocity":44,"Duration":67503,"SoundDuration":67503,"Delta":592081648},{"NoteNumber":45,"Velocity":41,"Duration":131006,"SoundDuration":131006,"Delta":592181857},{"NoteNumber":52,"Velocity":41,"Duration":131006,"SoundDuration":131006,"Delta":592181857},{"NoteNumber":55,"Velocity":41,"Duration":131006,"SoundDuration":131006,"Delta":592181857},{"NoteNumber":61,"Velocity":56,"Duration":131006,"SoundDuration":131006,"Delta":592181857},{"NoteNumber":69,"Velocity":43,"Duration":65123,"SoundDuration":65123,"Delta":592280255},{"NoteNumber":73,"Velocity":44,"Duration":64286,"SoundDuration":64286,"Delta":592377707},{"NoteNumber":81,"Velocity":45,"Duration":63649,"SoundDuration":63649,"Delta":592474045},{"NoteNumber":81,"Velocity":46,"Duration":63025,"SoundDuration":63025,"Delta":592569296},{"NoteNumber":59,"Velocity":54,"Duration":63025,"SoundDuration":63025,"Delta":592569296},{"NoteNumber":73,"Velocity":45,"Duration":63830,"SoundDuration":63830,"Delta":592664101},{"NoteNumber":61,"Velocity":51,"Duration":128757,"SoundDuration":128757,"Delta":592695881},{"NoteNumber":69,"Velocity":44,"Duration":64655,"SoundDuration":64655,"Delta":592759984},{"NoteNumber":61,"Velocity":44,"Duration":64954,"SoundDuration":64954,"Delta":592856966},{"NoteNumber":50,"Velocity":43,"Duration":130434,"SoundDuration":130434,"Delta":592954249},{"NoteNumber":54,"Velocity":43,"Duration":130434,"SoundDuration":130434,"Delta":592954249},{"NoteNumber":62,"Velocity":59,"Duration":130434,"SoundDuration":130434,"Delta":592954249},{"NoteNumber":69,"Velocity":33,"Duration":54347,"SoundDuration":54347,"Delta":593490882},{"NoteNumber":66,"Velocity":27,"Duration":54347,"SoundDuration":54347,"Delta":593490882},{"NoteNumber":70,"Velocity":34,"Duration":53931,"SoundDuration":53931,"Delta":593545230},{"NoteNumber":67,"Velocity":28,"Duration":53931,"SoundDuration":53931,"Delta":593545230},{"NoteNumber":71,"Velocity":36,"Duration":53571,"SoundDuration":53571,"Delta":593599161},{"NoteNumber":68,"Velocity":30,"Duration":53571,"SoundDuration":53571,"Delta":593599161},{"NoteNumber":72,"Velocity":36,"Duration":53166,"SoundDuration":53166,"Delta":593652732},{"NoteNumber":69,"Velocity":30,"Duration":53166,"SoundDuration":53166,"Delta":593652732},{"NoteNumber":73,"Velocity":38,"Duration":52816,"SoundDuration":52816,"Delta":593705899},{"NoteNumber":70,"Velocity":32,"Duration":52816,"SoundDuration":52816,"Delta":593705899},{"NoteNumber":74,"Velocity":39,"Duration":52423,"SoundDuration":52423,"Delta":593758716},{"NoteNumber":71,"Velocity":33,"Duration":52423,"SoundDuration":52423,"Delta":593758716},{"NoteNumber":75,"Velocity":41,"Duration":52083,"SoundDuration":52083,"Delta":593811139},{"NoteNumber":72,"Velocity":35,"Duration":52083,"SoundDuration":52083,"Delta":593811139},{"NoteNumber":76,"Velocity":42,"Duration":51700,"SoundDuration":51700,"Delta":593863222},{"NoteNumber":73,"Velocity":35,"Duration":51700,"SoundDuration":51700,"Delta":593863222},{"NoteNumber":77,"Velocity":44,"Duration":51369,"SoundDuration":51369,"Delta":593914923},{"NoteNumber":74,"Velocity":36,"Duration":51369,"SoundDuration":51369,"Delta":593914923},{"NoteNumber":78,"Velocity":45,"Duration":50997,"SoundDuration":50997,"Delta":593966293},{"NoteNumber":75,"Velocity":37,"Duration":50997,"SoundDuration":50997,"Delta":593966293},{"NoteNumber":79,"Velocity":46,"Duration":50630,"SoundDuration":50630,"Delta":594017290},{"NoteNumber":76,"Velocity":39,"Duration":50630,"SoundDuration":50630,"Delta":594017290},{"NoteNumber":80,"Velocity":47,"Duration":50313,"SoundDuration":50313,"Delta":594067920},{"NoteNumber":77,"Velocity":40,"Duration":50313,"SoundDuration":50313,"Delta":594067920},{"NoteNumber":81,"Velocity":49,"Duration":49955,"SoundDuration":49955,"Delta":594118234},{"NoteNumber":78,"Velocity":41,"Duration":49955,"SoundDuration":49955,"Delta":594118234},{"NoteNumber":82,"Velocity":50,"Duration":49647,"SoundDuration":49647,"Delta":594168189},{"NoteNumber":79,"Velocity":42,"Duration":49647,"SoundDuration":49647,"Delta":594168189},{"NoteNumber":83,"Velocity":52,"Duration":49299,"SoundDuration":49299,"Delta":594217837},{"NoteNumber":80,"Velocity":44,"Duration":49299,"SoundDuration":49299,"Delta":594217837},{"NoteNumber":84,"Velocity":53,"Duration":48977,"SoundDuration":48977,"Delta":594267136},{"NoteNumber":81,"Velocity":45,"Duration":48977,"SoundDuration":48977,"Delta":594267136},{"NoteNumber":85,"Velocity":54,"Duration":48894,"SoundDuration":48894,"Delta":594316113},{"NoteNumber":82,"Velocity":45,"Duration":48894,"SoundDuration":48894,"Delta":594316113},{"NoteNumber":86,"Velocity":55,"Duration":50136,"SoundDuration":50136,"Delta":594365007},{"NoteNumber":83,"Velocity":46,"Duration":50136,"SoundDuration":50136,"Delta":594365007},{"NoteNumber":87,"Velocity":57,"Duration":51419,"SoundDuration":51419,"Delta":594415144},{"NoteNumber":84,"Velocity":48,"Duration":51419,"SoundDuration":51419,"Delta":594415144},{"NoteNumber":88,"Velocity":58,"Duration":52620,"SoundDuration":52620,"Delta":594466564},{"NoteNumber":85,"Velocity":49,"Duration":52620,"SoundDuration":52620,"Delta":594466564},{"NoteNumber":90,"Velocity":60,"Duration":248137,"SoundDuration":248137,"Delta":594519184},{"NoteNumber":86,"Velocity":50,"Duration":248137,"SoundDuration":248137,"Delta":594519184},{"NoteNumber":40,"Velocity":43,"Duration":271050,"SoundDuration":271050,"Delta":595461766},{"NoteNumber":49,"Velocity":43,"Duration":201605,"SoundDuration":201605,"Delta":595531211},{"NoteNumber":57,"Velocity":55,"Duration":132161,"SoundDuration":132161,"Delta":595600655},{"NoteNumber":64,"Velocity":43,"Duration":65503,"SoundDuration":65503,"Delta":595699922},{"NoteNumber":69,"Velocity":44,"Duration":64842,"SoundDuration":64842,"Delta":595798034},{"NoteNumber":76,"Velocity":45,"Duration":64012,"SoundDuration":64012,"Delta":595895112},{"NoteNumber":76,"Velocity":46,"Duration":63740,"SoundDuration":63740,"Delta":595990904},{"NoteNumber":59,"Velocity":50,"Duration":63740,"SoundDuration":63740,"Delta":595990904},{"NoteNumber":69,"Velocity":45,"Duration":64563,"SoundDuration":64563,"Delta":596086695},{"NoteNumber":57,"Velocity":53,"Duration":97451,"SoundDuration":97451,"Delta":596118931},{"NoteNumber":64,"Velocity":44,"Duration":65408,"SoundDuration":65408,"Delta":596183773},{"NoteNumber":57,"Velocity":44,"Duration":67503,"SoundDuration":67503,"Delta":596282076},{"NoteNumber":40,"Velocity":41,"Duration":181310,"SoundDuration":181310,"Delta":596331982},{"NoteNumber":47,"Velocity":41,"Duration":163712,"SoundDuration":163712,"Delta":596349580},{"NoteNumber":50,"Velocity":41,"Duration":147454,"SoundDuration":147454,"Delta":596365838},{"NoteNumber":56,"Velocity":54,"Duration":131006,"SoundDuration":131006,"Delta":596382286},{"NoteNumber":64,"Velocity":43,"Duration":65123,"SoundDuration":65123,"Delta":596480684},{"NoteNumber":68,"Velocity":44,"Duration":64286,"SoundDuration":64286,"Delta":596578135},{"NoteNumber":76,"Velocity":45,"Duration":63649,"SoundDuration":63649,"Delta":596674473},{"NoteNumber":76,"Velocity":46,"Duration":63025,"SoundDuration":63025,"Delta":596769725},{"NoteNumber":54,"Velocity":54,"Duration":63025,"SoundDuration":63025,"Delta":596769725},{"NoteNumber":68,"Velocity":45,"Duration":63830,"SoundDuration":63830,"Delta":596864530},{"NoteNumber":56,"Velocity":51,"Duration":128757,"SoundDuration":128757,"Delta":596896309},{"NoteNumber":64,"Velocity":44,"Duration":64655,"SoundDuration":64655,"Delta":596960412},{"NoteNumber":56,"Velocity":44,"Duration":64954,"SoundDuration":64954,"Delta":597057395},{"NoteNumber":45,"Velocity":43,"Duration":148514,"SoundDuration":148514,"Delta":597154677},{"NoteNumber":49,"Velocity":43,"Duration":148514,"SoundDuration":148514,"Delta":597154677},{"NoteNumber":57,"Velocity":55,"Duration":148514,"SoundDuration":148514,"Delta":597154677},{"NoteNumber":98,"Velocity":33,"Duration":54347,"SoundDuration":54347,"Delta":597778087},{"NoteNumber":90,"Velocity":27,"Duration":54347,"SoundDuration":54347,"Delta":597778087},{"NoteNumber":97,"Velocity":34,"Duration":53931,"SoundDuration":53931,"Delta":597832435},{"NoteNumber":89,"Velocity":28,"Duration":53931,"SoundDuration":53931,"Delta":597832435},{"NoteNumber":96,"Velocity":36,"Duration":53571,"SoundDuration":53571,"Delta":597886366},{"NoteNumber":88,"Velocity":30,"Duration":53571,"SoundDuration":53571,"Delta":597886366},{"NoteNumber":95,"Velocity":36,"Duration":53166,"SoundDuration":53166,"Delta":597939937},{"NoteNumber":87,"Velocity":30,"Duration":53166,"SoundDuration":53166,"Delta":597939937},{"NoteNumber":94,"Velocity":38,"Duration":52816,"SoundDuration":52816,"Delta":597993104},{"NoteNumber":86,"Velocity":32,"Duration":52816,"SoundDuration":52816,"Delta":597993104},{"NoteNumber":93,"Velocity":39,"Duration":52423,"SoundDuration":52423,"Delta":598045921},{"NoteNumber":85,"Velocity":33,"Duration":52423,"SoundDuration":52423,"Delta":598045921},{"NoteNumber":92,"Velocity":41,"Duration":52083,"SoundDuration":52083,"Delta":598098344},{"NoteNumber":84,"Velocity":35,"Duration":52083,"SoundDuration":52083,"Delta":598098344},{"NoteNumber":91,"Velocity":42,"Duration":51700,"SoundDuration":51700,"Delta":598150427},{"NoteNumber":83,"Velocity":35,"Duration":51700,"SoundDuration":51700,"Delta":598150427},{"NoteNumber":90,"Velocity":44,"Duration":51369,"SoundDuration":51369,"Delta":598202128},{"NoteNumber":82,"Velocity":36,"Duration":51369,"SoundDuration":51369,"Delta":598202128},{"NoteNumber":89,"Velocity":45,"Duration":50997,"SoundDuration":50997,"Delta":598253498},{"NoteNumber":81,"Velocity":37,"Duration":50997,"SoundDuration":50997,"Delta":598253498},{"NoteNumber":88,"Velocity":46,"Duration":50630,"SoundDuration":50630,"Delta":598304495},{"NoteNumber":80,"Velocity":39,"Duration":50630,"SoundDuration":50630,"Delta":598304495},{"NoteNumber":87,"Velocity":47,"Duration":50313,"SoundDuration":50313,"Delta":598355125},{"NoteNumber":79,"Velocity":40,"Duration":50313,"SoundDuration":50313,"Delta":598355125},{"NoteNumber":86,"Velocity":49,"Duration":49955,"SoundDuration":49955,"Delta":598405439},{"NoteNumber":78,"Velocity":41,"Duration":49955,"SoundDuration":49955,"Delta":598405439},{"NoteNumber":85,"Velocity":50,"Duration":49647,"SoundDuration":49647,"Delta":598455394},{"NoteNumber":77,"Velocity":42,"Duration":49647,"SoundDuration":49647,"Delta":598455394},{"NoteNumber":84,"Velocity":52,"Duration":49299,"SoundDuration":49299,"Delta":598505042},{"NoteNumber":76,"Velocity":44,"Duration":49299,"SoundDuration":49299,"Delta":598505042},{"NoteNumber":83,"Velocity":53,"Duration":48945,"SoundDuration":48945,"Delta":598554341},{"NoteNumber":75,"Velocity":45,"Duration":48945,"SoundDuration":48945,"Delta":598554341},{"NoteNumber":74,"Velocity":45,"Duration":48701,"SoundDuration":48701,"Delta":598603286},{"NoteNumber":82,"Velocity":54,"Duration":48701,"SoundDuration":48701,"Delta":598603286},{"NoteNumber":73,"Velocity":45,"Duration":48502,"SoundDuration":48502,"Delta":598651987},{"NoteNumber":81,"Velocity":54,"Duration":48502,"SoundDuration":48502,"Delta":598651987},{"NoteNumber":72,"Velocity":46,"Duration":48278,"SoundDuration":48278,"Delta":598700490},{"NoteNumber":80,"Velocity":55,"Duration":48278,"SoundDuration":48278,"Delta":598700490},{"NoteNumber":71,"Velocity":48,"Duration":48343,"SoundDuration":48343,"Delta":598748768},{"NoteNumber":79,"Velocity":57,"Duration":48343,"SoundDuration":48343,"Delta":598748768},{"NoteNumber":70,"Velocity":49,"Duration":42370,"SoundDuration":42370,"Delta":598797112},{"NoteNumber":78,"Velocity":58,"Duration":42370,"SoundDuration":42370,"Delta":598797112},{"NoteNumber":69,"Velocity":49,"Duration":43921,"SoundDuration":43921,"Delta":598839482},{"NoteNumber":77,"Velocity":58,"Duration":43921,"SoundDuration":43921,"Delta":598839482},{"NoteNumber":68,"Velocity":48,"Duration":45650,"SoundDuration":45650,"Delta":598883403},{"NoteNumber":76,"Velocity":57,"Duration":45650,"SoundDuration":45650,"Delta":598883403},{"NoteNumber":66,"Velocity":50,"Duration":48801,"SoundDuration":48801,"Delta":598929054},{"NoteNumber":75,"Velocity":59,"Duration":48801,"SoundDuration":48801,"Delta":598929054},{"NoteNumber":65,"Velocity":51,"Duration":86364,"SoundDuration":86364,"Delta":598977855},{"NoteNumber":74,"Velocity":61,"Duration":86364,"SoundDuration":86364,"Delta":598977855},{"NoteNumber":76,"Velocity":72,"Duration":76449,"SoundDuration":76449,"Delta":599064220},{"NoteNumber":64,"Velocity":58,"Duration":76449,"SoundDuration":76449,"Delta":599064220},{"NoteNumber":73,"Velocity":59,"Duration":76449,"SoundDuration":76449,"Delta":599064220},{"NoteNumber":73,"Velocity":65,"Duration":262221,"SoundDuration":262221,"Delta":599429286},{"NoteNumber":69,"Velocity":55,"Duration":262221,"SoundDuration":262221,"Delta":599429286},{"NoteNumber":61,"Velocity":55,"Duration":132161,"SoundDuration":132161,"Delta":599429286},{"NoteNumber":57,"Velocity":58,"Duration":132161,"SoundDuration":132161,"Delta":599429286},{"NoteNumber":40,"Velocity":49,"Duration":132161,"SoundDuration":132161,"Delta":599429286},{"NoteNumber":49,"Velocity":49,"Duration":132161,"SoundDuration":132161,"Delta":599429286},{"NoteNumber":64,"Velocity":47,"Duration":130059,"SoundDuration":130059,"Delta":599561447},{"NoteNumber":73,"Velocity":52,"Duration":128027,"SoundDuration":128027,"Delta":599691507},{"NoteNumber":69,"Velocity":44,"Duration":128027,"SoundDuration":128027,"Delta":599691507},{"NoteNumber":76,"Velocity":55,"Duration":128027,"SoundDuration":128027,"Delta":599819534},{"NoteNumber":62,"Velocity":47,"Duration":63740,"SoundDuration":63740,"Delta":599819534},{"NoteNumber":59,"Velocity":40,"Duration":63740,"SoundDuration":63740,"Delta":599819534},{"NoteNumber":85,"Velocity":59,"Duration":132828,"SoundDuration":132828,"Delta":599947561},{"NoteNumber":81,"Velocity":50,"Duration":132828,"SoundDuration":132828,"Delta":599947561},{"NoteNumber":61,"Velocity":51,"Duration":98839,"SoundDuration":98839,"Delta":599947561},{"NoteNumber":57,"Velocity":43,"Duration":98839,"SoundDuration":98839,"Delta":599947561},{"NoteNumber":83,"Velocity":64,"Duration":260136,"SoundDuration":260136,"Delta":600219883},{"NoteNumber":80,"Velocity":54,"Duration":260136,"SoundDuration":260136,"Delta":600219883},{"NoteNumber":71,"Velocity":54,"Duration":131006,"SoundDuration":131006,"Delta":600219883},{"NoteNumber":59,"Velocity":54,"Duration":131006,"SoundDuration":131006,"Delta":600219883},{"NoteNumber":52,"Velocity":45,"Duration":131006,"SoundDuration":131006,"Delta":600219883},{"NoteNumber":56,"Velocity":45,"Duration":131006,"SoundDuration":131006,"Delta":600219883},{"NoteNumber":76,"Velocity":52,"Duration":129129,"SoundDuration":129129,"Delta":600350890},{"NoteNumber":83,"Velocity":54,"Duration":127302,"SoundDuration":127302,"Delta":600480019},{"NoteNumber":80,"Velocity":45,"Duration":127302,"SoundDuration":127302,"Delta":600480019},{"NoteNumber":76,"Velocity":57,"Duration":126584,"SoundDuration":126584,"Delta":600607322},{"NoteNumber":57,"Velocity":50,"Duration":63025,"SoundDuration":63025,"Delta":600607322},{"NoteNumber":54,"Velocity":42,"Duration":63025,"SoundDuration":63025,"Delta":600607322},{"NoteNumber":95,"Velocity":61,"Duration":128757,"SoundDuration":128757,"Delta":600733906},{"NoteNumber":92,"Velocity":51,"Duration":128757,"SoundDuration":128757,"Delta":600733906},{"NoteNumber":59,"Velocity":52,"Duration":128757,"SoundDuration":128757,"Delta":600733906},{"NoteNumber":56,"Velocity":44,"Duration":128757,"SoundDuration":128757,"Delta":600733906},{"NoteNumber":45,"Velocity":55,"Duration":197127,"SoundDuration":197127,"Delta":600943661},{"NoteNumber":52,"Velocity":55,"Duration":180842,"SoundDuration":180842,"Delta":600959947},{"NoteNumber":57,"Velocity":55,"Duration":164678,"SoundDuration":164678,"Delta":600976110},{"NoteNumber":97,"Velocity":73,"Duration":148514,"SoundDuration":148514,"Delta":600992274},{"NoteNumber":93,"Velocity":63,"Duration":148514,"SoundDuration":148514,"Delta":600992274},{"NoteNumber":85,"Velocity":60,"Duration":148514,"SoundDuration":148514,"Delta":600992274},{"NoteNumber":61,"Velocity":55,"Duration":148514,"SoundDuration":148514,"Delta":600992274},{"NoteNumber":100,"Velocity":33,"Duration":54347,"SoundDuration":54347,"Delta":601585006},{"NoteNumber":97,"Velocity":27,"Duration":54347,"SoundDuration":54347,"Delta":601585006},{"NoteNumber":33,"Velocity":31,"Duration":54347,"SoundDuration":54347,"Delta":601585006},{"NoteNumber":95,"Velocity":34,"Duration":53931,"SoundDuration":53931,"Delta":601639354},{"NoteNumber":35,"Velocity":32,"Duration":53931,"SoundDuration":53931,"Delta":601639354},{"NoteNumber":93,"Velocity":36,"Duration":53571,"SoundDuration":53571,"Delta":601693285},{"NoteNumber":37,"Velocity":33,"Duration":53571,"SoundDuration":53571,"Delta":601693285},{"NoteNumber":92,"Velocity":36,"Duration":53166,"SoundDuration":53166,"Delta":601746856},{"NoteNumber":38,"Velocity":34,"Duration":53166,"SoundDuration":53166,"Delta":601746856},{"NoteNumber":90,"Velocity":38,"Duration":52816,"SoundDuration":52816,"Delta":601800023},{"NoteNumber":40,"Velocity":35,"Duration":52816,"SoundDuration":52816,"Delta":601800023},{"NoteNumber":88,"Velocity":39,"Duration":52423,"SoundDuration":52423,"Delta":601852840},{"NoteNumber":42,"Velocity":36,"Duration":52423,"SoundDuration":52423,"Delta":601852840},{"NoteNumber":86,"Velocity":41,"Duration":52083,"SoundDuration":52083,"Delta":601905263},{"NoteNumber":44,"Velocity":37,"Duration":52083,"SoundDuration":52083,"Delta":601905263},{"NoteNumber":85,"Velocity":42,"Duration":51700,"SoundDuration":51700,"Delta":601957346},{"NoteNumber":45,"Velocity":38,"Duration":51700,"SoundDuration":51700,"Delta":601957346},{"NoteNumber":83,"Velocity":44,"Duration":51369,"SoundDuration":51369,"Delta":602009047},{"NoteNumber":47,"Velocity":39,"Duration":51369,"SoundDuration":51369,"Delta":602009047},{"NoteNumber":81,"Velocity":45,"Duration":50997,"SoundDuration":50997,"Delta":602060417},{"NoteNumber":49,"Velocity":40,"Duration":50997,"SoundDuration":50997,"Delta":602060417},{"NoteNumber":80,"Velocity":46,"Duration":50630,"SoundDuration":50630,"Delta":602111414},{"NoteNumber":50,"Velocity":41,"Duration":50630,"SoundDuration":50630,"Delta":602111414},{"NoteNumber":78,"Velocity":47,"Duration":50313,"SoundDuration":50313,"Delta":602162044},{"NoteNumber":52,"Velocity":43,"Duration":50313,"SoundDuration":50313,"Delta":602162044},{"NoteNumber":76,"Velocity":49,"Duration":49955,"SoundDuration":49955,"Delta":602212358},{"NoteNumber":54,"Velocity":44,"Duration":49955,"SoundDuration":49955,"Delta":602212358},{"NoteNumber":74,"Velocity":50,"Duration":49647,"SoundDuration":49647,"Delta":602262314},{"NoteNumber":56,"Velocity":45,"Duration":49647,"SoundDuration":49647,"Delta":602262314},{"NoteNumber":73,"Velocity":52,"Duration":49299,"SoundDuration":49299,"Delta":602311961},{"NoteNumber":57,"Velocity":45,"Duration":49299,"SoundDuration":49299,"Delta":602311961},{"NoteNumber":71,"Velocity":53,"Duration":47226,"SoundDuration":47226,"Delta":602361260},{"NoteNumber":59,"Velocity":46,"Duration":47226,"SoundDuration":47226,"Delta":602361260},{"NoteNumber":69,"Velocity":54,"Duration":50213,"SoundDuration":50213,"Delta":602408486},{"NoteNumber":61,"Velocity":47,"Duration":50213,"SoundDuration":50213,"Delta":602408486},{"NoteNumber":68,"Velocity":55,"Duration":51556,"SoundDuration":51556,"Delta":602458699},{"NoteNumber":62,"Velocity":49,"Duration":51556,"SoundDuration":51556,"Delta":602458699},{"NoteNumber":66,"Velocity":57,"Duration":117095,"SoundDuration":117095,"Delta":602510255},{"NoteNumber":63,"Velocity":51,"Duration":117095,"SoundDuration":117095,"Delta":602510255},{"NoteNumber":64,"Velocity":55,"Duration":79661,"SoundDuration":79661,"Delta":602627351},{"NoteNumber":73,"Velocity":57,"Duration":79661,"SoundDuration":79661,"Delta":602627351},{"NoteNumber":76,"Velocity":70,"Duration":79661,"SoundDuration":79661,"Delta":602627351},{"NoteNumber":73,"Velocity":65,"Duration":262221,"SoundDuration":262221,"Delta":602969279},{"NoteNumber":69,"Velocity":55,"Duration":262221,"SoundDuration":262221,"Delta":602969279},{"NoteNumber":61,"Velocity":55,"Duration":132161,"SoundDuration":132161,"Delta":602969279},{"NoteNumber":57,"Velocity":58,"Duration":132161,"SoundDuration":132161,"Delta":602969279},{"NoteNumber":40,"Velocity":49,"Duration":132161,"SoundDuration":132161,"Delta":602969279},{"NoteNumber":49,"Velocity":49,"Duration":132161,"SoundDuration":132161,"Delta":602969279},{"NoteNumber":64,"Velocity":47,"Duration":130059,"SoundDuration":130059,"Delta":603101440},{"NoteNumber":73,"Velocity":52,"Duration":128027,"SoundDuration":128027,"Delta":603231500},{"NoteNumber":69,"Velocity":44,"Duration":128027,"SoundDuration":128027,"Delta":603231500},{"NoteNumber":76,"Velocity":55,"Duration":128027,"SoundDuration":128027,"Delta":603359527},{"NoteNumber":62,"Velocity":47,"Duration":63740,"SoundDuration":63740,"Delta":603359527},{"NoteNumber":59,"Velocity":40,"Duration":63740,"SoundDuration":63740,"Delta":603359527},{"NoteNumber":85,"Velocity":59,"Duration":131753,"SoundDuration":131753,"Delta":603487555},{"NoteNumber":81,"Velocity":50,"Duration":131753,"SoundDuration":131753,"Delta":603487555},{"NoteNumber":61,"Velocity":51,"Duration":98290,"SoundDuration":98290,"Delta":603487555},{"NoteNumber":57,"Velocity":43,"Duration":98290,"SoundDuration":98290,"Delta":603487555},{"NoteNumber":83,"Velocity":64,"Duration":264440,"SoundDuration":264440,"Delta":603756529},{"NoteNumber":80,"Velocity":54,"Duration":264440,"SoundDuration":264440,"Delta":603756529},{"NoteNumber":71,"Velocity":54,"Duration":135310,"SoundDuration":135310,"Delta":603756529},{"NoteNumber":59,"Velocity":54,"Duration":135310,"SoundDuration":135310,"Delta":603756529},{"NoteNumber":52,"Velocity":45,"Duration":135310,"SoundDuration":135310,"Delta":603756529},{"NoteNumber":56,"Velocity":45,"Duration":135310,"SoundDuration":135310,"Delta":603756529},{"NoteNumber":76,"Velocity":52,"Duration":129129,"SoundDuration":129129,"Delta":603891839},{"NoteNumber":83,"Velocity":54,"Duration":127302,"SoundDuration":127302,"Delta":604020969},{"NoteNumber":80,"Velocity":45,"Duration":127302,"SoundDuration":127302,"Delta":604020969},{"NoteNumber":76,"Velocity":57,"Duration":126584,"SoundDuration":126584,"Delta":604148272},{"NoteNumber":57,"Velocity":50,"Duration":63025,"SoundDuration":63025,"Delta":604148272},{"NoteNumber":54,"Velocity":42,"Duration":63025,"SoundDuration":63025,"Delta":604148272},{"NoteNumber":95,"Velocity":61,"Duration":128757,"SoundDuration":128757,"Delta":604274856},{"NoteNumber":92,"Velocity":51,"Duration":128757,"SoundDuration":128757,"Delta":604274856},{"NoteNumber":59,"Velocity":52,"Duration":128757,"SoundDuration":128757,"Delta":604274856},{"NoteNumber":56,"Velocity":44,"Duration":128757,"SoundDuration":128757,"Delta":604274856},{"NoteNumber":45,"Velocity":55,"Duration":197127,"SoundDuration":197127,"Delta":604484611},{"NoteNumber":52,"Velocity":55,"Duration":180842,"SoundDuration":180842,"Delta":604500897},{"NoteNumber":57,"Velocity":55,"Duration":164678,"SoundDuration":164678,"Delta":604517060},{"NoteNumber":97,"Velocity":73,"Duration":148514,"SoundDuration":148514,"Delta":604533224},{"NoteNumber":93,"Velocity":63,"Duration":148514,"SoundDuration":148514,"Delta":604533224},{"NoteNumber":85,"Velocity":60,"Duration":148514,"SoundDuration":148514,"Delta":604533224},{"NoteNumber":61,"Velocity":55,"Duration":148514,"SoundDuration":148514,"Delta":604533224},{"NoteNumber":75,"Velocity":43,"Duration":54347,"SoundDuration":54347,"Delta":605125956},{"NoteNumber":66,"Velocity":36,"Duration":54347,"SoundDuration":54347,"Delta":605125956},{"NoteNumber":76,"Velocity":45,"Duration":53931,"SoundDuration":53931,"Delta":605180304},{"NoteNumber":64,"Velocity":36,"Duration":53931,"SoundDuration":53931,"Delta":605180304},{"NoteNumber":78,"Velocity":46,"Duration":53571,"SoundDuration":53571,"Delta":605234235},{"NoteNumber":62,"Velocity":37,"Duration":53571,"SoundDuration":53571,"Delta":605234235},{"NoteNumber":80,"Velocity":48,"Duration":53166,"SoundDuration":53166,"Delta":605287806},{"NoteNumber":61,"Velocity":38,"Duration":53166,"SoundDuration":53166,"Delta":605287806},{"NoteNumber":81,"Velocity":50,"Duration":52816,"SoundDuration":52816,"Delta":605340973},{"NoteNumber":59,"Velocity":40,"Duration":52816,"SoundDuration":52816,"Delta":605340973},{"NoteNumber":83,"Velocity":51,"Duration":52423,"SoundDuration":52423,"Delta":605393790},{"NoteNumber":57,"Velocity":41,"Duration":52423,"SoundDuration":52423,"Delta":605393790},{"NoteNumber":85,"Velocity":53,"Duration":52083,"SoundDuration":52083,"Delta":605446213},{"NoteNumber":56,"Velocity":42,"Duration":52083,"SoundDuration":52083,"Delta":605446213},{"NoteNumber":86,"Velocity":54,"Duration":51700,"SoundDuration":51700,"Delta":605498296},{"NoteNumber":54,"Velocity":43,"Duration":51700,"SoundDuration":51700,"Delta":605498296},{"NoteNumber":88,"Velocity":56,"Duration":51369,"SoundDuration":51369,"Delta":605549997},{"NoteNumber":52,"Velocity":44,"Duration":51369,"SoundDuration":51369,"Delta":605549997},{"NoteNumber":90,"Velocity":58,"Duration":50997,"SoundDuration":50997,"Delta":605601367},{"NoteNumber":50,"Velocity":45,"Duration":50997,"SoundDuration":50997,"Delta":605601367},{"NoteNumber":92,"Velocity":60,"Duration":50630,"SoundDuration":50630,"Delta":605652364},{"NoteNumber":49,"Velocity":45,"Duration":50630,"SoundDuration":50630,"Delta":605652364},{"NoteNumber":93,"Velocity":62,"Duration":49025,"SoundDuration":49025,"Delta":605702994},{"NoteNumber":47,"Velocity":46,"Duration":49025,"SoundDuration":49025,"Delta":605702994},{"NoteNumber":95,"Velocity":63,"Duration":50249,"SoundDuration":50249,"Delta":605752020},{"NoteNumber":45,"Velocity":47,"Duration":50249,"SoundDuration":50249,"Delta":605752020},{"NoteNumber":97,"Velocity":65,"Duration":5091,"SoundDuration":5091,"Delta":605802269},{"NoteNumber":44,"Velocity":49,"Duration":51677,"SoundDuration":51677,"Delta":605802269},{"NoteNumber":98,"Velocity":68,"Duration":108225,"SoundDuration":108225,"Delta":605853947},{"NoteNumber":42,"Velocity":50,"Duration":108225,"SoundDuration":108225,"Delta":605853947},{"NoteNumber":97,"Velocity":84,"Duration":86206,"SoundDuration":86206,"Delta":605962172},{"NoteNumber":100,"Velocity":84,"Duration":86206,"SoundDuration":86206,"Delta":605962172},{"NoteNumber":88,"Velocity":71,"Duration":86206,"SoundDuration":86206,"Delta":605962172},{"NoteNumber":52,"Velocity":63,"Duration":86206,"SoundDuration":86206,"Delta":605962172},{"NoteNumber":40,"Velocity":53,"Duration":86206,"SoundDuration":86206,"Delta":605962172},{"NoteNumber":49,"Velocity":53,"Duration":86206,"SoundDuration":86206,"Delta":605962172},{"NoteNumber":88,"Velocity":73,"Duration":153358,"SoundDuration":153358,"Delta":606306471},{"NoteNumber":100,"Velocity":87,"Duration":153358,"SoundDuration":153358,"Delta":606306471},{"NoteNumber":93,"Velocity":73,"Duration":153358,"SoundDuration":153358,"Delta":606306471},{"NoteNumber":97,"Velocity":73,"Duration":153358,"SoundDuration":153358,"Delta":606306471},{"NoteNumber":40,"Velocity":58,"Duration":153358,"SoundDuration":153358,"Delta":606306471},{"NoteNumber":49,"Velocity":58,"Duration":153358,"SoundDuration":153358,"Delta":606306471},{"NoteNumber":52,"Velocity":69,"Duration":153358,"SoundDuration":153358,"Delta":606306471},{"NoteNumber":45,"Velocity":58,"Duration":153358,"SoundDuration":153358,"Delta":606306471},{"NoteNumber":100,"Velocity":81,"Duration":72815,"SoundDuration":72815,"Delta":606751091},{"NoteNumber":95,"Velocity":68,"Duration":72815,"SoundDuration":72815,"Delta":606751091},{"NoteNumber":98,"Velocity":81,"Duration":72815,"SoundDuration":72815,"Delta":606751091},{"NoteNumber":88,"Velocity":68,"Duration":72815,"SoundDuration":72815,"Delta":606751091},{"NoteNumber":52,"Velocity":66,"Duration":72815,"SoundDuration":72815,"Delta":606751091},{"NoteNumber":40,"Velocity":56,"Duration":72815,"SoundDuration":72815,"Delta":606751091},{"NoteNumber":47,"Velocity":56,"Duration":72815,"SoundDuration":72815,"Delta":606751091},{"NoteNumber":50,"Velocity":56,"Duration":72815,"SoundDuration":72815,"Delta":606751091},{"NoteNumber":88,"Velocity":69,"Duration":170138,"SoundDuration":170138,"Delta":606897374},{"NoteNumber":97,"Velocity":69,"Duration":170138,"SoundDuration":170138,"Delta":606897374},{"NoteNumber":100,"Velocity":82,"Duration":170138,"SoundDuration":170138,"Delta":606897374},{"NoteNumber":93,"Velocity":69,"Duration":170138,"SoundDuration":170138,"Delta":606897374},{"NoteNumber":52,"Velocity":66,"Duration":128117,"SoundDuration":128117,"Delta":606897374},{"NoteNumber":40,"Velocity":56,"Duration":128117,"SoundDuration":128117,"Delta":606897374},{"NoteNumber":45,"Velocity":56,"Duration":85411,"SoundDuration":85411,"Delta":606897374},{"NoteNumber":49,"Velocity":56,"Duration":128117,"SoundDuration":128117,"Delta":606897374},{"NoteNumber":88,"Velocity":72,"Duration":145630,"SoundDuration":145630,"Delta":607213144},{"NoteNumber":92,"Velocity":72,"Duration":145630,"SoundDuration":145630,"Delta":607213144},{"NoteNumber":100,"Velocity":86,"Duration":145630,"SoundDuration":145630,"Delta":607213144},{"NoteNumber":95,"Velocity":72,"Duration":145630,"SoundDuration":145630,"Delta":607213144},{"NoteNumber":40,"Velocity":60,"Duration":145630,"SoundDuration":145630,"Delta":607213144},{"NoteNumber":52,"Velocity":71,"Duration":145630,"SoundDuration":145630,"Delta":607213144},{"NoteNumber":47,"Velocity":60,"Duration":145630,"SoundDuration":145630,"Delta":607213144},{"NoteNumber":44,"Velocity":60,"Duration":145630,"SoundDuration":145630,"Delta":607213144},{"NoteNumber":90,"Velocity":68,"Duration":72815,"SoundDuration":72815,"Delta":607650037},{"NoteNumber":88,"Velocity":68,"Duration":72815,"SoundDuration":72815,"Delta":607650037},{"NoteNumber":93,"Velocity":68,"Duration":72815,"SoundDuration":72815,"Delta":607650037},{"NoteNumber":100,"Velocity":81,"Duration":72815,"SoundDuration":72815,"Delta":607650037},{"NoteNumber":52,"Velocity":63,"Duration":72815,"SoundDuration":72815,"Delta":607650037},{"NoteNumber":40,"Velocity":52,"Duration":72815,"SoundDuration":72815,"Delta":607650037},{"NoteNumber":42,"Velocity":52,"Duration":72815,"SoundDuration":72815,"Delta":607650037},{"NoteNumber":45,"Velocity":52,"Duration":72815,"SoundDuration":72815,"Delta":607650037},{"NoteNumber":100,"Velocity":81,"Duration":168900,"SoundDuration":168900,"Delta":607796259},{"NoteNumber":88,"Velocity":68,"Duration":168900,"SoundDuration":168900,"Delta":607796259},{"NoteNumber":92,"Velocity":68,"Duration":168900,"SoundDuration":168900,"Delta":607796259},{"NoteNumber":95,"Velocity":68,"Duration":168900,"SoundDuration":168900,"Delta":607796259},{"NoteNumber":40,"Velocity":52,"Duration":168900,"SoundDuration":168900,"Delta":607796259},{"NoteNumber":52,"Velocity":63,"Duration":168900,"SoundDuration":168900,"Delta":607796259},{"NoteNumber":47,"Velocity":52,"Duration":168900,"SoundDuration":168900,"Delta":607796259},{"NoteNumber":44,"Velocity":52,"Duration":168900,"SoundDuration":168900,"Delta":607796259},{"NoteNumber":97,"Velocity":72,"Duration":598802,"SoundDuration":598802,"Delta":608133648},{"NoteNumber":93,"Velocity":72,"Duration":598802,"SoundDuration":598802,"Delta":608133648},{"NoteNumber":100,"Velocity":85,"Duration":598802,"SoundDuration":598802,"Delta":608133648},{"NoteNumber":88,"Velocity":72,"Duration":598802,"SoundDuration":598802,"Delta":608133648},{"NoteNumber":45,"Velocity":66,"Duration":586403,"SoundDuration":586403,"Delta":608133648},{"NoteNumber":40,"Velocity":56,"Duration":598802,"SoundDuration":598802,"Delta":608133648},{"NoteNumber":37,"Velocity":56,"Duration":598802,"SoundDuration":598802,"Delta":608133648},{"NoteNumber":33,"Velocity":56,"Duration":598802,"SoundDuration":598802,"Delta":608133648},{"NoteNumber":71,"Velocity":45,"Duration":75000,"SoundDuration":75000,"Delta":609198289},{"NoteNumber":68,"Velocity":37,"Duration":75000,"SoundDuration":75000,"Delta":609198289},{"NoteNumber":64,"Velocity":36,"Duration":75000,"SoundDuration":75000,"Delta":609198289},{"NoteNumber":52,"Velocity":30,"Duration":75000,"SoundDuration":75000,"Delta":609198289},{"NoteNumber":69,"Velocity":41,"Duration":32608,"SoundDuration":32608,"Delta":609628724},{"NoteNumber":66,"Velocity":35,"Duration":32608,"SoundDuration":32608,"Delta":609628724},{"NoteNumber":64,"Velocity":32,"Duration":32608,"SoundDuration":32608,"Delta":609628724},{"NoteNumber":52,"Velocity":27,"Duration":32608,"SoundDuration":32608,"Delta":609628724},{"NoteNumber":71,"Velocity":41,"Duration":65217,"SoundDuration":65217,"Delta":609759159},{"NoteNumber":68,"Velocity":35,"Duration":65217,"SoundDuration":65217,"Delta":609759159},{"NoteNumber":64,"Velocity":32,"Duration":65217,"SoundDuration":65217,"Delta":609759159},{"NoteNumber":52,"Velocity":27,"Duration":65217,"SoundDuration":65217,"Delta":609759159},{"NoteNumber":73,"Velocity":45,"Duration":70754,"SoundDuration":70754,"Delta":610058133},{"NoteNumber":69,"Velocity":37,"Duration":70754,"SoundDuration":70754,"Delta":610058133},{"NoteNumber":64,"Velocity":36,"Duration":70754,"SoundDuration":70754,"Delta":610058133},{"NoteNumber":57,"Velocity":30,"Duration":70754,"SoundDuration":70754,"Delta":610058133},{"NoteNumber":74,"Velocity":43,"Duration":32894,"SoundDuration":32894,"Delta":610472731},{"NoteNumber":71,"Velocity":36,"Duration":32894,"SoundDuration":32894,"Delta":610472731},{"NoteNumber":64,"Velocity":35,"Duration":32894,"SoundDuration":32894,"Delta":610472731},{"NoteNumber":57,"Velocity":29,"Duration":32894,"SoundDuration":32894,"Delta":610472731},{"NoteNumber":73,"Velocity":43,"Duration":65789,"SoundDuration":65789,"Delta":610604310},{"NoteNumber":69,"Velocity":36,"Duration":65789,"SoundDuration":65789,"Delta":610604310},{"NoteNumber":64,"Velocity":35,"Duration":65789,"SoundDuration":65789,"Delta":610604310},{"NoteNumber":57,"Velocity":29,"Duration":65789,"SoundDuration":65789,"Delta":610604310},{"NoteNumber":71,"Velocity":45,"Duration":71428,"SoundDuration":71428,"Delta":610902555},{"NoteNumber":68,"Velocity":37,"Duration":71428,"SoundDuration":71428,"Delta":610902555},{"NoteNumber":64,"Velocity":36,"Duration":71428,"SoundDuration":71428,"Delta":610902555},{"NoteNumber":52,"Velocity":30,"Duration":71428,"SoundDuration":71428,"Delta":610902555},{"NoteNumber":69,"Velocity":40,"Duration":32894,"SoundDuration":32894,"Delta":611319849},{"NoteNumber":66,"Velocity":34,"Duration":32894,"SoundDuration":32894,"Delta":611319849},{"NoteNumber":64,"Velocity":34,"Duration":32894,"SoundDuration":32894,"Delta":611319849},{"NoteNumber":52,"Velocity":28,"Duration":32894,"SoundDuration":32894,"Delta":611319849},{"NoteNumber":71,"Velocity":40,"Duration":65789,"SoundDuration":65789,"Delta":611451428},{"NoteNumber":68,"Velocity":34,"Duration":65789,"SoundDuration":65789,"Delta":611451428},{"NoteNumber":64,"Velocity":34,"Duration":65789,"SoundDuration":65789,"Delta":611451428},{"NoteNumber":52,"Velocity":28,"Duration":65789,"SoundDuration":65789,"Delta":611451428},{"NoteNumber":69,"Velocity":45,"Duration":283018,"SoundDuration":283018,"Delta":611755798},{"NoteNumber":64,"Velocity":37,"Duration":283018,"SoundDuration":283018,"Delta":611755798},{"NoteNumber":61,"Velocity":36,"Duration":283018,"SoundDuration":283018,"Delta":611755798},{"NoteNumber":57,"Velocity":30,"Duration":283018,"SoundDuration":283018,"Delta":611755798},{"NoteNumber":80,"Velocity":72,"Duration":418318,"SoundDuration":418318,"Delta":612623647},{"NoteNumber":83,"Velocity":72,"Duration":418318,"SoundDuration":418318,"Delta":612623647},{"NoteNumber":88,"Velocity":86,"Duration":418318,"SoundDuration":418318,"Delta":612623647},{"NoteNumber":76,"Velocity":72,"Duration":418318,"SoundDuration":418318,"Delta":612623647},{"NoteNumber":40,"Velocity":60,"Duration":418318,"SoundDuration":418318,"Delta":612623647},{"NoteNumber":52,"Velocity":71,"Duration":418318,"SoundDuration":418318,"Delta":612623647},{"NoteNumber":47,"Velocity":60,"Duration":418318,"SoundDuration":418318,"Delta":612623647},{"NoteNumber":44,"Velocity":60,"Duration":418318,"SoundDuration":418318,"Delta":612623647},{"NoteNumber":88,"Velocity":81,"Duration":137264,"SoundDuration":137264,"Delta":613041966},{"NoteNumber":76,"Velocity":68,"Duration":137264,"SoundDuration":137264,"Delta":613041966},{"NoteNumber":78,"Velocity":68,"Duration":137264,"SoundDuration":137264,"Delta":613041966},{"NoteNumber":81,"Velocity":68,"Duration":137264,"SoundDuration":137264,"Delta":613041966},{"NoteNumber":52,"Velocity":63,"Duration":137264,"SoundDuration":137264,"Delta":613041966},{"NoteNumber":40,"Velocity":52,"Duration":137264,"SoundDuration":137264,"Delta":613041966},{"NoteNumber":42,"Velocity":52,"Duration":137264,"SoundDuration":137264,"Delta":613041966},{"NoteNumber":45,"Velocity":52,"Duration":137264,"SoundDuration":137264,"Delta":613041966},{"NoteNumber":88,"Velocity":81,"Duration":315744,"SoundDuration":315744,"Delta":613179230},{"NoteNumber":76,"Velocity":68,"Duration":315744,"SoundDuration":315744,"Delta":613179230},{"NoteNumber":80,"Velocity":68,"Duration":315744,"SoundDuration":315744,"Delta":613179230},{"NoteNumber":83,"Velocity":68,"Duration":315744,"SoundDuration":315744,"Delta":613179230},{"NoteNumber":40,"Velocity":52,"Duration":315744,"SoundDuration":315744,"Delta":613179230},{"NoteNumber":52,"Velocity":63,"Duration":315744,"SoundDuration":315744,"Delta":613179230},{"NoteNumber":47,"Velocity":52,"Duration":315744,"SoundDuration":315744,"Delta":613179230},{"NoteNumber":44,"Velocity":52,"Duration":315744,"SoundDuration":315744,"Delta":613179230},{"NoteNumber":88,"Velocity":87,"Duration":419382,"SoundDuration":419382,"Delta":613494975},{"NoteNumber":81,"Velocity":73,"Duration":419382,"SoundDuration":419382,"Delta":613494975},{"NoteNumber":76,"Velocity":73,"Duration":419382,"SoundDuration":419382,"Delta":613494975},{"NoteNumber":85,"Velocity":73,"Duration":419382,"SoundDuration":419382,"Delta":613494975},{"NoteNumber":45,"Velocity":52,"Duration":419382,"SoundDuration":419382,"Delta":613494975},{"NoteNumber":49,"Velocity":52,"Duration":419382,"SoundDuration":419382,"Delta":613494975},{"NoteNumber":52,"Velocity":58,"Duration":419382,"SoundDuration":419382,"Delta":613494975},{"NoteNumber":86,"Velocity":81,"Duration":137324,"SoundDuration":137324,"Delta":613914358},{"NoteNumber":88,"Velocity":81,"Duration":137324,"SoundDuration":137324,"Delta":613914358},{"NoteNumber":83,"Velocity":68,"Duration":137324,"SoundDuration":137324,"Delta":613914358},{"NoteNumber":76,"Velocity":68,"Duration":137324,"SoundDuration":137324,"Delta":613914358},{"NoteNumber":52,"Velocity":66,"Duration":137324,"SoundDuration":137324,"Delta":613914358},{"NoteNumber":47,"Velocity":56,"Duration":137324,"SoundDuration":137324,"Delta":613914358},{"NoteNumber":50,"Velocity":56,"Duration":137324,"SoundDuration":137324,"Delta":613914358},{"NoteNumber":88,"Velocity":82,"Duration":312995,"SoundDuration":312995,"Delta":614051682},{"NoteNumber":76,"Velocity":69,"Duration":312995,"SoundDuration":312995,"Delta":614051682},{"NoteNumber":85,"Velocity":69,"Duration":312995,"SoundDuration":312995,"Delta":614051682},{"NoteNumber":81,"Velocity":69,"Duration":312995,"SoundDuration":312995,"Delta":614051682},{"NoteNumber":52,"Velocity":66,"Duration":312995,"SoundDuration":312995,"Delta":614051682},{"NoteNumber":45,"Velocity":56,"Duration":312995,"SoundDuration":312995,"Delta":614051682},{"NoteNumber":49,"Velocity":56,"Duration":312995,"SoundDuration":312995,"Delta":614051682},{"NoteNumber":80,"Velocity":72,"Duration":422078,"SoundDuration":422078,"Delta":614364678},{"NoteNumber":88,"Velocity":86,"Duration":422078,"SoundDuration":422078,"Delta":614364678},{"NoteNumber":76,"Velocity":72,"Duration":422078,"SoundDuration":422078,"Delta":614364678},{"NoteNumber":83,"Velocity":72,"Duration":422078,"SoundDuration":422078,"Delta":614364678},{"NoteNumber":40,"Velocity":60,"Duration":422078,"SoundDuration":422078,"Delta":614364678},{"NoteNumber":52,"Velocity":71,"Duration":422078,"SoundDuration":422078,"Delta":614364678},{"NoteNumber":47,"Velocity":60,"Duration":422078,"SoundDuration":422078,"Delta":614364678},{"NoteNumber":44,"Velocity":60,"Duration":422078,"SoundDuration":422078,"Delta":614364678},{"NoteNumber":76,"Velocity":68,"Duration":137264,"SoundDuration":137264,"Delta":614786756},{"NoteNumber":78,"Velocity":68,"Duration":137264,"SoundDuration":137264,"Delta":614786756},{"NoteNumber":88,"Velocity":81,"Duration":137264,"SoundDuration":137264,"Delta":614786756},{"NoteNumber":81,"Velocity":68,"Duration":137264,"SoundDuration":137264,"Delta":614786756},{"NoteNumber":52,"Velocity":63,"Duration":137264,"SoundDuration":137264,"Delta":614786756},{"NoteNumber":40,"Velocity":52,"Duration":137264,"SoundDuration":137264,"Delta":614786756},{"NoteNumber":42,"Velocity":52,"Duration":137264,"SoundDuration":137264,"Delta":614786756},{"NoteNumber":45,"Velocity":52,"Duration":137264,"SoundDuration":137264,"Delta":614786756},{"NoteNumber":76,"Velocity":68,"Duration":337388,"SoundDuration":337388,"Delta":614924021},{"NoteNumber":80,"Velocity":68,"Duration":337388,"SoundDuration":337388,"Delta":614924021},{"NoteNumber":88,"Velocity":81,"Duration":337388,"SoundDuration":337388,"Delta":614924021},{"NoteNumber":83,"Velocity":68,"Duration":337388,"SoundDuration":337388,"Delta":614924021},{"NoteNumber":40,"Velocity":52,"Duration":337388,"SoundDuration":337388,"Delta":614924021},{"NoteNumber":52,"Velocity":63,"Duration":337388,"SoundDuration":337388,"Delta":614924021},{"NoteNumber":47,"Velocity":52,"Duration":337388,"SoundDuration":337388,"Delta":614924021},{"NoteNumber":44,"Velocity":52,"Duration":337388,"SoundDuration":337388,"Delta":614924021},{"NoteNumber":81,"Velocity":72,"Duration":226815,"SoundDuration":226815,"Delta":615261409},{"NoteNumber":85,"Velocity":81,"Duration":226815,"SoundDuration":226815,"Delta":615261409},{"NoteNumber":93,"Velocity":95,"Duration":226815,"SoundDuration":226815,"Delta":615261409},{"NoteNumber":45,"Velocity":66,"Duration":226815,"SoundDuration":226815,"Delta":615261409},{"NoteNumber":40,"Velocity":56,"Duration":226815,"SoundDuration":226815,"Delta":615261409},{"NoteNumber":37,"Velocity":56,"Duration":226815,"SoundDuration":226815,"Delta":615261409},{"NoteNumber":33,"Velocity":56,"Duration":226815,"SoundDuration":226815,"Delta":615261409},{"NoteNumber":69,"Velocity":49,"Duration":46875,"SoundDuration":46875,"Delta":615681670},{"NoteNumber":71,"Velocity":49,"Duration":60483,"SoundDuration":60483,"Delta":615775420},{"NoteNumber":73,"Velocity":56,"Duration":182926,"SoundDuration":182926,"Delta":616017355},{"NoteNumber":69,"Velocity":50,"Duration":46012,"SoundDuration":46012,"Delta":616371552},{"NoteNumber":68,"Velocity":50,"Duration":56818,"SoundDuration":56818,"Delta":616490092},{"NoteNumber":66,"Velocity":55,"Duration":193965,"SoundDuration":193965,"Delta":616690849},{"NoteNumber":62,"Velocity":45,"Duration":59523,"SoundDuration":59523,"Delta":617068517},{"NoteNumber":71,"Velocity":58,"Duration":654020,"SoundDuration":654020,"Delta":617187564},{"NoteNumber":64,"Velocity":45,"Duration":57251,"SoundDuration":57251,"Delta":617187564},{"NoteNumber":66,"Velocity":54,"Duration":178571,"SoundDuration":178571,"Delta":617395236},{"NoteNumber":61,"Velocity":46,"Duration":46875,"SoundDuration":46875,"Delta":617747835},{"NoteNumber":69,"Velocity":52,"Duration":59999,"SoundDuration":59999,"Delta":617841585},{"NoteNumber":63,"Velocity":46,"Duration":59999,"SoundDuration":59999,"Delta":617841585},{"NoteNumber":68,"Velocity":58,"Duration":190678,"SoundDuration":190678,"Delta":618081585},{"NoteNumber":66,"Velocity":49,"Duration":190678,"SoundDuration":190678,"Delta":618081585},{"NoteNumber":59,"Velocity":51,"Duration":190678,"SoundDuration":190678,"Delta":618081585},{"NoteNumber":56,"Velocity":47,"Duration":47770,"SoundDuration":47770,"Delta":618450326},{"NoteNumber":68,"Velocity":51,"Duration":59523,"SoundDuration":59523,"Delta":618545867},{"NoteNumber":64,"Velocity":43,"Duration":59523,"SoundDuration":59523,"Delta":618545867},{"NoteNumber":61,"Velocity":47,"Duration":59523,"SoundDuration":59523,"Delta":618545867},{"NoteNumber":64,"Velocity":55,"Duration":193965,"SoundDuration":193965,"Delta":618783962},{"NoteNumber":69,"Velocity":55,"Duration":193965,"SoundDuration":193965,"Delta":618783962},{"NoteNumber":60,"Velocity":52,"Duration":193965,"SoundDuration":193965,"Delta":618783962},{"NoteNumber":54,"Velocity":46,"Duration":47770,"SoundDuration":47770,"Delta":619155365},{"NoteNumber":71,"Velocity":53,"Duration":59523,"SoundDuration":59523,"Delta":619250906},{"NoteNumber":57,"Velocity":45,"Duration":59523,"SoundDuration":59523,"Delta":619250906},{"NoteNumber":63,"Velocity":45,"Duration":59523,"SoundDuration":59523,"Delta":619250906},{"NoteNumber":47,"Velocity":46,"Duration":59523,"SoundDuration":59523,"Delta":619250906},{"NoteNumber":64,"Velocity":56,"Duration":193965,"SoundDuration":193965,"Delta":619489001},{"NoteNumber":56,"Velocity":47,"Duration":193965,"SoundDuration":193965,"Delta":619489001},{"NoteNumber":40,"Velocity":53,"Duration":193965,"SoundDuration":193965,"Delta":619489001},{"NoteNumber":76,"Velocity":49,"Duration":49342,"SoundDuration":49342,"Delta":619861258},{"NoteNumber":68,"Velocity":41,"Duration":49342,"SoundDuration":49342,"Delta":619861258},{"NoteNumber":59,"Velocity":48,"Duration":49342,"SoundDuration":49342,"Delta":619861258},{"NoteNumber":52,"Velocity":40,"Duration":49342,"SoundDuration":49342,"Delta":619861258},{"NoteNumber":75,"Velocity":49,"Duration":56818,"SoundDuration":56818,"Delta":619959942},{"NoteNumber":69,"Velocity":41,"Duration":56818,"SoundDuration":56818,"Delta":619959942},{"NoteNumber":59,"Velocity":48,"Duration":56818,"SoundDuration":56818,"Delta":619959942},{"NoteNumber":53,"Velocity":40,"Duration":56818,"SoundDuration":56818,"Delta":619959942},{"NoteNumber":74,"Velocity":54,"Duration":192307,"SoundDuration":192307,"Delta":620187215},{"NoteNumber":69,"Velocity":45,"Duration":192307,"SoundDuration":192307,"Delta":620187215},{"NoteNumber":60,"Velocity":51,"Duration":192307,"SoundDuration":192307,"Delta":620187215},{"NoteNumber":54,"Velocity":43,"Duration":192307,"SoundDuration":192307,"Delta":620187215},{"NoteNumber":74,"Velocity":50,"Duration":49999,"SoundDuration":49999,"Delta":620557262},{"NoteNumber":65,"Velocity":42,"Duration":49999,"SoundDuration":49999,"Delta":620557262},{"NoteNumber":59,"Velocity":48,"Duration":49999,"SoundDuration":49999,"Delta":620557262},{"NoteNumber":55,"Velocity":40,"Duration":49999,"SoundDuration":49999,"Delta":620557262},{"NoteNumber":71,"Velocity":52,"Duration":57692,"SoundDuration":57692,"Delta":620657262},{"NoteNumber":64,"Velocity":44,"Duration":57692,"SoundDuration":57692,"Delta":620657262},{"NoteNumber":62,"Velocity":48,"Duration":57692,"SoundDuration":57692,"Delta":620657262},{"NoteNumber":56,"Velocity":40,"Duration":57692,"SoundDuration":57692,"Delta":620657262},{"NoteNumber":69,"Velocity":58,"Duration":193965,"SoundDuration":193965,"Delta":620888031},{"NoteNumber":64,"Velocity":49,"Duration":193965,"SoundDuration":193965,"Delta":620888031},{"NoteNumber":61,"Velocity":54,"Duration":193965,"SoundDuration":193965,"Delta":620888031},{"NoteNumber":57,"Velocity":45,"Duration":193965,"SoundDuration":193965,"Delta":620888031},{"NoteNumber":81,"Velocity":54,"Duration":49999,"SoundDuration":49999,"Delta":621265699},{"NoteNumber":69,"Velocity":45,"Duration":49999,"SoundDuration":49999,"Delta":621265699},{"NoteNumber":83,"Velocity":57,"Duration":60483,"SoundDuration":60483,"Delta":621365699},{"NoteNumber":71,"Velocity":48,"Duration":60483,"SoundDuration":60483,"Delta":621365699},{"NoteNumber":85,"Velocity":63,"Duration":187500,"SoundDuration":187500,"Delta":621607634},{"NoteNumber":73,"Velocity":53,"Duration":187500,"SoundDuration":187500,"Delta":621607634},{"NoteNumber":45,"Velocity":37,"Duration":187500,"SoundDuration":187500,"Delta":621607634},{"NoteNumber":61,"Velocity":46,"Duration":187500,"SoundDuration":187500,"Delta":621607634},{"NoteNumber":52,"Velocity":39,"Duration":187500,"SoundDuration":187500,"Delta":621607634},{"NoteNumber":81,"Velocity":54,"Duration":48076,"SoundDuration":48076,"Delta":621967928},{"NoteNumber":69,"Velocity":45,"Duration":48076,"SoundDuration":48076,"Delta":621967928},{"NoteNumber":80,"Velocity":54,"Duration":57251,"SoundDuration":57251,"Delta":622064082},{"NoteNumber":68,"Velocity":45,"Duration":57251,"SoundDuration":57251,"Delta":622064082},{"NoteNumber":78,"Velocity":60,"Duration":193965,"SoundDuration":193965,"Delta":622293089},{"NoteNumber":66,"Velocity":50,"Duration":193965,"SoundDuration":193965,"Delta":622293089},{"NoteNumber":62,"Velocity":48,"Duration":59523,"SoundDuration":59523,"Delta":622670757},{"NoteNumber":50,"Velocity":40,"Duration":59523,"SoundDuration":59523,"Delta":622670757},{"NoteNumber":83,"Velocity":62,"Duration":656983,"SoundDuration":656983,"Delta":622789805},{"NoteNumber":71,"Velocity":52,"Duration":656983,"SoundDuration":656983,"Delta":622789805},{"NoteNumber":64,"Velocity":52,"Duration":57251,"SoundDuration":57251,"Delta":622789805},{"NoteNumber":52,"Velocity":44,"Duration":57251,"SoundDuration":57251,"Delta":622789805},{"NoteNumber":66,"Velocity":58,"Duration":178571,"SoundDuration":178571,"Delta":622998648},{"NoteNumber":54,"Velocity":49,"Duration":178571,"SoundDuration":178571,"Delta":622998648},{"NoteNumber":61,"Velocity":51,"Duration":47770,"SoundDuration":47770,"Delta":623351247},{"NoteNumber":49,"Velocity":43,"Duration":47770,"SoundDuration":47770,"Delta":623351247},{"NoteNumber":81,"Velocity":52,"Duration":57692,"SoundDuration":57692,"Delta":623446788},{"NoteNumber":71,"Velocity":44,"Duration":57692,"SoundDuration":57692,"Delta":623446788},{"NoteNumber":78,"Velocity":44,"Duration":57692,"SoundDuration":57692,"Delta":623446788},{"NoteNumber":69,"Velocity":44,"Duration":57692,"SoundDuration":57692,"Delta":623446788},{"NoteNumber":62,"Velocity":52,"Duration":57692,"SoundDuration":57692,"Delta":623446788},{"NoteNumber":50,"Velocity":44,"Duration":57692,"SoundDuration":57692,"Delta":623446788},{"NoteNumber":81,"Velocity":55,"Duration":193965,"SoundDuration":193965,"Delta":623677557},{"NoteNumber":69,"Velocity":46,"Duration":193965,"SoundDuration":193965,"Delta":623677557},{"NoteNumber":74,"Velocity":46,"Duration":193965,"SoundDuration":193965,"Delta":623677557},{"NoteNumber":59,"Velocity":55,"Duration":193965,"SoundDuration":193965,"Delta":623677557},{"NoteNumber":52,"Velocity":46,"Duration":193965,"SoundDuration":193965,"Delta":623677557},{"NoteNumber":80,"Velocity":51,"Duration":46583,"SoundDuration":46583,"Delta":624049814},{"NoteNumber":74,"Velocity":43,"Duration":46583,"SoundDuration":46583,"Delta":624049814},{"NoteNumber":68,"Velocity":43,"Duration":46583,"SoundDuration":46583,"Delta":624049814},{"NoteNumber":52,"Velocity":51,"Duration":46583,"SoundDuration":46583,"Delta":624049814},{"NoteNumber":47,"Velocity":43,"Duration":46583,"SoundDuration":46583,"Delta":624049814},{"NoteNumber":40,"Velocity":43,"Duration":46583,"SoundDuration":46583,"Delta":624049814},{"NoteNumber":78,"Velocity":51,"Duration":59523,"SoundDuration":59523,"Delta":624142982},{"NoteNumber":74,"Velocity":43,"Duration":59523,"SoundDuration":59523,"Delta":624142982},{"NoteNumber":66,"Velocity":43,"Duration":59523,"SoundDuration":59523,"Delta":624142982},{"NoteNumber":54,"Velocity":51,"Duration":59523,"SoundDuration":59523,"Delta":624142982},{"NoteNumber":47,"Velocity":43,"Duration":59523,"SoundDuration":59523,"Delta":624142982},{"NoteNumber":42,"Velocity":43,"Duration":59523,"SoundDuration":59523,"Delta":624142982},{"NoteNumber":76,"Velocity":56,"Duration":192307,"SoundDuration":192307,"Delta":624381077},{"NoteNumber":74,"Velocity":47,"Duration":192307,"SoundDuration":192307,"Delta":624381077},{"NoteNumber":64,"Velocity":47,"Duration":192307,"SoundDuration":192307,"Delta":624381077},{"NoteNumber":56,"Velocity":56,"Duration":192307,"SoundDuration":192307,"Delta":624381077},{"NoteNumber":47,"Velocity":47,"Duration":192307,"SoundDuration":192307,"Delta":624381077},{"NoteNumber":44,"Velocity":47,"Duration":192307,"SoundDuration":192307,"Delta":624381077},{"NoteNumber":78,"Velocity":52,"Duration":48076,"SoundDuration":48076,"Delta":624751124},{"NoteNumber":66,"Velocity":44,"Duration":48076,"SoundDuration":48076,"Delta":624751124},{"NoteNumber":51,"Velocity":49,"Duration":48076,"SoundDuration":48076,"Delta":624751124},{"NoteNumber":39,"Velocity":41,"Duration":48076,"SoundDuration":48076,"Delta":624751124},{"NoteNumber":80,"Velocity":52,"Duration":61983,"SoundDuration":61983,"Delta":624847277},{"NoteNumber":74,"Velocity":44,"Duration":61983,"SoundDuration":61983,"Delta":624847277},{"NoteNumber":68,"Velocity":44,"Duration":61983,"SoundDuration":61983,"Delta":624847277},{"NoteNumber":52,"Velocity":49,"Duration":61983,"SoundDuration":61983,"Delta":624847277},{"NoteNumber":47,"Velocity":41,"Duration":61983,"SoundDuration":61983,"Delta":624847277},{"NoteNumber":40,"Velocity":41,"Duration":61983,"SoundDuration":61983,"Delta":624847277},{"NoteNumber":81,"Velocity":55,"Duration":204545,"SoundDuration":204545,"Delta":625095211},{"NoteNumber":69,"Velocity":46,"Duration":204545,"SoundDuration":204545,"Delta":625095211},{"NoteNumber":73,"Velocity":46,"Duration":204545,"SoundDuration":204545,"Delta":625095211},{"NoteNumber":49,"Velocity":55,"Duration":204545,"SoundDuration":204545,"Delta":625095211},{"NoteNumber":37,"Velocity":46,"Duration":204545,"SoundDuration":204545,"Delta":625095211},{"NoteNumber":40,"Velocity":46,"Duration":204545,"SoundDuration":204545,"Delta":625095211},{"NoteNumber":45,"Velocity":46,"Duration":204545,"SoundDuration":204545,"Delta":625095211},{"NoteNumber":85,"Velocity":60,"Duration":131578,"SoundDuration":131578,"Delta":625367939},{"NoteNumber":76,"Velocity":51,"Duration":131578,"SoundDuration":131578,"Delta":625367939},{"NoteNumber":73,"Velocity":51,"Duration":131578,"SoundDuration":131578,"Delta":625367939},{"NoteNumber":61,"Velocity":56,"Duration":131578,"SoundDuration":131578,"Delta":625367939},{"NoteNumber":57,"Velocity":47,"Duration":131578,"SoundDuration":131578,"Delta":625367939},{"NoteNumber":52,"Velocity":47,"Duration":131578,"SoundDuration":131578,"Delta":625367939},{"NoteNumber":88,"Velocity":67,"Duration":500555,"SoundDuration":500555,"Delta":625631097},{"NoteNumber":81,"Velocity":57,"Duration":500555,"SoundDuration":500555,"Delta":625631097},{"NoteNumber":76,"Velocity":57,"Duration":500555,"SoundDuration":500555,"Delta":625631097},{"NoteNumber":64,"Velocity":61,"Duration":500555,"SoundDuration":500555,"Delta":625631097},{"NoteNumber":61,"Velocity":51,"Duration":500555,"SoundDuration":500555,"Delta":625631097},{"NoteNumber":57,"Velocity":51,"Duration":500555,"SoundDuration":500555,"Delta":625631097},{"NoteNumber":83,"Velocity":54,"Duration":64655,"SoundDuration":64655,"Delta":626131653},{"NoteNumber":88,"Velocity":65,"Duration":64655,"SoundDuration":64655,"Delta":626131653},{"NoteNumber":76,"Velocity":54,"Duration":64655,"SoundDuration":64655,"Delta":626131653},{"NoteNumber":59,"Velocity":58,"Duration":64655,"SoundDuration":64655,"Delta":626131653},{"NoteNumber":44,"Velocity":48,"Duration":64655,"SoundDuration":64655,"Delta":626131653},{"NoteNumber":52,"Velocity":48,"Duration":64655,"SoundDuration":64655,"Delta":626131653},{"NoteNumber":88,"Velocity":65,"Duration":64655,"SoundDuration":64655,"Delta":626390273},{"NoteNumber":84,"Velocity":54,"Duration":64655,"SoundDuration":64655,"Delta":626390273},{"NoteNumber":76,"Velocity":54,"Duration":64655,"SoundDuration":64655,"Delta":626390273},{"NoteNumber":60,"Velocity":58,"Duration":64655,"SoundDuration":64655,"Delta":626390273},{"NoteNumber":52,"Velocity":48,"Duration":64655,"SoundDuration":64655,"Delta":626390273},{"NoteNumber":44,"Velocity":48,"Duration":64655,"SoundDuration":64655,"Delta":626390273},{"NoteNumber":88,"Velocity":71,"Duration":193965,"SoundDuration":193965,"Delta":626648894},{"NoteNumber":76,"Velocity":60,"Duration":193965,"SoundDuration":193965,"Delta":626648894},{"NoteNumber":86,"Velocity":60,"Duration":193965,"SoundDuration":193965,"Delta":626648894},{"NoteNumber":62,"Velocity":63,"Duration":193965,"SoundDuration":193965,"Delta":626648894},{"NoteNumber":52,"Velocity":52,"Duration":193965,"SoundDuration":193965,"Delta":626648894},{"NoteNumber":45,"Velocity":52,"Duration":193965,"SoundDuration":193965,"Delta":626648894},{"NoteNumber":88,"Velocity":66,"Duration":51369,"SoundDuration":51369,"Delta":627027514},{"NoteNumber":85,"Velocity":56,"Duration":51369,"SoundDuration":51369,"Delta":627027514},{"NoteNumber":76,"Velocity":56,"Duration":51369,"SoundDuration":51369,"Delta":627027514},{"NoteNumber":61,"Velocity":56,"Duration":51369,"SoundDuration":51369,"Delta":627027514},{"NoteNumber":52,"Velocity":47,"Duration":51369,"SoundDuration":51369,"Delta":627027514},{"NoteNumber":45,"Velocity":47,"Duration":51369,"SoundDuration":51369,"Delta":627027514},{"NoteNumber":88,"Velocity":66,"Duration":59523,"SoundDuration":59523,"Delta":627130254},{"NoteNumber":83,"Velocity":56,"Duration":59523,"SoundDuration":59523,"Delta":627130254},{"NoteNumber":76,"Velocity":56,"Duration":59523,"SoundDuration":59523,"Delta":627130254},{"NoteNumber":59,"Velocity":56,"Duration":59523,"SoundDuration":59523,"Delta":627130254},{"NoteNumber":50,"Velocity":47,"Duration":59523,"SoundDuration":59523,"Delta":627130254},{"NoteNumber":45,"Velocity":47,"Duration":59523,"SoundDuration":59523,"Delta":627130254},{"NoteNumber":88,"Velocity":72,"Duration":256410,"SoundDuration":256410,"Delta":627368349},{"NoteNumber":81,"Velocity":62,"Duration":256410,"SoundDuration":256410,"Delta":627368349},{"NoteNumber":76,"Velocity":62,"Duration":256410,"SoundDuration":256410,"Delta":627368349},{"NoteNumber":57,"Velocity":64,"Duration":256410,"SoundDuration":256410,"Delta":627368349},{"NoteNumber":49,"Velocity":54,"Duration":256410,"SoundDuration":256410,"Delta":627368349},{"NoteNumber":40,"Velocity":54,"Duration":256410,"SoundDuration":256410,"Delta":627368349},{"NoteNumber":88,"Velocity":68,"Duration":53571,"SoundDuration":53571,"Delta":627744760},{"NoteNumber":85,"Velocity":58,"Duration":53571,"SoundDuration":53571,"Delta":627744760},{"NoteNumber":76,"Velocity":58,"Duration":53571,"SoundDuration":53571,"Delta":627744760},{"NoteNumber":61,"Velocity":56,"Duration":53571,"SoundDuration":53571,"Delta":627744760},{"NoteNumber":52,"Velocity":47,"Duration":53571,"SoundDuration":53571,"Delta":627744760},{"NoteNumber":56,"Velocity":47,"Duration":53571,"SoundDuration":53571,"Delta":627744760},{"NoteNumber":88,"Velocity":68,"Duration":66371,"SoundDuration":66371,"Delta":627851902},{"NoteNumber":83,"Velocity":58,"Duration":66371,"SoundDuration":66371,"Delta":627851902},{"NoteNumber":76,"Velocity":58,"Duration":66371,"SoundDuration":66371,"Delta":627851902},{"NoteNumber":59,"Velocity":56,"Duration":66371,"SoundDuration":66371,"Delta":627851902},{"NoteNumber":56,"Velocity":47,"Duration":66371,"SoundDuration":66371,"Delta":627851902},{"NoteNumber":50,"Velocity":47,"Duration":66371,"SoundDuration":66371,"Delta":627851902},{"NoteNumber":88,"Velocity":73,"Duration":132743,"SoundDuration":132743,"Delta":628117389},{"NoteNumber":76,"Velocity":63,"Duration":132743,"SoundDuration":132743,"Delta":628117389},{"NoteNumber":81,"Velocity":63,"Duration":132743,"SoundDuration":132743,"Delta":628117389},{"NoteNumber":57,"Velocity":62,"Duration":132743,"SoundDuration":132743,"Delta":628117389},{"NoteNumber":45,"Velocity":52,"Duration":132743,"SoundDuration":132743,"Delta":628117389},{"NoteNumber":49,"Velocity":52,"Duration":132743,"SoundDuration":132743,"Delta":628117389},{"NoteNumber":45,"Velocity":59,"Duration":46875,"SoundDuration":46875,"Delta":628515619},{"NoteNumber":33,"Velocity":49,"Duration":46875,"SoundDuration":46875,"Delta":628515619},{"NoteNumber":47,"Velocity":60,"Duration":60483,"SoundDuration":60483,"Delta":628609369},{"NoteNumber":35,"Velocity":50,"Duration":60483,"SoundDuration":60483,"Delta":628609369},{"NoteNumber":49,"Velocity":65,"Duration":173076,"SoundDuration":173076,"Delta":628851304},{"NoteNumber":37,"Velocity":54,"Duration":173076,"SoundDuration":173076,"Delta":628851304},{"NoteNumber":45,"Velocity":59,"Duration":53571,"SoundDuration":53571,"Delta":629199261},{"NoteNumber":33,"Velocity":49,"Duration":53571,"SoundDuration":53571,"Delta":629199261},{"NoteNumber":41,"Velocity":59,"Duration":79795,"SoundDuration":79795,"Delta":629306403},{"NoteNumber":29,"Velocity":49,"Duration":79795,"SoundDuration":79795,"Delta":629306403},{"NoteNumber":83,"Velocity":61,"Duration":219533,"SoundDuration":219533,"Delta":629625586},{"NoteNumber":71,"Velocity":51,"Duration":219533,"SoundDuration":219533,"Delta":629625586},{"NoteNumber":80,"Velocity":51,"Duration":219533,"SoundDuration":219533,"Delta":629625586},{"NoteNumber":40,"Velocity":63,"Duration":219533,"SoundDuration":219533,"Delta":629625586},{"NoteNumber":28,"Velocity":63,"Duration":219533,"SoundDuration":219533,"Delta":629625586},{"NoteNumber":68,"Velocity":46,"Duration":31055,"SoundDuration":31055,"Delta":630044348},{"NoteNumber":64,"Velocity":39,"Duration":31055,"SoundDuration":31055,"Delta":630044348},{"NoteNumber":59,"Velocity":50,"Duration":46583,"SoundDuration":46583,"Delta":630044348},{"NoteNumber":56,"Velocity":42,"Duration":46583,"SoundDuration":46583,"Delta":630044348},{"NoteNumber":69,"Velocity":46,"Duration":31055,"SoundDuration":31055,"Delta":630075404},{"NoteNumber":66,"Velocity":39,"Duration":31055,"SoundDuration":31055,"Delta":630075404},{"NoteNumber":71,"Velocity":46,"Duration":31055,"SoundDuration":31055,"Delta":630106460},{"NoteNumber":68,"Velocity":59,"Duration":154639,"SoundDuration":154639,"Delta":630137516},{"NoteNumber":64,"Velocity":50,"Duration":154639,"SoundDuration":154639,"Delta":630137516},{"NoteNumber":56,"Velocity":50,"Duration":77319,"SoundDuration":77319,"Delta":630137516},{"NoteNumber":52,"Velocity":42,"Duration":77319,"SoundDuration":77319,"Delta":630137516},{"NoteNumber":88,"Velocity":63,"Duration":207392,"SoundDuration":207392,"Delta":630446795},{"NoteNumber":85,"Velocity":54,"Duration":207392,"SoundDuration":207392,"Delta":630446795},{"NoteNumber":76,"Velocity":54,"Duration":207392,"SoundDuration":207392,"Delta":630446795},{"NoteNumber":52,"Velocity":59,"Duration":207392,"SoundDuration":207392,"Delta":630446795},{"NoteNumber":40,"Velocity":50,"Duration":207392,"SoundDuration":207392,"Delta":630446795},{"NoteNumber":45,"Velocity":50,"Duration":207392,"SoundDuration":207392,"Delta":630446795},{"NoteNumber":73,"Velocity":45,"Duration":31250,"SoundDuration":31250,"Delta":630845269},{"NoteNumber":69,"Velocity":37,"Duration":31250,"SoundDuration":31250,"Delta":630845269},{"NoteNumber":64,"Velocity":51,"Duration":46875,"SoundDuration":46875,"Delta":630845269},{"NoteNumber":61,"Velocity":43,"Duration":46875,"SoundDuration":46875,"Delta":630845269},{"NoteNumber":75,"Velocity":45,"Duration":31250,"SoundDuration":31250,"Delta":630876519},{"NoteNumber":71,"Velocity":37,"Duration":31250,"SoundDuration":31250,"Delta":630876519},{"NoteNumber":76,"Velocity":45,"Duration":31250,"SoundDuration":31250,"Delta":630907769},{"NoteNumber":73,"Velocity":56,"Duration":147058,"SoundDuration":147058,"Delta":630939019},{"NoteNumber":69,"Velocity":47,"Duration":147058,"SoundDuration":147058,"Delta":630939019},{"NoteNumber":61,"Velocity":51,"Duration":73529,"SoundDuration":73529,"Delta":630939019},{"NoteNumber":57,"Velocity":43,"Duration":73529,"SoundDuration":73529,"Delta":630939019},{"NoteNumber":83,"Velocity":61,"Duration":258620,"SoundDuration":258620,"Delta":631233136},{"NoteNumber":71,"Velocity":51,"Duration":258620,"SoundDuration":258620,"Delta":631233136},{"NoteNumber":80,"Velocity":51,"Duration":258620,"SoundDuration":258620,"Delta":631233136},{"NoteNumber":52,"Velocity":62,"Duration":258620,"SoundDuration":258620,"Delta":631233136},{"NoteNumber":40,"Velocity":52,"Duration":258620,"SoundDuration":258620,"Delta":631233136},{"NoteNumber":47,"Velocity":52,"Duration":258620,"SoundDuration":258620,"Delta":631233136},{"NoteNumber":68,"Velocity":46,"Duration":31055,"SoundDuration":31055,"Delta":631617807},{"NoteNumber":64,"Velocity":39,"Duration":31055,"SoundDuration":31055,"Delta":631617807},{"NoteNumber":59,"Velocity":50,"Duration":46583,"SoundDuration":46583,"Delta":631617807},{"NoteNumber":56,"Velocity":42,"Duration":46583,"SoundDuration":46583,"Delta":631617807},{"NoteNumber":69,"Velocity":46,"Duration":31055,"SoundDuration":31055,"Delta":631648863},{"NoteNumber":66,"Velocity":39,"Duration":31055,"SoundDuration":31055,"Delta":631648863},{"NoteNumber":71,"Velocity":46,"Duration":31055,"SoundDuration":31055,"Delta":631679919},{"NoteNumber":68,"Velocity":59,"Duration":142857,"SoundDuration":142857,"Delta":631710975},{"NoteNumber":64,"Velocity":50,"Duration":142857,"SoundDuration":142857,"Delta":631710975},{"NoteNumber":56,"Velocity":50,"Duration":71428,"SoundDuration":71428,"Delta":631710975},{"NoteNumber":52,"Velocity":42,"Duration":71428,"SoundDuration":71428,"Delta":631710975},{"NoteNumber":80,"Velocity":46,"Duration":77519,"SoundDuration":77519,"Delta":631996690},{"NoteNumber":76,"Velocity":39,"Duration":77519,"SoundDuration":77519,"Delta":631996690},{"NoteNumber":71,"Velocity":53,"Duration":116278,"SoundDuration":116278,"Delta":631996690},{"NoteNumber":68,"Velocity":44,"Duration":116278,"SoundDuration":116278,"Delta":631996690},{"NoteNumber":81,"Velocity":46,"Duration":77519,"SoundDuration":77519,"Delta":632074209},{"NoteNumber":78,"Velocity":39,"Duration":77519,"SoundDuration":77519,"Delta":632074209},{"NoteNumber":83,"Velocity":46,"Duration":77519,"SoundDuration":77519,"Delta":632151728},{"NoteNumber":80,"Velocity":59,"Duration":120967,"SoundDuration":120967,"Delta":632229248},{"NoteNumber":76,"Velocity":50,"Duration":120967,"SoundDuration":120967,"Delta":632229248},{"NoteNumber":68,"Velocity":53,"Duration":120967,"SoundDuration":120967,"Delta":632229248},{"NoteNumber":64,"Velocity":44,"Duration":120967,"SoundDuration":120967,"Delta":632229248},{"NoteNumber":92,"Velocity":47,"Duration":76335,"SoundDuration":76335,"Delta":632471183},{"NoteNumber":88,"Velocity":40,"Duration":76335,"SoundDuration":76335,"Delta":632471183},{"NoteNumber":83,"Velocity":53,"Duration":114503,"SoundDuration":114503,"Delta":632471183},{"NoteNumber":76,"Velocity":44,"Duration":114503,"SoundDuration":114503,"Delta":632471183},{"NoteNumber":93,"Velocity":51,"Duration":76335,"SoundDuration":76335,"Delta":632547519},{"NoteNumber":90,"Velocity":43,"Duration":76335,"SoundDuration":76335,"Delta":632547519},{"NoteNumber":94,"Velocity":54,"Duration":76335,"SoundDuration":76335,"Delta":632623855},{"NoteNumber":91,"Velocity":45,"Duration":76335,"SoundDuration":76335,"Delta":632623855},{"NoteNumber":95,"Velocity":63,"Duration":132743,"SoundDuration":132743,"Delta":632700191},{"NoteNumber":90,"Velocity":54,"Duration":132743,"SoundDuration":132743,"Delta":632700191},{"NoteNumber":83,"Velocity":59,"Duration":132743,"SoundDuration":132743,"Delta":632700191},{"NoteNumber":75,"Velocity":50,"Duration":132743,"SoundDuration":132743,"Delta":632700191},{"NoteNumber":71,"Velocity":47,"Duration":88495,"SoundDuration":88495,"Delta":632965677},{"NoteNumber":72,"Velocity":47,"Duration":81841,"SoundDuration":81841,"Delta":633054173},{"NoteNumber":95,"Velocity":54,"Duration":56390,"SoundDuration":56390,"Delta":633098420},{"NoteNumber":83,"Velocity":45,"Duration":56390,"SoundDuration":56390,"Delta":633098420},{"NoteNumber":87,"Velocity":45,"Duration":56390,"SoundDuration":56390,"Delta":633098420},{"NoteNumber":73,"Velocity":47,"Duration":75188,"SoundDuration":75188,"Delta":633136014},{"NoteNumber":95,"Velocity":54,"Duration":121951,"SoundDuration":121951,"Delta":633211202},{"NoteNumber":83,"Velocity":45,"Duration":121951,"SoundDuration":121951,"Delta":633211202},{"NoteNumber":88,"Velocity":45,"Duration":121951,"SoundDuration":121951,"Delta":633211202},{"NoteNumber":72,"Velocity":53,"Duration":121951,"SoundDuration":121951,"Delta":633211202},{"NoteNumber":94,"Velocity":63,"Duration":116278,"SoundDuration":116278,"Delta":633455105},{"NoteNumber":83,"Velocity":53,"Duration":116278,"SoundDuration":116278,"Delta":633455105},{"NoteNumber":88,"Velocity":53,"Duration":116278,"SoundDuration":116278,"Delta":633455105},{"NoteNumber":61,"Velocity":50,"Duration":77519,"SoundDuration":77519,"Delta":633455105},{"NoteNumber":62,"Velocity":50,"Duration":77519,"SoundDuration":77519,"Delta":633532624},{"NoteNumber":63,"Velocity":50,"Duration":77519,"SoundDuration":77519,"Delta":633610144},{"NoteNumber":95,"Velocity":60,"Duration":120967,"SoundDuration":120967,"Delta":633687663},{"NoteNumber":83,"Velocity":50,"Duration":120967,"SoundDuration":120967,"Delta":633687663},{"NoteNumber":89,"Velocity":50,"Duration":120967,"SoundDuration":120967,"Delta":633687663},{"NoteNumber":62,"Velocity":55,"Duration":120967,"SoundDuration":120967,"Delta":633687663},{"NoteNumber":93,"Velocity":60,"Duration":122950,"SoundDuration":122950,"Delta":633929598},{"NoteNumber":83,"Velocity":50,"Duration":122950,"SoundDuration":122950,"Delta":633929598},{"NoteNumber":90,"Velocity":50,"Duration":122950,"SoundDuration":122950,"Delta":633929598},{"NoteNumber":49,"Velocity":47,"Duration":81967,"SoundDuration":81967,"Delta":633929598},{"NoteNumber":50,"Velocity":47,"Duration":81967,"SoundDuration":81967,"Delta":634011566},{"NoteNumber":51,"Velocity":47,"Duration":81967,"SoundDuration":81967,"Delta":634093533},{"NoteNumber":92,"Velocity":66,"Duration":125000,"SoundDuration":125000,"Delta":634175500},{"NoteNumber":83,"Velocity":55,"Duration":125000,"SoundDuration":125000,"Delta":634175500},{"NoteNumber":88,"Velocity":55,"Duration":125000,"SoundDuration":125000,"Delta":634175500},{"NoteNumber":52,"Velocity":54,"Duration":125000,"SoundDuration":125000,"Delta":634175500},{"NoteNumber":68,"Velocity":54,"Duration":61983,"SoundDuration":61983,"Delta":634425500},{"NoteNumber":64,"Velocity":38,"Duration":70247,"SoundDuration":70247,"Delta":634425500},{"NoteNumber":69,"Velocity":54,"Duration":61941,"SoundDuration":61941,"Delta":634487483},{"NoteNumber":66,"Velocity":39,"Duration":69079,"SoundDuration":69079,"Delta":634491616},{"NoteNumber":71,"Velocity":54,"Duration":61475,"SoundDuration":61475,"Delta":634549425},{"NoteNumber":68,"Velocity":39,"Duration":69672,"SoundDuration":69672,"Delta":634556597},{"NoteNumber":69,"Velocity":55,"Duration":61392,"SoundDuration":61392,"Delta":634610900},{"NoteNumber":66,"Velocity":41,"Duration":69338,"SoundDuration":69338,"Delta":634633441},{"NoteNumber":68,"Velocity":54,"Duration":60975,"SoundDuration":60975,"Delta":634672292},{"NoteNumber":64,"Velocity":41,"Duration":68089,"SoundDuration":68089,"Delta":634687536},{"NoteNumber":69,"Velocity":51,"Duration":60852,"SoundDuration":60852,"Delta":634733268},{"NoteNumber":63,"Velocity":39,"Duration":68769,"SoundDuration":68769,"Delta":634751560},{"NoteNumber":71,"Velocity":49,"Duration":60483,"SoundDuration":60483,"Delta":634794120},{"NoteNumber":61,"Velocity":37,"Duration":67475,"SoundDuration":67475,"Delta":634816298},{"NoteNumber":73,"Velocity":50,"Duration":60169,"SoundDuration":60169,"Delta":634854604},{"NoteNumber":59,"Velocity":35,"Duration":67999,"SoundDuration":67999,"Delta":634879774},{"NoteNumber":75,"Velocity":51,"Duration":60000,"SoundDuration":60000,"Delta":634914774},{"NoteNumber":57,"Velocity":36,"Duration":63865,"SoundDuration":63865,"Delta":634943774},{"NoteNumber":76,"Velocity":52,"Duration":59650,"SoundDuration":59650,"Delta":634974774},{"NoteNumber":56,"Velocity":36,"Duration":66468,"SoundDuration":66468,"Delta":635007639},{"NoteNumber":78,"Velocity":53,"Duration":59523,"SoundDuration":59523,"Delta":635034424},{"NoteNumber":54,"Velocity":38,"Duration":67210,"SoundDuration":67210,"Delta":635070139},{"NoteNumber":80,"Velocity":54,"Duration":59148,"SoundDuration":59148,"Delta":635093948},{"NoteNumber":52,"Velocity":39,"Duration":65944,"SoundDuration":65944,"Delta":635133412},{"NoteNumber":81,"Velocity":55,"Duration":59055,"SoundDuration":59055,"Delta":635153097},{"NoteNumber":51,"Velocity":40,"Duration":66590,"SoundDuration":66590,"Delta":635195420},{"NoteNumber":83,"Velocity":56,"Duration":58647,"SoundDuration":58647,"Delta":635212152},{"NoteNumber":49,"Velocity":41,"Duration":66315,"SoundDuration":66315,"Delta":635258104},{"NoteNumber":85,"Velocity":57,"Duration":58465,"SoundDuration":58465,"Delta":635270800},{"NoteNumber":47,"Velocity":42,"Duration":65340,"SoundDuration":65340,"Delta":635320544},{"NoteNumber":87,"Velocity":58,"Duration":58588,"SoundDuration":58588,"Delta":635329265},{"NoteNumber":45,"Velocity":43,"Duration":75231,"SoundDuration":75231,"Delta":635381948},{"NoteNumber":88,"Velocity":59,"Duration":66977,"SoundDuration":66977,"Delta":635387853},{"NoteNumber":44,"Velocity":45,"Duration":81548,"SoundDuration":81548,"Delta":635452516},{"NoteNumber":90,"Velocity":60,"Duration":72920,"SoundDuration":72920,"Delta":635454831},{"NoteNumber":92,"Velocity":61,"Duration":78210,"SoundDuration":78210,"Delta":635527751},{"NoteNumber":42,"Velocity":45,"Duration":78210,"SoundDuration":78210,"Delta":635527751},{"NoteNumber":93,"Velocity":62,"Duration":84360,"SoundDuration":84360,"Delta":635605962},{"NoteNumber":92,"Velocity":70,"Duration":236866,"SoundDuration":236866,"Delta":635690322},{"NoteNumber":80,"Velocity":70,"Duration":236866,"SoundDuration":236866,"Delta":635690322},{"NoteNumber":83,"Velocity":70,"Duration":236866,"SoundDuration":236866,"Delta":635690322},{"NoteNumber":40,"Velocity":55,"Duration":236866,"SoundDuration":236866,"Delta":635690322},{"NoteNumber":47,"Velocity":55,"Duration":236866,"SoundDuration":236866,"Delta":635690322},{"NoteNumber":52,"Velocity":63,"Duration":236866,"SoundDuration":236866,"Delta":635690322},{"NoteNumber":68,"Velocity":41,"Duration":31055,"SoundDuration":31055,"Delta":636132195},{"NoteNumber":64,"Velocity":35,"Duration":31055,"SoundDuration":31055,"Delta":636132195},{"NoteNumber":59,"Velocity":45,"Duration":46583,"SoundDuration":46583,"Delta":636132195},{"NoteNumber":56,"Velocity":37,"Duration":46583,"SoundDuration":46583,"Delta":636132195},{"NoteNumber":69,"Velocity":41,"Duration":31055,"SoundDuration":31055,"Delta":636163251},{"NoteNumber":66,"Velocity":35,"Duration":31055,"SoundDuration":31055,"Delta":636163251},{"NoteNumber":71,"Velocity":41,"Duration":31055,"SoundDuration":31055,"Delta":636194307},{"NoteNumber":68,"Velocity":53,"Duration":164835,"SoundDuration":164835,"Delta":636225363},{"NoteNumber":64,"Velocity":45,"Duration":164835,"SoundDuration":164835,"Delta":636225363},{"NoteNumber":56,"Velocity":45,"Duration":82417,"SoundDuration":82417,"Delta":636225363},{"NoteNumber":52,"Velocity":37,"Duration":82417,"SoundDuration":82417,"Delta":636225363},{"NoteNumber":88,"Velocity":56,"Duration":280399,"SoundDuration":280399,"Delta":636555033},{"NoteNumber":85,"Velocity":48,"Duration":280399,"SoundDuration":280399,"Delta":636555033},{"NoteNumber":76,"Velocity":48,"Duration":280399,"SoundDuration":280399,"Delta":636555033},{"NoteNumber":45,"Velocity":45,"Duration":280399,"SoundDuration":280399,"Delta":636555033},{"NoteNumber":40,"Velocity":45,"Duration":280399,"SoundDuration":280399,"Delta":636555033},{"NoteNumber":52,"Velocity":53,"Duration":280399,"SoundDuration":280399,"Delta":636555033},{"NoteNumber":73,"Velocity":40,"Duration":31250,"SoundDuration":31250,"Delta":636957385},{"NoteNumber":69,"Velocity":33,"Duration":31250,"SoundDuration":31250,"Delta":636957385},{"NoteNumber":64,"Velocity":45,"Duration":46875,"SoundDuration":46875,"Delta":636957385},{"NoteNumber":61,"Velocity":38,"Duration":46875,"SoundDuration":46875,"Delta":636957385},{"NoteNumber":75,"Velocity":40,"Duration":31250,"SoundDuration":31250,"Delta":636988635},{"NoteNumber":71,"Velocity":33,"Duration":31250,"SoundDuration":31250,"Delta":636988635},{"NoteNumber":76,"Velocity":40,"Duration":31250,"SoundDuration":31250,"Delta":637019885},{"NoteNumber":73,"Velocity":50,"Duration":159574,"SoundDuration":159574,"Delta":637051135},{"NoteNumber":69,"Velocity":42,"Duration":159574,"SoundDuration":159574,"Delta":637051135},{"NoteNumber":57,"Velocity":38,"Duration":79787,"SoundDuration":79787,"Delta":637051135},{"NoteNumber":61,"Velocity":45,"Duration":79787,"SoundDuration":79787,"Delta":637051135},{"NoteNumber":83,"Velocity":54,"Duration":258620,"SoundDuration":258620,"Delta":637370284},{"NoteNumber":71,"Velocity":45,"Duration":258620,"SoundDuration":258620,"Delta":637370284},{"NoteNumber":80,"Velocity":45,"Duration":258620,"SoundDuration":258620,"Delta":637370284},{"NoteNumber":52,"Velocity":55,"Duration":258620,"SoundDuration":258620,"Delta":637370284},{"NoteNumber":40,"Velocity":46,"Duration":258620,"SoundDuration":258620,"Delta":637370284},{"NoteNumber":47,"Velocity":46,"Duration":258620,"SoundDuration":258620,"Delta":637370284},{"NoteNumber":68,"Velocity":41,"Duration":31055,"SoundDuration":31055,"Delta":637754955},{"NoteNumber":64,"Velocity":35,"Duration":31055,"SoundDuration":31055,"Delta":637754955},{"NoteNumber":56,"Velocity":37,"Duration":46583,"SoundDuration":46583,"Delta":637754955},{"NoteNumber":59,"Velocity":45,"Duration":46583,"SoundDuration":46583,"Delta":637754955},{"NoteNumber":69,"Velocity":41,"Duration":31055,"SoundDuration":31055,"Delta":637786011},{"NoteNumber":66,"Velocity":35,"Duration":31055,"SoundDuration":31055,"Delta":637786011},{"NoteNumber":71,"Velocity":41,"Duration":31055,"SoundDuration":31055,"Delta":637817067},{"NoteNumber":68,"Velocity":53,"Duration":126050,"SoundDuration":126050,"Delta":637848122},{"NoteNumber":64,"Velocity":45,"Duration":126050,"SoundDuration":126050,"Delta":637848122},{"NoteNumber":56,"Velocity":45,"Duration":63025,"SoundDuration":63025,"Delta":637848122},{"NoteNumber":52,"Velocity":37,"Duration":63025,"SoundDuration":63025,"Delta":637848122},{"NoteNumber":80,"Velocity":41,"Duration":77519,"SoundDuration":77519,"Delta":638100223},{"NoteNumber":76,"Velocity":35,"Duration":77519,"SoundDuration":77519,"Delta":638100223},{"NoteNumber":71,"Velocity":47,"Duration":116278,"SoundDuration":116278,"Delta":638100223},{"NoteNumber":68,"Velocity":39,"Duration":116278,"SoundDuration":116278,"Delta":638100223},{"NoteNumber":81,"Velocity":41,"Duration":77519,"SoundDuration":77519,"Delta":638177743},{"NoteNumber":78,"Velocity":35,"Duration":77519,"SoundDuration":77519,"Delta":638177743},{"NoteNumber":83,"Velocity":41,"Duration":77519,"SoundDuration":77519,"Delta":638255262},{"NoteNumber":80,"Velocity":53,"Duration":120967,"SoundDuration":120967,"Delta":638332781},{"NoteNumber":76,"Velocity":45,"Duration":120967,"SoundDuration":120967,"Delta":638332781},{"NoteNumber":68,"Velocity":47,"Duration":120967,"SoundDuration":120967,"Delta":638332781},{"NoteNumber":64,"Velocity":39,"Duration":120967,"SoundDuration":120967,"Delta":638332781},{"NoteNumber":92,"Velocity":42,"Duration":76335,"SoundDuration":76335,"Delta":638574717},{"NoteNumber":88,"Velocity":36,"Duration":76335,"SoundDuration":76335,"Delta":638574717},{"NoteNumber":76,"Velocity":39,"Duration":114503,"SoundDuration":114503,"Delta":638574717},{"NoteNumber":83,"Velocity":47,"Duration":114503,"SoundDuration":114503,"Delta":638574717},{"NoteNumber":93,"Velocity":45,"Duration":76335,"SoundDuration":76335,"Delta":638651053},{"NoteNumber":90,"Velocity":38,"Duration":76335,"SoundDuration":76335,"Delta":638651053},{"NoteNumber":94,"Velocity":48,"Duration":76335,"SoundDuration":76335,"Delta":638727389},{"NoteNumber":91,"Velocity":40,"Duration":76335,"SoundDuration":76335,"Delta":638727389},{"NoteNumber":95,"Velocity":56,"Duration":132743,"SoundDuration":132743,"Delta":638803724},{"NoteNumber":90,"Velocity":48,"Duration":132743,"SoundDuration":132743,"Delta":638803724},{"NoteNumber":83,"Velocity":53,"Duration":132743,"SoundDuration":132743,"Delta":638803724},{"NoteNumber":75,"Velocity":45,"Duration":132743,"SoundDuration":132743,"Delta":638803724},{"NoteNumber":71,"Velocity":42,"Duration":88495,"SoundDuration":88495,"Delta":639069211},{"NoteNumber":72,"Velocity":42,"Duration":81841,"SoundDuration":81841,"Delta":639157706},{"NoteNumber":95,"Velocity":48,"Duration":56390,"SoundDuration":56390,"Delta":639201954},{"NoteNumber":83,"Velocity":40,"Duration":56390,"SoundDuration":56390,"Delta":639201954},{"NoteNumber":87,"Velocity":40,"Duration":56390,"SoundDuration":56390,"Delta":639201954},{"NoteNumber":73,"Velocity":42,"Duration":75188,"SoundDuration":75188,"Delta":639239548},{"NoteNumber":95,"Velocity":48,"Duration":121951,"SoundDuration":121951,"Delta":639314736},{"NoteNumber":83,"Velocity":40,"Duration":121951,"SoundDuration":121951,"Delta":639314736},{"NoteNumber":88,"Velocity":40,"Duration":121951,"SoundDuration":121951,"Delta":639314736},{"NoteNumber":72,"Velocity":47,"Duration":121951,"SoundDuration":121951,"Delta":639314736},{"NoteNumber":94,"Velocity":56,"Duration":116278,"SoundDuration":116278,"Delta":639558639},{"NoteNumber":83,"Velocity":47,"Duration":116278,"SoundDuration":116278,"Delta":639558639},{"NoteNumber":88,"Velocity":47,"Duration":116278,"SoundDuration":116278,"Delta":639558639},{"NoteNumber":61,"Velocity":45,"Duration":77519,"SoundDuration":77519,"Delta":639558639},{"NoteNumber":62,"Velocity":45,"Duration":77519,"SoundDuration":77519,"Delta":639636158},{"NoteNumber":63,"Velocity":45,"Duration":77519,"SoundDuration":77519,"Delta":639713677},{"NoteNumber":95,"Velocity":54,"Duration":120967,"SoundDuration":120967,"Delta":639791197},{"NoteNumber":83,"Velocity":45,"Duration":120967,"SoundDuration":120967,"Delta":639791197},{"NoteNumber":89,"Velocity":45,"Duration":120967,"SoundDuration":120967,"Delta":639791197},{"NoteNumber":62,"Velocity":49,"Duration":120967,"SoundDuration":120967,"Delta":639791197},{"NoteNumber":93,"Velocity":54,"Duration":122950,"SoundDuration":122950,"Delta":640033132},{"NoteNumber":83,"Velocity":45,"Duration":122950,"SoundDuration":122950,"Delta":640033132},{"NoteNumber":90,"Velocity":45,"Duration":122950,"SoundDuration":122950,"Delta":640033132},{"NoteNumber":49,"Velocity":42,"Duration":81967,"SoundDuration":81967,"Delta":640033132},{"NoteNumber":50,"Velocity":42,"Duration":81967,"SoundDuration":81967,"Delta":640115099},{"NoteNumber":51,"Velocity":42,"Duration":81967,"SoundDuration":81967,"Delta":640197067},{"NoteNumber":83,"Velocity":48,"Duration":132743,"SoundDuration":132743,"Delta":640279034},{"NoteNumber":92,"Velocity":56,"Duration":132743,"SoundDuration":132743,"Delta":640279034},{"NoteNumber":88,"Velocity":48,"Duration":132743,"SoundDuration":132743,"Delta":640279034},{"NoteNumber":52,"Velocity":53,"Duration":132743,"SoundDuration":132743,"Delta":640279034},{"NoteNumber":59,"Velocity":47,"Duration":88495,"SoundDuration":88495,"Delta":640544520},{"NoteNumber":60,"Velocity":47,"Duration":81841,"SoundDuration":81841,"Delta":640633016},{"NoteNumber":83,"Velocity":54,"Duration":56390,"SoundDuration":56390,"Delta":640677263},{"NoteNumber":71,"Velocity":45,"Duration":56390,"SoundDuration":56390,"Delta":640677263},{"NoteNumber":75,"Velocity":45,"Duration":56390,"SoundDuration":56390,"Delta":640677263},{"NoteNumber":61,"Velocity":47,"Duration":75188,"SoundDuration":75188,"Delta":640714857},{"NoteNumber":83,"Velocity":54,"Duration":121951,"SoundDuration":121951,"Delta":640790045},{"NoteNumber":71,"Velocity":45,"Duration":121951,"SoundDuration":121951,"Delta":640790045},{"NoteNumber":76,"Velocity":45,"Duration":121951,"SoundDuration":121951,"Delta":640790045},{"NoteNumber":60,"Velocity":53,"Duration":121951,"SoundDuration":121951,"Delta":640790045},{"NoteNumber":82,"Velocity":63,"Duration":116278,"SoundDuration":116278,"Delta":641033948},{"NoteNumber":71,"Velocity":53,"Duration":116278,"SoundDuration":116278,"Delta":641033948},{"NoteNumber":76,"Velocity":53,"Duration":116278,"SoundDuration":116278,"Delta":641033948},{"NoteNumber":49,"Velocity":50,"Duration":77519,"SoundDuration":77519,"Delta":641033948},{"NoteNumber":50,"Velocity":50,"Duration":77519,"SoundDuration":77519,"Delta":641111467},{"NoteNumber":51,"Velocity":50,"Duration":77519,"SoundDuration":77519,"Delta":641188987},{"NoteNumber":83,"Velocity":60,"Duration":120967,"SoundDuration":120967,"Delta":641266506},{"NoteNumber":71,"Velocity":50,"Duration":120967,"SoundDuration":120967,"Delta":641266506},{"NoteNumber":77,"Velocity":50,"Duration":120967,"SoundDuration":120967,"Delta":641266506},{"NoteNumber":50,"Velocity":55,"Duration":120967,"SoundDuration":120967,"Delta":641266506},{"NoteNumber":81,"Velocity":60,"Duration":122950,"SoundDuration":122950,"Delta":641508441},{"NoteNumber":71,"Velocity":50,"Duration":122950,"SoundDuration":122950,"Delta":641508441},{"NoteNumber":78,"Velocity":50,"Duration":122950,"SoundDuration":122950,"Delta":641508441},{"NoteNumber":37,"Velocity":47,"Duration":81967,"SoundDuration":81967,"Delta":641508441},{"NoteNumber":38,"Velocity":47,"Duration":81967,"SoundDuration":81967,"Delta":641590409},{"NoteNumber":39,"Velocity":47,"Duration":81967,"SoundDuration":81967,"Delta":641672376},{"NoteNumber":71,"Velocity":54,"Duration":135135,"SoundDuration":135135,"Delta":641754343},{"NoteNumber":76,"Velocity":54,"Duration":135135,"SoundDuration":135135,"Delta":641754343},{"NoteNumber":80,"Velocity":63,"Duration":135135,"SoundDuration":135135,"Delta":641754343},{"NoteNumber":40,"Velocity":59,"Duration":135135,"SoundDuration":135135,"Delta":641754343},{"NoteNumber":58,"Velocity":67,"Duration":186940,"SoundDuration":186940,"Delta":642023069},{"NoteNumber":46,"Velocity":53,"Duration":186940,"SoundDuration":186940,"Delta":642023069},{"NoteNumber":71,"Velocity":61,"Duration":123721,"SoundDuration":123721,"Delta":642148026},{"NoteNumber":59,"Velocity":51,"Duration":123721,"SoundDuration":123721,"Delta":642148026},{"NoteNumber":63,"Velocity":51,"Duration":123721,"SoundDuration":123721,"Delta":642148026},{"NoteNumber":57,"Velocity":68,"Duration":183345,"SoundDuration":183345,"Delta":642271748},{"NoteNumber":45,"Velocity":54,"Duration":183345,"SoundDuration":183345,"Delta":642271748},{"NoteNumber":71,"Velocity":62,"Duration":121320,"SoundDuration":121320,"Delta":642394257},{"NoteNumber":59,"Velocity":52,"Duration":121320,"SoundDuration":121320,"Delta":642394257},{"NoteNumber":61,"Velocity":52,"Duration":121320,"SoundDuration":121320,"Delta":642394257},{"NoteNumber":64,"Velocity":52,"Duration":121320,"SoundDuration":121320,"Delta":642394257},{"NoteNumber":56,"Velocity":70,"Duration":179637,"SoundDuration":179637,"Delta":642515577},{"NoteNumber":44,"Velocity":56,"Duration":179637,"SoundDuration":179637,"Delta":642515577},{"NoteNumber":70,"Velocity":63,"Duration":118820,"SoundDuration":118820,"Delta":642635691},{"NoteNumber":59,"Velocity":52,"Duration":118820,"SoundDuration":118820,"Delta":642635691},{"NoteNumber":61,"Velocity":52,"Duration":118820,"SoundDuration":118820,"Delta":642635691},{"NoteNumber":64,"Velocity":52,"Duration":118820,"SoundDuration":118820,"Delta":642635691},{"NoteNumber":55,"Velocity":72,"Duration":174890,"SoundDuration":174890,"Delta":642754512},{"NoteNumber":43,"Velocity":58,"Duration":174890,"SoundDuration":174890,"Delta":642754512},{"NoteNumber":71,"Velocity":63,"Duration":115452,"SoundDuration":115452,"Delta":642871672},{"NoteNumber":59,"Velocity":53,"Duration":115452,"SoundDuration":115452,"Delta":642871672},{"NoteNumber":61,"Velocity":53,"Duration":115452,"SoundDuration":115452,"Delta":642871672},{"NoteNumber":64,"Velocity":53,"Duration":115452,"SoundDuration":115452,"Delta":642871672},{"NoteNumber":54,"Velocity":72,"Duration":192307,"SoundDuration":192307,"Delta":642987125},{"NoteNumber":42,"Velocity":58,"Duration":192307,"SoundDuration":192307,"Delta":642987125},{"NoteNumber":71,"Velocity":66,"Duration":128205,"SoundDuration":128205,"Delta":643115330},{"NoteNumber":59,"Velocity":56,"Duration":128205,"SoundDuration":128205,"Delta":643115330},{"NoteNumber":63,"Velocity":56,"Duration":128205,"SoundDuration":128205,"Delta":643115330},{"NoteNumber":69,"Velocity":56,"Duration":128205,"SoundDuration":128205,"Delta":643115330},{"NoteNumber":80,"Velocity":82,"Duration":145630,"SoundDuration":145630,"Delta":643243535},{"NoteNumber":68,"Velocity":66,"Duration":145630,"SoundDuration":145630,"Delta":643243535},{"NoteNumber":76,"Velocity":73,"Duration":145630,"SoundDuration":145630,"Delta":643243535},{"NoteNumber":52,"Velocity":71,"Duration":145630,"SoundDuration":145630,"Delta":643243535},{"NoteNumber":40,"Velocity":58,"Duration":145630,"SoundDuration":145630,"Delta":643243535},{"NoteNumber":47,"Velocity":58,"Duration":145630,"SoundDuration":145630,"Delta":643243535},{"NoteNumber":56,"Velocity":66,"Duration":120967,"SoundDuration":120967,"Delta":643534797},{"NoteNumber":52,"Velocity":62,"Duration":120228,"SoundDuration":120228,"Delta":643655765},{"NoteNumber":68,"Velocity":67,"Duration":111111,"SoundDuration":111111,"Delta":643775993},{"NoteNumber":64,"Velocity":62,"Duration":110586,"SoundDuration":110586,"Delta":643887104},{"NoteNumber":80,"Velocity":71,"Duration":110133,"SoundDuration":110133,"Delta":643997691},{"NoteNumber":76,"Velocity":65,"Duration":109488,"SoundDuration":109488,"Delta":644107824},{"NoteNumber":92,"Velocity":72,"Duration":108887,"SoundDuration":108887,"Delta":644217313},{"NoteNumber":88,"Velocity":66,"Duration":108448,"SoundDuration":108448,"Delta":644326201},{"NoteNumber":68,"Velocity":76,"Duration":107881,"SoundDuration":107881,"Delta":644434649},{"NoteNumber":64,"Velocity":72,"Duration":132743,"SoundDuration":132743,"Delta":644542530},{"NoteNumber":83,"Velocity":82,"Duration":148514,"SoundDuration":148514,"Delta":644675274},{"NoteNumber":71,"Velocity":66,"Duration":148514,"SoundDuration":148514,"Delta":644675274},{"NoteNumber":80,"Velocity":73,"Duration":148514,"SoundDuration":148514,"Delta":644675274},{"NoteNumber":52,"Velocity":71,"Duration":148514,"SoundDuration":148514,"Delta":644675274},{"NoteNumber":40,"Velocity":58,"Duration":148514,"SoundDuration":148514,"Delta":644675274},{"NoteNumber":47,"Velocity":58,"Duration":148514,"SoundDuration":148514,"Delta":644675274},{"NoteNumber":59,"Velocity":66,"Duration":118110,"SoundDuration":118110,"Delta":644972303},{"NoteNumber":56,"Velocity":60,"Duration":118110,"SoundDuration":118110,"Delta":644972303},{"NoteNumber":52,"Velocity":62,"Duration":116418,"SoundDuration":116418,"Delta":645090413},{"NoteNumber":71,"Velocity":67,"Duration":111111,"SoundDuration":111111,"Delta":645206832},{"NoteNumber":68,"Velocity":61,"Duration":111111,"SoundDuration":111111,"Delta":645206832},{"NoteNumber":64,"Velocity":62,"Duration":110328,"SoundDuration":110328,"Delta":645317943},{"NoteNumber":83,"Velocity":71,"Duration":109750,"SoundDuration":109750,"Delta":645428271},{"NoteNumber":80,"Velocity":63,"Duration":109750,"SoundDuration":109750,"Delta":645428271},{"NoteNumber":76,"Velocity":65,"Duration":109171,"SoundDuration":109171,"Delta":645538022},{"NoteNumber":92,"Velocity":72,"Duration":108604,"SoundDuration":108604,"Delta":645647193},{"NoteNumber":88,"Velocity":66,"Duration":107913,"SoundDuration":107913,"Delta":645755798},{"NoteNumber":71,"Velocity":76,"Duration":107142,"SoundDuration":107142,"Delta":645863712},{"NoteNumber":68,"Velocity":70,"Duration":107142,"SoundDuration":107142,"Delta":645863712},{"NoteNumber":64,"Velocity":72,"Duration":145630,"SoundDuration":145630,"Delta":645970855},{"NoteNumber":40,"Velocity":50,"Duration":351562,"SoundDuration":351562,"Delta":646116486},{"NoteNumber":47,"Velocity":58,"Duration":322265,"SoundDuration":322265,"Delta":646145782},{"NoteNumber":50,"Velocity":64,"Duration":292968,"SoundDuration":292968,"Delta":646175079},{"NoteNumber":86,"Velocity":83,"Duration":263671,"SoundDuration":263671,"Delta":646204376},{"NoteNumber":83,"Velocity":80,"Duration":263671,"SoundDuration":263671,"Delta":646204376},{"NoteNumber":74,"Velocity":78,"Duration":263671,"SoundDuration":263671,"Delta":646204376},{"NoteNumber":56,"Velocity":72,"Duration":263671,"SoundDuration":263671,"Delta":646204376},{"NoteNumber":88,"Velocity":56,"Duration":127242,"SoundDuration":127242,"Delta":646836612},{"NoteNumber":85,"Velocity":56,"Duration":127242,"SoundDuration":127242,"Delta":646836612},{"NoteNumber":100,"Velocity":47,"Duration":123456,"SoundDuration":123456,"Delta":646963855},{"NoteNumber":97,"Velocity":47,"Duration":123456,"SoundDuration":123456,"Delta":646963855},{"NoteNumber":83,"Velocity":58,"Duration":120368,"SoundDuration":120368,"Delta":647087311},{"NoteNumber":86,"Velocity":58,"Duration":120368,"SoundDuration":120368,"Delta":647087311},{"NoteNumber":98,"Velocity":49,"Duration":117431,"SoundDuration":117431,"Delta":647207680},{"NoteNumber":95,"Velocity":49,"Duration":117431,"SoundDuration":117431,"Delta":647207680},{"NoteNumber":85,"Velocity":59,"Duration":112113,"SoundDuration":112113,"Delta":647325111},{"NoteNumber":81,"Velocity":59,"Duration":112113,"SoundDuration":112113,"Delta":647325111},{"NoteNumber":97,"Velocity":50,"Duration":108174,"SoundDuration":108174,"Delta":647437224},{"NoteNumber":93,"Velocity":50,"Duration":108174,"SoundDuration":108174,"Delta":647437224},{"NoteNumber":83,"Velocity":61,"Duration":104781,"SoundDuration":104781,"Delta":647545399},{"NoteNumber":80,"Velocity":61,"Duration":104781,"SoundDuration":104781,"Delta":647545399},{"NoteNumber":95,"Velocity":52,"Duration":101823,"SoundDuration":101823,"Delta":647650181},{"NoteNumber":92,"Velocity":52,"Duration":101823,"SoundDuration":101823,"Delta":647650181},{"NoteNumber":81,"Velocity":62,"Duration":98828,"SoundDuration":98828,"Delta":647752004},{"NoteNumber":78,"Velocity":62,"Duration":98828,"SoundDuration":98828,"Delta":647752004},{"NoteNumber":98,"Velocity":53,"Duration":96251,"SoundDuration":96251,"Delta":647850832},{"NoteNumber":90,"Velocity":53,"Duration":96251,"SoundDuration":96251,"Delta":647850832},{"NoteNumber":86,"Velocity":53,"Duration":96251,"SoundDuration":96251,"Delta":647850832},{"NoteNumber":80,"Velocity":63,"Duration":94292,"SoundDuration":94292,"Delta":647947084},{"NoteNumber":76,"Velocity":52,"Duration":94292,"SoundDuration":94292,"Delta":647947084},{"NoteNumber":97,"Velocity":53,"Duration":93750,"SoundDuration":93750,"Delta":648041377},{"NoteNumber":88,"Velocity":53,"Duration":93750,"SoundDuration":93750,"Delta":648041377},{"NoteNumber":85,"Velocity":45,"Duration":93750,"SoundDuration":93750,"Delta":648041377},{"NoteNumber":78,"Velocity":63,"Duration":93750,"SoundDuration":93750,"Delta":648135127},{"NoteNumber":74,"Velocity":52,"Duration":93750,"SoundDuration":93750,"Delta":648135127},{"NoteNumber":95,"Velocity":53,"Duration":93749,"SoundDuration":93749,"Delta":648228877},{"NoteNumber":83,"Velocity":45,"Duration":93749,"SoundDuration":93749,"Delta":648228877},{"NoteNumber":86,"Velocity":45,"Duration":93749,"SoundDuration":93749,"Delta":648228877},{"NoteNumber":76,"Velocity":63,"Duration":93750,"SoundDuration":93750,"Delta":648322627},{"NoteNumber":73,"Velocity":53,"Duration":93750,"SoundDuration":93750,"Delta":648322627},{"NoteNumber":93,"Velocity":54,"Duration":93750,"SoundDuration":93750,"Delta":648416377},{"NoteNumber":85,"Velocity":45,"Duration":93750,"SoundDuration":93750,"Delta":648416377},{"NoteNumber":81,"Velocity":45,"Duration":93750,"SoundDuration":93750,"Delta":648416377},{"NoteNumber":74,"Velocity":64,"Duration":93293,"SoundDuration":93293,"Delta":648510127},{"NoteNumber":71,"Velocity":54,"Duration":93293,"SoundDuration":93293,"Delta":648510127},{"NoteNumber":92,"Velocity":54,"Duration":93167,"SoundDuration":93167,"Delta":648603420},{"NoteNumber":83,"Velocity":45,"Duration":93167,"SoundDuration":93167,"Delta":648603420},{"NoteNumber":80,"Velocity":45,"Duration":93167,"SoundDuration":93167,"Delta":648603420},{"NoteNumber":73,"Velocity":66,"Duration":93167,"SoundDuration":93167,"Delta":648696588},{"NoteNumber":69,"Velocity":56,"Duration":93167,"SoundDuration":93167,"Delta":648696588},{"NoteNumber":90,"Velocity":56,"Duration":92650,"SoundDuration":92650,"Delta":648789756},{"NoteNumber":81,"Velocity":47,"Duration":92650,"SoundDuration":92650,"Delta":648789756},{"NoteNumber":78,"Velocity":47,"Duration":92650,"SoundDuration":92650,"Delta":648789756},{"NoteNumber":71,"Velocity":68,"Duration":92592,"SoundDuration":92592,"Delta":648882406},{"NoteNumber":68,"Velocity":57,"Duration":92592,"SoundDuration":92592,"Delta":648882406},{"NoteNumber":88,"Velocity":56,"Duration":92804,"SoundDuration":92804,"Delta":648974999},{"NoteNumber":80,"Velocity":47,"Duration":92804,"SoundDuration":92804,"Delta":648974999},{"NoteNumber":76,"Velocity":47,"Duration":92804,"SoundDuration":92804,"Delta":648974999},{"NoteNumber":69,"Velocity":68,"Duration":93750,"SoundDuration":93750,"Delta":649067803},{"NoteNumber":66,"Velocity":57,"Duration":93750,"SoundDuration":93750,"Delta":649067803},{"NoteNumber":86,"Velocity":58,"Duration":93750,"SoundDuration":93750,"Delta":649161553},{"NoteNumber":78,"Velocity":48,"Duration":93750,"SoundDuration":93750,"Delta":649161553},{"NoteNumber":74,"Velocity":48,"Duration":93750,"SoundDuration":93750,"Delta":649161553},{"NoteNumber":68,"Velocity":69,"Duration":93667,"SoundDuration":93667,"Delta":649255303},{"NoteNumber":64,"Velocity":59,"Duration":93667,"SoundDuration":93667,"Delta":649255303},{"NoteNumber":85,"Velocity":60,"Duration":93167,"SoundDuration":93167,"Delta":649348971},{"NoteNumber":73,"Velocity":50,"Duration":93167,"SoundDuration":93167,"Delta":649348971},{"NoteNumber":76,"Velocity":50,"Duration":93167,"SoundDuration":93167,"Delta":649348971},{"NoteNumber":66,"Velocity":70,"Duration":93167,"SoundDuration":93167,"Delta":649442138},{"NoteNumber":62,"Velocity":60,"Duration":93167,"SoundDuration":93167,"Delta":649442138},{"NoteNumber":83,"Velocity":62,"Duration":93019,"SoundDuration":93019,"Delta":649535306},{"NoteNumber":74,"Velocity":51,"Duration":93019,"SoundDuration":93019,"Delta":649535306},{"NoteNumber":71,"Velocity":51,"Duration":93019,"SoundDuration":93019,"Delta":649535306},{"NoteNumber":64,"Velocity":72,"Duration":92592,"SoundDuration":92592,"Delta":649628325},{"NoteNumber":61,"Velocity":61,"Duration":92592,"SoundDuration":92592,"Delta":649628325},{"NoteNumber":81,"Velocity":63,"Duration":92592,"SoundDuration":92592,"Delta":649720918},{"NoteNumber":73,"Velocity":52,"Duration":92592,"SoundDuration":92592,"Delta":649720918},{"NoteNumber":69,"Velocity":52,"Duration":92592,"SoundDuration":92592,"Delta":649720918},{"NoteNumber":62,"Velocity":75,"Duration":92464,"SoundDuration":92464,"Delta":649813510},{"NoteNumber":59,"Velocity":63,"Duration":92464,"SoundDuration":92464,"Delta":649813510},{"NoteNumber":80,"Velocity":63,"Duration":92024,"SoundDuration":92024,"Delta":649905975},{"NoteNumber":71,"Velocity":54,"Duration":92024,"SoundDuration":92024,"Delta":649905975},{"NoteNumber":68,"Velocity":54,"Duration":92024,"SoundDuration":92024,"Delta":649905975},{"NoteNumber":61,"Velocity":76,"Duration":92024,"SoundDuration":92024,"Delta":649998000},{"NoteNumber":57,"Velocity":63,"Duration":92024,"SoundDuration":92024,"Delta":649998000},{"NoteNumber":78,"Velocity":65,"Duration":91456,"SoundDuration":91456,"Delta":650090024},{"NoteNumber":69,"Velocity":54,"Duration":91456,"SoundDuration":91456,"Delta":650090024},{"NoteNumber":66,"Velocity":54,"Duration":91456,"SoundDuration":91456,"Delta":650090024},{"NoteNumber":59,"Velocity":76,"Duration":137314,"SoundDuration":137314,"Delta":650181480},{"NoteNumber":56,"Velocity":63,"Duration":137314,"SoundDuration":137314,"Delta":650181480},{"NoteNumber":76,"Velocity":66,"Duration":92594,"SoundDuration":92594,"Delta":650272645},{"NoteNumber":68,"Velocity":54,"Duration":92594,"SoundDuration":92594,"Delta":650272645},{"NoteNumber":64,"Velocity":54,"Duration":92594,"SoundDuration":92594,"Delta":650272645},{"NoteNumber":57,"Velocity":77,"Duration":141634,"SoundDuration":141634,"Delta":650365239},{"NoteNumber":54,"Velocity":64,"Duration":141634,"SoundDuration":141634,"Delta":650365239},{"NoteNumber":75,"Velocity":67,"Duration":95544,"SoundDuration":95544,"Delta":650459310},{"NoteNumber":63,"Velocity":56,"Duration":95544,"SoundDuration":95544,"Delta":650459310},{"NoteNumber":66,"Velocity":56,"Duration":95544,"SoundDuration":95544,"Delta":650459310},{"NoteNumber":57,"Velocity":79,"Duration":146239,"SoundDuration":146239,"Delta":650554854},{"NoteNumber":53,"Velocity":66,"Duration":146239,"SoundDuration":146239,"Delta":650554854},{"NoteNumber":74,"Velocity":68,"Duration":98686,"SoundDuration":98686,"Delta":650651918},{"NoteNumber":65,"Velocity":57,"Duration":98686,"SoundDuration":98686,"Delta":650651918},{"NoteNumber":62,"Velocity":57,"Duration":98686,"SoundDuration":98686,"Delta":650651918},{"NoteNumber":57,"Velocity":81,"Duration":151945,"SoundDuration":151945,"Delta":650750604},{"NoteNumber":52,"Velocity":69,"Duration":151945,"SoundDuration":151945,"Delta":650750604},{"NoteNumber":73,"Velocity":70,"Duration":104694,"SoundDuration":104694,"Delta":650850970},{"NoteNumber":64,"Velocity":59,"Duration":104694,"SoundDuration":104694,"Delta":650850970},{"NoteNumber":61,"Velocity":59,"Duration":104694,"SoundDuration":104694,"Delta":650850970},{"NoteNumber":57,"Velocity":82,"Duration":169413,"SoundDuration":169413,"Delta":650955664},{"NoteNumber":51,"Velocity":69,"Duration":169413,"SoundDuration":169413,"Delta":650955664},{"NoteNumber":72,"Velocity":72,"Duration":118465,"SoundDuration":118465,"Delta":651066820},{"NoteNumber":66,"Velocity":60,"Duration":118465,"SoundDuration":118465,"Delta":651066820},{"NoteNumber":60,"Velocity":60,"Duration":118465,"SoundDuration":118465,"Delta":651066820},{"NoteNumber":52,"Velocity":84,"Duration":194286,"SoundDuration":194286,"Delta":651185285},{"NoteNumber":50,"Velocity":70,"Duration":194286,"SoundDuration":194286,"Delta":651185285},{"NoteNumber":40,"Velocity":70,"Duration":194286,"SoundDuration":194286,"Delta":651185285},{"NoteNumber":44,"Velocity":70,"Duration":194286,"SoundDuration":194286,"Delta":651185285},{"NoteNumber":71,"Velocity":72,"Duration":136620,"SoundDuration":136620,"Delta":651312078},{"NoteNumber":64,"Velocity":60,"Duration":136620,"SoundDuration":136620,"Delta":651312078},{"NoteNumber":59,"Velocity":60,"Duration":136620,"SoundDuration":136620,"Delta":651312078},{"NoteNumber":69,"Velocity":77,"Duration":126050,"SoundDuration":126050,"Delta":651448698},{"NoteNumber":57,"Velocity":54,"Duration":126050,"SoundDuration":126050,"Delta":651448698},{"NoteNumber":61,"Velocity":54,"Duration":126050,"SoundDuration":126050,"Delta":651448698},{"NoteNumber":45,"Velocity":89,"Duration":126050,"SoundDuration":126050,"Delta":651448698},{"NoteNumber":33,"Velocity":75,"Duration":126050,"SoundDuration":126050,"Delta":651448698},{"NoteNumber":40,"Velocity":75,"Duration":126050,"SoundDuration":126050,"Delta":651448698},{"NoteNumber":81,"Velocity":72,"Duration":46875,"SoundDuration":46875,"Delta":651826850},{"NoteNumber":69,"Velocity":60,"Duration":46875,"SoundDuration":46875,"Delta":651826850},{"NoteNumber":83,"Velocity":72,"Duration":60483,"SoundDuration":60483,"Delta":651920600},{"NoteNumber":71,"Velocity":62,"Duration":60483,"SoundDuration":60483,"Delta":651920600},{"NoteNumber":85,"Velocity":74,"Duration":189075,"SoundDuration":189075,"Delta":652162535},{"NoteNumber":73,"Velocity":63,"Duration":189075,"SoundDuration":189075,"Delta":652162535},{"NoteNumber":45,"Velocity":51,"Duration":189075,"SoundDuration":189075,"Delta":652162535},{"NoteNumber":52,"Velocity":51,"Duration":189075,"SoundDuration":189075,"Delta":652162535},{"NoteNumber":61,"Velocity":59,"Duration":189075,"SoundDuration":189075,"Delta":652162535},{"NoteNumber":81,"Velocity":67,"Duration":46012,"SoundDuration":46012,"Delta":652524930},{"NoteNumber":69,"Velocity":57,"Duration":46012,"SoundDuration":46012,"Delta":652524930},{"NoteNumber":68,"Velocity":57,"Duration":56818,"SoundDuration":56818,"Delta":652616955},{"NoteNumber":80,"Velocity":67,"Duration":56818,"SoundDuration":56818,"Delta":652616955},{"NoteNumber":78,"Velocity":76,"Duration":192307,"SoundDuration":192307,"Delta":652844227},{"NoteNumber":66,"Velocity":63,"Duration":192307,"SoundDuration":192307,"Delta":652844227},{"NoteNumber":62,"Velocity":69,"Duration":59523,"SoundDuration":59523,"Delta":653219685},{"NoteNumber":50,"Velocity":57,"Duration":59523,"SoundDuration":59523,"Delta":653219685},{"NoteNumber":71,"Velocity":65,"Duration":654020,"SoundDuration":654020,"Delta":653338733},{"NoteNumber":83,"Velocity":78,"Duration":654020,"SoundDuration":654020,"Delta":653338733},{"NoteNumber":64,"Velocity":69,"Duration":57251,"SoundDuration":57251,"Delta":653338733},{"NoteNumber":52,"Velocity":57,"Duration":57251,"SoundDuration":57251,"Delta":653338733},{"NoteNumber":66,"Velocity":78,"Duration":178571,"SoundDuration":178571,"Delta":653546404},{"NoteNumber":54,"Velocity":65,"Duration":178571,"SoundDuration":178571,"Delta":653546404},{"NoteNumber":61,"Velocity":67,"Duration":46875,"SoundDuration":46875,"Delta":653899003},{"NoteNumber":49,"Velocity":57,"Duration":46875,"SoundDuration":46875,"Delta":653899003},{"NoteNumber":81,"Velocity":72,"Duration":59999,"SoundDuration":59999,"Delta":653992753},{"NoteNumber":78,"Velocity":62,"Duration":59999,"SoundDuration":59999,"Delta":653992753},{"NoteNumber":69,"Velocity":62,"Duration":59999,"SoundDuration":59999,"Delta":653992753},{"NoteNumber":63,"Velocity":67,"Duration":59999,"SoundDuration":59999,"Delta":653992753},{"NoteNumber":51,"Velocity":57,"Duration":59999,"SoundDuration":59999,"Delta":653992753},{"NoteNumber":80,"Velocity":80,"Duration":197368,"SoundDuration":197368,"Delta":654232753},{"NoteNumber":78,"Velocity":67,"Duration":197368,"SoundDuration":197368,"Delta":654232753},{"NoteNumber":68,"Velocity":67,"Duration":197368,"SoundDuration":197368,"Delta":654232753},{"NoteNumber":59,"Velocity":77,"Duration":197368,"SoundDuration":197368,"Delta":654232753},{"NoteNumber":47,"Velocity":64,"Duration":197368,"SoundDuration":197368,"Delta":654232753},{"NoteNumber":56,"Velocity":69,"Duration":47770,"SoundDuration":47770,"Delta":654610415},{"NoteNumber":44,"Velocity":57,"Duration":47770,"SoundDuration":47770,"Delta":654610415},{"NoteNumber":80,"Velocity":72,"Duration":59523,"SoundDuration":59523,"Delta":654705956},{"NoteNumber":68,"Velocity":62,"Duration":59523,"SoundDuration":59523,"Delta":654705956},{"NoteNumber":76,"Velocity":62,"Duration":59523,"SoundDuration":59523,"Delta":654705956},{"NoteNumber":61,"Velocity":69,"Duration":59523,"SoundDuration":59523,"Delta":654705956},{"NoteNumber":49,"Velocity":57,"Duration":59523,"SoundDuration":59523,"Delta":654705956},{"NoteNumber":81,"Velocity":80,"Duration":258620,"SoundDuration":258620,"Delta":654944051},{"NoteNumber":69,"Velocity":67,"Duration":258620,"SoundDuration":258620,"Delta":654944051},{"NoteNumber":76,"Velocity":67,"Duration":258620,"SoundDuration":258620,"Delta":654944051},{"NoteNumber":60,"Velocity":77,"Duration":258620,"SoundDuration":258620,"Delta":654944051},{"NoteNumber":48,"Velocity":64,"Duration":258620,"SoundDuration":258620,"Delta":654944051},{"NoteNumber":54,"Velocity":66,"Duration":47770,"SoundDuration":47770,"Delta":655315454},{"NoteNumber":42,"Velocity":56,"Duration":47770,"SoundDuration":47770,"Delta":655315454},{"NoteNumber":83,"Velocity":72,"Duration":59523,"SoundDuration":59523,"Delta":655410995},{"NoteNumber":69,"Velocity":52,"Duration":59523,"SoundDuration":59523,"Delta":655410995},{"NoteNumber":75,"Velocity":52,"Duration":59523,"SoundDuration":59523,"Delta":655410995},{"NoteNumber":47,"Velocity":66,"Duration":59523,"SoundDuration":59523,"Delta":655410995},{"NoteNumber":35,"Velocity":56,"Duration":59523,"SoundDuration":59523,"Delta":655410995},{"NoteNumber":76,"Velocity":77,"Duration":193965,"SoundDuration":193965,"Delta":655649090},{"NoteNumber":64,"Velocity":54,"Duration":193965,"SoundDuration":193965,"Delta":655649090},{"NoteNumber":68,"Velocity":54,"Duration":193965,"SoundDuration":193965,"Delta":655649090},{"NoteNumber":52,"Velocity":72,"Duration":193965,"SoundDuration":193965,"Delta":655649090},{"NoteNumber":40,"Velocity":60,"Duration":193965,"SoundDuration":193965,"Delta":655649090},{"NoteNumber":47,"Velocity":60,"Duration":193965,"SoundDuration":193965,"Delta":655649090},{"NoteNumber":88,"Velocity":73,"Duration":49342,"SoundDuration":49342,"Delta":656021347},{"NoteNumber":76,"Velocity":63,"Duration":49342,"SoundDuration":49342,"Delta":656021347},{"NoteNumber":80,"Velocity":63,"Duration":49342,"SoundDuration":49342,"Delta":656021347},{"NoteNumber":83,"Velocity":63,"Duration":49342,"SoundDuration":49342,"Delta":656021347},{"NoteNumber":52,"Velocity":66,"Duration":49342,"SoundDuration":49342,"Delta":656021347},{"NoteNumber":40,"Velocity":56,"Duration":49342,"SoundDuration":49342,"Delta":656021347},{"NoteNumber":89,"Velocity":73,"Duration":56818,"SoundDuration":56818,"Delta":656120031},{"NoteNumber":85,"Velocity":73,"Duration":56818,"SoundDuration":56818,"Delta":656120031},{"NoteNumber":77,"Velocity":63,"Duration":56818,"SoundDuration":56818,"Delta":656120031},{"NoteNumber":81,"Velocity":63,"Duration":56818,"SoundDuration":56818,"Delta":656120031},{"NoteNumber":51,"Velocity":66,"Duration":56818,"SoundDuration":56818,"Delta":656120031},{"NoteNumber":39,"Velocity":56,"Duration":56818,"SoundDuration":56818,"Delta":656120031},{"NoteNumber":89,"Velocity":81,"Duration":256410,"SoundDuration":256410,"Delta":656347304},{"NoteNumber":77,"Velocity":69,"Duration":256410,"SoundDuration":256410,"Delta":656347304},{"NoteNumber":82,"Velocity":69,"Duration":256410,"SoundDuration":256410,"Delta":656347304},{"NoteNumber":86,"Velocity":69,"Duration":256410,"SoundDuration":256410,"Delta":656347304},{"NoteNumber":50,"Velocity":72,"Duration":256410,"SoundDuration":256410,"Delta":656347304},{"NoteNumber":38,"Velocity":60,"Duration":256410,"SoundDuration":256410,"Delta":656347304},{"NoteNumber":91,"Velocity":74,"Duration":49999,"SoundDuration":49999,"Delta":656717350},{"NoteNumber":79,"Velocity":63,"Duration":49999,"SoundDuration":49999,"Delta":656717350},{"NoteNumber":83,"Velocity":63,"Duration":49999,"SoundDuration":49999,"Delta":656717350},{"NoteNumber":86,"Velocity":63,"Duration":49999,"SoundDuration":49999,"Delta":656717350},{"NoteNumber":53,"Velocity":69,"Duration":49999,"SoundDuration":49999,"Delta":656717350},{"NoteNumber":41,"Velocity":57,"Duration":49999,"SoundDuration":49999,"Delta":656717350},{"NoteNumber":92,"Velocity":74,"Duration":57692,"SoundDuration":57692,"Delta":656817350},{"NoteNumber":80,"Velocity":63,"Duration":57692,"SoundDuration":57692,"Delta":656817350},{"NoteNumber":83,"Velocity":63,"Duration":57692,"SoundDuration":57692,"Delta":656817350},{"NoteNumber":86,"Velocity":63,"Duration":57692,"SoundDuration":57692,"Delta":656817350},{"NoteNumber":52,"Velocity":69,"Duration":57692,"SoundDuration":57692,"Delta":656817350},{"NoteNumber":40,"Velocity":57,"Duration":57692,"SoundDuration":57692,"Delta":656817350},{"NoteNumber":93,"Velocity":82,"Duration":195652,"SoundDuration":195652,"Delta":657048119},{"NoteNumber":81,"Velocity":70,"Duration":195652,"SoundDuration":195652,"Delta":657048119},{"NoteNumber":85,"Velocity":70,"Duration":195652,"SoundDuration":195652,"Delta":657048119},{"NoteNumber":45,"Velocity":76,"Duration":195652,"SoundDuration":195652,"Delta":657048119},{"NoteNumber":40,"Velocity":76,"Duration":195652,"SoundDuration":195652,"Delta":657048119},{"NoteNumber":33,"Velocity":63,"Duration":195652,"SoundDuration":195652,"Delta":657048119},{"NoteNumber":57,"Velocity":80,"Duration":49999,"SoundDuration":49999,"Delta":657428036},{"NoteNumber":45,"Velocity":67,"Duration":49999,"SoundDuration":49999,"Delta":657428036},{"NoteNumber":59,"Velocity":82,"Duration":60483,"SoundDuration":60483,"Delta":657528036},{"NoteNumber":47,"Velocity":70,"Duration":60483,"SoundDuration":60483,"Delta":657528036},{"NoteNumber":81,"Velocity":80,"Duration":185950,"SoundDuration":185950,"Delta":657769972},{"NoteNumber":69,"Velocity":67,"Duration":185950,"SoundDuration":185950,"Delta":657769972},{"NoteNumber":73,"Velocity":67,"Duration":185950,"SoundDuration":185950,"Delta":657769972},{"NoteNumber":76,"Velocity":67,"Duration":185950,"SoundDuration":185950,"Delta":657769972},{"NoteNumber":61,"Velocity":86,"Duration":185950,"SoundDuration":185950,"Delta":657769972},{"NoteNumber":49,"Velocity":72,"Duration":185950,"SoundDuration":185950,"Delta":657769972},{"NoteNumber":57,"Velocity":80,"Duration":48076,"SoundDuration":48076,"Delta":658128200},{"NoteNumber":45,"Velocity":67,"Duration":48076,"SoundDuration":48076,"Delta":658128200},{"NoteNumber":56,"Velocity":80,"Duration":57251,"SoundDuration":57251,"Delta":658224354},{"NoteNumber":44,"Velocity":67,"Duration":57251,"SoundDuration":57251,"Delta":658224354},{"NoteNumber":54,"Velocity":86,"Duration":193965,"SoundDuration":193965,"Delta":658453361},{"NoteNumber":42,"Velocity":72,"Duration":193965,"SoundDuration":193965,"Delta":658453361},{"NoteNumber":95,"Velocity":79,"Duration":59523,"SoundDuration":59523,"Delta":658831029},{"NoteNumber":83,"Velocity":66,"Duration":59523,"SoundDuration":59523,"Delta":658831029},{"NoteNumber":47,"Velocity":70,"Duration":686745,"SoundDuration":686745,"Delta":658920315},{"NoteNumber":54,"Velocity":70,"Duration":671864,"SoundDuration":671864,"Delta":658935196},{"NoteNumber":97,"Velocity":81,"Duration":57251,"SoundDuration":57251,"Delta":658950077},{"NoteNumber":85,"Velocity":69,"Duration":57251,"SoundDuration":57251,"Delta":658950077},{"NoteNumber":62,"Velocity":83,"Duration":656983,"SoundDuration":656983,"Delta":658950077},{"NoteNumber":98,"Velocity":84,"Duration":238095,"SoundDuration":238095,"Delta":659158920},{"NoteNumber":86,"Velocity":71,"Duration":238095,"SoundDuration":238095,"Delta":659158920},{"NoteNumber":95,"Velocity":76,"Duration":47770,"SoundDuration":47770,"Delta":659511519},{"NoteNumber":83,"Velocity":63,"Duration":47770,"SoundDuration":47770,"Delta":659511519},{"NoteNumber":93,"Velocity":76,"Duration":57692,"SoundDuration":57692,"Delta":659607060},{"NoteNumber":81,"Velocity":63,"Duration":57692,"SoundDuration":57692,"Delta":659607060},{"NoteNumber":90,"Velocity":63,"Duration":57692,"SoundDuration":57692,"Delta":659607060},{"NoteNumber":50,"Velocity":72,"Duration":57692,"SoundDuration":57692,"Delta":659607060},{"NoteNumber":38,"Velocity":60,"Duration":57692,"SoundDuration":57692,"Delta":659607060},{"NoteNumber":47,"Velocity":60,"Duration":57692,"SoundDuration":57692,"Delta":659607060},{"NoteNumber":93,"Velocity":81,"Duration":193965,"SoundDuration":193965,"Delta":659837829},{"NoteNumber":81,"Velocity":69,"Duration":193965,"SoundDuration":193965,"Delta":659837829},{"NoteNumber":86,"Velocity":69,"Duration":193965,"SoundDuration":193965,"Delta":659837829},{"NoteNumber":52,"Velocity":77,"Duration":193965,"SoundDuration":193965,"Delta":659837829},{"NoteNumber":40,"Velocity":64,"Duration":193965,"SoundDuration":193965,"Delta":659837829},{"NoteNumber":47,"Velocity":64,"Duration":193965,"SoundDuration":193965,"Delta":659837829},{"NoteNumber":92,"Velocity":74,"Duration":46583,"SoundDuration":46583,"Delta":660210086},{"NoteNumber":86,"Velocity":63,"Duration":46583,"SoundDuration":46583,"Delta":660210086},{"NoteNumber":80,"Velocity":63,"Duration":46583,"SoundDuration":46583,"Delta":660210086},{"NoteNumber":52,"Velocity":72,"Duration":46583,"SoundDuration":46583,"Delta":660210086},{"NoteNumber":47,"Velocity":62,"Duration":46583,"SoundDuration":46583,"Delta":660210086},{"NoteNumber":40,"Velocity":62,"Duration":46583,"SoundDuration":46583,"Delta":660210086},{"NoteNumber":90,"Velocity":78,"Duration":59523,"SoundDuration":59523,"Delta":660303254},{"NoteNumber":86,"Velocity":65,"Duration":59523,"SoundDuration":59523,"Delta":660303254},{"NoteNumber":78,"Velocity":65,"Duration":59523,"SoundDuration":59523,"Delta":660303254},{"NoteNumber":54,"Velocity":72,"Duration":59523,"SoundDuration":59523,"Delta":660303254},{"NoteNumber":47,"Velocity":62,"Duration":59523,"SoundDuration":59523,"Delta":660303254},{"NoteNumber":42,"Velocity":62,"Duration":59523,"SoundDuration":59523,"Delta":660303254},{"NoteNumber":88,"Velocity":80,"Duration":192307,"SoundDuration":192307,"Delta":660541349},{"NoteNumber":86,"Velocity":67,"Duration":192307,"SoundDuration":192307,"Delta":660541349},{"NoteNumber":76,"Velocity":67,"Duration":192307,"SoundDuration":192307,"Delta":660541349},{"NoteNumber":56,"Velocity":79,"Duration":192307,"SoundDuration":192307,"Delta":660541349},{"NoteNumber":47,"Velocity":66,"Duration":192307,"SoundDuration":192307,"Delta":660541349},{"NoteNumber":44,"Velocity":66,"Duration":192307,"SoundDuration":192307,"Delta":660541349},{"NoteNumber":86,"Velocity":64,"Duration":48076,"SoundDuration":48076,"Delta":660911395},{"NoteNumber":90,"Velocity":77,"Duration":48076,"SoundDuration":48076,"Delta":660911395},{"NoteNumber":78,"Velocity":64,"Duration":48076,"SoundDuration":48076,"Delta":660911395},{"NoteNumber":47,"Velocity":58,"Duration":48076,"SoundDuration":48076,"Delta":660911395},{"NoteNumber":51,"Velocity":70,"Duration":48076,"SoundDuration":48076,"Delta":660911395},{"NoteNumber":39,"Velocity":58,"Duration":48076,"SoundDuration":48076,"Delta":660911395},{"NoteNumber":92,"Velocity":77,"Duration":61983,"SoundDuration":61983,"Delta":661007549},{"NoteNumber":86,"Velocity":64,"Duration":61983,"SoundDuration":61983,"Delta":661007549},{"NoteNumber":80,"Velocity":64,"Duration":61983,"SoundDuration":61983,"Delta":661007549},{"NoteNumber":47,"Velocity":70,"Duration":61983,"SoundDuration":61983,"Delta":661007549},{"NoteNumber":52,"Velocity":58,"Duration":61983,"SoundDuration":61983,"Delta":661007549},{"NoteNumber":40,"Velocity":58,"Duration":61983,"SoundDuration":61983,"Delta":661007549},{"NoteNumber":93,"Velocity":80,"Duration":210299,"SoundDuration":210299,"Delta":661255483},{"NoteNumber":81,"Velocity":67,"Duration":210299,"SoundDuration":210299,"Delta":661255483},{"NoteNumber":85,"Velocity":67,"Duration":210299,"SoundDuration":210299,"Delta":661255483},{"NoteNumber":49,"Velocity":76,"Duration":210299,"SoundDuration":210299,"Delta":661255483},{"NoteNumber":37,"Velocity":63,"Duration":210299,"SoundDuration":210299,"Delta":661255483},{"NoteNumber":40,"Velocity":63,"Duration":210299,"SoundDuration":210299,"Delta":661255483},{"NoteNumber":45,"Velocity":63,"Duration":210299,"SoundDuration":210299,"Delta":661255483},{"NoteNumber":97,"Velocity":84,"Duration":135147,"SoundDuration":135147,"Delta":661535883},{"NoteNumber":88,"Velocity":71,"Duration":135147,"SoundDuration":135147,"Delta":661535883},{"NoteNumber":85,"Velocity":71,"Duration":135147,"SoundDuration":135147,"Delta":661535883},{"NoteNumber":61,"Velocity":77,"Duration":135147,"SoundDuration":135147,"Delta":661535883},{"NoteNumber":57,"Velocity":64,"Duration":135147,"SoundDuration":135147,"Delta":661535883},{"NoteNumber":52,"Velocity":64,"Duration":135147,"SoundDuration":135147,"Delta":661535883},{"NoteNumber":100,"Velocity":88,"Duration":500555,"SoundDuration":500555,"Delta":661806178},{"NoteNumber":93,"Velocity":74,"Duration":500555,"SoundDuration":500555,"Delta":661806178},{"NoteNumber":88,"Velocity":74,"Duration":500555,"SoundDuration":500555,"Delta":661806178},{"NoteNumber":64,"Velocity":80,"Duration":500555,"SoundDuration":500555,"Delta":661806178},{"NoteNumber":61,"Velocity":67,"Duration":500555,"SoundDuration":500555,"Delta":661806178},{"NoteNumber":57,"Velocity":67,"Duration":500555,"SoundDuration":500555,"Delta":661806178},{"NoteNumber":100,"Velocity":85,"Duration":64655,"SoundDuration":64655,"Delta":662306734},{"NoteNumber":88,"Velocity":72,"Duration":64655,"SoundDuration":64655,"Delta":662306734},{"NoteNumber":95,"Velocity":72,"Duration":64655,"SoundDuration":64655,"Delta":662306734},{"NoteNumber":59,"Velocity":77,"Duration":64655,"SoundDuration":64655,"Delta":662306734},{"NoteNumber":44,"Velocity":64,"Duration":64655,"SoundDuration":64655,"Delta":662306734},{"NoteNumber":52,"Velocity":64,"Duration":64655,"SoundDuration":64655,"Delta":662306734},{"NoteNumber":100,"Velocity":85,"Duration":64655,"SoundDuration":64655,"Delta":662565354},{"NoteNumber":96,"Velocity":72,"Duration":64655,"SoundDuration":64655,"Delta":662565354},{"NoteNumber":88,"Velocity":72,"Duration":64655,"SoundDuration":64655,"Delta":662565354},{"NoteNumber":60,"Velocity":77,"Duration":64655,"SoundDuration":64655,"Delta":662565354},{"NoteNumber":52,"Velocity":64,"Duration":64655,"SoundDuration":64655,"Delta":662565354},{"NoteNumber":44,"Velocity":64,"Duration":64655,"SoundDuration":64655,"Delta":662565354},{"NoteNumber":100,"Velocity":92,"Duration":193965,"SoundDuration":193965,"Delta":662823975},{"NoteNumber":98,"Velocity":92,"Duration":193965,"SoundDuration":193965,"Delta":662823975},{"NoteNumber":88,"Velocity":78,"Duration":193965,"SoundDuration":193965,"Delta":662823975},{"NoteNumber":62,"Velocity":80,"Duration":193965,"SoundDuration":193965,"Delta":662823975},{"NoteNumber":52,"Velocity":67,"Duration":193965,"SoundDuration":193965,"Delta":662823975},{"NoteNumber":45,"Velocity":67,"Duration":193965,"SoundDuration":193965,"Delta":662823975},{"NoteNumber":100,"Velocity":87,"Duration":61475,"SoundDuration":61475,"Delta":663205546},{"NoteNumber":97,"Velocity":73,"Duration":61475,"SoundDuration":61475,"Delta":663205546},{"NoteNumber":88,"Velocity":73,"Duration":61475,"SoundDuration":61475,"Delta":663205546},{"NoteNumber":61,"Velocity":72,"Duration":61475,"SoundDuration":61475,"Delta":663205546},{"NoteNumber":52,"Velocity":62,"Duration":61475,"SoundDuration":61475,"Delta":663205546},{"NoteNumber":45,"Velocity":62,"Duration":61475,"SoundDuration":61475,"Delta":663205546},{"NoteNumber":100,"Velocity":87,"Duration":60975,"SoundDuration":60975,"Delta":663328497},{"NoteNumber":96,"Velocity":73,"Duration":60975,"SoundDuration":60975,"Delta":663328497},{"NoteNumber":88,"Velocity":73,"Duration":60975,"SoundDuration":60975,"Delta":663328497},{"NoteNumber":60,"Velocity":72,"Duration":60975,"SoundDuration":60975,"Delta":663328497},{"NoteNumber":52,"Velocity":62,"Duration":60975,"SoundDuration":60975,"Delta":663328497},{"NoteNumber":45,"Velocity":62,"Duration":60975,"SoundDuration":60975,"Delta":663328497},{"NoteNumber":100,"Velocity":95,"Duration":184426,"SoundDuration":184426,"Delta":663572399},{"NoteNumber":95,"Velocity":81,"Duration":184426,"SoundDuration":184426,"Delta":663572399},{"NoteNumber":88,"Velocity":81,"Duration":184426,"SoundDuration":184426,"Delta":663572399},{"NoteNumber":59,"Velocity":80,"Duration":184426,"SoundDuration":184426,"Delta":663572399},{"NoteNumber":51,"Velocity":67,"Duration":184426,"SoundDuration":184426,"Delta":663572399},{"NoteNumber":45,"Velocity":67,"Duration":184426,"SoundDuration":184426,"Delta":663572399},{"NoteNumber":100,"Velocity":90,"Duration":127118,"SoundDuration":127118,"Delta":663818301},{"NoteNumber":88,"Velocity":74,"Duration":127118,"SoundDuration":127118,"Delta":663818301},{"NoteNumber":94,"Velocity":74,"Duration":127118,"SoundDuration":127118,"Delta":663818301},{"NoteNumber":58,"Velocity":72,"Duration":127118,"SoundDuration":127118,"Delta":663818301},{"NoteNumber":45,"Velocity":62,"Duration":127118,"SoundDuration":127118,"Delta":663818301},{"NoteNumber":50,"Velocity":62,"Duration":127118,"SoundDuration":127118,"Delta":663818301},{"NoteNumber":100,"Velocity":90,"Duration":65217,"SoundDuration":65217,"Delta":664072538},{"NoteNumber":93,"Velocity":74,"Duration":65217,"SoundDuration":65217,"Delta":664072538},{"NoteNumber":88,"Velocity":74,"Duration":65217,"SoundDuration":65217,"Delta":664072538},{"NoteNumber":57,"Velocity":72,"Duration":65217,"SoundDuration":65217,"Delta":664072538},{"NoteNumber":49,"Velocity":62,"Duration":65217,"SoundDuration":65217,"Delta":664072538},{"NoteNumber":45,"Velocity":62,"Duration":65217,"SoundDuration":65217,"Delta":664072538},{"NoteNumber":100,"Velocity":93,"Duration":184426,"SoundDuration":184426,"Delta":664333408},{"NoteNumber":88,"Velocity":79,"Duration":184426,"SoundDuration":184426,"Delta":664333408},{"NoteNumber":93,"Velocity":79,"Duration":184426,"SoundDuration":184426,"Delta":664333408},{"NoteNumber":57,"Velocity":81,"Duration":184426,"SoundDuration":184426,"Delta":664333408},{"NoteNumber":49,"Velocity":69,"Duration":184426,"SoundDuration":184426,"Delta":664333408},{"NoteNumber":40,"Velocity":69,"Duration":184426,"SoundDuration":184426,"Delta":664333408},{"NoteNumber":100,"Velocity":87,"Duration":123966,"SoundDuration":123966,"Delta":664579309},{"NoteNumber":88,"Velocity":73,"Duration":123966,"SoundDuration":123966,"Delta":664579309},{"NoteNumber":92,"Velocity":73,"Duration":123966,"SoundDuration":123966,"Delta":664579309},{"NoteNumber":56,"Velocity":72,"Duration":123966,"SoundDuration":123966,"Delta":664579309},{"NoteNumber":48,"Velocity":62,"Duration":123966,"SoundDuration":123966,"Delta":664579309},{"NoteNumber":40,"Velocity":62,"Duration":123966,"SoundDuration":123966,"Delta":664579309},{"NoteNumber":100,"Velocity":87,"Duration":65217,"SoundDuration":65217,"Delta":664827243},{"NoteNumber":93,"Velocity":73,"Duration":65217,"SoundDuration":65217,"Delta":664827243},{"NoteNumber":88,"Velocity":73,"Duration":65217,"SoundDuration":65217,"Delta":664827243},{"NoteNumber":57,"Velocity":72,"Duration":65217,"SoundDuration":65217,"Delta":664827243},{"NoteNumber":49,"Velocity":62,"Duration":65217,"SoundDuration":65217,"Delta":664827243},{"NoteNumber":40,"Velocity":62,"Duration":65217,"SoundDuration":65217,"Delta":664827243},{"NoteNumber":100,"Velocity":94,"Duration":500000,"SoundDuration":500000,"Delta":665088113},{"NoteNumber":97,"Velocity":80,"Duration":500000,"SoundDuration":500000,"Delta":665088113},{"NoteNumber":88,"Velocity":80,"Duration":500000,"SoundDuration":500000,"Delta":665088113},{"NoteNumber":61,"Velocity":81,"Duration":500000,"SoundDuration":500000,"Delta":665088113},{"NoteNumber":56,"Velocity":69,"Duration":500000,"SoundDuration":500000,"Delta":665088113},{"NoteNumber":52,"Velocity":69,"Duration":500000,"SoundDuration":500000,"Delta":665088113},{"NoteNumber":100,"Velocity":90,"Duration":66371,"SoundDuration":66371,"Delta":665588113},{"NoteNumber":95,"Velocity":76,"Duration":66371,"SoundDuration":66371,"Delta":665588113},{"NoteNumber":88,"Velocity":76,"Duration":66371,"SoundDuration":66371,"Delta":665588113},{"NoteNumber":59,"Velocity":73,"Duration":66371,"SoundDuration":66371,"Delta":665588113},{"NoteNumber":56,"Velocity":63,"Duration":66371,"SoundDuration":66371,"Delta":665588113},{"NoteNumber":50,"Velocity":63,"Duration":66371,"SoundDuration":66371,"Delta":665588113},{"NoteNumber":57,"Velocity":84,"Duration":265486,"SoundDuration":265486,"Delta":665853599},{"NoteNumber":45,"Velocity":71,"Duration":265486,"SoundDuration":265486,"Delta":665853599},{"NoteNumber":49,"Velocity":71,"Duration":265486,"SoundDuration":265486,"Delta":665853599},{"NoteNumber":93,"Velocity":80,"Duration":111940,"SoundDuration":111940,"Delta":666241037},{"NoteNumber":81,"Velocity":67,"Duration":111940,"SoundDuration":111940,"Delta":666241037},{"NoteNumber":93,"Velocity":80,"Duration":121951,"SoundDuration":121951,"Delta":666352977},{"NoteNumber":81,"Velocity":67,"Duration":121951,"SoundDuration":121951,"Delta":666352977},{"NoteNumber":93,"Velocity":83,"Duration":125000,"SoundDuration":125000,"Delta":666596880},{"NoteNumber":81,"Velocity":71,"Duration":125000,"SoundDuration":125000,"Delta":666596880},{"NoteNumber":69,"Velocity":75,"Duration":111111,"SoundDuration":111111,"Delta":666969830},{"NoteNumber":57,"Velocity":63,"Duration":111111,"SoundDuration":111111,"Delta":666969830},{"NoteNumber":69,"Velocity":75,"Duration":122950,"SoundDuration":122950,"Delta":667080941},{"NoteNumber":57,"Velocity":63,"Duration":122950,"SoundDuration":122950,"Delta":667080941},{"NoteNumber":69,"Velocity":81,"Duration":122950,"SoundDuration":122950,"Delta":667326843},{"NoteNumber":57,"Velocity":68,"Duration":122950,"SoundDuration":122950,"Delta":667326843},{"NoteNumber":57,"Velocity":77,"Duration":112782,"SoundDuration":112782,"Delta":667695695},{"NoteNumber":45,"Velocity":65,"Duration":112782,"SoundDuration":112782,"Delta":667695695},{"NoteNumber":57,"Velocity":77,"Duration":121951,"SoundDuration":121951,"Delta":667808477},{"NoteNumber":45,"Velocity":65,"Duration":121951,"SoundDuration":121951,"Delta":667808477},{"NoteNumber":57,"Velocity":85,"Duration":126050,"SoundDuration":126050,"Delta":668052380},{"NoteNumber":45,"Velocity":72,"Duration":126050,"SoundDuration":126050,"Delta":668052380},{"NoteNumber":45,"Velocity":72,"Duration":111111,"SoundDuration":111111,"Delta":668427431},{"NoteNumber":33,"Velocity":61,"Duration":111111,"SoundDuration":111111,"Delta":668427431},{"NoteNumber":45,"Velocity":72,"Duration":122950,"SoundDuration":122950,"Delta":668538542},{"NoteNumber":33,"Velocity":61,"Duration":122950,"SoundDuration":122950,"Delta":668538542},{"NoteNumber":69,"Velocity":83,"Duration":694939,"SoundDuration":694939,"Delta":668784444},{"NoteNumber":57,"Velocity":71,"Duration":694939,"SoundDuration":694939,"Delta":668784444},{"NoteNumber":45,"Velocity":80,"Duration":694939,"SoundDuration":694939,"Delta":668784444},{"NoteNumber":33,"Velocity":67,"Duration":694939,"SoundDuration":694939,"Delta":668784444},{"NoteNumber":60,"Velocity":66,"Duration":108695,"SoundDuration":108695,"Delta":669153296},{"NoteNumber":63,"Velocity":66,"Duration":108695,"SoundDuration":108695,"Delta":669153296},{"NoteNumber":66,"Velocity":66,"Duration":108695,"SoundDuration":108695,"Delta":669153296},{"NoteNumber":48,"Velocity":49,"Duration":108695,"SoundDuration":108695,"Delta":669153296},{"NoteNumber":51,"Velocity":49,"Duration":108695,"SoundDuration":108695,"Delta":669153296},{"NoteNumber":54,"Velocity":49,"Duration":108695,"SoundDuration":108695,"Delta":669153296},{"NoteNumber":60,"Velocity":66,"Duration":217391,"SoundDuration":217391,"Delta":669261992},{"NoteNumber":63,"Velocity":66,"Duration":217391,"SoundDuration":217391,"Delta":669261992},{"NoteNumber":66,"Velocity":66,"Duration":217391,"SoundDuration":217391,"Delta":669261992},{"NoteNumber":48,"Velocity":49,"Duration":217391,"SoundDuration":217391,"Delta":669261992},{"NoteNumber":51,"Velocity":49,"Duration":217391,"SoundDuration":217391,"Delta":669261992},{"NoteNumber":54,"Velocity":49,"Duration":217391,"SoundDuration":217391,"Delta":669261992},{"NoteNumber":69,"Velocity":81,"Duration":479146,"SoundDuration":479146,"Delta":669479383},{"NoteNumber":57,"Velocity":69,"Duration":479146,"SoundDuration":479146,"Delta":669479383},{"NoteNumber":45,"Velocity":64,"Duration":479146,"SoundDuration":479146,"Delta":669479383},{"NoteNumber":33,"Velocity":54,"Duration":479146,"SoundDuration":479146,"Delta":669479383},{"NoteNumber":60,"Velocity":64,"Duration":110293,"SoundDuration":110293,"Delta":669848236},{"NoteNumber":63,"Velocity":64,"Duration":110293,"SoundDuration":110293,"Delta":669848236},{"NoteNumber":66,"Velocity":64,"Duration":110293,"SoundDuration":110293,"Delta":669848236},{"NoteNumber":48,"Velocity":50,"Duration":110293,"SoundDuration":110293,"Delta":669848236},{"NoteNumber":51,"Velocity":50,"Duration":110293,"SoundDuration":110293,"Delta":669848236},{"NoteNumber":54,"Velocity":50,"Duration":110293,"SoundDuration":110293,"Delta":669848236},{"NoteNumber":60,"Velocity":64,"Duration":290588,"SoundDuration":290588,"Delta":669958530},{"NoteNumber":63,"Velocity":64,"Duration":290588,"SoundDuration":290588,"Delta":669958530},{"NoteNumber":66,"Velocity":64,"Duration":290588,"SoundDuration":290588,"Delta":669958530},{"NoteNumber":48,"Velocity":50,"Duration":290588,"SoundDuration":290588,"Delta":669958530},{"NoteNumber":51,"Velocity":50,"Duration":290588,"SoundDuration":290588,"Delta":669958530},{"NoteNumber":54,"Velocity":50,"Duration":290588,"SoundDuration":290588,"Delta":669958530},{"NoteNumber":57,"Velocity":63,"Duration":94936,"SoundDuration":94936,"Delta":670154182},{"NoteNumber":69,"Velocity":72,"Duration":94936,"SoundDuration":94936,"Delta":670154182},{"NoteNumber":33,"Velocity":49,"Duration":94936,"SoundDuration":94936,"Delta":670154182},{"NoteNumber":45,"Velocity":57,"Duration":94936,"SoundDuration":94936,"Delta":670154182},{"NoteNumber":69,"Velocity":83,"Duration":694939,"SoundDuration":694939,"Delta":670249119},{"NoteNumber":57,"Velocity":71,"Duration":694939,"SoundDuration":694939,"Delta":670249119},{"NoteNumber":45,"Velocity":80,"Duration":694939,"SoundDuration":694939,"Delta":670249119},{"NoteNumber":33,"Velocity":67,"Duration":694939,"SoundDuration":694939,"Delta":670249119},{"NoteNumber":60,"Velocity":66,"Duration":108695,"SoundDuration":108695,"Delta":670617971},{"NoteNumber":63,"Velocity":66,"Duration":108695,"SoundDuration":108695,"Delta":670617971},{"NoteNumber":66,"Velocity":66,"Duration":108695,"SoundDuration":108695,"Delta":670617971},{"NoteNumber":48,"Velocity":49,"Duration":108695,"SoundDuration":108695,"Delta":670617971},{"NoteNumber":51,"Velocity":49,"Duration":108695,"SoundDuration":108695,"Delta":670617971},{"NoteNumber":54,"Velocity":49,"Duration":108695,"SoundDuration":108695,"Delta":670617971},{"NoteNumber":60,"Velocity":66,"Duration":217391,"SoundDuration":217391,"Delta":670726667},{"NoteNumber":63,"Velocity":66,"Duration":217391,"SoundDuration":217391,"Delta":670726667},{"NoteNumber":66,"Velocity":66,"Duration":217391,"SoundDuration":217391,"Delta":670726667},{"NoteNumber":48,"Velocity":49,"Duration":217391,"SoundDuration":217391,"Delta":670726667},{"NoteNumber":51,"Velocity":49,"Duration":217391,"SoundDuration":217391,"Delta":670726667},{"NoteNumber":54,"Velocity":49,"Duration":217391,"SoundDuration":217391,"Delta":670726667},{"NoteNumber":69,"Velocity":81,"Duration":479146,"SoundDuration":479146,"Delta":670944058},{"NoteNumber":57,"Velocity":69,"Duration":479146,"SoundDuration":479146,"Delta":670944058},{"NoteNumber":45,"Velocity":64,"Duration":479146,"SoundDuration":479146,"Delta":670944058},{"NoteNumber":33,"Velocity":54,"Duration":479146,"SoundDuration":479146,"Delta":670944058},{"NoteNumber":60,"Velocity":64,"Duration":110293,"SoundDuration":110293,"Delta":671312910},{"NoteNumber":63,"Velocity":64,"Duration":110293,"SoundDuration":110293,"Delta":671312910},{"NoteNumber":66,"Velocity":64,"Duration":110293,"SoundDuration":110293,"Delta":671312910},{"NoteNumber":48,"Velocity":50,"Duration":110293,"SoundDuration":110293,"Delta":671312910},{"NoteNumber":51,"Velocity":50,"Duration":110293,"SoundDuration":110293,"Delta":671312910},{"NoteNumber":54,"Velocity":50,"Duration":110293,"SoundDuration":110293,"Delta":671312910},{"NoteNumber":60,"Velocity":64,"Duration":245429,"SoundDuration":245429,"Delta":671423204},{"NoteNumber":63,"Velocity":64,"Duration":245429,"SoundDuration":245429,"Delta":671423204},{"NoteNumber":66,"Velocity":64,"Duration":245429,"SoundDuration":245429,"Delta":671423204},{"NoteNumber":48,"Velocity":50,"Duration":245429,"SoundDuration":245429,"Delta":671423204},{"NoteNumber":51,"Velocity":50,"Duration":245429,"SoundDuration":245429,"Delta":671423204},{"NoteNumber":54,"Velocity":50,"Duration":245429,"SoundDuration":245429,"Delta":671423204},{"NoteNumber":70,"Velocity":83,"Duration":1394673,"SoundDuration":1394673,"Delta":671668634},{"NoteNumber":58,"Velocity":71,"Duration":1394673,"SoundDuration":1394673,"Delta":671668634},{"NoteNumber":46,"Velocity":80,"Duration":1394673,"SoundDuration":1394673,"Delta":671668634},{"NoteNumber":34,"Velocity":67,"Duration":1394673,"SoundDuration":1394673,"Delta":671668634},{"NoteNumber":63,"Velocity":66,"Duration":54347,"SoundDuration":54347,"Delta":672037486},{"NoteNumber":66,"Velocity":66,"Duration":54347,"SoundDuration":54347,"Delta":672037486},{"NoteNumber":51,"Velocity":49,"Duration":54347,"SoundDuration":54347,"Delta":672037486},{"NoteNumber":54,"Velocity":49,"Duration":54347,"SoundDuration":54347,"Delta":672037486},{"NoteNumber":63,"Velocity":66,"Duration":108695,"SoundDuration":108695,"Delta":672146182},{"NoteNumber":66,"Velocity":66,"Duration":108695,"SoundDuration":108695,"Delta":672146182},{"NoteNumber":51,"Velocity":49,"Duration":108695,"SoundDuration":108695,"Delta":672146182},{"NoteNumber":54,"Velocity":49,"Duration":108695,"SoundDuration":108695,"Delta":672146182},{"NoteNumber":63,"Velocity":66,"Duration":368852,"SoundDuration":368852,"Delta":672363573},{"NoteNumber":66,"Velocity":66,"Duration":368852,"SoundDuration":368852,"Delta":672363573},{"NoteNumber":51,"Velocity":49,"Duration":368852,"SoundDuration":368852,"Delta":672363573},{"NoteNumber":54,"Velocity":49,"Duration":368852,"SoundDuration":368852,"Delta":672363573},{"NoteNumber":61,"Velocity":64,"Duration":55147,"SoundDuration":55147,"Delta":672732425},{"NoteNumber":64,"Velocity":64,"Duration":55147,"SoundDuration":55147,"Delta":672732425},{"NoteNumber":49,"Velocity":50,"Duration":55147,"SoundDuration":55147,"Delta":672732425},{"NoteNumber":52,"Velocity":50,"Duration":55147,"SoundDuration":55147,"Delta":672732425},{"NoteNumber":61,"Velocity":64,"Duration":110294,"SoundDuration":110294,"Delta":672842719},{"NoteNumber":64,"Velocity":64,"Duration":110294,"SoundDuration":110294,"Delta":672842719},{"NoteNumber":49,"Velocity":50,"Duration":110294,"SoundDuration":110294,"Delta":672842719},{"NoteNumber":52,"Velocity":50,"Duration":110294,"SoundDuration":110294,"Delta":672842719},{"NoteNumber":58,"Velocity":66,"Duration":479146,"SoundDuration":479146,"Delta":673063307},{"NoteNumber":61,"Velocity":66,"Duration":368852,"SoundDuration":368852,"Delta":673063307},{"NoteNumber":64,"Velocity":66,"Duration":368852,"SoundDuration":368852,"Delta":673063307},{"NoteNumber":46,"Velocity":49,"Duration":479146,"SoundDuration":479146,"Delta":673063307},{"NoteNumber":49,"Velocity":49,"Duration":368852,"SoundDuration":368852,"Delta":673063307},{"NoteNumber":52,"Velocity":49,"Duration":368852,"SoundDuration":368852,"Delta":673063307},{"NoteNumber":62,"Velocity":64,"Duration":55147,"SoundDuration":55147,"Delta":673432160},{"NoteNumber":65,"Velocity":64,"Duration":55147,"SoundDuration":55147,"Delta":673432160},{"NoteNumber":50,"Velocity":50,"Duration":55147,"SoundDuration":55147,"Delta":673432160},{"NoteNumber":53,"Velocity":50,"Duration":55147,"SoundDuration":55147,"Delta":673432160},{"NoteNumber":62,"Velocity":64,"Duration":110294,"SoundDuration":110294,"Delta":673542454},{"NoteNumber":65,"Velocity":64,"Duration":110294,"SoundDuration":110294,"Delta":673542454},{"NoteNumber":50,"Velocity":50,"Duration":110294,"SoundDuration":110294,"Delta":673542454},{"NoteNumber":53,"Velocity":50,"Duration":110294,"SoundDuration":110294,"Delta":673542454},{"NoteNumber":62,"Velocity":66,"Duration":368535,"SoundDuration":368535,"Delta":673763358},{"NoteNumber":65,"Velocity":66,"Duration":368535,"SoundDuration":368535,"Delta":673763358},{"NoteNumber":50,"Velocity":49,"Duration":368535,"SoundDuration":368535,"Delta":673763358},{"NoteNumber":53,"Velocity":49,"Duration":368535,"SoundDuration":368535,"Delta":673763358},{"NoteNumber":58,"Velocity":64,"Duration":55146,"SoundDuration":55146,"Delta":674131894},{"NoteNumber":63,"Velocity":64,"Duration":55146,"SoundDuration":55146,"Delta":674131894},{"NoteNumber":66,"Velocity":64,"Duration":55146,"SoundDuration":55146,"Delta":674131894},{"NoteNumber":46,"Velocity":50,"Duration":55146,"SoundDuration":55146,"Delta":674131894},{"NoteNumber":51,"Velocity":50,"Duration":55146,"SoundDuration":55146,"Delta":674131894},{"NoteNumber":54,"Velocity":50,"Duration":55146,"SoundDuration":55146,"Delta":674131894},{"NoteNumber":58,"Velocity":64,"Duration":110294,"SoundDuration":110294,"Delta":674242188},{"NoteNumber":64,"Velocity":64,"Duration":110294,"SoundDuration":110294,"Delta":674242188},{"NoteNumber":67,"Velocity":64,"Duration":110294,"SoundDuration":110294,"Delta":674242188},{"NoteNumber":46,"Velocity":50,"Duration":110294,"SoundDuration":110294,"Delta":674242188},{"NoteNumber":52,"Velocity":50,"Duration":110294,"SoundDuration":110294,"Delta":674242188},{"NoteNumber":55,"Velocity":50,"Duration":110294,"SoundDuration":110294,"Delta":674242188},{"NoteNumber":59,"Velocity":66,"Duration":110293,"SoundDuration":110293,"Delta":674462776},{"NoteNumber":65,"Velocity":66,"Duration":110293,"SoundDuration":110293,"Delta":674462776},{"NoteNumber":68,"Velocity":66,"Duration":110293,"SoundDuration":110293,"Delta":674462776},{"NoteNumber":47,"Velocity":49,"Duration":110293,"SoundDuration":110293,"Delta":674462776},{"NoteNumber":53,"Velocity":49,"Duration":110293,"SoundDuration":110293,"Delta":674462776},{"NoteNumber":56,"Velocity":49,"Duration":110293,"SoundDuration":110293,"Delta":674462776},{"NoteNumber":95,"Velocity":80,"Duration":111940,"SoundDuration":111940,"Delta":674793658},{"NoteNumber":83,"Velocity":67,"Duration":111940,"SoundDuration":111940,"Delta":674793658},{"NoteNumber":95,"Velocity":80,"Duration":121951,"SoundDuration":121951,"Delta":674905598},{"NoteNumber":83,"Velocity":67,"Duration":121951,"SoundDuration":121951,"Delta":674905598},{"NoteNumber":95,"Velocity":83,"Duration":125000,"SoundDuration":125000,"Delta":675149501},{"NoteNumber":83,"Velocity":71,"Duration":125000,"SoundDuration":125000,"Delta":675149501},{"NoteNumber":71,"Velocity":75,"Duration":111111,"SoundDuration":111111,"Delta":675522451},{"NoteNumber":59,"Velocity":63,"Duration":111111,"SoundDuration":111111,"Delta":675522451},{"NoteNumber":71,"Velocity":75,"Duration":122950,"SoundDuration":122950,"Delta":675633562},{"NoteNumber":59,"Velocity":63,"Duration":122950,"SoundDuration":122950,"Delta":675633562},{"NoteNumber":71,"Velocity":81,"Duration":122950,"SoundDuration":122950,"Delta":675879464},{"NoteNumber":59,"Velocity":68,"Duration":122950,"SoundDuration":122950,"Delta":675879464},{"NoteNumber":71,"Velocity":77,"Duration":112782,"SoundDuration":112782,"Delta":676248316},{"NoteNumber":59,"Velocity":65,"Duration":112782,"SoundDuration":112782,"Delta":676248316},{"NoteNumber":35,"Velocity":61,"Duration":112782,"SoundDuration":112782,"Delta":676248316},{"NoteNumber":47,"Velocity":72,"Duration":112782,"SoundDuration":112782,"Delta":676248316},{"NoteNumber":71,"Velocity":77,"Duration":121951,"SoundDuration":121951,"Delta":676361098},{"NoteNumber":59,"Velocity":65,"Duration":121951,"SoundDuration":121951,"Delta":676361098},{"NoteNumber":35,"Velocity":61,"Duration":121951,"SoundDuration":121951,"Delta":676361098},{"NoteNumber":47,"Velocity":72,"Duration":121951,"SoundDuration":121951,"Delta":676361098},{"NoteNumber":71,"Velocity":85,"Duration":126050,"SoundDuration":126050,"Delta":676605001},{"NoteNumber":59,"Velocity":72,"Duration":126050,"SoundDuration":126050,"Delta":676605001},{"NoteNumber":35,"Velocity":61,"Duration":126050,"SoundDuration":126050,"Delta":676605001},{"NoteNumber":47,"Velocity":72,"Duration":126050,"SoundDuration":126050,"Delta":676605001},{"NoteNumber":62,"Velocity":64,"Duration":110293,"SoundDuration":110293,"Delta":676980052},{"NoteNumber":65,"Velocity":64,"Duration":110293,"SoundDuration":110293,"Delta":676980052},{"NoteNumber":68,"Velocity":64,"Duration":110293,"SoundDuration":110293,"Delta":676980052},{"NoteNumber":50,"Velocity":50,"Duration":110293,"SoundDuration":110293,"Delta":676980052},{"NoteNumber":53,"Velocity":50,"Duration":110293,"SoundDuration":110293,"Delta":676980052},{"NoteNumber":56,"Velocity":50,"Duration":110293,"SoundDuration":110293,"Delta":676980052},{"NoteNumber":61,"Velocity":64,"Duration":290588,"SoundDuration":290588,"Delta":677090346},{"NoteNumber":65,"Velocity":64,"Duration":290588,"SoundDuration":290588,"Delta":677090346},{"NoteNumber":68,"Velocity":64,"Duration":290588,"SoundDuration":290588,"Delta":677090346},{"NoteNumber":49,"Velocity":50,"Duration":290588,"SoundDuration":290588,"Delta":677090346},{"NoteNumber":53,"Velocity":50,"Duration":290588,"SoundDuration":290588,"Delta":677090346},{"NoteNumber":56,"Velocity":50,"Duration":290588,"SoundDuration":290588,"Delta":677090346},{"NoteNumber":59,"Velocity":63,"Duration":94936,"SoundDuration":94936,"Delta":677285998},{"NoteNumber":71,"Velocity":72,"Duration":94936,"SoundDuration":94936,"Delta":677285998},{"NoteNumber":35,"Velocity":49,"Duration":94936,"SoundDuration":94936,"Delta":677285998},{"NoteNumber":47,"Velocity":57,"Duration":94936,"SoundDuration":94936,"Delta":677285998},{"NoteNumber":72,"Velocity":83,"Duration":1394673,"SoundDuration":1394673,"Delta":677380935},{"NoteNumber":60,"Velocity":71,"Duration":1394673,"SoundDuration":1394673,"Delta":677380935},{"NoteNumber":48,"Velocity":80,"Duration":1394673,"SoundDuration":1394673,"Delta":677380935},{"NoteNumber":36,"Velocity":67,"Duration":1394673,"SoundDuration":1394673,"Delta":677380935},{"NoteNumber":65,"Velocity":66,"Duration":54347,"SoundDuration":54347,"Delta":677749787},{"NoteNumber":68,"Velocity":66,"Duration":54347,"SoundDuration":54347,"Delta":677749787},{"NoteNumber":53,"Velocity":49,"Duration":54347,"SoundDuration":54347,"Delta":677749787},{"NoteNumber":56,"Velocity":49,"Duration":54347,"SoundDuration":54347,"Delta":677749787},{"NoteNumber":65,"Velocity":66,"Duration":108695,"SoundDuration":108695,"Delta":677858483},{"NoteNumber":68,"Velocity":66,"Duration":108695,"SoundDuration":108695,"Delta":677858483},{"NoteNumber":53,"Velocity":49,"Duration":108695,"SoundDuration":108695,"Delta":677858483},{"NoteNumber":56,"Velocity":49,"Duration":108695,"SoundDuration":108695,"Delta":677858483},{"NoteNumber":65,"Velocity":66,"Duration":368852,"SoundDuration":368852,"Delta":678075875},{"NoteNumber":68,"Velocity":66,"Duration":368852,"SoundDuration":368852,"Delta":678075875},{"NoteNumber":53,"Velocity":49,"Duration":368852,"SoundDuration":368852,"Delta":678075875},{"NoteNumber":56,"Velocity":49,"Duration":368852,"SoundDuration":368852,"Delta":678075875},{"NoteNumber":63,"Velocity":64,"Duration":55147,"SoundDuration":55147,"Delta":678444727},{"NoteNumber":66,"Velocity":64,"Duration":55147,"SoundDuration":55147,"Delta":678444727},{"NoteNumber":51,"Velocity":50,"Duration":55147,"SoundDuration":55147,"Delta":678444727},{"NoteNumber":54,"Velocity":50,"Duration":55147,"SoundDuration":55147,"Delta":678444727},{"NoteNumber":63,"Velocity":64,"Duration":110294,"SoundDuration":110294,"Delta":678555021},{"NoteNumber":66,"Velocity":64,"Duration":110294,"SoundDuration":110294,"Delta":678555021},{"NoteNumber":51,"Velocity":50,"Duration":110294,"SoundDuration":110294,"Delta":678555021},{"NoteNumber":54,"Velocity":50,"Duration":110294,"SoundDuration":110294,"Delta":678555021},{"NoteNumber":60,"Velocity":66,"Duration":945952,"SoundDuration":945952,"Delta":678775609},{"NoteNumber":63,"Velocity":66,"Duration":368852,"SoundDuration":368852,"Delta":678775609},{"NoteNumber":66,"Velocity":66,"Duration":368852,"SoundDuration":368852,"Delta":678775609},{"NoteNumber":48,"Velocity":49,"Duration":945952,"SoundDuration":945952,"Delta":678775609},{"NoteNumber":51,"Velocity":49,"Duration":368852,"SoundDuration":368852,"Delta":678775609},{"NoteNumber":54,"Velocity":49,"Duration":368852,"SoundDuration":368852,"Delta":678775609},{"NoteNumber":64,"Velocity":64,"Duration":55147,"SoundDuration":55147,"Delta":679144461},{"NoteNumber":67,"Velocity":64,"Duration":55147,"SoundDuration":55147,"Delta":679144461},{"NoteNumber":52,"Velocity":50,"Duration":55147,"SoundDuration":55147,"Delta":679144461},{"NoteNumber":55,"Velocity":50,"Duration":55147,"SoundDuration":55147,"Delta":679144461},{"NoteNumber":64,"Velocity":64,"Duration":110294,"SoundDuration":110294,"Delta":679254755},{"NoteNumber":67,"Velocity":64,"Duration":110294,"SoundDuration":110294,"Delta":679254755},{"NoteNumber":52,"Velocity":50,"Duration":110294,"SoundDuration":110294,"Delta":679254755},{"NoteNumber":55,"Velocity":50,"Duration":110294,"SoundDuration":110294,"Delta":679254755},{"NoteNumber":64,"Velocity":66,"Duration":368535,"SoundDuration":368535,"Delta":679475660},{"NoteNumber":67,"Velocity":66,"Duration":368535,"SoundDuration":368535,"Delta":679475660},{"NoteNumber":52,"Velocity":49,"Duration":368535,"SoundDuration":368535,"Delta":679475660},{"NoteNumber":55,"Velocity":49,"Duration":368535,"SoundDuration":368535,"Delta":679475660},{"NoteNumber":65,"Velocity":64,"Duration":55146,"SoundDuration":55146,"Delta":679844195},{"NoteNumber":68,"Velocity":64,"Duration":55146,"SoundDuration":55146,"Delta":679844195},{"NoteNumber":48,"Velocity":50,"Duration":55146,"SoundDuration":55146,"Delta":679844195},{"NoteNumber":53,"Velocity":50,"Duration":55146,"SoundDuration":55146,"Delta":679844195},{"NoteNumber":56,"Velocity":50,"Duration":55146,"SoundDuration":55146,"Delta":679844195},{"NoteNumber":66,"Velocity":64,"Duration":110294,"SoundDuration":110294,"Delta":679954489},{"NoteNumber":69,"Velocity":64,"Duration":110294,"SoundDuration":110294,"Delta":679954489},{"NoteNumber":48,"Velocity":50,"Duration":110294,"SoundDuration":110294,"Delta":679954489},{"NoteNumber":54,"Velocity":50,"Duration":110294,"SoundDuration":110294,"Delta":679954489},{"NoteNumber":57,"Velocity":50,"Duration":110294,"SoundDuration":110294,"Delta":679954489},{"NoteNumber":61,"Velocity":66,"Duration":110293,"SoundDuration":110293,"Delta":680175077},{"NoteNumber":67,"Velocity":66,"Duration":110293,"SoundDuration":110293,"Delta":680175077},{"NoteNumber":70,"Velocity":66,"Duration":110293,"SoundDuration":110293,"Delta":680175077},{"NoteNumber":49,"Velocity":49,"Duration":110293,"SoundDuration":110293,"Delta":680175077},{"NoteNumber":55,"Velocity":49,"Duration":110293,"SoundDuration":110293,"Delta":680175077},{"NoteNumber":58,"Velocity":49,"Duration":110293,"SoundDuration":110293,"Delta":680175077},{"NoteNumber":97,"Velocity":80,"Duration":111940,"SoundDuration":111940,"Delta":680505959},{"NoteNumber":85,"Velocity":67,"Duration":111940,"SoundDuration":111940,"Delta":680505959},{"NoteNumber":97,"Velocity":80,"Duration":121951,"SoundDuration":121951,"Delta":680617900},{"NoteNumber":85,"Velocity":67,"Duration":121951,"SoundDuration":121951,"Delta":680617900},{"NoteNumber":97,"Velocity":83,"Duration":125000,"SoundDuration":125000,"Delta":680861802},{"NoteNumber":85,"Velocity":71,"Duration":125000,"SoundDuration":125000,"Delta":680861802},{"NoteNumber":73,"Velocity":75,"Duration":111111,"SoundDuration":111111,"Delta":681234753},{"NoteNumber":61,"Velocity":63,"Duration":111111,"SoundDuration":111111,"Delta":681234753},{"NoteNumber":73,"Velocity":75,"Duration":122950,"SoundDuration":122950,"Delta":681345864},{"NoteNumber":61,"Velocity":63,"Duration":122950,"SoundDuration":122950,"Delta":681345864},{"NoteNumber":73,"Velocity":81,"Duration":122950,"SoundDuration":122950,"Delta":681591765},{"NoteNumber":61,"Velocity":68,"Duration":122950,"SoundDuration":122950,"Delta":681591765},{"NoteNumber":64,"Velocity":63,"Duration":112782,"SoundDuration":112782,"Delta":681960618},{"NoteNumber":70,"Velocity":63,"Duration":112782,"SoundDuration":112782,"Delta":681960618},{"NoteNumber":73,"Velocity":63,"Duration":112782,"SoundDuration":112782,"Delta":681960618},{"NoteNumber":61,"Velocity":63,"Duration":112782,"SoundDuration":112782,"Delta":681960618},{"NoteNumber":43,"Velocity":51,"Duration":112782,"SoundDuration":112782,"Delta":681960618},{"NoteNumber":46,"Velocity":51,"Duration":112782,"SoundDuration":112782,"Delta":681960618},{"NoteNumber":37,"Velocity":51,"Duration":112782,"SoundDuration":112782,"Delta":681960618},{"NoteNumber":49,"Velocity":51,"Duration":112782,"SoundDuration":112782,"Delta":681960618},{"NoteNumber":64,"Velocity":63,"Duration":121951,"SoundDuration":121951,"Delta":682073400},{"NoteNumber":70,"Velocity":63,"Duration":121951,"SoundDuration":121951,"Delta":682073400},{"NoteNumber":73,"Velocity":63,"Duration":121951,"SoundDuration":121951,"Delta":682073400},{"NoteNumber":61,"Velocity":63,"Duration":121951,"SoundDuration":121951,"Delta":682073400},{"NoteNumber":42,"Velocity":51,"Duration":121951,"SoundDuration":121951,"Delta":682073400},{"NoteNumber":46,"Velocity":51,"Duration":121951,"SoundDuration":121951,"Delta":682073400},{"NoteNumber":37,"Velocity":51,"Duration":121951,"SoundDuration":121951,"Delta":682073400},{"NoteNumber":49,"Velocity":51,"Duration":121951,"SoundDuration":121951,"Delta":682073400},{"NoteNumber":64,"Velocity":69,"Duration":126050,"SoundDuration":126050,"Delta":682317302},{"NoteNumber":70,"Velocity":69,"Duration":126050,"SoundDuration":126050,"Delta":682317302},{"NoteNumber":73,"Velocity":69,"Duration":126050,"SoundDuration":126050,"Delta":682317302},{"NoteNumber":61,"Velocity":69,"Duration":126050,"SoundDuration":126050,"Delta":682317302},{"NoteNumber":43,"Velocity":57,"Duration":126050,"SoundDuration":126050,"Delta":682317302},{"NoteNumber":37,"Velocity":57,"Duration":126050,"SoundDuration":126050,"Delta":682317302},{"NoteNumber":49,"Velocity":57,"Duration":126050,"SoundDuration":126050,"Delta":682317302},{"NoteNumber":46,"Velocity":57,"Duration":126050,"SoundDuration":126050,"Delta":682328857},{"NoteNumber":70,"Velocity":64,"Duration":110293,"SoundDuration":110293,"Delta":682683907},{"NoteNumber":62,"Velocity":64,"Duration":110293,"SoundDuration":110293,"Delta":682683907},{"NoteNumber":67,"Velocity":64,"Duration":110293,"SoundDuration":110293,"Delta":682683907},{"NoteNumber":74,"Velocity":64,"Duration":110293,"SoundDuration":110293,"Delta":682683907},{"NoteNumber":38,"Velocity":50,"Duration":110293,"SoundDuration":110293,"Delta":682683907},{"NoteNumber":43,"Velocity":50,"Duration":110293,"SoundDuration":110293,"Delta":682683907},{"NoteNumber":46,"Velocity":50,"Duration":110293,"SoundDuration":110293,"Delta":682683907},{"NoteNumber":50,"Velocity":50,"Duration":110293,"SoundDuration":110293,"Delta":682683907},{"NoteNumber":70,"Velocity":64,"Duration":120967,"SoundDuration":120967,"Delta":682794201},{"NoteNumber":62,"Velocity":64,"Duration":120967,"SoundDuration":120967,"Delta":682794201},{"NoteNumber":67,"Velocity":64,"Duration":120967,"SoundDuration":120967,"Delta":682794201},{"NoteNumber":74,"Velocity":64,"Duration":120967,"SoundDuration":120967,"Delta":682794201},{"NoteNumber":46,"Velocity":50,"Duration":120967,"SoundDuration":120967,"Delta":682794201},{"NoteNumber":38,"Velocity":50,"Duration":120967,"SoundDuration":120967,"Delta":682794201},{"NoteNumber":43,"Velocity":50,"Duration":120967,"SoundDuration":120967,"Delta":682794201},{"NoteNumber":50,"Velocity":50,"Duration":120967,"SoundDuration":120967,"Delta":682794201},{"NoteNumber":67,"Velocity":66,"Duration":110293,"SoundDuration":110293,"Delta":683036136},{"NoteNumber":73,"Velocity":66,"Duration":110293,"SoundDuration":110293,"Delta":683036136},{"NoteNumber":75,"Velocity":66,"Duration":110293,"SoundDuration":110293,"Delta":683036136},{"NoteNumber":63,"Velocity":66,"Duration":110293,"SoundDuration":110293,"Delta":683036136},{"NoteNumber":70,"Velocity":66,"Duration":110293,"SoundDuration":110293,"Delta":683036136},{"NoteNumber":43,"Velocity":49,"Duration":110293,"SoundDuration":110293,"Delta":683036136},{"NoteNumber":49,"Velocity":49,"Duration":110293,"SoundDuration":110293,"Delta":683036136},{"NoteNumber":39,"Velocity":49,"Duration":110293,"SoundDuration":110293,"Delta":683036136},{"NoteNumber":46,"Velocity":49,"Duration":110293,"SoundDuration":110293,"Delta":683036136},{"NoteNumber":51,"Velocity":49,"Duration":110293,"SoundDuration":110293,"Delta":683036136},{"NoteNumber":99,"Velocity":80,"Duration":111940,"SoundDuration":111940,"Delta":683367018},{"NoteNumber":87,"Velocity":67,"Duration":111940,"SoundDuration":111940,"Delta":683367018},{"NoteNumber":99,"Velocity":80,"Duration":121951,"SoundDuration":121951,"Delta":683478959},{"NoteNumber":87,"Velocity":67,"Duration":121951,"SoundDuration":121951,"Delta":683478959},{"NoteNumber":99,"Velocity":83,"Duration":125000,"SoundDuration":125000,"Delta":683722861},{"NoteNumber":87,"Velocity":71,"Duration":125000,"SoundDuration":125000,"Delta":683722861},{"NoteNumber":75,"Velocity":75,"Duration":111111,"SoundDuration":111111,"Delta":684095812},{"NoteNumber":63,"Velocity":63,"Duration":111111,"SoundDuration":111111,"Delta":684095812},{"NoteNumber":75,"Velocity":75,"Duration":122950,"SoundDuration":122950,"Delta":684206923},{"NoteNumber":63,"Velocity":63,"Duration":122950,"SoundDuration":122950,"Delta":684206923},{"NoteNumber":75,"Velocity":81,"Duration":122950,"SoundDuration":122950,"Delta":684452824},{"NoteNumber":63,"Velocity":68,"Duration":122950,"SoundDuration":122950,"Delta":684452824},{"NoteNumber":67,"Velocity":63,"Duration":112782,"SoundDuration":112782,"Delta":684821677},{"NoteNumber":73,"Velocity":63,"Duration":112782,"SoundDuration":112782,"Delta":684821677},{"NoteNumber":75,"Velocity":63,"Duration":112782,"SoundDuration":112782,"Delta":684821677},{"NoteNumber":63,"Velocity":63,"Duration":112782,"SoundDuration":112782,"Delta":684821677},{"NoteNumber":49,"Velocity":51,"Duration":112782,"SoundDuration":112782,"Delta":684821677},{"NoteNumber":46,"Velocity":51,"Duration":112782,"SoundDuration":112782,"Delta":684821677},{"NoteNumber":39,"Velocity":51,"Duration":112782,"SoundDuration":112782,"Delta":684821677},{"NoteNumber":51,"Velocity":51,"Duration":112782,"SoundDuration":112782,"Delta":684821677},{"NoteNumber":67,"Velocity":63,"Duration":121951,"SoundDuration":121951,"Delta":684934459},{"NoteNumber":73,"Velocity":63,"Duration":121951,"SoundDuration":121951,"Delta":684934459},{"NoteNumber":75,"Velocity":63,"Duration":121951,"SoundDuration":121951,"Delta":684934459},{"NoteNumber":63,"Velocity":63,"Duration":121951,"SoundDuration":121951,"Delta":684934459},{"NoteNumber":46,"Velocity":51,"Duration":121951,"SoundDuration":121951,"Delta":684934459},{"NoteNumber":49,"Velocity":51,"Duration":121951,"SoundDuration":121951,"Delta":684934459},{"NoteNumber":39,"Velocity":51,"Duration":121951,"SoundDuration":121951,"Delta":684934459},{"NoteNumber":51,"Velocity":51,"Duration":121951,"SoundDuration":121951,"Delta":684934459},{"NoteNumber":67,"Velocity":69,"Duration":126050,"SoundDuration":126050,"Delta":685178361},{"NoteNumber":73,"Velocity":69,"Duration":126050,"SoundDuration":126050,"Delta":685178361},{"NoteNumber":75,"Velocity":69,"Duration":126050,"SoundDuration":126050,"Delta":685178361},{"NoteNumber":63,"Velocity":69,"Duration":126050,"SoundDuration":126050,"Delta":685178361},{"NoteNumber":46,"Velocity":57,"Duration":126050,"SoundDuration":126050,"Delta":685178361},{"NoteNumber":39,"Velocity":57,"Duration":126050,"SoundDuration":126050,"Delta":685178361},{"NoteNumber":51,"Velocity":57,"Duration":126050,"SoundDuration":126050,"Delta":685178361},{"NoteNumber":49,"Velocity":57,"Duration":126050,"SoundDuration":126050,"Delta":685189916},{"NoteNumber":76,"Velocity":54,"Duration":110293,"SoundDuration":110293,"Delta":685546741},{"NoteNumber":73,"Velocity":32,"Duration":110293,"SoundDuration":110293,"Delta":685546741},{"NoteNumber":64,"Velocity":32,"Duration":110293,"SoundDuration":110293,"Delta":685546741},{"NoteNumber":67,"Velocity":32,"Duration":110293,"SoundDuration":110293,"Delta":685546741},{"NoteNumber":52,"Velocity":41,"Duration":110293,"SoundDuration":110293,"Delta":685546741},{"NoteNumber":40,"Velocity":24,"Duration":110293,"SoundDuration":110293,"Delta":685546741},{"NoteNumber":46,"Velocity":24,"Duration":110293,"SoundDuration":110293,"Delta":685546741},{"NoteNumber":49,"Velocity":24,"Duration":110293,"SoundDuration":110293,"Delta":685546741},{"NoteNumber":76,"Velocity":54,"Duration":142120,"SoundDuration":142120,"Delta":685657035},{"NoteNumber":73,"Velocity":32,"Duration":142120,"SoundDuration":142120,"Delta":685657035},{"NoteNumber":64,"Velocity":32,"Duration":142120,"SoundDuration":142120,"Delta":685657035},{"NoteNumber":67,"Velocity":32,"Duration":142120,"SoundDuration":142120,"Delta":685657035},{"NoteNumber":52,"Velocity":41,"Duration":142120,"SoundDuration":142120,"Delta":685657035},{"NoteNumber":49,"Velocity":24,"Duration":142120,"SoundDuration":142120,"Delta":685657035},{"NoteNumber":40,"Velocity":24,"Duration":142120,"SoundDuration":142120,"Delta":685657035},{"NoteNumber":46,"Velocity":24,"Duration":142120,"SoundDuration":142120,"Delta":685657035},{"NoteNumber":41,"Velocity":49,"Duration":60975,"SoundDuration":60975,"Delta":685799156},{"NoteNumber":53,"Velocity":49,"Duration":60975,"SoundDuration":60975,"Delta":685860131},{"NoteNumber":77,"Velocity":61,"Duration":110293,"SoundDuration":110293,"Delta":685921107},{"NoteNumber":70,"Velocity":36,"Duration":110293,"SoundDuration":110293,"Delta":685921107},{"NoteNumber":65,"Velocity":36,"Duration":110293,"SoundDuration":110293,"Delta":685921107},{"NoteNumber":73,"Velocity":36,"Duration":110293,"SoundDuration":110293,"Delta":685921107},{"NoteNumber":61,"Velocity":51,"Duration":452984,"SoundDuration":452984,"Delta":685921107},{"NoteNumber":58,"Velocity":42,"Duration":452984,"SoundDuration":452984,"Delta":685921107},{"NoteNumber":101,"Velocity":53,"Duration":111940,"SoundDuration":111940,"Delta":686251989},{"NoteNumber":89,"Velocity":31,"Duration":111940,"SoundDuration":111940,"Delta":686251989},{"NoteNumber":101,"Velocity":53,"Duration":121951,"SoundDuration":121951,"Delta":686363929},{"NoteNumber":89,"Velocity":31,"Duration":121951,"SoundDuration":121951,"Delta":686363929},{"NoteNumber":60,"Velocity":45,"Duration":243902,"SoundDuration":243902,"Delta":686363929},{"NoteNumber":57,"Velocity":35,"Duration":243902,"SoundDuration":243902,"Delta":686363929},{"NoteNumber":101,"Velocity":62,"Duration":125000,"SoundDuration":125000,"Delta":686607832},{"NoteNumber":89,"Velocity":36,"Duration":125000,"SoundDuration":125000,"Delta":686607832},{"NoteNumber":61,"Velocity":45,"Duration":494307,"SoundDuration":494307,"Delta":686607832},{"NoteNumber":58,"Velocity":35,"Duration":494307,"SoundDuration":494307,"Delta":686607832},{"NoteNumber":89,"Velocity":50,"Duration":111111,"SoundDuration":111111,"Delta":686980782},{"NoteNumber":77,"Velocity":29,"Duration":111111,"SoundDuration":111111,"Delta":686980782},{"NoteNumber":89,"Velocity":50,"Duration":122950,"SoundDuration":122950,"Delta":687091893},{"NoteNumber":77,"Velocity":29,"Duration":122950,"SoundDuration":122950,"Delta":687091893},{"NoteNumber":63,"Velocity":52,"Duration":245901,"SoundDuration":245901,"Delta":687091893},{"NoteNumber":60,"Velocity":42,"Duration":245901,"SoundDuration":245901,"Delta":687091893},{"NoteNumber":89,"Velocity":59,"Duration":122950,"SoundDuration":122950,"Delta":687337795},{"NoteNumber":77,"Velocity":35,"Duration":122950,"SoundDuration":122950,"Delta":687337795},{"NoteNumber":57,"Velocity":42,"Duration":243897,"SoundDuration":243897,"Delta":687337795},{"NoteNumber":60,"Velocity":52,"Duration":243897,"SoundDuration":243897,"Delta":687337795},{"NoteNumber":65,"Velocity":56,"Duration":432856,"SoundDuration":432856,"Delta":687581692},{"NoteNumber":53,"Velocity":53,"Duration":110005,"SoundDuration":110005,"Delta":687581692},{"NoteNumber":41,"Velocity":45,"Duration":110005,"SoundDuration":110005,"Delta":687581692},{"NoteNumber":52,"Velocity":54,"Duration":108861,"SoundDuration":108861,"Delta":687691698},{"NoteNumber":40,"Velocity":48,"Duration":108861,"SoundDuration":108861,"Delta":687691698},{"NoteNumber":51,"Velocity":55,"Duration":107573,"SoundDuration":107573,"Delta":687800560},{"NoteNumber":39,"Velocity":50,"Duration":107573,"SoundDuration":107573,"Delta":687800560},{"NoteNumber":50,"Velocity":57,"Duration":106416,"SoundDuration":106416,"Delta":687908133},{"NoteNumber":38,"Velocity":51,"Duration":106416,"SoundDuration":106416,"Delta":687908133},{"NoteNumber":49,"Velocity":58,"Duration":105369,"SoundDuration":105369,"Delta":688014549},{"NoteNumber":37,"Velocity":52,"Duration":105369,"SoundDuration":105369,"Delta":688014549},{"NoteNumber":48,"Velocity":60,"Duration":104319,"SoundDuration":104319,"Delta":688119918},{"NoteNumber":36,"Velocity":54,"Duration":104319,"SoundDuration":104319,"Delta":688119918},{"NoteNumber":47,"Velocity":62,"Duration":103135,"SoundDuration":103135,"Delta":688224238},{"NoteNumber":35,"Velocity":54,"Duration":103135,"SoundDuration":103135,"Delta":688224238},{"NoteNumber":46,"Velocity":63,"Duration":102071,"SoundDuration":102071,"Delta":688327373},{"NoteNumber":34,"Velocity":56,"Duration":102071,"SoundDuration":102071,"Delta":688327373},{"NoteNumber":45,"Velocity":64,"Duration":136363,"SoundDuration":136363,"Delta":688429444},{"NoteNumber":33,"Velocity":57,"Duration":136363,"SoundDuration":136363,"Delta":688429444},{"NoteNumber":53,"Velocity":42,"Duration":452984,"SoundDuration":452984,"Delta":688702172},{"NoteNumber":65,"Velocity":51,"Duration":452984,"SoundDuration":452984,"Delta":688702172},{"NoteNumber":62,"Velocity":42,"Duration":452984,"SoundDuration":452984,"Delta":688702172},{"NoteNumber":93,"Velocity":53,"Duration":111940,"SoundDuration":111940,"Delta":689033054},{"NoteNumber":81,"Velocity":31,"Duration":111940,"SoundDuration":111940,"Delta":689033054},{"NoteNumber":93,"Velocity":53,"Duration":121951,"SoundDuration":121951,"Delta":689144994},{"NoteNumber":81,"Velocity":31,"Duration":121951,"SoundDuration":121951,"Delta":689144994},{"NoteNumber":52,"Velocity":35,"Duration":243902,"SoundDuration":243902,"Delta":689144994},{"NoteNumber":64,"Velocity":45,"Duration":243902,"SoundDuration":243902,"Delta":689144994},{"NoteNumber":61,"Velocity":35,"Duration":243902,"SoundDuration":243902,"Delta":689144994},{"NoteNumber":93,"Velocity":62,"Duration":125000,"SoundDuration":125000,"Delta":689388897},{"NoteNumber":81,"Velocity":36,"Duration":125000,"SoundDuration":125000,"Delta":689388897},{"NoteNumber":53,"Velocity":35,"Duration":494307,"SoundDuration":494307,"Delta":689388897},{"NoteNumber":65,"Velocity":45,"Duration":494307,"SoundDuration":494307,"Delta":689388897},{"NoteNumber":62,"Velocity":35,"Duration":494307,"SoundDuration":494307,"Delta":689388897},{"NoteNumber":81,"Velocity":50,"Duration":111111,"SoundDuration":111111,"Delta":689761847},{"NoteNumber":69,"Velocity":29,"Duration":111111,"SoundDuration":111111,"Delta":689761847},{"NoteNumber":81,"Velocity":50,"Duration":122950,"SoundDuration":122950,"Delta":689872958},{"NoteNumber":69,"Velocity":29,"Duration":122950,"SoundDuration":122950,"Delta":689872958},{"NoteNumber":55,"Velocity":42,"Duration":245901,"SoundDuration":245901,"Delta":689872958},{"NoteNumber":67,"Velocity":52,"Duration":245901,"SoundDuration":245901,"Delta":689872958},{"NoteNumber":64,"Velocity":42,"Duration":245901,"SoundDuration":245901,"Delta":689872958},{"NoteNumber":81,"Velocity":59,"Duration":122950,"SoundDuration":122950,"Delta":690118860},{"NoteNumber":69,"Velocity":35,"Duration":122950,"SoundDuration":122950,"Delta":690118860},{"NoteNumber":52,"Velocity":42,"Duration":243897,"SoundDuration":243897,"Delta":690118860},{"NoteNumber":61,"Velocity":42,"Duration":243897,"SoundDuration":243897,"Delta":690118860},{"NoteNumber":64,"Velocity":52,"Duration":243897,"SoundDuration":243897,"Delta":690118860},{"NoteNumber":69,"Velocity":56,"Duration":432856,"SoundDuration":432856,"Delta":690362757},{"NoteNumber":57,"Velocity":53,"Duration":110005,"SoundDuration":110005,"Delta":690362757},{"NoteNumber":45,"Velocity":45,"Duration":110005,"SoundDuration":110005,"Delta":690362757},{"NoteNumber":56,"Velocity":54,"Duration":108861,"SoundDuration":108861,"Delta":690472763},{"NoteNumber":44,"Velocity":48,"Duration":108861,"SoundDuration":108861,"Delta":690472763},{"NoteNumber":55,"Velocity":55,"Duration":107573,"SoundDuration":107573,"Delta":690581625},{"NoteNumber":43,"Velocity":50,"Duration":107573,"SoundDuration":107573,"Delta":690581625},{"NoteNumber":54,"Velocity":57,"Duration":106416,"SoundDuration":106416,"Delta":690689198},{"NoteNumber":42,"Velocity":51,"Duration":106416,"SoundDuration":106416,"Delta":690689198},{"NoteNumber":53,"Velocity":58,"Duration":105369,"SoundDuration":105369,"Delta":690795614},{"NoteNumber":41,"Velocity":52,"Duration":105369,"SoundDuration":105369,"Delta":690795614},{"NoteNumber":52,"Velocity":60,"Duration":104319,"SoundDuration":104319,"Delta":690900983},{"NoteNumber":40,"Velocity":54,"Duration":104319,"SoundDuration":104319,"Delta":690900983},{"NoteNumber":51,"Velocity":62,"Duration":103135,"SoundDuration":103135,"Delta":691005303},{"NoteNumber":39,"Velocity":54,"Duration":103135,"SoundDuration":103135,"Delta":691005303},{"NoteNumber":50,"Velocity":63,"Duration":102071,"SoundDuration":102071,"Delta":691108438},{"NoteNumber":38,"Velocity":56,"Duration":102071,"SoundDuration":102071,"Delta":691108438},{"NoteNumber":49,"Velocity":64,"Duration":136363,"SoundDuration":136363,"Delta":691210509},{"NoteNumber":37,"Velocity":57,"Duration":136363,"SoundDuration":136363,"Delta":691210509},{"NoteNumber":57,"Velocity":42,"Duration":452984,"SoundDuration":452984,"Delta":691483237},{"NoteNumber":69,"Velocity":51,"Duration":452984,"SoundDuration":452984,"Delta":691483237},{"NoteNumber":66,"Velocity":42,"Duration":452984,"SoundDuration":452984,"Delta":691483237},{"NoteNumber":97,"Velocity":53,"Duration":111940,"SoundDuration":111940,"Delta":691814119},{"NoteNumber":85,"Velocity":31,"Duration":111940,"SoundDuration":111940,"Delta":691814119},{"NoteNumber":97,"Velocity":53,"Duration":121951,"SoundDuration":121951,"Delta":691926059},{"NoteNumber":85,"Velocity":31,"Duration":121951,"SoundDuration":121951,"Delta":691926059},{"NoteNumber":56,"Velocity":35,"Duration":243902,"SoundDuration":243902,"Delta":691926059},{"NoteNumber":68,"Velocity":45,"Duration":243902,"SoundDuration":243902,"Delta":691926059},{"NoteNumber":65,"Velocity":35,"Duration":243902,"SoundDuration":243902,"Delta":691926059},{"NoteNumber":97,"Velocity":62,"Duration":125000,"SoundDuration":125000,"Delta":692169961},{"NoteNumber":85,"Velocity":36,"Duration":125000,"SoundDuration":125000,"Delta":692169961},{"NoteNumber":57,"Velocity":35,"Duration":494307,"SoundDuration":494307,"Delta":692169961},{"NoteNumber":69,"Velocity":45,"Duration":494307,"SoundDuration":494307,"Delta":692169961},{"NoteNumber":66,"Velocity":35,"Duration":494307,"SoundDuration":494307,"Delta":692169961},{"NoteNumber":85,"Velocity":50,"Duration":111111,"SoundDuration":111111,"Delta":692542912},{"NoteNumber":73,"Velocity":29,"Duration":111111,"SoundDuration":111111,"Delta":692542912},{"NoteNumber":85,"Velocity":50,"Duration":122950,"SoundDuration":122950,"Delta":692654023},{"NoteNumber":73,"Velocity":29,"Duration":122950,"SoundDuration":122950,"Delta":692654023},{"NoteNumber":59,"Velocity":42,"Duration":245901,"SoundDuration":245901,"Delta":692654023},{"NoteNumber":71,"Velocity":52,"Duration":245901,"SoundDuration":245901,"Delta":692654023},{"NoteNumber":68,"Velocity":42,"Duration":245901,"SoundDuration":245901,"Delta":692654023},{"NoteNumber":56,"Velocity":42,"Duration":243897,"SoundDuration":243897,"Delta":692899925},{"NoteNumber":65,"Velocity":42,"Duration":243897,"SoundDuration":243897,"Delta":692899925},{"NoteNumber":68,"Velocity":52,"Duration":243897,"SoundDuration":243897,"Delta":692899925},{"NoteNumber":73,"Velocity":56,"Duration":432856,"SoundDuration":432856,"Delta":693143822},{"NoteNumber":61,"Velocity":53,"Duration":110005,"SoundDuration":110005,"Delta":693143822},{"NoteNumber":49,"Velocity":45,"Duration":110005,"SoundDuration":110005,"Delta":693143822},{"NoteNumber":60,"Velocity":54,"Duration":108861,"SoundDuration":108861,"Delta":693253828},{"NoteNumber":48,"Velocity":48,"Duration":108861,"SoundDuration":108861,"Delta":693253828},{"NoteNumber":59,"Velocity":55,"Duration":107573,"SoundDuration":107573,"Delta":693362690},{"NoteNumber":47,"Velocity":50,"Duration":107573,"SoundDuration":107573,"Delta":693362690},{"NoteNumber":58,"Velocity":57,"Duration":106416,"SoundDuration":106416,"Delta":693470263},{"NoteNumber":46,"Velocity":51,"Duration":106416,"SoundDuration":106416,"Delta":693470263},{"NoteNumber":57,"Velocity":58,"Duration":105369,"SoundDuration":105369,"Delta":693576679},{"NoteNumber":45,"Velocity":52,"Duration":105369,"SoundDuration":105369,"Delta":693576679},{"NoteNumber":56,"Velocity":60,"Duration":104319,"SoundDuration":104319,"Delta":693682048},{"NoteNumber":44,"Velocity":54,"Duration":104319,"SoundDuration":104319,"Delta":693682048},{"NoteNumber":53,"Velocity":62,"Duration":103135,"SoundDuration":103135,"Delta":693786367},{"NoteNumber":41,"Velocity":54,"Duration":103135,"SoundDuration":103135,"Delta":693786367},{"NoteNumber":50,"Velocity":63,"Duration":102071,"SoundDuration":102071,"Delta":693889503},{"NoteNumber":38,"Velocity":56,"Duration":102071,"SoundDuration":102071,"Delta":693889503},{"NoteNumber":49,"Velocity":64,"Duration":136363,"SoundDuration":136363,"Delta":693991574},{"NoteNumber":37,"Velocity":57,"Duration":136363,"SoundDuration":136363,"Delta":693991574},{"NoteNumber":57,"Velocity":51,"Duration":452984,"SoundDuration":452984,"Delta":694264302},{"NoteNumber":54,"Velocity":42,"Duration":452984,"SoundDuration":452984,"Delta":694264302},{"NoteNumber":85,"Velocity":53,"Duration":111940,"SoundDuration":111940,"Delta":694595184},{"NoteNumber":73,"Velocity":31,"Duration":111940,"SoundDuration":111940,"Delta":694595184},{"NoteNumber":85,"Velocity":53,"Duration":121951,"SoundDuration":121951,"Delta":694707124},{"NoteNumber":73,"Velocity":31,"Duration":121951,"SoundDuration":121951,"Delta":694707124},{"NoteNumber":56,"Velocity":45,"Duration":243902,"SoundDuration":243902,"Delta":694707124},{"NoteNumber":53,"Velocity":35,"Duration":243902,"SoundDuration":243902,"Delta":694707124},{"NoteNumber":85,"Velocity":62,"Duration":125000,"SoundDuration":125000,"Delta":694951026},{"NoteNumber":73,"Velocity":36,"Duration":125000,"SoundDuration":125000,"Delta":694951026},{"NoteNumber":57,"Velocity":45,"Duration":481880,"SoundDuration":481880,"Delta":694951026},{"NoteNumber":54,"Velocity":35,"Duration":481880,"SoundDuration":481880,"Delta":694951026},{"NoteNumber":73,"Velocity":50,"Duration":98684,"SoundDuration":98684,"Delta":695323977},{"NoteNumber":61,"Velocity":29,"Duration":98684,"SoundDuration":98684,"Delta":695323977},{"NoteNumber":73,"Velocity":50,"Duration":122950,"SoundDuration":122950,"Delta":695422661},{"NoteNumber":61,"Velocity":29,"Duration":122950,"SoundDuration":122950,"Delta":695422661},{"NoteNumber":59,"Velocity":52,"Duration":245901,"SoundDuration":245901,"Delta":695422661},{"NoteNumber":56,"Velocity":42,"Duration":245901,"SoundDuration":245901,"Delta":695422661},{"NoteNumber":53,"Velocity":42,"Duration":243897,"SoundDuration":243897,"Delta":695668563},{"NoteNumber":56,"Velocity":52,"Duration":243897,"SoundDuration":243897,"Delta":695668563},{"NoteNumber":49,"Velocity":36,"Duration":110293,"SoundDuration":110293,"Delta":695912460},{"NoteNumber":48,"Velocity":33,"Duration":111940,"SoundDuration":111940,"Delta":696022754},{"NoteNumber":61,"Velocity":42,"Duration":111940,"SoundDuration":111940,"Delta":696022754},{"NoteNumber":49,"Velocity":24,"Duration":111940,"SoundDuration":111940,"Delta":696022754},{"NoteNumber":47,"Velocity":32,"Duration":116278,"SoundDuration":116278,"Delta":696134695},{"NoteNumber":61,"Velocity":42,"Duration":116278,"SoundDuration":116278,"Delta":696134695},{"NoteNumber":49,"Velocity":24,"Duration":116278,"SoundDuration":116278,"Delta":696134695},{"NoteNumber":46,"Velocity":31,"Duration":116279,"SoundDuration":116279,"Delta":696250974},{"NoteNumber":45,"Velocity":30,"Duration":101190,"SoundDuration":101190,"Delta":696367253},{"NoteNumber":61,"Velocity":49,"Duration":119047,"SoundDuration":119047,"Delta":696367253},{"NoteNumber":49,"Velocity":28,"Duration":119047,"SoundDuration":119047,"Delta":696367253},{"NoteNumber":44,"Velocity":30,"Duration":101190,"SoundDuration":101190,"Delta":696468443},{"NoteNumber":43,"Velocity":29,"Duration":103337,"SoundDuration":103337,"Delta":696569633},{"NoteNumber":42,"Velocity":29,"Duration":99772,"SoundDuration":99772,"Delta":696672971},{"NoteNumber":61,"Velocity":40,"Duration":111111,"SoundDuration":111111,"Delta":696728298},{"NoteNumber":49,"Velocity":23,"Duration":111111,"SoundDuration":111111,"Delta":696728298},{"NoteNumber":41,"Velocity":28,"Duration":97404,"SoundDuration":97404,"Delta":696772743},{"NoteNumber":61,"Velocity":40,"Duration":122950,"SoundDuration":122950,"Delta":696839409},{"NoteNumber":49,"Velocity":23,"Duration":122950,"SoundDuration":122950,"Delta":696839409},{"NoteNumber":40,"Velocity":27,"Duration":104508,"SoundDuration":104508,"Delta":696870147},{"NoteNumber":39,"Velocity":27,"Duration":106206,"SoundDuration":106206,"Delta":696974655},{"NoteNumber":84,"Velocity":36,"Duration":98684,"SoundDuration":98684,"Delta":697080862},{"NoteNumber":78,"Velocity":36,"Duration":98684,"SoundDuration":98684,"Delta":697080862},{"NoteNumber":90,"Velocity":36,"Duration":98684,"SoundDuration":98684,"Delta":697080862},{"NoteNumber":38,"Velocity":36,"Duration":98684,"SoundDuration":98684,"Delta":697080862},{"NoteNumber":89,"Velocity":38,"Duration":98684,"SoundDuration":98684,"Delta":697179546},{"NoteNumber":88,"Velocity":39,"Duration":98684,"SoundDuration":98684,"Delta":697278231},{"NoteNumber":39,"Velocity":37,"Duration":98684,"SoundDuration":98684,"Delta":697278231},{"NoteNumber":87,"Velocity":39,"Duration":98565,"SoundDuration":98565,"Delta":697376915},{"NoteNumber":86,"Velocity":40,"Duration":98039,"SoundDuration":98039,"Delta":697475481},{"NoteNumber":40,"Velocity":38,"Duration":98039,"SoundDuration":98039,"Delta":697475481},{"NoteNumber":85,"Velocity":40,"Duration":98039,"SoundDuration":98039,"Delta":697573520},{"NoteNumber":84,"Velocity":41,"Duration":98039,"SoundDuration":98039,"Delta":697671559},{"NoteNumber":41,"Velocity":38,"Duration":98039,"SoundDuration":98039,"Delta":697671559},{"NoteNumber":83,"Velocity":41,"Duration":97789,"SoundDuration":97789,"Delta":697769599},{"NoteNumber":82,"Velocity":42,"Duration":97402,"SoundDuration":97402,"Delta":697867388},{"NoteNumber":42,"Velocity":39,"Duration":97402,"SoundDuration":97402,"Delta":697867388},{"NoteNumber":81,"Velocity":42,"Duration":97402,"SoundDuration":97402,"Delta":697964791},{"NoteNumber":80,"Velocity":43,"Duration":97402,"SoundDuration":97402,"Delta":698062193},{"NoteNumber":43,"Velocity":40,"Duration":97402,"SoundDuration":97402,"Delta":698062193},{"NoteNumber":79,"Velocity":43,"Duration":97025,"SoundDuration":97025,"Delta":698159596},{"NoteNumber":78,"Velocity":44,"Duration":96774,"SoundDuration":96774,"Delta":698256621},{"NoteNumber":44,"Velocity":40,"Duration":96774,"SoundDuration":96774,"Delta":698256621},{"NoteNumber":77,"Velocity":46,"Duration":96774,"SoundDuration":96774,"Delta":698353396},{"NoteNumber":76,"Velocity":47,"Duration":96774,"SoundDuration":96774,"Delta":698450170},{"NoteNumber":45,"Velocity":42,"Duration":96774,"SoundDuration":96774,"Delta":698450170},{"NoteNumber":75,"Velocity":49,"Duration":96774,"SoundDuration":96774,"Delta":698546944},{"NoteNumber":74,"Velocity":50,"Duration":96774,"SoundDuration":96774,"Delta":698643718},{"NoteNumber":46,"Velocity":45,"Duration":96774,"SoundDuration":96774,"Delta":698643718},{"NoteNumber":73,"Velocity":51,"Duration":96774,"SoundDuration":96774,"Delta":698740493},{"NoteNumber":72,"Velocity":53,"Duration":96774,"SoundDuration":96774,"Delta":698837267},{"NoteNumber":47,"Velocity":48,"Duration":96774,"SoundDuration":96774,"Delta":698837267},{"NoteNumber":71,"Velocity":54,"Duration":96774,"SoundDuration":96774,"Delta":698934041},{"NoteNumber":70,"Velocity":55,"Duration":98709,"SoundDuration":98709,"Delta":699030815},{"NoteNumber":38,"Velocity":65,"Duration":437976,"SoundDuration":437976,"Delta":699030815},{"NoteNumber":48,"Velocity":71,"Duration":437976,"SoundDuration":437976,"Delta":699030815},{"NoteNumber":69,"Velocity":56,"Duration":101528,"SoundDuration":101528,"Delta":699129525},{"NoteNumber":68,"Velocity":57,"Duration":114395,"SoundDuration":114395,"Delta":699231054},{"NoteNumber":66,"Velocity":59,"Duration":123342,"SoundDuration":123342,"Delta":699345450},{"NoteNumber":61,"Velocity":58,"Duration":120000,"SoundDuration":120000,"Delta":699468792},{"NoteNumber":65,"Velocity":58,"Duration":120000,"SoundDuration":120000,"Delta":699468792},{"NoteNumber":73,"Velocity":69,"Duration":120000,"SoundDuration":120000,"Delta":699468792},{"NoteNumber":37,"Velocity":58,"Duration":240000,"SoundDuration":240000,"Delta":699468792},{"NoteNumber":49,"Velocity":72,"Duration":240000,"SoundDuration":240000,"Delta":699468792},{"NoteNumber":61,"Velocity":60,"Duration":120000,"SoundDuration":120000,"Delta":699708792},{"NoteNumber":97,"Velocity":64,"Duration":111940,"SoundDuration":111940,"Delta":699828792},{"NoteNumber":89,"Velocity":54,"Duration":111940,"SoundDuration":111940,"Delta":699828792},{"NoteNumber":85,"Velocity":54,"Duration":111940,"SoundDuration":111940,"Delta":699828792},{"NoteNumber":60,"Velocity":59,"Duration":111940,"SoundDuration":111940,"Delta":699828792},{"NoteNumber":97,"Velocity":64,"Duration":116278,"SoundDuration":116278,"Delta":699940732},{"NoteNumber":89,"Velocity":54,"Duration":116278,"SoundDuration":116278,"Delta":699940732},{"NoteNumber":85,"Velocity":54,"Duration":116278,"SoundDuration":116278,"Delta":699940732},{"NoteNumber":59,"Velocity":59,"Duration":116278,"SoundDuration":116278,"Delta":699940732},{"NoteNumber":58,"Velocity":59,"Duration":116279,"SoundDuration":116279,"Delta":700057011},{"NoteNumber":97,"Velocity":70,"Duration":119047,"SoundDuration":119047,"Delta":700173290},{"NoteNumber":89,"Velocity":59,"Duration":119047,"SoundDuration":119047,"Delta":700173290},{"NoteNumber":85,"Velocity":59,"Duration":119047,"SoundDuration":119047,"Delta":700173290},{"NoteNumber":57,"Velocity":59,"Duration":119047,"SoundDuration":119047,"Delta":700173290},{"NoteNumber":56,"Velocity":58,"Duration":119047,"SoundDuration":119047,"Delta":700292337},{"NoteNumber":55,"Velocity":58,"Duration":122950,"SoundDuration":122950,"Delta":700411385},{"NoteNumber":85,"Velocity":65,"Duration":111111,"SoundDuration":111111,"Delta":700534336},{"NoteNumber":77,"Velocity":55,"Duration":111111,"SoundDuration":111111,"Delta":700534336},{"NoteNumber":73,"Velocity":55,"Duration":111111,"SoundDuration":111111,"Delta":700534336},{"NoteNumber":54,"Velocity":58,"Duration":111111,"SoundDuration":111111,"Delta":700534336},{"NoteNumber":85,"Velocity":65,"Duration":122950,"SoundDuration":122950,"Delta":700645447},{"NoteNumber":77,"Velocity":55,"Duration":122950,"SoundDuration":122950,"Delta":700645447},{"NoteNumber":73,"Velocity":55,"Duration":122950,"SoundDuration":122950,"Delta":700645447},{"NoteNumber":53,"Velocity":58,"Duration":122950,"SoundDuration":122950,"Delta":700645447},{"NoteNumber":51,"Velocity":57,"Duration":122950,"SoundDuration":122950,"Delta":700768397},{"NoteNumber":73,"Velocity":58,"Duration":120000,"SoundDuration":120000,"Delta":700891348},{"NoteNumber":77,"Velocity":58,"Duration":120000,"SoundDuration":120000,"Delta":700891348},{"NoteNumber":85,"Velocity":69,"Duration":120000,"SoundDuration":120000,"Delta":700891348},{"NoteNumber":50,"Velocity":57,"Duration":120000,"SoundDuration":120000,"Delta":700891348},{"NoteNumber":49,"Velocity":57,"Duration":120000,"SoundDuration":120000,"Delta":701011348},{"NoteNumber":48,"Velocity":57,"Duration":120000,"SoundDuration":120000,"Delta":701131348},{"NoteNumber":73,"Velocity":64,"Duration":111940,"SoundDuration":111940,"Delta":701251348},{"NoteNumber":65,"Velocity":54,"Duration":111940,"SoundDuration":111940,"Delta":701251348},{"NoteNumber":61,"Velocity":54,"Duration":111940,"SoundDuration":111940,"Delta":701251348},{"NoteNumber":47,"Velocity":57,"Duration":111940,"SoundDuration":111940,"Delta":701251348},{"NoteNumber":73,"Velocity":64,"Duration":116278,"SoundDuration":116278,"Delta":701363288},{"NoteNumber":65,"Velocity":54,"Duration":116278,"SoundDuration":116278,"Delta":701363288},{"NoteNumber":61,"Velocity":54,"Duration":116278,"SoundDuration":116278,"Delta":701363288},{"NoteNumber":46,"Velocity":56,"Duration":116278,"SoundDuration":116278,"Delta":701363288},{"NoteNumber":45,"Velocity":56,"Duration":116279,"SoundDuration":116279,"Delta":701479567},{"NoteNumber":73,"Velocity":70,"Duration":119047,"SoundDuration":119047,"Delta":701595846},{"NoteNumber":65,"Velocity":59,"Duration":119047,"SoundDuration":119047,"Delta":701595846},{"NoteNumber":61,"Velocity":59,"Duration":119047,"SoundDuration":119047,"Delta":701595846},{"NoteNumber":44,"Velocity":56,"Duration":119047,"SoundDuration":119047,"Delta":701595846},{"NoteNumber":43,"Velocity":56,"Duration":119047,"SoundDuration":119047,"Delta":701714894},{"NoteNumber":42,"Velocity":55,"Duration":122950,"SoundDuration":122950,"Delta":701833941},{"NoteNumber":61,"Velocity":65,"Duration":111111,"SoundDuration":111111,"Delta":701956892},{"NoteNumber":53,"Velocity":55,"Duration":111111,"SoundDuration":111111,"Delta":701956892},{"NoteNumber":49,"Velocity":55,"Duration":111111,"SoundDuration":111111,"Delta":701956892},{"NoteNumber":41,"Velocity":55,"Duration":111111,"SoundDuration":111111,"Delta":701956892},{"NoteNumber":61,"Velocity":65,"Duration":122950,"SoundDuration":122950,"Delta":702068003},{"NoteNumber":53,"Velocity":55,"Duration":122950,"SoundDuration":122950,"Delta":702068003},{"NoteNumber":49,"Velocity":55,"Duration":122950,"SoundDuration":122950,"Delta":702068003},{"NoteNumber":40,"Velocity":55,"Duration":122950,"SoundDuration":122950,"Delta":702068003},{"NoteNumber":38,"Velocity":55,"Duration":118021,"SoundDuration":118021,"Delta":702190954},{"NoteNumber":84,"Velocity":36,"Duration":99337,"SoundDuration":99337,"Delta":702308976},{"NoteNumber":78,"Velocity":36,"Duration":99337,"SoundDuration":99337,"Delta":702308976},{"NoteNumber":90,"Velocity":36,"Duration":99337,"SoundDuration":99337,"Delta":702308976},{"NoteNumber":38,"Velocity":36,"Duration":99337,"SoundDuration":99337,"Delta":702308976},{"NoteNumber":89,"Velocity":38,"Duration":99337,"SoundDuration":99337,"Delta":702408314},{"NoteNumber":88,"Velocity":39,"Duration":99337,"SoundDuration":99337,"Delta":702507651},{"NoteNumber":39,"Velocity":44,"Duration":99337,"SoundDuration":99337,"Delta":702507651},{"NoteNumber":87,"Velocity":39,"Duration":98301,"SoundDuration":98301,"Delta":702606989},{"NoteNumber":86,"Velocity":40,"Duration":98039,"SoundDuration":98039,"Delta":702705290},{"NoteNumber":40,"Velocity":45,"Duration":98039,"SoundDuration":98039,"Delta":702705290},{"NoteNumber":85,"Velocity":40,"Duration":98039,"SoundDuration":98039,"Delta":702803330},{"NoteNumber":84,"Velocity":41,"Duration":98562,"SoundDuration":98562,"Delta":702901369},{"NoteNumber":41,"Velocity":45,"Duration":98562,"SoundDuration":98562,"Delta":702901369},{"NoteNumber":83,"Velocity":41,"Duration":98039,"SoundDuration":98039,"Delta":702999931},{"NoteNumber":82,"Velocity":42,"Duration":98039,"SoundDuration":98039,"Delta":703097970},{"NoteNumber":42,"Velocity":45,"Duration":98039,"SoundDuration":98039,"Delta":703097970},{"NoteNumber":81,"Velocity":42,"Duration":97124,"SoundDuration":97124,"Delta":703196010},{"NoteNumber":80,"Velocity":43,"Duration":96153,"SoundDuration":96153,"Delta":703293134},{"NoteNumber":43,"Velocity":46,"Duration":96153,"SoundDuration":96153,"Delta":703293134},{"NoteNumber":79,"Velocity":43,"Duration":96112,"SoundDuration":96112,"Delta":703389288},{"NoteNumber":78,"Velocity":44,"Duration":83148,"SoundDuration":83148,"Delta":703485401},{"NoteNumber":44,"Velocity":46,"Duration":97950,"SoundDuration":97950,"Delta":703485401},{"NoteNumber":77,"Velocity":46,"Duration":83688,"SoundDuration":83688,"Delta":703568549},{"NoteNumber":76,"Velocity":47,"Duration":83537,"SoundDuration":83537,"Delta":703652237},{"NoteNumber":45,"Velocity":50,"Duration":98533,"SoundDuration":98533,"Delta":703681649},{"NoteNumber":75,"Velocity":49,"Duration":84099,"SoundDuration":84099,"Delta":703735775},{"NoteNumber":74,"Velocity":50,"Duration":88848,"SoundDuration":88848,"Delta":703819874},{"NoteNumber":46,"Velocity":53,"Duration":116278,"SoundDuration":116278,"Delta":703879653},{"NoteNumber":73,"Velocity":51,"Duration":103692,"SoundDuration":103692,"Delta":703908723},{"NoteNumber":72,"Velocity":51,"Duration":148351,"SoundDuration":148351,"Delta":704012416},{"NoteNumber":69,"Velocity":62,"Duration":101351,"SoundDuration":101351,"Delta":704160768},{"NoteNumber":71,"Velocity":72,"Duration":101351,"SoundDuration":101351,"Delta":704160768},{"NoteNumber":66,"Velocity":49,"Duration":101351,"SoundDuration":101351,"Delta":704160768},{"NoteNumber":39,"Velocity":60,"Duration":710363,"SoundDuration":710363,"Delta":704160768},{"NoteNumber":47,"Velocity":74,"Duration":710363,"SoundDuration":710363,"Delta":704160768},{"NoteNumber":65,"Velocity":45,"Duration":101764,"SoundDuration":101764,"Delta":704262119},{"NoteNumber":64,"Velocity":45,"Duration":102343,"SoundDuration":102343,"Delta":704363884},{"NoteNumber":63,"Velocity":45,"Duration":103545,"SoundDuration":103545,"Delta":704466227},{"NoteNumber":60,"Velocity":45,"Duration":114395,"SoundDuration":114395,"Delta":704569773},{"NoteNumber":59,"Velocity":45,"Duration":186962,"SoundDuration":186962,"Delta":704684169},{"NoteNumber":86,"Velocity":36,"Duration":99471,"SoundDuration":99471,"Delta":704871131},{"NoteNumber":80,"Velocity":36,"Duration":99471,"SoundDuration":99471,"Delta":704871131},{"NoteNumber":92,"Velocity":36,"Duration":99471,"SoundDuration":99471,"Delta":704871131},{"NoteNumber":40,"Velocity":36,"Duration":99471,"SoundDuration":99471,"Delta":704871131},{"NoteNumber":91,"Velocity":38,"Duration":99337,"SoundDuration":99337,"Delta":704970603},{"NoteNumber":90,"Velocity":39,"Duration":100582,"SoundDuration":100582,"Delta":705069940},{"NoteNumber":41,"Velocity":44,"Duration":100582,"SoundDuration":100582,"Delta":705069940},{"NoteNumber":89,"Velocity":39,"Duration":100671,"SoundDuration":100671,"Delta":705170523},{"NoteNumber":88,"Velocity":40,"Duration":100044,"SoundDuration":100044,"Delta":705271194},{"NoteNumber":42,"Velocity":45,"Duration":100044,"SoundDuration":100044,"Delta":705271194},{"NoteNumber":87,"Velocity":40,"Duration":100000,"SoundDuration":100000,"Delta":705371239},{"NoteNumber":86,"Velocity":41,"Duration":99381,"SoundDuration":99381,"Delta":705471239},{"NoteNumber":43,"Velocity":45,"Duration":99381,"SoundDuration":99381,"Delta":705471239},{"NoteNumber":85,"Velocity":41,"Duration":99208,"SoundDuration":99208,"Delta":705570621},{"NoteNumber":84,"Velocity":42,"Duration":97402,"SoundDuration":97402,"Delta":705669829},{"NoteNumber":44,"Velocity":45,"Duration":97402,"SoundDuration":97402,"Delta":705669829},{"NoteNumber":83,"Velocity":42,"Duration":97444,"SoundDuration":97444,"Delta":705767232},{"NoteNumber":82,"Velocity":43,"Duration":96279,"SoundDuration":96279,"Delta":705864677},{"NoteNumber":45,"Velocity":46,"Duration":96279,"SoundDuration":96279,"Delta":705864677},{"NoteNumber":81,"Velocity":43,"Duration":96403,"SoundDuration":96403,"Delta":705960956},{"NoteNumber":80,"Velocity":44,"Duration":83582,"SoundDuration":83582,"Delta":706057360},{"NoteNumber":46,"Velocity":46,"Duration":98385,"SoundDuration":98385,"Delta":706057360},{"NoteNumber":79,"Velocity":46,"Duration":83688,"SoundDuration":83688,"Delta":706140942},{"NoteNumber":78,"Velocity":47,"Duration":83537,"SoundDuration":83537,"Delta":706224630},{"NoteNumber":47,"Velocity":50,"Duration":98533,"SoundDuration":98533,"Delta":706254042},{"NoteNumber":77,"Velocity":49,"Duration":84099,"SoundDuration":84099,"Delta":706308168},{"NoteNumber":76,"Velocity":50,"Duration":88848,"SoundDuration":88848,"Delta":706392268},{"NoteNumber":48,"Velocity":53,"Duration":116278,"SoundDuration":116278,"Delta":706452047},{"NoteNumber":75,"Velocity":51,"Duration":103513,"SoundDuration":103513,"Delta":706481117},{"NoteNumber":74,"Velocity":51,"Duration":146739,"SoundDuration":146739,"Delta":706584630},{"NoteNumber":71,"Velocity":61,"Duration":101351,"SoundDuration":101351,"Delta":706731369},{"NoteNumber":73,"Velocity":74,"Duration":101351,"SoundDuration":101351,"Delta":706731369},{"NoteNumber":68,"Velocity":49,"Duration":101351,"SoundDuration":101351,"Delta":706731369},{"NoteNumber":41,"Velocity":64,"Duration":646743,"SoundDuration":646743,"Delta":706731369},{"NoteNumber":49,"Velocity":73,"Duration":646743,"SoundDuration":646743,"Delta":706731369},{"NoteNumber":67,"Velocity":50,"Duration":101764,"SoundDuration":101764,"Delta":706832721},{"NoteNumber":66,"Velocity":52,"Duration":102343,"SoundDuration":102343,"Delta":706934485},{"NoteNumber":65,"Velocity":54,"Duration":103545,"SoundDuration":103545,"Delta":707036829},{"NoteNumber":62,"Velocity":56,"Duration":114395,"SoundDuration":114395,"Delta":707140375},{"NoteNumber":61,"Velocity":58,"Duration":123342,"SoundDuration":123342,"Delta":707254770},{"NoteNumber":69,"Velocity":67,"Duration":120000,"SoundDuration":120000,"Delta":707378113},{"NoteNumber":72,"Velocity":69,"Duration":120000,"SoundDuration":120000,"Delta":707378113},{"NoteNumber":75,"Velocity":70,"Duration":120000,"SoundDuration":120000,"Delta":707378113},{"NoteNumber":81,"Velocity":78,"Duration":120000,"SoundDuration":120000,"Delta":707378113},{"NoteNumber":42,"Velocity":63,"Duration":120000,"SoundDuration":120000,"Delta":707378113},{"NoteNumber":48,"Velocity":63,"Duration":120000,"SoundDuration":120000,"Delta":707378113},{"NoteNumber":51,"Velocity":63,"Duration":120000,"SoundDuration":120000,"Delta":707378113},{"NoteNumber":57,"Velocity":72,"Duration":120000,"SoundDuration":120000,"Delta":707378113},{"NoteNumber":93,"Velocity":84,"Duration":90253,"SoundDuration":90253,"Delta":707615877},{"NoteNumber":81,"Velocity":71,"Duration":90253,"SoundDuration":90253,"Delta":707615877},{"NoteNumber":80,"Velocity":73,"Duration":89606,"SoundDuration":89606,"Delta":707706130},{"NoteNumber":91,"Velocity":86,"Duration":88793,"SoundDuration":88793,"Delta":707795736},{"NoteNumber":79,"Velocity":73,"Duration":88793,"SoundDuration":88793,"Delta":707795736},{"NoteNumber":78,"Velocity":74,"Duration":87960,"SoundDuration":87960,"Delta":707884529},{"NoteNumber":89,"Velocity":88,"Duration":87244,"SoundDuration":87244,"Delta":707972489},{"NoteNumber":77,"Velocity":74,"Duration":87244,"SoundDuration":87244,"Delta":707972489},{"NoteNumber":76,"Velocity":77,"Duration":86505,"SoundDuration":86505,"Delta":708059734},{"NoteNumber":87,"Velocity":90,"Duration":85878,"SoundDuration":85878,"Delta":708146240},{"NoteNumber":75,"Velocity":75,"Duration":85878,"SoundDuration":85878,"Delta":708146240},{"NoteNumber":74,"Velocity":78,"Duration":85098,"SoundDuration":85098,"Delta":708232119},{"NoteNumber":85,"Velocity":91,"Duration":84396,"SoundDuration":84396,"Delta":708317218},{"NoteNumber":73,"Velocity":77,"Duration":84396,"SoundDuration":84396,"Delta":708317218},{"NoteNumber":72,"Velocity":80,"Duration":84140,"SoundDuration":84140,"Delta":708401614},{"NoteNumber":83,"Velocity":93,"Duration":90361,"SoundDuration":90361,"Delta":708485754},{"NoteNumber":71,"Velocity":79,"Duration":90361,"SoundDuration":90361,"Delta":708485754},{"NoteNumber":70,"Velocity":81,"Duration":90361,"SoundDuration":90361,"Delta":708576116},{"NoteNumber":81,"Velocity":95,"Duration":86206,"SoundDuration":86206,"Delta":708666477},{"NoteNumber":69,"Velocity":80,"Duration":86206,"SoundDuration":86206,"Delta":708666477},{"NoteNumber":68,"Velocity":83,"Duration":86207,"SoundDuration":86207,"Delta":708752684},{"NoteNumber":79,"Velocity":96,"Duration":93167,"SoundDuration":93167,"Delta":708838891},{"NoteNumber":67,"Velocity":81,"Duration":93167,"SoundDuration":93167,"Delta":708838891},{"NoteNumber":66,"Velocity":84,"Duration":93167,"SoundDuration":93167,"Delta":708932059},{"NoteNumber":77,"Velocity":99,"Duration":89820,"SoundDuration":89820,"Delta":709025227},{"NoteNumber":65,"Velocity":83,"Duration":89820,"SoundDuration":89820,"Delta":709025227},{"NoteNumber":64,"Velocity":86,"Duration":89820,"SoundDuration":89820,"Delta":709115047},{"NoteNumber":75,"Velocity":101,"Duration":65789,"SoundDuration":65789,"Delta":709204867},{"NoteNumber":63,"Velocity":85,"Duration":65789,"SoundDuration":65789,"Delta":709204867},{"NoteNumber":62,"Velocity":88,"Duration":65789,"SoundDuration":65789,"Delta":709270657},{"NoteNumber":73,"Velocity":102,"Duration":65789,"SoundDuration":65789,"Delta":709336446},{"NoteNumber":61,"Velocity":85,"Duration":65789,"SoundDuration":65789,"Delta":709336446},{"NoteNumber":72,"Velocity":102,"Duration":108695,"SoundDuration":108695,"Delta":709402236},{"NoteNumber":60,"Velocity":86,"Duration":108695,"SoundDuration":108695,"Delta":709402236},{"NoteNumber":63,"Velocity":86,"Duration":108695,"SoundDuration":108695,"Delta":709402236},{"NoteNumber":54,"Velocity":89,"Duration":108695,"SoundDuration":108695,"Delta":709402236},{"NoteNumber":57,"Velocity":89,"Duration":108695,"SoundDuration":108695,"Delta":709402236},{"NoteNumber":73,"Velocity":104,"Duration":108695,"SoundDuration":108695,"Delta":709619627},{"NoteNumber":61,"Velocity":88,"Duration":108695,"SoundDuration":108695,"Delta":709619627},{"NoteNumber":65,"Velocity":88,"Duration":108695,"SoundDuration":108695,"Delta":709619627},{"NoteNumber":49,"Velocity":90,"Duration":108695,"SoundDuration":108695,"Delta":709619627},{"NoteNumber":41,"Velocity":75,"Duration":108695,"SoundDuration":108695,"Delta":709619627},{"NoteNumber":44,"Velocity":75,"Duration":108695,"SoundDuration":108695,"Delta":709619627},{"NoteNumber":29,"Velocity":70,"Duration":108695,"SoundDuration":108695,"Delta":709837019},{"NoteNumber":37,"Velocity":81,"Duration":108695,"SoundDuration":108695,"Delta":709837019},{"NoteNumber":97,"Velocity":79,"Duration":111940,"SoundDuration":111940,"Delta":709945715},{"NoteNumber":89,"Velocity":67,"Duration":111940,"SoundDuration":111940,"Delta":709945715},{"NoteNumber":85,"Velocity":67,"Duration":111940,"SoundDuration":111940,"Delta":709945715},{"NoteNumber":97,"Velocity":79,"Duration":116278,"SoundDuration":116278,"Delta":710057655},{"NoteNumber":89,"Velocity":67,"Duration":116278,"SoundDuration":116278,"Delta":710057655},{"NoteNumber":85,"Velocity":67,"Duration":116278,"SoundDuration":116278,"Delta":710057655},{"NoteNumber":30,"Velocity":70,"Duration":116278,"SoundDuration":116278,"Delta":710057655},{"NoteNumber":38,"Velocity":81,"Duration":116278,"SoundDuration":116278,"Delta":710057655},{"NoteNumber":97,"Velocity":85,"Duration":119047,"SoundDuration":119047,"Delta":710290213},{"NoteNumber":89,"Velocity":72,"Duration":119047,"SoundDuration":119047,"Delta":710290213},{"NoteNumber":85,"Velocity":72,"Duration":119047,"SoundDuration":119047,"Delta":710290213},{"NoteNumber":31,"Velocity":70,"Duration":119047,"SoundDuration":119047,"Delta":710290213},{"NoteNumber":39,"Velocity":81,"Duration":119047,"SoundDuration":119047,"Delta":710290213},{"NoteNumber":32,"Velocity":70,"Duration":114503,"SoundDuration":114503,"Delta":710528308},{"NoteNumber":40,"Velocity":81,"Duration":114503,"SoundDuration":114503,"Delta":710528308},{"NoteNumber":85,"Velocity":80,"Duration":106383,"SoundDuration":106383,"Delta":710642812},{"NoteNumber":77,"Velocity":68,"Duration":106383,"SoundDuration":106383,"Delta":710642812},{"NoteNumber":73,"Velocity":68,"Duration":106383,"SoundDuration":106383,"Delta":710642812},{"NoteNumber":85,"Velocity":80,"Duration":119047,"SoundDuration":119047,"Delta":710749195},{"NoteNumber":77,"Velocity":68,"Duration":119047,"SoundDuration":119047,"Delta":710749195},{"NoteNumber":73,"Velocity":68,"Duration":119047,"SoundDuration":119047,"Delta":710749195},{"NoteNumber":33,"Velocity":70,"Duration":119047,"SoundDuration":119047,"Delta":710749195},{"NoteNumber":41,"Velocity":81,"Duration":119047,"SoundDuration":119047,"Delta":710749195},{"NoteNumber":73,"Velocity":71,"Duration":114503,"SoundDuration":114503,"Delta":710987290},{"NoteNumber":77,"Velocity":71,"Duration":114503,"SoundDuration":114503,"Delta":710987290},{"NoteNumber":85,"Velocity":84,"Duration":114503,"SoundDuration":114503,"Delta":710987290},{"NoteNumber":34,"Velocity":79,"Duration":114503,"SoundDuration":114503,"Delta":710987290},{"NoteNumber":42,"Velocity":90,"Duration":114503,"SoundDuration":114503,"Delta":710987290},{"NoteNumber":35,"Velocity":72,"Duration":114503,"SoundDuration":114503,"Delta":711159045},{"NoteNumber":43,"Velocity":83,"Duration":114503,"SoundDuration":114503,"Delta":711159045},{"NoteNumber":73,"Velocity":79,"Duration":108695,"SoundDuration":108695,"Delta":711330801},{"NoteNumber":65,"Velocity":67,"Duration":108695,"SoundDuration":108695,"Delta":711330801},{"NoteNumber":61,"Velocity":67,"Duration":108695,"SoundDuration":108695,"Delta":711330801},{"NoteNumber":36,"Velocity":72,"Duration":108695,"SoundDuration":108695,"Delta":711330801},{"NoteNumber":44,"Velocity":83,"Duration":108695,"SoundDuration":108695,"Delta":711330801},{"NoteNumber":73,"Velocity":79,"Duration":112782,"SoundDuration":112782,"Delta":711439497},{"NoteNumber":65,"Velocity":67,"Duration":112782,"SoundDuration":112782,"Delta":711439497},{"NoteNumber":61,"Velocity":67,"Duration":112782,"SoundDuration":112782,"Delta":711439497},{"NoteNumber":37,"Velocity":72,"Duration":112782,"SoundDuration":112782,"Delta":711495888},{"NoteNumber":45,"Velocity":83,"Duration":112782,"SoundDuration":112782,"Delta":711495888},{"NoteNumber":73,"Velocity":85,"Duration":116278,"SoundDuration":116278,"Delta":711665061},{"NoteNumber":65,"Velocity":72,"Duration":116278,"SoundDuration":116278,"Delta":711665061},{"NoteNumber":61,"Velocity":72,"Duration":116278,"SoundDuration":116278,"Delta":711665061},{"NoteNumber":38,"Velocity":72,"Duration":116278,"SoundDuration":116278,"Delta":711665061},{"NoteNumber":46,"Velocity":83,"Duration":116278,"SoundDuration":116278,"Delta":711665061},{"NoteNumber":39,"Velocity":72,"Duration":116279,"SoundDuration":116279,"Delta":711839479},{"NoteNumber":47,"Velocity":83,"Duration":116279,"SoundDuration":116279,"Delta":711839479},{"NoteNumber":61,"Velocity":80,"Duration":107142,"SoundDuration":107142,"Delta":712013898},{"NoteNumber":53,"Velocity":68,"Duration":107142,"SoundDuration":107142,"Delta":712013898},{"NoteNumber":49,"Velocity":68,"Duration":107142,"SoundDuration":107142,"Delta":712013898},{"NoteNumber":40,"Velocity":72,"Duration":107142,"SoundDuration":107142,"Delta":712013898},{"NoteNumber":48,"Velocity":83,"Duration":107142,"SoundDuration":107142,"Delta":712013898},{"NoteNumber":61,"Velocity":80,"Duration":118110,"SoundDuration":118110,"Delta":712121040},{"NoteNumber":53,"Velocity":68,"Duration":118110,"SoundDuration":118110,"Delta":712121040},{"NoteNumber":49,"Velocity":68,"Duration":118110,"SoundDuration":118110,"Delta":712121040},{"NoteNumber":41,"Velocity":72,"Duration":118110,"SoundDuration":118110,"Delta":712180095},{"NoteNumber":49,"Velocity":83,"Duration":118110,"SoundDuration":118110,"Delta":712180095},{"NoteNumber":69,"Velocity":75,"Duration":113636,"SoundDuration":113636,"Delta":712357261},{"NoteNumber":72,"Velocity":77,"Duration":113636,"SoundDuration":113636,"Delta":712357261},{"NoteNumber":75,"Velocity":78,"Duration":113636,"SoundDuration":113636,"Delta":712357261},{"NoteNumber":81,"Velocity":87,"Duration":113636,"SoundDuration":113636,"Delta":712357261},{"NoteNumber":42,"Velocity":74,"Duration":113636,"SoundDuration":113636,"Delta":712357261},{"NoteNumber":48,"Velocity":74,"Duration":113636,"SoundDuration":113636,"Delta":712357261},{"NoteNumber":51,"Velocity":74,"Duration":113636,"SoundDuration":113636,"Delta":712357261},{"NoteNumber":57,"Velocity":85,"Duration":113636,"SoundDuration":113636,"Delta":712357261},{"NoteNumber":93,"Velocity":84,"Duration":93478,"SoundDuration":93478,"Delta":712579230},{"NoteNumber":81,"Velocity":71,"Duration":93478,"SoundDuration":93478,"Delta":712579230},{"NoteNumber":80,"Velocity":73,"Duration":92403,"SoundDuration":92403,"Delta":712672709},{"NoteNumber":91,"Velocity":86,"Duration":91353,"SoundDuration":91353,"Delta":712765112},{"NoteNumber":79,"Velocity":73,"Duration":91353,"SoundDuration":91353,"Delta":712765112},{"NoteNumber":78,"Velocity":74,"Duration":90326,"SoundDuration":90326,"Delta":712856466},{"NoteNumber":89,"Velocity":88,"Duration":89322,"SoundDuration":89322,"Delta":712946792},{"NoteNumber":77,"Velocity":74,"Duration":89322,"SoundDuration":89322,"Delta":712946792},{"NoteNumber":76,"Velocity":77,"Duration":88340,"SoundDuration":88340,"Delta":713036115},{"NoteNumber":87,"Velocity":90,"Duration":87379,"SoundDuration":87379,"Delta":713124456},{"NoteNumber":75,"Velocity":75,"Duration":87379,"SoundDuration":87379,"Delta":713124456},{"NoteNumber":74,"Velocity":78,"Duration":86439,"SoundDuration":86439,"Delta":713211835},{"NoteNumber":85,"Velocity":91,"Duration":85486,"SoundDuration":85486,"Delta":713298275},{"NoteNumber":73,"Velocity":77,"Duration":85486,"SoundDuration":85486,"Delta":713298275},{"NoteNumber":72,"Velocity":80,"Duration":84587,"SoundDuration":84587,"Delta":713383762},{"NoteNumber":83,"Velocity":93,"Duration":91840,"SoundDuration":91840,"Delta":713468349},{"NoteNumber":71,"Velocity":79,"Duration":91840,"SoundDuration":91840,"Delta":713468349},{"NoteNumber":70,"Velocity":81,"Duration":92024,"SoundDuration":92024,"Delta":713560190},{"NoteNumber":81,"Velocity":95,"Duration":86705,"SoundDuration":86705,"Delta":713652214},{"NoteNumber":69,"Velocity":80,"Duration":86705,"SoundDuration":86705,"Delta":713652214},{"NoteNumber":68,"Velocity":83,"Duration":86705,"SoundDuration":86705,"Delta":713738920},{"NoteNumber":79,"Velocity":96,"Duration":92024,"SoundDuration":92024,"Delta":713825625},{"NoteNumber":67,"Velocity":81,"Duration":92024,"SoundDuration":92024,"Delta":713825625},{"NoteNumber":66,"Velocity":84,"Duration":92024,"SoundDuration":92024,"Delta":713917649},{"NoteNumber":77,"Velocity":99,"Duration":89820,"SoundDuration":89820,"Delta":714009674},{"NoteNumber":65,"Velocity":83,"Duration":89820,"SoundDuration":89820,"Delta":714009674},{"NoteNumber":64,"Velocity":86,"Duration":89820,"SoundDuration":89820,"Delta":714099494},{"NoteNumber":75,"Velocity":101,"Duration":65789,"SoundDuration":65789,"Delta":714189314},{"NoteNumber":63,"Velocity":85,"Duration":65789,"SoundDuration":65789,"Delta":714189314},{"NoteNumber":62,"Velocity":88,"Duration":65789,"SoundDuration":65789,"Delta":714255104},{"NoteNumber":73,"Velocity":102,"Duration":65789,"SoundDuration":65789,"Delta":714320893},{"NoteNumber":61,"Velocity":85,"Duration":65789,"SoundDuration":65789,"Delta":714320893},{"NoteNumber":72,"Velocity":102,"Duration":108695,"SoundDuration":108695,"Delta":714386683},{"NoteNumber":60,"Velocity":86,"Duration":108695,"SoundDuration":108695,"Delta":714386683},{"NoteNumber":63,"Velocity":86,"Duration":108695,"SoundDuration":108695,"Delta":714386683},{"NoteNumber":54,"Velocity":89,"Duration":108695,"SoundDuration":108695,"Delta":714386683},{"NoteNumber":57,"Velocity":89,"Duration":108695,"SoundDuration":108695,"Delta":714386683},{"NoteNumber":73,"Velocity":104,"Duration":108695,"SoundDuration":108695,"Delta":714604074},{"NoteNumber":61,"Velocity":88,"Duration":108695,"SoundDuration":108695,"Delta":714604074},{"NoteNumber":65,"Velocity":88,"Duration":108695,"SoundDuration":108695,"Delta":714604074},{"NoteNumber":49,"Velocity":90,"Duration":108695,"SoundDuration":108695,"Delta":714604074},{"NoteNumber":41,"Velocity":75,"Duration":108695,"SoundDuration":108695,"Delta":714604074},{"NoteNumber":44,"Velocity":75,"Duration":108695,"SoundDuration":108695,"Delta":714604074},{"NoteNumber":29,"Velocity":70,"Duration":108695,"SoundDuration":108695,"Delta":714821466},{"NoteNumber":37,"Velocity":81,"Duration":108695,"SoundDuration":108695,"Delta":714821466},{"NoteNumber":97,"Velocity":79,"Duration":111940,"SoundDuration":111940,"Delta":714930162},{"NoteNumber":89,"Velocity":67,"Duration":111940,"SoundDuration":111940,"Delta":714930162},{"NoteNumber":85,"Velocity":67,"Duration":111940,"SoundDuration":111940,"Delta":714930162},{"NoteNumber":97,"Velocity":79,"Duration":114503,"SoundDuration":114503,"Delta":715042102},{"NoteNumber":89,"Velocity":67,"Duration":114503,"SoundDuration":114503,"Delta":715042102},{"NoteNumber":85,"Velocity":67,"Duration":114503,"SoundDuration":114503,"Delta":715042102},{"NoteNumber":30,"Velocity":70,"Duration":114503,"SoundDuration":114503,"Delta":715042102},{"NoteNumber":38,"Velocity":81,"Duration":114503,"SoundDuration":114503,"Delta":715042102},{"NoteNumber":97,"Velocity":85,"Duration":117187,"SoundDuration":117187,"Delta":715271109},{"NoteNumber":89,"Velocity":72,"Duration":117187,"SoundDuration":117187,"Delta":715271109},{"NoteNumber":85,"Velocity":72,"Duration":117187,"SoundDuration":117187,"Delta":715271109},{"NoteNumber":31,"Velocity":70,"Duration":117187,"SoundDuration":117187,"Delta":715271109},{"NoteNumber":39,"Velocity":81,"Duration":117187,"SoundDuration":117187,"Delta":715271109},{"NoteNumber":32,"Velocity":70,"Duration":120069,"SoundDuration":120069,"Delta":715446891},{"NoteNumber":40,"Velocity":81,"Duration":120069,"SoundDuration":120069,"Delta":715446891},{"NoteNumber":85,"Velocity":80,"Duration":109489,"SoundDuration":109489,"Delta":715628435},{"NoteNumber":77,"Velocity":68,"Duration":109489,"SoundDuration":109489,"Delta":715628435},{"NoteNumber":73,"Velocity":68,"Duration":109489,"SoundDuration":109489,"Delta":715628435},{"NoteNumber":33,"Velocity":70,"Duration":109489,"SoundDuration":109489,"Delta":715628435},{"NoteNumber":41,"Velocity":81,"Duration":109489,"SoundDuration":109489,"Delta":715628435},{"NoteNumber":85,"Velocity":80,"Duration":114503,"SoundDuration":114503,"Delta":715737924},{"NoteNumber":77,"Velocity":68,"Duration":114503,"SoundDuration":114503,"Delta":715737924},{"NoteNumber":73,"Velocity":68,"Duration":114503,"SoundDuration":114503,"Delta":715737924},{"NoteNumber":34,"Velocity":70,"Duration":114503,"SoundDuration":114503,"Delta":715795176},{"NoteNumber":42,"Velocity":81,"Duration":114503,"SoundDuration":114503,"Delta":715795176},{"NoteNumber":73,"Velocity":71,"Duration":117187,"SoundDuration":117187,"Delta":715966932},{"NoteNumber":77,"Velocity":71,"Duration":117187,"SoundDuration":117187,"Delta":715966932},{"NoteNumber":85,"Velocity":84,"Duration":117187,"SoundDuration":117187,"Delta":715966932},{"NoteNumber":35,"Velocity":79,"Duration":117187,"SoundDuration":117187,"Delta":715966932},{"NoteNumber":43,"Velocity":90,"Duration":117187,"SoundDuration":117187,"Delta":715966932},{"NoteNumber":36,"Velocity":72,"Duration":117187,"SoundDuration":117187,"Delta":716142713},{"NoteNumber":44,"Velocity":83,"Duration":117187,"SoundDuration":117187,"Delta":716142713},{"NoteNumber":73,"Velocity":79,"Duration":108695,"SoundDuration":108695,"Delta":716318494},{"NoteNumber":65,"Velocity":67,"Duration":108695,"SoundDuration":108695,"Delta":716318494},{"NoteNumber":61,"Velocity":67,"Duration":108695,"SoundDuration":108695,"Delta":716318494},{"NoteNumber":37,"Velocity":72,"Duration":108695,"SoundDuration":108695,"Delta":716318494},{"NoteNumber":45,"Velocity":83,"Duration":108695,"SoundDuration":108695,"Delta":716318494},{"NoteNumber":73,"Velocity":79,"Duration":114503,"SoundDuration":114503,"Delta":716427190},{"NoteNumber":65,"Velocity":67,"Duration":114503,"SoundDuration":114503,"Delta":716427190},{"NoteNumber":61,"Velocity":67,"Duration":114503,"SoundDuration":114503,"Delta":716427190},{"NoteNumber":38,"Velocity":72,"Duration":114503,"SoundDuration":114503,"Delta":716484442},{"NoteNumber":46,"Velocity":83,"Duration":114503,"SoundDuration":114503,"Delta":716484442},{"NoteNumber":73,"Velocity":85,"Duration":119047,"SoundDuration":119047,"Delta":716656197},{"NoteNumber":65,"Velocity":72,"Duration":119047,"SoundDuration":119047,"Delta":716656197},{"NoteNumber":61,"Velocity":72,"Duration":119047,"SoundDuration":119047,"Delta":716656197},{"NoteNumber":39,"Velocity":72,"Duration":119047,"SoundDuration":119047,"Delta":716656197},{"NoteNumber":47,"Velocity":83,"Duration":119047,"SoundDuration":119047,"Delta":716656197},{"NoteNumber":40,"Velocity":72,"Duration":120999,"SoundDuration":120999,"Delta":716834769},{"NoteNumber":48,"Velocity":83,"Duration":120999,"SoundDuration":120999,"Delta":716834769},{"NoteNumber":61,"Velocity":80,"Duration":111111,"SoundDuration":111111,"Delta":717017243},{"NoteNumber":53,"Velocity":68,"Duration":111111,"SoundDuration":111111,"Delta":717017243},{"NoteNumber":49,"Velocity":68,"Duration":111111,"SoundDuration":111111,"Delta":717017243},{"NoteNumber":37,"Velocity":72,"Duration":111111,"SoundDuration":111111,"Delta":717017243},{"NoteNumber":41,"Velocity":72,"Duration":111111,"SoundDuration":111111,"Delta":717017243},{"NoteNumber":49,"Velocity":83,"Duration":111111,"SoundDuration":111111,"Delta":717017243},{"NoteNumber":61,"Velocity":80,"Duration":122950,"SoundDuration":122950,"Delta":717128354},{"NoteNumber":53,"Velocity":68,"Duration":122950,"SoundDuration":122950,"Delta":717128354},{"NoteNumber":49,"Velocity":68,"Duration":122950,"SoundDuration":122950,"Delta":717128354},{"NoteNumber":35,"Velocity":72,"Duration":122950,"SoundDuration":122950,"Delta":717189830},{"NoteNumber":47,"Velocity":83,"Duration":122950,"SoundDuration":122950,"Delta":717189830},{"NoteNumber":66,"Velocity":64,"Duration":88097,"SoundDuration":88097,"Delta":717368056},{"NoteNumber":54,"Velocity":54,"Duration":88097,"SoundDuration":88097,"Delta":717368056},{"NoteNumber":45,"Velocity":83,"Duration":124387,"SoundDuration":124387,"Delta":717368056},{"NoteNumber":33,"Velocity":70,"Duration":124387,"SoundDuration":124387,"Delta":717368056},{"NoteNumber":37,"Velocity":70,"Duration":124387,"SoundDuration":124387,"Delta":717368056},{"NoteNumber":42,"Velocity":70,"Duration":124387,"SoundDuration":124387,"Delta":717368056},{"NoteNumber":55,"Velocity":61,"Duration":118116,"SoundDuration":118116,"Delta":717472253},{"NoteNumber":68,"Velocity":66,"Duration":81121,"SoundDuration":81121,"Delta":717571015},{"NoteNumber":56,"Velocity":56,"Duration":81121,"SoundDuration":81121,"Delta":717571015},{"NoteNumber":57,"Velocity":63,"Duration":111542,"SoundDuration":111542,"Delta":717666887},{"NoteNumber":70,"Velocity":68,"Duration":77879,"SoundDuration":77879,"Delta":717759911},{"NoteNumber":58,"Velocity":57,"Duration":77879,"SoundDuration":77879,"Delta":717759911},{"NoteNumber":59,"Velocity":66,"Duration":110176,"SoundDuration":110176,"Delta":717852362},{"NoteNumber":72,"Velocity":70,"Duration":76930,"SoundDuration":76930,"Delta":717944246},{"NoteNumber":60,"Velocity":59,"Duration":76173,"SoundDuration":76173,"Delta":717944246},{"NoteNumber":61,"Velocity":68,"Duration":108844,"SoundDuration":108844,"Delta":718035571},{"NoteNumber":74,"Velocity":73,"Duration":76004,"SoundDuration":76004,"Delta":718126343},{"NoteNumber":62,"Velocity":62,"Duration":76004,"SoundDuration":76004,"Delta":718126343},{"NoteNumber":63,"Velocity":71,"Duration":107404,"SoundDuration":107404,"Delta":718216569},{"NoteNumber":76,"Velocity":75,"Duration":76436,"SoundDuration":76436,"Delta":718305946},{"NoteNumber":64,"Velocity":63,"Duration":76436,"SoundDuration":76436,"Delta":718305946},{"NoteNumber":65,"Velocity":74,"Duration":165878,"SoundDuration":165878,"Delta":718396953},{"NoteNumber":78,"Velocity":84,"Duration":84494,"SoundDuration":84494,"Delta":718542584},{"NoteNumber":66,"Velocity":71,"Duration":84494,"SoundDuration":84494,"Delta":718542584},{"NoteNumber":70,"Velocity":71,"Duration":84494,"SoundDuration":84494,"Delta":718542584},{"NoteNumber":73,"Velocity":71,"Duration":84494,"SoundDuration":84494,"Delta":718542584},{"NoteNumber":54,"Velocity":83,"Duration":119834,"SoundDuration":119834,"Delta":718542584},{"NoteNumber":46,"Velocity":70,"Duration":119834,"SoundDuration":119834,"Delta":718542584},{"NoteNumber":49,"Velocity":70,"Duration":119834,"SoundDuration":119834,"Delta":718542584},{"NoteNumber":65,"Velocity":72,"Duration":116517,"SoundDuration":116517,"Delta":718642704},{"NoteNumber":76,"Velocity":76,"Duration":79799,"SoundDuration":79799,"Delta":718740113},{"NoteNumber":64,"Velocity":64,"Duration":79799,"SoundDuration":79799,"Delta":718740113},{"NoteNumber":63,"Velocity":70,"Duration":110288,"SoundDuration":110288,"Delta":718834756},{"NoteNumber":74,"Velocity":73,"Duration":75687,"SoundDuration":75687,"Delta":718926881},{"NoteNumber":62,"Velocity":62,"Duration":75687,"SoundDuration":75687,"Delta":718926881},{"NoteNumber":61,"Velocity":67,"Duration":107804,"SoundDuration":107804,"Delta":719016706},{"NoteNumber":72,"Velocity":71,"Duration":76286,"SoundDuration":76286,"Delta":719106438},{"NoteNumber":60,"Velocity":60,"Duration":76286,"SoundDuration":76286,"Delta":719106438},{"NoteNumber":59,"Velocity":65,"Duration":109962,"SoundDuration":109962,"Delta":719197118},{"NoteNumber":70,"Velocity":69,"Duration":77695,"SoundDuration":77695,"Delta":719288676},{"NoteNumber":58,"Velocity":58,"Duration":77695,"SoundDuration":77695,"Delta":719288676},{"NoteNumber":57,"Velocity":62,"Duration":112569,"SoundDuration":112569,"Delta":719381080},{"NoteNumber":68,"Velocity":67,"Duration":81583,"SoundDuration":81583,"Delta":719474591},{"NoteNumber":56,"Velocity":56,"Duration":81583,"SoundDuration":81583,"Delta":719474591},{"NoteNumber":55,"Velocity":58,"Duration":127702,"SoundDuration":127702,"Delta":719571855},{"NoteNumber":66,"Velocity":65,"Duration":123068,"SoundDuration":123068,"Delta":719673916},{"NoteNumber":54,"Velocity":55,"Duration":123068,"SoundDuration":123068,"Delta":719673916},{"NoteNumber":62,"Velocity":54,"Duration":104313,"SoundDuration":104313,"Delta":719796984},{"NoteNumber":59,"Velocity":54,"Duration":104313,"SoundDuration":104313,"Delta":719796984},{"NoteNumber":67,"Velocity":64,"Duration":104313,"SoundDuration":104313,"Delta":719796984},{"NoteNumber":55,"Velocity":54,"Duration":104313,"SoundDuration":104313,"Delta":719796984},{"NoteNumber":47,"Velocity":76,"Duration":124504,"SoundDuration":124504,"Delta":719796984},{"NoteNumber":35,"Velocity":64,"Duration":124504,"SoundDuration":124504,"Delta":719796984},{"NoteNumber":38,"Velocity":64,"Duration":124504,"SoundDuration":124504,"Delta":719796984},{"NoteNumber":43,"Velocity":64,"Duration":124504,"SoundDuration":124504,"Delta":719796984},{"NoteNumber":56,"Velocity":62,"Duration":118187,"SoundDuration":118187,"Delta":719901297},{"NoteNumber":69,"Velocity":66,"Duration":94842,"SoundDuration":94842,"Delta":720000274},{"NoteNumber":57,"Velocity":56,"Duration":94842,"SoundDuration":94842,"Delta":720000274},{"NoteNumber":58,"Velocity":65,"Duration":112942,"SoundDuration":112942,"Delta":720095116},{"NoteNumber":71,"Velocity":68,"Duration":93750,"SoundDuration":93750,"Delta":720189308},{"NoteNumber":59,"Velocity":57,"Duration":93750,"SoundDuration":93750,"Delta":720189308},{"NoteNumber":60,"Velocity":67,"Duration":111849,"SoundDuration":111849,"Delta":720283058},{"NoteNumber":73,"Velocity":70,"Duration":92736,"SoundDuration":92736,"Delta":720376275},{"NoteNumber":61,"Velocity":59,"Duration":92736,"SoundDuration":92736,"Delta":720376275},{"NoteNumber":62,"Velocity":70,"Duration":110760,"SoundDuration":110760,"Delta":720469011},{"NoteNumber":75,"Velocity":73,"Duration":91884,"SoundDuration":91884,"Delta":720561367},{"NoteNumber":63,"Velocity":62,"Duration":91884,"SoundDuration":91884,"Delta":720561367},{"NoteNumber":64,"Velocity":72,"Duration":109691,"SoundDuration":109691,"Delta":720653251},{"NoteNumber":77,"Velocity":75,"Duration":91001,"SoundDuration":91001,"Delta":720744714},{"NoteNumber":65,"Velocity":63,"Duration":91001,"SoundDuration":91001,"Delta":720744714},{"NoteNumber":66,"Velocity":75,"Duration":127189,"SoundDuration":127189,"Delta":720835716},{"NoteNumber":67,"Velocity":63,"Duration":151769,"SoundDuration":151769,"Delta":720930647},{"NoteNumber":79,"Velocity":76,"Duration":151769,"SoundDuration":151769,"Delta":720930647},{"NoteNumber":80,"Velocity":84,"Duration":101372,"SoundDuration":101372,"Delta":721082417},{"NoteNumber":68,"Velocity":71,"Duration":101372,"SoundDuration":101372,"Delta":721082417},{"NoteNumber":72,"Velocity":71,"Duration":101372,"SoundDuration":101372,"Delta":721082417},{"NoteNumber":75,"Velocity":71,"Duration":101372,"SoundDuration":101372,"Delta":721082417},{"NoteNumber":56,"Velocity":83,"Duration":121067,"SoundDuration":121067,"Delta":721082417},{"NoteNumber":48,"Velocity":70,"Duration":121067,"SoundDuration":121067,"Delta":721082417},{"NoteNumber":51,"Velocity":70,"Duration":121067,"SoundDuration":121067,"Delta":721082417},{"NoteNumber":67,"Velocity":76,"Duration":115213,"SoundDuration":115213,"Delta":721183790},{"NoteNumber":78,"Velocity":76,"Duration":92040,"SoundDuration":92040,"Delta":721280272},{"NoteNumber":66,"Velocity":64,"Duration":92040,"SoundDuration":92040,"Delta":721280272},{"NoteNumber":65,"Velocity":72,"Duration":107341,"SoundDuration":107341,"Delta":721372313},{"NoteNumber":76,"Velocity":73,"Duration":89820,"SoundDuration":89820,"Delta":721461690},{"NoteNumber":64,"Velocity":62,"Duration":89820,"SoundDuration":89820,"Delta":721461690},{"NoteNumber":63,"Velocity":68,"Duration":108298,"SoundDuration":108298,"Delta":721551511},{"NoteNumber":74,"Velocity":71,"Duration":90407,"SoundDuration":90407,"Delta":721641737},{"NoteNumber":62,"Velocity":60,"Duration":90407,"SoundDuration":90407,"Delta":721641737},{"NoteNumber":61,"Velocity":65,"Duration":109751,"SoundDuration":109751,"Delta":721732144},{"NoteNumber":72,"Velocity":69,"Duration":93366,"SoundDuration":93366,"Delta":721823424},{"NoteNumber":60,"Velocity":58,"Duration":93366,"SoundDuration":93366,"Delta":721823424},{"NoteNumber":59,"Velocity":61,"Duration":115178,"SoundDuration":115178,"Delta":721916791},{"NoteNumber":70,"Velocity":67,"Duration":98259,"SoundDuration":98259,"Delta":722012542},{"NoteNumber":58,"Velocity":56,"Duration":98259,"SoundDuration":98259,"Delta":722012542},{"NoteNumber":57,"Velocity":57,"Duration":130315,"SoundDuration":130315,"Delta":722110801},{"NoteNumber":68,"Velocity":65,"Duration":147058,"SoundDuration":147058,"Delta":722211705},{"NoteNumber":56,"Velocity":55,"Duration":147058,"SoundDuration":147058,"Delta":722211705},{"NoteNumber":66,"Velocity":54,"Duration":119628,"SoundDuration":119628,"Delta":722358764},{"NoteNumber":61,"Velocity":54,"Duration":119628,"SoundDuration":119628,"Delta":722358764},{"NoteNumber":69,"Velocity":64,"Duration":119628,"SoundDuration":119628,"Delta":722358764},{"NoteNumber":57,"Velocity":54,"Duration":119628,"SoundDuration":119628,"Delta":722358764},{"NoteNumber":49,"Velocity":76,"Duration":141276,"SoundDuration":141276,"Delta":722358764},{"NoteNumber":37,"Velocity":64,"Duration":141276,"SoundDuration":141276,"Delta":722358764},{"NoteNumber":42,"Velocity":64,"Duration":141276,"SoundDuration":141276,"Delta":722358764},{"NoteNumber":45,"Velocity":64,"Duration":141276,"SoundDuration":141276,"Delta":722358764},{"NoteNumber":58,"Velocity":79,"Duration":127149,"SoundDuration":127149,"Delta":722478393},{"NoteNumber":71,"Velocity":66,"Duration":102055,"SoundDuration":102055,"Delta":722584792},{"NoteNumber":59,"Velocity":56,"Duration":102055,"SoundDuration":102055,"Delta":722584792},{"NoteNumber":60,"Velocity":65,"Duration":117211,"SoundDuration":117211,"Delta":722686848},{"NoteNumber":73,"Velocity":68,"Duration":95847,"SoundDuration":95847,"Delta":722784901},{"NoteNumber":61,"Velocity":57,"Duration":95847,"SoundDuration":95847,"Delta":722784901},{"NoteNumber":62,"Velocity":67,"Duration":115211,"SoundDuration":115211,"Delta":722880748},{"NoteNumber":75,"Velocity":70,"Duration":95541,"SoundDuration":95541,"Delta":722976851},{"NoteNumber":63,"Velocity":59,"Duration":95541,"SoundDuration":95541,"Delta":722976851},{"NoteNumber":64,"Velocity":71,"Duration":114075,"SoundDuration":114075,"Delta":723072393},{"NoteNumber":77,"Velocity":73,"Duration":94687,"SoundDuration":94687,"Delta":723167480},{"NoteNumber":65,"Velocity":62,"Duration":94687,"SoundDuration":94687,"Delta":723167480},{"NoteNumber":66,"Velocity":75,"Duration":113040,"SoundDuration":113040,"Delta":723262168},{"NoteNumber":79,"Velocity":75,"Duration":93750,"SoundDuration":93750,"Delta":723356459},{"NoteNumber":67,"Velocity":63,"Duration":93750,"SoundDuration":93750,"Delta":723356459},{"NoteNumber":68,"Velocity":78,"Duration":125926,"SoundDuration":125926,"Delta":723450209},{"NoteNumber":69,"Velocity":63,"Duration":144230,"SoundDuration":144230,"Delta":723547289},{"NoteNumber":81,"Velocity":76,"Duration":144230,"SoundDuration":144230,"Delta":723547289},{"NoteNumber":82,"Velocity":84,"Duration":110177,"SoundDuration":110177,"Delta":723691519},{"NoteNumber":70,"Velocity":71,"Duration":110177,"SoundDuration":110177,"Delta":723691519},{"NoteNumber":79,"Velocity":71,"Duration":109315,"SoundDuration":109315,"Delta":723691519},{"NoteNumber":76,"Velocity":71,"Duration":109315,"SoundDuration":109315,"Delta":723691519},{"NoteNumber":58,"Velocity":83,"Duration":130539,"SoundDuration":130539,"Delta":723691519},{"NoteNumber":49,"Velocity":70,"Duration":130539,"SoundDuration":130539,"Delta":723691519},{"NoteNumber":52,"Velocity":70,"Duration":130539,"SoundDuration":130539,"Delta":723691519},{"NoteNumber":55,"Velocity":70,"Duration":108067,"SoundDuration":108067,"Delta":723698731},{"NoteNumber":69,"Velocity":81,"Duration":117135,"SoundDuration":117135,"Delta":723801696},{"NoteNumber":80,"Velocity":76,"Duration":90947,"SoundDuration":90947,"Delta":723900120},{"NoteNumber":68,"Velocity":64,"Duration":90947,"SoundDuration":90947,"Delta":723900120},{"NoteNumber":67,"Velocity":78,"Duration":109145,"SoundDuration":109145,"Delta":723991067},{"NoteNumber":78,"Velocity":73,"Duration":91977,"SoundDuration":91977,"Delta":724081854},{"NoteNumber":66,"Velocity":62,"Duration":91977,"SoundDuration":91977,"Delta":724081854},{"NoteNumber":65,"Velocity":74,"Duration":111226,"SoundDuration":111226,"Delta":724173832},{"NoteNumber":76,"Velocity":71,"Duration":93313,"SoundDuration":93313,"Delta":724266425},{"NoteNumber":64,"Velocity":60,"Duration":93313,"SoundDuration":93313,"Delta":724266425},{"NoteNumber":63,"Velocity":70,"Duration":113969,"SoundDuration":113969,"Delta":724359738},{"NoteNumber":74,"Velocity":69,"Duration":96621,"SoundDuration":96621,"Delta":724454528},{"NoteNumber":62,"Velocity":58,"Duration":96621,"SoundDuration":96621,"Delta":724454528},{"NoteNumber":61,"Velocity":66,"Duration":118470,"SoundDuration":118470,"Delta":724551150},{"NoteNumber":72,"Velocity":67,"Duration":100506,"SoundDuration":100506,"Delta":724649676},{"NoteNumber":60,"Velocity":56,"Duration":100506,"SoundDuration":100506,"Delta":724649676},{"NoteNumber":59,"Velocity":62,"Duration":127896,"SoundDuration":127896,"Delta":724750182},{"NoteNumber":70,"Velocity":65,"Duration":126050,"SoundDuration":126050,"Delta":724852869},{"NoteNumber":58,"Velocity":55,"Duration":126050,"SoundDuration":126050,"Delta":724852869},{"NoteNumber":59,"Velocity":43,"Duration":80000,"SoundDuration":80000,"Delta":724978919},{"NoteNumber":67,"Velocity":43,"Duration":80000,"SoundDuration":80000,"Delta":724978919},{"NoteNumber":71,"Velocity":57,"Duration":80000,"SoundDuration":80000,"Delta":724978919},{"NoteNumber":38,"Velocity":76,"Duration":120000,"SoundDuration":120000,"Delta":724978919},{"NoteNumber":50,"Velocity":90,"Duration":120000,"SoundDuration":120000,"Delta":724978919},{"NoteNumber":43,"Velocity":76,"Duration":120000,"SoundDuration":120000,"Delta":724978919},{"NoteNumber":47,"Velocity":76,"Duration":120000,"SoundDuration":120000,"Delta":724978919},{"NoteNumber":60,"Velocity":46,"Duration":79999,"SoundDuration":79999,"Delta":725058919},{"NoteNumber":61,"Velocity":46,"Duration":80000,"SoundDuration":80000,"Delta":725138919},{"NoteNumber":62,"Velocity":46,"Duration":80000,"SoundDuration":80000,"Delta":725218919},{"NoteNumber":63,"Velocity":46,"Duration":77313,"SoundDuration":77313,"Delta":725298919},{"NoteNumber":59,"Velocity":75,"Duration":111940,"SoundDuration":111940,"Delta":725338919},{"NoteNumber":55,"Velocity":63,"Duration":111940,"SoundDuration":111940,"Delta":725338919},{"NoteNumber":50,"Velocity":63,"Duration":111940,"SoundDuration":111940,"Delta":725338919},{"NoteNumber":64,"Velocity":47,"Duration":74626,"SoundDuration":74626,"Delta":725376233},{"NoteNumber":65,"Velocity":47,"Duration":77519,"SoundDuration":77519,"Delta":725450859},{"NoteNumber":59,"Velocity":75,"Duration":116278,"SoundDuration":116278,"Delta":725450859},{"NoteNumber":55,"Velocity":63,"Duration":116278,"SoundDuration":116278,"Delta":725450859},{"NoteNumber":50,"Velocity":63,"Duration":116278,"SoundDuration":116278,"Delta":725450859},{"NoteNumber":66,"Velocity":47,"Duration":77519,"SoundDuration":77519,"Delta":725528379},{"NoteNumber":67,"Velocity":47,"Duration":77519,"SoundDuration":77519,"Delta":725605898},{"NoteNumber":68,"Velocity":47,"Duration":79365,"SoundDuration":79365,"Delta":725683417},{"NoteNumber":59,"Velocity":80,"Duration":119047,"SoundDuration":119047,"Delta":725683417},{"NoteNumber":55,"Velocity":68,"Duration":119047,"SoundDuration":119047,"Delta":725683417},{"NoteNumber":50,"Velocity":68,"Duration":119047,"SoundDuration":119047,"Delta":725683417},{"NoteNumber":69,"Velocity":48,"Duration":79364,"SoundDuration":79364,"Delta":725762782},{"NoteNumber":70,"Velocity":48,"Duration":79365,"SoundDuration":79365,"Delta":725842147},{"NoteNumber":71,"Velocity":48,"Duration":81967,"SoundDuration":81967,"Delta":725921512},{"NoteNumber":72,"Velocity":48,"Duration":79743,"SoundDuration":79743,"Delta":726003480},{"NoteNumber":47,"Velocity":76,"Duration":116278,"SoundDuration":116278,"Delta":726044463},{"NoteNumber":43,"Velocity":64,"Duration":116278,"SoundDuration":116278,"Delta":726044463},{"NoteNumber":38,"Velocity":64,"Duration":116278,"SoundDuration":116278,"Delta":726044463},{"NoteNumber":73,"Velocity":48,"Duration":77519,"SoundDuration":77519,"Delta":726083223},{"NoteNumber":74,"Velocity":49,"Duration":81967,"SoundDuration":81967,"Delta":726160742},{"NoteNumber":47,"Velocity":76,"Duration":122950,"SoundDuration":122950,"Delta":726160742},{"NoteNumber":43,"Velocity":64,"Duration":122950,"SoundDuration":122950,"Delta":726160742},{"NoteNumber":38,"Velocity":64,"Duration":122950,"SoundDuration":122950,"Delta":726160742},{"NoteNumber":75,"Velocity":49,"Duration":81967,"SoundDuration":81967,"Delta":726242709},{"NoteNumber":76,"Velocity":49,"Duration":81967,"SoundDuration":81967,"Delta":726324676},{"NoteNumber":77,"Velocity":49,"Duration":80645,"SoundDuration":80645,"Delta":726406644},{"NoteNumber":38,"Velocity":67,"Duration":120967,"SoundDuration":120967,"Delta":726406644},{"NoteNumber":43,"Velocity":67,"Duration":120967,"SoundDuration":120967,"Delta":726406644},{"NoteNumber":47,"Velocity":79,"Duration":120967,"SoundDuration":120967,"Delta":726406644},{"NoteNumber":78,"Velocity":49,"Duration":80645,"SoundDuration":80645,"Delta":726487289},{"NoteNumber":79,"Velocity":50,"Duration":80645,"SoundDuration":80645,"Delta":726567934},{"NoteNumber":80,"Velocity":51,"Duration":80645,"SoundDuration":80645,"Delta":726648579},{"NoteNumber":81,"Velocity":52,"Duration":78784,"SoundDuration":78784,"Delta":726729224},{"NoteNumber":71,"Velocity":75,"Duration":115384,"SoundDuration":115384,"Delta":726769547},{"NoteNumber":67,"Velocity":63,"Duration":115384,"SoundDuration":115384,"Delta":726769547},{"NoteNumber":62,"Velocity":63,"Duration":115384,"SoundDuration":115384,"Delta":726769547},{"NoteNumber":82,"Velocity":53,"Duration":76922,"SoundDuration":76922,"Delta":726808008},{"NoteNumber":83,"Velocity":54,"Duration":78740,"SoundDuration":78740,"Delta":726884931},{"NoteNumber":71,"Velocity":75,"Duration":118110,"SoundDuration":118110,"Delta":726884931},{"NoteNumber":67,"Velocity":63,"Duration":118110,"SoundDuration":118110,"Delta":726884931},{"NoteNumber":62,"Velocity":63,"Duration":118110,"SoundDuration":118110,"Delta":726884931},{"NoteNumber":84,"Velocity":55,"Duration":78740,"SoundDuration":78740,"Delta":726963672},{"NoteNumber":85,"Velocity":56,"Duration":78740,"SoundDuration":78740,"Delta":727042412},{"NoteNumber":86,"Velocity":57,"Duration":80645,"SoundDuration":80645,"Delta":727121152},{"NoteNumber":71,"Velocity":80,"Duration":120967,"SoundDuration":120967,"Delta":727121152},{"NoteNumber":67,"Velocity":68,"Duration":120967,"SoundDuration":120967,"Delta":727121152},{"NoteNumber":62,"Velocity":68,"Duration":120967,"SoundDuration":120967,"Delta":727121152},{"NoteNumber":87,"Velocity":57,"Duration":80645,"SoundDuration":80645,"Delta":727201797},{"NoteNumber":88,"Velocity":58,"Duration":80645,"SoundDuration":80645,"Delta":727282442},{"NoteNumber":89,"Velocity":59,"Duration":84033,"SoundDuration":84033,"Delta":727363087},{"NoteNumber":90,"Velocity":60,"Duration":80776,"SoundDuration":80776,"Delta":727447121},{"NoteNumber":91,"Velocity":61,"Duration":77519,"SoundDuration":77519,"Delta":727527898},{"NoteNumber":92,"Velocity":62,"Duration":64102,"SoundDuration":64102,"Delta":727605417},{"NoteNumber":93,"Velocity":62,"Duration":64102,"SoundDuration":64102,"Delta":727669519},{"NoteNumber":94,"Velocity":63,"Duration":70093,"SoundDuration":70093,"Delta":727733622},{"NoteNumber":95,"Velocity":64,"Duration":70093,"SoundDuration":70093,"Delta":727803716},{"NoteNumber":96,"Velocity":97,"Duration":94488,"SoundDuration":94488,"Delta":727873809},{"NoteNumber":93,"Velocity":64,"Duration":94488,"SoundDuration":94488,"Delta":727873809},{"NoteNumber":95,"Velocity":64,"Duration":94488,"SoundDuration":94488,"Delta":727968297},{"NoteNumber":92,"Velocity":54,"Duration":94488,"SoundDuration":94488,"Delta":727968297},{"NoteNumber":94,"Velocity":63,"Duration":94488,"SoundDuration":94488,"Delta":728062786},{"NoteNumber":91,"Velocity":53,"Duration":94488,"SoundDuration":94488,"Delta":728062786},{"NoteNumber":93,"Velocity":62,"Duration":93254,"SoundDuration":93254,"Delta":728157274},{"NoteNumber":90,"Velocity":52,"Duration":93254,"SoundDuration":93254,"Delta":728157274},{"NoteNumber":54,"Velocity":63,"Duration":111940,"SoundDuration":111940,"Delta":728228140},{"NoteNumber":60,"Velocity":75,"Duration":111940,"SoundDuration":111940,"Delta":728228140},{"NoteNumber":57,"Velocity":63,"Duration":111940,"SoundDuration":111940,"Delta":728228140},{"NoteNumber":50,"Velocity":63,"Duration":111940,"SoundDuration":111940,"Delta":728228140},{"NoteNumber":92,"Velocity":61,"Duration":89552,"SoundDuration":89552,"Delta":728250528},{"NoteNumber":89,"Velocity":51,"Duration":89552,"SoundDuration":89552,"Delta":728250528},{"NoteNumber":91,"Velocity":60,"Duration":95237,"SoundDuration":95237,"Delta":728340080},{"NoteNumber":88,"Velocity":51,"Duration":95237,"SoundDuration":95237,"Delta":728340080},{"NoteNumber":54,"Velocity":63,"Duration":119047,"SoundDuration":119047,"Delta":728340080},{"NoteNumber":60,"Velocity":75,"Duration":119047,"SoundDuration":119047,"Delta":728340080},{"NoteNumber":57,"Velocity":63,"Duration":119047,"SoundDuration":119047,"Delta":728340080},{"NoteNumber":50,"Velocity":63,"Duration":119047,"SoundDuration":119047,"Delta":728340080},{"NoteNumber":90,"Velocity":59,"Duration":95237,"SoundDuration":95237,"Delta":728435318},{"NoteNumber":87,"Velocity":50,"Duration":95237,"SoundDuration":95237,"Delta":728435318},{"NoteNumber":89,"Velocity":58,"Duration":96799,"SoundDuration":96799,"Delta":728530556},{"NoteNumber":86,"Velocity":49,"Duration":96799,"SoundDuration":96799,"Delta":728530556},{"NoteNumber":54,"Velocity":68,"Duration":122950,"SoundDuration":122950,"Delta":728578175},{"NoteNumber":60,"Velocity":80,"Duration":122950,"SoundDuration":122950,"Delta":728578175},{"NoteNumber":57,"Velocity":68,"Duration":122950,"SoundDuration":122950,"Delta":728578175},{"NoteNumber":50,"Velocity":68,"Duration":122950,"SoundDuration":122950,"Delta":728578175},{"NoteNumber":88,"Velocity":57,"Duration":98360,"SoundDuration":98360,"Delta":728627355},{"NoteNumber":85,"Velocity":48,"Duration":98360,"SoundDuration":98360,"Delta":728627355},{"NoteNumber":87,"Velocity":56,"Duration":98360,"SoundDuration":98360,"Delta":728725716},{"NoteNumber":84,"Velocity":47,"Duration":98360,"SoundDuration":98360,"Delta":728725716},{"NoteNumber":86,"Velocity":55,"Duration":101694,"SoundDuration":101694,"Delta":728824077},{"NoteNumber":83,"Velocity":46,"Duration":101694,"SoundDuration":101694,"Delta":728824077},{"NoteNumber":85,"Velocity":55,"Duration":96852,"SoundDuration":96852,"Delta":728925772},{"NoteNumber":82,"Velocity":46,"Duration":96852,"SoundDuration":96852,"Delta":728925772},{"NoteNumber":42,"Velocity":64,"Duration":119047,"SoundDuration":119047,"Delta":728951195},{"NoteNumber":48,"Velocity":76,"Duration":119047,"SoundDuration":119047,"Delta":728951195},{"NoteNumber":45,"Velocity":64,"Duration":119047,"SoundDuration":119047,"Delta":728951195},{"NoteNumber":38,"Velocity":64,"Duration":119047,"SoundDuration":119047,"Delta":728951195},{"NoteNumber":84,"Velocity":54,"Duration":98901,"SoundDuration":98901,"Delta":729022624},{"NoteNumber":81,"Velocity":45,"Duration":98901,"SoundDuration":98901,"Delta":729022624},{"NoteNumber":42,"Velocity":64,"Duration":128205,"SoundDuration":128205,"Delta":729070243},{"NoteNumber":48,"Velocity":76,"Duration":128205,"SoundDuration":128205,"Delta":729070243},{"NoteNumber":45,"Velocity":64,"Duration":128205,"SoundDuration":128205,"Delta":729070243},{"NoteNumber":38,"Velocity":64,"Duration":128205,"SoundDuration":128205,"Delta":729070243},{"NoteNumber":83,"Velocity":53,"Duration":102564,"SoundDuration":102564,"Delta":729121525},{"NoteNumber":80,"Velocity":45,"Duration":102564,"SoundDuration":102564,"Delta":729121525},{"NoteNumber":82,"Velocity":52,"Duration":102564,"SoundDuration":102564,"Delta":729224089},{"NoteNumber":79,"Velocity":44,"Duration":102564,"SoundDuration":102564,"Delta":729224089},{"NoteNumber":81,"Velocity":52,"Duration":82644,"SoundDuration":82644,"Delta":729326653},{"NoteNumber":78,"Velocity":44,"Duration":82644,"SoundDuration":82644,"Delta":729326653},{"NoteNumber":42,"Velocity":67,"Duration":123966,"SoundDuration":123966,"Delta":729326653},{"NoteNumber":38,"Velocity":67,"Duration":123966,"SoundDuration":123966,"Delta":729326653},{"NoteNumber":45,"Velocity":67,"Duration":123966,"SoundDuration":123966,"Delta":729326653},{"NoteNumber":48,"Velocity":79,"Duration":123966,"SoundDuration":123966,"Delta":729326653},{"NoteNumber":80,"Velocity":52,"Duration":82644,"SoundDuration":82644,"Delta":729409298},{"NoteNumber":77,"Velocity":44,"Duration":82644,"SoundDuration":82644,"Delta":729409298},{"NoteNumber":79,"Velocity":51,"Duration":82644,"SoundDuration":82644,"Delta":729491943},{"NoteNumber":76,"Velocity":43,"Duration":82644,"SoundDuration":82644,"Delta":729491943},{"NoteNumber":78,"Velocity":51,"Duration":82644,"SoundDuration":82644,"Delta":729574587},{"NoteNumber":75,"Velocity":43,"Duration":82644,"SoundDuration":82644,"Delta":729574587},{"NoteNumber":77,"Velocity":50,"Duration":79783,"SoundDuration":79783,"Delta":729657232},{"NoteNumber":74,"Velocity":42,"Duration":79783,"SoundDuration":79783,"Delta":729657232},{"NoteNumber":66,"Velocity":56,"Duration":115384,"SoundDuration":115384,"Delta":729698554},{"NoteNumber":72,"Velocity":67,"Duration":115384,"SoundDuration":115384,"Delta":729698554},{"NoteNumber":69,"Velocity":56,"Duration":115384,"SoundDuration":115384,"Delta":729698554},{"NoteNumber":62,"Velocity":56,"Duration":115384,"SoundDuration":115384,"Delta":729698554},{"NoteNumber":76,"Velocity":50,"Duration":76922,"SoundDuration":76922,"Delta":729737016},{"NoteNumber":73,"Velocity":42,"Duration":76922,"SoundDuration":76922,"Delta":729737016},{"NoteNumber":75,"Velocity":49,"Duration":79365,"SoundDuration":79365,"Delta":729813939},{"NoteNumber":72,"Velocity":41,"Duration":79365,"SoundDuration":79365,"Delta":729813939},{"NoteNumber":66,"Velocity":56,"Duration":119047,"SoundDuration":119047,"Delta":729813939},{"NoteNumber":72,"Velocity":67,"Duration":119047,"SoundDuration":119047,"Delta":729813939},{"NoteNumber":69,"Velocity":56,"Duration":119047,"SoundDuration":119047,"Delta":729813939},{"NoteNumber":62,"Velocity":56,"Duration":119047,"SoundDuration":119047,"Delta":729813939},{"NoteNumber":74,"Velocity":49,"Duration":79364,"SoundDuration":79364,"Delta":729893304},{"NoteNumber":71,"Velocity":41,"Duration":79364,"SoundDuration":79364,"Delta":729893304},{"NoteNumber":73,"Velocity":48,"Duration":79365,"SoundDuration":79365,"Delta":729972669},{"NoteNumber":70,"Velocity":40,"Duration":79365,"SoundDuration":79365,"Delta":729972669},{"NoteNumber":72,"Velocity":48,"Duration":80645,"SoundDuration":80645,"Delta":730052034},{"NoteNumber":69,"Velocity":40,"Duration":80645,"SoundDuration":80645,"Delta":730052034},{"NoteNumber":71,"Velocity":47,"Duration":80645,"SoundDuration":80645,"Delta":730132679},{"NoteNumber":68,"Velocity":39,"Duration":80645,"SoundDuration":80645,"Delta":730132679},{"NoteNumber":70,"Velocity":47,"Duration":80645,"SoundDuration":80645,"Delta":730213324},{"NoteNumber":67,"Velocity":39,"Duration":80645,"SoundDuration":80645,"Delta":730213324},{"NoteNumber":69,"Velocity":46,"Duration":81967,"SoundDuration":81967,"Delta":730293969},{"NoteNumber":66,"Velocity":39,"Duration":81967,"SoundDuration":81967,"Delta":730293969},{"NoteNumber":68,"Velocity":46,"Duration":79743,"SoundDuration":79743,"Delta":730375937},{"NoteNumber":65,"Velocity":39,"Duration":79743,"SoundDuration":79743,"Delta":730375937},{"NoteNumber":67,"Velocity":45,"Duration":77519,"SoundDuration":77519,"Delta":730455680},{"NoteNumber":64,"Velocity":38,"Duration":77519,"SoundDuration":77519,"Delta":730455680},{"NoteNumber":66,"Velocity":45,"Duration":81967,"SoundDuration":81967,"Delta":730533199},{"NoteNumber":63,"Velocity":38,"Duration":81967,"SoundDuration":81967,"Delta":730533199},{"NoteNumber":65,"Velocity":44,"Duration":81967,"SoundDuration":81967,"Delta":730615166},{"NoteNumber":62,"Velocity":37,"Duration":81967,"SoundDuration":81967,"Delta":730615166},{"NoteNumber":64,"Velocity":44,"Duration":81967,"SoundDuration":81967,"Delta":730697133},{"NoteNumber":61,"Velocity":37,"Duration":81967,"SoundDuration":81967,"Delta":730697133},{"NoteNumber":63,"Velocity":57,"Duration":102999,"SoundDuration":102999,"Delta":730779101},{"NoteNumber":60,"Velocity":48,"Duration":102999,"SoundDuration":102999,"Delta":730779101},{"NoteNumber":64,"Velocity":46,"Duration":102000,"SoundDuration":102000,"Delta":730882101},{"NoteNumber":61,"Velocity":39,"Duration":102000,"SoundDuration":102000,"Delta":730882101},{"NoteNumber":65,"Velocity":46,"Duration":102999,"SoundDuration":102999,"Delta":730984101},{"NoteNumber":62,"Velocity":39,"Duration":101999,"SoundDuration":101999,"Delta":730984101},{"NoteNumber":63,"Velocity":39,"Duration":99641,"SoundDuration":99641,"Delta":731086101},{"NoteNumber":66,"Velocity":46,"Duration":99641,"SoundDuration":99641,"Delta":731086101},{"NoteNumber":60,"Velocity":75,"Duration":111940,"SoundDuration":111940,"Delta":731139101},{"NoteNumber":56,"Velocity":63,"Duration":111940,"SoundDuration":111940,"Delta":731139101},{"NoteNumber":51,"Velocity":63,"Duration":111940,"SoundDuration":111940,"Delta":731139101},{"NoteNumber":64,"Velocity":39,"Duration":96306,"SoundDuration":96306,"Delta":731185742},{"NoteNumber":67,"Velocity":46,"Duration":96306,"SoundDuration":96306,"Delta":731185742},{"NoteNumber":60,"Velocity":75,"Duration":116278,"SoundDuration":116278,"Delta":731251041},{"NoteNumber":56,"Velocity":63,"Duration":116278,"SoundDuration":116278,"Delta":731251041},{"NoteNumber":51,"Velocity":63,"Duration":116278,"SoundDuration":116278,"Delta":731251041},{"NoteNumber":68,"Velocity":47,"Duration":99806,"SoundDuration":99806,"Delta":731282049},{"NoteNumber":65,"Velocity":39,"Duration":99806,"SoundDuration":99806,"Delta":731282049},{"NoteNumber":69,"Velocity":47,"Duration":98837,"SoundDuration":98837,"Delta":731381855},{"NoteNumber":66,"Velocity":39,"Duration":98837,"SoundDuration":98837,"Delta":731381855},{"NoteNumber":70,"Velocity":47,"Duration":102113,"SoundDuration":102113,"Delta":731480692},{"NoteNumber":67,"Velocity":39,"Duration":102113,"SoundDuration":102113,"Delta":731480692},{"NoteNumber":60,"Velocity":80,"Duration":119047,"SoundDuration":119047,"Delta":731483599},{"NoteNumber":56,"Velocity":68,"Duration":119047,"SoundDuration":119047,"Delta":731483599},{"NoteNumber":51,"Velocity":68,"Duration":119047,"SoundDuration":119047,"Delta":731483599},{"NoteNumber":68,"Velocity":39,"Duration":101190,"SoundDuration":101190,"Delta":731581813},{"NoteNumber":71,"Velocity":47,"Duration":102182,"SoundDuration":102182,"Delta":731581813},{"NoteNumber":69,"Velocity":40,"Duration":103272,"SoundDuration":103272,"Delta":731683995},{"NoteNumber":72,"Velocity":48,"Duration":103272,"SoundDuration":103272,"Delta":731683995},{"NoteNumber":73,"Velocity":48,"Duration":102919,"SoundDuration":102919,"Delta":731787268},{"NoteNumber":70,"Velocity":40,"Duration":102919,"SoundDuration":102919,"Delta":731787268},{"NoteNumber":48,"Velocity":76,"Duration":116278,"SoundDuration":116278,"Delta":731844645},{"NoteNumber":44,"Velocity":64,"Duration":116278,"SoundDuration":116278,"Delta":731844645},{"NoteNumber":39,"Velocity":64,"Duration":116278,"SoundDuration":116278,"Delta":731844645},{"NoteNumber":74,"Velocity":48,"Duration":100449,"SoundDuration":100449,"Delta":731890187},{"NoteNumber":71,"Velocity":40,"Duration":100449,"SoundDuration":100449,"Delta":731890187},{"NoteNumber":48,"Velocity":76,"Duration":122950,"SoundDuration":122950,"Delta":731960924},{"NoteNumber":44,"Velocity":64,"Duration":122950,"SoundDuration":122950,"Delta":731960924},{"NoteNumber":39,"Velocity":64,"Duration":122950,"SoundDuration":122950,"Delta":731960924},{"NoteNumber":75,"Velocity":48,"Duration":105532,"SoundDuration":105532,"Delta":731990637},{"NoteNumber":72,"Velocity":40,"Duration":105532,"SoundDuration":105532,"Delta":731990637},{"NoteNumber":76,"Velocity":48,"Duration":111680,"SoundDuration":111680,"Delta":732095145},{"NoteNumber":73,"Velocity":40,"Duration":105532,"SoundDuration":105532,"Delta":732095145},{"NoteNumber":77,"Velocity":49,"Duration":72580,"SoundDuration":72580,"Delta":732206825},{"NoteNumber":74,"Velocity":41,"Duration":72580,"SoundDuration":72580,"Delta":732206825},{"NoteNumber":39,"Velocity":67,"Duration":120967,"SoundDuration":120967,"Delta":732206825},{"NoteNumber":44,"Velocity":67,"Duration":120967,"SoundDuration":120967,"Delta":732206825},{"NoteNumber":48,"Velocity":79,"Duration":120967,"SoundDuration":120967,"Delta":732206825},{"NoteNumber":78,"Velocity":49,"Duration":72580,"SoundDuration":72580,"Delta":732279406},{"NoteNumber":75,"Velocity":41,"Duration":72580,"SoundDuration":72580,"Delta":732279406},{"NoteNumber":79,"Velocity":50,"Duration":72580,"SoundDuration":72580,"Delta":732351986},{"NoteNumber":76,"Velocity":42,"Duration":72580,"SoundDuration":72580,"Delta":732351986},{"NoteNumber":80,"Velocity":51,"Duration":72580,"SoundDuration":72580,"Delta":732424567},{"NoteNumber":77,"Velocity":43,"Duration":72580,"SoundDuration":72580,"Delta":732424567},{"NoteNumber":81,"Velocity":52,"Duration":72580,"SoundDuration":72580,"Delta":732497148},{"NoteNumber":78,"Velocity":44,"Duration":72580,"SoundDuration":72580,"Delta":732497148},{"NoteNumber":82,"Velocity":53,"Duration":69230,"SoundDuration":69230,"Delta":732569728},{"NoteNumber":79,"Velocity":45,"Duration":69230,"SoundDuration":69230,"Delta":732569728},{"NoteNumber":72,"Velocity":75,"Duration":115384,"SoundDuration":115384,"Delta":732569728},{"NoteNumber":68,"Velocity":63,"Duration":115384,"SoundDuration":115384,"Delta":732569728},{"NoteNumber":63,"Velocity":63,"Duration":115384,"SoundDuration":115384,"Delta":732569728},{"NoteNumber":83,"Velocity":54,"Duration":69775,"SoundDuration":69775,"Delta":732638959},{"NoteNumber":80,"Velocity":45,"Duration":69775,"SoundDuration":69775,"Delta":732638959},{"NoteNumber":72,"Velocity":75,"Duration":118110,"SoundDuration":118110,"Delta":732685113},{"NoteNumber":68,"Velocity":63,"Duration":118110,"SoundDuration":118110,"Delta":732685113},{"NoteNumber":63,"Velocity":63,"Duration":118110,"SoundDuration":118110,"Delta":732685113},{"NoteNumber":84,"Velocity":55,"Duration":70866,"SoundDuration":70866,"Delta":732708735},{"NoteNumber":81,"Velocity":46,"Duration":70866,"SoundDuration":70866,"Delta":732708735},{"NoteNumber":85,"Velocity":56,"Duration":70866,"SoundDuration":70866,"Delta":732779601},{"NoteNumber":82,"Velocity":47,"Duration":70866,"SoundDuration":70866,"Delta":732779601},{"NoteNumber":86,"Velocity":57,"Duration":70866,"SoundDuration":70866,"Delta":732850467},{"NoteNumber":83,"Velocity":48,"Duration":70866,"SoundDuration":70866,"Delta":732850467},{"NoteNumber":87,"Velocity":57,"Duration":72580,"SoundDuration":72580,"Delta":732921333},{"NoteNumber":84,"Velocity":48,"Duration":72580,"SoundDuration":72580,"Delta":732921333},{"NoteNumber":72,"Velocity":80,"Duration":120967,"SoundDuration":120967,"Delta":732921333},{"NoteNumber":68,"Velocity":68,"Duration":120967,"SoundDuration":120967,"Delta":732921333},{"NoteNumber":63,"Velocity":68,"Duration":120967,"SoundDuration":120967,"Delta":732921333},{"NoteNumber":88,"Velocity":58,"Duration":72580,"SoundDuration":72580,"Delta":732993914},{"NoteNumber":85,"Velocity":49,"Duration":72580,"SoundDuration":72580,"Delta":732993914},{"NoteNumber":89,"Velocity":59,"Duration":72580,"SoundDuration":72580,"Delta":733066495},{"NoteNumber":86,"Velocity":50,"Duration":72580,"SoundDuration":72580,"Delta":733066495},{"NoteNumber":90,"Velocity":60,"Duration":74613,"SoundDuration":74613,"Delta":733139075},{"NoteNumber":87,"Velocity":51,"Duration":74613,"SoundDuration":74613,"Delta":733139075},{"NoteNumber":91,"Velocity":61,"Duration":75630,"SoundDuration":75630,"Delta":733213689},{"NoteNumber":88,"Velocity":51,"Duration":75630,"SoundDuration":75630,"Delta":733213689},{"NoteNumber":92,"Velocity":62,"Duration":69767,"SoundDuration":69767,"Delta":733289319},{"NoteNumber":89,"Velocity":52,"Duration":69767,"SoundDuration":69767,"Delta":733289319},{"NoteNumber":93,"Velocity":63,"Duration":72152,"SoundDuration":72152,"Delta":733359087},{"NoteNumber":90,"Velocity":53,"Duration":72152,"SoundDuration":72152,"Delta":733359087},{"NoteNumber":94,"Velocity":65,"Duration":76923,"SoundDuration":76923,"Delta":733431239},{"NoteNumber":91,"Velocity":55,"Duration":76923,"SoundDuration":76923,"Delta":733431239},{"NoteNumber":95,"Velocity":66,"Duration":81715,"SoundDuration":81715,"Delta":733508163},{"NoteNumber":92,"Velocity":56,"Duration":81715,"SoundDuration":81715,"Delta":733508163},{"NoteNumber":96,"Velocity":71,"Duration":84112,"SoundDuration":84112,"Delta":733589878},{"NoteNumber":93,"Velocity":60,"Duration":84112,"SoundDuration":84112,"Delta":733589878},{"NoteNumber":97,"Velocity":97,"Duration":101377,"SoundDuration":101377,"Delta":733673991},{"NoteNumber":94,"Velocity":64,"Duration":101377,"SoundDuration":101377,"Delta":733673991},{"NoteNumber":96,"Velocity":64,"Duration":100393,"SoundDuration":100393,"Delta":733775369},{"NoteNumber":93,"Velocity":54,"Duration":100393,"SoundDuration":100393,"Delta":733775369},{"NoteNumber":95,"Velocity":63,"Duration":100393,"SoundDuration":100393,"Delta":733876747},{"NoteNumber":92,"Velocity":53,"Duration":100393,"SoundDuration":100393,"Delta":733876747},{"NoteNumber":94,"Velocity":62,"Duration":98755,"SoundDuration":98755,"Delta":733977140},{"NoteNumber":91,"Velocity":52,"Duration":98755,"SoundDuration":98755,"Delta":733977140},{"NoteNumber":55,"Velocity":63,"Duration":111940,"SoundDuration":111940,"Delta":734028321},{"NoteNumber":61,"Velocity":75,"Duration":111940,"SoundDuration":111940,"Delta":734028321},{"NoteNumber":58,"Velocity":63,"Duration":111940,"SoundDuration":111940,"Delta":734028321},{"NoteNumber":51,"Velocity":63,"Duration":111940,"SoundDuration":111940,"Delta":734028321},{"NoteNumber":93,"Velocity":61,"Duration":98095,"SoundDuration":98095,"Delta":734075896},{"NoteNumber":90,"Velocity":51,"Duration":98095,"SoundDuration":98095,"Delta":734075896},{"NoteNumber":55,"Velocity":63,"Duration":119047,"SoundDuration":119047,"Delta":734140262},{"NoteNumber":61,"Velocity":75,"Duration":119047,"SoundDuration":119047,"Delta":734140262},{"NoteNumber":58,"Velocity":63,"Duration":119047,"SoundDuration":119047,"Delta":734140262},{"NoteNumber":51,"Velocity":63,"Duration":119047,"SoundDuration":119047,"Delta":734140262},{"NoteNumber":92,"Velocity":60,"Duration":101190,"SoundDuration":101190,"Delta":734173992},{"NoteNumber":89,"Velocity":51,"Duration":101190,"SoundDuration":101190,"Delta":734173992},{"NoteNumber":91,"Velocity":59,"Duration":101190,"SoundDuration":101190,"Delta":734276174},{"NoteNumber":88,"Velocity":50,"Duration":101190,"SoundDuration":101190,"Delta":734276174},{"NoteNumber":90,"Velocity":58,"Duration":105500,"SoundDuration":105500,"Delta":734377365},{"NoteNumber":87,"Velocity":49,"Duration":105500,"SoundDuration":105500,"Delta":734377365},{"NoteNumber":55,"Velocity":68,"Duration":122950,"SoundDuration":122950,"Delta":734378357},{"NoteNumber":61,"Velocity":80,"Duration":122950,"SoundDuration":122950,"Delta":734378357},{"NoteNumber":58,"Velocity":68,"Duration":122950,"SoundDuration":122950,"Delta":734378357},{"NoteNumber":51,"Velocity":68,"Duration":122950,"SoundDuration":122950,"Delta":734378357},{"NoteNumber":89,"Velocity":57,"Duration":105532,"SoundDuration":105532,"Delta":734482865},{"NoteNumber":86,"Velocity":48,"Duration":105532,"SoundDuration":105532,"Delta":734482865},{"NoteNumber":88,"Velocity":56,"Duration":106835,"SoundDuration":106835,"Delta":734588397},{"NoteNumber":85,"Velocity":47,"Duration":106835,"SoundDuration":106835,"Delta":734588397},{"NoteNumber":87,"Velocity":55,"Duration":105747,"SoundDuration":105747,"Delta":734695233},{"NoteNumber":84,"Velocity":46,"Duration":105747,"SoundDuration":105747,"Delta":734695233},{"NoteNumber":43,"Velocity":64,"Duration":119047,"SoundDuration":119047,"Delta":734751377},{"NoteNumber":49,"Velocity":76,"Duration":119047,"SoundDuration":119047,"Delta":734751377},{"NoteNumber":46,"Velocity":64,"Duration":119047,"SoundDuration":119047,"Delta":734751377},{"NoteNumber":39,"Velocity":64,"Duration":119047,"SoundDuration":119047,"Delta":734751377},{"NoteNumber":86,"Velocity":55,"Duration":104700,"SoundDuration":104700,"Delta":734800980},{"NoteNumber":83,"Velocity":46,"Duration":104700,"SoundDuration":104700,"Delta":734800980},{"NoteNumber":43,"Velocity":64,"Duration":128205,"SoundDuration":128205,"Delta":734870424},{"NoteNumber":49,"Velocity":76,"Duration":128205,"SoundDuration":128205,"Delta":734870424},{"NoteNumber":46,"Velocity":64,"Duration":128205,"SoundDuration":128205,"Delta":734870424},{"NoteNumber":39,"Velocity":64,"Duration":128205,"SoundDuration":128205,"Delta":734870424},{"NoteNumber":85,"Velocity":54,"Duration":108974,"SoundDuration":108974,"Delta":734905681},{"NoteNumber":82,"Velocity":45,"Duration":108974,"SoundDuration":108974,"Delta":734905681},{"NoteNumber":81,"Velocity":45,"Duration":112179,"SoundDuration":112179,"Delta":735014655},{"NoteNumber":84,"Velocity":53,"Duration":112179,"SoundDuration":112179,"Delta":735014655},{"NoteNumber":85,"Velocity":70,"Duration":101377,"SoundDuration":101377,"Delta":735126835},{"NoteNumber":82,"Velocity":59,"Duration":101377,"SoundDuration":101377,"Delta":735126835},{"NoteNumber":81,"Velocity":51,"Duration":100393,"SoundDuration":100393,"Delta":735228213},{"NoteNumber":84,"Velocity":60,"Duration":100393,"SoundDuration":100393,"Delta":735228213},{"NoteNumber":80,"Velocity":50,"Duration":100393,"SoundDuration":100393,"Delta":735328607},{"NoteNumber":83,"Velocity":59,"Duration":100393,"SoundDuration":100393,"Delta":735328607},{"NoteNumber":79,"Velocity":50,"Duration":98755,"SoundDuration":98755,"Delta":735429985},{"NoteNumber":82,"Velocity":59,"Duration":98755,"SoundDuration":98755,"Delta":735429985},{"NoteNumber":55,"Velocity":63,"Duration":111940,"SoundDuration":111940,"Delta":735481166},{"NoteNumber":61,"Velocity":75,"Duration":111940,"SoundDuration":111940,"Delta":735481166},{"NoteNumber":58,"Velocity":63,"Duration":111940,"SoundDuration":111940,"Delta":735481166},{"NoteNumber":52,"Velocity":63,"Duration":111940,"SoundDuration":111940,"Delta":735481166},{"NoteNumber":81,"Velocity":58,"Duration":98095,"SoundDuration":98095,"Delta":735528740},{"NoteNumber":78,"Velocity":49,"Duration":98095,"SoundDuration":98095,"Delta":735528740},{"NoteNumber":55,"Velocity":63,"Duration":119047,"SoundDuration":119047,"Delta":735593106},{"NoteNumber":61,"Velocity":75,"Duration":119047,"SoundDuration":119047,"Delta":735593106},{"NoteNumber":58,"Velocity":63,"Duration":119047,"SoundDuration":119047,"Delta":735593106},{"NoteNumber":52,"Velocity":63,"Duration":119047,"SoundDuration":119047,"Delta":735593106},{"NoteNumber":80,"Velocity":57,"Duration":101190,"SoundDuration":101190,"Delta":735625844},{"NoteNumber":77,"Velocity":48,"Duration":101190,"SoundDuration":101190,"Delta":735626836},{"NoteNumber":79,"Velocity":56,"Duration":101190,"SoundDuration":101190,"Delta":735729018},{"NoteNumber":76,"Velocity":47,"Duration":101190,"SoundDuration":101190,"Delta":735729018},{"NoteNumber":78,"Velocity":56,"Duration":104475,"SoundDuration":104475,"Delta":735830209},{"NoteNumber":75,"Velocity":47,"Duration":105500,"SoundDuration":105500,"Delta":735830209},{"NoteNumber":55,"Velocity":68,"Duration":122950,"SoundDuration":122950,"Delta":735831201},{"NoteNumber":61,"Velocity":80,"Duration":122950,"SoundDuration":122950,"Delta":735831201},{"NoteNumber":58,"Velocity":68,"Duration":122950,"SoundDuration":122950,"Delta":735831201},{"NoteNumber":52,"Velocity":68,"Duration":122950,"SoundDuration":122950,"Delta":735831201},{"NoteNumber":77,"Velocity":55,"Duration":105532,"SoundDuration":105532,"Delta":735935709},{"NoteNumber":74,"Velocity":46,"Duration":105532,"SoundDuration":105532,"Delta":735935709},{"NoteNumber":76,"Velocity":54,"Duration":106835,"SoundDuration":106835,"Delta":736041242},{"NoteNumber":73,"Velocity":45,"Duration":106835,"SoundDuration":106835,"Delta":736041242},{"NoteNumber":72,"Velocity":45,"Duration":105747,"SoundDuration":105747,"Delta":736148077},{"NoteNumber":75,"Velocity":53,"Duration":105747,"SoundDuration":105747,"Delta":736148077},{"NoteNumber":43,"Velocity":64,"Duration":119047,"SoundDuration":119047,"Delta":736204221},{"NoteNumber":49,"Velocity":76,"Duration":119047,"SoundDuration":119047,"Delta":736204221},{"NoteNumber":46,"Velocity":64,"Duration":119047,"SoundDuration":119047,"Delta":736204221},{"NoteNumber":40,"Velocity":64,"Duration":119047,"SoundDuration":119047,"Delta":736204221},{"NoteNumber":74,"Velocity":52,"Duration":104700,"SoundDuration":104700,"Delta":736253824},{"NoteNumber":71,"Velocity":44,"Duration":104700,"SoundDuration":104700,"Delta":736253824},{"NoteNumber":43,"Velocity":64,"Duration":128205,"SoundDuration":128205,"Delta":736323269},{"NoteNumber":49,"Velocity":76,"Duration":128205,"SoundDuration":128205,"Delta":736323269},{"NoteNumber":46,"Velocity":64,"Duration":128205,"SoundDuration":128205,"Delta":736323269},{"NoteNumber":40,"Velocity":64,"Duration":128205,"SoundDuration":128205,"Delta":736323269},{"NoteNumber":70,"Velocity":44,"Duration":108974,"SoundDuration":108974,"Delta":736358525},{"NoteNumber":73,"Velocity":52,"Duration":108974,"SoundDuration":108974,"Delta":736358525},{"NoteNumber":72,"Velocity":51,"Duration":112179,"SoundDuration":112179,"Delta":736467500},{"NoteNumber":69,"Velocity":43,"Duration":112179,"SoundDuration":112179,"Delta":736467500},{"NoteNumber":73,"Velocity":61,"Duration":101377,"SoundDuration":101377,"Delta":736579679},{"NoteNumber":70,"Velocity":51,"Duration":101377,"SoundDuration":101377,"Delta":736579679},{"NoteNumber":69,"Velocity":46,"Duration":100393,"SoundDuration":100393,"Delta":736681057},{"NoteNumber":72,"Velocity":55,"Duration":100393,"SoundDuration":100393,"Delta":736681057},{"NoteNumber":68,"Velocity":45,"Duration":100393,"SoundDuration":100393,"Delta":736781451},{"NoteNumber":71,"Velocity":54,"Duration":100393,"SoundDuration":100393,"Delta":736782435},{"NoteNumber":67,"Velocity":45,"Duration":98755,"SoundDuration":98755,"Delta":736882829},{"NoteNumber":70,"Velocity":53,"Duration":98755,"SoundDuration":98755,"Delta":736882829},{"NoteNumber":53,"Velocity":63,"Duration":111940,"SoundDuration":111940,"Delta":736934010},{"NoteNumber":61,"Velocity":75,"Duration":111940,"SoundDuration":111940,"Delta":736934010},{"NoteNumber":58,"Velocity":63,"Duration":111940,"SoundDuration":111940,"Delta":736934010},{"NoteNumber":69,"Velocity":53,"Duration":98095,"SoundDuration":98095,"Delta":736981584},{"NoteNumber":66,"Velocity":45,"Duration":97103,"SoundDuration":97103,"Delta":736981584},{"NoteNumber":53,"Velocity":63,"Duration":119047,"SoundDuration":119047,"Delta":737045950},{"NoteNumber":61,"Velocity":75,"Duration":119047,"SoundDuration":119047,"Delta":737045950},{"NoteNumber":58,"Velocity":63,"Duration":119047,"SoundDuration":119047,"Delta":737045950},{"NoteNumber":68,"Velocity":52,"Duration":101190,"SoundDuration":101190,"Delta":737078688},{"NoteNumber":65,"Velocity":44,"Duration":101190,"SoundDuration":101190,"Delta":737079680},{"NoteNumber":67,"Velocity":51,"Duration":101190,"SoundDuration":101190,"Delta":737181863},{"NoteNumber":64,"Velocity":43,"Duration":101190,"SoundDuration":101190,"Delta":737181863},{"NoteNumber":66,"Velocity":50,"Duration":104475,"SoundDuration":104475,"Delta":737283053},{"NoteNumber":63,"Velocity":42,"Duration":105500,"SoundDuration":105500,"Delta":737283053},{"NoteNumber":53,"Velocity":68,"Duration":122950,"SoundDuration":122950,"Delta":737284045},{"NoteNumber":61,"Velocity":80,"Duration":122950,"SoundDuration":122950,"Delta":737284045},{"NoteNumber":58,"Velocity":68,"Duration":122950,"SoundDuration":122950,"Delta":737284045},{"NoteNumber":65,"Velocity":49,"Duration":105532,"SoundDuration":105532,"Delta":737388553},{"NoteNumber":62,"Velocity":41,"Duration":105532,"SoundDuration":105532,"Delta":737388553},{"NoteNumber":64,"Velocity":48,"Duration":106835,"SoundDuration":106835,"Delta":737494086},{"NoteNumber":61,"Velocity":40,"Duration":106835,"SoundDuration":106835,"Delta":737494086},{"NoteNumber":60,"Velocity":39,"Duration":105747,"SoundDuration":105747,"Delta":737600921},{"NoteNumber":63,"Velocity":47,"Duration":105747,"SoundDuration":105747,"Delta":737600921},{"NoteNumber":41,"Velocity":64,"Duration":119047,"SoundDuration":119047,"Delta":737657065},{"NoteNumber":49,"Velocity":76,"Duration":119047,"SoundDuration":119047,"Delta":737657065},{"NoteNumber":46,"Velocity":64,"Duration":119047,"SoundDuration":119047,"Delta":737657065},{"NoteNumber":62,"Velocity":46,"Duration":104700,"SoundDuration":104700,"Delta":737706668},{"NoteNumber":59,"Velocity":39,"Duration":104700,"SoundDuration":104700,"Delta":737706668},{"NoteNumber":41,"Velocity":64,"Duration":128205,"SoundDuration":128205,"Delta":737776113},{"NoteNumber":49,"Velocity":76,"Duration":128205,"SoundDuration":128205,"Delta":737776113},{"NoteNumber":46,"Velocity":64,"Duration":128205,"SoundDuration":128205,"Delta":737776113},{"NoteNumber":58,"Velocity":38,"Duration":108974,"SoundDuration":108974,"Delta":737811369},{"NoteNumber":61,"Velocity":45,"Duration":108974,"SoundDuration":108974,"Delta":737811369},{"NoteNumber":60,"Velocity":45,"Duration":112179,"SoundDuration":112179,"Delta":737920344},{"NoteNumber":57,"Velocity":38,"Duration":112179,"SoundDuration":112179,"Delta":737920344},{"NoteNumber":61,"Velocity":71,"Duration":218977,"SoundDuration":218977,"Delta":738032523},{"NoteNumber":58,"Velocity":71,"Duration":109489,"SoundDuration":109489,"Delta":738032523},{"NoteNumber":42,"Velocity":61,"Duration":109489,"SoundDuration":109489,"Delta":738032523},{"NoteNumber":54,"Velocity":61,"Duration":109489,"SoundDuration":109489,"Delta":738032523},{"NoteNumber":57,"Velocity":53,"Duration":109488,"SoundDuration":109488,"Delta":738142012},{"NoteNumber":53,"Velocity":60,"Duration":109488,"SoundDuration":109488,"Delta":738142012},{"NoteNumber":61,"Velocity":53,"Duration":218977,"SoundDuration":218977,"Delta":738251501},{"NoteNumber":58,"Velocity":53,"Duration":109489,"SoundDuration":109489,"Delta":738251501},{"NoteNumber":52,"Velocity":59,"Duration":109489,"SoundDuration":109489,"Delta":738251501},{"NoteNumber":57,"Velocity":53,"Duration":109488,"SoundDuration":109488,"Delta":738360990},{"NoteNumber":51,"Velocity":59,"Duration":109488,"SoundDuration":109488,"Delta":738360990},{"NoteNumber":61,"Velocity":53,"Duration":218977,"SoundDuration":218977,"Delta":738470479},{"NoteNumber":58,"Velocity":53,"Duration":109489,"SoundDuration":109489,"Delta":738470479},{"NoteNumber":50,"Velocity":58,"Duration":109489,"SoundDuration":109489,"Delta":738470479},{"NoteNumber":57,"Velocity":53,"Duration":109488,"SoundDuration":109488,"Delta":738579968},{"NoteNumber":49,"Velocity":57,"Duration":109488,"SoundDuration":109488,"Delta":738579968},{"NoteNumber":61,"Velocity":53,"Duration":218977,"SoundDuration":218977,"Delta":738689457},{"NoteNumber":58,"Velocity":53,"Duration":109489,"SoundDuration":109489,"Delta":738689457},{"NoteNumber":48,"Velocity":56,"Duration":109489,"SoundDuration":109489,"Delta":738689457},{"NoteNumber":57,"Velocity":53,"Duration":109488,"SoundDuration":109488,"Delta":738798946},{"NoteNumber":47,"Velocity":55,"Duration":109488,"SoundDuration":109488,"Delta":738798946},{"NoteNumber":61,"Velocity":53,"Duration":218977,"SoundDuration":218977,"Delta":738908435},{"NoteNumber":58,"Velocity":53,"Duration":109489,"SoundDuration":109489,"Delta":738908435},{"NoteNumber":46,"Velocity":54,"Duration":109489,"SoundDuration":109489,"Delta":738908435},{"NoteNumber":57,"Velocity":53,"Duration":109488,"SoundDuration":109488,"Delta":739017924},{"NoteNumber":45,"Velocity":53,"Duration":109488,"SoundDuration":109488,"Delta":739017924},{"NoteNumber":61,"Velocity":53,"Duration":234061,"SoundDuration":234061,"Delta":739127413},{"NoteNumber":58,"Velocity":53,"Duration":111111,"SoundDuration":111111,"Delta":739127413},{"NoteNumber":44,"Velocity":53,"Duration":111111,"SoundDuration":111111,"Delta":739127413},{"NoteNumber":57,"Velocity":53,"Duration":122950,"SoundDuration":122950,"Delta":739238524},{"NoteNumber":43,"Velocity":52,"Duration":122950,"SoundDuration":122950,"Delta":739238524},{"NoteNumber":61,"Velocity":71,"Duration":217391,"SoundDuration":217391,"Delta":739361475},{"NoteNumber":58,"Velocity":71,"Duration":108695,"SoundDuration":108695,"Delta":739361475},{"NoteNumber":42,"Velocity":61,"Duration":100543,"SoundDuration":100543,"Delta":739361475},{"NoteNumber":41,"Velocity":60,"Duration":99637,"SoundDuration":99637,"Delta":739462019},{"NoteNumber":57,"Velocity":53,"Duration":108695,"SoundDuration":108695,"Delta":739470171},{"NoteNumber":40,"Velocity":59,"Duration":100543,"SoundDuration":100543,"Delta":739561656},{"NoteNumber":61,"Velocity":53,"Duration":217391,"SoundDuration":217391,"Delta":739578867},{"NoteNumber":58,"Velocity":53,"Duration":108695,"SoundDuration":108695,"Delta":739578867},{"NoteNumber":39,"Velocity":59,"Duration":100543,"SoundDuration":100543,"Delta":739661294},{"NoteNumber":57,"Velocity":53,"Duration":108695,"SoundDuration":108695,"Delta":739687562},{"NoteNumber":38,"Velocity":58,"Duration":99637,"SoundDuration":99637,"Delta":739761838},{"NoteNumber":61,"Velocity":53,"Duration":217391,"SoundDuration":217391,"Delta":739796258},{"NoteNumber":58,"Velocity":53,"Duration":108695,"SoundDuration":108695,"Delta":739796258},{"NoteNumber":37,"Velocity":57,"Duration":100543,"SoundDuration":100543,"Delta":739861476},{"NoteNumber":57,"Velocity":53,"Duration":108695,"SoundDuration":108695,"Delta":739904954},{"NoteNumber":36,"Velocity":56,"Duration":102202,"SoundDuration":102202,"Delta":739962019},{"NoteNumber":63,"Velocity":70,"Duration":229007,"SoundDuration":229007,"Delta":740013650},{"NoteNumber":58,"Velocity":53,"Duration":114503,"SoundDuration":114503,"Delta":740013650},{"NoteNumber":35,"Velocity":55,"Duration":105915,"SoundDuration":105915,"Delta":740064222},{"NoteNumber":57,"Velocity":53,"Duration":114503,"SoundDuration":114503,"Delta":740128153},{"NoteNumber":34,"Velocity":54,"Duration":106418,"SoundDuration":106418,"Delta":740169184},{"NoteNumber":63,"Velocity":53,"Duration":232558,"SoundDuration":232558,"Delta":740242657},{"NoteNumber":58,"Velocity":53,"Duration":116278,"SoundDuration":116278,"Delta":740242657},{"NoteNumber":33,"Velocity":53,"Duration":106589,"SoundDuration":106589,"Delta":740275603},{"NoteNumber":57,"Velocity":53,"Duration":116279,"SoundDuration":116279,"Delta":740358936},{"NoteNumber":32,"Velocity":53,"Duration":107558,"SoundDuration":107558,"Delta":740382192},{"NoteNumber":63,"Velocity":53,"Duration":232557,"SoundDuration":232557,"Delta":740475215},{"NoteNumber":58,"Velocity":53,"Duration":116278,"SoundDuration":116278,"Delta":740475215},{"NoteNumber":31,"Velocity":52,"Duration":106589,"SoundDuration":106589,"Delta":740489750},{"NoteNumber":60,"Velocity":53,"Duration":116278,"SoundDuration":116278,"Delta":740591494},{"NoteNumber":30,"Velocity":52,"Duration":111434,"SoundDuration":111434,"Delta":740596339},{"NoteNumber":65,"Velocity":77,"Duration":227272,"SoundDuration":227272,"Delta":740707773},{"NoteNumber":53,"Velocity":77,"Duration":227272,"SoundDuration":227272,"Delta":740707773},{"NoteNumber":57,"Velocity":77,"Duration":227272,"SoundDuration":227272,"Delta":740707773},{"NoteNumber":29,"Velocity":67,"Duration":227272,"SoundDuration":227272,"Delta":740707773},{"NoteNumber":36,"Velocity":67,"Duration":227272,"SoundDuration":227272,"Delta":740707773},{"NoteNumber":41,"Velocity":67,"Duration":227272,"SoundDuration":227272,"Delta":740707773},{"NoteNumber":52,"Velocity":75,"Duration":173410,"SoundDuration":173410,"Delta":740935046},{"NoteNumber":64,"Velocity":75,"Duration":173410,"SoundDuration":173410,"Delta":740935046},{"NoteNumber":40,"Velocity":70,"Duration":173410,"SoundDuration":173410,"Delta":740935046},{"NoteNumber":53,"Velocity":70,"Duration":182926,"SoundDuration":182926,"Delta":741108456},{"NoteNumber":65,"Velocity":70,"Duration":182926,"SoundDuration":182926,"Delta":741108456},{"NoteNumber":41,"Velocity":66,"Duration":182926,"SoundDuration":182926,"Delta":741108456},{"NoteNumber":64,"Velocity":84,"Duration":172414,"SoundDuration":172414,"Delta":741291383},{"NoteNumber":76,"Velocity":84,"Duration":172414,"SoundDuration":172414,"Delta":741291383},{"NoteNumber":40,"Velocity":73,"Duration":172414,"SoundDuration":172414,"Delta":741291383},{"NoteNumber":52,"Velocity":73,"Duration":172414,"SoundDuration":172414,"Delta":741291383},{"NoteNumber":65,"Velocity":80,"Duration":178571,"SoundDuration":178571,"Delta":741463797},{"NoteNumber":77,"Velocity":80,"Duration":178571,"SoundDuration":178571,"Delta":741463797},{"NoteNumber":41,"Velocity":73,"Duration":178571,"SoundDuration":178571,"Delta":741463797},{"NoteNumber":53,"Velocity":73,"Duration":178571,"SoundDuration":178571,"Delta":741463797},{"NoteNumber":88,"Velocity":99,"Duration":169491,"SoundDuration":169491,"Delta":741642369},{"NoteNumber":76,"Velocity":99,"Duration":169491,"SoundDuration":169491,"Delta":741642369},{"NoteNumber":64,"Velocity":82,"Duration":169491,"SoundDuration":169491,"Delta":741642369},{"NoteNumber":52,"Velocity":82,"Duration":169491,"SoundDuration":169491,"Delta":741642369},{"NoteNumber":77,"Velocity":97,"Duration":178571,"SoundDuration":178571,"Delta":741811860},{"NoteNumber":89,"Velocity":97,"Duration":178571,"SoundDuration":178571,"Delta":741811860},{"NoteNumber":53,"Velocity":82,"Duration":178571,"SoundDuration":178571,"Delta":741811860},{"NoteNumber":65,"Velocity":82,"Duration":178571,"SoundDuration":178571,"Delta":741811860},{"NoteNumber":76,"Velocity":82,"Duration":172414,"SoundDuration":172414,"Delta":741990432},{"NoteNumber":64,"Velocity":82,"Duration":172414,"SoundDuration":172414,"Delta":741990432},{"NoteNumber":40,"Velocity":70,"Duration":172414,"SoundDuration":172414,"Delta":741990432},{"NoteNumber":52,"Velocity":70,"Duration":172414,"SoundDuration":172414,"Delta":741990432},{"NoteNumber":65,"Velocity":79,"Duration":182926,"SoundDuration":182926,"Delta":742162846},{"NoteNumber":77,"Velocity":79,"Duration":182926,"SoundDuration":182926,"Delta":742162846},{"NoteNumber":41,"Velocity":68,"Duration":182926,"SoundDuration":182926,"Delta":742162846},{"NoteNumber":53,"Velocity":68,"Duration":182926,"SoundDuration":182926,"Delta":742162846},{"NoteNumber":52,"Velocity":76,"Duration":172414,"SoundDuration":172414,"Delta":742345773},{"NoteNumber":64,"Velocity":76,"Duration":172414,"SoundDuration":172414,"Delta":742345773},{"NoteNumber":28,"Velocity":69,"Duration":172414,"SoundDuration":172414,"Delta":742345773},{"NoteNumber":40,"Velocity":69,"Duration":172414,"SoundDuration":172414,"Delta":742345773},{"NoteNumber":53,"Velocity":74,"Duration":182926,"SoundDuration":182926,"Delta":742518187},{"NoteNumber":65,"Velocity":74,"Duration":182926,"SoundDuration":182926,"Delta":742518187},{"NoteNumber":29,"Velocity":65,"Duration":182926,"SoundDuration":182926,"Delta":742518187},{"NoteNumber":41,"Velocity":65,"Duration":182926,"SoundDuration":182926,"Delta":742518187},{"NoteNumber":53,"Velocity":76,"Duration":217391,"SoundDuration":217391,"Delta":742701114},{"NoteNumber":29,"Velocity":71,"Duration":217391,"SoundDuration":217391,"Delta":742701114},{"NoteNumber":41,"Velocity":71,"Duration":217391,"SoundDuration":217391,"Delta":742701114},{"NoteNumber":97,"Velocity":82,"Duration":95485,"SoundDuration":95485,"Delta":742918505},{"NoteNumber":94,"Velocity":69,"Duration":95485,"SoundDuration":95485,"Delta":742918505},{"NoteNumber":49,"Velocity":89,"Duration":95485,"SoundDuration":95485,"Delta":742918505},{"NoteNumber":34,"Velocity":75,"Duration":95485,"SoundDuration":95485,"Delta":742918505},{"NoteNumber":40,"Velocity":75,"Duration":95485,"SoundDuration":95485,"Delta":742918505},{"NoteNumber":43,"Velocity":75,"Duration":95485,"SoundDuration":95485,"Delta":742918505},{"NoteNumber":96,"Velocity":64,"Duration":94444,"SoundDuration":94444,"Delta":743013990},{"NoteNumber":93,"Velocity":54,"Duration":94444,"SoundDuration":94444,"Delta":743013990},{"NoteNumber":95,"Velocity":64,"Duration":93892,"SoundDuration":93892,"Delta":743108434},{"NoteNumber":92,"Velocity":54,"Duration":93892,"SoundDuration":93892,"Delta":743108434},{"NoteNumber":50,"Velocity":84,"Duration":93892,"SoundDuration":93892,"Delta":743108434},{"NoteNumber":35,"Velocity":71,"Duration":93892,"SoundDuration":93892,"Delta":743108434},{"NoteNumber":94,"Velocity":63,"Duration":93347,"SoundDuration":93347,"Delta":743202327},{"NoteNumber":91,"Velocity":53,"Duration":93347,"SoundDuration":93347,"Delta":743202327},{"NoteNumber":93,"Velocity":62,"Duration":92808,"SoundDuration":92808,"Delta":743295674},{"NoteNumber":90,"Velocity":52,"Duration":92808,"SoundDuration":92808,"Delta":743295674},{"NoteNumber":51,"Velocity":89,"Duration":92808,"SoundDuration":92808,"Delta":743295674},{"NoteNumber":36,"Velocity":75,"Duration":92808,"SoundDuration":92808,"Delta":743295674},{"NoteNumber":92,"Velocity":62,"Duration":92275,"SoundDuration":92275,"Delta":743388482},{"NoteNumber":89,"Velocity":52,"Duration":92275,"SoundDuration":92275,"Delta":743388482},{"NoteNumber":91,"Velocity":61,"Duration":91599,"SoundDuration":91599,"Delta":743480758},{"NoteNumber":88,"Velocity":52,"Duration":91599,"SoundDuration":91599,"Delta":743480758},{"NoteNumber":52,"Velocity":84,"Duration":91599,"SoundDuration":91599,"Delta":743480758},{"NoteNumber":37,"Velocity":71,"Duration":91599,"SoundDuration":91599,"Delta":743480758},{"NoteNumber":90,"Velocity":60,"Duration":91079,"SoundDuration":91079,"Delta":743572357},{"NoteNumber":87,"Velocity":51,"Duration":91079,"SoundDuration":91079,"Delta":743572357},{"NoteNumber":89,"Velocity":60,"Duration":90566,"SoundDuration":90566,"Delta":743663437},{"NoteNumber":86,"Velocity":51,"Duration":90566,"SoundDuration":90566,"Delta":743663437},{"NoteNumber":53,"Velocity":89,"Duration":90566,"SoundDuration":90566,"Delta":743663437},{"NoteNumber":38,"Velocity":75,"Duration":90566,"SoundDuration":90566,"Delta":743663437},{"NoteNumber":88,"Velocity":59,"Duration":90059,"SoundDuration":90059,"Delta":743754004},{"NoteNumber":85,"Velocity":51,"Duration":90059,"SoundDuration":90059,"Delta":743754004},{"NoteNumber":87,"Velocity":59,"Duration":89557,"SoundDuration":89557,"Delta":743844063},{"NoteNumber":84,"Velocity":50,"Duration":89557,"SoundDuration":89557,"Delta":743844063},{"NoteNumber":54,"Velocity":85,"Duration":89557,"SoundDuration":89557,"Delta":743844063},{"NoteNumber":39,"Velocity":72,"Duration":89557,"SoundDuration":89557,"Delta":743844063},{"NoteNumber":86,"Velocity":59,"Duration":88920,"SoundDuration":88920,"Delta":743933620},{"NoteNumber":83,"Velocity":50,"Duration":88920,"SoundDuration":88920,"Delta":743933620},{"NoteNumber":85,"Velocity":58,"Duration":90909,"SoundDuration":90909,"Delta":744022541},{"NoteNumber":82,"Velocity":49,"Duration":90909,"SoundDuration":90909,"Delta":744022541},{"NoteNumber":55,"Velocity":89,"Duration":90909,"SoundDuration":90909,"Delta":744022541},{"NoteNumber":40,"Velocity":75,"Duration":90909,"SoundDuration":90909,"Delta":744022541},{"NoteNumber":84,"Velocity":57,"Duration":90909,"SoundDuration":90909,"Delta":744113450},{"NoteNumber":81,"Velocity":48,"Duration":90909,"SoundDuration":90909,"Delta":744113450},{"NoteNumber":83,"Velocity":57,"Duration":90909,"SoundDuration":90909,"Delta":744204359},{"NoteNumber":80,"Velocity":48,"Duration":90909,"SoundDuration":90909,"Delta":744204359},{"NoteNumber":56,"Velocity":84,"Duration":90909,"SoundDuration":90909,"Delta":744204359},{"NoteNumber":41,"Velocity":71,"Duration":90909,"SoundDuration":90909,"Delta":744204359},{"NoteNumber":82,"Velocity":57,"Duration":90909,"SoundDuration":90909,"Delta":744295268},{"NoteNumber":79,"Velocity":47,"Duration":90909,"SoundDuration":90909,"Delta":744295268},{"NoteNumber":81,"Velocity":56,"Duration":89285,"SoundDuration":89285,"Delta":744386177},{"NoteNumber":78,"Velocity":47,"Duration":89285,"SoundDuration":89285,"Delta":744386177},{"NoteNumber":57,"Velocity":89,"Duration":89285,"SoundDuration":89285,"Delta":744386177},{"NoteNumber":42,"Velocity":75,"Duration":89285,"SoundDuration":89285,"Delta":744386177},{"NoteNumber":80,"Velocity":56,"Duration":89285,"SoundDuration":89285,"Delta":744475462},{"NoteNumber":77,"Velocity":47,"Duration":89285,"SoundDuration":89285,"Delta":744475462},{"NoteNumber":73,"Velocity":46,"Duration":94339,"SoundDuration":94339,"Delta":744564748},{"NoteNumber":79,"Velocity":55,"Duration":94339,"SoundDuration":94339,"Delta":744564748},{"NoteNumber":76,"Velocity":46,"Duration":94339,"SoundDuration":94339,"Delta":744564748},{"NoteNumber":58,"Velocity":86,"Duration":94339,"SoundDuration":94339,"Delta":744564748},{"NoteNumber":42,"Velocity":73,"Duration":94339,"SoundDuration":94339,"Delta":744564748},{"NoteNumber":75,"Velocity":54,"Duration":111111,"SoundDuration":111111,"Delta":744659088},{"NoteNumber":72,"Velocity":45,"Duration":111111,"SoundDuration":111111,"Delta":744659088},{"NoteNumber":74,"Velocity":54,"Duration":91463,"SoundDuration":91463,"Delta":744770199},{"NoteNumber":70,"Velocity":45,"Duration":91463,"SoundDuration":91463,"Delta":744770199},{"NoteNumber":61,"Velocity":102,"Duration":380773,"SoundDuration":380773,"Delta":744770199},{"NoteNumber":46,"Velocity":86,"Duration":380773,"SoundDuration":380773,"Delta":744770199},{"NoteNumber":52,"Velocity":86,"Duration":380773,"SoundDuration":380773,"Delta":744770199},{"NoteNumber":55,"Velocity":86,"Duration":380773,"SoundDuration":380773,"Delta":744770199},{"NoteNumber":72,"Velocity":53,"Duration":91463,"SoundDuration":91463,"Delta":744861662},{"NoteNumber":69,"Velocity":44,"Duration":91463,"SoundDuration":91463,"Delta":744861662},{"NoteNumber":71,"Velocity":52,"Duration":91463,"SoundDuration":91463,"Delta":744953126},{"NoteNumber":68,"Velocity":43,"Duration":91463,"SoundDuration":91463,"Delta":744953126},{"NoteNumber":70,"Velocity":52,"Duration":62056,"SoundDuration":62056,"Delta":745044589},{"NoteNumber":67,"Velocity":43,"Duration":62056,"SoundDuration":62056,"Delta":745044589},{"NoteNumber":41,"Velocity":67,"Duration":271598,"SoundDuration":271598,"Delta":745106646},{"NoteNumber":48,"Velocity":67,"Duration":262733,"SoundDuration":262733,"Delta":745115511},{"NoteNumber":57,"Velocity":72,"Duration":253868,"SoundDuration":253868,"Delta":745124376},{"NoteNumber":65,"Velocity":77,"Duration":245003,"SoundDuration":245003,"Delta":745133242},{"NoteNumber":72,"Velocity":81,"Duration":236137,"SoundDuration":236137,"Delta":745142107},{"NoteNumber":81,"Velocity":94,"Duration":227272,"SoundDuration":227272,"Delta":745150972},{"NoteNumber":64,"Velocity":75,"Duration":173410,"SoundDuration":173410,"Delta":745378245},{"NoteNumber":76,"Velocity":75,"Duration":173410,"SoundDuration":173410,"Delta":745378245},{"NoteNumber":52,"Velocity":73,"Duration":173410,"SoundDuration":173410,"Delta":745378245},{"NoteNumber":40,"Velocity":70,"Duration":173410,"SoundDuration":173410,"Delta":745378245},{"NoteNumber":65,"Velocity":71,"Duration":182926,"SoundDuration":182926,"Delta":745551655},{"NoteNumber":77,"Velocity":71,"Duration":182926,"SoundDuration":182926,"Delta":745551655},{"NoteNumber":53,"Velocity":72,"Duration":182926,"SoundDuration":182926,"Delta":745551655},{"NoteNumber":41,"Velocity":67,"Duration":182926,"SoundDuration":182926,"Delta":745551655},{"NoteNumber":76,"Velocity":88,"Duration":172414,"SoundDuration":172414,"Delta":745734582},{"NoteNumber":88,"Velocity":88,"Duration":172414,"SoundDuration":172414,"Delta":745734582},{"NoteNumber":52,"Velocity":76,"Duration":172414,"SoundDuration":172414,"Delta":745734582},{"NoteNumber":64,"Velocity":76,"Duration":172414,"SoundDuration":172414,"Delta":745734582},{"NoteNumber":77,"Velocity":83,"Duration":178571,"SoundDuration":178571,"Delta":745906996},{"NoteNumber":89,"Velocity":83,"Duration":178571,"SoundDuration":178571,"Delta":745906996},{"NoteNumber":53,"Velocity":76,"Duration":178571,"SoundDuration":178571,"Delta":745906996},{"NoteNumber":65,"Velocity":76,"Duration":178571,"SoundDuration":178571,"Delta":745906996},{"NoteNumber":100,"Velocity":101,"Duration":169491,"SoundDuration":169491,"Delta":746085568},{"NoteNumber":88,"Velocity":101,"Duration":169491,"SoundDuration":169491,"Delta":746085568},{"NoteNumber":76,"Velocity":83,"Duration":169491,"SoundDuration":169491,"Delta":746085568},{"NoteNumber":64,"Velocity":83,"Duration":169491,"SoundDuration":169491,"Delta":746085568},{"NoteNumber":89,"Velocity":98,"Duration":178571,"SoundDuration":178571,"Delta":746255059},{"NoteNumber":101,"Velocity":98,"Duration":178571,"SoundDuration":178571,"Delta":746255059},{"NoteNumber":65,"Velocity":83,"Duration":178571,"SoundDuration":178571,"Delta":746255059},{"NoteNumber":77,"Velocity":83,"Duration":178571,"SoundDuration":178571,"Delta":746255059},{"NoteNumber":88,"Velocity":82,"Duration":172414,"SoundDuration":172414,"Delta":746433631},{"NoteNumber":76,"Velocity":82,"Duration":172414,"SoundDuration":172414,"Delta":746433631},{"NoteNumber":52,"Velocity":70,"Duration":172414,"SoundDuration":172414,"Delta":746433631},{"NoteNumber":64,"Velocity":70,"Duration":172414,"SoundDuration":172414,"Delta":746433631},{"NoteNumber":77,"Velocity":79,"Duration":182926,"SoundDuration":182926,"Delta":746606045},{"NoteNumber":89,"Velocity":79,"Duration":182926,"SoundDuration":182926,"Delta":746606045},{"NoteNumber":53,"Velocity":68,"Duration":182926,"SoundDuration":182926,"Delta":746606045},{"NoteNumber":65,"Velocity":68,"Duration":182926,"SoundDuration":182926,"Delta":746606045},{"NoteNumber":64,"Velocity":76,"Duration":172414,"SoundDuration":172414,"Delta":746788972},{"NoteNumber":76,"Velocity":76,"Duration":172414,"SoundDuration":172414,"Delta":746788972},{"NoteNumber":40,"Velocity":69,"Duration":172414,"SoundDuration":172414,"Delta":746788972},{"NoteNumber":52,"Velocity":69,"Duration":172414,"SoundDuration":172414,"Delta":746788972},{"NoteNumber":65,"Velocity":74,"Duration":182926,"SoundDuration":182926,"Delta":746961386},{"NoteNumber":77,"Velocity":74,"Duration":182926,"SoundDuration":182926,"Delta":746961386},{"NoteNumber":41,"Velocity":65,"Duration":182926,"SoundDuration":182926,"Delta":746961386},{"NoteNumber":53,"Velocity":65,"Duration":182926,"SoundDuration":182926,"Delta":746961386},{"NoteNumber":53,"Velocity":76,"Duration":217391,"SoundDuration":217391,"Delta":747144313},{"NoteNumber":29,"Velocity":71,"Duration":217391,"SoundDuration":217391,"Delta":747144313},{"NoteNumber":41,"Velocity":71,"Duration":217391,"SoundDuration":217391,"Delta":747144313},{"NoteNumber":97,"Velocity":82,"Duration":96024,"SoundDuration":96024,"Delta":747361704},{"NoteNumber":94,"Velocity":69,"Duration":96024,"SoundDuration":96024,"Delta":747361704},{"NoteNumber":49,"Velocity":89,"Duration":96024,"SoundDuration":96024,"Delta":747361704},{"NoteNumber":34,"Velocity":75,"Duration":96024,"SoundDuration":96024,"Delta":747361704},{"NoteNumber":40,"Velocity":75,"Duration":96024,"SoundDuration":96024,"Delta":747361704},{"NoteNumber":43,"Velocity":75,"Duration":96024,"SoundDuration":96024,"Delta":747361704},{"NoteNumber":96,"Velocity":64,"Duration":95042,"SoundDuration":95042,"Delta":747457729},{"NoteNumber":93,"Velocity":54,"Duration":95042,"SoundDuration":95042,"Delta":747457729},{"NoteNumber":95,"Velocity":64,"Duration":94483,"SoundDuration":94483,"Delta":747552771},{"NoteNumber":92,"Velocity":54,"Duration":94483,"SoundDuration":94483,"Delta":747552771},{"NoteNumber":50,"Velocity":84,"Duration":94483,"SoundDuration":94483,"Delta":747552771},{"NoteNumber":35,"Velocity":71,"Duration":94483,"SoundDuration":94483,"Delta":747552771},{"NoteNumber":94,"Velocity":63,"Duration":93931,"SoundDuration":93931,"Delta":747647255},{"NoteNumber":91,"Velocity":53,"Duration":93931,"SoundDuration":93931,"Delta":747647255},{"NoteNumber":93,"Velocity":62,"Duration":93386,"SoundDuration":93386,"Delta":747741187},{"NoteNumber":90,"Velocity":52,"Duration":93386,"SoundDuration":93386,"Delta":747741187},{"NoteNumber":51,"Velocity":89,"Duration":93386,"SoundDuration":93386,"Delta":747741187},{"NoteNumber":36,"Velocity":75,"Duration":93386,"SoundDuration":93386,"Delta":747741187},{"NoteNumber":92,"Velocity":62,"Duration":92846,"SoundDuration":92846,"Delta":747834573},{"NoteNumber":89,"Velocity":52,"Duration":92846,"SoundDuration":92846,"Delta":747834573},{"NoteNumber":91,"Velocity":61,"Duration":92313,"SoundDuration":92313,"Delta":747927420},{"NoteNumber":88,"Velocity":52,"Duration":92313,"SoundDuration":92313,"Delta":747927420},{"NoteNumber":52,"Velocity":84,"Duration":92313,"SoundDuration":92313,"Delta":747927420},{"NoteNumber":37,"Velocity":71,"Duration":92313,"SoundDuration":92313,"Delta":747927420},{"NoteNumber":90,"Velocity":60,"Duration":91786,"SoundDuration":91786,"Delta":748019733},{"NoteNumber":87,"Velocity":51,"Duration":91786,"SoundDuration":91786,"Delta":748019733},{"NoteNumber":89,"Velocity":60,"Duration":91264,"SoundDuration":91264,"Delta":748111519},{"NoteNumber":86,"Velocity":51,"Duration":91264,"SoundDuration":91264,"Delta":748111519},{"NoteNumber":53,"Velocity":89,"Duration":91264,"SoundDuration":91264,"Delta":748111519},{"NoteNumber":38,"Velocity":75,"Duration":91264,"SoundDuration":91264,"Delta":748111519},{"NoteNumber":88,"Velocity":59,"Duration":90749,"SoundDuration":90749,"Delta":748202784},{"NoteNumber":85,"Velocity":51,"Duration":90749,"SoundDuration":90749,"Delta":748202784},{"NoteNumber":87,"Velocity":59,"Duration":90239,"SoundDuration":90239,"Delta":748293533},{"NoteNumber":84,"Velocity":50,"Duration":90239,"SoundDuration":90239,"Delta":748293533},{"NoteNumber":54,"Velocity":85,"Duration":90239,"SoundDuration":90239,"Delta":748293533},{"NoteNumber":39,"Velocity":72,"Duration":90239,"SoundDuration":90239,"Delta":748293533},{"NoteNumber":86,"Velocity":59,"Duration":89735,"SoundDuration":89735,"Delta":748383773},{"NoteNumber":83,"Velocity":50,"Duration":89735,"SoundDuration":89735,"Delta":748383773},{"NoteNumber":85,"Velocity":58,"Duration":92592,"SoundDuration":92592,"Delta":748473508},{"NoteNumber":82,"Velocity":49,"Duration":92592,"SoundDuration":92592,"Delta":748473508},{"NoteNumber":55,"Velocity":89,"Duration":92592,"SoundDuration":92592,"Delta":748473508},{"NoteNumber":40,"Velocity":75,"Duration":92592,"SoundDuration":92592,"Delta":748473508},{"NoteNumber":84,"Velocity":57,"Duration":92592,"SoundDuration":92592,"Delta":748566101},{"NoteNumber":81,"Velocity":48,"Duration":92592,"SoundDuration":92592,"Delta":748566101},{"NoteNumber":83,"Velocity":57,"Duration":92592,"SoundDuration":92592,"Delta":748658693},{"NoteNumber":80,"Velocity":48,"Duration":92592,"SoundDuration":92592,"Delta":748658693},{"NoteNumber":56,"Velocity":84,"Duration":92592,"SoundDuration":92592,"Delta":748658693},{"NoteNumber":41,"Velocity":71,"Duration":92592,"SoundDuration":92592,"Delta":748658693},{"NoteNumber":82,"Velocity":57,"Duration":92592,"SoundDuration":92592,"Delta":748751286},{"NoteNumber":79,"Velocity":47,"Duration":92592,"SoundDuration":92592,"Delta":748751286},{"NoteNumber":81,"Velocity":56,"Duration":89820,"SoundDuration":89820,"Delta":748843878},{"NoteNumber":78,"Velocity":47,"Duration":89820,"SoundDuration":89820,"Delta":748843878},{"NoteNumber":57,"Velocity":89,"Duration":89820,"SoundDuration":89820,"Delta":748843878},{"NoteNumber":42,"Velocity":75,"Duration":89820,"SoundDuration":89820,"Delta":748843878},{"NoteNumber":80,"Velocity":56,"Duration":89820,"SoundDuration":89820,"Delta":748933699},{"NoteNumber":77,"Velocity":47,"Duration":89820,"SoundDuration":89820,"Delta":748933699},{"NoteNumber":73,"Velocity":46,"Duration":94339,"SoundDuration":94339,"Delta":749023519},{"NoteNumber":79,"Velocity":55,"Duration":94339,"SoundDuration":94339,"Delta":749023519},{"NoteNumber":76,"Velocity":46,"Duration":94339,"SoundDuration":94339,"Delta":749023519},{"NoteNumber":58,"Velocity":86,"Duration":94339,"SoundDuration":94339,"Delta":749023519},{"NoteNumber":42,"Velocity":73,"Duration":94339,"SoundDuration":94339,"Delta":749023519},{"NoteNumber":75,"Velocity":54,"Duration":111111,"SoundDuration":111111,"Delta":749117858},{"NoteNumber":72,"Velocity":45,"Duration":111111,"SoundDuration":111111,"Delta":749117858},{"NoteNumber":74,"Velocity":54,"Duration":90909,"SoundDuration":90909,"Delta":749228969},{"NoteNumber":70,"Velocity":45,"Duration":90909,"SoundDuration":90909,"Delta":749228969},{"NoteNumber":61,"Velocity":102,"Duration":379110,"SoundDuration":379110,"Delta":749228969},{"NoteNumber":46,"Velocity":86,"Duration":379110,"SoundDuration":379110,"Delta":749228969},{"NoteNumber":52,"Velocity":86,"Duration":379110,"SoundDuration":379110,"Delta":749228969},{"NoteNumber":55,"Velocity":86,"Duration":379110,"SoundDuration":379110,"Delta":749228969},{"NoteNumber":72,"Velocity":53,"Duration":90909,"SoundDuration":90909,"Delta":749319878},{"NoteNumber":69,"Velocity":44,"Duration":90909,"SoundDuration":90909,"Delta":749319878},{"NoteNumber":71,"Velocity":52,"Duration":90909,"SoundDuration":90909,"Delta":749410787},{"NoteNumber":68,"Velocity":43,"Duration":90909,"SoundDuration":90909,"Delta":749410787},{"NoteNumber":70,"Velocity":52,"Duration":62056,"SoundDuration":62056,"Delta":749501696},{"NoteNumber":67,"Velocity":43,"Duration":62056,"SoundDuration":62056,"Delta":749501696},{"NoteNumber":41,"Velocity":67,"Duration":271598,"SoundDuration":271598,"Delta":749563753},{"NoteNumber":48,"Velocity":67,"Duration":262733,"SoundDuration":262733,"Delta":749572618},{"NoteNumber":57,"Velocity":72,"Duration":253868,"SoundDuration":253868,"Delta":749581484},{"NoteNumber":65,"Velocity":77,"Duration":245003,"SoundDuration":245003,"Delta":749590349},{"NoteNumber":72,"Velocity":81,"Duration":236137,"SoundDuration":236137,"Delta":749599214},{"NoteNumber":81,"Velocity":94,"Duration":227272,"SoundDuration":227272,"Delta":749608079},{"NoteNumber":64,"Velocity":75,"Duration":173410,"SoundDuration":173410,"Delta":749835352},{"NoteNumber":76,"Velocity":75,"Duration":173410,"SoundDuration":173410,"Delta":749835352},{"NoteNumber":52,"Velocity":70,"Duration":173410,"SoundDuration":173410,"Delta":749835352},{"NoteNumber":65,"Velocity":71,"Duration":182926,"SoundDuration":182926,"Delta":750008762},{"NoteNumber":77,"Velocity":71,"Duration":182926,"SoundDuration":182926,"Delta":750008762},{"NoteNumber":53,"Velocity":67,"Duration":182926,"SoundDuration":182926,"Delta":750008762},{"NoteNumber":76,"Velocity":88,"Duration":178571,"SoundDuration":178571,"Delta":750191689},{"NoteNumber":88,"Velocity":88,"Duration":178571,"SoundDuration":178571,"Delta":750191689},{"NoteNumber":64,"Velocity":76,"Duration":178571,"SoundDuration":178571,"Delta":750191689},{"NoteNumber":77,"Velocity":83,"Duration":206896,"SoundDuration":206896,"Delta":750370261},{"NoteNumber":89,"Velocity":83,"Duration":206896,"SoundDuration":206896,"Delta":750370261},{"NoteNumber":65,"Velocity":76,"Duration":206896,"SoundDuration":206896,"Delta":750370261},{"NoteNumber":100,"Velocity":102,"Duration":197706,"SoundDuration":197706,"Delta":750577157},{"NoteNumber":88,"Velocity":102,"Duration":197706,"SoundDuration":197706,"Delta":750577157},{"NoteNumber":76,"Velocity":84,"Duration":197706,"SoundDuration":197706,"Delta":750577157},{"NoteNumber":89,"Velocity":98,"Duration":441176,"SoundDuration":441176,"Delta":750774864},{"NoteNumber":101,"Velocity":98,"Duration":441176,"SoundDuration":441176,"Delta":750774864},{"NoteNumber":77,"Velocity":83,"Duration":441176,"SoundDuration":441176,"Delta":750774864},{"NoteNumber":53,"Velocity":58,"Duration":65251,"SoundDuration":65251,"Delta":751216040},{"NoteNumber":41,"Velocity":51,"Duration":65251,"SoundDuration":65251,"Delta":751216040},{"NoteNumber":54,"Velocity":59,"Duration":61241,"SoundDuration":61241,"Delta":751281291},{"NoteNumber":42,"Velocity":52,"Duration":61241,"SoundDuration":61241,"Delta":751281291},{"NoteNumber":55,"Velocity":59,"Duration":61185,"SoundDuration":61185,"Delta":751343372},{"NoteNumber":43,"Velocity":53,"Duration":61185,"SoundDuration":61185,"Delta":751343372},{"NoteNumber":56,"Velocity":60,"Duration":60833,"SoundDuration":60833,"Delta":751404557},{"NoteNumber":44,"Velocity":54,"Duration":60833,"SoundDuration":60833,"Delta":751404557},{"NoteNumber":57,"Velocity":61,"Duration":60833,"SoundDuration":60833,"Delta":751465391},{"NoteNumber":45,"Velocity":55,"Duration":60833,"SoundDuration":60833,"Delta":751465391},{"NoteNumber":58,"Velocity":61,"Duration":60562,"SoundDuration":60562,"Delta":751526224},{"NoteNumber":46,"Velocity":56,"Duration":60562,"SoundDuration":60562,"Delta":751526224},{"NoteNumber":59,"Velocity":62,"Duration":60430,"SoundDuration":60430,"Delta":751586787},{"NoteNumber":47,"Velocity":57,"Duration":60430,"SoundDuration":60430,"Delta":751586787},{"NoteNumber":60,"Velocity":63,"Duration":60343,"SoundDuration":60343,"Delta":751648045},{"NoteNumber":48,"Velocity":57,"Duration":60343,"SoundDuration":60343,"Delta":751648045},{"NoteNumber":61,"Velocity":64,"Duration":60032,"SoundDuration":60032,"Delta":751708388},{"NoteNumber":49,"Velocity":58,"Duration":60032,"SoundDuration":60032,"Delta":751708388},{"NoteNumber":62,"Velocity":64,"Duration":60032,"SoundDuration":60032,"Delta":751768421},{"NoteNumber":50,"Velocity":59,"Duration":60032,"SoundDuration":60032,"Delta":751768421},{"NoteNumber":63,"Velocity":65,"Duration":59737,"SoundDuration":59737,"Delta":751828454},{"NoteNumber":51,"Velocity":60,"Duration":59737,"SoundDuration":59737,"Delta":751828454},{"NoteNumber":64,"Velocity":66,"Duration":59640,"SoundDuration":59640,"Delta":751888192},{"NoteNumber":52,"Velocity":61,"Duration":59640,"SoundDuration":59640,"Delta":751888192},{"NoteNumber":65,"Velocity":66,"Duration":66728,"SoundDuration":66728,"Delta":751947832},{"NoteNumber":53,"Velocity":62,"Duration":66728,"SoundDuration":66728,"Delta":751947832},{"NoteNumber":66,"Velocity":99,"Duration":1490683,"SoundDuration":1490683,"Delta":752014560},{"NoteNumber":54,"Velocity":89,"Duration":1490683,"SoundDuration":1490683,"Delta":752014560},{"NoteNumber":42,"Velocity":74,"Duration":1490683,"SoundDuration":1490683,"Delta":752014560},{"NoteNumber":57,"Velocity":99,"Duration":1490683,"SoundDuration":1490683,"Delta":753505244},{"NoteNumber":45,"Velocity":81,"Duration":1490683,"SoundDuration":1490683,"Delta":753505244},{"NoteNumber":33,"Velocity":69,"Duration":1490683,"SoundDuration":1490683,"Delta":753505244},{"NoteNumber":61,"Velocity":99,"Duration":1490683,"SoundDuration":1490683,"Delta":754995928},{"NoteNumber":49,"Velocity":81,"Duration":1490683,"SoundDuration":1490683,"Delta":754995928},{"NoteNumber":37,"Velocity":69,"Duration":1490683,"SoundDuration":1490683,"Delta":754995928},{"NoteNumber":52,"Velocity":96,"Duration":1490683,"SoundDuration":1490683,"Delta":756486612},{"NoteNumber":40,"Velocity":80,"Duration":1490683,"SoundDuration":1490683,"Delta":756486612},{"NoteNumber":28,"Velocity":68,"Duration":1490683,"SoundDuration":1490683,"Delta":756486612},{"NoteNumber":53,"Velocity":40,"Duration":186335,"SoundDuration":186335,"Delta":757977296},{"NoteNumber":41,"Velocity":74,"Duration":372671,"SoundDuration":372671,"Delta":757977296},{"NoteNumber":29,"Velocity":62,"Duration":372671,"SoundDuration":372671,"Delta":757977296},{"NoteNumber":54,"Velocity":33,"Duration":186335,"SoundDuration":186335,"Delta":758163632},{"NoteNumber":53,"Velocity":40,"Duration":176470,"SoundDuration":176470,"Delta":758349967},{"NoteNumber":54,"Velocity":33,"Duration":176470,"SoundDuration":176470,"Delta":758526438},{"NoteNumber":53,"Velocity":40,"Duration":174418,"SoundDuration":174418,"Delta":758702908},{"NoteNumber":65,"Velocity":54,"Duration":348837,"SoundDuration":348837,"Delta":758702908},{"NoteNumber":57,"Velocity":45,"Duration":348837,"SoundDuration":348837,"Delta":758702908},{"NoteNumber":60,"Velocity":45,"Duration":348837,"SoundDuration":348837,"Delta":758702908},{"NoteNumber":58,"Velocity":34,"Duration":174418,"SoundDuration":174418,"Delta":758877327},{"NoteNumber":57,"Velocity":34,"Duration":60160,"SoundDuration":60160,"Delta":759051745},{"NoteNumber":65,"Velocity":49,"Duration":60160,"SoundDuration":60160,"Delta":759051745},{"NoteNumber":57,"Velocity":41,"Duration":160428,"SoundDuration":160428,"Delta":759051745},{"NoteNumber":60,"Velocity":41,"Duration":60160,"SoundDuration":60160,"Delta":759051745},{"NoteNumber":54,"Velocity":34,"Duration":168539,"SoundDuration":168539,"Delta":759212173},{"NoteNumber":65,"Velocity":49,"Duration":63202,"SoundDuration":63202,"Delta":759212173},{"NoteNumber":57,"Velocity":41,"Duration":63202,"SoundDuration":63202,"Delta":759212173},{"NoteNumber":60,"Velocity":41,"Duration":63202,"SoundDuration":63202,"Delta":759212173},{"NoteNumber":53,"Velocity":40,"Duration":157894,"SoundDuration":157894,"Delta":759380713},{"NoteNumber":70,"Velocity":54,"Duration":59210,"SoundDuration":59210,"Delta":759380713},{"NoteNumber":61,"Velocity":45,"Duration":59210,"SoundDuration":59210,"Delta":759380713},{"NoteNumber":65,"Velocity":45,"Duration":59210,"SoundDuration":59210,"Delta":759380713},{"NoteNumber":54,"Velocity":36,"Duration":175438,"SoundDuration":175438,"Delta":759538607},{"NoteNumber":53,"Velocity":40,"Duration":173410,"SoundDuration":173410,"Delta":759714046},{"NoteNumber":70,"Velocity":49,"Duration":65028,"SoundDuration":65028,"Delta":759714046},{"NoteNumber":61,"Velocity":41,"Duration":65028,"SoundDuration":65028,"Delta":759714046},{"NoteNumber":65,"Velocity":41,"Duration":65028,"SoundDuration":65028,"Delta":759714046},{"NoteNumber":54,"Velocity":36,"Duration":173410,"SoundDuration":173410,"Delta":759887456},{"NoteNumber":53,"Velocity":40,"Duration":169491,"SoundDuration":169491,"Delta":760060867},{"NoteNumber":70,"Velocity":53,"Duration":338982,"SoundDuration":338982,"Delta":760060867},{"NoteNumber":61,"Velocity":45,"Duration":338982,"SoundDuration":338982,"Delta":760060867},{"NoteNumber":65,"Velocity":45,"Duration":338982,"SoundDuration":338982,"Delta":760060867},{"NoteNumber":58,"Velocity":35,"Duration":169491,"SoundDuration":169491,"Delta":760230358},{"NoteNumber":57,"Velocity":35,"Duration":154638,"SoundDuration":154638,"Delta":760399850},{"NoteNumber":73,"Velocity":49,"Duration":57989,"SoundDuration":57989,"Delta":760399850},{"NoteNumber":61,"Velocity":41,"Duration":57989,"SoundDuration":57989,"Delta":760399850},{"NoteNumber":65,"Velocity":41,"Duration":57989,"SoundDuration":57989,"Delta":760399850},{"NoteNumber":54,"Velocity":35,"Duration":169491,"SoundDuration":169491,"Delta":760554489},{"NoteNumber":70,"Velocity":49,"Duration":63559,"SoundDuration":63559,"Delta":760554489},{"NoteNumber":61,"Velocity":41,"Duration":63559,"SoundDuration":63559,"Delta":760554489},{"NoteNumber":65,"Velocity":41,"Duration":63559,"SoundDuration":63559,"Delta":760554489},{"NoteNumber":53,"Velocity":40,"Duration":156250,"SoundDuration":156250,"Delta":760723980},{"NoteNumber":69,"Velocity":53,"Duration":58593,"SoundDuration":58593,"Delta":760723980},{"NoteNumber":60,"Velocity":45,"Duration":58593,"SoundDuration":58593,"Delta":760723980},{"NoteNumber":65,"Velocity":45,"Duration":58593,"SoundDuration":58593,"Delta":760723980},{"NoteNumber":54,"Velocity":35,"Duration":176470,"SoundDuration":176470,"Delta":760880230},{"NoteNumber":53,"Velocity":40,"Duration":173410,"SoundDuration":173410,"Delta":761056701},{"NoteNumber":65,"Velocity":49,"Duration":65028,"SoundDuration":65028,"Delta":761056701},{"NoteNumber":57,"Velocity":41,"Duration":65028,"SoundDuration":65028,"Delta":761056701},{"NoteNumber":60,"Velocity":41,"Duration":65028,"SoundDuration":65028,"Delta":761056701},{"NoteNumber":54,"Velocity":35,"Duration":173410,"SoundDuration":173410,"Delta":761230111},{"NoteNumber":53,"Velocity":40,"Duration":168539,"SoundDuration":168539,"Delta":761403522},{"NoteNumber":77,"Velocity":54,"Duration":337079,"SoundDuration":337079,"Delta":761403522},{"NoteNumber":69,"Velocity":45,"Duration":337079,"SoundDuration":337079,"Delta":761403522},{"NoteNumber":72,"Velocity":45,"Duration":337079,"SoundDuration":337079,"Delta":761403522},{"NoteNumber":58,"Velocity":34,"Duration":168539,"SoundDuration":168539,"Delta":761572061},{"NoteNumber":57,"Velocity":34,"Duration":154638,"SoundDuration":154638,"Delta":761740601},{"NoteNumber":77,"Velocity":49,"Duration":57989,"SoundDuration":57989,"Delta":761740601},{"NoteNumber":69,"Velocity":41,"Duration":57989,"SoundDuration":57989,"Delta":761740601},{"NoteNumber":72,"Velocity":41,"Duration":57989,"SoundDuration":57989,"Delta":761740601},{"NoteNumber":54,"Velocity":34,"Duration":167597,"SoundDuration":167597,"Delta":761895240},{"NoteNumber":77,"Velocity":49,"Duration":62849,"SoundDuration":62849,"Delta":761895240},{"NoteNumber":69,"Velocity":41,"Duration":62849,"SoundDuration":62849,"Delta":761895240},{"NoteNumber":72,"Velocity":41,"Duration":62849,"SoundDuration":62849,"Delta":761895240},{"NoteNumber":53,"Velocity":40,"Duration":157067,"SoundDuration":157067,"Delta":762062838},{"NoteNumber":82,"Velocity":54,"Duration":58900,"SoundDuration":58900,"Delta":762062838},{"NoteNumber":73,"Velocity":45,"Duration":58900,"SoundDuration":58900,"Delta":762062838},{"NoteNumber":77,"Velocity":45,"Duration":58900,"SoundDuration":58900,"Delta":762062838},{"NoteNumber":54,"Velocity":36,"Duration":177514,"SoundDuration":177514,"Delta":762219906},{"NoteNumber":53,"Velocity":40,"Duration":173410,"SoundDuration":173410,"Delta":762397421},{"NoteNumber":82,"Velocity":49,"Duration":65028,"SoundDuration":65028,"Delta":762397421},{"NoteNumber":73,"Velocity":41,"Duration":65028,"SoundDuration":65028,"Delta":762397421},{"NoteNumber":77,"Velocity":41,"Duration":65028,"SoundDuration":65028,"Delta":762397421},{"NoteNumber":54,"Velocity":36,"Duration":173410,"SoundDuration":173410,"Delta":762570831},{"NoteNumber":53,"Velocity":40,"Duration":167597,"SoundDuration":167597,"Delta":762744242},{"NoteNumber":82,"Velocity":53,"Duration":335195,"SoundDuration":335195,"Delta":762744242},{"NoteNumber":73,"Velocity":45,"Duration":335195,"SoundDuration":335195,"Delta":762744242},{"NoteNumber":77,"Velocity":45,"Duration":335195,"SoundDuration":335195,"Delta":762744242},{"NoteNumber":58,"Velocity":35,"Duration":167597,"SoundDuration":167597,"Delta":762911840},{"NoteNumber":57,"Velocity":35,"Duration":156250,"SoundDuration":156250,"Delta":763079438},{"NoteNumber":85,"Velocity":49,"Duration":58593,"SoundDuration":58593,"Delta":763079438},{"NoteNumber":73,"Velocity":41,"Duration":58593,"SoundDuration":58593,"Delta":763079438},{"NoteNumber":77,"Velocity":41,"Duration":58593,"SoundDuration":58593,"Delta":763079438},{"NoteNumber":54,"Velocity":35,"Duration":170454,"SoundDuration":170454,"Delta":763235688},{"NoteNumber":82,"Velocity":49,"Duration":63920,"SoundDuration":63920,"Delta":763235688},{"NoteNumber":73,"Velocity":41,"Duration":63920,"SoundDuration":63920,"Delta":763235688},{"NoteNumber":77,"Velocity":41,"Duration":63920,"SoundDuration":63920,"Delta":763235688},{"NoteNumber":53,"Velocity":40,"Duration":169491,"SoundDuration":169491,"Delta":763406142},{"NoteNumber":81,"Velocity":54,"Duration":338982,"SoundDuration":338982,"Delta":763406142},{"NoteNumber":72,"Velocity":45,"Duration":338982,"SoundDuration":338982,"Delta":763406142},{"NoteNumber":77,"Velocity":45,"Duration":338982,"SoundDuration":338982,"Delta":763406142},{"NoteNumber":54,"Velocity":36,"Duration":169491,"SoundDuration":169491,"Delta":763575634},{"NoteNumber":53,"Velocity":40,"Duration":163934,"SoundDuration":163934,"Delta":763745125},{"NoteNumber":84,"Velocity":57,"Duration":327868,"SoundDuration":327868,"Delta":763745125},{"NoteNumber":69,"Velocity":48,"Duration":327868,"SoundDuration":327868,"Delta":763745125},{"NoteNumber":77,"Velocity":48,"Duration":327868,"SoundDuration":327868,"Delta":763745125},{"NoteNumber":54,"Velocity":36,"Duration":163934,"SoundDuration":163934,"Delta":763909060},{"NoteNumber":53,"Velocity":43,"Duration":163934,"SoundDuration":163934,"Delta":764072994},{"NoteNumber":85,"Velocity":60,"Duration":327869,"SoundDuration":327869,"Delta":764072994},{"NoteNumber":70,"Velocity":51,"Duration":327869,"SoundDuration":327869,"Delta":764072994},{"NoteNumber":77,"Velocity":51,"Duration":327869,"SoundDuration":327869,"Delta":764072994},{"NoteNumber":61,"Velocity":45,"Duration":163934,"SoundDuration":163934,"Delta":764236929},{"NoteNumber":58,"Velocity":42,"Duration":168539,"SoundDuration":168539,"Delta":764400863},{"NoteNumber":82,"Velocity":55,"Duration":337079,"SoundDuration":337079,"Delta":764400863},{"NoteNumber":73,"Velocity":46,"Duration":337079,"SoundDuration":337079,"Delta":764400863},{"NoteNumber":77,"Velocity":46,"Duration":337079,"SoundDuration":337079,"Delta":764400863},{"NoteNumber":54,"Velocity":42,"Duration":168539,"SoundDuration":168539,"Delta":764569403},{"NoteNumber":53,"Velocity":45,"Duration":168539,"SoundDuration":168539,"Delta":764737942},{"NoteNumber":81,"Velocity":59,"Duration":337079,"SoundDuration":337079,"Delta":764737942},{"NoteNumber":72,"Velocity":50,"Duration":337079,"SoundDuration":337079,"Delta":764737942},{"NoteNumber":77,"Velocity":50,"Duration":337079,"SoundDuration":337079,"Delta":764737942},{"NoteNumber":54,"Velocity":37,"Duration":168539,"SoundDuration":168539,"Delta":764906482},{"NoteNumber":53,"Velocity":44,"Duration":163043,"SoundDuration":163043,"Delta":765075021},{"NoteNumber":84,"Velocity":63,"Duration":326087,"SoundDuration":326087,"Delta":765075021},{"NoteNumber":69,"Velocity":53,"Duration":326087,"SoundDuration":326087,"Delta":765075021},{"NoteNumber":77,"Velocity":53,"Duration":326087,"SoundDuration":326087,"Delta":765075021},{"NoteNumber":54,"Velocity":38,"Duration":163043,"SoundDuration":163043,"Delta":765238065},{"NoteNumber":53,"Velocity":42,"Duration":163043,"SoundDuration":163043,"Delta":765401108},{"NoteNumber":85,"Velocity":67,"Duration":326086,"SoundDuration":326086,"Delta":765401108},{"NoteNumber":70,"Velocity":56,"Duration":326086,"SoundDuration":326086,"Delta":765401108},{"NoteNumber":77,"Velocity":56,"Duration":326086,"SoundDuration":326086,"Delta":765401108},{"NoteNumber":61,"Velocity":47,"Duration":163043,"SoundDuration":163043,"Delta":765564152},{"NoteNumber":58,"Velocity":43,"Duration":169491,"SoundDuration":169491,"Delta":765727195},{"NoteNumber":82,"Velocity":63,"Duration":338982,"SoundDuration":338982,"Delta":765727195},{"NoteNumber":73,"Velocity":53,"Duration":338982,"SoundDuration":338982,"Delta":765727195},{"NoteNumber":77,"Velocity":53,"Duration":338982,"SoundDuration":338982,"Delta":765727195},{"NoteNumber":54,"Velocity":43,"Duration":169491,"SoundDuration":169491,"Delta":765896687},{"NoteNumber":53,"Velocity":43,"Duration":169055,"SoundDuration":169055,"Delta":766066178},{"NoteNumber":72,"Velocity":53,"Duration":665874,"SoundDuration":665874,"Delta":766066178},{"NoteNumber":77,"Velocity":53,"Duration":665874,"SoundDuration":665874,"Delta":766066178},{"NoteNumber":81,"Velocity":63,"Duration":665874,"SoundDuration":665874,"Delta":766066178},{"NoteNumber":54,"Velocity":45,"Duration":167287,"SoundDuration":167287,"Delta":766235234},{"NoteNumber":57,"Velocity":47,"Duration":165595,"SoundDuration":165595,"Delta":766402521},{"NoteNumber":58,"Velocity":49,"Duration":163936,"SoundDuration":163936,"Delta":766568117},{"NoteNumber":60,"Velocity":53,"Duration":162310,"SoundDuration":162310,"Delta":766732053},{"NoteNumber":61,"Velocity":55,"Duration":160644,"SoundDuration":160644,"Delta":766894363},{"NoteNumber":64,"Velocity":57,"Duration":159574,"SoundDuration":159574,"Delta":767055008},{"NoteNumber":65,"Velocity":59,"Duration":172310,"SoundDuration":172310,"Delta":767214583},{"NoteNumber":65,"Velocity":61,"Duration":159752,"SoundDuration":159752,"Delta":767393542},{"NoteNumber":64,"Velocity":61,"Duration":160751,"SoundDuration":160751,"Delta":767553294},{"NoteNumber":61,"Velocity":59,"Duration":161762,"SoundDuration":161762,"Delta":767714046},{"NoteNumber":60,"Velocity":58,"Duration":162786,"SoundDuration":162786,"Delta":767875808},{"NoteNumber":58,"Velocity":56,"Duration":163748,"SoundDuration":163748,"Delta":768038595},{"NoteNumber":57,"Velocity":54,"Duration":164911,"SoundDuration":164911,"Delta":768202344},{"NoteNumber":65,"Velocity":67,"Duration":353404,"SoundDuration":353404,"Delta":768367255},{"NoteNumber":63,"Velocity":53,"Duration":353404,"SoundDuration":353404,"Delta":768367255},{"NoteNumber":54,"Velocity":53,"Duration":166014,"SoundDuration":166014,"Delta":768367255},{"NoteNumber":33,"Velocity":48,"Duration":353404,"SoundDuration":353404,"Delta":768367255},{"NoteNumber":36,"Velocity":53,"Duration":353404,"SoundDuration":353404,"Delta":768367255},{"NoteNumber":42,"Velocity":45,"Duration":166014,"SoundDuration":166014,"Delta":768367255},{"NoteNumber":53,"Velocity":52,"Duration":187389,"SoundDuration":187389,"Delta":768533269},{"NoteNumber":41,"Velocity":44,"Duration":187389,"SoundDuration":187389,"Delta":768533269},{"NoteNumber":61,"Velocity":53,"Duration":679682,"SoundDuration":679682,"Delta":768720659},{"NoteNumber":65,"Velocity":64,"Duration":1008312,"SoundDuration":1008312,"Delta":768720659},{"NoteNumber":53,"Velocity":43,"Duration":172829,"SoundDuration":172829,"Delta":768720659},{"NoteNumber":34,"Velocity":46,"Duration":679682,"SoundDuration":679682,"Delta":768720659},{"NoteNumber":37,"Velocity":53,"Duration":679682,"SoundDuration":679682,"Delta":768720659},{"NoteNumber":41,"Velocity":36,"Duration":172829,"SoundDuration":172829,"Delta":768720659},{"NoteNumber":54,"Velocity":45,"Duration":170860,"SoundDuration":170860,"Delta":768893489},{"NoteNumber":42,"Velocity":38,"Duration":170860,"SoundDuration":170860,"Delta":768893489},{"NoteNumber":57,"Velocity":47,"Duration":168936,"SoundDuration":168936,"Delta":769064350},{"NoteNumber":45,"Velocity":39,"Duration":168936,"SoundDuration":168936,"Delta":769064350},{"NoteNumber":58,"Velocity":49,"Duration":167055,"SoundDuration":167055,"Delta":769233286},{"NoteNumber":46,"Velocity":41,"Duration":167055,"SoundDuration":167055,"Delta":769233286},{"NoteNumber":60,"Velocity":53,"Duration":165215,"SoundDuration":165215,"Delta":769400341},{"NoteNumber":48,"Velocity":45,"Duration":165215,"SoundDuration":165215,"Delta":769400341},{"NoteNumber":61,"Velocity":55,"Duration":163415,"SoundDuration":163415,"Delta":769565556},{"NoteNumber":49,"Velocity":46,"Duration":163415,"SoundDuration":163415,"Delta":769565556},{"NoteNumber":64,"Velocity":57,"Duration":161582,"SoundDuration":161582,"Delta":769728971},{"NoteNumber":52,"Velocity":48,"Duration":161582,"SoundDuration":161582,"Delta":769728971},{"NoteNumber":65,"Velocity":67,"Duration":173751,"SoundDuration":173751,"Delta":769890554},{"NoteNumber":53,"Velocity":56,"Duration":173751,"SoundDuration":173751,"Delta":769890554},{"NoteNumber":65,"Velocity":68,"Duration":659831,"SoundDuration":659831,"Delta":770072808},{"NoteNumber":53,"Velocity":57,"Duration":659831,"SoundDuration":659831,"Delta":770072808},{"NoteNumber":64,"Velocity":61,"Duration":163528,"SoundDuration":163528,"Delta":770234864},{"NoteNumber":52,"Velocity":51,"Duration":163528,"SoundDuration":163528,"Delta":770234864},{"NoteNumber":61,"Velocity":59,"Duration":165901,"SoundDuration":165901,"Delta":770398393},{"NoteNumber":49,"Velocity":50,"Duration":165901,"SoundDuration":165901,"Delta":770398393},{"NoteNumber":60,"Velocity":58,"Duration":168345,"SoundDuration":168345,"Delta":770564294},{"NoteNumber":48,"Velocity":49,"Duration":168345,"SoundDuration":168345,"Delta":770564294},{"NoteNumber":63,"Velocity":62,"Duration":695502,"SoundDuration":695502,"Delta":770732640},{"NoteNumber":65,"Velocity":68,"Duration":695502,"SoundDuration":695502,"Delta":770732640},{"NoteNumber":58,"Velocity":56,"Duration":170821,"SoundDuration":170821,"Delta":770732640},{"NoteNumber":36,"Velocity":45,"Duration":695502,"SoundDuration":695502,"Delta":770732640},{"NoteNumber":39,"Velocity":53,"Duration":695502,"SoundDuration":695502,"Delta":770732640},{"NoteNumber":46,"Velocity":47,"Duration":170821,"SoundDuration":170821,"Delta":770732640},{"NoteNumber":57,"Velocity":54,"Duration":173413,"SoundDuration":173413,"Delta":770903462},{"NoteNumber":45,"Velocity":45,"Duration":173413,"SoundDuration":173413,"Delta":770903462},{"NoteNumber":54,"Velocity":53,"Duration":175395,"SoundDuration":175395,"Delta":771076876},{"NoteNumber":42,"Velocity":45,"Duration":175395,"SoundDuration":175395,"Delta":771076876},{"NoteNumber":53,"Velocity":52,"Duration":175871,"SoundDuration":175871,"Delta":771252272},{"NoteNumber":41,"Velocity":44,"Duration":175871,"SoundDuration":175871,"Delta":771252272},{"NoteNumber":61,"Velocity":53,"Duration":698509,"SoundDuration":698509,"Delta":771428143},{"NoteNumber":65,"Velocity":64,"Duration":1038824,"SoundDuration":1038824,"Delta":771428143},{"NoteNumber":53,"Velocity":43,"Duration":176949,"SoundDuration":176949,"Delta":771428143},{"NoteNumber":37,"Velocity":53,"Duration":698509,"SoundDuration":698509,"Delta":771428143},{"NoteNumber":41,"Velocity":36,"Duration":176949,"SoundDuration":176949,"Delta":771428143},{"NoteNumber":54,"Velocity":45,"Duration":175354,"SoundDuration":175354,"Delta":771605092},{"NoteNumber":42,"Velocity":38,"Duration":175354,"SoundDuration":175354,"Delta":771605092},{"NoteNumber":57,"Velocity":47,"Duration":173872,"SoundDuration":173872,"Delta":771780447},{"NoteNumber":45,"Velocity":39,"Duration":173872,"SoundDuration":173872,"Delta":771780447},{"NoteNumber":58,"Velocity":49,"Duration":172333,"SoundDuration":172333,"Delta":771954319},{"NoteNumber":46,"Velocity":41,"Duration":172333,"SoundDuration":172333,"Delta":771954319},{"NoteNumber":60,"Velocity":53,"Duration":170900,"SoundDuration":170900,"Delta":772126653},{"NoteNumber":48,"Velocity":45,"Duration":170900,"SoundDuration":170900,"Delta":772126653},{"NoteNumber":61,"Velocity":55,"Duration":169413,"SoundDuration":169413,"Delta":772297554},{"NoteNumber":49,"Velocity":46,"Duration":169413,"SoundDuration":169413,"Delta":772297554},{"NoteNumber":64,"Velocity":57,"Duration":168029,"SoundDuration":168029,"Delta":772466967},{"NoteNumber":52,"Velocity":48,"Duration":168029,"SoundDuration":168029,"Delta":772466967},{"NoteNumber":65,"Velocity":67,"Duration":179757,"SoundDuration":179757,"Delta":772634997},{"NoteNumber":53,"Velocity":56,"Duration":179757,"SoundDuration":179757,"Delta":772634997},{"NoteNumber":65,"Velocity":68,"Duration":668976,"SoundDuration":668976,"Delta":772814754},{"NoteNumber":53,"Velocity":57,"Duration":668976,"SoundDuration":668976,"Delta":772814754},{"NoteNumber":64,"Velocity":61,"Duration":165679,"SoundDuration":165679,"Delta":772981894},{"NoteNumber":52,"Velocity":51,"Duration":165679,"SoundDuration":165679,"Delta":772981894},{"NoteNumber":61,"Velocity":59,"Duration":167217,"SoundDuration":167217,"Delta":773147573},{"NoteNumber":49,"Velocity":50,"Duration":167217,"SoundDuration":167217,"Delta":773147573},{"NoteNumber":60,"Velocity":58,"Duration":168940,"SoundDuration":168940,"Delta":773314791},{"NoteNumber":48,"Velocity":49,"Duration":168940,"SoundDuration":168940,"Delta":773314791},{"NoteNumber":53,"Velocity":62,"Duration":693015,"SoundDuration":693015,"Delta":773483731},{"NoteNumber":65,"Velocity":68,"Duration":693015,"SoundDuration":693015,"Delta":773483731},{"NoteNumber":59,"Velocity":56,"Duration":693015,"SoundDuration":693015,"Delta":773483731},{"NoteNumber":38,"Velocity":45,"Duration":693015,"SoundDuration":693015,"Delta":773483731},{"NoteNumber":44,"Velocity":53,"Duration":693015,"SoundDuration":693015,"Delta":773483731},{"NoteNumber":47,"Velocity":58,"Duration":693015,"SoundDuration":693015,"Delta":773483731},{"NoteNumber":56,"Velocity":54,"Duration":172176,"SoundDuration":172176,"Delta":773654276},{"NoteNumber":41,"Velocity":45,"Duration":172176,"SoundDuration":172176,"Delta":773654276},{"NoteNumber":55,"Velocity":54,"Duration":173918,"SoundDuration":173918,"Delta":773826453},{"NoteNumber":42,"Velocity":46,"Duration":173918,"SoundDuration":173918,"Delta":773826453},{"NoteNumber":54,"Velocity":54,"Duration":176374,"SoundDuration":176374,"Delta":774000372},{"NoteNumber":43,"Velocity":45,"Duration":176374,"SoundDuration":176374,"Delta":774000372},{"NoteNumber":53,"Velocity":65,"Duration":674440,"SoundDuration":674440,"Delta":774176746},{"NoteNumber":65,"Velocity":72,"Duration":674440,"SoundDuration":674440,"Delta":774176746},{"NoteNumber":59,"Velocity":59,"Duration":674440,"SoundDuration":674440,"Delta":774176746},{"NoteNumber":37,"Velocity":47,"Duration":674440,"SoundDuration":674440,"Delta":774176746},{"NoteNumber":44,"Velocity":56,"Duration":674440,"SoundDuration":674440,"Delta":774176746},{"NoteNumber":47,"Velocity":58,"Duration":674440,"SoundDuration":674440,"Delta":774176746},{"NoteNumber":56,"Velocity":58,"Duration":169491,"SoundDuration":169491,"Delta":774346238},{"NoteNumber":41,"Velocity":48,"Duration":169491,"SoundDuration":169491,"Delta":774346238},{"NoteNumber":55,"Velocity":57,"Duration":163043,"SoundDuration":163043,"Delta":774515729},{"NoteNumber":42,"Velocity":49,"Duration":163043,"SoundDuration":163043,"Delta":774515729},{"NoteNumber":54,"Velocity":57,"Duration":172414,"SoundDuration":172414,"Delta":774678773},{"NoteNumber":43,"Velocity":48,"Duration":172414,"SoundDuration":172414,"Delta":774678773},{"NoteNumber":53,"Velocity":70,"Duration":645162,"SoundDuration":645162,"Delta":774851187},{"NoteNumber":65,"Velocity":76,"Duration":645162,"SoundDuration":645162,"Delta":774851187},{"NoteNumber":60,"Velocity":63,"Duration":645162,"SoundDuration":645162,"Delta":774851187},{"NoteNumber":36,"Velocity":50,"Duration":645162,"SoundDuration":645162,"Delta":774851187},{"NoteNumber":44,"Velocity":59,"Duration":645162,"SoundDuration":645162,"Delta":774851187},{"NoteNumber":48,"Velocity":63,"Duration":645162,"SoundDuration":645162,"Delta":774851187},{"NoteNumber":56,"Velocity":61,"Duration":161290,"SoundDuration":161290,"Delta":775012477},{"NoteNumber":41,"Velocity":51,"Duration":161290,"SoundDuration":161290,"Delta":775012477},{"NoteNumber":55,"Velocity":61,"Duration":161290,"SoundDuration":161290,"Delta":775173768},{"NoteNumber":42,"Velocity":52,"Duration":161290,"SoundDuration":161290,"Delta":775173768},{"NoteNumber":54,"Velocity":60,"Duration":161290,"SoundDuration":161290,"Delta":775335058},{"NoteNumber":43,"Velocity":51,"Duration":161290,"SoundDuration":161290,"Delta":775335058},{"NoteNumber":53,"Velocity":73,"Duration":655738,"SoundDuration":655738,"Delta":775496349},{"NoteNumber":65,"Velocity":80,"Duration":989071,"SoundDuration":989071,"Delta":775496349},{"NoteNumber":62,"Velocity":66,"Duration":989071,"SoundDuration":989071,"Delta":775496349},{"NoteNumber":38,"Velocity":53,"Duration":655738,"SoundDuration":655738,"Delta":775496349},{"NoteNumber":44,"Velocity":52,"Duration":655738,"SoundDuration":655738,"Delta":775496349},{"NoteNumber":50,"Velocity":67,"Duration":655738,"SoundDuration":655738,"Delta":775496349},{"NoteNumber":56,"Velocity":65,"Duration":163934,"SoundDuration":163934,"Delta":775660283},{"NoteNumber":41,"Velocity":54,"Duration":163934,"SoundDuration":163934,"Delta":775660283},{"NoteNumber":55,"Velocity":64,"Duration":163934,"SoundDuration":163934,"Delta":775824218},{"NoteNumber":42,"Velocity":54,"Duration":163934,"SoundDuration":163934,"Delta":775824218},{"NoteNumber":54,"Velocity":64,"Duration":163934,"SoundDuration":163934,"Delta":775988152},{"NoteNumber":43,"Velocity":54,"Duration":163934,"SoundDuration":163934,"Delta":775988152},{"NoteNumber":53,"Velocity":78,"Duration":166666,"SoundDuration":166666,"Delta":776152087},{"NoteNumber":34,"Velocity":59,"Duration":676190,"SoundDuration":676190,"Delta":776152087},{"NoteNumber":44,"Velocity":59,"Duration":331944,"SoundDuration":331944,"Delta":776152087},{"NoteNumber":50,"Velocity":70,"Duration":504761,"SoundDuration":504761,"Delta":776152087},{"NoteNumber":56,"Velocity":78,"Duration":166666,"SoundDuration":166666,"Delta":776318753},{"NoteNumber":41,"Velocity":57,"Duration":166666,"SoundDuration":166666,"Delta":776318753},{"NoteNumber":62,"Velocity":77,"Duration":342856,"SoundDuration":342856,"Delta":776485420},{"NoteNumber":64,"Velocity":87,"Duration":342856,"SoundDuration":342856,"Delta":776485420},{"NoteNumber":52,"Velocity":79,"Duration":171428,"SoundDuration":171428,"Delta":776485420},{"NoteNumber":50,"Velocity":58,"Duration":342856,"SoundDuration":342856,"Delta":776485420},{"NoteNumber":44,"Velocity":58,"Duration":342856,"SoundDuration":342856,"Delta":776485420},{"NoteNumber":56,"Velocity":80,"Duration":171428,"SoundDuration":171428,"Delta":776656848},{"NoteNumber":40,"Velocity":58,"Duration":139285,"SoundDuration":139285,"Delta":776656848},{"NoteNumber":33,"Velocity":60,"Duration":404813,"SoundDuration":404813,"Delta":776796134},{"NoteNumber":40,"Velocity":64,"Duration":394099,"SoundDuration":394099,"Delta":776806848},{"NoteNumber":45,"Velocity":69,"Duration":383385,"SoundDuration":383385,"Delta":776817562},{"NoteNumber":57,"Velocity":40,"Duration":186335,"SoundDuration":186335,"Delta":776828277},{"NoteNumber":49,"Velocity":74,"Duration":372670,"SoundDuration":372670,"Delta":776828277},{"NoteNumber":58,"Velocity":33,"Duration":186335,"SoundDuration":186335,"Delta":777014612},{"NoteNumber":57,"Velocity":40,"Duration":176470,"SoundDuration":176470,"Delta":777200948},{"NoteNumber":58,"Velocity":33,"Duration":176470,"SoundDuration":176470,"Delta":777377418},{"NoteNumber":57,"Velocity":40,"Duration":171478,"SoundDuration":171478,"Delta":777553889},{"NoteNumber":69,"Velocity":54,"Duration":340018,"SoundDuration":340018,"Delta":777553889},{"NoteNumber":61,"Velocity":45,"Duration":340018,"SoundDuration":340018,"Delta":777553889},{"NoteNumber":64,"Velocity":45,"Duration":340018,"SoundDuration":340018,"Delta":777553889},{"NoteNumber":62,"Velocity":34,"Duration":168539,"SoundDuration":168539,"Delta":777725368},{"NoteNumber":61,"Velocity":34,"Duration":58290,"SoundDuration":58290,"Delta":777893907},{"NoteNumber":69,"Velocity":49,"Duration":58290,"SoundDuration":58290,"Delta":777893907},{"NoteNumber":61,"Velocity":41,"Duration":155440,"SoundDuration":155440,"Delta":777893907},{"NoteNumber":64,"Velocity":41,"Duration":58290,"SoundDuration":58290,"Delta":777893907},{"NoteNumber":58,"Velocity":34,"Duration":168539,"SoundDuration":168539,"Delta":778049348},{"NoteNumber":69,"Velocity":49,"Duration":63202,"SoundDuration":63202,"Delta":778049348},{"NoteNumber":61,"Velocity":41,"Duration":63202,"SoundDuration":63202,"Delta":778049348},{"NoteNumber":64,"Velocity":41,"Duration":63202,"SoundDuration":63202,"Delta":778049348},{"NoteNumber":57,"Velocity":40,"Duration":155440,"SoundDuration":155440,"Delta":778217887},{"NoteNumber":74,"Velocity":54,"Duration":58290,"SoundDuration":58290,"Delta":778217887},{"NoteNumber":65,"Velocity":45,"Duration":58290,"SoundDuration":58290,"Delta":778217887},{"NoteNumber":69,"Velocity":45,"Duration":58290,"SoundDuration":58290,"Delta":778217887},{"NoteNumber":58,"Velocity":36,"Duration":171428,"SoundDuration":171428,"Delta":778373328},{"NoteNumber":57,"Velocity":40,"Duration":170974,"SoundDuration":170974,"Delta":778544756},{"NoteNumber":74,"Velocity":49,"Duration":65028,"SoundDuration":65028,"Delta":778544756},{"NoteNumber":65,"Velocity":41,"Duration":65028,"SoundDuration":65028,"Delta":778544756},{"NoteNumber":69,"Velocity":41,"Duration":65028,"SoundDuration":65028,"Delta":778544756},{"NoteNumber":58,"Velocity":36,"Duration":168539,"SoundDuration":168539,"Delta":778715731},{"NoteNumber":57,"Velocity":40,"Duration":166713,"SoundDuration":166713,"Delta":778884271},{"NoteNumber":74,"Velocity":53,"Duration":330647,"SoundDuration":330647,"Delta":778884271},{"NoteNumber":65,"Velocity":45,"Duration":330647,"SoundDuration":330647,"Delta":778884271},{"NoteNumber":69,"Velocity":45,"Duration":330647,"SoundDuration":330647,"Delta":778884271},{"NoteNumber":62,"Velocity":35,"Duration":163934,"SoundDuration":163934,"Delta":779050984},{"NoteNumber":61,"Velocity":35,"Duration":152284,"SoundDuration":152284,"Delta":779214918},{"NoteNumber":77,"Velocity":49,"Duration":57106,"SoundDuration":57106,"Delta":779214918},{"NoteNumber":69,"Velocity":41,"Duration":57106,"SoundDuration":57106,"Delta":779214918},{"NoteNumber":74,"Velocity":41,"Duration":57106,"SoundDuration":57106,"Delta":779214918},{"NoteNumber":58,"Velocity":35,"Duration":163043,"SoundDuration":163043,"Delta":779367203},{"NoteNumber":74,"Velocity":49,"Duration":61141,"SoundDuration":61141,"Delta":779367203},{"NoteNumber":65,"Velocity":41,"Duration":61141,"SoundDuration":61141,"Delta":779367203},{"NoteNumber":69,"Velocity":41,"Duration":61141,"SoundDuration":61141,"Delta":779367203},{"NoteNumber":57,"Velocity":40,"Duration":156250,"SoundDuration":156250,"Delta":779530246},{"NoteNumber":73,"Velocity":53,"Duration":58593,"SoundDuration":58593,"Delta":779530246},{"NoteNumber":64,"Velocity":45,"Duration":58593,"SoundDuration":58593,"Delta":779530246},{"NoteNumber":69,"Velocity":45,"Duration":58593,"SoundDuration":58593,"Delta":779530246},{"NoteNumber":58,"Velocity":35,"Duration":172414,"SoundDuration":172414,"Delta":779686496},{"NoteNumber":57,"Velocity":40,"Duration":167597,"SoundDuration":167597,"Delta":779858910},{"NoteNumber":69,"Velocity":49,"Duration":62849,"SoundDuration":62849,"Delta":779858910},{"NoteNumber":61,"Velocity":41,"Duration":62849,"SoundDuration":62849,"Delta":779858910},{"NoteNumber":64,"Velocity":41,"Duration":62849,"SoundDuration":62849,"Delta":779858910},{"NoteNumber":58,"Velocity":35,"Duration":167597,"SoundDuration":167597,"Delta":780026508},{"NoteNumber":57,"Velocity":40,"Duration":163934,"SoundDuration":163934,"Delta":780194106},{"NoteNumber":81,"Velocity":54,"Duration":327868,"SoundDuration":327868,"Delta":780194106},{"NoteNumber":73,"Velocity":45,"Duration":327868,"SoundDuration":327868,"Delta":780194106},{"NoteNumber":76,"Velocity":45,"Duration":327868,"SoundDuration":327868,"Delta":780194106},{"NoteNumber":62,"Velocity":34,"Duration":163934,"SoundDuration":163934,"Delta":780358041},{"NoteNumber":61,"Velocity":34,"Duration":150754,"SoundDuration":150754,"Delta":780521975},{"NoteNumber":81,"Velocity":49,"Duration":56532,"SoundDuration":56532,"Delta":780521975},{"NoteNumber":73,"Velocity":41,"Duration":56532,"SoundDuration":56532,"Delta":780521975},{"NoteNumber":76,"Velocity":41,"Duration":56532,"SoundDuration":56532,"Delta":780521975},{"NoteNumber":58,"Velocity":34,"Duration":163934,"SoundDuration":163934,"Delta":780672729},{"NoteNumber":81,"Velocity":49,"Duration":61475,"SoundDuration":61475,"Delta":780672729},{"NoteNumber":73,"Velocity":41,"Duration":61475,"SoundDuration":61475,"Delta":780672729},{"NoteNumber":76,"Velocity":41,"Duration":61475,"SoundDuration":61475,"Delta":780672729},{"NoteNumber":57,"Velocity":40,"Duration":152284,"SoundDuration":152284,"Delta":780836664},{"NoteNumber":86,"Velocity":54,"Duration":57106,"SoundDuration":57106,"Delta":780836664},{"NoteNumber":77,"Velocity":45,"Duration":57106,"SoundDuration":57106,"Delta":780836664},{"NoteNumber":81,"Velocity":45,"Duration":57106,"SoundDuration":57106,"Delta":780836664},{"NoteNumber":58,"Velocity":36,"Duration":172912,"SoundDuration":172912,"Delta":780988948},{"NoteNumber":57,"Velocity":40,"Duration":170038,"SoundDuration":170038,"Delta":781161861},{"NoteNumber":86,"Velocity":49,"Duration":65028,"SoundDuration":65028,"Delta":781161861},{"NoteNumber":77,"Velocity":41,"Duration":65028,"SoundDuration":65028,"Delta":781161861},{"NoteNumber":81,"Velocity":41,"Duration":65028,"SoundDuration":65028,"Delta":781161861},{"NoteNumber":58,"Velocity":36,"Duration":166666,"SoundDuration":166666,"Delta":781331899},{"NoteNumber":57,"Velocity":40,"Duration":163043,"SoundDuration":163043,"Delta":781498566},{"NoteNumber":86,"Velocity":53,"Duration":326087,"SoundDuration":326087,"Delta":781498566},{"NoteNumber":77,"Velocity":45,"Duration":326087,"SoundDuration":326087,"Delta":781498566},{"NoteNumber":81,"Velocity":45,"Duration":326087,"SoundDuration":326087,"Delta":781498566},{"NoteNumber":62,"Velocity":35,"Duration":163043,"SoundDuration":163043,"Delta":781661609},{"NoteNumber":61,"Velocity":35,"Duration":153060,"SoundDuration":153060,"Delta":781824653},{"NoteNumber":89,"Velocity":49,"Duration":76530,"SoundDuration":76530,"Delta":781824653},{"NoteNumber":81,"Velocity":41,"Duration":76530,"SoundDuration":76530,"Delta":781824653},{"NoteNumber":86,"Velocity":41,"Duration":76530,"SoundDuration":76530,"Delta":781824653},{"NoteNumber":58,"Velocity":35,"Duration":170454,"SoundDuration":170454,"Delta":781977714},{"NoteNumber":86,"Velocity":49,"Duration":85227,"SoundDuration":85227,"Delta":781977714},{"NoteNumber":77,"Velocity":41,"Duration":85227,"SoundDuration":85227,"Delta":781977714},{"NoteNumber":81,"Velocity":41,"Duration":85227,"SoundDuration":85227,"Delta":781977714},{"NoteNumber":57,"Velocity":40,"Duration":165746,"SoundDuration":165746,"Delta":782148168},{"NoteNumber":85,"Velocity":54,"Duration":290055,"SoundDuration":290055,"Delta":782148168},{"NoteNumber":76,"Velocity":45,"Duration":290055,"SoundDuration":290055,"Delta":782148168},{"NoteNumber":81,"Velocity":45,"Duration":290055,"SoundDuration":290055,"Delta":782148168},{"NoteNumber":58,"Velocity":36,"Duration":165746,"SoundDuration":165746,"Delta":782313914},{"NoteNumber":73,"Velocity":48,"Duration":323694,"SoundDuration":323694,"Delta":782438224},{"NoteNumber":81,"Velocity":48,"Duration":302976,"SoundDuration":302976,"Delta":782458942},{"NoteNumber":57,"Velocity":40,"Duration":161290,"SoundDuration":161290,"Delta":782479660},{"NoteNumber":88,"Velocity":57,"Duration":282258,"SoundDuration":282258,"Delta":782479660},{"NoteNumber":58,"Velocity":36,"Duration":161290,"SoundDuration":161290,"Delta":782640951},{"NoteNumber":74,"Velocity":51,"Duration":362903,"SoundDuration":362903,"Delta":782761918},{"NoteNumber":81,"Velocity":51,"Duration":322581,"SoundDuration":322581,"Delta":782782080},{"NoteNumber":57,"Velocity":43,"Duration":161290,"SoundDuration":161290,"Delta":782802241},{"NoteNumber":89,"Velocity":60,"Duration":322581,"SoundDuration":322581,"Delta":782802241},{"NoteNumber":65,"Velocity":45,"Duration":161290,"SoundDuration":161290,"Delta":782963532},{"NoteNumber":62,"Velocity":42,"Duration":164835,"SoundDuration":164835,"Delta":783124822},{"NoteNumber":86,"Velocity":55,"Duration":329669,"SoundDuration":329669,"Delta":783124822},{"NoteNumber":77,"Velocity":46,"Duration":329669,"SoundDuration":329669,"Delta":783124822},{"NoteNumber":81,"Velocity":46,"Duration":329669,"SoundDuration":329669,"Delta":783124822},{"NoteNumber":58,"Velocity":42,"Duration":164834,"SoundDuration":164834,"Delta":783289657},{"NoteNumber":57,"Velocity":45,"Duration":164835,"SoundDuration":164835,"Delta":783454492},{"NoteNumber":85,"Velocity":59,"Duration":288461,"SoundDuration":288461,"Delta":783454492},{"NoteNumber":76,"Velocity":50,"Duration":288461,"SoundDuration":288461,"Delta":783454492},{"NoteNumber":81,"Velocity":50,"Duration":288461,"SoundDuration":288461,"Delta":783454492},{"NoteNumber":58,"Velocity":37,"Duration":164835,"SoundDuration":164835,"Delta":783619327},{"NoteNumber":73,"Velocity":53,"Duration":321957,"SoundDuration":321957,"Delta":783742953},{"NoteNumber":81,"Velocity":53,"Duration":301353,"SoundDuration":301353,"Delta":783763558},{"NoteNumber":57,"Velocity":44,"Duration":160428,"SoundDuration":160428,"Delta":783784162},{"NoteNumber":88,"Velocity":63,"Duration":280749,"SoundDuration":280749,"Delta":783784162},{"NoteNumber":58,"Velocity":38,"Duration":160428,"SoundDuration":160428,"Delta":783944590},{"NoteNumber":74,"Velocity":56,"Duration":360962,"SoundDuration":360962,"Delta":784064911},{"NoteNumber":81,"Velocity":56,"Duration":320855,"SoundDuration":320855,"Delta":784084965},{"NoteNumber":57,"Velocity":42,"Duration":160427,"SoundDuration":160427,"Delta":784105018},{"NoteNumber":89,"Velocity":67,"Duration":320855,"SoundDuration":320855,"Delta":784105018},{"NoteNumber":65,"Velocity":47,"Duration":160428,"SoundDuration":160428,"Delta":784265446},{"NoteNumber":62,"Velocity":43,"Duration":169491,"SoundDuration":169491,"Delta":784425874},{"NoteNumber":86,"Velocity":63,"Duration":338982,"SoundDuration":338982,"Delta":784425874},{"NoteNumber":77,"Velocity":53,"Duration":338982,"SoundDuration":338982,"Delta":784425874},{"NoteNumber":81,"Velocity":53,"Duration":338982,"SoundDuration":338982,"Delta":784425874},{"NoteNumber":58,"Velocity":43,"Duration":169491,"SoundDuration":169491,"Delta":784595366},{"NoteNumber":57,"Velocity":43,"Duration":166140,"SoundDuration":166140,"Delta":784764857},{"NoteNumber":76,"Velocity":53,"Duration":654053,"SoundDuration":654053,"Delta":784764857},{"NoteNumber":81,"Velocity":53,"Duration":654053,"SoundDuration":654053,"Delta":784764857},{"NoteNumber":85,"Velocity":63,"Duration":654053,"SoundDuration":654053,"Delta":784764857},{"NoteNumber":58,"Velocity":45,"Duration":164204,"SoundDuration":164204,"Delta":784930998},{"NoteNumber":61,"Velocity":47,"Duration":162588,"SoundDuration":162588,"Delta":785095203},{"NoteNumber":62,"Velocity":49,"Duration":161119,"SoundDuration":161119,"Delta":785257791},{"NoteNumber":64,"Velocity":53,"Duration":159689,"SoundDuration":159689,"Delta":785418910},{"NoteNumber":65,"Velocity":55,"Duration":158284,"SoundDuration":158284,"Delta":785578600},{"NoteNumber":68,"Velocity":57,"Duration":157067,"SoundDuration":157067,"Delta":785736885},{"NoteNumber":69,"Velocity":59,"Duration":177637,"SoundDuration":177637,"Delta":785893953},{"NoteNumber":69,"Velocity":61,"Duration":155588,"SoundDuration":155588,"Delta":786071590},{"NoteNumber":68,"Velocity":61,"Duration":156536,"SoundDuration":156536,"Delta":786227179},{"NoteNumber":65,"Velocity":59,"Duration":157632,"SoundDuration":157632,"Delta":786383715},{"NoteNumber":64,"Velocity":58,"Duration":158618,"SoundDuration":158618,"Delta":786541348},{"NoteNumber":62,"Velocity":56,"Duration":159873,"SoundDuration":159873,"Delta":786699967},{"NoteNumber":61,"Velocity":54,"Duration":160873,"SoundDuration":160873,"Delta":786859840},{"NoteNumber":69,"Velocity":67,"Duration":347478,"SoundDuration":347478,"Delta":787020713},{"NoteNumber":67,"Velocity":53,"Duration":347478,"SoundDuration":347478,"Delta":787020713},{"NoteNumber":58,"Velocity":53,"Duration":161900,"SoundDuration":161900,"Delta":787020713},{"NoteNumber":37,"Velocity":48,"Duration":347478,"SoundDuration":347478,"Delta":787020713},{"NoteNumber":40,"Velocity":53,"Duration":347478,"SoundDuration":347478,"Delta":787020713},{"NoteNumber":46,"Velocity":45,"Duration":161900,"SoundDuration":161900,"Delta":787020713},{"NoteNumber":57,"Velocity":52,"Duration":185578,"SoundDuration":185578,"Delta":787182614},{"NoteNumber":45,"Velocity":44,"Duration":185578,"SoundDuration":185578,"Delta":787182614},{"NoteNumber":65,"Velocity":53,"Duration":661112,"SoundDuration":661112,"Delta":787368192},{"NoteNumber":69,"Velocity":64,"Duration":981779,"SoundDuration":981779,"Delta":787368192},{"NoteNumber":57,"Velocity":43,"Duration":168299,"SoundDuration":168299,"Delta":787368192},{"NoteNumber":38,"Velocity":46,"Duration":661112,"SoundDuration":661112,"Delta":787368192},{"NoteNumber":41,"Velocity":53,"Duration":661112,"SoundDuration":661112,"Delta":787368192},{"NoteNumber":45,"Velocity":36,"Duration":168299,"SoundDuration":168299,"Delta":787368192},{"NoteNumber":58,"Velocity":45,"Duration":165870,"SoundDuration":165870,"Delta":787536491},{"NoteNumber":46,"Velocity":38,"Duration":165870,"SoundDuration":165870,"Delta":787536491},{"NoteNumber":61,"Velocity":47,"Duration":164354,"SoundDuration":164354,"Delta":787702362},{"NoteNumber":49,"Velocity":39,"Duration":164354,"SoundDuration":164354,"Delta":787702362},{"NoteNumber":62,"Velocity":49,"Duration":162588,"SoundDuration":162588,"Delta":787866717},{"NoteNumber":50,"Velocity":41,"Duration":162588,"SoundDuration":162588,"Delta":787866717},{"NoteNumber":64,"Velocity":53,"Duration":161119,"SoundDuration":161119,"Delta":788029305},{"NoteNumber":52,"Velocity":45,"Duration":161119,"SoundDuration":161119,"Delta":788029305},{"NoteNumber":65,"Velocity":55,"Duration":159547,"SoundDuration":159547,"Delta":788190424},{"NoteNumber":53,"Velocity":46,"Duration":159547,"SoundDuration":159547,"Delta":788190424},{"NoteNumber":68,"Velocity":57,"Duration":158007,"SoundDuration":158007,"Delta":788349972},{"NoteNumber":56,"Velocity":48,"Duration":158007,"SoundDuration":158007,"Delta":788349972},{"NoteNumber":69,"Velocity":67,"Duration":163417,"SoundDuration":163417,"Delta":788507979},{"NoteNumber":57,"Velocity":56,"Duration":163417,"SoundDuration":163417,"Delta":788507979},{"NoteNumber":69,"Velocity":68,"Duration":640116,"SoundDuration":640116,"Delta":788688404},{"NoteNumber":57,"Velocity":57,"Duration":640116,"SoundDuration":640116,"Delta":788688404},{"NoteNumber":68,"Velocity":61,"Duration":157939,"SoundDuration":157939,"Delta":788847615},{"NoteNumber":56,"Velocity":51,"Duration":157939,"SoundDuration":157939,"Delta":788847615},{"NoteNumber":65,"Velocity":59,"Duration":160315,"SoundDuration":160315,"Delta":789005555},{"NoteNumber":53,"Velocity":50,"Duration":160315,"SoundDuration":160315,"Delta":789005555},{"NoteNumber":64,"Velocity":58,"Duration":162650,"SoundDuration":162650,"Delta":789165870},{"NoteNumber":52,"Velocity":49,"Duration":162650,"SoundDuration":162650,"Delta":789165870},{"NoteNumber":67,"Velocity":62,"Duration":675815,"SoundDuration":675815,"Delta":789328520},{"NoteNumber":69,"Velocity":68,"Duration":675815,"SoundDuration":675815,"Delta":789328520},{"NoteNumber":62,"Velocity":56,"Duration":165034,"SoundDuration":165034,"Delta":789328520},{"NoteNumber":40,"Velocity":45,"Duration":675815,"SoundDuration":675815,"Delta":789328520},{"NoteNumber":43,"Velocity":53,"Duration":675815,"SoundDuration":675815,"Delta":789328520},{"NoteNumber":50,"Velocity":47,"Duration":165034,"SoundDuration":165034,"Delta":789328520},{"NoteNumber":61,"Velocity":54,"Duration":167648,"SoundDuration":167648,"Delta":789493555},{"NoteNumber":49,"Velocity":45,"Duration":167648,"SoundDuration":167648,"Delta":789493555},{"NoteNumber":58,"Velocity":53,"Duration":170167,"SoundDuration":170167,"Delta":789661203},{"NoteNumber":46,"Velocity":45,"Duration":170167,"SoundDuration":170167,"Delta":789661203},{"NoteNumber":57,"Velocity":52,"Duration":158430,"SoundDuration":158430,"Delta":789831371},{"NoteNumber":45,"Velocity":44,"Duration":158430,"SoundDuration":158430,"Delta":789831371},{"NoteNumber":65,"Velocity":53,"Duration":683894,"SoundDuration":683894,"Delta":790004336},{"NoteNumber":69,"Velocity":64,"Duration":683894,"SoundDuration":683894,"Delta":790004336},{"NoteNumber":57,"Velocity":43,"Duration":173379,"SoundDuration":173379,"Delta":790004336},{"NoteNumber":41,"Velocity":53,"Duration":683894,"SoundDuration":683894,"Delta":790004336},{"NoteNumber":45,"Velocity":36,"Duration":683894,"SoundDuration":683894,"Delta":790004336},{"NoteNumber":58,"Velocity":45,"Duration":171888,"SoundDuration":171888,"Delta":790177715},{"NoteNumber":46,"Velocity":38,"Duration":171888,"SoundDuration":171888,"Delta":790177715},{"NoteNumber":61,"Velocity":47,"Duration":170117,"SoundDuration":170117,"Delta":790349604},{"NoteNumber":49,"Velocity":39,"Duration":170117,"SoundDuration":170117,"Delta":790349604},{"NoteNumber":62,"Velocity":49,"Duration":168509,"SoundDuration":168509,"Delta":790519722},{"NoteNumber":50,"Velocity":41,"Duration":168509,"SoundDuration":168509,"Delta":790519722},{"NoteNumber":64,"Velocity":53,"Duration":167101,"SoundDuration":167101,"Delta":790688231},{"NoteNumber":52,"Velocity":45,"Duration":167101,"SoundDuration":167101,"Delta":790688231},{"NoteNumber":65,"Velocity":55,"Duration":165427,"SoundDuration":165427,"Delta":790855333},{"NoteNumber":53,"Velocity":46,"Duration":165427,"SoundDuration":165427,"Delta":790855333},{"NoteNumber":68,"Velocity":57,"Duration":163906,"SoundDuration":163906,"Delta":791020760},{"NoteNumber":56,"Velocity":48,"Duration":163906,"SoundDuration":163906,"Delta":791020760},{"NoteNumber":69,"Velocity":67,"Duration":162528,"SoundDuration":162528,"Delta":791184666},{"NoteNumber":57,"Velocity":56,"Duration":162528,"SoundDuration":162528,"Delta":791184666},{"NoteNumber":69,"Velocity":68,"Duration":651969,"SoundDuration":651969,"Delta":791362334},{"NoteNumber":57,"Velocity":57,"Duration":651969,"SoundDuration":651969,"Delta":791362334},{"NoteNumber":68,"Velocity":61,"Duration":159322,"SoundDuration":159322,"Delta":791529372},{"NoteNumber":56,"Velocity":51,"Duration":159322,"SoundDuration":159322,"Delta":791529372},{"NoteNumber":65,"Velocity":59,"Duration":161626,"SoundDuration":161626,"Delta":791688694},{"NoteNumber":53,"Velocity":50,"Duration":161626,"SoundDuration":161626,"Delta":791688694},{"NoteNumber":64,"Velocity":58,"Duration":163982,"SoundDuration":163982,"Delta":791850321},{"NoteNumber":52,"Velocity":49,"Duration":163982,"SoundDuration":163982,"Delta":791850321},{"NoteNumber":57,"Velocity":62,"Duration":682567,"SoundDuration":682567,"Delta":792014303},{"NoteNumber":69,"Velocity":68,"Duration":682567,"SoundDuration":682567,"Delta":792014303},{"NoteNumber":63,"Velocity":56,"Duration":682567,"SoundDuration":682567,"Delta":792014303},{"NoteNumber":42,"Velocity":45,"Duration":682567,"SoundDuration":682567,"Delta":792014303},{"NoteNumber":48,"Velocity":53,"Duration":682567,"SoundDuration":682567,"Delta":792014303},{"NoteNumber":51,"Velocity":58,"Duration":682567,"SoundDuration":682567,"Delta":792014303},{"NoteNumber":60,"Velocity":54,"Duration":169066,"SoundDuration":169066,"Delta":792180849},{"NoteNumber":45,"Velocity":45,"Duration":169066,"SoundDuration":169066,"Delta":792180849},{"NoteNumber":59,"Velocity":54,"Duration":171481,"SoundDuration":171481,"Delta":792349916},{"NoteNumber":46,"Velocity":46,"Duration":171481,"SoundDuration":171481,"Delta":792349916},{"NoteNumber":58,"Velocity":54,"Duration":175473,"SoundDuration":175473,"Delta":792521397},{"NoteNumber":47,"Velocity":45,"Duration":175473,"SoundDuration":175473,"Delta":792521397},{"NoteNumber":57,"Velocity":65,"Duration":662759,"SoundDuration":662759,"Delta":792696870},{"NoteNumber":69,"Velocity":72,"Duration":662759,"SoundDuration":662759,"Delta":792696870},{"NoteNumber":63,"Velocity":59,"Duration":662759,"SoundDuration":662759,"Delta":792696870},{"NoteNumber":41,"Velocity":47,"Duration":662759,"SoundDuration":662759,"Delta":792696870},{"NoteNumber":48,"Velocity":56,"Duration":662759,"SoundDuration":662759,"Delta":792696870},{"NoteNumber":51,"Velocity":58,"Duration":662759,"SoundDuration":662759,"Delta":792696870},{"NoteNumber":60,"Velocity":58,"Duration":166666,"SoundDuration":166666,"Delta":792863537},{"NoteNumber":45,"Velocity":48,"Duration":166666,"SoundDuration":166666,"Delta":792863537},{"NoteNumber":59,"Velocity":57,"Duration":160886,"SoundDuration":160886,"Delta":793030203},{"NoteNumber":46,"Velocity":49,"Duration":160886,"SoundDuration":160886,"Delta":793030203},{"NoteNumber":58,"Velocity":57,"Duration":168539,"SoundDuration":168539,"Delta":793191090},{"NoteNumber":47,"Velocity":48,"Duration":168539,"SoundDuration":168539,"Delta":793191090},{"NoteNumber":57,"Velocity":70,"Duration":634919,"SoundDuration":634919,"Delta":793359630},{"NoteNumber":69,"Velocity":76,"Duration":634919,"SoundDuration":634919,"Delta":793359630},{"NoteNumber":64,"Velocity":63,"Duration":634919,"SoundDuration":634919,"Delta":793359630},{"NoteNumber":40,"Velocity":50,"Duration":634919,"SoundDuration":634919,"Delta":793359630},{"NoteNumber":48,"Velocity":59,"Duration":634919,"SoundDuration":634919,"Delta":793359630},{"NoteNumber":52,"Velocity":63,"Duration":634919,"SoundDuration":634919,"Delta":793359630},{"NoteNumber":60,"Velocity":61,"Duration":158729,"SoundDuration":158729,"Delta":793518360},{"NoteNumber":45,"Velocity":51,"Duration":158729,"SoundDuration":158729,"Delta":793518360},{"NoteNumber":59,"Velocity":61,"Duration":158729,"SoundDuration":158729,"Delta":793677090},{"NoteNumber":46,"Velocity":52,"Duration":158729,"SoundDuration":158729,"Delta":793677090},{"NoteNumber":58,"Velocity":60,"Duration":158729,"SoundDuration":158729,"Delta":793835820},{"NoteNumber":47,"Velocity":51,"Duration":158729,"SoundDuration":158729,"Delta":793835820},{"NoteNumber":57,"Velocity":73,"Duration":641711,"SoundDuration":641711,"Delta":793994550},{"NoteNumber":69,"Velocity":80,"Duration":969580,"SoundDuration":969580,"Delta":793994550},{"NoteNumber":66,"Velocity":66,"Duration":969580,"SoundDuration":969580,"Delta":793994550},{"NoteNumber":42,"Velocity":53,"Duration":641711,"SoundDuration":641711,"Delta":793994550},{"NoteNumber":48,"Velocity":52,"Duration":641711,"SoundDuration":641711,"Delta":793994550},{"NoteNumber":54,"Velocity":67,"Duration":641711,"SoundDuration":641711,"Delta":793994550},{"NoteNumber":60,"Velocity":65,"Duration":160428,"SoundDuration":160428,"Delta":794154978},{"NoteNumber":45,"Velocity":54,"Duration":160428,"SoundDuration":160428,"Delta":794154978},{"NoteNumber":59,"Velocity":64,"Duration":160427,"SoundDuration":160427,"Delta":794315406},{"NoteNumber":46,"Velocity":54,"Duration":160427,"SoundDuration":160427,"Delta":794315406},{"NoteNumber":58,"Velocity":64,"Duration":160428,"SoundDuration":160428,"Delta":794475834},{"NoteNumber":47,"Velocity":54,"Duration":160428,"SoundDuration":160428,"Delta":794475834},{"NoteNumber":58,"Velocity":78,"Duration":163934,"SoundDuration":163934,"Delta":794636262},{"NoteNumber":38,"Velocity":59,"Duration":670725,"SoundDuration":670725,"Delta":794636262},{"NoteNumber":48,"Velocity":59,"Duration":670725,"SoundDuration":670725,"Delta":794636262},{"NoteNumber":54,"Velocity":70,"Duration":163934,"SoundDuration":163934,"Delta":794636262},{"NoteNumber":60,"Velocity":78,"Duration":163934,"SoundDuration":163934,"Delta":794800196},{"NoteNumber":45,"Velocity":57,"Duration":163934,"SoundDuration":163934,"Delta":794800196},{"NoteNumber":66,"Velocity":65,"Duration":342856,"SoundDuration":342856,"Delta":794964131},{"NoteNumber":68,"Velocity":77,"Duration":342856,"SoundDuration":342856,"Delta":794964131},{"NoteNumber":56,"Velocity":70,"Duration":171428,"SoundDuration":171428,"Delta":794964131},{"NoteNumber":54,"Velocity":58,"Duration":171428,"SoundDuration":171428,"Delta":794964131},{"NoteNumber":47,"Velocity":58,"Duration":171428,"SoundDuration":171428,"Delta":794964131},{"NoteNumber":60,"Velocity":77,"Duration":171428,"SoundDuration":171428,"Delta":795135559},{"NoteNumber":44,"Velocity":58,"Duration":171428,"SoundDuration":171428,"Delta":795135559},{"NoteNumber":53,"Velocity":77,"Duration":317682,"SoundDuration":317682,"Delta":795306988},{"NoteNumber":61,"Velocity":77,"Duration":317682,"SoundDuration":317682,"Delta":795306988},{"NoteNumber":49,"Velocity":64,"Duration":77319,"SoundDuration":77319,"Delta":795306988},{"NoteNumber":37,"Velocity":54,"Duration":77319,"SoundDuration":77319,"Delta":795306988},{"NoteNumber":44,"Velocity":54,"Duration":77319,"SoundDuration":77319,"Delta":795306988},{"NoteNumber":50,"Velocity":54,"Duration":81521,"SoundDuration":81521,"Delta":795461627},{"NoteNumber":38,"Velocity":45,"Duration":81521,"SoundDuration":81521,"Delta":795461627},{"NoteNumber":49,"Velocity":59,"Duration":77319,"SoundDuration":77319,"Delta":795624670},{"NoteNumber":37,"Velocity":50,"Duration":77319,"SoundDuration":77319,"Delta":795624670},{"NoteNumber":44,"Velocity":50,"Duration":77319,"SoundDuration":77319,"Delta":795624670},{"NoteNumber":50,"Velocity":52,"Duration":81081,"SoundDuration":81081,"Delta":795779309},{"NoteNumber":38,"Velocity":44,"Duration":81081,"SoundDuration":81081,"Delta":795779309},{"NoteNumber":73,"Velocity":64,"Duration":317459,"SoundDuration":317459,"Delta":795941471},{"NoteNumber":61,"Velocity":54,"Duration":317459,"SoundDuration":317459,"Delta":795941471},{"NoteNumber":65,"Velocity":54,"Duration":317459,"SoundDuration":317459,"Delta":795941471},{"NoteNumber":49,"Velocity":61,"Duration":79365,"SoundDuration":79365,"Delta":795941471},{"NoteNumber":37,"Velocity":51,"Duration":79365,"SoundDuration":79365,"Delta":795941471},{"NoteNumber":54,"Velocity":54,"Duration":79365,"SoundDuration":79365,"Delta":796100201},{"NoteNumber":42,"Velocity":45,"Duration":79365,"SoundDuration":79365,"Delta":796100201},{"NoteNumber":73,"Velocity":58,"Duration":73529,"SoundDuration":73529,"Delta":796258931},{"NoteNumber":61,"Velocity":49,"Duration":73529,"SoundDuration":73529,"Delta":796258931},{"NoteNumber":65,"Velocity":49,"Duration":73529,"SoundDuration":73529,"Delta":796258931},{"NoteNumber":53,"Velocity":62,"Duration":73529,"SoundDuration":73529,"Delta":796258931},{"NoteNumber":41,"Velocity":52,"Duration":73529,"SoundDuration":73529,"Delta":796258931},{"NoteNumber":73,"Velocity":58,"Duration":77720,"SoundDuration":77720,"Delta":796405990},{"NoteNumber":61,"Velocity":49,"Duration":77720,"SoundDuration":77720,"Delta":796405990},{"NoteNumber":65,"Velocity":49,"Duration":77720,"SoundDuration":77720,"Delta":796405990},{"NoteNumber":50,"Velocity":54,"Duration":77720,"SoundDuration":77720,"Delta":796405990},{"NoteNumber":38,"Velocity":45,"Duration":77720,"SoundDuration":77720,"Delta":796405990},{"NoteNumber":78,"Velocity":64,"Duration":73529,"SoundDuration":73529,"Delta":796561431},{"NoteNumber":66,"Velocity":54,"Duration":73529,"SoundDuration":73529,"Delta":796561431},{"NoteNumber":69,"Velocity":54,"Duration":73529,"SoundDuration":73529,"Delta":796561431},{"NoteNumber":49,"Velocity":60,"Duration":73529,"SoundDuration":73529,"Delta":796561431},{"NoteNumber":37,"Velocity":51,"Duration":73529,"SoundDuration":73529,"Delta":796561431},{"NoteNumber":50,"Velocity":55,"Duration":78947,"SoundDuration":78947,"Delta":796708490},{"NoteNumber":38,"Velocity":46,"Duration":78947,"SoundDuration":78947,"Delta":796708490},{"NoteNumber":78,"Velocity":58,"Duration":78533,"SoundDuration":78533,"Delta":796866384},{"NoteNumber":66,"Velocity":49,"Duration":78533,"SoundDuration":78533,"Delta":796866384},{"NoteNumber":69,"Velocity":49,"Duration":78533,"SoundDuration":78533,"Delta":796866384},{"NoteNumber":49,"Velocity":60,"Duration":78533,"SoundDuration":78533,"Delta":796866384},{"NoteNumber":37,"Velocity":51,"Duration":78533,"SoundDuration":78533,"Delta":796866384},{"NoteNumber":50,"Velocity":54,"Duration":78533,"SoundDuration":78533,"Delta":797023452},{"NoteNumber":38,"Velocity":45,"Duration":78533,"SoundDuration":78533,"Delta":797023452},{"NoteNumber":78,"Velocity":63,"Duration":326087,"SoundDuration":326087,"Delta":797180520},{"NoteNumber":66,"Velocity":54,"Duration":326087,"SoundDuration":326087,"Delta":797180520},{"NoteNumber":69,"Velocity":54,"Duration":326087,"SoundDuration":326087,"Delta":797180520},{"NoteNumber":49,"Velocity":61,"Duration":81521,"SoundDuration":81521,"Delta":797180520},{"NoteNumber":37,"Velocity":51,"Duration":81521,"SoundDuration":81521,"Delta":797180520},{"NoteNumber":54,"Velocity":54,"Duration":81521,"SoundDuration":81521,"Delta":797343564},{"NoteNumber":42,"Velocity":45,"Duration":81521,"SoundDuration":81521,"Delta":797343564},{"NoteNumber":81,"Velocity":58,"Duration":73529,"SoundDuration":73529,"Delta":797506607},{"NoteNumber":69,"Velocity":49,"Duration":73529,"SoundDuration":73529,"Delta":797506607},{"NoteNumber":73,"Velocity":49,"Duration":73529,"SoundDuration":73529,"Delta":797506607},{"NoteNumber":53,"Velocity":62,"Duration":73529,"SoundDuration":73529,"Delta":797506607},{"NoteNumber":41,"Velocity":52,"Duration":73529,"SoundDuration":73529,"Delta":797506607},{"NoteNumber":78,"Velocity":58,"Duration":78125,"SoundDuration":78125,"Delta":797653666},{"NoteNumber":66,"Velocity":49,"Duration":78125,"SoundDuration":78125,"Delta":797653666},{"NoteNumber":69,"Velocity":49,"Duration":78125,"SoundDuration":78125,"Delta":797653666},{"NoteNumber":50,"Velocity":54,"Duration":78125,"SoundDuration":78125,"Delta":797653666},{"NoteNumber":38,"Velocity":45,"Duration":78125,"SoundDuration":78125,"Delta":797653666},{"NoteNumber":77,"Velocity":63,"Duration":73529,"SoundDuration":73529,"Delta":797809916},{"NoteNumber":65,"Velocity":54,"Duration":73529,"SoundDuration":73529,"Delta":797809916},{"NoteNumber":68,"Velocity":54,"Duration":73529,"SoundDuration":73529,"Delta":797809916},{"NoteNumber":49,"Velocity":60,"Duration":73529,"SoundDuration":73529,"Delta":797809916},{"NoteNumber":37,"Velocity":51,"Duration":73529,"SoundDuration":73529,"Delta":797809916},{"NoteNumber":50,"Velocity":55,"Duration":78947,"SoundDuration":78947,"Delta":797956975},{"NoteNumber":38,"Velocity":46,"Duration":78947,"SoundDuration":78947,"Delta":797956975},{"NoteNumber":73,"Velocity":58,"Duration":83333,"SoundDuration":83333,"Delta":798114870},{"NoteNumber":61,"Velocity":49,"Duration":83333,"SoundDuration":83333,"Delta":798114870},{"NoteNumber":65,"Velocity":49,"Duration":83333,"SoundDuration":83333,"Delta":798114870},{"NoteNumber":49,"Velocity":60,"Duration":83333,"SoundDuration":83333,"Delta":798114870},{"NoteNumber":37,"Velocity":51,"Duration":83333,"SoundDuration":83333,"Delta":798114870},{"NoteNumber":50,"Velocity":54,"Duration":83333,"SoundDuration":83333,"Delta":798281536},{"NoteNumber":38,"Velocity":45,"Duration":83333,"SoundDuration":83333,"Delta":798281536},{"NoteNumber":85,"Velocity":70,"Duration":317459,"SoundDuration":317459,"Delta":798448203},{"NoteNumber":73,"Velocity":59,"Duration":317459,"SoundDuration":317459,"Delta":798448203},{"NoteNumber":77,"Velocity":59,"Duration":317459,"SoundDuration":317459,"Delta":798448203},{"NoteNumber":49,"Velocity":64,"Duration":79365,"SoundDuration":79365,"Delta":798448203},{"NoteNumber":37,"Velocity":53,"Duration":79365,"SoundDuration":79365,"Delta":798448203},{"NoteNumber":56,"Velocity":56,"Duration":79365,"SoundDuration":79365,"Delta":798606933},{"NoteNumber":44,"Velocity":47,"Duration":79365,"SoundDuration":79365,"Delta":798606933},{"NoteNumber":85,"Velocity":63,"Duration":73529,"SoundDuration":73529,"Delta":798765663},{"NoteNumber":73,"Velocity":53,"Duration":73529,"SoundDuration":73529,"Delta":798765663},{"NoteNumber":77,"Velocity":53,"Duration":73529,"SoundDuration":73529,"Delta":798765663},{"NoteNumber":53,"Velocity":65,"Duration":73529,"SoundDuration":73529,"Delta":798765663},{"NoteNumber":41,"Velocity":54,"Duration":73529,"SoundDuration":73529,"Delta":798765663},{"NoteNumber":85,"Velocity":63,"Duration":77720,"SoundDuration":77720,"Delta":798912722},{"NoteNumber":73,"Velocity":53,"Duration":77720,"SoundDuration":77720,"Delta":798912722},{"NoteNumber":77,"Velocity":53,"Duration":77720,"SoundDuration":77720,"Delta":798912722},{"NoteNumber":50,"Velocity":56,"Duration":77720,"SoundDuration":77720,"Delta":798912722},{"NoteNumber":38,"Velocity":47,"Duration":77720,"SoundDuration":77720,"Delta":798912722},{"NoteNumber":90,"Velocity":70,"Duration":73529,"SoundDuration":73529,"Delta":799068162},{"NoteNumber":78,"Velocity":59,"Duration":73529,"SoundDuration":73529,"Delta":799068162},{"NoteNumber":81,"Velocity":59,"Duration":73529,"SoundDuration":73529,"Delta":799068162},{"NoteNumber":49,"Velocity":63,"Duration":73529,"SoundDuration":73529,"Delta":799068162},{"NoteNumber":37,"Velocity":53,"Duration":73529,"SoundDuration":73529,"Delta":799068162},{"NoteNumber":50,"Velocity":57,"Duration":78947,"SoundDuration":78947,"Delta":799215221},{"NoteNumber":38,"Velocity":48,"Duration":78947,"SoundDuration":78947,"Delta":799215221},{"NoteNumber":90,"Velocity":63,"Duration":78533,"SoundDuration":78533,"Delta":799373116},{"NoteNumber":78,"Velocity":53,"Duration":78533,"SoundDuration":78533,"Delta":799373116},{"NoteNumber":81,"Velocity":53,"Duration":78533,"SoundDuration":78533,"Delta":799373116},{"NoteNumber":49,"Velocity":63,"Duration":78533,"SoundDuration":78533,"Delta":799373116},{"NoteNumber":37,"Velocity":53,"Duration":78533,"SoundDuration":78533,"Delta":799373116},{"NoteNumber":50,"Velocity":56,"Duration":78533,"SoundDuration":78533,"Delta":799530184},{"NoteNumber":38,"Velocity":47,"Duration":78533,"SoundDuration":78533,"Delta":799530184},{"NoteNumber":90,"Velocity":69,"Duration":326087,"SoundDuration":326087,"Delta":799687252},{"NoteNumber":78,"Velocity":59,"Duration":326087,"SoundDuration":326087,"Delta":799687252},{"NoteNumber":81,"Velocity":59,"Duration":326087,"SoundDuration":326087,"Delta":799687252},{"NoteNumber":49,"Velocity":64,"Duration":81521,"SoundDuration":81521,"Delta":799687252},{"NoteNumber":37,"Velocity":53,"Duration":81521,"SoundDuration":81521,"Delta":799687252},{"NoteNumber":50,"Velocity":56,"Duration":81521,"SoundDuration":81521,"Delta":799850295},{"NoteNumber":38,"Velocity":47,"Duration":81521,"SoundDuration":81521,"Delta":799850295},{"NoteNumber":93,"Velocity":63,"Duration":73529,"SoundDuration":73529,"Delta":800013339},{"NoteNumber":81,"Velocity":53,"Duration":73529,"SoundDuration":73529,"Delta":800013339},{"NoteNumber":85,"Velocity":53,"Duration":73529,"SoundDuration":73529,"Delta":800013339},{"NoteNumber":51,"Velocity":65,"Duration":73529,"SoundDuration":73529,"Delta":800013339},{"NoteNumber":39,"Velocity":54,"Duration":73529,"SoundDuration":73529,"Delta":800013339},{"NoteNumber":90,"Velocity":63,"Duration":78125,"SoundDuration":78125,"Delta":800160398},{"NoteNumber":78,"Velocity":53,"Duration":78125,"SoundDuration":78125,"Delta":800160398},{"NoteNumber":81,"Velocity":53,"Duration":78125,"SoundDuration":78125,"Delta":800160398},{"NoteNumber":52,"Velocity":56,"Duration":78125,"SoundDuration":78125,"Delta":800160398},{"NoteNumber":40,"Velocity":47,"Duration":78125,"SoundDuration":78125,"Delta":800160398},{"NoteNumber":89,"Velocity":69,"Duration":73529,"SoundDuration":73529,"Delta":800316648},{"NoteNumber":77,"Velocity":59,"Duration":73529,"SoundDuration":73529,"Delta":800316648},{"NoteNumber":81,"Velocity":59,"Duration":73529,"SoundDuration":73529,"Delta":800316648},{"NoteNumber":53,"Velocity":69,"Duration":73529,"SoundDuration":73529,"Delta":800316648},{"NoteNumber":41,"Velocity":58,"Duration":73529,"SoundDuration":73529,"Delta":800316648},{"NoteNumber":54,"Velocity":62,"Duration":78947,"SoundDuration":78947,"Delta":800463707},{"NoteNumber":42,"Velocity":52,"Duration":78947,"SoundDuration":78947,"Delta":800463707},{"NoteNumber":53,"Velocity":69,"Duration":83333,"SoundDuration":83333,"Delta":800621601},{"NoteNumber":41,"Velocity":58,"Duration":83333,"SoundDuration":83333,"Delta":800621601},{"NoteNumber":54,"Velocity":61,"Duration":83333,"SoundDuration":83333,"Delta":800788268},{"NoteNumber":42,"Velocity":51,"Duration":83333,"SoundDuration":83333,"Delta":800788268},{"NoteNumber":77,"Velocity":64,"Duration":317459,"SoundDuration":317459,"Delta":800954934},{"NoteNumber":65,"Velocity":54,"Duration":317459,"SoundDuration":317459,"Delta":800954934},{"NoteNumber":69,"Velocity":54,"Duration":317459,"SoundDuration":317459,"Delta":800954934},{"NoteNumber":53,"Velocity":61,"Duration":79365,"SoundDuration":79365,"Delta":800954934},{"NoteNumber":41,"Velocity":51,"Duration":79365,"SoundDuration":79365,"Delta":800954934},{"NoteNumber":58,"Velocity":54,"Duration":79365,"SoundDuration":79365,"Delta":801113664},{"NoteNumber":46,"Velocity":45,"Duration":79365,"SoundDuration":79365,"Delta":801113664},{"NoteNumber":77,"Velocity":58,"Duration":73529,"SoundDuration":73529,"Delta":801272394},{"NoteNumber":65,"Velocity":49,"Duration":73529,"SoundDuration":73529,"Delta":801272394},{"NoteNumber":69,"Velocity":49,"Duration":73529,"SoundDuration":73529,"Delta":801272394},{"NoteNumber":57,"Velocity":62,"Duration":73529,"SoundDuration":73529,"Delta":801272394},{"NoteNumber":45,"Velocity":52,"Duration":73529,"SoundDuration":73529,"Delta":801272394},{"NoteNumber":77,"Velocity":58,"Duration":77720,"SoundDuration":77720,"Delta":801419453},{"NoteNumber":65,"Velocity":49,"Duration":77720,"SoundDuration":77720,"Delta":801419453},{"NoteNumber":69,"Velocity":49,"Duration":77720,"SoundDuration":77720,"Delta":801419453},{"NoteNumber":54,"Velocity":54,"Duration":77720,"SoundDuration":77720,"Delta":801419453},{"NoteNumber":42,"Velocity":45,"Duration":77720,"SoundDuration":77720,"Delta":801419453},{"NoteNumber":82,"Velocity":64,"Duration":73529,"SoundDuration":73529,"Delta":801574894},{"NoteNumber":70,"Velocity":54,"Duration":73529,"SoundDuration":73529,"Delta":801574894},{"NoteNumber":73,"Velocity":54,"Duration":73529,"SoundDuration":73529,"Delta":801574894},{"NoteNumber":53,"Velocity":60,"Duration":73529,"SoundDuration":73529,"Delta":801574894},{"NoteNumber":41,"Velocity":51,"Duration":73529,"SoundDuration":73529,"Delta":801574894},{"NoteNumber":54,"Velocity":55,"Duration":78947,"SoundDuration":78947,"Delta":801721953},{"NoteNumber":42,"Velocity":46,"Duration":78947,"SoundDuration":78947,"Delta":801721953},{"NoteNumber":82,"Velocity":68,"Duration":35377,"SoundDuration":35377,"Delta":801879847},{"NoteNumber":70,"Velocity":53,"Duration":35377,"SoundDuration":35377,"Delta":801879847},{"NoteNumber":73,"Velocity":55,"Duration":35377,"SoundDuration":35377,"Delta":801879847},{"NoteNumber":53,"Velocity":60,"Duration":35377,"SoundDuration":35377,"Delta":801879847},{"NoteNumber":41,"Velocity":51,"Duration":35377,"SoundDuration":35377,"Delta":801879847},{"NoteNumber":70,"Velocity":51,"Duration":39266,"SoundDuration":39266,"Delta":802021357},{"NoteNumber":73,"Velocity":51,"Duration":39266,"SoundDuration":39266,"Delta":802021357},{"NoteNumber":82,"Velocity":68,"Duration":39266,"SoundDuration":39266,"Delta":802021357},{"NoteNumber":54,"Velocity":54,"Duration":39266,"SoundDuration":39266,"Delta":802021357},{"NoteNumber":42,"Velocity":45,"Duration":39266,"SoundDuration":39266,"Delta":802021357},{"NoteNumber":82,"Velocity":63,"Duration":326087,"SoundDuration":326087,"Delta":802178425},{"NoteNumber":70,"Velocity":54,"Duration":326087,"SoundDuration":326087,"Delta":802178425},{"NoteNumber":73,"Velocity":54,"Duration":326087,"SoundDuration":326087,"Delta":802178425},{"NoteNumber":53,"Velocity":61,"Duration":81521,"SoundDuration":81521,"Delta":802178425},{"NoteNumber":41,"Velocity":51,"Duration":81521,"SoundDuration":81521,"Delta":802178425},{"NoteNumber":58,"Velocity":54,"Duration":81521,"SoundDuration":81521,"Delta":802341468},{"NoteNumber":46,"Velocity":45,"Duration":81521,"SoundDuration":81521,"Delta":802341468},{"NoteNumber":85,"Velocity":58,"Duration":73529,"SoundDuration":73529,"Delta":802504512},{"NoteNumber":73,"Velocity":49,"Duration":73529,"SoundDuration":73529,"Delta":802504512},{"NoteNumber":77,"Velocity":49,"Duration":73529,"SoundDuration":73529,"Delta":802504512},{"NoteNumber":57,"Velocity":62,"Duration":73529,"SoundDuration":73529,"Delta":802504512},{"NoteNumber":45,"Velocity":52,"Duration":73529,"SoundDuration":73529,"Delta":802504512},{"NoteNumber":82,"Velocity":58,"Duration":78125,"SoundDuration":78125,"Delta":802651571},{"NoteNumber":70,"Velocity":49,"Duration":78125,"SoundDuration":78125,"Delta":802651571},{"NoteNumber":73,"Velocity":49,"Duration":78125,"SoundDuration":78125,"Delta":802651571},{"NoteNumber":54,"Velocity":54,"Duration":78125,"SoundDuration":78125,"Delta":802651571},{"NoteNumber":42,"Velocity":45,"Duration":78125,"SoundDuration":78125,"Delta":802651571},{"NoteNumber":81,"Velocity":63,"Duration":73529,"SoundDuration":73529,"Delta":802807821},{"NoteNumber":69,"Velocity":54,"Duration":73529,"SoundDuration":73529,"Delta":802807821},{"NoteNumber":72,"Velocity":54,"Duration":73529,"SoundDuration":73529,"Delta":802807821},{"NoteNumber":53,"Velocity":60,"Duration":73529,"SoundDuration":73529,"Delta":802807821},{"NoteNumber":41,"Velocity":51,"Duration":73529,"SoundDuration":73529,"Delta":802807821},{"NoteNumber":54,"Velocity":55,"Duration":78947,"SoundDuration":78947,"Delta":802954880},{"NoteNumber":42,"Velocity":46,"Duration":78947,"SoundDuration":78947,"Delta":802954880},{"NoteNumber":77,"Velocity":58,"Duration":83333,"SoundDuration":83333,"Delta":803112774},{"NoteNumber":65,"Velocity":49,"Duration":83333,"SoundDuration":83333,"Delta":803112774},{"NoteNumber":69,"Velocity":49,"Duration":83333,"SoundDuration":83333,"Delta":803112774},{"NoteNumber":53,"Velocity":60,"Duration":83333,"SoundDuration":83333,"Delta":803112774},{"NoteNumber":41,"Velocity":51,"Duration":83333,"SoundDuration":83333,"Delta":803112774},{"NoteNumber":54,"Velocity":54,"Duration":83333,"SoundDuration":83333,"Delta":803279441},{"NoteNumber":42,"Velocity":45,"Duration":83333,"SoundDuration":83333,"Delta":803279441},{"NoteNumber":89,"Velocity":70,"Duration":317459,"SoundDuration":317459,"Delta":803446107},{"NoteNumber":77,"Velocity":59,"Duration":317459,"SoundDuration":317459,"Delta":803446107},{"NoteNumber":81,"Velocity":59,"Duration":317459,"SoundDuration":317459,"Delta":803446107},{"NoteNumber":53,"Velocity":64,"Duration":79365,"SoundDuration":79365,"Delta":803446107},{"NoteNumber":41,"Velocity":53,"Duration":79365,"SoundDuration":79365,"Delta":803446107},{"NoteNumber":60,"Velocity":56,"Duration":79365,"SoundDuration":79365,"Delta":803604837},{"NoteNumber":48,"Velocity":47,"Duration":79365,"SoundDuration":79365,"Delta":803604837},{"NoteNumber":89,"Velocity":63,"Duration":73529,"SoundDuration":73529,"Delta":803763567},{"NoteNumber":77,"Velocity":53,"Duration":73529,"SoundDuration":73529,"Delta":803763567},{"NoteNumber":81,"Velocity":53,"Duration":73529,"SoundDuration":73529,"Delta":803763567},{"NoteNumber":57,"Velocity":65,"Duration":73529,"SoundDuration":73529,"Delta":803763567},{"NoteNumber":45,"Velocity":54,"Duration":73529,"SoundDuration":73529,"Delta":803763567},{"NoteNumber":89,"Velocity":63,"Duration":77720,"SoundDuration":77720,"Delta":803910626},{"NoteNumber":77,"Velocity":53,"Duration":77720,"SoundDuration":77720,"Delta":803910626},{"NoteNumber":81,"Velocity":53,"Duration":77720,"SoundDuration":77720,"Delta":803910626},{"NoteNumber":54,"Velocity":56,"Duration":77720,"SoundDuration":77720,"Delta":803910626},{"NoteNumber":42,"Velocity":47,"Duration":77720,"SoundDuration":77720,"Delta":803910626},{"NoteNumber":94,"Velocity":70,"Duration":73529,"SoundDuration":73529,"Delta":804066067},{"NoteNumber":82,"Velocity":59,"Duration":73529,"SoundDuration":73529,"Delta":804066067},{"NoteNumber":85,"Velocity":59,"Duration":73529,"SoundDuration":73529,"Delta":804066067},{"NoteNumber":53,"Velocity":63,"Duration":73529,"SoundDuration":73529,"Delta":804066067},{"NoteNumber":41,"Velocity":53,"Duration":73529,"SoundDuration":73529,"Delta":804066067},{"NoteNumber":54,"Velocity":57,"Duration":78947,"SoundDuration":78947,"Delta":804213126},{"NoteNumber":42,"Velocity":48,"Duration":78947,"SoundDuration":78947,"Delta":804213126},{"NoteNumber":94,"Velocity":70,"Duration":35544,"SoundDuration":35544,"Delta":804371020},{"NoteNumber":82,"Velocity":58,"Duration":35544,"SoundDuration":35544,"Delta":804371020},{"NoteNumber":85,"Velocity":59,"Duration":35544,"SoundDuration":35544,"Delta":804371020},{"NoteNumber":53,"Velocity":63,"Duration":35544,"SoundDuration":35544,"Delta":804371020},{"NoteNumber":41,"Velocity":53,"Duration":35544,"SoundDuration":35544,"Delta":804371020},{"NoteNumber":82,"Velocity":56,"Duration":39266,"SoundDuration":39266,"Delta":804513200},{"NoteNumber":85,"Velocity":57,"Duration":39266,"SoundDuration":39266,"Delta":804513200},{"NoteNumber":94,"Velocity":70,"Duration":39266,"SoundDuration":39266,"Delta":804513200},{"NoteNumber":54,"Velocity":56,"Duration":39266,"SoundDuration":39266,"Delta":804513200},{"NoteNumber":42,"Velocity":47,"Duration":39266,"SoundDuration":39266,"Delta":804513200},{"NoteNumber":94,"Velocity":69,"Duration":326087,"SoundDuration":326087,"Delta":804670268},{"NoteNumber":82,"Velocity":59,"Duration":326087,"SoundDuration":326087,"Delta":804670268},{"NoteNumber":85,"Velocity":59,"Duration":326087,"SoundDuration":326087,"Delta":804670268},{"NoteNumber":53,"Velocity":64,"Duration":81521,"SoundDuration":81521,"Delta":804670268},{"NoteNumber":41,"Velocity":53,"Duration":81521,"SoundDuration":81521,"Delta":804670268},{"NoteNumber":61,"Velocity":56,"Duration":81521,"SoundDuration":81521,"Delta":804833312},{"NoteNumber":49,"Velocity":47,"Duration":81521,"SoundDuration":81521,"Delta":804833312},{"NoteNumber":97,"Velocity":63,"Duration":73529,"SoundDuration":73529,"Delta":804996355},{"NoteNumber":85,"Velocity":53,"Duration":73529,"SoundDuration":73529,"Delta":804996355},{"NoteNumber":89,"Velocity":53,"Duration":73529,"SoundDuration":73529,"Delta":804996355},{"NoteNumber":58,"Velocity":65,"Duration":73529,"SoundDuration":73529,"Delta":804996355},{"NoteNumber":46,"Velocity":54,"Duration":73529,"SoundDuration":73529,"Delta":804996355},{"NoteNumber":94,"Velocity":63,"Duration":78125,"SoundDuration":78125,"Delta":805143414},{"NoteNumber":82,"Velocity":53,"Duration":78125,"SoundDuration":78125,"Delta":805143414},{"NoteNumber":85,"Velocity":53,"Duration":78125,"SoundDuration":78125,"Delta":805143414},{"NoteNumber":54,"Velocity":56,"Duration":78125,"SoundDuration":78125,"Delta":805143414},{"NoteNumber":42,"Velocity":47,"Duration":78125,"SoundDuration":78125,"Delta":805143414},{"NoteNumber":93,"Velocity":74,"Duration":304953,"SoundDuration":304953,"Delta":805299664},{"NoteNumber":81,"Velocity":62,"Duration":304953,"SoundDuration":304953,"Delta":805299664},{"NoteNumber":84,"Velocity":62,"Duration":304953,"SoundDuration":304953,"Delta":805299664},{"NoteNumber":53,"Velocity":61,"Duration":73529,"SoundDuration":73529,"Delta":805299664},{"NoteNumber":41,"Velocity":51,"Duration":73529,"SoundDuration":73529,"Delta":805299664},{"NoteNumber":54,"Velocity":63,"Duration":78947,"SoundDuration":78947,"Delta":805446723},{"NoteNumber":42,"Velocity":53,"Duration":78947,"SoundDuration":78947,"Delta":805446723},{"NoteNumber":96,"Velocity":79,"Duration":314135,"SoundDuration":314135,"Delta":805604618},{"NoteNumber":93,"Velocity":67,"Duration":314135,"SoundDuration":314135,"Delta":805604618},{"NoteNumber":89,"Velocity":67,"Duration":314135,"SoundDuration":314135,"Delta":805604618},{"NoteNumber":84,"Velocity":67,"Duration":314135,"SoundDuration":314135,"Delta":805604618},{"NoteNumber":57,"Velocity":64,"Duration":78533,"SoundDuration":78533,"Delta":805604618},{"NoteNumber":45,"Velocity":54,"Duration":78533,"SoundDuration":78533,"Delta":805604618},{"NoteNumber":58,"Velocity":66,"Duration":78533,"SoundDuration":78533,"Delta":805761686},{"NoteNumber":46,"Velocity":56,"Duration":78533,"SoundDuration":78533,"Delta":805761686},{"NoteNumber":97,"Velocity":81,"Duration":304569,"SoundDuration":304569,"Delta":805918754},{"NoteNumber":94,"Velocity":68,"Duration":304569,"SoundDuration":304569,"Delta":805918754},{"NoteNumber":89,"Velocity":68,"Duration":304569,"SoundDuration":304569,"Delta":805918754},{"NoteNumber":85,"Velocity":68,"Duration":304569,"SoundDuration":304569,"Delta":805918754},{"NoteNumber":60,"Velocity":69,"Duration":76142,"SoundDuration":76142,"Delta":805918754},{"NoteNumber":48,"Velocity":58,"Duration":76142,"SoundDuration":76142,"Delta":805918754},{"NoteNumber":61,"Velocity":70,"Duration":76142,"SoundDuration":76142,"Delta":806071038},{"NoteNumber":49,"Velocity":59,"Duration":76142,"SoundDuration":76142,"Delta":806071038},{"NoteNumber":94,"Velocity":79,"Duration":299999,"SoundDuration":299999,"Delta":806223323},{"NoteNumber":82,"Velocity":67,"Duration":299999,"SoundDuration":299999,"Delta":806223323},{"NoteNumber":85,"Velocity":67,"Duration":299999,"SoundDuration":299999,"Delta":806223323},{"NoteNumber":89,"Velocity":67,"Duration":299999,"SoundDuration":299999,"Delta":806223323},{"NoteNumber":64,"Velocity":71,"Duration":75000,"SoundDuration":75000,"Delta":806223323},{"NoteNumber":52,"Velocity":60,"Duration":75000,"SoundDuration":75000,"Delta":806223323},{"NoteNumber":65,"Velocity":73,"Duration":75000,"SoundDuration":75000,"Delta":806373323},{"NoteNumber":53,"Velocity":62,"Duration":75000,"SoundDuration":75000,"Delta":806373323},{"NoteNumber":93,"Velocity":80,"Duration":306958,"SoundDuration":306958,"Delta":806523323},{"NoteNumber":81,"Velocity":68,"Duration":306958,"SoundDuration":306958,"Delta":806523323},{"NoteNumber":84,"Velocity":68,"Duration":306958,"SoundDuration":306958,"Delta":806523323},{"NoteNumber":89,"Velocity":68,"Duration":306958,"SoundDuration":306958,"Delta":806523323},{"NoteNumber":65,"Velocity":74,"Duration":75000,"SoundDuration":75000,"Delta":806523323},{"NoteNumber":53,"Velocity":62,"Duration":75000,"SoundDuration":75000,"Delta":806523323},{"NoteNumber":64,"Velocity":76,"Duration":77319,"SoundDuration":77319,"Delta":806675642},{"NoteNumber":52,"Velocity":64,"Duration":77319,"SoundDuration":77319,"Delta":806675642},{"NoteNumber":96,"Velocity":79,"Duration":301508,"SoundDuration":301508,"Delta":806830281},{"NoteNumber":93,"Velocity":67,"Duration":301508,"SoundDuration":301508,"Delta":806830281},{"NoteNumber":89,"Velocity":67,"Duration":301508,"SoundDuration":301508,"Delta":806830281},{"NoteNumber":84,"Velocity":67,"Duration":301508,"SoundDuration":301508,"Delta":806830281},{"NoteNumber":61,"Velocity":75,"Duration":75377,"SoundDuration":75377,"Delta":806830281},{"NoteNumber":49,"Velocity":63,"Duration":75377,"SoundDuration":75377,"Delta":806830281},{"NoteNumber":60,"Velocity":74,"Duration":75377,"SoundDuration":75377,"Delta":806981035},{"NoteNumber":48,"Velocity":62,"Duration":75377,"SoundDuration":75377,"Delta":806981035},{"NoteNumber":97,"Velocity":84,"Duration":299999,"SoundDuration":299999,"Delta":807131789},{"NoteNumber":94,"Velocity":71,"Duration":299999,"SoundDuration":299999,"Delta":807131789},{"NoteNumber":89,"Velocity":71,"Duration":299999,"SoundDuration":299999,"Delta":807131789},{"NoteNumber":85,"Velocity":71,"Duration":299999,"SoundDuration":299999,"Delta":807131789},{"NoteNumber":58,"Velocity":72,"Duration":75000,"SoundDuration":75000,"Delta":807131789},{"NoteNumber":46,"Velocity":61,"Duration":75000,"SoundDuration":75000,"Delta":807131789},{"NoteNumber":57,"Velocity":71,"Duration":75000,"SoundDuration":75000,"Delta":807281789},{"NoteNumber":45,"Velocity":60,"Duration":75000,"SoundDuration":75000,"Delta":807281789},{"NoteNumber":94,"Velocity":79,"Duration":304591,"SoundDuration":304591,"Delta":807431789},{"NoteNumber":89,"Velocity":67,"Duration":304591,"SoundDuration":304591,"Delta":807431789},{"NoteNumber":85,"Velocity":67,"Duration":304591,"SoundDuration":304591,"Delta":807431789},{"NoteNumber":82,"Velocity":67,"Duration":304591,"SoundDuration":304591,"Delta":807431789},{"NoteNumber":54,"Velocity":70,"Duration":75000,"SoundDuration":75000,"Delta":807431789},{"NoteNumber":42,"Velocity":59,"Duration":75000,"SoundDuration":75000,"Delta":807431789},{"NoteNumber":53,"Velocity":69,"Duration":76530,"SoundDuration":76530,"Delta":807583320},{"NoteNumber":41,"Velocity":58,"Duration":76530,"SoundDuration":76530,"Delta":807583320},{"NoteNumber":89,"Velocity":62,"Duration":300119,"SoundDuration":300119,"Delta":807736381},{"NoteNumber":93,"Velocity":74,"Duration":300119,"SoundDuration":300119,"Delta":807736381},{"NoteNumber":81,"Velocity":62,"Duration":300119,"SoundDuration":300119,"Delta":807736381},{"NoteNumber":84,"Velocity":62,"Duration":300119,"SoundDuration":300119,"Delta":807736381},{"NoteNumber":53,"Velocity":61,"Duration":73529,"SoundDuration":73529,"Delta":807736381},{"NoteNumber":41,"Velocity":51,"Duration":73529,"SoundDuration":73529,"Delta":807736381},{"NoteNumber":54,"Velocity":63,"Duration":76530,"SoundDuration":76530,"Delta":807883440},{"NoteNumber":42,"Velocity":53,"Duration":76530,"SoundDuration":76530,"Delta":807883440},{"NoteNumber":101,"Velocity":79,"Duration":303534,"SoundDuration":303534,"Delta":808036501},{"NoteNumber":96,"Velocity":67,"Duration":303534,"SoundDuration":303534,"Delta":808036501},{"NoteNumber":93,"Velocity":67,"Duration":303534,"SoundDuration":303534,"Delta":808036501},{"NoteNumber":89,"Velocity":67,"Duration":303534,"SoundDuration":303534,"Delta":808036501},{"NoteNumber":57,"Velocity":64,"Duration":78533,"SoundDuration":78533,"Delta":808036501},{"NoteNumber":45,"Velocity":54,"Duration":78533,"SoundDuration":78533,"Delta":808036501},{"NoteNumber":58,"Velocity":66,"Duration":74999,"SoundDuration":74999,"Delta":808190035},{"NoteNumber":46,"Velocity":56,"Duration":74999,"SoundDuration":74999,"Delta":808190035},{"NoteNumber":101,"Velocity":81,"Duration":267562,"SoundDuration":267562,"Delta":808340035},{"NoteNumber":97,"Velocity":68,"Duration":267562,"SoundDuration":267562,"Delta":808340035},{"NoteNumber":94,"Velocity":68,"Duration":267562,"SoundDuration":267562,"Delta":808340035},{"NoteNumber":89,"Velocity":68,"Duration":267562,"SoundDuration":267562,"Delta":808340035},{"NoteNumber":60,"Velocity":69,"Duration":74257,"SoundDuration":74257,"Delta":808340035},{"NoteNumber":48,"Velocity":58,"Duration":74257,"SoundDuration":74257,"Delta":808340035},{"NoteNumber":61,"Velocity":70,"Duration":79365,"SoundDuration":79365,"Delta":808488550},{"NoteNumber":49,"Velocity":59,"Duration":79365,"SoundDuration":79365,"Delta":808488550},{"NoteNumber":85,"Velocity":75,"Duration":299411,"SoundDuration":299411,"Delta":808607597},{"NoteNumber":94,"Velocity":78,"Duration":279570,"SoundDuration":279570,"Delta":808627438},{"NoteNumber":101,"Velocity":82,"Duration":259729,"SoundDuration":259729,"Delta":808647280},{"NoteNumber":64,"Velocity":71,"Duration":75000,"SoundDuration":75000,"Delta":808647280},{"NoteNumber":52,"Velocity":60,"Duration":75000,"SoundDuration":75000,"Delta":808647280},{"NoteNumber":65,"Velocity":73,"Duration":73891,"SoundDuration":73891,"Delta":808796171},{"NoteNumber":53,"Velocity":62,"Duration":73891,"SoundDuration":73891,"Delta":808796171},{"NoteNumber":84,"Velocity":77,"Duration":341278,"SoundDuration":341278,"Delta":808907009},{"NoteNumber":93,"Velocity":81,"Duration":322805,"SoundDuration":322805,"Delta":808925482},{"NoteNumber":101,"Velocity":84,"Duration":304332,"SoundDuration":304332,"Delta":808943955},{"NoteNumber":65,"Velocity":74,"Duration":73891,"SoundDuration":73891,"Delta":808943955},{"NoteNumber":53,"Velocity":62,"Duration":73891,"SoundDuration":73891,"Delta":808943955},{"NoteNumber":64,"Velocity":76,"Duration":77720,"SoundDuration":77720,"Delta":809092847},{"NoteNumber":52,"Velocity":64,"Duration":77720,"SoundDuration":77720,"Delta":809092847},{"NoteNumber":101,"Velocity":79,"Duration":300980,"SoundDuration":300980,"Delta":809248287},{"NoteNumber":96,"Velocity":67,"Duration":300980,"SoundDuration":300980,"Delta":809248287},{"NoteNumber":93,"Velocity":67,"Duration":300980,"SoundDuration":300980,"Delta":809248287},{"NoteNumber":89,"Velocity":67,"Duration":300980,"SoundDuration":300980,"Delta":809248287},{"NoteNumber":61,"Velocity":75,"Duration":73170,"SoundDuration":73170,"Delta":809248287},{"NoteNumber":49,"Velocity":63,"Duration":73170,"SoundDuration":73170,"Delta":809248287},{"NoteNumber":60,"Velocity":74,"Duration":77319,"SoundDuration":77319,"Delta":809394629},{"NoteNumber":48,"Velocity":62,"Duration":77319,"SoundDuration":77319,"Delta":809394629},{"NoteNumber":101,"Velocity":84,"Duration":274114,"SoundDuration":274114,"Delta":809549268},{"NoteNumber":97,"Velocity":71,"Duration":274114,"SoundDuration":274114,"Delta":809549268},{"NoteNumber":94,"Velocity":71,"Duration":274114,"SoundDuration":274114,"Delta":809549268},{"NoteNumber":89,"Velocity":71,"Duration":274114,"SoundDuration":274114,"Delta":809549268},{"NoteNumber":58,"Velocity":72,"Duration":79365,"SoundDuration":79365,"Delta":809549268},{"NoteNumber":46,"Velocity":61,"Duration":79365,"SoundDuration":79365,"Delta":809549268},{"NoteNumber":57,"Velocity":71,"Duration":76922,"SoundDuration":76922,"Delta":809707998},{"NoteNumber":45,"Velocity":60,"Duration":76922,"SoundDuration":76922,"Delta":809707998},{"NoteNumber":85,"Velocity":81,"Duration":310962,"SoundDuration":310962,"Delta":809823382},{"NoteNumber":94,"Velocity":84,"Duration":291731,"SoundDuration":291731,"Delta":809842613},{"NoteNumber":101,"Velocity":87,"Duration":272500,"SoundDuration":272500,"Delta":809861844},{"NoteNumber":54,"Velocity":70,"Duration":76922,"SoundDuration":76922,"Delta":809861844},{"NoteNumber":42,"Velocity":59,"Duration":76922,"SoundDuration":76922,"Delta":809861844},{"NoteNumber":53,"Velocity":69,"Duration":79365,"SoundDuration":79365,"Delta":810015297},{"NoteNumber":41,"Velocity":58,"Duration":79365,"SoundDuration":79365,"Delta":810015297},{"NoteNumber":84,"Velocity":80,"Duration":352764,"SoundDuration":352764,"Delta":810134345},{"NoteNumber":93,"Velocity":83,"Duration":332923,"SoundDuration":332923,"Delta":810154186},{"NoteNumber":101,"Velocity":85,"Duration":313082,"SoundDuration":313082,"Delta":810174027},{"NoteNumber":53,"Velocity":69,"Duration":158729,"SoundDuration":158729,"Delta":810174027},{"NoteNumber":41,"Velocity":51,"Duration":313082,"SoundDuration":313082,"Delta":810174027},{"NoteNumber":45,"Velocity":51,"Duration":158729,"SoundDuration":158729,"Delta":810174027},{"NoteNumber":54,"Velocity":53,"Duration":154352,"SoundDuration":154352,"Delta":810332757},{"NoteNumber":46,"Velocity":45,"Duration":154352,"SoundDuration":154352,"Delta":810332757},{"NoteNumber":57,"Velocity":55,"Duration":152274,"SoundDuration":152274,"Delta":810487110},{"NoteNumber":48,"Velocity":46,"Duration":152274,"SoundDuration":152274,"Delta":810487110},{"NoteNumber":58,"Velocity":58,"Duration":151515,"SoundDuration":151515,"Delta":810639384},{"NoteNumber":49,"Velocity":49,"Duration":151515,"SoundDuration":151515,"Delta":810639384},{"NoteNumber":60,"Velocity":60,"Duration":151124,"SoundDuration":151124,"Delta":810790899},{"NoteNumber":51,"Velocity":51,"Duration":151124,"SoundDuration":151124,"Delta":810790899},{"NoteNumber":61,"Velocity":62,"Duration":150754,"SoundDuration":150754,"Delta":810942024},{"NoteNumber":53,"Velocity":52,"Duration":150754,"SoundDuration":150754,"Delta":810942024},{"NoteNumber":63,"Velocity":64,"Duration":150116,"SoundDuration":150116,"Delta":811092778},{"NoteNumber":54,"Velocity":54,"Duration":150116,"SoundDuration":150116,"Delta":811092778},{"NoteNumber":65,"Velocity":66,"Duration":162161,"SoundDuration":162161,"Delta":811242895},{"NoteNumber":57,"Velocity":56,"Duration":162161,"SoundDuration":162161,"Delta":811242895},{"NoteNumber":66,"Velocity":68,"Duration":149999,"SoundDuration":149999,"Delta":811405057},{"NoteNumber":58,"Velocity":57,"Duration":149999,"SoundDuration":149999,"Delta":811405057},{"NoteNumber":65,"Velocity":68,"Duration":149999,"SoundDuration":149999,"Delta":811555057},{"NoteNumber":57,"Velocity":57,"Duration":149999,"SoundDuration":149999,"Delta":811555057},{"NoteNumber":63,"Velocity":67,"Duration":149999,"SoundDuration":149999,"Delta":811705057},{"NoteNumber":54,"Velocity":56,"Duration":149999,"SoundDuration":149999,"Delta":811705057},{"NoteNumber":61,"Velocity":65,"Duration":150009,"SoundDuration":150009,"Delta":811855057},{"NoteNumber":53,"Velocity":55,"Duration":150009,"SoundDuration":150009,"Delta":811855057},{"NoteNumber":60,"Velocity":64,"Duration":150754,"SoundDuration":150754,"Delta":812005066},{"NoteNumber":51,"Velocity":54,"Duration":150754,"SoundDuration":150754,"Delta":812005066},{"NoteNumber":58,"Velocity":63,"Duration":150754,"SoundDuration":150754,"Delta":812155820},{"NoteNumber":49,"Velocity":53,"Duration":150754,"SoundDuration":150754,"Delta":812155820},{"NoteNumber":57,"Velocity":61,"Duration":151397,"SoundDuration":151397,"Delta":812306574},{"NoteNumber":48,"Velocity":51,"Duration":151397,"SoundDuration":151397,"Delta":812306574},{"NoteNumber":54,"Velocity":60,"Duration":151515,"SoundDuration":151515,"Delta":812457972},{"NoteNumber":46,"Velocity":51,"Duration":151515,"SoundDuration":151515,"Delta":812457972},{"NoteNumber":55,"Velocity":69,"Duration":158729,"SoundDuration":158729,"Delta":812609487},{"NoteNumber":41,"Velocity":51,"Duration":313082,"SoundDuration":313082,"Delta":812609487},{"NoteNumber":47,"Velocity":51,"Duration":158729,"SoundDuration":158729,"Delta":812609487},{"NoteNumber":56,"Velocity":53,"Duration":154352,"SoundDuration":154352,"Delta":812768217},{"NoteNumber":48,"Velocity":45,"Duration":154352,"SoundDuration":154352,"Delta":812768217},{"NoteNumber":59,"Velocity":55,"Duration":152274,"SoundDuration":152274,"Delta":812922569},{"NoteNumber":50,"Velocity":46,"Duration":152274,"SoundDuration":152274,"Delta":812922569},{"NoteNumber":60,"Velocity":58,"Duration":151515,"SoundDuration":151515,"Delta":813074844},{"NoteNumber":51,"Velocity":49,"Duration":151515,"SoundDuration":151515,"Delta":813074844},{"NoteNumber":62,"Velocity":60,"Duration":151124,"SoundDuration":151124,"Delta":813226359},{"NoteNumber":53,"Velocity":51,"Duration":151124,"SoundDuration":151124,"Delta":813226359},{"NoteNumber":63,"Velocity":62,"Duration":150754,"SoundDuration":150754,"Delta":813377484},{"NoteNumber":55,"Velocity":52,"Duration":150754,"SoundDuration":150754,"Delta":813377484},{"NoteNumber":65,"Velocity":64,"Duration":150116,"SoundDuration":150116,"Delta":813528238},{"NoteNumber":56,"Velocity":54,"Duration":150116,"SoundDuration":150116,"Delta":813528238},{"NoteNumber":67,"Velocity":66,"Duration":162161,"SoundDuration":162161,"Delta":813678354},{"NoteNumber":59,"Velocity":56,"Duration":162161,"SoundDuration":162161,"Delta":813678354},{"NoteNumber":68,"Velocity":68,"Duration":149999,"SoundDuration":149999,"Delta":813840516},{"NoteNumber":60,"Velocity":57,"Duration":149999,"SoundDuration":149999,"Delta":813840516},{"NoteNumber":67,"Velocity":68,"Duration":149999,"SoundDuration":149999,"Delta":813990516},{"NoteNumber":59,"Velocity":57,"Duration":149999,"SoundDuration":149999,"Delta":813990516},{"NoteNumber":65,"Velocity":67,"Duration":149999,"SoundDuration":149999,"Delta":814140516},{"NoteNumber":56,"Velocity":56,"Duration":149999,"SoundDuration":149999,"Delta":814140516},{"NoteNumber":63,"Velocity":65,"Duration":150009,"SoundDuration":150009,"Delta":814290516},{"NoteNumber":55,"Velocity":55,"Duration":150009,"SoundDuration":150009,"Delta":814290516},{"NoteNumber":62,"Velocity":64,"Duration":150754,"SoundDuration":150754,"Delta":814440526},{"NoteNumber":53,"Velocity":54,"Duration":150754,"SoundDuration":150754,"Delta":814440526},{"NoteNumber":60,"Velocity":63,"Duration":150754,"SoundDuration":150754,"Delta":814591280},{"NoteNumber":51,"Velocity":53,"Duration":150754,"SoundDuration":150754,"Delta":814591280},{"NoteNumber":59,"Velocity":61,"Duration":151397,"SoundDuration":151397,"Delta":814742034},{"NoteNumber":50,"Velocity":51,"Duration":151397,"SoundDuration":151397,"Delta":814742034},{"NoteNumber":56,"Velocity":60,"Duration":159101,"SoundDuration":159101,"Delta":814893431},{"NoteNumber":48,"Velocity":51,"Duration":159101,"SoundDuration":159101,"Delta":814893431},{"NoteNumber":57,"Velocity":72,"Duration":154638,"SoundDuration":154638,"Delta":815052533},{"NoteNumber":41,"Velocity":50,"Duration":154638,"SoundDuration":154638,"Delta":815052533},{"NoteNumber":48,"Velocity":50,"Duration":154638,"SoundDuration":154638,"Delta":815052533},{"NoteNumber":51,"Velocity":50,"Duration":154638,"SoundDuration":154638,"Delta":815052533},{"NoteNumber":58,"Velocity":65,"Duration":153902,"SoundDuration":153902,"Delta":815207172},{"NoteNumber":50,"Velocity":52,"Duration":153902,"SoundDuration":153902,"Delta":815207172},{"NoteNumber":53,"Velocity":52,"Duration":153902,"SoundDuration":153902,"Delta":815207172},{"NoteNumber":60,"Velocity":67,"Duration":153247,"SoundDuration":153247,"Delta":815361074},{"NoteNumber":51,"Velocity":53,"Duration":153247,"SoundDuration":153247,"Delta":815361074},{"NoteNumber":55,"Velocity":53,"Duration":153247,"SoundDuration":153247,"Delta":815361074},{"NoteNumber":62,"Velocity":69,"Duration":152598,"SoundDuration":152598,"Delta":815514322},{"NoteNumber":53,"Velocity":55,"Duration":152598,"SoundDuration":152598,"Delta":815514322},{"NoteNumber":57,"Velocity":55,"Duration":152598,"SoundDuration":152598,"Delta":815514322},{"NoteNumber":63,"Velocity":70,"Duration":151954,"SoundDuration":151954,"Delta":815666920},{"NoteNumber":58,"Velocity":56,"Duration":151954,"SoundDuration":151954,"Delta":815666920},{"NoteNumber":55,"Velocity":56,"Duration":151954,"SoundDuration":151954,"Delta":815666920},{"NoteNumber":65,"Velocity":72,"Duration":151315,"SoundDuration":151315,"Delta":815818874},{"NoteNumber":60,"Velocity":57,"Duration":151315,"SoundDuration":151315,"Delta":815818874},{"NoteNumber":57,"Velocity":57,"Duration":151315,"SoundDuration":151315,"Delta":815818874},{"NoteNumber":67,"Velocity":74,"Duration":150681,"SoundDuration":150681,"Delta":815970189},{"NoteNumber":62,"Velocity":59,"Duration":150681,"SoundDuration":150681,"Delta":815970189},{"NoteNumber":58,"Velocity":59,"Duration":150681,"SoundDuration":150681,"Delta":815970189},{"NoteNumber":69,"Velocity":76,"Duration":149928,"SoundDuration":149928,"Delta":816120871},{"NoteNumber":63,"Velocity":60,"Duration":149928,"SoundDuration":149928,"Delta":816120871},{"NoteNumber":60,"Velocity":60,"Duration":149928,"SoundDuration":149928,"Delta":816120871},{"NoteNumber":72,"Velocity":81,"Duration":149253,"SoundDuration":149253,"Delta":816270800},{"NoteNumber":67,"Velocity":64,"Duration":149253,"SoundDuration":149253,"Delta":816270800},{"NoteNumber":53,"Velocity":64,"Duration":149253,"SoundDuration":149253,"Delta":816270800},{"NoteNumber":63,"Velocity":64,"Duration":149253,"SoundDuration":149253,"Delta":816270800},{"NoteNumber":70,"Velocity":76,"Duration":149698,"SoundDuration":149698,"Delta":816420053},{"NoteNumber":65,"Velocity":60,"Duration":149698,"SoundDuration":149698,"Delta":816420053},{"NoteNumber":62,"Velocity":60,"Duration":149698,"SoundDuration":149698,"Delta":816420053},{"NoteNumber":69,"Velocity":74,"Duration":150197,"SoundDuration":150197,"Delta":816569751},{"NoteNumber":63,"Velocity":59,"Duration":150197,"SoundDuration":150197,"Delta":816569751},{"NoteNumber":60,"Velocity":59,"Duration":150197,"SoundDuration":150197,"Delta":816569751},{"NoteNumber":67,"Velocity":72,"Duration":150754,"SoundDuration":150754,"Delta":816719949},{"NoteNumber":62,"Velocity":57,"Duration":150754,"SoundDuration":150754,"Delta":816719949},{"NoteNumber":58,"Velocity":57,"Duration":150754,"SoundDuration":150754,"Delta":816719949},{"NoteNumber":65,"Velocity":70,"Duration":151461,"SoundDuration":151461,"Delta":816870703},{"NoteNumber":60,"Velocity":56,"Duration":151461,"SoundDuration":151461,"Delta":816870703},{"NoteNumber":57,"Velocity":56,"Duration":151461,"SoundDuration":151461,"Delta":816870703},{"NoteNumber":63,"Velocity":68,"Duration":151973,"SoundDuration":151973,"Delta":817022164},{"NoteNumber":58,"Velocity":54,"Duration":151973,"SoundDuration":151973,"Delta":817022164},{"NoteNumber":55,"Velocity":54,"Duration":151973,"SoundDuration":151973,"Delta":817022164},{"NoteNumber":62,"Velocity":66,"Duration":152488,"SoundDuration":152488,"Delta":817174138},{"NoteNumber":57,"Velocity":52,"Duration":152488,"SoundDuration":152488,"Delta":817174138},{"NoteNumber":53,"Velocity":52,"Duration":152488,"SoundDuration":152488,"Delta":817174138},{"NoteNumber":60,"Velocity":64,"Duration":153136,"SoundDuration":153136,"Delta":817326626},{"NoteNumber":55,"Velocity":51,"Duration":153136,"SoundDuration":153136,"Delta":817326626},{"NoteNumber":51,"Velocity":51,"Duration":153136,"SoundDuration":153136,"Delta":817326626},{"NoteNumber":58,"Velocity":50,"Duration":154638,"SoundDuration":154638,"Delta":817479762},{"NoteNumber":63,"Velocity":72,"Duration":154638,"SoundDuration":154638,"Delta":817479762},{"NoteNumber":41,"Velocity":50,"Duration":154638,"SoundDuration":154638,"Delta":817479762},{"NoteNumber":55,"Velocity":50,"Duration":154638,"SoundDuration":154638,"Delta":817479762},{"NoteNumber":60,"Velocity":52,"Duration":153902,"SoundDuration":153902,"Delta":817634401},{"NoteNumber":65,"Velocity":65,"Duration":153902,"SoundDuration":153902,"Delta":817634401},{"NoteNumber":57,"Velocity":52,"Duration":153902,"SoundDuration":153902,"Delta":817634401},{"NoteNumber":62,"Velocity":53,"Duration":153247,"SoundDuration":153247,"Delta":817788304},{"NoteNumber":67,"Velocity":67,"Duration":153247,"SoundDuration":153247,"Delta":817788304},{"NoteNumber":58,"Velocity":53,"Duration":153247,"SoundDuration":153247,"Delta":817788304},{"NoteNumber":63,"Velocity":55,"Duration":152598,"SoundDuration":152598,"Delta":817941551},{"NoteNumber":69,"Velocity":69,"Duration":152598,"SoundDuration":152598,"Delta":817941551},{"NoteNumber":60,"Velocity":55,"Duration":152598,"SoundDuration":152598,"Delta":817941551},{"NoteNumber":70,"Velocity":70,"Duration":151954,"SoundDuration":151954,"Delta":818094149},{"NoteNumber":65,"Velocity":56,"Duration":151954,"SoundDuration":151954,"Delta":818094149},{"NoteNumber":62,"Velocity":56,"Duration":151954,"SoundDuration":151954,"Delta":818094149},{"NoteNumber":72,"Velocity":72,"Duration":151315,"SoundDuration":151315,"Delta":818246104},{"NoteNumber":67,"Velocity":57,"Duration":151315,"SoundDuration":151315,"Delta":818246104},{"NoteNumber":63,"Velocity":57,"Duration":151315,"SoundDuration":151315,"Delta":818246104},{"NoteNumber":74,"Velocity":74,"Duration":150681,"SoundDuration":150681,"Delta":818397419},{"NoteNumber":69,"Velocity":59,"Duration":150681,"SoundDuration":150681,"Delta":818397419},{"NoteNumber":65,"Velocity":59,"Duration":150681,"SoundDuration":150681,"Delta":818397419},{"NoteNumber":75,"Velocity":76,"Duration":149928,"SoundDuration":149928,"Delta":818548101},{"NoteNumber":70,"Velocity":60,"Duration":149928,"SoundDuration":149928,"Delta":818548101},{"NoteNumber":67,"Velocity":60,"Duration":149928,"SoundDuration":149928,"Delta":818548101},{"NoteNumber":79,"Velocity":81,"Duration":149253,"SoundDuration":149253,"Delta":818698029},{"NoteNumber":74,"Velocity":64,"Duration":149253,"SoundDuration":149253,"Delta":818698029},{"NoteNumber":70,"Velocity":64,"Duration":149253,"SoundDuration":149253,"Delta":818698029},{"NoteNumber":77,"Velocity":76,"Duration":149698,"SoundDuration":149698,"Delta":818847283},{"NoteNumber":72,"Velocity":60,"Duration":149698,"SoundDuration":149698,"Delta":818847283},{"NoteNumber":69,"Velocity":60,"Duration":149698,"SoundDuration":149698,"Delta":818847283},{"NoteNumber":75,"Velocity":74,"Duration":150197,"SoundDuration":150197,"Delta":818996981},{"NoteNumber":70,"Velocity":59,"Duration":150197,"SoundDuration":150197,"Delta":818996981},{"NoteNumber":67,"Velocity":59,"Duration":150197,"SoundDuration":150197,"Delta":818996981},{"NoteNumber":74,"Velocity":72,"Duration":161290,"SoundDuration":161290,"Delta":819147179},{"NoteNumber":69,"Velocity":57,"Duration":161290,"SoundDuration":161290,"Delta":819147179},{"NoteNumber":65,"Velocity":57,"Duration":161290,"SoundDuration":161290,"Delta":819147179},{"NoteNumber":72,"Velocity":64,"Duration":149253,"SoundDuration":149253,"Delta":819308469},{"NoteNumber":84,"Velocity":81,"Duration":149253,"SoundDuration":149253,"Delta":819308469},{"NoteNumber":75,"Velocity":64,"Duration":149253,"SoundDuration":149253,"Delta":819308469},{"NoteNumber":63,"Velocity":64,"Duration":149253,"SoundDuration":149253,"Delta":819308469},{"NoteNumber":67,"Velocity":64,"Duration":149253,"SoundDuration":149253,"Delta":819308469},{"NoteNumber":74,"Velocity":60,"Duration":149698,"SoundDuration":149698,"Delta":819457723},{"NoteNumber":82,"Velocity":76,"Duration":149698,"SoundDuration":149698,"Delta":819457723},{"NoteNumber":70,"Velocity":60,"Duration":149698,"SoundDuration":149698,"Delta":819457723},{"NoteNumber":65,"Velocity":64,"Duration":149698,"SoundDuration":149698,"Delta":819457723},{"NoteNumber":62,"Velocity":60,"Duration":149698,"SoundDuration":149698,"Delta":819457723},{"NoteNumber":69,"Velocity":59,"Duration":150197,"SoundDuration":150197,"Delta":819607421},{"NoteNumber":81,"Velocity":74,"Duration":150197,"SoundDuration":150197,"Delta":819607421},{"NoteNumber":72,"Velocity":59,"Duration":150197,"SoundDuration":150197,"Delta":819607421},{"NoteNumber":60,"Velocity":59,"Duration":150197,"SoundDuration":150197,"Delta":819607421},{"NoteNumber":63,"Velocity":59,"Duration":150197,"SoundDuration":150197,"Delta":819607421},{"NoteNumber":67,"Velocity":57,"Duration":162161,"SoundDuration":162161,"Delta":819757619},{"NoteNumber":79,"Velocity":72,"Duration":162161,"SoundDuration":162161,"Delta":819757619},{"NoteNumber":70,"Velocity":57,"Duration":162161,"SoundDuration":162161,"Delta":819757619},{"NoteNumber":58,"Velocity":57,"Duration":162161,"SoundDuration":162161,"Delta":819757619},{"NoteNumber":62,"Velocity":57,"Duration":162161,"SoundDuration":162161,"Delta":819757619},{"NoteNumber":75,"Velocity":64,"Duration":149253,"SoundDuration":149253,"Delta":819919781},{"NoteNumber":87,"Velocity":81,"Duration":149253,"SoundDuration":149253,"Delta":819919781},{"NoteNumber":79,"Velocity":64,"Duration":149253,"SoundDuration":149253,"Delta":819919781},{"NoteNumber":67,"Velocity":64,"Duration":149253,"SoundDuration":149253,"Delta":819919781},{"NoteNumber":70,"Velocity":64,"Duration":149253,"SoundDuration":149253,"Delta":819919781},{"NoteNumber":77,"Velocity":60,"Duration":149698,"SoundDuration":149698,"Delta":820069034},{"NoteNumber":86,"Velocity":76,"Duration":149698,"SoundDuration":149698,"Delta":820069034},{"NoteNumber":74,"Velocity":60,"Duration":149698,"SoundDuration":149698,"Delta":820069034},{"NoteNumber":65,"Velocity":60,"Duration":149698,"SoundDuration":149698,"Delta":820069034},{"NoteNumber":69,"Velocity":60,"Duration":149698,"SoundDuration":149698,"Delta":820069034},{"NoteNumber":72,"Velocity":59,"Duration":150197,"SoundDuration":150197,"Delta":820218733},{"NoteNumber":84,"Velocity":74,"Duration":150197,"SoundDuration":150197,"Delta":820218733},{"NoteNumber":75,"Velocity":59,"Duration":150197,"SoundDuration":150197,"Delta":820218733},{"NoteNumber":63,"Velocity":59,"Duration":150197,"SoundDuration":150197,"Delta":820218733},{"NoteNumber":67,"Velocity":59,"Duration":150197,"SoundDuration":150197,"Delta":820218733},{"NoteNumber":70,"Velocity":57,"Duration":159574,"SoundDuration":159574,"Delta":820368931},{"NoteNumber":82,"Velocity":72,"Duration":159574,"SoundDuration":159574,"Delta":820368931},{"NoteNumber":74,"Velocity":57,"Duration":159574,"SoundDuration":159574,"Delta":820368931},{"NoteNumber":62,"Velocity":57,"Duration":159574,"SoundDuration":159574,"Delta":820368931},{"NoteNumber":65,"Velocity":57,"Duration":159574,"SoundDuration":159574,"Delta":820368931},{"NoteNumber":79,"Velocity":64,"Duration":149253,"SoundDuration":149253,"Delta":820528505},{"NoteNumber":91,"Velocity":81,"Duration":149253,"SoundDuration":149253,"Delta":820528505},{"NoteNumber":82,"Velocity":64,"Duration":149253,"SoundDuration":149253,"Delta":820528505},{"NoteNumber":70,"Velocity":64,"Duration":149253,"SoundDuration":149253,"Delta":820528505},{"NoteNumber":74,"Velocity":64,"Duration":149253,"SoundDuration":149253,"Delta":820528505},{"NoteNumber":81,"Velocity":60,"Duration":149698,"SoundDuration":149698,"Delta":820677759},{"NoteNumber":89,"Velocity":76,"Duration":149698,"SoundDuration":149698,"Delta":820677759},{"NoteNumber":77,"Velocity":60,"Duration":149698,"SoundDuration":149698,"Delta":820677759},{"NoteNumber":69,"Velocity":60,"Duration":149698,"SoundDuration":149698,"Delta":820677759},{"NoteNumber":72,"Velocity":60,"Duration":149698,"SoundDuration":149698,"Delta":820677759},{"NoteNumber":75,"Velocity":59,"Duration":150197,"SoundDuration":150197,"Delta":820827457},{"NoteNumber":87,"Velocity":74,"Duration":150197,"SoundDuration":150197,"Delta":820827457},{"NoteNumber":79,"Velocity":59,"Duration":150197,"SoundDuration":150197,"Delta":820827457},{"NoteNumber":67,"Velocity":59,"Duration":150197,"SoundDuration":150197,"Delta":820827457},{"NoteNumber":70,"Velocity":59,"Duration":150197,"SoundDuration":150197,"Delta":820827457},{"NoteNumber":74,"Velocity":57,"Duration":170454,"SoundDuration":170454,"Delta":820977655},{"NoteNumber":86,"Velocity":72,"Duration":170454,"SoundDuration":170454,"Delta":820977655},{"NoteNumber":77,"Velocity":57,"Duration":170454,"SoundDuration":170454,"Delta":820977655},{"NoteNumber":65,"Velocity":57,"Duration":170454,"SoundDuration":170454,"Delta":820977655},{"NoteNumber":69,"Velocity":57,"Duration":170454,"SoundDuration":170454,"Delta":820977655},{"NoteNumber":84,"Velocity":64,"Duration":149253,"SoundDuration":149253,"Delta":821148109},{"NoteNumber":96,"Velocity":81,"Duration":149253,"SoundDuration":149253,"Delta":821148109},{"NoteNumber":87,"Velocity":64,"Duration":149253,"SoundDuration":149253,"Delta":821148109},{"NoteNumber":75,"Velocity":64,"Duration":149253,"SoundDuration":149253,"Delta":821148109},{"NoteNumber":79,"Velocity":64,"Duration":149253,"SoundDuration":149253,"Delta":821148109},{"NoteNumber":86,"Velocity":60,"Duration":149698,"SoundDuration":149698,"Delta":821297363},{"NoteNumber":94,"Velocity":76,"Duration":149698,"SoundDuration":149698,"Delta":821297363},{"NoteNumber":82,"Velocity":60,"Duration":149698,"SoundDuration":149698,"Delta":821297363},{"NoteNumber":74,"Velocity":60,"Duration":149698,"SoundDuration":149698,"Delta":821297363},{"NoteNumber":77,"Velocity":60,"Duration":149698,"SoundDuration":149698,"Delta":821297363},{"NoteNumber":81,"Velocity":59,"Duration":150197,"SoundDuration":150197,"Delta":821447061},{"NoteNumber":93,"Velocity":74,"Duration":150197,"SoundDuration":150197,"Delta":821447061},{"NoteNumber":84,"Velocity":59,"Duration":150197,"SoundDuration":150197,"Delta":821447061},{"NoteNumber":72,"Velocity":59,"Duration":150197,"SoundDuration":150197,"Delta":821447061},{"NoteNumber":75,"Velocity":59,"Duration":150197,"SoundDuration":150197,"Delta":821447061},{"NoteNumber":79,"Velocity":57,"Duration":187021,"SoundDuration":187021,"Delta":821597259},{"NoteNumber":91,"Velocity":72,"Duration":187021,"SoundDuration":187021,"Delta":821597259},{"NoteNumber":82,"Velocity":57,"Duration":187021,"SoundDuration":187021,"Delta":821597259},{"NoteNumber":70,"Velocity":57,"Duration":187021,"SoundDuration":187021,"Delta":821597259},{"NoteNumber":74,"Velocity":57,"Duration":187021,"SoundDuration":187021,"Delta":821597259},{"NoteNumber":99,"Velocity":75,"Duration":149933,"SoundDuration":149933,"Delta":821784281},{"NoteNumber":91,"Velocity":63,"Duration":149933,"SoundDuration":149933,"Delta":821784281},{"NoteNumber":87,"Velocity":63,"Duration":149933,"SoundDuration":149933,"Delta":821784281},{"NoteNumber":82,"Velocity":70,"Duration":149933,"SoundDuration":149933,"Delta":821784281},{"NoteNumber":79,"Velocity":59,"Duration":149933,"SoundDuration":149933,"Delta":821784281},{"NoteNumber":98,"Velocity":75,"Duration":142803,"SoundDuration":142803,"Delta":821934215},{"NoteNumber":86,"Velocity":63,"Duration":142803,"SoundDuration":142803,"Delta":821934215},{"NoteNumber":89,"Velocity":63,"Duration":142803,"SoundDuration":142803,"Delta":821934215},{"NoteNumber":81,"Velocity":70,"Duration":142803,"SoundDuration":142803,"Delta":821934215},{"NoteNumber":77,"Velocity":59,"Duration":142803,"SoundDuration":142803,"Delta":821934215},{"NoteNumber":96,"Velocity":75,"Duration":136513,"SoundDuration":136513,"Delta":822077018},{"NoteNumber":87,"Velocity":63,"Duration":136513,"SoundDuration":136513,"Delta":822077018},{"NoteNumber":84,"Velocity":63,"Duration":136513,"SoundDuration":136513,"Delta":822077018},{"NoteNumber":79,"Velocity":69,"Duration":136513,"SoundDuration":136513,"Delta":822077018},{"NoteNumber":75,"Velocity":58,"Duration":136513,"SoundDuration":136513,"Delta":822077018},{"NoteNumber":94,"Velocity":75,"Duration":130494,"SoundDuration":130494,"Delta":822213532},{"NoteNumber":86,"Velocity":63,"Duration":130494,"SoundDuration":130494,"Delta":822213532},{"NoteNumber":82,"Velocity":63,"Duration":130494,"SoundDuration":130494,"Delta":822213532},{"NoteNumber":77,"Velocity":69,"Duration":130494,"SoundDuration":130494,"Delta":822213532},{"NoteNumber":74,"Velocity":58,"Duration":130494,"SoundDuration":130494,"Delta":822213532},{"NoteNumber":93,"Velocity":74,"Duration":125126,"SoundDuration":125126,"Delta":822344027},{"NoteNumber":81,"Velocity":62,"Duration":125126,"SoundDuration":125126,"Delta":822344027},{"NoteNumber":84,"Velocity":62,"Duration":125126,"SoundDuration":125126,"Delta":822344027},{"NoteNumber":75,"Velocity":68,"Duration":125126,"SoundDuration":125126,"Delta":822344027},{"NoteNumber":72,"Velocity":57,"Duration":125126,"SoundDuration":125126,"Delta":822344027},{"NoteNumber":91,"Velocity":74,"Duration":120273,"SoundDuration":120273,"Delta":822469153},{"NoteNumber":79,"Velocity":62,"Duration":120273,"SoundDuration":120273,"Delta":822469153},{"NoteNumber":82,"Velocity":62,"Duration":120273,"SoundDuration":120273,"Delta":822469153},{"NoteNumber":74,"Velocity":68,"Duration":120273,"SoundDuration":120273,"Delta":822469153},{"NoteNumber":70,"Velocity":57,"Duration":120273,"SoundDuration":120273,"Delta":822469153},{"NoteNumber":89,"Velocity":74,"Duration":115489,"SoundDuration":115489,"Delta":822589426},{"NoteNumber":77,"Velocity":62,"Duration":115489,"SoundDuration":115489,"Delta":822589426},{"NoteNumber":81,"Velocity":62,"Duration":115489,"SoundDuration":115489,"Delta":822589426},{"NoteNumber":72,"Velocity":67,"Duration":115489,"SoundDuration":115489,"Delta":822589426},{"NoteNumber":69,"Velocity":56,"Duration":115489,"SoundDuration":115489,"Delta":822589426},{"NoteNumber":87,"Velocity":74,"Duration":111430,"SoundDuration":111430,"Delta":822704916},{"NoteNumber":75,"Velocity":62,"Duration":111430,"SoundDuration":111430,"Delta":822704916},{"NoteNumber":79,"Velocity":62,"Duration":111430,"SoundDuration":111430,"Delta":822704916},{"NoteNumber":70,"Velocity":67,"Duration":111430,"SoundDuration":111430,"Delta":822704916},{"NoteNumber":67,"Velocity":56,"Duration":111430,"SoundDuration":111430,"Delta":822704916},{"NoteNumber":86,"Velocity":74,"Duration":104228,"SoundDuration":104228,"Delta":822816346},{"NoteNumber":77,"Velocity":62,"Duration":104228,"SoundDuration":104228,"Delta":822816346},{"NoteNumber":74,"Velocity":62,"Duration":104228,"SoundDuration":104228,"Delta":822816346},{"NoteNumber":69,"Velocity":66,"Duration":104228,"SoundDuration":104228,"Delta":822816346},{"NoteNumber":65,"Velocity":56,"Duration":104228,"SoundDuration":104228,"Delta":822816346},{"NoteNumber":84,"Velocity":73,"Duration":102739,"SoundDuration":102739,"Delta":822920575},{"NoteNumber":72,"Velocity":62,"Duration":102739,"SoundDuration":102739,"Delta":822920575},{"NoteNumber":75,"Velocity":62,"Duration":102739,"SoundDuration":102739,"Delta":822920575},{"NoteNumber":67,"Velocity":66,"Duration":102739,"SoundDuration":102739,"Delta":822920575},{"NoteNumber":63,"Velocity":56,"Duration":102739,"SoundDuration":102739,"Delta":822920575},{"NoteNumber":82,"Velocity":73,"Duration":102161,"SoundDuration":102161,"Delta":823023315},{"NoteNumber":70,"Velocity":62,"Duration":102161,"SoundDuration":102161,"Delta":823023315},{"NoteNumber":74,"Velocity":62,"Duration":102161,"SoundDuration":102161,"Delta":823023315},{"NoteNumber":65,"Velocity":65,"Duration":102161,"SoundDuration":102161,"Delta":823023315},{"NoteNumber":62,"Velocity":55,"Duration":102161,"SoundDuration":102161,"Delta":823023315},{"NoteNumber":81,"Velocity":73,"Duration":106767,"SoundDuration":106767,"Delta":823125476},{"NoteNumber":69,"Velocity":62,"Duration":106767,"SoundDuration":106767,"Delta":823125476},{"NoteNumber":72,"Velocity":62,"Duration":106767,"SoundDuration":106767,"Delta":823125476},{"NoteNumber":63,"Velocity":65,"Duration":106767,"SoundDuration":106767,"Delta":823125476},{"NoteNumber":60,"Velocity":55,"Duration":106767,"SoundDuration":106767,"Delta":823125476},{"NoteNumber":79,"Velocity":76,"Duration":115271,"SoundDuration":115271,"Delta":823232243},{"NoteNumber":67,"Velocity":64,"Duration":115271,"SoundDuration":115271,"Delta":823232243},{"NoteNumber":70,"Velocity":64,"Duration":115271,"SoundDuration":115271,"Delta":823232243},{"NoteNumber":62,"Velocity":64,"Duration":115271,"SoundDuration":115271,"Delta":823232243},{"NoteNumber":58,"Velocity":54,"Duration":115271,"SoundDuration":115271,"Delta":823232243},{"NoteNumber":77,"Velocity":67,"Duration":142906,"SoundDuration":142906,"Delta":823347514},{"NoteNumber":65,"Velocity":56,"Duration":142906,"SoundDuration":142906,"Delta":823347514},{"NoteNumber":69,"Velocity":56,"Duration":142906,"SoundDuration":142906,"Delta":823347514},{"NoteNumber":60,"Velocity":64,"Duration":142906,"SoundDuration":142906,"Delta":823347514},{"NoteNumber":57,"Velocity":54,"Duration":142906,"SoundDuration":142906,"Delta":823347514},{"NoteNumber":76,"Velocity":77,"Duration":138888,"SoundDuration":138888,"Delta":823490421},{"NoteNumber":64,"Velocity":65,"Duration":138888,"SoundDuration":138888,"Delta":823490421},{"NoteNumber":68,"Velocity":65,"Duration":138888,"SoundDuration":138888,"Delta":823490421},{"NoteNumber":59,"Velocity":63,"Duration":138888,"SoundDuration":138888,"Delta":823490421},{"NoteNumber":56,"Velocity":53,"Duration":138888,"SoundDuration":138888,"Delta":823490421},{"NoteNumber":77,"Velocity":70,"Duration":157410,"SoundDuration":157410,"Delta":823629310},{"NoteNumber":65,"Velocity":59,"Duration":157410,"SoundDuration":157410,"Delta":823629310},{"NoteNumber":69,"Velocity":59,"Duration":157410,"SoundDuration":157410,"Delta":823629310},{"NoteNumber":60,"Velocity":63,"Duration":157410,"SoundDuration":157410,"Delta":823629310},{"NoteNumber":57,"Velocity":53,"Duration":157410,"SoundDuration":157410,"Delta":823629310},{"NoteNumber":76,"Velocity":77,"Duration":126166,"SoundDuration":126166,"Delta":823786720},{"NoteNumber":64,"Velocity":56,"Duration":126166,"SoundDuration":126166,"Delta":823786720},{"NoteNumber":68,"Velocity":56,"Duration":126166,"SoundDuration":126166,"Delta":823786720},{"NoteNumber":56,"Velocity":53,"Duration":126166,"SoundDuration":126166,"Delta":823786720},{"NoteNumber":59,"Velocity":64,"Duration":126166,"SoundDuration":126166,"Delta":823786720},{"NoteNumber":77,"Velocity":67,"Duration":122190,"SoundDuration":122190,"Delta":823912887},{"NoteNumber":65,"Velocity":56,"Duration":122190,"SoundDuration":122190,"Delta":823912887},{"NoteNumber":69,"Velocity":56,"Duration":122190,"SoundDuration":122190,"Delta":823912887},{"NoteNumber":57,"Velocity":53,"Duration":122190,"SoundDuration":122190,"Delta":823912887},{"NoteNumber":60,"Velocity":63,"Duration":122190,"SoundDuration":122190,"Delta":823912887},{"NoteNumber":78,"Velocity":68,"Duration":118491,"SoundDuration":118491,"Delta":824035077},{"NoteNumber":66,"Velocity":57,"Duration":118491,"SoundDuration":118491,"Delta":824035077},{"NoteNumber":70,"Velocity":57,"Duration":118491,"SoundDuration":118491,"Delta":824035077},{"NoteNumber":58,"Velocity":57,"Duration":118491,"SoundDuration":118491,"Delta":824035077},{"NoteNumber":61,"Velocity":57,"Duration":118491,"SoundDuration":118491,"Delta":824035077},{"NoteNumber":79,"Velocity":69,"Duration":115534,"SoundDuration":115534,"Delta":824153569},{"NoteNumber":67,"Velocity":58,"Duration":115534,"SoundDuration":115534,"Delta":824153569},{"NoteNumber":71,"Velocity":58,"Duration":115534,"SoundDuration":115534,"Delta":824153569},{"NoteNumber":59,"Velocity":58,"Duration":115534,"SoundDuration":115534,"Delta":824153569},{"NoteNumber":62,"Velocity":58,"Duration":115534,"SoundDuration":115534,"Delta":824153569},{"NoteNumber":80,"Velocity":69,"Duration":113300,"SoundDuration":113300,"Delta":824269104},{"NoteNumber":68,"Velocity":58,"Duration":113300,"SoundDuration":113300,"Delta":824269104},{"NoteNumber":72,"Velocity":58,"Duration":113300,"SoundDuration":113300,"Delta":824269104},{"NoteNumber":60,"Velocity":58,"Duration":113300,"SoundDuration":113300,"Delta":824269104},{"NoteNumber":63,"Velocity":58,"Duration":113300,"SoundDuration":113300,"Delta":824269104},{"NoteNumber":81,"Velocity":70,"Duration":110413,"SoundDuration":110413,"Delta":824382404},{"NoteNumber":69,"Velocity":59,"Duration":110413,"SoundDuration":110413,"Delta":824382404},{"NoteNumber":73,"Velocity":59,"Duration":110413,"SoundDuration":110413,"Delta":824382404},{"NoteNumber":61,"Velocity":59,"Duration":110413,"SoundDuration":110413,"Delta":824382404},{"NoteNumber":64,"Velocity":59,"Duration":110413,"SoundDuration":110413,"Delta":824382404},{"NoteNumber":82,"Velocity":71,"Duration":107867,"SoundDuration":107867,"Delta":824492818},{"NoteNumber":70,"Velocity":60,"Duration":107867,"SoundDuration":107867,"Delta":824492818},{"NoteNumber":74,"Velocity":60,"Duration":107867,"SoundDuration":107867,"Delta":824492818},{"NoteNumber":62,"Velocity":60,"Duration":107867,"SoundDuration":107867,"Delta":824492818},{"NoteNumber":65,"Velocity":60,"Duration":107867,"SoundDuration":107867,"Delta":824492818},{"NoteNumber":83,"Velocity":71,"Duration":105144,"SoundDuration":105144,"Delta":824600685},{"NoteNumber":71,"Velocity":60,"Duration":105144,"SoundDuration":105144,"Delta":824600685},{"NoteNumber":75,"Velocity":60,"Duration":105144,"SoundDuration":105144,"Delta":824600685},{"NoteNumber":63,"Velocity":60,"Duration":105144,"SoundDuration":105144,"Delta":824600685},{"NoteNumber":66,"Velocity":60,"Duration":105144,"SoundDuration":105144,"Delta":824600685},{"NoteNumber":72,"Velocity":60,"Duration":102840,"SoundDuration":102840,"Delta":824705830},{"NoteNumber":76,"Velocity":60,"Duration":102840,"SoundDuration":102840,"Delta":824705830},{"NoteNumber":84,"Velocity":72,"Duration":102840,"SoundDuration":102840,"Delta":824705830},{"NoteNumber":64,"Velocity":60,"Duration":102840,"SoundDuration":102840,"Delta":824705830},{"NoteNumber":67,"Velocity":60,"Duration":102840,"SoundDuration":102840,"Delta":824705830},{"NoteNumber":85,"Velocity":72,"Duration":100452,"SoundDuration":100452,"Delta":824808670},{"NoteNumber":73,"Velocity":61,"Duration":100452,"SoundDuration":100452,"Delta":824808670},{"NoteNumber":77,"Velocity":61,"Duration":100452,"SoundDuration":100452,"Delta":824808670},{"NoteNumber":65,"Velocity":61,"Duration":100452,"SoundDuration":100452,"Delta":824808670},{"NoteNumber":68,"Velocity":61,"Duration":100452,"SoundDuration":100452,"Delta":824808670},{"NoteNumber":86,"Velocity":72,"Duration":98684,"SoundDuration":98684,"Delta":824909123},{"NoteNumber":74,"Velocity":61,"Duration":98684,"SoundDuration":98684,"Delta":824909123},{"NoteNumber":78,"Velocity":61,"Duration":98684,"SoundDuration":98684,"Delta":824909123},{"NoteNumber":66,"Velocity":61,"Duration":98684,"SoundDuration":98684,"Delta":824909123},{"NoteNumber":69,"Velocity":61,"Duration":98684,"SoundDuration":98684,"Delta":824909123},{"NoteNumber":87,"Velocity":73,"Duration":97915,"SoundDuration":97915,"Delta":825007807},{"NoteNumber":75,"Velocity":62,"Duration":97915,"SoundDuration":97915,"Delta":825007807},{"NoteNumber":79,"Velocity":62,"Duration":97915,"SoundDuration":97915,"Delta":825007807},{"NoteNumber":67,"Velocity":62,"Duration":97915,"SoundDuration":97915,"Delta":825007807},{"NoteNumber":70,"Velocity":62,"Duration":97915,"SoundDuration":97915,"Delta":825007807},{"NoteNumber":88,"Velocity":74,"Duration":97236,"SoundDuration":97236,"Delta":825105722},{"NoteNumber":76,"Velocity":62,"Duration":97236,"SoundDuration":97236,"Delta":825105722},{"NoteNumber":80,"Velocity":62,"Duration":97236,"SoundDuration":97236,"Delta":825105722},{"NoteNumber":68,"Velocity":62,"Duration":97236,"SoundDuration":97236,"Delta":825105722},{"NoteNumber":71,"Velocity":62,"Duration":97236,"SoundDuration":97236,"Delta":825105722},{"NoteNumber":89,"Velocity":74,"Duration":96153,"SoundDuration":96153,"Delta":825202959},{"NoteNumber":77,"Velocity":62,"Duration":96153,"SoundDuration":96153,"Delta":825202959},{"NoteNumber":81,"Velocity":62,"Duration":96153,"SoundDuration":96153,"Delta":825202959},{"NoteNumber":69,"Velocity":62,"Duration":96153,"SoundDuration":96153,"Delta":825202959},{"NoteNumber":72,"Velocity":62,"Duration":96153,"SoundDuration":96153,"Delta":825202959},{"NoteNumber":90,"Velocity":75,"Duration":95342,"SoundDuration":95342,"Delta":825299112},{"NoteNumber":78,"Velocity":63,"Duration":95342,"SoundDuration":95342,"Delta":825299112},{"NoteNumber":82,"Velocity":63,"Duration":95342,"SoundDuration":95342,"Delta":825299112},{"NoteNumber":70,"Velocity":63,"Duration":95342,"SoundDuration":95342,"Delta":825299112},{"NoteNumber":73,"Velocity":63,"Duration":95342,"SoundDuration":95342,"Delta":825299112},{"NoteNumber":91,"Velocity":76,"Duration":94699,"SoundDuration":94699,"Delta":825394455},{"NoteNumber":79,"Velocity":64,"Duration":94699,"SoundDuration":94699,"Delta":825394455},{"NoteNumber":83,"Velocity":64,"Duration":94699,"SoundDuration":94699,"Delta":825394455},{"NoteNumber":71,"Velocity":64,"Duration":94699,"SoundDuration":94699,"Delta":825394455},{"NoteNumber":74,"Velocity":64,"Duration":94699,"SoundDuration":94699,"Delta":825394455},{"NoteNumber":92,"Velocity":76,"Duration":93750,"SoundDuration":93750,"Delta":825489154},{"NoteNumber":80,"Velocity":64,"Duration":93750,"SoundDuration":93750,"Delta":825489154},{"NoteNumber":84,"Velocity":64,"Duration":93750,"SoundDuration":93750,"Delta":825489154},{"NoteNumber":72,"Velocity":64,"Duration":93750,"SoundDuration":93750,"Delta":825489154},{"NoteNumber":75,"Velocity":64,"Duration":93750,"SoundDuration":93750,"Delta":825489154},{"NoteNumber":93,"Velocity":77,"Duration":92901,"SoundDuration":92901,"Delta":825582904},{"NoteNumber":81,"Velocity":65,"Duration":92901,"SoundDuration":92901,"Delta":825582904},{"NoteNumber":85,"Velocity":65,"Duration":92901,"SoundDuration":92901,"Delta":825582904},{"NoteNumber":73,"Velocity":65,"Duration":92901,"SoundDuration":92901,"Delta":825582904},{"NoteNumber":76,"Velocity":65,"Duration":92901,"SoundDuration":92901,"Delta":825582904},{"NoteNumber":94,"Velocity":78,"Duration":92291,"SoundDuration":92291,"Delta":825675806},{"NoteNumber":82,"Velocity":66,"Duration":92291,"SoundDuration":92291,"Delta":825675806},{"NoteNumber":86,"Velocity":66,"Duration":92291,"SoundDuration":92291,"Delta":825675806},{"NoteNumber":74,"Velocity":66,"Duration":92291,"SoundDuration":92291,"Delta":825675806},{"NoteNumber":77,"Velocity":66,"Duration":92291,"SoundDuration":92291,"Delta":825675806},{"NoteNumber":95,"Velocity":78,"Duration":91463,"SoundDuration":91463,"Delta":825768097},{"NoteNumber":83,"Velocity":66,"Duration":91463,"SoundDuration":91463,"Delta":825768097},{"NoteNumber":87,"Velocity":66,"Duration":91463,"SoundDuration":91463,"Delta":825768097},{"NoteNumber":75,"Velocity":66,"Duration":91463,"SoundDuration":91463,"Delta":825768097},{"NoteNumber":78,"Velocity":66,"Duration":91463,"SoundDuration":91463,"Delta":825768097},{"NoteNumber":96,"Velocity":79,"Duration":90581,"SoundDuration":90581,"Delta":825859560},{"NoteNumber":84,"Velocity":67,"Duration":90581,"SoundDuration":90581,"Delta":825859560},{"NoteNumber":88,"Velocity":67,"Duration":90581,"SoundDuration":90581,"Delta":825859560},{"NoteNumber":76,"Velocity":67,"Duration":90581,"SoundDuration":90581,"Delta":825859560},{"NoteNumber":79,"Velocity":67,"Duration":90581,"SoundDuration":90581,"Delta":825859560},{"NoteNumber":97,"Velocity":80,"Duration":90002,"SoundDuration":90002,"Delta":825950142},{"NoteNumber":85,"Velocity":68,"Duration":90002,"SoundDuration":90002,"Delta":825950142},{"NoteNumber":89,"Velocity":68,"Duration":90002,"SoundDuration":90002,"Delta":825950142},{"NoteNumber":77,"Velocity":68,"Duration":90002,"SoundDuration":90002,"Delta":825950142},{"NoteNumber":80,"Velocity":68,"Duration":90002,"SoundDuration":90002,"Delta":825950142},{"NoteNumber":98,"Velocity":80,"Duration":105984,"SoundDuration":105984,"Delta":826040145},{"NoteNumber":86,"Velocity":68,"Duration":105984,"SoundDuration":105984,"Delta":826040145},{"NoteNumber":90,"Velocity":68,"Duration":105984,"SoundDuration":105984,"Delta":826040145},{"NoteNumber":78,"Velocity":68,"Duration":105984,"SoundDuration":105984,"Delta":826040145},{"NoteNumber":81,"Velocity":68,"Duration":105984,"SoundDuration":105984,"Delta":826040145},{"NoteNumber":99,"Velocity":92,"Duration":208681,"SoundDuration":208681,"Delta":826146129},{"NoteNumber":87,"Velocity":68,"Duration":208681,"SoundDuration":208681,"Delta":826146129},{"NoteNumber":91,"Velocity":75,"Duration":208681,"SoundDuration":208681,"Delta":826146129},{"NoteNumber":79,"Velocity":71,"Duration":208681,"SoundDuration":208681,"Delta":826146129},{"NoteNumber":82,"Velocity":73,"Duration":208681,"SoundDuration":208681,"Delta":826146129},{"NoteNumber":75,"Velocity":85,"Duration":944882,"SoundDuration":944882,"Delta":827240638},{"NoteNumber":87,"Velocity":85,"Duration":944882,"SoundDuration":944882,"Delta":827240638},{"NoteNumber":67,"Velocity":76,"Duration":855263,"SoundDuration":855263,"Delta":828185520},{"NoteNumber":79,"Velocity":76,"Duration":855263,"SoundDuration":855263,"Delta":828185520},{"NoteNumber":65,"Velocity":37,"Duration":685709,"SoundDuration":685709,"Delta":829040783},{"NoteNumber":72,"Velocity":49,"Duration":245002,"SoundDuration":245002,"Delta":829106573},{"NoteNumber":75,"Velocity":56,"Duration":179213,"SoundDuration":179213,"Delta":829172362},{"NoteNumber":81,"Velocity":72,"Duration":97090,"SoundDuration":97090,"Delta":829254485},{"NoteNumber":82,"Velocity":35,"Duration":95667,"SoundDuration":95667,"Delta":829351576},{"NoteNumber":74,"Velocity":28,"Duration":95667,"SoundDuration":95667,"Delta":829351576},{"NoteNumber":77,"Velocity":28,"Duration":95667,"SoundDuration":95667,"Delta":829351576},{"NoteNumber":81,"Velocity":36,"Duration":94264,"SoundDuration":94264,"Delta":829447243},{"NoteNumber":72,"Velocity":28,"Duration":94264,"SoundDuration":94264,"Delta":829447243},{"NoteNumber":75,"Velocity":28,"Duration":94264,"SoundDuration":94264,"Delta":829447243},{"NoteNumber":82,"Velocity":36,"Duration":92920,"SoundDuration":92920,"Delta":829541507},{"NoteNumber":74,"Velocity":28,"Duration":92920,"SoundDuration":92920,"Delta":829541507},{"NoteNumber":77,"Velocity":28,"Duration":92920,"SoundDuration":92920,"Delta":829541507},{"NoteNumber":81,"Velocity":37,"Duration":92065,"SoundDuration":92065,"Delta":829634427},{"NoteNumber":72,"Velocity":29,"Duration":92065,"SoundDuration":92065,"Delta":829634427},{"NoteNumber":75,"Velocity":29,"Duration":92065,"SoundDuration":92065,"Delta":829634427},{"NoteNumber":82,"Velocity":38,"Duration":90783,"SoundDuration":90783,"Delta":829726493},{"NoteNumber":74,"Velocity":30,"Duration":90783,"SoundDuration":90783,"Delta":829726493},{"NoteNumber":77,"Velocity":30,"Duration":90783,"SoundDuration":90783,"Delta":829726493},{"NoteNumber":81,"Velocity":38,"Duration":89536,"SoundDuration":89536,"Delta":829817277},{"NoteNumber":72,"Velocity":30,"Duration":89536,"SoundDuration":89536,"Delta":829817277},{"NoteNumber":75,"Velocity":30,"Duration":89536,"SoundDuration":89536,"Delta":829817277},{"NoteNumber":82,"Velocity":39,"Duration":88219,"SoundDuration":88219,"Delta":829906814},{"NoteNumber":74,"Velocity":31,"Duration":88219,"SoundDuration":88219,"Delta":829906814},{"NoteNumber":77,"Velocity":31,"Duration":88219,"SoundDuration":88219,"Delta":829906814},{"NoteNumber":81,"Velocity":39,"Duration":87209,"SoundDuration":87209,"Delta":829995033},{"NoteNumber":72,"Velocity":31,"Duration":87209,"SoundDuration":87209,"Delta":829995033},{"NoteNumber":75,"Velocity":31,"Duration":87209,"SoundDuration":87209,"Delta":829995033},{"NoteNumber":82,"Velocity":40,"Duration":86373,"SoundDuration":86373,"Delta":830082243},{"NoteNumber":74,"Velocity":32,"Duration":86373,"SoundDuration":86373,"Delta":830082243},{"NoteNumber":77,"Velocity":32,"Duration":86373,"SoundDuration":86373,"Delta":830082243},{"NoteNumber":81,"Velocity":40,"Duration":85099,"SoundDuration":85099,"Delta":830168617},{"NoteNumber":72,"Velocity":32,"Duration":85099,"SoundDuration":85099,"Delta":830168617},{"NoteNumber":75,"Velocity":32,"Duration":85099,"SoundDuration":85099,"Delta":830168617},{"NoteNumber":82,"Velocity":41,"Duration":83988,"SoundDuration":83988,"Delta":830253717},{"NoteNumber":74,"Velocity":32,"Duration":83988,"SoundDuration":83988,"Delta":830253717},{"NoteNumber":77,"Velocity":32,"Duration":83988,"SoundDuration":83988,"Delta":830253717},{"NoteNumber":81,"Velocity":41,"Duration":83302,"SoundDuration":83302,"Delta":830337705},{"NoteNumber":72,"Velocity":32,"Duration":83302,"SoundDuration":83302,"Delta":830337705},{"NoteNumber":75,"Velocity":32,"Duration":83302,"SoundDuration":83302,"Delta":830337705},{"NoteNumber":82,"Velocity":42,"Duration":82238,"SoundDuration":82238,"Delta":830421008},{"NoteNumber":74,"Velocity":33,"Duration":82238,"SoundDuration":82238,"Delta":830421008},{"NoteNumber":77,"Velocity":33,"Duration":82238,"SoundDuration":82238,"Delta":830421008},{"NoteNumber":81,"Velocity":42,"Duration":81214,"SoundDuration":81214,"Delta":830503247},{"NoteNumber":72,"Velocity":33,"Duration":81214,"SoundDuration":81214,"Delta":830503247},{"NoteNumber":75,"Velocity":33,"Duration":81214,"SoundDuration":81214,"Delta":830503247},{"NoteNumber":82,"Velocity":43,"Duration":79996,"SoundDuration":79996,"Delta":830584462},{"NoteNumber":74,"Velocity":34,"Duration":79996,"SoundDuration":79996,"Delta":830584462},{"NoteNumber":77,"Velocity":34,"Duration":79996,"SoundDuration":79996,"Delta":830584462},{"NoteNumber":81,"Velocity":45,"Duration":77319,"SoundDuration":77319,"Delta":830664458},{"NoteNumber":72,"Velocity":36,"Duration":77319,"SoundDuration":77319,"Delta":830664458},{"NoteNumber":75,"Velocity":36,"Duration":77319,"SoundDuration":77319,"Delta":830664458},{"NoteNumber":82,"Velocity":45,"Duration":77004,"SoundDuration":77004,"Delta":830741777},{"NoteNumber":74,"Velocity":36,"Duration":77004,"SoundDuration":77004,"Delta":830741777},{"NoteNumber":77,"Velocity":36,"Duration":77004,"SoundDuration":77004,"Delta":830741777},{"NoteNumber":81,"Velocity":46,"Duration":76414,"SoundDuration":76414,"Delta":830818782},{"NoteNumber":72,"Velocity":36,"Duration":76414,"SoundDuration":76414,"Delta":830818782},{"NoteNumber":75,"Velocity":36,"Duration":76414,"SoundDuration":76414,"Delta":830818782},{"NoteNumber":82,"Velocity":47,"Duration":75757,"SoundDuration":75757,"Delta":830895196},{"NoteNumber":74,"Velocity":37,"Duration":75757,"SoundDuration":75757,"Delta":830895196},{"NoteNumber":77,"Velocity":37,"Duration":75757,"SoundDuration":75757,"Delta":830895196},{"NoteNumber":81,"Velocity":47,"Duration":75088,"SoundDuration":75088,"Delta":830970954},{"NoteNumber":72,"Velocity":37,"Duration":75088,"SoundDuration":75088,"Delta":830970954},{"NoteNumber":75,"Velocity":37,"Duration":75088,"SoundDuration":75088,"Delta":830970954},{"NoteNumber":82,"Velocity":48,"Duration":74542,"SoundDuration":74542,"Delta":831046042},{"NoteNumber":74,"Velocity":38,"Duration":74542,"SoundDuration":74542,"Delta":831046042},{"NoteNumber":77,"Velocity":38,"Duration":74542,"SoundDuration":74542,"Delta":831046042},{"NoteNumber":81,"Velocity":49,"Duration":74002,"SoundDuration":74002,"Delta":831120584},{"NoteNumber":72,"Velocity":39,"Duration":74002,"SoundDuration":74002,"Delta":831120584},{"NoteNumber":75,"Velocity":39,"Duration":74002,"SoundDuration":74002,"Delta":831120584},{"NoteNumber":82,"Velocity":49,"Duration":73469,"SoundDuration":73469,"Delta":831194587},{"NoteNumber":74,"Velocity":39,"Duration":73469,"SoundDuration":73469,"Delta":831194587},{"NoteNumber":77,"Velocity":39,"Duration":73469,"SoundDuration":73469,"Delta":831194587},{"NoteNumber":81,"Velocity":50,"Duration":72815,"SoundDuration":72815,"Delta":831268057},{"NoteNumber":72,"Velocity":40,"Duration":72815,"SoundDuration":72815,"Delta":831268057},{"NoteNumber":75,"Velocity":40,"Duration":72815,"SoundDuration":72815,"Delta":831268057},{"NoteNumber":82,"Velocity":51,"Duration":72815,"SoundDuration":72815,"Delta":831340872},{"NoteNumber":74,"Velocity":40,"Duration":72815,"SoundDuration":72815,"Delta":831340872},{"NoteNumber":77,"Velocity":40,"Duration":72815,"SoundDuration":72815,"Delta":831340872},{"NoteNumber":81,"Velocity":51,"Duration":72815,"SoundDuration":72815,"Delta":831413688},{"NoteNumber":72,"Velocity":40,"Duration":72815,"SoundDuration":72815,"Delta":831413688},{"NoteNumber":75,"Velocity":40,"Duration":72815,"SoundDuration":72815,"Delta":831413688},{"NoteNumber":82,"Velocity":52,"Duration":72815,"SoundDuration":72815,"Delta":831486503},{"NoteNumber":74,"Velocity":41,"Duration":72815,"SoundDuration":72815,"Delta":831486503},{"NoteNumber":77,"Velocity":41,"Duration":72815,"SoundDuration":72815,"Delta":831486503},{"NoteNumber":81,"Velocity":52,"Duration":72815,"SoundDuration":72815,"Delta":831559319},{"NoteNumber":72,"Velocity":41,"Duration":72815,"SoundDuration":72815,"Delta":831559319},{"NoteNumber":75,"Velocity":41,"Duration":72815,"SoundDuration":72815,"Delta":831559319},{"NoteNumber":82,"Velocity":53,"Duration":72815,"SoundDuration":72815,"Delta":831632134},{"NoteNumber":74,"Velocity":42,"Duration":72815,"SoundDuration":72815,"Delta":831632134},{"NoteNumber":77,"Velocity":42,"Duration":72815,"SoundDuration":72815,"Delta":831632134},{"NoteNumber":81,"Velocity":54,"Duration":72815,"SoundDuration":72815,"Delta":831704950},{"NoteNumber":72,"Velocity":43,"Duration":72815,"SoundDuration":72815,"Delta":831704950},{"NoteNumber":75,"Velocity":43,"Duration":72815,"SoundDuration":72815,"Delta":831704950},{"NoteNumber":82,"Velocity":54,"Duration":72098,"SoundDuration":72098,"Delta":831777765},{"NoteNumber":74,"Velocity":43,"Duration":72098,"SoundDuration":72098,"Delta":831777765},{"NoteNumber":77,"Velocity":43,"Duration":72098,"SoundDuration":72098,"Delta":831777765},{"NoteNumber":81,"Velocity":55,"Duration":71260,"SoundDuration":71260,"Delta":831849864},{"NoteNumber":75,"Velocity":44,"Duration":71260,"SoundDuration":71260,"Delta":831849864},{"NoteNumber":72,"Velocity":44,"Duration":71260,"SoundDuration":71260,"Delta":831849864},{"NoteNumber":82,"Velocity":56,"Duration":70490,"SoundDuration":70490,"Delta":831921124},{"NoteNumber":77,"Velocity":44,"Duration":70490,"SoundDuration":70490,"Delta":831921124},{"NoteNumber":74,"Velocity":44,"Duration":70490,"SoundDuration":70490,"Delta":831921124},{"NoteNumber":81,"Velocity":56,"Duration":70093,"SoundDuration":70093,"Delta":831991615},{"NoteNumber":72,"Velocity":44,"Duration":70093,"SoundDuration":70093,"Delta":831991615},{"NoteNumber":75,"Velocity":44,"Duration":70093,"SoundDuration":70093,"Delta":831991615},{"NoteNumber":82,"Velocity":57,"Duration":70093,"SoundDuration":70093,"Delta":832061708},{"NoteNumber":77,"Velocity":45,"Duration":70093,"SoundDuration":70093,"Delta":832061708},{"NoteNumber":74,"Velocity":45,"Duration":70093,"SoundDuration":70093,"Delta":832061708},{"NoteNumber":81,"Velocity":58,"Duration":70093,"SoundDuration":70093,"Delta":832131802},{"NoteNumber":72,"Velocity":46,"Duration":70093,"SoundDuration":70093,"Delta":832131802},{"NoteNumber":75,"Velocity":46,"Duration":70093,"SoundDuration":70093,"Delta":832131802},{"NoteNumber":82,"Velocity":58,"Duration":70093,"SoundDuration":70093,"Delta":832201895},{"NoteNumber":74,"Velocity":46,"Duration":70093,"SoundDuration":70093,"Delta":832201895},{"NoteNumber":77,"Velocity":46,"Duration":70093,"SoundDuration":70093,"Delta":832201895},{"NoteNumber":81,"Velocity":59,"Duration":70093,"SoundDuration":70093,"Delta":832271989},{"NoteNumber":72,"Velocity":47,"Duration":70093,"SoundDuration":70093,"Delta":832271989},{"NoteNumber":75,"Velocity":47,"Duration":70093,"SoundDuration":70093,"Delta":832271989},{"NoteNumber":82,"Velocity":60,"Duration":70039,"SoundDuration":70039,"Delta":832342082},{"NoteNumber":77,"Velocity":48,"Duration":70039,"SoundDuration":70039,"Delta":832342082},{"NoteNumber":74,"Velocity":48,"Duration":70039,"SoundDuration":70039,"Delta":832342082},{"NoteNumber":81,"Velocity":61,"Duration":70833,"SoundDuration":70833,"Delta":832412121},{"NoteNumber":75,"Velocity":48,"Duration":70833,"SoundDuration":70833,"Delta":832412121},{"NoteNumber":72,"Velocity":48,"Duration":70833,"SoundDuration":70833,"Delta":832412121},{"NoteNumber":82,"Velocity":60,"Duration":75143,"SoundDuration":75143,"Delta":832482955},{"NoteNumber":74,"Velocity":48,"Duration":75143,"SoundDuration":75143,"Delta":832482955},{"NoteNumber":77,"Velocity":48,"Duration":75143,"SoundDuration":75143,"Delta":832482955},{"NoteNumber":81,"Velocity":59,"Duration":79987,"SoundDuration":79987,"Delta":832558098},{"NoteNumber":72,"Velocity":47,"Duration":79987,"SoundDuration":79987,"Delta":832558098},{"NoteNumber":75,"Velocity":47,"Duration":79987,"SoundDuration":79987,"Delta":832558098},{"NoteNumber":82,"Velocity":58,"Duration":81704,"SoundDuration":81704,"Delta":832638086},{"NoteNumber":77,"Velocity":46,"Duration":81704,"SoundDuration":81704,"Delta":832638086},{"NoteNumber":74,"Velocity":46,"Duration":81704,"SoundDuration":81704,"Delta":832638086},{"NoteNumber":81,"Velocity":57,"Duration":83945,"SoundDuration":83945,"Delta":832719790},{"NoteNumber":72,"Velocity":45,"Duration":83945,"SoundDuration":83945,"Delta":832719790},{"NoteNumber":75,"Velocity":45,"Duration":83945,"SoundDuration":83945,"Delta":832719790},{"NoteNumber":82,"Velocity":56,"Duration":86196,"SoundDuration":86196,"Delta":832803735},{"NoteNumber":77,"Velocity":44,"Duration":86196,"SoundDuration":86196,"Delta":832803735},{"NoteNumber":74,"Velocity":44,"Duration":86196,"SoundDuration":86196,"Delta":832803735},{"NoteNumber":81,"Velocity":55,"Duration":88607,"SoundDuration":88607,"Delta":832889932},{"NoteNumber":72,"Velocity":44,"Duration":88607,"SoundDuration":88607,"Delta":832889932},{"NoteNumber":75,"Velocity":44,"Duration":88607,"SoundDuration":88607,"Delta":832889932},{"NoteNumber":82,"Velocity":54,"Duration":92353,"SoundDuration":92353,"Delta":832978540},{"NoteNumber":77,"Velocity":43,"Duration":92353,"SoundDuration":92353,"Delta":832978540},{"NoteNumber":74,"Velocity":43,"Duration":92353,"SoundDuration":92353,"Delta":832978540},{"NoteNumber":81,"Velocity":53,"Duration":95065,"SoundDuration":95065,"Delta":833070893},{"NoteNumber":75,"Velocity":42,"Duration":95065,"SoundDuration":95065,"Delta":833070893},{"NoteNumber":72,"Velocity":42,"Duration":95065,"SoundDuration":95065,"Delta":833070893},{"NoteNumber":82,"Velocity":51,"Duration":98027,"SoundDuration":98027,"Delta":833165959},{"NoteNumber":77,"Velocity":40,"Duration":98027,"SoundDuration":98027,"Delta":833165959},{"NoteNumber":74,"Velocity":40,"Duration":98027,"SoundDuration":98027,"Delta":833165959},{"NoteNumber":81,"Velocity":50,"Duration":101202,"SoundDuration":101202,"Delta":833263986},{"NoteNumber":72,"Velocity":40,"Duration":101202,"SoundDuration":101202,"Delta":833263986},{"NoteNumber":75,"Velocity":40,"Duration":101202,"SoundDuration":101202,"Delta":833263986},{"NoteNumber":82,"Velocity":49,"Duration":104467,"SoundDuration":104467,"Delta":833365188},{"NoteNumber":74,"Velocity":39,"Duration":104467,"SoundDuration":104467,"Delta":833365188},{"NoteNumber":77,"Velocity":39,"Duration":104467,"SoundDuration":104467,"Delta":833365188},{"NoteNumber":81,"Velocity":48,"Duration":108159,"SoundDuration":108159,"Delta":833469655},{"NoteNumber":72,"Velocity":38,"Duration":108159,"SoundDuration":108159,"Delta":833469655},{"NoteNumber":75,"Velocity":38,"Duration":108159,"SoundDuration":108159,"Delta":833469655},{"NoteNumber":82,"Velocity":47,"Duration":111926,"SoundDuration":111926,"Delta":833577815},{"NoteNumber":74,"Velocity":37,"Duration":111926,"SoundDuration":111926,"Delta":833577815},{"NoteNumber":77,"Velocity":37,"Duration":111926,"SoundDuration":111926,"Delta":833577815},{"NoteNumber":81,"Velocity":45,"Duration":115993,"SoundDuration":115993,"Delta":833689742},{"NoteNumber":72,"Velocity":36,"Duration":115993,"SoundDuration":115993,"Delta":833689742},{"NoteNumber":75,"Velocity":36,"Duration":115993,"SoundDuration":115993,"Delta":833689742},{"NoteNumber":82,"Velocity":44,"Duration":120563,"SoundDuration":120563,"Delta":833805736},{"NoteNumber":74,"Velocity":35,"Duration":120563,"SoundDuration":120563,"Delta":833805736},{"NoteNumber":77,"Velocity":35,"Duration":120563,"SoundDuration":120563,"Delta":833805736},{"NoteNumber":81,"Velocity":43,"Duration":125228,"SoundDuration":125228,"Delta":833926299},{"NoteNumber":75,"Velocity":34,"Duration":125228,"SoundDuration":125228,"Delta":833926299},{"NoteNumber":72,"Velocity":34,"Duration":125228,"SoundDuration":125228,"Delta":833926299},{"NoteNumber":82,"Velocity":42,"Duration":130418,"SoundDuration":130418,"Delta":834051527},{"NoteNumber":74,"Velocity":33,"Duration":130418,"SoundDuration":130418,"Delta":834051527},{"NoteNumber":77,"Velocity":33,"Duration":130418,"SoundDuration":130418,"Delta":834051527},{"NoteNumber":81,"Velocity":41,"Duration":136100,"SoundDuration":136100,"Delta":834181946},{"NoteNumber":72,"Velocity":32,"Duration":136100,"SoundDuration":136100,"Delta":834181946},{"NoteNumber":75,"Velocity":32,"Duration":136100,"SoundDuration":136100,"Delta":834181946},{"NoteNumber":82,"Velocity":40,"Duration":142072,"SoundDuration":142072,"Delta":834318047},{"NoteNumber":74,"Velocity":32,"Duration":142072,"SoundDuration":142072,"Delta":834318047},{"NoteNumber":77,"Velocity":32,"Duration":142072,"SoundDuration":142072,"Delta":834318047},{"NoteNumber":81,"Velocity":39,"Duration":148990,"SoundDuration":148990,"Delta":834460119},{"NoteNumber":75,"Velocity":31,"Duration":148990,"SoundDuration":148990,"Delta":834460119},{"NoteNumber":72,"Velocity":31,"Duration":148990,"SoundDuration":148990,"Delta":834460119},{"NoteNumber":82,"Velocity":38,"Duration":156235,"SoundDuration":156235,"Delta":834609109},{"NoteNumber":74,"Velocity":30,"Duration":156235,"SoundDuration":156235,"Delta":834609109},{"NoteNumber":77,"Velocity":30,"Duration":156235,"SoundDuration":156235,"Delta":834609109},{"NoteNumber":81,"Velocity":37,"Duration":164274,"SoundDuration":164274,"Delta":834765344},{"NoteNumber":72,"Velocity":29,"Duration":164274,"SoundDuration":164274,"Delta":834765344},{"NoteNumber":75,"Velocity":29,"Duration":164274,"SoundDuration":164274,"Delta":834765344},{"NoteNumber":82,"Velocity":36,"Duration":166453,"SoundDuration":166453,"Delta":834929619},{"NoteNumber":74,"Velocity":28,"Duration":166453,"SoundDuration":166453,"Delta":834929619},{"NoteNumber":77,"Velocity":28,"Duration":166453,"SoundDuration":166453,"Delta":834929619},{"NoteNumber":81,"Velocity":40,"Duration":324623,"SoundDuration":324623,"Delta":835096072},{"NoteNumber":75,"Velocity":32,"Duration":324623,"SoundDuration":324623,"Delta":835096072},{"NoteNumber":72,"Velocity":32,"Duration":324623,"SoundDuration":324623,"Delta":835096072},{"NoteNumber":82,"Velocity":42,"Duration":331761,"SoundDuration":331761,"Delta":835420696},{"NoteNumber":74,"Velocity":33,"Duration":331761,"SoundDuration":331761,"Delta":835420696},{"NoteNumber":77,"Velocity":33,"Duration":331761,"SoundDuration":331761,"Delta":835420696},{"NoteNumber":81,"Velocity":35,"Duration":350078,"SoundDuration":350078,"Delta":835752458},{"NoteNumber":75,"Velocity":28,"Duration":350078,"SoundDuration":350078,"Delta":835752458},{"NoteNumber":72,"Velocity":28,"Duration":350078,"SoundDuration":350078,"Delta":835752458},{"NoteNumber":80,"Velocity":40,"Duration":407731,"SoundDuration":407731,"Delta":836102536},{"NoteNumber":74,"Velocity":32,"Duration":407731,"SoundDuration":407731,"Delta":836102536},{"NoteNumber":71,"Velocity":32,"Duration":407731,"SoundDuration":407731,"Delta":836102536},{"NoteNumber":81,"Velocity":35,"Duration":609755,"SoundDuration":609755,"Delta":836510268},{"NoteNumber":72,"Velocity":28,"Duration":609755,"SoundDuration":609755,"Delta":836510268},{"NoteNumber":75,"Velocity":28,"Duration":609755,"SoundDuration":609755,"Delta":836510268},{"NoteNumber":82,"Velocity":76,"Duration":299999,"SoundDuration":299999,"Delta":837120024},{"NoteNumber":70,"Velocity":56,"Duration":75000,"SoundDuration":75000,"Delta":837120024},{"NoteNumber":46,"Velocity":75,"Duration":75000,"SoundDuration":75000,"Delta":837120024},{"NoteNumber":77,"Velocity":44,"Duration":75000,"SoundDuration":75000,"Delta":837270024},{"NoteNumber":74,"Velocity":38,"Duration":75000,"SoundDuration":75000,"Delta":837270024},{"NoteNumber":65,"Velocity":34,"Duration":75000,"SoundDuration":75000,"Delta":837270024},{"NoteNumber":62,"Velocity":28,"Duration":75000,"SoundDuration":75000,"Delta":837270024},{"NoteNumber":82,"Velocity":66,"Duration":66079,"SoundDuration":66079,"Delta":837420024},{"NoteNumber":70,"Velocity":53,"Duration":66079,"SoundDuration":66079,"Delta":837420024},{"NoteNumber":62,"Velocity":44,"Duration":66079,"SoundDuration":66079,"Delta":837420024},{"NoteNumber":58,"Velocity":37,"Duration":66079,"SoundDuration":66079,"Delta":837420024},{"NoteNumber":82,"Velocity":68,"Duration":84269,"SoundDuration":84269,"Delta":837552182},{"NoteNumber":77,"Velocity":48,"Duration":84269,"SoundDuration":84269,"Delta":837552182},{"NoteNumber":74,"Velocity":41,"Duration":84269,"SoundDuration":84269,"Delta":837552182},{"NoteNumber":58,"Velocity":34,"Duration":84269,"SoundDuration":84269,"Delta":837552182},{"NoteNumber":53,"Velocity":28,"Duration":84269,"SoundDuration":84269,"Delta":837552182},{"NoteNumber":86,"Velocity":76,"Duration":70754,"SoundDuration":70754,"Delta":837720722},{"NoteNumber":74,"Velocity":53,"Duration":70754,"SoundDuration":70754,"Delta":837720722},{"NoteNumber":46,"Velocity":56,"Duration":70754,"SoundDuration":70754,"Delta":837720722},{"NoteNumber":82,"Velocity":60,"Duration":70754,"SoundDuration":70754,"Delta":837862231},{"NoteNumber":77,"Velocity":48,"Duration":70754,"SoundDuration":70754,"Delta":837862231},{"NoteNumber":65,"Velocity":34,"Duration":70754,"SoundDuration":70754,"Delta":837862231},{"NoteNumber":62,"Velocity":28,"Duration":70754,"SoundDuration":70754,"Delta":837862231},{"NoteNumber":82,"Velocity":60,"Duration":324324,"SoundDuration":324324,"Delta":838003741},{"NoteNumber":70,"Velocity":53,"Duration":81081,"SoundDuration":81081,"Delta":838003741},{"NoteNumber":62,"Velocity":44,"Duration":81081,"SoundDuration":81081,"Delta":838003741},{"NoteNumber":58,"Velocity":37,"Duration":81081,"SoundDuration":81081,"Delta":838003741},{"NoteNumber":74,"Velocity":36,"Duration":81081,"SoundDuration":81081,"Delta":838165903},{"NoteNumber":77,"Velocity":48,"Duration":81081,"SoundDuration":81081,"Delta":838165903},{"NoteNumber":58,"Velocity":34,"Duration":81081,"SoundDuration":81081,"Delta":838165903},{"NoteNumber":53,"Velocity":28,"Duration":81081,"SoundDuration":81081,"Delta":838165903},{"NoteNumber":77,"Velocity":73,"Duration":297029,"SoundDuration":297029,"Delta":838328065},{"NoteNumber":65,"Velocity":53,"Duration":74257,"SoundDuration":74257,"Delta":838328065},{"NoteNumber":46,"Velocity":74,"Duration":74257,"SoundDuration":74257,"Delta":838328065},{"NoteNumber":70,"Velocity":38,"Duration":74257,"SoundDuration":74257,"Delta":838476580},{"NoteNumber":74,"Velocity":44,"Duration":74257,"SoundDuration":74257,"Delta":838476580},{"NoteNumber":65,"Velocity":34,"Duration":74257,"SoundDuration":74257,"Delta":838476580},{"NoteNumber":62,"Velocity":28,"Duration":74257,"SoundDuration":74257,"Delta":838476580},{"NoteNumber":77,"Velocity":63,"Duration":67264,"SoundDuration":67264,"Delta":838625095},{"NoteNumber":65,"Velocity":53,"Duration":67264,"SoundDuration":67264,"Delta":838625095},{"NoteNumber":62,"Velocity":44,"Duration":67264,"SoundDuration":67264,"Delta":838625095},{"NoteNumber":58,"Velocity":37,"Duration":67264,"SoundDuration":67264,"Delta":838625095},{"NoteNumber":77,"Velocity":64,"Duration":79365,"SoundDuration":79365,"Delta":838759624},{"NoteNumber":74,"Velocity":48,"Duration":79365,"SoundDuration":79365,"Delta":838759624},{"NoteNumber":70,"Velocity":41,"Duration":79365,"SoundDuration":79365,"Delta":838759624},{"NoteNumber":58,"Velocity":34,"Duration":79365,"SoundDuration":79365,"Delta":838759624},{"NoteNumber":53,"Velocity":28,"Duration":79365,"SoundDuration":79365,"Delta":838759624},{"NoteNumber":82,"Velocity":72,"Duration":71428,"SoundDuration":71428,"Delta":838918354},{"NoteNumber":70,"Velocity":53,"Duration":71428,"SoundDuration":71428,"Delta":838918354},{"NoteNumber":46,"Velocity":53,"Duration":71428,"SoundDuration":71428,"Delta":838918354},{"NoteNumber":77,"Velocity":60,"Duration":71428,"SoundDuration":71428,"Delta":839061211},{"NoteNumber":74,"Velocity":48,"Duration":71428,"SoundDuration":71428,"Delta":839061211},{"NoteNumber":65,"Velocity":34,"Duration":71428,"SoundDuration":71428,"Delta":839061211},{"NoteNumber":62,"Velocity":28,"Duration":71428,"SoundDuration":71428,"Delta":839061211},{"NoteNumber":77,"Velocity":60,"Duration":335195,"SoundDuration":335195,"Delta":839204068},{"NoteNumber":65,"Velocity":53,"Duration":83798,"SoundDuration":83798,"Delta":839204068},{"NoteNumber":62,"Velocity":44,"Duration":83798,"SoundDuration":83798,"Delta":839204068},{"NoteNumber":58,"Velocity":37,"Duration":83798,"SoundDuration":83798,"Delta":839204068},{"NoteNumber":70,"Velocity":36,"Duration":83798,"SoundDuration":83798,"Delta":839371666},{"NoteNumber":74,"Velocity":48,"Duration":83798,"SoundDuration":83798,"Delta":839371666},{"NoteNumber":58,"Velocity":34,"Duration":83798,"SoundDuration":83798,"Delta":839371666},{"NoteNumber":53,"Velocity":28,"Duration":83798,"SoundDuration":83798,"Delta":839371666},{"NoteNumber":74,"Velocity":77,"Duration":301508,"SoundDuration":301508,"Delta":839539264},{"NoteNumber":62,"Velocity":56,"Duration":75377,"SoundDuration":75377,"Delta":839539264},{"NoteNumber":46,"Velocity":73,"Duration":75377,"SoundDuration":75377,"Delta":839539264},{"NoteNumber":65,"Velocity":39,"Duration":75377,"SoundDuration":75377,"Delta":839690018},{"NoteNumber":70,"Velocity":46,"Duration":75377,"SoundDuration":75377,"Delta":839690018},{"NoteNumber":62,"Velocity":35,"Duration":75377,"SoundDuration":75377,"Delta":839690018},{"NoteNumber":58,"Velocity":29,"Duration":75377,"SoundDuration":75377,"Delta":839690018},{"NoteNumber":74,"Velocity":62,"Duration":70422,"SoundDuration":70422,"Delta":839840772},{"NoteNumber":62,"Velocity":61,"Duration":70422,"SoundDuration":70422,"Delta":839840772},{"NoteNumber":58,"Velocity":46,"Duration":70422,"SoundDuration":70422,"Delta":839840772},{"NoteNumber":53,"Velocity":38,"Duration":70422,"SoundDuration":70422,"Delta":839840772},{"NoteNumber":75,"Velocity":62,"Duration":74257,"SoundDuration":74257,"Delta":839981617},{"NoteNumber":63,"Velocity":55,"Duration":74257,"SoundDuration":74257,"Delta":839981617},{"NoteNumber":62,"Velocity":35,"Duration":74257,"SoundDuration":74257,"Delta":839981617},{"NoteNumber":58,"Velocity":29,"Duration":74257,"SoundDuration":74257,"Delta":839981617},{"NoteNumber":79,"Velocity":69,"Duration":297029,"SoundDuration":297029,"Delta":840130132},{"NoteNumber":67,"Velocity":51,"Duration":74257,"SoundDuration":74257,"Delta":840130132},{"NoteNumber":46,"Velocity":51,"Duration":74257,"SoundDuration":74257,"Delta":840130132},{"NoteNumber":70,"Velocity":34,"Duration":74257,"SoundDuration":74257,"Delta":840278647},{"NoteNumber":74,"Velocity":46,"Duration":74257,"SoundDuration":74257,"Delta":840278647},{"NoteNumber":62,"Velocity":35,"Duration":74257,"SoundDuration":74257,"Delta":840278647},{"NoteNumber":58,"Velocity":29,"Duration":74257,"SoundDuration":74257,"Delta":840278647},{"NoteNumber":77,"Velocity":57,"Duration":314135,"SoundDuration":314135,"Delta":840427162},{"NoteNumber":65,"Velocity":51,"Duration":78533,"SoundDuration":78533,"Delta":840427162},{"NoteNumber":58,"Velocity":46,"Duration":78533,"SoundDuration":78533,"Delta":840427162},{"NoteNumber":53,"Velocity":38,"Duration":78533,"SoundDuration":78533,"Delta":840427162},{"NoteNumber":70,"Velocity":34,"Duration":78533,"SoundDuration":78533,"Delta":840584230},{"NoteNumber":74,"Velocity":46,"Duration":78533,"SoundDuration":78533,"Delta":840584230},{"NoteNumber":62,"Velocity":35,"Duration":78533,"SoundDuration":78533,"Delta":840584230},{"NoteNumber":58,"Velocity":29,"Duration":78533,"SoundDuration":78533,"Delta":840584230},{"NoteNumber":77,"Velocity":75,"Duration":303030,"SoundDuration":303030,"Delta":840741298},{"NoteNumber":65,"Velocity":53,"Duration":75757,"SoundDuration":75757,"Delta":840741298},{"NoteNumber":41,"Velocity":84,"Duration":75757,"SoundDuration":75757,"Delta":840741298},{"NoteNumber":69,"Velocity":39,"Duration":75757,"SoundDuration":75757,"Delta":840892813},{"NoteNumber":72,"Velocity":46,"Duration":75757,"SoundDuration":75757,"Delta":840892813},{"NoteNumber":63,"Velocity":35,"Duration":75757,"SoundDuration":75757,"Delta":840892813},{"NoteNumber":60,"Velocity":29,"Duration":75757,"SoundDuration":75757,"Delta":840892813},{"NoteNumber":79,"Velocity":57,"Duration":71770,"SoundDuration":71770,"Delta":841044328},{"NoteNumber":67,"Velocity":56,"Duration":71770,"SoundDuration":71770,"Delta":841044328},{"NoteNumber":60,"Velocity":46,"Duration":71770,"SoundDuration":71770,"Delta":841044328},{"NoteNumber":53,"Velocity":38,"Duration":71770,"SoundDuration":71770,"Delta":841044328},{"NoteNumber":81,"Velocity":57,"Duration":77720,"SoundDuration":77720,"Delta":841187868},{"NoteNumber":69,"Velocity":50,"Duration":77720,"SoundDuration":77720,"Delta":841187868},{"NoteNumber":63,"Velocity":35,"Duration":77720,"SoundDuration":77720,"Delta":841187868},{"NoteNumber":60,"Velocity":29,"Duration":77720,"SoundDuration":77720,"Delta":841187868},{"NoteNumber":82,"Velocity":69,"Duration":294118,"SoundDuration":294118,"Delta":841343309},{"NoteNumber":70,"Velocity":51,"Duration":73529,"SoundDuration":73529,"Delta":841343309},{"NoteNumber":46,"Velocity":61,"Duration":73529,"SoundDuration":73529,"Delta":841343309},{"NoteNumber":74,"Velocity":34,"Duration":73529,"SoundDuration":73529,"Delta":841490368},{"NoteNumber":77,"Velocity":46,"Duration":73529,"SoundDuration":73529,"Delta":841490368},{"NoteNumber":62,"Velocity":35,"Duration":73529,"SoundDuration":73529,"Delta":841490368},{"NoteNumber":58,"Velocity":29,"Duration":73529,"SoundDuration":73529,"Delta":841490368},{"NoteNumber":70,"Velocity":51,"Duration":76922,"SoundDuration":76922,"Delta":841637427},{"NoteNumber":58,"Velocity":46,"Duration":76922,"SoundDuration":76922,"Delta":841637427},{"NoteNumber":53,"Velocity":38,"Duration":76922,"SoundDuration":76922,"Delta":841637427},{"NoteNumber":74,"Velocity":34,"Duration":90909,"SoundDuration":90909,"Delta":841791273},{"NoteNumber":77,"Velocity":46,"Duration":90909,"SoundDuration":90909,"Delta":841791273},{"NoteNumber":53,"Velocity":35,"Duration":90909,"SoundDuration":90909,"Delta":841791273},{"NoteNumber":50,"Velocity":29,"Duration":90909,"SoundDuration":90909,"Delta":841791273},{"NoteNumber":82,"Velocity":78,"Duration":298506,"SoundDuration":298506,"Delta":841973091},{"NoteNumber":70,"Velocity":53,"Duration":74626,"SoundDuration":74626,"Delta":841973091},{"NoteNumber":46,"Velocity":72,"Duration":74626,"SoundDuration":74626,"Delta":841973091},{"NoteNumber":77,"Velocity":44,"Duration":74626,"SoundDuration":74626,"Delta":842122344},{"NoteNumber":74,"Velocity":38,"Duration":74626,"SoundDuration":74626,"Delta":842122344},{"NoteNumber":65,"Velocity":34,"Duration":74626,"SoundDuration":74626,"Delta":842122344},{"NoteNumber":62,"Velocity":28,"Duration":74626,"SoundDuration":74626,"Delta":842122344},{"NoteNumber":82,"Velocity":64,"Duration":66666,"SoundDuration":66666,"Delta":842271598},{"NoteNumber":70,"Velocity":53,"Duration":66666,"SoundDuration":66666,"Delta":842271598},{"NoteNumber":62,"Velocity":44,"Duration":66666,"SoundDuration":66666,"Delta":842271598},{"NoteNumber":58,"Velocity":37,"Duration":66666,"SoundDuration":66666,"Delta":842271598},{"NoteNumber":82,"Velocity":64,"Duration":84507,"SoundDuration":84507,"Delta":842404931},{"NoteNumber":77,"Velocity":48,"Duration":84507,"SoundDuration":84507,"Delta":842404931},{"NoteNumber":74,"Velocity":41,"Duration":84507,"SoundDuration":84507,"Delta":842404931},{"NoteNumber":58,"Velocity":34,"Duration":84507,"SoundDuration":84507,"Delta":842404931},{"NoteNumber":53,"Velocity":28,"Duration":84507,"SoundDuration":84507,"Delta":842404931},{"NoteNumber":86,"Velocity":78,"Duration":71428,"SoundDuration":71428,"Delta":842573945},{"NoteNumber":74,"Velocity":53,"Duration":71428,"SoundDuration":71428,"Delta":842573945},{"NoteNumber":46,"Velocity":56,"Duration":71428,"SoundDuration":71428,"Delta":842573945},{"NoteNumber":82,"Velocity":62,"Duration":71428,"SoundDuration":71428,"Delta":842716802},{"NoteNumber":77,"Velocity":48,"Duration":71428,"SoundDuration":71428,"Delta":842716802},{"NoteNumber":65,"Velocity":34,"Duration":71428,"SoundDuration":71428,"Delta":842716802},{"NoteNumber":62,"Velocity":28,"Duration":71428,"SoundDuration":71428,"Delta":842716802},{"NoteNumber":82,"Velocity":62,"Duration":324324,"SoundDuration":324324,"Delta":842859659},{"NoteNumber":70,"Velocity":53,"Duration":81081,"SoundDuration":81081,"Delta":842859659},{"NoteNumber":62,"Velocity":44,"Duration":81081,"SoundDuration":81081,"Delta":842859659},{"NoteNumber":58,"Velocity":37,"Duration":81081,"SoundDuration":81081,"Delta":842859659},{"NoteNumber":74,"Velocity":36,"Duration":81081,"SoundDuration":81081,"Delta":843021821},{"NoteNumber":77,"Velocity":48,"Duration":81081,"SoundDuration":81081,"Delta":843021821},{"NoteNumber":58,"Velocity":34,"Duration":81081,"SoundDuration":81081,"Delta":843021821},{"NoteNumber":53,"Velocity":28,"Duration":81081,"SoundDuration":81081,"Delta":843021821},{"NoteNumber":77,"Velocity":77,"Duration":297029,"SoundDuration":297029,"Delta":843183983},{"NoteNumber":65,"Velocity":53,"Duration":74257,"SoundDuration":74257,"Delta":843183983},{"NoteNumber":46,"Velocity":74,"Duration":74257,"SoundDuration":74257,"Delta":843183983},{"NoteNumber":70,"Velocity":38,"Duration":74257,"SoundDuration":74257,"Delta":843332498},{"NoteNumber":74,"Velocity":44,"Duration":74257,"SoundDuration":74257,"Delta":843332498},{"NoteNumber":65,"Velocity":34,"Duration":74257,"SoundDuration":74257,"Delta":843332498},{"NoteNumber":62,"Velocity":28,"Duration":74257,"SoundDuration":74257,"Delta":843332498},{"NoteNumber":77,"Velocity":63,"Duration":67264,"SoundDuration":67264,"Delta":843481013},{"NoteNumber":65,"Velocity":53,"Duration":67264,"SoundDuration":67264,"Delta":843481013},{"NoteNumber":62,"Velocity":44,"Duration":67264,"SoundDuration":67264,"Delta":843481013},{"NoteNumber":58,"Velocity":37,"Duration":67264,"SoundDuration":67264,"Delta":843481013},{"NoteNumber":77,"Velocity":63,"Duration":81521,"SoundDuration":81521,"Delta":843615542},{"NoteNumber":74,"Velocity":48,"Duration":81521,"SoundDuration":81521,"Delta":843615542},{"NoteNumber":70,"Velocity":41,"Duration":81521,"SoundDuration":81521,"Delta":843615542},{"NoteNumber":58,"Velocity":34,"Duration":81521,"SoundDuration":81521,"Delta":843615542},{"NoteNumber":53,"Velocity":28,"Duration":81521,"SoundDuration":81521,"Delta":843615542},{"NoteNumber":82,"Velocity":75,"Duration":71090,"SoundDuration":71090,"Delta":843778586},{"NoteNumber":70,"Velocity":53,"Duration":71090,"SoundDuration":71090,"Delta":843778586},{"NoteNumber":46,"Velocity":53,"Duration":71090,"SoundDuration":71090,"Delta":843778586},{"NoteNumber":77,"Velocity":62,"Duration":71089,"SoundDuration":71089,"Delta":843920766},{"NoteNumber":74,"Velocity":48,"Duration":71089,"SoundDuration":71089,"Delta":843920766},{"NoteNumber":65,"Velocity":34,"Duration":71089,"SoundDuration":71089,"Delta":843920766},{"NoteNumber":62,"Velocity":28,"Duration":71089,"SoundDuration":71089,"Delta":843920766},{"NoteNumber":77,"Velocity":62,"Duration":322581,"SoundDuration":322581,"Delta":844062946},{"NoteNumber":65,"Velocity":53,"Duration":80645,"SoundDuration":80645,"Delta":844062946},{"NoteNumber":62,"Velocity":44,"Duration":80645,"SoundDuration":80645,"Delta":844062946},{"NoteNumber":58,"Velocity":37,"Duration":80645,"SoundDuration":80645,"Delta":844062946},{"NoteNumber":70,"Velocity":36,"Duration":80645,"SoundDuration":80645,"Delta":844224236},{"NoteNumber":74,"Velocity":48,"Duration":80645,"SoundDuration":80645,"Delta":844224236},{"NoteNumber":58,"Velocity":34,"Duration":80645,"SoundDuration":80645,"Delta":844224236},{"NoteNumber":53,"Velocity":28,"Duration":80645,"SoundDuration":80645,"Delta":844224236},{"NoteNumber":74,"Velocity":77,"Duration":299999,"SoundDuration":299999,"Delta":844385527},{"NoteNumber":62,"Velocity":56,"Duration":75000,"SoundDuration":75000,"Delta":844385527},{"NoteNumber":46,"Velocity":73,"Duration":75000,"SoundDuration":75000,"Delta":844385527},{"NoteNumber":70,"Velocity":44,"Duration":75000,"SoundDuration":75000,"Delta":844535527},{"NoteNumber":65,"Velocity":39,"Duration":75000,"SoundDuration":75000,"Delta":844535527},{"NoteNumber":62,"Velocity":35,"Duration":75000,"SoundDuration":75000,"Delta":844535527},{"NoteNumber":58,"Velocity":29,"Duration":75000,"SoundDuration":75000,"Delta":844535527},{"NoteNumber":74,"Velocity":62,"Duration":69124,"SoundDuration":69124,"Delta":844685527},{"NoteNumber":62,"Velocity":61,"Duration":69124,"SoundDuration":69124,"Delta":844685527},{"NoteNumber":58,"Velocity":46,"Duration":69124,"SoundDuration":69124,"Delta":844685527},{"NoteNumber":53,"Velocity":38,"Duration":69124,"SoundDuration":69124,"Delta":844685527},{"NoteNumber":75,"Velocity":62,"Duration":72463,"SoundDuration":72463,"Delta":844823776},{"NoteNumber":63,"Velocity":55,"Duration":72463,"SoundDuration":72463,"Delta":844823776},{"NoteNumber":62,"Velocity":35,"Duration":72463,"SoundDuration":72463,"Delta":844823776},{"NoteNumber":58,"Velocity":29,"Duration":72463,"SoundDuration":72463,"Delta":844823776},{"NoteNumber":79,"Velocity":69,"Duration":295567,"SoundDuration":295567,"Delta":844968703},{"NoteNumber":67,"Velocity":51,"Duration":73891,"SoundDuration":73891,"Delta":844968703},{"NoteNumber":46,"Velocity":51,"Duration":73891,"SoundDuration":73891,"Delta":844968703},{"NoteNumber":70,"Velocity":34,"Duration":73891,"SoundDuration":73891,"Delta":845116487},{"NoteNumber":74,"Velocity":46,"Duration":73891,"SoundDuration":73891,"Delta":845116487},{"NoteNumber":62,"Velocity":35,"Duration":73891,"SoundDuration":73891,"Delta":845116487},{"NoteNumber":58,"Velocity":29,"Duration":73891,"SoundDuration":73891,"Delta":845116487},{"NoteNumber":77,"Velocity":57,"Duration":314135,"SoundDuration":314135,"Delta":845264270},{"NoteNumber":65,"Velocity":51,"Duration":78533,"SoundDuration":78533,"Delta":845264270},{"NoteNumber":58,"Velocity":46,"Duration":78533,"SoundDuration":78533,"Delta":845264270},{"NoteNumber":53,"Velocity":38,"Duration":78533,"SoundDuration":78533,"Delta":845264270},{"NoteNumber":70,"Velocity":34,"Duration":78533,"SoundDuration":78533,"Delta":845421338},{"NoteNumber":74,"Velocity":46,"Duration":78533,"SoundDuration":78533,"Delta":845421338},{"NoteNumber":62,"Velocity":35,"Duration":78533,"SoundDuration":78533,"Delta":845421338},{"NoteNumber":58,"Velocity":29,"Duration":78533,"SoundDuration":78533,"Delta":845421338},{"NoteNumber":77,"Velocity":77,"Duration":303030,"SoundDuration":303030,"Delta":845578406},{"NoteNumber":65,"Velocity":56,"Duration":75757,"SoundDuration":75757,"Delta":845578406},{"NoteNumber":41,"Velocity":85,"Duration":75757,"SoundDuration":75757,"Delta":845578406},{"NoteNumber":69,"Velocity":39,"Duration":75757,"SoundDuration":75757,"Delta":845729921},{"NoteNumber":72,"Velocity":46,"Duration":75757,"SoundDuration":75757,"Delta":845729921},{"NoteNumber":63,"Velocity":35,"Duration":75757,"SoundDuration":75757,"Delta":845729921},{"NoteNumber":60,"Velocity":29,"Duration":75757,"SoundDuration":75757,"Delta":845729921},{"NoteNumber":79,"Velocity":57,"Duration":72115,"SoundDuration":72115,"Delta":845881436},{"NoteNumber":67,"Velocity":56,"Duration":72115,"SoundDuration":72115,"Delta":845881436},{"NoteNumber":60,"Velocity":46,"Duration":72115,"SoundDuration":72115,"Delta":845881436},{"NoteNumber":53,"Velocity":38,"Duration":72115,"SoundDuration":72115,"Delta":845881436},{"NoteNumber":81,"Velocity":57,"Duration":76922,"SoundDuration":76922,"Delta":846025667},{"NoteNumber":69,"Velocity":50,"Duration":76922,"SoundDuration":76922,"Delta":846025667},{"NoteNumber":63,"Velocity":35,"Duration":76922,"SoundDuration":76922,"Delta":846025667},{"NoteNumber":60,"Velocity":29,"Duration":76922,"SoundDuration":76922,"Delta":846025667},{"NoteNumber":82,"Velocity":69,"Duration":292683,"SoundDuration":292683,"Delta":846179513},{"NoteNumber":70,"Velocity":51,"Duration":73170,"SoundDuration":73170,"Delta":846179513},{"NoteNumber":46,"Velocity":61,"Duration":73170,"SoundDuration":73170,"Delta":846179513},{"NoteNumber":74,"Velocity":34,"Duration":73170,"SoundDuration":73170,"Delta":846325855},{"NoteNumber":77,"Velocity":46,"Duration":73170,"SoundDuration":73170,"Delta":846325855},{"NoteNumber":62,"Velocity":35,"Duration":73170,"SoundDuration":73170,"Delta":846325855},{"NoteNumber":58,"Velocity":29,"Duration":73170,"SoundDuration":73170,"Delta":846325855},{"NoteNumber":70,"Velocity":51,"Duration":77720,"SoundDuration":77720,"Delta":846472196},{"NoteNumber":58,"Velocity":46,"Duration":77720,"SoundDuration":77720,"Delta":846472196},{"NoteNumber":53,"Velocity":38,"Duration":77720,"SoundDuration":77720,"Delta":846472196},{"NoteNumber":74,"Velocity":34,"Duration":77319,"SoundDuration":77319,"Delta":846627236},{"NoteNumber":77,"Velocity":46,"Duration":77319,"SoundDuration":77319,"Delta":846627236},{"NoteNumber":82,"Velocity":78,"Duration":303030,"SoundDuration":303030,"Delta":846781875},{"NoteNumber":70,"Velocity":53,"Duration":75757,"SoundDuration":75757,"Delta":846781875},{"NoteNumber":62,"Velocity":72,"Duration":75757,"SoundDuration":75757,"Delta":846781875},{"NoteNumber":77,"Velocity":44,"Duration":75757,"SoundDuration":75757,"Delta":846933390},{"NoteNumber":74,"Velocity":38,"Duration":75757,"SoundDuration":75757,"Delta":846933390},{"NoteNumber":65,"Velocity":34,"Duration":75757,"SoundDuration":75757,"Delta":846933390},{"NoteNumber":84,"Velocity":61,"Duration":70422,"SoundDuration":70422,"Delta":847084905},{"NoteNumber":72,"Velocity":53,"Duration":70422,"SoundDuration":70422,"Delta":847084905},{"NoteNumber":58,"Velocity":44,"Duration":70422,"SoundDuration":70422,"Delta":847084905},{"NoteNumber":86,"Velocity":61,"Duration":75000,"SoundDuration":75000,"Delta":847225750},{"NoteNumber":74,"Velocity":48,"Duration":75000,"SoundDuration":75000,"Delta":847225750},{"NoteNumber":62,"Velocity":28,"Duration":75000,"SoundDuration":75000,"Delta":847225750},{"NoteNumber":65,"Velocity":34,"Duration":75000,"SoundDuration":75000,"Delta":847225750},{"NoteNumber":84,"Velocity":71,"Duration":290974,"SoundDuration":290974,"Delta":847375750},{"NoteNumber":72,"Velocity":49,"Duration":72527,"SoundDuration":72527,"Delta":847375750},{"NoteNumber":57,"Velocity":51,"Duration":72527,"SoundDuration":72527,"Delta":847375750},{"NoteNumber":77,"Velocity":38,"Duration":72815,"SoundDuration":72815,"Delta":847521093},{"NoteNumber":81,"Velocity":44,"Duration":72815,"SoundDuration":72815,"Delta":847521093},{"NoteNumber":60,"Velocity":28,"Duration":72815,"SoundDuration":72815,"Delta":847521093},{"NoteNumber":65,"Velocity":34,"Duration":72815,"SoundDuration":72815,"Delta":847521093},{"NoteNumber":81,"Velocity":57,"Duration":310748,"SoundDuration":310748,"Delta":847666724},{"NoteNumber":69,"Velocity":49,"Duration":77587,"SoundDuration":77587,"Delta":847666724},{"NoteNumber":53,"Velocity":44,"Duration":77587,"SoundDuration":77587,"Delta":847666724},{"NoteNumber":77,"Velocity":44,"Duration":77720,"SoundDuration":77720,"Delta":847822032},{"NoteNumber":72,"Velocity":33,"Duration":77720,"SoundDuration":77720,"Delta":847822032},{"NoteNumber":57,"Velocity":28,"Duration":77720,"SoundDuration":77720,"Delta":847822032},{"NoteNumber":60,"Velocity":34,"Duration":77720,"SoundDuration":77720,"Delta":847822032},{"NoteNumber":79,"Velocity":76,"Duration":301260,"SoundDuration":301260,"Delta":847977473},{"NoteNumber":67,"Velocity":53,"Duration":75129,"SoundDuration":75129,"Delta":847977473},{"NoteNumber":52,"Velocity":72,"Duration":75129,"SoundDuration":75129,"Delta":847977473},{"NoteNumber":76,"Velocity":44,"Duration":75377,"SoundDuration":75377,"Delta":848127979},{"NoteNumber":72,"Velocity":38,"Duration":75377,"SoundDuration":75377,"Delta":848127979},{"NoteNumber":55,"Velocity":28,"Duration":75377,"SoundDuration":75377,"Delta":848127979},{"NoteNumber":60,"Velocity":34,"Duration":75377,"SoundDuration":75377,"Delta":848127979},{"NoteNumber":81,"Velocity":60,"Duration":70754,"SoundDuration":70754,"Delta":848278733},{"NoteNumber":69,"Velocity":53,"Duration":70754,"SoundDuration":70754,"Delta":848278733},{"NoteNumber":48,"Velocity":44,"Duration":70754,"SoundDuration":70754,"Delta":848278733},{"NoteNumber":82,"Velocity":60,"Duration":75757,"SoundDuration":75757,"Delta":848420242},{"NoteNumber":70,"Velocity":48,"Duration":75757,"SoundDuration":75757,"Delta":848420242},{"NoteNumber":60,"Velocity":28,"Duration":75757,"SoundDuration":75757,"Delta":848420242},{"NoteNumber":64,"Velocity":34,"Duration":75757,"SoundDuration":75757,"Delta":848420242},{"NoteNumber":81,"Velocity":67,"Duration":291261,"SoundDuration":291261,"Delta":848571757},{"NoteNumber":69,"Velocity":49,"Duration":72815,"SoundDuration":72815,"Delta":848571757},{"NoteNumber":53,"Velocity":51,"Duration":72815,"SoundDuration":72815,"Delta":848571757},{"NoteNumber":72,"Velocity":38,"Duration":72815,"SoundDuration":72815,"Delta":848717388},{"NoteNumber":77,"Velocity":44,"Duration":72815,"SoundDuration":72815,"Delta":848717388},{"NoteNumber":60,"Velocity":28,"Duration":72815,"SoundDuration":72815,"Delta":848717388},{"NoteNumber":65,"Velocity":34,"Duration":72815,"SoundDuration":72815,"Delta":848717388},{"NoteNumber":77,"Velocity":57,"Duration":306121,"SoundDuration":306121,"Delta":848863019},{"NoteNumber":65,"Velocity":49,"Duration":76530,"SoundDuration":76530,"Delta":848863019},{"NoteNumber":57,"Velocity":44,"Duration":76530,"SoundDuration":76530,"Delta":848863019},{"NoteNumber":72,"Velocity":44,"Duration":76530,"SoundDuration":76530,"Delta":849016080},{"NoteNumber":69,"Velocity":33,"Duration":76530,"SoundDuration":76530,"Delta":849016080},{"NoteNumber":60,"Velocity":28,"Duration":76530,"SoundDuration":76530,"Delta":849016080},{"NoteNumber":65,"Velocity":34,"Duration":76530,"SoundDuration":76530,"Delta":849016080},{"NoteNumber":84,"Velocity":74,"Duration":301260,"SoundDuration":301260,"Delta":849169141},{"NoteNumber":72,"Velocity":52,"Duration":75129,"SoundDuration":75129,"Delta":849169141},{"NoteNumber":57,"Velocity":72,"Duration":75129,"SoundDuration":75129,"Delta":849169141},{"NoteNumber":81,"Velocity":44,"Duration":75377,"SoundDuration":75377,"Delta":849319648},{"NoteNumber":77,"Velocity":38,"Duration":75377,"SoundDuration":75377,"Delta":849319648},{"NoteNumber":69,"Velocity":34,"Duration":75377,"SoundDuration":75377,"Delta":849319648},{"NoteNumber":60,"Velocity":30,"Duration":75377,"SoundDuration":75377,"Delta":849319648},{"NoteNumber":65,"Velocity":30,"Duration":75377,"SoundDuration":75377,"Delta":849319648},{"NoteNumber":84,"Velocity":61,"Duration":70754,"SoundDuration":70754,"Delta":849470402},{"NoteNumber":72,"Velocity":53,"Duration":70754,"SoundDuration":70754,"Delta":849470402},{"NoteNumber":57,"Velocity":44,"Duration":70754,"SoundDuration":70754,"Delta":849470402},{"NoteNumber":77,"Velocity":44,"Duration":75377,"SoundDuration":75377,"Delta":849611911},{"NoteNumber":84,"Velocity":61,"Duration":75377,"SoundDuration":75377,"Delta":849611911},{"NoteNumber":81,"Velocity":48,"Duration":75377,"SoundDuration":75377,"Delta":849611911},{"NoteNumber":60,"Velocity":28,"Duration":75377,"SoundDuration":75377,"Delta":849611911},{"NoteNumber":69,"Velocity":34,"Duration":75377,"SoundDuration":75377,"Delta":849611911},{"NoteNumber":65,"Velocity":28,"Duration":75377,"SoundDuration":75377,"Delta":849611911},{"NoteNumber":83,"Velocity":69,"Duration":293113,"SoundDuration":293113,"Delta":849762371},{"NoteNumber":71,"Velocity":53,"Duration":73170,"SoundDuration":73170,"Delta":849762371},{"NoteNumber":56,"Velocity":56,"Duration":73170,"SoundDuration":73170,"Delta":849762371},{"NoteNumber":74,"Velocity":41,"Duration":73242,"SoundDuration":73242,"Delta":849908713},{"NoteNumber":77,"Velocity":48,"Duration":73242,"SoundDuration":73242,"Delta":849908713},{"NoteNumber":59,"Velocity":30,"Duration":73242,"SoundDuration":73242,"Delta":849908713},{"NoteNumber":65,"Velocity":30,"Duration":73242,"SoundDuration":73242,"Delta":849908713},{"NoteNumber":68,"Velocity":37,"Duration":73242,"SoundDuration":73242,"Delta":849908713},{"NoteNumber":82,"Velocity":62,"Duration":298208,"SoundDuration":298208,"Delta":850055485},{"NoteNumber":70,"Velocity":53,"Duration":73529,"SoundDuration":73529,"Delta":850055485},{"NoteNumber":55,"Velocity":48,"Duration":73529,"SoundDuration":73529,"Delta":850055485},{"NoteNumber":76,"Velocity":48,"Duration":76142,"SoundDuration":76142,"Delta":850202737},{"NoteNumber":72,"Velocity":36,"Duration":76142,"SoundDuration":76142,"Delta":850202737},{"NoteNumber":58,"Velocity":30,"Duration":76142,"SoundDuration":76142,"Delta":850202737},{"NoteNumber":64,"Velocity":30,"Duration":76142,"SoundDuration":76142,"Delta":850202737},{"NoteNumber":67,"Velocity":37,"Duration":76142,"SoundDuration":76142,"Delta":850202737},{"NoteNumber":81,"Velocity":58,"Duration":297490,"SoundDuration":297490,"Delta":850353693},{"NoteNumber":69,"Velocity":45,"Duration":73689,"SoundDuration":73689,"Delta":850353693},{"NoteNumber":53,"Velocity":46,"Duration":73689,"SoundDuration":73689,"Delta":850353693},{"NoteNumber":72,"Velocity":34,"Duration":74583,"SoundDuration":74583,"Delta":850501509},{"NoteNumber":77,"Velocity":40,"Duration":74583,"SoundDuration":74583,"Delta":850501509},{"NoteNumber":65,"Velocity":30,"Duration":74583,"SoundDuration":74583,"Delta":850501509},{"NoteNumber":57,"Velocity":26,"Duration":74583,"SoundDuration":74583,"Delta":850501509},{"NoteNumber":60,"Velocity":26,"Duration":74583,"SoundDuration":74583,"Delta":850501509},{"NoteNumber":80,"Velocity":52,"Duration":305053,"SoundDuration":305053,"Delta":850651184},{"NoteNumber":68,"Velocity":45,"Duration":75545,"SoundDuration":75545,"Delta":850651184},{"NoteNumber":53,"Velocity":40,"Duration":75545,"SoundDuration":75545,"Delta":850651184},{"NoteNumber":77,"Velocity":40,"Duration":76485,"SoundDuration":76485,"Delta":850802734},{"NoteNumber":72,"Velocity":29,"Duration":76485,"SoundDuration":76485,"Delta":850802734},{"NoteNumber":56,"Velocity":26,"Duration":76485,"SoundDuration":76485,"Delta":850802734},{"NoteNumber":60,"Velocity":26,"Duration":76485,"SoundDuration":76485,"Delta":850802734},{"NoteNumber":65,"Velocity":30,"Duration":76485,"SoundDuration":76485,"Delta":850802734},{"NoteNumber":79,"Velocity":58,"Duration":621538,"SoundDuration":621538,"Delta":850956238},{"NoteNumber":67,"Velocity":45,"Duration":77496,"SoundDuration":77496,"Delta":850956238},{"NoteNumber":48,"Velocity":46,"Duration":77496,"SoundDuration":77496,"Delta":850956238},{"NoteNumber":72,"Velocity":34,"Duration":77720,"SoundDuration":77720,"Delta":851111455},{"NoteNumber":76,"Velocity":40,"Duration":77720,"SoundDuration":77720,"Delta":851111455},{"NoteNumber":64,"Velocity":30,"Duration":77720,"SoundDuration":77720,"Delta":851111455},{"NoteNumber":60,"Velocity":26,"Duration":77720,"SoundDuration":77720,"Delta":851111455},{"NoteNumber":67,"Velocity":45,"Duration":77720,"SoundDuration":77720,"Delta":851266895},{"NoteNumber":55,"Velocity":40,"Duration":77720,"SoundDuration":77720,"Delta":851266895},{"NoteNumber":76,"Velocity":40,"Duration":77720,"SoundDuration":77720,"Delta":851422336},{"NoteNumber":72,"Velocity":29,"Duration":77720,"SoundDuration":77720,"Delta":851422336},{"NoteNumber":60,"Velocity":26,"Duration":77720,"SoundDuration":77720,"Delta":851422336},{"NoteNumber":64,"Velocity":30,"Duration":77720,"SoundDuration":77720,"Delta":851422336},{"NoteNumber":79,"Velocity":78,"Duration":297029,"SoundDuration":297029,"Delta":851577776},{"NoteNumber":67,"Velocity":53,"Duration":74257,"SoundDuration":74257,"Delta":851577776},{"NoteNumber":48,"Velocity":72,"Duration":74257,"SoundDuration":74257,"Delta":851577776},{"NoteNumber":76,"Velocity":44,"Duration":74257,"SoundDuration":74257,"Delta":851726291},{"NoteNumber":72,"Velocity":38,"Duration":74257,"SoundDuration":74257,"Delta":851726291},{"NoteNumber":60,"Velocity":26,"Duration":74257,"SoundDuration":74257,"Delta":851726291},{"NoteNumber":64,"Velocity":34,"Duration":74257,"SoundDuration":74257,"Delta":851726291},{"NoteNumber":79,"Velocity":70,"Duration":70093,"SoundDuration":70093,"Delta":851874806},{"NoteNumber":67,"Velocity":53,"Duration":70093,"SoundDuration":70093,"Delta":851874806},{"NoteNumber":55,"Velocity":44,"Duration":70093,"SoundDuration":70093,"Delta":851874806},{"NoteNumber":76,"Velocity":44,"Duration":75377,"SoundDuration":75377,"Delta":852014993},{"NoteNumber":79,"Velocity":70,"Duration":75377,"SoundDuration":75377,"Delta":852014993},{"NoteNumber":72,"Velocity":41,"Duration":75377,"SoundDuration":75377,"Delta":852014993},{"NoteNumber":60,"Velocity":28,"Duration":75377,"SoundDuration":75377,"Delta":852014993},{"NoteNumber":64,"Velocity":34,"Duration":75377,"SoundDuration":75377,"Delta":852014993},{"NoteNumber":79,"Velocity":71,"Duration":288461,"SoundDuration":288461,"Delta":852165747},{"NoteNumber":67,"Velocity":49,"Duration":72115,"SoundDuration":72115,"Delta":852165747},{"NoteNumber":47,"Velocity":80,"Duration":72115,"SoundDuration":72115,"Delta":852165747},{"NoteNumber":74,"Velocity":38,"Duration":72115,"SoundDuration":72115,"Delta":852309978},{"NoteNumber":77,"Velocity":44,"Duration":72115,"SoundDuration":72115,"Delta":852309978},{"NoteNumber":62,"Velocity":28,"Duration":72115,"SoundDuration":72115,"Delta":852309978},{"NoteNumber":65,"Velocity":34,"Duration":72115,"SoundDuration":72115,"Delta":852309978},{"NoteNumber":79,"Velocity":63,"Duration":310682,"SoundDuration":310682,"Delta":852454209},{"NoteNumber":67,"Velocity":49,"Duration":77521,"SoundDuration":77521,"Delta":852454209},{"NoteNumber":55,"Velocity":44,"Duration":77521,"SoundDuration":77521,"Delta":852454209},{"NoteNumber":77,"Velocity":44,"Duration":77720,"SoundDuration":77720,"Delta":852609451},{"NoteNumber":74,"Velocity":33,"Duration":77720,"SoundDuration":77720,"Delta":852609451},{"NoteNumber":62,"Velocity":28,"Duration":77720,"SoundDuration":77720,"Delta":852609451},{"NoteNumber":65,"Velocity":34,"Duration":77720,"SoundDuration":77720,"Delta":852609451},{"NoteNumber":79,"Velocity":71,"Duration":59701,"SoundDuration":59701,"Delta":852764892},{"NoteNumber":67,"Velocity":49,"Duration":74626,"SoundDuration":74626,"Delta":852764892},{"NoteNumber":43,"Velocity":89,"Duration":74626,"SoundDuration":74626,"Delta":852764892},{"NoteNumber":81,"Velocity":58,"Duration":59701,"SoundDuration":59701,"Delta":852824593},{"NoteNumber":79,"Velocity":58,"Duration":59701,"SoundDuration":59701,"Delta":852884295},{"NoteNumber":74,"Velocity":44,"Duration":74626,"SoundDuration":74626,"Delta":852914145},{"NoteNumber":59,"Velocity":26,"Duration":74626,"SoundDuration":74626,"Delta":852914145},{"NoteNumber":65,"Velocity":34,"Duration":74626,"SoundDuration":74626,"Delta":852914145},{"NoteNumber":78,"Velocity":59,"Duration":59701,"SoundDuration":59701,"Delta":852943996},{"NoteNumber":79,"Velocity":59,"Duration":59701,"SoundDuration":59701,"Delta":853003697},{"NoteNumber":81,"Velocity":64,"Duration":70422,"SoundDuration":70422,"Delta":853063399},{"NoteNumber":69,"Velocity":49,"Duration":70422,"SoundDuration":70422,"Delta":853063399},{"NoteNumber":55,"Velocity":44,"Duration":70422,"SoundDuration":70422,"Delta":853063399},{"NoteNumber":83,"Velocity":64,"Duration":75000,"SoundDuration":75000,"Delta":853204244},{"NoteNumber":71,"Velocity":44,"Duration":75000,"SoundDuration":75000,"Delta":853204244},{"NoteNumber":62,"Velocity":28,"Duration":75000,"SoundDuration":75000,"Delta":853204244},{"NoteNumber":65,"Velocity":34,"Duration":75000,"SoundDuration":75000,"Delta":853204244},{"NoteNumber":84,"Velocity":71,"Duration":287080,"SoundDuration":287080,"Delta":853354244},{"NoteNumber":72,"Velocity":49,"Duration":71770,"SoundDuration":71770,"Delta":853354244},{"NoteNumber":48,"Velocity":77,"Duration":71770,"SoundDuration":71770,"Delta":853354244},{"NoteNumber":76,"Velocity":38,"Duration":71770,"SoundDuration":71770,"Delta":853497784},{"NoteNumber":79,"Velocity":44,"Duration":71770,"SoundDuration":71770,"Delta":853497784},{"NoteNumber":60,"Velocity":28,"Duration":71770,"SoundDuration":71770,"Delta":853497784},{"NoteNumber":64,"Velocity":34,"Duration":71770,"SoundDuration":71770,"Delta":853497784},{"NoteNumber":79,"Velocity":63,"Duration":304569,"SoundDuration":304569,"Delta":853641325},{"NoteNumber":67,"Velocity":49,"Duration":76142,"SoundDuration":76142,"Delta":853641325},{"NoteNumber":55,"Velocity":44,"Duration":76142,"SoundDuration":76142,"Delta":853641325},{"NoteNumber":76,"Velocity":44,"Duration":76142,"SoundDuration":76142,"Delta":853793609},{"NoteNumber":72,"Velocity":33,"Duration":76142,"SoundDuration":76142,"Delta":853793609},{"NoteNumber":60,"Velocity":28,"Duration":76142,"SoundDuration":76142,"Delta":853793609},{"NoteNumber":64,"Velocity":34,"Duration":76142,"SoundDuration":76142,"Delta":853793609},{"NoteNumber":79,"Velocity":71,"Duration":59405,"SoundDuration":59405,"Delta":853945894},{"NoteNumber":67,"Velocity":49,"Duration":74257,"SoundDuration":74257,"Delta":853945894},{"NoteNumber":43,"Velocity":77,"Duration":74257,"SoundDuration":74257,"Delta":853945894},{"NoteNumber":81,"Velocity":58,"Duration":59406,"SoundDuration":59406,"Delta":854005300},{"NoteNumber":79,"Velocity":58,"Duration":59405,"SoundDuration":59405,"Delta":854064706},{"NoteNumber":74,"Velocity":44,"Duration":74257,"SoundDuration":74257,"Delta":854094409},{"NoteNumber":59,"Velocity":26,"Duration":74257,"SoundDuration":74257,"Delta":854094409},{"NoteNumber":65,"Velocity":34,"Duration":74257,"SoundDuration":74257,"Delta":854094409},{"NoteNumber":78,"Velocity":59,"Duration":59405,"SoundDuration":59405,"Delta":854124112},{"NoteNumber":79,"Velocity":59,"Duration":59405,"SoundDuration":59405,"Delta":854183518},{"NoteNumber":81,"Velocity":64,"Duration":70422,"SoundDuration":70422,"Delta":854242924},{"NoteNumber":69,"Velocity":49,"Duration":70422,"SoundDuration":70422,"Delta":854242924},{"NoteNumber":55,"Velocity":44,"Duration":70422,"SoundDuration":70422,"Delta":854242924},{"NoteNumber":83,"Velocity":64,"Duration":75000,"SoundDuration":75000,"Delta":854383769},{"NoteNumber":71,"Velocity":44,"Duration":75000,"SoundDuration":75000,"Delta":854383769},{"NoteNumber":62,"Velocity":28,"Duration":75000,"SoundDuration":75000,"Delta":854383769},{"NoteNumber":65,"Velocity":34,"Duration":75000,"SoundDuration":75000,"Delta":854383769},{"NoteNumber":84,"Velocity":71,"Duration":289854,"SoundDuration":289854,"Delta":854533769},{"NoteNumber":72,"Velocity":49,"Duration":72463,"SoundDuration":72463,"Delta":854533769},{"NoteNumber":48,"Velocity":51,"Duration":72463,"SoundDuration":72463,"Delta":854533769},{"NoteNumber":76,"Velocity":38,"Duration":72463,"SoundDuration":72463,"Delta":854678696},{"NoteNumber":79,"Velocity":44,"Duration":72463,"SoundDuration":72463,"Delta":854678696},{"NoteNumber":60,"Velocity":28,"Duration":72463,"SoundDuration":72463,"Delta":854678696},{"NoteNumber":64,"Velocity":34,"Duration":72463,"SoundDuration":72463,"Delta":854678696},{"NoteNumber":79,"Velocity":63,"Duration":310004,"SoundDuration":310004,"Delta":854823624},{"NoteNumber":67,"Velocity":49,"Duration":76844,"SoundDuration":76844,"Delta":854823624},{"NoteNumber":55,"Velocity":44,"Duration":76844,"SoundDuration":76844,"Delta":854823624},{"NoteNumber":76,"Velocity":44,"Duration":77720,"SoundDuration":77720,"Delta":854978188},{"NoteNumber":72,"Velocity":33,"Duration":77720,"SoundDuration":77720,"Delta":854978188},{"NoteNumber":60,"Velocity":28,"Duration":77720,"SoundDuration":77720,"Delta":854978188},{"NoteNumber":64,"Velocity":34,"Duration":77720,"SoundDuration":77720,"Delta":854978188},{"NoteNumber":79,"Velocity":71,"Duration":59405,"SoundDuration":59405,"Delta":855133629},{"NoteNumber":67,"Velocity":49,"Duration":74257,"SoundDuration":74257,"Delta":855133629},{"NoteNumber":43,"Velocity":86,"Duration":74257,"SoundDuration":74257,"Delta":855133629},{"NoteNumber":81,"Velocity":58,"Duration":59406,"SoundDuration":59406,"Delta":855193035},{"NoteNumber":79,"Velocity":58,"Duration":59405,"SoundDuration":59405,"Delta":855252441},{"NoteNumber":74,"Velocity":44,"Duration":74257,"SoundDuration":74257,"Delta":855282144},{"NoteNumber":59,"Velocity":26,"Duration":74257,"SoundDuration":74257,"Delta":855282144},{"NoteNumber":65,"Velocity":34,"Duration":74257,"SoundDuration":74257,"Delta":855282144},{"NoteNumber":78,"Velocity":59,"Duration":59405,"SoundDuration":59405,"Delta":855311847},{"NoteNumber":79,"Velocity":59,"Duration":59405,"SoundDuration":59405,"Delta":855371253},{"NoteNumber":81,"Velocity":64,"Duration":72463,"SoundDuration":72463,"Delta":855430659},{"NoteNumber":69,"Velocity":49,"Duration":72463,"SoundDuration":72463,"Delta":855430659},{"NoteNumber":55,"Velocity":44,"Duration":72463,"SoundDuration":72463,"Delta":855430659},{"NoteNumber":83,"Velocity":64,"Duration":76142,"SoundDuration":76142,"Delta":855575586},{"NoteNumber":71,"Velocity":44,"Duration":76142,"SoundDuration":76142,"Delta":855575586},{"NoteNumber":62,"Velocity":28,"Duration":76142,"SoundDuration":76142,"Delta":855575586},{"NoteNumber":65,"Velocity":34,"Duration":76142,"SoundDuration":76142,"Delta":855575586},{"NoteNumber":84,"Velocity":71,"Duration":650639,"SoundDuration":650639,"Delta":855729278},{"NoteNumber":72,"Velocity":38,"Duration":650639,"SoundDuration":650639,"Delta":855729278},{"NoteNumber":64,"Velocity":56,"Duration":83333,"SoundDuration":83333,"Delta":855729278},{"NoteNumber":60,"Velocity":47,"Duration":83333,"SoundDuration":83333,"Delta":855729278},{"NoteNumber":76,"Velocity":65,"Duration":77674,"SoundDuration":77674,"Delta":855892633},{"NoteNumber":79,"Velocity":65,"Duration":77674,"SoundDuration":77674,"Delta":855892633},{"NoteNumber":60,"Velocity":49,"Duration":77674,"SoundDuration":77674,"Delta":855892633},{"NoteNumber":48,"Velocity":40,"Duration":77674,"SoundDuration":77674,"Delta":855892633},{"NoteNumber":76,"Velocity":72,"Duration":80009,"SoundDuration":80009,"Delta":856049125},{"NoteNumber":79,"Velocity":72,"Duration":80009,"SoundDuration":80009,"Delta":856049125},{"NoteNumber":55,"Velocity":55,"Duration":80009,"SoundDuration":80009,"Delta":856049125},{"NoteNumber":43,"Velocity":46,"Duration":80009,"SoundDuration":80009,"Delta":856049125},{"NoteNumber":76,"Velocity":78,"Duration":83342,"SoundDuration":83342,"Delta":856210764},{"NoteNumber":79,"Velocity":78,"Duration":83342,"SoundDuration":83342,"Delta":856210764},{"NoteNumber":53,"Velocity":60,"Duration":83342,"SoundDuration":83342,"Delta":856210764},{"NoteNumber":41,"Velocity":50,"Duration":83342,"SoundDuration":83342,"Delta":856210764},{"NoteNumber":84,"Velocity":83,"Duration":310880,"SoundDuration":310880,"Delta":856379918},{"NoteNumber":72,"Velocity":70,"Duration":77720,"SoundDuration":77720,"Delta":856379918},{"NoteNumber":52,"Velocity":91,"Duration":77720,"SoundDuration":77720,"Delta":856379918},{"NoteNumber":40,"Velocity":73,"Duration":77720,"SoundDuration":77720,"Delta":856379918},{"NoteNumber":79,"Velocity":74,"Duration":77720,"SoundDuration":77720,"Delta":856535359},{"NoteNumber":76,"Velocity":62,"Duration":77720,"SoundDuration":77720,"Delta":856535359},{"NoteNumber":60,"Velocity":56,"Duration":77720,"SoundDuration":77720,"Delta":856535359},{"NoteNumber":55,"Velocity":46,"Duration":77720,"SoundDuration":77720,"Delta":856535359},{"NoteNumber":84,"Velocity":76,"Duration":69767,"SoundDuration":69767,"Delta":856690799},{"NoteNumber":72,"Velocity":64,"Duration":69767,"SoundDuration":69767,"Delta":856690799},{"NoteNumber":48,"Velocity":63,"Duration":69767,"SoundDuration":69767,"Delta":856690799},{"NoteNumber":36,"Velocity":53,"Duration":69767,"SoundDuration":69767,"Delta":856690799},{"NoteNumber":84,"Velocity":76,"Duration":80645,"SoundDuration":80645,"Delta":856830334},{"NoteNumber":72,"Velocity":64,"Duration":80645,"SoundDuration":80645,"Delta":856830334},{"NoteNumber":60,"Velocity":55,"Duration":80645,"SoundDuration":80645,"Delta":856830334},{"NoteNumber":55,"Velocity":46,"Duration":80645,"SoundDuration":80645,"Delta":856830334},{"NoteNumber":52,"Velocity":46,"Duration":80645,"SoundDuration":80645,"Delta":856830334},{"NoteNumber":81,"Velocity":84,"Duration":222553,"SoundDuration":222553,"Delta":856991625},{"NoteNumber":69,"Velocity":70,"Duration":222553,"SoundDuration":222553,"Delta":856991625},{"NoteNumber":72,"Velocity":70,"Duration":222553,"SoundDuration":222553,"Delta":856991625},{"NoteNumber":53,"Velocity":78,"Duration":72815,"SoundDuration":72815,"Delta":856991625},{"NoteNumber":41,"Velocity":66,"Duration":72815,"SoundDuration":72815,"Delta":856991625},{"NoteNumber":57,"Velocity":55,"Duration":76922,"SoundDuration":76922,"Delta":857137256},{"NoteNumber":53,"Velocity":46,"Duration":76922,"SoundDuration":76922,"Delta":857137256},{"NoteNumber":79,"Velocity":81,"Duration":76923,"SoundDuration":76923,"Delta":857214179},{"NoteNumber":67,"Velocity":69,"Duration":76923,"SoundDuration":76923,"Delta":857214179},{"NoteNumber":70,"Velocity":69,"Duration":76923,"SoundDuration":76923,"Delta":857214179},{"NoteNumber":77,"Velocity":84,"Duration":307691,"SoundDuration":307691,"Delta":857291102},{"NoteNumber":65,"Velocity":70,"Duration":307691,"SoundDuration":307691,"Delta":857291102},{"NoteNumber":69,"Velocity":70,"Duration":307691,"SoundDuration":307691,"Delta":857291102},{"NoteNumber":60,"Velocity":64,"Duration":76922,"SoundDuration":76922,"Delta":857291102},{"NoteNumber":57,"Velocity":54,"Duration":76922,"SoundDuration":76922,"Delta":857291102},{"NoteNumber":57,"Velocity":55,"Duration":76923,"SoundDuration":76923,"Delta":857444948},{"NoteNumber":53,"Velocity":46,"Duration":76923,"SoundDuration":76923,"Delta":857444948},{"NoteNumber":84,"Velocity":83,"Duration":309277,"SoundDuration":309277,"Delta":857598794},{"NoteNumber":72,"Velocity":70,"Duration":77319,"SoundDuration":77319,"Delta":857598794},{"NoteNumber":52,"Velocity":77,"Duration":77319,"SoundDuration":77319,"Delta":857598794},{"NoteNumber":40,"Velocity":65,"Duration":77319,"SoundDuration":77319,"Delta":857598794},{"NoteNumber":79,"Velocity":74,"Duration":77319,"SoundDuration":77319,"Delta":857753433},{"NoteNumber":76,"Velocity":62,"Duration":77319,"SoundDuration":77319,"Delta":857753433},{"NoteNumber":60,"Velocity":56,"Duration":77319,"SoundDuration":77319,"Delta":857753433},{"NoteNumber":55,"Velocity":46,"Duration":77319,"SoundDuration":77319,"Delta":857753433},{"NoteNumber":84,"Velocity":76,"Duration":69444,"SoundDuration":69444,"Delta":857908072},{"NoteNumber":72,"Velocity":64,"Duration":69444,"SoundDuration":69444,"Delta":857908072},{"NoteNumber":48,"Velocity":63,"Duration":69444,"SoundDuration":69444,"Delta":857908072},{"NoteNumber":36,"Velocity":53,"Duration":69444,"SoundDuration":69444,"Delta":857908072},{"NoteNumber":84,"Velocity":76,"Duration":81521,"SoundDuration":81521,"Delta":858046961},{"NoteNumber":72,"Velocity":64,"Duration":81521,"SoundDuration":81521,"Delta":858046961},{"NoteNumber":60,"Velocity":55,"Duration":81521,"SoundDuration":81521,"Delta":858046961},{"NoteNumber":55,"Velocity":46,"Duration":81521,"SoundDuration":81521,"Delta":858046961},{"NoteNumber":52,"Velocity":46,"Duration":81521,"SoundDuration":81521,"Delta":858046961},{"NoteNumber":81,"Velocity":84,"Duration":72463,"SoundDuration":72463,"Delta":858210004},{"NoteNumber":69,"Velocity":70,"Duration":72463,"SoundDuration":72463,"Delta":858210004},{"NoteNumber":72,"Velocity":70,"Duration":72463,"SoundDuration":72463,"Delta":858210004},{"NoteNumber":53,"Velocity":78,"Duration":72463,"SoundDuration":72463,"Delta":858210004},{"NoteNumber":41,"Velocity":66,"Duration":72463,"SoundDuration":72463,"Delta":858210004},{"NoteNumber":65,"Velocity":69,"Duration":77319,"SoundDuration":77319,"Delta":858354932},{"NoteNumber":69,"Velocity":69,"Duration":77319,"SoundDuration":77319,"Delta":858354932},{"NoteNumber":77,"Velocity":81,"Duration":77319,"SoundDuration":77319,"Delta":858354932},{"NoteNumber":60,"Velocity":55,"Duration":77319,"SoundDuration":77319,"Delta":858354932},{"NoteNumber":57,"Velocity":46,"Duration":77319,"SoundDuration":77319,"Delta":858354932},{"NoteNumber":88,"Velocity":84,"Duration":38659,"SoundDuration":38659,"Delta":858470911},{"NoteNumber":64,"Velocity":59,"Duration":38659,"SoundDuration":38659,"Delta":858470911},{"NoteNumber":89,"Velocity":84,"Duration":79787,"SoundDuration":79787,"Delta":858509571},{"NoteNumber":77,"Velocity":70,"Duration":79787,"SoundDuration":79787,"Delta":858509571},{"NoteNumber":65,"Velocity":64,"Duration":79787,"SoundDuration":79787,"Delta":858509571},{"NoteNumber":81,"Velocity":70,"Duration":307691,"SoundDuration":307691,"Delta":858828720},{"NoteNumber":84,"Velocity":83,"Duration":307691,"SoundDuration":307691,"Delta":858828720},{"NoteNumber":72,"Velocity":70,"Duration":307691,"SoundDuration":307691,"Delta":858828720},{"NoteNumber":60,"Velocity":65,"Duration":307691,"SoundDuration":307691,"Delta":858828720},{"NoteNumber":57,"Velocity":55,"Duration":307691,"SoundDuration":307691,"Delta":858828720},{"NoteNumber":77,"Velocity":64,"Duration":73529,"SoundDuration":73529,"Delta":859136412},{"NoteNumber":81,"Velocity":76,"Duration":73529,"SoundDuration":73529,"Delta":859136412},{"NoteNumber":69,"Velocity":64,"Duration":73529,"SoundDuration":73529,"Delta":859136412},{"NoteNumber":57,"Velocity":63,"Duration":73529,"SoundDuration":73529,"Delta":859136412},{"NoteNumber":53,"Velocity":53,"Duration":73529,"SoundDuration":73529,"Delta":859136412},{"NoteNumber":82,"Velocity":64,"Duration":76142,"SoundDuration":76142,"Delta":859283471},{"NoteNumber":86,"Velocity":76,"Duration":76142,"SoundDuration":76142,"Delta":859283471},{"NoteNumber":74,"Velocity":64,"Duration":76142,"SoundDuration":76142,"Delta":859283471},{"NoteNumber":62,"Velocity":55,"Duration":76142,"SoundDuration":76142,"Delta":859283471},{"NoteNumber":58,"Velocity":46,"Duration":76142,"SoundDuration":76142,"Delta":859283471},{"NoteNumber":84,"Velocity":84,"Duration":74257,"SoundDuration":74257,"Delta":859435755},{"NoteNumber":72,"Velocity":70,"Duration":74257,"SoundDuration":74257,"Delta":859435755},{"NoteNumber":81,"Velocity":70,"Duration":74257,"SoundDuration":74257,"Delta":859435755},{"NoteNumber":60,"Velocity":66,"Duration":74257,"SoundDuration":74257,"Delta":859435755},{"NoteNumber":57,"Velocity":56,"Duration":74257,"SoundDuration":74257,"Delta":859435755},{"NoteNumber":69,"Velocity":69,"Duration":76922,"SoundDuration":76922,"Delta":859584270},{"NoteNumber":77,"Velocity":69,"Duration":76922,"SoundDuration":76922,"Delta":859584270},{"NoteNumber":81,"Velocity":81,"Duration":76922,"SoundDuration":76922,"Delta":859584270},{"NoteNumber":57,"Velocity":55,"Duration":76922,"SoundDuration":76922,"Delta":859584270},{"NoteNumber":53,"Velocity":46,"Duration":76922,"SoundDuration":76922,"Delta":859584270},{"NoteNumber":88,"Velocity":84,"Duration":38461,"SoundDuration":38461,"Delta":859699655},{"NoteNumber":89,"Velocity":84,"Duration":78947,"SoundDuration":78947,"Delta":859738116},{"NoteNumber":77,"Velocity":70,"Duration":78947,"SoundDuration":78947,"Delta":859738116},{"NoteNumber":41,"Velocity":57,"Duration":78947,"SoundDuration":78947,"Delta":859738116},{"NoteNumber":53,"Velocity":64,"Duration":78947,"SoundDuration":78947,"Delta":859738116},{"NoteNumber":81,"Velocity":70,"Duration":306121,"SoundDuration":306121,"Delta":860053905},{"NoteNumber":84,"Velocity":83,"Duration":306121,"SoundDuration":306121,"Delta":860053905},{"NoteNumber":72,"Velocity":70,"Duration":306121,"SoundDuration":306121,"Delta":860053905},{"NoteNumber":60,"Velocity":65,"Duration":306121,"SoundDuration":306121,"Delta":860053905},{"NoteNumber":57,"Velocity":55,"Duration":306121,"SoundDuration":306121,"Delta":860053905},{"NoteNumber":77,"Velocity":64,"Duration":73170,"SoundDuration":73170,"Delta":860360027},{"NoteNumber":81,"Velocity":76,"Duration":73170,"SoundDuration":73170,"Delta":860360027},{"NoteNumber":69,"Velocity":64,"Duration":73170,"SoundDuration":73170,"Delta":860360027},{"NoteNumber":57,"Velocity":63,"Duration":73170,"SoundDuration":73170,"Delta":860360027},{"NoteNumber":53,"Velocity":53,"Duration":73170,"SoundDuration":73170,"Delta":860360027},{"NoteNumber":82,"Velocity":64,"Duration":76922,"SoundDuration":76922,"Delta":860506369},{"NoteNumber":86,"Velocity":76,"Duration":76922,"SoundDuration":76922,"Delta":860506369},{"NoteNumber":74,"Velocity":64,"Duration":76922,"SoundDuration":76922,"Delta":860506369},{"NoteNumber":62,"Velocity":55,"Duration":76922,"SoundDuration":76922,"Delta":860506369},{"NoteNumber":58,"Velocity":46,"Duration":76922,"SoundDuration":76922,"Delta":860506369},{"NoteNumber":84,"Velocity":84,"Duration":73170,"SoundDuration":73170,"Delta":860660215},{"NoteNumber":72,"Velocity":70,"Duration":73170,"SoundDuration":73170,"Delta":860660215},{"NoteNumber":81,"Velocity":70,"Duration":73170,"SoundDuration":73170,"Delta":860660215},{"NoteNumber":60,"Velocity":66,"Duration":73170,"SoundDuration":73170,"Delta":860660215},{"NoteNumber":57,"Velocity":56,"Duration":73170,"SoundDuration":73170,"Delta":860660215},{"NoteNumber":69,"Velocity":69,"Duration":77319,"SoundDuration":77319,"Delta":860806556},{"NoteNumber":77,"Velocity":69,"Duration":77319,"SoundDuration":77319,"Delta":860806556},{"NoteNumber":81,"Velocity":81,"Duration":77319,"SoundDuration":77319,"Delta":860806556},{"NoteNumber":57,"Velocity":55,"Duration":77319,"SoundDuration":77319,"Delta":860806556},{"NoteNumber":53,"Velocity":46,"Duration":77319,"SoundDuration":77319,"Delta":860806556},{"NoteNumber":100,"Velocity":88,"Duration":38659,"SoundDuration":38659,"Delta":860922536},{"NoteNumber":101,"Velocity":88,"Duration":77720,"SoundDuration":77720,"Delta":860961195},{"NoteNumber":89,"Velocity":74,"Duration":77720,"SoundDuration":77720,"Delta":860961195},{"NoteNumber":41,"Velocity":57,"Duration":77720,"SoundDuration":77720,"Delta":860961195},{"NoteNumber":53,"Velocity":64,"Duration":77720,"SoundDuration":77720,"Delta":860961195},{"NoteNumber":81,"Velocity":70,"Duration":309277,"SoundDuration":309277,"Delta":861272076},{"NoteNumber":84,"Velocity":83,"Duration":309277,"SoundDuration":309277,"Delta":861272076},{"NoteNumber":72,"Velocity":70,"Duration":309277,"SoundDuration":309277,"Delta":861272076},{"NoteNumber":60,"Velocity":65,"Duration":309277,"SoundDuration":309277,"Delta":861272076},{"NoteNumber":57,"Velocity":55,"Duration":309277,"SoundDuration":309277,"Delta":861272076},{"NoteNumber":77,"Velocity":64,"Duration":72815,"SoundDuration":72815,"Delta":861581354},{"NoteNumber":81,"Velocity":76,"Duration":72815,"SoundDuration":72815,"Delta":861581354},{"NoteNumber":69,"Velocity":64,"Duration":72815,"SoundDuration":72815,"Delta":861581354},{"NoteNumber":57,"Velocity":63,"Duration":72815,"SoundDuration":72815,"Delta":861581354},{"NoteNumber":53,"Velocity":53,"Duration":72815,"SoundDuration":72815,"Delta":861581354},{"NoteNumber":82,"Velocity":64,"Duration":75757,"SoundDuration":75757,"Delta":861726985},{"NoteNumber":86,"Velocity":76,"Duration":75757,"SoundDuration":75757,"Delta":861726985},{"NoteNumber":74,"Velocity":64,"Duration":75757,"SoundDuration":75757,"Delta":861726985},{"NoteNumber":62,"Velocity":55,"Duration":75757,"SoundDuration":75757,"Delta":861726985},{"NoteNumber":58,"Velocity":46,"Duration":75757,"SoundDuration":75757,"Delta":861726985},{"NoteNumber":84,"Velocity":84,"Duration":73170,"SoundDuration":73170,"Delta":861878500},{"NoteNumber":72,"Velocity":70,"Duration":73170,"SoundDuration":73170,"Delta":861878500},{"NoteNumber":81,"Velocity":70,"Duration":73170,"SoundDuration":73170,"Delta":861878500},{"NoteNumber":60,"Velocity":66,"Duration":73170,"SoundDuration":73170,"Delta":861878500},{"NoteNumber":57,"Velocity":56,"Duration":73170,"SoundDuration":73170,"Delta":861878500},{"NoteNumber":69,"Velocity":69,"Duration":76142,"SoundDuration":76142,"Delta":862024842},{"NoteNumber":77,"Velocity":69,"Duration":76142,"SoundDuration":76142,"Delta":862024842},{"NoteNumber":81,"Velocity":81,"Duration":76142,"SoundDuration":76142,"Delta":862024842},{"NoteNumber":57,"Velocity":55,"Duration":76142,"SoundDuration":76142,"Delta":862024842},{"NoteNumber":53,"Velocity":46,"Duration":76142,"SoundDuration":76142,"Delta":862024842},{"NoteNumber":100,"Velocity":88,"Duration":38071,"SoundDuration":38071,"Delta":862139055},{"NoteNumber":101,"Velocity":88,"Duration":78125,"SoundDuration":78125,"Delta":862177126},{"NoteNumber":89,"Velocity":74,"Duration":78125,"SoundDuration":78125,"Delta":862177126},{"NoteNumber":41,"Velocity":57,"Duration":78125,"SoundDuration":78125,"Delta":862177126},{"NoteNumber":53,"Velocity":64,"Duration":78125,"SoundDuration":78125,"Delta":862177126},{"NoteNumber":81,"Velocity":70,"Duration":317459,"SoundDuration":317459,"Delta":862489626},{"NoteNumber":84,"Velocity":83,"Duration":317459,"SoundDuration":317459,"Delta":862489626},{"NoteNumber":72,"Velocity":70,"Duration":317459,"SoundDuration":317459,"Delta":862489626},{"NoteNumber":60,"Velocity":65,"Duration":317459,"SoundDuration":317459,"Delta":862489626},{"NoteNumber":57,"Velocity":55,"Duration":317459,"SoundDuration":317459,"Delta":862489626},{"NoteNumber":77,"Velocity":64,"Duration":75377,"SoundDuration":75377,"Delta":862807086},{"NoteNumber":81,"Velocity":76,"Duration":75377,"SoundDuration":75377,"Delta":862807086},{"NoteNumber":69,"Velocity":64,"Duration":75377,"SoundDuration":75377,"Delta":862807086},{"NoteNumber":57,"Velocity":63,"Duration":75377,"SoundDuration":75377,"Delta":862807086},{"NoteNumber":53,"Velocity":53,"Duration":75377,"SoundDuration":75377,"Delta":862807086},{"NoteNumber":82,"Velocity":64,"Duration":78533,"SoundDuration":78533,"Delta":862957840},{"NoteNumber":86,"Velocity":76,"Duration":78533,"SoundDuration":78533,"Delta":862957840},{"NoteNumber":74,"Velocity":64,"Duration":78533,"SoundDuration":78533,"Delta":862957840},{"NoteNumber":62,"Velocity":55,"Duration":78533,"SoundDuration":78533,"Delta":862957840},{"NoteNumber":58,"Velocity":46,"Duration":78533,"SoundDuration":78533,"Delta":862957840},{"NoteNumber":84,"Velocity":84,"Duration":85714,"SoundDuration":85714,"Delta":863114908},{"NoteNumber":72,"Velocity":70,"Duration":85714,"SoundDuration":85714,"Delta":863114908},{"NoteNumber":81,"Velocity":70,"Duration":85714,"SoundDuration":85714,"Delta":863114908},{"NoteNumber":60,"Velocity":66,"Duration":85714,"SoundDuration":85714,"Delta":863114908},{"NoteNumber":57,"Velocity":56,"Duration":85714,"SoundDuration":85714,"Delta":863114908},{"NoteNumber":84,"Velocity":61,"Duration":602042,"SoundDuration":602042,"Delta":863457765},{"NoteNumber":72,"Velocity":49,"Duration":72815,"SoundDuration":72815,"Delta":863457765},{"NoteNumber":57,"Velocity":44,"Duration":72815,"SoundDuration":72815,"Delta":863457765},{"NoteNumber":77,"Velocity":40,"Duration":79365,"SoundDuration":79365,"Delta":863603396},{"NoteNumber":81,"Velocity":44,"Duration":79365,"SoundDuration":79365,"Delta":863603396},{"NoteNumber":60,"Velocity":28,"Duration":79365,"SoundDuration":79365,"Delta":863603396},{"NoteNumber":69,"Velocity":34,"Duration":79365,"SoundDuration":79365,"Delta":863603396},{"NoteNumber":65,"Velocity":28,"Duration":79365,"SoundDuration":79365,"Delta":863603396},{"NoteNumber":72,"Velocity":53,"Duration":74626,"SoundDuration":74626,"Delta":863761300},{"NoteNumber":57,"Velocity":56,"Duration":74626,"SoundDuration":74626,"Delta":863761300},{"NoteNumber":77,"Velocity":41,"Duration":74626,"SoundDuration":74626,"Delta":863910554},{"NoteNumber":81,"Velocity":48,"Duration":74626,"SoundDuration":74626,"Delta":863910554},{"NoteNumber":60,"Velocity":30,"Duration":74626,"SoundDuration":74626,"Delta":863910554},{"NoteNumber":65,"Velocity":37,"Duration":74626,"SoundDuration":74626,"Delta":863910554},{"NoteNumber":71,"Velocity":53,"Duration":74626,"SoundDuration":74626,"Delta":864059807},{"NoteNumber":83,"Velocity":68,"Duration":301008,"SoundDuration":301008,"Delta":864059807},{"NoteNumber":55,"Velocity":48,"Duration":74626,"SoundDuration":74626,"Delta":864059807},{"NoteNumber":77,"Velocity":48,"Duration":76142,"SoundDuration":76142,"Delta":864208669},{"NoteNumber":74,"Velocity":36,"Duration":76142,"SoundDuration":76142,"Delta":864208669},{"NoteNumber":59,"Velocity":30,"Duration":76142,"SoundDuration":76142,"Delta":864208669},{"NoteNumber":62,"Velocity":37,"Duration":76142,"SoundDuration":76142,"Delta":864208669},{"NoteNumber":70,"Velocity":45,"Duration":75869,"SoundDuration":75869,"Delta":864360816},{"NoteNumber":82,"Velocity":63,"Duration":306318,"SoundDuration":306318,"Delta":864360816},{"NoteNumber":52,"Velocity":46,"Duration":75869,"SoundDuration":75869,"Delta":864360816},{"NoteNumber":72,"Velocity":34,"Duration":76801,"SoundDuration":76801,"Delta":864513018},{"NoteNumber":79,"Velocity":40,"Duration":76801,"SoundDuration":76801,"Delta":864513018},{"NoteNumber":67,"Velocity":30,"Duration":76801,"SoundDuration":76801,"Delta":864513018},{"NoteNumber":58,"Velocity":26,"Duration":76801,"SoundDuration":76801,"Delta":864513018},{"NoteNumber":60,"Velocity":26,"Duration":76801,"SoundDuration":76801,"Delta":864513018},{"NoteNumber":69,"Velocity":45,"Duration":77838,"SoundDuration":77838,"Delta":864667134},{"NoteNumber":81,"Velocity":57,"Duration":314129,"SoundDuration":314129,"Delta":864667134},{"NoteNumber":53,"Velocity":40,"Duration":77838,"SoundDuration":77838,"Delta":864667134},{"NoteNumber":77,"Velocity":40,"Duration":78381,"SoundDuration":78381,"Delta":864823298},{"NoteNumber":72,"Velocity":29,"Duration":78381,"SoundDuration":78381,"Delta":864823298},{"NoteNumber":57,"Velocity":26,"Duration":78381,"SoundDuration":78381,"Delta":864823298},{"NoteNumber":60,"Velocity":26,"Duration":78381,"SoundDuration":78381,"Delta":864823298},{"NoteNumber":65,"Velocity":30,"Duration":78381,"SoundDuration":78381,"Delta":864823298},{"NoteNumber":79,"Velocity":61,"Duration":80645,"SoundDuration":80645,"Delta":864981263},{"NoteNumber":67,"Velocity":51,"Duration":80645,"SoundDuration":80645,"Delta":864981263},{"NoteNumber":48,"Velocity":46,"Duration":80645,"SoundDuration":80645,"Delta":864981263},{"NoteNumber":81,"Velocity":58,"Duration":77120,"SoundDuration":77120,"Delta":865142554},{"NoteNumber":69,"Velocity":49,"Duration":77120,"SoundDuration":77120,"Delta":865142554},{"NoteNumber":65,"Velocity":30,"Duration":77120,"SoundDuration":77120,"Delta":865142554},{"NoteNumber":60,"Velocity":26,"Duration":77120,"SoundDuration":77120,"Delta":865142554},{"NoteNumber":82,"Velocity":58,"Duration":75566,"SoundDuration":75566,"Delta":865296795},{"NoteNumber":70,"Velocity":49,"Duration":75566,"SoundDuration":75566,"Delta":865296795},{"NoteNumber":55,"Velocity":40,"Duration":75566,"SoundDuration":75566,"Delta":865296795},{"NoteNumber":84,"Velocity":58,"Duration":75566,"SoundDuration":75566,"Delta":865447929},{"NoteNumber":72,"Velocity":49,"Duration":75566,"SoundDuration":75566,"Delta":865447929},{"NoteNumber":60,"Velocity":26,"Duration":75566,"SoundDuration":75566,"Delta":865447929},{"NoteNumber":64,"Velocity":30,"Duration":75566,"SoundDuration":75566,"Delta":865447929},{"NoteNumber":81,"Velocity":64,"Duration":322581,"SoundDuration":322581,"Delta":865599062},{"NoteNumber":69,"Velocity":56,"Duration":80645,"SoundDuration":80645,"Delta":865599062},{"NoteNumber":53,"Velocity":61,"Duration":80645,"SoundDuration":80645,"Delta":865599062},{"NoteNumber":72,"Velocity":41,"Duration":80645,"SoundDuration":80645,"Delta":865760353},{"NoteNumber":77,"Velocity":48,"Duration":80645,"SoundDuration":80645,"Delta":865760353},{"NoteNumber":65,"Velocity":34,"Duration":80645,"SoundDuration":80645,"Delta":865760353},{"NoteNumber":60,"Velocity":28,"Duration":80645,"SoundDuration":80645,"Delta":865760353},{"NoteNumber":57,"Velocity":28,"Duration":80645,"SoundDuration":80645,"Delta":865760353},{"NoteNumber":84,"Velocity":61,"Duration":600261,"SoundDuration":600261,"Delta":865921643},{"NoteNumber":72,"Velocity":49,"Duration":73529,"SoundDuration":73529,"Delta":865921643},{"NoteNumber":57,"Velocity":44,"Duration":73529,"SoundDuration":73529,"Delta":865921643},{"NoteNumber":77,"Velocity":40,"Duration":81521,"SoundDuration":81521,"Delta":866068702},{"NoteNumber":81,"Velocity":44,"Duration":81521,"SoundDuration":81521,"Delta":866068702},{"NoteNumber":60,"Velocity":28,"Duration":81521,"SoundDuration":81521,"Delta":866068702},{"NoteNumber":69,"Velocity":34,"Duration":81521,"SoundDuration":81521,"Delta":866068702},{"NoteNumber":65,"Velocity":28,"Duration":81521,"SoundDuration":81521,"Delta":866068702},{"NoteNumber":72,"Velocity":53,"Duration":72115,"SoundDuration":72115,"Delta":866231746},{"NoteNumber":56,"Velocity":56,"Duration":72115,"SoundDuration":72115,"Delta":866231746},{"NoteNumber":77,"Velocity":41,"Duration":72398,"SoundDuration":72398,"Delta":866375977},{"NoteNumber":80,"Velocity":48,"Duration":72398,"SoundDuration":72398,"Delta":866375977},{"NoteNumber":65,"Velocity":30,"Duration":72398,"SoundDuration":72398,"Delta":866375977},{"NoteNumber":60,"Velocity":30,"Duration":72398,"SoundDuration":72398,"Delta":866375977},{"NoteNumber":68,"Velocity":37,"Duration":72398,"SoundDuration":72398,"Delta":866375977},{"NoteNumber":71,"Velocity":53,"Duration":73529,"SoundDuration":73529,"Delta":866521904},{"NoteNumber":83,"Velocity":68,"Duration":299398,"SoundDuration":299398,"Delta":866521904},{"NoteNumber":55,"Velocity":48,"Duration":73529,"SoundDuration":73529,"Delta":866521904},{"NoteNumber":77,"Velocity":48,"Duration":76142,"SoundDuration":76142,"Delta":866669157},{"NoteNumber":74,"Velocity":36,"Duration":76142,"SoundDuration":76142,"Delta":866669157},{"NoteNumber":62,"Velocity":30,"Duration":76142,"SoundDuration":76142,"Delta":866669157},{"NoteNumber":59,"Velocity":30,"Duration":76142,"SoundDuration":76142,"Delta":866669157},{"NoteNumber":65,"Velocity":37,"Duration":76142,"SoundDuration":76142,"Delta":866669157},{"NoteNumber":70,"Velocity":45,"Duration":75869,"SoundDuration":75869,"Delta":866821303},{"NoteNumber":82,"Velocity":63,"Duration":306318,"SoundDuration":306318,"Delta":866821303},{"NoteNumber":52,"Velocity":46,"Duration":75869,"SoundDuration":75869,"Delta":866821303},{"NoteNumber":73,"Velocity":34,"Duration":76801,"SoundDuration":76801,"Delta":866973506},{"NoteNumber":76,"Velocity":40,"Duration":76801,"SoundDuration":76801,"Delta":866973506},{"NoteNumber":64,"Velocity":30,"Duration":76801,"SoundDuration":76801,"Delta":866973506},{"NoteNumber":58,"Velocity":26,"Duration":76801,"SoundDuration":76801,"Delta":866973506},{"NoteNumber":61,"Velocity":26,"Duration":76801,"SoundDuration":76801,"Delta":866973506},{"NoteNumber":69,"Velocity":45,"Duration":77838,"SoundDuration":77838,"Delta":867127621},{"NoteNumber":81,"Velocity":57,"Duration":314129,"SoundDuration":314129,"Delta":867127621},{"NoteNumber":53,"Velocity":40,"Duration":77838,"SoundDuration":77838,"Delta":867127621},{"NoteNumber":77,"Velocity":40,"Duration":78381,"SoundDuration":78381,"Delta":867283786},{"NoteNumber":72,"Velocity":29,"Duration":78381,"SoundDuration":78381,"Delta":867283786},{"NoteNumber":57,"Velocity":26,"Duration":78381,"SoundDuration":78381,"Delta":867283786},{"NoteNumber":60,"Velocity":26,"Duration":78381,"SoundDuration":78381,"Delta":867283786},{"NoteNumber":65,"Velocity":30,"Duration":78381,"SoundDuration":78381,"Delta":867283786},{"NoteNumber":79,"Velocity":61,"Duration":80428,"SoundDuration":80428,"Delta":867441751},{"NoteNumber":67,"Velocity":51,"Duration":80428,"SoundDuration":80428,"Delta":867441751},{"NoteNumber":48,"Velocity":46,"Duration":80428,"SoundDuration":80428,"Delta":867441751},{"NoteNumber":81,"Velocity":58,"Duration":80429,"SoundDuration":80429,"Delta":867602609},{"NoteNumber":69,"Velocity":49,"Duration":80429,"SoundDuration":80429,"Delta":867602609},{"NoteNumber":65,"Velocity":30,"Duration":80429,"SoundDuration":80429,"Delta":867602609},{"NoteNumber":60,"Velocity":26,"Duration":80429,"SoundDuration":80429,"Delta":867602609},{"NoteNumber":82,"Velocity":58,"Duration":80428,"SoundDuration":80428,"Delta":867763467},{"NoteNumber":70,"Velocity":49,"Duration":80428,"SoundDuration":80428,"Delta":867763467},{"NoteNumber":55,"Velocity":40,"Duration":80428,"SoundDuration":80428,"Delta":867763467},{"NoteNumber":84,"Velocity":58,"Duration":80428,"SoundDuration":80428,"Delta":867924325},{"NoteNumber":72,"Velocity":49,"Duration":80428,"SoundDuration":80428,"Delta":867924325},{"NoteNumber":60,"Velocity":26,"Duration":80428,"SoundDuration":80428,"Delta":867924325},{"NoteNumber":64,"Velocity":30,"Duration":80428,"SoundDuration":80428,"Delta":867924325},{"NoteNumber":81,"Velocity":64,"Duration":324324,"SoundDuration":324324,"Delta":868085183},{"NoteNumber":69,"Velocity":56,"Duration":81081,"SoundDuration":81081,"Delta":868085183},{"NoteNumber":53,"Velocity":61,"Duration":81081,"SoundDuration":81081,"Delta":868085183},{"NoteNumber":72,"Velocity":41,"Duration":81081,"SoundDuration":81081,"Delta":868247345},{"NoteNumber":77,"Velocity":48,"Duration":81081,"SoundDuration":81081,"Delta":868247345},{"NoteNumber":65,"Velocity":34,"Duration":81081,"SoundDuration":81081,"Delta":868247345},{"NoteNumber":60,"Velocity":28,"Duration":81081,"SoundDuration":81081,"Delta":868247345},{"NoteNumber":57,"Velocity":28,"Duration":81081,"SoundDuration":81081,"Delta":868247345},{"NoteNumber":84,"Velocity":61,"Duration":609655,"SoundDuration":609655,"Delta":868409507},{"NoteNumber":72,"Velocity":49,"Duration":73529,"SoundDuration":73529,"Delta":868409507},{"NoteNumber":57,"Velocity":44,"Duration":73529,"SoundDuration":73529,"Delta":868409507},{"NoteNumber":77,"Velocity":40,"Duration":78947,"SoundDuration":78947,"Delta":868556566},{"NoteNumber":81,"Velocity":44,"Duration":78947,"SoundDuration":78947,"Delta":868556566},{"NoteNumber":60,"Velocity":28,"Duration":78947,"SoundDuration":78947,"Delta":868556566},{"NoteNumber":69,"Velocity":34,"Duration":78947,"SoundDuration":78947,"Delta":868556566},{"NoteNumber":65,"Velocity":28,"Duration":78947,"SoundDuration":78947,"Delta":868556566},{"NoteNumber":72,"Velocity":53,"Duration":76922,"SoundDuration":76922,"Delta":868714460},{"NoteNumber":56,"Velocity":56,"Duration":76922,"SoundDuration":76922,"Delta":868714460},{"NoteNumber":74,"Velocity":41,"Duration":75377,"SoundDuration":75377,"Delta":868868306},{"NoteNumber":78,"Velocity":48,"Duration":75377,"SoundDuration":75377,"Delta":868868306},{"NoteNumber":62,"Velocity":30,"Duration":75377,"SoundDuration":75377,"Delta":868868306},{"NoteNumber":60,"Velocity":30,"Duration":75377,"SoundDuration":75377,"Delta":868868306},{"NoteNumber":66,"Velocity":37,"Duration":75377,"SoundDuration":75377,"Delta":868868306},{"NoteNumber":71,"Velocity":53,"Duration":76922,"SoundDuration":76922,"Delta":869019162},{"NoteNumber":83,"Velocity":68,"Duration":309633,"SoundDuration":309633,"Delta":869019162},{"NoteNumber":55,"Velocity":48,"Duration":76922,"SoundDuration":76922,"Delta":869019162},{"NoteNumber":79,"Velocity":48,"Duration":78947,"SoundDuration":78947,"Delta":869171392},{"NoteNumber":74,"Velocity":36,"Duration":78947,"SoundDuration":78947,"Delta":869171392},{"NoteNumber":62,"Velocity":30,"Duration":78947,"SoundDuration":78947,"Delta":869171392},{"NoteNumber":59,"Velocity":30,"Duration":78947,"SoundDuration":78947,"Delta":869171392},{"NoteNumber":67,"Velocity":37,"Duration":78947,"SoundDuration":78947,"Delta":869171392},{"NoteNumber":70,"Velocity":45,"Duration":79653,"SoundDuration":79653,"Delta":869328795},{"NoteNumber":82,"Velocity":63,"Duration":324150,"SoundDuration":324150,"Delta":869328795},{"NoteNumber":54,"Velocity":46,"Duration":79653,"SoundDuration":79653,"Delta":869328795},{"NoteNumber":72,"Velocity":34,"Duration":81493,"SoundDuration":81493,"Delta":869489124},{"NoteNumber":76,"Velocity":40,"Duration":81493,"SoundDuration":81493,"Delta":869489124},{"NoteNumber":64,"Velocity":30,"Duration":81493,"SoundDuration":81493,"Delta":869489124},{"NoteNumber":58,"Velocity":26,"Duration":81493,"SoundDuration":81493,"Delta":869489124},{"NoteNumber":60,"Velocity":26,"Duration":81493,"SoundDuration":81493,"Delta":869489124},{"NoteNumber":69,"Velocity":45,"Duration":83427,"SoundDuration":83427,"Delta":869652946},{"NoteNumber":81,"Velocity":57,"Duration":362114,"SoundDuration":362114,"Delta":869652946},{"NoteNumber":53,"Velocity":40,"Duration":83427,"SoundDuration":83427,"Delta":869652946},{"NoteNumber":77,"Velocity":40,"Duration":97402,"SoundDuration":97402,"Delta":869820675},{"NoteNumber":72,"Velocity":29,"Duration":97402,"SoundDuration":97402,"Delta":869820675},{"NoteNumber":57,"Velocity":26,"Duration":97402,"SoundDuration":97402,"Delta":869820675},{"NoteNumber":60,"Velocity":26,"Duration":97402,"SoundDuration":97402,"Delta":869820675},{"NoteNumber":65,"Velocity":30,"Duration":97402,"SoundDuration":97402,"Delta":869820675},{"NoteNumber":79,"Velocity":61,"Duration":96146,"SoundDuration":96146,"Delta":870015060},{"NoteNumber":67,"Velocity":51,"Duration":96146,"SoundDuration":96146,"Delta":870015060},{"NoteNumber":49,"Velocity":46,"Duration":96146,"SoundDuration":96146,"Delta":870015060},{"NoteNumber":81,"Velocity":58,"Duration":99760,"SoundDuration":99760,"Delta":870209122},{"NoteNumber":69,"Velocity":49,"Duration":99760,"SoundDuration":99760,"Delta":870209122},{"NoteNumber":55,"Velocity":26,"Duration":99760,"SoundDuration":99760,"Delta":870209122},{"NoteNumber":65,"Velocity":30,"Duration":99760,"SoundDuration":99760,"Delta":870209122},{"NoteNumber":58,"Velocity":26,"Duration":99760,"SoundDuration":99760,"Delta":870209122},{"NoteNumber":82,"Velocity":58,"Duration":103606,"SoundDuration":103606,"Delta":870410564},{"NoteNumber":70,"Velocity":49,"Duration":103606,"SoundDuration":103606,"Delta":870410564},{"NoteNumber":48,"Velocity":40,"Duration":103606,"SoundDuration":103606,"Delta":870410564},{"NoteNumber":84,"Velocity":58,"Duration":107879,"SoundDuration":107879,"Delta":870619870},{"NoteNumber":72,"Velocity":49,"Duration":107879,"SoundDuration":107879,"Delta":870619870},{"NoteNumber":55,"Velocity":26,"Duration":107879,"SoundDuration":107879,"Delta":870619870},{"NoteNumber":58,"Velocity":26,"Duration":107879,"SoundDuration":107879,"Delta":870619870},{"NoteNumber":64,"Velocity":30,"Duration":107879,"SoundDuration":107879,"Delta":870619870},{"NoteNumber":65,"Velocity":51,"Duration":312500,"SoundDuration":312500,"Delta":870836585},{"NoteNumber":77,"Velocity":61,"Duration":312500,"SoundDuration":312500,"Delta":870836585},{"NoteNumber":53,"Velocity":46,"Duration":78125,"SoundDuration":78125,"Delta":870836585},{"NoteNumber":60,"Velocity":30,"Duration":78125,"SoundDuration":78125,"Delta":870992835},{"NoteNumber":57,"Velocity":26,"Duration":78125,"SoundDuration":78125,"Delta":870992835},{"NoteNumber":60,"Velocity":26,"Duration":78125,"SoundDuration":78125,"Delta":871149085},{"NoteNumber":65,"Velocity":40,"Duration":78125,"SoundDuration":78125,"Delta":871149085},{"NoteNumber":57,"Velocity":26,"Duration":78125,"SoundDuration":78125,"Delta":871305335},{"NoteNumber":60,"Velocity":30,"Duration":78125,"SoundDuration":78125,"Delta":871305335},{"NoteNumber":65,"Velocity":68,"Duration":309277,"SoundDuration":309277,"Delta":871461585},{"NoteNumber":53,"Velocity":49,"Duration":77319,"SoundDuration":77319,"Delta":871461585},{"NoteNumber":60,"Velocity":44,"Duration":77319,"SoundDuration":77319,"Delta":871616224},{"NoteNumber":57,"Velocity":38,"Duration":77319,"SoundDuration":77319,"Delta":871616224},{"NoteNumber":41,"Velocity":38,"Duration":126796,"SoundDuration":126796,"Delta":871712874},{"NoteNumber":45,"Velocity":41,"Duration":107466,"SoundDuration":107466,"Delta":871732204},{"NoteNumber":48,"Velocity":45,"Duration":88137,"SoundDuration":88137,"Delta":871751534},{"NoteNumber":65,"Velocity":55,"Duration":68807,"SoundDuration":68807,"Delta":871770863},{"NoteNumber":53,"Velocity":48,"Duration":68807,"SoundDuration":68807,"Delta":871770863},{"NoteNumber":65,"Velocity":55,"Duration":78125,"SoundDuration":78125,"Delta":871908478},{"NoteNumber":60,"Velocity":44,"Duration":78125,"SoundDuration":78125,"Delta":871908478},{"NoteNumber":57,"Velocity":38,"Duration":78125,"SoundDuration":78125,"Delta":871908478},{"NoteNumber":70,"Velocity":68,"Duration":291261,"SoundDuration":291261,"Delta":872064728},{"NoteNumber":58,"Velocity":49,"Duration":72815,"SoundDuration":72815,"Delta":872064728},{"NoteNumber":61,"Velocity":38,"Duration":72815,"SoundDuration":72815,"Delta":872210359},{"NoteNumber":65,"Velocity":44,"Duration":72815,"SoundDuration":72815,"Delta":872210359},{"NoteNumber":37,"Velocity":41,"Duration":132736,"SoundDuration":132736,"Delta":872301378},{"NoteNumber":41,"Velocity":44,"Duration":114532,"SoundDuration":114532,"Delta":872319582},{"NoteNumber":46,"Velocity":47,"Duration":96328,"SoundDuration":96328,"Delta":872337786},{"NoteNumber":70,"Velocity":55,"Duration":312500,"SoundDuration":312500,"Delta":872355990},{"NoteNumber":58,"Velocity":49,"Duration":78125,"SoundDuration":78125,"Delta":872355990},{"NoteNumber":49,"Velocity":50,"Duration":78125,"SoundDuration":78125,"Delta":872355990},{"NoteNumber":61,"Velocity":33,"Duration":78125,"SoundDuration":78125,"Delta":872512240},{"NoteNumber":65,"Velocity":44,"Duration":78125,"SoundDuration":78125,"Delta":872512240},{"NoteNumber":70,"Velocity":67,"Duration":306121,"SoundDuration":306121,"Delta":872668490},{"NoteNumber":58,"Velocity":49,"Duration":76530,"SoundDuration":76530,"Delta":872668490},{"NoteNumber":65,"Velocity":38,"Duration":76530,"SoundDuration":76530,"Delta":872821551},{"NoteNumber":61,"Velocity":44,"Duration":76530,"SoundDuration":76530,"Delta":872821551},{"NoteNumber":34,"Velocity":39,"Duration":126842,"SoundDuration":126842,"Delta":872917214},{"NoteNumber":37,"Velocity":42,"Duration":107709,"SoundDuration":107709,"Delta":872936347},{"NoteNumber":41,"Velocity":45,"Duration":88577,"SoundDuration":88577,"Delta":872955479},{"NoteNumber":73,"Velocity":55,"Duration":69444,"SoundDuration":69444,"Delta":872974612},{"NoteNumber":61,"Velocity":49,"Duration":69444,"SoundDuration":69444,"Delta":872974612},{"NoteNumber":46,"Velocity":48,"Duration":69444,"SoundDuration":69444,"Delta":872974612},{"NoteNumber":70,"Velocity":55,"Duration":78125,"SoundDuration":78125,"Delta":873113501},{"NoteNumber":58,"Velocity":44,"Duration":78125,"SoundDuration":78125,"Delta":873113501},{"NoteNumber":69,"Velocity":63,"Duration":291261,"SoundDuration":291261,"Delta":873269751},{"NoteNumber":57,"Velocity":49,"Duration":72815,"SoundDuration":72815,"Delta":873269751},{"NoteNumber":65,"Velocity":44,"Duration":72815,"SoundDuration":72815,"Delta":873415382},{"NoteNumber":60,"Velocity":38,"Duration":72815,"SoundDuration":72815,"Delta":873415382},{"NoteNumber":29,"Velocity":38,"Duration":133145,"SoundDuration":133145,"Delta":873506401},{"NoteNumber":33,"Velocity":41,"Duration":114941,"SoundDuration":114941,"Delta":873524605},{"NoteNumber":36,"Velocity":45,"Duration":96737,"SoundDuration":96737,"Delta":873542809},{"NoteNumber":53,"Velocity":49,"Duration":78533,"SoundDuration":78533,"Delta":873561013},{"NoteNumber":65,"Velocity":55,"Duration":314135,"SoundDuration":314135,"Delta":873561013},{"NoteNumber":41,"Velocity":48,"Duration":78533,"SoundDuration":78533,"Delta":873561013},{"NoteNumber":57,"Velocity":33,"Duration":78533,"SoundDuration":78533,"Delta":873718081},{"NoteNumber":60,"Velocity":44,"Duration":78533,"SoundDuration":78533,"Delta":873718081},{"NoteNumber":65,"Velocity":68,"Duration":303030,"SoundDuration":303030,"Delta":873875149},{"NoteNumber":53,"Velocity":49,"Duration":75757,"SoundDuration":75757,"Delta":873875149},{"NoteNumber":60,"Velocity":44,"Duration":75757,"SoundDuration":75757,"Delta":874026664},{"NoteNumber":57,"Velocity":38,"Duration":75757,"SoundDuration":75757,"Delta":874026664},{"NoteNumber":41,"Velocity":38,"Duration":126911,"SoundDuration":126911,"Delta":874121361},{"NoteNumber":45,"Velocity":41,"Duration":107972,"SoundDuration":107972,"Delta":874140300},{"NoteNumber":48,"Velocity":45,"Duration":89032,"SoundDuration":89032,"Delta":874159240},{"NoteNumber":65,"Velocity":55,"Duration":70093,"SoundDuration":70093,"Delta":874178179},{"NoteNumber":53,"Velocity":48,"Duration":70093,"SoundDuration":70093,"Delta":874178179},{"NoteNumber":65,"Velocity":55,"Duration":78947,"SoundDuration":78947,"Delta":874318366},{"NoteNumber":60,"Velocity":44,"Duration":78947,"SoundDuration":78947,"Delta":874318366},{"NoteNumber":57,"Velocity":38,"Duration":78947,"SoundDuration":78947,"Delta":874318366},{"NoteNumber":70,"Velocity":68,"Duration":291261,"SoundDuration":291261,"Delta":874476260},{"NoteNumber":58,"Velocity":49,"Duration":72815,"SoundDuration":72815,"Delta":874476260},{"NoteNumber":61,"Velocity":38,"Duration":72815,"SoundDuration":72815,"Delta":874621891},{"NoteNumber":65,"Velocity":44,"Duration":72815,"SoundDuration":72815,"Delta":874621891},{"NoteNumber":37,"Velocity":41,"Duration":132736,"SoundDuration":132736,"Delta":874712911},{"NoteNumber":41,"Velocity":44,"Duration":114532,"SoundDuration":114532,"Delta":874731115},{"NoteNumber":46,"Velocity":47,"Duration":96328,"SoundDuration":96328,"Delta":874749319},{"NoteNumber":70,"Velocity":55,"Duration":310083,"SoundDuration":310083,"Delta":874767522},{"NoteNumber":58,"Velocity":49,"Duration":78125,"SoundDuration":78125,"Delta":874767522},{"NoteNumber":49,"Velocity":50,"Duration":78125,"SoundDuration":78125,"Delta":874767522},{"NoteNumber":61,"Velocity":33,"Duration":77319,"SoundDuration":77319,"Delta":874922967},{"NoteNumber":65,"Velocity":44,"Duration":77319,"SoundDuration":77319,"Delta":874922967},{"NoteNumber":70,"Velocity":67,"Duration":306121,"SoundDuration":306121,"Delta":875077606},{"NoteNumber":58,"Velocity":49,"Duration":76530,"SoundDuration":76530,"Delta":875077606},{"NoteNumber":65,"Velocity":38,"Duration":76530,"SoundDuration":76530,"Delta":875230667},{"NoteNumber":61,"Velocity":44,"Duration":76530,"SoundDuration":76530,"Delta":875230667},{"NoteNumber":34,"Velocity":39,"Duration":127165,"SoundDuration":127165,"Delta":875326330},{"NoteNumber":37,"Velocity":42,"Duration":108032,"SoundDuration":108032,"Delta":875345463},{"NoteNumber":41,"Velocity":45,"Duration":88900,"SoundDuration":88900,"Delta":875364595},{"NoteNumber":73,"Velocity":55,"Duration":69767,"SoundDuration":69767,"Delta":875383728},{"NoteNumber":61,"Velocity":49,"Duration":69767,"SoundDuration":69767,"Delta":875383728},{"NoteNumber":46,"Velocity":48,"Duration":69767,"SoundDuration":69767,"Delta":875383728},{"NoteNumber":70,"Velocity":55,"Duration":78947,"SoundDuration":78947,"Delta":875523263},{"NoteNumber":58,"Velocity":44,"Duration":78947,"SoundDuration":78947,"Delta":875523263},{"NoteNumber":69,"Velocity":63,"Duration":610410,"SoundDuration":610410,"Delta":875681157},{"NoteNumber":57,"Velocity":49,"Duration":72815,"SoundDuration":72815,"Delta":875681157},{"NoteNumber":64,"Velocity":44,"Duration":72815,"SoundDuration":72815,"Delta":875826788},{"NoteNumber":61,"Velocity":38,"Duration":72815,"SoundDuration":72815,"Delta":875826788},{"NoteNumber":33,"Velocity":38,"Duration":134398,"SoundDuration":134398,"Delta":875917808},{"NoteNumber":37,"Velocity":41,"Duration":116194,"SoundDuration":116194,"Delta":875936012},{"NoteNumber":40,"Velocity":45,"Duration":97991,"SoundDuration":97991,"Delta":875954216},{"NoteNumber":57,"Velocity":49,"Duration":79787,"SoundDuration":79787,"Delta":875972419},{"NoteNumber":45,"Velocity":48,"Duration":79787,"SoundDuration":79787,"Delta":875972419},{"NoteNumber":61,"Velocity":33,"Duration":79787,"SoundDuration":79787,"Delta":876131994},{"NoteNumber":64,"Velocity":44,"Duration":79787,"SoundDuration":79787,"Delta":876131994},{"NoteNumber":69,"Velocity":68,"Duration":309277,"SoundDuration":309277,"Delta":876291568},{"NoteNumber":57,"Velocity":49,"Duration":77319,"SoundDuration":77319,"Delta":876291568},{"NoteNumber":64,"Velocity":44,"Duration":77319,"SoundDuration":77319,"Delta":876446207},{"NoteNumber":61,"Velocity":38,"Duration":77319,"SoundDuration":77319,"Delta":876446207},{"NoteNumber":45,"Velocity":38,"Duration":126171,"SoundDuration":126171,"Delta":876542857},{"NoteNumber":49,"Velocity":41,"Duration":106841,"SoundDuration":106841,"Delta":876562187},{"NoteNumber":52,"Velocity":45,"Duration":87511,"SoundDuration":87511,"Delta":876581517},{"NoteNumber":69,"Velocity":55,"Duration":68181,"SoundDuration":68181,"Delta":876600846},{"NoteNumber":57,"Velocity":48,"Duration":68181,"SoundDuration":68181,"Delta":876600846},{"NoteNumber":69,"Velocity":55,"Duration":77720,"SoundDuration":77720,"Delta":876737210},{"NoteNumber":64,"Velocity":44,"Duration":77720,"SoundDuration":77720,"Delta":876737210},{"NoteNumber":61,"Velocity":38,"Duration":77720,"SoundDuration":77720,"Delta":876737210},{"NoteNumber":74,"Velocity":68,"Duration":288461,"SoundDuration":288461,"Delta":876892650},{"NoteNumber":62,"Velocity":49,"Duration":72115,"SoundDuration":72115,"Delta":876892650},{"NoteNumber":65,"Velocity":38,"Duration":72115,"SoundDuration":72115,"Delta":877036881},{"NoteNumber":69,"Velocity":44,"Duration":72115,"SoundDuration":72115,"Delta":877036881},{"NoteNumber":41,"Velocity":41,"Duration":132620,"SoundDuration":132620,"Delta":877127026},{"NoteNumber":45,"Velocity":44,"Duration":114591,"SoundDuration":114591,"Delta":877145055},{"NoteNumber":50,"Velocity":47,"Duration":96562,"SoundDuration":96562,"Delta":877163084},{"NoteNumber":74,"Velocity":55,"Duration":311694,"SoundDuration":311694,"Delta":877181112},{"NoteNumber":62,"Velocity":49,"Duration":78533,"SoundDuration":78533,"Delta":877181112},{"NoteNumber":53,"Velocity":50,"Duration":78533,"SoundDuration":78533,"Delta":877181112},{"NoteNumber":65,"Velocity":33,"Duration":77720,"SoundDuration":77720,"Delta":877337367},{"NoteNumber":69,"Velocity":44,"Duration":77720,"SoundDuration":77720,"Delta":877337367},{"NoteNumber":74,"Velocity":67,"Duration":306121,"SoundDuration":306121,"Delta":877492807},{"NoteNumber":62,"Velocity":49,"Duration":76530,"SoundDuration":76530,"Delta":877492807},{"NoteNumber":69,"Velocity":38,"Duration":76530,"SoundDuration":76530,"Delta":877645868},{"NoteNumber":65,"Velocity":44,"Duration":76530,"SoundDuration":76530,"Delta":877645868},{"NoteNumber":38,"Velocity":39,"Duration":126522,"SoundDuration":126522,"Delta":877741531},{"NoteNumber":41,"Velocity":42,"Duration":107389,"SoundDuration":107389,"Delta":877760664},{"NoteNumber":45,"Velocity":45,"Duration":88257,"SoundDuration":88257,"Delta":877779797},{"NoteNumber":77,"Velocity":55,"Duration":69124,"SoundDuration":69124,"Delta":877798929},{"NoteNumber":65,"Velocity":49,"Duration":69124,"SoundDuration":69124,"Delta":877798929},{"NoteNumber":50,"Velocity":48,"Duration":69124,"SoundDuration":69124,"Delta":877798929},{"NoteNumber":74,"Velocity":55,"Duration":78533,"SoundDuration":78533,"Delta":877937178},{"NoteNumber":62,"Velocity":44,"Duration":78533,"SoundDuration":78533,"Delta":877937178},{"NoteNumber":73,"Velocity":63,"Duration":591649,"SoundDuration":591649,"Delta":878094246},{"NoteNumber":61,"Velocity":49,"Duration":71770,"SoundDuration":71770,"Delta":878094246},{"NoteNumber":68,"Velocity":44,"Duration":71770,"SoundDuration":71770,"Delta":878237787},{"NoteNumber":65,"Velocity":38,"Duration":71770,"SoundDuration":71770,"Delta":878237787},{"NoteNumber":37,"Velocity":38,"Duration":129969,"SoundDuration":129969,"Delta":878327500},{"NoteNumber":41,"Velocity":41,"Duration":112027,"SoundDuration":112027,"Delta":878345442},{"NoteNumber":44,"Velocity":45,"Duration":94084,"SoundDuration":94084,"Delta":878363385},{"NoteNumber":61,"Velocity":49,"Duration":76142,"SoundDuration":76142,"Delta":878381327},{"NoteNumber":49,"Velocity":48,"Duration":76142,"SoundDuration":76142,"Delta":878381327},{"NoteNumber":65,"Velocity":33,"Duration":76142,"SoundDuration":76142,"Delta":878533612},{"NoteNumber":68,"Velocity":44,"Duration":76142,"SoundDuration":76142,"Delta":878533612},{"NoteNumber":73,"Velocity":70,"Duration":309277,"SoundDuration":309277,"Delta":878685896},{"NoteNumber":61,"Velocity":49,"Duration":77319,"SoundDuration":77319,"Delta":878685896},{"NoteNumber":68,"Velocity":44,"Duration":77319,"SoundDuration":77319,"Delta":878840535},{"NoteNumber":65,"Velocity":38,"Duration":77319,"SoundDuration":77319,"Delta":878840535},{"NoteNumber":49,"Velocity":38,"Duration":127114,"SoundDuration":127114,"Delta":878937185},{"NoteNumber":53,"Velocity":41,"Duration":107784,"SoundDuration":107784,"Delta":878956514},{"NoteNumber":56,"Velocity":45,"Duration":88454,"SoundDuration":88454,"Delta":878975844},{"NoteNumber":73,"Velocity":57,"Duration":69124,"SoundDuration":69124,"Delta":878995174},{"NoteNumber":61,"Velocity":48,"Duration":69124,"SoundDuration":69124,"Delta":878995174},{"NoteNumber":73,"Velocity":57,"Duration":78125,"SoundDuration":78125,"Delta":879133423},{"NoteNumber":68,"Velocity":44,"Duration":78125,"SoundDuration":78125,"Delta":879133423},{"NoteNumber":65,"Velocity":38,"Duration":78125,"SoundDuration":78125,"Delta":879133423},{"NoteNumber":78,"Velocity":70,"Duration":288461,"SoundDuration":288461,"Delta":879289673},{"NoteNumber":66,"Velocity":49,"Duration":72115,"SoundDuration":72115,"Delta":879289673},{"NoteNumber":69,"Velocity":38,"Duration":72115,"SoundDuration":72115,"Delta":879433904},{"NoteNumber":73,"Velocity":44,"Duration":72115,"SoundDuration":72115,"Delta":879433904},{"NoteNumber":45,"Velocity":41,"Duration":132620,"SoundDuration":132620,"Delta":879524049},{"NoteNumber":49,"Velocity":44,"Duration":114591,"SoundDuration":114591,"Delta":879542077},{"NoteNumber":54,"Velocity":47,"Duration":96562,"SoundDuration":96562,"Delta":879560106},{"NoteNumber":78,"Velocity":57,"Duration":311694,"SoundDuration":311694,"Delta":879578135},{"NoteNumber":66,"Velocity":49,"Duration":78533,"SoundDuration":78533,"Delta":879578135},{"NoteNumber":57,"Velocity":50,"Duration":78533,"SoundDuration":78533,"Delta":879578135},{"NoteNumber":69,"Velocity":33,"Duration":77720,"SoundDuration":77720,"Delta":879734389},{"NoteNumber":73,"Velocity":44,"Duration":77720,"SoundDuration":77720,"Delta":879734389},{"NoteNumber":78,"Velocity":69,"Duration":306121,"SoundDuration":306121,"Delta":879889830},{"NoteNumber":66,"Velocity":49,"Duration":76530,"SoundDuration":76530,"Delta":879889830},{"NoteNumber":73,"Velocity":38,"Duration":76530,"SoundDuration":76530,"Delta":880042891},{"NoteNumber":69,"Velocity":44,"Duration":76530,"SoundDuration":76530,"Delta":880042891},{"NoteNumber":42,"Velocity":39,"Duration":127165,"SoundDuration":127165,"Delta":880138554},{"NoteNumber":45,"Velocity":42,"Duration":108032,"SoundDuration":108032,"Delta":880157687},{"NoteNumber":49,"Velocity":45,"Duration":88900,"SoundDuration":88900,"Delta":880176819},{"NoteNumber":81,"Velocity":57,"Duration":69767,"SoundDuration":69767,"Delta":880195952},{"NoteNumber":69,"Velocity":49,"Duration":69767,"SoundDuration":69767,"Delta":880195952},{"NoteNumber":54,"Velocity":48,"Duration":69767,"SoundDuration":69767,"Delta":880195952},{"NoteNumber":78,"Velocity":57,"Duration":78947,"SoundDuration":78947,"Delta":880335487},{"NoteNumber":66,"Velocity":44,"Duration":78947,"SoundDuration":78947,"Delta":880335487},{"NoteNumber":77,"Velocity":65,"Duration":291261,"SoundDuration":291261,"Delta":880493381},{"NoteNumber":65,"Velocity":49,"Duration":72815,"SoundDuration":72815,"Delta":880493381},{"NoteNumber":72,"Velocity":44,"Duration":72815,"SoundDuration":72815,"Delta":880639012},{"NoteNumber":69,"Velocity":38,"Duration":72815,"SoundDuration":72815,"Delta":880639012},{"NoteNumber":41,"Velocity":38,"Duration":131931,"SoundDuration":131931,"Delta":880730032},{"NoteNumber":45,"Velocity":41,"Duration":113727,"SoundDuration":113727,"Delta":880748236},{"NoteNumber":48,"Velocity":45,"Duration":95523,"SoundDuration":95523,"Delta":880766440},{"NoteNumber":77,"Velocity":57,"Duration":309277,"SoundDuration":309277,"Delta":880784643},{"NoteNumber":65,"Velocity":49,"Duration":77319,"SoundDuration":77319,"Delta":880784643},{"NoteNumber":53,"Velocity":48,"Duration":77319,"SoundDuration":77319,"Delta":880784643},{"NoteNumber":69,"Velocity":33,"Duration":77319,"SoundDuration":77319,"Delta":880939282},{"NoteNumber":72,"Velocity":44,"Duration":77319,"SoundDuration":77319,"Delta":880939282},{"NoteNumber":82,"Velocity":75,"Duration":301508,"SoundDuration":301508,"Delta":881093921},{"NoteNumber":70,"Velocity":53,"Duration":75377,"SoundDuration":75377,"Delta":881093921},{"NoteNumber":49,"Velocity":57,"Duration":301508,"SoundDuration":301508,"Delta":881093921},{"NoteNumber":37,"Velocity":48,"Duration":301508,"SoundDuration":301508,"Delta":881093921},{"NoteNumber":41,"Velocity":48,"Duration":301508,"SoundDuration":301508,"Delta":881093921},{"NoteNumber":46,"Velocity":48,"Duration":301508,"SoundDuration":301508,"Delta":881093921},{"NoteNumber":77,"Velocity":40,"Duration":75377,"SoundDuration":75377,"Delta":881244675},{"NoteNumber":73,"Velocity":48,"Duration":75377,"SoundDuration":75377,"Delta":881244675},{"NoteNumber":85,"Velocity":61,"Duration":68493,"SoundDuration":68493,"Delta":881395429},{"NoteNumber":73,"Velocity":53,"Duration":68493,"SoundDuration":68493,"Delta":881395429},{"NoteNumber":46,"Velocity":53,"Duration":292427,"SoundDuration":292427,"Delta":881395429},{"NoteNumber":34,"Velocity":45,"Duration":292427,"SoundDuration":292427,"Delta":881395429},{"NoteNumber":37,"Velocity":45,"Duration":292427,"SoundDuration":292427,"Delta":881395429},{"NoteNumber":41,"Velocity":45,"Duration":292427,"SoundDuration":292427,"Delta":881395429},{"NoteNumber":82,"Velocity":61,"Duration":77720,"SoundDuration":77720,"Delta":881532416},{"NoteNumber":70,"Velocity":48,"Duration":77720,"SoundDuration":77720,"Delta":881532416},{"NoteNumber":81,"Velocity":71,"Duration":287080,"SoundDuration":287080,"Delta":881687856},{"NoteNumber":69,"Velocity":53,"Duration":71770,"SoundDuration":71770,"Delta":881687856},{"NoteNumber":76,"Velocity":48,"Duration":71770,"SoundDuration":71770,"Delta":881831397},{"NoteNumber":73,"Velocity":40,"Duration":71770,"SoundDuration":71770,"Delta":881831397},{"NoteNumber":81,"Velocity":69,"Duration":312500,"SoundDuration":312500,"Delta":881974937},{"NoteNumber":69,"Velocity":53,"Duration":78125,"SoundDuration":78125,"Delta":881974937},{"NoteNumber":57,"Velocity":54,"Duration":312500,"SoundDuration":312500,"Delta":881974937},{"NoteNumber":45,"Velocity":46,"Duration":312500,"SoundDuration":312500,"Delta":881974937},{"NoteNumber":49,"Velocity":46,"Duration":312500,"SoundDuration":312500,"Delta":881974937},{"NoteNumber":52,"Velocity":46,"Duration":312500,"SoundDuration":312500,"Delta":881974937},{"NoteNumber":73,"Velocity":35,"Duration":78125,"SoundDuration":78125,"Delta":882131187},{"NoteNumber":76,"Velocity":48,"Duration":78125,"SoundDuration":78125,"Delta":882131187},{"NoteNumber":86,"Velocity":86,"Duration":303030,"SoundDuration":303030,"Delta":882287437},{"NoteNumber":74,"Velocity":62,"Duration":75757,"SoundDuration":75757,"Delta":882287437},{"NoteNumber":53,"Velocity":64,"Duration":303030,"SoundDuration":303030,"Delta":882287437},{"NoteNumber":41,"Velocity":52,"Duration":303030,"SoundDuration":303030,"Delta":882287437},{"NoteNumber":45,"Velocity":52,"Duration":303030,"SoundDuration":303030,"Delta":882287437},{"NoteNumber":50,"Velocity":52,"Duration":303030,"SoundDuration":303030,"Delta":882287437},{"NoteNumber":81,"Velocity":44,"Duration":75757,"SoundDuration":75757,"Delta":882438952},{"NoteNumber":77,"Velocity":52,"Duration":75757,"SoundDuration":75757,"Delta":882438952},{"NoteNumber":89,"Velocity":69,"Duration":68493,"SoundDuration":68493,"Delta":882590467},{"NoteNumber":77,"Velocity":59,"Duration":68493,"SoundDuration":68493,"Delta":882590467},{"NoteNumber":50,"Velocity":59,"Duration":292427,"SoundDuration":292427,"Delta":882590467},{"NoteNumber":38,"Velocity":49,"Duration":292427,"SoundDuration":292427,"Delta":882590467},{"NoteNumber":41,"Velocity":49,"Duration":292427,"SoundDuration":292427,"Delta":882590467},{"NoteNumber":45,"Velocity":49,"Duration":292427,"SoundDuration":292427,"Delta":882590467},{"NoteNumber":86,"Velocity":69,"Duration":77720,"SoundDuration":77720,"Delta":882727454},{"NoteNumber":74,"Velocity":52,"Duration":77720,"SoundDuration":77720,"Delta":882727454},{"NoteNumber":85,"Velocity":79,"Duration":291261,"SoundDuration":291261,"Delta":882882894},{"NoteNumber":73,"Velocity":59,"Duration":72815,"SoundDuration":72815,"Delta":882882894},{"NoteNumber":80,"Velocity":52,"Duration":72815,"SoundDuration":72815,"Delta":883028525},{"NoteNumber":77,"Velocity":44,"Duration":72815,"SoundDuration":72815,"Delta":883028525},{"NoteNumber":85,"Velocity":77,"Duration":310880,"SoundDuration":310880,"Delta":883174156},{"NoteNumber":73,"Velocity":59,"Duration":77720,"SoundDuration":77720,"Delta":883174156},{"NoteNumber":61,"Velocity":60,"Duration":310880,"SoundDuration":310880,"Delta":883174156},{"NoteNumber":49,"Velocity":50,"Duration":310880,"SoundDuration":310880,"Delta":883174156},{"NoteNumber":53,"Velocity":50,"Duration":310880,"SoundDuration":310880,"Delta":883174156},{"NoteNumber":56,"Velocity":50,"Duration":310880,"SoundDuration":310880,"Delta":883174156},{"NoteNumber":77,"Velocity":39,"Duration":77720,"SoundDuration":77720,"Delta":883329597},{"NoteNumber":80,"Velocity":52,"Duration":77720,"SoundDuration":77720,"Delta":883329597},{"NoteNumber":90,"Velocity":86,"Duration":303030,"SoundDuration":303030,"Delta":883485037},{"NoteNumber":78,"Velocity":62,"Duration":75757,"SoundDuration":75757,"Delta":883485037},{"NoteNumber":57,"Velocity":64,"Duration":303030,"SoundDuration":303030,"Delta":883485037},{"NoteNumber":45,"Velocity":52,"Duration":303030,"SoundDuration":303030,"Delta":883485037},{"NoteNumber":49,"Velocity":52,"Duration":303030,"SoundDuration":303030,"Delta":883485037},{"NoteNumber":54,"Velocity":52,"Duration":303030,"SoundDuration":303030,"Delta":883485037},{"NoteNumber":85,"Velocity":44,"Duration":75757,"SoundDuration":75757,"Delta":883636552},{"NoteNumber":81,"Velocity":52,"Duration":75757,"SoundDuration":75757,"Delta":883636552},{"NoteNumber":93,"Velocity":69,"Duration":68493,"SoundDuration":68493,"Delta":883788067},{"NoteNumber":81,"Velocity":59,"Duration":68493,"SoundDuration":68493,"Delta":883788067},{"NoteNumber":54,"Velocity":59,"Duration":289270,"SoundDuration":289270,"Delta":883788067},{"NoteNumber":42,"Velocity":49,"Duration":289270,"SoundDuration":289270,"Delta":883788067},{"NoteNumber":45,"Velocity":49,"Duration":289270,"SoundDuration":289270,"Delta":883788067},{"NoteNumber":49,"Velocity":49,"Duration":289270,"SoundDuration":289270,"Delta":883788067},{"NoteNumber":90,"Velocity":69,"Duration":76142,"SoundDuration":76142,"Delta":883925054},{"NoteNumber":78,"Velocity":52,"Duration":76142,"SoundDuration":76142,"Delta":883925054},{"NoteNumber":89,"Velocity":79,"Duration":284359,"SoundDuration":284359,"Delta":884077338},{"NoteNumber":77,"Velocity":59,"Duration":71090,"SoundDuration":71090,"Delta":884077338},{"NoteNumber":37,"Velocity":52,"Duration":284359,"SoundDuration":284359,"Delta":884077338},{"NoteNumber":41,"Velocity":52,"Duration":284359,"SoundDuration":284359,"Delta":884077338},{"NoteNumber":44,"Velocity":52,"Duration":284359,"SoundDuration":284359,"Delta":884077338},{"NoteNumber":49,"Velocity":64,"Duration":284359,"SoundDuration":284359,"Delta":884077338},{"NoteNumber":85,"Velocity":52,"Duration":71089,"SoundDuration":71089,"Delta":884219518},{"NoteNumber":80,"Velocity":44,"Duration":71089,"SoundDuration":71089,"Delta":884219518},{"NoteNumber":85,"Velocity":77,"Duration":312500,"SoundDuration":312500,"Delta":884361698},{"NoteNumber":73,"Velocity":59,"Duration":78125,"SoundDuration":78125,"Delta":884361698},{"NoteNumber":61,"Velocity":60,"Duration":312500,"SoundDuration":312500,"Delta":884361698},{"NoteNumber":49,"Velocity":50,"Duration":312500,"SoundDuration":312500,"Delta":884361698},{"NoteNumber":53,"Velocity":50,"Duration":312500,"SoundDuration":312500,"Delta":884361698},{"NoteNumber":56,"Velocity":50,"Duration":312500,"SoundDuration":312500,"Delta":884361698},{"NoteNumber":77,"Velocity":39,"Duration":78125,"SoundDuration":78125,"Delta":884517948},{"NoteNumber":80,"Velocity":52,"Duration":78125,"SoundDuration":78125,"Delta":884517948},{"NoteNumber":90,"Velocity":86,"Duration":303030,"SoundDuration":303030,"Delta":884674198},{"NoteNumber":78,"Velocity":62,"Duration":75757,"SoundDuration":75757,"Delta":884674198},{"NoteNumber":57,"Velocity":64,"Duration":303030,"SoundDuration":303030,"Delta":884674198},{"NoteNumber":45,"Velocity":52,"Duration":303030,"SoundDuration":303030,"Delta":884674198},{"NoteNumber":49,"Velocity":52,"Duration":303030,"SoundDuration":303030,"Delta":884674198},{"NoteNumber":54,"Velocity":52,"Duration":303030,"SoundDuration":303030,"Delta":884674198},{"NoteNumber":85,"Velocity":44,"Duration":75757,"SoundDuration":75757,"Delta":884825713},{"NoteNumber":81,"Velocity":52,"Duration":75757,"SoundDuration":75757,"Delta":884825713},{"NoteNumber":93,"Velocity":69,"Duration":68807,"SoundDuration":68807,"Delta":884977228},{"NoteNumber":81,"Velocity":59,"Duration":68807,"SoundDuration":68807,"Delta":884977228},{"NoteNumber":54,"Velocity":59,"Duration":292253,"SoundDuration":292253,"Delta":884977228},{"NoteNumber":42,"Velocity":49,"Duration":292253,"SoundDuration":292253,"Delta":884977228},{"NoteNumber":45,"Velocity":49,"Duration":292253,"SoundDuration":292253,"Delta":884977228},{"NoteNumber":49,"Velocity":49,"Duration":292253,"SoundDuration":292253,"Delta":884977228},{"NoteNumber":90,"Velocity":69,"Duration":77319,"SoundDuration":77319,"Delta":885114843},{"NoteNumber":78,"Velocity":52,"Duration":77319,"SoundDuration":77319,"Delta":885114843},{"NoteNumber":89,"Velocity":79,"Duration":285713,"SoundDuration":285713,"Delta":885269482},{"NoteNumber":77,"Velocity":59,"Duration":142857,"SoundDuration":142857,"Delta":885269482},{"NoteNumber":37,"Velocity":52,"Duration":285713,"SoundDuration":285713,"Delta":885269482},{"NoteNumber":41,"Velocity":52,"Duration":285713,"SoundDuration":285713,"Delta":885269482},{"NoteNumber":44,"Velocity":52,"Duration":285713,"SoundDuration":285713,"Delta":885269482},{"NoteNumber":49,"Velocity":64,"Duration":285713,"SoundDuration":285713,"Delta":885269482},{"NoteNumber":85,"Velocity":52,"Duration":142856,"SoundDuration":142856,"Delta":885412339},{"NoteNumber":80,"Velocity":44,"Duration":142856,"SoundDuration":142856,"Delta":885412339},{"NoteNumber":92,"Velocity":77,"Duration":304569,"SoundDuration":304569,"Delta":885555196},{"NoteNumber":80,"Velocity":59,"Duration":152284,"SoundDuration":152284,"Delta":885555196},{"NoteNumber":68,"Velocity":60,"Duration":304569,"SoundDuration":304569,"Delta":885555196},{"NoteNumber":61,"Velocity":50,"Duration":304569,"SoundDuration":304569,"Delta":885555196},{"NoteNumber":65,"Velocity":50,"Duration":304569,"SoundDuration":304569,"Delta":885555196},{"NoteNumber":85,"Velocity":39,"Duration":152284,"SoundDuration":152284,"Delta":885707480},{"NoteNumber":89,"Velocity":52,"Duration":152284,"SoundDuration":152284,"Delta":885707480},{"NoteNumber":93,"Velocity":79,"Duration":288461,"SoundDuration":288461,"Delta":885859765},{"NoteNumber":81,"Velocity":59,"Duration":144230,"SoundDuration":144230,"Delta":885859765},{"NoteNumber":60,"Velocity":52,"Duration":288461,"SoundDuration":288461,"Delta":885859765},{"NoteNumber":66,"Velocity":52,"Duration":288461,"SoundDuration":288461,"Delta":885859765},{"NoteNumber":69,"Velocity":64,"Duration":288461,"SoundDuration":288461,"Delta":885859765},{"NoteNumber":87,"Velocity":52,"Duration":144230,"SoundDuration":144230,"Delta":886003996},{"NoteNumber":84,"Velocity":44,"Duration":144230,"SoundDuration":144230,"Delta":886003996},{"NoteNumber":90,"Velocity":77,"Duration":298506,"SoundDuration":298506,"Delta":886148227},{"NoteNumber":78,"Velocity":59,"Duration":149253,"SoundDuration":149253,"Delta":886148227},{"NoteNumber":48,"Velocity":60,"Duration":298506,"SoundDuration":298506,"Delta":886148227},{"NoteNumber":37,"Velocity":50,"Duration":585587,"SoundDuration":585587,"Delta":886148227},{"NoteNumber":45,"Velocity":50,"Duration":298506,"SoundDuration":298506,"Delta":886148227},{"NoteNumber":81,"Velocity":39,"Duration":149253,"SoundDuration":149253,"Delta":886297480},{"NoteNumber":84,"Velocity":52,"Duration":149253,"SoundDuration":149253,"Delta":886297480},{"NoteNumber":89,"Velocity":80,"Duration":287080,"SoundDuration":287080,"Delta":886446734},{"NoteNumber":77,"Velocity":60,"Duration":143540,"SoundDuration":143540,"Delta":886446734},{"NoteNumber":44,"Velocity":52,"Duration":287080,"SoundDuration":287080,"Delta":886446734},{"NoteNumber":49,"Velocity":65,"Duration":287080,"SoundDuration":287080,"Delta":886446734},{"NoteNumber":85,"Velocity":52,"Duration":143540,"SoundDuration":143540,"Delta":886590274},{"NoteNumber":80,"Velocity":44,"Duration":143540,"SoundDuration":143540,"Delta":886590274},{"NoteNumber":92,"Velocity":79,"Duration":322581,"SoundDuration":322581,"Delta":886733815},{"NoteNumber":80,"Velocity":60,"Duration":161290,"SoundDuration":161290,"Delta":886733815},{"NoteNumber":68,"Velocity":62,"Duration":322581,"SoundDuration":322581,"Delta":886733815},{"NoteNumber":61,"Velocity":51,"Duration":322581,"SoundDuration":322581,"Delta":886733815},{"NoteNumber":65,"Velocity":51,"Duration":322581,"SoundDuration":322581,"Delta":886733815},{"NoteNumber":85,"Velocity":40,"Duration":161290,"SoundDuration":161290,"Delta":886895105},{"NoteNumber":89,"Velocity":54,"Duration":161290,"SoundDuration":161290,"Delta":886895105},{"NoteNumber":95,"Velocity":81,"Duration":287080,"SoundDuration":287080,"Delta":887056396},{"NoteNumber":83,"Velocity":62,"Duration":143540,"SoundDuration":143540,"Delta":887056396},{"NoteNumber":62,"Velocity":54,"Duration":287080,"SoundDuration":287080,"Delta":887056396},{"NoteNumber":68,"Velocity":54,"Duration":287080,"SoundDuration":287080,"Delta":887056396},{"NoteNumber":71,"Velocity":66,"Duration":287080,"SoundDuration":287080,"Delta":887056396},{"NoteNumber":89,"Velocity":54,"Duration":143540,"SoundDuration":143540,"Delta":887199936},{"NoteNumber":86,"Velocity":46,"Duration":143540,"SoundDuration":143540,"Delta":887199936},{"NoteNumber":92,"Velocity":80,"Duration":297029,"SoundDuration":297029,"Delta":887343477},{"NoteNumber":80,"Velocity":62,"Duration":148514,"SoundDuration":148514,"Delta":887343477},{"NoteNumber":50,"Velocity":63,"Duration":297029,"SoundDuration":297029,"Delta":887343477},{"NoteNumber":38,"Velocity":52,"Duration":297029,"SoundDuration":297029,"Delta":887343477},{"NoteNumber":47,"Velocity":52,"Duration":297029,"SoundDuration":297029,"Delta":887343477},{"NoteNumber":83,"Velocity":40,"Duration":148514,"SoundDuration":148514,"Delta":887491992},{"NoteNumber":89,"Velocity":55,"Duration":148514,"SoundDuration":148514,"Delta":887491992},{"NoteNumber":91,"Velocity":82,"Duration":287080,"SoundDuration":287080,"Delta":887640507},{"NoteNumber":79,"Velocity":62,"Duration":143540,"SoundDuration":143540,"Delta":887640507},{"NoteNumber":39,"Velocity":55,"Duration":287080,"SoundDuration":287080,"Delta":887640507},{"NoteNumber":46,"Velocity":55,"Duration":287080,"SoundDuration":287080,"Delta":887640507},{"NoteNumber":51,"Velocity":66,"Duration":287080,"SoundDuration":287080,"Delta":887640507},{"NoteNumber":87,"Velocity":55,"Duration":143540,"SoundDuration":143540,"Delta":887784047},{"NoteNumber":82,"Velocity":47,"Duration":143540,"SoundDuration":143540,"Delta":887784047},{"NoteNumber":94,"Velocity":81,"Duration":297029,"SoundDuration":297029,"Delta":887927588},{"NoteNumber":82,"Velocity":63,"Duration":148514,"SoundDuration":148514,"Delta":887927588},{"NoteNumber":70,"Velocity":64,"Duration":297029,"SoundDuration":297029,"Delta":887927588},{"NoteNumber":63,"Velocity":52,"Duration":297029,"SoundDuration":297029,"Delta":887927588},{"NoteNumber":67,"Velocity":52,"Duration":297029,"SoundDuration":297029,"Delta":887927588},{"NoteNumber":87,"Velocity":41,"Duration":148514,"SoundDuration":148514,"Delta":888076103},{"NoteNumber":91,"Velocity":56,"Duration":148514,"SoundDuration":148514,"Delta":888076103},{"NoteNumber":95,"Velocity":83,"Duration":287080,"SoundDuration":287080,"Delta":888224618},{"NoteNumber":83,"Velocity":63,"Duration":143540,"SoundDuration":143540,"Delta":888224618},{"NoteNumber":62,"Velocity":56,"Duration":287080,"SoundDuration":287080,"Delta":888224618},{"NoteNumber":68,"Velocity":56,"Duration":287080,"SoundDuration":287080,"Delta":888224618},{"NoteNumber":71,"Velocity":67,"Duration":287080,"SoundDuration":287080,"Delta":888224618},{"NoteNumber":89,"Velocity":56,"Duration":143540,"SoundDuration":143540,"Delta":888368158},{"NoteNumber":86,"Velocity":47,"Duration":143540,"SoundDuration":143540,"Delta":888368158},{"NoteNumber":92,"Velocity":82,"Duration":299999,"SoundDuration":299999,"Delta":888511699},{"NoteNumber":80,"Velocity":64,"Duration":149999,"SoundDuration":149999,"Delta":888511699},{"NoteNumber":50,"Velocity":65,"Duration":299999,"SoundDuration":299999,"Delta":888511699},{"NoteNumber":39,"Velocity":54,"Duration":587080,"SoundDuration":587080,"Delta":888511699},{"NoteNumber":47,"Velocity":54,"Duration":299999,"SoundDuration":299999,"Delta":888511699},{"NoteNumber":83,"Velocity":41,"Duration":149999,"SoundDuration":149999,"Delta":888661699},{"NoteNumber":89,"Velocity":56,"Duration":149999,"SoundDuration":149999,"Delta":888661699},{"NoteNumber":91,"Velocity":86,"Duration":287080,"SoundDuration":287080,"Delta":888811699},{"NoteNumber":79,"Velocity":64,"Duration":143540,"SoundDuration":143540,"Delta":888811699},{"NoteNumber":46,"Velocity":57,"Duration":287080,"SoundDuration":287080,"Delta":888811699},{"NoteNumber":51,"Velocity":70,"Duration":287080,"SoundDuration":287080,"Delta":888811699},{"NoteNumber":87,"Velocity":57,"Duration":143540,"SoundDuration":143540,"Delta":888955239},{"NoteNumber":82,"Velocity":48,"Duration":143540,"SoundDuration":143540,"Delta":888955239},{"NoteNumber":94,"Velocity":83,"Duration":297029,"SoundDuration":297029,"Delta":889098780},{"NoteNumber":82,"Velocity":65,"Duration":148514,"SoundDuration":148514,"Delta":889098780},{"NoteNumber":70,"Velocity":66,"Duration":297029,"SoundDuration":297029,"Delta":889098780},{"NoteNumber":63,"Velocity":55,"Duration":297029,"SoundDuration":297029,"Delta":889098780},{"NoteNumber":67,"Velocity":55,"Duration":297029,"SoundDuration":297029,"Delta":889098780},{"NoteNumber":87,"Velocity":42,"Duration":148514,"SoundDuration":148514,"Delta":889247295},{"NoteNumber":91,"Velocity":57,"Duration":148514,"SoundDuration":148514,"Delta":889247295},{"NoteNumber":97,"Velocity":86,"Duration":285713,"SoundDuration":285713,"Delta":889395810},{"NoteNumber":85,"Velocity":65,"Duration":142857,"SoundDuration":142857,"Delta":889395810},{"NoteNumber":64,"Velocity":57,"Duration":285713,"SoundDuration":285713,"Delta":889395810},{"NoteNumber":70,"Velocity":57,"Duration":285713,"SoundDuration":285713,"Delta":889395810},{"NoteNumber":73,"Velocity":70,"Duration":285713,"SoundDuration":285713,"Delta":889395810},{"NoteNumber":91,"Velocity":58,"Duration":142856,"SoundDuration":142856,"Delta":889538667},{"NoteNumber":88,"Velocity":49,"Duration":142856,"SoundDuration":142856,"Delta":889538667},{"NoteNumber":94,"Velocity":85,"Duration":303030,"SoundDuration":303030,"Delta":889681524},{"NoteNumber":82,"Velocity":65,"Duration":151515,"SoundDuration":151515,"Delta":889681524},{"NoteNumber":52,"Velocity":66,"Duration":303030,"SoundDuration":303030,"Delta":889681524},{"NoteNumber":40,"Velocity":55,"Duration":303030,"SoundDuration":303030,"Delta":889681524},{"NoteNumber":49,"Velocity":55,"Duration":303030,"SoundDuration":303030,"Delta":889681524},{"NoteNumber":85,"Velocity":43,"Duration":151515,"SoundDuration":151515,"Delta":889833039},{"NoteNumber":91,"Velocity":58,"Duration":151515,"SoundDuration":151515,"Delta":889833039},{"NoteNumber":93,"Velocity":88,"Duration":287080,"SoundDuration":287080,"Delta":889984554},{"NoteNumber":81,"Velocity":66,"Duration":143540,"SoundDuration":143540,"Delta":889984554},{"NoteNumber":41,"Velocity":58,"Duration":287080,"SoundDuration":287080,"Delta":889984554},{"NoteNumber":48,"Velocity":58,"Duration":287080,"SoundDuration":287080,"Delta":889984554},{"NoteNumber":53,"Velocity":71,"Duration":287080,"SoundDuration":287080,"Delta":889984554},{"NoteNumber":89,"Velocity":58,"Duration":143540,"SoundDuration":143540,"Delta":890128094},{"NoteNumber":84,"Velocity":49,"Duration":143540,"SoundDuration":143540,"Delta":890128094},{"NoteNumber":96,"Velocity":86,"Duration":298506,"SoundDuration":298506,"Delta":890271635},{"NoteNumber":84,"Velocity":66,"Duration":149253,"SoundDuration":149253,"Delta":890271635},{"NoteNumber":60,"Velocity":67,"Duration":298506,"SoundDuration":298506,"Delta":890271635},{"NoteNumber":53,"Velocity":56,"Duration":298506,"SoundDuration":298506,"Delta":890271635},{"NoteNumber":57,"Velocity":56,"Duration":298506,"SoundDuration":298506,"Delta":890271635},{"NoteNumber":89,"Velocity":43,"Duration":149253,"SoundDuration":149253,"Delta":890420888},{"NoteNumber":93,"Velocity":58,"Duration":149253,"SoundDuration":149253,"Delta":890420888},{"NoteNumber":97,"Velocity":89,"Duration":287080,"SoundDuration":287080,"Delta":890570142},{"NoteNumber":85,"Velocity":67,"Duration":143540,"SoundDuration":143540,"Delta":890570142},{"NoteNumber":52,"Velocity":59,"Duration":260167,"SoundDuration":260167,"Delta":890570142},{"NoteNumber":58,"Velocity":59,"Duration":260167,"SoundDuration":260167,"Delta":890570142},{"NoteNumber":61,"Velocity":72,"Duration":260167,"SoundDuration":260167,"Delta":890570142},{"NoteNumber":91,"Velocity":59,"Duration":143540,"SoundDuration":143540,"Delta":890713682},{"NoteNumber":88,"Velocity":50,"Duration":143540,"SoundDuration":143540,"Delta":890713682},{"NoteNumber":41,"Velocity":57,"Duration":296097,"SoundDuration":296097,"Delta":890830309},{"NoteNumber":49,"Velocity":57,"Duration":287125,"SoundDuration":287125,"Delta":890839280},{"NoteNumber":52,"Velocity":57,"Duration":278154,"SoundDuration":278154,"Delta":890848252},{"NoteNumber":94,"Velocity":88,"Duration":297029,"SoundDuration":297029,"Delta":890857223},{"NoteNumber":82,"Velocity":67,"Duration":148514,"SoundDuration":148514,"Delta":890857223},{"NoteNumber":58,"Velocity":69,"Duration":269183,"SoundDuration":269183,"Delta":890857223},{"NoteNumber":85,"Velocity":44,"Duration":148514,"SoundDuration":148514,"Delta":891005738},{"NoteNumber":91,"Velocity":59,"Duration":148514,"SoundDuration":148514,"Delta":891005738},{"NoteNumber":41,"Velocity":59,"Duration":313560,"SoundDuration":313560,"Delta":891126406},{"NoteNumber":48,"Velocity":59,"Duration":304278,"SoundDuration":304278,"Delta":891135689},{"NoteNumber":53,"Velocity":59,"Duration":294996,"SoundDuration":294996,"Delta":891144971},{"NoteNumber":93,"Velocity":90,"Duration":285713,"SoundDuration":285713,"Delta":891154253},{"NoteNumber":81,"Velocity":67,"Duration":142857,"SoundDuration":142857,"Delta":891154253},{"NoteNumber":57,"Velocity":73,"Duration":285713,"SoundDuration":285713,"Delta":891154253},{"NoteNumber":89,"Velocity":60,"Duration":142856,"SoundDuration":142856,"Delta":891297110},{"NoteNumber":84,"Velocity":51,"Duration":142856,"SoundDuration":142856,"Delta":891297110},{"NoteNumber":96,"Velocity":88,"Duration":301508,"SoundDuration":301508,"Delta":891439967},{"NoteNumber":84,"Velocity":69,"Duration":150754,"SoundDuration":150754,"Delta":891439967},{"NoteNumber":60,"Velocity":70,"Duration":301508,"SoundDuration":301508,"Delta":891439967},{"NoteNumber":53,"Velocity":58,"Duration":301508,"SoundDuration":301508,"Delta":891439967},{"NoteNumber":57,"Velocity":58,"Duration":301508,"SoundDuration":301508,"Delta":891439967},{"NoteNumber":89,"Velocity":44,"Duration":150754,"SoundDuration":150754,"Delta":891590721},{"NoteNumber":93,"Velocity":60,"Duration":150754,"SoundDuration":150754,"Delta":891590721},{"NoteNumber":97,"Velocity":92,"Duration":287080,"SoundDuration":287080,"Delta":891741475},{"NoteNumber":85,"Velocity":69,"Duration":143540,"SoundDuration":143540,"Delta":891741475},{"NoteNumber":52,"Velocity":60,"Duration":260167,"SoundDuration":260167,"Delta":891741475},{"NoteNumber":58,"Velocity":60,"Duration":260167,"SoundDuration":260167,"Delta":891741475},{"NoteNumber":61,"Velocity":74,"Duration":260167,"SoundDuration":260167,"Delta":891741475},{"NoteNumber":91,"Velocity":60,"Duration":143540,"SoundDuration":143540,"Delta":891885015},{"NoteNumber":88,"Velocity":51,"Duration":143540,"SoundDuration":143540,"Delta":891885015},{"NoteNumber":41,"Velocity":58,"Duration":302929,"SoundDuration":302929,"Delta":892001642},{"NoteNumber":49,"Velocity":58,"Duration":293958,"SoundDuration":293958,"Delta":892010613},{"NoteNumber":52,"Velocity":58,"Duration":284986,"SoundDuration":284986,"Delta":892019585},{"NoteNumber":94,"Velocity":90,"Duration":304569,"SoundDuration":304569,"Delta":892028556},{"NoteNumber":82,"Velocity":70,"Duration":152284,"SoundDuration":152284,"Delta":892028556},{"NoteNumber":58,"Velocity":71,"Duration":276015,"SoundDuration":276015,"Delta":892028556},{"NoteNumber":85,"Velocity":46,"Duration":152284,"SoundDuration":152284,"Delta":892180840},{"NoteNumber":91,"Velocity":62,"Duration":152284,"SoundDuration":152284,"Delta":892180840},{"NoteNumber":41,"Velocity":62,"Duration":319815,"SoundDuration":319815,"Delta":892304572},{"NoteNumber":48,"Velocity":62,"Duration":310297,"SoundDuration":310297,"Delta":892314089},{"NoteNumber":53,"Velocity":62,"Duration":300779,"SoundDuration":300779,"Delta":892323607},{"NoteNumber":93,"Velocity":94,"Duration":291261,"SoundDuration":291261,"Delta":892333125},{"NoteNumber":81,"Velocity":70,"Duration":145630,"SoundDuration":145630,"Delta":892333125},{"NoteNumber":57,"Velocity":75,"Duration":291261,"SoundDuration":291261,"Delta":892333125},{"NoteNumber":89,"Velocity":62,"Duration":145630,"SoundDuration":145630,"Delta":892478756},{"NoteNumber":84,"Velocity":52,"Duration":145630,"SoundDuration":145630,"Delta":892478756},{"NoteNumber":96,"Velocity":92,"Duration":361446,"SoundDuration":361446,"Delta":892624387},{"NoteNumber":84,"Velocity":71,"Duration":180722,"SoundDuration":180722,"Delta":892624387},{"NoteNumber":60,"Velocity":72,"Duration":361446,"SoundDuration":361446,"Delta":892624387},{"NoteNumber":89,"Velocity":46,"Duration":180723,"SoundDuration":180723,"Delta":892805110},{"NoteNumber":93,"Velocity":63,"Duration":180723,"SoundDuration":180723,"Delta":892805110},{"NoteNumber":99,"Velocity":101,"Duration":722892,"SoundDuration":722892,"Delta":892985833},{"NoteNumber":87,"Velocity":101,"Duration":722892,"SoundDuration":722892,"Delta":892985833},{"NoteNumber":63,"Velocity":79,"Duration":722892,"SoundDuration":722892,"Delta":892985833},{"NoteNumber":67,"Velocity":76,"Duration":821064,"SoundDuration":821064,"Delta":893708725},{"NoteNumber":79,"Velocity":83,"Duration":821064,"SoundDuration":821064,"Delta":893708725},{"NoteNumber":55,"Velocity":73,"Duration":821064,"SoundDuration":821064,"Delta":893708725},{"NoteNumber":69,"Velocity":83,"Duration":85616,"SoundDuration":85616,"Delta":894529789},{"NoteNumber":57,"Velocity":72,"Duration":85616,"SoundDuration":85616,"Delta":894529789},{"NoteNumber":82,"Velocity":55,"Duration":84714,"SoundDuration":84714,"Delta":894615406},{"NoteNumber":70,"Velocity":60,"Duration":84714,"SoundDuration":84714,"Delta":894615406},{"NoteNumber":69,"Velocity":63,"Duration":83831,"SoundDuration":83831,"Delta":894700120},{"NoteNumber":57,"Velocity":64,"Duration":83831,"SoundDuration":83831,"Delta":894700120},{"NoteNumber":82,"Velocity":46,"Duration":82966,"SoundDuration":82966,"Delta":894783952},{"NoteNumber":70,"Velocity":54,"Duration":82966,"SoundDuration":82966,"Delta":894783952},{"NoteNumber":69,"Velocity":64,"Duration":82600,"SoundDuration":82600,"Delta":894866918},{"NoteNumber":57,"Velocity":64,"Duration":82600,"SoundDuration":82600,"Delta":894866918},{"NoteNumber":82,"Velocity":46,"Duration":81759,"SoundDuration":81759,"Delta":894949519},{"NoteNumber":70,"Velocity":54,"Duration":81759,"SoundDuration":81759,"Delta":894949519},{"NoteNumber":69,"Velocity":61,"Duration":80935,"SoundDuration":80935,"Delta":895031278},{"NoteNumber":57,"Velocity":64,"Duration":80935,"SoundDuration":80935,"Delta":895031278},{"NoteNumber":82,"Velocity":46,"Duration":80128,"SoundDuration":80128,"Delta":895112214},{"NoteNumber":70,"Velocity":54,"Duration":80128,"SoundDuration":80128,"Delta":895112214},{"NoteNumber":69,"Velocity":59,"Duration":79732,"SoundDuration":79732,"Delta":895192342},{"NoteNumber":57,"Velocity":64,"Duration":79732,"SoundDuration":79732,"Delta":895192342},{"NoteNumber":82,"Velocity":45,"Duration":78949,"SoundDuration":78949,"Delta":895272075},{"NoteNumber":70,"Velocity":53,"Duration":78949,"SoundDuration":78949,"Delta":895272075},{"NoteNumber":69,"Velocity":58,"Duration":78181,"SoundDuration":78181,"Delta":895351025},{"NoteNumber":57,"Velocity":64,"Duration":78181,"SoundDuration":78181,"Delta":895351025},{"NoteNumber":82,"Velocity":48,"Duration":77639,"SoundDuration":77639,"Delta":895429206},{"NoteNumber":70,"Velocity":53,"Duration":77639,"SoundDuration":77639,"Delta":895429206},{"NoteNumber":69,"Velocity":59,"Duration":77056,"SoundDuration":77056,"Delta":895506846},{"NoteNumber":57,"Velocity":64,"Duration":77056,"SoundDuration":77056,"Delta":895506846},{"NoteNumber":82,"Velocity":46,"Duration":76324,"SoundDuration":76324,"Delta":895583902},{"NoteNumber":70,"Velocity":53,"Duration":76324,"SoundDuration":76324,"Delta":895583902},{"NoteNumber":69,"Velocity":64,"Duration":75606,"SoundDuration":75606,"Delta":895660227},{"NoteNumber":57,"Velocity":64,"Duration":75606,"SoundDuration":75606,"Delta":895660227},{"NoteNumber":82,"Velocity":50,"Duration":75151,"SoundDuration":75151,"Delta":895735833},{"NoteNumber":70,"Velocity":51,"Duration":75151,"SoundDuration":75151,"Delta":895735833},{"NoteNumber":69,"Velocity":65,"Duration":72393,"SoundDuration":72393,"Delta":895810985},{"NoteNumber":57,"Velocity":64,"Duration":72393,"SoundDuration":72393,"Delta":895810985},{"NoteNumber":82,"Velocity":52,"Duration":72393,"SoundDuration":72393,"Delta":895883379},{"NoteNumber":70,"Velocity":51,"Duration":72393,"SoundDuration":72393,"Delta":895883379},{"NoteNumber":69,"Velocity":65,"Duration":72393,"SoundDuration":72393,"Delta":895955773},{"NoteNumber":57,"Velocity":64,"Duration":72393,"SoundDuration":72393,"Delta":895955773},{"NoteNumber":82,"Velocity":52,"Duration":72393,"SoundDuration":72393,"Delta":896028167},{"NoteNumber":70,"Velocity":52,"Duration":72393,"SoundDuration":72393,"Delta":896028167},{"NoteNumber":69,"Velocity":65,"Duration":77639,"SoundDuration":77639,"Delta":896100560},{"NoteNumber":57,"Velocity":64,"Duration":77639,"SoundDuration":77639,"Delta":896100560},{"NoteNumber":82,"Velocity":51,"Duration":77639,"SoundDuration":77639,"Delta":896178200},{"NoteNumber":70,"Velocity":53,"Duration":77639,"SoundDuration":77639,"Delta":896178200},{"NoteNumber":69,"Velocity":73,"Duration":188442,"SoundDuration":188442,"Delta":896255840},{"NoteNumber":57,"Velocity":72,"Duration":188442,"SoundDuration":188442,"Delta":896255840},{"NoteNumber":79,"Velocity":74,"Duration":112782,"SoundDuration":112782,"Delta":896444282},{"NoteNumber":67,"Velocity":74,"Duration":112782,"SoundDuration":112782,"Delta":896444282},{"NoteNumber":55,"Velocity":74,"Duration":112782,"SoundDuration":112782,"Delta":896444282},{"NoteNumber":81,"Velocity":74,"Duration":140186,"SoundDuration":140186,"Delta":896669846},{"NoteNumber":69,"Velocity":74,"Duration":140186,"SoundDuration":140186,"Delta":896669846},{"NoteNumber":57,"Velocity":74,"Duration":140186,"SoundDuration":140186,"Delta":896669846},{"NoteNumber":82,"Velocity":88,"Duration":309277,"SoundDuration":309277,"Delta":896950220},{"NoteNumber":70,"Velocity":63,"Duration":77319,"SoundDuration":77319,"Delta":896950220},{"NoteNumber":34,"Velocity":79,"Duration":77319,"SoundDuration":77319,"Delta":896950220},{"NoteNumber":46,"Velocity":85,"Duration":77319,"SoundDuration":77319,"Delta":896950220},{"NoteNumber":77,"Velocity":57,"Duration":77319,"SoundDuration":77319,"Delta":897104859},{"NoteNumber":74,"Velocity":49,"Duration":77319,"SoundDuration":77319,"Delta":897104859},{"NoteNumber":65,"Velocity":48,"Duration":77319,"SoundDuration":77319,"Delta":897104859},{"NoteNumber":62,"Velocity":39,"Duration":77319,"SoundDuration":77319,"Delta":897104859},{"NoteNumber":82,"Velocity":71,"Duration":68807,"SoundDuration":68807,"Delta":897259498},{"NoteNumber":70,"Velocity":63,"Duration":68807,"SoundDuration":68807,"Delta":897259498},{"NoteNumber":62,"Velocity":62,"Duration":68807,"SoundDuration":68807,"Delta":897259498},{"NoteNumber":58,"Velocity":52,"Duration":68807,"SoundDuration":68807,"Delta":897259498},{"NoteNumber":82,"Velocity":71,"Duration":77720,"SoundDuration":77720,"Delta":897397112},{"NoteNumber":77,"Velocity":57,"Duration":77720,"SoundDuration":77720,"Delta":897397112},{"NoteNumber":74,"Velocity":49,"Duration":77720,"SoundDuration":77720,"Delta":897397112},{"NoteNumber":58,"Velocity":48,"Duration":77720,"SoundDuration":77720,"Delta":897397112},{"NoteNumber":53,"Velocity":39,"Duration":77720,"SoundDuration":77720,"Delta":897397112},{"NoteNumber":86,"Velocity":88,"Duration":72815,"SoundDuration":72815,"Delta":897552553},{"NoteNumber":74,"Velocity":63,"Duration":72815,"SoundDuration":72815,"Delta":897552553},{"NoteNumber":46,"Velocity":66,"Duration":72815,"SoundDuration":72815,"Delta":897552553},{"NoteNumber":82,"Velocity":71,"Duration":72815,"SoundDuration":72815,"Delta":897698184},{"NoteNumber":77,"Velocity":57,"Duration":72815,"SoundDuration":72815,"Delta":897698184},{"NoteNumber":65,"Velocity":48,"Duration":72815,"SoundDuration":72815,"Delta":897698184},{"NoteNumber":62,"Velocity":39,"Duration":72815,"SoundDuration":72815,"Delta":897698184},{"NoteNumber":82,"Velocity":71,"Duration":326087,"SoundDuration":326087,"Delta":897843815},{"NoteNumber":70,"Velocity":63,"Duration":81521,"SoundDuration":81521,"Delta":897843815},{"NoteNumber":62,"Velocity":62,"Duration":81521,"SoundDuration":81521,"Delta":897843815},{"NoteNumber":58,"Velocity":52,"Duration":81521,"SoundDuration":81521,"Delta":897843815},{"NoteNumber":74,"Velocity":42,"Duration":81521,"SoundDuration":81521,"Delta":898006858},{"NoteNumber":77,"Velocity":57,"Duration":81521,"SoundDuration":81521,"Delta":898006858},{"NoteNumber":58,"Velocity":48,"Duration":81521,"SoundDuration":81521,"Delta":898006858},{"NoteNumber":53,"Velocity":39,"Duration":81521,"SoundDuration":81521,"Delta":898006858},{"NoteNumber":77,"Velocity":87,"Duration":306121,"SoundDuration":306121,"Delta":898169902},{"NoteNumber":65,"Velocity":63,"Duration":76530,"SoundDuration":76530,"Delta":898169902},{"NoteNumber":46,"Velocity":88,"Duration":76530,"SoundDuration":76530,"Delta":898169902},{"NoteNumber":70,"Velocity":49,"Duration":76530,"SoundDuration":76530,"Delta":898322963},{"NoteNumber":74,"Velocity":57,"Duration":76530,"SoundDuration":76530,"Delta":898322963},{"NoteNumber":65,"Velocity":48,"Duration":76530,"SoundDuration":76530,"Delta":898322963},{"NoteNumber":62,"Velocity":39,"Duration":76530,"SoundDuration":76530,"Delta":898322963},{"NoteNumber":77,"Velocity":71,"Duration":68181,"SoundDuration":68181,"Delta":898476024},{"NoteNumber":65,"Velocity":63,"Duration":68181,"SoundDuration":68181,"Delta":898476024},{"NoteNumber":62,"Velocity":62,"Duration":68181,"SoundDuration":68181,"Delta":898476024},{"NoteNumber":58,"Velocity":52,"Duration":68181,"SoundDuration":68181,"Delta":898476024},{"NoteNumber":77,"Velocity":71,"Duration":76142,"SoundDuration":76142,"Delta":898612387},{"NoteNumber":74,"Velocity":57,"Duration":76142,"SoundDuration":76142,"Delta":898612387},{"NoteNumber":70,"Velocity":49,"Duration":76142,"SoundDuration":76142,"Delta":898612387},{"NoteNumber":58,"Velocity":48,"Duration":76142,"SoundDuration":76142,"Delta":898612387},{"NoteNumber":53,"Velocity":39,"Duration":76142,"SoundDuration":76142,"Delta":898612387},{"NoteNumber":82,"Velocity":85,"Duration":72815,"SoundDuration":72815,"Delta":898764672},{"NoteNumber":70,"Velocity":63,"Duration":72815,"SoundDuration":72815,"Delta":898764672},{"NoteNumber":46,"Velocity":63,"Duration":72815,"SoundDuration":72815,"Delta":898764672},{"NoteNumber":77,"Velocity":71,"Duration":72815,"SoundDuration":72815,"Delta":898910303},{"NoteNumber":74,"Velocity":57,"Duration":72815,"SoundDuration":72815,"Delta":898910303},{"NoteNumber":65,"Velocity":48,"Duration":72815,"SoundDuration":72815,"Delta":898910303},{"NoteNumber":62,"Velocity":39,"Duration":72815,"SoundDuration":72815,"Delta":898910303},{"NoteNumber":77,"Velocity":71,"Duration":326087,"SoundDuration":326087,"Delta":899055934},{"NoteNumber":65,"Velocity":63,"Duration":81521,"SoundDuration":81521,"Delta":899055934},{"NoteNumber":62,"Velocity":62,"Duration":81521,"SoundDuration":81521,"Delta":899055934},{"NoteNumber":58,"Velocity":52,"Duration":81521,"SoundDuration":81521,"Delta":899055934},{"NoteNumber":70,"Velocity":42,"Duration":81521,"SoundDuration":81521,"Delta":899218977},{"NoteNumber":74,"Velocity":57,"Duration":81521,"SoundDuration":81521,"Delta":899218977},{"NoteNumber":58,"Velocity":48,"Duration":81521,"SoundDuration":81521,"Delta":899218977},{"NoteNumber":53,"Velocity":39,"Duration":81521,"SoundDuration":81521,"Delta":899218977},{"NoteNumber":74,"Velocity":91,"Duration":307691,"SoundDuration":307691,"Delta":899382021},{"NoteNumber":62,"Velocity":66,"Duration":76922,"SoundDuration":76922,"Delta":899382021},{"NoteNumber":46,"Velocity":87,"Duration":76922,"SoundDuration":76922,"Delta":899382021},{"NoteNumber":65,"Velocity":50,"Duration":76922,"SoundDuration":76922,"Delta":899535867},{"NoteNumber":70,"Velocity":59,"Duration":76922,"SoundDuration":76922,"Delta":899535867},{"NoteNumber":62,"Velocity":49,"Duration":76922,"SoundDuration":76922,"Delta":899535867},{"NoteNumber":58,"Velocity":40,"Duration":76922,"SoundDuration":76922,"Delta":899535867},{"NoteNumber":74,"Velocity":73,"Duration":68807,"SoundDuration":68807,"Delta":899689713},{"NoteNumber":62,"Velocity":72,"Duration":68807,"SoundDuration":68807,"Delta":899689713},{"NoteNumber":58,"Velocity":64,"Duration":68807,"SoundDuration":68807,"Delta":899689713},{"NoteNumber":53,"Velocity":53,"Duration":68807,"SoundDuration":68807,"Delta":899689713},{"NoteNumber":75,"Velocity":73,"Duration":74257,"SoundDuration":74257,"Delta":899827327},{"NoteNumber":63,"Velocity":64,"Duration":74257,"SoundDuration":74257,"Delta":899827327},{"NoteNumber":62,"Velocity":49,"Duration":74257,"SoundDuration":74257,"Delta":899827327},{"NoteNumber":58,"Velocity":40,"Duration":74257,"SoundDuration":74257,"Delta":899827327},{"NoteNumber":79,"Velocity":89,"Duration":301508,"SoundDuration":301508,"Delta":899975842},{"NoteNumber":67,"Velocity":66,"Duration":75377,"SoundDuration":75377,"Delta":899975842},{"NoteNumber":46,"Velocity":66,"Duration":75377,"SoundDuration":75377,"Delta":899975842},{"NoteNumber":70,"Velocity":44,"Duration":75377,"SoundDuration":75377,"Delta":900126596},{"NoteNumber":74,"Velocity":59,"Duration":75377,"SoundDuration":75377,"Delta":900126596},{"NoteNumber":62,"Velocity":49,"Duration":75377,"SoundDuration":75377,"Delta":900126596},{"NoteNumber":58,"Velocity":40,"Duration":75377,"SoundDuration":75377,"Delta":900126596},{"NoteNumber":77,"Velocity":74,"Duration":327650,"SoundDuration":327650,"Delta":900277350},{"NoteNumber":65,"Velocity":66,"Duration":79787,"SoundDuration":79787,"Delta":900277350},{"NoteNumber":58,"Velocity":64,"Duration":79787,"SoundDuration":79787,"Delta":900277350},{"NoteNumber":53,"Velocity":53,"Duration":79787,"SoundDuration":79787,"Delta":900277350},{"NoteNumber":70,"Velocity":44,"Duration":84038,"SoundDuration":84038,"Delta":900436925},{"NoteNumber":74,"Velocity":59,"Duration":84038,"SoundDuration":84038,"Delta":900436925},{"NoteNumber":62,"Velocity":49,"Duration":84038,"SoundDuration":84038,"Delta":900436925},{"NoteNumber":58,"Velocity":40,"Duration":84038,"SoundDuration":84038,"Delta":900436925},{"NoteNumber":77,"Velocity":91,"Duration":309277,"SoundDuration":309277,"Delta":900605001},{"NoteNumber":65,"Velocity":66,"Duration":77319,"SoundDuration":77319,"Delta":900605001},{"NoteNumber":41,"Velocity":103,"Duration":77319,"SoundDuration":77319,"Delta":900605001},{"NoteNumber":69,"Velocity":50,"Duration":77319,"SoundDuration":77319,"Delta":900759640},{"NoteNumber":72,"Velocity":59,"Duration":77319,"SoundDuration":77319,"Delta":900759640},{"NoteNumber":63,"Velocity":49,"Duration":77319,"SoundDuration":77319,"Delta":900759640},{"NoteNumber":60,"Velocity":40,"Duration":77319,"SoundDuration":77319,"Delta":900759640},{"NoteNumber":79,"Velocity":73,"Duration":73529,"SoundDuration":73529,"Delta":900914279},{"NoteNumber":67,"Velocity":72,"Duration":73529,"SoundDuration":73529,"Delta":900914279},{"NoteNumber":60,"Velocity":64,"Duration":73529,"SoundDuration":73529,"Delta":900914279},{"NoteNumber":53,"Velocity":53,"Duration":73529,"SoundDuration":73529,"Delta":900914279},{"NoteNumber":81,"Velocity":73,"Duration":79787,"SoundDuration":79787,"Delta":901061338},{"NoteNumber":69,"Velocity":64,"Duration":79787,"SoundDuration":79787,"Delta":901061338},{"NoteNumber":63,"Velocity":49,"Duration":79787,"SoundDuration":79787,"Delta":901061338},{"NoteNumber":60,"Velocity":40,"Duration":79787,"SoundDuration":79787,"Delta":901061338},{"NoteNumber":82,"Velocity":89,"Duration":301508,"SoundDuration":301508,"Delta":901220913},{"NoteNumber":70,"Velocity":66,"Duration":75377,"SoundDuration":75377,"Delta":901220913},{"NoteNumber":46,"Velocity":79,"Duration":75377,"SoundDuration":75377,"Delta":901220913},{"NoteNumber":74,"Velocity":44,"Duration":75377,"SoundDuration":75377,"Delta":901371667},{"NoteNumber":77,"Velocity":59,"Duration":75377,"SoundDuration":75377,"Delta":901371667},{"NoteNumber":62,"Velocity":49,"Duration":75377,"SoundDuration":75377,"Delta":901371667},{"NoteNumber":58,"Velocity":40,"Duration":75377,"SoundDuration":75377,"Delta":901371667},{"NoteNumber":70,"Velocity":63,"Duration":78533,"SoundDuration":78533,"Delta":901522421},{"NoteNumber":58,"Velocity":61,"Duration":78533,"SoundDuration":78533,"Delta":901522421},{"NoteNumber":53,"Velocity":50,"Duration":78533,"SoundDuration":78533,"Delta":901522421},{"NoteNumber":74,"Velocity":39,"Duration":91130,"SoundDuration":91130,"Delta":901679489},{"NoteNumber":77,"Velocity":53,"Duration":91130,"SoundDuration":91130,"Delta":901679489},{"NoteNumber":62,"Velocity":42,"Duration":91130,"SoundDuration":91130,"Delta":901679489},{"NoteNumber":58,"Velocity":34,"Duration":91130,"SoundDuration":91130,"Delta":901679489},{"NoteNumber":94,"Velocity":63,"Duration":301508,"SoundDuration":301508,"Delta":901880921},{"NoteNumber":82,"Velocity":44,"Duration":75377,"SoundDuration":75377,"Delta":901880921},{"NoteNumber":46,"Velocity":59,"Duration":75377,"SoundDuration":75377,"Delta":901880921},{"NoteNumber":89,"Velocity":39,"Duration":75377,"SoundDuration":75377,"Delta":902031675},{"NoteNumber":86,"Velocity":34,"Duration":75377,"SoundDuration":75377,"Delta":902031675},{"NoteNumber":65,"Velocity":30,"Duration":75377,"SoundDuration":75377,"Delta":902031675},{"NoteNumber":62,"Velocity":25,"Duration":75377,"SoundDuration":75377,"Delta":902031675},{"NoteNumber":94,"Velocity":49,"Duration":68493,"SoundDuration":68493,"Delta":902182429},{"NoteNumber":82,"Velocity":44,"Duration":68493,"SoundDuration":68493,"Delta":902182429},{"NoteNumber":62,"Velocity":39,"Duration":68493,"SoundDuration":68493,"Delta":902182429},{"NoteNumber":58,"Velocity":33,"Duration":68493,"SoundDuration":68493,"Delta":902182429},{"NoteNumber":94,"Velocity":49,"Duration":77319,"SoundDuration":77319,"Delta":902319416},{"NoteNumber":89,"Velocity":39,"Duration":77319,"SoundDuration":77319,"Delta":902319416},{"NoteNumber":86,"Velocity":34,"Duration":77319,"SoundDuration":77319,"Delta":902319416},{"NoteNumber":58,"Velocity":30,"Duration":77319,"SoundDuration":77319,"Delta":902319416},{"NoteNumber":53,"Velocity":25,"Duration":77319,"SoundDuration":77319,"Delta":902319416},{"NoteNumber":98,"Velocity":63,"Duration":72815,"SoundDuration":72815,"Delta":902474055},{"NoteNumber":86,"Velocity":44,"Duration":72815,"SoundDuration":72815,"Delta":902474055},{"NoteNumber":46,"Velocity":45,"Duration":72815,"SoundDuration":72815,"Delta":902474055},{"NoteNumber":94,"Velocity":51,"Duration":72815,"SoundDuration":72815,"Delta":902619686},{"NoteNumber":89,"Velocity":39,"Duration":72815,"SoundDuration":72815,"Delta":902619686},{"NoteNumber":65,"Velocity":30,"Duration":72815,"SoundDuration":72815,"Delta":902619686},{"NoteNumber":62,"Velocity":25,"Duration":72815,"SoundDuration":72815,"Delta":902619686},{"NoteNumber":94,"Velocity":51,"Duration":326087,"SoundDuration":326087,"Delta":902765317},{"NoteNumber":82,"Velocity":44,"Duration":81521,"SoundDuration":81521,"Delta":902765317},{"NoteNumber":62,"Velocity":39,"Duration":81521,"SoundDuration":81521,"Delta":902765317},{"NoteNumber":58,"Velocity":33,"Duration":81521,"SoundDuration":81521,"Delta":902765317},{"NoteNumber":86,"Velocity":29,"Duration":81521,"SoundDuration":81521,"Delta":902928360},{"NoteNumber":89,"Velocity":39,"Duration":81521,"SoundDuration":81521,"Delta":902928360},{"NoteNumber":58,"Velocity":30,"Duration":81521,"SoundDuration":81521,"Delta":902928360},{"NoteNumber":53,"Velocity":25,"Duration":81521,"SoundDuration":81521,"Delta":902928360},{"NoteNumber":89,"Velocity":63,"Duration":306121,"SoundDuration":306121,"Delta":903091404},{"NoteNumber":77,"Velocity":44,"Duration":76530,"SoundDuration":76530,"Delta":903091404},{"NoteNumber":46,"Velocity":61,"Duration":76530,"SoundDuration":76530,"Delta":903091404},{"NoteNumber":82,"Velocity":34,"Duration":76530,"SoundDuration":76530,"Delta":903244465},{"NoteNumber":86,"Velocity":39,"Duration":76530,"SoundDuration":76530,"Delta":903244465},{"NoteNumber":65,"Velocity":30,"Duration":76530,"SoundDuration":76530,"Delta":903244465},{"NoteNumber":62,"Velocity":25,"Duration":76530,"SoundDuration":76530,"Delta":903244465},{"NoteNumber":89,"Velocity":49,"Duration":68807,"SoundDuration":68807,"Delta":903397526},{"NoteNumber":77,"Velocity":44,"Duration":68807,"SoundDuration":68807,"Delta":903397526},{"NoteNumber":62,"Velocity":39,"Duration":68807,"SoundDuration":68807,"Delta":903397526},{"NoteNumber":58,"Velocity":33,"Duration":68807,"SoundDuration":68807,"Delta":903397526},{"NoteNumber":89,"Velocity":49,"Duration":78533,"SoundDuration":78533,"Delta":903535140},{"NoteNumber":86,"Velocity":39,"Duration":78533,"SoundDuration":78533,"Delta":903535140},{"NoteNumber":82,"Velocity":34,"Duration":78533,"SoundDuration":78533,"Delta":903535140},{"NoteNumber":58,"Velocity":30,"Duration":78533,"SoundDuration":78533,"Delta":903535140},{"NoteNumber":53,"Velocity":25,"Duration":78533,"SoundDuration":78533,"Delta":903535140},{"NoteNumber":94,"Velocity":62,"Duration":72815,"SoundDuration":72815,"Delta":903692208},{"NoteNumber":82,"Velocity":44,"Duration":72815,"SoundDuration":72815,"Delta":903692208},{"NoteNumber":46,"Velocity":44,"Duration":72815,"SoundDuration":72815,"Delta":903692208},{"NoteNumber":89,"Velocity":51,"Duration":72815,"SoundDuration":72815,"Delta":903837839},{"NoteNumber":86,"Velocity":39,"Duration":72815,"SoundDuration":72815,"Delta":903837839},{"NoteNumber":65,"Velocity":30,"Duration":72815,"SoundDuration":72815,"Delta":903837839},{"NoteNumber":62,"Velocity":25,"Duration":72815,"SoundDuration":72815,"Delta":903837839},{"NoteNumber":89,"Velocity":51,"Duration":327868,"SoundDuration":327868,"Delta":903983470},{"NoteNumber":77,"Velocity":44,"Duration":81967,"SoundDuration":81967,"Delta":903983470},{"NoteNumber":62,"Velocity":39,"Duration":81967,"SoundDuration":81967,"Delta":903983470},{"NoteNumber":58,"Velocity":33,"Duration":81967,"SoundDuration":81967,"Delta":903983470},{"NoteNumber":82,"Velocity":29,"Duration":81967,"SoundDuration":81967,"Delta":904147405},{"NoteNumber":86,"Velocity":39,"Duration":81967,"SoundDuration":81967,"Delta":904147405},{"NoteNumber":58,"Velocity":30,"Duration":81967,"SoundDuration":81967,"Delta":904147405},{"NoteNumber":53,"Velocity":25,"Duration":81967,"SoundDuration":81967,"Delta":904147405},{"NoteNumber":86,"Velocity":63,"Duration":307691,"SoundDuration":307691,"Delta":904311339},{"NoteNumber":74,"Velocity":45,"Duration":76922,"SoundDuration":76922,"Delta":904311339},{"NoteNumber":46,"Velocity":60,"Duration":76922,"SoundDuration":76922,"Delta":904311339},{"NoteNumber":82,"Velocity":39,"Duration":76922,"SoundDuration":76922,"Delta":904465185},{"NoteNumber":77,"Velocity":35,"Duration":76922,"SoundDuration":76922,"Delta":904465185},{"NoteNumber":65,"Velocity":31,"Duration":76922,"SoundDuration":76922,"Delta":904465185},{"NoteNumber":62,"Velocity":26,"Duration":76922,"SoundDuration":76922,"Delta":904465185},{"NoteNumber":86,"Velocity":46,"Duration":68807,"SoundDuration":68807,"Delta":904619031},{"NoteNumber":74,"Velocity":45,"Duration":68807,"SoundDuration":68807,"Delta":904619031},{"NoteNumber":62,"Velocity":41,"Duration":68807,"SoundDuration":68807,"Delta":904619031},{"NoteNumber":58,"Velocity":34,"Duration":68807,"SoundDuration":68807,"Delta":904619031},{"NoteNumber":87,"Velocity":46,"Duration":74257,"SoundDuration":74257,"Delta":904756646},{"NoteNumber":75,"Velocity":41,"Duration":74257,"SoundDuration":74257,"Delta":904756646},{"NoteNumber":58,"Velocity":31,"Duration":74257,"SoundDuration":74257,"Delta":904756646},{"NoteNumber":53,"Velocity":26,"Duration":74257,"SoundDuration":74257,"Delta":904756646},{"NoteNumber":91,"Velocity":62,"Duration":301508,"SoundDuration":301508,"Delta":904905161},{"NoteNumber":79,"Velocity":45,"Duration":75377,"SoundDuration":75377,"Delta":904905161},{"NoteNumber":46,"Velocity":45,"Duration":75377,"SoundDuration":75377,"Delta":904905161},{"NoteNumber":82,"Velocity":30,"Duration":75377,"SoundDuration":75377,"Delta":905055915},{"NoteNumber":86,"Velocity":41,"Duration":75377,"SoundDuration":75377,"Delta":905055915},{"NoteNumber":65,"Velocity":31,"Duration":75377,"SoundDuration":75377,"Delta":905055915},{"NoteNumber":62,"Velocity":26,"Duration":75377,"SoundDuration":75377,"Delta":905055915},{"NoteNumber":89,"Velocity":51,"Duration":320856,"SoundDuration":320856,"Delta":905206669},{"NoteNumber":77,"Velocity":45,"Duration":80213,"SoundDuration":80213,"Delta":905206669},{"NoteNumber":62,"Velocity":41,"Duration":80213,"SoundDuration":80213,"Delta":905206669},{"NoteNumber":58,"Velocity":34,"Duration":80213,"SoundDuration":80213,"Delta":905206669},{"NoteNumber":82,"Velocity":30,"Duration":80213,"SoundDuration":80213,"Delta":905367097},{"NoteNumber":86,"Velocity":41,"Duration":80213,"SoundDuration":80213,"Delta":905367097},{"NoteNumber":58,"Velocity":31,"Duration":80213,"SoundDuration":80213,"Delta":905367097},{"NoteNumber":53,"Velocity":26,"Duration":80213,"SoundDuration":80213,"Delta":905367097},{"NoteNumber":89,"Velocity":63,"Duration":309277,"SoundDuration":309277,"Delta":905527525},{"NoteNumber":77,"Velocity":45,"Duration":77319,"SoundDuration":77319,"Delta":905527525},{"NoteNumber":41,"Velocity":76,"Duration":77319,"SoundDuration":77319,"Delta":905527525},{"NoteNumber":81,"Velocity":35,"Duration":77319,"SoundDuration":77319,"Delta":905682164},{"NoteNumber":84,"Velocity":41,"Duration":77319,"SoundDuration":77319,"Delta":905682164},{"NoteNumber":65,"Velocity":31,"Duration":77319,"SoundDuration":77319,"Delta":905682164},{"NoteNumber":63,"Velocity":26,"Duration":77319,"SoundDuration":77319,"Delta":905682164},{"NoteNumber":91,"Velocity":46,"Duration":73529,"SoundDuration":73529,"Delta":905836803},{"NoteNumber":79,"Velocity":45,"Duration":73529,"SoundDuration":73529,"Delta":905836803},{"NoteNumber":63,"Velocity":41,"Duration":73529,"SoundDuration":73529,"Delta":905836803},{"NoteNumber":60,"Velocity":34,"Duration":73529,"SoundDuration":73529,"Delta":905836803},{"NoteNumber":93,"Velocity":46,"Duration":78947,"SoundDuration":78947,"Delta":905983862},{"NoteNumber":81,"Velocity":41,"Duration":78947,"SoundDuration":78947,"Delta":905983862},{"NoteNumber":60,"Velocity":31,"Duration":78947,"SoundDuration":78947,"Delta":905983862},{"NoteNumber":53,"Velocity":26,"Duration":78947,"SoundDuration":78947,"Delta":905983862},{"NoteNumber":94,"Velocity":62,"Duration":75377,"SoundDuration":75377,"Delta":906141756},{"NoteNumber":82,"Velocity":45,"Duration":75377,"SoundDuration":75377,"Delta":906141756},{"NoteNumber":46,"Velocity":54,"Duration":75377,"SoundDuration":75377,"Delta":906141756},{"NoteNumber":70,"Velocity":30,"Duration":75377,"SoundDuration":75377,"Delta":906292510},{"NoteNumber":74,"Velocity":41,"Duration":75377,"SoundDuration":75377,"Delta":906292510},{"NoteNumber":65,"Velocity":31,"Duration":75377,"SoundDuration":75377,"Delta":906292510},{"NoteNumber":62,"Velocity":26,"Duration":75377,"SoundDuration":75377,"Delta":906292510},{"NoteNumber":74,"Velocity":30,"Duration":77720,"SoundDuration":77720,"Delta":906443264},{"NoteNumber":77,"Velocity":45,"Duration":77720,"SoundDuration":77720,"Delta":906443264},{"NoteNumber":62,"Velocity":41,"Duration":77720,"SoundDuration":77720,"Delta":906443264},{"NoteNumber":58,"Velocity":34,"Duration":77720,"SoundDuration":77720,"Delta":906443264},{"NoteNumber":77,"Velocity":30,"Duration":77319,"SoundDuration":77319,"Delta":906598304},{"NoteNumber":82,"Velocity":41,"Duration":77319,"SoundDuration":77319,"Delta":906598304},{"NoteNumber":58,"Velocity":31,"Duration":77319,"SoundDuration":77319,"Delta":906598304},{"NoteNumber":53,"Velocity":26,"Duration":77319,"SoundDuration":77319,"Delta":906598304},{"NoteNumber":86,"Velocity":88,"Duration":309277,"SoundDuration":309277,"Delta":906752943},{"NoteNumber":74,"Velocity":69,"Duration":309277,"SoundDuration":309277,"Delta":906752943},{"NoteNumber":77,"Velocity":69,"Duration":309277,"SoundDuration":309277,"Delta":906752943},{"NoteNumber":46,"Velocity":85,"Duration":77319,"SoundDuration":77319,"Delta":906752943},{"NoteNumber":53,"Velocity":39,"Duration":77319,"SoundDuration":77319,"Delta":906907582},{"NoteNumber":62,"Velocity":48,"Duration":77319,"SoundDuration":77319,"Delta":906907582},{"NoteNumber":58,"Velocity":39,"Duration":77319,"SoundDuration":77319,"Delta":906907582},{"NoteNumber":82,"Velocity":78,"Duration":68493,"SoundDuration":68493,"Delta":907062221},{"NoteNumber":70,"Velocity":69,"Duration":68493,"SoundDuration":68493,"Delta":907062221},{"NoteNumber":41,"Velocity":62,"Duration":68493,"SoundDuration":68493,"Delta":907062221},{"NoteNumber":77,"Velocity":78,"Duration":77319,"SoundDuration":77319,"Delta":907199207},{"NoteNumber":65,"Velocity":53,"Duration":77319,"SoundDuration":77319,"Delta":907199207},{"NoteNumber":50,"Velocity":39,"Duration":77319,"SoundDuration":77319,"Delta":907199207},{"NoteNumber":58,"Velocity":48,"Duration":77319,"SoundDuration":77319,"Delta":907199207},{"NoteNumber":53,"Velocity":39,"Duration":77319,"SoundDuration":77319,"Delta":907199207},{"NoteNumber":87,"Velocity":88,"Duration":291261,"SoundDuration":291261,"Delta":907353846},{"NoteNumber":75,"Velocity":69,"Duration":291261,"SoundDuration":291261,"Delta":907353846},{"NoteNumber":81,"Velocity":69,"Duration":291261,"SoundDuration":291261,"Delta":907353846},{"NoteNumber":48,"Velocity":66,"Duration":72815,"SoundDuration":72815,"Delta":907353846},{"NoteNumber":53,"Velocity":39,"Duration":72815,"SoundDuration":72815,"Delta":907499477},{"NoteNumber":63,"Velocity":48,"Duration":72815,"SoundDuration":72815,"Delta":907499477},{"NoteNumber":57,"Velocity":39,"Duration":72815,"SoundDuration":72815,"Delta":907499477},{"NoteNumber":81,"Velocity":71,"Duration":312500,"SoundDuration":312500,"Delta":907645108},{"NoteNumber":69,"Velocity":63,"Duration":312500,"SoundDuration":312500,"Delta":907645108},{"NoteNumber":41,"Velocity":62,"Duration":78125,"SoundDuration":78125,"Delta":907645108},{"NoteNumber":51,"Velocity":39,"Duration":78125,"SoundDuration":78125,"Delta":907801358},{"NoteNumber":57,"Velocity":48,"Duration":78125,"SoundDuration":78125,"Delta":907801358},{"NoteNumber":53,"Velocity":39,"Duration":78125,"SoundDuration":78125,"Delta":907801358},{"NoteNumber":86,"Velocity":88,"Duration":309277,"SoundDuration":309277,"Delta":907957608},{"NoteNumber":74,"Velocity":69,"Duration":309277,"SoundDuration":309277,"Delta":907957608},{"NoteNumber":77,"Velocity":69,"Duration":309277,"SoundDuration":309277,"Delta":907957608},{"NoteNumber":46,"Velocity":85,"Duration":77319,"SoundDuration":77319,"Delta":907957608},{"NoteNumber":53,"Velocity":39,"Duration":77319,"SoundDuration":77319,"Delta":908112247},{"NoteNumber":62,"Velocity":48,"Duration":77319,"SoundDuration":77319,"Delta":908112247},{"NoteNumber":58,"Velocity":39,"Duration":77319,"SoundDuration":77319,"Delta":908112247},{"NoteNumber":82,"Velocity":78,"Duration":70093,"SoundDuration":70093,"Delta":908266886},{"NoteNumber":70,"Velocity":69,"Duration":70093,"SoundDuration":70093,"Delta":908266886},{"NoteNumber":41,"Velocity":62,"Duration":70093,"SoundDuration":70093,"Delta":908266886},{"NoteNumber":77,"Velocity":78,"Duration":75000,"SoundDuration":75000,"Delta":908407073},{"NoteNumber":65,"Velocity":53,"Duration":75000,"SoundDuration":75000,"Delta":908407073},{"NoteNumber":50,"Velocity":39,"Duration":75000,"SoundDuration":75000,"Delta":908407073},{"NoteNumber":58,"Velocity":48,"Duration":75000,"SoundDuration":75000,"Delta":908407073},{"NoteNumber":53,"Velocity":39,"Duration":75000,"SoundDuration":75000,"Delta":908407073},{"NoteNumber":87,"Velocity":88,"Duration":291261,"SoundDuration":291261,"Delta":908557073},{"NoteNumber":75,"Velocity":69,"Duration":291261,"SoundDuration":291261,"Delta":908557073},{"NoteNumber":81,"Velocity":69,"Duration":291261,"SoundDuration":291261,"Delta":908557073},{"NoteNumber":48,"Velocity":66,"Duration":72815,"SoundDuration":72815,"Delta":908557073},{"NoteNumber":53,"Velocity":39,"Duration":72815,"SoundDuration":72815,"Delta":908702704},{"NoteNumber":63,"Velocity":48,"Duration":72815,"SoundDuration":72815,"Delta":908702704},{"NoteNumber":57,"Velocity":39,"Duration":72815,"SoundDuration":72815,"Delta":908702704},{"NoteNumber":81,"Velocity":71,"Duration":312500,"SoundDuration":312500,"Delta":908848335},{"NoteNumber":69,"Velocity":63,"Duration":312500,"SoundDuration":312500,"Delta":908848335},{"NoteNumber":41,"Velocity":62,"Duration":78125,"SoundDuration":78125,"Delta":908848335},{"NoteNumber":51,"Velocity":39,"Duration":78125,"SoundDuration":78125,"Delta":909004585},{"NoteNumber":57,"Velocity":48,"Duration":78125,"SoundDuration":78125,"Delta":909004585},{"NoteNumber":53,"Velocity":39,"Duration":78125,"SoundDuration":78125,"Delta":909004585},{"NoteNumber":86,"Velocity":88,"Duration":309277,"SoundDuration":309277,"Delta":909160835},{"NoteNumber":74,"Velocity":69,"Duration":309277,"SoundDuration":309277,"Delta":909160835},{"NoteNumber":77,"Velocity":69,"Duration":309277,"SoundDuration":309277,"Delta":909160835},{"NoteNumber":46,"Velocity":85,"Duration":77319,"SoundDuration":77319,"Delta":909160835},{"NoteNumber":53,"Velocity":39,"Duration":77319,"SoundDuration":77319,"Delta":909315474},{"NoteNumber":62,"Velocity":48,"Duration":77319,"SoundDuration":77319,"Delta":909315474},{"NoteNumber":58,"Velocity":39,"Duration":77319,"SoundDuration":77319,"Delta":909315474},{"NoteNumber":82,"Velocity":78,"Duration":70093,"SoundDuration":70093,"Delta":909470113},{"NoteNumber":70,"Velocity":69,"Duration":70093,"SoundDuration":70093,"Delta":909470113},{"NoteNumber":41,"Velocity":62,"Duration":70093,"SoundDuration":70093,"Delta":909470113},{"NoteNumber":77,"Velocity":78,"Duration":75000,"SoundDuration":75000,"Delta":909610300},{"NoteNumber":65,"Velocity":53,"Duration":75000,"SoundDuration":75000,"Delta":909610300},{"NoteNumber":50,"Velocity":39,"Duration":75000,"SoundDuration":75000,"Delta":909610300},{"NoteNumber":58,"Velocity":48,"Duration":75000,"SoundDuration":75000,"Delta":909610300},{"NoteNumber":53,"Velocity":39,"Duration":75000,"SoundDuration":75000,"Delta":909610300},{"NoteNumber":87,"Velocity":88,"Duration":291261,"SoundDuration":291261,"Delta":909760300},{"NoteNumber":75,"Velocity":69,"Duration":291261,"SoundDuration":291261,"Delta":909760300},{"NoteNumber":81,"Velocity":69,"Duration":291261,"SoundDuration":291261,"Delta":909760300},{"NoteNumber":48,"Velocity":66,"Duration":72815,"SoundDuration":72815,"Delta":909760300},{"NoteNumber":53,"Velocity":39,"Duration":72815,"SoundDuration":72815,"Delta":909905931},{"NoteNumber":63,"Velocity":48,"Duration":72815,"SoundDuration":72815,"Delta":909905931},{"NoteNumber":57,"Velocity":39,"Duration":72815,"SoundDuration":72815,"Delta":909905931},{"NoteNumber":81,"Velocity":71,"Duration":312500,"SoundDuration":312500,"Delta":910051562},{"NoteNumber":69,"Velocity":63,"Duration":312500,"SoundDuration":312500,"Delta":910051562},{"NoteNumber":41,"Velocity":62,"Duration":78125,"SoundDuration":78125,"Delta":910051562},{"NoteNumber":51,"Velocity":39,"Duration":78125,"SoundDuration":78125,"Delta":910207812},{"NoteNumber":57,"Velocity":48,"Duration":78125,"SoundDuration":78125,"Delta":910207812},{"NoteNumber":53,"Velocity":39,"Duration":78125,"SoundDuration":78125,"Delta":910207812},{"NoteNumber":86,"Velocity":88,"Duration":309277,"SoundDuration":309277,"Delta":910364062},{"NoteNumber":74,"Velocity":69,"Duration":309277,"SoundDuration":309277,"Delta":910364062},{"NoteNumber":77,"Velocity":69,"Duration":309277,"SoundDuration":309277,"Delta":910364062},{"NoteNumber":46,"Velocity":85,"Duration":77319,"SoundDuration":77319,"Delta":910364062},{"NoteNumber":53,"Velocity":39,"Duration":77319,"SoundDuration":77319,"Delta":910518701},{"NoteNumber":62,"Velocity":48,"Duration":77319,"SoundDuration":77319,"Delta":910518701},{"NoteNumber":58,"Velocity":39,"Duration":77319,"SoundDuration":77319,"Delta":910518701},{"NoteNumber":82,"Velocity":78,"Duration":70093,"SoundDuration":70093,"Delta":910673340},{"NoteNumber":70,"Velocity":69,"Duration":70093,"SoundDuration":70093,"Delta":910673340},{"NoteNumber":41,"Velocity":62,"Duration":70093,"SoundDuration":70093,"Delta":910673340},{"NoteNumber":77,"Velocity":78,"Duration":75000,"SoundDuration":75000,"Delta":910813527},{"NoteNumber":65,"Velocity":53,"Duration":75000,"SoundDuration":75000,"Delta":910813527},{"NoteNumber":50,"Velocity":39,"Duration":75000,"SoundDuration":75000,"Delta":910813527},{"NoteNumber":58,"Velocity":48,"Duration":75000,"SoundDuration":75000,"Delta":910813527},{"NoteNumber":53,"Velocity":39,"Duration":75000,"SoundDuration":75000,"Delta":910813527},{"NoteNumber":87,"Velocity":88,"Duration":291261,"SoundDuration":291261,"Delta":910963527},{"NoteNumber":75,"Velocity":69,"Duration":291261,"SoundDuration":291261,"Delta":910963527},{"NoteNumber":81,"Velocity":69,"Duration":291261,"SoundDuration":291261,"Delta":910963527},{"NoteNumber":48,"Velocity":56,"Duration":291261,"SoundDuration":291261,"Delta":910963527},{"NoteNumber":53,"Velocity":56,"Duration":291261,"SoundDuration":291261,"Delta":910963527},{"NoteNumber":57,"Velocity":56,"Duration":291261,"SoundDuration":291261,"Delta":910963527},{"NoteNumber":63,"Velocity":66,"Duration":291261,"SoundDuration":291261,"Delta":910963527},{"NoteNumber":63,"Velocity":40,"Duration":145631,"SoundDuration":145631,"Delta":911254789},{"NoteNumber":51,"Velocity":28,"Duration":145631,"SoundDuration":145631,"Delta":911254789},{"NoteNumber":57,"Velocity":28,"Duration":145631,"SoundDuration":145631,"Delta":911254789},{"NoteNumber":41,"Velocity":53,"Duration":291262,"SoundDuration":291262,"Delta":911254789},{"NoteNumber":29,"Velocity":45,"Duration":291262,"SoundDuration":291262,"Delta":911254789},{"NoteNumber":63,"Velocity":51,"Duration":286205,"SoundDuration":286205,"Delta":911400420},{"NoteNumber":51,"Velocity":43,"Duration":286205,"SoundDuration":286205,"Delta":911400420},{"NoteNumber":57,"Velocity":43,"Duration":286205,"SoundDuration":286205,"Delta":911400420},{"NoteNumber":42,"Velocity":43,"Duration":280930,"SoundDuration":280930,"Delta":911546051},{"NoteNumber":30,"Velocity":36,"Duration":280930,"SoundDuration":280930,"Delta":911546051},{"NoteNumber":63,"Velocity":41,"Duration":281201,"SoundDuration":281201,"Delta":911686626},{"NoteNumber":51,"Velocity":34,"Duration":281201,"SoundDuration":281201,"Delta":911686626},{"NoteNumber":58,"Velocity":34,"Duration":281201,"SoundDuration":281201,"Delta":911686626},{"NoteNumber":43,"Velocity":46,"Duration":281690,"SoundDuration":281690,"Delta":911826982},{"NoteNumber":31,"Velocity":39,"Duration":281690,"SoundDuration":281690,"Delta":911826982},{"NoteNumber":63,"Velocity":42,"Duration":281689,"SoundDuration":281689,"Delta":911967827},{"NoteNumber":51,"Velocity":35,"Duration":281689,"SoundDuration":281689,"Delta":911967827},{"NoteNumber":59,"Velocity":35,"Duration":281689,"SoundDuration":281689,"Delta":911967827},{"NoteNumber":44,"Velocity":49,"Duration":279714,"SoundDuration":279714,"Delta":912108672},{"NoteNumber":32,"Velocity":41,"Duration":279714,"SoundDuration":279714,"Delta":912108672},{"NoteNumber":63,"Velocity":44,"Duration":285154,"SoundDuration":285154,"Delta":912249517},{"NoteNumber":51,"Velocity":37,"Duration":285154,"SoundDuration":285154,"Delta":912249517},{"NoteNumber":60,"Velocity":37,"Duration":285154,"SoundDuration":285154,"Delta":912249517},{"NoteNumber":44,"Velocity":53,"Duration":281365,"SoundDuration":281365,"Delta":912394484},{"NoteNumber":32,"Velocity":38,"Duration":281365,"SoundDuration":281365,"Delta":912394484},{"NoteNumber":66,"Velocity":52,"Duration":280713,"SoundDuration":280713,"Delta":912534671},{"NoteNumber":54,"Velocity":44,"Duration":280713,"SoundDuration":280713,"Delta":912534671},{"NoteNumber":60,"Velocity":44,"Duration":280713,"SoundDuration":280713,"Delta":912534671},{"NoteNumber":45,"Velocity":42,"Duration":279070,"SoundDuration":279070,"Delta":912675850},{"NoteNumber":33,"Velocity":35,"Duration":279070,"SoundDuration":279070,"Delta":912675850},{"NoteNumber":66,"Velocity":41,"Duration":279069,"SoundDuration":279069,"Delta":912815385},{"NoteNumber":54,"Velocity":34,"Duration":279069,"SoundDuration":279069,"Delta":912815385},{"NoteNumber":61,"Velocity":34,"Duration":279069,"SoundDuration":279069,"Delta":912815385},{"NoteNumber":46,"Velocity":45,"Duration":279069,"SoundDuration":279069,"Delta":912954920},{"NoteNumber":34,"Velocity":38,"Duration":279069,"SoundDuration":279069,"Delta":912954920},{"NoteNumber":66,"Velocity":42,"Duration":279070,"SoundDuration":279070,"Delta":913094455},{"NoteNumber":54,"Velocity":35,"Duration":279070,"SoundDuration":279070,"Delta":913094455},{"NoteNumber":62,"Velocity":35,"Duration":279070,"SoundDuration":279070,"Delta":913094455},{"NoteNumber":47,"Velocity":49,"Duration":283641,"SoundDuration":283641,"Delta":913233990},{"NoteNumber":35,"Velocity":41,"Duration":283641,"SoundDuration":283641,"Delta":913233990},{"NoteNumber":66,"Velocity":43,"Duration":283254,"SoundDuration":283254,"Delta":913373525},{"NoteNumber":63,"Velocity":36,"Duration":283254,"SoundDuration":283254,"Delta":913373525},{"NoteNumber":54,"Velocity":36,"Duration":283254,"SoundDuration":283254,"Delta":913373525},{"NoteNumber":47,"Velocity":54,"Duration":277080,"SoundDuration":277080,"Delta":913517632},{"NoteNumber":35,"Velocity":45,"Duration":277080,"SoundDuration":277080,"Delta":913517632},{"NoteNumber":69,"Velocity":52,"Duration":276662,"SoundDuration":276662,"Delta":913656780},{"NoteNumber":57,"Velocity":44,"Duration":276662,"SoundDuration":276662,"Delta":913656780},{"NoteNumber":63,"Velocity":44,"Duration":276662,"SoundDuration":276662,"Delta":913656780},{"NoteNumber":48,"Velocity":41,"Duration":277618,"SoundDuration":277618,"Delta":913794713},{"NoteNumber":36,"Velocity":34,"Duration":277618,"SoundDuration":277618,"Delta":913794713},{"NoteNumber":69,"Velocity":40,"Duration":277778,"SoundDuration":277778,"Delta":913933442},{"NoteNumber":57,"Velocity":34,"Duration":277778,"SoundDuration":277778,"Delta":913933442},{"NoteNumber":64,"Velocity":34,"Duration":277778,"SoundDuration":277778,"Delta":913933442},{"NoteNumber":49,"Velocity":44,"Duration":277777,"SoundDuration":277777,"Delta":914072331},{"NoteNumber":37,"Velocity":37,"Duration":277777,"SoundDuration":277777,"Delta":914072331},{"NoteNumber":69,"Velocity":41,"Duration":277778,"SoundDuration":277778,"Delta":914211220},{"NoteNumber":57,"Velocity":34,"Duration":277778,"SoundDuration":277778,"Delta":914211220},{"NoteNumber":65,"Velocity":34,"Duration":277778,"SoundDuration":277778,"Delta":914211220},{"NoteNumber":50,"Velocity":47,"Duration":277777,"SoundDuration":277777,"Delta":914350109},{"NoteNumber":38,"Velocity":39,"Duration":277777,"SoundDuration":277777,"Delta":914350109},{"NoteNumber":69,"Velocity":43,"Duration":285326,"SoundDuration":285326,"Delta":914488998},{"NoteNumber":57,"Velocity":36,"Duration":285326,"SoundDuration":285326,"Delta":914488998},{"NoteNumber":66,"Velocity":36,"Duration":285326,"SoundDuration":285326,"Delta":914488998},{"NoteNumber":50,"Velocity":55,"Duration":279287,"SoundDuration":279287,"Delta":914633926},{"NoteNumber":38,"Velocity":46,"Duration":279287,"SoundDuration":279287,"Delta":914633926},{"NoteNumber":72,"Velocity":52,"Duration":277778,"SoundDuration":277778,"Delta":914774324},{"NoteNumber":66,"Velocity":52,"Duration":277778,"SoundDuration":277778,"Delta":914774324},{"NoteNumber":60,"Velocity":44,"Duration":277778,"SoundDuration":277778,"Delta":914774324},{"NoteNumber":51,"Velocity":40,"Duration":277777,"SoundDuration":277777,"Delta":914913213},{"NoteNumber":39,"Velocity":34,"Duration":277777,"SoundDuration":277777,"Delta":914913213},{"NoteNumber":72,"Velocity":41,"Duration":277778,"SoundDuration":277778,"Delta":915052102},{"NoteNumber":67,"Velocity":41,"Duration":277778,"SoundDuration":277778,"Delta":915052102},{"NoteNumber":60,"Velocity":34,"Duration":277778,"SoundDuration":277778,"Delta":915052102},{"NoteNumber":52,"Velocity":44,"Duration":277778,"SoundDuration":277778,"Delta":915190991},{"NoteNumber":40,"Velocity":37,"Duration":277778,"SoundDuration":277778,"Delta":915190991},{"NoteNumber":72,"Velocity":43,"Duration":138888,"SoundDuration":138888,"Delta":915329880},{"NoteNumber":60,"Velocity":36,"Duration":138888,"SoundDuration":138888,"Delta":915329880},{"NoteNumber":68,"Velocity":36,"Duration":138888,"SoundDuration":138888,"Delta":915329880},{"NoteNumber":72,"Velocity":51,"Duration":193236,"SoundDuration":193236,"Delta":915468769},{"NoteNumber":60,"Velocity":44,"Duration":193236,"SoundDuration":193236,"Delta":915468769},{"NoteNumber":69,"Velocity":43,"Duration":193236,"SoundDuration":193236,"Delta":915468769},{"NoteNumber":53,"Velocity":53,"Duration":193236,"SoundDuration":193236,"Delta":915468769},{"NoteNumber":41,"Velocity":52,"Duration":193236,"SoundDuration":193236,"Delta":915468769},{"NoteNumber":75,"Velocity":48,"Duration":93458,"SoundDuration":93458,"Delta":915662006},{"NoteNumber":63,"Velocity":40,"Duration":93458,"SoundDuration":93458,"Delta":915662006},{"NoteNumber":69,"Velocity":40,"Duration":93458,"SoundDuration":93458,"Delta":915662006},{"NoteNumber":53,"Velocity":41,"Duration":93458,"SoundDuration":93458,"Delta":915662006},{"NoteNumber":41,"Velocity":41,"Duration":93458,"SoundDuration":93458,"Delta":915662006},{"NoteNumber":75,"Velocity":47,"Duration":93458,"SoundDuration":93458,"Delta":915848922},{"NoteNumber":63,"Velocity":39,"Duration":93458,"SoundDuration":93458,"Delta":915848922},{"NoteNumber":70,"Velocity":39,"Duration":93458,"SoundDuration":93458,"Delta":915848922},{"NoteNumber":42,"Velocity":38,"Duration":93458,"SoundDuration":93458,"Delta":915848922},{"NoteNumber":54,"Velocity":38,"Duration":93458,"SoundDuration":93458,"Delta":915848922},{"NoteNumber":75,"Velocity":56,"Duration":93458,"SoundDuration":93458,"Delta":916035838},{"NoteNumber":63,"Velocity":47,"Duration":93458,"SoundDuration":93458,"Delta":916035838},{"NoteNumber":71,"Velocity":47,"Duration":93458,"SoundDuration":93458,"Delta":916035838},{"NoteNumber":43,"Velocity":38,"Duration":93458,"SoundDuration":93458,"Delta":916035838},{"NoteNumber":55,"Velocity":38,"Duration":93458,"SoundDuration":93458,"Delta":916035838},{"NoteNumber":78,"Velocity":51,"Duration":93458,"SoundDuration":93458,"Delta":916222754},{"NoteNumber":66,"Velocity":42,"Duration":93458,"SoundDuration":93458,"Delta":916222754},{"NoteNumber":72,"Velocity":42,"Duration":93458,"SoundDuration":93458,"Delta":916222754},{"NoteNumber":56,"Velocity":41,"Duration":93458,"SoundDuration":93458,"Delta":916222754},{"NoteNumber":44,"Velocity":35,"Duration":93458,"SoundDuration":93458,"Delta":916222754},{"NoteNumber":78,"Velocity":51,"Duration":93458,"SoundDuration":93458,"Delta":916409670},{"NoteNumber":66,"Velocity":42,"Duration":93458,"SoundDuration":93458,"Delta":916409670},{"NoteNumber":73,"Velocity":42,"Duration":93458,"SoundDuration":93458,"Delta":916409670},{"NoteNumber":57,"Velocity":41,"Duration":93458,"SoundDuration":93458,"Delta":916409670},{"NoteNumber":45,"Velocity":35,"Duration":93458,"SoundDuration":93458,"Delta":916409670},{"NoteNumber":78,"Velocity":60,"Duration":96618,"SoundDuration":96618,"Delta":916596586},{"NoteNumber":66,"Velocity":50,"Duration":96618,"SoundDuration":96618,"Delta":916596586},{"NoteNumber":74,"Velocity":50,"Duration":96618,"SoundDuration":96618,"Delta":916596586},{"NoteNumber":58,"Velocity":49,"Duration":96618,"SoundDuration":96618,"Delta":916596586},{"NoteNumber":46,"Velocity":41,"Duration":96618,"SoundDuration":96618,"Delta":916596586},{"NoteNumber":81,"Velocity":56,"Duration":93023,"SoundDuration":93023,"Delta":916789823},{"NoteNumber":69,"Velocity":47,"Duration":93023,"SoundDuration":93023,"Delta":916789823},{"NoteNumber":75,"Velocity":47,"Duration":93023,"SoundDuration":93023,"Delta":916789823},{"NoteNumber":59,"Velocity":46,"Duration":93023,"SoundDuration":93023,"Delta":916789823},{"NoteNumber":47,"Velocity":38,"Duration":93023,"SoundDuration":93023,"Delta":916789823},{"NoteNumber":81,"Velocity":56,"Duration":93023,"SoundDuration":93023,"Delta":916975869},{"NoteNumber":69,"Velocity":47,"Duration":93023,"SoundDuration":93023,"Delta":916975869},{"NoteNumber":76,"Velocity":47,"Duration":93023,"SoundDuration":93023,"Delta":916975869},{"NoteNumber":60,"Velocity":46,"Duration":93023,"SoundDuration":93023,"Delta":916975869},{"NoteNumber":48,"Velocity":38,"Duration":93023,"SoundDuration":93023,"Delta":916975869},{"NoteNumber":81,"Velocity":66,"Duration":93023,"SoundDuration":93023,"Delta":917161916},{"NoteNumber":69,"Velocity":56,"Duration":93023,"SoundDuration":93023,"Delta":917161916},{"NoteNumber":77,"Velocity":56,"Duration":93023,"SoundDuration":93023,"Delta":917161916},{"NoteNumber":61,"Velocity":53,"Duration":93023,"SoundDuration":93023,"Delta":917161916},{"NoteNumber":49,"Velocity":45,"Duration":93023,"SoundDuration":93023,"Delta":917161916},{"NoteNumber":84,"Velocity":60,"Duration":93023,"SoundDuration":93023,"Delta":917347963},{"NoteNumber":72,"Velocity":50,"Duration":93023,"SoundDuration":93023,"Delta":917347963},{"NoteNumber":78,"Velocity":50,"Duration":93023,"SoundDuration":93023,"Delta":917347963},{"NoteNumber":62,"Velocity":46,"Duration":93023,"SoundDuration":93023,"Delta":917347963},{"NoteNumber":50,"Velocity":38,"Duration":93023,"SoundDuration":93023,"Delta":917347963},{"NoteNumber":84,"Velocity":60,"Duration":99010,"SoundDuration":99010,"Delta":917534009},{"NoteNumber":72,"Velocity":50,"Duration":99010,"SoundDuration":99010,"Delta":917534009},{"NoteNumber":79,"Velocity":50,"Duration":99010,"SoundDuration":99010,"Delta":917534009},{"NoteNumber":63,"Velocity":46,"Duration":99010,"SoundDuration":99010,"Delta":917534009},{"NoteNumber":51,"Velocity":38,"Duration":99010,"SoundDuration":99010,"Delta":917534009},{"NoteNumber":84,"Velocity":70,"Duration":108695,"SoundDuration":108695,"Delta":917732029},{"NoteNumber":72,"Velocity":59,"Duration":108695,"SoundDuration":108695,"Delta":917732029},{"NoteNumber":80,"Velocity":59,"Duration":108695,"SoundDuration":108695,"Delta":917732029},{"NoteNumber":64,"Velocity":61,"Duration":108695,"SoundDuration":108695,"Delta":917732029},{"NoteNumber":52,"Velocity":51,"Duration":108695,"SoundDuration":108695,"Delta":917732029},{"NoteNumber":87,"Velocity":63,"Duration":105140,"SoundDuration":105140,"Delta":917876957},{"NoteNumber":81,"Velocity":53,"Duration":105140,"SoundDuration":105140,"Delta":917876957},{"NoteNumber":75,"Velocity":53,"Duration":105140,"SoundDuration":105140,"Delta":917876957},{"NoteNumber":65,"Velocity":55,"Duration":105140,"SoundDuration":105140,"Delta":917876957},{"NoteNumber":53,"Velocity":46,"Duration":105140,"SoundDuration":105140,"Delta":917876957},{"NoteNumber":87,"Velocity":63,"Duration":105140,"SoundDuration":105140,"Delta":918017144},{"NoteNumber":82,"Velocity":53,"Duration":105140,"SoundDuration":105140,"Delta":918017144},{"NoteNumber":75,"Velocity":53,"Duration":105140,"SoundDuration":105140,"Delta":918017144},{"NoteNumber":66,"Velocity":55,"Duration":105140,"SoundDuration":105140,"Delta":918017144},{"NoteNumber":54,"Velocity":46,"Duration":105140,"SoundDuration":105140,"Delta":918017144},{"NoteNumber":87,"Velocity":63,"Duration":105140,"SoundDuration":105140,"Delta":918157331},{"NoteNumber":83,"Velocity":53,"Duration":105140,"SoundDuration":105140,"Delta":918157331},{"NoteNumber":75,"Velocity":53,"Duration":105140,"SoundDuration":105140,"Delta":918157331},{"NoteNumber":67,"Velocity":55,"Duration":105140,"SoundDuration":105140,"Delta":918157331},{"NoteNumber":55,"Velocity":46,"Duration":105140,"SoundDuration":105140,"Delta":918157331},{"NoteNumber":87,"Velocity":73,"Duration":108695,"SoundDuration":108695,"Delta":918297518},{"NoteNumber":75,"Velocity":61,"Duration":108695,"SoundDuration":108695,"Delta":918297518},{"NoteNumber":84,"Velocity":61,"Duration":108695,"SoundDuration":108695,"Delta":918297518},{"NoteNumber":68,"Velocity":62,"Duration":108695,"SoundDuration":108695,"Delta":918297518},{"NoteNumber":56,"Velocity":52,"Duration":108695,"SoundDuration":108695,"Delta":918297518},{"NoteNumber":90,"Velocity":64,"Duration":105140,"SoundDuration":105140,"Delta":918442445},{"NoteNumber":78,"Velocity":55,"Duration":105140,"SoundDuration":105140,"Delta":918442445},{"NoteNumber":84,"Velocity":55,"Duration":105140,"SoundDuration":105140,"Delta":918442445},{"NoteNumber":68,"Velocity":55,"Duration":105140,"SoundDuration":105140,"Delta":918442445},{"NoteNumber":56,"Velocity":46,"Duration":105140,"SoundDuration":105140,"Delta":918442445},{"NoteNumber":90,"Velocity":64,"Duration":105140,"SoundDuration":105140,"Delta":918582632},{"NoteNumber":78,"Velocity":55,"Duration":105140,"SoundDuration":105140,"Delta":918582632},{"NoteNumber":85,"Velocity":55,"Duration":105140,"SoundDuration":105140,"Delta":918582632},{"NoteNumber":69,"Velocity":55,"Duration":105140,"SoundDuration":105140,"Delta":918582632},{"NoteNumber":57,"Velocity":46,"Duration":105140,"SoundDuration":105140,"Delta":918582632},{"NoteNumber":90,"Velocity":64,"Duration":105140,"SoundDuration":105140,"Delta":918722819},{"NoteNumber":78,"Velocity":55,"Duration":105140,"SoundDuration":105140,"Delta":918722819},{"NoteNumber":86,"Velocity":55,"Duration":105140,"SoundDuration":105140,"Delta":918722819},{"NoteNumber":70,"Velocity":55,"Duration":105140,"SoundDuration":105140,"Delta":918722819},{"NoteNumber":58,"Velocity":46,"Duration":105140,"SoundDuration":105140,"Delta":918722819},{"NoteNumber":90,"Velocity":77,"Duration":105140,"SoundDuration":105140,"Delta":918863006},{"NoteNumber":78,"Velocity":64,"Duration":105140,"SoundDuration":105140,"Delta":918863006},{"NoteNumber":87,"Velocity":64,"Duration":105140,"SoundDuration":105140,"Delta":918863006},{"NoteNumber":71,"Velocity":63,"Duration":105140,"SoundDuration":105140,"Delta":918863006},{"NoteNumber":59,"Velocity":53,"Duration":105140,"SoundDuration":105140,"Delta":918863006},{"NoteNumber":93,"Velocity":69,"Duration":105140,"SoundDuration":105140,"Delta":919003193},{"NoteNumber":81,"Velocity":58,"Duration":105140,"SoundDuration":105140,"Delta":919003193},{"NoteNumber":87,"Velocity":58,"Duration":105140,"SoundDuration":105140,"Delta":919003193},{"NoteNumber":71,"Velocity":56,"Duration":105140,"SoundDuration":105140,"Delta":919003193},{"NoteNumber":59,"Velocity":47,"Duration":105140,"SoundDuration":105140,"Delta":919003193},{"NoteNumber":93,"Velocity":69,"Duration":105140,"SoundDuration":105140,"Delta":919143380},{"NoteNumber":81,"Velocity":58,"Duration":105140,"SoundDuration":105140,"Delta":919143380},{"NoteNumber":88,"Velocity":58,"Duration":105140,"SoundDuration":105140,"Delta":919143380},{"NoteNumber":72,"Velocity":56,"Duration":105140,"SoundDuration":105140,"Delta":919143380},{"NoteNumber":60,"Velocity":47,"Duration":105140,"SoundDuration":105140,"Delta":919143380},{"NoteNumber":93,"Velocity":69,"Duration":105140,"SoundDuration":105140,"Delta":919283567},{"NoteNumber":81,"Velocity":58,"Duration":105140,"SoundDuration":105140,"Delta":919283567},{"NoteNumber":89,"Velocity":58,"Duration":105140,"SoundDuration":105140,"Delta":919283567},{"NoteNumber":73,"Velocity":56,"Duration":105140,"SoundDuration":105140,"Delta":919283567},{"NoteNumber":61,"Velocity":47,"Duration":105140,"SoundDuration":105140,"Delta":919283567},{"NoteNumber":81,"Velocity":68,"Duration":105140,"SoundDuration":105140,"Delta":919423754},{"NoteNumber":90,"Velocity":68,"Duration":105140,"SoundDuration":105140,"Delta":919423754},{"NoteNumber":93,"Velocity":68,"Duration":105140,"SoundDuration":105140,"Delta":919423754},{"NoteNumber":74,"Velocity":66,"Duration":105140,"SoundDuration":105140,"Delta":919423754},{"NoteNumber":62,"Velocity":56,"Duration":105140,"SoundDuration":105140,"Delta":919423754},{"NoteNumber":96,"Velocity":71,"Duration":105140,"SoundDuration":105140,"Delta":919563941},{"NoteNumber":84,"Velocity":60,"Duration":105140,"SoundDuration":105140,"Delta":919563941},{"NoteNumber":90,"Velocity":60,"Duration":105140,"SoundDuration":105140,"Delta":919563941},{"NoteNumber":74,"Velocity":56,"Duration":105140,"SoundDuration":105140,"Delta":919563941},{"NoteNumber":62,"Velocity":47,"Duration":105140,"SoundDuration":105140,"Delta":919563941},{"NoteNumber":96,"Velocity":71,"Duration":105140,"SoundDuration":105140,"Delta":919704128},{"NoteNumber":84,"Velocity":60,"Duration":105140,"SoundDuration":105140,"Delta":919704128},{"NoteNumber":91,"Velocity":60,"Duration":105140,"SoundDuration":105140,"Delta":919704128},{"NoteNumber":75,"Velocity":56,"Duration":105140,"SoundDuration":105140,"Delta":919704128},{"NoteNumber":63,"Velocity":47,"Duration":105140,"SoundDuration":105140,"Delta":919704128},{"NoteNumber":96,"Velocity":71,"Duration":105140,"SoundDuration":105140,"Delta":919844315},{"NoteNumber":84,"Velocity":60,"Duration":105140,"SoundDuration":105140,"Delta":919844315},{"NoteNumber":92,"Velocity":60,"Duration":105140,"SoundDuration":105140,"Delta":919844315},{"NoteNumber":76,"Velocity":56,"Duration":105140,"SoundDuration":105140,"Delta":919844315},{"NoteNumber":64,"Velocity":47,"Duration":105140,"SoundDuration":105140,"Delta":919844315},{"NoteNumber":96,"Velocity":81,"Duration":108695,"SoundDuration":108695,"Delta":919984502},{"NoteNumber":84,"Velocity":68,"Duration":108695,"SoundDuration":108695,"Delta":919984502},{"NoteNumber":93,"Velocity":68,"Duration":108695,"SoundDuration":108695,"Delta":919984502},{"NoteNumber":77,"Velocity":74,"Duration":108695,"SoundDuration":108695,"Delta":919984502},{"NoteNumber":65,"Velocity":62,"Duration":108695,"SoundDuration":108695,"Delta":919984502},{"NoteNumber":99,"Velocity":80,"Duration":104166,"SoundDuration":104166,"Delta":920129430},{"NoteNumber":93,"Velocity":68,"Duration":104166,"SoundDuration":104166,"Delta":920129430},{"NoteNumber":87,"Velocity":68,"Duration":104166,"SoundDuration":104166,"Delta":920129430},{"NoteNumber":77,"Velocity":64,"Duration":104166,"SoundDuration":104166,"Delta":920129430},{"NoteNumber":69,"Velocity":55,"Duration":104166,"SoundDuration":104166,"Delta":920129430},{"NoteNumber":65,"Velocity":55,"Duration":104166,"SoundDuration":104166,"Delta":920129430},{"NoteNumber":99,"Velocity":84,"Duration":104166,"SoundDuration":104166,"Delta":920268319},{"NoteNumber":94,"Velocity":71,"Duration":104166,"SoundDuration":104166,"Delta":920268319},{"NoteNumber":87,"Velocity":71,"Duration":104166,"SoundDuration":104166,"Delta":920268319},{"NoteNumber":77,"Velocity":68,"Duration":104166,"SoundDuration":104166,"Delta":920268319},{"NoteNumber":70,"Velocity":57,"Duration":104166,"SoundDuration":104166,"Delta":920268319},{"NoteNumber":66,"Velocity":57,"Duration":104166,"SoundDuration":104166,"Delta":920268319},{"NoteNumber":95,"Velocity":89,"Duration":104166,"SoundDuration":104166,"Delta":920407208},{"NoteNumber":99,"Velocity":89,"Duration":104166,"SoundDuration":104166,"Delta":920407208},{"NoteNumber":87,"Velocity":74,"Duration":104166,"SoundDuration":104166,"Delta":920407208},{"NoteNumber":77,"Velocity":71,"Duration":104166,"SoundDuration":104166,"Delta":920407208},{"NoteNumber":71,"Velocity":60,"Duration":104166,"SoundDuration":104166,"Delta":920407208},{"NoteNumber":67,"Velocity":60,"Duration":104166,"SoundDuration":104166,"Delta":920407208},{"NoteNumber":99,"Velocity":92,"Duration":104166,"SoundDuration":104166,"Delta":920546097},{"NoteNumber":96,"Velocity":78,"Duration":104166,"SoundDuration":104166,"Delta":920546097},{"NoteNumber":87,"Velocity":78,"Duration":104166,"SoundDuration":104166,"Delta":920546097},{"NoteNumber":77,"Velocity":75,"Duration":104166,"SoundDuration":104166,"Delta":920546097},{"NoteNumber":72,"Velocity":63,"Duration":104166,"SoundDuration":104166,"Delta":920546097},{"NoteNumber":68,"Velocity":63,"Duration":104166,"SoundDuration":104166,"Delta":920546097},{"NoteNumber":99,"Velocity":81,"Duration":104166,"SoundDuration":104166,"Delta":920684986},{"NoteNumber":96,"Velocity":68,"Duration":104166,"SoundDuration":104166,"Delta":920684986},{"NoteNumber":87,"Velocity":68,"Duration":104166,"SoundDuration":104166,"Delta":920684986},{"NoteNumber":77,"Velocity":63,"Duration":104166,"SoundDuration":104166,"Delta":920684986},{"NoteNumber":72,"Velocity":53,"Duration":104166,"SoundDuration":104166,"Delta":920684986},{"NoteNumber":68,"Velocity":53,"Duration":104166,"SoundDuration":104166,"Delta":920684986},{"NoteNumber":99,"Velocity":81,"Duration":104166,"SoundDuration":104166,"Delta":920823875},{"NoteNumber":95,"Velocity":68,"Duration":104166,"SoundDuration":104166,"Delta":920823875},{"NoteNumber":87,"Velocity":68,"Duration":104166,"SoundDuration":104166,"Delta":920823875},{"NoteNumber":77,"Velocity":63,"Duration":104166,"SoundDuration":104166,"Delta":920823875},{"NoteNumber":71,"Velocity":53,"Duration":104166,"SoundDuration":104166,"Delta":920823875},{"NoteNumber":67,"Velocity":53,"Duration":104166,"SoundDuration":104166,"Delta":920823875},{"NoteNumber":99,"Velocity":81,"Duration":108173,"SoundDuration":108173,"Delta":920962764},{"NoteNumber":94,"Velocity":68,"Duration":108173,"SoundDuration":108173,"Delta":920962764},{"NoteNumber":87,"Velocity":68,"Duration":108173,"SoundDuration":108173,"Delta":920962764},{"NoteNumber":77,"Velocity":63,"Duration":108173,"SoundDuration":108173,"Delta":920962764},{"NoteNumber":70,"Velocity":53,"Duration":108173,"SoundDuration":108173,"Delta":920962764},{"NoteNumber":66,"Velocity":53,"Duration":108173,"SoundDuration":108173,"Delta":920962764},{"NoteNumber":99,"Velocity":92,"Duration":104651,"SoundDuration":104651,"Delta":921106995},{"NoteNumber":93,"Velocity":78,"Duration":104651,"SoundDuration":104651,"Delta":921106995},{"NoteNumber":87,"Velocity":78,"Duration":104651,"SoundDuration":104651,"Delta":921106995},{"NoteNumber":77,"Velocity":75,"Duration":104651,"SoundDuration":104651,"Delta":921106995},{"NoteNumber":69,"Velocity":63,"Duration":104651,"SoundDuration":104651,"Delta":921106995},{"NoteNumber":65,"Velocity":63,"Duration":104651,"SoundDuration":104651,"Delta":921106995},{"NoteNumber":99,"Velocity":81,"Duration":103686,"SoundDuration":103686,"Delta":921246530},{"NoteNumber":93,"Velocity":68,"Duration":103686,"SoundDuration":103686,"Delta":921246530},{"NoteNumber":87,"Velocity":68,"Duration":103686,"SoundDuration":103686,"Delta":921246530},{"NoteNumber":77,"Velocity":62,"Duration":103686,"SoundDuration":103686,"Delta":921246530},{"NoteNumber":69,"Velocity":52,"Duration":103686,"SoundDuration":103686,"Delta":921246530},{"NoteNumber":65,"Velocity":52,"Duration":103686,"SoundDuration":103686,"Delta":921246530},{"NoteNumber":99,"Velocity":84,"Duration":103686,"SoundDuration":103686,"Delta":921384779},{"NoteNumber":94,"Velocity":71,"Duration":103686,"SoundDuration":103686,"Delta":921384779},{"NoteNumber":87,"Velocity":71,"Duration":103686,"SoundDuration":103686,"Delta":921384779},{"NoteNumber":77,"Velocity":67,"Duration":103686,"SoundDuration":103686,"Delta":921384779},{"NoteNumber":70,"Velocity":56,"Duration":103686,"SoundDuration":103686,"Delta":921384779},{"NoteNumber":66,"Velocity":56,"Duration":103686,"SoundDuration":103686,"Delta":921384779},{"NoteNumber":95,"Velocity":89,"Duration":103686,"SoundDuration":103686,"Delta":921523028},{"NoteNumber":99,"Velocity":89,"Duration":103686,"SoundDuration":103686,"Delta":921523028},{"NoteNumber":87,"Velocity":74,"Duration":103686,"SoundDuration":103686,"Delta":921523028},{"NoteNumber":77,"Velocity":71,"Duration":103686,"SoundDuration":103686,"Delta":921523028},{"NoteNumber":71,"Velocity":60,"Duration":103686,"SoundDuration":103686,"Delta":921523028},{"NoteNumber":67,"Velocity":60,"Duration":103686,"SoundDuration":103686,"Delta":921523028},{"NoteNumber":99,"Velocity":93,"Duration":103686,"SoundDuration":103686,"Delta":921661277},{"NoteNumber":96,"Velocity":79,"Duration":103686,"SoundDuration":103686,"Delta":921661277},{"NoteNumber":87,"Velocity":79,"Duration":103686,"SoundDuration":103686,"Delta":921661277},{"NoteNumber":77,"Velocity":75,"Duration":103686,"SoundDuration":103686,"Delta":921661277},{"NoteNumber":72,"Velocity":63,"Duration":103686,"SoundDuration":103686,"Delta":921661277},{"NoteNumber":68,"Velocity":63,"Duration":103686,"SoundDuration":103686,"Delta":921661277},{"NoteNumber":99,"Velocity":81,"Duration":103686,"SoundDuration":103686,"Delta":921799526},{"NoteNumber":96,"Velocity":68,"Duration":103686,"SoundDuration":103686,"Delta":921799526},{"NoteNumber":87,"Velocity":68,"Duration":103686,"SoundDuration":103686,"Delta":921799526},{"NoteNumber":77,"Velocity":63,"Duration":103686,"SoundDuration":103686,"Delta":921799526},{"NoteNumber":72,"Velocity":53,"Duration":103686,"SoundDuration":103686,"Delta":921799526},{"NoteNumber":68,"Velocity":53,"Duration":103686,"SoundDuration":103686,"Delta":921799526},{"NoteNumber":99,"Velocity":81,"Duration":103686,"SoundDuration":103686,"Delta":921937775},{"NoteNumber":95,"Velocity":68,"Duration":103686,"SoundDuration":103686,"Delta":921937775},{"NoteNumber":87,"Velocity":68,"Duration":103686,"SoundDuration":103686,"Delta":921937775},{"NoteNumber":77,"Velocity":63,"Duration":103686,"SoundDuration":103686,"Delta":921937775},{"NoteNumber":71,"Velocity":53,"Duration":103686,"SoundDuration":103686,"Delta":921937775},{"NoteNumber":67,"Velocity":53,"Duration":103686,"SoundDuration":103686,"Delta":921937775},{"NoteNumber":99,"Velocity":81,"Duration":108173,"SoundDuration":108173,"Delta":922076024},{"NoteNumber":94,"Velocity":68,"Duration":108173,"SoundDuration":108173,"Delta":922076024},{"NoteNumber":87,"Velocity":68,"Duration":108173,"SoundDuration":108173,"Delta":922076024},{"NoteNumber":77,"Velocity":63,"Duration":108173,"SoundDuration":108173,"Delta":922076024},{"NoteNumber":70,"Velocity":53,"Duration":108173,"SoundDuration":108173,"Delta":922076024},{"NoteNumber":66,"Velocity":53,"Duration":108173,"SoundDuration":108173,"Delta":922076024},{"NoteNumber":93,"Velocity":93,"Duration":295155,"SoundDuration":295155,"Delta":922220769},{"NoteNumber":87,"Velocity":79,"Duration":295155,"SoundDuration":295155,"Delta":922220769},{"NoteNumber":77,"Velocity":80,"Duration":295155,"SoundDuration":295155,"Delta":922220769},{"NoteNumber":65,"Velocity":68,"Duration":295155,"SoundDuration":295155,"Delta":922220769},{"NoteNumber":69,"Velocity":68,"Duration":295155,"SoundDuration":295155,"Delta":922220769},{"NoteNumber":99,"Velocity":66,"Duration":48700,"SoundDuration":48700,"Delta":922220769},{"NoteNumber":101,"Velocity":58,"Duration":48907,"SoundDuration":48907,"Delta":922269470},{"NoteNumber":99,"Velocity":66,"Duration":49093,"SoundDuration":49093,"Delta":922318378},{"NoteNumber":101,"Velocity":58,"Duration":49019,"SoundDuration":49019,"Delta":922367471},{"NoteNumber":99,"Velocity":66,"Duration":49730,"SoundDuration":49730,"Delta":922416491},{"NoteNumber":101,"Velocity":57,"Duration":49703,"SoundDuration":49703,"Delta":922466221},{"NoteNumber":93,"Velocity":82,"Duration":295373,"SoundDuration":295373,"Delta":922515925},{"NoteNumber":87,"Velocity":69,"Duration":295373,"SoundDuration":295373,"Delta":922515925},{"NoteNumber":77,"Velocity":72,"Duration":295373,"SoundDuration":295373,"Delta":922515925},{"NoteNumber":65,"Velocity":61,"Duration":295373,"SoundDuration":295373,"Delta":922515925},{"NoteNumber":69,"Velocity":61,"Duration":295373,"SoundDuration":295373,"Delta":922515925},{"NoteNumber":99,"Velocity":66,"Duration":48745,"SoundDuration":48745,"Delta":922515925},{"NoteNumber":101,"Velocity":58,"Duration":49552,"SoundDuration":49552,"Delta":922564670},{"NoteNumber":99,"Velocity":66,"Duration":49531,"SoundDuration":49531,"Delta":922614223},{"NoteNumber":101,"Velocity":58,"Duration":48549,"SoundDuration":48549,"Delta":922663755},{"NoteNumber":99,"Velocity":66,"Duration":49103,"SoundDuration":49103,"Delta":922712305},{"NoteNumber":101,"Velocity":58,"Duration":49890,"SoundDuration":49890,"Delta":922761408},{"NoteNumber":94,"Velocity":83,"Duration":304296,"SoundDuration":304296,"Delta":922811298},{"NoteNumber":87,"Velocity":70,"Duration":304296,"SoundDuration":304296,"Delta":922811298},{"NoteNumber":78,"Velocity":72,"Duration":304296,"SoundDuration":304296,"Delta":922811298},{"NoteNumber":66,"Velocity":61,"Duration":304296,"SoundDuration":304296,"Delta":922811298},{"NoteNumber":70,"Velocity":61,"Duration":304296,"SoundDuration":304296,"Delta":922811298},{"NoteNumber":99,"Velocity":66,"Duration":50894,"SoundDuration":50894,"Delta":922811298},{"NoteNumber":101,"Velocity":58,"Duration":51249,"SoundDuration":51249,"Delta":922862192},{"NoteNumber":99,"Velocity":66,"Duration":50652,"SoundDuration":50652,"Delta":922913442},{"NoteNumber":101,"Velocity":58,"Duration":49628,"SoundDuration":49628,"Delta":922964095},{"NoteNumber":99,"Velocity":66,"Duration":50817,"SoundDuration":50817,"Delta":923013723},{"NoteNumber":101,"Velocity":59,"Duration":51053,"SoundDuration":51053,"Delta":923064541},{"NoteNumber":95,"Velocity":85,"Duration":302722,"SoundDuration":302722,"Delta":923115595},{"NoteNumber":87,"Velocity":72,"Duration":302722,"SoundDuration":302722,"Delta":923115595},{"NoteNumber":79,"Velocity":72,"Duration":302722,"SoundDuration":302722,"Delta":923115595},{"NoteNumber":67,"Velocity":61,"Duration":302722,"SoundDuration":302722,"Delta":923115595},{"NoteNumber":71,"Velocity":61,"Duration":302722,"SoundDuration":302722,"Delta":923115595},{"NoteNumber":99,"Velocity":66,"Duration":49790,"SoundDuration":49790,"Delta":923115595},{"NoteNumber":101,"Velocity":59,"Duration":50445,"SoundDuration":50445,"Delta":923165385},{"NoteNumber":99,"Velocity":66,"Duration":50761,"SoundDuration":50761,"Delta":923215830},{"NoteNumber":101,"Velocity":59,"Duration":49763,"SoundDuration":49763,"Delta":923266591},{"NoteNumber":99,"Velocity":66,"Duration":51222,"SoundDuration":51222,"Delta":923316355},{"NoteNumber":101,"Velocity":59,"Duration":50739,"SoundDuration":50739,"Delta":923367578},{"NoteNumber":96,"Velocity":93,"Duration":309320,"SoundDuration":309320,"Delta":923418317},{"NoteNumber":87,"Velocity":79,"Duration":309320,"SoundDuration":309320,"Delta":923418317},{"NoteNumber":80,"Velocity":79,"Duration":309320,"SoundDuration":309320,"Delta":923418317},{"NoteNumber":68,"Velocity":67,"Duration":309320,"SoundDuration":309320,"Delta":923418317},{"NoteNumber":72,"Velocity":67,"Duration":309320,"SoundDuration":309320,"Delta":923418317},{"NoteNumber":99,"Velocity":66,"Duration":51864,"SoundDuration":51864,"Delta":923418317},{"NoteNumber":101,"Velocity":58,"Duration":52321,"SoundDuration":52321,"Delta":923470182},{"NoteNumber":99,"Velocity":66,"Duration":52356,"SoundDuration":52356,"Delta":923522503},{"NoteNumber":101,"Velocity":59,"Duration":51024,"SoundDuration":51024,"Delta":923574859},{"NoteNumber":99,"Velocity":66,"Duration":50251,"SoundDuration":50251,"Delta":923625883},{"NoteNumber":101,"Velocity":59,"Duration":51503,"SoundDuration":51503,"Delta":923676135},{"NoteNumber":99,"Velocity":66,"Duration":51835,"SoundDuration":51835,"Delta":923727638},{"NoteNumber":101,"Velocity":59,"Duration":50826,"SoundDuration":50826,"Delta":923779474},{"NoteNumber":99,"Velocity":66,"Duration":51259,"SoundDuration":51259,"Delta":923830300},{"NoteNumber":101,"Velocity":59,"Duration":51780,"SoundDuration":51780,"Delta":923881560},{"NoteNumber":99,"Velocity":66,"Duration":51020,"SoundDuration":51020,"Delta":923933340},{"NoteNumber":101,"Velocity":59,"Duration":48933,"SoundDuration":48933,"Delta":923984360},{"NoteNumber":96,"Velocity":93,"Duration":340017,"SoundDuration":340017,"Delta":924033294},{"NoteNumber":87,"Velocity":79,"Duration":340017,"SoundDuration":340017,"Delta":924033294},{"NoteNumber":81,"Velocity":79,"Duration":340017,"SoundDuration":340017,"Delta":924033294},{"NoteNumber":69,"Velocity":67,"Duration":340017,"SoundDuration":340017,"Delta":924033294},{"NoteNumber":72,"Velocity":67,"Duration":340017,"SoundDuration":340017,"Delta":924033294},{"NoteNumber":77,"Velocity":67,"Duration":340017,"SoundDuration":340017,"Delta":924033294},{"NoteNumber":99,"Velocity":65,"Duration":50267,"SoundDuration":50267,"Delta":924033294},{"NoteNumber":101,"Velocity":68,"Duration":53143,"SoundDuration":53143,"Delta":924083561},{"NoteNumber":99,"Velocity":70,"Duration":56285,"SoundDuration":56285,"Delta":924136705},{"NoteNumber":101,"Velocity":73,"Duration":60002,"SoundDuration":60002,"Delta":924192991},{"NoteNumber":99,"Velocity":75,"Duration":60438,"SoundDuration":60438,"Delta":924252994},{"NoteNumber":101,"Velocity":78,"Duration":59880,"SoundDuration":59880,"Delta":924313432},{"NoteNumber":99,"Velocity":76,"Duration":64102,"SoundDuration":64102,"Delta":924373312},{"NoteNumber":101,"Velocity":75,"Duration":64102,"SoundDuration":64102,"Delta":924437414},{"NoteNumber":99,"Velocity":79,"Duration":64102,"SoundDuration":64102,"Delta":924501517},{"NoteNumber":98,"Velocity":76,"Duration":96153,"SoundDuration":96153,"Delta":924565619},{"NoteNumber":99,"Velocity":76,"Duration":96337,"SoundDuration":96337,"Delta":924661773},{"NoteNumber":103,"Velocity":59,"Duration":97393,"SoundDuration":97393,"Delta":924758111},{"NoteNumber":101,"Velocity":60,"Duration":87942,"SoundDuration":87942,"Delta":924855505},{"NoteNumber":99,"Velocity":61,"Duration":80153,"SoundDuration":80153,"Delta":924943447},{"NoteNumber":96,"Velocity":62,"Duration":73667,"SoundDuration":73667,"Delta":925023601},{"NoteNumber":93,"Velocity":62,"Duration":71770,"SoundDuration":71770,"Delta":925097268},{"NoteNumber":89,"Velocity":63,"Duration":71770,"SoundDuration":71770,"Delta":925169039},{"NoteNumber":87,"Velocity":64,"Duration":71770,"SoundDuration":71770,"Delta":925240809},{"NoteNumber":84,"Velocity":65,"Duration":71770,"SoundDuration":71770,"Delta":925312579},{"NoteNumber":81,"Velocity":66,"Duration":71770,"SoundDuration":71770,"Delta":925384349},{"NoteNumber":77,"Velocity":67,"Duration":71770,"SoundDuration":71770,"Delta":925456120},{"NoteNumber":75,"Velocity":68,"Duration":71770,"SoundDuration":71770,"Delta":925527890},{"NoteNumber":72,"Velocity":69,"Duration":71770,"SoundDuration":71770,"Delta":925599660},{"NoteNumber":69,"Velocity":70,"Duration":71770,"SoundDuration":71770,"Delta":925671430},{"NoteNumber":65,"Velocity":71,"Duration":71770,"SoundDuration":71770,"Delta":925743201},{"NoteNumber":63,"Velocity":72,"Duration":71770,"SoundDuration":71770,"Delta":925814971},{"NoteNumber":60,"Velocity":72,"Duration":71724,"SoundDuration":71724,"Delta":925886741},{"NoteNumber":57,"Velocity":75,"Duration":71979,"SoundDuration":71979,"Delta":925958466},{"NoteNumber":53,"Velocity":76,"Duration":73313,"SoundDuration":73313,"Delta":926030446},{"NoteNumber":51,"Velocity":79,"Duration":74780,"SoundDuration":74780,"Delta":926103759},{"NoteNumber":48,"Velocity":81,"Duration":76312,"SoundDuration":76312,"Delta":926178540},{"NoteNumber":45,"Velocity":84,"Duration":77902,"SoundDuration":77902,"Delta":926254852},{"NoteNumber":44,"Velocity":104,"Duration":79365,"SoundDuration":79365,"Delta":926332754},{"NoteNumber":45,"Velocity":80,"Duration":77097,"SoundDuration":77097,"Delta":926412119},{"NoteNumber":48,"Velocity":79,"Duration":74340,"SoundDuration":74340,"Delta":926489216},{"NoteNumber":51,"Velocity":77,"Duration":72885,"SoundDuration":72885,"Delta":926563557},{"NoteNumber":53,"Velocity":76,"Duration":71352,"SoundDuration":71352,"Delta":926636443},{"NoteNumber":57,"Velocity":75,"Duration":70754,"SoundDuration":70754,"Delta":926707795},{"NoteNumber":60,"Velocity":68,"Duration":70754,"SoundDuration":70754,"Delta":926778550},{"NoteNumber":63,"Velocity":67,"Duration":70754,"SoundDuration":70754,"Delta":926849304},{"NoteNumber":65,"Velocity":66,"Duration":70754,"SoundDuration":70754,"Delta":926920059},{"NoteNumber":69,"Velocity":65,"Duration":70754,"SoundDuration":70754,"Delta":926990814},{"NoteNumber":72,"Velocity":64,"Duration":70754,"SoundDuration":70754,"Delta":927061569},{"NoteNumber":75,"Velocity":63,"Duration":70754,"SoundDuration":70754,"Delta":927132323},{"NoteNumber":77,"Velocity":62,"Duration":70754,"SoundDuration":70754,"Delta":927203078},{"NoteNumber":81,"Velocity":61,"Duration":70754,"SoundDuration":70754,"Delta":927273833},{"NoteNumber":84,"Velocity":60,"Duration":70754,"SoundDuration":70754,"Delta":927344588},{"NoteNumber":87,"Velocity":59,"Duration":70782,"SoundDuration":70782,"Delta":927415342},{"NoteNumber":89,"Velocity":58,"Duration":71101,"SoundDuration":71101,"Delta":927486125},{"NoteNumber":93,"Velocity":62,"Duration":71428,"SoundDuration":71428,"Delta":927557226},{"NoteNumber":96,"Velocity":65,"Duration":71761,"SoundDuration":71761,"Delta":927628655},{"NoteNumber":99,"Velocity":73,"Duration":72089,"SoundDuration":72089,"Delta":927700416},{"NoteNumber":103,"Velocity":86,"Duration":72431,"SoundDuration":72431,"Delta":927772506},{"NoteNumber":99,"Velocity":89,"Duration":88408,"SoundDuration":88408,"Delta":928030123},{"NoteNumber":87,"Velocity":75,"Duration":88408,"SoundDuration":88408,"Delta":928030123},{"NoteNumber":84,"Velocity":88,"Duration":87267,"SoundDuration":87267,"Delta":928118531},{"NoteNumber":93,"Velocity":87,"Duration":85460,"SoundDuration":85460,"Delta":928205799},{"NoteNumber":81,"Velocity":73,"Duration":85460,"SoundDuration":85460,"Delta":928205799},{"NoteNumber":78,"Velocity":86,"Duration":83757,"SoundDuration":83757,"Delta":928291260},{"NoteNumber":89,"Velocity":85,"Duration":82539,"SoundDuration":82539,"Delta":928375017},{"NoteNumber":77,"Velocity":72,"Duration":82539,"SoundDuration":82539,"Delta":928375017},{"NoteNumber":76,"Velocity":85,"Duration":81781,"SoundDuration":81781,"Delta":928457556},{"NoteNumber":87,"Velocity":84,"Duration":81013,"SoundDuration":81013,"Delta":928539338},{"NoteNumber":75,"Velocity":71,"Duration":81013,"SoundDuration":81013,"Delta":928539338},{"NoteNumber":72,"Velocity":83,"Duration":80286,"SoundDuration":80286,"Delta":928620351},{"NoteNumber":81,"Velocity":82,"Duration":79565,"SoundDuration":79565,"Delta":928700637},{"NoteNumber":69,"Velocity":69,"Duration":79565,"SoundDuration":79565,"Delta":928700637},{"NoteNumber":66,"Velocity":81,"Duration":78775,"SoundDuration":78775,"Delta":928780203},{"NoteNumber":77,"Velocity":80,"Duration":78146,"SoundDuration":78146,"Delta":928858978},{"NoteNumber":65,"Velocity":68,"Duration":78146,"SoundDuration":78146,"Delta":928858978},{"NoteNumber":64,"Velocity":79,"Duration":77426,"SoundDuration":77426,"Delta":928937124},{"NoteNumber":75,"Velocity":78,"Duration":77319,"SoundDuration":77319,"Delta":929014550},{"NoteNumber":63,"Velocity":66,"Duration":77319,"SoundDuration":77319,"Delta":929014550},{"NoteNumber":60,"Velocity":77,"Duration":77319,"SoundDuration":77319,"Delta":929091870},{"NoteNumber":69,"Velocity":76,"Duration":77319,"SoundDuration":77319,"Delta":929169189},{"NoteNumber":57,"Velocity":64,"Duration":77319,"SoundDuration":77319,"Delta":929169189},{"NoteNumber":54,"Velocity":76,"Duration":77319,"SoundDuration":77319,"Delta":929246509},{"NoteNumber":65,"Velocity":75,"Duration":76799,"SoundDuration":76799,"Delta":929323828},{"NoteNumber":53,"Velocity":63,"Duration":76799,"SoundDuration":76799,"Delta":929323828},{"NoteNumber":52,"Velocity":74,"Duration":77257,"SoundDuration":77257,"Delta":929400628},{"NoteNumber":63,"Velocity":73,"Duration":78105,"SoundDuration":78105,"Delta":929477886},{"NoteNumber":51,"Velocity":62,"Duration":78105,"SoundDuration":78105,"Delta":929477886},{"NoteNumber":48,"Velocity":73,"Duration":78969,"SoundDuration":78969,"Delta":929555991},{"NoteNumber":57,"Velocity":72,"Duration":79741,"SoundDuration":79741,"Delta":929634961},{"NoteNumber":45,"Velocity":61,"Duration":79741,"SoundDuration":79741,"Delta":929634961},{"NoteNumber":42,"Velocity":71,"Duration":79787,"SoundDuration":79787,"Delta":929714702},{"NoteNumber":41,"Velocity":72,"Duration":204081,"SoundDuration":204081,"Delta":929794490},{"NoteNumber":53,"Velocity":72,"Duration":204081,"SoundDuration":204081,"Delta":929794490},{"NoteNumber":41,"Velocity":55,"Duration":311992,"SoundDuration":311992,"Delta":930149241},{"NoteNumber":45,"Velocity":57,"Duration":295251,"SoundDuration":295251,"Delta":930165982},{"NoteNumber":51,"Velocity":59,"Duration":278510,"SoundDuration":278510,"Delta":930182723},{"NoteNumber":57,"Velocity":62,"Duration":261769,"SoundDuration":261769,"Delta":930199464},{"NoteNumber":69,"Velocity":76,"Duration":245028,"SoundDuration":245028,"Delta":930216205},{"NoteNumber":75,"Velocity":79,"Duration":228287,"SoundDuration":228287,"Delta":930232946},{"NoteNumber":81,"Velocity":83,"Duration":211546,"SoundDuration":211546,"Delta":930249687},{"NoteNumber":87,"Velocity":87,"Duration":194804,"SoundDuration":194804,"Delta":930266428},{"NoteNumber":42,"Velocity":57,"Duration":294762,"SoundDuration":294762,"Delta":930588113},{"NoteNumber":46,"Velocity":59,"Duration":280664,"SoundDuration":280664,"Delta":930602211},{"NoteNumber":51,"Velocity":60,"Duration":266567,"SoundDuration":266567,"Delta":930616308},{"NoteNumber":58,"Velocity":62,"Duration":252469,"SoundDuration":252469,"Delta":930630406},{"NoteNumber":70,"Velocity":77,"Duration":238371,"SoundDuration":238371,"Delta":930644504},{"NoteNumber":75,"Velocity":81,"Duration":224273,"SoundDuration":224273,"Delta":930658602},{"NoteNumber":82,"Velocity":86,"Duration":210176,"SoundDuration":210176,"Delta":930672699},{"NoteNumber":87,"Velocity":91,"Duration":196078,"SoundDuration":196078,"Delta":930686797},{"NoteNumber":43,"Velocity":56,"Duration":326525,"SoundDuration":326525,"Delta":931012683},{"NoteNumber":47,"Velocity":58,"Duration":312102,"SoundDuration":312102,"Delta":931027106},{"NoteNumber":51,"Velocity":59,"Duration":297679,"SoundDuration":297679,"Delta":931041529},{"NoteNumber":59,"Velocity":61,"Duration":283256,"SoundDuration":283256,"Delta":931055952},{"NoteNumber":71,"Velocity":74,"Duration":268833,"SoundDuration":268833,"Delta":931070375},{"NoteNumber":75,"Velocity":78,"Duration":254410,"SoundDuration":254410,"Delta":931084798},{"NoteNumber":83,"Velocity":82,"Duration":239987,"SoundDuration":239987,"Delta":931099221},{"NoteNumber":87,"Velocity":87,"Duration":225563,"SoundDuration":225563,"Delta":931113645},{"NoteNumber":44,"Velocity":59,"Duration":311663,"SoundDuration":311663,"Delta":931477528},{"NoteNumber":48,"Velocity":60,"Duration":296294,"SoundDuration":296294,"Delta":931492897},{"NoteNumber":51,"Velocity":62,"Duration":280925,"SoundDuration":280925,"Delta":931508266},{"NoteNumber":60,"Velocity":63,"Duration":265556,"SoundDuration":265556,"Delta":931523635},{"NoteNumber":72,"Velocity":79,"Duration":250188,"SoundDuration":250188,"Delta":931539004},{"NoteNumber":75,"Velocity":83,"Duration":234819,"SoundDuration":234819,"Delta":931554372},{"NoteNumber":84,"Velocity":88,"Duration":219450,"SoundDuration":219450,"Delta":931569741},{"NoteNumber":87,"Velocity":93,"Duration":204081,"SoundDuration":204081,"Delta":931585110},{"NoteNumber":86,"Velocity":72,"Duration":161898,"SoundDuration":161898,"Delta":932571697},{"NoteNumber":74,"Velocity":61,"Duration":161898,"SoundDuration":161898,"Delta":932571697},{"NoteNumber":87,"Velocity":76,"Duration":156740,"SoundDuration":156740,"Delta":932733596},{"NoteNumber":75,"Velocity":64,"Duration":156740,"SoundDuration":156740,"Delta":932733596},{"NoteNumber":88,"Velocity":80,"Duration":152066,"SoundDuration":152066,"Delta":932890336},{"NoteNumber":76,"Velocity":68,"Duration":152066,"SoundDuration":152066,"Delta":932890336},{"NoteNumber":89,"Velocity":85,"Duration":147563,"SoundDuration":147563,"Delta":933042403},{"NoteNumber":77,"Velocity":72,"Duration":147563,"SoundDuration":147563,"Delta":933042403},{"NoteNumber":90,"Velocity":89,"Duration":143353,"SoundDuration":143353,"Delta":933189966},{"NoteNumber":78,"Velocity":75,"Duration":143353,"SoundDuration":143353,"Delta":933189966},{"NoteNumber":93,"Velocity":93,"Duration":142857,"SoundDuration":142857,"Delta":933333319},{"NoteNumber":81,"Velocity":79,"Duration":142857,"SoundDuration":142857,"Delta":933333319},{"NoteNumber":91,"Velocity":87,"Duration":142856,"SoundDuration":142856,"Delta":933476176},{"NoteNumber":79,"Velocity":73,"Duration":142856,"SoundDuration":142856,"Delta":933476176},{"NoteNumber":86,"Velocity":83,"Duration":149054,"SoundDuration":149054,"Delta":933619033},{"NoteNumber":74,"Velocity":70,"Duration":149054,"SoundDuration":149054,"Delta":933619033},{"NoteNumber":33,"Velocity":77,"Duration":619170,"SoundDuration":619170,"Delta":933656627},{"NoteNumber":45,"Velocity":59,"Duration":590975,"SoundDuration":590975,"Delta":933684823},{"NoteNumber":51,"Velocity":63,"Duration":562779,"SoundDuration":562779,"Delta":933713018},{"NoteNumber":60,"Velocity":68,"Duration":534584,"SoundDuration":534584,"Delta":933741214},{"NoteNumber":89,"Velocity":94,"Duration":148171,"SoundDuration":148171,"Delta":933768088},{"NoteNumber":77,"Velocity":79,"Duration":148171,"SoundDuration":148171,"Delta":933768088},{"NoteNumber":65,"Velocity":78,"Duration":507709,"SoundDuration":507709,"Delta":933768088},{"NoteNumber":87,"Velocity":85,"Duration":157517,"SoundDuration":157517,"Delta":933916260},{"NoteNumber":75,"Velocity":72,"Duration":157517,"SoundDuration":157517,"Delta":933916260},{"NoteNumber":84,"Velocity":85,"Duration":202020,"SoundDuration":202020,"Delta":934073778},{"NoteNumber":72,"Velocity":72,"Duration":202020,"SoundDuration":202020,"Delta":934073778},{"NoteNumber":82,"Velocity":96,"Duration":309277,"SoundDuration":309277,"Delta":934275798},{"NoteNumber":70,"Velocity":69,"Duration":77319,"SoundDuration":77319,"Delta":934275798},{"NoteNumber":34,"Velocity":94,"Duration":77319,"SoundDuration":77319,"Delta":934275798},{"NoteNumber":46,"Velocity":102,"Duration":77319,"SoundDuration":77319,"Delta":934275798},{"NoteNumber":77,"Velocity":62,"Duration":77319,"SoundDuration":77319,"Delta":934430437},{"NoteNumber":74,"Velocity":53,"Duration":77319,"SoundDuration":77319,"Delta":934430437},{"NoteNumber":58,"Velocity":46,"Duration":77319,"SoundDuration":77319,"Delta":934430437},{"NoteNumber":65,"Velocity":57,"Duration":77319,"SoundDuration":77319,"Delta":934430437},{"NoteNumber":62,"Velocity":46,"Duration":77319,"SoundDuration":77319,"Delta":934430437},{"NoteNumber":82,"Velocity":78,"Duration":69444,"SoundDuration":69444,"Delta":934585076},{"NoteNumber":70,"Velocity":69,"Duration":69444,"SoundDuration":69444,"Delta":934585076},{"NoteNumber":53,"Velocity":74,"Duration":69444,"SoundDuration":69444,"Delta":934585076},{"NoteNumber":82,"Velocity":78,"Duration":77720,"SoundDuration":77720,"Delta":934723965},{"NoteNumber":77,"Velocity":62,"Duration":77720,"SoundDuration":77720,"Delta":934723965},{"NoteNumber":74,"Velocity":53,"Duration":77720,"SoundDuration":77720,"Delta":934723965},{"NoteNumber":58,"Velocity":46,"Duration":77720,"SoundDuration":77720,"Delta":934723965},{"NoteNumber":65,"Velocity":57,"Duration":77720,"SoundDuration":77720,"Delta":934723965},{"NoteNumber":62,"Velocity":46,"Duration":77720,"SoundDuration":77720,"Delta":934723965},{"NoteNumber":86,"Velocity":96,"Duration":72815,"SoundDuration":72815,"Delta":934879405},{"NoteNumber":74,"Velocity":69,"Duration":72815,"SoundDuration":72815,"Delta":934879405},{"NoteNumber":46,"Velocity":72,"Duration":72815,"SoundDuration":72815,"Delta":934879405},{"NoteNumber":82,"Velocity":78,"Duration":72815,"SoundDuration":72815,"Delta":935025036},{"NoteNumber":77,"Velocity":62,"Duration":72815,"SoundDuration":72815,"Delta":935025036},{"NoteNumber":58,"Velocity":46,"Duration":72815,"SoundDuration":72815,"Delta":935025036},{"NoteNumber":65,"Velocity":57,"Duration":72815,"SoundDuration":72815,"Delta":935025036},{"NoteNumber":62,"Velocity":46,"Duration":72815,"SoundDuration":72815,"Delta":935025036},{"NoteNumber":82,"Velocity":78,"Duration":324324,"SoundDuration":324324,"Delta":935170667},{"NoteNumber":70,"Velocity":69,"Duration":81081,"SoundDuration":81081,"Delta":935170667},{"NoteNumber":53,"Velocity":74,"Duration":81081,"SoundDuration":81081,"Delta":935170667},{"NoteNumber":74,"Velocity":46,"Duration":81081,"SoundDuration":81081,"Delta":935332829},{"NoteNumber":77,"Velocity":62,"Duration":81081,"SoundDuration":81081,"Delta":935332829},{"NoteNumber":62,"Velocity":46,"Duration":81081,"SoundDuration":81081,"Delta":935332829},{"NoteNumber":65,"Velocity":57,"Duration":81081,"SoundDuration":81081,"Delta":935332829},{"NoteNumber":58,"Velocity":46,"Duration":81081,"SoundDuration":81081,"Delta":935332829},{"NoteNumber":77,"Velocity":95,"Duration":306121,"SoundDuration":306121,"Delta":935494991},{"NoteNumber":65,"Velocity":69,"Duration":76530,"SoundDuration":76530,"Delta":935494991},{"NoteNumber":46,"Velocity":98,"Duration":76530,"SoundDuration":76530,"Delta":935494991},{"NoteNumber":70,"Velocity":53,"Duration":76530,"SoundDuration":76530,"Delta":935648052},{"NoteNumber":74,"Velocity":62,"Duration":76530,"SoundDuration":76530,"Delta":935648052},{"NoteNumber":58,"Velocity":46,"Duration":76530,"SoundDuration":76530,"Delta":935648052},{"NoteNumber":65,"Velocity":57,"Duration":76530,"SoundDuration":76530,"Delta":935648052},{"NoteNumber":62,"Velocity":46,"Duration":76530,"SoundDuration":76530,"Delta":935648052},{"NoteNumber":77,"Velocity":78,"Duration":69124,"SoundDuration":69124,"Delta":935801113},{"NoteNumber":65,"Velocity":69,"Duration":69124,"SoundDuration":69124,"Delta":935801113},{"NoteNumber":53,"Velocity":74,"Duration":69124,"SoundDuration":69124,"Delta":935801113},{"NoteNumber":77,"Velocity":78,"Duration":75757,"SoundDuration":75757,"Delta":935939362},{"NoteNumber":74,"Velocity":62,"Duration":75757,"SoundDuration":75757,"Delta":935939362},{"NoteNumber":70,"Velocity":53,"Duration":75757,"SoundDuration":75757,"Delta":935939362},{"NoteNumber":58,"Velocity":46,"Duration":75757,"SoundDuration":75757,"Delta":935939362},{"NoteNumber":65,"Velocity":57,"Duration":75757,"SoundDuration":75757,"Delta":935939362},{"NoteNumber":62,"Velocity":46,"Duration":75757,"SoundDuration":75757,"Delta":935939362},{"NoteNumber":82,"Velocity":93,"Duration":72815,"SoundDuration":72815,"Delta":936090877},{"NoteNumber":70,"Velocity":69,"Duration":72815,"SoundDuration":72815,"Delta":936090877},{"NoteNumber":46,"Velocity":69,"Duration":72815,"SoundDuration":72815,"Delta":936090877},{"NoteNumber":77,"Velocity":78,"Duration":72815,"SoundDuration":72815,"Delta":936236508},{"NoteNumber":74,"Velocity":62,"Duration":72815,"SoundDuration":72815,"Delta":936236508},{"NoteNumber":58,"Velocity":46,"Duration":72815,"SoundDuration":72815,"Delta":936236508},{"NoteNumber":65,"Velocity":57,"Duration":72815,"SoundDuration":72815,"Delta":936236508},{"NoteNumber":62,"Velocity":46,"Duration":72815,"SoundDuration":72815,"Delta":936236508},{"NoteNumber":77,"Velocity":78,"Duration":327868,"SoundDuration":327868,"Delta":936382139},{"NoteNumber":65,"Velocity":69,"Duration":81967,"SoundDuration":81967,"Delta":936382139},{"NoteNumber":53,"Velocity":74,"Duration":81967,"SoundDuration":81967,"Delta":936382139},{"NoteNumber":70,"Velocity":46,"Duration":81967,"SoundDuration":81967,"Delta":936546074},{"NoteNumber":74,"Velocity":62,"Duration":81967,"SoundDuration":81967,"Delta":936546074},{"NoteNumber":58,"Velocity":46,"Duration":81967,"SoundDuration":81967,"Delta":936546074},{"NoteNumber":65,"Velocity":57,"Duration":81967,"SoundDuration":81967,"Delta":936546074},{"NoteNumber":62,"Velocity":46,"Duration":81967,"SoundDuration":81967,"Delta":936546074},{"NoteNumber":74,"Velocity":100,"Duration":307691,"SoundDuration":307691,"Delta":936710008},{"NoteNumber":62,"Velocity":72,"Duration":76922,"SoundDuration":76922,"Delta":936710008},{"NoteNumber":46,"Velocity":98,"Duration":76922,"SoundDuration":76922,"Delta":936710008},{"NoteNumber":65,"Velocity":55,"Duration":76922,"SoundDuration":76922,"Delta":936863854},{"NoteNumber":70,"Velocity":64,"Duration":76922,"SoundDuration":76922,"Delta":936863854},{"NoteNumber":62,"Velocity":58,"Duration":76922,"SoundDuration":76922,"Delta":936863854},{"NoteNumber":58,"Velocity":48,"Duration":76922,"SoundDuration":76922,"Delta":936863854},{"NoteNumber":74,"Velocity":73,"Duration":70422,"SoundDuration":70422,"Delta":937017700},{"NoteNumber":62,"Velocity":72,"Duration":70422,"SoundDuration":70422,"Delta":937017700},{"NoteNumber":53,"Velocity":77,"Duration":70422,"SoundDuration":70422,"Delta":937017700},{"NoteNumber":75,"Velocity":73,"Duration":74257,"SoundDuration":74257,"Delta":937158545},{"NoteNumber":63,"Velocity":64,"Duration":74257,"SoundDuration":74257,"Delta":937158545},{"NoteNumber":62,"Velocity":58,"Duration":74257,"SoundDuration":74257,"Delta":937158545},{"NoteNumber":58,"Velocity":48,"Duration":74257,"SoundDuration":74257,"Delta":937158545},{"NoteNumber":79,"Velocity":97,"Duration":113065,"SoundDuration":113065,"Delta":937307060},{"NoteNumber":67,"Velocity":72,"Duration":75377,"SoundDuration":75377,"Delta":937307060},{"NoteNumber":46,"Velocity":72,"Duration":75377,"SoundDuration":75377,"Delta":937307060},{"NoteNumber":65,"Velocity":48,"Duration":75377,"SoundDuration":75377,"Delta":937457814},{"NoteNumber":77,"Velocity":74,"Duration":75377,"SoundDuration":75377,"Delta":937457814},{"NoteNumber":62,"Velocity":58,"Duration":75377,"SoundDuration":75377,"Delta":937457814},{"NoteNumber":58,"Velocity":48,"Duration":75377,"SoundDuration":75377,"Delta":937457814},{"NoteNumber":77,"Velocity":81,"Duration":79787,"SoundDuration":79787,"Delta":937608568},{"NoteNumber":65,"Velocity":72,"Duration":79787,"SoundDuration":79787,"Delta":937608568},{"NoteNumber":53,"Velocity":77,"Duration":79787,"SoundDuration":79787,"Delta":937608568},{"NoteNumber":74,"Velocity":48,"Duration":79787,"SoundDuration":79787,"Delta":937768143},{"NoteNumber":70,"Velocity":48,"Duration":79787,"SoundDuration":79787,"Delta":937768143},{"NoteNumber":77,"Velocity":77,"Duration":79787,"SoundDuration":79787,"Delta":937768143},{"NoteNumber":62,"Velocity":58,"Duration":79787,"SoundDuration":79787,"Delta":937768143},{"NoteNumber":58,"Velocity":48,"Duration":79787,"SoundDuration":79787,"Delta":937768143},{"NoteNumber":77,"Velocity":100,"Duration":309277,"SoundDuration":309277,"Delta":937927717},{"NoteNumber":65,"Velocity":72,"Duration":77319,"SoundDuration":77319,"Delta":937927717},{"NoteNumber":41,"Velocity":100,"Duration":77319,"SoundDuration":77319,"Delta":937927717},{"NoteNumber":69,"Velocity":55,"Duration":77319,"SoundDuration":77319,"Delta":938082356},{"NoteNumber":72,"Velocity":64,"Duration":77319,"SoundDuration":77319,"Delta":938082356},{"NoteNumber":63,"Velocity":48,"Duration":77319,"SoundDuration":77319,"Delta":938082356},{"NoteNumber":65,"Velocity":58,"Duration":77319,"SoundDuration":77319,"Delta":938082356},{"NoteNumber":60,"Velocity":48,"Duration":77319,"SoundDuration":77319,"Delta":938082356},{"NoteNumber":79,"Velocity":73,"Duration":73529,"SoundDuration":73529,"Delta":938236995},{"NoteNumber":67,"Velocity":72,"Duration":73529,"SoundDuration":73529,"Delta":938236995},{"NoteNumber":53,"Velocity":77,"Duration":73529,"SoundDuration":73529,"Delta":938236995},{"NoteNumber":81,"Velocity":73,"Duration":79787,"SoundDuration":79787,"Delta":938384054},{"NoteNumber":69,"Velocity":64,"Duration":79787,"SoundDuration":79787,"Delta":938384054},{"NoteNumber":63,"Velocity":48,"Duration":79787,"SoundDuration":79787,"Delta":938384054},{"NoteNumber":65,"Velocity":58,"Duration":79787,"SoundDuration":79787,"Delta":938384054},{"NoteNumber":60,"Velocity":48,"Duration":79787,"SoundDuration":79787,"Delta":938384054},{"NoteNumber":82,"Velocity":97,"Duration":301508,"SoundDuration":301508,"Delta":938543629},{"NoteNumber":70,"Velocity":72,"Duration":75377,"SoundDuration":75377,"Delta":938543629},{"NoteNumber":46,"Velocity":86,"Duration":75377,"SoundDuration":75377,"Delta":938543629},{"NoteNumber":74,"Velocity":48,"Duration":75377,"SoundDuration":75377,"Delta":938694383},{"NoteNumber":77,"Velocity":64,"Duration":75377,"SoundDuration":75377,"Delta":938694383},{"NoteNumber":62,"Velocity":48,"Duration":75377,"SoundDuration":75377,"Delta":938694383},{"NoteNumber":65,"Velocity":58,"Duration":75377,"SoundDuration":75377,"Delta":938694383},{"NoteNumber":58,"Velocity":48,"Duration":75377,"SoundDuration":75377,"Delta":938694383},{"NoteNumber":70,"Velocity":69,"Duration":78533,"SoundDuration":78533,"Delta":938845137},{"NoteNumber":53,"Velocity":73,"Duration":78533,"SoundDuration":78533,"Delta":938845137},{"NoteNumber":74,"Velocity":42,"Duration":91130,"SoundDuration":91130,"Delta":939002205},{"NoteNumber":77,"Velocity":58,"Duration":91130,"SoundDuration":91130,"Delta":939002205},{"NoteNumber":58,"Velocity":40,"Duration":91130,"SoundDuration":91130,"Delta":939002205},{"NoteNumber":65,"Velocity":50,"Duration":91130,"SoundDuration":91130,"Delta":939002205},{"NoteNumber":62,"Velocity":40,"Duration":91130,"SoundDuration":91130,"Delta":939002205},{"NoteNumber":94,"Velocity":96,"Duration":309277,"SoundDuration":309277,"Delta":939184465},{"NoteNumber":82,"Velocity":69,"Duration":77319,"SoundDuration":77319,"Delta":939184465},{"NoteNumber":46,"Velocity":100,"Duration":77319,"SoundDuration":77319,"Delta":939184465},{"NoteNumber":89,"Velocity":62,"Duration":77319,"SoundDuration":77319,"Delta":939339104},{"NoteNumber":86,"Velocity":53,"Duration":77319,"SoundDuration":77319,"Delta":939339104},{"NoteNumber":58,"Velocity":46,"Duration":77319,"SoundDuration":77319,"Delta":939339104},{"NoteNumber":65,"Velocity":57,"Duration":77319,"SoundDuration":77319,"Delta":939339104},{"NoteNumber":62,"Velocity":46,"Duration":77319,"SoundDuration":77319,"Delta":939339104},{"NoteNumber":94,"Velocity":78,"Duration":70093,"SoundDuration":70093,"Delta":939493743},{"NoteNumber":82,"Velocity":69,"Duration":70093,"SoundDuration":70093,"Delta":939493743},{"NoteNumber":53,"Velocity":74,"Duration":70093,"SoundDuration":70093,"Delta":939493743},{"NoteNumber":94,"Velocity":78,"Duration":75000,"SoundDuration":75000,"Delta":939633930},{"NoteNumber":89,"Velocity":62,"Duration":75000,"SoundDuration":75000,"Delta":939633930},{"NoteNumber":86,"Velocity":53,"Duration":75000,"SoundDuration":75000,"Delta":939633930},{"NoteNumber":58,"Velocity":46,"Duration":75000,"SoundDuration":75000,"Delta":939633930},{"NoteNumber":65,"Velocity":57,"Duration":75000,"SoundDuration":75000,"Delta":939633930},{"NoteNumber":62,"Velocity":46,"Duration":75000,"SoundDuration":75000,"Delta":939633930},{"NoteNumber":98,"Velocity":96,"Duration":72815,"SoundDuration":72815,"Delta":939783930},{"NoteNumber":86,"Velocity":69,"Duration":72815,"SoundDuration":72815,"Delta":939783930},{"NoteNumber":46,"Velocity":72,"Duration":72815,"SoundDuration":72815,"Delta":939783930},{"NoteNumber":94,"Velocity":78,"Duration":72815,"SoundDuration":72815,"Delta":939929561},{"NoteNumber":89,"Velocity":62,"Duration":72815,"SoundDuration":72815,"Delta":939929561},{"NoteNumber":58,"Velocity":46,"Duration":72815,"SoundDuration":72815,"Delta":939929561},{"NoteNumber":65,"Velocity":57,"Duration":72815,"SoundDuration":72815,"Delta":939929561},{"NoteNumber":62,"Velocity":46,"Duration":72815,"SoundDuration":72815,"Delta":939929561},{"NoteNumber":94,"Velocity":78,"Duration":324324,"SoundDuration":324324,"Delta":940075192},{"NoteNumber":82,"Velocity":69,"Duration":81081,"SoundDuration":81081,"Delta":940075192},{"NoteNumber":53,"Velocity":74,"Duration":81081,"SoundDuration":81081,"Delta":940075192},{"NoteNumber":86,"Velocity":46,"Duration":81081,"SoundDuration":81081,"Delta":940237354},{"NoteNumber":89,"Velocity":62,"Duration":81081,"SoundDuration":81081,"Delta":940237354},{"NoteNumber":62,"Velocity":46,"Duration":81081,"SoundDuration":81081,"Delta":940237354},{"NoteNumber":65,"Velocity":57,"Duration":81081,"SoundDuration":81081,"Delta":940237354},{"NoteNumber":58,"Velocity":46,"Duration":81081,"SoundDuration":81081,"Delta":940237354},{"NoteNumber":89,"Velocity":95,"Duration":306121,"SoundDuration":306121,"Delta":940399516},{"NoteNumber":77,"Velocity":69,"Duration":76530,"SoundDuration":76530,"Delta":940399516},{"NoteNumber":46,"Velocity":99,"Duration":76530,"SoundDuration":76530,"Delta":940399516},{"NoteNumber":82,"Velocity":53,"Duration":76530,"SoundDuration":76530,"Delta":940552577},{"NoteNumber":86,"Velocity":62,"Duration":76530,"SoundDuration":76530,"Delta":940552577},{"NoteNumber":58,"Velocity":46,"Duration":76530,"SoundDuration":76530,"Delta":940552577},{"NoteNumber":65,"Velocity":57,"Duration":76530,"SoundDuration":76530,"Delta":940552577},{"NoteNumber":62,"Velocity":46,"Duration":76530,"SoundDuration":76530,"Delta":940552577},{"NoteNumber":89,"Velocity":78,"Duration":68807,"SoundDuration":68807,"Delta":940705638},{"NoteNumber":77,"Velocity":69,"Duration":68807,"SoundDuration":68807,"Delta":940705638},{"NoteNumber":53,"Velocity":74,"Duration":68807,"SoundDuration":68807,"Delta":940705638},{"NoteNumber":89,"Velocity":78,"Duration":73529,"SoundDuration":73529,"Delta":940843252},{"NoteNumber":86,"Velocity":62,"Duration":73529,"SoundDuration":73529,"Delta":940843252},{"NoteNumber":82,"Velocity":53,"Duration":73529,"SoundDuration":73529,"Delta":940843252},{"NoteNumber":58,"Velocity":46,"Duration":73529,"SoundDuration":73529,"Delta":940843252},{"NoteNumber":65,"Velocity":57,"Duration":73529,"SoundDuration":73529,"Delta":940843252},{"NoteNumber":62,"Velocity":46,"Duration":73529,"SoundDuration":73529,"Delta":940843252},{"NoteNumber":94,"Velocity":93,"Duration":72815,"SoundDuration":72815,"Delta":940990311},{"NoteNumber":82,"Velocity":69,"Duration":72815,"SoundDuration":72815,"Delta":940990311},{"NoteNumber":46,"Velocity":69,"Duration":72815,"SoundDuration":72815,"Delta":940990311},{"NoteNumber":89,"Velocity":78,"Duration":72815,"SoundDuration":72815,"Delta":941135942},{"NoteNumber":86,"Velocity":62,"Duration":72815,"SoundDuration":72815,"Delta":941135942},{"NoteNumber":58,"Velocity":46,"Duration":72815,"SoundDuration":72815,"Delta":941135942},{"NoteNumber":65,"Velocity":57,"Duration":72815,"SoundDuration":72815,"Delta":941135942},{"NoteNumber":62,"Velocity":46,"Duration":72815,"SoundDuration":72815,"Delta":941135942},{"NoteNumber":89,"Velocity":78,"Duration":333333,"SoundDuration":333333,"Delta":941281573},{"NoteNumber":77,"Velocity":69,"Duration":83333,"SoundDuration":83333,"Delta":941281573},{"NoteNumber":53,"Velocity":74,"Duration":83333,"SoundDuration":83333,"Delta":941281573},{"NoteNumber":82,"Velocity":46,"Duration":83333,"SoundDuration":83333,"Delta":941448240},{"NoteNumber":86,"Velocity":62,"Duration":83333,"SoundDuration":83333,"Delta":941448240},{"NoteNumber":58,"Velocity":46,"Duration":83333,"SoundDuration":83333,"Delta":941448240},{"NoteNumber":65,"Velocity":57,"Duration":83333,"SoundDuration":83333,"Delta":941448240},{"NoteNumber":62,"Velocity":46,"Duration":83333,"SoundDuration":83333,"Delta":941448240},{"NoteNumber":86,"Velocity":100,"Duration":307691,"SoundDuration":307691,"Delta":941614906},{"NoteNumber":74,"Velocity":72,"Duration":76922,"SoundDuration":76922,"Delta":941614906},{"NoteNumber":46,"Velocity":95,"Duration":76922,"SoundDuration":76922,"Delta":941614906},{"NoteNumber":77,"Velocity":55,"Duration":76922,"SoundDuration":76922,"Delta":941768752},{"NoteNumber":82,"Velocity":64,"Duration":76922,"SoundDuration":76922,"Delta":941768752},{"NoteNumber":58,"Velocity":48,"Duration":76922,"SoundDuration":76922,"Delta":941768752},{"NoteNumber":65,"Velocity":58,"Duration":76922,"SoundDuration":76922,"Delta":941768752},{"NoteNumber":62,"Velocity":48,"Duration":76922,"SoundDuration":76922,"Delta":941768752},{"NoteNumber":86,"Velocity":73,"Duration":70422,"SoundDuration":70422,"Delta":941922598},{"NoteNumber":74,"Velocity":72,"Duration":70422,"SoundDuration":70422,"Delta":941922598},{"NoteNumber":53,"Velocity":77,"Duration":70422,"SoundDuration":70422,"Delta":941922598},{"NoteNumber":87,"Velocity":73,"Duration":74257,"SoundDuration":74257,"Delta":942063443},{"NoteNumber":75,"Velocity":64,"Duration":74257,"SoundDuration":74257,"Delta":942063443},{"NoteNumber":58,"Velocity":48,"Duration":74257,"SoundDuration":74257,"Delta":942063443},{"NoteNumber":65,"Velocity":58,"Duration":74257,"SoundDuration":74257,"Delta":942063443},{"NoteNumber":62,"Velocity":48,"Duration":74257,"SoundDuration":74257,"Delta":942063443},{"NoteNumber":91,"Velocity":97,"Duration":113065,"SoundDuration":113065,"Delta":942211958},{"NoteNumber":79,"Velocity":72,"Duration":75377,"SoundDuration":75377,"Delta":942211958},{"NoteNumber":46,"Velocity":78,"Duration":75377,"SoundDuration":75377,"Delta":942211958},{"NoteNumber":77,"Velocity":48,"Duration":75377,"SoundDuration":75377,"Delta":942362712},{"NoteNumber":89,"Velocity":73,"Duration":75377,"SoundDuration":75377,"Delta":942362712},{"NoteNumber":62,"Velocity":48,"Duration":75377,"SoundDuration":75377,"Delta":942362712},{"NoteNumber":65,"Velocity":58,"Duration":75377,"SoundDuration":75377,"Delta":942362712},{"NoteNumber":58,"Velocity":48,"Duration":75377,"SoundDuration":75377,"Delta":942362712},{"NoteNumber":89,"Velocity":81,"Duration":79787,"SoundDuration":79787,"Delta":942513466},{"NoteNumber":77,"Velocity":72,"Duration":79787,"SoundDuration":79787,"Delta":942513466},{"NoteNumber":53,"Velocity":77,"Duration":79787,"SoundDuration":79787,"Delta":942513466},{"NoteNumber":86,"Velocity":48,"Duration":85719,"SoundDuration":85719,"Delta":942673041},{"NoteNumber":82,"Velocity":48,"Duration":85719,"SoundDuration":85719,"Delta":942673041},{"NoteNumber":89,"Velocity":77,"Duration":85719,"SoundDuration":85719,"Delta":942673041},{"NoteNumber":62,"Velocity":48,"Duration":85719,"SoundDuration":85719,"Delta":942673041},{"NoteNumber":65,"Velocity":58,"Duration":85719,"SoundDuration":85719,"Delta":942673041},{"NoteNumber":58,"Velocity":48,"Duration":85719,"SoundDuration":85719,"Delta":942673041},{"NoteNumber":89,"Velocity":100,"Duration":309277,"SoundDuration":309277,"Delta":942844479},{"NoteNumber":77,"Velocity":72,"Duration":77319,"SoundDuration":77319,"Delta":942844479},{"NoteNumber":41,"Velocity":100,"Duration":77319,"SoundDuration":77319,"Delta":942844479},{"NoteNumber":81,"Velocity":55,"Duration":77319,"SoundDuration":77319,"Delta":942999118},{"NoteNumber":84,"Velocity":64,"Duration":77319,"SoundDuration":77319,"Delta":942999118},{"NoteNumber":63,"Velocity":48,"Duration":77319,"SoundDuration":77319,"Delta":942999118},{"NoteNumber":65,"Velocity":58,"Duration":77319,"SoundDuration":77319,"Delta":942999118},{"NoteNumber":60,"Velocity":48,"Duration":77319,"SoundDuration":77319,"Delta":942999118},{"NoteNumber":91,"Velocity":73,"Duration":73529,"SoundDuration":73529,"Delta":943153757},{"NoteNumber":79,"Velocity":72,"Duration":73529,"SoundDuration":73529,"Delta":943153757},{"NoteNumber":53,"Velocity":77,"Duration":73529,"SoundDuration":73529,"Delta":943153757},{"NoteNumber":93,"Velocity":73,"Duration":79787,"SoundDuration":79787,"Delta":943300816},{"NoteNumber":81,"Velocity":64,"Duration":79787,"SoundDuration":79787,"Delta":943300816},{"NoteNumber":63,"Velocity":48,"Duration":79787,"SoundDuration":79787,"Delta":943300816},{"NoteNumber":65,"Velocity":58,"Duration":79787,"SoundDuration":79787,"Delta":943300816},{"NoteNumber":60,"Velocity":48,"Duration":79787,"SoundDuration":79787,"Delta":943300816},{"NoteNumber":94,"Velocity":97,"Duration":301508,"SoundDuration":301508,"Delta":943460391},{"NoteNumber":82,"Velocity":72,"Duration":301508,"SoundDuration":301508,"Delta":943460391},{"NoteNumber":46,"Velocity":70,"Duration":301508,"SoundDuration":301508,"Delta":943460391},{"NoteNumber":50,"Velocity":70,"Duration":301508,"SoundDuration":301508,"Delta":943460391},{"NoteNumber":58,"Velocity":86,"Duration":301508,"SoundDuration":301508,"Delta":943460391},{"NoteNumber":86,"Velocity":97,"Duration":611001,"SoundDuration":611001,"Delta":943761899},{"NoteNumber":74,"Velocity":76,"Duration":611001,"SoundDuration":611001,"Delta":943761899},{"NoteNumber":77,"Velocity":82,"Duration":611001,"SoundDuration":611001,"Delta":943761899},{"NoteNumber":46,"Velocity":73,"Duration":76530,"SoundDuration":76530,"Delta":943761899},{"NoteNumber":34,"Velocity":61,"Duration":76530,"SoundDuration":76530,"Delta":943761899},{"NoteNumber":41,"Velocity":65,"Duration":78492,"SoundDuration":78492,"Delta":943914960},{"NoteNumber":29,"Velocity":54,"Duration":78492,"SoundDuration":78492,"Delta":943914960},{"NoteNumber":46,"Velocity":73,"Duration":74257,"SoundDuration":74257,"Delta":944075870},{"NoteNumber":34,"Velocity":61,"Duration":74257,"SoundDuration":74257,"Delta":944075870},{"NoteNumber":53,"Velocity":64,"Duration":74257,"SoundDuration":74257,"Delta":944224385},{"NoteNumber":41,"Velocity":53,"Duration":74257,"SoundDuration":74257,"Delta":944224385},{"NoteNumber":82,"Velocity":89,"Duration":74257,"SoundDuration":74257,"Delta":944372900},{"NoteNumber":70,"Velocity":75,"Duration":74257,"SoundDuration":74257,"Delta":944372900},{"NoteNumber":62,"Velocity":67,"Duration":74257,"SoundDuration":74257,"Delta":944372900},{"NoteNumber":50,"Velocity":56,"Duration":74257,"SoundDuration":74257,"Delta":944372900},{"NoteNumber":77,"Velocity":81,"Duration":77720,"SoundDuration":77720,"Delta":944521415},{"NoteNumber":65,"Velocity":69,"Duration":77720,"SoundDuration":77720,"Delta":944521415},{"NoteNumber":58,"Velocity":70,"Duration":77720,"SoundDuration":77720,"Delta":944521415},{"NoteNumber":46,"Velocity":58,"Duration":77720,"SoundDuration":77720,"Delta":944521415},{"NoteNumber":87,"Velocity":89,"Duration":71770,"SoundDuration":71770,"Delta":944676856},{"NoteNumber":84,"Velocity":75,"Duration":71770,"SoundDuration":71770,"Delta":944676856},{"NoteNumber":75,"Velocity":75,"Duration":71770,"SoundDuration":71770,"Delta":944676856},{"NoteNumber":57,"Velocity":73,"Duration":287080,"SoundDuration":287080,"Delta":944676856},{"NoteNumber":45,"Velocity":61,"Duration":287080,"SoundDuration":287080,"Delta":944676856},{"NoteNumber":48,"Velocity":61,"Duration":287080,"SoundDuration":287080,"Delta":944676856},{"NoteNumber":53,"Velocity":61,"Duration":287080,"SoundDuration":287080,"Delta":944676856},{"NoteNumber":87,"Velocity":81,"Duration":71770,"SoundDuration":71770,"Delta":944820396},{"NoteNumber":84,"Velocity":69,"Duration":71770,"SoundDuration":71770,"Delta":944820396},{"NoteNumber":75,"Velocity":69,"Duration":71770,"SoundDuration":71770,"Delta":944820396},{"NoteNumber":58,"Velocity":69,"Duration":292683,"SoundDuration":292683,"Delta":944963937},{"NoteNumber":46,"Velocity":58,"Duration":292683,"SoundDuration":292683,"Delta":944963937},{"NoteNumber":50,"Velocity":58,"Duration":292683,"SoundDuration":292683,"Delta":944963937},{"NoteNumber":53,"Velocity":58,"Duration":292683,"SoundDuration":292683,"Delta":944963937},{"NoteNumber":86,"Velocity":81,"Duration":73170,"SoundDuration":73170,"Delta":945110278},{"NoteNumber":77,"Velocity":69,"Duration":73170,"SoundDuration":73170,"Delta":945110278},{"NoteNumber":74,"Velocity":69,"Duration":73170,"SoundDuration":73170,"Delta":945110278},{"NoteNumber":86,"Velocity":89,"Duration":73170,"SoundDuration":73170,"Delta":945256620},{"NoteNumber":74,"Velocity":75,"Duration":73170,"SoundDuration":73170,"Delta":945256620},{"NoteNumber":77,"Velocity":75,"Duration":73170,"SoundDuration":73170,"Delta":945256620},{"NoteNumber":51,"Velocity":72,"Duration":292683,"SoundDuration":292683,"Delta":945256620},{"NoteNumber":39,"Velocity":60,"Duration":292683,"SoundDuration":292683,"Delta":945256620},{"NoteNumber":43,"Velocity":60,"Duration":292683,"SoundDuration":292683,"Delta":945256620},{"NoteNumber":48,"Velocity":60,"Duration":292683,"SoundDuration":292683,"Delta":945256620},{"NoteNumber":84,"Velocity":82,"Duration":73170,"SoundDuration":73170,"Delta":945402961},{"NoteNumber":72,"Velocity":70,"Duration":73170,"SoundDuration":73170,"Delta":945402961},{"NoteNumber":75,"Velocity":70,"Duration":73170,"SoundDuration":73170,"Delta":945402961},{"NoteNumber":82,"Velocity":82,"Duration":73170,"SoundDuration":73170,"Delta":945549303},{"NoteNumber":70,"Velocity":70,"Duration":73170,"SoundDuration":73170,"Delta":945549303},{"NoteNumber":74,"Velocity":70,"Duration":73170,"SoundDuration":73170,"Delta":945549303},{"NoteNumber":53,"Velocity":67,"Duration":292683,"SoundDuration":292683,"Delta":945549303},{"NoteNumber":41,"Velocity":56,"Duration":292683,"SoundDuration":292683,"Delta":945549303},{"NoteNumber":48,"Velocity":56,"Duration":292683,"SoundDuration":292683,"Delta":945549303},{"NoteNumber":51,"Velocity":56,"Duration":292683,"SoundDuration":292683,"Delta":945549303},{"NoteNumber":81,"Velocity":82,"Duration":73170,"SoundDuration":73170,"Delta":945695644},{"NoteNumber":69,"Velocity":70,"Duration":73170,"SoundDuration":73170,"Delta":945695644},{"NoteNumber":72,"Velocity":70,"Duration":73170,"SoundDuration":73170,"Delta":945695644},{"NoteNumber":82,"Velocity":91,"Duration":301508,"SoundDuration":301508,"Delta":945841986},{"NoteNumber":70,"Velocity":67,"Duration":301508,"SoundDuration":301508,"Delta":945841986},{"NoteNumber":46,"Velocity":73,"Duration":301508,"SoundDuration":301508,"Delta":945841986},{"NoteNumber":50,"Velocity":73,"Duration":301508,"SoundDuration":301508,"Delta":945841986},{"NoteNumber":58,"Velocity":90,"Duration":301508,"SoundDuration":301508,"Delta":945841986},{"NoteNumber":86,"Velocity":97,"Duration":621015,"SoundDuration":621015,"Delta":946143494},{"NoteNumber":74,"Velocity":76,"Duration":621015,"SoundDuration":621015,"Delta":946143494},{"NoteNumber":77,"Velocity":81,"Duration":621015,"SoundDuration":621015,"Delta":946143494},{"NoteNumber":46,"Velocity":73,"Duration":76142,"SoundDuration":76142,"Delta":946143494},{"NoteNumber":34,"Velocity":61,"Duration":76142,"SoundDuration":76142,"Delta":946143494},{"NoteNumber":41,"Velocity":65,"Duration":83465,"SoundDuration":83465,"Delta":946295778},{"NoteNumber":29,"Velocity":54,"Duration":83465,"SoundDuration":83465,"Delta":946295778},{"NoteNumber":46,"Velocity":73,"Duration":74257,"SoundDuration":74257,"Delta":946467479},{"NoteNumber":34,"Velocity":61,"Duration":74257,"SoundDuration":74257,"Delta":946467479},{"NoteNumber":53,"Velocity":64,"Duration":74257,"SoundDuration":74257,"Delta":946615994},{"NoteNumber":41,"Velocity":53,"Duration":74257,"SoundDuration":74257,"Delta":946615994},{"NoteNumber":82,"Velocity":89,"Duration":70093,"SoundDuration":70093,"Delta":946764509},{"NoteNumber":70,"Velocity":75,"Duration":70093,"SoundDuration":70093,"Delta":946764509},{"NoteNumber":62,"Velocity":67,"Duration":70093,"SoundDuration":70093,"Delta":946764509},{"NoteNumber":50,"Velocity":56,"Duration":70093,"SoundDuration":70093,"Delta":946764509},{"NoteNumber":77,"Velocity":81,"Duration":76530,"SoundDuration":76530,"Delta":946904696},{"NoteNumber":65,"Velocity":69,"Duration":76530,"SoundDuration":76530,"Delta":946904696},{"NoteNumber":58,"Velocity":70,"Duration":76530,"SoundDuration":76530,"Delta":946904696},{"NoteNumber":46,"Velocity":58,"Duration":76530,"SoundDuration":76530,"Delta":946904696},{"NoteNumber":87,"Velocity":89,"Duration":72115,"SoundDuration":72115,"Delta":947057757},{"NoteNumber":84,"Velocity":75,"Duration":72115,"SoundDuration":72115,"Delta":947057757},{"NoteNumber":75,"Velocity":75,"Duration":72115,"SoundDuration":72115,"Delta":947057757},{"NoteNumber":57,"Velocity":73,"Duration":288461,"SoundDuration":288461,"Delta":947057757},{"NoteNumber":45,"Velocity":61,"Duration":288461,"SoundDuration":288461,"Delta":947057757},{"NoteNumber":48,"Velocity":61,"Duration":288461,"SoundDuration":288461,"Delta":947057757},{"NoteNumber":53,"Velocity":61,"Duration":288461,"SoundDuration":288461,"Delta":947057757},{"NoteNumber":87,"Velocity":81,"Duration":72115,"SoundDuration":72115,"Delta":947201988},{"NoteNumber":84,"Velocity":69,"Duration":72115,"SoundDuration":72115,"Delta":947201988},{"NoteNumber":75,"Velocity":69,"Duration":72115,"SoundDuration":72115,"Delta":947201988},{"NoteNumber":58,"Velocity":69,"Duration":300905,"SoundDuration":300905,"Delta":947346219},{"NoteNumber":46,"Velocity":58,"Duration":300905,"SoundDuration":300905,"Delta":947346219},{"NoteNumber":50,"Velocity":58,"Duration":300905,"SoundDuration":300905,"Delta":947346219},{"NoteNumber":53,"Velocity":58,"Duration":300905,"SoundDuration":300905,"Delta":947346219},{"NoteNumber":86,"Velocity":81,"Duration":73529,"SoundDuration":73529,"Delta":947500065},{"NoteNumber":77,"Velocity":69,"Duration":73529,"SoundDuration":73529,"Delta":947500065},{"NoteNumber":74,"Velocity":69,"Duration":73529,"SoundDuration":73529,"Delta":947500065},{"NoteNumber":86,"Velocity":89,"Duration":73529,"SoundDuration":73529,"Delta":947647124},{"NoteNumber":74,"Velocity":75,"Duration":73529,"SoundDuration":73529,"Delta":947647124},{"NoteNumber":77,"Velocity":75,"Duration":73529,"SoundDuration":73529,"Delta":947647124},{"NoteNumber":51,"Velocity":72,"Duration":294118,"SoundDuration":294118,"Delta":947647124},{"NoteNumber":39,"Velocity":60,"Duration":294118,"SoundDuration":294118,"Delta":947647124},{"NoteNumber":43,"Velocity":60,"Duration":294118,"SoundDuration":294118,"Delta":947647124},{"NoteNumber":48,"Velocity":60,"Duration":294118,"SoundDuration":294118,"Delta":947647124},{"NoteNumber":84,"Velocity":82,"Duration":73529,"SoundDuration":73529,"Delta":947794183},{"NoteNumber":72,"Velocity":70,"Duration":73529,"SoundDuration":73529,"Delta":947794183},{"NoteNumber":75,"Velocity":70,"Duration":73529,"SoundDuration":73529,"Delta":947794183},{"NoteNumber":82,"Velocity":82,"Duration":73529,"SoundDuration":73529,"Delta":947941242},{"NoteNumber":70,"Velocity":70,"Duration":73529,"SoundDuration":73529,"Delta":947941242},{"NoteNumber":74,"Velocity":70,"Duration":73529,"SoundDuration":73529,"Delta":947941242},{"NoteNumber":53,"Velocity":67,"Duration":294117,"SoundDuration":294117,"Delta":947941242},{"NoteNumber":41,"Velocity":56,"Duration":294117,"SoundDuration":294117,"Delta":947941242},{"NoteNumber":48,"Velocity":56,"Duration":294117,"SoundDuration":294117,"Delta":947941242},{"NoteNumber":51,"Velocity":56,"Duration":294117,"SoundDuration":294117,"Delta":947941242},{"NoteNumber":81,"Velocity":82,"Duration":73529,"SoundDuration":73529,"Delta":948088301},{"NoteNumber":69,"Velocity":70,"Duration":73529,"SoundDuration":73529,"Delta":948088301},{"NoteNumber":72,"Velocity":70,"Duration":73529,"SoundDuration":73529,"Delta":948088301},{"NoteNumber":82,"Velocity":89,"Duration":77319,"SoundDuration":77319,"Delta":948235360},{"NoteNumber":70,"Velocity":75,"Duration":77319,"SoundDuration":77319,"Delta":948235360},{"NoteNumber":74,"Velocity":75,"Duration":77319,"SoundDuration":77319,"Delta":948235360},{"NoteNumber":46,"Velocity":73,"Duration":77319,"SoundDuration":77319,"Delta":948235360},{"NoteNumber":50,"Velocity":73,"Duration":77319,"SoundDuration":77319,"Delta":948235360},{"NoteNumber":58,"Velocity":84,"Duration":77319,"SoundDuration":77319,"Delta":948235360},{"NoteNumber":77,"Velocity":82,"Duration":73529,"SoundDuration":73529,"Delta":948389999},{"NoteNumber":74,"Velocity":70,"Duration":73529,"SoundDuration":73529,"Delta":948389999},{"NoteNumber":62,"Velocity":50,"Duration":73529,"SoundDuration":73529,"Delta":948389999},{"NoteNumber":65,"Velocity":61,"Duration":73529,"SoundDuration":73529,"Delta":948389999},{"NoteNumber":58,"Velocity":50,"Duration":73529,"SoundDuration":73529,"Delta":948389999},{"NoteNumber":82,"Velocity":82,"Duration":71428,"SoundDuration":71428,"Delta":948537058},{"NoteNumber":70,"Velocity":70,"Duration":71428,"SoundDuration":71428,"Delta":948537058},{"NoteNumber":74,"Velocity":70,"Duration":71428,"SoundDuration":71428,"Delta":948537058},{"NoteNumber":53,"Velocity":80,"Duration":71428,"SoundDuration":71428,"Delta":948537058},{"NoteNumber":86,"Velocity":82,"Duration":76922,"SoundDuration":76922,"Delta":948679915},{"NoteNumber":74,"Velocity":70,"Duration":76922,"SoundDuration":76922,"Delta":948679915},{"NoteNumber":77,"Velocity":70,"Duration":76922,"SoundDuration":76922,"Delta":948679915},{"NoteNumber":62,"Velocity":50,"Duration":76922,"SoundDuration":76922,"Delta":948679915},{"NoteNumber":65,"Velocity":61,"Duration":76922,"SoundDuration":76922,"Delta":948679915},{"NoteNumber":58,"Velocity":50,"Duration":76922,"SoundDuration":76922,"Delta":948679915},{"NoteNumber":86,"Velocity":89,"Duration":73529,"SoundDuration":73529,"Delta":948833761},{"NoteNumber":74,"Velocity":75,"Duration":73529,"SoundDuration":73529,"Delta":948833761},{"NoteNumber":77,"Velocity":75,"Duration":73529,"SoundDuration":73529,"Delta":948833761},{"NoteNumber":41,"Velocity":73,"Duration":73529,"SoundDuration":73529,"Delta":948833761},{"NoteNumber":53,"Velocity":84,"Duration":73529,"SoundDuration":73529,"Delta":948833761},{"NoteNumber":84,"Velocity":82,"Duration":73529,"SoundDuration":73529,"Delta":948980820},{"NoteNumber":72,"Velocity":70,"Duration":73529,"SoundDuration":73529,"Delta":948980820},{"NoteNumber":75,"Velocity":70,"Duration":73529,"SoundDuration":73529,"Delta":948980820},{"NoteNumber":63,"Velocity":50,"Duration":73529,"SoundDuration":73529,"Delta":948980820},{"NoteNumber":65,"Velocity":61,"Duration":73529,"SoundDuration":73529,"Delta":948980820},{"NoteNumber":60,"Velocity":50,"Duration":73529,"SoundDuration":73529,"Delta":948980820},{"NoteNumber":82,"Velocity":82,"Duration":73529,"SoundDuration":73529,"Delta":949127879},{"NoteNumber":70,"Velocity":70,"Duration":73529,"SoundDuration":73529,"Delta":949127879},{"NoteNumber":74,"Velocity":70,"Duration":73529,"SoundDuration":73529,"Delta":949127879},{"NoteNumber":53,"Velocity":80,"Duration":73529,"SoundDuration":73529,"Delta":949127879},{"NoteNumber":81,"Velocity":82,"Duration":73529,"SoundDuration":73529,"Delta":949274938},{"NoteNumber":69,"Velocity":70,"Duration":73529,"SoundDuration":73529,"Delta":949274938},{"NoteNumber":72,"Velocity":70,"Duration":73529,"SoundDuration":73529,"Delta":949274938},{"NoteNumber":63,"Velocity":50,"Duration":73529,"SoundDuration":73529,"Delta":949274938},{"NoteNumber":65,"Velocity":61,"Duration":73529,"SoundDuration":73529,"Delta":949274938},{"NoteNumber":60,"Velocity":50,"Duration":73529,"SoundDuration":73529,"Delta":949274938},{"NoteNumber":82,"Velocity":89,"Duration":76530,"SoundDuration":76530,"Delta":949421997},{"NoteNumber":70,"Velocity":75,"Duration":76530,"SoundDuration":76530,"Delta":949421997},{"NoteNumber":74,"Velocity":75,"Duration":76530,"SoundDuration":76530,"Delta":949421997},{"NoteNumber":46,"Velocity":73,"Duration":76530,"SoundDuration":76530,"Delta":949421997},{"NoteNumber":50,"Velocity":73,"Duration":76530,"SoundDuration":76530,"Delta":949421997},{"NoteNumber":58,"Velocity":84,"Duration":76530,"SoundDuration":76530,"Delta":949421997},{"NoteNumber":77,"Velocity":82,"Duration":73529,"SoundDuration":73529,"Delta":949575058},{"NoteNumber":74,"Velocity":70,"Duration":73529,"SoundDuration":73529,"Delta":949575058},{"NoteNumber":62,"Velocity":50,"Duration":73529,"SoundDuration":73529,"Delta":949575058},{"NoteNumber":65,"Velocity":61,"Duration":73529,"SoundDuration":73529,"Delta":949575058},{"NoteNumber":58,"Velocity":50,"Duration":73529,"SoundDuration":73529,"Delta":949575058},{"NoteNumber":82,"Velocity":82,"Duration":71428,"SoundDuration":71428,"Delta":949722117},{"NoteNumber":70,"Velocity":70,"Duration":71428,"SoundDuration":71428,"Delta":949722117},{"NoteNumber":74,"Velocity":70,"Duration":71428,"SoundDuration":71428,"Delta":949722117},{"NoteNumber":53,"Velocity":80,"Duration":71428,"SoundDuration":71428,"Delta":949722117},{"NoteNumber":86,"Velocity":82,"Duration":76922,"SoundDuration":76922,"Delta":949864974},{"NoteNumber":74,"Velocity":70,"Duration":76922,"SoundDuration":76922,"Delta":949864974},{"NoteNumber":77,"Velocity":70,"Duration":76922,"SoundDuration":76922,"Delta":949864974},{"NoteNumber":62,"Velocity":50,"Duration":76922,"SoundDuration":76922,"Delta":949864974},{"NoteNumber":65,"Velocity":61,"Duration":76922,"SoundDuration":76922,"Delta":949864974},{"NoteNumber":58,"Velocity":50,"Duration":76922,"SoundDuration":76922,"Delta":949864974},{"NoteNumber":86,"Velocity":89,"Duration":73170,"SoundDuration":73170,"Delta":950018820},{"NoteNumber":74,"Velocity":75,"Duration":73170,"SoundDuration":73170,"Delta":950018820},{"NoteNumber":77,"Velocity":75,"Duration":73170,"SoundDuration":73170,"Delta":950018820},{"NoteNumber":41,"Velocity":73,"Duration":73170,"SoundDuration":73170,"Delta":950018820},{"NoteNumber":53,"Velocity":84,"Duration":73170,"SoundDuration":73170,"Delta":950018820},{"NoteNumber":84,"Velocity":82,"Duration":73170,"SoundDuration":73170,"Delta":950165162},{"NoteNumber":72,"Velocity":70,"Duration":73170,"SoundDuration":73170,"Delta":950165162},{"NoteNumber":75,"Velocity":70,"Duration":73170,"SoundDuration":73170,"Delta":950165162},{"NoteNumber":63,"Velocity":50,"Duration":73170,"SoundDuration":73170,"Delta":950165162},{"NoteNumber":65,"Velocity":61,"Duration":73170,"SoundDuration":73170,"Delta":950165162},{"NoteNumber":60,"Velocity":50,"Duration":73170,"SoundDuration":73170,"Delta":950165162},{"NoteNumber":82,"Velocity":82,"Duration":73170,"SoundDuration":73170,"Delta":950311503},{"NoteNumber":70,"Velocity":70,"Duration":73170,"SoundDuration":73170,"Delta":950311503},{"NoteNumber":74,"Velocity":70,"Duration":73170,"SoundDuration":73170,"Delta":950311503},{"NoteNumber":53,"Velocity":80,"Duration":73170,"SoundDuration":73170,"Delta":950311503},{"NoteNumber":81,"Velocity":82,"Duration":73170,"SoundDuration":73170,"Delta":950457845},{"NoteNumber":69,"Velocity":70,"Duration":73170,"SoundDuration":73170,"Delta":950457845},{"NoteNumber":72,"Velocity":70,"Duration":73170,"SoundDuration":73170,"Delta":950457845},{"NoteNumber":63,"Velocity":50,"Duration":73170,"SoundDuration":73170,"Delta":950457845},{"NoteNumber":65,"Velocity":61,"Duration":73170,"SoundDuration":73170,"Delta":950457845},{"NoteNumber":60,"Velocity":50,"Duration":73170,"SoundDuration":73170,"Delta":950457845},{"NoteNumber":86,"Velocity":92,"Duration":450368,"SoundDuration":450368,"Delta":950604186},{"NoteNumber":74,"Velocity":79,"Duration":450368,"SoundDuration":450368,"Delta":950604186},{"NoteNumber":77,"Velocity":75,"Duration":450368,"SoundDuration":450368,"Delta":950604186},{"NoteNumber":41,"Velocity":73,"Duration":78125,"SoundDuration":78125,"Delta":950604186},{"NoteNumber":53,"Velocity":84,"Duration":78125,"SoundDuration":78125,"Delta":950604186},{"NoteNumber":53,"Velocity":46,"Duration":73529,"SoundDuration":73529,"Delta":950760436},{"NoteNumber":62,"Velocity":46,"Duration":73529,"SoundDuration":73529,"Delta":950760436},{"NoteNumber":65,"Velocity":56,"Duration":73529,"SoundDuration":73529,"Delta":950760436},{"NoteNumber":58,"Velocity":46,"Duration":73529,"SoundDuration":73529,"Delta":950760436},{"NoteNumber":53,"Velocity":46,"Duration":73529,"SoundDuration":73529,"Delta":950907495},{"NoteNumber":58,"Velocity":46,"Duration":73529,"SoundDuration":73529,"Delta":950907495},{"NoteNumber":62,"Velocity":46,"Duration":73529,"SoundDuration":73529,"Delta":950907495},{"NoteNumber":65,"Velocity":56,"Duration":73529,"SoundDuration":73529,"Delta":950907495},{"NoteNumber":82,"Velocity":86,"Duration":158729,"SoundDuration":158729,"Delta":951054554},{"NoteNumber":70,"Velocity":74,"Duration":158729,"SoundDuration":158729,"Delta":951054554},{"NoteNumber":87,"Velocity":93,"Duration":457758,"SoundDuration":457758,"Delta":951213284},{"NoteNumber":75,"Velocity":75,"Duration":457758,"SoundDuration":457758,"Delta":951213284},{"NoteNumber":81,"Velocity":79,"Duration":457758,"SoundDuration":457758,"Delta":951213284},{"NoteNumber":41,"Velocity":73,"Duration":78125,"SoundDuration":78125,"Delta":951213284},{"NoteNumber":53,"Velocity":84,"Duration":78125,"SoundDuration":78125,"Delta":951213284},{"NoteNumber":53,"Velocity":46,"Duration":75377,"SoundDuration":75377,"Delta":951369534},{"NoteNumber":63,"Velocity":46,"Duration":75377,"SoundDuration":75377,"Delta":951369534},{"NoteNumber":65,"Velocity":56,"Duration":75377,"SoundDuration":75377,"Delta":951369534},{"NoteNumber":57,"Velocity":46,"Duration":75377,"SoundDuration":75377,"Delta":951369534},{"NoteNumber":53,"Velocity":46,"Duration":75377,"SoundDuration":75377,"Delta":951520288},{"NoteNumber":57,"Velocity":46,"Duration":75377,"SoundDuration":75377,"Delta":951520288},{"NoteNumber":63,"Velocity":46,"Duration":75377,"SoundDuration":75377,"Delta":951520288},{"NoteNumber":65,"Velocity":56,"Duration":75377,"SoundDuration":75377,"Delta":951520288},{"NoteNumber":75,"Velocity":70,"Duration":172414,"SoundDuration":172414,"Delta":951671042},{"NoteNumber":84,"Velocity":82,"Duration":172414,"SoundDuration":172414,"Delta":951671042},{"NoteNumber":72,"Velocity":70,"Duration":172414,"SoundDuration":172414,"Delta":951671042},{"NoteNumber":82,"Velocity":89,"Duration":143312,"SoundDuration":143312,"Delta":951843456},{"NoteNumber":70,"Velocity":75,"Duration":143312,"SoundDuration":143312,"Delta":951843456},{"NoteNumber":74,"Velocity":75,"Duration":143312,"SoundDuration":143312,"Delta":951843456},{"NoteNumber":41,"Velocity":73,"Duration":143312,"SoundDuration":143312,"Delta":951843456},{"NoteNumber":53,"Velocity":84,"Duration":143312,"SoundDuration":143312,"Delta":951843456},{"NoteNumber":77,"Velocity":70,"Duration":44910,"SoundDuration":44910,"Delta":952034539},{"NoteNumber":89,"Velocity":82,"Duration":44910,"SoundDuration":44910,"Delta":952034539},{"NoteNumber":86,"Velocity":70,"Duration":44910,"SoundDuration":44910,"Delta":952034539},{"NoteNumber":53,"Velocity":46,"Duration":44910,"SoundDuration":44910,"Delta":952034539},{"NoteNumber":62,"Velocity":46,"Duration":44910,"SoundDuration":44910,"Delta":952034539},{"NoteNumber":65,"Velocity":56,"Duration":44910,"SoundDuration":44910,"Delta":952034539},{"NoteNumber":58,"Velocity":46,"Duration":44910,"SoundDuration":44910,"Delta":952034539},{"NoteNumber":94,"Velocity":82,"Duration":44910,"SoundDuration":44910,"Delta":952214180},{"NoteNumber":82,"Velocity":70,"Duration":44910,"SoundDuration":44910,"Delta":952214180},{"NoteNumber":86,"Velocity":70,"Duration":44910,"SoundDuration":44910,"Delta":952214180},{"NoteNumber":53,"Velocity":46,"Duration":44910,"SoundDuration":44910,"Delta":952214180},{"NoteNumber":58,"Velocity":46,"Duration":44910,"SoundDuration":44910,"Delta":952214180},{"NoteNumber":65,"Velocity":56,"Duration":44910,"SoundDuration":44910,"Delta":952214180},{"NoteNumber":62,"Velocity":46,"Duration":44910,"SoundDuration":44910,"Delta":952214180},{"NoteNumber":98,"Velocity":82,"Duration":50675,"SoundDuration":50675,"Delta":952393820},{"NoteNumber":86,"Velocity":70,"Duration":50675,"SoundDuration":50675,"Delta":952393820},{"NoteNumber":89,"Velocity":70,"Duration":50675,"SoundDuration":50675,"Delta":952393820},{"NoteNumber":53,"Velocity":46,"Duration":50675,"SoundDuration":50675,"Delta":952393820},{"NoteNumber":62,"Velocity":46,"Duration":50675,"SoundDuration":50675,"Delta":952393820},{"NoteNumber":65,"Velocity":56,"Duration":50675,"SoundDuration":50675,"Delta":952393820},{"NoteNumber":58,"Velocity":46,"Duration":50675,"SoundDuration":50675,"Delta":952393820},{"NoteNumber":98,"Velocity":89,"Duration":46012,"SoundDuration":46012,"Delta":952596523},{"NoteNumber":86,"Velocity":75,"Duration":46012,"SoundDuration":46012,"Delta":952596523},{"NoteNumber":89,"Velocity":75,"Duration":46012,"SoundDuration":46012,"Delta":952596523},{"NoteNumber":53,"Velocity":69,"Duration":46012,"SoundDuration":46012,"Delta":952596523},{"NoteNumber":57,"Velocity":69,"Duration":46012,"SoundDuration":46012,"Delta":952596523},{"NoteNumber":63,"Velocity":70,"Duration":46012,"SoundDuration":46012,"Delta":952596523},{"NoteNumber":65,"Velocity":82,"Duration":46012,"SoundDuration":46012,"Delta":952596523},{"NoteNumber":96,"Velocity":82,"Duration":46012,"SoundDuration":46012,"Delta":952780572},{"NoteNumber":84,"Velocity":70,"Duration":46012,"SoundDuration":46012,"Delta":952780572},{"NoteNumber":87,"Velocity":70,"Duration":46012,"SoundDuration":46012,"Delta":952780572},{"NoteNumber":51,"Velocity":44,"Duration":46012,"SoundDuration":46012,"Delta":952780572},{"NoteNumber":48,"Velocity":44,"Duration":46012,"SoundDuration":46012,"Delta":952780572},{"NoteNumber":53,"Velocity":53,"Duration":46012,"SoundDuration":46012,"Delta":952780572},{"NoteNumber":41,"Velocity":44,"Duration":46012,"SoundDuration":46012,"Delta":952780572},{"NoteNumber":94,"Velocity":82,"Duration":46012,"SoundDuration":46012,"Delta":952964621},{"NoteNumber":82,"Velocity":70,"Duration":46012,"SoundDuration":46012,"Delta":952964621},{"NoteNumber":86,"Velocity":70,"Duration":46012,"SoundDuration":46012,"Delta":952964621},{"NoteNumber":41,"Velocity":44,"Duration":46012,"SoundDuration":46012,"Delta":952964621},{"NoteNumber":48,"Velocity":44,"Duration":46012,"SoundDuration":46012,"Delta":952964621},{"NoteNumber":51,"Velocity":44,"Duration":46012,"SoundDuration":46012,"Delta":952964621},{"NoteNumber":53,"Velocity":53,"Duration":46012,"SoundDuration":46012,"Delta":952964621},{"NoteNumber":93,"Velocity":82,"Duration":49019,"SoundDuration":49019,"Delta":953148670},{"NoteNumber":81,"Velocity":70,"Duration":49019,"SoundDuration":49019,"Delta":953148670},{"NoteNumber":84,"Velocity":70,"Duration":49019,"SoundDuration":49019,"Delta":953148670},{"NoteNumber":51,"Velocity":44,"Duration":49019,"SoundDuration":49019,"Delta":953148670},{"NoteNumber":48,"Velocity":44,"Duration":49019,"SoundDuration":49019,"Delta":953148670},{"NoteNumber":53,"Velocity":53,"Duration":49019,"SoundDuration":49019,"Delta":953148670},{"NoteNumber":41,"Velocity":44,"Duration":49019,"SoundDuration":49019,"Delta":953148670},{"NoteNumber":94,"Velocity":89,"Duration":78125,"SoundDuration":78125,"Delta":953344748},{"NoteNumber":82,"Velocity":75,"Duration":78125,"SoundDuration":78125,"Delta":953344748},{"NoteNumber":86,"Velocity":75,"Duration":78125,"SoundDuration":78125,"Delta":953344748},{"NoteNumber":46,"Velocity":73,"Duration":78125,"SoundDuration":78125,"Delta":953344748},{"NoteNumber":50,"Velocity":73,"Duration":78125,"SoundDuration":78125,"Delta":953344748},{"NoteNumber":58,"Velocity":84,"Duration":78125,"SoundDuration":78125,"Delta":953344748},{"NoteNumber":47,"Velocity":40,"Duration":72463,"SoundDuration":72463,"Delta":953500998},{"NoteNumber":35,"Velocity":34,"Duration":72463,"SoundDuration":72463,"Delta":953500998},{"NoteNumber":46,"Velocity":40,"Duration":72463,"SoundDuration":72463,"Delta":953645926},{"NoteNumber":34,"Velocity":34,"Duration":72463,"SoundDuration":72463,"Delta":953645926},{"NoteNumber":47,"Velocity":40,"Duration":76142,"SoundDuration":76142,"Delta":953790853},{"NoteNumber":35,"Velocity":34,"Duration":76142,"SoundDuration":76142,"Delta":953790853},{"NoteNumber":70,"Velocity":48,"Duration":289854,"SoundDuration":289854,"Delta":953943138},{"NoteNumber":58,"Velocity":40,"Duration":289854,"SoundDuration":289854,"Delta":953943138},{"NoteNumber":62,"Velocity":40,"Duration":289854,"SoundDuration":289854,"Delta":953943138},{"NoteNumber":65,"Velocity":40,"Duration":289854,"SoundDuration":289854,"Delta":953943138},{"NoteNumber":46,"Velocity":48,"Duration":72463,"SoundDuration":72463,"Delta":953943138},{"NoteNumber":34,"Velocity":40,"Duration":72463,"SoundDuration":72463,"Delta":953943138},{"NoteNumber":51,"Velocity":39,"Duration":72463,"SoundDuration":72463,"Delta":954088065},{"NoteNumber":39,"Velocity":33,"Duration":72463,"SoundDuration":72463,"Delta":954088065},{"NoteNumber":70,"Velocity":45,"Duration":72463,"SoundDuration":72463,"Delta":954232993},{"NoteNumber":58,"Velocity":37,"Duration":72463,"SoundDuration":72463,"Delta":954232993},{"NoteNumber":62,"Velocity":37,"Duration":72463,"SoundDuration":72463,"Delta":954232993},{"NoteNumber":65,"Velocity":37,"Duration":72463,"SoundDuration":72463,"Delta":954232993},{"NoteNumber":50,"Velocity":39,"Duration":72463,"SoundDuration":72463,"Delta":954232993},{"NoteNumber":38,"Velocity":33,"Duration":72463,"SoundDuration":72463,"Delta":954232993},{"NoteNumber":70,"Velocity":44,"Duration":76530,"SoundDuration":76530,"Delta":954377920},{"NoteNumber":58,"Velocity":37,"Duration":76530,"SoundDuration":76530,"Delta":954377920},{"NoteNumber":62,"Velocity":37,"Duration":76530,"SoundDuration":76530,"Delta":954377920},{"NoteNumber":65,"Velocity":37,"Duration":76530,"SoundDuration":76530,"Delta":954377920},{"NoteNumber":47,"Velocity":39,"Duration":76530,"SoundDuration":76530,"Delta":954377920},{"NoteNumber":35,"Velocity":33,"Duration":76530,"SoundDuration":76530,"Delta":954377920},{"NoteNumber":75,"Velocity":48,"Duration":287080,"SoundDuration":287080,"Delta":954530981},{"NoteNumber":63,"Velocity":40,"Duration":287080,"SoundDuration":287080,"Delta":954530981},{"NoteNumber":66,"Velocity":40,"Duration":287080,"SoundDuration":287080,"Delta":954530981},{"NoteNumber":70,"Velocity":40,"Duration":287080,"SoundDuration":287080,"Delta":954530981},{"NoteNumber":46,"Velocity":45,"Duration":71770,"SoundDuration":71770,"Delta":954530981},{"NoteNumber":34,"Velocity":37,"Duration":71770,"SoundDuration":71770,"Delta":954530981},{"NoteNumber":47,"Velocity":39,"Duration":71770,"SoundDuration":71770,"Delta":954674522},{"NoteNumber":35,"Velocity":31,"Duration":71770,"SoundDuration":71770,"Delta":954674522},{"NoteNumber":75,"Velocity":45,"Duration":294294,"SoundDuration":294294,"Delta":954818062},{"NoteNumber":63,"Velocity":38,"Duration":294294,"SoundDuration":294294,"Delta":954818062},{"NoteNumber":66,"Velocity":38,"Duration":294294,"SoundDuration":294294,"Delta":954818062},{"NoteNumber":70,"Velocity":38,"Duration":294294,"SoundDuration":294294,"Delta":954818062},{"NoteNumber":46,"Velocity":39,"Duration":71770,"SoundDuration":71770,"Delta":954818062},{"NoteNumber":34,"Velocity":33,"Duration":71770,"SoundDuration":71770,"Delta":954818062},{"NoteNumber":47,"Velocity":39,"Duration":75377,"SoundDuration":75377,"Delta":954961603},{"NoteNumber":35,"Velocity":33,"Duration":75377,"SoundDuration":75377,"Delta":954961603},{"NoteNumber":75,"Velocity":51,"Duration":287080,"SoundDuration":287080,"Delta":955112357},{"NoteNumber":63,"Velocity":42,"Duration":287080,"SoundDuration":287080,"Delta":955112357},{"NoteNumber":66,"Velocity":42,"Duration":287080,"SoundDuration":287080,"Delta":955112357},{"NoteNumber":70,"Velocity":42,"Duration":287080,"SoundDuration":287080,"Delta":955112357},{"NoteNumber":46,"Velocity":51,"Duration":71770,"SoundDuration":71770,"Delta":955112357},{"NoteNumber":34,"Velocity":42,"Duration":71770,"SoundDuration":71770,"Delta":955112357},{"NoteNumber":51,"Velocity":42,"Duration":71770,"SoundDuration":71770,"Delta":955255897},{"NoteNumber":39,"Velocity":35,"Duration":71770,"SoundDuration":71770,"Delta":955255897},{"NoteNumber":78,"Velocity":49,"Duration":70754,"SoundDuration":70754,"Delta":955399438},{"NoteNumber":66,"Velocity":41,"Duration":70754,"SoundDuration":70754,"Delta":955399438},{"NoteNumber":70,"Velocity":41,"Duration":70754,"SoundDuration":70754,"Delta":955399438},{"NoteNumber":50,"Velocity":42,"Duration":70754,"SoundDuration":70754,"Delta":955399438},{"NoteNumber":38,"Velocity":35,"Duration":70754,"SoundDuration":70754,"Delta":955399438},{"NoteNumber":75,"Velocity":44,"Duration":75000,"SoundDuration":75000,"Delta":955540947},{"NoteNumber":63,"Velocity":37,"Duration":75000,"SoundDuration":75000,"Delta":955540947},{"NoteNumber":66,"Velocity":37,"Duration":75000,"SoundDuration":75000,"Delta":955540947},{"NoteNumber":47,"Velocity":42,"Duration":75000,"SoundDuration":75000,"Delta":955540947},{"NoteNumber":35,"Velocity":36,"Duration":75000,"SoundDuration":75000,"Delta":955540947},{"NoteNumber":74,"Velocity":49,"Duration":291261,"SoundDuration":291261,"Delta":955690947},{"NoteNumber":62,"Velocity":40,"Duration":291261,"SoundDuration":291261,"Delta":955690947},{"NoteNumber":65,"Velocity":40,"Duration":291261,"SoundDuration":291261,"Delta":955690947},{"NoteNumber":46,"Velocity":48,"Duration":72815,"SoundDuration":72815,"Delta":955690947},{"NoteNumber":34,"Velocity":39,"Duration":72815,"SoundDuration":72815,"Delta":955690947},{"NoteNumber":47,"Velocity":42,"Duration":72815,"SoundDuration":72815,"Delta":955836578},{"NoteNumber":35,"Velocity":36,"Duration":72815,"SoundDuration":72815,"Delta":955836578},{"NoteNumber":70,"Velocity":46,"Duration":291262,"SoundDuration":291262,"Delta":955982209},{"NoteNumber":58,"Velocity":38,"Duration":291262,"SoundDuration":291262,"Delta":955982209},{"NoteNumber":62,"Velocity":38,"Duration":291262,"SoundDuration":291262,"Delta":955982209},{"NoteNumber":46,"Velocity":44,"Duration":72815,"SoundDuration":72815,"Delta":955982209},{"NoteNumber":34,"Velocity":36,"Duration":72815,"SoundDuration":72815,"Delta":955982209},{"NoteNumber":47,"Velocity":44,"Duration":72815,"SoundDuration":72815,"Delta":956127840},{"NoteNumber":35,"Velocity":37,"Duration":72815,"SoundDuration":72815,"Delta":956127840},{"NoteNumber":82,"Velocity":55,"Duration":289854,"SoundDuration":289854,"Delta":956273471},{"NoteNumber":70,"Velocity":45,"Duration":289854,"SoundDuration":289854,"Delta":956273471},{"NoteNumber":74,"Velocity":45,"Duration":289854,"SoundDuration":289854,"Delta":956273471},{"NoteNumber":77,"Velocity":45,"Duration":289854,"SoundDuration":289854,"Delta":956273471},{"NoteNumber":46,"Velocity":52,"Duration":72463,"SoundDuration":72463,"Delta":956273471},{"NoteNumber":34,"Velocity":44,"Duration":72463,"SoundDuration":72463,"Delta":956273471},{"NoteNumber":51,"Velocity":42,"Duration":72463,"SoundDuration":72463,"Delta":956418399},{"NoteNumber":39,"Velocity":36,"Duration":72463,"SoundDuration":72463,"Delta":956418399},{"NoteNumber":82,"Velocity":52,"Duration":72463,"SoundDuration":72463,"Delta":956563326},{"NoteNumber":70,"Velocity":42,"Duration":72463,"SoundDuration":72463,"Delta":956563326},{"NoteNumber":74,"Velocity":42,"Duration":72463,"SoundDuration":72463,"Delta":956563326},{"NoteNumber":77,"Velocity":42,"Duration":72463,"SoundDuration":72463,"Delta":956563326},{"NoteNumber":50,"Velocity":44,"Duration":72463,"SoundDuration":72463,"Delta":956563326},{"NoteNumber":38,"Velocity":36,"Duration":72463,"SoundDuration":72463,"Delta":956563326},{"NoteNumber":82,"Velocity":51,"Duration":76530,"SoundDuration":76530,"Delta":956708254},{"NoteNumber":70,"Velocity":42,"Duration":76530,"SoundDuration":76530,"Delta":956708254},{"NoteNumber":74,"Velocity":42,"Duration":76530,"SoundDuration":76530,"Delta":956708254},{"NoteNumber":77,"Velocity":42,"Duration":76530,"SoundDuration":76530,"Delta":956708254},{"NoteNumber":47,"Velocity":44,"Duration":76530,"SoundDuration":76530,"Delta":956708254},{"NoteNumber":35,"Velocity":36,"Duration":76530,"SoundDuration":76530,"Delta":956708254},{"NoteNumber":87,"Velocity":56,"Duration":287080,"SoundDuration":287080,"Delta":956861315},{"NoteNumber":75,"Velocity":46,"Duration":287080,"SoundDuration":287080,"Delta":956861315},{"NoteNumber":78,"Velocity":46,"Duration":287080,"SoundDuration":287080,"Delta":956861315},{"NoteNumber":82,"Velocity":46,"Duration":287080,"SoundDuration":287080,"Delta":956861315},{"NoteNumber":46,"Velocity":50,"Duration":71770,"SoundDuration":71770,"Delta":956861315},{"NoteNumber":34,"Velocity":41,"Duration":71770,"SoundDuration":71770,"Delta":956861315},{"NoteNumber":47,"Velocity":42,"Duration":71770,"SoundDuration":71770,"Delta":957004855},{"NoteNumber":35,"Velocity":36,"Duration":71770,"SoundDuration":71770,"Delta":957004855},{"NoteNumber":87,"Velocity":51,"Duration":294294,"SoundDuration":294294,"Delta":957148396},{"NoteNumber":75,"Velocity":42,"Duration":294294,"SoundDuration":294294,"Delta":957148396},{"NoteNumber":78,"Velocity":42,"Duration":294294,"SoundDuration":294294,"Delta":957148396},{"NoteNumber":82,"Velocity":42,"Duration":294294,"SoundDuration":294294,"Delta":957148396},{"NoteNumber":46,"Velocity":42,"Duration":71770,"SoundDuration":71770,"Delta":957148396},{"NoteNumber":34,"Velocity":36,"Duration":71770,"SoundDuration":71770,"Delta":957148396},{"NoteNumber":47,"Velocity":44,"Duration":75377,"SoundDuration":75377,"Delta":957291936},{"NoteNumber":35,"Velocity":36,"Duration":75377,"SoundDuration":75377,"Delta":957291936},{"NoteNumber":87,"Velocity":59,"Duration":287080,"SoundDuration":287080,"Delta":957442690},{"NoteNumber":75,"Velocity":49,"Duration":287080,"SoundDuration":287080,"Delta":957442690},{"NoteNumber":78,"Velocity":49,"Duration":287080,"SoundDuration":287080,"Delta":957442690},{"NoteNumber":82,"Velocity":49,"Duration":287080,"SoundDuration":287080,"Delta":957442690},{"NoteNumber":46,"Velocity":57,"Duration":71770,"SoundDuration":71770,"Delta":957442690},{"NoteNumber":34,"Velocity":48,"Duration":71770,"SoundDuration":71770,"Delta":957442690},{"NoteNumber":51,"Velocity":46,"Duration":71770,"SoundDuration":71770,"Delta":957586231},{"NoteNumber":39,"Velocity":38,"Duration":71770,"SoundDuration":71770,"Delta":957586231},{"NoteNumber":90,"Velocity":57,"Duration":70754,"SoundDuration":70754,"Delta":957729771},{"NoteNumber":78,"Velocity":47,"Duration":70754,"SoundDuration":70754,"Delta":957729771},{"NoteNumber":82,"Velocity":47,"Duration":70754,"SoundDuration":70754,"Delta":957729771},{"NoteNumber":50,"Velocity":47,"Duration":70754,"SoundDuration":70754,"Delta":957729771},{"NoteNumber":38,"Velocity":39,"Duration":70754,"SoundDuration":70754,"Delta":957729771},{"NoteNumber":87,"Velocity":50,"Duration":75000,"SoundDuration":75000,"Delta":957871281},{"NoteNumber":75,"Velocity":41,"Duration":75000,"SoundDuration":75000,"Delta":957871281},{"NoteNumber":78,"Velocity":41,"Duration":75000,"SoundDuration":75000,"Delta":957871281},{"NoteNumber":47,"Velocity":47,"Duration":75000,"SoundDuration":75000,"Delta":957871281},{"NoteNumber":35,"Velocity":39,"Duration":75000,"SoundDuration":75000,"Delta":957871281},{"NoteNumber":86,"Velocity":56,"Duration":291261,"SoundDuration":291261,"Delta":958021281},{"NoteNumber":74,"Velocity":46,"Duration":291261,"SoundDuration":291261,"Delta":958021281},{"NoteNumber":77,"Velocity":46,"Duration":291261,"SoundDuration":291261,"Delta":958021281},{"NoteNumber":46,"Velocity":52,"Duration":72815,"SoundDuration":72815,"Delta":958021281},{"NoteNumber":34,"Velocity":44,"Duration":72815,"SoundDuration":72815,"Delta":958021281},{"NoteNumber":47,"Velocity":48,"Duration":72815,"SoundDuration":72815,"Delta":958166912},{"NoteNumber":35,"Velocity":39,"Duration":72815,"SoundDuration":72815,"Delta":958166912},{"NoteNumber":77,"Velocity":58,"Duration":291262,"SoundDuration":291262,"Delta":958312543},{"NoteNumber":89,"Velocity":58,"Duration":291262,"SoundDuration":291262,"Delta":958312543},{"NoteNumber":82,"Velocity":58,"Duration":291262,"SoundDuration":291262,"Delta":958312543},{"NoteNumber":86,"Velocity":58,"Duration":291262,"SoundDuration":291262,"Delta":958312543},{"NoteNumber":46,"Velocity":48,"Duration":72815,"SoundDuration":72815,"Delta":958312543},{"NoteNumber":34,"Velocity":40,"Duration":72815,"SoundDuration":72815,"Delta":958312543},{"NoteNumber":47,"Velocity":48,"Duration":72815,"SoundDuration":72815,"Delta":958458174},{"NoteNumber":35,"Velocity":40,"Duration":72815,"SoundDuration":72815,"Delta":958458174},{"NoteNumber":90,"Velocity":66,"Duration":288461,"SoundDuration":288461,"Delta":958603805},{"NoteNumber":78,"Velocity":56,"Duration":288461,"SoundDuration":288461,"Delta":958603805},{"NoteNumber":82,"Velocity":56,"Duration":288461,"SoundDuration":288461,"Delta":958603805},{"NoteNumber":87,"Velocity":56,"Duration":288461,"SoundDuration":288461,"Delta":958603805},{"NoteNumber":46,"Velocity":59,"Duration":72115,"SoundDuration":72115,"Delta":958603805},{"NoteNumber":34,"Velocity":49,"Duration":72115,"SoundDuration":72115,"Delta":958603805},{"NoteNumber":54,"Velocity":51,"Duration":72115,"SoundDuration":72115,"Delta":958748036},{"NoteNumber":42,"Velocity":42,"Duration":72115,"SoundDuration":72115,"Delta":958748036},{"NoteNumber":87,"Velocity":57,"Duration":289854,"SoundDuration":289854,"Delta":958892267},{"NoteNumber":75,"Velocity":48,"Duration":289854,"SoundDuration":289854,"Delta":958892267},{"NoteNumber":78,"Velocity":48,"Duration":289854,"SoundDuration":289854,"Delta":958892267},{"NoteNumber":82,"Velocity":48,"Duration":289854,"SoundDuration":289854,"Delta":958892267},{"NoteNumber":51,"Velocity":59,"Duration":72463,"SoundDuration":72463,"Delta":958892267},{"NoteNumber":39,"Velocity":49,"Duration":72463,"SoundDuration":72463,"Delta":958892267},{"NoteNumber":47,"Velocity":52,"Duration":72463,"SoundDuration":72463,"Delta":959037194},{"NoteNumber":35,"Velocity":44,"Duration":72463,"SoundDuration":72463,"Delta":959037194},{"NoteNumber":86,"Velocity":62,"Duration":287080,"SoundDuration":287080,"Delta":959182122},{"NoteNumber":82,"Velocity":52,"Duration":287080,"SoundDuration":287080,"Delta":959182122},{"NoteNumber":77,"Velocity":52,"Duration":287080,"SoundDuration":287080,"Delta":959182122},{"NoteNumber":74,"Velocity":52,"Duration":287080,"SoundDuration":287080,"Delta":959182122},{"NoteNumber":46,"Velocity":62,"Duration":71770,"SoundDuration":71770,"Delta":959182122},{"NoteNumber":34,"Velocity":52,"Duration":71770,"SoundDuration":71770,"Delta":959182122},{"NoteNumber":47,"Velocity":55,"Duration":71770,"SoundDuration":71770,"Delta":959325662},{"NoteNumber":35,"Velocity":46,"Duration":71770,"SoundDuration":71770,"Delta":959325662},{"NoteNumber":89,"Velocity":60,"Duration":289854,"SoundDuration":289854,"Delta":959469203},{"NoteNumber":86,"Velocity":50,"Duration":289854,"SoundDuration":289854,"Delta":959469203},{"NoteNumber":82,"Velocity":50,"Duration":289854,"SoundDuration":289854,"Delta":959469203},{"NoteNumber":77,"Velocity":50,"Duration":289854,"SoundDuration":289854,"Delta":959469203},{"NoteNumber":46,"Velocity":61,"Duration":72463,"SoundDuration":72463,"Delta":959469203},{"NoteNumber":34,"Velocity":51,"Duration":72463,"SoundDuration":72463,"Delta":959469203},{"NoteNumber":47,"Velocity":56,"Duration":72463,"SoundDuration":72463,"Delta":959614130},{"NoteNumber":35,"Velocity":47,"Duration":72463,"SoundDuration":72463,"Delta":959614130},{"NoteNumber":90,"Velocity":64,"Duration":285713,"SoundDuration":285713,"Delta":959759058},{"NoteNumber":87,"Velocity":55,"Duration":285713,"SoundDuration":285713,"Delta":959759058},{"NoteNumber":82,"Velocity":55,"Duration":285713,"SoundDuration":285713,"Delta":959759058},{"NoteNumber":78,"Velocity":55,"Duration":285713,"SoundDuration":285713,"Delta":959759058},{"NoteNumber":46,"Velocity":61,"Duration":71428,"SoundDuration":71428,"Delta":959759058},{"NoteNumber":34,"Velocity":51,"Duration":71428,"SoundDuration":71428,"Delta":959759058},{"NoteNumber":54,"Velocity":53,"Duration":71428,"SoundDuration":71428,"Delta":959901915},{"NoteNumber":42,"Velocity":44,"Duration":71428,"SoundDuration":71428,"Delta":959901915},{"NoteNumber":87,"Velocity":58,"Duration":288461,"SoundDuration":288461,"Delta":960044772},{"NoteNumber":82,"Velocity":49,"Duration":288461,"SoundDuration":288461,"Delta":960044772},{"NoteNumber":78,"Velocity":49,"Duration":288461,"SoundDuration":288461,"Delta":960044772},{"NoteNumber":75,"Velocity":49,"Duration":288461,"SoundDuration":288461,"Delta":960044772},{"NoteNumber":51,"Velocity":61,"Duration":72115,"SoundDuration":72115,"Delta":960044772},{"NoteNumber":39,"Velocity":51,"Duration":72115,"SoundDuration":72115,"Delta":960044772},{"NoteNumber":47,"Velocity":55,"Duration":72115,"SoundDuration":72115,"Delta":960189003},{"NoteNumber":35,"Velocity":46,"Duration":72115,"SoundDuration":72115,"Delta":960189003},{"NoteNumber":86,"Velocity":64,"Duration":288461,"SoundDuration":288461,"Delta":960333234},{"NoteNumber":82,"Velocity":55,"Duration":288461,"SoundDuration":288461,"Delta":960333234},{"NoteNumber":77,"Velocity":55,"Duration":288461,"SoundDuration":288461,"Delta":960333234},{"NoteNumber":74,"Velocity":55,"Duration":288461,"SoundDuration":288461,"Delta":960333234},{"NoteNumber":46,"Velocity":64,"Duration":72115,"SoundDuration":72115,"Delta":960333234},{"NoteNumber":34,"Velocity":55,"Duration":72115,"SoundDuration":72115,"Delta":960333234},{"NoteNumber":47,"Velocity":57,"Duration":72115,"SoundDuration":72115,"Delta":960477465},{"NoteNumber":35,"Velocity":48,"Duration":72115,"SoundDuration":72115,"Delta":960477465},{"NoteNumber":94,"Velocity":78,"Duration":283018,"SoundDuration":283018,"Delta":960621696},{"NoteNumber":89,"Velocity":66,"Duration":283018,"SoundDuration":283018,"Delta":960621696},{"NoteNumber":86,"Velocity":66,"Duration":283018,"SoundDuration":283018,"Delta":960621696},{"NoteNumber":82,"Velocity":66,"Duration":283018,"SoundDuration":283018,"Delta":960621696},{"NoteNumber":46,"Velocity":63,"Duration":70754,"SoundDuration":70754,"Delta":960621696},{"NoteNumber":34,"Velocity":53,"Duration":70754,"SoundDuration":70754,"Delta":960621696},{"NoteNumber":47,"Velocity":58,"Duration":70754,"SoundDuration":70754,"Delta":960763205},{"NoteNumber":35,"Velocity":49,"Duration":70754,"SoundDuration":70754,"Delta":960763205},{"NoteNumber":94,"Velocity":82,"Duration":256097,"SoundDuration":256097,"Delta":960904715},{"NoteNumber":82,"Velocity":69,"Duration":256097,"SoundDuration":256097,"Delta":960904715},{"NoteNumber":87,"Velocity":69,"Duration":256097,"SoundDuration":256097,"Delta":960904715},{"NoteNumber":90,"Velocity":69,"Duration":256097,"SoundDuration":256097,"Delta":960904715},{"NoteNumber":46,"Velocity":67,"Duration":73170,"SoundDuration":73170,"Delta":960904715},{"NoteNumber":34,"Velocity":56,"Duration":73170,"SoundDuration":73170,"Delta":960904715},{"NoteNumber":58,"Velocity":59,"Duration":73170,"SoundDuration":73170,"Delta":961051056},{"NoteNumber":46,"Velocity":48,"Duration":73170,"SoundDuration":73170,"Delta":961051056},{"NoteNumber":78,"Velocity":66,"Duration":286585,"SoundDuration":286585,"Delta":961160812},{"NoteNumber":87,"Velocity":66,"Duration":268292,"SoundDuration":268292,"Delta":961179105},{"NoteNumber":94,"Velocity":78,"Duration":249999,"SoundDuration":249999,"Delta":961197398},{"NoteNumber":54,"Velocity":69,"Duration":71428,"SoundDuration":71428,"Delta":961197398},{"NoteNumber":42,"Velocity":58,"Duration":71428,"SoundDuration":71428,"Delta":961197398},{"NoteNumber":51,"Velocity":62,"Duration":71428,"SoundDuration":71428,"Delta":961340255},{"NoteNumber":39,"Velocity":52,"Duration":71428,"SoundDuration":71428,"Delta":961340255},{"NoteNumber":77,"Velocity":73,"Duration":318733,"SoundDuration":318733,"Delta":961447397},{"NoteNumber":86,"Velocity":73,"Duration":300876,"SoundDuration":300876,"Delta":961465255},{"NoteNumber":94,"Velocity":86,"Duration":283018,"SoundDuration":283018,"Delta":961483112},{"NoteNumber":46,"Velocity":77,"Duration":70754,"SoundDuration":70754,"Delta":961483112},{"NoteNumber":34,"Velocity":64,"Duration":70754,"SoundDuration":70754,"Delta":961483112},{"NoteNumber":47,"Velocity":68,"Duration":70754,"SoundDuration":70754,"Delta":961624621},{"NoteNumber":35,"Velocity":58,"Duration":70754,"SoundDuration":70754,"Delta":961624621},{"NoteNumber":94,"Velocity":78,"Duration":283018,"SoundDuration":283018,"Delta":961766131},{"NoteNumber":82,"Velocity":66,"Duration":283018,"SoundDuration":283018,"Delta":961766131},{"NoteNumber":86,"Velocity":66,"Duration":283018,"SoundDuration":283018,"Delta":961766131},{"NoteNumber":89,"Velocity":66,"Duration":283018,"SoundDuration":283018,"Delta":961766131},{"NoteNumber":46,"Velocity":78,"Duration":70754,"SoundDuration":70754,"Delta":961766131},{"NoteNumber":34,"Velocity":66,"Duration":70754,"SoundDuration":70754,"Delta":961766131},{"NoteNumber":47,"Velocity":72,"Duration":70754,"SoundDuration":70754,"Delta":961907640},{"NoteNumber":35,"Velocity":61,"Duration":70754,"SoundDuration":70754,"Delta":961907640},{"NoteNumber":94,"Velocity":86,"Duration":247641,"SoundDuration":247641,"Delta":962049150},{"NoteNumber":90,"Velocity":73,"Duration":247641,"SoundDuration":247641,"Delta":962049150},{"NoteNumber":87,"Velocity":73,"Duration":247641,"SoundDuration":247641,"Delta":962049150},{"NoteNumber":82,"Velocity":73,"Duration":247641,"SoundDuration":247641,"Delta":962049150},{"NoteNumber":46,"Velocity":73,"Duration":70754,"SoundDuration":70754,"Delta":962049150},{"NoteNumber":34,"Velocity":61,"Duration":70754,"SoundDuration":70754,"Delta":962049150},{"NoteNumber":58,"Velocity":64,"Duration":70754,"SoundDuration":70754,"Delta":962190659},{"NoteNumber":46,"Velocity":52,"Duration":70754,"SoundDuration":70754,"Delta":962190659},{"NoteNumber":78,"Velocity":67,"Duration":286573,"SoundDuration":286573,"Delta":962296791},{"NoteNumber":87,"Velocity":67,"Duration":268884,"SoundDuration":268884,"Delta":962314480},{"NoteNumber":94,"Velocity":79,"Duration":251195,"SoundDuration":251195,"Delta":962332169},{"NoteNumber":54,"Velocity":75,"Duration":71770,"SoundDuration":71770,"Delta":962332169},{"NoteNumber":42,"Velocity":63,"Duration":71770,"SoundDuration":71770,"Delta":962332169},{"NoteNumber":51,"Velocity":68,"Duration":71770,"SoundDuration":71770,"Delta":962475709},{"NoteNumber":39,"Velocity":57,"Duration":71770,"SoundDuration":71770,"Delta":962475709},{"NoteNumber":77,"Velocity":73,"Duration":329109,"SoundDuration":329109,"Delta":962583365},{"NoteNumber":86,"Velocity":73,"Duration":311167,"SoundDuration":311167,"Delta":962601307},{"NoteNumber":94,"Velocity":86,"Duration":293224,"SoundDuration":293224,"Delta":962619250},{"NoteNumber":46,"Velocity":80,"Duration":111598,"SoundDuration":111598,"Delta":962619250},{"NoteNumber":34,"Velocity":80,"Duration":293224,"SoundDuration":293224,"Delta":962619250},{"NoteNumber":48,"Velocity":63,"Duration":130279,"SoundDuration":130279,"Delta":962681233},{"NoteNumber":50,"Velocity":66,"Duration":143662,"SoundDuration":143662,"Delta":962749436},{"NoteNumber":51,"Velocity":69,"Duration":132584,"SoundDuration":132584,"Delta":962834086},{"NoteNumber":53,"Velocity":71,"Duration":130475,"SoundDuration":130475,"Delta":962912474},{"NoteNumber":55,"Velocity":73,"Duration":149790,"SoundDuration":149790,"Delta":962986777},{"NoteNumber":57,"Velocity":75,"Duration":170800,"SoundDuration":170800,"Delta":963063816},{"NoteNumber":58,"Velocity":79,"Duration":91878,"SoundDuration":91878,"Delta":963163023},{"NoteNumber":71,"Velocity":81,"Duration":298067,"SoundDuration":298067,"Delta":963254901},{"NoteNumber":59,"Velocity":81,"Duration":130982,"SoundDuration":130982,"Delta":963254901},{"NoteNumber":33,"Velocity":74,"Duration":623453,"SoundDuration":623453,"Delta":963254901},{"NoteNumber":39,"Velocity":74,"Duration":623453,"SoundDuration":623453,"Delta":963254901},{"NoteNumber":42,"Velocity":74,"Duration":623453,"SoundDuration":623453,"Delta":963254901},{"NoteNumber":45,"Velocity":85,"Duration":623453,"SoundDuration":623453,"Delta":963254901},{"NoteNumber":57,"Velocity":75,"Duration":129441,"SoundDuration":129441,"Delta":963330775},{"NoteNumber":56,"Velocity":74,"Duration":127899,"SoundDuration":127899,"Delta":963405764},{"NoteNumber":54,"Velocity":72,"Duration":126735,"SoundDuration":126735,"Delta":963479901},{"NoteNumber":52,"Velocity":71,"Duration":128600,"SoundDuration":128600,"Delta":963552969},{"NoteNumber":51,"Velocity":69,"Duration":132085,"SoundDuration":132085,"Delta":963626358},{"NoteNumber":49,"Velocity":68,"Duration":150046,"SoundDuration":150046,"Delta":963701853},{"NoteNumber":47,"Velocity":67,"Duration":99206,"SoundDuration":99206,"Delta":963779148},{"NoteNumber":48,"Velocity":62,"Duration":121512,"SoundDuration":121512,"Delta":963878354},{"NoteNumber":32,"Velocity":72,"Duration":631276,"SoundDuration":631276,"Delta":963878354},{"NoteNumber":36,"Velocity":72,"Duration":631276,"SoundDuration":631276,"Delta":963878354},{"NoteNumber":39,"Velocity":74,"Duration":631276,"SoundDuration":631276,"Delta":963878354},{"NoteNumber":44,"Velocity":83,"Duration":631276,"SoundDuration":631276,"Delta":963878354},{"NoteNumber":49,"Velocity":64,"Duration":106839,"SoundDuration":106839,"Delta":963966368},{"NoteNumber":51,"Velocity":67,"Duration":104737,"SoundDuration":104737,"Delta":964040324},{"NoteNumber":52,"Velocity":69,"Duration":103205,"SoundDuration":103205,"Delta":964112920},{"NoteNumber":54,"Velocity":71,"Duration":106452,"SoundDuration":106452,"Delta":964183846},{"NoteNumber":56,"Velocity":73,"Duration":111628,"SoundDuration":111628,"Delta":964256487},{"NoteNumber":58,"Velocity":75,"Duration":123161,"SoundDuration":123161,"Delta":964332618},{"NoteNumber":60,"Velocity":78,"Duration":97911,"SoundDuration":97911,"Delta":964411720},{"NoteNumber":73,"Velocity":84,"Duration":311470,"SoundDuration":311470,"Delta":964509631},{"NoteNumber":61,"Velocity":84,"Duration":122439,"SoundDuration":122439,"Delta":964509631},{"NoteNumber":31,"Velocity":70,"Duration":637483,"SoundDuration":637483,"Delta":964509631},{"NoteNumber":33,"Velocity":70,"Duration":637483,"SoundDuration":637483,"Delta":964509631},{"NoteNumber":37,"Velocity":70,"Duration":637483,"SoundDuration":637483,"Delta":964509631},{"NoteNumber":40,"Velocity":70,"Duration":637483,"SoundDuration":637483,"Delta":964509631},{"NoteNumber":43,"Velocity":81,"Duration":637483,"SoundDuration":637483,"Delta":964509631},{"NoteNumber":59,"Velocity":78,"Duration":109587,"SoundDuration":109587,"Delta":964597711},{"NoteNumber":57,"Velocity":75,"Duration":107532,"SoundDuration":107532,"Delta":964673588},{"NoteNumber":55,"Velocity":73,"Duration":105976,"SoundDuration":105976,"Delta":964748033},{"NoteNumber":54,"Velocity":71,"Duration":107666,"SoundDuration":107666,"Delta":964821101},{"NoteNumber":52,"Velocity":69,"Duration":111224,"SoundDuration":111224,"Delta":964894831},{"NoteNumber":50,"Velocity":66,"Duration":122335,"SoundDuration":122335,"Delta":964970928},{"NoteNumber":49,"Velocity":63,"Duration":97911,"SoundDuration":97911,"Delta":965049204},{"NoteNumber":50,"Velocity":62,"Duration":97847,"SoundDuration":97847,"Delta":965147115},{"NoteNumber":30,"Velocity":71,"Duration":314305,"SoundDuration":314305,"Delta":965147115},{"NoteNumber":33,"Velocity":71,"Duration":314305,"SoundDuration":314305,"Delta":965147115},{"NoteNumber":38,"Velocity":69,"Duration":314305,"SoundDuration":314305,"Delta":965147115},{"NoteNumber":42,"Velocity":82,"Duration":314305,"SoundDuration":314305,"Delta":965147115},{"NoteNumber":52,"Velocity":66,"Duration":94297,"SoundDuration":94297,"Delta":965229106},{"NoteNumber":54,"Velocity":68,"Duration":92716,"SoundDuration":92716,"Delta":965307876},{"NoteNumber":55,"Velocity":71,"Duration":91256,"SoundDuration":91256,"Delta":965385224},{"NoteNumber":57,"Velocity":74,"Duration":90062,"SoundDuration":90062,"Delta":965461420},{"NoteNumber":59,"Velocity":77,"Duration":91949,"SoundDuration":91949,"Delta":965536397},{"NoteNumber":61,"Velocity":79,"Duration":98289,"SoundDuration":98289,"Delta":965612819},{"NoteNumber":62,"Velocity":82,"Duration":97911,"SoundDuration":97911,"Delta":965691526},{"NoteNumber":75,"Velocity":84,"Duration":305138,"SoundDuration":305138,"Delta":965789437},{"NoteNumber":63,"Velocity":84,"Duration":95174,"SoundDuration":95174,"Delta":965789437},{"NoteNumber":27,"Velocity":70,"Duration":628722,"SoundDuration":628722,"Delta":965789437},{"NoteNumber":31,"Velocity":70,"Duration":628722,"SoundDuration":628722,"Delta":965789437},{"NoteNumber":36,"Velocity":70,"Duration":628722,"SoundDuration":628722,"Delta":965789437},{"NoteNumber":39,"Velocity":81,"Duration":628722,"SoundDuration":628722,"Delta":965789437},{"NoteNumber":62,"Velocity":78,"Duration":91423,"SoundDuration":91423,"Delta":965869243},{"NoteNumber":60,"Velocity":75,"Duration":89937,"SoundDuration":89937,"Delta":965945606},{"NoteNumber":58,"Velocity":73,"Duration":88562,"SoundDuration":88562,"Delta":966020633},{"NoteNumber":57,"Velocity":71,"Duration":88098,"SoundDuration":88098,"Delta":966094576},{"NoteNumber":55,"Velocity":69,"Duration":91813,"SoundDuration":91813,"Delta":966171466},{"NoteNumber":53,"Velocity":66,"Duration":96969,"SoundDuration":96969,"Delta":966243870},{"NoteNumber":51,"Velocity":63,"Duration":96649,"SoundDuration":96649,"Delta":966321510},{"NoteNumber":50,"Velocity":60,"Duration":97192,"SoundDuration":97192,"Delta":966418159},{"NoteNumber":51,"Velocity":60,"Duration":97192,"SoundDuration":97192,"Delta":966499153},{"NoteNumber":53,"Velocity":61,"Duration":97192,"SoundDuration":97192,"Delta":966580146},{"NoteNumber":55,"Velocity":62,"Duration":97192,"SoundDuration":97192,"Delta":966661140},{"NoteNumber":57,"Velocity":63,"Duration":78293,"SoundDuration":78293,"Delta":966742133},{"NoteNumber":36,"Velocity":62,"Duration":161986,"SoundDuration":161986,"Delta":966742133},{"NoteNumber":39,"Velocity":62,"Duration":161986,"SoundDuration":161986,"Delta":966742133},{"NoteNumber":43,"Velocity":62,"Duration":161986,"SoundDuration":161986,"Delta":966742133},{"NoteNumber":48,"Velocity":62,"Duration":161986,"SoundDuration":161986,"Delta":966742133},{"NoteNumber":58,"Velocity":64,"Duration":78293,"SoundDuration":78293,"Delta":966806928},{"NoteNumber":60,"Velocity":64,"Duration":78293,"SoundDuration":78293,"Delta":966871723},{"NoteNumber":62,"Velocity":66,"Duration":78293,"SoundDuration":78293,"Delta":966936518},{"NoteNumber":63,"Velocity":67,"Duration":78293,"SoundDuration":78293,"Delta":967001312},{"NoteNumber":65,"Velocity":68,"Duration":78293,"SoundDuration":78293,"Delta":967066107},{"NoteNumber":53,"Velocity":84,"Duration":161986,"SoundDuration":161986,"Delta":967066107},{"NoteNumber":41,"Velocity":71,"Duration":161986,"SoundDuration":161986,"Delta":967066107},{"NoteNumber":45,"Velocity":71,"Duration":161986,"SoundDuration":161986,"Delta":967066107},{"NoteNumber":48,"Velocity":71,"Duration":161986,"SoundDuration":161986,"Delta":967066107},{"NoteNumber":67,"Velocity":68,"Duration":78293,"SoundDuration":78293,"Delta":967130902},{"NoteNumber":69,"Velocity":69,"Duration":78293,"SoundDuration":78293,"Delta":967195697},{"NoteNumber":70,"Velocity":70,"Duration":78293,"SoundDuration":78293,"Delta":967260492},{"NoteNumber":72,"Velocity":71,"Duration":78293,"SoundDuration":78293,"Delta":967325286},{"NoteNumber":74,"Velocity":71,"Duration":78293,"SoundDuration":78293,"Delta":967390081},{"NoteNumber":41,"Velocity":75,"Duration":161987,"SoundDuration":161987,"Delta":967390081},{"NoteNumber":29,"Velocity":63,"Duration":161987,"SoundDuration":161987,"Delta":967390081},{"NoteNumber":33,"Velocity":63,"Duration":161987,"SoundDuration":161987,"Delta":967390081},{"NoteNumber":36,"Velocity":63,"Duration":161987,"SoundDuration":161987,"Delta":967390081},{"NoteNumber":75,"Velocity":72,"Duration":78293,"SoundDuration":78293,"Delta":967454876},{"NoteNumber":77,"Velocity":73,"Duration":78293,"SoundDuration":78293,"Delta":967519671},{"NoteNumber":79,"Velocity":73,"Duration":78293,"SoundDuration":78293,"Delta":967584466},{"NoteNumber":81,"Velocity":74,"Duration":64794,"SoundDuration":64794,"Delta":967649260},{"NoteNumber":82,"Velocity":84,"Duration":305491,"SoundDuration":305491,"Delta":967714055},{"NoteNumber":70,"Velocity":62,"Duration":88013,"SoundDuration":88013,"Delta":967714055},{"NoteNumber":46,"Velocity":81,"Duration":305491,"SoundDuration":305491,"Delta":967714055},{"NoteNumber":34,"Velocity":68,"Duration":305491,"SoundDuration":305491,"Delta":967714055},{"NoteNumber":38,"Velocity":68,"Duration":305491,"SoundDuration":305491,"Delta":967714055},{"NoteNumber":41,"Velocity":68,"Duration":305491,"SoundDuration":305491,"Delta":967714055},{"NoteNumber":72,"Velocity":64,"Duration":73956,"SoundDuration":73956,"Delta":967802068},{"NoteNumber":74,"Velocity":67,"Duration":72595,"SoundDuration":72595,"Delta":967876025},{"NoteNumber":75,"Velocity":69,"Duration":70926,"SoundDuration":70926,"Delta":967948620},{"NoteNumber":77,"Velocity":71,"Duration":72641,"SoundDuration":72641,"Delta":968019547},{"NoteNumber":79,"Velocity":73,"Duration":76131,"SoundDuration":76131,"Delta":968092188},{"NoteNumber":81,"Velocity":75,"Duration":79101,"SoundDuration":79101,"Delta":968168319},{"NoteNumber":82,"Velocity":78,"Duration":97911,"SoundDuration":97911,"Delta":968247421},{"NoteNumber":95,"Velocity":84,"Duration":311470,"SoundDuration":311470,"Delta":968345332},{"NoteNumber":83,"Velocity":84,"Duration":88079,"SoundDuration":88079,"Delta":968345332},{"NoteNumber":45,"Velocity":70,"Duration":637483,"SoundDuration":637483,"Delta":968345332},{"NoteNumber":51,"Velocity":70,"Duration":637483,"SoundDuration":637483,"Delta":968345332},{"NoteNumber":54,"Velocity":70,"Duration":637483,"SoundDuration":637483,"Delta":968345332},{"NoteNumber":57,"Velocity":81,"Duration":637483,"SoundDuration":637483,"Delta":968345332},{"NoteNumber":81,"Velocity":78,"Duration":75876,"SoundDuration":75876,"Delta":968433412},{"NoteNumber":80,"Velocity":75,"Duration":74445,"SoundDuration":74445,"Delta":968509288},{"NoteNumber":78,"Velocity":73,"Duration":73067,"SoundDuration":73067,"Delta":968583734},{"NoteNumber":76,"Velocity":71,"Duration":73729,"SoundDuration":73729,"Delta":968656802},{"NoteNumber":75,"Velocity":69,"Duration":76096,"SoundDuration":76096,"Delta":968730532},{"NoteNumber":73,"Velocity":66,"Duration":78275,"SoundDuration":78275,"Delta":968806629},{"NoteNumber":71,"Velocity":63,"Duration":97911,"SoundDuration":97911,"Delta":968884904},{"NoteNumber":72,"Velocity":62,"Duration":88013,"SoundDuration":88013,"Delta":968982816},{"NoteNumber":44,"Velocity":70,"Duration":631276,"SoundDuration":631276,"Delta":968982816},{"NoteNumber":48,"Velocity":70,"Duration":631276,"SoundDuration":631276,"Delta":968982816},{"NoteNumber":51,"Velocity":70,"Duration":631276,"SoundDuration":631276,"Delta":968982816},{"NoteNumber":56,"Velocity":81,"Duration":631276,"SoundDuration":631276,"Delta":968982816},{"NoteNumber":73,"Velocity":64,"Duration":73956,"SoundDuration":73956,"Delta":969070829},{"NoteNumber":75,"Velocity":67,"Duration":72595,"SoundDuration":72595,"Delta":969144785},{"NoteNumber":76,"Velocity":69,"Duration":70926,"SoundDuration":70926,"Delta":969217381},{"NoteNumber":78,"Velocity":71,"Duration":72641,"SoundDuration":72641,"Delta":969288307},{"NoteNumber":80,"Velocity":73,"Duration":76131,"SoundDuration":76131,"Delta":969360948},{"NoteNumber":82,"Velocity":75,"Duration":79101,"SoundDuration":79101,"Delta":969437080},{"NoteNumber":84,"Velocity":78,"Duration":97911,"SoundDuration":97911,"Delta":969516181},{"NoteNumber":97,"Velocity":84,"Duration":311470,"SoundDuration":311470,"Delta":969614092},{"NoteNumber":85,"Velocity":84,"Duration":88079,"SoundDuration":88079,"Delta":969614092},{"NoteNumber":45,"Velocity":70,"Duration":637483,"SoundDuration":637483,"Delta":969614092},{"NoteNumber":43,"Velocity":70,"Duration":637483,"SoundDuration":637483,"Delta":969614092},{"NoteNumber":49,"Velocity":70,"Duration":637483,"SoundDuration":637483,"Delta":969614092},{"NoteNumber":52,"Velocity":70,"Duration":637483,"SoundDuration":637483,"Delta":969614092},{"NoteNumber":55,"Velocity":81,"Duration":637483,"SoundDuration":637483,"Delta":969614092},{"NoteNumber":83,"Velocity":78,"Duration":75876,"SoundDuration":75876,"Delta":969702172},{"NoteNumber":81,"Velocity":75,"Duration":74445,"SoundDuration":74445,"Delta":969778049},{"NoteNumber":79,"Velocity":73,"Duration":73067,"SoundDuration":73067,"Delta":969852495},{"NoteNumber":78,"Velocity":71,"Duration":73729,"SoundDuration":73729,"Delta":969925563},{"NoteNumber":76,"Velocity":69,"Duration":76096,"SoundDuration":76096,"Delta":969999292},{"NoteNumber":74,"Velocity":66,"Duration":78275,"SoundDuration":78275,"Delta":970075389},{"NoteNumber":73,"Velocity":63,"Duration":97911,"SoundDuration":97911,"Delta":970153665},{"NoteNumber":74,"Velocity":62,"Duration":88013,"SoundDuration":88013,"Delta":970251576},{"NoteNumber":42,"Velocity":70,"Duration":305491,"SoundDuration":305491,"Delta":970251576},{"NoteNumber":45,"Velocity":70,"Duration":305491,"SoundDuration":305491,"Delta":970251576},{"NoteNumber":50,"Velocity":70,"Duration":305491,"SoundDuration":305491,"Delta":970251576},{"NoteNumber":54,"Velocity":81,"Duration":305491,"SoundDuration":305491,"Delta":970251576},{"NoteNumber":76,"Velocity":64,"Duration":73956,"SoundDuration":73956,"Delta":970339589},{"NoteNumber":78,"Velocity":67,"Duration":72595,"SoundDuration":72595,"Delta":970413546},{"NoteNumber":79,"Velocity":69,"Duration":70926,"SoundDuration":70926,"Delta":970486141},{"NoteNumber":81,"Velocity":71,"Duration":72641,"SoundDuration":72641,"Delta":970557068},{"NoteNumber":83,"Velocity":73,"Duration":76131,"SoundDuration":76131,"Delta":970629709},{"NoteNumber":85,"Velocity":75,"Duration":79101,"SoundDuration":79101,"Delta":970705840},{"NoteNumber":86,"Velocity":78,"Duration":97911,"SoundDuration":97911,"Delta":970784942},{"NoteNumber":99,"Velocity":84,"Duration":311470,"SoundDuration":311470,"Delta":970882853},{"NoteNumber":87,"Velocity":84,"Duration":88079,"SoundDuration":88079,"Delta":970882853},{"NoteNumber":43,"Velocity":70,"Duration":637483,"SoundDuration":637483,"Delta":970882853},{"NoteNumber":39,"Velocity":70,"Duration":637483,"SoundDuration":637483,"Delta":970882853},{"NoteNumber":48,"Velocity":70,"Duration":637483,"SoundDuration":637483,"Delta":970882853},{"NoteNumber":51,"Velocity":81,"Duration":637483,"SoundDuration":637483,"Delta":970882853},{"NoteNumber":86,"Velocity":78,"Duration":75876,"SoundDuration":75876,"Delta":970970933},{"NoteNumber":84,"Velocity":75,"Duration":74445,"SoundDuration":74445,"Delta":971046809},{"NoteNumber":82,"Velocity":73,"Duration":73067,"SoundDuration":73067,"Delta":971121255},{"NoteNumber":81,"Velocity":71,"Duration":73729,"SoundDuration":73729,"Delta":971194323},{"NoteNumber":79,"Velocity":69,"Duration":76096,"SoundDuration":76096,"Delta":971268053},{"NoteNumber":77,"Velocity":66,"Duration":78275,"SoundDuration":78275,"Delta":971344150},{"NoteNumber":75,"Velocity":63,"Duration":97911,"SoundDuration":97911,"Delta":971422425},{"NoteNumber":74,"Velocity":60,"Duration":80993,"SoundDuration":80993,"Delta":971520337},{"NoteNumber":75,"Velocity":60,"Duration":80993,"SoundDuration":80993,"Delta":971601330},{"NoteNumber":77,"Velocity":61,"Duration":80993,"SoundDuration":80993,"Delta":971682324},{"NoteNumber":79,"Velocity":62,"Duration":80993,"SoundDuration":80993,"Delta":971763317},{"NoteNumber":81,"Velocity":63,"Duration":64794,"SoundDuration":64794,"Delta":971844311},{"NoteNumber":48,"Velocity":74,"Duration":323974,"SoundDuration":323974,"Delta":971844311},{"NoteNumber":36,"Velocity":62,"Duration":323974,"SoundDuration":323974,"Delta":971844311},{"NoteNumber":39,"Velocity":62,"Duration":323974,"SoundDuration":323974,"Delta":971844311},{"NoteNumber":43,"Velocity":62,"Duration":323974,"SoundDuration":323974,"Delta":971844311},{"NoteNumber":82,"Velocity":64,"Duration":64794,"SoundDuration":64794,"Delta":971909106},{"NoteNumber":84,"Velocity":64,"Duration":64794,"SoundDuration":64794,"Delta":971973900},{"NoteNumber":86,"Velocity":66,"Duration":64794,"SoundDuration":64794,"Delta":972038695},{"NoteNumber":87,"Velocity":67,"Duration":64794,"SoundDuration":64794,"Delta":972103490},{"NoteNumber":89,"Velocity":70,"Duration":80993,"SoundDuration":80993,"Delta":972168285},{"NoteNumber":53,"Velocity":84,"Duration":323973,"SoundDuration":323973,"Delta":972168285},{"NoteNumber":41,"Velocity":71,"Duration":323973,"SoundDuration":323973,"Delta":972168285},{"NoteNumber":45,"Velocity":71,"Duration":323973,"SoundDuration":323973,"Delta":972168285},{"NoteNumber":48,"Velocity":71,"Duration":323973,"SoundDuration":323973,"Delta":972168285},{"NoteNumber":91,"Velocity":72,"Duration":80993,"SoundDuration":80993,"Delta":972249278},{"NoteNumber":93,"Velocity":73,"Duration":80993,"SoundDuration":80993,"Delta":972330272},{"NoteNumber":94,"Velocity":75,"Duration":80993,"SoundDuration":80993,"Delta":972411265},{"NoteNumber":96,"Velocity":77,"Duration":80993,"SoundDuration":80993,"Delta":972492259},{"NoteNumber":65,"Velocity":75,"Duration":323974,"SoundDuration":323974,"Delta":972492259},{"NoteNumber":53,"Velocity":63,"Duration":323974,"SoundDuration":323974,"Delta":972492259},{"NoteNumber":57,"Velocity":63,"Duration":323974,"SoundDuration":323974,"Delta":972492259},{"NoteNumber":60,"Velocity":63,"Duration":323974,"SoundDuration":323974,"Delta":972492259},{"NoteNumber":98,"Velocity":79,"Duration":80993,"SoundDuration":80993,"Delta":972573252},{"NoteNumber":99,"Velocity":80,"Duration":80993,"SoundDuration":80993,"Delta":972654246},{"NoteNumber":100,"Velocity":82,"Duration":80993,"SoundDuration":80993,"Delta":972735239},{"NoteNumber":101,"Velocity":85,"Duration":105263,"SoundDuration":105263,"Delta":972816233},{"NoteNumber":89,"Velocity":72,"Duration":105263,"SoundDuration":105263,"Delta":972816233},{"NoteNumber":98,"Velocity":72,"Duration":105263,"SoundDuration":105263,"Delta":972816233},{"NoteNumber":58,"Velocity":89,"Duration":315789,"SoundDuration":315789,"Delta":972816233},{"NoteNumber":46,"Velocity":74,"Duration":315789,"SoundDuration":315789,"Delta":972816233},{"NoteNumber":50,"Velocity":74,"Duration":315789,"SoundDuration":315789,"Delta":972816233},{"NoteNumber":94,"Velocity":75,"Duration":105263,"SoundDuration":105263,"Delta":972921496},{"NoteNumber":89,"Velocity":75,"Duration":92105,"SoundDuration":92105,"Delta":973026759},{"NoteNumber":89,"Velocity":80,"Duration":99009,"SoundDuration":99009,"Delta":973132022},{"NoteNumber":86,"Velocity":68,"Duration":99009,"SoundDuration":99009,"Delta":973132022},{"NoteNumber":58,"Velocity":79,"Duration":111386,"SoundDuration":111386,"Delta":973132022},{"NoteNumber":50,"Velocity":67,"Duration":111386,"SoundDuration":111386,"Delta":973132022},{"NoteNumber":82,"Velocity":73,"Duration":105684,"SoundDuration":105684,"Delta":973231032},{"NoteNumber":58,"Velocity":79,"Duration":126404,"SoundDuration":126404,"Delta":973280537},{"NoteNumber":50,"Velocity":67,"Duration":126404,"SoundDuration":126404,"Delta":973280537},{"NoteNumber":77,"Velocity":73,"Duration":112359,"SoundDuration":112359,"Delta":973336717},{"NoteNumber":89,"Velocity":72,"Duration":103092,"SoundDuration":103092,"Delta":973449076},{"NoteNumber":86,"Velocity":61,"Duration":103092,"SoundDuration":103092,"Delta":973449076},{"NoteNumber":62,"Velocity":89,"Duration":115979,"SoundDuration":115979,"Delta":973449076},{"NoteNumber":58,"Velocity":74,"Duration":115979,"SoundDuration":115979,"Delta":973449076},{"NoteNumber":82,"Velocity":63,"Duration":103092,"SoundDuration":103092,"Delta":973552169},{"NoteNumber":58,"Velocity":83,"Duration":115979,"SoundDuration":115979,"Delta":973603715},{"NoteNumber":50,"Velocity":70,"Duration":115979,"SoundDuration":115979,"Delta":973603715},{"NoteNumber":77,"Velocity":63,"Duration":90206,"SoundDuration":90206,"Delta":973655262},{"NoteNumber":77,"Velocity":68,"Duration":103092,"SoundDuration":103092,"Delta":973758355},{"NoteNumber":74,"Velocity":57,"Duration":103092,"SoundDuration":103092,"Delta":973758355},{"NoteNumber":58,"Velocity":83,"Duration":309278,"SoundDuration":309278,"Delta":973758355},{"NoteNumber":50,"Velocity":70,"Duration":309278,"SoundDuration":309278,"Delta":973758355},{"NoteNumber":70,"Velocity":61,"Duration":103092,"SoundDuration":103092,"Delta":973861448},{"NoteNumber":65,"Velocity":61,"Duration":103092,"SoundDuration":103092,"Delta":973964540},{"NoteNumber":75,"Velocity":82,"Duration":113636,"SoundDuration":113636,"Delta":974067633},{"NoteNumber":77,"Velocity":82,"Duration":113636,"SoundDuration":113636,"Delta":974067633},{"NoteNumber":65,"Velocity":69,"Duration":113636,"SoundDuration":113636,"Delta":974067633},{"NoteNumber":69,"Velocity":69,"Duration":113636,"SoundDuration":113636,"Delta":974067633},{"NoteNumber":63,"Velocity":66,"Duration":113636,"SoundDuration":113636,"Delta":974067633},{"NoteNumber":53,"Velocity":56,"Duration":113636,"SoundDuration":113636,"Delta":974067633},{"NoteNumber":60,"Velocity":56,"Duration":113636,"SoundDuration":113636,"Delta":974067633},{"NoteNumber":63,"Velocity":64,"Duration":102040,"SoundDuration":102040,"Delta":974294906},{"NoteNumber":65,"Velocity":64,"Duration":102040,"SoundDuration":102040,"Delta":974294906},{"NoteNumber":53,"Velocity":55,"Duration":102040,"SoundDuration":102040,"Delta":974294906},{"NoteNumber":57,"Velocity":55,"Duration":102040,"SoundDuration":102040,"Delta":974294906},{"NoteNumber":41,"Velocity":52,"Duration":102040,"SoundDuration":102040,"Delta":974294906},{"NoteNumber":29,"Velocity":44,"Duration":102040,"SoundDuration":102040,"Delta":974294906},{"NoteNumber":63,"Velocity":64,"Duration":102040,"SoundDuration":102040,"Delta":974498988},{"NoteNumber":65,"Velocity":64,"Duration":102040,"SoundDuration":102040,"Delta":974498988},{"NoteNumber":53,"Velocity":55,"Duration":102040,"SoundDuration":102040,"Delta":974498988},{"NoteNumber":57,"Velocity":55,"Duration":102040,"SoundDuration":102040,"Delta":974498988},{"NoteNumber":42,"Velocity":52,"Duration":102040,"SoundDuration":102040,"Delta":974498988},{"NoteNumber":30,"Velocity":44,"Duration":102040,"SoundDuration":102040,"Delta":974498988},{"NoteNumber":63,"Velocity":67,"Duration":104166,"SoundDuration":104166,"Delta":974703069},{"NoteNumber":65,"Velocity":67,"Duration":104166,"SoundDuration":104166,"Delta":974703069},{"NoteNumber":53,"Velocity":56,"Duration":104166,"SoundDuration":104166,"Delta":974703069},{"NoteNumber":58,"Velocity":56,"Duration":104166,"SoundDuration":104166,"Delta":974703069},{"NoteNumber":43,"Velocity":71,"Duration":104166,"SoundDuration":104166,"Delta":974703069},{"NoteNumber":31,"Velocity":60,"Duration":104166,"SoundDuration":104166,"Delta":974703069},{"NoteNumber":63,"Velocity":73,"Duration":108695,"SoundDuration":108695,"Delta":974911403},{"NoteNumber":65,"Velocity":73,"Duration":108695,"SoundDuration":108695,"Delta":974911403},{"NoteNumber":53,"Velocity":61,"Duration":108695,"SoundDuration":108695,"Delta":974911403},{"NoteNumber":59,"Velocity":61,"Duration":108695,"SoundDuration":108695,"Delta":974911403},{"NoteNumber":44,"Velocity":60,"Duration":108695,"SoundDuration":108695,"Delta":974911403},{"NoteNumber":32,"Velocity":50,"Duration":108695,"SoundDuration":108695,"Delta":974911403},{"NoteNumber":63,"Velocity":79,"Duration":111825,"SoundDuration":111825,"Delta":975128794},{"NoteNumber":65,"Velocity":79,"Duration":111825,"SoundDuration":111825,"Delta":975128794},{"NoteNumber":53,"Velocity":67,"Duration":111825,"SoundDuration":111825,"Delta":975128794},{"NoteNumber":60,"Velocity":67,"Duration":111825,"SoundDuration":111825,"Delta":975128794},{"NoteNumber":45,"Velocity":60,"Duration":111825,"SoundDuration":111825,"Delta":975128794},{"NoteNumber":33,"Velocity":50,"Duration":111825,"SoundDuration":111825,"Delta":975128794},{"NoteNumber":101,"Velocity":85,"Duration":105263,"SoundDuration":105263,"Delta":975355575},{"NoteNumber":89,"Velocity":72,"Duration":105263,"SoundDuration":105263,"Delta":975355575},{"NoteNumber":98,"Velocity":72,"Duration":105263,"SoundDuration":105263,"Delta":975355575},{"NoteNumber":46,"Velocity":89,"Duration":315789,"SoundDuration":315789,"Delta":975355575},{"NoteNumber":34,"Velocity":74,"Duration":315789,"SoundDuration":315789,"Delta":975355575},{"NoteNumber":38,"Velocity":74,"Duration":315789,"SoundDuration":315789,"Delta":975355575},{"NoteNumber":94,"Velocity":75,"Duration":105263,"SoundDuration":105263,"Delta":975460838},{"NoteNumber":89,"Velocity":75,"Duration":92105,"SoundDuration":92105,"Delta":975566102},{"NoteNumber":89,"Velocity":80,"Duration":98039,"SoundDuration":98039,"Delta":975671365},{"NoteNumber":86,"Velocity":68,"Duration":98039,"SoundDuration":98039,"Delta":975671365},{"NoteNumber":58,"Velocity":79,"Duration":110294,"SoundDuration":110294,"Delta":975671365},{"NoteNumber":50,"Velocity":67,"Duration":110294,"SoundDuration":110294,"Delta":975671365},{"NoteNumber":82,"Velocity":73,"Duration":105199,"SoundDuration":105199,"Delta":975769404},{"NoteNumber":58,"Velocity":79,"Duration":126404,"SoundDuration":126404,"Delta":975818423},{"NoteNumber":50,"Velocity":67,"Duration":126404,"SoundDuration":126404,"Delta":975818423},{"NoteNumber":77,"Velocity":73,"Duration":112359,"SoundDuration":112359,"Delta":975874603},{"NoteNumber":89,"Velocity":72,"Duration":103092,"SoundDuration":103092,"Delta":975986963},{"NoteNumber":86,"Velocity":61,"Duration":103092,"SoundDuration":103092,"Delta":975986963},{"NoteNumber":62,"Velocity":89,"Duration":115979,"SoundDuration":115979,"Delta":975986963},{"NoteNumber":58,"Velocity":74,"Duration":115979,"SoundDuration":115979,"Delta":975986963},{"NoteNumber":82,"Velocity":63,"Duration":103092,"SoundDuration":103092,"Delta":976090056},{"NoteNumber":58,"Velocity":83,"Duration":115979,"SoundDuration":115979,"Delta":976141602},{"NoteNumber":50,"Velocity":70,"Duration":115979,"SoundDuration":115979,"Delta":976141602},{"NoteNumber":77,"Velocity":63,"Duration":90206,"SoundDuration":90206,"Delta":976193148},{"NoteNumber":77,"Velocity":68,"Duration":103092,"SoundDuration":103092,"Delta":976296241},{"NoteNumber":74,"Velocity":57,"Duration":103092,"SoundDuration":103092,"Delta":976296241},{"NoteNumber":58,"Velocity":83,"Duration":309278,"SoundDuration":309278,"Delta":976296241},{"NoteNumber":50,"Velocity":70,"Duration":309278,"SoundDuration":309278,"Delta":976296241},{"NoteNumber":70,"Velocity":61,"Duration":103092,"SoundDuration":103092,"Delta":976399334},{"NoteNumber":65,"Velocity":61,"Duration":103092,"SoundDuration":103092,"Delta":976502427},{"NoteNumber":75,"Velocity":82,"Duration":113636,"SoundDuration":113636,"Delta":976605520},{"NoteNumber":77,"Velocity":82,"Duration":113636,"SoundDuration":113636,"Delta":976605520},{"NoteNumber":65,"Velocity":69,"Duration":113636,"SoundDuration":113636,"Delta":976605520},{"NoteNumber":69,"Velocity":69,"Duration":113636,"SoundDuration":113636,"Delta":976605520},{"NoteNumber":63,"Velocity":66,"Duration":113636,"SoundDuration":113636,"Delta":976605520},{"NoteNumber":53,"Velocity":56,"Duration":113636,"SoundDuration":113636,"Delta":976605520},{"NoteNumber":60,"Velocity":56,"Duration":113636,"SoundDuration":113636,"Delta":976605520},{"NoteNumber":63,"Velocity":64,"Duration":96153,"SoundDuration":96153,"Delta":976832792},{"NoteNumber":65,"Velocity":64,"Duration":96153,"SoundDuration":96153,"Delta":976832792},{"NoteNumber":53,"Velocity":55,"Duration":96153,"SoundDuration":96153,"Delta":976832792},{"NoteNumber":57,"Velocity":55,"Duration":96153,"SoundDuration":96153,"Delta":976832792},{"NoteNumber":41,"Velocity":52,"Duration":96153,"SoundDuration":96153,"Delta":976832792},{"NoteNumber":29,"Velocity":44,"Duration":96153,"SoundDuration":96153,"Delta":976832792},{"NoteNumber":63,"Velocity":64,"Duration":96153,"SoundDuration":96153,"Delta":977025100},{"NoteNumber":65,"Velocity":64,"Duration":96153,"SoundDuration":96153,"Delta":977025100},{"NoteNumber":53,"Velocity":55,"Duration":96153,"SoundDuration":96153,"Delta":977025100},{"NoteNumber":57,"Velocity":55,"Duration":96153,"SoundDuration":96153,"Delta":977025100},{"NoteNumber":42,"Velocity":52,"Duration":96153,"SoundDuration":96153,"Delta":977025100},{"NoteNumber":30,"Velocity":44,"Duration":96153,"SoundDuration":96153,"Delta":977025100},{"NoteNumber":63,"Velocity":67,"Duration":99009,"SoundDuration":99009,"Delta":977217408},{"NoteNumber":65,"Velocity":67,"Duration":99009,"SoundDuration":99009,"Delta":977217408},{"NoteNumber":53,"Velocity":56,"Duration":99009,"SoundDuration":99009,"Delta":977217408},{"NoteNumber":58,"Velocity":56,"Duration":99009,"SoundDuration":99009,"Delta":977217408},{"NoteNumber":43,"Velocity":71,"Duration":99009,"SoundDuration":99009,"Delta":977217408},{"NoteNumber":31,"Velocity":60,"Duration":99009,"SoundDuration":99009,"Delta":977217408},{"NoteNumber":63,"Velocity":73,"Duration":105263,"SoundDuration":105263,"Delta":977415427},{"NoteNumber":65,"Velocity":73,"Duration":105263,"SoundDuration":105263,"Delta":977415427},{"NoteNumber":53,"Velocity":61,"Duration":105263,"SoundDuration":105263,"Delta":977415427},{"NoteNumber":59,"Velocity":61,"Duration":105263,"SoundDuration":105263,"Delta":977415427},{"NoteNumber":44,"Velocity":60,"Duration":105263,"SoundDuration":105263,"Delta":977415427},{"NoteNumber":32,"Velocity":50,"Duration":105263,"SoundDuration":105263,"Delta":977415427},{"NoteNumber":63,"Velocity":79,"Duration":113245,"SoundDuration":113245,"Delta":977625954},{"NoteNumber":65,"Velocity":79,"Duration":113245,"SoundDuration":113245,"Delta":977625954},{"NoteNumber":53,"Velocity":67,"Duration":113245,"SoundDuration":113245,"Delta":977625954},{"NoteNumber":60,"Velocity":67,"Duration":113245,"SoundDuration":113245,"Delta":977625954},{"NoteNumber":45,"Velocity":60,"Duration":113245,"SoundDuration":113245,"Delta":977625954},{"NoteNumber":33,"Velocity":50,"Duration":113245,"SoundDuration":113245,"Delta":977625954},{"NoteNumber":63,"Velocity":82,"Duration":107526,"SoundDuration":107526,"Delta":977860426},{"NoteNumber":65,"Velocity":82,"Duration":107526,"SoundDuration":107526,"Delta":977860426},{"NoteNumber":57,"Velocity":69,"Duration":107526,"SoundDuration":107526,"Delta":977860426},{"NoteNumber":53,"Velocity":66,"Duration":107526,"SoundDuration":107526,"Delta":977860426},{"NoteNumber":41,"Velocity":56,"Duration":107526,"SoundDuration":107526,"Delta":977860426},{"NoteNumber":75,"Velocity":70,"Duration":92592,"SoundDuration":92592,"Delta":978075479},{"NoteNumber":77,"Velocity":70,"Duration":92592,"SoundDuration":92592,"Delta":978075479},{"NoteNumber":65,"Velocity":59,"Duration":92592,"SoundDuration":92592,"Delta":978075479},{"NoteNumber":69,"Velocity":59,"Duration":92592,"SoundDuration":92592,"Delta":978075479},{"NoteNumber":41,"Velocity":52,"Duration":92592,"SoundDuration":92592,"Delta":978075479},{"NoteNumber":29,"Velocity":44,"Duration":92592,"SoundDuration":92592,"Delta":978075479},{"NoteNumber":75,"Velocity":70,"Duration":92592,"SoundDuration":92592,"Delta":978260665},{"NoteNumber":77,"Velocity":70,"Duration":92592,"SoundDuration":92592,"Delta":978260665},{"NoteNumber":65,"Velocity":59,"Duration":92592,"SoundDuration":92592,"Delta":978260665},{"NoteNumber":69,"Velocity":59,"Duration":92592,"SoundDuration":92592,"Delta":978260665},{"NoteNumber":42,"Velocity":52,"Duration":92592,"SoundDuration":92592,"Delta":978260665},{"NoteNumber":30,"Velocity":44,"Duration":92592,"SoundDuration":92592,"Delta":978260665},{"NoteNumber":75,"Velocity":73,"Duration":96153,"SoundDuration":96153,"Delta":978445850},{"NoteNumber":77,"Velocity":73,"Duration":96153,"SoundDuration":96153,"Delta":978445850},{"NoteNumber":65,"Velocity":61,"Duration":96153,"SoundDuration":96153,"Delta":978445850},{"NoteNumber":70,"Velocity":61,"Duration":96153,"SoundDuration":96153,"Delta":978445850},{"NoteNumber":43,"Velocity":71,"Duration":96153,"SoundDuration":96153,"Delta":978445850},{"NoteNumber":31,"Velocity":60,"Duration":96153,"SoundDuration":96153,"Delta":978445850},{"NoteNumber":75,"Velocity":80,"Duration":99009,"SoundDuration":99009,"Delta":978638158},{"NoteNumber":77,"Velocity":80,"Duration":99009,"SoundDuration":99009,"Delta":978638158},{"NoteNumber":65,"Velocity":68,"Duration":99009,"SoundDuration":99009,"Delta":978638158},{"NoteNumber":71,"Velocity":68,"Duration":99009,"SoundDuration":99009,"Delta":978638158},{"NoteNumber":44,"Velocity":60,"Duration":99009,"SoundDuration":99009,"Delta":978638158},{"NoteNumber":32,"Velocity":50,"Duration":99009,"SoundDuration":99009,"Delta":978638158},{"NoteNumber":75,"Velocity":86,"Duration":105691,"SoundDuration":105691,"Delta":978836177},{"NoteNumber":77,"Velocity":86,"Duration":105691,"SoundDuration":105691,"Delta":978836177},{"NoteNumber":65,"Velocity":73,"Duration":105691,"SoundDuration":105691,"Delta":978836177},{"NoteNumber":72,"Velocity":73,"Duration":105691,"SoundDuration":105691,"Delta":978836177},{"NoteNumber":45,"Velocity":60,"Duration":105691,"SoundDuration":105691,"Delta":978836177},{"NoteNumber":33,"Velocity":50,"Duration":105691,"SoundDuration":105691,"Delta":978836177},{"NoteNumber":75,"Velocity":82,"Duration":103092,"SoundDuration":103092,"Delta":979054240},{"NoteNumber":77,"Velocity":82,"Duration":103092,"SoundDuration":103092,"Delta":979054240},{"NoteNumber":65,"Velocity":69,"Duration":103092,"SoundDuration":103092,"Delta":979054240},{"NoteNumber":69,"Velocity":69,"Duration":103092,"SoundDuration":103092,"Delta":979054240},{"NoteNumber":53,"Velocity":66,"Duration":103092,"SoundDuration":103092,"Delta":979054240},{"NoteNumber":41,"Velocity":56,"Duration":103092,"SoundDuration":103092,"Delta":979054240},{"NoteNumber":87,"Velocity":77,"Duration":89285,"SoundDuration":89285,"Delta":979260426},{"NoteNumber":89,"Velocity":77,"Duration":89285,"SoundDuration":89285,"Delta":979260426},{"NoteNumber":77,"Velocity":64,"Duration":89285,"SoundDuration":89285,"Delta":979260426},{"NoteNumber":81,"Velocity":64,"Duration":89285,"SoundDuration":89285,"Delta":979260426},{"NoteNumber":41,"Velocity":52,"Duration":89285,"SoundDuration":89285,"Delta":979260426},{"NoteNumber":29,"Velocity":44,"Duration":89285,"SoundDuration":89285,"Delta":979260426},{"NoteNumber":87,"Velocity":77,"Duration":89285,"SoundDuration":89285,"Delta":979438997},{"NoteNumber":89,"Velocity":77,"Duration":89285,"SoundDuration":89285,"Delta":979438997},{"NoteNumber":77,"Velocity":64,"Duration":89285,"SoundDuration":89285,"Delta":979438997},{"NoteNumber":81,"Velocity":64,"Duration":89285,"SoundDuration":89285,"Delta":979438997},{"NoteNumber":42,"Velocity":52,"Duration":89285,"SoundDuration":89285,"Delta":979438997},{"NoteNumber":30,"Velocity":44,"Duration":89285,"SoundDuration":89285,"Delta":979438997},{"NoteNumber":87,"Velocity":80,"Duration":86956,"SoundDuration":86956,"Delta":979617569},{"NoteNumber":89,"Velocity":80,"Duration":86956,"SoundDuration":86956,"Delta":979617569},{"NoteNumber":77,"Velocity":67,"Duration":86956,"SoundDuration":86956,"Delta":979617569},{"NoteNumber":82,"Velocity":67,"Duration":86956,"SoundDuration":86956,"Delta":979617569},{"NoteNumber":43,"Velocity":71,"Duration":86956,"SoundDuration":86956,"Delta":979617569},{"NoteNumber":31,"Velocity":60,"Duration":86956,"SoundDuration":86956,"Delta":979617569},{"NoteNumber":87,"Velocity":88,"Duration":86956,"SoundDuration":86956,"Delta":979791482},{"NoteNumber":89,"Velocity":88,"Duration":86956,"SoundDuration":86956,"Delta":979791482},{"NoteNumber":77,"Velocity":74,"Duration":86956,"SoundDuration":86956,"Delta":979791482},{"NoteNumber":83,"Velocity":74,"Duration":86956,"SoundDuration":86956,"Delta":979791482},{"NoteNumber":44,"Velocity":60,"Duration":86956,"SoundDuration":86956,"Delta":979791482},{"NoteNumber":32,"Velocity":50,"Duration":86956,"SoundDuration":86956,"Delta":979791482},{"NoteNumber":87,"Velocity":94,"Duration":107654,"SoundDuration":107654,"Delta":979965395},{"NoteNumber":89,"Velocity":94,"Duration":107654,"SoundDuration":107654,"Delta":979965395},{"NoteNumber":77,"Velocity":80,"Duration":107654,"SoundDuration":107654,"Delta":979965395},{"NoteNumber":84,"Velocity":80,"Duration":107654,"SoundDuration":107654,"Delta":979965395},{"NoteNumber":45,"Velocity":60,"Duration":107654,"SoundDuration":107654,"Delta":979965395},{"NoteNumber":33,"Velocity":50,"Duration":107654,"SoundDuration":107654,"Delta":979965395},{"NoteNumber":87,"Velocity":90,"Duration":100512,"SoundDuration":100512,"Delta":980187348},{"NoteNumber":89,"Velocity":90,"Duration":100512,"SoundDuration":100512,"Delta":980187348},{"NoteNumber":77,"Velocity":75,"Duration":100512,"SoundDuration":100512,"Delta":980187348},{"NoteNumber":81,"Velocity":75,"Duration":100512,"SoundDuration":100512,"Delta":980187348},{"NoteNumber":53,"Velocity":69,"Duration":100512,"SoundDuration":100512,"Delta":980187348},{"NoteNumber":41,"Velocity":58,"Duration":100512,"SoundDuration":100512,"Delta":980187348},{"NoteNumber":99,"Velocity":84,"Duration":90090,"SoundDuration":90090,"Delta":980388373},{"NoteNumber":101,"Velocity":84,"Duration":90090,"SoundDuration":90090,"Delta":980388373},{"NoteNumber":89,"Velocity":70,"Duration":90090,"SoundDuration":90090,"Delta":980388373},{"NoteNumber":93,"Velocity":70,"Duration":90090,"SoundDuration":90090,"Delta":980388373},{"NoteNumber":41,"Velocity":55,"Duration":90090,"SoundDuration":90090,"Delta":980388373},{"NoteNumber":29,"Velocity":46,"Duration":90090,"SoundDuration":90090,"Delta":980388373},{"NoteNumber":99,"Velocity":84,"Duration":90090,"SoundDuration":90090,"Delta":980568554},{"NoteNumber":101,"Velocity":84,"Duration":90090,"SoundDuration":90090,"Delta":980568554},{"NoteNumber":89,"Velocity":70,"Duration":90090,"SoundDuration":90090,"Delta":980568554},{"NoteNumber":93,"Velocity":70,"Duration":90090,"SoundDuration":90090,"Delta":980568554},{"NoteNumber":42,"Velocity":55,"Duration":90090,"SoundDuration":90090,"Delta":980568554},{"NoteNumber":30,"Velocity":46,"Duration":90090,"SoundDuration":90090,"Delta":980568554},{"NoteNumber":99,"Velocity":88,"Duration":86956,"SoundDuration":86956,"Delta":980748734},{"NoteNumber":101,"Velocity":88,"Duration":86956,"SoundDuration":86956,"Delta":980748734},{"NoteNumber":89,"Velocity":73,"Duration":86956,"SoundDuration":86956,"Delta":980748734},{"NoteNumber":94,"Velocity":73,"Duration":86956,"SoundDuration":86956,"Delta":980748734},{"NoteNumber":43,"Velocity":74,"Duration":86956,"SoundDuration":86956,"Delta":980748734},{"NoteNumber":31,"Velocity":62,"Duration":86956,"SoundDuration":86956,"Delta":980748734},{"NoteNumber":99,"Velocity":96,"Duration":86956,"SoundDuration":86956,"Delta":980922647},{"NoteNumber":101,"Velocity":96,"Duration":86956,"SoundDuration":86956,"Delta":980922647},{"NoteNumber":89,"Velocity":81,"Duration":86956,"SoundDuration":86956,"Delta":980922647},{"NoteNumber":95,"Velocity":81,"Duration":86956,"SoundDuration":86956,"Delta":980922647},{"NoteNumber":44,"Velocity":62,"Duration":86956,"SoundDuration":86956,"Delta":980922647},{"NoteNumber":32,"Velocity":52,"Duration":86956,"SoundDuration":86956,"Delta":980922647},{"NoteNumber":99,"Velocity":103,"Duration":100000,"SoundDuration":100000,"Delta":981096560},{"NoteNumber":101,"Velocity":103,"Duration":100000,"SoundDuration":100000,"Delta":981096560},{"NoteNumber":89,"Velocity":88,"Duration":100000,"SoundDuration":100000,"Delta":981096560},{"NoteNumber":96,"Velocity":88,"Duration":100000,"SoundDuration":100000,"Delta":981096560},{"NoteNumber":45,"Velocity":62,"Duration":100000,"SoundDuration":100000,"Delta":981096560},{"NoteNumber":33,"Velocity":52,"Duration":100000,"SoundDuration":100000,"Delta":981096560},{"NoteNumber":99,"Velocity":90,"Duration":103092,"SoundDuration":103092,"Delta":981296560},{"NoteNumber":101,"Velocity":90,"Duration":103092,"SoundDuration":103092,"Delta":981296560},{"NoteNumber":89,"Velocity":75,"Duration":103092,"SoundDuration":103092,"Delta":981296560},{"NoteNumber":93,"Velocity":75,"Duration":103092,"SoundDuration":103092,"Delta":981296560},{"NoteNumber":53,"Velocity":69,"Duration":103092,"SoundDuration":103092,"Delta":981296560},{"NoteNumber":41,"Velocity":49,"Duration":103092,"SoundDuration":103092,"Delta":981296560},{"NoteNumber":77,"Velocity":70,"Duration":91414,"SoundDuration":91414,"Delta":981502746},{"NoteNumber":89,"Velocity":84,"Duration":91414,"SoundDuration":91414,"Delta":981502746},{"NoteNumber":52,"Velocity":67,"Duration":91414,"SoundDuration":91414,"Delta":981502746},{"NoteNumber":40,"Velocity":56,"Duration":91414,"SoundDuration":91414,"Delta":981502746},{"NoteNumber":78,"Velocity":70,"Duration":93025,"SoundDuration":93025,"Delta":981685905},{"NoteNumber":90,"Velocity":84,"Duration":93025,"SoundDuration":93025,"Delta":981685905},{"NoteNumber":51,"Velocity":71,"Duration":93025,"SoundDuration":93025,"Delta":981685905},{"NoteNumber":39,"Velocity":60,"Duration":93025,"SoundDuration":93025,"Delta":981685905},{"NoteNumber":91,"Velocity":88,"Duration":95423,"SoundDuration":95423,"Delta":981873005},{"NoteNumber":79,"Velocity":73,"Duration":95423,"SoundDuration":95423,"Delta":981873005},{"NoteNumber":50,"Velocity":75,"Duration":95423,"SoundDuration":95423,"Delta":981873005},{"NoteNumber":38,"Velocity":63,"Duration":95423,"SoundDuration":95423,"Delta":981873005},{"NoteNumber":80,"Velocity":81,"Duration":97943,"SoundDuration":97943,"Delta":982065049},{"NoteNumber":92,"Velocity":96,"Duration":97943,"SoundDuration":97943,"Delta":982065049},{"NoteNumber":49,"Velocity":80,"Duration":97943,"SoundDuration":97943,"Delta":982065049},{"NoteNumber":37,"Velocity":68,"Duration":97943,"SoundDuration":97943,"Delta":982065049},{"NoteNumber":81,"Velocity":88,"Duration":119425,"SoundDuration":119425,"Delta":982261032},{"NoteNumber":93,"Velocity":103,"Duration":119425,"SoundDuration":119425,"Delta":982261032},{"NoteNumber":48,"Velocity":83,"Duration":119425,"SoundDuration":119425,"Delta":982261032},{"NoteNumber":36,"Velocity":70,"Duration":119425,"SoundDuration":119425,"Delta":982261032},{"NoteNumber":86,"Velocity":96,"Duration":317494,"SoundDuration":317494,"Delta":982512925},{"NoteNumber":82,"Velocity":96,"Duration":317494,"SoundDuration":317494,"Delta":982512925},{"NoteNumber":94,"Velocity":113,"Duration":317494,"SoundDuration":317494,"Delta":982512925},{"NoteNumber":46,"Velocity":88,"Duration":317494,"SoundDuration":317494,"Delta":982512925},{"NoteNumber":34,"Velocity":74,"Duration":317494,"SoundDuration":317494,"Delta":982512925},{"NoteNumber":41,"Velocity":74,"Duration":317494,"SoundDuration":317494,"Delta":982512925},{"NoteNumber":82,"Velocity":92,"Duration":67567,"SoundDuration":67567,"Delta":982830419},{"NoteNumber":70,"Velocity":78,"Duration":67567,"SoundDuration":67567,"Delta":982830419},{"NoteNumber":58,"Velocity":70,"Duration":67567,"SoundDuration":67567,"Delta":982830419},{"NoteNumber":82,"Velocity":91,"Duration":67567,"SoundDuration":67567,"Delta":982965554},{"NoteNumber":70,"Velocity":77,"Duration":67567,"SoundDuration":67567,"Delta":982965554},{"NoteNumber":58,"Velocity":71,"Duration":67567,"SoundDuration":67567,"Delta":982965554},{"NoteNumber":86,"Velocity":97,"Duration":63559,"SoundDuration":63559,"Delta":983100690},{"NoteNumber":74,"Velocity":82,"Duration":63559,"SoundDuration":63559,"Delta":983100690},{"NoteNumber":62,"Velocity":80,"Duration":63559,"SoundDuration":63559,"Delta":983100690},{"NoteNumber":82,"Velocity":92,"Duration":77701,"SoundDuration":77701,"Delta":983227808},{"NoteNumber":70,"Velocity":78,"Duration":77701,"SoundDuration":77701,"Delta":983227808},{"NoteNumber":58,"Velocity":73,"Duration":77701,"SoundDuration":77701,"Delta":983227808},{"NoteNumber":82,"Velocity":92,"Duration":140186,"SoundDuration":140186,"Delta":983379039},{"NoteNumber":70,"Velocity":78,"Duration":140186,"SoundDuration":140186,"Delta":983379039},{"NoteNumber":58,"Velocity":73,"Duration":140186,"SoundDuration":140186,"Delta":983379039},{"NoteNumber":77,"Velocity":97,"Duration":64102,"SoundDuration":64102,"Delta":983659413},{"NoteNumber":65,"Velocity":82,"Duration":64102,"SoundDuration":64102,"Delta":983659413},{"NoteNumber":53,"Velocity":80,"Duration":64102,"SoundDuration":64102,"Delta":983659413},{"NoteNumber":74,"Velocity":92,"Duration":67487,"SoundDuration":67487,"Delta":983787618},{"NoteNumber":62,"Velocity":78,"Duration":67487,"SoundDuration":67487,"Delta":983787618},{"NoteNumber":50,"Velocity":73,"Duration":67487,"SoundDuration":67487,"Delta":983787618},{"NoteNumber":74,"Velocity":92,"Duration":142857,"SoundDuration":142857,"Delta":983929363},{"NoteNumber":62,"Velocity":78,"Duration":142857,"SoundDuration":142857,"Delta":983929363},{"NoteNumber":50,"Velocity":73,"Duration":142857,"SoundDuration":142857,"Delta":983929363},{"NoteNumber":70,"Velocity":97,"Duration":64655,"SoundDuration":64655,"Delta":984215078},{"NoteNumber":58,"Velocity":82,"Duration":64655,"SoundDuration":64655,"Delta":984215078},{"NoteNumber":46,"Velocity":80,"Duration":64655,"SoundDuration":64655,"Delta":984215078},{"NoteNumber":65,"Velocity":92,"Duration":79787,"SoundDuration":79787,"Delta":984344388},{"NoteNumber":53,"Velocity":78,"Duration":79787,"SoundDuration":79787,"Delta":984344388},{"NoteNumber":41,"Velocity":73,"Duration":79787,"SoundDuration":79787,"Delta":984344388},{"NoteNumber":65,"Velocity":92,"Duration":151515,"SoundDuration":151515,"Delta":984503963},{"NoteNumber":53,"Velocity":78,"Duration":151515,"SoundDuration":151515,"Delta":984503963},{"NoteNumber":41,"Velocity":73,"Duration":151515,"SoundDuration":151515,"Delta":984503963},{"NoteNumber":94,"Velocity":96,"Duration":319149,"SoundDuration":319149,"Delta":984825952},{"NoteNumber":86,"Velocity":96,"Duration":319149,"SoundDuration":319149,"Delta":984825952},{"NoteNumber":98,"Velocity":113,"Duration":319149,"SoundDuration":319149,"Delta":984825952},{"NoteNumber":46,"Velocity":88,"Duration":319149,"SoundDuration":319149,"Delta":984825952},{"NoteNumber":34,"Velocity":74,"Duration":319149,"SoundDuration":319149,"Delta":984825952},{"NoteNumber":41,"Velocity":74,"Duration":319149,"SoundDuration":319149,"Delta":984825952},{"NoteNumber":86,"Velocity":92,"Duration":67567,"SoundDuration":67567,"Delta":985145101},{"NoteNumber":74,"Velocity":78,"Duration":67567,"SoundDuration":67567,"Delta":985145101},{"NoteNumber":70,"Velocity":70,"Duration":67567,"SoundDuration":67567,"Delta":985145101},{"NoteNumber":58,"Velocity":59,"Duration":67567,"SoundDuration":67567,"Delta":985145101},{"NoteNumber":86,"Velocity":91,"Duration":67567,"SoundDuration":67567,"Delta":985280236},{"NoteNumber":74,"Velocity":77,"Duration":67567,"SoundDuration":67567,"Delta":985280236},{"NoteNumber":70,"Velocity":71,"Duration":67567,"SoundDuration":67567,"Delta":985280236},{"NoteNumber":58,"Velocity":60,"Duration":67567,"SoundDuration":67567,"Delta":985280236},{"NoteNumber":89,"Velocity":97,"Duration":64102,"SoundDuration":64102,"Delta":985415371},{"NoteNumber":77,"Velocity":82,"Duration":64102,"SoundDuration":64102,"Delta":985415371},{"NoteNumber":74,"Velocity":80,"Duration":64102,"SoundDuration":64102,"Delta":985415371},{"NoteNumber":62,"Velocity":68,"Duration":64102,"SoundDuration":64102,"Delta":985415371},{"NoteNumber":86,"Velocity":92,"Duration":67006,"SoundDuration":67006,"Delta":985543577},{"NoteNumber":74,"Velocity":78,"Duration":67006,"SoundDuration":67006,"Delta":985543577},{"NoteNumber":70,"Velocity":73,"Duration":67006,"SoundDuration":67006,"Delta":985543577},{"NoteNumber":58,"Velocity":61,"Duration":67006,"SoundDuration":67006,"Delta":985543577},{"NoteNumber":86,"Velocity":92,"Duration":137197,"SoundDuration":137197,"Delta":985683399},{"NoteNumber":74,"Velocity":78,"Duration":137197,"SoundDuration":137197,"Delta":985683399},{"NoteNumber":70,"Velocity":73,"Duration":137197,"SoundDuration":137197,"Delta":985683399},{"NoteNumber":58,"Velocity":61,"Duration":137197,"SoundDuration":137197,"Delta":985683399},{"NoteNumber":82,"Velocity":97,"Duration":63559,"SoundDuration":63559,"Delta":985956960},{"NoteNumber":70,"Velocity":82,"Duration":63559,"SoundDuration":63559,"Delta":985956960},{"NoteNumber":65,"Velocity":80,"Duration":63559,"SoundDuration":63559,"Delta":985956960},{"NoteNumber":53,"Velocity":68,"Duration":63559,"SoundDuration":63559,"Delta":985956960},{"NoteNumber":77,"Velocity":92,"Duration":66882,"SoundDuration":66882,"Delta":986084079},{"NoteNumber":65,"Velocity":78,"Duration":66882,"SoundDuration":66882,"Delta":986084079},{"NoteNumber":62,"Velocity":73,"Duration":66882,"SoundDuration":66882,"Delta":986084079},{"NoteNumber":50,"Velocity":61,"Duration":66882,"SoundDuration":66882,"Delta":986084079},{"NoteNumber":77,"Velocity":92,"Duration":142857,"SoundDuration":142857,"Delta":986224491},{"NoteNumber":65,"Velocity":78,"Duration":142857,"SoundDuration":142857,"Delta":986224491},{"NoteNumber":62,"Velocity":73,"Duration":142857,"SoundDuration":142857,"Delta":986224491},{"NoteNumber":50,"Velocity":61,"Duration":142857,"SoundDuration":142857,"Delta":986224491},{"NoteNumber":74,"Velocity":97,"Duration":66371,"SoundDuration":66371,"Delta":986510206},{"NoteNumber":62,"Velocity":82,"Duration":66371,"SoundDuration":66371,"Delta":986510206},{"NoteNumber":58,"Velocity":80,"Duration":66371,"SoundDuration":66371,"Delta":986510206},{"NoteNumber":46,"Velocity":68,"Duration":66371,"SoundDuration":66371,"Delta":986510206},{"NoteNumber":70,"Velocity":92,"Duration":79787,"SoundDuration":79787,"Delta":986642949},{"NoteNumber":58,"Velocity":78,"Duration":79787,"SoundDuration":79787,"Delta":986642949},{"NoteNumber":53,"Velocity":73,"Duration":79787,"SoundDuration":79787,"Delta":986642949},{"NoteNumber":41,"Velocity":61,"Duration":79787,"SoundDuration":79787,"Delta":986642949},{"NoteNumber":70,"Velocity":92,"Duration":151515,"SoundDuration":151515,"Delta":986802524},{"NoteNumber":58,"Velocity":78,"Duration":151515,"SoundDuration":151515,"Delta":986802524},{"NoteNumber":53,"Velocity":73,"Duration":151515,"SoundDuration":151515,"Delta":986802524},{"NoteNumber":41,"Velocity":61,"Duration":151515,"SoundDuration":151515,"Delta":986802524},{"NoteNumber":98,"Velocity":96,"Duration":319149,"SoundDuration":319149,"Delta":987118892},{"NoteNumber":94,"Velocity":96,"Duration":319149,"SoundDuration":319149,"Delta":987118892},{"NoteNumber":89,"Velocity":96,"Duration":319149,"SoundDuration":319149,"Delta":987118892},{"NoteNumber":101,"Velocity":113,"Duration":319149,"SoundDuration":319149,"Delta":987118892},{"NoteNumber":38,"Velocity":74,"Duration":319149,"SoundDuration":319149,"Delta":987118892},{"NoteNumber":46,"Velocity":88,"Duration":319149,"SoundDuration":319149,"Delta":987118892},{"NoteNumber":34,"Velocity":74,"Duration":319149,"SoundDuration":319149,"Delta":987118892},{"NoteNumber":41,"Velocity":74,"Duration":319149,"SoundDuration":319149,"Delta":987118892},{"NoteNumber":89,"Velocity":92,"Duration":70093,"SoundDuration":70093,"Delta":987438041},{"NoteNumber":77,"Velocity":78,"Duration":70093,"SoundDuration":70093,"Delta":987438041},{"NoteNumber":65,"Velocity":70,"Duration":70093,"SoundDuration":70093,"Delta":987438041},{"NoteNumber":53,"Velocity":59,"Duration":70093,"SoundDuration":70093,"Delta":987438041},{"NoteNumber":89,"Velocity":91,"Duration":70093,"SoundDuration":70093,"Delta":987578228},{"NoteNumber":77,"Velocity":77,"Duration":70093,"SoundDuration":70093,"Delta":987578228},{"NoteNumber":65,"Velocity":71,"Duration":70093,"SoundDuration":70093,"Delta":987578228},{"NoteNumber":53,"Velocity":60,"Duration":70093,"SoundDuration":70093,"Delta":987578228},{"NoteNumber":94,"Velocity":97,"Duration":64655,"SoundDuration":64655,"Delta":987718415},{"NoteNumber":82,"Velocity":82,"Duration":64655,"SoundDuration":64655,"Delta":987718415},{"NoteNumber":70,"Velocity":80,"Duration":64655,"SoundDuration":64655,"Delta":987718415},{"NoteNumber":58,"Velocity":68,"Duration":64655,"SoundDuration":64655,"Delta":987718415},{"NoteNumber":89,"Velocity":92,"Duration":68103,"SoundDuration":68103,"Delta":987847725},{"NoteNumber":77,"Velocity":78,"Duration":68103,"SoundDuration":68103,"Delta":987847725},{"NoteNumber":65,"Velocity":73,"Duration":68103,"SoundDuration":68103,"Delta":987847725},{"NoteNumber":53,"Velocity":61,"Duration":68103,"SoundDuration":68103,"Delta":987847725},{"NoteNumber":89,"Velocity":92,"Duration":140186,"SoundDuration":140186,"Delta":987990829},{"NoteNumber":77,"Velocity":78,"Duration":140186,"SoundDuration":140186,"Delta":987990829},{"NoteNumber":65,"Velocity":73,"Duration":140186,"SoundDuration":140186,"Delta":987990829},{"NoteNumber":53,"Velocity":61,"Duration":140186,"SoundDuration":140186,"Delta":987990829},{"NoteNumber":86,"Velocity":97,"Duration":65789,"SoundDuration":65789,"Delta":988271203},{"NoteNumber":74,"Velocity":82,"Duration":65789,"SoundDuration":65789,"Delta":988271203},{"NoteNumber":62,"Velocity":80,"Duration":65789,"SoundDuration":65789,"Delta":988271203},{"NoteNumber":50,"Velocity":68,"Duration":65789,"SoundDuration":65789,"Delta":988271203},{"NoteNumber":82,"Velocity":92,"Duration":79787,"SoundDuration":79787,"Delta":988402782},{"NoteNumber":70,"Velocity":78,"Duration":79787,"SoundDuration":79787,"Delta":988402782},{"NoteNumber":58,"Velocity":73,"Duration":79787,"SoundDuration":79787,"Delta":988402782},{"NoteNumber":46,"Velocity":61,"Duration":79787,"SoundDuration":79787,"Delta":988402782},{"NoteNumber":82,"Velocity":92,"Duration":141136,"SoundDuration":141136,"Delta":988562356},{"NoteNumber":70,"Velocity":78,"Duration":141136,"SoundDuration":141136,"Delta":988562356},{"NoteNumber":58,"Velocity":73,"Duration":141136,"SoundDuration":141136,"Delta":988562356},{"NoteNumber":46,"Velocity":61,"Duration":141136,"SoundDuration":141136,"Delta":988562356},{"NoteNumber":77,"Velocity":102,"Duration":76530,"SoundDuration":76530,"Delta":988849124},{"NoteNumber":65,"Velocity":85,"Duration":76530,"SoundDuration":76530,"Delta":988849124},{"NoteNumber":53,"Velocity":83,"Duration":76530,"SoundDuration":76530,"Delta":988849124},{"NoteNumber":41,"Velocity":71,"Duration":76530,"SoundDuration":76530,"Delta":988849124},{"NoteNumber":74,"Velocity":96,"Duration":90129,"SoundDuration":90129,"Delta":989002185},{"NoteNumber":62,"Velocity":81,"Duration":90129,"SoundDuration":90129,"Delta":989002185},{"NoteNumber":50,"Velocity":77,"Duration":90129,"SoundDuration":90129,"Delta":989002185},{"NoteNumber":38,"Velocity":63,"Duration":90129,"SoundDuration":90129,"Delta":989002185},{"NoteNumber":74,"Velocity":96,"Duration":161887,"SoundDuration":161887,"Delta":989177542},{"NoteNumber":62,"Velocity":81,"Duration":161887,"SoundDuration":161887,"Delta":989177542},{"NoteNumber":50,"Velocity":77,"Duration":161887,"SoundDuration":161887,"Delta":989177542},{"NoteNumber":38,"Velocity":63,"Duration":161887,"SoundDuration":161887,"Delta":989177542},{"NoteNumber":70,"Velocity":97,"Duration":157480,"SoundDuration":157480,"Delta":989499004},{"NoteNumber":58,"Velocity":82,"Duration":157480,"SoundDuration":157480,"Delta":989499004},{"NoteNumber":46,"Velocity":68,"Duration":157480,"SoundDuration":157480,"Delta":989499004},{"NoteNumber":34,"Velocity":57,"Duration":157480,"SoundDuration":157480,"Delta":989499004},{"NoteNumber":65,"Velocity":89,"Duration":123966,"SoundDuration":123966,"Delta":989656484},{"NoteNumber":53,"Velocity":74,"Duration":123966,"SoundDuration":123966,"Delta":989656484},{"NoteNumber":41,"Velocity":61,"Duration":123966,"SoundDuration":123966,"Delta":989656484},{"NoteNumber":29,"Velocity":51,"Duration":123966,"SoundDuration":123966,"Delta":989656484},{"NoteNumber":82,"Velocity":97,"Duration":151515,"SoundDuration":151515,"Delta":989821773},{"NoteNumber":70,"Velocity":82,"Duration":151515,"SoundDuration":151515,"Delta":989821773},{"NoteNumber":58,"Velocity":68,"Duration":151515,"SoundDuration":151515,"Delta":989821773},{"NoteNumber":46,"Velocity":57,"Duration":151515,"SoundDuration":151515,"Delta":989821773},{"NoteNumber":77,"Velocity":84,"Duration":118110,"SoundDuration":118110,"Delta":989973288},{"NoteNumber":65,"Velocity":71,"Duration":118110,"SoundDuration":118110,"Delta":989973288},{"NoteNumber":53,"Velocity":58,"Duration":118110,"SoundDuration":118110,"Delta":989973288},{"NoteNumber":41,"Velocity":49,"Duration":118110,"SoundDuration":118110,"Delta":989973288},{"NoteNumber":94,"Velocity":97,"Duration":144927,"SoundDuration":144927,"Delta":990130769},{"NoteNumber":82,"Velocity":82,"Duration":144927,"SoundDuration":144927,"Delta":990130769},{"NoteNumber":70,"Velocity":68,"Duration":144927,"SoundDuration":144927,"Delta":990130769},{"NoteNumber":58,"Velocity":57,"Duration":144927,"SoundDuration":144927,"Delta":990130769},{"NoteNumber":89,"Velocity":85,"Duration":121951,"SoundDuration":121951,"Delta":990275696},{"NoteNumber":77,"Velocity":72,"Duration":121951,"SoundDuration":121951,"Delta":990275696},{"NoteNumber":65,"Velocity":59,"Duration":121951,"SoundDuration":121951,"Delta":990275696},{"NoteNumber":53,"Velocity":50,"Duration":121951,"SoundDuration":121951,"Delta":990275696},{"NoteNumber":82,"Velocity":97,"Duration":148147,"SoundDuration":148147,"Delta":990438298},{"NoteNumber":70,"Velocity":82,"Duration":148147,"SoundDuration":148147,"Delta":990438298},{"NoteNumber":58,"Velocity":68,"Duration":148147,"SoundDuration":148147,"Delta":990438298},{"NoteNumber":46,"Velocity":57,"Duration":148147,"SoundDuration":148147,"Delta":990438298},{"NoteNumber":77,"Velocity":88,"Duration":123966,"SoundDuration":123966,"Delta":990586446},{"NoteNumber":65,"Velocity":74,"Duration":123966,"SoundDuration":123966,"Delta":990586446},{"NoteNumber":53,"Velocity":61,"Duration":123966,"SoundDuration":123966,"Delta":990586446},{"NoteNumber":41,"Velocity":51,"Duration":123966,"SoundDuration":123966,"Delta":990586446},{"NoteNumber":70,"Velocity":97,"Duration":156250,"SoundDuration":156250,"Delta":990751735},{"NoteNumber":58,"Velocity":82,"Duration":156250,"SoundDuration":156250,"Delta":990751735},{"NoteNumber":46,"Velocity":68,"Duration":156250,"SoundDuration":156250,"Delta":990751735},{"NoteNumber":34,"Velocity":57,"Duration":156250,"SoundDuration":156250,"Delta":990751735},{"NoteNumber":65,"Velocity":89,"Duration":127118,"SoundDuration":127118,"Delta":990907985},{"NoteNumber":53,"Velocity":74,"Duration":127118,"SoundDuration":127118,"Delta":990907985},{"NoteNumber":41,"Velocity":61,"Duration":127118,"SoundDuration":127118,"Delta":990907985},{"NoteNumber":29,"Velocity":51,"Duration":127118,"SoundDuration":127118,"Delta":990907985},{"NoteNumber":82,"Velocity":97,"Duration":158730,"SoundDuration":158730,"Delta":991077477},{"NoteNumber":70,"Velocity":82,"Duration":158730,"SoundDuration":158730,"Delta":991077477},{"NoteNumber":58,"Velocity":68,"Duration":158730,"SoundDuration":158730,"Delta":991077477},{"NoteNumber":46,"Velocity":57,"Duration":158730,"SoundDuration":158730,"Delta":991077477},{"NoteNumber":77,"Velocity":89,"Duration":130434,"SoundDuration":130434,"Delta":991236207},{"NoteNumber":65,"Velocity":74,"Duration":130434,"SoundDuration":130434,"Delta":991236207},{"NoteNumber":53,"Velocity":61,"Duration":130434,"SoundDuration":130434,"Delta":991236207},{"NoteNumber":41,"Velocity":51,"Duration":130434,"SoundDuration":130434,"Delta":991236207},{"NoteNumber":94,"Velocity":97,"Duration":163934,"SoundDuration":163934,"Delta":991410120},{"NoteNumber":82,"Velocity":82,"Duration":163934,"SoundDuration":163934,"Delta":991410120},{"NoteNumber":70,"Velocity":68,"Duration":163934,"SoundDuration":163934,"Delta":991410120},{"NoteNumber":58,"Velocity":57,"Duration":163934,"SoundDuration":163934,"Delta":991410120},{"NoteNumber":89,"Velocity":90,"Duration":93458,"SoundDuration":93458,"Delta":991574054},{"NoteNumber":77,"Velocity":75,"Duration":93458,"SoundDuration":93458,"Delta":991574054},{"NoteNumber":65,"Velocity":62,"Duration":93458,"SoundDuration":93458,"Delta":991574054},{"NoteNumber":53,"Velocity":52,"Duration":93458,"SoundDuration":93458,"Delta":991574054},{"NoteNumber":82,"Velocity":97,"Duration":181801,"SoundDuration":181801,"Delta":991760970},{"NoteNumber":70,"Velocity":82,"Duration":181801,"SoundDuration":181801,"Delta":991760970},{"NoteNumber":58,"Velocity":68,"Duration":181801,"SoundDuration":181801,"Delta":991760970},{"NoteNumber":46,"Velocity":57,"Duration":181801,"SoundDuration":181801,"Delta":991760970},{"NoteNumber":77,"Velocity":89,"Duration":102040,"SoundDuration":102040,"Delta":991942772},{"NoteNumber":65,"Velocity":74,"Duration":102040,"SoundDuration":102040,"Delta":991942772},{"NoteNumber":53,"Velocity":61,"Duration":102040,"SoundDuration":102040,"Delta":991942772},{"NoteNumber":41,"Velocity":51,"Duration":102040,"SoundDuration":102040,"Delta":991942772},{"NoteNumber":70,"Velocity":97,"Duration":194174,"SoundDuration":194174,"Delta":992146854},{"NoteNumber":58,"Velocity":82,"Duration":194174,"SoundDuration":194174,"Delta":992146854},{"NoteNumber":46,"Velocity":68,"Duration":194174,"SoundDuration":194174,"Delta":992146854},{"NoteNumber":34,"Velocity":57,"Duration":194174,"SoundDuration":194174,"Delta":992146854},{"NoteNumber":65,"Velocity":89,"Duration":113636,"SoundDuration":113636,"Delta":992341028},{"NoteNumber":53,"Velocity":74,"Duration":113636,"SoundDuration":113636,"Delta":992341028},{"NoteNumber":41,"Velocity":61,"Duration":113636,"SoundDuration":113636,"Delta":992341028},{"NoteNumber":29,"Velocity":51,"Duration":113636,"SoundDuration":113636,"Delta":992341028},{"NoteNumber":34,"Velocity":102,"Duration":619429,"SoundDuration":619429,"Delta":992568301},{"NoteNumber":58,"Velocity":80,"Duration":204545,"SoundDuration":204545,"Delta":992568301},{"NoteNumber":46,"Velocity":79,"Duration":204545,"SoundDuration":204545,"Delta":992568301},{"NoteNumber":58,"Velocity":67,"Duration":176470,"SoundDuration":176470,"Delta":992795574},{"NoteNumber":46,"Velocity":66,"Duration":176470,"SoundDuration":176470,"Delta":992795574},{"NoteNumber":58,"Velocity":67,"Duration":176470,"SoundDuration":176470,"Delta":992991652},{"NoteNumber":46,"Velocity":64,"Duration":176470,"SoundDuration":176470,"Delta":992991652},{"NoteNumber":58,"Velocity":74,"Duration":176470,"SoundDuration":176470,"Delta":993187730},{"NoteNumber":46,"Velocity":70,"Duration":176470,"SoundDuration":176470,"Delta":993187730},{"NoteNumber":58,"Velocity":70,"Duration":176470,"SoundDuration":176470,"Delta":993383809},{"NoteNumber":46,"Velocity":66,"Duration":176470,"SoundDuration":176470,"Delta":993383809},{"NoteNumber":58,"Velocity":70,"Duration":176470,"SoundDuration":176470,"Delta":993579887},{"NoteNumber":46,"Velocity":66,"Duration":176470,"SoundDuration":176470,"Delta":993579887},{"NoteNumber":58,"Velocity":75,"Duration":176470,"SoundDuration":176470,"Delta":993775965},{"NoteNumber":46,"Velocity":71,"Duration":176470,"SoundDuration":176470,"Delta":993775965},{"NoteNumber":58,"Velocity":70,"Duration":176470,"SoundDuration":176470,"Delta":993972044},{"NoteNumber":46,"Velocity":66,"Duration":176470,"SoundDuration":176470,"Delta":993972044},{"NoteNumber":58,"Velocity":70,"Duration":214260,"SoundDuration":214260,"Delta":994168122},{"NoteNumber":46,"Velocity":66,"Duration":214260,"SoundDuration":214260,"Delta":994168122},{"NoteNumber":70,"Velocity":97,"Duration":676348,"SoundDuration":676348,"Delta":994406189},{"NoteNumber":65,"Velocity":82,"Duration":676348,"SoundDuration":676348,"Delta":994406189},{"NoteNumber":68,"Velocity":82,"Duration":676348,"SoundDuration":676348,"Delta":994406189},{"NoteNumber":53,"Velocity":79,"Duration":676348,"SoundDuration":676348,"Delta":994406189},{"NoteNumber":38,"Velocity":67,"Duration":676348,"SoundDuration":676348,"Delta":994406189},{"NoteNumber":58,"Velocity":74,"Duration":178217,"SoundDuration":178217,"Delta":994406189},{"NoteNumber":46,"Velocity":71,"Duration":178217,"SoundDuration":178217,"Delta":994406189},{"NoteNumber":58,"Velocity":70,"Duration":178217,"SoundDuration":178217,"Delta":994604209},{"NoteNumber":46,"Velocity":67,"Duration":178217,"SoundDuration":178217,"Delta":994604209},{"NoteNumber":58,"Velocity":70,"Duration":249535,"SoundDuration":249535,"Delta":994802228},{"NoteNumber":46,"Velocity":67,"Duration":249535,"SoundDuration":249535,"Delta":994802228},{"NoteNumber":70,"Velocity":103,"Duration":918367,"SoundDuration":918367,"Delta":995082538},{"NoteNumber":66,"Velocity":86,"Duration":1224489,"SoundDuration":1224489,"Delta":995082538},{"NoteNumber":54,"Velocity":85,"Duration":1224489,"SoundDuration":1224489,"Delta":995082538},{"NoteNumber":39,"Velocity":72,"Duration":1224489,"SoundDuration":1224489,"Delta":995082538},{"NoteNumber":58,"Velocity":74,"Duration":183673,"SoundDuration":183673,"Delta":995082538},{"NoteNumber":46,"Velocity":71,"Duration":183673,"SoundDuration":183673,"Delta":995082538},{"NoteNumber":58,"Velocity":67,"Duration":183673,"SoundDuration":183673,"Delta":995286620},{"NoteNumber":46,"Velocity":66,"Duration":183673,"SoundDuration":183673,"Delta":995286620},{"NoteNumber":58,"Velocity":67,"Duration":183673,"SoundDuration":183673,"Delta":995490701},{"NoteNumber":46,"Velocity":64,"Duration":183673,"SoundDuration":183673,"Delta":995490701},{"NoteNumber":58,"Velocity":74,"Duration":183673,"SoundDuration":183673,"Delta":995694783},{"NoteNumber":46,"Velocity":70,"Duration":183673,"SoundDuration":183673,"Delta":995694783},{"NoteNumber":58,"Velocity":70,"Duration":183673,"SoundDuration":183673,"Delta":995898865},{"NoteNumber":46,"Velocity":66,"Duration":183673,"SoundDuration":183673,"Delta":995898865},{"NoteNumber":70,"Velocity":100,"Duration":306122,"SoundDuration":306122,"Delta":996000905},{"NoteNumber":58,"Velocity":70,"Duration":183673,"SoundDuration":183673,"Delta":996102946},{"NoteNumber":46,"Velocity":66,"Duration":183673,"SoundDuration":183673,"Delta":996102946},{"NoteNumber":70,"Velocity":105,"Duration":612245,"SoundDuration":612245,"Delta":996307028},{"NoteNumber":58,"Velocity":75,"Duration":183673,"SoundDuration":183673,"Delta":996307028},{"NoteNumber":46,"Velocity":71,"Duration":183673,"SoundDuration":183673,"Delta":996307028},{"NoteNumber":58,"Velocity":70,"Duration":183673,"SoundDuration":183673,"Delta":996511110},{"NoteNumber":46,"Velocity":66,"Duration":183673,"SoundDuration":183673,"Delta":996511110},{"NoteNumber":58,"Velocity":70,"Duration":183673,"SoundDuration":183673,"Delta":996715191},{"NoteNumber":46,"Velocity":66,"Duration":183673,"SoundDuration":183673,"Delta":996715191},{"NoteNumber":70,"Velocity":102,"Duration":677551,"SoundDuration":677551,"Delta":996919273},{"NoteNumber":65,"Velocity":91,"Duration":677551,"SoundDuration":677551,"Delta":996919273},{"NoteNumber":53,"Velocity":79,"Duration":677551,"SoundDuration":677551,"Delta":996919273},{"NoteNumber":41,"Velocity":67,"Duration":677551,"SoundDuration":677551,"Delta":996919273},{"NoteNumber":58,"Velocity":74,"Duration":183673,"SoundDuration":183673,"Delta":996919273},{"NoteNumber":46,"Velocity":71,"Duration":183673,"SoundDuration":183673,"Delta":996919273},{"NoteNumber":58,"Velocity":70,"Duration":183673,"SoundDuration":183673,"Delta":997123355},{"NoteNumber":46,"Velocity":67,"Duration":183673,"SoundDuration":183673,"Delta":997123355},{"NoteNumber":58,"Velocity":70,"Duration":242357,"SoundDuration":242357,"Delta":997327436},{"NoteNumber":46,"Velocity":67,"Duration":242357,"SoundDuration":242357,"Delta":997327436},{"NoteNumber":70,"Velocity":106,"Duration":927835,"SoundDuration":927835,"Delta":997596824},{"NoteNumber":63,"Velocity":96,"Duration":1855671,"SoundDuration":1855671,"Delta":997596824},{"NoteNumber":51,"Velocity":85,"Duration":1855671,"SoundDuration":1855671,"Delta":997596824},{"NoteNumber":42,"Velocity":72,"Duration":1855671,"SoundDuration":1855671,"Delta":997596824},{"NoteNumber":58,"Velocity":74,"Duration":185567,"SoundDuration":185567,"Delta":997596824},{"NoteNumber":46,"Velocity":71,"Duration":185567,"SoundDuration":185567,"Delta":997596824},{"NoteNumber":58,"Velocity":67,"Duration":185567,"SoundDuration":185567,"Delta":997803010},{"NoteNumber":46,"Velocity":66,"Duration":185567,"SoundDuration":185567,"Delta":997803010},{"NoteNumber":58,"Velocity":67,"Duration":185567,"SoundDuration":185567,"Delta":998009195},{"NoteNumber":46,"Velocity":64,"Duration":185567,"SoundDuration":185567,"Delta":998009195},{"NoteNumber":58,"Velocity":74,"Duration":185567,"SoundDuration":185567,"Delta":998215381},{"NoteNumber":46,"Velocity":70,"Duration":185567,"SoundDuration":185567,"Delta":998215381},{"NoteNumber":58,"Velocity":70,"Duration":185567,"SoundDuration":185567,"Delta":998421567},{"NoteNumber":46,"Velocity":66,"Duration":185567,"SoundDuration":185567,"Delta":998421567},{"NoteNumber":70,"Velocity":92,"Duration":309278,"SoundDuration":309278,"Delta":998524659},{"NoteNumber":58,"Velocity":70,"Duration":185567,"SoundDuration":185567,"Delta":998627752},{"NoteNumber":46,"Velocity":66,"Duration":185567,"SoundDuration":185567,"Delta":998627752},{"NoteNumber":70,"Velocity":99,"Duration":618557,"SoundDuration":618557,"Delta":998833938},{"NoteNumber":58,"Velocity":75,"Duration":185567,"SoundDuration":185567,"Delta":998833938},{"NoteNumber":46,"Velocity":71,"Duration":185567,"SoundDuration":185567,"Delta":998833938},{"NoteNumber":58,"Velocity":70,"Duration":185567,"SoundDuration":185567,"Delta":999040124},{"NoteNumber":46,"Velocity":66,"Duration":185567,"SoundDuration":185567,"Delta":999040124},{"NoteNumber":58,"Velocity":70,"Duration":185567,"SoundDuration":185567,"Delta":999246309},{"NoteNumber":46,"Velocity":66,"Duration":185567,"SoundDuration":185567,"Delta":999246309},{"NoteNumber":70,"Velocity":96,"Duration":679002,"SoundDuration":679002,"Delta":999452495},{"NoteNumber":62,"Velocity":81,"Duration":679002,"SoundDuration":679002,"Delta":999452495},{"NoteNumber":50,"Velocity":79,"Duration":679002,"SoundDuration":679002,"Delta":999452495},{"NoteNumber":44,"Velocity":67,"Duration":679002,"SoundDuration":679002,"Delta":999452495},{"NoteNumber":58,"Velocity":74,"Duration":185567,"SoundDuration":185567,"Delta":999452495},{"NoteNumber":46,"Velocity":71,"Duration":185567,"SoundDuration":185567,"Delta":999452495},{"NoteNumber":58,"Velocity":70,"Duration":185567,"SoundDuration":185567,"Delta":999658681},{"NoteNumber":46,"Velocity":67,"Duration":185567,"SoundDuration":185567,"Delta":999658681},{"NoteNumber":58,"Velocity":70,"Duration":239967,"SoundDuration":239967,"Delta":999864866},{"NoteNumber":46,"Velocity":67,"Duration":239967,"SoundDuration":239967,"Delta":999864866},{"NoteNumber":70,"Velocity":103,"Duration":625000,"SoundDuration":625000,"Delta":1000131497},{"NoteNumber":63,"Velocity":86,"Duration":625000,"SoundDuration":625000,"Delta":1000131497},{"NoteNumber":51,"Velocity":85,"Duration":625000,"SoundDuration":625000,"Delta":1000131497},{"NoteNumber":42,"Velocity":72,"Duration":625000,"SoundDuration":625000,"Delta":1000131497},{"NoteNumber":58,"Velocity":74,"Duration":187500,"SoundDuration":187500,"Delta":1000131497},{"NoteNumber":46,"Velocity":71,"Duration":187500,"SoundDuration":187500,"Delta":1000131497},{"NoteNumber":58,"Velocity":67,"Duration":187500,"SoundDuration":187500,"Delta":1000339831},{"NoteNumber":46,"Velocity":66,"Duration":187500,"SoundDuration":187500,"Delta":1000339831},{"NoteNumber":58,"Velocity":67,"Duration":187500,"SoundDuration":187500,"Delta":1000548164},{"NoteNumber":46,"Velocity":64,"Duration":187500,"SoundDuration":187500,"Delta":1000548164},{"NoteNumber":63,"Velocity":86,"Duration":625000,"SoundDuration":625000,"Delta":1000756497},{"NoteNumber":70,"Velocity":92,"Duration":625000,"SoundDuration":625000,"Delta":1000756497},{"NoteNumber":42,"Velocity":67,"Duration":625000,"SoundDuration":625000,"Delta":1000756497},{"NoteNumber":51,"Velocity":79,"Duration":625000,"SoundDuration":625000,"Delta":1000756497},{"NoteNumber":58,"Velocity":74,"Duration":187500,"SoundDuration":187500,"Delta":1000756497},{"NoteNumber":46,"Velocity":70,"Duration":187500,"SoundDuration":187500,"Delta":1000756497},{"NoteNumber":58,"Velocity":70,"Duration":187500,"SoundDuration":187500,"Delta":1000964831},{"NoteNumber":46,"Velocity":66,"Duration":187500,"SoundDuration":187500,"Delta":1000964831},{"NoteNumber":58,"Velocity":70,"Duration":187500,"SoundDuration":187500,"Delta":1001173164},{"NoteNumber":46,"Velocity":66,"Duration":187500,"SoundDuration":187500,"Delta":1001173164},{"NoteNumber":62,"Velocity":86,"Duration":659341,"SoundDuration":659341,"Delta":1001381497},{"NoteNumber":65,"Velocity":86,"Duration":659341,"SoundDuration":659341,"Delta":1001381497},{"NoteNumber":70,"Velocity":99,"Duration":659341,"SoundDuration":659341,"Delta":1001381497},{"NoteNumber":41,"Velocity":67,"Duration":659341,"SoundDuration":659341,"Delta":1001381497},{"NoteNumber":44,"Velocity":67,"Duration":659341,"SoundDuration":659341,"Delta":1001381497},{"NoteNumber":53,"Velocity":79,"Duration":659341,"SoundDuration":659341,"Delta":1001381497},{"NoteNumber":58,"Velocity":75,"Duration":197802,"SoundDuration":197802,"Delta":1001381497},{"NoteNumber":46,"Velocity":71,"Duration":197802,"SoundDuration":197802,"Delta":1001381497},{"NoteNumber":58,"Velocity":70,"Duration":197802,"SoundDuration":197802,"Delta":1001601278},{"NoteNumber":46,"Velocity":66,"Duration":197802,"SoundDuration":197802,"Delta":1001601278},{"NoteNumber":58,"Velocity":70,"Duration":197802,"SoundDuration":197802,"Delta":1001821058},{"NoteNumber":46,"Velocity":66,"Duration":197802,"SoundDuration":197802,"Delta":1001821058},{"NoteNumber":63,"Velocity":81,"Duration":750410,"SoundDuration":750410,"Delta":1002040838},{"NoteNumber":70,"Velocity":96,"Duration":750410,"SoundDuration":750410,"Delta":1002040838},{"NoteNumber":66,"Velocity":81,"Duration":750410,"SoundDuration":750410,"Delta":1002040838},{"NoteNumber":39,"Velocity":67,"Duration":750410,"SoundDuration":750410,"Delta":1002040838},{"NoteNumber":54,"Velocity":79,"Duration":750410,"SoundDuration":750410,"Delta":1002040838},{"NoteNumber":42,"Velocity":67,"Duration":750410,"SoundDuration":750410,"Delta":1002040838},{"NoteNumber":58,"Velocity":74,"Duration":214260,"SoundDuration":214260,"Delta":1002040838},{"NoteNumber":46,"Velocity":71,"Duration":214260,"SoundDuration":214260,"Delta":1002040838},{"NoteNumber":58,"Velocity":70,"Duration":214260,"SoundDuration":214260,"Delta":1002278905},{"NoteNumber":46,"Velocity":67,"Duration":214260,"SoundDuration":214260,"Delta":1002278905},{"NoteNumber":58,"Velocity":70,"Duration":249588,"SoundDuration":249588,"Delta":1002516972},{"NoteNumber":46,"Velocity":67,"Duration":249588,"SoundDuration":249588,"Delta":1002516972},{"NoteNumber":70,"Velocity":57,"Duration":155172,"SoundDuration":155172,"Delta":1002791249},{"NoteNumber":65,"Velocity":47,"Duration":155172,"SoundDuration":155172,"Delta":1002791249},{"NoteNumber":58,"Velocity":47,"Duration":155172,"SoundDuration":155172,"Delta":1002791249},{"NoteNumber":62,"Velocity":47,"Duration":155172,"SoundDuration":155172,"Delta":1002791249},{"NoteNumber":46,"Velocity":44,"Duration":155172,"SoundDuration":155172,"Delta":1002791249},{"NoteNumber":34,"Velocity":37,"Duration":155172,"SoundDuration":155172,"Delta":1002791249},{"NoteNumber":38,"Velocity":37,"Duration":155172,"SoundDuration":155172,"Delta":1002791249},{"NoteNumber":41,"Velocity":37,"Duration":155172,"SoundDuration":155172,"Delta":1002791249},{"NoteNumber":70,"Velocity":49,"Duration":141449,"SoundDuration":141449,"Delta":1002963663},{"NoteNumber":58,"Velocity":40,"Duration":141449,"SoundDuration":141449,"Delta":1002963663},{"NoteNumber":62,"Velocity":40,"Duration":141449,"SoundDuration":141449,"Delta":1002963663},{"NoteNumber":65,"Velocity":40,"Duration":141449,"SoundDuration":141449,"Delta":1002963663},{"NoteNumber":46,"Velocity":40,"Duration":141449,"SoundDuration":141449,"Delta":1002963663},{"NoteNumber":34,"Velocity":34,"Duration":141449,"SoundDuration":141449,"Delta":1002963663},{"NoteNumber":38,"Velocity":34,"Duration":141449,"SoundDuration":141449,"Delta":1002963663},{"NoteNumber":41,"Velocity":34,"Duration":141449,"SoundDuration":141449,"Delta":1002963663},{"NoteNumber":70,"Velocity":49,"Duration":143121,"SoundDuration":143121,"Delta":1003121244},{"NoteNumber":58,"Velocity":40,"Duration":143121,"SoundDuration":143121,"Delta":1003121244},{"NoteNumber":62,"Velocity":40,"Duration":143121,"SoundDuration":143121,"Delta":1003121244},{"NoteNumber":65,"Velocity":40,"Duration":143121,"SoundDuration":143121,"Delta":1003121244},{"NoteNumber":46,"Velocity":40,"Duration":143121,"SoundDuration":143121,"Delta":1003121244},{"NoteNumber":34,"Velocity":35,"Duration":143121,"SoundDuration":143121,"Delta":1003121244},{"NoteNumber":38,"Velocity":35,"Duration":143121,"SoundDuration":143121,"Delta":1003121244},{"NoteNumber":41,"Velocity":35,"Duration":143121,"SoundDuration":143121,"Delta":1003121244},{"NoteNumber":70,"Velocity":51,"Duration":70527,"SoundDuration":70527,"Delta":1003280240},{"NoteNumber":65,"Velocity":41,"Duration":70527,"SoundDuration":70527,"Delta":1003280240},{"NoteNumber":58,"Velocity":41,"Duration":70527,"SoundDuration":70527,"Delta":1003280240},{"NoteNumber":62,"Velocity":41,"Duration":70527,"SoundDuration":70527,"Delta":1003280240},{"NoteNumber":46,"Velocity":41,"Duration":70527,"SoundDuration":70527,"Delta":1003280240},{"NoteNumber":34,"Velocity":34,"Duration":70527,"SoundDuration":70527,"Delta":1003280240},{"NoteNumber":38,"Velocity":34,"Duration":70527,"SoundDuration":70527,"Delta":1003280240},{"NoteNumber":41,"Velocity":34,"Duration":70527,"SoundDuration":70527,"Delta":1003280240},{"NoteNumber":70,"Velocity":52,"Duration":67358,"SoundDuration":67358,"Delta":1003435077},{"NoteNumber":58,"Velocity":43,"Duration":67358,"SoundDuration":67358,"Delta":1003435077},{"NoteNumber":62,"Velocity":43,"Duration":67358,"SoundDuration":67358,"Delta":1003435077},{"NoteNumber":65,"Velocity":43,"Duration":67358,"SoundDuration":67358,"Delta":1003435077},{"NoteNumber":46,"Velocity":43,"Duration":67358,"SoundDuration":67358,"Delta":1003435077},{"NoteNumber":34,"Velocity":37,"Duration":67358,"SoundDuration":67358,"Delta":1003435077},{"NoteNumber":38,"Velocity":37,"Duration":67358,"SoundDuration":67358,"Delta":1003435077},{"NoteNumber":41,"Velocity":37,"Duration":67358,"SoundDuration":67358,"Delta":1003435077},{"NoteNumber":70,"Velocity":53,"Duration":64463,"SoundDuration":64463,"Delta":1003583037},{"NoteNumber":58,"Velocity":43,"Duration":64463,"SoundDuration":64463,"Delta":1003583037},{"NoteNumber":62,"Velocity":43,"Duration":64463,"SoundDuration":64463,"Delta":1003583037},{"NoteNumber":65,"Velocity":43,"Duration":64463,"SoundDuration":64463,"Delta":1003583037},{"NoteNumber":46,"Velocity":43,"Duration":64463,"SoundDuration":64463,"Delta":1003583037},{"NoteNumber":34,"Velocity":37,"Duration":64463,"SoundDuration":64463,"Delta":1003583037},{"NoteNumber":38,"Velocity":37,"Duration":64463,"SoundDuration":64463,"Delta":1003583037},{"NoteNumber":41,"Velocity":37,"Duration":64463,"SoundDuration":64463,"Delta":1003583037},{"NoteNumber":70,"Velocity":53,"Duration":62504,"SoundDuration":62504,"Delta":1003724709},{"NoteNumber":65,"Velocity":45,"Duration":62504,"SoundDuration":62504,"Delta":1003724709},{"NoteNumber":58,"Velocity":45,"Duration":62504,"SoundDuration":62504,"Delta":1003724709},{"NoteNumber":62,"Velocity":45,"Duration":62504,"SoundDuration":62504,"Delta":1003724709},{"NoteNumber":46,"Velocity":45,"Duration":62504,"SoundDuration":62504,"Delta":1003724709},{"NoteNumber":34,"Velocity":38,"Duration":62504,"SoundDuration":62504,"Delta":1003724709},{"NoteNumber":38,"Velocity":38,"Duration":62504,"SoundDuration":62504,"Delta":1003724709},{"NoteNumber":41,"Velocity":38,"Duration":62504,"SoundDuration":62504,"Delta":1003724709},{"NoteNumber":70,"Velocity":55,"Duration":61505,"SoundDuration":61505,"Delta":1003863127},{"NoteNumber":58,"Velocity":46,"Duration":61505,"SoundDuration":61505,"Delta":1003863127},{"NoteNumber":62,"Velocity":46,"Duration":61505,"SoundDuration":61505,"Delta":1003863127},{"NoteNumber":65,"Velocity":46,"Duration":61505,"SoundDuration":61505,"Delta":1003863127},{"NoteNumber":46,"Velocity":46,"Duration":61505,"SoundDuration":61505,"Delta":1003863127},{"NoteNumber":34,"Velocity":39,"Duration":61505,"SoundDuration":61505,"Delta":1003863127},{"NoteNumber":38,"Velocity":39,"Duration":61505,"SoundDuration":61505,"Delta":1003863127},{"NoteNumber":41,"Velocity":39,"Duration":61505,"SoundDuration":61505,"Delta":1003863127},{"NoteNumber":70,"Velocity":55,"Duration":60000,"SoundDuration":60000,"Delta":1003998731},{"NoteNumber":58,"Velocity":48,"Duration":60000,"SoundDuration":60000,"Delta":1003998731},{"NoteNumber":62,"Velocity":48,"Duration":60000,"SoundDuration":60000,"Delta":1003998731},{"NoteNumber":65,"Velocity":48,"Duration":60000,"SoundDuration":60000,"Delta":1003998731},{"NoteNumber":46,"Velocity":48,"Duration":60000,"SoundDuration":60000,"Delta":1003998731},{"NoteNumber":34,"Velocity":39,"Duration":60000,"SoundDuration":60000,"Delta":1003998731},{"NoteNumber":38,"Velocity":39,"Duration":60000,"SoundDuration":60000,"Delta":1003998731},{"NoteNumber":41,"Velocity":39,"Duration":60000,"SoundDuration":60000,"Delta":1003998731},{"NoteNumber":70,"Velocity":58,"Duration":58194,"SoundDuration":58194,"Delta":1004131187},{"NoteNumber":65,"Velocity":48,"Duration":58194,"SoundDuration":58194,"Delta":1004131187},{"NoteNumber":58,"Velocity":48,"Duration":58194,"SoundDuration":58194,"Delta":1004131187},{"NoteNumber":62,"Velocity":48,"Duration":58194,"SoundDuration":58194,"Delta":1004131187},{"NoteNumber":46,"Velocity":48,"Duration":58194,"SoundDuration":58194,"Delta":1004131187},{"NoteNumber":34,"Velocity":42,"Duration":58194,"SoundDuration":58194,"Delta":1004131187},{"NoteNumber":38,"Velocity":42,"Duration":58194,"SoundDuration":58194,"Delta":1004131187},{"NoteNumber":41,"Velocity":42,"Duration":58194,"SoundDuration":58194,"Delta":1004131187},{"NoteNumber":70,"Velocity":59,"Duration":59347,"SoundDuration":59347,"Delta":1004259819},{"NoteNumber":58,"Velocity":50,"Duration":59347,"SoundDuration":59347,"Delta":1004259819},{"NoteNumber":62,"Velocity":50,"Duration":59347,"SoundDuration":59347,"Delta":1004259819},{"NoteNumber":65,"Velocity":50,"Duration":59347,"SoundDuration":59347,"Delta":1004259819},{"NoteNumber":46,"Velocity":50,"Duration":59347,"SoundDuration":59347,"Delta":1004259819},{"NoteNumber":34,"Velocity":41,"Duration":59347,"SoundDuration":59347,"Delta":1004259819},{"NoteNumber":38,"Velocity":41,"Duration":59347,"SoundDuration":59347,"Delta":1004259819},{"NoteNumber":41,"Velocity":41,"Duration":59347,"SoundDuration":59347,"Delta":1004259819},{"NoteNumber":70,"Velocity":60,"Duration":63286,"SoundDuration":63286,"Delta":1004394102},{"NoteNumber":58,"Velocity":50,"Duration":63286,"SoundDuration":63286,"Delta":1004394102},{"NoteNumber":62,"Velocity":50,"Duration":63286,"SoundDuration":63286,"Delta":1004394102},{"NoteNumber":65,"Velocity":50,"Duration":63286,"SoundDuration":63286,"Delta":1004394102},{"NoteNumber":46,"Velocity":50,"Duration":63286,"SoundDuration":63286,"Delta":1004394102},{"NoteNumber":34,"Velocity":42,"Duration":63286,"SoundDuration":63286,"Delta":1004394102},{"NoteNumber":38,"Velocity":42,"Duration":63286,"SoundDuration":63286,"Delta":1004394102},{"NoteNumber":41,"Velocity":42,"Duration":63286,"SoundDuration":63286,"Delta":1004394102},{"NoteNumber":70,"Velocity":81,"Duration":139280,"SoundDuration":139280,"Delta":1004536092},{"NoteNumber":58,"Velocity":68,"Duration":139280,"SoundDuration":139280,"Delta":1004536092},{"NoteNumber":62,"Velocity":68,"Duration":139280,"SoundDuration":139280,"Delta":1004536092},{"NoteNumber":65,"Velocity":68,"Duration":139280,"SoundDuration":139280,"Delta":1004536092},{"NoteNumber":46,"Velocity":56,"Duration":139280,"SoundDuration":139280,"Delta":1004536092},{"NoteNumber":34,"Velocity":46,"Duration":139280,"SoundDuration":139280,"Delta":1004536092},{"NoteNumber":38,"Velocity":46,"Duration":139280,"SoundDuration":139280,"Delta":1004536092},{"NoteNumber":41,"Velocity":46,"Duration":139280,"SoundDuration":139280,"Delta":1004536092},{"NoteNumber":74,"Velocity":78,"Duration":136831,"SoundDuration":136831,"Delta":1004675372},{"NoteNumber":62,"Velocity":66,"Duration":136831,"SoundDuration":136831,"Delta":1004675372},{"NoteNumber":50,"Velocity":53,"Duration":136831,"SoundDuration":136831,"Delta":1004675372},{"NoteNumber":38,"Velocity":45,"Duration":136831,"SoundDuration":136831,"Delta":1004675372},{"NoteNumber":77,"Velocity":81,"Duration":134054,"SoundDuration":134054,"Delta":1004812203},{"NoteNumber":65,"Velocity":68,"Duration":134054,"SoundDuration":134054,"Delta":1004812203},{"NoteNumber":53,"Velocity":56,"Duration":134054,"SoundDuration":134054,"Delta":1004812203},{"NoteNumber":41,"Velocity":46,"Duration":134054,"SoundDuration":134054,"Delta":1004812203},{"NoteNumber":82,"Velocity":85,"Duration":131089,"SoundDuration":131089,"Delta":1004946257},{"NoteNumber":70,"Velocity":72,"Duration":131089,"SoundDuration":131089,"Delta":1004946257},{"NoteNumber":58,"Velocity":58,"Duration":131089,"SoundDuration":131089,"Delta":1004946257},{"NoteNumber":46,"Velocity":50,"Duration":131089,"SoundDuration":131089,"Delta":1004946257},{"NoteNumber":86,"Velocity":89,"Duration":128704,"SoundDuration":128704,"Delta":1005077347},{"NoteNumber":74,"Velocity":74,"Duration":128704,"SoundDuration":128704,"Delta":1005077347},{"NoteNumber":62,"Velocity":61,"Duration":128704,"SoundDuration":128704,"Delta":1005077347},{"NoteNumber":50,"Velocity":51,"Duration":128704,"SoundDuration":128704,"Delta":1005077347},{"NoteNumber":89,"Velocity":92,"Duration":126790,"SoundDuration":126790,"Delta":1005206052},{"NoteNumber":77,"Velocity":78,"Duration":126790,"SoundDuration":126790,"Delta":1005206052},{"NoteNumber":65,"Velocity":63,"Duration":126790,"SoundDuration":126790,"Delta":1005206052},{"NoteNumber":53,"Velocity":53,"Duration":126790,"SoundDuration":126790,"Delta":1005206052},{"NoteNumber":94,"Velocity":97,"Duration":124247,"SoundDuration":124247,"Delta":1005332842},{"NoteNumber":82,"Velocity":81,"Duration":124247,"SoundDuration":124247,"Delta":1005332842},{"NoteNumber":70,"Velocity":67,"Duration":124247,"SoundDuration":124247,"Delta":1005332842},{"NoteNumber":58,"Velocity":56,"Duration":124247,"SoundDuration":124247,"Delta":1005332842},{"NoteNumber":89,"Velocity":94,"Duration":121827,"SoundDuration":121827,"Delta":1005457089},{"NoteNumber":77,"Velocity":80,"Duration":121827,"SoundDuration":121827,"Delta":1005457089},{"NoteNumber":65,"Velocity":66,"Duration":121827,"SoundDuration":121827,"Delta":1005457089},{"NoteNumber":53,"Velocity":55,"Duration":121827,"SoundDuration":121827,"Delta":1005457089},{"NoteNumber":86,"Velocity":91,"Duration":119621,"SoundDuration":119621,"Delta":1005578917},{"NoteNumber":74,"Velocity":77,"Duration":119621,"SoundDuration":119621,"Delta":1005578917},{"NoteNumber":62,"Velocity":63,"Duration":119621,"SoundDuration":119621,"Delta":1005578917},{"NoteNumber":50,"Velocity":52,"Duration":119621,"SoundDuration":119621,"Delta":1005578917},{"NoteNumber":82,"Velocity":89,"Duration":117357,"SoundDuration":117357,"Delta":1005698538},{"NoteNumber":70,"Velocity":74,"Duration":117357,"SoundDuration":117357,"Delta":1005698538},{"NoteNumber":58,"Velocity":61,"Duration":117357,"SoundDuration":117357,"Delta":1005698538},{"NoteNumber":46,"Velocity":51,"Duration":117357,"SoundDuration":117357,"Delta":1005698538},{"NoteNumber":77,"Velocity":86,"Duration":112395,"SoundDuration":112395,"Delta":1005815896},{"NoteNumber":65,"Velocity":73,"Duration":112395,"SoundDuration":112395,"Delta":1005815896},{"NoteNumber":53,"Velocity":60,"Duration":112395,"SoundDuration":112395,"Delta":1005815896},{"NoteNumber":41,"Velocity":50,"Duration":112395,"SoundDuration":112395,"Delta":1005815896},{"NoteNumber":74,"Velocity":82,"Duration":103223,"SoundDuration":103223,"Delta":1005928291},{"NoteNumber":62,"Velocity":69,"Duration":103223,"SoundDuration":103223,"Delta":1005928291},{"NoteNumber":50,"Velocity":57,"Duration":103223,"SoundDuration":103223,"Delta":1005928291},{"NoteNumber":38,"Velocity":48,"Duration":103223,"SoundDuration":103223,"Delta":1005928291},{"NoteNumber":70,"Velocity":88,"Duration":126753,"SoundDuration":126753,"Delta":1006031514},{"NoteNumber":58,"Velocity":69,"Duration":126753,"SoundDuration":126753,"Delta":1006031514},{"NoteNumber":62,"Velocity":69,"Duration":126753,"SoundDuration":126753,"Delta":1006031514},{"NoteNumber":65,"Velocity":73,"Duration":126753,"SoundDuration":126753,"Delta":1006031514},{"NoteNumber":46,"Velocity":57,"Duration":126753,"SoundDuration":126753,"Delta":1006031514},{"NoteNumber":34,"Velocity":48,"Duration":126753,"SoundDuration":126753,"Delta":1006031514},{"NoteNumber":38,"Velocity":48,"Duration":126753,"SoundDuration":126753,"Delta":1006031514},{"NoteNumber":41,"Velocity":48,"Duration":126753,"SoundDuration":126753,"Delta":1006031514},{"NoteNumber":72,"Velocity":86,"Duration":123890,"SoundDuration":123890,"Delta":1006281817},{"NoteNumber":60,"Velocity":72,"Duration":123890,"SoundDuration":123890,"Delta":1006281817},{"NoteNumber":65,"Velocity":72,"Duration":123890,"SoundDuration":123890,"Delta":1006281817},{"NoteNumber":69,"Velocity":72,"Duration":123890,"SoundDuration":123890,"Delta":1006281817},{"NoteNumber":53,"Velocity":60,"Duration":123890,"SoundDuration":123890,"Delta":1006281817},{"NoteNumber":41,"Velocity":50,"Duration":123890,"SoundDuration":123890,"Delta":1006281817},{"NoteNumber":45,"Velocity":50,"Duration":123890,"SoundDuration":123890,"Delta":1006281817},{"NoteNumber":48,"Velocity":50,"Duration":123890,"SoundDuration":123890,"Delta":1006281817},{"NoteNumber":74,"Velocity":89,"Duration":123704,"SoundDuration":123704,"Delta":1006529675},{"NoteNumber":62,"Velocity":75,"Duration":123704,"SoundDuration":123704,"Delta":1006529675},{"NoteNumber":65,"Velocity":75,"Duration":123704,"SoundDuration":123704,"Delta":1006529675},{"NoteNumber":70,"Velocity":75,"Duration":123704,"SoundDuration":123704,"Delta":1006529675},{"NoteNumber":58,"Velocity":61,"Duration":123704,"SoundDuration":123704,"Delta":1006529675},{"NoteNumber":46,"Velocity":52,"Duration":123704,"SoundDuration":123704,"Delta":1006529675},{"NoteNumber":50,"Velocity":52,"Duration":123704,"SoundDuration":123704,"Delta":1006529675},{"NoteNumber":53,"Velocity":52,"Duration":123704,"SoundDuration":123704,"Delta":1006529675},{"NoteNumber":77,"Velocity":92,"Duration":122159,"SoundDuration":122159,"Delta":1006776330},{"NoteNumber":65,"Velocity":78,"Duration":122159,"SoundDuration":122159,"Delta":1006776330},{"NoteNumber":69,"Velocity":78,"Duration":122159,"SoundDuration":122159,"Delta":1006776330},{"NoteNumber":72,"Velocity":78,"Duration":122159,"SoundDuration":122159,"Delta":1006776330},{"NoteNumber":53,"Velocity":63,"Duration":122159,"SoundDuration":122159,"Delta":1006776330},{"NoteNumber":41,"Velocity":53,"Duration":122159,"SoundDuration":122159,"Delta":1006776330},{"NoteNumber":45,"Velocity":53,"Duration":122159,"SoundDuration":122159,"Delta":1006776330},{"NoteNumber":48,"Velocity":53,"Duration":122159,"SoundDuration":122159,"Delta":1006776330},{"NoteNumber":82,"Velocity":94,"Duration":122950,"SoundDuration":122950,"Delta":1007020294},{"NoteNumber":70,"Velocity":80,"Duration":122950,"SoundDuration":122950,"Delta":1007020294},{"NoteNumber":74,"Velocity":80,"Duration":122950,"SoundDuration":122950,"Delta":1007020294},{"NoteNumber":77,"Velocity":80,"Duration":122950,"SoundDuration":122950,"Delta":1007020294},{"NoteNumber":46,"Velocity":66,"Duration":122950,"SoundDuration":122950,"Delta":1007020294},{"NoteNumber":34,"Velocity":55,"Duration":122950,"SoundDuration":122950,"Delta":1007020294},{"NoteNumber":38,"Velocity":55,"Duration":122950,"SoundDuration":122950,"Delta":1007020294},{"NoteNumber":41,"Velocity":55,"Duration":122950,"SoundDuration":122950,"Delta":1007020294},{"NoteNumber":84,"Velocity":99,"Duration":124535,"SoundDuration":124535,"Delta":1007267026},{"NoteNumber":81,"Velocity":84,"Duration":124535,"SoundDuration":124535,"Delta":1007267026},{"NoteNumber":77,"Velocity":84,"Duration":124535,"SoundDuration":124535,"Delta":1007267026},{"NoteNumber":72,"Velocity":84,"Duration":124535,"SoundDuration":124535,"Delta":1007267026},{"NoteNumber":53,"Velocity":68,"Duration":124535,"SoundDuration":124535,"Delta":1007267026},{"NoteNumber":48,"Velocity":57,"Duration":124535,"SoundDuration":124535,"Delta":1007267026},{"NoteNumber":45,"Velocity":57,"Duration":124535,"SoundDuration":124535,"Delta":1007267026},{"NoteNumber":41,"Velocity":57,"Duration":124535,"SoundDuration":124535,"Delta":1007267026},{"NoteNumber":86,"Velocity":102,"Duration":127156,"SoundDuration":127156,"Delta":1007516690},{"NoteNumber":82,"Velocity":85,"Duration":127156,"SoundDuration":127156,"Delta":1007516690},{"NoteNumber":77,"Velocity":85,"Duration":127156,"SoundDuration":127156,"Delta":1007516690},{"NoteNumber":74,"Velocity":85,"Duration":127156,"SoundDuration":127156,"Delta":1007516690},{"NoteNumber":58,"Velocity":69,"Duration":127156,"SoundDuration":127156,"Delta":1007516690},{"NoteNumber":53,"Velocity":58,"Duration":127156,"SoundDuration":127156,"Delta":1007516690},{"NoteNumber":50,"Velocity":58,"Duration":127156,"SoundDuration":127156,"Delta":1007516690},{"NoteNumber":46,"Velocity":58,"Duration":127156,"SoundDuration":127156,"Delta":1007516690},{"NoteNumber":89,"Velocity":104,"Duration":135368,"SoundDuration":135368,"Delta":1007774983},{"NoteNumber":84,"Velocity":88,"Duration":135368,"SoundDuration":135368,"Delta":1007774983},{"NoteNumber":81,"Velocity":88,"Duration":135368,"SoundDuration":135368,"Delta":1007774983},{"NoteNumber":77,"Velocity":88,"Duration":135368,"SoundDuration":135368,"Delta":1007774983},{"NoteNumber":53,"Velocity":72,"Duration":135368,"SoundDuration":135368,"Delta":1007774983},{"NoteNumber":48,"Velocity":61,"Duration":135368,"SoundDuration":135368,"Delta":1007774983},{"NoteNumber":45,"Velocity":61,"Duration":135368,"SoundDuration":135368,"Delta":1007774983},{"NoteNumber":41,"Velocity":61,"Duration":135368,"SoundDuration":135368,"Delta":1007774983},{"NoteNumber":86,"Velocity":108,"Duration":279095,"SoundDuration":279095,"Delta":1008050211},{"NoteNumber":82,"Velocity":91,"Duration":279095,"SoundDuration":279095,"Delta":1008050211},{"NoteNumber":77,"Velocity":91,"Duration":279095,"SoundDuration":279095,"Delta":1008050211},{"NoteNumber":74,"Velocity":91,"Duration":279095,"SoundDuration":279095,"Delta":1008050211},{"NoteNumber":46,"Velocity":75,"Duration":279095,"SoundDuration":279095,"Delta":1008050211},{"NoteNumber":41,"Velocity":63,"Duration":279095,"SoundDuration":279095,"Delta":1008050211},{"NoteNumber":38,"Velocity":63,"Duration":279095,"SoundDuration":279095,"Delta":1008050211},{"NoteNumber":34,"Velocity":63,"Duration":279095,"SoundDuration":279095,"Delta":1008050211},{"NoteNumber":94,"Velocity":115,"Duration":291290,"SoundDuration":291290,"Delta":1008608402},{"NoteNumber":89,"Velocity":97,"Duration":291290,"SoundDuration":291290,"Delta":1008608402},{"NoteNumber":86,"Velocity":97,"Duration":291290,"SoundDuration":291290,"Delta":1008608402},{"NoteNumber":82,"Velocity":97,"Duration":291290,"SoundDuration":291290,"Delta":1008608402},{"NoteNumber":62,"Velocity":80,"Duration":291290,"SoundDuration":291290,"Delta":1008608402},{"NoteNumber":58,"Velocity":67,"Duration":291290,"SoundDuration":291290,"Delta":1008608402},{"NoteNumber":53,"Velocity":67,"Duration":291290,"SoundDuration":291290,"Delta":1008608402},{"NoteNumber":46,"Velocity":67,"Duration":291290,"SoundDuration":291290,"Delta":1008608402},{"NoteNumber":58,"Velocity":114,"Duration":291290,"SoundDuration":291290,"Delta":1009190983},{"NoteNumber":50,"Velocity":96,"Duration":291290,"SoundDuration":291290,"Delta":1009190983},{"NoteNumber":53,"Velocity":96,"Duration":291290,"SoundDuration":291290,"Delta":1009190983},{"NoteNumber":34,"Velocity":66,"Duration":291290,"SoundDuration":291290,"Delta":1009190983},{"NoteNumber":46,"Velocity":87,"Duration":291290,"SoundDuration":291290,"Delta":1009190983},{"NoteNumber":41,"Velocity":71,"Duration":291290,"SoundDuration":291290,"Delta":1009190983}]}