{"title":"Rhapsodie Nr. 4 in Es-Dur, Op. 119","artist":"Piano","durationMs":293873,"midiSha256":"eb0e0034f64dbf88f904f960ee0e7b15ced8944faecd98247dfa9d3fba6465d1","midiObject":[{"NoteNumber":67,"Velocity":79,"Duration":542986,"SoundDuration":542986,"Delta":0},{"NoteNumber":70,"Velocity":79,"Duration":542986,"SoundDuration":542986,"Delta":0},{"NoteNumber":75,"Velocity":79,"Duration":542986,"SoundDuration":542986,"Delta":0},{"NoteNumber":79,"Velocity":88,"Duration":542986,"SoundDuration":542986,"Delta":0},{"NoteNumber":39,"Velocity":62,"Duration":542986,"SoundDuration":542986,"Delta":0},{"NoteNumber":46,"Velocity":62,"Duration":542986,"SoundDuration":542986,"Delta":0},{"NoteNumber":51,"Velocity":70,"Duration":542986,"SoundDuration":542986,"Delta":0},{"NoteNumber":65,"Velocity":62,"Duration":146341,"SoundDuration":146341,"Delta":542986},{"NoteNumber":70,"Velocity":62,"Duration":146341,"SoundDuration":146341,"Delta":542986},{"NoteNumber":74,"Velocity":62,"Duration":146341,"SoundDuration":146341,"Delta":542986},{"NoteNumber":77,"Velocity":70,"Duration":146341,"SoundDuration":146341,"Delta":542986},{"NoteNumber":34,"Velocity":50,"Duration":146341,"SoundDuration":146341,"Delta":542986},{"NoteNumber":46,"Velocity":57,"Duration":146341,"SoundDuration":146341,"Delta":542986},{"NoteNumber":75,"Velocity":62,"Duration":146341,"SoundDuration":146341,"Delta":835669},{"NoteNumber":67,"Velocity":62,"Duration":146341,"SoundDuration":146341,"Delta":835669},{"NoteNumber":70,"Velocity":62,"Duration":146341,"SoundDuration":146341,"Delta":835669},{"NoteNumber":79,"Velocity":70,"Duration":146341,"SoundDuration":146341,"Delta":835669},{"NoteNumber":39,"Velocity":50,"Duration":146341,"SoundDuration":146341,"Delta":835669},{"NoteNumber":51,"Velocity":57,"Duration":146341,"SoundDuration":146341,"Delta":835669},{"NoteNumber":68,"Velocity":79,"Duration":533333,"SoundDuration":533333,"Delta":1128352},{"NoteNumber":72,"Velocity":79,"Duration":533333,"SoundDuration":533333,"Delta":1128352},{"NoteNumber":80,"Velocity":88,"Duration":533333,"SoundDuration":533333,"Delta":1128352},{"NoteNumber":75,"Velocity":79,"Duration":533333,"SoundDuration":533333,"Delta":1128352},{"NoteNumber":32,"Velocity":62,"Duration":533333,"SoundDuration":533333,"Delta":1128352},{"NoteNumber":44,"Velocity":70,"Duration":533333,"SoundDuration":533333,"Delta":1128352},{"NoteNumber":75,"Velocity":62,"Duration":144230,"SoundDuration":144230,"Delta":1661685},{"NoteNumber":70,"Velocity":62,"Duration":144230,"SoundDuration":144230,"Delta":1661685},{"NoteNumber":67,"Velocity":62,"Duration":144230,"SoundDuration":144230,"Delta":1661685},{"NoteNumber":79,"Velocity":70,"Duration":144230,"SoundDuration":144230,"Delta":1661685},{"NoteNumber":39,"Velocity":49,"Duration":144230,"SoundDuration":144230,"Delta":1661685},{"NoteNumber":51,"Velocity":55,"Duration":144230,"SoundDuration":144230,"Delta":1661685},{"NoteNumber":65,"Velocity":63,"Duration":144230,"SoundDuration":144230,"Delta":1950146},{"NoteNumber":72,"Velocity":63,"Duration":144230,"SoundDuration":144230,"Delta":1950146},{"NoteNumber":77,"Velocity":71,"Duration":144230,"SoundDuration":144230,"Delta":1950146},{"NoteNumber":75,"Velocity":63,"Duration":144230,"SoundDuration":144230,"Delta":1950146},{"NoteNumber":32,"Velocity":49,"Duration":144230,"SoundDuration":144230,"Delta":1950146},{"NoteNumber":44,"Velocity":55,"Duration":144230,"SoundDuration":144230,"Delta":1950146},{"NoteNumber":70,"Velocity":75,"Duration":538116,"SoundDuration":538116,"Delta":2238608},{"NoteNumber":67,"Velocity":75,"Duration":538116,"SoundDuration":538116,"Delta":2238608},{"NoteNumber":75,"Velocity":75,"Duration":538116,"SoundDuration":538116,"Delta":2238608},{"NoteNumber":79,"Velocity":84,"Duration":538116,"SoundDuration":538116,"Delta":2238608},{"NoteNumber":39,"Velocity":62,"Duration":538116,"SoundDuration":538116,"Delta":2238608},{"NoteNumber":46,"Velocity":62,"Duration":538116,"SoundDuration":538116,"Delta":2238608},{"NoteNumber":51,"Velocity":70,"Duration":538116,"SoundDuration":538116,"Delta":2238608},{"NoteNumber":65,"Velocity":60,"Duration":142857,"SoundDuration":142857,"Delta":2776725},{"NoteNumber":77,"Velocity":68,"Duration":142857,"SoundDuration":142857,"Delta":2776725},{"NoteNumber":68,"Velocity":60,"Duration":142857,"SoundDuration":142857,"Delta":2776725},{"NoteNumber":74,"Velocity":60,"Duration":142857,"SoundDuration":142857,"Delta":2776725},{"NoteNumber":34,"Velocity":48,"Duration":142857,"SoundDuration":142857,"Delta":2776725},{"NoteNumber":46,"Velocity":53,"Duration":142857,"SoundDuration":142857,"Delta":2776725},{"NoteNumber":67,"Velocity":57,"Duration":142857,"SoundDuration":142857,"Delta":3062439},{"NoteNumber":63,"Velocity":57,"Duration":142857,"SoundDuration":142857,"Delta":3062439},{"NoteNumber":70,"Velocity":57,"Duration":142857,"SoundDuration":142857,"Delta":3062439},{"NoteNumber":75,"Velocity":63,"Duration":142857,"SoundDuration":142857,"Delta":3062439},{"NoteNumber":27,"Velocity":48,"Duration":142857,"SoundDuration":142857,"Delta":3062439},{"NoteNumber":39,"Velocity":53,"Duration":142857,"SoundDuration":142857,"Delta":3062439},{"NoteNumber":65,"Velocity":60,"Duration":136363,"SoundDuration":136363,"Delta":3348154},{"NoteNumber":74,"Velocity":60,"Duration":136363,"SoundDuration":136363,"Delta":3348154},{"NoteNumber":77,"Velocity":68,"Duration":136363,"SoundDuration":136363,"Delta":3348154},{"NoteNumber":34,"Velocity":48,"Duration":136363,"SoundDuration":136363,"Delta":3348154},{"NoteNumber":46,"Velocity":53,"Duration":136363,"SoundDuration":136363,"Delta":3348154},{"NoteNumber":70,"Velocity":63,"Duration":144927,"SoundDuration":144927,"Delta":3620881},{"NoteNumber":58,"Velocity":53,"Duration":144927,"SoundDuration":144927,"Delta":3620881},{"NoteNumber":46,"Velocity":48,"Duration":144927,"SoundDuration":144927,"Delta":3620881},{"NoteNumber":63,"Velocity":70,"Duration":558139,"SoundDuration":558139,"Delta":3910736},{"NoteNumber":72,"Velocity":70,"Duration":558139,"SoundDuration":558139,"Delta":3910736},{"NoteNumber":75,"Velocity":79,"Duration":558139,"SoundDuration":558139,"Delta":3910736},{"NoteNumber":39,"Velocity":61,"Duration":558139,"SoundDuration":558139,"Delta":3910736},{"NoteNumber":51,"Velocity":61,"Duration":558139,"SoundDuration":558139,"Delta":3910736},{"NoteNumber":63,"Velocity":67,"Duration":542986,"SoundDuration":542986,"Delta":4468876},{"NoteNumber":75,"Velocity":74,"Duration":542986,"SoundDuration":542986,"Delta":4468876},{"NoteNumber":70,"Velocity":67,"Duration":542986,"SoundDuration":542986,"Delta":4468876},{"NoteNumber":74,"Velocity":74,"Duration":542986,"SoundDuration":542986,"Delta":4468876},{"NoteNumber":62,"Velocity":62,"Duration":542986,"SoundDuration":542986,"Delta":4468876},{"NoteNumber":58,"Velocity":56,"Duration":542986,"SoundDuration":542986,"Delta":4468876},{"NoteNumber":51,"Velocity":56,"Duration":542986,"SoundDuration":542986,"Delta":4468876},{"NoteNumber":68,"Velocity":67,"Duration":475112,"SoundDuration":475112,"Delta":5011862},{"NoteNumber":63,"Velocity":67,"Duration":475112,"SoundDuration":475112,"Delta":5011862},{"NoteNumber":72,"Velocity":67,"Duration":475112,"SoundDuration":475112,"Delta":5011862},{"NoteNumber":75,"Velocity":74,"Duration":475112,"SoundDuration":475112,"Delta":5011862},{"NoteNumber":51,"Velocity":61,"Duration":475112,"SoundDuration":475112,"Delta":5011862},{"NoteNumber":56,"Velocity":55,"Duration":475112,"SoundDuration":475112,"Delta":5011862},{"NoteNumber":60,"Velocity":61,"Duration":475112,"SoundDuration":475112,"Delta":5011862},{"NoteNumber":63,"Velocity":67,"Duration":535714,"SoundDuration":535714,"Delta":5554848},{"NoteNumber":75,"Velocity":74,"Duration":535714,"SoundDuration":535714,"Delta":5554848},{"NoteNumber":67,"Velocity":67,"Duration":535714,"SoundDuration":535714,"Delta":5554848},{"NoteNumber":70,"Velocity":67,"Duration":535714,"SoundDuration":535714,"Delta":5554848},{"NoteNumber":39,"Velocity":53,"Duration":535714,"SoundDuration":535714,"Delta":5554848},{"NoteNumber":46,"Velocity":53,"Duration":535714,"SoundDuration":535714,"Delta":5554848},{"NoteNumber":51,"Velocity":60,"Duration":535714,"SoundDuration":535714,"Delta":5554848},{"NoteNumber":62,"Velocity":62,"Duration":141509,"SoundDuration":141509,"Delta":6090562},{"NoteNumber":65,"Velocity":62,"Duration":141509,"SoundDuration":141509,"Delta":6090562},{"NoteNumber":70,"Velocity":62,"Duration":141509,"SoundDuration":141509,"Delta":6090562},{"NoteNumber":74,"Velocity":70,"Duration":141509,"SoundDuration":141509,"Delta":6090562},{"NoteNumber":34,"Velocity":49,"Duration":141509,"SoundDuration":141509,"Delta":6090562},{"NoteNumber":46,"Velocity":56,"Duration":141509,"SoundDuration":141509,"Delta":6090562},{"NoteNumber":75,"Velocity":70,"Duration":141509,"SoundDuration":141509,"Delta":6373581},{"NoteNumber":70,"Velocity":62,"Duration":141509,"SoundDuration":141509,"Delta":6373581},{"NoteNumber":63,"Velocity":62,"Duration":141509,"SoundDuration":141509,"Delta":6373581},{"NoteNumber":67,"Velocity":62,"Duration":141509,"SoundDuration":141509,"Delta":6373581},{"NoteNumber":39,"Velocity":49,"Duration":141509,"SoundDuration":141509,"Delta":6373581},{"NoteNumber":51,"Velocity":56,"Duration":141509,"SoundDuration":141509,"Delta":6373581},{"NoteNumber":72,"Velocity":72,"Duration":530973,"SoundDuration":530973,"Delta":6656600},{"NoteNumber":75,"Velocity":72,"Duration":530973,"SoundDuration":530973,"Delta":6656600},{"NoteNumber":79,"Velocity":81,"Duration":530973,"SoundDuration":530973,"Delta":6656600},{"NoteNumber":67,"Velocity":72,"Duration":530973,"SoundDuration":530973,"Delta":6656600},{"NoteNumber":36,"Velocity":59,"Duration":530973,"SoundDuration":530973,"Delta":6656600},{"NoteNumber":48,"Velocity":67,"Duration":530973,"SoundDuration":530973,"Delta":6656600},{"NoteNumber":77,"Velocity":69,"Duration":138248,"SoundDuration":138248,"Delta":7187573},{"NoteNumber":65,"Velocity":61,"Duration":138248,"SoundDuration":138248,"Delta":7187573},{"NoteNumber":68,"Velocity":61,"Duration":138248,"SoundDuration":138248,"Delta":7187573},{"NoteNumber":72,"Velocity":61,"Duration":138248,"SoundDuration":138248,"Delta":7187573},{"NoteNumber":41,"Velocity":48,"Duration":138248,"SoundDuration":138248,"Delta":7187573},{"NoteNumber":53,"Velocity":53,"Duration":138248,"SoundDuration":138248,"Delta":7187573},{"NoteNumber":63,"Velocity":61,"Duration":141509,"SoundDuration":141509,"Delta":7464071},{"NoteNumber":67,"Velocity":61,"Duration":141509,"SoundDuration":141509,"Delta":7464071},{"NoteNumber":72,"Velocity":61,"Duration":141509,"SoundDuration":141509,"Delta":7464071},{"NoteNumber":75,"Velocity":69,"Duration":141509,"SoundDuration":141509,"Delta":7464071},{"NoteNumber":36,"Velocity":48,"Duration":141509,"SoundDuration":141509,"Delta":7464071},{"NoteNumber":48,"Velocity":53,"Duration":141509,"SoundDuration":141509,"Delta":7464071},{"NoteNumber":70,"Velocity":69,"Duration":530973,"SoundDuration":530973,"Delta":7747090},{"NoteNumber":74,"Velocity":78,"Duration":530973,"SoundDuration":530973,"Delta":7747090},{"NoteNumber":62,"Velocity":69,"Duration":530973,"SoundDuration":530973,"Delta":7747090},{"NoteNumber":67,"Velocity":69,"Duration":530973,"SoundDuration":530973,"Delta":7747090},{"NoteNumber":43,"Velocity":52,"Duration":530973,"SoundDuration":530973,"Delta":7747090},{"NoteNumber":46,"Velocity":52,"Duration":530973,"SoundDuration":530973,"Delta":7747090},{"NoteNumber":50,"Velocity":52,"Duration":530973,"SoundDuration":530973,"Delta":7747090},{"NoteNumber":55,"Velocity":59,"Duration":530973,"SoundDuration":530973,"Delta":7747090},{"NoteNumber":60,"Velocity":64,"Duration":134529,"SoundDuration":134529,"Delta":8278063},{"NoteNumber":63,"Velocity":64,"Duration":134529,"SoundDuration":134529,"Delta":8278063},{"NoteNumber":67,"Velocity":64,"Duration":134529,"SoundDuration":134529,"Delta":8278063},{"NoteNumber":72,"Velocity":72,"Duration":134529,"SoundDuration":134529,"Delta":8278063},{"NoteNumber":36,"Velocity":50,"Duration":134529,"SoundDuration":134529,"Delta":8278063},{"NoteNumber":48,"Velocity":57,"Duration":134529,"SoundDuration":134529,"Delta":8278063},{"NoteNumber":70,"Velocity":70,"Duration":134529,"SoundDuration":134529,"Delta":8547121},{"NoteNumber":58,"Velocity":62,"Duration":134529,"SoundDuration":134529,"Delta":8547121},{"NoteNumber":62,"Velocity":62,"Duration":134529,"SoundDuration":134529,"Delta":8547121},{"NoteNumber":67,"Velocity":62,"Duration":134529,"SoundDuration":134529,"Delta":8547121},{"NoteNumber":31,"Velocity":49,"Duration":134529,"SoundDuration":134529,"Delta":8547121},{"NoteNumber":43,"Velocity":56,"Duration":134529,"SoundDuration":134529,"Delta":8547121},{"NoteNumber":57,"Velocity":61,"Duration":134529,"SoundDuration":134529,"Delta":8816180},{"NoteNumber":66,"Velocity":61,"Duration":134529,"SoundDuration":134529,"Delta":8816180},{"NoteNumber":69,"Velocity":69,"Duration":134529,"SoundDuration":134529,"Delta":8816180},{"NoteNumber":26,"Velocity":49,"Duration":134529,"SoundDuration":134529,"Delta":8816180},{"NoteNumber":38,"Velocity":55,"Duration":134529,"SoundDuration":134529,"Delta":8816180},{"NoteNumber":62,"Velocity":66,"Duration":142179,"SoundDuration":142179,"Delta":9085238},{"NoteNumber":50,"Velocity":52,"Duration":142179,"SoundDuration":142179,"Delta":9085238},{"NoteNumber":38,"Velocity":47,"Duration":142179,"SoundDuration":142179,"Delta":9085238},{"NoteNumber":55,"Velocity":68,"Duration":555555,"SoundDuration":555555,"Delta":9369598},{"NoteNumber":67,"Velocity":75,"Duration":555555,"SoundDuration":555555,"Delta":9369598},{"NoteNumber":31,"Velocity":55,"Duration":555555,"SoundDuration":555555,"Delta":9369598},{"NoteNumber":43,"Velocity":61,"Duration":555555,"SoundDuration":555555,"Delta":9369598},{"NoteNumber":55,"Velocity":68,"Duration":568720,"SoundDuration":568720,"Delta":9925154},{"NoteNumber":66,"Velocity":68,"Duration":568720,"SoundDuration":568720,"Delta":9925154},{"NoteNumber":67,"Velocity":75,"Duration":568720,"SoundDuration":568720,"Delta":9925154},{"NoteNumber":54,"Velocity":61,"Duration":568720,"SoundDuration":568720,"Delta":9925154},{"NoteNumber":43,"Velocity":55,"Duration":568720,"SoundDuration":568720,"Delta":9925154},{"NoteNumber":55,"Velocity":67,"Duration":497629,"SoundDuration":497629,"Delta":10493874},{"NoteNumber":65,"Velocity":67,"Duration":497629,"SoundDuration":497629,"Delta":10493874},{"NoteNumber":67,"Velocity":74,"Duration":497629,"SoundDuration":497629,"Delta":10493874},{"NoteNumber":43,"Velocity":52,"Duration":497629,"SoundDuration":497629,"Delta":10493874},{"NoteNumber":53,"Velocity":59,"Duration":497629,"SoundDuration":497629,"Delta":10493874},{"NoteNumber":67,"Velocity":79,"Duration":519705,"SoundDuration":519705,"Delta":11062594},{"NoteNumber":79,"Velocity":88,"Duration":519705,"SoundDuration":519705,"Delta":11062594},{"NoteNumber":70,"Velocity":79,"Duration":519705,"SoundDuration":519705,"Delta":11062594},{"NoteNumber":75,"Velocity":79,"Duration":519705,"SoundDuration":519705,"Delta":11062594},{"NoteNumber":39,"Velocity":70,"Duration":519705,"SoundDuration":519705,"Delta":11062594},{"NoteNumber":46,"Velocity":70,"Duration":519705,"SoundDuration":519705,"Delta":11062594},{"NoteNumber":51,"Velocity":70,"Duration":519705,"SoundDuration":519705,"Delta":11062594},{"NoteNumber":77,"Velocity":72,"Duration":144230,"SoundDuration":144230,"Delta":11582300},{"NoteNumber":74,"Velocity":64,"Duration":144230,"SoundDuration":144230,"Delta":11582300},{"NoteNumber":65,"Velocity":64,"Duration":144230,"SoundDuration":144230,"Delta":11582300},{"NoteNumber":70,"Velocity":64,"Duration":144230,"SoundDuration":144230,"Delta":11582300},{"NoteNumber":34,"Velocity":49,"Duration":144230,"SoundDuration":144230,"Delta":11582300},{"NoteNumber":46,"Velocity":56,"Duration":144230,"SoundDuration":144230,"Delta":11582300},{"NoteNumber":67,"Velocity":64,"Duration":144230,"SoundDuration":144230,"Delta":11870762},{"NoteNumber":70,"Velocity":64,"Duration":144230,"SoundDuration":144230,"Delta":11870762},{"NoteNumber":75,"Velocity":64,"Duration":144230,"SoundDuration":144230,"Delta":11870762},{"NoteNumber":79,"Velocity":72,"Duration":144230,"SoundDuration":144230,"Delta":11870762},{"NoteNumber":39,"Velocity":49,"Duration":144230,"SoundDuration":144230,"Delta":11870762},{"NoteNumber":51,"Velocity":56,"Duration":144230,"SoundDuration":144230,"Delta":11870762},{"NoteNumber":80,"Velocity":88,"Duration":519705,"SoundDuration":519705,"Delta":12159223},{"NoteNumber":68,"Velocity":79,"Duration":519705,"SoundDuration":519705,"Delta":12159223},{"NoteNumber":72,"Velocity":79,"Duration":519705,"SoundDuration":519705,"Delta":12159223},{"NoteNumber":75,"Velocity":79,"Duration":519705,"SoundDuration":519705,"Delta":12159223},{"NoteNumber":32,"Velocity":62,"Duration":519705,"SoundDuration":519705,"Delta":12159223},{"NoteNumber":44,"Velocity":70,"Duration":519705,"SoundDuration":519705,"Delta":12159223},{"NoteNumber":67,"Velocity":62,"Duration":144230,"SoundDuration":144230,"Delta":12678929},{"NoteNumber":70,"Velocity":62,"Duration":144230,"SoundDuration":144230,"Delta":12678929},{"NoteNumber":75,"Velocity":70,"Duration":144230,"SoundDuration":144230,"Delta":12678929},{"NoteNumber":79,"Velocity":70,"Duration":144230,"SoundDuration":144230,"Delta":12678929},{"NoteNumber":39,"Velocity":49,"Duration":144230,"SoundDuration":144230,"Delta":12678929},{"NoteNumber":51,"Velocity":56,"Duration":144230,"SoundDuration":144230,"Delta":12678929},{"NoteNumber":75,"Velocity":70,"Duration":144230,"SoundDuration":144230,"Delta":12967391},{"NoteNumber":72,"Velocity":62,"Duration":144230,"SoundDuration":144230,"Delta":12967391},{"NoteNumber":77,"Velocity":70,"Duration":144230,"SoundDuration":144230,"Delta":12967391},{"NoteNumber":65,"Velocity":62,"Duration":144230,"SoundDuration":144230,"Delta":12967391},{"NoteNumber":32,"Velocity":49,"Duration":144230,"SoundDuration":144230,"Delta":12967391},{"NoteNumber":44,"Velocity":56,"Duration":144230,"SoundDuration":144230,"Delta":12967391},{"NoteNumber":67,"Velocity":77,"Duration":519705,"SoundDuration":519705,"Delta":13255852},{"NoteNumber":70,"Velocity":77,"Duration":519705,"SoundDuration":519705,"Delta":13255852},{"NoteNumber":75,"Velocity":77,"Duration":519705,"SoundDuration":519705,"Delta":13255852},{"NoteNumber":79,"Velocity":85,"Duration":519705,"SoundDuration":519705,"Delta":13255852},{"NoteNumber":39,"Velocity":62,"Duration":519705,"SoundDuration":519705,"Delta":13255852},{"NoteNumber":46,"Velocity":62,"Duration":519705,"SoundDuration":519705,"Delta":13255852},{"NoteNumber":51,"Velocity":70,"Duration":519705,"SoundDuration":519705,"Delta":13255852},{"NoteNumber":77,"Velocity":72,"Duration":140186,"SoundDuration":140186,"Delta":13775558},{"NoteNumber":65,"Velocity":64,"Duration":140186,"SoundDuration":140186,"Delta":13775558},{"NoteNumber":68,"Velocity":64,"Duration":140186,"SoundDuration":140186,"Delta":13775558},{"NoteNumber":74,"Velocity":64,"Duration":140186,"SoundDuration":140186,"Delta":13775558},{"NoteNumber":34,"Velocity":49,"Duration":140186,"SoundDuration":140186,"Delta":13775558},{"NoteNumber":46,"Velocity":56,"Duration":140186,"SoundDuration":140186,"Delta":13775558},{"NoteNumber":63,"Velocity":62,"Duration":140186,"SoundDuration":140186,"Delta":14055932},{"NoteNumber":67,"Velocity":62,"Duration":140186,"SoundDuration":140186,"Delta":14055932},{"NoteNumber":70,"Velocity":62,"Duration":140186,"SoundDuration":140186,"Delta":14055932},{"NoteNumber":75,"Velocity":70,"Duration":140186,"SoundDuration":140186,"Delta":14055932},{"NoteNumber":27,"Velocity":48,"Duration":140186,"SoundDuration":140186,"Delta":14055932},{"NoteNumber":39,"Velocity":53,"Duration":140186,"SoundDuration":140186,"Delta":14055932},{"NoteNumber":77,"Velocity":68,"Duration":137614,"SoundDuration":137614,"Delta":14336306},{"NoteNumber":74,"Velocity":60,"Duration":137614,"SoundDuration":137614,"Delta":14336306},{"NoteNumber":65,"Velocity":60,"Duration":137614,"SoundDuration":137614,"Delta":14336306},{"NoteNumber":34,"Velocity":47,"Duration":137614,"SoundDuration":137614,"Delta":14336306},{"NoteNumber":46,"Velocity":52,"Duration":137614,"SoundDuration":137614,"Delta":14336306},{"NoteNumber":70,"Velocity":66,"Duration":144927,"SoundDuration":144927,"Delta":14611536},{"NoteNumber":58,"Velocity":52,"Duration":144927,"SoundDuration":144927,"Delta":14611536},{"NoteNumber":46,"Velocity":47,"Duration":144927,"SoundDuration":144927,"Delta":14611536},{"NoteNumber":63,"Velocity":74,"Duration":531926,"SoundDuration":531926,"Delta":14901390},{"NoteNumber":75,"Velocity":83,"Duration":531926,"SoundDuration":531926,"Delta":14901390},{"NoteNumber":39,"Velocity":59,"Duration":531926,"SoundDuration":531926,"Delta":14901390},{"NoteNumber":51,"Velocity":66,"Duration":531926,"SoundDuration":531926,"Delta":14901390},{"NoteNumber":73,"Velocity":78,"Duration":541162,"SoundDuration":541162,"Delta":15433317},{"NoteNumber":63,"Velocity":78,"Duration":541162,"SoundDuration":541162,"Delta":15433317},{"NoteNumber":75,"Velocity":86,"Duration":541162,"SoundDuration":541162,"Delta":15433317},{"NoteNumber":39,"Velocity":66,"Duration":541162,"SoundDuration":541162,"Delta":15433317},{"NoteNumber":37,"Velocity":66,"Duration":541162,"SoundDuration":541162,"Delta":15433317},{"NoteNumber":49,"Velocity":73,"Duration":541162,"SoundDuration":541162,"Delta":15433317},{"NoteNumber":71,"Velocity":83,"Duration":516076,"SoundDuration":516076,"Delta":15974480},{"NoteNumber":63,"Velocity":83,"Duration":516076,"SoundDuration":516076,"Delta":15974480},{"NoteNumber":75,"Velocity":93,"Duration":516076,"SoundDuration":516076,"Delta":15974480},{"NoteNumber":35,"Velocity":68,"Duration":516076,"SoundDuration":516076,"Delta":15974480},{"NoteNumber":39,"Velocity":68,"Duration":516076,"SoundDuration":516076,"Delta":15974480},{"NoteNumber":47,"Velocity":75,"Duration":516076,"SoundDuration":516076,"Delta":15974480},{"NoteNumber":87,"Velocity":101,"Duration":533048,"SoundDuration":533048,"Delta":16525205},{"NoteNumber":82,"Velocity":90,"Duration":533048,"SoundDuration":533048,"Delta":16525205},{"NoteNumber":75,"Velocity":90,"Duration":533048,"SoundDuration":533048,"Delta":16525205},{"NoteNumber":78,"Velocity":90,"Duration":533048,"SoundDuration":533048,"Delta":16525205},{"NoteNumber":34,"Velocity":72,"Duration":533048,"SoundDuration":533048,"Delta":16525205},{"NoteNumber":39,"Velocity":72,"Duration":533048,"SoundDuration":533048,"Delta":16525205},{"NoteNumber":42,"Velocity":72,"Duration":533048,"SoundDuration":533048,"Delta":16525205},{"NoteNumber":46,"Velocity":81,"Duration":533048,"SoundDuration":533048,"Delta":16525205},{"NoteNumber":78,"Velocity":83,"Duration":262054,"SoundDuration":262054,"Delta":17058254},{"NoteNumber":82,"Velocity":83,"Duration":262054,"SoundDuration":262054,"Delta":17058254},{"NoteNumber":86,"Velocity":93,"Duration":262054,"SoundDuration":262054,"Delta":17058254},{"NoteNumber":74,"Velocity":83,"Duration":262054,"SoundDuration":262054,"Delta":17058254},{"NoteNumber":42,"Velocity":67,"Duration":262054,"SoundDuration":262054,"Delta":17058254},{"NoteNumber":54,"Velocity":74,"Duration":262054,"SoundDuration":262054,"Delta":17058254},{"NoteNumber":87,"Velocity":90,"Duration":287411,"SoundDuration":287411,"Delta":17320308},{"NoteNumber":82,"Velocity":80,"Duration":287411,"SoundDuration":287411,"Delta":17320308},{"NoteNumber":78,"Velocity":80,"Duration":287411,"SoundDuration":287411,"Delta":17320308},{"NoteNumber":75,"Velocity":80,"Duration":287411,"SoundDuration":287411,"Delta":17320308},{"NoteNumber":39,"Velocity":64,"Duration":287411,"SoundDuration":287411,"Delta":17320308},{"NoteNumber":51,"Velocity":72,"Duration":287411,"SoundDuration":287411,"Delta":17320308},{"NoteNumber":78,"Velocity":85,"Duration":533048,"SoundDuration":533048,"Delta":17607720},{"NoteNumber":83,"Velocity":95,"Duration":533048,"SoundDuration":533048,"Delta":17607720},{"NoteNumber":75,"Velocity":85,"Duration":533048,"SoundDuration":533048,"Delta":17607720},{"NoteNumber":71,"Velocity":85,"Duration":533048,"SoundDuration":533048,"Delta":17607720},{"NoteNumber":47,"Velocity":69,"Duration":533048,"SoundDuration":533048,"Delta":17607720},{"NoteNumber":51,"Velocity":69,"Duration":533048,"SoundDuration":533048,"Delta":17607720},{"NoteNumber":54,"Velocity":69,"Duration":533048,"SoundDuration":533048,"Delta":17607720},{"NoteNumber":59,"Velocity":77,"Duration":533048,"SoundDuration":533048,"Delta":17607720},{"NoteNumber":82,"Velocity":86,"Duration":272355,"SoundDuration":272355,"Delta":18140769},{"NoteNumber":70,"Velocity":78,"Duration":272355,"SoundDuration":272355,"Delta":18140769},{"NoteNumber":78,"Velocity":78,"Duration":272355,"SoundDuration":272355,"Delta":18140769},{"NoteNumber":75,"Velocity":78,"Duration":272355,"SoundDuration":272355,"Delta":18140769},{"NoteNumber":39,"Velocity":62,"Duration":272355,"SoundDuration":272355,"Delta":18140769},{"NoteNumber":51,"Velocity":70,"Duration":272355,"SoundDuration":272355,"Delta":18140769},{"NoteNumber":78,"Velocity":77,"Duration":272356,"SoundDuration":272356,"Delta":18413125},{"NoteNumber":83,"Velocity":85,"Duration":272356,"SoundDuration":272356,"Delta":18413125},{"NoteNumber":75,"Velocity":77,"Duration":272356,"SoundDuration":272356,"Delta":18413125},{"NoteNumber":71,"Velocity":77,"Duration":272356,"SoundDuration":272356,"Delta":18413125},{"NoteNumber":35,"Velocity":62,"Duration":272356,"SoundDuration":272356,"Delta":18413125},{"NoteNumber":47,"Velocity":70,"Duration":272356,"SoundDuration":272356,"Delta":18413125},{"NoteNumber":80,"Velocity":92,"Duration":544712,"SoundDuration":544712,"Delta":18685481},{"NoteNumber":68,"Velocity":82,"Duration":544712,"SoundDuration":544712,"Delta":18685481},{"NoteNumber":75,"Velocity":82,"Duration":544712,"SoundDuration":544712,"Delta":18685481},{"NoteNumber":71,"Velocity":82,"Duration":544712,"SoundDuration":544712,"Delta":18685481},{"NoteNumber":56,"Velocity":73,"Duration":544712,"SoundDuration":544712,"Delta":18685481},{"NoteNumber":51,"Velocity":66,"Duration":544712,"SoundDuration":544712,"Delta":18685481},{"NoteNumber":47,"Velocity":66,"Duration":544712,"SoundDuration":544712,"Delta":18685481},{"NoteNumber":44,"Velocity":66,"Duration":544712,"SoundDuration":544712,"Delta":18685481},{"NoteNumber":79,"Velocity":83,"Duration":287411,"SoundDuration":287411,"Delta":19230193},{"NoteNumber":75,"Velocity":74,"Duration":287411,"SoundDuration":287411,"Delta":19230193},{"NoteNumber":71,"Velocity":74,"Duration":287411,"SoundDuration":287411,"Delta":19230193},{"NoteNumber":67,"Velocity":74,"Duration":287411,"SoundDuration":287411,"Delta":19230193},{"NoteNumber":35,"Velocity":59,"Duration":287411,"SoundDuration":287411,"Delta":19230193},{"NoteNumber":47,"Velocity":66,"Duration":287411,"SoundDuration":287411,"Delta":19230193},{"NoteNumber":68,"Velocity":74,"Duration":321474,"SoundDuration":321474,"Delta":19517604},{"NoteNumber":71,"Velocity":74,"Duration":321474,"SoundDuration":321474,"Delta":19517604},{"NoteNumber":80,"Velocity":83,"Duration":321474,"SoundDuration":321474,"Delta":19517604},{"NoteNumber":75,"Velocity":74,"Duration":321474,"SoundDuration":321474,"Delta":19517604},{"NoteNumber":32,"Velocity":59,"Duration":321474,"SoundDuration":321474,"Delta":19517604},{"NoteNumber":44,"Velocity":66,"Duration":321474,"SoundDuration":321474,"Delta":19517604},{"NoteNumber":66,"Velocity":79,"Duration":642948,"SoundDuration":642948,"Delta":19839079},{"NoteNumber":69,"Velocity":79,"Duration":642948,"SoundDuration":642948,"Delta":19839079},{"NoteNumber":72,"Velocity":79,"Duration":642948,"SoundDuration":642948,"Delta":19839079},{"NoteNumber":78,"Velocity":88,"Duration":642948,"SoundDuration":642948,"Delta":19839079},{"NoteNumber":39,"Velocity":62,"Duration":642948,"SoundDuration":642948,"Delta":19839079},{"NoteNumber":45,"Velocity":62,"Duration":642948,"SoundDuration":642948,"Delta":19839079},{"NoteNumber":48,"Velocity":62,"Duration":642948,"SoundDuration":642948,"Delta":19839079},{"NoteNumber":51,"Velocity":70,"Duration":642948,"SoundDuration":642948,"Delta":19839079},{"NoteNumber":77,"Velocity":73,"Duration":128205,"SoundDuration":128205,"Delta":20482028},{"NoteNumber":22,"Velocity":49,"Duration":512820,"SoundDuration":512820,"Delta":20482028},{"NoteNumber":34,"Velocity":56,"Duration":512820,"SoundDuration":512820,"Delta":20482028},{"NoteNumber":74,"Velocity":61,"Duration":128205,"SoundDuration":128205,"Delta":20610233},{"NoteNumber":70,"Velocity":63,"Duration":128205,"SoundDuration":128205,"Delta":20738438},{"NoteNumber":69,"Velocity":60,"Duration":128205,"SoundDuration":128205,"Delta":20866644},{"NoteNumber":74,"Velocity":71,"Duration":128205,"SoundDuration":128205,"Delta":20994849},{"NoteNumber":22,"Velocity":49,"Duration":512821,"SoundDuration":512821,"Delta":20994849},{"NoteNumber":34,"Velocity":56,"Duration":512821,"SoundDuration":512821,"Delta":20994849},{"NoteNumber":70,"Velocity":61,"Duration":128205,"SoundDuration":128205,"Delta":21123054},{"NoteNumber":65,"Velocity":63,"Duration":128205,"SoundDuration":128205,"Delta":21251259},{"NoteNumber":64,"Velocity":61,"Duration":128205,"SoundDuration":128205,"Delta":21379465},{"NoteNumber":70,"Velocity":70,"Duration":128205,"SoundDuration":128205,"Delta":21507670},{"NoteNumber":22,"Velocity":51,"Duration":512820,"SoundDuration":512820,"Delta":21507670},{"NoteNumber":34,"Velocity":51,"Duration":512820,"SoundDuration":512820,"Delta":21507670},{"NoteNumber":65,"Velocity":61,"Duration":128205,"SoundDuration":128205,"Delta":21635875},{"NoteNumber":62,"Velocity":63,"Duration":128205,"SoundDuration":128205,"Delta":21764080},{"NoteNumber":60,"Velocity":61,"Duration":128205,"SoundDuration":128205,"Delta":21892286},{"NoteNumber":46,"Velocity":59,"Duration":517240,"SoundDuration":517240,"Delta":22020491},{"NoteNumber":58,"Velocity":66,"Duration":517240,"SoundDuration":517240,"Delta":22020491},{"NoteNumber":45,"Velocity":42,"Duration":547095,"SoundDuration":547095,"Delta":22537732},{"NoteNumber":46,"Velocity":42,"Duration":547095,"SoundDuration":547095,"Delta":22537732},{"NoteNumber":58,"Velocity":48,"Duration":547095,"SoundDuration":547095,"Delta":22537732},{"NoteNumber":43,"Velocity":42,"Duration":547095,"SoundDuration":547095,"Delta":23084828},{"NoteNumber":46,"Velocity":42,"Duration":547095,"SoundDuration":547095,"Delta":23084828},{"NoteNumber":58,"Velocity":48,"Duration":547095,"SoundDuration":547095,"Delta":23084828},{"NoteNumber":41,"Velocity":42,"Duration":547095,"SoundDuration":547095,"Delta":23631924},{"NoteNumber":46,"Velocity":42,"Duration":547095,"SoundDuration":547095,"Delta":23631924},{"NoteNumber":57,"Velocity":48,"Duration":547095,"SoundDuration":547095,"Delta":23631924},{"NoteNumber":58,"Velocity":48,"Duration":547095,"SoundDuration":547095,"Delta":23631924},{"NoteNumber":39,"Velocity":46,"Duration":573632,"SoundDuration":573632,"Delta":24179020},{"NoteNumber":46,"Velocity":46,"Duration":573632,"SoundDuration":573632,"Delta":24179020},{"NoteNumber":55,"Velocity":51,"Duration":573632,"SoundDuration":573632,"Delta":24179020},{"NoteNumber":58,"Velocity":51,"Duration":573632,"SoundDuration":573632,"Delta":24179020},{"NoteNumber":36,"Velocity":40,"Duration":626630,"SoundDuration":626630,"Delta":24752653},{"NoteNumber":46,"Velocity":40,"Duration":626630,"SoundDuration":626630,"Delta":24752653},{"NoteNumber":51,"Velocity":40,"Duration":626630,"SoundDuration":626630,"Delta":24752653},{"NoteNumber":57,"Velocity":46,"Duration":626630,"SoundDuration":626630,"Delta":24752653},{"NoteNumber":60,"Velocity":46,"Duration":626630,"SoundDuration":626630,"Delta":24752653},{"NoteNumber":34,"Velocity":40,"Duration":1032526,"SoundDuration":1032526,"Delta":25379283},{"NoteNumber":46,"Velocity":46,"Duration":2058168,"SoundDuration":2058168,"Delta":25379283},{"NoteNumber":53,"Velocity":46,"Duration":2058168,"SoundDuration":2058168,"Delta":25379283},{"NoteNumber":58,"Velocity":46,"Duration":2058168,"SoundDuration":2058168,"Delta":25379283},{"NoteNumber":62,"Velocity":46,"Duration":2058168,"SoundDuration":2058168,"Delta":25379283},{"NoteNumber":89,"Velocity":64,"Duration":128205,"SoundDuration":128205,"Delta":25898989},{"NoteNumber":22,"Velocity":39,"Duration":512820,"SoundDuration":512820,"Delta":25898989},{"NoteNumber":34,"Velocity":44,"Duration":1025642,"SoundDuration":1025642,"Delta":25898989},{"NoteNumber":86,"Velocity":59,"Duration":128205,"SoundDuration":128205,"Delta":26027194},{"NoteNumber":82,"Velocity":61,"Duration":128205,"SoundDuration":128205,"Delta":26155400},{"NoteNumber":81,"Velocity":60,"Duration":128205,"SoundDuration":128205,"Delta":26283605},{"NoteNumber":86,"Velocity":64,"Duration":128205,"SoundDuration":128205,"Delta":26411810},{"NoteNumber":34,"Velocity":44,"Duration":1025642,"SoundDuration":1025642,"Delta":26411810},{"NoteNumber":22,"Velocity":39,"Duration":512821,"SoundDuration":512821,"Delta":26411810},{"NoteNumber":82,"Velocity":58,"Duration":128205,"SoundDuration":128205,"Delta":26540015},{"NoteNumber":77,"Velocity":58,"Duration":128205,"SoundDuration":128205,"Delta":26668221},{"NoteNumber":76,"Velocity":58,"Duration":128205,"SoundDuration":128205,"Delta":26796426},{"NoteNumber":82,"Velocity":60,"Duration":128205,"SoundDuration":128205,"Delta":26924631},{"NoteNumber":22,"Velocity":39,"Duration":512820,"SoundDuration":512820,"Delta":26924631},{"NoteNumber":34,"Velocity":44,"Duration":512820,"SoundDuration":512820,"Delta":26924631},{"NoteNumber":77,"Velocity":56,"Duration":128205,"SoundDuration":128205,"Delta":27052836},{"NoteNumber":74,"Velocity":56,"Duration":128205,"SoundDuration":128205,"Delta":27181042},{"NoteNumber":72,"Velocity":56,"Duration":128205,"SoundDuration":128205,"Delta":27309247},{"NoteNumber":70,"Velocity":66,"Duration":519480,"SoundDuration":519480,"Delta":27437452},{"NoteNumber":58,"Velocity":51,"Duration":519480,"SoundDuration":519480,"Delta":27437452},{"NoteNumber":70,"Velocity":68,"Duration":528541,"SoundDuration":528541,"Delta":27956933},{"NoteNumber":67,"Velocity":60,"Duration":528541,"SoundDuration":528541,"Delta":27956933},{"NoteNumber":55,"Velocity":47,"Duration":528541,"SoundDuration":528541,"Delta":27956933},{"NoteNumber":58,"Velocity":52,"Duration":528541,"SoundDuration":528541,"Delta":27956933},{"NoteNumber":63,"Velocity":63,"Duration":539957,"SoundDuration":539957,"Delta":28485474},{"NoteNumber":67,"Velocity":71,"Duration":539957,"SoundDuration":539957,"Delta":28485474},{"NoteNumber":70,"Velocity":71,"Duration":539957,"SoundDuration":539957,"Delta":28485474},{"NoteNumber":51,"Velocity":49,"Duration":539957,"SoundDuration":539957,"Delta":28485474},{"NoteNumber":55,"Velocity":56,"Duration":539957,"SoundDuration":539957,"Delta":28485474},{"NoteNumber":72,"Velocity":74,"Duration":539956,"SoundDuration":539956,"Delta":29025431},{"NoteNumber":60,"Velocity":67,"Duration":539956,"SoundDuration":539956,"Delta":29025431},{"NoteNumber":63,"Velocity":67,"Duration":539956,"SoundDuration":539956,"Delta":29025431},{"NoteNumber":67,"Velocity":74,"Duration":539956,"SoundDuration":539956,"Delta":29025431},{"NoteNumber":48,"Velocity":52,"Duration":539956,"SoundDuration":539956,"Delta":29025431},{"NoteNumber":51,"Velocity":52,"Duration":539956,"SoundDuration":539956,"Delta":29025431},{"NoteNumber":55,"Velocity":59,"Duration":539956,"SoundDuration":539956,"Delta":29025431},{"NoteNumber":60,"Velocity":68,"Duration":539957,"SoundDuration":539957,"Delta":29565388},{"NoteNumber":63,"Velocity":68,"Duration":539957,"SoundDuration":539957,"Delta":29565388},{"NoteNumber":68,"Velocity":75,"Duration":539957,"SoundDuration":539957,"Delta":29565388},{"NoteNumber":72,"Velocity":75,"Duration":539957,"SoundDuration":539957,"Delta":29565388},{"NoteNumber":44,"Velocity":52,"Duration":539957,"SoundDuration":539957,"Delta":29565388},{"NoteNumber":48,"Velocity":52,"Duration":539957,"SoundDuration":539957,"Delta":29565388},{"NoteNumber":51,"Velocity":59,"Duration":539957,"SoundDuration":539957,"Delta":29565388},{"NoteNumber":56,"Velocity":59,"Duration":539957,"SoundDuration":539957,"Delta":29565388},{"NoteNumber":72,"Velocity":72,"Duration":626827,"SoundDuration":626827,"Delta":30105345},{"NoteNumber":77,"Velocity":81,"Duration":626827,"SoundDuration":626827,"Delta":30105345},{"NoteNumber":65,"Velocity":72,"Duration":626827,"SoundDuration":626827,"Delta":30105345},{"NoteNumber":68,"Velocity":72,"Duration":626827,"SoundDuration":626827,"Delta":30105345},{"NoteNumber":41,"Velocity":57,"Duration":626827,"SoundDuration":626827,"Delta":30105345},{"NoteNumber":44,"Velocity":57,"Duration":626827,"SoundDuration":626827,"Delta":30105345},{"NoteNumber":48,"Velocity":57,"Duration":626827,"SoundDuration":626827,"Delta":30105345},{"NoteNumber":53,"Velocity":63,"Duration":626827,"SoundDuration":626827,"Delta":30105345},{"NoteNumber":62,"Velocity":79,"Duration":2064769,"SoundDuration":2064769,"Delta":30732173},{"NoteNumber":67,"Velocity":79,"Duration":2064769,"SoundDuration":2064769,"Delta":30732173},{"NoteNumber":71,"Velocity":88,"Duration":1936013,"SoundDuration":1936013,"Delta":30732173},{"NoteNumber":74,"Velocity":88,"Duration":1420992,"SoundDuration":1420992,"Delta":30732173},{"NoteNumber":43,"Velocity":62,"Duration":2064769,"SoundDuration":2064769,"Delta":30732173},{"NoteNumber":47,"Velocity":62,"Duration":2064769,"SoundDuration":2064769,"Delta":30732173},{"NoteNumber":50,"Velocity":62,"Duration":2064769,"SoundDuration":2064769,"Delta":30732173},{"NoteNumber":55,"Velocity":70,"Duration":2064769,"SoundDuration":2064769,"Delta":30732173},{"NoteNumber":86,"Velocity":57,"Duration":128755,"SoundDuration":128755,"Delta":31251879},{"NoteNumber":31,"Velocity":43,"Duration":515021,"SoundDuration":515021,"Delta":31251879},{"NoteNumber":83,"Velocity":53,"Duration":128755,"SoundDuration":128755,"Delta":31380634},{"NoteNumber":79,"Velocity":54,"Duration":128755,"SoundDuration":128755,"Delta":31509390},{"NoteNumber":78,"Velocity":54,"Duration":128755,"SoundDuration":128755,"Delta":31638145},{"NoteNumber":83,"Velocity":57,"Duration":128755,"SoundDuration":128755,"Delta":31766900},{"NoteNumber":31,"Velocity":43,"Duration":515020,"SoundDuration":515020,"Delta":31766900},{"NoteNumber":79,"Velocity":54,"Duration":128755,"SoundDuration":128755,"Delta":31895655},{"NoteNumber":74,"Velocity":54,"Duration":515020,"SoundDuration":515020,"Delta":32024411},{"NoteNumber":73,"Velocity":54,"Duration":128755,"SoundDuration":128755,"Delta":32153166},{"NoteNumber":79,"Velocity":57,"Duration":128755,"SoundDuration":128755,"Delta":32281921},{"NoteNumber":31,"Velocity":43,"Duration":515021,"SoundDuration":515021,"Delta":32281921},{"NoteNumber":74,"Velocity":54,"Duration":386265,"SoundDuration":386265,"Delta":32410676},{"NoteNumber":71,"Velocity":55,"Duration":257510,"SoundDuration":257510,"Delta":32539432},{"NoteNumber":69,"Velocity":54,"Duration":128755,"SoundDuration":128755,"Delta":32668187},{"NoteNumber":67,"Velocity":64,"Duration":535713,"SoundDuration":535713,"Delta":32796942},{"NoteNumber":55,"Velocity":51,"Duration":535713,"SoundDuration":535713,"Delta":32796942},{"NoteNumber":65,"Velocity":58,"Duration":535713,"SoundDuration":535713,"Delta":33332656},{"NoteNumber":67,"Velocity":64,"Duration":535713,"SoundDuration":535713,"Delta":33332656},{"NoteNumber":53,"Velocity":51,"Duration":535713,"SoundDuration":535713,"Delta":33332656},{"NoteNumber":55,"Velocity":51,"Duration":535713,"SoundDuration":535713,"Delta":33332656},{"NoteNumber":63,"Velocity":60,"Duration":535713,"SoundDuration":535713,"Delta":33868370},{"NoteNumber":67,"Velocity":68,"Duration":535713,"SoundDuration":535713,"Delta":33868370},{"NoteNumber":51,"Velocity":47,"Duration":535713,"SoundDuration":535713,"Delta":33868370},{"NoteNumber":55,"Velocity":52,"Duration":535713,"SoundDuration":535713,"Delta":33868370},{"NoteNumber":65,"Velocity":62,"Duration":535714,"SoundDuration":535714,"Delta":34404084},{"NoteNumber":62,"Velocity":62,"Duration":535714,"SoundDuration":535714,"Delta":34404084},{"NoteNumber":67,"Velocity":70,"Duration":535714,"SoundDuration":535714,"Delta":34404084},{"NoteNumber":50,"Velocity":49,"Duration":535714,"SoundDuration":535714,"Delta":34404084},{"NoteNumber":53,"Velocity":56,"Duration":535714,"SoundDuration":535714,"Delta":34404084},{"NoteNumber":55,"Velocity":56,"Duration":535714,"SoundDuration":535714,"Delta":34404084},{"NoteNumber":60,"Velocity":67,"Duration":555556,"SoundDuration":555556,"Delta":34939798},{"NoteNumber":63,"Velocity":67,"Duration":555556,"SoundDuration":555556,"Delta":34939798},{"NoteNumber":67,"Velocity":74,"Duration":555556,"SoundDuration":555556,"Delta":34939798},{"NoteNumber":48,"Velocity":52,"Duration":555556,"SoundDuration":555556,"Delta":34939798},{"NoteNumber":51,"Velocity":59,"Duration":555556,"SoundDuration":555556,"Delta":34939798},{"NoteNumber":55,"Velocity":59,"Duration":555556,"SoundDuration":555556,"Delta":34939798},{"NoteNumber":69,"Velocity":78,"Duration":596837,"SoundDuration":596837,"Delta":35495354},{"NoteNumber":63,"Velocity":69,"Duration":596837,"SoundDuration":596837,"Delta":35495354},{"NoteNumber":60,"Velocity":69,"Duration":596837,"SoundDuration":596837,"Delta":35495354},{"NoteNumber":41,"Velocity":56,"Duration":596837,"SoundDuration":596837,"Delta":35495354},{"NoteNumber":48,"Velocity":56,"Duration":596837,"SoundDuration":596837,"Delta":35495354},{"NoteNumber":53,"Velocity":62,"Duration":596837,"SoundDuration":596837,"Delta":35495354},{"NoteNumber":58,"Velocity":74,"Duration":2135300,"SoundDuration":2135300,"Delta":36092191},{"NoteNumber":62,"Velocity":74,"Duration":2135300,"SoundDuration":2135300,"Delta":36092191},{"NoteNumber":70,"Velocity":83,"Duration":2135300,"SoundDuration":2135300,"Delta":36092191},{"NoteNumber":46,"Velocity":59,"Duration":2135300,"SoundDuration":2135300,"Delta":36092191},{"NoteNumber":50,"Velocity":66,"Duration":2135300,"SoundDuration":2135300,"Delta":36092191},{"NoteNumber":53,"Velocity":66,"Duration":2135300,"SoundDuration":2135300,"Delta":36092191},{"NoteNumber":89,"Velocity":64,"Duration":128205,"SoundDuration":128205,"Delta":36689028},{"NoteNumber":22,"Velocity":39,"Duration":512821,"SoundDuration":512821,"Delta":36689028},{"NoteNumber":34,"Velocity":44,"Duration":512821,"SoundDuration":512821,"Delta":36689028},{"NoteNumber":86,"Velocity":61,"Duration":128205,"SoundDuration":128205,"Delta":36817233},{"NoteNumber":82,"Velocity":64,"Duration":128205,"SoundDuration":128205,"Delta":36945439},{"NoteNumber":81,"Velocity":62,"Duration":128205,"SoundDuration":128205,"Delta":37073644},{"NoteNumber":86,"Velocity":60,"Duration":128205,"SoundDuration":128205,"Delta":37201849},{"NoteNumber":22,"Velocity":41,"Duration":512820,"SoundDuration":512820,"Delta":37201849},{"NoteNumber":34,"Velocity":41,"Duration":512820,"SoundDuration":512820,"Delta":37201849},{"NoteNumber":82,"Velocity":55,"Duration":128205,"SoundDuration":128205,"Delta":37330054},{"NoteNumber":77,"Velocity":58,"Duration":128205,"SoundDuration":128205,"Delta":37458260},{"NoteNumber":76,"Velocity":54,"Duration":128205,"SoundDuration":128205,"Delta":37586465},{"NoteNumber":82,"Velocity":58,"Duration":128205,"SoundDuration":128205,"Delta":37714670},{"NoteNumber":22,"Velocity":38,"Duration":512821,"SoundDuration":512821,"Delta":37714670},{"NoteNumber":34,"Velocity":38,"Duration":512821,"SoundDuration":512821,"Delta":37714670},{"NoteNumber":77,"Velocity":53,"Duration":128205,"SoundDuration":128205,"Delta":37842875},{"NoteNumber":74,"Velocity":56,"Duration":128205,"SoundDuration":128205,"Delta":37971081},{"NoteNumber":72,"Velocity":53,"Duration":128205,"SoundDuration":128205,"Delta":38099286},{"NoteNumber":70,"Velocity":64,"Duration":559336,"SoundDuration":559336,"Delta":38227491},{"NoteNumber":58,"Velocity":51,"Duration":559336,"SoundDuration":559336,"Delta":38227491},{"NoteNumber":66,"Velocity":65,"Duration":537633,"SoundDuration":537633,"Delta":38786827},{"NoteNumber":70,"Velocity":65,"Duration":537633,"SoundDuration":537633,"Delta":38786827},{"NoteNumber":54,"Velocity":45,"Duration":537633,"SoundDuration":537633,"Delta":38786827},{"NoteNumber":58,"Velocity":51,"Duration":537633,"SoundDuration":537633,"Delta":38786827},{"NoteNumber":66,"Velocity":62,"Duration":549500,"SoundDuration":549500,"Delta":39324461},{"NoteNumber":63,"Velocity":62,"Duration":549500,"SoundDuration":549500,"Delta":39324461},{"NoteNumber":70,"Velocity":69,"Duration":549500,"SoundDuration":549500,"Delta":39324461},{"NoteNumber":51,"Velocity":54,"Duration":549500,"SoundDuration":549500,"Delta":39324461},{"NoteNumber":54,"Velocity":47,"Duration":549500,"SoundDuration":549500,"Delta":39324461},{"NoteNumber":58,"Velocity":54,"Duration":549500,"SoundDuration":549500,"Delta":39324461},{"NoteNumber":66,"Velocity":68,"Duration":549500,"SoundDuration":549500,"Delta":39873962},{"NoteNumber":63,"Velocity":68,"Duration":549500,"SoundDuration":549500,"Delta":39873962},{"NoteNumber":71,"Velocity":68,"Duration":549500,"SoundDuration":549500,"Delta":39873962},{"NoteNumber":75,"Velocity":77,"Duration":549500,"SoundDuration":549500,"Delta":39873962},{"NoteNumber":47,"Velocity":54,"Duration":549500,"SoundDuration":549500,"Delta":39873962},{"NoteNumber":51,"Velocity":54,"Duration":549500,"SoundDuration":549500,"Delta":39873962},{"NoteNumber":54,"Velocity":60,"Duration":549500,"SoundDuration":549500,"Delta":39873962},{"NoteNumber":59,"Velocity":60,"Duration":549500,"SoundDuration":549500,"Delta":39873962},{"NoteNumber":63,"Velocity":71,"Duration":567000,"SoundDuration":567000,"Delta":40423463},{"NoteNumber":75,"Velocity":80,"Duration":567000,"SoundDuration":567000,"Delta":40423463},{"NoteNumber":68,"Velocity":71,"Duration":567000,"SoundDuration":567000,"Delta":40423463},{"NoteNumber":71,"Velocity":71,"Duration":567000,"SoundDuration":567000,"Delta":40423463},{"NoteNumber":44,"Velocity":57,"Duration":567000,"SoundDuration":567000,"Delta":40423463},{"NoteNumber":47,"Velocity":57,"Duration":567000,"SoundDuration":567000,"Delta":40423463},{"NoteNumber":51,"Velocity":64,"Duration":567000,"SoundDuration":567000,"Delta":40423463},{"NoteNumber":56,"Velocity":64,"Duration":567000,"SoundDuration":567000,"Delta":40423463},{"NoteNumber":71,"Velocity":79,"Duration":608457,"SoundDuration":608457,"Delta":40990464},{"NoteNumber":68,"Velocity":79,"Duration":608457,"SoundDuration":608457,"Delta":40990464},{"NoteNumber":76,"Velocity":88,"Duration":608457,"SoundDuration":608457,"Delta":40990464},{"NoteNumber":80,"Velocity":88,"Duration":608457,"SoundDuration":608457,"Delta":40990464},{"NoteNumber":40,"Velocity":61,"Duration":608457,"SoundDuration":608457,"Delta":40990464},{"NoteNumber":44,"Velocity":61,"Duration":608457,"SoundDuration":608457,"Delta":40990464},{"NoteNumber":47,"Velocity":69,"Duration":608457,"SoundDuration":608457,"Delta":40990464},{"NoteNumber":52,"Velocity":69,"Duration":608457,"SoundDuration":608457,"Delta":40990464},{"NoteNumber":66,"Velocity":88,"Duration":1039411,"SoundDuration":1039411,"Delta":41598922},{"NoteNumber":78,"Velocity":97,"Duration":1039411,"SoundDuration":1039411,"Delta":41598922},{"NoteNumber":71,"Velocity":88,"Duration":1039411,"SoundDuration":1039411,"Delta":41598922},{"NoteNumber":75,"Velocity":97,"Duration":1039411,"SoundDuration":1039411,"Delta":41598922},{"NoteNumber":47,"Velocity":69,"Duration":1039411,"SoundDuration":1039411,"Delta":41598922},{"NoteNumber":51,"Velocity":69,"Duration":1039411,"SoundDuration":1039411,"Delta":41598922},{"NoteNumber":54,"Velocity":69,"Duration":1039411,"SoundDuration":1039411,"Delta":41598922},{"NoteNumber":59,"Velocity":77,"Duration":1039411,"SoundDuration":1039411,"Delta":41598922},{"NoteNumber":83,"Velocity":89,"Duration":519705,"SoundDuration":519705,"Delta":42118628},{"NoteNumber":87,"Velocity":99,"Duration":519705,"SoundDuration":519705,"Delta":42118628},{"NoteNumber":75,"Velocity":89,"Duration":519705,"SoundDuration":519705,"Delta":42118628},{"NoteNumber":27,"Velocity":70,"Duration":519705,"SoundDuration":519705,"Delta":42118628},{"NoteNumber":30,"Velocity":67,"Duration":129926,"SoundDuration":129926,"Delta":42248555},{"NoteNumber":35,"Velocity":70,"Duration":129926,"SoundDuration":129926,"Delta":42378481},{"NoteNumber":39,"Velocity":67,"Duration":129926,"SoundDuration":129926,"Delta":42508408},{"NoteNumber":82,"Velocity":89,"Duration":519705,"SoundDuration":519705,"Delta":42638334},{"NoteNumber":75,"Velocity":89,"Duration":519705,"SoundDuration":519705,"Delta":42638334},{"NoteNumber":87,"Velocity":99,"Duration":519705,"SoundDuration":519705,"Delta":42638334},{"NoteNumber":42,"Velocity":70,"Duration":519705,"SoundDuration":519705,"Delta":42638334},{"NoteNumber":47,"Velocity":67,"Duration":129926,"SoundDuration":129926,"Delta":42768261},{"NoteNumber":51,"Velocity":70,"Duration":129926,"SoundDuration":129926,"Delta":42898187},{"NoteNumber":54,"Velocity":67,"Duration":129926,"SoundDuration":129926,"Delta":43028114},{"NoteNumber":75,"Velocity":89,"Duration":519705,"SoundDuration":519705,"Delta":43158040},{"NoteNumber":87,"Velocity":99,"Duration":519705,"SoundDuration":519705,"Delta":43158040},{"NoteNumber":81,"Velocity":89,"Duration":519705,"SoundDuration":519705,"Delta":43158040},{"NoteNumber":59,"Velocity":70,"Duration":519705,"SoundDuration":519705,"Delta":43158040},{"NoteNumber":63,"Velocity":67,"Duration":129926,"SoundDuration":129926,"Delta":43287967},{"NoteNumber":66,"Velocity":70,"Duration":129926,"SoundDuration":129926,"Delta":43417893},{"NoteNumber":71,"Velocity":67,"Duration":129926,"SoundDuration":129926,"Delta":43547820},{"NoteNumber":87,"Velocity":102,"Duration":410322,"SoundDuration":410322,"Delta":43677746},{"NoteNumber":82,"Velocity":91,"Duration":410322,"SoundDuration":410322,"Delta":43677746},{"NoteNumber":79,"Velocity":91,"Duration":410322,"SoundDuration":410322,"Delta":43677746},{"NoteNumber":75,"Velocity":91,"Duration":410322,"SoundDuration":410322,"Delta":43677746},{"NoteNumber":58,"Velocity":67,"Duration":410322,"SoundDuration":410322,"Delta":43677746},{"NoteNumber":63,"Velocity":67,"Duration":410322,"SoundDuration":410322,"Delta":43677746},{"NoteNumber":67,"Velocity":67,"Duration":410322,"SoundDuration":410322,"Delta":43677746},{"NoteNumber":70,"Velocity":74,"Duration":410322,"SoundDuration":410322,"Delta":43677746},{"NoteNumber":70,"Velocity":66,"Duration":149209,"SoundDuration":149209,"Delta":44224842},{"NoteNumber":65,"Velocity":66,"Duration":149209,"SoundDuration":149209,"Delta":44224842},{"NoteNumber":74,"Velocity":66,"Duration":149209,"SoundDuration":149209,"Delta":44224842},{"NoteNumber":77,"Velocity":73,"Duration":149209,"SoundDuration":149209,"Delta":44224842},{"NoteNumber":58,"Velocity":58,"Duration":149209,"SoundDuration":149209,"Delta":44224842},{"NoteNumber":46,"Velocity":51,"Duration":149209,"SoundDuration":149209,"Delta":44224842},{"NoteNumber":67,"Velocity":66,"Duration":149209,"SoundDuration":149209,"Delta":44523261},{"NoteNumber":79,"Velocity":73,"Duration":149209,"SoundDuration":149209,"Delta":44523261},{"NoteNumber":70,"Velocity":66,"Duration":149209,"SoundDuration":149209,"Delta":44523261},{"NoteNumber":75,"Velocity":66,"Duration":149209,"SoundDuration":149209,"Delta":44523261},{"NoteNumber":39,"Velocity":51,"Duration":149209,"SoundDuration":149209,"Delta":44523261},{"NoteNumber":51,"Velocity":58,"Duration":149209,"SoundDuration":149209,"Delta":44523261},{"NoteNumber":72,"Velocity":77,"Duration":519705,"SoundDuration":519705,"Delta":44821679},{"NoteNumber":68,"Velocity":77,"Duration":519705,"SoundDuration":519705,"Delta":44821679},{"NoteNumber":75,"Velocity":77,"Duration":519705,"SoundDuration":519705,"Delta":44821679},{"NoteNumber":80,"Velocity":85,"Duration":519705,"SoundDuration":519705,"Delta":44821679},{"NoteNumber":63,"Velocity":70,"Duration":519705,"SoundDuration":519705,"Delta":44821679},{"NoteNumber":60,"Velocity":62,"Duration":519705,"SoundDuration":519705,"Delta":44821679},{"NoteNumber":56,"Velocity":62,"Duration":519705,"SoundDuration":519705,"Delta":44821679},{"NoteNumber":51,"Velocity":62,"Duration":519705,"SoundDuration":519705,"Delta":44821679},{"NoteNumber":67,"Velocity":64,"Duration":147058,"SoundDuration":147058,"Delta":45341385},{"NoteNumber":79,"Velocity":72,"Duration":147058,"SoundDuration":147058,"Delta":45341385},{"NoteNumber":70,"Velocity":64,"Duration":147058,"SoundDuration":147058,"Delta":45341385},{"NoteNumber":75,"Velocity":72,"Duration":147058,"SoundDuration":147058,"Delta":45341385},{"NoteNumber":39,"Velocity":50,"Duration":147058,"SoundDuration":147058,"Delta":45341385},{"NoteNumber":51,"Velocity":57,"Duration":147058,"SoundDuration":147058,"Delta":45341385},{"NoteNumber":65,"Velocity":64,"Duration":147058,"SoundDuration":147058,"Delta":45635503},{"NoteNumber":72,"Velocity":64,"Duration":147058,"SoundDuration":147058,"Delta":45635503},{"NoteNumber":77,"Velocity":72,"Duration":147058,"SoundDuration":147058,"Delta":45635503},{"NoteNumber":75,"Velocity":64,"Duration":147058,"SoundDuration":147058,"Delta":45635503},{"NoteNumber":32,"Velocity":50,"Duration":147058,"SoundDuration":147058,"Delta":45635503},{"NoteNumber":44,"Velocity":57,"Duration":147058,"SoundDuration":147058,"Delta":45635503},{"NoteNumber":79,"Velocity":86,"Duration":519705,"SoundDuration":519705,"Delta":45929620},{"NoteNumber":75,"Velocity":78,"Duration":519705,"SoundDuration":519705,"Delta":45929620},{"NoteNumber":67,"Velocity":78,"Duration":519705,"SoundDuration":519705,"Delta":45929620},{"NoteNumber":70,"Velocity":78,"Duration":519705,"SoundDuration":519705,"Delta":45929620},{"NoteNumber":39,"Velocity":62,"Duration":519705,"SoundDuration":519705,"Delta":45929620},{"NoteNumber":46,"Velocity":62,"Duration":519705,"SoundDuration":519705,"Delta":45929620},{"NoteNumber":51,"Velocity":70,"Duration":519705,"SoundDuration":519705,"Delta":45929620},{"NoteNumber":65,"Velocity":64,"Duration":144927,"SoundDuration":144927,"Delta":46449326},{"NoteNumber":68,"Velocity":64,"Duration":144927,"SoundDuration":144927,"Delta":46449326},{"NoteNumber":74,"Velocity":64,"Duration":144927,"SoundDuration":144927,"Delta":46449326},{"NoteNumber":77,"Velocity":72,"Duration":144927,"SoundDuration":144927,"Delta":46449326},{"NoteNumber":34,"Velocity":50,"Duration":144927,"SoundDuration":144927,"Delta":46449326},{"NoteNumber":46,"Velocity":57,"Duration":144927,"SoundDuration":144927,"Delta":46449326},{"NoteNumber":75,"Velocity":71,"Duration":144927,"SoundDuration":144927,"Delta":46739181},{"NoteNumber":63,"Velocity":63,"Duration":144927,"SoundDuration":144927,"Delta":46739181},{"NoteNumber":67,"Velocity":63,"Duration":144927,"SoundDuration":144927,"Delta":46739181},{"NoteNumber":70,"Velocity":63,"Duration":144927,"SoundDuration":144927,"Delta":46739181},{"NoteNumber":27,"Velocity":49,"Duration":144927,"SoundDuration":144927,"Delta":46739181},{"NoteNumber":39,"Velocity":56,"Duration":144927,"SoundDuration":144927,"Delta":46739181},{"NoteNumber":65,"Velocity":62,"Duration":138888,"SoundDuration":138888,"Delta":47029036},{"NoteNumber":74,"Velocity":62,"Duration":138888,"SoundDuration":138888,"Delta":47029036},{"NoteNumber":77,"Velocity":70,"Duration":138888,"SoundDuration":138888,"Delta":47029036},{"NoteNumber":34,"Velocity":49,"Duration":138888,"SoundDuration":138888,"Delta":47029036},{"NoteNumber":46,"Velocity":55,"Duration":138888,"SoundDuration":138888,"Delta":47029036},{"NoteNumber":70,"Velocity":69,"Duration":144230,"SoundDuration":144230,"Delta":47306814},{"NoteNumber":58,"Velocity":52,"Duration":144230,"SoundDuration":144230,"Delta":47306814},{"NoteNumber":46,"Velocity":47,"Duration":144230,"SoundDuration":144230,"Delta":47306814},{"NoteNumber":75,"Velocity":79,"Duration":566037,"SoundDuration":566037,"Delta":47595276},{"NoteNumber":72,"Velocity":70,"Duration":566037,"SoundDuration":566037,"Delta":47595276},{"NoteNumber":63,"Velocity":70,"Duration":566037,"SoundDuration":566037,"Delta":47595276},{"NoteNumber":39,"Velocity":57,"Duration":566037,"SoundDuration":566037,"Delta":47595276},{"NoteNumber":51,"Velocity":63,"Duration":566037,"SoundDuration":566037,"Delta":47595276},{"NoteNumber":63,"Velocity":69,"Duration":547944,"SoundDuration":547944,"Delta":48161314},{"NoteNumber":70,"Velocity":69,"Duration":547944,"SoundDuration":547944,"Delta":48161314},{"NoteNumber":74,"Velocity":78,"Duration":547944,"SoundDuration":547944,"Delta":48161314},{"NoteNumber":75,"Velocity":78,"Duration":547944,"SoundDuration":547944,"Delta":48161314},{"NoteNumber":62,"Velocity":62,"Duration":547944,"SoundDuration":547944,"Delta":48161314},{"NoteNumber":58,"Velocity":56,"Duration":547944,"SoundDuration":547944,"Delta":48161314},{"NoteNumber":51,"Velocity":56,"Duration":547944,"SoundDuration":547944,"Delta":48161314},{"NoteNumber":75,"Velocity":77,"Duration":547944,"SoundDuration":547944,"Delta":48709259},{"NoteNumber":63,"Velocity":69,"Duration":547944,"SoundDuration":547944,"Delta":48709259},{"NoteNumber":68,"Velocity":69,"Duration":547944,"SoundDuration":547944,"Delta":48709259},{"NoteNumber":72,"Velocity":69,"Duration":547944,"SoundDuration":547944,"Delta":48709259},{"NoteNumber":51,"Velocity":55,"Duration":547944,"SoundDuration":547944,"Delta":48709259},{"NoteNumber":56,"Velocity":55,"Duration":547944,"SoundDuration":547944,"Delta":48709259},{"NoteNumber":60,"Velocity":61,"Duration":547944,"SoundDuration":547944,"Delta":48709259},{"NoteNumber":63,"Velocity":67,"Duration":547945,"SoundDuration":547945,"Delta":49257204},{"NoteNumber":67,"Velocity":67,"Duration":547945,"SoundDuration":547945,"Delta":49257204},{"NoteNumber":70,"Velocity":67,"Duration":547945,"SoundDuration":547945,"Delta":49257204},{"NoteNumber":75,"Velocity":74,"Duration":547945,"SoundDuration":547945,"Delta":49257204},{"NoteNumber":39,"Velocity":53,"Duration":547945,"SoundDuration":547945,"Delta":49257204},{"NoteNumber":46,"Velocity":53,"Duration":547945,"SoundDuration":547945,"Delta":49257204},{"NoteNumber":51,"Velocity":60,"Duration":547945,"SoundDuration":547945,"Delta":49257204},{"NoteNumber":74,"Velocity":77,"Duration":139535,"SoundDuration":139535,"Delta":49805149},{"NoteNumber":65,"Velocity":69,"Duration":139535,"SoundDuration":139535,"Delta":49805149},{"NoteNumber":70,"Velocity":69,"Duration":139535,"SoundDuration":139535,"Delta":49805149},{"NoteNumber":62,"Velocity":69,"Duration":139535,"SoundDuration":139535,"Delta":49805149},{"NoteNumber":34,"Velocity":53,"Duration":139535,"SoundDuration":139535,"Delta":49805149},{"NoteNumber":46,"Velocity":60,"Duration":139535,"SoundDuration":139535,"Delta":49805149},{"NoteNumber":63,"Velocity":69,"Duration":147058,"SoundDuration":147058,"Delta":50084219},{"NoteNumber":67,"Velocity":69,"Duration":147058,"SoundDuration":147058,"Delta":50084219},{"NoteNumber":70,"Velocity":69,"Duration":147058,"SoundDuration":147058,"Delta":50084219},{"NoteNumber":75,"Velocity":77,"Duration":147058,"SoundDuration":147058,"Delta":50084219},{"NoteNumber":39,"Velocity":53,"Duration":147058,"SoundDuration":147058,"Delta":50084219},{"NoteNumber":51,"Velocity":60,"Duration":147058,"SoundDuration":147058,"Delta":50084219},{"NoteNumber":67,"Velocity":73,"Duration":533332,"SoundDuration":533332,"Delta":50378336},{"NoteNumber":72,"Velocity":73,"Duration":533332,"SoundDuration":533332,"Delta":50378336},{"NoteNumber":75,"Velocity":73,"Duration":533332,"SoundDuration":533332,"Delta":50378336},{"NoteNumber":79,"Velocity":82,"Duration":533332,"SoundDuration":533332,"Delta":50378336},{"NoteNumber":36,"Velocity":58,"Duration":533332,"SoundDuration":533332,"Delta":50378336},{"NoteNumber":48,"Velocity":64,"Duration":533332,"SoundDuration":533332,"Delta":50378336},{"NoteNumber":65,"Velocity":68,"Duration":136986,"SoundDuration":136986,"Delta":50911669},{"NoteNumber":68,"Velocity":68,"Duration":136986,"SoundDuration":136986,"Delta":50911669},{"NoteNumber":72,"Velocity":68,"Duration":136986,"SoundDuration":136986,"Delta":50911669},{"NoteNumber":77,"Velocity":75,"Duration":136986,"SoundDuration":136986,"Delta":50911669},{"NoteNumber":41,"Velocity":51,"Duration":136986,"SoundDuration":136986,"Delta":50911669},{"NoteNumber":53,"Velocity":58,"Duration":136986,"SoundDuration":136986,"Delta":50911669},{"NoteNumber":72,"Velocity":68,"Duration":145631,"SoundDuration":145631,"Delta":51185642},{"NoteNumber":75,"Velocity":75,"Duration":145631,"SoundDuration":145631,"Delta":51185642},{"NoteNumber":63,"Velocity":68,"Duration":145631,"SoundDuration":145631,"Delta":51185642},{"NoteNumber":67,"Velocity":68,"Duration":145631,"SoundDuration":145631,"Delta":51185642},{"NoteNumber":36,"Velocity":51,"Duration":145631,"SoundDuration":145631,"Delta":51185642},{"NoteNumber":48,"Velocity":58,"Duration":145631,"SoundDuration":145631,"Delta":51185642},{"NoteNumber":62,"Velocity":71,"Duration":530973,"SoundDuration":530973,"Delta":51476904},{"NoteNumber":67,"Velocity":71,"Duration":530973,"SoundDuration":530973,"Delta":51476904},{"NoteNumber":70,"Velocity":71,"Duration":530973,"SoundDuration":530973,"Delta":51476904},{"NoteNumber":74,"Velocity":80,"Duration":530973,"SoundDuration":530973,"Delta":51476904},{"NoteNumber":43,"Velocity":56,"Duration":530973,"SoundDuration":530973,"Delta":51476904},{"NoteNumber":50,"Velocity":56,"Duration":530973,"SoundDuration":530973,"Delta":51476904},{"NoteNumber":55,"Velocity":62,"Duration":530973,"SoundDuration":530973,"Delta":51476904},{"NoteNumber":67,"Velocity":64,"Duration":134529,"SoundDuration":134529,"Delta":52007877},{"NoteNumber":60,"Velocity":64,"Duration":134529,"SoundDuration":134529,"Delta":52007877},{"NoteNumber":63,"Velocity":64,"Duration":134529,"SoundDuration":134529,"Delta":52007877},{"NoteNumber":72,"Velocity":72,"Duration":134529,"SoundDuration":134529,"Delta":52007877},{"NoteNumber":36,"Velocity":50,"Duration":134529,"SoundDuration":134529,"Delta":52007877},{"NoteNumber":48,"Velocity":57,"Duration":134529,"SoundDuration":134529,"Delta":52007877},{"NoteNumber":58,"Velocity":62,"Duration":134529,"SoundDuration":134529,"Delta":52276935},{"NoteNumber":62,"Velocity":62,"Duration":134529,"SoundDuration":134529,"Delta":52276935},{"NoteNumber":70,"Velocity":70,"Duration":134529,"SoundDuration":134529,"Delta":52276935},{"NoteNumber":67,"Velocity":62,"Duration":134529,"SoundDuration":134529,"Delta":52276935},{"NoteNumber":31,"Velocity":50,"Duration":134529,"SoundDuration":134529,"Delta":52276935},{"NoteNumber":43,"Velocity":57,"Duration":134529,"SoundDuration":134529,"Delta":52276935},{"NoteNumber":69,"Velocity":70,"Duration":138248,"SoundDuration":138248,"Delta":52545994},{"NoteNumber":66,"Velocity":62,"Duration":138248,"SoundDuration":138248,"Delta":52545994},{"NoteNumber":57,"Velocity":62,"Duration":138248,"SoundDuration":138248,"Delta":52545994},{"NoteNumber":26,"Velocity":49,"Duration":138248,"SoundDuration":138248,"Delta":52545994},{"NoteNumber":38,"Velocity":56,"Duration":138248,"SoundDuration":138248,"Delta":52545994},{"NoteNumber":62,"Velocity":68,"Duration":138248,"SoundDuration":138248,"Delta":52822491},{"NoteNumber":50,"Velocity":53,"Duration":138248,"SoundDuration":138248,"Delta":52822491},{"NoteNumber":38,"Velocity":48,"Duration":138248,"SoundDuration":138248,"Delta":52822491},{"NoteNumber":55,"Velocity":59,"Duration":538116,"SoundDuration":538116,"Delta":53098369},{"NoteNumber":67,"Velocity":66,"Duration":538116,"SoundDuration":538116,"Delta":53098369},{"NoteNumber":31,"Velocity":47,"Duration":538116,"SoundDuration":538116,"Delta":53098369},{"NoteNumber":43,"Velocity":52,"Duration":538116,"SoundDuration":538116,"Delta":53098369},{"NoteNumber":67,"Velocity":75,"Duration":556320,"SoundDuration":556320,"Delta":53636486},{"NoteNumber":55,"Velocity":68,"Duration":556320,"SoundDuration":556320,"Delta":53636486},{"NoteNumber":66,"Velocity":75,"Duration":556320,"SoundDuration":556320,"Delta":53636486},{"NoteNumber":54,"Velocity":61,"Duration":556320,"SoundDuration":556320,"Delta":53636486},{"NoteNumber":43,"Velocity":55,"Duration":556320,"SoundDuration":556320,"Delta":53636486},{"NoteNumber":55,"Velocity":67,"Duration":423426,"SoundDuration":423426,"Delta":54192806},{"NoteNumber":65,"Velocity":74,"Duration":423426,"SoundDuration":423426,"Delta":54192806},{"NoteNumber":67,"Velocity":74,"Duration":423426,"SoundDuration":423426,"Delta":54192806},{"NoteNumber":43,"Velocity":52,"Duration":423426,"SoundDuration":423426,"Delta":54192806},{"NoteNumber":53,"Velocity":59,"Duration":423426,"SoundDuration":423426,"Delta":54192806},{"NoteNumber":79,"Velocity":77,"Duration":521738,"SoundDuration":521738,"Delta":54758638},{"NoteNumber":75,"Velocity":65,"Duration":521738,"SoundDuration":521738,"Delta":54758638},{"NoteNumber":67,"Velocity":65,"Duration":521738,"SoundDuration":521738,"Delta":54758638},{"NoteNumber":70,"Velocity":65,"Duration":521738,"SoundDuration":521738,"Delta":54758638},{"NoteNumber":39,"Velocity":50,"Duration":521738,"SoundDuration":521738,"Delta":54758638},{"NoteNumber":46,"Velocity":50,"Duration":521738,"SoundDuration":521738,"Delta":54758638},{"NoteNumber":51,"Velocity":59,"Duration":521738,"SoundDuration":521738,"Delta":54758638},{"NoteNumber":65,"Velocity":61,"Duration":136363,"SoundDuration":136363,"Delta":55280377},{"NoteNumber":70,"Velocity":61,"Duration":136363,"SoundDuration":136363,"Delta":55280377},{"NoteNumber":74,"Velocity":61,"Duration":136363,"SoundDuration":136363,"Delta":55280377},{"NoteNumber":77,"Velocity":72,"Duration":136363,"SoundDuration":136363,"Delta":55280377},{"NoteNumber":34,"Velocity":46,"Duration":136363,"SoundDuration":136363,"Delta":55280377},{"NoteNumber":46,"Velocity":55,"Duration":136363,"SoundDuration":136363,"Delta":55280377},{"NoteNumber":79,"Velocity":73,"Duration":140844,"SoundDuration":140844,"Delta":55553105},{"NoteNumber":67,"Velocity":62,"Duration":140844,"SoundDuration":140844,"Delta":55553105},{"NoteNumber":70,"Velocity":62,"Duration":140844,"SoundDuration":140844,"Delta":55553105},{"NoteNumber":75,"Velocity":62,"Duration":140844,"SoundDuration":140844,"Delta":55553105},{"NoteNumber":39,"Velocity":49,"Duration":140844,"SoundDuration":140844,"Delta":55553105},{"NoteNumber":51,"Velocity":58,"Duration":140844,"SoundDuration":140844,"Delta":55553105},{"NoteNumber":68,"Velocity":65,"Duration":519705,"SoundDuration":519705,"Delta":55834795},{"NoteNumber":72,"Velocity":65,"Duration":519705,"SoundDuration":519705,"Delta":55834795},{"NoteNumber":75,"Velocity":65,"Duration":519705,"SoundDuration":519705,"Delta":55834795},{"NoteNumber":80,"Velocity":77,"Duration":519705,"SoundDuration":519705,"Delta":55834795},{"NoteNumber":32,"Velocity":51,"Duration":519705,"SoundDuration":519705,"Delta":55834795},{"NoteNumber":44,"Velocity":61,"Duration":519705,"SoundDuration":519705,"Delta":55834795},{"NoteNumber":75,"Velocity":62,"Duration":136363,"SoundDuration":136363,"Delta":56354501},{"NoteNumber":79,"Velocity":74,"Duration":136363,"SoundDuration":136363,"Delta":56354501},{"NoteNumber":67,"Velocity":62,"Duration":136363,"SoundDuration":136363,"Delta":56354501},{"NoteNumber":70,"Velocity":62,"Duration":136363,"SoundDuration":136363,"Delta":56354501},{"NoteNumber":39,"Velocity":48,"Duration":136363,"SoundDuration":136363,"Delta":56354501},{"NoteNumber":51,"Velocity":57,"Duration":136363,"SoundDuration":136363,"Delta":56354501},{"NoteNumber":65,"Velocity":53,"Duration":140186,"SoundDuration":140186,"Delta":56627228},{"NoteNumber":72,"Velocity":53,"Duration":140186,"SoundDuration":140186,"Delta":56627228},{"NoteNumber":77,"Velocity":72,"Duration":140186,"SoundDuration":140186,"Delta":56627228},{"NoteNumber":75,"Velocity":53,"Duration":140186,"SoundDuration":140186,"Delta":56627228},{"NoteNumber":32,"Velocity":45,"Duration":140186,"SoundDuration":140186,"Delta":56627228},{"NoteNumber":44,"Velocity":54,"Duration":140186,"SoundDuration":140186,"Delta":56627228},{"NoteNumber":75,"Velocity":58,"Duration":519705,"SoundDuration":519705,"Delta":56907602},{"NoteNumber":67,"Velocity":58,"Duration":519705,"SoundDuration":519705,"Delta":56907602},{"NoteNumber":70,"Velocity":58,"Duration":519705,"SoundDuration":519705,"Delta":56907602},{"NoteNumber":79,"Velocity":76,"Duration":519705,"SoundDuration":519705,"Delta":56907602},{"NoteNumber":39,"Velocity":47,"Duration":519705,"SoundDuration":519705,"Delta":56907602},{"NoteNumber":46,"Velocity":47,"Duration":519705,"SoundDuration":519705,"Delta":56907602},{"NoteNumber":51,"Velocity":56,"Duration":519705,"SoundDuration":519705,"Delta":56907602},{"NoteNumber":65,"Velocity":63,"Duration":132696,"SoundDuration":132696,"Delta":57427308},{"NoteNumber":68,"Velocity":63,"Duration":132696,"SoundDuration":132696,"Delta":57427308},{"NoteNumber":77,"Velocity":75,"Duration":132696,"SoundDuration":132696,"Delta":57427308},{"NoteNumber":74,"Velocity":75,"Duration":132696,"SoundDuration":132696,"Delta":57427308},{"NoteNumber":34,"Velocity":49,"Duration":132696,"SoundDuration":132696,"Delta":57427308},{"NoteNumber":46,"Velocity":58,"Duration":132696,"SoundDuration":132696,"Delta":57427308},{"NoteNumber":70,"Velocity":62,"Duration":132696,"SoundDuration":132696,"Delta":57692701},{"NoteNumber":67,"Velocity":62,"Duration":132696,"SoundDuration":132696,"Delta":57692701},{"NoteNumber":63,"Velocity":62,"Duration":132696,"SoundDuration":132696,"Delta":57692701},{"NoteNumber":75,"Velocity":73,"Duration":132696,"SoundDuration":132696,"Delta":57692701},{"NoteNumber":51,"Velocity":56,"Duration":132696,"SoundDuration":132696,"Delta":57692701},{"NoteNumber":39,"Velocity":47,"Duration":132696,"SoundDuration":132696,"Delta":57692701},{"NoteNumber":65,"Velocity":62,"Duration":132696,"SoundDuration":132696,"Delta":57958094},{"NoteNumber":74,"Velocity":74,"Duration":132696,"SoundDuration":132696,"Delta":57958094},{"NoteNumber":77,"Velocity":74,"Duration":132696,"SoundDuration":132696,"Delta":57958094},{"NoteNumber":34,"Velocity":48,"Duration":132696,"SoundDuration":132696,"Delta":57958094},{"NoteNumber":46,"Velocity":57,"Duration":132696,"SoundDuration":132696,"Delta":57958094},{"NoteNumber":70,"Velocity":71,"Duration":132696,"SoundDuration":132696,"Delta":58223487},{"NoteNumber":58,"Velocity":57,"Duration":132696,"SoundDuration":132696,"Delta":58223487},{"NoteNumber":46,"Velocity":50,"Duration":132696,"SoundDuration":132696,"Delta":58223487},{"NoteNumber":75,"Velocity":69,"Duration":551926,"SoundDuration":551926,"Delta":58488880},{"NoteNumber":63,"Velocity":61,"Duration":551926,"SoundDuration":551926,"Delta":58488880},{"NoteNumber":39,"Velocity":49,"Duration":551926,"SoundDuration":551926,"Delta":58488880},{"NoteNumber":51,"Velocity":56,"Duration":551926,"SoundDuration":551926,"Delta":58488880},{"NoteNumber":74,"Velocity":68,"Duration":580159,"SoundDuration":580159,"Delta":59040807},{"NoteNumber":63,"Velocity":68,"Duration":580159,"SoundDuration":580159,"Delta":59040807},{"NoteNumber":75,"Velocity":75,"Duration":580159,"SoundDuration":580159,"Delta":59040807},{"NoteNumber":39,"Velocity":55,"Duration":580159,"SoundDuration":580159,"Delta":59040807},{"NoteNumber":38,"Velocity":55,"Duration":580159,"SoundDuration":580159,"Delta":59040807},{"NoteNumber":50,"Velocity":61,"Duration":580159,"SoundDuration":580159,"Delta":59040807},{"NoteNumber":75,"Velocity":81,"Duration":620604,"SoundDuration":620604,"Delta":59620966},{"NoteNumber":63,"Velocity":72,"Duration":620604,"SoundDuration":620604,"Delta":59620966},{"NoteNumber":72,"Velocity":72,"Duration":620604,"SoundDuration":620604,"Delta":59620966},{"NoteNumber":36,"Velocity":58,"Duration":620604,"SoundDuration":620604,"Delta":59620966},{"NoteNumber":39,"Velocity":58,"Duration":620604,"SoundDuration":620604,"Delta":59620966},{"NoteNumber":48,"Velocity":64,"Duration":620604,"SoundDuration":620604,"Delta":59620966},{"NoteNumber":87,"Velocity":90,"Duration":533048,"SoundDuration":533048,"Delta":60241570},{"NoteNumber":91,"Velocity":101,"Duration":533048,"SoundDuration":533048,"Delta":60241570},{"NoteNumber":84,"Velocity":90,"Duration":533048,"SoundDuration":533048,"Delta":60241570},{"NoteNumber":79,"Velocity":90,"Duration":533048,"SoundDuration":533048,"Delta":60241570},{"NoteNumber":31,"Velocity":72,"Duration":533048,"SoundDuration":533048,"Delta":60241570},{"NoteNumber":36,"Velocity":72,"Duration":533048,"SoundDuration":533048,"Delta":60241570},{"NoteNumber":39,"Velocity":72,"Duration":533048,"SoundDuration":533048,"Delta":60241570},{"NoteNumber":43,"Velocity":81,"Duration":533048,"SoundDuration":533048,"Delta":60241570},{"NoteNumber":86,"Velocity":93,"Duration":131027,"SoundDuration":131027,"Delta":60774619},{"NoteNumber":83,"Velocity":93,"Duration":131027,"SoundDuration":131027,"Delta":60774619},{"NoteNumber":74,"Velocity":83,"Duration":131027,"SoundDuration":131027,"Delta":60774619},{"NoteNumber":39,"Velocity":67,"Duration":131027,"SoundDuration":131027,"Delta":60774619},{"NoteNumber":51,"Velocity":74,"Duration":131027,"SoundDuration":131027,"Delta":60774619},{"NoteNumber":84,"Velocity":79,"Duration":143705,"SoundDuration":143705,"Delta":61036674},{"NoteNumber":87,"Velocity":89,"Duration":143705,"SoundDuration":143705,"Delta":61036674},{"NoteNumber":75,"Velocity":79,"Duration":143705,"SoundDuration":143705,"Delta":61036674},{"NoteNumber":48,"Velocity":74,"Duration":143705,"SoundDuration":143705,"Delta":61036674},{"NoteNumber":36,"Velocity":67,"Duration":143705,"SoundDuration":143705,"Delta":61036674},{"NoteNumber":83,"Velocity":92,"Duration":533048,"SoundDuration":533048,"Delta":61324085},{"NoteNumber":80,"Velocity":82,"Duration":533048,"SoundDuration":533048,"Delta":61324085},{"NoteNumber":71,"Velocity":82,"Duration":533048,"SoundDuration":533048,"Delta":61324085},{"NoteNumber":75,"Velocity":82,"Duration":533048,"SoundDuration":533048,"Delta":61324085},{"NoteNumber":44,"Velocity":69,"Duration":533048,"SoundDuration":533048,"Delta":61324085},{"NoteNumber":51,"Velocity":69,"Duration":533048,"SoundDuration":533048,"Delta":61324085},{"NoteNumber":56,"Velocity":77,"Duration":533048,"SoundDuration":533048,"Delta":61324085},{"NoteNumber":75,"Velocity":79,"Duration":140844,"SoundDuration":140844,"Delta":61857134},{"NoteNumber":80,"Velocity":79,"Duration":140844,"SoundDuration":140844,"Delta":61857134},{"NoteNumber":84,"Velocity":88,"Duration":140844,"SoundDuration":140844,"Delta":61857134},{"NoteNumber":72,"Velocity":79,"Duration":140844,"SoundDuration":140844,"Delta":61857134},{"NoteNumber":36,"Velocity":62,"Duration":140844,"SoundDuration":140844,"Delta":61857134},{"NoteNumber":48,"Velocity":70,"Duration":140844,"SoundDuration":140844,"Delta":61857134},{"NoteNumber":79,"Velocity":84,"Duration":140845,"SoundDuration":140845,"Delta":62138824},{"NoteNumber":76,"Velocity":84,"Duration":140845,"SoundDuration":140845,"Delta":62138824},{"NoteNumber":67,"Velocity":75,"Duration":140845,"SoundDuration":140845,"Delta":62138824},{"NoteNumber":32,"Velocity":62,"Duration":140845,"SoundDuration":140845,"Delta":62138824},{"NoteNumber":44,"Velocity":70,"Duration":140845,"SoundDuration":140845,"Delta":62138824},{"NoteNumber":72,"Velocity":80,"Duration":563379,"SoundDuration":563379,"Delta":62420514},{"NoteNumber":80,"Velocity":90,"Duration":563379,"SoundDuration":563379,"Delta":62420514},{"NoteNumber":77,"Velocity":80,"Duration":563379,"SoundDuration":563379,"Delta":62420514},{"NoteNumber":68,"Velocity":80,"Duration":563379,"SoundDuration":563379,"Delta":62420514},{"NoteNumber":53,"Velocity":74,"Duration":563379,"SoundDuration":563379,"Delta":62420514},{"NoteNumber":48,"Velocity":67,"Duration":563379,"SoundDuration":563379,"Delta":62420514},{"NoteNumber":44,"Velocity":67,"Duration":563379,"SoundDuration":563379,"Delta":62420514},{"NoteNumber":41,"Velocity":67,"Duration":563379,"SoundDuration":563379,"Delta":62420514},{"NoteNumber":76,"Velocity":83,"Duration":299999,"SoundDuration":299999,"Delta":62983894},{"NoteNumber":73,"Velocity":83,"Duration":299999,"SoundDuration":299999,"Delta":62983894},{"NoteNumber":63,"Velocity":74,"Duration":299999,"SoundDuration":299999,"Delta":62983894},{"NoteNumber":32,"Velocity":59,"Duration":299999,"SoundDuration":299999,"Delta":62983894},{"NoteNumber":44,"Velocity":66,"Duration":299999,"SoundDuration":299999,"Delta":62983894},{"NoteNumber":74,"Velocity":74,"Duration":335307,"SoundDuration":335307,"Delta":63283894},{"NoteNumber":77,"Velocity":83,"Duration":335307,"SoundDuration":335307,"Delta":63283894},{"NoteNumber":65,"Velocity":74,"Duration":335307,"SoundDuration":335307,"Delta":63283894},{"NoteNumber":29,"Velocity":59,"Duration":335307,"SoundDuration":335307,"Delta":63283894},{"NoteNumber":41,"Velocity":66,"Duration":335307,"SoundDuration":335307,"Delta":63283894},{"NoteNumber":69,"Velocity":88,"Duration":1192354,"SoundDuration":1192354,"Delta":63619202},{"NoteNumber":66,"Velocity":79,"Duration":1192354,"SoundDuration":1192354,"Delta":63619202},{"NoteNumber":63,"Velocity":79,"Duration":1192354,"SoundDuration":1192354,"Delta":63619202},{"NoteNumber":75,"Velocity":88,"Duration":811920,"SoundDuration":811920,"Delta":63619202},{"NoteNumber":48,"Velocity":62,"Duration":670615,"SoundDuration":670615,"Delta":63619202},{"NoteNumber":51,"Velocity":62,"Duration":670615,"SoundDuration":670615,"Delta":63619202},{"NoteNumber":54,"Velocity":62,"Duration":670615,"SoundDuration":670615,"Delta":63619202},{"NoteNumber":57,"Velocity":70,"Duration":670615,"SoundDuration":670615,"Delta":63619202},{"NoteNumber":60,"Velocity":70,"Duration":670615,"SoundDuration":670615,"Delta":63619202},{"NoteNumber":31,"Velocity":62,"Duration":260869,"SoundDuration":260869,"Delta":64289818},{"NoteNumber":43,"Velocity":70,"Duration":260869,"SoundDuration":260869,"Delta":64289818},{"NoteNumber":74,"Velocity":78,"Duration":141304,"SoundDuration":141304,"Delta":64420253},{"NoteNumber":72,"Velocity":76,"Duration":141304,"SoundDuration":141304,"Delta":64550688},{"NoteNumber":71,"Velocity":78,"Duration":130434,"SoundDuration":130434,"Delta":64681122},{"NoteNumber":66,"Velocity":65,"Duration":217391,"SoundDuration":217391,"Delta":64811557},{"NoteNumber":60,"Velocity":65,"Duration":217391,"SoundDuration":217391,"Delta":64811557},{"NoteNumber":63,"Velocity":65,"Duration":217391,"SoundDuration":217391,"Delta":64811557},{"NoteNumber":72,"Velocity":74,"Duration":217391,"SoundDuration":217391,"Delta":64811557},{"NoteNumber":31,"Velocity":53,"Duration":217391,"SoundDuration":217391,"Delta":64811557},{"NoteNumber":43,"Velocity":58,"Duration":217391,"SoundDuration":217391,"Delta":64811557},{"NoteNumber":59,"Velocity":62,"Duration":240641,"SoundDuration":240641,"Delta":65391267},{"NoteNumber":62,"Velocity":62,"Duration":240641,"SoundDuration":240641,"Delta":65391267},{"NoteNumber":67,"Velocity":69,"Duration":240641,"SoundDuration":240641,"Delta":65391267},{"NoteNumber":31,"Velocity":48,"Duration":240641,"SoundDuration":240641,"Delta":65391267},{"NoteNumber":43,"Velocity":55,"Duration":240641,"SoundDuration":240641,"Delta":65391267},{"NoteNumber":60,"Velocity":64,"Duration":2400000,"SoundDuration":2400000,"Delta":66032978},{"NoteNumber":48,"Velocity":58,"Duration":1200000,"SoundDuration":1200000,"Delta":66032978},{"NoteNumber":32,"Velocity":46,"Duration":2400000,"SoundDuration":2400000,"Delta":66032978},{"NoteNumber":36,"Velocity":46,"Duration":2400000,"SoundDuration":2400000,"Delta":66032978},{"NoteNumber":44,"Velocity":51,"Duration":2400000,"SoundDuration":2400000,"Delta":66032978},{"NoteNumber":50,"Velocity":47,"Duration":1200000,"SoundDuration":1200000,"Delta":67232978},{"NoteNumber":62,"Velocity":52,"Duration":1200000,"SoundDuration":1200000,"Delta":67232978},{"NoteNumber":63,"Velocity":39,"Duration":2399999,"SoundDuration":2399999,"Delta":68432978},{"NoteNumber":72,"Velocity":44,"Duration":2399999,"SoundDuration":2399999,"Delta":68432978},{"NoteNumber":75,"Velocity":44,"Duration":2399999,"SoundDuration":2399999,"Delta":68432978},{"NoteNumber":60,"Velocity":35,"Duration":2387499,"SoundDuration":2387499,"Delta":68432978},{"NoteNumber":56,"Velocity":35,"Duration":2399999,"SoundDuration":2399999,"Delta":68432978},{"NoteNumber":51,"Velocity":30,"Duration":2387499,"SoundDuration":2387499,"Delta":68432978},{"NoteNumber":60,"Velocity":45,"Duration":188253,"SoundDuration":188253,"Delta":70832978},{"NoteNumber":51,"Velocity":37,"Duration":188253,"SoundDuration":188253,"Delta":70832978},{"NoteNumber":36,"Velocity":27,"Duration":564758,"SoundDuration":564758,"Delta":70832978},{"NoteNumber":48,"Velocity":33,"Duration":188253,"SoundDuration":188253,"Delta":70832978},{"NoteNumber":55,"Velocity":41,"Duration":188253,"SoundDuration":188253,"Delta":71021231},{"NoteNumber":43,"Velocity":33,"Duration":188253,"SoundDuration":188253,"Delta":71021231},{"NoteNumber":51,"Velocity":35,"Duration":188252,"SoundDuration":188252,"Delta":71209484},{"NoteNumber":60,"Velocity":41,"Duration":188252,"SoundDuration":188252,"Delta":71209484},{"NoteNumber":48,"Velocity":33,"Duration":188252,"SoundDuration":188252,"Delta":71209484},{"NoteNumber":50,"Velocity":33,"Duration":564759,"SoundDuration":564759,"Delta":71397737},{"NoteNumber":62,"Velocity":39,"Duration":564759,"SoundDuration":564759,"Delta":71397737},{"NoteNumber":55,"Velocity":33,"Duration":564759,"SoundDuration":564759,"Delta":71397737},{"NoteNumber":36,"Velocity":25,"Duration":564759,"SoundDuration":564759,"Delta":71397737},{"NoteNumber":43,"Velocity":30,"Duration":564759,"SoundDuration":564759,"Delta":71397737},{"NoteNumber":51,"Velocity":37,"Duration":188252,"SoundDuration":188252,"Delta":71962496},{"NoteNumber":63,"Velocity":45,"Duration":188252,"SoundDuration":188252,"Delta":71962496},{"NoteNumber":36,"Velocity":27,"Duration":564758,"SoundDuration":564758,"Delta":71962496},{"NoteNumber":48,"Velocity":33,"Duration":188252,"SoundDuration":188252,"Delta":71962496},{"NoteNumber":55,"Velocity":41,"Duration":188253,"SoundDuration":188253,"Delta":72150749},{"NoteNumber":43,"Velocity":33,"Duration":188253,"SoundDuration":188253,"Delta":72150749},{"NoteNumber":51,"Velocity":35,"Duration":188253,"SoundDuration":188253,"Delta":72339002},{"NoteNumber":63,"Velocity":41,"Duration":188253,"SoundDuration":188253,"Delta":72339002},{"NoteNumber":48,"Velocity":33,"Duration":188253,"SoundDuration":188253,"Delta":72339002},{"NoteNumber":50,"Velocity":34,"Duration":564758,"SoundDuration":564758,"Delta":72527255},{"NoteNumber":55,"Velocity":34,"Duration":564758,"SoundDuration":564758,"Delta":72527255},{"NoteNumber":62,"Velocity":40,"Duration":564758,"SoundDuration":564758,"Delta":72527255},{"NoteNumber":36,"Velocity":25,"Duration":564758,"SoundDuration":564758,"Delta":72527255},{"NoteNumber":43,"Velocity":30,"Duration":564758,"SoundDuration":564758,"Delta":72527255},{"NoteNumber":55,"Velocity":40,"Duration":188253,"SoundDuration":188253,"Delta":73092014},{"NoteNumber":67,"Velocity":48,"Duration":188253,"SoundDuration":188253,"Delta":73092014},{"NoteNumber":36,"Velocity":29,"Duration":564759,"SoundDuration":564759,"Delta":73092014},{"NoteNumber":51,"Velocity":35,"Duration":188253,"SoundDuration":188253,"Delta":73092014},{"NoteNumber":63,"Velocity":44,"Duration":188253,"SoundDuration":188253,"Delta":73280267},{"NoteNumber":43,"Velocity":35,"Duration":188253,"SoundDuration":188253,"Delta":73280267},{"NoteNumber":53,"Velocity":37,"Duration":188253,"SoundDuration":188253,"Delta":73468520},{"NoteNumber":65,"Velocity":44,"Duration":188253,"SoundDuration":188253,"Delta":73468520},{"NoteNumber":50,"Velocity":35,"Duration":188253,"SoundDuration":188253,"Delta":73468520},{"NoteNumber":62,"Velocity":46,"Duration":564758,"SoundDuration":564758,"Delta":73656773},{"NoteNumber":36,"Velocity":29,"Duration":564758,"SoundDuration":564758,"Delta":73656773},{"NoteNumber":43,"Velocity":35,"Duration":564758,"SoundDuration":564758,"Delta":73656773},{"NoteNumber":60,"Velocity":44,"Duration":188253,"SoundDuration":188253,"Delta":74221532},{"NoteNumber":51,"Velocity":37,"Duration":188253,"SoundDuration":188253,"Delta":74221532},{"NoteNumber":36,"Velocity":27,"Duration":564758,"SoundDuration":564758,"Delta":74221532},{"NoteNumber":48,"Velocity":33,"Duration":188253,"SoundDuration":188253,"Delta":74221532},{"NoteNumber":55,"Velocity":41,"Duration":188253,"SoundDuration":188253,"Delta":74409785},{"NoteNumber":43,"Velocity":33,"Duration":188253,"SoundDuration":188253,"Delta":74409785},{"NoteNumber":49,"Velocity":35,"Duration":188252,"SoundDuration":188252,"Delta":74598038},{"NoteNumber":61,"Velocity":41,"Duration":188252,"SoundDuration":188252,"Delta":74598038},{"NoteNumber":46,"Velocity":33,"Duration":188252,"SoundDuration":188252,"Delta":74598038},{"NoteNumber":58,"Velocity":45,"Duration":574919,"SoundDuration":574919,"Delta":74786291},{"NoteNumber":43,"Velocity":33,"Duration":574919,"SoundDuration":574919,"Delta":74786291},{"NoteNumber":36,"Velocity":27,"Duration":574919,"SoundDuration":574919,"Delta":74786291},{"NoteNumber":60,"Velocity":39,"Duration":188253,"SoundDuration":188253,"Delta":75361211},{"NoteNumber":72,"Velocity":47,"Duration":188253,"SoundDuration":188253,"Delta":75361211},{"NoteNumber":36,"Velocity":35,"Duration":376506,"SoundDuration":376506,"Delta":75361211},{"NoteNumber":44,"Velocity":35,"Duration":188253,"SoundDuration":188253,"Delta":75370623},{"NoteNumber":68,"Velocity":45,"Duration":188253,"SoundDuration":188253,"Delta":75549464},{"NoteNumber":48,"Velocity":35,"Duration":188253,"SoundDuration":188253,"Delta":75549464},{"NoteNumber":58,"Velocity":37,"Duration":188252,"SoundDuration":188252,"Delta":75737717},{"NoteNumber":70,"Velocity":44,"Duration":188252,"SoundDuration":188252,"Delta":75737717},{"NoteNumber":43,"Velocity":33,"Duration":188252,"SoundDuration":188252,"Delta":75737717},{"NoteNumber":36,"Velocity":33,"Duration":753011,"SoundDuration":753011,"Delta":75737717},{"NoteNumber":67,"Velocity":41,"Duration":564759,"SoundDuration":564759,"Delta":75921263},{"NoteNumber":46,"Velocity":31,"Duration":564759,"SoundDuration":564759,"Delta":75921263},{"NoteNumber":60,"Velocity":39,"Duration":188252,"SoundDuration":188252,"Delta":76490729},{"NoteNumber":72,"Velocity":47,"Duration":188252,"SoundDuration":188252,"Delta":76490729},{"NoteNumber":36,"Velocity":31,"Duration":376505,"SoundDuration":376505,"Delta":76490729},{"NoteNumber":44,"Velocity":38,"Duration":188252,"SoundDuration":188252,"Delta":76490729},{"NoteNumber":68,"Velocity":44,"Duration":188253,"SoundDuration":188253,"Delta":76678982},{"NoteNumber":48,"Velocity":35,"Duration":188253,"SoundDuration":188253,"Delta":76678982},{"NoteNumber":58,"Velocity":38,"Duration":188253,"SoundDuration":188253,"Delta":76867235},{"NoteNumber":70,"Velocity":46,"Duration":188253,"SoundDuration":188253,"Delta":76867235},{"NoteNumber":36,"Velocity":29,"Duration":376506,"SoundDuration":376506,"Delta":76867235},{"NoteNumber":43,"Velocity":35,"Duration":188253,"SoundDuration":188253,"Delta":76867235},{"NoteNumber":67,"Velocity":44,"Duration":188253,"SoundDuration":188253,"Delta":77055488},{"NoteNumber":46,"Velocity":34,"Duration":188253,"SoundDuration":188253,"Delta":77055488},{"NoteNumber":56,"Velocity":37,"Duration":188253,"SoundDuration":188253,"Delta":77243741},{"NoteNumber":68,"Velocity":45,"Duration":188253,"SoundDuration":188253,"Delta":77243741},{"NoteNumber":36,"Velocity":26,"Duration":376505,"SoundDuration":376505,"Delta":77243741},{"NoteNumber":41,"Velocity":35,"Duration":188253,"SoundDuration":188253,"Delta":77243741},{"NoteNumber":65,"Velocity":41,"Duration":188252,"SoundDuration":188252,"Delta":77431994},{"NoteNumber":44,"Velocity":31,"Duration":188252,"SoundDuration":188252,"Delta":77431994},{"NoteNumber":54,"Velocity":37,"Duration":188253,"SoundDuration":188253,"Delta":77620247},{"NoteNumber":66,"Velocity":44,"Duration":188253,"SoundDuration":188253,"Delta":77620247},{"NoteNumber":36,"Velocity":29,"Duration":564759,"SoundDuration":564759,"Delta":77620247},{"NoteNumber":39,"Velocity":35,"Duration":188253,"SoundDuration":188253,"Delta":77624953},{"NoteNumber":63,"Velocity":41,"Duration":188253,"SoundDuration":188253,"Delta":77808500},{"NoteNumber":44,"Velocity":33,"Duration":188253,"SoundDuration":188253,"Delta":77808500},{"NoteNumber":66,"Velocity":41,"Duration":188253,"SoundDuration":188253,"Delta":77996753},{"NoteNumber":54,"Velocity":35,"Duration":188253,"SoundDuration":188253,"Delta":77996753},{"NoteNumber":39,"Velocity":33,"Duration":188253,"SoundDuration":188253,"Delta":78001459},{"NoteNumber":55,"Velocity":37,"Duration":564758,"SoundDuration":564758,"Delta":78185006},{"NoteNumber":62,"Velocity":37,"Duration":564758,"SoundDuration":564758,"Delta":78185006},{"NoteNumber":67,"Velocity":44,"Duration":564758,"SoundDuration":564758,"Delta":78185006},{"NoteNumber":31,"Velocity":29,"Duration":564758,"SoundDuration":564758,"Delta":78185006},{"NoteNumber":43,"Velocity":35,"Duration":564758,"SoundDuration":564758,"Delta":78185006},{"NoteNumber":69,"Velocity":44,"Duration":188253,"SoundDuration":188253,"Delta":78749765},{"NoteNumber":36,"Velocity":29,"Duration":564758,"SoundDuration":564758,"Delta":78749765},{"NoteNumber":39,"Velocity":35,"Duration":188253,"SoundDuration":188253,"Delta":78749765},{"NoteNumber":57,"Velocity":37,"Duration":188253,"SoundDuration":188253,"Delta":78754471},{"NoteNumber":63,"Velocity":42,"Duration":188253,"SoundDuration":188253,"Delta":78938018},{"NoteNumber":45,"Velocity":34,"Duration":188253,"SoundDuration":188253,"Delta":78938018},{"NoteNumber":69,"Velocity":42,"Duration":188252,"SoundDuration":188252,"Delta":79126271},{"NoteNumber":39,"Velocity":34,"Duration":188252,"SoundDuration":188252,"Delta":79126271},{"NoteNumber":57,"Velocity":36,"Duration":188252,"SoundDuration":188252,"Delta":79130977},{"NoteNumber":55,"Velocity":37,"Duration":576266,"SoundDuration":576266,"Delta":79314524},{"NoteNumber":62,"Velocity":37,"Duration":576266,"SoundDuration":576266,"Delta":79314524},{"NoteNumber":67,"Velocity":44,"Duration":576266,"SoundDuration":576266,"Delta":79314524},{"NoteNumber":31,"Velocity":29,"Duration":576266,"SoundDuration":576266,"Delta":79314524},{"NoteNumber":43,"Velocity":35,"Duration":576266,"SoundDuration":576266,"Delta":79314524},{"NoteNumber":60,"Velocity":52,"Duration":188253,"SoundDuration":188253,"Delta":79890790},{"NoteNumber":72,"Velocity":52,"Duration":188253,"SoundDuration":188253,"Delta":79890790},{"NoteNumber":52,"Velocity":41,"Duration":188253,"SoundDuration":188253,"Delta":79890790},{"NoteNumber":36,"Velocity":41,"Duration":564758,"SoundDuration":564758,"Delta":79890790},{"NoteNumber":67,"Velocity":48,"Duration":188253,"SoundDuration":188253,"Delta":80079043},{"NoteNumber":43,"Velocity":38,"Duration":188253,"SoundDuration":188253,"Delta":80079043},{"NoteNumber":60,"Velocity":48,"Duration":188252,"SoundDuration":188252,"Delta":80267296},{"NoteNumber":72,"Velocity":48,"Duration":188252,"SoundDuration":188252,"Delta":80267296},{"NoteNumber":52,"Velocity":38,"Duration":188252,"SoundDuration":188252,"Delta":80267296},{"NoteNumber":62,"Velocity":48,"Duration":564759,"SoundDuration":564759,"Delta":80455549},{"NoteNumber":67,"Velocity":48,"Duration":564759,"SoundDuration":564759,"Delta":80455549},{"NoteNumber":74,"Velocity":48,"Duration":564759,"SoundDuration":564759,"Delta":80455549},{"NoteNumber":50,"Velocity":37,"Duration":564759,"SoundDuration":564759,"Delta":80455549},{"NoteNumber":55,"Velocity":37,"Duration":564759,"SoundDuration":564759,"Delta":80455549},{"NoteNumber":43,"Velocity":37,"Duration":564759,"SoundDuration":564759,"Delta":80455549},{"NoteNumber":48,"Velocity":37,"Duration":564759,"SoundDuration":564759,"Delta":80455549},{"NoteNumber":76,"Velocity":61,"Duration":188252,"SoundDuration":188252,"Delta":81020308},{"NoteNumber":64,"Velocity":61,"Duration":188252,"SoundDuration":188252,"Delta":81020308},{"NoteNumber":36,"Velocity":48,"Duration":564758,"SoundDuration":564758,"Delta":81020308},{"NoteNumber":48,"Velocity":48,"Duration":188252,"SoundDuration":188252,"Delta":81020308},{"NoteNumber":67,"Velocity":57,"Duration":188253,"SoundDuration":188253,"Delta":81208561},{"NoteNumber":43,"Velocity":44,"Duration":188253,"SoundDuration":188253,"Delta":81208561},{"NoteNumber":64,"Velocity":56,"Duration":188253,"SoundDuration":188253,"Delta":81396814},{"NoteNumber":76,"Velocity":56,"Duration":188253,"SoundDuration":188253,"Delta":81396814},{"NoteNumber":48,"Velocity":44,"Duration":188253,"SoundDuration":188253,"Delta":81396814},{"NoteNumber":74,"Velocity":61,"Duration":564758,"SoundDuration":564758,"Delta":81585067},{"NoteNumber":67,"Velocity":61,"Duration":564758,"SoundDuration":564758,"Delta":81585067},{"NoteNumber":62,"Velocity":61,"Duration":564758,"SoundDuration":564758,"Delta":81585067},{"NoteNumber":55,"Velocity":39,"Duration":564758,"SoundDuration":564758,"Delta":81585067},{"NoteNumber":50,"Velocity":39,"Duration":564758,"SoundDuration":564758,"Delta":81585067},{"NoteNumber":48,"Velocity":39,"Duration":564758,"SoundDuration":564758,"Delta":81585067},{"NoteNumber":43,"Velocity":39,"Duration":564758,"SoundDuration":564758,"Delta":81585067},{"NoteNumber":79,"Velocity":66,"Duration":185821,"SoundDuration":185821,"Delta":82149826},{"NoteNumber":67,"Velocity":66,"Duration":185821,"SoundDuration":185821,"Delta":82149826},{"NoteNumber":36,"Velocity":52,"Duration":557464,"SoundDuration":557464,"Delta":82149826},{"NoteNumber":52,"Velocity":52,"Duration":185821,"SoundDuration":185821,"Delta":82149826},{"NoteNumber":76,"Velocity":61,"Duration":185821,"SoundDuration":185821,"Delta":82335648},{"NoteNumber":43,"Velocity":48,"Duration":185821,"SoundDuration":185821,"Delta":82335648},{"NoteNumber":65,"Velocity":61,"Duration":185821,"SoundDuration":185821,"Delta":82521469},{"NoteNumber":77,"Velocity":61,"Duration":185821,"SoundDuration":185821,"Delta":82521469},{"NoteNumber":50,"Velocity":48,"Duration":185821,"SoundDuration":185821,"Delta":82521469},{"NoteNumber":62,"Velocity":60,"Duration":557465,"SoundDuration":557465,"Delta":82707291},{"NoteNumber":74,"Velocity":60,"Duration":557465,"SoundDuration":557465,"Delta":82707291},{"NoteNumber":67,"Velocity":60,"Duration":557465,"SoundDuration":557465,"Delta":82707291},{"NoteNumber":43,"Velocity":46,"Duration":557465,"SoundDuration":557465,"Delta":82707291},{"NoteNumber":48,"Velocity":46,"Duration":557465,"SoundDuration":557465,"Delta":82707291},{"NoteNumber":50,"Velocity":46,"Duration":557465,"SoundDuration":557465,"Delta":82707291},{"NoteNumber":55,"Velocity":46,"Duration":557465,"SoundDuration":557465,"Delta":82707291},{"NoteNumber":64,"Velocity":78,"Duration":185821,"SoundDuration":185821,"Delta":83264756},{"NoteNumber":76,"Velocity":78,"Duration":185821,"SoundDuration":185821,"Delta":83264756},{"NoteNumber":36,"Velocity":54,"Duration":557464,"SoundDuration":557464,"Delta":83264756},{"NoteNumber":48,"Velocity":60,"Duration":185821,"SoundDuration":185821,"Delta":83264756},{"NoteNumber":72,"Velocity":71,"Duration":185821,"SoundDuration":185821,"Delta":83450578},{"NoteNumber":43,"Velocity":53,"Duration":185821,"SoundDuration":185821,"Delta":83450578},{"NoteNumber":62,"Velocity":71,"Duration":185821,"SoundDuration":185821,"Delta":83636399},{"NoteNumber":74,"Velocity":71,"Duration":185821,"SoundDuration":185821,"Delta":83636399},{"NoteNumber":46,"Velocity":53,"Duration":185821,"SoundDuration":185821,"Delta":83636399},{"NoteNumber":70,"Velocity":71,"Duration":578044,"SoundDuration":578044,"Delta":83822221},{"NoteNumber":64,"Velocity":71,"Duration":578044,"SoundDuration":578044,"Delta":83822221},{"NoteNumber":58,"Velocity":71,"Duration":578044,"SoundDuration":578044,"Delta":83822221},{"NoteNumber":55,"Velocity":53,"Duration":578044,"SoundDuration":578044,"Delta":83822221},{"NoteNumber":48,"Velocity":53,"Duration":578044,"SoundDuration":578044,"Delta":83822221},{"NoteNumber":43,"Velocity":53,"Duration":578044,"SoundDuration":578044,"Delta":83822221},{"NoteNumber":84,"Velocity":90,"Duration":182648,"SoundDuration":182648,"Delta":84400265},{"NoteNumber":72,"Velocity":76,"Duration":182648,"SoundDuration":182648,"Delta":84400265},{"NoteNumber":36,"Velocity":56,"Duration":182648,"SoundDuration":182648,"Delta":84400265},{"NoteNumber":41,"Velocity":56,"Duration":182648,"SoundDuration":182648,"Delta":84400265},{"NoteNumber":45,"Velocity":66,"Duration":182648,"SoundDuration":182648,"Delta":84400265},{"NoteNumber":77,"Velocity":67,"Duration":91324,"SoundDuration":91324,"Delta":84582913},{"NoteNumber":81,"Velocity":79,"Duration":91324,"SoundDuration":91324,"Delta":84582913},{"NoteNumber":48,"Velocity":52,"Duration":91324,"SoundDuration":91324,"Delta":84582913},{"NoteNumber":72,"Velocity":67,"Duration":147058,"SoundDuration":147058,"Delta":84765562},{"NoteNumber":84,"Velocity":79,"Duration":147058,"SoundDuration":147058,"Delta":84765562},{"NoteNumber":55,"Velocity":56,"Duration":751634,"SoundDuration":751634,"Delta":84765562},{"NoteNumber":48,"Velocity":47,"Duration":751634,"SoundDuration":751634,"Delta":84765562},{"NoteNumber":52,"Velocity":47,"Duration":751634,"SoundDuration":751634,"Delta":84765562},{"NoteNumber":76,"Velocity":68,"Duration":555555,"SoundDuration":555555,"Delta":84961640},{"NoteNumber":79,"Velocity":80,"Duration":555555,"SoundDuration":555555,"Delta":84961640},{"NoteNumber":60,"Velocity":64,"Duration":555555,"SoundDuration":555555,"Delta":84961640},{"NoteNumber":69,"Velocity":74,"Duration":182648,"SoundDuration":182648,"Delta":85517196},{"NoteNumber":81,"Velocity":88,"Duration":182648,"SoundDuration":182648,"Delta":85517196},{"NoteNumber":38,"Velocity":56,"Duration":182648,"SoundDuration":182648,"Delta":85517196},{"NoteNumber":41,"Velocity":56,"Duration":182648,"SoundDuration":182648,"Delta":85517196},{"NoteNumber":45,"Velocity":66,"Duration":182648,"SoundDuration":182648,"Delta":85517196},{"NoteNumber":74,"Velocity":67,"Duration":91324,"SoundDuration":91324,"Delta":85699844},{"NoteNumber":77,"Velocity":79,"Duration":91324,"SoundDuration":91324,"Delta":85699844},{"NoteNumber":50,"Velocity":62,"Duration":91324,"SoundDuration":91324,"Delta":85699844},{"NoteNumber":69,"Velocity":67,"Duration":97560,"SoundDuration":97560,"Delta":85882493},{"NoteNumber":81,"Velocity":79,"Duration":97560,"SoundDuration":97560,"Delta":85882493},{"NoteNumber":45,"Velocity":47,"Duration":750678,"SoundDuration":750678,"Delta":85882493},{"NoteNumber":48,"Velocity":47,"Duration":750678,"SoundDuration":750678,"Delta":85882493},{"NoteNumber":52,"Velocity":56,"Duration":750678,"SoundDuration":750678,"Delta":85882493},{"NoteNumber":72,"Velocity":68,"Duration":555555,"SoundDuration":555555,"Delta":86077615},{"NoteNumber":76,"Velocity":80,"Duration":555555,"SoundDuration":555555,"Delta":86077615},{"NoteNumber":57,"Velocity":63,"Duration":555555,"SoundDuration":555555,"Delta":86077615},{"NoteNumber":79,"Velocity":86,"Duration":181818,"SoundDuration":181818,"Delta":86633171},{"NoteNumber":67,"Velocity":73,"Duration":181818,"SoundDuration":181818,"Delta":86633171},{"NoteNumber":31,"Velocity":67,"Duration":181818,"SoundDuration":181818,"Delta":86633171},{"NoteNumber":72,"Velocity":58,"Duration":181818,"SoundDuration":181818,"Delta":86814989},{"NoteNumber":76,"Velocity":69,"Duration":181818,"SoundDuration":181818,"Delta":86814989},{"NoteNumber":43,"Velocity":52,"Duration":181818,"SoundDuration":181818,"Delta":86814989},{"NoteNumber":67,"Velocity":72,"Duration":185821,"SoundDuration":185821,"Delta":86996807},{"NoteNumber":79,"Velocity":85,"Duration":185821,"SoundDuration":185821,"Delta":86996807},{"NoteNumber":52,"Velocity":64,"Duration":185821,"SoundDuration":185821,"Delta":86996807},{"NoteNumber":48,"Velocity":54,"Duration":185821,"SoundDuration":185821,"Delta":86996807},{"NoteNumber":77,"Velocity":66,"Duration":181818,"SoundDuration":181818,"Delta":87182629},{"NoteNumber":74,"Velocity":56,"Duration":181818,"SoundDuration":181818,"Delta":87182629},{"NoteNumber":43,"Velocity":42,"Duration":181818,"SoundDuration":181818,"Delta":87182629},{"NoteNumber":55,"Velocity":50,"Duration":181818,"SoundDuration":181818,"Delta":87182629},{"NoteNumber":79,"Velocity":79,"Duration":173160,"SoundDuration":173160,"Delta":87364447},{"NoteNumber":67,"Velocity":67,"Duration":173160,"SoundDuration":173160,"Delta":87364447},{"NoteNumber":50,"Velocity":52,"Duration":173160,"SoundDuration":173160,"Delta":87364447},{"NoteNumber":53,"Velocity":62,"Duration":173160,"SoundDuration":173160,"Delta":87364447},{"NoteNumber":72,"Velocity":51,"Duration":173160,"SoundDuration":173160,"Delta":87537608},{"NoteNumber":76,"Velocity":61,"Duration":173160,"SoundDuration":173160,"Delta":87537608},{"NoteNumber":43,"Velocity":40,"Duration":173160,"SoundDuration":173160,"Delta":87537608},{"NoteNumber":55,"Velocity":48,"Duration":173160,"SoundDuration":173160,"Delta":87537608},{"NoteNumber":67,"Velocity":72,"Duration":176211,"SoundDuration":176211,"Delta":87710768},{"NoteNumber":79,"Velocity":85,"Duration":176211,"SoundDuration":176211,"Delta":87710768},{"NoteNumber":48,"Velocity":57,"Duration":176211,"SoundDuration":176211,"Delta":87710768},{"NoteNumber":52,"Velocity":68,"Duration":176211,"SoundDuration":176211,"Delta":87710768},{"NoteNumber":69,"Velocity":56,"Duration":176211,"SoundDuration":176211,"Delta":87886979},{"NoteNumber":72,"Velocity":67,"Duration":176211,"SoundDuration":176211,"Delta":87886979},{"NoteNumber":43,"Velocity":44,"Duration":176211,"SoundDuration":176211,"Delta":87886979},{"NoteNumber":55,"Velocity":52,"Duration":176211,"SoundDuration":176211,"Delta":87886979},{"NoteNumber":67,"Velocity":67,"Duration":176211,"SoundDuration":176211,"Delta":88063191},{"NoteNumber":79,"Velocity":79,"Duration":176211,"SoundDuration":176211,"Delta":88063191},{"NoteNumber":45,"Velocity":52,"Duration":176211,"SoundDuration":176211,"Delta":88063191},{"NoteNumber":48,"Velocity":62,"Duration":176211,"SoundDuration":176211,"Delta":88063191},{"NoteNumber":67,"Velocity":62,"Duration":583071,"SoundDuration":583071,"Delta":88239402},{"NoteNumber":71,"Velocity":62,"Duration":583071,"SoundDuration":583071,"Delta":88239402},{"NoteNumber":79,"Velocity":74,"Duration":583071,"SoundDuration":583071,"Delta":88239402},{"NoteNumber":74,"Velocity":62,"Duration":583071,"SoundDuration":583071,"Delta":88239402},{"NoteNumber":43,"Velocity":49,"Duration":583071,"SoundDuration":583071,"Delta":88239402},{"NoteNumber":47,"Velocity":49,"Duration":583071,"SoundDuration":583071,"Delta":88239402},{"NoteNumber":50,"Velocity":58,"Duration":583071,"SoundDuration":583071,"Delta":88239402},{"NoteNumber":55,"Velocity":58,"Duration":583071,"SoundDuration":583071,"Delta":88239402},{"NoteNumber":72,"Velocity":75,"Duration":182648,"SoundDuration":182648,"Delta":88822473},{"NoteNumber":84,"Velocity":89,"Duration":182648,"SoundDuration":182648,"Delta":88822473},{"NoteNumber":36,"Velocity":62,"Duration":182648,"SoundDuration":182648,"Delta":88822473},{"NoteNumber":79,"Velocity":59,"Duration":182648,"SoundDuration":182648,"Delta":89005121},{"NoteNumber":83,"Velocity":70,"Duration":182648,"SoundDuration":182648,"Delta":89005121},{"NoteNumber":48,"Velocity":58,"Duration":182648,"SoundDuration":182648,"Delta":89005121},{"NoteNumber":72,"Velocity":67,"Duration":174672,"SoundDuration":174672,"Delta":89187770},{"NoteNumber":84,"Velocity":79,"Duration":174672,"SoundDuration":174672,"Delta":89187770},{"NoteNumber":57,"Velocity":57,"Duration":524017,"SoundDuration":524017,"Delta":89187770},{"NoteNumber":53,"Velocity":48,"Duration":524017,"SoundDuration":524017,"Delta":89187770},{"NoteNumber":77,"Velocity":52,"Duration":174672,"SoundDuration":174672,"Delta":89362442},{"NoteNumber":81,"Velocity":62,"Duration":174672,"SoundDuration":174672,"Delta":89362442},{"NoteNumber":48,"Velocity":44,"Duration":524017,"SoundDuration":524017,"Delta":89362442},{"NoteNumber":60,"Velocity":52,"Duration":524017,"SoundDuration":524017,"Delta":89362442},{"NoteNumber":84,"Velocity":78,"Duration":174672,"SoundDuration":174672,"Delta":89537114},{"NoteNumber":72,"Velocity":66,"Duration":174672,"SoundDuration":174672,"Delta":89537114},{"NoteNumber":76,"Velocity":52,"Duration":174672,"SoundDuration":174672,"Delta":89711787},{"NoteNumber":79,"Velocity":62,"Duration":174672,"SoundDuration":174672,"Delta":89711787},{"NoteNumber":52,"Velocity":51,"Duration":174672,"SoundDuration":174672,"Delta":89711787},{"NoteNumber":55,"Velocity":51,"Duration":174672,"SoundDuration":174672,"Delta":89711787},{"NoteNumber":69,"Velocity":72,"Duration":178571,"SoundDuration":178571,"Delta":89886459},{"NoteNumber":81,"Velocity":85,"Duration":178571,"SoundDuration":178571,"Delta":89886459},{"NoteNumber":33,"Velocity":58,"Duration":178571,"SoundDuration":178571,"Delta":89886459},{"NoteNumber":79,"Velocity":70,"Duration":178571,"SoundDuration":178571,"Delta":90065030},{"NoteNumber":76,"Velocity":59,"Duration":178571,"SoundDuration":178571,"Delta":90065030},{"NoteNumber":45,"Velocity":58,"Duration":178571,"SoundDuration":178571,"Delta":90065030},{"NoteNumber":81,"Velocity":79,"Duration":183469,"SoundDuration":183469,"Delta":90243602},{"NoteNumber":69,"Velocity":67,"Duration":183469,"SoundDuration":183469,"Delta":90243602},{"NoteNumber":53,"Velocity":58,"Duration":534346,"SoundDuration":534346,"Delta":90243602},{"NoteNumber":50,"Velocity":49,"Duration":534346,"SoundDuration":534346,"Delta":90243602},{"NoteNumber":74,"Velocity":53,"Duration":175438,"SoundDuration":175438,"Delta":90427071},{"NoteNumber":77,"Velocity":63,"Duration":175438,"SoundDuration":175438,"Delta":90427071},{"NoteNumber":45,"Velocity":44,"Duration":527099,"SoundDuration":527099,"Delta":90427071},{"NoteNumber":57,"Velocity":52,"Duration":527099,"SoundDuration":527099,"Delta":90427071},{"NoteNumber":69,"Velocity":68,"Duration":175438,"SoundDuration":175438,"Delta":90602510},{"NoteNumber":81,"Velocity":80,"Duration":175438,"SoundDuration":175438,"Delta":90602510},{"NoteNumber":76,"Velocity":61,"Duration":176221,"SoundDuration":176221,"Delta":90777948},{"NoteNumber":72,"Velocity":51,"Duration":176221,"SoundDuration":176221,"Delta":90777948},{"NoteNumber":48,"Velocity":49,"Duration":176221,"SoundDuration":176221,"Delta":90777948},{"NoteNumber":52,"Velocity":49,"Duration":176221,"SoundDuration":176221,"Delta":90777948},{"NoteNumber":67,"Velocity":74,"Duration":179779,"SoundDuration":179779,"Delta":90954170},{"NoteNumber":79,"Velocity":88,"Duration":179779,"SoundDuration":179779,"Delta":90954170},{"NoteNumber":31,"Velocity":58,"Duration":179779,"SoundDuration":179779,"Delta":90954170},{"NoteNumber":74,"Velocity":59,"Duration":182237,"SoundDuration":182237,"Delta":91133950},{"NoteNumber":77,"Velocity":70,"Duration":182237,"SoundDuration":182237,"Delta":91133950},{"NoteNumber":43,"Velocity":52,"Duration":182237,"SoundDuration":182237,"Delta":91133950},{"NoteNumber":79,"Velocity":85,"Duration":184973,"SoundDuration":184973,"Delta":91316187},{"NoteNumber":67,"Velocity":72,"Duration":184973,"SoundDuration":184973,"Delta":91316187},{"NoteNumber":52,"Velocity":59,"Duration":184973,"SoundDuration":184973,"Delta":91316187},{"NoteNumber":48,"Velocity":50,"Duration":184973,"SoundDuration":184973,"Delta":91316187},{"NoteNumber":72,"Velocity":56,"Duration":187795,"SoundDuration":187795,"Delta":91501161},{"NoteNumber":76,"Velocity":66,"Duration":187795,"SoundDuration":187795,"Delta":91501161},{"NoteNumber":43,"Velocity":52,"Duration":187795,"SoundDuration":187795,"Delta":91501161},{"NoteNumber":55,"Velocity":52,"Duration":187795,"SoundDuration":187795,"Delta":91501161},{"NoteNumber":67,"Velocity":70,"Duration":190968,"SoundDuration":190968,"Delta":91688956},{"NoteNumber":79,"Velocity":83,"Duration":190968,"SoundDuration":190968,"Delta":91688956},{"NoteNumber":45,"Velocity":59,"Duration":190968,"SoundDuration":190968,"Delta":91688956},{"NoteNumber":48,"Velocity":59,"Duration":190968,"SoundDuration":190968,"Delta":91688956},{"NoteNumber":69,"Velocity":56,"Duration":205212,"SoundDuration":205212,"Delta":91879925},{"NoteNumber":72,"Velocity":66,"Duration":205212,"SoundDuration":205212,"Delta":91879925},{"NoteNumber":43,"Velocity":51,"Duration":205212,"SoundDuration":205212,"Delta":91879925},{"NoteNumber":55,"Velocity":51,"Duration":205212,"SoundDuration":205212,"Delta":91879925},{"NoteNumber":79,"Velocity":82,"Duration":593177,"SoundDuration":593177,"Delta":92085137},{"NoteNumber":67,"Velocity":69,"Duration":593177,"SoundDuration":593177,"Delta":92085137},{"NoteNumber":71,"Velocity":69,"Duration":593177,"SoundDuration":593177,"Delta":92085137},{"NoteNumber":74,"Velocity":69,"Duration":593177,"SoundDuration":593177,"Delta":92085137},{"NoteNumber":31,"Velocity":37,"Duration":593177,"SoundDuration":593177,"Delta":92085137},{"NoteNumber":35,"Velocity":37,"Duration":593177,"SoundDuration":593177,"Delta":92085137},{"NoteNumber":38,"Velocity":44,"Duration":593177,"SoundDuration":593177,"Delta":92085137},{"NoteNumber":43,"Velocity":44,"Duration":593177,"SoundDuration":593177,"Delta":92085137},{"NoteNumber":60,"Velocity":73,"Duration":321784,"SoundDuration":321784,"Delta":92678315},{"NoteNumber":72,"Velocity":84,"Duration":321784,"SoundDuration":321784,"Delta":92678315},{"NoteNumber":36,"Velocity":50,"Duration":241997,"SoundDuration":241997,"Delta":92678315},{"NoteNumber":48,"Velocity":59,"Duration":241997,"SoundDuration":241997,"Delta":92678315},{"NoteNumber":34,"Velocity":50,"Duration":267857,"SoundDuration":267857,"Delta":93000100},{"NoteNumber":46,"Velocity":59,"Duration":267857,"SoundDuration":267857,"Delta":93000100},{"NoteNumber":48,"Velocity":70,"Duration":1256544,"SoundDuration":1256544,"Delta":93357243},{"NoteNumber":60,"Velocity":79,"Duration":2513087,"SoundDuration":2513087,"Delta":93357243},{"NoteNumber":32,"Velocity":53,"Duration":2513087,"SoundDuration":2513087,"Delta":93357243},{"NoteNumber":36,"Velocity":53,"Duration":2513087,"SoundDuration":2513087,"Delta":93357243},{"NoteNumber":44,"Velocity":60,"Duration":2513087,"SoundDuration":2513087,"Delta":93357243},{"NoteNumber":62,"Velocity":61,"Duration":1256543,"SoundDuration":1256543,"Delta":94613787},{"NoteNumber":50,"Velocity":55,"Duration":1256543,"SoundDuration":1256543,"Delta":94613787},{"NoteNumber":72,"Velocity":48,"Duration":2513087,"SoundDuration":2513087,"Delta":95870331},{"NoteNumber":63,"Velocity":42,"Duration":2513087,"SoundDuration":2513087,"Delta":95870331},{"NoteNumber":75,"Velocity":48,"Duration":2513087,"SoundDuration":2513087,"Delta":95870331},{"NoteNumber":51,"Velocity":34,"Duration":2513087,"SoundDuration":2513087,"Delta":95870331},{"NoteNumber":56,"Velocity":38,"Duration":2513087,"SoundDuration":2513087,"Delta":95870331},{"NoteNumber":60,"Velocity":38,"Duration":2499999,"SoundDuration":2499999,"Delta":95870331},{"NoteNumber":48,"Velocity":41,"Duration":579710,"SoundDuration":579710,"Delta":98383419},{"NoteNumber":60,"Velocity":47,"Duration":1159419,"SoundDuration":1159419,"Delta":98383419},{"NoteNumber":32,"Velocity":29,"Duration":1159419,"SoundDuration":1159419,"Delta":98383419},{"NoteNumber":36,"Velocity":29,"Duration":1159419,"SoundDuration":1159419,"Delta":98383419},{"NoteNumber":44,"Velocity":33,"Duration":1159419,"SoundDuration":1159419,"Delta":98383419},{"NoteNumber":62,"Velocity":49,"Duration":579709,"SoundDuration":579709,"Delta":98963129},{"NoteNumber":50,"Velocity":44,"Duration":579709,"SoundDuration":579709,"Delta":98963129},{"NoteNumber":77,"Velocity":52,"Duration":579710,"SoundDuration":579710,"Delta":99542839},{"NoteNumber":65,"Velocity":47,"Duration":579710,"SoundDuration":579710,"Delta":99542839},{"NoteNumber":72,"Velocity":52,"Duration":1224871,"SoundDuration":1224871,"Delta":99542839},{"NoteNumber":48,"Velocity":37,"Duration":1224871,"SoundDuration":1224871,"Delta":99542839},{"NoteNumber":44,"Velocity":37,"Duration":1224871,"SoundDuration":1224871,"Delta":99542839},{"NoteNumber":53,"Velocity":37,"Duration":579710,"SoundDuration":579710,"Delta":99542839},{"NoteNumber":64,"Velocity":45,"Duration":645161,"SoundDuration":645161,"Delta":100122549},{"NoteNumber":76,"Velocity":50,"Duration":645161,"SoundDuration":645161,"Delta":100122549},{"NoteNumber":52,"Velocity":35,"Duration":645161,"SoundDuration":645161,"Delta":100122549},{"NoteNumber":75,"Velocity":37,"Duration":2564984,"SoundDuration":2564984,"Delta":100767710},{"NoteNumber":87,"Velocity":41,"Duration":2564984,"SoundDuration":2564984,"Delta":100767710},{"NoteNumber":84,"Velocity":41,"Duration":2564984,"SoundDuration":2564984,"Delta":100767710},{"NoteNumber":63,"Velocity":28,"Duration":2564984,"SoundDuration":2564984,"Delta":100767710},{"NoteNumber":60,"Velocity":28,"Duration":2564984,"SoundDuration":2564984,"Delta":100767710},{"NoteNumber":56,"Velocity":25,"Duration":2564984,"SoundDuration":2564984,"Delta":100767710},{"NoteNumber":51,"Velocity":25,"Duration":2564984,"SoundDuration":2564984,"Delta":100767710},{"NoteNumber":60,"Velocity":27,"Duration":436892,"SoundDuration":436892,"Delta":103187064},{"NoteNumber":32,"Velocity":22,"Duration":291261,"SoundDuration":291261,"Delta":103187064},{"NoteNumber":63,"Velocity":27,"Duration":388349,"SoundDuration":388349,"Delta":103235607},{"NoteNumber":68,"Velocity":27,"Duration":339805,"SoundDuration":339805,"Delta":103284151},{"NoteNumber":72,"Velocity":39,"Duration":291262,"SoundDuration":291262,"Delta":103332695},{"NoteNumber":44,"Velocity":27,"Duration":145630,"SoundDuration":145630,"Delta":103332695},{"NoteNumber":73,"Velocity":39,"Duration":145630,"SoundDuration":145630,"Delta":103623957},{"NoteNumber":48,"Velocity":22,"Duration":145630,"SoundDuration":145630,"Delta":103623957},{"NoteNumber":60,"Velocity":26,"Duration":436892,"SoundDuration":436892,"Delta":103769588},{"NoteNumber":63,"Velocity":26,"Duration":398058,"SoundDuration":398058,"Delta":103808423},{"NoteNumber":44,"Velocity":17,"Duration":218446,"SoundDuration":218446,"Delta":103842403},{"NoteNumber":68,"Velocity":26,"Duration":359223,"SoundDuration":359223,"Delta":103847257},{"NoteNumber":72,"Velocity":39,"Duration":320388,"SoundDuration":320388,"Delta":103886092},{"NoteNumber":56,"Velocity":26,"Duration":145630,"SoundDuration":145630,"Delta":103915219},{"NoteNumber":74,"Velocity":39,"Duration":281553,"SoundDuration":281553,"Delta":103924927},{"NoteNumber":75,"Velocity":41,"Duration":145631,"SoundDuration":145631,"Delta":104206481},{"NoteNumber":60,"Velocity":22,"Duration":145631,"SoundDuration":145631,"Delta":104206481},{"NoteNumber":68,"Velocity":28,"Duration":283018,"SoundDuration":283018,"Delta":104352112},{"NoteNumber":80,"Velocity":29,"Duration":353773,"SoundDuration":353773,"Delta":104422866},{"NoteNumber":56,"Velocity":17,"Duration":212264,"SoundDuration":212264,"Delta":104422866},{"NoteNumber":84,"Velocity":44,"Duration":141509,"SoundDuration":141509,"Delta":104493621},{"NoteNumber":68,"Velocity":27,"Duration":141509,"SoundDuration":141509,"Delta":104493621},{"NoteNumber":79,"Velocity":42,"Duration":141509,"SoundDuration":141509,"Delta":104776640},{"NoteNumber":60,"Velocity":23,"Duration":141509,"SoundDuration":141509,"Delta":104776640},{"NoteNumber":68,"Velocity":28,"Duration":283019,"SoundDuration":283019,"Delta":104918150},{"NoteNumber":80,"Velocity":28,"Duration":235849,"SoundDuration":235849,"Delta":104965319},{"NoteNumber":44,"Velocity":17,"Duration":212264,"SoundDuration":212264,"Delta":104988904},{"NoteNumber":77,"Velocity":27,"Duration":330188,"SoundDuration":330188,"Delta":105012489},{"NoteNumber":84,"Velocity":40,"Duration":141509,"SoundDuration":141509,"Delta":105059659},{"NoteNumber":56,"Velocity":27,"Duration":141509,"SoundDuration":141509,"Delta":105059659},{"NoteNumber":76,"Velocity":39,"Duration":141509,"SoundDuration":141509,"Delta":105342678},{"NoteNumber":48,"Velocity":24,"Duration":141509,"SoundDuration":141509,"Delta":105342678},{"NoteNumber":68,"Velocity":26,"Duration":283018,"SoundDuration":283018,"Delta":105484188},{"NoteNumber":80,"Velocity":26,"Duration":212264,"SoundDuration":212264,"Delta":105554942},{"NoteNumber":32,"Velocity":16,"Duration":212264,"SoundDuration":212264,"Delta":105554942},{"NoteNumber":84,"Velocity":26,"Duration":141509,"SoundDuration":141509,"Delta":105625697},{"NoteNumber":75,"Velocity":39,"Duration":1134674,"SoundDuration":1134674,"Delta":105625697},{"NoteNumber":44,"Velocity":27,"Duration":141509,"SoundDuration":141509,"Delta":105625697},{"NoteNumber":48,"Velocity":22,"Duration":141509,"SoundDuration":141509,"Delta":105908716},{"NoteNumber":68,"Velocity":24,"Duration":283018,"SoundDuration":283018,"Delta":106050226},{"NoteNumber":80,"Velocity":25,"Duration":212264,"SoundDuration":212264,"Delta":106120980},{"NoteNumber":44,"Velocity":17,"Duration":212264,"SoundDuration":212264,"Delta":106120980},{"NoteNumber":84,"Velocity":40,"Duration":141509,"SoundDuration":141509,"Delta":106191735},{"NoteNumber":56,"Velocity":26,"Duration":141509,"SoundDuration":141509,"Delta":106191735},{"NoteNumber":60,"Velocity":22,"Duration":149253,"SoundDuration":149253,"Delta":106474754},{"NoteNumber":82,"Velocity":26,"Duration":409091,"SoundDuration":409091,"Delta":106624008},{"NoteNumber":79,"Velocity":26,"Duration":340909,"SoundDuration":340909,"Delta":106692190},{"NoteNumber":56,"Velocity":16,"Duration":204545,"SoundDuration":204545,"Delta":106692190},{"NoteNumber":73,"Velocity":41,"Duration":272727,"SoundDuration":272727,"Delta":106760372},{"NoteNumber":63,"Velocity":27,"Duration":136363,"SoundDuration":136363,"Delta":106760372},{"NoteNumber":72,"Velocity":40,"Duration":136363,"SoundDuration":136363,"Delta":107033099},{"NoteNumber":67,"Velocity":24,"Duration":136363,"SoundDuration":136363,"Delta":107033099},{"NoteNumber":79,"Velocity":26,"Duration":409091,"SoundDuration":409091,"Delta":107169463},{"NoteNumber":75,"Velocity":26,"Duration":340909,"SoundDuration":340909,"Delta":107237645},{"NoteNumber":56,"Velocity":15,"Duration":204545,"SoundDuration":204545,"Delta":107237645},{"NoteNumber":70,"Velocity":39,"Duration":272727,"SoundDuration":272727,"Delta":107305827},{"NoteNumber":61,"Velocity":27,"Duration":136363,"SoundDuration":136363,"Delta":107305827},{"NoteNumber":72,"Velocity":40,"Duration":136363,"SoundDuration":136363,"Delta":107578554},{"NoteNumber":63,"Velocity":24,"Duration":136363,"SoundDuration":136363,"Delta":107578554},{"NoteNumber":80,"Velocity":25,"Duration":409091,"SoundDuration":409091,"Delta":107714918},{"NoteNumber":77,"Velocity":25,"Duration":340909,"SoundDuration":340909,"Delta":107783100},{"NoteNumber":56,"Velocity":15,"Duration":204545,"SoundDuration":204545,"Delta":107783100},{"NoteNumber":73,"Velocity":42,"Duration":272727,"SoundDuration":272727,"Delta":107851282},{"NoteNumber":65,"Velocity":26,"Duration":136363,"SoundDuration":136363,"Delta":107851282},{"NoteNumber":72,"Velocity":42,"Duration":136363,"SoundDuration":136363,"Delta":108124009},{"NoteNumber":68,"Velocity":24,"Duration":136363,"SoundDuration":136363,"Delta":108124009},{"NoteNumber":77,"Velocity":26,"Duration":409091,"SoundDuration":409091,"Delta":108260373},{"NoteNumber":73,"Velocity":26,"Duration":340909,"SoundDuration":340909,"Delta":108328555},{"NoteNumber":56,"Velocity":16,"Duration":204545,"SoundDuration":204545,"Delta":108328555},{"NoteNumber":70,"Velocity":41,"Duration":272727,"SoundDuration":272727,"Delta":108396737},{"NoteNumber":61,"Velocity":27,"Duration":136363,"SoundDuration":136363,"Delta":108396737},{"NoteNumber":68,"Velocity":40,"Duration":136363,"SoundDuration":136363,"Delta":108669464},{"NoteNumber":65,"Velocity":24,"Duration":136363,"SoundDuration":136363,"Delta":108669464},{"NoteNumber":75,"Velocity":25,"Duration":409091,"SoundDuration":409091,"Delta":108805828},{"NoteNumber":70,"Velocity":25,"Duration":340909,"SoundDuration":340909,"Delta":108874010},{"NoteNumber":44,"Velocity":16,"Duration":204545,"SoundDuration":204545,"Delta":108874010},{"NoteNumber":67,"Velocity":42,"Duration":272727,"SoundDuration":272727,"Delta":108942192},{"NoteNumber":49,"Velocity":26,"Duration":136363,"SoundDuration":136363,"Delta":108942192},{"NoteNumber":65,"Velocity":41,"Duration":136363,"SoundDuration":136363,"Delta":109214919},{"NoteNumber":51,"Velocity":24,"Duration":136363,"SoundDuration":136363,"Delta":109214919},{"NoteNumber":73,"Velocity":24,"Duration":409091,"SoundDuration":409091,"Delta":109351283},{"NoteNumber":44,"Velocity":17,"Duration":272727,"SoundDuration":272727,"Delta":109351283},{"NoteNumber":70,"Velocity":24,"Duration":340909,"SoundDuration":340909,"Delta":109419465},{"NoteNumber":51,"Velocity":17,"Duration":204545,"SoundDuration":204545,"Delta":109419465},{"NoteNumber":63,"Velocity":40,"Duration":272727,"SoundDuration":272727,"Delta":109487647},{"NoteNumber":55,"Velocity":26,"Duration":136363,"SoundDuration":136363,"Delta":109487647},{"NoteNumber":65,"Velocity":41,"Duration":136363,"SoundDuration":136363,"Delta":109760374},{"NoteNumber":56,"Velocity":24,"Duration":136363,"SoundDuration":136363,"Delta":109760374},{"NoteNumber":75,"Velocity":28,"Duration":414746,"SoundDuration":414746,"Delta":109896738},{"NoteNumber":44,"Velocity":17,"Duration":276497,"SoundDuration":276497,"Delta":109896738},{"NoteNumber":73,"Velocity":28,"Duration":345621,"SoundDuration":345621,"Delta":109965862},{"NoteNumber":51,"Velocity":17,"Duration":207373,"SoundDuration":207373,"Delta":109965862},{"NoteNumber":67,"Velocity":44,"Duration":276497,"SoundDuration":276497,"Delta":110034987},{"NoteNumber":58,"Velocity":24,"Duration":138248,"SoundDuration":138248,"Delta":110034987},{"NoteNumber":70,"Velocity":40,"Duration":138248,"SoundDuration":138248,"Delta":110311484},{"NoteNumber":61,"Velocity":24,"Duration":138248,"SoundDuration":138248,"Delta":110311484},{"NoteNumber":75,"Velocity":26,"Duration":414746,"SoundDuration":414746,"Delta":110449733},{"NoteNumber":44,"Velocity":17,"Duration":276497,"SoundDuration":276497,"Delta":110449733},{"NoteNumber":73,"Velocity":26,"Duration":345621,"SoundDuration":345621,"Delta":110518857},{"NoteNumber":51,"Velocity":17,"Duration":207373,"SoundDuration":207373,"Delta":110518857},{"NoteNumber":65,"Velocity":42,"Duration":276497,"SoundDuration":276497,"Delta":110587982},{"NoteNumber":56,"Velocity":24,"Duration":138248,"SoundDuration":138248,"Delta":110587982},{"NoteNumber":68,"Velocity":38,"Duration":138248,"SoundDuration":138248,"Delta":110864479},{"NoteNumber":60,"Velocity":24,"Duration":138248,"SoundDuration":138248,"Delta":110864479},{"NoteNumber":75,"Velocity":26,"Duration":428108,"SoundDuration":428108,"Delta":111002728},{"NoteNumber":44,"Velocity":17,"Duration":282711,"SoundDuration":282711,"Delta":111002728},{"NoteNumber":72,"Velocity":26,"Duration":358983,"SoundDuration":358983,"Delta":111071852},{"NoteNumber":51,"Velocity":17,"Duration":213587,"SoundDuration":213587,"Delta":111071852},{"NoteNumber":63,"Velocity":40,"Duration":289859,"SoundDuration":289859,"Delta":111140977},{"NoteNumber":55,"Velocity":22,"Duration":144463,"SoundDuration":144463,"Delta":111140977},{"NoteNumber":67,"Velocity":35,"Duration":146700,"SoundDuration":146700,"Delta":111430836},{"NoteNumber":58,"Velocity":24,"Duration":146700,"SoundDuration":146700,"Delta":111430836},{"NoteNumber":75,"Velocity":25,"Duration":453906,"SoundDuration":453906,"Delta":111577536},{"NoteNumber":44,"Velocity":16,"Duration":300845,"SoundDuration":300845,"Delta":111577536},{"NoteNumber":70,"Velocity":25,"Duration":380136,"SoundDuration":380136,"Delta":111651307},{"NoteNumber":51,"Velocity":16,"Duration":227074,"SoundDuration":227074,"Delta":111651307},{"NoteNumber":61,"Velocity":39,"Duration":306122,"SoundDuration":306122,"Delta":111725321},{"NoteNumber":56,"Velocity":22,"Duration":153061,"SoundDuration":153061,"Delta":111725321},{"NoteNumber":65,"Velocity":33,"Duration":153061,"SoundDuration":153061,"Delta":112031443},{"NoteNumber":55,"Velocity":19,"Duration":153061,"SoundDuration":153061,"Delta":112031443},{"NoteNumber":44,"Velocity":22,"Duration":214995,"SoundDuration":214995,"Delta":112257320},{"NoteNumber":60,"Velocity":39,"Duration":284360,"SoundDuration":284360,"Delta":112330135},{"NoteNumber":56,"Velocity":27,"Duration":142179,"SoundDuration":142179,"Delta":112330135},{"NoteNumber":68,"Velocity":30,"Duration":142179,"SoundDuration":142179,"Delta":112401225},{"NoteNumber":72,"Velocity":30,"Duration":142180,"SoundDuration":142180,"Delta":112472315},{"NoteNumber":61,"Velocity":39,"Duration":284359,"SoundDuration":284359,"Delta":112614495},{"NoteNumber":48,"Velocity":22,"Duration":142179,"SoundDuration":142179,"Delta":112614495},{"NoteNumber":32,"Velocity":17,"Duration":213269,"SoundDuration":213269,"Delta":112827765},{"NoteNumber":62,"Velocity":39,"Duration":284360,"SoundDuration":284360,"Delta":112898855},{"NoteNumber":44,"Velocity":26,"Duration":142179,"SoundDuration":142179,"Delta":112898855},{"NoteNumber":68,"Velocity":30,"Duration":142179,"SoundDuration":142179,"Delta":112969945},{"NoteNumber":72,"Velocity":30,"Duration":142180,"SoundDuration":142180,"Delta":113041035},{"NoteNumber":63,"Velocity":41,"Duration":283689,"SoundDuration":283689,"Delta":113183215},{"NoteNumber":48,"Velocity":22,"Duration":142179,"SoundDuration":142179,"Delta":113183215},{"NoteNumber":60,"Velocity":31,"Duration":141509,"SoundDuration":141509,"Delta":113396150},{"NoteNumber":44,"Velocity":17,"Duration":212264,"SoundDuration":212264,"Delta":113396150},{"NoteNumber":72,"Velocity":44,"Duration":283018,"SoundDuration":283018,"Delta":113466905},{"NoteNumber":56,"Velocity":27,"Duration":141509,"SoundDuration":141509,"Delta":113466905},{"NoteNumber":75,"Velocity":33,"Duration":141509,"SoundDuration":141509,"Delta":113537660},{"NoteNumber":68,"Velocity":42,"Duration":283019,"SoundDuration":283019,"Delta":113749924},{"NoteNumber":48,"Velocity":23,"Duration":141509,"SoundDuration":141509,"Delta":113749924},{"NoteNumber":32,"Velocity":17,"Duration":217096,"SoundDuration":217096,"Delta":113962188},{"NoteNumber":65,"Velocity":40,"Duration":292682,"SoundDuration":292682,"Delta":114032943},{"NoteNumber":44,"Velocity":27,"Duration":146341,"SoundDuration":146341,"Delta":114032943},{"NoteNumber":72,"Velocity":33,"Duration":146341,"SoundDuration":146341,"Delta":114106114},{"NoteNumber":75,"Velocity":33,"Duration":146341,"SoundDuration":146341,"Delta":114179284},{"NoteNumber":66,"Velocity":39,"Duration":219512,"SoundDuration":219512,"Delta":114325626},{"NoteNumber":48,"Velocity":24,"Duration":146341,"SoundDuration":146341,"Delta":114325626},{"NoteNumber":31,"Velocity":16,"Duration":220229,"SoundDuration":220229,"Delta":114545138},{"NoteNumber":67,"Velocity":39,"Duration":1177327,"SoundDuration":1177327,"Delta":114618309},{"NoteNumber":43,"Velocity":27,"Duration":147058,"SoundDuration":147058,"Delta":114618309},{"NoteNumber":72,"Velocity":31,"Duration":147058,"SoundDuration":147058,"Delta":114691838},{"NoteNumber":75,"Velocity":31,"Duration":147058,"SoundDuration":147058,"Delta":114765368},{"NoteNumber":48,"Velocity":22,"Duration":147058,"SoundDuration":147058,"Delta":114912426},{"NoteNumber":43,"Velocity":17,"Duration":220588,"SoundDuration":220588,"Delta":115133015},{"NoteNumber":72,"Velocity":31,"Duration":147058,"SoundDuration":147058,"Delta":115206544},{"NoteNumber":55,"Velocity":26,"Duration":147058,"SoundDuration":147058,"Delta":115206544},{"NoteNumber":75,"Velocity":31,"Duration":147058,"SoundDuration":147058,"Delta":115280073},{"NoteNumber":79,"Velocity":31,"Duration":147058,"SoundDuration":147058,"Delta":115353603},{"NoteNumber":60,"Velocity":22,"Duration":155440,"SoundDuration":155440,"Delta":115500661},{"NoteNumber":83,"Velocity":26,"Duration":418604,"SoundDuration":418604,"Delta":115656102},{"NoteNumber":79,"Velocity":26,"Duration":348837,"SoundDuration":348837,"Delta":115725869},{"NoteNumber":53,"Velocity":16,"Duration":209302,"SoundDuration":209302,"Delta":115725869},{"NoteNumber":75,"Velocity":41,"Duration":279070,"SoundDuration":279070,"Delta":115795637},{"NoteNumber":55,"Velocity":27,"Duration":139535,"SoundDuration":139535,"Delta":115795637},{"NoteNumber":74,"Velocity":40,"Duration":139534,"SoundDuration":139534,"Delta":116074707},{"NoteNumber":59,"Velocity":24,"Duration":139534,"SoundDuration":139534,"Delta":116074707},{"NoteNumber":79,"Velocity":26,"Duration":418604,"SoundDuration":418604,"Delta":116214242},{"NoteNumber":75,"Velocity":26,"Duration":348837,"SoundDuration":348837,"Delta":116284009},{"NoteNumber":51,"Velocity":15,"Duration":209302,"SoundDuration":209302,"Delta":116284009},{"NoteNumber":72,"Velocity":39,"Duration":279069,"SoundDuration":279069,"Delta":116353777},{"NoteNumber":60,"Velocity":27,"Duration":139534,"SoundDuration":139534,"Delta":116353777},{"NoteNumber":67,"Velocity":40,"Duration":139535,"SoundDuration":139535,"Delta":116632847},{"NoteNumber":63,"Velocity":24,"Duration":139535,"SoundDuration":139535,"Delta":116632847},{"NoteNumber":77,"Velocity":25,"Duration":409091,"SoundDuration":409091,"Delta":116772382},{"NoteNumber":74,"Velocity":25,"Duration":340909,"SoundDuration":340909,"Delta":116840564},{"NoteNumber":53,"Velocity":15,"Duration":204545,"SoundDuration":204545,"Delta":116840564},{"NoteNumber":70,"Velocity":42,"Duration":272727,"SoundDuration":272727,"Delta":116908746},{"NoteNumber":62,"Velocity":26,"Duration":136363,"SoundDuration":136363,"Delta":116908746},{"NoteNumber":68,"Velocity":42,"Duration":136363,"SoundDuration":136363,"Delta":117181473},{"NoteNumber":65,"Velocity":24,"Duration":136363,"SoundDuration":136363,"Delta":117181473},{"NoteNumber":74,"Velocity":26,"Duration":409091,"SoundDuration":409091,"Delta":117317837},{"NoteNumber":71,"Velocity":26,"Duration":340909,"SoundDuration":340909,"Delta":117386019},{"NoteNumber":55,"Velocity":16,"Duration":204545,"SoundDuration":204545,"Delta":117386019},{"NoteNumber":67,"Velocity":41,"Duration":272727,"SoundDuration":272727,"Delta":117454201},{"NoteNumber":59,"Velocity":27,"Duration":136363,"SoundDuration":136363,"Delta":117454201},{"NoteNumber":65,"Velocity":40,"Duration":136363,"SoundDuration":136363,"Delta":117726928},{"NoteNumber":62,"Velocity":24,"Duration":136363,"SoundDuration":136363,"Delta":117726928},{"NoteNumber":71,"Velocity":25,"Duration":409091,"SoundDuration":409091,"Delta":117863292},{"NoteNumber":67,"Velocity":25,"Duration":340909,"SoundDuration":340909,"Delta":117931474},{"NoteNumber":43,"Velocity":16,"Duration":204545,"SoundDuration":204545,"Delta":117931474},{"NoteNumber":63,"Velocity":42,"Duration":272727,"SoundDuration":272727,"Delta":117999656},{"NoteNumber":55,"Velocity":26,"Duration":136363,"SoundDuration":136363,"Delta":117999656},{"NoteNumber":62,"Velocity":41,"Duration":136363,"SoundDuration":136363,"Delta":118272383},{"NoteNumber":59,"Velocity":24,"Duration":136363,"SoundDuration":136363,"Delta":118272383},{"NoteNumber":67,"Velocity":24,"Duration":409091,"SoundDuration":409091,"Delta":118408747},{"NoteNumber":63,"Velocity":24,"Duration":340909,"SoundDuration":340909,"Delta":118476929},{"NoteNumber":39,"Velocity":17,"Duration":204545,"SoundDuration":204545,"Delta":118476929},{"NoteNumber":60,"Velocity":40,"Duration":272727,"SoundDuration":272727,"Delta":118545111},{"NoteNumber":48,"Velocity":26,"Duration":136363,"SoundDuration":136363,"Delta":118545111},{"NoteNumber":55,"Velocity":41,"Duration":136363,"SoundDuration":136363,"Delta":118817838},{"NoteNumber":51,"Velocity":24,"Duration":136363,"SoundDuration":136363,"Delta":118817838},{"NoteNumber":67,"Velocity":28,"Duration":414746,"SoundDuration":414746,"Delta":118954202},{"NoteNumber":63,"Velocity":28,"Duration":345621,"SoundDuration":345621,"Delta":119023326},{"NoteNumber":39,"Velocity":17,"Duration":207373,"SoundDuration":207373,"Delta":119023326},{"NoteNumber":60,"Velocity":44,"Duration":276497,"SoundDuration":276497,"Delta":119092451},{"NoteNumber":49,"Velocity":24,"Duration":138248,"SoundDuration":138248,"Delta":119092451},{"NoteNumber":58,"Velocity":40,"Duration":138248,"SoundDuration":138248,"Delta":119368948},{"NoteNumber":51,"Velocity":24,"Duration":138248,"SoundDuration":138248,"Delta":119368948},{"NoteNumber":63,"Velocity":26,"Duration":414746,"SoundDuration":414746,"Delta":119507197},{"NoteNumber":60,"Velocity":26,"Duration":622119,"SoundDuration":622119,"Delta":119576321},{"NoteNumber":44,"Velocity":17,"Duration":207373,"SoundDuration":207373,"Delta":119576321},{"NoteNumber":56,"Velocity":42,"Duration":276497,"SoundDuration":276497,"Delta":119645446},{"NoteNumber":48,"Velocity":24,"Duration":138248,"SoundDuration":138248,"Delta":119645446},{"NoteNumber":51,"Velocity":24,"Duration":138248,"SoundDuration":138248,"Delta":119921943},{"NoteNumber":32,"Velocity":28,"Duration":213587,"SoundDuration":213587,"Delta":120129316},{"NoteNumber":62,"Velocity":39,"Duration":1187791,"SoundDuration":1187791,"Delta":120198441},{"NoteNumber":59,"Velocity":39,"Duration":1187791,"SoundDuration":1187791,"Delta":120198441},{"NoteNumber":55,"Velocity":39,"Duration":584344,"SoundDuration":584344,"Delta":120198441},{"NoteNumber":39,"Velocity":35,"Duration":144463,"SoundDuration":144463,"Delta":120198441},{"NoteNumber":44,"Velocity":30,"Duration":146700,"SoundDuration":146700,"Delta":120488300},{"NoteNumber":53,"Velocity":38,"Duration":603447,"SoundDuration":603447,"Delta":120782785},{"NoteNumber":67,"Velocity":30,"Duration":563379,"SoundDuration":563379,"Delta":121386233},{"NoteNumber":55,"Velocity":30,"Duration":563379,"SoundDuration":563379,"Delta":121386233},{"NoteNumber":63,"Velocity":30,"Duration":563379,"SoundDuration":563379,"Delta":121386233},{"NoteNumber":51,"Velocity":38,"Duration":140844,"SoundDuration":140844,"Delta":121386233},{"NoteNumber":39,"Velocity":33,"Duration":140844,"SoundDuration":140844,"Delta":121667923},{"NoteNumber":57,"Velocity":36,"Duration":571545,"SoundDuration":571545,"Delta":121949613},{"NoteNumber":66,"Velocity":36,"Duration":571545,"SoundDuration":571545,"Delta":121949613},{"NoteNumber":69,"Velocity":36,"Duration":571545,"SoundDuration":571545,"Delta":121949613},{"NoteNumber":27,"Velocity":40,"Duration":140844,"SoundDuration":140844,"Delta":121949613},{"NoteNumber":39,"Velocity":33,"Duration":144927,"SoundDuration":144927,"Delta":122231303},{"NoteNumber":58,"Velocity":39,"Duration":1126760,"SoundDuration":1126760,"Delta":122521158},{"NoteNumber":70,"Velocity":39,"Duration":1126760,"SoundDuration":1126760,"Delta":122521158},{"NoteNumber":67,"Velocity":39,"Duration":1126760,"SoundDuration":1126760,"Delta":122521158},{"NoteNumber":61,"Velocity":27,"Duration":1126760,"SoundDuration":1126760,"Delta":122521158},{"NoteNumber":51,"Velocity":27,"Duration":1126760,"SoundDuration":1126760,"Delta":122521158},{"NoteNumber":79,"Velocity":30,"Duration":591132,"SoundDuration":591132,"Delta":123647918},{"NoteNumber":75,"Velocity":30,"Duration":591132,"SoundDuration":591132,"Delta":123647918},{"NoteNumber":67,"Velocity":30,"Duration":591132,"SoundDuration":591132,"Delta":123647918},{"NoteNumber":49,"Velocity":36,"Duration":147783,"SoundDuration":147783,"Delta":123647918},{"NoteNumber":37,"Velocity":30,"Duration":147783,"SoundDuration":147783,"Delta":123943484},{"NoteNumber":69,"Velocity":34,"Duration":648667,"SoundDuration":648667,"Delta":124239051},{"NoteNumber":78,"Velocity":34,"Duration":648667,"SoundDuration":648667,"Delta":124239051},{"NoteNumber":81,"Velocity":34,"Duration":648667,"SoundDuration":648667,"Delta":124239051},{"NoteNumber":25,"Velocity":36,"Duration":161290,"SoundDuration":161290,"Delta":124239051},{"NoteNumber":37,"Velocity":29,"Duration":163043,"SoundDuration":163043,"Delta":124561631},{"NoteNumber":82,"Velocity":30,"Duration":1194029,"SoundDuration":1194029,"Delta":124887718},{"NoteNumber":70,"Velocity":30,"Duration":1194029,"SoundDuration":1194029,"Delta":124887718},{"NoteNumber":79,"Velocity":30,"Duration":1194029,"SoundDuration":1194029,"Delta":124887718},{"NoteNumber":64,"Velocity":23,"Duration":1181592,"SoundDuration":1181592,"Delta":124887718},{"NoteNumber":61,"Velocity":23,"Duration":1194029,"SoundDuration":1194029,"Delta":124887718},{"NoteNumber":52,"Velocity":23,"Duration":1194029,"SoundDuration":1194029,"Delta":124887718},{"NoteNumber":55,"Velocity":30,"Duration":588234,"SoundDuration":588234,"Delta":126081748},{"NoteNumber":64,"Velocity":30,"Duration":588234,"SoundDuration":588234,"Delta":126081748},{"NoteNumber":67,"Velocity":30,"Duration":588234,"SoundDuration":588234,"Delta":126081748},{"NoteNumber":48,"Velocity":28,"Duration":147058,"SoundDuration":147058,"Delta":126081748},{"NoteNumber":36,"Velocity":29,"Duration":147058,"SoundDuration":147058,"Delta":126375866},{"NoteNumber":57,"Velocity":33,"Duration":587648,"SoundDuration":587648,"Delta":126669983},{"NoteNumber":69,"Velocity":33,"Duration":587648,"SoundDuration":587648,"Delta":126669983},{"NoteNumber":66,"Velocity":33,"Duration":587648,"SoundDuration":587648,"Delta":126669983},{"NoteNumber":24,"Velocity":30,"Duration":147058,"SoundDuration":147058,"Delta":126669983},{"NoteNumber":36,"Velocity":31,"Duration":147058,"SoundDuration":147058,"Delta":126964101},{"NoteNumber":48,"Velocity":22,"Duration":146113,"SoundDuration":146113,"Delta":127184689},{"NoteNumber":70,"Velocity":36,"Duration":581598,"SoundDuration":581598,"Delta":127257632},{"NoteNumber":58,"Velocity":36,"Duration":581598,"SoundDuration":581598,"Delta":127257632},{"NoteNumber":67,"Velocity":36,"Duration":581598,"SoundDuration":581598,"Delta":127257632},{"NoteNumber":52,"Velocity":34,"Duration":73170,"SoundDuration":73170,"Delta":127257632},{"NoteNumber":48,"Velocity":35,"Duration":145044,"SoundDuration":145044,"Delta":127549723},{"NoteNumber":60,"Velocity":39,"Duration":571219,"SoundDuration":571219,"Delta":127839230},{"NoteNumber":69,"Velocity":39,"Duration":571219,"SoundDuration":571219,"Delta":127839230},{"NoteNumber":72,"Velocity":39,"Duration":571219,"SoundDuration":571219,"Delta":127839230},{"NoteNumber":36,"Velocity":35,"Duration":143770,"SoundDuration":143770,"Delta":127839230},{"NoteNumber":48,"Velocity":37,"Duration":142518,"SoundDuration":142518,"Delta":128126086},{"NoteNumber":46,"Velocity":26,"Duration":141509,"SoundDuration":141509,"Delta":128339695},{"NoteNumber":61,"Velocity":44,"Duration":561310,"SoundDuration":561310,"Delta":128410450},{"NoteNumber":70,"Velocity":44,"Duration":561310,"SoundDuration":561310,"Delta":128410450},{"NoteNumber":73,"Velocity":44,"Duration":561310,"SoundDuration":561310,"Delta":128410450},{"NoteNumber":53,"Velocity":38,"Duration":70754,"SoundDuration":70754,"Delta":128410450},{"NoteNumber":46,"Velocity":39,"Duration":139969,"SoundDuration":139969,"Delta":128692363},{"NoteNumber":72,"Velocity":48,"Duration":551632,"SoundDuration":551632,"Delta":128971760},{"NoteNumber":64,"Velocity":48,"Duration":551632,"SoundDuration":551632,"Delta":128971760},{"NoteNumber":76,"Velocity":48,"Duration":551632,"SoundDuration":551632,"Delta":128971760},{"NoteNumber":34,"Velocity":40,"Duration":138782,"SoundDuration":138782,"Delta":128971760},{"NoteNumber":53,"Velocity":42,"Duration":137614,"SoundDuration":137614,"Delta":129248791},{"NoteNumber":51,"Velocity":27,"Duration":139247,"SoundDuration":139247,"Delta":129454899},{"NoteNumber":73,"Velocity":51,"Duration":1160399,"SoundDuration":1160399,"Delta":129523392},{"NoteNumber":65,"Velocity":51,"Duration":570087,"SoundDuration":570087,"Delta":129523392},{"NoteNumber":77,"Velocity":51,"Duration":570087,"SoundDuration":570087,"Delta":129523392},{"NoteNumber":58,"Velocity":44,"Duration":70754,"SoundDuration":70754,"Delta":129523392},{"NoteNumber":39,"Velocity":44,"Duration":142857,"SoundDuration":142857,"Delta":129807082},{"NoteNumber":79,"Velocity":55,"Duration":590311,"SoundDuration":590311,"Delta":130093480},{"NoteNumber":67,"Velocity":55,"Duration":590311,"SoundDuration":590311,"Delta":130093480},{"NoteNumber":27,"Velocity":46,"Duration":143540,"SoundDuration":143540,"Delta":130093480},{"NoteNumber":51,"Velocity":47,"Duration":163043,"SoundDuration":163043,"Delta":130380561},{"NoteNumber":32,"Velocity":22,"Duration":210280,"SoundDuration":210280,"Delta":130613698},{"NoteNumber":72,"Velocity":45,"Duration":280373,"SoundDuration":280373,"Delta":130683792},{"NoteNumber":44,"Velocity":27,"Duration":140186,"SoundDuration":140186,"Delta":130683792},{"NoteNumber":80,"Velocity":30,"Duration":140186,"SoundDuration":140186,"Delta":130753885},{"NoteNumber":84,"Velocity":34,"Duration":140186,"SoundDuration":140186,"Delta":130823979},{"NoteNumber":73,"Velocity":46,"Duration":280373,"SoundDuration":280373,"Delta":130964166},{"NoteNumber":48,"Velocity":22,"Duration":140186,"SoundDuration":140186,"Delta":130964166},{"NoteNumber":44,"Velocity":17,"Duration":210280,"SoundDuration":210280,"Delta":131174446},{"NoteNumber":74,"Velocity":48,"Duration":280374,"SoundDuration":280374,"Delta":131244540},{"NoteNumber":56,"Velocity":26,"Duration":140187,"SoundDuration":140187,"Delta":131244540},{"NoteNumber":80,"Velocity":35,"Duration":210280,"SoundDuration":210280,"Delta":131314633},{"NoteNumber":84,"Velocity":35,"Duration":140186,"SoundDuration":140186,"Delta":131384727},{"NoteNumber":75,"Velocity":49,"Duration":288461,"SoundDuration":288461,"Delta":131524914},{"NoteNumber":60,"Velocity":22,"Duration":144230,"SoundDuration":144230,"Delta":131524914},{"NoteNumber":72,"Velocity":35,"Duration":140922,"SoundDuration":140922,"Delta":131741260},{"NoteNumber":56,"Velocity":17,"Duration":209730,"SoundDuration":209730,"Delta":131741260},{"NoteNumber":80,"Velocity":53,"Duration":275229,"SoundDuration":275229,"Delta":131813375},{"NoteNumber":68,"Velocity":27,"Duration":137614,"SoundDuration":137614,"Delta":131813375},{"NoteNumber":84,"Velocity":38,"Duration":137614,"SoundDuration":137614,"Delta":131882183},{"NoteNumber":79,"Velocity":49,"Duration":275229,"SoundDuration":275229,"Delta":132088605},{"NoteNumber":60,"Velocity":23,"Duration":137614,"SoundDuration":137614,"Delta":132088605},{"NoteNumber":44,"Velocity":17,"Duration":217322,"SoundDuration":217322,"Delta":132295027},{"NoteNumber":77,"Velocity":49,"Duration":297029,"SoundDuration":297029,"Delta":132363834},{"NoteNumber":56,"Velocity":27,"Duration":148514,"SoundDuration":148514,"Delta":132363834},{"NoteNumber":80,"Velocity":35,"Duration":148514,"SoundDuration":148514,"Delta":132438092},{"NoteNumber":84,"Velocity":35,"Duration":148514,"SoundDuration":148514,"Delta":132512349},{"NoteNumber":76,"Velocity":48,"Duration":289359,"SoundDuration":289359,"Delta":132660864},{"NoteNumber":48,"Velocity":24,"Duration":148514,"SoundDuration":148514,"Delta":132660864},{"NoteNumber":32,"Velocity":16,"Duration":212602,"SoundDuration":212602,"Delta":132879801},{"NoteNumber":72,"Velocity":31,"Duration":142179,"SoundDuration":142179,"Delta":132950224},{"NoteNumber":75,"Velocity":47,"Duration":1144884,"SoundDuration":1144884,"Delta":132950224},{"NoteNumber":44,"Velocity":27,"Duration":142179,"SoundDuration":142179,"Delta":132950224},{"NoteNumber":80,"Velocity":31,"Duration":142179,"SoundDuration":142179,"Delta":133021314},{"NoteNumber":84,"Velocity":31,"Duration":142179,"SoundDuration":142179,"Delta":133092404},{"NoteNumber":48,"Velocity":22,"Duration":142179,"SoundDuration":142179,"Delta":133234584},{"NoteNumber":44,"Velocity":17,"Duration":213270,"SoundDuration":213270,"Delta":133447854},{"NoteNumber":72,"Velocity":31,"Duration":142179,"SoundDuration":142179,"Delta":133518944},{"NoteNumber":56,"Velocity":26,"Duration":142179,"SoundDuration":142179,"Delta":133518944},{"NoteNumber":80,"Velocity":31,"Duration":142179,"SoundDuration":142179,"Delta":133590034},{"NoteNumber":84,"Velocity":31,"Duration":142179,"SoundDuration":142179,"Delta":133661124},{"NoteNumber":60,"Velocity":22,"Duration":155440,"SoundDuration":155440,"Delta":133803304},{"NoteNumber":82,"Velocity":26,"Duration":409091,"SoundDuration":409091,"Delta":133958744},{"NoteNumber":79,"Velocity":26,"Duration":340909,"SoundDuration":340909,"Delta":134026926},{"NoteNumber":56,"Velocity":16,"Duration":204545,"SoundDuration":204545,"Delta":134026926},{"NoteNumber":73,"Velocity":41,"Duration":272727,"SoundDuration":272727,"Delta":134095108},{"NoteNumber":63,"Velocity":27,"Duration":136363,"SoundDuration":136363,"Delta":134095108},{"NoteNumber":72,"Velocity":40,"Duration":136363,"SoundDuration":136363,"Delta":134367835},{"NoteNumber":67,"Velocity":24,"Duration":136363,"SoundDuration":136363,"Delta":134367835},{"NoteNumber":79,"Velocity":26,"Duration":409091,"SoundDuration":409091,"Delta":134504199},{"NoteNumber":75,"Velocity":26,"Duration":340909,"SoundDuration":340909,"Delta":134572381},{"NoteNumber":56,"Velocity":15,"Duration":204545,"SoundDuration":204545,"Delta":134572381},{"NoteNumber":70,"Velocity":39,"Duration":272727,"SoundDuration":272727,"Delta":134640563},{"NoteNumber":61,"Velocity":27,"Duration":136363,"SoundDuration":136363,"Delta":134640563},{"NoteNumber":72,"Velocity":40,"Duration":136363,"SoundDuration":136363,"Delta":134913290},{"NoteNumber":63,"Velocity":24,"Duration":136363,"SoundDuration":136363,"Delta":134913290},{"NoteNumber":80,"Velocity":25,"Duration":409091,"SoundDuration":409091,"Delta":135049654},{"NoteNumber":77,"Velocity":25,"Duration":340909,"SoundDuration":340909,"Delta":135117836},{"NoteNumber":56,"Velocity":15,"Duration":204545,"SoundDuration":204545,"Delta":135117836},{"NoteNumber":73,"Velocity":42,"Duration":272727,"SoundDuration":272727,"Delta":135186018},{"NoteNumber":65,"Velocity":26,"Duration":136363,"SoundDuration":136363,"Delta":135186018},{"NoteNumber":72,"Velocity":42,"Duration":136363,"SoundDuration":136363,"Delta":135458745},{"NoteNumber":68,"Velocity":24,"Duration":136363,"SoundDuration":136363,"Delta":135458745},{"NoteNumber":77,"Velocity":26,"Duration":409091,"SoundDuration":409091,"Delta":135595109},{"NoteNumber":73,"Velocity":26,"Duration":340909,"SoundDuration":340909,"Delta":135663291},{"NoteNumber":56,"Velocity":16,"Duration":204545,"SoundDuration":204545,"Delta":135663291},{"NoteNumber":70,"Velocity":41,"Duration":272727,"SoundDuration":272727,"Delta":135731473},{"NoteNumber":61,"Velocity":27,"Duration":136363,"SoundDuration":136363,"Delta":135731473},{"NoteNumber":68,"Velocity":40,"Duration":136363,"SoundDuration":136363,"Delta":136004200},{"NoteNumber":65,"Velocity":24,"Duration":136363,"SoundDuration":136363,"Delta":136004200},{"NoteNumber":75,"Velocity":25,"Duration":409091,"SoundDuration":409091,"Delta":136140564},{"NoteNumber":70,"Velocity":25,"Duration":340909,"SoundDuration":340909,"Delta":136208746},{"NoteNumber":44,"Velocity":16,"Duration":204545,"SoundDuration":204545,"Delta":136208746},{"NoteNumber":67,"Velocity":42,"Duration":272727,"SoundDuration":272727,"Delta":136276928},{"NoteNumber":49,"Velocity":26,"Duration":136363,"SoundDuration":136363,"Delta":136276928},{"NoteNumber":65,"Velocity":41,"Duration":136363,"SoundDuration":136363,"Delta":136549655},{"NoteNumber":51,"Velocity":24,"Duration":136363,"SoundDuration":136363,"Delta":136549655},{"NoteNumber":73,"Velocity":24,"Duration":409091,"SoundDuration":409091,"Delta":136686019},{"NoteNumber":44,"Velocity":17,"Duration":272727,"SoundDuration":272727,"Delta":136686019},{"NoteNumber":70,"Velocity":24,"Duration":340909,"SoundDuration":340909,"Delta":136754201},{"NoteNumber":51,"Velocity":17,"Duration":204545,"SoundDuration":204545,"Delta":136754201},{"NoteNumber":63,"Velocity":40,"Duration":272727,"SoundDuration":272727,"Delta":136822383},{"NoteNumber":55,"Velocity":26,"Duration":136363,"SoundDuration":136363,"Delta":136822383},{"NoteNumber":65,"Velocity":41,"Duration":136363,"SoundDuration":136363,"Delta":137095110},{"NoteNumber":56,"Velocity":24,"Duration":136363,"SoundDuration":136363,"Delta":137095110},{"NoteNumber":75,"Velocity":28,"Duration":414746,"SoundDuration":414746,"Delta":137231474},{"NoteNumber":44,"Velocity":17,"Duration":276497,"SoundDuration":276497,"Delta":137231474},{"NoteNumber":73,"Velocity":28,"Duration":345621,"SoundDuration":345621,"Delta":137300598},{"NoteNumber":51,"Velocity":17,"Duration":207373,"SoundDuration":207373,"Delta":137300598},{"NoteNumber":67,"Velocity":44,"Duration":276497,"SoundDuration":276497,"Delta":137369723},{"NoteNumber":58,"Velocity":24,"Duration":138248,"SoundDuration":138248,"Delta":137369723},{"NoteNumber":70,"Velocity":40,"Duration":138248,"SoundDuration":138248,"Delta":137646220},{"NoteNumber":61,"Velocity":24,"Duration":138248,"SoundDuration":138248,"Delta":137646220},{"NoteNumber":75,"Velocity":26,"Duration":414746,"SoundDuration":414746,"Delta":137784469},{"NoteNumber":44,"Velocity":17,"Duration":276497,"SoundDuration":276497,"Delta":137784469},{"NoteNumber":73,"Velocity":26,"Duration":345621,"SoundDuration":345621,"Delta":137853593},{"NoteNumber":51,"Velocity":17,"Duration":207373,"SoundDuration":207373,"Delta":137853593},{"NoteNumber":65,"Velocity":42,"Duration":276497,"SoundDuration":276497,"Delta":137922718},{"NoteNumber":56,"Velocity":24,"Duration":138248,"SoundDuration":138248,"Delta":137922718},{"NoteNumber":68,"Velocity":38,"Duration":138248,"SoundDuration":138248,"Delta":138199215},{"NoteNumber":60,"Velocity":24,"Duration":138248,"SoundDuration":138248,"Delta":138199215},{"NoteNumber":75,"Velocity":26,"Duration":428108,"SoundDuration":428108,"Delta":138337464},{"NoteNumber":44,"Velocity":17,"Duration":282711,"SoundDuration":282711,"Delta":138337464},{"NoteNumber":72,"Velocity":26,"Duration":358983,"SoundDuration":358983,"Delta":138406588},{"NoteNumber":51,"Velocity":17,"Duration":213587,"SoundDuration":213587,"Delta":138406588},{"NoteNumber":63,"Velocity":40,"Duration":289859,"SoundDuration":289859,"Delta":138475713},{"NoteNumber":55,"Velocity":22,"Duration":144462,"SoundDuration":144462,"Delta":138475713},{"NoteNumber":67,"Velocity":35,"Duration":146700,"SoundDuration":146700,"Delta":138765572},{"NoteNumber":58,"Velocity":24,"Duration":146700,"SoundDuration":146700,"Delta":138765572},{"NoteNumber":75,"Velocity":25,"Duration":447784,"SoundDuration":447784,"Delta":138912272},{"NoteNumber":44,"Velocity":16,"Duration":297784,"SoundDuration":297784,"Delta":138912272},{"NoteNumber":70,"Velocity":25,"Duration":374013,"SoundDuration":374013,"Delta":138986043},{"NoteNumber":51,"Velocity":16,"Duration":224013,"SoundDuration":224013,"Delta":138986043},{"NoteNumber":61,"Velocity":39,"Duration":300000,"SoundDuration":300000,"Delta":139060057},{"NoteNumber":56,"Velocity":22,"Duration":150000,"SoundDuration":150000,"Delta":139060057},{"NoteNumber":65,"Velocity":33,"Duration":149999,"SoundDuration":149999,"Delta":139360057},{"NoteNumber":55,"Velocity":19,"Duration":149999,"SoundDuration":149999,"Delta":139360057},{"NoteNumber":44,"Velocity":22,"Duration":214995,"SoundDuration":214995,"Delta":139582872},{"NoteNumber":60,"Velocity":39,"Duration":284359,"SoundDuration":284359,"Delta":139655688},{"NoteNumber":56,"Velocity":27,"Duration":142179,"SoundDuration":142179,"Delta":139655688},{"NoteNumber":68,"Velocity":30,"Duration":142179,"SoundDuration":142179,"Delta":139726778},{"NoteNumber":72,"Velocity":30,"Duration":142179,"SoundDuration":142179,"Delta":139797868},{"NoteNumber":61,"Velocity":39,"Duration":284360,"SoundDuration":284360,"Delta":139940048},{"NoteNumber":48,"Velocity":22,"Duration":142179,"SoundDuration":142179,"Delta":139940048},{"NoteNumber":32,"Velocity":17,"Duration":213270,"SoundDuration":213270,"Delta":140153318},{"NoteNumber":62,"Velocity":39,"Duration":284359,"SoundDuration":284359,"Delta":140224408},{"NoteNumber":44,"Velocity":26,"Duration":142179,"SoundDuration":142179,"Delta":140224408},{"NoteNumber":68,"Velocity":30,"Duration":142179,"SoundDuration":142179,"Delta":140295498},{"NoteNumber":72,"Velocity":30,"Duration":142179,"SoundDuration":142179,"Delta":140366588},{"NoteNumber":63,"Velocity":41,"Duration":284359,"SoundDuration":284359,"Delta":140508768},{"NoteNumber":48,"Velocity":22,"Duration":142179,"SoundDuration":142179,"Delta":140508768},{"NoteNumber":44,"Velocity":22,"Duration":212599,"SoundDuration":212599,"Delta":140722038},{"NoteNumber":60,"Velocity":39,"Duration":283018,"SoundDuration":283018,"Delta":140793128},{"NoteNumber":56,"Velocity":27,"Duration":141509,"SoundDuration":141509,"Delta":140793128},{"NoteNumber":72,"Velocity":44,"Duration":141509,"SoundDuration":141509,"Delta":140863883},{"NoteNumber":75,"Velocity":33,"Duration":141509,"SoundDuration":141509,"Delta":140934637},{"NoteNumber":68,"Velocity":42,"Duration":283018,"SoundDuration":283018,"Delta":141076147},{"NoteNumber":48,"Velocity":23,"Duration":141509,"SoundDuration":141509,"Delta":141076147},{"NoteNumber":32,"Velocity":17,"Duration":214295,"SoundDuration":214295,"Delta":141288411},{"NoteNumber":65,"Velocity":40,"Duration":287081,"SoundDuration":287081,"Delta":141359166},{"NoteNumber":44,"Velocity":27,"Duration":143540,"SoundDuration":143540,"Delta":141359166},{"NoteNumber":72,"Velocity":33,"Duration":143540,"SoundDuration":143540,"Delta":141430936},{"NoteNumber":75,"Velocity":33,"Duration":143540,"SoundDuration":143540,"Delta":141502707},{"NoteNumber":64,"Velocity":39,"Duration":287081,"SoundDuration":287081,"Delta":141646247},{"NoteNumber":48,"Velocity":29,"Duration":143540,"SoundDuration":143540,"Delta":141646247},{"NoteNumber":44,"Velocity":26,"Duration":217401,"SoundDuration":217401,"Delta":141861559},{"NoteNumber":60,"Velocity":42,"Duration":291261,"SoundDuration":291261,"Delta":141933329},{"NoteNumber":56,"Velocity":34,"Duration":145631,"SoundDuration":145631,"Delta":141933329},{"NoteNumber":63,"Velocity":35,"Duration":218446,"SoundDuration":218446,"Delta":142006144},{"NoteNumber":67,"Velocity":35,"Duration":145630,"SoundDuration":145630,"Delta":142078960},{"NoteNumber":72,"Velocity":35,"Duration":72815,"SoundDuration":72815,"Delta":142151775},{"NoteNumber":73,"Velocity":42,"Duration":291262,"SoundDuration":291262,"Delta":142224591},{"NoteNumber":70,"Velocity":42,"Duration":291262,"SoundDuration":291262,"Delta":142224591},{"NoteNumber":61,"Velocity":42,"Duration":291262,"SoundDuration":291262,"Delta":142224591},{"NoteNumber":51,"Velocity":30,"Duration":145631,"SoundDuration":145631,"Delta":142224591},{"NoteNumber":32,"Velocity":26,"Duration":291261,"SoundDuration":291261,"Delta":142370222},{"NoteNumber":62,"Velocity":49,"Duration":291261,"SoundDuration":291261,"Delta":142515853},{"NoteNumber":74,"Velocity":49,"Duration":291261,"SoundDuration":291261,"Delta":142515853},{"NoteNumber":71,"Velocity":49,"Duration":291261,"SoundDuration":291261,"Delta":142515853},{"NoteNumber":44,"Velocity":35,"Duration":145630,"SoundDuration":145630,"Delta":142515853},{"NoteNumber":75,"Velocity":53,"Duration":291262,"SoundDuration":291262,"Delta":142807115},{"NoteNumber":72,"Velocity":53,"Duration":291262,"SoundDuration":291262,"Delta":142807115},{"NoteNumber":63,"Velocity":53,"Duration":291262,"SoundDuration":291262,"Delta":142807115},{"NoteNumber":48,"Velocity":40,"Duration":145631,"SoundDuration":145631,"Delta":142807115},{"NoteNumber":56,"Velocity":37,"Duration":302699,"SoundDuration":302699,"Delta":142952746},{"NoteNumber":87,"Velocity":63,"Duration":314135,"SoundDuration":314135,"Delta":143098377},{"NoteNumber":78,"Velocity":63,"Duration":314135,"SoundDuration":314135,"Delta":143098377},{"NoteNumber":75,"Velocity":63,"Duration":314135,"SoundDuration":314135,"Delta":143098377},{"NoteNumber":68,"Velocity":46,"Duration":157068,"SoundDuration":157068,"Delta":143098377},{"NoteNumber":84,"Velocity":50,"Duration":314136,"SoundDuration":314136,"Delta":143412513},{"NoteNumber":72,"Velocity":50,"Duration":314136,"SoundDuration":314136,"Delta":143412513},{"NoteNumber":80,"Velocity":50,"Duration":314136,"SoundDuration":314136,"Delta":143412513},{"NoteNumber":60,"Velocity":37,"Duration":157068,"SoundDuration":157068,"Delta":143412513},{"NoteNumber":44,"Velocity":32,"Duration":307068,"SoundDuration":307068,"Delta":143569581},{"NoteNumber":80,"Velocity":46,"Duration":300000,"SoundDuration":300000,"Delta":143726649},{"NoteNumber":77,"Velocity":46,"Duration":300000,"SoundDuration":300000,"Delta":143726649},{"NoteNumber":68,"Velocity":46,"Duration":300000,"SoundDuration":300000,"Delta":143726649},{"NoteNumber":56,"Velocity":40,"Duration":150000,"SoundDuration":150000,"Delta":143726649},{"NoteNumber":78,"Velocity":42,"Duration":299999,"SoundDuration":299999,"Delta":144026649},{"NoteNumber":75,"Velocity":42,"Duration":299999,"SoundDuration":299999,"Delta":144026649},{"NoteNumber":66,"Velocity":42,"Duration":299999,"SoundDuration":299999,"Delta":144026649},{"NoteNumber":48,"Velocity":28,"Duration":149999,"SoundDuration":149999,"Delta":144026649},{"NoteNumber":25,"Velocity":28,"Duration":297783,"SoundDuration":297783,"Delta":144176649},{"NoteNumber":77,"Velocity":41,"Duration":591133,"SoundDuration":591133,"Delta":144326649},{"NoteNumber":65,"Velocity":41,"Duration":591133,"SoundDuration":591133,"Delta":144326649},{"NoteNumber":73,"Velocity":41,"Duration":591133,"SoundDuration":591133,"Delta":144326649},{"NoteNumber":37,"Velocity":35,"Duration":147783,"SoundDuration":147783,"Delta":144326649},{"NoteNumber":44,"Velocity":35,"Duration":147783,"SoundDuration":147783,"Delta":144622215},{"NoteNumber":37,"Velocity":26,"Duration":221674,"SoundDuration":221674,"Delta":144843890},{"NoteNumber":73,"Velocity":39,"Duration":591132,"SoundDuration":591132,"Delta":144917782},{"NoteNumber":76,"Velocity":39,"Duration":591132,"SoundDuration":591132,"Delta":144917782},{"NoteNumber":64,"Velocity":39,"Duration":591132,"SoundDuration":591132,"Delta":144917782},{"NoteNumber":49,"Velocity":33,"Duration":147783,"SoundDuration":147783,"Delta":144917782},{"NoteNumber":56,"Velocity":29,"Duration":147783,"SoundDuration":147783,"Delta":145213348},{"NoteNumber":63,"Velocity":35,"Duration":1182265,"SoundDuration":1182265,"Delta":145508915},{"NoteNumber":72,"Velocity":35,"Duration":1182265,"SoundDuration":1182265,"Delta":145508915},{"NoteNumber":75,"Velocity":35,"Duration":1182265,"SoundDuration":1182265,"Delta":145508915},{"NoteNumber":68,"Velocity":35,"Duration":1108374,"SoundDuration":1108374,"Delta":145508915},{"NoteNumber":56,"Velocity":35,"Duration":1108374,"SoundDuration":1108374,"Delta":145508915},{"NoteNumber":60,"Velocity":35,"Duration":1108374,"SoundDuration":1108374,"Delta":145508915},{"NoteNumber":24,"Velocity":27,"Duration":309945,"SoundDuration":309945,"Delta":146543398},{"NoteNumber":68,"Velocity":31,"Duration":648649,"SoundDuration":648649,"Delta":146691181},{"NoteNumber":56,"Velocity":31,"Duration":648649,"SoundDuration":648649,"Delta":146691181},{"NoteNumber":63,"Velocity":31,"Duration":648649,"SoundDuration":648649,"Delta":146691181},{"NoteNumber":36,"Velocity":34,"Duration":162162,"SoundDuration":162162,"Delta":146691181},{"NoteNumber":44,"Velocity":28,"Duration":162162,"SoundDuration":162162,"Delta":147015505},{"NoteNumber":36,"Velocity":23,"Duration":265130,"SoundDuration":265130,"Delta":147258749},{"NoteNumber":55,"Velocity":30,"Duration":736196,"SoundDuration":736196,"Delta":147339830},{"NoteNumber":63,"Velocity":30,"Duration":736196,"SoundDuration":736196,"Delta":147339830},{"NoteNumber":67,"Velocity":30,"Duration":736196,"SoundDuration":736196,"Delta":147339830},{"NoteNumber":48,"Velocity":30,"Duration":184048,"SoundDuration":184048,"Delta":147339830},{"NoteNumber":56,"Velocity":23,"Duration":184048,"SoundDuration":184048,"Delta":147707928},{"NoteNumber":63,"Velocity":25,"Duration":1472391,"SoundDuration":1472391,"Delta":148076026},{"NoteNumber":54,"Velocity":25,"Duration":1472391,"SoundDuration":1472391,"Delta":148076026},{"NoteNumber":66,"Velocity":25,"Duration":1472391,"SoundDuration":1472391,"Delta":148076026},{"NoteNumber":60,"Velocity":26,"Duration":1472391,"SoundDuration":1472391,"Delta":148076026},{"NoteNumber":56,"Velocity":26,"Duration":1472391,"SoundDuration":1472391,"Delta":148076026},{"NoteNumber":48,"Velocity":26,"Duration":1472391,"SoundDuration":1472391,"Delta":148076026},{"NoteNumber":79,"Velocity":35,"Duration":594325,"SoundDuration":594325,"Delta":149548418},{"NoteNumber":72,"Velocity":35,"Duration":594325,"SoundDuration":594325,"Delta":149548418},{"NoteNumber":67,"Velocity":35,"Duration":594325,"SoundDuration":594325,"Delta":149548418},{"NoteNumber":48,"Velocity":30,"Duration":195121,"SoundDuration":195121,"Delta":149548418},{"NoteNumber":36,"Velocity":25,"Duration":594325,"SoundDuration":594325,"Delta":149548418},{"NoteNumber":43,"Velocity":28,"Duration":195122,"SoundDuration":195122,"Delta":149743540},{"NoteNumber":48,"Velocity":28,"Duration":204081,"SoundDuration":204081,"Delta":149938662},{"NoteNumber":79,"Velocity":31,"Duration":591133,"SoundDuration":591133,"Delta":150142744},{"NoteNumber":74,"Velocity":31,"Duration":591133,"SoundDuration":591133,"Delta":150142744},{"NoteNumber":67,"Velocity":31,"Duration":591133,"SoundDuration":591133,"Delta":150142744},{"NoteNumber":62,"Velocity":18,"Duration":591133,"SoundDuration":591133,"Delta":150142744},{"NoteNumber":55,"Velocity":18,"Duration":591133,"SoundDuration":591133,"Delta":150142744},{"NoteNumber":50,"Velocity":18,"Duration":591133,"SoundDuration":591133,"Delta":150142744},{"NoteNumber":75,"Velocity":35,"Duration":589354,"SoundDuration":589354,"Delta":150733877},{"NoteNumber":79,"Velocity":35,"Duration":589354,"SoundDuration":589354,"Delta":150733877},{"NoteNumber":67,"Velocity":35,"Duration":589354,"SoundDuration":589354,"Delta":150733877},{"NoteNumber":51,"Velocity":30,"Duration":194174,"SoundDuration":194174,"Delta":150733877},{"NoteNumber":36,"Velocity":25,"Duration":589354,"SoundDuration":589354,"Delta":150733877},{"NoteNumber":43,"Velocity":27,"Duration":194174,"SoundDuration":194174,"Delta":150928051},{"NoteNumber":51,"Velocity":27,"Duration":201004,"SoundDuration":201004,"Delta":151122226},{"NoteNumber":79,"Velocity":33,"Duration":600030,"SoundDuration":600030,"Delta":151323231},{"NoteNumber":74,"Velocity":33,"Duration":600030,"SoundDuration":600030,"Delta":151323231},{"NoteNumber":67,"Velocity":33,"Duration":600030,"SoundDuration":600030,"Delta":151323231},{"NoteNumber":62,"Velocity":19,"Duration":600030,"SoundDuration":600030,"Delta":151323231},{"NoteNumber":50,"Velocity":19,"Duration":600030,"SoundDuration":600030,"Delta":151323231},{"NoteNumber":55,"Velocity":19,"Duration":600030,"SoundDuration":600030,"Delta":151323231},{"NoteNumber":79,"Velocity":39,"Duration":597284,"SoundDuration":597284,"Delta":151923261},{"NoteNumber":67,"Velocity":39,"Duration":597284,"SoundDuration":597284,"Delta":151923261},{"NoteNumber":51,"Velocity":27,"Duration":196078,"SoundDuration":196078,"Delta":151923261},{"NoteNumber":36,"Velocity":23,"Duration":597284,"SoundDuration":597284,"Delta":151923261},{"NoteNumber":75,"Velocity":35,"Duration":196078,"SoundDuration":196078,"Delta":152119340},{"NoteNumber":43,"Velocity":24,"Duration":196078,"SoundDuration":196078,"Delta":152119340},{"NoteNumber":77,"Velocity":35,"Duration":205128,"SoundDuration":205128,"Delta":152315418},{"NoteNumber":50,"Velocity":24,"Duration":205128,"SoundDuration":205128,"Delta":152315418},{"NoteNumber":74,"Velocity":36,"Duration":594058,"SoundDuration":594058,"Delta":152520546},{"NoteNumber":67,"Velocity":36,"Duration":594058,"SoundDuration":594058,"Delta":152520546},{"NoteNumber":79,"Velocity":36,"Duration":594058,"SoundDuration":594058,"Delta":152520546},{"NoteNumber":43,"Velocity":20,"Duration":594058,"SoundDuration":594058,"Delta":152520546},{"NoteNumber":48,"Velocity":20,"Duration":594058,"SoundDuration":594058,"Delta":152520546},{"NoteNumber":55,"Velocity":20,"Duration":594058,"SoundDuration":594058,"Delta":152520546},{"NoteNumber":79,"Velocity":37,"Duration":606061,"SoundDuration":606061,"Delta":153114605},{"NoteNumber":75,"Velocity":37,"Duration":202020,"SoundDuration":202020,"Delta":153114605},{"NoteNumber":67,"Velocity":37,"Duration":606061,"SoundDuration":606061,"Delta":153114605},{"NoteNumber":48,"Velocity":27,"Duration":202020,"SoundDuration":202020,"Delta":153114605},{"NoteNumber":36,"Velocity":23,"Duration":606061,"SoundDuration":606061,"Delta":153114605},{"NoteNumber":72,"Velocity":34,"Duration":202020,"SoundDuration":202020,"Delta":153316626},{"NoteNumber":43,"Velocity":26,"Duration":202020,"SoundDuration":202020,"Delta":153316626},{"NoteNumber":73,"Velocity":34,"Duration":202020,"SoundDuration":202020,"Delta":153518646},{"NoteNumber":46,"Velocity":26,"Duration":202020,"SoundDuration":202020,"Delta":153518646},{"NoteNumber":70,"Velocity":36,"Duration":652174,"SoundDuration":652174,"Delta":153720666},{"NoteNumber":67,"Velocity":36,"Duration":652174,"SoundDuration":652174,"Delta":153720666},{"NoteNumber":79,"Velocity":36,"Duration":652174,"SoundDuration":652174,"Delta":153720666},{"NoteNumber":43,"Velocity":22,"Duration":652174,"SoundDuration":652174,"Delta":153720666},{"NoteNumber":48,"Velocity":22,"Duration":652174,"SoundDuration":652174,"Delta":153720666},{"NoteNumber":55,"Velocity":22,"Duration":652174,"SoundDuration":652174,"Delta":153720666},{"NoteNumber":84,"Velocity":52,"Duration":196078,"SoundDuration":196078,"Delta":154372840},{"NoteNumber":72,"Velocity":52,"Duration":196078,"SoundDuration":196078,"Delta":154372840},{"NoteNumber":44,"Velocity":41,"Duration":196078,"SoundDuration":196078,"Delta":154372840},{"NoteNumber":36,"Velocity":41,"Duration":588234,"SoundDuration":588234,"Delta":154372840},{"NoteNumber":80,"Velocity":48,"Duration":196078,"SoundDuration":196078,"Delta":154568919},{"NoteNumber":48,"Velocity":35,"Duration":196078,"SoundDuration":196078,"Delta":154568919},{"NoteNumber":70,"Velocity":48,"Duration":196078,"SoundDuration":196078,"Delta":154764997},{"NoteNumber":82,"Velocity":48,"Duration":196078,"SoundDuration":196078,"Delta":154764997},{"NoteNumber":48,"Velocity":35,"Duration":784313,"SoundDuration":784313,"Delta":154764997},{"NoteNumber":55,"Velocity":35,"Duration":196078,"SoundDuration":196078,"Delta":154764997},{"NoteNumber":79,"Velocity":53,"Duration":588234,"SoundDuration":588234,"Delta":154961075},{"NoteNumber":58,"Velocity":35,"Duration":588234,"SoundDuration":588234,"Delta":154961075},{"NoteNumber":72,"Velocity":50,"Duration":193236,"SoundDuration":193236,"Delta":155549310},{"NoteNumber":84,"Velocity":50,"Duration":193236,"SoundDuration":193236,"Delta":155549310},{"NoteNumber":36,"Velocity":36,"Duration":386473,"SoundDuration":386473,"Delta":155549310},{"NoteNumber":44,"Velocity":36,"Duration":193236,"SoundDuration":193236,"Delta":155549310},{"NoteNumber":80,"Velocity":44,"Duration":193236,"SoundDuration":193236,"Delta":155742547},{"NoteNumber":48,"Velocity":30,"Duration":193236,"SoundDuration":193236,"Delta":155742547},{"NoteNumber":82,"Velocity":48,"Duration":193236,"SoundDuration":193236,"Delta":155935784},{"NoteNumber":70,"Velocity":48,"Duration":193236,"SoundDuration":193236,"Delta":155935784},{"NoteNumber":48,"Velocity":35,"Duration":386473,"SoundDuration":386473,"Delta":155935784},{"NoteNumber":55,"Velocity":35,"Duration":193236,"SoundDuration":193236,"Delta":155935784},{"NoteNumber":79,"Velocity":40,"Duration":193236,"SoundDuration":193236,"Delta":156129020},{"NoteNumber":58,"Velocity":29,"Duration":193236,"SoundDuration":193236,"Delta":156129020},{"NoteNumber":68,"Velocity":44,"Duration":193236,"SoundDuration":193236,"Delta":156322257},{"NoteNumber":80,"Velocity":44,"Duration":193236,"SoundDuration":193236,"Delta":156322257},{"NoteNumber":48,"Velocity":31,"Duration":386473,"SoundDuration":386473,"Delta":156322257},{"NoteNumber":53,"Velocity":31,"Duration":193236,"SoundDuration":193236,"Delta":156322257},{"NoteNumber":77,"Velocity":42,"Duration":193236,"SoundDuration":193236,"Delta":156515494},{"NoteNumber":56,"Velocity":30,"Duration":193236,"SoundDuration":193236,"Delta":156515494},{"NoteNumber":78,"Velocity":45,"Duration":196078,"SoundDuration":196078,"Delta":156708730},{"NoteNumber":66,"Velocity":45,"Duration":196078,"SoundDuration":196078,"Delta":156708730},{"NoteNumber":36,"Velocity":35,"Duration":588234,"SoundDuration":588234,"Delta":156708730},{"NoteNumber":39,"Velocity":35,"Duration":196078,"SoundDuration":196078,"Delta":156708730},{"NoteNumber":75,"Velocity":45,"Duration":196078,"SoundDuration":196078,"Delta":156904809},{"NoteNumber":44,"Velocity":35,"Duration":196078,"SoundDuration":196078,"Delta":156904809},{"NoteNumber":66,"Velocity":45,"Duration":196078,"SoundDuration":196078,"Delta":157100887},{"NoteNumber":78,"Velocity":45,"Duration":196078,"SoundDuration":196078,"Delta":157100887},{"NoteNumber":51,"Velocity":35,"Duration":196078,"SoundDuration":196078,"Delta":157100887},{"NoteNumber":67,"Velocity":41,"Duration":609906,"SoundDuration":609906,"Delta":157296965},{"NoteNumber":74,"Velocity":41,"Duration":609906,"SoundDuration":609906,"Delta":157296965},{"NoteNumber":79,"Velocity":41,"Duration":609906,"SoundDuration":609906,"Delta":157296965},{"NoteNumber":43,"Velocity":25,"Duration":609906,"SoundDuration":609906,"Delta":157296965},{"NoteNumber":48,"Velocity":25,"Duration":609906,"SoundDuration":609906,"Delta":157296965},{"NoteNumber":50,"Velocity":25,"Duration":609906,"SoundDuration":609906,"Delta":157296965},{"NoteNumber":55,"Velocity":25,"Duration":609906,"SoundDuration":609906,"Delta":157296965},{"NoteNumber":81,"Velocity":48,"Duration":195121,"SoundDuration":195121,"Delta":157906872},{"NoteNumber":69,"Velocity":48,"Duration":195121,"SoundDuration":195121,"Delta":157906872},{"NoteNumber":36,"Velocity":38,"Duration":585365,"SoundDuration":585365,"Delta":157906872},{"NoteNumber":39,"Velocity":38,"Duration":195121,"SoundDuration":195121,"Delta":157906872},{"NoteNumber":75,"Velocity":48,"Duration":195121,"SoundDuration":195121,"Delta":158101994},{"NoteNumber":45,"Velocity":38,"Duration":195121,"SoundDuration":195121,"Delta":158101994},{"NoteNumber":69,"Velocity":48,"Duration":195121,"SoundDuration":195121,"Delta":158297116},{"NoteNumber":81,"Velocity":48,"Duration":195121,"SoundDuration":195121,"Delta":158297116},{"NoteNumber":51,"Velocity":38,"Duration":195121,"SoundDuration":195121,"Delta":158297116},{"NoteNumber":67,"Velocity":45,"Duration":609137,"SoundDuration":609137,"Delta":158492238},{"NoteNumber":79,"Velocity":45,"Duration":609137,"SoundDuration":609137,"Delta":158492238},{"NoteNumber":74,"Velocity":45,"Duration":609137,"SoundDuration":609137,"Delta":158492238},{"NoteNumber":43,"Velocity":30,"Duration":609137,"SoundDuration":609137,"Delta":158492238},{"NoteNumber":48,"Velocity":30,"Duration":609137,"SoundDuration":609137,"Delta":158492238},{"NoteNumber":50,"Velocity":30,"Duration":609137,"SoundDuration":609137,"Delta":158492238},{"NoteNumber":55,"Velocity":30,"Duration":609137,"SoundDuration":609137,"Delta":158492238},{"NoteNumber":72,"Velocity":61,"Duration":195121,"SoundDuration":195121,"Delta":159101375},{"NoteNumber":84,"Velocity":61,"Duration":195121,"SoundDuration":195121,"Delta":159101375},{"NoteNumber":36,"Velocity":46,"Duration":585365,"SoundDuration":585365,"Delta":159101375},{"NoteNumber":43,"Velocity":46,"Duration":585365,"SoundDuration":585365,"Delta":159101375},{"NoteNumber":52,"Velocity":46,"Duration":585365,"SoundDuration":585365,"Delta":159101375},{"NoteNumber":79,"Velocity":59,"Duration":195121,"SoundDuration":195121,"Delta":159296497},{"NoteNumber":72,"Velocity":59,"Duration":195121,"SoundDuration":195121,"Delta":159491619},{"NoteNumber":84,"Velocity":59,"Duration":195121,"SoundDuration":195121,"Delta":159491619},{"NoteNumber":86,"Velocity":58,"Duration":596429,"SoundDuration":596429,"Delta":159686741},{"NoteNumber":79,"Velocity":58,"Duration":596429,"SoundDuration":596429,"Delta":159686741},{"NoteNumber":74,"Velocity":58,"Duration":596429,"SoundDuration":596429,"Delta":159686741},{"NoteNumber":50,"Velocity":39,"Duration":195121,"SoundDuration":195121,"Delta":159686741},{"NoteNumber":48,"Velocity":39,"Duration":195121,"SoundDuration":195121,"Delta":159686741},{"NoteNumber":55,"Velocity":39,"Duration":195121,"SoundDuration":195121,"Delta":159686741},{"NoteNumber":43,"Velocity":48,"Duration":195122,"SoundDuration":195122,"Delta":159881863},{"NoteNumber":50,"Velocity":38,"Duration":206185,"SoundDuration":206185,"Delta":160076985},{"NoteNumber":48,"Velocity":38,"Duration":206185,"SoundDuration":206185,"Delta":160076985},{"NoteNumber":55,"Velocity":38,"Duration":206185,"SoundDuration":206185,"Delta":160076985},{"NoteNumber":88,"Velocity":69,"Duration":195121,"SoundDuration":195121,"Delta":160283171},{"NoteNumber":76,"Velocity":69,"Duration":195121,"SoundDuration":195121,"Delta":160283171},{"NoteNumber":36,"Velocity":48,"Duration":585365,"SoundDuration":585365,"Delta":160283171},{"NoteNumber":43,"Velocity":48,"Duration":585365,"SoundDuration":585365,"Delta":160283171},{"NoteNumber":48,"Velocity":48,"Duration":585365,"SoundDuration":585365,"Delta":160283171},{"NoteNumber":79,"Velocity":66,"Duration":195121,"SoundDuration":195121,"Delta":160478293},{"NoteNumber":76,"Velocity":66,"Duration":195121,"SoundDuration":195121,"Delta":160673415},{"NoteNumber":88,"Velocity":66,"Duration":195121,"SoundDuration":195121,"Delta":160673415},{"NoteNumber":74,"Velocity":69,"Duration":598577,"SoundDuration":598577,"Delta":160868537},{"NoteNumber":86,"Velocity":69,"Duration":598577,"SoundDuration":598577,"Delta":160868537},{"NoteNumber":79,"Velocity":69,"Duration":598577,"SoundDuration":598577,"Delta":160868537},{"NoteNumber":48,"Velocity":39,"Duration":195121,"SoundDuration":195121,"Delta":160868537},{"NoteNumber":50,"Velocity":39,"Duration":195121,"SoundDuration":195121,"Delta":160868537},{"NoteNumber":55,"Velocity":39,"Duration":195121,"SoundDuration":195121,"Delta":160868537},{"NoteNumber":43,"Velocity":49,"Duration":195122,"SoundDuration":195122,"Delta":161063659},{"NoteNumber":48,"Velocity":39,"Duration":208333,"SoundDuration":208333,"Delta":161258781},{"NoteNumber":50,"Velocity":39,"Duration":208333,"SoundDuration":208333,"Delta":161258781},{"NoteNumber":55,"Velocity":39,"Duration":208333,"SoundDuration":208333,"Delta":161258781},{"NoteNumber":79,"Velocity":80,"Duration":195121,"SoundDuration":195121,"Delta":161467114},{"NoteNumber":91,"Velocity":80,"Duration":195121,"SoundDuration":195121,"Delta":161467114},{"NoteNumber":36,"Velocity":55,"Duration":585365,"SoundDuration":585365,"Delta":161467114},{"NoteNumber":43,"Velocity":55,"Duration":585365,"SoundDuration":585365,"Delta":161467114},{"NoteNumber":52,"Velocity":55,"Duration":292683,"SoundDuration":292683,"Delta":161467114},{"NoteNumber":88,"Velocity":77,"Duration":195121,"SoundDuration":195121,"Delta":161662236},{"NoteNumber":50,"Velocity":49,"Duration":292682,"SoundDuration":292682,"Delta":161759797},{"NoteNumber":89,"Velocity":77,"Duration":195121,"SoundDuration":195121,"Delta":161857358},{"NoteNumber":77,"Velocity":65,"Duration":195121,"SoundDuration":195121,"Delta":161857358},{"NoteNumber":74,"Velocity":70,"Duration":604147,"SoundDuration":604147,"Delta":162052480},{"NoteNumber":62,"Velocity":70,"Duration":604147,"SoundDuration":604147,"Delta":162052480},{"NoteNumber":67,"Velocity":70,"Duration":604147,"SoundDuration":604147,"Delta":162052480},{"NoteNumber":50,"Velocity":45,"Duration":195121,"SoundDuration":195121,"Delta":162052480},{"NoteNumber":48,"Velocity":45,"Duration":195121,"SoundDuration":195121,"Delta":162052480},{"NoteNumber":55,"Velocity":45,"Duration":195121,"SoundDuration":195121,"Delta":162052480},{"NoteNumber":43,"Velocity":57,"Duration":195122,"SoundDuration":195122,"Delta":162247602},{"NoteNumber":50,"Velocity":47,"Duration":213903,"SoundDuration":213903,"Delta":162442724},{"NoteNumber":48,"Velocity":47,"Duration":213903,"SoundDuration":213903,"Delta":162442724},{"NoteNumber":55,"Velocity":47,"Duration":213903,"SoundDuration":213903,"Delta":162442724},{"NoteNumber":88,"Velocity":88,"Duration":195121,"SoundDuration":195121,"Delta":162656628},{"NoteNumber":76,"Velocity":74,"Duration":195121,"SoundDuration":195121,"Delta":162656628},{"NoteNumber":36,"Velocity":62,"Duration":585365,"SoundDuration":585365,"Delta":162656628},{"NoteNumber":43,"Velocity":62,"Duration":585365,"SoundDuration":585365,"Delta":162656628},{"NoteNumber":48,"Velocity":62,"Duration":292683,"SoundDuration":292683,"Delta":162656628},{"NoteNumber":79,"Velocity":84,"Duration":195121,"SoundDuration":195121,"Delta":162851750},{"NoteNumber":46,"Velocity":61,"Duration":292682,"SoundDuration":292682,"Delta":162949311},{"NoteNumber":86,"Velocity":84,"Duration":195121,"SoundDuration":195121,"Delta":163046872},{"NoteNumber":74,"Velocity":71,"Duration":195121,"SoundDuration":195121,"Delta":163046872},{"NoteNumber":70,"Velocity":79,"Duration":585365,"SoundDuration":585365,"Delta":163241994},{"NoteNumber":64,"Velocity":79,"Duration":585365,"SoundDuration":585365,"Delta":163241994},{"NoteNumber":58,"Velocity":67,"Duration":585365,"SoundDuration":585365,"Delta":163241994},{"NoteNumber":48,"Velocity":53,"Duration":195121,"SoundDuration":195121,"Delta":163241994},{"NoteNumber":55,"Velocity":53,"Duration":195121,"SoundDuration":195121,"Delta":163241994},{"NoteNumber":43,"Velocity":62,"Duration":195121,"SoundDuration":195121,"Delta":163437116},{"NoteNumber":48,"Velocity":52,"Duration":195121,"SoundDuration":195121,"Delta":163632238},{"NoteNumber":55,"Velocity":52,"Duration":195121,"SoundDuration":195121,"Delta":163632238},{"NoteNumber":72,"Velocity":78,"Duration":186915,"SoundDuration":186915,"Delta":163827360},{"NoteNumber":84,"Velocity":92,"Duration":186915,"SoundDuration":186915,"Delta":163827360},{"NoteNumber":36,"Velocity":52,"Duration":571851,"SoundDuration":571851,"Delta":163827360},{"NoteNumber":41,"Velocity":52,"Duration":571851,"SoundDuration":571851,"Delta":163827360},{"NoteNumber":45,"Velocity":62,"Duration":571851,"SoundDuration":571851,"Delta":163827360},{"NoteNumber":48,"Velocity":62,"Duration":571851,"SoundDuration":571851,"Delta":163827360},{"NoteNumber":77,"Velocity":74,"Duration":93457,"SoundDuration":93457,"Delta":164014276},{"NoteNumber":81,"Velocity":88,"Duration":93457,"SoundDuration":93457,"Delta":164014276},{"NoteNumber":72,"Velocity":74,"Duration":148514,"SoundDuration":148514,"Delta":164201192},{"NoteNumber":84,"Velocity":88,"Duration":148514,"SoundDuration":148514,"Delta":164201192},{"NoteNumber":76,"Velocity":92,"Duration":585365,"SoundDuration":585365,"Delta":164399212},{"NoteNumber":67,"Velocity":78,"Duration":585365,"SoundDuration":585365,"Delta":164399212},{"NoteNumber":79,"Velocity":92,"Duration":585365,"SoundDuration":585365,"Delta":164399212},{"NoteNumber":52,"Velocity":51,"Duration":195121,"SoundDuration":195121,"Delta":164399212},{"NoteNumber":55,"Velocity":51,"Duration":195121,"SoundDuration":195121,"Delta":164399212},{"NoteNumber":60,"Velocity":60,"Duration":195121,"SoundDuration":195121,"Delta":164399212},{"NoteNumber":48,"Velocity":62,"Duration":195121,"SoundDuration":195121,"Delta":164594334},{"NoteNumber":52,"Velocity":48,"Duration":195121,"SoundDuration":195121,"Delta":164789456},{"NoteNumber":55,"Velocity":48,"Duration":195121,"SoundDuration":195121,"Delta":164789456},{"NoteNumber":60,"Velocity":57,"Duration":195121,"SoundDuration":195121,"Delta":164789456},{"NoteNumber":69,"Velocity":77,"Duration":187793,"SoundDuration":187793,"Delta":164984578},{"NoteNumber":81,"Velocity":91,"Duration":187793,"SoundDuration":187793,"Delta":164984578},{"NoteNumber":38,"Velocity":52,"Duration":576591,"SoundDuration":576591,"Delta":164984578},{"NoteNumber":41,"Velocity":52,"Duration":576591,"SoundDuration":576591,"Delta":164984578},{"NoteNumber":45,"Velocity":52,"Duration":576591,"SoundDuration":576591,"Delta":164984578},{"NoteNumber":50,"Velocity":62,"Duration":576591,"SoundDuration":576591,"Delta":164984578},{"NoteNumber":77,"Velocity":86,"Duration":93896,"SoundDuration":93896,"Delta":165172371},{"NoteNumber":74,"Velocity":73,"Duration":93896,"SoundDuration":93896,"Delta":165172371},{"NoteNumber":69,"Velocity":73,"Duration":150753,"SoundDuration":150753,"Delta":165360164},{"NoteNumber":81,"Velocity":86,"Duration":150753,"SoundDuration":150753,"Delta":165360164},{"NoteNumber":72,"Velocity":92,"Duration":585365,"SoundDuration":585365,"Delta":165561169},{"NoteNumber":64,"Velocity":78,"Duration":585365,"SoundDuration":585365,"Delta":165561169},{"NoteNumber":76,"Velocity":92,"Duration":585365,"SoundDuration":585365,"Delta":165561169},{"NoteNumber":48,"Velocity":45,"Duration":195121,"SoundDuration":195121,"Delta":165561169},{"NoteNumber":52,"Velocity":45,"Duration":195121,"SoundDuration":195121,"Delta":165561169},{"NoteNumber":57,"Velocity":53,"Duration":195121,"SoundDuration":195121,"Delta":165561169},{"NoteNumber":45,"Velocity":60,"Duration":195121,"SoundDuration":195121,"Delta":165756291},{"NoteNumber":48,"Velocity":46,"Duration":195121,"SoundDuration":195121,"Delta":165951413},{"NoteNumber":52,"Velocity":46,"Duration":195121,"SoundDuration":195121,"Delta":165951413},{"NoteNumber":57,"Velocity":55,"Duration":195121,"SoundDuration":195121,"Delta":165951413},{"NoteNumber":67,"Velocity":78,"Duration":199390,"SoundDuration":199390,"Delta":166146535},{"NoteNumber":79,"Velocity":92,"Duration":199390,"SoundDuration":199390,"Delta":166146535},{"NoteNumber":31,"Velocity":59,"Duration":399390,"SoundDuration":399390,"Delta":166146535},{"NoteNumber":43,"Velocity":70,"Duration":399390,"SoundDuration":399390,"Delta":166146535},{"NoteNumber":72,"Velocity":70,"Duration":199999,"SoundDuration":199999,"Delta":166345925},{"NoteNumber":76,"Velocity":83,"Duration":199999,"SoundDuration":199999,"Delta":166345925},{"NoteNumber":79,"Velocity":92,"Duration":187593,"SoundDuration":187593,"Delta":166545925},{"NoteNumber":67,"Velocity":78,"Duration":187593,"SoundDuration":187593,"Delta":166545925},{"NoteNumber":52,"Velocity":63,"Duration":187593,"SoundDuration":187593,"Delta":166545925},{"NoteNumber":48,"Velocity":53,"Duration":187593,"SoundDuration":187593,"Delta":166545925},{"NoteNumber":74,"Velocity":70,"Duration":180995,"SoundDuration":180995,"Delta":166733519},{"NoteNumber":77,"Velocity":83,"Duration":180995,"SoundDuration":180995,"Delta":166733519},{"NoteNumber":43,"Velocity":59,"Duration":180995,"SoundDuration":180995,"Delta":166733519},{"NoteNumber":55,"Velocity":70,"Duration":180995,"SoundDuration":180995,"Delta":166733519},{"NoteNumber":67,"Velocity":78,"Duration":177491,"SoundDuration":177491,"Delta":166914515},{"NoteNumber":79,"Velocity":92,"Duration":177491,"SoundDuration":177491,"Delta":166914515},{"NoteNumber":50,"Velocity":56,"Duration":177491,"SoundDuration":177491,"Delta":166914515},{"NoteNumber":53,"Velocity":67,"Duration":177491,"SoundDuration":177491,"Delta":166914515},{"NoteNumber":76,"Velocity":83,"Duration":176990,"SoundDuration":176990,"Delta":167092006},{"NoteNumber":72,"Velocity":70,"Duration":176990,"SoundDuration":176990,"Delta":167092006},{"NoteNumber":43,"Velocity":56,"Duration":176990,"SoundDuration":176990,"Delta":167092006},{"NoteNumber":55,"Velocity":67,"Duration":176990,"SoundDuration":176990,"Delta":167092006},{"NoteNumber":79,"Velocity":92,"Duration":183340,"SoundDuration":183340,"Delta":167268997},{"NoteNumber":67,"Velocity":78,"Duration":183340,"SoundDuration":183340,"Delta":167268997},{"NoteNumber":48,"Velocity":59,"Duration":183340,"SoundDuration":183340,"Delta":167268997},{"NoteNumber":52,"Velocity":70,"Duration":183340,"SoundDuration":183340,"Delta":167268997},{"NoteNumber":69,"Velocity":73,"Duration":184246,"SoundDuration":184246,"Delta":167452337},{"NoteNumber":72,"Velocity":86,"Duration":184246,"SoundDuration":184246,"Delta":167452337},{"NoteNumber":43,"Velocity":56,"Duration":184246,"SoundDuration":184246,"Delta":167452337},{"NoteNumber":55,"Velocity":66,"Duration":184246,"SoundDuration":184246,"Delta":167452337},{"NoteNumber":67,"Velocity":73,"Duration":184246,"SoundDuration":184246,"Delta":167636584},{"NoteNumber":79,"Velocity":86,"Duration":184246,"SoundDuration":184246,"Delta":167636584},{"NoteNumber":45,"Velocity":56,"Duration":184246,"SoundDuration":184246,"Delta":167636584},{"NoteNumber":48,"Velocity":66,"Duration":184246,"SoundDuration":184246,"Delta":167636584},{"NoteNumber":74,"Velocity":77,"Duration":581044,"SoundDuration":581044,"Delta":167820831},{"NoteNumber":67,"Velocity":69,"Duration":581044,"SoundDuration":581044,"Delta":167820831},{"NoteNumber":71,"Velocity":76,"Duration":581044,"SoundDuration":581044,"Delta":167820831},{"NoteNumber":79,"Velocity":92,"Duration":581044,"SoundDuration":581044,"Delta":167820831},{"NoteNumber":43,"Velocity":56,"Duration":581044,"SoundDuration":581044,"Delta":167820831},{"NoteNumber":47,"Velocity":56,"Duration":581044,"SoundDuration":581044,"Delta":167820831},{"NoteNumber":50,"Velocity":56,"Duration":581044,"SoundDuration":581044,"Delta":167820831},{"NoteNumber":55,"Velocity":73,"Duration":581044,"SoundDuration":581044,"Delta":167820831},{"NoteNumber":72,"Velocity":75,"Duration":196078,"SoundDuration":196078,"Delta":168401876},{"NoteNumber":84,"Velocity":89,"Duration":196078,"SoundDuration":196078,"Delta":168401876},{"NoteNumber":36,"Velocity":62,"Duration":196078,"SoundDuration":196078,"Delta":168401876},{"NoteNumber":83,"Velocity":70,"Duration":196078,"SoundDuration":196078,"Delta":168597954},{"NoteNumber":79,"Velocity":59,"Duration":196078,"SoundDuration":196078,"Delta":168597954},{"NoteNumber":48,"Velocity":58,"Duration":196078,"SoundDuration":196078,"Delta":168597954},{"NoteNumber":72,"Velocity":67,"Duration":181818,"SoundDuration":181818,"Delta":168794032},{"NoteNumber":84,"Velocity":79,"Duration":181818,"SoundDuration":181818,"Delta":168794032},{"NoteNumber":57,"Velocity":57,"Duration":545455,"SoundDuration":545455,"Delta":168794032},{"NoteNumber":53,"Velocity":48,"Duration":545455,"SoundDuration":545455,"Delta":168794032},{"NoteNumber":77,"Velocity":52,"Duration":181818,"SoundDuration":181818,"Delta":168975851},{"NoteNumber":81,"Velocity":62,"Duration":181818,"SoundDuration":181818,"Delta":168975851},{"NoteNumber":48,"Velocity":44,"Duration":545455,"SoundDuration":545455,"Delta":168975851},{"NoteNumber":60,"Velocity":52,"Duration":545455,"SoundDuration":545455,"Delta":168975851},{"NoteNumber":72,"Velocity":66,"Duration":181818,"SoundDuration":181818,"Delta":169157669},{"NoteNumber":84,"Velocity":78,"Duration":181818,"SoundDuration":181818,"Delta":169157669},{"NoteNumber":76,"Velocity":52,"Duration":181818,"SoundDuration":181818,"Delta":169339487},{"NoteNumber":79,"Velocity":62,"Duration":181818,"SoundDuration":181818,"Delta":169339487},{"NoteNumber":52,"Velocity":51,"Duration":181818,"SoundDuration":181818,"Delta":169339487},{"NoteNumber":55,"Velocity":51,"Duration":181818,"SoundDuration":181818,"Delta":169339487},{"NoteNumber":81,"Velocity":85,"Duration":189915,"SoundDuration":189915,"Delta":169521306},{"NoteNumber":69,"Velocity":72,"Duration":189915,"SoundDuration":189915,"Delta":169521306},{"NoteNumber":33,"Velocity":58,"Duration":189915,"SoundDuration":189915,"Delta":169521306},{"NoteNumber":76,"Velocity":59,"Duration":189915,"SoundDuration":189915,"Delta":169711221},{"NoteNumber":79,"Velocity":70,"Duration":189915,"SoundDuration":189915,"Delta":169711221},{"NoteNumber":45,"Velocity":58,"Duration":189915,"SoundDuration":189915,"Delta":169711221},{"NoteNumber":69,"Velocity":67,"Duration":178571,"SoundDuration":178571,"Delta":169901136},{"NoteNumber":81,"Velocity":79,"Duration":178571,"SoundDuration":178571,"Delta":169901136},{"NoteNumber":53,"Velocity":58,"Duration":535714,"SoundDuration":535714,"Delta":169901136},{"NoteNumber":50,"Velocity":58,"Duration":535714,"SoundDuration":535714,"Delta":169901136},{"NoteNumber":77,"Velocity":63,"Duration":178571,"SoundDuration":178571,"Delta":170079708},{"NoteNumber":74,"Velocity":53,"Duration":178571,"SoundDuration":178571,"Delta":170079708},{"NoteNumber":45,"Velocity":44,"Duration":535713,"SoundDuration":535713,"Delta":170079708},{"NoteNumber":57,"Velocity":52,"Duration":535713,"SoundDuration":535713,"Delta":170079708},{"NoteNumber":81,"Velocity":80,"Duration":178571,"SoundDuration":178571,"Delta":170258279},{"NoteNumber":69,"Velocity":68,"Duration":178571,"SoundDuration":178571,"Delta":170258279},{"NoteNumber":72,"Velocity":51,"Duration":178571,"SoundDuration":178571,"Delta":170436850},{"NoteNumber":76,"Velocity":61,"Duration":178571,"SoundDuration":178571,"Delta":170436850},{"NoteNumber":48,"Velocity":49,"Duration":178571,"SoundDuration":178571,"Delta":170436850},{"NoteNumber":52,"Velocity":49,"Duration":178571,"SoundDuration":178571,"Delta":170436850},{"NoteNumber":67,"Velocity":74,"Duration":178675,"SoundDuration":178675,"Delta":170615422},{"NoteNumber":79,"Velocity":88,"Duration":178675,"SoundDuration":178675,"Delta":170615422},{"NoteNumber":31,"Velocity":58,"Duration":178675,"SoundDuration":178675,"Delta":170615422},{"NoteNumber":77,"Velocity":70,"Duration":181410,"SoundDuration":181410,"Delta":170794097},{"NoteNumber":74,"Velocity":59,"Duration":181410,"SoundDuration":181410,"Delta":170794097},{"NoteNumber":43,"Velocity":52,"Duration":181410,"SoundDuration":181410,"Delta":170794097},{"NoteNumber":67,"Velocity":72,"Duration":184230,"SoundDuration":184230,"Delta":170975507},{"NoteNumber":79,"Velocity":85,"Duration":184230,"SoundDuration":184230,"Delta":170975507},{"NoteNumber":53,"Velocity":59,"Duration":184230,"SoundDuration":184230,"Delta":170975507},{"NoteNumber":50,"Velocity":50,"Duration":184230,"SoundDuration":184230,"Delta":170975507},{"NoteNumber":72,"Velocity":56,"Duration":187248,"SoundDuration":187248,"Delta":171159737},{"NoteNumber":76,"Velocity":66,"Duration":187248,"SoundDuration":187248,"Delta":171159737},{"NoteNumber":43,"Velocity":44,"Duration":187248,"SoundDuration":187248,"Delta":171159737},{"NoteNumber":55,"Velocity":52,"Duration":187248,"SoundDuration":187248,"Delta":171159737},{"NoteNumber":79,"Velocity":83,"Duration":190630,"SoundDuration":190630,"Delta":171346985},{"NoteNumber":67,"Velocity":70,"Duration":190630,"SoundDuration":190630,"Delta":171346985},{"NoteNumber":48,"Velocity":50,"Duration":190630,"SoundDuration":190630,"Delta":171346985},{"NoteNumber":52,"Velocity":59,"Duration":190630,"SoundDuration":190630,"Delta":171346985},{"NoteNumber":69,"Velocity":56,"Duration":205212,"SoundDuration":205212,"Delta":171537615},{"NoteNumber":72,"Velocity":66,"Duration":205212,"SoundDuration":205212,"Delta":171537615},{"NoteNumber":43,"Velocity":43,"Duration":857386,"SoundDuration":857386,"Delta":171537615},{"NoteNumber":55,"Velocity":51,"Duration":857386,"SoundDuration":857386,"Delta":171537615},{"NoteNumber":67,"Velocity":66,"Duration":652174,"SoundDuration":652174,"Delta":171742828},{"NoteNumber":72,"Velocity":66,"Duration":652174,"SoundDuration":652174,"Delta":171742828},{"NoteNumber":76,"Velocity":92,"Duration":652174,"SoundDuration":652174,"Delta":171742828},{"NoteNumber":79,"Velocity":92,"Duration":652174,"SoundDuration":652174,"Delta":171742828},{"NoteNumber":45,"Velocity":66,"Duration":652174,"SoundDuration":652174,"Delta":171742828},{"NoteNumber":48,"Velocity":66,"Duration":652174,"SoundDuration":652174,"Delta":171742828},{"NoteNumber":43,"Velocity":42,"Duration":420003,"SoundDuration":420003,"Delta":172150437},{"NoteNumber":47,"Velocity":46,"Duration":338482,"SoundDuration":338482,"Delta":172231958},{"NoteNumber":50,"Velocity":48,"Duration":256960,"SoundDuration":256960,"Delta":172313480},{"NoteNumber":79,"Velocity":89,"Duration":175438,"SoundDuration":175438,"Delta":172395002},{"NoteNumber":67,"Velocity":62,"Duration":175438,"SoundDuration":175438,"Delta":172395002},{"NoteNumber":71,"Velocity":70,"Duration":175438,"SoundDuration":175438,"Delta":172395002},{"NoteNumber":74,"Velocity":79,"Duration":175438,"SoundDuration":175438,"Delta":172395002},{"NoteNumber":55,"Velocity":52,"Duration":175438,"SoundDuration":175438,"Delta":172395002},{"NoteNumber":36,"Velocity":39,"Duration":145631,"SoundDuration":145631,"Delta":173091906},{"NoteNumber":64,"Velocity":37,"Duration":145631,"SoundDuration":145631,"Delta":173383168},{"NoteNumber":60,"Velocity":37,"Duration":145631,"SoundDuration":145631,"Delta":173383168},{"NoteNumber":55,"Velocity":37,"Duration":145631,"SoundDuration":145631,"Delta":173383168},{"NoteNumber":55,"Velocity":37,"Duration":145630,"SoundDuration":145630,"Delta":173674430},{"NoteNumber":59,"Velocity":37,"Duration":145630,"SoundDuration":145630,"Delta":173674430},{"NoteNumber":62,"Velocity":37,"Duration":145630,"SoundDuration":145630,"Delta":173674430},{"NoteNumber":31,"Velocity":29,"Duration":145630,"SoundDuration":145630,"Delta":173674430},{"NoteNumber":64,"Velocity":35,"Duration":145631,"SoundDuration":145631,"Delta":173965692},{"NoteNumber":60,"Velocity":35,"Duration":145631,"SoundDuration":145631,"Delta":173965692},{"NoteNumber":55,"Velocity":35,"Duration":145631,"SoundDuration":145631,"Delta":173965692},{"NoteNumber":36,"Velocity":29,"Duration":145631,"SoundDuration":145631,"Delta":173965692},{"NoteNumber":29,"Velocity":30,"Duration":142179,"SoundDuration":142179,"Delta":174256954},{"NoteNumber":65,"Velocity":37,"Duration":142179,"SoundDuration":142179,"Delta":174541314},{"NoteNumber":60,"Velocity":37,"Duration":142179,"SoundDuration":142179,"Delta":174541314},{"NoteNumber":57,"Velocity":37,"Duration":142179,"SoundDuration":142179,"Delta":174541314},{"NoteNumber":60,"Velocity":37,"Duration":142179,"SoundDuration":142179,"Delta":174825674},{"NoteNumber":64,"Velocity":37,"Duration":142179,"SoundDuration":142179,"Delta":174825674},{"NoteNumber":55,"Velocity":37,"Duration":142179,"SoundDuration":142179,"Delta":174825674},{"NoteNumber":36,"Velocity":29,"Duration":142179,"SoundDuration":142179,"Delta":174825674},{"NoteNumber":60,"Velocity":35,"Duration":142179,"SoundDuration":142179,"Delta":175110034},{"NoteNumber":57,"Velocity":35,"Duration":142179,"SoundDuration":142179,"Delta":175110034},{"NoteNumber":62,"Velocity":35,"Duration":142179,"SoundDuration":142179,"Delta":175110034},{"NoteNumber":29,"Velocity":29,"Duration":142179,"SoundDuration":142179,"Delta":175110034},{"NoteNumber":36,"Velocity":33,"Duration":140186,"SoundDuration":140186,"Delta":175394394},{"NoteNumber":55,"Velocity":37,"Duration":140186,"SoundDuration":140186,"Delta":175674768},{"NoteNumber":60,"Velocity":37,"Duration":140186,"SoundDuration":140186,"Delta":175674768},{"NoteNumber":64,"Velocity":37,"Duration":140186,"SoundDuration":140186,"Delta":175674768},{"NoteNumber":62,"Velocity":37,"Duration":140186,"SoundDuration":140186,"Delta":175955142},{"NoteNumber":59,"Velocity":37,"Duration":140186,"SoundDuration":140186,"Delta":175955142},{"NoteNumber":53,"Velocity":37,"Duration":140186,"SoundDuration":140186,"Delta":175955142},{"NoteNumber":31,"Velocity":29,"Duration":140186,"SoundDuration":140186,"Delta":175955142},{"NoteNumber":52,"Velocity":35,"Duration":140186,"SoundDuration":140186,"Delta":176235516},{"NoteNumber":60,"Velocity":35,"Duration":140186,"SoundDuration":140186,"Delta":176235516},{"NoteNumber":36,"Velocity":29,"Duration":140186,"SoundDuration":140186,"Delta":176235516},{"NoteNumber":59,"Velocity":37,"Duration":140186,"SoundDuration":140186,"Delta":176515890},{"NoteNumber":50,"Velocity":37,"Duration":140186,"SoundDuration":140186,"Delta":176515890},{"NoteNumber":62,"Velocity":37,"Duration":140186,"SoundDuration":140186,"Delta":176515890},{"NoteNumber":31,"Velocity":29,"Duration":140186,"SoundDuration":140186,"Delta":176515890},{"NoteNumber":55,"Velocity":37,"Duration":140186,"SoundDuration":140186,"Delta":176796264},{"NoteNumber":43,"Velocity":29,"Duration":140186,"SoundDuration":140186,"Delta":176796264},{"NoteNumber":36,"Velocity":30,"Duration":140186,"SoundDuration":140186,"Delta":177076638},{"NoteNumber":60,"Velocity":37,"Duration":140186,"SoundDuration":140186,"Delta":177357012},{"NoteNumber":57,"Velocity":37,"Duration":140186,"SoundDuration":140186,"Delta":177357012},{"NoteNumber":48,"Velocity":37,"Duration":140186,"SoundDuration":140186,"Delta":177357012},{"NoteNumber":55,"Velocity":29,"Duration":136986,"SoundDuration":136986,"Delta":177637386},{"NoteNumber":59,"Velocity":29,"Duration":136986,"SoundDuration":136986,"Delta":177637386},{"NoteNumber":48,"Velocity":29,"Duration":136986,"SoundDuration":136986,"Delta":177637386},{"NoteNumber":67,"Velocity":37,"Duration":136986,"SoundDuration":136986,"Delta":177911359},{"NoteNumber":60,"Velocity":37,"Duration":136986,"SoundDuration":136986,"Delta":177911359},{"NoteNumber":72,"Velocity":37,"Duration":136986,"SoundDuration":136986,"Delta":177911359},{"NoteNumber":71,"Velocity":37,"Duration":136986,"SoundDuration":136986,"Delta":177911359},{"NoteNumber":69,"Velocity":29,"Duration":136986,"SoundDuration":136986,"Delta":178185331},{"NoteNumber":65,"Velocity":29,"Duration":136986,"SoundDuration":136986,"Delta":178185331},{"NoteNumber":60,"Velocity":29,"Duration":136986,"SoundDuration":136986,"Delta":178185331},{"NoteNumber":84,"Velocity":37,"Duration":136986,"SoundDuration":136986,"Delta":178459304},{"NoteNumber":81,"Velocity":37,"Duration":136986,"SoundDuration":136986,"Delta":178459304},{"NoteNumber":77,"Velocity":37,"Duration":136986,"SoundDuration":136986,"Delta":178459304},{"NoteNumber":72,"Velocity":37,"Duration":136986,"SoundDuration":136986,"Delta":178459304},{"NoteNumber":67,"Velocity":33,"Duration":136986,"SoundDuration":136986,"Delta":178733276},{"NoteNumber":64,"Velocity":33,"Duration":136986,"SoundDuration":136986,"Delta":178733276},{"NoteNumber":60,"Velocity":33,"Duration":136986,"SoundDuration":136986,"Delta":178733276},{"NoteNumber":76,"Velocity":36,"Duration":136986,"SoundDuration":136986,"Delta":179007249},{"NoteNumber":84,"Velocity":36,"Duration":136986,"SoundDuration":136986,"Delta":179007249},{"NoteNumber":79,"Velocity":36,"Duration":136986,"SoundDuration":136986,"Delta":179007249},{"NoteNumber":83,"Velocity":37,"Duration":136986,"SoundDuration":136986,"Delta":179281221},{"NoteNumber":79,"Velocity":37,"Duration":136986,"SoundDuration":136986,"Delta":179281221},{"NoteNumber":74,"Velocity":37,"Duration":136986,"SoundDuration":136986,"Delta":179281221},{"NoteNumber":55,"Velocity":29,"Duration":136986,"SoundDuration":136986,"Delta":179281221},{"NoteNumber":76,"Velocity":35,"Duration":136986,"SoundDuration":136986,"Delta":179555194},{"NoteNumber":79,"Velocity":35,"Duration":136986,"SoundDuration":136986,"Delta":179555194},{"NoteNumber":84,"Velocity":35,"Duration":136986,"SoundDuration":136986,"Delta":179555194},{"NoteNumber":60,"Velocity":29,"Duration":136986,"SoundDuration":136986,"Delta":179555194},{"NoteNumber":57,"Velocity":29,"Duration":136986,"SoundDuration":136986,"Delta":179829166},{"NoteNumber":81,"Velocity":35,"Duration":136986,"SoundDuration":136986,"Delta":180103139},{"NoteNumber":84,"Velocity":35,"Duration":136986,"SoundDuration":136986,"Delta":180103139},{"NoteNumber":88,"Velocity":35,"Duration":136986,"SoundDuration":136986,"Delta":180103139},{"NoteNumber":86,"Velocity":37,"Duration":136986,"SoundDuration":136986,"Delta":180377111},{"NoteNumber":81,"Velocity":37,"Duration":136986,"SoundDuration":136986,"Delta":180377111},{"NoteNumber":77,"Velocity":37,"Duration":136986,"SoundDuration":136986,"Delta":180377111},{"NoteNumber":62,"Velocity":29,"Duration":136986,"SoundDuration":136986,"Delta":180377111},{"NoteNumber":76,"Velocity":35,"Duration":136986,"SoundDuration":136986,"Delta":180651084},{"NoteNumber":84,"Velocity":35,"Duration":136986,"SoundDuration":136986,"Delta":180651084},{"NoteNumber":81,"Velocity":35,"Duration":136986,"SoundDuration":136986,"Delta":180651084},{"NoteNumber":57,"Velocity":29,"Duration":136986,"SoundDuration":136986,"Delta":180651084},{"NoteNumber":64,"Velocity":30,"Duration":136986,"SoundDuration":136986,"Delta":180925056},{"NoteNumber":83,"Velocity":35,"Duration":136986,"SoundDuration":136986,"Delta":181199029},{"NoteNumber":79,"Velocity":35,"Duration":136986,"SoundDuration":136986,"Delta":181199029},{"NoteNumber":76,"Velocity":35,"Duration":136986,"SoundDuration":136986,"Delta":181199029},{"NoteNumber":81,"Velocity":37,"Duration":136986,"SoundDuration":136986,"Delta":181473001},{"NoteNumber":76,"Velocity":37,"Duration":136986,"SoundDuration":136986,"Delta":181473001},{"NoteNumber":72,"Velocity":37,"Duration":136986,"SoundDuration":136986,"Delta":181473001},{"NoteNumber":57,"Velocity":29,"Duration":136986,"SoundDuration":136986,"Delta":181473001},{"NoteNumber":79,"Velocity":35,"Duration":136986,"SoundDuration":136986,"Delta":181746974},{"NoteNumber":76,"Velocity":35,"Duration":136986,"SoundDuration":136986,"Delta":181746974},{"NoteNumber":71,"Velocity":35,"Duration":136986,"SoundDuration":136986,"Delta":181746974},{"NoteNumber":64,"Velocity":29,"Duration":136986,"SoundDuration":136986,"Delta":181746974},{"NoteNumber":66,"Velocity":39,"Duration":138889,"SoundDuration":138889,"Delta":182020946},{"NoteNumber":75,"Velocity":39,"Duration":138889,"SoundDuration":138889,"Delta":182020946},{"NoteNumber":78,"Velocity":39,"Duration":138889,"SoundDuration":138889,"Delta":182020946},{"NoteNumber":59,"Velocity":29,"Duration":138889,"SoundDuration":138889,"Delta":182020946},{"NoteNumber":71,"Velocity":37,"Duration":138888,"SoundDuration":138888,"Delta":182298724},{"NoteNumber":64,"Velocity":29,"Duration":138889,"SoundDuration":138889,"Delta":182576502},{"NoteNumber":76,"Velocity":37,"Duration":138889,"SoundDuration":138889,"Delta":182854280},{"NoteNumber":51,"Velocity":27,"Duration":141509,"SoundDuration":141509,"Delta":183132058},{"NoteNumber":52,"Velocity":27,"Duration":141509,"SoundDuration":141509,"Delta":183132058},{"NoteNumber":63,"Velocity":27,"Duration":141509,"SoundDuration":141509,"Delta":183132058},{"NoteNumber":76,"Velocity":28,"Duration":141509,"SoundDuration":141509,"Delta":183415077},{"NoteNumber":75,"Velocity":28,"Duration":141509,"SoundDuration":141509,"Delta":183415077},{"NoteNumber":64,"Velocity":28,"Duration":141509,"SoundDuration":141509,"Delta":183415077},{"NoteNumber":38,"Velocity":24,"Duration":144927,"SoundDuration":144927,"Delta":183698096},{"NoteNumber":40,"Velocity":24,"Duration":144927,"SoundDuration":144927,"Delta":183698096},{"NoteNumber":50,"Velocity":24,"Duration":144927,"SoundDuration":144927,"Delta":183698096},{"NoteNumber":64,"Velocity":27,"Duration":144927,"SoundDuration":144927,"Delta":183987951},{"NoteNumber":62,"Velocity":27,"Duration":144927,"SoundDuration":144927,"Delta":183987951},{"NoteNumber":52,"Velocity":27,"Duration":144927,"SoundDuration":144927,"Delta":183987951},{"NoteNumber":24,"Velocity":27,"Duration":137614,"SoundDuration":137614,"Delta":184277806},{"NoteNumber":36,"Velocity":29,"Duration":137614,"SoundDuration":137614,"Delta":184277806},{"NoteNumber":55,"Velocity":28,"Duration":137614,"SoundDuration":137614,"Delta":184553036},{"NoteNumber":60,"Velocity":28,"Duration":137614,"SoundDuration":137614,"Delta":184553036},{"NoteNumber":64,"Velocity":28,"Duration":137614,"SoundDuration":137614,"Delta":184553036},{"NoteNumber":62,"Velocity":29,"Duration":137614,"SoundDuration":137614,"Delta":184828265},{"NoteNumber":59,"Velocity":29,"Duration":137614,"SoundDuration":137614,"Delta":184828265},{"NoteNumber":55,"Velocity":29,"Duration":137614,"SoundDuration":137614,"Delta":184828265},{"NoteNumber":31,"Velocity":24,"Duration":137614,"SoundDuration":137614,"Delta":184828265},{"NoteNumber":55,"Velocity":27,"Duration":137614,"SoundDuration":137614,"Delta":185103495},{"NoteNumber":64,"Velocity":27,"Duration":137614,"SoundDuration":137614,"Delta":185103495},{"NoteNumber":60,"Velocity":27,"Duration":137614,"SoundDuration":137614,"Delta":185103495},{"NoteNumber":36,"Velocity":23,"Duration":137614,"SoundDuration":137614,"Delta":185103495},{"NoteNumber":29,"Velocity":29,"Duration":137614,"SoundDuration":137614,"Delta":185378724},{"NoteNumber":65,"Velocity":35,"Duration":137614,"SoundDuration":137614,"Delta":185653954},{"NoteNumber":60,"Velocity":35,"Duration":137614,"SoundDuration":137614,"Delta":185653954},{"NoteNumber":57,"Velocity":35,"Duration":137614,"SoundDuration":137614,"Delta":185653954},{"NoteNumber":64,"Velocity":35,"Duration":137614,"SoundDuration":137614,"Delta":185929183},{"NoteNumber":55,"Velocity":35,"Duration":137614,"SoundDuration":137614,"Delta":185929183},{"NoteNumber":60,"Velocity":35,"Duration":137614,"SoundDuration":137614,"Delta":185929183},{"NoteNumber":36,"Velocity":27,"Duration":137614,"SoundDuration":137614,"Delta":185929183},{"NoteNumber":62,"Velocity":33,"Duration":137614,"SoundDuration":137614,"Delta":186204413},{"NoteNumber":57,"Velocity":33,"Duration":137614,"SoundDuration":137614,"Delta":186204413},{"NoteNumber":60,"Velocity":33,"Duration":137614,"SoundDuration":137614,"Delta":186204413},{"NoteNumber":29,"Velocity":27,"Duration":137614,"SoundDuration":137614,"Delta":186204413},{"NoteNumber":36,"Velocity":29,"Duration":135135,"SoundDuration":135135,"Delta":186479642},{"NoteNumber":64,"Velocity":33,"Duration":135135,"SoundDuration":135135,"Delta":186749913},{"NoteNumber":60,"Velocity":33,"Duration":135135,"SoundDuration":135135,"Delta":186749913},{"NoteNumber":55,"Velocity":33,"Duration":135135,"SoundDuration":135135,"Delta":186749913},{"NoteNumber":53,"Velocity":33,"Duration":135135,"SoundDuration":135135,"Delta":187020183},{"NoteNumber":62,"Velocity":33,"Duration":135135,"SoundDuration":135135,"Delta":187020183},{"NoteNumber":59,"Velocity":33,"Duration":135135,"SoundDuration":135135,"Delta":187020183},{"NoteNumber":31,"Velocity":26,"Duration":135135,"SoundDuration":135135,"Delta":187020183},{"NoteNumber":52,"Velocity":31,"Duration":135135,"SoundDuration":135135,"Delta":187290454},{"NoteNumber":60,"Velocity":31,"Duration":135135,"SoundDuration":135135,"Delta":187290454},{"NoteNumber":36,"Velocity":25,"Duration":135135,"SoundDuration":135135,"Delta":187290454},{"NoteNumber":50,"Velocity":31,"Duration":139534,"SoundDuration":139534,"Delta":187560724},{"NoteNumber":62,"Velocity":31,"Duration":139534,"SoundDuration":139534,"Delta":187560724},{"NoteNumber":59,"Velocity":31,"Duration":139534,"SoundDuration":139534,"Delta":187560724},{"NoteNumber":31,"Velocity":25,"Duration":139534,"SoundDuration":139534,"Delta":187560724},{"NoteNumber":55,"Velocity":30,"Duration":139535,"SoundDuration":139535,"Delta":187839794},{"NoteNumber":43,"Velocity":24,"Duration":139535,"SoundDuration":139535,"Delta":187839794},{"NoteNumber":36,"Velocity":26,"Duration":139534,"SoundDuration":139534,"Delta":188118864},{"NoteNumber":60,"Velocity":30,"Duration":139534,"SoundDuration":139534,"Delta":188397934},{"NoteNumber":48,"Velocity":30,"Duration":139534,"SoundDuration":139534,"Delta":188397934},{"NoteNumber":46,"Velocity":22,"Duration":144927,"SoundDuration":144927,"Delta":188677004},{"NoteNumber":58,"Velocity":22,"Duration":144927,"SoundDuration":144927,"Delta":188677004},{"NoteNumber":48,"Velocity":22,"Duration":144927,"SoundDuration":144927,"Delta":188677004},{"NoteNumber":72,"Velocity":26,"Duration":144927,"SoundDuration":144927,"Delta":188966859},{"NoteNumber":70,"Velocity":26,"Duration":144927,"SoundDuration":144927,"Delta":188966859},{"NoteNumber":60,"Velocity":26,"Duration":144927,"SoundDuration":144927,"Delta":188966859},{"NoteNumber":68,"Velocity":19,"Duration":152284,"SoundDuration":152284,"Delta":189256714},{"NoteNumber":60,"Velocity":19,"Duration":152284,"SoundDuration":152284,"Delta":189256714},{"NoteNumber":56,"Velocity":19,"Duration":152284,"SoundDuration":152284,"Delta":189256714},{"NoteNumber":84,"Velocity":24,"Duration":152284,"SoundDuration":152284,"Delta":189561283},{"NoteNumber":80,"Velocity":24,"Duration":152284,"SoundDuration":152284,"Delta":189561283},{"NoteNumber":72,"Velocity":24,"Duration":152284,"SoundDuration":152284,"Delta":189561283},{"NoteNumber":31,"Velocity":27,"Duration":1182617,"SoundDuration":1182617,"Delta":189865851},{"NoteNumber":84,"Velocity":29,"Duration":292683,"SoundDuration":292683,"Delta":190170420},{"NoteNumber":79,"Velocity":29,"Duration":878049,"SoundDuration":878049,"Delta":190170420},{"NoteNumber":75,"Velocity":29,"Duration":292683,"SoundDuration":292683,"Delta":190170420},{"NoteNumber":83,"Velocity":29,"Duration":292682,"SoundDuration":292682,"Delta":190463103},{"NoteNumber":74,"Velocity":29,"Duration":292682,"SoundDuration":292682,"Delta":190463103},{"NoteNumber":48,"Velocity":18,"Duration":585365,"SoundDuration":585365,"Delta":190463103},{"NoteNumber":75,"Velocity":28,"Duration":292683,"SoundDuration":292683,"Delta":190755786},{"NoteNumber":84,"Velocity":28,"Duration":292683,"SoundDuration":292683,"Delta":190755786},{"NoteNumber":43,"Velocity":24,"Duration":1114600,"SoundDuration":1114600,"Delta":191048469},{"NoteNumber":51,"Velocity":24,"Duration":566655,"SoundDuration":566655,"Delta":191048469},{"NoteNumber":72,"Velocity":26,"Duration":821917,"SoundDuration":821917,"Delta":191341152},{"NoteNumber":79,"Velocity":26,"Duration":273972,"SoundDuration":273972,"Delta":191341152},{"NoteNumber":75,"Velocity":26,"Duration":273972,"SoundDuration":273972,"Delta":191341152},{"NoteNumber":74,"Velocity":26,"Duration":273972,"SoundDuration":273972,"Delta":191615124},{"NoteNumber":77,"Velocity":26,"Duration":273972,"SoundDuration":273972,"Delta":191615124},{"NoteNumber":55,"Velocity":19,"Duration":1625488,"SoundDuration":1625488,"Delta":191615124},{"NoteNumber":75,"Velocity":25,"Duration":273972,"SoundDuration":273972,"Delta":191889097},{"NoteNumber":79,"Velocity":25,"Duration":273972,"SoundDuration":273972,"Delta":191889097},{"NoteNumber":60,"Velocity":22,"Duration":541829,"SoundDuration":541829,"Delta":192163069},{"NoteNumber":75,"Velocity":26,"Duration":267856,"SoundDuration":267856,"Delta":192437042},{"NoteNumber":67,"Velocity":26,"Duration":803571,"SoundDuration":803571,"Delta":192437042},{"NoteNumber":72,"Velocity":26,"Duration":267856,"SoundDuration":267856,"Delta":192437042},{"NoteNumber":71,"Velocity":26,"Duration":267857,"SoundDuration":267857,"Delta":192704899},{"NoteNumber":74,"Velocity":26,"Duration":267857,"SoundDuration":267857,"Delta":192704899},{"NoteNumber":63,"Velocity":20,"Duration":535714,"SoundDuration":535714,"Delta":192704899},{"NoteNumber":72,"Velocity":26,"Duration":267856,"SoundDuration":267856,"Delta":192972756},{"NoteNumber":75,"Velocity":26,"Duration":267856,"SoundDuration":267856,"Delta":192972756},{"NoteNumber":72,"Velocity":29,"Duration":550458,"SoundDuration":550458,"Delta":193240613},{"NoteNumber":68,"Velocity":29,"Duration":550458,"SoundDuration":550458,"Delta":193240613},{"NoteNumber":31,"Velocity":22,"Duration":1100918,"SoundDuration":1100918,"Delta":193240613},{"NoteNumber":68,"Velocity":27,"Duration":550459,"SoundDuration":550459,"Delta":193791072},{"NoteNumber":65,"Velocity":27,"Duration":550459,"SoundDuration":550459,"Delta":193791072},{"NoteNumber":72,"Velocity":27,"Duration":550459,"SoundDuration":550459,"Delta":193791072},{"NoteNumber":72,"Velocity":26,"Duration":582524,"SoundDuration":582524,"Delta":194341531},{"NoteNumber":68,"Velocity":26,"Duration":582524,"SoundDuration":582524,"Delta":194341531},{"NoteNumber":60,"Velocity":26,"Duration":582524,"SoundDuration":582524,"Delta":194341531},{"NoteNumber":43,"Velocity":18,"Duration":1165048,"SoundDuration":1165048,"Delta":194341531},{"NoteNumber":65,"Velocity":25,"Duration":582524,"SoundDuration":582524,"Delta":194924055},{"NoteNumber":73,"Velocity":25,"Duration":582524,"SoundDuration":582524,"Delta":194924055},{"NoteNumber":56,"Velocity":17,"Duration":582524,"SoundDuration":582524,"Delta":194924055},{"NoteNumber":31,"Velocity":24,"Duration":1145070,"SoundDuration":1145070,"Delta":195506579},{"NoteNumber":80,"Velocity":29,"Duration":845069,"SoundDuration":845069,"Delta":195806579},{"NoteNumber":86,"Velocity":29,"Duration":281689,"SoundDuration":281689,"Delta":195806579},{"NoteNumber":77,"Velocity":29,"Duration":281689,"SoundDuration":281689,"Delta":195806579},{"NoteNumber":84,"Velocity":29,"Duration":281689,"SoundDuration":281689,"Delta":196088269},{"NoteNumber":75,"Velocity":29,"Duration":281689,"SoundDuration":281689,"Delta":196088269},{"NoteNumber":50,"Velocity":18,"Duration":563379,"SoundDuration":563379,"Delta":196088269},{"NoteNumber":77,"Velocity":27,"Duration":281689,"SoundDuration":281689,"Delta":196369959},{"NoteNumber":86,"Velocity":27,"Duration":281689,"SoundDuration":281689,"Delta":196369959},{"NoteNumber":43,"Velocity":19,"Duration":1103607,"SoundDuration":1103607,"Delta":196651649},{"NoteNumber":55,"Velocity":19,"Duration":555662,"SoundDuration":555662,"Delta":196651649},{"NoteNumber":82,"Velocity":26,"Duration":273972,"SoundDuration":273972,"Delta":196933339},{"NoteNumber":79,"Velocity":26,"Duration":273972,"SoundDuration":273972,"Delta":196933339},{"NoteNumber":74,"Velocity":26,"Duration":821917,"SoundDuration":821917,"Delta":196933339},{"NoteNumber":77,"Velocity":26,"Duration":273972,"SoundDuration":273972,"Delta":197207311},{"NoteNumber":80,"Velocity":26,"Duration":273972,"SoundDuration":273972,"Delta":197207311},{"NoteNumber":58,"Velocity":19,"Duration":547944,"SoundDuration":547944,"Delta":197207311},{"NoteNumber":82,"Velocity":26,"Duration":273972,"SoundDuration":273972,"Delta":197481284},{"NoteNumber":79,"Velocity":26,"Duration":273972,"SoundDuration":273972,"Delta":197481284},{"NoteNumber":55,"Velocity":20,"Duration":1077543,"SoundDuration":1077543,"Delta":197755256},{"NoteNumber":63,"Velocity":20,"Duration":541829,"SoundDuration":541829,"Delta":197755256},{"NoteNumber":79,"Velocity":26,"Duration":267856,"SoundDuration":267856,"Delta":198029229},{"NoteNumber":70,"Velocity":26,"Duration":803571,"SoundDuration":803571,"Delta":198029229},{"NoteNumber":75,"Velocity":26,"Duration":267856,"SoundDuration":267856,"Delta":198029229},{"NoteNumber":77,"Velocity":26,"Duration":267857,"SoundDuration":267857,"Delta":198297086},{"NoteNumber":74,"Velocity":26,"Duration":267857,"SoundDuration":267857,"Delta":198297086},{"NoteNumber":67,"Velocity":20,"Duration":535714,"SoundDuration":535714,"Delta":198297086},{"NoteNumber":75,"Velocity":26,"Duration":267856,"SoundDuration":267856,"Delta":198564943},{"NoteNumber":79,"Velocity":26,"Duration":267856,"SoundDuration":267856,"Delta":198564943},{"NoteNumber":75,"Velocity":29,"Duration":550458,"SoundDuration":550458,"Delta":198832800},{"NoteNumber":72,"Velocity":29,"Duration":550458,"SoundDuration":550458,"Delta":198832800},{"NoteNumber":31,"Velocity":22,"Duration":1100918,"SoundDuration":1100918,"Delta":198832800},{"NoteNumber":68,"Velocity":27,"Duration":550459,"SoundDuration":550459,"Delta":199383259},{"NoteNumber":75,"Velocity":27,"Duration":550459,"SoundDuration":550459,"Delta":199383259},{"NoteNumber":72,"Velocity":27,"Duration":550459,"SoundDuration":550459,"Delta":199383259},{"NoteNumber":72,"Velocity":26,"Duration":568720,"SoundDuration":568720,"Delta":199933718},{"NoteNumber":75,"Velocity":26,"Duration":568720,"SoundDuration":568720,"Delta":199933718},{"NoteNumber":63,"Velocity":26,"Duration":568720,"SoundDuration":568720,"Delta":199933718},{"NoteNumber":43,"Velocity":18,"Duration":1137439,"SoundDuration":1137439,"Delta":199933718},{"NoteNumber":68,"Velocity":25,"Duration":568719,"SoundDuration":568719,"Delta":200502438},{"NoteNumber":77,"Velocity":25,"Duration":568719,"SoundDuration":568719,"Delta":200502438},{"NoteNumber":60,"Velocity":17,"Duration":568719,"SoundDuration":568719,"Delta":200502438},{"NoteNumber":31,"Velocity":22,"Duration":1126017,"SoundDuration":1126017,"Delta":201071158},{"NoteNumber":86,"Velocity":29,"Duration":833334,"SoundDuration":833334,"Delta":201363841},{"NoteNumber":91,"Velocity":29,"Duration":277778,"SoundDuration":277778,"Delta":201363841},{"NoteNumber":82,"Velocity":29,"Duration":277778,"SoundDuration":277778,"Delta":201363841},{"NoteNumber":89,"Velocity":29,"Duration":277777,"SoundDuration":277777,"Delta":201641619},{"NoteNumber":80,"Velocity":29,"Duration":277777,"SoundDuration":277777,"Delta":201641619},{"NoteNumber":55,"Velocity":18,"Duration":555555,"SoundDuration":555555,"Delta":201641619},{"NoteNumber":82,"Velocity":27,"Duration":277778,"SoundDuration":277778,"Delta":201919397},{"NoteNumber":91,"Velocity":27,"Duration":277778,"SoundDuration":277778,"Delta":201919397},{"NoteNumber":43,"Velocity":20,"Duration":1377473,"SoundDuration":1377473,"Delta":201919397},{"NoteNumber":60,"Velocity":20,"Duration":551750,"SoundDuration":551750,"Delta":202197175},{"NoteNumber":84,"Velocity":26,"Duration":273972,"SoundDuration":273972,"Delta":202474953},{"NoteNumber":87,"Velocity":26,"Duration":273972,"SoundDuration":273972,"Delta":202474953},{"NoteNumber":79,"Velocity":26,"Duration":821917,"SoundDuration":821917,"Delta":202474953},{"NoteNumber":82,"Velocity":26,"Duration":273972,"SoundDuration":273972,"Delta":202748925},{"NoteNumber":86,"Velocity":26,"Duration":273972,"SoundDuration":273972,"Delta":202748925},{"NoteNumber":63,"Velocity":19,"Duration":547944,"SoundDuration":547944,"Delta":202748925},{"NoteNumber":87,"Velocity":26,"Duration":273972,"SoundDuration":273972,"Delta":203022898},{"NoteNumber":84,"Velocity":26,"Duration":273972,"SoundDuration":273972,"Delta":203022898},{"NoteNumber":55,"Velocity":18,"Duration":1077543,"SoundDuration":1077543,"Delta":203296870},{"NoteNumber":68,"Velocity":18,"Duration":541829,"SoundDuration":541829,"Delta":203296870},{"NoteNumber":84,"Velocity":26,"Duration":267856,"SoundDuration":267856,"Delta":203570843},{"NoteNumber":75,"Velocity":26,"Duration":803571,"SoundDuration":803571,"Delta":203570843},{"NoteNumber":80,"Velocity":26,"Duration":267856,"SoundDuration":267856,"Delta":203570843},{"NoteNumber":82,"Velocity":26,"Duration":267857,"SoundDuration":267857,"Delta":203838700},{"NoteNumber":79,"Velocity":26,"Duration":267857,"SoundDuration":267857,"Delta":203838700},{"NoteNumber":72,"Velocity":20,"Duration":535714,"SoundDuration":535714,"Delta":203838700},{"NoteNumber":80,"Velocity":26,"Duration":267856,"SoundDuration":267856,"Delta":204106557},{"NoteNumber":84,"Velocity":26,"Duration":267856,"SoundDuration":267856,"Delta":204106557},{"NoteNumber":80,"Velocity":30,"Duration":550458,"SoundDuration":550458,"Delta":204374414},{"NoteNumber":77,"Velocity":30,"Duration":550458,"SoundDuration":550458,"Delta":204374414},{"NoteNumber":31,"Velocity":22,"Duration":1100918,"SoundDuration":1100918,"Delta":204374414},{"NoteNumber":80,"Velocity":30,"Duration":550459,"SoundDuration":550459,"Delta":204924873},{"NoteNumber":74,"Velocity":30,"Duration":550459,"SoundDuration":550459,"Delta":204924873},{"NoteNumber":77,"Velocity":30,"Duration":550459,"SoundDuration":550459,"Delta":204924873},{"NoteNumber":77,"Velocity":30,"Duration":550458,"SoundDuration":550458,"Delta":205475332},{"NoteNumber":80,"Velocity":30,"Duration":550458,"SoundDuration":550458,"Delta":205475332},{"NoteNumber":68,"Velocity":30,"Duration":550458,"SoundDuration":550458,"Delta":205475332},{"NoteNumber":43,"Velocity":22,"Duration":1100917,"SoundDuration":1100917,"Delta":205475332},{"NoteNumber":74,"Velocity":30,"Duration":550458,"SoundDuration":550458,"Delta":206025791},{"NoteNumber":80,"Velocity":30,"Duration":550458,"SoundDuration":550458,"Delta":206025791},{"NoteNumber":65,"Velocity":22,"Duration":550458,"SoundDuration":550458,"Delta":206025791},{"NoteNumber":72,"Velocity":29,"Duration":550459,"SoundDuration":550459,"Delta":206576250},{"NoteNumber":75,"Velocity":29,"Duration":550459,"SoundDuration":550459,"Delta":206576250},{"NoteNumber":78,"Velocity":29,"Duration":550459,"SoundDuration":550459,"Delta":206576250},{"NoteNumber":81,"Velocity":29,"Duration":550459,"SoundDuration":550459,"Delta":206576250},{"NoteNumber":63,"Velocity":22,"Duration":550459,"SoundDuration":550459,"Delta":206576250},{"NoteNumber":55,"Velocity":22,"Duration":1651377,"SoundDuration":1651377,"Delta":206576250},{"NoteNumber":78,"Velocity":28,"Duration":550458,"SoundDuration":550458,"Delta":207126709},{"NoteNumber":81,"Velocity":28,"Duration":550458,"SoundDuration":550458,"Delta":207126709},{"NoteNumber":72,"Velocity":28,"Duration":550458,"SoundDuration":550458,"Delta":207126709},{"NoteNumber":75,"Velocity":28,"Duration":550458,"SoundDuration":550458,"Delta":207126709},{"NoteNumber":60,"Velocity":22,"Duration":550458,"SoundDuration":550458,"Delta":207126709},{"NoteNumber":72,"Velocity":30,"Duration":550459,"SoundDuration":550459,"Delta":207677168},{"NoteNumber":75,"Velocity":30,"Duration":550459,"SoundDuration":550459,"Delta":207677168},{"NoteNumber":78,"Velocity":30,"Duration":550459,"SoundDuration":550459,"Delta":207677168},{"NoteNumber":81,"Velocity":30,"Duration":550459,"SoundDuration":550459,"Delta":207677168},{"NoteNumber":57,"Velocity":22,"Duration":550459,"SoundDuration":550459,"Delta":207677168},{"NoteNumber":78,"Velocity":30,"Duration":550458,"SoundDuration":550458,"Delta":208227627},{"NoteNumber":72,"Velocity":30,"Duration":550458,"SoundDuration":550458,"Delta":208227627},{"NoteNumber":75,"Velocity":30,"Duration":550458,"SoundDuration":550458,"Delta":208227627},{"NoteNumber":81,"Velocity":30,"Duration":550458,"SoundDuration":550458,"Delta":208227627},{"NoteNumber":54,"Velocity":22,"Duration":412844,"SoundDuration":412844,"Delta":208227627},{"NoteNumber":43,"Velocity":17,"Duration":268049,"SoundDuration":268049,"Delta":208640471},{"NoteNumber":48,"Velocity":17,"Duration":199242,"SoundDuration":199242,"Delta":208709278},{"NoteNumber":51,"Velocity":28,"Duration":130434,"SoundDuration":130434,"Delta":208778086},{"NoteNumber":43,"Velocity":24,"Duration":260869,"SoundDuration":260869,"Delta":209169390},{"NoteNumber":48,"Velocity":24,"Duration":195652,"SoundDuration":195652,"Delta":209234607},{"NoteNumber":87,"Velocity":31,"Duration":130434,"SoundDuration":130434,"Delta":209299825},{"NoteNumber":51,"Velocity":29,"Duration":130434,"SoundDuration":130434,"Delta":209299825},{"NoteNumber":84,"Velocity":30,"Duration":130434,"SoundDuration":130434,"Delta":209430260},{"NoteNumber":81,"Velocity":34,"Duration":130434,"SoundDuration":130434,"Delta":209560694},{"NoteNumber":78,"Velocity":34,"Duration":130434,"SoundDuration":130434,"Delta":209691129},{"NoteNumber":43,"Velocity":26,"Duration":260869,"SoundDuration":260869,"Delta":209691129},{"NoteNumber":48,"Velocity":26,"Duration":195652,"SoundDuration":195652,"Delta":209756346},{"NoteNumber":72,"Velocity":37,"Duration":130434,"SoundDuration":130434,"Delta":209821564},{"NoteNumber":51,"Velocity":29,"Duration":130434,"SoundDuration":130434,"Delta":209821564},{"NoteNumber":69,"Velocity":36,"Duration":130434,"SoundDuration":130434,"Delta":209951999},{"NoteNumber":66,"Velocity":39,"Duration":130434,"SoundDuration":130434,"Delta":210082433},{"NoteNumber":63,"Velocity":38,"Duration":130434,"SoundDuration":130434,"Delta":210212868},{"NoteNumber":43,"Velocity":26,"Duration":260869,"SoundDuration":260869,"Delta":210212868},{"NoteNumber":48,"Velocity":26,"Duration":195652,"SoundDuration":195652,"Delta":210278085},{"NoteNumber":51,"Velocity":30,"Duration":130434,"SoundDuration":130434,"Delta":210343303},{"NoteNumber":57,"Velocity":30,"Duration":130434,"SoundDuration":130434,"Delta":210343303},{"NoteNumber":54,"Velocity":35,"Duration":130434,"SoundDuration":130434,"Delta":210473738},{"NoteNumber":51,"Velocity":37,"Duration":130434,"SoundDuration":130434,"Delta":210604172},{"NoteNumber":48,"Velocity":39,"Duration":130434,"SoundDuration":130434,"Delta":210734607},{"NoteNumber":43,"Velocity":41,"Duration":563379,"SoundDuration":563379,"Delta":210865042},{"NoteNumber":55,"Velocity":41,"Duration":563379,"SoundDuration":563379,"Delta":210865042},{"NoteNumber":41,"Velocity":27,"Duration":563379,"SoundDuration":563379,"Delta":211428422},{"NoteNumber":43,"Velocity":27,"Duration":563379,"SoundDuration":563379,"Delta":211428422},{"NoteNumber":55,"Velocity":27,"Duration":563379,"SoundDuration":563379,"Delta":211428422},{"NoteNumber":39,"Velocity":27,"Duration":563379,"SoundDuration":563379,"Delta":211991802},{"NoteNumber":43,"Velocity":27,"Duration":563379,"SoundDuration":563379,"Delta":211991802},{"NoteNumber":55,"Velocity":27,"Duration":563379,"SoundDuration":563379,"Delta":211991802},{"NoteNumber":38,"Velocity":27,"Duration":535714,"SoundDuration":535714,"Delta":212555182},{"NoteNumber":43,"Velocity":27,"Duration":535714,"SoundDuration":535714,"Delta":212555182},{"NoteNumber":53,"Velocity":27,"Duration":535714,"SoundDuration":535714,"Delta":212555182},{"NoteNumber":55,"Velocity":27,"Duration":535714,"SoundDuration":535714,"Delta":212555182},{"NoteNumber":51,"Velocity":27,"Duration":535713,"SoundDuration":535713,"Delta":213090896},{"NoteNumber":55,"Velocity":27,"Duration":535713,"SoundDuration":535713,"Delta":213090896},{"NoteNumber":36,"Velocity":27,"Duration":535713,"SoundDuration":535713,"Delta":213090896},{"NoteNumber":43,"Velocity":27,"Duration":535713,"SoundDuration":535713,"Delta":213090896},{"NoteNumber":35,"Velocity":26,"Duration":552995,"SoundDuration":552995,"Delta":213626610},{"NoteNumber":39,"Velocity":26,"Duration":552995,"SoundDuration":552995,"Delta":213626610},{"NoteNumber":47,"Velocity":26,"Duration":552995,"SoundDuration":552995,"Delta":213626610},{"NoteNumber":51,"Velocity":26,"Duration":552995,"SoundDuration":552995,"Delta":213626610},{"NoteNumber":57,"Velocity":26,"Duration":552995,"SoundDuration":552995,"Delta":213626610},{"NoteNumber":34,"Velocity":26,"Duration":782608,"SoundDuration":782608,"Delta":214179605},{"NoteNumber":41,"Velocity":26,"Duration":1043477,"SoundDuration":1043477,"Delta":214179605},{"NoteNumber":46,"Velocity":26,"Duration":2086955,"SoundDuration":2086955,"Delta":214179605},{"NoteNumber":50,"Velocity":26,"Duration":2086955,"SoundDuration":2086955,"Delta":214179605},{"NoteNumber":58,"Velocity":26,"Duration":2086955,"SoundDuration":2086955,"Delta":214179605},{"NoteNumber":101,"Velocity":45,"Duration":130434,"SoundDuration":130434,"Delta":214701344},{"NoteNumber":22,"Velocity":25,"Duration":260869,"SoundDuration":260869,"Delta":214701344},{"NoteNumber":34,"Velocity":25,"Duration":521738,"SoundDuration":521738,"Delta":214701344},{"NoteNumber":98,"Velocity":41,"Duration":130434,"SoundDuration":130434,"Delta":214831779},{"NoteNumber":89,"Velocity":35,"Duration":130434,"SoundDuration":130434,"Delta":214962213},{"NoteNumber":85,"Velocity":33,"Duration":130434,"SoundDuration":130434,"Delta":215092648},{"NoteNumber":86,"Velocity":35,"Duration":130434,"SoundDuration":130434,"Delta":215223083},{"NoteNumber":22,"Velocity":25,"Duration":260869,"SoundDuration":260869,"Delta":215223083},{"NoteNumber":34,"Velocity":25,"Duration":260869,"SoundDuration":260869,"Delta":215223083},{"NoteNumber":82,"Velocity":33,"Duration":130434,"SoundDuration":130434,"Delta":215353518},{"NoteNumber":74,"Velocity":35,"Duration":130434,"SoundDuration":130434,"Delta":215483952},{"NoteNumber":69,"Velocity":35,"Duration":130434,"SoundDuration":130434,"Delta":215614387},{"NoteNumber":70,"Velocity":35,"Duration":130434,"SoundDuration":130434,"Delta":215744822},{"NoteNumber":22,"Velocity":25,"Duration":260869,"SoundDuration":260869,"Delta":215744822},{"NoteNumber":34,"Velocity":25,"Duration":260869,"SoundDuration":260869,"Delta":215744822},{"NoteNumber":65,"Velocity":33,"Duration":130434,"SoundDuration":130434,"Delta":215875257},{"NoteNumber":62,"Velocity":35,"Duration":130434,"SoundDuration":130434,"Delta":216005691},{"NoteNumber":60,"Velocity":33,"Duration":130434,"SoundDuration":130434,"Delta":216136126},{"NoteNumber":46,"Velocity":25,"Duration":550458,"SoundDuration":550458,"Delta":216266561},{"NoteNumber":58,"Velocity":25,"Duration":550458,"SoundDuration":550458,"Delta":216266561},{"NoteNumber":42,"Velocity":25,"Duration":550459,"SoundDuration":550459,"Delta":216817020},{"NoteNumber":58,"Velocity":25,"Duration":550459,"SoundDuration":550459,"Delta":216817020},{"NoteNumber":39,"Velocity":25,"Duration":560747,"SoundDuration":560747,"Delta":217367479},{"NoteNumber":54,"Velocity":25,"Duration":560747,"SoundDuration":560747,"Delta":217367479},{"NoteNumber":58,"Velocity":25,"Duration":560747,"SoundDuration":560747,"Delta":217367479},{"NoteNumber":35,"Velocity":22,"Duration":560748,"SoundDuration":560748,"Delta":217928227},{"NoteNumber":51,"Velocity":22,"Duration":560748,"SoundDuration":560748,"Delta":217928227},{"NoteNumber":54,"Velocity":22,"Duration":560748,"SoundDuration":560748,"Delta":217928227},{"NoteNumber":59,"Velocity":22,"Duration":560748,"SoundDuration":560748,"Delta":217928227},{"NoteNumber":32,"Velocity":22,"Duration":547263,"SoundDuration":547263,"Delta":218488975},{"NoteNumber":51,"Velocity":22,"Duration":547263,"SoundDuration":547263,"Delta":218488975},{"NoteNumber":56,"Velocity":22,"Duration":547263,"SoundDuration":547263,"Delta":218488975},{"NoteNumber":59,"Velocity":22,"Duration":547263,"SoundDuration":547263,"Delta":218488975},{"NoteNumber":28,"Velocity":18,"Duration":641710,"SoundDuration":641710,"Delta":219085990},{"NoteNumber":40,"Velocity":18,"Duration":641710,"SoundDuration":641710,"Delta":219085990},{"NoteNumber":56,"Velocity":18,"Duration":641710,"SoundDuration":641710,"Delta":219085990},{"NoteNumber":59,"Velocity":18,"Duration":641710,"SoundDuration":641710,"Delta":219085990},{"NoteNumber":64,"Velocity":18,"Duration":641710,"SoundDuration":641710,"Delta":219085990},{"NoteNumber":35,"Velocity":18,"Duration":782608,"SoundDuration":782608,"Delta":219727701},{"NoteNumber":47,"Velocity":18,"Duration":1043477,"SoundDuration":1043477,"Delta":219727701},{"NoteNumber":54,"Velocity":18,"Duration":2086955,"SoundDuration":2086955,"Delta":219727701},{"NoteNumber":59,"Velocity":18,"Duration":2086955,"SoundDuration":2086955,"Delta":219727701},{"NoteNumber":63,"Velocity":18,"Duration":1956521,"SoundDuration":1956521,"Delta":219727701},{"NoteNumber":102,"Velocity":48,"Duration":130434,"SoundDuration":130434,"Delta":220249440},{"NoteNumber":23,"Velocity":25,"Duration":260869,"SoundDuration":260869,"Delta":220249440},{"NoteNumber":35,"Velocity":25,"Duration":521738,"SoundDuration":521738,"Delta":220249440},{"NoteNumber":99,"Velocity":35,"Duration":130434,"SoundDuration":130434,"Delta":220379875},{"NoteNumber":90,"Velocity":35,"Duration":130434,"SoundDuration":130434,"Delta":220510309},{"NoteNumber":86,"Velocity":31,"Duration":130434,"SoundDuration":130434,"Delta":220640744},{"NoteNumber":87,"Velocity":35,"Duration":130434,"SoundDuration":130434,"Delta":220771179},{"NoteNumber":23,"Velocity":25,"Duration":260869,"SoundDuration":260869,"Delta":220771179},{"NoteNumber":35,"Velocity":25,"Duration":260869,"SoundDuration":260869,"Delta":220771179},{"NoteNumber":83,"Velocity":33,"Duration":130434,"SoundDuration":130434,"Delta":220901614},{"NoteNumber":75,"Velocity":35,"Duration":130434,"SoundDuration":130434,"Delta":221032048},{"NoteNumber":70,"Velocity":35,"Duration":130434,"SoundDuration":130434,"Delta":221162483},{"NoteNumber":71,"Velocity":35,"Duration":130434,"SoundDuration":130434,"Delta":221292918},{"NoteNumber":23,"Velocity":25,"Duration":260869,"SoundDuration":260869,"Delta":221292918},{"NoteNumber":35,"Velocity":25,"Duration":260869,"SoundDuration":260869,"Delta":221292918},{"NoteNumber":66,"Velocity":33,"Duration":130434,"SoundDuration":130434,"Delta":221423353},{"NoteNumber":63,"Velocity":35,"Duration":260869,"SoundDuration":260869,"Delta":221553787},{"NoteNumber":61,"Velocity":33,"Duration":130434,"SoundDuration":130434,"Delta":221684222},{"NoteNumber":47,"Velocity":27,"Duration":535714,"SoundDuration":535714,"Delta":221814657},{"NoteNumber":59,"Velocity":27,"Duration":535714,"SoundDuration":535714,"Delta":221814657},{"NoteNumber":47,"Velocity":27,"Duration":555555,"SoundDuration":555555,"Delta":222350371},{"NoteNumber":59,"Velocity":27,"Duration":555555,"SoundDuration":555555,"Delta":222350371},{"NoteNumber":45,"Velocity":27,"Duration":555555,"SoundDuration":555555,"Delta":222350371},{"NoteNumber":43,"Velocity":27,"Duration":555555,"SoundDuration":555555,"Delta":222905927},{"NoteNumber":47,"Velocity":27,"Duration":555555,"SoundDuration":555555,"Delta":222905927},{"NoteNumber":59,"Velocity":27,"Duration":555555,"SoundDuration":555555,"Delta":222905927},{"NoteNumber":42,"Velocity":30,"Duration":555555,"SoundDuration":555555,"Delta":223461483},{"NoteNumber":47,"Velocity":30,"Duration":555555,"SoundDuration":555555,"Delta":223461483},{"NoteNumber":59,"Velocity":30,"Duration":555555,"SoundDuration":555555,"Delta":223461483},{"NoteNumber":57,"Velocity":30,"Duration":555555,"SoundDuration":555555,"Delta":223461483},{"NoteNumber":40,"Velocity":30,"Duration":574162,"SoundDuration":574162,"Delta":224017039},{"NoteNumber":47,"Velocity":30,"Duration":574162,"SoundDuration":574162,"Delta":224017039},{"NoteNumber":55,"Velocity":30,"Duration":574162,"SoundDuration":574162,"Delta":224017039},{"NoteNumber":59,"Velocity":30,"Duration":574162,"SoundDuration":574162,"Delta":224017039},{"NoteNumber":38,"Velocity":29,"Duration":615385,"SoundDuration":615385,"Delta":224591202},{"NoteNumber":42,"Velocity":29,"Duration":615385,"SoundDuration":615385,"Delta":224591202},{"NoteNumber":50,"Velocity":29,"Duration":615385,"SoundDuration":615385,"Delta":224591202},{"NoteNumber":54,"Velocity":29,"Duration":615385,"SoundDuration":615385,"Delta":224591202},{"NoteNumber":60,"Velocity":29,"Duration":615385,"SoundDuration":615385,"Delta":224591202},{"NoteNumber":37,"Velocity":27,"Duration":782608,"SoundDuration":782608,"Delta":225206587},{"NoteNumber":44,"Velocity":27,"Duration":1043477,"SoundDuration":1043477,"Delta":225206587},{"NoteNumber":49,"Velocity":27,"Duration":1043477,"SoundDuration":1043477,"Delta":225206587},{"NoteNumber":53,"Velocity":27,"Duration":2086955,"SoundDuration":2086955,"Delta":225206587},{"NoteNumber":61,"Velocity":27,"Duration":2086955,"SoundDuration":2086955,"Delta":225206587},{"NoteNumber":104,"Velocity":52,"Duration":130434,"SoundDuration":130434,"Delta":225728326},{"NoteNumber":25,"Velocity":25,"Duration":260869,"SoundDuration":260869,"Delta":225728326},{"NoteNumber":37,"Velocity":25,"Duration":521738,"SoundDuration":521738,"Delta":225728326},{"NoteNumber":101,"Velocity":35,"Duration":130434,"SoundDuration":130434,"Delta":225858761},{"NoteNumber":92,"Velocity":35,"Duration":130434,"SoundDuration":130434,"Delta":225989195},{"NoteNumber":88,"Velocity":34,"Duration":130434,"SoundDuration":130434,"Delta":226119630},{"NoteNumber":89,"Velocity":35,"Duration":130434,"SoundDuration":130434,"Delta":226250065},{"NoteNumber":25,"Velocity":25,"Duration":260869,"SoundDuration":260869,"Delta":226250065},{"NoteNumber":37,"Velocity":25,"Duration":260869,"SoundDuration":260869,"Delta":226250065},{"NoteNumber":85,"Velocity":34,"Duration":130434,"SoundDuration":130434,"Delta":226380500},{"NoteNumber":77,"Velocity":35,"Duration":130434,"SoundDuration":130434,"Delta":226510934},{"NoteNumber":72,"Velocity":33,"Duration":130434,"SoundDuration":130434,"Delta":226641369},{"NoteNumber":73,"Velocity":35,"Duration":130434,"SoundDuration":130434,"Delta":226771804},{"NoteNumber":25,"Velocity":25,"Duration":260869,"SoundDuration":260869,"Delta":226771804},{"NoteNumber":37,"Velocity":25,"Duration":260869,"SoundDuration":260869,"Delta":226771804},{"NoteNumber":68,"Velocity":34,"Duration":130434,"SoundDuration":130434,"Delta":226902239},{"NoteNumber":65,"Velocity":35,"Duration":130434,"SoundDuration":130434,"Delta":227032673},{"NoteNumber":63,"Velocity":34,"Duration":130434,"SoundDuration":130434,"Delta":227163108},{"NoteNumber":49,"Velocity":30,"Duration":521739,"SoundDuration":521739,"Delta":227293543},{"NoteNumber":61,"Velocity":30,"Duration":516304,"SoundDuration":516304,"Delta":227293543},{"NoteNumber":73,"Velocity":41,"Duration":533332,"SoundDuration":533332,"Delta":227815282},{"NoteNumber":61,"Velocity":41,"Duration":533332,"SoundDuration":533332,"Delta":227815282},{"NoteNumber":46,"Velocity":30,"Duration":533332,"SoundDuration":533332,"Delta":227815282},{"NoteNumber":58,"Velocity":30,"Duration":533332,"SoundDuration":533332,"Delta":227815282},{"NoteNumber":73,"Velocity":41,"Duration":533332,"SoundDuration":533332,"Delta":228348615},{"NoteNumber":61,"Velocity":41,"Duration":533332,"SoundDuration":533332,"Delta":228348615},{"NoteNumber":70,"Velocity":41,"Duration":533332,"SoundDuration":533332,"Delta":228348615},{"NoteNumber":42,"Velocity":30,"Duration":533332,"SoundDuration":533332,"Delta":228348615},{"NoteNumber":46,"Velocity":30,"Duration":533332,"SoundDuration":533332,"Delta":228348615},{"NoteNumber":54,"Velocity":30,"Duration":533332,"SoundDuration":533332,"Delta":228348615},{"NoteNumber":70,"Velocity":52,"Duration":533735,"SoundDuration":533735,"Delta":228881948},{"NoteNumber":66,"Velocity":52,"Duration":533735,"SoundDuration":533735,"Delta":228881948},{"NoteNumber":75,"Velocity":52,"Duration":533735,"SoundDuration":533735,"Delta":228881948},{"NoteNumber":78,"Velocity":52,"Duration":533735,"SoundDuration":533735,"Delta":228881948},{"NoteNumber":39,"Velocity":40,"Duration":533735,"SoundDuration":533735,"Delta":228881948},{"NoteNumber":46,"Velocity":40,"Duration":533735,"SoundDuration":533735,"Delta":228881948},{"NoteNumber":51,"Velocity":40,"Duration":533735,"SoundDuration":533735,"Delta":228881948},{"NoteNumber":66,"Velocity":57,"Duration":542986,"SoundDuration":542986,"Delta":229415683},{"NoteNumber":78,"Velocity":57,"Duration":542986,"SoundDuration":542986,"Delta":229415683},{"NoteNumber":71,"Velocity":57,"Duration":542986,"SoundDuration":542986,"Delta":229415683},{"NoteNumber":75,"Velocity":57,"Duration":542986,"SoundDuration":542986,"Delta":229415683},{"NoteNumber":35,"Velocity":44,"Duration":542986,"SoundDuration":542986,"Delta":229415683},{"NoteNumber":39,"Velocity":44,"Duration":542986,"SoundDuration":542986,"Delta":229415683},{"NoteNumber":47,"Velocity":44,"Duration":542986,"SoundDuration":542986,"Delta":229415683},{"NoteNumber":83,"Velocity":63,"Duration":555555,"SoundDuration":555555,"Delta":229958669},{"NoteNumber":80,"Velocity":63,"Duration":555555,"SoundDuration":555555,"Delta":229958669},{"NoteNumber":75,"Velocity":63,"Duration":555555,"SoundDuration":555555,"Delta":229958669},{"NoteNumber":71,"Velocity":63,"Duration":555555,"SoundDuration":555555,"Delta":229958669},{"NoteNumber":32,"Velocity":50,"Duration":555555,"SoundDuration":555555,"Delta":229958669},{"NoteNumber":39,"Velocity":50,"Duration":555555,"SoundDuration":555555,"Delta":229958669},{"NoteNumber":44,"Velocity":50,"Duration":555555,"SoundDuration":555555,"Delta":229958669},{"NoteNumber":70,"Velocity":63,"Duration":1043477,"SoundDuration":1043477,"Delta":230514225},{"NoteNumber":74,"Velocity":63,"Duration":1043477,"SoundDuration":1043477,"Delta":230514225},{"NoteNumber":77,"Velocity":63,"Duration":1043477,"SoundDuration":1043477,"Delta":230514225},{"NoteNumber":82,"Velocity":63,"Duration":1043477,"SoundDuration":1043477,"Delta":230514225},{"NoteNumber":34,"Velocity":51,"Duration":1043477,"SoundDuration":1043477,"Delta":230514225},{"NoteNumber":38,"Velocity":51,"Duration":1043477,"SoundDuration":1043477,"Delta":230514225},{"NoteNumber":41,"Velocity":51,"Duration":1043477,"SoundDuration":1043477,"Delta":230514225},{"NoteNumber":46,"Velocity":51,"Duration":1043477,"SoundDuration":1043477,"Delta":230514225},{"NoteNumber":101,"Velocity":70,"Duration":130434,"SoundDuration":130434,"Delta":231035964},{"NoteNumber":58,"Velocity":41,"Duration":1055336,"SoundDuration":1055336,"Delta":231035964},{"NoteNumber":62,"Velocity":41,"Duration":1055336,"SoundDuration":1055336,"Delta":231035964},{"NoteNumber":65,"Velocity":41,"Duration":1055336,"SoundDuration":1055336,"Delta":231035964},{"NoteNumber":70,"Velocity":41,"Duration":521738,"SoundDuration":521738,"Delta":231035964},{"NoteNumber":98,"Velocity":56,"Duration":130434,"SoundDuration":130434,"Delta":231166399},{"NoteNumber":89,"Velocity":56,"Duration":130434,"SoundDuration":130434,"Delta":231296834},{"NoteNumber":86,"Velocity":53,"Duration":130434,"SoundDuration":130434,"Delta":231427268},{"NoteNumber":82,"Velocity":56,"Duration":130434,"SoundDuration":130434,"Delta":231557703},{"NoteNumber":74,"Velocity":53,"Duration":130434,"SoundDuration":130434,"Delta":231688138},{"NoteNumber":70,"Velocity":56,"Duration":272727,"SoundDuration":272727,"Delta":231818573},{"NoteNumber":82,"Velocity":62,"Duration":521738,"SoundDuration":521738,"Delta":232091300},{"NoteNumber":90,"Velocity":62,"Duration":521738,"SoundDuration":521738,"Delta":232091300},{"NoteNumber":87,"Velocity":62,"Duration":521738,"SoundDuration":521738,"Delta":232091300},{"NoteNumber":78,"Velocity":62,"Duration":521738,"SoundDuration":521738,"Delta":232091300},{"NoteNumber":51,"Velocity":48,"Duration":521738,"SoundDuration":521738,"Delta":232091300},{"NoteNumber":54,"Velocity":48,"Duration":521738,"SoundDuration":521738,"Delta":232091300},{"NoteNumber":58,"Velocity":48,"Duration":521738,"SoundDuration":521738,"Delta":232091300},{"NoteNumber":63,"Velocity":48,"Duration":521738,"SoundDuration":521738,"Delta":232091300},{"NoteNumber":89,"Velocity":62,"Duration":1043477,"SoundDuration":1043477,"Delta":232613039},{"NoteNumber":86,"Velocity":62,"Duration":1043477,"SoundDuration":1043477,"Delta":232613039},{"NoteNumber":77,"Velocity":62,"Duration":1043477,"SoundDuration":1043477,"Delta":232613039},{"NoteNumber":82,"Velocity":62,"Duration":1043477,"SoundDuration":1043477,"Delta":232613039},{"NoteNumber":58,"Velocity":48,"Duration":1043477,"SoundDuration":1043477,"Delta":232613039},{"NoteNumber":62,"Velocity":48,"Duration":1043477,"SoundDuration":1043477,"Delta":232613039},{"NoteNumber":65,"Velocity":48,"Duration":1043477,"SoundDuration":1043477,"Delta":232613039},{"NoteNumber":70,"Velocity":48,"Duration":1043477,"SoundDuration":1043477,"Delta":232613039},{"NoteNumber":74,"Velocity":57,"Duration":1055336,"SoundDuration":1055336,"Delta":233134778},{"NoteNumber":70,"Velocity":57,"Duration":1055336,"SoundDuration":1055336,"Delta":233134778},{"NoteNumber":65,"Velocity":57,"Duration":521738,"SoundDuration":521738,"Delta":233134778},{"NoteNumber":77,"Velocity":57,"Duration":1055336,"SoundDuration":1055336,"Delta":233134778},{"NoteNumber":34,"Velocity":45,"Duration":130434,"SoundDuration":130434,"Delta":233134778},{"NoteNumber":41,"Velocity":44,"Duration":130434,"SoundDuration":130434,"Delta":233265213},{"NoteNumber":46,"Velocity":45,"Duration":130434,"SoundDuration":130434,"Delta":233395648},{"NoteNumber":50,"Velocity":44,"Duration":130434,"SoundDuration":130434,"Delta":233526082},{"NoteNumber":58,"Velocity":45,"Duration":130434,"SoundDuration":130434,"Delta":233656517},{"NoteNumber":62,"Velocity":44,"Duration":130434,"SoundDuration":130434,"Delta":233786952},{"NoteNumber":65,"Velocity":45,"Duration":272727,"SoundDuration":272727,"Delta":233917387},{"NoteNumber":87,"Velocity":67,"Duration":521738,"SoundDuration":521738,"Delta":234190114},{"NoteNumber":83,"Velocity":67,"Duration":521738,"SoundDuration":521738,"Delta":234190114},{"NoteNumber":78,"Velocity":67,"Duration":521738,"SoundDuration":521738,"Delta":234190114},{"NoteNumber":75,"Velocity":67,"Duration":521738,"SoundDuration":521738,"Delta":234190114},{"NoteNumber":35,"Velocity":52,"Duration":521738,"SoundDuration":521738,"Delta":234190114},{"NoteNumber":39,"Velocity":52,"Duration":521738,"SoundDuration":521738,"Delta":234190114},{"NoteNumber":42,"Velocity":52,"Duration":521738,"SoundDuration":521738,"Delta":234190114},{"NoteNumber":47,"Velocity":52,"Duration":521738,"SoundDuration":521738,"Delta":234190114},{"NoteNumber":73,"Velocity":67,"Duration":1043477,"SoundDuration":1043477,"Delta":234711853},{"NoteNumber":85,"Velocity":67,"Duration":1043477,"SoundDuration":1043477,"Delta":234711853},{"NoteNumber":80,"Velocity":67,"Duration":1043477,"SoundDuration":1043477,"Delta":234711853},{"NoteNumber":77,"Velocity":67,"Duration":1043477,"SoundDuration":1043477,"Delta":234711853},{"NoteNumber":37,"Velocity":52,"Duration":1043477,"SoundDuration":1043477,"Delta":234711853},{"NoteNumber":41,"Velocity":52,"Duration":1043477,"SoundDuration":1043477,"Delta":234711853},{"NoteNumber":44,"Velocity":52,"Duration":1043477,"SoundDuration":1043477,"Delta":234711853},{"NoteNumber":49,"Velocity":52,"Duration":1043477,"SoundDuration":1043477,"Delta":234711853},{"NoteNumber":104,"Velocity":72,"Duration":130434,"SoundDuration":130434,"Delta":235233592},{"NoteNumber":61,"Velocity":53,"Duration":1043477,"SoundDuration":1043477,"Delta":235233592},{"NoteNumber":65,"Velocity":53,"Duration":1043477,"SoundDuration":1043477,"Delta":235233592},{"NoteNumber":68,"Velocity":53,"Duration":1043477,"SoundDuration":1043477,"Delta":235233592},{"NoteNumber":73,"Velocity":53,"Duration":521738,"SoundDuration":521738,"Delta":235233592},{"NoteNumber":101,"Velocity":68,"Duration":130434,"SoundDuration":130434,"Delta":235364027},{"NoteNumber":92,"Velocity":68,"Duration":130434,"SoundDuration":130434,"Delta":235494462},{"NoteNumber":89,"Velocity":66,"Duration":130434,"SoundDuration":130434,"Delta":235624896},{"NoteNumber":85,"Velocity":68,"Duration":130434,"SoundDuration":130434,"Delta":235755331},{"NoteNumber":77,"Velocity":67,"Duration":130434,"SoundDuration":130434,"Delta":235885766},{"NoteNumber":73,"Velocity":68,"Duration":260869,"SoundDuration":260869,"Delta":236016201},{"NoteNumber":94,"Velocity":76,"Duration":528634,"SoundDuration":528634,"Delta":236277070},{"NoteNumber":90,"Velocity":76,"Duration":528634,"SoundDuration":528634,"Delta":236277070},{"NoteNumber":85,"Velocity":69,"Duration":528634,"SoundDuration":528634,"Delta":236277070},{"NoteNumber":82,"Velocity":69,"Duration":528634,"SoundDuration":528634,"Delta":236277070},{"NoteNumber":54,"Velocity":52,"Duration":528634,"SoundDuration":528634,"Delta":236277070},{"NoteNumber":58,"Velocity":52,"Duration":528634,"SoundDuration":528634,"Delta":236277070},{"NoteNumber":61,"Velocity":52,"Duration":528634,"SoundDuration":528634,"Delta":236277070},{"NoteNumber":66,"Velocity":59,"Duration":528634,"SoundDuration":528634,"Delta":236277070},{"NoteNumber":85,"Velocity":69,"Duration":1050372,"SoundDuration":1050372,"Delta":236805704},{"NoteNumber":80,"Velocity":69,"Duration":1050372,"SoundDuration":1050372,"Delta":236805704},{"NoteNumber":89,"Velocity":76,"Duration":1050372,"SoundDuration":1050372,"Delta":236805704},{"NoteNumber":92,"Velocity":76,"Duration":1050372,"SoundDuration":1050372,"Delta":236805704},{"NoteNumber":61,"Velocity":52,"Duration":1050372,"SoundDuration":1050372,"Delta":236805704},{"NoteNumber":65,"Velocity":52,"Duration":1050372,"SoundDuration":1050372,"Delta":236805704},{"NoteNumber":68,"Velocity":59,"Duration":1050372,"SoundDuration":1050372,"Delta":236805704},{"NoteNumber":73,"Velocity":59,"Duration":1050372,"SoundDuration":1050372,"Delta":236805704},{"NoteNumber":68,"Velocity":73,"Duration":1043477,"SoundDuration":1043477,"Delta":237334338},{"NoteNumber":80,"Velocity":73,"Duration":1043477,"SoundDuration":1043477,"Delta":237334338},{"NoteNumber":77,"Velocity":73,"Duration":1043477,"SoundDuration":1043477,"Delta":237334338},{"NoteNumber":73,"Velocity":73,"Duration":1043477,"SoundDuration":1043477,"Delta":237334338},{"NoteNumber":37,"Velocity":55,"Duration":130434,"SoundDuration":130434,"Delta":237334338},{"NoteNumber":44,"Velocity":52,"Duration":130434,"SoundDuration":130434,"Delta":237464773},{"NoteNumber":49,"Velocity":55,"Duration":130434,"SoundDuration":130434,"Delta":237595208},{"NoteNumber":53,"Velocity":52,"Duration":130434,"SoundDuration":130434,"Delta":237725642},{"NoteNumber":61,"Velocity":55,"Duration":130434,"SoundDuration":130434,"Delta":237856077},{"NoteNumber":65,"Velocity":52,"Duration":130434,"SoundDuration":130434,"Delta":237986512},{"NoteNumber":68,"Velocity":55,"Duration":260869,"SoundDuration":260869,"Delta":238116947},{"NoteNumber":73,"Velocity":66,"Duration":1061946,"SoundDuration":1061946,"Delta":238377816},{"NoteNumber":68,"Velocity":66,"Duration":530972,"SoundDuration":530972,"Delta":238377816},{"NoteNumber":76,"Velocity":66,"Duration":1061946,"SoundDuration":1061946,"Delta":238377816},{"NoteNumber":80,"Velocity":66,"Duration":1061946,"SoundDuration":1061946,"Delta":238377816},{"NoteNumber":37,"Velocity":49,"Duration":132743,"SoundDuration":132743,"Delta":238377816},{"NoteNumber":44,"Velocity":48,"Duration":132743,"SoundDuration":132743,"Delta":238510559},{"NoteNumber":49,"Velocity":50,"Duration":132743,"SoundDuration":132743,"Delta":238643303},{"NoteNumber":52,"Velocity":48,"Duration":132743,"SoundDuration":132743,"Delta":238776046},{"NoteNumber":61,"Velocity":50,"Duration":132743,"SoundDuration":132743,"Delta":238908789},{"NoteNumber":64,"Velocity":48,"Duration":132743,"SoundDuration":132743,"Delta":239041532},{"NoteNumber":68,"Velocity":50,"Duration":265486,"SoundDuration":265486,"Delta":239174276},{"NoteNumber":80,"Velocity":79,"Duration":530972,"SoundDuration":530972,"Delta":239439762},{"NoteNumber":92,"Velocity":88,"Duration":530972,"SoundDuration":530972,"Delta":239439762},{"NoteNumber":85,"Velocity":79,"Duration":530972,"SoundDuration":530972,"Delta":239439762},{"NoteNumber":88,"Velocity":79,"Duration":530972,"SoundDuration":530972,"Delta":239439762},{"NoteNumber":30,"Velocity":49,"Duration":265486,"SoundDuration":265486,"Delta":239439762},{"NoteNumber":34,"Velocity":50,"Duration":132743,"SoundDuration":132743,"Delta":239572505},{"NoteNumber":37,"Velocity":51,"Duration":132743,"SoundDuration":132743,"Delta":239705249},{"NoteNumber":42,"Velocity":52,"Duration":132743,"SoundDuration":132743,"Delta":239837992},{"NoteNumber":78,"Velocity":79,"Duration":530973,"SoundDuration":530973,"Delta":239970735},{"NoteNumber":82,"Velocity":79,"Duration":530973,"SoundDuration":530973,"Delta":239970735},{"NoteNumber":85,"Velocity":79,"Duration":530973,"SoundDuration":530973,"Delta":239970735},{"NoteNumber":90,"Velocity":88,"Duration":530973,"SoundDuration":530973,"Delta":239970735},{"NoteNumber":46,"Velocity":52,"Duration":132743,"SoundDuration":132743,"Delta":239970735},{"NoteNumber":49,"Velocity":52,"Duration":132743,"SoundDuration":132743,"Delta":240103478},{"NoteNumber":54,"Velocity":53,"Duration":132743,"SoundDuration":132743,"Delta":240236222},{"NoteNumber":58,"Velocity":55,"Duration":132743,"SoundDuration":132743,"Delta":240368965},{"NoteNumber":89,"Velocity":88,"Duration":534643,"SoundDuration":534643,"Delta":240501708},{"NoteNumber":85,"Velocity":79,"Duration":534643,"SoundDuration":534643,"Delta":240501708},{"NoteNumber":77,"Velocity":79,"Duration":534643,"SoundDuration":534643,"Delta":240501708},{"NoteNumber":82,"Velocity":79,"Duration":534643,"SoundDuration":534643,"Delta":240501708},{"NoteNumber":61,"Velocity":56,"Duration":265486,"SoundDuration":265486,"Delta":240501708},{"NoteNumber":66,"Velocity":56,"Duration":132743,"SoundDuration":132743,"Delta":240634451},{"NoteNumber":70,"Velocity":57,"Duration":132743,"SoundDuration":132743,"Delta":240767195},{"NoteNumber":73,"Velocity":59,"Duration":136413,"SoundDuration":136413,"Delta":240899938},{"NoteNumber":66,"Velocity":51,"Duration":250653,"SoundDuration":250653,"Delta":240922062},{"NoteNumber":70,"Velocity":51,"Duration":205488,"SoundDuration":205488,"Delta":240967227},{"NoteNumber":73,"Velocity":51,"Duration":159405,"SoundDuration":159405,"Delta":241013310},{"NoteNumber":76,"Velocity":82,"Duration":545455,"SoundDuration":545455,"Delta":241036351},{"NoteNumber":82,"Velocity":82,"Duration":545455,"SoundDuration":545455,"Delta":241036351},{"NoteNumber":85,"Velocity":82,"Duration":545455,"SoundDuration":545455,"Delta":241036351},{"NoteNumber":88,"Velocity":92,"Duration":545455,"SoundDuration":545455,"Delta":241036351},{"NoteNumber":78,"Velocity":59,"Duration":136363,"SoundDuration":136363,"Delta":241036351},{"NoteNumber":87,"Velocity":94,"Duration":545455,"SoundDuration":545455,"Delta":241581806},{"NoteNumber":75,"Velocity":84,"Duration":545455,"SoundDuration":545455,"Delta":241581806},{"NoteNumber":83,"Velocity":84,"Duration":545455,"SoundDuration":545455,"Delta":241581806},{"NoteNumber":71,"Velocity":59,"Duration":272727,"SoundDuration":272727,"Delta":241581806},{"NoteNumber":66,"Velocity":60,"Duration":136363,"SoundDuration":136363,"Delta":241718170},{"NoteNumber":63,"Velocity":61,"Duration":136363,"SoundDuration":136363,"Delta":241854534},{"NoteNumber":59,"Velocity":61,"Duration":136363,"SoundDuration":136363,"Delta":241990898},{"NoteNumber":87,"Velocity":97,"Duration":558140,"SoundDuration":558140,"Delta":242127261},{"NoteNumber":82,"Velocity":88,"Duration":558140,"SoundDuration":558140,"Delta":242127261},{"NoteNumber":75,"Velocity":88,"Duration":558140,"SoundDuration":558140,"Delta":242127261},{"NoteNumber":54,"Velocity":62,"Duration":279069,"SoundDuration":279069,"Delta":242127261},{"NoteNumber":51,"Velocity":62,"Duration":139534,"SoundDuration":139534,"Delta":242266796},{"NoteNumber":47,"Velocity":64,"Duration":139535,"SoundDuration":139535,"Delta":242406331},{"NoteNumber":42,"Velocity":66,"Duration":139534,"SoundDuration":139534,"Delta":242545866},{"NoteNumber":75,"Velocity":89,"Duration":577577,"SoundDuration":577577,"Delta":242685401},{"NoteNumber":87,"Velocity":100,"Duration":577577,"SoundDuration":577577,"Delta":242685401},{"NoteNumber":81,"Velocity":89,"Duration":577577,"SoundDuration":577577,"Delta":242685401},{"NoteNumber":39,"Velocity":66,"Duration":279069,"SoundDuration":279069,"Delta":242685401},{"NoteNumber":35,"Velocity":66,"Duration":139534,"SoundDuration":139534,"Delta":242824936},{"NoteNumber":30,"Velocity":67,"Duration":149253,"SoundDuration":149253,"Delta":242964471},{"NoteNumber":27,"Velocity":68,"Duration":149253,"SoundDuration":149253,"Delta":243113725},{"NoteNumber":82,"Velocity":91,"Duration":410322,"SoundDuration":410322,"Delta":243262979},{"NoteNumber":87,"Velocity":102,"Duration":410322,"SoundDuration":410322,"Delta":243262979},{"NoteNumber":79,"Velocity":91,"Duration":410322,"SoundDuration":410322,"Delta":243262979},{"NoteNumber":75,"Velocity":91,"Duration":410322,"SoundDuration":410322,"Delta":243262979},{"NoteNumber":58,"Velocity":69,"Duration":410322,"SoundDuration":410322,"Delta":243262979},{"NoteNumber":63,"Velocity":69,"Duration":410322,"SoundDuration":410322,"Delta":243262979},{"NoteNumber":67,"Velocity":69,"Duration":410322,"SoundDuration":410322,"Delta":243262979},{"NoteNumber":70,"Velocity":78,"Duration":410322,"SoundDuration":410322,"Delta":243262979},{"NoteNumber":65,"Velocity":75,"Duration":149209,"SoundDuration":149209,"Delta":243810075},{"NoteNumber":77,"Velocity":84,"Duration":149209,"SoundDuration":149209,"Delta":243810075},{"NoteNumber":70,"Velocity":75,"Duration":149209,"SoundDuration":149209,"Delta":243810075},{"NoteNumber":74,"Velocity":75,"Duration":149209,"SoundDuration":149209,"Delta":243810075},{"NoteNumber":58,"Velocity":67,"Duration":149209,"SoundDuration":149209,"Delta":243810075},{"NoteNumber":46,"Velocity":59,"Duration":149209,"SoundDuration":149209,"Delta":243810075},{"NoteNumber":67,"Velocity":74,"Duration":149209,"SoundDuration":149209,"Delta":244108493},{"NoteNumber":70,"Velocity":74,"Duration":149209,"SoundDuration":149209,"Delta":244108493},{"NoteNumber":75,"Velocity":83,"Duration":149209,"SoundDuration":149209,"Delta":244108493},{"NoteNumber":79,"Velocity":83,"Duration":149209,"SoundDuration":149209,"Delta":244108493},{"NoteNumber":39,"Velocity":57,"Duration":149209,"SoundDuration":149209,"Delta":244108493},{"NoteNumber":51,"Velocity":63,"Duration":149209,"SoundDuration":149209,"Delta":244108493},{"NoteNumber":80,"Velocity":95,"Duration":519706,"SoundDuration":519706,"Delta":244406912},{"NoteNumber":75,"Velocity":85,"Duration":519706,"SoundDuration":519706,"Delta":244406912},{"NoteNumber":68,"Velocity":85,"Duration":519706,"SoundDuration":519706,"Delta":244406912},{"NoteNumber":72,"Velocity":85,"Duration":519706,"SoundDuration":519706,"Delta":244406912},{"NoteNumber":63,"Velocity":77,"Duration":519706,"SoundDuration":519706,"Delta":244406912},{"NoteNumber":60,"Velocity":69,"Duration":519706,"SoundDuration":519706,"Delta":244406912},{"NoteNumber":56,"Velocity":69,"Duration":519706,"SoundDuration":519706,"Delta":244406912},{"NoteNumber":51,"Velocity":69,"Duration":519706,"SoundDuration":519706,"Delta":244406912},{"NoteNumber":67,"Velocity":74,"Duration":147058,"SoundDuration":147058,"Delta":244926618},{"NoteNumber":70,"Velocity":74,"Duration":147058,"SoundDuration":147058,"Delta":244926618},{"NoteNumber":75,"Velocity":74,"Duration":147058,"SoundDuration":147058,"Delta":244926618},{"NoteNumber":79,"Velocity":83,"Duration":147058,"SoundDuration":147058,"Delta":244926618},{"NoteNumber":39,"Velocity":59,"Duration":147058,"SoundDuration":147058,"Delta":244926618},{"NoteNumber":51,"Velocity":66,"Duration":147058,"SoundDuration":147058,"Delta":244926618},{"NoteNumber":75,"Velocity":73,"Duration":147058,"SoundDuration":147058,"Delta":245220735},{"NoteNumber":65,"Velocity":73,"Duration":147058,"SoundDuration":147058,"Delta":245220735},{"NoteNumber":72,"Velocity":73,"Duration":147058,"SoundDuration":147058,"Delta":245220735},{"NoteNumber":77,"Velocity":82,"Duration":147058,"SoundDuration":147058,"Delta":245220735},{"NoteNumber":32,"Velocity":57,"Duration":147058,"SoundDuration":147058,"Delta":245220735},{"NoteNumber":44,"Velocity":63,"Duration":147058,"SoundDuration":147058,"Delta":245220735},{"NoteNumber":67,"Velocity":85,"Duration":519706,"SoundDuration":519706,"Delta":245514853},{"NoteNumber":70,"Velocity":85,"Duration":519706,"SoundDuration":519706,"Delta":245514853},{"NoteNumber":75,"Velocity":85,"Duration":519706,"SoundDuration":519706,"Delta":245514853},{"NoteNumber":79,"Velocity":95,"Duration":519706,"SoundDuration":519706,"Delta":245514853},{"NoteNumber":39,"Velocity":69,"Duration":519706,"SoundDuration":519706,"Delta":245514853},{"NoteNumber":46,"Velocity":69,"Duration":519706,"SoundDuration":519706,"Delta":245514853},{"NoteNumber":51,"Velocity":77,"Duration":519706,"SoundDuration":519706,"Delta":245514853},{"NoteNumber":74,"Velocity":88,"Duration":144927,"SoundDuration":144927,"Delta":246034559},{"NoteNumber":77,"Velocity":88,"Duration":144927,"SoundDuration":144927,"Delta":246034559},{"NoteNumber":65,"Velocity":79,"Duration":144927,"SoundDuration":144927,"Delta":246034559},{"NoteNumber":68,"Velocity":79,"Duration":144927,"SoundDuration":144927,"Delta":246034559},{"NoteNumber":34,"Velocity":62,"Duration":144927,"SoundDuration":144927,"Delta":246034559},{"NoteNumber":46,"Velocity":70,"Duration":144927,"SoundDuration":144927,"Delta":246034559},{"NoteNumber":63,"Velocity":74,"Duration":144927,"SoundDuration":144927,"Delta":246324414},{"NoteNumber":67,"Velocity":74,"Duration":144927,"SoundDuration":144927,"Delta":246324414},{"NoteNumber":70,"Velocity":74,"Duration":144927,"SoundDuration":144927,"Delta":246324414},{"NoteNumber":75,"Velocity":83,"Duration":144927,"SoundDuration":144927,"Delta":246324414},{"NoteNumber":27,"Velocity":59,"Duration":144927,"SoundDuration":144927,"Delta":246324414},{"NoteNumber":39,"Velocity":66,"Duration":144927,"SoundDuration":144927,"Delta":246324414},{"NoteNumber":77,"Velocity":82,"Duration":136986,"SoundDuration":136986,"Delta":246614269},{"NoteNumber":65,"Velocity":73,"Duration":136986,"SoundDuration":136986,"Delta":246614269},{"NoteNumber":74,"Velocity":73,"Duration":136986,"SoundDuration":136986,"Delta":246614269},{"NoteNumber":34,"Velocity":59,"Duration":136986,"SoundDuration":136986,"Delta":246614269},{"NoteNumber":46,"Velocity":66,"Duration":136986,"SoundDuration":136986,"Delta":246614269},{"NoteNumber":70,"Velocity":79,"Duration":147783,"SoundDuration":147783,"Delta":246888241},{"NoteNumber":58,"Velocity":62,"Duration":147783,"SoundDuration":147783,"Delta":246888241},{"NoteNumber":46,"Velocity":62,"Duration":147783,"SoundDuration":147783,"Delta":246888241},{"NoteNumber":63,"Velocity":83,"Duration":582524,"SoundDuration":582524,"Delta":247183808},{"NoteNumber":72,"Velocity":93,"Duration":582524,"SoundDuration":582524,"Delta":247183808},{"NoteNumber":75,"Velocity":93,"Duration":582524,"SoundDuration":582524,"Delta":247183808},{"NoteNumber":39,"Velocity":66,"Duration":582524,"SoundDuration":582524,"Delta":247183808},{"NoteNumber":51,"Velocity":73,"Duration":582524,"SoundDuration":582524,"Delta":247183808},{"NoteNumber":75,"Velocity":86,"Duration":576922,"SoundDuration":576922,"Delta":247766332},{"NoteNumber":70,"Velocity":78,"Duration":576922,"SoundDuration":576922,"Delta":247766332},{"NoteNumber":74,"Velocity":86,"Duration":576922,"SoundDuration":576922,"Delta":247766332},{"NoteNumber":63,"Velocity":78,"Duration":576922,"SoundDuration":576922,"Delta":247766332},{"NoteNumber":62,"Velocity":72,"Duration":576922,"SoundDuration":576922,"Delta":247766332},{"NoteNumber":58,"Velocity":64,"Duration":576922,"SoundDuration":576922,"Delta":247766332},{"NoteNumber":51,"Velocity":64,"Duration":576922,"SoundDuration":576922,"Delta":247766332},{"NoteNumber":63,"Velocity":77,"Duration":497629,"SoundDuration":497629,"Delta":248343255},{"NoteNumber":68,"Velocity":77,"Duration":497629,"SoundDuration":497629,"Delta":248343255},{"NoteNumber":72,"Velocity":85,"Duration":497629,"SoundDuration":497629,"Delta":248343255},{"NoteNumber":75,"Velocity":85,"Duration":497629,"SoundDuration":497629,"Delta":248343255},{"NoteNumber":51,"Velocity":62,"Duration":568720,"SoundDuration":568720,"Delta":248343255},{"NoteNumber":56,"Velocity":62,"Duration":568720,"SoundDuration":568720,"Delta":248343255},{"NoteNumber":60,"Velocity":70,"Duration":568720,"SoundDuration":568720,"Delta":248343255},{"NoteNumber":75,"Velocity":88,"Duration":558693,"SoundDuration":558693,"Delta":248911975},{"NoteNumber":63,"Velocity":79,"Duration":558693,"SoundDuration":558693,"Delta":248911975},{"NoteNumber":67,"Velocity":79,"Duration":558693,"SoundDuration":558693,"Delta":248911975},{"NoteNumber":70,"Velocity":88,"Duration":558693,"SoundDuration":558693,"Delta":248911975},{"NoteNumber":39,"Velocity":62,"Duration":558693,"SoundDuration":558693,"Delta":248911975},{"NoteNumber":46,"Velocity":62,"Duration":558693,"SoundDuration":558693,"Delta":248911975},{"NoteNumber":51,"Velocity":70,"Duration":558693,"SoundDuration":558693,"Delta":248911975},{"NoteNumber":62,"Velocity":82,"Duration":142857,"SoundDuration":142857,"Delta":249470669},{"NoteNumber":65,"Velocity":82,"Duration":142857,"SoundDuration":142857,"Delta":249470669},{"NoteNumber":70,"Velocity":82,"Duration":142857,"SoundDuration":142857,"Delta":249470669},{"NoteNumber":74,"Velocity":92,"Duration":142857,"SoundDuration":142857,"Delta":249470669},{"NoteNumber":34,"Velocity":64,"Duration":142857,"SoundDuration":142857,"Delta":249470669},{"NoteNumber":46,"Velocity":72,"Duration":142857,"SoundDuration":142857,"Delta":249470669},{"NoteNumber":70,"Velocity":79,"Duration":147058,"SoundDuration":147058,"Delta":249756383},{"NoteNumber":75,"Velocity":88,"Duration":147058,"SoundDuration":147058,"Delta":249756383},{"NoteNumber":63,"Velocity":79,"Duration":147058,"SoundDuration":147058,"Delta":249756383},{"NoteNumber":67,"Velocity":79,"Duration":147058,"SoundDuration":147058,"Delta":249756383},{"NoteNumber":39,"Velocity":68,"Duration":147058,"SoundDuration":147058,"Delta":249756383},{"NoteNumber":27,"Velocity":60,"Duration":147058,"SoundDuration":147058,"Delta":249756383},{"NoteNumber":72,"Velocity":86,"Duration":533332,"SoundDuration":533332,"Delta":250050501},{"NoteNumber":75,"Velocity":86,"Duration":533332,"SoundDuration":533332,"Delta":250050501},{"NoteNumber":79,"Velocity":96,"Duration":533332,"SoundDuration":533332,"Delta":250050501},{"NoteNumber":67,"Velocity":86,"Duration":533332,"SoundDuration":533332,"Delta":250050501},{"NoteNumber":60,"Velocity":77,"Duration":533332,"SoundDuration":533332,"Delta":250050501},{"NoteNumber":55,"Velocity":69,"Duration":533332,"SoundDuration":533332,"Delta":250050501},{"NoteNumber":51,"Velocity":69,"Duration":533332,"SoundDuration":533332,"Delta":250050501},{"NoteNumber":48,"Velocity":69,"Duration":533332,"SoundDuration":533332,"Delta":250050501},{"NoteNumber":72,"Velocity":81,"Duration":141509,"SoundDuration":141509,"Delta":250583834},{"NoteNumber":65,"Velocity":81,"Duration":141509,"SoundDuration":141509,"Delta":250583834},{"NoteNumber":68,"Velocity":81,"Duration":141509,"SoundDuration":141509,"Delta":250583834},{"NoteNumber":77,"Velocity":91,"Duration":141509,"SoundDuration":141509,"Delta":250583834},{"NoteNumber":41,"Velocity":62,"Duration":141509,"SoundDuration":141509,"Delta":250583834},{"NoteNumber":53,"Velocity":70,"Duration":141509,"SoundDuration":141509,"Delta":250583834},{"NoteNumber":63,"Velocity":80,"Duration":145631,"SoundDuration":145631,"Delta":250866853},{"NoteNumber":67,"Velocity":80,"Duration":145631,"SoundDuration":145631,"Delta":250866853},{"NoteNumber":75,"Velocity":90,"Duration":145631,"SoundDuration":145631,"Delta":250866853},{"NoteNumber":72,"Velocity":80,"Duration":145631,"SoundDuration":145631,"Delta":250866853},{"NoteNumber":36,"Velocity":62,"Duration":145631,"SoundDuration":145631,"Delta":250866853},{"NoteNumber":48,"Velocity":70,"Duration":145631,"SoundDuration":145631,"Delta":250866853},{"NoteNumber":70,"Velocity":84,"Duration":530972,"SoundDuration":530972,"Delta":251158115},{"NoteNumber":67,"Velocity":84,"Duration":530972,"SoundDuration":530972,"Delta":251158115},{"NoteNumber":62,"Velocity":84,"Duration":530972,"SoundDuration":530972,"Delta":251158115},{"NoteNumber":74,"Velocity":94,"Duration":530972,"SoundDuration":530972,"Delta":251158115},{"NoteNumber":43,"Velocity":67,"Duration":530972,"SoundDuration":530972,"Delta":251158115},{"NoteNumber":46,"Velocity":67,"Duration":530972,"SoundDuration":530972,"Delta":251158115},{"NoteNumber":50,"Velocity":67,"Duration":530972,"SoundDuration":530972,"Delta":251158115},{"NoteNumber":55,"Velocity":74,"Duration":530972,"SoundDuration":530972,"Delta":251158115},{"NoteNumber":60,"Velocity":75,"Duration":134529,"SoundDuration":134529,"Delta":251689088},{"NoteNumber":63,"Velocity":75,"Duration":134529,"SoundDuration":134529,"Delta":251689088},{"NoteNumber":67,"Velocity":75,"Duration":134529,"SoundDuration":134529,"Delta":251689088},{"NoteNumber":72,"Velocity":84,"Duration":134529,"SoundDuration":134529,"Delta":251689088},{"NoteNumber":36,"Velocity":59,"Duration":134529,"SoundDuration":134529,"Delta":251689088},{"NoteNumber":48,"Velocity":66,"Duration":134529,"SoundDuration":134529,"Delta":251689088},{"NoteNumber":62,"Velocity":72,"Duration":134529,"SoundDuration":134529,"Delta":251958146},{"NoteNumber":58,"Velocity":72,"Duration":134529,"SoundDuration":134529,"Delta":251958146},{"NoteNumber":67,"Velocity":81,"Duration":134529,"SoundDuration":134529,"Delta":251958146},{"NoteNumber":70,"Velocity":81,"Duration":134529,"SoundDuration":134529,"Delta":251958146},{"NoteNumber":31,"Velocity":56,"Duration":134529,"SoundDuration":134529,"Delta":251958146},{"NoteNumber":43,"Velocity":62,"Duration":134529,"SoundDuration":134529,"Delta":251958146},{"NoteNumber":57,"Velocity":75,"Duration":140186,"SoundDuration":140186,"Delta":252227205},{"NoteNumber":69,"Velocity":84,"Duration":140186,"SoundDuration":140186,"Delta":252227205},{"NoteNumber":66,"Velocity":84,"Duration":140186,"SoundDuration":140186,"Delta":252227205},{"NoteNumber":26,"Velocity":59,"Duration":140186,"SoundDuration":140186,"Delta":252227205},{"NoteNumber":38,"Velocity":67,"Duration":140186,"SoundDuration":140186,"Delta":252227205},{"NoteNumber":62,"Velocity":80,"Duration":140186,"SoundDuration":140186,"Delta":252507579},{"NoteNumber":50,"Velocity":61,"Duration":140186,"SoundDuration":140186,"Delta":252507579},{"NoteNumber":38,"Velocity":55,"Duration":140186,"SoundDuration":140186,"Delta":252507579},{"NoteNumber":67,"Velocity":90,"Duration":538116,"SoundDuration":538116,"Delta":252787953},{"NoteNumber":55,"Velocity":80,"Duration":538116,"SoundDuration":538116,"Delta":252787953},{"NoteNumber":31,"Velocity":63,"Duration":538116,"SoundDuration":538116,"Delta":252787953},{"NoteNumber":43,"Velocity":71,"Duration":538116,"SoundDuration":538116,"Delta":252787953},{"NoteNumber":55,"Velocity":79,"Duration":556320,"SoundDuration":556320,"Delta":253326070},{"NoteNumber":66,"Velocity":88,"Duration":556320,"SoundDuration":556320,"Delta":253326070},{"NoteNumber":67,"Velocity":88,"Duration":556320,"SoundDuration":556320,"Delta":253326070},{"NoteNumber":54,"Velocity":70,"Duration":556320,"SoundDuration":556320,"Delta":253326070},{"NoteNumber":43,"Velocity":62,"Duration":556320,"SoundDuration":556320,"Delta":253326070},{"NoteNumber":67,"Velocity":82,"Duration":494516,"SoundDuration":494516,"Delta":253882390},{"NoteNumber":55,"Velocity":73,"Duration":494516,"SoundDuration":494516,"Delta":253882390},{"NoteNumber":65,"Velocity":82,"Duration":494516,"SoundDuration":494516,"Delta":253882390},{"NoteNumber":43,"Velocity":58,"Duration":494516,"SoundDuration":494516,"Delta":253882390},{"NoteNumber":53,"Velocity":64,"Duration":494516,"SoundDuration":494516,"Delta":253882390},{"NoteNumber":67,"Velocity":67,"Duration":519706,"SoundDuration":519706,"Delta":254448222},{"NoteNumber":70,"Velocity":67,"Duration":519706,"SoundDuration":519706,"Delta":254448222},{"NoteNumber":75,"Velocity":67,"Duration":519706,"SoundDuration":519706,"Delta":254448222},{"NoteNumber":79,"Velocity":74,"Duration":519706,"SoundDuration":519706,"Delta":254448222},{"NoteNumber":51,"Velocity":52,"Duration":519706,"SoundDuration":519706,"Delta":254448222},{"NoteNumber":55,"Velocity":52,"Duration":519706,"SoundDuration":519706,"Delta":254448222},{"NoteNumber":58,"Velocity":52,"Duration":519706,"SoundDuration":519706,"Delta":254448222},{"NoteNumber":63,"Velocity":59,"Duration":519706,"SoundDuration":519706,"Delta":254448222},{"NoteNumber":74,"Velocity":59,"Duration":259852,"SoundDuration":259852,"Delta":254967928},{"NoteNumber":77,"Velocity":67,"Duration":259852,"SoundDuration":259852,"Delta":254967928},{"NoteNumber":65,"Velocity":59,"Duration":259852,"SoundDuration":259852,"Delta":254967928},{"NoteNumber":70,"Velocity":59,"Duration":259852,"SoundDuration":259852,"Delta":254967928},{"NoteNumber":58,"Velocity":53,"Duration":259852,"SoundDuration":259852,"Delta":254967928},{"NoteNumber":46,"Velocity":48,"Duration":259852,"SoundDuration":259852,"Delta":254967928},{"NoteNumber":67,"Velocity":64,"Duration":281689,"SoundDuration":281689,"Delta":255227781},{"NoteNumber":70,"Velocity":64,"Duration":281689,"SoundDuration":281689,"Delta":255227781},{"NoteNumber":75,"Velocity":64,"Duration":281689,"SoundDuration":281689,"Delta":255227781},{"NoteNumber":79,"Velocity":72,"Duration":281689,"SoundDuration":281689,"Delta":255227781},{"NoteNumber":39,"Velocity":53,"Duration":281689,"SoundDuration":281689,"Delta":255227781},{"NoteNumber":51,"Velocity":60,"Duration":281689,"SoundDuration":281689,"Delta":255227781},{"NoteNumber":75,"Velocity":70,"Duration":519706,"SoundDuration":519706,"Delta":255509471},{"NoteNumber":68,"Velocity":70,"Duration":519706,"SoundDuration":519706,"Delta":255509471},{"NoteNumber":72,"Velocity":70,"Duration":519706,"SoundDuration":519706,"Delta":255509471},{"NoteNumber":80,"Velocity":79,"Duration":519706,"SoundDuration":519706,"Delta":255509471},{"NoteNumber":51,"Velocity":59,"Duration":519706,"SoundDuration":519706,"Delta":255509471},{"NoteNumber":56,"Velocity":66,"Duration":519706,"SoundDuration":519706,"Delta":255509471},{"NoteNumber":44,"Velocity":59,"Duration":519706,"SoundDuration":519706,"Delta":255509471},{"NoteNumber":67,"Velocity":60,"Duration":259852,"SoundDuration":259852,"Delta":256029177},{"NoteNumber":70,"Velocity":60,"Duration":259852,"SoundDuration":259852,"Delta":256029177},{"NoteNumber":79,"Velocity":68,"Duration":259852,"SoundDuration":259852,"Delta":256029177},{"NoteNumber":75,"Velocity":60,"Duration":259852,"SoundDuration":259852,"Delta":256029177},{"NoteNumber":39,"Velocity":48,"Duration":259852,"SoundDuration":259852,"Delta":256029177},{"NoteNumber":51,"Velocity":53,"Duration":259852,"SoundDuration":259852,"Delta":256029177},{"NoteNumber":77,"Velocity":70,"Duration":280373,"SoundDuration":280373,"Delta":256289030},{"NoteNumber":72,"Velocity":62,"Duration":280373,"SoundDuration":280373,"Delta":256289030},{"NoteNumber":65,"Velocity":62,"Duration":280373,"SoundDuration":280373,"Delta":256289030},{"NoteNumber":75,"Velocity":62,"Duration":280373,"SoundDuration":280373,"Delta":256289030},{"NoteNumber":32,"Velocity":49,"Duration":280373,"SoundDuration":280373,"Delta":256289030},{"NoteNumber":44,"Velocity":56,"Duration":280373,"SoundDuration":280373,"Delta":256289030},{"NoteNumber":67,"Velocity":67,"Duration":519705,"SoundDuration":519705,"Delta":256569404},{"NoteNumber":70,"Velocity":67,"Duration":519705,"SoundDuration":519705,"Delta":256569404},{"NoteNumber":75,"Velocity":67,"Duration":519705,"SoundDuration":519705,"Delta":256569404},{"NoteNumber":79,"Velocity":74,"Duration":519705,"SoundDuration":519705,"Delta":256569404},{"NoteNumber":39,"Velocity":50,"Duration":519705,"SoundDuration":519705,"Delta":256569404},{"NoteNumber":46,"Velocity":50,"Duration":519705,"SoundDuration":519705,"Delta":256569404},{"NoteNumber":51,"Velocity":57,"Duration":519705,"SoundDuration":519705,"Delta":256569404},{"NoteNumber":68,"Velocity":66,"Duration":265393,"SoundDuration":265393,"Delta":257089110},{"NoteNumber":65,"Velocity":66,"Duration":265393,"SoundDuration":265393,"Delta":257089110},{"NoteNumber":74,"Velocity":66,"Duration":265393,"SoundDuration":265393,"Delta":257089110},{"NoteNumber":77,"Velocity":73,"Duration":265393,"SoundDuration":265393,"Delta":257089110},{"NoteNumber":34,"Velocity":52,"Duration":265393,"SoundDuration":265393,"Delta":257089110},{"NoteNumber":46,"Velocity":59,"Duration":265393,"SoundDuration":265393,"Delta":257089110},{"NoteNumber":63,"Velocity":63,"Duration":265392,"SoundDuration":265392,"Delta":257354503},{"NoteNumber":75,"Velocity":71,"Duration":265392,"SoundDuration":265392,"Delta":257354503},{"NoteNumber":67,"Velocity":63,"Duration":265392,"SoundDuration":265392,"Delta":257354503},{"NoteNumber":70,"Velocity":63,"Duration":265392,"SoundDuration":265392,"Delta":257354503},{"NoteNumber":27,"Velocity":50,"Duration":265392,"SoundDuration":265392,"Delta":257354503},{"NoteNumber":39,"Velocity":57,"Duration":265392,"SoundDuration":265392,"Delta":257354503},{"NoteNumber":74,"Velocity":72,"Duration":269058,"SoundDuration":269058,"Delta":257619896},{"NoteNumber":65,"Velocity":64,"Duration":269058,"SoundDuration":269058,"Delta":257619896},{"NoteNumber":77,"Velocity":72,"Duration":269058,"SoundDuration":269058,"Delta":257619896},{"NoteNumber":34,"Velocity":50,"Duration":269058,"SoundDuration":269058,"Delta":257619896},{"NoteNumber":46,"Velocity":57,"Duration":269058,"SoundDuration":269058,"Delta":257619896},{"NoteNumber":70,"Velocity":70,"Duration":269058,"SoundDuration":269058,"Delta":257888954},{"NoteNumber":58,"Velocity":56,"Duration":269058,"SoundDuration":269058,"Delta":257888954},{"NoteNumber":46,"Velocity":49,"Duration":269058,"SoundDuration":269058,"Delta":257888954},{"NoteNumber":63,"Velocity":80,"Duration":551926,"SoundDuration":551926,"Delta":258158013},{"NoteNumber":75,"Velocity":80,"Duration":551926,"SoundDuration":551926,"Delta":258158013},{"NoteNumber":39,"Velocity":58,"Duration":551926,"SoundDuration":551926,"Delta":258158013},{"NoteNumber":51,"Velocity":64,"Duration":551926,"SoundDuration":551926,"Delta":258158013},{"NoteNumber":75,"Velocity":83,"Duration":580158,"SoundDuration":580158,"Delta":258709940},{"NoteNumber":73,"Velocity":83,"Duration":580158,"SoundDuration":580158,"Delta":258709940},{"NoteNumber":63,"Velocity":74,"Duration":580158,"SoundDuration":580158,"Delta":258709940},{"NoteNumber":39,"Velocity":59,"Duration":580158,"SoundDuration":580158,"Delta":258709940},{"NoteNumber":37,"Velocity":59,"Duration":580158,"SoundDuration":580158,"Delta":258709940},{"NoteNumber":49,"Velocity":66,"Duration":580158,"SoundDuration":580158,"Delta":258709940},{"NoteNumber":63,"Velocity":79,"Duration":543028,"SoundDuration":543028,"Delta":259290099},{"NoteNumber":70,"Velocity":89,"Duration":543028,"SoundDuration":543028,"Delta":259290099},{"NoteNumber":75,"Velocity":89,"Duration":543028,"SoundDuration":543028,"Delta":259290099},{"NoteNumber":34,"Velocity":62,"Duration":543028,"SoundDuration":543028,"Delta":259290099},{"NoteNumber":39,"Velocity":62,"Duration":543028,"SoundDuration":543028,"Delta":259290099},{"NoteNumber":46,"Velocity":70,"Duration":543028,"SoundDuration":543028,"Delta":259290099},{"NoteNumber":80,"Velocity":90,"Duration":533049,"SoundDuration":533049,"Delta":259910703},{"NoteNumber":83,"Velocity":90,"Duration":533049,"SoundDuration":533049,"Delta":259910703},{"NoteNumber":92,"Velocity":101,"Duration":533049,"SoundDuration":533049,"Delta":259910703},{"NoteNumber":87,"Velocity":90,"Duration":533049,"SoundDuration":533049,"Delta":259910703},{"NoteNumber":32,"Velocity":72,"Duration":533049,"SoundDuration":533049,"Delta":259910703},{"NoteNumber":39,"Velocity":72,"Duration":533049,"SoundDuration":533049,"Delta":259910703},{"NoteNumber":44,"Velocity":81,"Duration":533049,"SoundDuration":533049,"Delta":259910703},{"NoteNumber":86,"Velocity":93,"Duration":136986,"SoundDuration":136986,"Delta":260443752},{"NoteNumber":82,"Velocity":93,"Duration":136986,"SoundDuration":136986,"Delta":260443752},{"NoteNumber":74,"Velocity":83,"Duration":136986,"SoundDuration":136986,"Delta":260443752},{"NoteNumber":35,"Velocity":67,"Duration":136986,"SoundDuration":136986,"Delta":260443752},{"NoteNumber":47,"Velocity":74,"Duration":136986,"SoundDuration":136986,"Delta":260443752},{"NoteNumber":87,"Velocity":90,"Duration":143705,"SoundDuration":143705,"Delta":260717724},{"NoteNumber":83,"Velocity":90,"Duration":143705,"SoundDuration":143705,"Delta":260717724},{"NoteNumber":75,"Velocity":80,"Duration":143705,"SoundDuration":143705,"Delta":260717724},{"NoteNumber":44,"Velocity":72,"Duration":143705,"SoundDuration":143705,"Delta":260717724},{"NoteNumber":32,"Velocity":64,"Duration":143705,"SoundDuration":143705,"Delta":260717724},{"NoteNumber":80,"Velocity":89,"Duration":533049,"SoundDuration":533049,"Delta":261005136},{"NoteNumber":83,"Velocity":100,"Duration":533049,"SoundDuration":533049,"Delta":261005136},{"NoteNumber":76,"Velocity":89,"Duration":533049,"SoundDuration":533049,"Delta":261005136},{"NoteNumber":71,"Velocity":89,"Duration":533049,"SoundDuration":533049,"Delta":261005136},{"NoteNumber":47,"Velocity":70,"Duration":533049,"SoundDuration":533049,"Delta":261005136},{"NoteNumber":40,"Velocity":70,"Duration":533049,"SoundDuration":533049,"Delta":261005136},{"NoteNumber":44,"Velocity":70,"Duration":533049,"SoundDuration":533049,"Delta":261005136},{"NoteNumber":52,"Velocity":79,"Duration":533049,"SoundDuration":533049,"Delta":261005136},{"NoteNumber":79,"Velocity":88,"Duration":143540,"SoundDuration":143540,"Delta":261538185},{"NoteNumber":67,"Velocity":79,"Duration":143540,"SoundDuration":143540,"Delta":261538185},{"NoteNumber":75,"Velocity":79,"Duration":143540,"SoundDuration":143540,"Delta":261538185},{"NoteNumber":44,"Velocity":62,"Duration":143540,"SoundDuration":143540,"Delta":261538185},{"NoteNumber":56,"Velocity":70,"Duration":143540,"SoundDuration":143540,"Delta":261538185},{"NoteNumber":68,"Velocity":77,"Duration":143540,"SoundDuration":143540,"Delta":261825266},{"NoteNumber":80,"Velocity":85,"Duration":143540,"SoundDuration":143540,"Delta":261825266},{"NoteNumber":76,"Velocity":77,"Duration":143540,"SoundDuration":143540,"Delta":261825266},{"NoteNumber":40,"Velocity":60,"Duration":143540,"SoundDuration":143540,"Delta":261825266},{"NoteNumber":52,"Velocity":68,"Duration":143540,"SoundDuration":143540,"Delta":261825266},{"NoteNumber":76,"Velocity":96,"Duration":545455,"SoundDuration":545455,"Delta":262112348},{"NoteNumber":73,"Velocity":86,"Duration":545455,"SoundDuration":545455,"Delta":262112348},{"NoteNumber":68,"Velocity":86,"Duration":545455,"SoundDuration":545455,"Delta":262112348},{"NoteNumber":64,"Velocity":86,"Duration":545455,"SoundDuration":545455,"Delta":262112348},{"NoteNumber":61,"Velocity":77,"Duration":545455,"SoundDuration":545455,"Delta":262112348},{"NoteNumber":56,"Velocity":69,"Duration":545455,"SoundDuration":545455,"Delta":262112348},{"NoteNumber":52,"Velocity":69,"Duration":545455,"SoundDuration":545455,"Delta":262112348},{"NoteNumber":49,"Velocity":69,"Duration":545455,"SoundDuration":545455,"Delta":262112348},{"NoteNumber":60,"Velocity":74,"Duration":142179,"SoundDuration":142179,"Delta":262657803},{"NoteNumber":72,"Velocity":83,"Duration":142179,"SoundDuration":142179,"Delta":262657803},{"NoteNumber":68,"Velocity":74,"Duration":142179,"SoundDuration":142179,"Delta":262657803},{"NoteNumber":40,"Velocity":59,"Duration":142179,"SoundDuration":142179,"Delta":262657803},{"NoteNumber":52,"Velocity":66,"Duration":142179,"SoundDuration":142179,"Delta":262657803},{"NoteNumber":73,"Velocity":83,"Duration":142179,"SoundDuration":142179,"Delta":262942163},{"NoteNumber":64,"Velocity":74,"Duration":142179,"SoundDuration":142179,"Delta":262942163},{"NoteNumber":61,"Velocity":74,"Duration":142179,"SoundDuration":142179,"Delta":262942163},{"NoteNumber":37,"Velocity":59,"Duration":142179,"SoundDuration":142179,"Delta":262942163},{"NoteNumber":49,"Velocity":66,"Duration":142179,"SoundDuration":142179,"Delta":262942163},{"NoteNumber":59,"Velocity":81,"Duration":571429,"SoundDuration":571429,"Delta":263226523},{"NoteNumber":71,"Velocity":91,"Duration":571429,"SoundDuration":571429,"Delta":263226523},{"NoteNumber":62,"Velocity":81,"Duration":571429,"SoundDuration":571429,"Delta":263226523},{"NoteNumber":65,"Velocity":81,"Duration":571429,"SoundDuration":571429,"Delta":263226523},{"NoteNumber":44,"Velocity":64,"Duration":571429,"SoundDuration":571429,"Delta":263226523},{"NoteNumber":50,"Velocity":64,"Duration":571429,"SoundDuration":571429,"Delta":263226523},{"NoteNumber":53,"Velocity":64,"Duration":571429,"SoundDuration":571429,"Delta":263226523},{"NoteNumber":56,"Velocity":72,"Duration":571429,"SoundDuration":571429,"Delta":263226523},{"NoteNumber":63,"Velocity":83,"Duration":151515,"SoundDuration":151515,"Delta":263797952},{"NoteNumber":58,"Velocity":83,"Duration":151515,"SoundDuration":151515,"Delta":263797952},{"NoteNumber":70,"Velocity":93,"Duration":606061,"SoundDuration":606061,"Delta":263797952},{"NoteNumber":42,"Velocity":67,"Duration":151515,"SoundDuration":151515,"Delta":263797952},{"NoteNumber":54,"Velocity":74,"Duration":151515,"SoundDuration":151515,"Delta":263797952},{"NoteNumber":59,"Velocity":82,"Duration":151515,"SoundDuration":151515,"Delta":264100982},{"NoteNumber":63,"Velocity":82,"Duration":151515,"SoundDuration":151515,"Delta":264100982},{"NoteNumber":68,"Velocity":92,"Duration":151515,"SoundDuration":151515,"Delta":264100982},{"NoteNumber":53,"Velocity":71,"Duration":151515,"SoundDuration":151515,"Delta":264100982},{"NoteNumber":41,"Velocity":63,"Duration":151515,"SoundDuration":151515,"Delta":264100982},{"NoteNumber":66,"Velocity":93,"Duration":466321,"SoundDuration":466321,"Delta":264404013},{"NoteNumber":58,"Velocity":83,"Duration":466321,"SoundDuration":466321,"Delta":264404013},{"NoteNumber":63,"Velocity":83,"Duration":466321,"SoundDuration":466321,"Delta":264404013},{"NoteNumber":70,"Velocity":93,"Duration":466321,"SoundDuration":466321,"Delta":264404013},{"NoteNumber":46,"Velocity":67,"Duration":466321,"SoundDuration":466321,"Delta":264404013},{"NoteNumber":58,"Velocity":74,"Duration":466321,"SoundDuration":466321,"Delta":264404013},{"NoteNumber":56,"Velocity":83,"Duration":466321,"SoundDuration":466321,"Delta":265025775},{"NoteNumber":62,"Velocity":83,"Duration":466321,"SoundDuration":466321,"Delta":265025775},{"NoteNumber":70,"Velocity":93,"Duration":466321,"SoundDuration":466321,"Delta":265025775},{"NoteNumber":65,"Velocity":83,"Duration":466321,"SoundDuration":466321,"Delta":265025775},{"NoteNumber":34,"Velocity":67,"Duration":466321,"SoundDuration":466321,"Delta":265025775},{"NoteNumber":46,"Velocity":74,"Duration":466321,"SoundDuration":466321,"Delta":265025775},{"NoteNumber":58,"Velocity":83,"Duration":130434,"SoundDuration":130434,"Delta":265647537},{"NoteNumber":54,"Velocity":83,"Duration":130434,"SoundDuration":130434,"Delta":265647537},{"NoteNumber":63,"Velocity":93,"Duration":130434,"SoundDuration":130434,"Delta":265647537},{"NoteNumber":39,"Velocity":55,"Duration":130434,"SoundDuration":130434,"Delta":265647537},{"NoteNumber":46,"Velocity":52,"Duration":130434,"SoundDuration":130434,"Delta":265777972},{"NoteNumber":51,"Velocity":55,"Duration":130434,"SoundDuration":130434,"Delta":265908406},{"NoteNumber":82,"Velocity":79,"Duration":130434,"SoundDuration":130434,"Delta":266038841},{"NoteNumber":70,"Velocity":67,"Duration":130434,"SoundDuration":130434,"Delta":266038841},{"NoteNumber":54,"Velocity":52,"Duration":130434,"SoundDuration":130434,"Delta":266038841},{"NoteNumber":65,"Velocity":72,"Duration":130434,"SoundDuration":130434,"Delta":266169276},{"NoteNumber":46,"Velocity":40,"Duration":521738,"SoundDuration":521738,"Delta":266169276},{"NoteNumber":50,"Velocity":40,"Duration":521738,"SoundDuration":521738,"Delta":266169276},{"NoteNumber":56,"Velocity":48,"Duration":521738,"SoundDuration":521738,"Delta":266169276},{"NoteNumber":66,"Velocity":67,"Duration":130434,"SoundDuration":130434,"Delta":266560580},{"NoteNumber":78,"Velocity":79,"Duration":130434,"SoundDuration":130434,"Delta":266560580},{"NoteNumber":63,"Velocity":72,"Duration":130434,"SoundDuration":130434,"Delta":266691015},{"NoteNumber":39,"Velocity":53,"Duration":130434,"SoundDuration":130434,"Delta":266691015},{"NoteNumber":46,"Velocity":52,"Duration":130434,"SoundDuration":130434,"Delta":266821450},{"NoteNumber":51,"Velocity":53,"Duration":130434,"SoundDuration":130434,"Delta":266951884},{"NoteNumber":82,"Velocity":81,"Duration":130434,"SoundDuration":130434,"Delta":267082319},{"NoteNumber":70,"Velocity":69,"Duration":130434,"SoundDuration":130434,"Delta":267082319},{"NoteNumber":54,"Velocity":53,"Duration":130434,"SoundDuration":130434,"Delta":267082319},{"NoteNumber":65,"Velocity":74,"Duration":130434,"SoundDuration":130434,"Delta":267212754},{"NoteNumber":46,"Velocity":40,"Duration":521738,"SoundDuration":521738,"Delta":267212754},{"NoteNumber":50,"Velocity":40,"Duration":521738,"SoundDuration":521738,"Delta":267212754},{"NoteNumber":56,"Velocity":48,"Duration":521738,"SoundDuration":521738,"Delta":267212754},{"NoteNumber":66,"Velocity":69,"Duration":130434,"SoundDuration":130434,"Delta":267604058},{"NoteNumber":78,"Velocity":81,"Duration":130434,"SoundDuration":130434,"Delta":267604058},{"NoteNumber":63,"Velocity":74,"Duration":130434,"SoundDuration":130434,"Delta":267734493},{"NoteNumber":39,"Velocity":52,"Duration":260869,"SoundDuration":260869,"Delta":267734493},{"NoteNumber":47,"Velocity":50,"Duration":130434,"SoundDuration":130434,"Delta":267864928},{"NoteNumber":51,"Velocity":52,"Duration":130434,"SoundDuration":130434,"Delta":267995362},{"NoteNumber":75,"Velocity":73,"Duration":130434,"SoundDuration":130434,"Delta":268125797},{"NoteNumber":87,"Velocity":86,"Duration":130434,"SoundDuration":130434,"Delta":268125797},{"NoteNumber":54,"Velocity":50,"Duration":130434,"SoundDuration":130434,"Delta":268125797},{"NoteNumber":65,"Velocity":74,"Duration":130434,"SoundDuration":130434,"Delta":268256232},{"NoteNumber":48,"Velocity":40,"Duration":521738,"SoundDuration":521738,"Delta":268256232},{"NoteNumber":51,"Velocity":40,"Duration":521738,"SoundDuration":521738,"Delta":268256232},{"NoteNumber":57,"Velocity":48,"Duration":521738,"SoundDuration":521738,"Delta":268256232},{"NoteNumber":89,"Velocity":82,"Duration":130434,"SoundDuration":130434,"Delta":268647536},{"NoteNumber":77,"Velocity":69,"Duration":130434,"SoundDuration":130434,"Delta":268647536},{"NoteNumber":66,"Velocity":74,"Duration":130434,"SoundDuration":130434,"Delta":268777971},{"NoteNumber":39,"Velocity":52,"Duration":260869,"SoundDuration":260869,"Delta":268777971},{"NoteNumber":48,"Velocity":51,"Duration":130434,"SoundDuration":130434,"Delta":268908406},{"NoteNumber":51,"Velocity":52,"Duration":130434,"SoundDuration":130434,"Delta":269038840},{"NoteNumber":78,"Velocity":69,"Duration":130434,"SoundDuration":130434,"Delta":269169275},{"NoteNumber":90,"Velocity":82,"Duration":130434,"SoundDuration":130434,"Delta":269169275},{"NoteNumber":57,"Velocity":50,"Duration":130434,"SoundDuration":130434,"Delta":269169275},{"NoteNumber":69,"Velocity":74,"Duration":130434,"SoundDuration":130434,"Delta":269299710},{"NoteNumber":51,"Velocity":41,"Duration":528919,"SoundDuration":528919,"Delta":269299710},{"NoteNumber":54,"Velocity":41,"Duration":528919,"SoundDuration":528919,"Delta":269299710},{"NoteNumber":60,"Velocity":49,"Duration":528919,"SoundDuration":528919,"Delta":269299710},{"NoteNumber":93,"Velocity":93,"Duration":137614,"SoundDuration":137614,"Delta":269691014},{"NoteNumber":81,"Velocity":79,"Duration":137614,"SoundDuration":137614,"Delta":269691014},{"NoteNumber":94,"Velocity":83,"Duration":555556,"SoundDuration":555556,"Delta":269828629},{"NoteNumber":82,"Velocity":74,"Duration":555556,"SoundDuration":555556,"Delta":269828629},{"NoteNumber":90,"Velocity":74,"Duration":555556,"SoundDuration":555556,"Delta":269828629},{"NoteNumber":87,"Velocity":74,"Duration":555556,"SoundDuration":555556,"Delta":269828629},{"NoteNumber":34,"Velocity":49,"Duration":555556,"SoundDuration":555556,"Delta":269828629},{"NoteNumber":39,"Velocity":49,"Duration":555556,"SoundDuration":555556,"Delta":269828629},{"NoteNumber":42,"Velocity":56,"Duration":555556,"SoundDuration":555556,"Delta":269828629},{"NoteNumber":46,"Velocity":56,"Duration":555556,"SoundDuration":555556,"Delta":269828629},{"NoteNumber":68,"Velocity":79,"Duration":555555,"SoundDuration":555555,"Delta":270384185},{"NoteNumber":62,"Velocity":79,"Duration":555555,"SoundDuration":555555,"Delta":270384185},{"NoteNumber":70,"Velocity":79,"Duration":555555,"SoundDuration":555555,"Delta":270384185},{"NoteNumber":74,"Velocity":88,"Duration":555555,"SoundDuration":555555,"Delta":270384185},{"NoteNumber":46,"Velocity":49,"Duration":555555,"SoundDuration":555555,"Delta":270384185},{"NoteNumber":53,"Velocity":49,"Duration":555555,"SoundDuration":555555,"Delta":270384185},{"NoteNumber":56,"Velocity":56,"Duration":555555,"SoundDuration":555555,"Delta":270384185},{"NoteNumber":58,"Velocity":56,"Duration":555555,"SoundDuration":555555,"Delta":270384185},{"NoteNumber":63,"Velocity":70,"Duration":130434,"SoundDuration":130434,"Delta":270939741},{"NoteNumber":66,"Velocity":70,"Duration":130434,"SoundDuration":130434,"Delta":270939741},{"NoteNumber":75,"Velocity":79,"Duration":130434,"SoundDuration":130434,"Delta":270939741},{"NoteNumber":35,"Velocity":46,"Duration":130434,"SoundDuration":130434,"Delta":270939741},{"NoteNumber":42,"Velocity":45,"Duration":130434,"SoundDuration":130434,"Delta":271070176},{"NoteNumber":47,"Velocity":46,"Duration":130434,"SoundDuration":130434,"Delta":271200610},{"NoteNumber":83,"Velocity":71,"Duration":130434,"SoundDuration":130434,"Delta":271331045},{"NoteNumber":71,"Velocity":59,"Duration":130434,"SoundDuration":130434,"Delta":271331045},{"NoteNumber":51,"Velocity":45,"Duration":130434,"SoundDuration":130434,"Delta":271331045},{"NoteNumber":66,"Velocity":66,"Duration":130434,"SoundDuration":130434,"Delta":271461480},{"NoteNumber":47,"Velocity":34,"Duration":521738,"SoundDuration":521738,"Delta":271461480},{"NoteNumber":52,"Velocity":34,"Duration":521738,"SoundDuration":521738,"Delta":271461480},{"NoteNumber":58,"Velocity":40,"Duration":521738,"SoundDuration":521738,"Delta":271461480},{"NoteNumber":79,"Velocity":73,"Duration":130434,"SoundDuration":130434,"Delta":271852784},{"NoteNumber":67,"Velocity":73,"Duration":130434,"SoundDuration":130434,"Delta":271852784},{"NoteNumber":63,"Velocity":66,"Duration":130434,"SoundDuration":130434,"Delta":271983219},{"NoteNumber":35,"Velocity":46,"Duration":130434,"SoundDuration":130434,"Delta":271983219},{"NoteNumber":42,"Velocity":45,"Duration":130434,"SoundDuration":130434,"Delta":272113654},{"NoteNumber":47,"Velocity":46,"Duration":130434,"SoundDuration":130434,"Delta":272244088},{"NoteNumber":83,"Velocity":77,"Duration":130434,"SoundDuration":130434,"Delta":272374523},{"NoteNumber":71,"Velocity":65,"Duration":130434,"SoundDuration":130434,"Delta":272374523},{"NoteNumber":51,"Velocity":45,"Duration":130434,"SoundDuration":130434,"Delta":272374523},{"NoteNumber":66,"Velocity":66,"Duration":130434,"SoundDuration":130434,"Delta":272504958},{"NoteNumber":47,"Velocity":33,"Duration":521738,"SoundDuration":521738,"Delta":272504958},{"NoteNumber":52,"Velocity":33,"Duration":521738,"SoundDuration":521738,"Delta":272504958},{"NoteNumber":58,"Velocity":39,"Duration":521738,"SoundDuration":521738,"Delta":272504958},{"NoteNumber":79,"Velocity":74,"Duration":130434,"SoundDuration":130434,"Delta":272896262},{"NoteNumber":67,"Velocity":62,"Duration":130434,"SoundDuration":130434,"Delta":272896262},{"NoteNumber":63,"Velocity":66,"Duration":130434,"SoundDuration":130434,"Delta":273026697},{"NoteNumber":35,"Velocity":41,"Duration":130434,"SoundDuration":130434,"Delta":273026697},{"NoteNumber":42,"Velocity":39,"Duration":130434,"SoundDuration":130434,"Delta":273157132},{"NoteNumber":47,"Velocity":41,"Duration":130434,"SoundDuration":130434,"Delta":273287566},{"NoteNumber":90,"Velocity":77,"Duration":130434,"SoundDuration":130434,"Delta":273418001},{"NoteNumber":78,"Velocity":57,"Duration":130434,"SoundDuration":130434,"Delta":273418001},{"NoteNumber":51,"Velocity":39,"Duration":652173,"SoundDuration":652173,"Delta":273418001},{"NoteNumber":65,"Velocity":72,"Duration":130434,"SoundDuration":130434,"Delta":273548436},{"NoteNumber":48,"Velocity":33,"Duration":521738,"SoundDuration":521738,"Delta":273548436},{"NoteNumber":57,"Velocity":39,"Duration":521738,"SoundDuration":521738,"Delta":273548436},{"NoteNumber":89,"Velocity":80,"Duration":130434,"SoundDuration":130434,"Delta":273939740},{"NoteNumber":77,"Velocity":60,"Duration":130434,"SoundDuration":130434,"Delta":273939740},{"NoteNumber":63,"Velocity":71,"Duration":130434,"SoundDuration":130434,"Delta":274070175},{"NoteNumber":29,"Velocity":41,"Duration":130434,"SoundDuration":130434,"Delta":274070175},{"NoteNumber":41,"Velocity":40,"Duration":130434,"SoundDuration":130434,"Delta":274200610},{"NoteNumber":45,"Velocity":41,"Duration":130434,"SoundDuration":130434,"Delta":274331044},{"NoteNumber":87,"Velocity":80,"Duration":130434,"SoundDuration":130434,"Delta":274461479},{"NoteNumber":75,"Velocity":60,"Duration":130434,"SoundDuration":130434,"Delta":274461479},{"NoteNumber":48,"Velocity":40,"Duration":659353,"SoundDuration":659353,"Delta":274461479},{"NoteNumber":57,"Velocity":69,"Duration":130434,"SoundDuration":130434,"Delta":274591914},{"NoteNumber":51,"Velocity":38,"Duration":528919,"SoundDuration":528919,"Delta":274591914},{"NoteNumber":41,"Velocity":32,"Duration":528919,"SoundDuration":528919,"Delta":274591914},{"NoteNumber":93,"Velocity":86,"Duration":137614,"SoundDuration":137614,"Delta":274983218},{"NoteNumber":81,"Velocity":78,"Duration":137614,"SoundDuration":137614,"Delta":274983218},{"NoteNumber":94,"Velocity":82,"Duration":533333,"SoundDuration":533333,"Delta":275120833},{"NoteNumber":90,"Velocity":73,"Duration":533333,"SoundDuration":533333,"Delta":275120833},{"NoteNumber":87,"Velocity":73,"Duration":533333,"SoundDuration":533333,"Delta":275120833},{"NoteNumber":82,"Velocity":73,"Duration":533333,"SoundDuration":533333,"Delta":275120833},{"NoteNumber":34,"Velocity":57,"Duration":533333,"SoundDuration":533333,"Delta":275120833},{"NoteNumber":39,"Velocity":57,"Duration":533333,"SoundDuration":533333,"Delta":275120833},{"NoteNumber":42,"Velocity":57,"Duration":533333,"SoundDuration":533333,"Delta":275120833},{"NoteNumber":46,"Velocity":64,"Duration":533333,"SoundDuration":533333,"Delta":275120833},{"NoteNumber":87,"Velocity":78,"Duration":533332,"SoundDuration":533332,"Delta":275654166},{"NoteNumber":75,"Velocity":71,"Duration":533332,"SoundDuration":533332,"Delta":275654166},{"NoteNumber":80,"Velocity":71,"Duration":533332,"SoundDuration":533332,"Delta":275654166},{"NoteNumber":83,"Velocity":78,"Duration":533332,"SoundDuration":533332,"Delta":275654166},{"NoteNumber":46,"Velocity":54,"Duration":533332,"SoundDuration":533332,"Delta":275654166},{"NoteNumber":51,"Velocity":54,"Duration":533332,"SoundDuration":533332,"Delta":275654166},{"NoteNumber":56,"Velocity":54,"Duration":533332,"SoundDuration":533332,"Delta":275654166},{"NoteNumber":59,"Velocity":61,"Duration":533332,"SoundDuration":533332,"Delta":275654166},{"NoteNumber":63,"Velocity":66,"Duration":533333,"SoundDuration":533333,"Delta":276187499},{"NoteNumber":69,"Velocity":66,"Duration":533333,"SoundDuration":533333,"Delta":276187499},{"NoteNumber":72,"Velocity":66,"Duration":533333,"SoundDuration":533333,"Delta":276187499},{"NoteNumber":75,"Velocity":74,"Duration":533333,"SoundDuration":533333,"Delta":276187499},{"NoteNumber":46,"Velocity":52,"Duration":533333,"SoundDuration":533333,"Delta":276187499},{"NoteNumber":53,"Velocity":52,"Duration":533333,"SoundDuration":533333,"Delta":276187499},{"NoteNumber":60,"Velocity":59,"Duration":533333,"SoundDuration":533333,"Delta":276187499},{"NoteNumber":62,"Velocity":63,"Duration":533332,"SoundDuration":533332,"Delta":276720832},{"NoteNumber":65,"Velocity":63,"Duration":533332,"SoundDuration":533332,"Delta":276720832},{"NoteNumber":56,"Velocity":63,"Duration":533332,"SoundDuration":533332,"Delta":276720832},{"NoteNumber":58,"Velocity":63,"Duration":533332,"SoundDuration":533332,"Delta":276720832},{"NoteNumber":70,"Velocity":71,"Duration":533332,"SoundDuration":533332,"Delta":276720832},{"NoteNumber":34,"Velocity":55,"Duration":533332,"SoundDuration":533332,"Delta":276720832},{"NoteNumber":46,"Velocity":55,"Duration":533332,"SoundDuration":533332,"Delta":276720832},{"NoteNumber":39,"Velocity":27,"Duration":149482,"SoundDuration":149482,"Delta":277187498},{"NoteNumber":42,"Velocity":27,"Duration":127260,"SoundDuration":127260,"Delta":277209721},{"NoteNumber":46,"Velocity":26,"Duration":105038,"SoundDuration":105038,"Delta":277231943},{"NoteNumber":51,"Velocity":52,"Duration":82816,"SoundDuration":82816,"Delta":277254165},{"NoteNumber":50,"Velocity":37,"Duration":82644,"SoundDuration":82644,"Delta":277419626},{"NoteNumber":51,"Velocity":36,"Duration":82644,"SoundDuration":82644,"Delta":277584915},{"NoteNumber":39,"Velocity":26,"Duration":144032,"SoundDuration":144032,"Delta":277688221},{"NoteNumber":44,"Velocity":26,"Duration":123456,"SoundDuration":123456,"Delta":277708797},{"NoteNumber":47,"Velocity":26,"Duration":102880,"SoundDuration":102880,"Delta":277729373},{"NoteNumber":53,"Velocity":36,"Duration":82304,"SoundDuration":82304,"Delta":277749949},{"NoteNumber":51,"Velocity":35,"Duration":82304,"SoundDuration":82304,"Delta":277914558},{"NoteNumber":50,"Velocity":35,"Duration":81967,"SoundDuration":81967,"Delta":278079083},{"NoteNumber":39,"Velocity":28,"Duration":122950,"SoundDuration":122950,"Delta":278202034},{"NoteNumber":46,"Velocity":28,"Duration":102458,"SoundDuration":102458,"Delta":278222525},{"NoteNumber":54,"Velocity":38,"Duration":81967,"SoundDuration":81967,"Delta":278243017},{"NoteNumber":50,"Velocity":37,"Duration":81716,"SoundDuration":81716,"Delta":278406952},{"NoteNumber":53,"Velocity":37,"Duration":81716,"SoundDuration":81716,"Delta":278406952},{"NoteNumber":51,"Velocity":37,"Duration":81632,"SoundDuration":81632,"Delta":278570301},{"NoteNumber":54,"Velocity":37,"Duration":81632,"SoundDuration":81632,"Delta":278570301},{"NoteNumber":39,"Velocity":28,"Duration":122366,"SoundDuration":122366,"Delta":278692750},{"NoteNumber":47,"Velocity":28,"Duration":101957,"SoundDuration":101957,"Delta":278713158},{"NoteNumber":56,"Velocity":37,"Duration":81549,"SoundDuration":81549,"Delta":278733566},{"NoteNumber":54,"Velocity":36,"Duration":81300,"SoundDuration":81300,"Delta":278896416},{"NoteNumber":51,"Velocity":36,"Duration":81300,"SoundDuration":81300,"Delta":278896416},{"NoteNumber":53,"Velocity":36,"Duration":81300,"SoundDuration":81300,"Delta":279059018},{"NoteNumber":50,"Velocity":36,"Duration":81300,"SoundDuration":81300,"Delta":279059018},{"NoteNumber":51,"Velocity":30,"Duration":141782,"SoundDuration":141782,"Delta":279160644},{"NoteNumber":54,"Velocity":30,"Duration":121457,"SoundDuration":121457,"Delta":279180969},{"NoteNumber":58,"Velocity":30,"Duration":101214,"SoundDuration":101214,"Delta":279201212},{"NoteNumber":63,"Velocity":53,"Duration":80971,"SoundDuration":80971,"Delta":279221455},{"NoteNumber":62,"Velocity":51,"Duration":80971,"SoundDuration":80971,"Delta":279383398},{"NoteNumber":63,"Velocity":53,"Duration":80645,"SoundDuration":80645,"Delta":279545342},{"NoteNumber":51,"Velocity":31,"Duration":141129,"SoundDuration":141129,"Delta":279646148},{"NoteNumber":56,"Velocity":31,"Duration":120967,"SoundDuration":120967,"Delta":279666310},{"NoteNumber":59,"Velocity":31,"Duration":100806,"SoundDuration":100806,"Delta":279686471},{"NoteNumber":65,"Velocity":53,"Duration":80645,"SoundDuration":80645,"Delta":279706632},{"NoteNumber":63,"Velocity":51,"Duration":80483,"SoundDuration":80483,"Delta":279867922},{"NoteNumber":62,"Velocity":53,"Duration":80321,"SoundDuration":80321,"Delta":280028727},{"NoteNumber":51,"Velocity":35,"Duration":120481,"SoundDuration":120481,"Delta":280149209},{"NoteNumber":58,"Velocity":37,"Duration":100401,"SoundDuration":100401,"Delta":280169289},{"NoteNumber":66,"Velocity":56,"Duration":80321,"SoundDuration":80321,"Delta":280189370},{"NoteNumber":62,"Velocity":53,"Duration":80000,"SoundDuration":80000,"Delta":280349691},{"NoteNumber":65,"Velocity":53,"Duration":80000,"SoundDuration":80000,"Delta":280349691},{"NoteNumber":63,"Velocity":56,"Duration":79999,"SoundDuration":79999,"Delta":280509691},{"NoteNumber":66,"Velocity":56,"Duration":79999,"SoundDuration":79999,"Delta":280509691},{"NoteNumber":51,"Velocity":35,"Duration":119601,"SoundDuration":119601,"Delta":280629691},{"NoteNumber":59,"Velocity":35,"Duration":99601,"SoundDuration":99601,"Delta":280649691},{"NoteNumber":68,"Velocity":56,"Duration":79681,"SoundDuration":79681,"Delta":280669611},{"NoteNumber":66,"Velocity":52,"Duration":79681,"SoundDuration":79681,"Delta":280828974},{"NoteNumber":63,"Velocity":52,"Duration":79681,"SoundDuration":79681,"Delta":280828974},{"NoteNumber":65,"Velocity":56,"Duration":79444,"SoundDuration":79444,"Delta":280988337},{"NoteNumber":62,"Velocity":56,"Duration":79444,"SoundDuration":79444,"Delta":280988337},{"NoteNumber":63,"Velocity":40,"Duration":138888,"SoundDuration":138888,"Delta":281087622},{"NoteNumber":66,"Velocity":40,"Duration":119047,"SoundDuration":119047,"Delta":281107463},{"NoteNumber":70,"Velocity":40,"Duration":99206,"SoundDuration":99206,"Delta":281127305},{"NoteNumber":75,"Velocity":66,"Duration":79364,"SoundDuration":79364,"Delta":281147146},{"NoteNumber":86,"Velocity":63,"Duration":79286,"SoundDuration":79286,"Delta":281305876},{"NoteNumber":74,"Velocity":63,"Duration":79286,"SoundDuration":79286,"Delta":281305876},{"NoteNumber":75,"Velocity":66,"Duration":79051,"SoundDuration":79051,"Delta":281464214},{"NoteNumber":87,"Velocity":66,"Duration":79051,"SoundDuration":79051,"Delta":281464214},{"NoteNumber":63,"Velocity":41,"Duration":138339,"SoundDuration":138339,"Delta":281563028},{"NoteNumber":68,"Velocity":44,"Duration":118576,"SoundDuration":118576,"Delta":281582791},{"NoteNumber":71,"Velocity":41,"Duration":98814,"SoundDuration":98814,"Delta":281602554},{"NoteNumber":77,"Velocity":66,"Duration":79051,"SoundDuration":79051,"Delta":281622316},{"NoteNumber":87,"Velocity":63,"Duration":78740,"SoundDuration":78740,"Delta":281780186},{"NoteNumber":75,"Velocity":63,"Duration":78740,"SoundDuration":78740,"Delta":281780186},{"NoteNumber":77,"Velocity":66,"Duration":78740,"SoundDuration":78740,"Delta":281937666},{"NoteNumber":89,"Velocity":66,"Duration":78740,"SoundDuration":78740,"Delta":281937666},{"NoteNumber":63,"Velocity":48,"Duration":117724,"SoundDuration":117724,"Delta":282055776},{"NoteNumber":70,"Velocity":48,"Duration":98039,"SoundDuration":98039,"Delta":282075461},{"NoteNumber":78,"Velocity":77,"Duration":78431,"SoundDuration":78431,"Delta":282095069},{"NoteNumber":77,"Velocity":74,"Duration":78431,"SoundDuration":78431,"Delta":282251932},{"NoteNumber":89,"Velocity":74,"Duration":78431,"SoundDuration":78431,"Delta":282251932},{"NoteNumber":90,"Velocity":77,"Duration":78431,"SoundDuration":78431,"Delta":282408794},{"NoteNumber":78,"Velocity":77,"Duration":78431,"SoundDuration":78431,"Delta":282408794},{"NoteNumber":63,"Velocity":52,"Duration":117646,"SoundDuration":117646,"Delta":282526441},{"NoteNumber":71,"Velocity":53,"Duration":98039,"SoundDuration":98039,"Delta":282546049},{"NoteNumber":80,"Velocity":85,"Duration":78431,"SoundDuration":78431,"Delta":282565657},{"NoteNumber":90,"Velocity":83,"Duration":78431,"SoundDuration":78431,"Delta":282722520},{"NoteNumber":78,"Velocity":83,"Duration":78431,"SoundDuration":78431,"Delta":282722520},{"NoteNumber":77,"Velocity":85,"Duration":78431,"SoundDuration":78431,"Delta":282879382},{"NoteNumber":89,"Velocity":85,"Duration":78431,"SoundDuration":78431,"Delta":282879382},{"NoteNumber":87,"Velocity":78,"Duration":84033,"SoundDuration":84033,"Delta":283036245},{"NoteNumber":82,"Velocity":78,"Duration":84033,"SoundDuration":84033,"Delta":283036245},{"NoteNumber":90,"Velocity":86,"Duration":84033,"SoundDuration":84033,"Delta":283036245},{"NoteNumber":78,"Velocity":78,"Duration":84033,"SoundDuration":84033,"Delta":283036245},{"NoteNumber":63,"Velocity":42,"Duration":126050,"SoundDuration":126050,"Delta":283036245},{"NoteNumber":66,"Velocity":42,"Duration":126050,"SoundDuration":126050,"Delta":283036245},{"NoteNumber":70,"Velocity":42,"Duration":126050,"SoundDuration":126050,"Delta":283036245},{"NoteNumber":75,"Velocity":48,"Duration":126050,"SoundDuration":126050,"Delta":283036245},{"NoteNumber":77,"Velocity":84,"Duration":84033,"SoundDuration":84033,"Delta":283204312},{"NoteNumber":89,"Velocity":84,"Duration":84033,"SoundDuration":84033,"Delta":283204312},{"NoteNumber":51,"Velocity":52,"Duration":126050,"SoundDuration":126050,"Delta":283288346},{"NoteNumber":63,"Velocity":52,"Duration":126050,"SoundDuration":126050,"Delta":283288346},{"NoteNumber":78,"Velocity":86,"Duration":84033,"SoundDuration":84033,"Delta":283372380},{"NoteNumber":90,"Velocity":86,"Duration":84033,"SoundDuration":84033,"Delta":283372380},{"NoteNumber":87,"Velocity":78,"Duration":84033,"SoundDuration":84033,"Delta":283540447},{"NoteNumber":83,"Velocity":78,"Duration":84033,"SoundDuration":84033,"Delta":283540447},{"NoteNumber":92,"Velocity":86,"Duration":84033,"SoundDuration":84033,"Delta":283540447},{"NoteNumber":80,"Velocity":78,"Duration":84033,"SoundDuration":84033,"Delta":283540447},{"NoteNumber":63,"Velocity":42,"Duration":126050,"SoundDuration":126050,"Delta":283540447},{"NoteNumber":68,"Velocity":42,"Duration":126050,"SoundDuration":126050,"Delta":283540447},{"NoteNumber":71,"Velocity":42,"Duration":126050,"SoundDuration":126050,"Delta":283540447},{"NoteNumber":75,"Velocity":48,"Duration":126050,"SoundDuration":126050,"Delta":283540447},{"NoteNumber":78,"Velocity":83,"Duration":84033,"SoundDuration":84033,"Delta":283708514},{"NoteNumber":90,"Velocity":83,"Duration":84033,"SoundDuration":84033,"Delta":283708514},{"NoteNumber":44,"Velocity":49,"Duration":126050,"SoundDuration":126050,"Delta":283792548},{"NoteNumber":56,"Velocity":49,"Duration":126050,"SoundDuration":126050,"Delta":283792548},{"NoteNumber":89,"Velocity":86,"Duration":84033,"SoundDuration":84033,"Delta":283876582},{"NoteNumber":77,"Velocity":86,"Duration":84033,"SoundDuration":84033,"Delta":283876582},{"NoteNumber":90,"Velocity":88,"Duration":84033,"SoundDuration":84033,"Delta":284044649},{"NoteNumber":87,"Velocity":79,"Duration":84033,"SoundDuration":84033,"Delta":284044649},{"NoteNumber":78,"Velocity":79,"Duration":84033,"SoundDuration":84033,"Delta":284044649},{"NoteNumber":82,"Velocity":79,"Duration":84033,"SoundDuration":84033,"Delta":284044649},{"NoteNumber":63,"Velocity":48,"Duration":126050,"SoundDuration":126050,"Delta":284044649},{"NoteNumber":51,"Velocity":42,"Duration":126050,"SoundDuration":126050,"Delta":284044649},{"NoteNumber":54,"Velocity":42,"Duration":126050,"SoundDuration":126050,"Delta":284044649},{"NoteNumber":58,"Velocity":42,"Duration":126050,"SoundDuration":126050,"Delta":284044649},{"NoteNumber":77,"Velocity":85,"Duration":84033,"SoundDuration":84033,"Delta":284212716},{"NoteNumber":89,"Velocity":85,"Duration":84033,"SoundDuration":84033,"Delta":284212716},{"NoteNumber":39,"Velocity":52,"Duration":126050,"SoundDuration":126050,"Delta":284296750},{"NoteNumber":51,"Velocity":52,"Duration":126050,"SoundDuration":126050,"Delta":284296750},{"NoteNumber":90,"Velocity":88,"Duration":84033,"SoundDuration":84033,"Delta":284380784},{"NoteNumber":78,"Velocity":88,"Duration":84033,"SoundDuration":84033,"Delta":284380784},{"NoteNumber":83,"Velocity":79,"Duration":84033,"SoundDuration":84033,"Delta":284548851},{"NoteNumber":87,"Velocity":79,"Duration":84033,"SoundDuration":84033,"Delta":284548851},{"NoteNumber":92,"Velocity":88,"Duration":84033,"SoundDuration":84033,"Delta":284548851},{"NoteNumber":80,"Velocity":79,"Duration":84033,"SoundDuration":84033,"Delta":284548851},{"NoteNumber":51,"Velocity":42,"Duration":126050,"SoundDuration":126050,"Delta":284548851},{"NoteNumber":56,"Velocity":42,"Duration":126050,"SoundDuration":126050,"Delta":284548851},{"NoteNumber":59,"Velocity":42,"Duration":126050,"SoundDuration":126050,"Delta":284548851},{"NoteNumber":63,"Velocity":48,"Duration":126050,"SoundDuration":126050,"Delta":284548851},{"NoteNumber":90,"Velocity":85,"Duration":84033,"SoundDuration":84033,"Delta":284716918},{"NoteNumber":78,"Velocity":85,"Duration":84033,"SoundDuration":84033,"Delta":284716918},{"NoteNumber":32,"Velocity":53,"Duration":126050,"SoundDuration":126050,"Delta":284800952},{"NoteNumber":44,"Velocity":53,"Duration":126050,"SoundDuration":126050,"Delta":284800952},{"NoteNumber":77,"Velocity":88,"Duration":84033,"SoundDuration":84033,"Delta":284884986},{"NoteNumber":89,"Velocity":88,"Duration":84033,"SoundDuration":84033,"Delta":284884986},{"NoteNumber":82,"Velocity":79,"Duration":88888,"SoundDuration":88888,"Delta":285053053},{"NoteNumber":87,"Velocity":79,"Duration":88888,"SoundDuration":88888,"Delta":285053053},{"NoteNumber":90,"Velocity":88,"Duration":88888,"SoundDuration":88888,"Delta":285053053},{"NoteNumber":78,"Velocity":79,"Duration":88888,"SoundDuration":88888,"Delta":285053053},{"NoteNumber":46,"Velocity":48,"Duration":133333,"SoundDuration":133333,"Delta":285053053},{"NoteNumber":51,"Velocity":48,"Duration":133333,"SoundDuration":133333,"Delta":285053053},{"NoteNumber":54,"Velocity":48,"Duration":133333,"SoundDuration":133333,"Delta":285053053},{"NoteNumber":58,"Velocity":53,"Duration":133333,"SoundDuration":133333,"Delta":285053053},{"NoteNumber":77,"Velocity":85,"Duration":88888,"SoundDuration":88888,"Delta":285230831},{"NoteNumber":89,"Velocity":85,"Duration":88888,"SoundDuration":88888,"Delta":285230831},{"NoteNumber":27,"Velocity":58,"Duration":133333,"SoundDuration":133333,"Delta":285319720},{"NoteNumber":39,"Velocity":58,"Duration":133333,"SoundDuration":133333,"Delta":285319720},{"NoteNumber":75,"Velocity":88,"Duration":88888,"SoundDuration":88888,"Delta":285408608},{"NoteNumber":87,"Velocity":88,"Duration":88888,"SoundDuration":88888,"Delta":285408608},{"NoteNumber":87,"Velocity":79,"Duration":88888,"SoundDuration":88888,"Delta":285586386},{"NoteNumber":83,"Velocity":79,"Duration":88888,"SoundDuration":88888,"Delta":285586386},{"NoteNumber":90,"Velocity":88,"Duration":88888,"SoundDuration":88888,"Delta":285586386},{"NoteNumber":78,"Velocity":79,"Duration":88888,"SoundDuration":88888,"Delta":285586386},{"NoteNumber":47,"Velocity":47,"Duration":133333,"SoundDuration":133333,"Delta":285586386},{"NoteNumber":51,"Velocity":47,"Duration":133333,"SoundDuration":133333,"Delta":285586386},{"NoteNumber":54,"Velocity":47,"Duration":133333,"SoundDuration":133333,"Delta":285586386},{"NoteNumber":59,"Velocity":52,"Duration":133333,"SoundDuration":133333,"Delta":285586386},{"NoteNumber":89,"Velocity":85,"Duration":88888,"SoundDuration":88888,"Delta":285764164},{"NoteNumber":77,"Velocity":85,"Duration":88888,"SoundDuration":88888,"Delta":285764164},{"NoteNumber":27,"Velocity":57,"Duration":133333,"SoundDuration":133333,"Delta":285853053},{"NoteNumber":39,"Velocity":57,"Duration":133333,"SoundDuration":133333,"Delta":285853053},{"NoteNumber":87,"Velocity":88,"Duration":88888,"SoundDuration":88888,"Delta":285941941},{"NoteNumber":75,"Velocity":88,"Duration":88888,"SoundDuration":88888,"Delta":285941941},{"NoteNumber":90,"Velocity":89,"Duration":95693,"SoundDuration":95693,"Delta":286119719},{"NoteNumber":78,"Velocity":79,"Duration":95693,"SoundDuration":95693,"Delta":286119719},{"NoteNumber":87,"Velocity":79,"Duration":95693,"SoundDuration":95693,"Delta":286119719},{"NoteNumber":84,"Velocity":79,"Duration":95693,"SoundDuration":95693,"Delta":286119719},{"NoteNumber":81,"Velocity":79,"Duration":95693,"SoundDuration":95693,"Delta":286119719},{"NoteNumber":60,"Velocity":52,"Duration":574162,"SoundDuration":574162,"Delta":286119719},{"NoteNumber":57,"Velocity":52,"Duration":574162,"SoundDuration":574162,"Delta":286119719},{"NoteNumber":54,"Velocity":47,"Duration":574162,"SoundDuration":574162,"Delta":286119719},{"NoteNumber":51,"Velocity":47,"Duration":574162,"SoundDuration":574162,"Delta":286119719},{"NoteNumber":48,"Velocity":47,"Duration":574162,"SoundDuration":574162,"Delta":286119719},{"NoteNumber":89,"Velocity":85,"Duration":95693,"SoundDuration":95693,"Delta":286311107},{"NoteNumber":77,"Velocity":85,"Duration":95693,"SoundDuration":95693,"Delta":286311107},{"NoteNumber":87,"Velocity":89,"Duration":95693,"SoundDuration":95693,"Delta":286502494},{"NoteNumber":75,"Velocity":89,"Duration":95693,"SoundDuration":95693,"Delta":286502494},{"NoteNumber":46,"Velocity":55,"Duration":219553,"SoundDuration":219553,"Delta":286622112},{"NoteNumber":53,"Velocity":55,"Duration":195630,"SoundDuration":195630,"Delta":286646035},{"NoteNumber":58,"Velocity":61,"Duration":171706,"SoundDuration":171706,"Delta":286669959},{"NoteNumber":82,"Velocity":79,"Duration":98522,"SoundDuration":98522,"Delta":286693882},{"NoteNumber":89,"Velocity":89,"Duration":98522,"SoundDuration":98522,"Delta":286693882},{"NoteNumber":86,"Velocity":79,"Duration":98522,"SoundDuration":98522,"Delta":286693882},{"NoteNumber":77,"Velocity":79,"Duration":98522,"SoundDuration":98522,"Delta":286693882},{"NoteNumber":62,"Velocity":61,"Duration":147783,"SoundDuration":147783,"Delta":286693882},{"NoteNumber":70,"Velocity":92,"Duration":111111,"SoundDuration":111111,"Delta":286989449},{"NoteNumber":82,"Velocity":92,"Duration":111111,"SoundDuration":111111,"Delta":286989449},{"NoteNumber":34,"Velocity":70,"Duration":166666,"SoundDuration":166666,"Delta":286989449},{"NoteNumber":46,"Velocity":70,"Duration":166666,"SoundDuration":166666,"Delta":286989449},{"NoteNumber":75,"Velocity":101,"Duration":229885,"SoundDuration":229885,"Delta":287322782},{"NoteNumber":87,"Velocity":101,"Duration":229885,"SoundDuration":229885,"Delta":287322782},{"NoteNumber":27,"Velocity":74,"Duration":229885,"SoundDuration":229885,"Delta":287322782},{"NoteNumber":39,"Velocity":74,"Duration":229885,"SoundDuration":229885,"Delta":287322782},{"NoteNumber":78,"Velocity":86,"Duration":606061,"SoundDuration":606061,"Delta":288012437},{"NoteNumber":83,"Velocity":86,"Duration":606061,"SoundDuration":606061,"Delta":288012437},{"NoteNumber":87,"Velocity":96,"Duration":606061,"SoundDuration":606061,"Delta":288012437},{"NoteNumber":75,"Velocity":86,"Duration":606061,"SoundDuration":606061,"Delta":288012437},{"NoteNumber":35,"Velocity":63,"Duration":606061,"SoundDuration":606061,"Delta":288012437},{"NoteNumber":39,"Velocity":63,"Duration":606061,"SoundDuration":606061,"Delta":288012437},{"NoteNumber":42,"Velocity":63,"Duration":606061,"SoundDuration":606061,"Delta":288012437},{"NoteNumber":47,"Velocity":71,"Duration":606061,"SoundDuration":606061,"Delta":288012437},{"NoteNumber":85,"Velocity":96,"Duration":606061,"SoundDuration":606061,"Delta":288618498},{"NoteNumber":82,"Velocity":86,"Duration":606061,"SoundDuration":606061,"Delta":288618498},{"NoteNumber":78,"Velocity":86,"Duration":606061,"SoundDuration":606061,"Delta":288618498},{"NoteNumber":73,"Velocity":86,"Duration":606061,"SoundDuration":606061,"Delta":288618498},{"NoteNumber":42,"Velocity":63,"Duration":606061,"SoundDuration":606061,"Delta":288618498},{"NoteNumber":46,"Velocity":63,"Duration":606061,"SoundDuration":606061,"Delta":288618498},{"NoteNumber":49,"Velocity":63,"Duration":606061,"SoundDuration":606061,"Delta":288618498},{"NoteNumber":54,"Velocity":71,"Duration":606061,"SoundDuration":606061,"Delta":288618498},{"NoteNumber":80,"Velocity":82,"Duration":606060,"SoundDuration":606060,"Delta":289224559},{"NoteNumber":83,"Velocity":92,"Duration":606060,"SoundDuration":606060,"Delta":289224559},{"NoteNumber":71,"Velocity":82,"Duration":606060,"SoundDuration":606060,"Delta":289224559},{"NoteNumber":75,"Velocity":82,"Duration":606060,"SoundDuration":606060,"Delta":289224559},{"NoteNumber":44,"Velocity":62,"Duration":606060,"SoundDuration":606060,"Delta":289224559},{"NoteNumber":47,"Velocity":62,"Duration":606060,"SoundDuration":606060,"Delta":289224559},{"NoteNumber":51,"Velocity":62,"Duration":606060,"SoundDuration":606060,"Delta":289224559},{"NoteNumber":56,"Velocity":70,"Duration":606060,"SoundDuration":606060,"Delta":289224559},{"NoteNumber":70,"Velocity":86,"Duration":1212122,"SoundDuration":1212122,"Delta":289830620},{"NoteNumber":82,"Velocity":96,"Duration":2588044,"SoundDuration":2588044,"Delta":289830620},{"NoteNumber":75,"Velocity":86,"Duration":1212122,"SoundDuration":1212122,"Delta":289830620},{"NoteNumber":78,"Velocity":86,"Duration":2588044,"SoundDuration":2588044,"Delta":289830620},{"NoteNumber":51,"Velocity":63,"Duration":1860770,"SoundDuration":1860770,"Delta":289830620},{"NoteNumber":54,"Velocity":63,"Duration":1860770,"SoundDuration":1860770,"Delta":289830620},{"NoteNumber":58,"Velocity":63,"Duration":2224407,"SoundDuration":2224407,"Delta":289830620},{"NoteNumber":63,"Velocity":71,"Duration":1212122,"SoundDuration":1212122,"Delta":289830620},{"NoteNumber":70,"Velocity":90,"Duration":324324,"SoundDuration":324324,"Delta":291042742},{"NoteNumber":63,"Velocity":80,"Duration":324324,"SoundDuration":324324,"Delta":291042742},{"NoteNumber":66,"Velocity":80,"Duration":324324,"SoundDuration":324324,"Delta":291042742},{"NoteNumber":75,"Velocity":90,"Duration":324324,"SoundDuration":324324,"Delta":291042742},{"NoteNumber":27,"Velocity":62,"Duration":324324,"SoundDuration":324324,"Delta":291042742},{"NoteNumber":39,"Velocity":70,"Duration":324324,"SoundDuration":324324,"Delta":291042742},{"NoteNumber":63,"Velocity":80,"Duration":363636,"SoundDuration":363636,"Delta":291691391},{"NoteNumber":75,"Velocity":90,"Duration":363636,"SoundDuration":363636,"Delta":291691391},{"NoteNumber":66,"Velocity":80,"Duration":363636,"SoundDuration":363636,"Delta":291691391},{"NoteNumber":70,"Velocity":80,"Duration":363636,"SoundDuration":363636,"Delta":291691391},{"NoteNumber":46,"Velocity":62,"Duration":363636,"SoundDuration":363636,"Delta":291691391},{"NoteNumber":51,"Velocity":62,"Duration":363636,"SoundDuration":363636,"Delta":291691391},{"NoteNumber":54,"Velocity":62,"Duration":363636,"SoundDuration":363636,"Delta":291691391},{"NoteNumber":58,"Velocity":70,"Duration":727273,"SoundDuration":727273,"Delta":291691391},{"NoteNumber":99,"Velocity":90,"Duration":1454545,"SoundDuration":1454545,"Delta":292418664},{"NoteNumber":94,"Velocity":80,"Duration":1454545,"SoundDuration":1454545,"Delta":292418664},{"NoteNumber":90,"Velocity":76,"Duration":1454545,"SoundDuration":1454545,"Delta":292418664},{"NoteNumber":87,"Velocity":75,"Duration":1454545,"SoundDuration":1454545,"Delta":292418664},{"NoteNumber":78,"Velocity":69,"Duration":1454545,"SoundDuration":1454545,"Delta":292418664},{"NoteNumber":75,"Velocity":61,"Duration":1454545,"SoundDuration":1454545,"Delta":292418664},{"NoteNumber":70,"Velocity":58,"Duration":1454545,"SoundDuration":1454545,"Delta":292418664},{"NoteNumber":66,"Velocity":58,"Duration":1454545,"SoundDuration":1454545,"Delta":292418664}],"license":{"name":"Creative Commons Attribution-ShareAlike 3.0 Germany","url":"http://creativecommons.org/licenses/by-sa/3.0/de/deed.en","text":"The MIDI, audio (MP3, OGG) and video files of Bernd Krueger are licensed under the cc-by-sa Germany License. This means that you can use and adapt the files, as long as you attribute the copyright holder.\n\nName: Bernd Krueger\nSource: http://www.piano-midi.de\n\nThe distribution or public playback of the files is only allowed under identical license conditions.\n\nThe scores are open source.","attribution":"MIDI files by Bernd Krueger (piano-midi.de)"}}