{"title":"Romdo","artist":"Piano","durationMs":175462,"midiSha256":"e87b60ae8cfbc547b918697f22d315e1cc991827fdbbefb775767b5fdc6986e1","midiObject":[{"NoteNumber":79,"Velocity":48,"Duration":124285,"SoundDuration":124285,"Delta":0},{"NoteNumber":81,"Velocity":54,"Duration":124285,"SoundDuration":124285,"Delta":124285},{"NoteNumber":83,"Velocity":55,"Duration":124285,"SoundDuration":124285,"Delta":248570},{"NoteNumber":84,"Velocity":60,"Duration":124285,"SoundDuration":124285,"Delta":372855},{"NoteNumber":86,"Velocity":63,"Duration":516395,"SoundDuration":516395,"Delta":497141},{"NoteNumber":59,"Velocity":34,"Duration":129098,"SoundDuration":129098,"Delta":497141},{"NoteNumber":67,"Velocity":40,"Duration":129098,"SoundDuration":129098,"Delta":497141},{"NoteNumber":67,"Velocity":34,"Duration":129098,"SoundDuration":129098,"Delta":755339},{"NoteNumber":59,"Velocity":28,"Duration":129098,"SoundDuration":129098,"Delta":755339},{"NoteNumber":84,"Velocity":55,"Duration":124802,"SoundDuration":124802,"Delta":1013537},{"NoteNumber":83,"Velocity":51,"Duration":124802,"SoundDuration":124802,"Delta":1138339},{"NoteNumber":81,"Velocity":51,"Duration":124802,"SoundDuration":124802,"Delta":1263142},{"NoteNumber":79,"Velocity":51,"Duration":124802,"SoundDuration":124802,"Delta":1387944},{"NoteNumber":78,"Velocity":58,"Duration":516395,"SoundDuration":516395,"Delta":1512747},{"NoteNumber":62,"Velocity":34,"Duration":129099,"SoundDuration":129099,"Delta":1512747},{"NoteNumber":69,"Velocity":40,"Duration":129099,"SoundDuration":129099,"Delta":1512747},{"NoteNumber":69,"Velocity":34,"Duration":129099,"SoundDuration":129099,"Delta":1770945},{"NoteNumber":62,"Velocity":28,"Duration":129099,"SoundDuration":129099,"Delta":1770945},{"NoteNumber":79,"Velocity":55,"Duration":124285,"SoundDuration":124285,"Delta":2029143},{"NoteNumber":78,"Velocity":51,"Duration":124285,"SoundDuration":124285,"Delta":2153428},{"NoteNumber":76,"Velocity":53,"Duration":124285,"SoundDuration":124285,"Delta":2277713},{"NoteNumber":74,"Velocity":51,"Duration":124285,"SoundDuration":124285,"Delta":2401998},{"NoteNumber":79,"Velocity":55,"Duration":128545,"SoundDuration":128545,"Delta":2526284},{"NoteNumber":67,"Velocity":34,"Duration":128545,"SoundDuration":128545,"Delta":2526284},{"NoteNumber":71,"Velocity":40,"Duration":128545,"SoundDuration":128545,"Delta":2526284},{"NoteNumber":79,"Velocity":50,"Duration":134904,"SoundDuration":134904,"Delta":2783375},{"NoteNumber":71,"Velocity":36,"Duration":134904,"SoundDuration":134904,"Delta":2783375},{"NoteNumber":67,"Velocity":30,"Duration":134904,"SoundDuration":134904,"Delta":2783375},{"NoteNumber":81,"Velocity":55,"Duration":124285,"SoundDuration":124285,"Delta":3053184},{"NoteNumber":67,"Velocity":34,"Duration":124285,"SoundDuration":124285,"Delta":3053184},{"NoteNumber":71,"Velocity":40,"Duration":124285,"SoundDuration":124285,"Delta":3053184},{"NoteNumber":79,"Velocity":50,"Duration":124285,"SoundDuration":124285,"Delta":3177469},{"NoteNumber":78,"Velocity":51,"Duration":124285,"SoundDuration":124285,"Delta":3301754},{"NoteNumber":71,"Velocity":35,"Duration":124285,"SoundDuration":124285,"Delta":3301754},{"NoteNumber":67,"Velocity":29,"Duration":124285,"SoundDuration":124285,"Delta":3301754},{"NoteNumber":79,"Velocity":47,"Duration":124285,"SoundDuration":124285,"Delta":3426039},{"NoteNumber":81,"Velocity":55,"Duration":514183,"SoundDuration":514183,"Delta":3550325},{"NoteNumber":62,"Velocity":34,"Duration":128545,"SoundDuration":128545,"Delta":3550325},{"NoteNumber":69,"Velocity":40,"Duration":128545,"SoundDuration":128545,"Delta":3550325},{"NoteNumber":69,"Velocity":35,"Duration":128545,"SoundDuration":128545,"Delta":3807416},{"NoteNumber":62,"Velocity":29,"Duration":128545,"SoundDuration":128545,"Delta":3807416},{"NoteNumber":81,"Velocity":48,"Duration":124285,"SoundDuration":124285,"Delta":4064508},{"NoteNumber":83,"Velocity":54,"Duration":124285,"SoundDuration":124285,"Delta":4188793},{"NoteNumber":84,"Velocity":58,"Duration":124285,"SoundDuration":124285,"Delta":4313078},{"NoteNumber":86,"Velocity":62,"Duration":124285,"SoundDuration":124285,"Delta":4437363},{"NoteNumber":88,"Velocity":65,"Duration":516396,"SoundDuration":516396,"Delta":4561649},{"NoteNumber":66,"Velocity":34,"Duration":129099,"SoundDuration":129099,"Delta":4561649},{"NoteNumber":72,"Velocity":40,"Duration":129099,"SoundDuration":129099,"Delta":4561649},{"NoteNumber":72,"Velocity":34,"Duration":129099,"SoundDuration":129099,"Delta":4819847},{"NoteNumber":66,"Velocity":28,"Duration":129099,"SoundDuration":129099,"Delta":4819847},{"NoteNumber":86,"Velocity":55,"Duration":124802,"SoundDuration":124802,"Delta":5078045},{"NoteNumber":84,"Velocity":51,"Duration":124802,"SoundDuration":124802,"Delta":5202847},{"NoteNumber":83,"Velocity":51,"Duration":124802,"SoundDuration":124802,"Delta":5327650},{"NoteNumber":81,"Velocity":51,"Duration":124802,"SoundDuration":124802,"Delta":5452452},{"NoteNumber":86,"Velocity":58,"Duration":94784,"SoundDuration":94784,"Delta":5577255},{"NoteNumber":67,"Velocity":34,"Duration":126379,"SoundDuration":126379,"Delta":5577255},{"NoteNumber":71,"Velocity":40,"Duration":126379,"SoundDuration":126379,"Delta":5577255},{"NoteNumber":86,"Velocity":54,"Duration":100276,"SoundDuration":100276,"Delta":5830014},{"NoteNumber":84,"Velocity":55,"Duration":124285,"SoundDuration":124285,"Delta":6097418},{"NoteNumber":67,"Velocity":28,"Duration":124285,"SoundDuration":124285,"Delta":6097418},{"NoteNumber":71,"Velocity":34,"Duration":124285,"SoundDuration":124285,"Delta":6097418},{"NoteNumber":83,"Velocity":51,"Duration":124285,"SoundDuration":124285,"Delta":6221703},{"NoteNumber":81,"Velocity":53,"Duration":124285,"SoundDuration":124285,"Delta":6345988},{"NoteNumber":79,"Velocity":51,"Duration":124285,"SoundDuration":124285,"Delta":6470273},{"NoteNumber":84,"Velocity":55,"Duration":96409,"SoundDuration":96409,"Delta":6594559},{"NoteNumber":62,"Velocity":34,"Duration":128545,"SoundDuration":128545,"Delta":6594559},{"NoteNumber":69,"Velocity":40,"Duration":128545,"SoundDuration":128545,"Delta":6594559},{"NoteNumber":84,"Velocity":50,"Duration":96409,"SoundDuration":96409,"Delta":6851650},{"NoteNumber":83,"Velocity":55,"Duration":124285,"SoundDuration":124285,"Delta":7108742},{"NoteNumber":62,"Velocity":34,"Duration":124285,"SoundDuration":124285,"Delta":7108742},{"NoteNumber":69,"Velocity":40,"Duration":124285,"SoundDuration":124285,"Delta":7108742},{"NoteNumber":81,"Velocity":50,"Duration":124285,"SoundDuration":124285,"Delta":7233027},{"NoteNumber":79,"Velocity":51,"Duration":131359,"SoundDuration":131359,"Delta":7357312},{"NoteNumber":78,"Velocity":47,"Duration":147507,"SoundDuration":147507,"Delta":7488672},{"NoteNumber":79,"Velocity":55,"Duration":278577,"SoundDuration":278577,"Delta":7636179},{"NoteNumber":59,"Velocity":34,"Duration":139288,"SoundDuration":139288,"Delta":7636179},{"NoteNumber":67,"Velocity":40,"Duration":139288,"SoundDuration":139288,"Delta":7636179},{"NoteNumber":67,"Velocity":60,"Duration":124285,"SoundDuration":124285,"Delta":8193334},{"NoteNumber":69,"Velocity":67,"Duration":124285,"SoundDuration":124285,"Delta":8317619},{"NoteNumber":71,"Velocity":70,"Duration":124285,"SoundDuration":124285,"Delta":8441905},{"NoteNumber":72,"Velocity":76,"Duration":124285,"SoundDuration":124285,"Delta":8566190},{"NoteNumber":74,"Velocity":80,"Duration":516396,"SoundDuration":516396,"Delta":8690475},{"NoteNumber":55,"Velocity":42,"Duration":129099,"SoundDuration":129099,"Delta":8690475},{"NoteNumber":59,"Velocity":50,"Duration":129099,"SoundDuration":129099,"Delta":8690475},{"NoteNumber":59,"Velocity":42,"Duration":129099,"SoundDuration":129099,"Delta":8948673},{"NoteNumber":55,"Velocity":35,"Duration":129099,"SoundDuration":129099,"Delta":8948673},{"NoteNumber":72,"Velocity":68,"Duration":124802,"SoundDuration":124802,"Delta":9206871},{"NoteNumber":71,"Velocity":63,"Duration":124802,"SoundDuration":124802,"Delta":9331674},{"NoteNumber":69,"Velocity":63,"Duration":124802,"SoundDuration":124802,"Delta":9456476},{"NoteNumber":67,"Velocity":63,"Duration":124802,"SoundDuration":124802,"Delta":9581279},{"NoteNumber":66,"Velocity":72,"Duration":516396,"SoundDuration":516396,"Delta":9706081},{"NoteNumber":57,"Velocity":42,"Duration":129099,"SoundDuration":129099,"Delta":9706081},{"NoteNumber":60,"Velocity":50,"Duration":129099,"SoundDuration":129099,"Delta":9706081},{"NoteNumber":60,"Velocity":42,"Duration":129099,"SoundDuration":129099,"Delta":9964279},{"NoteNumber":57,"Velocity":35,"Duration":129099,"SoundDuration":129099,"Delta":9964279},{"NoteNumber":67,"Velocity":68,"Duration":124285,"SoundDuration":124285,"Delta":10222477},{"NoteNumber":66,"Velocity":63,"Duration":124285,"SoundDuration":124285,"Delta":10346762},{"NoteNumber":64,"Velocity":66,"Duration":124285,"SoundDuration":124285,"Delta":10471048},{"NoteNumber":62,"Velocity":63,"Duration":124285,"SoundDuration":124285,"Delta":10595333},{"NoteNumber":67,"Velocity":68,"Duration":128545,"SoundDuration":128545,"Delta":10719618},{"NoteNumber":55,"Velocity":42,"Duration":128545,"SoundDuration":128545,"Delta":10719618},{"NoteNumber":59,"Velocity":50,"Duration":128545,"SoundDuration":128545,"Delta":10719618},{"NoteNumber":67,"Velocity":62,"Duration":134904,"SoundDuration":134904,"Delta":10976710},{"NoteNumber":59,"Velocity":45,"Duration":134904,"SoundDuration":134904,"Delta":10976710},{"NoteNumber":55,"Velocity":37,"Duration":134904,"SoundDuration":134904,"Delta":10976710},{"NoteNumber":69,"Velocity":68,"Duration":124285,"SoundDuration":124285,"Delta":11246518},{"NoteNumber":55,"Velocity":42,"Duration":124285,"SoundDuration":124285,"Delta":11246518},{"NoteNumber":59,"Velocity":50,"Duration":124285,"SoundDuration":124285,"Delta":11246518},{"NoteNumber":67,"Velocity":62,"Duration":124285,"SoundDuration":124285,"Delta":11370803},{"NoteNumber":66,"Velocity":63,"Duration":124285,"SoundDuration":124285,"Delta":11495089},{"NoteNumber":59,"Velocity":43,"Duration":124285,"SoundDuration":124285,"Delta":11495089},{"NoteNumber":55,"Velocity":36,"Duration":124285,"SoundDuration":124285,"Delta":11495089},{"NoteNumber":67,"Velocity":58,"Duration":124285,"SoundDuration":124285,"Delta":11619374},{"NoteNumber":69,"Velocity":68,"Duration":514182,"SoundDuration":514182,"Delta":11743659},{"NoteNumber":50,"Velocity":42,"Duration":128545,"SoundDuration":128545,"Delta":11743659},{"NoteNumber":57,"Velocity":50,"Duration":128545,"SoundDuration":128545,"Delta":11743659},{"NoteNumber":57,"Velocity":43,"Duration":128545,"SoundDuration":128545,"Delta":12000751},{"NoteNumber":50,"Velocity":36,"Duration":128545,"SoundDuration":128545,"Delta":12000751},{"NoteNumber":69,"Velocity":60,"Duration":124285,"SoundDuration":124285,"Delta":12257842},{"NoteNumber":71,"Velocity":67,"Duration":124285,"SoundDuration":124285,"Delta":12382127},{"NoteNumber":72,"Velocity":70,"Duration":124285,"SoundDuration":124285,"Delta":12506413},{"NoteNumber":74,"Velocity":73,"Duration":124285,"SoundDuration":124285,"Delta":12630698},{"NoteNumber":76,"Velocity":80,"Duration":513141,"SoundDuration":513141,"Delta":12754983},{"NoteNumber":54,"Velocity":42,"Duration":126914,"SoundDuration":126914,"Delta":12754983},{"NoteNumber":60,"Velocity":50,"Duration":126914,"SoundDuration":126914,"Delta":12754983},{"NoteNumber":60,"Velocity":42,"Duration":129656,"SoundDuration":129656,"Delta":13008812},{"NoteNumber":54,"Velocity":35,"Duration":129656,"SoundDuration":129656,"Delta":13008812},{"NoteNumber":74,"Velocity":68,"Duration":124802,"SoundDuration":124802,"Delta":13268125},{"NoteNumber":72,"Velocity":63,"Duration":124802,"SoundDuration":124802,"Delta":13392928},{"NoteNumber":71,"Velocity":63,"Duration":124802,"SoundDuration":124802,"Delta":13517730},{"NoteNumber":69,"Velocity":63,"Duration":124802,"SoundDuration":124802,"Delta":13642533},{"NoteNumber":74,"Velocity":72,"Duration":96824,"SoundDuration":96824,"Delta":13767335},{"NoteNumber":55,"Velocity":42,"Duration":129099,"SoundDuration":129099,"Delta":13767335},{"NoteNumber":59,"Velocity":50,"Duration":129099,"SoundDuration":129099,"Delta":13767335},{"NoteNumber":74,"Velocity":58,"Duration":100276,"SoundDuration":100276,"Delta":14025533},{"NoteNumber":72,"Velocity":68,"Duration":124285,"SoundDuration":124285,"Delta":14292937},{"NoteNumber":55,"Velocity":35,"Duration":124285,"SoundDuration":124285,"Delta":14292937},{"NoteNumber":59,"Velocity":42,"Duration":124285,"SoundDuration":124285,"Delta":14292937},{"NoteNumber":71,"Velocity":63,"Duration":124285,"SoundDuration":124285,"Delta":14417222},{"NoteNumber":69,"Velocity":66,"Duration":124285,"SoundDuration":124285,"Delta":14541507},{"NoteNumber":67,"Velocity":63,"Duration":124285,"SoundDuration":124285,"Delta":14665792},{"NoteNumber":72,"Velocity":68,"Duration":95590,"SoundDuration":95590,"Delta":14790078},{"NoteNumber":50,"Velocity":42,"Duration":127453,"SoundDuration":127453,"Delta":14790078},{"NoteNumber":57,"Velocity":50,"Duration":127453,"SoundDuration":127453,"Delta":14790078},{"NoteNumber":72,"Velocity":57,"Duration":97242,"SoundDuration":97242,"Delta":15044985},{"NoteNumber":71,"Velocity":68,"Duration":124285,"SoundDuration":124285,"Delta":15304298},{"NoteNumber":50,"Velocity":42,"Duration":124285,"SoundDuration":124285,"Delta":15304298},{"NoteNumber":57,"Velocity":50,"Duration":124285,"SoundDuration":124285,"Delta":15304298},{"NoteNumber":69,"Velocity":62,"Duration":124285,"SoundDuration":124285,"Delta":15428583},{"NoteNumber":67,"Velocity":63,"Duration":131360,"SoundDuration":131360,"Delta":15552869},{"NoteNumber":66,"Velocity":58,"Duration":133701,"SoundDuration":133701,"Delta":15684229},{"NoteNumber":67,"Velocity":68,"Duration":94784,"SoundDuration":94784,"Delta":15817930},{"NoteNumber":55,"Velocity":42,"Duration":126379,"SoundDuration":126379,"Delta":15817930},{"NoteNumber":59,"Velocity":50,"Duration":126379,"SoundDuration":126379,"Delta":15817930},{"NoteNumber":67,"Velocity":57,"Duration":106443,"SoundDuration":106443,"Delta":16070690},{"NoteNumber":79,"Velocity":54,"Duration":124802,"SoundDuration":124802,"Delta":16354539},{"NoteNumber":78,"Velocity":41,"Duration":124802,"SoundDuration":124802,"Delta":16479341},{"NoteNumber":79,"Velocity":43,"Duration":124802,"SoundDuration":124802,"Delta":16604144},{"NoteNumber":76,"Velocity":40,"Duration":124802,"SoundDuration":124802,"Delta":16728946},{"NoteNumber":73,"Velocity":48,"Duration":130787,"SoundDuration":130787,"Delta":16853749},{"NoteNumber":64,"Velocity":34,"Duration":523149,"SoundDuration":523149,"Delta":16853749},{"NoteNumber":67,"Velocity":40,"Duration":523149,"SoundDuration":523149,"Delta":16853749},{"NoteNumber":73,"Velocity":43,"Duration":130787,"SoundDuration":130787,"Delta":17115323},{"NoteNumber":74,"Velocity":48,"Duration":124802,"SoundDuration":124802,"Delta":17376898},{"NoteNumber":67,"Velocity":37,"Duration":499210,"SoundDuration":499210,"Delta":17376898},{"NoteNumber":64,"Velocity":31,"Duration":499210,"SoundDuration":499210,"Delta":17376898},{"NoteNumber":73,"Velocity":40,"Duration":124802,"SoundDuration":124802,"Delta":17501700},{"NoteNumber":71,"Velocity":42,"Duration":124802,"SoundDuration":124802,"Delta":17626503},{"NoteNumber":69,"Velocity":40,"Duration":124802,"SoundDuration":124802,"Delta":17751305},{"NoteNumber":74,"Velocity":48,"Duration":130787,"SoundDuration":130787,"Delta":17876108},{"NoteNumber":62,"Velocity":34,"Duration":523149,"SoundDuration":523149,"Delta":17876108},{"NoteNumber":66,"Velocity":40,"Duration":523149,"SoundDuration":523149,"Delta":17876108},{"NoteNumber":74,"Velocity":45,"Duration":130787,"SoundDuration":130787,"Delta":18137682},{"NoteNumber":81,"Velocity":53,"Duration":124802,"SoundDuration":124802,"Delta":18399257},{"NoteNumber":78,"Velocity":41,"Duration":124802,"SoundDuration":124802,"Delta":18524059},{"NoteNumber":81,"Velocity":43,"Duration":124802,"SoundDuration":124802,"Delta":18648862},{"NoteNumber":74,"Velocity":40,"Duration":124802,"SoundDuration":124802,"Delta":18773664},{"NoteNumber":73,"Velocity":48,"Duration":130787,"SoundDuration":130787,"Delta":18898467},{"NoteNumber":64,"Velocity":34,"Duration":523149,"SoundDuration":523149,"Delta":18898467},{"NoteNumber":67,"Velocity":40,"Duration":523149,"SoundDuration":523149,"Delta":18898467},{"NoteNumber":73,"Velocity":43,"Duration":130787,"SoundDuration":130787,"Delta":19160041},{"NoteNumber":74,"Velocity":48,"Duration":124802,"SoundDuration":124802,"Delta":19421616},{"NoteNumber":67,"Velocity":37,"Duration":499210,"SoundDuration":499210,"Delta":19421616},{"NoteNumber":64,"Velocity":31,"Duration":499210,"SoundDuration":499210,"Delta":19421616},{"NoteNumber":73,"Velocity":40,"Duration":124802,"SoundDuration":124802,"Delta":19546419},{"NoteNumber":71,"Velocity":42,"Duration":124802,"SoundDuration":124802,"Delta":19671221},{"NoteNumber":73,"Velocity":40,"Duration":124802,"SoundDuration":124802,"Delta":19796024},{"NoteNumber":74,"Velocity":48,"Duration":261574,"SoundDuration":261574,"Delta":19920826},{"NoteNumber":62,"Velocity":34,"Duration":519275,"SoundDuration":519275,"Delta":19920826},{"NoteNumber":66,"Velocity":40,"Duration":519275,"SoundDuration":519275,"Delta":19920826},{"NoteNumber":76,"Velocity":46,"Duration":130787,"SoundDuration":130787,"Delta":20182400},{"NoteNumber":78,"Velocity":49,"Duration":126914,"SoundDuration":126914,"Delta":20313188},{"NoteNumber":79,"Velocity":56,"Duration":124802,"SoundDuration":124802,"Delta":20440102},{"NoteNumber":78,"Velocity":41,"Duration":124802,"SoundDuration":124802,"Delta":20564905},{"NoteNumber":79,"Velocity":43,"Duration":124802,"SoundDuration":124802,"Delta":20689707},{"NoteNumber":76,"Velocity":40,"Duration":124802,"SoundDuration":124802,"Delta":20814509},{"NoteNumber":73,"Velocity":48,"Duration":130787,"SoundDuration":130787,"Delta":20939312},{"NoteNumber":64,"Velocity":34,"Duration":523149,"SoundDuration":523149,"Delta":20939312},{"NoteNumber":67,"Velocity":40,"Duration":523149,"SoundDuration":523149,"Delta":20939312},{"NoteNumber":73,"Velocity":43,"Duration":130787,"SoundDuration":130787,"Delta":21200886},{"NoteNumber":74,"Velocity":48,"Duration":124802,"SoundDuration":124802,"Delta":21462461},{"NoteNumber":67,"Velocity":37,"Duration":499210,"SoundDuration":499210,"Delta":21462461},{"NoteNumber":64,"Velocity":31,"Duration":499210,"SoundDuration":499210,"Delta":21462461},{"NoteNumber":73,"Velocity":40,"Duration":124802,"SoundDuration":124802,"Delta":21587264},{"NoteNumber":71,"Velocity":42,"Duration":124802,"SoundDuration":124802,"Delta":21712066},{"NoteNumber":73,"Velocity":40,"Duration":124802,"SoundDuration":124802,"Delta":21836869},{"NoteNumber":74,"Velocity":54,"Duration":130077,"SoundDuration":130077,"Delta":21961671},{"NoteNumber":62,"Velocity":34,"Duration":512125,"SoundDuration":512125,"Delta":21961671},{"NoteNumber":66,"Velocity":40,"Duration":512125,"SoundDuration":512125,"Delta":21961671},{"NoteNumber":76,"Velocity":52,"Duration":128189,"SoundDuration":128189,"Delta":22091748},{"NoteNumber":78,"Velocity":54,"Duration":127291,"SoundDuration":127291,"Delta":22219938},{"NoteNumber":79,"Velocity":55,"Duration":126566,"SoundDuration":126566,"Delta":22347229},{"NoteNumber":81,"Velocity":57,"Duration":127165,"SoundDuration":127165,"Delta":22473796},{"NoteNumber":83,"Velocity":60,"Duration":128071,"SoundDuration":128071,"Delta":22600962},{"NoteNumber":85,"Velocity":62,"Duration":129081,"SoundDuration":129081,"Delta":22729034},{"NoteNumber":86,"Velocity":63,"Duration":130107,"SoundDuration":130107,"Delta":22858115},{"NoteNumber":57,"Velocity":51,"Duration":516481,"SoundDuration":516481,"Delta":22988223},{"NoteNumber":64,"Velocity":51,"Duration":516481,"SoundDuration":516481,"Delta":22988223},{"NoteNumber":67,"Velocity":60,"Duration":516481,"SoundDuration":516481,"Delta":22988223},{"NoteNumber":79,"Velocity":58,"Duration":127453,"SoundDuration":127453,"Delta":23249797},{"NoteNumber":76,"Velocity":58,"Duration":127453,"SoundDuration":127453,"Delta":23377251},{"NoteNumber":73,"Velocity":65,"Duration":125849,"SoundDuration":125849,"Delta":23504704},{"NoteNumber":67,"Velocity":57,"Duration":504053,"SoundDuration":504053,"Delta":23504704},{"NoteNumber":64,"Velocity":48,"Duration":504053,"SoundDuration":504053,"Delta":23504704},{"NoteNumber":57,"Velocity":48,"Duration":504053,"SoundDuration":504053,"Delta":23504704},{"NoteNumber":76,"Velocity":58,"Duration":125849,"SoundDuration":125849,"Delta":23630554},{"NoteNumber":73,"Velocity":58,"Duration":125849,"SoundDuration":125849,"Delta":23756403},{"NoteNumber":76,"Velocity":58,"Duration":126505,"SoundDuration":126505,"Delta":23882253},{"NoteNumber":74,"Velocity":68,"Duration":130219,"SoundDuration":130219,"Delta":24008758},{"NoteNumber":62,"Velocity":51,"Duration":1021924,"SoundDuration":1021924,"Delta":24008758},{"NoteNumber":66,"Velocity":60,"Duration":1021924,"SoundDuration":1021924,"Delta":24008758},{"NoteNumber":78,"Velocity":58,"Duration":130219,"SoundDuration":130219,"Delta":24138977},{"NoteNumber":81,"Velocity":58,"Duration":126914,"SoundDuration":126914,"Delta":24269197},{"NoteNumber":78,"Velocity":58,"Duration":126914,"SoundDuration":126914,"Delta":24396111},{"NoteNumber":81,"Velocity":64,"Duration":126914,"SoundDuration":126914,"Delta":24523026},{"NoteNumber":78,"Velocity":58,"Duration":126914,"SoundDuration":126914,"Delta":24649940},{"NoteNumber":81,"Velocity":58,"Duration":126914,"SoundDuration":126914,"Delta":24776854},{"NoteNumber":78,"Velocity":58,"Duration":126914,"SoundDuration":126914,"Delta":24903768},{"NoteNumber":76,"Velocity":68,"Duration":128545,"SoundDuration":128545,"Delta":25030683},{"NoteNumber":62,"Velocity":51,"Duration":1015370,"SoundDuration":1015370,"Delta":25030683},{"NoteNumber":67,"Velocity":60,"Duration":1015370,"SoundDuration":1015370,"Delta":25030683},{"NoteNumber":79,"Velocity":57,"Duration":128545,"SoundDuration":128545,"Delta":25159228},{"NoteNumber":83,"Velocity":57,"Duration":126379,"SoundDuration":126379,"Delta":25287774},{"NoteNumber":79,"Velocity":57,"Duration":126379,"SoundDuration":126379,"Delta":25414154},{"NoteNumber":83,"Velocity":64,"Duration":126379,"SoundDuration":126379,"Delta":25540534},{"NoteNumber":79,"Velocity":57,"Duration":126379,"SoundDuration":126379,"Delta":25666913},{"NoteNumber":83,"Velocity":57,"Duration":126379,"SoundDuration":126379,"Delta":25793293},{"NoteNumber":79,"Velocity":57,"Duration":126379,"SoundDuration":126379,"Delta":25919673},{"NoteNumber":78,"Velocity":65,"Duration":129656,"SoundDuration":129656,"Delta":26046053},{"NoteNumber":62,"Velocity":51,"Duration":1017592,"SoundDuration":1017592,"Delta":26046053},{"NoteNumber":69,"Velocity":60,"Duration":1017592,"SoundDuration":1017592,"Delta":26046053},{"NoteNumber":81,"Velocity":54,"Duration":129656,"SoundDuration":129656,"Delta":26175709},{"NoteNumber":84,"Velocity":54,"Duration":126379,"SoundDuration":126379,"Delta":26305366},{"NoteNumber":81,"Velocity":54,"Duration":126379,"SoundDuration":126379,"Delta":26431746},{"NoteNumber":84,"Velocity":62,"Duration":126379,"SoundDuration":126379,"Delta":26558126},{"NoteNumber":81,"Velocity":53,"Duration":126379,"SoundDuration":126379,"Delta":26684505},{"NoteNumber":84,"Velocity":53,"Duration":126379,"SoundDuration":126379,"Delta":26810885},{"NoteNumber":81,"Velocity":53,"Duration":126379,"SoundDuration":126379,"Delta":26937265},{"NoteNumber":78,"Velocity":55,"Duration":130787,"SoundDuration":130787,"Delta":27063645},{"NoteNumber":81,"Velocity":45,"Duration":130787,"SoundDuration":130787,"Delta":27194432},{"NoteNumber":84,"Velocity":44,"Duration":126914,"SoundDuration":126914,"Delta":27325219},{"NoteNumber":81,"Velocity":43,"Duration":126914,"SoundDuration":126914,"Delta":27452133},{"NoteNumber":78,"Velocity":49,"Duration":130219,"SoundDuration":130219,"Delta":27579048},{"NoteNumber":81,"Velocity":42,"Duration":130219,"SoundDuration":130219,"Delta":27709267},{"NoteNumber":84,"Velocity":41,"Duration":126914,"SoundDuration":126914,"Delta":27839487},{"NoteNumber":81,"Velocity":41,"Duration":126420,"SoundDuration":126420,"Delta":27966401},{"NoteNumber":78,"Velocity":51,"Duration":125307,"SoundDuration":125307,"Delta":28092821},{"NoteNumber":74,"Velocity":42,"Duration":126889,"SoundDuration":126889,"Delta":28218129},{"NoteNumber":76,"Velocity":47,"Duration":128519,"SoundDuration":128519,"Delta":28345018},{"NoteNumber":78,"Velocity":48,"Duration":130193,"SoundDuration":130193,"Delta":28473538},{"NoteNumber":79,"Velocity":50,"Duration":130714,"SoundDuration":130714,"Delta":28603731},{"NoteNumber":81,"Velocity":54,"Duration":128933,"SoundDuration":128933,"Delta":28734446},{"NoteNumber":83,"Velocity":56,"Duration":127482,"SoundDuration":127482,"Delta":28863380},{"NoteNumber":84,"Velocity":61,"Duration":126043,"SoundDuration":126043,"Delta":28990862},{"NoteNumber":86,"Velocity":68,"Duration":516396,"SoundDuration":516396,"Delta":29116906},{"NoteNumber":59,"Velocity":34,"Duration":129099,"SoundDuration":129099,"Delta":29116906},{"NoteNumber":67,"Velocity":40,"Duration":129099,"SoundDuration":129099,"Delta":29116906},{"NoteNumber":67,"Velocity":34,"Duration":129099,"SoundDuration":129099,"Delta":29375104},{"NoteNumber":59,"Velocity":28,"Duration":129099,"SoundDuration":129099,"Delta":29375104},{"NoteNumber":84,"Velocity":55,"Duration":124802,"SoundDuration":124802,"Delta":29633302},{"NoteNumber":83,"Velocity":51,"Duration":124802,"SoundDuration":124802,"Delta":29758105},{"NoteNumber":81,"Velocity":51,"Duration":124802,"SoundDuration":124802,"Delta":29882907},{"NoteNumber":79,"Velocity":51,"Duration":124802,"SoundDuration":124802,"Delta":30007710},{"NoteNumber":78,"Velocity":58,"Duration":516396,"SoundDuration":516396,"Delta":30132512},{"NoteNumber":62,"Velocity":34,"Duration":129099,"SoundDuration":129099,"Delta":30132512},{"NoteNumber":69,"Velocity":40,"Duration":129099,"SoundDuration":129099,"Delta":30132512},{"NoteNumber":69,"Velocity":34,"Duration":129099,"SoundDuration":129099,"Delta":30390710},{"NoteNumber":62,"Velocity":28,"Duration":129099,"SoundDuration":129099,"Delta":30390710},{"NoteNumber":79,"Velocity":55,"Duration":124285,"SoundDuration":124285,"Delta":30648908},{"NoteNumber":78,"Velocity":51,"Duration":124285,"SoundDuration":124285,"Delta":30773193},{"NoteNumber":76,"Velocity":53,"Duration":124285,"SoundDuration":124285,"Delta":30897479},{"NoteNumber":74,"Velocity":51,"Duration":124285,"SoundDuration":124285,"Delta":31021764},{"NoteNumber":79,"Velocity":55,"Duration":128545,"SoundDuration":128545,"Delta":31146049},{"NoteNumber":67,"Velocity":34,"Duration":128545,"SoundDuration":128545,"Delta":31146049},{"NoteNumber":71,"Velocity":40,"Duration":128545,"SoundDuration":128545,"Delta":31146049},{"NoteNumber":79,"Velocity":50,"Duration":134904,"SoundDuration":134904,"Delta":31403141},{"NoteNumber":71,"Velocity":36,"Duration":134904,"SoundDuration":134904,"Delta":31403141},{"NoteNumber":67,"Velocity":30,"Duration":134904,"SoundDuration":134904,"Delta":31403141},{"NoteNumber":81,"Velocity":55,"Duration":124285,"SoundDuration":124285,"Delta":31672949},{"NoteNumber":67,"Velocity":34,"Duration":124285,"SoundDuration":124285,"Delta":31672949},{"NoteNumber":71,"Velocity":40,"Duration":124285,"SoundDuration":124285,"Delta":31672949},{"NoteNumber":79,"Velocity":50,"Duration":124285,"SoundDuration":124285,"Delta":31797234},{"NoteNumber":78,"Velocity":51,"Duration":124285,"SoundDuration":124285,"Delta":31921520},{"NoteNumber":71,"Velocity":35,"Duration":124285,"SoundDuration":124285,"Delta":31921520},{"NoteNumber":67,"Velocity":29,"Duration":124285,"SoundDuration":124285,"Delta":31921520},{"NoteNumber":79,"Velocity":47,"Duration":124285,"SoundDuration":124285,"Delta":32045805},{"NoteNumber":81,"Velocity":55,"Duration":514183,"SoundDuration":514183,"Delta":32170090},{"NoteNumber":62,"Velocity":34,"Duration":128545,"SoundDuration":128545,"Delta":32170090},{"NoteNumber":69,"Velocity":40,"Duration":128545,"SoundDuration":128545,"Delta":32170090},{"NoteNumber":69,"Velocity":35,"Duration":128545,"SoundDuration":128545,"Delta":32427182},{"NoteNumber":62,"Velocity":29,"Duration":128545,"SoundDuration":128545,"Delta":32427182},{"NoteNumber":81,"Velocity":48,"Duration":124285,"SoundDuration":124285,"Delta":32684273},{"NoteNumber":83,"Velocity":54,"Duration":124285,"SoundDuration":124285,"Delta":32808558},{"NoteNumber":84,"Velocity":56,"Duration":124285,"SoundDuration":124285,"Delta":32932844},{"NoteNumber":86,"Velocity":60,"Duration":124285,"SoundDuration":124285,"Delta":33057129},{"NoteNumber":88,"Velocity":65,"Duration":510957,"SoundDuration":510957,"Delta":33181414},{"NoteNumber":66,"Velocity":34,"Duration":126379,"SoundDuration":126379,"Delta":33181414},{"NoteNumber":72,"Velocity":40,"Duration":126379,"SoundDuration":126379,"Delta":33181414},{"NoteNumber":72,"Velocity":34,"Duration":129098,"SoundDuration":129098,"Delta":33434174},{"NoteNumber":66,"Velocity":28,"Duration":129098,"SoundDuration":129098,"Delta":33434174},{"NoteNumber":86,"Velocity":55,"Duration":124802,"SoundDuration":124802,"Delta":33692372},{"NoteNumber":84,"Velocity":51,"Duration":124802,"SoundDuration":124802,"Delta":33817174},{"NoteNumber":83,"Velocity":51,"Duration":124802,"SoundDuration":124802,"Delta":33941977},{"NoteNumber":81,"Velocity":51,"Duration":124802,"SoundDuration":124802,"Delta":34066779},{"NoteNumber":86,"Velocity":58,"Duration":94784,"SoundDuration":94784,"Delta":34191582},{"NoteNumber":67,"Velocity":34,"Duration":126379,"SoundDuration":126379,"Delta":34191582},{"NoteNumber":71,"Velocity":40,"Duration":126379,"SoundDuration":126379,"Delta":34191582},{"NoteNumber":86,"Velocity":58,"Duration":100276,"SoundDuration":100276,"Delta":34444341},{"NoteNumber":84,"Velocity":55,"Duration":124285,"SoundDuration":124285,"Delta":34711745},{"NoteNumber":67,"Velocity":28,"Duration":124285,"SoundDuration":124285,"Delta":34711745},{"NoteNumber":71,"Velocity":34,"Duration":124285,"SoundDuration":124285,"Delta":34711745},{"NoteNumber":83,"Velocity":51,"Duration":124285,"SoundDuration":124285,"Delta":34836030},{"NoteNumber":81,"Velocity":53,"Duration":124285,"SoundDuration":124285,"Delta":34960315},{"NoteNumber":79,"Velocity":51,"Duration":124285,"SoundDuration":124285,"Delta":35084600},{"NoteNumber":84,"Velocity":55,"Duration":94387,"SoundDuration":94387,"Delta":35208886},{"NoteNumber":62,"Velocity":34,"Duration":125849,"SoundDuration":125849,"Delta":35208886},{"NoteNumber":69,"Velocity":40,"Duration":125849,"SoundDuration":125849,"Delta":35208886},{"NoteNumber":84,"Velocity":50,"Duration":96824,"SoundDuration":96824,"Delta":35460585},{"NoteNumber":83,"Velocity":55,"Duration":124285,"SoundDuration":124285,"Delta":35718783},{"NoteNumber":62,"Velocity":34,"Duration":124285,"SoundDuration":124285,"Delta":35718783},{"NoteNumber":69,"Velocity":40,"Duration":124285,"SoundDuration":124285,"Delta":35718783},{"NoteNumber":81,"Velocity":50,"Duration":124285,"SoundDuration":124285,"Delta":35843068},{"NoteNumber":79,"Velocity":51,"Duration":131360,"SoundDuration":131360,"Delta":35967353},{"NoteNumber":78,"Velocity":47,"Duration":147507,"SoundDuration":147507,"Delta":36098713},{"NoteNumber":79,"Velocity":55,"Duration":281188,"SoundDuration":281188,"Delta":36246220},{"NoteNumber":59,"Velocity":34,"Duration":140594,"SoundDuration":140594,"Delta":36246220},{"NoteNumber":67,"Velocity":40,"Duration":140594,"SoundDuration":140594,"Delta":36246220},{"NoteNumber":67,"Velocity":60,"Duration":124285,"SoundDuration":124285,"Delta":36808597},{"NoteNumber":69,"Velocity":67,"Duration":124285,"SoundDuration":124285,"Delta":36932883},{"NoteNumber":71,"Velocity":70,"Duration":124285,"SoundDuration":124285,"Delta":37057168},{"NoteNumber":72,"Velocity":72,"Duration":124285,"SoundDuration":124285,"Delta":37181453},{"NoteNumber":74,"Velocity":76,"Duration":516396,"SoundDuration":516396,"Delta":37305738},{"NoteNumber":43,"Velocity":50,"Duration":258198,"SoundDuration":258198,"Delta":37305738},{"NoteNumber":47,"Velocity":46,"Duration":258198,"SoundDuration":258198,"Delta":37563936},{"NoteNumber":72,"Velocity":68,"Duration":124802,"SoundDuration":124802,"Delta":37822134},{"NoteNumber":50,"Velocity":45,"Duration":249605,"SoundDuration":249605,"Delta":37822134},{"NoteNumber":71,"Velocity":63,"Duration":124802,"SoundDuration":124802,"Delta":37946937},{"NoteNumber":69,"Velocity":63,"Duration":124802,"SoundDuration":124802,"Delta":38071739},{"NoteNumber":55,"Velocity":45,"Duration":249604,"SoundDuration":249604,"Delta":38071739},{"NoteNumber":67,"Velocity":63,"Duration":124802,"SoundDuration":124802,"Delta":38196542},{"NoteNumber":66,"Velocity":72,"Duration":516396,"SoundDuration":516396,"Delta":38321344},{"NoteNumber":45,"Velocity":50,"Duration":258198,"SoundDuration":258198,"Delta":38321344},{"NoteNumber":48,"Velocity":46,"Duration":258198,"SoundDuration":258198,"Delta":38579542},{"NoteNumber":67,"Velocity":68,"Duration":124285,"SoundDuration":124285,"Delta":38837740},{"NoteNumber":50,"Velocity":45,"Duration":248570,"SoundDuration":248570,"Delta":38837740},{"NoteNumber":66,"Velocity":63,"Duration":124285,"SoundDuration":124285,"Delta":38962026},{"NoteNumber":64,"Velocity":66,"Duration":124285,"SoundDuration":124285,"Delta":39086311},{"NoteNumber":54,"Velocity":45,"Duration":248570,"SoundDuration":248570,"Delta":39086311},{"NoteNumber":62,"Velocity":63,"Duration":124285,"SoundDuration":124285,"Delta":39210596},{"NoteNumber":67,"Velocity":68,"Duration":128545,"SoundDuration":128545,"Delta":39334881},{"NoteNumber":43,"Velocity":50,"Duration":257091,"SoundDuration":257091,"Delta":39334881},{"NoteNumber":67,"Velocity":62,"Duration":133108,"SoundDuration":133108,"Delta":39591973},{"NoteNumber":47,"Velocity":46,"Duration":266216,"SoundDuration":266216,"Delta":39591973},{"NoteNumber":69,"Velocity":68,"Duration":124285,"SoundDuration":124285,"Delta":39858190},{"NoteNumber":50,"Velocity":45,"Duration":248570,"SoundDuration":248570,"Delta":39858190},{"NoteNumber":67,"Velocity":62,"Duration":124285,"SoundDuration":124285,"Delta":39982475},{"NoteNumber":66,"Velocity":63,"Duration":124285,"SoundDuration":124285,"Delta":40106760},{"NoteNumber":55,"Velocity":45,"Duration":248570,"SoundDuration":248570,"Delta":40106760},{"NoteNumber":67,"Velocity":58,"Duration":124285,"SoundDuration":124285,"Delta":40231046},{"NoteNumber":69,"Velocity":68,"Duration":514183,"SoundDuration":514183,"Delta":40355331},{"NoteNumber":38,"Velocity":50,"Duration":257091,"SoundDuration":257091,"Delta":40355331},{"NoteNumber":50,"Velocity":46,"Duration":257091,"SoundDuration":257091,"Delta":40612422},{"NoteNumber":69,"Velocity":60,"Duration":124285,"SoundDuration":124285,"Delta":40869514},{"NoteNumber":54,"Velocity":45,"Duration":248570,"SoundDuration":248570,"Delta":40869514},{"NoteNumber":71,"Velocity":67,"Duration":124285,"SoundDuration":124285,"Delta":40993799},{"NoteNumber":72,"Velocity":70,"Duration":124285,"SoundDuration":124285,"Delta":41118084},{"NoteNumber":57,"Velocity":45,"Duration":248570,"SoundDuration":248570,"Delta":41118084},{"NoteNumber":74,"Velocity":73,"Duration":124285,"SoundDuration":124285,"Delta":41242370},{"NoteNumber":76,"Velocity":80,"Duration":512026,"SoundDuration":512026,"Delta":41366655},{"NoteNumber":60,"Velocity":50,"Duration":126914,"SoundDuration":126914,"Delta":41366655},{"NoteNumber":54,"Velocity":42,"Duration":126914,"SoundDuration":126914,"Delta":41366655},{"NoteNumber":54,"Velocity":35,"Duration":129098,"SoundDuration":129098,"Delta":41620483},{"NoteNumber":60,"Velocity":42,"Duration":129098,"SoundDuration":129098,"Delta":41620483},{"NoteNumber":74,"Velocity":68,"Duration":124802,"SoundDuration":124802,"Delta":41878681},{"NoteNumber":72,"Velocity":63,"Duration":124802,"SoundDuration":124802,"Delta":42003484},{"NoteNumber":71,"Velocity":63,"Duration":124802,"SoundDuration":124802,"Delta":42128286},{"NoteNumber":69,"Velocity":63,"Duration":124802,"SoundDuration":124802,"Delta":42253089},{"NoteNumber":74,"Velocity":72,"Duration":94784,"SoundDuration":94784,"Delta":42377891},{"NoteNumber":59,"Velocity":50,"Duration":126379,"SoundDuration":126379,"Delta":42377891},{"NoteNumber":55,"Velocity":42,"Duration":126379,"SoundDuration":126379,"Delta":42377891},{"NoteNumber":74,"Velocity":62,"Duration":100276,"SoundDuration":100276,"Delta":42630651},{"NoteNumber":72,"Velocity":68,"Duration":124285,"SoundDuration":124285,"Delta":42898054},{"NoteNumber":59,"Velocity":42,"Duration":124285,"SoundDuration":124285,"Delta":42898054},{"NoteNumber":55,"Velocity":35,"Duration":124285,"SoundDuration":124285,"Delta":42898054},{"NoteNumber":71,"Velocity":63,"Duration":124285,"SoundDuration":124285,"Delta":43022340},{"NoteNumber":69,"Velocity":66,"Duration":124285,"SoundDuration":124285,"Delta":43146625},{"NoteNumber":67,"Velocity":63,"Duration":124285,"SoundDuration":124285,"Delta":43270910},{"NoteNumber":72,"Velocity":68,"Duration":94387,"SoundDuration":94387,"Delta":43395195},{"NoteNumber":57,"Velocity":50,"Duration":125849,"SoundDuration":125849,"Delta":43395195},{"NoteNumber":50,"Velocity":42,"Duration":125849,"SoundDuration":125849,"Delta":43395195},{"NoteNumber":72,"Velocity":57,"Duration":96824,"SoundDuration":96824,"Delta":43646894},{"NoteNumber":71,"Velocity":68,"Duration":124285,"SoundDuration":124285,"Delta":43905092},{"NoteNumber":50,"Velocity":42,"Duration":124285,"SoundDuration":124285,"Delta":43905092},{"NoteNumber":57,"Velocity":50,"Duration":124285,"SoundDuration":124285,"Delta":43905092},{"NoteNumber":69,"Velocity":62,"Duration":124285,"SoundDuration":124285,"Delta":44029378},{"NoteNumber":67,"Velocity":63,"Duration":131360,"SoundDuration":131360,"Delta":44153663},{"NoteNumber":66,"Velocity":58,"Duration":133701,"SoundDuration":133701,"Delta":44285023},{"NoteNumber":67,"Velocity":68,"Duration":262180,"SoundDuration":262180,"Delta":44418725},{"NoteNumber":43,"Velocity":50,"Duration":262180,"SoundDuration":262180,"Delta":44418725},{"NoteNumber":45,"Velocity":35,"Duration":129294,"SoundDuration":129294,"Delta":44680905},{"NoteNumber":47,"Velocity":37,"Duration":128289,"SoundDuration":128289,"Delta":44810200},{"NoteNumber":48,"Velocity":39,"Duration":127382,"SoundDuration":127382,"Delta":44938489},{"NoteNumber":50,"Velocity":41,"Duration":126408,"SoundDuration":126408,"Delta":45065872},{"NoteNumber":52,"Velocity":45,"Duration":127136,"SoundDuration":127136,"Delta":45192280},{"NoteNumber":54,"Velocity":48,"Duration":130376,"SoundDuration":130376,"Delta":45319417},{"NoteNumber":55,"Velocity":54,"Duration":134300,"SoundDuration":134300,"Delta":45449793},{"NoteNumber":76,"Velocity":46,"Duration":97664,"SoundDuration":97664,"Delta":45718394},{"NoteNumber":72,"Velocity":39,"Duration":97664,"SoundDuration":97664,"Delta":45718394},{"NoteNumber":71,"Velocity":45,"Duration":98520,"SoundDuration":98520,"Delta":45978833},{"NoteNumber":74,"Velocity":53,"Duration":98520,"SoundDuration":98520,"Delta":45978833},{"NoteNumber":76,"Velocity":49,"Duration":102561,"SoundDuration":102561,"Delta":46241553},{"NoteNumber":72,"Velocity":41,"Duration":102561,"SoundDuration":102561,"Delta":46241553},{"NoteNumber":71,"Velocity":45,"Duration":131360,"SoundDuration":131360,"Delta":46515051},{"NoteNumber":74,"Velocity":54,"Duration":131360,"SoundDuration":131360,"Delta":46515051},{"NoteNumber":43,"Velocity":46,"Duration":262180,"SoundDuration":262180,"Delta":46515051},{"NoteNumber":45,"Velocity":35,"Duration":129294,"SoundDuration":129294,"Delta":46777232},{"NoteNumber":47,"Velocity":37,"Duration":128289,"SoundDuration":128289,"Delta":46906526},{"NoteNumber":48,"Velocity":39,"Duration":127382,"SoundDuration":127382,"Delta":47034816},{"NoteNumber":50,"Velocity":41,"Duration":126408,"SoundDuration":126408,"Delta":47162198},{"NoteNumber":52,"Velocity":45,"Duration":127136,"SoundDuration":127136,"Delta":47288607},{"NoteNumber":54,"Velocity":48,"Duration":130376,"SoundDuration":130376,"Delta":47415743},{"NoteNumber":55,"Velocity":54,"Duration":134300,"SoundDuration":134300,"Delta":47546119},{"NoteNumber":76,"Velocity":50,"Duration":97664,"SoundDuration":97664,"Delta":47814720},{"NoteNumber":72,"Velocity":42,"Duration":97664,"SoundDuration":97664,"Delta":47814720},{"NoteNumber":71,"Velocity":49,"Duration":98090,"SoundDuration":98090,"Delta":48075159},{"NoteNumber":74,"Velocity":58,"Duration":98090,"SoundDuration":98090,"Delta":48075159},{"NoteNumber":76,"Velocity":53,"Duration":101178,"SoundDuration":101178,"Delta":48336734},{"NoteNumber":72,"Velocity":45,"Duration":101178,"SoundDuration":101178,"Delta":48336734},{"NoteNumber":71,"Velocity":49,"Duration":131360,"SoundDuration":131360,"Delta":48606542},{"NoteNumber":74,"Velocity":59,"Duration":131360,"SoundDuration":131360,"Delta":48606542},{"NoteNumber":43,"Velocity":50,"Duration":262180,"SoundDuration":262180,"Delta":48606542},{"NoteNumber":45,"Velocity":40,"Duration":129294,"SoundDuration":129294,"Delta":48868723},{"NoteNumber":47,"Velocity":44,"Duration":128289,"SoundDuration":128289,"Delta":48998017},{"NoteNumber":48,"Velocity":47,"Duration":127382,"SoundDuration":127382,"Delta":49126307},{"NoteNumber":50,"Velocity":51,"Duration":126408,"SoundDuration":126408,"Delta":49253689},{"NoteNumber":52,"Velocity":54,"Duration":127136,"SoundDuration":127136,"Delta":49380098},{"NoteNumber":54,"Velocity":56,"Duration":130376,"SoundDuration":130376,"Delta":49507234},{"NoteNumber":55,"Velocity":60,"Duration":134300,"SoundDuration":134300,"Delta":49637611},{"NoteNumber":67,"Velocity":56,"Duration":130787,"SoundDuration":130787,"Delta":49906211},{"NoteNumber":76,"Velocity":64,"Duration":130787,"SoundDuration":130787,"Delta":49906211},{"NoteNumber":60,"Velocity":52,"Duration":130787,"SoundDuration":130787,"Delta":49906211},{"NoteNumber":74,"Velocity":74,"Duration":129098,"SoundDuration":129098,"Delta":50167786},{"NoteNumber":67,"Velocity":65,"Duration":129098,"SoundDuration":129098,"Delta":50167786},{"NoteNumber":59,"Velocity":57,"Duration":129098,"SoundDuration":129098,"Delta":50167786},{"NoteNumber":67,"Velocity":57,"Duration":133108,"SoundDuration":133108,"Delta":50425984},{"NoteNumber":76,"Velocity":65,"Duration":133108,"SoundDuration":133108,"Delta":50425984},{"NoteNumber":60,"Velocity":54,"Duration":133108,"SoundDuration":133108,"Delta":50425984},{"NoteNumber":74,"Velocity":74,"Duration":129656,"SoundDuration":129656,"Delta":50692201},{"NoteNumber":67,"Velocity":65,"Duration":129656,"SoundDuration":129656,"Delta":50692201},{"NoteNumber":59,"Velocity":57,"Duration":129656,"SoundDuration":129656,"Delta":50692201},{"NoteNumber":67,"Velocity":55,"Duration":129656,"SoundDuration":129656,"Delta":50951514},{"NoteNumber":74,"Velocity":63,"Duration":129656,"SoundDuration":129656,"Delta":50951514},{"NoteNumber":59,"Velocity":49,"Duration":129656,"SoundDuration":129656,"Delta":50951514},{"NoteNumber":72,"Velocity":72,"Duration":129656,"SoundDuration":129656,"Delta":51210828},{"NoteNumber":69,"Velocity":63,"Duration":129656,"SoundDuration":129656,"Delta":51210828},{"NoteNumber":60,"Velocity":54,"Duration":129656,"SoundDuration":129656,"Delta":51210828},{"NoteNumber":72,"Velocity":62,"Duration":134300,"SoundDuration":134300,"Delta":51470141},{"NoteNumber":69,"Velocity":54,"Duration":134300,"SoundDuration":134300,"Delta":51470141},{"NoteNumber":60,"Velocity":50,"Duration":134300,"SoundDuration":134300,"Delta":51470141},{"NoteNumber":71,"Velocity":71,"Duration":129656,"SoundDuration":129656,"Delta":51738742},{"NoteNumber":67,"Velocity":62,"Duration":129656,"SoundDuration":129656,"Delta":51738742},{"NoteNumber":62,"Velocity":50,"Duration":129656,"SoundDuration":129656,"Delta":51738742},{"NoteNumber":71,"Velocity":60,"Duration":129656,"SoundDuration":129656,"Delta":51998055},{"NoteNumber":67,"Velocity":53,"Duration":129656,"SoundDuration":129656,"Delta":51998055},{"NoteNumber":62,"Velocity":48,"Duration":129656,"SoundDuration":129656,"Delta":51998055},{"NoteNumber":69,"Velocity":71,"Duration":138644,"SoundDuration":138644,"Delta":52257369},{"NoteNumber":66,"Velocity":62,"Duration":138644,"SoundDuration":138644,"Delta":52257369},{"NoteNumber":50,"Velocity":54,"Duration":138644,"SoundDuration":138644,"Delta":52257369},{"NoteNumber":69,"Velocity":58,"Duration":147507,"SoundDuration":147507,"Delta":52534659},{"NoteNumber":66,"Velocity":51,"Duration":147507,"SoundDuration":147507,"Delta":52534659},{"NoteNumber":50,"Velocity":48,"Duration":147507,"SoundDuration":147507,"Delta":52534659},{"NoteNumber":67,"Velocity":71,"Duration":134300,"SoundDuration":134300,"Delta":52829673},{"NoteNumber":55,"Velocity":54,"Duration":134300,"SoundDuration":134300,"Delta":52829673},{"NoteNumber":86,"Velocity":48,"Duration":121979,"SoundDuration":121979,"Delta":53366874},{"NoteNumber":84,"Velocity":54,"Duration":122326,"SoundDuration":122326,"Delta":53488854},{"NoteNumber":83,"Velocity":56,"Duration":123501,"SoundDuration":123501,"Delta":53611180},{"NoteNumber":81,"Velocity":58,"Duration":124604,"SoundDuration":124604,"Delta":53734682},{"NoteNumber":79,"Velocity":61,"Duration":129098,"SoundDuration":129098,"Delta":53859287},{"NoteNumber":79,"Velocity":53,"Duration":129098,"SoundDuration":129098,"Delta":54117485},{"NoteNumber":74,"Velocity":58,"Duration":133701,"SoundDuration":133701,"Delta":54375683},{"NoteNumber":62,"Velocity":25,"Duration":543418,"SoundDuration":543418,"Delta":54375683},{"NoteNumber":69,"Velocity":34,"Duration":543418,"SoundDuration":543418,"Delta":54375683},{"NoteNumber":74,"Velocity":49,"Duration":138007,"SoundDuration":138007,"Delta":54643086},{"NoteNumber":71,"Velocity":58,"Duration":129098,"SoundDuration":129098,"Delta":54919101},{"NoteNumber":67,"Velocity":40,"Duration":129098,"SoundDuration":129098,"Delta":54919101},{"NoteNumber":86,"Velocity":48,"Duration":122300,"SoundDuration":122300,"Delta":55435497},{"NoteNumber":84,"Velocity":54,"Duration":122584,"SoundDuration":122584,"Delta":55557797},{"NoteNumber":83,"Velocity":56,"Duration":123501,"SoundDuration":123501,"Delta":55680381},{"NoteNumber":81,"Velocity":58,"Duration":124355,"SoundDuration":124355,"Delta":55803883},{"NoteNumber":79,"Velocity":61,"Duration":129098,"SoundDuration":129098,"Delta":55928238},{"NoteNumber":79,"Velocity":53,"Duration":129098,"SoundDuration":129098,"Delta":56186436},{"NoteNumber":74,"Velocity":58,"Duration":133701,"SoundDuration":133701,"Delta":56444634},{"NoteNumber":62,"Velocity":25,"Duration":543418,"SoundDuration":543418,"Delta":56444634},{"NoteNumber":69,"Velocity":34,"Duration":543418,"SoundDuration":543418,"Delta":56444634},{"NoteNumber":74,"Velocity":49,"Duration":138007,"SoundDuration":138007,"Delta":56712037},{"NoteNumber":71,"Velocity":58,"Duration":129098,"SoundDuration":129098,"Delta":56988052},{"NoteNumber":67,"Velocity":40,"Duration":129098,"SoundDuration":129098,"Delta":56988052},{"NoteNumber":78,"Velocity":80,"Duration":135513,"SoundDuration":135513,"Delta":57504448},{"NoteNumber":72,"Velocity":67,"Duration":135513,"SoundDuration":135513,"Delta":57504448},{"NoteNumber":69,"Velocity":67,"Duration":135513,"SoundDuration":135513,"Delta":57504448},{"NoteNumber":50,"Velocity":39,"Duration":135513,"SoundDuration":135513,"Delta":57504448},{"NoteNumber":62,"Velocity":46,"Duration":135513,"SoundDuration":135513,"Delta":57504448},{"NoteNumber":79,"Velocity":87,"Duration":134300,"SoundDuration":134300,"Delta":58046502},{"NoteNumber":74,"Velocity":73,"Duration":134300,"SoundDuration":134300,"Delta":58046502},{"NoteNumber":71,"Velocity":73,"Duration":134300,"SoundDuration":134300,"Delta":58046502},{"NoteNumber":59,"Velocity":51,"Duration":134300,"SoundDuration":134300,"Delta":58046502},{"NoteNumber":55,"Velocity":43,"Duration":134300,"SoundDuration":134300,"Delta":58046502},{"NoteNumber":78,"Velocity":80,"Duration":138007,"SoundDuration":138007,"Delta":58583703},{"NoteNumber":74,"Velocity":67,"Duration":138007,"SoundDuration":138007,"Delta":58583703},{"NoteNumber":69,"Velocity":67,"Duration":138007,"SoundDuration":138007,"Delta":58583703},{"NoteNumber":50,"Velocity":39,"Duration":138007,"SoundDuration":138007,"Delta":58583703},{"NoteNumber":62,"Velocity":46,"Duration":138007,"SoundDuration":138007,"Delta":58583703},{"NoteNumber":79,"Velocity":90,"Duration":182504,"SoundDuration":182504,"Delta":59135732},{"NoteNumber":74,"Velocity":77,"Duration":182504,"SoundDuration":182504,"Delta":59135732},{"NoteNumber":71,"Velocity":77,"Duration":182504,"SoundDuration":182504,"Delta":59135732},{"NoteNumber":59,"Velocity":52,"Duration":182504,"SoundDuration":182504,"Delta":59135732},{"NoteNumber":55,"Velocity":44,"Duration":182504,"SoundDuration":182504,"Delta":59135732},{"NoteNumber":71,"Velocity":52,"Duration":128545,"SoundDuration":128545,"Delta":59865748},{"NoteNumber":71,"Velocity":42,"Duration":130219,"SoundDuration":130219,"Delta":60122839},{"NoteNumber":71,"Velocity":52,"Duration":129098,"SoundDuration":129098,"Delta":60383279},{"NoteNumber":71,"Velocity":40,"Duration":126379,"SoundDuration":126379,"Delta":60641477},{"NoteNumber":76,"Velocity":46,"Duration":123772,"SoundDuration":123772,"Delta":60894236},{"NoteNumber":67,"Velocity":30,"Duration":495089,"SoundDuration":495089,"Delta":60894236},{"NoteNumber":76,"Velocity":38,"Duration":123772,"SoundDuration":123772,"Delta":61141781},{"NoteNumber":75,"Velocity":52,"Duration":127997,"SoundDuration":127997,"Delta":61389326},{"NoteNumber":66,"Velocity":30,"Duration":500512,"SoundDuration":500512,"Delta":61389326},{"NoteNumber":75,"Velocity":40,"Duration":122259,"SoundDuration":122259,"Delta":61645321},{"NoteNumber":71,"Velocity":43,"Duration":124285,"SoundDuration":124285,"Delta":61889839},{"NoteNumber":71,"Velocity":33,"Duration":126914,"SoundDuration":126914,"Delta":62138410},{"NoteNumber":71,"Velocity":52,"Duration":125849,"SoundDuration":125849,"Delta":62392238},{"NoteNumber":71,"Velocity":38,"Duration":125849,"SoundDuration":125849,"Delta":62643937},{"NoteNumber":79,"Velocity":45,"Duration":123263,"SoundDuration":123263,"Delta":62897240},{"NoteNumber":64,"Velocity":30,"Duration":493056,"SoundDuration":493056,"Delta":62897240},{"NoteNumber":79,"Velocity":38,"Duration":123263,"SoundDuration":123263,"Delta":63143768},{"NoteNumber":78,"Velocity":52,"Duration":125849,"SoundDuration":125849,"Delta":63390296},{"NoteNumber":63,"Velocity":30,"Duration":495225,"SoundDuration":495225,"Delta":63390296},{"NoteNumber":78,"Velocity":42,"Duration":121763,"SoundDuration":121763,"Delta":63641995},{"NoteNumber":83,"Velocity":49,"Duration":123264,"SoundDuration":123264,"Delta":63885522},{"NoteNumber":62,"Velocity":30,"Duration":490054,"SoundDuration":490054,"Delta":63885522},{"NoteNumber":83,"Velocity":44,"Duration":121763,"SoundDuration":121763,"Delta":64132050},{"NoteNumber":76,"Velocity":52,"Duration":122759,"SoundDuration":122759,"Delta":64375576},{"NoteNumber":61,"Velocity":30,"Duration":490037,"SoundDuration":490037,"Delta":64375576},{"NoteNumber":76,"Velocity":42,"Duration":122259,"SoundDuration":122259,"Delta":64621096},{"NoteNumber":81,"Velocity":49,"Duration":124802,"SoundDuration":124802,"Delta":64865614},{"NoteNumber":60,"Velocity":30,"Duration":497150,"SoundDuration":497150,"Delta":64865614},{"NoteNumber":81,"Velocity":44,"Duration":123772,"SoundDuration":123772,"Delta":65115219},{"NoteNumber":74,"Velocity":52,"Duration":126379,"SoundDuration":126379,"Delta":65362764},{"NoteNumber":59,"Velocity":30,"Duration":508238,"SoundDuration":508238,"Delta":65362764},{"NoteNumber":74,"Velocity":46,"Duration":126379,"SoundDuration":126379,"Delta":65615524},{"NoteNumber":81,"Velocity":62,"Duration":123264,"SoundDuration":123264,"Delta":65871002},{"NoteNumber":52,"Velocity":30,"Duration":493055,"SoundDuration":493055,"Delta":65871002},{"NoteNumber":79,"Velocity":51,"Duration":123263,"SoundDuration":123263,"Delta":65994266},{"NoteNumber":78,"Velocity":51,"Duration":123264,"SoundDuration":123264,"Delta":66117530},{"NoteNumber":79,"Velocity":52,"Duration":123263,"SoundDuration":123263,"Delta":66240794},{"NoteNumber":76,"Velocity":63,"Duration":126379,"SoundDuration":126379,"Delta":66364058},{"NoteNumber":55,"Velocity":30,"Duration":499287,"SoundDuration":499287,"Delta":66364058},{"NoteNumber":76,"Velocity":45,"Duration":123264,"SoundDuration":123264,"Delta":66616818},{"NoteNumber":73,"Velocity":52,"Duration":124802,"SoundDuration":124802,"Delta":66863346},{"NoteNumber":52,"Velocity":30,"Duration":499210,"SoundDuration":499210,"Delta":66863346},{"NoteNumber":73,"Velocity":44,"Duration":124802,"SoundDuration":124802,"Delta":67112951},{"NoteNumber":70,"Velocity":52,"Duration":126379,"SoundDuration":126379,"Delta":67362556},{"NoteNumber":54,"Velocity":30,"Duration":1014529,"SoundDuration":1014529,"Delta":67362556},{"NoteNumber":70,"Velocity":42,"Duration":126379,"SoundDuration":126379,"Delta":67615315},{"NoteNumber":66,"Velocity":51,"Duration":124285,"SoundDuration":124285,"Delta":67868075},{"NoteNumber":66,"Velocity":43,"Duration":130219,"SoundDuration":130219,"Delta":68116645},{"NoteNumber":66,"Velocity":53,"Duration":129098,"SoundDuration":129098,"Delta":68377085},{"NoteNumber":66,"Velocity":43,"Duration":126379,"SoundDuration":126379,"Delta":68635283},{"NoteNumber":71,"Velocity":63,"Duration":123264,"SoundDuration":123264,"Delta":68888042},{"NoteNumber":62,"Velocity":37,"Duration":493055,"SoundDuration":493055,"Delta":68888042},{"NoteNumber":71,"Velocity":55,"Duration":123264,"SoundDuration":123264,"Delta":69134570},{"NoteNumber":70,"Velocity":67,"Duration":130219,"SoundDuration":130219,"Delta":69381098},{"NoteNumber":61,"Velocity":37,"Duration":511087,"SoundDuration":511087,"Delta":69381098},{"NoteNumber":70,"Velocity":48,"Duration":125323,"SoundDuration":125323,"Delta":69641538},{"NoteNumber":66,"Velocity":57,"Duration":122759,"SoundDuration":122759,"Delta":69892185},{"NoteNumber":66,"Velocity":48,"Duration":122759,"SoundDuration":122759,"Delta":70137705},{"NoteNumber":66,"Velocity":61,"Duration":126379,"SoundDuration":126379,"Delta":70383224},{"NoteNumber":66,"Velocity":50,"Duration":126379,"SoundDuration":126379,"Delta":70635984},{"NoteNumber":74,"Velocity":62,"Duration":122759,"SoundDuration":122759,"Delta":70889817},{"NoteNumber":59,"Velocity":37,"Duration":491039,"SoundDuration":491039,"Delta":70889817},{"NoteNumber":74,"Velocity":49,"Duration":122759,"SoundDuration":122759,"Delta":71135337},{"NoteNumber":73,"Velocity":71,"Duration":124285,"SoundDuration":124285,"Delta":71380856},{"NoteNumber":58,"Velocity":37,"Duration":489166,"SoundDuration":489166,"Delta":71380856},{"NoteNumber":73,"Velocity":56,"Duration":120298,"SoundDuration":120298,"Delta":71629427},{"NoteNumber":78,"Velocity":68,"Duration":123264,"SoundDuration":123264,"Delta":71870023},{"NoteNumber":57,"Velocity":37,"Duration":487124,"SoundDuration":487124,"Delta":71870023},{"NoteNumber":78,"Velocity":50,"Duration":120298,"SoundDuration":120298,"Delta":72116551},{"NoteNumber":71,"Velocity":69,"Duration":124802,"SoundDuration":124802,"Delta":72357148},{"NoteNumber":56,"Velocity":37,"Duration":492147,"SoundDuration":492147,"Delta":72357148},{"NoteNumber":71,"Velocity":55,"Duration":121270,"SoundDuration":121270,"Delta":72606753},{"NoteNumber":76,"Velocity":65,"Duration":125323,"SoundDuration":125323,"Delta":72849295},{"NoteNumber":55,"Velocity":37,"Duration":494174,"SoundDuration":494174,"Delta":72849295},{"NoteNumber":76,"Velocity":56,"Duration":121763,"SoundDuration":121763,"Delta":73099942},{"NoteNumber":69,"Velocity":68,"Duration":124802,"SoundDuration":124802,"Delta":73343469},{"NoteNumber":54,"Velocity":37,"Duration":505194,"SoundDuration":505194,"Delta":73343469},{"NoteNumber":69,"Velocity":60,"Duration":124802,"SoundDuration":124802,"Delta":73593074},{"NoteNumber":74,"Velocity":65,"Duration":125323,"SoundDuration":125323,"Delta":73848663},{"NoteNumber":47,"Velocity":40,"Duration":501294,"SoundDuration":501294,"Delta":73848663},{"NoteNumber":74,"Velocity":56,"Duration":125323,"SoundDuration":125323,"Delta":74099311},{"NoteNumber":74,"Velocity":74,"Duration":259313,"SoundDuration":259313,"Delta":74349958},{"NoteNumber":52,"Velocity":55,"Duration":509961,"SoundDuration":509961,"Delta":74349958},{"NoteNumber":68,"Velocity":63,"Duration":250647,"SoundDuration":250647,"Delta":74609272},{"NoteNumber":69,"Velocity":76,"Duration":121270,"SoundDuration":121270,"Delta":74859919},{"NoteNumber":40,"Velocity":53,"Duration":497514,"SoundDuration":497514,"Delta":74859919},{"NoteNumber":68,"Velocity":55,"Duration":121271,"SoundDuration":121271,"Delta":74981190},{"NoteNumber":66,"Velocity":63,"Duration":121270,"SoundDuration":121270,"Delta":75102461},{"NoteNumber":68,"Velocity":55,"Duration":133701,"SoundDuration":133701,"Delta":75223732},{"NoteNumber":71,"Velocity":73,"Duration":257091,"SoundDuration":257091,"Delta":75357434},{"NoteNumber":45,"Velocity":62,"Duration":128545,"SoundDuration":128545,"Delta":75357434},{"NoteNumber":69,"Velocity":55,"Duration":257091,"SoundDuration":257091,"Delta":75614526},{"NoteNumber":56,"Velocity":69,"Duration":121763,"SoundDuration":121763,"Delta":75871617},{"NoteNumber":57,"Velocity":62,"Duration":121763,"SoundDuration":121763,"Delta":75993380},{"NoteNumber":56,"Velocity":70,"Duration":121763,"SoundDuration":121763,"Delta":76115144},{"NoteNumber":57,"Velocity":62,"Duration":121763,"SoundDuration":121763,"Delta":76236907},{"NoteNumber":45,"Velocity":72,"Duration":131937,"SoundDuration":131937,"Delta":76358670},{"NoteNumber":45,"Velocity":62,"Duration":131937,"SoundDuration":131937,"Delta":76622546},{"NoteNumber":66,"Velocity":70,"Duration":128545,"SoundDuration":128545,"Delta":76886421},{"NoteNumber":62,"Velocity":59,"Duration":128545,"SoundDuration":128545,"Delta":76886421},{"NoteNumber":66,"Velocity":64,"Duration":128545,"SoundDuration":128545,"Delta":77143513},{"NoteNumber":62,"Velocity":54,"Duration":128545,"SoundDuration":128545,"Delta":77143513},{"NoteNumber":61,"Velocity":58,"Duration":130787,"SoundDuration":130787,"Delta":77400604},{"NoteNumber":64,"Velocity":69,"Duration":130787,"SoundDuration":130787,"Delta":77400604},{"NoteNumber":64,"Velocity":59,"Duration":130787,"SoundDuration":130787,"Delta":77662179},{"NoteNumber":61,"Velocity":50,"Duration":130787,"SoundDuration":130787,"Delta":77662179},{"NoteNumber":56,"Velocity":69,"Duration":122259,"SoundDuration":122259,"Delta":77923753},{"NoteNumber":57,"Velocity":62,"Duration":122259,"SoundDuration":122259,"Delta":78046012},{"NoteNumber":56,"Velocity":70,"Duration":122259,"SoundDuration":122259,"Delta":78168272},{"NoteNumber":57,"Velocity":62,"Duration":122259,"SoundDuration":122259,"Delta":78290531},{"NoteNumber":45,"Velocity":72,"Duration":131937,"SoundDuration":131937,"Delta":78412790},{"NoteNumber":45,"Velocity":62,"Duration":131937,"SoundDuration":131937,"Delta":78676666},{"NoteNumber":66,"Velocity":70,"Duration":126914,"SoundDuration":126914,"Delta":78940541},{"NoteNumber":63,"Velocity":59,"Duration":126914,"SoundDuration":126914,"Delta":78940541},{"NoteNumber":66,"Velocity":64,"Duration":133108,"SoundDuration":133108,"Delta":79194370},{"NoteNumber":63,"Velocity":54,"Duration":133108,"SoundDuration":133108,"Delta":79194370},{"NoteNumber":64,"Velocity":58,"Duration":129656,"SoundDuration":129656,"Delta":79460587},{"NoteNumber":67,"Velocity":69,"Duration":129656,"SoundDuration":129656,"Delta":79460587},{"NoteNumber":67,"Velocity":59,"Duration":129656,"SoundDuration":129656,"Delta":79719900},{"NoteNumber":64,"Velocity":50,"Duration":129656,"SoundDuration":129656,"Delta":79719900},{"NoteNumber":79,"Velocity":73,"Duration":123772,"SoundDuration":123772,"Delta":79979214},{"NoteNumber":76,"Velocity":62,"Duration":123772,"SoundDuration":123772,"Delta":79979214},{"NoteNumber":57,"Velocity":55,"Duration":123772,"SoundDuration":123772,"Delta":79979214},{"NoteNumber":61,"Velocity":65,"Duration":123772,"SoundDuration":123772,"Delta":79979214},{"NoteNumber":79,"Velocity":66,"Duration":127453,"SoundDuration":127453,"Delta":80226759},{"NoteNumber":76,"Velocity":56,"Duration":127453,"SoundDuration":127453,"Delta":80226759},{"NoteNumber":61,"Velocity":58,"Duration":127453,"SoundDuration":127453,"Delta":80226759},{"NoteNumber":57,"Velocity":49,"Duration":127453,"SoundDuration":127453,"Delta":80226759},{"NoteNumber":76,"Velocity":74,"Duration":127453,"SoundDuration":127453,"Delta":80481666},{"NoteNumber":73,"Velocity":62,"Duration":127453,"SoundDuration":127453,"Delta":80481666},{"NoteNumber":61,"Velocity":55,"Duration":127453,"SoundDuration":127453,"Delta":80481666},{"NoteNumber":64,"Velocity":65,"Duration":127453,"SoundDuration":127453,"Delta":80481666},{"NoteNumber":76,"Velocity":68,"Duration":130219,"SoundDuration":130219,"Delta":80736573},{"NoteNumber":73,"Velocity":57,"Duration":130219,"SoundDuration":130219,"Delta":80736573},{"NoteNumber":64,"Velocity":58,"Duration":130219,"SoundDuration":130219,"Delta":80736573},{"NoteNumber":61,"Velocity":49,"Duration":130219,"SoundDuration":130219,"Delta":80736573},{"NoteNumber":73,"Velocity":74,"Duration":125323,"SoundDuration":125323,"Delta":80997012},{"NoteNumber":69,"Velocity":62,"Duration":125323,"SoundDuration":125323,"Delta":80997012},{"NoteNumber":64,"Velocity":55,"Duration":125323,"SoundDuration":125323,"Delta":80997012},{"NoteNumber":67,"Velocity":65,"Duration":125323,"SoundDuration":125323,"Delta":80997012},{"NoteNumber":73,"Velocity":69,"Duration":137375,"SoundDuration":137375,"Delta":81247660},{"NoteNumber":69,"Velocity":58,"Duration":137375,"SoundDuration":137375,"Delta":81247660},{"NoteNumber":67,"Velocity":59,"Duration":137375,"SoundDuration":137375,"Delta":81247660},{"NoteNumber":64,"Velocity":50,"Duration":137375,"SoundDuration":137375,"Delta":81247660},{"NoteNumber":81,"Velocity":76,"Duration":529894,"SoundDuration":529894,"Delta":81522410},{"NoteNumber":62,"Velocity":55,"Duration":132473,"SoundDuration":132473,"Delta":81522410},{"NoteNumber":66,"Velocity":65,"Duration":132473,"SoundDuration":132473,"Delta":81522410},{"NoteNumber":66,"Velocity":61,"Duration":132473,"SoundDuration":132473,"Delta":81787358},{"NoteNumber":62,"Velocity":51,"Duration":132473,"SoundDuration":132473,"Delta":81787358},{"NoteNumber":79,"Velocity":76,"Duration":126337,"SoundDuration":126337,"Delta":82052305},{"NoteNumber":78,"Velocity":70,"Duration":126336,"SoundDuration":126336,"Delta":82178642},{"NoteNumber":76,"Velocity":70,"Duration":126337,"SoundDuration":126337,"Delta":82304979},{"NoteNumber":74,"Velocity":70,"Duration":126336,"SoundDuration":126336,"Delta":82431316},{"NoteNumber":73,"Velocity":76,"Duration":260349,"SoundDuration":260349,"Delta":82557653},{"NoteNumber":43,"Velocity":45,"Duration":130174,"SoundDuration":130174,"Delta":82557653},{"NoteNumber":55,"Velocity":53,"Duration":130174,"SoundDuration":130174,"Delta":82557653},{"NoteNumber":71,"Velocity":69,"Duration":260348,"SoundDuration":260348,"Delta":82818002},{"NoteNumber":55,"Velocity":47,"Duration":130174,"SoundDuration":130174,"Delta":82818002},{"NoteNumber":43,"Velocity":39,"Duration":130174,"SoundDuration":130174,"Delta":82818002},{"NoteNumber":69,"Velocity":73,"Duration":126337,"SoundDuration":126337,"Delta":83078351},{"NoteNumber":67,"Velocity":64,"Duration":126336,"SoundDuration":126336,"Delta":83204688},{"NoteNumber":66,"Velocity":64,"Duration":126337,"SoundDuration":126337,"Delta":83331025},{"NoteNumber":64,"Velocity":64,"Duration":126336,"SoundDuration":126336,"Delta":83457362},{"NoteNumber":62,"Velocity":72,"Duration":522966,"SoundDuration":522966,"Delta":83583699},{"NoteNumber":45,"Velocity":41,"Duration":130741,"SoundDuration":130741,"Delta":83583699},{"NoteNumber":54,"Velocity":49,"Duration":130741,"SoundDuration":130741,"Delta":83583699},{"NoteNumber":45,"Velocity":36,"Duration":130741,"SoundDuration":130741,"Delta":83845183},{"NoteNumber":54,"Velocity":43,"Duration":130741,"SoundDuration":130741,"Delta":83845183},{"NoteNumber":64,"Velocity":59,"Duration":125807,"SoundDuration":125807,"Delta":84106666},{"NoteNumber":62,"Velocity":49,"Duration":125807,"SoundDuration":125807,"Delta":84232473},{"NoteNumber":61,"Velocity":49,"Duration":125807,"SoundDuration":125807,"Delta":84358281},{"NoteNumber":59,"Velocity":49,"Duration":125807,"SoundDuration":125807,"Delta":84484088},{"NoteNumber":57,"Velocity":57,"Duration":522966,"SoundDuration":522966,"Delta":84609895},{"NoteNumber":49,"Velocity":39,"Duration":130741,"SoundDuration":130741,"Delta":84609895},{"NoteNumber":45,"Velocity":33,"Duration":130741,"SoundDuration":130741,"Delta":84609895},{"NoteNumber":49,"Velocity":33,"Duration":130741,"SoundDuration":130741,"Delta":84871379},{"NoteNumber":45,"Velocity":28,"Duration":130741,"SoundDuration":130741,"Delta":84871379},{"NoteNumber":57,"Velocity":54,"Duration":129567,"SoundDuration":129567,"Delta":85132862},{"NoteNumber":55,"Velocity":48,"Duration":131470,"SoundDuration":131470,"Delta":85262430},{"NoteNumber":54,"Velocity":45,"Duration":133429,"SoundDuration":133429,"Delta":85393900},{"NoteNumber":52,"Velocity":43,"Duration":135529,"SoundDuration":135529,"Delta":85527330},{"NoteNumber":50,"Velocity":48,"Duration":130741,"SoundDuration":130741,"Delta":85662859},{"NoteNumber":38,"Velocity":31,"Duration":522966,"SoundDuration":522966,"Delta":85662859},{"NoteNumber":50,"Velocity":45,"Duration":130741,"SoundDuration":130741,"Delta":85924343},{"NoteNumber":54,"Velocity":48,"Duration":128545,"SoundDuration":128545,"Delta":86185826},{"NoteNumber":54,"Velocity":39,"Duration":130219,"SoundDuration":130219,"Delta":86442918},{"NoteNumber":59,"Velocity":48,"Duration":130787,"SoundDuration":130787,"Delta":86703357},{"NoteNumber":59,"Velocity":37,"Duration":126379,"SoundDuration":126379,"Delta":86964932},{"NoteNumber":56,"Velocity":42,"Duration":127453,"SoundDuration":127453,"Delta":87217691},{"NoteNumber":50,"Velocity":30,"Duration":509814,"SoundDuration":509814,"Delta":87217691},{"NoteNumber":56,"Velocity":35,"Duration":127453,"SoundDuration":127453,"Delta":87472598},{"NoteNumber":57,"Velocity":48,"Duration":130219,"SoundDuration":130219,"Delta":87727505},{"NoteNumber":49,"Velocity":30,"Duration":511087,"SoundDuration":511087,"Delta":87727505},{"NoteNumber":57,"Velocity":37,"Duration":125323,"SoundDuration":125323,"Delta":87987945},{"NoteNumber":64,"Velocity":40,"Duration":128545,"SoundDuration":128545,"Delta":88238592},{"NoteNumber":64,"Velocity":33,"Duration":130219,"SoundDuration":130219,"Delta":88495684},{"NoteNumber":69,"Velocity":42,"Duration":130787,"SoundDuration":130787,"Delta":88756123},{"NoteNumber":69,"Velocity":31,"Duration":126379,"SoundDuration":126379,"Delta":89017698},{"NoteNumber":66,"Velocity":39,"Duration":127453,"SoundDuration":127453,"Delta":89270457},{"NoteNumber":48,"Velocity":25,"Duration":509814,"SoundDuration":509814,"Delta":89270457},{"NoteNumber":66,"Velocity":32,"Duration":127453,"SoundDuration":127453,"Delta":89525364},{"NoteNumber":67,"Velocity":40,"Duration":130219,"SoundDuration":130219,"Delta":89780271},{"NoteNumber":47,"Velocity":25,"Duration":511087,"SoundDuration":511087,"Delta":89780271},{"NoteNumber":67,"Velocity":35,"Duration":125323,"SoundDuration":125323,"Delta":90040711},{"NoteNumber":71,"Velocity":45,"Duration":125323,"SoundDuration":125323,"Delta":90291358},{"NoteNumber":71,"Velocity":51,"Duration":125323,"SoundDuration":125323,"Delta":90542006},{"NoteNumber":71,"Velocity":68,"Duration":247545,"SoundDuration":247545,"Delta":90792653},{"NoteNumber":55,"Velocity":40,"Duration":495090,"SoundDuration":495090,"Delta":90792653},{"NoteNumber":64,"Velocity":53,"Duration":247545,"SoundDuration":247545,"Delta":91040198},{"NoteNumber":71,"Velocity":59,"Duration":247545,"SoundDuration":247545,"Delta":91287743},{"NoteNumber":56,"Velocity":42,"Duration":511327,"SoundDuration":511327,"Delta":91287743},{"NoteNumber":62,"Velocity":48,"Duration":263782,"SoundDuration":263782,"Delta":91535288},{"NoteNumber":62,"Velocity":57,"Duration":260349,"SoundDuration":260349,"Delta":91799071},{"NoteNumber":57,"Velocity":49,"Duration":520697,"SoundDuration":520697,"Delta":91799071},{"NoteNumber":61,"Velocity":48,"Duration":260348,"SoundDuration":260348,"Delta":92059420},{"NoteNumber":76,"Velocity":64,"Duration":125807,"SoundDuration":125807,"Delta":92319769},{"NoteNumber":76,"Velocity":56,"Duration":129611,"SoundDuration":129611,"Delta":92571383},{"NoteNumber":76,"Velocity":68,"Duration":246527,"SoundDuration":246527,"Delta":92830607},{"NoteNumber":60,"Velocity":52,"Duration":493055,"SoundDuration":493055,"Delta":92830607},{"NoteNumber":69,"Velocity":53,"Duration":246527,"SoundDuration":246527,"Delta":93077135},{"NoteNumber":76,"Velocity":65,"Duration":246527,"SoundDuration":246527,"Delta":93323663},{"NoteNumber":59,"Velocity":47,"Duration":510310,"SoundDuration":510310,"Delta":93323663},{"NoteNumber":67,"Velocity":53,"Duration":263782,"SoundDuration":263782,"Delta":93570191},{"NoteNumber":67,"Velocity":69,"Duration":255906,"SoundDuration":255906,"Delta":93833974},{"NoteNumber":58,"Velocity":53,"Duration":511814,"SoundDuration":511814,"Delta":93833974},{"NoteNumber":66,"Velocity":59,"Duration":255907,"SoundDuration":255907,"Delta":94089881},{"NoteNumber":74,"Velocity":64,"Duration":125807,"SoundDuration":125807,"Delta":94345788},{"NoteNumber":59,"Velocity":39,"Duration":510838,"SoundDuration":510838,"Delta":94345788},{"NoteNumber":74,"Velocity":56,"Duration":129611,"SoundDuration":129611,"Delta":94597402},{"NoteNumber":64,"Velocity":61,"Duration":129611,"SoundDuration":129611,"Delta":94856626},{"NoteNumber":55,"Velocity":46,"Duration":518448,"SoundDuration":518448,"Delta":94856626},{"NoteNumber":64,"Velocity":53,"Duration":129611,"SoundDuration":129611,"Delta":95115850},{"NoteNumber":69,"Velocity":57,"Duration":126871,"SoundDuration":126871,"Delta":95375074},{"NoteNumber":57,"Velocity":37,"Duration":517525,"SoundDuration":517525,"Delta":95375074},{"NoteNumber":67,"Velocity":51,"Duration":126871,"SoundDuration":126871,"Delta":95501945},{"NoteNumber":66,"Velocity":46,"Duration":131891,"SoundDuration":131891,"Delta":95628817},{"NoteNumber":64,"Velocity":41,"Duration":131891,"SoundDuration":131891,"Delta":95760708},{"NoteNumber":62,"Velocity":35,"Duration":131891,"SoundDuration":131891,"Delta":95892599},{"NoteNumber":38,"Velocity":33,"Duration":527564,"SoundDuration":527564,"Delta":95892599},{"NoteNumber":66,"Velocity":31,"Duration":131891,"SoundDuration":131891,"Delta":96024490},{"NoteNumber":62,"Velocity":35,"Duration":131891,"SoundDuration":131891,"Delta":96156382},{"NoteNumber":66,"Velocity":31,"Duration":131891,"SoundDuration":131891,"Delta":96288273},{"NoteNumber":62,"Velocity":35,"Duration":128024,"SoundDuration":128024,"Delta":96420164},{"NoteNumber":42,"Velocity":32,"Duration":510676,"SoundDuration":510676,"Delta":96420164},{"NoteNumber":66,"Velocity":31,"Duration":127915,"SoundDuration":127915,"Delta":96548188},{"NoteNumber":62,"Velocity":35,"Duration":127453,"SoundDuration":127453,"Delta":96676104},{"NoteNumber":66,"Velocity":31,"Duration":127282,"SoundDuration":127282,"Delta":96803557},{"NoteNumber":62,"Velocity":35,"Duration":126914,"SoundDuration":126914,"Delta":96930840},{"NoteNumber":47,"Velocity":34,"Duration":507656,"SoundDuration":507656,"Delta":96930840},{"NoteNumber":66,"Velocity":31,"Duration":126914,"SoundDuration":126914,"Delta":97057754},{"NoteNumber":62,"Velocity":35,"Duration":126914,"SoundDuration":126914,"Delta":97184669},{"NoteNumber":66,"Velocity":31,"Duration":126914,"SoundDuration":126914,"Delta":97311583},{"NoteNumber":62,"Velocity":35,"Duration":130741,"SoundDuration":130741,"Delta":97438497},{"NoteNumber":44,"Velocity":31,"Duration":522966,"SoundDuration":522966,"Delta":97438497},{"NoteNumber":66,"Velocity":31,"Duration":130741,"SoundDuration":130741,"Delta":97569239},{"NoteNumber":62,"Velocity":35,"Duration":130741,"SoundDuration":130741,"Delta":97699981},{"NoteNumber":66,"Velocity":31,"Duration":130741,"SoundDuration":130741,"Delta":97830722},{"NoteNumber":62,"Velocity":35,"Duration":129054,"SoundDuration":129054,"Delta":97961464},{"NoteNumber":45,"Velocity":34,"Duration":515977,"SoundDuration":515977,"Delta":97961464},{"NoteNumber":64,"Velocity":31,"Duration":129054,"SoundDuration":129054,"Delta":98090519},{"NoteNumber":62,"Velocity":35,"Duration":129054,"SoundDuration":129054,"Delta":98219573},{"NoteNumber":64,"Velocity":31,"Duration":128814,"SoundDuration":128814,"Delta":98348628},{"NoteNumber":62,"Velocity":35,"Duration":127453,"SoundDuration":127453,"Delta":98477442},{"NoteNumber":52,"Velocity":34,"Duration":508588,"SoundDuration":508588,"Delta":98477442},{"NoteNumber":64,"Velocity":31,"Duration":127306,"SoundDuration":127306,"Delta":98604895},{"NoteNumber":62,"Velocity":35,"Duration":126914,"SoundDuration":126914,"Delta":98732202},{"NoteNumber":64,"Velocity":31,"Duration":126914,"SoundDuration":126914,"Delta":98859116},{"NoteNumber":61,"Velocity":35,"Duration":127453,"SoundDuration":127453,"Delta":98986031},{"NoteNumber":57,"Velocity":40,"Duration":509814,"SoundDuration":509814,"Delta":98986031},{"NoteNumber":64,"Velocity":31,"Duration":127453,"SoundDuration":127453,"Delta":99113484},{"NoteNumber":61,"Velocity":35,"Duration":127453,"SoundDuration":127453,"Delta":99240938},{"NoteNumber":64,"Velocity":31,"Duration":127453,"SoundDuration":127453,"Delta":99368391},{"NoteNumber":60,"Velocity":35,"Duration":131314,"SoundDuration":131314,"Delta":99495845},{"NoteNumber":50,"Velocity":31,"Duration":525255,"SoundDuration":525255,"Delta":99495845},{"NoteNumber":66,"Velocity":31,"Duration":131314,"SoundDuration":131314,"Delta":99627159},{"NoteNumber":60,"Velocity":35,"Duration":131313,"SoundDuration":131313,"Delta":99758473},{"NoteNumber":66,"Velocity":31,"Duration":131314,"SoundDuration":131314,"Delta":99889787},{"NoteNumber":59,"Velocity":40,"Duration":130219,"SoundDuration":130219,"Delta":100021101},{"NoteNumber":55,"Velocity":34,"Duration":520878,"SoundDuration":520878,"Delta":100021101},{"NoteNumber":67,"Velocity":37,"Duration":130219,"SoundDuration":130219,"Delta":100151320},{"NoteNumber":59,"Velocity":41,"Duration":130219,"SoundDuration":130219,"Delta":100281540},{"NoteNumber":67,"Velocity":37,"Duration":130219,"SoundDuration":130219,"Delta":100411760},{"NoteNumber":71,"Velocity":46,"Duration":125849,"SoundDuration":125849,"Delta":100541980},{"NoteNumber":69,"Velocity":53,"Duration":125849,"SoundDuration":125849,"Delta":100667829},{"NoteNumber":67,"Velocity":55,"Duration":125849,"SoundDuration":125849,"Delta":100793679},{"NoteNumber":66,"Velocity":53,"Duration":125849,"SoundDuration":125849,"Delta":100919528},{"NoteNumber":64,"Velocity":59,"Duration":127997,"SoundDuration":127997,"Delta":101045378},{"NoteNumber":55,"Velocity":55,"Duration":511988,"SoundDuration":511988,"Delta":101045378},{"NoteNumber":66,"Velocity":53,"Duration":127997,"SoundDuration":127997,"Delta":101173375},{"NoteNumber":64,"Velocity":53,"Duration":127997,"SoundDuration":127997,"Delta":101301372},{"NoteNumber":66,"Velocity":53,"Duration":127997,"SoundDuration":127997,"Delta":101429369},{"NoteNumber":67,"Velocity":61,"Duration":125323,"SoundDuration":125323,"Delta":101557367},{"NoteNumber":66,"Velocity":55,"Duration":125323,"SoundDuration":125323,"Delta":101682690},{"NoteNumber":64,"Velocity":54,"Duration":125323,"SoundDuration":125323,"Delta":101808014},{"NoteNumber":62,"Velocity":54,"Duration":125323,"SoundDuration":125323,"Delta":101933338},{"NoteNumber":61,"Velocity":61,"Duration":126914,"SoundDuration":126914,"Delta":102058662},{"NoteNumber":55,"Velocity":60,"Duration":507656,"SoundDuration":507656,"Delta":102058662},{"NoteNumber":52,"Velocity":51,"Duration":507656,"SoundDuration":507656,"Delta":102058662},{"NoteNumber":45,"Velocity":51,"Duration":507656,"SoundDuration":507656,"Delta":102058662},{"NoteNumber":62,"Velocity":53,"Duration":126914,"SoundDuration":126914,"Delta":102185576},{"NoteNumber":61,"Velocity":54,"Duration":126914,"SoundDuration":126914,"Delta":102312490},{"NoteNumber":62,"Velocity":54,"Duration":126914,"SoundDuration":126914,"Delta":102439404},{"NoteNumber":64,"Velocity":62,"Duration":125323,"SoundDuration":125323,"Delta":102566319},{"NoteNumber":62,"Velocity":54,"Duration":125323,"SoundDuration":125323,"Delta":102691642},{"NoteNumber":61,"Velocity":54,"Duration":125323,"SoundDuration":125323,"Delta":102816966},{"NoteNumber":59,"Velocity":54,"Duration":125142,"SoundDuration":125142,"Delta":102942290},{"NoteNumber":57,"Velocity":62,"Duration":124003,"SoundDuration":124003,"Delta":103067433},{"NoteNumber":55,"Velocity":64,"Duration":124003,"SoundDuration":124003,"Delta":103067433},{"NoteNumber":52,"Velocity":53,"Duration":124003,"SoundDuration":124003,"Delta":103067433},{"NoteNumber":45,"Velocity":53,"Duration":124003,"SoundDuration":124003,"Delta":103067433},{"NoteNumber":59,"Velocity":62,"Duration":124751,"SoundDuration":124751,"Delta":103191436},{"NoteNumber":61,"Velocity":65,"Duration":125560,"SoundDuration":125560,"Delta":103316187},{"NoteNumber":62,"Velocity":68,"Duration":126504,"SoundDuration":126504,"Delta":103441747},{"NoteNumber":64,"Velocity":73,"Duration":127246,"SoundDuration":127246,"Delta":103568252},{"NoteNumber":55,"Velocity":62,"Duration":127246,"SoundDuration":127246,"Delta":103568252},{"NoteNumber":52,"Velocity":53,"Duration":127246,"SoundDuration":127246,"Delta":103568252},{"NoteNumber":45,"Velocity":53,"Duration":127246,"SoundDuration":127246,"Delta":103568252},{"NoteNumber":66,"Velocity":75,"Duration":128216,"SoundDuration":128216,"Delta":103695499},{"NoteNumber":67,"Velocity":79,"Duration":129044,"SoundDuration":129044,"Delta":103823716},{"NoteNumber":69,"Velocity":83,"Duration":129910,"SoundDuration":129910,"Delta":103952760},{"NoteNumber":62,"Velocity":97,"Duration":124802,"SoundDuration":124802,"Delta":104082670},{"NoteNumber":54,"Velocity":76,"Duration":499210,"SoundDuration":499210,"Delta":104082670},{"NoteNumber":50,"Velocity":76,"Duration":499210,"SoundDuration":499210,"Delta":104082670},{"NoteNumber":66,"Velocity":70,"Duration":124802,"SoundDuration":124802,"Delta":104207473},{"NoteNumber":69,"Velocity":78,"Duration":124802,"SoundDuration":124802,"Delta":104332275},{"NoteNumber":74,"Velocity":74,"Duration":124802,"SoundDuration":124802,"Delta":104457078},{"NoteNumber":71,"Velocity":84,"Duration":130787,"SoundDuration":130787,"Delta":104581880},{"NoteNumber":55,"Velocity":68,"Duration":523149,"SoundDuration":523149,"Delta":104581880},{"NoteNumber":43,"Velocity":57,"Duration":523149,"SoundDuration":523149,"Delta":104581880},{"NoteNumber":71,"Velocity":79,"Duration":130787,"SoundDuration":130787,"Delta":104843455},{"NoteNumber":62,"Velocity":88,"Duration":130787,"SoundDuration":130787,"Delta":105105029},{"NoteNumber":54,"Velocity":75,"Duration":523148,"SoundDuration":523148,"Delta":105105029},{"NoteNumber":50,"Velocity":63,"Duration":523148,"SoundDuration":523148,"Delta":105105029},{"NoteNumber":45,"Velocity":63,"Duration":523148,"SoundDuration":523148,"Delta":105105029},{"NoteNumber":62,"Velocity":74,"Duration":130787,"SoundDuration":130787,"Delta":105366604},{"NoteNumber":66,"Velocity":78,"Duration":125849,"SoundDuration":125849,"Delta":105628178},{"NoteNumber":45,"Velocity":54,"Duration":516193,"SoundDuration":516193,"Delta":105628178},{"NoteNumber":49,"Velocity":54,"Duration":516193,"SoundDuration":516193,"Delta":105628178},{"NoteNumber":55,"Velocity":63,"Duration":516193,"SoundDuration":516193,"Delta":105628178},{"NoteNumber":64,"Velocity":69,"Duration":125849,"SoundDuration":125849,"Delta":105754028},{"NoteNumber":62,"Velocity":69,"Duration":125849,"SoundDuration":125849,"Delta":105879877},{"NoteNumber":64,"Velocity":69,"Duration":138644,"SoundDuration":138644,"Delta":106005727},{"NoteNumber":62,"Velocity":97,"Duration":124802,"SoundDuration":124802,"Delta":106144372},{"NoteNumber":54,"Velocity":76,"Duration":499210,"SoundDuration":499210,"Delta":106144372},{"NoteNumber":50,"Velocity":76,"Duration":499210,"SoundDuration":499210,"Delta":106144372},{"NoteNumber":66,"Velocity":70,"Duration":124802,"SoundDuration":124802,"Delta":106269174},{"NoteNumber":69,"Velocity":78,"Duration":124802,"SoundDuration":124802,"Delta":106393977},{"NoteNumber":74,"Velocity":74,"Duration":124802,"SoundDuration":124802,"Delta":106518779},{"NoteNumber":71,"Velocity":84,"Duration":130787,"SoundDuration":130787,"Delta":106643582},{"NoteNumber":55,"Velocity":68,"Duration":523149,"SoundDuration":523149,"Delta":106643582},{"NoteNumber":43,"Velocity":57,"Duration":523149,"SoundDuration":523149,"Delta":106643582},{"NoteNumber":71,"Velocity":79,"Duration":130787,"SoundDuration":130787,"Delta":106905156},{"NoteNumber":62,"Velocity":88,"Duration":130787,"SoundDuration":130787,"Delta":107166731},{"NoteNumber":54,"Velocity":75,"Duration":523148,"SoundDuration":523148,"Delta":107166731},{"NoteNumber":50,"Velocity":63,"Duration":523148,"SoundDuration":523148,"Delta":107166731},{"NoteNumber":45,"Velocity":63,"Duration":523148,"SoundDuration":523148,"Delta":107166731},{"NoteNumber":62,"Velocity":74,"Duration":130787,"SoundDuration":130787,"Delta":107428305},{"NoteNumber":66,"Velocity":69,"Duration":125849,"SoundDuration":125849,"Delta":107689880},{"NoteNumber":45,"Velocity":54,"Duration":516193,"SoundDuration":516193,"Delta":107689880},{"NoteNumber":49,"Velocity":54,"Duration":516193,"SoundDuration":516193,"Delta":107689880},{"NoteNumber":55,"Velocity":63,"Duration":516193,"SoundDuration":516193,"Delta":107689880},{"NoteNumber":64,"Velocity":52,"Duration":125849,"SoundDuration":125849,"Delta":107815729},{"NoteNumber":62,"Velocity":58,"Duration":125849,"SoundDuration":125849,"Delta":107941579},{"NoteNumber":64,"Velocity":49,"Duration":138644,"SoundDuration":138644,"Delta":108067428},{"NoteNumber":62,"Velocity":61,"Duration":132520,"SoundDuration":132520,"Delta":108206073},{"NoteNumber":54,"Velocity":49,"Duration":132520,"SoundDuration":132520,"Delta":108206073},{"NoteNumber":50,"Velocity":41,"Duration":132520,"SoundDuration":132520,"Delta":108206073},{"NoteNumber":54,"Velocity":49,"Duration":132520,"SoundDuration":132520,"Delta":108471114},{"NoteNumber":50,"Velocity":41,"Duration":132520,"SoundDuration":132520,"Delta":108471114},{"NoteNumber":62,"Velocity":43,"Duration":124285,"SoundDuration":124285,"Delta":108736155},{"NoteNumber":64,"Velocity":48,"Duration":124285,"SoundDuration":124285,"Delta":108860440},{"NoteNumber":66,"Velocity":50,"Duration":124285,"SoundDuration":124285,"Delta":108984726},{"NoteNumber":67,"Velocity":52,"Duration":124285,"SoundDuration":124285,"Delta":109109011},{"NoteNumber":69,"Velocity":54,"Duration":258197,"SoundDuration":258197,"Delta":109233296},{"NoteNumber":50,"Velocity":30,"Duration":129098,"SoundDuration":129098,"Delta":109233296},{"NoteNumber":54,"Velocity":36,"Duration":129098,"SoundDuration":129098,"Delta":109233296},{"NoteNumber":54,"Velocity":30,"Duration":129099,"SoundDuration":129099,"Delta":109491494},{"NoteNumber":50,"Velocity":25,"Duration":129099,"SoundDuration":129099,"Delta":109491494},{"NoteNumber":66,"Velocity":43,"Duration":124285,"SoundDuration":124285,"Delta":109749692},{"NoteNumber":67,"Velocity":48,"Duration":124285,"SoundDuration":124285,"Delta":109873977},{"NoteNumber":69,"Velocity":50,"Duration":124285,"SoundDuration":124285,"Delta":109998263},{"NoteNumber":71,"Velocity":52,"Duration":124285,"SoundDuration":124285,"Delta":110122548},{"NoteNumber":72,"Velocity":54,"Duration":258197,"SoundDuration":258197,"Delta":110246833},{"NoteNumber":50,"Velocity":30,"Duration":129098,"SoundDuration":129098,"Delta":110246833},{"NoteNumber":54,"Velocity":36,"Duration":129098,"SoundDuration":129098,"Delta":110246833},{"NoteNumber":54,"Velocity":30,"Duration":133108,"SoundDuration":133108,"Delta":110505031},{"NoteNumber":50,"Velocity":25,"Duration":133108,"SoundDuration":133108,"Delta":110505031},{"NoteNumber":74,"Velocity":32,"Duration":124285,"SoundDuration":124285,"Delta":110771248},{"NoteNumber":76,"Velocity":36,"Duration":124285,"SoundDuration":124285,"Delta":110895533},{"NoteNumber":78,"Velocity":37,"Duration":124285,"SoundDuration":124285,"Delta":111019819},{"NoteNumber":79,"Velocity":39,"Duration":124285,"SoundDuration":124285,"Delta":111144104},{"NoteNumber":81,"Velocity":40,"Duration":266216,"SoundDuration":266216,"Delta":111268389},{"NoteNumber":62,"Velocity":20,"Duration":133108,"SoundDuration":133108,"Delta":111268389},{"NoteNumber":66,"Velocity":23,"Duration":133108,"SoundDuration":133108,"Delta":111268389},{"NoteNumber":66,"Velocity":20,"Duration":133108,"SoundDuration":133108,"Delta":111534606},{"NoteNumber":62,"Velocity":16,"Duration":133108,"SoundDuration":133108,"Delta":111534606},{"NoteNumber":78,"Velocity":32,"Duration":127453,"SoundDuration":127453,"Delta":111800823},{"NoteNumber":79,"Velocity":36,"Duration":127453,"SoundDuration":127453,"Delta":111928277},{"NoteNumber":81,"Velocity":37,"Duration":127453,"SoundDuration":127453,"Delta":112055730},{"NoteNumber":83,"Velocity":39,"Duration":127453,"SoundDuration":127453,"Delta":112183184},{"NoteNumber":84,"Velocity":40,"Duration":268600,"SoundDuration":268600,"Delta":112310637},{"NoteNumber":66,"Velocity":20,"Duration":134300,"SoundDuration":134300,"Delta":112310637},{"NoteNumber":62,"Velocity":20,"Duration":134300,"SoundDuration":134300,"Delta":112310637},{"NoteNumber":69,"Velocity":23,"Duration":134300,"SoundDuration":134300,"Delta":112310637},{"NoteNumber":66,"Velocity":16,"Duration":134300,"SoundDuration":134300,"Delta":112579238},{"NoteNumber":69,"Velocity":20,"Duration":134300,"SoundDuration":134300,"Delta":112579238},{"NoteNumber":62,"Velocity":16,"Duration":134300,"SoundDuration":134300,"Delta":112579238},{"NoteNumber":78,"Velocity":32,"Duration":127997,"SoundDuration":127997,"Delta":112847838},{"NoteNumber":79,"Velocity":36,"Duration":127997,"SoundDuration":127997,"Delta":112975835},{"NoteNumber":81,"Velocity":37,"Duration":127997,"SoundDuration":127997,"Delta":113103833},{"NoteNumber":83,"Velocity":39,"Duration":127997,"SoundDuration":127997,"Delta":113231830},{"NoteNumber":84,"Velocity":40,"Duration":266216,"SoundDuration":266216,"Delta":113359827},{"NoteNumber":66,"Velocity":20,"Duration":133108,"SoundDuration":133108,"Delta":113359827},{"NoteNumber":62,"Velocity":20,"Duration":133108,"SoundDuration":133108,"Delta":113359827},{"NoteNumber":69,"Velocity":23,"Duration":133108,"SoundDuration":133108,"Delta":113359827},{"NoteNumber":66,"Velocity":16,"Duration":146785,"SoundDuration":146785,"Delta":113626044},{"NoteNumber":69,"Velocity":20,"Duration":146785,"SoundDuration":146785,"Delta":113626044},{"NoteNumber":62,"Velocity":16,"Duration":146785,"SoundDuration":146785,"Delta":113626044},{"NoteNumber":84,"Velocity":39,"Duration":143967,"SoundDuration":143967,"Delta":113919615},{"NoteNumber":86,"Velocity":32,"Duration":143967,"SoundDuration":143967,"Delta":114063583},{"NoteNumber":88,"Velocity":37,"Duration":143967,"SoundDuration":143967,"Delta":114207551},{"NoteNumber":86,"Velocity":32,"Duration":156756,"SoundDuration":156756,"Delta":114351518},{"NoteNumber":84,"Velocity":43,"Duration":592944,"SoundDuration":592944,"Delta":114508275},{"NoteNumber":79,"Velocity":48,"Duration":124285,"SoundDuration":124285,"Delta":116103809},{"NoteNumber":81,"Velocity":54,"Duration":124285,"SoundDuration":124285,"Delta":116228094},{"NoteNumber":83,"Velocity":55,"Duration":124285,"SoundDuration":124285,"Delta":116352379},{"NoteNumber":84,"Velocity":60,"Duration":124285,"SoundDuration":124285,"Delta":116476664},{"NoteNumber":86,"Velocity":63,"Duration":516396,"SoundDuration":516396,"Delta":116600950},{"NoteNumber":59,"Velocity":34,"Duration":129098,"SoundDuration":129098,"Delta":116600950},{"NoteNumber":67,"Velocity":40,"Duration":129098,"SoundDuration":129098,"Delta":116600950},{"NoteNumber":67,"Velocity":34,"Duration":129099,"SoundDuration":129099,"Delta":116859148},{"NoteNumber":59,"Velocity":28,"Duration":129099,"SoundDuration":129099,"Delta":116859148},{"NoteNumber":84,"Velocity":55,"Duration":124802,"SoundDuration":124802,"Delta":117117346},{"NoteNumber":83,"Velocity":51,"Duration":124802,"SoundDuration":124802,"Delta":117242148},{"NoteNumber":81,"Velocity":51,"Duration":124802,"SoundDuration":124802,"Delta":117366951},{"NoteNumber":79,"Velocity":51,"Duration":124802,"SoundDuration":124802,"Delta":117491753},{"NoteNumber":78,"Velocity":58,"Duration":516396,"SoundDuration":516396,"Delta":117616556},{"NoteNumber":62,"Velocity":34,"Duration":129098,"SoundDuration":129098,"Delta":117616556},{"NoteNumber":69,"Velocity":40,"Duration":129098,"SoundDuration":129098,"Delta":117616556},{"NoteNumber":69,"Velocity":34,"Duration":129099,"SoundDuration":129099,"Delta":117874754},{"NoteNumber":62,"Velocity":28,"Duration":129099,"SoundDuration":129099,"Delta":117874754},{"NoteNumber":79,"Velocity":55,"Duration":124285,"SoundDuration":124285,"Delta":118132952},{"NoteNumber":78,"Velocity":51,"Duration":124285,"SoundDuration":124285,"Delta":118257237},{"NoteNumber":76,"Velocity":53,"Duration":124285,"SoundDuration":124285,"Delta":118381522},{"NoteNumber":74,"Velocity":51,"Duration":124285,"SoundDuration":124285,"Delta":118505807},{"NoteNumber":79,"Velocity":55,"Duration":128545,"SoundDuration":128545,"Delta":118630093},{"NoteNumber":67,"Velocity":34,"Duration":128545,"SoundDuration":128545,"Delta":118630093},{"NoteNumber":71,"Velocity":40,"Duration":128545,"SoundDuration":128545,"Delta":118630093},{"NoteNumber":79,"Velocity":50,"Duration":134904,"SoundDuration":134904,"Delta":118887184},{"NoteNumber":71,"Velocity":36,"Duration":134904,"SoundDuration":134904,"Delta":118887184},{"NoteNumber":67,"Velocity":30,"Duration":134904,"SoundDuration":134904,"Delta":118887184},{"NoteNumber":81,"Velocity":55,"Duration":124285,"SoundDuration":124285,"Delta":119156993},{"NoteNumber":67,"Velocity":34,"Duration":124285,"SoundDuration":124285,"Delta":119156993},{"NoteNumber":71,"Velocity":40,"Duration":124285,"SoundDuration":124285,"Delta":119156993},{"NoteNumber":79,"Velocity":50,"Duration":124285,"SoundDuration":124285,"Delta":119281278},{"NoteNumber":78,"Velocity":51,"Duration":124285,"SoundDuration":124285,"Delta":119405563},{"NoteNumber":71,"Velocity":35,"Duration":124285,"SoundDuration":124285,"Delta":119405563},{"NoteNumber":67,"Velocity":29,"Duration":124285,"SoundDuration":124285,"Delta":119405563},{"NoteNumber":79,"Velocity":47,"Duration":124285,"SoundDuration":124285,"Delta":119529848},{"NoteNumber":81,"Velocity":55,"Duration":514183,"SoundDuration":514183,"Delta":119654134},{"NoteNumber":62,"Velocity":34,"Duration":128545,"SoundDuration":128545,"Delta":119654134},{"NoteNumber":69,"Velocity":40,"Duration":128545,"SoundDuration":128545,"Delta":119654134},{"NoteNumber":69,"Velocity":35,"Duration":128545,"SoundDuration":128545,"Delta":119911225},{"NoteNumber":62,"Velocity":29,"Duration":128545,"SoundDuration":128545,"Delta":119911225},{"NoteNumber":81,"Velocity":48,"Duration":124285,"SoundDuration":124285,"Delta":120168317},{"NoteNumber":83,"Velocity":54,"Duration":124285,"SoundDuration":124285,"Delta":120292602},{"NoteNumber":84,"Velocity":58,"Duration":124285,"SoundDuration":124285,"Delta":120416887},{"NoteNumber":86,"Velocity":62,"Duration":124285,"SoundDuration":124285,"Delta":120541172},{"NoteNumber":88,"Velocity":65,"Duration":516396,"SoundDuration":516396,"Delta":120665458},{"NoteNumber":66,"Velocity":34,"Duration":129098,"SoundDuration":129098,"Delta":120665458},{"NoteNumber":72,"Velocity":40,"Duration":129098,"SoundDuration":129098,"Delta":120665458},{"NoteNumber":72,"Velocity":34,"Duration":129099,"SoundDuration":129099,"Delta":120923656},{"NoteNumber":66,"Velocity":28,"Duration":129099,"SoundDuration":129099,"Delta":120923656},{"NoteNumber":86,"Velocity":55,"Duration":124802,"SoundDuration":124802,"Delta":121181854},{"NoteNumber":84,"Velocity":51,"Duration":124802,"SoundDuration":124802,"Delta":121306656},{"NoteNumber":83,"Velocity":51,"Duration":124802,"SoundDuration":124802,"Delta":121431459},{"NoteNumber":81,"Velocity":51,"Duration":124802,"SoundDuration":124802,"Delta":121556261},{"NoteNumber":86,"Velocity":58,"Duration":92069,"SoundDuration":92069,"Delta":121681064},{"NoteNumber":67,"Velocity":34,"Duration":122759,"SoundDuration":122759,"Delta":121681064},{"NoteNumber":71,"Velocity":40,"Duration":122759,"SoundDuration":122759,"Delta":121681064},{"NoteNumber":86,"Velocity":54,"Duration":100276,"SoundDuration":100276,"Delta":121926583},{"NoteNumber":84,"Velocity":55,"Duration":124285,"SoundDuration":124285,"Delta":122193987},{"NoteNumber":67,"Velocity":28,"Duration":124285,"SoundDuration":124285,"Delta":122193987},{"NoteNumber":71,"Velocity":34,"Duration":124285,"SoundDuration":124285,"Delta":122193987},{"NoteNumber":83,"Velocity":51,"Duration":124285,"SoundDuration":124285,"Delta":122318272},{"NoteNumber":81,"Velocity":53,"Duration":124285,"SoundDuration":124285,"Delta":122442557},{"NoteNumber":79,"Velocity":51,"Duration":124285,"SoundDuration":124285,"Delta":122566842},{"NoteNumber":84,"Velocity":55,"Duration":93213,"SoundDuration":93213,"Delta":122691128},{"NoteNumber":62,"Velocity":34,"Duration":124285,"SoundDuration":124285,"Delta":122691128},{"NoteNumber":69,"Velocity":40,"Duration":124285,"SoundDuration":124285,"Delta":122691128},{"NoteNumber":84,"Velocity":50,"Duration":95590,"SoundDuration":95590,"Delta":122939698},{"NoteNumber":83,"Velocity":55,"Duration":124285,"SoundDuration":124285,"Delta":123194605},{"NoteNumber":62,"Velocity":34,"Duration":124285,"SoundDuration":124285,"Delta":123194605},{"NoteNumber":69,"Velocity":40,"Duration":124285,"SoundDuration":124285,"Delta":123194605},{"NoteNumber":81,"Velocity":50,"Duration":124285,"SoundDuration":124285,"Delta":123318890},{"NoteNumber":79,"Velocity":51,"Duration":131360,"SoundDuration":131360,"Delta":123443176},{"NoteNumber":78,"Velocity":47,"Duration":147507,"SoundDuration":147507,"Delta":123574536},{"NoteNumber":79,"Velocity":55,"Duration":278577,"SoundDuration":278577,"Delta":123722043},{"NoteNumber":59,"Velocity":34,"Duration":139288,"SoundDuration":139288,"Delta":123722043},{"NoteNumber":67,"Velocity":40,"Duration":139288,"SoundDuration":139288,"Delta":123722043},{"NoteNumber":67,"Velocity":60,"Duration":124285,"SoundDuration":124285,"Delta":124279198},{"NoteNumber":69,"Velocity":67,"Duration":124285,"SoundDuration":124285,"Delta":124403483},{"NoteNumber":71,"Velocity":70,"Duration":124285,"SoundDuration":124285,"Delta":124527768},{"NoteNumber":72,"Velocity":76,"Duration":124285,"SoundDuration":124285,"Delta":124652054},{"NoteNumber":74,"Velocity":80,"Duration":516396,"SoundDuration":516396,"Delta":124776339},{"NoteNumber":55,"Velocity":42,"Duration":129098,"SoundDuration":129098,"Delta":124776339},{"NoteNumber":59,"Velocity":50,"Duration":129098,"SoundDuration":129098,"Delta":124776339},{"NoteNumber":59,"Velocity":42,"Duration":129099,"SoundDuration":129099,"Delta":125034537},{"NoteNumber":55,"Velocity":35,"Duration":129099,"SoundDuration":129099,"Delta":125034537},{"NoteNumber":72,"Velocity":68,"Duration":124802,"SoundDuration":124802,"Delta":125292735},{"NoteNumber":71,"Velocity":63,"Duration":124802,"SoundDuration":124802,"Delta":125417537},{"NoteNumber":69,"Velocity":63,"Duration":124802,"SoundDuration":124802,"Delta":125542340},{"NoteNumber":67,"Velocity":63,"Duration":124802,"SoundDuration":124802,"Delta":125667142},{"NoteNumber":66,"Velocity":72,"Duration":516396,"SoundDuration":516396,"Delta":125791945},{"NoteNumber":57,"Velocity":42,"Duration":129098,"SoundDuration":129098,"Delta":125791945},{"NoteNumber":60,"Velocity":50,"Duration":129098,"SoundDuration":129098,"Delta":125791945},{"NoteNumber":60,"Velocity":42,"Duration":129099,"SoundDuration":129099,"Delta":126050143},{"NoteNumber":57,"Velocity":35,"Duration":129099,"SoundDuration":129099,"Delta":126050143},{"NoteNumber":67,"Velocity":68,"Duration":124285,"SoundDuration":124285,"Delta":126308341},{"NoteNumber":66,"Velocity":63,"Duration":124285,"SoundDuration":124285,"Delta":126432626},{"NoteNumber":64,"Velocity":66,"Duration":124285,"SoundDuration":124285,"Delta":126556911},{"NoteNumber":62,"Velocity":63,"Duration":124285,"SoundDuration":124285,"Delta":126681197},{"NoteNumber":67,"Velocity":68,"Duration":128545,"SoundDuration":128545,"Delta":126805482},{"NoteNumber":55,"Velocity":42,"Duration":128545,"SoundDuration":128545,"Delta":126805482},{"NoteNumber":59,"Velocity":50,"Duration":128545,"SoundDuration":128545,"Delta":126805482},{"NoteNumber":67,"Velocity":62,"Duration":134904,"SoundDuration":134904,"Delta":127062573},{"NoteNumber":59,"Velocity":45,"Duration":134904,"SoundDuration":134904,"Delta":127062573},{"NoteNumber":55,"Velocity":37,"Duration":134904,"SoundDuration":134904,"Delta":127062573},{"NoteNumber":69,"Velocity":68,"Duration":124285,"SoundDuration":124285,"Delta":127332382},{"NoteNumber":55,"Velocity":42,"Duration":124285,"SoundDuration":124285,"Delta":127332382},{"NoteNumber":59,"Velocity":50,"Duration":124285,"SoundDuration":124285,"Delta":127332382},{"NoteNumber":67,"Velocity":62,"Duration":124285,"SoundDuration":124285,"Delta":127456667},{"NoteNumber":66,"Velocity":63,"Duration":124285,"SoundDuration":124285,"Delta":127580952},{"NoteNumber":59,"Velocity":43,"Duration":124285,"SoundDuration":124285,"Delta":127580952},{"NoteNumber":55,"Velocity":36,"Duration":124285,"SoundDuration":124285,"Delta":127580952},{"NoteNumber":67,"Velocity":58,"Duration":124285,"SoundDuration":124285,"Delta":127705238},{"NoteNumber":69,"Velocity":68,"Duration":514183,"SoundDuration":514183,"Delta":127829523},{"NoteNumber":50,"Velocity":42,"Duration":128545,"SoundDuration":128545,"Delta":127829523},{"NoteNumber":57,"Velocity":50,"Duration":128545,"SoundDuration":128545,"Delta":127829523},{"NoteNumber":57,"Velocity":43,"Duration":128545,"SoundDuration":128545,"Delta":128086614},{"NoteNumber":50,"Velocity":36,"Duration":128545,"SoundDuration":128545,"Delta":128086614},{"NoteNumber":69,"Velocity":60,"Duration":124285,"SoundDuration":124285,"Delta":128343706},{"NoteNumber":71,"Velocity":67,"Duration":124285,"SoundDuration":124285,"Delta":128467991},{"NoteNumber":72,"Velocity":70,"Duration":124285,"SoundDuration":124285,"Delta":128592276},{"NoteNumber":74,"Velocity":73,"Duration":124285,"SoundDuration":124285,"Delta":128716562},{"NoteNumber":76,"Velocity":80,"Duration":513141,"SoundDuration":513141,"Delta":128840847},{"NoteNumber":54,"Velocity":42,"Duration":126914,"SoundDuration":126914,"Delta":128840847},{"NoteNumber":60,"Velocity":50,"Duration":126914,"SoundDuration":126914,"Delta":128840847},{"NoteNumber":60,"Velocity":42,"Duration":129656,"SoundDuration":129656,"Delta":129094675},{"NoteNumber":54,"Velocity":35,"Duration":129656,"SoundDuration":129656,"Delta":129094675},{"NoteNumber":74,"Velocity":68,"Duration":124802,"SoundDuration":124802,"Delta":129353989},{"NoteNumber":72,"Velocity":63,"Duration":124802,"SoundDuration":124802,"Delta":129478791},{"NoteNumber":71,"Velocity":63,"Duration":124802,"SoundDuration":124802,"Delta":129603594},{"NoteNumber":69,"Velocity":63,"Duration":124802,"SoundDuration":124802,"Delta":129728396},{"NoteNumber":74,"Velocity":72,"Duration":96824,"SoundDuration":96824,"Delta":129853199},{"NoteNumber":55,"Velocity":42,"Duration":129098,"SoundDuration":129098,"Delta":129853199},{"NoteNumber":59,"Velocity":50,"Duration":129098,"SoundDuration":129098,"Delta":129853199},{"NoteNumber":74,"Velocity":58,"Duration":100276,"SoundDuration":100276,"Delta":130111397},{"NoteNumber":72,"Velocity":68,"Duration":124285,"SoundDuration":124285,"Delta":130378800},{"NoteNumber":55,"Velocity":35,"Duration":124285,"SoundDuration":124285,"Delta":130378800},{"NoteNumber":59,"Velocity":42,"Duration":124285,"SoundDuration":124285,"Delta":130378800},{"NoteNumber":71,"Velocity":63,"Duration":124285,"SoundDuration":124285,"Delta":130503086},{"NoteNumber":69,"Velocity":66,"Duration":124285,"SoundDuration":124285,"Delta":130627371},{"NoteNumber":67,"Velocity":63,"Duration":124285,"SoundDuration":124285,"Delta":130751656},{"NoteNumber":72,"Velocity":68,"Duration":95590,"SoundDuration":95590,"Delta":130875941},{"NoteNumber":50,"Velocity":42,"Duration":127453,"SoundDuration":127453,"Delta":130875941},{"NoteNumber":57,"Velocity":50,"Duration":127453,"SoundDuration":127453,"Delta":130875941},{"NoteNumber":72,"Velocity":57,"Duration":97242,"SoundDuration":97242,"Delta":131130848},{"NoteNumber":71,"Velocity":68,"Duration":124285,"SoundDuration":124285,"Delta":131390162},{"NoteNumber":50,"Velocity":42,"Duration":124285,"SoundDuration":124285,"Delta":131390162},{"NoteNumber":57,"Velocity":50,"Duration":124285,"SoundDuration":124285,"Delta":131390162},{"NoteNumber":69,"Velocity":62,"Duration":124285,"SoundDuration":124285,"Delta":131514447},{"NoteNumber":67,"Velocity":63,"Duration":131360,"SoundDuration":131360,"Delta":131638732},{"NoteNumber":66,"Velocity":58,"Duration":133701,"SoundDuration":133701,"Delta":131770092},{"NoteNumber":67,"Velocity":68,"Duration":94784,"SoundDuration":94784,"Delta":131903794},{"NoteNumber":55,"Velocity":42,"Duration":126379,"SoundDuration":126379,"Delta":131903794},{"NoteNumber":59,"Velocity":50,"Duration":126379,"SoundDuration":126379,"Delta":131903794},{"NoteNumber":67,"Velocity":57,"Duration":106443,"SoundDuration":106443,"Delta":132156554},{"NoteNumber":79,"Velocity":54,"Duration":124802,"SoundDuration":124802,"Delta":132440403},{"NoteNumber":78,"Velocity":41,"Duration":124802,"SoundDuration":124802,"Delta":132565205},{"NoteNumber":79,"Velocity":43,"Duration":124802,"SoundDuration":124802,"Delta":132690008},{"NoteNumber":76,"Velocity":40,"Duration":124802,"SoundDuration":124802,"Delta":132814810},{"NoteNumber":73,"Velocity":48,"Duration":130787,"SoundDuration":130787,"Delta":132939613},{"NoteNumber":64,"Velocity":34,"Duration":523148,"SoundDuration":523148,"Delta":132939613},{"NoteNumber":67,"Velocity":40,"Duration":523148,"SoundDuration":523148,"Delta":132939613},{"NoteNumber":73,"Velocity":43,"Duration":130787,"SoundDuration":130787,"Delta":133201187},{"NoteNumber":74,"Velocity":48,"Duration":124802,"SoundDuration":124802,"Delta":133462762},{"NoteNumber":67,"Velocity":37,"Duration":499210,"SoundDuration":499210,"Delta":133462762},{"NoteNumber":64,"Velocity":31,"Duration":499210,"SoundDuration":499210,"Delta":133462762},{"NoteNumber":73,"Velocity":40,"Duration":124802,"SoundDuration":124802,"Delta":133587564},{"NoteNumber":71,"Velocity":42,"Duration":124802,"SoundDuration":124802,"Delta":133712367},{"NoteNumber":69,"Velocity":40,"Duration":124802,"SoundDuration":124802,"Delta":133837169},{"NoteNumber":74,"Velocity":48,"Duration":130787,"SoundDuration":130787,"Delta":133961972},{"NoteNumber":62,"Velocity":34,"Duration":523148,"SoundDuration":523148,"Delta":133961972},{"NoteNumber":66,"Velocity":40,"Duration":523148,"SoundDuration":523148,"Delta":133961972},{"NoteNumber":74,"Velocity":45,"Duration":130787,"SoundDuration":130787,"Delta":134223546},{"NoteNumber":81,"Velocity":53,"Duration":124802,"SoundDuration":124802,"Delta":134485121},{"NoteNumber":78,"Velocity":41,"Duration":124802,"SoundDuration":124802,"Delta":134609923},{"NoteNumber":81,"Velocity":43,"Duration":124802,"SoundDuration":124802,"Delta":134734726},{"NoteNumber":74,"Velocity":40,"Duration":124802,"SoundDuration":124802,"Delta":134859528},{"NoteNumber":73,"Velocity":48,"Duration":130787,"SoundDuration":130787,"Delta":134984331},{"NoteNumber":64,"Velocity":34,"Duration":523148,"SoundDuration":523148,"Delta":134984331},{"NoteNumber":67,"Velocity":40,"Duration":523148,"SoundDuration":523148,"Delta":134984331},{"NoteNumber":73,"Velocity":43,"Duration":130787,"SoundDuration":130787,"Delta":135245905},{"NoteNumber":74,"Velocity":48,"Duration":124802,"SoundDuration":124802,"Delta":135507480},{"NoteNumber":67,"Velocity":37,"Duration":499210,"SoundDuration":499210,"Delta":135507480},{"NoteNumber":64,"Velocity":31,"Duration":499210,"SoundDuration":499210,"Delta":135507480},{"NoteNumber":73,"Velocity":40,"Duration":124802,"SoundDuration":124802,"Delta":135632282},{"NoteNumber":71,"Velocity":42,"Duration":124802,"SoundDuration":124802,"Delta":135757085},{"NoteNumber":73,"Velocity":40,"Duration":124802,"SoundDuration":124802,"Delta":135881887},{"NoteNumber":74,"Velocity":48,"Duration":261574,"SoundDuration":261574,"Delta":136006690},{"NoteNumber":62,"Velocity":34,"Duration":519275,"SoundDuration":519275,"Delta":136006690},{"NoteNumber":66,"Velocity":40,"Duration":519275,"SoundDuration":519275,"Delta":136006690},{"NoteNumber":76,"Velocity":46,"Duration":130787,"SoundDuration":130787,"Delta":136268264},{"NoteNumber":78,"Velocity":49,"Duration":126914,"SoundDuration":126914,"Delta":136399051},{"NoteNumber":79,"Velocity":56,"Duration":124802,"SoundDuration":124802,"Delta":136525966},{"NoteNumber":78,"Velocity":41,"Duration":124802,"SoundDuration":124802,"Delta":136650768},{"NoteNumber":79,"Velocity":43,"Duration":124802,"SoundDuration":124802,"Delta":136775571},{"NoteNumber":76,"Velocity":40,"Duration":124802,"SoundDuration":124802,"Delta":136900373},{"NoteNumber":73,"Velocity":48,"Duration":130787,"SoundDuration":130787,"Delta":137025176},{"NoteNumber":64,"Velocity":34,"Duration":523148,"SoundDuration":523148,"Delta":137025176},{"NoteNumber":67,"Velocity":40,"Duration":523148,"SoundDuration":523148,"Delta":137025176},{"NoteNumber":73,"Velocity":43,"Duration":130787,"SoundDuration":130787,"Delta":137286750},{"NoteNumber":74,"Velocity":48,"Duration":124802,"SoundDuration":124802,"Delta":137548325},{"NoteNumber":67,"Velocity":37,"Duration":499210,"SoundDuration":499210,"Delta":137548325},{"NoteNumber":64,"Velocity":31,"Duration":499210,"SoundDuration":499210,"Delta":137548325},{"NoteNumber":73,"Velocity":40,"Duration":124802,"SoundDuration":124802,"Delta":137673127},{"NoteNumber":71,"Velocity":42,"Duration":124802,"SoundDuration":124802,"Delta":137797930},{"NoteNumber":73,"Velocity":40,"Duration":124802,"SoundDuration":124802,"Delta":137922732},{"NoteNumber":74,"Velocity":54,"Duration":130077,"SoundDuration":130077,"Delta":138047535},{"NoteNumber":62,"Velocity":34,"Duration":512125,"SoundDuration":512125,"Delta":138047535},{"NoteNumber":66,"Velocity":40,"Duration":512125,"SoundDuration":512125,"Delta":138047535},{"NoteNumber":76,"Velocity":52,"Duration":128189,"SoundDuration":128189,"Delta":138177612},{"NoteNumber":78,"Velocity":54,"Duration":127291,"SoundDuration":127291,"Delta":138305801},{"NoteNumber":79,"Velocity":55,"Duration":126566,"SoundDuration":126566,"Delta":138433093},{"NoteNumber":81,"Velocity":57,"Duration":127165,"SoundDuration":127165,"Delta":138559660},{"NoteNumber":83,"Velocity":60,"Duration":128071,"SoundDuration":128071,"Delta":138686826},{"NoteNumber":85,"Velocity":62,"Duration":129081,"SoundDuration":129081,"Delta":138814897},{"NoteNumber":86,"Velocity":63,"Duration":130107,"SoundDuration":130107,"Delta":138943978},{"NoteNumber":57,"Velocity":51,"Duration":516481,"SoundDuration":516481,"Delta":139074086},{"NoteNumber":64,"Velocity":51,"Duration":516481,"SoundDuration":516481,"Delta":139074086},{"NoteNumber":67,"Velocity":60,"Duration":516481,"SoundDuration":516481,"Delta":139074086},{"NoteNumber":79,"Velocity":58,"Duration":127453,"SoundDuration":127453,"Delta":139335661},{"NoteNumber":76,"Velocity":58,"Duration":127453,"SoundDuration":127453,"Delta":139463114},{"NoteNumber":73,"Velocity":65,"Duration":125849,"SoundDuration":125849,"Delta":139590568},{"NoteNumber":67,"Velocity":57,"Duration":504053,"SoundDuration":504053,"Delta":139590568},{"NoteNumber":64,"Velocity":48,"Duration":504053,"SoundDuration":504053,"Delta":139590568},{"NoteNumber":57,"Velocity":48,"Duration":504053,"SoundDuration":504053,"Delta":139590568},{"NoteNumber":76,"Velocity":58,"Duration":125849,"SoundDuration":125849,"Delta":139716417},{"NoteNumber":73,"Velocity":58,"Duration":125849,"SoundDuration":125849,"Delta":139842267},{"NoteNumber":76,"Velocity":58,"Duration":126505,"SoundDuration":126505,"Delta":139968116},{"NoteNumber":74,"Velocity":68,"Duration":130219,"SoundDuration":130219,"Delta":140094621},{"NoteNumber":62,"Velocity":51,"Duration":1021925,"SoundDuration":1021925,"Delta":140094621},{"NoteNumber":66,"Velocity":60,"Duration":1021925,"SoundDuration":1021925,"Delta":140094621},{"NoteNumber":78,"Velocity":58,"Duration":130219,"SoundDuration":130219,"Delta":140224841},{"NoteNumber":81,"Velocity":58,"Duration":126914,"SoundDuration":126914,"Delta":140355061},{"NoteNumber":78,"Velocity":58,"Duration":126914,"SoundDuration":126914,"Delta":140481975},{"NoteNumber":81,"Velocity":64,"Duration":126914,"SoundDuration":126914,"Delta":140608889},{"NoteNumber":78,"Velocity":58,"Duration":126914,"SoundDuration":126914,"Delta":140735803},{"NoteNumber":81,"Velocity":58,"Duration":126914,"SoundDuration":126914,"Delta":140862718},{"NoteNumber":78,"Velocity":58,"Duration":126914,"SoundDuration":126914,"Delta":140989632},{"NoteNumber":76,"Velocity":68,"Duration":128545,"SoundDuration":128545,"Delta":141116546},{"NoteNumber":62,"Velocity":51,"Duration":1015369,"SoundDuration":1015369,"Delta":141116546},{"NoteNumber":67,"Velocity":60,"Duration":1015369,"SoundDuration":1015369,"Delta":141116546},{"NoteNumber":79,"Velocity":57,"Duration":128545,"SoundDuration":128545,"Delta":141245092},{"NoteNumber":83,"Velocity":57,"Duration":126379,"SoundDuration":126379,"Delta":141373638},{"NoteNumber":79,"Velocity":57,"Duration":126379,"SoundDuration":126379,"Delta":141500017},{"NoteNumber":83,"Velocity":64,"Duration":126379,"SoundDuration":126379,"Delta":141626397},{"NoteNumber":79,"Velocity":57,"Duration":126379,"SoundDuration":126379,"Delta":141752777},{"NoteNumber":83,"Velocity":57,"Duration":126379,"SoundDuration":126379,"Delta":141879157},{"NoteNumber":79,"Velocity":57,"Duration":126379,"SoundDuration":126379,"Delta":142005536},{"NoteNumber":78,"Velocity":65,"Duration":129656,"SoundDuration":129656,"Delta":142131916},{"NoteNumber":62,"Velocity":51,"Duration":1017591,"SoundDuration":1017591,"Delta":142131916},{"NoteNumber":69,"Velocity":60,"Duration":1017591,"SoundDuration":1017591,"Delta":142131916},{"NoteNumber":81,"Velocity":54,"Duration":129656,"SoundDuration":129656,"Delta":142261573},{"NoteNumber":84,"Velocity":54,"Duration":126379,"SoundDuration":126379,"Delta":142391230},{"NoteNumber":81,"Velocity":54,"Duration":126379,"SoundDuration":126379,"Delta":142517609},{"NoteNumber":84,"Velocity":62,"Duration":126379,"SoundDuration":126379,"Delta":142643989},{"NoteNumber":81,"Velocity":53,"Duration":126379,"SoundDuration":126379,"Delta":142770369},{"NoteNumber":84,"Velocity":53,"Duration":126379,"SoundDuration":126379,"Delta":142896749},{"NoteNumber":81,"Velocity":53,"Duration":126379,"SoundDuration":126379,"Delta":143023128},{"NoteNumber":78,"Velocity":55,"Duration":130787,"SoundDuration":130787,"Delta":143149508},{"NoteNumber":81,"Velocity":45,"Duration":130787,"SoundDuration":130787,"Delta":143280295},{"NoteNumber":84,"Velocity":44,"Duration":126914,"SoundDuration":126914,"Delta":143411083},{"NoteNumber":81,"Velocity":43,"Duration":126914,"SoundDuration":126914,"Delta":143537997},{"NoteNumber":78,"Velocity":49,"Duration":130219,"SoundDuration":130219,"Delta":143664911},{"NoteNumber":81,"Velocity":42,"Duration":130219,"SoundDuration":130219,"Delta":143795131},{"NoteNumber":84,"Velocity":41,"Duration":126914,"SoundDuration":126914,"Delta":143925351},{"NoteNumber":81,"Velocity":41,"Duration":126420,"SoundDuration":126420,"Delta":144052265},{"NoteNumber":78,"Velocity":51,"Duration":125307,"SoundDuration":125307,"Delta":144178685},{"NoteNumber":74,"Velocity":42,"Duration":126889,"SoundDuration":126889,"Delta":144303993},{"NoteNumber":76,"Velocity":47,"Duration":128519,"SoundDuration":128519,"Delta":144430882},{"NoteNumber":78,"Velocity":48,"Duration":130193,"SoundDuration":130193,"Delta":144559402},{"NoteNumber":79,"Velocity":50,"Duration":130714,"SoundDuration":130714,"Delta":144689595},{"NoteNumber":81,"Velocity":54,"Duration":128933,"SoundDuration":128933,"Delta":144820310},{"NoteNumber":83,"Velocity":56,"Duration":127482,"SoundDuration":127482,"Delta":144949244},{"NoteNumber":84,"Velocity":61,"Duration":126043,"SoundDuration":126043,"Delta":145076726},{"NoteNumber":86,"Velocity":68,"Duration":516395,"SoundDuration":516395,"Delta":145202770},{"NoteNumber":59,"Velocity":34,"Duration":129098,"SoundDuration":129098,"Delta":145202770},{"NoteNumber":67,"Velocity":40,"Duration":129098,"SoundDuration":129098,"Delta":145202770},{"NoteNumber":67,"Velocity":34,"Duration":129098,"SoundDuration":129098,"Delta":145460968},{"NoteNumber":59,"Velocity":28,"Duration":129098,"SoundDuration":129098,"Delta":145460968},{"NoteNumber":84,"Velocity":55,"Duration":124802,"SoundDuration":124802,"Delta":145719166},{"NoteNumber":83,"Velocity":51,"Duration":124802,"SoundDuration":124802,"Delta":145843968},{"NoteNumber":81,"Velocity":51,"Duration":124802,"SoundDuration":124802,"Delta":145968771},{"NoteNumber":79,"Velocity":51,"Duration":124802,"SoundDuration":124802,"Delta":146093573},{"NoteNumber":78,"Velocity":58,"Duration":516395,"SoundDuration":516395,"Delta":146218376},{"NoteNumber":62,"Velocity":34,"Duration":129098,"SoundDuration":129098,"Delta":146218376},{"NoteNumber":69,"Velocity":40,"Duration":129098,"SoundDuration":129098,"Delta":146218376},{"NoteNumber":69,"Velocity":34,"Duration":129098,"SoundDuration":129098,"Delta":146476574},{"NoteNumber":62,"Velocity":28,"Duration":129098,"SoundDuration":129098,"Delta":146476574},{"NoteNumber":79,"Velocity":55,"Duration":124285,"SoundDuration":124285,"Delta":146734772},{"NoteNumber":78,"Velocity":51,"Duration":124285,"SoundDuration":124285,"Delta":146859057},{"NoteNumber":76,"Velocity":53,"Duration":124285,"SoundDuration":124285,"Delta":146983342},{"NoteNumber":74,"Velocity":51,"Duration":124285,"SoundDuration":124285,"Delta":147107628},{"NoteNumber":79,"Velocity":55,"Duration":128545,"SoundDuration":128545,"Delta":147231913},{"NoteNumber":67,"Velocity":34,"Duration":128545,"SoundDuration":128545,"Delta":147231913},{"NoteNumber":71,"Velocity":40,"Duration":128545,"SoundDuration":128545,"Delta":147231913},{"NoteNumber":79,"Velocity":50,"Duration":134904,"SoundDuration":134904,"Delta":147489004},{"NoteNumber":71,"Velocity":36,"Duration":134904,"SoundDuration":134904,"Delta":147489004},{"NoteNumber":67,"Velocity":30,"Duration":134904,"SoundDuration":134904,"Delta":147489004},{"NoteNumber":81,"Velocity":55,"Duration":124285,"SoundDuration":124285,"Delta":147758813},{"NoteNumber":67,"Velocity":34,"Duration":124285,"SoundDuration":124285,"Delta":147758813},{"NoteNumber":71,"Velocity":40,"Duration":124285,"SoundDuration":124285,"Delta":147758813},{"NoteNumber":79,"Velocity":50,"Duration":124285,"SoundDuration":124285,"Delta":147883098},{"NoteNumber":78,"Velocity":51,"Duration":124285,"SoundDuration":124285,"Delta":148007383},{"NoteNumber":71,"Velocity":35,"Duration":124285,"SoundDuration":124285,"Delta":148007383},{"NoteNumber":67,"Velocity":29,"Duration":124285,"SoundDuration":124285,"Delta":148007383},{"NoteNumber":79,"Velocity":47,"Duration":124285,"SoundDuration":124285,"Delta":148131669},{"NoteNumber":81,"Velocity":55,"Duration":514183,"SoundDuration":514183,"Delta":148255954},{"NoteNumber":62,"Velocity":34,"Duration":128545,"SoundDuration":128545,"Delta":148255954},{"NoteNumber":69,"Velocity":40,"Duration":128545,"SoundDuration":128545,"Delta":148255954},{"NoteNumber":69,"Velocity":35,"Duration":128545,"SoundDuration":128545,"Delta":148513045},{"NoteNumber":62,"Velocity":29,"Duration":128545,"SoundDuration":128545,"Delta":148513045},{"NoteNumber":81,"Velocity":48,"Duration":124285,"SoundDuration":124285,"Delta":148770137},{"NoteNumber":83,"Velocity":54,"Duration":124285,"SoundDuration":124285,"Delta":148894422},{"NoteNumber":84,"Velocity":56,"Duration":124285,"SoundDuration":124285,"Delta":149018707},{"NoteNumber":86,"Velocity":60,"Duration":124285,"SoundDuration":124285,"Delta":149142993},{"NoteNumber":88,"Velocity":65,"Duration":510957,"SoundDuration":510957,"Delta":149267278},{"NoteNumber":66,"Velocity":34,"Duration":126379,"SoundDuration":126379,"Delta":149267278},{"NoteNumber":72,"Velocity":40,"Duration":126379,"SoundDuration":126379,"Delta":149267278},{"NoteNumber":72,"Velocity":34,"Duration":129098,"SoundDuration":129098,"Delta":149520037},{"NoteNumber":66,"Velocity":28,"Duration":129098,"SoundDuration":129098,"Delta":149520037},{"NoteNumber":86,"Velocity":55,"Duration":124802,"SoundDuration":124802,"Delta":149778235},{"NoteNumber":84,"Velocity":51,"Duration":124802,"SoundDuration":124802,"Delta":149903038},{"NoteNumber":83,"Velocity":51,"Duration":124802,"SoundDuration":124802,"Delta":150027840},{"NoteNumber":81,"Velocity":51,"Duration":124802,"SoundDuration":124802,"Delta":150152643},{"NoteNumber":86,"Velocity":58,"Duration":94784,"SoundDuration":94784,"Delta":150277445},{"NoteNumber":67,"Velocity":34,"Duration":126379,"SoundDuration":126379,"Delta":150277445},{"NoteNumber":71,"Velocity":40,"Duration":126379,"SoundDuration":126379,"Delta":150277445},{"NoteNumber":86,"Velocity":58,"Duration":100276,"SoundDuration":100276,"Delta":150530205},{"NoteNumber":84,"Velocity":55,"Duration":124285,"SoundDuration":124285,"Delta":150797608},{"NoteNumber":67,"Velocity":28,"Duration":124285,"SoundDuration":124285,"Delta":150797608},{"NoteNumber":71,"Velocity":34,"Duration":124285,"SoundDuration":124285,"Delta":150797608},{"NoteNumber":83,"Velocity":51,"Duration":124285,"SoundDuration":124285,"Delta":150921894},{"NoteNumber":81,"Velocity":53,"Duration":124285,"SoundDuration":124285,"Delta":151046179},{"NoteNumber":79,"Velocity":51,"Duration":124285,"SoundDuration":124285,"Delta":151170464},{"NoteNumber":84,"Velocity":55,"Duration":94387,"SoundDuration":94387,"Delta":151294749},{"NoteNumber":62,"Velocity":34,"Duration":125849,"SoundDuration":125849,"Delta":151294749},{"NoteNumber":69,"Velocity":40,"Duration":125849,"SoundDuration":125849,"Delta":151294749},{"NoteNumber":84,"Velocity":50,"Duration":96824,"SoundDuration":96824,"Delta":151546448},{"NoteNumber":83,"Velocity":55,"Duration":124285,"SoundDuration":124285,"Delta":151804646},{"NoteNumber":62,"Velocity":34,"Duration":124285,"SoundDuration":124285,"Delta":151804646},{"NoteNumber":69,"Velocity":40,"Duration":124285,"SoundDuration":124285,"Delta":151804646},{"NoteNumber":81,"Velocity":50,"Duration":124285,"SoundDuration":124285,"Delta":151928932},{"NoteNumber":79,"Velocity":51,"Duration":131360,"SoundDuration":131360,"Delta":152053217},{"NoteNumber":78,"Velocity":47,"Duration":147507,"SoundDuration":147507,"Delta":152184577},{"NoteNumber":79,"Velocity":55,"Duration":281188,"SoundDuration":281188,"Delta":152332084},{"NoteNumber":59,"Velocity":34,"Duration":140594,"SoundDuration":140594,"Delta":152332084},{"NoteNumber":67,"Velocity":40,"Duration":140594,"SoundDuration":140594,"Delta":152332084},{"NoteNumber":67,"Velocity":60,"Duration":124285,"SoundDuration":124285,"Delta":152894461},{"NoteNumber":69,"Velocity":67,"Duration":124285,"SoundDuration":124285,"Delta":153018746},{"NoteNumber":71,"Velocity":70,"Duration":124285,"SoundDuration":124285,"Delta":153143032},{"NoteNumber":72,"Velocity":72,"Duration":124285,"SoundDuration":124285,"Delta":153267317},{"NoteNumber":74,"Velocity":76,"Duration":516395,"SoundDuration":516395,"Delta":153391602},{"NoteNumber":43,"Velocity":50,"Duration":258197,"SoundDuration":258197,"Delta":153391602},{"NoteNumber":47,"Velocity":46,"Duration":258197,"SoundDuration":258197,"Delta":153649800},{"NoteNumber":72,"Velocity":68,"Duration":124802,"SoundDuration":124802,"Delta":153907998},{"NoteNumber":50,"Velocity":45,"Duration":249605,"SoundDuration":249605,"Delta":153907998},{"NoteNumber":71,"Velocity":63,"Duration":124802,"SoundDuration":124802,"Delta":154032801},{"NoteNumber":69,"Velocity":63,"Duration":124802,"SoundDuration":124802,"Delta":154157603},{"NoteNumber":55,"Velocity":45,"Duration":249605,"SoundDuration":249605,"Delta":154157603},{"NoteNumber":67,"Velocity":63,"Duration":124802,"SoundDuration":124802,"Delta":154282406},{"NoteNumber":66,"Velocity":72,"Duration":516395,"SoundDuration":516395,"Delta":154407208},{"NoteNumber":45,"Velocity":50,"Duration":258197,"SoundDuration":258197,"Delta":154407208},{"NoteNumber":48,"Velocity":46,"Duration":258197,"SoundDuration":258197,"Delta":154665406},{"NoteNumber":67,"Velocity":68,"Duration":124285,"SoundDuration":124285,"Delta":154923604},{"NoteNumber":50,"Velocity":45,"Duration":248570,"SoundDuration":248570,"Delta":154923604},{"NoteNumber":66,"Velocity":63,"Duration":124285,"SoundDuration":124285,"Delta":155047889},{"NoteNumber":64,"Velocity":66,"Duration":124285,"SoundDuration":124285,"Delta":155172175},{"NoteNumber":54,"Velocity":45,"Duration":248570,"SoundDuration":248570,"Delta":155172175},{"NoteNumber":62,"Velocity":63,"Duration":124285,"SoundDuration":124285,"Delta":155296460},{"NoteNumber":67,"Velocity":68,"Duration":128545,"SoundDuration":128545,"Delta":155420745},{"NoteNumber":43,"Velocity":50,"Duration":257091,"SoundDuration":257091,"Delta":155420745},{"NoteNumber":67,"Velocity":62,"Duration":133108,"SoundDuration":133108,"Delta":155677837},{"NoteNumber":47,"Velocity":46,"Duration":266217,"SoundDuration":266217,"Delta":155677837},{"NoteNumber":69,"Velocity":68,"Duration":124285,"SoundDuration":124285,"Delta":155944054},{"NoteNumber":50,"Velocity":45,"Duration":248570,"SoundDuration":248570,"Delta":155944054},{"NoteNumber":67,"Velocity":62,"Duration":124285,"SoundDuration":124285,"Delta":156068339},{"NoteNumber":66,"Velocity":63,"Duration":124285,"SoundDuration":124285,"Delta":156192624},{"NoteNumber":55,"Velocity":45,"Duration":248570,"SoundDuration":248570,"Delta":156192624},{"NoteNumber":67,"Velocity":58,"Duration":124285,"SoundDuration":124285,"Delta":156316909},{"NoteNumber":69,"Velocity":68,"Duration":514183,"SoundDuration":514183,"Delta":156441195},{"NoteNumber":38,"Velocity":50,"Duration":257091,"SoundDuration":257091,"Delta":156441195},{"NoteNumber":50,"Velocity":46,"Duration":257091,"SoundDuration":257091,"Delta":156698286},{"NoteNumber":69,"Velocity":60,"Duration":124285,"SoundDuration":124285,"Delta":156955378},{"NoteNumber":54,"Velocity":45,"Duration":248408,"SoundDuration":248408,"Delta":156955378},{"NoteNumber":71,"Velocity":67,"Duration":124122,"SoundDuration":124122,"Delta":157079663},{"NoteNumber":72,"Velocity":70,"Duration":123197,"SoundDuration":123197,"Delta":157203786},{"NoteNumber":57,"Velocity":45,"Duration":245391,"SoundDuration":245391,"Delta":157203786},{"NoteNumber":74,"Velocity":73,"Duration":122193,"SoundDuration":122193,"Delta":157326983},{"NoteNumber":76,"Velocity":80,"Duration":512026,"SoundDuration":512026,"Delta":157449177},{"NoteNumber":60,"Velocity":50,"Duration":126914,"SoundDuration":126914,"Delta":157449177},{"NoteNumber":54,"Velocity":42,"Duration":126914,"SoundDuration":126914,"Delta":157449177},{"NoteNumber":54,"Velocity":35,"Duration":129098,"SoundDuration":129098,"Delta":157703006},{"NoteNumber":60,"Velocity":42,"Duration":129098,"SoundDuration":129098,"Delta":157703006},{"NoteNumber":74,"Velocity":68,"Duration":124802,"SoundDuration":124802,"Delta":157961204},{"NoteNumber":72,"Velocity":63,"Duration":123573,"SoundDuration":123573,"Delta":158086006},{"NoteNumber":71,"Velocity":63,"Duration":123071,"SoundDuration":123071,"Delta":158209579},{"NoteNumber":69,"Velocity":63,"Duration":124269,"SoundDuration":124269,"Delta":158332651},{"NoteNumber":74,"Velocity":72,"Duration":94784,"SoundDuration":94784,"Delta":158456920},{"NoteNumber":59,"Velocity":50,"Duration":126379,"SoundDuration":126379,"Delta":158456920},{"NoteNumber":55,"Velocity":42,"Duration":126379,"SoundDuration":126379,"Delta":158456920},{"NoteNumber":74,"Velocity":62,"Duration":100276,"SoundDuration":100276,"Delta":158709680},{"NoteNumber":72,"Velocity":68,"Duration":122645,"SoundDuration":122645,"Delta":158977083},{"NoteNumber":59,"Velocity":42,"Duration":122645,"SoundDuration":122645,"Delta":158977083},{"NoteNumber":55,"Velocity":35,"Duration":122645,"SoundDuration":122645,"Delta":158977083},{"NoteNumber":71,"Velocity":63,"Duration":122409,"SoundDuration":122409,"Delta":159099729},{"NoteNumber":69,"Velocity":66,"Duration":123087,"SoundDuration":123087,"Delta":159222139},{"NoteNumber":67,"Velocity":63,"Duration":124011,"SoundDuration":124011,"Delta":159345226},{"NoteNumber":72,"Velocity":68,"Duration":94387,"SoundDuration":94387,"Delta":159469238},{"NoteNumber":57,"Velocity":50,"Duration":125849,"SoundDuration":125849,"Delta":159469238},{"NoteNumber":50,"Velocity":42,"Duration":125849,"SoundDuration":125849,"Delta":159469238},{"NoteNumber":72,"Velocity":57,"Duration":96824,"SoundDuration":96824,"Delta":159720937},{"NoteNumber":71,"Velocity":68,"Duration":124285,"SoundDuration":124285,"Delta":159979135},{"NoteNumber":50,"Velocity":42,"Duration":124285,"SoundDuration":124285,"Delta":159979135},{"NoteNumber":57,"Velocity":50,"Duration":124285,"SoundDuration":124285,"Delta":159979135},{"NoteNumber":69,"Velocity":62,"Duration":124285,"SoundDuration":124285,"Delta":160103420},{"NoteNumber":67,"Velocity":63,"Duration":131360,"SoundDuration":131360,"Delta":160227706},{"NoteNumber":66,"Velocity":58,"Duration":133701,"SoundDuration":133701,"Delta":160359066},{"NoteNumber":67,"Velocity":68,"Duration":262180,"SoundDuration":262180,"Delta":160492767},{"NoteNumber":43,"Velocity":50,"Duration":262180,"SoundDuration":262180,"Delta":160492767},{"NoteNumber":45,"Velocity":35,"Duration":129294,"SoundDuration":129294,"Delta":160754948},{"NoteNumber":47,"Velocity":37,"Duration":128289,"SoundDuration":128289,"Delta":160884242},{"NoteNumber":48,"Velocity":39,"Duration":127382,"SoundDuration":127382,"Delta":161012532},{"NoteNumber":50,"Velocity":41,"Duration":126408,"SoundDuration":126408,"Delta":161139915},{"NoteNumber":52,"Velocity":45,"Duration":127136,"SoundDuration":127136,"Delta":161266323},{"NoteNumber":54,"Velocity":48,"Duration":130376,"SoundDuration":130376,"Delta":161393459},{"NoteNumber":55,"Velocity":54,"Duration":134300,"SoundDuration":134300,"Delta":161523836},{"NoteNumber":76,"Velocity":46,"Duration":97664,"SoundDuration":97664,"Delta":161792436},{"NoteNumber":72,"Velocity":39,"Duration":97664,"SoundDuration":97664,"Delta":161792436},{"NoteNumber":71,"Velocity":45,"Duration":98520,"SoundDuration":98520,"Delta":162052876},{"NoteNumber":74,"Velocity":53,"Duration":98520,"SoundDuration":98520,"Delta":162052876},{"NoteNumber":76,"Velocity":49,"Duration":102561,"SoundDuration":102561,"Delta":162315596},{"NoteNumber":72,"Velocity":41,"Duration":102561,"SoundDuration":102561,"Delta":162315596},{"NoteNumber":71,"Velocity":45,"Duration":131360,"SoundDuration":131360,"Delta":162589094},{"NoteNumber":74,"Velocity":54,"Duration":131360,"SoundDuration":131360,"Delta":162589094},{"NoteNumber":43,"Velocity":46,"Duration":261610,"SoundDuration":261610,"Delta":162589094},{"NoteNumber":45,"Velocity":35,"Duration":128574,"SoundDuration":128574,"Delta":162850704},{"NoteNumber":47,"Velocity":37,"Duration":127212,"SoundDuration":127212,"Delta":162979279},{"NoteNumber":48,"Velocity":39,"Duration":125780,"SoundDuration":125780,"Delta":163106492},{"NoteNumber":50,"Velocity":41,"Duration":124545,"SoundDuration":124545,"Delta":163232272},{"NoteNumber":52,"Velocity":45,"Duration":127136,"SoundDuration":127136,"Delta":163356817},{"NoteNumber":54,"Velocity":48,"Duration":130376,"SoundDuration":130376,"Delta":163483953},{"NoteNumber":55,"Velocity":54,"Duration":134300,"SoundDuration":134300,"Delta":163614330},{"NoteNumber":76,"Velocity":50,"Duration":97664,"SoundDuration":97664,"Delta":163882930},{"NoteNumber":72,"Velocity":42,"Duration":97664,"SoundDuration":97664,"Delta":163882930},{"NoteNumber":71,"Velocity":49,"Duration":98090,"SoundDuration":98090,"Delta":164143370},{"NoteNumber":74,"Velocity":58,"Duration":98090,"SoundDuration":98090,"Delta":164143370},{"NoteNumber":76,"Velocity":53,"Duration":101178,"SoundDuration":101178,"Delta":164404944},{"NoteNumber":72,"Velocity":45,"Duration":101178,"SoundDuration":101178,"Delta":164404944},{"NoteNumber":71,"Velocity":49,"Duration":131360,"SoundDuration":131360,"Delta":164674753},{"NoteNumber":74,"Velocity":59,"Duration":131360,"SoundDuration":131360,"Delta":164674753},{"NoteNumber":43,"Velocity":50,"Duration":262180,"SoundDuration":262180,"Delta":164674753},{"NoteNumber":45,"Velocity":40,"Duration":128299,"SoundDuration":128299,"Delta":164936934},{"NoteNumber":47,"Velocity":44,"Duration":127031,"SoundDuration":127031,"Delta":165065233},{"NoteNumber":48,"Velocity":47,"Duration":125780,"SoundDuration":125780,"Delta":165192265},{"NoteNumber":50,"Velocity":51,"Duration":124484,"SoundDuration":124484,"Delta":165318045},{"NoteNumber":52,"Velocity":54,"Duration":127110,"SoundDuration":127110,"Delta":165442529},{"NoteNumber":54,"Velocity":56,"Duration":130376,"SoundDuration":130376,"Delta":165569640},{"NoteNumber":55,"Velocity":60,"Duration":134300,"SoundDuration":134300,"Delta":165700016},{"NoteNumber":67,"Velocity":56,"Duration":130787,"SoundDuration":130787,"Delta":165968616},{"NoteNumber":76,"Velocity":64,"Duration":130787,"SoundDuration":130787,"Delta":165968616},{"NoteNumber":60,"Velocity":52,"Duration":130787,"SoundDuration":130787,"Delta":165968616},{"NoteNumber":74,"Velocity":74,"Duration":129098,"SoundDuration":129098,"Delta":166230191},{"NoteNumber":67,"Velocity":65,"Duration":129098,"SoundDuration":129098,"Delta":166230191},{"NoteNumber":59,"Velocity":57,"Duration":129098,"SoundDuration":129098,"Delta":166230191},{"NoteNumber":67,"Velocity":57,"Duration":133108,"SoundDuration":133108,"Delta":166488389},{"NoteNumber":76,"Velocity":65,"Duration":133108,"SoundDuration":133108,"Delta":166488389},{"NoteNumber":60,"Velocity":54,"Duration":133108,"SoundDuration":133108,"Delta":166488389},{"NoteNumber":74,"Velocity":74,"Duration":129656,"SoundDuration":129656,"Delta":166754606},{"NoteNumber":67,"Velocity":65,"Duration":129656,"SoundDuration":129656,"Delta":166754606},{"NoteNumber":59,"Velocity":57,"Duration":129656,"SoundDuration":129656,"Delta":166754606},{"NoteNumber":67,"Velocity":55,"Duration":129656,"SoundDuration":129656,"Delta":167013919},{"NoteNumber":74,"Velocity":63,"Duration":129656,"SoundDuration":129656,"Delta":167013919},{"NoteNumber":59,"Velocity":49,"Duration":129656,"SoundDuration":129656,"Delta":167013919},{"NoteNumber":72,"Velocity":72,"Duration":129656,"SoundDuration":129656,"Delta":167273233},{"NoteNumber":69,"Velocity":63,"Duration":129656,"SoundDuration":129656,"Delta":167273233},{"NoteNumber":60,"Velocity":54,"Duration":129656,"SoundDuration":129656,"Delta":167273233},{"NoteNumber":72,"Velocity":62,"Duration":134300,"SoundDuration":134300,"Delta":167532546},{"NoteNumber":69,"Velocity":54,"Duration":134300,"SoundDuration":134300,"Delta":167532546},{"NoteNumber":60,"Velocity":50,"Duration":134300,"SoundDuration":134300,"Delta":167532546},{"NoteNumber":71,"Velocity":71,"Duration":129656,"SoundDuration":129656,"Delta":167801147},{"NoteNumber":67,"Velocity":62,"Duration":129656,"SoundDuration":129656,"Delta":167801147},{"NoteNumber":62,"Velocity":50,"Duration":129656,"SoundDuration":129656,"Delta":167801147},{"NoteNumber":71,"Velocity":60,"Duration":129656,"SoundDuration":129656,"Delta":168060460},{"NoteNumber":67,"Velocity":53,"Duration":129656,"SoundDuration":129656,"Delta":168060460},{"NoteNumber":62,"Velocity":48,"Duration":129656,"SoundDuration":129656,"Delta":168060460},{"NoteNumber":69,"Velocity":71,"Duration":138644,"SoundDuration":138644,"Delta":168319774},{"NoteNumber":66,"Velocity":62,"Duration":138644,"SoundDuration":138644,"Delta":168319774},{"NoteNumber":50,"Velocity":54,"Duration":138644,"SoundDuration":138644,"Delta":168319774},{"NoteNumber":69,"Velocity":58,"Duration":147507,"SoundDuration":147507,"Delta":168597064},{"NoteNumber":66,"Velocity":51,"Duration":147507,"SoundDuration":147507,"Delta":168597064},{"NoteNumber":50,"Velocity":48,"Duration":147507,"SoundDuration":147507,"Delta":168597064},{"NoteNumber":67,"Velocity":71,"Duration":134300,"SoundDuration":134300,"Delta":168892078},{"NoteNumber":55,"Velocity":54,"Duration":134300,"SoundDuration":134300,"Delta":168892078},{"NoteNumber":86,"Velocity":48,"Duration":121182,"SoundDuration":121182,"Delta":169429279},{"NoteNumber":84,"Velocity":54,"Duration":121739,"SoundDuration":121739,"Delta":169550462},{"NoteNumber":83,"Velocity":56,"Duration":123240,"SoundDuration":123240,"Delta":169672202},{"NoteNumber":81,"Velocity":58,"Duration":124777,"SoundDuration":124777,"Delta":169795442},{"NoteNumber":79,"Velocity":61,"Duration":129098,"SoundDuration":129098,"Delta":169920220},{"NoteNumber":79,"Velocity":53,"Duration":129098,"SoundDuration":129098,"Delta":170178418},{"NoteNumber":74,"Velocity":58,"Duration":136749,"SoundDuration":136749,"Delta":170436616},{"NoteNumber":62,"Velocity":25,"Duration":558695,"SoundDuration":558695,"Delta":170436616},{"NoteNumber":69,"Velocity":34,"Duration":558695,"SoundDuration":558695,"Delta":170436616},{"NoteNumber":74,"Velocity":49,"Duration":142598,"SoundDuration":142598,"Delta":170710114},{"NoteNumber":71,"Velocity":58,"Duration":129098,"SoundDuration":129098,"Delta":170995312},{"NoteNumber":67,"Velocity":40,"Duration":129098,"SoundDuration":129098,"Delta":170995312},{"NoteNumber":86,"Velocity":48,"Duration":120161,"SoundDuration":120161,"Delta":171511708},{"NoteNumber":84,"Velocity":54,"Duration":120679,"SoundDuration":120679,"Delta":171631870},{"NoteNumber":83,"Velocity":56,"Duration":122394,"SoundDuration":122394,"Delta":171752549},{"NoteNumber":81,"Velocity":58,"Duration":124090,"SoundDuration":124090,"Delta":171874944},{"NoteNumber":79,"Velocity":61,"Duration":129098,"SoundDuration":129098,"Delta":171999035},{"NoteNumber":79,"Velocity":53,"Duration":129098,"SoundDuration":129098,"Delta":172257233},{"NoteNumber":74,"Velocity":58,"Duration":136749,"SoundDuration":136749,"Delta":172515431},{"NoteNumber":62,"Velocity":25,"Duration":562822,"SoundDuration":562822,"Delta":172515431},{"NoteNumber":69,"Velocity":34,"Duration":562822,"SoundDuration":562822,"Delta":172515431},{"NoteNumber":74,"Velocity":49,"Duration":144662,"SoundDuration":144662,"Delta":172788929},{"NoteNumber":71,"Velocity":58,"Duration":129098,"SoundDuration":129098,"Delta":173078253},{"NoteNumber":67,"Velocity":40,"Duration":129098,"SoundDuration":129098,"Delta":173078253},{"NoteNumber":78,"Velocity":88,"Duration":140594,"SoundDuration":140594,"Delta":173594649},{"NoteNumber":72,"Velocity":73,"Duration":140594,"SoundDuration":140594,"Delta":173594649},{"NoteNumber":69,"Velocity":73,"Duration":140594,"SoundDuration":140594,"Delta":173594649},{"NoteNumber":50,"Velocity":42,"Duration":140594,"SoundDuration":140594,"Delta":173594649},{"NoteNumber":62,"Velocity":50,"Duration":140594,"SoundDuration":140594,"Delta":173594649},{"NoteNumber":79,"Velocity":95,"Duration":136128,"SoundDuration":136128,"Delta":174157026},{"NoteNumber":74,"Velocity":80,"Duration":136128,"SoundDuration":136128,"Delta":174157026},{"NoteNumber":71,"Velocity":80,"Duration":136128,"SoundDuration":136128,"Delta":174157026},{"NoteNumber":59,"Velocity":56,"Duration":136128,"SoundDuration":136128,"Delta":174157026},{"NoteNumber":55,"Velocity":47,"Duration":136128,"SoundDuration":136128,"Delta":174157026},{"NoteNumber":78,"Velocity":88,"Duration":144662,"SoundDuration":144662,"Delta":174701540},{"NoteNumber":74,"Velocity":73,"Duration":144662,"SoundDuration":144662,"Delta":174701540},{"NoteNumber":69,"Velocity":73,"Duration":144662,"SoundDuration":144662,"Delta":174701540},{"NoteNumber":50,"Velocity":42,"Duration":144662,"SoundDuration":144662,"Delta":174701540},{"NoteNumber":62,"Velocity":50,"Duration":144662,"SoundDuration":144662,"Delta":174701540},{"NoteNumber":79,"Velocity":99,"Duration":182503,"SoundDuration":182503,"Delta":175280188},{"NoteNumber":74,"Velocity":84,"Duration":182503,"SoundDuration":182503,"Delta":175280188},{"NoteNumber":71,"Velocity":84,"Duration":182503,"SoundDuration":182503,"Delta":175280188},{"NoteNumber":59,"Velocity":57,"Duration":182503,"SoundDuration":182503,"Delta":175280188},{"NoteNumber":55,"Velocity":48,"Duration":182503,"SoundDuration":182503,"Delta":175280188}],"license":{"name":"Creative Commons Attribution-ShareAlike 3.0 Germany","url":"http://creativecommons.org/licenses/by-sa/3.0/de/deed.en","text":"The MIDI, audio (MP3, OGG) and video files of Bernd Krueger are licensed under the cc-by-sa Germany License. This means that you can use and adapt the files, as long as you attribute the copyright holder.\n\nName: Bernd Krueger\nSource: http://www.piano-midi.de\n\nThe distribution or public playback of the files is only allowed under identical license conditions.\n\nThe scores are open source.","attribution":"MIDI files by Bernd Krueger (piano-midi.de)"}}