{"title":"Rondo","artist":"Piano","durationMs":135842,"midiSha256":"982e1c4161e7b19928470751f6d0329e7e1b60cff8095c10331ccfe943922ca8","midiObject":[{"NoteNumber":69,"Velocity":50,"Duration":128194,"SoundDuration":128194,"Delta":0},{"NoteNumber":66,"Velocity":42,"Duration":128194,"SoundDuration":128194,"Delta":0},{"NoteNumber":69,"Velocity":47,"Duration":128194,"SoundDuration":128194,"Delta":256388},{"NoteNumber":66,"Velocity":39,"Duration":128194,"SoundDuration":128194,"Delta":256388},{"NoteNumber":66,"Velocity":39,"Duration":135037,"SoundDuration":135037,"Delta":512777},{"NoteNumber":69,"Velocity":47,"Duration":135037,"SoundDuration":135037,"Delta":512777},{"NoteNumber":71,"Velocity":58,"Duration":503482,"SoundDuration":503482,"Delta":782852},{"NoteNumber":67,"Velocity":49,"Duration":503482,"SoundDuration":503482,"Delta":782852},{"NoteNumber":50,"Velocity":40,"Duration":125870,"SoundDuration":125870,"Delta":782852},{"NoteNumber":50,"Velocity":37,"Duration":125870,"SoundDuration":125870,"Delta":1034593},{"NoteNumber":69,"Velocity":46,"Duration":257576,"SoundDuration":257576,"Delta":1286334},{"NoteNumber":66,"Velocity":39,"Duration":257576,"SoundDuration":257576,"Delta":1286334},{"NoteNumber":50,"Velocity":37,"Duration":128788,"SoundDuration":128788,"Delta":1286334},{"NoteNumber":74,"Velocity":50,"Duration":251741,"SoundDuration":251741,"Delta":1543911},{"NoteNumber":69,"Velocity":48,"Duration":251741,"SoundDuration":251741,"Delta":1795652},{"NoteNumber":66,"Velocity":48,"Duration":251741,"SoundDuration":251741,"Delta":2047393},{"NoteNumber":69,"Velocity":50,"Duration":251741,"SoundDuration":251741,"Delta":2299134},{"NoteNumber":64,"Velocity":50,"Duration":503482,"SoundDuration":503482,"Delta":2299134},{"NoteNumber":50,"Velocity":40,"Duration":125870,"SoundDuration":125870,"Delta":2299134},{"NoteNumber":67,"Velocity":47,"Duration":251741,"SoundDuration":251741,"Delta":2550875},{"NoteNumber":50,"Velocity":36,"Duration":125870,"SoundDuration":125870,"Delta":2550875},{"NoteNumber":62,"Velocity":39,"Duration":258776,"SoundDuration":258776,"Delta":2802616},{"NoteNumber":66,"Velocity":47,"Duration":258776,"SoundDuration":258776,"Delta":2802616},{"NoteNumber":50,"Velocity":36,"Duration":129388,"SoundDuration":129388,"Delta":2802616},{"NoteNumber":74,"Velocity":42,"Duration":251740,"SoundDuration":251740,"Delta":3061393},{"NoteNumber":78,"Velocity":50,"Duration":251740,"SoundDuration":251740,"Delta":3061393},{"NoteNumber":79,"Velocity":50,"Duration":250605,"SoundDuration":250605,"Delta":3313134},{"NoteNumber":76,"Velocity":42,"Duration":250605,"SoundDuration":250605,"Delta":3313134},{"NoteNumber":81,"Velocity":55,"Duration":250605,"SoundDuration":250605,"Delta":3563739},{"NoteNumber":78,"Velocity":46,"Duration":250605,"SoundDuration":250605,"Delta":3563739},{"NoteNumber":81,"Velocity":57,"Duration":250605,"SoundDuration":250605,"Delta":3814345},{"NoteNumber":78,"Velocity":48,"Duration":250605,"SoundDuration":250605,"Delta":3814345},{"NoteNumber":67,"Velocity":40,"Duration":187954,"SoundDuration":187954,"Delta":3814345},{"NoteNumber":76,"Velocity":45,"Duration":187954,"SoundDuration":187954,"Delta":4064951},{"NoteNumber":79,"Velocity":53,"Duration":187954,"SoundDuration":187954,"Delta":4064951},{"NoteNumber":67,"Velocity":40,"Duration":125302,"SoundDuration":125302,"Delta":4064951},{"NoteNumber":76,"Velocity":40,"Duration":125302,"SoundDuration":125302,"Delta":4315556},{"NoteNumber":79,"Velocity":48,"Duration":125302,"SoundDuration":125302,"Delta":4315556},{"NoteNumber":67,"Velocity":42,"Duration":125302,"SoundDuration":125302,"Delta":4315556},{"NoteNumber":78,"Velocity":50,"Duration":250605,"SoundDuration":250605,"Delta":4569053},{"NoteNumber":74,"Velocity":42,"Duration":250605,"SoundDuration":250605,"Delta":4569053},{"NoteNumber":68,"Velocity":44,"Duration":187954,"SoundDuration":187954,"Delta":4569053},{"NoteNumber":76,"Velocity":47,"Duration":250605,"SoundDuration":250605,"Delta":4819658},{"NoteNumber":73,"Velocity":39,"Duration":250605,"SoundDuration":250605,"Delta":4819658},{"NoteNumber":68,"Velocity":45,"Duration":125302,"SoundDuration":125302,"Delta":4819658},{"NoteNumber":78,"Velocity":47,"Duration":133737,"SoundDuration":133737,"Delta":5070264},{"NoteNumber":74,"Velocity":39,"Duration":133737,"SoundDuration":133737,"Delta":5070264},{"NoteNumber":68,"Velocity":37,"Duration":133737,"SoundDuration":133737,"Delta":5071378},{"NoteNumber":73,"Velocity":39,"Duration":188805,"SoundDuration":188805,"Delta":5337739},{"NoteNumber":76,"Velocity":47,"Duration":188805,"SoundDuration":188805,"Delta":5337739},{"NoteNumber":69,"Velocity":40,"Duration":188805,"SoundDuration":188805,"Delta":5337739},{"NoteNumber":69,"Velocity":38,"Duration":125870,"SoundDuration":125870,"Delta":5589480},{"NoteNumber":69,"Velocity":38,"Duration":135037,"SoundDuration":135037,"Delta":5841221},{"NoteNumber":66,"Velocity":34,"Duration":131222,"SoundDuration":131222,"Delta":6111296},{"NoteNumber":69,"Velocity":40,"Duration":131222,"SoundDuration":131222,"Delta":6111296},{"NoteNumber":66,"Velocity":31,"Duration":131221,"SoundDuration":131221,"Delta":6373740},{"NoteNumber":69,"Velocity":37,"Duration":131221,"SoundDuration":131221,"Delta":6373740},{"NoteNumber":69,"Velocity":37,"Duration":135037,"SoundDuration":135037,"Delta":6636184},{"NoteNumber":66,"Velocity":31,"Duration":135037,"SoundDuration":135037,"Delta":6636184},{"NoteNumber":71,"Velocity":46,"Duration":503482,"SoundDuration":503482,"Delta":6906260},{"NoteNumber":67,"Velocity":39,"Duration":503482,"SoundDuration":503482,"Delta":6906260},{"NoteNumber":50,"Velocity":32,"Duration":125870,"SoundDuration":125870,"Delta":6906260},{"NoteNumber":50,"Velocity":29,"Duration":125870,"SoundDuration":125870,"Delta":7158001},{"NoteNumber":66,"Velocity":30,"Duration":257576,"SoundDuration":257576,"Delta":7409742},{"NoteNumber":69,"Velocity":36,"Duration":257576,"SoundDuration":257576,"Delta":7409742},{"NoteNumber":50,"Velocity":29,"Duration":128788,"SoundDuration":128788,"Delta":7409742},{"NoteNumber":74,"Velocity":40,"Duration":251741,"SoundDuration":251741,"Delta":7667319},{"NoteNumber":69,"Velocity":38,"Duration":251740,"SoundDuration":251740,"Delta":7919060},{"NoteNumber":66,"Velocity":38,"Duration":251740,"SoundDuration":251740,"Delta":8170801},{"NoteNumber":69,"Velocity":40,"Duration":252886,"SoundDuration":252886,"Delta":8422542},{"NoteNumber":64,"Velocity":34,"Duration":505774,"SoundDuration":505774,"Delta":8422542},{"NoteNumber":50,"Velocity":32,"Duration":126443,"SoundDuration":126443,"Delta":8422542},{"NoteNumber":67,"Velocity":37,"Duration":252887,"SoundDuration":252887,"Delta":8675429},{"NoteNumber":50,"Velocity":28,"Duration":126443,"SoundDuration":126443,"Delta":8675429},{"NoteNumber":66,"Velocity":37,"Duration":258777,"SoundDuration":258777,"Delta":8928316},{"NoteNumber":62,"Velocity":31,"Duration":258777,"SoundDuration":258777,"Delta":8928316},{"NoteNumber":50,"Velocity":28,"Duration":129388,"SoundDuration":129388,"Delta":8928316},{"NoteNumber":81,"Velocity":46,"Duration":124863,"SoundDuration":124863,"Delta":9187093},{"NoteNumber":79,"Velocity":43,"Duration":124786,"SoundDuration":124786,"Delta":9311957},{"NoteNumber":78,"Velocity":43,"Duration":125567,"SoundDuration":125567,"Delta":9436743},{"NoteNumber":76,"Velocity":42,"Duration":126636,"SoundDuration":126636,"Delta":9562311},{"NoteNumber":74,"Velocity":42,"Duration":127411,"SoundDuration":127411,"Delta":9688947},{"NoteNumber":73,"Velocity":42,"Duration":128511,"SoundDuration":128511,"Delta":9816358},{"NoteNumber":71,"Velocity":40,"Duration":125870,"SoundDuration":125870,"Delta":9944870},{"NoteNumber":67,"Velocity":32,"Duration":125870,"SoundDuration":125870,"Delta":9944870},{"NoteNumber":71,"Velocity":37,"Duration":125870,"SoundDuration":125870,"Delta":10196611},{"NoteNumber":67,"Velocity":29,"Duration":125870,"SoundDuration":125870,"Delta":10196611},{"NoteNumber":71,"Velocity":37,"Duration":129388,"SoundDuration":129388,"Delta":10448352},{"NoteNumber":67,"Velocity":29,"Duration":129388,"SoundDuration":129388,"Delta":10448352},{"NoteNumber":74,"Velocity":32,"Duration":32347,"SoundDuration":32347,"Delta":10674782},{"NoteNumber":73,"Velocity":42,"Duration":125870,"SoundDuration":125870,"Delta":10707129},{"NoteNumber":57,"Velocity":27,"Duration":125870,"SoundDuration":125870,"Delta":10707129},{"NoteNumber":67,"Velocity":32,"Duration":125870,"SoundDuration":125870,"Delta":10707129},{"NoteNumber":64,"Velocity":27,"Duration":125870,"SoundDuration":125870,"Delta":10707129},{"NoteNumber":71,"Velocity":38,"Duration":125870,"SoundDuration":125870,"Delta":10958870},{"NoteNumber":64,"Velocity":24,"Duration":125870,"SoundDuration":125870,"Delta":10958870},{"NoteNumber":57,"Velocity":24,"Duration":125870,"SoundDuration":125870,"Delta":10958870},{"NoteNumber":67,"Velocity":29,"Duration":125870,"SoundDuration":125870,"Delta":10958870},{"NoteNumber":73,"Velocity":38,"Duration":127605,"SoundDuration":127605,"Delta":11210611},{"NoteNumber":57,"Velocity":24,"Duration":127605,"SoundDuration":127605,"Delta":11210611},{"NoteNumber":64,"Velocity":24,"Duration":127605,"SoundDuration":127605,"Delta":11210611},{"NoteNumber":67,"Velocity":29,"Duration":127605,"SoundDuration":127605,"Delta":11210611},{"NoteNumber":74,"Velocity":38,"Duration":125870,"SoundDuration":125870,"Delta":11465821},{"NoteNumber":66,"Velocity":32,"Duration":497925,"SoundDuration":497925,"Delta":11465821},{"NoteNumber":62,"Velocity":32,"Duration":497925,"SoundDuration":497925,"Delta":11465821},{"NoteNumber":78,"Velocity":55,"Duration":123091,"SoundDuration":123091,"Delta":11717562},{"NoteNumber":74,"Velocity":49,"Duration":123091,"SoundDuration":123091,"Delta":11840654},{"NoteNumber":78,"Velocity":59,"Duration":123091,"SoundDuration":123091,"Delta":11963746},{"NoteNumber":74,"Velocity":51,"Duration":137715,"SoundDuration":137715,"Delta":12086838},{"NoteNumber":69,"Velocity":59,"Duration":130605,"SoundDuration":130605,"Delta":12224554},{"NoteNumber":66,"Velocity":50,"Duration":130605,"SoundDuration":130605,"Delta":12485764},{"NoteNumber":69,"Velocity":61,"Duration":130605,"SoundDuration":130605,"Delta":12485764},{"NoteNumber":69,"Velocity":61,"Duration":135037,"SoundDuration":135037,"Delta":12746975},{"NoteNumber":66,"Velocity":50,"Duration":135037,"SoundDuration":135037,"Delta":12746975},{"NoteNumber":71,"Velocity":75,"Duration":503482,"SoundDuration":503482,"Delta":13017050},{"NoteNumber":67,"Velocity":63,"Duration":503482,"SoundDuration":503482,"Delta":13017050},{"NoteNumber":38,"Velocity":52,"Duration":251740,"SoundDuration":251740,"Delta":13017050},{"NoteNumber":50,"Velocity":48,"Duration":125870,"SoundDuration":125870,"Delta":13268791},{"NoteNumber":69,"Velocity":59,"Duration":257576,"SoundDuration":257576,"Delta":13520532},{"NoteNumber":66,"Velocity":50,"Duration":257576,"SoundDuration":257576,"Delta":13520532},{"NoteNumber":50,"Velocity":48,"Duration":128788,"SoundDuration":128788,"Delta":13520532},{"NoteNumber":74,"Velocity":65,"Duration":124182,"SoundDuration":124182,"Delta":13778109},{"NoteNumber":69,"Velocity":49,"Duration":124182,"SoundDuration":124182,"Delta":13902292},{"NoteNumber":74,"Velocity":62,"Duration":124182,"SoundDuration":124182,"Delta":14026474},{"NoteNumber":69,"Velocity":49,"Duration":125743,"SoundDuration":125743,"Delta":14150657},{"NoteNumber":66,"Velocity":62,"Duration":125744,"SoundDuration":125744,"Delta":14276401},{"NoteNumber":64,"Velocity":56,"Duration":509380,"SoundDuration":509380,"Delta":14533390},{"NoteNumber":69,"Velocity":65,"Duration":254690,"SoundDuration":254690,"Delta":14533390},{"NoteNumber":38,"Velocity":52,"Duration":254690,"SoundDuration":254690,"Delta":14533390},{"NoteNumber":67,"Velocity":61,"Duration":254690,"SoundDuration":254690,"Delta":14788080},{"NoteNumber":50,"Velocity":46,"Duration":127345,"SoundDuration":127345,"Delta":14788080},{"NoteNumber":66,"Velocity":61,"Duration":258776,"SoundDuration":258776,"Delta":15042771},{"NoteNumber":62,"Velocity":50,"Duration":258776,"SoundDuration":258776,"Delta":15042771},{"NoteNumber":50,"Velocity":46,"Duration":129388,"SoundDuration":129388,"Delta":15042771},{"NoteNumber":78,"Velocity":65,"Duration":251740,"SoundDuration":251740,"Delta":15301548},{"NoteNumber":74,"Velocity":54,"Duration":251740,"SoundDuration":251740,"Delta":15301548},{"NoteNumber":79,"Velocity":61,"Duration":250605,"SoundDuration":250605,"Delta":15553289},{"NoteNumber":76,"Velocity":51,"Duration":250605,"SoundDuration":250605,"Delta":15553289},{"NoteNumber":78,"Velocity":54,"Duration":250605,"SoundDuration":250605,"Delta":15803894},{"NoteNumber":81,"Velocity":64,"Duration":250605,"SoundDuration":250605,"Delta":15803894},{"NoteNumber":81,"Velocity":70,"Duration":250605,"SoundDuration":250605,"Delta":16054500},{"NoteNumber":78,"Velocity":59,"Duration":250605,"SoundDuration":250605,"Delta":16054500},{"NoteNumber":55,"Velocity":52,"Duration":250605,"SoundDuration":250605,"Delta":16054500},{"NoteNumber":79,"Velocity":62,"Duration":187954,"SoundDuration":187954,"Delta":16305105},{"NoteNumber":76,"Velocity":52,"Duration":187954,"SoundDuration":187954,"Delta":16305105},{"NoteNumber":67,"Velocity":52,"Duration":125302,"SoundDuration":125302,"Delta":16305105},{"NoteNumber":79,"Velocity":62,"Duration":125302,"SoundDuration":125302,"Delta":16555711},{"NoteNumber":76,"Velocity":52,"Duration":125302,"SoundDuration":125302,"Delta":16555711},{"NoteNumber":67,"Velocity":54,"Duration":125302,"SoundDuration":125302,"Delta":16555711},{"NoteNumber":78,"Velocity":65,"Duration":256388,"SoundDuration":256388,"Delta":16813487},{"NoteNumber":74,"Velocity":54,"Duration":256388,"SoundDuration":256388,"Delta":16813487},{"NoteNumber":56,"Velocity":57,"Duration":256388,"SoundDuration":256388,"Delta":16813487},{"NoteNumber":73,"Velocity":50,"Duration":256388,"SoundDuration":256388,"Delta":17069876},{"NoteNumber":76,"Velocity":61,"Duration":256388,"SoundDuration":256388,"Delta":17069876},{"NoteNumber":68,"Velocity":58,"Duration":128194,"SoundDuration":128194,"Delta":17069876},{"NoteNumber":78,"Velocity":61,"Duration":133737,"SoundDuration":133737,"Delta":17326264},{"NoteNumber":74,"Velocity":50,"Duration":133737,"SoundDuration":133737,"Delta":17326264},{"NoteNumber":68,"Velocity":48,"Duration":133737,"SoundDuration":133737,"Delta":17327379},{"NoteNumber":73,"Velocity":50,"Duration":191407,"SoundDuration":191407,"Delta":17593739},{"NoteNumber":76,"Velocity":61,"Duration":191407,"SoundDuration":191407,"Delta":17593739},{"NoteNumber":57,"Velocity":52,"Duration":255210,"SoundDuration":255210,"Delta":17593739},{"NoteNumber":69,"Velocity":49,"Duration":127605,"SoundDuration":127605,"Delta":17848950},{"NoteNumber":69,"Velocity":49,"Duration":135037,"SoundDuration":135037,"Delta":18104160},{"NoteNumber":66,"Velocity":56,"Duration":133108,"SoundDuration":133108,"Delta":18374236},{"NoteNumber":69,"Velocity":67,"Duration":133108,"SoundDuration":133108,"Delta":18374236},{"NoteNumber":69,"Velocity":61,"Duration":133108,"SoundDuration":133108,"Delta":18640453},{"NoteNumber":66,"Velocity":51,"Duration":133108,"SoundDuration":133108,"Delta":18640453},{"NoteNumber":69,"Velocity":61,"Duration":137715,"SoundDuration":137715,"Delta":18906670},{"NoteNumber":66,"Velocity":51,"Duration":137715,"SoundDuration":137715,"Delta":18906670},{"NoteNumber":67,"Velocity":64,"Duration":503481,"SoundDuration":503481,"Delta":19182101},{"NoteNumber":71,"Velocity":77,"Duration":503481,"SoundDuration":503481,"Delta":19182101},{"NoteNumber":38,"Velocity":61,"Duration":125870,"SoundDuration":125870,"Delta":19182101},{"NoteNumber":50,"Velocity":44,"Duration":125870,"SoundDuration":125870,"Delta":19307972},{"NoteNumber":49,"Velocity":49,"Duration":125870,"SoundDuration":125870,"Delta":19433842},{"NoteNumber":50,"Velocity":44,"Duration":125870,"SoundDuration":125870,"Delta":19559713},{"NoteNumber":66,"Velocity":50,"Duration":257577,"SoundDuration":257577,"Delta":19685583},{"NoteNumber":69,"Velocity":60,"Duration":257577,"SoundDuration":257577,"Delta":19685583},{"NoteNumber":49,"Velocity":48,"Duration":128788,"SoundDuration":128788,"Delta":19685583},{"NoteNumber":50,"Velocity":44,"Duration":128788,"SoundDuration":128788,"Delta":19814372},{"NoteNumber":74,"Velocity":67,"Duration":251740,"SoundDuration":251740,"Delta":19943160},{"NoteNumber":38,"Velocity":44,"Duration":125870,"SoundDuration":125870,"Delta":19943160},{"NoteNumber":69,"Velocity":63,"Duration":251741,"SoundDuration":251741,"Delta":20194901},{"NoteNumber":66,"Velocity":63,"Duration":251740,"SoundDuration":251740,"Delta":20446642},{"NoteNumber":64,"Velocity":56,"Duration":505773,"SoundDuration":505773,"Delta":20698383},{"NoteNumber":69,"Velocity":67,"Duration":252887,"SoundDuration":252887,"Delta":20698383},{"NoteNumber":38,"Velocity":56,"Duration":126443,"SoundDuration":126443,"Delta":20698383},{"NoteNumber":50,"Velocity":42,"Duration":126443,"SoundDuration":126443,"Delta":20824827},{"NoteNumber":67,"Velocity":61,"Duration":252886,"SoundDuration":252886,"Delta":20951270},{"NoteNumber":49,"Velocity":42,"Duration":126443,"SoundDuration":126443,"Delta":20951270},{"NoteNumber":50,"Velocity":42,"Duration":126443,"SoundDuration":126443,"Delta":21077714},{"NoteNumber":62,"Velocity":51,"Duration":258776,"SoundDuration":258776,"Delta":21204157},{"NoteNumber":66,"Velocity":61,"Duration":258776,"SoundDuration":258776,"Delta":21204157},{"NoteNumber":49,"Velocity":48,"Duration":129388,"SoundDuration":129388,"Delta":21204157},{"NoteNumber":50,"Velocity":42,"Duration":129388,"SoundDuration":129388,"Delta":21333546},{"NoteNumber":81,"Velocity":65,"Duration":125126,"SoundDuration":125126,"Delta":21462934},{"NoteNumber":38,"Velocity":42,"Duration":125126,"SoundDuration":125126,"Delta":21462934},{"NoteNumber":79,"Velocity":64,"Duration":123934,"SoundDuration":123934,"Delta":21588061},{"NoteNumber":78,"Velocity":61,"Duration":124860,"SoundDuration":124860,"Delta":21711996},{"NoteNumber":76,"Velocity":58,"Duration":125681,"SoundDuration":125681,"Delta":21836857},{"NoteNumber":74,"Velocity":57,"Duration":126559,"SoundDuration":126559,"Delta":21962538},{"NoteNumber":73,"Velocity":57,"Duration":127332,"SoundDuration":127332,"Delta":22089098},{"NoteNumber":71,"Velocity":66,"Duration":127021,"SoundDuration":127021,"Delta":22216431},{"NoteNumber":43,"Velocity":55,"Duration":127021,"SoundDuration":127021,"Delta":22216431},{"NoteNumber":55,"Velocity":27,"Duration":127021,"SoundDuration":127021,"Delta":22343453},{"NoteNumber":71,"Velocity":60,"Duration":127021,"SoundDuration":127021,"Delta":22470475},{"NoteNumber":52,"Velocity":43,"Duration":127021,"SoundDuration":127021,"Delta":22470475},{"NoteNumber":55,"Velocity":30,"Duration":127021,"SoundDuration":127021,"Delta":22597496},{"NoteNumber":71,"Velocity":60,"Duration":130605,"SoundDuration":130605,"Delta":22724518},{"NoteNumber":52,"Velocity":43,"Duration":130605,"SoundDuration":130605,"Delta":22724518},{"NoteNumber":55,"Velocity":27,"Duration":130605,"SoundDuration":130605,"Delta":22855123},{"NoteNumber":74,"Velocity":51,"Duration":32651,"SoundDuration":32651,"Delta":22953077},{"NoteNumber":73,"Velocity":68,"Duration":130605,"SoundDuration":130605,"Delta":22985729},{"NoteNumber":52,"Velocity":53,"Duration":130605,"SoundDuration":130605,"Delta":22985729},{"NoteNumber":45,"Velocity":53,"Duration":130605,"SoundDuration":130605,"Delta":22985729},{"NoteNumber":55,"Velocity":30,"Duration":127605,"SoundDuration":127605,"Delta":23116334},{"NoteNumber":71,"Velocity":62,"Duration":127605,"SoundDuration":127605,"Delta":23243939},{"NoteNumber":45,"Velocity":43,"Duration":127605,"SoundDuration":127605,"Delta":23243939},{"NoteNumber":52,"Velocity":43,"Duration":127605,"SoundDuration":127605,"Delta":23243939},{"NoteNumber":55,"Velocity":34,"Duration":127605,"SoundDuration":127605,"Delta":23371544},{"NoteNumber":73,"Velocity":62,"Duration":127605,"SoundDuration":127605,"Delta":23499150},{"NoteNumber":52,"Velocity":43,"Duration":127605,"SoundDuration":127605,"Delta":23499150},{"NoteNumber":45,"Velocity":43,"Duration":127605,"SoundDuration":127605,"Delta":23499150},{"NoteNumber":55,"Velocity":31,"Duration":127605,"SoundDuration":127605,"Delta":23626755},{"NoteNumber":74,"Velocity":62,"Duration":127605,"SoundDuration":127605,"Delta":23754360},{"NoteNumber":50,"Velocity":47,"Duration":255210,"SoundDuration":255210,"Delta":23754360},{"NoteNumber":54,"Velocity":47,"Duration":255210,"SoundDuration":255210,"Delta":23754360},{"NoteNumber":81,"Velocity":56,"Duration":123091,"SoundDuration":123091,"Delta":24009571},{"NoteNumber":79,"Velocity":55,"Duration":123091,"SoundDuration":123091,"Delta":24132663},{"NoteNumber":78,"Velocity":53,"Duration":123266,"SoundDuration":123266,"Delta":24255755},{"NoteNumber":76,"Velocity":51,"Duration":123671,"SoundDuration":123671,"Delta":24379022},{"NoteNumber":74,"Velocity":50,"Duration":124148,"SoundDuration":124148,"Delta":24502693},{"NoteNumber":73,"Velocity":49,"Duration":124630,"SoundDuration":124630,"Delta":24626842},{"NoteNumber":71,"Velocity":48,"Duration":125115,"SoundDuration":125115,"Delta":24751472},{"NoteNumber":69,"Velocity":44,"Duration":125603,"SoundDuration":125603,"Delta":24876587},{"NoteNumber":67,"Velocity":42,"Duration":126096,"SoundDuration":126096,"Delta":25002191},{"NoteNumber":66,"Velocity":42,"Duration":126736,"SoundDuration":126736,"Delta":25128287},{"NoteNumber":64,"Velocity":46,"Duration":129544,"SoundDuration":129544,"Delta":25255023},{"NoteNumber":62,"Velocity":33,"Duration":129544,"SoundDuration":129544,"Delta":25255023},{"NoteNumber":55,"Velocity":33,"Duration":129544,"SoundDuration":129544,"Delta":25255023},{"NoteNumber":64,"Velocity":45,"Duration":129544,"SoundDuration":129544,"Delta":25514113},{"NoteNumber":62,"Velocity":29,"Duration":129544,"SoundDuration":129544,"Delta":25514113},{"NoteNumber":55,"Velocity":29,"Duration":129544,"SoundDuration":129544,"Delta":25514113},{"NoteNumber":64,"Velocity":45,"Duration":129388,"SoundDuration":129388,"Delta":25773202},{"NoteNumber":62,"Velocity":29,"Duration":129388,"SoundDuration":129388,"Delta":25773202},{"NoteNumber":55,"Velocity":29,"Duration":129388,"SoundDuration":129388,"Delta":25773202},{"NoteNumber":67,"Velocity":39,"Duration":32347,"SoundDuration":32347,"Delta":25967285},{"NoteNumber":69,"Velocity":39,"Duration":32347,"SoundDuration":32347,"Delta":25999632},{"NoteNumber":71,"Velocity":51,"Duration":251740,"SoundDuration":251740,"Delta":26031979},{"NoteNumber":57,"Velocity":27,"Duration":125870,"SoundDuration":125870,"Delta":26031979},{"NoteNumber":61,"Velocity":33,"Duration":125870,"SoundDuration":125870,"Delta":26031979},{"NoteNumber":69,"Velocity":46,"Duration":251741,"SoundDuration":251741,"Delta":26283720},{"NoteNumber":61,"Velocity":29,"Duration":125870,"SoundDuration":125870,"Delta":26283720},{"NoteNumber":57,"Velocity":24,"Duration":125870,"SoundDuration":125870,"Delta":26283720},{"NoteNumber":67,"Velocity":46,"Duration":255210,"SoundDuration":255210,"Delta":26535461},{"NoteNumber":57,"Velocity":24,"Duration":127605,"SoundDuration":127605,"Delta":26535461},{"NoteNumber":61,"Velocity":29,"Duration":127605,"SoundDuration":127605,"Delta":26535461},{"NoteNumber":66,"Velocity":46,"Duration":259089,"SoundDuration":259089,"Delta":26790672},{"NoteNumber":59,"Velocity":26,"Duration":129544,"SoundDuration":129544,"Delta":26790672},{"NoteNumber":62,"Velocity":31,"Duration":129544,"SoundDuration":129544,"Delta":26790672},{"NoteNumber":59,"Velocity":23,"Duration":129544,"SoundDuration":129544,"Delta":27049761},{"NoteNumber":62,"Velocity":28,"Duration":129544,"SoundDuration":129544,"Delta":27049761},{"NoteNumber":62,"Velocity":28,"Duration":129544,"SoundDuration":129544,"Delta":27308851},{"NoteNumber":59,"Velocity":23,"Duration":129544,"SoundDuration":129544,"Delta":27308851},{"NoteNumber":74,"Velocity":50,"Duration":124148,"SoundDuration":124148,"Delta":27567940},{"NoteNumber":62,"Velocity":33,"Duration":124148,"SoundDuration":124148,"Delta":27567940},{"NoteNumber":54,"Velocity":33,"Duration":124148,"SoundDuration":124148,"Delta":27567940},{"NoteNumber":73,"Velocity":49,"Duration":124630,"SoundDuration":124630,"Delta":27692089},{"NoteNumber":71,"Velocity":48,"Duration":125115,"SoundDuration":125115,"Delta":27816719},{"NoteNumber":62,"Velocity":29,"Duration":125115,"SoundDuration":125115,"Delta":27816719},{"NoteNumber":54,"Velocity":29,"Duration":125115,"SoundDuration":125115,"Delta":27816719},{"NoteNumber":69,"Velocity":44,"Duration":125603,"SoundDuration":125603,"Delta":27941834},{"NoteNumber":67,"Velocity":42,"Duration":126096,"SoundDuration":126096,"Delta":28067438},{"NoteNumber":62,"Velocity":29,"Duration":126096,"SoundDuration":126096,"Delta":28067438},{"NoteNumber":54,"Velocity":29,"Duration":126096,"SoundDuration":126096,"Delta":28067438},{"NoteNumber":66,"Velocity":42,"Duration":126736,"SoundDuration":126736,"Delta":28193534},{"NoteNumber":64,"Velocity":46,"Duration":128987,"SoundDuration":128987,"Delta":28320270},{"NoteNumber":62,"Velocity":33,"Duration":128987,"SoundDuration":128987,"Delta":28320270},{"NoteNumber":55,"Velocity":33,"Duration":128987,"SoundDuration":128987,"Delta":28320270},{"NoteNumber":64,"Velocity":45,"Duration":128987,"SoundDuration":128987,"Delta":28578246},{"NoteNumber":62,"Velocity":29,"Duration":128987,"SoundDuration":128987,"Delta":28578246},{"NoteNumber":55,"Velocity":29,"Duration":128987,"SoundDuration":128987,"Delta":28578246},{"NoteNumber":64,"Velocity":45,"Duration":129388,"SoundDuration":129388,"Delta":28836222},{"NoteNumber":55,"Velocity":29,"Duration":129388,"SoundDuration":129388,"Delta":28836222},{"NoteNumber":62,"Velocity":29,"Duration":129388,"SoundDuration":129388,"Delta":28836222},{"NoteNumber":67,"Velocity":39,"Duration":32347,"SoundDuration":32347,"Delta":29030305},{"NoteNumber":69,"Velocity":39,"Duration":32347,"SoundDuration":32347,"Delta":29062652},{"NoteNumber":71,"Velocity":51,"Duration":251740,"SoundDuration":251740,"Delta":29094999},{"NoteNumber":57,"Velocity":27,"Duration":125870,"SoundDuration":125870,"Delta":29094999},{"NoteNumber":61,"Velocity":33,"Duration":125870,"SoundDuration":125870,"Delta":29094999},{"NoteNumber":69,"Velocity":46,"Duration":251740,"SoundDuration":251740,"Delta":29346740},{"NoteNumber":57,"Velocity":24,"Duration":125870,"SoundDuration":125870,"Delta":29346740},{"NoteNumber":61,"Velocity":29,"Duration":125870,"SoundDuration":125870,"Delta":29346740},{"NoteNumber":67,"Velocity":46,"Duration":255210,"SoundDuration":255210,"Delta":29598481},{"NoteNumber":57,"Velocity":24,"Duration":127605,"SoundDuration":127605,"Delta":29598481},{"NoteNumber":61,"Velocity":29,"Duration":127605,"SoundDuration":127605,"Delta":29598481},{"NoteNumber":66,"Velocity":57,"Duration":127605,"SoundDuration":127605,"Delta":29853692},{"NoteNumber":59,"Velocity":38,"Duration":127605,"SoundDuration":127605,"Delta":29853692},{"NoteNumber":62,"Velocity":45,"Duration":127605,"SoundDuration":127605,"Delta":29853692},{"NoteNumber":74,"Velocity":46,"Duration":127605,"SoundDuration":127605,"Delta":29981297},{"NoteNumber":66,"Velocity":56,"Duration":127605,"SoundDuration":127605,"Delta":30108902},{"NoteNumber":59,"Velocity":28,"Duration":127605,"SoundDuration":127605,"Delta":30108902},{"NoteNumber":62,"Velocity":33,"Duration":127605,"SoundDuration":127605,"Delta":30108902},{"NoteNumber":74,"Velocity":46,"Duration":127605,"SoundDuration":127605,"Delta":30236508},{"NoteNumber":66,"Velocity":57,"Duration":130106,"SoundDuration":130106,"Delta":30364113},{"NoteNumber":59,"Velocity":28,"Duration":130106,"SoundDuration":130106,"Delta":30364113},{"NoteNumber":62,"Velocity":33,"Duration":130106,"SoundDuration":130106,"Delta":30364113},{"NoteNumber":74,"Velocity":47,"Duration":130106,"SoundDuration":130106,"Delta":30494220},{"NoteNumber":66,"Velocity":67,"Duration":127345,"SoundDuration":127345,"Delta":30624326},{"NoteNumber":60,"Velocity":48,"Duration":127345,"SoundDuration":127345,"Delta":30624326},{"NoteNumber":57,"Velocity":40,"Duration":127345,"SoundDuration":127345,"Delta":30624326},{"NoteNumber":75,"Velocity":52,"Duration":127345,"SoundDuration":127345,"Delta":30751672},{"NoteNumber":66,"Velocity":65,"Duration":127345,"SoundDuration":127345,"Delta":30879017},{"NoteNumber":57,"Velocity":32,"Duration":127345,"SoundDuration":127345,"Delta":30879017},{"NoteNumber":60,"Velocity":39,"Duration":127345,"SoundDuration":127345,"Delta":30879017},{"NoteNumber":75,"Velocity":56,"Duration":127345,"SoundDuration":127345,"Delta":31006362},{"NoteNumber":66,"Velocity":66,"Duration":136624,"SoundDuration":136624,"Delta":31133707},{"NoteNumber":60,"Velocity":37,"Duration":136624,"SoundDuration":136624,"Delta":31133707},{"NoteNumber":57,"Velocity":31,"Duration":136624,"SoundDuration":136624,"Delta":31133707},{"NoteNumber":75,"Velocity":54,"Duration":136624,"SoundDuration":136624,"Delta":31270332},{"NoteNumber":64,"Velocity":69,"Duration":126806,"SoundDuration":126806,"Delta":31406956},{"NoteNumber":55,"Velocity":44,"Duration":126806,"SoundDuration":126806,"Delta":31406956},{"NoteNumber":59,"Velocity":52,"Duration":126806,"SoundDuration":126806,"Delta":31406956},{"NoteNumber":76,"Velocity":55,"Duration":126806,"SoundDuration":126806,"Delta":31533763},{"NoteNumber":64,"Velocity":68,"Duration":126806,"SoundDuration":126806,"Delta":31660570},{"NoteNumber":55,"Velocity":32,"Duration":126806,"SoundDuration":126806,"Delta":31660570},{"NoteNumber":59,"Velocity":38,"Duration":126806,"SoundDuration":126806,"Delta":31660570},{"NoteNumber":76,"Velocity":57,"Duration":126806,"SoundDuration":126806,"Delta":31787377},{"NoteNumber":64,"Velocity":70,"Duration":130106,"SoundDuration":130106,"Delta":31914184},{"NoteNumber":55,"Velocity":32,"Duration":130106,"SoundDuration":130106,"Delta":31914184},{"NoteNumber":59,"Velocity":39,"Duration":130106,"SoundDuration":130106,"Delta":31914184},{"NoteNumber":76,"Velocity":62,"Duration":130106,"SoundDuration":130106,"Delta":32044291},{"NoteNumber":73,"Velocity":81,"Duration":126806,"SoundDuration":126806,"Delta":32174398},{"NoteNumber":57,"Velocity":55,"Duration":126806,"SoundDuration":126806,"Delta":32174398},{"NoteNumber":45,"Velocity":46,"Duration":126806,"SoundDuration":126806,"Delta":32174398},{"NoteNumber":81,"Velocity":66,"Duration":126806,"SoundDuration":126806,"Delta":32301205},{"NoteNumber":73,"Velocity":77,"Duration":126806,"SoundDuration":126806,"Delta":32428012},{"NoteNumber":57,"Velocity":43,"Duration":126806,"SoundDuration":126806,"Delta":32428012},{"NoteNumber":45,"Velocity":36,"Duration":126806,"SoundDuration":126806,"Delta":32428012},{"NoteNumber":81,"Velocity":65,"Duration":126806,"SoundDuration":126806,"Delta":32554819},{"NoteNumber":73,"Velocity":79,"Duration":137249,"SoundDuration":137249,"Delta":32681626},{"NoteNumber":45,"Velocity":36,"Duration":137249,"SoundDuration":137249,"Delta":32681626},{"NoteNumber":57,"Velocity":43,"Duration":137249,"SoundDuration":137249,"Delta":32681626},{"NoteNumber":81,"Velocity":69,"Duration":137249,"SoundDuration":137249,"Delta":32818875},{"NoteNumber":74,"Velocity":81,"Duration":126806,"SoundDuration":126806,"Delta":32956125},{"NoteNumber":50,"Velocity":46,"Duration":126806,"SoundDuration":126806,"Delta":32956125},{"NoteNumber":54,"Velocity":55,"Duration":126806,"SoundDuration":126806,"Delta":32956125},{"NoteNumber":81,"Velocity":73,"Duration":123162,"SoundDuration":123162,"Delta":33206095},{"NoteNumber":78,"Velocity":62,"Duration":123162,"SoundDuration":123162,"Delta":33329257},{"NoteNumber":79,"Velocity":72,"Duration":129544,"SoundDuration":129544,"Delta":33452420},{"NoteNumber":45,"Velocity":46,"Duration":129544,"SoundDuration":129544,"Delta":33452420},{"NoteNumber":57,"Velocity":55,"Duration":129544,"SoundDuration":129544,"Delta":33452420},{"NoteNumber":76,"Velocity":65,"Duration":126806,"SoundDuration":126806,"Delta":33581965},{"NoteNumber":74,"Velocity":78,"Duration":126806,"SoundDuration":126806,"Delta":33708772},{"NoteNumber":50,"Velocity":51,"Duration":126806,"SoundDuration":126806,"Delta":33708772},{"NoteNumber":54,"Velocity":61,"Duration":126806,"SoundDuration":126806,"Delta":33708772},{"NoteNumber":81,"Velocity":77,"Duration":126806,"SoundDuration":126806,"Delta":33962386},{"NoteNumber":78,"Velocity":63,"Duration":124182,"SoundDuration":124182,"Delta":34089193},{"NoteNumber":79,"Velocity":70,"Duration":124182,"SoundDuration":124182,"Delta":34213375},{"NoteNumber":57,"Velocity":56,"Duration":124182,"SoundDuration":124182,"Delta":34213375},{"NoteNumber":45,"Velocity":47,"Duration":124182,"SoundDuration":124182,"Delta":34213375},{"NoteNumber":76,"Velocity":64,"Duration":132403,"SoundDuration":132403,"Delta":34337558},{"NoteNumber":74,"Velocity":77,"Duration":126806,"SoundDuration":126806,"Delta":34469961},{"NoteNumber":54,"Velocity":61,"Duration":126806,"SoundDuration":126806,"Delta":34469961},{"NoteNumber":50,"Velocity":51,"Duration":126806,"SoundDuration":126806,"Delta":34469961},{"NoteNumber":78,"Velocity":74,"Duration":130106,"SoundDuration":130106,"Delta":34723575},{"NoteNumber":86,"Velocity":88,"Duration":130106,"SoundDuration":130106,"Delta":34723575},{"NoteNumber":50,"Velocity":58,"Duration":130106,"SoundDuration":130106,"Delta":34723575},{"NoteNumber":78,"Velocity":68,"Duration":130106,"SoundDuration":130106,"Delta":34983789},{"NoteNumber":86,"Velocity":80,"Duration":130106,"SoundDuration":130106,"Delta":34983789},{"NoteNumber":45,"Velocity":55,"Duration":130106,"SoundDuration":130106,"Delta":34983789},{"NoteNumber":78,"Velocity":74,"Duration":134782,"SoundDuration":134782,"Delta":35244002},{"NoteNumber":86,"Velocity":88,"Duration":134782,"SoundDuration":134782,"Delta":35244002},{"NoteNumber":42,"Velocity":61,"Duration":134782,"SoundDuration":134782,"Delta":35244002},{"NoteNumber":86,"Velocity":81,"Duration":141790,"SoundDuration":141790,"Delta":35513568},{"NoteNumber":78,"Velocity":68,"Duration":141790,"SoundDuration":141790,"Delta":35513568},{"NoteNumber":45,"Velocity":55,"Duration":141790,"SoundDuration":141790,"Delta":35513568},{"NoteNumber":78,"Velocity":68,"Duration":152609,"SoundDuration":152609,"Delta":35797149},{"NoteNumber":86,"Velocity":81,"Duration":152609,"SoundDuration":152609,"Delta":35797149},{"NoteNumber":42,"Velocity":55,"Duration":152609,"SoundDuration":152609,"Delta":35797149},{"NoteNumber":78,"Velocity":74,"Duration":610438,"SoundDuration":610438,"Delta":36102368},{"NoteNumber":86,"Velocity":89,"Duration":610438,"SoundDuration":610438,"Delta":36102368},{"NoteNumber":38,"Velocity":61,"Duration":610438,"SoundDuration":610438,"Delta":36102368},{"NoteNumber":74,"Velocity":42,"Duration":128194,"SoundDuration":128194,"Delta":37018025},{"NoteNumber":78,"Velocity":50,"Duration":128194,"SoundDuration":128194,"Delta":37018025},{"NoteNumber":78,"Velocity":47,"Duration":128194,"SoundDuration":128194,"Delta":37274413},{"NoteNumber":74,"Velocity":39,"Duration":128194,"SoundDuration":128194,"Delta":37274413},{"NoteNumber":78,"Velocity":47,"Duration":135037,"SoundDuration":135037,"Delta":37530802},{"NoteNumber":74,"Velocity":39,"Duration":135037,"SoundDuration":135037,"Delta":37530802},{"NoteNumber":73,"Velocity":49,"Duration":503481,"SoundDuration":503481,"Delta":37800877},{"NoteNumber":76,"Velocity":58,"Duration":503481,"SoundDuration":503481,"Delta":37800877},{"NoteNumber":67,"Velocity":28,"Duration":125870,"SoundDuration":125870,"Delta":37800877},{"NoteNumber":67,"Velocity":25,"Duration":125870,"SoundDuration":125870,"Delta":38052618},{"NoteNumber":71,"Velocity":39,"Duration":257576,"SoundDuration":257576,"Delta":38304359},{"NoteNumber":74,"Velocity":46,"Duration":257576,"SoundDuration":257576,"Delta":38304359},{"NoteNumber":67,"Velocity":25,"Duration":128788,"SoundDuration":128788,"Delta":38304359},{"NoteNumber":79,"Velocity":50,"Duration":128194,"SoundDuration":128194,"Delta":38561936},{"NoteNumber":76,"Velocity":42,"Duration":128194,"SoundDuration":128194,"Delta":38561936},{"NoteNumber":79,"Velocity":47,"Duration":128194,"SoundDuration":128194,"Delta":38818325},{"NoteNumber":76,"Velocity":39,"Duration":128194,"SoundDuration":128194,"Delta":38818325},{"NoteNumber":79,"Velocity":47,"Duration":135037,"SoundDuration":135037,"Delta":39074713},{"NoteNumber":76,"Velocity":39,"Duration":135037,"SoundDuration":135037,"Delta":39074713},{"NoteNumber":74,"Velocity":49,"Duration":503481,"SoundDuration":503481,"Delta":39344789},{"NoteNumber":78,"Velocity":58,"Duration":503481,"SoundDuration":503481,"Delta":39344789},{"NoteNumber":57,"Velocity":28,"Duration":125870,"SoundDuration":125870,"Delta":39344789},{"NoteNumber":57,"Velocity":25,"Duration":125870,"SoundDuration":125870,"Delta":39596530},{"NoteNumber":73,"Velocity":39,"Duration":257576,"SoundDuration":257576,"Delta":39848271},{"NoteNumber":76,"Velocity":46,"Duration":257576,"SoundDuration":257576,"Delta":39848271},{"NoteNumber":57,"Velocity":25,"Duration":128788,"SoundDuration":128788,"Delta":39848271},{"NoteNumber":81,"Velocity":50,"Duration":128194,"SoundDuration":128194,"Delta":40105848},{"NoteNumber":78,"Velocity":42,"Duration":128194,"SoundDuration":128194,"Delta":40105848},{"NoteNumber":81,"Velocity":47,"Duration":128194,"SoundDuration":128194,"Delta":40362236},{"NoteNumber":78,"Velocity":39,"Duration":128194,"SoundDuration":128194,"Delta":40362236},{"NoteNumber":81,"Velocity":47,"Duration":135037,"SoundDuration":135037,"Delta":40618625},{"NoteNumber":78,"Velocity":39,"Duration":135037,"SoundDuration":135037,"Delta":40618625},{"NoteNumber":76,"Velocity":49,"Duration":503481,"SoundDuration":503481,"Delta":40888700},{"NoteNumber":79,"Velocity":58,"Duration":503481,"SoundDuration":503481,"Delta":40888700},{"NoteNumber":47,"Velocity":28,"Duration":125870,"SoundDuration":125870,"Delta":40888700},{"NoteNumber":47,"Velocity":25,"Duration":125870,"SoundDuration":125870,"Delta":41140441},{"NoteNumber":74,"Velocity":39,"Duration":257576,"SoundDuration":257576,"Delta":41392182},{"NoteNumber":78,"Velocity":46,"Duration":257576,"SoundDuration":257576,"Delta":41392182},{"NoteNumber":47,"Velocity":25,"Duration":128788,"SoundDuration":128788,"Delta":41392182},{"NoteNumber":86,"Velocity":65,"Duration":127605,"SoundDuration":127605,"Delta":41649759},{"NoteNumber":56,"Velocity":45,"Duration":255210,"SoundDuration":255210,"Delta":41649759},{"NoteNumber":76,"Velocity":52,"Duration":127605,"SoundDuration":127605,"Delta":41777365},{"NoteNumber":86,"Velocity":62,"Duration":127605,"SoundDuration":127605,"Delta":41904970},{"NoteNumber":59,"Velocity":35,"Duration":255210,"SoundDuration":255210,"Delta":41904970},{"NoteNumber":76,"Velocity":52,"Duration":127605,"SoundDuration":127605,"Delta":42032575},{"NoteNumber":86,"Velocity":62,"Duration":130106,"SoundDuration":130106,"Delta":42160180},{"NoteNumber":52,"Velocity":35,"Duration":260213,"SoundDuration":260213,"Delta":42160180},{"NoteNumber":76,"Velocity":54,"Duration":130106,"SoundDuration":130106,"Delta":42290287},{"NoteNumber":85,"Velocity":65,"Duration":127605,"SoundDuration":127605,"Delta":42420394},{"NoteNumber":57,"Velocity":45,"Duration":255210,"SoundDuration":255210,"Delta":42420394},{"NoteNumber":76,"Velocity":52,"Duration":127605,"SoundDuration":127605,"Delta":42547999},{"NoteNumber":85,"Velocity":63,"Duration":127605,"SoundDuration":127605,"Delta":42675604},{"NoteNumber":61,"Velocity":35,"Duration":255210,"SoundDuration":255210,"Delta":42675604},{"NoteNumber":76,"Velocity":52,"Duration":127605,"SoundDuration":127605,"Delta":42803210},{"NoteNumber":85,"Velocity":63,"Duration":130106,"SoundDuration":130106,"Delta":42930815},{"NoteNumber":52,"Velocity":35,"Duration":260213,"SoundDuration":260213,"Delta":42930815},{"NoteNumber":76,"Velocity":54,"Duration":130106,"SoundDuration":130106,"Delta":43060922},{"NoteNumber":80,"Velocity":65,"Duration":127605,"SoundDuration":127605,"Delta":43191028},{"NoteNumber":59,"Velocity":45,"Duration":255210,"SoundDuration":255210,"Delta":43191028},{"NoteNumber":76,"Velocity":52,"Duration":127605,"SoundDuration":127605,"Delta":43318634},{"NoteNumber":80,"Velocity":64,"Duration":127605,"SoundDuration":127605,"Delta":43446239},{"NoteNumber":62,"Velocity":38,"Duration":255210,"SoundDuration":255210,"Delta":43446239},{"NoteNumber":76,"Velocity":52,"Duration":127605,"SoundDuration":127605,"Delta":43573844},{"NoteNumber":80,"Velocity":63,"Duration":130106,"SoundDuration":130106,"Delta":43701449},{"NoteNumber":52,"Velocity":38,"Duration":260213,"SoundDuration":260213,"Delta":43701449},{"NoteNumber":76,"Velocity":54,"Duration":130106,"SoundDuration":130106,"Delta":43831556},{"NoteNumber":81,"Velocity":65,"Duration":126273,"SoundDuration":126273,"Delta":43961663},{"NoteNumber":61,"Velocity":45,"Duration":252546,"SoundDuration":252546,"Delta":43961663},{"NoteNumber":76,"Velocity":56,"Duration":126273,"SoundDuration":126273,"Delta":44087936},{"NoteNumber":83,"Velocity":68,"Duration":126273,"SoundDuration":126273,"Delta":44214209},{"NoteNumber":59,"Velocity":33,"Duration":252546,"SoundDuration":252546,"Delta":44214209},{"NoteNumber":76,"Velocity":56,"Duration":126273,"SoundDuration":126273,"Delta":44340483},{"NoteNumber":85,"Velocity":70,"Duration":130106,"SoundDuration":130106,"Delta":44466756},{"NoteNumber":57,"Velocity":33,"Duration":260213,"SoundDuration":260213,"Delta":44466756},{"NoteNumber":76,"Velocity":58,"Duration":130106,"SoundDuration":130106,"Delta":44596863},{"NoteNumber":86,"Velocity":72,"Duration":127605,"SoundDuration":127605,"Delta":44726969},{"NoteNumber":56,"Velocity":45,"Duration":255210,"SoundDuration":255210,"Delta":44726969},{"NoteNumber":76,"Velocity":56,"Duration":127605,"SoundDuration":127605,"Delta":44854575},{"NoteNumber":86,"Velocity":68,"Duration":127605,"SoundDuration":127605,"Delta":44982180},{"NoteNumber":59,"Velocity":37,"Duration":255210,"SoundDuration":255210,"Delta":44982180},{"NoteNumber":76,"Velocity":58,"Duration":127605,"SoundDuration":127605,"Delta":45109785},{"NoteNumber":86,"Velocity":65,"Duration":130106,"SoundDuration":130106,"Delta":45237390},{"NoteNumber":52,"Velocity":37,"Duration":260213,"SoundDuration":260213,"Delta":45237390},{"NoteNumber":76,"Velocity":58,"Duration":130106,"SoundDuration":130106,"Delta":45367497},{"NoteNumber":85,"Velocity":65,"Duration":130106,"SoundDuration":130106,"Delta":45497604},{"NoteNumber":57,"Velocity":45,"Duration":258264,"SoundDuration":258264,"Delta":45497604},{"NoteNumber":88,"Velocity":64,"Duration":128158,"SoundDuration":128158,"Delta":45627711},{"NoteNumber":86,"Velocity":65,"Duration":126273,"SoundDuration":126273,"Delta":45755869},{"NoteNumber":61,"Velocity":35,"Duration":252888,"SoundDuration":252888,"Delta":45755869},{"NoteNumber":85,"Velocity":61,"Duration":126615,"SoundDuration":126615,"Delta":45882142},{"NoteNumber":83,"Velocity":65,"Duration":126806,"SoundDuration":126806,"Delta":46008758},{"NoteNumber":52,"Velocity":35,"Duration":254031,"SoundDuration":254031,"Delta":46008758},{"NoteNumber":81,"Velocity":61,"Duration":127224,"SoundDuration":127224,"Delta":46135565},{"NoteNumber":80,"Velocity":66,"Duration":127345,"SoundDuration":127345,"Delta":46262789},{"NoteNumber":59,"Velocity":45,"Duration":255183,"SoundDuration":255183,"Delta":46262789},{"NoteNumber":78,"Velocity":62,"Duration":127838,"SoundDuration":127838,"Delta":46390134},{"NoteNumber":76,"Velocity":64,"Duration":127911,"SoundDuration":127911,"Delta":46517973},{"NoteNumber":62,"Velocity":38,"Duration":256346,"SoundDuration":256346,"Delta":46517973},{"NoteNumber":74,"Velocity":68,"Duration":128435,"SoundDuration":128435,"Delta":46645884},{"NoteNumber":73,"Velocity":70,"Duration":133582,"SoundDuration":133582,"Delta":46774319},{"NoteNumber":52,"Velocity":38,"Duration":267165,"SoundDuration":267165,"Delta":46774319},{"NoteNumber":71,"Velocity":71,"Duration":133582,"SoundDuration":133582,"Delta":46907902},{"NoteNumber":72,"Velocity":65,"Duration":127605,"SoundDuration":127605,"Delta":47041485},{"NoteNumber":45,"Velocity":67,"Duration":255210,"SoundDuration":255210,"Delta":47041485},{"NoteNumber":69,"Velocity":52,"Duration":127605,"SoundDuration":127605,"Delta":47169090},{"NoteNumber":72,"Velocity":63,"Duration":127605,"SoundDuration":127605,"Delta":47296695},{"NoteNumber":57,"Velocity":47,"Duration":127605,"SoundDuration":127605,"Delta":47296695},{"NoteNumber":69,"Velocity":52,"Duration":127605,"SoundDuration":127605,"Delta":47424301},{"NoteNumber":72,"Velocity":63,"Duration":130106,"SoundDuration":130106,"Delta":47551906},{"NoteNumber":57,"Velocity":46,"Duration":130106,"SoundDuration":130106,"Delta":47551906},{"NoteNumber":69,"Velocity":54,"Duration":130106,"SoundDuration":130106,"Delta":47682013},{"NoteNumber":72,"Velocity":72,"Duration":127605,"SoundDuration":127605,"Delta":47812119},{"NoteNumber":43,"Velocity":64,"Duration":255210,"SoundDuration":255210,"Delta":47812119},{"NoteNumber":69,"Velocity":52,"Duration":127605,"SoundDuration":127605,"Delta":47939725},{"NoteNumber":72,"Velocity":64,"Duration":127605,"SoundDuration":127605,"Delta":48067330},{"NoteNumber":55,"Velocity":48,"Duration":127605,"SoundDuration":127605,"Delta":48067330},{"NoteNumber":69,"Velocity":52,"Duration":127605,"SoundDuration":127605,"Delta":48194935},{"NoteNumber":72,"Velocity":63,"Duration":130106,"SoundDuration":130106,"Delta":48322540},{"NoteNumber":55,"Velocity":48,"Duration":130106,"SoundDuration":130106,"Delta":48322540},{"NoteNumber":69,"Velocity":54,"Duration":130106,"SoundDuration":130106,"Delta":48452647},{"NoteNumber":72,"Velocity":65,"Duration":127605,"SoundDuration":127605,"Delta":48582754},{"NoteNumber":41,"Velocity":69,"Duration":255210,"SoundDuration":255210,"Delta":48582754},{"NoteNumber":69,"Velocity":52,"Duration":127605,"SoundDuration":127605,"Delta":48710359},{"NoteNumber":72,"Velocity":63,"Duration":127605,"SoundDuration":127605,"Delta":48837964},{"NoteNumber":53,"Velocity":47,"Duration":127605,"SoundDuration":127605,"Delta":48837964},{"NoteNumber":69,"Velocity":52,"Duration":127605,"SoundDuration":127605,"Delta":48965570},{"NoteNumber":72,"Velocity":63,"Duration":130106,"SoundDuration":130106,"Delta":49093175},{"NoteNumber":53,"Velocity":46,"Duration":130106,"SoundDuration":130106,"Delta":49093175},{"NoteNumber":69,"Velocity":54,"Duration":130106,"SoundDuration":130106,"Delta":49223282},{"NoteNumber":72,"Velocity":72,"Duration":127605,"SoundDuration":127605,"Delta":49353388},{"NoteNumber":39,"Velocity":64,"Duration":255210,"SoundDuration":255210,"Delta":49353388},{"NoteNumber":69,"Velocity":52,"Duration":127605,"SoundDuration":127605,"Delta":49480994},{"NoteNumber":72,"Velocity":64,"Duration":127605,"SoundDuration":127605,"Delta":49608599},{"NoteNumber":51,"Velocity":48,"Duration":127605,"SoundDuration":127605,"Delta":49608599},{"NoteNumber":69,"Velocity":52,"Duration":127605,"SoundDuration":127605,"Delta":49736204},{"NoteNumber":72,"Velocity":63,"Duration":130106,"SoundDuration":130106,"Delta":49863809},{"NoteNumber":51,"Velocity":48,"Duration":130106,"SoundDuration":130106,"Delta":49863809},{"NoteNumber":69,"Velocity":54,"Duration":130106,"SoundDuration":130106,"Delta":49993916},{"NoteNumber":68,"Velocity":61,"Duration":133582,"SoundDuration":133582,"Delta":50124023},{"NoteNumber":71,"Velocity":68,"Duration":133582,"SoundDuration":133582,"Delta":50124023},{"NoteNumber":40,"Velocity":61,"Duration":133582,"SoundDuration":133582,"Delta":50124023},{"NoteNumber":52,"Velocity":37,"Duration":125743,"SoundDuration":125743,"Delta":50257606},{"NoteNumber":51,"Velocity":45,"Duration":125744,"SoundDuration":125744,"Delta":50383350},{"NoteNumber":52,"Velocity":40,"Duration":125743,"SoundDuration":125743,"Delta":50509094},{"NoteNumber":51,"Velocity":43,"Duration":128788,"SoundDuration":128788,"Delta":50634838},{"NoteNumber":52,"Velocity":39,"Duration":131821,"SoundDuration":131821,"Delta":50763626},{"NoteNumber":76,"Velocity":62,"Duration":133582,"SoundDuration":133582,"Delta":50895448},{"NoteNumber":72,"Velocity":62,"Duration":133582,"SoundDuration":133582,"Delta":50895448},{"NoteNumber":40,"Velocity":61,"Duration":133582,"SoundDuration":133582,"Delta":50895448},{"NoteNumber":52,"Velocity":37,"Duration":125743,"SoundDuration":125743,"Delta":51029031},{"NoteNumber":72,"Velocity":53,"Duration":125744,"SoundDuration":125744,"Delta":51154775},{"NoteNumber":76,"Velocity":53,"Duration":125744,"SoundDuration":125744,"Delta":51154775},{"NoteNumber":51,"Velocity":45,"Duration":125744,"SoundDuration":125744,"Delta":51154775},{"NoteNumber":52,"Velocity":40,"Duration":125743,"SoundDuration":125743,"Delta":51280519},{"NoteNumber":72,"Velocity":53,"Duration":128788,"SoundDuration":128788,"Delta":51406263},{"NoteNumber":76,"Velocity":53,"Duration":128788,"SoundDuration":128788,"Delta":51406263},{"NoteNumber":51,"Velocity":43,"Duration":128788,"SoundDuration":128788,"Delta":51406263},{"NoteNumber":52,"Velocity":39,"Duration":131821,"SoundDuration":131821,"Delta":51535051},{"NoteNumber":74,"Velocity":68,"Duration":133582,"SoundDuration":133582,"Delta":51666873},{"NoteNumber":71,"Velocity":61,"Duration":133582,"SoundDuration":133582,"Delta":51666873},{"NoteNumber":40,"Velocity":61,"Duration":133582,"SoundDuration":133582,"Delta":51666873},{"NoteNumber":52,"Velocity":37,"Duration":125743,"SoundDuration":125743,"Delta":51800456},{"NoteNumber":51,"Velocity":45,"Duration":125744,"SoundDuration":125744,"Delta":51926200},{"NoteNumber":52,"Velocity":40,"Duration":125743,"SoundDuration":125743,"Delta":52051944},{"NoteNumber":51,"Velocity":43,"Duration":128788,"SoundDuration":128788,"Delta":52177688},{"NoteNumber":52,"Velocity":39,"Duration":131821,"SoundDuration":131821,"Delta":52306476},{"NoteNumber":72,"Velocity":62,"Duration":133582,"SoundDuration":133582,"Delta":52438298},{"NoteNumber":69,"Velocity":62,"Duration":133582,"SoundDuration":133582,"Delta":52438298},{"NoteNumber":40,"Velocity":61,"Duration":133582,"SoundDuration":133582,"Delta":52438298},{"NoteNumber":52,"Velocity":37,"Duration":125743,"SoundDuration":125743,"Delta":52571881},{"NoteNumber":69,"Velocity":53,"Duration":125744,"SoundDuration":125744,"Delta":52697625},{"NoteNumber":72,"Velocity":53,"Duration":125744,"SoundDuration":125744,"Delta":52697625},{"NoteNumber":51,"Velocity":45,"Duration":125744,"SoundDuration":125744,"Delta":52697625},{"NoteNumber":52,"Velocity":40,"Duration":125743,"SoundDuration":125743,"Delta":52823369},{"NoteNumber":69,"Velocity":53,"Duration":128788,"SoundDuration":128788,"Delta":52949113},{"NoteNumber":72,"Velocity":53,"Duration":128788,"SoundDuration":128788,"Delta":52949113},{"NoteNumber":51,"Velocity":43,"Duration":128788,"SoundDuration":128788,"Delta":52949113},{"NoteNumber":52,"Velocity":39,"Duration":128788,"SoundDuration":128788,"Delta":53077901},{"NoteNumber":68,"Velocity":61,"Duration":133582,"SoundDuration":133582,"Delta":53206690},{"NoteNumber":71,"Velocity":68,"Duration":133582,"SoundDuration":133582,"Delta":53206690},{"NoteNumber":40,"Velocity":61,"Duration":133582,"SoundDuration":133582,"Delta":53206690},{"NoteNumber":52,"Velocity":37,"Duration":125743,"SoundDuration":125743,"Delta":53340272},{"NoteNumber":51,"Velocity":45,"Duration":125744,"SoundDuration":125744,"Delta":53466016},{"NoteNumber":52,"Velocity":40,"Duration":125743,"SoundDuration":125743,"Delta":53591760},{"NoteNumber":51,"Velocity":43,"Duration":128788,"SoundDuration":128788,"Delta":53717504},{"NoteNumber":52,"Velocity":39,"Duration":131821,"SoundDuration":131821,"Delta":53846293},{"NoteNumber":69,"Velocity":62,"Duration":133582,"SoundDuration":133582,"Delta":53978115},{"NoteNumber":63,"Velocity":62,"Duration":133582,"SoundDuration":133582,"Delta":53978115},{"NoteNumber":40,"Velocity":61,"Duration":133582,"SoundDuration":133582,"Delta":53978115},{"NoteNumber":52,"Velocity":37,"Duration":125743,"SoundDuration":125743,"Delta":54111697},{"NoteNumber":69,"Velocity":53,"Duration":125744,"SoundDuration":125744,"Delta":54237441},{"NoteNumber":63,"Velocity":53,"Duration":125744,"SoundDuration":125744,"Delta":54237441},{"NoteNumber":51,"Velocity":45,"Duration":125744,"SoundDuration":125744,"Delta":54237441},{"NoteNumber":52,"Velocity":40,"Duration":125743,"SoundDuration":125743,"Delta":54363185},{"NoteNumber":69,"Velocity":53,"Duration":128788,"SoundDuration":128788,"Delta":54488929},{"NoteNumber":63,"Velocity":53,"Duration":128788,"SoundDuration":128788,"Delta":54488929},{"NoteNumber":51,"Velocity":43,"Duration":128788,"SoundDuration":128788,"Delta":54488929},{"NoteNumber":52,"Velocity":39,"Duration":128788,"SoundDuration":128788,"Delta":54617718},{"NoteNumber":64,"Velocity":54,"Duration":133582,"SoundDuration":133582,"Delta":54746506},{"NoteNumber":68,"Velocity":61,"Duration":133582,"SoundDuration":133582,"Delta":54746506},{"NoteNumber":40,"Velocity":54,"Duration":133582,"SoundDuration":133582,"Delta":54746506},{"NoteNumber":52,"Velocity":33,"Duration":127888,"SoundDuration":127888,"Delta":54880089},{"NoteNumber":68,"Velocity":46,"Duration":127888,"SoundDuration":127888,"Delta":55007977},{"NoteNumber":64,"Velocity":46,"Duration":127888,"SoundDuration":127888,"Delta":55007977},{"NoteNumber":51,"Velocity":39,"Duration":127888,"SoundDuration":127888,"Delta":55007977},{"NoteNumber":52,"Velocity":34,"Duration":127888,"SoundDuration":127888,"Delta":55135866},{"NoteNumber":64,"Velocity":45,"Duration":132403,"SoundDuration":132403,"Delta":55263754},{"NoteNumber":68,"Velocity":45,"Duration":132403,"SoundDuration":132403,"Delta":55263754},{"NoteNumber":51,"Velocity":36,"Duration":132403,"SoundDuration":132403,"Delta":55263754},{"NoteNumber":52,"Velocity":33,"Duration":137249,"SoundDuration":137249,"Delta":55396157},{"NoteNumber":57,"Velocity":51,"Duration":136655,"SoundDuration":136655,"Delta":55533407},{"NoteNumber":63,"Velocity":51,"Duration":136655,"SoundDuration":136655,"Delta":55533407},{"NoteNumber":40,"Velocity":50,"Duration":136655,"SoundDuration":136655,"Delta":55533407},{"NoteNumber":52,"Velocity":30,"Duration":137491,"SoundDuration":137491,"Delta":55670063},{"NoteNumber":57,"Velocity":42,"Duration":138368,"SoundDuration":138368,"Delta":55807554},{"NoteNumber":63,"Velocity":42,"Duration":138368,"SoundDuration":138368,"Delta":55807554},{"NoteNumber":51,"Velocity":35,"Duration":138368,"SoundDuration":138368,"Delta":55807554},{"NoteNumber":52,"Velocity":31,"Duration":139408,"SoundDuration":139408,"Delta":55945923},{"NoteNumber":63,"Velocity":41,"Duration":140310,"SoundDuration":140310,"Delta":56085331},{"NoteNumber":57,"Velocity":41,"Duration":140310,"SoundDuration":140310,"Delta":56085331},{"NoteNumber":51,"Velocity":33,"Duration":140310,"SoundDuration":140310,"Delta":56085331},{"NoteNumber":52,"Velocity":30,"Duration":153390,"SoundDuration":153390,"Delta":56225641},{"NoteNumber":56,"Velocity":46,"Duration":275760,"SoundDuration":275760,"Delta":56379031},{"NoteNumber":40,"Velocity":47,"Duration":1647935,"SoundDuration":1647935,"Delta":56379031},{"NoteNumber":52,"Velocity":47,"Duration":1647935,"SoundDuration":1647935,"Delta":56379031},{"NoteNumber":64,"Velocity":37,"Duration":270782,"SoundDuration":270782,"Delta":56654791},{"NoteNumber":59,"Velocity":37,"Duration":270782,"SoundDuration":270782,"Delta":56925574},{"NoteNumber":68,"Velocity":45,"Duration":270782,"SoundDuration":270782,"Delta":57196356},{"NoteNumber":64,"Velocity":38,"Duration":270782,"SoundDuration":270782,"Delta":57467139},{"NoteNumber":71,"Velocity":40,"Duration":289045,"SoundDuration":289045,"Delta":57737921},{"NoteNumber":68,"Velocity":41,"Duration":267858,"SoundDuration":267858,"Delta":58026966},{"NoteNumber":76,"Velocity":47,"Duration":270269,"SoundDuration":270269,"Delta":58294824},{"NoteNumber":75,"Velocity":46,"Duration":274043,"SoundDuration":274043,"Delta":58565094},{"NoteNumber":74,"Velocity":43,"Duration":277777,"SoundDuration":277777,"Delta":58839138},{"NoteNumber":73,"Velocity":42,"Duration":282265,"SoundDuration":282265,"Delta":59116915},{"NoteNumber":71,"Velocity":40,"Duration":290147,"SoundDuration":290147,"Delta":59399181},{"NoteNumber":69,"Velocity":40,"Duration":542937,"SoundDuration":542937,"Delta":59689328},{"NoteNumber":61,"Velocity":20,"Duration":203601,"SoundDuration":203601,"Delta":59689328},{"NoteNumber":64,"Velocity":24,"Duration":203601,"SoundDuration":203601,"Delta":59689328},{"NoteNumber":64,"Velocity":19,"Duration":203601,"SoundDuration":203601,"Delta":59960797},{"NoteNumber":61,"Velocity":16,"Duration":203601,"SoundDuration":203601,"Delta":59960797},{"NoteNumber":69,"Velocity":40,"Duration":203601,"SoundDuration":203601,"Delta":60232265},{"NoteNumber":64,"Velocity":19,"Duration":203601,"SoundDuration":203601,"Delta":60232265},{"NoteNumber":61,"Velocity":16,"Duration":203601,"SoundDuration":203601,"Delta":60232265},{"NoteNumber":71,"Velocity":37,"Duration":67867,"SoundDuration":67867,"Delta":60435867},{"NoteNumber":69,"Velocity":40,"Duration":271468,"SoundDuration":271468,"Delta":60503734},{"NoteNumber":61,"Velocity":20,"Duration":203601,"SoundDuration":203601,"Delta":60503734},{"NoteNumber":64,"Velocity":24,"Duration":203601,"SoundDuration":203601,"Delta":60503734},{"NoteNumber":68,"Velocity":38,"Duration":271468,"SoundDuration":271468,"Delta":60775202},{"NoteNumber":64,"Velocity":20,"Duration":203601,"SoundDuration":203601,"Delta":60775202},{"NoteNumber":61,"Velocity":16,"Duration":203601,"SoundDuration":203601,"Delta":60775202},{"NoteNumber":69,"Velocity":37,"Duration":313184,"SoundDuration":313184,"Delta":61046671},{"NoteNumber":64,"Velocity":20,"Duration":234888,"SoundDuration":234888,"Delta":61046671},{"NoteNumber":61,"Velocity":16,"Duration":234888,"SoundDuration":234888,"Delta":61046671},{"NoteNumber":73,"Velocity":40,"Duration":553714,"SoundDuration":553714,"Delta":61359856},{"NoteNumber":62,"Velocity":20,"Duration":211684,"SoundDuration":211684,"Delta":61359856},{"NoteNumber":64,"Velocity":24,"Duration":211684,"SoundDuration":211684,"Delta":61359856},{"NoteNumber":64,"Velocity":20,"Duration":203601,"SoundDuration":203601,"Delta":61642102},{"NoteNumber":62,"Velocity":16,"Duration":203601,"SoundDuration":203601,"Delta":61642102},{"NoteNumber":71,"Velocity":35,"Duration":271468,"SoundDuration":271468,"Delta":61913571},{"NoteNumber":64,"Velocity":20,"Duration":203601,"SoundDuration":203601,"Delta":61913571},{"NoteNumber":62,"Velocity":16,"Duration":203601,"SoundDuration":203601,"Delta":61913571},{"NoteNumber":76,"Velocity":39,"Duration":261807,"SoundDuration":261807,"Delta":62185039},{"NoteNumber":64,"Velocity":21,"Duration":196470,"SoundDuration":196470,"Delta":62185039},{"NoteNumber":62,"Velocity":17,"Duration":196470,"SoundDuration":196470,"Delta":62185039},{"NoteNumber":78,"Velocity":43,"Duration":259628,"SoundDuration":259628,"Delta":62446847},{"NoteNumber":64,"Velocity":20,"Duration":194911,"SoundDuration":194911,"Delta":62446847},{"NoteNumber":62,"Velocity":16,"Duration":194911,"SoundDuration":194911,"Delta":62446847},{"NoteNumber":80,"Velocity":48,"Duration":284006,"SoundDuration":284006,"Delta":62706475},{"NoteNumber":64,"Velocity":22,"Duration":212950,"SoundDuration":212950,"Delta":62706475},{"NoteNumber":62,"Velocity":18,"Duration":212950,"SoundDuration":212950,"Delta":62706475},{"NoteNumber":81,"Velocity":58,"Duration":263643,"SoundDuration":263643,"Delta":62990482},{"NoteNumber":64,"Velocity":23,"Duration":197732,"SoundDuration":197732,"Delta":62990482},{"NoteNumber":61,"Velocity":19,"Duration":197732,"SoundDuration":197732,"Delta":62990482},{"NoteNumber":76,"Velocity":42,"Duration":263643,"SoundDuration":263643,"Delta":63254126},{"NoteNumber":64,"Velocity":20,"Duration":197732,"SoundDuration":197732,"Delta":63254126},{"NoteNumber":61,"Velocity":16,"Duration":197732,"SoundDuration":197732,"Delta":63254126},{"NoteNumber":73,"Velocity":38,"Duration":269565,"SoundDuration":269565,"Delta":63517769},{"NoteNumber":64,"Velocity":20,"Duration":202174,"SoundDuration":202174,"Delta":63517769},{"NoteNumber":61,"Velocity":16,"Duration":202174,"SoundDuration":202174,"Delta":63517769},{"NoteNumber":69,"Velocity":41,"Duration":261347,"SoundDuration":261347,"Delta":63787335},{"NoteNumber":61,"Velocity":20,"Duration":196010,"SoundDuration":196010,"Delta":63787335},{"NoteNumber":64,"Velocity":24,"Duration":196010,"SoundDuration":196010,"Delta":63787335},{"NoteNumber":68,"Velocity":39,"Duration":261347,"SoundDuration":261347,"Delta":64048682},{"NoteNumber":64,"Velocity":20,"Duration":196010,"SoundDuration":196010,"Delta":64048682},{"NoteNumber":61,"Velocity":17,"Duration":196010,"SoundDuration":196010,"Delta":64048682},{"NoteNumber":69,"Velocity":37,"Duration":290444,"SoundDuration":290444,"Delta":64310029},{"NoteNumber":64,"Velocity":20,"Duration":217833,"SoundDuration":217833,"Delta":64310029},{"NoteNumber":61,"Velocity":17,"Duration":217833,"SoundDuration":217833,"Delta":64310029},{"NoteNumber":73,"Velocity":40,"Duration":532291,"SoundDuration":532291,"Delta":64600474},{"NoteNumber":62,"Velocity":20,"Duration":199609,"SoundDuration":199609,"Delta":64600474},{"NoteNumber":64,"Velocity":24,"Duration":199609,"SoundDuration":199609,"Delta":64600474},{"NoteNumber":64,"Velocity":20,"Duration":199609,"SoundDuration":199609,"Delta":64866620},{"NoteNumber":62,"Velocity":17,"Duration":199609,"SoundDuration":199609,"Delta":64866620},{"NoteNumber":71,"Velocity":38,"Duration":266146,"SoundDuration":266146,"Delta":65132766},{"NoteNumber":64,"Velocity":24,"Duration":199609,"SoundDuration":199609,"Delta":65132766},{"NoteNumber":62,"Velocity":20,"Duration":199609,"SoundDuration":199609,"Delta":65132766},{"NoteNumber":88,"Velocity":45,"Duration":129903,"SoundDuration":129903,"Delta":65398912},{"NoteNumber":62,"Velocity":16,"Duration":194855,"SoundDuration":194855,"Delta":65398912},{"NoteNumber":64,"Velocity":19,"Duration":194855,"SoundDuration":194855,"Delta":65398912},{"NoteNumber":86,"Velocity":43,"Duration":129903,"SoundDuration":129903,"Delta":65528815},{"NoteNumber":85,"Velocity":41,"Duration":129903,"SoundDuration":129903,"Delta":65658719},{"NoteNumber":64,"Velocity":16,"Duration":194855,"SoundDuration":194855,"Delta":65658719},{"NoteNumber":62,"Velocity":13,"Duration":194855,"SoundDuration":194855,"Delta":65658719},{"NoteNumber":83,"Velocity":40,"Duration":129903,"SoundDuration":129903,"Delta":65788623},{"NoteNumber":81,"Velocity":40,"Duration":129903,"SoundDuration":129903,"Delta":65918527},{"NoteNumber":64,"Velocity":19,"Duration":198110,"SoundDuration":198110,"Delta":65918527},{"NoteNumber":62,"Velocity":16,"Duration":198110,"SoundDuration":198110,"Delta":65918527},{"NoteNumber":80,"Velocity":39,"Duration":136023,"SoundDuration":136023,"Delta":66048430},{"NoteNumber":81,"Velocity":40,"Duration":132782,"SoundDuration":132782,"Delta":66184454},{"NoteNumber":64,"Velocity":18,"Duration":198729,"SoundDuration":198729,"Delta":66184454},{"NoteNumber":61,"Velocity":15,"Duration":198729,"SoundDuration":198729,"Delta":66184454},{"NoteNumber":83,"Velocity":41,"Duration":131597,"SoundDuration":131597,"Delta":66317236},{"NoteNumber":85,"Velocity":44,"Duration":130589,"SoundDuration":130589,"Delta":66448834},{"NoteNumber":64,"Velocity":16,"Duration":195448,"SoundDuration":195448,"Delta":66448834},{"NoteNumber":61,"Velocity":12,"Duration":195448,"SoundDuration":195448,"Delta":66448834},{"NoteNumber":83,"Velocity":40,"Duration":129503,"SoundDuration":129503,"Delta":66579423},{"NoteNumber":81,"Velocity":40,"Duration":129288,"SoundDuration":129288,"Delta":66708927},{"NoteNumber":64,"Velocity":16,"Duration":193932,"SoundDuration":193932,"Delta":66708927},{"NoteNumber":61,"Velocity":12,"Duration":193932,"SoundDuration":193932,"Delta":66708927},{"NoteNumber":80,"Velocity":38,"Duration":129288,"SoundDuration":129288,"Delta":66838215},{"NoteNumber":78,"Velocity":45,"Duration":129647,"SoundDuration":129647,"Delta":66967503},{"NoteNumber":61,"Velocity":16,"Duration":194858,"SoundDuration":194858,"Delta":66967503},{"NoteNumber":64,"Velocity":19,"Duration":194858,"SoundDuration":194858,"Delta":66967503},{"NoteNumber":76,"Velocity":40,"Duration":130630,"SoundDuration":130630,"Delta":67097150},{"NoteNumber":74,"Velocity":40,"Duration":130885,"SoundDuration":130885,"Delta":67227780},{"NoteNumber":64,"Velocity":16,"Duration":197478,"SoundDuration":197478,"Delta":67227780},{"NoteNumber":61,"Velocity":13,"Duration":197478,"SoundDuration":197478,"Delta":67227780},{"NoteNumber":73,"Velocity":38,"Duration":134036,"SoundDuration":134036,"Delta":67358666},{"NoteNumber":71,"Velocity":40,"Duration":137186,"SoundDuration":137186,"Delta":67492702},{"NoteNumber":64,"Velocity":16,"Duration":207098,"SoundDuration":207098,"Delta":67492702},{"NoteNumber":61,"Velocity":13,"Duration":207098,"SoundDuration":207098,"Delta":67492702},{"NoteNumber":70,"Velocity":40,"Duration":140698,"SoundDuration":140698,"Delta":67629889},{"NoteNumber":71,"Velocity":48,"Duration":197680,"SoundDuration":197680,"Delta":67770588},{"NoteNumber":62,"Velocity":19,"Duration":527147,"SoundDuration":527147,"Delta":67770588},{"NoteNumber":66,"Velocity":23,"Duration":527147,"SoundDuration":527147,"Delta":67770588},{"NoteNumber":71,"Velocity":40,"Duration":197680,"SoundDuration":197680,"Delta":68034162},{"NoteNumber":71,"Velocity":40,"Duration":206687,"SoundDuration":206687,"Delta":68297736},{"NoteNumber":71,"Velocity":42,"Duration":262306,"SoundDuration":262306,"Delta":68573319},{"NoteNumber":74,"Velocity":40,"Duration":258576,"SoundDuration":258576,"Delta":68835626},{"NoteNumber":78,"Velocity":40,"Duration":268793,"SoundDuration":268793,"Delta":69094202},{"NoteNumber":69,"Velocity":44,"Duration":527989,"SoundDuration":527989,"Delta":69362995},{"NoteNumber":52,"Velocity":19,"Duration":195788,"SoundDuration":195788,"Delta":69362995},{"NoteNumber":61,"Velocity":23,"Duration":195788,"SoundDuration":195788,"Delta":69362995},{"NoteNumber":61,"Velocity":19,"Duration":198732,"SoundDuration":198732,"Delta":69624046},{"NoteNumber":52,"Velocity":16,"Duration":198732,"SoundDuration":198732,"Delta":69624046},{"NoteNumber":76,"Velocity":43,"Duration":129903,"SoundDuration":129903,"Delta":69890984},{"NoteNumber":61,"Velocity":18,"Duration":194855,"SoundDuration":194855,"Delta":69890984},{"NoteNumber":52,"Velocity":15,"Duration":194855,"SoundDuration":194855,"Delta":69890984},{"NoteNumber":73,"Velocity":40,"Duration":129903,"SoundDuration":129903,"Delta":70020888},{"NoteNumber":71,"Velocity":47,"Duration":519615,"SoundDuration":519615,"Delta":70150792},{"NoteNumber":52,"Velocity":19,"Duration":194855,"SoundDuration":194855,"Delta":70150792},{"NoteNumber":56,"Velocity":23,"Duration":194855,"SoundDuration":194855,"Delta":70150792},{"NoteNumber":52,"Velocity":16,"Duration":194855,"SoundDuration":194855,"Delta":70410599},{"NoteNumber":56,"Velocity":19,"Duration":194855,"SoundDuration":194855,"Delta":70410599},{"NoteNumber":74,"Velocity":46,"Duration":129903,"SoundDuration":129903,"Delta":70670407},{"NoteNumber":52,"Velocity":16,"Duration":202088,"SoundDuration":202088,"Delta":70670407},{"NoteNumber":56,"Velocity":20,"Duration":202088,"SoundDuration":202088,"Delta":70670407},{"NoteNumber":71,"Velocity":40,"Duration":144369,"SoundDuration":144369,"Delta":70800311},{"NoteNumber":69,"Velocity":44,"Duration":517151,"SoundDuration":517151,"Delta":70944680},{"NoteNumber":45,"Velocity":29,"Duration":779757,"SoundDuration":779757,"Delta":70944680},{"NoteNumber":52,"Velocity":25,"Duration":258575,"SoundDuration":258575,"Delta":71203256},{"NoteNumber":73,"Velocity":41,"Duration":126871,"SoundDuration":126871,"Delta":71461832},{"NoteNumber":57,"Velocity":25,"Duration":262605,"SoundDuration":262605,"Delta":71461832},{"NoteNumber":69,"Velocity":39,"Duration":135734,"SoundDuration":135734,"Delta":71588703},{"NoteNumber":64,"Velocity":44,"Duration":129288,"SoundDuration":129288,"Delta":71724438},{"NoteNumber":45,"Velocity":29,"Duration":780726,"SoundDuration":780726,"Delta":71724438},{"NoteNumber":64,"Velocity":41,"Duration":129287,"SoundDuration":129287,"Delta":71983014},{"NoteNumber":52,"Velocity":26,"Duration":258575,"SoundDuration":258575,"Delta":71983014},{"NoteNumber":64,"Velocity":41,"Duration":131787,"SoundDuration":131787,"Delta":72241590},{"NoteNumber":57,"Velocity":26,"Duration":263574,"SoundDuration":263574,"Delta":72241590},{"NoteNumber":74,"Velocity":44,"Duration":257356,"SoundDuration":257356,"Delta":72505164},{"NoteNumber":45,"Velocity":29,"Duration":778286,"SoundDuration":778286,"Delta":72505164},{"NoteNumber":71,"Velocity":40,"Duration":257356,"SoundDuration":257356,"Delta":72762520},{"NoteNumber":52,"Velocity":25,"Duration":257356,"SoundDuration":257356,"Delta":72762520},{"NoteNumber":68,"Velocity":40,"Duration":263574,"SoundDuration":263574,"Delta":73019876},{"NoteNumber":57,"Velocity":25,"Duration":263574,"SoundDuration":263574,"Delta":73019876},{"NoteNumber":64,"Velocity":44,"Duration":257356,"SoundDuration":257356,"Delta":73283450},{"NoteNumber":45,"Velocity":29,"Duration":778286,"SoundDuration":778286,"Delta":73283450},{"NoteNumber":66,"Velocity":41,"Duration":257356,"SoundDuration":257356,"Delta":73540806},{"NoteNumber":52,"Velocity":29,"Duration":257356,"SoundDuration":257356,"Delta":73540806},{"NoteNumber":68,"Velocity":41,"Duration":263574,"SoundDuration":263574,"Delta":73798162},{"NoteNumber":57,"Velocity":29,"Duration":263574,"SoundDuration":263574,"Delta":73798162},{"NoteNumber":69,"Velocity":44,"Duration":517151,"SoundDuration":517151,"Delta":74061736},{"NoteNumber":45,"Velocity":29,"Duration":779757,"SoundDuration":779757,"Delta":74061736},{"NoteNumber":52,"Velocity":25,"Duration":258575,"SoundDuration":258575,"Delta":74320312},{"NoteNumber":73,"Velocity":41,"Duration":126871,"SoundDuration":126871,"Delta":74578888},{"NoteNumber":57,"Velocity":25,"Duration":262605,"SoundDuration":262605,"Delta":74578888},{"NoteNumber":69,"Velocity":39,"Duration":135734,"SoundDuration":135734,"Delta":74705759},{"NoteNumber":64,"Velocity":44,"Duration":129288,"SoundDuration":129288,"Delta":74841493},{"NoteNumber":45,"Velocity":29,"Duration":780726,"SoundDuration":780726,"Delta":74841493},{"NoteNumber":64,"Velocity":41,"Duration":129287,"SoundDuration":129287,"Delta":75100069},{"NoteNumber":52,"Velocity":26,"Duration":258575,"SoundDuration":258575,"Delta":75100069},{"NoteNumber":64,"Velocity":41,"Duration":131787,"SoundDuration":131787,"Delta":75358645},{"NoteNumber":57,"Velocity":26,"Duration":263574,"SoundDuration":263574,"Delta":75358645},{"NoteNumber":74,"Velocity":49,"Duration":257356,"SoundDuration":257356,"Delta":75622219},{"NoteNumber":45,"Velocity":35,"Duration":778286,"SoundDuration":778286,"Delta":75622219},{"NoteNumber":71,"Velocity":42,"Duration":257356,"SoundDuration":257356,"Delta":75879575},{"NoteNumber":52,"Velocity":26,"Duration":257356,"SoundDuration":257356,"Delta":75879575},{"NoteNumber":68,"Velocity":42,"Duration":263574,"SoundDuration":263574,"Delta":76136931},{"NoteNumber":57,"Velocity":24,"Duration":263574,"SoundDuration":263574,"Delta":76136931},{"NoteNumber":64,"Velocity":50,"Duration":257356,"SoundDuration":257356,"Delta":76400505},{"NoteNumber":45,"Velocity":40,"Duration":778286,"SoundDuration":778286,"Delta":76400505},{"NoteNumber":66,"Velocity":52,"Duration":257356,"SoundDuration":257356,"Delta":76657861},{"NoteNumber":52,"Velocity":31,"Duration":257356,"SoundDuration":257356,"Delta":76657861},{"NoteNumber":68,"Velocity":56,"Duration":263574,"SoundDuration":263574,"Delta":76915217},{"NoteNumber":57,"Velocity":40,"Duration":263574,"SoundDuration":263574,"Delta":76915217},{"NoteNumber":69,"Velocity":64,"Duration":125219,"SoundDuration":125219,"Delta":77178791},{"NoteNumber":45,"Velocity":56,"Duration":125219,"SoundDuration":125219,"Delta":77178791},{"NoteNumber":73,"Velocity":50,"Duration":125219,"SoundDuration":125219,"Delta":77304010},{"NoteNumber":76,"Velocity":55,"Duration":125219,"SoundDuration":125219,"Delta":77429230},{"NoteNumber":73,"Velocity":50,"Duration":125219,"SoundDuration":125219,"Delta":77554449},{"NoteNumber":76,"Velocity":55,"Duration":125219,"SoundDuration":125219,"Delta":77679668},{"NoteNumber":73,"Velocity":50,"Duration":134180,"SoundDuration":134180,"Delta":77804887},{"NoteNumber":71,"Velocity":62,"Duration":125743,"SoundDuration":125743,"Delta":77939068},{"NoteNumber":38,"Velocity":56,"Duration":125743,"SoundDuration":125743,"Delta":77939068},{"NoteNumber":50,"Velocity":56,"Duration":125743,"SoundDuration":125743,"Delta":77939068},{"NoteNumber":74,"Velocity":50,"Duration":125743,"SoundDuration":125743,"Delta":78064812},{"NoteNumber":78,"Velocity":54,"Duration":125744,"SoundDuration":125744,"Delta":78190556},{"NoteNumber":74,"Velocity":50,"Duration":125743,"SoundDuration":125743,"Delta":78316300},{"NoteNumber":78,"Velocity":54,"Duration":125743,"SoundDuration":125743,"Delta":78442044},{"NoteNumber":74,"Velocity":50,"Duration":136004,"SoundDuration":136004,"Delta":78567788},{"NoteNumber":73,"Velocity":64,"Duration":125219,"SoundDuration":125219,"Delta":78703793},{"NoteNumber":40,"Velocity":56,"Duration":125219,"SoundDuration":125219,"Delta":78703793},{"NoteNumber":52,"Velocity":56,"Duration":125219,"SoundDuration":125219,"Delta":78703793},{"NoteNumber":76,"Velocity":50,"Duration":125219,"SoundDuration":125219,"Delta":78829012},{"NoteNumber":73,"Velocity":55,"Duration":125219,"SoundDuration":125219,"Delta":78954231},{"NoteNumber":76,"Velocity":50,"Duration":125219,"SoundDuration":125219,"Delta":79079450},{"NoteNumber":69,"Velocity":55,"Duration":125219,"SoundDuration":125219,"Delta":79204670},{"NoteNumber":73,"Velocity":50,"Duration":134782,"SoundDuration":134782,"Delta":79329889},{"NoteNumber":71,"Velocity":62,"Duration":125245,"SoundDuration":125245,"Delta":79464672},{"NoteNumber":40,"Velocity":56,"Duration":125245,"SoundDuration":125245,"Delta":79464672},{"NoteNumber":52,"Velocity":56,"Duration":125245,"SoundDuration":125245,"Delta":79464672},{"NoteNumber":74,"Velocity":50,"Duration":125854,"SoundDuration":125854,"Delta":79589917},{"NoteNumber":71,"Velocity":54,"Duration":126468,"SoundDuration":126468,"Delta":79715772},{"NoteNumber":74,"Velocity":50,"Duration":127089,"SoundDuration":127089,"Delta":79842241},{"NoteNumber":68,"Velocity":54,"Duration":127743,"SoundDuration":127743,"Delta":79969330},{"NoteNumber":71,"Velocity":50,"Duration":138516,"SoundDuration":138516,"Delta":80097074},{"NoteNumber":69,"Velocity":44,"Duration":387863,"SoundDuration":387863,"Delta":80235591},{"NoteNumber":45,"Velocity":29,"Duration":779757,"SoundDuration":779757,"Delta":80235591},{"NoteNumber":52,"Velocity":25,"Duration":258575,"SoundDuration":258575,"Delta":80494167},{"NoteNumber":71,"Velocity":39,"Duration":129288,"SoundDuration":129288,"Delta":80623455},{"NoteNumber":73,"Velocity":41,"Duration":126871,"SoundDuration":126871,"Delta":80752743},{"NoteNumber":57,"Velocity":25,"Duration":262605,"SoundDuration":262605,"Delta":80752743},{"NoteNumber":69,"Velocity":39,"Duration":135734,"SoundDuration":135734,"Delta":80879614},{"NoteNumber":64,"Velocity":44,"Duration":258576,"SoundDuration":258576,"Delta":81015348},{"NoteNumber":45,"Velocity":29,"Duration":780726,"SoundDuration":780726,"Delta":81015348},{"NoteNumber":73,"Velocity":41,"Duration":258575,"SoundDuration":258575,"Delta":81273924},{"NoteNumber":52,"Velocity":26,"Duration":258575,"SoundDuration":258575,"Delta":81273924},{"NoteNumber":76,"Velocity":41,"Duration":263574,"SoundDuration":263574,"Delta":81532500},{"NoteNumber":57,"Velocity":26,"Duration":263574,"SoundDuration":263574,"Delta":81532500},{"NoteNumber":74,"Velocity":44,"Duration":257356,"SoundDuration":257356,"Delta":81796074},{"NoteNumber":45,"Velocity":29,"Duration":778286,"SoundDuration":778286,"Delta":81796074},{"NoteNumber":71,"Velocity":40,"Duration":257356,"SoundDuration":257356,"Delta":82053430},{"NoteNumber":52,"Velocity":25,"Duration":257356,"SoundDuration":257356,"Delta":82053430},{"NoteNumber":68,"Velocity":40,"Duration":263574,"SoundDuration":263574,"Delta":82310786},{"NoteNumber":57,"Velocity":25,"Duration":263574,"SoundDuration":263574,"Delta":82310786},{"NoteNumber":64,"Velocity":44,"Duration":257356,"SoundDuration":257356,"Delta":82574360},{"NoteNumber":45,"Velocity":29,"Duration":778286,"SoundDuration":778286,"Delta":82574360},{"NoteNumber":66,"Velocity":41,"Duration":257356,"SoundDuration":257356,"Delta":82831716},{"NoteNumber":52,"Velocity":29,"Duration":257356,"SoundDuration":257356,"Delta":82831716},{"NoteNumber":68,"Velocity":41,"Duration":263574,"SoundDuration":263574,"Delta":83089072},{"NoteNumber":57,"Velocity":29,"Duration":263574,"SoundDuration":263574,"Delta":83089072},{"NoteNumber":69,"Velocity":44,"Duration":387863,"SoundDuration":387863,"Delta":83352646},{"NoteNumber":45,"Velocity":29,"Duration":779757,"SoundDuration":779757,"Delta":83352646},{"NoteNumber":52,"Velocity":25,"Duration":258575,"SoundDuration":258575,"Delta":83611222},{"NoteNumber":71,"Velocity":39,"Duration":129288,"SoundDuration":129288,"Delta":83740510},{"NoteNumber":73,"Velocity":41,"Duration":126871,"SoundDuration":126871,"Delta":83869798},{"NoteNumber":57,"Velocity":25,"Duration":262605,"SoundDuration":262605,"Delta":83869798},{"NoteNumber":69,"Velocity":39,"Duration":135734,"SoundDuration":135734,"Delta":83996670},{"NoteNumber":64,"Velocity":44,"Duration":258576,"SoundDuration":258576,"Delta":84132404},{"NoteNumber":45,"Velocity":29,"Duration":780726,"SoundDuration":780726,"Delta":84132404},{"NoteNumber":73,"Velocity":41,"Duration":258575,"SoundDuration":258575,"Delta":84390980},{"NoteNumber":52,"Velocity":26,"Duration":258575,"SoundDuration":258575,"Delta":84390980},{"NoteNumber":76,"Velocity":41,"Duration":263574,"SoundDuration":263574,"Delta":84649556},{"NoteNumber":57,"Velocity":26,"Duration":263574,"SoundDuration":263574,"Delta":84649556},{"NoteNumber":74,"Velocity":44,"Duration":257356,"SoundDuration":257356,"Delta":84913130},{"NoteNumber":45,"Velocity":29,"Duration":778286,"SoundDuration":778286,"Delta":84913130},{"NoteNumber":71,"Velocity":40,"Duration":128677,"SoundDuration":128677,"Delta":85170486},{"NoteNumber":52,"Velocity":25,"Duration":257356,"SoundDuration":257356,"Delta":85170486},{"NoteNumber":74,"Velocity":35,"Duration":128678,"SoundDuration":128678,"Delta":85299164},{"NoteNumber":68,"Velocity":40,"Duration":131787,"SoundDuration":131787,"Delta":85427842},{"NoteNumber":57,"Velocity":25,"Duration":263574,"SoundDuration":263574,"Delta":85427842},{"NoteNumber":71,"Velocity":37,"Duration":131787,"SoundDuration":131787,"Delta":85559629},{"NoteNumber":64,"Velocity":44,"Duration":257356,"SoundDuration":257356,"Delta":85691416},{"NoteNumber":45,"Velocity":29,"Duration":778286,"SoundDuration":778286,"Delta":85691416},{"NoteNumber":66,"Velocity":41,"Duration":257356,"SoundDuration":257356,"Delta":85948772},{"NoteNumber":52,"Velocity":29,"Duration":257356,"SoundDuration":257356,"Delta":85948772},{"NoteNumber":68,"Velocity":41,"Duration":263574,"SoundDuration":263574,"Delta":86206128},{"NoteNumber":57,"Velocity":29,"Duration":263574,"SoundDuration":263574,"Delta":86206128},{"NoteNumber":69,"Velocity":64,"Duration":125219,"SoundDuration":125219,"Delta":86469702},{"NoteNumber":45,"Velocity":56,"Duration":250438,"SoundDuration":250438,"Delta":86469702},{"NoteNumber":73,"Velocity":50,"Duration":125219,"SoundDuration":125219,"Delta":86594921},{"NoteNumber":76,"Velocity":55,"Duration":125219,"SoundDuration":125219,"Delta":86720140},{"NoteNumber":57,"Velocity":50,"Duration":125219,"SoundDuration":125219,"Delta":86720140},{"NoteNumber":81,"Velocity":50,"Duration":125219,"SoundDuration":125219,"Delta":86845360},{"NoteNumber":76,"Velocity":55,"Duration":125219,"SoundDuration":125219,"Delta":86970579},{"NoteNumber":57,"Velocity":50,"Duration":125219,"SoundDuration":125219,"Delta":86970579},{"NoteNumber":73,"Velocity":50,"Duration":134180,"SoundDuration":134180,"Delta":87095798},{"NoteNumber":71,"Velocity":62,"Duration":125743,"SoundDuration":125743,"Delta":87229978},{"NoteNumber":38,"Velocity":56,"Duration":251487,"SoundDuration":251487,"Delta":87229978},{"NoteNumber":74,"Velocity":50,"Duration":125743,"SoundDuration":125743,"Delta":87355722},{"NoteNumber":78,"Velocity":54,"Duration":125744,"SoundDuration":125744,"Delta":87481466},{"NoteNumber":50,"Velocity":49,"Duration":125744,"SoundDuration":125744,"Delta":87481466},{"NoteNumber":74,"Velocity":50,"Duration":125743,"SoundDuration":125743,"Delta":87607210},{"NoteNumber":78,"Velocity":54,"Duration":125743,"SoundDuration":125743,"Delta":87732954},{"NoteNumber":50,"Velocity":48,"Duration":125743,"SoundDuration":125743,"Delta":87732954},{"NoteNumber":74,"Velocity":50,"Duration":136004,"SoundDuration":136004,"Delta":87858698},{"NoteNumber":73,"Velocity":57,"Duration":128403,"SoundDuration":128403,"Delta":87994703},{"NoteNumber":40,"Velocity":56,"Duration":256292,"SoundDuration":256292,"Delta":87994703},{"NoteNumber":76,"Velocity":59,"Duration":127888,"SoundDuration":127888,"Delta":88123107},{"NoteNumber":74,"Velocity":57,"Duration":128093,"SoundDuration":128093,"Delta":88250995},{"NoteNumber":52,"Velocity":50,"Duration":128093,"SoundDuration":128093,"Delta":88250995},{"NoteNumber":73,"Velocity":56,"Duration":128435,"SoundDuration":128435,"Delta":88379089},{"NoteNumber":71,"Velocity":56,"Duration":128817,"SoundDuration":128817,"Delta":88507525},{"NoteNumber":52,"Velocity":50,"Duration":128817,"SoundDuration":128817,"Delta":88507525},{"NoteNumber":69,"Velocity":53,"Duration":129108,"SoundDuration":129108,"Delta":88636342},{"NoteNumber":68,"Velocity":55,"Duration":129544,"SoundDuration":129544,"Delta":88765451},{"NoteNumber":40,"Velocity":56,"Duration":259389,"SoundDuration":259389,"Delta":88765451},{"NoteNumber":66,"Velocity":54,"Duration":129844,"SoundDuration":129844,"Delta":88894996},{"NoteNumber":64,"Velocity":54,"Duration":130139,"SoundDuration":130139,"Delta":89024840},{"NoteNumber":52,"Velocity":49,"Duration":130139,"SoundDuration":130139,"Delta":89024840},{"NoteNumber":62,"Velocity":54,"Duration":130673,"SoundDuration":130673,"Delta":89154980},{"NoteNumber":61,"Velocity":52,"Duration":130887,"SoundDuration":130887,"Delta":89285654},{"NoteNumber":52,"Velocity":48,"Duration":130887,"SoundDuration":130887,"Delta":89285654},{"NoteNumber":59,"Velocity":50,"Duration":131245,"SoundDuration":131245,"Delta":89416541},{"NoteNumber":57,"Velocity":54,"Duration":131764,"SoundDuration":131764,"Delta":89547786},{"NoteNumber":33,"Velocity":43,"Duration":1589141,"SoundDuration":1589141,"Delta":89547786},{"NoteNumber":45,"Velocity":51,"Duration":1589141,"SoundDuration":1589141,"Delta":89547786},{"NoteNumber":59,"Velocity":49,"Duration":131821,"SoundDuration":131821,"Delta":89679550},{"NoteNumber":57,"Velocity":52,"Duration":131821,"SoundDuration":131821,"Delta":89811372},{"NoteNumber":56,"Velocity":47,"Duration":131821,"SoundDuration":131821,"Delta":89943194},{"NoteNumber":57,"Velocity":50,"Duration":131821,"SoundDuration":131821,"Delta":90075016},{"NoteNumber":59,"Velocity":51,"Duration":131821,"SoundDuration":131821,"Delta":90206837},{"NoteNumber":61,"Velocity":54,"Duration":131821,"SoundDuration":131821,"Delta":90338659},{"NoteNumber":62,"Velocity":53,"Duration":131821,"SoundDuration":131821,"Delta":90470481},{"NoteNumber":64,"Velocity":54,"Duration":131821,"SoundDuration":131821,"Delta":90602303},{"NoteNumber":66,"Velocity":50,"Duration":131821,"SoundDuration":131821,"Delta":90734124},{"NoteNumber":67,"Velocity":54,"Duration":131821,"SoundDuration":131821,"Delta":90865946},{"NoteNumber":68,"Velocity":55,"Duration":139159,"SoundDuration":139159,"Delta":90997768},{"NoteNumber":69,"Velocity":58,"Duration":132036,"SoundDuration":132036,"Delta":91136927},{"NoteNumber":71,"Velocity":47,"Duration":131244,"SoundDuration":131244,"Delta":91268964},{"NoteNumber":69,"Velocity":54,"Duration":130792,"SoundDuration":130792,"Delta":91400209},{"NoteNumber":68,"Velocity":50,"Duration":130612,"SoundDuration":130612,"Delta":91531001},{"NoteNumber":69,"Velocity":57,"Duration":130106,"SoundDuration":130106,"Delta":91661614},{"NoteNumber":71,"Velocity":53,"Duration":129750,"SoundDuration":129750,"Delta":91791720},{"NoteNumber":73,"Velocity":57,"Duration":129544,"SoundDuration":129544,"Delta":91921471},{"NoteNumber":74,"Velocity":58,"Duration":129544,"SoundDuration":129544,"Delta":92051016},{"NoteNumber":76,"Velocity":59,"Duration":129249,"SoundDuration":129249,"Delta":92180561},{"NoteNumber":78,"Velocity":60,"Duration":129146,"SoundDuration":129146,"Delta":92309810},{"NoteNumber":79,"Velocity":61,"Duration":130532,"SoundDuration":130532,"Delta":92438956},{"NoteNumber":80,"Velocity":64,"Duration":132871,"SoundDuration":132871,"Delta":92569489},{"NoteNumber":81,"Velocity":40,"Duration":67090,"SoundDuration":67090,"Delta":92702360},{"NoteNumber":83,"Velocity":36,"Duration":66945,"SoundDuration":66945,"Delta":92769451},{"NoteNumber":81,"Velocity":40,"Duration":66791,"SoundDuration":66791,"Delta":92836396},{"NoteNumber":83,"Velocity":37,"Duration":66677,"SoundDuration":66677,"Delta":92903188},{"NoteNumber":81,"Velocity":41,"Duration":66495,"SoundDuration":66495,"Delta":92969865},{"NoteNumber":83,"Velocity":38,"Duration":66416,"SoundDuration":66416,"Delta":93036361},{"NoteNumber":81,"Velocity":42,"Duration":66201,"SoundDuration":66201,"Delta":93102778},{"NoteNumber":83,"Velocity":38,"Duration":66153,"SoundDuration":66153,"Delta":93168979},{"NoteNumber":81,"Velocity":43,"Duration":65910,"SoundDuration":65910,"Delta":93235133},{"NoteNumber":83,"Velocity":38,"Duration":65891,"SoundDuration":65891,"Delta":93301044},{"NoteNumber":81,"Velocity":45,"Duration":65622,"SoundDuration":65622,"Delta":93366935},{"NoteNumber":83,"Velocity":39,"Duration":65622,"SoundDuration":65622,"Delta":93432558},{"NoteNumber":81,"Velocity":45,"Duration":65630,"SoundDuration":65630,"Delta":93498180},{"NoteNumber":61,"Velocity":38,"Duration":98063,"SoundDuration":98063,"Delta":93498180},{"NoteNumber":64,"Velocity":45,"Duration":98063,"SoundDuration":98063,"Delta":93498180},{"NoteNumber":83,"Velocity":41,"Duration":65594,"SoundDuration":65594,"Delta":93563810},{"NoteNumber":81,"Velocity":45,"Duration":65919,"SoundDuration":65919,"Delta":93629405},{"NoteNumber":83,"Velocity":41,"Duration":65721,"SoundDuration":65721,"Delta":93695325},{"NoteNumber":81,"Velocity":45,"Duration":65422,"SoundDuration":65422,"Delta":93761046},{"NoteNumber":61,"Velocity":34,"Duration":98661,"SoundDuration":98661,"Delta":93761046},{"NoteNumber":64,"Velocity":40,"Duration":98661,"SoundDuration":98661,"Delta":93761046},{"NoteNumber":83,"Velocity":41,"Duration":65579,"SoundDuration":65579,"Delta":93826468},{"NoteNumber":81,"Velocity":45,"Duration":65919,"SoundDuration":65919,"Delta":93892048},{"NoteNumber":83,"Velocity":41,"Duration":65528,"SoundDuration":65528,"Delta":93957967},{"NoteNumber":81,"Velocity":45,"Duration":66701,"SoundDuration":66701,"Delta":94023496},{"NoteNumber":64,"Velocity":40,"Duration":101121,"SoundDuration":101121,"Delta":94023496},{"NoteNumber":61,"Velocity":34,"Duration":101121,"SoundDuration":101121,"Delta":94023496},{"NoteNumber":83,"Velocity":40,"Duration":67916,"SoundDuration":67916,"Delta":94090197},{"NoteNumber":81,"Velocity":46,"Duration":67603,"SoundDuration":67603,"Delta":94158114},{"NoteNumber":83,"Velocity":40,"Duration":67751,"SoundDuration":67751,"Delta":94225717},{"NoteNumber":81,"Velocity":45,"Duration":65397,"SoundDuration":65397,"Delta":94293468},{"NoteNumber":59,"Velocity":39,"Duration":528231,"SoundDuration":528231,"Delta":94293468},{"NoteNumber":62,"Velocity":46,"Duration":528231,"SoundDuration":528231,"Delta":94293468},{"NoteNumber":83,"Velocity":41,"Duration":66127,"SoundDuration":66127,"Delta":94358865},{"NoteNumber":81,"Velocity":44,"Duration":66146,"SoundDuration":66146,"Delta":94424993},{"NoteNumber":83,"Velocity":40,"Duration":65992,"SoundDuration":65992,"Delta":94491140},{"NoteNumber":81,"Velocity":44,"Duration":66716,"SoundDuration":66716,"Delta":94557132},{"NoteNumber":83,"Velocity":40,"Duration":65365,"SoundDuration":65365,"Delta":94623849},{"NoteNumber":81,"Velocity":43,"Duration":66185,"SoundDuration":66185,"Delta":94689215},{"NoteNumber":83,"Velocity":39,"Duration":66299,"SoundDuration":66299,"Delta":94755400},{"NoteNumber":81,"Velocity":43,"Duration":67072,"SoundDuration":67072,"Delta":94821700},{"NoteNumber":57,"Velocity":30,"Duration":270770,"SoundDuration":270770,"Delta":94821700},{"NoteNumber":61,"Velocity":36,"Duration":270770,"SoundDuration":270770,"Delta":94821700},{"NoteNumber":83,"Velocity":38,"Duration":67434,"SoundDuration":67434,"Delta":94888772},{"NoteNumber":81,"Velocity":43,"Duration":67863,"SoundDuration":67863,"Delta":94956207},{"NoteNumber":83,"Velocity":37,"Duration":68399,"SoundDuration":68399,"Delta":95024071},{"NoteNumber":81,"Velocity":42,"Duration":67379,"SoundDuration":67379,"Delta":95092471},{"NoteNumber":67,"Velocity":42,"Duration":101145,"SoundDuration":101145,"Delta":95092471},{"NoteNumber":64,"Velocity":35,"Duration":101145,"SoundDuration":101145,"Delta":95092471},{"NoteNumber":83,"Velocity":38,"Duration":67373,"SoundDuration":67373,"Delta":95159850},{"NoteNumber":81,"Velocity":41,"Duration":67186,"SoundDuration":67186,"Delta":95227224},{"NoteNumber":83,"Velocity":37,"Duration":67291,"SoundDuration":67291,"Delta":95294410},{"NoteNumber":81,"Velocity":40,"Duration":64281,"SoundDuration":64281,"Delta":95361701},{"NoteNumber":64,"Velocity":29,"Duration":96904,"SoundDuration":96904,"Delta":95361701},{"NoteNumber":67,"Velocity":35,"Duration":96904,"SoundDuration":96904,"Delta":95361701},{"NoteNumber":83,"Velocity":37,"Duration":65245,"SoundDuration":65245,"Delta":95425983},{"NoteNumber":81,"Velocity":40,"Duration":65111,"SoundDuration":65111,"Delta":95491229},{"NoteNumber":83,"Velocity":36,"Duration":64684,"SoundDuration":64684,"Delta":95556341},{"NoteNumber":81,"Velocity":40,"Duration":68940,"SoundDuration":68940,"Delta":95621025},{"NoteNumber":67,"Velocity":31,"Duration":103410,"SoundDuration":103410,"Delta":95621025},{"NoteNumber":64,"Velocity":26,"Duration":103410,"SoundDuration":103410,"Delta":95621025},{"NoteNumber":83,"Velocity":35,"Duration":68940,"SoundDuration":68940,"Delta":95689965},{"NoteNumber":81,"Velocity":40,"Duration":67391,"SoundDuration":67391,"Delta":95758905},{"NoteNumber":83,"Velocity":34,"Duration":67391,"SoundDuration":67391,"Delta":95826297},{"NoteNumber":81,"Velocity":39,"Duration":67391,"SoundDuration":67391,"Delta":95893688},{"NoteNumber":62,"Velocity":34,"Duration":802959,"SoundDuration":802959,"Delta":95893688},{"NoteNumber":66,"Velocity":41,"Duration":802959,"SoundDuration":802959,"Delta":95893688},{"NoteNumber":83,"Velocity":35,"Duration":67312,"SoundDuration":67312,"Delta":95961080},{"NoteNumber":81,"Velocity":38,"Duration":67232,"SoundDuration":67232,"Delta":96028392},{"NoteNumber":83,"Velocity":34,"Duration":67391,"SoundDuration":67391,"Delta":96095625},{"NoteNumber":81,"Velocity":38,"Duration":67170,"SoundDuration":67170,"Delta":96163016},{"NoteNumber":83,"Velocity":34,"Duration":67090,"SoundDuration":67090,"Delta":96230187},{"NoteNumber":81,"Velocity":37,"Duration":66910,"SoundDuration":66910,"Delta":96297277},{"NoteNumber":83,"Velocity":34,"Duration":66791,"SoundDuration":66791,"Delta":96364188},{"NoteNumber":81,"Velocity":36,"Duration":66613,"SoundDuration":66613,"Delta":96430979},{"NoteNumber":83,"Velocity":32,"Duration":66495,"SoundDuration":66495,"Delta":96497593},{"NoteNumber":81,"Velocity":37,"Duration":66358,"SoundDuration":66358,"Delta":96564088},{"NoteNumber":83,"Velocity":32,"Duration":66201,"SoundDuration":66201,"Delta":96630446},{"NoteNumber":81,"Velocity":36,"Duration":66066,"SoundDuration":66066,"Delta":96696648},{"NoteNumber":64,"Velocity":31,"Duration":898330,"SoundDuration":898330,"Delta":96696648},{"NoteNumber":61,"Velocity":26,"Duration":898330,"SoundDuration":898330,"Delta":96696648},{"NoteNumber":83,"Velocity":32,"Duration":66299,"SoundDuration":66299,"Delta":96762714},{"NoteNumber":81,"Velocity":35,"Duration":66771,"SoundDuration":66771,"Delta":96829014},{"NoteNumber":83,"Velocity":31,"Duration":67851,"SoundDuration":67851,"Delta":96895786},{"NoteNumber":81,"Velocity":35,"Duration":94627,"SoundDuration":94627,"Delta":96963637},{"NoteNumber":83,"Velocity":30,"Duration":98350,"SoundDuration":98350,"Delta":97058265},{"NoteNumber":81,"Velocity":29,"Duration":102378,"SoundDuration":102378,"Delta":97156616},{"NoteNumber":80,"Velocity":46,"Duration":167991,"SoundDuration":167991,"Delta":97258995},{"NoteNumber":81,"Velocity":41,"Duration":167991,"SoundDuration":167991,"Delta":97426987},{"NoteNumber":69,"Velocity":50,"Duration":131636,"SoundDuration":131636,"Delta":98602931},{"NoteNumber":66,"Velocity":42,"Duration":131636,"SoundDuration":131636,"Delta":98602931},{"NoteNumber":69,"Velocity":47,"Duration":131636,"SoundDuration":131636,"Delta":98866204},{"NoteNumber":66,"Velocity":39,"Duration":131636,"SoundDuration":131636,"Delta":98866204},{"NoteNumber":66,"Velocity":39,"Duration":135037,"SoundDuration":135037,"Delta":99129478},{"NoteNumber":69,"Velocity":47,"Duration":135037,"SoundDuration":135037,"Delta":99129478},{"NoteNumber":71,"Velocity":58,"Duration":503482,"SoundDuration":503482,"Delta":99399553},{"NoteNumber":67,"Velocity":49,"Duration":503482,"SoundDuration":503482,"Delta":99399553},{"NoteNumber":50,"Velocity":40,"Duration":125870,"SoundDuration":125870,"Delta":99399553},{"NoteNumber":50,"Velocity":37,"Duration":125870,"SoundDuration":125870,"Delta":99651294},{"NoteNumber":69,"Velocity":46,"Duration":257576,"SoundDuration":257576,"Delta":99903035},{"NoteNumber":66,"Velocity":39,"Duration":257576,"SoundDuration":257576,"Delta":99903035},{"NoteNumber":50,"Velocity":37,"Duration":128788,"SoundDuration":128788,"Delta":99903035},{"NoteNumber":74,"Velocity":50,"Duration":251740,"SoundDuration":251740,"Delta":100160612},{"NoteNumber":69,"Velocity":48,"Duration":251741,"SoundDuration":251741,"Delta":100412353},{"NoteNumber":66,"Velocity":48,"Duration":251740,"SoundDuration":251740,"Delta":100664094},{"NoteNumber":69,"Velocity":50,"Duration":251740,"SoundDuration":251740,"Delta":100915835},{"NoteNumber":64,"Velocity":50,"Duration":503482,"SoundDuration":503482,"Delta":100915835},{"NoteNumber":50,"Velocity":40,"Duration":125870,"SoundDuration":125870,"Delta":100915835},{"NoteNumber":67,"Velocity":47,"Duration":251741,"SoundDuration":251741,"Delta":101167576},{"NoteNumber":50,"Velocity":36,"Duration":125870,"SoundDuration":125870,"Delta":101167576},{"NoteNumber":62,"Velocity":39,"Duration":258776,"SoundDuration":258776,"Delta":101419317},{"NoteNumber":66,"Velocity":47,"Duration":258776,"SoundDuration":258776,"Delta":101419317},{"NoteNumber":50,"Velocity":36,"Duration":129388,"SoundDuration":129388,"Delta":101419317},{"NoteNumber":74,"Velocity":42,"Duration":251740,"SoundDuration":251740,"Delta":101678094},{"NoteNumber":78,"Velocity":50,"Duration":251740,"SoundDuration":251740,"Delta":101678094},{"NoteNumber":79,"Velocity":50,"Duration":250605,"SoundDuration":250605,"Delta":101929835},{"NoteNumber":76,"Velocity":42,"Duration":250605,"SoundDuration":250605,"Delta":101929835},{"NoteNumber":81,"Velocity":55,"Duration":250605,"SoundDuration":250605,"Delta":102180441},{"NoteNumber":78,"Velocity":46,"Duration":250605,"SoundDuration":250605,"Delta":102180441},{"NoteNumber":81,"Velocity":57,"Duration":250605,"SoundDuration":250605,"Delta":102431046},{"NoteNumber":78,"Velocity":48,"Duration":250605,"SoundDuration":250605,"Delta":102431046},{"NoteNumber":67,"Velocity":40,"Duration":187954,"SoundDuration":187954,"Delta":102431046},{"NoteNumber":76,"Velocity":45,"Duration":187954,"SoundDuration":187954,"Delta":102681652},{"NoteNumber":79,"Velocity":53,"Duration":187954,"SoundDuration":187954,"Delta":102681652},{"NoteNumber":67,"Velocity":40,"Duration":125302,"SoundDuration":125302,"Delta":102681652},{"NoteNumber":76,"Velocity":40,"Duration":125302,"SoundDuration":125302,"Delta":102932257},{"NoteNumber":79,"Velocity":48,"Duration":125302,"SoundDuration":125302,"Delta":102932257},{"NoteNumber":67,"Velocity":42,"Duration":125302,"SoundDuration":125302,"Delta":102932257},{"NoteNumber":78,"Velocity":50,"Duration":257621,"SoundDuration":257621,"Delta":103185754},{"NoteNumber":74,"Velocity":42,"Duration":257621,"SoundDuration":257621,"Delta":103185754},{"NoteNumber":68,"Velocity":44,"Duration":193216,"SoundDuration":193216,"Delta":103185754},{"NoteNumber":76,"Velocity":47,"Duration":262123,"SoundDuration":262123,"Delta":103443376},{"NoteNumber":73,"Velocity":39,"Duration":262123,"SoundDuration":262123,"Delta":103443376},{"NoteNumber":68,"Velocity":45,"Duration":131061,"SoundDuration":131061,"Delta":103443376},{"NoteNumber":78,"Velocity":47,"Duration":133737,"SoundDuration":133737,"Delta":103705499},{"NoteNumber":74,"Velocity":39,"Duration":133737,"SoundDuration":133737,"Delta":103705499},{"NoteNumber":68,"Velocity":37,"Duration":133737,"SoundDuration":133737,"Delta":103706613},{"NoteNumber":73,"Velocity":39,"Duration":188805,"SoundDuration":188805,"Delta":103972974},{"NoteNumber":76,"Velocity":47,"Duration":188805,"SoundDuration":188805,"Delta":103972974},{"NoteNumber":69,"Velocity":40,"Duration":188805,"SoundDuration":188805,"Delta":103972974},{"NoteNumber":69,"Velocity":38,"Duration":125870,"SoundDuration":125870,"Delta":104224715},{"NoteNumber":69,"Velocity":38,"Duration":135037,"SoundDuration":135037,"Delta":104476456},{"NoteNumber":66,"Velocity":34,"Duration":131221,"SoundDuration":131221,"Delta":104746531},{"NoteNumber":69,"Velocity":40,"Duration":131221,"SoundDuration":131221,"Delta":104746531},{"NoteNumber":66,"Velocity":31,"Duration":131221,"SoundDuration":131221,"Delta":105008975},{"NoteNumber":69,"Velocity":37,"Duration":131221,"SoundDuration":131221,"Delta":105008975},{"NoteNumber":69,"Velocity":37,"Duration":135037,"SoundDuration":135037,"Delta":105271419},{"NoteNumber":66,"Velocity":31,"Duration":135037,"SoundDuration":135037,"Delta":105271419},{"NoteNumber":71,"Velocity":46,"Duration":503482,"SoundDuration":503482,"Delta":105541495},{"NoteNumber":67,"Velocity":39,"Duration":503482,"SoundDuration":503482,"Delta":105541495},{"NoteNumber":50,"Velocity":32,"Duration":125870,"SoundDuration":125870,"Delta":105541495},{"NoteNumber":50,"Velocity":29,"Duration":125870,"SoundDuration":125870,"Delta":105793236},{"NoteNumber":66,"Velocity":30,"Duration":257576,"SoundDuration":257576,"Delta":106044977},{"NoteNumber":69,"Velocity":36,"Duration":257576,"SoundDuration":257576,"Delta":106044977},{"NoteNumber":50,"Velocity":29,"Duration":128788,"SoundDuration":128788,"Delta":106044977},{"NoteNumber":74,"Velocity":40,"Duration":251740,"SoundDuration":251740,"Delta":106302554},{"NoteNumber":69,"Velocity":38,"Duration":251741,"SoundDuration":251741,"Delta":106554295},{"NoteNumber":66,"Velocity":38,"Duration":251740,"SoundDuration":251740,"Delta":106806036},{"NoteNumber":69,"Velocity":40,"Duration":252887,"SoundDuration":252887,"Delta":107057777},{"NoteNumber":64,"Velocity":34,"Duration":505774,"SoundDuration":505774,"Delta":107057777},{"NoteNumber":50,"Velocity":32,"Duration":126443,"SoundDuration":126443,"Delta":107057777},{"NoteNumber":67,"Velocity":37,"Duration":252887,"SoundDuration":252887,"Delta":107310664},{"NoteNumber":50,"Velocity":28,"Duration":126443,"SoundDuration":126443,"Delta":107310664},{"NoteNumber":66,"Velocity":37,"Duration":258776,"SoundDuration":258776,"Delta":107563551},{"NoteNumber":62,"Velocity":31,"Duration":258776,"SoundDuration":258776,"Delta":107563551},{"NoteNumber":50,"Velocity":28,"Duration":129388,"SoundDuration":129388,"Delta":107563551},{"NoteNumber":81,"Velocity":46,"Duration":124863,"SoundDuration":124863,"Delta":107822328},{"NoteNumber":79,"Velocity":43,"Duration":124786,"SoundDuration":124786,"Delta":107947192},{"NoteNumber":78,"Velocity":43,"Duration":125567,"SoundDuration":125567,"Delta":108071978},{"NoteNumber":76,"Velocity":42,"Duration":126636,"SoundDuration":126636,"Delta":108197546},{"NoteNumber":74,"Velocity":42,"Duration":127411,"SoundDuration":127411,"Delta":108324182},{"NoteNumber":73,"Velocity":42,"Duration":128511,"SoundDuration":128511,"Delta":108451593},{"NoteNumber":71,"Velocity":40,"Duration":125870,"SoundDuration":125870,"Delta":108580105},{"NoteNumber":67,"Velocity":32,"Duration":125870,"SoundDuration":125870,"Delta":108580105},{"NoteNumber":71,"Velocity":37,"Duration":125870,"SoundDuration":125870,"Delta":108831846},{"NoteNumber":67,"Velocity":29,"Duration":125870,"SoundDuration":125870,"Delta":108831846},{"NoteNumber":71,"Velocity":37,"Duration":129388,"SoundDuration":129388,"Delta":109083587},{"NoteNumber":67,"Velocity":29,"Duration":129388,"SoundDuration":129388,"Delta":109083587},{"NoteNumber":74,"Velocity":32,"Duration":32347,"SoundDuration":32347,"Delta":109310016},{"NoteNumber":73,"Velocity":42,"Duration":125870,"SoundDuration":125870,"Delta":109342364},{"NoteNumber":57,"Velocity":27,"Duration":125870,"SoundDuration":125870,"Delta":109342364},{"NoteNumber":67,"Velocity":32,"Duration":125870,"SoundDuration":125870,"Delta":109342364},{"NoteNumber":64,"Velocity":27,"Duration":125870,"SoundDuration":125870,"Delta":109342364},{"NoteNumber":71,"Velocity":38,"Duration":125870,"SoundDuration":125870,"Delta":109594105},{"NoteNumber":64,"Velocity":24,"Duration":125870,"SoundDuration":125870,"Delta":109594105},{"NoteNumber":57,"Velocity":24,"Duration":125870,"SoundDuration":125870,"Delta":109594105},{"NoteNumber":67,"Velocity":29,"Duration":125870,"SoundDuration":125870,"Delta":109594105},{"NoteNumber":73,"Velocity":38,"Duration":127605,"SoundDuration":127605,"Delta":109845846},{"NoteNumber":57,"Velocity":24,"Duration":127605,"SoundDuration":127605,"Delta":109845846},{"NoteNumber":64,"Velocity":24,"Duration":127605,"SoundDuration":127605,"Delta":109845846},{"NoteNumber":67,"Velocity":29,"Duration":127605,"SoundDuration":127605,"Delta":109845846},{"NoteNumber":74,"Velocity":38,"Duration":125870,"SoundDuration":125870,"Delta":110101056},{"NoteNumber":66,"Velocity":32,"Duration":497924,"SoundDuration":497924,"Delta":110101056},{"NoteNumber":62,"Velocity":32,"Duration":497924,"SoundDuration":497924,"Delta":110101056},{"NoteNumber":78,"Velocity":55,"Duration":123091,"SoundDuration":123091,"Delta":110352797},{"NoteNumber":74,"Velocity":49,"Duration":123091,"SoundDuration":123091,"Delta":110475889},{"NoteNumber":78,"Velocity":59,"Duration":120530,"SoundDuration":120530,"Delta":110598981},{"NoteNumber":74,"Velocity":51,"Duration":140252,"SoundDuration":140252,"Delta":110719511},{"NoteNumber":69,"Velocity":59,"Duration":130605,"SoundDuration":130605,"Delta":110859764},{"NoteNumber":66,"Velocity":50,"Duration":130605,"SoundDuration":130605,"Delta":111120974},{"NoteNumber":69,"Velocity":61,"Duration":130605,"SoundDuration":130605,"Delta":111120974},{"NoteNumber":69,"Velocity":61,"Duration":135037,"SoundDuration":135037,"Delta":111382185},{"NoteNumber":66,"Velocity":50,"Duration":135037,"SoundDuration":135037,"Delta":111382185},{"NoteNumber":71,"Velocity":75,"Duration":503482,"SoundDuration":503482,"Delta":111652260},{"NoteNumber":67,"Velocity":63,"Duration":503482,"SoundDuration":503482,"Delta":111652260},{"NoteNumber":38,"Velocity":52,"Duration":251740,"SoundDuration":251740,"Delta":111652260},{"NoteNumber":50,"Velocity":48,"Duration":125870,"SoundDuration":125870,"Delta":111904001},{"NoteNumber":69,"Velocity":59,"Duration":257576,"SoundDuration":257576,"Delta":112155742},{"NoteNumber":66,"Velocity":50,"Duration":257576,"SoundDuration":257576,"Delta":112155742},{"NoteNumber":50,"Velocity":48,"Duration":128788,"SoundDuration":128788,"Delta":112155742},{"NoteNumber":74,"Velocity":65,"Duration":123001,"SoundDuration":123001,"Delta":112413319},{"NoteNumber":69,"Velocity":49,"Duration":123001,"SoundDuration":123001,"Delta":112536321},{"NoteNumber":74,"Velocity":62,"Duration":123001,"SoundDuration":123001,"Delta":112659322},{"NoteNumber":69,"Velocity":49,"Duration":127172,"SoundDuration":127172,"Delta":112782323},{"NoteNumber":66,"Velocity":62,"Duration":127172,"SoundDuration":127172,"Delta":112909496},{"NoteNumber":64,"Velocity":56,"Duration":513040,"SoundDuration":513040,"Delta":113173717},{"NoteNumber":69,"Velocity":65,"Duration":256519,"SoundDuration":256519,"Delta":113173717},{"NoteNumber":38,"Velocity":52,"Duration":256519,"SoundDuration":256519,"Delta":113173717},{"NoteNumber":67,"Velocity":61,"Duration":256520,"SoundDuration":256520,"Delta":113430237},{"NoteNumber":50,"Velocity":46,"Duration":128260,"SoundDuration":128260,"Delta":113430237},{"NoteNumber":66,"Velocity":61,"Duration":260982,"SoundDuration":260982,"Delta":113686757},{"NoteNumber":62,"Velocity":50,"Duration":260982,"SoundDuration":260982,"Delta":113686757},{"NoteNumber":50,"Velocity":46,"Duration":130491,"SoundDuration":130491,"Delta":113686757},{"NoteNumber":78,"Velocity":65,"Duration":251740,"SoundDuration":251740,"Delta":113947740},{"NoteNumber":74,"Velocity":54,"Duration":251740,"SoundDuration":251740,"Delta":113947740},{"NoteNumber":79,"Velocity":61,"Duration":250605,"SoundDuration":250605,"Delta":114199481},{"NoteNumber":76,"Velocity":51,"Duration":250605,"SoundDuration":250605,"Delta":114199481},{"NoteNumber":78,"Velocity":54,"Duration":250605,"SoundDuration":250605,"Delta":114450087},{"NoteNumber":81,"Velocity":64,"Duration":250605,"SoundDuration":250605,"Delta":114450087},{"NoteNumber":81,"Velocity":70,"Duration":250605,"SoundDuration":250605,"Delta":114700692},{"NoteNumber":78,"Velocity":59,"Duration":250605,"SoundDuration":250605,"Delta":114700692},{"NoteNumber":55,"Velocity":52,"Duration":250605,"SoundDuration":250605,"Delta":114700692},{"NoteNumber":79,"Velocity":62,"Duration":187954,"SoundDuration":187954,"Delta":114951298},{"NoteNumber":76,"Velocity":52,"Duration":187954,"SoundDuration":187954,"Delta":114951298},{"NoteNumber":67,"Velocity":52,"Duration":125302,"SoundDuration":125302,"Delta":114951298},{"NoteNumber":79,"Velocity":62,"Duration":125302,"SoundDuration":125302,"Delta":115201903},{"NoteNumber":76,"Velocity":52,"Duration":125302,"SoundDuration":125302,"Delta":115201903},{"NoteNumber":67,"Velocity":54,"Duration":125302,"SoundDuration":125302,"Delta":115201903},{"NoteNumber":78,"Velocity":65,"Duration":256388,"SoundDuration":256388,"Delta":115459680},{"NoteNumber":74,"Velocity":54,"Duration":256388,"SoundDuration":256388,"Delta":115459680},{"NoteNumber":56,"Velocity":57,"Duration":256388,"SoundDuration":256388,"Delta":115459680},{"NoteNumber":73,"Velocity":50,"Duration":262123,"SoundDuration":262123,"Delta":115716068},{"NoteNumber":76,"Velocity":61,"Duration":262123,"SoundDuration":262123,"Delta":115716068},{"NoteNumber":68,"Velocity":58,"Duration":131061,"SoundDuration":131061,"Delta":115716068},{"NoteNumber":78,"Velocity":61,"Duration":133737,"SoundDuration":133737,"Delta":115978191},{"NoteNumber":74,"Velocity":50,"Duration":133737,"SoundDuration":133737,"Delta":115978191},{"NoteNumber":68,"Velocity":48,"Duration":133737,"SoundDuration":133737,"Delta":115979306},{"NoteNumber":73,"Velocity":50,"Duration":191407,"SoundDuration":191407,"Delta":116245666},{"NoteNumber":76,"Velocity":61,"Duration":191407,"SoundDuration":191407,"Delta":116245666},{"NoteNumber":57,"Velocity":52,"Duration":255210,"SoundDuration":255210,"Delta":116245666},{"NoteNumber":69,"Velocity":49,"Duration":127605,"SoundDuration":127605,"Delta":116500877},{"NoteNumber":69,"Velocity":49,"Duration":135037,"SoundDuration":135037,"Delta":116756087},{"NoteNumber":66,"Velocity":56,"Duration":136425,"SoundDuration":136425,"Delta":117026163},{"NoteNumber":69,"Velocity":67,"Duration":136425,"SoundDuration":136425,"Delta":117026163},{"NoteNumber":69,"Velocity":61,"Duration":136425,"SoundDuration":136425,"Delta":117299014},{"NoteNumber":66,"Velocity":51,"Duration":136425,"SoundDuration":136425,"Delta":117299014},{"NoteNumber":69,"Velocity":61,"Duration":141576,"SoundDuration":141576,"Delta":117571866},{"NoteNumber":66,"Velocity":51,"Duration":141576,"SoundDuration":141576,"Delta":117571866},{"NoteNumber":67,"Velocity":64,"Duration":503482,"SoundDuration":503482,"Delta":117855018},{"NoteNumber":71,"Velocity":77,"Duration":503482,"SoundDuration":503482,"Delta":117855018},{"NoteNumber":38,"Velocity":61,"Duration":125870,"SoundDuration":125870,"Delta":117855018},{"NoteNumber":50,"Velocity":44,"Duration":125870,"SoundDuration":125870,"Delta":117980889},{"NoteNumber":49,"Velocity":49,"Duration":125870,"SoundDuration":125870,"Delta":118106759},{"NoteNumber":50,"Velocity":44,"Duration":125870,"SoundDuration":125870,"Delta":118232630},{"NoteNumber":66,"Velocity":50,"Duration":257576,"SoundDuration":257576,"Delta":118358500},{"NoteNumber":69,"Velocity":60,"Duration":257576,"SoundDuration":257576,"Delta":118358500},{"NoteNumber":49,"Velocity":48,"Duration":128788,"SoundDuration":128788,"Delta":118358500},{"NoteNumber":50,"Velocity":44,"Duration":128788,"SoundDuration":128788,"Delta":118487289},{"NoteNumber":74,"Velocity":67,"Duration":251740,"SoundDuration":251740,"Delta":118616077},{"NoteNumber":38,"Velocity":44,"Duration":125870,"SoundDuration":125870,"Delta":118616077},{"NoteNumber":69,"Velocity":63,"Duration":251741,"SoundDuration":251741,"Delta":118867818},{"NoteNumber":66,"Velocity":63,"Duration":251740,"SoundDuration":251740,"Delta":119119559},{"NoteNumber":64,"Velocity":56,"Duration":505774,"SoundDuration":505774,"Delta":119371300},{"NoteNumber":69,"Velocity":67,"Duration":252887,"SoundDuration":252887,"Delta":119371300},{"NoteNumber":38,"Velocity":56,"Duration":126443,"SoundDuration":126443,"Delta":119371300},{"NoteNumber":50,"Velocity":42,"Duration":126443,"SoundDuration":126443,"Delta":119497744},{"NoteNumber":67,"Velocity":61,"Duration":252887,"SoundDuration":252887,"Delta":119624187},{"NoteNumber":49,"Velocity":42,"Duration":126443,"SoundDuration":126443,"Delta":119624187},{"NoteNumber":50,"Velocity":42,"Duration":126443,"SoundDuration":126443,"Delta":119750631},{"NoteNumber":62,"Velocity":51,"Duration":258776,"SoundDuration":258776,"Delta":119877074},{"NoteNumber":66,"Velocity":61,"Duration":258776,"SoundDuration":258776,"Delta":119877074},{"NoteNumber":49,"Velocity":48,"Duration":129388,"SoundDuration":129388,"Delta":119877074},{"NoteNumber":50,"Velocity":42,"Duration":129388,"SoundDuration":129388,"Delta":120006463},{"NoteNumber":81,"Velocity":65,"Duration":125126,"SoundDuration":125126,"Delta":120135851},{"NoteNumber":38,"Velocity":42,"Duration":125126,"SoundDuration":125126,"Delta":120135851},{"NoteNumber":79,"Velocity":64,"Duration":123934,"SoundDuration":123934,"Delta":120260978},{"NoteNumber":78,"Velocity":61,"Duration":124860,"SoundDuration":124860,"Delta":120384913},{"NoteNumber":76,"Velocity":58,"Duration":125681,"SoundDuration":125681,"Delta":120509774},{"NoteNumber":74,"Velocity":57,"Duration":126559,"SoundDuration":126559,"Delta":120635455},{"NoteNumber":73,"Velocity":57,"Duration":127332,"SoundDuration":127332,"Delta":120762015},{"NoteNumber":71,"Velocity":66,"Duration":127021,"SoundDuration":127021,"Delta":120889348},{"NoteNumber":43,"Velocity":55,"Duration":127021,"SoundDuration":127021,"Delta":120889348},{"NoteNumber":55,"Velocity":27,"Duration":127021,"SoundDuration":127021,"Delta":121016370},{"NoteNumber":71,"Velocity":60,"Duration":127021,"SoundDuration":127021,"Delta":121143391},{"NoteNumber":52,"Velocity":43,"Duration":127021,"SoundDuration":127021,"Delta":121143391},{"NoteNumber":55,"Velocity":30,"Duration":127021,"SoundDuration":127021,"Delta":121270413},{"NoteNumber":71,"Velocity":60,"Duration":130605,"SoundDuration":130605,"Delta":121397435},{"NoteNumber":52,"Velocity":43,"Duration":130605,"SoundDuration":130605,"Delta":121397435},{"NoteNumber":55,"Velocity":27,"Duration":130605,"SoundDuration":130605,"Delta":121528040},{"NoteNumber":74,"Velocity":51,"Duration":32651,"SoundDuration":32651,"Delta":121625994},{"NoteNumber":73,"Velocity":68,"Duration":130605,"SoundDuration":130605,"Delta":121658645},{"NoteNumber":52,"Velocity":53,"Duration":130605,"SoundDuration":130605,"Delta":121658645},{"NoteNumber":45,"Velocity":53,"Duration":130605,"SoundDuration":130605,"Delta":121658645},{"NoteNumber":55,"Velocity":30,"Duration":127605,"SoundDuration":127605,"Delta":121789251},{"NoteNumber":71,"Velocity":62,"Duration":127605,"SoundDuration":127605,"Delta":121916856},{"NoteNumber":45,"Velocity":43,"Duration":127605,"SoundDuration":127605,"Delta":121916856},{"NoteNumber":52,"Velocity":43,"Duration":127605,"SoundDuration":127605,"Delta":121916856},{"NoteNumber":55,"Velocity":34,"Duration":127605,"SoundDuration":127605,"Delta":122044461},{"NoteNumber":73,"Velocity":62,"Duration":127605,"SoundDuration":127605,"Delta":122172066},{"NoteNumber":52,"Velocity":43,"Duration":127605,"SoundDuration":127605,"Delta":122172066},{"NoteNumber":45,"Velocity":43,"Duration":127605,"SoundDuration":127605,"Delta":122172066},{"NoteNumber":55,"Velocity":31,"Duration":127605,"SoundDuration":127605,"Delta":122299672},{"NoteNumber":74,"Velocity":62,"Duration":127605,"SoundDuration":127605,"Delta":122427277},{"NoteNumber":50,"Velocity":47,"Duration":255210,"SoundDuration":255210,"Delta":122427277},{"NoteNumber":54,"Velocity":47,"Duration":255210,"SoundDuration":255210,"Delta":122427277},{"NoteNumber":81,"Velocity":56,"Duration":123091,"SoundDuration":123091,"Delta":122682487},{"NoteNumber":79,"Velocity":55,"Duration":123091,"SoundDuration":123091,"Delta":122805579},{"NoteNumber":78,"Velocity":53,"Duration":123266,"SoundDuration":123266,"Delta":122928671},{"NoteNumber":76,"Velocity":51,"Duration":123671,"SoundDuration":123671,"Delta":123051938},{"NoteNumber":74,"Velocity":50,"Duration":124148,"SoundDuration":124148,"Delta":123175609},{"NoteNumber":73,"Velocity":49,"Duration":124630,"SoundDuration":124630,"Delta":123299758},{"NoteNumber":71,"Velocity":48,"Duration":125115,"SoundDuration":125115,"Delta":123424388},{"NoteNumber":69,"Velocity":44,"Duration":125603,"SoundDuration":125603,"Delta":123549503},{"NoteNumber":67,"Velocity":42,"Duration":126096,"SoundDuration":126096,"Delta":123675107},{"NoteNumber":66,"Velocity":42,"Duration":126736,"SoundDuration":126736,"Delta":123801204},{"NoteNumber":64,"Velocity":46,"Duration":129544,"SoundDuration":129544,"Delta":123927940},{"NoteNumber":62,"Velocity":33,"Duration":129544,"SoundDuration":129544,"Delta":123927940},{"NoteNumber":55,"Velocity":33,"Duration":129544,"SoundDuration":129544,"Delta":123927940},{"NoteNumber":64,"Velocity":45,"Duration":129544,"SoundDuration":129544,"Delta":124187029},{"NoteNumber":62,"Velocity":29,"Duration":129544,"SoundDuration":129544,"Delta":124187029},{"NoteNumber":55,"Velocity":29,"Duration":129544,"SoundDuration":129544,"Delta":124187029},{"NoteNumber":64,"Velocity":45,"Duration":129388,"SoundDuration":129388,"Delta":124446119},{"NoteNumber":62,"Velocity":29,"Duration":129388,"SoundDuration":129388,"Delta":124446119},{"NoteNumber":55,"Velocity":29,"Duration":129388,"SoundDuration":129388,"Delta":124446119},{"NoteNumber":67,"Velocity":39,"Duration":32347,"SoundDuration":32347,"Delta":124640202},{"NoteNumber":69,"Velocity":39,"Duration":32347,"SoundDuration":32347,"Delta":124672549},{"NoteNumber":71,"Velocity":51,"Duration":251740,"SoundDuration":251740,"Delta":124704896},{"NoteNumber":57,"Velocity":27,"Duration":125870,"SoundDuration":125870,"Delta":124704896},{"NoteNumber":61,"Velocity":33,"Duration":125870,"SoundDuration":125870,"Delta":124704896},{"NoteNumber":69,"Velocity":46,"Duration":251741,"SoundDuration":251741,"Delta":124956637},{"NoteNumber":61,"Velocity":29,"Duration":125870,"SoundDuration":125870,"Delta":124956637},{"NoteNumber":57,"Velocity":24,"Duration":125870,"SoundDuration":125870,"Delta":124956637},{"NoteNumber":67,"Velocity":46,"Duration":255210,"SoundDuration":255210,"Delta":125208378},{"NoteNumber":57,"Velocity":24,"Duration":127605,"SoundDuration":127605,"Delta":125208378},{"NoteNumber":61,"Velocity":29,"Duration":127605,"SoundDuration":127605,"Delta":125208378},{"NoteNumber":66,"Velocity":46,"Duration":259089,"SoundDuration":259089,"Delta":125463588},{"NoteNumber":59,"Velocity":26,"Duration":129544,"SoundDuration":129544,"Delta":125463588},{"NoteNumber":62,"Velocity":31,"Duration":129544,"SoundDuration":129544,"Delta":125463588},{"NoteNumber":59,"Velocity":23,"Duration":129544,"SoundDuration":129544,"Delta":125722678},{"NoteNumber":62,"Velocity":28,"Duration":129544,"SoundDuration":129544,"Delta":125722678},{"NoteNumber":62,"Velocity":28,"Duration":129544,"SoundDuration":129544,"Delta":125981767},{"NoteNumber":59,"Velocity":23,"Duration":129544,"SoundDuration":129544,"Delta":125981767},{"NoteNumber":74,"Velocity":50,"Duration":124148,"SoundDuration":124148,"Delta":126240857},{"NoteNumber":62,"Velocity":33,"Duration":124148,"SoundDuration":124148,"Delta":126240857},{"NoteNumber":54,"Velocity":33,"Duration":124148,"SoundDuration":124148,"Delta":126240857},{"NoteNumber":73,"Velocity":49,"Duration":124630,"SoundDuration":124630,"Delta":126365006},{"NoteNumber":71,"Velocity":48,"Duration":125115,"SoundDuration":125115,"Delta":126489636},{"NoteNumber":62,"Velocity":29,"Duration":125115,"SoundDuration":125115,"Delta":126489636},{"NoteNumber":54,"Velocity":29,"Duration":125115,"SoundDuration":125115,"Delta":126489636},{"NoteNumber":69,"Velocity":44,"Duration":125603,"SoundDuration":125603,"Delta":126614751},{"NoteNumber":67,"Velocity":42,"Duration":126096,"SoundDuration":126096,"Delta":126740355},{"NoteNumber":62,"Velocity":29,"Duration":126096,"SoundDuration":126096,"Delta":126740355},{"NoteNumber":54,"Velocity":29,"Duration":126096,"SoundDuration":126096,"Delta":126740355},{"NoteNumber":66,"Velocity":42,"Duration":126736,"SoundDuration":126736,"Delta":126866451},{"NoteNumber":64,"Velocity":46,"Duration":128988,"SoundDuration":128988,"Delta":126993187},{"NoteNumber":62,"Velocity":33,"Duration":128988,"SoundDuration":128988,"Delta":126993187},{"NoteNumber":55,"Velocity":33,"Duration":128988,"SoundDuration":128988,"Delta":126993187},{"NoteNumber":64,"Velocity":45,"Duration":128987,"SoundDuration":128987,"Delta":127251163},{"NoteNumber":62,"Velocity":29,"Duration":128987,"SoundDuration":128987,"Delta":127251163},{"NoteNumber":55,"Velocity":29,"Duration":128987,"SoundDuration":128987,"Delta":127251163},{"NoteNumber":64,"Velocity":45,"Duration":129388,"SoundDuration":129388,"Delta":127509139},{"NoteNumber":55,"Velocity":29,"Duration":129388,"SoundDuration":129388,"Delta":127509139},{"NoteNumber":62,"Velocity":29,"Duration":129388,"SoundDuration":129388,"Delta":127509139},{"NoteNumber":67,"Velocity":39,"Duration":32347,"SoundDuration":32347,"Delta":127703222},{"NoteNumber":69,"Velocity":39,"Duration":32347,"SoundDuration":32347,"Delta":127735569},{"NoteNumber":71,"Velocity":51,"Duration":251741,"SoundDuration":251741,"Delta":127767916},{"NoteNumber":57,"Velocity":27,"Duration":125870,"SoundDuration":125870,"Delta":127767916},{"NoteNumber":61,"Velocity":33,"Duration":125870,"SoundDuration":125870,"Delta":127767916},{"NoteNumber":69,"Velocity":46,"Duration":251740,"SoundDuration":251740,"Delta":128019657},{"NoteNumber":57,"Velocity":24,"Duration":125870,"SoundDuration":125870,"Delta":128019657},{"NoteNumber":61,"Velocity":29,"Duration":125870,"SoundDuration":125870,"Delta":128019657},{"NoteNumber":67,"Velocity":46,"Duration":255210,"SoundDuration":255210,"Delta":128271398},{"NoteNumber":57,"Velocity":24,"Duration":127605,"SoundDuration":127605,"Delta":128271398},{"NoteNumber":61,"Velocity":29,"Duration":127605,"SoundDuration":127605,"Delta":128271398},{"NoteNumber":66,"Velocity":57,"Duration":127605,"SoundDuration":127605,"Delta":128526609},{"NoteNumber":59,"Velocity":38,"Duration":127605,"SoundDuration":127605,"Delta":128526609},{"NoteNumber":62,"Velocity":45,"Duration":127605,"SoundDuration":127605,"Delta":128526609},{"NoteNumber":74,"Velocity":46,"Duration":127605,"SoundDuration":127605,"Delta":128654214},{"NoteNumber":66,"Velocity":56,"Duration":127605,"SoundDuration":127605,"Delta":128781819},{"NoteNumber":59,"Velocity":28,"Duration":127605,"SoundDuration":127605,"Delta":128781819},{"NoteNumber":62,"Velocity":33,"Duration":127605,"SoundDuration":127605,"Delta":128781819},{"NoteNumber":74,"Velocity":46,"Duration":127605,"SoundDuration":127605,"Delta":128909424},{"NoteNumber":66,"Velocity":57,"Duration":130106,"SoundDuration":130106,"Delta":129037030},{"NoteNumber":59,"Velocity":28,"Duration":130106,"SoundDuration":130106,"Delta":129037030},{"NoteNumber":62,"Velocity":33,"Duration":130106,"SoundDuration":130106,"Delta":129037030},{"NoteNumber":74,"Velocity":47,"Duration":130106,"SoundDuration":130106,"Delta":129167136},{"NoteNumber":66,"Velocity":67,"Duration":127345,"SoundDuration":127345,"Delta":129297243},{"NoteNumber":60,"Velocity":48,"Duration":127345,"SoundDuration":127345,"Delta":129297243},{"NoteNumber":57,"Velocity":40,"Duration":127345,"SoundDuration":127345,"Delta":129297243},{"NoteNumber":75,"Velocity":52,"Duration":127345,"SoundDuration":127345,"Delta":129424588},{"NoteNumber":66,"Velocity":65,"Duration":127345,"SoundDuration":127345,"Delta":129551934},{"NoteNumber":57,"Velocity":32,"Duration":127345,"SoundDuration":127345,"Delta":129551934},{"NoteNumber":60,"Velocity":39,"Duration":127345,"SoundDuration":127345,"Delta":129551934},{"NoteNumber":75,"Velocity":56,"Duration":127345,"SoundDuration":127345,"Delta":129679279},{"NoteNumber":66,"Velocity":66,"Duration":136624,"SoundDuration":136624,"Delta":129806624},{"NoteNumber":60,"Velocity":37,"Duration":136624,"SoundDuration":136624,"Delta":129806624},{"NoteNumber":57,"Velocity":31,"Duration":136624,"SoundDuration":136624,"Delta":129806624},{"NoteNumber":75,"Velocity":54,"Duration":136624,"SoundDuration":136624,"Delta":129943249},{"NoteNumber":64,"Velocity":69,"Duration":126807,"SoundDuration":126807,"Delta":130079873},{"NoteNumber":55,"Velocity":44,"Duration":126807,"SoundDuration":126807,"Delta":130079873},{"NoteNumber":59,"Velocity":52,"Duration":126807,"SoundDuration":126807,"Delta":130079873},{"NoteNumber":76,"Velocity":55,"Duration":126806,"SoundDuration":126806,"Delta":130206680},{"NoteNumber":64,"Velocity":68,"Duration":126807,"SoundDuration":126807,"Delta":130333487},{"NoteNumber":55,"Velocity":32,"Duration":126807,"SoundDuration":126807,"Delta":130333487},{"NoteNumber":59,"Velocity":38,"Duration":126807,"SoundDuration":126807,"Delta":130333487},{"NoteNumber":76,"Velocity":57,"Duration":126806,"SoundDuration":126806,"Delta":130460294},{"NoteNumber":64,"Velocity":70,"Duration":130106,"SoundDuration":130106,"Delta":130587101},{"NoteNumber":55,"Velocity":32,"Duration":130106,"SoundDuration":130106,"Delta":130587101},{"NoteNumber":59,"Velocity":39,"Duration":130106,"SoundDuration":130106,"Delta":130587101},{"NoteNumber":76,"Velocity":62,"Duration":130106,"SoundDuration":130106,"Delta":130717208},{"NoteNumber":73,"Velocity":81,"Duration":126807,"SoundDuration":126807,"Delta":130847315},{"NoteNumber":57,"Velocity":55,"Duration":126807,"SoundDuration":126807,"Delta":130847315},{"NoteNumber":45,"Velocity":46,"Duration":126807,"SoundDuration":126807,"Delta":130847315},{"NoteNumber":81,"Velocity":66,"Duration":126806,"SoundDuration":126806,"Delta":130974122},{"NoteNumber":73,"Velocity":77,"Duration":126807,"SoundDuration":126807,"Delta":131100929},{"NoteNumber":57,"Velocity":43,"Duration":126807,"SoundDuration":126807,"Delta":131100929},{"NoteNumber":45,"Velocity":36,"Duration":126807,"SoundDuration":126807,"Delta":131100929},{"NoteNumber":81,"Velocity":65,"Duration":126806,"SoundDuration":126806,"Delta":131227736},{"NoteNumber":73,"Velocity":79,"Duration":137249,"SoundDuration":137249,"Delta":131354543},{"NoteNumber":45,"Velocity":36,"Duration":137249,"SoundDuration":137249,"Delta":131354543},{"NoteNumber":57,"Velocity":43,"Duration":137249,"SoundDuration":137249,"Delta":131354543},{"NoteNumber":81,"Velocity":69,"Duration":137249,"SoundDuration":137249,"Delta":131491792},{"NoteNumber":74,"Velocity":81,"Duration":126807,"SoundDuration":126807,"Delta":131629042},{"NoteNumber":50,"Velocity":46,"Duration":126807,"SoundDuration":126807,"Delta":131629042},{"NoteNumber":54,"Velocity":55,"Duration":126807,"SoundDuration":126807,"Delta":131629042},{"NoteNumber":81,"Velocity":73,"Duration":123162,"SoundDuration":123162,"Delta":131879011},{"NoteNumber":78,"Velocity":62,"Duration":123162,"SoundDuration":123162,"Delta":132002174},{"NoteNumber":79,"Velocity":72,"Duration":129544,"SoundDuration":129544,"Delta":132125337},{"NoteNumber":45,"Velocity":46,"Duration":129544,"SoundDuration":129544,"Delta":132125337},{"NoteNumber":57,"Velocity":55,"Duration":129544,"SoundDuration":129544,"Delta":132125337},{"NoteNumber":76,"Velocity":65,"Duration":126807,"SoundDuration":126807,"Delta":132254882},{"NoteNumber":74,"Velocity":78,"Duration":126806,"SoundDuration":126806,"Delta":132381689},{"NoteNumber":50,"Velocity":51,"Duration":126806,"SoundDuration":126806,"Delta":132381689},{"NoteNumber":54,"Velocity":61,"Duration":126806,"SoundDuration":126806,"Delta":132381689},{"NoteNumber":81,"Velocity":77,"Duration":126806,"SoundDuration":126806,"Delta":132635303},{"NoteNumber":78,"Velocity":63,"Duration":124182,"SoundDuration":124182,"Delta":132762110},{"NoteNumber":79,"Velocity":70,"Duration":124182,"SoundDuration":124182,"Delta":132886292},{"NoteNumber":57,"Velocity":56,"Duration":124182,"SoundDuration":124182,"Delta":132886292},{"NoteNumber":45,"Velocity":47,"Duration":124182,"SoundDuration":124182,"Delta":132886292},{"NoteNumber":76,"Velocity":64,"Duration":132403,"SoundDuration":132403,"Delta":133010475},{"NoteNumber":74,"Velocity":77,"Duration":129254,"SoundDuration":129254,"Delta":133142878},{"NoteNumber":54,"Velocity":61,"Duration":129254,"SoundDuration":129254,"Delta":133142878},{"NoteNumber":50,"Velocity":51,"Duration":129254,"SoundDuration":129254,"Delta":133142878},{"NoteNumber":78,"Velocity":74,"Duration":133868,"SoundDuration":133868,"Delta":133401388},{"NoteNumber":86,"Velocity":88,"Duration":133868,"SoundDuration":133868,"Delta":133401388},{"NoteNumber":50,"Velocity":58,"Duration":133868,"SoundDuration":133868,"Delta":133401388},{"NoteNumber":78,"Velocity":68,"Duration":137551,"SoundDuration":137551,"Delta":133669125},{"NoteNumber":86,"Velocity":80,"Duration":137551,"SoundDuration":137551,"Delta":133669125},{"NoteNumber":45,"Velocity":55,"Duration":137551,"SoundDuration":137551,"Delta":133669125},{"NoteNumber":78,"Velocity":74,"Duration":146269,"SoundDuration":146269,"Delta":133944228},{"NoteNumber":86,"Velocity":88,"Duration":146269,"SoundDuration":146269,"Delta":133944228},{"NoteNumber":42,"Velocity":61,"Duration":146269,"SoundDuration":146269,"Delta":133944228},{"NoteNumber":86,"Velocity":81,"Duration":160341,"SoundDuration":160341,"Delta":134236768},{"NoteNumber":78,"Velocity":68,"Duration":160341,"SoundDuration":160341,"Delta":134236768},{"NoteNumber":45,"Velocity":55,"Duration":160341,"SoundDuration":160341,"Delta":134236768},{"NoteNumber":78,"Velocity":68,"Duration":214132,"SoundDuration":214132,"Delta":134557452},{"NoteNumber":86,"Velocity":81,"Duration":214132,"SoundDuration":214132,"Delta":134557452},{"NoteNumber":42,"Velocity":55,"Duration":214132,"SoundDuration":214132,"Delta":134557452},{"NoteNumber":78,"Velocity":74,"Duration":856530,"SoundDuration":856530,"Delta":134985718},{"NoteNumber":86,"Velocity":89,"Duration":856530,"SoundDuration":856530,"Delta":134985718},{"NoteNumber":38,"Velocity":61,"Duration":856530,"SoundDuration":856530,"Delta":134985718}],"license":{"name":"Creative Commons Attribution-ShareAlike 3.0 Germany","url":"http://creativecommons.org/licenses/by-sa/3.0/de/deed.en","text":"The MIDI, audio (MP3, OGG) and video files of Bernd Krueger are licensed under the cc-by-sa Germany License. This means that you can use and adapt the files, as long as you attribute the copyright holder.\n\nName: Bernd Krueger\nSource: http://www.piano-midi.de\n\nThe distribution or public playback of the files is only allowed under identical license conditions.\n\nThe scores are open source.","attribution":"MIDI files by Bernd Krueger (piano-midi.de)"}}