{"title":"Samuel Goldenberg und Schmuyle","artist":"Piano","durationMs":118539,"midiSha256":"82775af6bd3fbc71e80739d7b2acc19c9ded6788f3274f9fea36d6fdcae9f12d","midiObject":[{"NoteNumber":58,"Velocity":80,"Duration":123966,"SoundDuration":123966,"Delta":0},{"NoteNumber":46,"Velocity":70,"Duration":123966,"SoundDuration":123966,"Delta":0},{"NoteNumber":65,"Velocity":88,"Duration":710058,"SoundDuration":710058,"Delta":123967},{"NoteNumber":53,"Velocity":77,"Duration":710058,"SoundDuration":710058,"Delta":123967},{"NoteNumber":64,"Velocity":80,"Duration":88757,"SoundDuration":88757,"Delta":1366570},{"NoteNumber":52,"Velocity":70,"Duration":88757,"SoundDuration":88757,"Delta":1366570},{"NoteNumber":65,"Velocity":80,"Duration":88757,"SoundDuration":88757,"Delta":1455327},{"NoteNumber":53,"Velocity":70,"Duration":88757,"SoundDuration":88757,"Delta":1455327},{"NoteNumber":64,"Velocity":92,"Duration":2080925,"SoundDuration":2080925,"Delta":1544085},{"NoteNumber":52,"Velocity":80,"Duration":2080925,"SoundDuration":2080925,"Delta":1544085},{"NoteNumber":57,"Velocity":80,"Duration":242424,"SoundDuration":242424,"Delta":4318653},{"NoteNumber":45,"Velocity":70,"Duration":242424,"SoundDuration":242424,"Delta":4318653},{"NoteNumber":58,"Velocity":80,"Duration":242424,"SoundDuration":242424,"Delta":4561077},{"NoteNumber":46,"Velocity":70,"Duration":242424,"SoundDuration":242424,"Delta":4561077},{"NoteNumber":60,"Velocity":80,"Duration":242424,"SoundDuration":242424,"Delta":4803501},{"NoteNumber":48,"Velocity":70,"Duration":242424,"SoundDuration":242424,"Delta":4803501},{"NoteNumber":61,"Velocity":86,"Duration":705068,"SoundDuration":705068,"Delta":5045926},{"NoteNumber":49,"Velocity":75,"Duration":705068,"SoundDuration":705068,"Delta":5045926},{"NoteNumber":58,"Velocity":80,"Duration":123967,"SoundDuration":123967,"Delta":5750995},{"NoteNumber":46,"Velocity":70,"Duration":123967,"SoundDuration":123967,"Delta":5750995},{"NoteNumber":65,"Velocity":86,"Duration":670391,"SoundDuration":670391,"Delta":5874962},{"NoteNumber":53,"Velocity":75,"Duration":670391,"SoundDuration":670391,"Delta":5874962},{"NoteNumber":64,"Velocity":80,"Duration":99999,"SoundDuration":99999,"Delta":7180548},{"NoteNumber":52,"Velocity":70,"Duration":99999,"SoundDuration":99999,"Delta":7180548},{"NoteNumber":65,"Velocity":80,"Duration":99999,"SoundDuration":99999,"Delta":7280548},{"NoteNumber":53,"Velocity":70,"Duration":99999,"SoundDuration":99999,"Delta":7280548},{"NoteNumber":64,"Velocity":80,"Duration":99999,"SoundDuration":99999,"Delta":7380548},{"NoteNumber":52,"Velocity":70,"Duration":99999,"SoundDuration":99999,"Delta":7380548},{"NoteNumber":61,"Velocity":90,"Duration":1846154,"SoundDuration":1846154,"Delta":7480548},{"NoteNumber":49,"Velocity":79,"Duration":1846154,"SoundDuration":1846154,"Delta":7480548},{"NoteNumber":57,"Velocity":82,"Duration":307692,"SoundDuration":307692,"Delta":9942088},{"NoteNumber":45,"Velocity":72,"Duration":307692,"SoundDuration":307692,"Delta":9942088},{"NoteNumber":58,"Velocity":80,"Duration":307692,"SoundDuration":307692,"Delta":10249781},{"NoteNumber":46,"Velocity":70,"Duration":307692,"SoundDuration":307692,"Delta":10249781},{"NoteNumber":60,"Velocity":80,"Duration":307692,"SoundDuration":307692,"Delta":10557473},{"NoteNumber":48,"Velocity":70,"Duration":307692,"SoundDuration":307692,"Delta":10557473},{"NoteNumber":61,"Velocity":80,"Duration":307692,"SoundDuration":307692,"Delta":10865166},{"NoteNumber":49,"Velocity":70,"Duration":307692,"SoundDuration":307692,"Delta":10865166},{"NoteNumber":63,"Velocity":80,"Duration":895522,"SoundDuration":895522,"Delta":11172858},{"NoteNumber":51,"Velocity":70,"Duration":895522,"SoundDuration":895522,"Delta":11172858},{"NoteNumber":65,"Velocity":83,"Duration":298507,"SoundDuration":298507,"Delta":12068381},{"NoteNumber":53,"Velocity":73,"Duration":298507,"SoundDuration":298507,"Delta":12068381},{"NoteNumber":66,"Velocity":87,"Duration":314135,"SoundDuration":314135,"Delta":12366888},{"NoteNumber":54,"Velocity":76,"Duration":314135,"SoundDuration":314135,"Delta":12366888},{"NoteNumber":69,"Velocity":88,"Duration":314135,"SoundDuration":314135,"Delta":12995160},{"NoteNumber":57,"Velocity":77,"Duration":314135,"SoundDuration":314135,"Delta":12995160},{"NoteNumber":70,"Velocity":93,"Duration":1212122,"SoundDuration":1212122,"Delta":13623432},{"NoteNumber":58,"Velocity":81,"Duration":1212122,"SoundDuration":1212122,"Delta":13623432},{"NoteNumber":68,"Velocity":88,"Duration":606061,"SoundDuration":606061,"Delta":14835554},{"NoteNumber":56,"Velocity":77,"Duration":606061,"SoundDuration":606061,"Delta":14835554},{"NoteNumber":66,"Velocity":85,"Duration":606061,"SoundDuration":606061,"Delta":15441615},{"NoteNumber":54,"Velocity":74,"Duration":606061,"SoundDuration":606061,"Delta":15441615},{"NoteNumber":69,"Velocity":88,"Duration":394088,"SoundDuration":394088,"Delta":16047676},{"NoteNumber":57,"Velocity":77,"Duration":394088,"SoundDuration":394088,"Delta":16047676},{"NoteNumber":66,"Velocity":85,"Duration":394088,"SoundDuration":394088,"Delta":16441765},{"NoteNumber":54,"Velocity":74,"Duration":394088,"SoundDuration":394088,"Delta":16441765},{"NoteNumber":65,"Velocity":80,"Duration":369458,"SoundDuration":369458,"Delta":16835854},{"NoteNumber":53,"Velocity":70,"Duration":369458,"SoundDuration":369458,"Delta":16835854},{"NoteNumber":65,"Velocity":87,"Duration":1043394,"SoundDuration":1043394,"Delta":17229942},{"NoteNumber":53,"Velocity":76,"Duration":1043394,"SoundDuration":1043394,"Delta":17229942},{"NoteNumber":69,"Velocity":80,"Duration":138888,"SoundDuration":138888,"Delta":18273336},{"NoteNumber":57,"Velocity":70,"Duration":138888,"SoundDuration":138888,"Delta":18273336},{"NoteNumber":65,"Velocity":86,"Duration":603014,"SoundDuration":603014,"Delta":18412225},{"NoteNumber":53,"Velocity":75,"Duration":603014,"SoundDuration":603014,"Delta":18412225},{"NoteNumber":57,"Velocity":82,"Duration":300000,"SoundDuration":300000,"Delta":19618255},{"NoteNumber":45,"Velocity":72,"Duration":300000,"SoundDuration":300000,"Delta":19618255},{"NoteNumber":58,"Velocity":80,"Duration":300000,"SoundDuration":300000,"Delta":19918255},{"NoteNumber":46,"Velocity":70,"Duration":300000,"SoundDuration":300000,"Delta":19918255},{"NoteNumber":60,"Velocity":80,"Duration":299999,"SoundDuration":299999,"Delta":20218255},{"NoteNumber":48,"Velocity":70,"Duration":299999,"SoundDuration":299999,"Delta":20218255},{"NoteNumber":61,"Velocity":80,"Duration":300000,"SoundDuration":300000,"Delta":20518255},{"NoteNumber":49,"Velocity":70,"Duration":300000,"SoundDuration":300000,"Delta":20518255},{"NoteNumber":63,"Velocity":80,"Duration":895522,"SoundDuration":895522,"Delta":20818255},{"NoteNumber":51,"Velocity":70,"Duration":895522,"SoundDuration":895522,"Delta":20818255},{"NoteNumber":65,"Velocity":83,"Duration":298507,"SoundDuration":298507,"Delta":21713778},{"NoteNumber":53,"Velocity":73,"Duration":298507,"SoundDuration":298507,"Delta":21713778},{"NoteNumber":66,"Velocity":87,"Duration":314136,"SoundDuration":314136,"Delta":22012285},{"NoteNumber":54,"Velocity":76,"Duration":314136,"SoundDuration":314136,"Delta":22012285},{"NoteNumber":69,"Velocity":88,"Duration":314136,"SoundDuration":314136,"Delta":22640557},{"NoteNumber":57,"Velocity":77,"Duration":314136,"SoundDuration":314136,"Delta":22640557},{"NoteNumber":70,"Velocity":93,"Duration":1212122,"SoundDuration":1212122,"Delta":23268829},{"NoteNumber":58,"Velocity":81,"Duration":1212122,"SoundDuration":1212122,"Delta":23268829},{"NoteNumber":69,"Velocity":88,"Duration":606061,"SoundDuration":606061,"Delta":24480951},{"NoteNumber":57,"Velocity":77,"Duration":606061,"SoundDuration":606061,"Delta":24480951},{"NoteNumber":66,"Velocity":85,"Duration":606061,"SoundDuration":606061,"Delta":25087012},{"NoteNumber":54,"Velocity":74,"Duration":606061,"SoundDuration":606061,"Delta":25087012},{"NoteNumber":68,"Velocity":88,"Duration":394088,"SoundDuration":394088,"Delta":25693073},{"NoteNumber":56,"Velocity":77,"Duration":394088,"SoundDuration":394088,"Delta":25693073},{"NoteNumber":66,"Velocity":85,"Duration":394088,"SoundDuration":394088,"Delta":26087162},{"NoteNumber":54,"Velocity":74,"Duration":394088,"SoundDuration":394088,"Delta":26087162},{"NoteNumber":65,"Velocity":80,"Duration":369458,"SoundDuration":369458,"Delta":26481251},{"NoteNumber":53,"Velocity":70,"Duration":369458,"SoundDuration":369458,"Delta":26481251},{"NoteNumber":65,"Velocity":87,"Duration":2348455,"SoundDuration":2348455,"Delta":26875339},{"NoteNumber":53,"Velocity":76,"Duration":2348455,"SoundDuration":2348455,"Delta":26875339},{"NoteNumber":58,"Velocity":80,"Duration":106383,"SoundDuration":106383,"Delta":29957792},{"NoteNumber":46,"Velocity":70,"Duration":106383,"SoundDuration":106383,"Delta":29957792},{"NoteNumber":65,"Velocity":86,"Duration":670391,"SoundDuration":670391,"Delta":30064175},{"NoteNumber":53,"Velocity":75,"Duration":670391,"SoundDuration":670391,"Delta":30064175},{"NoteNumber":64,"Velocity":80,"Duration":74626,"SoundDuration":74626,"Delta":31293642},{"NoteNumber":52,"Velocity":70,"Duration":74626,"SoundDuration":74626,"Delta":31293642},{"NoteNumber":65,"Velocity":80,"Duration":74626,"SoundDuration":74626,"Delta":31368269},{"NoteNumber":53,"Velocity":70,"Duration":74626,"SoundDuration":74626,"Delta":31368269},{"NoteNumber":64,"Velocity":80,"Duration":74626,"SoundDuration":74626,"Delta":31442896},{"NoteNumber":52,"Velocity":70,"Duration":74626,"SoundDuration":74626,"Delta":31442896},{"NoteNumber":61,"Velocity":90,"Duration":1234594,"SoundDuration":1234594,"Delta":31517523},{"NoteNumber":49,"Velocity":79,"Duration":1234594,"SoundDuration":1234594,"Delta":31517523},{"NoteNumber":60,"Velocity":80,"Duration":85470,"SoundDuration":85470,"Delta":32752117},{"NoteNumber":48,"Velocity":70,"Duration":85470,"SoundDuration":85470,"Delta":32752117},{"NoteNumber":61,"Velocity":78,"Duration":100000,"SoundDuration":100000,"Delta":32837587},{"NoteNumber":49,"Velocity":68,"Duration":100000,"SoundDuration":100000,"Delta":32837587},{"NoteNumber":57,"Velocity":78,"Duration":123924,"SoundDuration":123924,"Delta":32937587},{"NoteNumber":45,"Velocity":68,"Duration":123924,"SoundDuration":123924,"Delta":32937587},{"NoteNumber":61,"Velocity":89,"Duration":1125937,"SoundDuration":1125937,"Delta":33061511},{"NoteNumber":49,"Velocity":78,"Duration":1125937,"SoundDuration":1125937,"Delta":33061511},{"NoteNumber":60,"Velocity":75,"Duration":94936,"SoundDuration":94936,"Delta":34187448},{"NoteNumber":48,"Velocity":66,"Duration":94936,"SoundDuration":94936,"Delta":34187448},{"NoteNumber":61,"Velocity":75,"Duration":94936,"SoundDuration":94936,"Delta":34282385},{"NoteNumber":49,"Velocity":66,"Duration":94936,"SoundDuration":94936,"Delta":34282385},{"NoteNumber":60,"Velocity":75,"Duration":106383,"SoundDuration":106383,"Delta":34377322},{"NoteNumber":48,"Velocity":66,"Duration":106383,"SoundDuration":106383,"Delta":34377322},{"NoteNumber":58,"Velocity":75,"Duration":106383,"SoundDuration":106383,"Delta":34483705},{"NoteNumber":46,"Velocity":66,"Duration":106383,"SoundDuration":106383,"Delta":34483705},{"NoteNumber":57,"Velocity":75,"Duration":126022,"SoundDuration":126022,"Delta":34590088},{"NoteNumber":45,"Velocity":66,"Duration":126022,"SoundDuration":126022,"Delta":34590088},{"NoteNumber":61,"Velocity":80,"Duration":3478322,"SoundDuration":3478322,"Delta":34716111},{"NoteNumber":49,"Velocity":70,"Duration":6027396,"SoundDuration":6027396,"Delta":34716111},{"NoteNumber":81,"Velocity":52,"Duration":51923,"SoundDuration":51923,"Delta":38367509},{"NoteNumber":69,"Velocity":52,"Duration":1838897,"SoundDuration":1838897,"Delta":38425202},{"NoteNumber":66,"Velocity":52,"Duration":1838897,"SoundDuration":1838897,"Delta":38425202},{"NoteNumber":81,"Velocity":60,"Duration":121621,"SoundDuration":121621,"Delta":38425202},{"NoteNumber":81,"Velocity":58,"Duration":125961,"SoundDuration":125961,"Delta":38560337},{"NoteNumber":81,"Velocity":58,"Duration":83844,"SoundDuration":83844,"Delta":38700897},{"NoteNumber":81,"Velocity":50,"Duration":89285,"SoundDuration":89285,"Delta":38794211},{"NoteNumber":83,"Velocity":51,"Duration":71625,"SoundDuration":71625,"Delta":38847783},{"NoteNumber":81,"Velocity":54,"Duration":383319,"SoundDuration":383319,"Delta":38901354},{"NoteNumber":81,"Velocity":52,"Duration":53567,"SoundDuration":53567,"Delta":39284674},{"NoteNumber":81,"Velocity":60,"Duration":122448,"SoundDuration":122448,"Delta":39344193},{"NoteNumber":81,"Velocity":57,"Duration":126850,"SoundDuration":126850,"Delta":39480248},{"NoteNumber":81,"Velocity":57,"Duration":84474,"SoundDuration":84474,"Delta":39621804},{"NoteNumber":81,"Velocity":48,"Duration":88652,"SoundDuration":88652,"Delta":39715821},{"NoteNumber":83,"Velocity":52,"Duration":71245,"SoundDuration":71245,"Delta":39769012},{"NoteNumber":81,"Velocity":56,"Duration":382705,"SoundDuration":382705,"Delta":39822204},{"NoteNumber":80,"Velocity":49,"Duration":53271,"SoundDuration":53271,"Delta":40204909},{"NoteNumber":64,"Velocity":52,"Duration":920041,"SoundDuration":920041,"Delta":40264099},{"NoteNumber":68,"Velocity":52,"Duration":920041,"SoundDuration":920041,"Delta":40264099},{"NoteNumber":80,"Velocity":57,"Duration":123287,"SoundDuration":123287,"Delta":40264099},{"NoteNumber":80,"Velocity":55,"Duration":127316,"SoundDuration":127316,"Delta":40401085},{"NoteNumber":80,"Velocity":55,"Duration":84474,"SoundDuration":84474,"Delta":40543108},{"NoteNumber":80,"Velocity":49,"Duration":88652,"SoundDuration":88652,"Delta":40637124},{"NoteNumber":81,"Velocity":52,"Duration":71245,"SoundDuration":71245,"Delta":40690316},{"NoteNumber":80,"Velocity":55,"Duration":383319,"SoundDuration":383319,"Delta":40743507},{"NoteNumber":78,"Velocity":49,"Duration":57313,"SoundDuration":57313,"Delta":41126827},{"NoteNumber":66,"Velocity":49,"Duration":907515,"SoundDuration":907515,"Delta":41184140},{"NoteNumber":62,"Velocity":49,"Duration":907515,"SoundDuration":907515,"Delta":41184140},{"NoteNumber":78,"Velocity":57,"Duration":137456,"SoundDuration":137456,"Delta":41184140},{"NoteNumber":78,"Velocity":54,"Duration":142529,"SoundDuration":142529,"Delta":41321597},{"NoteNumber":78,"Velocity":54,"Duration":94371,"SoundDuration":94371,"Delta":41464127},{"NoteNumber":78,"Velocity":47,"Duration":78125,"SoundDuration":78125,"Delta":41558498},{"NoteNumber":79,"Velocity":50,"Duration":64929,"SoundDuration":64929,"Delta":41605373},{"NoteNumber":78,"Velocity":56,"Duration":381488,"SoundDuration":381488,"Delta":41652248},{"NoteNumber":80,"Velocity":49,"Duration":52127,"SoundDuration":52127,"Delta":42033737},{"NoteNumber":80,"Velocity":57,"Duration":122866,"SoundDuration":122866,"Delta":42091656},{"NoteNumber":64,"Velocity":49,"Duration":927170,"SoundDuration":927170,"Delta":42091656},{"NoteNumber":68,"Velocity":49,"Duration":927170,"SoundDuration":927170,"Delta":42091656},{"NoteNumber":80,"Velocity":55,"Duration":127299,"SoundDuration":127299,"Delta":42228175},{"NoteNumber":80,"Velocity":55,"Duration":84793,"SoundDuration":84793,"Delta":42370235},{"NoteNumber":80,"Velocity":49,"Duration":88028,"SoundDuration":88028,"Delta":42464606},{"NoteNumber":81,"Velocity":49,"Duration":70871,"SoundDuration":70871,"Delta":42517423},{"NoteNumber":80,"Velocity":55,"Duration":389067,"SoundDuration":389067,"Delta":42570240},{"NoteNumber":73,"Velocity":49,"Duration":53567,"SoundDuration":53567,"Delta":42959307},{"NoteNumber":61,"Velocity":49,"Duration":2280114,"SoundDuration":2280114,"Delta":43018827},{"NoteNumber":73,"Velocity":54,"Duration":124137,"SoundDuration":124137,"Delta":43018827},{"NoteNumber":64,"Velocity":49,"Duration":2280114,"SoundDuration":2280114,"Delta":43018827},{"NoteNumber":73,"Velocity":51,"Duration":129571,"SoundDuration":129571,"Delta":43156758},{"NoteNumber":73,"Velocity":51,"Duration":86706,"SoundDuration":86706,"Delta":43301481},{"NoteNumber":73,"Velocity":47,"Duration":69444,"SoundDuration":69444,"Delta":43397953},{"NoteNumber":74,"Velocity":46,"Duration":60049,"SoundDuration":60049,"Delta":43439620},{"NoteNumber":73,"Velocity":53,"Duration":389127,"SoundDuration":389127,"Delta":43481286},{"NoteNumber":73,"Velocity":47,"Duration":52127,"SoundDuration":52127,"Delta":43870414},{"NoteNumber":73,"Velocity":54,"Duration":123287,"SoundDuration":123287,"Delta":43928333},{"NoteNumber":49,"Velocity":42,"Duration":4144329,"SoundDuration":4144329,"Delta":43928333},{"NoteNumber":73,"Velocity":51,"Duration":128643,"SoundDuration":128643,"Delta":44065320},{"NoteNumber":73,"Velocity":51,"Duration":86422,"SoundDuration":86422,"Delta":44209001},{"NoteNumber":73,"Velocity":47,"Duration":69060,"SoundDuration":69060,"Delta":44305188},{"NoteNumber":74,"Velocity":47,"Duration":59818,"SoundDuration":59818,"Delta":44346625},{"NoteNumber":73,"Velocity":55,"Duration":389761,"SoundDuration":389761,"Delta":44388061},{"NoteNumber":73,"Velocity":40,"Duration":54247,"SoundDuration":54247,"Delta":44777822},{"NoteNumber":73,"Velocity":47,"Duration":123287,"SoundDuration":123287,"Delta":44838097},{"NoteNumber":73,"Velocity":47,"Duration":128870,"SoundDuration":128870,"Delta":44975084},{"NoteNumber":73,"Velocity":47,"Duration":86755,"SoundDuration":86755,"Delta":45119048},{"NoteNumber":73,"Velocity":39,"Duration":69444,"SoundDuration":69444,"Delta":45215608},{"NoteNumber":74,"Velocity":40,"Duration":0,"SoundDuration":0,"Delta":45257274},{"NoteNumber":73,"Velocity":47,"Duration":395727,"SoundDuration":395727,"Delta":45298941},{"NoteNumber":81,"Velocity":52,"Duration":67500,"SoundDuration":67500,"Delta":45694669},{"NoteNumber":66,"Velocity":52,"Duration":1838735,"SoundDuration":1838735,"Delta":45769669},{"NoteNumber":69,"Velocity":52,"Duration":1838735,"SoundDuration":1838735,"Delta":45769669},{"NoteNumber":81,"Velocity":60,"Duration":121211,"SoundDuration":121211,"Delta":45769669},{"NoteNumber":81,"Velocity":58,"Duration":125947,"SoundDuration":125947,"Delta":45904349},{"NoteNumber":81,"Velocity":58,"Duration":83892,"SoundDuration":83892,"Delta":46044949},{"NoteNumber":81,"Velocity":50,"Duration":89285,"SoundDuration":89285,"Delta":46138294},{"NoteNumber":83,"Velocity":47,"Duration":71625,"SoundDuration":71625,"Delta":46191865},{"NoteNumber":81,"Velocity":51,"Duration":383319,"SoundDuration":383319,"Delta":46245437},{"NoteNumber":81,"Velocity":52,"Duration":53567,"SoundDuration":53567,"Delta":46628757},{"NoteNumber":81,"Velocity":60,"Duration":122448,"SoundDuration":122448,"Delta":46688276},{"NoteNumber":81,"Velocity":57,"Duration":126850,"SoundDuration":126850,"Delta":46824330},{"NoteNumber":81,"Velocity":57,"Duration":84027,"SoundDuration":84027,"Delta":46965887},{"NoteNumber":81,"Velocity":50,"Duration":89285,"SoundDuration":89285,"Delta":47059367},{"NoteNumber":83,"Velocity":51,"Duration":71625,"SoundDuration":71625,"Delta":47112938},{"NoteNumber":81,"Velocity":56,"Duration":382705,"SoundDuration":382705,"Delta":47166509},{"NoteNumber":80,"Velocity":49,"Duration":53271,"SoundDuration":53271,"Delta":47549214},{"NoteNumber":64,"Velocity":52,"Duration":904891,"SoundDuration":904891,"Delta":47608405},{"NoteNumber":68,"Velocity":52,"Duration":904891,"SoundDuration":904891,"Delta":47608405},{"NoteNumber":80,"Velocity":57,"Duration":122448,"SoundDuration":122448,"Delta":47608405},{"NoteNumber":80,"Velocity":55,"Duration":126850,"SoundDuration":126850,"Delta":47744459},{"NoteNumber":80,"Velocity":55,"Duration":84027,"SoundDuration":84027,"Delta":47886016},{"NoteNumber":80,"Velocity":49,"Duration":77639,"SoundDuration":77639,"Delta":47979495},{"NoteNumber":81,"Velocity":52,"Duration":64638,"SoundDuration":64638,"Delta":48026079},{"NoteNumber":80,"Velocity":58,"Duration":383319,"SoundDuration":383319,"Delta":48072663},{"NoteNumber":78,"Velocity":49,"Duration":51581,"SoundDuration":51581,"Delta":48455983},{"NoteNumber":66,"Velocity":49,"Duration":893479,"SoundDuration":893479,"Delta":48513296},{"NoteNumber":62,"Velocity":49,"Duration":893479,"SoundDuration":893479,"Delta":48513296},{"NoteNumber":78,"Velocity":57,"Duration":122448,"SoundDuration":122448,"Delta":48513296},{"NoteNumber":78,"Velocity":54,"Duration":127067,"SoundDuration":127067,"Delta":48649351},{"NoteNumber":78,"Velocity":54,"Duration":83913,"SoundDuration":83913,"Delta":48791178},{"NoteNumber":78,"Velocity":47,"Duration":69060,"SoundDuration":69060,"Delta":48884495},{"NoteNumber":79,"Velocity":50,"Duration":59490,"SoundDuration":59490,"Delta":48925932},{"NoteNumber":78,"Velocity":56,"Duration":381488,"SoundDuration":381488,"Delta":48967368},{"NoteNumber":80,"Velocity":49,"Duration":52127,"SoundDuration":52127,"Delta":49348856},{"NoteNumber":80,"Velocity":57,"Duration":121211,"SoundDuration":121211,"Delta":49406776},{"NoteNumber":68,"Velocity":49,"Duration":901821,"SoundDuration":901821,"Delta":49406776},{"NoteNumber":64,"Velocity":49,"Duration":901821,"SoundDuration":901821,"Delta":49406776},{"NoteNumber":80,"Velocity":55,"Duration":126380,"SoundDuration":126380,"Delta":49541456},{"NoteNumber":80,"Velocity":55,"Duration":84162,"SoundDuration":84162,"Delta":49682597},{"NoteNumber":80,"Velocity":49,"Duration":69832,"SoundDuration":69832,"Delta":49776212},{"NoteNumber":81,"Velocity":49,"Duration":59953,"SoundDuration":59953,"Delta":49818112},{"NoteNumber":80,"Velocity":57,"Duration":389067,"SoundDuration":389067,"Delta":49860011},{"NoteNumber":73,"Velocity":49,"Duration":53567,"SoundDuration":53567,"Delta":50249078},{"NoteNumber":61,"Velocity":49,"Duration":2332639,"SoundDuration":2332639,"Delta":50308597},{"NoteNumber":64,"Velocity":49,"Duration":2332639,"SoundDuration":2332639,"Delta":50308597},{"NoteNumber":73,"Velocity":54,"Duration":123287,"SoundDuration":123287,"Delta":50308597},{"NoteNumber":73,"Velocity":51,"Duration":129099,"SoundDuration":129099,"Delta":50445584},{"NoteNumber":73,"Velocity":51,"Duration":84892,"SoundDuration":84892,"Delta":50589834},{"NoteNumber":73,"Velocity":47,"Duration":77639,"SoundDuration":77639,"Delta":50684129},{"NoteNumber":74,"Velocity":46,"Duration":64966,"SoundDuration":64966,"Delta":50730713},{"NoteNumber":73,"Velocity":51,"Duration":389127,"SoundDuration":389127,"Delta":50777297},{"NoteNumber":73,"Velocity":47,"Duration":52127,"SoundDuration":52127,"Delta":51166424},{"NoteNumber":73,"Velocity":54,"Duration":124567,"SoundDuration":124567,"Delta":51224344},{"NoteNumber":49,"Velocity":39,"Duration":4162193,"SoundDuration":4162193,"Delta":51224344},{"NoteNumber":73,"Velocity":51,"Duration":129354,"SoundDuration":129354,"Delta":51362752},{"NoteNumber":73,"Velocity":51,"Duration":84607,"SoundDuration":84607,"Delta":51507144},{"NoteNumber":73,"Velocity":47,"Duration":88652,"SoundDuration":88652,"Delta":51601155},{"NoteNumber":74,"Velocity":47,"Duration":71573,"SoundDuration":71573,"Delta":51654346},{"NoteNumber":73,"Velocity":51,"Duration":389761,"SoundDuration":389761,"Delta":51707538},{"NoteNumber":73,"Velocity":40,"Duration":54247,"SoundDuration":54247,"Delta":52097299},{"NoteNumber":73,"Velocity":47,"Duration":124137,"SoundDuration":124137,"Delta":52157574},{"NoteNumber":73,"Velocity":47,"Duration":129342,"SoundDuration":129342,"Delta":52295505},{"NoteNumber":73,"Velocity":47,"Duration":84749,"SoundDuration":84749,"Delta":52439942},{"NoteNumber":73,"Velocity":39,"Duration":89285,"SoundDuration":89285,"Delta":52534094},{"NoteNumber":74,"Velocity":40,"Duration":72180,"SoundDuration":72180,"Delta":52587666},{"NoteNumber":73,"Velocity":47,"Duration":390799,"SoundDuration":390799,"Delta":52641237},{"NoteNumber":78,"Velocity":52,"Duration":67500,"SoundDuration":67500,"Delta":53032036},{"NoteNumber":78,"Velocity":54,"Duration":121211,"SoundDuration":121211,"Delta":53107036},{"NoteNumber":62,"Velocity":46,"Duration":1814545,"SoundDuration":1814545,"Delta":53107036},{"NoteNumber":66,"Velocity":46,"Duration":1814545,"SoundDuration":1814545,"Delta":53107036},{"NoteNumber":78,"Velocity":52,"Duration":121211,"SoundDuration":121211,"Delta":53241716},{"NoteNumber":78,"Velocity":52,"Duration":80932,"SoundDuration":80932,"Delta":53376396},{"NoteNumber":78,"Velocity":45,"Duration":88652,"SoundDuration":88652,"Delta":53466782},{"NoteNumber":80,"Velocity":45,"Duration":71245,"SoundDuration":71245,"Delta":53519973},{"NoteNumber":78,"Velocity":52,"Duration":383319,"SoundDuration":383319,"Delta":53573165},{"NoteNumber":78,"Velocity":46,"Duration":53567,"SoundDuration":53567,"Delta":53956485},{"NoteNumber":78,"Velocity":54,"Duration":122448,"SoundDuration":122448,"Delta":54016004},{"NoteNumber":78,"Velocity":51,"Duration":126850,"SoundDuration":126850,"Delta":54152058},{"NoteNumber":78,"Velocity":51,"Duration":84027,"SoundDuration":84027,"Delta":54293615},{"NoteNumber":78,"Velocity":46,"Duration":77160,"SoundDuration":77160,"Delta":54387094},{"NoteNumber":80,"Velocity":46,"Duration":64350,"SoundDuration":64350,"Delta":54433391},{"NoteNumber":78,"Velocity":52,"Duration":382705,"SoundDuration":382705,"Delta":54479687},{"NoteNumber":76,"Velocity":44,"Duration":53271,"SoundDuration":53271,"Delta":54862392},{"NoteNumber":76,"Velocity":51,"Duration":122866,"SoundDuration":122866,"Delta":54921582},{"NoteNumber":64,"Velocity":46,"Duration":905587,"SoundDuration":905587,"Delta":54921582},{"NoteNumber":61,"Velocity":46,"Duration":905587,"SoundDuration":905587,"Delta":54921582},{"NoteNumber":76,"Velocity":49,"Duration":127082,"SoundDuration":127082,"Delta":55058101},{"NoteNumber":76,"Velocity":49,"Duration":84027,"SoundDuration":84027,"Delta":55199890},{"NoteNumber":76,"Velocity":44,"Duration":77639,"SoundDuration":77639,"Delta":55293369},{"NoteNumber":78,"Velocity":46,"Duration":64638,"SoundDuration":64638,"Delta":55339953},{"NoteNumber":76,"Velocity":52,"Duration":383319,"SoundDuration":383319,"Delta":55386537},{"NoteNumber":74,"Velocity":44,"Duration":51581,"SoundDuration":51581,"Delta":55769857},{"NoteNumber":62,"Velocity":44,"Duration":894877,"SoundDuration":894877,"Delta":55827170},{"NoteNumber":74,"Velocity":51,"Duration":123287,"SoundDuration":123287,"Delta":55827170},{"NoteNumber":59,"Velocity":44,"Duration":894877,"SoundDuration":894877,"Delta":55827170},{"NoteNumber":74,"Velocity":48,"Duration":127533,"SoundDuration":127533,"Delta":55964157},{"NoteNumber":74,"Velocity":48,"Duration":83913,"SoundDuration":83913,"Delta":56106450},{"NoteNumber":74,"Velocity":42,"Duration":69060,"SoundDuration":69060,"Delta":56199767},{"NoteNumber":76,"Velocity":45,"Duration":59490,"SoundDuration":59490,"Delta":56241204},{"NoteNumber":74,"Velocity":50,"Duration":381488,"SoundDuration":381488,"Delta":56282640},{"NoteNumber":78,"Velocity":44,"Duration":52127,"SoundDuration":52127,"Delta":56664128},{"NoteNumber":62,"Velocity":44,"Duration":902725,"SoundDuration":902725,"Delta":56722048},{"NoteNumber":66,"Velocity":44,"Duration":902725,"SoundDuration":902725,"Delta":56722048},{"NoteNumber":78,"Velocity":51,"Duration":122033,"SoundDuration":122033,"Delta":56722048},{"NoteNumber":78,"Velocity":49,"Duration":126837,"SoundDuration":126837,"Delta":56857641},{"NoteNumber":78,"Velocity":49,"Duration":84162,"SoundDuration":84162,"Delta":56999239},{"NoteNumber":78,"Velocity":44,"Duration":69444,"SoundDuration":69444,"Delta":57092854},{"NoteNumber":80,"Velocity":44,"Duration":59721,"SoundDuration":59721,"Delta":57134521},{"NoteNumber":78,"Velocity":51,"Duration":389067,"SoundDuration":389067,"Delta":57176187},{"NoteNumber":73,"Velocity":44,"Duration":53567,"SoundDuration":53567,"Delta":57565255},{"NoteNumber":61,"Velocity":44,"Duration":2272916,"SoundDuration":2272916,"Delta":57624774},{"NoteNumber":57,"Velocity":44,"Duration":2272916,"SoundDuration":2272916,"Delta":57624774},{"NoteNumber":73,"Velocity":48,"Duration":122448,"SoundDuration":122448,"Delta":57624774},{"NoteNumber":73,"Velocity":45,"Duration":128633,"SoundDuration":128633,"Delta":57760828},{"NoteNumber":73,"Velocity":45,"Duration":84892,"SoundDuration":84892,"Delta":57904613},{"NoteNumber":73,"Velocity":42,"Duration":69060,"SoundDuration":69060,"Delta":57998908},{"NoteNumber":74,"Velocity":41,"Duration":59818,"SoundDuration":59818,"Delta":58040344},{"NoteNumber":73,"Velocity":47,"Duration":389127,"SoundDuration":389127,"Delta":58081781},{"NoteNumber":73,"Velocity":42,"Duration":52127,"SoundDuration":52127,"Delta":58470908},{"NoteNumber":73,"Velocity":48,"Duration":123711,"SoundDuration":123711,"Delta":58528828},{"NoteNumber":49,"Velocity":37,"Duration":4121755,"SoundDuration":4121755,"Delta":58528828},{"NoteNumber":73,"Velocity":45,"Duration":128878,"SoundDuration":128878,"Delta":58666285},{"NoteNumber":73,"Velocity":45,"Duration":84607,"SoundDuration":84607,"Delta":58810201},{"NoteNumber":73,"Velocity":42,"Duration":69444,"SoundDuration":69444,"Delta":58904211},{"NoteNumber":74,"Velocity":42,"Duration":60049,"SoundDuration":60049,"Delta":58945878},{"NoteNumber":73,"Velocity":48,"Duration":389761,"SoundDuration":389761,"Delta":58987545},{"NoteNumber":73,"Velocity":36,"Duration":54247,"SoundDuration":54247,"Delta":59377306},{"NoteNumber":73,"Velocity":42,"Duration":124567,"SoundDuration":124567,"Delta":59437581},{"NoteNumber":73,"Velocity":42,"Duration":129581,"SoundDuration":129581,"Delta":59575989},{"NoteNumber":73,"Velocity":42,"Duration":84749,"SoundDuration":84749,"Delta":59720665},{"NoteNumber":73,"Velocity":35,"Duration":69060,"SoundDuration":69060,"Delta":59814817},{"NoteNumber":74,"Velocity":36,"Duration":60045,"SoundDuration":60045,"Delta":59856254},{"NoteNumber":73,"Velocity":42,"Duration":396390,"SoundDuration":396390,"Delta":59897690},{"NoteNumber":78,"Velocity":52,"Duration":67500,"SoundDuration":67500,"Delta":60294081},{"NoteNumber":62,"Velocity":46,"Duration":1817935,"SoundDuration":1817935,"Delta":60369081},{"NoteNumber":78,"Velocity":54,"Duration":122033,"SoundDuration":122033,"Delta":60369081},{"NoteNumber":66,"Velocity":46,"Duration":1817935,"SoundDuration":1817935,"Delta":60369081},{"NoteNumber":78,"Velocity":52,"Duration":122033,"SoundDuration":122033,"Delta":60504674},{"NoteNumber":78,"Velocity":52,"Duration":81160,"SoundDuration":81160,"Delta":60640267},{"NoteNumber":78,"Velocity":45,"Duration":89285,"SoundDuration":89285,"Delta":60730881},{"NoteNumber":80,"Velocity":45,"Duration":71625,"SoundDuration":71625,"Delta":60784452},{"NoteNumber":78,"Velocity":51,"Duration":383320,"SoundDuration":383320,"Delta":60838024},{"NoteNumber":78,"Velocity":46,"Duration":53567,"SoundDuration":53567,"Delta":61221344},{"NoteNumber":78,"Velocity":54,"Duration":122448,"SoundDuration":122448,"Delta":61280863},{"NoteNumber":78,"Velocity":51,"Duration":126850,"SoundDuration":126850,"Delta":61416917},{"NoteNumber":78,"Velocity":51,"Duration":84027,"SoundDuration":84027,"Delta":61558474},{"NoteNumber":78,"Velocity":46,"Duration":77639,"SoundDuration":77639,"Delta":61651953},{"NoteNumber":80,"Velocity":46,"Duration":64638,"SoundDuration":64638,"Delta":61698537},{"NoteNumber":78,"Velocity":52,"Duration":382705,"SoundDuration":382705,"Delta":61745121},{"NoteNumber":76,"Velocity":44,"Duration":53271,"SoundDuration":53271,"Delta":62127826},{"NoteNumber":76,"Velocity":51,"Duration":122033,"SoundDuration":122033,"Delta":62187016},{"NoteNumber":64,"Velocity":46,"Duration":904200,"SoundDuration":904200,"Delta":62187016},{"NoteNumber":61,"Velocity":46,"Duration":904200,"SoundDuration":904200,"Delta":62187016},{"NoteNumber":76,"Velocity":49,"Duration":126620,"SoundDuration":126620,"Delta":62322610},{"NoteNumber":76,"Velocity":49,"Duration":84027,"SoundDuration":84027,"Delta":62463936},{"NoteNumber":76,"Velocity":44,"Duration":77639,"SoundDuration":77639,"Delta":62557416},{"NoteNumber":78,"Velocity":46,"Duration":64638,"SoundDuration":64638,"Delta":62603999},{"NoteNumber":76,"Velocity":52,"Duration":383320,"SoundDuration":383320,"Delta":62650583},{"NoteNumber":74,"Velocity":44,"Duration":51581,"SoundDuration":51581,"Delta":63033903},{"NoteNumber":62,"Velocity":44,"Duration":893479,"SoundDuration":893479,"Delta":63091216},{"NoteNumber":74,"Velocity":51,"Duration":122448,"SoundDuration":122448,"Delta":63091216},{"NoteNumber":59,"Velocity":44,"Duration":893479,"SoundDuration":893479,"Delta":63091216},{"NoteNumber":74,"Velocity":48,"Duration":127067,"SoundDuration":127067,"Delta":63227271},{"NoteNumber":74,"Velocity":48,"Duration":83913,"SoundDuration":83913,"Delta":63369099},{"NoteNumber":74,"Velocity":42,"Duration":69060,"SoundDuration":69060,"Delta":63462415},{"NoteNumber":76,"Velocity":45,"Duration":59490,"SoundDuration":59490,"Delta":63503852},{"NoteNumber":74,"Velocity":50,"Duration":381488,"SoundDuration":381488,"Delta":63545288},{"NoteNumber":78,"Velocity":44,"Duration":52127,"SoundDuration":52127,"Delta":63926777},{"NoteNumber":62,"Velocity":44,"Duration":902265,"SoundDuration":902265,"Delta":63984696},{"NoteNumber":66,"Velocity":44,"Duration":902265,"SoundDuration":902265,"Delta":63984696},{"NoteNumber":78,"Velocity":51,"Duration":122033,"SoundDuration":122033,"Delta":63984696},{"NoteNumber":78,"Velocity":49,"Duration":126837,"SoundDuration":126837,"Delta":64120290},{"NoteNumber":78,"Velocity":49,"Duration":84162,"SoundDuration":84162,"Delta":64261887},{"NoteNumber":78,"Velocity":44,"Duration":69060,"SoundDuration":69060,"Delta":64355502},{"NoteNumber":80,"Velocity":44,"Duration":59490,"SoundDuration":59490,"Delta":64396939},{"NoteNumber":78,"Velocity":49,"Duration":389067,"SoundDuration":389067,"Delta":64438375},{"NoteNumber":73,"Velocity":44,"Duration":53567,"SoundDuration":53567,"Delta":64827442},{"NoteNumber":57,"Velocity":44,"Duration":2278201,"SoundDuration":2278201,"Delta":64886962},{"NoteNumber":61,"Velocity":44,"Duration":2278201,"SoundDuration":2278201,"Delta":64886962},{"NoteNumber":73,"Velocity":48,"Duration":122033,"SoundDuration":122033,"Delta":64886962},{"NoteNumber":73,"Velocity":45,"Duration":128402,"SoundDuration":128402,"Delta":65022555},{"NoteNumber":73,"Velocity":45,"Duration":84892,"SoundDuration":84892,"Delta":65166109},{"NoteNumber":73,"Velocity":42,"Duration":78125,"SoundDuration":78125,"Delta":65260404},{"NoteNumber":74,"Velocity":41,"Duration":65257,"SoundDuration":65257,"Delta":65307279},{"NoteNumber":73,"Velocity":47,"Duration":389127,"SoundDuration":389127,"Delta":65354154},{"NoteNumber":73,"Velocity":42,"Duration":52127,"SoundDuration":52127,"Delta":65743281},{"NoteNumber":73,"Velocity":48,"Duration":123287,"SoundDuration":123287,"Delta":65801201},{"NoteNumber":49,"Velocity":38,"Duration":1824983,"SoundDuration":1824983,"Delta":65801201},{"NoteNumber":73,"Velocity":45,"Duration":128643,"SoundDuration":128643,"Delta":65938187},{"NoteNumber":73,"Velocity":45,"Duration":84607,"SoundDuration":84607,"Delta":66081868},{"NoteNumber":73,"Velocity":42,"Duration":67383,"SoundDuration":67383,"Delta":66175879},{"NoteNumber":74,"Velocity":42,"Duration":60049,"SoundDuration":60049,"Delta":66215484},{"NoteNumber":73,"Velocity":49,"Duration":389761,"SoundDuration":389761,"Delta":66257151},{"NoteNumber":73,"Velocity":36,"Duration":54247,"SoundDuration":54247,"Delta":66646912},{"NoteNumber":73,"Velocity":42,"Duration":123287,"SoundDuration":123287,"Delta":66707187},{"NoteNumber":73,"Velocity":42,"Duration":128870,"SoundDuration":128870,"Delta":66844173},{"NoteNumber":73,"Velocity":42,"Duration":84749,"SoundDuration":84749,"Delta":66988138},{"NoteNumber":73,"Velocity":35,"Duration":69060,"SoundDuration":69060,"Delta":67082290},{"NoteNumber":74,"Velocity":36,"Duration":60045,"SoundDuration":60045,"Delta":67123727},{"NoteNumber":73,"Velocity":42,"Duration":461021,"SoundDuration":461021,"Delta":67165163},{"NoteNumber":72,"Velocity":69,"Duration":461538,"SoundDuration":461538,"Delta":67626184},{"NoteNumber":60,"Velocity":56,"Duration":896476,"SoundDuration":896476,"Delta":67626184},{"NoteNumber":57,"Velocity":56,"Duration":896476,"SoundDuration":896476,"Delta":67626184},{"NoteNumber":64,"Velocity":66,"Duration":896476,"SoundDuration":896476,"Delta":67626184},{"NoteNumber":75,"Velocity":68,"Duration":109756,"SoundDuration":109756,"Delta":68087723},{"NoteNumber":76,"Velocity":67,"Duration":109091,"SoundDuration":109091,"Delta":68197479},{"NoteNumber":80,"Velocity":73,"Duration":108434,"SoundDuration":108434,"Delta":68306571},{"NoteNumber":81,"Velocity":70,"Duration":107655,"SoundDuration":107655,"Delta":68415005},{"NoteNumber":80,"Velocity":75,"Duration":442803,"SoundDuration":442803,"Delta":68522661},{"NoteNumber":64,"Velocity":74,"Duration":887252,"SoundDuration":887252,"Delta":68522661},{"NoteNumber":60,"Velocity":62,"Duration":887252,"SoundDuration":887252,"Delta":68522661},{"NoteNumber":52,"Velocity":62,"Duration":887252,"SoundDuration":887252,"Delta":68522661},{"NoteNumber":56,"Velocity":62,"Duration":887252,"SoundDuration":887252,"Delta":68522661},{"NoteNumber":76,"Velocity":72,"Duration":110701,"SoundDuration":110701,"Delta":68965465},{"NoteNumber":75,"Velocity":69,"Duration":110974,"SoundDuration":110974,"Delta":69076166},{"NoteNumber":73,"Velocity":72,"Duration":111248,"SoundDuration":111248,"Delta":69187140},{"NoteNumber":72,"Velocity":71,"Duration":111524,"SoundDuration":111524,"Delta":69298389},{"NoteNumber":73,"Velocity":77,"Duration":327425,"SoundDuration":327425,"Delta":69409913},{"NoteNumber":61,"Velocity":67,"Duration":441083,"SoundDuration":441083,"Delta":69409913},{"NoteNumber":56,"Velocity":56,"Duration":441083,"SoundDuration":441083,"Delta":69409913},{"NoteNumber":49,"Velocity":56,"Duration":441083,"SoundDuration":441083,"Delta":69409913},{"NoteNumber":52,"Velocity":56,"Duration":441083,"SoundDuration":441083,"Delta":69409913},{"NoteNumber":73,"Velocity":75,"Duration":94736,"SoundDuration":94736,"Delta":69745734},{"NoteNumber":73,"Velocity":73,"Duration":126315,"SoundDuration":126315,"Delta":69850997},{"NoteNumber":73,"Velocity":71,"Duration":126315,"SoundDuration":126315,"Delta":69991348},{"NoteNumber":73,"Velocity":70,"Duration":126315,"SoundDuration":126315,"Delta":70131699},{"NoteNumber":73,"Velocity":73,"Duration":324073,"SoundDuration":324073,"Delta":70272050},{"NoteNumber":73,"Velocity":66,"Duration":98181,"SoundDuration":98181,"Delta":70605383},{"NoteNumber":73,"Velocity":66,"Duration":125873,"SoundDuration":125873,"Delta":70714474},{"NoteNumber":73,"Velocity":66,"Duration":125873,"SoundDuration":125873,"Delta":70854334},{"NoteNumber":73,"Velocity":70,"Duration":125873,"SoundDuration":125873,"Delta":70994194},{"NoteNumber":72,"Velocity":73,"Duration":451127,"SoundDuration":451127,"Delta":71134054},{"NoteNumber":60,"Velocity":62,"Duration":880374,"SoundDuration":880374,"Delta":71134054},{"NoteNumber":57,"Velocity":62,"Duration":880374,"SoundDuration":880374,"Delta":71134054},{"NoteNumber":64,"Velocity":73,"Duration":880374,"SoundDuration":880374,"Delta":71134054},{"NoteNumber":75,"Velocity":71,"Duration":108564,"SoundDuration":108564,"Delta":71585182},{"NoteNumber":76,"Velocity":70,"Duration":107784,"SoundDuration":107784,"Delta":71693747},{"NoteNumber":80,"Velocity":76,"Duration":106888,"SoundDuration":106888,"Delta":71801532},{"NoteNumber":81,"Velocity":73,"Duration":106007,"SoundDuration":106007,"Delta":71908420},{"NoteNumber":80,"Velocity":78,"Duration":442803,"SoundDuration":442803,"Delta":72014428},{"NoteNumber":64,"Velocity":77,"Duration":887330,"SoundDuration":887330,"Delta":72014428},{"NoteNumber":56,"Velocity":65,"Duration":887330,"SoundDuration":887330,"Delta":72014428},{"NoteNumber":52,"Velocity":65,"Duration":887330,"SoundDuration":887330,"Delta":72014428},{"NoteNumber":60,"Velocity":65,"Duration":887330,"SoundDuration":887330,"Delta":72014428},{"NoteNumber":76,"Velocity":75,"Duration":110361,"SoundDuration":110361,"Delta":72457232},{"NoteNumber":75,"Velocity":72,"Duration":110837,"SoundDuration":110837,"Delta":72567594},{"NoteNumber":73,"Velocity":75,"Duration":111386,"SoundDuration":111386,"Delta":72678432},{"NoteNumber":72,"Velocity":74,"Duration":111940,"SoundDuration":111940,"Delta":72789818},{"NoteNumber":73,"Velocity":80,"Duration":323147,"SoundDuration":323147,"Delta":72901759},{"NoteNumber":61,"Velocity":70,"Duration":439340,"SoundDuration":439340,"Delta":72901759},{"NoteNumber":56,"Velocity":59,"Duration":439340,"SoundDuration":439340,"Delta":72901759},{"NoteNumber":49,"Velocity":59,"Duration":439340,"SoundDuration":439340,"Delta":72901759},{"NoteNumber":52,"Velocity":59,"Duration":439340,"SoundDuration":439340,"Delta":72901759},{"NoteNumber":73,"Velocity":78,"Duration":95406,"SoundDuration":95406,"Delta":73235092},{"NoteNumber":73,"Velocity":76,"Duration":127208,"SoundDuration":127208,"Delta":73341099},{"NoteNumber":73,"Velocity":74,"Duration":127208,"SoundDuration":127208,"Delta":73482442},{"NoteNumber":73,"Velocity":73,"Duration":127208,"SoundDuration":127208,"Delta":73623784},{"NoteNumber":73,"Velocity":73,"Duration":322543,"SoundDuration":322543,"Delta":73765127},{"NoteNumber":73,"Velocity":66,"Duration":95070,"SoundDuration":95070,"Delta":74096896},{"NoteNumber":73,"Velocity":76,"Duration":126760,"SoundDuration":126760,"Delta":74202530},{"NoteNumber":73,"Velocity":74,"Duration":129681,"SoundDuration":129681,"Delta":74343375},{"NoteNumber":46,"Velocity":83,"Duration":222222,"SoundDuration":222222,"Delta":74413797},{"NoteNumber":34,"Velocity":83,"Duration":222222,"SoundDuration":222222,"Delta":74413797},{"NoteNumber":73,"Velocity":80,"Duration":133333,"SoundDuration":133333,"Delta":74487871},{"NoteNumber":73,"Velocity":92,"Duration":324073,"SoundDuration":324073,"Delta":74636019},{"NoteNumber":61,"Velocity":78,"Duration":324073,"SoundDuration":324073,"Delta":74636019},{"NoteNumber":53,"Velocity":94,"Duration":1297087,"SoundDuration":1297087,"Delta":74636019},{"NoteNumber":41,"Velocity":79,"Duration":1297087,"SoundDuration":1297087,"Delta":74636019},{"NoteNumber":61,"Velocity":67,"Duration":99999,"SoundDuration":99999,"Delta":74969352},{"NoteNumber":73,"Velocity":79,"Duration":99999,"SoundDuration":99999,"Delta":74969352},{"NoteNumber":61,"Velocity":67,"Duration":126760,"SoundDuration":126760,"Delta":75080463},{"NoteNumber":73,"Velocity":79,"Duration":126760,"SoundDuration":126760,"Delta":75080463},{"NoteNumber":61,"Velocity":67,"Duration":126760,"SoundDuration":126760,"Delta":75221308},{"NoteNumber":73,"Velocity":79,"Duration":126760,"SoundDuration":126760,"Delta":75221308},{"NoteNumber":61,"Velocity":67,"Duration":126760,"SoundDuration":126760,"Delta":75362153},{"NoteNumber":73,"Velocity":79,"Duration":126760,"SoundDuration":126760,"Delta":75362153},{"NoteNumber":61,"Velocity":76,"Duration":313620,"SoundDuration":313620,"Delta":75502998},{"NoteNumber":73,"Velocity":90,"Duration":313620,"SoundDuration":313620,"Delta":75502998},{"NoteNumber":73,"Velocity":73,"Duration":96774,"SoundDuration":96774,"Delta":75825579},{"NoteNumber":61,"Velocity":62,"Duration":96774,"SoundDuration":96774,"Delta":75825579},{"NoteNumber":61,"Velocity":62,"Duration":134831,"SoundDuration":134831,"Delta":75933106},{"NoteNumber":73,"Velocity":73,"Duration":134831,"SoundDuration":134831,"Delta":75933106},{"NoteNumber":40,"Velocity":70,"Duration":224718,"SoundDuration":224718,"Delta":75933106},{"NoteNumber":52,"Velocity":83,"Duration":224718,"SoundDuration":224718,"Delta":75933106},{"NoteNumber":73,"Velocity":73,"Duration":136444,"SoundDuration":136444,"Delta":76082919},{"NoteNumber":61,"Velocity":62,"Duration":136444,"SoundDuration":136444,"Delta":76082919},{"NoteNumber":41,"Velocity":66,"Duration":230768,"SoundDuration":230768,"Delta":76157825},{"NoteNumber":53,"Velocity":78,"Duration":230768,"SoundDuration":230768,"Delta":76157825},{"NoteNumber":61,"Velocity":62,"Duration":138461,"SoundDuration":138461,"Delta":76234748},{"NoteNumber":73,"Velocity":73,"Duration":138461,"SoundDuration":138461,"Delta":76234748},{"NoteNumber":69,"Velocity":78,"Duration":322877,"SoundDuration":322877,"Delta":76388594},{"NoteNumber":81,"Velocity":92,"Duration":322877,"SoundDuration":322877,"Delta":76388594},{"NoteNumber":37,"Velocity":78,"Duration":1725730,"SoundDuration":1725730,"Delta":76388594},{"NoteNumber":49,"Velocity":92,"Duration":1725730,"SoundDuration":1725730,"Delta":76388594},{"NoteNumber":80,"Velocity":78,"Duration":99630,"SoundDuration":99630,"Delta":76720697},{"NoteNumber":68,"Velocity":66,"Duration":99630,"SoundDuration":99630,"Delta":76720697},{"NoteNumber":68,"Velocity":66,"Duration":126760,"SoundDuration":126760,"Delta":76831398},{"NoteNumber":80,"Velocity":78,"Duration":126760,"SoundDuration":126760,"Delta":76831398},{"NoteNumber":80,"Velocity":78,"Duration":126760,"SoundDuration":126760,"Delta":76972243},{"NoteNumber":68,"Velocity":66,"Duration":126760,"SoundDuration":126760,"Delta":76972243},{"NoteNumber":68,"Velocity":66,"Duration":126760,"SoundDuration":126760,"Delta":77113088},{"NoteNumber":80,"Velocity":78,"Duration":126760,"SoundDuration":126760,"Delta":77113088},{"NoteNumber":66,"Velocity":72,"Duration":318182,"SoundDuration":318182,"Delta":77253933},{"NoteNumber":78,"Velocity":85,"Duration":318182,"SoundDuration":318182,"Delta":77253933},{"NoteNumber":80,"Velocity":73,"Duration":98181,"SoundDuration":98181,"Delta":77581206},{"NoteNumber":68,"Velocity":62,"Duration":98181,"SoundDuration":98181,"Delta":77581206},{"NoteNumber":68,"Velocity":62,"Duration":127208,"SoundDuration":127208,"Delta":77690297},{"NoteNumber":80,"Velocity":73,"Duration":127208,"SoundDuration":127208,"Delta":77690297},{"NoteNumber":80,"Velocity":73,"Duration":127208,"SoundDuration":127208,"Delta":77831640},{"NoteNumber":68,"Velocity":62,"Duration":127208,"SoundDuration":127208,"Delta":77831640},{"NoteNumber":68,"Velocity":62,"Duration":127208,"SoundDuration":127208,"Delta":77972982},{"NoteNumber":80,"Velocity":73,"Duration":127208,"SoundDuration":127208,"Delta":77972982},{"NoteNumber":61,"Velocity":78,"Duration":326492,"SoundDuration":326492,"Delta":78114325},{"NoteNumber":73,"Velocity":92,"Duration":326492,"SoundDuration":326492,"Delta":78114325},{"NoteNumber":52,"Velocity":94,"Duration":447760,"SoundDuration":447760,"Delta":78114325},{"NoteNumber":40,"Velocity":79,"Duration":447760,"SoundDuration":447760,"Delta":78114325},{"NoteNumber":73,"Velocity":79,"Duration":100746,"SoundDuration":100746,"Delta":78450146},{"NoteNumber":61,"Velocity":67,"Duration":100746,"SoundDuration":100746,"Delta":78450146},{"NoteNumber":61,"Velocity":67,"Duration":125873,"SoundDuration":125873,"Delta":78562086},{"NoteNumber":73,"Velocity":79,"Duration":125873,"SoundDuration":125873,"Delta":78562086},{"NoteNumber":73,"Velocity":79,"Duration":125873,"SoundDuration":125873,"Delta":78701946},{"NoteNumber":61,"Velocity":67,"Duration":125873,"SoundDuration":125873,"Delta":78701946},{"NoteNumber":73,"Velocity":79,"Duration":125873,"SoundDuration":125873,"Delta":78841806},{"NoteNumber":61,"Velocity":67,"Duration":125873,"SoundDuration":125873,"Delta":78841806},{"NoteNumber":61,"Velocity":76,"Duration":315884,"SoundDuration":315884,"Delta":78981666},{"NoteNumber":73,"Velocity":90,"Duration":315884,"SoundDuration":315884,"Delta":78981666},{"NoteNumber":73,"Velocity":73,"Duration":97472,"SoundDuration":97472,"Delta":79306576},{"NoteNumber":61,"Velocity":62,"Duration":97472,"SoundDuration":97472,"Delta":79306576},{"NoteNumber":61,"Velocity":62,"Duration":134831,"SoundDuration":134831,"Delta":79414879},{"NoteNumber":73,"Velocity":73,"Duration":134831,"SoundDuration":134831,"Delta":79414879},{"NoteNumber":61,"Velocity":62,"Duration":134165,"SoundDuration":134165,"Delta":79564692},{"NoteNumber":73,"Velocity":73,"Duration":134165,"SoundDuration":134165,"Delta":79564692},{"NoteNumber":46,"Velocity":83,"Duration":222222,"SoundDuration":222222,"Delta":79639598},{"NoteNumber":34,"Velocity":70,"Duration":222222,"SoundDuration":222222,"Delta":79639598},{"NoteNumber":73,"Velocity":73,"Duration":133333,"SoundDuration":133333,"Delta":79713672},{"NoteNumber":61,"Velocity":62,"Duration":133333,"SoundDuration":133333,"Delta":79713672},{"NoteNumber":61,"Velocity":78,"Duration":324073,"SoundDuration":324073,"Delta":79861820},{"NoteNumber":73,"Velocity":92,"Duration":324073,"SoundDuration":324073,"Delta":79861820},{"NoteNumber":53,"Velocity":94,"Duration":1300280,"SoundDuration":1300280,"Delta":79861820},{"NoteNumber":41,"Velocity":79,"Duration":1300280,"SoundDuration":1300280,"Delta":79861820},{"NoteNumber":73,"Velocity":79,"Duration":99999,"SoundDuration":99999,"Delta":80195153},{"NoteNumber":61,"Velocity":67,"Duration":99999,"SoundDuration":99999,"Delta":80195153},{"NoteNumber":61,"Velocity":67,"Duration":126315,"SoundDuration":126315,"Delta":80306264},{"NoteNumber":73,"Velocity":79,"Duration":126315,"SoundDuration":126315,"Delta":80306264},{"NoteNumber":61,"Velocity":67,"Duration":126315,"SoundDuration":126315,"Delta":80446615},{"NoteNumber":73,"Velocity":79,"Duration":126315,"SoundDuration":126315,"Delta":80446615},{"NoteNumber":73,"Velocity":79,"Duration":126315,"SoundDuration":126315,"Delta":80586966},{"NoteNumber":61,"Velocity":67,"Duration":126315,"SoundDuration":126315,"Delta":80586966},{"NoteNumber":61,"Velocity":76,"Duration":317029,"SoundDuration":317029,"Delta":80727317},{"NoteNumber":73,"Velocity":90,"Duration":317029,"SoundDuration":317029,"Delta":80727317},{"NoteNumber":73,"Velocity":73,"Duration":97826,"SoundDuration":97826,"Delta":81053404},{"NoteNumber":61,"Velocity":62,"Duration":97826,"SoundDuration":97826,"Delta":81053404},{"NoteNumber":61,"Velocity":62,"Duration":134831,"SoundDuration":134831,"Delta":81162100},{"NoteNumber":73,"Velocity":73,"Duration":134831,"SoundDuration":134831,"Delta":81162100},{"NoteNumber":52,"Velocity":83,"Duration":149812,"SoundDuration":149812,"Delta":81162100},{"NoteNumber":40,"Velocity":70,"Duration":149812,"SoundDuration":149812,"Delta":81162100},{"NoteNumber":61,"Velocity":62,"Duration":136444,"SoundDuration":136444,"Delta":81311913},{"NoteNumber":73,"Velocity":73,"Duration":136444,"SoundDuration":136444,"Delta":81311913},{"NoteNumber":53,"Velocity":78,"Duration":151829,"SoundDuration":151829,"Delta":81311913},{"NoteNumber":41,"Velocity":66,"Duration":151829,"SoundDuration":151829,"Delta":81311913},{"NoteNumber":73,"Velocity":73,"Duration":138461,"SoundDuration":138461,"Delta":81463742},{"NoteNumber":61,"Velocity":62,"Duration":138461,"SoundDuration":138461,"Delta":81463742},{"NoteNumber":40,"Velocity":66,"Duration":153846,"SoundDuration":153846,"Delta":81463742},{"NoteNumber":52,"Velocity":78,"Duration":153846,"SoundDuration":153846,"Delta":81463742},{"NoteNumber":69,"Velocity":78,"Duration":332103,"SoundDuration":332103,"Delta":81617588},{"NoteNumber":81,"Velocity":92,"Duration":322877,"SoundDuration":322877,"Delta":81617588},{"NoteNumber":49,"Velocity":92,"Duration":1725730,"SoundDuration":1725730,"Delta":81617588},{"NoteNumber":37,"Velocity":78,"Duration":1725730,"SoundDuration":1725730,"Delta":81617588},{"NoteNumber":80,"Velocity":78,"Duration":99630,"SoundDuration":99630,"Delta":81949691},{"NoteNumber":68,"Velocity":66,"Duration":99630,"SoundDuration":99630,"Delta":81949691},{"NoteNumber":68,"Velocity":66,"Duration":126760,"SoundDuration":126760,"Delta":82060392},{"NoteNumber":80,"Velocity":78,"Duration":126760,"SoundDuration":126760,"Delta":82060392},{"NoteNumber":68,"Velocity":66,"Duration":126760,"SoundDuration":126760,"Delta":82201237},{"NoteNumber":80,"Velocity":78,"Duration":126760,"SoundDuration":126760,"Delta":82201237},{"NoteNumber":68,"Velocity":66,"Duration":126760,"SoundDuration":126760,"Delta":82342082},{"NoteNumber":80,"Velocity":78,"Duration":126760,"SoundDuration":126760,"Delta":82342082},{"NoteNumber":66,"Velocity":72,"Duration":327273,"SoundDuration":327273,"Delta":82482927},{"NoteNumber":78,"Velocity":85,"Duration":327273,"SoundDuration":327273,"Delta":82482927},{"NoteNumber":68,"Velocity":62,"Duration":98181,"SoundDuration":98181,"Delta":82810200},{"NoteNumber":80,"Velocity":73,"Duration":98181,"SoundDuration":98181,"Delta":82810200},{"NoteNumber":80,"Velocity":73,"Duration":127208,"SoundDuration":127208,"Delta":82919291},{"NoteNumber":68,"Velocity":62,"Duration":127208,"SoundDuration":127208,"Delta":82919291},{"NoteNumber":68,"Velocity":62,"Duration":127208,"SoundDuration":127208,"Delta":83060634},{"NoteNumber":80,"Velocity":73,"Duration":127208,"SoundDuration":127208,"Delta":83060634},{"NoteNumber":80,"Velocity":73,"Duration":127208,"SoundDuration":127208,"Delta":83201976},{"NoteNumber":68,"Velocity":62,"Duration":127208,"SoundDuration":127208,"Delta":83201976},{"NoteNumber":61,"Velocity":78,"Duration":326492,"SoundDuration":326492,"Delta":83343319},{"NoteNumber":73,"Velocity":92,"Duration":326492,"SoundDuration":326492,"Delta":83343319},{"NoteNumber":52,"Velocity":94,"Duration":447760,"SoundDuration":447760,"Delta":83343319},{"NoteNumber":40,"Velocity":79,"Duration":447760,"SoundDuration":447760,"Delta":83343319},{"NoteNumber":61,"Velocity":67,"Duration":100746,"SoundDuration":100746,"Delta":83679140},{"NoteNumber":73,"Velocity":79,"Duration":100746,"SoundDuration":100746,"Delta":83679140},{"NoteNumber":73,"Velocity":79,"Duration":126760,"SoundDuration":126760,"Delta":83791080},{"NoteNumber":61,"Velocity":67,"Duration":126760,"SoundDuration":126760,"Delta":83791080},{"NoteNumber":61,"Velocity":67,"Duration":126760,"SoundDuration":126760,"Delta":83931925},{"NoteNumber":73,"Velocity":79,"Duration":126760,"SoundDuration":126760,"Delta":83931925},{"NoteNumber":73,"Velocity":79,"Duration":126760,"SoundDuration":126760,"Delta":84072770},{"NoteNumber":61,"Velocity":67,"Duration":126760,"SoundDuration":126760,"Delta":84072770},{"NoteNumber":61,"Velocity":76,"Duration":318182,"SoundDuration":318182,"Delta":84213615},{"NoteNumber":73,"Velocity":90,"Duration":318182,"SoundDuration":318182,"Delta":84213615},{"NoteNumber":61,"Velocity":58,"Duration":98181,"SoundDuration":98181,"Delta":84540888},{"NoteNumber":73,"Velocity":69,"Duration":98181,"SoundDuration":98181,"Delta":84540888},{"NoteNumber":73,"Velocity":69,"Duration":133333,"SoundDuration":133333,"Delta":84649979},{"NoteNumber":61,"Velocity":58,"Duration":133333,"SoundDuration":133333,"Delta":84649979},{"NoteNumber":34,"Velocity":66,"Duration":444444,"SoundDuration":444444,"Delta":84649979},{"NoteNumber":46,"Velocity":78,"Duration":444444,"SoundDuration":444444,"Delta":84649979},{"NoteNumber":61,"Velocity":58,"Duration":133333,"SoundDuration":133333,"Delta":84798127},{"NoteNumber":73,"Velocity":69,"Duration":133333,"SoundDuration":133333,"Delta":84798127},{"NoteNumber":73,"Velocity":69,"Duration":133333,"SoundDuration":133333,"Delta":84946275},{"NoteNumber":61,"Velocity":58,"Duration":133333,"SoundDuration":133333,"Delta":84946275},{"NoteNumber":61,"Velocity":69,"Duration":324073,"SoundDuration":324073,"Delta":85094423},{"NoteNumber":73,"Velocity":82,"Duration":324073,"SoundDuration":324073,"Delta":85094423},{"NoteNumber":51,"Velocity":86,"Duration":658729,"SoundDuration":658729,"Delta":85094423},{"NoteNumber":39,"Velocity":73,"Duration":658729,"SoundDuration":658729,"Delta":85094423},{"NoteNumber":61,"Velocity":63,"Duration":99999,"SoundDuration":99999,"Delta":85427756},{"NoteNumber":73,"Velocity":75,"Duration":99999,"SoundDuration":99999,"Delta":85427756},{"NoteNumber":73,"Velocity":75,"Duration":128571,"SoundDuration":128571,"Delta":85538867},{"NoteNumber":61,"Velocity":63,"Duration":128571,"SoundDuration":128571,"Delta":85538867},{"NoteNumber":61,"Velocity":63,"Duration":128571,"SoundDuration":128571,"Delta":85681724},{"NoteNumber":73,"Velocity":75,"Duration":128571,"SoundDuration":128571,"Delta":85681724},{"NoteNumber":41,"Velocity":68,"Duration":214285,"SoundDuration":214285,"Delta":85753153},{"NoteNumber":53,"Velocity":80,"Duration":214285,"SoundDuration":214285,"Delta":85753153},{"NoteNumber":73,"Velocity":75,"Duration":128571,"SoundDuration":128571,"Delta":85824581},{"NoteNumber":61,"Velocity":63,"Duration":128571,"SoundDuration":128571,"Delta":85824581},{"NoteNumber":61,"Velocity":70,"Duration":324073,"SoundDuration":324073,"Delta":85967438},{"NoteNumber":73,"Velocity":83,"Duration":324073,"SoundDuration":324073,"Delta":85967438},{"NoteNumber":42,"Velocity":72,"Duration":444444,"SoundDuration":444444,"Delta":85967438},{"NoteNumber":54,"Velocity":85,"Duration":444444,"SoundDuration":444444,"Delta":85967438},{"NoteNumber":61,"Velocity":62,"Duration":99999,"SoundDuration":99999,"Delta":86300771},{"NoteNumber":73,"Velocity":73,"Duration":99999,"SoundDuration":99999,"Delta":86300771},{"NoteNumber":61,"Velocity":62,"Duration":134831,"SoundDuration":134831,"Delta":86411882},{"NoteNumber":73,"Velocity":73,"Duration":134831,"SoundDuration":134831,"Delta":86411882},{"NoteNumber":57,"Velocity":88,"Duration":449438,"SoundDuration":449438,"Delta":86411882},{"NoteNumber":45,"Velocity":74,"Duration":449438,"SoundDuration":449438,"Delta":86411882},{"NoteNumber":73,"Velocity":73,"Duration":134831,"SoundDuration":134831,"Delta":86561695},{"NoteNumber":61,"Velocity":62,"Duration":134831,"SoundDuration":134831,"Delta":86561695},{"NoteNumber":61,"Velocity":62,"Duration":134831,"SoundDuration":134831,"Delta":86711507},{"NoteNumber":73,"Velocity":73,"Duration":134831,"SoundDuration":134831,"Delta":86711507},{"NoteNumber":73,"Velocity":88,"Duration":322877,"SoundDuration":322877,"Delta":86861320},{"NoteNumber":61,"Velocity":74,"Duration":322877,"SoundDuration":322877,"Delta":86861320},{"NoteNumber":46,"Velocity":78,"Duration":872911,"SoundDuration":872911,"Delta":86861320},{"NoteNumber":58,"Velocity":92,"Duration":872911,"SoundDuration":872911,"Delta":86861320},{"NoteNumber":61,"Velocity":67,"Duration":99630,"SoundDuration":99630,"Delta":87193423},{"NoteNumber":73,"Velocity":79,"Duration":99630,"SoundDuration":99630,"Delta":87193423},{"NoteNumber":61,"Velocity":67,"Duration":129032,"SoundDuration":129032,"Delta":87304124},{"NoteNumber":73,"Velocity":79,"Duration":129032,"SoundDuration":129032,"Delta":87304124},{"NoteNumber":73,"Velocity":79,"Duration":129032,"SoundDuration":129032,"Delta":87447493},{"NoteNumber":61,"Velocity":67,"Duration":129032,"SoundDuration":129032,"Delta":87447493},{"NoteNumber":61,"Velocity":67,"Duration":129032,"SoundDuration":129032,"Delta":87590863},{"NoteNumber":73,"Velocity":79,"Duration":129032,"SoundDuration":129032,"Delta":87590863},{"NoteNumber":73,"Velocity":90,"Duration":325279,"SoundDuration":325279,"Delta":87734232},{"NoteNumber":61,"Velocity":76,"Duration":325279,"SoundDuration":325279,"Delta":87734232},{"NoteNumber":44,"Velocity":77,"Duration":446096,"SoundDuration":446096,"Delta":87734232},{"NoteNumber":56,"Velocity":91,"Duration":446096,"SoundDuration":446096,"Delta":87734232},{"NoteNumber":61,"Velocity":66,"Duration":100371,"SoundDuration":100371,"Delta":88068805},{"NoteNumber":73,"Velocity":78,"Duration":100371,"SoundDuration":100371,"Delta":88068805},{"NoteNumber":61,"Velocity":66,"Duration":135848,"SoundDuration":135848,"Delta":88180329},{"NoteNumber":73,"Velocity":78,"Duration":135848,"SoundDuration":135848,"Delta":88180329},{"NoteNumber":54,"Velocity":85,"Duration":452830,"SoundDuration":452830,"Delta":88180329},{"NoteNumber":42,"Velocity":72,"Duration":452830,"SoundDuration":452830,"Delta":88180329},{"NoteNumber":73,"Velocity":78,"Duration":135849,"SoundDuration":135849,"Delta":88331272},{"NoteNumber":61,"Velocity":66,"Duration":135849,"SoundDuration":135849,"Delta":88331272},{"NoteNumber":61,"Velocity":65,"Duration":135849,"SoundDuration":135849,"Delta":88482216},{"NoteNumber":73,"Velocity":77,"Duration":135849,"SoundDuration":135849,"Delta":88482216},{"NoteNumber":73,"Velocity":88,"Duration":337837,"SoundDuration":337837,"Delta":88633159},{"NoteNumber":61,"Velocity":74,"Duration":337837,"SoundDuration":337837,"Delta":88633159},{"NoteNumber":45,"Velocity":79,"Duration":463319,"SoundDuration":463319,"Delta":88633159},{"NoteNumber":57,"Velocity":94,"Duration":463319,"SoundDuration":463319,"Delta":88633159},{"NoteNumber":61,"Velocity":68,"Duration":104247,"SoundDuration":104247,"Delta":88980649},{"NoteNumber":73,"Velocity":80,"Duration":104247,"SoundDuration":104247,"Delta":88980649},{"NoteNumber":61,"Velocity":68,"Duration":141176,"SoundDuration":141176,"Delta":89096479},{"NoteNumber":73,"Velocity":80,"Duration":141176,"SoundDuration":141176,"Delta":89096479},{"NoteNumber":42,"Velocity":75,"Duration":235293,"SoundDuration":235293,"Delta":89096479},{"NoteNumber":54,"Velocity":89,"Duration":235293,"SoundDuration":235293,"Delta":89096479},{"NoteNumber":73,"Velocity":80,"Duration":142947,"SoundDuration":142947,"Delta":89253342},{"NoteNumber":61,"Velocity":68,"Duration":142947,"SoundDuration":142947,"Delta":89253342},{"NoteNumber":41,"Velocity":71,"Duration":241935,"SoundDuration":241935,"Delta":89331773},{"NoteNumber":53,"Velocity":84,"Duration":241935,"SoundDuration":241935,"Delta":89331773},{"NoteNumber":61,"Velocity":67,"Duration":145161,"SoundDuration":145161,"Delta":89412418},{"NoteNumber":73,"Velocity":79,"Duration":145161,"SoundDuration":145161,"Delta":89412418},{"NoteNumber":81,"Velocity":92,"Duration":339622,"SoundDuration":339622,"Delta":89573709},{"NoteNumber":69,"Velocity":78,"Duration":339622,"SoundDuration":339622,"Delta":89573709},{"NoteNumber":53,"Velocity":83,"Duration":452830,"SoundDuration":452830,"Delta":89573709},{"NoteNumber":41,"Velocity":70,"Duration":452830,"SoundDuration":452830,"Delta":89573709},{"NoteNumber":80,"Velocity":78,"Duration":101886,"SoundDuration":101886,"Delta":89913331},{"NoteNumber":68,"Velocity":66,"Duration":101886,"SoundDuration":101886,"Delta":89913331},{"NoteNumber":68,"Velocity":66,"Duration":127208,"SoundDuration":127208,"Delta":90026539},{"NoteNumber":80,"Velocity":78,"Duration":127208,"SoundDuration":127208,"Delta":90026539},{"NoteNumber":80,"Velocity":78,"Duration":127208,"SoundDuration":127208,"Delta":90167881},{"NoteNumber":68,"Velocity":66,"Duration":127208,"SoundDuration":127208,"Delta":90167881},{"NoteNumber":68,"Velocity":66,"Duration":127208,"SoundDuration":127208,"Delta":90309224},{"NoteNumber":80,"Velocity":78,"Duration":127208,"SoundDuration":127208,"Delta":90309224},{"NoteNumber":66,"Velocity":72,"Duration":332103,"SoundDuration":332103,"Delta":90450567},{"NoteNumber":78,"Velocity":85,"Duration":332103,"SoundDuration":332103,"Delta":90450567},{"NoteNumber":80,"Velocity":73,"Duration":99630,"SoundDuration":99630,"Delta":90782670},{"NoteNumber":68,"Velocity":62,"Duration":99630,"SoundDuration":99630,"Delta":90782670},{"NoteNumber":68,"Velocity":62,"Duration":127208,"SoundDuration":127208,"Delta":90893371},{"NoteNumber":80,"Velocity":73,"Duration":127208,"SoundDuration":127208,"Delta":90893371},{"NoteNumber":80,"Velocity":73,"Duration":127208,"SoundDuration":127208,"Delta":91034713},{"NoteNumber":68,"Velocity":62,"Duration":127208,"SoundDuration":127208,"Delta":91034713},{"NoteNumber":68,"Velocity":62,"Duration":127208,"SoundDuration":127208,"Delta":91176056},{"NoteNumber":80,"Velocity":73,"Duration":127208,"SoundDuration":127208,"Delta":91176056},{"NoteNumber":61,"Velocity":76,"Duration":330188,"SoundDuration":330188,"Delta":91317399},{"NoteNumber":73,"Velocity":90,"Duration":330188,"SoundDuration":330188,"Delta":91317399},{"NoteNumber":73,"Velocity":73,"Duration":101886,"SoundDuration":101886,"Delta":91657021},{"NoteNumber":61,"Velocity":62,"Duration":101886,"SoundDuration":101886,"Delta":91657021},{"NoteNumber":61,"Velocity":62,"Duration":133333,"SoundDuration":133333,"Delta":91770229},{"NoteNumber":73,"Velocity":73,"Duration":133333,"SoundDuration":133333,"Delta":91770229},{"NoteNumber":34,"Velocity":73,"Duration":444444,"SoundDuration":444444,"Delta":91770229},{"NoteNumber":46,"Velocity":86,"Duration":444444,"SoundDuration":444444,"Delta":91770229},{"NoteNumber":73,"Velocity":73,"Duration":133333,"SoundDuration":133333,"Delta":91918377},{"NoteNumber":61,"Velocity":62,"Duration":133333,"SoundDuration":133333,"Delta":91918377},{"NoteNumber":61,"Velocity":62,"Duration":133333,"SoundDuration":133333,"Delta":92066525},{"NoteNumber":73,"Velocity":73,"Duration":133333,"SoundDuration":133333,"Delta":92066525},{"NoteNumber":61,"Velocity":78,"Duration":324073,"SoundDuration":324073,"Delta":92214673},{"NoteNumber":73,"Velocity":92,"Duration":324073,"SoundDuration":324073,"Delta":92214673},{"NoteNumber":51,"Velocity":94,"Duration":661835,"SoundDuration":661835,"Delta":92214673},{"NoteNumber":39,"Velocity":79,"Duration":661835,"SoundDuration":661835,"Delta":92214673},{"NoteNumber":73,"Velocity":79,"Duration":99999,"SoundDuration":99999,"Delta":92548006},{"NoteNumber":61,"Velocity":67,"Duration":99999,"SoundDuration":99999,"Delta":92548006},{"NoteNumber":61,"Velocity":67,"Duration":130434,"SoundDuration":130434,"Delta":92659117},{"NoteNumber":73,"Velocity":79,"Duration":130434,"SoundDuration":130434,"Delta":92659117},{"NoteNumber":73,"Velocity":79,"Duration":130434,"SoundDuration":130434,"Delta":92804044},{"NoteNumber":61,"Velocity":67,"Duration":130434,"SoundDuration":130434,"Delta":92804044},{"NoteNumber":41,"Velocity":72,"Duration":217391,"SoundDuration":217391,"Delta":92876508},{"NoteNumber":53,"Velocity":85,"Duration":217391,"SoundDuration":217391,"Delta":92876508},{"NoteNumber":61,"Velocity":67,"Duration":130434,"SoundDuration":130434,"Delta":92948972},{"NoteNumber":73,"Velocity":79,"Duration":130434,"SoundDuration":130434,"Delta":92948972},{"NoteNumber":61,"Velocity":76,"Duration":326493,"SoundDuration":326493,"Delta":93093900},{"NoteNumber":73,"Velocity":90,"Duration":326493,"SoundDuration":326493,"Delta":93093900},{"NoteNumber":42,"Velocity":74,"Duration":448216,"SoundDuration":448216,"Delta":93093900},{"NoteNumber":54,"Velocity":88,"Duration":448216,"SoundDuration":448216,"Delta":93093900},{"NoteNumber":61,"Velocity":62,"Duration":101123,"SoundDuration":101123,"Delta":93429757},{"NoteNumber":73,"Velocity":73,"Duration":101123,"SoundDuration":101123,"Delta":93429757},{"NoteNumber":61,"Velocity":62,"Duration":136882,"SoundDuration":136882,"Delta":93542116},{"NoteNumber":73,"Velocity":73,"Duration":136882,"SoundDuration":136882,"Delta":93542116},{"NoteNumber":45,"Velocity":78,"Duration":456273,"SoundDuration":456273,"Delta":93542116},{"NoteNumber":57,"Velocity":92,"Duration":456273,"SoundDuration":456273,"Delta":93542116},{"NoteNumber":61,"Velocity":62,"Duration":136882,"SoundDuration":136882,"Delta":93694208},{"NoteNumber":73,"Velocity":73,"Duration":136882,"SoundDuration":136882,"Delta":93694208},{"NoteNumber":73,"Velocity":73,"Duration":136882,"SoundDuration":136882,"Delta":93846299},{"NoteNumber":61,"Velocity":62,"Duration":136882,"SoundDuration":136882,"Delta":93846299},{"NoteNumber":61,"Velocity":74,"Duration":325279,"SoundDuration":325279,"Delta":93998390},{"NoteNumber":73,"Velocity":88,"Duration":325279,"SoundDuration":325279,"Delta":93998390},{"NoteNumber":46,"Velocity":79,"Duration":882460,"SoundDuration":882460,"Delta":93998390},{"NoteNumber":58,"Velocity":94,"Duration":882460,"SoundDuration":882460,"Delta":93998390},{"NoteNumber":73,"Velocity":79,"Duration":100371,"SoundDuration":100371,"Delta":94332963},{"NoteNumber":61,"Velocity":67,"Duration":100371,"SoundDuration":100371,"Delta":94332963},{"NoteNumber":61,"Velocity":67,"Duration":130909,"SoundDuration":130909,"Delta":94444487},{"NoteNumber":73,"Velocity":79,"Duration":130909,"SoundDuration":130909,"Delta":94444487},{"NoteNumber":61,"Velocity":67,"Duration":130909,"SoundDuration":130909,"Delta":94589942},{"NoteNumber":73,"Velocity":79,"Duration":130909,"SoundDuration":130909,"Delta":94589942},{"NoteNumber":73,"Velocity":79,"Duration":130909,"SoundDuration":130909,"Delta":94735397},{"NoteNumber":61,"Velocity":67,"Duration":130909,"SoundDuration":130909,"Delta":94735397},{"NoteNumber":61,"Velocity":76,"Duration":328947,"SoundDuration":328947,"Delta":94880851},{"NoteNumber":73,"Velocity":90,"Duration":328947,"SoundDuration":328947,"Delta":94880851},{"NoteNumber":57,"Velocity":94,"Duration":451127,"SoundDuration":451127,"Delta":94880851},{"NoteNumber":45,"Velocity":79,"Duration":451127,"SoundDuration":451127,"Delta":94880851},{"NoteNumber":73,"Velocity":82,"Duration":101503,"SoundDuration":101503,"Delta":95219197},{"NoteNumber":61,"Velocity":69,"Duration":101503,"SoundDuration":101503,"Delta":95219197},{"NoteNumber":61,"Velocity":68,"Duration":135848,"SoundDuration":135848,"Delta":95331979},{"NoteNumber":73,"Velocity":81,"Duration":135848,"SoundDuration":135848,"Delta":95331979},{"NoteNumber":42,"Velocity":76,"Duration":452830,"SoundDuration":452830,"Delta":95331979},{"NoteNumber":54,"Velocity":90,"Duration":452830,"SoundDuration":452830,"Delta":95331979},{"NoteNumber":61,"Velocity":68,"Duration":135849,"SoundDuration":135849,"Delta":95482923},{"NoteNumber":73,"Velocity":81,"Duration":135849,"SoundDuration":135849,"Delta":95482923},{"NoteNumber":73,"Velocity":81,"Duration":135849,"SoundDuration":135849,"Delta":95633866},{"NoteNumber":61,"Velocity":68,"Duration":135849,"SoundDuration":135849,"Delta":95633866},{"NoteNumber":61,"Velocity":80,"Duration":337837,"SoundDuration":337837,"Delta":95784809},{"NoteNumber":73,"Velocity":95,"Duration":337837,"SoundDuration":337837,"Delta":95784809},{"NoteNumber":44,"Velocity":86,"Duration":463319,"SoundDuration":463319,"Delta":95784809},{"NoteNumber":56,"Velocity":102,"Duration":463319,"SoundDuration":463319,"Delta":95784809},{"NoteNumber":73,"Velocity":78,"Duration":104247,"SoundDuration":104247,"Delta":96132299},{"NoteNumber":61,"Velocity":66,"Duration":104247,"SoundDuration":104247,"Delta":96132299},{"NoteNumber":61,"Velocity":67,"Duration":143426,"SoundDuration":143426,"Delta":96248129},{"NoteNumber":73,"Velocity":79,"Duration":143426,"SoundDuration":143426,"Delta":96248129},{"NoteNumber":42,"Velocity":84,"Duration":239044,"SoundDuration":239044,"Delta":96248129},{"NoteNumber":54,"Velocity":99,"Duration":239044,"SoundDuration":239044,"Delta":96248129},{"NoteNumber":61,"Velocity":69,"Duration":148945,"SoundDuration":148945,"Delta":96407492},{"NoteNumber":73,"Velocity":82,"Duration":148945,"SoundDuration":148945,"Delta":96407492},{"NoteNumber":41,"Velocity":79,"Duration":259740,"SoundDuration":259740,"Delta":96487173},{"NoteNumber":53,"Velocity":93,"Duration":259740,"SoundDuration":259740,"Delta":96487173},{"NoteNumber":73,"Velocity":84,"Duration":155844,"SoundDuration":155844,"Delta":96573754},{"NoteNumber":61,"Velocity":71,"Duration":155844,"SoundDuration":155844,"Delta":96573754},{"NoteNumber":61,"Velocity":80,"Duration":519480,"SoundDuration":519480,"Delta":96746914},{"NoteNumber":65,"Velocity":80,"Duration":519480,"SoundDuration":519480,"Delta":96746914},{"NoteNumber":73,"Velocity":95,"Duration":519480,"SoundDuration":519480,"Delta":96746914},{"NoteNumber":69,"Velocity":80,"Duration":519480,"SoundDuration":519480,"Delta":96746914},{"NoteNumber":53,"Velocity":84,"Duration":519480,"SoundDuration":519480,"Delta":96746914},{"NoteNumber":57,"Velocity":101,"Duration":519480,"SoundDuration":519480,"Delta":96746914},{"NoteNumber":65,"Velocity":54,"Duration":1177626,"SoundDuration":1177626,"Delta":98824838},{"NoteNumber":41,"Velocity":49,"Duration":1177626,"SoundDuration":1177626,"Delta":98824838},{"NoteNumber":53,"Velocity":49,"Duration":1177626,"SoundDuration":1177626,"Delta":98824838},{"NoteNumber":60,"Velocity":62,"Duration":1188236,"SoundDuration":1188236,"Delta":100002464},{"NoteNumber":64,"Velocity":62,"Duration":1188236,"SoundDuration":1188236,"Delta":100002464},{"NoteNumber":53,"Velocity":57,"Duration":1188236,"SoundDuration":1188236,"Delta":100002464},{"NoteNumber":46,"Velocity":57,"Duration":4369798,"SoundDuration":4369798,"Delta":100002464},{"NoteNumber":63,"Velocity":68,"Duration":594117,"SoundDuration":594117,"Delta":101190700},{"NoteNumber":60,"Velocity":68,"Duration":1185242,"SoundDuration":1185242,"Delta":101190700},{"NoteNumber":54,"Velocity":59,"Duration":1185242,"SoundDuration":1185242,"Delta":101190700},{"NoteNumber":62,"Velocity":63,"Duration":200742,"SoundDuration":200742,"Delta":101784818},{"NoteNumber":63,"Velocity":67,"Duration":187793,"SoundDuration":187793,"Delta":101985561},{"NoteNumber":62,"Velocity":63,"Duration":202588,"SoundDuration":202588,"Delta":102173354},{"NoteNumber":58,"Velocity":59,"Duration":1243523,"SoundDuration":1243523,"Delta":102375943},{"NoteNumber":61,"Velocity":59,"Duration":1243523,"SoundDuration":1243523,"Delta":102375943},{"NoteNumber":53,"Velocity":52,"Duration":2071696,"SoundDuration":2071696,"Delta":102375943},{"NoteNumber":60,"Velocity":56,"Duration":752795,"SoundDuration":752795,"Delta":103619467},{"NoteNumber":57,"Velocity":56,"Duration":752795,"SoundDuration":752795,"Delta":103619467},{"NoteNumber":64,"Velocity":86,"Duration":75376,"SoundDuration":75376,"Delta":104372262},{"NoteNumber":40,"Velocity":71,"Duration":75376,"SoundDuration":75376,"Delta":104372262},{"NoteNumber":65,"Velocity":100,"Duration":301507,"SoundDuration":301507,"Delta":104447639},{"NoteNumber":41,"Velocity":80,"Duration":301507,"SoundDuration":301507,"Delta":104447639},{"NoteNumber":64,"Velocity":62,"Duration":1206029,"SoundDuration":1206029,"Delta":105305836},{"NoteNumber":60,"Velocity":62,"Duration":1206029,"SoundDuration":1206029,"Delta":105305836},{"NoteNumber":46,"Velocity":57,"Duration":4408423,"SoundDuration":4408423,"Delta":105305836},{"NoteNumber":53,"Velocity":57,"Duration":1206029,"SoundDuration":1206029,"Delta":105305836},{"NoteNumber":63,"Velocity":68,"Duration":603014,"SoundDuration":603014,"Delta":106511866},{"NoteNumber":59,"Velocity":68,"Duration":1199727,"SoundDuration":1199727,"Delta":106511866},{"NoteNumber":54,"Velocity":59,"Duration":1199727,"SoundDuration":1199727,"Delta":106511866},{"NoteNumber":62,"Velocity":63,"Duration":200050,"SoundDuration":200050,"Delta":107114881},{"NoteNumber":63,"Velocity":67,"Duration":190476,"SoundDuration":190476,"Delta":107314932},{"NoteNumber":62,"Velocity":63,"Duration":206185,"SoundDuration":206185,"Delta":107505408},{"NoteNumber":58,"Velocity":59,"Duration":1249870,"SoundDuration":1249870,"Delta":107711594},{"NoteNumber":61,"Velocity":59,"Duration":1249870,"SoundDuration":1249870,"Delta":107711594},{"NoteNumber":53,"Velocity":52,"Duration":2078423,"SoundDuration":2078423,"Delta":107711594},{"NoteNumber":57,"Velocity":56,"Duration":752795,"SoundDuration":752795,"Delta":108961464},{"NoteNumber":60,"Velocity":56,"Duration":752795,"SoundDuration":752795,"Delta":108961464},{"NoteNumber":64,"Velocity":86,"Duration":75757,"SoundDuration":75757,"Delta":109714260},{"NoteNumber":40,"Velocity":71,"Duration":75757,"SoundDuration":75757,"Delta":109714260},{"NoteNumber":65,"Velocity":100,"Duration":303030,"SoundDuration":303030,"Delta":109790017},{"NoteNumber":41,"Velocity":80,"Duration":303030,"SoundDuration":303030,"Delta":109790017},{"NoteNumber":64,"Velocity":93,"Duration":109853,"SoundDuration":109853,"Delta":111384763},{"NoteNumber":52,"Velocity":81,"Duration":109853,"SoundDuration":109853,"Delta":111384763},{"NoteNumber":65,"Velocity":93,"Duration":109853,"SoundDuration":109853,"Delta":111494617},{"NoteNumber":53,"Velocity":81,"Duration":109853,"SoundDuration":109853,"Delta":111494617},{"NoteNumber":64,"Velocity":93,"Duration":109853,"SoundDuration":109853,"Delta":111604470},{"NoteNumber":52,"Velocity":81,"Duration":109853,"SoundDuration":109853,"Delta":111604470},{"NoteNumber":61,"Velocity":100,"Duration":1977368,"SoundDuration":1977368,"Delta":111714324},{"NoteNumber":49,"Velocity":86,"Duration":1977368,"SoundDuration":1977368,"Delta":111714324},{"NoteNumber":84,"Velocity":100,"Duration":249500,"SoundDuration":249500,"Delta":115009939},{"NoteNumber":72,"Velocity":90,"Duration":249500,"SoundDuration":249500,"Delta":115009939},{"NoteNumber":36,"Velocity":72,"Duration":249500,"SoundDuration":249500,"Delta":115009939},{"NoteNumber":48,"Velocity":80,"Duration":249500,"SoundDuration":249500,"Delta":115009939},{"NoteNumber":85,"Velocity":96,"Duration":249501,"SoundDuration":249501,"Delta":115259440},{"NoteNumber":73,"Velocity":86,"Duration":249501,"SoundDuration":249501,"Delta":115259440},{"NoteNumber":37,"Velocity":68,"Duration":249501,"SoundDuration":249501,"Delta":115259440},{"NoteNumber":49,"Velocity":76,"Duration":249501,"SoundDuration":249501,"Delta":115259440},{"NoteNumber":70,"Velocity":85,"Duration":244066,"SoundDuration":244066,"Delta":115508941},{"NoteNumber":82,"Velocity":95,"Duration":244066,"SoundDuration":244066,"Delta":115508941},{"NoteNumber":46,"Velocity":77,"Duration":244066,"SoundDuration":244066,"Delta":115508941},{"NoteNumber":34,"Velocity":69,"Duration":244066,"SoundDuration":244066,"Delta":115508941},{"NoteNumber":70,"Velocity":90,"Duration":2758619,"SoundDuration":2758619,"Delta":115780960},{"NoteNumber":82,"Velocity":100,"Duration":2758619,"SoundDuration":2758619,"Delta":115780960},{"NoteNumber":46,"Velocity":81,"Duration":2758619,"SoundDuration":2758619,"Delta":115780960},{"NoteNumber":34,"Velocity":72,"Duration":2758619,"SoundDuration":2758619,"Delta":115780960}]}