{"title":"Scherzo","artist":"Piano","durationMs":381821,"midiSha256":"3b2149af261dc09575dbb2a496fe0de5e840d0967ff01f0b50deb058a067c201","midiObject":[{"NoteNumber":52,"Velocity":76,"Duration":206143,"SoundDuration":206143,"Delta":0},{"NoteNumber":40,"Velocity":61,"Duration":206143,"SoundDuration":206143,"Delta":0},{"NoteNumber":28,"Velocity":51,"Duration":206143,"SoundDuration":206143,"Delta":0},{"NoteNumber":74,"Velocity":63,"Duration":576553,"SoundDuration":576553,"Delta":618429},{"NoteNumber":86,"Velocity":75,"Duration":576553,"SoundDuration":576553,"Delta":618429},{"NoteNumber":83,"Velocity":63,"Duration":576553,"SoundDuration":576553,"Delta":618429},{"NoteNumber":52,"Velocity":47,"Duration":1877470,"SoundDuration":1877470,"Delta":618429},{"NoteNumber":59,"Velocity":47,"Duration":576553,"SoundDuration":576553,"Delta":618429},{"NoteNumber":62,"Velocity":56,"Duration":576553,"SoundDuration":576553,"Delta":618429},{"NoteNumber":81,"Velocity":73,"Duration":576553,"SoundDuration":576553,"Delta":1194982},{"NoteNumber":84,"Velocity":73,"Duration":576553,"SoundDuration":576553,"Delta":1194982},{"NoteNumber":72,"Velocity":62,"Duration":576553,"SoundDuration":576553,"Delta":1194982},{"NoteNumber":60,"Velocity":56,"Duration":576553,"SoundDuration":576553,"Delta":1194982},{"NoteNumber":57,"Velocity":47,"Duration":576553,"SoundDuration":576553,"Delta":1194982},{"NoteNumber":78,"Velocity":63,"Duration":576553,"SoundDuration":576553,"Delta":1771536},{"NoteNumber":69,"Velocity":63,"Duration":576553,"SoundDuration":576553,"Delta":1771536},{"NoteNumber":81,"Velocity":75,"Duration":576553,"SoundDuration":576553,"Delta":1771536},{"NoteNumber":57,"Velocity":56,"Duration":576553,"SoundDuration":576553,"Delta":1771536},{"NoteNumber":54,"Velocity":47,"Duration":576553,"SoundDuration":576553,"Delta":1771536},{"NoteNumber":83,"Velocity":70,"Duration":80623,"SoundDuration":80623,"Delta":2348089},{"NoteNumber":71,"Velocity":59,"Duration":80623,"SoundDuration":80623,"Delta":2348089},{"NoteNumber":79,"Velocity":59,"Duration":80623,"SoundDuration":80623,"Delta":2348089},{"NoteNumber":59,"Velocity":56,"Duration":80623,"SoundDuration":80623,"Delta":2348089},{"NoteNumber":55,"Velocity":47,"Duration":80623,"SoundDuration":80623,"Delta":2348089},{"NoteNumber":67,"Velocity":52,"Duration":83798,"SoundDuration":83798,"Delta":2509336},{"NoteNumber":76,"Velocity":52,"Duration":83798,"SoundDuration":83798,"Delta":2509336},{"NoteNumber":79,"Velocity":62,"Duration":83798,"SoundDuration":83798,"Delta":2509336},{"NoteNumber":55,"Velocity":52,"Duration":83798,"SoundDuration":83798,"Delta":2509336},{"NoteNumber":52,"Velocity":44,"Duration":83798,"SoundDuration":83798,"Delta":2509336},{"NoteNumber":81,"Velocity":70,"Duration":80623,"SoundDuration":80623,"Delta":2676934},{"NoteNumber":78,"Velocity":54,"Duration":80623,"SoundDuration":80623,"Delta":2676934},{"NoteNumber":69,"Velocity":55,"Duration":80623,"SoundDuration":80623,"Delta":2676934},{"NoteNumber":57,"Velocity":56,"Duration":80623,"SoundDuration":80623,"Delta":2676934},{"NoteNumber":54,"Velocity":47,"Duration":80623,"SoundDuration":80623,"Delta":2676934},{"NoteNumber":78,"Velocity":63,"Duration":82978,"SoundDuration":82978,"Delta":2838181},{"NoteNumber":75,"Velocity":53,"Duration":82978,"SoundDuration":82978,"Delta":2838181},{"NoteNumber":66,"Velocity":53,"Duration":82978,"SoundDuration":82978,"Delta":2838181},{"NoteNumber":51,"Velocity":42,"Duration":82978,"SoundDuration":82978,"Delta":2838181},{"NoteNumber":54,"Velocity":50,"Duration":82978,"SoundDuration":82978,"Delta":2838181},{"NoteNumber":79,"Velocity":70,"Duration":81133,"SoundDuration":81133,"Delta":3004138},{"NoteNumber":76,"Velocity":59,"Duration":81133,"SoundDuration":81133,"Delta":3004138},{"NoteNumber":67,"Velocity":59,"Duration":81133,"SoundDuration":81133,"Delta":3004138},{"NoteNumber":52,"Velocity":47,"Duration":81133,"SoundDuration":81133,"Delta":3004138},{"NoteNumber":55,"Velocity":56,"Duration":81133,"SoundDuration":81133,"Delta":3004138},{"NoteNumber":64,"Velocity":54,"Duration":84350,"SoundDuration":84350,"Delta":3166405},{"NoteNumber":76,"Velocity":64,"Duration":84350,"SoundDuration":84350,"Delta":3166405},{"NoteNumber":73,"Velocity":54,"Duration":84350,"SoundDuration":84350,"Delta":3166405},{"NoteNumber":52,"Velocity":52,"Duration":84350,"SoundDuration":84350,"Delta":3166405},{"NoteNumber":49,"Velocity":44,"Duration":84350,"SoundDuration":84350,"Delta":3166405},{"NoteNumber":78,"Velocity":70,"Duration":100240,"SoundDuration":100240,"Delta":3335106},{"NoteNumber":66,"Velocity":59,"Duration":100240,"SoundDuration":100240,"Delta":3335106},{"NoteNumber":75,"Velocity":59,"Duration":100240,"SoundDuration":100240,"Delta":3335106},{"NoteNumber":51,"Velocity":47,"Duration":100240,"SoundDuration":100240,"Delta":3335106},{"NoteNumber":54,"Velocity":56,"Duration":100240,"SoundDuration":100240,"Delta":3335106},{"NoteNumber":66,"Velocity":58,"Duration":92273,"SoundDuration":92273,"Delta":3736068},{"NoteNumber":78,"Velocity":69,"Duration":92273,"SoundDuration":92273,"Delta":3736068},{"NoteNumber":75,"Velocity":58,"Duration":92273,"SoundDuration":92273,"Delta":3736068},{"NoteNumber":59,"Velocity":68,"Duration":721238,"SoundDuration":721238,"Delta":3920614},{"NoteNumber":47,"Velocity":55,"Duration":721238,"SoundDuration":721238,"Delta":3920614},{"NoteNumber":73,"Velocity":62,"Duration":82444,"SoundDuration":82444,"Delta":4641853},{"NoteNumber":61,"Velocity":52,"Duration":82444,"SoundDuration":82444,"Delta":4641853},{"NoteNumber":49,"Velocity":49,"Duration":82444,"SoundDuration":82444,"Delta":4641853},{"NoteNumber":63,"Velocity":54,"Duration":81917,"SoundDuration":81917,"Delta":4806743},{"NoteNumber":75,"Velocity":64,"Duration":81917,"SoundDuration":81917,"Delta":4806743},{"NoteNumber":51,"Velocity":50,"Duration":81917,"SoundDuration":81917,"Delta":4806743},{"NoteNumber":64,"Velocity":56,"Duration":81917,"SoundDuration":81917,"Delta":4970579},{"NoteNumber":76,"Velocity":66,"Duration":81917,"SoundDuration":81917,"Delta":4970579},{"NoteNumber":52,"Velocity":52,"Duration":81917,"SoundDuration":81917,"Delta":4970579},{"NoteNumber":66,"Velocity":56,"Duration":79817,"SoundDuration":79817,"Delta":5134415},{"NoteNumber":78,"Velocity":67,"Duration":79817,"SoundDuration":79817,"Delta":5134415},{"NoteNumber":54,"Velocity":53,"Duration":79817,"SoundDuration":79817,"Delta":5134415},{"NoteNumber":67,"Velocity":58,"Duration":79817,"SoundDuration":79817,"Delta":5294049},{"NoteNumber":79,"Velocity":69,"Duration":79817,"SoundDuration":79817,"Delta":5294049},{"NoteNumber":55,"Velocity":54,"Duration":79817,"SoundDuration":79817,"Delta":5294049},{"NoteNumber":66,"Velocity":59,"Duration":100240,"SoundDuration":100240,"Delta":5453683},{"NoteNumber":78,"Velocity":70,"Duration":100240,"SoundDuration":100240,"Delta":5453683},{"NoteNumber":75,"Velocity":59,"Duration":100240,"SoundDuration":100240,"Delta":5453683},{"NoteNumber":51,"Velocity":47,"Duration":100240,"SoundDuration":100240,"Delta":5453683},{"NoteNumber":54,"Velocity":56,"Duration":100240,"SoundDuration":100240,"Delta":5453683},{"NoteNumber":71,"Velocity":58,"Duration":92273,"SoundDuration":92273,"Delta":5854645},{"NoteNumber":83,"Velocity":69,"Duration":92273,"SoundDuration":92273,"Delta":5854645},{"NoteNumber":47,"Velocity":55,"Duration":738188,"SoundDuration":738188,"Delta":6039192},{"NoteNumber":59,"Velocity":68,"Duration":738188,"SoundDuration":738188,"Delta":6039192},{"NoteNumber":73,"Velocity":62,"Duration":82444,"SoundDuration":82444,"Delta":6777380},{"NoteNumber":61,"Velocity":52,"Duration":82444,"SoundDuration":82444,"Delta":6777380},{"NoteNumber":49,"Velocity":49,"Duration":82444,"SoundDuration":82444,"Delta":6777380},{"NoteNumber":63,"Velocity":54,"Duration":81917,"SoundDuration":81917,"Delta":6942270},{"NoteNumber":75,"Velocity":64,"Duration":81917,"SoundDuration":81917,"Delta":6942270},{"NoteNumber":51,"Velocity":50,"Duration":81917,"SoundDuration":81917,"Delta":6942270},{"NoteNumber":64,"Velocity":56,"Duration":81917,"SoundDuration":81917,"Delta":7106106},{"NoteNumber":76,"Velocity":66,"Duration":81917,"SoundDuration":81917,"Delta":7106106},{"NoteNumber":52,"Velocity":52,"Duration":81917,"SoundDuration":81917,"Delta":7106106},{"NoteNumber":66,"Velocity":56,"Duration":80068,"SoundDuration":80068,"Delta":7269941},{"NoteNumber":78,"Velocity":67,"Duration":80068,"SoundDuration":80068,"Delta":7269941},{"NoteNumber":54,"Velocity":53,"Duration":80068,"SoundDuration":80068,"Delta":7269941},{"NoteNumber":67,"Velocity":58,"Duration":80068,"SoundDuration":80068,"Delta":7430078},{"NoteNumber":79,"Velocity":69,"Duration":80068,"SoundDuration":80068,"Delta":7430078},{"NoteNumber":55,"Velocity":54,"Duration":80068,"SoundDuration":80068,"Delta":7430078},{"NoteNumber":69,"Velocity":59,"Duration":100240,"SoundDuration":100240,"Delta":7590215},{"NoteNumber":81,"Velocity":70,"Duration":100240,"SoundDuration":100240,"Delta":7590215},{"NoteNumber":78,"Velocity":59,"Duration":100240,"SoundDuration":100240,"Delta":7590215},{"NoteNumber":54,"Velocity":47,"Duration":100240,"SoundDuration":100240,"Delta":7590215},{"NoteNumber":57,"Velocity":56,"Duration":100240,"SoundDuration":100240,"Delta":7590215},{"NoteNumber":74,"Velocity":58,"Duration":92609,"SoundDuration":92609,"Delta":7991176},{"NoteNumber":86,"Velocity":69,"Duration":92609,"SoundDuration":92609,"Delta":7991176},{"NoteNumber":50,"Velocity":55,"Duration":370439,"SoundDuration":370439,"Delta":8176396},{"NoteNumber":62,"Velocity":68,"Duration":370439,"SoundDuration":370439,"Delta":8176396},{"NoteNumber":55,"Velocity":76,"Duration":206143,"SoundDuration":206143,"Delta":8732054},{"NoteNumber":31,"Velocity":51,"Duration":206143,"SoundDuration":206143,"Delta":8732054},{"NoteNumber":43,"Velocity":61,"Duration":206143,"SoundDuration":206143,"Delta":8732054},{"NoteNumber":89,"Velocity":63,"Duration":569692,"SoundDuration":569692,"Delta":9350484},{"NoteNumber":93,"Velocity":75,"Duration":569692,"SoundDuration":569692,"Delta":9350484},{"NoteNumber":81,"Velocity":63,"Duration":569692,"SoundDuration":569692,"Delta":9350484},{"NoteNumber":69,"Velocity":56,"Duration":569692,"SoundDuration":569692,"Delta":9350484},{"NoteNumber":65,"Velocity":47,"Duration":569692,"SoundDuration":569692,"Delta":9350484},{"NoteNumber":55,"Velocity":47,"Duration":1856887,"SoundDuration":1856887,"Delta":9350484},{"NoteNumber":91,"Velocity":73,"Duration":569692,"SoundDuration":569692,"Delta":9920176},{"NoteNumber":88,"Velocity":73,"Duration":569692,"SoundDuration":569692,"Delta":9920176},{"NoteNumber":79,"Velocity":62,"Duration":569692,"SoundDuration":569692,"Delta":9920176},{"NoteNumber":64,"Velocity":47,"Duration":569692,"SoundDuration":569692,"Delta":9920176},{"NoteNumber":67,"Velocity":56,"Duration":569692,"SoundDuration":569692,"Delta":9920176},{"NoteNumber":84,"Velocity":63,"Duration":569692,"SoundDuration":569692,"Delta":10489868},{"NoteNumber":76,"Velocity":63,"Duration":569692,"SoundDuration":569692,"Delta":10489868},{"NoteNumber":88,"Velocity":75,"Duration":569692,"SoundDuration":569692,"Delta":10489868},{"NoteNumber":60,"Velocity":47,"Duration":569692,"SoundDuration":569692,"Delta":10489868},{"NoteNumber":64,"Velocity":56,"Duration":569692,"SoundDuration":569692,"Delta":10489868},{"NoteNumber":86,"Velocity":59,"Duration":80623,"SoundDuration":80623,"Delta":11059561},{"NoteNumber":89,"Velocity":70,"Duration":80623,"SoundDuration":80623,"Delta":11059561},{"NoteNumber":77,"Velocity":59,"Duration":80623,"SoundDuration":80623,"Delta":11059561},{"NoteNumber":65,"Velocity":56,"Duration":80623,"SoundDuration":80623,"Delta":11059561},{"NoteNumber":62,"Velocity":47,"Duration":80623,"SoundDuration":80623,"Delta":11059561},{"NoteNumber":86,"Velocity":62,"Duration":83799,"SoundDuration":83799,"Delta":11220808},{"NoteNumber":83,"Velocity":52,"Duration":83799,"SoundDuration":83799,"Delta":11220808},{"NoteNumber":74,"Velocity":52,"Duration":83799,"SoundDuration":83799,"Delta":11220808},{"NoteNumber":59,"Velocity":44,"Duration":83799,"SoundDuration":83799,"Delta":11220808},{"NoteNumber":62,"Velocity":52,"Duration":83799,"SoundDuration":83799,"Delta":11220808},{"NoteNumber":84,"Velocity":54,"Duration":80623,"SoundDuration":80623,"Delta":11388406},{"NoteNumber":76,"Velocity":55,"Duration":80623,"SoundDuration":80623,"Delta":11388406},{"NoteNumber":88,"Velocity":70,"Duration":80623,"SoundDuration":80623,"Delta":11388406},{"NoteNumber":60,"Velocity":47,"Duration":80623,"SoundDuration":80623,"Delta":11388406},{"NoteNumber":64,"Velocity":56,"Duration":80623,"SoundDuration":80623,"Delta":11388406},{"NoteNumber":81,"Velocity":53,"Duration":82978,"SoundDuration":82978,"Delta":11549653},{"NoteNumber":84,"Velocity":63,"Duration":82978,"SoundDuration":82978,"Delta":11549653},{"NoteNumber":72,"Velocity":53,"Duration":82978,"SoundDuration":82978,"Delta":11549653},{"NoteNumber":60,"Velocity":50,"Duration":82978,"SoundDuration":82978,"Delta":11549653},{"NoteNumber":57,"Velocity":42,"Duration":82978,"SoundDuration":82978,"Delta":11549653},{"NoteNumber":74,"Velocity":59,"Duration":81133,"SoundDuration":81133,"Delta":11715609},{"NoteNumber":86,"Velocity":70,"Duration":81133,"SoundDuration":81133,"Delta":11715609},{"NoteNumber":83,"Velocity":59,"Duration":81133,"SoundDuration":81133,"Delta":11715609},{"NoteNumber":59,"Velocity":47,"Duration":81133,"SoundDuration":81133,"Delta":11715609},{"NoteNumber":62,"Velocity":56,"Duration":81133,"SoundDuration":81133,"Delta":11715609},{"NoteNumber":71,"Velocity":54,"Duration":84350,"SoundDuration":84350,"Delta":11877877},{"NoteNumber":83,"Velocity":64,"Duration":84350,"SoundDuration":84350,"Delta":11877877},{"NoteNumber":79,"Velocity":54,"Duration":84350,"SoundDuration":84350,"Delta":11877877},{"NoteNumber":59,"Velocity":52,"Duration":84350,"SoundDuration":84350,"Delta":11877877},{"NoteNumber":55,"Velocity":44,"Duration":84350,"SoundDuration":84350,"Delta":11877877},{"NoteNumber":81,"Velocity":59,"Duration":100240,"SoundDuration":100240,"Delta":12046577},{"NoteNumber":72,"Velocity":59,"Duration":100240,"SoundDuration":100240,"Delta":12046577},{"NoteNumber":84,"Velocity":70,"Duration":100240,"SoundDuration":100240,"Delta":12046577},{"NoteNumber":57,"Velocity":47,"Duration":100240,"SoundDuration":100240,"Delta":12046577},{"NoteNumber":60,"Velocity":56,"Duration":100240,"SoundDuration":100240,"Delta":12046577},{"NoteNumber":81,"Velocity":58,"Duration":92273,"SoundDuration":92273,"Delta":12447539},{"NoteNumber":72,"Velocity":58,"Duration":92273,"SoundDuration":92273,"Delta":12447539},{"NoteNumber":84,"Velocity":69,"Duration":92273,"SoundDuration":92273,"Delta":12447539},{"NoteNumber":60,"Velocity":53,"Duration":92273,"SoundDuration":92273,"Delta":12447539},{"NoteNumber":57,"Velocity":44,"Duration":92273,"SoundDuration":92273,"Delta":12447539},{"NoteNumber":69,"Velocity":59,"Duration":553640,"SoundDuration":553640,"Delta":12632086},{"NoteNumber":81,"Velocity":70,"Duration":553640,"SoundDuration":553640,"Delta":12632086},{"NoteNumber":77,"Velocity":59,"Duration":553640,"SoundDuration":553640,"Delta":12632086},{"NoteNumber":57,"Velocity":68,"Duration":553640,"SoundDuration":553640,"Delta":12632086},{"NoteNumber":53,"Velocity":55,"Duration":553640,"SoundDuration":553640,"Delta":12632086},{"NoteNumber":40,"Velocity":40,"Duration":332487,"SoundDuration":332487,"Delta":13185727},{"NoteNumber":52,"Velocity":46,"Duration":332487,"SoundDuration":332487,"Delta":13185727},{"NoteNumber":79,"Velocity":56,"Duration":82444,"SoundDuration":82444,"Delta":13353325},{"NoteNumber":67,"Velocity":47,"Duration":82444,"SoundDuration":82444,"Delta":13353325},{"NoteNumber":71,"Velocity":49,"Duration":81917,"SoundDuration":81917,"Delta":13518215},{"NoteNumber":83,"Velocity":58,"Duration":81917,"SoundDuration":81917,"Delta":13518215},{"NoteNumber":84,"Velocity":60,"Duration":81917,"SoundDuration":81917,"Delta":13682051},{"NoteNumber":72,"Velocity":51,"Duration":81917,"SoundDuration":81917,"Delta":13682051},{"NoteNumber":55,"Velocity":34,"Duration":323470,"SoundDuration":323470,"Delta":13682051},{"NoteNumber":60,"Velocity":39,"Duration":323470,"SoundDuration":323470,"Delta":13682051},{"NoteNumber":52,"Velocity":34,"Duration":323470,"SoundDuration":323470,"Delta":13682051},{"NoteNumber":74,"Velocity":52,"Duration":79817,"SoundDuration":79817,"Delta":13845887},{"NoteNumber":86,"Velocity":62,"Duration":79817,"SoundDuration":79817,"Delta":13845887},{"NoteNumber":76,"Velocity":54,"Duration":79817,"SoundDuration":79817,"Delta":14005521},{"NoteNumber":88,"Velocity":64,"Duration":79817,"SoundDuration":79817,"Delta":14005521},{"NoteNumber":79,"Velocity":60,"Duration":133128,"SoundDuration":133128,"Delta":14125246},{"NoteNumber":84,"Velocity":60,"Duration":113173,"SoundDuration":113173,"Delta":14145201},{"NoteNumber":91,"Velocity":70,"Duration":93219,"SoundDuration":93219,"Delta":14165155},{"NoteNumber":50,"Velocity":46,"Duration":372878,"SoundDuration":372878,"Delta":14165155},{"NoteNumber":38,"Velocity":40,"Duration":372878,"SoundDuration":372878,"Delta":14165155},{"NoteNumber":77,"Velocity":49,"Duration":88074,"SoundDuration":88074,"Delta":14538034},{"NoteNumber":89,"Velocity":58,"Duration":88074,"SoundDuration":88074,"Delta":14538034},{"NoteNumber":84,"Velocity":57,"Duration":528448,"SoundDuration":528448,"Delta":14714183},{"NoteNumber":72,"Velocity":48,"Duration":528448,"SoundDuration":528448,"Delta":14714183},{"NoteNumber":50,"Velocity":34,"Duration":352299,"SoundDuration":352299,"Delta":14714183},{"NoteNumber":53,"Velocity":34,"Duration":352299,"SoundDuration":352299,"Delta":14714183},{"NoteNumber":57,"Velocity":34,"Duration":352299,"SoundDuration":352299,"Delta":14714183},{"NoteNumber":60,"Velocity":39,"Duration":352299,"SoundDuration":352299,"Delta":14714183},{"NoteNumber":48,"Velocity":46,"Duration":332487,"SoundDuration":332487,"Delta":15242632},{"NoteNumber":36,"Velocity":40,"Duration":332487,"SoundDuration":332487,"Delta":15242632},{"NoteNumber":81,"Velocity":58,"Duration":82444,"SoundDuration":82444,"Delta":15410230},{"NoteNumber":69,"Velocity":48,"Duration":82444,"SoundDuration":82444,"Delta":15410230},{"NoteNumber":71,"Velocity":53,"Duration":81917,"SoundDuration":81917,"Delta":15575119},{"NoteNumber":83,"Velocity":63,"Duration":81917,"SoundDuration":81917,"Delta":15575119},{"NoteNumber":84,"Velocity":67,"Duration":81917,"SoundDuration":81917,"Delta":15738955},{"NoteNumber":72,"Velocity":57,"Duration":81917,"SoundDuration":81917,"Delta":15738955},{"NoteNumber":48,"Velocity":38,"Duration":323470,"SoundDuration":323470,"Delta":15738955},{"NoteNumber":52,"Velocity":38,"Duration":323470,"SoundDuration":323470,"Delta":15738955},{"NoteNumber":60,"Velocity":44,"Duration":323470,"SoundDuration":323470,"Delta":15738955},{"NoteNumber":57,"Velocity":38,"Duration":323470,"SoundDuration":323470,"Delta":15738955},{"NoteNumber":86,"Velocity":73,"Duration":79817,"SoundDuration":79817,"Delta":15902791},{"NoteNumber":74,"Velocity":61,"Duration":79817,"SoundDuration":79817,"Delta":15902791},{"NoteNumber":76,"Velocity":65,"Duration":79816,"SoundDuration":79816,"Delta":16062425},{"NoteNumber":88,"Velocity":78,"Duration":79816,"SoundDuration":79816,"Delta":16062425},{"NoteNumber":79,"Velocity":75,"Duration":132787,"SoundDuration":132787,"Delta":16182151},{"NoteNumber":87,"Velocity":75,"Duration":112833,"SoundDuration":112833,"Delta":16202105},{"NoteNumber":91,"Velocity":87,"Duration":92879,"SoundDuration":92879,"Delta":16222059},{"NoteNumber":47,"Velocity":57,"Duration":371517,"SoundDuration":371517,"Delta":16222059},{"NoteNumber":35,"Velocity":50,"Duration":371517,"SoundDuration":371517,"Delta":16222059},{"NoteNumber":90,"Velocity":69,"Duration":86286,"SoundDuration":86286,"Delta":16593576},{"NoteNumber":78,"Velocity":58,"Duration":86286,"SoundDuration":86286,"Delta":16593576},{"NoteNumber":69,"Velocity":56,"Duration":517717,"SoundDuration":517717,"Delta":16766149},{"NoteNumber":81,"Velocity":67,"Duration":517717,"SoundDuration":517717,"Delta":16766149},{"NoteNumber":59,"Velocity":40,"Duration":345144,"SoundDuration":345144,"Delta":16766149},{"NoteNumber":54,"Velocity":40,"Duration":345144,"SoundDuration":345144,"Delta":16766149},{"NoteNumber":63,"Velocity":46,"Duration":345144,"SoundDuration":345144,"Delta":16766149},{"NoteNumber":52,"Velocity":76,"Duration":206143,"SoundDuration":206143,"Delta":17283866},{"NoteNumber":28,"Velocity":51,"Duration":206143,"SoundDuration":206143,"Delta":17283866},{"NoteNumber":40,"Velocity":61,"Duration":206143,"SoundDuration":206143,"Delta":17283866},{"NoteNumber":83,"Velocity":63,"Duration":576553,"SoundDuration":576553,"Delta":17902295},{"NoteNumber":86,"Velocity":75,"Duration":576553,"SoundDuration":576553,"Delta":17902295},{"NoteNumber":74,"Velocity":63,"Duration":576553,"SoundDuration":576553,"Delta":17902295},{"NoteNumber":62,"Velocity":56,"Duration":576553,"SoundDuration":576553,"Delta":17902295},{"NoteNumber":59,"Velocity":47,"Duration":576553,"SoundDuration":576553,"Delta":17902295},{"NoteNumber":52,"Velocity":47,"Duration":1877470,"SoundDuration":1877470,"Delta":17902295},{"NoteNumber":72,"Velocity":62,"Duration":576553,"SoundDuration":576553,"Delta":18478849},{"NoteNumber":84,"Velocity":73,"Duration":576553,"SoundDuration":576553,"Delta":18478849},{"NoteNumber":81,"Velocity":73,"Duration":576553,"SoundDuration":576553,"Delta":18478849},{"NoteNumber":57,"Velocity":47,"Duration":576553,"SoundDuration":576553,"Delta":18478849},{"NoteNumber":60,"Velocity":56,"Duration":576553,"SoundDuration":576553,"Delta":18478849},{"NoteNumber":78,"Velocity":63,"Duration":576553,"SoundDuration":576553,"Delta":19055402},{"NoteNumber":69,"Velocity":63,"Duration":576553,"SoundDuration":576553,"Delta":19055402},{"NoteNumber":81,"Velocity":75,"Duration":576553,"SoundDuration":576553,"Delta":19055402},{"NoteNumber":57,"Velocity":56,"Duration":576553,"SoundDuration":576553,"Delta":19055402},{"NoteNumber":54,"Velocity":47,"Duration":576553,"SoundDuration":576553,"Delta":19055402},{"NoteNumber":83,"Velocity":70,"Duration":80623,"SoundDuration":80623,"Delta":19631956},{"NoteNumber":71,"Velocity":59,"Duration":80623,"SoundDuration":80623,"Delta":19631956},{"NoteNumber":79,"Velocity":59,"Duration":80623,"SoundDuration":80623,"Delta":19631956},{"NoteNumber":59,"Velocity":56,"Duration":80623,"SoundDuration":80623,"Delta":19631956},{"NoteNumber":55,"Velocity":47,"Duration":80623,"SoundDuration":80623,"Delta":19631956},{"NoteNumber":76,"Velocity":52,"Duration":83798,"SoundDuration":83798,"Delta":19793203},{"NoteNumber":79,"Velocity":62,"Duration":83798,"SoundDuration":83798,"Delta":19793203},{"NoteNumber":67,"Velocity":52,"Duration":83798,"SoundDuration":83798,"Delta":19793203},{"NoteNumber":52,"Velocity":44,"Duration":83798,"SoundDuration":83798,"Delta":19793203},{"NoteNumber":55,"Velocity":52,"Duration":83798,"SoundDuration":83798,"Delta":19793203},{"NoteNumber":78,"Velocity":54,"Duration":80623,"SoundDuration":80623,"Delta":19960801},{"NoteNumber":69,"Velocity":55,"Duration":80623,"SoundDuration":80623,"Delta":19960801},{"NoteNumber":81,"Velocity":70,"Duration":80623,"SoundDuration":80623,"Delta":19960801},{"NoteNumber":54,"Velocity":47,"Duration":80623,"SoundDuration":80623,"Delta":19960801},{"NoteNumber":57,"Velocity":56,"Duration":80623,"SoundDuration":80623,"Delta":19960801},{"NoteNumber":75,"Velocity":53,"Duration":82978,"SoundDuration":82978,"Delta":20122048},{"NoteNumber":78,"Velocity":63,"Duration":82978,"SoundDuration":82978,"Delta":20122048},{"NoteNumber":66,"Velocity":53,"Duration":82978,"SoundDuration":82978,"Delta":20122048},{"NoteNumber":54,"Velocity":50,"Duration":82978,"SoundDuration":82978,"Delta":20122048},{"NoteNumber":51,"Velocity":42,"Duration":82978,"SoundDuration":82978,"Delta":20122048},{"NoteNumber":79,"Velocity":70,"Duration":81133,"SoundDuration":81133,"Delta":20288005},{"NoteNumber":67,"Velocity":59,"Duration":81133,"SoundDuration":81133,"Delta":20288005},{"NoteNumber":76,"Velocity":59,"Duration":81133,"SoundDuration":81133,"Delta":20288005},{"NoteNumber":55,"Velocity":56,"Duration":81133,"SoundDuration":81133,"Delta":20288005},{"NoteNumber":52,"Velocity":47,"Duration":81133,"SoundDuration":81133,"Delta":20288005},{"NoteNumber":64,"Velocity":54,"Duration":84350,"SoundDuration":84350,"Delta":20450272},{"NoteNumber":73,"Velocity":54,"Duration":84350,"SoundDuration":84350,"Delta":20450272},{"NoteNumber":76,"Velocity":64,"Duration":84350,"SoundDuration":84350,"Delta":20450272},{"NoteNumber":49,"Velocity":44,"Duration":84350,"SoundDuration":84350,"Delta":20450272},{"NoteNumber":52,"Velocity":52,"Duration":84350,"SoundDuration":84350,"Delta":20450272},{"NoteNumber":75,"Velocity":59,"Duration":100240,"SoundDuration":100240,"Delta":20618972},{"NoteNumber":66,"Velocity":59,"Duration":100240,"SoundDuration":100240,"Delta":20618972},{"NoteNumber":78,"Velocity":70,"Duration":100240,"SoundDuration":100240,"Delta":20618972},{"NoteNumber":54,"Velocity":56,"Duration":100240,"SoundDuration":100240,"Delta":20618972},{"NoteNumber":51,"Velocity":47,"Duration":100240,"SoundDuration":100240,"Delta":20618972},{"NoteNumber":66,"Velocity":58,"Duration":92273,"SoundDuration":92273,"Delta":21019934},{"NoteNumber":75,"Velocity":58,"Duration":92273,"SoundDuration":92273,"Delta":21019934},{"NoteNumber":78,"Velocity":69,"Duration":92273,"SoundDuration":92273,"Delta":21019934},{"NoteNumber":47,"Velocity":55,"Duration":721239,"SoundDuration":721239,"Delta":21204481},{"NoteNumber":59,"Velocity":68,"Duration":721239,"SoundDuration":721239,"Delta":21204481},{"NoteNumber":61,"Velocity":52,"Duration":82444,"SoundDuration":82444,"Delta":21925721},{"NoteNumber":73,"Velocity":62,"Duration":82444,"SoundDuration":82444,"Delta":21925721},{"NoteNumber":49,"Velocity":49,"Duration":82444,"SoundDuration":82444,"Delta":21925721},{"NoteNumber":75,"Velocity":64,"Duration":81918,"SoundDuration":81918,"Delta":22090610},{"NoteNumber":63,"Velocity":54,"Duration":81918,"SoundDuration":81918,"Delta":22090610},{"NoteNumber":51,"Velocity":50,"Duration":81918,"SoundDuration":81918,"Delta":22090610},{"NoteNumber":76,"Velocity":66,"Duration":81918,"SoundDuration":81918,"Delta":22254446},{"NoteNumber":64,"Velocity":56,"Duration":81918,"SoundDuration":81918,"Delta":22254446},{"NoteNumber":52,"Velocity":52,"Duration":81918,"SoundDuration":81918,"Delta":22254446},{"NoteNumber":66,"Velocity":56,"Duration":79816,"SoundDuration":79816,"Delta":22418282},{"NoteNumber":78,"Velocity":67,"Duration":79816,"SoundDuration":79816,"Delta":22418282},{"NoteNumber":54,"Velocity":53,"Duration":79816,"SoundDuration":79816,"Delta":22418282},{"NoteNumber":79,"Velocity":69,"Duration":79816,"SoundDuration":79816,"Delta":22577916},{"NoteNumber":67,"Velocity":58,"Duration":79816,"SoundDuration":79816,"Delta":22577916},{"NoteNumber":55,"Velocity":54,"Duration":79816,"SoundDuration":79816,"Delta":22577916},{"NoteNumber":78,"Velocity":70,"Duration":100240,"SoundDuration":100240,"Delta":22737550},{"NoteNumber":75,"Velocity":59,"Duration":100240,"SoundDuration":100240,"Delta":22737550},{"NoteNumber":66,"Velocity":59,"Duration":100240,"SoundDuration":100240,"Delta":22737550},{"NoteNumber":54,"Velocity":56,"Duration":100240,"SoundDuration":100240,"Delta":22737550},{"NoteNumber":51,"Velocity":47,"Duration":100240,"SoundDuration":100240,"Delta":22737550},{"NoteNumber":83,"Velocity":69,"Duration":92273,"SoundDuration":92273,"Delta":23138512},{"NoteNumber":71,"Velocity":58,"Duration":92273,"SoundDuration":92273,"Delta":23138512},{"NoteNumber":47,"Velocity":55,"Duration":738188,"SoundDuration":738188,"Delta":23323059},{"NoteNumber":59,"Velocity":68,"Duration":738188,"SoundDuration":738188,"Delta":23323059},{"NoteNumber":61,"Velocity":52,"Duration":82444,"SoundDuration":82444,"Delta":24061247},{"NoteNumber":73,"Velocity":62,"Duration":82444,"SoundDuration":82444,"Delta":24061247},{"NoteNumber":49,"Velocity":49,"Duration":82444,"SoundDuration":82444,"Delta":24061247},{"NoteNumber":75,"Velocity":64,"Duration":81918,"SoundDuration":81918,"Delta":24226137},{"NoteNumber":63,"Velocity":54,"Duration":81918,"SoundDuration":81918,"Delta":24226137},{"NoteNumber":51,"Velocity":50,"Duration":81918,"SoundDuration":81918,"Delta":24226137},{"NoteNumber":64,"Velocity":56,"Duration":81918,"SoundDuration":81918,"Delta":24389973},{"NoteNumber":76,"Velocity":66,"Duration":81918,"SoundDuration":81918,"Delta":24389973},{"NoteNumber":52,"Velocity":52,"Duration":81918,"SoundDuration":81918,"Delta":24389973},{"NoteNumber":78,"Velocity":67,"Duration":80068,"SoundDuration":80068,"Delta":24553809},{"NoteNumber":66,"Velocity":56,"Duration":80068,"SoundDuration":80068,"Delta":24553809},{"NoteNumber":54,"Velocity":53,"Duration":80068,"SoundDuration":80068,"Delta":24553809},{"NoteNumber":67,"Velocity":58,"Duration":80068,"SoundDuration":80068,"Delta":24713945},{"NoteNumber":79,"Velocity":69,"Duration":80068,"SoundDuration":80068,"Delta":24713945},{"NoteNumber":55,"Velocity":54,"Duration":80068,"SoundDuration":80068,"Delta":24713945},{"NoteNumber":69,"Velocity":59,"Duration":100240,"SoundDuration":100240,"Delta":24874082},{"NoteNumber":78,"Velocity":59,"Duration":100240,"SoundDuration":100240,"Delta":24874082},{"NoteNumber":81,"Velocity":70,"Duration":100240,"SoundDuration":100240,"Delta":24874082},{"NoteNumber":54,"Velocity":47,"Duration":100240,"SoundDuration":100240,"Delta":24874082},{"NoteNumber":57,"Velocity":56,"Duration":100240,"SoundDuration":100240,"Delta":24874082},{"NoteNumber":86,"Velocity":69,"Duration":92609,"SoundDuration":92609,"Delta":25275044},{"NoteNumber":74,"Velocity":58,"Duration":92609,"SoundDuration":92609,"Delta":25275044},{"NoteNumber":62,"Velocity":68,"Duration":370439,"SoundDuration":370439,"Delta":25460263},{"NoteNumber":50,"Velocity":55,"Duration":370439,"SoundDuration":370439,"Delta":25460263},{"NoteNumber":55,"Velocity":76,"Duration":206143,"SoundDuration":206143,"Delta":26015922},{"NoteNumber":31,"Velocity":51,"Duration":206143,"SoundDuration":206143,"Delta":26015922},{"NoteNumber":43,"Velocity":61,"Duration":206143,"SoundDuration":206143,"Delta":26015922},{"NoteNumber":89,"Velocity":63,"Duration":569692,"SoundDuration":569692,"Delta":26634351},{"NoteNumber":81,"Velocity":63,"Duration":569692,"SoundDuration":569692,"Delta":26634351},{"NoteNumber":93,"Velocity":75,"Duration":569692,"SoundDuration":569692,"Delta":26634351},{"NoteNumber":55,"Velocity":47,"Duration":1856887,"SoundDuration":1856887,"Delta":26634351},{"NoteNumber":69,"Velocity":56,"Duration":569692,"SoundDuration":569692,"Delta":26634351},{"NoteNumber":65,"Velocity":47,"Duration":569692,"SoundDuration":569692,"Delta":26634351},{"NoteNumber":88,"Velocity":73,"Duration":569692,"SoundDuration":569692,"Delta":27204043},{"NoteNumber":91,"Velocity":73,"Duration":569692,"SoundDuration":569692,"Delta":27204043},{"NoteNumber":79,"Velocity":62,"Duration":569692,"SoundDuration":569692,"Delta":27204043},{"NoteNumber":64,"Velocity":47,"Duration":569692,"SoundDuration":569692,"Delta":27204043},{"NoteNumber":67,"Velocity":56,"Duration":569692,"SoundDuration":569692,"Delta":27204043},{"NoteNumber":88,"Velocity":75,"Duration":569692,"SoundDuration":569692,"Delta":27773736},{"NoteNumber":76,"Velocity":63,"Duration":569692,"SoundDuration":569692,"Delta":27773736},{"NoteNumber":84,"Velocity":63,"Duration":569692,"SoundDuration":569692,"Delta":27773736},{"NoteNumber":64,"Velocity":56,"Duration":569692,"SoundDuration":569692,"Delta":27773736},{"NoteNumber":60,"Velocity":47,"Duration":569692,"SoundDuration":569692,"Delta":27773736},{"NoteNumber":89,"Velocity":70,"Duration":80623,"SoundDuration":80623,"Delta":28343428},{"NoteNumber":77,"Velocity":59,"Duration":80623,"SoundDuration":80623,"Delta":28343428},{"NoteNumber":86,"Velocity":59,"Duration":80623,"SoundDuration":80623,"Delta":28343428},{"NoteNumber":62,"Velocity":47,"Duration":80623,"SoundDuration":80623,"Delta":28343428},{"NoteNumber":65,"Velocity":56,"Duration":80623,"SoundDuration":80623,"Delta":28343428},{"NoteNumber":74,"Velocity":52,"Duration":83798,"SoundDuration":83798,"Delta":28504675},{"NoteNumber":86,"Velocity":62,"Duration":83798,"SoundDuration":83798,"Delta":28504675},{"NoteNumber":83,"Velocity":52,"Duration":83798,"SoundDuration":83798,"Delta":28504675},{"NoteNumber":62,"Velocity":52,"Duration":83798,"SoundDuration":83798,"Delta":28504675},{"NoteNumber":59,"Velocity":44,"Duration":83798,"SoundDuration":83798,"Delta":28504675},{"NoteNumber":76,"Velocity":55,"Duration":80623,"SoundDuration":80623,"Delta":28672273},{"NoteNumber":88,"Velocity":70,"Duration":80623,"SoundDuration":80623,"Delta":28672273},{"NoteNumber":84,"Velocity":54,"Duration":80623,"SoundDuration":80623,"Delta":28672273},{"NoteNumber":60,"Velocity":47,"Duration":80623,"SoundDuration":80623,"Delta":28672273},{"NoteNumber":64,"Velocity":56,"Duration":80623,"SoundDuration":80623,"Delta":28672273},{"NoteNumber":84,"Velocity":63,"Duration":82978,"SoundDuration":82978,"Delta":28833520},{"NoteNumber":72,"Velocity":53,"Duration":82978,"SoundDuration":82978,"Delta":28833520},{"NoteNumber":81,"Velocity":53,"Duration":82978,"SoundDuration":82978,"Delta":28833520},{"NoteNumber":57,"Velocity":42,"Duration":82978,"SoundDuration":82978,"Delta":28833520},{"NoteNumber":60,"Velocity":50,"Duration":82978,"SoundDuration":82978,"Delta":28833520},{"NoteNumber":83,"Velocity":59,"Duration":81133,"SoundDuration":81133,"Delta":28999477},{"NoteNumber":86,"Velocity":70,"Duration":81133,"SoundDuration":81133,"Delta":28999477},{"NoteNumber":74,"Velocity":59,"Duration":81133,"SoundDuration":81133,"Delta":28999477},{"NoteNumber":59,"Velocity":47,"Duration":81133,"SoundDuration":81133,"Delta":28999477},{"NoteNumber":62,"Velocity":56,"Duration":81133,"SoundDuration":81133,"Delta":28999477},{"NoteNumber":83,"Velocity":64,"Duration":84350,"SoundDuration":84350,"Delta":29161744},{"NoteNumber":71,"Velocity":54,"Duration":84350,"SoundDuration":84350,"Delta":29161744},{"NoteNumber":79,"Velocity":54,"Duration":84350,"SoundDuration":84350,"Delta":29161744},{"NoteNumber":59,"Velocity":52,"Duration":84350,"SoundDuration":84350,"Delta":29161744},{"NoteNumber":55,"Velocity":44,"Duration":84350,"SoundDuration":84350,"Delta":29161744},{"NoteNumber":81,"Velocity":59,"Duration":100240,"SoundDuration":100240,"Delta":29330444},{"NoteNumber":72,"Velocity":59,"Duration":100240,"SoundDuration":100240,"Delta":29330444},{"NoteNumber":84,"Velocity":70,"Duration":100240,"SoundDuration":100240,"Delta":29330444},{"NoteNumber":57,"Velocity":47,"Duration":100240,"SoundDuration":100240,"Delta":29330444},{"NoteNumber":60,"Velocity":56,"Duration":100240,"SoundDuration":100240,"Delta":29330444},{"NoteNumber":84,"Velocity":69,"Duration":92273,"SoundDuration":92273,"Delta":29731406},{"NoteNumber":72,"Velocity":58,"Duration":92273,"SoundDuration":92273,"Delta":29731406},{"NoteNumber":81,"Velocity":58,"Duration":92273,"SoundDuration":92273,"Delta":29731406},{"NoteNumber":57,"Velocity":44,"Duration":92273,"SoundDuration":92273,"Delta":29731406},{"NoteNumber":60,"Velocity":53,"Duration":92273,"SoundDuration":92273,"Delta":29731406},{"NoteNumber":77,"Velocity":59,"Duration":553641,"SoundDuration":553641,"Delta":29915953},{"NoteNumber":69,"Velocity":59,"Duration":553641,"SoundDuration":553641,"Delta":29915953},{"NoteNumber":81,"Velocity":70,"Duration":553641,"SoundDuration":553641,"Delta":29915953},{"NoteNumber":53,"Velocity":55,"Duration":553641,"SoundDuration":553641,"Delta":29915953},{"NoteNumber":57,"Velocity":68,"Duration":553641,"SoundDuration":553641,"Delta":29915953},{"NoteNumber":40,"Velocity":40,"Duration":332487,"SoundDuration":332487,"Delta":30469595},{"NoteNumber":52,"Velocity":46,"Duration":332487,"SoundDuration":332487,"Delta":30469595},{"NoteNumber":67,"Velocity":47,"Duration":82444,"SoundDuration":82444,"Delta":30637193},{"NoteNumber":79,"Velocity":56,"Duration":82444,"SoundDuration":82444,"Delta":30637193},{"NoteNumber":71,"Velocity":49,"Duration":81918,"SoundDuration":81918,"Delta":30802082},{"NoteNumber":83,"Velocity":58,"Duration":81918,"SoundDuration":81918,"Delta":30802082},{"NoteNumber":84,"Velocity":60,"Duration":81918,"SoundDuration":81918,"Delta":30965918},{"NoteNumber":72,"Velocity":51,"Duration":81918,"SoundDuration":81918,"Delta":30965918},{"NoteNumber":55,"Velocity":34,"Duration":323470,"SoundDuration":323470,"Delta":30965918},{"NoteNumber":60,"Velocity":39,"Duration":323470,"SoundDuration":323470,"Delta":30965918},{"NoteNumber":52,"Velocity":34,"Duration":323470,"SoundDuration":323470,"Delta":30965918},{"NoteNumber":86,"Velocity":62,"Duration":79816,"SoundDuration":79816,"Delta":31129754},{"NoteNumber":74,"Velocity":52,"Duration":79816,"SoundDuration":79816,"Delta":31129754},{"NoteNumber":76,"Velocity":54,"Duration":79816,"SoundDuration":79816,"Delta":31289388},{"NoteNumber":88,"Velocity":64,"Duration":79816,"SoundDuration":79816,"Delta":31289388},{"NoteNumber":79,"Velocity":60,"Duration":133128,"SoundDuration":133128,"Delta":31409114},{"NoteNumber":84,"Velocity":60,"Duration":113174,"SoundDuration":113174,"Delta":31429068},{"NoteNumber":91,"Velocity":70,"Duration":93219,"SoundDuration":93219,"Delta":31449022},{"NoteNumber":50,"Velocity":46,"Duration":372879,"SoundDuration":372879,"Delta":31449022},{"NoteNumber":38,"Velocity":40,"Duration":372879,"SoundDuration":372879,"Delta":31449022},{"NoteNumber":89,"Velocity":58,"Duration":88074,"SoundDuration":88074,"Delta":31821901},{"NoteNumber":77,"Velocity":49,"Duration":88074,"SoundDuration":88074,"Delta":31821901},{"NoteNumber":84,"Velocity":57,"Duration":528448,"SoundDuration":528448,"Delta":31998051},{"NoteNumber":72,"Velocity":48,"Duration":528448,"SoundDuration":528448,"Delta":31998051},{"NoteNumber":53,"Velocity":34,"Duration":352299,"SoundDuration":352299,"Delta":31998051},{"NoteNumber":57,"Velocity":34,"Duration":352299,"SoundDuration":352299,"Delta":31998051},{"NoteNumber":50,"Velocity":34,"Duration":352299,"SoundDuration":352299,"Delta":31998051},{"NoteNumber":60,"Velocity":39,"Duration":352299,"SoundDuration":352299,"Delta":31998051},{"NoteNumber":36,"Velocity":40,"Duration":332487,"SoundDuration":332487,"Delta":32526499},{"NoteNumber":48,"Velocity":46,"Duration":332487,"SoundDuration":332487,"Delta":32526499},{"NoteNumber":69,"Velocity":48,"Duration":82444,"SoundDuration":82444,"Delta":32694097},{"NoteNumber":81,"Velocity":58,"Duration":82444,"SoundDuration":82444,"Delta":32694097},{"NoteNumber":83,"Velocity":63,"Duration":81918,"SoundDuration":81918,"Delta":32858987},{"NoteNumber":71,"Velocity":53,"Duration":81918,"SoundDuration":81918,"Delta":32858987},{"NoteNumber":72,"Velocity":57,"Duration":81917,"SoundDuration":81917,"Delta":33022823},{"NoteNumber":84,"Velocity":67,"Duration":81917,"SoundDuration":81917,"Delta":33022823},{"NoteNumber":57,"Velocity":38,"Duration":323469,"SoundDuration":323469,"Delta":33022823},{"NoteNumber":52,"Velocity":38,"Duration":323469,"SoundDuration":323469,"Delta":33022823},{"NoteNumber":48,"Velocity":38,"Duration":323469,"SoundDuration":323469,"Delta":33022823},{"NoteNumber":60,"Velocity":44,"Duration":323469,"SoundDuration":323469,"Delta":33022823},{"NoteNumber":86,"Velocity":73,"Duration":79816,"SoundDuration":79816,"Delta":33186659},{"NoteNumber":74,"Velocity":61,"Duration":79816,"SoundDuration":79816,"Delta":33186659},{"NoteNumber":88,"Velocity":78,"Duration":79817,"SoundDuration":79817,"Delta":33346292},{"NoteNumber":76,"Velocity":65,"Duration":79817,"SoundDuration":79817,"Delta":33346292},{"NoteNumber":79,"Velocity":75,"Duration":132787,"SoundDuration":132787,"Delta":33466018},{"NoteNumber":87,"Velocity":75,"Duration":112833,"SoundDuration":112833,"Delta":33485972},{"NoteNumber":91,"Velocity":87,"Duration":92879,"SoundDuration":92879,"Delta":33505927},{"NoteNumber":47,"Velocity":57,"Duration":371516,"SoundDuration":371516,"Delta":33505927},{"NoteNumber":35,"Velocity":50,"Duration":371516,"SoundDuration":371516,"Delta":33505927},{"NoteNumber":90,"Velocity":69,"Duration":86286,"SoundDuration":86286,"Delta":33877444},{"NoteNumber":78,"Velocity":58,"Duration":86286,"SoundDuration":86286,"Delta":33877444},{"NoteNumber":69,"Velocity":56,"Duration":517717,"SoundDuration":517717,"Delta":34050016},{"NoteNumber":81,"Velocity":67,"Duration":517717,"SoundDuration":517717,"Delta":34050016},{"NoteNumber":54,"Velocity":40,"Duration":345145,"SoundDuration":345145,"Delta":34050016},{"NoteNumber":63,"Velocity":46,"Duration":345145,"SoundDuration":345145,"Delta":34050016},{"NoteNumber":59,"Velocity":40,"Duration":345145,"SoundDuration":345145,"Delta":34050016},{"NoteNumber":48,"Velocity":76,"Duration":206142,"SoundDuration":206142,"Delta":34567733},{"NoteNumber":24,"Velocity":51,"Duration":206142,"SoundDuration":206142,"Delta":34567733},{"NoteNumber":36,"Velocity":61,"Duration":206142,"SoundDuration":206142,"Delta":34567733},{"NoteNumber":67,"Velocity":59,"Duration":576553,"SoundDuration":576553,"Delta":35186162},{"NoteNumber":70,"Velocity":71,"Duration":576553,"SoundDuration":576553,"Delta":35186162},{"NoteNumber":58,"Velocity":59,"Duration":576553,"SoundDuration":576553,"Delta":35186162},{"NoteNumber":36,"Velocity":44,"Duration":1537475,"SoundDuration":1537475,"Delta":35186162},{"NoteNumber":46,"Velocity":53,"Duration":576553,"SoundDuration":576553,"Delta":35186162},{"NoteNumber":43,"Velocity":44,"Duration":576553,"SoundDuration":576553,"Delta":35186162},{"NoteNumber":57,"Velocity":58,"Duration":576553,"SoundDuration":576553,"Delta":35762716},{"NoteNumber":69,"Velocity":69,"Duration":576553,"SoundDuration":576553,"Delta":35762716},{"NoteNumber":65,"Velocity":69,"Duration":576553,"SoundDuration":576553,"Delta":35762716},{"NoteNumber":45,"Velocity":53,"Duration":576553,"SoundDuration":576553,"Delta":35762716},{"NoteNumber":41,"Velocity":44,"Duration":576553,"SoundDuration":576553,"Delta":35762716},{"NoteNumber":62,"Velocity":59,"Duration":576553,"SoundDuration":576553,"Delta":36339269},{"NoteNumber":65,"Velocity":71,"Duration":576553,"SoundDuration":576553,"Delta":36339269},{"NoteNumber":53,"Velocity":59,"Duration":576553,"SoundDuration":576553,"Delta":36339269},{"NoteNumber":41,"Velocity":53,"Duration":576553,"SoundDuration":576553,"Delta":36339269},{"NoteNumber":38,"Velocity":44,"Duration":576553,"SoundDuration":576553,"Delta":36339269},{"NoteNumber":55,"Velocity":56,"Duration":80623,"SoundDuration":80623,"Delta":36915823},{"NoteNumber":67,"Velocity":66,"Duration":80623,"SoundDuration":80623,"Delta":36915823},{"NoteNumber":64,"Velocity":56,"Duration":80623,"SoundDuration":80623,"Delta":36915823},{"NoteNumber":40,"Velocity":44,"Duration":80623,"SoundDuration":80623,"Delta":36915823},{"NoteNumber":43,"Velocity":53,"Duration":80623,"SoundDuration":80623,"Delta":36915823},{"NoteNumber":64,"Velocity":58,"Duration":83798,"SoundDuration":83798,"Delta":37077070},{"NoteNumber":52,"Velocity":49,"Duration":83798,"SoundDuration":83798,"Delta":37077070},{"NoteNumber":37,"Velocity":49,"Duration":83798,"SoundDuration":83798,"Delta":37077070},{"NoteNumber":65,"Velocity":66,"Duration":80623,"SoundDuration":80623,"Delta":37244668},{"NoteNumber":53,"Velocity":52,"Duration":80623,"SoundDuration":80623,"Delta":37244668},{"NoteNumber":38,"Velocity":53,"Duration":80623,"SoundDuration":80623,"Delta":37244668},{"NoteNumber":62,"Velocity":59,"Duration":82978,"SoundDuration":82978,"Delta":37405915},{"NoteNumber":50,"Velocity":50,"Duration":82978,"SoundDuration":82978,"Delta":37405915},{"NoteNumber":35,"Velocity":47,"Duration":82978,"SoundDuration":82978,"Delta":37405915},{"NoteNumber":64,"Velocity":66,"Duration":81133,"SoundDuration":81133,"Delta":37571872},{"NoteNumber":52,"Velocity":56,"Duration":81133,"SoundDuration":81133,"Delta":37571872},{"NoteNumber":37,"Velocity":53,"Duration":81133,"SoundDuration":81133,"Delta":37571872},{"NoteNumber":61,"Velocity":60,"Duration":84350,"SoundDuration":84350,"Delta":37734139},{"NoteNumber":49,"Velocity":51,"Duration":84350,"SoundDuration":84350,"Delta":37734139},{"NoteNumber":33,"Velocity":49,"Duration":84350,"SoundDuration":84350,"Delta":37734139},{"NoteNumber":62,"Velocity":66,"Duration":100240,"SoundDuration":100240,"Delta":37902840},{"NoteNumber":50,"Velocity":56,"Duration":100240,"SoundDuration":100240,"Delta":37902840},{"NoteNumber":38,"Velocity":53,"Duration":100240,"SoundDuration":100240,"Delta":37902840},{"NoteNumber":50,"Velocity":55,"Duration":92273,"SoundDuration":92273,"Delta":38303802},{"NoteNumber":62,"Velocity":65,"Duration":92273,"SoundDuration":92273,"Delta":38303802},{"NoteNumber":38,"Velocity":64,"Duration":553640,"SoundDuration":553640,"Delta":38488349},{"NoteNumber":26,"Velocity":52,"Duration":553640,"SoundDuration":553640,"Delta":38488349},{"NoteNumber":51,"Velocity":76,"Duration":206142,"SoundDuration":206142,"Delta":39041990},{"NoteNumber":39,"Velocity":61,"Duration":206142,"SoundDuration":206142,"Delta":39041990},{"NoteNumber":27,"Velocity":51,"Duration":206142,"SoundDuration":206142,"Delta":39041990},{"NoteNumber":73,"Velocity":71,"Duration":576553,"SoundDuration":576553,"Delta":39660419},{"NoteNumber":70,"Velocity":59,"Duration":576553,"SoundDuration":576553,"Delta":39660419},{"NoteNumber":61,"Velocity":59,"Duration":576553,"SoundDuration":576553,"Delta":39660419},{"NoteNumber":46,"Velocity":44,"Duration":576553,"SoundDuration":576553,"Delta":39660419},{"NoteNumber":39,"Velocity":44,"Duration":1537475,"SoundDuration":1537475,"Delta":39660419},{"NoteNumber":49,"Velocity":53,"Duration":576553,"SoundDuration":576553,"Delta":39660419},{"NoteNumber":72,"Velocity":69,"Duration":576553,"SoundDuration":576553,"Delta":40236972},{"NoteNumber":68,"Velocity":69,"Duration":576553,"SoundDuration":576553,"Delta":40236972},{"NoteNumber":60,"Velocity":58,"Duration":576553,"SoundDuration":576553,"Delta":40236972},{"NoteNumber":48,"Velocity":53,"Duration":576553,"SoundDuration":576553,"Delta":40236972},{"NoteNumber":44,"Velocity":44,"Duration":576553,"SoundDuration":576553,"Delta":40236972},{"NoteNumber":68,"Velocity":71,"Duration":576553,"SoundDuration":576553,"Delta":40813525},{"NoteNumber":65,"Velocity":59,"Duration":576553,"SoundDuration":576553,"Delta":40813525},{"NoteNumber":56,"Velocity":59,"Duration":576553,"SoundDuration":576553,"Delta":40813525},{"NoteNumber":44,"Velocity":53,"Duration":576553,"SoundDuration":576553,"Delta":40813525},{"NoteNumber":41,"Velocity":44,"Duration":576553,"SoundDuration":576553,"Delta":40813525},{"NoteNumber":58,"Velocity":56,"Duration":80623,"SoundDuration":80623,"Delta":41390079},{"NoteNumber":67,"Velocity":56,"Duration":80623,"SoundDuration":80623,"Delta":41390079},{"NoteNumber":70,"Velocity":66,"Duration":80623,"SoundDuration":80623,"Delta":41390079},{"NoteNumber":46,"Velocity":53,"Duration":80623,"SoundDuration":80623,"Delta":41390079},{"NoteNumber":43,"Velocity":44,"Duration":80623,"SoundDuration":80623,"Delta":41390079},{"NoteNumber":67,"Velocity":58,"Duration":83798,"SoundDuration":83798,"Delta":41551326},{"NoteNumber":55,"Velocity":49,"Duration":83798,"SoundDuration":83798,"Delta":41551326},{"NoteNumber":40,"Velocity":49,"Duration":83798,"SoundDuration":83798,"Delta":41551326},{"NoteNumber":68,"Velocity":66,"Duration":80623,"SoundDuration":80623,"Delta":41718924},{"NoteNumber":56,"Velocity":52,"Duration":80623,"SoundDuration":80623,"Delta":41718924},{"NoteNumber":41,"Velocity":53,"Duration":80623,"SoundDuration":80623,"Delta":41718924},{"NoteNumber":65,"Velocity":59,"Duration":82978,"SoundDuration":82978,"Delta":41880171},{"NoteNumber":53,"Velocity":50,"Duration":82978,"SoundDuration":82978,"Delta":41880171},{"NoteNumber":38,"Velocity":47,"Duration":82978,"SoundDuration":82978,"Delta":41880171},{"NoteNumber":67,"Velocity":66,"Duration":81133,"SoundDuration":81133,"Delta":42046128},{"NoteNumber":55,"Velocity":56,"Duration":81133,"SoundDuration":81133,"Delta":42046128},{"NoteNumber":40,"Velocity":53,"Duration":81133,"SoundDuration":81133,"Delta":42046128},{"NoteNumber":64,"Velocity":60,"Duration":84350,"SoundDuration":84350,"Delta":42208395},{"NoteNumber":52,"Velocity":51,"Duration":84350,"SoundDuration":84350,"Delta":42208395},{"NoteNumber":36,"Velocity":49,"Duration":84350,"SoundDuration":84350,"Delta":42208395},{"NoteNumber":53,"Velocity":56,"Duration":100240,"SoundDuration":100240,"Delta":42377096},{"NoteNumber":65,"Velocity":66,"Duration":100240,"SoundDuration":100240,"Delta":42377096},{"NoteNumber":41,"Velocity":53,"Duration":100240,"SoundDuration":100240,"Delta":42377096},{"NoteNumber":53,"Velocity":55,"Duration":92273,"SoundDuration":92273,"Delta":42778058},{"NoteNumber":65,"Velocity":65,"Duration":92273,"SoundDuration":92273,"Delta":42778058},{"NoteNumber":41,"Velocity":64,"Duration":553640,"SoundDuration":553640,"Delta":42962605},{"NoteNumber":29,"Velocity":52,"Duration":553640,"SoundDuration":553640,"Delta":42962605},{"NoteNumber":54,"Velocity":76,"Duration":206142,"SoundDuration":206142,"Delta":43516246},{"NoteNumber":42,"Velocity":61,"Duration":206142,"SoundDuration":206142,"Delta":43516246},{"NoteNumber":30,"Velocity":51,"Duration":206142,"SoundDuration":206142,"Delta":43516246},{"NoteNumber":76,"Velocity":67,"Duration":576553,"SoundDuration":576553,"Delta":44134675},{"NoteNumber":88,"Velocity":81,"Duration":576553,"SoundDuration":576553,"Delta":44134675},{"NoteNumber":85,"Velocity":67,"Duration":576553,"SoundDuration":576553,"Delta":44134675},{"NoteNumber":54,"Velocity":50,"Duration":1537475,"SoundDuration":1537475,"Delta":44134675},{"NoteNumber":61,"Velocity":50,"Duration":576553,"SoundDuration":576553,"Delta":44134675},{"NoteNumber":64,"Velocity":60,"Duration":576553,"SoundDuration":576553,"Delta":44134675},{"NoteNumber":83,"Velocity":79,"Duration":576553,"SoundDuration":576553,"Delta":44711228},{"NoteNumber":87,"Velocity":79,"Duration":576553,"SoundDuration":576553,"Delta":44711228},{"NoteNumber":75,"Velocity":66,"Duration":576553,"SoundDuration":576553,"Delta":44711228},{"NoteNumber":63,"Velocity":60,"Duration":576553,"SoundDuration":576553,"Delta":44711228},{"NoteNumber":59,"Velocity":50,"Duration":576553,"SoundDuration":576553,"Delta":44711228},{"NoteNumber":71,"Velocity":67,"Duration":576553,"SoundDuration":576553,"Delta":45287782},{"NoteNumber":83,"Velocity":81,"Duration":576553,"SoundDuration":576553,"Delta":45287782},{"NoteNumber":80,"Velocity":67,"Duration":576553,"SoundDuration":576553,"Delta":45287782},{"NoteNumber":59,"Velocity":60,"Duration":576553,"SoundDuration":576553,"Delta":45287782},{"NoteNumber":56,"Velocity":50,"Duration":576553,"SoundDuration":576553,"Delta":45287782},{"NoteNumber":42,"Velocity":36,"Duration":2348089,"SoundDuration":2348089,"Delta":45864335},{"NoteNumber":64,"Velocity":42,"Duration":576553,"SoundDuration":576553,"Delta":46482764},{"NoteNumber":55,"Velocity":31,"Duration":576553,"SoundDuration":576553,"Delta":46482764},{"NoteNumber":62,"Velocity":41,"Duration":576553,"SoundDuration":576553,"Delta":47059318},{"NoteNumber":54,"Velocity":31,"Duration":576553,"SoundDuration":576553,"Delta":47059318},{"NoteNumber":59,"Velocity":42,"Duration":576553,"SoundDuration":576553,"Delta":47635871},{"NoteNumber":50,"Velocity":31,"Duration":576553,"SoundDuration":576553,"Delta":47635871},{"NoteNumber":54,"Velocity":91,"Duration":202019,"SoundDuration":202019,"Delta":48212425},{"NoteNumber":30,"Velocity":61,"Duration":202019,"SoundDuration":202019,"Delta":48212425},{"NoteNumber":42,"Velocity":73,"Duration":202020,"SoundDuration":202020,"Delta":48223367},{"NoteNumber":88,"Velocity":78,"Duration":192307,"SoundDuration":192307,"Delta":48616465},{"NoteNumber":85,"Velocity":64,"Duration":192307,"SoundDuration":192307,"Delta":48616465},{"NoteNumber":76,"Velocity":64,"Duration":192307,"SoundDuration":192307,"Delta":48616465},{"NoteNumber":54,"Velocity":39,"Duration":761217,"SoundDuration":761217,"Delta":48616465},{"NoteNumber":61,"Velocity":48,"Duration":192307,"SoundDuration":192307,"Delta":48616465},{"NoteNumber":64,"Velocity":58,"Duration":192307,"SoundDuration":192307,"Delta":48616465},{"NoteNumber":83,"Velocity":75,"Duration":384615,"SoundDuration":384615,"Delta":48808772},{"NoteNumber":75,"Velocity":75,"Duration":384615,"SoundDuration":384615,"Delta":48808772},{"NoteNumber":87,"Velocity":75,"Duration":384615,"SoundDuration":384615,"Delta":48808772},{"NoteNumber":63,"Velocity":58,"Duration":384615,"SoundDuration":384615,"Delta":48808772},{"NoteNumber":59,"Velocity":48,"Duration":384615,"SoundDuration":384615,"Delta":48808772},{"NoteNumber":71,"Velocity":64,"Duration":192307,"SoundDuration":192307,"Delta":49193387},{"NoteNumber":83,"Velocity":78,"Duration":192307,"SoundDuration":192307,"Delta":49193387},{"NoteNumber":80,"Velocity":64,"Duration":192307,"SoundDuration":192307,"Delta":49193387},{"NoteNumber":59,"Velocity":58,"Duration":192307,"SoundDuration":192307,"Delta":49193387},{"NoteNumber":56,"Velocity":48,"Duration":192307,"SoundDuration":192307,"Delta":49193387},{"NoteNumber":54,"Velocity":73,"Duration":1173270,"SoundDuration":1173270,"Delta":49385695},{"NoteNumber":92,"Velocity":78,"Duration":192307,"SoundDuration":192307,"Delta":49789735},{"NoteNumber":80,"Velocity":64,"Duration":192307,"SoundDuration":192307,"Delta":49789735},{"NoteNumber":88,"Velocity":64,"Duration":192307,"SoundDuration":192307,"Delta":49789735},{"NoteNumber":64,"Velocity":48,"Duration":192307,"SoundDuration":192307,"Delta":49789735},{"NoteNumber":68,"Velocity":58,"Duration":192307,"SoundDuration":192307,"Delta":49789735},{"NoteNumber":90,"Velocity":75,"Duration":384615,"SoundDuration":384615,"Delta":49982042},{"NoteNumber":87,"Velocity":75,"Duration":384615,"SoundDuration":384615,"Delta":49982042},{"NoteNumber":78,"Velocity":75,"Duration":384615,"SoundDuration":384615,"Delta":49982042},{"NoteNumber":66,"Velocity":58,"Duration":384615,"SoundDuration":384615,"Delta":49982042},{"NoteNumber":63,"Velocity":48,"Duration":384615,"SoundDuration":384615,"Delta":49982042},{"NoteNumber":75,"Velocity":64,"Duration":192307,"SoundDuration":192307,"Delta":50366657},{"NoteNumber":87,"Velocity":78,"Duration":192307,"SoundDuration":192307,"Delta":50366657},{"NoteNumber":83,"Velocity":64,"Duration":192307,"SoundDuration":192307,"Delta":50366657},{"NoteNumber":63,"Velocity":58,"Duration":192307,"SoundDuration":192307,"Delta":50366657},{"NoteNumber":59,"Velocity":48,"Duration":192307,"SoundDuration":192307,"Delta":50366657},{"NoteNumber":42,"Velocity":44,"Duration":1166773,"SoundDuration":1166773,"Delta":50558965},{"NoteNumber":64,"Velocity":42,"Duration":191693,"SoundDuration":191693,"Delta":50958965},{"NoteNumber":55,"Velocity":31,"Duration":191693,"SoundDuration":191693,"Delta":50958965},{"NoteNumber":62,"Velocity":41,"Duration":383386,"SoundDuration":383386,"Delta":51150658},{"NoteNumber":54,"Velocity":31,"Duration":383386,"SoundDuration":383386,"Delta":51150658},{"NoteNumber":59,"Velocity":42,"Duration":191693,"SoundDuration":191693,"Delta":51534045},{"NoteNumber":50,"Velocity":31,"Duration":191693,"SoundDuration":191693,"Delta":51534045},{"NoteNumber":42,"Velocity":36,"Duration":1166773,"SoundDuration":1166773,"Delta":51725739},{"NoteNumber":61,"Velocity":42,"Duration":191693,"SoundDuration":191693,"Delta":52125739},{"NoteNumber":52,"Velocity":31,"Duration":191693,"SoundDuration":191693,"Delta":52125739},{"NoteNumber":59,"Velocity":41,"Duration":383386,"SoundDuration":383386,"Delta":52317432},{"NoteNumber":50,"Velocity":27,"Duration":383386,"SoundDuration":383386,"Delta":52317432},{"NoteNumber":55,"Velocity":42,"Duration":191693,"SoundDuration":191693,"Delta":52700819},{"NoteNumber":47,"Velocity":29,"Duration":191693,"SoundDuration":191693,"Delta":52700819},{"NoteNumber":54,"Velocity":41,"Duration":344827,"SoundDuration":344827,"Delta":52892513},{"NoteNumber":42,"Velocity":33,"Duration":86207,"SoundDuration":86207,"Delta":52892513},{"NoteNumber":35,"Velocity":27,"Duration":86206,"SoundDuration":86206,"Delta":53064927},{"NoteNumber":42,"Velocity":32,"Duration":86207,"SoundDuration":86207,"Delta":53237341},{"NoteNumber":35,"Velocity":26,"Duration":86206,"SoundDuration":86206,"Delta":53409755},{"NoteNumber":42,"Velocity":31,"Duration":86207,"SoundDuration":86207,"Delta":53582169},{"NoteNumber":35,"Velocity":27,"Duration":88495,"SoundDuration":88495,"Delta":53754583},{"NoteNumber":42,"Velocity":29,"Duration":86207,"SoundDuration":86207,"Delta":53931574},{"NoteNumber":35,"Velocity":26,"Duration":86206,"SoundDuration":86206,"Delta":54103988},{"NoteNumber":42,"Velocity":31,"Duration":86207,"SoundDuration":86207,"Delta":54276402},{"NoteNumber":66,"Velocity":26,"Duration":86206,"SoundDuration":86206,"Delta":54448816},{"NoteNumber":64,"Velocity":22,"Duration":86206,"SoundDuration":86206,"Delta":54448816},{"NoteNumber":58,"Velocity":22,"Duration":86206,"SoundDuration":86206,"Delta":54448816},{"NoteNumber":61,"Velocity":22,"Duration":86206,"SoundDuration":86206,"Delta":54448816},{"NoteNumber":61,"Velocity":25,"Duration":86207,"SoundDuration":86207,"Delta":54621230},{"NoteNumber":58,"Velocity":25,"Duration":86207,"SoundDuration":86207,"Delta":54621230},{"NoteNumber":64,"Velocity":25,"Duration":86207,"SoundDuration":86207,"Delta":54621230},{"NoteNumber":66,"Velocity":30,"Duration":86207,"SoundDuration":86207,"Delta":54621230},{"NoteNumber":58,"Velocity":22,"Duration":89285,"SoundDuration":89285,"Delta":54793644},{"NoteNumber":66,"Velocity":26,"Duration":89285,"SoundDuration":89285,"Delta":54793644},{"NoteNumber":61,"Velocity":22,"Duration":89285,"SoundDuration":89285,"Delta":54793644},{"NoteNumber":64,"Velocity":22,"Duration":89285,"SoundDuration":89285,"Delta":54793644},{"NoteNumber":66,"Velocity":33,"Duration":86207,"SoundDuration":86207,"Delta":54972215},{"NoteNumber":59,"Velocity":28,"Duration":86207,"SoundDuration":86207,"Delta":54972215},{"NoteNumber":63,"Velocity":28,"Duration":86207,"SoundDuration":86207,"Delta":54972215},{"NoteNumber":42,"Velocity":32,"Duration":86207,"SoundDuration":86207,"Delta":54972215},{"NoteNumber":35,"Velocity":25,"Duration":86206,"SoundDuration":86206,"Delta":55144629},{"NoteNumber":42,"Velocity":29,"Duration":86207,"SoundDuration":86207,"Delta":55317043},{"NoteNumber":61,"Velocity":26,"Duration":86206,"SoundDuration":86206,"Delta":55489457},{"NoteNumber":52,"Velocity":22,"Duration":86206,"SoundDuration":86206,"Delta":55489457},{"NoteNumber":54,"Velocity":22,"Duration":86206,"SoundDuration":86206,"Delta":55489457},{"NoteNumber":58,"Velocity":22,"Duration":86206,"SoundDuration":86206,"Delta":55489457},{"NoteNumber":52,"Velocity":25,"Duration":86207,"SoundDuration":86207,"Delta":55661871},{"NoteNumber":54,"Velocity":25,"Duration":86207,"SoundDuration":86207,"Delta":55661871},{"NoteNumber":58,"Velocity":25,"Duration":86207,"SoundDuration":86207,"Delta":55661871},{"NoteNumber":63,"Velocity":30,"Duration":86207,"SoundDuration":86207,"Delta":55661871},{"NoteNumber":52,"Velocity":22,"Duration":89285,"SoundDuration":89285,"Delta":55834285},{"NoteNumber":54,"Velocity":22,"Duration":89285,"SoundDuration":89285,"Delta":55834285},{"NoteNumber":58,"Velocity":22,"Duration":89285,"SoundDuration":89285,"Delta":55834285},{"NoteNumber":61,"Velocity":26,"Duration":89285,"SoundDuration":89285,"Delta":55834285},{"NoteNumber":51,"Velocity":28,"Duration":86956,"SoundDuration":86956,"Delta":56012857},{"NoteNumber":54,"Velocity":28,"Duration":86956,"SoundDuration":86956,"Delta":56012857},{"NoteNumber":59,"Velocity":33,"Duration":86956,"SoundDuration":86956,"Delta":56012857},{"NoteNumber":42,"Velocity":32,"Duration":86956,"SoundDuration":86956,"Delta":56012857},{"NoteNumber":35,"Velocity":24,"Duration":86956,"SoundDuration":86956,"Delta":56186770},{"NoteNumber":42,"Velocity":30,"Duration":86956,"SoundDuration":86956,"Delta":56360683},{"NoteNumber":58,"Velocity":22,"Duration":86956,"SoundDuration":86956,"Delta":56534596},{"NoteNumber":66,"Velocity":26,"Duration":86956,"SoundDuration":86956,"Delta":56534596},{"NoteNumber":61,"Velocity":22,"Duration":86956,"SoundDuration":86956,"Delta":56534596},{"NoteNumber":64,"Velocity":22,"Duration":86956,"SoundDuration":86956,"Delta":56534596},{"NoteNumber":58,"Velocity":25,"Duration":86956,"SoundDuration":86956,"Delta":56708509},{"NoteNumber":61,"Velocity":25,"Duration":86956,"SoundDuration":86956,"Delta":56708509},{"NoteNumber":64,"Velocity":25,"Duration":86956,"SoundDuration":86956,"Delta":56708509},{"NoteNumber":66,"Velocity":30,"Duration":86956,"SoundDuration":86956,"Delta":56708509},{"NoteNumber":61,"Velocity":22,"Duration":89285,"SoundDuration":89285,"Delta":56882422},{"NoteNumber":66,"Velocity":26,"Duration":89285,"SoundDuration":89285,"Delta":56882422},{"NoteNumber":64,"Velocity":22,"Duration":89285,"SoundDuration":89285,"Delta":56882422},{"NoteNumber":58,"Velocity":22,"Duration":89285,"SoundDuration":89285,"Delta":56882422},{"NoteNumber":66,"Velocity":33,"Duration":86956,"SoundDuration":86956,"Delta":57060993},{"NoteNumber":63,"Velocity":28,"Duration":86956,"SoundDuration":86956,"Delta":57060993},{"NoteNumber":59,"Velocity":28,"Duration":86956,"SoundDuration":86956,"Delta":57060993},{"NoteNumber":42,"Velocity":33,"Duration":86956,"SoundDuration":86956,"Delta":57060993},{"NoteNumber":35,"Velocity":27,"Duration":86956,"SoundDuration":86956,"Delta":57234906},{"NoteNumber":42,"Velocity":32,"Duration":86956,"SoundDuration":86956,"Delta":57408819},{"NoteNumber":58,"Velocity":22,"Duration":86956,"SoundDuration":86956,"Delta":57582732},{"NoteNumber":61,"Velocity":26,"Duration":86956,"SoundDuration":86956,"Delta":57582732},{"NoteNumber":52,"Velocity":22,"Duration":86956,"SoundDuration":86956,"Delta":57582732},{"NoteNumber":54,"Velocity":22,"Duration":86956,"SoundDuration":86956,"Delta":57582732},{"NoteNumber":58,"Velocity":25,"Duration":86956,"SoundDuration":86956,"Delta":57756645},{"NoteNumber":52,"Velocity":25,"Duration":86956,"SoundDuration":86956,"Delta":57756645},{"NoteNumber":54,"Velocity":25,"Duration":86956,"SoundDuration":86956,"Delta":57756645},{"NoteNumber":63,"Velocity":30,"Duration":86956,"SoundDuration":86956,"Delta":57756645},{"NoteNumber":58,"Velocity":22,"Duration":89285,"SoundDuration":89285,"Delta":57930558},{"NoteNumber":52,"Velocity":22,"Duration":89285,"SoundDuration":89285,"Delta":57930558},{"NoteNumber":61,"Velocity":26,"Duration":89285,"SoundDuration":89285,"Delta":57930558},{"NoteNumber":54,"Velocity":22,"Duration":89285,"SoundDuration":89285,"Delta":57930558},{"NoteNumber":54,"Velocity":28,"Duration":87209,"SoundDuration":87209,"Delta":58109130},{"NoteNumber":59,"Velocity":33,"Duration":87209,"SoundDuration":87209,"Delta":58109130},{"NoteNumber":51,"Velocity":28,"Duration":87209,"SoundDuration":87209,"Delta":58109130},{"NoteNumber":42,"Velocity":32,"Duration":87209,"SoundDuration":87209,"Delta":58109130},{"NoteNumber":35,"Velocity":28,"Duration":87209,"SoundDuration":87209,"Delta":58283548},{"NoteNumber":42,"Velocity":34,"Duration":87209,"SoundDuration":87209,"Delta":58457967},{"NoteNumber":66,"Velocity":23,"Duration":87209,"SoundDuration":87209,"Delta":58632385},{"NoteNumber":60,"Velocity":23,"Duration":87209,"SoundDuration":87209,"Delta":58632385},{"NoteNumber":63,"Velocity":23,"Duration":87209,"SoundDuration":87209,"Delta":58632385},{"NoteNumber":68,"Velocity":28,"Duration":87209,"SoundDuration":87209,"Delta":58632385},{"NoteNumber":66,"Velocity":27,"Duration":87209,"SoundDuration":87209,"Delta":58806804},{"NoteNumber":68,"Velocity":33,"Duration":87209,"SoundDuration":87209,"Delta":58806804},{"NoteNumber":63,"Velocity":27,"Duration":87209,"SoundDuration":87209,"Delta":58806804},{"NoteNumber":60,"Velocity":27,"Duration":87209,"SoundDuration":87209,"Delta":58806804},{"NoteNumber":63,"Velocity":25,"Duration":89285,"SoundDuration":89285,"Delta":58981222},{"NoteNumber":60,"Velocity":25,"Duration":89285,"SoundDuration":89285,"Delta":58981222},{"NoteNumber":66,"Velocity":25,"Duration":89285,"SoundDuration":89285,"Delta":58981222},{"NoteNumber":68,"Velocity":29,"Duration":89285,"SoundDuration":89285,"Delta":58981222},{"NoteNumber":64,"Velocity":32,"Duration":86956,"SoundDuration":86956,"Delta":59159794},{"NoteNumber":61,"Velocity":32,"Duration":86956,"SoundDuration":86956,"Delta":59159794},{"NoteNumber":68,"Velocity":38,"Duration":86956,"SoundDuration":86956,"Delta":59159794},{"NoteNumber":42,"Velocity":37,"Duration":86956,"SoundDuration":86956,"Delta":59159794},{"NoteNumber":35,"Velocity":30,"Duration":86956,"SoundDuration":86956,"Delta":59333707},{"NoteNumber":42,"Velocity":39,"Duration":86956,"SoundDuration":86956,"Delta":59507619},{"NoteNumber":58,"Velocity":27,"Duration":86956,"SoundDuration":86956,"Delta":59681532},{"NoteNumber":61,"Velocity":27,"Duration":86956,"SoundDuration":86956,"Delta":59681532},{"NoteNumber":64,"Velocity":27,"Duration":86956,"SoundDuration":86956,"Delta":59681532},{"NoteNumber":66,"Velocity":32,"Duration":86956,"SoundDuration":86956,"Delta":59681532},{"NoteNumber":58,"Velocity":32,"Duration":86956,"SoundDuration":86956,"Delta":59855446},{"NoteNumber":63,"Velocity":32,"Duration":86956,"SoundDuration":86956,"Delta":59855446},{"NoteNumber":64,"Velocity":32,"Duration":86956,"SoundDuration":86956,"Delta":59855446},{"NoteNumber":66,"Velocity":38,"Duration":86956,"SoundDuration":86956,"Delta":59855446},{"NoteNumber":64,"Velocity":28,"Duration":89285,"SoundDuration":89285,"Delta":60029359},{"NoteNumber":66,"Velocity":34,"Duration":89285,"SoundDuration":89285,"Delta":60029359},{"NoteNumber":58,"Velocity":28,"Duration":89285,"SoundDuration":89285,"Delta":60029359},{"NoteNumber":61,"Velocity":28,"Duration":89285,"SoundDuration":89285,"Delta":60029359},{"NoteNumber":59,"Velocity":37,"Duration":87209,"SoundDuration":87209,"Delta":60207930},{"NoteNumber":63,"Velocity":37,"Duration":87209,"SoundDuration":87209,"Delta":60207930},{"NoteNumber":66,"Velocity":43,"Duration":87209,"SoundDuration":87209,"Delta":60207930},{"NoteNumber":35,"Velocity":45,"Duration":87209,"SoundDuration":87209,"Delta":60207930},{"NoteNumber":42,"Velocity":35,"Duration":87209,"SoundDuration":87209,"Delta":60382349},{"NoteNumber":35,"Velocity":45,"Duration":87209,"SoundDuration":87209,"Delta":60556767},{"NoteNumber":63,"Velocity":31,"Duration":87209,"SoundDuration":87209,"Delta":60731185},{"NoteNumber":69,"Velocity":31,"Duration":87209,"SoundDuration":87209,"Delta":60731185},{"NoteNumber":71,"Velocity":36,"Duration":87209,"SoundDuration":87209,"Delta":60731185},{"NoteNumber":66,"Velocity":31,"Duration":87209,"SoundDuration":87209,"Delta":60731185},{"NoteNumber":42,"Velocity":41,"Duration":87209,"SoundDuration":87209,"Delta":60731185},{"NoteNumber":63,"Velocity":36,"Duration":87209,"SoundDuration":87209,"Delta":60905604},{"NoteNumber":66,"Velocity":36,"Duration":87209,"SoundDuration":87209,"Delta":60905604},{"NoteNumber":69,"Velocity":36,"Duration":87209,"SoundDuration":87209,"Delta":60905604},{"NoteNumber":71,"Velocity":43,"Duration":87209,"SoundDuration":87209,"Delta":60905604},{"NoteNumber":63,"Velocity":32,"Duration":89285,"SoundDuration":89285,"Delta":61080023},{"NoteNumber":66,"Velocity":32,"Duration":89285,"SoundDuration":89285,"Delta":61080023},{"NoteNumber":69,"Velocity":32,"Duration":89285,"SoundDuration":89285,"Delta":61080023},{"NoteNumber":71,"Velocity":38,"Duration":89285,"SoundDuration":89285,"Delta":61080023},{"NoteNumber":64,"Velocity":42,"Duration":87463,"SoundDuration":87463,"Delta":61258594},{"NoteNumber":71,"Velocity":49,"Duration":87463,"SoundDuration":87463,"Delta":61258594},{"NoteNumber":68,"Velocity":42,"Duration":87463,"SoundDuration":87463,"Delta":61258594},{"NoteNumber":35,"Velocity":51,"Duration":87463,"SoundDuration":87463,"Delta":61258594},{"NoteNumber":42,"Velocity":39,"Duration":87463,"SoundDuration":87463,"Delta":61433521},{"NoteNumber":35,"Velocity":51,"Duration":87463,"SoundDuration":87463,"Delta":61608448},{"NoteNumber":73,"Velocity":47,"Duration":87463,"SoundDuration":87463,"Delta":61783375},{"NoteNumber":65,"Velocity":39,"Duration":87463,"SoundDuration":87463,"Delta":61783375},{"NoteNumber":68,"Velocity":39,"Duration":87463,"SoundDuration":87463,"Delta":61783375},{"NoteNumber":71,"Velocity":39,"Duration":87463,"SoundDuration":87463,"Delta":61783375},{"NoteNumber":42,"Velocity":46,"Duration":87463,"SoundDuration":87463,"Delta":61783375},{"NoteNumber":73,"Velocity":55,"Duration":87463,"SoundDuration":87463,"Delta":61958302},{"NoteNumber":71,"Velocity":46,"Duration":87463,"SoundDuration":87463,"Delta":61958302},{"NoteNumber":68,"Velocity":46,"Duration":87463,"SoundDuration":87463,"Delta":61958302},{"NoteNumber":65,"Velocity":46,"Duration":87463,"SoundDuration":87463,"Delta":61958302},{"NoteNumber":68,"Velocity":41,"Duration":89285,"SoundDuration":89285,"Delta":62133229},{"NoteNumber":65,"Velocity":41,"Duration":89285,"SoundDuration":89285,"Delta":62133229},{"NoteNumber":73,"Velocity":48,"Duration":89285,"SoundDuration":89285,"Delta":62133229},{"NoteNumber":71,"Velocity":41,"Duration":89285,"SoundDuration":89285,"Delta":62133229},{"NoteNumber":70,"Velocity":52,"Duration":87463,"SoundDuration":87463,"Delta":62311800},{"NoteNumber":66,"Velocity":52,"Duration":87463,"SoundDuration":87463,"Delta":62311800},{"NoteNumber":73,"Velocity":63,"Duration":87463,"SoundDuration":87463,"Delta":62311800},{"NoteNumber":35,"Velocity":64,"Duration":87463,"SoundDuration":87463,"Delta":62311800},{"NoteNumber":42,"Velocity":53,"Duration":87463,"SoundDuration":87463,"Delta":62486727},{"NoteNumber":35,"Velocity":58,"Duration":91743,"SoundDuration":91743,"Delta":62661654},{"NoteNumber":85,"Velocity":55,"Duration":87209,"SoundDuration":87209,"Delta":62845140},{"NoteNumber":90,"Velocity":65,"Duration":87209,"SoundDuration":87209,"Delta":62845140},{"NoteNumber":82,"Velocity":55,"Duration":87209,"SoundDuration":87209,"Delta":62845140},{"NoteNumber":76,"Velocity":55,"Duration":87209,"SoundDuration":87209,"Delta":62845140},{"NoteNumber":42,"Velocity":53,"Duration":87209,"SoundDuration":87209,"Delta":62845140},{"NoteNumber":76,"Velocity":62,"Duration":87209,"SoundDuration":87209,"Delta":63019559},{"NoteNumber":90,"Velocity":74,"Duration":87209,"SoundDuration":87209,"Delta":63019559},{"NoteNumber":85,"Velocity":62,"Duration":87209,"SoundDuration":87209,"Delta":63019559},{"NoteNumber":82,"Velocity":62,"Duration":87209,"SoundDuration":87209,"Delta":63019559},{"NoteNumber":82,"Velocity":57,"Duration":92592,"SoundDuration":92592,"Delta":63193977},{"NoteNumber":76,"Velocity":57,"Duration":92592,"SoundDuration":92592,"Delta":63193977},{"NoteNumber":90,"Velocity":68,"Duration":92592,"SoundDuration":92592,"Delta":63193977},{"NoteNumber":85,"Velocity":57,"Duration":92592,"SoundDuration":92592,"Delta":63193977},{"NoteNumber":76,"Velocity":55,"Duration":87463,"SoundDuration":87463,"Delta":63379162},{"NoteNumber":85,"Velocity":55,"Duration":87463,"SoundDuration":87463,"Delta":63379162},{"NoteNumber":82,"Velocity":55,"Duration":87463,"SoundDuration":87463,"Delta":63379162},{"NoteNumber":90,"Velocity":65,"Duration":87463,"SoundDuration":87463,"Delta":63379162},{"NoteNumber":35,"Velocity":51,"Duration":87463,"SoundDuration":87463,"Delta":63379162},{"NoteNumber":47,"Velocity":61,"Duration":87463,"SoundDuration":87463,"Delta":63379162},{"NoteNumber":76,"Velocity":62,"Duration":87719,"SoundDuration":87719,"Delta":63554345},{"NoteNumber":85,"Velocity":62,"Duration":87719,"SoundDuration":87719,"Delta":63554345},{"NoteNumber":90,"Velocity":74,"Duration":87719,"SoundDuration":87719,"Delta":63554345},{"NoteNumber":82,"Velocity":62,"Duration":87719,"SoundDuration":87719,"Delta":63554345},{"NoteNumber":54,"Velocity":53,"Duration":87719,"SoundDuration":87719,"Delta":63554345},{"NoteNumber":42,"Velocity":45,"Duration":87719,"SoundDuration":87719,"Delta":63554345},{"NoteNumber":85,"Velocity":57,"Duration":92024,"SoundDuration":92024,"Delta":63729784},{"NoteNumber":82,"Velocity":57,"Duration":92024,"SoundDuration":92024,"Delta":63729784},{"NoteNumber":76,"Velocity":57,"Duration":92024,"SoundDuration":92024,"Delta":63729784},{"NoteNumber":90,"Velocity":68,"Duration":92024,"SoundDuration":92024,"Delta":63729784},{"NoteNumber":47,"Velocity":60,"Duration":92024,"SoundDuration":92024,"Delta":63729784},{"NoteNumber":35,"Velocity":51,"Duration":92024,"SoundDuration":92024,"Delta":63729784},{"NoteNumber":85,"Velocity":55,"Duration":94044,"SoundDuration":94044,"Delta":63913833},{"NoteNumber":76,"Velocity":55,"Duration":94044,"SoundDuration":94044,"Delta":63913833},{"NoteNumber":90,"Velocity":65,"Duration":94044,"SoundDuration":94044,"Delta":63913833},{"NoteNumber":82,"Velocity":55,"Duration":94044,"SoundDuration":94044,"Delta":63913833},{"NoteNumber":54,"Velocity":53,"Duration":94044,"SoundDuration":94044,"Delta":63913833},{"NoteNumber":42,"Velocity":45,"Duration":94044,"SoundDuration":94044,"Delta":63913833},{"NoteNumber":76,"Velocity":62,"Duration":94043,"SoundDuration":94043,"Delta":64101921},{"NoteNumber":82,"Velocity":62,"Duration":94043,"SoundDuration":94043,"Delta":64101921},{"NoteNumber":90,"Velocity":74,"Duration":94043,"SoundDuration":94043,"Delta":64101921},{"NoteNumber":85,"Velocity":62,"Duration":94043,"SoundDuration":94043,"Delta":64101921},{"NoteNumber":35,"Velocity":52,"Duration":94043,"SoundDuration":94043,"Delta":64101921},{"NoteNumber":47,"Velocity":62,"Duration":94043,"SoundDuration":94043,"Delta":64101921},{"NoteNumber":82,"Velocity":57,"Duration":98360,"SoundDuration":98360,"Delta":64290009},{"NoteNumber":90,"Velocity":68,"Duration":98360,"SoundDuration":98360,"Delta":64290009},{"NoteNumber":76,"Velocity":57,"Duration":98360,"SoundDuration":98360,"Delta":64290009},{"NoteNumber":85,"Velocity":57,"Duration":98360,"SoundDuration":98360,"Delta":64290009},{"NoteNumber":42,"Velocity":45,"Duration":98360,"SoundDuration":98360,"Delta":64290009},{"NoteNumber":54,"Velocity":53,"Duration":98360,"SoundDuration":98360,"Delta":64290009},{"NoteNumber":83,"Velocity":67,"Duration":92307,"SoundDuration":92307,"Delta":64486730},{"NoteNumber":75,"Velocity":67,"Duration":92307,"SoundDuration":92307,"Delta":64486730},{"NoteNumber":87,"Velocity":79,"Duration":92307,"SoundDuration":92307,"Delta":64486730},{"NoteNumber":47,"Velocity":62,"Duration":92307,"SoundDuration":92307,"Delta":64486730},{"NoteNumber":35,"Velocity":52,"Duration":92307,"SoundDuration":92307,"Delta":64486730},{"NoteNumber":71,"Velocity":61,"Duration":90908,"SoundDuration":90908,"Delta":64855961},{"NoteNumber":83,"Velocity":72,"Duration":90908,"SoundDuration":90908,"Delta":64855961},{"NoteNumber":59,"Velocity":54,"Duration":90908,"SoundDuration":90908,"Delta":64855961},{"NoteNumber":78,"Velocity":79,"Duration":92879,"SoundDuration":92879,"Delta":65037779},{"NoteNumber":66,"Velocity":67,"Duration":92879,"SoundDuration":92879,"Delta":65037779},{"NoteNumber":54,"Velocity":58,"Duration":92879,"SoundDuration":92879,"Delta":65037779},{"NoteNumber":75,"Velocity":71,"Duration":90634,"SoundDuration":90634,"Delta":65409296},{"NoteNumber":63,"Velocity":60,"Duration":90634,"SoundDuration":90634,"Delta":65409296},{"NoteNumber":51,"Velocity":54,"Duration":90634,"SoundDuration":90634,"Delta":65409296},{"NoteNumber":71,"Velocity":79,"Duration":93167,"SoundDuration":93167,"Delta":65590565},{"NoteNumber":59,"Velocity":60,"Duration":93167,"SoundDuration":93167,"Delta":65590565},{"NoteNumber":47,"Velocity":51,"Duration":93167,"SoundDuration":93167,"Delta":65590565},{"NoteNumber":67,"Velocity":73,"Duration":90908,"SoundDuration":90908,"Delta":65963236},{"NoteNumber":55,"Velocity":54,"Duration":90908,"SoundDuration":90908,"Delta":65963236},{"NoteNumber":43,"Velocity":45,"Duration":90908,"SoundDuration":90908,"Delta":65963236},{"NoteNumber":82,"Velocity":55,"Duration":93167,"SoundDuration":93167,"Delta":66145054},{"NoteNumber":85,"Velocity":55,"Duration":93167,"SoundDuration":93167,"Delta":66145054},{"NoteNumber":76,"Velocity":55,"Duration":93167,"SoundDuration":93167,"Delta":66145054},{"NoteNumber":90,"Velocity":65,"Duration":93167,"SoundDuration":93167,"Delta":66145054},{"NoteNumber":54,"Velocity":53,"Duration":93167,"SoundDuration":93167,"Delta":66145054},{"NoteNumber":42,"Velocity":45,"Duration":93167,"SoundDuration":93167,"Delta":66145054},{"NoteNumber":90,"Velocity":74,"Duration":89820,"SoundDuration":89820,"Delta":66328042},{"NoteNumber":76,"Velocity":62,"Duration":89820,"SoundDuration":89820,"Delta":66328042},{"NoteNumber":82,"Velocity":62,"Duration":89820,"SoundDuration":89820,"Delta":66328042},{"NoteNumber":85,"Velocity":62,"Duration":89820,"SoundDuration":89820,"Delta":66328042},{"NoteNumber":47,"Velocity":62,"Duration":89820,"SoundDuration":89820,"Delta":66328042},{"NoteNumber":35,"Velocity":52,"Duration":89820,"SoundDuration":89820,"Delta":66328042},{"NoteNumber":76,"Velocity":57,"Duration":98360,"SoundDuration":98360,"Delta":66507683},{"NoteNumber":85,"Velocity":57,"Duration":98360,"SoundDuration":98360,"Delta":66507683},{"NoteNumber":82,"Velocity":57,"Duration":98360,"SoundDuration":98360,"Delta":66507683},{"NoteNumber":90,"Velocity":68,"Duration":98360,"SoundDuration":98360,"Delta":66507683},{"NoteNumber":42,"Velocity":45,"Duration":98360,"SoundDuration":98360,"Delta":66507683},{"NoteNumber":54,"Velocity":53,"Duration":98360,"SoundDuration":98360,"Delta":66507683},{"NoteNumber":83,"Velocity":67,"Duration":92307,"SoundDuration":92307,"Delta":66704404},{"NoteNumber":75,"Velocity":67,"Duration":92307,"SoundDuration":92307,"Delta":66704404},{"NoteNumber":87,"Velocity":79,"Duration":92307,"SoundDuration":92307,"Delta":66704404},{"NoteNumber":47,"Velocity":62,"Duration":92307,"SoundDuration":92307,"Delta":66704404},{"NoteNumber":35,"Velocity":52,"Duration":92307,"SoundDuration":92307,"Delta":66704404},{"NoteNumber":71,"Velocity":61,"Duration":90908,"SoundDuration":90908,"Delta":67073635},{"NoteNumber":83,"Velocity":72,"Duration":90908,"SoundDuration":90908,"Delta":67073635},{"NoteNumber":59,"Velocity":54,"Duration":90908,"SoundDuration":90908,"Delta":67073635},{"NoteNumber":66,"Velocity":67,"Duration":92879,"SoundDuration":92879,"Delta":67255453},{"NoteNumber":78,"Velocity":79,"Duration":92879,"SoundDuration":92879,"Delta":67255453},{"NoteNumber":54,"Velocity":58,"Duration":92879,"SoundDuration":92879,"Delta":67255453},{"NoteNumber":63,"Velocity":60,"Duration":90634,"SoundDuration":90634,"Delta":67626970},{"NoteNumber":75,"Velocity":71,"Duration":90634,"SoundDuration":90634,"Delta":67626970},{"NoteNumber":51,"Velocity":54,"Duration":90634,"SoundDuration":90634,"Delta":67626970},{"NoteNumber":71,"Velocity":79,"Duration":93167,"SoundDuration":93167,"Delta":67808239},{"NoteNumber":47,"Velocity":51,"Duration":93167,"SoundDuration":93167,"Delta":67808239},{"NoteNumber":59,"Velocity":60,"Duration":93167,"SoundDuration":93167,"Delta":67808239},{"NoteNumber":67,"Velocity":73,"Duration":90908,"SoundDuration":90908,"Delta":68180910},{"NoteNumber":43,"Velocity":45,"Duration":90908,"SoundDuration":90908,"Delta":68180910},{"NoteNumber":55,"Velocity":54,"Duration":90908,"SoundDuration":90908,"Delta":68180910},{"NoteNumber":76,"Velocity":55,"Duration":89285,"SoundDuration":89285,"Delta":68362728},{"NoteNumber":85,"Velocity":55,"Duration":89285,"SoundDuration":89285,"Delta":68362728},{"NoteNumber":82,"Velocity":55,"Duration":89285,"SoundDuration":89285,"Delta":68362728},{"NoteNumber":90,"Velocity":65,"Duration":89285,"SoundDuration":89285,"Delta":68362728},{"NoteNumber":54,"Velocity":53,"Duration":89285,"SoundDuration":89285,"Delta":68362728},{"NoteNumber":42,"Velocity":45,"Duration":89285,"SoundDuration":89285,"Delta":68362728},{"NoteNumber":85,"Velocity":62,"Duration":89285,"SoundDuration":89285,"Delta":68541300},{"NoteNumber":90,"Velocity":74,"Duration":89285,"SoundDuration":89285,"Delta":68541300},{"NoteNumber":76,"Velocity":62,"Duration":89285,"SoundDuration":89285,"Delta":68541300},{"NoteNumber":82,"Velocity":62,"Duration":89285,"SoundDuration":89285,"Delta":68541300},{"NoteNumber":47,"Velocity":62,"Duration":89285,"SoundDuration":89285,"Delta":68541300},{"NoteNumber":35,"Velocity":52,"Duration":89285,"SoundDuration":89285,"Delta":68541300},{"NoteNumber":85,"Velocity":57,"Duration":98360,"SoundDuration":98360,"Delta":68719871},{"NoteNumber":76,"Velocity":57,"Duration":98360,"SoundDuration":98360,"Delta":68719871},{"NoteNumber":82,"Velocity":57,"Duration":98360,"SoundDuration":98360,"Delta":68719871},{"NoteNumber":90,"Velocity":68,"Duration":98360,"SoundDuration":98360,"Delta":68719871},{"NoteNumber":42,"Velocity":45,"Duration":98360,"SoundDuration":98360,"Delta":68719871},{"NoteNumber":54,"Velocity":53,"Duration":98360,"SoundDuration":98360,"Delta":68719871},{"NoteNumber":75,"Velocity":67,"Duration":92307,"SoundDuration":92307,"Delta":68916593},{"NoteNumber":83,"Velocity":67,"Duration":92307,"SoundDuration":92307,"Delta":68916593},{"NoteNumber":87,"Velocity":79,"Duration":92307,"SoundDuration":92307,"Delta":68916593},{"NoteNumber":47,"Velocity":62,"Duration":92307,"SoundDuration":92307,"Delta":68916593},{"NoteNumber":35,"Velocity":52,"Duration":92307,"SoundDuration":92307,"Delta":68916593},{"NoteNumber":83,"Velocity":72,"Duration":90908,"SoundDuration":90908,"Delta":69285824},{"NoteNumber":71,"Velocity":61,"Duration":90908,"SoundDuration":90908,"Delta":69285824},{"NoteNumber":59,"Velocity":54,"Duration":90908,"SoundDuration":90908,"Delta":69285824},{"NoteNumber":79,"Velocity":79,"Duration":92879,"SoundDuration":92879,"Delta":69467642},{"NoteNumber":67,"Velocity":67,"Duration":92879,"SoundDuration":92879,"Delta":69467642},{"NoteNumber":55,"Velocity":58,"Duration":92879,"SoundDuration":92879,"Delta":69467642},{"NoteNumber":76,"Velocity":64,"Duration":90634,"SoundDuration":90634,"Delta":69839159},{"NoteNumber":64,"Velocity":64,"Duration":90634,"SoundDuration":90634,"Delta":69839159},{"NoteNumber":52,"Velocity":46,"Duration":90634,"SoundDuration":90634,"Delta":69839159},{"NoteNumber":72,"Velocity":69,"Duration":93167,"SoundDuration":93167,"Delta":70020428},{"NoteNumber":48,"Velocity":43,"Duration":93167,"SoundDuration":93167,"Delta":70020428},{"NoteNumber":60,"Velocity":52,"Duration":93167,"SoundDuration":93167,"Delta":70020428},{"NoteNumber":69,"Velocity":52,"Duration":90908,"SoundDuration":90908,"Delta":70393099},{"NoteNumber":45,"Velocity":32,"Duration":90908,"SoundDuration":90908,"Delta":70393099},{"NoteNumber":57,"Velocity":39,"Duration":90908,"SoundDuration":90908,"Delta":70393099},{"NoteNumber":66,"Velocity":58,"Duration":90908,"SoundDuration":90908,"Delta":70574917},{"NoteNumber":54,"Velocity":44,"Duration":90908,"SoundDuration":90908,"Delta":70574917},{"NoteNumber":42,"Velocity":37,"Duration":90908,"SoundDuration":90908,"Delta":70574917},{"NoteNumber":63,"Velocity":43,"Duration":90908,"SoundDuration":90908,"Delta":70938553},{"NoteNumber":39,"Velocity":26,"Duration":90908,"SoundDuration":90908,"Delta":70938553},{"NoteNumber":51,"Velocity":31,"Duration":90908,"SoundDuration":90908,"Delta":70938553},{"NoteNumber":59,"Velocity":45,"Duration":90908,"SoundDuration":90908,"Delta":71120371},{"NoteNumber":47,"Velocity":34,"Duration":90908,"SoundDuration":90908,"Delta":71120371},{"NoteNumber":35,"Velocity":29,"Duration":90908,"SoundDuration":90908,"Delta":71120371},{"NoteNumber":55,"Velocity":36,"Duration":90908,"SoundDuration":90908,"Delta":72211279},{"NoteNumber":31,"Velocity":23,"Duration":90908,"SoundDuration":90908,"Delta":72211279},{"NoteNumber":43,"Velocity":27,"Duration":90908,"SoundDuration":90908,"Delta":72211279},{"NoteNumber":52,"Velocity":36,"Duration":90908,"SoundDuration":90908,"Delta":73302187},{"NoteNumber":28,"Velocity":23,"Duration":545454,"SoundDuration":545454,"Delta":73302187},{"NoteNumber":40,"Velocity":27,"Duration":181818,"SoundDuration":181818,"Delta":73302187},{"NoteNumber":86,"Velocity":37,"Duration":576553,"SoundDuration":576553,"Delta":73847641},{"NoteNumber":83,"Velocity":31,"Duration":576553,"SoundDuration":576553,"Delta":73847641},{"NoteNumber":32,"Velocity":23,"Duration":576553,"SoundDuration":576553,"Delta":73847641},{"NoteNumber":81,"Velocity":36,"Duration":568545,"SoundDuration":568545,"Delta":74424194},{"NoteNumber":84,"Velocity":36,"Duration":568545,"SoundDuration":568545,"Delta":74424194},{"NoteNumber":33,"Velocity":26,"Duration":576553,"SoundDuration":576553,"Delta":74424194},{"NoteNumber":81,"Velocity":37,"Duration":576553,"SoundDuration":576553,"Delta":75000748},{"NoteNumber":78,"Velocity":31,"Duration":576553,"SoundDuration":576553,"Delta":75000748},{"NoteNumber":36,"Velocity":22,"Duration":576553,"SoundDuration":576553,"Delta":75000748},{"NoteNumber":83,"Velocity":35,"Duration":80623,"SoundDuration":80623,"Delta":75577301},{"NoteNumber":79,"Velocity":29,"Duration":80623,"SoundDuration":80623,"Delta":75577301},{"NoteNumber":40,"Velocity":26,"Duration":490092,"SoundDuration":490092,"Delta":75577301},{"NoteNumber":76,"Velocity":26,"Duration":83798,"SoundDuration":83798,"Delta":75738548},{"NoteNumber":79,"Velocity":31,"Duration":83798,"SoundDuration":83798,"Delta":75738548},{"NoteNumber":78,"Velocity":27,"Duration":80623,"SoundDuration":80623,"Delta":75906146},{"NoteNumber":81,"Velocity":35,"Duration":80623,"SoundDuration":80623,"Delta":75906146},{"NoteNumber":78,"Velocity":31,"Duration":82978,"SoundDuration":82978,"Delta":76067393},{"NoteNumber":75,"Velocity":26,"Duration":82978,"SoundDuration":82978,"Delta":76067393},{"NoteNumber":34,"Velocity":21,"Duration":496924,"SoundDuration":496924,"Delta":76067393},{"NoteNumber":76,"Velocity":29,"Duration":81133,"SoundDuration":81133,"Delta":76233350},{"NoteNumber":79,"Velocity":35,"Duration":81133,"SoundDuration":81133,"Delta":76233350},{"NoteNumber":76,"Velocity":32,"Duration":84350,"SoundDuration":84350,"Delta":76395617},{"NoteNumber":73,"Velocity":27,"Duration":84350,"SoundDuration":84350,"Delta":76395617},{"NoteNumber":78,"Velocity":35,"Duration":100240,"SoundDuration":100240,"Delta":76564318},{"NoteNumber":75,"Velocity":29,"Duration":100240,"SoundDuration":100240,"Delta":76564318},{"NoteNumber":35,"Velocity":26,"Duration":585509,"SoundDuration":585509,"Delta":76564318},{"NoteNumber":78,"Velocity":34,"Duration":92273,"SoundDuration":92273,"Delta":76965280},{"NoteNumber":75,"Velocity":29,"Duration":92273,"SoundDuration":92273,"Delta":76965280},{"NoteNumber":71,"Velocity":34,"Duration":721238,"SoundDuration":721238,"Delta":77149827},{"NoteNumber":47,"Velocity":21,"Duration":553640,"SoundDuration":553640,"Delta":77149827},{"NoteNumber":43,"Velocity":26,"Duration":496323,"SoundDuration":496323,"Delta":77703468},{"NoteNumber":70,"Velocity":26,"Duration":82444,"SoundDuration":82444,"Delta":77871066},{"NoteNumber":73,"Velocity":31,"Duration":82444,"SoundDuration":82444,"Delta":77871066},{"NoteNumber":71,"Velocity":27,"Duration":81918,"SoundDuration":81918,"Delta":78035955},{"NoteNumber":75,"Velocity":32,"Duration":81918,"SoundDuration":81918,"Delta":78035955},{"NoteNumber":73,"Velocity":28,"Duration":81918,"SoundDuration":81918,"Delta":78199791},{"NoteNumber":76,"Velocity":33,"Duration":81918,"SoundDuration":81918,"Delta":78199791},{"NoteNumber":40,"Velocity":21,"Duration":483103,"SoundDuration":483103,"Delta":78199791},{"NoteNumber":75,"Velocity":28,"Duration":79817,"SoundDuration":79817,"Delta":78363627},{"NoteNumber":78,"Velocity":33,"Duration":79817,"SoundDuration":79817,"Delta":78363627},{"NoteNumber":76,"Velocity":29,"Duration":79817,"SoundDuration":79817,"Delta":78523261},{"NoteNumber":79,"Velocity":34,"Duration":79817,"SoundDuration":79817,"Delta":78523261},{"NoteNumber":75,"Velocity":29,"Duration":100240,"SoundDuration":100240,"Delta":78682895},{"NoteNumber":78,"Velocity":35,"Duration":100240,"SoundDuration":100240,"Delta":78682895},{"NoteNumber":35,"Velocity":26,"Duration":585509,"SoundDuration":585509,"Delta":78682895},{"NoteNumber":83,"Velocity":34,"Duration":92273,"SoundDuration":92273,"Delta":79083857},{"NoteNumber":71,"Velocity":34,"Duration":721238,"SoundDuration":721238,"Delta":79268404},{"NoteNumber":47,"Velocity":21,"Duration":553640,"SoundDuration":553640,"Delta":79268404},{"NoteNumber":43,"Velocity":26,"Duration":496323,"SoundDuration":496323,"Delta":79822045},{"NoteNumber":70,"Velocity":26,"Duration":82444,"SoundDuration":82444,"Delta":79989643},{"NoteNumber":73,"Velocity":31,"Duration":82444,"SoundDuration":82444,"Delta":79989643},{"NoteNumber":71,"Velocity":27,"Duration":81918,"SoundDuration":81918,"Delta":80154533},{"NoteNumber":75,"Velocity":32,"Duration":81918,"SoundDuration":81918,"Delta":80154533},{"NoteNumber":73,"Velocity":28,"Duration":81918,"SoundDuration":81918,"Delta":80318369},{"NoteNumber":76,"Velocity":33,"Duration":81918,"SoundDuration":81918,"Delta":80318369},{"NoteNumber":40,"Velocity":21,"Duration":483103,"SoundDuration":483103,"Delta":80318369},{"NoteNumber":75,"Velocity":28,"Duration":79817,"SoundDuration":79817,"Delta":80482205},{"NoteNumber":78,"Velocity":33,"Duration":79817,"SoundDuration":79817,"Delta":80482205},{"NoteNumber":79,"Velocity":34,"Duration":79817,"SoundDuration":79817,"Delta":80641839},{"NoteNumber":76,"Velocity":29,"Duration":79817,"SoundDuration":79817,"Delta":80641839},{"NoteNumber":70,"Velocity":29,"Duration":140148,"SoundDuration":140148,"Delta":80761564},{"NoteNumber":73,"Velocity":29,"Duration":120194,"SoundDuration":120194,"Delta":80781518},{"NoteNumber":78,"Velocity":35,"Duration":100240,"SoundDuration":100240,"Delta":80801473},{"NoteNumber":42,"Velocity":26,"Duration":585509,"SoundDuration":585509,"Delta":80801473},{"NoteNumber":85,"Velocity":34,"Duration":92273,"SoundDuration":92273,"Delta":81202435},{"NoteNumber":78,"Velocity":34,"Duration":553640,"SoundDuration":553640,"Delta":81386982},{"NoteNumber":82,"Velocity":34,"Duration":553640,"SoundDuration":553640,"Delta":81386982},{"NoteNumber":90,"Velocity":41,"Duration":553640,"SoundDuration":553640,"Delta":81386982},{"NoteNumber":37,"Velocity":21,"Duration":553640,"SoundDuration":553640,"Delta":81386982},{"NoteNumber":66,"Velocity":30,"Duration":104529,"SoundDuration":104529,"Delta":81940623},{"NoteNumber":70,"Velocity":35,"Duration":104529,"SoundDuration":104529,"Delta":81940623},{"NoteNumber":58,"Velocity":18,"Duration":209058,"SoundDuration":209058,"Delta":81940623},{"NoteNumber":61,"Velocity":23,"Duration":209058,"SoundDuration":209058,"Delta":81940623},{"NoteNumber":54,"Velocity":18,"Duration":209058,"SoundDuration":209058,"Delta":81940623},{"NoteNumber":85,"Velocity":32,"Duration":102739,"SoundDuration":102739,"Delta":82358741},{"NoteNumber":90,"Velocity":38,"Duration":586318,"SoundDuration":586318,"Delta":82564220},{"NoteNumber":82,"Velocity":31,"Duration":586318,"SoundDuration":586318,"Delta":82564220},{"NoteNumber":78,"Velocity":31,"Duration":586318,"SoundDuration":586318,"Delta":82564220},{"NoteNumber":37,"Velocity":19,"Duration":586318,"SoundDuration":586318,"Delta":82564220},{"NoteNumber":66,"Velocity":26,"Duration":122449,"SoundDuration":122449,"Delta":83150539},{"NoteNumber":70,"Velocity":30,"Duration":122449,"SoundDuration":122449,"Delta":83150539},{"NoteNumber":61,"Velocity":20,"Duration":244898,"SoundDuration":244898,"Delta":83150539},{"NoteNumber":54,"Velocity":15,"Duration":244898,"SoundDuration":244898,"Delta":83150539},{"NoteNumber":58,"Velocity":15,"Duration":244898,"SoundDuration":244898,"Delta":83150539},{"NoteNumber":85,"Velocity":28,"Duration":147783,"SoundDuration":147783,"Delta":83640335},{"NoteNumber":78,"Velocity":27,"Duration":2278480,"SoundDuration":2278480,"Delta":83935901},{"NoteNumber":82,"Velocity":27,"Duration":2278480,"SoundDuration":2278480,"Delta":83935901},{"NoteNumber":90,"Velocity":33,"Duration":2278480,"SoundDuration":2278480,"Delta":83935901},{"NoteNumber":37,"Velocity":17,"Duration":2278480,"SoundDuration":2278480,"Delta":83935901},{"NoteNumber":61,"Velocity":62,"Duration":82444,"SoundDuration":82444,"Delta":86467546},{"NoteNumber":73,"Velocity":73,"Duration":82444,"SoundDuration":82444,"Delta":86467546},{"NoteNumber":49,"Velocity":56,"Duration":82444,"SoundDuration":82444,"Delta":86467546},{"NoteNumber":37,"Velocity":47,"Duration":82444,"SoundDuration":82444,"Delta":86467546},{"NoteNumber":63,"Velocity":64,"Duration":81918,"SoundDuration":81918,"Delta":86632436},{"NoteNumber":75,"Velocity":76,"Duration":81918,"SoundDuration":81918,"Delta":86632436},{"NoteNumber":39,"Velocity":48,"Duration":81918,"SoundDuration":81918,"Delta":86632436},{"NoteNumber":51,"Velocity":57,"Duration":81918,"SoundDuration":81918,"Delta":86632436},{"NoteNumber":77,"Velocity":79,"Duration":81918,"SoundDuration":81918,"Delta":86796272},{"NoteNumber":65,"Velocity":67,"Duration":81918,"SoundDuration":81918,"Delta":86796272},{"NoteNumber":41,"Velocity":49,"Duration":81918,"SoundDuration":81918,"Delta":86796272},{"NoteNumber":53,"Velocity":58,"Duration":81918,"SoundDuration":81918,"Delta":86796272},{"NoteNumber":66,"Velocity":69,"Duration":79817,"SoundDuration":79817,"Delta":86960108},{"NoteNumber":78,"Velocity":82,"Duration":79817,"SoundDuration":79817,"Delta":86960108},{"NoteNumber":54,"Velocity":61,"Duration":79817,"SoundDuration":79817,"Delta":86960108},{"NoteNumber":42,"Velocity":51,"Duration":79817,"SoundDuration":79817,"Delta":86960108},{"NoteNumber":80,"Velocity":85,"Duration":79817,"SoundDuration":79817,"Delta":87119742},{"NoteNumber":68,"Velocity":85,"Duration":79817,"SoundDuration":79817,"Delta":87119742},{"NoteNumber":44,"Velocity":53,"Duration":79817,"SoundDuration":79817,"Delta":87119742},{"NoteNumber":56,"Velocity":63,"Duration":79817,"SoundDuration":79817,"Delta":87119742},{"NoteNumber":82,"Velocity":88,"Duration":100240,"SoundDuration":100240,"Delta":87279376},{"NoteNumber":70,"Velocity":74,"Duration":100240,"SoundDuration":100240,"Delta":87279376},{"NoteNumber":73,"Velocity":74,"Duration":100240,"SoundDuration":100240,"Delta":87279376},{"NoteNumber":78,"Velocity":74,"Duration":100240,"SoundDuration":100240,"Delta":87279376},{"NoteNumber":58,"Velocity":65,"Duration":100240,"SoundDuration":100240,"Delta":87279376},{"NoteNumber":46,"Velocity":55,"Duration":100240,"SoundDuration":100240,"Delta":87279376},{"NoteNumber":73,"Velocity":74,"Duration":92273,"SoundDuration":92273,"Delta":87680338},{"NoteNumber":85,"Velocity":88,"Duration":92273,"SoundDuration":92273,"Delta":87680338},{"NoteNumber":37,"Velocity":52,"Duration":92273,"SoundDuration":92273,"Delta":87680338},{"NoteNumber":49,"Velocity":62,"Duration":92273,"SoundDuration":92273,"Delta":87680338},{"NoteNumber":78,"Velocity":80,"Duration":92273,"SoundDuration":92273,"Delta":87864885},{"NoteNumber":90,"Velocity":95,"Duration":92273,"SoundDuration":92273,"Delta":87864885},{"NoteNumber":30,"Velocity":63,"Duration":92273,"SoundDuration":92273,"Delta":87864885},{"NoteNumber":42,"Velocity":75,"Duration":92273,"SoundDuration":92273,"Delta":87864885},{"NoteNumber":59,"Velocity":87,"Duration":206142,"SoundDuration":206142,"Delta":88418526},{"NoteNumber":47,"Velocity":70,"Duration":206142,"SoundDuration":206142,"Delta":88418526},{"NoteNumber":35,"Velocity":58,"Duration":206142,"SoundDuration":206142,"Delta":88418526},{"NoteNumber":85,"Velocity":72,"Duration":569692,"SoundDuration":569692,"Delta":89036955},{"NoteNumber":97,"Velocity":86,"Duration":569692,"SoundDuration":569692,"Delta":89036955},{"NoteNumber":93,"Velocity":72,"Duration":569692,"SoundDuration":569692,"Delta":89036955},{"NoteNumber":59,"Velocity":54,"Duration":1856887,"SoundDuration":1856887,"Delta":89036955},{"NoteNumber":69,"Velocity":54,"Duration":569692,"SoundDuration":569692,"Delta":89036955},{"NoteNumber":73,"Velocity":64,"Duration":569692,"SoundDuration":569692,"Delta":89036955},{"NoteNumber":95,"Velocity":83,"Duration":569692,"SoundDuration":569692,"Delta":89606647},{"NoteNumber":83,"Velocity":71,"Duration":569692,"SoundDuration":569692,"Delta":89606647},{"NoteNumber":92,"Velocity":83,"Duration":569692,"SoundDuration":569692,"Delta":89606647},{"NoteNumber":68,"Velocity":54,"Duration":569692,"SoundDuration":569692,"Delta":89606647},{"NoteNumber":71,"Velocity":64,"Duration":569692,"SoundDuration":569692,"Delta":89606647},{"NoteNumber":92,"Velocity":86,"Duration":569692,"SoundDuration":569692,"Delta":90176340},{"NoteNumber":88,"Velocity":72,"Duration":569692,"SoundDuration":569692,"Delta":90176340},{"NoteNumber":80,"Velocity":72,"Duration":569692,"SoundDuration":569692,"Delta":90176340},{"NoteNumber":64,"Velocity":54,"Duration":569692,"SoundDuration":569692,"Delta":90176340},{"NoteNumber":68,"Velocity":64,"Duration":569692,"SoundDuration":569692,"Delta":90176340},{"NoteNumber":81,"Velocity":64,"Duration":80623,"SoundDuration":80623,"Delta":90746032},{"NoteNumber":90,"Velocity":64,"Duration":80623,"SoundDuration":80623,"Delta":90746032},{"NoteNumber":93,"Velocity":77,"Duration":80623,"SoundDuration":80623,"Delta":90746032},{"NoteNumber":66,"Velocity":51,"Duration":80623,"SoundDuration":80623,"Delta":90746032},{"NoteNumber":69,"Velocity":61,"Duration":80623,"SoundDuration":80623,"Delta":90746032},{"NoteNumber":87,"Velocity":57,"Duration":83798,"SoundDuration":83798,"Delta":90907279},{"NoteNumber":90,"Velocity":68,"Duration":83798,"SoundDuration":83798,"Delta":90907279},{"NoteNumber":78,"Velocity":57,"Duration":83798,"SoundDuration":83798,"Delta":90907279},{"NoteNumber":63,"Velocity":48,"Duration":83798,"SoundDuration":83798,"Delta":90907279},{"NoteNumber":66,"Velocity":57,"Duration":83798,"SoundDuration":83798,"Delta":90907279},{"NoteNumber":80,"Velocity":60,"Duration":80623,"SoundDuration":80623,"Delta":91074877},{"NoteNumber":92,"Velocity":77,"Duration":80623,"SoundDuration":80623,"Delta":91074877},{"NoteNumber":88,"Velocity":59,"Duration":80623,"SoundDuration":80623,"Delta":91074877},{"NoteNumber":64,"Velocity":51,"Duration":80623,"SoundDuration":80623,"Delta":91074877},{"NoteNumber":68,"Velocity":61,"Duration":80623,"SoundDuration":80623,"Delta":91074877},{"NoteNumber":76,"Velocity":58,"Duration":82978,"SoundDuration":82978,"Delta":91236124},{"NoteNumber":85,"Velocity":58,"Duration":82978,"SoundDuration":82978,"Delta":91236124},{"NoteNumber":88,"Velocity":69,"Duration":82978,"SoundDuration":82978,"Delta":91236124},{"NoteNumber":61,"Velocity":46,"Duration":82978,"SoundDuration":82978,"Delta":91236124},{"NoteNumber":64,"Velocity":55,"Duration":82978,"SoundDuration":82978,"Delta":91236124},{"NoteNumber":87,"Velocity":64,"Duration":81133,"SoundDuration":81133,"Delta":91402081},{"NoteNumber":90,"Velocity":77,"Duration":81133,"SoundDuration":81133,"Delta":91402081},{"NoteNumber":78,"Velocity":64,"Duration":81133,"SoundDuration":81133,"Delta":91402081},{"NoteNumber":66,"Velocity":61,"Duration":81133,"SoundDuration":81133,"Delta":91402081},{"NoteNumber":63,"Velocity":51,"Duration":81133,"SoundDuration":81133,"Delta":91402081},{"NoteNumber":75,"Velocity":59,"Duration":84350,"SoundDuration":84350,"Delta":91564348},{"NoteNumber":83,"Velocity":59,"Duration":84350,"SoundDuration":84350,"Delta":91564348},{"NoteNumber":87,"Velocity":70,"Duration":84350,"SoundDuration":84350,"Delta":91564348},{"NoteNumber":63,"Velocity":57,"Duration":84350,"SoundDuration":84350,"Delta":91564348},{"NoteNumber":59,"Velocity":48,"Duration":84350,"SoundDuration":84350,"Delta":91564348},{"NoteNumber":85,"Velocity":64,"Duration":100240,"SoundDuration":100240,"Delta":91733049},{"NoteNumber":88,"Velocity":77,"Duration":100240,"SoundDuration":100240,"Delta":91733049},{"NoteNumber":76,"Velocity":64,"Duration":100240,"SoundDuration":100240,"Delta":91733049},{"NoteNumber":61,"Velocity":51,"Duration":100240,"SoundDuration":100240,"Delta":91733049},{"NoteNumber":64,"Velocity":61,"Duration":100240,"SoundDuration":100240,"Delta":91733049},{"NoteNumber":88,"Velocity":75,"Duration":92273,"SoundDuration":92273,"Delta":92134011},{"NoteNumber":85,"Velocity":63,"Duration":92273,"SoundDuration":92273,"Delta":92134011},{"NoteNumber":76,"Velocity":63,"Duration":92273,"SoundDuration":92273,"Delta":92134011},{"NoteNumber":64,"Velocity":58,"Duration":92273,"SoundDuration":92273,"Delta":92134011},{"NoteNumber":61,"Velocity":48,"Duration":92273,"SoundDuration":92273,"Delta":92134011},{"NoteNumber":73,"Velocity":64,"Duration":553640,"SoundDuration":553640,"Delta":92318558},{"NoteNumber":81,"Velocity":64,"Duration":553640,"SoundDuration":553640,"Delta":92318558},{"NoteNumber":85,"Velocity":77,"Duration":553640,"SoundDuration":553640,"Delta":92318558},{"NoteNumber":61,"Velocity":74,"Duration":553640,"SoundDuration":553640,"Delta":92318558},{"NoteNumber":57,"Velocity":60,"Duration":553640,"SoundDuration":553640,"Delta":92318558},{"NoteNumber":44,"Velocity":40,"Duration":332487,"SoundDuration":332487,"Delta":92872199},{"NoteNumber":56,"Velocity":46,"Duration":332487,"SoundDuration":332487,"Delta":92872199},{"NoteNumber":71,"Velocity":47,"Duration":82444,"SoundDuration":82444,"Delta":93039797},{"NoteNumber":83,"Velocity":56,"Duration":82444,"SoundDuration":82444,"Delta":93039797},{"NoteNumber":75,"Velocity":49,"Duration":81918,"SoundDuration":81918,"Delta":93204686},{"NoteNumber":87,"Velocity":58,"Duration":81918,"SoundDuration":81918,"Delta":93204686},{"NoteNumber":88,"Velocity":60,"Duration":81918,"SoundDuration":81918,"Delta":93368522},{"NoteNumber":76,"Velocity":51,"Duration":81918,"SoundDuration":81918,"Delta":93368522},{"NoteNumber":59,"Velocity":34,"Duration":323470,"SoundDuration":323470,"Delta":93368522},{"NoteNumber":56,"Velocity":34,"Duration":323470,"SoundDuration":323470,"Delta":93368522},{"NoteNumber":64,"Velocity":39,"Duration":323470,"SoundDuration":323470,"Delta":93368522},{"NoteNumber":78,"Velocity":52,"Duration":79817,"SoundDuration":79817,"Delta":93532358},{"NoteNumber":90,"Velocity":62,"Duration":79817,"SoundDuration":79817,"Delta":93532358},{"NoteNumber":92,"Velocity":64,"Duration":79817,"SoundDuration":79817,"Delta":93691992},{"NoteNumber":80,"Velocity":54,"Duration":79817,"SoundDuration":79817,"Delta":93691992},{"NoteNumber":83,"Velocity":60,"Duration":133128,"SoundDuration":133128,"Delta":93811718},{"NoteNumber":88,"Velocity":60,"Duration":113174,"SoundDuration":113174,"Delta":93831672},{"NoteNumber":95,"Velocity":70,"Duration":93219,"SoundDuration":93219,"Delta":93851626},{"NoteNumber":42,"Velocity":40,"Duration":372878,"SoundDuration":372878,"Delta":93851626},{"NoteNumber":54,"Velocity":46,"Duration":372878,"SoundDuration":372878,"Delta":93851626},{"NoteNumber":81,"Velocity":49,"Duration":88074,"SoundDuration":88074,"Delta":94224505},{"NoteNumber":93,"Velocity":58,"Duration":88074,"SoundDuration":88074,"Delta":94224505},{"NoteNumber":88,"Velocity":57,"Duration":528448,"SoundDuration":528448,"Delta":94400655},{"NoteNumber":76,"Velocity":48,"Duration":528448,"SoundDuration":528448,"Delta":94400655},{"NoteNumber":61,"Velocity":34,"Duration":352299,"SoundDuration":352299,"Delta":94400655},{"NoteNumber":64,"Velocity":39,"Duration":352299,"SoundDuration":352299,"Delta":94400655},{"NoteNumber":54,"Velocity":34,"Duration":352299,"SoundDuration":352299,"Delta":94400655},{"NoteNumber":57,"Velocity":34,"Duration":352299,"SoundDuration":352299,"Delta":94400655},{"NoteNumber":52,"Velocity":46,"Duration":332487,"SoundDuration":332487,"Delta":94929103},{"NoteNumber":40,"Velocity":40,"Duration":332487,"SoundDuration":332487,"Delta":94929103},{"NoteNumber":85,"Velocity":58,"Duration":82444,"SoundDuration":82444,"Delta":95096701},{"NoteNumber":73,"Velocity":48,"Duration":82444,"SoundDuration":82444,"Delta":95096701},{"NoteNumber":75,"Velocity":53,"Duration":81918,"SoundDuration":81918,"Delta":95261591},{"NoteNumber":87,"Velocity":63,"Duration":81918,"SoundDuration":81918,"Delta":95261591},{"NoteNumber":76,"Velocity":57,"Duration":81918,"SoundDuration":81918,"Delta":95425427},{"NoteNumber":88,"Velocity":67,"Duration":81918,"SoundDuration":81918,"Delta":95425427},{"NoteNumber":64,"Velocity":44,"Duration":323470,"SoundDuration":323470,"Delta":95425427},{"NoteNumber":56,"Velocity":38,"Duration":323470,"SoundDuration":323470,"Delta":95425427},{"NoteNumber":52,"Velocity":38,"Duration":323470,"SoundDuration":323470,"Delta":95425427},{"NoteNumber":61,"Velocity":38,"Duration":323470,"SoundDuration":323470,"Delta":95425427},{"NoteNumber":90,"Velocity":73,"Duration":79817,"SoundDuration":79817,"Delta":95589263},{"NoteNumber":78,"Velocity":61,"Duration":79817,"SoundDuration":79817,"Delta":95589263},{"NoteNumber":80,"Velocity":65,"Duration":79817,"SoundDuration":79817,"Delta":95748897},{"NoteNumber":92,"Velocity":78,"Duration":79817,"SoundDuration":79817,"Delta":95748897},{"NoteNumber":83,"Velocity":75,"Duration":132787,"SoundDuration":132787,"Delta":95868622},{"NoteNumber":87,"Velocity":75,"Duration":112833,"SoundDuration":112833,"Delta":95888577},{"NoteNumber":95,"Velocity":87,"Duration":92879,"SoundDuration":92879,"Delta":95908531},{"NoteNumber":47,"Velocity":57,"Duration":371516,"SoundDuration":371516,"Delta":95908531},{"NoteNumber":35,"Velocity":50,"Duration":371516,"SoundDuration":371516,"Delta":95908531},{"NoteNumber":93,"Velocity":69,"Duration":86286,"SoundDuration":86286,"Delta":96280048},{"NoteNumber":81,"Velocity":58,"Duration":86286,"SoundDuration":86286,"Delta":96280048},{"NoteNumber":75,"Velocity":56,"Duration":517717,"SoundDuration":517717,"Delta":96452620},{"NoteNumber":87,"Velocity":67,"Duration":517717,"SoundDuration":517717,"Delta":96452620},{"NoteNumber":57,"Velocity":40,"Duration":345145,"SoundDuration":345145,"Delta":96452620},{"NoteNumber":54,"Velocity":40,"Duration":345145,"SoundDuration":345145,"Delta":96452620},{"NoteNumber":59,"Velocity":40,"Duration":345145,"SoundDuration":345145,"Delta":96452620},{"NoteNumber":63,"Velocity":46,"Duration":345145,"SoundDuration":345145,"Delta":96452620},{"NoteNumber":52,"Velocity":91,"Duration":202020,"SoundDuration":202020,"Delta":96970338},{"NoteNumber":40,"Velocity":73,"Duration":202020,"SoundDuration":202020,"Delta":96970338},{"NoteNumber":28,"Velocity":61,"Duration":202020,"SoundDuration":202020,"Delta":96970338},{"NoteNumber":89,"Velocity":78,"Duration":192307,"SoundDuration":192307,"Delta":97374378},{"NoteNumber":77,"Velocity":64,"Duration":192307,"SoundDuration":192307,"Delta":97374378},{"NoteNumber":86,"Velocity":64,"Duration":192307,"SoundDuration":192307,"Delta":97374378},{"NoteNumber":88,"Velocity":75,"Duration":384614,"SoundDuration":384614,"Delta":97566685},{"NoteNumber":76,"Velocity":75,"Duration":384614,"SoundDuration":384614,"Delta":97566685},{"NoteNumber":84,"Velocity":75,"Duration":384614,"SoundDuration":384614,"Delta":97566685},{"NoteNumber":52,"Velocity":58,"Duration":1563938,"SoundDuration":1563938,"Delta":97566685},{"NoteNumber":81,"Velocity":64,"Duration":192307,"SoundDuration":192307,"Delta":97951300},{"NoteNumber":72,"Velocity":64,"Duration":192307,"SoundDuration":192307,"Delta":97951300},{"NoteNumber":84,"Velocity":78,"Duration":192307,"SoundDuration":192307,"Delta":97951300},{"NoteNumber":65,"Velocity":58,"Duration":192307,"SoundDuration":192307,"Delta":97951300},{"NoteNumber":83,"Velocity":59,"Duration":80623,"SoundDuration":80623,"Delta":98143608},{"NoteNumber":74,"Velocity":59,"Duration":80623,"SoundDuration":80623,"Delta":98143608},{"NoteNumber":86,"Velocity":70,"Duration":80623,"SoundDuration":80623,"Delta":98143608},{"NoteNumber":64,"Velocity":62,"Duration":328845,"SoundDuration":328845,"Delta":98143608},{"NoteNumber":83,"Velocity":62,"Duration":83798,"SoundDuration":83798,"Delta":98304855},{"NoteNumber":71,"Velocity":52,"Duration":83798,"SoundDuration":83798,"Delta":98304855},{"NoteNumber":80,"Velocity":52,"Duration":83798,"SoundDuration":83798,"Delta":98304855},{"NoteNumber":72,"Velocity":55,"Duration":80623,"SoundDuration":80623,"Delta":98472453},{"NoteNumber":81,"Velocity":54,"Duration":80623,"SoundDuration":80623,"Delta":98472453},{"NoteNumber":84,"Velocity":70,"Duration":80623,"SoundDuration":80623,"Delta":98472453},{"NoteNumber":60,"Velocity":58,"Duration":161247,"SoundDuration":161247,"Delta":98472453},{"NoteNumber":78,"Velocity":53,"Duration":82978,"SoundDuration":82978,"Delta":98633700},{"NoteNumber":69,"Velocity":53,"Duration":82978,"SoundDuration":82978,"Delta":98633700},{"NoteNumber":81,"Velocity":63,"Duration":82978,"SoundDuration":82978,"Delta":98633700},{"NoteNumber":62,"Velocity":63,"Duration":328223,"SoundDuration":328223,"Delta":98633700},{"NoteNumber":71,"Velocity":59,"Duration":81133,"SoundDuration":81133,"Delta":98799656},{"NoteNumber":83,"Velocity":70,"Duration":81133,"SoundDuration":81133,"Delta":98799656},{"NoteNumber":80,"Velocity":59,"Duration":81133,"SoundDuration":81133,"Delta":98799656},{"NoteNumber":68,"Velocity":54,"Duration":84350,"SoundDuration":84350,"Delta":98961924},{"NoteNumber":76,"Velocity":54,"Duration":84350,"SoundDuration":84350,"Delta":98961924},{"NoteNumber":80,"Velocity":64,"Duration":84350,"SoundDuration":84350,"Delta":98961924},{"NoteNumber":59,"Velocity":58,"Duration":168700,"SoundDuration":168700,"Delta":98961924},{"NoteNumber":82,"Velocity":70,"Duration":100240,"SoundDuration":100240,"Delta":99130624},{"NoteNumber":70,"Velocity":59,"Duration":100240,"SoundDuration":100240,"Delta":99130624},{"NoteNumber":76,"Velocity":59,"Duration":100240,"SoundDuration":100240,"Delta":99130624},{"NoteNumber":61,"Velocity":67,"Duration":200480,"SoundDuration":200480,"Delta":99130624},{"NoteNumber":52,"Velocity":67,"Duration":200480,"SoundDuration":200480,"Delta":99130624},{"NoteNumber":79,"Velocity":64,"Duration":192307,"SoundDuration":192307,"Delta":99531586},{"NoteNumber":88,"Velocity":64,"Duration":192307,"SoundDuration":192307,"Delta":99531586},{"NoteNumber":91,"Velocity":78,"Duration":192307,"SoundDuration":192307,"Delta":99531586},{"NoteNumber":78,"Velocity":75,"Duration":384614,"SoundDuration":384614,"Delta":99723894},{"NoteNumber":90,"Velocity":75,"Duration":384614,"SoundDuration":384614,"Delta":99723894},{"NoteNumber":87,"Velocity":75,"Duration":384614,"SoundDuration":384614,"Delta":99723894},{"NoteNumber":40,"Velocity":73,"Duration":192307,"SoundDuration":192307,"Delta":99723894},{"NoteNumber":28,"Velocity":61,"Duration":192307,"SoundDuration":192307,"Delta":99723894},{"NoteNumber":83,"Velocity":64,"Duration":192307,"SoundDuration":192307,"Delta":100108509},{"NoteNumber":75,"Velocity":64,"Duration":192307,"SoundDuration":192307,"Delta":100108509},{"NoteNumber":87,"Velocity":78,"Duration":192307,"SoundDuration":192307,"Delta":100108509},{"NoteNumber":67,"Velocity":58,"Duration":192307,"SoundDuration":192307,"Delta":100108509},{"NoteNumber":88,"Velocity":70,"Duration":80623,"SoundDuration":80623,"Delta":100300816},{"NoteNumber":85,"Velocity":59,"Duration":80623,"SoundDuration":80623,"Delta":100300816},{"NoteNumber":76,"Velocity":59,"Duration":80623,"SoundDuration":80623,"Delta":100300816},{"NoteNumber":52,"Velocity":58,"Duration":987016,"SoundDuration":987016,"Delta":100300816},{"NoteNumber":66,"Velocity":62,"Duration":328845,"SoundDuration":328845,"Delta":100300816},{"NoteNumber":73,"Velocity":52,"Duration":83798,"SoundDuration":83798,"Delta":100462063},{"NoteNumber":82,"Velocity":52,"Duration":83798,"SoundDuration":83798,"Delta":100462063},{"NoteNumber":85,"Velocity":62,"Duration":83798,"SoundDuration":83798,"Delta":100462063},{"NoteNumber":83,"Velocity":54,"Duration":80623,"SoundDuration":80623,"Delta":100629661},{"NoteNumber":75,"Velocity":55,"Duration":80623,"SoundDuration":80623,"Delta":100629661},{"NoteNumber":87,"Velocity":70,"Duration":80623,"SoundDuration":80623,"Delta":100629661},{"NoteNumber":63,"Velocity":58,"Duration":161247,"SoundDuration":161247,"Delta":100629661},{"NoteNumber":80,"Velocity":53,"Duration":82978,"SoundDuration":82978,"Delta":100790908},{"NoteNumber":83,"Velocity":63,"Duration":82978,"SoundDuration":82978,"Delta":100790908},{"NoteNumber":71,"Velocity":53,"Duration":82978,"SoundDuration":82978,"Delta":100790908},{"NoteNumber":64,"Velocity":63,"Duration":328223,"SoundDuration":328223,"Delta":100790908},{"NoteNumber":72,"Velocity":59,"Duration":81133,"SoundDuration":81133,"Delta":100956865},{"NoteNumber":84,"Velocity":70,"Duration":81133,"SoundDuration":81133,"Delta":100956865},{"NoteNumber":81,"Velocity":59,"Duration":81133,"SoundDuration":81133,"Delta":100956865},{"NoteNumber":69,"Velocity":54,"Duration":84350,"SoundDuration":84350,"Delta":101119132},{"NoteNumber":81,"Velocity":64,"Duration":84350,"SoundDuration":84350,"Delta":101119132},{"NoteNumber":78,"Velocity":54,"Duration":84350,"SoundDuration":84350,"Delta":101119132},{"NoteNumber":61,"Velocity":58,"Duration":168700,"SoundDuration":168700,"Delta":101119132},{"NoteNumber":83,"Velocity":70,"Duration":100240,"SoundDuration":100240,"Delta":101287833},{"NoteNumber":71,"Velocity":59,"Duration":100240,"SoundDuration":100240,"Delta":101287833},{"NoteNumber":78,"Velocity":59,"Duration":100240,"SoundDuration":100240,"Delta":101287833},{"NoteNumber":52,"Velocity":67,"Duration":200480,"SoundDuration":200480,"Delta":101287833},{"NoteNumber":63,"Velocity":67,"Duration":200480,"SoundDuration":200480,"Delta":101287833},{"NoteNumber":84,"Velocity":64,"Duration":192307,"SoundDuration":192307,"Delta":101688795},{"NoteNumber":96,"Velocity":78,"Duration":192307,"SoundDuration":192307,"Delta":101688795},{"NoteNumber":93,"Velocity":64,"Duration":192307,"SoundDuration":192307,"Delta":101688795},{"NoteNumber":95,"Velocity":75,"Duration":384614,"SoundDuration":384614,"Delta":101881102},{"NoteNumber":83,"Velocity":75,"Duration":384614,"SoundDuration":384614,"Delta":101881102},{"NoteNumber":91,"Velocity":75,"Duration":384614,"SoundDuration":384614,"Delta":101881102},{"NoteNumber":40,"Velocity":73,"Duration":192307,"SoundDuration":192307,"Delta":101881102},{"NoteNumber":28,"Velocity":61,"Duration":192307,"SoundDuration":192307,"Delta":101881102},{"NoteNumber":91,"Velocity":78,"Duration":192307,"SoundDuration":192307,"Delta":102265717},{"NoteNumber":79,"Velocity":64,"Duration":192307,"SoundDuration":192307,"Delta":102265717},{"NoteNumber":88,"Velocity":64,"Duration":192307,"SoundDuration":192307,"Delta":102265717},{"NoteNumber":60,"Velocity":49,"Duration":192307,"SoundDuration":192307,"Delta":102265717},{"NoteNumber":72,"Velocity":58,"Duration":192307,"SoundDuration":192307,"Delta":102265717},{"NoteNumber":93,"Velocity":70,"Duration":80623,"SoundDuration":80623,"Delta":102458025},{"NoteNumber":90,"Velocity":59,"Duration":80623,"SoundDuration":80623,"Delta":102458025},{"NoteNumber":81,"Velocity":59,"Duration":80623,"SoundDuration":80623,"Delta":102458025},{"NoteNumber":71,"Velocity":62,"Duration":328845,"SoundDuration":328845,"Delta":102458025},{"NoteNumber":59,"Velocity":52,"Duration":328845,"SoundDuration":328845,"Delta":102458025},{"NoteNumber":87,"Velocity":52,"Duration":83798,"SoundDuration":83798,"Delta":102619272},{"NoteNumber":90,"Velocity":62,"Duration":83798,"SoundDuration":83798,"Delta":102619272},{"NoteNumber":78,"Velocity":52,"Duration":83798,"SoundDuration":83798,"Delta":102619272},{"NoteNumber":79,"Velocity":55,"Duration":80623,"SoundDuration":80623,"Delta":102786870},{"NoteNumber":91,"Velocity":70,"Duration":80623,"SoundDuration":80623,"Delta":102786870},{"NoteNumber":88,"Velocity":55,"Duration":80623,"SoundDuration":80623,"Delta":102786870},{"NoteNumber":55,"Velocity":49,"Duration":80623,"SoundDuration":80623,"Delta":102786870},{"NoteNumber":67,"Velocity":58,"Duration":80623,"SoundDuration":80623,"Delta":102786870},{"NoteNumber":76,"Velocity":53,"Duration":82978,"SoundDuration":82978,"Delta":102948117},{"NoteNumber":84,"Velocity":53,"Duration":82978,"SoundDuration":82978,"Delta":102948117},{"NoteNumber":88,"Velocity":63,"Duration":82978,"SoundDuration":82978,"Delta":102948117},{"NoteNumber":57,"Velocity":39,"Duration":82978,"SoundDuration":82978,"Delta":102948117},{"NoteNumber":69,"Velocity":47,"Duration":82978,"SoundDuration":82978,"Delta":102948117},{"NoteNumber":78,"Velocity":59,"Duration":81133,"SoundDuration":81133,"Delta":103114073},{"NoteNumber":86,"Velocity":59,"Duration":81133,"SoundDuration":81133,"Delta":103114073},{"NoteNumber":90,"Velocity":70,"Duration":81133,"SoundDuration":81133,"Delta":103114073},{"NoteNumber":66,"Velocity":53,"Duration":81133,"SoundDuration":81133,"Delta":103114073},{"NoteNumber":54,"Velocity":45,"Duration":81133,"SoundDuration":81133,"Delta":103114073},{"NoteNumber":74,"Velocity":54,"Duration":83333,"SoundDuration":83333,"Delta":103276341},{"NoteNumber":83,"Velocity":54,"Duration":83333,"SoundDuration":83333,"Delta":103276341},{"NoteNumber":86,"Velocity":64,"Duration":83333,"SoundDuration":83333,"Delta":103276341},{"NoteNumber":55,"Velocity":40,"Duration":83333,"SoundDuration":83333,"Delta":103276341},{"NoteNumber":67,"Velocity":48,"Duration":83333,"SoundDuration":83333,"Delta":103276341},{"NoteNumber":76,"Velocity":59,"Duration":80428,"SoundDuration":80428,"Delta":103443007},{"NoteNumber":88,"Velocity":70,"Duration":80428,"SoundDuration":80428,"Delta":103443007},{"NoteNumber":84,"Velocity":59,"Duration":80428,"SoundDuration":80428,"Delta":103443007},{"NoteNumber":52,"Velocity":67,"Duration":80428,"SoundDuration":80428,"Delta":103443007},{"NoteNumber":64,"Velocity":67,"Duration":80428,"SoundDuration":80428,"Delta":103443007},{"NoteNumber":84,"Velocity":62,"Duration":82873,"SoundDuration":82873,"Delta":103603865},{"NoteNumber":81,"Velocity":52,"Duration":82873,"SoundDuration":82873,"Delta":103603865},{"NoteNumber":72,"Velocity":52,"Duration":82873,"SoundDuration":82873,"Delta":103603865},{"NoteNumber":66,"Velocity":48,"Duration":82873,"SoundDuration":82873,"Delta":103603865},{"NoteNumber":54,"Velocity":40,"Duration":82873,"SoundDuration":82873,"Delta":103603865},{"NoteNumber":83,"Velocity":55,"Duration":80623,"SoundDuration":80623,"Delta":103769611},{"NoteNumber":86,"Velocity":70,"Duration":80623,"SoundDuration":80623,"Delta":103769611},{"NoteNumber":74,"Velocity":55,"Duration":80623,"SoundDuration":80623,"Delta":103769611},{"NoteNumber":50,"Velocity":49,"Duration":80623,"SoundDuration":80623,"Delta":103769611},{"NoteNumber":62,"Velocity":58,"Duration":80623,"SoundDuration":80623,"Delta":103769611},{"NoteNumber":79,"Velocity":53,"Duration":82978,"SoundDuration":82978,"Delta":103930858},{"NoteNumber":71,"Velocity":53,"Duration":82978,"SoundDuration":82978,"Delta":103930858},{"NoteNumber":83,"Velocity":63,"Duration":82978,"SoundDuration":82978,"Delta":103930858},{"NoteNumber":64,"Velocity":47,"Duration":82978,"SoundDuration":82978,"Delta":103930858},{"NoteNumber":52,"Velocity":39,"Duration":82978,"SoundDuration":82978,"Delta":103930858},{"NoteNumber":72,"Velocity":59,"Duration":81133,"SoundDuration":81133,"Delta":104096815},{"NoteNumber":84,"Velocity":70,"Duration":81133,"SoundDuration":81133,"Delta":104096815},{"NoteNumber":81,"Velocity":59,"Duration":81133,"SoundDuration":81133,"Delta":104096815},{"NoteNumber":48,"Velocity":45,"Duration":81133,"SoundDuration":81133,"Delta":104096815},{"NoteNumber":60,"Velocity":53,"Duration":81133,"SoundDuration":81133,"Delta":104096815},{"NoteNumber":78,"Velocity":54,"Duration":83333,"SoundDuration":83333,"Delta":104259082},{"NoteNumber":81,"Velocity":64,"Duration":83333,"SoundDuration":83333,"Delta":104259082},{"NoteNumber":69,"Velocity":54,"Duration":83333,"SoundDuration":83333,"Delta":104259082},{"NoteNumber":50,"Velocity":40,"Duration":83333,"SoundDuration":83333,"Delta":104259082},{"NoteNumber":62,"Velocity":48,"Duration":83333,"SoundDuration":83333,"Delta":104259082},{"NoteNumber":83,"Velocity":70,"Duration":81080,"SoundDuration":81080,"Delta":104425749},{"NoteNumber":79,"Velocity":59,"Duration":81080,"SoundDuration":81080,"Delta":104425749},{"NoteNumber":71,"Velocity":59,"Duration":81080,"SoundDuration":81080,"Delta":104425749},{"NoteNumber":47,"Velocity":67,"Duration":81080,"SoundDuration":81080,"Delta":104425749},{"NoteNumber":59,"Velocity":67,"Duration":81080,"SoundDuration":81080,"Delta":104425749},{"NoteNumber":67,"Velocity":53,"Duration":83798,"SoundDuration":83798,"Delta":104587911},{"NoteNumber":79,"Velocity":63,"Duration":83798,"SoundDuration":83798,"Delta":104587911},{"NoteNumber":76,"Velocity":53,"Duration":83798,"SoundDuration":83798,"Delta":104587911},{"NoteNumber":48,"Velocity":40,"Duration":83798,"SoundDuration":83798,"Delta":104587911},{"NoteNumber":60,"Velocity":48,"Duration":83798,"SoundDuration":83798,"Delta":104587911},{"NoteNumber":69,"Velocity":57,"Duration":80623,"SoundDuration":80623,"Delta":104755509},{"NoteNumber":78,"Velocity":57,"Duration":80623,"SoundDuration":80623,"Delta":104755509},{"NoteNumber":81,"Velocity":73,"Duration":80623,"SoundDuration":80623,"Delta":104755509},{"NoteNumber":45,"Velocity":51,"Duration":80623,"SoundDuration":80623,"Delta":104755509},{"NoteNumber":57,"Velocity":60,"Duration":80623,"SoundDuration":80623,"Delta":104755509},{"NoteNumber":78,"Velocity":68,"Duration":82978,"SoundDuration":82978,"Delta":104916756},{"NoteNumber":66,"Velocity":57,"Duration":82978,"SoundDuration":82978,"Delta":104916756},{"NoteNumber":75,"Velocity":57,"Duration":82978,"SoundDuration":82978,"Delta":104916756},{"NoteNumber":47,"Velocity":42,"Duration":82978,"SoundDuration":82978,"Delta":104916756},{"NoteNumber":59,"Velocity":50,"Duration":82978,"SoundDuration":82978,"Delta":104916756},{"NoteNumber":76,"Velocity":65,"Duration":81133,"SoundDuration":81133,"Delta":105082712},{"NoteNumber":79,"Velocity":77,"Duration":81133,"SoundDuration":81133,"Delta":105082712},{"NoteNumber":67,"Velocity":65,"Duration":81133,"SoundDuration":81133,"Delta":105082712},{"NoteNumber":43,"Velocity":49,"Duration":81133,"SoundDuration":81133,"Delta":105082712},{"NoteNumber":55,"Velocity":58,"Duration":81133,"SoundDuration":81133,"Delta":105082712},{"NoteNumber":76,"Velocity":72,"Duration":84350,"SoundDuration":84350,"Delta":105244980},{"NoteNumber":72,"Velocity":61,"Duration":84350,"SoundDuration":84350,"Delta":105244980},{"NoteNumber":64,"Velocity":61,"Duration":84350,"SoundDuration":84350,"Delta":105244980},{"NoteNumber":57,"Velocity":54,"Duration":84350,"SoundDuration":84350,"Delta":105244980},{"NoteNumber":45,"Velocity":45,"Duration":84350,"SoundDuration":84350,"Delta":105244980},{"NoteNumber":35,"Velocity":62,"Duration":42175,"SoundDuration":42175,"Delta":105329330},{"NoteNumber":47,"Velocity":63,"Duration":42175,"SoundDuration":42175,"Delta":105371505},{"NoteNumber":92,"Velocity":90,"Duration":392211,"SoundDuration":392211,"Delta":105413680},{"NoteNumber":88,"Velocity":76,"Duration":392211,"SoundDuration":392211,"Delta":105413680},{"NoteNumber":80,"Velocity":76,"Duration":392211,"SoundDuration":392211,"Delta":105413680},{"NoteNumber":71,"Velocity":70,"Duration":392211,"SoundDuration":392211,"Delta":105413680},{"NoteNumber":64,"Velocity":59,"Duration":392211,"SoundDuration":392211,"Delta":105413680},{"NoteNumber":59,"Velocity":59,"Duration":392211,"SoundDuration":392211,"Delta":105413680},{"NoteNumber":68,"Velocity":70,"Duration":392211,"SoundDuration":392211,"Delta":105413680},{"NoteNumber":79,"Velocity":76,"Duration":392211,"SoundDuration":392211,"Delta":105826534},{"NoteNumber":88,"Velocity":76,"Duration":392211,"SoundDuration":392211,"Delta":105826534},{"NoteNumber":91,"Velocity":90,"Duration":392211,"SoundDuration":392211,"Delta":105826534},{"NoteNumber":64,"Velocity":59,"Duration":392211,"SoundDuration":392211,"Delta":105826534},{"NoteNumber":59,"Velocity":59,"Duration":392211,"SoundDuration":392211,"Delta":105826534},{"NoteNumber":71,"Velocity":70,"Duration":392211,"SoundDuration":392211,"Delta":105826534},{"NoteNumber":67,"Velocity":59,"Duration":392211,"SoundDuration":392211,"Delta":105826534},{"NoteNumber":87,"Velocity":76,"Duration":392211,"SoundDuration":392211,"Delta":106239388},{"NoteNumber":90,"Velocity":90,"Duration":392211,"SoundDuration":392211,"Delta":106239388},{"NoteNumber":78,"Velocity":76,"Duration":392211,"SoundDuration":392211,"Delta":106239388},{"NoteNumber":71,"Velocity":70,"Duration":392211,"SoundDuration":392211,"Delta":106239388},{"NoteNumber":66,"Velocity":59,"Duration":392211,"SoundDuration":392211,"Delta":106239388},{"NoteNumber":59,"Velocity":59,"Duration":392211,"SoundDuration":392211,"Delta":106239388},{"NoteNumber":63,"Velocity":59,"Duration":392211,"SoundDuration":392211,"Delta":106239388},{"NoteNumber":77,"Velocity":76,"Duration":392211,"SoundDuration":392211,"Delta":106652242},{"NoteNumber":89,"Velocity":90,"Duration":392211,"SoundDuration":392211,"Delta":106652242},{"NoteNumber":86,"Velocity":76,"Duration":392211,"SoundDuration":392211,"Delta":106652242},{"NoteNumber":62,"Velocity":59,"Duration":392211,"SoundDuration":392211,"Delta":106652242},{"NoteNumber":65,"Velocity":70,"Duration":392211,"SoundDuration":392211,"Delta":106652242},{"NoteNumber":59,"Velocity":59,"Duration":392211,"SoundDuration":392211,"Delta":106652242},{"NoteNumber":71,"Velocity":70,"Duration":392211,"SoundDuration":392211,"Delta":106652242},{"NoteNumber":85,"Velocity":75,"Duration":392211,"SoundDuration":392211,"Delta":107065096},{"NoteNumber":88,"Velocity":89,"Duration":392211,"SoundDuration":392211,"Delta":107065096},{"NoteNumber":76,"Velocity":75,"Duration":392211,"SoundDuration":392211,"Delta":107065096},{"NoteNumber":61,"Velocity":58,"Duration":392211,"SoundDuration":392211,"Delta":107065096},{"NoteNumber":64,"Velocity":58,"Duration":392211,"SoundDuration":392211,"Delta":107065096},{"NoteNumber":59,"Velocity":58,"Duration":392211,"SoundDuration":392211,"Delta":107065096},{"NoteNumber":71,"Velocity":69,"Duration":392211,"SoundDuration":392211,"Delta":107065096},{"NoteNumber":87,"Velocity":87,"Duration":392211,"SoundDuration":392211,"Delta":107477950},{"NoteNumber":75,"Velocity":73,"Duration":392211,"SoundDuration":392211,"Delta":107477950},{"NoteNumber":84,"Velocity":73,"Duration":392211,"SoundDuration":392211,"Delta":107477950},{"NoteNumber":59,"Velocity":57,"Duration":392211,"SoundDuration":392211,"Delta":107477950},{"NoteNumber":63,"Velocity":57,"Duration":392211,"SoundDuration":392211,"Delta":107477950},{"NoteNumber":60,"Velocity":57,"Duration":392211,"SoundDuration":392211,"Delta":107477950},{"NoteNumber":71,"Velocity":67,"Duration":392211,"SoundDuration":392211,"Delta":107477950},{"NoteNumber":86,"Velocity":85,"Duration":406185,"SoundDuration":406185,"Delta":107890804},{"NoteNumber":74,"Velocity":72,"Duration":406185,"SoundDuration":406185,"Delta":107890804},{"NoteNumber":83,"Velocity":72,"Duration":406185,"SoundDuration":406185,"Delta":107890804},{"NoteNumber":62,"Velocity":56,"Duration":406185,"SoundDuration":406185,"Delta":107890804},{"NoteNumber":71,"Velocity":66,"Duration":406185,"SoundDuration":406185,"Delta":107890804},{"NoteNumber":59,"Velocity":56,"Duration":406185,"SoundDuration":406185,"Delta":107890804},{"NoteNumber":73,"Velocity":71,"Duration":406185,"SoundDuration":406185,"Delta":108318368},{"NoteNumber":85,"Velocity":84,"Duration":406185,"SoundDuration":406185,"Delta":108318368},{"NoteNumber":82,"Velocity":71,"Duration":406185,"SoundDuration":406185,"Delta":108318368},{"NoteNumber":61,"Velocity":55,"Duration":406185,"SoundDuration":406185,"Delta":108318368},{"NoteNumber":71,"Velocity":65,"Duration":406185,"SoundDuration":406185,"Delta":108318368},{"NoteNumber":58,"Velocity":55,"Duration":406185,"SoundDuration":406185,"Delta":108318368},{"NoteNumber":84,"Velocity":82,"Duration":406185,"SoundDuration":406185,"Delta":108745932},{"NoteNumber":81,"Velocity":69,"Duration":406185,"SoundDuration":406185,"Delta":108745932},{"NoteNumber":72,"Velocity":69,"Duration":406185,"SoundDuration":406185,"Delta":108745932},{"NoteNumber":71,"Velocity":64,"Duration":406185,"SoundDuration":406185,"Delta":108745932},{"NoteNumber":57,"Velocity":54,"Duration":406185,"SoundDuration":406185,"Delta":108745932},{"NoteNumber":60,"Velocity":54,"Duration":406185,"SoundDuration":406185,"Delta":108745932},{"NoteNumber":71,"Velocity":68,"Duration":429119,"SoundDuration":429119,"Delta":109173496},{"NoteNumber":80,"Velocity":68,"Duration":429119,"SoundDuration":429119,"Delta":109173496},{"NoteNumber":83,"Velocity":81,"Duration":429119,"SoundDuration":429119,"Delta":109173496},{"NoteNumber":56,"Velocity":53,"Duration":429119,"SoundDuration":429119,"Delta":109173496},{"NoteNumber":68,"Velocity":63,"Duration":429119,"SoundDuration":429119,"Delta":109173496},{"NoteNumber":59,"Velocity":53,"Duration":429119,"SoundDuration":429119,"Delta":109173496},{"NoteNumber":79,"Velocity":67,"Duration":372466,"SoundDuration":372466,"Delta":109625201},{"NoteNumber":83,"Velocity":80,"Duration":372466,"SoundDuration":372466,"Delta":109625201},{"NoteNumber":71,"Velocity":67,"Duration":372466,"SoundDuration":372466,"Delta":109625201},{"NoteNumber":55,"Velocity":52,"Duration":372466,"SoundDuration":372466,"Delta":109625201},{"NoteNumber":59,"Velocity":52,"Duration":372466,"SoundDuration":372466,"Delta":109625201},{"NoteNumber":67,"Velocity":62,"Duration":372466,"SoundDuration":372466,"Delta":109625201},{"NoteNumber":47,"Velocity":51,"Duration":579478,"SoundDuration":579478,"Delta":110022091},{"NoteNumber":54,"Velocity":51,"Duration":548948,"SoundDuration":548948,"Delta":110052621},{"NoteNumber":57,"Velocity":51,"Duration":518418,"SoundDuration":518418,"Delta":110083151},{"NoteNumber":83,"Velocity":78,"Duration":487888,"SoundDuration":487888,"Delta":110113681},{"NoteNumber":75,"Velocity":66,"Duration":487888,"SoundDuration":487888,"Delta":110113681},{"NoteNumber":71,"Velocity":66,"Duration":487888,"SoundDuration":487888,"Delta":110113681},{"NoteNumber":78,"Velocity":66,"Duration":487888,"SoundDuration":487888,"Delta":110113681},{"NoteNumber":66,"Velocity":60,"Duration":487888,"SoundDuration":487888,"Delta":110113681},{"NoteNumber":64,"Velocity":59,"Duration":80645,"SoundDuration":80645,"Delta":110627248},{"NoteNumber":76,"Velocity":70,"Duration":80645,"SoundDuration":80645,"Delta":110627248},{"NoteNumber":52,"Velocity":67,"Duration":80645,"SoundDuration":80645,"Delta":110627248},{"NoteNumber":40,"Velocity":67,"Duration":80645,"SoundDuration":80645,"Delta":110627248},{"NoteNumber":74,"Velocity":62,"Duration":86291,"SoundDuration":86291,"Delta":110788539},{"NoteNumber":71,"Velocity":52,"Duration":86291,"SoundDuration":86291,"Delta":110788539},{"NoteNumber":50,"Velocity":48,"Duration":86291,"SoundDuration":86291,"Delta":110788539},{"NoteNumber":47,"Velocity":40,"Duration":86291,"SoundDuration":86291,"Delta":110788539},{"NoteNumber":76,"Velocity":70,"Duration":81521,"SoundDuration":81521,"Delta":110961121},{"NoteNumber":64,"Velocity":55,"Duration":81521,"SoundDuration":81521,"Delta":110961121},{"NoteNumber":52,"Velocity":58,"Duration":81521,"SoundDuration":81521,"Delta":110961121},{"NoteNumber":40,"Velocity":49,"Duration":81521,"SoundDuration":81521,"Delta":110961121},{"NoteNumber":69,"Velocity":53,"Duration":86291,"SoundDuration":86291,"Delta":111124165},{"NoteNumber":72,"Velocity":63,"Duration":86291,"SoundDuration":86291,"Delta":111124165},{"NoteNumber":45,"Velocity":39,"Duration":86291,"SoundDuration":86291,"Delta":111124165},{"NoteNumber":48,"Velocity":47,"Duration":86291,"SoundDuration":86291,"Delta":111124165},{"NoteNumber":76,"Velocity":70,"Duration":82191,"SoundDuration":82191,"Delta":111296747},{"NoteNumber":64,"Velocity":59,"Duration":82191,"SoundDuration":82191,"Delta":111296747},{"NoteNumber":52,"Velocity":53,"Duration":82191,"SoundDuration":82191,"Delta":111296747},{"NoteNumber":40,"Velocity":45,"Duration":82191,"SoundDuration":82191,"Delta":111296747},{"NoteNumber":71,"Velocity":64,"Duration":86291,"SoundDuration":86291,"Delta":111461131},{"NoteNumber":67,"Velocity":54,"Duration":86291,"SoundDuration":86291,"Delta":111461131},{"NoteNumber":47,"Velocity":48,"Duration":86291,"SoundDuration":86291,"Delta":111461131},{"NoteNumber":43,"Velocity":40,"Duration":86291,"SoundDuration":86291,"Delta":111461131},{"NoteNumber":64,"Velocity":59,"Duration":81743,"SoundDuration":81743,"Delta":111633713},{"NoteNumber":76,"Velocity":70,"Duration":81743,"SoundDuration":81743,"Delta":111633713},{"NoteNumber":52,"Velocity":67,"Duration":81743,"SoundDuration":81743,"Delta":111633713},{"NoteNumber":40,"Velocity":67,"Duration":81743,"SoundDuration":81743,"Delta":111633713},{"NoteNumber":69,"Velocity":62,"Duration":85797,"SoundDuration":85797,"Delta":111797201},{"NoteNumber":66,"Velocity":52,"Duration":85797,"SoundDuration":85797,"Delta":111797201},{"NoteNumber":42,"Velocity":40,"Duration":85797,"SoundDuration":85797,"Delta":111797201},{"NoteNumber":45,"Velocity":48,"Duration":85797,"SoundDuration":85797,"Delta":111802206},{"NoteNumber":76,"Velocity":70,"Duration":81967,"SoundDuration":81967,"Delta":111968796},{"NoteNumber":64,"Velocity":55,"Duration":81967,"SoundDuration":81967,"Delta":111968796},{"NoteNumber":52,"Velocity":58,"Duration":81967,"SoundDuration":81967,"Delta":111968796},{"NoteNumber":40,"Velocity":49,"Duration":81967,"SoundDuration":81967,"Delta":111968796},{"NoteNumber":67,"Velocity":63,"Duration":85797,"SoundDuration":85797,"Delta":112132731},{"NoteNumber":43,"Velocity":47,"Duration":85797,"SoundDuration":85797,"Delta":112132731},{"NoteNumber":76,"Velocity":70,"Duration":82191,"SoundDuration":82191,"Delta":112304326},{"NoteNumber":64,"Velocity":59,"Duration":82191,"SoundDuration":82191,"Delta":112304326},{"NoteNumber":52,"Velocity":53,"Duration":82191,"SoundDuration":82191,"Delta":112304326},{"NoteNumber":62,"Velocity":54,"Duration":85553,"SoundDuration":85553,"Delta":112468710},{"NoteNumber":66,"Velocity":64,"Duration":85553,"SoundDuration":85553,"Delta":112468710},{"NoteNumber":42,"Velocity":48,"Duration":85553,"SoundDuration":85553,"Delta":112468710},{"NoteNumber":38,"Velocity":40,"Duration":85553,"SoundDuration":85553,"Delta":112468710},{"NoteNumber":64,"Velocity":59,"Duration":82950,"SoundDuration":82950,"Delta":112639816},{"NoteNumber":76,"Velocity":70,"Duration":82950,"SoundDuration":82950,"Delta":112639816},{"NoteNumber":52,"Velocity":67,"Duration":82950,"SoundDuration":82950,"Delta":112639816},{"NoteNumber":64,"Velocity":61,"Duration":87550,"SoundDuration":87550,"Delta":112805717},{"NoteNumber":60,"Velocity":51,"Duration":87550,"SoundDuration":87550,"Delta":112805717},{"NoteNumber":36,"Velocity":39,"Duration":87550,"SoundDuration":87550,"Delta":112805717},{"NoteNumber":40,"Velocity":47,"Duration":87550,"SoundDuration":87550,"Delta":112805717},{"NoteNumber":76,"Velocity":68,"Duration":83411,"SoundDuration":83411,"Delta":112980818},{"NoteNumber":64,"Velocity":53,"Duration":83411,"SoundDuration":83411,"Delta":112980818},{"NoteNumber":40,"Velocity":56,"Duration":83411,"SoundDuration":83411,"Delta":112980818},{"NoteNumber":62,"Velocity":61,"Duration":87806,"SoundDuration":87806,"Delta":113147642},{"NoteNumber":59,"Velocity":51,"Duration":87806,"SoundDuration":87806,"Delta":113147642},{"NoteNumber":35,"Velocity":37,"Duration":87806,"SoundDuration":87806,"Delta":113147642},{"NoteNumber":38,"Velocity":45,"Duration":87806,"SoundDuration":87806,"Delta":113147642},{"NoteNumber":76,"Velocity":66,"Duration":83411,"SoundDuration":83411,"Delta":113323255},{"NoteNumber":64,"Velocity":56,"Duration":83411,"SoundDuration":83411,"Delta":113323255},{"NoteNumber":40,"Velocity":50,"Duration":83411,"SoundDuration":83411,"Delta":113323255},{"NoteNumber":57,"Velocity":50,"Duration":87550,"SoundDuration":87550,"Delta":113490079},{"NoteNumber":60,"Velocity":60,"Duration":87550,"SoundDuration":87550,"Delta":113490079},{"NoteNumber":36,"Velocity":45,"Duration":87550,"SoundDuration":87550,"Delta":113490079},{"NoteNumber":33,"Velocity":37,"Duration":87550,"SoundDuration":87550,"Delta":113490079},{"NoteNumber":64,"Velocity":54,"Duration":86540,"SoundDuration":86540,"Delta":113665179},{"NoteNumber":76,"Velocity":65,"Duration":86540,"SoundDuration":86540,"Delta":113665179},{"NoteNumber":40,"Velocity":62,"Duration":86540,"SoundDuration":86540,"Delta":113665179},{"NoteNumber":59,"Velocity":57,"Duration":93266,"SoundDuration":93266,"Delta":113838260},{"NoteNumber":55,"Velocity":47,"Duration":93266,"SoundDuration":93266,"Delta":113838260},{"NoteNumber":31,"Velocity":36,"Duration":93266,"SoundDuration":93266,"Delta":113838260},{"NoteNumber":35,"Velocity":44,"Duration":93266,"SoundDuration":93266,"Delta":113838260},{"NoteNumber":64,"Velocity":49,"Duration":89911,"SoundDuration":89911,"Delta":114024792},{"NoteNumber":76,"Velocity":63,"Duration":89911,"SoundDuration":89911,"Delta":114024792},{"NoteNumber":40,"Velocity":52,"Duration":89911,"SoundDuration":89911,"Delta":114024792},{"NoteNumber":54,"Velocity":47,"Duration":96568,"SoundDuration":96568,"Delta":114204616},{"NoteNumber":57,"Velocity":56,"Duration":96568,"SoundDuration":96568,"Delta":114204616},{"NoteNumber":30,"Velocity":34,"Duration":96568,"SoundDuration":96568,"Delta":114204616},{"NoteNumber":33,"Velocity":41,"Duration":96568,"SoundDuration":96568,"Delta":114204616},{"NoteNumber":76,"Velocity":61,"Duration":93266,"SoundDuration":93266,"Delta":114397753},{"NoteNumber":64,"Velocity":51,"Duration":93266,"SoundDuration":93266,"Delta":114397753},{"NoteNumber":40,"Velocity":46,"Duration":93266,"SoundDuration":93266,"Delta":114397753},{"NoteNumber":57,"Velocity":55,"Duration":99121,"SoundDuration":99121,"Delta":114584286},{"NoteNumber":53,"Velocity":46,"Duration":99121,"SoundDuration":99121,"Delta":114584286},{"NoteNumber":29,"Velocity":34,"Duration":99121,"SoundDuration":99121,"Delta":114584286},{"NoteNumber":33,"Velocity":41,"Duration":99121,"SoundDuration":99121,"Delta":114584286},{"NoteNumber":55,"Velocity":61,"Duration":87904,"SoundDuration":87904,"Delta":114782528},{"NoteNumber":52,"Velocity":51,"Duration":87904,"SoundDuration":87904,"Delta":114782528},{"NoteNumber":28,"Velocity":37,"Duration":87904,"SoundDuration":87904,"Delta":114782528},{"NoteNumber":40,"Velocity":44,"Duration":87904,"SoundDuration":87904,"Delta":114782528},{"NoteNumber":52,"Velocity":51,"Duration":87904,"SoundDuration":87904,"Delta":114958337},{"NoteNumber":55,"Velocity":61,"Duration":87904,"SoundDuration":87904,"Delta":114958337},{"NoteNumber":28,"Velocity":37,"Duration":87904,"SoundDuration":87904,"Delta":114958337},{"NoteNumber":40,"Velocity":44,"Duration":87904,"SoundDuration":87904,"Delta":114958337},{"NoteNumber":52,"Velocity":51,"Duration":92798,"SoundDuration":92798,"Delta":115134145},{"NoteNumber":55,"Velocity":61,"Duration":92798,"SoundDuration":92798,"Delta":115134145},{"NoteNumber":40,"Velocity":44,"Duration":92798,"SoundDuration":92798,"Delta":115134145},{"NoteNumber":28,"Velocity":37,"Duration":92798,"SoundDuration":92798,"Delta":115134145},{"NoteNumber":57,"Velocity":67,"Duration":543346,"SoundDuration":543346,"Delta":115319743},{"NoteNumber":53,"Velocity":56,"Duration":543346,"SoundDuration":543346,"Delta":115319743},{"NoteNumber":45,"Velocity":44,"Duration":543346,"SoundDuration":543346,"Delta":115319743},{"NoteNumber":48,"Velocity":52,"Duration":543346,"SoundDuration":543346,"Delta":115319743},{"NoteNumber":52,"Velocity":51,"Duration":88162,"SoundDuration":88162,"Delta":115863089},{"NoteNumber":55,"Velocity":61,"Duration":88162,"SoundDuration":88162,"Delta":115863089},{"NoteNumber":28,"Velocity":37,"Duration":88162,"SoundDuration":88162,"Delta":115863089},{"NoteNumber":40,"Velocity":44,"Duration":88162,"SoundDuration":88162,"Delta":115863089},{"NoteNumber":52,"Velocity":51,"Duration":88162,"SoundDuration":88162,"Delta":116039415},{"NoteNumber":55,"Velocity":61,"Duration":88162,"SoundDuration":88162,"Delta":116039415},{"NoteNumber":40,"Velocity":44,"Duration":88162,"SoundDuration":88162,"Delta":116039415},{"NoteNumber":28,"Velocity":37,"Duration":88162,"SoundDuration":88162,"Delta":116039415},{"NoteNumber":55,"Velocity":61,"Duration":93961,"SoundDuration":93961,"Delta":116215740},{"NoteNumber":52,"Velocity":51,"Duration":93961,"SoundDuration":93961,"Delta":116215740},{"NoteNumber":40,"Velocity":44,"Duration":93961,"SoundDuration":93961,"Delta":116215740},{"NoteNumber":28,"Velocity":37,"Duration":93961,"SoundDuration":93961,"Delta":116215740},{"NoteNumber":60,"Velocity":61,"Duration":541711,"SoundDuration":541711,"Delta":116403663},{"NoteNumber":69,"Velocity":61,"Duration":541711,"SoundDuration":541711,"Delta":116403663},{"NoteNumber":57,"Velocity":61,"Duration":541711,"SoundDuration":541711,"Delta":116403663},{"NoteNumber":53,"Velocity":57,"Duration":541711,"SoundDuration":541711,"Delta":116403663},{"NoteNumber":45,"Velocity":48,"Duration":541711,"SoundDuration":541711,"Delta":116403663},{"NoteNumber":55,"Velocity":61,"Duration":92798,"SoundDuration":92798,"Delta":116945375},{"NoteNumber":52,"Velocity":51,"Duration":92798,"SoundDuration":92798,"Delta":116945375},{"NoteNumber":28,"Velocity":37,"Duration":92798,"SoundDuration":92798,"Delta":116945375},{"NoteNumber":40,"Velocity":44,"Duration":92798,"SoundDuration":92798,"Delta":116945375},{"NoteNumber":52,"Velocity":51,"Duration":92798,"SoundDuration":92798,"Delta":117130972},{"NoteNumber":55,"Velocity":61,"Duration":92798,"SoundDuration":92798,"Delta":117130972},{"NoteNumber":28,"Velocity":37,"Duration":92798,"SoundDuration":92798,"Delta":117130972},{"NoteNumber":40,"Velocity":44,"Duration":92798,"SoundDuration":92798,"Delta":117130972},{"NoteNumber":52,"Velocity":51,"Duration":123456,"SoundDuration":123456,"Delta":117316570},{"NoteNumber":55,"Velocity":61,"Duration":123456,"SoundDuration":123456,"Delta":117316570},{"NoteNumber":28,"Velocity":37,"Duration":123456,"SoundDuration":123456,"Delta":117316570},{"NoteNumber":40,"Velocity":44,"Duration":123456,"SoundDuration":123456,"Delta":117316570},{"NoteNumber":72,"Velocity":77,"Duration":726656,"SoundDuration":726656,"Delta":117563483},{"NoteNumber":76,"Velocity":77,"Duration":726656,"SoundDuration":726656,"Delta":117563483},{"NoteNumber":79,"Velocity":77,"Duration":726656,"SoundDuration":726656,"Delta":117563483},{"NoteNumber":84,"Velocity":99,"Duration":726656,"SoundDuration":726656,"Delta":117563483},{"NoteNumber":52,"Velocity":60,"Duration":726656,"SoundDuration":726656,"Delta":117563483},{"NoteNumber":55,"Velocity":60,"Duration":726656,"SoundDuration":726656,"Delta":117563483},{"NoteNumber":46,"Velocity":60,"Duration":726656,"SoundDuration":726656,"Delta":117563483},{"NoteNumber":60,"Velocity":71,"Duration":726656,"SoundDuration":726656,"Delta":117563483},{"NoteNumber":52,"Velocity":79,"Duration":90831,"SoundDuration":90831,"Delta":118653467},{"NoteNumber":55,"Velocity":95,"Duration":90831,"SoundDuration":90831,"Delta":118653467},{"NoteNumber":40,"Velocity":69,"Duration":90831,"SoundDuration":90831,"Delta":118653467},{"NoteNumber":28,"Velocity":57,"Duration":90831,"SoundDuration":90831,"Delta":118653467},{"NoteNumber":55,"Velocity":95,"Duration":90832,"SoundDuration":90832,"Delta":119198459},{"NoteNumber":52,"Velocity":79,"Duration":90832,"SoundDuration":90832,"Delta":119198459},{"NoteNumber":28,"Velocity":57,"Duration":90832,"SoundDuration":90832,"Delta":119198459},{"NoteNumber":40,"Velocity":69,"Duration":90832,"SoundDuration":90832,"Delta":119198459},{"NoteNumber":52,"Velocity":79,"Duration":93304,"SoundDuration":93304,"Delta":119738153},{"NoteNumber":55,"Velocity":95,"Duration":93304,"SoundDuration":93304,"Delta":119738153},{"NoteNumber":40,"Velocity":69,"Duration":93304,"SoundDuration":93304,"Delta":119738153},{"NoteNumber":28,"Velocity":57,"Duration":93304,"SoundDuration":93304,"Delta":119738153},{"NoteNumber":89,"Velocity":84,"Duration":1263567,"SoundDuration":1263567,"Delta":120304199},{"NoteNumber":101,"Velocity":101,"Duration":1263567,"SoundDuration":1263567,"Delta":120304199},{"NoteNumber":96,"Velocity":84,"Duration":1263567,"SoundDuration":1263567,"Delta":120304199},{"NoteNumber":93,"Velocity":84,"Duration":1263567,"SoundDuration":1263567,"Delta":120304199},{"NoteNumber":48,"Velocity":64,"Duration":1263567,"SoundDuration":1263567,"Delta":120304199},{"NoteNumber":60,"Velocity":77,"Duration":1263567,"SoundDuration":1263567,"Delta":120304199},{"NoteNumber":53,"Velocity":64,"Duration":1263567,"SoundDuration":1263567,"Delta":120304199},{"NoteNumber":45,"Velocity":64,"Duration":1263567,"SoundDuration":1263567,"Delta":120304199},{"NoteNumber":72,"Velocity":70,"Duration":87976,"SoundDuration":87976,"Delta":121567766},{"NoteNumber":60,"Velocity":59,"Duration":87976,"SoundDuration":87976,"Delta":121567766},{"NoteNumber":96,"Velocity":70,"Duration":87976,"SoundDuration":87976,"Delta":121655743},{"NoteNumber":84,"Velocity":59,"Duration":87976,"SoundDuration":87976,"Delta":121655743},{"NoteNumber":57,"Velocity":54,"Duration":87976,"SoundDuration":87976,"Delta":121743719},{"NoteNumber":69,"Velocity":64,"Duration":87976,"SoundDuration":87976,"Delta":121743719},{"NoteNumber":93,"Velocity":71,"Duration":87976,"SoundDuration":87976,"Delta":121831696},{"NoteNumber":81,"Velocity":60,"Duration":87976,"SoundDuration":87976,"Delta":121831696},{"NoteNumber":65,"Velocity":72,"Duration":87976,"SoundDuration":87976,"Delta":121919672},{"NoteNumber":53,"Velocity":60,"Duration":87976,"SoundDuration":87976,"Delta":121919672},{"NoteNumber":77,"Velocity":61,"Duration":87976,"SoundDuration":87976,"Delta":122007649},{"NoteNumber":89,"Velocity":72,"Duration":87976,"SoundDuration":87976,"Delta":122007649},{"NoteNumber":48,"Velocity":57,"Duration":87976,"SoundDuration":87976,"Delta":122095625},{"NoteNumber":60,"Velocity":68,"Duration":87976,"SoundDuration":87976,"Delta":122095625},{"NoteNumber":84,"Velocity":69,"Duration":87976,"SoundDuration":87976,"Delta":122183602},{"NoteNumber":72,"Velocity":58,"Duration":87976,"SoundDuration":87976,"Delta":122183602},{"NoteNumber":57,"Velocity":70,"Duration":87976,"SoundDuration":87976,"Delta":122271578},{"NoteNumber":45,"Velocity":59,"Duration":87976,"SoundDuration":87976,"Delta":122271578},{"NoteNumber":81,"Velocity":70,"Duration":87976,"SoundDuration":87976,"Delta":122359555},{"NoteNumber":69,"Velocity":59,"Duration":87976,"SoundDuration":87976,"Delta":122359555},{"NoteNumber":41,"Velocity":64,"Duration":87976,"SoundDuration":87976,"Delta":122447531},{"NoteNumber":53,"Velocity":77,"Duration":87976,"SoundDuration":87976,"Delta":122447531},{"NoteNumber":65,"Velocity":65,"Duration":87976,"SoundDuration":87976,"Delta":122535508},{"NoteNumber":77,"Velocity":77,"Duration":87976,"SoundDuration":87976,"Delta":122535508},{"NoteNumber":36,"Velocity":59,"Duration":87976,"SoundDuration":87976,"Delta":122623484},{"NoteNumber":48,"Velocity":71,"Duration":87976,"SoundDuration":87976,"Delta":122623484},{"NoteNumber":60,"Velocity":62,"Duration":87976,"SoundDuration":87976,"Delta":122711461},{"NoteNumber":72,"Velocity":74,"Duration":87976,"SoundDuration":87976,"Delta":122711461},{"NoteNumber":45,"Velocity":72,"Duration":87976,"SoundDuration":87976,"Delta":122799437},{"NoteNumber":33,"Velocity":60,"Duration":87976,"SoundDuration":87976,"Delta":122799437},{"NoteNumber":57,"Velocity":63,"Duration":87976,"SoundDuration":87976,"Delta":122887414},{"NoteNumber":69,"Velocity":75,"Duration":87976,"SoundDuration":87976,"Delta":122887414},{"NoteNumber":41,"Velocity":81,"Duration":87976,"SoundDuration":87976,"Delta":122975390},{"NoteNumber":29,"Velocity":69,"Duration":87976,"SoundDuration":87976,"Delta":122975390},{"NoteNumber":65,"Velocity":83,"Duration":87976,"SoundDuration":87976,"Delta":123063367},{"NoteNumber":53,"Velocity":70,"Duration":87976,"SoundDuration":87976,"Delta":123063367},{"NoteNumber":36,"Velocity":75,"Duration":87976,"SoundDuration":87976,"Delta":123151343},{"NoteNumber":24,"Velocity":63,"Duration":87976,"SoundDuration":87976,"Delta":123151343},{"NoteNumber":48,"Velocity":65,"Duration":87976,"SoundDuration":87976,"Delta":123239320},{"NoteNumber":60,"Velocity":77,"Duration":87976,"SoundDuration":87976,"Delta":123239320},{"NoteNumber":26,"Velocity":65,"Duration":91463,"SoundDuration":91463,"Delta":123327296},{"NoteNumber":38,"Velocity":78,"Duration":91463,"SoundDuration":91463,"Delta":123327296},{"NoteNumber":50,"Velocity":66,"Duration":102040,"SoundDuration":102040,"Delta":123418760},{"NoteNumber":62,"Velocity":78,"Duration":102040,"SoundDuration":102040,"Delta":123418760},{"NoteNumber":48,"Velocity":68,"Duration":88757,"SoundDuration":88757,"Delta":123520800},{"NoteNumber":55,"Velocity":68,"Duration":88757,"SoundDuration":88757,"Delta":123520800},{"NoteNumber":60,"Velocity":80,"Duration":88757,"SoundDuration":88757,"Delta":123520800},{"NoteNumber":52,"Velocity":68,"Duration":88757,"SoundDuration":88757,"Delta":123520800},{"NoteNumber":24,"Velocity":66,"Duration":88757,"SoundDuration":88757,"Delta":123520800},{"NoteNumber":36,"Velocity":78,"Duration":88757,"SoundDuration":88757,"Delta":123520800},{"NoteNumber":55,"Velocity":68,"Duration":88757,"SoundDuration":88757,"Delta":124585890},{"NoteNumber":52,"Velocity":68,"Duration":88757,"SoundDuration":88757,"Delta":124585890},{"NoteNumber":60,"Velocity":80,"Duration":88757,"SoundDuration":88757,"Delta":124585890},{"NoteNumber":48,"Velocity":68,"Duration":88757,"SoundDuration":88757,"Delta":124585890},{"NoteNumber":36,"Velocity":78,"Duration":88757,"SoundDuration":88757,"Delta":124585890},{"NoteNumber":24,"Velocity":66,"Duration":88757,"SoundDuration":88757,"Delta":124585890},{"NoteNumber":52,"Velocity":68,"Duration":88757,"SoundDuration":88757,"Delta":125650980},{"NoteNumber":55,"Velocity":68,"Duration":88757,"SoundDuration":88757,"Delta":125650980},{"NoteNumber":60,"Velocity":80,"Duration":88757,"SoundDuration":88757,"Delta":125650980},{"NoteNumber":48,"Velocity":68,"Duration":88757,"SoundDuration":88757,"Delta":125650980},{"NoteNumber":24,"Velocity":66,"Duration":88757,"SoundDuration":88757,"Delta":125650980},{"NoteNumber":36,"Velocity":78,"Duration":88757,"SoundDuration":88757,"Delta":125650980},{"NoteNumber":64,"Velocity":40,"Duration":2122783,"SoundDuration":2122783,"Delta":127781161},{"NoteNumber":55,"Velocity":40,"Duration":1065089,"SoundDuration":1065089,"Delta":128846251},{"NoteNumber":60,"Velocity":30,"Duration":174926,"SoundDuration":174926,"Delta":129911341},{"NoteNumber":64,"Velocity":40,"Duration":1394390,"SoundDuration":1394390,"Delta":129911341},{"NoteNumber":36,"Velocity":29,"Duration":4153894,"SoundDuration":4153894,"Delta":129911341},{"NoteNumber":43,"Velocity":35,"Duration":4153894,"SoundDuration":4153894,"Delta":129911341},{"NoteNumber":55,"Velocity":20,"Duration":174926,"SoundDuration":174926,"Delta":130086267},{"NoteNumber":60,"Velocity":30,"Duration":174926,"SoundDuration":174926,"Delta":130261194},{"NoteNumber":55,"Velocity":21,"Duration":174926,"SoundDuration":174926,"Delta":130436121},{"NoteNumber":60,"Velocity":30,"Duration":174927,"SoundDuration":174927,"Delta":130611048},{"NoteNumber":55,"Velocity":20,"Duration":174926,"SoundDuration":174926,"Delta":130785976},{"NoteNumber":60,"Velocity":30,"Duration":172414,"SoundDuration":172414,"Delta":130960903},{"NoteNumber":55,"Velocity":22,"Duration":172414,"SoundDuration":172414,"Delta":131133317},{"NoteNumber":65,"Velocity":40,"Duration":343840,"SoundDuration":343840,"Delta":131305731},{"NoteNumber":62,"Velocity":30,"Duration":171920,"SoundDuration":171920,"Delta":131305731},{"NoteNumber":55,"Velocity":21,"Duration":171920,"SoundDuration":171920,"Delta":131477651},{"NoteNumber":63,"Velocity":30,"Duration":170454,"SoundDuration":170454,"Delta":131649571},{"NoteNumber":66,"Velocity":35,"Duration":340909,"SoundDuration":340909,"Delta":131649571},{"NoteNumber":55,"Velocity":22,"Duration":170454,"SoundDuration":170454,"Delta":131820025},{"NoteNumber":64,"Velocity":30,"Duration":169014,"SoundDuration":169014,"Delta":131990480},{"NoteNumber":67,"Velocity":40,"Duration":338028,"SoundDuration":338028,"Delta":131990480},{"NoteNumber":55,"Velocity":23,"Duration":169014,"SoundDuration":169014,"Delta":132159494},{"NoteNumber":69,"Velocity":36,"Duration":338027,"SoundDuration":338027,"Delta":132328508},{"NoteNumber":65,"Velocity":30,"Duration":169014,"SoundDuration":169014,"Delta":132328508},{"NoteNumber":55,"Velocity":24,"Duration":169013,"SoundDuration":169013,"Delta":132497522},{"NoteNumber":71,"Velocity":40,"Duration":338028,"SoundDuration":338028,"Delta":132666536},{"NoteNumber":62,"Velocity":30,"Duration":169014,"SoundDuration":169014,"Delta":132666536},{"NoteNumber":55,"Velocity":24,"Duration":169014,"SoundDuration":169014,"Delta":132835550},{"NoteNumber":64,"Velocity":30,"Duration":169014,"SoundDuration":169014,"Delta":133004564},{"NoteNumber":72,"Velocity":44,"Duration":338028,"SoundDuration":338028,"Delta":133004564},{"NoteNumber":60,"Velocity":23,"Duration":169014,"SoundDuration":169014,"Delta":133173578},{"NoteNumber":65,"Velocity":30,"Duration":169014,"SoundDuration":169014,"Delta":133342592},{"NoteNumber":74,"Velocity":49,"Duration":338028,"SoundDuration":338028,"Delta":133342592},{"NoteNumber":60,"Velocity":30,"Duration":169014,"SoundDuration":169014,"Delta":133511606},{"NoteNumber":67,"Velocity":30,"Duration":192307,"SoundDuration":192307,"Delta":133680620},{"NoteNumber":76,"Velocity":57,"Duration":384614,"SoundDuration":384614,"Delta":133680620},{"NoteNumber":60,"Velocity":30,"Duration":192307,"SoundDuration":192307,"Delta":133872927},{"NoteNumber":73,"Velocity":30,"Duration":165289,"SoundDuration":165289,"Delta":134065235},{"NoteNumber":79,"Velocity":62,"Duration":1006736,"SoundDuration":1006736,"Delta":134065235},{"NoteNumber":70,"Velocity":30,"Duration":165289,"SoundDuration":165289,"Delta":134065235},{"NoteNumber":29,"Velocity":34,"Duration":2023579,"SoundDuration":2023579,"Delta":134065235},{"NoteNumber":41,"Velocity":40,"Duration":2023579,"SoundDuration":2023579,"Delta":134065235},{"NoteNumber":64,"Velocity":33,"Duration":169491,"SoundDuration":169491,"Delta":134230524},{"NoteNumber":73,"Velocity":38,"Duration":165746,"SoundDuration":165746,"Delta":134400016},{"NoteNumber":70,"Velocity":38,"Duration":165746,"SoundDuration":165746,"Delta":134400016},{"NoteNumber":64,"Velocity":32,"Duration":169491,"SoundDuration":169491,"Delta":134565762},{"NoteNumber":70,"Velocity":38,"Duration":165289,"SoundDuration":165289,"Delta":134735253},{"NoteNumber":73,"Velocity":38,"Duration":165289,"SoundDuration":165289,"Delta":134735253},{"NoteNumber":64,"Velocity":34,"Duration":171428,"SoundDuration":171428,"Delta":134900543},{"NoteNumber":77,"Velocity":57,"Duration":672268,"SoundDuration":672268,"Delta":135071971},{"NoteNumber":69,"Velocity":30,"Duration":168067,"SoundDuration":168067,"Delta":135071971},{"NoteNumber":74,"Velocity":30,"Duration":168067,"SoundDuration":168067,"Delta":135071971},{"NoteNumber":65,"Velocity":27,"Duration":168066,"SoundDuration":168066,"Delta":135240038},{"NoteNumber":69,"Velocity":34,"Duration":168067,"SoundDuration":168067,"Delta":135408105},{"NoteNumber":74,"Velocity":34,"Duration":168067,"SoundDuration":168067,"Delta":135408105},{"NoteNumber":65,"Velocity":27,"Duration":168067,"SoundDuration":168067,"Delta":135576172},{"NoteNumber":70,"Velocity":37,"Duration":175952,"SoundDuration":175952,"Delta":135744239},{"NoteNumber":76,"Velocity":50,"Duration":348240,"SoundDuration":348240,"Delta":135744239},{"NoteNumber":73,"Velocity":37,"Duration":175952,"SoundDuration":175952,"Delta":135744239},{"NoteNumber":67,"Velocity":29,"Duration":175953,"SoundDuration":175953,"Delta":135920192},{"NoteNumber":70,"Velocity":38,"Duration":167131,"SoundDuration":167131,"Delta":136096145},{"NoteNumber":76,"Velocity":51,"Duration":670399,"SoundDuration":670399,"Delta":136096145},{"NoteNumber":73,"Velocity":38,"Duration":167131,"SoundDuration":167131,"Delta":136096145},{"NoteNumber":29,"Velocity":34,"Duration":2035268,"SoundDuration":2035268,"Delta":136096145},{"NoteNumber":41,"Velocity":40,"Duration":2035268,"SoundDuration":2035268,"Delta":136096145},{"NoteNumber":67,"Velocity":26,"Duration":168072,"SoundDuration":168072,"Delta":136263276},{"NoteNumber":70,"Velocity":29,"Duration":167597,"SoundDuration":167597,"Delta":136431349},{"NoteNumber":73,"Velocity":29,"Duration":167597,"SoundDuration":167597,"Delta":136431349},{"NoteNumber":67,"Velocity":26,"Duration":167597,"SoundDuration":167597,"Delta":136598947},{"NoteNumber":69,"Velocity":35,"Duration":167597,"SoundDuration":167597,"Delta":136766545},{"NoteNumber":74,"Velocity":47,"Duration":335195,"SoundDuration":335195,"Delta":136766545},{"NoteNumber":65,"Velocity":26,"Duration":167597,"SoundDuration":167597,"Delta":136934143},{"NoteNumber":73,"Velocity":33,"Duration":167597,"SoundDuration":167597,"Delta":137101741},{"NoteNumber":76,"Velocity":44,"Duration":670392,"SoundDuration":670392,"Delta":137101741},{"NoteNumber":69,"Velocity":33,"Duration":167597,"SoundDuration":167597,"Delta":137101741},{"NoteNumber":64,"Velocity":26,"Duration":167597,"SoundDuration":167597,"Delta":137269339},{"NoteNumber":69,"Velocity":26,"Duration":167597,"SoundDuration":167597,"Delta":137436937},{"NoteNumber":73,"Velocity":26,"Duration":167597,"SoundDuration":167597,"Delta":137436937},{"NoteNumber":64,"Velocity":26,"Duration":167598,"SoundDuration":167598,"Delta":137604535},{"NoteNumber":77,"Velocity":47,"Duration":359281,"SoundDuration":359281,"Delta":137772133},{"NoteNumber":69,"Velocity":35,"Duration":179640,"SoundDuration":179640,"Delta":137772133},{"NoteNumber":74,"Velocity":35,"Duration":179640,"SoundDuration":179640,"Delta":137772133},{"NoteNumber":65,"Velocity":28,"Duration":179640,"SoundDuration":179640,"Delta":137951773},{"NoteNumber":67,"Velocity":30,"Duration":174926,"SoundDuration":174926,"Delta":138131414},{"NoteNumber":72,"Velocity":40,"Duration":2070582,"SoundDuration":2070582,"Delta":138131414},{"NoteNumber":52,"Velocity":35,"Duration":1385833,"SoundDuration":1385833,"Delta":138131414},{"NoteNumber":43,"Velocity":29,"Duration":2070582,"SoundDuration":2070582,"Delta":138131414},{"NoteNumber":64,"Velocity":20,"Duration":174926,"SoundDuration":174926,"Delta":138306341},{"NoteNumber":67,"Velocity":30,"Duration":172910,"SoundDuration":172910,"Delta":138481268},{"NoteNumber":64,"Velocity":21,"Duration":172910,"SoundDuration":172910,"Delta":138654178},{"NoteNumber":67,"Velocity":30,"Duration":171920,"SoundDuration":171920,"Delta":138827089},{"NoteNumber":64,"Velocity":20,"Duration":173410,"SoundDuration":173410,"Delta":138999009},{"NoteNumber":67,"Velocity":30,"Duration":172414,"SoundDuration":172414,"Delta":139172419},{"NoteNumber":64,"Velocity":22,"Duration":172414,"SoundDuration":172414,"Delta":139344833},{"NoteNumber":67,"Velocity":30,"Duration":171920,"SoundDuration":171920,"Delta":139517247},{"NoteNumber":53,"Velocity":40,"Duration":343840,"SoundDuration":343840,"Delta":139517247},{"NoteNumber":64,"Velocity":21,"Duration":171920,"SoundDuration":171920,"Delta":139689167},{"NoteNumber":69,"Velocity":30,"Duration":170454,"SoundDuration":170454,"Delta":139861087},{"NoteNumber":54,"Velocity":35,"Duration":340909,"SoundDuration":340909,"Delta":139861087},{"NoteNumber":64,"Velocity":22,"Duration":170454,"SoundDuration":170454,"Delta":140031542},{"NoteNumber":67,"Velocity":30,"Duration":169014,"SoundDuration":169014,"Delta":140201996},{"NoteNumber":71,"Velocity":40,"Duration":338028,"SoundDuration":338028,"Delta":140201996},{"NoteNumber":55,"Velocity":40,"Duration":330985,"SoundDuration":330985,"Delta":140201996},{"NoteNumber":62,"Velocity":23,"Duration":169014,"SoundDuration":169014,"Delta":140371010},{"NoteNumber":67,"Velocity":30,"Duration":169014,"SoundDuration":169014,"Delta":140540024},{"NoteNumber":72,"Velocity":36,"Duration":338027,"SoundDuration":338027,"Delta":140540024},{"NoteNumber":57,"Velocity":36,"Duration":338027,"SoundDuration":338027,"Delta":140540024},{"NoteNumber":55,"Velocity":29,"Duration":1352112,"SoundDuration":1352112,"Delta":140540024},{"NoteNumber":65,"Velocity":24,"Duration":169013,"SoundDuration":169013,"Delta":140709038},{"NoteNumber":74,"Velocity":40,"Duration":338028,"SoundDuration":338028,"Delta":140878052},{"NoteNumber":67,"Velocity":30,"Duration":169014,"SoundDuration":169014,"Delta":140878052},{"NoteNumber":59,"Velocity":40,"Duration":338028,"SoundDuration":338028,"Delta":140878052},{"NoteNumber":65,"Velocity":24,"Duration":169014,"SoundDuration":169014,"Delta":141047066},{"NoteNumber":76,"Velocity":44,"Duration":338028,"SoundDuration":338028,"Delta":141216080},{"NoteNumber":67,"Velocity":30,"Duration":169014,"SoundDuration":169014,"Delta":141216080},{"NoteNumber":60,"Velocity":37,"Duration":338028,"SoundDuration":338028,"Delta":141216080},{"NoteNumber":64,"Velocity":23,"Duration":169014,"SoundDuration":169014,"Delta":141385094},{"NoteNumber":77,"Velocity":49,"Duration":338028,"SoundDuration":338028,"Delta":141554108},{"NoteNumber":71,"Velocity":30,"Duration":169014,"SoundDuration":169014,"Delta":141554108},{"NoteNumber":62,"Velocity":41,"Duration":338028,"SoundDuration":338028,"Delta":141554108},{"NoteNumber":67,"Velocity":30,"Duration":169014,"SoundDuration":169014,"Delta":141723122},{"NoteNumber":72,"Velocity":30,"Duration":192307,"SoundDuration":192307,"Delta":141892136},{"NoteNumber":79,"Velocity":57,"Duration":405073,"SoundDuration":405073,"Delta":141892136},{"NoteNumber":64,"Velocity":48,"Duration":405073,"SoundDuration":405073,"Delta":141892136},{"NoteNumber":67,"Velocity":30,"Duration":212765,"SoundDuration":212765,"Delta":142084444},{"NoteNumber":82,"Velocity":62,"Duration":1005903,"SoundDuration":1005903,"Delta":142297210},{"NoteNumber":73,"Velocity":34,"Duration":165746,"SoundDuration":165746,"Delta":142297210},{"NoteNumber":67,"Velocity":40,"Duration":1005903,"SoundDuration":1005903,"Delta":142297210},{"NoteNumber":58,"Velocity":34,"Duration":1005903,"SoundDuration":1005903,"Delta":142297210},{"NoteNumber":61,"Velocity":34,"Duration":1005903,"SoundDuration":1005903,"Delta":142297210},{"NoteNumber":52,"Velocity":34,"Duration":1005903,"SoundDuration":1005903,"Delta":142297210},{"NoteNumber":70,"Velocity":37,"Duration":168067,"SoundDuration":168067,"Delta":142462956},{"NoteNumber":73,"Velocity":43,"Duration":167380,"SoundDuration":167380,"Delta":142631023},{"NoteNumber":70,"Velocity":36,"Duration":169014,"SoundDuration":169014,"Delta":142798403},{"NoteNumber":73,"Velocity":43,"Duration":166204,"SoundDuration":166204,"Delta":142967417},{"NoteNumber":70,"Velocity":38,"Duration":169491,"SoundDuration":169491,"Delta":143133622},{"NoteNumber":74,"Velocity":34,"Duration":167131,"SoundDuration":167131,"Delta":143303113},{"NoteNumber":81,"Velocity":57,"Duration":668523,"SoundDuration":668523,"Delta":143303113},{"NoteNumber":54,"Velocity":34,"Duration":668523,"SoundDuration":668523,"Delta":143303113},{"NoteNumber":66,"Velocity":40,"Duration":668523,"SoundDuration":668523,"Delta":143303113},{"NoteNumber":57,"Velocity":34,"Duration":668523,"SoundDuration":668523,"Delta":143303113},{"NoteNumber":62,"Velocity":34,"Duration":668523,"SoundDuration":668523,"Delta":143303113},{"NoteNumber":69,"Velocity":30,"Duration":167130,"SoundDuration":167130,"Delta":143470244},{"NoteNumber":74,"Velocity":36,"Duration":167131,"SoundDuration":167131,"Delta":143637375},{"NoteNumber":69,"Velocity":29,"Duration":167130,"SoundDuration":167130,"Delta":143804506},{"NoteNumber":74,"Velocity":34,"Duration":175952,"SoundDuration":175952,"Delta":143971637},{"NoteNumber":80,"Velocity":42,"Duration":348240,"SoundDuration":348240,"Delta":143971637},{"NoteNumber":56,"Velocity":28,"Duration":351906,"SoundDuration":351906,"Delta":143971637},{"NoteNumber":65,"Velocity":33,"Duration":351906,"SoundDuration":351906,"Delta":143971637},{"NoteNumber":71,"Velocity":26,"Duration":175953,"SoundDuration":175953,"Delta":144147590},{"NoteNumber":79,"Velocity":45,"Duration":671418,"SoundDuration":671418,"Delta":144323543},{"NoteNumber":73,"Velocity":34,"Duration":165289,"SoundDuration":165289,"Delta":144323543},{"NoteNumber":57,"Velocity":30,"Duration":2055810,"SoundDuration":2055810,"Delta":144323543},{"NoteNumber":64,"Velocity":36,"Duration":671418,"SoundDuration":671418,"Delta":144323543},{"NoteNumber":69,"Velocity":23,"Duration":169491,"SoundDuration":169491,"Delta":144488833},{"NoteNumber":73,"Velocity":26,"Duration":166666,"SoundDuration":166666,"Delta":144658324},{"NoteNumber":69,"Velocity":23,"Duration":169971,"SoundDuration":169971,"Delta":144824991},{"NoteNumber":78,"Velocity":42,"Duration":333333,"SoundDuration":333333,"Delta":144994962},{"NoteNumber":73,"Velocity":31,"Duration":166666,"SoundDuration":166666,"Delta":144994962},{"NoteNumber":63,"Velocity":32,"Duration":333333,"SoundDuration":333333,"Delta":144994962},{"NoteNumber":69,"Velocity":23,"Duration":166666,"SoundDuration":166666,"Delta":145161629},{"NoteNumber":79,"Velocity":39,"Duration":664379,"SoundDuration":664379,"Delta":145328295},{"NoteNumber":73,"Velocity":29,"Duration":165289,"SoundDuration":165289,"Delta":145328295},{"NoteNumber":64,"Velocity":36,"Duration":664379,"SoundDuration":664379,"Delta":145328295},{"NoteNumber":69,"Velocity":23,"Duration":167597,"SoundDuration":167597,"Delta":145493585},{"NoteNumber":73,"Velocity":23,"Duration":165746,"SoundDuration":165746,"Delta":145661183},{"NoteNumber":69,"Velocity":23,"Duration":165745,"SoundDuration":165745,"Delta":145826929},{"NoteNumber":82,"Velocity":42,"Duration":386678,"SoundDuration":386678,"Delta":145992675},{"NoteNumber":73,"Velocity":31,"Duration":173912,"SoundDuration":173912,"Delta":145992675},{"NoteNumber":67,"Velocity":33,"Duration":386678,"SoundDuration":386678,"Delta":145992675},{"NoteNumber":69,"Velocity":25,"Duration":212765,"SoundDuration":212765,"Delta":146166588},{"NoteNumber":73,"Velocity":27,"Duration":169014,"SoundDuration":169014,"Delta":146379354},{"NoteNumber":81,"Velocity":51,"Duration":1019895,"SoundDuration":1019895,"Delta":146379354},{"NoteNumber":58,"Velocity":30,"Duration":2044070,"SoundDuration":2044070,"Delta":146379354},{"NoteNumber":65,"Velocity":36,"Duration":1019895,"SoundDuration":1019895,"Delta":146379354},{"NoteNumber":70,"Velocity":24,"Duration":169014,"SoundDuration":169014,"Delta":146548368},{"NoteNumber":73,"Velocity":30,"Duration":169014,"SoundDuration":169014,"Delta":146717382},{"NoteNumber":70,"Velocity":24,"Duration":169013,"SoundDuration":169013,"Delta":146886396},{"NoteNumber":73,"Velocity":29,"Duration":171920,"SoundDuration":171920,"Delta":147055410},{"NoteNumber":70,"Velocity":23,"Duration":171920,"SoundDuration":171920,"Delta":147227330},{"NoteNumber":73,"Velocity":34,"Duration":168067,"SoundDuration":168067,"Delta":147399250},{"NoteNumber":79,"Velocity":45,"Duration":336133,"SoundDuration":336133,"Delta":147399250},{"NoteNumber":64,"Velocity":36,"Duration":665265,"SoundDuration":665265,"Delta":147399250},{"NoteNumber":70,"Velocity":23,"Duration":168066,"SoundDuration":168066,"Delta":147567317},{"NoteNumber":73,"Velocity":26,"Duration":168067,"SoundDuration":168067,"Delta":147735384},{"NoteNumber":70,"Velocity":23,"Duration":168067,"SoundDuration":168067,"Delta":147903451},{"NoteNumber":73,"Velocity":30,"Duration":175952,"SoundDuration":175952,"Delta":148071518},{"NoteNumber":79,"Velocity":42,"Duration":348240,"SoundDuration":348240,"Delta":148071518},{"NoteNumber":64,"Velocity":33,"Duration":344574,"SoundDuration":344574,"Delta":148071518},{"NoteNumber":70,"Velocity":23,"Duration":175953,"SoundDuration":175953,"Delta":148247471},{"NoteNumber":76,"Velocity":34,"Duration":168067,"SoundDuration":168067,"Delta":148423424},{"NoteNumber":79,"Velocity":45,"Duration":672268,"SoundDuration":672268,"Delta":148423424},{"NoteNumber":59,"Velocity":30,"Duration":2060830,"SoundDuration":2060830,"Delta":148423424},{"NoteNumber":64,"Velocity":36,"Duration":672268,"SoundDuration":672268,"Delta":148423424},{"NoteNumber":71,"Velocity":23,"Duration":168066,"SoundDuration":168066,"Delta":148591491},{"NoteNumber":76,"Velocity":26,"Duration":168067,"SoundDuration":168067,"Delta":148759558},{"NoteNumber":71,"Velocity":23,"Duration":168067,"SoundDuration":168067,"Delta":148927625},{"NoteNumber":78,"Velocity":42,"Duration":331491,"SoundDuration":331491,"Delta":149095692},{"NoteNumber":76,"Velocity":31,"Duration":165746,"SoundDuration":165746,"Delta":149095692},{"NoteNumber":63,"Velocity":32,"Duration":331491,"SoundDuration":331491,"Delta":149095692},{"NoteNumber":71,"Velocity":23,"Duration":165745,"SoundDuration":165745,"Delta":149261438},{"NoteNumber":76,"Velocity":29,"Duration":167597,"SoundDuration":167597,"Delta":149427184},{"NoteNumber":79,"Velocity":39,"Duration":670391,"SoundDuration":670391,"Delta":149427184},{"NoteNumber":64,"Velocity":36,"Duration":670391,"SoundDuration":670391,"Delta":149427184},{"NoteNumber":71,"Velocity":23,"Duration":167597,"SoundDuration":167597,"Delta":149594782},{"NoteNumber":76,"Velocity":23,"Duration":167597,"SoundDuration":167597,"Delta":149762380},{"NoteNumber":71,"Velocity":23,"Duration":167597,"SoundDuration":167597,"Delta":149929978},{"NoteNumber":83,"Velocity":42,"Duration":386678,"SoundDuration":386678,"Delta":150097576},{"NoteNumber":76,"Velocity":31,"Duration":173912,"SoundDuration":173912,"Delta":150097576},{"NoteNumber":67,"Velocity":33,"Duration":386678,"SoundDuration":386678,"Delta":150097576},{"NoteNumber":71,"Velocity":25,"Duration":212765,"SoundDuration":212765,"Delta":150271489},{"NoteNumber":81,"Velocity":51,"Duration":1019895,"SoundDuration":1019895,"Delta":150484255},{"NoteNumber":76,"Velocity":27,"Duration":169014,"SoundDuration":169014,"Delta":150484255},{"NoteNumber":66,"Velocity":36,"Duration":1019895,"SoundDuration":1019895,"Delta":150484255},{"NoteNumber":60,"Velocity":30,"Duration":1019895,"SoundDuration":1019895,"Delta":150484255},{"NoteNumber":70,"Velocity":24,"Duration":169014,"SoundDuration":169014,"Delta":150653269},{"NoteNumber":76,"Velocity":30,"Duration":169014,"SoundDuration":169014,"Delta":150822283},{"NoteNumber":70,"Velocity":24,"Duration":169013,"SoundDuration":169013,"Delta":150991297},{"NoteNumber":76,"Velocity":29,"Duration":171920,"SoundDuration":171920,"Delta":151160311},{"NoteNumber":70,"Velocity":23,"Duration":171920,"SoundDuration":171920,"Delta":151332231},{"NoteNumber":79,"Velocity":45,"Duration":336133,"SoundDuration":336133,"Delta":151504151},{"NoteNumber":76,"Velocity":34,"Duration":168067,"SoundDuration":168067,"Delta":151504151},{"NoteNumber":64,"Velocity":36,"Duration":1024174,"SoundDuration":1024174,"Delta":151504151},{"NoteNumber":61,"Velocity":30,"Duration":1024174,"SoundDuration":1024174,"Delta":151504151},{"NoteNumber":70,"Velocity":23,"Duration":168066,"SoundDuration":168066,"Delta":151672218},{"NoteNumber":76,"Velocity":26,"Duration":168067,"SoundDuration":168067,"Delta":151840285},{"NoteNumber":70,"Velocity":23,"Duration":168067,"SoundDuration":168067,"Delta":152008352},{"NoteNumber":79,"Velocity":42,"Duration":348240,"SoundDuration":348240,"Delta":152176419},{"NoteNumber":76,"Velocity":30,"Duration":175952,"SoundDuration":175952,"Delta":152176419},{"NoteNumber":70,"Velocity":23,"Duration":175953,"SoundDuration":175953,"Delta":152352372},{"NoteNumber":79,"Velocity":45,"Duration":671395,"SoundDuration":671395,"Delta":152528325},{"NoteNumber":71,"Velocity":34,"Duration":166666,"SoundDuration":166666,"Delta":152528325},{"NoteNumber":62,"Velocity":36,"Duration":671395,"SoundDuration":671395,"Delta":152528325},{"NoteNumber":67,"Velocity":23,"Duration":169491,"SoundDuration":169491,"Delta":152694991},{"NoteNumber":71,"Velocity":26,"Duration":165746,"SoundDuration":165746,"Delta":152864483},{"NoteNumber":67,"Velocity":23,"Duration":169491,"SoundDuration":169491,"Delta":153030229},{"NoteNumber":78,"Velocity":42,"Duration":335009,"SoundDuration":335009,"Delta":153199720},{"NoteNumber":71,"Velocity":31,"Duration":165517,"SoundDuration":165517,"Delta":153199720},{"NoteNumber":67,"Velocity":23,"Duration":169491,"SoundDuration":169491,"Delta":153365238},{"NoteNumber":79,"Velocity":39,"Duration":672268,"SoundDuration":672268,"Delta":153534729},{"NoteNumber":71,"Velocity":29,"Duration":168067,"SoundDuration":168067,"Delta":153534729},{"NoteNumber":67,"Velocity":23,"Duration":168066,"SoundDuration":168066,"Delta":153702796},{"NoteNumber":71,"Velocity":23,"Duration":168067,"SoundDuration":168067,"Delta":153870863},{"NoteNumber":67,"Velocity":23,"Duration":168067,"SoundDuration":168067,"Delta":154038930},{"NoteNumber":74,"Velocity":42,"Duration":386678,"SoundDuration":386678,"Delta":154206997},{"NoteNumber":71,"Velocity":31,"Duration":173912,"SoundDuration":173912,"Delta":154206997},{"NoteNumber":67,"Velocity":25,"Duration":212765,"SoundDuration":212765,"Delta":154380910},{"NoteNumber":70,"Velocity":34,"Duration":166666,"SoundDuration":166666,"Delta":154593676},{"NoteNumber":55,"Velocity":45,"Duration":669024,"SoundDuration":669024,"Delta":154593676},{"NoteNumber":67,"Velocity":23,"Duration":169014,"SoundDuration":169014,"Delta":154760343},{"NoteNumber":70,"Velocity":26,"Duration":165746,"SoundDuration":165746,"Delta":154929357},{"NoteNumber":67,"Velocity":23,"Duration":167597,"SoundDuration":167597,"Delta":155095103},{"NoteNumber":70,"Velocity":31,"Duration":165746,"SoundDuration":165746,"Delta":155262701},{"NoteNumber":54,"Velocity":42,"Duration":334285,"SoundDuration":334285,"Delta":155262701},{"NoteNumber":67,"Velocity":23,"Duration":168539,"SoundDuration":168539,"Delta":155428447},{"NoteNumber":70,"Velocity":29,"Duration":168539,"SoundDuration":168539,"Delta":155596986},{"NoteNumber":55,"Velocity":39,"Duration":674158,"SoundDuration":674158,"Delta":155596986},{"NoteNumber":67,"Velocity":23,"Duration":168539,"SoundDuration":168539,"Delta":155765526},{"NoteNumber":70,"Velocity":23,"Duration":168539,"SoundDuration":168539,"Delta":155934065},{"NoteNumber":67,"Velocity":23,"Duration":168539,"SoundDuration":168539,"Delta":156102605},{"NoteNumber":70,"Velocity":31,"Duration":173912,"SoundDuration":173912,"Delta":156271144},{"NoteNumber":50,"Velocity":42,"Duration":386678,"SoundDuration":386678,"Delta":156271144},{"NoteNumber":67,"Velocity":25,"Duration":212765,"SoundDuration":212765,"Delta":156445057},{"NoteNumber":74,"Velocity":45,"Duration":670424,"SoundDuration":670424,"Delta":156657823},{"NoteNumber":66,"Velocity":34,"Duration":166204,"SoundDuration":166204,"Delta":156657823},{"NoteNumber":62,"Velocity":23,"Duration":168539,"SoundDuration":168539,"Delta":156824028},{"NoteNumber":66,"Velocity":26,"Duration":166666,"SoundDuration":166666,"Delta":156992568},{"NoteNumber":62,"Velocity":23,"Duration":169014,"SoundDuration":169014,"Delta":157159234},{"NoteNumber":73,"Velocity":42,"Duration":336854,"SoundDuration":336854,"Delta":157328248},{"NoteNumber":66,"Velocity":31,"Duration":167840,"SoundDuration":167840,"Delta":157328248},{"NoteNumber":62,"Velocity":23,"Duration":169014,"SoundDuration":169014,"Delta":157496089},{"NoteNumber":74,"Velocity":39,"Duration":670391,"SoundDuration":670391,"Delta":157665103},{"NoteNumber":66,"Velocity":29,"Duration":167597,"SoundDuration":167597,"Delta":157665103},{"NoteNumber":62,"Velocity":23,"Duration":167597,"SoundDuration":167597,"Delta":157832701},{"NoteNumber":66,"Velocity":23,"Duration":167597,"SoundDuration":167597,"Delta":158000299},{"NoteNumber":62,"Velocity":23,"Duration":167597,"SoundDuration":167597,"Delta":158167897},{"NoteNumber":66,"Velocity":31,"Duration":173912,"SoundDuration":173912,"Delta":158335495},{"NoteNumber":69,"Velocity":42,"Duration":386678,"SoundDuration":386678,"Delta":158335495},{"NoteNumber":62,"Velocity":25,"Duration":212765,"SoundDuration":212765,"Delta":158509408},{"NoteNumber":65,"Velocity":32,"Duration":166666,"SoundDuration":166666,"Delta":158722174},{"NoteNumber":50,"Velocity":42,"Duration":671823,"SoundDuration":671823,"Delta":158722174},{"NoteNumber":62,"Velocity":21,"Duration":169014,"SoundDuration":169014,"Delta":158888840},{"NoteNumber":65,"Velocity":24,"Duration":167603,"SoundDuration":167603,"Delta":159057854},{"NoteNumber":62,"Velocity":21,"Duration":168539,"SoundDuration":168539,"Delta":159225457},{"NoteNumber":65,"Velocity":28,"Duration":165746,"SoundDuration":165746,"Delta":159393997},{"NoteNumber":49,"Velocity":39,"Duration":333344,"SoundDuration":333344,"Delta":159393997},{"NoteNumber":62,"Velocity":21,"Duration":167597,"SoundDuration":167597,"Delta":159559743},{"NoteNumber":65,"Velocity":27,"Duration":167597,"SoundDuration":167597,"Delta":159727341},{"NoteNumber":50,"Velocity":35,"Duration":670391,"SoundDuration":670391,"Delta":159727341},{"NoteNumber":62,"Velocity":20,"Duration":167597,"SoundDuration":167597,"Delta":159894939},{"NoteNumber":65,"Velocity":20,"Duration":167597,"SoundDuration":167597,"Delta":160062537},{"NoteNumber":62,"Velocity":20,"Duration":167597,"SoundDuration":167597,"Delta":160230135},{"NoteNumber":65,"Velocity":27,"Duration":173912,"SoundDuration":173912,"Delta":160397733},{"NoteNumber":45,"Velocity":37,"Duration":386678,"SoundDuration":386678,"Delta":160397733},{"NoteNumber":62,"Velocity":21,"Duration":212765,"SoundDuration":212765,"Delta":160571646},{"NoteNumber":65,"Velocity":26,"Duration":168067,"SoundDuration":168067,"Delta":160784412},{"NoteNumber":74,"Velocity":34,"Duration":672268,"SoundDuration":672268,"Delta":160784412},{"NoteNumber":62,"Velocity":19,"Duration":168066,"SoundDuration":168066,"Delta":160952479},{"NoteNumber":65,"Velocity":19,"Duration":168067,"SoundDuration":168067,"Delta":161120546},{"NoteNumber":62,"Velocity":19,"Duration":168067,"SoundDuration":168067,"Delta":161288613},{"NoteNumber":65,"Velocity":27,"Duration":173912,"SoundDuration":173912,"Delta":161456680},{"NoteNumber":73,"Velocity":36,"Duration":357398,"SoundDuration":357398,"Delta":161456680},{"NoteNumber":62,"Velocity":21,"Duration":183485,"SoundDuration":183485,"Delta":161630593},{"NoteNumber":65,"Velocity":28,"Duration":168067,"SoundDuration":168067,"Delta":161814079},{"NoteNumber":50,"Velocity":38,"Duration":672268,"SoundDuration":672268,"Delta":161814079},{"NoteNumber":62,"Velocity":19,"Duration":168066,"SoundDuration":168066,"Delta":161982146},{"NoteNumber":65,"Velocity":21,"Duration":168067,"SoundDuration":168067,"Delta":162150213},{"NoteNumber":62,"Velocity":18,"Duration":168067,"SoundDuration":168067,"Delta":162318280},{"NoteNumber":65,"Velocity":26,"Duration":168067,"SoundDuration":168067,"Delta":162486347},{"NoteNumber":44,"Velocity":34,"Duration":340977,"SoundDuration":340977,"Delta":162486347},{"NoteNumber":62,"Velocity":18,"Duration":172910,"SoundDuration":172910,"Delta":162654414},{"NoteNumber":65,"Velocity":24,"Duration":168539,"SoundDuration":168539,"Delta":162827324},{"NoteNumber":74,"Velocity":31,"Duration":1694751,"SoundDuration":1694751,"Delta":162827324},{"NoteNumber":62,"Velocity":18,"Duration":168539,"SoundDuration":168539,"Delta":162995864},{"NoteNumber":65,"Velocity":18,"Duration":168539,"SoundDuration":168539,"Delta":163164403},{"NoteNumber":62,"Velocity":18,"Duration":168539,"SoundDuration":168539,"Delta":163332943},{"NoteNumber":65,"Velocity":25,"Duration":168067,"SoundDuration":168067,"Delta":163501482},{"NoteNumber":62,"Velocity":19,"Duration":176470,"SoundDuration":176470,"Delta":163669549},{"NoteNumber":65,"Velocity":27,"Duration":169014,"SoundDuration":169014,"Delta":163846020},{"NoteNumber":50,"Velocity":35,"Duration":676055,"SoundDuration":676055,"Delta":163846020},{"NoteNumber":62,"Velocity":18,"Duration":169014,"SoundDuration":169014,"Delta":164015034},{"NoteNumber":65,"Velocity":19,"Duration":169014,"SoundDuration":169014,"Delta":164184048},{"NoteNumber":62,"Velocity":18,"Duration":169013,"SoundDuration":169013,"Delta":164353062},{"NoteNumber":65,"Velocity":19,"Duration":369631,"SoundDuration":369631,"Delta":164522076},{"NoteNumber":59,"Velocity":23,"Duration":172910,"SoundDuration":172910,"Delta":164522076},{"NoteNumber":43,"Velocity":32,"Duration":369631,"SoundDuration":369631,"Delta":164522076},{"NoteNumber":55,"Velocity":17,"Duration":196721,"SoundDuration":196721,"Delta":164694986},{"NoteNumber":60,"Velocity":30,"Duration":174926,"SoundDuration":174926,"Delta":164891708},{"NoteNumber":64,"Velocity":40,"Duration":1394464,"SoundDuration":1394464,"Delta":164891708},{"NoteNumber":36,"Velocity":29,"Duration":4153969,"SoundDuration":4153969,"Delta":164891708},{"NoteNumber":43,"Velocity":35,"Duration":4153969,"SoundDuration":4153969,"Delta":164891708},{"NoteNumber":55,"Velocity":20,"Duration":174926,"SoundDuration":174926,"Delta":165066635},{"NoteNumber":60,"Velocity":30,"Duration":174926,"SoundDuration":174926,"Delta":165241562},{"NoteNumber":55,"Velocity":21,"Duration":174926,"SoundDuration":174926,"Delta":165416489},{"NoteNumber":60,"Velocity":30,"Duration":172414,"SoundDuration":172414,"Delta":165591416},{"NoteNumber":55,"Velocity":20,"Duration":177514,"SoundDuration":177514,"Delta":165763830},{"NoteNumber":60,"Velocity":30,"Duration":172414,"SoundDuration":172414,"Delta":165941345},{"NoteNumber":55,"Velocity":22,"Duration":172414,"SoundDuration":172414,"Delta":166113759},{"NoteNumber":62,"Velocity":30,"Duration":171920,"SoundDuration":171920,"Delta":166286173},{"NoteNumber":65,"Velocity":40,"Duration":343840,"SoundDuration":343840,"Delta":166286173},{"NoteNumber":55,"Velocity":21,"Duration":171920,"SoundDuration":171920,"Delta":166458093},{"NoteNumber":63,"Velocity":30,"Duration":170454,"SoundDuration":170454,"Delta":166630013},{"NoteNumber":66,"Velocity":35,"Duration":340909,"SoundDuration":340909,"Delta":166630013},{"NoteNumber":55,"Velocity":22,"Duration":170454,"SoundDuration":170454,"Delta":166800467},{"NoteNumber":67,"Velocity":40,"Duration":338028,"SoundDuration":338028,"Delta":166970922},{"NoteNumber":64,"Velocity":30,"Duration":169014,"SoundDuration":169014,"Delta":166970922},{"NoteNumber":55,"Velocity":23,"Duration":169014,"SoundDuration":169014,"Delta":167139936},{"NoteNumber":65,"Velocity":30,"Duration":169014,"SoundDuration":169014,"Delta":167308950},{"NoteNumber":69,"Velocity":36,"Duration":338027,"SoundDuration":338027,"Delta":167308950},{"NoteNumber":55,"Velocity":24,"Duration":169013,"SoundDuration":169013,"Delta":167477964},{"NoteNumber":62,"Velocity":30,"Duration":169014,"SoundDuration":169014,"Delta":167646978},{"NoteNumber":71,"Velocity":40,"Duration":338028,"SoundDuration":338028,"Delta":167646978},{"NoteNumber":55,"Velocity":24,"Duration":169014,"SoundDuration":169014,"Delta":167815992},{"NoteNumber":64,"Velocity":30,"Duration":169014,"SoundDuration":169014,"Delta":167985006},{"NoteNumber":72,"Velocity":44,"Duration":338028,"SoundDuration":338028,"Delta":167985006},{"NoteNumber":60,"Velocity":23,"Duration":169014,"SoundDuration":169014,"Delta":168154020},{"NoteNumber":65,"Velocity":30,"Duration":169014,"SoundDuration":169014,"Delta":168323034},{"NoteNumber":74,"Velocity":49,"Duration":338028,"SoundDuration":338028,"Delta":168323034},{"NoteNumber":60,"Velocity":30,"Duration":169014,"SoundDuration":169014,"Delta":168492048},{"NoteNumber":67,"Velocity":30,"Duration":192307,"SoundDuration":192307,"Delta":168661062},{"NoteNumber":76,"Velocity":57,"Duration":384614,"SoundDuration":384614,"Delta":168661062},{"NoteNumber":60,"Velocity":30,"Duration":192307,"SoundDuration":192307,"Delta":168853369},{"NoteNumber":70,"Velocity":30,"Duration":165746,"SoundDuration":165746,"Delta":169045677},{"NoteNumber":73,"Velocity":30,"Duration":165746,"SoundDuration":165746,"Delta":169045677},{"NoteNumber":79,"Velocity":62,"Duration":1004284,"SoundDuration":1004284,"Delta":169045677},{"NoteNumber":41,"Velocity":40,"Duration":2036357,"SoundDuration":2036357,"Delta":169045677},{"NoteNumber":29,"Velocity":34,"Duration":2036357,"SoundDuration":2036357,"Delta":169045677},{"NoteNumber":64,"Velocity":33,"Duration":169491,"SoundDuration":169491,"Delta":169211423},{"NoteNumber":70,"Velocity":38,"Duration":166666,"SoundDuration":166666,"Delta":169380914},{"NoteNumber":73,"Velocity":38,"Duration":166666,"SoundDuration":166666,"Delta":169380914},{"NoteNumber":64,"Velocity":32,"Duration":167618,"SoundDuration":167618,"Delta":169547581},{"NoteNumber":70,"Velocity":38,"Duration":165745,"SoundDuration":165745,"Delta":169715199},{"NoteNumber":73,"Velocity":38,"Duration":165745,"SoundDuration":165745,"Delta":169715199},{"NoteNumber":64,"Velocity":34,"Duration":169015,"SoundDuration":169015,"Delta":169880945},{"NoteNumber":77,"Velocity":57,"Duration":674158,"SoundDuration":674158,"Delta":170049961},{"NoteNumber":74,"Velocity":30,"Duration":168539,"SoundDuration":168539,"Delta":170049961},{"NoteNumber":69,"Velocity":30,"Duration":168539,"SoundDuration":168539,"Delta":170049961},{"NoteNumber":65,"Velocity":27,"Duration":168539,"SoundDuration":168539,"Delta":170218500},{"NoteNumber":69,"Velocity":34,"Duration":168539,"SoundDuration":168539,"Delta":170387040},{"NoteNumber":74,"Velocity":34,"Duration":168539,"SoundDuration":168539,"Delta":170387040},{"NoteNumber":65,"Velocity":27,"Duration":168539,"SoundDuration":168539,"Delta":170555579},{"NoteNumber":70,"Velocity":37,"Duration":175952,"SoundDuration":175952,"Delta":170724119},{"NoteNumber":76,"Velocity":50,"Duration":361870,"SoundDuration":361870,"Delta":170724119},{"NoteNumber":73,"Velocity":37,"Duration":175952,"SoundDuration":175952,"Delta":170724119},{"NoteNumber":67,"Velocity":29,"Duration":189873,"SoundDuration":189873,"Delta":170900072},{"NoteNumber":73,"Velocity":43,"Duration":168067,"SoundDuration":168067,"Delta":171089945},{"NoteNumber":76,"Velocity":51,"Duration":672268,"SoundDuration":672268,"Delta":171089945},{"NoteNumber":70,"Velocity":38,"Duration":168067,"SoundDuration":168067,"Delta":171089945},{"NoteNumber":29,"Velocity":34,"Duration":2038011,"SoundDuration":2038011,"Delta":171089945},{"NoteNumber":41,"Velocity":40,"Duration":2038011,"SoundDuration":2038011,"Delta":171089945},{"NoteNumber":67,"Velocity":26,"Duration":168066,"SoundDuration":168066,"Delta":171258012},{"NoteNumber":73,"Velocity":33,"Duration":168067,"SoundDuration":168067,"Delta":171426079},{"NoteNumber":70,"Velocity":29,"Duration":168067,"SoundDuration":168067,"Delta":171426079},{"NoteNumber":67,"Velocity":26,"Duration":168067,"SoundDuration":168067,"Delta":171594146},{"NoteNumber":69,"Velocity":35,"Duration":168067,"SoundDuration":168067,"Delta":171762213},{"NoteNumber":74,"Velocity":47,"Duration":336133,"SoundDuration":336133,"Delta":171762213},{"NoteNumber":65,"Velocity":26,"Duration":168066,"SoundDuration":168066,"Delta":171930280},{"NoteNumber":69,"Velocity":33,"Duration":168067,"SoundDuration":168067,"Delta":172098347},{"NoteNumber":76,"Velocity":44,"Duration":672268,"SoundDuration":672268,"Delta":172098347},{"NoteNumber":73,"Velocity":33,"Duration":168067,"SoundDuration":168067,"Delta":172098347},{"NoteNumber":64,"Velocity":26,"Duration":168067,"SoundDuration":168067,"Delta":172266414},{"NoteNumber":69,"Velocity":26,"Duration":168067,"SoundDuration":168067,"Delta":172434481},{"NoteNumber":73,"Velocity":26,"Duration":168067,"SoundDuration":168067,"Delta":172434481},{"NoteNumber":64,"Velocity":26,"Duration":168066,"SoundDuration":168066,"Delta":172602548},{"NoteNumber":74,"Velocity":35,"Duration":168067,"SoundDuration":168067,"Delta":172770615},{"NoteNumber":77,"Velocity":47,"Duration":357341,"SoundDuration":357341,"Delta":172770615},{"NoteNumber":69,"Velocity":35,"Duration":168067,"SoundDuration":168067,"Delta":172770615},{"NoteNumber":65,"Velocity":28,"Duration":189274,"SoundDuration":189274,"Delta":172938682},{"NoteNumber":67,"Velocity":30,"Duration":174926,"SoundDuration":174926,"Delta":173127957},{"NoteNumber":72,"Velocity":40,"Duration":2079737,"SoundDuration":2079737,"Delta":173127957},{"NoteNumber":52,"Velocity":35,"Duration":1394988,"SoundDuration":1394988,"Delta":173127957},{"NoteNumber":43,"Velocity":29,"Duration":2079737,"SoundDuration":2079737,"Delta":173127957},{"NoteNumber":64,"Velocity":20,"Duration":174926,"SoundDuration":174926,"Delta":173302884},{"NoteNumber":67,"Velocity":30,"Duration":172910,"SoundDuration":172910,"Delta":173477811},{"NoteNumber":64,"Velocity":21,"Duration":177514,"SoundDuration":177514,"Delta":173650721},{"NoteNumber":67,"Velocity":30,"Duration":173410,"SoundDuration":173410,"Delta":173828236},{"NoteNumber":64,"Velocity":20,"Duration":176470,"SoundDuration":176470,"Delta":174001647},{"NoteNumber":67,"Velocity":30,"Duration":172414,"SoundDuration":172414,"Delta":174178117},{"NoteNumber":64,"Velocity":22,"Duration":172414,"SoundDuration":172414,"Delta":174350531},{"NoteNumber":67,"Velocity":30,"Duration":171920,"SoundDuration":171920,"Delta":174522945},{"NoteNumber":53,"Velocity":40,"Duration":343840,"SoundDuration":343840,"Delta":174522945},{"NoteNumber":64,"Velocity":21,"Duration":171920,"SoundDuration":171920,"Delta":174694865},{"NoteNumber":69,"Velocity":30,"Duration":170454,"SoundDuration":170454,"Delta":174866785},{"NoteNumber":54,"Velocity":35,"Duration":340909,"SoundDuration":340909,"Delta":174866785},{"NoteNumber":64,"Velocity":22,"Duration":170454,"SoundDuration":170454,"Delta":175037240},{"NoteNumber":67,"Velocity":30,"Duration":169014,"SoundDuration":169014,"Delta":175207694},{"NoteNumber":71,"Velocity":40,"Duration":338028,"SoundDuration":338028,"Delta":175207694},{"NoteNumber":55,"Velocity":40,"Duration":330985,"SoundDuration":330985,"Delta":175207694},{"NoteNumber":62,"Velocity":23,"Duration":169014,"SoundDuration":169014,"Delta":175376708},{"NoteNumber":67,"Velocity":30,"Duration":169014,"SoundDuration":169014,"Delta":175545722},{"NoteNumber":72,"Velocity":36,"Duration":338027,"SoundDuration":338027,"Delta":175545722},{"NoteNumber":55,"Velocity":29,"Duration":1352112,"SoundDuration":1352112,"Delta":175545722},{"NoteNumber":57,"Velocity":36,"Duration":338027,"SoundDuration":338027,"Delta":175545722},{"NoteNumber":65,"Velocity":24,"Duration":169013,"SoundDuration":169013,"Delta":175714736},{"NoteNumber":67,"Velocity":30,"Duration":169014,"SoundDuration":169014,"Delta":175883750},{"NoteNumber":74,"Velocity":40,"Duration":338028,"SoundDuration":338028,"Delta":175883750},{"NoteNumber":59,"Velocity":40,"Duration":338028,"SoundDuration":338028,"Delta":175883750},{"NoteNumber":65,"Velocity":24,"Duration":169014,"SoundDuration":169014,"Delta":176052764},{"NoteNumber":67,"Velocity":30,"Duration":169014,"SoundDuration":169014,"Delta":176221778},{"NoteNumber":76,"Velocity":44,"Duration":338028,"SoundDuration":338028,"Delta":176221778},{"NoteNumber":60,"Velocity":37,"Duration":338028,"SoundDuration":338028,"Delta":176221778},{"NoteNumber":64,"Velocity":23,"Duration":169014,"SoundDuration":169014,"Delta":176390792},{"NoteNumber":77,"Velocity":49,"Duration":338028,"SoundDuration":338028,"Delta":176559806},{"NoteNumber":71,"Velocity":30,"Duration":169014,"SoundDuration":169014,"Delta":176559806},{"NoteNumber":62,"Velocity":41,"Duration":338028,"SoundDuration":338028,"Delta":176559806},{"NoteNumber":67,"Velocity":30,"Duration":169014,"SoundDuration":169014,"Delta":176728820},{"NoteNumber":72,"Velocity":30,"Duration":192307,"SoundDuration":192307,"Delta":176897834},{"NoteNumber":79,"Velocity":57,"Duration":384614,"SoundDuration":384614,"Delta":176897834},{"NoteNumber":64,"Velocity":48,"Duration":384614,"SoundDuration":384614,"Delta":176897834},{"NoteNumber":67,"Velocity":30,"Duration":192307,"SoundDuration":192307,"Delta":177090142},{"NoteNumber":82,"Velocity":62,"Duration":1003388,"SoundDuration":1003388,"Delta":177282449},{"NoteNumber":73,"Velocity":34,"Duration":166666,"SoundDuration":166666,"Delta":177282449},{"NoteNumber":52,"Velocity":34,"Duration":1003388,"SoundDuration":1003388,"Delta":177282449},{"NoteNumber":67,"Velocity":40,"Duration":1003388,"SoundDuration":1003388,"Delta":177282449},{"NoteNumber":58,"Velocity":34,"Duration":1003388,"SoundDuration":1003388,"Delta":177282449},{"NoteNumber":61,"Velocity":34,"Duration":1003388,"SoundDuration":1003388,"Delta":177282449},{"NoteNumber":70,"Velocity":37,"Duration":169972,"SoundDuration":169972,"Delta":177449116},{"NoteNumber":73,"Velocity":43,"Duration":165289,"SoundDuration":165289,"Delta":177619089},{"NoteNumber":70,"Velocity":36,"Duration":168539,"SoundDuration":168539,"Delta":177784378},{"NoteNumber":73,"Velocity":43,"Duration":165289,"SoundDuration":165289,"Delta":177952918},{"NoteNumber":70,"Velocity":38,"Duration":167630,"SoundDuration":167630,"Delta":178118207},{"NoteNumber":81,"Velocity":57,"Duration":670391,"SoundDuration":670391,"Delta":178285838},{"NoteNumber":74,"Velocity":34,"Duration":167597,"SoundDuration":167597,"Delta":178285838},{"NoteNumber":54,"Velocity":34,"Duration":670391,"SoundDuration":670391,"Delta":178285838},{"NoteNumber":62,"Velocity":34,"Duration":670391,"SoundDuration":670391,"Delta":178285838},{"NoteNumber":66,"Velocity":40,"Duration":670391,"SoundDuration":670391,"Delta":178285838},{"NoteNumber":57,"Velocity":34,"Duration":670391,"SoundDuration":670391,"Delta":178285838},{"NoteNumber":69,"Velocity":30,"Duration":167597,"SoundDuration":167597,"Delta":178453436},{"NoteNumber":74,"Velocity":36,"Duration":167597,"SoundDuration":167597,"Delta":178621034},{"NoteNumber":69,"Velocity":29,"Duration":167597,"SoundDuration":167597,"Delta":178788632},{"NoteNumber":74,"Velocity":34,"Duration":175952,"SoundDuration":175952,"Delta":178956230},{"NoteNumber":80,"Velocity":42,"Duration":348240,"SoundDuration":348240,"Delta":178956230},{"NoteNumber":65,"Velocity":33,"Duration":351906,"SoundDuration":351906,"Delta":178956230},{"NoteNumber":56,"Velocity":28,"Duration":351906,"SoundDuration":351906,"Delta":178956230},{"NoteNumber":71,"Velocity":26,"Duration":175953,"SoundDuration":175953,"Delta":179132183},{"NoteNumber":73,"Velocity":34,"Duration":168067,"SoundDuration":168067,"Delta":179308136},{"NoteNumber":79,"Velocity":45,"Duration":671851,"SoundDuration":671851,"Delta":179308136},{"NoteNumber":57,"Velocity":30,"Duration":2060883,"SoundDuration":2060883,"Delta":179308136},{"NoteNumber":64,"Velocity":36,"Duration":671851,"SoundDuration":671851,"Delta":179308136},{"NoteNumber":69,"Velocity":23,"Duration":168066,"SoundDuration":168066,"Delta":179476203},{"NoteNumber":73,"Velocity":26,"Duration":165746,"SoundDuration":165746,"Delta":179644270},{"NoteNumber":69,"Velocity":23,"Duration":169971,"SoundDuration":169971,"Delta":179810016},{"NoteNumber":78,"Velocity":42,"Duration":334261,"SoundDuration":334261,"Delta":179979987},{"NoteNumber":73,"Velocity":31,"Duration":167131,"SoundDuration":167131,"Delta":179979987},{"NoteNumber":63,"Velocity":32,"Duration":334261,"SoundDuration":334261,"Delta":179979987},{"NoteNumber":69,"Velocity":23,"Duration":167130,"SoundDuration":167130,"Delta":180147118},{"NoteNumber":79,"Velocity":39,"Duration":668091,"SoundDuration":668091,"Delta":180314249},{"NoteNumber":73,"Velocity":29,"Duration":165289,"SoundDuration":165289,"Delta":180314249},{"NoteNumber":64,"Velocity":36,"Duration":668091,"SoundDuration":668091,"Delta":180314249},{"NoteNumber":69,"Velocity":23,"Duration":168539,"SoundDuration":168539,"Delta":180479539},{"NoteNumber":73,"Velocity":23,"Duration":167131,"SoundDuration":167131,"Delta":180648078},{"NoteNumber":69,"Velocity":23,"Duration":167130,"SoundDuration":167130,"Delta":180815209},{"NoteNumber":73,"Velocity":31,"Duration":173912,"SoundDuration":173912,"Delta":180982340},{"NoteNumber":82,"Velocity":42,"Duration":386678,"SoundDuration":386678,"Delta":180982340},{"NoteNumber":67,"Velocity":33,"Duration":386678,"SoundDuration":386678,"Delta":180982340},{"NoteNumber":69,"Velocity":25,"Duration":212765,"SoundDuration":212765,"Delta":181156253},{"NoteNumber":73,"Velocity":27,"Duration":169014,"SoundDuration":169014,"Delta":181369019},{"NoteNumber":81,"Velocity":51,"Duration":1019895,"SoundDuration":1019895,"Delta":181369019},{"NoteNumber":65,"Velocity":36,"Duration":1019895,"SoundDuration":1019895,"Delta":181369019},{"NoteNumber":58,"Velocity":30,"Duration":2044070,"SoundDuration":2044070,"Delta":181369019},{"NoteNumber":70,"Velocity":24,"Duration":169014,"SoundDuration":169014,"Delta":181538033},{"NoteNumber":73,"Velocity":30,"Duration":169014,"SoundDuration":169014,"Delta":181707047},{"NoteNumber":70,"Velocity":24,"Duration":169013,"SoundDuration":169013,"Delta":181876061},{"NoteNumber":73,"Velocity":29,"Duration":171920,"SoundDuration":171920,"Delta":182045075},{"NoteNumber":70,"Velocity":23,"Duration":171920,"SoundDuration":171920,"Delta":182216995},{"NoteNumber":73,"Velocity":38,"Duration":168067,"SoundDuration":168067,"Delta":182388915},{"NoteNumber":79,"Velocity":45,"Duration":336133,"SoundDuration":336133,"Delta":182388915},{"NoteNumber":64,"Velocity":36,"Duration":665265,"SoundDuration":665265,"Delta":182388915},{"NoteNumber":70,"Velocity":23,"Duration":168066,"SoundDuration":168066,"Delta":182556982},{"NoteNumber":73,"Velocity":26,"Duration":168067,"SoundDuration":168067,"Delta":182725049},{"NoteNumber":70,"Velocity":23,"Duration":168067,"SoundDuration":168067,"Delta":182893116},{"NoteNumber":73,"Velocity":30,"Duration":175952,"SoundDuration":175952,"Delta":183061183},{"NoteNumber":79,"Velocity":42,"Duration":348240,"SoundDuration":348240,"Delta":183061183},{"NoteNumber":64,"Velocity":33,"Duration":344574,"SoundDuration":344574,"Delta":183061183},{"NoteNumber":70,"Velocity":23,"Duration":175953,"SoundDuration":175953,"Delta":183237136},{"NoteNumber":76,"Velocity":34,"Duration":168067,"SoundDuration":168067,"Delta":183413089},{"NoteNumber":79,"Velocity":45,"Duration":672268,"SoundDuration":672268,"Delta":183413089},{"NoteNumber":59,"Velocity":30,"Duration":2067391,"SoundDuration":2067391,"Delta":183413089},{"NoteNumber":64,"Velocity":36,"Duration":672268,"SoundDuration":672268,"Delta":183413089},{"NoteNumber":71,"Velocity":23,"Duration":168066,"SoundDuration":168066,"Delta":183581156},{"NoteNumber":76,"Velocity":26,"Duration":168067,"SoundDuration":168067,"Delta":183749223},{"NoteNumber":71,"Velocity":23,"Duration":168067,"SoundDuration":168067,"Delta":183917290},{"NoteNumber":78,"Velocity":42,"Duration":336176,"SoundDuration":336176,"Delta":184085357},{"NoteNumber":76,"Velocity":31,"Duration":166204,"SoundDuration":166204,"Delta":184085357},{"NoteNumber":63,"Velocity":32,"Duration":336176,"SoundDuration":336176,"Delta":184085357},{"NoteNumber":71,"Velocity":23,"Duration":169971,"SoundDuration":169971,"Delta":184251562},{"NoteNumber":76,"Velocity":29,"Duration":168067,"SoundDuration":168067,"Delta":184421534},{"NoteNumber":79,"Velocity":39,"Duration":672268,"SoundDuration":672268,"Delta":184421534},{"NoteNumber":64,"Velocity":36,"Duration":672268,"SoundDuration":672268,"Delta":184421534},{"NoteNumber":71,"Velocity":23,"Duration":168066,"SoundDuration":168066,"Delta":184589601},{"NoteNumber":76,"Velocity":23,"Duration":168067,"SoundDuration":168067,"Delta":184757668},{"NoteNumber":71,"Velocity":23,"Duration":168067,"SoundDuration":168067,"Delta":184925735},{"NoteNumber":76,"Velocity":31,"Duration":173912,"SoundDuration":173912,"Delta":185093802},{"NoteNumber":83,"Velocity":42,"Duration":386678,"SoundDuration":386678,"Delta":185093802},{"NoteNumber":67,"Velocity":33,"Duration":386678,"SoundDuration":386678,"Delta":185093802},{"NoteNumber":71,"Velocity":25,"Duration":212765,"SoundDuration":212765,"Delta":185267715},{"NoteNumber":81,"Velocity":51,"Duration":1019895,"SoundDuration":1019895,"Delta":185480481},{"NoteNumber":76,"Velocity":27,"Duration":169014,"SoundDuration":169014,"Delta":185480481},{"NoteNumber":66,"Velocity":36,"Duration":1019895,"SoundDuration":1019895,"Delta":185480481},{"NoteNumber":60,"Velocity":30,"Duration":1019895,"SoundDuration":1019895,"Delta":185480481},{"NoteNumber":70,"Velocity":24,"Duration":169014,"SoundDuration":169014,"Delta":185649495},{"NoteNumber":76,"Velocity":30,"Duration":169014,"SoundDuration":169014,"Delta":185818509},{"NoteNumber":70,"Velocity":24,"Duration":169013,"SoundDuration":169013,"Delta":185987523},{"NoteNumber":76,"Velocity":29,"Duration":171920,"SoundDuration":171920,"Delta":186156537},{"NoteNumber":70,"Velocity":23,"Duration":171920,"SoundDuration":171920,"Delta":186328457},{"NoteNumber":79,"Velocity":45,"Duration":336133,"SoundDuration":336133,"Delta":186500377},{"NoteNumber":76,"Velocity":34,"Duration":168067,"SoundDuration":168067,"Delta":186500377},{"NoteNumber":61,"Velocity":30,"Duration":1024174,"SoundDuration":1024174,"Delta":186500377},{"NoteNumber":64,"Velocity":36,"Duration":1016842,"SoundDuration":1016842,"Delta":186500377},{"NoteNumber":70,"Velocity":23,"Duration":168066,"SoundDuration":168066,"Delta":186668444},{"NoteNumber":76,"Velocity":26,"Duration":168067,"SoundDuration":168067,"Delta":186836511},{"NoteNumber":70,"Velocity":23,"Duration":168067,"SoundDuration":168067,"Delta":187004578},{"NoteNumber":79,"Velocity":42,"Duration":348240,"SoundDuration":348240,"Delta":187172645},{"NoteNumber":76,"Velocity":30,"Duration":175952,"SoundDuration":175952,"Delta":187172645},{"NoteNumber":70,"Velocity":23,"Duration":175953,"SoundDuration":175953,"Delta":187348598},{"NoteNumber":71,"Velocity":34,"Duration":166204,"SoundDuration":166204,"Delta":187524551},{"NoteNumber":79,"Velocity":45,"Duration":671155,"SoundDuration":671155,"Delta":187524551},{"NoteNumber":62,"Velocity":36,"Duration":671155,"SoundDuration":671155,"Delta":187524551},{"NoteNumber":67,"Velocity":23,"Duration":169731,"SoundDuration":169731,"Delta":187690756},{"NoteNumber":71,"Velocity":26,"Duration":166204,"SoundDuration":166204,"Delta":187860487},{"NoteNumber":67,"Velocity":23,"Duration":169014,"SoundDuration":169014,"Delta":188026692},{"NoteNumber":71,"Velocity":31,"Duration":166204,"SoundDuration":166204,"Delta":188195706},{"NoteNumber":78,"Velocity":42,"Duration":335218,"SoundDuration":335218,"Delta":188195706},{"NoteNumber":67,"Velocity":23,"Duration":169014,"SoundDuration":169014,"Delta":188361911},{"NoteNumber":79,"Velocity":39,"Duration":668523,"SoundDuration":668523,"Delta":188530925},{"NoteNumber":71,"Velocity":29,"Duration":167131,"SoundDuration":167131,"Delta":188530925},{"NoteNumber":67,"Velocity":23,"Duration":167130,"SoundDuration":167130,"Delta":188698056},{"NoteNumber":71,"Velocity":23,"Duration":167131,"SoundDuration":167131,"Delta":188865187},{"NoteNumber":67,"Velocity":23,"Duration":167130,"SoundDuration":167130,"Delta":189032318},{"NoteNumber":74,"Velocity":42,"Duration":386678,"SoundDuration":386678,"Delta":189199449},{"NoteNumber":71,"Velocity":31,"Duration":173912,"SoundDuration":173912,"Delta":189199449},{"NoteNumber":67,"Velocity":25,"Duration":212765,"SoundDuration":212765,"Delta":189373362},{"NoteNumber":70,"Velocity":34,"Duration":168067,"SoundDuration":168067,"Delta":189586128},{"NoteNumber":55,"Velocity":45,"Duration":672268,"SoundDuration":672268,"Delta":189586128},{"NoteNumber":67,"Velocity":23,"Duration":168066,"SoundDuration":168066,"Delta":189754195},{"NoteNumber":70,"Velocity":26,"Duration":168067,"SoundDuration":168067,"Delta":189922262},{"NoteNumber":67,"Velocity":23,"Duration":168067,"SoundDuration":168067,"Delta":190090329},{"NoteNumber":70,"Velocity":31,"Duration":165289,"SoundDuration":165289,"Delta":190258396},{"NoteNumber":54,"Velocity":42,"Duration":335261,"SoundDuration":335261,"Delta":190258396},{"NoteNumber":67,"Velocity":23,"Duration":169971,"SoundDuration":169971,"Delta":190423686},{"NoteNumber":70,"Velocity":29,"Duration":168067,"SoundDuration":168067,"Delta":190593657},{"NoteNumber":55,"Velocity":39,"Duration":672268,"SoundDuration":672268,"Delta":190593657},{"NoteNumber":67,"Velocity":23,"Duration":168066,"SoundDuration":168066,"Delta":190761724},{"NoteNumber":70,"Velocity":23,"Duration":168067,"SoundDuration":168067,"Delta":190929791},{"NoteNumber":67,"Velocity":23,"Duration":168067,"SoundDuration":168067,"Delta":191097858},{"NoteNumber":70,"Velocity":31,"Duration":173912,"SoundDuration":173912,"Delta":191265925},{"NoteNumber":50,"Velocity":42,"Duration":386678,"SoundDuration":386678,"Delta":191265925},{"NoteNumber":67,"Velocity":25,"Duration":212765,"SoundDuration":212765,"Delta":191439838},{"NoteNumber":74,"Velocity":45,"Duration":670437,"SoundDuration":670437,"Delta":191652604},{"NoteNumber":66,"Velocity":34,"Duration":166204,"SoundDuration":166204,"Delta":191652604},{"NoteNumber":62,"Velocity":23,"Duration":169014,"SoundDuration":169014,"Delta":191818809},{"NoteNumber":66,"Velocity":26,"Duration":166204,"SoundDuration":166204,"Delta":191987823},{"NoteNumber":62,"Velocity":23,"Duration":169014,"SoundDuration":169014,"Delta":192154028},{"NoteNumber":66,"Velocity":31,"Duration":169014,"SoundDuration":169014,"Delta":192323042},{"NoteNumber":73,"Velocity":42,"Duration":338028,"SoundDuration":338028,"Delta":192323042},{"NoteNumber":62,"Velocity":23,"Duration":169014,"SoundDuration":169014,"Delta":192492056},{"NoteNumber":74,"Velocity":39,"Duration":670391,"SoundDuration":670391,"Delta":192661070},{"NoteNumber":66,"Velocity":29,"Duration":167597,"SoundDuration":167597,"Delta":192661070},{"NoteNumber":62,"Velocity":23,"Duration":167597,"SoundDuration":167597,"Delta":192828668},{"NoteNumber":66,"Velocity":23,"Duration":167597,"SoundDuration":167597,"Delta":192996266},{"NoteNumber":62,"Velocity":23,"Duration":167597,"SoundDuration":167597,"Delta":193163864},{"NoteNumber":69,"Velocity":42,"Duration":386678,"SoundDuration":386678,"Delta":193331462},{"NoteNumber":66,"Velocity":31,"Duration":173912,"SoundDuration":173912,"Delta":193331462},{"NoteNumber":62,"Velocity":25,"Duration":212765,"SoundDuration":212765,"Delta":193505375},{"NoteNumber":65,"Velocity":32,"Duration":168067,"SoundDuration":168067,"Delta":193718141},{"NoteNumber":50,"Velocity":42,"Duration":672268,"SoundDuration":672268,"Delta":193718141},{"NoteNumber":62,"Velocity":21,"Duration":168066,"SoundDuration":168066,"Delta":193886208},{"NoteNumber":65,"Velocity":24,"Duration":168067,"SoundDuration":168067,"Delta":194054275},{"NoteNumber":62,"Velocity":21,"Duration":168067,"SoundDuration":168067,"Delta":194222342},{"NoteNumber":65,"Velocity":28,"Duration":164835,"SoundDuration":164835,"Delta":194390409},{"NoteNumber":49,"Velocity":39,"Duration":336263,"SoundDuration":336263,"Delta":194390409},{"NoteNumber":62,"Velocity":21,"Duration":171428,"SoundDuration":171428,"Delta":194555244},{"NoteNumber":65,"Velocity":27,"Duration":168067,"SoundDuration":168067,"Delta":194726673},{"NoteNumber":50,"Velocity":35,"Duration":672268,"SoundDuration":672268,"Delta":194726673},{"NoteNumber":62,"Velocity":20,"Duration":168066,"SoundDuration":168066,"Delta":194894740},{"NoteNumber":65,"Velocity":20,"Duration":168067,"SoundDuration":168067,"Delta":195062807},{"NoteNumber":62,"Velocity":20,"Duration":168067,"SoundDuration":168067,"Delta":195230874},{"NoteNumber":65,"Velocity":27,"Duration":173912,"SoundDuration":173912,"Delta":195398941},{"NoteNumber":45,"Velocity":37,"Duration":386678,"SoundDuration":386678,"Delta":195398941},{"NoteNumber":62,"Velocity":21,"Duration":212765,"SoundDuration":212765,"Delta":195572854},{"NoteNumber":74,"Velocity":34,"Duration":672268,"SoundDuration":672268,"Delta":195785620},{"NoteNumber":65,"Velocity":26,"Duration":168067,"SoundDuration":168067,"Delta":195785620},{"NoteNumber":62,"Velocity":19,"Duration":168066,"SoundDuration":168066,"Delta":195953687},{"NoteNumber":65,"Velocity":19,"Duration":168067,"SoundDuration":168067,"Delta":196121754},{"NoteNumber":62,"Velocity":19,"Duration":168067,"SoundDuration":168067,"Delta":196289821},{"NoteNumber":65,"Velocity":27,"Duration":173912,"SoundDuration":173912,"Delta":196457888},{"NoteNumber":73,"Velocity":36,"Duration":357398,"SoundDuration":357398,"Delta":196457888},{"NoteNumber":62,"Velocity":21,"Duration":183485,"SoundDuration":183485,"Delta":196631801},{"NoteNumber":65,"Velocity":28,"Duration":168067,"SoundDuration":168067,"Delta":196815287},{"NoteNumber":50,"Velocity":38,"Duration":672268,"SoundDuration":672268,"Delta":196815287},{"NoteNumber":62,"Velocity":19,"Duration":168066,"SoundDuration":168066,"Delta":196983354},{"NoteNumber":65,"Velocity":21,"Duration":168067,"SoundDuration":168067,"Delta":197151421},{"NoteNumber":62,"Velocity":18,"Duration":168067,"SoundDuration":168067,"Delta":197319488},{"NoteNumber":65,"Velocity":26,"Duration":168067,"SoundDuration":168067,"Delta":197487555},{"NoteNumber":44,"Velocity":34,"Duration":340977,"SoundDuration":340977,"Delta":197487555},{"NoteNumber":62,"Velocity":18,"Duration":172910,"SoundDuration":172910,"Delta":197655622},{"NoteNumber":65,"Velocity":24,"Duration":168539,"SoundDuration":168539,"Delta":197828532},{"NoteNumber":74,"Velocity":31,"Duration":1694751,"SoundDuration":1694751,"Delta":197828532},{"NoteNumber":62,"Velocity":18,"Duration":168539,"SoundDuration":168539,"Delta":197997072},{"NoteNumber":65,"Velocity":18,"Duration":168539,"SoundDuration":168539,"Delta":198165611},{"NoteNumber":62,"Velocity":18,"Duration":168539,"SoundDuration":168539,"Delta":198334151},{"NoteNumber":65,"Velocity":25,"Duration":168067,"SoundDuration":168067,"Delta":198502690},{"NoteNumber":62,"Velocity":19,"Duration":176470,"SoundDuration":176470,"Delta":198670757},{"NoteNumber":65,"Velocity":27,"Duration":169014,"SoundDuration":169014,"Delta":198847228},{"NoteNumber":50,"Velocity":35,"Duration":676055,"SoundDuration":676055,"Delta":198847228},{"NoteNumber":62,"Velocity":18,"Duration":169014,"SoundDuration":169014,"Delta":199016242},{"NoteNumber":65,"Velocity":19,"Duration":169014,"SoundDuration":169014,"Delta":199185256},{"NoteNumber":62,"Velocity":18,"Duration":169013,"SoundDuration":169013,"Delta":199354270},{"NoteNumber":65,"Velocity":19,"Duration":371281,"SoundDuration":371281,"Delta":199523284},{"NoteNumber":59,"Velocity":23,"Duration":173912,"SoundDuration":173912,"Delta":199523284},{"NoteNumber":43,"Velocity":32,"Duration":371281,"SoundDuration":371281,"Delta":199523284},{"NoteNumber":55,"Velocity":17,"Duration":197368,"SoundDuration":197368,"Delta":199697197},{"NoteNumber":60,"Velocity":30,"Duration":174926,"SoundDuration":174926,"Delta":199894565},{"NoteNumber":63,"Velocity":40,"Duration":1394390,"SoundDuration":1394390,"Delta":199894565},{"NoteNumber":43,"Velocity":35,"Duration":4153894,"SoundDuration":4153894,"Delta":199894565},{"NoteNumber":36,"Velocity":29,"Duration":4153894,"SoundDuration":4153894,"Delta":199894565},{"NoteNumber":55,"Velocity":20,"Duration":174926,"SoundDuration":174926,"Delta":200069492},{"NoteNumber":60,"Velocity":30,"Duration":174926,"SoundDuration":174926,"Delta":200244419},{"NoteNumber":55,"Velocity":21,"Duration":174926,"SoundDuration":174926,"Delta":200419346},{"NoteNumber":60,"Velocity":30,"Duration":174927,"SoundDuration":174927,"Delta":200594273},{"NoteNumber":55,"Velocity":20,"Duration":174926,"SoundDuration":174926,"Delta":200769200},{"NoteNumber":60,"Velocity":34,"Duration":172414,"SoundDuration":172414,"Delta":200944127},{"NoteNumber":55,"Velocity":25,"Duration":172414,"SoundDuration":172414,"Delta":201116541},{"NoteNumber":62,"Velocity":34,"Duration":171920,"SoundDuration":171920,"Delta":201288955},{"NoteNumber":65,"Velocity":40,"Duration":343840,"SoundDuration":343840,"Delta":201288955},{"NoteNumber":55,"Velocity":24,"Duration":171920,"SoundDuration":171920,"Delta":201460875},{"NoteNumber":62,"Velocity":34,"Duration":170454,"SoundDuration":170454,"Delta":201632795},{"NoteNumber":66,"Velocity":35,"Duration":340909,"SoundDuration":340909,"Delta":201632795},{"NoteNumber":55,"Velocity":25,"Duration":170454,"SoundDuration":170454,"Delta":201803250},{"NoteNumber":67,"Velocity":40,"Duration":338028,"SoundDuration":338028,"Delta":201973704},{"NoteNumber":63,"Velocity":34,"Duration":169014,"SoundDuration":169014,"Delta":201973704},{"NoteNumber":55,"Velocity":26,"Duration":169014,"SoundDuration":169014,"Delta":202142718},{"NoteNumber":65,"Velocity":34,"Duration":169014,"SoundDuration":169014,"Delta":202311732},{"NoteNumber":69,"Velocity":36,"Duration":338027,"SoundDuration":338027,"Delta":202311732},{"NoteNumber":55,"Velocity":27,"Duration":169013,"SoundDuration":169013,"Delta":202480746},{"NoteNumber":62,"Velocity":34,"Duration":169014,"SoundDuration":169014,"Delta":202649760},{"NoteNumber":71,"Velocity":40,"Duration":338028,"SoundDuration":338028,"Delta":202649760},{"NoteNumber":55,"Velocity":27,"Duration":169014,"SoundDuration":169014,"Delta":202818774},{"NoteNumber":63,"Velocity":34,"Duration":169014,"SoundDuration":169014,"Delta":202987788},{"NoteNumber":72,"Velocity":44,"Duration":338028,"SoundDuration":338028,"Delta":202987788},{"NoteNumber":60,"Velocity":26,"Duration":169014,"SoundDuration":169014,"Delta":203156802},{"NoteNumber":65,"Velocity":34,"Duration":169014,"SoundDuration":169014,"Delta":203325816},{"NoteNumber":74,"Velocity":49,"Duration":338028,"SoundDuration":338028,"Delta":203325816},{"NoteNumber":60,"Velocity":34,"Duration":169014,"SoundDuration":169014,"Delta":203494830},{"NoteNumber":67,"Velocity":34,"Duration":192307,"SoundDuration":192307,"Delta":203663844},{"NoteNumber":75,"Velocity":57,"Duration":384614,"SoundDuration":384614,"Delta":203663844},{"NoteNumber":60,"Velocity":34,"Duration":192307,"SoundDuration":192307,"Delta":203856152},{"NoteNumber":79,"Velocity":62,"Duration":1006703,"SoundDuration":1006703,"Delta":204048459},{"NoteNumber":73,"Velocity":34,"Duration":166204,"SoundDuration":166204,"Delta":204048459},{"NoteNumber":70,"Velocity":34,"Duration":166204,"SoundDuration":166204,"Delta":204048459},{"NoteNumber":41,"Velocity":40,"Duration":2021670,"SoundDuration":2021670,"Delta":204048459},{"NoteNumber":29,"Velocity":34,"Duration":2021670,"SoundDuration":2021670,"Delta":204048459},{"NoteNumber":64,"Velocity":37,"Duration":169971,"SoundDuration":169971,"Delta":204214664},{"NoteNumber":70,"Velocity":43,"Duration":165746,"SoundDuration":165746,"Delta":204384636},{"NoteNumber":73,"Velocity":43,"Duration":165746,"SoundDuration":165746,"Delta":204384636},{"NoteNumber":64,"Velocity":36,"Duration":169491,"SoundDuration":169491,"Delta":204550382},{"NoteNumber":70,"Velocity":43,"Duration":164835,"SoundDuration":164835,"Delta":204719873},{"NoteNumber":73,"Velocity":43,"Duration":164835,"SoundDuration":164835,"Delta":204719873},{"NoteNumber":64,"Velocity":38,"Duration":170454,"SoundDuration":170454,"Delta":204884708},{"NoteNumber":68,"Velocity":34,"Duration":167597,"SoundDuration":167597,"Delta":205055163},{"NoteNumber":77,"Velocity":57,"Duration":670391,"SoundDuration":670391,"Delta":205055163},{"NoteNumber":73,"Velocity":34,"Duration":167597,"SoundDuration":167597,"Delta":205055163},{"NoteNumber":65,"Velocity":31,"Duration":167597,"SoundDuration":167597,"Delta":205222761},{"NoteNumber":73,"Velocity":38,"Duration":167597,"SoundDuration":167597,"Delta":205390359},{"NoteNumber":68,"Velocity":38,"Duration":167597,"SoundDuration":167597,"Delta":205390359},{"NoteNumber":65,"Velocity":31,"Duration":167597,"SoundDuration":167597,"Delta":205557957},{"NoteNumber":75,"Velocity":50,"Duration":348240,"SoundDuration":348240,"Delta":205725555},{"NoteNumber":68,"Velocity":42,"Duration":175952,"SoundDuration":175952,"Delta":205725555},{"NoteNumber":65,"Velocity":33,"Duration":175953,"SoundDuration":175953,"Delta":205901508},{"NoteNumber":75,"Velocity":51,"Duration":672268,"SoundDuration":672268,"Delta":206077461},{"NoteNumber":68,"Velocity":43,"Duration":168067,"SoundDuration":168067,"Delta":206077461},{"NoteNumber":41,"Velocity":40,"Duration":2047985,"SoundDuration":2047985,"Delta":206077461},{"NoteNumber":29,"Velocity":34,"Duration":2047985,"SoundDuration":2047985,"Delta":206077461},{"NoteNumber":65,"Velocity":29,"Duration":168066,"SoundDuration":168066,"Delta":206245528},{"NoteNumber":68,"Velocity":33,"Duration":168067,"SoundDuration":168067,"Delta":206413595},{"NoteNumber":65,"Velocity":29,"Duration":168067,"SoundDuration":168067,"Delta":206581662},{"NoteNumber":68,"Velocity":39,"Duration":169971,"SoundDuration":169971,"Delta":206749729},{"NoteNumber":73,"Velocity":47,"Duration":339943,"SoundDuration":339943,"Delta":206749729},{"NoteNumber":65,"Velocity":29,"Duration":169971,"SoundDuration":169971,"Delta":206919700},{"NoteNumber":68,"Velocity":37,"Duration":168067,"SoundDuration":168067,"Delta":207089672},{"NoteNumber":77,"Velocity":44,"Duration":672268,"SoundDuration":672268,"Delta":207089672},{"NoteNumber":65,"Velocity":29,"Duration":168066,"SoundDuration":168066,"Delta":207257739},{"NoteNumber":68,"Velocity":29,"Duration":168067,"SoundDuration":168067,"Delta":207425806},{"NoteNumber":65,"Velocity":29,"Duration":168067,"SoundDuration":168067,"Delta":207593873},{"NoteNumber":68,"Velocity":39,"Duration":168067,"SoundDuration":168067,"Delta":207761940},{"NoteNumber":73,"Velocity":47,"Duration":363506,"SoundDuration":363506,"Delta":207761940},{"NoteNumber":65,"Velocity":32,"Duration":195439,"SoundDuration":195439,"Delta":207930007},{"NoteNumber":72,"Velocity":40,"Duration":2079139,"SoundDuration":2079139,"Delta":208125446},{"NoteNumber":67,"Velocity":30,"Duration":174926,"SoundDuration":174926,"Delta":208125446},{"NoteNumber":43,"Velocity":29,"Duration":2079139,"SoundDuration":2079139,"Delta":208125446},{"NoteNumber":51,"Velocity":35,"Duration":1394390,"SoundDuration":1394390,"Delta":208125446},{"NoteNumber":63,"Velocity":20,"Duration":174926,"SoundDuration":174926,"Delta":208300373},{"NoteNumber":67,"Velocity":30,"Duration":174926,"SoundDuration":174926,"Delta":208475300},{"NoteNumber":63,"Velocity":21,"Duration":174926,"SoundDuration":174926,"Delta":208650227},{"NoteNumber":67,"Velocity":30,"Duration":174927,"SoundDuration":174927,"Delta":208825154},{"NoteNumber":63,"Velocity":20,"Duration":174926,"SoundDuration":174926,"Delta":209000081},{"NoteNumber":67,"Velocity":30,"Duration":172414,"SoundDuration":172414,"Delta":209175008},{"NoteNumber":63,"Velocity":22,"Duration":172414,"SoundDuration":172414,"Delta":209347422},{"NoteNumber":67,"Velocity":30,"Duration":171920,"SoundDuration":171920,"Delta":209519836},{"NoteNumber":53,"Velocity":40,"Duration":343840,"SoundDuration":343840,"Delta":209519836},{"NoteNumber":63,"Velocity":21,"Duration":171920,"SoundDuration":171920,"Delta":209691756},{"NoteNumber":69,"Velocity":30,"Duration":170454,"SoundDuration":170454,"Delta":209863676},{"NoteNumber":54,"Velocity":35,"Duration":340909,"SoundDuration":340909,"Delta":209863676},{"NoteNumber":63,"Velocity":22,"Duration":170454,"SoundDuration":170454,"Delta":210034131},{"NoteNumber":71,"Velocity":40,"Duration":338028,"SoundDuration":338028,"Delta":210204585},{"NoteNumber":67,"Velocity":34,"Duration":169014,"SoundDuration":169014,"Delta":210204585},{"NoteNumber":55,"Velocity":40,"Duration":330985,"SoundDuration":330985,"Delta":210204585},{"NoteNumber":62,"Velocity":26,"Duration":169014,"SoundDuration":169014,"Delta":210373599},{"NoteNumber":72,"Velocity":36,"Duration":338027,"SoundDuration":338027,"Delta":210542613},{"NoteNumber":67,"Velocity":34,"Duration":169014,"SoundDuration":169014,"Delta":210542613},{"NoteNumber":57,"Velocity":36,"Duration":338027,"SoundDuration":338027,"Delta":210542613},{"NoteNumber":55,"Velocity":29,"Duration":1352112,"SoundDuration":1352112,"Delta":210542613},{"NoteNumber":65,"Velocity":27,"Duration":169013,"SoundDuration":169013,"Delta":210711627},{"NoteNumber":74,"Velocity":40,"Duration":338028,"SoundDuration":338028,"Delta":210880641},{"NoteNumber":67,"Velocity":34,"Duration":169014,"SoundDuration":169014,"Delta":210880641},{"NoteNumber":59,"Velocity":40,"Duration":338028,"SoundDuration":338028,"Delta":210880641},{"NoteNumber":65,"Velocity":27,"Duration":169014,"SoundDuration":169014,"Delta":211049655},{"NoteNumber":67,"Velocity":34,"Duration":169014,"SoundDuration":169014,"Delta":211218669},{"NoteNumber":75,"Velocity":44,"Duration":338028,"SoundDuration":338028,"Delta":211218669},{"NoteNumber":60,"Velocity":37,"Duration":338028,"SoundDuration":338028,"Delta":211218669},{"NoteNumber":63,"Velocity":26,"Duration":169014,"SoundDuration":169014,"Delta":211387683},{"NoteNumber":71,"Velocity":34,"Duration":169014,"SoundDuration":169014,"Delta":211556697},{"NoteNumber":77,"Velocity":49,"Duration":338028,"SoundDuration":338028,"Delta":211556697},{"NoteNumber":62,"Velocity":41,"Duration":338028,"SoundDuration":338028,"Delta":211556697},{"NoteNumber":67,"Velocity":34,"Duration":169014,"SoundDuration":169014,"Delta":211725711},{"NoteNumber":72,"Velocity":34,"Duration":192307,"SoundDuration":192307,"Delta":211894725},{"NoteNumber":79,"Velocity":57,"Duration":312499,"SoundDuration":312499,"Delta":211894725},{"NoteNumber":63,"Velocity":48,"Duration":312499,"SoundDuration":312499,"Delta":211894725},{"NoteNumber":67,"Velocity":34,"Duration":120192,"SoundDuration":120192,"Delta":212087033},{"NoteNumber":52,"Velocity":34,"Duration":1076366,"SoundDuration":1076366,"Delta":212207225},{"NoteNumber":58,"Velocity":34,"Duration":1052328,"SoundDuration":1052328,"Delta":212231263},{"NoteNumber":61,"Velocity":34,"Duration":1028289,"SoundDuration":1028289,"Delta":212255302},{"NoteNumber":82,"Velocity":62,"Duration":1004251,"SoundDuration":1004251,"Delta":212279340},{"NoteNumber":73,"Velocity":34,"Duration":166204,"SoundDuration":166204,"Delta":212279340},{"NoteNumber":67,"Velocity":40,"Duration":1004251,"SoundDuration":1004251,"Delta":212279340},{"NoteNumber":70,"Velocity":37,"Duration":169491,"SoundDuration":169491,"Delta":212445545},{"NoteNumber":73,"Velocity":43,"Duration":165746,"SoundDuration":165746,"Delta":212615037},{"NoteNumber":70,"Velocity":36,"Duration":168539,"SoundDuration":168539,"Delta":212780783},{"NoteNumber":73,"Velocity":43,"Duration":167603,"SoundDuration":167603,"Delta":212949322},{"NoteNumber":70,"Velocity":38,"Duration":166666,"SoundDuration":166666,"Delta":213116925},{"NoteNumber":80,"Velocity":57,"Duration":672268,"SoundDuration":672268,"Delta":213283592},{"NoteNumber":73,"Velocity":34,"Duration":168067,"SoundDuration":168067,"Delta":213283592},{"NoteNumber":56,"Velocity":34,"Duration":672268,"SoundDuration":672268,"Delta":213283592},{"NoteNumber":61,"Velocity":34,"Duration":672268,"SoundDuration":672268,"Delta":213283592},{"NoteNumber":65,"Velocity":40,"Duration":672268,"SoundDuration":672268,"Delta":213283592},{"NoteNumber":53,"Velocity":34,"Duration":672268,"SoundDuration":672268,"Delta":213283592},{"NoteNumber":68,"Velocity":30,"Duration":168066,"SoundDuration":168066,"Delta":213451659},{"NoteNumber":73,"Velocity":36,"Duration":168067,"SoundDuration":168067,"Delta":213619726},{"NoteNumber":68,"Velocity":29,"Duration":168067,"SoundDuration":168067,"Delta":213787793},{"NoteNumber":79,"Velocity":42,"Duration":348240,"SoundDuration":348240,"Delta":213955860},{"NoteNumber":73,"Velocity":34,"Duration":175952,"SoundDuration":175952,"Delta":213955860},{"NoteNumber":61,"Velocity":28,"Duration":348240,"SoundDuration":348240,"Delta":213955860},{"NoteNumber":55,"Velocity":28,"Duration":348240,"SoundDuration":348240,"Delta":213955860},{"NoteNumber":63,"Velocity":33,"Duration":348240,"SoundDuration":348240,"Delta":213955860},{"NoteNumber":70,"Velocity":26,"Duration":175953,"SoundDuration":175953,"Delta":214131813},{"NoteNumber":73,"Velocity":44,"Duration":168067,"SoundDuration":168067,"Delta":214307766},{"NoteNumber":79,"Velocity":52,"Duration":1007529,"SoundDuration":1007529,"Delta":214307766},{"NoteNumber":55,"Velocity":34,"Duration":1007529,"SoundDuration":1007529,"Delta":214307766},{"NoteNumber":63,"Velocity":40,"Duration":1007529,"SoundDuration":1007529,"Delta":214307766},{"NoteNumber":61,"Velocity":34,"Duration":1007529,"SoundDuration":1007529,"Delta":214307766},{"NoteNumber":70,"Velocity":33,"Duration":168066,"SoundDuration":168066,"Delta":214475833},{"NoteNumber":73,"Velocity":40,"Duration":168067,"SoundDuration":168067,"Delta":214643900},{"NoteNumber":70,"Velocity":31,"Duration":168067,"SoundDuration":168067,"Delta":214811967},{"NoteNumber":73,"Velocity":39,"Duration":165289,"SoundDuration":165289,"Delta":214980034},{"NoteNumber":70,"Velocity":29,"Duration":169971,"SoundDuration":169971,"Delta":215145323},{"NoteNumber":73,"Velocity":39,"Duration":167597,"SoundDuration":167597,"Delta":215315295},{"NoteNumber":77,"Velocity":46,"Duration":670391,"SoundDuration":670391,"Delta":215315295},{"NoteNumber":65,"Velocity":40,"Duration":670391,"SoundDuration":670391,"Delta":215315295},{"NoteNumber":56,"Velocity":28,"Duration":670391,"SoundDuration":670391,"Delta":215315295},{"NoteNumber":61,"Velocity":28,"Duration":670391,"SoundDuration":670391,"Delta":215315295},{"NoteNumber":68,"Velocity":26,"Duration":167597,"SoundDuration":167597,"Delta":215482893},{"NoteNumber":73,"Velocity":35,"Duration":167597,"SoundDuration":167597,"Delta":215650491},{"NoteNumber":68,"Velocity":27,"Duration":167597,"SoundDuration":167597,"Delta":215818089},{"NoteNumber":73,"Velocity":32,"Duration":175952,"SoundDuration":175952,"Delta":215985687},{"NoteNumber":75,"Velocity":38,"Duration":348240,"SoundDuration":348240,"Delta":215985687},{"NoteNumber":61,"Velocity":23,"Duration":348240,"SoundDuration":348240,"Delta":215985687},{"NoteNumber":58,"Velocity":23,"Duration":348240,"SoundDuration":348240,"Delta":215985687},{"NoteNumber":63,"Velocity":33,"Duration":348240,"SoundDuration":348240,"Delta":215985687},{"NoteNumber":67,"Velocity":26,"Duration":175953,"SoundDuration":175953,"Delta":216161640},{"NoteNumber":75,"Velocity":44,"Duration":1675735,"SoundDuration":1675735,"Delta":216337593},{"NoteNumber":73,"Velocity":34,"Duration":168444,"SoundDuration":168444,"Delta":216337593},{"NoteNumber":63,"Velocity":37,"Duration":1675735,"SoundDuration":1675735,"Delta":216337593},{"NoteNumber":58,"Velocity":31,"Duration":1675735,"SoundDuration":1675735,"Delta":216337593},{"NoteNumber":61,"Velocity":31,"Duration":1675735,"SoundDuration":1675735,"Delta":216337593},{"NoteNumber":67,"Velocity":23,"Duration":167932,"SoundDuration":167932,"Delta":216506038},{"NoteNumber":73,"Velocity":34,"Duration":167323,"SoundDuration":167323,"Delta":216673970},{"NoteNumber":67,"Velocity":27,"Duration":166724,"SoundDuration":166724,"Delta":216841294},{"NoteNumber":73,"Velocity":35,"Duration":165792,"SoundDuration":165792,"Delta":217008018},{"NoteNumber":67,"Velocity":26,"Duration":167248,"SoundDuration":167248,"Delta":217173811},{"NoteNumber":73,"Velocity":29,"Duration":168067,"SoundDuration":168067,"Delta":217341060},{"NoteNumber":67,"Velocity":24,"Duration":168066,"SoundDuration":168066,"Delta":217509127},{"NoteNumber":73,"Velocity":36,"Duration":168067,"SoundDuration":168067,"Delta":217677194},{"NoteNumber":67,"Velocity":28,"Duration":168067,"SoundDuration":168067,"Delta":217845261},{"NoteNumber":77,"Velocity":55,"Duration":347243,"SoundDuration":347243,"Delta":218013328},{"NoteNumber":73,"Velocity":32,"Duration":175952,"SoundDuration":175952,"Delta":218013328},{"NoteNumber":56,"Velocity":35,"Duration":347243,"SoundDuration":347243,"Delta":218013328},{"NoteNumber":65,"Velocity":41,"Duration":347243,"SoundDuration":347243,"Delta":218013328},{"NoteNumber":61,"Velocity":35,"Duration":347243,"SoundDuration":347243,"Delta":218013328},{"NoteNumber":68,"Velocity":31,"Duration":174831,"SoundDuration":174831,"Delta":218189281},{"NoteNumber":73,"Velocity":34,"Duration":169881,"SoundDuration":169881,"Delta":218364112},{"NoteNumber":75,"Velocity":45,"Duration":1685253,"SoundDuration":1685253,"Delta":218364112},{"NoteNumber":58,"Velocity":31,"Duration":1685253,"SoundDuration":1685253,"Delta":218364112},{"NoteNumber":63,"Velocity":37,"Duration":1685253,"SoundDuration":1685253,"Delta":218364112},{"NoteNumber":61,"Velocity":31,"Duration":1685253,"SoundDuration":1685253,"Delta":218364112},{"NoteNumber":67,"Velocity":23,"Duration":169354,"SoundDuration":169354,"Delta":218533994},{"NoteNumber":73,"Velocity":34,"Duration":168830,"SoundDuration":168830,"Delta":218703348},{"NoteNumber":67,"Velocity":27,"Duration":168309,"SoundDuration":168309,"Delta":218872178},{"NoteNumber":73,"Velocity":35,"Duration":167791,"SoundDuration":167791,"Delta":219040487},{"NoteNumber":67,"Velocity":26,"Duration":167597,"SoundDuration":167597,"Delta":219208279},{"NoteNumber":73,"Velocity":29,"Duration":167597,"SoundDuration":167597,"Delta":219375877},{"NoteNumber":67,"Velocity":24,"Duration":167863,"SoundDuration":167863,"Delta":219543475},{"NoteNumber":73,"Velocity":36,"Duration":169013,"SoundDuration":169013,"Delta":219711338},{"NoteNumber":67,"Velocity":28,"Duration":169014,"SoundDuration":169014,"Delta":219880352},{"NoteNumber":73,"Velocity":32,"Duration":175952,"SoundDuration":175952,"Delta":220049366},{"NoteNumber":77,"Velocity":55,"Duration":348240,"SoundDuration":348240,"Delta":220049366},{"NoteNumber":61,"Velocity":35,"Duration":348240,"SoundDuration":348240,"Delta":220049366},{"NoteNumber":65,"Velocity":41,"Duration":348240,"SoundDuration":348240,"Delta":220049366},{"NoteNumber":56,"Velocity":35,"Duration":348240,"SoundDuration":348240,"Delta":220049366},{"NoteNumber":68,"Velocity":31,"Duration":175953,"SoundDuration":175953,"Delta":220225319},{"NoteNumber":73,"Velocity":38,"Duration":169769,"SoundDuration":169769,"Delta":220401272},{"NoteNumber":75,"Velocity":45,"Duration":1671561,"SoundDuration":1671561,"Delta":220401272},{"NoteNumber":58,"Velocity":31,"Duration":1609234,"SoundDuration":1609234,"Delta":220401272},{"NoteNumber":63,"Velocity":37,"Duration":1609234,"SoundDuration":1609234,"Delta":220401272},{"NoteNumber":61,"Velocity":31,"Duration":1609234,"SoundDuration":1609234,"Delta":220401272},{"NoteNumber":67,"Velocity":26,"Duration":167904,"SoundDuration":167904,"Delta":220571042},{"NoteNumber":73,"Velocity":38,"Duration":166672,"SoundDuration":166672,"Delta":220738946},{"NoteNumber":67,"Velocity":31,"Duration":166666,"SoundDuration":166666,"Delta":220905618},{"NoteNumber":73,"Velocity":39,"Duration":166666,"SoundDuration":166666,"Delta":221072285},{"NoteNumber":67,"Velocity":29,"Duration":166666,"SoundDuration":166666,"Delta":221238951},{"NoteNumber":73,"Velocity":33,"Duration":164835,"SoundDuration":164835,"Delta":221405618},{"NoteNumber":67,"Velocity":27,"Duration":169971,"SoundDuration":169971,"Delta":221570453},{"NoteNumber":73,"Velocity":40,"Duration":166204,"SoundDuration":166204,"Delta":221740424},{"NoteNumber":67,"Velocity":32,"Duration":166205,"SoundDuration":166205,"Delta":221906629},{"NoteNumber":53,"Velocity":35,"Duration":414232,"SoundDuration":414232,"Delta":222010507},{"NoteNumber":56,"Velocity":35,"Duration":389791,"SoundDuration":389791,"Delta":222031283},{"NoteNumber":61,"Velocity":35,"Duration":369015,"SoundDuration":369015,"Delta":222052059},{"NoteNumber":82,"Velocity":60,"Duration":348240,"SoundDuration":348240,"Delta":222072834},{"NoteNumber":73,"Velocity":47,"Duration":175952,"SoundDuration":175952,"Delta":222072834},{"NoteNumber":65,"Velocity":41,"Duration":348240,"SoundDuration":348240,"Delta":222072834},{"NoteNumber":70,"Velocity":35,"Duration":175953,"SoundDuration":175953,"Delta":222248787},{"NoteNumber":75,"Velocity":45,"Duration":1685423,"SoundDuration":1685423,"Delta":222424740},{"NoteNumber":73,"Velocity":38,"Duration":168067,"SoundDuration":168067,"Delta":222424740},{"NoteNumber":55,"Velocity":31,"Duration":1622398,"SoundDuration":1622398,"Delta":222424740},{"NoteNumber":63,"Velocity":37,"Duration":1622398,"SoundDuration":1622398,"Delta":222424740},{"NoteNumber":61,"Velocity":31,"Duration":1622398,"SoundDuration":1622398,"Delta":222424740},{"NoteNumber":70,"Velocity":26,"Duration":168066,"SoundDuration":168066,"Delta":222592807},{"NoteNumber":73,"Velocity":38,"Duration":169971,"SoundDuration":169971,"Delta":222760874},{"NoteNumber":70,"Velocity":31,"Duration":169971,"SoundDuration":169971,"Delta":222930846},{"NoteNumber":73,"Velocity":39,"Duration":168539,"SoundDuration":168539,"Delta":223100817},{"NoteNumber":70,"Velocity":29,"Duration":168539,"SoundDuration":168539,"Delta":223269357},{"NoteNumber":73,"Velocity":33,"Duration":168067,"SoundDuration":168067,"Delta":223437896},{"NoteNumber":70,"Velocity":27,"Duration":168066,"SoundDuration":168066,"Delta":223605963},{"NoteNumber":73,"Velocity":40,"Duration":168067,"SoundDuration":168067,"Delta":223774030},{"NoteNumber":70,"Velocity":32,"Duration":168067,"SoundDuration":168067,"Delta":223942097},{"NoteNumber":53,"Velocity":35,"Duration":414931,"SoundDuration":414931,"Delta":224047139},{"NoteNumber":56,"Velocity":35,"Duration":390257,"SoundDuration":390257,"Delta":224068147},{"NoteNumber":61,"Velocity":35,"Duration":369248,"SoundDuration":369248,"Delta":224089156},{"NoteNumber":73,"Velocity":47,"Duration":175952,"SoundDuration":175952,"Delta":224110164},{"NoteNumber":82,"Velocity":60,"Duration":348240,"SoundDuration":348240,"Delta":224110164},{"NoteNumber":65,"Velocity":41,"Duration":348240,"SoundDuration":348240,"Delta":224110164},{"NoteNumber":70,"Velocity":35,"Duration":175953,"SoundDuration":175953,"Delta":224286117},{"NoteNumber":73,"Velocity":38,"Duration":168067,"SoundDuration":168067,"Delta":224462070},{"NoteNumber":75,"Velocity":45,"Duration":1008401,"SoundDuration":1008401,"Delta":224462070},{"NoteNumber":63,"Velocity":37,"Duration":1008401,"SoundDuration":1008401,"Delta":224462070},{"NoteNumber":55,"Velocity":31,"Duration":2001983,"SoundDuration":2001983,"Delta":224462070},{"NoteNumber":61,"Velocity":31,"Duration":2001983,"SoundDuration":2001983,"Delta":224462070},{"NoteNumber":70,"Velocity":26,"Duration":168066,"SoundDuration":168066,"Delta":224630137},{"NoteNumber":73,"Velocity":38,"Duration":168067,"SoundDuration":168067,"Delta":224798204},{"NoteNumber":70,"Velocity":31,"Duration":168067,"SoundDuration":168067,"Delta":224966271},{"NoteNumber":73,"Velocity":39,"Duration":168067,"SoundDuration":168067,"Delta":225134338},{"NoteNumber":70,"Velocity":29,"Duration":168066,"SoundDuration":168066,"Delta":225302405},{"NoteNumber":73,"Velocity":38,"Duration":166666,"SoundDuration":166666,"Delta":225470472},{"NoteNumber":76,"Velocity":45,"Duration":1983500,"SoundDuration":1983500,"Delta":225470472},{"NoteNumber":64,"Velocity":37,"Duration":1983500,"SoundDuration":1983500,"Delta":225470472},{"NoteNumber":70,"Velocity":26,"Duration":166666,"SoundDuration":166666,"Delta":225637139},{"NoteNumber":73,"Velocity":38,"Duration":165289,"SoundDuration":165289,"Delta":225803805},{"NoteNumber":70,"Velocity":32,"Duration":165289,"SoundDuration":165289,"Delta":225969095},{"NoteNumber":73,"Velocity":40,"Duration":164835,"SoundDuration":164835,"Delta":226134384},{"NoteNumber":70,"Velocity":30,"Duration":164834,"SoundDuration":164834,"Delta":226299219},{"NoteNumber":74,"Velocity":41,"Duration":164835,"SoundDuration":164835,"Delta":226464054},{"NoteNumber":62,"Velocity":33,"Duration":1978031,"SoundDuration":1978031,"Delta":226464054},{"NoteNumber":56,"Velocity":33,"Duration":1978031,"SoundDuration":1978031,"Delta":226464054},{"NoteNumber":71,"Velocity":28,"Duration":164835,"SoundDuration":164835,"Delta":226620647},{"NoteNumber":74,"Velocity":41,"Duration":164835,"SoundDuration":164835,"Delta":226793724},{"NoteNumber":71,"Velocity":34,"Duration":164834,"SoundDuration":164834,"Delta":226958559},{"NoteNumber":74,"Velocity":44,"Duration":165289,"SoundDuration":165289,"Delta":227123394},{"NoteNumber":71,"Velocity":33,"Duration":165289,"SoundDuration":165289,"Delta":227288684},{"NoteNumber":77,"Velocity":56,"Duration":1977123,"SoundDuration":1977123,"Delta":227453973},{"NoteNumber":74,"Velocity":44,"Duration":164383,"SoundDuration":164383,"Delta":227453973},{"NoteNumber":65,"Velocity":42,"Duration":1977123,"SoundDuration":1977123,"Delta":227453973},{"NoteNumber":71,"Velocity":30,"Duration":164383,"SoundDuration":164383,"Delta":227618357},{"NoteNumber":74,"Velocity":44,"Duration":164383,"SoundDuration":164383,"Delta":227782740},{"NoteNumber":71,"Velocity":37,"Duration":164383,"SoundDuration":164383,"Delta":227947124},{"NoteNumber":74,"Velocity":47,"Duration":165289,"SoundDuration":165289,"Delta":228111507},{"NoteNumber":71,"Velocity":35,"Duration":165289,"SoundDuration":165289,"Delta":228276797},{"NoteNumber":75,"Velocity":70,"Duration":164835,"SoundDuration":164835,"Delta":228442086},{"NoteNumber":57,"Velocity":38,"Duration":1986240,"SoundDuration":1986240,"Delta":228442086},{"NoteNumber":63,"Velocity":50,"Duration":1986240,"SoundDuration":1986240,"Delta":228442086},{"NoteNumber":72,"Velocity":32,"Duration":164834,"SoundDuration":164834,"Delta":228606921},{"NoteNumber":75,"Velocity":47,"Duration":164835,"SoundDuration":164835,"Delta":228771756},{"NoteNumber":72,"Velocity":39,"Duration":164834,"SoundDuration":164834,"Delta":228936591},{"NoteNumber":75,"Velocity":50,"Duration":164835,"SoundDuration":164835,"Delta":229101426},{"NoteNumber":72,"Velocity":37,"Duration":164835,"SoundDuration":164835,"Delta":229266261},{"NoteNumber":75,"Velocity":50,"Duration":166204,"SoundDuration":166204,"Delta":229431096},{"NoteNumber":78,"Velocity":68,"Duration":997230,"SoundDuration":997230,"Delta":229431096},{"NoteNumber":66,"Velocity":57,"Duration":997230,"SoundDuration":997230,"Delta":229431096},{"NoteNumber":72,"Velocity":34,"Duration":166205,"SoundDuration":166205,"Delta":229597301},{"NoteNumber":75,"Velocity":50,"Duration":166204,"SoundDuration":166204,"Delta":229763506},{"NoteNumber":72,"Velocity":42,"Duration":166204,"SoundDuration":166204,"Delta":229929711},{"NoteNumber":75,"Velocity":53,"Duration":166205,"SoundDuration":166205,"Delta":230095916},{"NoteNumber":72,"Velocity":40,"Duration":166204,"SoundDuration":166204,"Delta":230262121},{"NoteNumber":78,"Velocity":58,"Duration":168067,"SoundDuration":168067,"Delta":230428326},{"NoteNumber":84,"Velocity":69,"Duration":1017096,"SoundDuration":1017096,"Delta":230428326},{"NoteNumber":51,"Velocity":52,"Duration":1017096,"SoundDuration":1017096,"Delta":230428326},{"NoteNumber":57,"Velocity":65,"Duration":1017096,"SoundDuration":1017096,"Delta":230428326},{"NoteNumber":45,"Velocity":52,"Duration":1017096,"SoundDuration":1017096,"Delta":230428326},{"NoteNumber":72,"Velocity":42,"Duration":168066,"SoundDuration":168066,"Delta":230596393},{"NoteNumber":78,"Velocity":56,"Duration":168067,"SoundDuration":168067,"Delta":230764460},{"NoteNumber":72,"Velocity":50,"Duration":168067,"SoundDuration":168067,"Delta":230932527},{"NoteNumber":78,"Velocity":60,"Duration":172414,"SoundDuration":172414,"Delta":231100594},{"NoteNumber":72,"Velocity":48,"Duration":172414,"SoundDuration":172414,"Delta":231273008},{"NoteNumber":78,"Velocity":42,"Duration":171920,"SoundDuration":171920,"Delta":231445422},{"NoteNumber":84,"Velocity":69,"Duration":171920,"SoundDuration":171920,"Delta":231445422},{"NoteNumber":86,"Velocity":69,"Duration":1051804,"SoundDuration":1051804,"Delta":231445422},{"NoteNumber":45,"Velocity":62,"Duration":1051804,"SoundDuration":1051804,"Delta":231445422},{"NoteNumber":36,"Velocity":52,"Duration":1021222,"SoundDuration":1021222,"Delta":231445422},{"NoteNumber":33,"Velocity":67,"Duration":1051804,"SoundDuration":1051804,"Delta":231445422},{"NoteNumber":74,"Velocity":42,"Duration":171920,"SoundDuration":171920,"Delta":231617342},{"NoteNumber":84,"Velocity":56,"Duration":171920,"SoundDuration":171920,"Delta":231789262},{"NoteNumber":78,"Velocity":50,"Duration":171920,"SoundDuration":171920,"Delta":231789262},{"NoteNumber":74,"Velocity":50,"Duration":171920,"SoundDuration":171920,"Delta":231961182},{"NoteNumber":78,"Velocity":48,"Duration":178041,"SoundDuration":178041,"Delta":232133102},{"NoteNumber":84,"Velocity":60,"Duration":178041,"SoundDuration":178041,"Delta":232133102},{"NoteNumber":74,"Velocity":48,"Duration":94339,"SoundDuration":94339,"Delta":232311144},{"NoteNumber":31,"Velocity":54,"Duration":30581,"SoundDuration":30581,"Delta":232405483},{"NoteNumber":36,"Velocity":59,"Duration":61161,"SoundDuration":61161,"Delta":232436064},{"NoteNumber":43,"Velocity":63,"Duration":30581,"SoundDuration":30581,"Delta":232466645},{"NoteNumber":88,"Velocity":91,"Duration":1394390,"SoundDuration":1394390,"Delta":232497226},{"NoteNumber":79,"Velocity":42,"Duration":174926,"SoundDuration":174926,"Delta":232497226},{"NoteNumber":84,"Velocity":42,"Duration":174926,"SoundDuration":174926,"Delta":232497226},{"NoteNumber":55,"Velocity":61,"Duration":2072036,"SoundDuration":2072036,"Delta":232497226},{"NoteNumber":67,"Velocity":72,"Duration":1394390,"SoundDuration":1394390,"Delta":232497226},{"NoteNumber":64,"Velocity":61,"Duration":1394390,"SoundDuration":1394390,"Delta":232497226},{"NoteNumber":76,"Velocity":30,"Duration":174926,"SoundDuration":174926,"Delta":232672153},{"NoteNumber":79,"Velocity":33,"Duration":174926,"SoundDuration":174926,"Delta":232847080},{"NoteNumber":84,"Velocity":33,"Duration":174926,"SoundDuration":174926,"Delta":232847080},{"NoteNumber":76,"Velocity":28,"Duration":174926,"SoundDuration":174926,"Delta":233022007},{"NoteNumber":79,"Velocity":33,"Duration":174927,"SoundDuration":174927,"Delta":233196934},{"NoteNumber":84,"Velocity":33,"Duration":174927,"SoundDuration":174927,"Delta":233196934},{"NoteNumber":76,"Velocity":25,"Duration":174926,"SoundDuration":174926,"Delta":233371861},{"NoteNumber":84,"Velocity":34,"Duration":172414,"SoundDuration":172414,"Delta":233546788},{"NoteNumber":79,"Velocity":34,"Duration":172414,"SoundDuration":172414,"Delta":233546788},{"NoteNumber":76,"Velocity":27,"Duration":172414,"SoundDuration":172414,"Delta":233719202},{"NoteNumber":89,"Velocity":67,"Duration":343840,"SoundDuration":343840,"Delta":233891616},{"NoteNumber":86,"Velocity":52,"Duration":171920,"SoundDuration":171920,"Delta":233891616},{"NoteNumber":62,"Velocity":50,"Duration":343840,"SoundDuration":343840,"Delta":233891616},{"NoteNumber":65,"Velocity":59,"Duration":343840,"SoundDuration":343840,"Delta":233891616},{"NoteNumber":77,"Velocity":28,"Duration":171920,"SoundDuration":171920,"Delta":234063536},{"NoteNumber":87,"Velocity":31,"Duration":170454,"SoundDuration":170454,"Delta":234235456},{"NoteNumber":90,"Velocity":67,"Duration":340909,"SoundDuration":340909,"Delta":234235456},{"NoteNumber":63,"Velocity":50,"Duration":340909,"SoundDuration":340909,"Delta":234235456},{"NoteNumber":66,"Velocity":59,"Duration":340909,"SoundDuration":340909,"Delta":234235456},{"NoteNumber":78,"Velocity":32,"Duration":170454,"SoundDuration":170454,"Delta":234405911},{"NoteNumber":88,"Velocity":61,"Duration":169014,"SoundDuration":169014,"Delta":234576365},{"NoteNumber":91,"Velocity":79,"Duration":169014,"SoundDuration":169014,"Delta":234576365},{"NoteNumber":55,"Velocity":52,"Duration":845069,"SoundDuration":845069,"Delta":234576365},{"NoteNumber":64,"Velocity":52,"Duration":338028,"SoundDuration":338028,"Delta":234576365},{"NoteNumber":67,"Velocity":62,"Duration":338028,"SoundDuration":338028,"Delta":234576365},{"NoteNumber":79,"Velocity":39,"Duration":169014,"SoundDuration":169014,"Delta":234745379},{"NoteNumber":91,"Velocity":74,"Duration":169014,"SoundDuration":169014,"Delta":234914393},{"NoteNumber":81,"Velocity":57,"Duration":169014,"SoundDuration":169014,"Delta":234914393},{"NoteNumber":60,"Velocity":47,"Duration":338027,"SoundDuration":338027,"Delta":234914393},{"NoteNumber":69,"Velocity":56,"Duration":338027,"SoundDuration":338027,"Delta":234914393},{"NoteNumber":79,"Velocity":40,"Duration":169013,"SoundDuration":169013,"Delta":235083407},{"NoteNumber":91,"Velocity":75,"Duration":169014,"SoundDuration":169014,"Delta":235252421},{"NoteNumber":83,"Velocity":58,"Duration":169014,"SoundDuration":169014,"Delta":235252421},{"NoteNumber":71,"Velocity":56,"Duration":295774,"SoundDuration":295774,"Delta":235252421},{"NoteNumber":62,"Velocity":47,"Duration":295774,"SoundDuration":295774,"Delta":235252421},{"NoteNumber":79,"Velocity":44,"Duration":169014,"SoundDuration":169014,"Delta":235421435},{"NoteNumber":55,"Velocity":55,"Duration":380281,"SoundDuration":380281,"Delta":235548196},{"NoteNumber":64,"Velocity":55,"Duration":359154,"SoundDuration":359154,"Delta":235569322},{"NoteNumber":91,"Velocity":76,"Duration":169014,"SoundDuration":169014,"Delta":235590449},{"NoteNumber":84,"Velocity":59,"Duration":169014,"SoundDuration":169014,"Delta":235590449},{"NoteNumber":72,"Velocity":65,"Duration":338028,"SoundDuration":338028,"Delta":235590449},{"NoteNumber":79,"Velocity":39,"Duration":169014,"SoundDuration":169014,"Delta":235759463},{"NoteNumber":91,"Velocity":74,"Duration":169014,"SoundDuration":169014,"Delta":235928477},{"NoteNumber":86,"Velocity":57,"Duration":169014,"SoundDuration":169014,"Delta":235928477},{"NoteNumber":65,"Velocity":45,"Duration":338028,"SoundDuration":338028,"Delta":235928477},{"NoteNumber":74,"Velocity":54,"Duration":338028,"SoundDuration":338028,"Delta":235928477},{"NoteNumber":79,"Velocity":44,"Duration":169014,"SoundDuration":169014,"Delta":236097491},{"NoteNumber":91,"Velocity":81,"Duration":192307,"SoundDuration":192307,"Delta":236266505},{"NoteNumber":88,"Velocity":63,"Duration":192307,"SoundDuration":192307,"Delta":236266505},{"NoteNumber":67,"Velocity":45,"Duration":401668,"SoundDuration":401668,"Delta":236266505},{"NoteNumber":76,"Velocity":54,"Duration":401668,"SoundDuration":401668,"Delta":236266505},{"NoteNumber":79,"Velocity":34,"Duration":209361,"SoundDuration":209361,"Delta":236458813},{"NoteNumber":29,"Velocity":54,"Duration":56603,"SoundDuration":56603,"Delta":236554966},{"NoteNumber":41,"Velocity":55,"Duration":56603,"SoundDuration":56603,"Delta":236611570},{"NoteNumber":82,"Velocity":56,"Duration":168067,"SoundDuration":168067,"Delta":236668174},{"NoteNumber":91,"Velocity":85,"Duration":1008401,"SoundDuration":1008401,"Delta":236668174},{"NoteNumber":88,"Velocity":56,"Duration":168067,"SoundDuration":168067,"Delta":236668174},{"NoteNumber":85,"Velocity":56,"Duration":168067,"SoundDuration":168067,"Delta":236668174},{"NoteNumber":61,"Velocity":59,"Duration":1008401,"SoundDuration":1008401,"Delta":236668174},{"NoteNumber":58,"Velocity":59,"Duration":1008401,"SoundDuration":1008401,"Delta":236668174},{"NoteNumber":64,"Velocity":70,"Duration":1008401,"SoundDuration":1008401,"Delta":236668174},{"NoteNumber":53,"Velocity":59,"Duration":1680669,"SoundDuration":1680669,"Delta":236668174},{"NoteNumber":79,"Velocity":42,"Duration":168066,"SoundDuration":168066,"Delta":236836241},{"NoteNumber":85,"Velocity":51,"Duration":168067,"SoundDuration":168067,"Delta":237004308},{"NoteNumber":82,"Velocity":51,"Duration":168067,"SoundDuration":168067,"Delta":237004308},{"NoteNumber":88,"Velocity":51,"Duration":168067,"SoundDuration":168067,"Delta":237004308},{"NoteNumber":79,"Velocity":38,"Duration":168067,"SoundDuration":168067,"Delta":237172375},{"NoteNumber":88,"Velocity":47,"Duration":168067,"SoundDuration":168067,"Delta":237340442},{"NoteNumber":85,"Velocity":47,"Duration":168067,"SoundDuration":168067,"Delta":237340442},{"NoteNumber":82,"Velocity":47,"Duration":168067,"SoundDuration":168067,"Delta":237340442},{"NoteNumber":79,"Velocity":38,"Duration":168066,"SoundDuration":168066,"Delta":237508509},{"NoteNumber":89,"Velocity":74,"Duration":672268,"SoundDuration":672268,"Delta":237676576},{"NoteNumber":86,"Velocity":34,"Duration":168067,"SoundDuration":168067,"Delta":237676576},{"NoteNumber":81,"Velocity":34,"Duration":168067,"SoundDuration":168067,"Delta":237676576},{"NoteNumber":62,"Velocity":59,"Duration":672268,"SoundDuration":672268,"Delta":237676576},{"NoteNumber":65,"Velocity":70,"Duration":672268,"SoundDuration":672268,"Delta":237676576},{"NoteNumber":57,"Velocity":59,"Duration":672268,"SoundDuration":672268,"Delta":237676576},{"NoteNumber":77,"Velocity":31,"Duration":168067,"SoundDuration":168067,"Delta":237844643},{"NoteNumber":86,"Velocity":38,"Duration":168067,"SoundDuration":168067,"Delta":238012710},{"NoteNumber":81,"Velocity":38,"Duration":168067,"SoundDuration":168067,"Delta":238012710},{"NoteNumber":77,"Velocity":31,"Duration":168066,"SoundDuration":168066,"Delta":238180777},{"NoteNumber":82,"Velocity":42,"Duration":175952,"SoundDuration":175952,"Delta":238348844},{"NoteNumber":85,"Velocity":42,"Duration":175952,"SoundDuration":175952,"Delta":238348844},{"NoteNumber":88,"Velocity":73,"Duration":348240,"SoundDuration":348240,"Delta":238348844},{"NoteNumber":55,"Velocity":59,"Duration":351906,"SoundDuration":351906,"Delta":238348844},{"NoteNumber":79,"Velocity":33,"Duration":175953,"SoundDuration":175953,"Delta":238524797},{"NoteNumber":82,"Velocity":48,"Duration":168067,"SoundDuration":168067,"Delta":238700750},{"NoteNumber":85,"Velocity":48,"Duration":168067,"SoundDuration":168067,"Delta":238700750},{"NoteNumber":88,"Velocity":77,"Duration":672268,"SoundDuration":672268,"Delta":238700750},{"NoteNumber":41,"Velocity":61,"Duration":2016804,"SoundDuration":2016804,"Delta":238700750},{"NoteNumber":55,"Velocity":72,"Duration":672268,"SoundDuration":672268,"Delta":238700750},{"NoteNumber":76,"Velocity":29,"Duration":168066,"SoundDuration":168066,"Delta":238868817},{"NoteNumber":82,"Velocity":37,"Duration":168067,"SoundDuration":168067,"Delta":239036884},{"NoteNumber":85,"Velocity":37,"Duration":168067,"SoundDuration":168067,"Delta":239036884},{"NoteNumber":76,"Velocity":29,"Duration":168067,"SoundDuration":168067,"Delta":239204951},{"NoteNumber":86,"Velocity":66,"Duration":336133,"SoundDuration":336133,"Delta":239373018},{"NoteNumber":81,"Velocity":51,"Duration":168067,"SoundDuration":168067,"Delta":239373018},{"NoteNumber":53,"Velocity":61,"Duration":336133,"SoundDuration":336133,"Delta":239373018},{"NoteNumber":74,"Velocity":29,"Duration":168066,"SoundDuration":168066,"Delta":239541085},{"NoteNumber":85,"Velocity":47,"Duration":168067,"SoundDuration":168067,"Delta":239709152},{"NoteNumber":88,"Velocity":72,"Duration":672268,"SoundDuration":672268,"Delta":239709152},{"NoteNumber":81,"Velocity":47,"Duration":168067,"SoundDuration":168067,"Delta":239709152},{"NoteNumber":52,"Velocity":68,"Duration":672268,"SoundDuration":672268,"Delta":239709152},{"NoteNumber":76,"Velocity":34,"Duration":168067,"SoundDuration":168067,"Delta":239877219},{"NoteNumber":85,"Velocity":42,"Duration":168067,"SoundDuration":168067,"Delta":240045286},{"NoteNumber":81,"Velocity":42,"Duration":168067,"SoundDuration":168067,"Delta":240045286},{"NoteNumber":76,"Velocity":30,"Duration":168066,"SoundDuration":168066,"Delta":240213353},{"NoteNumber":81,"Velocity":48,"Duration":168067,"SoundDuration":168067,"Delta":240381420},{"NoteNumber":86,"Velocity":48,"Duration":168067,"SoundDuration":168067,"Delta":240381420},{"NoteNumber":89,"Velocity":74,"Duration":336134,"SoundDuration":336134,"Delta":240381420},{"NoteNumber":50,"Velocity":58,"Duration":336134,"SoundDuration":336134,"Delta":240381420},{"NoteNumber":77,"Velocity":32,"Duration":168067,"SoundDuration":168067,"Delta":240549487},{"NoteNumber":84,"Velocity":70,"Duration":1049562,"SoundDuration":1049562,"Delta":240717554},{"NoteNumber":79,"Velocity":45,"Duration":174926,"SoundDuration":174926,"Delta":240717554},{"NoteNumber":76,"Velocity":45,"Duration":174926,"SoundDuration":174926,"Delta":240717554},{"NoteNumber":43,"Velocity":56,"Duration":2076258,"SoundDuration":2076258,"Delta":240717554},{"NoteNumber":52,"Velocity":67,"Duration":1394390,"SoundDuration":1394390,"Delta":240717554},{"NoteNumber":72,"Velocity":25,"Duration":174926,"SoundDuration":174926,"Delta":240892481},{"NoteNumber":79,"Velocity":42,"Duration":174926,"SoundDuration":174926,"Delta":241067408},{"NoteNumber":76,"Velocity":42,"Duration":174926,"SoundDuration":174926,"Delta":241067408},{"NoteNumber":72,"Velocity":27,"Duration":174926,"SoundDuration":174926,"Delta":241242335},{"NoteNumber":76,"Velocity":40,"Duration":174927,"SoundDuration":174927,"Delta":241417262},{"NoteNumber":79,"Velocity":40,"Duration":174927,"SoundDuration":174927,"Delta":241417262},{"NoteNumber":72,"Velocity":23,"Duration":174926,"SoundDuration":174926,"Delta":241592189},{"NoteNumber":74,"Velocity":47,"Duration":172414,"SoundDuration":172414,"Delta":241767116},{"NoteNumber":83,"Velocity":72,"Duration":688668,"SoundDuration":688668,"Delta":241767116},{"NoteNumber":79,"Velocity":47,"Duration":172414,"SoundDuration":172414,"Delta":241767116},{"NoteNumber":71,"Velocity":36,"Duration":172414,"SoundDuration":172414,"Delta":241939530},{"NoteNumber":74,"Velocity":57,"Duration":171920,"SoundDuration":171920,"Delta":242111944},{"NoteNumber":79,"Velocity":57,"Duration":171920,"SoundDuration":171920,"Delta":242111944},{"NoteNumber":53,"Velocity":64,"Duration":343840,"SoundDuration":343840,"Delta":242111944},{"NoteNumber":71,"Velocity":39,"Duration":171920,"SoundDuration":171920,"Delta":242283864},{"NoteNumber":81,"Velocity":64,"Duration":338028,"SoundDuration":338028,"Delta":242455784},{"NoteNumber":74,"Velocity":59,"Duration":169014,"SoundDuration":169014,"Delta":242455784},{"NoteNumber":54,"Velocity":56,"Duration":338028,"SoundDuration":338028,"Delta":242455784},{"NoteNumber":69,"Velocity":41,"Duration":169014,"SoundDuration":169014,"Delta":242624798},{"NoteNumber":79,"Velocity":54,"Duration":167597,"SoundDuration":167597,"Delta":242793812},{"NoteNumber":83,"Velocity":70,"Duration":335195,"SoundDuration":335195,"Delta":242793812},{"NoteNumber":55,"Velocity":64,"Duration":2021549,"SoundDuration":2021549,"Delta":242793812},{"NoteNumber":74,"Velocity":44,"Duration":167597,"SoundDuration":167597,"Delta":242961410},{"NoteNumber":84,"Velocity":70,"Duration":328766,"SoundDuration":328766,"Delta":243129008},{"NoteNumber":79,"Velocity":54,"Duration":164383,"SoundDuration":164383,"Delta":243129008},{"NoteNumber":57,"Velocity":57,"Duration":328766,"SoundDuration":328766,"Delta":243129008},{"NoteNumber":72,"Velocity":44,"Duration":164383,"SoundDuration":164383,"Delta":243293391},{"NoteNumber":86,"Velocity":72,"Duration":324323,"SoundDuration":324323,"Delta":243457775},{"NoteNumber":79,"Velocity":56,"Duration":162161,"SoundDuration":162161,"Delta":243457775},{"NoteNumber":59,"Velocity":64,"Duration":324323,"SoundDuration":324323,"Delta":243457775},{"NoteNumber":74,"Velocity":47,"Duration":162161,"SoundDuration":162161,"Delta":243619937},{"NoteNumber":79,"Velocity":58,"Duration":162162,"SoundDuration":162162,"Delta":243782099},{"NoteNumber":88,"Velocity":75,"Duration":324324,"SoundDuration":324324,"Delta":243782099},{"NoteNumber":60,"Velocity":59,"Duration":324324,"SoundDuration":324324,"Delta":243782099},{"NoteNumber":76,"Velocity":47,"Duration":162161,"SoundDuration":162161,"Delta":243944261},{"NoteNumber":89,"Velocity":75,"Duration":324323,"SoundDuration":324323,"Delta":244106423},{"NoteNumber":83,"Velocity":58,"Duration":162161,"SoundDuration":162161,"Delta":244106423},{"NoteNumber":62,"Velocity":65,"Duration":324323,"SoundDuration":324323,"Delta":244106423},{"NoteNumber":77,"Velocity":51,"Duration":162161,"SoundDuration":162161,"Delta":244268585},{"NoteNumber":84,"Velocity":62,"Duration":192307,"SoundDuration":192307,"Delta":244430747},{"NoteNumber":91,"Velocity":80,"Duration":384614,"SoundDuration":384614,"Delta":244430747},{"NoteNumber":64,"Velocity":76,"Duration":384614,"SoundDuration":384614,"Delta":244430747},{"NoteNumber":79,"Velocity":55,"Duration":192307,"SoundDuration":192307,"Delta":244623054},{"NoteNumber":91,"Velocity":69,"Duration":626632,"SoundDuration":626632,"Delta":244815362},{"NoteNumber":85,"Velocity":69,"Duration":156657,"SoundDuration":156657,"Delta":244815362},{"NoteNumber":94,"Velocity":82,"Duration":626632,"SoundDuration":626632,"Delta":244815362},{"NoteNumber":49,"Velocity":45,"Duration":626632,"SoundDuration":626632,"Delta":244815362},{"NoteNumber":46,"Velocity":45,"Duration":626632,"SoundDuration":626632,"Delta":244815362},{"NoteNumber":40,"Velocity":45,"Duration":626632,"SoundDuration":626632,"Delta":244815362},{"NoteNumber":52,"Velocity":53,"Duration":626632,"SoundDuration":626632,"Delta":244815362},{"NoteNumber":82,"Velocity":56,"Duration":156657,"SoundDuration":156657,"Delta":244972020},{"NoteNumber":85,"Velocity":64,"Duration":156658,"SoundDuration":156658,"Delta":245128678},{"NoteNumber":82,"Velocity":53,"Duration":156657,"SoundDuration":156657,"Delta":245285336},{"NoteNumber":89,"Velocity":69,"Duration":626632,"SoundDuration":626632,"Delta":245441994},{"NoteNumber":93,"Velocity":82,"Duration":626632,"SoundDuration":626632,"Delta":245441994},{"NoteNumber":84,"Velocity":69,"Duration":156657,"SoundDuration":156657,"Delta":245441994},{"NoteNumber":53,"Velocity":53,"Duration":626632,"SoundDuration":626632,"Delta":245441994},{"NoteNumber":41,"Velocity":45,"Duration":626632,"SoundDuration":626632,"Delta":245441994},{"NoteNumber":48,"Velocity":45,"Duration":626632,"SoundDuration":626632,"Delta":245441994},{"NoteNumber":81,"Velocity":56,"Duration":156657,"SoundDuration":156657,"Delta":245598652},{"NoteNumber":84,"Velocity":64,"Duration":156658,"SoundDuration":156658,"Delta":245755310},{"NoteNumber":81,"Velocity":53,"Duration":156657,"SoundDuration":156657,"Delta":245911968},{"NoteNumber":92,"Velocity":82,"Duration":626632,"SoundDuration":626632,"Delta":246068626},{"NoteNumber":84,"Velocity":69,"Duration":156657,"SoundDuration":156657,"Delta":246068626},{"NoteNumber":87,"Velocity":69,"Duration":626632,"SoundDuration":626632,"Delta":246068626},{"NoteNumber":51,"Velocity":45,"Duration":626632,"SoundDuration":626632,"Delta":246068626},{"NoteNumber":48,"Velocity":45,"Duration":626632,"SoundDuration":626632,"Delta":246068626},{"NoteNumber":42,"Velocity":45,"Duration":626632,"SoundDuration":626632,"Delta":246068626},{"NoteNumber":54,"Velocity":53,"Duration":626632,"SoundDuration":626632,"Delta":246068626},{"NoteNumber":80,"Velocity":56,"Duration":156657,"SoundDuration":156657,"Delta":246225284},{"NoteNumber":84,"Velocity":64,"Duration":156658,"SoundDuration":156658,"Delta":246381942},{"NoteNumber":80,"Velocity":53,"Duration":156657,"SoundDuration":156657,"Delta":246538600},{"NoteNumber":91,"Velocity":82,"Duration":626632,"SoundDuration":626632,"Delta":246695258},{"NoteNumber":87,"Velocity":69,"Duration":626632,"SoundDuration":626632,"Delta":246695258},{"NoteNumber":84,"Velocity":69,"Duration":156657,"SoundDuration":156657,"Delta":246695258},{"NoteNumber":43,"Velocity":45,"Duration":626632,"SoundDuration":626632,"Delta":246695258},{"NoteNumber":48,"Velocity":45,"Duration":626632,"SoundDuration":626632,"Delta":246695258},{"NoteNumber":51,"Velocity":45,"Duration":626632,"SoundDuration":626632,"Delta":246695258},{"NoteNumber":55,"Velocity":53,"Duration":626632,"SoundDuration":626632,"Delta":246695258},{"NoteNumber":79,"Velocity":56,"Duration":156657,"SoundDuration":156657,"Delta":246851916},{"NoteNumber":84,"Velocity":64,"Duration":156658,"SoundDuration":156658,"Delta":247008574},{"NoteNumber":79,"Velocity":53,"Duration":156657,"SoundDuration":156657,"Delta":247165232},{"NoteNumber":84,"Velocity":69,"Duration":156657,"SoundDuration":156657,"Delta":247321890},{"NoteNumber":87,"Velocity":69,"Duration":626632,"SoundDuration":626632,"Delta":247321890},{"NoteNumber":90,"Velocity":82,"Duration":626632,"SoundDuration":626632,"Delta":247321890},{"NoteNumber":48,"Velocity":45,"Duration":626632,"SoundDuration":626632,"Delta":247321890},{"NoteNumber":45,"Velocity":45,"Duration":626632,"SoundDuration":626632,"Delta":247321890},{"NoteNumber":51,"Velocity":45,"Duration":626632,"SoundDuration":626632,"Delta":247321890},{"NoteNumber":57,"Velocity":53,"Duration":626632,"SoundDuration":626632,"Delta":247321890},{"NoteNumber":78,"Velocity":56,"Duration":156657,"SoundDuration":156657,"Delta":247478548},{"NoteNumber":84,"Velocity":64,"Duration":156658,"SoundDuration":156658,"Delta":247635206},{"NoteNumber":78,"Velocity":53,"Duration":156657,"SoundDuration":156657,"Delta":247791864},{"NoteNumber":89,"Velocity":82,"Duration":626632,"SoundDuration":626632,"Delta":247948522},{"NoteNumber":86,"Velocity":69,"Duration":156657,"SoundDuration":156657,"Delta":247948522},{"NoteNumber":50,"Velocity":45,"Duration":626632,"SoundDuration":626632,"Delta":247948522},{"NoteNumber":47,"Velocity":45,"Duration":626632,"SoundDuration":626632,"Delta":247948522},{"NoteNumber":55,"Velocity":45,"Duration":626632,"SoundDuration":626632,"Delta":247948522},{"NoteNumber":59,"Velocity":53,"Duration":626632,"SoundDuration":626632,"Delta":247948522},{"NoteNumber":77,"Velocity":56,"Duration":156657,"SoundDuration":156657,"Delta":248105180},{"NoteNumber":86,"Velocity":64,"Duration":156658,"SoundDuration":156658,"Delta":248261838},{"NoteNumber":77,"Velocity":53,"Duration":156657,"SoundDuration":156657,"Delta":248418496},{"NoteNumber":84,"Velocity":69,"Duration":157480,"SoundDuration":157480,"Delta":248575154},{"NoteNumber":79,"Velocity":56,"Duration":157480,"SoundDuration":157480,"Delta":248575154},{"NoteNumber":88,"Velocity":82,"Duration":629921,"SoundDuration":629921,"Delta":248575154},{"NoteNumber":52,"Velocity":45,"Duration":629921,"SoundDuration":629921,"Delta":248575154},{"NoteNumber":48,"Velocity":45,"Duration":629921,"SoundDuration":629921,"Delta":248575154},{"NoteNumber":55,"Velocity":45,"Duration":629921,"SoundDuration":629921,"Delta":248575154},{"NoteNumber":60,"Velocity":53,"Duration":629921,"SoundDuration":629921,"Delta":248575154},{"NoteNumber":76,"Velocity":56,"Duration":157480,"SoundDuration":157480,"Delta":248732634},{"NoteNumber":84,"Velocity":64,"Duration":157480,"SoundDuration":157480,"Delta":248890115},{"NoteNumber":79,"Velocity":53,"Duration":157480,"SoundDuration":157480,"Delta":248890115},{"NoteNumber":76,"Velocity":53,"Duration":157480,"SoundDuration":157480,"Delta":249047595},{"NoteNumber":88,"Velocity":69,"Duration":168067,"SoundDuration":168067,"Delta":249205076},{"NoteNumber":91,"Velocity":82,"Duration":336133,"SoundDuration":336133,"Delta":249205076},{"NoteNumber":82,"Velocity":56,"Duration":168067,"SoundDuration":168067,"Delta":249205076},{"NoteNumber":55,"Velocity":45,"Duration":336133,"SoundDuration":336133,"Delta":249205076},{"NoteNumber":49,"Velocity":45,"Duration":336133,"SoundDuration":336133,"Delta":249205076},{"NoteNumber":58,"Velocity":45,"Duration":336133,"SoundDuration":336133,"Delta":249205076},{"NoteNumber":61,"Velocity":53,"Duration":336133,"SoundDuration":336133,"Delta":249205076},{"NoteNumber":79,"Velocity":56,"Duration":168066,"SoundDuration":168066,"Delta":249373143},{"NoteNumber":89,"Velocity":82,"Duration":639999,"SoundDuration":639999,"Delta":249541210},{"NoteNumber":86,"Velocity":69,"Duration":159999,"SoundDuration":159999,"Delta":249541210},{"NoteNumber":81,"Velocity":56,"Duration":159999,"SoundDuration":159999,"Delta":249541210},{"NoteNumber":53,"Velocity":45,"Duration":639999,"SoundDuration":639999,"Delta":249541210},{"NoteNumber":50,"Velocity":45,"Duration":639999,"SoundDuration":639999,"Delta":249541210},{"NoteNumber":57,"Velocity":45,"Duration":639999,"SoundDuration":639999,"Delta":249541210},{"NoteNumber":62,"Velocity":53,"Duration":639999,"SoundDuration":639999,"Delta":249541210},{"NoteNumber":77,"Velocity":56,"Duration":159999,"SoundDuration":159999,"Delta":249701210},{"NoteNumber":86,"Velocity":64,"Duration":159999,"SoundDuration":159999,"Delta":249861210},{"NoteNumber":81,"Velocity":53,"Duration":159999,"SoundDuration":159999,"Delta":249861210},{"NoteNumber":77,"Velocity":53,"Duration":159999,"SoundDuration":159999,"Delta":250021210},{"NoteNumber":86,"Velocity":82,"Duration":336133,"SoundDuration":336133,"Delta":250181210},{"NoteNumber":81,"Velocity":56,"Duration":168067,"SoundDuration":168067,"Delta":250181210},{"NoteNumber":57,"Velocity":45,"Duration":336133,"SoundDuration":336133,"Delta":250181210},{"NoteNumber":53,"Velocity":45,"Duration":336133,"SoundDuration":336133,"Delta":250181210},{"NoteNumber":62,"Velocity":45,"Duration":336133,"SoundDuration":336133,"Delta":250181210},{"NoteNumber":65,"Velocity":53,"Duration":336133,"SoundDuration":336133,"Delta":250181210},{"NoteNumber":74,"Velocity":56,"Duration":168066,"SoundDuration":168066,"Delta":250349277},{"NoteNumber":84,"Velocity":82,"Duration":979935,"SoundDuration":979935,"Delta":250517344},{"NoteNumber":79,"Velocity":69,"Duration":160427,"SoundDuration":160427,"Delta":250517344},{"NoteNumber":76,"Velocity":56,"Duration":160427,"SoundDuration":160427,"Delta":250517344},{"NoteNumber":60,"Velocity":45,"Duration":979935,"SoundDuration":979935,"Delta":250517344},{"NoteNumber":55,"Velocity":45,"Duration":979935,"SoundDuration":979935,"Delta":250517344},{"NoteNumber":64,"Velocity":45,"Duration":979935,"SoundDuration":979935,"Delta":250517344},{"NoteNumber":67,"Velocity":53,"Duration":979935,"SoundDuration":979935,"Delta":250517344},{"NoteNumber":72,"Velocity":56,"Duration":160427,"SoundDuration":160427,"Delta":250677772},{"NoteNumber":79,"Velocity":64,"Duration":160427,"SoundDuration":160427,"Delta":250838200},{"NoteNumber":76,"Velocity":53,"Duration":160427,"SoundDuration":160427,"Delta":250838200},{"NoteNumber":72,"Velocity":53,"Duration":160428,"SoundDuration":160428,"Delta":250998628},{"NoteNumber":79,"Velocity":56,"Duration":171428,"SoundDuration":171428,"Delta":251159056},{"NoteNumber":76,"Velocity":53,"Duration":171428,"SoundDuration":171428,"Delta":251159056},{"NoteNumber":72,"Velocity":56,"Duration":126254,"SoundDuration":126254,"Delta":251330484},{"NoteNumber":77,"Velocity":50,"Duration":200540,"SoundDuration":200540,"Delta":251456739},{"NoteNumber":83,"Velocity":62,"Duration":180270,"SoundDuration":180270,"Delta":251477009},{"NoteNumber":88,"Velocity":73,"Duration":639999,"SoundDuration":639999,"Delta":251497280},{"NoteNumber":31,"Velocity":40,"Duration":970578,"SoundDuration":970578,"Delta":251497280},{"NoteNumber":43,"Velocity":47,"Duration":970578,"SoundDuration":970578,"Delta":251497280},{"NoteNumber":76,"Velocity":50,"Duration":159999,"SoundDuration":159999,"Delta":251657280},{"NoteNumber":83,"Velocity":57,"Duration":159999,"SoundDuration":159999,"Delta":251817280},{"NoteNumber":77,"Velocity":47,"Duration":159999,"SoundDuration":159999,"Delta":251817280},{"NoteNumber":76,"Velocity":47,"Duration":159999,"SoundDuration":159999,"Delta":251977280},{"NoteNumber":77,"Velocity":47,"Duration":165289,"SoundDuration":165289,"Delta":252137280},{"NoteNumber":83,"Velocity":50,"Duration":165289,"SoundDuration":165289,"Delta":252137280},{"NoteNumber":86,"Velocity":73,"Duration":330579,"SoundDuration":330579,"Delta":252137280},{"NoteNumber":76,"Velocity":50,"Duration":165289,"SoundDuration":165289,"Delta":252302569},{"NoteNumber":84,"Velocity":73,"Duration":956275,"SoundDuration":956275,"Delta":252467859},{"NoteNumber":76,"Velocity":50,"Duration":160427,"SoundDuration":160427,"Delta":252467859},{"NoteNumber":79,"Velocity":62,"Duration":160427,"SoundDuration":160427,"Delta":252467859},{"NoteNumber":43,"Velocity":40,"Duration":956275,"SoundDuration":956275,"Delta":252467859},{"NoteNumber":36,"Velocity":40,"Duration":956275,"SoundDuration":956275,"Delta":252467859},{"NoteNumber":48,"Velocity":47,"Duration":956275,"SoundDuration":956275,"Delta":252467859},{"NoteNumber":72,"Velocity":50,"Duration":158311,"SoundDuration":158311,"Delta":252628287},{"NoteNumber":79,"Velocity":57,"Duration":158311,"SoundDuration":158311,"Delta":252786598},{"NoteNumber":76,"Velocity":47,"Duration":158311,"SoundDuration":158311,"Delta":252786598},{"NoteNumber":72,"Velocity":47,"Duration":158311,"SoundDuration":158311,"Delta":252944910},{"NoteNumber":76,"Velocity":47,"Duration":158311,"SoundDuration":158311,"Delta":253103221},{"NoteNumber":79,"Velocity":50,"Duration":158311,"SoundDuration":158311,"Delta":253103221},{"NoteNumber":72,"Velocity":50,"Duration":162601,"SoundDuration":162601,"Delta":253261533},{"NoteNumber":79,"Velocity":50,"Duration":160857,"SoundDuration":160857,"Delta":253424134},{"NoteNumber":82,"Velocity":62,"Duration":160857,"SoundDuration":160857,"Delta":253424134},{"NoteNumber":84,"Velocity":73,"Duration":3825115,"SoundDuration":3825115,"Delta":253424134},{"NoteNumber":55,"Velocity":40,"Duration":966013,"SoundDuration":966013,"Delta":253424134},{"NoteNumber":58,"Velocity":40,"Duration":966013,"SoundDuration":966013,"Delta":253424134},{"NoteNumber":48,"Velocity":40,"Duration":3198482,"SoundDuration":3198482,"Delta":253424134},{"NoteNumber":60,"Velocity":47,"Duration":3198482,"SoundDuration":3198482,"Delta":253424134},{"NoteNumber":72,"Velocity":50,"Duration":160858,"SoundDuration":160858,"Delta":253584992},{"NoteNumber":79,"Velocity":47,"Duration":160857,"SoundDuration":160857,"Delta":253745850},{"NoteNumber":82,"Velocity":57,"Duration":160857,"SoundDuration":160857,"Delta":253745850},{"NoteNumber":72,"Velocity":47,"Duration":160857,"SoundDuration":160857,"Delta":253906708},{"NoteNumber":79,"Velocity":47,"Duration":161290,"SoundDuration":161290,"Delta":254067566},{"NoteNumber":82,"Velocity":50,"Duration":161290,"SoundDuration":161290,"Delta":254067566},{"NoteNumber":72,"Velocity":50,"Duration":161290,"SoundDuration":161290,"Delta":254228857},{"NoteNumber":77,"Velocity":50,"Duration":159574,"SoundDuration":159574,"Delta":254390147},{"NoteNumber":81,"Velocity":62,"Duration":159574,"SoundDuration":159574,"Delta":254390147},{"NoteNumber":53,"Velocity":40,"Duration":959153,"SoundDuration":959153,"Delta":254390147},{"NoteNumber":57,"Velocity":40,"Duration":959153,"SoundDuration":959153,"Delta":254390147},{"NoteNumber":72,"Velocity":50,"Duration":159574,"SoundDuration":159574,"Delta":254549722},{"NoteNumber":77,"Velocity":47,"Duration":159574,"SoundDuration":159574,"Delta":254709296},{"NoteNumber":81,"Velocity":57,"Duration":159574,"SoundDuration":159574,"Delta":254709296},{"NoteNumber":72,"Velocity":47,"Duration":159574,"SoundDuration":159574,"Delta":254868871},{"NoteNumber":77,"Velocity":47,"Duration":160427,"SoundDuration":160427,"Delta":255028445},{"NoteNumber":81,"Velocity":50,"Duration":160427,"SoundDuration":160427,"Delta":255028445},{"NoteNumber":72,"Velocity":50,"Duration":160427,"SoundDuration":160427,"Delta":255188873},{"NoteNumber":74,"Velocity":50,"Duration":159999,"SoundDuration":159999,"Delta":255349301},{"NoteNumber":77,"Velocity":62,"Duration":159999,"SoundDuration":159999,"Delta":255349301},{"NoteNumber":50,"Velocity":40,"Duration":960000,"SoundDuration":960000,"Delta":255349301},{"NoteNumber":53,"Velocity":40,"Duration":960000,"SoundDuration":960000,"Delta":255349301},{"NoteNumber":72,"Velocity":50,"Duration":159999,"SoundDuration":159999,"Delta":255509301},{"NoteNumber":74,"Velocity":47,"Duration":159999,"SoundDuration":159999,"Delta":255669301},{"NoteNumber":77,"Velocity":57,"Duration":159999,"SoundDuration":159999,"Delta":255669301},{"NoteNumber":72,"Velocity":47,"Duration":159999,"SoundDuration":159999,"Delta":255829301},{"NoteNumber":74,"Velocity":47,"Duration":159999,"SoundDuration":159999,"Delta":255989301},{"NoteNumber":77,"Velocity":50,"Duration":159999,"SoundDuration":159999,"Delta":255989301},{"NoteNumber":72,"Velocity":50,"Duration":160000,"SoundDuration":160000,"Delta":256149301},{"NoteNumber":76,"Velocity":50,"Duration":156657,"SoundDuration":156657,"Delta":256309301},{"NoteNumber":79,"Velocity":62,"Duration":156657,"SoundDuration":156657,"Delta":256309301},{"NoteNumber":52,"Velocity":47,"Duration":313315,"SoundDuration":313315,"Delta":256309301},{"NoteNumber":55,"Velocity":47,"Duration":313315,"SoundDuration":313315,"Delta":256309301},{"NoteNumber":72,"Velocity":50,"Duration":156657,"SoundDuration":156657,"Delta":256465959},{"NoteNumber":76,"Velocity":47,"Duration":156657,"SoundDuration":156657,"Delta":256622617},{"NoteNumber":79,"Velocity":57,"Duration":156657,"SoundDuration":156657,"Delta":256622617},{"NoteNumber":40,"Velocity":40,"Duration":156657,"SoundDuration":156657,"Delta":256622617},{"NoteNumber":52,"Velocity":40,"Duration":156657,"SoundDuration":156657,"Delta":256622617},{"NoteNumber":72,"Velocity":47,"Duration":156657,"SoundDuration":156657,"Delta":256779275},{"NoteNumber":76,"Velocity":47,"Duration":156658,"SoundDuration":156658,"Delta":256935933},{"NoteNumber":79,"Velocity":50,"Duration":156658,"SoundDuration":156658,"Delta":256935933},{"NoteNumber":41,"Velocity":40,"Duration":156658,"SoundDuration":156658,"Delta":256935933},{"NoteNumber":53,"Velocity":40,"Duration":156658,"SoundDuration":156658,"Delta":256935933},{"NoteNumber":72,"Velocity":50,"Duration":156657,"SoundDuration":156657,"Delta":257092591},{"NoteNumber":67,"Velocity":36,"Duration":156657,"SoundDuration":156657,"Delta":257249249},{"NoteNumber":70,"Velocity":44,"Duration":156657,"SoundDuration":156657,"Delta":257249249},{"NoteNumber":72,"Velocity":65,"Duration":6615040,"SoundDuration":6615040,"Delta":257249249},{"NoteNumber":46,"Velocity":51,"Duration":946631,"SoundDuration":946631,"Delta":257249249},{"NoteNumber":38,"Velocity":51,"Duration":156657,"SoundDuration":156657,"Delta":257249249},{"NoteNumber":50,"Velocity":51,"Duration":156657,"SoundDuration":156657,"Delta":257249249},{"NoteNumber":60,"Velocity":36,"Duration":156657,"SoundDuration":156657,"Delta":257405907},{"NoteNumber":67,"Velocity":33,"Duration":156657,"SoundDuration":156657,"Delta":257562565},{"NoteNumber":70,"Velocity":40,"Duration":156657,"SoundDuration":156657,"Delta":257562565},{"NoteNumber":40,"Velocity":42,"Duration":156657,"SoundDuration":156657,"Delta":257562565},{"NoteNumber":52,"Velocity":42,"Duration":156657,"SoundDuration":156657,"Delta":257562565},{"NoteNumber":60,"Velocity":32,"Duration":156657,"SoundDuration":156657,"Delta":257719223},{"NoteNumber":67,"Velocity":32,"Duration":160000,"SoundDuration":160000,"Delta":257875881},{"NoteNumber":70,"Velocity":35,"Duration":160000,"SoundDuration":160000,"Delta":257875881},{"NoteNumber":36,"Velocity":42,"Duration":2213935,"SoundDuration":2213935,"Delta":257875881},{"NoteNumber":48,"Velocity":42,"Duration":2213935,"SoundDuration":2213935,"Delta":257875881},{"NoteNumber":60,"Velocity":35,"Duration":159999,"SoundDuration":159999,"Delta":258035881},{"NoteNumber":65,"Velocity":35,"Duration":157480,"SoundDuration":157480,"Delta":258195881},{"NoteNumber":69,"Velocity":43,"Duration":157480,"SoundDuration":157480,"Delta":258195881},{"NoteNumber":41,"Velocity":47,"Duration":948224,"SoundDuration":948224,"Delta":258195881},{"NoteNumber":45,"Velocity":47,"Duration":948224,"SoundDuration":948224,"Delta":258195881},{"NoteNumber":60,"Velocity":34,"Duration":157480,"SoundDuration":157480,"Delta":258353362},{"NoteNumber":65,"Velocity":32,"Duration":157480,"SoundDuration":157480,"Delta":258510842},{"NoteNumber":69,"Velocity":39,"Duration":157480,"SoundDuration":157480,"Delta":258510842},{"NoteNumber":60,"Velocity":32,"Duration":157480,"SoundDuration":157480,"Delta":258668323},{"NoteNumber":65,"Velocity":32,"Duration":159151,"SoundDuration":159151,"Delta":258825803},{"NoteNumber":69,"Velocity":34,"Duration":159151,"SoundDuration":159151,"Delta":258825803},{"NoteNumber":60,"Velocity":33,"Duration":159151,"SoundDuration":159151,"Delta":258984954},{"NoteNumber":62,"Velocity":33,"Duration":157480,"SoundDuration":157480,"Delta":259144105},{"NoteNumber":65,"Velocity":41,"Duration":157480,"SoundDuration":157480,"Delta":259144105},{"NoteNumber":38,"Velocity":43,"Duration":945711,"SoundDuration":945711,"Delta":259144105},{"NoteNumber":41,"Velocity":43,"Duration":945711,"SoundDuration":945711,"Delta":259144105},{"NoteNumber":60,"Velocity":33,"Duration":157480,"SoundDuration":157480,"Delta":259301586},{"NoteNumber":62,"Velocity":31,"Duration":157480,"SoundDuration":157480,"Delta":259459066},{"NoteNumber":65,"Velocity":37,"Duration":157480,"SoundDuration":157480,"Delta":259459066},{"NoteNumber":60,"Velocity":31,"Duration":157480,"SoundDuration":157480,"Delta":259616547},{"NoteNumber":62,"Velocity":31,"Duration":157894,"SoundDuration":157894,"Delta":259774027},{"NoteNumber":65,"Velocity":32,"Duration":157894,"SoundDuration":157894,"Delta":259774027},{"NoteNumber":60,"Velocity":32,"Duration":157894,"SoundDuration":157894,"Delta":259931922},{"NoteNumber":64,"Velocity":32,"Duration":157480,"SoundDuration":157480,"Delta":260089816},{"NoteNumber":67,"Velocity":40,"Duration":157480,"SoundDuration":157480,"Delta":260089816},{"NoteNumber":40,"Velocity":42,"Duration":157480,"SoundDuration":157480,"Delta":260089816},{"NoteNumber":43,"Velocity":42,"Duration":157480,"SoundDuration":157480,"Delta":260089816},{"NoteNumber":60,"Velocity":32,"Duration":157480,"SoundDuration":157480,"Delta":260247297},{"NoteNumber":64,"Velocity":30,"Duration":157480,"SoundDuration":157480,"Delta":260404777},{"NoteNumber":67,"Velocity":36,"Duration":157480,"SoundDuration":157480,"Delta":260404777},{"NoteNumber":40,"Velocity":35,"Duration":157480,"SoundDuration":157480,"Delta":260404777},{"NoteNumber":60,"Velocity":29,"Duration":157480,"SoundDuration":157480,"Delta":260562258},{"NoteNumber":64,"Velocity":29,"Duration":160858,"SoundDuration":160858,"Delta":260719738},{"NoteNumber":67,"Velocity":32,"Duration":160858,"SoundDuration":160858,"Delta":260719738},{"NoteNumber":41,"Velocity":32,"Duration":160858,"SoundDuration":160858,"Delta":260719738},{"NoteNumber":60,"Velocity":32,"Duration":160857,"SoundDuration":160857,"Delta":260880596},{"NoteNumber":64,"Velocity":38,"Duration":157067,"SoundDuration":157067,"Delta":261041454},{"NoteNumber":38,"Velocity":38,"Duration":157067,"SoundDuration":157067,"Delta":261041454},{"NoteNumber":60,"Velocity":31,"Duration":157068,"SoundDuration":157068,"Delta":261198522},{"NoteNumber":64,"Velocity":35,"Duration":157067,"SoundDuration":157067,"Delta":261355590},{"NoteNumber":40,"Velocity":31,"Duration":157067,"SoundDuration":157067,"Delta":261355590},{"NoteNumber":60,"Velocity":28,"Duration":157067,"SoundDuration":157067,"Delta":261512658},{"NoteNumber":64,"Velocity":30,"Duration":157068,"SoundDuration":157068,"Delta":261669726},{"NoteNumber":36,"Velocity":30,"Duration":2507063,"SoundDuration":2507063,"Delta":261669726},{"NoteNumber":60,"Velocity":30,"Duration":157067,"SoundDuration":157067,"Delta":261826794},{"NoteNumber":64,"Velocity":37,"Duration":156657,"SoundDuration":156657,"Delta":261983862},{"NoteNumber":60,"Velocity":30,"Duration":156657,"SoundDuration":156657,"Delta":262140520},{"NoteNumber":64,"Velocity":33,"Duration":155440,"SoundDuration":155440,"Delta":262297178},{"NoteNumber":60,"Velocity":27,"Duration":157067,"SoundDuration":157067,"Delta":262452619},{"NoteNumber":64,"Velocity":28,"Duration":154241,"SoundDuration":154241,"Delta":262609687},{"NoteNumber":60,"Velocity":28,"Duration":158729,"SoundDuration":158729,"Delta":262763928},{"NoteNumber":64,"Velocity":35,"Duration":157067,"SoundDuration":157067,"Delta":262922658},{"NoteNumber":60,"Velocity":27,"Duration":157068,"SoundDuration":157068,"Delta":263079726},{"NoteNumber":64,"Velocity":31,"Duration":155038,"SoundDuration":155038,"Delta":263236794},{"NoteNumber":60,"Velocity":24,"Duration":158311,"SoundDuration":158311,"Delta":263391833},{"NoteNumber":64,"Velocity":26,"Duration":156250,"SoundDuration":156250,"Delta":263550145},{"NoteNumber":60,"Velocity":26,"Duration":157894,"SoundDuration":157894,"Delta":263706395},{"NoteNumber":64,"Velocity":34,"Duration":156250,"SoundDuration":156250,"Delta":263864289},{"NoteNumber":60,"Velocity":26,"Duration":156250,"SoundDuration":156250,"Delta":264020539},{"NoteNumber":64,"Velocity":30,"Duration":155440,"SoundDuration":155440,"Delta":264176789},{"NoteNumber":36,"Velocity":30,"Duration":155440,"SoundDuration":155440,"Delta":264176789},{"NoteNumber":60,"Velocity":24,"Duration":157894,"SoundDuration":157894,"Delta":264332230},{"NoteNumber":64,"Velocity":26,"Duration":155844,"SoundDuration":155844,"Delta":264490124},{"NoteNumber":38,"Velocity":29,"Duration":155844,"SoundDuration":155844,"Delta":264490124},{"NoteNumber":60,"Velocity":26,"Duration":157067,"SoundDuration":157067,"Delta":264645968},{"NoteNumber":64,"Velocity":33,"Duration":157067,"SoundDuration":157067,"Delta":264803036},{"NoteNumber":35,"Velocity":34,"Duration":157067,"SoundDuration":157067,"Delta":264803036},{"NoteNumber":60,"Velocity":25,"Duration":157068,"SoundDuration":157068,"Delta":264960104},{"NoteNumber":64,"Velocity":29,"Duration":157067,"SoundDuration":157067,"Delta":265117172},{"NoteNumber":36,"Velocity":28,"Duration":157067,"SoundDuration":157067,"Delta":265117172},{"NoteNumber":60,"Velocity":23,"Duration":157067,"SoundDuration":157067,"Delta":265274240},{"NoteNumber":64,"Velocity":25,"Duration":157068,"SoundDuration":157068,"Delta":265431308},{"NoteNumber":33,"Velocity":27,"Duration":2510242,"SoundDuration":2510242,"Delta":265431308},{"NoteNumber":60,"Velocity":25,"Duration":157067,"SoundDuration":157067,"Delta":265588376},{"NoteNumber":64,"Velocity":32,"Duration":157067,"SoundDuration":157067,"Delta":265745444},{"NoteNumber":60,"Velocity":24,"Duration":157068,"SoundDuration":157068,"Delta":265902512},{"NoteNumber":64,"Velocity":28,"Duration":155440,"SoundDuration":155440,"Delta":266059580},{"NoteNumber":60,"Velocity":22,"Duration":157480,"SoundDuration":157480,"Delta":266215021},{"NoteNumber":64,"Velocity":24,"Duration":156250,"SoundDuration":156250,"Delta":266372501},{"NoteNumber":60,"Velocity":24,"Duration":156250,"SoundDuration":156250,"Delta":266528751},{"NoteNumber":64,"Velocity":31,"Duration":157067,"SoundDuration":157067,"Delta":266685001},{"NoteNumber":60,"Velocity":24,"Duration":157068,"SoundDuration":157068,"Delta":266842069},{"NoteNumber":64,"Velocity":27,"Duration":156657,"SoundDuration":156657,"Delta":266999137},{"NoteNumber":60,"Velocity":22,"Duration":156657,"SoundDuration":156657,"Delta":267155795},{"NoteNumber":64,"Velocity":23,"Duration":157480,"SoundDuration":157480,"Delta":267312453},{"NoteNumber":60,"Velocity":23,"Duration":157480,"SoundDuration":157480,"Delta":267469934},{"NoteNumber":64,"Velocity":30,"Duration":157067,"SoundDuration":157067,"Delta":267627414},{"NoteNumber":60,"Velocity":23,"Duration":157068,"SoundDuration":157068,"Delta":267784482},{"NoteNumber":64,"Velocity":26,"Duration":157067,"SoundDuration":157067,"Delta":267941550},{"NoteNumber":33,"Velocity":26,"Duration":157067,"SoundDuration":157067,"Delta":267941550},{"NoteNumber":60,"Velocity":21,"Duration":157067,"SoundDuration":157067,"Delta":268098618},{"NoteNumber":64,"Velocity":22,"Duration":157068,"SoundDuration":157068,"Delta":268255686},{"NoteNumber":35,"Velocity":26,"Duration":157068,"SoundDuration":157068,"Delta":268255686},{"NoteNumber":60,"Velocity":22,"Duration":157067,"SoundDuration":157067,"Delta":268412754},{"NoteNumber":64,"Velocity":29,"Duration":156657,"SoundDuration":156657,"Delta":268569822},{"NoteNumber":31,"Velocity":30,"Duration":156657,"SoundDuration":156657,"Delta":268569822},{"NoteNumber":60,"Velocity":22,"Duration":156657,"SoundDuration":156657,"Delta":268726480},{"NoteNumber":64,"Velocity":25,"Duration":156657,"SoundDuration":156657,"Delta":268883138},{"NoteNumber":33,"Velocity":24,"Duration":156657,"SoundDuration":156657,"Delta":268883138},{"NoteNumber":60,"Velocity":20,"Duration":156657,"SoundDuration":156657,"Delta":269039796},{"NoteNumber":64,"Velocity":22,"Duration":156658,"SoundDuration":156658,"Delta":269196454},{"NoteNumber":29,"Velocity":24,"Duration":3427488,"SoundDuration":3427488,"Delta":269196454},{"NoteNumber":60,"Velocity":22,"Duration":156657,"SoundDuration":156657,"Delta":269353112},{"NoteNumber":64,"Velocity":28,"Duration":238266,"SoundDuration":238266,"Delta":269509770},{"NoteNumber":60,"Velocity":22,"Duration":240348,"SoundDuration":240348,"Delta":269748037},{"NoteNumber":64,"Velocity":27,"Duration":242289,"SoundDuration":242289,"Delta":269988386},{"NoteNumber":60,"Velocity":22,"Duration":244325,"SoundDuration":244325,"Delta":270230676},{"NoteNumber":64,"Velocity":27,"Duration":332770,"SoundDuration":332770,"Delta":270475002},{"NoteNumber":60,"Velocity":22,"Duration":341726,"SoundDuration":341726,"Delta":270807773},{"NoteNumber":64,"Velocity":26,"Duration":351266,"SoundDuration":351266,"Delta":271149499},{"NoteNumber":60,"Velocity":20,"Duration":361655,"SoundDuration":361655,"Delta":271500765},{"NoteNumber":64,"Velocity":25,"Duration":374660,"SoundDuration":374660,"Delta":271862421},{"NoteNumber":60,"Velocity":20,"Duration":386861,"SoundDuration":386861,"Delta":272237081},{"NoteNumber":64,"Velocity":60,"Duration":108021,"SoundDuration":108021,"Delta":272623943},{"NoteNumber":40,"Velocity":47,"Duration":108021,"SoundDuration":108021,"Delta":272623943},{"NoteNumber":62,"Velocity":62,"Duration":107329,"SoundDuration":107329,"Delta":272731965},{"NoteNumber":38,"Velocity":49,"Duration":107329,"SoundDuration":107329,"Delta":272731965},{"NoteNumber":60,"Velocity":64,"Duration":106390,"SoundDuration":106390,"Delta":272839295},{"NoteNumber":36,"Velocity":52,"Duration":106390,"SoundDuration":106390,"Delta":272839295},{"NoteNumber":59,"Velocity":66,"Duration":105973,"SoundDuration":105973,"Delta":272945685},{"NoteNumber":35,"Velocity":54,"Duration":105973,"SoundDuration":105973,"Delta":272945685},{"NoteNumber":57,"Velocity":69,"Duration":106071,"SoundDuration":106071,"Delta":273051659},{"NoteNumber":33,"Velocity":57,"Duration":106071,"SoundDuration":106071,"Delta":273051659},{"NoteNumber":55,"Velocity":71,"Duration":105148,"SoundDuration":105148,"Delta":273157730},{"NoteNumber":31,"Velocity":59,"Duration":105148,"SoundDuration":105148,"Delta":273157730},{"NoteNumber":53,"Velocity":73,"Duration":102687,"SoundDuration":102687,"Delta":273262879},{"NoteNumber":29,"Velocity":62,"Duration":102687,"SoundDuration":102687,"Delta":273262879},{"NoteNumber":52,"Velocity":82,"Duration":206142,"SoundDuration":206142,"Delta":273365566},{"NoteNumber":28,"Velocity":73,"Duration":206142,"SoundDuration":206142,"Delta":273365566},{"NoteNumber":40,"Velocity":73,"Duration":206142,"SoundDuration":206142,"Delta":273365566},{"NoteNumber":83,"Velocity":63,"Duration":576553,"SoundDuration":576553,"Delta":273983995},{"NoteNumber":86,"Velocity":75,"Duration":576553,"SoundDuration":576553,"Delta":273983995},{"NoteNumber":74,"Velocity":63,"Duration":576553,"SoundDuration":576553,"Delta":273983995},{"NoteNumber":62,"Velocity":56,"Duration":576553,"SoundDuration":576553,"Delta":273983995},{"NoteNumber":59,"Velocity":47,"Duration":576553,"SoundDuration":576553,"Delta":273983995},{"NoteNumber":52,"Velocity":47,"Duration":1877470,"SoundDuration":1877470,"Delta":273983995},{"NoteNumber":72,"Velocity":62,"Duration":576553,"SoundDuration":576553,"Delta":274560549},{"NoteNumber":84,"Velocity":73,"Duration":576553,"SoundDuration":576553,"Delta":274560549},{"NoteNumber":81,"Velocity":73,"Duration":576553,"SoundDuration":576553,"Delta":274560549},{"NoteNumber":57,"Velocity":47,"Duration":576553,"SoundDuration":576553,"Delta":274560549},{"NoteNumber":60,"Velocity":56,"Duration":576553,"SoundDuration":576553,"Delta":274560549},{"NoteNumber":78,"Velocity":63,"Duration":576553,"SoundDuration":576553,"Delta":275137102},{"NoteNumber":69,"Velocity":63,"Duration":576553,"SoundDuration":576553,"Delta":275137102},{"NoteNumber":81,"Velocity":75,"Duration":576553,"SoundDuration":576553,"Delta":275137102},{"NoteNumber":57,"Velocity":56,"Duration":576553,"SoundDuration":576553,"Delta":275137102},{"NoteNumber":54,"Velocity":47,"Duration":576553,"SoundDuration":576553,"Delta":275137102},{"NoteNumber":83,"Velocity":70,"Duration":80623,"SoundDuration":80623,"Delta":275713656},{"NoteNumber":71,"Velocity":59,"Duration":80623,"SoundDuration":80623,"Delta":275713656},{"NoteNumber":79,"Velocity":59,"Duration":80623,"SoundDuration":80623,"Delta":275713656},{"NoteNumber":59,"Velocity":56,"Duration":80623,"SoundDuration":80623,"Delta":275713656},{"NoteNumber":55,"Velocity":47,"Duration":80623,"SoundDuration":80623,"Delta":275713656},{"NoteNumber":76,"Velocity":52,"Duration":83798,"SoundDuration":83798,"Delta":275874903},{"NoteNumber":79,"Velocity":62,"Duration":83798,"SoundDuration":83798,"Delta":275874903},{"NoteNumber":67,"Velocity":52,"Duration":83798,"SoundDuration":83798,"Delta":275874903},{"NoteNumber":52,"Velocity":44,"Duration":83798,"SoundDuration":83798,"Delta":275874903},{"NoteNumber":55,"Velocity":52,"Duration":83798,"SoundDuration":83798,"Delta":275874903},{"NoteNumber":78,"Velocity":54,"Duration":80623,"SoundDuration":80623,"Delta":276042501},{"NoteNumber":69,"Velocity":55,"Duration":80623,"SoundDuration":80623,"Delta":276042501},{"NoteNumber":81,"Velocity":70,"Duration":80623,"SoundDuration":80623,"Delta":276042501},{"NoteNumber":54,"Velocity":47,"Duration":80623,"SoundDuration":80623,"Delta":276042501},{"NoteNumber":57,"Velocity":56,"Duration":80623,"SoundDuration":80623,"Delta":276042501},{"NoteNumber":75,"Velocity":53,"Duration":82978,"SoundDuration":82978,"Delta":276203748},{"NoteNumber":78,"Velocity":63,"Duration":82978,"SoundDuration":82978,"Delta":276203748},{"NoteNumber":66,"Velocity":53,"Duration":82978,"SoundDuration":82978,"Delta":276203748},{"NoteNumber":54,"Velocity":50,"Duration":82978,"SoundDuration":82978,"Delta":276203748},{"NoteNumber":51,"Velocity":42,"Duration":82978,"SoundDuration":82978,"Delta":276203748},{"NoteNumber":79,"Velocity":70,"Duration":81133,"SoundDuration":81133,"Delta":276369704},{"NoteNumber":67,"Velocity":59,"Duration":81133,"SoundDuration":81133,"Delta":276369704},{"NoteNumber":76,"Velocity":59,"Duration":81133,"SoundDuration":81133,"Delta":276369704},{"NoteNumber":55,"Velocity":56,"Duration":81133,"SoundDuration":81133,"Delta":276369704},{"NoteNumber":52,"Velocity":47,"Duration":81133,"SoundDuration":81133,"Delta":276369704},{"NoteNumber":64,"Velocity":54,"Duration":84350,"SoundDuration":84350,"Delta":276531972},{"NoteNumber":73,"Velocity":54,"Duration":84350,"SoundDuration":84350,"Delta":276531972},{"NoteNumber":76,"Velocity":64,"Duration":84350,"SoundDuration":84350,"Delta":276531972},{"NoteNumber":49,"Velocity":44,"Duration":84350,"SoundDuration":84350,"Delta":276531972},{"NoteNumber":52,"Velocity":52,"Duration":84350,"SoundDuration":84350,"Delta":276531972},{"NoteNumber":75,"Velocity":59,"Duration":100240,"SoundDuration":100240,"Delta":276700672},{"NoteNumber":66,"Velocity":59,"Duration":100240,"SoundDuration":100240,"Delta":276700672},{"NoteNumber":78,"Velocity":70,"Duration":100240,"SoundDuration":100240,"Delta":276700672},{"NoteNumber":54,"Velocity":56,"Duration":100240,"SoundDuration":100240,"Delta":276700672},{"NoteNumber":51,"Velocity":47,"Duration":100240,"SoundDuration":100240,"Delta":276700672},{"NoteNumber":66,"Velocity":58,"Duration":92273,"SoundDuration":92273,"Delta":277101634},{"NoteNumber":75,"Velocity":58,"Duration":92273,"SoundDuration":92273,"Delta":277101634},{"NoteNumber":78,"Velocity":69,"Duration":92273,"SoundDuration":92273,"Delta":277101634},{"NoteNumber":47,"Velocity":55,"Duration":721238,"SoundDuration":721238,"Delta":277286181},{"NoteNumber":59,"Velocity":68,"Duration":721238,"SoundDuration":721238,"Delta":277286181},{"NoteNumber":61,"Velocity":52,"Duration":82444,"SoundDuration":82444,"Delta":278007420},{"NoteNumber":73,"Velocity":62,"Duration":82444,"SoundDuration":82444,"Delta":278007420},{"NoteNumber":49,"Velocity":49,"Duration":82444,"SoundDuration":82444,"Delta":278007420},{"NoteNumber":75,"Velocity":64,"Duration":81917,"SoundDuration":81917,"Delta":278172310},{"NoteNumber":63,"Velocity":54,"Duration":81917,"SoundDuration":81917,"Delta":278172310},{"NoteNumber":51,"Velocity":50,"Duration":81917,"SoundDuration":81917,"Delta":278172310},{"NoteNumber":76,"Velocity":66,"Duration":81917,"SoundDuration":81917,"Delta":278336146},{"NoteNumber":64,"Velocity":56,"Duration":81917,"SoundDuration":81917,"Delta":278336146},{"NoteNumber":52,"Velocity":52,"Duration":81917,"SoundDuration":81917,"Delta":278336146},{"NoteNumber":66,"Velocity":56,"Duration":79816,"SoundDuration":79816,"Delta":278499982},{"NoteNumber":78,"Velocity":67,"Duration":79816,"SoundDuration":79816,"Delta":278499982},{"NoteNumber":54,"Velocity":53,"Duration":79816,"SoundDuration":79816,"Delta":278499982},{"NoteNumber":79,"Velocity":69,"Duration":79816,"SoundDuration":79816,"Delta":278659616},{"NoteNumber":67,"Velocity":58,"Duration":79816,"SoundDuration":79816,"Delta":278659616},{"NoteNumber":55,"Velocity":54,"Duration":79816,"SoundDuration":79816,"Delta":278659616},{"NoteNumber":78,"Velocity":70,"Duration":100240,"SoundDuration":100240,"Delta":278819250},{"NoteNumber":75,"Velocity":59,"Duration":100240,"SoundDuration":100240,"Delta":278819250},{"NoteNumber":66,"Velocity":59,"Duration":100240,"SoundDuration":100240,"Delta":278819250},{"NoteNumber":54,"Velocity":56,"Duration":100240,"SoundDuration":100240,"Delta":278819250},{"NoteNumber":51,"Velocity":47,"Duration":100240,"SoundDuration":100240,"Delta":278819250},{"NoteNumber":83,"Velocity":69,"Duration":92273,"SoundDuration":92273,"Delta":279220212},{"NoteNumber":71,"Velocity":58,"Duration":92273,"SoundDuration":92273,"Delta":279220212},{"NoteNumber":47,"Velocity":55,"Duration":738187,"SoundDuration":738187,"Delta":279404759},{"NoteNumber":59,"Velocity":68,"Duration":738187,"SoundDuration":738187,"Delta":279404759},{"NoteNumber":61,"Velocity":52,"Duration":82444,"SoundDuration":82444,"Delta":280142947},{"NoteNumber":73,"Velocity":62,"Duration":82444,"SoundDuration":82444,"Delta":280142947},{"NoteNumber":49,"Velocity":49,"Duration":82444,"SoundDuration":82444,"Delta":280142947},{"NoteNumber":75,"Velocity":64,"Duration":81917,"SoundDuration":81917,"Delta":280307836},{"NoteNumber":63,"Velocity":54,"Duration":81917,"SoundDuration":81917,"Delta":280307836},{"NoteNumber":51,"Velocity":50,"Duration":81917,"SoundDuration":81917,"Delta":280307836},{"NoteNumber":64,"Velocity":56,"Duration":81917,"SoundDuration":81917,"Delta":280471672},{"NoteNumber":76,"Velocity":66,"Duration":81917,"SoundDuration":81917,"Delta":280471672},{"NoteNumber":52,"Velocity":52,"Duration":81917,"SoundDuration":81917,"Delta":280471672},{"NoteNumber":78,"Velocity":67,"Duration":80068,"SoundDuration":80068,"Delta":280635508},{"NoteNumber":66,"Velocity":56,"Duration":80068,"SoundDuration":80068,"Delta":280635508},{"NoteNumber":54,"Velocity":53,"Duration":80068,"SoundDuration":80068,"Delta":280635508},{"NoteNumber":67,"Velocity":58,"Duration":80068,"SoundDuration":80068,"Delta":280795645},{"NoteNumber":79,"Velocity":69,"Duration":80068,"SoundDuration":80068,"Delta":280795645},{"NoteNumber":55,"Velocity":54,"Duration":80068,"SoundDuration":80068,"Delta":280795645},{"NoteNumber":69,"Velocity":59,"Duration":100240,"SoundDuration":100240,"Delta":280955781},{"NoteNumber":78,"Velocity":59,"Duration":100240,"SoundDuration":100240,"Delta":280955781},{"NoteNumber":81,"Velocity":70,"Duration":100240,"SoundDuration":100240,"Delta":280955781},{"NoteNumber":54,"Velocity":47,"Duration":100240,"SoundDuration":100240,"Delta":280955781},{"NoteNumber":57,"Velocity":56,"Duration":100240,"SoundDuration":100240,"Delta":280955781},{"NoteNumber":86,"Velocity":69,"Duration":92609,"SoundDuration":92609,"Delta":281356743},{"NoteNumber":74,"Velocity":58,"Duration":92609,"SoundDuration":92609,"Delta":281356743},{"NoteNumber":62,"Velocity":68,"Duration":370438,"SoundDuration":370438,"Delta":281541963},{"NoteNumber":50,"Velocity":55,"Duration":370438,"SoundDuration":370438,"Delta":281541963},{"NoteNumber":55,"Velocity":76,"Duration":206142,"SoundDuration":206142,"Delta":282097621},{"NoteNumber":31,"Velocity":51,"Duration":206142,"SoundDuration":206142,"Delta":282097621},{"NoteNumber":43,"Velocity":61,"Duration":206142,"SoundDuration":206142,"Delta":282097621},{"NoteNumber":89,"Velocity":63,"Duration":569692,"SoundDuration":569692,"Delta":282716050},{"NoteNumber":81,"Velocity":63,"Duration":569692,"SoundDuration":569692,"Delta":282716050},{"NoteNumber":93,"Velocity":75,"Duration":569692,"SoundDuration":569692,"Delta":282716050},{"NoteNumber":55,"Velocity":47,"Duration":1856887,"SoundDuration":1856887,"Delta":282716050},{"NoteNumber":69,"Velocity":56,"Duration":569692,"SoundDuration":569692,"Delta":282716050},{"NoteNumber":65,"Velocity":47,"Duration":569692,"SoundDuration":569692,"Delta":282716050},{"NoteNumber":88,"Velocity":73,"Duration":569692,"SoundDuration":569692,"Delta":283285743},{"NoteNumber":91,"Velocity":73,"Duration":569692,"SoundDuration":569692,"Delta":283285743},{"NoteNumber":79,"Velocity":62,"Duration":569692,"SoundDuration":569692,"Delta":283285743},{"NoteNumber":64,"Velocity":47,"Duration":569692,"SoundDuration":569692,"Delta":283285743},{"NoteNumber":67,"Velocity":56,"Duration":569692,"SoundDuration":569692,"Delta":283285743},{"NoteNumber":88,"Velocity":75,"Duration":569692,"SoundDuration":569692,"Delta":283855435},{"NoteNumber":76,"Velocity":63,"Duration":569692,"SoundDuration":569692,"Delta":283855435},{"NoteNumber":84,"Velocity":63,"Duration":569692,"SoundDuration":569692,"Delta":283855435},{"NoteNumber":64,"Velocity":56,"Duration":569692,"SoundDuration":569692,"Delta":283855435},{"NoteNumber":60,"Velocity":47,"Duration":569692,"SoundDuration":569692,"Delta":283855435},{"NoteNumber":89,"Velocity":70,"Duration":80623,"SoundDuration":80623,"Delta":284425128},{"NoteNumber":77,"Velocity":59,"Duration":80623,"SoundDuration":80623,"Delta":284425128},{"NoteNumber":86,"Velocity":59,"Duration":80623,"SoundDuration":80623,"Delta":284425128},{"NoteNumber":62,"Velocity":47,"Duration":80623,"SoundDuration":80623,"Delta":284425128},{"NoteNumber":65,"Velocity":56,"Duration":80623,"SoundDuration":80623,"Delta":284425128},{"NoteNumber":74,"Velocity":52,"Duration":83798,"SoundDuration":83798,"Delta":284586375},{"NoteNumber":86,"Velocity":62,"Duration":83798,"SoundDuration":83798,"Delta":284586375},{"NoteNumber":83,"Velocity":52,"Duration":83798,"SoundDuration":83798,"Delta":284586375},{"NoteNumber":62,"Velocity":52,"Duration":83798,"SoundDuration":83798,"Delta":284586375},{"NoteNumber":59,"Velocity":44,"Duration":83798,"SoundDuration":83798,"Delta":284586375},{"NoteNumber":76,"Velocity":55,"Duration":80623,"SoundDuration":80623,"Delta":284753973},{"NoteNumber":88,"Velocity":70,"Duration":80623,"SoundDuration":80623,"Delta":284753973},{"NoteNumber":84,"Velocity":54,"Duration":80623,"SoundDuration":80623,"Delta":284753973},{"NoteNumber":60,"Velocity":47,"Duration":80623,"SoundDuration":80623,"Delta":284753973},{"NoteNumber":64,"Velocity":56,"Duration":80623,"SoundDuration":80623,"Delta":284753973},{"NoteNumber":84,"Velocity":63,"Duration":82978,"SoundDuration":82978,"Delta":284915220},{"NoteNumber":72,"Velocity":53,"Duration":82978,"SoundDuration":82978,"Delta":284915220},{"NoteNumber":81,"Velocity":53,"Duration":82978,"SoundDuration":82978,"Delta":284915220},{"NoteNumber":57,"Velocity":42,"Duration":82978,"SoundDuration":82978,"Delta":284915220},{"NoteNumber":60,"Velocity":50,"Duration":82978,"SoundDuration":82978,"Delta":284915220},{"NoteNumber":83,"Velocity":59,"Duration":81133,"SoundDuration":81133,"Delta":285081176},{"NoteNumber":86,"Velocity":70,"Duration":81133,"SoundDuration":81133,"Delta":285081176},{"NoteNumber":74,"Velocity":59,"Duration":81133,"SoundDuration":81133,"Delta":285081176},{"NoteNumber":59,"Velocity":47,"Duration":81133,"SoundDuration":81133,"Delta":285081176},{"NoteNumber":62,"Velocity":56,"Duration":81133,"SoundDuration":81133,"Delta":285081176},{"NoteNumber":83,"Velocity":64,"Duration":84350,"SoundDuration":84350,"Delta":285243444},{"NoteNumber":71,"Velocity":54,"Duration":84350,"SoundDuration":84350,"Delta":285243444},{"NoteNumber":79,"Velocity":54,"Duration":84350,"SoundDuration":84350,"Delta":285243444},{"NoteNumber":59,"Velocity":52,"Duration":84350,"SoundDuration":84350,"Delta":285243444},{"NoteNumber":55,"Velocity":44,"Duration":84350,"SoundDuration":84350,"Delta":285243444},{"NoteNumber":81,"Velocity":59,"Duration":100240,"SoundDuration":100240,"Delta":285412144},{"NoteNumber":72,"Velocity":59,"Duration":100240,"SoundDuration":100240,"Delta":285412144},{"NoteNumber":84,"Velocity":70,"Duration":100240,"SoundDuration":100240,"Delta":285412144},{"NoteNumber":57,"Velocity":47,"Duration":100240,"SoundDuration":100240,"Delta":285412144},{"NoteNumber":60,"Velocity":56,"Duration":100240,"SoundDuration":100240,"Delta":285412144},{"NoteNumber":84,"Velocity":69,"Duration":92273,"SoundDuration":92273,"Delta":285813106},{"NoteNumber":72,"Velocity":58,"Duration":92273,"SoundDuration":92273,"Delta":285813106},{"NoteNumber":81,"Velocity":58,"Duration":92273,"SoundDuration":92273,"Delta":285813106},{"NoteNumber":57,"Velocity":44,"Duration":92273,"SoundDuration":92273,"Delta":285813106},{"NoteNumber":60,"Velocity":53,"Duration":92273,"SoundDuration":92273,"Delta":285813106},{"NoteNumber":77,"Velocity":59,"Duration":553640,"SoundDuration":553640,"Delta":285997653},{"NoteNumber":69,"Velocity":59,"Duration":553640,"SoundDuration":553640,"Delta":285997653},{"NoteNumber":81,"Velocity":70,"Duration":553640,"SoundDuration":553640,"Delta":285997653},{"NoteNumber":53,"Velocity":55,"Duration":553640,"SoundDuration":553640,"Delta":285997653},{"NoteNumber":57,"Velocity":68,"Duration":553640,"SoundDuration":553640,"Delta":285997653},{"NoteNumber":40,"Velocity":40,"Duration":332487,"SoundDuration":332487,"Delta":286551294},{"NoteNumber":52,"Velocity":46,"Duration":332487,"SoundDuration":332487,"Delta":286551294},{"NoteNumber":67,"Velocity":47,"Duration":82444,"SoundDuration":82444,"Delta":286718892},{"NoteNumber":79,"Velocity":56,"Duration":82444,"SoundDuration":82444,"Delta":286718892},{"NoteNumber":71,"Velocity":49,"Duration":81917,"SoundDuration":81917,"Delta":286883782},{"NoteNumber":83,"Velocity":58,"Duration":81917,"SoundDuration":81917,"Delta":286883782},{"NoteNumber":84,"Velocity":60,"Duration":81917,"SoundDuration":81917,"Delta":287047618},{"NoteNumber":72,"Velocity":51,"Duration":81917,"SoundDuration":81917,"Delta":287047618},{"NoteNumber":55,"Velocity":34,"Duration":323469,"SoundDuration":323469,"Delta":287047618},{"NoteNumber":60,"Velocity":39,"Duration":323469,"SoundDuration":323469,"Delta":287047618},{"NoteNumber":52,"Velocity":34,"Duration":323469,"SoundDuration":323469,"Delta":287047618},{"NoteNumber":86,"Velocity":62,"Duration":79816,"SoundDuration":79816,"Delta":287211454},{"NoteNumber":74,"Velocity":52,"Duration":79816,"SoundDuration":79816,"Delta":287211454},{"NoteNumber":76,"Velocity":54,"Duration":79816,"SoundDuration":79816,"Delta":287371088},{"NoteNumber":88,"Velocity":64,"Duration":79816,"SoundDuration":79816,"Delta":287371088},{"NoteNumber":79,"Velocity":60,"Duration":133128,"SoundDuration":133128,"Delta":287490813},{"NoteNumber":84,"Velocity":60,"Duration":113174,"SoundDuration":113174,"Delta":287510768},{"NoteNumber":91,"Velocity":70,"Duration":93219,"SoundDuration":93219,"Delta":287530722},{"NoteNumber":50,"Velocity":46,"Duration":372879,"SoundDuration":372879,"Delta":287530722},{"NoteNumber":38,"Velocity":40,"Duration":372879,"SoundDuration":372879,"Delta":287530722},{"NoteNumber":89,"Velocity":58,"Duration":88074,"SoundDuration":88074,"Delta":287903601},{"NoteNumber":77,"Velocity":49,"Duration":88074,"SoundDuration":88074,"Delta":287903601},{"NoteNumber":84,"Velocity":57,"Duration":528448,"SoundDuration":528448,"Delta":288079750},{"NoteNumber":72,"Velocity":48,"Duration":528448,"SoundDuration":528448,"Delta":288079750},{"NoteNumber":53,"Velocity":34,"Duration":352299,"SoundDuration":352299,"Delta":288079750},{"NoteNumber":57,"Velocity":34,"Duration":352299,"SoundDuration":352299,"Delta":288079750},{"NoteNumber":50,"Velocity":34,"Duration":352299,"SoundDuration":352299,"Delta":288079750},{"NoteNumber":60,"Velocity":39,"Duration":352299,"SoundDuration":352299,"Delta":288079750},{"NoteNumber":36,"Velocity":40,"Duration":332487,"SoundDuration":332487,"Delta":288608199},{"NoteNumber":48,"Velocity":46,"Duration":332487,"SoundDuration":332487,"Delta":288608199},{"NoteNumber":69,"Velocity":48,"Duration":82444,"SoundDuration":82444,"Delta":288775797},{"NoteNumber":81,"Velocity":58,"Duration":82444,"SoundDuration":82444,"Delta":288775797},{"NoteNumber":83,"Velocity":63,"Duration":81917,"SoundDuration":81917,"Delta":288940686},{"NoteNumber":71,"Velocity":53,"Duration":81917,"SoundDuration":81917,"Delta":288940686},{"NoteNumber":72,"Velocity":57,"Duration":81917,"SoundDuration":81917,"Delta":289104522},{"NoteNumber":84,"Velocity":67,"Duration":81917,"SoundDuration":81917,"Delta":289104522},{"NoteNumber":57,"Velocity":38,"Duration":323469,"SoundDuration":323469,"Delta":289104522},{"NoteNumber":52,"Velocity":38,"Duration":323469,"SoundDuration":323469,"Delta":289104522},{"NoteNumber":48,"Velocity":38,"Duration":323469,"SoundDuration":323469,"Delta":289104522},{"NoteNumber":60,"Velocity":44,"Duration":323469,"SoundDuration":323469,"Delta":289104522},{"NoteNumber":86,"Velocity":73,"Duration":79816,"SoundDuration":79816,"Delta":289268358},{"NoteNumber":74,"Velocity":61,"Duration":79816,"SoundDuration":79816,"Delta":289268358},{"NoteNumber":88,"Velocity":78,"Duration":79816,"SoundDuration":79816,"Delta":289427992},{"NoteNumber":76,"Velocity":65,"Duration":79816,"SoundDuration":79816,"Delta":289427992},{"NoteNumber":79,"Velocity":75,"Duration":132787,"SoundDuration":132787,"Delta":289547718},{"NoteNumber":87,"Velocity":75,"Duration":112833,"SoundDuration":112833,"Delta":289567672},{"NoteNumber":91,"Velocity":87,"Duration":92879,"SoundDuration":92879,"Delta":289587626},{"NoteNumber":47,"Velocity":57,"Duration":371516,"SoundDuration":371516,"Delta":289587626},{"NoteNumber":35,"Velocity":50,"Duration":371516,"SoundDuration":371516,"Delta":289587626},{"NoteNumber":90,"Velocity":69,"Duration":86286,"SoundDuration":86286,"Delta":289959143},{"NoteNumber":78,"Velocity":58,"Duration":86286,"SoundDuration":86286,"Delta":289959143},{"NoteNumber":69,"Velocity":56,"Duration":517717,"SoundDuration":517717,"Delta":290131716},{"NoteNumber":81,"Velocity":67,"Duration":517717,"SoundDuration":517717,"Delta":290131716},{"NoteNumber":54,"Velocity":40,"Duration":345145,"SoundDuration":345145,"Delta":290131716},{"NoteNumber":63,"Velocity":46,"Duration":345145,"SoundDuration":345145,"Delta":290131716},{"NoteNumber":59,"Velocity":40,"Duration":345145,"SoundDuration":345145,"Delta":290131716},{"NoteNumber":48,"Velocity":76,"Duration":206142,"SoundDuration":206142,"Delta":290649433},{"NoteNumber":24,"Velocity":51,"Duration":206142,"SoundDuration":206142,"Delta":290649433},{"NoteNumber":36,"Velocity":61,"Duration":206142,"SoundDuration":206142,"Delta":290649433},{"NoteNumber":67,"Velocity":59,"Duration":576553,"SoundDuration":576553,"Delta":291267862},{"NoteNumber":70,"Velocity":71,"Duration":576553,"SoundDuration":576553,"Delta":291267862},{"NoteNumber":58,"Velocity":59,"Duration":576553,"SoundDuration":576553,"Delta":291267862},{"NoteNumber":36,"Velocity":44,"Duration":1537476,"SoundDuration":1537476,"Delta":291267862},{"NoteNumber":46,"Velocity":53,"Duration":576553,"SoundDuration":576553,"Delta":291267862},{"NoteNumber":43,"Velocity":44,"Duration":576553,"SoundDuration":576553,"Delta":291267862},{"NoteNumber":57,"Velocity":58,"Duration":576553,"SoundDuration":576553,"Delta":291844416},{"NoteNumber":69,"Velocity":69,"Duration":576553,"SoundDuration":576553,"Delta":291844416},{"NoteNumber":65,"Velocity":69,"Duration":576553,"SoundDuration":576553,"Delta":291844416},{"NoteNumber":45,"Velocity":53,"Duration":576553,"SoundDuration":576553,"Delta":291844416},{"NoteNumber":41,"Velocity":44,"Duration":576553,"SoundDuration":576553,"Delta":291844416},{"NoteNumber":62,"Velocity":59,"Duration":576553,"SoundDuration":576553,"Delta":292420969},{"NoteNumber":65,"Velocity":71,"Duration":576553,"SoundDuration":576553,"Delta":292420969},{"NoteNumber":53,"Velocity":59,"Duration":576553,"SoundDuration":576553,"Delta":292420969},{"NoteNumber":41,"Velocity":53,"Duration":576553,"SoundDuration":576553,"Delta":292420969},{"NoteNumber":38,"Velocity":44,"Duration":576553,"SoundDuration":576553,"Delta":292420969},{"NoteNumber":55,"Velocity":56,"Duration":80623,"SoundDuration":80623,"Delta":292997523},{"NoteNumber":67,"Velocity":66,"Duration":80623,"SoundDuration":80623,"Delta":292997523},{"NoteNumber":64,"Velocity":56,"Duration":80623,"SoundDuration":80623,"Delta":292997523},{"NoteNumber":40,"Velocity":44,"Duration":80623,"SoundDuration":80623,"Delta":292997523},{"NoteNumber":43,"Velocity":53,"Duration":80623,"SoundDuration":80623,"Delta":292997523},{"NoteNumber":64,"Velocity":58,"Duration":83798,"SoundDuration":83798,"Delta":293158770},{"NoteNumber":52,"Velocity":49,"Duration":83798,"SoundDuration":83798,"Delta":293158770},{"NoteNumber":37,"Velocity":49,"Duration":83798,"SoundDuration":83798,"Delta":293158770},{"NoteNumber":65,"Velocity":66,"Duration":80623,"SoundDuration":80623,"Delta":293326368},{"NoteNumber":53,"Velocity":52,"Duration":80623,"SoundDuration":80623,"Delta":293326368},{"NoteNumber":38,"Velocity":53,"Duration":80623,"SoundDuration":80623,"Delta":293326368},{"NoteNumber":62,"Velocity":59,"Duration":82978,"SoundDuration":82978,"Delta":293487615},{"NoteNumber":50,"Velocity":50,"Duration":82978,"SoundDuration":82978,"Delta":293487615},{"NoteNumber":35,"Velocity":47,"Duration":82978,"SoundDuration":82978,"Delta":293487615},{"NoteNumber":64,"Velocity":66,"Duration":81133,"SoundDuration":81133,"Delta":293653571},{"NoteNumber":52,"Velocity":56,"Duration":81133,"SoundDuration":81133,"Delta":293653571},{"NoteNumber":37,"Velocity":53,"Duration":81133,"SoundDuration":81133,"Delta":293653571},{"NoteNumber":61,"Velocity":60,"Duration":84350,"SoundDuration":84350,"Delta":293815839},{"NoteNumber":49,"Velocity":51,"Duration":84350,"SoundDuration":84350,"Delta":293815839},{"NoteNumber":33,"Velocity":49,"Duration":84350,"SoundDuration":84350,"Delta":293815839},{"NoteNumber":62,"Velocity":66,"Duration":100240,"SoundDuration":100240,"Delta":293984539},{"NoteNumber":50,"Velocity":56,"Duration":100240,"SoundDuration":100240,"Delta":293984539},{"NoteNumber":38,"Velocity":53,"Duration":100240,"SoundDuration":100240,"Delta":293984539},{"NoteNumber":50,"Velocity":55,"Duration":92273,"SoundDuration":92273,"Delta":294385501},{"NoteNumber":62,"Velocity":65,"Duration":92273,"SoundDuration":92273,"Delta":294385501},{"NoteNumber":38,"Velocity":64,"Duration":553640,"SoundDuration":553640,"Delta":294570048},{"NoteNumber":26,"Velocity":52,"Duration":553640,"SoundDuration":553640,"Delta":294570048},{"NoteNumber":51,"Velocity":76,"Duration":206142,"SoundDuration":206142,"Delta":295123689},{"NoteNumber":39,"Velocity":61,"Duration":206142,"SoundDuration":206142,"Delta":295123689},{"NoteNumber":27,"Velocity":51,"Duration":206142,"SoundDuration":206142,"Delta":295123689},{"NoteNumber":73,"Velocity":71,"Duration":576553,"SoundDuration":576553,"Delta":295742118},{"NoteNumber":70,"Velocity":59,"Duration":576553,"SoundDuration":576553,"Delta":295742118},{"NoteNumber":61,"Velocity":59,"Duration":576553,"SoundDuration":576553,"Delta":295742118},{"NoteNumber":46,"Velocity":44,"Duration":576553,"SoundDuration":576553,"Delta":295742118},{"NoteNumber":39,"Velocity":44,"Duration":1537476,"SoundDuration":1537476,"Delta":295742118},{"NoteNumber":49,"Velocity":53,"Duration":576553,"SoundDuration":576553,"Delta":295742118},{"NoteNumber":72,"Velocity":69,"Duration":576553,"SoundDuration":576553,"Delta":296318672},{"NoteNumber":68,"Velocity":69,"Duration":576553,"SoundDuration":576553,"Delta":296318672},{"NoteNumber":60,"Velocity":58,"Duration":576553,"SoundDuration":576553,"Delta":296318672},{"NoteNumber":48,"Velocity":53,"Duration":576553,"SoundDuration":576553,"Delta":296318672},{"NoteNumber":44,"Velocity":44,"Duration":576553,"SoundDuration":576553,"Delta":296318672},{"NoteNumber":68,"Velocity":71,"Duration":576553,"SoundDuration":576553,"Delta":296895225},{"NoteNumber":65,"Velocity":59,"Duration":576553,"SoundDuration":576553,"Delta":296895225},{"NoteNumber":56,"Velocity":59,"Duration":576553,"SoundDuration":576553,"Delta":296895225},{"NoteNumber":44,"Velocity":53,"Duration":576553,"SoundDuration":576553,"Delta":296895225},{"NoteNumber":41,"Velocity":44,"Duration":576553,"SoundDuration":576553,"Delta":296895225},{"NoteNumber":58,"Velocity":56,"Duration":80623,"SoundDuration":80623,"Delta":297471779},{"NoteNumber":67,"Velocity":56,"Duration":80623,"SoundDuration":80623,"Delta":297471779},{"NoteNumber":70,"Velocity":66,"Duration":80623,"SoundDuration":80623,"Delta":297471779},{"NoteNumber":46,"Velocity":53,"Duration":80623,"SoundDuration":80623,"Delta":297471779},{"NoteNumber":43,"Velocity":44,"Duration":80623,"SoundDuration":80623,"Delta":297471779},{"NoteNumber":67,"Velocity":58,"Duration":83798,"SoundDuration":83798,"Delta":297633026},{"NoteNumber":55,"Velocity":49,"Duration":83798,"SoundDuration":83798,"Delta":297633026},{"NoteNumber":40,"Velocity":49,"Duration":83798,"SoundDuration":83798,"Delta":297633026},{"NoteNumber":68,"Velocity":66,"Duration":80623,"SoundDuration":80623,"Delta":297800624},{"NoteNumber":56,"Velocity":52,"Duration":80623,"SoundDuration":80623,"Delta":297800624},{"NoteNumber":41,"Velocity":53,"Duration":80623,"SoundDuration":80623,"Delta":297800624},{"NoteNumber":65,"Velocity":59,"Duration":82978,"SoundDuration":82978,"Delta":297961871},{"NoteNumber":53,"Velocity":50,"Duration":82978,"SoundDuration":82978,"Delta":297961871},{"NoteNumber":38,"Velocity":47,"Duration":82978,"SoundDuration":82978,"Delta":297961871},{"NoteNumber":67,"Velocity":66,"Duration":81133,"SoundDuration":81133,"Delta":298127827},{"NoteNumber":55,"Velocity":56,"Duration":81133,"SoundDuration":81133,"Delta":298127827},{"NoteNumber":40,"Velocity":53,"Duration":81133,"SoundDuration":81133,"Delta":298127827},{"NoteNumber":64,"Velocity":60,"Duration":84350,"SoundDuration":84350,"Delta":298290095},{"NoteNumber":52,"Velocity":51,"Duration":84350,"SoundDuration":84350,"Delta":298290095},{"NoteNumber":36,"Velocity":49,"Duration":84350,"SoundDuration":84350,"Delta":298290095},{"NoteNumber":53,"Velocity":56,"Duration":100240,"SoundDuration":100240,"Delta":298458795},{"NoteNumber":65,"Velocity":66,"Duration":100240,"SoundDuration":100240,"Delta":298458795},{"NoteNumber":41,"Velocity":53,"Duration":100240,"SoundDuration":100240,"Delta":298458795},{"NoteNumber":53,"Velocity":55,"Duration":92273,"SoundDuration":92273,"Delta":298859757},{"NoteNumber":65,"Velocity":65,"Duration":92273,"SoundDuration":92273,"Delta":298859757},{"NoteNumber":41,"Velocity":64,"Duration":553640,"SoundDuration":553640,"Delta":299044304},{"NoteNumber":29,"Velocity":52,"Duration":553640,"SoundDuration":553640,"Delta":299044304},{"NoteNumber":54,"Velocity":76,"Duration":206142,"SoundDuration":206142,"Delta":299597945},{"NoteNumber":42,"Velocity":61,"Duration":206142,"SoundDuration":206142,"Delta":299597945},{"NoteNumber":30,"Velocity":51,"Duration":206142,"SoundDuration":206142,"Delta":299597945},{"NoteNumber":76,"Velocity":67,"Duration":576553,"SoundDuration":576553,"Delta":300216374},{"NoteNumber":88,"Velocity":81,"Duration":576553,"SoundDuration":576553,"Delta":300216374},{"NoteNumber":85,"Velocity":67,"Duration":576553,"SoundDuration":576553,"Delta":300216374},{"NoteNumber":54,"Velocity":50,"Duration":1537476,"SoundDuration":1537476,"Delta":300216374},{"NoteNumber":61,"Velocity":50,"Duration":576553,"SoundDuration":576553,"Delta":300216374},{"NoteNumber":64,"Velocity":60,"Duration":576553,"SoundDuration":576553,"Delta":300216374},{"NoteNumber":83,"Velocity":79,"Duration":576553,"SoundDuration":576553,"Delta":300792928},{"NoteNumber":87,"Velocity":79,"Duration":576553,"SoundDuration":576553,"Delta":300792928},{"NoteNumber":75,"Velocity":66,"Duration":576553,"SoundDuration":576553,"Delta":300792928},{"NoteNumber":63,"Velocity":60,"Duration":576553,"SoundDuration":576553,"Delta":300792928},{"NoteNumber":59,"Velocity":50,"Duration":576553,"SoundDuration":576553,"Delta":300792928},{"NoteNumber":71,"Velocity":67,"Duration":576553,"SoundDuration":576553,"Delta":301369481},{"NoteNumber":83,"Velocity":81,"Duration":576553,"SoundDuration":576553,"Delta":301369481},{"NoteNumber":80,"Velocity":67,"Duration":576553,"SoundDuration":576553,"Delta":301369481},{"NoteNumber":59,"Velocity":60,"Duration":576553,"SoundDuration":576553,"Delta":301369481},{"NoteNumber":56,"Velocity":50,"Duration":576553,"SoundDuration":576553,"Delta":301369481},{"NoteNumber":42,"Velocity":36,"Duration":2348089,"SoundDuration":2348089,"Delta":301946035},{"NoteNumber":64,"Velocity":42,"Duration":576553,"SoundDuration":576553,"Delta":302564464},{"NoteNumber":55,"Velocity":31,"Duration":576553,"SoundDuration":576553,"Delta":302564464},{"NoteNumber":62,"Velocity":41,"Duration":576553,"SoundDuration":576553,"Delta":303141017},{"NoteNumber":54,"Velocity":31,"Duration":576553,"SoundDuration":576553,"Delta":303141017},{"NoteNumber":59,"Velocity":42,"Duration":576553,"SoundDuration":576553,"Delta":303717571},{"NoteNumber":50,"Velocity":31,"Duration":576553,"SoundDuration":576553,"Delta":303717571},{"NoteNumber":54,"Velocity":91,"Duration":202020,"SoundDuration":202020,"Delta":304294124},{"NoteNumber":30,"Velocity":61,"Duration":202020,"SoundDuration":202020,"Delta":304294124},{"NoteNumber":42,"Velocity":73,"Duration":202019,"SoundDuration":202019,"Delta":304305067},{"NoteNumber":88,"Velocity":78,"Duration":192307,"SoundDuration":192307,"Delta":304698164},{"NoteNumber":85,"Velocity":64,"Duration":192307,"SoundDuration":192307,"Delta":304698164},{"NoteNumber":76,"Velocity":64,"Duration":192307,"SoundDuration":192307,"Delta":304698164},{"NoteNumber":54,"Velocity":39,"Duration":761217,"SoundDuration":761217,"Delta":304698164},{"NoteNumber":61,"Velocity":48,"Duration":192307,"SoundDuration":192307,"Delta":304698164},{"NoteNumber":64,"Velocity":58,"Duration":192307,"SoundDuration":192307,"Delta":304698164},{"NoteNumber":83,"Velocity":75,"Duration":384614,"SoundDuration":384614,"Delta":304890472},{"NoteNumber":75,"Velocity":75,"Duration":384614,"SoundDuration":384614,"Delta":304890472},{"NoteNumber":87,"Velocity":75,"Duration":384614,"SoundDuration":384614,"Delta":304890472},{"NoteNumber":63,"Velocity":58,"Duration":384614,"SoundDuration":384614,"Delta":304890472},{"NoteNumber":59,"Velocity":48,"Duration":384614,"SoundDuration":384614,"Delta":304890472},{"NoteNumber":71,"Velocity":64,"Duration":192307,"SoundDuration":192307,"Delta":305275087},{"NoteNumber":83,"Velocity":78,"Duration":192307,"SoundDuration":192307,"Delta":305275087},{"NoteNumber":80,"Velocity":64,"Duration":192307,"SoundDuration":192307,"Delta":305275087},{"NoteNumber":59,"Velocity":58,"Duration":192307,"SoundDuration":192307,"Delta":305275087},{"NoteNumber":56,"Velocity":48,"Duration":192307,"SoundDuration":192307,"Delta":305275087},{"NoteNumber":54,"Velocity":73,"Duration":1173270,"SoundDuration":1173270,"Delta":305467394},{"NoteNumber":92,"Velocity":78,"Duration":192307,"SoundDuration":192307,"Delta":305871434},{"NoteNumber":80,"Velocity":64,"Duration":192307,"SoundDuration":192307,"Delta":305871434},{"NoteNumber":88,"Velocity":64,"Duration":192307,"SoundDuration":192307,"Delta":305871434},{"NoteNumber":64,"Velocity":48,"Duration":192307,"SoundDuration":192307,"Delta":305871434},{"NoteNumber":68,"Velocity":58,"Duration":192307,"SoundDuration":192307,"Delta":305871434},{"NoteNumber":90,"Velocity":75,"Duration":384614,"SoundDuration":384614,"Delta":306063742},{"NoteNumber":87,"Velocity":75,"Duration":384614,"SoundDuration":384614,"Delta":306063742},{"NoteNumber":78,"Velocity":75,"Duration":384614,"SoundDuration":384614,"Delta":306063742},{"NoteNumber":66,"Velocity":58,"Duration":384614,"SoundDuration":384614,"Delta":306063742},{"NoteNumber":63,"Velocity":48,"Duration":384614,"SoundDuration":384614,"Delta":306063742},{"NoteNumber":75,"Velocity":64,"Duration":192307,"SoundDuration":192307,"Delta":306448357},{"NoteNumber":87,"Velocity":78,"Duration":192307,"SoundDuration":192307,"Delta":306448357},{"NoteNumber":83,"Velocity":64,"Duration":192307,"SoundDuration":192307,"Delta":306448357},{"NoteNumber":63,"Velocity":58,"Duration":192307,"SoundDuration":192307,"Delta":306448357},{"NoteNumber":59,"Velocity":48,"Duration":192307,"SoundDuration":192307,"Delta":306448357},{"NoteNumber":42,"Velocity":36,"Duration":1166773,"SoundDuration":1166773,"Delta":306640664},{"NoteNumber":64,"Velocity":42,"Duration":191693,"SoundDuration":191693,"Delta":307040664},{"NoteNumber":55,"Velocity":31,"Duration":191693,"SoundDuration":191693,"Delta":307040664},{"NoteNumber":62,"Velocity":41,"Duration":383387,"SoundDuration":383387,"Delta":307232358},{"NoteNumber":54,"Velocity":31,"Duration":383387,"SoundDuration":383387,"Delta":307232358},{"NoteNumber":59,"Velocity":42,"Duration":191693,"SoundDuration":191693,"Delta":307615745},{"NoteNumber":50,"Velocity":31,"Duration":191693,"SoundDuration":191693,"Delta":307615745},{"NoteNumber":42,"Velocity":36,"Duration":1166773,"SoundDuration":1166773,"Delta":307807438},{"NoteNumber":61,"Velocity":42,"Duration":191693,"SoundDuration":191693,"Delta":308207438},{"NoteNumber":52,"Velocity":31,"Duration":191693,"SoundDuration":191693,"Delta":308207438},{"NoteNumber":59,"Velocity":41,"Duration":383387,"SoundDuration":383387,"Delta":308399132},{"NoteNumber":50,"Velocity":27,"Duration":383387,"SoundDuration":383387,"Delta":308399132},{"NoteNumber":55,"Velocity":42,"Duration":191693,"SoundDuration":191693,"Delta":308782519},{"NoteNumber":47,"Velocity":29,"Duration":191693,"SoundDuration":191693,"Delta":308782519},{"NoteNumber":54,"Velocity":41,"Duration":344828,"SoundDuration":344828,"Delta":308974212},{"NoteNumber":42,"Velocity":33,"Duration":86207,"SoundDuration":86207,"Delta":308974212},{"NoteNumber":35,"Velocity":27,"Duration":86207,"SoundDuration":86207,"Delta":309146626},{"NoteNumber":42,"Velocity":32,"Duration":86207,"SoundDuration":86207,"Delta":309319040},{"NoteNumber":35,"Velocity":26,"Duration":86207,"SoundDuration":86207,"Delta":309491454},{"NoteNumber":42,"Velocity":31,"Duration":86207,"SoundDuration":86207,"Delta":309663868},{"NoteNumber":35,"Velocity":27,"Duration":88495,"SoundDuration":88495,"Delta":309836282},{"NoteNumber":42,"Velocity":29,"Duration":86207,"SoundDuration":86207,"Delta":310013273},{"NoteNumber":35,"Velocity":26,"Duration":86207,"SoundDuration":86207,"Delta":310185687},{"NoteNumber":42,"Velocity":31,"Duration":86207,"SoundDuration":86207,"Delta":310358101},{"NoteNumber":66,"Velocity":26,"Duration":86207,"SoundDuration":86207,"Delta":310530515},{"NoteNumber":64,"Velocity":22,"Duration":86207,"SoundDuration":86207,"Delta":310530515},{"NoteNumber":58,"Velocity":22,"Duration":86207,"SoundDuration":86207,"Delta":310530515},{"NoteNumber":61,"Velocity":22,"Duration":86207,"SoundDuration":86207,"Delta":310530515},{"NoteNumber":61,"Velocity":25,"Duration":86207,"SoundDuration":86207,"Delta":310702929},{"NoteNumber":58,"Velocity":25,"Duration":86207,"SoundDuration":86207,"Delta":310702929},{"NoteNumber":64,"Velocity":25,"Duration":86207,"SoundDuration":86207,"Delta":310702929},{"NoteNumber":66,"Velocity":30,"Duration":86207,"SoundDuration":86207,"Delta":310702929},{"NoteNumber":58,"Velocity":22,"Duration":89285,"SoundDuration":89285,"Delta":310875343},{"NoteNumber":66,"Velocity":26,"Duration":89285,"SoundDuration":89285,"Delta":310875343},{"NoteNumber":61,"Velocity":22,"Duration":89285,"SoundDuration":89285,"Delta":310875343},{"NoteNumber":64,"Velocity":22,"Duration":89285,"SoundDuration":89285,"Delta":310875343},{"NoteNumber":66,"Velocity":33,"Duration":86207,"SoundDuration":86207,"Delta":311053915},{"NoteNumber":59,"Velocity":28,"Duration":86207,"SoundDuration":86207,"Delta":311053915},{"NoteNumber":63,"Velocity":28,"Duration":86207,"SoundDuration":86207,"Delta":311053915},{"NoteNumber":42,"Velocity":32,"Duration":86207,"SoundDuration":86207,"Delta":311053915},{"NoteNumber":35,"Velocity":25,"Duration":86207,"SoundDuration":86207,"Delta":311226329},{"NoteNumber":42,"Velocity":29,"Duration":86207,"SoundDuration":86207,"Delta":311398743},{"NoteNumber":61,"Velocity":26,"Duration":86207,"SoundDuration":86207,"Delta":311571157},{"NoteNumber":52,"Velocity":22,"Duration":86207,"SoundDuration":86207,"Delta":311571157},{"NoteNumber":54,"Velocity":22,"Duration":86207,"SoundDuration":86207,"Delta":311571157},{"NoteNumber":58,"Velocity":22,"Duration":86207,"SoundDuration":86207,"Delta":311571157},{"NoteNumber":52,"Velocity":25,"Duration":86207,"SoundDuration":86207,"Delta":311743571},{"NoteNumber":54,"Velocity":25,"Duration":86207,"SoundDuration":86207,"Delta":311743571},{"NoteNumber":58,"Velocity":25,"Duration":86207,"SoundDuration":86207,"Delta":311743571},{"NoteNumber":63,"Velocity":30,"Duration":86207,"SoundDuration":86207,"Delta":311743571},{"NoteNumber":52,"Velocity":22,"Duration":89285,"SoundDuration":89285,"Delta":311915985},{"NoteNumber":54,"Velocity":22,"Duration":89285,"SoundDuration":89285,"Delta":311915985},{"NoteNumber":58,"Velocity":22,"Duration":89285,"SoundDuration":89285,"Delta":311915985},{"NoteNumber":61,"Velocity":26,"Duration":89285,"SoundDuration":89285,"Delta":311915985},{"NoteNumber":51,"Velocity":28,"Duration":86956,"SoundDuration":86956,"Delta":312094556},{"NoteNumber":54,"Velocity":28,"Duration":86956,"SoundDuration":86956,"Delta":312094556},{"NoteNumber":59,"Velocity":33,"Duration":86956,"SoundDuration":86956,"Delta":312094556},{"NoteNumber":42,"Velocity":32,"Duration":86956,"SoundDuration":86956,"Delta":312094556},{"NoteNumber":35,"Velocity":24,"Duration":86956,"SoundDuration":86956,"Delta":312268469},{"NoteNumber":42,"Velocity":30,"Duration":86956,"SoundDuration":86956,"Delta":312442382},{"NoteNumber":58,"Velocity":22,"Duration":86956,"SoundDuration":86956,"Delta":312616295},{"NoteNumber":66,"Velocity":26,"Duration":86956,"SoundDuration":86956,"Delta":312616295},{"NoteNumber":61,"Velocity":22,"Duration":86956,"SoundDuration":86956,"Delta":312616295},{"NoteNumber":64,"Velocity":22,"Duration":86956,"SoundDuration":86956,"Delta":312616295},{"NoteNumber":58,"Velocity":25,"Duration":86956,"SoundDuration":86956,"Delta":312790208},{"NoteNumber":61,"Velocity":25,"Duration":86956,"SoundDuration":86956,"Delta":312790208},{"NoteNumber":64,"Velocity":25,"Duration":86956,"SoundDuration":86956,"Delta":312790208},{"NoteNumber":66,"Velocity":30,"Duration":86956,"SoundDuration":86956,"Delta":312790208},{"NoteNumber":61,"Velocity":22,"Duration":89285,"SoundDuration":89285,"Delta":312964121},{"NoteNumber":66,"Velocity":26,"Duration":89285,"SoundDuration":89285,"Delta":312964121},{"NoteNumber":64,"Velocity":22,"Duration":89285,"SoundDuration":89285,"Delta":312964121},{"NoteNumber":58,"Velocity":22,"Duration":89285,"SoundDuration":89285,"Delta":312964121},{"NoteNumber":66,"Velocity":33,"Duration":86956,"SoundDuration":86956,"Delta":313142693},{"NoteNumber":63,"Velocity":28,"Duration":86956,"SoundDuration":86956,"Delta":313142693},{"NoteNumber":59,"Velocity":28,"Duration":86956,"SoundDuration":86956,"Delta":313142693},{"NoteNumber":42,"Velocity":33,"Duration":86956,"SoundDuration":86956,"Delta":313142693},{"NoteNumber":35,"Velocity":27,"Duration":86956,"SoundDuration":86956,"Delta":313316606},{"NoteNumber":42,"Velocity":32,"Duration":86956,"SoundDuration":86956,"Delta":313490519},{"NoteNumber":58,"Velocity":22,"Duration":86956,"SoundDuration":86956,"Delta":313664432},{"NoteNumber":61,"Velocity":26,"Duration":86956,"SoundDuration":86956,"Delta":313664432},{"NoteNumber":52,"Velocity":22,"Duration":86956,"SoundDuration":86956,"Delta":313664432},{"NoteNumber":54,"Velocity":22,"Duration":86956,"SoundDuration":86956,"Delta":313664432},{"NoteNumber":58,"Velocity":25,"Duration":86956,"SoundDuration":86956,"Delta":313838345},{"NoteNumber":52,"Velocity":25,"Duration":86956,"SoundDuration":86956,"Delta":313838345},{"NoteNumber":54,"Velocity":25,"Duration":86956,"SoundDuration":86956,"Delta":313838345},{"NoteNumber":63,"Velocity":30,"Duration":86956,"SoundDuration":86956,"Delta":313838345},{"NoteNumber":58,"Velocity":22,"Duration":89285,"SoundDuration":89285,"Delta":314012258},{"NoteNumber":52,"Velocity":22,"Duration":89285,"SoundDuration":89285,"Delta":314012258},{"NoteNumber":61,"Velocity":26,"Duration":89285,"SoundDuration":89285,"Delta":314012258},{"NoteNumber":54,"Velocity":22,"Duration":89285,"SoundDuration":89285,"Delta":314012258},{"NoteNumber":54,"Velocity":28,"Duration":87209,"SoundDuration":87209,"Delta":314190829},{"NoteNumber":59,"Velocity":33,"Duration":87209,"SoundDuration":87209,"Delta":314190829},{"NoteNumber":51,"Velocity":28,"Duration":87209,"SoundDuration":87209,"Delta":314190829},{"NoteNumber":42,"Velocity":32,"Duration":87209,"SoundDuration":87209,"Delta":314190829},{"NoteNumber":35,"Velocity":28,"Duration":87209,"SoundDuration":87209,"Delta":314365248},{"NoteNumber":42,"Velocity":34,"Duration":87209,"SoundDuration":87209,"Delta":314539666},{"NoteNumber":66,"Velocity":23,"Duration":87209,"SoundDuration":87209,"Delta":314714085},{"NoteNumber":60,"Velocity":23,"Duration":87209,"SoundDuration":87209,"Delta":314714085},{"NoteNumber":63,"Velocity":23,"Duration":87209,"SoundDuration":87209,"Delta":314714085},{"NoteNumber":68,"Velocity":28,"Duration":87209,"SoundDuration":87209,"Delta":314714085},{"NoteNumber":66,"Velocity":27,"Duration":87209,"SoundDuration":87209,"Delta":314888503},{"NoteNumber":68,"Velocity":33,"Duration":87209,"SoundDuration":87209,"Delta":314888503},{"NoteNumber":63,"Velocity":27,"Duration":87209,"SoundDuration":87209,"Delta":314888503},{"NoteNumber":60,"Velocity":27,"Duration":87209,"SoundDuration":87209,"Delta":314888503},{"NoteNumber":63,"Velocity":25,"Duration":89285,"SoundDuration":89285,"Delta":315062922},{"NoteNumber":60,"Velocity":25,"Duration":89285,"SoundDuration":89285,"Delta":315062922},{"NoteNumber":66,"Velocity":25,"Duration":89285,"SoundDuration":89285,"Delta":315062922},{"NoteNumber":68,"Velocity":29,"Duration":89285,"SoundDuration":89285,"Delta":315062922},{"NoteNumber":64,"Velocity":32,"Duration":86956,"SoundDuration":86956,"Delta":315241493},{"NoteNumber":61,"Velocity":32,"Duration":86956,"SoundDuration":86956,"Delta":315241493},{"NoteNumber":68,"Velocity":38,"Duration":86956,"SoundDuration":86956,"Delta":315241493},{"NoteNumber":42,"Velocity":37,"Duration":86956,"SoundDuration":86956,"Delta":315241493},{"NoteNumber":35,"Velocity":30,"Duration":86956,"SoundDuration":86956,"Delta":315415406},{"NoteNumber":42,"Velocity":39,"Duration":86956,"SoundDuration":86956,"Delta":315589319},{"NoteNumber":58,"Velocity":27,"Duration":86956,"SoundDuration":86956,"Delta":315763232},{"NoteNumber":61,"Velocity":27,"Duration":86956,"SoundDuration":86956,"Delta":315763232},{"NoteNumber":64,"Velocity":27,"Duration":86956,"SoundDuration":86956,"Delta":315763232},{"NoteNumber":66,"Velocity":32,"Duration":86956,"SoundDuration":86956,"Delta":315763232},{"NoteNumber":58,"Velocity":32,"Duration":86956,"SoundDuration":86956,"Delta":315937145},{"NoteNumber":63,"Velocity":32,"Duration":86956,"SoundDuration":86956,"Delta":315937145},{"NoteNumber":64,"Velocity":32,"Duration":86956,"SoundDuration":86956,"Delta":315937145},{"NoteNumber":66,"Velocity":38,"Duration":86956,"SoundDuration":86956,"Delta":315937145},{"NoteNumber":64,"Velocity":28,"Duration":89285,"SoundDuration":89285,"Delta":316111058},{"NoteNumber":66,"Velocity":34,"Duration":89285,"SoundDuration":89285,"Delta":316111058},{"NoteNumber":58,"Velocity":28,"Duration":89285,"SoundDuration":89285,"Delta":316111058},{"NoteNumber":61,"Velocity":28,"Duration":89285,"SoundDuration":89285,"Delta":316111058},{"NoteNumber":59,"Velocity":37,"Duration":87209,"SoundDuration":87209,"Delta":316289630},{"NoteNumber":63,"Velocity":37,"Duration":87209,"SoundDuration":87209,"Delta":316289630},{"NoteNumber":66,"Velocity":43,"Duration":87209,"SoundDuration":87209,"Delta":316289630},{"NoteNumber":35,"Velocity":45,"Duration":87209,"SoundDuration":87209,"Delta":316289630},{"NoteNumber":42,"Velocity":35,"Duration":87209,"SoundDuration":87209,"Delta":316464048},{"NoteNumber":35,"Velocity":45,"Duration":87209,"SoundDuration":87209,"Delta":316638467},{"NoteNumber":63,"Velocity":31,"Duration":87209,"SoundDuration":87209,"Delta":316812885},{"NoteNumber":69,"Velocity":31,"Duration":87209,"SoundDuration":87209,"Delta":316812885},{"NoteNumber":71,"Velocity":36,"Duration":87209,"SoundDuration":87209,"Delta":316812885},{"NoteNumber":66,"Velocity":31,"Duration":87209,"SoundDuration":87209,"Delta":316812885},{"NoteNumber":42,"Velocity":41,"Duration":87209,"SoundDuration":87209,"Delta":316812885},{"NoteNumber":63,"Velocity":36,"Duration":87209,"SoundDuration":87209,"Delta":316987304},{"NoteNumber":66,"Velocity":36,"Duration":87209,"SoundDuration":87209,"Delta":316987304},{"NoteNumber":69,"Velocity":36,"Duration":87209,"SoundDuration":87209,"Delta":316987304},{"NoteNumber":71,"Velocity":43,"Duration":87209,"SoundDuration":87209,"Delta":316987304},{"NoteNumber":63,"Velocity":32,"Duration":89285,"SoundDuration":89285,"Delta":317161722},{"NoteNumber":66,"Velocity":32,"Duration":89285,"SoundDuration":89285,"Delta":317161722},{"NoteNumber":69,"Velocity":32,"Duration":89285,"SoundDuration":89285,"Delta":317161722},{"NoteNumber":71,"Velocity":38,"Duration":89285,"SoundDuration":89285,"Delta":317161722},{"NoteNumber":64,"Velocity":42,"Duration":87463,"SoundDuration":87463,"Delta":317340294},{"NoteNumber":71,"Velocity":49,"Duration":87463,"SoundDuration":87463,"Delta":317340294},{"NoteNumber":68,"Velocity":42,"Duration":87463,"SoundDuration":87463,"Delta":317340294},{"NoteNumber":35,"Velocity":51,"Duration":87463,"SoundDuration":87463,"Delta":317340294},{"NoteNumber":42,"Velocity":39,"Duration":87463,"SoundDuration":87463,"Delta":317515221},{"NoteNumber":35,"Velocity":51,"Duration":87463,"SoundDuration":87463,"Delta":317690148},{"NoteNumber":73,"Velocity":47,"Duration":87463,"SoundDuration":87463,"Delta":317865075},{"NoteNumber":65,"Velocity":39,"Duration":87463,"SoundDuration":87463,"Delta":317865075},{"NoteNumber":68,"Velocity":39,"Duration":87463,"SoundDuration":87463,"Delta":317865075},{"NoteNumber":71,"Velocity":39,"Duration":87463,"SoundDuration":87463,"Delta":317865075},{"NoteNumber":42,"Velocity":46,"Duration":87463,"SoundDuration":87463,"Delta":317865075},{"NoteNumber":73,"Velocity":55,"Duration":87463,"SoundDuration":87463,"Delta":318040002},{"NoteNumber":71,"Velocity":46,"Duration":87463,"SoundDuration":87463,"Delta":318040002},{"NoteNumber":68,"Velocity":46,"Duration":87463,"SoundDuration":87463,"Delta":318040002},{"NoteNumber":65,"Velocity":46,"Duration":87463,"SoundDuration":87463,"Delta":318040002},{"NoteNumber":68,"Velocity":41,"Duration":89285,"SoundDuration":89285,"Delta":318214929},{"NoteNumber":65,"Velocity":41,"Duration":89285,"SoundDuration":89285,"Delta":318214929},{"NoteNumber":73,"Velocity":48,"Duration":89285,"SoundDuration":89285,"Delta":318214929},{"NoteNumber":71,"Velocity":41,"Duration":89285,"SoundDuration":89285,"Delta":318214929},{"NoteNumber":70,"Velocity":52,"Duration":87463,"SoundDuration":87463,"Delta":318393500},{"NoteNumber":66,"Velocity":52,"Duration":87463,"SoundDuration":87463,"Delta":318393500},{"NoteNumber":73,"Velocity":63,"Duration":87463,"SoundDuration":87463,"Delta":318393500},{"NoteNumber":35,"Velocity":64,"Duration":87463,"SoundDuration":87463,"Delta":318393500},{"NoteNumber":42,"Velocity":53,"Duration":87463,"SoundDuration":87463,"Delta":318568427},{"NoteNumber":35,"Velocity":58,"Duration":91743,"SoundDuration":91743,"Delta":318743354},{"NoteNumber":85,"Velocity":55,"Duration":87209,"SoundDuration":87209,"Delta":318926840},{"NoteNumber":90,"Velocity":65,"Duration":87209,"SoundDuration":87209,"Delta":318926840},{"NoteNumber":82,"Velocity":55,"Duration":87209,"SoundDuration":87209,"Delta":318926840},{"NoteNumber":76,"Velocity":55,"Duration":87209,"SoundDuration":87209,"Delta":318926840},{"NoteNumber":42,"Velocity":53,"Duration":87209,"SoundDuration":87209,"Delta":318926840},{"NoteNumber":76,"Velocity":62,"Duration":87209,"SoundDuration":87209,"Delta":319101259},{"NoteNumber":90,"Velocity":74,"Duration":87209,"SoundDuration":87209,"Delta":319101259},{"NoteNumber":85,"Velocity":62,"Duration":87209,"SoundDuration":87209,"Delta":319101259},{"NoteNumber":82,"Velocity":62,"Duration":87209,"SoundDuration":87209,"Delta":319101259},{"NoteNumber":82,"Velocity":57,"Duration":92592,"SoundDuration":92592,"Delta":319275677},{"NoteNumber":76,"Velocity":57,"Duration":92592,"SoundDuration":92592,"Delta":319275677},{"NoteNumber":90,"Velocity":68,"Duration":92592,"SoundDuration":92592,"Delta":319275677},{"NoteNumber":85,"Velocity":57,"Duration":92592,"SoundDuration":92592,"Delta":319275677},{"NoteNumber":76,"Velocity":55,"Duration":87463,"SoundDuration":87463,"Delta":319460862},{"NoteNumber":85,"Velocity":55,"Duration":87463,"SoundDuration":87463,"Delta":319460862},{"NoteNumber":82,"Velocity":55,"Duration":87463,"SoundDuration":87463,"Delta":319460862},{"NoteNumber":90,"Velocity":65,"Duration":87463,"SoundDuration":87463,"Delta":319460862},{"NoteNumber":35,"Velocity":51,"Duration":87463,"SoundDuration":87463,"Delta":319460862},{"NoteNumber":47,"Velocity":61,"Duration":87463,"SoundDuration":87463,"Delta":319460862},{"NoteNumber":76,"Velocity":62,"Duration":87719,"SoundDuration":87719,"Delta":319636045},{"NoteNumber":85,"Velocity":62,"Duration":87719,"SoundDuration":87719,"Delta":319636045},{"NoteNumber":90,"Velocity":74,"Duration":87719,"SoundDuration":87719,"Delta":319636045},{"NoteNumber":82,"Velocity":62,"Duration":87719,"SoundDuration":87719,"Delta":319636045},{"NoteNumber":54,"Velocity":53,"Duration":87719,"SoundDuration":87719,"Delta":319636045},{"NoteNumber":42,"Velocity":45,"Duration":87719,"SoundDuration":87719,"Delta":319636045},{"NoteNumber":85,"Velocity":57,"Duration":92024,"SoundDuration":92024,"Delta":319811484},{"NoteNumber":82,"Velocity":57,"Duration":92024,"SoundDuration":92024,"Delta":319811484},{"NoteNumber":76,"Velocity":57,"Duration":92024,"SoundDuration":92024,"Delta":319811484},{"NoteNumber":90,"Velocity":68,"Duration":92024,"SoundDuration":92024,"Delta":319811484},{"NoteNumber":47,"Velocity":60,"Duration":92024,"SoundDuration":92024,"Delta":319811484},{"NoteNumber":35,"Velocity":51,"Duration":92024,"SoundDuration":92024,"Delta":319811484},{"NoteNumber":85,"Velocity":55,"Duration":94043,"SoundDuration":94043,"Delta":319995533},{"NoteNumber":76,"Velocity":55,"Duration":94043,"SoundDuration":94043,"Delta":319995533},{"NoteNumber":90,"Velocity":65,"Duration":94043,"SoundDuration":94043,"Delta":319995533},{"NoteNumber":82,"Velocity":55,"Duration":94043,"SoundDuration":94043,"Delta":319995533},{"NoteNumber":54,"Velocity":53,"Duration":94043,"SoundDuration":94043,"Delta":319995533},{"NoteNumber":42,"Velocity":45,"Duration":94043,"SoundDuration":94043,"Delta":319995533},{"NoteNumber":76,"Velocity":62,"Duration":94043,"SoundDuration":94043,"Delta":320183621},{"NoteNumber":82,"Velocity":62,"Duration":94043,"SoundDuration":94043,"Delta":320183621},{"NoteNumber":90,"Velocity":74,"Duration":94043,"SoundDuration":94043,"Delta":320183621},{"NoteNumber":85,"Velocity":62,"Duration":94043,"SoundDuration":94043,"Delta":320183621},{"NoteNumber":35,"Velocity":52,"Duration":94043,"SoundDuration":94043,"Delta":320183621},{"NoteNumber":47,"Velocity":62,"Duration":94043,"SoundDuration":94043,"Delta":320183621},{"NoteNumber":82,"Velocity":57,"Duration":98360,"SoundDuration":98360,"Delta":320371709},{"NoteNumber":90,"Velocity":68,"Duration":98360,"SoundDuration":98360,"Delta":320371709},{"NoteNumber":76,"Velocity":57,"Duration":98360,"SoundDuration":98360,"Delta":320371709},{"NoteNumber":85,"Velocity":57,"Duration":98360,"SoundDuration":98360,"Delta":320371709},{"NoteNumber":42,"Velocity":45,"Duration":98360,"SoundDuration":98360,"Delta":320371709},{"NoteNumber":54,"Velocity":53,"Duration":98360,"SoundDuration":98360,"Delta":320371709},{"NoteNumber":83,"Velocity":67,"Duration":92307,"SoundDuration":92307,"Delta":320568430},{"NoteNumber":75,"Velocity":67,"Duration":92307,"SoundDuration":92307,"Delta":320568430},{"NoteNumber":87,"Velocity":79,"Duration":92307,"SoundDuration":92307,"Delta":320568430},{"NoteNumber":47,"Velocity":62,"Duration":92307,"SoundDuration":92307,"Delta":320568430},{"NoteNumber":35,"Velocity":52,"Duration":92307,"SoundDuration":92307,"Delta":320568430},{"NoteNumber":71,"Velocity":61,"Duration":90909,"SoundDuration":90909,"Delta":320937661},{"NoteNumber":83,"Velocity":72,"Duration":90909,"SoundDuration":90909,"Delta":320937661},{"NoteNumber":59,"Velocity":54,"Duration":90909,"SoundDuration":90909,"Delta":320937661},{"NoteNumber":78,"Velocity":79,"Duration":92879,"SoundDuration":92879,"Delta":321119479},{"NoteNumber":66,"Velocity":67,"Duration":92879,"SoundDuration":92879,"Delta":321119479},{"NoteNumber":54,"Velocity":58,"Duration":92879,"SoundDuration":92879,"Delta":321119479},{"NoteNumber":75,"Velocity":71,"Duration":90634,"SoundDuration":90634,"Delta":321490996},{"NoteNumber":63,"Velocity":60,"Duration":90634,"SoundDuration":90634,"Delta":321490996},{"NoteNumber":51,"Velocity":54,"Duration":90634,"SoundDuration":90634,"Delta":321490996},{"NoteNumber":71,"Velocity":79,"Duration":93167,"SoundDuration":93167,"Delta":321672265},{"NoteNumber":59,"Velocity":60,"Duration":93167,"SoundDuration":93167,"Delta":321672265},{"NoteNumber":47,"Velocity":51,"Duration":93167,"SoundDuration":93167,"Delta":321672265},{"NoteNumber":67,"Velocity":73,"Duration":90909,"SoundDuration":90909,"Delta":322044936},{"NoteNumber":55,"Velocity":54,"Duration":90909,"SoundDuration":90909,"Delta":322044936},{"NoteNumber":43,"Velocity":45,"Duration":90909,"SoundDuration":90909,"Delta":322044936},{"NoteNumber":82,"Velocity":55,"Duration":93167,"SoundDuration":93167,"Delta":322226754},{"NoteNumber":85,"Velocity":55,"Duration":93167,"SoundDuration":93167,"Delta":322226754},{"NoteNumber":76,"Velocity":55,"Duration":93167,"SoundDuration":93167,"Delta":322226754},{"NoteNumber":90,"Velocity":65,"Duration":93167,"SoundDuration":93167,"Delta":322226754},{"NoteNumber":54,"Velocity":53,"Duration":93167,"SoundDuration":93167,"Delta":322226754},{"NoteNumber":42,"Velocity":45,"Duration":93167,"SoundDuration":93167,"Delta":322226754},{"NoteNumber":90,"Velocity":74,"Duration":89820,"SoundDuration":89820,"Delta":322409742},{"NoteNumber":76,"Velocity":62,"Duration":89820,"SoundDuration":89820,"Delta":322409742},{"NoteNumber":82,"Velocity":62,"Duration":89820,"SoundDuration":89820,"Delta":322409742},{"NoteNumber":85,"Velocity":62,"Duration":89820,"SoundDuration":89820,"Delta":322409742},{"NoteNumber":47,"Velocity":62,"Duration":89820,"SoundDuration":89820,"Delta":322409742},{"NoteNumber":35,"Velocity":52,"Duration":89820,"SoundDuration":89820,"Delta":322409742},{"NoteNumber":76,"Velocity":57,"Duration":98360,"SoundDuration":98360,"Delta":322589383},{"NoteNumber":85,"Velocity":57,"Duration":98360,"SoundDuration":98360,"Delta":322589383},{"NoteNumber":82,"Velocity":57,"Duration":98360,"SoundDuration":98360,"Delta":322589383},{"NoteNumber":90,"Velocity":68,"Duration":98360,"SoundDuration":98360,"Delta":322589383},{"NoteNumber":42,"Velocity":45,"Duration":98360,"SoundDuration":98360,"Delta":322589383},{"NoteNumber":54,"Velocity":53,"Duration":98360,"SoundDuration":98360,"Delta":322589383},{"NoteNumber":83,"Velocity":67,"Duration":92307,"SoundDuration":92307,"Delta":322786104},{"NoteNumber":75,"Velocity":67,"Duration":92307,"SoundDuration":92307,"Delta":322786104},{"NoteNumber":87,"Velocity":79,"Duration":92307,"SoundDuration":92307,"Delta":322786104},{"NoteNumber":47,"Velocity":62,"Duration":92307,"SoundDuration":92307,"Delta":322786104},{"NoteNumber":35,"Velocity":52,"Duration":92307,"SoundDuration":92307,"Delta":322786104},{"NoteNumber":71,"Velocity":61,"Duration":90909,"SoundDuration":90909,"Delta":323155335},{"NoteNumber":83,"Velocity":72,"Duration":90909,"SoundDuration":90909,"Delta":323155335},{"NoteNumber":59,"Velocity":54,"Duration":90909,"SoundDuration":90909,"Delta":323155335},{"NoteNumber":66,"Velocity":67,"Duration":92879,"SoundDuration":92879,"Delta":323337153},{"NoteNumber":78,"Velocity":79,"Duration":92879,"SoundDuration":92879,"Delta":323337153},{"NoteNumber":54,"Velocity":58,"Duration":92879,"SoundDuration":92879,"Delta":323337153},{"NoteNumber":63,"Velocity":60,"Duration":90634,"SoundDuration":90634,"Delta":323708670},{"NoteNumber":75,"Velocity":71,"Duration":90634,"SoundDuration":90634,"Delta":323708670},{"NoteNumber":51,"Velocity":54,"Duration":90634,"SoundDuration":90634,"Delta":323708670},{"NoteNumber":71,"Velocity":79,"Duration":93167,"SoundDuration":93167,"Delta":323889939},{"NoteNumber":47,"Velocity":51,"Duration":93167,"SoundDuration":93167,"Delta":323889939},{"NoteNumber":59,"Velocity":60,"Duration":93167,"SoundDuration":93167,"Delta":323889939},{"NoteNumber":67,"Velocity":73,"Duration":90909,"SoundDuration":90909,"Delta":324262610},{"NoteNumber":43,"Velocity":45,"Duration":90909,"SoundDuration":90909,"Delta":324262610},{"NoteNumber":55,"Velocity":54,"Duration":90909,"SoundDuration":90909,"Delta":324262610},{"NoteNumber":76,"Velocity":55,"Duration":89285,"SoundDuration":89285,"Delta":324444428},{"NoteNumber":85,"Velocity":55,"Duration":89285,"SoundDuration":89285,"Delta":324444428},{"NoteNumber":82,"Velocity":55,"Duration":89285,"SoundDuration":89285,"Delta":324444428},{"NoteNumber":90,"Velocity":65,"Duration":89285,"SoundDuration":89285,"Delta":324444428},{"NoteNumber":54,"Velocity":53,"Duration":89285,"SoundDuration":89285,"Delta":324444428},{"NoteNumber":42,"Velocity":45,"Duration":89285,"SoundDuration":89285,"Delta":324444428},{"NoteNumber":85,"Velocity":62,"Duration":89285,"SoundDuration":89285,"Delta":324623000},{"NoteNumber":90,"Velocity":74,"Duration":89285,"SoundDuration":89285,"Delta":324623000},{"NoteNumber":76,"Velocity":62,"Duration":89285,"SoundDuration":89285,"Delta":324623000},{"NoteNumber":82,"Velocity":62,"Duration":89285,"SoundDuration":89285,"Delta":324623000},{"NoteNumber":47,"Velocity":62,"Duration":89285,"SoundDuration":89285,"Delta":324623000},{"NoteNumber":35,"Velocity":52,"Duration":89285,"SoundDuration":89285,"Delta":324623000},{"NoteNumber":85,"Velocity":57,"Duration":98360,"SoundDuration":98360,"Delta":324801571},{"NoteNumber":76,"Velocity":57,"Duration":98360,"SoundDuration":98360,"Delta":324801571},{"NoteNumber":82,"Velocity":57,"Duration":98360,"SoundDuration":98360,"Delta":324801571},{"NoteNumber":90,"Velocity":68,"Duration":98360,"SoundDuration":98360,"Delta":324801571},{"NoteNumber":42,"Velocity":45,"Duration":98360,"SoundDuration":98360,"Delta":324801571},{"NoteNumber":54,"Velocity":53,"Duration":98360,"SoundDuration":98360,"Delta":324801571},{"NoteNumber":75,"Velocity":67,"Duration":92307,"SoundDuration":92307,"Delta":324998293},{"NoteNumber":83,"Velocity":67,"Duration":92307,"SoundDuration":92307,"Delta":324998293},{"NoteNumber":87,"Velocity":79,"Duration":92307,"SoundDuration":92307,"Delta":324998293},{"NoteNumber":47,"Velocity":62,"Duration":92307,"SoundDuration":92307,"Delta":324998293},{"NoteNumber":35,"Velocity":52,"Duration":92307,"SoundDuration":92307,"Delta":324998293},{"NoteNumber":83,"Velocity":72,"Duration":90909,"SoundDuration":90909,"Delta":325367524},{"NoteNumber":71,"Velocity":61,"Duration":90909,"SoundDuration":90909,"Delta":325367524},{"NoteNumber":59,"Velocity":54,"Duration":90909,"SoundDuration":90909,"Delta":325367524},{"NoteNumber":79,"Velocity":79,"Duration":92879,"SoundDuration":92879,"Delta":325549342},{"NoteNumber":67,"Velocity":67,"Duration":92879,"SoundDuration":92879,"Delta":325549342},{"NoteNumber":55,"Velocity":58,"Duration":92879,"SoundDuration":92879,"Delta":325549342},{"NoteNumber":76,"Velocity":64,"Duration":90634,"SoundDuration":90634,"Delta":325920859},{"NoteNumber":64,"Velocity":64,"Duration":90634,"SoundDuration":90634,"Delta":325920859},{"NoteNumber":52,"Velocity":46,"Duration":90634,"SoundDuration":90634,"Delta":325920859},{"NoteNumber":72,"Velocity":69,"Duration":93167,"SoundDuration":93167,"Delta":326102128},{"NoteNumber":48,"Velocity":43,"Duration":93167,"SoundDuration":93167,"Delta":326102128},{"NoteNumber":60,"Velocity":52,"Duration":93167,"SoundDuration":93167,"Delta":326102128},{"NoteNumber":69,"Velocity":52,"Duration":90909,"SoundDuration":90909,"Delta":326474799},{"NoteNumber":45,"Velocity":32,"Duration":90909,"SoundDuration":90909,"Delta":326474799},{"NoteNumber":57,"Velocity":39,"Duration":90909,"SoundDuration":90909,"Delta":326474799},{"NoteNumber":66,"Velocity":58,"Duration":90908,"SoundDuration":90908,"Delta":326656617},{"NoteNumber":54,"Velocity":44,"Duration":90908,"SoundDuration":90908,"Delta":326656617},{"NoteNumber":42,"Velocity":37,"Duration":90908,"SoundDuration":90908,"Delta":326656617},{"NoteNumber":63,"Velocity":43,"Duration":90909,"SoundDuration":90909,"Delta":327020253},{"NoteNumber":39,"Velocity":26,"Duration":90909,"SoundDuration":90909,"Delta":327020253},{"NoteNumber":51,"Velocity":31,"Duration":90909,"SoundDuration":90909,"Delta":327020253},{"NoteNumber":59,"Velocity":45,"Duration":90908,"SoundDuration":90908,"Delta":327202071},{"NoteNumber":47,"Velocity":34,"Duration":90908,"SoundDuration":90908,"Delta":327202071},{"NoteNumber":35,"Velocity":29,"Duration":90908,"SoundDuration":90908,"Delta":327202071},{"NoteNumber":55,"Velocity":36,"Duration":90909,"SoundDuration":90909,"Delta":328292979},{"NoteNumber":31,"Velocity":23,"Duration":90909,"SoundDuration":90909,"Delta":328292979},{"NoteNumber":43,"Velocity":27,"Duration":90909,"SoundDuration":90909,"Delta":328292979},{"NoteNumber":52,"Velocity":36,"Duration":90909,"SoundDuration":90909,"Delta":329383887},{"NoteNumber":28,"Velocity":23,"Duration":545454,"SoundDuration":545454,"Delta":329383887},{"NoteNumber":40,"Velocity":27,"Duration":181818,"SoundDuration":181818,"Delta":329383887},{"NoteNumber":86,"Velocity":37,"Duration":576553,"SoundDuration":576553,"Delta":329929341},{"NoteNumber":83,"Velocity":31,"Duration":576553,"SoundDuration":576553,"Delta":329929341},{"NoteNumber":32,"Velocity":23,"Duration":576553,"SoundDuration":576553,"Delta":329929341},{"NoteNumber":81,"Velocity":36,"Duration":568545,"SoundDuration":568545,"Delta":330505894},{"NoteNumber":84,"Velocity":36,"Duration":568545,"SoundDuration":568545,"Delta":330505894},{"NoteNumber":33,"Velocity":26,"Duration":576553,"SoundDuration":576553,"Delta":330505894},{"NoteNumber":81,"Velocity":37,"Duration":576553,"SoundDuration":576553,"Delta":331082448},{"NoteNumber":78,"Velocity":31,"Duration":576553,"SoundDuration":576553,"Delta":331082448},{"NoteNumber":36,"Velocity":22,"Duration":576553,"SoundDuration":576553,"Delta":331082448},{"NoteNumber":83,"Velocity":35,"Duration":80623,"SoundDuration":80623,"Delta":331659001},{"NoteNumber":79,"Velocity":29,"Duration":80623,"SoundDuration":80623,"Delta":331659001},{"NoteNumber":40,"Velocity":26,"Duration":490092,"SoundDuration":490092,"Delta":331659001},{"NoteNumber":76,"Velocity":26,"Duration":83798,"SoundDuration":83798,"Delta":331820248},{"NoteNumber":79,"Velocity":31,"Duration":83798,"SoundDuration":83798,"Delta":331820248},{"NoteNumber":78,"Velocity":27,"Duration":80623,"SoundDuration":80623,"Delta":331987846},{"NoteNumber":81,"Velocity":35,"Duration":80623,"SoundDuration":80623,"Delta":331987846},{"NoteNumber":78,"Velocity":31,"Duration":82978,"SoundDuration":82978,"Delta":332149093},{"NoteNumber":75,"Velocity":26,"Duration":82978,"SoundDuration":82978,"Delta":332149093},{"NoteNumber":34,"Velocity":21,"Duration":496924,"SoundDuration":496924,"Delta":332149093},{"NoteNumber":76,"Velocity":29,"Duration":81133,"SoundDuration":81133,"Delta":332315050},{"NoteNumber":79,"Velocity":35,"Duration":81133,"SoundDuration":81133,"Delta":332315050},{"NoteNumber":76,"Velocity":32,"Duration":84350,"SoundDuration":84350,"Delta":332477317},{"NoteNumber":73,"Velocity":27,"Duration":84350,"SoundDuration":84350,"Delta":332477317},{"NoteNumber":78,"Velocity":35,"Duration":100240,"SoundDuration":100240,"Delta":332646018},{"NoteNumber":75,"Velocity":29,"Duration":100240,"SoundDuration":100240,"Delta":332646018},{"NoteNumber":35,"Velocity":26,"Duration":585509,"SoundDuration":585509,"Delta":332646018},{"NoteNumber":78,"Velocity":34,"Duration":92273,"SoundDuration":92273,"Delta":333046980},{"NoteNumber":75,"Velocity":29,"Duration":92273,"SoundDuration":92273,"Delta":333046980},{"NoteNumber":71,"Velocity":34,"Duration":721238,"SoundDuration":721238,"Delta":333231527},{"NoteNumber":47,"Velocity":21,"Duration":553640,"SoundDuration":553640,"Delta":333231527},{"NoteNumber":43,"Velocity":26,"Duration":496323,"SoundDuration":496323,"Delta":333785168},{"NoteNumber":70,"Velocity":26,"Duration":82444,"SoundDuration":82444,"Delta":333952766},{"NoteNumber":73,"Velocity":31,"Duration":82444,"SoundDuration":82444,"Delta":333952766},{"NoteNumber":71,"Velocity":27,"Duration":81917,"SoundDuration":81917,"Delta":334117655},{"NoteNumber":75,"Velocity":32,"Duration":81917,"SoundDuration":81917,"Delta":334117655},{"NoteNumber":73,"Velocity":28,"Duration":81917,"SoundDuration":81917,"Delta":334281491},{"NoteNumber":76,"Velocity":33,"Duration":81917,"SoundDuration":81917,"Delta":334281491},{"NoteNumber":40,"Velocity":21,"Duration":483104,"SoundDuration":483104,"Delta":334281491},{"NoteNumber":75,"Velocity":28,"Duration":79816,"SoundDuration":79816,"Delta":334445327},{"NoteNumber":78,"Velocity":33,"Duration":79816,"SoundDuration":79816,"Delta":334445327},{"NoteNumber":76,"Velocity":29,"Duration":79816,"SoundDuration":79816,"Delta":334604961},{"NoteNumber":79,"Velocity":34,"Duration":79816,"SoundDuration":79816,"Delta":334604961},{"NoteNumber":75,"Velocity":29,"Duration":100240,"SoundDuration":100240,"Delta":334764595},{"NoteNumber":78,"Velocity":35,"Duration":100240,"SoundDuration":100240,"Delta":334764595},{"NoteNumber":35,"Velocity":26,"Duration":585509,"SoundDuration":585509,"Delta":334764595},{"NoteNumber":83,"Velocity":34,"Duration":92273,"SoundDuration":92273,"Delta":335165557},{"NoteNumber":71,"Velocity":34,"Duration":721238,"SoundDuration":721238,"Delta":335350104},{"NoteNumber":47,"Velocity":21,"Duration":553640,"SoundDuration":553640,"Delta":335350104},{"NoteNumber":43,"Velocity":26,"Duration":496323,"SoundDuration":496323,"Delta":335903745},{"NoteNumber":70,"Velocity":26,"Duration":82444,"SoundDuration":82444,"Delta":336071343},{"NoteNumber":73,"Velocity":31,"Duration":82444,"SoundDuration":82444,"Delta":336071343},{"NoteNumber":71,"Velocity":27,"Duration":81917,"SoundDuration":81917,"Delta":336236233},{"NoteNumber":75,"Velocity":32,"Duration":81917,"SoundDuration":81917,"Delta":336236233},{"NoteNumber":73,"Velocity":28,"Duration":81917,"SoundDuration":81917,"Delta":336400069},{"NoteNumber":76,"Velocity":33,"Duration":81917,"SoundDuration":81917,"Delta":336400069},{"NoteNumber":40,"Velocity":21,"Duration":483104,"SoundDuration":483104,"Delta":336400069},{"NoteNumber":75,"Velocity":28,"Duration":79816,"SoundDuration":79816,"Delta":336563905},{"NoteNumber":78,"Velocity":33,"Duration":79816,"SoundDuration":79816,"Delta":336563905},{"NoteNumber":79,"Velocity":34,"Duration":79816,"SoundDuration":79816,"Delta":336723539},{"NoteNumber":76,"Velocity":29,"Duration":79816,"SoundDuration":79816,"Delta":336723539},{"NoteNumber":70,"Velocity":29,"Duration":140149,"SoundDuration":140149,"Delta":336843264},{"NoteNumber":73,"Velocity":29,"Duration":120194,"SoundDuration":120194,"Delta":336863218},{"NoteNumber":78,"Velocity":35,"Duration":100240,"SoundDuration":100240,"Delta":336883173},{"NoteNumber":42,"Velocity":26,"Duration":585509,"SoundDuration":585509,"Delta":336883173},{"NoteNumber":85,"Velocity":34,"Duration":92273,"SoundDuration":92273,"Delta":337284135},{"NoteNumber":78,"Velocity":34,"Duration":553640,"SoundDuration":553640,"Delta":337468682},{"NoteNumber":82,"Velocity":34,"Duration":553640,"SoundDuration":553640,"Delta":337468682},{"NoteNumber":90,"Velocity":41,"Duration":553640,"SoundDuration":553640,"Delta":337468682},{"NoteNumber":37,"Velocity":21,"Duration":553640,"SoundDuration":553640,"Delta":337468682},{"NoteNumber":66,"Velocity":30,"Duration":104529,"SoundDuration":104529,"Delta":338022323},{"NoteNumber":70,"Velocity":35,"Duration":104529,"SoundDuration":104529,"Delta":338022323},{"NoteNumber":58,"Velocity":18,"Duration":209059,"SoundDuration":209059,"Delta":338022323},{"NoteNumber":61,"Velocity":23,"Duration":209059,"SoundDuration":209059,"Delta":338022323},{"NoteNumber":54,"Velocity":18,"Duration":209059,"SoundDuration":209059,"Delta":338022323},{"NoteNumber":85,"Velocity":32,"Duration":102739,"SoundDuration":102739,"Delta":338440441},{"NoteNumber":90,"Velocity":38,"Duration":586318,"SoundDuration":586318,"Delta":338645920},{"NoteNumber":82,"Velocity":31,"Duration":586318,"SoundDuration":586318,"Delta":338645920},{"NoteNumber":78,"Velocity":31,"Duration":586318,"SoundDuration":586318,"Delta":338645920},{"NoteNumber":37,"Velocity":19,"Duration":586318,"SoundDuration":586318,"Delta":338645920},{"NoteNumber":66,"Velocity":26,"Duration":122449,"SoundDuration":122449,"Delta":339232239},{"NoteNumber":70,"Velocity":30,"Duration":122449,"SoundDuration":122449,"Delta":339232239},{"NoteNumber":61,"Velocity":20,"Duration":244897,"SoundDuration":244897,"Delta":339232239},{"NoteNumber":54,"Velocity":15,"Duration":244897,"SoundDuration":244897,"Delta":339232239},{"NoteNumber":58,"Velocity":15,"Duration":244897,"SoundDuration":244897,"Delta":339232239},{"NoteNumber":85,"Velocity":28,"Duration":147783,"SoundDuration":147783,"Delta":339722035},{"NoteNumber":78,"Velocity":27,"Duration":2278480,"SoundDuration":2278480,"Delta":340017601},{"NoteNumber":82,"Velocity":27,"Duration":2278480,"SoundDuration":2278480,"Delta":340017601},{"NoteNumber":90,"Velocity":33,"Duration":2278480,"SoundDuration":2278480,"Delta":340017601},{"NoteNumber":37,"Velocity":17,"Duration":2278480,"SoundDuration":2278480,"Delta":340017601},{"NoteNumber":61,"Velocity":62,"Duration":82444,"SoundDuration":82444,"Delta":342549246},{"NoteNumber":73,"Velocity":73,"Duration":82444,"SoundDuration":82444,"Delta":342549246},{"NoteNumber":49,"Velocity":56,"Duration":82444,"SoundDuration":82444,"Delta":342549246},{"NoteNumber":37,"Velocity":47,"Duration":82444,"SoundDuration":82444,"Delta":342549246},{"NoteNumber":63,"Velocity":64,"Duration":81917,"SoundDuration":81917,"Delta":342714136},{"NoteNumber":75,"Velocity":76,"Duration":81917,"SoundDuration":81917,"Delta":342714136},{"NoteNumber":39,"Velocity":48,"Duration":81917,"SoundDuration":81917,"Delta":342714136},{"NoteNumber":51,"Velocity":57,"Duration":81917,"SoundDuration":81917,"Delta":342714136},{"NoteNumber":77,"Velocity":79,"Duration":81917,"SoundDuration":81917,"Delta":342877972},{"NoteNumber":65,"Velocity":67,"Duration":81917,"SoundDuration":81917,"Delta":342877972},{"NoteNumber":41,"Velocity":49,"Duration":81917,"SoundDuration":81917,"Delta":342877972},{"NoteNumber":53,"Velocity":58,"Duration":81917,"SoundDuration":81917,"Delta":342877972},{"NoteNumber":66,"Velocity":69,"Duration":79816,"SoundDuration":79816,"Delta":343041808},{"NoteNumber":78,"Velocity":82,"Duration":79816,"SoundDuration":79816,"Delta":343041808},{"NoteNumber":54,"Velocity":61,"Duration":79816,"SoundDuration":79816,"Delta":343041808},{"NoteNumber":42,"Velocity":51,"Duration":79816,"SoundDuration":79816,"Delta":343041808},{"NoteNumber":80,"Velocity":85,"Duration":79816,"SoundDuration":79816,"Delta":343201442},{"NoteNumber":68,"Velocity":85,"Duration":79816,"SoundDuration":79816,"Delta":343201442},{"NoteNumber":44,"Velocity":53,"Duration":79816,"SoundDuration":79816,"Delta":343201442},{"NoteNumber":56,"Velocity":63,"Duration":79816,"SoundDuration":79816,"Delta":343201442},{"NoteNumber":82,"Velocity":88,"Duration":100240,"SoundDuration":100240,"Delta":343361076},{"NoteNumber":70,"Velocity":74,"Duration":100240,"SoundDuration":100240,"Delta":343361076},{"NoteNumber":73,"Velocity":74,"Duration":100240,"SoundDuration":100240,"Delta":343361076},{"NoteNumber":78,"Velocity":74,"Duration":100240,"SoundDuration":100240,"Delta":343361076},{"NoteNumber":58,"Velocity":65,"Duration":100240,"SoundDuration":100240,"Delta":343361076},{"NoteNumber":46,"Velocity":55,"Duration":100240,"SoundDuration":100240,"Delta":343361076},{"NoteNumber":73,"Velocity":74,"Duration":92273,"SoundDuration":92273,"Delta":343762038},{"NoteNumber":85,"Velocity":88,"Duration":92273,"SoundDuration":92273,"Delta":343762038},{"NoteNumber":37,"Velocity":52,"Duration":92273,"SoundDuration":92273,"Delta":343762038},{"NoteNumber":49,"Velocity":62,"Duration":92273,"SoundDuration":92273,"Delta":343762038},{"NoteNumber":78,"Velocity":80,"Duration":92273,"SoundDuration":92273,"Delta":343946585},{"NoteNumber":90,"Velocity":95,"Duration":92273,"SoundDuration":92273,"Delta":343946585},{"NoteNumber":30,"Velocity":63,"Duration":92273,"SoundDuration":92273,"Delta":343946585},{"NoteNumber":42,"Velocity":75,"Duration":92273,"SoundDuration":92273,"Delta":343946585},{"NoteNumber":59,"Velocity":87,"Duration":206142,"SoundDuration":206142,"Delta":344500226},{"NoteNumber":47,"Velocity":70,"Duration":206142,"SoundDuration":206142,"Delta":344500226},{"NoteNumber":35,"Velocity":58,"Duration":206142,"SoundDuration":206142,"Delta":344500226},{"NoteNumber":85,"Velocity":72,"Duration":569692,"SoundDuration":569692,"Delta":345118655},{"NoteNumber":97,"Velocity":86,"Duration":569692,"SoundDuration":569692,"Delta":345118655},{"NoteNumber":93,"Velocity":72,"Duration":569692,"SoundDuration":569692,"Delta":345118655},{"NoteNumber":59,"Velocity":54,"Duration":1856887,"SoundDuration":1856887,"Delta":345118655},{"NoteNumber":69,"Velocity":54,"Duration":569692,"SoundDuration":569692,"Delta":345118655},{"NoteNumber":73,"Velocity":64,"Duration":569692,"SoundDuration":569692,"Delta":345118655},{"NoteNumber":95,"Velocity":83,"Duration":569692,"SoundDuration":569692,"Delta":345688347},{"NoteNumber":83,"Velocity":71,"Duration":569692,"SoundDuration":569692,"Delta":345688347},{"NoteNumber":92,"Velocity":83,"Duration":569692,"SoundDuration":569692,"Delta":345688347},{"NoteNumber":68,"Velocity":54,"Duration":569692,"SoundDuration":569692,"Delta":345688347},{"NoteNumber":71,"Velocity":64,"Duration":569692,"SoundDuration":569692,"Delta":345688347},{"NoteNumber":92,"Velocity":86,"Duration":569692,"SoundDuration":569692,"Delta":346258040},{"NoteNumber":88,"Velocity":72,"Duration":569692,"SoundDuration":569692,"Delta":346258040},{"NoteNumber":80,"Velocity":72,"Duration":569692,"SoundDuration":569692,"Delta":346258040},{"NoteNumber":64,"Velocity":54,"Duration":569692,"SoundDuration":569692,"Delta":346258040},{"NoteNumber":68,"Velocity":64,"Duration":569692,"SoundDuration":569692,"Delta":346258040},{"NoteNumber":81,"Velocity":64,"Duration":80623,"SoundDuration":80623,"Delta":346827732},{"NoteNumber":90,"Velocity":64,"Duration":80623,"SoundDuration":80623,"Delta":346827732},{"NoteNumber":93,"Velocity":77,"Duration":80623,"SoundDuration":80623,"Delta":346827732},{"NoteNumber":66,"Velocity":51,"Duration":80623,"SoundDuration":80623,"Delta":346827732},{"NoteNumber":69,"Velocity":61,"Duration":80623,"SoundDuration":80623,"Delta":346827732},{"NoteNumber":87,"Velocity":57,"Duration":83798,"SoundDuration":83798,"Delta":346988979},{"NoteNumber":90,"Velocity":68,"Duration":83798,"SoundDuration":83798,"Delta":346988979},{"NoteNumber":78,"Velocity":57,"Duration":83798,"SoundDuration":83798,"Delta":346988979},{"NoteNumber":63,"Velocity":48,"Duration":83798,"SoundDuration":83798,"Delta":346988979},{"NoteNumber":66,"Velocity":57,"Duration":83798,"SoundDuration":83798,"Delta":346988979},{"NoteNumber":80,"Velocity":60,"Duration":80623,"SoundDuration":80623,"Delta":347156577},{"NoteNumber":92,"Velocity":77,"Duration":80623,"SoundDuration":80623,"Delta":347156577},{"NoteNumber":88,"Velocity":59,"Duration":80623,"SoundDuration":80623,"Delta":347156577},{"NoteNumber":64,"Velocity":51,"Duration":80623,"SoundDuration":80623,"Delta":347156577},{"NoteNumber":68,"Velocity":61,"Duration":80623,"SoundDuration":80623,"Delta":347156577},{"NoteNumber":76,"Velocity":58,"Duration":82978,"SoundDuration":82978,"Delta":347317824},{"NoteNumber":85,"Velocity":58,"Duration":82978,"SoundDuration":82978,"Delta":347317824},{"NoteNumber":88,"Velocity":69,"Duration":82978,"SoundDuration":82978,"Delta":347317824},{"NoteNumber":61,"Velocity":46,"Duration":82978,"SoundDuration":82978,"Delta":347317824},{"NoteNumber":64,"Velocity":55,"Duration":82978,"SoundDuration":82978,"Delta":347317824},{"NoteNumber":87,"Velocity":64,"Duration":81133,"SoundDuration":81133,"Delta":347483781},{"NoteNumber":90,"Velocity":77,"Duration":81133,"SoundDuration":81133,"Delta":347483781},{"NoteNumber":78,"Velocity":64,"Duration":81133,"SoundDuration":81133,"Delta":347483781},{"NoteNumber":66,"Velocity":61,"Duration":81133,"SoundDuration":81133,"Delta":347483781},{"NoteNumber":63,"Velocity":51,"Duration":81133,"SoundDuration":81133,"Delta":347483781},{"NoteNumber":75,"Velocity":59,"Duration":84350,"SoundDuration":84350,"Delta":347646048},{"NoteNumber":83,"Velocity":59,"Duration":84350,"SoundDuration":84350,"Delta":347646048},{"NoteNumber":87,"Velocity":70,"Duration":84350,"SoundDuration":84350,"Delta":347646048},{"NoteNumber":63,"Velocity":57,"Duration":84350,"SoundDuration":84350,"Delta":347646048},{"NoteNumber":59,"Velocity":48,"Duration":84350,"SoundDuration":84350,"Delta":347646048},{"NoteNumber":85,"Velocity":64,"Duration":100240,"SoundDuration":100240,"Delta":347814749},{"NoteNumber":88,"Velocity":77,"Duration":100240,"SoundDuration":100240,"Delta":347814749},{"NoteNumber":76,"Velocity":64,"Duration":100240,"SoundDuration":100240,"Delta":347814749},{"NoteNumber":61,"Velocity":51,"Duration":100240,"SoundDuration":100240,"Delta":347814749},{"NoteNumber":64,"Velocity":61,"Duration":100240,"SoundDuration":100240,"Delta":347814749},{"NoteNumber":88,"Velocity":75,"Duration":92273,"SoundDuration":92273,"Delta":348215711},{"NoteNumber":85,"Velocity":63,"Duration":92273,"SoundDuration":92273,"Delta":348215711},{"NoteNumber":76,"Velocity":63,"Duration":92273,"SoundDuration":92273,"Delta":348215711},{"NoteNumber":64,"Velocity":58,"Duration":92273,"SoundDuration":92273,"Delta":348215711},{"NoteNumber":61,"Velocity":48,"Duration":92273,"SoundDuration":92273,"Delta":348215711},{"NoteNumber":73,"Velocity":64,"Duration":553640,"SoundDuration":553640,"Delta":348400258},{"NoteNumber":81,"Velocity":64,"Duration":553640,"SoundDuration":553640,"Delta":348400258},{"NoteNumber":85,"Velocity":77,"Duration":553640,"SoundDuration":553640,"Delta":348400258},{"NoteNumber":61,"Velocity":74,"Duration":553640,"SoundDuration":553640,"Delta":348400258},{"NoteNumber":57,"Velocity":60,"Duration":553640,"SoundDuration":553640,"Delta":348400258},{"NoteNumber":44,"Velocity":40,"Duration":332487,"SoundDuration":332487,"Delta":348953899},{"NoteNumber":56,"Velocity":46,"Duration":332487,"SoundDuration":332487,"Delta":348953899},{"NoteNumber":71,"Velocity":47,"Duration":82444,"SoundDuration":82444,"Delta":349121497},{"NoteNumber":83,"Velocity":56,"Duration":82444,"SoundDuration":82444,"Delta":349121497},{"NoteNumber":75,"Velocity":49,"Duration":81917,"SoundDuration":81917,"Delta":349286386},{"NoteNumber":87,"Velocity":58,"Duration":81917,"SoundDuration":81917,"Delta":349286386},{"NoteNumber":88,"Velocity":60,"Duration":81917,"SoundDuration":81917,"Delta":349450222},{"NoteNumber":76,"Velocity":51,"Duration":81917,"SoundDuration":81917,"Delta":349450222},{"NoteNumber":59,"Velocity":34,"Duration":323469,"SoundDuration":323469,"Delta":349450222},{"NoteNumber":56,"Velocity":34,"Duration":323469,"SoundDuration":323469,"Delta":349450222},{"NoteNumber":64,"Velocity":39,"Duration":323469,"SoundDuration":323469,"Delta":349450222},{"NoteNumber":78,"Velocity":52,"Duration":79816,"SoundDuration":79816,"Delta":349614058},{"NoteNumber":90,"Velocity":62,"Duration":79816,"SoundDuration":79816,"Delta":349614058},{"NoteNumber":92,"Velocity":64,"Duration":79816,"SoundDuration":79816,"Delta":349773692},{"NoteNumber":80,"Velocity":54,"Duration":79816,"SoundDuration":79816,"Delta":349773692},{"NoteNumber":83,"Velocity":60,"Duration":133128,"SoundDuration":133128,"Delta":349893418},{"NoteNumber":88,"Velocity":60,"Duration":113174,"SoundDuration":113174,"Delta":349913372},{"NoteNumber":95,"Velocity":70,"Duration":93219,"SoundDuration":93219,"Delta":349933326},{"NoteNumber":42,"Velocity":40,"Duration":372879,"SoundDuration":372879,"Delta":349933326},{"NoteNumber":54,"Velocity":46,"Duration":372879,"SoundDuration":372879,"Delta":349933326},{"NoteNumber":81,"Velocity":49,"Duration":88074,"SoundDuration":88074,"Delta":350306205},{"NoteNumber":93,"Velocity":58,"Duration":88074,"SoundDuration":88074,"Delta":350306205},{"NoteNumber":88,"Velocity":57,"Duration":528448,"SoundDuration":528448,"Delta":350482355},{"NoteNumber":76,"Velocity":48,"Duration":528448,"SoundDuration":528448,"Delta":350482355},{"NoteNumber":61,"Velocity":34,"Duration":352299,"SoundDuration":352299,"Delta":350482355},{"NoteNumber":64,"Velocity":39,"Duration":352299,"SoundDuration":352299,"Delta":350482355},{"NoteNumber":54,"Velocity":34,"Duration":352299,"SoundDuration":352299,"Delta":350482355},{"NoteNumber":57,"Velocity":34,"Duration":352299,"SoundDuration":352299,"Delta":350482355},{"NoteNumber":52,"Velocity":46,"Duration":332487,"SoundDuration":332487,"Delta":351010803},{"NoteNumber":40,"Velocity":40,"Duration":332487,"SoundDuration":332487,"Delta":351010803},{"NoteNumber":85,"Velocity":58,"Duration":82444,"SoundDuration":82444,"Delta":351178401},{"NoteNumber":73,"Velocity":48,"Duration":82444,"SoundDuration":82444,"Delta":351178401},{"NoteNumber":75,"Velocity":53,"Duration":81917,"SoundDuration":81917,"Delta":351343291},{"NoteNumber":87,"Velocity":63,"Duration":81917,"SoundDuration":81917,"Delta":351343291},{"NoteNumber":76,"Velocity":57,"Duration":81917,"SoundDuration":81917,"Delta":351507127},{"NoteNumber":88,"Velocity":67,"Duration":81917,"SoundDuration":81917,"Delta":351507127},{"NoteNumber":64,"Velocity":44,"Duration":323469,"SoundDuration":323469,"Delta":351507127},{"NoteNumber":56,"Velocity":38,"Duration":323469,"SoundDuration":323469,"Delta":351507127},{"NoteNumber":52,"Velocity":38,"Duration":323469,"SoundDuration":323469,"Delta":351507127},{"NoteNumber":61,"Velocity":38,"Duration":323469,"SoundDuration":323469,"Delta":351507127},{"NoteNumber":90,"Velocity":73,"Duration":79816,"SoundDuration":79816,"Delta":351670963},{"NoteNumber":78,"Velocity":61,"Duration":79816,"SoundDuration":79816,"Delta":351670963},{"NoteNumber":80,"Velocity":65,"Duration":79816,"SoundDuration":79816,"Delta":351830597},{"NoteNumber":92,"Velocity":78,"Duration":79816,"SoundDuration":79816,"Delta":351830597},{"NoteNumber":83,"Velocity":75,"Duration":132787,"SoundDuration":132787,"Delta":351950322},{"NoteNumber":87,"Velocity":75,"Duration":112833,"SoundDuration":112833,"Delta":351970276},{"NoteNumber":95,"Velocity":87,"Duration":92879,"SoundDuration":92879,"Delta":351990231},{"NoteNumber":47,"Velocity":57,"Duration":371516,"SoundDuration":371516,"Delta":351990231},{"NoteNumber":35,"Velocity":50,"Duration":371516,"SoundDuration":371516,"Delta":351990231},{"NoteNumber":93,"Velocity":69,"Duration":86286,"SoundDuration":86286,"Delta":352361748},{"NoteNumber":81,"Velocity":58,"Duration":86286,"SoundDuration":86286,"Delta":352361748},{"NoteNumber":75,"Velocity":56,"Duration":517717,"SoundDuration":517717,"Delta":352534320},{"NoteNumber":87,"Velocity":67,"Duration":517717,"SoundDuration":517717,"Delta":352534320},{"NoteNumber":57,"Velocity":40,"Duration":345145,"SoundDuration":345145,"Delta":352534320},{"NoteNumber":54,"Velocity":40,"Duration":345145,"SoundDuration":345145,"Delta":352534320},{"NoteNumber":59,"Velocity":40,"Duration":345145,"SoundDuration":345145,"Delta":352534320},{"NoteNumber":63,"Velocity":46,"Duration":345145,"SoundDuration":345145,"Delta":352534320},{"NoteNumber":52,"Velocity":91,"Duration":202020,"SoundDuration":202020,"Delta":353052038},{"NoteNumber":40,"Velocity":73,"Duration":202020,"SoundDuration":202020,"Delta":353052038},{"NoteNumber":28,"Velocity":61,"Duration":202020,"SoundDuration":202020,"Delta":353052038},{"NoteNumber":89,"Velocity":78,"Duration":192307,"SoundDuration":192307,"Delta":353456078},{"NoteNumber":77,"Velocity":64,"Duration":192307,"SoundDuration":192307,"Delta":353456078},{"NoteNumber":86,"Velocity":64,"Duration":192307,"SoundDuration":192307,"Delta":353456078},{"NoteNumber":88,"Velocity":75,"Duration":384614,"SoundDuration":384614,"Delta":353648385},{"NoteNumber":76,"Velocity":75,"Duration":384614,"SoundDuration":384614,"Delta":353648385},{"NoteNumber":84,"Velocity":75,"Duration":384614,"SoundDuration":384614,"Delta":353648385},{"NoteNumber":52,"Velocity":58,"Duration":1563938,"SoundDuration":1563938,"Delta":353648385},{"NoteNumber":81,"Velocity":64,"Duration":192307,"SoundDuration":192307,"Delta":354033000},{"NoteNumber":72,"Velocity":64,"Duration":192307,"SoundDuration":192307,"Delta":354033000},{"NoteNumber":84,"Velocity":78,"Duration":192307,"SoundDuration":192307,"Delta":354033000},{"NoteNumber":65,"Velocity":58,"Duration":192307,"SoundDuration":192307,"Delta":354033000},{"NoteNumber":83,"Velocity":59,"Duration":80623,"SoundDuration":80623,"Delta":354225308},{"NoteNumber":74,"Velocity":59,"Duration":80623,"SoundDuration":80623,"Delta":354225308},{"NoteNumber":86,"Velocity":70,"Duration":80623,"SoundDuration":80623,"Delta":354225308},{"NoteNumber":64,"Velocity":62,"Duration":328845,"SoundDuration":328845,"Delta":354225308},{"NoteNumber":83,"Velocity":62,"Duration":83798,"SoundDuration":83798,"Delta":354386555},{"NoteNumber":71,"Velocity":52,"Duration":83798,"SoundDuration":83798,"Delta":354386555},{"NoteNumber":80,"Velocity":52,"Duration":83798,"SoundDuration":83798,"Delta":354386555},{"NoteNumber":72,"Velocity":55,"Duration":80623,"SoundDuration":80623,"Delta":354554153},{"NoteNumber":81,"Velocity":54,"Duration":80623,"SoundDuration":80623,"Delta":354554153},{"NoteNumber":84,"Velocity":70,"Duration":80623,"SoundDuration":80623,"Delta":354554153},{"NoteNumber":60,"Velocity":58,"Duration":161247,"SoundDuration":161247,"Delta":354554153},{"NoteNumber":78,"Velocity":53,"Duration":82978,"SoundDuration":82978,"Delta":354715400},{"NoteNumber":69,"Velocity":53,"Duration":82978,"SoundDuration":82978,"Delta":354715400},{"NoteNumber":81,"Velocity":63,"Duration":82978,"SoundDuration":82978,"Delta":354715400},{"NoteNumber":62,"Velocity":63,"Duration":328223,"SoundDuration":328223,"Delta":354715400},{"NoteNumber":71,"Velocity":59,"Duration":81133,"SoundDuration":81133,"Delta":354881356},{"NoteNumber":83,"Velocity":70,"Duration":81133,"SoundDuration":81133,"Delta":354881356},{"NoteNumber":80,"Velocity":59,"Duration":81133,"SoundDuration":81133,"Delta":354881356},{"NoteNumber":68,"Velocity":54,"Duration":84350,"SoundDuration":84350,"Delta":355043624},{"NoteNumber":76,"Velocity":54,"Duration":84350,"SoundDuration":84350,"Delta":355043624},{"NoteNumber":80,"Velocity":64,"Duration":84350,"SoundDuration":84350,"Delta":355043624},{"NoteNumber":59,"Velocity":58,"Duration":168700,"SoundDuration":168700,"Delta":355043624},{"NoteNumber":82,"Velocity":70,"Duration":100240,"SoundDuration":100240,"Delta":355212324},{"NoteNumber":70,"Velocity":59,"Duration":100240,"SoundDuration":100240,"Delta":355212324},{"NoteNumber":76,"Velocity":59,"Duration":100240,"SoundDuration":100240,"Delta":355212324},{"NoteNumber":61,"Velocity":67,"Duration":200481,"SoundDuration":200481,"Delta":355212324},{"NoteNumber":52,"Velocity":67,"Duration":200481,"SoundDuration":200481,"Delta":355212324},{"NoteNumber":79,"Velocity":64,"Duration":192307,"SoundDuration":192307,"Delta":355613286},{"NoteNumber":88,"Velocity":64,"Duration":192307,"SoundDuration":192307,"Delta":355613286},{"NoteNumber":91,"Velocity":78,"Duration":192307,"SoundDuration":192307,"Delta":355613286},{"NoteNumber":78,"Velocity":75,"Duration":384614,"SoundDuration":384614,"Delta":355805594},{"NoteNumber":90,"Velocity":75,"Duration":384614,"SoundDuration":384614,"Delta":355805594},{"NoteNumber":87,"Velocity":75,"Duration":384614,"SoundDuration":384614,"Delta":355805594},{"NoteNumber":40,"Velocity":73,"Duration":192307,"SoundDuration":192307,"Delta":355805594},{"NoteNumber":28,"Velocity":61,"Duration":192307,"SoundDuration":192307,"Delta":355805594},{"NoteNumber":83,"Velocity":64,"Duration":192307,"SoundDuration":192307,"Delta":356190209},{"NoteNumber":75,"Velocity":64,"Duration":192307,"SoundDuration":192307,"Delta":356190209},{"NoteNumber":87,"Velocity":78,"Duration":192307,"SoundDuration":192307,"Delta":356190209},{"NoteNumber":67,"Velocity":58,"Duration":192307,"SoundDuration":192307,"Delta":356190209},{"NoteNumber":88,"Velocity":70,"Duration":80623,"SoundDuration":80623,"Delta":356382516},{"NoteNumber":85,"Velocity":59,"Duration":80623,"SoundDuration":80623,"Delta":356382516},{"NoteNumber":76,"Velocity":59,"Duration":80623,"SoundDuration":80623,"Delta":356382516},{"NoteNumber":52,"Velocity":58,"Duration":987016,"SoundDuration":987016,"Delta":356382516},{"NoteNumber":66,"Velocity":62,"Duration":328845,"SoundDuration":328845,"Delta":356382516},{"NoteNumber":73,"Velocity":52,"Duration":83798,"SoundDuration":83798,"Delta":356543763},{"NoteNumber":82,"Velocity":52,"Duration":83798,"SoundDuration":83798,"Delta":356543763},{"NoteNumber":85,"Velocity":62,"Duration":83798,"SoundDuration":83798,"Delta":356543763},{"NoteNumber":83,"Velocity":54,"Duration":80623,"SoundDuration":80623,"Delta":356711361},{"NoteNumber":75,"Velocity":55,"Duration":80623,"SoundDuration":80623,"Delta":356711361},{"NoteNumber":87,"Velocity":70,"Duration":80623,"SoundDuration":80623,"Delta":356711361},{"NoteNumber":63,"Velocity":58,"Duration":161247,"SoundDuration":161247,"Delta":356711361},{"NoteNumber":80,"Velocity":53,"Duration":82978,"SoundDuration":82978,"Delta":356872608},{"NoteNumber":83,"Velocity":63,"Duration":82978,"SoundDuration":82978,"Delta":356872608},{"NoteNumber":71,"Velocity":53,"Duration":82978,"SoundDuration":82978,"Delta":356872608},{"NoteNumber":64,"Velocity":63,"Duration":328223,"SoundDuration":328223,"Delta":356872608},{"NoteNumber":72,"Velocity":59,"Duration":81133,"SoundDuration":81133,"Delta":357038565},{"NoteNumber":84,"Velocity":70,"Duration":81133,"SoundDuration":81133,"Delta":357038565},{"NoteNumber":81,"Velocity":59,"Duration":81133,"SoundDuration":81133,"Delta":357038565},{"NoteNumber":69,"Velocity":54,"Duration":84350,"SoundDuration":84350,"Delta":357200832},{"NoteNumber":81,"Velocity":64,"Duration":84350,"SoundDuration":84350,"Delta":357200832},{"NoteNumber":78,"Velocity":54,"Duration":84350,"SoundDuration":84350,"Delta":357200832},{"NoteNumber":61,"Velocity":58,"Duration":168700,"SoundDuration":168700,"Delta":357200832},{"NoteNumber":83,"Velocity":70,"Duration":100240,"SoundDuration":100240,"Delta":357369533},{"NoteNumber":71,"Velocity":59,"Duration":100240,"SoundDuration":100240,"Delta":357369533},{"NoteNumber":78,"Velocity":59,"Duration":100240,"SoundDuration":100240,"Delta":357369533},{"NoteNumber":52,"Velocity":67,"Duration":200481,"SoundDuration":200481,"Delta":357369533},{"NoteNumber":63,"Velocity":67,"Duration":200481,"SoundDuration":200481,"Delta":357369533},{"NoteNumber":84,"Velocity":64,"Duration":192307,"SoundDuration":192307,"Delta":357770495},{"NoteNumber":96,"Velocity":78,"Duration":192307,"SoundDuration":192307,"Delta":357770495},{"NoteNumber":93,"Velocity":64,"Duration":192307,"SoundDuration":192307,"Delta":357770495},{"NoteNumber":95,"Velocity":75,"Duration":384614,"SoundDuration":384614,"Delta":357962802},{"NoteNumber":83,"Velocity":75,"Duration":384614,"SoundDuration":384614,"Delta":357962802},{"NoteNumber":91,"Velocity":75,"Duration":384614,"SoundDuration":384614,"Delta":357962802},{"NoteNumber":40,"Velocity":73,"Duration":192307,"SoundDuration":192307,"Delta":357962802},{"NoteNumber":28,"Velocity":61,"Duration":192307,"SoundDuration":192307,"Delta":357962802},{"NoteNumber":91,"Velocity":78,"Duration":192307,"SoundDuration":192307,"Delta":358347417},{"NoteNumber":79,"Velocity":64,"Duration":192307,"SoundDuration":192307,"Delta":358347417},{"NoteNumber":88,"Velocity":64,"Duration":192307,"SoundDuration":192307,"Delta":358347417},{"NoteNumber":60,"Velocity":49,"Duration":192307,"SoundDuration":192307,"Delta":358347417},{"NoteNumber":72,"Velocity":58,"Duration":192307,"SoundDuration":192307,"Delta":358347417},{"NoteNumber":93,"Velocity":70,"Duration":80623,"SoundDuration":80623,"Delta":358539725},{"NoteNumber":90,"Velocity":59,"Duration":80623,"SoundDuration":80623,"Delta":358539725},{"NoteNumber":81,"Velocity":59,"Duration":80623,"SoundDuration":80623,"Delta":358539725},{"NoteNumber":71,"Velocity":62,"Duration":328845,"SoundDuration":328845,"Delta":358539725},{"NoteNumber":59,"Velocity":52,"Duration":328845,"SoundDuration":328845,"Delta":358539725},{"NoteNumber":87,"Velocity":52,"Duration":83798,"SoundDuration":83798,"Delta":358700972},{"NoteNumber":90,"Velocity":62,"Duration":83798,"SoundDuration":83798,"Delta":358700972},{"NoteNumber":78,"Velocity":52,"Duration":83798,"SoundDuration":83798,"Delta":358700972},{"NoteNumber":79,"Velocity":55,"Duration":80623,"SoundDuration":80623,"Delta":358868570},{"NoteNumber":91,"Velocity":70,"Duration":80623,"SoundDuration":80623,"Delta":358868570},{"NoteNumber":88,"Velocity":55,"Duration":80623,"SoundDuration":80623,"Delta":358868570},{"NoteNumber":55,"Velocity":49,"Duration":80623,"SoundDuration":80623,"Delta":358868570},{"NoteNumber":67,"Velocity":58,"Duration":80623,"SoundDuration":80623,"Delta":358868570},{"NoteNumber":76,"Velocity":53,"Duration":82978,"SoundDuration":82978,"Delta":359029817},{"NoteNumber":84,"Velocity":53,"Duration":82978,"SoundDuration":82978,"Delta":359029817},{"NoteNumber":88,"Velocity":63,"Duration":82978,"SoundDuration":82978,"Delta":359029817},{"NoteNumber":57,"Velocity":39,"Duration":82978,"SoundDuration":82978,"Delta":359029817},{"NoteNumber":69,"Velocity":47,"Duration":82978,"SoundDuration":82978,"Delta":359029817},{"NoteNumber":78,"Velocity":59,"Duration":81133,"SoundDuration":81133,"Delta":359195773},{"NoteNumber":86,"Velocity":59,"Duration":81133,"SoundDuration":81133,"Delta":359195773},{"NoteNumber":90,"Velocity":70,"Duration":81133,"SoundDuration":81133,"Delta":359195773},{"NoteNumber":66,"Velocity":53,"Duration":81133,"SoundDuration":81133,"Delta":359195773},{"NoteNumber":54,"Velocity":45,"Duration":81133,"SoundDuration":81133,"Delta":359195773},{"NoteNumber":74,"Velocity":54,"Duration":83333,"SoundDuration":83333,"Delta":359358041},{"NoteNumber":83,"Velocity":54,"Duration":83333,"SoundDuration":83333,"Delta":359358041},{"NoteNumber":86,"Velocity":64,"Duration":83333,"SoundDuration":83333,"Delta":359358041},{"NoteNumber":55,"Velocity":40,"Duration":83333,"SoundDuration":83333,"Delta":359358041},{"NoteNumber":67,"Velocity":48,"Duration":83333,"SoundDuration":83333,"Delta":359358041},{"NoteNumber":76,"Velocity":59,"Duration":80428,"SoundDuration":80428,"Delta":359524707},{"NoteNumber":88,"Velocity":70,"Duration":80428,"SoundDuration":80428,"Delta":359524707},{"NoteNumber":84,"Velocity":59,"Duration":80428,"SoundDuration":80428,"Delta":359524707},{"NoteNumber":52,"Velocity":67,"Duration":80428,"SoundDuration":80428,"Delta":359524707},{"NoteNumber":64,"Velocity":67,"Duration":80428,"SoundDuration":80428,"Delta":359524707},{"NoteNumber":84,"Velocity":62,"Duration":82873,"SoundDuration":82873,"Delta":359685565},{"NoteNumber":81,"Velocity":52,"Duration":82873,"SoundDuration":82873,"Delta":359685565},{"NoteNumber":72,"Velocity":52,"Duration":82873,"SoundDuration":82873,"Delta":359685565},{"NoteNumber":66,"Velocity":48,"Duration":82873,"SoundDuration":82873,"Delta":359685565},{"NoteNumber":54,"Velocity":40,"Duration":82873,"SoundDuration":82873,"Delta":359685565},{"NoteNumber":83,"Velocity":55,"Duration":80623,"SoundDuration":80623,"Delta":359851311},{"NoteNumber":86,"Velocity":70,"Duration":80623,"SoundDuration":80623,"Delta":359851311},{"NoteNumber":74,"Velocity":55,"Duration":80623,"SoundDuration":80623,"Delta":359851311},{"NoteNumber":50,"Velocity":49,"Duration":80623,"SoundDuration":80623,"Delta":359851311},{"NoteNumber":62,"Velocity":58,"Duration":80623,"SoundDuration":80623,"Delta":359851311},{"NoteNumber":79,"Velocity":53,"Duration":82978,"SoundDuration":82978,"Delta":360012558},{"NoteNumber":71,"Velocity":53,"Duration":82978,"SoundDuration":82978,"Delta":360012558},{"NoteNumber":83,"Velocity":63,"Duration":82978,"SoundDuration":82978,"Delta":360012558},{"NoteNumber":64,"Velocity":47,"Duration":82978,"SoundDuration":82978,"Delta":360012558},{"NoteNumber":52,"Velocity":39,"Duration":82978,"SoundDuration":82978,"Delta":360012558},{"NoteNumber":72,"Velocity":59,"Duration":81133,"SoundDuration":81133,"Delta":360178515},{"NoteNumber":84,"Velocity":70,"Duration":81133,"SoundDuration":81133,"Delta":360178515},{"NoteNumber":81,"Velocity":59,"Duration":81133,"SoundDuration":81133,"Delta":360178515},{"NoteNumber":48,"Velocity":45,"Duration":81133,"SoundDuration":81133,"Delta":360178515},{"NoteNumber":60,"Velocity":53,"Duration":81133,"SoundDuration":81133,"Delta":360178515},{"NoteNumber":78,"Velocity":54,"Duration":83333,"SoundDuration":83333,"Delta":360340782},{"NoteNumber":81,"Velocity":64,"Duration":83333,"SoundDuration":83333,"Delta":360340782},{"NoteNumber":69,"Velocity":54,"Duration":83333,"SoundDuration":83333,"Delta":360340782},{"NoteNumber":50,"Velocity":40,"Duration":83333,"SoundDuration":83333,"Delta":360340782},{"NoteNumber":62,"Velocity":48,"Duration":83333,"SoundDuration":83333,"Delta":360340782},{"NoteNumber":83,"Velocity":70,"Duration":81080,"SoundDuration":81080,"Delta":360507449},{"NoteNumber":79,"Velocity":59,"Duration":81080,"SoundDuration":81080,"Delta":360507449},{"NoteNumber":71,"Velocity":59,"Duration":81080,"SoundDuration":81080,"Delta":360507449},{"NoteNumber":47,"Velocity":67,"Duration":81080,"SoundDuration":81080,"Delta":360507449},{"NoteNumber":59,"Velocity":67,"Duration":81080,"SoundDuration":81080,"Delta":360507449},{"NoteNumber":67,"Velocity":53,"Duration":83798,"SoundDuration":83798,"Delta":360669611},{"NoteNumber":79,"Velocity":63,"Duration":83798,"SoundDuration":83798,"Delta":360669611},{"NoteNumber":76,"Velocity":53,"Duration":83798,"SoundDuration":83798,"Delta":360669611},{"NoteNumber":48,"Velocity":40,"Duration":83798,"SoundDuration":83798,"Delta":360669611},{"NoteNumber":60,"Velocity":48,"Duration":83798,"SoundDuration":83798,"Delta":360669611},{"NoteNumber":69,"Velocity":57,"Duration":80623,"SoundDuration":80623,"Delta":360837209},{"NoteNumber":78,"Velocity":57,"Duration":80623,"SoundDuration":80623,"Delta":360837209},{"NoteNumber":81,"Velocity":73,"Duration":80623,"SoundDuration":80623,"Delta":360837209},{"NoteNumber":45,"Velocity":51,"Duration":80623,"SoundDuration":80623,"Delta":360837209},{"NoteNumber":57,"Velocity":60,"Duration":80623,"SoundDuration":80623,"Delta":360837209},{"NoteNumber":78,"Velocity":68,"Duration":82978,"SoundDuration":82978,"Delta":360998456},{"NoteNumber":66,"Velocity":57,"Duration":82978,"SoundDuration":82978,"Delta":360998456},{"NoteNumber":75,"Velocity":57,"Duration":82978,"SoundDuration":82978,"Delta":360998456},{"NoteNumber":47,"Velocity":42,"Duration":82978,"SoundDuration":82978,"Delta":360998456},{"NoteNumber":59,"Velocity":50,"Duration":82978,"SoundDuration":82978,"Delta":360998456},{"NoteNumber":76,"Velocity":65,"Duration":81133,"SoundDuration":81133,"Delta":361164412},{"NoteNumber":79,"Velocity":77,"Duration":81133,"SoundDuration":81133,"Delta":361164412},{"NoteNumber":67,"Velocity":65,"Duration":81133,"SoundDuration":81133,"Delta":361164412},{"NoteNumber":43,"Velocity":49,"Duration":81133,"SoundDuration":81133,"Delta":361164412},{"NoteNumber":55,"Velocity":58,"Duration":81133,"SoundDuration":81133,"Delta":361164412},{"NoteNumber":76,"Velocity":72,"Duration":84350,"SoundDuration":84350,"Delta":361326680},{"NoteNumber":72,"Velocity":61,"Duration":84350,"SoundDuration":84350,"Delta":361326680},{"NoteNumber":64,"Velocity":61,"Duration":84350,"SoundDuration":84350,"Delta":361326680},{"NoteNumber":57,"Velocity":54,"Duration":84350,"SoundDuration":84350,"Delta":361326680},{"NoteNumber":45,"Velocity":45,"Duration":84350,"SoundDuration":84350,"Delta":361326680},{"NoteNumber":35,"Velocity":62,"Duration":42175,"SoundDuration":42175,"Delta":361411030},{"NoteNumber":47,"Velocity":63,"Duration":42175,"SoundDuration":42175,"Delta":361453205},{"NoteNumber":92,"Velocity":90,"Duration":392211,"SoundDuration":392211,"Delta":361495380},{"NoteNumber":88,"Velocity":76,"Duration":392211,"SoundDuration":392211,"Delta":361495380},{"NoteNumber":80,"Velocity":76,"Duration":392211,"SoundDuration":392211,"Delta":361495380},{"NoteNumber":71,"Velocity":70,"Duration":392211,"SoundDuration":392211,"Delta":361495380},{"NoteNumber":64,"Velocity":59,"Duration":392211,"SoundDuration":392211,"Delta":361495380},{"NoteNumber":59,"Velocity":59,"Duration":392211,"SoundDuration":392211,"Delta":361495380},{"NoteNumber":68,"Velocity":70,"Duration":392211,"SoundDuration":392211,"Delta":361495380},{"NoteNumber":79,"Velocity":76,"Duration":392211,"SoundDuration":392211,"Delta":361908234},{"NoteNumber":88,"Velocity":76,"Duration":392211,"SoundDuration":392211,"Delta":361908234},{"NoteNumber":91,"Velocity":90,"Duration":392211,"SoundDuration":392211,"Delta":361908234},{"NoteNumber":64,"Velocity":59,"Duration":392211,"SoundDuration":392211,"Delta":361908234},{"NoteNumber":59,"Velocity":59,"Duration":392211,"SoundDuration":392211,"Delta":361908234},{"NoteNumber":71,"Velocity":70,"Duration":392211,"SoundDuration":392211,"Delta":361908234},{"NoteNumber":67,"Velocity":59,"Duration":392211,"SoundDuration":392211,"Delta":361908234},{"NoteNumber":87,"Velocity":76,"Duration":392211,"SoundDuration":392211,"Delta":362321088},{"NoteNumber":90,"Velocity":90,"Duration":392211,"SoundDuration":392211,"Delta":362321088},{"NoteNumber":78,"Velocity":76,"Duration":392211,"SoundDuration":392211,"Delta":362321088},{"NoteNumber":71,"Velocity":70,"Duration":392211,"SoundDuration":392211,"Delta":362321088},{"NoteNumber":66,"Velocity":59,"Duration":392211,"SoundDuration":392211,"Delta":362321088},{"NoteNumber":59,"Velocity":59,"Duration":392211,"SoundDuration":392211,"Delta":362321088},{"NoteNumber":63,"Velocity":59,"Duration":392211,"SoundDuration":392211,"Delta":362321088},{"NoteNumber":77,"Velocity":76,"Duration":392211,"SoundDuration":392211,"Delta":362733942},{"NoteNumber":89,"Velocity":90,"Duration":392211,"SoundDuration":392211,"Delta":362733942},{"NoteNumber":86,"Velocity":76,"Duration":392211,"SoundDuration":392211,"Delta":362733942},{"NoteNumber":62,"Velocity":59,"Duration":392211,"SoundDuration":392211,"Delta":362733942},{"NoteNumber":65,"Velocity":70,"Duration":392211,"SoundDuration":392211,"Delta":362733942},{"NoteNumber":59,"Velocity":59,"Duration":392211,"SoundDuration":392211,"Delta":362733942},{"NoteNumber":71,"Velocity":70,"Duration":392211,"SoundDuration":392211,"Delta":362733942},{"NoteNumber":85,"Velocity":75,"Duration":392211,"SoundDuration":392211,"Delta":363146796},{"NoteNumber":88,"Velocity":89,"Duration":392211,"SoundDuration":392211,"Delta":363146796},{"NoteNumber":76,"Velocity":75,"Duration":392211,"SoundDuration":392211,"Delta":363146796},{"NoteNumber":61,"Velocity":58,"Duration":392211,"SoundDuration":392211,"Delta":363146796},{"NoteNumber":64,"Velocity":58,"Duration":392211,"SoundDuration":392211,"Delta":363146796},{"NoteNumber":59,"Velocity":58,"Duration":392211,"SoundDuration":392211,"Delta":363146796},{"NoteNumber":71,"Velocity":69,"Duration":392211,"SoundDuration":392211,"Delta":363146796},{"NoteNumber":87,"Velocity":87,"Duration":392211,"SoundDuration":392211,"Delta":363559650},{"NoteNumber":75,"Velocity":73,"Duration":392211,"SoundDuration":392211,"Delta":363559650},{"NoteNumber":84,"Velocity":73,"Duration":392211,"SoundDuration":392211,"Delta":363559650},{"NoteNumber":59,"Velocity":57,"Duration":392211,"SoundDuration":392211,"Delta":363559650},{"NoteNumber":63,"Velocity":57,"Duration":392211,"SoundDuration":392211,"Delta":363559650},{"NoteNumber":60,"Velocity":57,"Duration":392211,"SoundDuration":392211,"Delta":363559650},{"NoteNumber":71,"Velocity":67,"Duration":392211,"SoundDuration":392211,"Delta":363559650},{"NoteNumber":86,"Velocity":85,"Duration":406185,"SoundDuration":406185,"Delta":363972504},{"NoteNumber":74,"Velocity":72,"Duration":406185,"SoundDuration":406185,"Delta":363972504},{"NoteNumber":83,"Velocity":72,"Duration":406185,"SoundDuration":406185,"Delta":363972504},{"NoteNumber":62,"Velocity":56,"Duration":406185,"SoundDuration":406185,"Delta":363972504},{"NoteNumber":71,"Velocity":66,"Duration":406185,"SoundDuration":406185,"Delta":363972504},{"NoteNumber":59,"Velocity":56,"Duration":406185,"SoundDuration":406185,"Delta":363972504},{"NoteNumber":73,"Velocity":71,"Duration":406185,"SoundDuration":406185,"Delta":364400068},{"NoteNumber":85,"Velocity":84,"Duration":406185,"SoundDuration":406185,"Delta":364400068},{"NoteNumber":82,"Velocity":71,"Duration":406185,"SoundDuration":406185,"Delta":364400068},{"NoteNumber":61,"Velocity":55,"Duration":406185,"SoundDuration":406185,"Delta":364400068},{"NoteNumber":71,"Velocity":65,"Duration":406185,"SoundDuration":406185,"Delta":364400068},{"NoteNumber":58,"Velocity":55,"Duration":406185,"SoundDuration":406185,"Delta":364400068},{"NoteNumber":84,"Velocity":82,"Duration":406185,"SoundDuration":406185,"Delta":364827632},{"NoteNumber":81,"Velocity":69,"Duration":406185,"SoundDuration":406185,"Delta":364827632},{"NoteNumber":72,"Velocity":69,"Duration":406185,"SoundDuration":406185,"Delta":364827632},{"NoteNumber":71,"Velocity":64,"Duration":406185,"SoundDuration":406185,"Delta":364827632},{"NoteNumber":57,"Velocity":54,"Duration":406185,"SoundDuration":406185,"Delta":364827632},{"NoteNumber":60,"Velocity":54,"Duration":406185,"SoundDuration":406185,"Delta":364827632},{"NoteNumber":71,"Velocity":68,"Duration":429119,"SoundDuration":429119,"Delta":365255196},{"NoteNumber":80,"Velocity":68,"Duration":429119,"SoundDuration":429119,"Delta":365255196},{"NoteNumber":83,"Velocity":81,"Duration":429119,"SoundDuration":429119,"Delta":365255196},{"NoteNumber":56,"Velocity":53,"Duration":429119,"SoundDuration":429119,"Delta":365255196},{"NoteNumber":68,"Velocity":63,"Duration":429119,"SoundDuration":429119,"Delta":365255196},{"NoteNumber":59,"Velocity":53,"Duration":429119,"SoundDuration":429119,"Delta":365255196},{"NoteNumber":79,"Velocity":67,"Duration":372465,"SoundDuration":372465,"Delta":365706901},{"NoteNumber":83,"Velocity":80,"Duration":372465,"SoundDuration":372465,"Delta":365706901},{"NoteNumber":71,"Velocity":67,"Duration":372465,"SoundDuration":372465,"Delta":365706901},{"NoteNumber":55,"Velocity":52,"Duration":372465,"SoundDuration":372465,"Delta":365706901},{"NoteNumber":59,"Velocity":52,"Duration":372465,"SoundDuration":372465,"Delta":365706901},{"NoteNumber":67,"Velocity":62,"Duration":372465,"SoundDuration":372465,"Delta":365706901},{"NoteNumber":47,"Velocity":51,"Duration":579478,"SoundDuration":579478,"Delta":366103791},{"NoteNumber":54,"Velocity":51,"Duration":548948,"SoundDuration":548948,"Delta":366134321},{"NoteNumber":57,"Velocity":51,"Duration":518418,"SoundDuration":518418,"Delta":366164851},{"NoteNumber":83,"Velocity":78,"Duration":487888,"SoundDuration":487888,"Delta":366195381},{"NoteNumber":75,"Velocity":66,"Duration":487888,"SoundDuration":487888,"Delta":366195381},{"NoteNumber":71,"Velocity":66,"Duration":487888,"SoundDuration":487888,"Delta":366195381},{"NoteNumber":78,"Velocity":66,"Duration":487888,"SoundDuration":487888,"Delta":366195381},{"NoteNumber":66,"Velocity":60,"Duration":487888,"SoundDuration":487888,"Delta":366195381},{"NoteNumber":64,"Velocity":59,"Duration":80645,"SoundDuration":80645,"Delta":366708948},{"NoteNumber":76,"Velocity":70,"Duration":80645,"SoundDuration":80645,"Delta":366708948},{"NoteNumber":52,"Velocity":67,"Duration":80645,"SoundDuration":80645,"Delta":366708948},{"NoteNumber":40,"Velocity":67,"Duration":80645,"SoundDuration":80645,"Delta":366708948},{"NoteNumber":74,"Velocity":62,"Duration":86291,"SoundDuration":86291,"Delta":366870239},{"NoteNumber":71,"Velocity":52,"Duration":86291,"SoundDuration":86291,"Delta":366870239},{"NoteNumber":50,"Velocity":48,"Duration":86291,"SoundDuration":86291,"Delta":366870239},{"NoteNumber":47,"Velocity":40,"Duration":86291,"SoundDuration":86291,"Delta":366870239},{"NoteNumber":76,"Velocity":70,"Duration":81521,"SoundDuration":81521,"Delta":367042821},{"NoteNumber":64,"Velocity":55,"Duration":81521,"SoundDuration":81521,"Delta":367042821},{"NoteNumber":52,"Velocity":58,"Duration":81521,"SoundDuration":81521,"Delta":367042821},{"NoteNumber":40,"Velocity":49,"Duration":81521,"SoundDuration":81521,"Delta":367042821},{"NoteNumber":69,"Velocity":53,"Duration":86291,"SoundDuration":86291,"Delta":367205865},{"NoteNumber":72,"Velocity":63,"Duration":86291,"SoundDuration":86291,"Delta":367205865},{"NoteNumber":45,"Velocity":39,"Duration":86291,"SoundDuration":86291,"Delta":367205865},{"NoteNumber":48,"Velocity":47,"Duration":86291,"SoundDuration":86291,"Delta":367205865},{"NoteNumber":76,"Velocity":70,"Duration":82191,"SoundDuration":82191,"Delta":367378447},{"NoteNumber":64,"Velocity":59,"Duration":82191,"SoundDuration":82191,"Delta":367378447},{"NoteNumber":52,"Velocity":53,"Duration":82191,"SoundDuration":82191,"Delta":367378447},{"NoteNumber":40,"Velocity":45,"Duration":82191,"SoundDuration":82191,"Delta":367378447},{"NoteNumber":71,"Velocity":64,"Duration":86291,"SoundDuration":86291,"Delta":367542831},{"NoteNumber":67,"Velocity":54,"Duration":86291,"SoundDuration":86291,"Delta":367542831},{"NoteNumber":47,"Velocity":48,"Duration":86291,"SoundDuration":86291,"Delta":367542831},{"NoteNumber":43,"Velocity":40,"Duration":86291,"SoundDuration":86291,"Delta":367542831},{"NoteNumber":64,"Velocity":59,"Duration":81743,"SoundDuration":81743,"Delta":367715413},{"NoteNumber":76,"Velocity":70,"Duration":81743,"SoundDuration":81743,"Delta":367715413},{"NoteNumber":52,"Velocity":67,"Duration":81743,"SoundDuration":81743,"Delta":367715413},{"NoteNumber":40,"Velocity":67,"Duration":81743,"SoundDuration":81743,"Delta":367715413},{"NoteNumber":69,"Velocity":62,"Duration":85797,"SoundDuration":85797,"Delta":367878901},{"NoteNumber":66,"Velocity":52,"Duration":85797,"SoundDuration":85797,"Delta":367878901},{"NoteNumber":42,"Velocity":40,"Duration":85797,"SoundDuration":85797,"Delta":367878901},{"NoteNumber":45,"Velocity":48,"Duration":85797,"SoundDuration":85797,"Delta":367883906},{"NoteNumber":76,"Velocity":70,"Duration":81967,"SoundDuration":81967,"Delta":368050496},{"NoteNumber":64,"Velocity":55,"Duration":81967,"SoundDuration":81967,"Delta":368050496},{"NoteNumber":52,"Velocity":58,"Duration":81967,"SoundDuration":81967,"Delta":368050496},{"NoteNumber":40,"Velocity":49,"Duration":81967,"SoundDuration":81967,"Delta":368050496},{"NoteNumber":67,"Velocity":63,"Duration":85797,"SoundDuration":85797,"Delta":368214431},{"NoteNumber":43,"Velocity":47,"Duration":85797,"SoundDuration":85797,"Delta":368214431},{"NoteNumber":76,"Velocity":70,"Duration":82191,"SoundDuration":82191,"Delta":368386026},{"NoteNumber":64,"Velocity":59,"Duration":82191,"SoundDuration":82191,"Delta":368386026},{"NoteNumber":52,"Velocity":53,"Duration":82191,"SoundDuration":82191,"Delta":368386026},{"NoteNumber":62,"Velocity":54,"Duration":85553,"SoundDuration":85553,"Delta":368550410},{"NoteNumber":66,"Velocity":64,"Duration":85553,"SoundDuration":85553,"Delta":368550410},{"NoteNumber":42,"Velocity":48,"Duration":85553,"SoundDuration":85553,"Delta":368550410},{"NoteNumber":38,"Velocity":40,"Duration":85553,"SoundDuration":85553,"Delta":368550410},{"NoteNumber":64,"Velocity":59,"Duration":82950,"SoundDuration":82950,"Delta":368721516},{"NoteNumber":76,"Velocity":70,"Duration":82950,"SoundDuration":82950,"Delta":368721516},{"NoteNumber":52,"Velocity":67,"Duration":82950,"SoundDuration":82950,"Delta":368721516},{"NoteNumber":64,"Velocity":61,"Duration":87550,"SoundDuration":87550,"Delta":368887417},{"NoteNumber":60,"Velocity":51,"Duration":87550,"SoundDuration":87550,"Delta":368887417},{"NoteNumber":36,"Velocity":39,"Duration":87550,"SoundDuration":87550,"Delta":368887417},{"NoteNumber":40,"Velocity":47,"Duration":87550,"SoundDuration":87550,"Delta":368887417},{"NoteNumber":76,"Velocity":68,"Duration":83412,"SoundDuration":83412,"Delta":369062518},{"NoteNumber":64,"Velocity":53,"Duration":83412,"SoundDuration":83412,"Delta":369062518},{"NoteNumber":40,"Velocity":56,"Duration":83412,"SoundDuration":83412,"Delta":369062518},{"NoteNumber":62,"Velocity":61,"Duration":87806,"SoundDuration":87806,"Delta":369229342},{"NoteNumber":59,"Velocity":51,"Duration":87806,"SoundDuration":87806,"Delta":369229342},{"NoteNumber":35,"Velocity":37,"Duration":87806,"SoundDuration":87806,"Delta":369229342},{"NoteNumber":38,"Velocity":45,"Duration":87806,"SoundDuration":87806,"Delta":369229342},{"NoteNumber":76,"Velocity":66,"Duration":83412,"SoundDuration":83412,"Delta":369404955},{"NoteNumber":64,"Velocity":56,"Duration":83412,"SoundDuration":83412,"Delta":369404955},{"NoteNumber":40,"Velocity":50,"Duration":83412,"SoundDuration":83412,"Delta":369404955},{"NoteNumber":57,"Velocity":50,"Duration":87550,"SoundDuration":87550,"Delta":369571779},{"NoteNumber":60,"Velocity":60,"Duration":87550,"SoundDuration":87550,"Delta":369571779},{"NoteNumber":36,"Velocity":45,"Duration":87550,"SoundDuration":87550,"Delta":369571779},{"NoteNumber":33,"Velocity":37,"Duration":87550,"SoundDuration":87550,"Delta":369571779},{"NoteNumber":64,"Velocity":54,"Duration":86540,"SoundDuration":86540,"Delta":369746879},{"NoteNumber":76,"Velocity":65,"Duration":86540,"SoundDuration":86540,"Delta":369746879},{"NoteNumber":40,"Velocity":62,"Duration":86540,"SoundDuration":86540,"Delta":369746879},{"NoteNumber":59,"Velocity":57,"Duration":93266,"SoundDuration":93266,"Delta":369919960},{"NoteNumber":55,"Velocity":47,"Duration":93266,"SoundDuration":93266,"Delta":369919960},{"NoteNumber":31,"Velocity":36,"Duration":93266,"SoundDuration":93266,"Delta":369919960},{"NoteNumber":35,"Velocity":44,"Duration":93266,"SoundDuration":93266,"Delta":369919960},{"NoteNumber":64,"Velocity":49,"Duration":89912,"SoundDuration":89912,"Delta":370106492},{"NoteNumber":76,"Velocity":63,"Duration":89912,"SoundDuration":89912,"Delta":370106492},{"NoteNumber":40,"Velocity":52,"Duration":89912,"SoundDuration":89912,"Delta":370106492},{"NoteNumber":54,"Velocity":47,"Duration":96568,"SoundDuration":96568,"Delta":370286316},{"NoteNumber":57,"Velocity":56,"Duration":96568,"SoundDuration":96568,"Delta":370286316},{"NoteNumber":30,"Velocity":34,"Duration":96568,"SoundDuration":96568,"Delta":370286316},{"NoteNumber":33,"Velocity":41,"Duration":96568,"SoundDuration":96568,"Delta":370286316},{"NoteNumber":76,"Velocity":61,"Duration":93266,"SoundDuration":93266,"Delta":370479453},{"NoteNumber":64,"Velocity":51,"Duration":93266,"SoundDuration":93266,"Delta":370479453},{"NoteNumber":40,"Velocity":46,"Duration":93266,"SoundDuration":93266,"Delta":370479453},{"NoteNumber":57,"Velocity":55,"Duration":99121,"SoundDuration":99121,"Delta":370665986},{"NoteNumber":53,"Velocity":46,"Duration":99121,"SoundDuration":99121,"Delta":370665986},{"NoteNumber":29,"Velocity":34,"Duration":99121,"SoundDuration":99121,"Delta":370665986},{"NoteNumber":33,"Velocity":41,"Duration":99121,"SoundDuration":99121,"Delta":370665986},{"NoteNumber":55,"Velocity":61,"Duration":87904,"SoundDuration":87904,"Delta":370864228},{"NoteNumber":52,"Velocity":51,"Duration":87904,"SoundDuration":87904,"Delta":370864228},{"NoteNumber":28,"Velocity":37,"Duration":87904,"SoundDuration":87904,"Delta":370864228},{"NoteNumber":40,"Velocity":44,"Duration":87904,"SoundDuration":87904,"Delta":370864228},{"NoteNumber":52,"Velocity":51,"Duration":87904,"SoundDuration":87904,"Delta":371040037},{"NoteNumber":55,"Velocity":61,"Duration":87904,"SoundDuration":87904,"Delta":371040037},{"NoteNumber":28,"Velocity":37,"Duration":87904,"SoundDuration":87904,"Delta":371040037},{"NoteNumber":40,"Velocity":44,"Duration":87904,"SoundDuration":87904,"Delta":371040037},{"NoteNumber":52,"Velocity":51,"Duration":92798,"SoundDuration":92798,"Delta":371215845},{"NoteNumber":55,"Velocity":61,"Duration":92798,"SoundDuration":92798,"Delta":371215845},{"NoteNumber":40,"Velocity":44,"Duration":92798,"SoundDuration":92798,"Delta":371215845},{"NoteNumber":28,"Velocity":37,"Duration":92798,"SoundDuration":92798,"Delta":371215845},{"NoteNumber":57,"Velocity":67,"Duration":543346,"SoundDuration":543346,"Delta":371401443},{"NoteNumber":53,"Velocity":56,"Duration":543346,"SoundDuration":543346,"Delta":371401443},{"NoteNumber":45,"Velocity":44,"Duration":543346,"SoundDuration":543346,"Delta":371401443},{"NoteNumber":48,"Velocity":52,"Duration":543346,"SoundDuration":543346,"Delta":371401443},{"NoteNumber":52,"Velocity":51,"Duration":88162,"SoundDuration":88162,"Delta":371944789},{"NoteNumber":55,"Velocity":61,"Duration":88162,"SoundDuration":88162,"Delta":371944789},{"NoteNumber":28,"Velocity":37,"Duration":88162,"SoundDuration":88162,"Delta":371944789},{"NoteNumber":40,"Velocity":44,"Duration":88162,"SoundDuration":88162,"Delta":371944789},{"NoteNumber":52,"Velocity":51,"Duration":88162,"SoundDuration":88162,"Delta":372121115},{"NoteNumber":55,"Velocity":61,"Duration":88162,"SoundDuration":88162,"Delta":372121115},{"NoteNumber":40,"Velocity":44,"Duration":88162,"SoundDuration":88162,"Delta":372121115},{"NoteNumber":28,"Velocity":37,"Duration":88162,"SoundDuration":88162,"Delta":372121115},{"NoteNumber":55,"Velocity":61,"Duration":93961,"SoundDuration":93961,"Delta":372297440},{"NoteNumber":52,"Velocity":51,"Duration":93961,"SoundDuration":93961,"Delta":372297440},{"NoteNumber":40,"Velocity":44,"Duration":93961,"SoundDuration":93961,"Delta":372297440},{"NoteNumber":28,"Velocity":37,"Duration":93961,"SoundDuration":93961,"Delta":372297440},{"NoteNumber":60,"Velocity":61,"Duration":541711,"SoundDuration":541711,"Delta":372485363},{"NoteNumber":69,"Velocity":61,"Duration":541711,"SoundDuration":541711,"Delta":372485363},{"NoteNumber":57,"Velocity":61,"Duration":541711,"SoundDuration":541711,"Delta":372485363},{"NoteNumber":53,"Velocity":57,"Duration":541711,"SoundDuration":541711,"Delta":372485363},{"NoteNumber":45,"Velocity":48,"Duration":541711,"SoundDuration":541711,"Delta":372485363},{"NoteNumber":55,"Velocity":61,"Duration":92798,"SoundDuration":92798,"Delta":373027075},{"NoteNumber":52,"Velocity":51,"Duration":92798,"SoundDuration":92798,"Delta":373027075},{"NoteNumber":28,"Velocity":37,"Duration":92798,"SoundDuration":92798,"Delta":373027075},{"NoteNumber":40,"Velocity":44,"Duration":92798,"SoundDuration":92798,"Delta":373027075},{"NoteNumber":52,"Velocity":51,"Duration":92798,"SoundDuration":92798,"Delta":373212672},{"NoteNumber":55,"Velocity":61,"Duration":92798,"SoundDuration":92798,"Delta":373212672},{"NoteNumber":28,"Velocity":37,"Duration":92798,"SoundDuration":92798,"Delta":373212672},{"NoteNumber":40,"Velocity":44,"Duration":92798,"SoundDuration":92798,"Delta":373212672},{"NoteNumber":52,"Velocity":51,"Duration":123456,"SoundDuration":123456,"Delta":373398270},{"NoteNumber":55,"Velocity":61,"Duration":123456,"SoundDuration":123456,"Delta":373398270},{"NoteNumber":28,"Velocity":37,"Duration":123456,"SoundDuration":123456,"Delta":373398270},{"NoteNumber":40,"Velocity":44,"Duration":123456,"SoundDuration":123456,"Delta":373398270},{"NoteNumber":72,"Velocity":77,"Duration":726655,"SoundDuration":726655,"Delta":373645183},{"NoteNumber":76,"Velocity":77,"Duration":726655,"SoundDuration":726655,"Delta":373645183},{"NoteNumber":79,"Velocity":77,"Duration":726655,"SoundDuration":726655,"Delta":373645183},{"NoteNumber":84,"Velocity":99,"Duration":726655,"SoundDuration":726655,"Delta":373645183},{"NoteNumber":52,"Velocity":60,"Duration":726655,"SoundDuration":726655,"Delta":373645183},{"NoteNumber":55,"Velocity":60,"Duration":726655,"SoundDuration":726655,"Delta":373645183},{"NoteNumber":46,"Velocity":60,"Duration":726655,"SoundDuration":726655,"Delta":373645183},{"NoteNumber":60,"Velocity":71,"Duration":726655,"SoundDuration":726655,"Delta":373645183},{"NoteNumber":52,"Velocity":79,"Duration":90831,"SoundDuration":90831,"Delta":374735167},{"NoteNumber":55,"Velocity":95,"Duration":90831,"SoundDuration":90831,"Delta":374735167},{"NoteNumber":40,"Velocity":69,"Duration":90831,"SoundDuration":90831,"Delta":374735167},{"NoteNumber":28,"Velocity":57,"Duration":90831,"SoundDuration":90831,"Delta":374735167},{"NoteNumber":55,"Velocity":95,"Duration":90831,"SoundDuration":90831,"Delta":375280159},{"NoteNumber":52,"Velocity":79,"Duration":90831,"SoundDuration":90831,"Delta":375280159},{"NoteNumber":28,"Velocity":57,"Duration":90831,"SoundDuration":90831,"Delta":375280159},{"NoteNumber":40,"Velocity":69,"Duration":90831,"SoundDuration":90831,"Delta":375280159},{"NoteNumber":52,"Velocity":79,"Duration":93304,"SoundDuration":93304,"Delta":375819853},{"NoteNumber":55,"Velocity":95,"Duration":93304,"SoundDuration":93304,"Delta":375819853},{"NoteNumber":40,"Velocity":69,"Duration":93304,"SoundDuration":93304,"Delta":375819853},{"NoteNumber":28,"Velocity":57,"Duration":93304,"SoundDuration":93304,"Delta":375819853},{"NoteNumber":89,"Velocity":84,"Duration":1263566,"SoundDuration":1263566,"Delta":376385899},{"NoteNumber":101,"Velocity":101,"Duration":1263566,"SoundDuration":1263566,"Delta":376385899},{"NoteNumber":96,"Velocity":84,"Duration":1263566,"SoundDuration":1263566,"Delta":376385899},{"NoteNumber":93,"Velocity":84,"Duration":1263566,"SoundDuration":1263566,"Delta":376385899},{"NoteNumber":48,"Velocity":64,"Duration":1263566,"SoundDuration":1263566,"Delta":376385899},{"NoteNumber":60,"Velocity":77,"Duration":1263566,"SoundDuration":1263566,"Delta":376385899},{"NoteNumber":53,"Velocity":64,"Duration":1263566,"SoundDuration":1263566,"Delta":376385899},{"NoteNumber":45,"Velocity":64,"Duration":1263566,"SoundDuration":1263566,"Delta":376385899},{"NoteNumber":72,"Velocity":70,"Duration":87976,"SoundDuration":87976,"Delta":377649466},{"NoteNumber":60,"Velocity":59,"Duration":87976,"SoundDuration":87976,"Delta":377649466},{"NoteNumber":96,"Velocity":70,"Duration":87976,"SoundDuration":87976,"Delta":377737443},{"NoteNumber":84,"Velocity":59,"Duration":87976,"SoundDuration":87976,"Delta":377737443},{"NoteNumber":57,"Velocity":54,"Duration":87976,"SoundDuration":87976,"Delta":377825419},{"NoteNumber":69,"Velocity":64,"Duration":87976,"SoundDuration":87976,"Delta":377825419},{"NoteNumber":93,"Velocity":71,"Duration":87976,"SoundDuration":87976,"Delta":377913396},{"NoteNumber":81,"Velocity":60,"Duration":87976,"SoundDuration":87976,"Delta":377913396},{"NoteNumber":65,"Velocity":72,"Duration":87976,"SoundDuration":87976,"Delta":378001372},{"NoteNumber":53,"Velocity":60,"Duration":87976,"SoundDuration":87976,"Delta":378001372},{"NoteNumber":77,"Velocity":61,"Duration":87976,"SoundDuration":87976,"Delta":378089349},{"NoteNumber":89,"Velocity":72,"Duration":87976,"SoundDuration":87976,"Delta":378089349},{"NoteNumber":48,"Velocity":57,"Duration":87976,"SoundDuration":87976,"Delta":378177325},{"NoteNumber":60,"Velocity":68,"Duration":87976,"SoundDuration":87976,"Delta":378177325},{"NoteNumber":84,"Velocity":69,"Duration":87976,"SoundDuration":87976,"Delta":378265302},{"NoteNumber":72,"Velocity":58,"Duration":87976,"SoundDuration":87976,"Delta":378265302},{"NoteNumber":57,"Velocity":70,"Duration":87976,"SoundDuration":87976,"Delta":378353278},{"NoteNumber":45,"Velocity":59,"Duration":87976,"SoundDuration":87976,"Delta":378353278},{"NoteNumber":81,"Velocity":70,"Duration":87976,"SoundDuration":87976,"Delta":378441255},{"NoteNumber":69,"Velocity":59,"Duration":87976,"SoundDuration":87976,"Delta":378441255},{"NoteNumber":41,"Velocity":64,"Duration":87976,"SoundDuration":87976,"Delta":378529231},{"NoteNumber":53,"Velocity":77,"Duration":87976,"SoundDuration":87976,"Delta":378529231},{"NoteNumber":65,"Velocity":65,"Duration":87976,"SoundDuration":87976,"Delta":378617208},{"NoteNumber":77,"Velocity":77,"Duration":87976,"SoundDuration":87976,"Delta":378617208},{"NoteNumber":36,"Velocity":59,"Duration":87976,"SoundDuration":87976,"Delta":378705184},{"NoteNumber":48,"Velocity":71,"Duration":87976,"SoundDuration":87976,"Delta":378705184},{"NoteNumber":60,"Velocity":62,"Duration":87976,"SoundDuration":87976,"Delta":378793161},{"NoteNumber":72,"Velocity":74,"Duration":87976,"SoundDuration":87976,"Delta":378793161},{"NoteNumber":45,"Velocity":72,"Duration":87976,"SoundDuration":87976,"Delta":378881137},{"NoteNumber":33,"Velocity":60,"Duration":87976,"SoundDuration":87976,"Delta":378881137},{"NoteNumber":57,"Velocity":63,"Duration":87976,"SoundDuration":87976,"Delta":378969114},{"NoteNumber":69,"Velocity":75,"Duration":87976,"SoundDuration":87976,"Delta":378969114},{"NoteNumber":41,"Velocity":81,"Duration":87976,"SoundDuration":87976,"Delta":379057090},{"NoteNumber":29,"Velocity":69,"Duration":87976,"SoundDuration":87976,"Delta":379057090},{"NoteNumber":65,"Velocity":83,"Duration":87976,"SoundDuration":87976,"Delta":379145067},{"NoteNumber":53,"Velocity":70,"Duration":87976,"SoundDuration":87976,"Delta":379145067},{"NoteNumber":36,"Velocity":75,"Duration":87976,"SoundDuration":87976,"Delta":379233043},{"NoteNumber":24,"Velocity":63,"Duration":87976,"SoundDuration":87976,"Delta":379233043},{"NoteNumber":48,"Velocity":65,"Duration":87976,"SoundDuration":87976,"Delta":379321020},{"NoteNumber":60,"Velocity":77,"Duration":87976,"SoundDuration":87976,"Delta":379321020},{"NoteNumber":26,"Velocity":65,"Duration":91463,"SoundDuration":91463,"Delta":379408996},{"NoteNumber":38,"Velocity":78,"Duration":91463,"SoundDuration":91463,"Delta":379408996},{"NoteNumber":50,"Velocity":66,"Duration":102040,"SoundDuration":102040,"Delta":379500460},{"NoteNumber":62,"Velocity":78,"Duration":102040,"SoundDuration":102040,"Delta":379500460},{"NoteNumber":48,"Velocity":68,"Duration":88757,"SoundDuration":88757,"Delta":379602500},{"NoteNumber":55,"Velocity":68,"Duration":88757,"SoundDuration":88757,"Delta":379602500},{"NoteNumber":60,"Velocity":80,"Duration":88757,"SoundDuration":88757,"Delta":379602500},{"NoteNumber":52,"Velocity":68,"Duration":88757,"SoundDuration":88757,"Delta":379602500},{"NoteNumber":24,"Velocity":66,"Duration":88757,"SoundDuration":88757,"Delta":379602500},{"NoteNumber":36,"Velocity":78,"Duration":88757,"SoundDuration":88757,"Delta":379602500},{"NoteNumber":55,"Velocity":68,"Duration":88757,"SoundDuration":88757,"Delta":380667590},{"NoteNumber":52,"Velocity":68,"Duration":88757,"SoundDuration":88757,"Delta":380667590},{"NoteNumber":60,"Velocity":80,"Duration":88757,"SoundDuration":88757,"Delta":380667590},{"NoteNumber":48,"Velocity":68,"Duration":88757,"SoundDuration":88757,"Delta":380667590},{"NoteNumber":36,"Velocity":78,"Duration":88757,"SoundDuration":88757,"Delta":380667590},{"NoteNumber":24,"Velocity":66,"Duration":88757,"SoundDuration":88757,"Delta":380667590},{"NoteNumber":52,"Velocity":68,"Duration":88757,"SoundDuration":88757,"Delta":381732680},{"NoteNumber":55,"Velocity":68,"Duration":88757,"SoundDuration":88757,"Delta":381732680},{"NoteNumber":60,"Velocity":80,"Duration":88757,"SoundDuration":88757,"Delta":381732680},{"NoteNumber":48,"Velocity":68,"Duration":88757,"SoundDuration":88757,"Delta":381732680},{"NoteNumber":24,"Velocity":66,"Duration":88757,"SoundDuration":88757,"Delta":381732680},{"NoteNumber":36,"Velocity":78,"Duration":88757,"SoundDuration":88757,"Delta":381732680}],"license":{"name":"Creative Commons Attribution-ShareAlike 3.0 Germany","url":"http://creativecommons.org/licenses/by-sa/3.0/de/deed.en","text":"The MIDI, audio (MP3, OGG) and video files of Bernd Krueger are licensed under the cc-by-sa Germany License. This means that you can use and adapt the files, as long as you attribute the copyright holder.\n\nName: Bernd Krueger\nSource: http://www.piano-midi.de\n\nThe distribution or public playback of the files is only allowed under identical license conditions.\n\nThe scores are open source.","attribution":"MIDI files by Bernd Krueger (piano-midi.de)"}}