{"title":"Schwarze-Tasten-Etüde","artist":"Piano","durationMs":91374,"midiSha256":"0b4a985a0cc3adcc587f8836e73f298076c508ec49dda6fa662feb5f8e3086d3","midiObject":[{"NoteNumber":90,"Velocity":99,"Duration":86206,"SoundDuration":86206,"Delta":0},{"NoteNumber":54,"Velocity":75,"Duration":96982,"SoundDuration":96982,"Delta":0},{"NoteNumber":61,"Velocity":75,"Duration":96982,"SoundDuration":96982,"Delta":0},{"NoteNumber":58,"Velocity":75,"Duration":96982,"SoundDuration":96982,"Delta":0},{"NoteNumber":66,"Velocity":89,"Duration":96982,"SoundDuration":96982,"Delta":0},{"NoteNumber":94,"Velocity":76,"Duration":86206,"SoundDuration":86206,"Delta":85129},{"NoteNumber":85,"Velocity":69,"Duration":86206,"SoundDuration":86206,"Delta":171336},{"NoteNumber":90,"Velocity":93,"Duration":86206,"SoundDuration":86206,"Delta":257543},{"NoteNumber":54,"Velocity":71,"Duration":96982,"SoundDuration":96982,"Delta":257543},{"NoteNumber":63,"Velocity":71,"Duration":96982,"SoundDuration":96982,"Delta":257543},{"NoteNumber":59,"Velocity":71,"Duration":96982,"SoundDuration":96982,"Delta":257543},{"NoteNumber":66,"Velocity":84,"Duration":96982,"SoundDuration":96982,"Delta":257543},{"NoteNumber":87,"Velocity":79,"Duration":86206,"SoundDuration":86206,"Delta":343750},{"NoteNumber":90,"Velocity":73,"Duration":86206,"SoundDuration":86206,"Delta":429957},{"NoteNumber":85,"Velocity":92,"Duration":86206,"SoundDuration":86206,"Delta":516164},{"NoteNumber":54,"Velocity":75,"Duration":96982,"SoundDuration":96982,"Delta":516164},{"NoteNumber":61,"Velocity":75,"Duration":96982,"SoundDuration":96982,"Delta":516164},{"NoteNumber":58,"Velocity":75,"Duration":96982,"SoundDuration":96982,"Delta":516164},{"NoteNumber":66,"Velocity":89,"Duration":96982,"SoundDuration":96982,"Delta":516164},{"NoteNumber":90,"Velocity":78,"Duration":86206,"SoundDuration":86206,"Delta":602370},{"NoteNumber":82,"Velocity":71,"Duration":86206,"SoundDuration":86206,"Delta":688577},{"NoteNumber":85,"Velocity":84,"Duration":86206,"SoundDuration":86206,"Delta":774784},{"NoteNumber":78,"Velocity":72,"Duration":86206,"SoundDuration":86206,"Delta":860991},{"NoteNumber":82,"Velocity":68,"Duration":86206,"SoundDuration":86206,"Delta":947198},{"NoteNumber":78,"Velocity":74,"Duration":86206,"SoundDuration":86206,"Delta":1033405},{"NoteNumber":42,"Velocity":48,"Duration":96982,"SoundDuration":96982,"Delta":1033405},{"NoteNumber":54,"Velocity":57,"Duration":96982,"SoundDuration":96982,"Delta":1033405},{"NoteNumber":82,"Velocity":64,"Duration":86206,"SoundDuration":86206,"Delta":1119611},{"NoteNumber":73,"Velocity":58,"Duration":86206,"SoundDuration":86206,"Delta":1205818},{"NoteNumber":78,"Velocity":71,"Duration":86206,"SoundDuration":86206,"Delta":1292025},{"NoteNumber":66,"Velocity":55,"Duration":96982,"SoundDuration":96982,"Delta":1292025},{"NoteNumber":63,"Velocity":46,"Duration":96982,"SoundDuration":96982,"Delta":1292025},{"NoteNumber":59,"Velocity":46,"Duration":96982,"SoundDuration":96982,"Delta":1292025},{"NoteNumber":75,"Velocity":63,"Duration":86206,"SoundDuration":86206,"Delta":1378232},{"NoteNumber":78,"Velocity":57,"Duration":86206,"SoundDuration":86206,"Delta":1464439},{"NoteNumber":73,"Velocity":69,"Duration":86206,"SoundDuration":86206,"Delta":1550646},{"NoteNumber":66,"Velocity":57,"Duration":96982,"SoundDuration":96982,"Delta":1550646},{"NoteNumber":61,"Velocity":48,"Duration":96982,"SoundDuration":96982,"Delta":1550646},{"NoteNumber":58,"Velocity":48,"Duration":96982,"SoundDuration":96982,"Delta":1550646},{"NoteNumber":78,"Velocity":56,"Duration":86206,"SoundDuration":86206,"Delta":1636852},{"NoteNumber":70,"Velocity":56,"Duration":86206,"SoundDuration":86206,"Delta":1723059},{"NoteNumber":73,"Velocity":67,"Duration":86206,"SoundDuration":86206,"Delta":1809266},{"NoteNumber":66,"Velocity":55,"Duration":86206,"SoundDuration":86206,"Delta":1895473},{"NoteNumber":70,"Velocity":53,"Duration":86206,"SoundDuration":86206,"Delta":1981680},{"NoteNumber":61,"Velocity":74,"Duration":86206,"SoundDuration":86206,"Delta":2067887},{"NoteNumber":37,"Velocity":47,"Duration":96982,"SoundDuration":96982,"Delta":2067887},{"NoteNumber":49,"Velocity":56,"Duration":96982,"SoundDuration":96982,"Delta":2067887},{"NoteNumber":73,"Velocity":69,"Duration":86206,"SoundDuration":86206,"Delta":2154093},{"NoteNumber":68,"Velocity":63,"Duration":86206,"SoundDuration":86206,"Delta":2240300},{"NoteNumber":73,"Velocity":75,"Duration":86206,"SoundDuration":86206,"Delta":2326507},{"NoteNumber":65,"Velocity":60,"Duration":96982,"SoundDuration":96982,"Delta":2326507},{"NoteNumber":61,"Velocity":50,"Duration":96982,"SoundDuration":96982,"Delta":2326507},{"NoteNumber":56,"Velocity":50,"Duration":96982,"SoundDuration":96982,"Delta":2326507},{"NoteNumber":68,"Velocity":67,"Duration":86206,"SoundDuration":86206,"Delta":2412714},{"NoteNumber":80,"Velocity":61,"Duration":86206,"SoundDuration":86206,"Delta":2498921},{"NoteNumber":68,"Velocity":75,"Duration":86206,"SoundDuration":86206,"Delta":2585128},{"NoteNumber":63,"Velocity":63,"Duration":96982,"SoundDuration":96982,"Delta":2585128},{"NoteNumber":59,"Velocity":53,"Duration":96982,"SoundDuration":96982,"Delta":2585128},{"NoteNumber":56,"Velocity":53,"Duration":96982,"SoundDuration":96982,"Delta":2585128},{"NoteNumber":80,"Velocity":68,"Duration":86206,"SoundDuration":86206,"Delta":2671334},{"NoteNumber":75,"Velocity":61,"Duration":86206,"SoundDuration":86206,"Delta":2757541},{"NoteNumber":80,"Velocity":81,"Duration":86206,"SoundDuration":86206,"Delta":2843748},{"NoteNumber":44,"Velocity":68,"Duration":96982,"SoundDuration":96982,"Delta":2843748},{"NoteNumber":75,"Velocity":74,"Duration":86206,"SoundDuration":86206,"Delta":2929955},{"NoteNumber":87,"Velocity":70,"Duration":86206,"SoundDuration":86206,"Delta":3016162},{"NoteNumber":75,"Velocity":82,"Duration":86206,"SoundDuration":86206,"Delta":3102369},{"NoteNumber":49,"Velocity":70,"Duration":782727,"SoundDuration":782727,"Delta":3102369},{"NoteNumber":87,"Velocity":73,"Duration":86206,"SoundDuration":86206,"Delta":3188575},{"NoteNumber":80,"Velocity":68,"Duration":86206,"SoundDuration":86206,"Delta":3274782},{"NoteNumber":87,"Velocity":86,"Duration":86206,"SoundDuration":86206,"Delta":3360989},{"NoteNumber":63,"Velocity":73,"Duration":258620,"SoundDuration":258620,"Delta":3360989},{"NoteNumber":59,"Velocity":62,"Duration":258620,"SoundDuration":258620,"Delta":3360989},{"NoteNumber":56,"Velocity":62,"Duration":258620,"SoundDuration":258620,"Delta":3360989},{"NoteNumber":80,"Velocity":69,"Duration":86206,"SoundDuration":86206,"Delta":3447196},{"NoteNumber":92,"Velocity":67,"Duration":86206,"SoundDuration":86206,"Delta":3533403},{"NoteNumber":80,"Velocity":89,"Duration":88495,"SoundDuration":88495,"Delta":3619610},{"NoteNumber":61,"Velocity":78,"Duration":265486,"SoundDuration":265486,"Delta":3619610},{"NoteNumber":59,"Velocity":64,"Duration":265486,"SoundDuration":265486,"Delta":3619610},{"NoteNumber":56,"Velocity":64,"Duration":265486,"SoundDuration":265486,"Delta":3619610},{"NoteNumber":92,"Velocity":77,"Duration":88495,"SoundDuration":88495,"Delta":3708105},{"NoteNumber":85,"Velocity":75,"Duration":88495,"SoundDuration":88495,"Delta":3796601},{"NoteNumber":92,"Velocity":92,"Duration":88495,"SoundDuration":88495,"Delta":3885096},{"NoteNumber":85,"Velocity":83,"Duration":88495,"SoundDuration":88495,"Delta":3973592},{"NoteNumber":97,"Velocity":78,"Duration":88495,"SoundDuration":88495,"Delta":4062087},{"NoteNumber":90,"Velocity":96,"Duration":86206,"SoundDuration":86206,"Delta":4150583},{"NoteNumber":58,"Velocity":73,"Duration":96982,"SoundDuration":96982,"Delta":4150583},{"NoteNumber":66,"Velocity":87,"Duration":96982,"SoundDuration":96982,"Delta":4150583},{"NoteNumber":61,"Velocity":73,"Duration":96982,"SoundDuration":96982,"Delta":4150583},{"NoteNumber":54,"Velocity":73,"Duration":96982,"SoundDuration":96982,"Delta":4150583},{"NoteNumber":94,"Velocity":78,"Duration":86206,"SoundDuration":86206,"Delta":4236789},{"NoteNumber":85,"Velocity":75,"Duration":86206,"SoundDuration":86206,"Delta":4322996},{"NoteNumber":90,"Velocity":95,"Duration":86206,"SoundDuration":86206,"Delta":4409203},{"NoteNumber":66,"Velocity":82,"Duration":96982,"SoundDuration":96982,"Delta":4409203},{"NoteNumber":63,"Velocity":69,"Duration":96982,"SoundDuration":96982,"Delta":4409203},{"NoteNumber":59,"Velocity":69,"Duration":96982,"SoundDuration":96982,"Delta":4409203},{"NoteNumber":54,"Velocity":69,"Duration":96982,"SoundDuration":96982,"Delta":4409203},{"NoteNumber":87,"Velocity":77,"Duration":86206,"SoundDuration":86206,"Delta":4495410},{"NoteNumber":90,"Velocity":74,"Duration":86206,"SoundDuration":86206,"Delta":4581617},{"NoteNumber":85,"Velocity":95,"Duration":86206,"SoundDuration":86206,"Delta":4667824},{"NoteNumber":66,"Velocity":87,"Duration":96982,"SoundDuration":96982,"Delta":4667824},{"NoteNumber":61,"Velocity":73,"Duration":96982,"SoundDuration":96982,"Delta":4667824},{"NoteNumber":58,"Velocity":73,"Duration":96982,"SoundDuration":96982,"Delta":4667824},{"NoteNumber":54,"Velocity":73,"Duration":96982,"SoundDuration":96982,"Delta":4667824},{"NoteNumber":90,"Velocity":76,"Duration":86206,"SoundDuration":86206,"Delta":4754030},{"NoteNumber":82,"Velocity":74,"Duration":86206,"SoundDuration":86206,"Delta":4840237},{"NoteNumber":85,"Velocity":85,"Duration":86206,"SoundDuration":86206,"Delta":4926444},{"NoteNumber":78,"Velocity":75,"Duration":86206,"SoundDuration":86206,"Delta":5012651},{"NoteNumber":82,"Velocity":70,"Duration":86206,"SoundDuration":86206,"Delta":5098858},{"NoteNumber":78,"Velocity":74,"Duration":86206,"SoundDuration":86206,"Delta":5185065},{"NoteNumber":42,"Velocity":47,"Duration":96982,"SoundDuration":96982,"Delta":5185065},{"NoteNumber":54,"Velocity":56,"Duration":96982,"SoundDuration":96982,"Delta":5185065},{"NoteNumber":82,"Velocity":69,"Duration":86206,"SoundDuration":86206,"Delta":5271271},{"NoteNumber":73,"Velocity":65,"Duration":86206,"SoundDuration":86206,"Delta":5357478},{"NoteNumber":78,"Velocity":74,"Duration":86206,"SoundDuration":86206,"Delta":5443685},{"NoteNumber":66,"Velocity":48,"Duration":96982,"SoundDuration":96982,"Delta":5443685},{"NoteNumber":63,"Velocity":40,"Duration":96982,"SoundDuration":96982,"Delta":5443685},{"NoteNumber":59,"Velocity":40,"Duration":96982,"SoundDuration":96982,"Delta":5443685},{"NoteNumber":75,"Velocity":69,"Duration":86206,"SoundDuration":86206,"Delta":5529892},{"NoteNumber":78,"Velocity":66,"Duration":86206,"SoundDuration":86206,"Delta":5616099},{"NoteNumber":73,"Velocity":74,"Duration":86206,"SoundDuration":86206,"Delta":5702306},{"NoteNumber":66,"Velocity":57,"Duration":96982,"SoundDuration":96982,"Delta":5702306},{"NoteNumber":61,"Velocity":48,"Duration":96982,"SoundDuration":96982,"Delta":5702306},{"NoteNumber":58,"Velocity":48,"Duration":96982,"SoundDuration":96982,"Delta":5702306},{"NoteNumber":78,"Velocity":67,"Duration":86206,"SoundDuration":86206,"Delta":5788512},{"NoteNumber":70,"Velocity":70,"Duration":86206,"SoundDuration":86206,"Delta":5874719},{"NoteNumber":73,"Velocity":74,"Duration":86206,"SoundDuration":86206,"Delta":5960926},{"NoteNumber":66,"Velocity":65,"Duration":86206,"SoundDuration":86206,"Delta":6047133},{"NoteNumber":70,"Velocity":68,"Duration":86206,"SoundDuration":86206,"Delta":6133340},{"NoteNumber":63,"Velocity":77,"Duration":86206,"SoundDuration":86206,"Delta":6219547},{"NoteNumber":47,"Velocity":66,"Duration":258620,"SoundDuration":258620,"Delta":6219547},{"NoteNumber":75,"Velocity":69,"Duration":86206,"SoundDuration":86206,"Delta":6305753},{"NoteNumber":68,"Velocity":66,"Duration":86206,"SoundDuration":86206,"Delta":6391960},{"NoteNumber":75,"Velocity":77,"Duration":86206,"SoundDuration":86206,"Delta":6478167},{"NoteNumber":63,"Velocity":71,"Duration":517240,"SoundDuration":517240,"Delta":6478167},{"NoteNumber":56,"Velocity":60,"Duration":517240,"SoundDuration":517240,"Delta":6478167},{"NoteNumber":68,"Velocity":67,"Duration":86206,"SoundDuration":86206,"Delta":6564374},{"NoteNumber":80,"Velocity":71,"Duration":86206,"SoundDuration":86206,"Delta":6650581},{"NoteNumber":75,"Velocity":77,"Duration":86206,"SoundDuration":86206,"Delta":6736788},{"NoteNumber":80,"Velocity":74,"Duration":86206,"SoundDuration":86206,"Delta":6822994},{"NoteNumber":75,"Velocity":70,"Duration":86206,"SoundDuration":86206,"Delta":6909201},{"NoteNumber":87,"Velocity":82,"Duration":89686,"SoundDuration":89686,"Delta":6995408},{"NoteNumber":47,"Velocity":64,"Duration":235426,"SoundDuration":235426,"Delta":6995408},{"NoteNumber":80,"Velocity":73,"Duration":89686,"SoundDuration":89686,"Delta":7085094},{"NoteNumber":92,"Velocity":75,"Duration":89686,"SoundDuration":89686,"Delta":7174780},{"NoteNumber":46,"Velocity":57,"Duration":269058,"SoundDuration":269058,"Delta":7230834},{"NoteNumber":53,"Velocity":59,"Duration":252242,"SoundDuration":252242,"Delta":7247650},{"NoteNumber":82,"Velocity":88,"Duration":89686,"SoundDuration":89686,"Delta":7264467},{"NoteNumber":62,"Velocity":77,"Duration":235426,"SoundDuration":235426,"Delta":7264467},{"NoteNumber":94,"Velocity":78,"Duration":89686,"SoundDuration":89686,"Delta":7354153},{"NoteNumber":82,"Velocity":70,"Duration":89686,"SoundDuration":89686,"Delta":7443839},{"NoteNumber":58,"Velocity":56,"Duration":302690,"SoundDuration":302690,"Delta":7499893},{"NoteNumber":65,"Velocity":56,"Duration":285874,"SoundDuration":285874,"Delta":7516709},{"NoteNumber":94,"Velocity":81,"Duration":89686,"SoundDuration":89686,"Delta":7533525},{"NoteNumber":74,"Velocity":71,"Duration":269058,"SoundDuration":269058,"Delta":7533525},{"NoteNumber":82,"Velocity":75,"Duration":89686,"SoundDuration":89686,"Delta":7623211},{"NoteNumber":94,"Velocity":70,"Duration":89686,"SoundDuration":89686,"Delta":7712897},{"NoteNumber":82,"Velocity":68,"Duration":93458,"SoundDuration":93458,"Delta":7802584},{"NoteNumber":94,"Velocity":62,"Duration":93458,"SoundDuration":93458,"Delta":7896042},{"NoteNumber":82,"Velocity":53,"Duration":93458,"SoundDuration":93458,"Delta":7989500},{"NoteNumber":94,"Velocity":59,"Duration":93458,"SoundDuration":93458,"Delta":8082958},{"NoteNumber":82,"Velocity":53,"Duration":93458,"SoundDuration":93458,"Delta":8176416},{"NoteNumber":94,"Velocity":45,"Duration":93458,"SoundDuration":93458,"Delta":8269874},{"NoteNumber":90,"Velocity":96,"Duration":88495,"SoundDuration":88495,"Delta":8364438},{"NoteNumber":66,"Velocity":86,"Duration":99557,"SoundDuration":99557,"Delta":8364438},{"NoteNumber":61,"Velocity":72,"Duration":99557,"SoundDuration":99557,"Delta":8364438},{"NoteNumber":58,"Velocity":72,"Duration":99557,"SoundDuration":99557,"Delta":8364438},{"NoteNumber":54,"Velocity":72,"Duration":99557,"SoundDuration":99557,"Delta":8364438},{"NoteNumber":94,"Velocity":73,"Duration":88495,"SoundDuration":88495,"Delta":8451827},{"NoteNumber":85,"Velocity":67,"Duration":88495,"SoundDuration":88495,"Delta":8540323},{"NoteNumber":90,"Velocity":90,"Duration":86206,"SoundDuration":86206,"Delta":8628818},{"NoteNumber":66,"Velocity":77,"Duration":96982,"SoundDuration":96982,"Delta":8628818},{"NoteNumber":63,"Velocity":64,"Duration":96982,"SoundDuration":96982,"Delta":8628818},{"NoteNumber":59,"Velocity":64,"Duration":96982,"SoundDuration":96982,"Delta":8628818},{"NoteNumber":54,"Velocity":64,"Duration":96982,"SoundDuration":96982,"Delta":8628818},{"NoteNumber":87,"Velocity":67,"Duration":86206,"SoundDuration":86206,"Delta":8715025},{"NoteNumber":90,"Velocity":59,"Duration":86206,"SoundDuration":86206,"Delta":8801232},{"NoteNumber":85,"Velocity":93,"Duration":86206,"SoundDuration":86206,"Delta":8887439},{"NoteNumber":66,"Velocity":86,"Duration":96982,"SoundDuration":96982,"Delta":8887439},{"NoteNumber":61,"Velocity":72,"Duration":96982,"SoundDuration":96982,"Delta":8887439},{"NoteNumber":58,"Velocity":72,"Duration":96982,"SoundDuration":96982,"Delta":8887439},{"NoteNumber":54,"Velocity":72,"Duration":96982,"SoundDuration":96982,"Delta":8887439},{"NoteNumber":90,"Velocity":68,"Duration":86206,"SoundDuration":86206,"Delta":8973645},{"NoteNumber":82,"Velocity":66,"Duration":86206,"SoundDuration":86206,"Delta":9059852},{"NoteNumber":85,"Velocity":84,"Duration":86206,"SoundDuration":86206,"Delta":9146059},{"NoteNumber":78,"Velocity":66,"Duration":86206,"SoundDuration":86206,"Delta":9232266},{"NoteNumber":82,"Velocity":63,"Duration":86206,"SoundDuration":86206,"Delta":9318473},{"NoteNumber":78,"Velocity":74,"Duration":86206,"SoundDuration":86206,"Delta":9404680},{"NoteNumber":54,"Velocity":56,"Duration":96982,"SoundDuration":96982,"Delta":9404680},{"NoteNumber":42,"Velocity":56,"Duration":96982,"SoundDuration":96982,"Delta":9404680},{"NoteNumber":82,"Velocity":66,"Duration":86206,"SoundDuration":86206,"Delta":9490886},{"NoteNumber":73,"Velocity":63,"Duration":86206,"SoundDuration":86206,"Delta":9577093},{"NoteNumber":78,"Velocity":68,"Duration":86206,"SoundDuration":86206,"Delta":9663300},{"NoteNumber":66,"Velocity":48,"Duration":96982,"SoundDuration":96982,"Delta":9663300},{"NoteNumber":63,"Velocity":40,"Duration":96982,"SoundDuration":96982,"Delta":9663300},{"NoteNumber":59,"Velocity":40,"Duration":96982,"SoundDuration":96982,"Delta":9663300},{"NoteNumber":75,"Velocity":65,"Duration":86206,"SoundDuration":86206,"Delta":9749507},{"NoteNumber":78,"Velocity":62,"Duration":86206,"SoundDuration":86206,"Delta":9835714},{"NoteNumber":73,"Velocity":74,"Duration":86206,"SoundDuration":86206,"Delta":9921921},{"NoteNumber":66,"Velocity":56,"Duration":96982,"SoundDuration":96982,"Delta":9921921},{"NoteNumber":61,"Velocity":47,"Duration":96982,"SoundDuration":96982,"Delta":9921921},{"NoteNumber":58,"Velocity":47,"Duration":96982,"SoundDuration":96982,"Delta":9921921},{"NoteNumber":78,"Velocity":65,"Duration":86206,"SoundDuration":86206,"Delta":10008127},{"NoteNumber":70,"Velocity":61,"Duration":86206,"SoundDuration":86206,"Delta":10094334},{"NoteNumber":73,"Velocity":74,"Duration":86206,"SoundDuration":86206,"Delta":10180541},{"NoteNumber":66,"Velocity":67,"Duration":86206,"SoundDuration":86206,"Delta":10266748},{"NoteNumber":70,"Velocity":65,"Duration":86206,"SoundDuration":86206,"Delta":10352955},{"NoteNumber":61,"Velocity":74,"Duration":86206,"SoundDuration":86206,"Delta":10439162},{"NoteNumber":37,"Velocity":51,"Duration":96982,"SoundDuration":96982,"Delta":10439162},{"NoteNumber":49,"Velocity":61,"Duration":96982,"SoundDuration":96982,"Delta":10439162},{"NoteNumber":73,"Velocity":71,"Duration":86206,"SoundDuration":86206,"Delta":10525368},{"NoteNumber":68,"Velocity":67,"Duration":86206,"SoundDuration":86206,"Delta":10611575},{"NoteNumber":73,"Velocity":75,"Duration":86206,"SoundDuration":86206,"Delta":10697782},{"NoteNumber":65,"Velocity":61,"Duration":96982,"SoundDuration":96982,"Delta":10697782},{"NoteNumber":61,"Velocity":51,"Duration":96982,"SoundDuration":96982,"Delta":10697782},{"NoteNumber":56,"Velocity":51,"Duration":96982,"SoundDuration":96982,"Delta":10697782},{"NoteNumber":68,"Velocity":70,"Duration":86206,"SoundDuration":86206,"Delta":10783989},{"NoteNumber":80,"Velocity":65,"Duration":86206,"SoundDuration":86206,"Delta":10870196},{"NoteNumber":68,"Velocity":72,"Duration":86206,"SoundDuration":86206,"Delta":10956403},{"NoteNumber":63,"Velocity":62,"Duration":96982,"SoundDuration":96982,"Delta":10956403},{"NoteNumber":59,"Velocity":52,"Duration":96982,"SoundDuration":96982,"Delta":10956403},{"NoteNumber":56,"Velocity":52,"Duration":96982,"SoundDuration":96982,"Delta":10956403},{"NoteNumber":80,"Velocity":70,"Duration":86206,"SoundDuration":86206,"Delta":11042609},{"NoteNumber":75,"Velocity":67,"Duration":86206,"SoundDuration":86206,"Delta":11128816},{"NoteNumber":80,"Velocity":78,"Duration":86206,"SoundDuration":86206,"Delta":11215023},{"NoteNumber":44,"Velocity":66,"Duration":96982,"SoundDuration":96982,"Delta":11215023},{"NoteNumber":75,"Velocity":74,"Duration":86206,"SoundDuration":86206,"Delta":11301230},{"NoteNumber":87,"Velocity":72,"Duration":86206,"SoundDuration":86206,"Delta":11387437},{"NoteNumber":75,"Velocity":82,"Duration":86206,"SoundDuration":86206,"Delta":11473644},{"NoteNumber":49,"Velocity":70,"Duration":780399,"SoundDuration":780399,"Delta":11473644},{"NoteNumber":87,"Velocity":78,"Duration":86206,"SoundDuration":86206,"Delta":11559850},{"NoteNumber":80,"Velocity":78,"Duration":86206,"SoundDuration":86206,"Delta":11646057},{"NoteNumber":87,"Velocity":80,"Duration":86206,"SoundDuration":86206,"Delta":11732264},{"NoteNumber":63,"Velocity":73,"Duration":258620,"SoundDuration":258620,"Delta":11732264},{"NoteNumber":59,"Velocity":62,"Duration":258620,"SoundDuration":258620,"Delta":11732264},{"NoteNumber":56,"Velocity":62,"Duration":258620,"SoundDuration":258620,"Delta":11732264},{"NoteNumber":80,"Velocity":77,"Duration":86206,"SoundDuration":86206,"Delta":11818471},{"NoteNumber":92,"Velocity":73,"Duration":86206,"SoundDuration":86206,"Delta":11904678},{"NoteNumber":80,"Velocity":88,"Duration":87719,"SoundDuration":87719,"Delta":11990885},{"NoteNumber":61,"Velocity":78,"Duration":263158,"SoundDuration":263158,"Delta":11990885},{"NoteNumber":59,"Velocity":64,"Duration":263158,"SoundDuration":263158,"Delta":11990885},{"NoteNumber":56,"Velocity":64,"Duration":263158,"SoundDuration":263158,"Delta":11990885},{"NoteNumber":92,"Velocity":81,"Duration":87719,"SoundDuration":87719,"Delta":12078604},{"NoteNumber":85,"Velocity":73,"Duration":87719,"SoundDuration":87719,"Delta":12166323},{"NoteNumber":92,"Velocity":92,"Duration":87719,"SoundDuration":87719,"Delta":12254043},{"NoteNumber":85,"Velocity":83,"Duration":87719,"SoundDuration":87719,"Delta":12341762},{"NoteNumber":97,"Velocity":83,"Duration":87719,"SoundDuration":87719,"Delta":12429481},{"NoteNumber":90,"Velocity":98,"Duration":86206,"SoundDuration":86206,"Delta":12517201},{"NoteNumber":66,"Velocity":87,"Duration":96982,"SoundDuration":96982,"Delta":12517201},{"NoteNumber":58,"Velocity":73,"Duration":96982,"SoundDuration":96982,"Delta":12517201},{"NoteNumber":61,"Velocity":73,"Duration":96982,"SoundDuration":96982,"Delta":12517201},{"NoteNumber":54,"Velocity":73,"Duration":96982,"SoundDuration":96982,"Delta":12517201},{"NoteNumber":94,"Velocity":74,"Duration":86206,"SoundDuration":86206,"Delta":12603407},{"NoteNumber":85,"Velocity":70,"Duration":86206,"SoundDuration":86206,"Delta":12689614},{"NoteNumber":90,"Velocity":93,"Duration":86206,"SoundDuration":86206,"Delta":12775821},{"NoteNumber":54,"Velocity":69,"Duration":96982,"SoundDuration":96982,"Delta":12775821},{"NoteNumber":63,"Velocity":69,"Duration":96982,"SoundDuration":96982,"Delta":12775821},{"NoteNumber":59,"Velocity":69,"Duration":96982,"SoundDuration":96982,"Delta":12775821},{"NoteNumber":66,"Velocity":81,"Duration":96982,"SoundDuration":96982,"Delta":12775821},{"NoteNumber":87,"Velocity":72,"Duration":86206,"SoundDuration":86206,"Delta":12862028},{"NoteNumber":90,"Velocity":73,"Duration":86206,"SoundDuration":86206,"Delta":12948235},{"NoteNumber":85,"Velocity":96,"Duration":86206,"SoundDuration":86206,"Delta":13034442},{"NoteNumber":54,"Velocity":73,"Duration":96982,"SoundDuration":96982,"Delta":13034442},{"NoteNumber":61,"Velocity":73,"Duration":96982,"SoundDuration":96982,"Delta":13034442},{"NoteNumber":58,"Velocity":73,"Duration":96982,"SoundDuration":96982,"Delta":13034442},{"NoteNumber":66,"Velocity":87,"Duration":96982,"SoundDuration":96982,"Delta":13034442},{"NoteNumber":90,"Velocity":75,"Duration":86206,"SoundDuration":86206,"Delta":13120648},{"NoteNumber":82,"Velocity":68,"Duration":86206,"SoundDuration":86206,"Delta":13206855},{"NoteNumber":85,"Velocity":84,"Duration":86206,"SoundDuration":86206,"Delta":13293062},{"NoteNumber":78,"Velocity":69,"Duration":86206,"SoundDuration":86206,"Delta":13379269},{"NoteNumber":82,"Velocity":64,"Duration":86206,"SoundDuration":86206,"Delta":13465476},{"NoteNumber":78,"Velocity":74,"Duration":86206,"SoundDuration":86206,"Delta":13551683},{"NoteNumber":42,"Velocity":47,"Duration":96982,"SoundDuration":96982,"Delta":13551683},{"NoteNumber":54,"Velocity":56,"Duration":96982,"SoundDuration":96982,"Delta":13551683},{"NoteNumber":82,"Velocity":68,"Duration":86206,"SoundDuration":86206,"Delta":13637889},{"NoteNumber":73,"Velocity":62,"Duration":86206,"SoundDuration":86206,"Delta":13724096},{"NoteNumber":78,"Velocity":71,"Duration":86206,"SoundDuration":86206,"Delta":13810303},{"NoteNumber":59,"Velocity":42,"Duration":96982,"SoundDuration":96982,"Delta":13810303},{"NoteNumber":66,"Velocity":50,"Duration":96982,"SoundDuration":96982,"Delta":13810303},{"NoteNumber":63,"Velocity":42,"Duration":96982,"SoundDuration":96982,"Delta":13810303},{"NoteNumber":75,"Velocity":65,"Duration":86206,"SoundDuration":86206,"Delta":13896510},{"NoteNumber":78,"Velocity":67,"Duration":86206,"SoundDuration":86206,"Delta":13982717},{"NoteNumber":73,"Velocity":74,"Duration":86206,"SoundDuration":86206,"Delta":14068924},{"NoteNumber":66,"Velocity":56,"Duration":96982,"SoundDuration":96982,"Delta":14068924},{"NoteNumber":61,"Velocity":47,"Duration":96982,"SoundDuration":96982,"Delta":14068924},{"NoteNumber":58,"Velocity":47,"Duration":96982,"SoundDuration":96982,"Delta":14068924},{"NoteNumber":78,"Velocity":65,"Duration":86206,"SoundDuration":86206,"Delta":14155130},{"NoteNumber":70,"Velocity":59,"Duration":86206,"SoundDuration":86206,"Delta":14241337},{"NoteNumber":73,"Velocity":74,"Duration":86206,"SoundDuration":86206,"Delta":14327544},{"NoteNumber":66,"Velocity":65,"Duration":86206,"SoundDuration":86206,"Delta":14413751},{"NoteNumber":70,"Velocity":59,"Duration":86206,"SoundDuration":86206,"Delta":14499958},{"NoteNumber":63,"Velocity":77,"Duration":86206,"SoundDuration":86206,"Delta":14586165},{"NoteNumber":48,"Velocity":62,"Duration":129310,"SoundDuration":129310,"Delta":14586165},{"NoteNumber":75,"Velocity":74,"Duration":86206,"SoundDuration":86206,"Delta":14672371},{"NoteNumber":68,"Velocity":67,"Duration":86206,"SoundDuration":86206,"Delta":14758578},{"NoteNumber":75,"Velocity":77,"Duration":86206,"SoundDuration":86206,"Delta":14844785},{"NoteNumber":66,"Velocity":68,"Duration":517241,"SoundDuration":517241,"Delta":14844785},{"NoteNumber":56,"Velocity":56,"Duration":517241,"SoundDuration":517241,"Delta":14844785},{"NoteNumber":68,"Velocity":67,"Duration":86206,"SoundDuration":86206,"Delta":14930992},{"NoteNumber":80,"Velocity":70,"Duration":86206,"SoundDuration":86206,"Delta":15017199},{"NoteNumber":75,"Velocity":75,"Duration":86206,"SoundDuration":86206,"Delta":15103406},{"NoteNumber":80,"Velocity":71,"Duration":86206,"SoundDuration":86206,"Delta":15189612},{"NoteNumber":75,"Velocity":67,"Duration":86206,"SoundDuration":86206,"Delta":15275819},{"NoteNumber":87,"Velocity":82,"Duration":88888,"SoundDuration":88888,"Delta":15362026},{"NoteNumber":44,"Velocity":64,"Duration":133333,"SoundDuration":133333,"Delta":15362026},{"NoteNumber":80,"Velocity":79,"Duration":88888,"SoundDuration":88888,"Delta":15450915},{"NoteNumber":87,"Velocity":74,"Duration":88888,"SoundDuration":88888,"Delta":15539804},{"NoteNumber":75,"Velocity":85,"Duration":88888,"SoundDuration":88888,"Delta":15628693},{"NoteNumber":49,"Velocity":78,"Duration":133333,"SoundDuration":133333,"Delta":15628693},{"NoteNumber":87,"Velocity":74,"Duration":88888,"SoundDuration":88888,"Delta":15717581},{"NoteNumber":80,"Velocity":71,"Duration":88888,"SoundDuration":88888,"Delta":15806470},{"NoteNumber":87,"Velocity":88,"Duration":88888,"SoundDuration":88888,"Delta":15895359},{"NoteNumber":65,"Velocity":71,"Duration":133333,"SoundDuration":133333,"Delta":15895359},{"NoteNumber":56,"Velocity":60,"Duration":133333,"SoundDuration":133333,"Delta":15895359},{"NoteNumber":73,"Velocity":76,"Duration":88888,"SoundDuration":88888,"Delta":15984248},{"NoteNumber":85,"Velocity":72,"Duration":88888,"SoundDuration":88888,"Delta":16073137},{"NoteNumber":80,"Velocity":81,"Duration":92592,"SoundDuration":92592,"Delta":16162026},{"NoteNumber":85,"Velocity":73,"Duration":92592,"SoundDuration":92592,"Delta":16254618},{"NoteNumber":80,"Velocity":67,"Duration":92592,"SoundDuration":92592,"Delta":16347211},{"NoteNumber":92,"Velocity":70,"Duration":92592,"SoundDuration":92592,"Delta":16439804},{"NoteNumber":85,"Velocity":66,"Duration":92592,"SoundDuration":92592,"Delta":16532396},{"NoteNumber":97,"Velocity":64,"Duration":92592,"SoundDuration":92592,"Delta":16624989},{"NoteNumber":92,"Velocity":72,"Duration":88105,"SoundDuration":88105,"Delta":16717581},{"NoteNumber":60,"Velocity":52,"Duration":264316,"SoundDuration":264316,"Delta":16717581},{"NoteNumber":68,"Velocity":62,"Duration":264316,"SoundDuration":264316,"Delta":16717581},{"NoteNumber":66,"Velocity":52,"Duration":264316,"SoundDuration":264316,"Delta":16717581},{"NoteNumber":94,"Velocity":67,"Duration":88105,"SoundDuration":88105,"Delta":16805687},{"NoteNumber":92,"Velocity":61,"Duration":88105,"SoundDuration":88105,"Delta":16893793},{"NoteNumber":87,"Velocity":72,"Duration":87336,"SoundDuration":87336,"Delta":16981898},{"NoteNumber":56,"Velocity":50,"Duration":262008,"SoundDuration":262008,"Delta":16981898},{"NoteNumber":68,"Velocity":60,"Duration":262008,"SoundDuration":262008,"Delta":16981898},{"NoteNumber":66,"Velocity":50,"Duration":262008,"SoundDuration":262008,"Delta":16981898},{"NoteNumber":99,"Velocity":67,"Duration":87336,"SoundDuration":87336,"Delta":17069235},{"NoteNumber":87,"Velocity":58,"Duration":87336,"SoundDuration":87336,"Delta":17156571},{"NoteNumber":85,"Velocity":78,"Duration":85470,"SoundDuration":85470,"Delta":17243907},{"NoteNumber":61,"Velocity":56,"Duration":256410,"SoundDuration":256410,"Delta":17243907},{"NoteNumber":65,"Velocity":56,"Duration":256410,"SoundDuration":256410,"Delta":17243907},{"NoteNumber":70,"Velocity":68,"Duration":256410,"SoundDuration":256410,"Delta":17243907},{"NoteNumber":87,"Velocity":74,"Duration":85470,"SoundDuration":85470,"Delta":17329377},{"NoteNumber":85,"Velocity":68,"Duration":85470,"SoundDuration":85470,"Delta":17414847},{"NoteNumber":80,"Velocity":75,"Duration":86206,"SoundDuration":86206,"Delta":17500318},{"NoteNumber":56,"Velocity":48,"Duration":258620,"SoundDuration":258620,"Delta":17500318},{"NoteNumber":65,"Velocity":48,"Duration":258620,"SoundDuration":258620,"Delta":17500318},{"NoteNumber":68,"Velocity":59,"Duration":258620,"SoundDuration":258620,"Delta":17500318},{"NoteNumber":92,"Velocity":71,"Duration":86206,"SoundDuration":86206,"Delta":17586524},{"NoteNumber":80,"Velocity":66,"Duration":86206,"SoundDuration":86206,"Delta":17672731},{"NoteNumber":80,"Velocity":72,"Duration":88105,"SoundDuration":88105,"Delta":17758938},{"NoteNumber":60,"Velocity":52,"Duration":264316,"SoundDuration":264316,"Delta":17758938},{"NoteNumber":66,"Velocity":52,"Duration":264316,"SoundDuration":264316,"Delta":17758938},{"NoteNumber":70,"Velocity":62,"Duration":264316,"SoundDuration":264316,"Delta":17758938},{"NoteNumber":82,"Velocity":67,"Duration":88105,"SoundDuration":88105,"Delta":17847044},{"NoteNumber":80,"Velocity":65,"Duration":88105,"SoundDuration":88105,"Delta":17935149},{"NoteNumber":75,"Velocity":72,"Duration":85106,"SoundDuration":85106,"Delta":18023255},{"NoteNumber":56,"Velocity":48,"Duration":255319,"SoundDuration":255319,"Delta":18023255},{"NoteNumber":68,"Velocity":59,"Duration":255319,"SoundDuration":255319,"Delta":18023255},{"NoteNumber":66,"Velocity":59,"Duration":255319,"SoundDuration":255319,"Delta":18023255},{"NoteNumber":87,"Velocity":67,"Duration":85106,"SoundDuration":85106,"Delta":18108361},{"NoteNumber":75,"Velocity":67,"Duration":85106,"SoundDuration":85106,"Delta":18193468},{"NoteNumber":73,"Velocity":75,"Duration":86206,"SoundDuration":86206,"Delta":18278574},{"NoteNumber":61,"Velocity":56,"Duration":258620,"SoundDuration":258620,"Delta":18278574},{"NoteNumber":65,"Velocity":68,"Duration":258620,"SoundDuration":258620,"Delta":18278574},{"NoteNumber":75,"Velocity":68,"Duration":86206,"SoundDuration":86206,"Delta":18364781},{"NoteNumber":73,"Velocity":67,"Duration":86206,"SoundDuration":86206,"Delta":18450988},{"NoteNumber":68,"Velocity":72,"Duration":344827,"SoundDuration":344827,"Delta":18537194},{"NoteNumber":56,"Velocity":60,"Duration":258620,"SoundDuration":258620,"Delta":18537194},{"NoteNumber":48,"Velocity":62,"Duration":129310,"SoundDuration":129310,"Delta":18795815},{"NoteNumber":75,"Velocity":70,"Duration":86206,"SoundDuration":86206,"Delta":18882022},{"NoteNumber":80,"Velocity":67,"Duration":86206,"SoundDuration":86206,"Delta":18968229},{"NoteNumber":82,"Velocity":74,"Duration":88105,"SoundDuration":88105,"Delta":19054435},{"NoteNumber":66,"Velocity":68,"Duration":132158,"SoundDuration":132158,"Delta":19054435},{"NoteNumber":63,"Velocity":56,"Duration":132158,"SoundDuration":132158,"Delta":19054435},{"NoteNumber":56,"Velocity":56,"Duration":132158,"SoundDuration":132158,"Delta":19054435},{"NoteNumber":80,"Velocity":70,"Duration":88105,"SoundDuration":88105,"Delta":19142541},{"NoteNumber":75,"Velocity":67,"Duration":88105,"SoundDuration":88105,"Delta":19230647},{"NoteNumber":73,"Velocity":71,"Duration":85470,"SoundDuration":85470,"Delta":19318752},{"NoteNumber":65,"Velocity":63,"Duration":128205,"SoundDuration":128205,"Delta":19318752},{"NoteNumber":61,"Velocity":53,"Duration":128205,"SoundDuration":128205,"Delta":19318752},{"NoteNumber":56,"Velocity":53,"Duration":128205,"SoundDuration":128205,"Delta":19318752},{"NoteNumber":80,"Velocity":73,"Duration":85470,"SoundDuration":85470,"Delta":19404223},{"NoteNumber":85,"Velocity":72,"Duration":85470,"SoundDuration":85470,"Delta":19489693},{"NoteNumber":87,"Velocity":74,"Duration":85470,"SoundDuration":85470,"Delta":19575163},{"NoteNumber":49,"Velocity":62,"Duration":128205,"SoundDuration":128205,"Delta":19575163},{"NoteNumber":85,"Velocity":69,"Duration":85470,"SoundDuration":85470,"Delta":19660633},{"NoteNumber":82,"Velocity":67,"Duration":85470,"SoundDuration":85470,"Delta":19746103},{"NoteNumber":80,"Velocity":72,"Duration":85470,"SoundDuration":85470,"Delta":19831573},{"NoteNumber":44,"Velocity":62,"Duration":128205,"SoundDuration":128205,"Delta":19831573},{"NoteNumber":87,"Velocity":69,"Duration":85470,"SoundDuration":85470,"Delta":19917044},{"NoteNumber":92,"Velocity":67,"Duration":85470,"SoundDuration":85470,"Delta":20002514},{"NoteNumber":94,"Velocity":72,"Duration":85470,"SoundDuration":85470,"Delta":20087984},{"NoteNumber":66,"Velocity":57,"Duration":128205,"SoundDuration":128205,"Delta":20087984},{"NoteNumber":60,"Velocity":48,"Duration":128205,"SoundDuration":128205,"Delta":20087984},{"NoteNumber":56,"Velocity":48,"Duration":128205,"SoundDuration":128205,"Delta":20087984},{"NoteNumber":92,"Velocity":64,"Duration":85470,"SoundDuration":85470,"Delta":20173454},{"NoteNumber":87,"Velocity":59,"Duration":85470,"SoundDuration":85470,"Delta":20258924},{"NoteNumber":85,"Velocity":77,"Duration":85470,"SoundDuration":85470,"Delta":20344394},{"NoteNumber":37,"Velocity":62,"Duration":128205,"SoundDuration":128205,"Delta":20344394},{"NoteNumber":92,"Velocity":73,"Duration":85470,"SoundDuration":85470,"Delta":20429865},{"NoteNumber":97,"Velocity":68,"Duration":85470,"SoundDuration":85470,"Delta":20515335},{"NoteNumber":99,"Velocity":72,"Duration":85470,"SoundDuration":85470,"Delta":20600805},{"NoteNumber":65,"Velocity":60,"Duration":128205,"SoundDuration":128205,"Delta":20600805},{"NoteNumber":61,"Velocity":50,"Duration":128205,"SoundDuration":128205,"Delta":20600805},{"NoteNumber":56,"Velocity":50,"Duration":128205,"SoundDuration":128205,"Delta":20600805},{"NoteNumber":97,"Velocity":68,"Duration":85470,"SoundDuration":85470,"Delta":20686275},{"NoteNumber":94,"Velocity":68,"Duration":85470,"SoundDuration":85470,"Delta":20771745},{"NoteNumber":92,"Velocity":72,"Duration":87719,"SoundDuration":87719,"Delta":20857215},{"NoteNumber":44,"Velocity":62,"Duration":263158,"SoundDuration":263158,"Delta":20857215},{"NoteNumber":94,"Velocity":69,"Duration":87719,"SoundDuration":87719,"Delta":20944935},{"NoteNumber":92,"Velocity":63,"Duration":87719,"SoundDuration":87719,"Delta":21032654},{"NoteNumber":87,"Velocity":72,"Duration":87719,"SoundDuration":87719,"Delta":21120373},{"NoteNumber":60,"Velocity":50,"Duration":263158,"SoundDuration":263158,"Delta":21120373},{"NoteNumber":68,"Velocity":60,"Duration":263158,"SoundDuration":263158,"Delta":21120373},{"NoteNumber":66,"Velocity":50,"Duration":263158,"SoundDuration":263158,"Delta":21120373},{"NoteNumber":99,"Velocity":67,"Duration":87719,"SoundDuration":87719,"Delta":21208093},{"NoteNumber":87,"Velocity":72,"Duration":87719,"SoundDuration":87719,"Delta":21295812},{"NoteNumber":85,"Velocity":81,"Duration":86206,"SoundDuration":86206,"Delta":21383531},{"NoteNumber":61,"Velocity":56,"Duration":258620,"SoundDuration":258620,"Delta":21383531},{"NoteNumber":65,"Velocity":56,"Duration":258620,"SoundDuration":258620,"Delta":21383531},{"NoteNumber":70,"Velocity":68,"Duration":258620,"SoundDuration":258620,"Delta":21383531},{"NoteNumber":87,"Velocity":73,"Duration":86206,"SoundDuration":86206,"Delta":21469738},{"NoteNumber":85,"Velocity":67,"Duration":86206,"SoundDuration":86206,"Delta":21555945},{"NoteNumber":80,"Velocity":77,"Duration":86206,"SoundDuration":86206,"Delta":21642152},{"NoteNumber":56,"Velocity":50,"Duration":258620,"SoundDuration":258620,"Delta":21642152},{"NoteNumber":65,"Velocity":50,"Duration":258620,"SoundDuration":258620,"Delta":21642152},{"NoteNumber":68,"Velocity":60,"Duration":258620,"SoundDuration":258620,"Delta":21642152},{"NoteNumber":92,"Velocity":75,"Duration":86206,"SoundDuration":86206,"Delta":21728359},{"NoteNumber":80,"Velocity":67,"Duration":86206,"SoundDuration":86206,"Delta":21814566},{"NoteNumber":80,"Velocity":79,"Duration":86206,"SoundDuration":86206,"Delta":21900772},{"NoteNumber":60,"Velocity":56,"Duration":258620,"SoundDuration":258620,"Delta":21900772},{"NoteNumber":66,"Velocity":56,"Duration":258620,"SoundDuration":258620,"Delta":21900772},{"NoteNumber":70,"Velocity":68,"Duration":258620,"SoundDuration":258620,"Delta":21900772},{"NoteNumber":82,"Velocity":70,"Duration":86206,"SoundDuration":86206,"Delta":21986979},{"NoteNumber":80,"Velocity":65,"Duration":86206,"SoundDuration":86206,"Delta":22073186},{"NoteNumber":75,"Velocity":73,"Duration":86206,"SoundDuration":86206,"Delta":22159393},{"NoteNumber":56,"Velocity":52,"Duration":258620,"SoundDuration":258620,"Delta":22159393},{"NoteNumber":68,"Velocity":62,"Duration":258620,"SoundDuration":258620,"Delta":22159393},{"NoteNumber":66,"Velocity":52,"Duration":258620,"SoundDuration":258620,"Delta":22159393},{"NoteNumber":87,"Velocity":68,"Duration":86206,"SoundDuration":86206,"Delta":22245600},{"NoteNumber":75,"Velocity":65,"Duration":86206,"SoundDuration":86206,"Delta":22331807},{"NoteNumber":73,"Velocity":75,"Duration":86206,"SoundDuration":86206,"Delta":22418013},{"NoteNumber":61,"Velocity":55,"Duration":258620,"SoundDuration":258620,"Delta":22418013},{"NoteNumber":65,"Velocity":64,"Duration":258620,"SoundDuration":258620,"Delta":22418013},{"NoteNumber":75,"Velocity":69,"Duration":86206,"SoundDuration":86206,"Delta":22504220},{"NoteNumber":73,"Velocity":63,"Duration":86206,"SoundDuration":86206,"Delta":22590427},{"NoteNumber":68,"Velocity":75,"Duration":355193,"SoundDuration":355193,"Delta":22676634},{"NoteNumber":56,"Velocity":62,"Duration":267856,"SoundDuration":267856,"Delta":22676634},{"NoteNumber":48,"Velocity":68,"Duration":131004,"SoundDuration":131004,"Delta":22944491},{"NoteNumber":80,"Velocity":67,"Duration":87336,"SoundDuration":87336,"Delta":23031827},{"NoteNumber":78,"Velocity":64,"Duration":87336,"SoundDuration":87336,"Delta":23119163},{"NoteNumber":80,"Velocity":75,"Duration":87336,"SoundDuration":87336,"Delta":23206499},{"NoteNumber":66,"Velocity":62,"Duration":131004,"SoundDuration":131004,"Delta":23206499},{"NoteNumber":63,"Velocity":52,"Duration":131004,"SoundDuration":131004,"Delta":23206499},{"NoteNumber":56,"Velocity":52,"Duration":131004,"SoundDuration":131004,"Delta":23213050},{"NoteNumber":78,"Velocity":68,"Duration":87336,"SoundDuration":87336,"Delta":23293836},{"NoteNumber":80,"Velocity":65,"Duration":87336,"SoundDuration":87336,"Delta":23381172},{"NoteNumber":90,"Velocity":82,"Duration":86206,"SoundDuration":86206,"Delta":23468508},{"NoteNumber":80,"Velocity":71,"Duration":86206,"SoundDuration":86206,"Delta":23554715},{"NoteNumber":78,"Velocity":65,"Duration":86206,"SoundDuration":86206,"Delta":23640922},{"NoteNumber":80,"Velocity":74,"Duration":86206,"SoundDuration":86206,"Delta":23727128},{"NoteNumber":36,"Velocity":70,"Duration":258620,"SoundDuration":258620,"Delta":23727128},{"NoteNumber":78,"Velocity":67,"Duration":86206,"SoundDuration":86206,"Delta":23813335},{"NoteNumber":80,"Velocity":64,"Duration":86206,"SoundDuration":86206,"Delta":23899542},{"NoteNumber":68,"Velocity":64,"Duration":88105,"SoundDuration":88105,"Delta":23985749},{"NoteNumber":48,"Velocity":72,"Duration":132158,"SoundDuration":132158,"Delta":23985749},{"NoteNumber":80,"Velocity":68,"Duration":88105,"SoundDuration":88105,"Delta":24073855},{"NoteNumber":78,"Velocity":63,"Duration":88105,"SoundDuration":88105,"Delta":24161960},{"NoteNumber":80,"Velocity":71,"Duration":86580,"SoundDuration":86580,"Delta":24250066},{"NoteNumber":63,"Velocity":57,"Duration":129870,"SoundDuration":129870,"Delta":24250066},{"NoteNumber":56,"Velocity":57,"Duration":129870,"SoundDuration":129870,"Delta":24250066},{"NoteNumber":66,"Velocity":69,"Duration":129870,"SoundDuration":129870,"Delta":24250066},{"NoteNumber":78,"Velocity":65,"Duration":86580,"SoundDuration":86580,"Delta":24336646},{"NoteNumber":80,"Velocity":62,"Duration":86580,"SoundDuration":86580,"Delta":24423226},{"NoteNumber":90,"Velocity":81,"Duration":86580,"SoundDuration":86580,"Delta":24509806},{"NoteNumber":80,"Velocity":67,"Duration":86580,"SoundDuration":86580,"Delta":24596387},{"NoteNumber":78,"Velocity":63,"Duration":86580,"SoundDuration":86580,"Delta":24682967},{"NoteNumber":80,"Velocity":69,"Duration":88888,"SoundDuration":88888,"Delta":24769547},{"NoteNumber":36,"Velocity":59,"Duration":266666,"SoundDuration":266666,"Delta":24769547},{"NoteNumber":48,"Velocity":70,"Duration":266666,"SoundDuration":266666,"Delta":24769547},{"NoteNumber":78,"Velocity":67,"Duration":88888,"SoundDuration":88888,"Delta":24858436},{"NoteNumber":80,"Velocity":64,"Duration":88888,"SoundDuration":88888,"Delta":24947325},{"NoteNumber":70,"Velocity":70,"Duration":88888,"SoundDuration":88888,"Delta":25036213},{"NoteNumber":37,"Velocity":63,"Duration":133333,"SoundDuration":133333,"Delta":25036213},{"NoteNumber":49,"Velocity":77,"Duration":133333,"SoundDuration":133333,"Delta":25036213},{"NoteNumber":82,"Velocity":74,"Duration":88888,"SoundDuration":88888,"Delta":25125102},{"NoteNumber":78,"Velocity":66,"Duration":88888,"SoundDuration":88888,"Delta":25213991},{"NoteNumber":82,"Velocity":74,"Duration":87336,"SoundDuration":87336,"Delta":25302880},{"NoteNumber":66,"Velocity":73,"Duration":262008,"SoundDuration":262008,"Delta":25302880},{"NoteNumber":61,"Velocity":62,"Duration":262008,"SoundDuration":262008,"Delta":25302880},{"NoteNumber":58,"Velocity":62,"Duration":262008,"SoundDuration":262008,"Delta":25302880},{"NoteNumber":78,"Velocity":70,"Duration":87336,"SoundDuration":87336,"Delta":25390216},{"NoteNumber":82,"Velocity":66,"Duration":87336,"SoundDuration":87336,"Delta":25477552},{"NoteNumber":90,"Velocity":83,"Duration":87336,"SoundDuration":87336,"Delta":25564888},{"NoteNumber":36,"Velocity":62,"Duration":262008,"SoundDuration":262008,"Delta":25564888},{"NoteNumber":48,"Velocity":73,"Duration":262008,"SoundDuration":262008,"Delta":25564888},{"NoteNumber":82,"Velocity":71,"Duration":87336,"SoundDuration":87336,"Delta":25652225},{"NoteNumber":78,"Velocity":68,"Duration":87336,"SoundDuration":87336,"Delta":25739561},{"NoteNumber":82,"Velocity":77,"Duration":87336,"SoundDuration":87336,"Delta":25826897},{"NoteNumber":37,"Velocity":61,"Duration":262008,"SoundDuration":262008,"Delta":25826897},{"NoteNumber":49,"Velocity":72,"Duration":262008,"SoundDuration":262008,"Delta":25826897},{"NoteNumber":78,"Velocity":72,"Duration":87336,"SoundDuration":87336,"Delta":25914233},{"NoteNumber":82,"Velocity":67,"Duration":87336,"SoundDuration":87336,"Delta":26001569},{"NoteNumber":70,"Velocity":73,"Duration":87336,"SoundDuration":87336,"Delta":26088905},{"NoteNumber":38,"Velocity":69,"Duration":262008,"SoundDuration":262008,"Delta":26088905},{"NoteNumber":50,"Velocity":81,"Duration":262008,"SoundDuration":262008,"Delta":26088905},{"NoteNumber":82,"Velocity":75,"Duration":87336,"SoundDuration":87336,"Delta":26176242},{"NoteNumber":78,"Velocity":72,"Duration":87336,"SoundDuration":87336,"Delta":26263578},{"NoteNumber":82,"Velocity":78,"Duration":87336,"SoundDuration":87336,"Delta":26350914},{"NoteNumber":66,"Velocity":77,"Duration":262008,"SoundDuration":262008,"Delta":26350914},{"NoteNumber":58,"Velocity":63,"Duration":262008,"SoundDuration":262008,"Delta":26350914},{"NoteNumber":78,"Velocity":72,"Duration":87336,"SoundDuration":87336,"Delta":26438250},{"NoteNumber":82,"Velocity":67,"Duration":87336,"SoundDuration":87336,"Delta":26525586},{"NoteNumber":90,"Velocity":85,"Duration":87336,"SoundDuration":87336,"Delta":26612922},{"NoteNumber":37,"Velocity":64,"Duration":262008,"SoundDuration":262008,"Delta":26612922},{"NoteNumber":49,"Velocity":78,"Duration":262008,"SoundDuration":262008,"Delta":26612922},{"NoteNumber":82,"Velocity":74,"Duration":87336,"SoundDuration":87336,"Delta":26700259},{"NoteNumber":78,"Velocity":71,"Duration":87336,"SoundDuration":87336,"Delta":26787595},{"NoteNumber":82,"Velocity":80,"Duration":87336,"SoundDuration":87336,"Delta":26874931},{"NoteNumber":38,"Velocity":63,"Duration":262008,"SoundDuration":262008,"Delta":26874931},{"NoteNumber":50,"Velocity":75,"Duration":262008,"SoundDuration":262008,"Delta":26874931},{"NoteNumber":78,"Velocity":77,"Duration":87336,"SoundDuration":87336,"Delta":26962267},{"NoteNumber":82,"Velocity":74,"Duration":87336,"SoundDuration":87336,"Delta":27049603},{"NoteNumber":78,"Velocity":80,"Duration":88495,"SoundDuration":88495,"Delta":27136939},{"NoteNumber":39,"Velocity":70,"Duration":265486,"SoundDuration":265486,"Delta":27136939},{"NoteNumber":51,"Velocity":82,"Duration":265486,"SoundDuration":265486,"Delta":27136939},{"NoteNumber":82,"Velocity":77,"Duration":88495,"SoundDuration":88495,"Delta":27225435},{"NoteNumber":78,"Velocity":78,"Duration":88495,"SoundDuration":88495,"Delta":27313930},{"NoteNumber":94,"Velocity":87,"Duration":66371,"SoundDuration":66371,"Delta":27402426},{"NoteNumber":66,"Velocity":80,"Duration":527494,"SoundDuration":527494,"Delta":27402426},{"NoteNumber":58,"Velocity":68,"Duration":527494,"SoundDuration":527494,"Delta":27402426},{"NoteNumber":82,"Velocity":76,"Duration":88495,"SoundDuration":88495,"Delta":27490921},{"NoteNumber":78,"Velocity":70,"Duration":88495,"SoundDuration":88495,"Delta":27579417},{"NoteNumber":92,"Velocity":89,"Duration":65502,"SoundDuration":65502,"Delta":27667912},{"NoteNumber":82,"Velocity":70,"Duration":87336,"SoundDuration":87336,"Delta":27755249},{"NoteNumber":78,"Velocity":73,"Duration":87336,"SoundDuration":87336,"Delta":27842585},{"NoteNumber":90,"Velocity":89,"Duration":65502,"SoundDuration":65502,"Delta":27929921},{"NoteNumber":39,"Velocity":69,"Duration":262008,"SoundDuration":262008,"Delta":27929921},{"NoteNumber":51,"Velocity":81,"Duration":262008,"SoundDuration":262008,"Delta":27929921},{"NoteNumber":82,"Velocity":78,"Duration":87336,"SoundDuration":87336,"Delta":28017257},{"NoteNumber":78,"Velocity":73,"Duration":87336,"SoundDuration":87336,"Delta":28104593},{"NoteNumber":85,"Velocity":80,"Duration":87336,"SoundDuration":87336,"Delta":28191929},{"NoteNumber":40,"Velocity":73,"Duration":262008,"SoundDuration":262008,"Delta":28191929},{"NoteNumber":52,"Velocity":88,"Duration":262008,"SoundDuration":262008,"Delta":28191929},{"NoteNumber":82,"Velocity":73,"Duration":87336,"SoundDuration":87336,"Delta":28279266},{"NoteNumber":78,"Velocity":76,"Duration":87336,"SoundDuration":87336,"Delta":28366602},{"NoteNumber":94,"Velocity":90,"Duration":65502,"SoundDuration":65502,"Delta":28453938},{"NoteNumber":66,"Velocity":84,"Duration":524017,"SoundDuration":524017,"Delta":28453938},{"NoteNumber":58,"Velocity":70,"Duration":524017,"SoundDuration":524017,"Delta":28453938},{"NoteNumber":82,"Velocity":76,"Duration":87336,"SoundDuration":87336,"Delta":28541274},{"NoteNumber":78,"Velocity":79,"Duration":87336,"SoundDuration":87336,"Delta":28628610},{"NoteNumber":92,"Velocity":94,"Duration":65502,"SoundDuration":65502,"Delta":28715946},{"NoteNumber":82,"Velocity":77,"Duration":87336,"SoundDuration":87336,"Delta":28803283},{"NoteNumber":78,"Velocity":76,"Duration":87336,"SoundDuration":87336,"Delta":28890619},{"NoteNumber":90,"Velocity":95,"Duration":65502,"SoundDuration":65502,"Delta":28977955},{"NoteNumber":40,"Velocity":71,"Duration":262008,"SoundDuration":262008,"Delta":28977955},{"NoteNumber":52,"Velocity":85,"Duration":262008,"SoundDuration":262008,"Delta":28977955},{"NoteNumber":82,"Velocity":76,"Duration":87336,"SoundDuration":87336,"Delta":29065291},{"NoteNumber":78,"Velocity":79,"Duration":87336,"SoundDuration":87336,"Delta":29152627},{"NoteNumber":73,"Velocity":87,"Duration":87336,"SoundDuration":87336,"Delta":29239963},{"NoteNumber":41,"Velocity":78,"Duration":131004,"SoundDuration":131004,"Delta":29239963},{"NoteNumber":53,"Velocity":91,"Duration":131004,"SoundDuration":131004,"Delta":29239963},{"NoteNumber":85,"Velocity":78,"Duration":87336,"SoundDuration":87336,"Delta":29327300},{"NoteNumber":82,"Velocity":75,"Duration":87336,"SoundDuration":87336,"Delta":29414636},{"NoteNumber":85,"Velocity":88,"Duration":87336,"SoundDuration":87336,"Delta":29501972},{"NoteNumber":65,"Velocity":88,"Duration":262008,"SoundDuration":262008,"Delta":29501972},{"NoteNumber":61,"Velocity":73,"Duration":262008,"SoundDuration":262008,"Delta":29501972},{"NoteNumber":58,"Velocity":73,"Duration":262008,"SoundDuration":262008,"Delta":29501972},{"NoteNumber":85,"Velocity":75,"Duration":87336,"SoundDuration":87336,"Delta":29589308},{"NoteNumber":97,"Velocity":80,"Duration":87336,"SoundDuration":87336,"Delta":29676644},{"NoteNumber":94,"Velocity":94,"Duration":87336,"SoundDuration":87336,"Delta":29763980},{"NoteNumber":40,"Velocity":77,"Duration":262008,"SoundDuration":262008,"Delta":29763980},{"NoteNumber":52,"Velocity":90,"Duration":262008,"SoundDuration":262008,"Delta":29763980},{"NoteNumber":97,"Velocity":77,"Duration":87336,"SoundDuration":87336,"Delta":29851317},{"NoteNumber":85,"Velocity":76,"Duration":87336,"SoundDuration":87336,"Delta":29938653},{"NoteNumber":85,"Velocity":89,"Duration":87336,"SoundDuration":87336,"Delta":30025989},{"NoteNumber":41,"Velocity":77,"Duration":262008,"SoundDuration":262008,"Delta":30025989},{"NoteNumber":53,"Velocity":90,"Duration":262008,"SoundDuration":262008,"Delta":30025989},{"NoteNumber":82,"Velocity":77,"Duration":87336,"SoundDuration":87336,"Delta":30113325},{"NoteNumber":85,"Velocity":82,"Duration":87336,"SoundDuration":87336,"Delta":30200661},{"NoteNumber":73,"Velocity":89,"Duration":87336,"SoundDuration":87336,"Delta":30287997},{"NoteNumber":42,"Velocity":82,"Duration":131004,"SoundDuration":131004,"Delta":30287997},{"NoteNumber":54,"Velocity":97,"Duration":131004,"SoundDuration":131004,"Delta":30287997},{"NoteNumber":85,"Velocity":85,"Duration":87336,"SoundDuration":87336,"Delta":30375334},{"NoteNumber":82,"Velocity":81,"Duration":87336,"SoundDuration":87336,"Delta":30462670},{"NoteNumber":85,"Velocity":90,"Duration":87336,"SoundDuration":87336,"Delta":30550006},{"NoteNumber":61,"Velocity":79,"Duration":131004,"SoundDuration":131004,"Delta":30550006},{"NoteNumber":64,"Velocity":94,"Duration":131004,"SoundDuration":131004,"Delta":30550006},{"NoteNumber":58,"Velocity":79,"Duration":131004,"SoundDuration":131004,"Delta":30550006},{"NoteNumber":85,"Velocity":85,"Duration":87336,"SoundDuration":87336,"Delta":30637342},{"NoteNumber":97,"Velocity":85,"Duration":87336,"SoundDuration":87336,"Delta":30724678},{"NoteNumber":94,"Velocity":101,"Duration":87336,"SoundDuration":87336,"Delta":30812014},{"NoteNumber":41,"Velocity":80,"Duration":262008,"SoundDuration":262008,"Delta":30812014},{"NoteNumber":53,"Velocity":95,"Duration":262008,"SoundDuration":262008,"Delta":30812014},{"NoteNumber":97,"Velocity":86,"Duration":87336,"SoundDuration":87336,"Delta":30899351},{"NoteNumber":85,"Velocity":84,"Duration":87336,"SoundDuration":87336,"Delta":30986687},{"NoteNumber":85,"Velocity":93,"Duration":87336,"SoundDuration":87336,"Delta":31074023},{"NoteNumber":42,"Velocity":78,"Duration":262008,"SoundDuration":262008,"Delta":31074023},{"NoteNumber":54,"Velocity":91,"Duration":262008,"SoundDuration":262008,"Delta":31074023},{"NoteNumber":82,"Velocity":85,"Duration":87336,"SoundDuration":87336,"Delta":31161359},{"NoteNumber":85,"Velocity":80,"Duration":87336,"SoundDuration":87336,"Delta":31248695},{"NoteNumber":73,"Velocity":94,"Duration":88888,"SoundDuration":88888,"Delta":31336031},{"NoteNumber":43,"Velocity":89,"Duration":266666,"SoundDuration":266666,"Delta":31336031},{"NoteNumber":55,"Velocity":105,"Duration":266666,"SoundDuration":266666,"Delta":31336031},{"NoteNumber":85,"Velocity":85,"Duration":88888,"SoundDuration":88888,"Delta":31424920},{"NoteNumber":82,"Velocity":81,"Duration":88888,"SoundDuration":88888,"Delta":31513809},{"NoteNumber":85,"Velocity":94,"Duration":88888,"SoundDuration":88888,"Delta":31602698},{"NoteNumber":64,"Velocity":96,"Duration":266666,"SoundDuration":266666,"Delta":31602698},{"NoteNumber":61,"Velocity":81,"Duration":266666,"SoundDuration":266666,"Delta":31602698},{"NoteNumber":55,"Velocity":81,"Duration":266666,"SoundDuration":266666,"Delta":31602698},{"NoteNumber":85,"Velocity":84,"Duration":88888,"SoundDuration":88888,"Delta":31691587},{"NoteNumber":97,"Velocity":80,"Duration":88888,"SoundDuration":88888,"Delta":31780476},{"NoteNumber":92,"Velocity":95,"Duration":88888,"SoundDuration":88888,"Delta":31869364},{"NoteNumber":44,"Velocity":81,"Duration":266666,"SoundDuration":266666,"Delta":31869364},{"NoteNumber":56,"Velocity":96,"Duration":266666,"SoundDuration":266666,"Delta":31869364},{"NoteNumber":97,"Velocity":85,"Duration":88888,"SoundDuration":88888,"Delta":31958253},{"NoteNumber":85,"Velocity":83,"Duration":88888,"SoundDuration":88888,"Delta":32047142},{"NoteNumber":85,"Velocity":95,"Duration":88888,"SoundDuration":88888,"Delta":32136031},{"NoteNumber":65,"Velocity":96,"Duration":266666,"SoundDuration":266666,"Delta":32136031},{"NoteNumber":61,"Velocity":81,"Duration":266666,"SoundDuration":266666,"Delta":32136031},{"NoteNumber":56,"Velocity":81,"Duration":266666,"SoundDuration":266666,"Delta":32136031},{"NoteNumber":80,"Velocity":90,"Duration":88888,"SoundDuration":88888,"Delta":32224920},{"NoteNumber":85,"Velocity":86,"Duration":88888,"SoundDuration":88888,"Delta":32313809},{"NoteNumber":73,"Velocity":97,"Duration":91743,"SoundDuration":91743,"Delta":32402697},{"NoteNumber":45,"Velocity":86,"Duration":275229,"SoundDuration":275229,"Delta":32402697},{"NoteNumber":57,"Velocity":103,"Duration":275229,"SoundDuration":275229,"Delta":32402697},{"NoteNumber":85,"Velocity":90,"Duration":91743,"SoundDuration":91743,"Delta":32494441},{"NoteNumber":78,"Velocity":85,"Duration":91743,"SoundDuration":91743,"Delta":32586184},{"NoteNumber":85,"Velocity":93,"Duration":91743,"SoundDuration":91743,"Delta":32677927},{"NoteNumber":66,"Velocity":94,"Duration":275229,"SoundDuration":275229,"Delta":32677927},{"NoteNumber":63,"Velocity":79,"Duration":275229,"SoundDuration":275229,"Delta":32677927},{"NoteNumber":57,"Velocity":79,"Duration":275229,"SoundDuration":275229,"Delta":32677927},{"NoteNumber":73,"Velocity":87,"Duration":91743,"SoundDuration":91743,"Delta":32769670},{"NoteNumber":73,"Velocity":84,"Duration":91743,"SoundDuration":91743,"Delta":32861413},{"NoteNumber":66,"Velocity":95,"Duration":91743,"SoundDuration":91743,"Delta":32953156},{"NoteNumber":73,"Velocity":90,"Duration":91743,"SoundDuration":91743,"Delta":33044900},{"NoteNumber":61,"Velocity":85,"Duration":91743,"SoundDuration":91743,"Delta":33136643},{"NoteNumber":61,"Velocity":100,"Duration":97560,"SoundDuration":97560,"Delta":33228386},{"NoteNumber":33,"Velocity":89,"Duration":292682,"SoundDuration":292682,"Delta":33228386},{"NoteNumber":45,"Velocity":106,"Duration":292682,"SoundDuration":292682,"Delta":33228386},{"NoteNumber":54,"Velocity":89,"Duration":97560,"SoundDuration":97560,"Delta":33325947},{"NoteNumber":61,"Velocity":85,"Duration":97560,"SoundDuration":97560,"Delta":33423508},{"NoteNumber":51,"Velocity":74,"Duration":88495,"SoundDuration":88495,"Delta":33521069},{"NoteNumber":32,"Velocity":89,"Duration":1061945,"SoundDuration":1061945,"Delta":33521069},{"NoteNumber":44,"Velocity":106,"Duration":1061945,"SoundDuration":1061945,"Delta":33521069},{"NoteNumber":54,"Velocity":71,"Duration":88495,"SoundDuration":88495,"Delta":33609564},{"NoteNumber":61,"Velocity":72,"Duration":88495,"SoundDuration":88495,"Delta":33698060},{"NoteNumber":63,"Velocity":77,"Duration":88495,"SoundDuration":88495,"Delta":33786555},{"NoteNumber":54,"Velocity":70,"Duration":88495,"SoundDuration":88495,"Delta":33875051},{"NoteNumber":61,"Velocity":72,"Duration":88495,"SoundDuration":88495,"Delta":33963546},{"NoteNumber":63,"Velocity":81,"Duration":88495,"SoundDuration":88495,"Delta":34052042},{"NoteNumber":66,"Velocity":78,"Duration":88495,"SoundDuration":88495,"Delta":34140537},{"NoteNumber":61,"Velocity":75,"Duration":88495,"SoundDuration":88495,"Delta":34229033},{"NoteNumber":63,"Velocity":83,"Duration":88495,"SoundDuration":88495,"Delta":34317528},{"NoteNumber":66,"Velocity":77,"Duration":88495,"SoundDuration":88495,"Delta":34406024},{"NoteNumber":73,"Velocity":73,"Duration":88495,"SoundDuration":88495,"Delta":34494519},{"NoteNumber":63,"Velocity":87,"Duration":88495,"SoundDuration":88495,"Delta":34583015},{"NoteNumber":66,"Velocity":80,"Duration":88495,"SoundDuration":88495,"Delta":34671510},{"NoteNumber":73,"Velocity":77,"Duration":88495,"SoundDuration":88495,"Delta":34760006},{"NoteNumber":75,"Velocity":89,"Duration":88495,"SoundDuration":88495,"Delta":34848501},{"NoteNumber":66,"Velocity":78,"Duration":88495,"SoundDuration":88495,"Delta":34936997},{"NoteNumber":73,"Velocity":75,"Duration":88495,"SoundDuration":88495,"Delta":35025492},{"NoteNumber":75,"Velocity":89,"Duration":91743,"SoundDuration":91743,"Delta":35113988},{"NoteNumber":66,"Velocity":100,"Duration":412844,"SoundDuration":412844,"Delta":35113988},{"NoteNumber":61,"Velocity":83,"Duration":412844,"SoundDuration":412844,"Delta":35113988},{"NoteNumber":56,"Velocity":83,"Duration":412844,"SoundDuration":412844,"Delta":35113988},{"NoteNumber":78,"Velocity":78,"Duration":91743,"SoundDuration":91743,"Delta":35205731},{"NoteNumber":73,"Velocity":76,"Duration":91743,"SoundDuration":91743,"Delta":35297474},{"NoteNumber":75,"Velocity":89,"Duration":91743,"SoundDuration":91743,"Delta":35389217},{"NoteNumber":85,"Velocity":78,"Duration":91743,"SoundDuration":91743,"Delta":35480961},{"NoteNumber":66,"Velocity":92,"Duration":137614,"SoundDuration":137614,"Delta":35526832},{"NoteNumber":61,"Velocity":77,"Duration":137614,"SoundDuration":137614,"Delta":35526832},{"NoteNumber":56,"Velocity":77,"Duration":137614,"SoundDuration":137614,"Delta":35526832},{"NoteNumber":78,"Velocity":75,"Duration":91743,"SoundDuration":91743,"Delta":35572704},{"NoteNumber":75,"Velocity":89,"Duration":88495,"SoundDuration":88495,"Delta":35664447},{"NoteNumber":56,"Velocity":83,"Duration":1061945,"SoundDuration":1061945,"Delta":35664447},{"NoteNumber":66,"Velocity":100,"Duration":1061945,"SoundDuration":1061945,"Delta":35664447},{"NoteNumber":61,"Velocity":83,"Duration":1061945,"SoundDuration":1061945,"Delta":35664447},{"NoteNumber":78,"Velocity":81,"Duration":88495,"SoundDuration":88495,"Delta":35752942},{"NoteNumber":87,"Velocity":86,"Duration":88495,"SoundDuration":88495,"Delta":35841438},{"NoteNumber":85,"Velocity":85,"Duration":88495,"SoundDuration":88495,"Delta":35929933},{"NoteNumber":78,"Velocity":78,"Duration":88495,"SoundDuration":88495,"Delta":36018429},{"NoteNumber":75,"Velocity":84,"Duration":88495,"SoundDuration":88495,"Delta":36106924},{"NoteNumber":85,"Velocity":81,"Duration":88495,"SoundDuration":88495,"Delta":36195420},{"NoteNumber":78,"Velocity":76,"Duration":88495,"SoundDuration":88495,"Delta":36283915},{"NoteNumber":75,"Velocity":71,"Duration":88495,"SoundDuration":88495,"Delta":36372411},{"NoteNumber":73,"Velocity":78,"Duration":88495,"SoundDuration":88495,"Delta":36460906},{"NoteNumber":78,"Velocity":71,"Duration":88495,"SoundDuration":88495,"Delta":36549402},{"NoteNumber":75,"Velocity":75,"Duration":88495,"SoundDuration":88495,"Delta":36637897},{"NoteNumber":73,"Velocity":74,"Duration":88495,"SoundDuration":88495,"Delta":36726393},{"NoteNumber":66,"Velocity":69,"Duration":88495,"SoundDuration":88495,"Delta":36814888},{"NoteNumber":75,"Velocity":72,"Duration":88495,"SoundDuration":88495,"Delta":36903384},{"NoteNumber":73,"Velocity":71,"Duration":88495,"SoundDuration":88495,"Delta":36991879},{"NoteNumber":66,"Velocity":66,"Duration":88495,"SoundDuration":88495,"Delta":37080375},{"NoteNumber":63,"Velocity":69,"Duration":88495,"SoundDuration":88495,"Delta":37168870},{"NoteNumber":73,"Velocity":67,"Duration":91743,"SoundDuration":91743,"Delta":37257366},{"NoteNumber":66,"Velocity":61,"Duration":91743,"SoundDuration":91743,"Delta":37349109},{"NoteNumber":63,"Velocity":65,"Duration":91743,"SoundDuration":91743,"Delta":37440852},{"NoteNumber":61,"Velocity":64,"Duration":91743,"SoundDuration":91743,"Delta":37532595},{"NoteNumber":66,"Velocity":59,"Duration":91743,"SoundDuration":91743,"Delta":37624339},{"NoteNumber":63,"Velocity":62,"Duration":91743,"SoundDuration":91743,"Delta":37716082},{"NoteNumber":56,"Velocity":52,"Duration":88495,"SoundDuration":88495,"Delta":37807825},{"NoteNumber":32,"Velocity":52,"Duration":1061945,"SoundDuration":1061945,"Delta":37807825},{"NoteNumber":44,"Velocity":62,"Duration":1061945,"SoundDuration":1061945,"Delta":37807825},{"NoteNumber":63,"Velocity":54,"Duration":88495,"SoundDuration":88495,"Delta":37896320},{"NoteNumber":66,"Velocity":54,"Duration":88495,"SoundDuration":88495,"Delta":37984816},{"NoteNumber":68,"Velocity":56,"Duration":88495,"SoundDuration":88495,"Delta":38073311},{"NoteNumber":63,"Velocity":56,"Duration":88495,"SoundDuration":88495,"Delta":38161807},{"NoteNumber":66,"Velocity":54,"Duration":88495,"SoundDuration":88495,"Delta":38250302},{"NoteNumber":68,"Velocity":58,"Duration":88495,"SoundDuration":88495,"Delta":38338798},{"NoteNumber":75,"Velocity":58,"Duration":88495,"SoundDuration":88495,"Delta":38427293},{"NoteNumber":66,"Velocity":56,"Duration":88495,"SoundDuration":88495,"Delta":38515789},{"NoteNumber":68,"Velocity":60,"Duration":88495,"SoundDuration":88495,"Delta":38604284},{"NoteNumber":75,"Velocity":60,"Duration":88495,"SoundDuration":88495,"Delta":38692780},{"NoteNumber":78,"Velocity":58,"Duration":88495,"SoundDuration":88495,"Delta":38781275},{"NoteNumber":68,"Velocity":62,"Duration":88495,"SoundDuration":88495,"Delta":38869771},{"NoteNumber":75,"Velocity":58,"Duration":88495,"SoundDuration":88495,"Delta":38958266},{"NoteNumber":78,"Velocity":62,"Duration":88495,"SoundDuration":88495,"Delta":39046762},{"NoteNumber":80,"Velocity":62,"Duration":88495,"SoundDuration":88495,"Delta":39135257},{"NoteNumber":75,"Velocity":54,"Duration":88495,"SoundDuration":88495,"Delta":39223753},{"NoteNumber":78,"Velocity":58,"Duration":88495,"SoundDuration":88495,"Delta":39312248},{"NoteNumber":80,"Velocity":62,"Duration":88495,"SoundDuration":88495,"Delta":39400744},{"NoteNumber":56,"Velocity":52,"Duration":398229,"SoundDuration":398229,"Delta":39400744},{"NoteNumber":66,"Velocity":52,"Duration":398229,"SoundDuration":398229,"Delta":39400744},{"NoteNumber":60,"Velocity":52,"Duration":398229,"SoundDuration":398229,"Delta":39400744},{"NoteNumber":68,"Velocity":62,"Duration":398229,"SoundDuration":398229,"Delta":39400744},{"NoteNumber":87,"Velocity":65,"Duration":88495,"SoundDuration":88495,"Delta":39489239},{"NoteNumber":78,"Velocity":60,"Duration":88495,"SoundDuration":88495,"Delta":39577735},{"NoteNumber":80,"Velocity":62,"Duration":88495,"SoundDuration":88495,"Delta":39666230},{"NoteNumber":90,"Velocity":58,"Duration":88495,"SoundDuration":88495,"Delta":39754726},{"NoteNumber":68,"Velocity":57,"Duration":132743,"SoundDuration":132743,"Delta":39798974},{"NoteNumber":66,"Velocity":48,"Duration":132743,"SoundDuration":132743,"Delta":39798974},{"NoteNumber":60,"Velocity":48,"Duration":132743,"SoundDuration":132743,"Delta":39798974},{"NoteNumber":56,"Velocity":48,"Duration":132743,"SoundDuration":132743,"Delta":39798974},{"NoteNumber":87,"Velocity":59,"Duration":88495,"SoundDuration":88495,"Delta":39843221},{"NoteNumber":80,"Velocity":59,"Duration":88495,"SoundDuration":88495,"Delta":39931717},{"NoteNumber":68,"Velocity":62,"Duration":884955,"SoundDuration":884955,"Delta":39931717},{"NoteNumber":66,"Velocity":52,"Duration":1061946,"SoundDuration":1061946,"Delta":39931717},{"NoteNumber":60,"Velocity":52,"Duration":1061946,"SoundDuration":1061946,"Delta":39931717},{"NoteNumber":56,"Velocity":52,"Duration":1061946,"SoundDuration":1061946,"Delta":39931717},{"NoteNumber":78,"Velocity":59,"Duration":88495,"SoundDuration":88495,"Delta":40020212},{"NoteNumber":87,"Velocity":58,"Duration":88495,"SoundDuration":88495,"Delta":40108708},{"NoteNumber":80,"Velocity":58,"Duration":88495,"SoundDuration":88495,"Delta":40197203},{"NoteNumber":78,"Velocity":57,"Duration":88495,"SoundDuration":88495,"Delta":40285699},{"NoteNumber":75,"Velocity":56,"Duration":88495,"SoundDuration":88495,"Delta":40374194},{"NoteNumber":80,"Velocity":56,"Duration":88495,"SoundDuration":88495,"Delta":40462690},{"NoteNumber":78,"Velocity":56,"Duration":88495,"SoundDuration":88495,"Delta":40551185},{"NoteNumber":75,"Velocity":54,"Duration":88495,"SoundDuration":88495,"Delta":40639681},{"NoteNumber":68,"Velocity":54,"Duration":265486,"SoundDuration":265486,"Delta":40728176},{"NoteNumber":78,"Velocity":52,"Duration":88495,"SoundDuration":88495,"Delta":40816672},{"NoteNumber":75,"Velocity":52,"Duration":88495,"SoundDuration":88495,"Delta":40905167},{"NoteNumber":68,"Velocity":52,"Duration":88105,"SoundDuration":88105,"Delta":40993663},{"NoteNumber":66,"Velocity":51,"Duration":88300,"SoundDuration":88300,"Delta":41081769},{"NoteNumber":75,"Velocity":51,"Duration":88495,"SoundDuration":88495,"Delta":41170069},{"NoteNumber":68,"Velocity":50,"Duration":88888,"SoundDuration":88888,"Delta":41258565},{"NoteNumber":66,"Velocity":49,"Duration":89087,"SoundDuration":89087,"Delta":41347454},{"NoteNumber":63,"Velocity":49,"Duration":89285,"SoundDuration":89285,"Delta":41436541},{"NoteNumber":68,"Velocity":48,"Duration":89686,"SoundDuration":89686,"Delta":41525826},{"NoteNumber":66,"Velocity":48,"Duration":90293,"SoundDuration":90293,"Delta":41615513},{"NoteNumber":63,"Velocity":48,"Duration":91116,"SoundDuration":91116,"Delta":41705807},{"NoteNumber":56,"Velocity":46,"Duration":91533,"SoundDuration":91533,"Delta":41796923},{"NoteNumber":66,"Velocity":46,"Duration":92379,"SoundDuration":92379,"Delta":41888457},{"NoteNumber":63,"Velocity":44,"Duration":93023,"SoundDuration":93023,"Delta":41980836},{"NoteNumber":61,"Velocity":65,"Duration":97002,"SoundDuration":97002,"Delta":42073859},{"NoteNumber":37,"Velocity":63,"Duration":145504,"SoundDuration":145504,"Delta":42073859},{"NoteNumber":73,"Velocity":59,"Duration":97002,"SoundDuration":97002,"Delta":42170862},{"NoteNumber":68,"Velocity":55,"Duration":97002,"SoundDuration":97002,"Delta":42267865},{"NoteNumber":73,"Velocity":65,"Duration":97002,"SoundDuration":97002,"Delta":42364867},{"NoteNumber":65,"Velocity":59,"Duration":97002,"SoundDuration":97002,"Delta":42461870},{"NoteNumber":80,"Velocity":58,"Duration":97002,"SoundDuration":97002,"Delta":42558873},{"NoteNumber":73,"Velocity":70,"Duration":88339,"SoundDuration":88339,"Delta":42655875},{"NoteNumber":65,"Velocity":70,"Duration":1060070,"SoundDuration":1060070,"Delta":42655875},{"NoteNumber":56,"Velocity":59,"Duration":1060070,"SoundDuration":1060070,"Delta":42655875},{"NoteNumber":80,"Velocity":66,"Duration":88339,"SoundDuration":88339,"Delta":42744215},{"NoteNumber":68,"Velocity":66,"Duration":88339,"SoundDuration":88339,"Delta":42832554},{"NoteNumber":73,"Velocity":70,"Duration":88339,"SoundDuration":88339,"Delta":42920893},{"NoteNumber":68,"Velocity":66,"Duration":88339,"SoundDuration":88339,"Delta":43009232},{"NoteNumber":73,"Velocity":62,"Duration":88339,"SoundDuration":88339,"Delta":43097571},{"NoteNumber":61,"Velocity":65,"Duration":88339,"SoundDuration":88339,"Delta":43185910},{"NoteNumber":73,"Velocity":63,"Duration":88339,"SoundDuration":88339,"Delta":43274250},{"NoteNumber":68,"Velocity":58,"Duration":88339,"SoundDuration":88339,"Delta":43362589},{"NoteNumber":73,"Velocity":65,"Duration":88339,"SoundDuration":88339,"Delta":43450928},{"NoteNumber":68,"Velocity":63,"Duration":88339,"SoundDuration":88339,"Delta":43539267},{"NoteNumber":80,"Velocity":57,"Duration":88339,"SoundDuration":88339,"Delta":43627606},{"NoteNumber":73,"Velocity":65,"Duration":89952,"SoundDuration":89952,"Delta":43715945},{"NoteNumber":64,"Velocity":63,"Duration":404785,"SoundDuration":404785,"Delta":43715945},{"NoteNumber":55,"Velocity":53,"Duration":404785,"SoundDuration":404785,"Delta":43715945},{"NoteNumber":80,"Velocity":59,"Duration":89952,"SoundDuration":89952,"Delta":43805898},{"NoteNumber":68,"Velocity":55,"Duration":89952,"SoundDuration":89952,"Delta":43895850},{"NoteNumber":73,"Velocity":65,"Duration":89952,"SoundDuration":89952,"Delta":43985802},{"NoteNumber":68,"Velocity":63,"Duration":89952,"SoundDuration":89952,"Delta":44075755},{"NoteNumber":65,"Velocity":63,"Duration":134928,"SoundDuration":134928,"Delta":44120731},{"NoteNumber":56,"Velocity":53,"Duration":134928,"SoundDuration":134928,"Delta":44120731},{"NoteNumber":73,"Velocity":58,"Duration":89952,"SoundDuration":89952,"Delta":44165707},{"NoteNumber":61,"Velocity":65,"Duration":92902,"SoundDuration":92902,"Delta":44255659},{"NoteNumber":49,"Velocity":63,"Duration":139353,"SoundDuration":139353,"Delta":44255659},{"NoteNumber":73,"Velocity":58,"Duration":92902,"SoundDuration":92902,"Delta":44348562},{"NoteNumber":68,"Velocity":56,"Duration":92902,"SoundDuration":92902,"Delta":44441464},{"NoteNumber":73,"Velocity":65,"Duration":92902,"SoundDuration":92902,"Delta":44534366},{"NoteNumber":73,"Velocity":58,"Duration":92902,"SoundDuration":92902,"Delta":44627269},{"NoteNumber":85,"Velocity":55,"Duration":92902,"SoundDuration":92902,"Delta":44720171},{"NoteNumber":80,"Velocity":71,"Duration":88339,"SoundDuration":88339,"Delta":44813073},{"NoteNumber":65,"Velocity":72,"Duration":1060070,"SoundDuration":1060070,"Delta":44813073},{"NoteNumber":56,"Velocity":61,"Duration":1060070,"SoundDuration":1060070,"Delta":44813073},{"NoteNumber":85,"Velocity":64,"Duration":88339,"SoundDuration":88339,"Delta":44901413},{"NoteNumber":73,"Velocity":62,"Duration":88339,"SoundDuration":88339,"Delta":44989752},{"NoteNumber":73,"Velocity":71,"Duration":88339,"SoundDuration":88339,"Delta":45078091},{"NoteNumber":68,"Velocity":67,"Duration":88339,"SoundDuration":88339,"Delta":45166430},{"NoteNumber":73,"Velocity":62,"Duration":88339,"SoundDuration":88339,"Delta":45254769},{"NoteNumber":68,"Velocity":65,"Duration":88339,"SoundDuration":88339,"Delta":45343108},{"NoteNumber":80,"Velocity":59,"Duration":88339,"SoundDuration":88339,"Delta":45431448},{"NoteNumber":73,"Velocity":54,"Duration":88339,"SoundDuration":88339,"Delta":45519787},{"NoteNumber":80,"Velocity":65,"Duration":88339,"SoundDuration":88339,"Delta":45608126},{"NoteNumber":80,"Velocity":58,"Duration":88339,"SoundDuration":88339,"Delta":45696465},{"NoteNumber":92,"Velocity":59,"Duration":88339,"SoundDuration":88339,"Delta":45784804},{"NoteNumber":85,"Velocity":65,"Duration":90358,"SoundDuration":90358,"Delta":45873143},{"NoteNumber":64,"Velocity":75,"Duration":406613,"SoundDuration":406613,"Delta":45873143},{"NoteNumber":55,"Velocity":63,"Duration":406613,"SoundDuration":406613,"Delta":45873143},{"NoteNumber":92,"Velocity":57,"Duration":90358,"SoundDuration":90358,"Delta":45963502},{"NoteNumber":80,"Velocity":60,"Duration":90358,"SoundDuration":90358,"Delta":46053861},{"NoteNumber":80,"Velocity":65,"Duration":90358,"SoundDuration":90358,"Delta":46144219},{"NoteNumber":73,"Velocity":63,"Duration":90358,"SoundDuration":90358,"Delta":46234578},{"NoteNumber":56,"Velocity":57,"Duration":135538,"SoundDuration":135538,"Delta":46279757},{"NoteNumber":65,"Velocity":69,"Duration":135538,"SoundDuration":135538,"Delta":46279757},{"NoteNumber":80,"Velocity":56,"Duration":90358,"SoundDuration":90358,"Delta":46324937},{"NoteNumber":73,"Velocity":65,"Duration":92165,"SoundDuration":92165,"Delta":46415295},{"NoteNumber":53,"Velocity":77,"Duration":138248,"SoundDuration":138248,"Delta":46415295},{"NoteNumber":75,"Velocity":62,"Duration":92165,"SoundDuration":92165,"Delta":46507461},{"NoteNumber":73,"Velocity":57,"Duration":92165,"SoundDuration":92165,"Delta":46599627},{"NoteNumber":87,"Velocity":64,"Duration":88495,"SoundDuration":88495,"Delta":46691793},{"NoteNumber":65,"Velocity":63,"Duration":265486,"SoundDuration":265486,"Delta":46691793},{"NoteNumber":56,"Velocity":53,"Duration":265486,"SoundDuration":265486,"Delta":46691793},{"NoteNumber":61,"Velocity":53,"Duration":265486,"SoundDuration":265486,"Delta":46691793},{"NoteNumber":85,"Velocity":61,"Duration":88495,"SoundDuration":88495,"Delta":46780288},{"NoteNumber":99,"Velocity":61,"Duration":88495,"SoundDuration":88495,"Delta":46868784},{"NoteNumber":97,"Velocity":73,"Duration":90497,"SoundDuration":90497,"Delta":46957279},{"NoteNumber":57,"Velocity":59,"Duration":271492,"SoundDuration":271492,"Delta":46957279},{"NoteNumber":61,"Velocity":59,"Duration":271492,"SoundDuration":271492,"Delta":46957279},{"NoteNumber":66,"Velocity":70,"Duration":271492,"SoundDuration":271492,"Delta":46957279},{"NoteNumber":99,"Velocity":65,"Duration":90497,"SoundDuration":90497,"Delta":47047777},{"NoteNumber":97,"Velocity":66,"Duration":90497,"SoundDuration":90497,"Delta":47138275},{"NoteNumber":85,"Velocity":80,"Duration":94687,"SoundDuration":94687,"Delta":47228772},{"NoteNumber":58,"Velocity":62,"Duration":284064,"SoundDuration":284064,"Delta":47228772},{"NoteNumber":61,"Velocity":62,"Duration":284064,"SoundDuration":284064,"Delta":47228772},{"NoteNumber":67,"Velocity":75,"Duration":284064,"SoundDuration":284064,"Delta":47228772},{"NoteNumber":87,"Velocity":75,"Duration":94688,"SoundDuration":94688,"Delta":47323460},{"NoteNumber":85,"Velocity":70,"Duration":94687,"SoundDuration":94687,"Delta":47418148},{"NoteNumber":73,"Velocity":81,"Duration":91616,"SoundDuration":91616,"Delta":47512836},{"NoteNumber":59,"Velocity":70,"Duration":549702,"SoundDuration":549702,"Delta":47512836},{"NoteNumber":61,"Velocity":70,"Duration":549702,"SoundDuration":549702,"Delta":47512836},{"NoteNumber":68,"Velocity":84,"Duration":549702,"SoundDuration":549702,"Delta":47512836},{"NoteNumber":75,"Velocity":77,"Duration":91616,"SoundDuration":91616,"Delta":47604453},{"NoteNumber":73,"Velocity":73,"Duration":91616,"SoundDuration":91616,"Delta":47696070},{"NoteNumber":87,"Velocity":78,"Duration":91616,"SoundDuration":91616,"Delta":47787687},{"NoteNumber":85,"Velocity":70,"Duration":91616,"SoundDuration":91616,"Delta":47879304},{"NoteNumber":99,"Velocity":74,"Duration":91617,"SoundDuration":91617,"Delta":47970921},{"NoteNumber":97,"Velocity":73,"Duration":89952,"SoundDuration":89952,"Delta":48062538},{"NoteNumber":58,"Velocity":64,"Duration":269857,"SoundDuration":269857,"Delta":48062538},{"NoteNumber":61,"Velocity":64,"Duration":269857,"SoundDuration":269857,"Delta":48062538},{"NoteNumber":67,"Velocity":77,"Duration":269857,"SoundDuration":269857,"Delta":48062538},{"NoteNumber":99,"Velocity":70,"Duration":89952,"SoundDuration":89952,"Delta":48152491},{"NoteNumber":97,"Velocity":66,"Duration":89952,"SoundDuration":89952,"Delta":48242443},{"NoteNumber":85,"Velocity":70,"Duration":91616,"SoundDuration":91616,"Delta":48332396},{"NoteNumber":57,"Velocity":61,"Duration":274850,"SoundDuration":274850,"Delta":48332396},{"NoteNumber":61,"Velocity":61,"Duration":274850,"SoundDuration":274850,"Delta":48332396},{"NoteNumber":66,"Velocity":72,"Duration":274850,"SoundDuration":274850,"Delta":48332396},{"NoteNumber":87,"Velocity":67,"Duration":91616,"SoundDuration":91616,"Delta":48424013},{"NoteNumber":85,"Velocity":66,"Duration":91616,"SoundDuration":91616,"Delta":48515630},{"NoteNumber":97,"Velocity":65,"Duration":93344,"SoundDuration":93344,"Delta":48607246},{"NoteNumber":56,"Velocity":57,"Duration":140016,"SoundDuration":140016,"Delta":48607246},{"NoteNumber":61,"Velocity":57,"Duration":140016,"SoundDuration":140016,"Delta":48607246},{"NoteNumber":65,"Velocity":69,"Duration":140016,"SoundDuration":140016,"Delta":48607246},{"NoteNumber":99,"Velocity":65,"Duration":93344,"SoundDuration":93344,"Delta":48700591},{"NoteNumber":97,"Velocity":62,"Duration":93344,"SoundDuration":93344,"Delta":48793936},{"NoteNumber":85,"Velocity":66,"Duration":91191,"SoundDuration":91191,"Delta":48887280},{"NoteNumber":49,"Velocity":63,"Duration":136786,"SoundDuration":136786,"Delta":48887280},{"NoteNumber":87,"Velocity":69,"Duration":91190,"SoundDuration":91190,"Delta":48978471},{"NoteNumber":85,"Velocity":65,"Duration":91191,"SoundDuration":91191,"Delta":49069662},{"NoteNumber":97,"Velocity":71,"Duration":93344,"SoundDuration":93344,"Delta":49160853},{"NoteNumber":59,"Velocity":56,"Duration":567115,"SoundDuration":567115,"Delta":49160853},{"NoteNumber":61,"Velocity":56,"Duration":567115,"SoundDuration":567115,"Delta":49160853},{"NoteNumber":65,"Velocity":56,"Duration":567115,"SoundDuration":567115,"Delta":49160853},{"NoteNumber":68,"Velocity":66,"Duration":280033,"SoundDuration":280033,"Delta":49160853},{"NoteNumber":99,"Velocity":68,"Duration":93344,"SoundDuration":93344,"Delta":49254198},{"NoteNumber":97,"Velocity":72,"Duration":93344,"SoundDuration":93344,"Delta":49347542},{"NoteNumber":85,"Velocity":75,"Duration":95693,"SoundDuration":95693,"Delta":49440887},{"NoteNumber":70,"Velocity":71,"Duration":287081,"SoundDuration":287081,"Delta":49440887},{"NoteNumber":87,"Velocity":72,"Duration":95693,"SoundDuration":95693,"Delta":49536580},{"NoteNumber":85,"Velocity":68,"Duration":95693,"SoundDuration":95693,"Delta":49632274},{"NoteNumber":97,"Velocity":79,"Duration":96061,"SoundDuration":96061,"Delta":49727968},{"NoteNumber":59,"Velocity":64,"Duration":1172684,"SoundDuration":1172684,"Delta":49727968},{"NoteNumber":61,"Velocity":64,"Duration":1172684,"SoundDuration":1172684,"Delta":49727968},{"NoteNumber":65,"Velocity":64,"Duration":1172684,"SoundDuration":1172684,"Delta":49727968},{"NoteNumber":71,"Velocity":77,"Duration":576368,"SoundDuration":576368,"Delta":49727968},{"NoteNumber":99,"Velocity":75,"Duration":96061,"SoundDuration":96061,"Delta":49824029},{"NoteNumber":97,"Velocity":70,"Duration":96061,"SoundDuration":96061,"Delta":49920091},{"NoteNumber":85,"Velocity":74,"Duration":96061,"SoundDuration":96061,"Delta":50016153},{"NoteNumber":87,"Velocity":69,"Duration":96061,"SoundDuration":96061,"Delta":50112214},{"NoteNumber":85,"Velocity":68,"Duration":96061,"SoundDuration":96061,"Delta":50208276},{"NoteNumber":97,"Velocity":71,"Duration":96061,"SoundDuration":96061,"Delta":50304337},{"NoteNumber":70,"Velocity":72,"Duration":288184,"SoundDuration":288184,"Delta":50304337},{"NoteNumber":99,"Velocity":67,"Duration":96061,"SoundDuration":96061,"Delta":50400398},{"NoteNumber":97,"Velocity":64,"Duration":96061,"SoundDuration":96061,"Delta":50496460},{"NoteNumber":85,"Velocity":67,"Duration":102532,"SoundDuration":102532,"Delta":50592522},{"NoteNumber":68,"Velocity":71,"Duration":308131,"SoundDuration":308131,"Delta":50592522},{"NoteNumber":87,"Velocity":66,"Duration":102532,"SoundDuration":102532,"Delta":50695054},{"NoteNumber":85,"Velocity":65,"Duration":103066,"SoundDuration":103066,"Delta":50797586},{"NoteNumber":90,"Velocity":96,"Duration":89686,"SoundDuration":89686,"Delta":50901774},{"NoteNumber":54,"Velocity":73,"Duration":100896,"SoundDuration":100896,"Delta":50901774},{"NoteNumber":66,"Velocity":87,"Duration":100896,"SoundDuration":100896,"Delta":50901774},{"NoteNumber":61,"Velocity":73,"Duration":100896,"SoundDuration":100896,"Delta":50901774},{"NoteNumber":58,"Velocity":73,"Duration":100896,"SoundDuration":100896,"Delta":50901774},{"NoteNumber":94,"Velocity":70,"Duration":89686,"SoundDuration":89686,"Delta":50990339},{"NoteNumber":85,"Velocity":70,"Duration":89686,"SoundDuration":89686,"Delta":51080025},{"NoteNumber":90,"Velocity":92,"Duration":86206,"SoundDuration":86206,"Delta":51169711},{"NoteNumber":63,"Velocity":70,"Duration":96982,"SoundDuration":96982,"Delta":51169711},{"NoteNumber":59,"Velocity":70,"Duration":96982,"SoundDuration":96982,"Delta":51169711},{"NoteNumber":54,"Velocity":70,"Duration":96982,"SoundDuration":96982,"Delta":51169711},{"NoteNumber":66,"Velocity":83,"Duration":96982,"SoundDuration":96982,"Delta":51169711},{"NoteNumber":87,"Velocity":74,"Duration":86206,"SoundDuration":86206,"Delta":51255918},{"NoteNumber":90,"Velocity":70,"Duration":86206,"SoundDuration":86206,"Delta":51342125},{"NoteNumber":85,"Velocity":97,"Duration":86206,"SoundDuration":86206,"Delta":51428332},{"NoteNumber":61,"Velocity":73,"Duration":96982,"SoundDuration":96982,"Delta":51428332},{"NoteNumber":66,"Velocity":87,"Duration":96982,"SoundDuration":96982,"Delta":51428332},{"NoteNumber":58,"Velocity":73,"Duration":96982,"SoundDuration":96982,"Delta":51428332},{"NoteNumber":54,"Velocity":73,"Duration":96982,"SoundDuration":96982,"Delta":51428332},{"NoteNumber":90,"Velocity":74,"Duration":86206,"SoundDuration":86206,"Delta":51514538},{"NoteNumber":82,"Velocity":71,"Duration":86206,"SoundDuration":86206,"Delta":51600745},{"NoteNumber":85,"Velocity":84,"Duration":86206,"SoundDuration":86206,"Delta":51686952},{"NoteNumber":78,"Velocity":73,"Duration":86206,"SoundDuration":86206,"Delta":51773159},{"NoteNumber":82,"Velocity":70,"Duration":86206,"SoundDuration":86206,"Delta":51859366},{"NoteNumber":78,"Velocity":74,"Duration":86206,"SoundDuration":86206,"Delta":51945573},{"NoteNumber":42,"Velocity":47,"Duration":96982,"SoundDuration":96982,"Delta":51945573},{"NoteNumber":54,"Velocity":56,"Duration":96982,"SoundDuration":96982,"Delta":51945573},{"NoteNumber":82,"Velocity":69,"Duration":86206,"SoundDuration":86206,"Delta":52031779},{"NoteNumber":73,"Velocity":66,"Duration":86206,"SoundDuration":86206,"Delta":52117986},{"NoteNumber":78,"Velocity":69,"Duration":86206,"SoundDuration":86206,"Delta":52204193},{"NoteNumber":66,"Velocity":51,"Duration":96982,"SoundDuration":96982,"Delta":52204193},{"NoteNumber":63,"Velocity":42,"Duration":96982,"SoundDuration":96982,"Delta":52204193},{"NoteNumber":59,"Velocity":42,"Duration":96982,"SoundDuration":96982,"Delta":52204193},{"NoteNumber":75,"Velocity":66,"Duration":86206,"SoundDuration":86206,"Delta":52290400},{"NoteNumber":78,"Velocity":63,"Duration":86206,"SoundDuration":86206,"Delta":52376607},{"NoteNumber":73,"Velocity":74,"Duration":86206,"SoundDuration":86206,"Delta":52462814},{"NoteNumber":66,"Velocity":56,"Duration":96982,"SoundDuration":96982,"Delta":52462814},{"NoteNumber":61,"Velocity":47,"Duration":96982,"SoundDuration":96982,"Delta":52462814},{"NoteNumber":58,"Velocity":47,"Duration":96982,"SoundDuration":96982,"Delta":52462814},{"NoteNumber":78,"Velocity":68,"Duration":86206,"SoundDuration":86206,"Delta":52549020},{"NoteNumber":70,"Velocity":63,"Duration":86206,"SoundDuration":86206,"Delta":52635227},{"NoteNumber":73,"Velocity":74,"Duration":86206,"SoundDuration":86206,"Delta":52721434},{"NoteNumber":66,"Velocity":64,"Duration":86206,"SoundDuration":86206,"Delta":52807641},{"NoteNumber":70,"Velocity":61,"Duration":86206,"SoundDuration":86206,"Delta":52893848},{"NoteNumber":61,"Velocity":74,"Duration":86206,"SoundDuration":86206,"Delta":52980055},{"NoteNumber":37,"Velocity":48,"Duration":96982,"SoundDuration":96982,"Delta":52980055},{"NoteNumber":49,"Velocity":59,"Duration":96982,"SoundDuration":96982,"Delta":52980055},{"NoteNumber":73,"Velocity":72,"Duration":86206,"SoundDuration":86206,"Delta":53066261},{"NoteNumber":68,"Velocity":67,"Duration":86206,"SoundDuration":86206,"Delta":53152468},{"NoteNumber":73,"Velocity":75,"Duration":86206,"SoundDuration":86206,"Delta":53238675},{"NoteNumber":61,"Velocity":48,"Duration":96982,"SoundDuration":96982,"Delta":53238675},{"NoteNumber":65,"Velocity":59,"Duration":96982,"SoundDuration":96982,"Delta":53238675},{"NoteNumber":56,"Velocity":48,"Duration":96982,"SoundDuration":96982,"Delta":53238675},{"NoteNumber":68,"Velocity":66,"Duration":86206,"SoundDuration":86206,"Delta":53324882},{"NoteNumber":80,"Velocity":67,"Duration":86206,"SoundDuration":86206,"Delta":53411089},{"NoteNumber":68,"Velocity":72,"Duration":86206,"SoundDuration":86206,"Delta":53497296},{"NoteNumber":59,"Velocity":50,"Duration":96982,"SoundDuration":96982,"Delta":53497296},{"NoteNumber":63,"Velocity":60,"Duration":96982,"SoundDuration":96982,"Delta":53497296},{"NoteNumber":56,"Velocity":50,"Duration":96982,"SoundDuration":96982,"Delta":53497296},{"NoteNumber":80,"Velocity":73,"Duration":86206,"SoundDuration":86206,"Delta":53583502},{"NoteNumber":75,"Velocity":71,"Duration":86206,"SoundDuration":86206,"Delta":53669709},{"NoteNumber":80,"Velocity":78,"Duration":86206,"SoundDuration":86206,"Delta":53755916},{"NoteNumber":44,"Velocity":62,"Duration":96982,"SoundDuration":96982,"Delta":53755916},{"NoteNumber":75,"Velocity":76,"Duration":86206,"SoundDuration":86206,"Delta":53842123},{"NoteNumber":87,"Velocity":72,"Duration":86206,"SoundDuration":86206,"Delta":53928330},{"NoteNumber":75,"Velocity":82,"Duration":86206,"SoundDuration":86206,"Delta":54014537},{"NoteNumber":49,"Velocity":66,"Duration":782727,"SoundDuration":782727,"Delta":54014537},{"NoteNumber":87,"Velocity":77,"Duration":86206,"SoundDuration":86206,"Delta":54100743},{"NoteNumber":80,"Velocity":72,"Duration":86206,"SoundDuration":86206,"Delta":54186950},{"NoteNumber":87,"Velocity":86,"Duration":86206,"SoundDuration":86206,"Delta":54273157},{"NoteNumber":63,"Velocity":70,"Duration":258620,"SoundDuration":258620,"Delta":54273157},{"NoteNumber":59,"Velocity":59,"Duration":258620,"SoundDuration":258620,"Delta":54273157},{"NoteNumber":56,"Velocity":59,"Duration":258620,"SoundDuration":258620,"Delta":54273157},{"NoteNumber":80,"Velocity":74,"Duration":86206,"SoundDuration":86206,"Delta":54359364},{"NoteNumber":92,"Velocity":75,"Duration":86206,"SoundDuration":86206,"Delta":54445571},{"NoteNumber":80,"Velocity":88,"Duration":88495,"SoundDuration":88495,"Delta":54531778},{"NoteNumber":61,"Velocity":73,"Duration":265486,"SoundDuration":265486,"Delta":54531778},{"NoteNumber":59,"Velocity":62,"Duration":265486,"SoundDuration":265486,"Delta":54531778},{"NoteNumber":56,"Velocity":62,"Duration":265486,"SoundDuration":265486,"Delta":54531778},{"NoteNumber":92,"Velocity":81,"Duration":88495,"SoundDuration":88495,"Delta":54620273},{"NoteNumber":85,"Velocity":77,"Duration":88495,"SoundDuration":88495,"Delta":54708769},{"NoteNumber":92,"Velocity":89,"Duration":88495,"SoundDuration":88495,"Delta":54797264},{"NoteNumber":85,"Velocity":85,"Duration":88495,"SoundDuration":88495,"Delta":54885760},{"NoteNumber":97,"Velocity":83,"Duration":88495,"SoundDuration":88495,"Delta":54974255},{"NoteNumber":90,"Velocity":97,"Duration":86206,"SoundDuration":86206,"Delta":55062751},{"NoteNumber":54,"Velocity":73,"Duration":96982,"SoundDuration":96982,"Delta":55062751},{"NoteNumber":58,"Velocity":73,"Duration":96982,"SoundDuration":96982,"Delta":55062751},{"NoteNumber":61,"Velocity":73,"Duration":96982,"SoundDuration":96982,"Delta":55062751},{"NoteNumber":66,"Velocity":87,"Duration":96982,"SoundDuration":96982,"Delta":55062751},{"NoteNumber":94,"Velocity":74,"Duration":86206,"SoundDuration":86206,"Delta":55148957},{"NoteNumber":85,"Velocity":71,"Duration":86206,"SoundDuration":86206,"Delta":55235164},{"NoteNumber":90,"Velocity":94,"Duration":86206,"SoundDuration":86206,"Delta":55321371},{"NoteNumber":66,"Velocity":82,"Duration":96982,"SoundDuration":96982,"Delta":55321371},{"NoteNumber":63,"Velocity":69,"Duration":96982,"SoundDuration":96982,"Delta":55321371},{"NoteNumber":59,"Velocity":69,"Duration":96982,"SoundDuration":96982,"Delta":55321371},{"NoteNumber":54,"Velocity":69,"Duration":96982,"SoundDuration":96982,"Delta":55321371},{"NoteNumber":87,"Velocity":75,"Duration":86206,"SoundDuration":86206,"Delta":55407578},{"NoteNumber":90,"Velocity":73,"Duration":86206,"SoundDuration":86206,"Delta":55493785},{"NoteNumber":85,"Velocity":95,"Duration":86206,"SoundDuration":86206,"Delta":55579992},{"NoteNumber":61,"Velocity":73,"Duration":96982,"SoundDuration":96982,"Delta":55579992},{"NoteNumber":66,"Velocity":87,"Duration":96982,"SoundDuration":96982,"Delta":55579992},{"NoteNumber":58,"Velocity":73,"Duration":96982,"SoundDuration":96982,"Delta":55579992},{"NoteNumber":54,"Velocity":73,"Duration":96982,"SoundDuration":96982,"Delta":55579992},{"NoteNumber":90,"Velocity":76,"Duration":86206,"SoundDuration":86206,"Delta":55666198},{"NoteNumber":82,"Velocity":73,"Duration":86206,"SoundDuration":86206,"Delta":55752405},{"NoteNumber":85,"Velocity":86,"Duration":86206,"SoundDuration":86206,"Delta":55838612},{"NoteNumber":78,"Velocity":77,"Duration":86206,"SoundDuration":86206,"Delta":55924819},{"NoteNumber":82,"Velocity":73,"Duration":86206,"SoundDuration":86206,"Delta":56011026},{"NoteNumber":78,"Velocity":74,"Duration":86206,"SoundDuration":86206,"Delta":56097233},{"NoteNumber":42,"Velocity":48,"Duration":96982,"SoundDuration":96982,"Delta":56097233},{"NoteNumber":54,"Velocity":59,"Duration":96982,"SoundDuration":96982,"Delta":56097233},{"NoteNumber":82,"Velocity":66,"Duration":86206,"SoundDuration":86206,"Delta":56183439},{"NoteNumber":73,"Velocity":64,"Duration":86206,"SoundDuration":86206,"Delta":56269646},{"NoteNumber":78,"Velocity":70,"Duration":86206,"SoundDuration":86206,"Delta":56355853},{"NoteNumber":66,"Velocity":55,"Duration":96982,"SoundDuration":96982,"Delta":56355853},{"NoteNumber":63,"Velocity":46,"Duration":96982,"SoundDuration":96982,"Delta":56355853},{"NoteNumber":59,"Velocity":46,"Duration":96982,"SoundDuration":96982,"Delta":56355853},{"NoteNumber":75,"Velocity":67,"Duration":86206,"SoundDuration":86206,"Delta":56442060},{"NoteNumber":78,"Velocity":67,"Duration":86206,"SoundDuration":86206,"Delta":56528267},{"NoteNumber":73,"Velocity":74,"Duration":86206,"SoundDuration":86206,"Delta":56614474},{"NoteNumber":66,"Velocity":59,"Duration":96982,"SoundDuration":96982,"Delta":56614474},{"NoteNumber":61,"Velocity":48,"Duration":96982,"SoundDuration":96982,"Delta":56614474},{"NoteNumber":58,"Velocity":48,"Duration":96982,"SoundDuration":96982,"Delta":56614474},{"NoteNumber":78,"Velocity":62,"Duration":86206,"SoundDuration":86206,"Delta":56700680},{"NoteNumber":70,"Velocity":55,"Duration":86206,"SoundDuration":86206,"Delta":56786887},{"NoteNumber":73,"Velocity":74,"Duration":86206,"SoundDuration":86206,"Delta":56873094},{"NoteNumber":66,"Velocity":64,"Duration":86206,"SoundDuration":86206,"Delta":56959301},{"NoteNumber":70,"Velocity":60,"Duration":86206,"SoundDuration":86206,"Delta":57045508},{"NoteNumber":63,"Velocity":74,"Duration":86206,"SoundDuration":86206,"Delta":57131715},{"NoteNumber":47,"Velocity":66,"Duration":129310,"SoundDuration":129310,"Delta":57131715},{"NoteNumber":75,"Velocity":71,"Duration":86206,"SoundDuration":86206,"Delta":57217921},{"NoteNumber":68,"Velocity":67,"Duration":86206,"SoundDuration":86206,"Delta":57304128},{"NoteNumber":75,"Velocity":74,"Duration":86206,"SoundDuration":86206,"Delta":57390335},{"NoteNumber":63,"Velocity":66,"Duration":258620,"SoundDuration":258620,"Delta":57390335},{"NoteNumber":56,"Velocity":56,"Duration":258620,"SoundDuration":258620,"Delta":57390335},{"NoteNumber":68,"Velocity":72,"Duration":86206,"SoundDuration":86206,"Delta":57476542},{"NoteNumber":80,"Velocity":67,"Duration":86206,"SoundDuration":86206,"Delta":57562749},{"NoteNumber":70,"Velocity":74,"Duration":88495,"SoundDuration":88495,"Delta":57648956},{"NoteNumber":53,"Velocity":59,"Duration":265486,"SoundDuration":265486,"Delta":57648956},{"NoteNumber":58,"Velocity":59,"Duration":265486,"SoundDuration":265486,"Delta":57648956},{"NoteNumber":62,"Velocity":70,"Duration":265486,"SoundDuration":265486,"Delta":57648956},{"NoteNumber":82,"Velocity":85,"Duration":88495,"SoundDuration":88495,"Delta":57737451},{"NoteNumber":70,"Velocity":72,"Duration":88495,"SoundDuration":88495,"Delta":57825947},{"NoteNumber":82,"Velocity":74,"Duration":88495,"SoundDuration":88495,"Delta":57914442},{"NoteNumber":46,"Velocity":66,"Duration":265486,"SoundDuration":265486,"Delta":57914442},{"NoteNumber":70,"Velocity":70,"Duration":88495,"SoundDuration":88495,"Delta":58002938},{"NoteNumber":82,"Velocity":66,"Duration":88495,"SoundDuration":88495,"Delta":58091433},{"NoteNumber":75,"Velocity":74,"Duration":91743,"SoundDuration":91743,"Delta":58179929},{"NoteNumber":47,"Velocity":66,"Duration":137614,"SoundDuration":137614,"Delta":58179929},{"NoteNumber":87,"Velocity":70,"Duration":91743,"SoundDuration":91743,"Delta":58271672},{"NoteNumber":80,"Velocity":70,"Duration":91743,"SoundDuration":91743,"Delta":58363415},{"NoteNumber":87,"Velocity":71,"Duration":91743,"SoundDuration":91743,"Delta":58455158},{"NoteNumber":63,"Velocity":66,"Duration":275229,"SoundDuration":275229,"Delta":58455158},{"NoteNumber":56,"Velocity":56,"Duration":275229,"SoundDuration":275229,"Delta":58455158},{"NoteNumber":80,"Velocity":69,"Duration":91743,"SoundDuration":91743,"Delta":58546901},{"NoteNumber":92,"Velocity":69,"Duration":91743,"SoundDuration":91743,"Delta":58638644},{"NoteNumber":82,"Velocity":72,"Duration":92379,"SoundDuration":92379,"Delta":58730388},{"NoteNumber":53,"Velocity":62,"Duration":281974,"SoundDuration":281974,"Delta":58730388},{"NoteNumber":58,"Velocity":62,"Duration":281974,"SoundDuration":281974,"Delta":58730388},{"NoteNumber":62,"Velocity":73,"Duration":281974,"SoundDuration":281974,"Delta":58730388},{"NoteNumber":94,"Velocity":79,"Duration":93898,"SoundDuration":93898,"Delta":58822767},{"NoteNumber":82,"Velocity":69,"Duration":95696,"SoundDuration":95696,"Delta":58916666},{"NoteNumber":94,"Velocity":72,"Duration":97089,"SoundDuration":97089,"Delta":59012362},{"NoteNumber":46,"Velocity":69,"Duration":146350,"SoundDuration":146350,"Delta":59012362},{"NoteNumber":82,"Velocity":72,"Duration":99012,"SoundDuration":99012,"Delta":59109451},{"NoteNumber":94,"Velocity":70,"Duration":101012,"SoundDuration":101012,"Delta":59208464},{"NoteNumber":82,"Velocity":74,"Duration":88495,"SoundDuration":88495,"Delta":59309476},{"NoteNumber":47,"Velocity":80,"Duration":132743,"SoundDuration":132743,"Delta":59309476},{"NoteNumber":94,"Velocity":72,"Duration":88495,"SoundDuration":88495,"Delta":59397972},{"NoteNumber":87,"Velocity":72,"Duration":88495,"SoundDuration":88495,"Delta":59486467},{"NoteNumber":94,"Velocity":74,"Duration":86206,"SoundDuration":86206,"Delta":59574963},{"NoteNumber":68,"Velocity":69,"Duration":129310,"SoundDuration":129310,"Delta":59574963},{"NoteNumber":59,"Velocity":57,"Duration":129310,"SoundDuration":129310,"Delta":59574963},{"NoteNumber":63,"Velocity":57,"Duration":129310,"SoundDuration":129310,"Delta":59574963},{"NoteNumber":80,"Velocity":69,"Duration":86206,"SoundDuration":86206,"Delta":59661170},{"NoteNumber":92,"Velocity":67,"Duration":86206,"SoundDuration":86206,"Delta":59747376},{"NoteNumber":80,"Velocity":75,"Duration":86206,"SoundDuration":86206,"Delta":59833583},{"NoteNumber":49,"Velocity":82,"Duration":129310,"SoundDuration":129310,"Delta":59833583},{"NoteNumber":92,"Velocity":73,"Duration":86206,"SoundDuration":86206,"Delta":59919790},{"NoteNumber":85,"Velocity":70,"Duration":86206,"SoundDuration":86206,"Delta":60005997},{"NoteNumber":92,"Velocity":77,"Duration":86206,"SoundDuration":86206,"Delta":60092204},{"NoteNumber":66,"Velocity":66,"Duration":129310,"SoundDuration":129310,"Delta":60092204},{"NoteNumber":61,"Velocity":56,"Duration":129310,"SoundDuration":129310,"Delta":60092204},{"NoteNumber":58,"Velocity":56,"Duration":129310,"SoundDuration":129310,"Delta":60092204},{"NoteNumber":78,"Velocity":69,"Duration":86206,"SoundDuration":86206,"Delta":60178411},{"NoteNumber":90,"Velocity":70,"Duration":86206,"SoundDuration":86206,"Delta":60264617},{"NoteNumber":73,"Velocity":77,"Duration":86206,"SoundDuration":86206,"Delta":60350824},{"NoteNumber":47,"Velocity":84,"Duration":129310,"SoundDuration":129310,"Delta":60350824},{"NoteNumber":85,"Velocity":72,"Duration":86206,"SoundDuration":86206,"Delta":60437031},{"NoteNumber":80,"Velocity":69,"Duration":86206,"SoundDuration":86206,"Delta":60523238},{"NoteNumber":85,"Velocity":78,"Duration":86206,"SoundDuration":86206,"Delta":60609445},{"NoteNumber":59,"Velocity":60,"Duration":129310,"SoundDuration":129310,"Delta":60609445},{"NoteNumber":65,"Velocity":60,"Duration":129310,"SoundDuration":129310,"Delta":60609445},{"NoteNumber":61,"Velocity":60,"Duration":129310,"SoundDuration":129310,"Delta":60609445},{"NoteNumber":68,"Velocity":71,"Duration":129310,"SoundDuration":129310,"Delta":60609445},{"NoteNumber":80,"Velocity":72,"Duration":86206,"SoundDuration":86206,"Delta":60695652},{"NoteNumber":92,"Velocity":75,"Duration":86206,"SoundDuration":86206,"Delta":60781858},{"NoteNumber":78,"Velocity":78,"Duration":86206,"SoundDuration":86206,"Delta":60868065},{"NoteNumber":46,"Velocity":86,"Duration":129310,"SoundDuration":129310,"Delta":60868065},{"NoteNumber":90,"Velocity":74,"Duration":86206,"SoundDuration":86206,"Delta":60954272},{"NoteNumber":85,"Velocity":72,"Duration":86206,"SoundDuration":86206,"Delta":61040479},{"NoteNumber":90,"Velocity":80,"Duration":86206,"SoundDuration":86206,"Delta":61126686},{"NoteNumber":61,"Velocity":60,"Duration":129310,"SoundDuration":129310,"Delta":61126686},{"NoteNumber":70,"Velocity":71,"Duration":129310,"SoundDuration":129310,"Delta":61126686},{"NoteNumber":58,"Velocity":60,"Duration":129310,"SoundDuration":129310,"Delta":61126686},{"NoteNumber":66,"Velocity":60,"Duration":129310,"SoundDuration":129310,"Delta":61126686},{"NoteNumber":85,"Velocity":74,"Duration":86206,"SoundDuration":86206,"Delta":61212893},{"NoteNumber":97,"Velocity":78,"Duration":86206,"SoundDuration":86206,"Delta":61299099},{"NoteNumber":82,"Velocity":80,"Duration":88495,"SoundDuration":88495,"Delta":61385306},{"NoteNumber":47,"Velocity":88,"Duration":132743,"SoundDuration":132743,"Delta":61385306},{"NoteNumber":94,"Velocity":74,"Duration":88495,"SoundDuration":88495,"Delta":61473802},{"NoteNumber":87,"Velocity":71,"Duration":88495,"SoundDuration":88495,"Delta":61562297},{"NoteNumber":94,"Velocity":81,"Duration":86206,"SoundDuration":86206,"Delta":61650793},{"NoteNumber":68,"Velocity":73,"Duration":129310,"SoundDuration":129310,"Delta":61650793},{"NoteNumber":63,"Velocity":62,"Duration":129310,"SoundDuration":129310,"Delta":61650793},{"NoteNumber":59,"Velocity":62,"Duration":129310,"SoundDuration":129310,"Delta":61650793},{"NoteNumber":80,"Velocity":79,"Duration":86206,"SoundDuration":86206,"Delta":61737000},{"NoteNumber":92,"Velocity":76,"Duration":86206,"SoundDuration":86206,"Delta":61823206},{"NoteNumber":80,"Velocity":82,"Duration":86206,"SoundDuration":86206,"Delta":61909413},{"NoteNumber":49,"Velocity":89,"Duration":129310,"SoundDuration":129310,"Delta":61909413},{"NoteNumber":92,"Velocity":76,"Duration":86206,"SoundDuration":86206,"Delta":61995620},{"NoteNumber":85,"Velocity":73,"Duration":86206,"SoundDuration":86206,"Delta":62081827},{"NoteNumber":92,"Velocity":82,"Duration":86206,"SoundDuration":86206,"Delta":62168034},{"NoteNumber":66,"Velocity":73,"Duration":129310,"SoundDuration":129310,"Delta":62168034},{"NoteNumber":61,"Velocity":62,"Duration":129310,"SoundDuration":129310,"Delta":62168034},{"NoteNumber":58,"Velocity":62,"Duration":129310,"SoundDuration":129310,"Delta":62168034},{"NoteNumber":78,"Velocity":74,"Duration":86206,"SoundDuration":86206,"Delta":62254241},{"NoteNumber":90,"Velocity":70,"Duration":86206,"SoundDuration":86206,"Delta":62340447},{"NoteNumber":73,"Velocity":83,"Duration":86206,"SoundDuration":86206,"Delta":62426654},{"NoteNumber":47,"Velocity":91,"Duration":129310,"SoundDuration":129310,"Delta":62426654},{"NoteNumber":85,"Velocity":74,"Duration":86206,"SoundDuration":86206,"Delta":62512861},{"NoteNumber":80,"Velocity":71,"Duration":86206,"SoundDuration":86206,"Delta":62599068},{"NoteNumber":85,"Velocity":83,"Duration":86206,"SoundDuration":86206,"Delta":62685275},{"NoteNumber":59,"Velocity":63,"Duration":129310,"SoundDuration":129310,"Delta":62685275},{"NoteNumber":65,"Velocity":63,"Duration":129310,"SoundDuration":129310,"Delta":62685275},{"NoteNumber":61,"Velocity":63,"Duration":129310,"SoundDuration":129310,"Delta":62685275},{"NoteNumber":68,"Velocity":75,"Duration":129310,"SoundDuration":129310,"Delta":62685275},{"NoteNumber":80,"Velocity":76,"Duration":86206,"SoundDuration":86206,"Delta":62771482},{"NoteNumber":92,"Velocity":82,"Duration":86206,"SoundDuration":86206,"Delta":62857688},{"NoteNumber":78,"Velocity":86,"Duration":86206,"SoundDuration":86206,"Delta":62943895},{"NoteNumber":46,"Velocity":94,"Duration":129310,"SoundDuration":129310,"Delta":62943895},{"NoteNumber":90,"Velocity":76,"Duration":86206,"SoundDuration":86206,"Delta":63030102},{"NoteNumber":85,"Velocity":73,"Duration":86206,"SoundDuration":86206,"Delta":63116309},{"NoteNumber":90,"Velocity":87,"Duration":86206,"SoundDuration":86206,"Delta":63202516},{"NoteNumber":58,"Velocity":63,"Duration":129310,"SoundDuration":129310,"Delta":63202516},{"NoteNumber":66,"Velocity":63,"Duration":129310,"SoundDuration":129310,"Delta":63202516},{"NoteNumber":61,"Velocity":63,"Duration":129310,"SoundDuration":129310,"Delta":63202516},{"NoteNumber":70,"Velocity":75,"Duration":129310,"SoundDuration":129310,"Delta":63202516},{"NoteNumber":85,"Velocity":79,"Duration":86206,"SoundDuration":86206,"Delta":63288723},{"NoteNumber":97,"Velocity":75,"Duration":86206,"SoundDuration":86206,"Delta":63374929},{"NoteNumber":82,"Velocity":83,"Duration":90497,"SoundDuration":90497,"Delta":63461136},{"NoteNumber":47,"Velocity":94,"Duration":271492,"SoundDuration":271492,"Delta":63461136},{"NoteNumber":94,"Velocity":74,"Duration":90497,"SoundDuration":90497,"Delta":63551634},{"NoteNumber":87,"Velocity":75,"Duration":90497,"SoundDuration":90497,"Delta":63642132},{"NoteNumber":94,"Velocity":86,"Duration":87719,"SoundDuration":87719,"Delta":63732629},{"NoteNumber":63,"Velocity":70,"Duration":526316,"SoundDuration":526316,"Delta":63732629},{"NoteNumber":56,"Velocity":70,"Duration":526316,"SoundDuration":526316,"Delta":63732629},{"NoteNumber":68,"Velocity":82,"Duration":526316,"SoundDuration":526316,"Delta":63732629},{"NoteNumber":80,"Velocity":77,"Duration":87719,"SoundDuration":87719,"Delta":63820349},{"NoteNumber":92,"Velocity":74,"Duration":87719,"SoundDuration":87719,"Delta":63908068},{"NoteNumber":82,"Velocity":87,"Duration":87719,"SoundDuration":87719,"Delta":63995787},{"NoteNumber":94,"Velocity":80,"Duration":87719,"SoundDuration":87719,"Delta":64083507},{"NoteNumber":87,"Velocity":74,"Duration":87719,"SoundDuration":87719,"Delta":64171226},{"NoteNumber":94,"Velocity":84,"Duration":87719,"SoundDuration":87719,"Delta":64258945},{"NoteNumber":47,"Velocity":94,"Duration":263158,"SoundDuration":263158,"Delta":64258945},{"NoteNumber":80,"Velocity":78,"Duration":87719,"SoundDuration":87719,"Delta":64346665},{"NoteNumber":92,"Velocity":74,"Duration":87719,"SoundDuration":87719,"Delta":64434384},{"NoteNumber":82,"Velocity":92,"Duration":90090,"SoundDuration":90090,"Delta":64522103},{"NoteNumber":48,"Velocity":104,"Duration":270270,"SoundDuration":270270,"Delta":64522103},{"NoteNumber":94,"Velocity":85,"Duration":90090,"SoundDuration":90090,"Delta":64612193},{"NoteNumber":87,"Velocity":81,"Duration":90090,"SoundDuration":90090,"Delta":64702284},{"NoteNumber":94,"Velocity":93,"Duration":87719,"SoundDuration":87719,"Delta":64792374},{"NoteNumber":68,"Velocity":85,"Duration":526315,"SoundDuration":526315,"Delta":64792374},{"NoteNumber":63,"Velocity":71,"Duration":526315,"SoundDuration":526315,"Delta":64792374},{"NoteNumber":66,"Velocity":71,"Duration":526315,"SoundDuration":526315,"Delta":64792374},{"NoteNumber":56,"Velocity":71,"Duration":526315,"SoundDuration":526315,"Delta":64792374},{"NoteNumber":80,"Velocity":85,"Duration":87719,"SoundDuration":87719,"Delta":64880093},{"NoteNumber":92,"Velocity":90,"Duration":87719,"SoundDuration":87719,"Delta":64967812},{"NoteNumber":82,"Velocity":94,"Duration":87719,"SoundDuration":87719,"Delta":65055532},{"NoteNumber":94,"Velocity":86,"Duration":87719,"SoundDuration":87719,"Delta":65143251},{"NoteNumber":87,"Velocity":83,"Duration":87719,"SoundDuration":87719,"Delta":65230970},{"NoteNumber":94,"Velocity":97,"Duration":89285,"SoundDuration":89285,"Delta":65318690},{"NoteNumber":48,"Velocity":100,"Duration":267857,"SoundDuration":267857,"Delta":65318690},{"NoteNumber":80,"Velocity":80,"Duration":89285,"SoundDuration":89285,"Delta":65407975},{"NoteNumber":92,"Velocity":88,"Duration":89285,"SoundDuration":89285,"Delta":65497261},{"NoteNumber":85,"Velocity":98,"Duration":89285,"SoundDuration":89285,"Delta":65586547},{"NoteNumber":49,"Velocity":106,"Duration":267856,"SoundDuration":267856,"Delta":65586547},{"NoteNumber":94,"Velocity":90,"Duration":89285,"SoundDuration":89285,"Delta":65675832},{"NoteNumber":80,"Velocity":87,"Duration":89285,"SoundDuration":89285,"Delta":65765118},{"NoteNumber":92,"Velocity":100,"Duration":89285,"SoundDuration":89285,"Delta":65854404},{"NoteNumber":85,"Velocity":90,"Duration":89285,"SoundDuration":89285,"Delta":65943689},{"NoteNumber":94,"Velocity":92,"Duration":89285,"SoundDuration":89285,"Delta":66032975},{"NoteNumber":80,"Velocity":103,"Duration":91324,"SoundDuration":91324,"Delta":66122261},{"NoteNumber":61,"Velocity":77,"Duration":547944,"SoundDuration":547944,"Delta":66122261},{"NoteNumber":66,"Velocity":77,"Duration":547944,"SoundDuration":547944,"Delta":66122261},{"NoteNumber":56,"Velocity":77,"Duration":547944,"SoundDuration":547944,"Delta":66122261},{"NoteNumber":68,"Velocity":92,"Duration":547944,"SoundDuration":547944,"Delta":66122261},{"NoteNumber":92,"Velocity":93,"Duration":91324,"SoundDuration":91324,"Delta":66213585},{"NoteNumber":85,"Velocity":86,"Duration":91324,"SoundDuration":91324,"Delta":66304909},{"NoteNumber":94,"Velocity":94,"Duration":91324,"SoundDuration":91324,"Delta":66396233},{"NoteNumber":80,"Velocity":90,"Duration":91324,"SoundDuration":91324,"Delta":66487557},{"NoteNumber":92,"Velocity":86,"Duration":91324,"SoundDuration":91324,"Delta":66578882},{"NoteNumber":85,"Velocity":96,"Duration":91324,"SoundDuration":91324,"Delta":66670206},{"NoteNumber":73,"Velocity":94,"Duration":547944,"SoundDuration":547944,"Delta":66670206},{"NoteNumber":66,"Velocity":79,"Duration":547944,"SoundDuration":547944,"Delta":66670206},{"NoteNumber":68,"Velocity":79,"Duration":547944,"SoundDuration":547944,"Delta":66670206},{"NoteNumber":94,"Velocity":91,"Duration":91324,"SoundDuration":91324,"Delta":66761530},{"NoteNumber":80,"Velocity":85,"Duration":91324,"SoundDuration":91324,"Delta":66852854},{"NoteNumber":92,"Velocity":89,"Duration":91324,"SoundDuration":91324,"Delta":66944178},{"NoteNumber":85,"Velocity":82,"Duration":91324,"SoundDuration":91324,"Delta":67035502},{"NoteNumber":94,"Velocity":75,"Duration":91324,"SoundDuration":91324,"Delta":67126827},{"NoteNumber":80,"Velocity":85,"Duration":89140,"SoundDuration":89140,"Delta":67218151},{"NoteNumber":92,"Velocity":77,"Duration":92594,"SoundDuration":92594,"Delta":67307291},{"NoteNumber":85,"Velocity":71,"Duration":94567,"SoundDuration":94567,"Delta":67399886},{"NoteNumber":94,"Velocity":75,"Duration":96620,"SoundDuration":96620,"Delta":67494453},{"NoteNumber":80,"Velocity":68,"Duration":99012,"SoundDuration":99012,"Delta":67591074},{"NoteNumber":92,"Velocity":64,"Duration":173707,"SoundDuration":173707,"Delta":67690086},{"NoteNumber":37,"Velocity":47,"Duration":30864,"SoundDuration":30864,"Delta":67740337},{"NoteNumber":49,"Velocity":47,"Duration":1377657,"SoundDuration":1377657,"Delta":67771202},{"NoteNumber":56,"Velocity":47,"Duration":1346792,"SoundDuration":1346792,"Delta":67802066},{"NoteNumber":61,"Velocity":47,"Duration":1315928,"SoundDuration":1315928,"Delta":67832930},{"NoteNumber":99,"Velocity":57,"Duration":166666,"SoundDuration":166666,"Delta":67863794},{"NoteNumber":66,"Velocity":56,"Duration":1285064,"SoundDuration":1285064,"Delta":67863794},{"NoteNumber":97,"Velocity":57,"Duration":52493,"SoundDuration":52493,"Delta":68100863},{"NoteNumber":94,"Velocity":52,"Duration":102966,"SoundDuration":102966,"Delta":68153357},{"NoteNumber":92,"Velocity":57,"Duration":100130,"SoundDuration":100130,"Delta":68256323},{"NoteNumber":90,"Velocity":57,"Duration":97566,"SoundDuration":97566,"Delta":68356454},{"NoteNumber":87,"Velocity":54,"Duration":95129,"SoundDuration":95129,"Delta":68454020},{"NoteNumber":85,"Velocity":57,"Duration":92916,"SoundDuration":92916,"Delta":68549150},{"NoteNumber":82,"Velocity":57,"Duration":93788,"SoundDuration":93788,"Delta":68642067},{"NoteNumber":80,"Velocity":53,"Duration":95126,"SoundDuration":95126,"Delta":68735855},{"NoteNumber":78,"Velocity":57,"Duration":96503,"SoundDuration":96503,"Delta":68830981},{"NoteNumber":75,"Velocity":57,"Duration":97920,"SoundDuration":97920,"Delta":68927484},{"NoteNumber":73,"Velocity":54,"Duration":123453,"SoundDuration":123453,"Delta":69025405},{"NoteNumber":68,"Velocity":65,"Duration":571428,"SoundDuration":571428,"Delta":69148859},{"NoteNumber":49,"Velocity":30,"Duration":1142858,"SoundDuration":1142858,"Delta":69148859},{"NoteNumber":59,"Velocity":30,"Duration":1142858,"SoundDuration":1142858,"Delta":69148859},{"NoteNumber":66,"Velocity":56,"Duration":571428,"SoundDuration":571428,"Delta":69148859},{"NoteNumber":49,"Velocity":56,"Duration":1142858,"SoundDuration":1142858,"Delta":69148859},{"NoteNumber":63,"Velocity":47,"Duration":571428,"SoundDuration":571428,"Delta":69148859},{"NoteNumber":56,"Velocity":30,"Duration":1142858,"SoundDuration":1142858,"Delta":69148859},{"NoteNumber":70,"Velocity":69,"Duration":428571,"SoundDuration":428571,"Delta":69720288},{"NoteNumber":65,"Velocity":56,"Duration":571429,"SoundDuration":571429,"Delta":69720288},{"NoteNumber":61,"Velocity":47,"Duration":571429,"SoundDuration":571429,"Delta":69720288},{"NoteNumber":68,"Velocity":64,"Duration":142857,"SoundDuration":142857,"Delta":70148859},{"NoteNumber":66,"Velocity":71,"Duration":258620,"SoundDuration":258620,"Delta":70291717},{"NoteNumber":54,"Velocity":48,"Duration":1034481,"SoundDuration":1034481,"Delta":70291717},{"NoteNumber":58,"Velocity":48,"Duration":258620,"SoundDuration":258620,"Delta":70291717},{"NoteNumber":66,"Velocity":59,"Duration":517240,"SoundDuration":517240,"Delta":70291717},{"NoteNumber":61,"Velocity":44,"Duration":258620,"SoundDuration":258620,"Delta":70550337},{"NoteNumber":92,"Velocity":63,"Duration":86206,"SoundDuration":86206,"Delta":70808958},{"NoteNumber":59,"Velocity":50,"Duration":258620,"SoundDuration":258620,"Delta":70808958},{"NoteNumber":68,"Velocity":60,"Duration":258620,"SoundDuration":258620,"Delta":70808958},{"NoteNumber":94,"Velocity":53,"Duration":86206,"SoundDuration":86206,"Delta":70895164},{"NoteNumber":92,"Velocity":57,"Duration":86206,"SoundDuration":86206,"Delta":70981371},{"NoteNumber":85,"Velocity":59,"Duration":86206,"SoundDuration":86206,"Delta":71067578},{"NoteNumber":56,"Velocity":44,"Duration":258620,"SoundDuration":258620,"Delta":71067578},{"NoteNumber":65,"Velocity":52,"Duration":258620,"SoundDuration":258620,"Delta":71067578},{"NoteNumber":97,"Velocity":59,"Duration":86206,"SoundDuration":86206,"Delta":71153785},{"NoteNumber":85,"Velocity":54,"Duration":86206,"SoundDuration":86206,"Delta":71239992},{"NoteNumber":85,"Velocity":63,"Duration":86206,"SoundDuration":86206,"Delta":71326199},{"NoteNumber":66,"Velocity":60,"Duration":258620,"SoundDuration":258620,"Delta":71326199},{"NoteNumber":58,"Velocity":50,"Duration":258620,"SoundDuration":258620,"Delta":71326199},{"NoteNumber":54,"Velocity":50,"Duration":1034481,"SoundDuration":1034481,"Delta":71326199},{"NoteNumber":87,"Velocity":63,"Duration":86206,"SoundDuration":86206,"Delta":71412405},{"NoteNumber":85,"Velocity":63,"Duration":86206,"SoundDuration":86206,"Delta":71498612},{"NoteNumber":78,"Velocity":58,"Duration":86206,"SoundDuration":86206,"Delta":71584819},{"NoteNumber":61,"Velocity":42,"Duration":258620,"SoundDuration":258620,"Delta":71584819},{"NoteNumber":90,"Velocity":55,"Duration":86206,"SoundDuration":86206,"Delta":71671026},{"NoteNumber":78,"Velocity":58,"Duration":86206,"SoundDuration":86206,"Delta":71757233},{"NoteNumber":80,"Velocity":63,"Duration":86206,"SoundDuration":86206,"Delta":71843440},{"NoteNumber":59,"Velocity":50,"Duration":258620,"SoundDuration":258620,"Delta":71843440},{"NoteNumber":68,"Velocity":60,"Duration":258620,"SoundDuration":258620,"Delta":71843440},{"NoteNumber":82,"Velocity":54,"Duration":86206,"SoundDuration":86206,"Delta":71929646},{"NoteNumber":80,"Velocity":56,"Duration":86206,"SoundDuration":86206,"Delta":72015853},{"NoteNumber":73,"Velocity":78,"Duration":346726,"SoundDuration":346726,"Delta":72102060},{"NoteNumber":65,"Velocity":51,"Duration":258620,"SoundDuration":258620,"Delta":72102060},{"NoteNumber":56,"Velocity":42,"Duration":258620,"SoundDuration":258620,"Delta":72102060},{"NoteNumber":54,"Velocity":53,"Duration":264317,"SoundDuration":264317,"Delta":72360681},{"NoteNumber":66,"Velocity":63,"Duration":264317,"SoundDuration":264317,"Delta":72360681},{"NoteNumber":58,"Velocity":53,"Duration":264317,"SoundDuration":264317,"Delta":72360681},{"NoteNumber":78,"Velocity":62,"Duration":88105,"SoundDuration":88105,"Delta":72448786},{"NoteNumber":80,"Velocity":57,"Duration":88105,"SoundDuration":88105,"Delta":72536892},{"NoteNumber":82,"Velocity":66,"Duration":88105,"SoundDuration":88105,"Delta":72624998},{"NoteNumber":80,"Velocity":64,"Duration":88105,"SoundDuration":88105,"Delta":72713103},{"NoteNumber":78,"Velocity":57,"Duration":88105,"SoundDuration":88105,"Delta":72801209},{"NoteNumber":73,"Velocity":62,"Duration":86206,"SoundDuration":86206,"Delta":72889315},{"NoteNumber":63,"Velocity":63,"Duration":258620,"SoundDuration":258620,"Delta":72889315},{"NoteNumber":53,"Velocity":53,"Duration":258620,"SoundDuration":258620,"Delta":72889315},{"NoteNumber":59,"Velocity":53,"Duration":258620,"SoundDuration":258620,"Delta":72889315},{"NoteNumber":80,"Velocity":64,"Duration":86206,"SoundDuration":86206,"Delta":72975521},{"NoteNumber":85,"Velocity":61,"Duration":86206,"SoundDuration":86206,"Delta":73061728},{"NoteNumber":87,"Velocity":67,"Duration":87719,"SoundDuration":87719,"Delta":73147935},{"NoteNumber":49,"Velocity":48,"Duration":263158,"SoundDuration":263158,"Delta":73147935},{"NoteNumber":61,"Velocity":57,"Duration":263158,"SoundDuration":263158,"Delta":73147935},{"NoteNumber":85,"Velocity":65,"Duration":87719,"SoundDuration":87719,"Delta":73235654},{"NoteNumber":80,"Velocity":59,"Duration":87719,"SoundDuration":87719,"Delta":73323374},{"NoteNumber":78,"Velocity":66,"Duration":85470,"SoundDuration":85470,"Delta":73411093},{"NoteNumber":63,"Velocity":66,"Duration":256410,"SoundDuration":256410,"Delta":73411093},{"NoteNumber":58,"Velocity":56,"Duration":256410,"SoundDuration":256410,"Delta":73411093},{"NoteNumber":54,"Velocity":56,"Duration":256410,"SoundDuration":256410,"Delta":73411093},{"NoteNumber":85,"Velocity":63,"Duration":85470,"SoundDuration":85470,"Delta":73496563},{"NoteNumber":90,"Velocity":59,"Duration":85470,"SoundDuration":85470,"Delta":73582033},{"NoteNumber":92,"Velocity":64,"Duration":87719,"SoundDuration":87719,"Delta":73667504},{"NoteNumber":49,"Velocity":48,"Duration":263158,"SoundDuration":263158,"Delta":73667504},{"NoteNumber":61,"Velocity":59,"Duration":263158,"SoundDuration":263158,"Delta":73667504},{"NoteNumber":90,"Velocity":64,"Duration":87719,"SoundDuration":87719,"Delta":73755223},{"NoteNumber":87,"Velocity":57,"Duration":87719,"SoundDuration":87719,"Delta":73842942},{"NoteNumber":85,"Velocity":70,"Duration":85470,"SoundDuration":85470,"Delta":73930662},{"NoteNumber":59,"Velocity":56,"Duration":256410,"SoundDuration":256410,"Delta":73930662},{"NoteNumber":53,"Velocity":56,"Duration":256410,"SoundDuration":256410,"Delta":73930662},{"NoteNumber":63,"Velocity":68,"Duration":256410,"SoundDuration":256410,"Delta":73930662},{"NoteNumber":92,"Velocity":67,"Duration":85470,"SoundDuration":85470,"Delta":74016132},{"NoteNumber":97,"Velocity":65,"Duration":85470,"SoundDuration":85470,"Delta":74101602},{"NoteNumber":99,"Velocity":74,"Duration":87719,"SoundDuration":87719,"Delta":74187072},{"NoteNumber":61,"Velocity":62,"Duration":263158,"SoundDuration":263158,"Delta":74187072},{"NoteNumber":49,"Velocity":52,"Duration":263158,"SoundDuration":263158,"Delta":74187072},{"NoteNumber":97,"Velocity":67,"Duration":87719,"SoundDuration":87719,"Delta":74274791},{"NoteNumber":92,"Velocity":62,"Duration":87719,"SoundDuration":87719,"Delta":74362511},{"NoteNumber":90,"Velocity":62,"Duration":86206,"SoundDuration":86206,"Delta":74450230},{"NoteNumber":66,"Velocity":59,"Duration":258620,"SoundDuration":258620,"Delta":74450230},{"NoteNumber":54,"Velocity":48,"Duration":1034481,"SoundDuration":1034481,"Delta":74450230},{"NoteNumber":58,"Velocity":48,"Duration":258620,"SoundDuration":258620,"Delta":74450230},{"NoteNumber":92,"Velocity":57,"Duration":86206,"SoundDuration":86206,"Delta":74536437},{"NoteNumber":90,"Velocity":56,"Duration":86206,"SoundDuration":86206,"Delta":74622644},{"NoteNumber":85,"Velocity":63,"Duration":86206,"SoundDuration":86206,"Delta":74708851},{"NoteNumber":61,"Velocity":45,"Duration":258620,"SoundDuration":258620,"Delta":74708851},{"NoteNumber":97,"Velocity":59,"Duration":86206,"SoundDuration":86206,"Delta":74795057},{"NoteNumber":85,"Velocity":59,"Duration":86206,"SoundDuration":86206,"Delta":74881264},{"NoteNumber":85,"Velocity":63,"Duration":86206,"SoundDuration":86206,"Delta":74967471},{"NoteNumber":68,"Velocity":60,"Duration":258620,"SoundDuration":258620,"Delta":74967471},{"NoteNumber":59,"Velocity":50,"Duration":258620,"SoundDuration":258620,"Delta":74967471},{"NoteNumber":87,"Velocity":60,"Duration":86206,"SoundDuration":86206,"Delta":75053678},{"NoteNumber":85,"Velocity":57,"Duration":86206,"SoundDuration":86206,"Delta":75139885},{"NoteNumber":80,"Velocity":59,"Duration":86206,"SoundDuration":86206,"Delta":75226092},{"NoteNumber":56,"Velocity":46,"Duration":258620,"SoundDuration":258620,"Delta":75226092},{"NoteNumber":65,"Velocity":55,"Duration":258620,"SoundDuration":258620,"Delta":75226092},{"NoteNumber":92,"Velocity":59,"Duration":86206,"SoundDuration":86206,"Delta":75312298},{"NoteNumber":80,"Velocity":59,"Duration":86206,"SoundDuration":86206,"Delta":75398505},{"NoteNumber":80,"Velocity":63,"Duration":86206,"SoundDuration":86206,"Delta":75484712},{"NoteNumber":58,"Velocity":51,"Duration":258620,"SoundDuration":258620,"Delta":75484712},{"NoteNumber":66,"Velocity":61,"Duration":258620,"SoundDuration":258620,"Delta":75484712},{"NoteNumber":54,"Velocity":51,"Duration":1040178,"SoundDuration":1040178,"Delta":75484712},{"NoteNumber":82,"Velocity":59,"Duration":86206,"SoundDuration":86206,"Delta":75570919},{"NoteNumber":80,"Velocity":55,"Duration":86206,"SoundDuration":86206,"Delta":75657126},{"NoteNumber":78,"Velocity":58,"Duration":88105,"SoundDuration":88105,"Delta":75743333},{"NoteNumber":61,"Velocity":46,"Duration":264317,"SoundDuration":264317,"Delta":75743333},{"NoteNumber":90,"Velocity":58,"Duration":88105,"SoundDuration":88105,"Delta":75831438},{"NoteNumber":78,"Velocity":55,"Duration":88105,"SoundDuration":88105,"Delta":75919544},{"NoteNumber":73,"Velocity":63,"Duration":603447,"SoundDuration":603447,"Delta":76007650},{"NoteNumber":59,"Velocity":51,"Duration":258620,"SoundDuration":258620,"Delta":76007650},{"NoteNumber":68,"Velocity":61,"Duration":258620,"SoundDuration":258620,"Delta":76007650},{"NoteNumber":56,"Velocity":47,"Duration":258620,"SoundDuration":258620,"Delta":76266270},{"NoteNumber":65,"Velocity":56,"Duration":258620,"SoundDuration":258620,"Delta":76266270},{"NoteNumber":58,"Velocity":55,"Duration":258620,"SoundDuration":258620,"Delta":76524891},{"NoteNumber":66,"Velocity":64,"Duration":258620,"SoundDuration":258620,"Delta":76524891},{"NoteNumber":54,"Velocity":55,"Duration":258620,"SoundDuration":258620,"Delta":76524891},{"NoteNumber":78,"Velocity":64,"Duration":86206,"SoundDuration":86206,"Delta":76611097},{"NoteNumber":80,"Velocity":62,"Duration":86206,"SoundDuration":86206,"Delta":76697304},{"NoteNumber":82,"Velocity":70,"Duration":87719,"SoundDuration":87719,"Delta":76783511},{"NoteNumber":61,"Velocity":59,"Duration":263158,"SoundDuration":263158,"Delta":76783511},{"NoteNumber":80,"Velocity":64,"Duration":87719,"SoundDuration":87719,"Delta":76871230},{"NoteNumber":78,"Velocity":61,"Duration":87719,"SoundDuration":87719,"Delta":76958950},{"NoteNumber":73,"Velocity":69,"Duration":85470,"SoundDuration":85470,"Delta":77046669},{"NoteNumber":63,"Velocity":70,"Duration":256410,"SoundDuration":256410,"Delta":77046669},{"NoteNumber":59,"Velocity":59,"Duration":256410,"SoundDuration":256410,"Delta":77046669},{"NoteNumber":53,"Velocity":59,"Duration":256410,"SoundDuration":256410,"Delta":77046669},{"NoteNumber":80,"Velocity":66,"Duration":85470,"SoundDuration":85470,"Delta":77132139},{"NoteNumber":85,"Velocity":64,"Duration":85470,"SoundDuration":85470,"Delta":77217609},{"NoteNumber":87,"Velocity":73,"Duration":87336,"SoundDuration":87336,"Delta":77303080},{"NoteNumber":49,"Velocity":53,"Duration":262008,"SoundDuration":262008,"Delta":77303080},{"NoteNumber":61,"Velocity":63,"Duration":262008,"SoundDuration":262008,"Delta":77303080},{"NoteNumber":85,"Velocity":67,"Duration":87336,"SoundDuration":87336,"Delta":77390416},{"NoteNumber":80,"Velocity":65,"Duration":87336,"SoundDuration":87336,"Delta":77477752},{"NoteNumber":78,"Velocity":74,"Duration":85470,"SoundDuration":85470,"Delta":77565088},{"NoteNumber":54,"Velocity":66,"Duration":256410,"SoundDuration":256410,"Delta":77565088},{"NoteNumber":63,"Velocity":79,"Duration":256410,"SoundDuration":256410,"Delta":77565088},{"NoteNumber":58,"Velocity":66,"Duration":256410,"SoundDuration":256410,"Delta":77565088},{"NoteNumber":85,"Velocity":71,"Duration":85470,"SoundDuration":85470,"Delta":77650558},{"NoteNumber":90,"Velocity":70,"Duration":85470,"SoundDuration":85470,"Delta":77736028},{"NoteNumber":92,"Velocity":76,"Duration":87336,"SoundDuration":87336,"Delta":77821499},{"NoteNumber":61,"Velocity":72,"Duration":262008,"SoundDuration":262008,"Delta":77821499},{"NoteNumber":49,"Velocity":61,"Duration":262008,"SoundDuration":262008,"Delta":77821499},{"NoteNumber":90,"Velocity":70,"Duration":87336,"SoundDuration":87336,"Delta":77908835},{"NoteNumber":85,"Velocity":70,"Duration":87336,"SoundDuration":87336,"Delta":77996171},{"NoteNumber":80,"Velocity":79,"Duration":86206,"SoundDuration":86206,"Delta":78083507},{"NoteNumber":53,"Velocity":70,"Duration":258620,"SoundDuration":258620,"Delta":78083507},{"NoteNumber":59,"Velocity":70,"Duration":258620,"SoundDuration":258620,"Delta":78083507},{"NoteNumber":63,"Velocity":84,"Duration":258620,"SoundDuration":258620,"Delta":78083507},{"NoteNumber":85,"Velocity":81,"Duration":86206,"SoundDuration":86206,"Delta":78169714},{"NoteNumber":92,"Velocity":78,"Duration":86206,"SoundDuration":86206,"Delta":78255921},{"NoteNumber":94,"Velocity":86,"Duration":86206,"SoundDuration":86206,"Delta":78342128},{"NoteNumber":61,"Velocity":81,"Duration":226292,"SoundDuration":226292,"Delta":78342128},{"NoteNumber":49,"Velocity":69,"Duration":226292,"SoundDuration":226292,"Delta":78342128},{"NoteNumber":92,"Velocity":78,"Duration":86206,"SoundDuration":86206,"Delta":78428334},{"NoteNumber":85,"Velocity":74,"Duration":86206,"SoundDuration":86206,"Delta":78514541},{"NoteNumber":54,"Velocity":68,"Duration":563300,"SoundDuration":563300,"Delta":78568421},{"NoteNumber":61,"Velocity":70,"Duration":547136,"SoundDuration":547136,"Delta":78584584},{"NoteNumber":94,"Velocity":87,"Duration":88495,"SoundDuration":88495,"Delta":78600748},{"NoteNumber":70,"Velocity":90,"Duration":530973,"SoundDuration":530973,"Delta":78600748},{"NoteNumber":85,"Velocity":77,"Duration":88495,"SoundDuration":88495,"Delta":78689244},{"NoteNumber":92,"Velocity":71,"Duration":88495,"SoundDuration":88495,"Delta":78777739},{"NoteNumber":82,"Velocity":83,"Duration":88495,"SoundDuration":88495,"Delta":78866235},{"NoteNumber":92,"Velocity":78,"Duration":88495,"SoundDuration":88495,"Delta":78954730},{"NoteNumber":85,"Velocity":70,"Duration":88495,"SoundDuration":88495,"Delta":79043226},{"NoteNumber":90,"Velocity":83,"Duration":86956,"SoundDuration":86956,"Delta":79131721},{"NoteNumber":82,"Velocity":76,"Duration":86956,"SoundDuration":86956,"Delta":79218678},{"NoteNumber":87,"Velocity":72,"Duration":86956,"SoundDuration":86956,"Delta":79305634},{"NoteNumber":80,"Velocity":83,"Duration":86956,"SoundDuration":86956,"Delta":79392591},{"NoteNumber":49,"Velocity":79,"Duration":260869,"SoundDuration":260869,"Delta":79392591},{"NoteNumber":59,"Velocity":79,"Duration":260869,"SoundDuration":260869,"Delta":79392591},{"NoteNumber":56,"Velocity":79,"Duration":260869,"SoundDuration":260869,"Delta":79392591},{"NoteNumber":65,"Velocity":94,"Duration":260869,"SoundDuration":260869,"Delta":79392591},{"NoteNumber":85,"Velocity":76,"Duration":86956,"SoundDuration":86956,"Delta":79479547},{"NoteNumber":73,"Velocity":72,"Duration":86956,"SoundDuration":86956,"Delta":79566504},{"NoteNumber":82,"Velocity":83,"Duration":86956,"SoundDuration":86956,"Delta":79653460},{"NoteNumber":54,"Velocity":77,"Duration":521738,"SoundDuration":521738,"Delta":79653460},{"NoteNumber":58,"Velocity":77,"Duration":521738,"SoundDuration":521738,"Delta":79653460},{"NoteNumber":66,"Velocity":90,"Duration":521738,"SoundDuration":521738,"Delta":79653460},{"NoteNumber":73,"Velocity":78,"Duration":86956,"SoundDuration":86956,"Delta":79740417},{"NoteNumber":80,"Velocity":74,"Duration":86956,"SoundDuration":86956,"Delta":79827373},{"NoteNumber":70,"Velocity":83,"Duration":86956,"SoundDuration":86956,"Delta":79914330},{"NoteNumber":80,"Velocity":72,"Duration":86956,"SoundDuration":86956,"Delta":80001286},{"NoteNumber":73,"Velocity":72,"Duration":86956,"SoundDuration":86956,"Delta":80088243},{"NoteNumber":78,"Velocity":83,"Duration":86956,"SoundDuration":86956,"Delta":80175199},{"NoteNumber":70,"Velocity":78,"Duration":86956,"SoundDuration":86956,"Delta":80262156},{"NoteNumber":75,"Velocity":74,"Duration":86956,"SoundDuration":86956,"Delta":80349112},{"NoteNumber":68,"Velocity":83,"Duration":86956,"SoundDuration":86956,"Delta":80436069},{"NoteNumber":37,"Velocity":78,"Duration":260869,"SoundDuration":260869,"Delta":80436069},{"NoteNumber":47,"Velocity":78,"Duration":260869,"SoundDuration":260869,"Delta":80436069},{"NoteNumber":53,"Velocity":93,"Duration":260869,"SoundDuration":260869,"Delta":80436069},{"NoteNumber":73,"Velocity":77,"Duration":86956,"SoundDuration":86956,"Delta":80523025},{"NoteNumber":61,"Velocity":76,"Duration":86956,"SoundDuration":86956,"Delta":80609982},{"NoteNumber":70,"Velocity":87,"Duration":86956,"SoundDuration":86956,"Delta":80696938},{"NoteNumber":42,"Velocity":75,"Duration":521738,"SoundDuration":521738,"Delta":80696938},{"NoteNumber":46,"Velocity":75,"Duration":521738,"SoundDuration":521738,"Delta":80696938},{"NoteNumber":54,"Velocity":89,"Duration":521738,"SoundDuration":521738,"Delta":80696938},{"NoteNumber":61,"Velocity":82,"Duration":86956,"SoundDuration":86956,"Delta":80783895},{"NoteNumber":68,"Velocity":77,"Duration":86956,"SoundDuration":86956,"Delta":80870851},{"NoteNumber":58,"Velocity":88,"Duration":86956,"SoundDuration":86956,"Delta":80957808},{"NoteNumber":68,"Velocity":77,"Duration":86956,"SoundDuration":86956,"Delta":81044764},{"NoteNumber":61,"Velocity":81,"Duration":86956,"SoundDuration":86956,"Delta":81131721},{"NoteNumber":66,"Velocity":93,"Duration":86956,"SoundDuration":86956,"Delta":81218677},{"NoteNumber":58,"Velocity":87,"Duration":86956,"SoundDuration":86956,"Delta":81305634},{"NoteNumber":63,"Velocity":86,"Duration":86956,"SoundDuration":86956,"Delta":81392590},{"NoteNumber":56,"Velocity":97,"Duration":86956,"SoundDuration":86956,"Delta":81479547},{"NoteNumber":37,"Velocity":80,"Duration":260869,"SoundDuration":260869,"Delta":81479547},{"NoteNumber":61,"Velocity":91,"Duration":86956,"SoundDuration":86956,"Delta":81566503},{"NoteNumber":49,"Velocity":88,"Duration":86956,"SoundDuration":86956,"Delta":81653460},{"NoteNumber":58,"Velocity":101,"Duration":86956,"SoundDuration":86956,"Delta":81740416},{"NoteNumber":30,"Velocity":71,"Duration":260869,"SoundDuration":260869,"Delta":81740416},{"NoteNumber":42,"Velocity":85,"Duration":260869,"SoundDuration":260869,"Delta":81740416},{"NoteNumber":54,"Velocity":92,"Duration":86956,"SoundDuration":86956,"Delta":81827373},{"NoteNumber":63,"Velocity":87,"Duration":86956,"SoundDuration":86956,"Delta":81914329},{"NoteNumber":49,"Velocity":101,"Duration":86956,"SoundDuration":86956,"Delta":82001286},{"NoteNumber":25,"Velocity":68,"Duration":260869,"SoundDuration":260869,"Delta":82001286},{"NoteNumber":37,"Velocity":80,"Duration":260869,"SoundDuration":260869,"Delta":82001286},{"NoteNumber":61,"Velocity":92,"Duration":86956,"SoundDuration":86956,"Delta":82088242},{"NoteNumber":56,"Velocity":86,"Duration":86956,"SoundDuration":86956,"Delta":82175199},{"NoteNumber":58,"Velocity":101,"Duration":86956,"SoundDuration":86956,"Delta":82262155},{"NoteNumber":30,"Velocity":71,"Duration":260869,"SoundDuration":260869,"Delta":82262155},{"NoteNumber":42,"Velocity":85,"Duration":260869,"SoundDuration":260869,"Delta":82262155},{"NoteNumber":54,"Velocity":93,"Duration":86956,"SoundDuration":86956,"Delta":82349112},{"NoteNumber":63,"Velocity":89,"Duration":86956,"SoundDuration":86956,"Delta":82436068},{"NoteNumber":49,"Velocity":101,"Duration":86956,"SoundDuration":86956,"Delta":82523025},{"NoteNumber":25,"Velocity":68,"Duration":260869,"SoundDuration":260869,"Delta":82523025},{"NoteNumber":37,"Velocity":80,"Duration":260869,"SoundDuration":260869,"Delta":82523025},{"NoteNumber":61,"Velocity":93,"Duration":86956,"SoundDuration":86956,"Delta":82609981},{"NoteNumber":56,"Velocity":89,"Duration":86956,"SoundDuration":86956,"Delta":82696938},{"NoteNumber":58,"Velocity":101,"Duration":265486,"SoundDuration":265486,"Delta":82783894},{"NoteNumber":30,"Velocity":71,"Duration":265486,"SoundDuration":265486,"Delta":82783894},{"NoteNumber":42,"Velocity":85,"Duration":265486,"SoundDuration":265486,"Delta":82783894},{"NoteNumber":54,"Velocity":48,"Duration":86956,"SoundDuration":86956,"Delta":83049381},{"NoteNumber":58,"Velocity":60,"Duration":86956,"SoundDuration":86956,"Delta":83049381},{"NoteNumber":56,"Velocity":59,"Duration":86956,"SoundDuration":86956,"Delta":83136337},{"NoteNumber":54,"Velocity":54,"Duration":86956,"SoundDuration":86956,"Delta":83223294},{"NoteNumber":66,"Velocity":63,"Duration":86956,"SoundDuration":86956,"Delta":83310250},{"NoteNumber":63,"Velocity":50,"Duration":86956,"SoundDuration":86956,"Delta":83310250},{"NoteNumber":61,"Velocity":60,"Duration":86956,"SoundDuration":86956,"Delta":83397207},{"NoteNumber":58,"Velocity":56,"Duration":86956,"SoundDuration":86956,"Delta":83484163},{"NoteNumber":70,"Velocity":64,"Duration":86956,"SoundDuration":86956,"Delta":83571120},{"NoteNumber":66,"Velocity":50,"Duration":86956,"SoundDuration":86956,"Delta":83571120},{"NoteNumber":42,"Velocity":53,"Duration":86956,"SoundDuration":86956,"Delta":83571120},{"NoteNumber":63,"Velocity":62,"Duration":86956,"SoundDuration":86956,"Delta":83658076},{"NoteNumber":49,"Velocity":48,"Duration":86956,"SoundDuration":86956,"Delta":83658076},{"NoteNumber":61,"Velocity":58,"Duration":86956,"SoundDuration":86956,"Delta":83745033},{"NoteNumber":58,"Velocity":46,"Duration":86956,"SoundDuration":86956,"Delta":83745033},{"NoteNumber":70,"Velocity":52,"Duration":86956,"SoundDuration":86956,"Delta":83831989},{"NoteNumber":73,"Velocity":66,"Duration":86956,"SoundDuration":86956,"Delta":83831989},{"NoteNumber":42,"Velocity":56,"Duration":86956,"SoundDuration":86956,"Delta":83831989},{"NoteNumber":68,"Velocity":64,"Duration":86956,"SoundDuration":86956,"Delta":83918946},{"NoteNumber":49,"Velocity":51,"Duration":86956,"SoundDuration":86956,"Delta":83918946},{"NoteNumber":66,"Velocity":58,"Duration":86956,"SoundDuration":86956,"Delta":84005902},{"NoteNumber":58,"Velocity":49,"Duration":86956,"SoundDuration":86956,"Delta":84005902},{"NoteNumber":78,"Velocity":69,"Duration":86956,"SoundDuration":86956,"Delta":84092859},{"NoteNumber":75,"Velocity":55,"Duration":86956,"SoundDuration":86956,"Delta":84092859},{"NoteNumber":46,"Velocity":57,"Duration":86956,"SoundDuration":86956,"Delta":84092859},{"NoteNumber":73,"Velocity":59,"Duration":86956,"SoundDuration":86956,"Delta":84179815},{"NoteNumber":54,"Velocity":52,"Duration":86956,"SoundDuration":86956,"Delta":84179815},{"NoteNumber":70,"Velocity":59,"Duration":86956,"SoundDuration":86956,"Delta":84266772},{"NoteNumber":61,"Velocity":49,"Duration":86956,"SoundDuration":86956,"Delta":84266772},{"NoteNumber":82,"Velocity":70,"Duration":86956,"SoundDuration":86956,"Delta":84353728},{"NoteNumber":78,"Velocity":55,"Duration":86956,"SoundDuration":86956,"Delta":84353728},{"NoteNumber":49,"Velocity":59,"Duration":86956,"SoundDuration":86956,"Delta":84353728},{"NoteNumber":75,"Velocity":65,"Duration":86956,"SoundDuration":86956,"Delta":84440685},{"NoteNumber":58,"Velocity":52,"Duration":86956,"SoundDuration":86956,"Delta":84440685},{"NoteNumber":73,"Velocity":64,"Duration":86956,"SoundDuration":86956,"Delta":84527641},{"NoteNumber":66,"Velocity":51,"Duration":86956,"SoundDuration":86956,"Delta":84527641},{"NoteNumber":85,"Velocity":71,"Duration":86956,"SoundDuration":86956,"Delta":84614598},{"NoteNumber":82,"Velocity":56,"Duration":86956,"SoundDuration":86956,"Delta":84614598},{"NoteNumber":54,"Velocity":61,"Duration":86956,"SoundDuration":86956,"Delta":84614598},{"NoteNumber":80,"Velocity":67,"Duration":86956,"SoundDuration":86956,"Delta":84701554},{"NoteNumber":61,"Velocity":54,"Duration":86956,"SoundDuration":86956,"Delta":84701554},{"NoteNumber":78,"Velocity":67,"Duration":86956,"SoundDuration":86956,"Delta":84788511},{"NoteNumber":70,"Velocity":51,"Duration":86956,"SoundDuration":86956,"Delta":84788511},{"NoteNumber":90,"Velocity":73,"Duration":86580,"SoundDuration":86580,"Delta":84875467},{"NoteNumber":87,"Velocity":58,"Duration":86580,"SoundDuration":86580,"Delta":84875467},{"NoteNumber":58,"Velocity":61,"Duration":86580,"SoundDuration":86580,"Delta":84875467},{"NoteNumber":85,"Velocity":67,"Duration":86580,"SoundDuration":86580,"Delta":84962047},{"NoteNumber":66,"Velocity":56,"Duration":86580,"SoundDuration":86580,"Delta":84962047},{"NoteNumber":82,"Velocity":65,"Duration":86580,"SoundDuration":86580,"Delta":85048627},{"NoteNumber":73,"Velocity":54,"Duration":86580,"SoundDuration":86580,"Delta":85048627},{"NoteNumber":94,"Velocity":75,"Duration":86580,"SoundDuration":86580,"Delta":85135208},{"NoteNumber":90,"Velocity":59,"Duration":86580,"SoundDuration":86580,"Delta":85135208},{"NoteNumber":61,"Velocity":65,"Duration":86580,"SoundDuration":86580,"Delta":85135208},{"NoteNumber":87,"Velocity":69,"Duration":86956,"SoundDuration":86956,"Delta":85221788},{"NoteNumber":70,"Velocity":58,"Duration":86956,"SoundDuration":86956,"Delta":85221788},{"NoteNumber":85,"Velocity":66,"Duration":86956,"SoundDuration":86956,"Delta":85308744},{"NoteNumber":78,"Velocity":56,"Duration":86956,"SoundDuration":86956,"Delta":85308744},{"NoteNumber":90,"Velocity":78,"Duration":86956,"SoundDuration":86956,"Delta":85395701},{"NoteNumber":87,"Velocity":62,"Duration":86956,"SoundDuration":86956,"Delta":85395701},{"NoteNumber":66,"Velocity":67,"Duration":86956,"SoundDuration":86956,"Delta":85395701},{"NoteNumber":85,"Velocity":70,"Duration":86956,"SoundDuration":86956,"Delta":85482657},{"NoteNumber":70,"Velocity":59,"Duration":86956,"SoundDuration":86956,"Delta":85482657},{"NoteNumber":82,"Velocity":69,"Duration":87336,"SoundDuration":87336,"Delta":85569614},{"NoteNumber":78,"Velocity":58,"Duration":87336,"SoundDuration":87336,"Delta":85569614},{"NoteNumber":94,"Velocity":78,"Duration":87336,"SoundDuration":87336,"Delta":85656950},{"NoteNumber":90,"Velocity":62,"Duration":87336,"SoundDuration":87336,"Delta":85656950},{"NoteNumber":61,"Velocity":68,"Duration":87336,"SoundDuration":87336,"Delta":85656950},{"NoteNumber":87,"Velocity":71,"Duration":87336,"SoundDuration":87336,"Delta":85744286},{"NoteNumber":70,"Velocity":60,"Duration":87336,"SoundDuration":87336,"Delta":85744286},{"NoteNumber":85,"Velocity":70,"Duration":87336,"SoundDuration":87336,"Delta":85831622},{"NoteNumber":78,"Velocity":59,"Duration":87336,"SoundDuration":87336,"Delta":85831622},{"NoteNumber":90,"Velocity":81,"Duration":87719,"SoundDuration":87719,"Delta":85918958},{"NoteNumber":87,"Velocity":64,"Duration":87719,"SoundDuration":87719,"Delta":85918958},{"NoteNumber":66,"Velocity":72,"Duration":87719,"SoundDuration":87719,"Delta":85918958},{"NoteNumber":85,"Velocity":74,"Duration":87719,"SoundDuration":87719,"Delta":86006678},{"NoteNumber":70,"Velocity":61,"Duration":87719,"SoundDuration":87719,"Delta":86006678},{"NoteNumber":82,"Velocity":73,"Duration":87719,"SoundDuration":87719,"Delta":86094397},{"NoteNumber":78,"Velocity":59,"Duration":87719,"SoundDuration":87719,"Delta":86094397},{"NoteNumber":94,"Velocity":81,"Duration":87719,"SoundDuration":87719,"Delta":86182116},{"NoteNumber":90,"Velocity":64,"Duration":87719,"SoundDuration":87719,"Delta":86182116},{"NoteNumber":61,"Velocity":72,"Duration":87719,"SoundDuration":87719,"Delta":86182116},{"NoteNumber":87,"Velocity":75,"Duration":88105,"SoundDuration":88105,"Delta":86269836},{"NoteNumber":70,"Velocity":65,"Duration":88105,"SoundDuration":88105,"Delta":86269836},{"NoteNumber":85,"Velocity":74,"Duration":88105,"SoundDuration":88105,"Delta":86357941},{"NoteNumber":78,"Velocity":63,"Duration":88105,"SoundDuration":88105,"Delta":86357941},{"NoteNumber":90,"Velocity":82,"Duration":88105,"SoundDuration":88105,"Delta":86446047},{"NoteNumber":87,"Velocity":65,"Duration":88105,"SoundDuration":88105,"Delta":86446047},{"NoteNumber":66,"Velocity":73,"Duration":88105,"SoundDuration":88105,"Delta":86446047},{"NoteNumber":85,"Velocity":75,"Duration":88105,"SoundDuration":88105,"Delta":86534153},{"NoteNumber":70,"Velocity":67,"Duration":88105,"SoundDuration":88105,"Delta":86534153},{"NoteNumber":82,"Velocity":75,"Duration":88495,"SoundDuration":88495,"Delta":86622258},{"NoteNumber":78,"Velocity":66,"Duration":88495,"SoundDuration":88495,"Delta":86622258},{"NoteNumber":94,"Velocity":85,"Duration":88495,"SoundDuration":88495,"Delta":86710754},{"NoteNumber":90,"Velocity":67,"Duration":88495,"SoundDuration":88495,"Delta":86710754},{"NoteNumber":61,"Velocity":75,"Duration":88495,"SoundDuration":88495,"Delta":86710754},{"NoteNumber":87,"Velocity":77,"Duration":88495,"SoundDuration":88495,"Delta":86799249},{"NoteNumber":70,"Velocity":69,"Duration":88495,"SoundDuration":88495,"Delta":86799249},{"NoteNumber":85,"Velocity":75,"Duration":88495,"SoundDuration":88495,"Delta":86887745},{"NoteNumber":78,"Velocity":69,"Duration":88495,"SoundDuration":88495,"Delta":86887745},{"NoteNumber":82,"Velocity":89,"Duration":129870,"SoundDuration":129870,"Delta":86976240},{"NoteNumber":90,"Velocity":89,"Duration":129870,"SoundDuration":129870,"Delta":86976240},{"NoteNumber":66,"Velocity":81,"Duration":129870,"SoundDuration":129870,"Delta":86976240},{"NoteNumber":78,"Velocity":94,"Duration":100629,"SoundDuration":100629,"Delta":87213578},{"NoteNumber":90,"Velocity":94,"Duration":100629,"SoundDuration":100629,"Delta":87213578},{"NoteNumber":54,"Velocity":87,"Duration":100629,"SoundDuration":100629,"Delta":87213578},{"NoteNumber":66,"Velocity":87,"Duration":100629,"SoundDuration":100629,"Delta":87213578},{"NoteNumber":87,"Velocity":94,"Duration":75885,"SoundDuration":75885,"Delta":87314208},{"NoteNumber":75,"Velocity":94,"Duration":75885,"SoundDuration":75885,"Delta":87314208},{"NoteNumber":63,"Velocity":83,"Duration":75885,"SoundDuration":75885,"Delta":87314208},{"NoteNumber":51,"Velocity":83,"Duration":75885,"SoundDuration":75885,"Delta":87314208},{"NoteNumber":85,"Velocity":95,"Duration":76401,"SoundDuration":76401,"Delta":87415474},{"NoteNumber":73,"Velocity":95,"Duration":76401,"SoundDuration":76401,"Delta":87415474},{"NoteNumber":61,"Velocity":85,"Duration":76401,"SoundDuration":76401,"Delta":87415474},{"NoteNumber":49,"Velocity":85,"Duration":76401,"SoundDuration":76401,"Delta":87415474},{"NoteNumber":82,"Velocity":96,"Duration":77055,"SoundDuration":77055,"Delta":87517516},{"NoteNumber":70,"Velocity":96,"Duration":77055,"SoundDuration":77055,"Delta":87517516},{"NoteNumber":58,"Velocity":86,"Duration":77055,"SoundDuration":77055,"Delta":87517516},{"NoteNumber":46,"Velocity":86,"Duration":77055,"SoundDuration":77055,"Delta":87517516},{"NoteNumber":80,"Velocity":97,"Duration":77586,"SoundDuration":77586,"Delta":87620345},{"NoteNumber":68,"Velocity":97,"Duration":77586,"SoundDuration":77586,"Delta":87620345},{"NoteNumber":56,"Velocity":86,"Duration":77586,"SoundDuration":77586,"Delta":87620345},{"NoteNumber":44,"Velocity":86,"Duration":77586,"SoundDuration":77586,"Delta":87620345},{"NoteNumber":78,"Velocity":98,"Duration":78125,"SoundDuration":78125,"Delta":87723838},{"NoteNumber":66,"Velocity":98,"Duration":78125,"SoundDuration":78125,"Delta":87723838},{"NoteNumber":54,"Velocity":87,"Duration":78125,"SoundDuration":78125,"Delta":87723838},{"NoteNumber":42,"Velocity":87,"Duration":78125,"SoundDuration":78125,"Delta":87723838},{"NoteNumber":75,"Velocity":98,"Duration":78809,"SoundDuration":78809,"Delta":87828141},{"NoteNumber":63,"Velocity":98,"Duration":78809,"SoundDuration":78809,"Delta":87828141},{"NoteNumber":51,"Velocity":88,"Duration":78809,"SoundDuration":78809,"Delta":87828141},{"NoteNumber":39,"Velocity":88,"Duration":78809,"SoundDuration":78809,"Delta":87828141},{"NoteNumber":73,"Velocity":100,"Duration":79365,"SoundDuration":79365,"Delta":87933267},{"NoteNumber":61,"Velocity":100,"Duration":79365,"SoundDuration":79365,"Delta":87933267},{"NoteNumber":37,"Velocity":89,"Duration":79365,"SoundDuration":79365,"Delta":87933267},{"NoteNumber":49,"Velocity":89,"Duration":79365,"SoundDuration":79365,"Delta":87933267},{"NoteNumber":70,"Velocity":101,"Duration":79929,"SoundDuration":79929,"Delta":88039227},{"NoteNumber":58,"Velocity":101,"Duration":79929,"SoundDuration":79929,"Delta":88039227},{"NoteNumber":34,"Velocity":89,"Duration":79929,"SoundDuration":79929,"Delta":88039227},{"NoteNumber":46,"Velocity":89,"Duration":79929,"SoundDuration":79929,"Delta":88039227},{"NoteNumber":68,"Velocity":103,"Duration":80501,"SoundDuration":80501,"Delta":88145895},{"NoteNumber":56,"Velocity":103,"Duration":80501,"SoundDuration":80501,"Delta":88145895},{"NoteNumber":32,"Velocity":92,"Duration":80501,"SoundDuration":80501,"Delta":88145895},{"NoteNumber":44,"Velocity":92,"Duration":80501,"SoundDuration":80501,"Delta":88145895},{"NoteNumber":54,"Velocity":111,"Duration":175438,"SoundDuration":175438,"Delta":88253423},{"NoteNumber":66,"Velocity":111,"Duration":175438,"SoundDuration":175438,"Delta":88253423},{"NoteNumber":30,"Velocity":99,"Duration":175438,"SoundDuration":175438,"Delta":88253423},{"NoteNumber":42,"Velocity":99,"Duration":175438,"SoundDuration":175438,"Delta":88253423},{"NoteNumber":54,"Velocity":93,"Duration":831595,"SoundDuration":831595,"Delta":88914491},{"NoteNumber":61,"Velocity":98,"Duration":835205,"SoundDuration":835205,"Delta":88960223},{"NoteNumber":94,"Velocity":118,"Duration":789473,"SoundDuration":789473,"Delta":89005955},{"NoteNumber":90,"Velocity":108,"Duration":789473,"SoundDuration":789473,"Delta":89005955},{"NoteNumber":85,"Velocity":108,"Duration":789473,"SoundDuration":789473,"Delta":89005955},{"NoteNumber":82,"Velocity":108,"Duration":789473,"SoundDuration":789473,"Delta":89005955},{"NoteNumber":70,"Velocity":108,"Duration":789473,"SoundDuration":789473,"Delta":89005955},{"NoteNumber":54,"Velocity":112,"Duration":1578947,"SoundDuration":1578947,"Delta":89795429},{"NoteNumber":30,"Velocity":102,"Duration":1578947,"SoundDuration":1578947,"Delta":89795429},{"NoteNumber":42,"Velocity":102,"Duration":1578947,"SoundDuration":1578947,"Delta":89795429}],"license":{"name":"Creative Commons Attribution-ShareAlike 3.0 Germany","url":"http://creativecommons.org/licenses/by-sa/3.0/de/deed.en","text":"The MIDI, audio (MP3, OGG) and video files of Bernd Krueger are licensed under the cc-by-sa Germany License. This means that you can use and adapt the files, as long as you attribute the copyright holder.\n\nName: Bernd Krueger\nSource: http://www.piano-midi.de\n\nThe distribution or public playback of the files is only allowed under identical license conditions.\n\nThe scores are open source.","attribution":"MIDI files by Bernd Krueger (piano-midi.de)"}}