{"title":"Serenata","artist":"Piano","durationMs":190864,"midiSha256":"f73dace1fa34fe8f2a39b6e098887199b8146c694588a6cafee9288d973b99b0","midiObject":[{"NoteNumber":79,"Velocity":60,"Duration":135135,"SoundDuration":135135,"Delta":0},{"NoteNumber":74,"Velocity":57,"Duration":132743,"SoundDuration":132743,"Delta":270270},{"NoteNumber":71,"Velocity":53,"Duration":132743,"SoundDuration":132743,"Delta":270270},{"NoteNumber":75,"Velocity":60,"Duration":132743,"SoundDuration":132743,"Delta":535757},{"NoteNumber":72,"Velocity":57,"Duration":132743,"SoundDuration":132743,"Delta":535757},{"NoteNumber":79,"Velocity":57,"Duration":132743,"SoundDuration":132743,"Delta":801243},{"NoteNumber":69,"Velocity":54,"Duration":132743,"SoundDuration":132743,"Delta":801243},{"NoteNumber":78,"Velocity":64,"Duration":132743,"SoundDuration":132743,"Delta":1066730},{"NoteNumber":74,"Velocity":57,"Duration":132743,"SoundDuration":132743,"Delta":1066730},{"NoteNumber":81,"Velocity":59,"Duration":132743,"SoundDuration":132743,"Delta":1332216},{"NoteNumber":72,"Velocity":53,"Duration":132743,"SoundDuration":132743,"Delta":1332216},{"NoteNumber":79,"Velocity":64,"Duration":86956,"SoundDuration":86956,"Delta":1597703},{"NoteNumber":70,"Velocity":57,"Duration":130434,"SoundDuration":130434,"Delta":1597703},{"NoteNumber":81,"Velocity":54,"Duration":86956,"SoundDuration":86956,"Delta":1684659},{"NoteNumber":79,"Velocity":54,"Duration":86956,"SoundDuration":86956,"Delta":1771616},{"NoteNumber":78,"Velocity":58,"Duration":131004,"SoundDuration":131004,"Delta":1858572},{"NoteNumber":69,"Velocity":54,"Duration":131004,"SoundDuration":131004,"Delta":1858572},{"NoteNumber":79,"Velocity":63,"Duration":130434,"SoundDuration":130434,"Delta":2120581},{"NoteNumber":70,"Velocity":57,"Duration":130434,"SoundDuration":130434,"Delta":2120581},{"NoteNumber":82,"Velocity":60,"Duration":132158,"SoundDuration":132158,"Delta":2381450},{"NoteNumber":67,"Velocity":54,"Duration":132158,"SoundDuration":132158,"Delta":2381450},{"NoteNumber":81,"Velocity":63,"Duration":132158,"SoundDuration":132158,"Delta":2645767},{"NoteNumber":74,"Velocity":63,"Duration":132158,"SoundDuration":132158,"Delta":2645767},{"NoteNumber":66,"Velocity":57,"Duration":132158,"SoundDuration":132158,"Delta":2645767},{"NoteNumber":84,"Velocity":60,"Duration":132158,"SoundDuration":132158,"Delta":2910084},{"NoteNumber":62,"Velocity":55,"Duration":132158,"SoundDuration":132158,"Delta":2910084},{"NoteNumber":82,"Velocity":64,"Duration":129870,"SoundDuration":129870,"Delta":3174401},{"NoteNumber":67,"Velocity":57,"Duration":129870,"SoundDuration":129870,"Delta":3174401},{"NoteNumber":89,"Velocity":63,"Duration":130434,"SoundDuration":130434,"Delta":3434142},{"NoteNumber":80,"Velocity":63,"Duration":130434,"SoundDuration":130434,"Delta":3434142},{"NoteNumber":86,"Velocity":63,"Duration":130434,"SoundDuration":130434,"Delta":3434142},{"NoteNumber":71,"Velocity":52,"Duration":130434,"SoundDuration":130434,"Delta":3434142},{"NoteNumber":88,"Velocity":61,"Duration":132708,"SoundDuration":132708,"Delta":3695011},{"NoteNumber":79,"Velocity":61,"Duration":132708,"SoundDuration":132708,"Delta":3695011},{"NoteNumber":84,"Velocity":61,"Duration":132708,"SoundDuration":132708,"Delta":3695011},{"NoteNumber":72,"Velocity":55,"Duration":132708,"SoundDuration":132708,"Delta":3695011},{"NoteNumber":78,"Velocity":60,"Duration":131521,"SoundDuration":131521,"Delta":3960230},{"NoteNumber":87,"Velocity":60,"Duration":131521,"SoundDuration":131521,"Delta":3960230},{"NoteNumber":84,"Velocity":60,"Duration":131521,"SoundDuration":131521,"Delta":3960230},{"NoteNumber":69,"Velocity":52,"Duration":131521,"SoundDuration":131521,"Delta":3960230},{"NoteNumber":79,"Velocity":58,"Duration":132111,"SoundDuration":132111,"Delta":4223469},{"NoteNumber":86,"Velocity":58,"Duration":132111,"SoundDuration":132111,"Delta":4223469},{"NoteNumber":70,"Velocity":55,"Duration":132111,"SoundDuration":132111,"Delta":4223469},{"NoteNumber":74,"Velocity":57,"Duration":137049,"SoundDuration":137049,"Delta":4487991},{"NoteNumber":81,"Velocity":57,"Duration":137049,"SoundDuration":137049,"Delta":4487991},{"NoteNumber":84,"Velocity":57,"Duration":137049,"SoundDuration":137049,"Delta":4487991},{"NoteNumber":66,"Velocity":53,"Duration":137049,"SoundDuration":137049,"Delta":4487991},{"NoteNumber":79,"Velocity":59,"Duration":267857,"SoundDuration":267857,"Delta":4760529},{"NoteNumber":74,"Velocity":59,"Duration":267857,"SoundDuration":267857,"Delta":4760529},{"NoteNumber":82,"Velocity":65,"Duration":267857,"SoundDuration":267857,"Delta":4760529},{"NoteNumber":67,"Velocity":57,"Duration":267857,"SoundDuration":267857,"Delta":4760529},{"NoteNumber":71,"Velocity":60,"Duration":267857,"SoundDuration":267857,"Delta":5028386},{"NoteNumber":80,"Velocity":60,"Duration":267857,"SoundDuration":267857,"Delta":5028386},{"NoteNumber":65,"Velocity":52,"Duration":267857,"SoundDuration":267857,"Delta":5028386},{"NoteNumber":79,"Velocity":57,"Duration":814865,"SoundDuration":814865,"Delta":5296243},{"NoteNumber":72,"Velocity":57,"Duration":268777,"SoundDuration":268777,"Delta":5296243},{"NoteNumber":64,"Velocity":54,"Duration":268777,"SoundDuration":268777,"Delta":5296243},{"NoteNumber":73,"Velocity":60,"Duration":271989,"SoundDuration":271989,"Delta":5565021},{"NoteNumber":63,"Velocity":57,"Duration":271989,"SoundDuration":271989,"Delta":5565021},{"NoteNumber":74,"Velocity":62,"Duration":274097,"SoundDuration":274097,"Delta":5837011},{"NoteNumber":62,"Velocity":58,"Duration":274097,"SoundDuration":274097,"Delta":5837011},{"NoteNumber":79,"Velocity":67,"Duration":286150,"SoundDuration":286150,"Delta":6111109},{"NoteNumber":75,"Velocity":67,"Duration":286150,"SoundDuration":286150,"Delta":6111109},{"NoteNumber":82,"Velocity":67,"Duration":286150,"SoundDuration":286150,"Delta":6111109},{"NoteNumber":61,"Velocity":61,"Duration":286150,"SoundDuration":286150,"Delta":6111109},{"NoteNumber":79,"Velocity":70,"Duration":1117318,"SoundDuration":1117318,"Delta":6397259},{"NoteNumber":70,"Velocity":70,"Duration":1117318,"SoundDuration":1117318,"Delta":6397259},{"NoteNumber":74,"Velocity":70,"Duration":1117318,"SoundDuration":1117318,"Delta":6397259},{"NoteNumber":82,"Velocity":70,"Duration":1117318,"SoundDuration":1117318,"Delta":6397259},{"NoteNumber":38,"Velocity":59,"Duration":279329,"SoundDuration":279329,"Delta":6397259},{"NoteNumber":62,"Velocity":55,"Duration":558658,"SoundDuration":558658,"Delta":6676589},{"NoteNumber":62,"Velocity":51,"Duration":545972,"SoundDuration":545972,"Delta":7235248},{"NoteNumber":70,"Velocity":67,"Duration":533285,"SoundDuration":533285,"Delta":7514577},{"NoteNumber":74,"Velocity":67,"Duration":533285,"SoundDuration":533285,"Delta":7514577},{"NoteNumber":62,"Velocity":51,"Duration":527353,"SoundDuration":527353,"Delta":7781220},{"NoteNumber":72,"Velocity":61,"Duration":130355,"SoundDuration":130355,"Delta":8047863},{"NoteNumber":69,"Velocity":61,"Duration":130355,"SoundDuration":130355,"Delta":8047863},{"NoteNumber":72,"Velocity":64,"Duration":135159,"SoundDuration":135159,"Delta":8308574},{"NoteNumber":75,"Velocity":64,"Duration":135159,"SoundDuration":135159,"Delta":8308574},{"NoteNumber":62,"Velocity":55,"Duration":534543,"SoundDuration":534543,"Delta":8308574},{"NoteNumber":77,"Velocity":69,"Duration":264224,"SoundDuration":264224,"Delta":8578893},{"NoteNumber":81,"Velocity":69,"Duration":264224,"SoundDuration":264224,"Delta":8578893},{"NoteNumber":62,"Velocity":54,"Duration":524934,"SoundDuration":524934,"Delta":8843117},{"NoteNumber":74,"Velocity":70,"Duration":130355,"SoundDuration":130355,"Delta":9107341},{"NoteNumber":77,"Velocity":70,"Duration":130355,"SoundDuration":130355,"Delta":9107341},{"NoteNumber":70,"Velocity":65,"Duration":135783,"SoundDuration":135783,"Delta":9368052},{"NoteNumber":74,"Velocity":65,"Duration":135783,"SoundDuration":135783,"Delta":9368052},{"NoteNumber":62,"Velocity":52,"Duration":531127,"SoundDuration":531127,"Delta":9368052},{"NoteNumber":70,"Velocity":68,"Duration":129780,"SoundDuration":129780,"Delta":9639619},{"NoteNumber":67,"Velocity":68,"Duration":129780,"SoundDuration":129780,"Delta":9639619},{"NoteNumber":79,"Velocity":63,"Duration":132111,"SoundDuration":132111,"Delta":9899180},{"NoteNumber":75,"Velocity":63,"Duration":132111,"SoundDuration":132111,"Delta":9899180},{"NoteNumber":62,"Velocity":55,"Duration":528448,"SoundDuration":528448,"Delta":9899180},{"NoteNumber":75,"Velocity":67,"Duration":132111,"SoundDuration":132111,"Delta":10163404},{"NoteNumber":72,"Velocity":67,"Duration":132111,"SoundDuration":132111,"Delta":10163404},{"NoteNumber":69,"Velocity":63,"Duration":132111,"SoundDuration":132111,"Delta":10427628},{"NoteNumber":72,"Velocity":63,"Duration":132111,"SoundDuration":132111,"Delta":10427628},{"NoteNumber":62,"Velocity":51,"Duration":523784,"SoundDuration":523784,"Delta":10427628},{"NoteNumber":69,"Velocity":67,"Duration":129780,"SoundDuration":129780,"Delta":10691852},{"NoteNumber":66,"Velocity":67,"Duration":129780,"SoundDuration":129780,"Delta":10691852},{"NoteNumber":74,"Velocity":64,"Duration":132111,"SoundDuration":132111,"Delta":10951412},{"NoteNumber":77,"Velocity":64,"Duration":132111,"SoundDuration":132111,"Delta":10951412},{"NoteNumber":62,"Velocity":51,"Duration":529640,"SoundDuration":529640,"Delta":10951412},{"NoteNumber":70,"Velocity":70,"Duration":132708,"SoundDuration":132708,"Delta":11215636},{"NoteNumber":74,"Velocity":70,"Duration":132708,"SoundDuration":132708,"Delta":11215636},{"NoteNumber":67,"Velocity":66,"Duration":135159,"SoundDuration":135159,"Delta":11481053},{"NoteNumber":70,"Velocity":66,"Duration":135159,"SoundDuration":135159,"Delta":11481053},{"NoteNumber":62,"Velocity":51,"Duration":270319,"SoundDuration":270319,"Delta":11481053},{"NoteNumber":63,"Velocity":69,"Duration":540637,"SoundDuration":540637,"Delta":11751372},{"NoteNumber":67,"Velocity":69,"Duration":270318,"SoundDuration":270318,"Delta":11751372},{"NoteNumber":62,"Velocity":46,"Duration":540637,"SoundDuration":540637,"Delta":11751372},{"NoteNumber":70,"Velocity":63,"Duration":270319,"SoundDuration":270319,"Delta":12021691},{"NoteNumber":66,"Velocity":56,"Duration":540764,"SoundDuration":540764,"Delta":12292010},{"NoteNumber":69,"Velocity":65,"Duration":266666,"SoundDuration":266666,"Delta":12292010},{"NoteNumber":60,"Velocity":55,"Duration":540764,"SoundDuration":540764,"Delta":12292010},{"NoteNumber":50,"Velocity":43,"Duration":540764,"SoundDuration":540764,"Delta":12292010},{"NoteNumber":74,"Velocity":56,"Duration":274098,"SoundDuration":274098,"Delta":12558676},{"NoteNumber":74,"Velocity":68,"Duration":1619601,"SoundDuration":1619601,"Delta":12832774},{"NoteNumber":47,"Velocity":51,"Duration":533333,"SoundDuration":533333,"Delta":12832774},{"NoteNumber":60,"Velocity":39,"Duration":543134,"SoundDuration":543134,"Delta":13366107},{"NoteNumber":62,"Velocity":29,"Duration":1086268,"SoundDuration":1086268,"Delta":13366107},{"NoteNumber":65,"Velocity":29,"Duration":1086268,"SoundDuration":1086268,"Delta":13366107},{"NoteNumber":68,"Velocity":29,"Duration":1086268,"SoundDuration":1086268,"Delta":13366107},{"NoteNumber":59,"Velocity":36,"Duration":543134,"SoundDuration":543134,"Delta":13909241},{"NoteNumber":48,"Velocity":51,"Duration":528514,"SoundDuration":528514,"Delta":14452375},{"NoteNumber":72,"Velocity":64,"Duration":87290,"SoundDuration":87290,"Delta":14719018},{"NoteNumber":74,"Velocity":61,"Duration":87290,"SoundDuration":87290,"Delta":14806309},{"NoteNumber":72,"Velocity":61,"Duration":87290,"SoundDuration":87290,"Delta":14893599},{"NoteNumber":71,"Velocity":64,"Duration":261871,"SoundDuration":261871,"Delta":14980890},{"NoteNumber":67,"Velocity":45,"Duration":1065476,"SoundDuration":1065476,"Delta":14980890},{"NoteNumber":63,"Velocity":45,"Duration":1065476,"SoundDuration":1065476,"Delta":14980890},{"NoteNumber":57,"Velocity":45,"Duration":1065476,"SoundDuration":1065476,"Delta":14980890},{"NoteNumber":72,"Velocity":61,"Duration":266643,"SoundDuration":266643,"Delta":15242761},{"NoteNumber":74,"Velocity":64,"Duration":266643,"SoundDuration":266643,"Delta":15509404},{"NoteNumber":75,"Velocity":62,"Duration":270318,"SoundDuration":270318,"Delta":15776047},{"NoteNumber":70,"Velocity":61,"Duration":266642,"SoundDuration":266642,"Delta":16046366},{"NoteNumber":67,"Velocity":61,"Duration":266642,"SoundDuration":266642,"Delta":16046366},{"NoteNumber":38,"Velocity":51,"Duration":1056187,"SoundDuration":1056187,"Delta":16046366},{"NoteNumber":72,"Velocity":63,"Duration":262008,"SoundDuration":262008,"Delta":16313009},{"NoteNumber":73,"Velocity":66,"Duration":260869,"SoundDuration":260869,"Delta":16575018},{"NoteNumber":74,"Velocity":69,"Duration":266666,"SoundDuration":266666,"Delta":16835887},{"NoteNumber":79,"Velocity":70,"Duration":264316,"SoundDuration":264316,"Delta":17102554},{"NoteNumber":62,"Velocity":44,"Duration":264316,"SoundDuration":264316,"Delta":17102554},{"NoteNumber":74,"Velocity":66,"Duration":267856,"SoundDuration":267856,"Delta":17366871},{"NoteNumber":70,"Velocity":68,"Duration":1076397,"SoundDuration":1076397,"Delta":17634728},{"NoteNumber":66,"Velocity":68,"Duration":1076397,"SoundDuration":1076397,"Delta":17634728},{"NoteNumber":60,"Velocity":51,"Duration":267856,"SoundDuration":267856,"Delta":17634728},{"NoteNumber":50,"Velocity":51,"Duration":1349224,"SoundDuration":1349224,"Delta":17634728},{"NoteNumber":61,"Velocity":44,"Duration":267857,"SoundDuration":267857,"Delta":17902585},{"NoteNumber":62,"Velocity":51,"Duration":267856,"SoundDuration":267856,"Delta":18170442},{"NoteNumber":61,"Velocity":51,"Duration":90942,"SoundDuration":90942,"Delta":18438299},{"NoteNumber":62,"Velocity":45,"Duration":90942,"SoundDuration":90942,"Delta":18529241},{"NoteNumber":61,"Velocity":45,"Duration":90942,"SoundDuration":90942,"Delta":18620183},{"NoteNumber":69,"Velocity":68,"Duration":477446,"SoundDuration":477446,"Delta":18711125},{"NoteNumber":60,"Velocity":51,"Duration":272826,"SoundDuration":272826,"Delta":18711125},{"NoteNumber":50,"Velocity":44,"Duration":270380,"SoundDuration":270380,"Delta":18983952},{"NoteNumber":67,"Velocity":55,"Duration":336031,"SoundDuration":336031,"Delta":19188572},{"NoteNumber":74,"Velocity":56,"Duration":303150,"SoundDuration":303150,"Delta":19221452},{"NoteNumber":79,"Velocity":60,"Duration":270270,"SoundDuration":270270,"Delta":19254332},{"NoteNumber":43,"Velocity":44,"Duration":270270,"SoundDuration":270270,"Delta":19254332},{"NoteNumber":50,"Velocity":44,"Duration":270270,"SoundDuration":270270,"Delta":19254332},{"NoteNumber":58,"Velocity":44,"Duration":270270,"SoundDuration":270270,"Delta":19254332},{"NoteNumber":74,"Velocity":57,"Duration":132158,"SoundDuration":132158,"Delta":19524603},{"NoteNumber":71,"Velocity":53,"Duration":132158,"SoundDuration":132158,"Delta":19524603},{"NoteNumber":75,"Velocity":60,"Duration":132158,"SoundDuration":132158,"Delta":19788920},{"NoteNumber":72,"Velocity":57,"Duration":132158,"SoundDuration":132158,"Delta":19788920},{"NoteNumber":79,"Velocity":57,"Duration":132158,"SoundDuration":132158,"Delta":20053237},{"NoteNumber":69,"Velocity":54,"Duration":132158,"SoundDuration":132158,"Delta":20053237},{"NoteNumber":78,"Velocity":64,"Duration":132158,"SoundDuration":132158,"Delta":20317554},{"NoteNumber":74,"Velocity":57,"Duration":132158,"SoundDuration":132158,"Delta":20317554},{"NoteNumber":81,"Velocity":59,"Duration":132158,"SoundDuration":132158,"Delta":20581871},{"NoteNumber":72,"Velocity":53,"Duration":132158,"SoundDuration":132158,"Delta":20581871},{"NoteNumber":79,"Velocity":64,"Duration":86580,"SoundDuration":86580,"Delta":20846188},{"NoteNumber":70,"Velocity":57,"Duration":129870,"SoundDuration":129870,"Delta":20846188},{"NoteNumber":81,"Velocity":54,"Duration":86580,"SoundDuration":86580,"Delta":20932768},{"NoteNumber":79,"Velocity":54,"Duration":86580,"SoundDuration":86580,"Delta":21019348},{"NoteNumber":78,"Velocity":59,"Duration":129870,"SoundDuration":129870,"Delta":21105928},{"NoteNumber":69,"Velocity":55,"Duration":129870,"SoundDuration":129870,"Delta":21105928},{"NoteNumber":79,"Velocity":66,"Duration":132158,"SoundDuration":132158,"Delta":21365669},{"NoteNumber":70,"Velocity":59,"Duration":132158,"SoundDuration":132158,"Delta":21365669},{"NoteNumber":82,"Velocity":64,"Duration":132743,"SoundDuration":132743,"Delta":21629986},{"NoteNumber":67,"Velocity":57,"Duration":132743,"SoundDuration":132743,"Delta":21629986},{"NoteNumber":81,"Velocity":69,"Duration":132743,"SoundDuration":132743,"Delta":21895472},{"NoteNumber":74,"Velocity":61,"Duration":132743,"SoundDuration":132743,"Delta":21895472},{"NoteNumber":66,"Velocity":62,"Duration":132743,"SoundDuration":132743,"Delta":21895472},{"NoteNumber":86,"Velocity":71,"Duration":135783,"SoundDuration":135783,"Delta":22160959},{"NoteNumber":62,"Velocity":61,"Duration":135783,"SoundDuration":135783,"Delta":22160959},{"NoteNumber":77,"Velocity":68,"Duration":1066565,"SoundDuration":1066565,"Delta":22432526},{"NoteNumber":48,"Velocity":51,"Duration":528448,"SoundDuration":528448,"Delta":22432526},{"NoteNumber":66,"Velocity":49,"Duration":538116,"SoundDuration":538116,"Delta":22960974},{"NoteNumber":60,"Velocity":41,"Duration":1081102,"SoundDuration":1081102,"Delta":22960974},{"NoteNumber":63,"Velocity":41,"Duration":1081102,"SoundDuration":1081102,"Delta":22960974},{"NoteNumber":75,"Velocity":68,"Duration":542985,"SoundDuration":542985,"Delta":23499091},{"NoteNumber":67,"Velocity":54,"Duration":542985,"SoundDuration":542985,"Delta":23499091},{"NoteNumber":74,"Velocity":64,"Duration":88074,"SoundDuration":88074,"Delta":24042077},{"NoteNumber":41,"Velocity":51,"Duration":526095,"SoundDuration":526095,"Delta":24042077},{"NoteNumber":75,"Velocity":55,"Duration":88074,"SoundDuration":88074,"Delta":24130151},{"NoteNumber":74,"Velocity":55,"Duration":88074,"SoundDuration":88074,"Delta":24218226},{"NoteNumber":72,"Velocity":59,"Duration":261871,"SoundDuration":261871,"Delta":24306301},{"NoteNumber":71,"Velocity":64,"Duration":264223,"SoundDuration":264223,"Delta":24568172},{"NoteNumber":68,"Velocity":55,"Duration":530866,"SoundDuration":530866,"Delta":24568172},{"NoteNumber":60,"Velocity":41,"Duration":1067828,"SoundDuration":1067828,"Delta":24568172},{"NoteNumber":63,"Velocity":41,"Duration":1067828,"SoundDuration":1067828,"Delta":24568172},{"NoteNumber":72,"Velocity":58,"Duration":266642,"SoundDuration":266642,"Delta":24832396},{"NoteNumber":74,"Velocity":64,"Duration":266643,"SoundDuration":266643,"Delta":25099039},{"NoteNumber":69,"Velocity":56,"Duration":536962,"SoundDuration":536962,"Delta":25099039},{"NoteNumber":75,"Velocity":58,"Duration":270319,"SoundDuration":270319,"Delta":25365682},{"NoteNumber":74,"Velocity":69,"Duration":1058242,"SoundDuration":1058242,"Delta":25636001},{"NoteNumber":46,"Velocity":57,"Duration":529728,"SoundDuration":529728,"Delta":25636001},{"NoteNumber":61,"Velocity":46,"Duration":261871,"SoundDuration":261871,"Delta":26165730},{"NoteNumber":69,"Velocity":55,"Duration":261871,"SoundDuration":261871,"Delta":26165730},{"NoteNumber":66,"Velocity":46,"Duration":261871,"SoundDuration":261871,"Delta":26165730},{"NoteNumber":62,"Velocity":51,"Duration":266642,"SoundDuration":266642,"Delta":26427601},{"NoteNumber":70,"Velocity":60,"Duration":266642,"SoundDuration":266642,"Delta":26427601},{"NoteNumber":68,"Velocity":47,"Duration":536962,"SoundDuration":536962,"Delta":26694244},{"NoteNumber":73,"Velocity":59,"Duration":266643,"SoundDuration":266643,"Delta":26694244},{"NoteNumber":59,"Velocity":55,"Duration":536962,"SoundDuration":536962,"Delta":26694244},{"NoteNumber":74,"Velocity":56,"Duration":270319,"SoundDuration":270319,"Delta":26960887},{"NoteNumber":67,"Velocity":46,"Duration":1581509,"SoundDuration":1581509,"Delta":27231206},{"NoteNumber":77,"Velocity":59,"Duration":261871,"SoundDuration":261871,"Delta":27231206},{"NoteNumber":48,"Velocity":60,"Duration":523742,"SoundDuration":523742,"Delta":27231206},{"NoteNumber":75,"Velocity":57,"Duration":261871,"SoundDuration":261871,"Delta":27493078},{"NoteNumber":74,"Velocity":64,"Duration":262066,"SoundDuration":262066,"Delta":27754949},{"NoteNumber":59,"Velocity":49,"Duration":262066,"SoundDuration":262066,"Delta":27754949},{"NoteNumber":75,"Velocity":61,"Duration":263633,"SoundDuration":263633,"Delta":28017016},{"NoteNumber":60,"Velocity":52,"Duration":263633,"SoundDuration":263633,"Delta":28017016},{"NoteNumber":72,"Velocity":69,"Duration":265019,"SoundDuration":265019,"Delta":28280649},{"NoteNumber":62,"Velocity":55,"Duration":265019,"SoundDuration":265019,"Delta":28280649},{"NoteNumber":67,"Velocity":66,"Duration":267047,"SoundDuration":267047,"Delta":28545668},{"NoteNumber":63,"Velocity":57,"Duration":267047,"SoundDuration":267047,"Delta":28545668},{"NoteNumber":70,"Velocity":64,"Duration":267856,"SoundDuration":267856,"Delta":28812716},{"NoteNumber":65,"Velocity":63,"Duration":267856,"SoundDuration":267856,"Delta":28812716},{"NoteNumber":74,"Velocity":70,"Duration":267856,"SoundDuration":267856,"Delta":28812716},{"NoteNumber":41,"Velocity":63,"Duration":267856,"SoundDuration":267856,"Delta":28812716},{"NoteNumber":77,"Velocity":57,"Duration":133321,"SoundDuration":133321,"Delta":29080573},{"NoteNumber":74,"Velocity":53,"Duration":133321,"SoundDuration":133321,"Delta":29080573},{"NoteNumber":78,"Velocity":60,"Duration":133321,"SoundDuration":133321,"Delta":29347216},{"NoteNumber":75,"Velocity":57,"Duration":133321,"SoundDuration":133321,"Delta":29347216},{"NoteNumber":82,"Velocity":57,"Duration":133321,"SoundDuration":133321,"Delta":29613859},{"NoteNumber":72,"Velocity":54,"Duration":133321,"SoundDuration":133321,"Delta":29613859},{"NoteNumber":81,"Velocity":64,"Duration":133321,"SoundDuration":133321,"Delta":29880502},{"NoteNumber":77,"Velocity":57,"Duration":133321,"SoundDuration":133321,"Delta":29880502},{"NoteNumber":84,"Velocity":59,"Duration":133321,"SoundDuration":133321,"Delta":30147145},{"NoteNumber":75,"Velocity":53,"Duration":133321,"SoundDuration":133321,"Delta":30147145},{"NoteNumber":82,"Velocity":64,"Duration":85755,"SoundDuration":85755,"Delta":30413788},{"NoteNumber":74,"Velocity":57,"Duration":128634,"SoundDuration":128634,"Delta":30413788},{"NoteNumber":84,"Velocity":54,"Duration":85755,"SoundDuration":85755,"Delta":30499544},{"NoteNumber":82,"Velocity":54,"Duration":85755,"SoundDuration":85755,"Delta":30585300},{"NoteNumber":81,"Velocity":58,"Duration":128634,"SoundDuration":128634,"Delta":30671056},{"NoteNumber":73,"Velocity":54,"Duration":128634,"SoundDuration":128634,"Delta":30671056},{"NoteNumber":82,"Velocity":63,"Duration":133321,"SoundDuration":133321,"Delta":30928324},{"NoteNumber":74,"Velocity":57,"Duration":133321,"SoundDuration":133321,"Delta":30928324},{"NoteNumber":86,"Velocity":63,"Duration":133321,"SoundDuration":133321,"Delta":31194967},{"NoteNumber":70,"Velocity":53,"Duration":133321,"SoundDuration":133321,"Delta":31194967},{"NoteNumber":84,"Velocity":63,"Duration":132111,"SoundDuration":132111,"Delta":31461610},{"NoteNumber":77,"Velocity":58,"Duration":132111,"SoundDuration":132111,"Delta":31461610},{"NoteNumber":69,"Velocity":55,"Duration":132111,"SoundDuration":132111,"Delta":31461610},{"NoteNumber":89,"Velocity":60,"Duration":135159,"SoundDuration":135159,"Delta":31725834},{"NoteNumber":65,"Velocity":51,"Duration":135159,"SoundDuration":135159,"Delta":31725834},{"NoteNumber":46,"Velocity":51,"Duration":528514,"SoundDuration":528514,"Delta":31996153},{"NoteNumber":70,"Velocity":64,"Duration":261871,"SoundDuration":261871,"Delta":32262796},{"NoteNumber":72,"Velocity":64,"Duration":261871,"SoundDuration":261871,"Delta":32524667},{"NoteNumber":62,"Velocity":45,"Duration":1065476,"SoundDuration":1065476,"Delta":32524667},{"NoteNumber":53,"Velocity":45,"Duration":1065476,"SoundDuration":1065476,"Delta":32524667},{"NoteNumber":74,"Velocity":61,"Duration":266643,"SoundDuration":266643,"Delta":32786539},{"NoteNumber":77,"Velocity":64,"Duration":266642,"SoundDuration":266642,"Delta":33053182},{"NoteNumber":75,"Velocity":62,"Duration":270319,"SoundDuration":270319,"Delta":33319825},{"NoteNumber":74,"Velocity":61,"Duration":88881,"SoundDuration":88881,"Delta":33590144},{"NoteNumber":46,"Velocity":48,"Duration":533285,"SoundDuration":533285,"Delta":33590144},{"NoteNumber":75,"Velocity":56,"Duration":88881,"SoundDuration":88881,"Delta":33679025},{"NoteNumber":74,"Velocity":55,"Duration":88881,"SoundDuration":88881,"Delta":33767906},{"NoteNumber":71,"Velocity":59,"Duration":266642,"SoundDuration":266642,"Delta":33856787},{"NoteNumber":70,"Velocity":63,"Duration":266643,"SoundDuration":266643,"Delta":34123430},{"NoteNumber":63,"Velocity":44,"Duration":1072676,"SoundDuration":1072676,"Delta":34123430},{"NoteNumber":59,"Velocity":37,"Duration":1072676,"SoundDuration":1072676,"Delta":34123430},{"NoteNumber":54,"Velocity":37,"Duration":1072676,"SoundDuration":1072676,"Delta":34123430},{"NoteNumber":68,"Velocity":57,"Duration":270319,"SoundDuration":270319,"Delta":34390073},{"NoteNumber":66,"Velocity":65,"Duration":267856,"SoundDuration":267856,"Delta":34660392},{"NoteNumber":70,"Velocity":58,"Duration":200892,"SoundDuration":200892,"Delta":34928249},{"NoteNumber":70,"Velocity":60,"Duration":66964,"SoundDuration":66964,"Delta":35129141},{"NoteNumber":65,"Velocity":65,"Duration":1057016,"SoundDuration":1057016,"Delta":35196106},{"NoteNumber":46,"Velocity":52,"Duration":267856,"SoundDuration":267856,"Delta":35196106},{"NoteNumber":58,"Velocity":52,"Duration":261871,"SoundDuration":261871,"Delta":35463963},{"NoteNumber":60,"Velocity":54,"Duration":261871,"SoundDuration":261871,"Delta":35725834},{"NoteNumber":62,"Velocity":51,"Duration":265416,"SoundDuration":265416,"Delta":35987706},{"NoteNumber":68,"Velocity":56,"Duration":535735,"SoundDuration":535735,"Delta":36253122},{"NoteNumber":70,"Velocity":56,"Duration":535735,"SoundDuration":535735,"Delta":36253122},{"NoteNumber":65,"Velocity":55,"Duration":265416,"SoundDuration":265416,"Delta":36253122},{"NoteNumber":62,"Velocity":53,"Duration":270319,"SoundDuration":270319,"Delta":36518539},{"NoteNumber":70,"Velocity":57,"Duration":1058753,"SoundDuration":1058753,"Delta":36788858},{"NoteNumber":66,"Velocity":41,"Duration":1058753,"SoundDuration":1058753,"Delta":36788858},{"NoteNumber":63,"Velocity":48,"Duration":87680,"SoundDuration":87680,"Delta":36788858},{"NoteNumber":65,"Velocity":42,"Duration":87680,"SoundDuration":87680,"Delta":36876539},{"NoteNumber":63,"Velocity":42,"Duration":87680,"SoundDuration":87680,"Delta":36964219},{"NoteNumber":62,"Velocity":46,"Duration":263042,"SoundDuration":263042,"Delta":37051900},{"NoteNumber":63,"Velocity":55,"Duration":265620,"SoundDuration":265620,"Delta":37314943},{"NoteNumber":65,"Velocity":57,"Duration":267047,"SoundDuration":267047,"Delta":37580564},{"NoteNumber":69,"Velocity":67,"Duration":268674,"SoundDuration":268674,"Delta":37847611},{"NoteNumber":66,"Velocity":61,"Duration":538994,"SoundDuration":538994,"Delta":37847611},{"NoteNumber":75,"Velocity":64,"Duration":270320,"SoundDuration":270320,"Delta":38116285},{"NoteNumber":46,"Velocity":51,"Duration":528514,"SoundDuration":528514,"Delta":38386606},{"NoteNumber":70,"Velocity":64,"Duration":261871,"SoundDuration":261871,"Delta":38653249},{"NoteNumber":71,"Velocity":64,"Duration":261871,"SoundDuration":261871,"Delta":38915121},{"NoteNumber":56,"Velocity":37,"Duration":528514,"SoundDuration":528514,"Delta":38915121},{"NoteNumber":68,"Velocity":45,"Duration":1065476,"SoundDuration":1065476,"Delta":38915121},{"NoteNumber":62,"Velocity":45,"Duration":1065476,"SoundDuration":1065476,"Delta":38915121},{"NoteNumber":74,"Velocity":61,"Duration":266643,"SoundDuration":266643,"Delta":39176992},{"NoteNumber":77,"Velocity":67,"Duration":266642,"SoundDuration":266642,"Delta":39443635},{"NoteNumber":59,"Velocity":37,"Duration":536961,"SoundDuration":536961,"Delta":39443635},{"NoteNumber":78,"Velocity":67,"Duration":270319,"SoundDuration":270319,"Delta":39710278},{"NoteNumber":77,"Velocity":61,"Duration":88881,"SoundDuration":88881,"Delta":39980597},{"NoteNumber":70,"Velocity":41,"Duration":266643,"SoundDuration":266643,"Delta":39980597},{"NoteNumber":46,"Velocity":48,"Duration":533285,"SoundDuration":533285,"Delta":39980597},{"NoteNumber":78,"Velocity":51,"Duration":88881,"SoundDuration":88881,"Delta":40069478},{"NoteNumber":77,"Velocity":51,"Duration":88881,"SoundDuration":88881,"Delta":40158359},{"NoteNumber":75,"Velocity":54,"Duration":266642,"SoundDuration":266642,"Delta":40247240},{"NoteNumber":71,"Velocity":65,"Duration":266643,"SoundDuration":266643,"Delta":40513883},{"NoteNumber":66,"Velocity":44,"Duration":804819,"SoundDuration":804819,"Delta":40513883},{"NoteNumber":58,"Velocity":37,"Duration":1072676,"SoundDuration":1072676,"Delta":40513883},{"NoteNumber":70,"Velocity":58,"Duration":270319,"SoundDuration":270319,"Delta":40780526},{"NoteNumber":66,"Velocity":65,"Duration":535713,"SoundDuration":535713,"Delta":41050845},{"NoteNumber":70,"Velocity":58,"Duration":200892,"SoundDuration":200892,"Delta":41318702},{"NoteNumber":70,"Velocity":60,"Duration":66964,"SoundDuration":66964,"Delta":41519595},{"NoteNumber":65,"Velocity":63,"Duration":1082443,"SoundDuration":1082443,"Delta":41586559},{"NoteNumber":46,"Velocity":57,"Duration":293283,"SoundDuration":293283,"Delta":41586559},{"NoteNumber":58,"Velocity":55,"Duration":261871,"SoundDuration":261871,"Delta":41879843},{"NoteNumber":60,"Velocity":57,"Duration":261871,"SoundDuration":261871,"Delta":42141715},{"NoteNumber":62,"Velocity":54,"Duration":265416,"SoundDuration":265416,"Delta":42403586},{"NoteNumber":68,"Velocity":56,"Duration":535735,"SoundDuration":535735,"Delta":42669003},{"NoteNumber":70,"Velocity":56,"Duration":535735,"SoundDuration":535735,"Delta":42669003},{"NoteNumber":65,"Velocity":58,"Duration":265416,"SoundDuration":265416,"Delta":42669003},{"NoteNumber":62,"Velocity":55,"Duration":270319,"SoundDuration":270319,"Delta":42934419},{"NoteNumber":66,"Velocity":48,"Duration":1056521,"SoundDuration":1056521,"Delta":43204738},{"NoteNumber":70,"Velocity":65,"Duration":1058753,"SoundDuration":1058753,"Delta":43204738},{"NoteNumber":63,"Velocity":52,"Duration":87680,"SoundDuration":87680,"Delta":43204738},{"NoteNumber":65,"Velocity":44,"Duration":87680,"SoundDuration":87680,"Delta":43292419},{"NoteNumber":63,"Velocity":44,"Duration":87680,"SoundDuration":87680,"Delta":43380100},{"NoteNumber":62,"Velocity":49,"Duration":263042,"SoundDuration":263042,"Delta":43467781},{"NoteNumber":63,"Velocity":58,"Duration":265620,"SoundDuration":265620,"Delta":43730823},{"NoteNumber":65,"Velocity":61,"Duration":267047,"SoundDuration":267047,"Delta":43996444},{"NoteNumber":69,"Velocity":67,"Duration":268674,"SoundDuration":268674,"Delta":44263492},{"NoteNumber":66,"Velocity":65,"Duration":538994,"SoundDuration":538994,"Delta":44263492},{"NoteNumber":75,"Velocity":64,"Duration":270320,"SoundDuration":270320,"Delta":44532166},{"NoteNumber":74,"Velocity":64,"Duration":1086267,"SoundDuration":1086267,"Delta":44802487},{"NoteNumber":46,"Velocity":58,"Duration":543133,"SoundDuration":543133,"Delta":44802487},{"NoteNumber":64,"Velocity":49,"Duration":543134,"SoundDuration":543134,"Delta":45345621},{"NoteNumber":62,"Velocity":41,"Duration":1086267,"SoundDuration":1086267,"Delta":45345621},{"NoteNumber":58,"Velocity":41,"Duration":1086267,"SoundDuration":1086267,"Delta":45345621},{"NoteNumber":65,"Velocity":46,"Duration":543133,"SoundDuration":543133,"Delta":45888755},{"NoteNumber":48,"Velocity":51,"Duration":528514,"SoundDuration":528514,"Delta":46431889},{"NoteNumber":72,"Velocity":64,"Duration":87290,"SoundDuration":87290,"Delta":46698532},{"NoteNumber":74,"Velocity":54,"Duration":87290,"SoundDuration":87290,"Delta":46785822},{"NoteNumber":72,"Velocity":54,"Duration":87290,"SoundDuration":87290,"Delta":46873113},{"NoteNumber":71,"Velocity":58,"Duration":261871,"SoundDuration":261871,"Delta":46960403},{"NoteNumber":70,"Velocity":38,"Duration":528514,"SoundDuration":528514,"Delta":46960403},{"NoteNumber":67,"Velocity":38,"Duration":1065476,"SoundDuration":1065476,"Delta":46960403},{"NoteNumber":63,"Velocity":38,"Duration":1065476,"SoundDuration":1065476,"Delta":46960403},{"NoteNumber":60,"Velocity":38,"Duration":1065476,"SoundDuration":1065476,"Delta":46960403},{"NoteNumber":72,"Velocity":61,"Duration":266643,"SoundDuration":266643,"Delta":47222275},{"NoteNumber":74,"Velocity":64,"Duration":266642,"SoundDuration":266642,"Delta":47488918},{"NoteNumber":69,"Velocity":45,"Duration":536961,"SoundDuration":536961,"Delta":47488918},{"NoteNumber":75,"Velocity":62,"Duration":270319,"SoundDuration":270319,"Delta":47755561},{"NoteNumber":67,"Velocity":61,"Duration":263157,"SoundDuration":263157,"Delta":48025880},{"NoteNumber":70,"Velocity":61,"Duration":263157,"SoundDuration":263157,"Delta":48025880},{"NoteNumber":38,"Velocity":51,"Duration":1051543,"SoundDuration":1051543,"Delta":48025880},{"NoteNumber":72,"Velocity":63,"Duration":263158,"SoundDuration":263158,"Delta":48289038},{"NoteNumber":73,"Velocity":66,"Duration":259740,"SoundDuration":259740,"Delta":48552196},{"NoteNumber":74,"Velocity":69,"Duration":265486,"SoundDuration":265486,"Delta":48811936},{"NoteNumber":79,"Velocity":70,"Duration":262008,"SoundDuration":262008,"Delta":49077423},{"NoteNumber":62,"Velocity":44,"Duration":262008,"SoundDuration":262008,"Delta":49077423},{"NoteNumber":74,"Velocity":66,"Duration":267856,"SoundDuration":267856,"Delta":49339431},{"NoteNumber":70,"Velocity":68,"Duration":1076397,"SoundDuration":1076397,"Delta":49607288},{"NoteNumber":66,"Velocity":59,"Duration":1076397,"SoundDuration":1076397,"Delta":49607288},{"NoteNumber":60,"Velocity":51,"Duration":267856,"SoundDuration":267856,"Delta":49607288},{"NoteNumber":50,"Velocity":48,"Duration":1349223,"SoundDuration":1349223,"Delta":49607288},{"NoteNumber":61,"Velocity":44,"Duration":267856,"SoundDuration":267856,"Delta":49875145},{"NoteNumber":62,"Velocity":51,"Duration":267856,"SoundDuration":267856,"Delta":50143002},{"NoteNumber":61,"Velocity":51,"Duration":90942,"SoundDuration":90942,"Delta":50410859},{"NoteNumber":62,"Velocity":45,"Duration":90942,"SoundDuration":90942,"Delta":50501801},{"NoteNumber":61,"Velocity":45,"Duration":90942,"SoundDuration":90942,"Delta":50592744},{"NoteNumber":69,"Velocity":65,"Duration":477446,"SoundDuration":477446,"Delta":50683686},{"NoteNumber":60,"Velocity":51,"Duration":272826,"SoundDuration":272826,"Delta":50683686},{"NoteNumber":50,"Velocity":44,"Duration":270380,"SoundDuration":270380,"Delta":50956512},{"NoteNumber":67,"Velocity":55,"Duration":336031,"SoundDuration":336031,"Delta":51161132},{"NoteNumber":74,"Velocity":56,"Duration":303150,"SoundDuration":303150,"Delta":51194012},{"NoteNumber":79,"Velocity":60,"Duration":270270,"SoundDuration":270270,"Delta":51226893},{"NoteNumber":43,"Velocity":44,"Duration":270270,"SoundDuration":270270,"Delta":51226893},{"NoteNumber":50,"Velocity":44,"Duration":270270,"SoundDuration":270270,"Delta":51226893},{"NoteNumber":58,"Velocity":44,"Duration":270270,"SoundDuration":270270,"Delta":51226893},{"NoteNumber":74,"Velocity":57,"Duration":132743,"SoundDuration":132743,"Delta":51497163},{"NoteNumber":71,"Velocity":53,"Duration":132743,"SoundDuration":132743,"Delta":51497163},{"NoteNumber":75,"Velocity":60,"Duration":132743,"SoundDuration":132743,"Delta":51762650},{"NoteNumber":72,"Velocity":57,"Duration":132743,"SoundDuration":132743,"Delta":51762650},{"NoteNumber":79,"Velocity":57,"Duration":132743,"SoundDuration":132743,"Delta":52028136},{"NoteNumber":69,"Velocity":54,"Duration":132743,"SoundDuration":132743,"Delta":52028136},{"NoteNumber":78,"Velocity":64,"Duration":132743,"SoundDuration":132743,"Delta":52293623},{"NoteNumber":74,"Velocity":57,"Duration":132743,"SoundDuration":132743,"Delta":52293623},{"NoteNumber":81,"Velocity":59,"Duration":132743,"SoundDuration":132743,"Delta":52559109},{"NoteNumber":72,"Velocity":53,"Duration":132743,"SoundDuration":132743,"Delta":52559109},{"NoteNumber":79,"Velocity":64,"Duration":86956,"SoundDuration":86956,"Delta":52824596},{"NoteNumber":70,"Velocity":57,"Duration":130434,"SoundDuration":130434,"Delta":52824596},{"NoteNumber":81,"Velocity":54,"Duration":86956,"SoundDuration":86956,"Delta":52911552},{"NoteNumber":79,"Velocity":54,"Duration":86956,"SoundDuration":86956,"Delta":52998509},{"NoteNumber":78,"Velocity":58,"Duration":130434,"SoundDuration":130434,"Delta":53085465},{"NoteNumber":69,"Velocity":54,"Duration":130434,"SoundDuration":130434,"Delta":53085465},{"NoteNumber":79,"Velocity":63,"Duration":131579,"SoundDuration":131579,"Delta":53346335},{"NoteNumber":70,"Velocity":57,"Duration":131579,"SoundDuration":131579,"Delta":53346335},{"NoteNumber":82,"Velocity":60,"Duration":132158,"SoundDuration":132158,"Delta":53609493},{"NoteNumber":67,"Velocity":54,"Duration":132158,"SoundDuration":132158,"Delta":53609493},{"NoteNumber":74,"Velocity":63,"Duration":132158,"SoundDuration":132158,"Delta":53873810},{"NoteNumber":81,"Velocity":63,"Duration":132158,"SoundDuration":132158,"Delta":53873810},{"NoteNumber":66,"Velocity":57,"Duration":132158,"SoundDuration":132158,"Delta":53873810},{"NoteNumber":84,"Velocity":60,"Duration":132158,"SoundDuration":132158,"Delta":54138127},{"NoteNumber":62,"Velocity":55,"Duration":132158,"SoundDuration":132158,"Delta":54138127},{"NoteNumber":82,"Velocity":64,"Duration":129310,"SoundDuration":129310,"Delta":54402444},{"NoteNumber":67,"Velocity":57,"Duration":129310,"SoundDuration":129310,"Delta":54402444},{"NoteNumber":80,"Velocity":63,"Duration":132743,"SoundDuration":132743,"Delta":54661064},{"NoteNumber":89,"Velocity":63,"Duration":132743,"SoundDuration":132743,"Delta":54661064},{"NoteNumber":86,"Velocity":63,"Duration":132743,"SoundDuration":132743,"Delta":54661064},{"NoteNumber":71,"Velocity":52,"Duration":132743,"SoundDuration":132743,"Delta":54661064},{"NoteNumber":84,"Velocity":61,"Duration":132708,"SoundDuration":132708,"Delta":54926551},{"NoteNumber":79,"Velocity":61,"Duration":132708,"SoundDuration":132708,"Delta":54926551},{"NoteNumber":88,"Velocity":61,"Duration":132708,"SoundDuration":132708,"Delta":54926551},{"NoteNumber":72,"Velocity":55,"Duration":132708,"SoundDuration":132708,"Delta":54926551},{"NoteNumber":84,"Velocity":60,"Duration":131521,"SoundDuration":131521,"Delta":55191769},{"NoteNumber":78,"Velocity":60,"Duration":131521,"SoundDuration":131521,"Delta":55191769},{"NoteNumber":87,"Velocity":60,"Duration":131521,"SoundDuration":131521,"Delta":55191769},{"NoteNumber":69,"Velocity":52,"Duration":131521,"SoundDuration":131521,"Delta":55191769},{"NoteNumber":86,"Velocity":58,"Duration":132111,"SoundDuration":132111,"Delta":55455009},{"NoteNumber":79,"Velocity":58,"Duration":132111,"SoundDuration":132111,"Delta":55455009},{"NoteNumber":70,"Velocity":55,"Duration":132111,"SoundDuration":132111,"Delta":55455009},{"NoteNumber":84,"Velocity":57,"Duration":137048,"SoundDuration":137048,"Delta":55719531},{"NoteNumber":74,"Velocity":57,"Duration":137048,"SoundDuration":137048,"Delta":55719531},{"NoteNumber":81,"Velocity":57,"Duration":137048,"SoundDuration":137048,"Delta":55719531},{"NoteNumber":66,"Velocity":53,"Duration":137048,"SoundDuration":137048,"Delta":55719531},{"NoteNumber":74,"Velocity":65,"Duration":267856,"SoundDuration":267856,"Delta":55992069},{"NoteNumber":82,"Velocity":65,"Duration":267856,"SoundDuration":267856,"Delta":55992069},{"NoteNumber":79,"Velocity":65,"Duration":267856,"SoundDuration":267856,"Delta":55992069},{"NoteNumber":67,"Velocity":57,"Duration":267856,"SoundDuration":267856,"Delta":55992069},{"NoteNumber":80,"Velocity":60,"Duration":267856,"SoundDuration":267856,"Delta":56259926},{"NoteNumber":71,"Velocity":60,"Duration":267856,"SoundDuration":267856,"Delta":56259926},{"NoteNumber":65,"Velocity":52,"Duration":267856,"SoundDuration":267856,"Delta":56259926},{"NoteNumber":79,"Velocity":57,"Duration":814865,"SoundDuration":814865,"Delta":56527783},{"NoteNumber":72,"Velocity":57,"Duration":268777,"SoundDuration":268777,"Delta":56527783},{"NoteNumber":64,"Velocity":54,"Duration":268777,"SoundDuration":268777,"Delta":56527783},{"NoteNumber":73,"Velocity":60,"Duration":271989,"SoundDuration":271989,"Delta":56796561},{"NoteNumber":63,"Velocity":57,"Duration":271989,"SoundDuration":271989,"Delta":56796561},{"NoteNumber":74,"Velocity":62,"Duration":274098,"SoundDuration":274098,"Delta":57068550},{"NoteNumber":62,"Velocity":58,"Duration":274098,"SoundDuration":274098,"Delta":57068550},{"NoteNumber":82,"Velocity":67,"Duration":286150,"SoundDuration":286150,"Delta":57342648},{"NoteNumber":75,"Velocity":67,"Duration":286150,"SoundDuration":286150,"Delta":57342648},{"NoteNumber":79,"Velocity":67,"Duration":286150,"SoundDuration":286150,"Delta":57342648},{"NoteNumber":61,"Velocity":61,"Duration":286150,"SoundDuration":286150,"Delta":57342648},{"NoteNumber":74,"Velocity":70,"Duration":1117317,"SoundDuration":1117317,"Delta":57628799},{"NoteNumber":70,"Velocity":70,"Duration":1117317,"SoundDuration":1117317,"Delta":57628799},{"NoteNumber":79,"Velocity":70,"Duration":1117317,"SoundDuration":1117317,"Delta":57628799},{"NoteNumber":82,"Velocity":70,"Duration":1117317,"SoundDuration":1117317,"Delta":57628799},{"NoteNumber":38,"Velocity":59,"Duration":279329,"SoundDuration":279329,"Delta":57628799},{"NoteNumber":62,"Velocity":57,"Duration":558658,"SoundDuration":558658,"Delta":57908128},{"NoteNumber":62,"Velocity":51,"Duration":545972,"SoundDuration":545972,"Delta":58466787},{"NoteNumber":74,"Velocity":68,"Duration":533285,"SoundDuration":533285,"Delta":58746117},{"NoteNumber":70,"Velocity":68,"Duration":533285,"SoundDuration":533285,"Delta":58746117},{"NoteNumber":62,"Velocity":51,"Duration":527353,"SoundDuration":527353,"Delta":59012760},{"NoteNumber":72,"Velocity":61,"Duration":130355,"SoundDuration":130355,"Delta":59279403},{"NoteNumber":69,"Velocity":61,"Duration":130355,"SoundDuration":130355,"Delta":59279403},{"NoteNumber":75,"Velocity":66,"Duration":133321,"SoundDuration":133321,"Delta":59540114},{"NoteNumber":72,"Velocity":66,"Duration":133321,"SoundDuration":133321,"Delta":59540114},{"NoteNumber":62,"Velocity":56,"Duration":533286,"SoundDuration":533286,"Delta":59540114},{"NoteNumber":81,"Velocity":70,"Duration":266643,"SoundDuration":266643,"Delta":59806757},{"NoteNumber":77,"Velocity":70,"Duration":266643,"SoundDuration":266643,"Delta":59806757},{"NoteNumber":62,"Velocity":54,"Duration":527353,"SoundDuration":527353,"Delta":60073400},{"NoteNumber":74,"Velocity":71,"Duration":130355,"SoundDuration":130355,"Delta":60340043},{"NoteNumber":77,"Velocity":71,"Duration":130355,"SoundDuration":130355,"Delta":60340043},{"NoteNumber":74,"Velocity":65,"Duration":135783,"SoundDuration":135783,"Delta":60600754},{"NoteNumber":70,"Velocity":65,"Duration":135783,"SoundDuration":135783,"Delta":60600754},{"NoteNumber":62,"Velocity":52,"Duration":532277,"SoundDuration":532277,"Delta":60600754},{"NoteNumber":67,"Velocity":68,"Duration":130355,"SoundDuration":130355,"Delta":60872321},{"NoteNumber":70,"Velocity":68,"Duration":130355,"SoundDuration":130355,"Delta":60872321},{"NoteNumber":75,"Velocity":65,"Duration":132158,"SoundDuration":132158,"Delta":61133032},{"NoteNumber":79,"Velocity":65,"Duration":132158,"SoundDuration":132158,"Delta":61133032},{"NoteNumber":62,"Velocity":56,"Duration":528540,"SoundDuration":528540,"Delta":61133032},{"NoteNumber":72,"Velocity":67,"Duration":132111,"SoundDuration":132111,"Delta":61397349},{"NoteNumber":75,"Velocity":67,"Duration":132111,"SoundDuration":132111,"Delta":61397349},{"NoteNumber":69,"Velocity":63,"Duration":132111,"SoundDuration":132111,"Delta":61661573},{"NoteNumber":72,"Velocity":63,"Duration":132111,"SoundDuration":132111,"Delta":61661573},{"NoteNumber":62,"Velocity":51,"Duration":526095,"SoundDuration":526095,"Delta":61661573},{"NoteNumber":69,"Velocity":67,"Duration":130935,"SoundDuration":130935,"Delta":61925797},{"NoteNumber":66,"Velocity":67,"Duration":130935,"SoundDuration":130935,"Delta":61925797},{"NoteNumber":77,"Velocity":62,"Duration":133321,"SoundDuration":133321,"Delta":62187668},{"NoteNumber":74,"Velocity":62,"Duration":133321,"SoundDuration":133321,"Delta":62187668},{"NoteNumber":62,"Velocity":51,"Duration":533285,"SoundDuration":533285,"Delta":62187668},{"NoteNumber":74,"Velocity":69,"Duration":266642,"SoundDuration":266642,"Delta":62454311},{"NoteNumber":70,"Velocity":69,"Duration":266642,"SoundDuration":266642,"Delta":62454311},{"NoteNumber":67,"Velocity":66,"Duration":270319,"SoundDuration":270319,"Delta":62720954},{"NoteNumber":70,"Velocity":66,"Duration":270319,"SoundDuration":270319,"Delta":62720954},{"NoteNumber":62,"Velocity":51,"Duration":270319,"SoundDuration":270319,"Delta":62720954},{"NoteNumber":67,"Velocity":69,"Duration":273972,"SoundDuration":273972,"Delta":62991273},{"NoteNumber":63,"Velocity":53,"Duration":547944,"SoundDuration":547944,"Delta":62991273},{"NoteNumber":62,"Velocity":46,"Duration":547944,"SoundDuration":547944,"Delta":62991273},{"NoteNumber":70,"Velocity":63,"Duration":273972,"SoundDuration":273972,"Delta":63265246},{"NoteNumber":66,"Velocity":58,"Duration":560944,"SoundDuration":560944,"Delta":63539218},{"NoteNumber":60,"Velocity":47,"Duration":560944,"SoundDuration":560944,"Delta":63539218},{"NoteNumber":69,"Velocity":65,"Duration":275229,"SoundDuration":275229,"Delta":63539218},{"NoteNumber":50,"Velocity":43,"Duration":560944,"SoundDuration":560944,"Delta":63539218},{"NoteNumber":70,"Velocity":59,"Duration":285714,"SoundDuration":285714,"Delta":63814448},{"NoteNumber":71,"Velocity":55,"Duration":1611569,"SoundDuration":1611569,"Delta":64100162},{"NoteNumber":59,"Velocity":44,"Duration":269396,"SoundDuration":269396,"Delta":64100162},{"NoteNumber":62,"Velocity":44,"Duration":269396,"SoundDuration":269396,"Delta":64100162},{"NoteNumber":43,"Velocity":35,"Duration":1075232,"SoundDuration":1075232,"Delta":64100162},{"NoteNumber":50,"Velocity":42,"Duration":1075232,"SoundDuration":1075232,"Delta":64100162},{"NoteNumber":64,"Velocity":42,"Duration":134698,"SoundDuration":134698,"Delta":64369559},{"NoteNumber":62,"Velocity":42,"Duration":134698,"SoundDuration":134698,"Delta":64504257},{"NoteNumber":59,"Velocity":44,"Duration":271935,"SoundDuration":271935,"Delta":64638955},{"NoteNumber":62,"Velocity":41,"Duration":264503,"SoundDuration":264503,"Delta":64910891},{"NoteNumber":38,"Velocity":32,"Duration":536337,"SoundDuration":536337,"Delta":65175395},{"NoteNumber":50,"Velocity":38,"Duration":536337,"SoundDuration":536337,"Delta":65175395},{"NoteNumber":62,"Velocity":42,"Duration":268168,"SoundDuration":268168,"Delta":65443563},{"NoteNumber":71,"Velocity":55,"Duration":1612787,"SoundDuration":1612787,"Delta":65711732},{"NoteNumber":59,"Velocity":45,"Duration":268168,"SoundDuration":268168,"Delta":65711732},{"NoteNumber":65,"Velocity":45,"Duration":268168,"SoundDuration":268168,"Delta":65711732},{"NoteNumber":44,"Velocity":36,"Duration":1073994,"SoundDuration":1073994,"Delta":65711732},{"NoteNumber":50,"Velocity":43,"Duration":1073994,"SoundDuration":1073994,"Delta":65711732},{"NoteNumber":64,"Velocity":42,"Duration":134084,"SoundDuration":134084,"Delta":65979900},{"NoteNumber":62,"Velocity":42,"Duration":134084,"SoundDuration":134084,"Delta":66113985},{"NoteNumber":59,"Velocity":44,"Duration":271935,"SoundDuration":271935,"Delta":66248069},{"NoteNumber":62,"Velocity":42,"Duration":265721,"SoundDuration":265721,"Delta":66520005},{"NoteNumber":38,"Velocity":32,"Duration":538792,"SoundDuration":538792,"Delta":66785727},{"NoteNumber":50,"Velocity":38,"Duration":538792,"SoundDuration":538792,"Delta":66785727},{"NoteNumber":62,"Velocity":42,"Duration":269396,"SoundDuration":269396,"Delta":67055123},{"NoteNumber":72,"Velocity":55,"Duration":1075232,"SoundDuration":1075232,"Delta":67324520},{"NoteNumber":60,"Velocity":44,"Duration":269396,"SoundDuration":269396,"Delta":67324520},{"NoteNumber":62,"Velocity":44,"Duration":269396,"SoundDuration":269396,"Delta":67324520},{"NoteNumber":45,"Velocity":35,"Duration":1075232,"SoundDuration":1075232,"Delta":67324520},{"NoteNumber":50,"Velocity":42,"Duration":1075232,"SoundDuration":1075232,"Delta":67324520},{"NoteNumber":64,"Velocity":42,"Duration":134698,"SoundDuration":134698,"Delta":67593916},{"NoteNumber":62,"Velocity":42,"Duration":134698,"SoundDuration":134698,"Delta":67728615},{"NoteNumber":60,"Velocity":44,"Duration":271935,"SoundDuration":271935,"Delta":67863313},{"NoteNumber":62,"Velocity":41,"Duration":264503,"SoundDuration":264503,"Delta":68135249},{"NoteNumber":60,"Velocity":44,"Duration":271935,"SoundDuration":271935,"Delta":68399752},{"NoteNumber":68,"Velocity":53,"Duration":566321,"SoundDuration":566321,"Delta":68399752},{"NoteNumber":38,"Velocity":32,"Duration":543871,"SoundDuration":543871,"Delta":68399752},{"NoteNumber":50,"Velocity":38,"Duration":543871,"SoundDuration":543871,"Delta":68399752},{"NoteNumber":62,"Velocity":41,"Duration":271935,"SoundDuration":271935,"Delta":68671688},{"NoteNumber":69,"Velocity":55,"Duration":1075232,"SoundDuration":1075232,"Delta":68943624},{"NoteNumber":60,"Velocity":44,"Duration":269396,"SoundDuration":269396,"Delta":68943624},{"NoteNumber":62,"Velocity":44,"Duration":269396,"SoundDuration":269396,"Delta":68943624},{"NoteNumber":42,"Velocity":35,"Duration":1075232,"SoundDuration":1075232,"Delta":68943624},{"NoteNumber":50,"Velocity":42,"Duration":1075232,"SoundDuration":1075232,"Delta":68943624},{"NoteNumber":64,"Velocity":42,"Duration":134698,"SoundDuration":134698,"Delta":69213021},{"NoteNumber":62,"Velocity":42,"Duration":134698,"SoundDuration":134698,"Delta":69347719},{"NoteNumber":60,"Velocity":44,"Duration":271935,"SoundDuration":271935,"Delta":69482417},{"NoteNumber":62,"Velocity":41,"Duration":264503,"SoundDuration":264503,"Delta":69754353},{"NoteNumber":60,"Velocity":44,"Duration":271935,"SoundDuration":271935,"Delta":70018857},{"NoteNumber":70,"Velocity":53,"Duration":566321,"SoundDuration":566321,"Delta":70018857},{"NoteNumber":38,"Velocity":32,"Duration":543871,"SoundDuration":543871,"Delta":70018857},{"NoteNumber":50,"Velocity":38,"Duration":543871,"SoundDuration":543871,"Delta":70018857},{"NoteNumber":62,"Velocity":41,"Duration":271935,"SoundDuration":271935,"Delta":70290793},{"NoteNumber":71,"Velocity":55,"Duration":1075232,"SoundDuration":1075232,"Delta":70562729},{"NoteNumber":59,"Velocity":44,"Duration":269396,"SoundDuration":269396,"Delta":70562729},{"NoteNumber":62,"Velocity":44,"Duration":269396,"SoundDuration":269396,"Delta":70562729},{"NoteNumber":43,"Velocity":35,"Duration":1075232,"SoundDuration":1075232,"Delta":70562729},{"NoteNumber":50,"Velocity":42,"Duration":1075232,"SoundDuration":1075232,"Delta":70562729},{"NoteNumber":64,"Velocity":42,"Duration":134698,"SoundDuration":134698,"Delta":70832125},{"NoteNumber":62,"Velocity":42,"Duration":134698,"SoundDuration":134698,"Delta":70966824},{"NoteNumber":59,"Velocity":44,"Duration":271935,"SoundDuration":271935,"Delta":71101522},{"NoteNumber":62,"Velocity":41,"Duration":264503,"SoundDuration":264503,"Delta":71373458},{"NoteNumber":59,"Velocity":44,"Duration":271935,"SoundDuration":271935,"Delta":71637961},{"NoteNumber":71,"Velocity":53,"Duration":566321,"SoundDuration":566321,"Delta":71637961},{"NoteNumber":38,"Velocity":32,"Duration":543871,"SoundDuration":543871,"Delta":71637961},{"NoteNumber":50,"Velocity":38,"Duration":543871,"SoundDuration":543871,"Delta":71637961},{"NoteNumber":62,"Velocity":41,"Duration":271935,"SoundDuration":271935,"Delta":71909897},{"NoteNumber":64,"Velocity":55,"Duration":810728,"SoundDuration":810728,"Delta":72181833},{"NoteNumber":62,"Velocity":44,"Duration":269396,"SoundDuration":269396,"Delta":72181833},{"NoteNumber":56,"Velocity":39,"Duration":269396,"SoundDuration":269396,"Delta":72181833},{"NoteNumber":52,"Velocity":35,"Duration":1075232,"SoundDuration":1075232,"Delta":72181833},{"NoteNumber":67,"Velocity":42,"Duration":134698,"SoundDuration":134698,"Delta":72451230},{"NoteNumber":59,"Velocity":38,"Duration":134698,"SoundDuration":134698,"Delta":72451230},{"NoteNumber":65,"Velocity":42,"Duration":134698,"SoundDuration":134698,"Delta":72585928},{"NoteNumber":57,"Velocity":38,"Duration":134698,"SoundDuration":134698,"Delta":72585928},{"NoteNumber":64,"Velocity":44,"Duration":536439,"SoundDuration":536439,"Delta":72720626},{"NoteNumber":62,"Velocity":44,"Duration":536439,"SoundDuration":536439,"Delta":72720626},{"NoteNumber":56,"Velocity":39,"Duration":536439,"SoundDuration":536439,"Delta":72720626},{"NoteNumber":71,"Velocity":54,"Duration":287164,"SoundDuration":287164,"Delta":72992562},{"NoteNumber":62,"Velocity":37,"Duration":543607,"SoundDuration":543607,"Delta":73257066},{"NoteNumber":64,"Velocity":37,"Duration":543607,"SoundDuration":543607,"Delta":73257066},{"NoteNumber":68,"Velocity":37,"Duration":543607,"SoundDuration":543607,"Delta":73257066},{"NoteNumber":72,"Velocity":59,"Duration":294597,"SoundDuration":294597,"Delta":73257066},{"NoteNumber":52,"Velocity":38,"Duration":543607,"SoundDuration":543607,"Delta":73257066},{"NoteNumber":74,"Velocity":57,"Duration":294121,"SoundDuration":294121,"Delta":73529002},{"NoteNumber":60,"Velocity":44,"Duration":269396,"SoundDuration":269396,"Delta":73800673},{"NoteNumber":72,"Velocity":55,"Duration":1075497,"SoundDuration":1075497,"Delta":73800673},{"NoteNumber":45,"Velocity":35,"Duration":1619369,"SoundDuration":1619369,"Delta":73800673},{"NoteNumber":52,"Velocity":42,"Duration":1075497,"SoundDuration":1075497,"Delta":73800673},{"NoteNumber":65,"Velocity":42,"Duration":134698,"SoundDuration":134698,"Delta":74070070},{"NoteNumber":64,"Velocity":42,"Duration":134962,"SoundDuration":134962,"Delta":74204768},{"NoteNumber":60,"Velocity":44,"Duration":271161,"SoundDuration":271161,"Delta":74339731},{"NoteNumber":64,"Velocity":41,"Duration":265277,"SoundDuration":265277,"Delta":74610893},{"NoteNumber":60,"Velocity":44,"Duration":271935,"SoundDuration":271935,"Delta":74876170},{"NoteNumber":72,"Velocity":53,"Duration":566638,"SoundDuration":566638,"Delta":74876170},{"NoteNumber":51,"Velocity":46,"Duration":135967,"SoundDuration":135967,"Delta":74876170},{"NoteNumber":53,"Velocity":32,"Duration":135968,"SoundDuration":135968,"Delta":75012138},{"NoteNumber":67,"Velocity":41,"Duration":271935,"SoundDuration":271935,"Delta":75148106},{"NoteNumber":51,"Velocity":34,"Duration":271935,"SoundDuration":271935,"Delta":75148106},{"NoteNumber":60,"Velocity":47,"Duration":273199,"SoundDuration":273199,"Delta":75420042},{"NoteNumber":66,"Velocity":58,"Duration":546266,"SoundDuration":546266,"Delta":75420042},{"NoteNumber":38,"Velocity":38,"Duration":1692351,"SoundDuration":1692351,"Delta":75420042},{"NoteNumber":69,"Velocity":45,"Duration":136599,"SoundDuration":136599,"Delta":75693241},{"NoteNumber":66,"Velocity":45,"Duration":136467,"SoundDuration":136467,"Delta":75829841},{"NoteNumber":60,"Velocity":47,"Duration":301239,"SoundDuration":301239,"Delta":75966309},{"NoteNumber":64,"Velocity":44,"Duration":566658,"SoundDuration":566658,"Delta":75966309},{"NoteNumber":55,"Velocity":41,"Duration":566658,"SoundDuration":566658,"Delta":75966309},{"NoteNumber":69,"Velocity":44,"Duration":289547,"SoundDuration":289547,"Delta":76243419},{"NoteNumber":60,"Velocity":50,"Duration":307231,"SoundDuration":307231,"Delta":76532967},{"NoteNumber":62,"Velocity":39,"Duration":579427,"SoundDuration":579427,"Delta":76532967},{"NoteNumber":54,"Velocity":37,"Duration":579427,"SoundDuration":579427,"Delta":76532967},{"NoteNumber":70,"Velocity":44,"Duration":296941,"SoundDuration":296941,"Delta":76815453},{"NoteNumber":71,"Velocity":55,"Duration":1611569,"SoundDuration":1611569,"Delta":77112394},{"NoteNumber":59,"Velocity":41,"Duration":269396,"SoundDuration":269396,"Delta":77112394},{"NoteNumber":62,"Velocity":41,"Duration":269396,"SoundDuration":269396,"Delta":77112394},{"NoteNumber":43,"Velocity":25,"Duration":1075232,"SoundDuration":1075232,"Delta":77112394},{"NoteNumber":50,"Velocity":39,"Duration":1075232,"SoundDuration":1075232,"Delta":77112394},{"NoteNumber":64,"Velocity":39,"Duration":134698,"SoundDuration":134698,"Delta":77381791},{"NoteNumber":62,"Velocity":39,"Duration":134698,"SoundDuration":134698,"Delta":77516489},{"NoteNumber":59,"Velocity":41,"Duration":271935,"SoundDuration":271935,"Delta":77651187},{"NoteNumber":62,"Velocity":38,"Duration":264503,"SoundDuration":264503,"Delta":77923123},{"NoteNumber":38,"Velocity":32,"Duration":536337,"SoundDuration":536337,"Delta":78187627},{"NoteNumber":50,"Velocity":38,"Duration":536337,"SoundDuration":536337,"Delta":78187627},{"NoteNumber":62,"Velocity":42,"Duration":268168,"SoundDuration":268168,"Delta":78455795},{"NoteNumber":71,"Velocity":55,"Duration":1612787,"SoundDuration":1612787,"Delta":78723964},{"NoteNumber":59,"Velocity":43,"Duration":268168,"SoundDuration":268168,"Delta":78723964},{"NoteNumber":65,"Velocity":43,"Duration":268168,"SoundDuration":268168,"Delta":78723964},{"NoteNumber":44,"Velocity":34,"Duration":1073994,"SoundDuration":1073994,"Delta":78723964},{"NoteNumber":50,"Velocity":41,"Duration":1073994,"SoundDuration":1073994,"Delta":78723964},{"NoteNumber":64,"Velocity":40,"Duration":134084,"SoundDuration":134084,"Delta":78992132},{"NoteNumber":62,"Velocity":40,"Duration":134084,"SoundDuration":134084,"Delta":79126217},{"NoteNumber":59,"Velocity":42,"Duration":271935,"SoundDuration":271935,"Delta":79260301},{"NoteNumber":62,"Velocity":40,"Duration":265721,"SoundDuration":265721,"Delta":79532237},{"NoteNumber":38,"Velocity":32,"Duration":538792,"SoundDuration":538792,"Delta":79797959},{"NoteNumber":50,"Velocity":38,"Duration":538792,"SoundDuration":538792,"Delta":79797959},{"NoteNumber":62,"Velocity":42,"Duration":269396,"SoundDuration":269396,"Delta":80067355},{"NoteNumber":72,"Velocity":55,"Duration":1075232,"SoundDuration":1075232,"Delta":80336752},{"NoteNumber":60,"Velocity":44,"Duration":269396,"SoundDuration":269396,"Delta":80336752},{"NoteNumber":62,"Velocity":44,"Duration":269396,"SoundDuration":269396,"Delta":80336752},{"NoteNumber":45,"Velocity":35,"Duration":1075232,"SoundDuration":1075232,"Delta":80336752},{"NoteNumber":50,"Velocity":42,"Duration":1075232,"SoundDuration":1075232,"Delta":80336752},{"NoteNumber":64,"Velocity":42,"Duration":134698,"SoundDuration":134698,"Delta":80606148},{"NoteNumber":62,"Velocity":42,"Duration":134698,"SoundDuration":134698,"Delta":80740847},{"NoteNumber":60,"Velocity":44,"Duration":271935,"SoundDuration":271935,"Delta":80875545},{"NoteNumber":62,"Velocity":41,"Duration":264503,"SoundDuration":264503,"Delta":81147481},{"NoteNumber":60,"Velocity":44,"Duration":271935,"SoundDuration":271935,"Delta":81411984},{"NoteNumber":68,"Velocity":53,"Duration":566321,"SoundDuration":566321,"Delta":81411984},{"NoteNumber":38,"Velocity":32,"Duration":543871,"SoundDuration":543871,"Delta":81411984},{"NoteNumber":50,"Velocity":38,"Duration":543871,"SoundDuration":543871,"Delta":81411984},{"NoteNumber":62,"Velocity":41,"Duration":271935,"SoundDuration":271935,"Delta":81683920},{"NoteNumber":69,"Velocity":55,"Duration":1075232,"SoundDuration":1075232,"Delta":81955856},{"NoteNumber":60,"Velocity":44,"Duration":269396,"SoundDuration":269396,"Delta":81955856},{"NoteNumber":62,"Velocity":44,"Duration":269396,"SoundDuration":269396,"Delta":81955856},{"NoteNumber":42,"Velocity":35,"Duration":1075232,"SoundDuration":1075232,"Delta":81955856},{"NoteNumber":50,"Velocity":42,"Duration":1075232,"SoundDuration":1075232,"Delta":81955856},{"NoteNumber":64,"Velocity":42,"Duration":134698,"SoundDuration":134698,"Delta":82225253},{"NoteNumber":62,"Velocity":42,"Duration":134698,"SoundDuration":134698,"Delta":82359951},{"NoteNumber":60,"Velocity":44,"Duration":271935,"SoundDuration":271935,"Delta":82494649},{"NoteNumber":62,"Velocity":41,"Duration":264503,"SoundDuration":264503,"Delta":82766585},{"NoteNumber":60,"Velocity":44,"Duration":271935,"SoundDuration":271935,"Delta":83031089},{"NoteNumber":70,"Velocity":53,"Duration":566321,"SoundDuration":566321,"Delta":83031089},{"NoteNumber":38,"Velocity":32,"Duration":543871,"SoundDuration":543871,"Delta":83031089},{"NoteNumber":50,"Velocity":38,"Duration":543871,"SoundDuration":543871,"Delta":83031089},{"NoteNumber":62,"Velocity":41,"Duration":271935,"SoundDuration":271935,"Delta":83303025},{"NoteNumber":71,"Velocity":55,"Duration":1075232,"SoundDuration":1075232,"Delta":83574961},{"NoteNumber":59,"Velocity":44,"Duration":269396,"SoundDuration":269396,"Delta":83574961},{"NoteNumber":62,"Velocity":44,"Duration":269396,"SoundDuration":269396,"Delta":83574961},{"NoteNumber":43,"Velocity":35,"Duration":1075232,"SoundDuration":1075232,"Delta":83574961},{"NoteNumber":50,"Velocity":42,"Duration":1075232,"SoundDuration":1075232,"Delta":83574961},{"NoteNumber":64,"Velocity":42,"Duration":134698,"SoundDuration":134698,"Delta":83844357},{"NoteNumber":62,"Velocity":42,"Duration":134698,"SoundDuration":134698,"Delta":83979056},{"NoteNumber":59,"Velocity":44,"Duration":271935,"SoundDuration":271935,"Delta":84113754},{"NoteNumber":62,"Velocity":41,"Duration":264503,"SoundDuration":264503,"Delta":84385690},{"NoteNumber":55,"Velocity":47,"Duration":543871,"SoundDuration":543871,"Delta":84650193},{"NoteNumber":62,"Velocity":49,"Duration":271935,"SoundDuration":271935,"Delta":84922129},{"NoteNumber":64,"Velocity":51,"Duration":810728,"SoundDuration":810728,"Delta":85194065},{"NoteNumber":59,"Velocity":51,"Duration":269396,"SoundDuration":269396,"Delta":85194065},{"NoteNumber":49,"Velocity":51,"Duration":157147,"SoundDuration":157147,"Delta":85194065},{"NoteNumber":50,"Velocity":39,"Duration":157147,"SoundDuration":157147,"Delta":85328764},{"NoteNumber":69,"Velocity":46,"Duration":134698,"SoundDuration":134698,"Delta":85463462},{"NoteNumber":49,"Velocity":49,"Duration":1073693,"SoundDuration":1073693,"Delta":85463462},{"NoteNumber":67,"Velocity":47,"Duration":134698,"SoundDuration":134698,"Delta":85598160},{"NoteNumber":64,"Velocity":50,"Duration":536439,"SoundDuration":536439,"Delta":85732858},{"NoteNumber":71,"Velocity":57,"Duration":264503,"SoundDuration":264503,"Delta":86004794},{"NoteNumber":54,"Velocity":46,"Duration":264503,"SoundDuration":264503,"Delta":86004794},{"NoteNumber":64,"Velocity":50,"Duration":267857,"SoundDuration":267857,"Delta":86269298},{"NoteNumber":76,"Velocity":59,"Duration":267857,"SoundDuration":267857,"Delta":86269298},{"NoteNumber":55,"Velocity":50,"Duration":267857,"SoundDuration":267857,"Delta":86269298},{"NoteNumber":71,"Velocity":55,"Duration":270179,"SoundDuration":270179,"Delta":86537155},{"NoteNumber":61,"Velocity":44,"Duration":270179,"SoundDuration":270179,"Delta":86537155},{"NoteNumber":74,"Velocity":50,"Duration":1075232,"SoundDuration":1075232,"Delta":86807334},{"NoteNumber":62,"Velocity":61,"Duration":269396,"SoundDuration":269396,"Delta":86807334},{"NoteNumber":54,"Velocity":49,"Duration":1075232,"SoundDuration":1075232,"Delta":86807334},{"NoteNumber":67,"Velocity":53,"Duration":134698,"SoundDuration":134698,"Delta":87076731},{"NoteNumber":66,"Velocity":53,"Duration":134698,"SoundDuration":134698,"Delta":87211429},{"NoteNumber":65,"Velocity":55,"Duration":536439,"SoundDuration":536439,"Delta":87346127},{"NoteNumber":64,"Velocity":55,"Duration":815154,"SoundDuration":815154,"Delta":87618063},{"NoteNumber":73,"Velocity":59,"Duration":271935,"SoundDuration":271935,"Delta":87882567},{"NoteNumber":42,"Velocity":46,"Duration":550650,"SoundDuration":550650,"Delta":87882567},{"NoteNumber":66,"Velocity":55,"Duration":278714,"SoundDuration":278714,"Delta":88154503},{"NoteNumber":62,"Velocity":53,"Duration":1635391,"SoundDuration":1635391,"Delta":88433218},{"NoteNumber":71,"Velocity":66,"Duration":1635391,"SoundDuration":1635391,"Delta":88433218},{"NoteNumber":47,"Velocity":48,"Duration":1635391,"SoundDuration":1635391,"Delta":88433218},{"NoteNumber":57,"Velocity":47,"Duration":136599,"SoundDuration":136599,"Delta":88702614},{"NoteNumber":55,"Velocity":45,"Duration":136599,"SoundDuration":136599,"Delta":88839214},{"NoteNumber":53,"Velocity":49,"Duration":273198,"SoundDuration":273198,"Delta":88975813},{"NoteNumber":54,"Velocity":46,"Duration":273199,"SoundDuration":273199,"Delta":89249012},{"NoteNumber":59,"Velocity":52,"Duration":546397,"SoundDuration":546397,"Delta":89522211},{"NoteNumber":69,"Velocity":56,"Duration":1087976,"SoundDuration":1087976,"Delta":90068609},{"NoteNumber":72,"Velocity":75,"Duration":1087976,"SoundDuration":1087976,"Delta":90068609},{"NoteNumber":38,"Velocity":62,"Duration":268168,"SoundDuration":268168,"Delta":90068609},{"NoteNumber":62,"Velocity":53,"Duration":137274,"SoundDuration":137274,"Delta":90336778},{"NoteNumber":62,"Velocity":53,"Duration":137274,"SoundDuration":137274,"Delta":90474053},{"NoteNumber":62,"Velocity":59,"Duration":274549,"SoundDuration":274549,"Delta":90611327},{"NoteNumber":62,"Velocity":55,"Duration":270709,"SoundDuration":270709,"Delta":90885877},{"NoteNumber":68,"Velocity":55,"Duration":549098,"SoundDuration":549098,"Delta":91156586},{"NoteNumber":71,"Velocity":73,"Duration":549098,"SoundDuration":549098,"Delta":91156586},{"NoteNumber":62,"Velocity":55,"Duration":549098,"SoundDuration":549098,"Delta":91431136},{"NoteNumber":71,"Velocity":56,"Duration":571978,"SoundDuration":571978,"Delta":91705685},{"NoteNumber":74,"Velocity":75,"Duration":571978,"SoundDuration":571978,"Delta":91705685},{"NoteNumber":62,"Velocity":53,"Duration":549098,"SoundDuration":549098,"Delta":91980235},{"NoteNumber":69,"Velocity":63,"Duration":571978,"SoundDuration":571978,"Delta":92254784},{"NoteNumber":72,"Velocity":71,"Duration":571978,"SoundDuration":571978,"Delta":92254784},{"NoteNumber":62,"Velocity":53,"Duration":549098,"SoundDuration":549098,"Delta":92529334},{"NoteNumber":68,"Velocity":61,"Duration":549098,"SoundDuration":549098,"Delta":92803883},{"NoteNumber":71,"Velocity":68,"Duration":549098,"SoundDuration":549098,"Delta":92803883},{"NoteNumber":62,"Velocity":49,"Duration":544013,"SoundDuration":544013,"Delta":93078433},{"NoteNumber":65,"Velocity":53,"Duration":269464,"SoundDuration":269464,"Delta":93352982},{"NoteNumber":68,"Velocity":71,"Duration":269464,"SoundDuration":269464,"Delta":93352982},{"NoteNumber":66,"Velocity":52,"Duration":266080,"SoundDuration":266080,"Delta":93622447},{"NoteNumber":69,"Velocity":70,"Duration":266080,"SoundDuration":266080,"Delta":93622447},{"NoteNumber":62,"Velocity":51,"Duration":529431,"SoundDuration":529431,"Delta":93622447},{"NoteNumber":69,"Velocity":52,"Duration":263351,"SoundDuration":263351,"Delta":93888527},{"NoteNumber":72,"Velocity":70,"Duration":263351,"SoundDuration":263351,"Delta":93888527},{"NoteNumber":72,"Velocity":54,"Duration":263158,"SoundDuration":263158,"Delta":94151878},{"NoteNumber":76,"Velocity":73,"Duration":263158,"SoundDuration":263158,"Delta":94151878},{"NoteNumber":62,"Velocity":55,"Duration":526315,"SoundDuration":526315,"Delta":94151878},{"NoteNumber":76,"Velocity":57,"Duration":263157,"SoundDuration":263157,"Delta":94415036},{"NoteNumber":79,"Velocity":76,"Duration":263157,"SoundDuration":263157,"Delta":94415036},{"NoteNumber":74,"Velocity":55,"Duration":269058,"SoundDuration":269058,"Delta":94678194},{"NoteNumber":78,"Velocity":74,"Duration":269058,"SoundDuration":269058,"Delta":94678194},{"NoteNumber":62,"Velocity":54,"Duration":535724,"SoundDuration":535724,"Delta":94678194},{"NoteNumber":81,"Velocity":76,"Duration":266666,"SoundDuration":266666,"Delta":94947252},{"NoteNumber":78,"Velocity":57,"Duration":266666,"SoundDuration":266666,"Delta":94947252},{"NoteNumber":74,"Velocity":52,"Duration":266666,"SoundDuration":266666,"Delta":95213919},{"NoteNumber":78,"Velocity":70,"Duration":266666,"SoundDuration":266666,"Delta":95213919},{"NoteNumber":62,"Velocity":57,"Duration":539865,"SoundDuration":539865,"Delta":95213919},{"NoteNumber":72,"Velocity":55,"Duration":273199,"SoundDuration":273199,"Delta":95480585},{"NoteNumber":76,"Velocity":74,"Duration":273199,"SoundDuration":273199,"Delta":95480585},{"NoteNumber":69,"Velocity":51,"Duration":273198,"SoundDuration":273198,"Delta":95753784},{"NoteNumber":72,"Velocity":67,"Duration":273198,"SoundDuration":273198,"Delta":95753784},{"NoteNumber":62,"Velocity":51,"Duration":546397,"SoundDuration":546397,"Delta":95753784},{"NoteNumber":68,"Velocity":52,"Duration":273199,"SoundDuration":273199,"Delta":96026983},{"NoteNumber":71,"Velocity":70,"Duration":273199,"SoundDuration":273199,"Delta":96026983},{"NoteNumber":71,"Velocity":51,"Duration":273199,"SoundDuration":273199,"Delta":96300182},{"NoteNumber":74,"Velocity":67,"Duration":273199,"SoundDuration":273199,"Delta":96300182},{"NoteNumber":62,"Velocity":51,"Duration":273199,"SoundDuration":273199,"Delta":96300182},{"NoteNumber":69,"Velocity":63,"Duration":1087976,"SoundDuration":1087976,"Delta":96573381},{"NoteNumber":72,"Velocity":75,"Duration":1087976,"SoundDuration":1087976,"Delta":96573381},{"NoteNumber":38,"Velocity":62,"Duration":268168,"SoundDuration":268168,"Delta":96573381},{"NoteNumber":62,"Velocity":48,"Duration":137274,"SoundDuration":137274,"Delta":96841550},{"NoteNumber":62,"Velocity":48,"Duration":137274,"SoundDuration":137274,"Delta":96978824},{"NoteNumber":62,"Velocity":52,"Duration":274549,"SoundDuration":274549,"Delta":97116099},{"NoteNumber":62,"Velocity":49,"Duration":270709,"SoundDuration":270709,"Delta":97390649},{"NoteNumber":68,"Velocity":56,"Duration":549098,"SoundDuration":549098,"Delta":97661358},{"NoteNumber":71,"Velocity":66,"Duration":549098,"SoundDuration":549098,"Delta":97661358},{"NoteNumber":62,"Velocity":49,"Duration":549098,"SoundDuration":549098,"Delta":97935908},{"NoteNumber":70,"Velocity":57,"Duration":571978,"SoundDuration":571978,"Delta":98210457},{"NoteNumber":74,"Velocity":68,"Duration":571978,"SoundDuration":571978,"Delta":98210457},{"NoteNumber":62,"Velocity":48,"Duration":549098,"SoundDuration":549098,"Delta":98485007},{"NoteNumber":69,"Velocity":53,"Duration":571978,"SoundDuration":571978,"Delta":98759556},{"NoteNumber":72,"Velocity":63,"Duration":571978,"SoundDuration":571978,"Delta":98759556},{"NoteNumber":62,"Velocity":48,"Duration":549098,"SoundDuration":549098,"Delta":99034106},{"NoteNumber":67,"Velocity":51,"Duration":549098,"SoundDuration":549098,"Delta":99308655},{"NoteNumber":70,"Velocity":61,"Duration":549098,"SoundDuration":549098,"Delta":99308655},{"NoteNumber":62,"Velocity":44,"Duration":542009,"SoundDuration":542009,"Delta":99583205},{"NoteNumber":65,"Velocity":51,"Duration":267460,"SoundDuration":267460,"Delta":99857754},{"NoteNumber":68,"Velocity":60,"Duration":267460,"SoundDuration":267460,"Delta":99857754},{"NoteNumber":66,"Velocity":48,"Duration":265879,"SoundDuration":265879,"Delta":100125214},{"NoteNumber":69,"Velocity":57,"Duration":265879,"SoundDuration":265879,"Delta":100125214},{"NoteNumber":62,"Velocity":46,"Duration":531366,"SoundDuration":531366,"Delta":100125214},{"NoteNumber":69,"Velocity":51,"Duration":265486,"SoundDuration":265486,"Delta":100391094},{"NoteNumber":72,"Velocity":60,"Duration":265486,"SoundDuration":265486,"Delta":100391094},{"NoteNumber":72,"Velocity":51,"Duration":265486,"SoundDuration":265486,"Delta":100656581},{"NoteNumber":75,"Velocity":60,"Duration":265486,"SoundDuration":265486,"Delta":100656581},{"NoteNumber":62,"Velocity":45,"Duration":530973,"SoundDuration":530973,"Delta":100656581},{"NoteNumber":75,"Velocity":53,"Duration":265486,"SoundDuration":265486,"Delta":100922067},{"NoteNumber":79,"Velocity":63,"Duration":265486,"SoundDuration":265486,"Delta":100922067},{"NoteNumber":74,"Velocity":50,"Duration":269058,"SoundDuration":269058,"Delta":101187554},{"NoteNumber":78,"Velocity":59,"Duration":269058,"SoundDuration":269058,"Delta":101187554},{"NoteNumber":62,"Velocity":50,"Duration":535724,"SoundDuration":535724,"Delta":101187554},{"NoteNumber":81,"Velocity":65,"Duration":266666,"SoundDuration":266666,"Delta":101456612},{"NoteNumber":78,"Velocity":54,"Duration":266666,"SoundDuration":266666,"Delta":101456612},{"NoteNumber":74,"Velocity":53,"Duration":266666,"SoundDuration":266666,"Delta":101723279},{"NoteNumber":78,"Velocity":63,"Duration":266666,"SoundDuration":266666,"Delta":101723279},{"NoteNumber":62,"Velocity":48,"Duration":539865,"SoundDuration":539865,"Delta":101723279},{"NoteNumber":72,"Velocity":50,"Duration":273199,"SoundDuration":273199,"Delta":101989945},{"NoteNumber":75,"Velocity":59,"Duration":273199,"SoundDuration":273199,"Delta":101989945},{"NoteNumber":67,"Velocity":38,"Duration":273198,"SoundDuration":273198,"Delta":102263144},{"NoteNumber":69,"Velocity":56,"Duration":273198,"SoundDuration":273198,"Delta":102263144},{"NoteNumber":62,"Velocity":42,"Duration":546397,"SoundDuration":546397,"Delta":102263144},{"NoteNumber":66,"Velocity":40,"Duration":273199,"SoundDuration":273199,"Delta":102536343},{"NoteNumber":74,"Velocity":57,"Duration":273199,"SoundDuration":273199,"Delta":102536343},{"NoteNumber":69,"Velocity":38,"Duration":273199,"SoundDuration":273199,"Delta":102809542},{"NoteNumber":72,"Velocity":55,"Duration":273199,"SoundDuration":273199,"Delta":102809542},{"NoteNumber":62,"Velocity":40,"Duration":273199,"SoundDuration":273199,"Delta":102809542},{"NoteNumber":67,"Velocity":51,"Duration":1618084,"SoundDuration":1618084,"Delta":103082741},{"NoteNumber":70,"Velocity":60,"Duration":1618084,"SoundDuration":1618084,"Delta":103082741},{"NoteNumber":63,"Velocity":51,"Duration":132743,"SoundDuration":132743,"Delta":103349716},{"NoteNumber":65,"Velocity":50,"Duration":132743,"SoundDuration":132743,"Delta":103482459},{"NoteNumber":63,"Velocity":54,"Duration":269058,"SoundDuration":269058,"Delta":103615203},{"NoteNumber":62,"Velocity":49,"Duration":269058,"SoundDuration":269058,"Delta":103884261},{"NoteNumber":63,"Velocity":54,"Duration":269058,"SoundDuration":269058,"Delta":104153320},{"NoteNumber":62,"Velocity":50,"Duration":278447,"SoundDuration":278447,"Delta":104422378},{"NoteNumber":61,"Velocity":51,"Duration":1604566,"SoundDuration":1604566,"Delta":104700826},{"NoteNumber":75,"Velocity":63,"Duration":289980,"SoundDuration":289980,"Delta":104965143},{"NoteNumber":77,"Velocity":66,"Duration":287610,"SoundDuration":287610,"Delta":105233000},{"NoteNumber":79,"Velocity":64,"Duration":288045,"SoundDuration":288045,"Delta":105498487},{"NoteNumber":77,"Velocity":66,"Duration":293268,"SoundDuration":293268,"Delta":105763973},{"NoteNumber":75,"Velocity":66,"Duration":270709,"SoundDuration":270709,"Delta":106034683},{"NoteNumber":84,"Velocity":70,"Duration":270709,"SoundDuration":270709,"Delta":106305392},{"NoteNumber":79,"Velocity":50,"Duration":270709,"SoundDuration":270709,"Delta":106305392},{"NoteNumber":75,"Velocity":50,"Duration":270709,"SoundDuration":270709,"Delta":106305392},{"NoteNumber":73,"Velocity":54,"Duration":1635777,"SoundDuration":1635777,"Delta":106305392},{"NoteNumber":82,"Velocity":62,"Duration":270709,"SoundDuration":270709,"Delta":106576102},{"NoteNumber":79,"Velocity":66,"Duration":270709,"SoundDuration":270709,"Delta":106846811},{"NoteNumber":75,"Velocity":57,"Duration":274549,"SoundDuration":274549,"Delta":107117521},{"NoteNumber":77,"Velocity":61,"Duration":274549,"SoundDuration":274549,"Delta":107392070},{"NoteNumber":75,"Velocity":57,"Duration":274549,"SoundDuration":274549,"Delta":107666620},{"NoteNumber":63,"Velocity":45,"Duration":539651,"SoundDuration":539651,"Delta":107941169},{"NoteNumber":67,"Velocity":45,"Duration":539651,"SoundDuration":539651,"Delta":107941169},{"NoteNumber":72,"Velocity":54,"Duration":270255,"SoundDuration":270255,"Delta":107941169},{"NoteNumber":61,"Velocity":51,"Duration":1617237,"SoundDuration":1617237,"Delta":107941169},{"NoteNumber":70,"Velocity":54,"Duration":269396,"SoundDuration":269396,"Delta":108211425},{"NoteNumber":67,"Velocity":56,"Duration":269396,"SoundDuration":269396,"Delta":108480821},{"NoteNumber":70,"Velocity":62,"Duration":269396,"SoundDuration":269396,"Delta":108750218},{"NoteNumber":75,"Velocity":63,"Duration":269396,"SoundDuration":269396,"Delta":109019614},{"NoteNumber":79,"Velocity":63,"Duration":269396,"SoundDuration":269396,"Delta":109289011},{"NoteNumber":75,"Velocity":62,"Duration":1628260,"SoundDuration":1628260,"Delta":109558407},{"NoteNumber":79,"Velocity":62,"Duration":1628260,"SoundDuration":1628260,"Delta":109558407},{"NoteNumber":67,"Velocity":62,"Duration":1628260,"SoundDuration":1628260,"Delta":109558407},{"NoteNumber":70,"Velocity":62,"Duration":1628260,"SoundDuration":1628260,"Delta":109558407},{"NoteNumber":37,"Velocity":56,"Duration":266975,"SoundDuration":266975,"Delta":109558407},{"NoteNumber":63,"Velocity":51,"Duration":135354,"SoundDuration":135354,"Delta":109825382},{"NoteNumber":65,"Velocity":50,"Duration":135354,"SoundDuration":135354,"Delta":109960737},{"NoteNumber":63,"Velocity":54,"Duration":270709,"SoundDuration":270709,"Delta":110096092},{"NoteNumber":62,"Velocity":49,"Duration":270709,"SoundDuration":270709,"Delta":110366801},{"NoteNumber":63,"Velocity":54,"Duration":270709,"SoundDuration":270709,"Delta":110637511},{"NoteNumber":62,"Velocity":50,"Duration":278447,"SoundDuration":278447,"Delta":110908220},{"NoteNumber":61,"Velocity":51,"Duration":1619175,"SoundDuration":1619175,"Delta":111186668},{"NoteNumber":75,"Velocity":63,"Duration":293056,"SoundDuration":293056,"Delta":111457378},{"NoteNumber":77,"Velocity":66,"Duration":290515,"SoundDuration":290515,"Delta":111728087},{"NoteNumber":79,"Velocity":64,"Duration":290727,"SoundDuration":290727,"Delta":111996256},{"NoteNumber":77,"Velocity":66,"Duration":293268,"SoundDuration":293268,"Delta":112264424},{"NoteNumber":75,"Velocity":66,"Duration":270709,"SoundDuration":270709,"Delta":112535134},{"NoteNumber":84,"Velocity":70,"Duration":270709,"SoundDuration":270709,"Delta":112805843},{"NoteNumber":79,"Velocity":50,"Duration":270709,"SoundDuration":270709,"Delta":112805843},{"NoteNumber":75,"Velocity":50,"Duration":270709,"SoundDuration":270709,"Delta":112805843},{"NoteNumber":73,"Velocity":54,"Duration":1635777,"SoundDuration":1635777,"Delta":112805843},{"NoteNumber":82,"Velocity":62,"Duration":270709,"SoundDuration":270709,"Delta":113076553},{"NoteNumber":79,"Velocity":66,"Duration":270709,"SoundDuration":270709,"Delta":113347262},{"NoteNumber":75,"Velocity":57,"Duration":274549,"SoundDuration":274549,"Delta":113617972},{"NoteNumber":77,"Velocity":61,"Duration":274549,"SoundDuration":274549,"Delta":113892521},{"NoteNumber":75,"Velocity":57,"Duration":274549,"SoundDuration":274549,"Delta":114167071},{"NoteNumber":63,"Velocity":45,"Duration":539651,"SoundDuration":539651,"Delta":114441620},{"NoteNumber":67,"Velocity":45,"Duration":539651,"SoundDuration":539651,"Delta":114441620},{"NoteNumber":72,"Velocity":54,"Duration":270255,"SoundDuration":270255,"Delta":114441620},{"NoteNumber":61,"Velocity":51,"Duration":1617237,"SoundDuration":1617237,"Delta":114441620},{"NoteNumber":70,"Velocity":54,"Duration":269396,"SoundDuration":269396,"Delta":114711875},{"NoteNumber":67,"Velocity":56,"Duration":269396,"SoundDuration":269396,"Delta":114981272},{"NoteNumber":70,"Velocity":62,"Duration":269396,"SoundDuration":269396,"Delta":115250668},{"NoteNumber":75,"Velocity":63,"Duration":269396,"SoundDuration":269396,"Delta":115520065},{"NoteNumber":79,"Velocity":63,"Duration":269396,"SoundDuration":269396,"Delta":115789461},{"NoteNumber":70,"Velocity":69,"Duration":1083815,"SoundDuration":1083815,"Delta":116058858},{"NoteNumber":74,"Velocity":69,"Duration":1083815,"SoundDuration":1083815,"Delta":116058858},{"NoteNumber":82,"Velocity":69,"Duration":1083815,"SoundDuration":1083815,"Delta":116058858},{"NoteNumber":79,"Velocity":69,"Duration":1083815,"SoundDuration":1083815,"Delta":116058858},{"NoteNumber":38,"Velocity":57,"Duration":270954,"SoundDuration":270954,"Delta":116058858},{"NoteNumber":62,"Velocity":55,"Duration":541907,"SoundDuration":541907,"Delta":116329812},{"NoteNumber":62,"Velocity":50,"Duration":542251,"SoundDuration":542251,"Delta":116871720},{"NoteNumber":70,"Velocity":67,"Duration":542593,"SoundDuration":542593,"Delta":117142674},{"NoteNumber":74,"Velocity":67,"Duration":542593,"SoundDuration":542593,"Delta":117142674},{"NoteNumber":62,"Velocity":50,"Duration":535613,"SoundDuration":535613,"Delta":117413971},{"NoteNumber":69,"Velocity":60,"Duration":264317,"SoundDuration":264317,"Delta":117685268},{"NoteNumber":72,"Velocity":60,"Duration":264317,"SoundDuration":264317,"Delta":117685268},{"NoteNumber":72,"Velocity":65,"Duration":269058,"SoundDuration":269058,"Delta":117949585},{"NoteNumber":75,"Velocity":65,"Duration":269058,"SoundDuration":269058,"Delta":117949585},{"NoteNumber":62,"Velocity":56,"Duration":534544,"SoundDuration":534544,"Delta":117949585},{"NoteNumber":77,"Velocity":70,"Duration":530973,"SoundDuration":530973,"Delta":118218643},{"NoteNumber":81,"Velocity":70,"Duration":530973,"SoundDuration":530973,"Delta":118218643},{"NoteNumber":62,"Velocity":53,"Duration":530762,"SoundDuration":530762,"Delta":118484130},{"NoteNumber":74,"Velocity":71,"Duration":265275,"SoundDuration":265275,"Delta":118749616},{"NoteNumber":77,"Velocity":71,"Duration":265275,"SoundDuration":265275,"Delta":118749616},{"NoteNumber":70,"Velocity":63,"Duration":269058,"SoundDuration":269058,"Delta":119014892},{"NoteNumber":74,"Velocity":63,"Duration":269058,"SoundDuration":269058,"Delta":119014892},{"NoteNumber":62,"Velocity":51,"Duration":529927,"SoundDuration":529927,"Delta":119014892},{"NoteNumber":67,"Velocity":66,"Duration":130434,"SoundDuration":130434,"Delta":119283950},{"NoteNumber":70,"Velocity":66,"Duration":130434,"SoundDuration":130434,"Delta":119283950},{"NoteNumber":75,"Velocity":65,"Duration":132743,"SoundDuration":132743,"Delta":119544820},{"NoteNumber":79,"Velocity":65,"Duration":132743,"SoundDuration":132743,"Delta":119544820},{"NoteNumber":62,"Velocity":56,"Duration":534327,"SoundDuration":534327,"Delta":119544820},{"NoteNumber":72,"Velocity":66,"Duration":134420,"SoundDuration":134420,"Delta":119810306},{"NoteNumber":75,"Velocity":66,"Duration":134420,"SoundDuration":134420,"Delta":119810306},{"NoteNumber":69,"Velocity":61,"Duration":134420,"SoundDuration":134420,"Delta":120079148},{"NoteNumber":72,"Velocity":61,"Duration":134420,"SoundDuration":134420,"Delta":120079148},{"NoteNumber":62,"Velocity":50,"Duration":532926,"SoundDuration":532926,"Delta":120079148},{"NoteNumber":66,"Velocity":65,"Duration":132042,"SoundDuration":132042,"Delta":120347989},{"NoteNumber":69,"Velocity":65,"Duration":132042,"SoundDuration":132042,"Delta":120347989},{"NoteNumber":74,"Velocity":60,"Duration":134420,"SoundDuration":134420,"Delta":120612074},{"NoteNumber":77,"Velocity":60,"Duration":134420,"SoundDuration":134420,"Delta":120612074},{"NoteNumber":62,"Velocity":50,"Duration":538892,"SoundDuration":538892,"Delta":120612074},{"NoteNumber":70,"Velocity":69,"Duration":135025,"SoundDuration":135025,"Delta":120880915},{"NoteNumber":74,"Velocity":69,"Duration":135025,"SoundDuration":135025,"Delta":120880915},{"NoteNumber":67,"Velocity":64,"Duration":137513,"SoundDuration":137513,"Delta":121150967},{"NoteNumber":70,"Velocity":64,"Duration":137513,"SoundDuration":137513,"Delta":121150967},{"NoteNumber":62,"Velocity":50,"Duration":275027,"SoundDuration":275027,"Delta":121150967},{"NoteNumber":63,"Velocity":68,"Duration":550055,"SoundDuration":550055,"Delta":121425994},{"NoteNumber":67,"Velocity":68,"Duration":275027,"SoundDuration":275027,"Delta":121425994},{"NoteNumber":62,"Velocity":45,"Duration":550055,"SoundDuration":550055,"Delta":121425994},{"NoteNumber":70,"Velocity":62,"Duration":275027,"SoundDuration":275027,"Delta":121701022},{"NoteNumber":60,"Velocity":54,"Duration":553915,"SoundDuration":553915,"Delta":121976049},{"NoteNumber":66,"Velocity":54,"Duration":553915,"SoundDuration":553915,"Delta":121976049},{"NoteNumber":69,"Velocity":64,"Duration":275027,"SoundDuration":275027,"Delta":121976049},{"NoteNumber":50,"Velocity":42,"Duration":553915,"SoundDuration":553915,"Delta":121976049},{"NoteNumber":74,"Velocity":56,"Duration":278887,"SoundDuration":278887,"Delta":122251077},{"NoteNumber":74,"Velocity":70,"Duration":1621982,"SoundDuration":1621982,"Delta":122529965},{"NoteNumber":47,"Velocity":53,"Duration":535713,"SoundDuration":535713,"Delta":122529965},{"NoteNumber":60,"Velocity":40,"Duration":543133,"SoundDuration":543133,"Delta":123065679},{"NoteNumber":62,"Velocity":29,"Duration":1086268,"SoundDuration":1086268,"Delta":123065679},{"NoteNumber":65,"Velocity":29,"Duration":1086268,"SoundDuration":1086268,"Delta":123065679},{"NoteNumber":68,"Velocity":29,"Duration":1086268,"SoundDuration":1086268,"Delta":123065679},{"NoteNumber":59,"Velocity":36,"Duration":543134,"SoundDuration":543134,"Delta":123608813},{"NoteNumber":48,"Velocity":51,"Duration":528514,"SoundDuration":528514,"Delta":124151947},{"NoteNumber":72,"Velocity":64,"Duration":87290,"SoundDuration":87290,"Delta":124418590},{"NoteNumber":74,"Velocity":61,"Duration":87290,"SoundDuration":87290,"Delta":124505880},{"NoteNumber":72,"Velocity":61,"Duration":87290,"SoundDuration":87290,"Delta":124593171},{"NoteNumber":71,"Velocity":64,"Duration":261871,"SoundDuration":261871,"Delta":124680461},{"NoteNumber":67,"Velocity":45,"Duration":1065476,"SoundDuration":1065476,"Delta":124680461},{"NoteNumber":63,"Velocity":45,"Duration":1065476,"SoundDuration":1065476,"Delta":124680461},{"NoteNumber":57,"Velocity":45,"Duration":1065476,"SoundDuration":1065476,"Delta":124680461},{"NoteNumber":72,"Velocity":61,"Duration":266643,"SoundDuration":266643,"Delta":124942333},{"NoteNumber":74,"Velocity":64,"Duration":266643,"SoundDuration":266643,"Delta":125208976},{"NoteNumber":75,"Velocity":62,"Duration":270319,"SoundDuration":270319,"Delta":125475619},{"NoteNumber":67,"Velocity":61,"Duration":266643,"SoundDuration":266643,"Delta":125745938},{"NoteNumber":70,"Velocity":61,"Duration":266643,"SoundDuration":266643,"Delta":125745938},{"NoteNumber":38,"Velocity":51,"Duration":1070248,"SoundDuration":1070248,"Delta":125745938},{"NoteNumber":72,"Velocity":63,"Duration":266643,"SoundDuration":266643,"Delta":126012581},{"NoteNumber":73,"Velocity":66,"Duration":266643,"SoundDuration":266643,"Delta":126279224},{"NoteNumber":74,"Velocity":69,"Duration":270319,"SoundDuration":270319,"Delta":126545867},{"NoteNumber":79,"Velocity":70,"Duration":267857,"SoundDuration":267857,"Delta":126816186},{"NoteNumber":62,"Velocity":44,"Duration":267857,"SoundDuration":267857,"Delta":126816186},{"NoteNumber":74,"Velocity":66,"Duration":267856,"SoundDuration":267856,"Delta":127084043},{"NoteNumber":66,"Velocity":68,"Duration":1076397,"SoundDuration":1076397,"Delta":127351900},{"NoteNumber":70,"Velocity":68,"Duration":1076397,"SoundDuration":1076397,"Delta":127351900},{"NoteNumber":60,"Velocity":51,"Duration":267857,"SoundDuration":267857,"Delta":127351900},{"NoteNumber":50,"Velocity":51,"Duration":1349223,"SoundDuration":1349223,"Delta":127351900},{"NoteNumber":61,"Velocity":44,"Duration":267856,"SoundDuration":267856,"Delta":127619757},{"NoteNumber":62,"Velocity":51,"Duration":267856,"SoundDuration":267856,"Delta":127887614},{"NoteNumber":61,"Velocity":51,"Duration":90942,"SoundDuration":90942,"Delta":128155471},{"NoteNumber":62,"Velocity":45,"Duration":90942,"SoundDuration":90942,"Delta":128246413},{"NoteNumber":61,"Velocity":45,"Duration":90942,"SoundDuration":90942,"Delta":128337355},{"NoteNumber":69,"Velocity":68,"Duration":477446,"SoundDuration":477446,"Delta":128428297},{"NoteNumber":60,"Velocity":51,"Duration":272826,"SoundDuration":272826,"Delta":128428297},{"NoteNumber":50,"Velocity":44,"Duration":270380,"SoundDuration":270380,"Delta":128701124},{"NoteNumber":67,"Velocity":55,"Duration":336031,"SoundDuration":336031,"Delta":128905744},{"NoteNumber":74,"Velocity":56,"Duration":303150,"SoundDuration":303150,"Delta":128938624},{"NoteNumber":79,"Velocity":60,"Duration":270270,"SoundDuration":270270,"Delta":128971504},{"NoteNumber":43,"Velocity":44,"Duration":270270,"SoundDuration":270270,"Delta":128971504},{"NoteNumber":50,"Velocity":44,"Duration":270270,"SoundDuration":270270,"Delta":128971504},{"NoteNumber":58,"Velocity":44,"Duration":270270,"SoundDuration":270270,"Delta":128971504},{"NoteNumber":74,"Velocity":57,"Duration":132743,"SoundDuration":132743,"Delta":129241775},{"NoteNumber":71,"Velocity":53,"Duration":132743,"SoundDuration":132743,"Delta":129241775},{"NoteNumber":75,"Velocity":60,"Duration":132743,"SoundDuration":132743,"Delta":129507261},{"NoteNumber":72,"Velocity":57,"Duration":132743,"SoundDuration":132743,"Delta":129507261},{"NoteNumber":79,"Velocity":57,"Duration":132743,"SoundDuration":132743,"Delta":129772748},{"NoteNumber":69,"Velocity":54,"Duration":132743,"SoundDuration":132743,"Delta":129772748},{"NoteNumber":78,"Velocity":64,"Duration":132743,"SoundDuration":132743,"Delta":130038234},{"NoteNumber":74,"Velocity":57,"Duration":132743,"SoundDuration":132743,"Delta":130038234},{"NoteNumber":81,"Velocity":59,"Duration":132743,"SoundDuration":132743,"Delta":130303721},{"NoteNumber":72,"Velocity":53,"Duration":132743,"SoundDuration":132743,"Delta":130303721},{"NoteNumber":79,"Velocity":64,"Duration":87336,"SoundDuration":87336,"Delta":130569207},{"NoteNumber":70,"Velocity":57,"Duration":131004,"SoundDuration":131004,"Delta":130569207},{"NoteNumber":81,"Velocity":54,"Duration":87336,"SoundDuration":87336,"Delta":130656544},{"NoteNumber":79,"Velocity":54,"Duration":87336,"SoundDuration":87336,"Delta":130743880},{"NoteNumber":78,"Velocity":59,"Duration":130434,"SoundDuration":130434,"Delta":130831216},{"NoteNumber":69,"Velocity":55,"Duration":130434,"SoundDuration":130434,"Delta":130831216},{"NoteNumber":79,"Velocity":66,"Duration":131004,"SoundDuration":131004,"Delta":131092085},{"NoteNumber":70,"Velocity":59,"Duration":131004,"SoundDuration":131004,"Delta":131092085},{"NoteNumber":82,"Velocity":64,"Duration":132743,"SoundDuration":132743,"Delta":131354094},{"NoteNumber":67,"Velocity":57,"Duration":132743,"SoundDuration":132743,"Delta":131354094},{"NoteNumber":74,"Velocity":61,"Duration":132743,"SoundDuration":132743,"Delta":131619580},{"NoteNumber":81,"Velocity":69,"Duration":132743,"SoundDuration":132743,"Delta":131619580},{"NoteNumber":66,"Velocity":62,"Duration":132743,"SoundDuration":132743,"Delta":131619580},{"NoteNumber":86,"Velocity":71,"Duration":135783,"SoundDuration":135783,"Delta":131885067},{"NoteNumber":62,"Velocity":61,"Duration":135783,"SoundDuration":135783,"Delta":131885067},{"NoteNumber":77,"Velocity":68,"Duration":1071582,"SoundDuration":1071582,"Delta":132156634},{"NoteNumber":48,"Velocity":51,"Duration":528447,"SoundDuration":528447,"Delta":132156634},{"NoteNumber":66,"Velocity":49,"Duration":543134,"SoundDuration":543134,"Delta":132685082},{"NoteNumber":60,"Velocity":41,"Duration":1086267,"SoundDuration":1086267,"Delta":132685082},{"NoteNumber":63,"Velocity":41,"Duration":1086267,"SoundDuration":1086267,"Delta":132685082},{"NoteNumber":75,"Velocity":68,"Duration":543133,"SoundDuration":543133,"Delta":133228216},{"NoteNumber":67,"Velocity":54,"Duration":543133,"SoundDuration":543133,"Delta":133228216},{"NoteNumber":74,"Velocity":64,"Duration":88074,"SoundDuration":88074,"Delta":133771350},{"NoteNumber":41,"Velocity":51,"Duration":526095,"SoundDuration":526095,"Delta":133771350},{"NoteNumber":75,"Velocity":55,"Duration":88074,"SoundDuration":88074,"Delta":133859425},{"NoteNumber":74,"Velocity":55,"Duration":88074,"SoundDuration":88074,"Delta":133947499},{"NoteNumber":72,"Velocity":59,"Duration":261871,"SoundDuration":261871,"Delta":134035574},{"NoteNumber":71,"Velocity":64,"Duration":264224,"SoundDuration":264224,"Delta":134297445},{"NoteNumber":68,"Velocity":55,"Duration":530867,"SoundDuration":530867,"Delta":134297445},{"NoteNumber":60,"Velocity":41,"Duration":1067829,"SoundDuration":1067829,"Delta":134297445},{"NoteNumber":63,"Velocity":41,"Duration":1067829,"SoundDuration":1067829,"Delta":134297445},{"NoteNumber":72,"Velocity":58,"Duration":266642,"SoundDuration":266642,"Delta":134561669},{"NoteNumber":74,"Velocity":64,"Duration":266643,"SoundDuration":266643,"Delta":134828312},{"NoteNumber":69,"Velocity":56,"Duration":536962,"SoundDuration":536962,"Delta":134828312},{"NoteNumber":75,"Velocity":58,"Duration":270319,"SoundDuration":270319,"Delta":135094955},{"NoteNumber":74,"Velocity":69,"Duration":1058242,"SoundDuration":1058242,"Delta":135365274},{"NoteNumber":46,"Velocity":57,"Duration":529728,"SoundDuration":529728,"Delta":135365274},{"NoteNumber":61,"Velocity":46,"Duration":261871,"SoundDuration":261871,"Delta":135895003},{"NoteNumber":69,"Velocity":55,"Duration":261871,"SoundDuration":261871,"Delta":135895003},{"NoteNumber":66,"Velocity":46,"Duration":261871,"SoundDuration":261871,"Delta":135895003},{"NoteNumber":62,"Velocity":51,"Duration":266642,"SoundDuration":266642,"Delta":136156874},{"NoteNumber":70,"Velocity":60,"Duration":266642,"SoundDuration":266642,"Delta":136156874},{"NoteNumber":68,"Velocity":47,"Duration":536962,"SoundDuration":536962,"Delta":136423517},{"NoteNumber":73,"Velocity":59,"Duration":266643,"SoundDuration":266643,"Delta":136423517},{"NoteNumber":59,"Velocity":55,"Duration":536962,"SoundDuration":536962,"Delta":136423517},{"NoteNumber":74,"Velocity":56,"Duration":270319,"SoundDuration":270319,"Delta":136690160},{"NoteNumber":67,"Velocity":46,"Duration":1581509,"SoundDuration":1581509,"Delta":136960479},{"NoteNumber":77,"Velocity":59,"Duration":261871,"SoundDuration":261871,"Delta":136960479},{"NoteNumber":48,"Velocity":60,"Duration":523742,"SoundDuration":523742,"Delta":136960479},{"NoteNumber":75,"Velocity":57,"Duration":261871,"SoundDuration":261871,"Delta":137222351},{"NoteNumber":74,"Velocity":64,"Duration":262066,"SoundDuration":262066,"Delta":137484222},{"NoteNumber":59,"Velocity":49,"Duration":262066,"SoundDuration":262066,"Delta":137484222},{"NoteNumber":75,"Velocity":61,"Duration":263633,"SoundDuration":263633,"Delta":137746289},{"NoteNumber":60,"Velocity":52,"Duration":263633,"SoundDuration":263633,"Delta":137746289},{"NoteNumber":72,"Velocity":69,"Duration":265018,"SoundDuration":265018,"Delta":138009922},{"NoteNumber":62,"Velocity":55,"Duration":265018,"SoundDuration":265018,"Delta":138009922},{"NoteNumber":67,"Velocity":66,"Duration":267047,"SoundDuration":267047,"Delta":138274941},{"NoteNumber":63,"Velocity":57,"Duration":267047,"SoundDuration":267047,"Delta":138274941},{"NoteNumber":65,"Velocity":63,"Duration":267857,"SoundDuration":267857,"Delta":138541989},{"NoteNumber":70,"Velocity":64,"Duration":267857,"SoundDuration":267857,"Delta":138541989},{"NoteNumber":74,"Velocity":70,"Duration":267857,"SoundDuration":267857,"Delta":138541989},{"NoteNumber":41,"Velocity":63,"Duration":267857,"SoundDuration":267857,"Delta":138541989},{"NoteNumber":77,"Velocity":57,"Duration":133321,"SoundDuration":133321,"Delta":138809846},{"NoteNumber":74,"Velocity":53,"Duration":133321,"SoundDuration":133321,"Delta":138809846},{"NoteNumber":78,"Velocity":60,"Duration":133321,"SoundDuration":133321,"Delta":139076489},{"NoteNumber":75,"Velocity":57,"Duration":133321,"SoundDuration":133321,"Delta":139076489},{"NoteNumber":82,"Velocity":57,"Duration":133321,"SoundDuration":133321,"Delta":139343132},{"NoteNumber":72,"Velocity":54,"Duration":133321,"SoundDuration":133321,"Delta":139343132},{"NoteNumber":81,"Velocity":64,"Duration":133321,"SoundDuration":133321,"Delta":139609775},{"NoteNumber":77,"Velocity":57,"Duration":133321,"SoundDuration":133321,"Delta":139609775},{"NoteNumber":84,"Velocity":59,"Duration":133321,"SoundDuration":133321,"Delta":139876418},{"NoteNumber":75,"Velocity":53,"Duration":133321,"SoundDuration":133321,"Delta":139876418},{"NoteNumber":82,"Velocity":64,"Duration":85756,"SoundDuration":85756,"Delta":140143061},{"NoteNumber":74,"Velocity":57,"Duration":128634,"SoundDuration":128634,"Delta":140143061},{"NoteNumber":84,"Velocity":54,"Duration":85756,"SoundDuration":85756,"Delta":140228817},{"NoteNumber":82,"Velocity":54,"Duration":85756,"SoundDuration":85756,"Delta":140314573},{"NoteNumber":81,"Velocity":58,"Duration":128633,"SoundDuration":128633,"Delta":140400329},{"NoteNumber":73,"Velocity":54,"Duration":128633,"SoundDuration":128633,"Delta":140400329},{"NoteNumber":82,"Velocity":63,"Duration":133321,"SoundDuration":133321,"Delta":140657597},{"NoteNumber":74,"Velocity":57,"Duration":133321,"SoundDuration":133321,"Delta":140657597},{"NoteNumber":86,"Velocity":63,"Duration":133321,"SoundDuration":133321,"Delta":140924240},{"NoteNumber":70,"Velocity":52,"Duration":133321,"SoundDuration":133321,"Delta":140924240},{"NoteNumber":77,"Velocity":58,"Duration":132112,"SoundDuration":132112,"Delta":141190883},{"NoteNumber":84,"Velocity":63,"Duration":132112,"SoundDuration":132112,"Delta":141190883},{"NoteNumber":69,"Velocity":55,"Duration":132112,"SoundDuration":132112,"Delta":141190883},{"NoteNumber":89,"Velocity":60,"Duration":135159,"SoundDuration":135159,"Delta":141455107},{"NoteNumber":65,"Velocity":51,"Duration":135159,"SoundDuration":135159,"Delta":141455107},{"NoteNumber":46,"Velocity":51,"Duration":528514,"SoundDuration":528514,"Delta":141725426},{"NoteNumber":70,"Velocity":64,"Duration":261871,"SoundDuration":261871,"Delta":141992069},{"NoteNumber":72,"Velocity":64,"Duration":261871,"SoundDuration":261871,"Delta":142253940},{"NoteNumber":62,"Velocity":45,"Duration":1065476,"SoundDuration":1065476,"Delta":142253940},{"NoteNumber":53,"Velocity":45,"Duration":1065476,"SoundDuration":1065476,"Delta":142253940},{"NoteNumber":74,"Velocity":61,"Duration":266642,"SoundDuration":266642,"Delta":142515812},{"NoteNumber":77,"Velocity":64,"Duration":266643,"SoundDuration":266643,"Delta":142782455},{"NoteNumber":75,"Velocity":62,"Duration":270319,"SoundDuration":270319,"Delta":143049098},{"NoteNumber":74,"Velocity":61,"Duration":88880,"SoundDuration":88880,"Delta":143319417},{"NoteNumber":46,"Velocity":48,"Duration":533286,"SoundDuration":533286,"Delta":143319417},{"NoteNumber":75,"Velocity":56,"Duration":88881,"SoundDuration":88881,"Delta":143408298},{"NoteNumber":74,"Velocity":55,"Duration":88880,"SoundDuration":88880,"Delta":143497179},{"NoteNumber":71,"Velocity":59,"Duration":266643,"SoundDuration":266643,"Delta":143586060},{"NoteNumber":70,"Velocity":63,"Duration":266642,"SoundDuration":266642,"Delta":143852703},{"NoteNumber":63,"Velocity":44,"Duration":1072676,"SoundDuration":1072676,"Delta":143852703},{"NoteNumber":59,"Velocity":37,"Duration":1072676,"SoundDuration":1072676,"Delta":143852703},{"NoteNumber":54,"Velocity":37,"Duration":1072676,"SoundDuration":1072676,"Delta":143852703},{"NoteNumber":68,"Velocity":57,"Duration":270319,"SoundDuration":270319,"Delta":144119346},{"NoteNumber":66,"Velocity":65,"Duration":267856,"SoundDuration":267856,"Delta":144389665},{"NoteNumber":70,"Velocity":58,"Duration":200892,"SoundDuration":200892,"Delta":144657522},{"NoteNumber":70,"Velocity":60,"Duration":66964,"SoundDuration":66964,"Delta":144858415},{"NoteNumber":65,"Velocity":65,"Duration":1057016,"SoundDuration":1057016,"Delta":144925379},{"NoteNumber":46,"Velocity":54,"Duration":267856,"SoundDuration":267856,"Delta":144925379},{"NoteNumber":58,"Velocity":52,"Duration":261871,"SoundDuration":261871,"Delta":145193236},{"NoteNumber":60,"Velocity":54,"Duration":261871,"SoundDuration":261871,"Delta":145455107},{"NoteNumber":62,"Velocity":51,"Duration":265416,"SoundDuration":265416,"Delta":145716979},{"NoteNumber":68,"Velocity":56,"Duration":535735,"SoundDuration":535735,"Delta":145982395},{"NoteNumber":70,"Velocity":56,"Duration":535735,"SoundDuration":535735,"Delta":145982395},{"NoteNumber":65,"Velocity":55,"Duration":265416,"SoundDuration":265416,"Delta":145982395},{"NoteNumber":62,"Velocity":53,"Duration":270319,"SoundDuration":270319,"Delta":146247812},{"NoteNumber":66,"Velocity":41,"Duration":1058753,"SoundDuration":1058753,"Delta":146518131},{"NoteNumber":70,"Velocity":57,"Duration":1058753,"SoundDuration":1058753,"Delta":146518131},{"NoteNumber":63,"Velocity":48,"Duration":87680,"SoundDuration":87680,"Delta":146518131},{"NoteNumber":65,"Velocity":42,"Duration":87680,"SoundDuration":87680,"Delta":146605812},{"NoteNumber":63,"Velocity":42,"Duration":87680,"SoundDuration":87680,"Delta":146693493},{"NoteNumber":62,"Velocity":46,"Duration":263042,"SoundDuration":263042,"Delta":146781173},{"NoteNumber":63,"Velocity":55,"Duration":265620,"SoundDuration":265620,"Delta":147044216},{"NoteNumber":65,"Velocity":57,"Duration":267047,"SoundDuration":267047,"Delta":147309837},{"NoteNumber":69,"Velocity":67,"Duration":268674,"SoundDuration":268674,"Delta":147576885},{"NoteNumber":66,"Velocity":61,"Duration":538994,"SoundDuration":538994,"Delta":147576885},{"NoteNumber":75,"Velocity":64,"Duration":270320,"SoundDuration":270320,"Delta":147845559},{"NoteNumber":46,"Velocity":51,"Duration":528514,"SoundDuration":528514,"Delta":148115879},{"NoteNumber":70,"Velocity":64,"Duration":261871,"SoundDuration":261871,"Delta":148382522},{"NoteNumber":71,"Velocity":64,"Duration":261871,"SoundDuration":261871,"Delta":148644394},{"NoteNumber":56,"Velocity":37,"Duration":528514,"SoundDuration":528514,"Delta":148644394},{"NoteNumber":68,"Velocity":45,"Duration":1065476,"SoundDuration":1065476,"Delta":148644394},{"NoteNumber":62,"Velocity":45,"Duration":1065476,"SoundDuration":1065476,"Delta":148644394},{"NoteNumber":74,"Velocity":61,"Duration":266642,"SoundDuration":266642,"Delta":148906265},{"NoteNumber":77,"Velocity":67,"Duration":266643,"SoundDuration":266643,"Delta":149172908},{"NoteNumber":59,"Velocity":37,"Duration":536962,"SoundDuration":536962,"Delta":149172908},{"NoteNumber":78,"Velocity":67,"Duration":270319,"SoundDuration":270319,"Delta":149439551},{"NoteNumber":70,"Velocity":41,"Duration":266642,"SoundDuration":266642,"Delta":149709870},{"NoteNumber":77,"Velocity":61,"Duration":88880,"SoundDuration":88880,"Delta":149709870},{"NoteNumber":46,"Velocity":48,"Duration":533286,"SoundDuration":533286,"Delta":149709870},{"NoteNumber":78,"Velocity":51,"Duration":88881,"SoundDuration":88881,"Delta":149798751},{"NoteNumber":77,"Velocity":51,"Duration":88880,"SoundDuration":88880,"Delta":149887632},{"NoteNumber":75,"Velocity":54,"Duration":266643,"SoundDuration":266643,"Delta":149976513},{"NoteNumber":71,"Velocity":65,"Duration":266642,"SoundDuration":266642,"Delta":150243156},{"NoteNumber":66,"Velocity":44,"Duration":804818,"SoundDuration":804818,"Delta":150243156},{"NoteNumber":58,"Velocity":37,"Duration":1072676,"SoundDuration":1072676,"Delta":150243156},{"NoteNumber":70,"Velocity":58,"Duration":270319,"SoundDuration":270319,"Delta":150509799},{"NoteNumber":66,"Velocity":65,"Duration":535714,"SoundDuration":535714,"Delta":150780118},{"NoteNumber":70,"Velocity":58,"Duration":200892,"SoundDuration":200892,"Delta":151047975},{"NoteNumber":70,"Velocity":60,"Duration":66964,"SoundDuration":66964,"Delta":151248868},{"NoteNumber":65,"Velocity":63,"Duration":1082443,"SoundDuration":1082443,"Delta":151315832},{"NoteNumber":46,"Velocity":57,"Duration":293283,"SoundDuration":293283,"Delta":151315832},{"NoteNumber":58,"Velocity":55,"Duration":261871,"SoundDuration":261871,"Delta":151609116},{"NoteNumber":60,"Velocity":57,"Duration":261871,"SoundDuration":261871,"Delta":151870988},{"NoteNumber":62,"Velocity":54,"Duration":265416,"SoundDuration":265416,"Delta":152132859},{"NoteNumber":68,"Velocity":56,"Duration":535735,"SoundDuration":535735,"Delta":152398276},{"NoteNumber":70,"Velocity":56,"Duration":535735,"SoundDuration":535735,"Delta":152398276},{"NoteNumber":65,"Velocity":58,"Duration":265416,"SoundDuration":265416,"Delta":152398276},{"NoteNumber":62,"Velocity":56,"Duration":270319,"SoundDuration":270319,"Delta":152663692},{"NoteNumber":66,"Velocity":48,"Duration":1055405,"SoundDuration":1055405,"Delta":152934011},{"NoteNumber":70,"Velocity":65,"Duration":1058753,"SoundDuration":1058753,"Delta":152934011},{"NoteNumber":63,"Velocity":52,"Duration":87680,"SoundDuration":87680,"Delta":152934011},{"NoteNumber":65,"Velocity":44,"Duration":87680,"SoundDuration":87680,"Delta":153021692},{"NoteNumber":63,"Velocity":44,"Duration":87680,"SoundDuration":87680,"Delta":153109373},{"NoteNumber":62,"Velocity":49,"Duration":263042,"SoundDuration":263042,"Delta":153197054},{"NoteNumber":63,"Velocity":58,"Duration":265620,"SoundDuration":265620,"Delta":153460096},{"NoteNumber":65,"Velocity":61,"Duration":267047,"SoundDuration":267047,"Delta":153725717},{"NoteNumber":69,"Velocity":67,"Duration":268674,"SoundDuration":268674,"Delta":153992765},{"NoteNumber":66,"Velocity":65,"Duration":538994,"SoundDuration":538994,"Delta":153992765},{"NoteNumber":75,"Velocity":64,"Duration":270320,"SoundDuration":270320,"Delta":154261439},{"NoteNumber":74,"Velocity":64,"Duration":1086267,"SoundDuration":1086267,"Delta":154531760},{"NoteNumber":46,"Velocity":58,"Duration":543133,"SoundDuration":543133,"Delta":154531760},{"NoteNumber":64,"Velocity":49,"Duration":543134,"SoundDuration":543134,"Delta":155074894},{"NoteNumber":62,"Velocity":41,"Duration":1086267,"SoundDuration":1086267,"Delta":155074894},{"NoteNumber":58,"Velocity":41,"Duration":1086267,"SoundDuration":1086267,"Delta":155074894},{"NoteNumber":65,"Velocity":46,"Duration":543133,"SoundDuration":543133,"Delta":155618028},{"NoteNumber":48,"Velocity":51,"Duration":528514,"SoundDuration":528514,"Delta":156161162},{"NoteNumber":72,"Velocity":64,"Duration":87290,"SoundDuration":87290,"Delta":156427805},{"NoteNumber":74,"Velocity":54,"Duration":87290,"SoundDuration":87290,"Delta":156515095},{"NoteNumber":72,"Velocity":54,"Duration":87290,"SoundDuration":87290,"Delta":156602386},{"NoteNumber":71,"Velocity":58,"Duration":261871,"SoundDuration":261871,"Delta":156689676},{"NoteNumber":70,"Velocity":38,"Duration":528514,"SoundDuration":528514,"Delta":156689676},{"NoteNumber":67,"Velocity":38,"Duration":1065476,"SoundDuration":1065476,"Delta":156689676},{"NoteNumber":63,"Velocity":38,"Duration":1065476,"SoundDuration":1065476,"Delta":156689676},{"NoteNumber":60,"Velocity":38,"Duration":1065476,"SoundDuration":1065476,"Delta":156689676},{"NoteNumber":72,"Velocity":61,"Duration":266642,"SoundDuration":266642,"Delta":156951548},{"NoteNumber":74,"Velocity":64,"Duration":266643,"SoundDuration":266643,"Delta":157218191},{"NoteNumber":69,"Velocity":45,"Duration":536962,"SoundDuration":536962,"Delta":157218191},{"NoteNumber":75,"Velocity":62,"Duration":270319,"SoundDuration":270319,"Delta":157484834},{"NoteNumber":67,"Velocity":61,"Duration":264317,"SoundDuration":264317,"Delta":157755153},{"NoteNumber":70,"Velocity":61,"Duration":264317,"SoundDuration":264317,"Delta":157755153},{"NoteNumber":38,"Velocity":51,"Duration":1063269,"SoundDuration":1063269,"Delta":157755153},{"NoteNumber":72,"Velocity":63,"Duration":264317,"SoundDuration":264317,"Delta":158019470},{"NoteNumber":73,"Velocity":66,"Duration":264316,"SoundDuration":264316,"Delta":158283787},{"NoteNumber":74,"Velocity":69,"Duration":270319,"SoundDuration":270319,"Delta":158548104},{"NoteNumber":79,"Velocity":70,"Duration":264317,"SoundDuration":264317,"Delta":158818423},{"NoteNumber":62,"Velocity":44,"Duration":264317,"SoundDuration":264317,"Delta":158818423},{"NoteNumber":74,"Velocity":66,"Duration":267856,"SoundDuration":267856,"Delta":159082740},{"NoteNumber":66,"Velocity":59,"Duration":1076397,"SoundDuration":1076397,"Delta":159350597},{"NoteNumber":70,"Velocity":68,"Duration":1076397,"SoundDuration":1076397,"Delta":159350597},{"NoteNumber":60,"Velocity":51,"Duration":267857,"SoundDuration":267857,"Delta":159350597},{"NoteNumber":50,"Velocity":48,"Duration":1349223,"SoundDuration":1349223,"Delta":159350597},{"NoteNumber":61,"Velocity":44,"Duration":267856,"SoundDuration":267856,"Delta":159618454},{"NoteNumber":62,"Velocity":51,"Duration":267856,"SoundDuration":267856,"Delta":159886311},{"NoteNumber":61,"Velocity":51,"Duration":90942,"SoundDuration":90942,"Delta":160154168},{"NoteNumber":62,"Velocity":45,"Duration":90942,"SoundDuration":90942,"Delta":160245110},{"NoteNumber":61,"Velocity":45,"Duration":90942,"SoundDuration":90942,"Delta":160336052},{"NoteNumber":69,"Velocity":65,"Duration":477446,"SoundDuration":477446,"Delta":160426994},{"NoteNumber":60,"Velocity":51,"Duration":272826,"SoundDuration":272826,"Delta":160426994},{"NoteNumber":50,"Velocity":44,"Duration":270380,"SoundDuration":270380,"Delta":160699821},{"NoteNumber":67,"Velocity":55,"Duration":334819,"SoundDuration":334819,"Delta":160904441},{"NoteNumber":74,"Velocity":56,"Duration":301938,"SoundDuration":301938,"Delta":160937321},{"NoteNumber":79,"Velocity":60,"Duration":269058,"SoundDuration":269058,"Delta":160970201},{"NoteNumber":43,"Velocity":44,"Duration":269058,"SoundDuration":269058,"Delta":160970201},{"NoteNumber":50,"Velocity":44,"Duration":269058,"SoundDuration":269058,"Delta":160970201},{"NoteNumber":58,"Velocity":44,"Duration":269058,"SoundDuration":269058,"Delta":160970201},{"NoteNumber":74,"Velocity":57,"Duration":132743,"SoundDuration":132743,"Delta":161239260},{"NoteNumber":71,"Velocity":53,"Duration":132743,"SoundDuration":132743,"Delta":161239260},{"NoteNumber":75,"Velocity":60,"Duration":132743,"SoundDuration":132743,"Delta":161504746},{"NoteNumber":72,"Velocity":57,"Duration":132743,"SoundDuration":132743,"Delta":161504746},{"NoteNumber":79,"Velocity":57,"Duration":132743,"SoundDuration":132743,"Delta":161770233},{"NoteNumber":69,"Velocity":54,"Duration":132743,"SoundDuration":132743,"Delta":161770233},{"NoteNumber":78,"Velocity":64,"Duration":132743,"SoundDuration":132743,"Delta":162035719},{"NoteNumber":74,"Velocity":57,"Duration":132743,"SoundDuration":132743,"Delta":162035719},{"NoteNumber":81,"Velocity":59,"Duration":132743,"SoundDuration":132743,"Delta":162301206},{"NoteNumber":72,"Velocity":53,"Duration":132743,"SoundDuration":132743,"Delta":162301206},{"NoteNumber":79,"Velocity":64,"Duration":86206,"SoundDuration":86206,"Delta":162566692},{"NoteNumber":70,"Velocity":57,"Duration":129310,"SoundDuration":129310,"Delta":162566692},{"NoteNumber":81,"Velocity":54,"Duration":86206,"SoundDuration":86206,"Delta":162652899},{"NoteNumber":79,"Velocity":54,"Duration":86206,"SoundDuration":86206,"Delta":162739106},{"NoteNumber":78,"Velocity":58,"Duration":129870,"SoundDuration":129870,"Delta":162825313},{"NoteNumber":69,"Velocity":54,"Duration":129870,"SoundDuration":129870,"Delta":162825313},{"NoteNumber":79,"Velocity":63,"Duration":131004,"SoundDuration":131004,"Delta":163085053},{"NoteNumber":70,"Velocity":57,"Duration":131004,"SoundDuration":131004,"Delta":163085053},{"NoteNumber":82,"Velocity":60,"Duration":132743,"SoundDuration":132743,"Delta":163347062},{"NoteNumber":67,"Velocity":54,"Duration":132743,"SoundDuration":132743,"Delta":163347062},{"NoteNumber":74,"Velocity":63,"Duration":132743,"SoundDuration":132743,"Delta":163612548},{"NoteNumber":81,"Velocity":63,"Duration":132743,"SoundDuration":132743,"Delta":163612548},{"NoteNumber":66,"Velocity":57,"Duration":132743,"SoundDuration":132743,"Delta":163612548},{"NoteNumber":84,"Velocity":60,"Duration":132743,"SoundDuration":132743,"Delta":163878035},{"NoteNumber":62,"Velocity":55,"Duration":132743,"SoundDuration":132743,"Delta":163878035},{"NoteNumber":82,"Velocity":64,"Duration":129310,"SoundDuration":129310,"Delta":164143521},{"NoteNumber":67,"Velocity":57,"Duration":129310,"SoundDuration":129310,"Delta":164143521},{"NoteNumber":80,"Velocity":63,"Duration":133333,"SoundDuration":133333,"Delta":164402142},{"NoteNumber":89,"Velocity":63,"Duration":133333,"SoundDuration":133333,"Delta":164402142},{"NoteNumber":86,"Velocity":63,"Duration":133333,"SoundDuration":133333,"Delta":164402142},{"NoteNumber":71,"Velocity":52,"Duration":133333,"SoundDuration":133333,"Delta":164402142},{"NoteNumber":88,"Velocity":61,"Duration":132708,"SoundDuration":132708,"Delta":164668808},{"NoteNumber":84,"Velocity":61,"Duration":132708,"SoundDuration":132708,"Delta":164668808},{"NoteNumber":79,"Velocity":61,"Duration":132708,"SoundDuration":132708,"Delta":164668808},{"NoteNumber":72,"Velocity":55,"Duration":132708,"SoundDuration":132708,"Delta":164668808},{"NoteNumber":78,"Velocity":60,"Duration":131521,"SoundDuration":131521,"Delta":164934027},{"NoteNumber":84,"Velocity":60,"Duration":131521,"SoundDuration":131521,"Delta":164934027},{"NoteNumber":87,"Velocity":60,"Duration":131521,"SoundDuration":131521,"Delta":164934027},{"NoteNumber":69,"Velocity":52,"Duration":131521,"SoundDuration":131521,"Delta":164934027},{"NoteNumber":86,"Velocity":58,"Duration":132112,"SoundDuration":132112,"Delta":165197267},{"NoteNumber":79,"Velocity":58,"Duration":132112,"SoundDuration":132112,"Delta":165197267},{"NoteNumber":70,"Velocity":55,"Duration":132112,"SoundDuration":132112,"Delta":165197267},{"NoteNumber":84,"Velocity":57,"Duration":137048,"SoundDuration":137048,"Delta":165461789},{"NoteNumber":81,"Velocity":57,"Duration":137048,"SoundDuration":137048,"Delta":165461789},{"NoteNumber":74,"Velocity":57,"Duration":137048,"SoundDuration":137048,"Delta":165461789},{"NoteNumber":66,"Velocity":53,"Duration":137048,"SoundDuration":137048,"Delta":165461789},{"NoteNumber":74,"Velocity":65,"Duration":267856,"SoundDuration":267856,"Delta":165734326},{"NoteNumber":79,"Velocity":65,"Duration":267856,"SoundDuration":267856,"Delta":165734326},{"NoteNumber":82,"Velocity":65,"Duration":267856,"SoundDuration":267856,"Delta":165734326},{"NoteNumber":67,"Velocity":57,"Duration":267856,"SoundDuration":267856,"Delta":165734326},{"NoteNumber":71,"Velocity":60,"Duration":267856,"SoundDuration":267856,"Delta":166002183},{"NoteNumber":80,"Velocity":60,"Duration":267856,"SoundDuration":267856,"Delta":166002183},{"NoteNumber":65,"Velocity":52,"Duration":267856,"SoundDuration":267856,"Delta":166002183},{"NoteNumber":79,"Velocity":57,"Duration":814865,"SoundDuration":814865,"Delta":166270040},{"NoteNumber":72,"Velocity":57,"Duration":268777,"SoundDuration":268777,"Delta":166270040},{"NoteNumber":64,"Velocity":54,"Duration":268777,"SoundDuration":268777,"Delta":166270040},{"NoteNumber":73,"Velocity":60,"Duration":271989,"SoundDuration":271989,"Delta":166538818},{"NoteNumber":63,"Velocity":57,"Duration":271989,"SoundDuration":271989,"Delta":166538818},{"NoteNumber":74,"Velocity":62,"Duration":274098,"SoundDuration":274098,"Delta":166810808},{"NoteNumber":62,"Velocity":58,"Duration":274098,"SoundDuration":274098,"Delta":166810808},{"NoteNumber":82,"Velocity":67,"Duration":286150,"SoundDuration":286150,"Delta":167084906},{"NoteNumber":79,"Velocity":67,"Duration":286150,"SoundDuration":286150,"Delta":167084906},{"NoteNumber":75,"Velocity":67,"Duration":286150,"SoundDuration":286150,"Delta":167084906},{"NoteNumber":61,"Velocity":61,"Duration":286150,"SoundDuration":286150,"Delta":167084906},{"NoteNumber":70,"Velocity":70,"Duration":1117318,"SoundDuration":1117318,"Delta":167371057},{"NoteNumber":74,"Velocity":70,"Duration":1117318,"SoundDuration":1117318,"Delta":167371057},{"NoteNumber":82,"Velocity":70,"Duration":1117318,"SoundDuration":1117318,"Delta":167371057},{"NoteNumber":79,"Velocity":70,"Duration":1117318,"SoundDuration":1117318,"Delta":167371057},{"NoteNumber":38,"Velocity":59,"Duration":279329,"SoundDuration":279329,"Delta":167371057},{"NoteNumber":62,"Velocity":57,"Duration":558659,"SoundDuration":558659,"Delta":167650386},{"NoteNumber":62,"Velocity":51,"Duration":545972,"SoundDuration":545972,"Delta":168209045},{"NoteNumber":70,"Velocity":67,"Duration":533286,"SoundDuration":533286,"Delta":168488375},{"NoteNumber":74,"Velocity":67,"Duration":533286,"SoundDuration":533286,"Delta":168488375},{"NoteNumber":62,"Velocity":51,"Duration":527354,"SoundDuration":527354,"Delta":168755018},{"NoteNumber":69,"Velocity":61,"Duration":130355,"SoundDuration":130355,"Delta":169021661},{"NoteNumber":72,"Velocity":61,"Duration":130355,"SoundDuration":130355,"Delta":169021661},{"NoteNumber":72,"Velocity":67,"Duration":133321,"SoundDuration":133321,"Delta":169282372},{"NoteNumber":75,"Velocity":67,"Duration":133321,"SoundDuration":133321,"Delta":169282372},{"NoteNumber":62,"Velocity":54,"Duration":533285,"SoundDuration":533285,"Delta":169282372},{"NoteNumber":77,"Velocity":70,"Duration":266642,"SoundDuration":266642,"Delta":169549015},{"NoteNumber":81,"Velocity":70,"Duration":266642,"SoundDuration":266642,"Delta":169549015},{"NoteNumber":62,"Velocity":54,"Duration":527354,"SoundDuration":527354,"Delta":169815658},{"NoteNumber":74,"Velocity":71,"Duration":130355,"SoundDuration":130355,"Delta":170082301},{"NoteNumber":77,"Velocity":71,"Duration":130355,"SoundDuration":130355,"Delta":170082301},{"NoteNumber":70,"Velocity":65,"Duration":133333,"SoundDuration":133333,"Delta":170343012},{"NoteNumber":74,"Velocity":65,"Duration":133333,"SoundDuration":133333,"Delta":170343012},{"NoteNumber":62,"Velocity":52,"Duration":528675,"SoundDuration":528675,"Delta":170343012},{"NoteNumber":67,"Velocity":68,"Duration":131004,"SoundDuration":131004,"Delta":170609678},{"NoteNumber":70,"Velocity":68,"Duration":131004,"SoundDuration":131004,"Delta":170609678},{"NoteNumber":75,"Velocity":63,"Duration":132743,"SoundDuration":132743,"Delta":170871687},{"NoteNumber":79,"Velocity":63,"Duration":132743,"SoundDuration":132743,"Delta":170871687},{"NoteNumber":62,"Velocity":58,"Duration":529710,"SoundDuration":529710,"Delta":170871687},{"NoteNumber":72,"Velocity":67,"Duration":132112,"SoundDuration":132112,"Delta":171137173},{"NoteNumber":75,"Velocity":67,"Duration":132112,"SoundDuration":132112,"Delta":171137173},{"NoteNumber":69,"Velocity":63,"Duration":132111,"SoundDuration":132111,"Delta":171401397},{"NoteNumber":72,"Velocity":63,"Duration":132111,"SoundDuration":132111,"Delta":171401397},{"NoteNumber":62,"Velocity":51,"Duration":526095,"SoundDuration":526095,"Delta":171401397},{"NoteNumber":66,"Velocity":67,"Duration":130935,"SoundDuration":130935,"Delta":171665621},{"NoteNumber":69,"Velocity":67,"Duration":130935,"SoundDuration":130935,"Delta":171665621},{"NoteNumber":74,"Velocity":64,"Duration":133321,"SoundDuration":133321,"Delta":171927493},{"NoteNumber":77,"Velocity":64,"Duration":133321,"SoundDuration":133321,"Delta":171927493},{"NoteNumber":62,"Velocity":51,"Duration":533286,"SoundDuration":533286,"Delta":171927493},{"NoteNumber":70,"Velocity":70,"Duration":266643,"SoundDuration":266643,"Delta":172194136},{"NoteNumber":74,"Velocity":70,"Duration":266643,"SoundDuration":266643,"Delta":172194136},{"NoteNumber":67,"Velocity":65,"Duration":270319,"SoundDuration":270319,"Delta":172460779},{"NoteNumber":70,"Velocity":65,"Duration":270319,"SoundDuration":270319,"Delta":172460779},{"NoteNumber":62,"Velocity":51,"Duration":270319,"SoundDuration":270319,"Delta":172460779},{"NoteNumber":63,"Velocity":62,"Duration":547944,"SoundDuration":547944,"Delta":172731098},{"NoteNumber":67,"Velocity":69,"Duration":273972,"SoundDuration":273972,"Delta":172731098},{"NoteNumber":62,"Velocity":46,"Duration":547944,"SoundDuration":547944,"Delta":172731098},{"NoteNumber":70,"Velocity":63,"Duration":273972,"SoundDuration":273972,"Delta":173005070},{"NoteNumber":60,"Velocity":55,"Duration":560944,"SoundDuration":560944,"Delta":173279043},{"NoteNumber":66,"Velocity":55,"Duration":560944,"SoundDuration":560944,"Delta":173279043},{"NoteNumber":69,"Velocity":65,"Duration":275229,"SoundDuration":275229,"Delta":173279043},{"NoteNumber":50,"Velocity":43,"Duration":560944,"SoundDuration":560944,"Delta":173279043},{"NoteNumber":70,"Velocity":59,"Duration":285714,"SoundDuration":285714,"Delta":173554272},{"NoteNumber":59,"Velocity":45,"Duration":1686569,"SoundDuration":1686569,"Delta":173839987},{"NoteNumber":62,"Velocity":45,"Duration":1686569,"SoundDuration":1686569,"Delta":173839987},{"NoteNumber":67,"Velocity":45,"Duration":1686569,"SoundDuration":1686569,"Delta":173839987},{"NoteNumber":71,"Velocity":53,"Duration":1686569,"SoundDuration":1686569,"Delta":173839987},{"NoteNumber":43,"Velocity":46,"Duration":277778,"SoundDuration":277778,"Delta":173839987},{"NoteNumber":49,"Velocity":43,"Duration":277777,"SoundDuration":277777,"Delta":174117765},{"NoteNumber":50,"Velocity":46,"Duration":289854,"SoundDuration":289854,"Delta":174395543},{"NoteNumber":53,"Velocity":43,"Duration":165094,"SoundDuration":165094,"Delta":174685398},{"NoteNumber":51,"Velocity":47,"Duration":94339,"SoundDuration":94339,"Delta":174826907},{"NoteNumber":53,"Velocity":42,"Duration":94010,"SoundDuration":94010,"Delta":174897662},{"NoteNumber":51,"Velocity":51,"Duration":279069,"SoundDuration":279069,"Delta":174968417},{"NoteNumber":50,"Velocity":51,"Duration":279070,"SoundDuration":279070,"Delta":175247487},{"NoteNumber":56,"Velocity":50,"Duration":276497,"SoundDuration":276497,"Delta":175526557},{"NoteNumber":43,"Velocity":39,"Duration":1690967,"SoundDuration":1690967,"Delta":175526557},{"NoteNumber":51,"Velocity":47,"Duration":1690967,"SoundDuration":1690967,"Delta":175526557},{"NoteNumber":60,"Velocity":51,"Duration":276497,"SoundDuration":276497,"Delta":175803054},{"NoteNumber":63,"Velocity":53,"Duration":279069,"SoundDuration":279069,"Delta":176079552},{"NoteNumber":68,"Velocity":54,"Duration":279070,"SoundDuration":279070,"Delta":176358622},{"NoteNumber":70,"Velocity":56,"Duration":285714,"SoundDuration":285714,"Delta":176637692},{"NoteNumber":72,"Velocity":58,"Duration":294117,"SoundDuration":294117,"Delta":176923406},{"NoteNumber":62,"Velocity":45,"Duration":1710861,"SoundDuration":1710861,"Delta":177217524},{"NoteNumber":67,"Velocity":45,"Duration":1710861,"SoundDuration":1710861,"Delta":177217524},{"NoteNumber":71,"Velocity":45,"Duration":1710861,"SoundDuration":1710861,"Delta":177217524},{"NoteNumber":74,"Velocity":53,"Duration":1710861,"SoundDuration":1710861,"Delta":177217524},{"NoteNumber":43,"Velocity":46,"Duration":280373,"SoundDuration":280373,"Delta":177217524},{"NoteNumber":49,"Velocity":43,"Duration":280373,"SoundDuration":280373,"Delta":177497898},{"NoteNumber":50,"Velocity":46,"Duration":291261,"SoundDuration":291261,"Delta":177778272},{"NoteNumber":53,"Velocity":43,"Duration":165876,"SoundDuration":165876,"Delta":178069534},{"NoteNumber":51,"Velocity":47,"Duration":94786,"SoundDuration":94786,"Delta":178211714},{"NoteNumber":53,"Velocity":42,"Duration":94454,"SoundDuration":94454,"Delta":178282804},{"NoteNumber":51,"Velocity":51,"Duration":280373,"SoundDuration":280373,"Delta":178353894},{"NoteNumber":50,"Velocity":51,"Duration":294117,"SoundDuration":294117,"Delta":178634268},{"NoteNumber":56,"Velocity":50,"Duration":285714,"SoundDuration":285714,"Delta":178928385},{"NoteNumber":43,"Velocity":39,"Duration":1747504,"SoundDuration":1747504,"Delta":178928385},{"NoteNumber":51,"Velocity":47,"Duration":1747504,"SoundDuration":1747504,"Delta":178928385},{"NoteNumber":58,"Velocity":51,"Duration":285714,"SoundDuration":285714,"Delta":179214100},{"NoteNumber":60,"Velocity":56,"Duration":187793,"SoundDuration":187793,"Delta":179499814},{"NoteNumber":63,"Velocity":53,"Duration":189126,"SoundDuration":189126,"Delta":179687607},{"NoteNumber":68,"Velocity":53,"Duration":190931,"SoundDuration":190931,"Delta":179876734},{"NoteNumber":72,"Velocity":57,"Duration":194652,"SoundDuration":194652,"Delta":180067666},{"NoteNumber":75,"Velocity":53,"Duration":198517,"SoundDuration":198517,"Delta":180262319},{"NoteNumber":84,"Velocity":53,"Duration":215053,"SoundDuration":215053,"Delta":180460836},{"NoteNumber":74,"Velocity":55,"Duration":4660109,"SoundDuration":4660109,"Delta":180675890},{"NoteNumber":79,"Velocity":55,"Duration":5408897,"SoundDuration":5408897,"Delta":180675890},{"NoteNumber":83,"Velocity":55,"Duration":5408897,"SoundDuration":5408897,"Delta":180675890},{"NoteNumber":43,"Velocity":46,"Duration":285714,"SoundDuration":285714,"Delta":180675890},{"NoteNumber":49,"Velocity":43,"Duration":285714,"SoundDuration":285714,"Delta":180961604},{"NoteNumber":50,"Velocity":46,"Duration":298507,"SoundDuration":298507,"Delta":181247319},{"NoteNumber":53,"Velocity":43,"Duration":168269,"SoundDuration":168269,"Delta":181545826},{"NoteNumber":51,"Velocity":47,"Duration":96153,"SoundDuration":96153,"Delta":181690057},{"NoteNumber":53,"Velocity":42,"Duration":95924,"SoundDuration":95924,"Delta":181762172},{"NoteNumber":51,"Velocity":51,"Duration":285714,"SoundDuration":285714,"Delta":181834288},{"NoteNumber":50,"Velocity":51,"Duration":294117,"SoundDuration":294117,"Delta":182120002},{"NoteNumber":55,"Velocity":46,"Duration":288461,"SoundDuration":288461,"Delta":182414120},{"NoteNumber":59,"Velocity":43,"Duration":288461,"SoundDuration":288461,"Delta":182702581},{"NoteNumber":61,"Velocity":46,"Duration":295566,"SoundDuration":295566,"Delta":182991043},{"NoteNumber":62,"Velocity":43,"Duration":241545,"SoundDuration":241545,"Delta":183286609},{"NoteNumber":65,"Velocity":42,"Duration":96502,"SoundDuration":96502,"Delta":183504000},{"NoteNumber":63,"Velocity":51,"Duration":288461,"SoundDuration":288461,"Delta":183576464},{"NoteNumber":62,"Velocity":51,"Duration":306122,"SoundDuration":306122,"Delta":183864926},{"NoteNumber":67,"Velocity":46,"Duration":297029,"SoundDuration":297029,"Delta":184171048},{"NoteNumber":71,"Velocity":43,"Duration":297029,"SoundDuration":297029,"Delta":184468078},{"NoteNumber":73,"Velocity":46,"Duration":315789,"SoundDuration":315789,"Delta":184765107},{"NoteNumber":74,"Velocity":43,"Duration":1003890,"SoundDuration":1003890,"Delta":185080897},{"NoteNumber":77,"Velocity":42,"Duration":104003,"SoundDuration":104003,"Delta":185310488},{"NoteNumber":75,"Velocity":51,"Duration":329670,"SoundDuration":329670,"Delta":185387019},{"NoteNumber":74,"Velocity":51,"Duration":368098,"SoundDuration":368098,"Delta":185716690},{"NoteNumber":91,"Velocity":51,"Duration":2208587,"SoundDuration":2208587,"Delta":186084788},{"NoteNumber":83,"Velocity":43,"Duration":2208587,"SoundDuration":2208587,"Delta":186084788},{"NoteNumber":86,"Velocity":43,"Duration":2208587,"SoundDuration":2208587,"Delta":186084788},{"NoteNumber":95,"Velocity":51,"Duration":2208587,"SoundDuration":2208587,"Delta":186084788},{"NoteNumber":67,"Velocity":32,"Duration":2208587,"SoundDuration":2208587,"Delta":186084788},{"NoteNumber":74,"Velocity":32,"Duration":2208587,"SoundDuration":2208587,"Delta":186084788},{"NoteNumber":79,"Velocity":32,"Duration":2208587,"SoundDuration":2208587,"Delta":186084788},{"NoteNumber":59,"Velocity":35,"Duration":2571428,"SoundDuration":2571428,"Delta":188293376},{"NoteNumber":62,"Velocity":35,"Duration":2571428,"SoundDuration":2571428,"Delta":188293376},{"NoteNumber":67,"Velocity":42,"Duration":2571428,"SoundDuration":2571428,"Delta":188293376},{"NoteNumber":71,"Velocity":42,"Duration":2571428,"SoundDuration":2571428,"Delta":188293376},{"NoteNumber":43,"Velocity":23,"Duration":2571428,"SoundDuration":2571428,"Delta":188293376},{"NoteNumber":50,"Velocity":23,"Duration":2571428,"SoundDuration":2571428,"Delta":188293376},{"NoteNumber":55,"Velocity":27,"Duration":2571428,"SoundDuration":2571428,"Delta":188293376}],"license":{"name":"Creative Commons Attribution-ShareAlike 3.0 Germany","url":"http://creativecommons.org/licenses/by-sa/3.0/de/deed.en","text":"The MIDI, audio (MP3, OGG) and video files of Bernd Krueger are licensed under the cc-by-sa Germany License. This means that you can use and adapt the files, as long as you attribute the copyright holder.\n\nName: Bernd Krueger\nSource: http://www.piano-midi.de\n\nThe distribution or public playback of the files is only allowed under identical license conditions.\n\nThe scores are open source.","attribution":"MIDI files by Bernd Krueger (piano-midi.de)"}}