{"title":"Sonata D850, 2. movement","artist":"Piano","durationMs":603976,"midiSha256":"8eea31c5e871fa7cf8c600eccbf66b59d578a11973aac27365c151396df219c4","midiObject":[{"NoteNumber":61,"Velocity":39,"Duration":428571,"SoundDuration":428571,"Delta":0},{"NoteNumber":64,"Velocity":46,"Duration":428571,"SoundDuration":428571,"Delta":0},{"NoteNumber":45,"Velocity":28,"Duration":428571,"SoundDuration":428571,"Delta":0},{"NoteNumber":52,"Velocity":34,"Duration":428571,"SoundDuration":428571,"Delta":0},{"NoteNumber":62,"Velocity":42,"Duration":385714,"SoundDuration":385714,"Delta":428572},{"NoteNumber":66,"Velocity":50,"Duration":385714,"SoundDuration":385714,"Delta":428572},{"NoteNumber":45,"Velocity":34,"Duration":385714,"SoundDuration":385714,"Delta":428572},{"NoteNumber":54,"Velocity":40,"Duration":385714,"SoundDuration":385714,"Delta":428572},{"NoteNumber":60,"Velocity":34,"Duration":465517,"SoundDuration":465517,"Delta":857143},{"NoteNumber":63,"Velocity":40,"Duration":465517,"SoundDuration":465517,"Delta":857143},{"NoteNumber":45,"Velocity":24,"Duration":465517,"SoundDuration":465517,"Delta":857143},{"NoteNumber":51,"Velocity":29,"Duration":465517,"SoundDuration":465517,"Delta":857143},{"NoteNumber":61,"Velocity":39,"Duration":1276977,"SoundDuration":1276977,"Delta":1374385},{"NoteNumber":64,"Velocity":47,"Duration":1276977,"SoundDuration":1276977,"Delta":1374385},{"NoteNumber":45,"Velocity":31,"Duration":1276977,"SoundDuration":1276977,"Delta":1374385},{"NoteNumber":52,"Velocity":37,"Duration":1276977,"SoundDuration":1276977,"Delta":1374385},{"NoteNumber":61,"Velocity":42,"Duration":848320,"SoundDuration":848320,"Delta":2669348},{"NoteNumber":64,"Velocity":42,"Duration":848320,"SoundDuration":848320,"Delta":2669348},{"NoteNumber":69,"Velocity":55,"Duration":431654,"SoundDuration":431654,"Delta":2669348},{"NoteNumber":45,"Velocity":34,"Duration":848320,"SoundDuration":848320,"Delta":2669348},{"NoteNumber":52,"Velocity":34,"Duration":848320,"SoundDuration":848320,"Delta":2669348},{"NoteNumber":57,"Velocity":41,"Duration":431654,"SoundDuration":431654,"Delta":2669348},{"NoteNumber":71,"Velocity":57,"Duration":416666,"SoundDuration":416666,"Delta":3101002},{"NoteNumber":59,"Velocity":43,"Duration":416666,"SoundDuration":416666,"Delta":3101002},{"NoteNumber":61,"Velocity":47,"Duration":495412,"SoundDuration":495412,"Delta":3517669},{"NoteNumber":65,"Velocity":47,"Duration":495412,"SoundDuration":495412,"Delta":3517669},{"NoteNumber":73,"Velocity":61,"Duration":495412,"SoundDuration":495412,"Delta":3517669},{"NoteNumber":45,"Velocity":38,"Duration":495412,"SoundDuration":495412,"Delta":3517669},{"NoteNumber":53,"Velocity":38,"Duration":495412,"SoundDuration":495412,"Delta":3517669},{"NoteNumber":57,"Velocity":45,"Duration":495412,"SoundDuration":495412,"Delta":3517669},{"NoteNumber":62,"Velocity":38,"Duration":1407834,"SoundDuration":1407834,"Delta":4068127},{"NoteNumber":66,"Velocity":45,"Duration":1407834,"SoundDuration":1407834,"Delta":4068127},{"NoteNumber":73,"Velocity":58,"Duration":916031,"SoundDuration":916031,"Delta":4068127},{"NoteNumber":50,"Velocity":29,"Duration":1407834,"SoundDuration":1407834,"Delta":4068127},{"NoteNumber":54,"Velocity":35,"Duration":1407834,"SoundDuration":1407834,"Delta":4068127},{"NoteNumber":58,"Velocity":42,"Duration":916031,"SoundDuration":916031,"Delta":4068127},{"NoteNumber":71,"Velocity":44,"Duration":491803,"SoundDuration":491803,"Delta":4984158},{"NoteNumber":59,"Velocity":37,"Duration":491803,"SoundDuration":491803,"Delta":4984158},{"NoteNumber":62,"Velocity":40,"Duration":882782,"SoundDuration":882782,"Delta":5475962},{"NoteNumber":69,"Velocity":56,"Duration":431654,"SoundDuration":431654,"Delta":5475962},{"NoteNumber":50,"Velocity":32,"Duration":431654,"SoundDuration":431654,"Delta":5475962},{"NoteNumber":54,"Velocity":38,"Duration":431654,"SoundDuration":431654,"Delta":5475962},{"NoteNumber":68,"Velocity":53,"Duration":451127,"SoundDuration":451127,"Delta":5907616},{"NoteNumber":52,"Velocity":29,"Duration":451127,"SoundDuration":451127,"Delta":5907616},{"NoteNumber":56,"Velocity":35,"Duration":451127,"SoundDuration":451127,"Delta":5907616},{"NoteNumber":62,"Velocity":37,"Duration":432000,"SoundDuration":432000,"Delta":6358744},{"NoteNumber":66,"Velocity":48,"Duration":432000,"SoundDuration":432000,"Delta":6358744},{"NoteNumber":54,"Velocity":28,"Duration":432000,"SoundDuration":432000,"Delta":6358744},{"NoteNumber":57,"Velocity":34,"Duration":432000,"SoundDuration":432000,"Delta":6358744},{"NoteNumber":62,"Velocity":42,"Duration":1258865,"SoundDuration":1258865,"Delta":6838744},{"NoteNumber":64,"Velocity":50,"Duration":1258865,"SoundDuration":1258865,"Delta":6838744},{"NoteNumber":44,"Velocity":31,"Duration":1258865,"SoundDuration":1258865,"Delta":6838744},{"NoteNumber":52,"Velocity":37,"Duration":1258865,"SoundDuration":1258865,"Delta":6838744},{"NoteNumber":62,"Velocity":42,"Duration":236220,"SoundDuration":236220,"Delta":8115340},{"NoteNumber":64,"Velocity":50,"Duration":216535,"SoundDuration":216535,"Delta":8115340},{"NoteNumber":44,"Velocity":34,"Duration":421405,"SoundDuration":421405,"Delta":8115340},{"NoteNumber":52,"Velocity":40,"Duration":421405,"SoundDuration":421405,"Delta":8115340},{"NoteNumber":64,"Velocity":40,"Duration":61728,"SoundDuration":61728,"Delta":8351561},{"NoteNumber":66,"Velocity":40,"Duration":61728,"SoundDuration":61728,"Delta":8413289},{"NoteNumber":68,"Velocity":40,"Duration":61728,"SoundDuration":61728,"Delta":8475018},{"NoteNumber":62,"Velocity":42,"Duration":385714,"SoundDuration":385714,"Delta":8536746},{"NoteNumber":66,"Velocity":50,"Duration":385714,"SoundDuration":385714,"Delta":8536746},{"NoteNumber":44,"Velocity":31,"Duration":385714,"SoundDuration":385714,"Delta":8536746},{"NoteNumber":54,"Velocity":37,"Duration":385714,"SoundDuration":385714,"Delta":8536746},{"NoteNumber":62,"Velocity":35,"Duration":453781,"SoundDuration":453781,"Delta":8965318},{"NoteNumber":64,"Velocity":42,"Duration":453781,"SoundDuration":453781,"Delta":8965318},{"NoteNumber":44,"Velocity":29,"Duration":453781,"SoundDuration":453781,"Delta":8965318},{"NoteNumber":52,"Velocity":35,"Duration":453781,"SoundDuration":453781,"Delta":8965318},{"NoteNumber":62,"Velocity":42,"Duration":902255,"SoundDuration":902255,"Delta":9469519},{"NoteNumber":66,"Velocity":50,"Duration":902255,"SoundDuration":902255,"Delta":9469519},{"NoteNumber":45,"Velocity":34,"Duration":1439890,"SoundDuration":1439890,"Delta":9469519},{"NoteNumber":54,"Velocity":40,"Duration":902255,"SoundDuration":902255,"Delta":9469519},{"NoteNumber":61,"Velocity":37,"Duration":515233,"SoundDuration":515233,"Delta":10371775},{"NoteNumber":64,"Velocity":44,"Duration":515233,"SoundDuration":515233,"Delta":10371775},{"NoteNumber":52,"Velocity":36,"Duration":515233,"SoundDuration":515233,"Delta":10371775},{"NoteNumber":57,"Velocity":48,"Duration":428571,"SoundDuration":428571,"Delta":10909410},{"NoteNumber":61,"Velocity":57,"Duration":428571,"SoundDuration":428571,"Delta":10909410},{"NoteNumber":45,"Velocity":35,"Duration":428571,"SoundDuration":428571,"Delta":10909410},{"NoteNumber":49,"Velocity":42,"Duration":428571,"SoundDuration":428571,"Delta":10909410},{"NoteNumber":62,"Velocity":52,"Duration":385714,"SoundDuration":385714,"Delta":11337981},{"NoteNumber":66,"Velocity":62,"Duration":385714,"SoundDuration":385714,"Delta":11337981},{"NoteNumber":45,"Velocity":42,"Duration":385714,"SoundDuration":385714,"Delta":11337981},{"NoteNumber":54,"Velocity":50,"Duration":385714,"SoundDuration":385714,"Delta":11337981},{"NoteNumber":60,"Velocity":42,"Duration":465517,"SoundDuration":465517,"Delta":11766553},{"NoteNumber":63,"Velocity":50,"Duration":465517,"SoundDuration":465517,"Delta":11766553},{"NoteNumber":45,"Velocity":29,"Duration":465517,"SoundDuration":465517,"Delta":11766553},{"NoteNumber":51,"Velocity":36,"Duration":465517,"SoundDuration":465517,"Delta":11766553},{"NoteNumber":61,"Velocity":48,"Duration":1276977,"SoundDuration":1276977,"Delta":12283794},{"NoteNumber":64,"Velocity":59,"Duration":1276977,"SoundDuration":1276977,"Delta":12283794},{"NoteNumber":45,"Velocity":38,"Duration":1276977,"SoundDuration":1276977,"Delta":12283794},{"NoteNumber":52,"Velocity":46,"Duration":1276977,"SoundDuration":1276977,"Delta":12283794},{"NoteNumber":64,"Velocity":59,"Duration":830959,"SoundDuration":830959,"Delta":13578758},{"NoteNumber":69,"Velocity":69,"Duration":830959,"SoundDuration":830959,"Delta":13578758},{"NoteNumber":61,"Velocity":57,"Duration":431654,"SoundDuration":431654,"Delta":13578758},{"NoteNumber":73,"Velocity":78,"Duration":416666,"SoundDuration":416666,"Delta":14010412},{"NoteNumber":57,"Velocity":61,"Duration":416666,"SoundDuration":416666,"Delta":14010412},{"NoteNumber":69,"Velocity":63,"Duration":495412,"SoundDuration":495412,"Delta":14427079},{"NoteNumber":64,"Velocity":63,"Duration":495412,"SoundDuration":495412,"Delta":14427079},{"NoteNumber":73,"Velocity":63,"Duration":495412,"SoundDuration":495412,"Delta":14427079},{"NoteNumber":76,"Velocity":75,"Duration":495412,"SoundDuration":495412,"Delta":14427079},{"NoteNumber":45,"Velocity":54,"Duration":495412,"SoundDuration":495412,"Delta":14427079},{"NoteNumber":52,"Velocity":64,"Duration":495412,"SoundDuration":495412,"Delta":14427079},{"NoteNumber":73,"Velocity":67,"Duration":1387342,"SoundDuration":1387342,"Delta":14977537},{"NoteNumber":64,"Velocity":67,"Duration":1407834,"SoundDuration":1407834,"Delta":14977537},{"NoteNumber":68,"Velocity":67,"Duration":1387342,"SoundDuration":1387342,"Delta":14977537},{"NoteNumber":76,"Velocity":79,"Duration":1387342,"SoundDuration":1387342,"Delta":14977537},{"NoteNumber":44,"Velocity":59,"Duration":1407834,"SoundDuration":1407834,"Delta":14977537},{"NoteNumber":52,"Velocity":59,"Duration":1407834,"SoundDuration":1407834,"Delta":14977537},{"NoteNumber":56,"Velocity":70,"Duration":1407834,"SoundDuration":1407834,"Delta":14977537},{"NoteNumber":64,"Velocity":40,"Duration":431654,"SoundDuration":431654,"Delta":16385372},{"NoteNumber":68,"Velocity":40,"Duration":413668,"SoundDuration":413668,"Delta":16385372},{"NoteNumber":76,"Velocity":56,"Duration":431654,"SoundDuration":431654,"Delta":16385372},{"NoteNumber":56,"Velocity":32,"Duration":413668,"SoundDuration":413668,"Delta":16385372},{"NoteNumber":61,"Velocity":38,"Duration":431654,"SoundDuration":431654,"Delta":16385372},{"NoteNumber":66,"Velocity":42,"Duration":432331,"SoundDuration":432331,"Delta":16817026},{"NoteNumber":68,"Velocity":42,"Duration":432331,"SoundDuration":432331,"Delta":16817026},{"NoteNumber":75,"Velocity":53,"Duration":451128,"SoundDuration":451128,"Delta":16817026},{"NoteNumber":56,"Velocity":29,"Duration":432331,"SoundDuration":432331,"Delta":16817026},{"NoteNumber":60,"Velocity":35,"Duration":451128,"SoundDuration":451128,"Delta":16817026},{"NoteNumber":66,"Velocity":37,"Duration":431999,"SoundDuration":431999,"Delta":17268154},{"NoteNumber":68,"Velocity":48,"Duration":431999,"SoundDuration":431999,"Delta":17268154},{"NoteNumber":56,"Velocity":28,"Duration":431999,"SoundDuration":431999,"Delta":17268154},{"NoteNumber":63,"Velocity":34,"Duration":431999,"SoundDuration":431999,"Delta":17268154},{"NoteNumber":68,"Velocity":42,"Duration":1276596,"SoundDuration":1276596,"Delta":17748154},{"NoteNumber":64,"Velocity":42,"Duration":1258865,"SoundDuration":1258865,"Delta":17748154},{"NoteNumber":73,"Velocity":55,"Duration":1258865,"SoundDuration":1258865,"Delta":17748154},{"NoteNumber":56,"Velocity":31,"Duration":1276596,"SoundDuration":1276596,"Delta":17748154},{"NoteNumber":49,"Velocity":31,"Duration":1258865,"SoundDuration":1258865,"Delta":17748154},{"NoteNumber":61,"Velocity":37,"Duration":1258865,"SoundDuration":1258865,"Delta":17748154},{"NoteNumber":61,"Velocity":42,"Duration":447760,"SoundDuration":447760,"Delta":19024750},{"NoteNumber":64,"Velocity":42,"Duration":429104,"SoundDuration":429104,"Delta":19024750},{"NoteNumber":73,"Velocity":50,"Duration":447760,"SoundDuration":447760,"Delta":19024750},{"NoteNumber":52,"Velocity":34,"Duration":429104,"SoundDuration":429104,"Delta":19024750},{"NoteNumber":57,"Velocity":40,"Duration":447760,"SoundDuration":447760,"Delta":19024750},{"NoteNumber":62,"Velocity":42,"Duration":472440,"SoundDuration":472440,"Delta":19472511},{"NoteNumber":64,"Velocity":42,"Duration":425196,"SoundDuration":425196,"Delta":19472511},{"NoteNumber":71,"Velocity":50,"Duration":425196,"SoundDuration":425196,"Delta":19472511},{"NoteNumber":52,"Velocity":31,"Duration":425196,"SoundDuration":425196,"Delta":19472511},{"NoteNumber":56,"Velocity":37,"Duration":425196,"SoundDuration":425196,"Delta":19472511},{"NoteNumber":62,"Velocity":35,"Duration":536779,"SoundDuration":536779,"Delta":19944952},{"NoteNumber":64,"Velocity":42,"Duration":536779,"SoundDuration":536779,"Delta":19944952},{"NoteNumber":52,"Velocity":29,"Duration":536779,"SoundDuration":536779,"Delta":19944952},{"NoteNumber":59,"Velocity":35,"Duration":536779,"SoundDuration":536779,"Delta":19944952},{"NoteNumber":61,"Velocity":42,"Duration":952380,"SoundDuration":952380,"Delta":20541374},{"NoteNumber":69,"Velocity":50,"Duration":952380,"SoundDuration":952380,"Delta":20541374},{"NoteNumber":52,"Velocity":34,"Duration":952380,"SoundDuration":952380,"Delta":20541374},{"NoteNumber":45,"Velocity":34,"Duration":952380,"SoundDuration":952380,"Delta":20541374},{"NoteNumber":57,"Velocity":40,"Duration":952380,"SoundDuration":952380,"Delta":20541374},{"NoteNumber":61,"Velocity":39,"Duration":428571,"SoundDuration":428571,"Delta":21962505},{"NoteNumber":64,"Velocity":46,"Duration":428571,"SoundDuration":428571,"Delta":21962505},{"NoteNumber":45,"Velocity":28,"Duration":428571,"SoundDuration":428571,"Delta":21962505},{"NoteNumber":52,"Velocity":34,"Duration":428571,"SoundDuration":428571,"Delta":21962505},{"NoteNumber":62,"Velocity":42,"Duration":385714,"SoundDuration":385714,"Delta":22391076},{"NoteNumber":66,"Velocity":50,"Duration":385714,"SoundDuration":385714,"Delta":22391076},{"NoteNumber":45,"Velocity":34,"Duration":385714,"SoundDuration":385714,"Delta":22391076},{"NoteNumber":54,"Velocity":40,"Duration":385714,"SoundDuration":385714,"Delta":22391076},{"NoteNumber":60,"Velocity":34,"Duration":465517,"SoundDuration":465517,"Delta":22819648},{"NoteNumber":63,"Velocity":40,"Duration":465517,"SoundDuration":465517,"Delta":22819648},{"NoteNumber":45,"Velocity":24,"Duration":465517,"SoundDuration":465517,"Delta":22819648},{"NoteNumber":51,"Velocity":29,"Duration":465517,"SoundDuration":465517,"Delta":22819648},{"NoteNumber":61,"Velocity":39,"Duration":1276977,"SoundDuration":1276977,"Delta":23336889},{"NoteNumber":64,"Velocity":47,"Duration":1276977,"SoundDuration":1276977,"Delta":23336889},{"NoteNumber":45,"Velocity":31,"Duration":1276977,"SoundDuration":1276977,"Delta":23336889},{"NoteNumber":52,"Velocity":37,"Duration":1276977,"SoundDuration":1276977,"Delta":23336889},{"NoteNumber":61,"Velocity":42,"Duration":848320,"SoundDuration":848320,"Delta":24631853},{"NoteNumber":64,"Velocity":42,"Duration":848320,"SoundDuration":848320,"Delta":24631853},{"NoteNumber":69,"Velocity":55,"Duration":431654,"SoundDuration":431654,"Delta":24631853},{"NoteNumber":45,"Velocity":34,"Duration":848320,"SoundDuration":848320,"Delta":24631853},{"NoteNumber":52,"Velocity":34,"Duration":848320,"SoundDuration":848320,"Delta":24631853},{"NoteNumber":57,"Velocity":41,"Duration":431654,"SoundDuration":431654,"Delta":24631853},{"NoteNumber":71,"Velocity":57,"Duration":416666,"SoundDuration":416666,"Delta":25063507},{"NoteNumber":59,"Velocity":43,"Duration":416666,"SoundDuration":416666,"Delta":25063507},{"NoteNumber":61,"Velocity":47,"Duration":477876,"SoundDuration":477876,"Delta":25480174},{"NoteNumber":65,"Velocity":47,"Duration":477876,"SoundDuration":477876,"Delta":25480174},{"NoteNumber":73,"Velocity":61,"Duration":477876,"SoundDuration":477876,"Delta":25480174},{"NoteNumber":45,"Velocity":38,"Duration":477876,"SoundDuration":477876,"Delta":25480174},{"NoteNumber":53,"Velocity":38,"Duration":477876,"SoundDuration":477876,"Delta":25480174},{"NoteNumber":57,"Velocity":45,"Duration":477876,"SoundDuration":477876,"Delta":25480174},{"NoteNumber":62,"Velocity":38,"Duration":1399902,"SoundDuration":1399902,"Delta":26011147},{"NoteNumber":66,"Velocity":45,"Duration":1399902,"SoundDuration":1399902,"Delta":26011147},{"NoteNumber":73,"Velocity":58,"Duration":916031,"SoundDuration":916031,"Delta":26011147},{"NoteNumber":50,"Velocity":29,"Duration":1399902,"SoundDuration":1399902,"Delta":26011147},{"NoteNumber":54,"Velocity":35,"Duration":1399902,"SoundDuration":1399902,"Delta":26011147},{"NoteNumber":58,"Velocity":42,"Duration":916031,"SoundDuration":916031,"Delta":26011147},{"NoteNumber":71,"Velocity":44,"Duration":483871,"SoundDuration":483871,"Delta":26927178},{"NoteNumber":59,"Velocity":37,"Duration":483871,"SoundDuration":483871,"Delta":26927178},{"NoteNumber":62,"Velocity":40,"Duration":882782,"SoundDuration":882782,"Delta":27411049},{"NoteNumber":69,"Velocity":56,"Duration":431654,"SoundDuration":431654,"Delta":27411049},{"NoteNumber":50,"Velocity":32,"Duration":431654,"SoundDuration":431654,"Delta":27411049},{"NoteNumber":54,"Velocity":38,"Duration":431654,"SoundDuration":431654,"Delta":27411049},{"NoteNumber":68,"Velocity":53,"Duration":451128,"SoundDuration":451128,"Delta":27842704},{"NoteNumber":52,"Velocity":29,"Duration":451128,"SoundDuration":451128,"Delta":27842704},{"NoteNumber":56,"Velocity":35,"Duration":451128,"SoundDuration":451128,"Delta":27842704},{"NoteNumber":62,"Velocity":37,"Duration":431999,"SoundDuration":431999,"Delta":28293832},{"NoteNumber":66,"Velocity":48,"Duration":431999,"SoundDuration":431999,"Delta":28293832},{"NoteNumber":54,"Velocity":28,"Duration":431999,"SoundDuration":431999,"Delta":28293832},{"NoteNumber":57,"Velocity":34,"Duration":431999,"SoundDuration":431999,"Delta":28293832},{"NoteNumber":62,"Velocity":42,"Duration":1258865,"SoundDuration":1258865,"Delta":28773832},{"NoteNumber":64,"Velocity":50,"Duration":1258865,"SoundDuration":1258865,"Delta":28773832},{"NoteNumber":44,"Velocity":31,"Duration":1258865,"SoundDuration":1258865,"Delta":28773832},{"NoteNumber":52,"Velocity":37,"Duration":1258865,"SoundDuration":1258865,"Delta":28773832},{"NoteNumber":62,"Velocity":42,"Duration":236220,"SoundDuration":236220,"Delta":30050428},{"NoteNumber":64,"Velocity":50,"Duration":216535,"SoundDuration":216535,"Delta":30050428},{"NoteNumber":44,"Velocity":34,"Duration":421405,"SoundDuration":421405,"Delta":30050428},{"NoteNumber":52,"Velocity":40,"Duration":421405,"SoundDuration":421405,"Delta":30050428},{"NoteNumber":64,"Velocity":40,"Duration":61728,"SoundDuration":61728,"Delta":30286648},{"NoteNumber":66,"Velocity":40,"Duration":61728,"SoundDuration":61728,"Delta":30348377},{"NoteNumber":68,"Velocity":40,"Duration":61728,"SoundDuration":61728,"Delta":30410105},{"NoteNumber":62,"Velocity":42,"Duration":385714,"SoundDuration":385714,"Delta":30471834},{"NoteNumber":66,"Velocity":50,"Duration":385714,"SoundDuration":385714,"Delta":30471834},{"NoteNumber":44,"Velocity":31,"Duration":385714,"SoundDuration":385714,"Delta":30471834},{"NoteNumber":54,"Velocity":37,"Duration":385714,"SoundDuration":385714,"Delta":30471834},{"NoteNumber":62,"Velocity":35,"Duration":453781,"SoundDuration":453781,"Delta":30900405},{"NoteNumber":64,"Velocity":42,"Duration":453781,"SoundDuration":453781,"Delta":30900405},{"NoteNumber":44,"Velocity":29,"Duration":453781,"SoundDuration":453781,"Delta":30900405},{"NoteNumber":52,"Velocity":35,"Duration":453781,"SoundDuration":453781,"Delta":30900405},{"NoteNumber":62,"Velocity":42,"Duration":902256,"SoundDuration":902256,"Delta":31404607},{"NoteNumber":66,"Velocity":50,"Duration":902256,"SoundDuration":902256,"Delta":31404607},{"NoteNumber":45,"Velocity":34,"Duration":1452714,"SoundDuration":1452714,"Delta":31404607},{"NoteNumber":54,"Velocity":40,"Duration":902256,"SoundDuration":902256,"Delta":31404607},{"NoteNumber":61,"Velocity":37,"Duration":527522,"SoundDuration":527522,"Delta":32306863},{"NoteNumber":64,"Velocity":44,"Duration":527522,"SoundDuration":527522,"Delta":32306863},{"NoteNumber":52,"Velocity":36,"Duration":527522,"SoundDuration":527522,"Delta":32306863},{"NoteNumber":57,"Velocity":48,"Duration":428571,"SoundDuration":428571,"Delta":32857321},{"NoteNumber":61,"Velocity":57,"Duration":428571,"SoundDuration":428571,"Delta":32857321},{"NoteNumber":45,"Velocity":35,"Duration":428571,"SoundDuration":428571,"Delta":32857321},{"NoteNumber":49,"Velocity":42,"Duration":428571,"SoundDuration":428571,"Delta":32857321},{"NoteNumber":62,"Velocity":52,"Duration":377622,"SoundDuration":377622,"Delta":33285893},{"NoteNumber":66,"Velocity":62,"Duration":377622,"SoundDuration":377622,"Delta":33285893},{"NoteNumber":45,"Velocity":42,"Duration":377622,"SoundDuration":377622,"Delta":33285893},{"NoteNumber":54,"Velocity":50,"Duration":377622,"SoundDuration":377622,"Delta":33285893},{"NoteNumber":60,"Velocity":42,"Duration":465517,"SoundDuration":465517,"Delta":33705473},{"NoteNumber":63,"Velocity":50,"Duration":465517,"SoundDuration":465517,"Delta":33705473},{"NoteNumber":45,"Velocity":29,"Duration":465517,"SoundDuration":465517,"Delta":33705473},{"NoteNumber":51,"Velocity":36,"Duration":465517,"SoundDuration":465517,"Delta":33705473},{"NoteNumber":61,"Velocity":48,"Duration":1276977,"SoundDuration":1276977,"Delta":34222715},{"NoteNumber":64,"Velocity":59,"Duration":1276977,"SoundDuration":1276977,"Delta":34222715},{"NoteNumber":45,"Velocity":38,"Duration":1276977,"SoundDuration":1276977,"Delta":34222715},{"NoteNumber":52,"Velocity":46,"Duration":1276977,"SoundDuration":1276977,"Delta":34222715},{"NoteNumber":64,"Velocity":59,"Duration":830959,"SoundDuration":830959,"Delta":35517678},{"NoteNumber":69,"Velocity":69,"Duration":830959,"SoundDuration":830959,"Delta":35517678},{"NoteNumber":61,"Velocity":57,"Duration":431654,"SoundDuration":431654,"Delta":35517678},{"NoteNumber":73,"Velocity":78,"Duration":416666,"SoundDuration":416666,"Delta":35949333},{"NoteNumber":57,"Velocity":61,"Duration":416666,"SoundDuration":416666,"Delta":35949333},{"NoteNumber":69,"Velocity":63,"Duration":495412,"SoundDuration":495412,"Delta":36365999},{"NoteNumber":64,"Velocity":63,"Duration":495412,"SoundDuration":495412,"Delta":36365999},{"NoteNumber":73,"Velocity":63,"Duration":495412,"SoundDuration":495412,"Delta":36365999},{"NoteNumber":76,"Velocity":75,"Duration":495412,"SoundDuration":495412,"Delta":36365999},{"NoteNumber":45,"Velocity":54,"Duration":495412,"SoundDuration":495412,"Delta":36365999},{"NoteNumber":52,"Velocity":64,"Duration":495412,"SoundDuration":495412,"Delta":36365999},{"NoteNumber":73,"Velocity":67,"Duration":1387342,"SoundDuration":1387342,"Delta":36916458},{"NoteNumber":64,"Velocity":67,"Duration":1407834,"SoundDuration":1407834,"Delta":36916458},{"NoteNumber":68,"Velocity":67,"Duration":1387342,"SoundDuration":1387342,"Delta":36916458},{"NoteNumber":76,"Velocity":79,"Duration":1387342,"SoundDuration":1387342,"Delta":36916458},{"NoteNumber":44,"Velocity":59,"Duration":1407834,"SoundDuration":1407834,"Delta":36916458},{"NoteNumber":52,"Velocity":59,"Duration":1407834,"SoundDuration":1407834,"Delta":36916458},{"NoteNumber":56,"Velocity":70,"Duration":1407834,"SoundDuration":1407834,"Delta":36916458},{"NoteNumber":64,"Velocity":40,"Duration":431654,"SoundDuration":431654,"Delta":38324292},{"NoteNumber":68,"Velocity":40,"Duration":413668,"SoundDuration":413668,"Delta":38324292},{"NoteNumber":76,"Velocity":56,"Duration":431654,"SoundDuration":431654,"Delta":38324292},{"NoteNumber":56,"Velocity":32,"Duration":413668,"SoundDuration":413668,"Delta":38324292},{"NoteNumber":61,"Velocity":38,"Duration":431654,"SoundDuration":431654,"Delta":38324292},{"NoteNumber":66,"Velocity":42,"Duration":422794,"SoundDuration":422794,"Delta":38755947},{"NoteNumber":68,"Velocity":42,"Duration":422794,"SoundDuration":422794,"Delta":38755947},{"NoteNumber":75,"Velocity":53,"Duration":441176,"SoundDuration":441176,"Delta":38755947},{"NoteNumber":56,"Velocity":29,"Duration":422794,"SoundDuration":422794,"Delta":38755947},{"NoteNumber":60,"Velocity":35,"Duration":422794,"SoundDuration":422794,"Delta":38755947},{"NoteNumber":66,"Velocity":37,"Duration":435483,"SoundDuration":435483,"Delta":39197123},{"NoteNumber":68,"Velocity":48,"Duration":435483,"SoundDuration":435483,"Delta":39197123},{"NoteNumber":56,"Velocity":28,"Duration":435483,"SoundDuration":435483,"Delta":39197123},{"NoteNumber":63,"Velocity":34,"Duration":435483,"SoundDuration":435483,"Delta":39197123},{"NoteNumber":68,"Velocity":42,"Duration":1276595,"SoundDuration":1276595,"Delta":39680994},{"NoteNumber":64,"Velocity":42,"Duration":1258865,"SoundDuration":1258865,"Delta":39680994},{"NoteNumber":73,"Velocity":55,"Duration":1258865,"SoundDuration":1258865,"Delta":39680994},{"NoteNumber":56,"Velocity":31,"Duration":1276595,"SoundDuration":1276595,"Delta":39680994},{"NoteNumber":49,"Velocity":31,"Duration":1258865,"SoundDuration":1258865,"Delta":39680994},{"NoteNumber":61,"Velocity":37,"Duration":1258865,"SoundDuration":1258865,"Delta":39680994},{"NoteNumber":61,"Velocity":42,"Duration":447760,"SoundDuration":447760,"Delta":40957590},{"NoteNumber":64,"Velocity":42,"Duration":429104,"SoundDuration":429104,"Delta":40957590},{"NoteNumber":73,"Velocity":50,"Duration":447760,"SoundDuration":447760,"Delta":40957590},{"NoteNumber":52,"Velocity":34,"Duration":429104,"SoundDuration":429104,"Delta":40957590},{"NoteNumber":57,"Velocity":40,"Duration":447760,"SoundDuration":447760,"Delta":40957590},{"NoteNumber":62,"Velocity":42,"Duration":472441,"SoundDuration":472441,"Delta":41405351},{"NoteNumber":64,"Velocity":42,"Duration":425196,"SoundDuration":425196,"Delta":41405351},{"NoteNumber":71,"Velocity":50,"Duration":425196,"SoundDuration":425196,"Delta":41405351},{"NoteNumber":52,"Velocity":31,"Duration":425196,"SoundDuration":425196,"Delta":41405351},{"NoteNumber":56,"Velocity":37,"Duration":425196,"SoundDuration":425196,"Delta":41405351},{"NoteNumber":62,"Velocity":35,"Duration":536779,"SoundDuration":536779,"Delta":41877792},{"NoteNumber":64,"Velocity":42,"Duration":536779,"SoundDuration":536779,"Delta":41877792},{"NoteNumber":52,"Velocity":29,"Duration":536779,"SoundDuration":536779,"Delta":41877792},{"NoteNumber":59,"Velocity":35,"Duration":536779,"SoundDuration":536779,"Delta":41877792},{"NoteNumber":61,"Velocity":42,"Duration":1428571,"SoundDuration":1428571,"Delta":42474214},{"NoteNumber":69,"Velocity":50,"Duration":1428571,"SoundDuration":1428571,"Delta":42474214},{"NoteNumber":54,"Velocity":34,"Duration":1428571,"SoundDuration":1428571,"Delta":42474214},{"NoteNumber":57,"Velocity":40,"Duration":1428571,"SoundDuration":1428571,"Delta":42474214},{"NoteNumber":61,"Velocity":50,"Duration":422794,"SoundDuration":422794,"Delta":43902785},{"NoteNumber":67,"Velocity":50,"Duration":422794,"SoundDuration":422794,"Delta":43902785},{"NoteNumber":70,"Velocity":59,"Duration":422794,"SoundDuration":422794,"Delta":43902785},{"NoteNumber":52,"Velocity":36,"Duration":422794,"SoundDuration":422794,"Delta":43902785},{"NoteNumber":55,"Velocity":43,"Duration":422794,"SoundDuration":422794,"Delta":43902785},{"NoteNumber":62,"Velocity":54,"Duration":441176,"SoundDuration":441176,"Delta":44343962},{"NoteNumber":67,"Velocity":54,"Duration":441176,"SoundDuration":441176,"Delta":44343962},{"NoteNumber":71,"Velocity":64,"Duration":441176,"SoundDuration":441176,"Delta":44343962},{"NoteNumber":50,"Velocity":39,"Duration":441176,"SoundDuration":441176,"Delta":44343962},{"NoteNumber":55,"Velocity":46,"Duration":441176,"SoundDuration":441176,"Delta":44343962},{"NoteNumber":64,"Velocity":57,"Duration":539999,"SoundDuration":539999,"Delta":44785138},{"NoteNumber":70,"Velocity":68,"Duration":539999,"SoundDuration":539999,"Delta":44785138},{"NoteNumber":67,"Velocity":57,"Duration":539999,"SoundDuration":539999,"Delta":44785138},{"NoteNumber":73,"Velocity":68,"Duration":539999,"SoundDuration":539999,"Delta":44785138},{"NoteNumber":49,"Velocity":40,"Duration":539999,"SoundDuration":539999,"Delta":44785138},{"NoteNumber":55,"Velocity":48,"Duration":539999,"SoundDuration":539999,"Delta":44785138},{"NoteNumber":62,"Velocity":61,"Duration":1294963,"SoundDuration":1294963,"Delta":45385138},{"NoteNumber":67,"Velocity":61,"Duration":1294963,"SoundDuration":1294963,"Delta":45385138},{"NoteNumber":71,"Velocity":61,"Duration":1294963,"SoundDuration":1294963,"Delta":45385138},{"NoteNumber":74,"Velocity":72,"Duration":1294963,"SoundDuration":1294963,"Delta":45385138},{"NoteNumber":47,"Velocity":43,"Duration":1294963,"SoundDuration":1294963,"Delta":45385138},{"NoteNumber":55,"Velocity":51,"Duration":1294963,"SoundDuration":1294963,"Delta":45385138},{"NoteNumber":62,"Velocity":40,"Duration":413668,"SoundDuration":413668,"Delta":46680102},{"NoteNumber":71,"Velocity":56,"Duration":431654,"SoundDuration":431654,"Delta":46680102},{"NoteNumber":50,"Velocity":32,"Duration":413668,"SoundDuration":413668,"Delta":46680102},{"NoteNumber":55,"Velocity":38,"Duration":413668,"SoundDuration":413668,"Delta":46680102},{"NoteNumber":62,"Velocity":40,"Duration":432330,"SoundDuration":432330,"Delta":47111756},{"NoteNumber":67,"Velocity":51,"Duration":451127,"SoundDuration":451127,"Delta":47111756},{"NoteNumber":53,"Velocity":28,"Duration":432330,"SoundDuration":432330,"Delta":47111756},{"NoteNumber":55,"Velocity":34,"Duration":451127,"SoundDuration":451127,"Delta":47111756},{"NoteNumber":59,"Velocity":37,"Duration":499999,"SoundDuration":499999,"Delta":47562884},{"NoteNumber":62,"Velocity":48,"Duration":499999,"SoundDuration":499999,"Delta":47562884},{"NoteNumber":55,"Velocity":34,"Duration":499999,"SoundDuration":499999,"Delta":47562884},{"NoteNumber":60,"Velocity":37,"Duration":1258865,"SoundDuration":1258865,"Delta":48118440},{"NoteNumber":64,"Velocity":49,"Duration":1258865,"SoundDuration":1258865,"Delta":48118440},{"NoteNumber":48,"Velocity":27,"Duration":1258865,"SoundDuration":1258865,"Delta":48118440},{"NoteNumber":55,"Velocity":33,"Duration":1258865,"SoundDuration":1258865,"Delta":48118440},{"NoteNumber":59,"Velocity":34,"Duration":431654,"SoundDuration":431654,"Delta":49395035},{"NoteNumber":62,"Velocity":47,"Duration":431654,"SoundDuration":431654,"Delta":49395035},{"NoteNumber":43,"Velocity":27,"Duration":413668,"SoundDuration":413668,"Delta":49395035},{"NoteNumber":55,"Velocity":32,"Duration":431654,"SoundDuration":431654,"Delta":49395035},{"NoteNumber":60,"Velocity":34,"Duration":419707,"SoundDuration":419707,"Delta":49826690},{"NoteNumber":64,"Velocity":43,"Duration":437955,"SoundDuration":437955,"Delta":49826690},{"NoteNumber":48,"Velocity":23,"Duration":419707,"SoundDuration":419707,"Delta":49826690},{"NoteNumber":55,"Velocity":28,"Duration":437955,"SoundDuration":437955,"Delta":49826690},{"NoteNumber":59,"Velocity":31,"Duration":406015,"SoundDuration":406015,"Delta":50264646},{"NoteNumber":65,"Velocity":40,"Duration":406015,"SoundDuration":406015,"Delta":50264646},{"NoteNumber":50,"Velocity":23,"Duration":451127,"SoundDuration":451127,"Delta":50264646},{"NoteNumber":55,"Velocity":28,"Duration":406015,"SoundDuration":406015,"Delta":50264646},{"NoteNumber":60,"Velocity":35,"Duration":390070,"SoundDuration":390070,"Delta":50715774},{"NoteNumber":64,"Velocity":46,"Duration":390070,"SoundDuration":390070,"Delta":50715774},{"NoteNumber":48,"Velocity":26,"Duration":390070,"SoundDuration":390070,"Delta":50715774},{"NoteNumber":55,"Velocity":31,"Duration":390070,"SoundDuration":390070,"Delta":50715774},{"NoteNumber":71,"Velocity":34,"Duration":431654,"SoundDuration":431654,"Delta":51141306},{"NoteNumber":74,"Velocity":47,"Duration":431654,"SoundDuration":431654,"Delta":51141306},{"NoteNumber":55,"Velocity":27,"Duration":413668,"SoundDuration":413668,"Delta":51141306},{"NoteNumber":67,"Velocity":32,"Duration":431654,"SoundDuration":431654,"Delta":51141306},{"NoteNumber":72,"Velocity":34,"Duration":422794,"SoundDuration":422794,"Delta":51572960},{"NoteNumber":76,"Velocity":43,"Duration":441176,"SoundDuration":441176,"Delta":51572960},{"NoteNumber":60,"Velocity":23,"Duration":422794,"SoundDuration":422794,"Delta":51572960},{"NoteNumber":67,"Velocity":28,"Duration":441176,"SoundDuration":441176,"Delta":51572960},{"NoteNumber":71,"Velocity":31,"Duration":400000,"SoundDuration":400000,"Delta":52014137},{"NoteNumber":77,"Velocity":40,"Duration":400000,"SoundDuration":400000,"Delta":52014137},{"NoteNumber":62,"Velocity":23,"Duration":444444,"SoundDuration":444444,"Delta":52014137},{"NoteNumber":67,"Velocity":28,"Duration":400000,"SoundDuration":400000,"Delta":52014137},{"NoteNumber":72,"Velocity":35,"Duration":381944,"SoundDuration":381944,"Delta":52458581},{"NoteNumber":76,"Velocity":46,"Duration":381944,"SoundDuration":381944,"Delta":52458581},{"NoteNumber":60,"Velocity":26,"Duration":381944,"SoundDuration":381944,"Delta":52458581},{"NoteNumber":67,"Velocity":31,"Duration":381944,"SoundDuration":381944,"Delta":52458581},{"NoteNumber":59,"Velocity":34,"Duration":461538,"SoundDuration":461538,"Delta":52875248},{"NoteNumber":62,"Velocity":47,"Duration":461538,"SoundDuration":461538,"Delta":52875248},{"NoteNumber":43,"Velocity":27,"Duration":442307,"SoundDuration":442307,"Delta":52875248},{"NoteNumber":55,"Velocity":32,"Duration":461538,"SoundDuration":461538,"Delta":52875248},{"NoteNumber":60,"Velocity":34,"Duration":467479,"SoundDuration":467479,"Delta":53336786},{"NoteNumber":64,"Velocity":43,"Duration":487805,"SoundDuration":487805,"Delta":53336786},{"NoteNumber":48,"Velocity":23,"Duration":467479,"SoundDuration":467479,"Delta":53336786},{"NoteNumber":55,"Velocity":28,"Duration":487805,"SoundDuration":487805,"Delta":53336786},{"NoteNumber":67,"Velocity":37,"Duration":121951,"SoundDuration":121951,"Delta":53702640},{"NoteNumber":59,"Velocity":31,"Duration":486486,"SoundDuration":486486,"Delta":53824591},{"NoteNumber":65,"Velocity":40,"Duration":486486,"SoundDuration":486486,"Delta":53824591},{"NoteNumber":50,"Velocity":23,"Duration":540540,"SoundDuration":540540,"Delta":53824591},{"NoteNumber":55,"Velocity":28,"Duration":486486,"SoundDuration":486486,"Delta":53824591},{"NoteNumber":60,"Velocity":35,"Duration":410447,"SoundDuration":410447,"Delta":54365132},{"NoteNumber":64,"Velocity":46,"Duration":410447,"SoundDuration":410447,"Delta":54365132},{"NoteNumber":48,"Velocity":26,"Duration":410447,"SoundDuration":410447,"Delta":54365132},{"NoteNumber":55,"Velocity":31,"Duration":410447,"SoundDuration":410447,"Delta":54365132},{"NoteNumber":62,"Velocity":45,"Duration":447760,"SoundDuration":447760,"Delta":54812893},{"NoteNumber":64,"Velocity":53,"Duration":447760,"SoundDuration":447760,"Delta":54812893},{"NoteNumber":47,"Velocity":29,"Duration":447760,"SoundDuration":447760,"Delta":54812893},{"NoteNumber":52,"Velocity":29,"Duration":447760,"SoundDuration":447760,"Delta":54812893},{"NoteNumber":56,"Velocity":35,"Duration":447760,"SoundDuration":447760,"Delta":54812893},{"NoteNumber":62,"Velocity":45,"Duration":441176,"SoundDuration":441176,"Delta":55260654},{"NoteNumber":64,"Velocity":45,"Duration":441176,"SoundDuration":441176,"Delta":55260654},{"NoteNumber":66,"Velocity":53,"Duration":441176,"SoundDuration":441176,"Delta":55260654},{"NoteNumber":47,"Velocity":31,"Duration":441176,"SoundDuration":441176,"Delta":55260654},{"NoteNumber":52,"Velocity":31,"Duration":441176,"SoundDuration":441176,"Delta":55260654},{"NoteNumber":56,"Velocity":38,"Duration":441176,"SoundDuration":441176,"Delta":55260654},{"NoteNumber":68,"Velocity":60,"Duration":441176,"SoundDuration":441176,"Delta":55701830},{"NoteNumber":62,"Velocity":48,"Duration":441176,"SoundDuration":441176,"Delta":55701830},{"NoteNumber":64,"Velocity":48,"Duration":441176,"SoundDuration":441176,"Delta":55701830},{"NoteNumber":47,"Velocity":37,"Duration":441176,"SoundDuration":441176,"Delta":55701830},{"NoteNumber":52,"Velocity":37,"Duration":441176,"SoundDuration":441176,"Delta":55701830},{"NoteNumber":56,"Velocity":44,"Duration":441176,"SoundDuration":441176,"Delta":55701830},{"NoteNumber":57,"Velocity":56,"Duration":441176,"SoundDuration":441176,"Delta":56143007},{"NoteNumber":61,"Velocity":56,"Duration":441176,"SoundDuration":441176,"Delta":56143007},{"NoteNumber":69,"Velocity":66,"Duration":441176,"SoundDuration":441176,"Delta":56143007},{"NoteNumber":49,"Velocity":42,"Duration":441176,"SoundDuration":441176,"Delta":56143007},{"NoteNumber":52,"Velocity":42,"Duration":441176,"SoundDuration":441176,"Delta":56143007},{"NoteNumber":57,"Velocity":51,"Duration":441176,"SoundDuration":441176,"Delta":56143007},{"NoteNumber":63,"Velocity":59,"Duration":491803,"SoundDuration":491803,"Delta":56584183},{"NoteNumber":71,"Velocity":70,"Duration":491803,"SoundDuration":491803,"Delta":56584183},{"NoteNumber":69,"Velocity":59,"Duration":491803,"SoundDuration":491803,"Delta":56584183},{"NoteNumber":54,"Velocity":47,"Duration":491803,"SoundDuration":491803,"Delta":56584183},{"NoteNumber":57,"Velocity":47,"Duration":491803,"SoundDuration":491803,"Delta":56584183},{"NoteNumber":59,"Velocity":56,"Duration":491803,"SoundDuration":491803,"Delta":56584183},{"NoteNumber":64,"Velocity":62,"Duration":944881,"SoundDuration":944881,"Delta":57075987},{"NoteNumber":69,"Velocity":62,"Duration":944881,"SoundDuration":944881,"Delta":57075987},{"NoteNumber":73,"Velocity":74,"Duration":944881,"SoundDuration":944881,"Delta":57075987},{"NoteNumber":52,"Velocity":49,"Duration":944881,"SoundDuration":944881,"Delta":57075987},{"NoteNumber":57,"Velocity":49,"Duration":944881,"SoundDuration":944881,"Delta":57075987},{"NoteNumber":61,"Velocity":59,"Duration":944881,"SoundDuration":944881,"Delta":57075987},{"NoteNumber":62,"Velocity":62,"Duration":957293,"SoundDuration":957293,"Delta":58020869},{"NoteNumber":64,"Velocity":62,"Duration":957293,"SoundDuration":957293,"Delta":58020869},{"NoteNumber":68,"Velocity":62,"Duration":957293,"SoundDuration":957293,"Delta":58020869},{"NoteNumber":73,"Velocity":74,"Duration":687023,"SoundDuration":687023,"Delta":58020869},{"NoteNumber":40,"Velocity":42,"Duration":957293,"SoundDuration":957293,"Delta":58020869},{"NoteNumber":52,"Velocity":50,"Duration":957293,"SoundDuration":957293,"Delta":58020869},{"NoteNumber":71,"Velocity":61,"Duration":270270,"SoundDuration":270270,"Delta":58707892},{"NoteNumber":61,"Velocity":44,"Duration":1285714,"SoundDuration":1285714,"Delta":58978163},{"NoteNumber":64,"Velocity":44,"Duration":1285714,"SoundDuration":1285714,"Delta":58978163},{"NoteNumber":69,"Velocity":52,"Duration":1285714,"SoundDuration":1285714,"Delta":58978163},{"NoteNumber":45,"Velocity":34,"Duration":1285714,"SoundDuration":1285714,"Delta":58978163},{"NoteNumber":52,"Velocity":41,"Duration":1285714,"SoundDuration":1285714,"Delta":58978163},{"NoteNumber":64,"Velocity":47,"Duration":431654,"SoundDuration":431654,"Delta":60263877},{"NoteNumber":52,"Velocity":30,"Duration":413668,"SoundDuration":413668,"Delta":60263877},{"NoteNumber":61,"Velocity":51,"Duration":451127,"SoundDuration":451127,"Delta":60695532},{"NoteNumber":49,"Velocity":34,"Duration":451127,"SoundDuration":451127,"Delta":60695532},{"NoteNumber":57,"Velocity":43,"Duration":354166,"SoundDuration":354166,"Delta":61146659},{"NoteNumber":45,"Velocity":34,"Duration":354166,"SoundDuration":354166,"Delta":61146659},{"NoteNumber":57,"Velocity":37,"Duration":140957,"SoundDuration":140957,"Delta":61521659},{"NoteNumber":45,"Velocity":27,"Duration":125000,"SoundDuration":125000,"Delta":61521659},{"NoteNumber":64,"Velocity":49,"Duration":1258865,"SoundDuration":1258865,"Delta":61646659},{"NoteNumber":52,"Velocity":33,"Duration":1258865,"SoundDuration":1258865,"Delta":61646659},{"NoteNumber":64,"Velocity":51,"Duration":431654,"SoundDuration":431654,"Delta":62923255},{"NoteNumber":52,"Velocity":33,"Duration":413668,"SoundDuration":413668,"Delta":62923255},{"NoteNumber":61,"Velocity":56,"Duration":451127,"SoundDuration":451127,"Delta":63354910},{"NoteNumber":49,"Velocity":37,"Duration":451127,"SoundDuration":451127,"Delta":63354910},{"NoteNumber":58,"Velocity":47,"Duration":357142,"SoundDuration":357142,"Delta":63806038},{"NoteNumber":46,"Velocity":37,"Duration":357142,"SoundDuration":357142,"Delta":63806038},{"NoteNumber":58,"Velocity":40,"Duration":142007,"SoundDuration":142007,"Delta":64184189},{"NoteNumber":46,"Velocity":29,"Duration":126050,"SoundDuration":126050,"Delta":64184189},{"NoteNumber":64,"Velocity":53,"Duration":1258865,"SoundDuration":1258865,"Delta":64310239},{"NoteNumber":52,"Velocity":36,"Duration":1258865,"SoundDuration":1258865,"Delta":64310239},{"NoteNumber":64,"Velocity":56,"Duration":431654,"SoundDuration":431654,"Delta":65586835},{"NoteNumber":52,"Velocity":36,"Duration":413668,"SoundDuration":413668,"Delta":65586835},{"NoteNumber":62,"Velocity":65,"Duration":451127,"SoundDuration":451127,"Delta":66018490},{"NoteNumber":50,"Velocity":43,"Duration":451127,"SoundDuration":451127,"Delta":66018490},{"NoteNumber":59,"Velocity":58,"Duration":337301,"SoundDuration":337301,"Delta":66469618},{"NoteNumber":47,"Velocity":46,"Duration":337301,"SoundDuration":337301,"Delta":66469618},{"NoteNumber":59,"Velocity":52,"Duration":136489,"SoundDuration":136489,"Delta":66826761},{"NoteNumber":47,"Velocity":37,"Duration":119047,"SoundDuration":119047,"Delta":66826761},{"NoteNumber":66,"Velocity":69,"Duration":418604,"SoundDuration":418604,"Delta":66945808},{"NoteNumber":54,"Velocity":54,"Duration":418604,"SoundDuration":418604,"Delta":66945808},{"NoteNumber":61,"Velocity":56,"Duration":385714,"SoundDuration":385714,"Delta":67410925},{"NoteNumber":66,"Velocity":56,"Duration":385714,"SoundDuration":385714,"Delta":67410925},{"NoteNumber":70,"Velocity":67,"Duration":385714,"SoundDuration":385714,"Delta":67410925},{"NoteNumber":52,"Velocity":45,"Duration":385714,"SoundDuration":385714,"Delta":67410925},{"NoteNumber":54,"Velocity":54,"Duration":385714,"SoundDuration":385714,"Delta":67410925},{"NoteNumber":59,"Velocity":54,"Duration":385714,"SoundDuration":385714,"Delta":67839496},{"NoteNumber":66,"Velocity":54,"Duration":385714,"SoundDuration":385714,"Delta":67839496},{"NoteNumber":71,"Velocity":64,"Duration":385714,"SoundDuration":385714,"Delta":67839496},{"NoteNumber":50,"Velocity":44,"Duration":385714,"SoundDuration":385714,"Delta":67839496},{"NoteNumber":54,"Velocity":52,"Duration":385714,"SoundDuration":385714,"Delta":67839496},{"NoteNumber":61,"Velocity":51,"Duration":385714,"SoundDuration":385714,"Delta":68268068},{"NoteNumber":66,"Velocity":51,"Duration":385714,"SoundDuration":385714,"Delta":68268068},{"NoteNumber":73,"Velocity":61,"Duration":385714,"SoundDuration":385714,"Delta":68268068},{"NoteNumber":46,"Velocity":41,"Duration":385714,"SoundDuration":385714,"Delta":68268068},{"NoteNumber":54,"Velocity":49,"Duration":385714,"SoundDuration":385714,"Delta":68268068},{"NoteNumber":62,"Velocity":49,"Duration":400000,"SoundDuration":400000,"Delta":68696639},{"NoteNumber":66,"Velocity":49,"Duration":400000,"SoundDuration":400000,"Delta":68696639},{"NoteNumber":74,"Velocity":58,"Duration":400000,"SoundDuration":400000,"Delta":68696639},{"NoteNumber":47,"Velocity":38,"Duration":400000,"SoundDuration":400000,"Delta":68696639},{"NoteNumber":54,"Velocity":45,"Duration":400000,"SoundDuration":400000,"Delta":68696639},{"NoteNumber":71,"Velocity":57,"Duration":504672,"SoundDuration":504672,"Delta":69141084},{"NoteNumber":74,"Velocity":57,"Duration":504672,"SoundDuration":504672,"Delta":69141084},{"NoteNumber":83,"Velocity":69,"Duration":504672,"SoundDuration":504672,"Delta":69141084},{"NoteNumber":41,"Velocity":45,"Duration":504672,"SoundDuration":504672,"Delta":69141084},{"NoteNumber":50,"Velocity":53,"Duration":504672,"SoundDuration":504672,"Delta":69141084},{"NoteNumber":71,"Velocity":53,"Duration":1428571,"SoundDuration":1428571,"Delta":69701831},{"NoteNumber":74,"Velocity":53,"Duration":1428571,"SoundDuration":1428571,"Delta":69701831},{"NoteNumber":81,"Velocity":63,"Duration":952381,"SoundDuration":952381,"Delta":69701831},{"NoteNumber":40,"Velocity":39,"Duration":1428571,"SoundDuration":1428571,"Delta":69701831},{"NoteNumber":52,"Velocity":46,"Duration":1428571,"SoundDuration":1428571,"Delta":69701831},{"NoteNumber":80,"Velocity":55,"Duration":476190,"SoundDuration":476190,"Delta":70654212},{"NoteNumber":64,"Velocity":47,"Duration":431654,"SoundDuration":431654,"Delta":71130403},{"NoteNumber":52,"Velocity":30,"Duration":413668,"SoundDuration":413668,"Delta":71130403},{"NoteNumber":59,"Velocity":51,"Duration":451127,"SoundDuration":451127,"Delta":71562057},{"NoteNumber":47,"Velocity":34,"Duration":451127,"SoundDuration":451127,"Delta":71562057},{"NoteNumber":56,"Velocity":43,"Duration":354166,"SoundDuration":354166,"Delta":72013185},{"NoteNumber":44,"Velocity":34,"Duration":354166,"SoundDuration":354166,"Delta":72013185},{"NoteNumber":56,"Velocity":37,"Duration":140957,"SoundDuration":140957,"Delta":72388185},{"NoteNumber":44,"Velocity":27,"Duration":125000,"SoundDuration":125000,"Delta":72388185},{"NoteNumber":64,"Velocity":49,"Duration":1258865,"SoundDuration":1258865,"Delta":72513185},{"NoteNumber":52,"Velocity":33,"Duration":1258865,"SoundDuration":1258865,"Delta":72513185},{"NoteNumber":64,"Velocity":51,"Duration":431654,"SoundDuration":431654,"Delta":73789781},{"NoteNumber":52,"Velocity":33,"Duration":413668,"SoundDuration":413668,"Delta":73789781},{"NoteNumber":60,"Velocity":56,"Duration":451127,"SoundDuration":451127,"Delta":74221436},{"NoteNumber":48,"Velocity":37,"Duration":451127,"SoundDuration":451127,"Delta":74221436},{"NoteNumber":57,"Velocity":47,"Duration":357142,"SoundDuration":357142,"Delta":74672564},{"NoteNumber":45,"Velocity":37,"Duration":357142,"SoundDuration":357142,"Delta":74672564},{"NoteNumber":57,"Velocity":40,"Duration":142007,"SoundDuration":142007,"Delta":75050715},{"NoteNumber":45,"Velocity":29,"Duration":126050,"SoundDuration":126050,"Delta":75050715},{"NoteNumber":64,"Velocity":53,"Duration":1258865,"SoundDuration":1258865,"Delta":75176765},{"NoteNumber":52,"Velocity":36,"Duration":1258865,"SoundDuration":1258865,"Delta":75176765},{"NoteNumber":64,"Velocity":56,"Duration":431654,"SoundDuration":431654,"Delta":76453361},{"NoteNumber":52,"Velocity":36,"Duration":413668,"SoundDuration":413668,"Delta":76453361},{"NoteNumber":61,"Velocity":65,"Duration":451127,"SoundDuration":451127,"Delta":76885016},{"NoteNumber":49,"Velocity":43,"Duration":451127,"SoundDuration":451127,"Delta":76885016},{"NoteNumber":58,"Velocity":58,"Duration":337301,"SoundDuration":337301,"Delta":77336144},{"NoteNumber":46,"Velocity":46,"Duration":337301,"SoundDuration":337301,"Delta":77336144},{"NoteNumber":58,"Velocity":52,"Duration":136489,"SoundDuration":136489,"Delta":77693287},{"NoteNumber":46,"Velocity":37,"Duration":119047,"SoundDuration":119047,"Delta":77693287},{"NoteNumber":65,"Velocity":69,"Duration":418604,"SoundDuration":418604,"Delta":77812334},{"NoteNumber":53,"Velocity":54,"Duration":418604,"SoundDuration":418604,"Delta":77812334},{"NoteNumber":60,"Velocity":56,"Duration":400000,"SoundDuration":400000,"Delta":78277451},{"NoteNumber":65,"Velocity":56,"Duration":400000,"SoundDuration":400000,"Delta":78277451},{"NoteNumber":69,"Velocity":67,"Duration":400000,"SoundDuration":400000,"Delta":78277451},{"NoteNumber":51,"Velocity":45,"Duration":400000,"SoundDuration":400000,"Delta":78277451},{"NoteNumber":53,"Velocity":54,"Duration":400000,"SoundDuration":400000,"Delta":78277451},{"NoteNumber":58,"Velocity":54,"Duration":382978,"SoundDuration":382978,"Delta":78721895},{"NoteNumber":65,"Velocity":54,"Duration":382978,"SoundDuration":382978,"Delta":78721895},{"NoteNumber":70,"Velocity":64,"Duration":382978,"SoundDuration":382978,"Delta":78721895},{"NoteNumber":50,"Velocity":44,"Duration":382978,"SoundDuration":382978,"Delta":78721895},{"NoteNumber":53,"Velocity":52,"Duration":382978,"SoundDuration":382978,"Delta":78721895},{"NoteNumber":60,"Velocity":51,"Duration":382978,"SoundDuration":382978,"Delta":79147427},{"NoteNumber":65,"Velocity":51,"Duration":382978,"SoundDuration":382978,"Delta":79147427},{"NoteNumber":72,"Velocity":61,"Duration":382978,"SoundDuration":382978,"Delta":79147427},{"NoteNumber":45,"Velocity":41,"Duration":382978,"SoundDuration":382978,"Delta":79147427},{"NoteNumber":53,"Velocity":49,"Duration":382978,"SoundDuration":382978,"Delta":79147427},{"NoteNumber":62,"Velocity":49,"Duration":400000,"SoundDuration":400000,"Delta":79572959},{"NoteNumber":65,"Velocity":49,"Duration":400000,"SoundDuration":400000,"Delta":79572959},{"NoteNumber":74,"Velocity":58,"Duration":400000,"SoundDuration":400000,"Delta":79572959},{"NoteNumber":46,"Velocity":38,"Duration":400000,"SoundDuration":400000,"Delta":79572959},{"NoteNumber":53,"Velocity":45,"Duration":400000,"SoundDuration":400000,"Delta":79572959},{"NoteNumber":65,"Velocity":57,"Duration":525303,"SoundDuration":525303,"Delta":80017404},{"NoteNumber":69,"Velocity":57,"Duration":525303,"SoundDuration":525303,"Delta":80017404},{"NoteNumber":77,"Velocity":68,"Duration":229007,"SoundDuration":229007,"Delta":80017404},{"NoteNumber":48,"Velocity":45,"Duration":525303,"SoundDuration":525303,"Delta":80017404},{"NoteNumber":53,"Velocity":53,"Duration":525303,"SoundDuration":525303,"Delta":80017404},{"NoteNumber":75,"Velocity":65,"Duration":339506,"SoundDuration":339506,"Delta":80246412},{"NoteNumber":65,"Velocity":53,"Duration":1428571,"SoundDuration":1428571,"Delta":80616782},{"NoteNumber":69,"Velocity":53,"Duration":952381,"SoundDuration":952381,"Delta":80616782},{"NoteNumber":75,"Velocity":63,"Duration":952381,"SoundDuration":952381,"Delta":80616782},{"NoteNumber":48,"Velocity":39,"Duration":952381,"SoundDuration":952381,"Delta":80616782},{"NoteNumber":53,"Velocity":46,"Duration":1428571,"SoundDuration":1428571,"Delta":80616782},{"NoteNumber":70,"Velocity":52,"Duration":436507,"SoundDuration":436507,"Delta":81569163},{"NoteNumber":74,"Velocity":55,"Duration":436507,"SoundDuration":436507,"Delta":81569163},{"NoteNumber":46,"Velocity":39,"Duration":436507,"SoundDuration":436507,"Delta":81569163},{"NoteNumber":65,"Velocity":65,"Duration":407142,"SoundDuration":407142,"Delta":82045353},{"NoteNumber":74,"Velocity":65,"Duration":407142,"SoundDuration":407142,"Delta":82045353},{"NoteNumber":77,"Velocity":78,"Duration":407142,"SoundDuration":407142,"Delta":82045353},{"NoteNumber":41,"Velocity":50,"Duration":407142,"SoundDuration":407142,"Delta":82045353},{"NoteNumber":53,"Velocity":59,"Duration":407142,"SoundDuration":407142,"Delta":82045353},{"NoteNumber":70,"Velocity":72,"Duration":419117,"SoundDuration":419117,"Delta":82474240},{"NoteNumber":77,"Velocity":72,"Duration":419117,"SoundDuration":419117,"Delta":82474240},{"NoteNumber":82,"Velocity":86,"Duration":419117,"SoundDuration":419117,"Delta":82474240},{"NoteNumber":43,"Velocity":54,"Duration":419117,"SoundDuration":419117,"Delta":82474240},{"NoteNumber":53,"Velocity":54,"Duration":419117,"SoundDuration":419117,"Delta":82474240},{"NoteNumber":55,"Velocity":64,"Duration":419117,"SoundDuration":419117,"Delta":82474240},{"NoteNumber":84,"Velocity":88,"Duration":469097,"SoundDuration":469097,"Delta":82915417},{"NoteNumber":77,"Velocity":74,"Duration":469097,"SoundDuration":469097,"Delta":82915417},{"NoteNumber":72,"Velocity":74,"Duration":469097,"SoundDuration":469097,"Delta":82915417},{"NoteNumber":45,"Velocity":58,"Duration":469097,"SoundDuration":469097,"Delta":82915417},{"NoteNumber":53,"Velocity":58,"Duration":469097,"SoundDuration":469097,"Delta":82915417},{"NoteNumber":57,"Velocity":69,"Duration":469097,"SoundDuration":469097,"Delta":82915417},{"NoteNumber":74,"Velocity":78,"Duration":1291960,"SoundDuration":1291960,"Delta":83438568},{"NoteNumber":77,"Velocity":78,"Duration":1291960,"SoundDuration":1291960,"Delta":83438568},{"NoteNumber":86,"Velocity":92,"Duration":1291960,"SoundDuration":1291960,"Delta":83438568},{"NoteNumber":46,"Velocity":63,"Duration":1291960,"SoundDuration":1291960,"Delta":83438568},{"NoteNumber":53,"Velocity":63,"Duration":1310076,"SoundDuration":1310076,"Delta":83438568},{"NoteNumber":58,"Velocity":74,"Duration":1291960,"SoundDuration":1291960,"Delta":83438568},{"NoteNumber":70,"Velocity":56,"Duration":941191,"SoundDuration":941191,"Delta":84748644},{"NoteNumber":74,"Velocity":56,"Duration":941191,"SoundDuration":941191,"Delta":84748644},{"NoteNumber":82,"Velocity":78,"Duration":468750,"SoundDuration":468750,"Delta":84748644},{"NoteNumber":50,"Velocity":44,"Duration":468750,"SoundDuration":468750,"Delta":84748644},{"NoteNumber":58,"Velocity":44,"Duration":941191,"SoundDuration":941191,"Delta":84748644},{"NoteNumber":62,"Velocity":53,"Duration":941191,"SoundDuration":941191,"Delta":84748644},{"NoteNumber":77,"Velocity":69,"Duration":472441,"SoundDuration":472441,"Delta":85217394},{"NoteNumber":53,"Velocity":46,"Duration":472441,"SoundDuration":472441,"Delta":85217394},{"NoteNumber":69,"Velocity":49,"Duration":517241,"SoundDuration":517241,"Delta":85689835},{"NoteNumber":72,"Velocity":49,"Duration":465517,"SoundDuration":465517,"Delta":85689835},{"NoteNumber":75,"Velocity":64,"Duration":465517,"SoundDuration":465517,"Delta":85689835},{"NoteNumber":53,"Velocity":38,"Duration":517241,"SoundDuration":517241,"Delta":85689835},{"NoteNumber":60,"Velocity":38,"Duration":517241,"SoundDuration":517241,"Delta":85689835},{"NoteNumber":63,"Velocity":45,"Duration":465517,"SoundDuration":465517,"Delta":85689835},{"NoteNumber":70,"Velocity":48,"Duration":1258865,"SoundDuration":1258865,"Delta":86207077},{"NoteNumber":74,"Velocity":63,"Duration":1258865,"SoundDuration":1258865,"Delta":86207077},{"NoteNumber":55,"Velocity":35,"Duration":1276595,"SoundDuration":1276595,"Delta":86207077},{"NoteNumber":58,"Velocity":35,"Duration":1258865,"SoundDuration":1258865,"Delta":86207077},{"NoteNumber":62,"Velocity":42,"Duration":1258865,"SoundDuration":1258865,"Delta":86207077},{"NoteNumber":63,"Velocity":40,"Duration":480000,"SoundDuration":480000,"Delta":87483673},{"NoteNumber":65,"Velocity":40,"Duration":975689,"SoundDuration":975689,"Delta":87483673},{"NoteNumber":72,"Velocity":56,"Duration":480000,"SoundDuration":480000,"Delta":87483673},{"NoteNumber":45,"Velocity":32,"Duration":459999,"SoundDuration":459999,"Delta":87483673},{"NoteNumber":53,"Velocity":38,"Duration":975689,"SoundDuration":975689,"Delta":87483673},{"NoteNumber":62,"Velocity":40,"Duration":495689,"SoundDuration":495689,"Delta":87963673},{"NoteNumber":70,"Velocity":51,"Duration":517241,"SoundDuration":517241,"Delta":87963673},{"NoteNumber":46,"Velocity":28,"Duration":495689,"SoundDuration":495689,"Delta":87963673},{"NoteNumber":57,"Velocity":34,"Duration":556700,"SoundDuration":556700,"Delta":88480914},{"NoteNumber":65,"Velocity":48,"Duration":556700,"SoundDuration":556700,"Delta":88480914},{"NoteNumber":48,"Velocity":25,"Duration":618556,"SoundDuration":618556,"Delta":88480914},{"NoteNumber":53,"Velocity":31,"Duration":556700,"SoundDuration":556700,"Delta":88480914},{"NoteNumber":58,"Velocity":37,"Duration":1258865,"SoundDuration":1258865,"Delta":89099471},{"NoteNumber":62,"Velocity":49,"Duration":1258865,"SoundDuration":1258865,"Delta":89099471},{"NoteNumber":46,"Velocity":27,"Duration":1258865,"SoundDuration":1258865,"Delta":89099471},{"NoteNumber":53,"Velocity":33,"Duration":1258865,"SoundDuration":1258865,"Delta":89099471},{"NoteNumber":57,"Velocity":34,"Duration":431654,"SoundDuration":431654,"Delta":90376067},{"NoteNumber":60,"Velocity":47,"Duration":431654,"SoundDuration":431654,"Delta":90376067},{"NoteNumber":41,"Velocity":27,"Duration":413668,"SoundDuration":413668,"Delta":90376067},{"NoteNumber":53,"Velocity":32,"Duration":431654,"SoundDuration":431654,"Delta":90376067},{"NoteNumber":58,"Velocity":34,"Duration":419707,"SoundDuration":419707,"Delta":90807721},{"NoteNumber":62,"Velocity":43,"Duration":437955,"SoundDuration":437955,"Delta":90807721},{"NoteNumber":46,"Velocity":23,"Duration":419707,"SoundDuration":419707,"Delta":90807721},{"NoteNumber":53,"Velocity":28,"Duration":437955,"SoundDuration":437955,"Delta":90807721},{"NoteNumber":57,"Velocity":31,"Duration":406015,"SoundDuration":406015,"Delta":91245677},{"NoteNumber":63,"Velocity":40,"Duration":406015,"SoundDuration":406015,"Delta":91245677},{"NoteNumber":48,"Velocity":23,"Duration":451127,"SoundDuration":451127,"Delta":91245677},{"NoteNumber":53,"Velocity":28,"Duration":406015,"SoundDuration":406015,"Delta":91245677},{"NoteNumber":58,"Velocity":35,"Duration":390071,"SoundDuration":390071,"Delta":91696805},{"NoteNumber":62,"Velocity":46,"Duration":390071,"SoundDuration":390071,"Delta":91696805},{"NoteNumber":46,"Velocity":26,"Duration":390071,"SoundDuration":390071,"Delta":91696805},{"NoteNumber":53,"Velocity":31,"Duration":390071,"SoundDuration":390071,"Delta":91696805},{"NoteNumber":69,"Velocity":34,"Duration":431654,"SoundDuration":431654,"Delta":92122337},{"NoteNumber":72,"Velocity":47,"Duration":431654,"SoundDuration":431654,"Delta":92122337},{"NoteNumber":53,"Velocity":27,"Duration":413668,"SoundDuration":413668,"Delta":92122337},{"NoteNumber":65,"Velocity":32,"Duration":431654,"SoundDuration":431654,"Delta":92122337},{"NoteNumber":70,"Velocity":34,"Duration":422794,"SoundDuration":422794,"Delta":92553992},{"NoteNumber":74,"Velocity":43,"Duration":441176,"SoundDuration":441176,"Delta":92553992},{"NoteNumber":58,"Velocity":23,"Duration":422794,"SoundDuration":422794,"Delta":92553992},{"NoteNumber":65,"Velocity":28,"Duration":441176,"SoundDuration":441176,"Delta":92553992},{"NoteNumber":69,"Velocity":31,"Duration":400000,"SoundDuration":400000,"Delta":92995168},{"NoteNumber":75,"Velocity":40,"Duration":400000,"SoundDuration":400000,"Delta":92995168},{"NoteNumber":60,"Velocity":23,"Duration":444444,"SoundDuration":444444,"Delta":92995168},{"NoteNumber":65,"Velocity":28,"Duration":400000,"SoundDuration":400000,"Delta":92995168},{"NoteNumber":70,"Velocity":35,"Duration":390071,"SoundDuration":390071,"Delta":93439613},{"NoteNumber":74,"Velocity":46,"Duration":390071,"SoundDuration":390071,"Delta":93439613},{"NoteNumber":58,"Velocity":26,"Duration":390071,"SoundDuration":390071,"Delta":93439613},{"NoteNumber":65,"Velocity":31,"Duration":390071,"SoundDuration":390071,"Delta":93439613},{"NoteNumber":57,"Velocity":51,"Duration":385714,"SoundDuration":385714,"Delta":93865145},{"NoteNumber":60,"Velocity":61,"Duration":385714,"SoundDuration":385714,"Delta":93865145},{"NoteNumber":41,"Velocity":41,"Duration":385714,"SoundDuration":385714,"Delta":93865145},{"NoteNumber":53,"Velocity":49,"Duration":854497,"SoundDuration":854497,"Delta":93865145},{"NoteNumber":58,"Velocity":49,"Duration":400000,"SoundDuration":400000,"Delta":94293716},{"NoteNumber":62,"Velocity":58,"Duration":400000,"SoundDuration":400000,"Delta":94293716},{"NoteNumber":46,"Velocity":45,"Duration":400000,"SoundDuration":400000,"Delta":94293716},{"NoteNumber":57,"Velocity":57,"Duration":412213,"SoundDuration":412213,"Delta":94738161},{"NoteNumber":65,"Velocity":68,"Duration":229007,"SoundDuration":229007,"Delta":94738161},{"NoteNumber":48,"Velocity":45,"Duration":412213,"SoundDuration":412213,"Delta":94738161},{"NoteNumber":53,"Velocity":53,"Duration":934206,"SoundDuration":934206,"Delta":94738161},{"NoteNumber":63,"Velocity":65,"Duration":229007,"SoundDuration":229007,"Delta":94967169},{"NoteNumber":58,"Velocity":53,"Duration":456349,"SoundDuration":456349,"Delta":95196176},{"NoteNumber":62,"Velocity":63,"Duration":456349,"SoundDuration":456349,"Delta":95196176},{"NoteNumber":46,"Velocity":46,"Duration":456349,"SoundDuration":456349,"Delta":95196176},{"NoteNumber":53,"Velocity":52,"Duration":402984,"SoundDuration":402984,"Delta":95672367},{"NoteNumber":56,"Velocity":52,"Duration":402984,"SoundDuration":402984,"Delta":95672367},{"NoteNumber":62,"Velocity":62,"Duration":402984,"SoundDuration":402984,"Delta":95672367},{"NoteNumber":46,"Velocity":47,"Duration":402984,"SoundDuration":402984,"Delta":95672367},{"NoteNumber":53,"Velocity":56,"Duration":412213,"SoundDuration":412213,"Delta":96120128},{"NoteNumber":57,"Velocity":56,"Duration":412213,"SoundDuration":412213,"Delta":96120128},{"NoteNumber":62,"Velocity":66,"Duration":412213,"SoundDuration":412213,"Delta":96120128},{"NoteNumber":45,"Velocity":50,"Duration":412213,"SoundDuration":412213,"Delta":96120128},{"NoteNumber":62,"Velocity":69,"Duration":446281,"SoundDuration":446281,"Delta":96578143},{"NoteNumber":52,"Velocity":58,"Duration":446281,"SoundDuration":446281,"Delta":96578143},{"NoteNumber":59,"Velocity":58,"Duration":446281,"SoundDuration":446281,"Delta":96578143},{"NoteNumber":44,"Velocity":53,"Duration":446281,"SoundDuration":446281,"Delta":96578143},{"NoteNumber":62,"Velocity":66,"Duration":247934,"SoundDuration":247934,"Delta":97074011},{"NoteNumber":52,"Velocity":56,"Duration":495868,"SoundDuration":495868,"Delta":97074011},{"NoteNumber":57,"Velocity":56,"Duration":495868,"SoundDuration":495868,"Delta":97074011},{"NoteNumber":45,"Velocity":51,"Duration":495868,"SoundDuration":495868,"Delta":97074011},{"NoteNumber":61,"Velocity":64,"Duration":247934,"SoundDuration":247934,"Delta":97321945},{"NoteNumber":54,"Velocity":59,"Duration":245901,"SoundDuration":245901,"Delta":97569879},{"NoteNumber":59,"Velocity":70,"Duration":245901,"SoundDuration":245901,"Delta":97569879},{"NoteNumber":38,"Velocity":47,"Duration":491803,"SoundDuration":491803,"Delta":97569879},{"NoteNumber":50,"Velocity":56,"Duration":491803,"SoundDuration":491803,"Delta":97569879},{"NoteNumber":66,"Velocity":68,"Duration":245901,"SoundDuration":245901,"Delta":97815781},{"NoteNumber":52,"Velocity":62,"Duration":944882,"SoundDuration":944882,"Delta":98061683},{"NoteNumber":57,"Velocity":62,"Duration":944882,"SoundDuration":944882,"Delta":98061683},{"NoteNumber":61,"Velocity":74,"Duration":944882,"SoundDuration":944882,"Delta":98061683},{"NoteNumber":40,"Velocity":49,"Duration":944882,"SoundDuration":944882,"Delta":98061683},{"NoteNumber":49,"Velocity":59,"Duration":944882,"SoundDuration":944882,"Delta":98061683},{"NoteNumber":56,"Velocity":57,"Duration":1002812,"SoundDuration":1002812,"Delta":99006565},{"NoteNumber":61,"Velocity":68,"Duration":458015,"SoundDuration":458015,"Delta":99006565},{"NoteNumber":40,"Velocity":42,"Duration":1002812,"SoundDuration":1002812,"Delta":99006565},{"NoteNumber":50,"Velocity":50,"Duration":1002812,"SoundDuration":1002812,"Delta":99006565},{"NoteNumber":59,"Velocity":61,"Duration":386902,"SoundDuration":386902,"Delta":99464580},{"NoteNumber":57,"Velocity":57,"Duration":157894,"SoundDuration":157894,"Delta":99851483},{"NoteNumber":49,"Velocity":44,"Duration":983516,"SoundDuration":983516,"Delta":100009378},{"NoteNumber":57,"Velocity":52,"Duration":769230,"SoundDuration":769230,"Delta":100009378},{"NoteNumber":33,"Velocity":34,"Duration":1394475,"SoundDuration":1394475,"Delta":100009378},{"NoteNumber":45,"Velocity":41,"Duration":1394475,"SoundDuration":1394475,"Delta":100009378},{"NoteNumber":61,"Velocity":51,"Duration":214285,"SoundDuration":214285,"Delta":100778608},{"NoteNumber":64,"Velocity":58,"Duration":205479,"SoundDuration":205479,"Delta":100992894},{"NoteNumber":69,"Velocity":51,"Duration":205479,"SoundDuration":205479,"Delta":101198374},{"NoteNumber":73,"Velocity":56,"Duration":209790,"SoundDuration":209790,"Delta":101403853},{"NoteNumber":64,"Velocity":39,"Duration":419580,"SoundDuration":419580,"Delta":101403853},{"NoteNumber":57,"Velocity":33,"Duration":419580,"SoundDuration":419580,"Delta":101403853},{"NoteNumber":76,"Velocity":52,"Duration":209790,"SoundDuration":209790,"Delta":101613643},{"NoteNumber":74,"Velocity":51,"Duration":385714,"SoundDuration":385714,"Delta":101823434},{"NoteNumber":78,"Velocity":60,"Duration":385714,"SoundDuration":385714,"Delta":101823434},{"NoteNumber":66,"Velocity":41,"Duration":385714,"SoundDuration":385714,"Delta":101823434},{"NoteNumber":57,"Velocity":34,"Duration":385714,"SoundDuration":385714,"Delta":101823434},{"NoteNumber":72,"Velocity":45,"Duration":439024,"SoundDuration":439024,"Delta":102252005},{"NoteNumber":75,"Velocity":54,"Duration":439024,"SoundDuration":439024,"Delta":102252005},{"NoteNumber":63,"Velocity":38,"Duration":439024,"SoundDuration":439024,"Delta":102252005},{"NoteNumber":57,"Velocity":32,"Duration":439024,"SoundDuration":439024,"Delta":102252005},{"NoteNumber":73,"Velocity":47,"Duration":1285714,"SoundDuration":1285714,"Delta":102739810},{"NoteNumber":76,"Velocity":56,"Duration":1285714,"SoundDuration":1285714,"Delta":102739810},{"NoteNumber":64,"Velocity":41,"Duration":1285714,"SoundDuration":1285714,"Delta":102739810},{"NoteNumber":57,"Velocity":34,"Duration":1285714,"SoundDuration":1285714,"Delta":102739810},{"NoteNumber":73,"Velocity":50,"Duration":848320,"SoundDuration":848320,"Delta":104025525},{"NoteNumber":76,"Velocity":50,"Duration":848320,"SoundDuration":848320,"Delta":104025525},{"NoteNumber":81,"Velocity":66,"Duration":431654,"SoundDuration":431654,"Delta":104025525},{"NoteNumber":57,"Velocity":40,"Duration":848320,"SoundDuration":848320,"Delta":104025525},{"NoteNumber":64,"Velocity":40,"Duration":848320,"SoundDuration":848320,"Delta":104025525},{"NoteNumber":69,"Velocity":49,"Duration":431654,"SoundDuration":431654,"Delta":104025525},{"NoteNumber":83,"Velocity":68,"Duration":416666,"SoundDuration":416666,"Delta":104457179},{"NoteNumber":71,"Velocity":51,"Duration":416666,"SoundDuration":416666,"Delta":104457179},{"NoteNumber":73,"Velocity":56,"Duration":495412,"SoundDuration":495412,"Delta":104873846},{"NoteNumber":77,"Velocity":56,"Duration":495412,"SoundDuration":495412,"Delta":104873846},{"NoteNumber":85,"Velocity":73,"Duration":495412,"SoundDuration":495412,"Delta":104873846},{"NoteNumber":57,"Velocity":45,"Duration":495412,"SoundDuration":495412,"Delta":104873846},{"NoteNumber":65,"Velocity":45,"Duration":495412,"SoundDuration":495412,"Delta":104873846},{"NoteNumber":69,"Velocity":54,"Duration":495412,"SoundDuration":495412,"Delta":104873846},{"NoteNumber":74,"Velocity":45,"Duration":1407834,"SoundDuration":1407834,"Delta":105424304},{"NoteNumber":78,"Velocity":54,"Duration":1407834,"SoundDuration":1407834,"Delta":105424304},{"NoteNumber":85,"Velocity":71,"Duration":916031,"SoundDuration":916031,"Delta":105424304},{"NoteNumber":62,"Velocity":34,"Duration":1407834,"SoundDuration":1407834,"Delta":105424304},{"NoteNumber":66,"Velocity":42,"Duration":1407834,"SoundDuration":1407834,"Delta":105424304},{"NoteNumber":70,"Velocity":50,"Duration":916031,"SoundDuration":916031,"Delta":105424304},{"NoteNumber":83,"Velocity":52,"Duration":491803,"SoundDuration":491803,"Delta":106340335},{"NoteNumber":71,"Velocity":44,"Duration":491803,"SoundDuration":491803,"Delta":106340335},{"NoteNumber":62,"Velocity":40,"Duration":882782,"SoundDuration":882782,"Delta":106832139},{"NoteNumber":69,"Velocity":56,"Duration":431654,"SoundDuration":431654,"Delta":106832139},{"NoteNumber":50,"Velocity":32,"Duration":431654,"SoundDuration":431654,"Delta":106832139},{"NoteNumber":54,"Velocity":38,"Duration":431654,"SoundDuration":431654,"Delta":106832139},{"NoteNumber":68,"Velocity":51,"Duration":451127,"SoundDuration":451127,"Delta":107263793},{"NoteNumber":52,"Velocity":28,"Duration":451127,"SoundDuration":451127,"Delta":107263793},{"NoteNumber":56,"Velocity":34,"Duration":451127,"SoundDuration":451127,"Delta":107263793},{"NoteNumber":62,"Velocity":37,"Duration":432000,"SoundDuration":432000,"Delta":107714921},{"NoteNumber":66,"Velocity":48,"Duration":432000,"SoundDuration":432000,"Delta":107714921},{"NoteNumber":54,"Velocity":28,"Duration":432000,"SoundDuration":432000,"Delta":107714921},{"NoteNumber":57,"Velocity":34,"Duration":432000,"SoundDuration":432000,"Delta":107714921},{"NoteNumber":62,"Velocity":42,"Duration":1258865,"SoundDuration":1258865,"Delta":108194921},{"NoteNumber":64,"Velocity":50,"Duration":1258865,"SoundDuration":1258865,"Delta":108194921},{"NoteNumber":44,"Velocity":31,"Duration":1258865,"SoundDuration":1258865,"Delta":108194921},{"NoteNumber":52,"Velocity":37,"Duration":1258865,"SoundDuration":1258865,"Delta":108194921},{"NoteNumber":74,"Velocity":48,"Duration":236220,"SoundDuration":236220,"Delta":109471517},{"NoteNumber":76,"Velocity":57,"Duration":216535,"SoundDuration":216535,"Delta":109471517},{"NoteNumber":56,"Velocity":39,"Duration":421405,"SoundDuration":421405,"Delta":109471517},{"NoteNumber":64,"Velocity":46,"Duration":421405,"SoundDuration":421405,"Delta":109471517},{"NoteNumber":76,"Velocity":46,"Duration":61728,"SoundDuration":61728,"Delta":109707738},{"NoteNumber":78,"Velocity":46,"Duration":61728,"SoundDuration":61728,"Delta":109769466},{"NoteNumber":80,"Velocity":46,"Duration":61728,"SoundDuration":61728,"Delta":109831195},{"NoteNumber":74,"Velocity":48,"Duration":385714,"SoundDuration":385714,"Delta":109892923},{"NoteNumber":78,"Velocity":57,"Duration":385714,"SoundDuration":385714,"Delta":109892923},{"NoteNumber":56,"Velocity":35,"Duration":385714,"SoundDuration":385714,"Delta":109892923},{"NoteNumber":66,"Velocity":42,"Duration":385714,"SoundDuration":385714,"Delta":109892923},{"NoteNumber":74,"Velocity":40,"Duration":453781,"SoundDuration":453781,"Delta":110321494},{"NoteNumber":76,"Velocity":48,"Duration":453781,"SoundDuration":453781,"Delta":110321494},{"NoteNumber":56,"Velocity":33,"Duration":453781,"SoundDuration":453781,"Delta":110321494},{"NoteNumber":64,"Velocity":40,"Duration":453781,"SoundDuration":453781,"Delta":110321494},{"NoteNumber":74,"Velocity":48,"Duration":902255,"SoundDuration":902255,"Delta":110825696},{"NoteNumber":78,"Velocity":57,"Duration":902255,"SoundDuration":902255,"Delta":110825696},{"NoteNumber":57,"Velocity":39,"Duration":1402255,"SoundDuration":1402255,"Delta":110825696},{"NoteNumber":66,"Velocity":46,"Duration":902255,"SoundDuration":902255,"Delta":110825696},{"NoteNumber":73,"Velocity":42,"Duration":479166,"SoundDuration":479166,"Delta":111727952},{"NoteNumber":76,"Velocity":50,"Duration":479166,"SoundDuration":479166,"Delta":111727952},{"NoteNumber":64,"Velocity":41,"Duration":479166,"SoundDuration":479166,"Delta":111727952},{"NoteNumber":59,"Velocity":63,"Duration":454545,"SoundDuration":454545,"Delta":112227952},{"NoteNumber":61,"Velocity":75,"Duration":435606,"SoundDuration":435606,"Delta":112227952},{"NoteNumber":47,"Velocity":48,"Duration":454545,"SoundDuration":454545,"Delta":112227952},{"NoteNumber":49,"Velocity":57,"Duration":454545,"SoundDuration":454545,"Delta":112227952},{"NoteNumber":57,"Velocity":68,"Duration":441176,"SoundDuration":441176,"Delta":112682497},{"NoteNumber":61,"Velocity":68,"Duration":397058,"SoundDuration":397058,"Delta":112682497},{"NoteNumber":66,"Velocity":81,"Duration":397058,"SoundDuration":397058,"Delta":112682497},{"NoteNumber":49,"Velocity":51,"Duration":422794,"SoundDuration":422794,"Delta":112682497},{"NoteNumber":45,"Velocity":51,"Duration":397058,"SoundDuration":397058,"Delta":112682497},{"NoteNumber":54,"Velocity":61,"Duration":397058,"SoundDuration":397058,"Delta":112682497},{"NoteNumber":59,"Velocity":61,"Duration":517241,"SoundDuration":517241,"Delta":113123674},{"NoteNumber":61,"Velocity":61,"Duration":465517,"SoundDuration":465517,"Delta":113123674},{"NoteNumber":65,"Velocity":72,"Duration":465517,"SoundDuration":465517,"Delta":113123674},{"NoteNumber":49,"Velocity":45,"Duration":517241,"SoundDuration":517241,"Delta":113123674},{"NoteNumber":44,"Velocity":45,"Duration":465517,"SoundDuration":465517,"Delta":113123674},{"NoteNumber":53,"Velocity":53,"Duration":465517,"SoundDuration":465517,"Delta":113123674},{"NoteNumber":57,"Velocity":66,"Duration":1607143,"SoundDuration":1607143,"Delta":113640915},{"NoteNumber":62,"Velocity":66,"Duration":1584822,"SoundDuration":1584822,"Delta":113640915},{"NoteNumber":66,"Velocity":78,"Duration":1584822,"SoundDuration":1584822,"Delta":113640915},{"NoteNumber":50,"Velocity":56,"Duration":1607143,"SoundDuration":1607143,"Delta":113640915},{"NoteNumber":42,"Velocity":56,"Duration":1607143,"SoundDuration":1607143,"Delta":113640915},{"NoteNumber":45,"Velocity":56,"Duration":1584822,"SoundDuration":1584822,"Delta":113640915},{"NoteNumber":54,"Velocity":66,"Duration":1584822,"SoundDuration":1584822,"Delta":113640915},{"NoteNumber":69,"Velocity":55,"Duration":434782,"SoundDuration":434782,"Delta":115248059},{"NoteNumber":54,"Velocity":44,"Duration":434782,"SoundDuration":434782,"Delta":115248059},{"NoteNumber":57,"Velocity":44,"Duration":834087,"SoundDuration":834087,"Delta":115248059},{"NoteNumber":67,"Velocity":63,"Duration":416666,"SoundDuration":416666,"Delta":115682841},{"NoteNumber":71,"Velocity":63,"Duration":416666,"SoundDuration":416666,"Delta":115682841},{"NoteNumber":52,"Velocity":49,"Duration":416666,"SoundDuration":416666,"Delta":115682841},{"NoteNumber":67,"Velocity":56,"Duration":495412,"SoundDuration":495412,"Delta":116099508},{"NoteNumber":69,"Velocity":56,"Duration":495412,"SoundDuration":495412,"Delta":116099508},{"NoteNumber":73,"Velocity":56,"Duration":495412,"SoundDuration":495412,"Delta":116099508},{"NoteNumber":57,"Velocity":45,"Duration":495412,"SoundDuration":495412,"Delta":116099508},{"NoteNumber":73,"Velocity":58,"Duration":2465754,"SoundDuration":2465754,"Delta":116649966},{"NoteNumber":67,"Velocity":58,"Duration":2876713,"SoundDuration":2876713,"Delta":116649966},{"NoteNumber":70,"Velocity":58,"Duration":2465754,"SoundDuration":2465754,"Delta":116649966},{"NoteNumber":76,"Velocity":69,"Duration":2465754,"SoundDuration":2465754,"Delta":116649966},{"NoteNumber":50,"Velocity":48,"Duration":2876713,"SoundDuration":2876713,"Delta":116649966},{"NoteNumber":58,"Velocity":48,"Duration":2465754,"SoundDuration":2465754,"Delta":116649966},{"NoteNumber":61,"Velocity":57,"Duration":2465754,"SoundDuration":2465754,"Delta":116649966},{"NoteNumber":71,"Velocity":47,"Duration":410959,"SoundDuration":410959,"Delta":119115720},{"NoteNumber":74,"Velocity":56,"Duration":410959,"SoundDuration":410959,"Delta":119115720},{"NoteNumber":62,"Velocity":39,"Duration":410959,"SoundDuration":410959,"Delta":119115720},{"NoteNumber":59,"Velocity":33,"Duration":410959,"SoundDuration":410959,"Delta":119115720},{"NoteNumber":62,"Velocity":36,"Duration":3282895,"SoundDuration":3282895,"Delta":121581474},{"NoteNumber":66,"Velocity":36,"Duration":2857363,"SoundDuration":2857363,"Delta":121581474},{"NoteNumber":72,"Velocity":56,"Duration":1267605,"SoundDuration":1267605,"Delta":121581474},{"NoteNumber":50,"Velocity":29,"Duration":2857363,"SoundDuration":2857363,"Delta":121581474},{"NoteNumber":57,"Velocity":29,"Duration":2857363,"SoundDuration":2857363,"Delta":121581474},{"NoteNumber":74,"Velocity":45,"Duration":98684,"SoundDuration":98684,"Delta":122849079},{"NoteNumber":72,"Velocity":42,"Duration":98684,"SoundDuration":98684,"Delta":122947764},{"NoteNumber":71,"Velocity":45,"Duration":98684,"SoundDuration":98684,"Delta":123046448},{"NoteNumber":72,"Velocity":42,"Duration":132743,"SoundDuration":132743,"Delta":123145132},{"NoteNumber":71,"Velocity":53,"Duration":260869,"SoundDuration":260869,"Delta":123277876},{"NoteNumber":72,"Velocity":49,"Duration":260869,"SoundDuration":260869,"Delta":123538745},{"NoteNumber":76,"Velocity":56,"Duration":277777,"SoundDuration":277777,"Delta":123799615},{"NoteNumber":74,"Velocity":50,"Duration":361445,"SoundDuration":361445,"Delta":124077392},{"NoteNumber":67,"Velocity":40,"Duration":425532,"SoundDuration":425532,"Delta":124438838},{"NoteNumber":71,"Velocity":46,"Duration":425532,"SoundDuration":425532,"Delta":124438838},{"NoteNumber":43,"Velocity":29,"Duration":425532,"SoundDuration":425532,"Delta":124438838},{"NoteNumber":55,"Velocity":32,"Duration":425532,"SoundDuration":425532,"Delta":124438838},{"NoteNumber":71,"Velocity":53,"Duration":106382,"SoundDuration":106382,"Delta":125609051},{"NoteNumber":67,"Velocity":59,"Duration":431654,"SoundDuration":431654,"Delta":125715434},{"NoteNumber":62,"Velocity":59,"Duration":830959,"SoundDuration":830959,"Delta":125715434},{"NoteNumber":74,"Velocity":69,"Duration":431654,"SoundDuration":431654,"Delta":125715434},{"NoteNumber":47,"Velocity":57,"Duration":431654,"SoundDuration":431654,"Delta":125715434},{"NoteNumber":69,"Velocity":59,"Duration":416666,"SoundDuration":416666,"Delta":126147089},{"NoteNumber":73,"Velocity":78,"Duration":416666,"SoundDuration":416666,"Delta":126147089},{"NoteNumber":45,"Velocity":54,"Duration":416666,"SoundDuration":416666,"Delta":126147089},{"NoteNumber":49,"Velocity":61,"Duration":416666,"SoundDuration":416666,"Delta":126147089},{"NoteNumber":62,"Velocity":61,"Duration":495412,"SoundDuration":495412,"Delta":126563755},{"NoteNumber":71,"Velocity":72,"Duration":495412,"SoundDuration":495412,"Delta":126563755},{"NoteNumber":43,"Velocity":52,"Duration":495412,"SoundDuration":495412,"Delta":126563755},{"NoteNumber":50,"Velocity":62,"Duration":495412,"SoundDuration":495412,"Delta":126563755},{"NoteNumber":62,"Velocity":67,"Duration":1387342,"SoundDuration":1387342,"Delta":127114214},{"NoteNumber":69,"Velocity":79,"Duration":1387342,"SoundDuration":1387342,"Delta":127114214},{"NoteNumber":42,"Velocity":59,"Duration":1407834,"SoundDuration":1407834,"Delta":127114214},{"NoteNumber":50,"Velocity":70,"Duration":1407834,"SoundDuration":1407834,"Delta":127114214},{"NoteNumber":62,"Velocity":56,"Duration":431654,"SoundDuration":431654,"Delta":128522048},{"NoteNumber":69,"Velocity":66,"Duration":431654,"SoundDuration":431654,"Delta":128522048},{"NoteNumber":54,"Velocity":29,"Duration":413668,"SoundDuration":413668,"Delta":128522048},{"NoteNumber":57,"Velocity":41,"Duration":863985,"SoundDuration":863985,"Delta":128522048},{"NoteNumber":64,"Velocity":58,"Duration":432331,"SoundDuration":432331,"Delta":128953703},{"NoteNumber":68,"Velocity":69,"Duration":451128,"SoundDuration":451128,"Delta":128953703},{"NoteNumber":52,"Velocity":25,"Duration":432331,"SoundDuration":432331,"Delta":128953703},{"NoteNumber":56,"Velocity":37,"Duration":451128,"SoundDuration":451128,"Delta":128953703},{"NoteNumber":66,"Velocity":75,"Duration":431999,"SoundDuration":431999,"Delta":129404831},{"NoteNumber":50,"Velocity":38,"Duration":431999,"SoundDuration":431999,"Delta":129404831},{"NoteNumber":57,"Velocity":47,"Duration":431999,"SoundDuration":431999,"Delta":129404831},{"NoteNumber":64,"Velocity":66,"Duration":451128,"SoundDuration":451128,"Delta":129884831},{"NoteNumber":49,"Velocity":42,"Duration":451128,"SoundDuration":451128,"Delta":129884831},{"NoteNumber":57,"Velocity":50,"Duration":451128,"SoundDuration":451128,"Delta":129884831},{"NoteNumber":63,"Velocity":62,"Duration":508474,"SoundDuration":508474,"Delta":130335959},{"NoteNumber":69,"Velocity":74,"Duration":508474,"SoundDuration":508474,"Delta":130335959},{"NoteNumber":54,"Velocity":40,"Duration":508474,"SoundDuration":508474,"Delta":130335959},{"NoteNumber":59,"Velocity":48,"Duration":508474,"SoundDuration":508474,"Delta":130335959},{"NoteNumber":57,"Velocity":40,"Duration":508474,"SoundDuration":508474,"Delta":130335959},{"NoteNumber":64,"Velocity":67,"Duration":960000,"SoundDuration":960000,"Delta":130844433},{"NoteNumber":69,"Velocity":67,"Duration":960000,"SoundDuration":960000,"Delta":130844433},{"NoteNumber":73,"Velocity":80,"Duration":960000,"SoundDuration":960000,"Delta":130844433},{"NoteNumber":57,"Velocity":46,"Duration":960000,"SoundDuration":960000,"Delta":130844433},{"NoteNumber":52,"Velocity":46,"Duration":939999,"SoundDuration":939999,"Delta":130844433},{"NoteNumber":61,"Velocity":54,"Duration":960000,"SoundDuration":960000,"Delta":130844433},{"NoteNumber":64,"Velocity":64,"Duration":1053494,"SoundDuration":1053494,"Delta":131804433},{"NoteNumber":62,"Velocity":64,"Duration":1053494,"SoundDuration":1053494,"Delta":131804433},{"NoteNumber":68,"Velocity":64,"Duration":1053494,"SoundDuration":1053494,"Delta":131804433},{"NoteNumber":73,"Velocity":76,"Duration":737705,"SoundDuration":737705,"Delta":131804433},{"NoteNumber":52,"Velocity":47,"Duration":1027178,"SoundDuration":1027178,"Delta":131804433},{"NoteNumber":40,"Velocity":39,"Duration":1053494,"SoundDuration":1053494,"Delta":131804433},{"NoteNumber":71,"Velocity":69,"Duration":315789,"SoundDuration":315789,"Delta":132542138},{"NoteNumber":64,"Velocity":50,"Duration":1428571,"SoundDuration":1428571,"Delta":132857928},{"NoteNumber":61,"Velocity":50,"Duration":1428571,"SoundDuration":1428571,"Delta":132857928},{"NoteNumber":69,"Velocity":59,"Duration":1428571,"SoundDuration":1428571,"Delta":132857928},{"NoteNumber":45,"Velocity":28,"Duration":1428571,"SoundDuration":1428571,"Delta":132857928},{"NoteNumber":52,"Velocity":40,"Duration":1428571,"SoundDuration":1428571,"Delta":132857928},{"NoteNumber":69,"Velocity":76,"Duration":476190,"SoundDuration":476190,"Delta":134286499},{"NoteNumber":66,"Velocity":68,"Duration":214285,"SoundDuration":214285,"Delta":134762690},{"NoteNumber":74,"Velocity":81,"Duration":214285,"SoundDuration":214285,"Delta":134762690},{"NoteNumber":74,"Velocity":75,"Duration":446843,"SoundDuration":446843,"Delta":135000785},{"NoteNumber":66,"Velocity":63,"Duration":446843,"SoundDuration":446843,"Delta":135000785},{"NoteNumber":57,"Velocity":66,"Duration":232558,"SoundDuration":232558,"Delta":135215071},{"NoteNumber":69,"Velocity":64,"Duration":232558,"SoundDuration":232558,"Delta":135447629},{"NoteNumber":76,"Velocity":76,"Duration":232558,"SoundDuration":232558,"Delta":135447629},{"NoteNumber":61,"Velocity":61,"Duration":232558,"SoundDuration":232558,"Delta":135447629},{"NoteNumber":74,"Velocity":73,"Duration":431140,"SoundDuration":431140,"Delta":135680187},{"NoteNumber":78,"Velocity":86,"Duration":431140,"SoundDuration":431140,"Delta":135680187},{"NoteNumber":62,"Velocity":66,"Duration":247933,"SoundDuration":247933,"Delta":135680187},{"NoteNumber":50,"Velocity":77,"Duration":489877,"SoundDuration":489877,"Delta":135928121},{"NoteNumber":74,"Velocity":72,"Duration":720172,"SoundDuration":720172,"Delta":136157129},{"NoteNumber":78,"Velocity":85,"Duration":720172,"SoundDuration":720172,"Delta":136157129},{"NoteNumber":38,"Velocity":59,"Duration":232558,"SoundDuration":232558,"Delta":136417999},{"NoteNumber":50,"Velocity":65,"Duration":232558,"SoundDuration":232558,"Delta":136650557},{"NoteNumber":74,"Velocity":73,"Duration":465116,"SoundDuration":465116,"Delta":136883115},{"NoteNumber":78,"Velocity":86,"Duration":465116,"SoundDuration":465116,"Delta":136883115},{"NoteNumber":57,"Velocity":73,"Duration":232558,"SoundDuration":232558,"Delta":137115673},{"NoteNumber":69,"Velocity":61,"Duration":232558,"SoundDuration":232558,"Delta":137348232},{"NoteNumber":76,"Velocity":73,"Duration":232558,"SoundDuration":232558,"Delta":137348232},{"NoteNumber":61,"Velocity":61,"Duration":232558,"SoundDuration":232558,"Delta":137348232},{"NoteNumber":66,"Velocity":65,"Duration":209302,"SoundDuration":209302,"Delta":137580790},{"NoteNumber":74,"Velocity":77,"Duration":209302,"SoundDuration":209302,"Delta":137580790},{"NoteNumber":59,"Velocity":65,"Duration":232558,"SoundDuration":232558,"Delta":137580790},{"NoteNumber":71,"Velocity":73,"Duration":464866,"SoundDuration":464866,"Delta":137813348},{"NoteNumber":74,"Velocity":86,"Duration":464866,"SoundDuration":464866,"Delta":137813348},{"NoteNumber":54,"Velocity":71,"Duration":252100,"SoundDuration":252100,"Delta":138026114},{"NoteNumber":66,"Velocity":64,"Duration":230769,"SoundDuration":230769,"Delta":138278215},{"NoteNumber":73,"Velocity":76,"Duration":230769,"SoundDuration":230769,"Delta":138278215},{"NoteNumber":57,"Velocity":63,"Duration":230769,"SoundDuration":230769,"Delta":138278215},{"NoteNumber":62,"Velocity":68,"Duration":452100,"SoundDuration":452100,"Delta":138508984},{"NoteNumber":71,"Velocity":80,"Duration":452100,"SoundDuration":452100,"Delta":138508984},{"NoteNumber":55,"Velocity":65,"Duration":252100,"SoundDuration":252100,"Delta":138508984},{"NoteNumber":43,"Velocity":74,"Duration":480769,"SoundDuration":480769,"Delta":138761085},{"NoteNumber":62,"Velocity":73,"Duration":923077,"SoundDuration":923077,"Delta":139011085},{"NoteNumber":71,"Velocity":86,"Duration":923077,"SoundDuration":923077,"Delta":139011085},{"NoteNumber":31,"Velocity":65,"Duration":230769,"SoundDuration":230769,"Delta":139241854},{"NoteNumber":43,"Velocity":65,"Duration":230769,"SoundDuration":230769,"Delta":139472623},{"NoteNumber":47,"Velocity":58,"Duration":230769,"SoundDuration":230769,"Delta":139703393},{"NoteNumber":71,"Velocity":76,"Duration":476190,"SoundDuration":476190,"Delta":139934162},{"NoteNumber":43,"Velocity":61,"Duration":238095,"SoundDuration":238095,"Delta":139934162},{"NoteNumber":42,"Velocity":64,"Duration":238095,"SoundDuration":238095,"Delta":140172257},{"NoteNumber":67,"Velocity":68,"Duration":214285,"SoundDuration":214285,"Delta":140410352},{"NoteNumber":76,"Velocity":81,"Duration":214285,"SoundDuration":214285,"Delta":140410352},{"NoteNumber":40,"Velocity":68,"Duration":238095,"SoundDuration":238095,"Delta":140410352},{"NoteNumber":76,"Velocity":75,"Duration":435260,"SoundDuration":435260,"Delta":140648448},{"NoteNumber":67,"Velocity":63,"Duration":435260,"SoundDuration":435260,"Delta":140648448},{"NoteNumber":59,"Velocity":66,"Duration":232558,"SoundDuration":232558,"Delta":140851150},{"NoteNumber":71,"Velocity":64,"Duration":232558,"SoundDuration":232558,"Delta":141083709},{"NoteNumber":78,"Velocity":76,"Duration":232558,"SoundDuration":232558,"Delta":141083709},{"NoteNumber":63,"Velocity":61,"Duration":232558,"SoundDuration":232558,"Delta":141083709},{"NoteNumber":76,"Velocity":73,"Duration":446364,"SoundDuration":446364,"Delta":141316267},{"NoteNumber":79,"Velocity":86,"Duration":446364,"SoundDuration":446364,"Delta":141316267},{"NoteNumber":64,"Velocity":66,"Duration":263158,"SoundDuration":263158,"Delta":141316267},{"NoteNumber":52,"Velocity":77,"Duration":489877,"SoundDuration":489877,"Delta":141579425},{"NoteNumber":76,"Velocity":72,"Duration":720172,"SoundDuration":720172,"Delta":141808433},{"NoteNumber":79,"Velocity":85,"Duration":720172,"SoundDuration":720172,"Delta":141808433},{"NoteNumber":40,"Velocity":59,"Duration":232558,"SoundDuration":232558,"Delta":142069302},{"NoteNumber":52,"Velocity":65,"Duration":232558,"SoundDuration":232558,"Delta":142301860},{"NoteNumber":76,"Velocity":73,"Duration":465116,"SoundDuration":465116,"Delta":142534419},{"NoteNumber":79,"Velocity":86,"Duration":465116,"SoundDuration":465116,"Delta":142534419},{"NoteNumber":59,"Velocity":73,"Duration":232558,"SoundDuration":232558,"Delta":142766977},{"NoteNumber":71,"Velocity":61,"Duration":232558,"SoundDuration":232558,"Delta":142999535},{"NoteNumber":78,"Velocity":73,"Duration":232558,"SoundDuration":232558,"Delta":142999535},{"NoteNumber":62,"Velocity":62,"Duration":232558,"SoundDuration":232558,"Delta":142999535},{"NoteNumber":67,"Velocity":65,"Duration":201492,"SoundDuration":201492,"Delta":143232093},{"NoteNumber":76,"Velocity":77,"Duration":201492,"SoundDuration":201492,"Delta":143232093},{"NoteNumber":61,"Velocity":65,"Duration":223880,"SoundDuration":223880,"Delta":143232093},{"NoteNumber":73,"Velocity":73,"Duration":431743,"SoundDuration":431743,"Delta":143455974},{"NoteNumber":76,"Velocity":86,"Duration":431743,"SoundDuration":431743,"Delta":143455974},{"NoteNumber":56,"Velocity":71,"Duration":218977,"SoundDuration":218977,"Delta":143668740},{"NoteNumber":68,"Velocity":64,"Duration":230769,"SoundDuration":230769,"Delta":143887718},{"NoteNumber":74,"Velocity":76,"Duration":230769,"SoundDuration":230769,"Delta":143887718},{"NoteNumber":59,"Velocity":63,"Duration":230769,"SoundDuration":230769,"Delta":143887718},{"NoteNumber":64,"Velocity":68,"Duration":228813,"SoundDuration":228813,"Delta":144118487},{"NoteNumber":73,"Velocity":80,"Duration":228813,"SoundDuration":228813,"Delta":144118487},{"NoteNumber":57,"Velocity":65,"Duration":254237,"SoundDuration":254237,"Delta":144118487},{"NoteNumber":45,"Velocity":74,"Duration":480769,"SoundDuration":480769,"Delta":144372724},{"NoteNumber":64,"Velocity":73,"Duration":686538,"SoundDuration":686538,"Delta":144622724},{"NoteNumber":73,"Velocity":86,"Duration":686538,"SoundDuration":686538,"Delta":144622724},{"NoteNumber":33,"Velocity":65,"Duration":230769,"SoundDuration":230769,"Delta":144853494},{"NoteNumber":45,"Velocity":70,"Duration":695885,"SoundDuration":695885,"Delta":145084263},{"NoteNumber":69,"Velocity":73,"Duration":461240,"SoundDuration":461240,"Delta":145315032},{"NoteNumber":73,"Velocity":86,"Duration":465116,"SoundDuration":465116,"Delta":145315032},{"NoteNumber":57,"Velocity":73,"Duration":232558,"SoundDuration":232558,"Delta":145547590},{"NoteNumber":69,"Velocity":61,"Duration":456438,"SoundDuration":456438,"Delta":145780149},{"NoteNumber":74,"Velocity":73,"Duration":232558,"SoundDuration":232558,"Delta":145780149},{"NoteNumber":47,"Velocity":58,"Duration":232558,"SoundDuration":232558,"Delta":145780149},{"NoteNumber":57,"Velocity":58,"Duration":456438,"SoundDuration":456438,"Delta":145780149},{"NoteNumber":59,"Velocity":65,"Duration":232558,"SoundDuration":232558,"Delta":145780149},{"NoteNumber":64,"Velocity":65,"Duration":201492,"SoundDuration":201492,"Delta":146012707},{"NoteNumber":76,"Velocity":77,"Duration":201492,"SoundDuration":201492,"Delta":146012707},{"NoteNumber":49,"Velocity":55,"Duration":223880,"SoundDuration":223880,"Delta":146012707},{"NoteNumber":61,"Velocity":65,"Duration":223880,"SoundDuration":223880,"Delta":146012707},{"NoteNumber":66,"Velocity":73,"Duration":431743,"SoundDuration":431743,"Delta":146236587},{"NoteNumber":74,"Velocity":73,"Duration":431743,"SoundDuration":431743,"Delta":146236587},{"NoteNumber":78,"Velocity":86,"Duration":431743,"SoundDuration":431743,"Delta":146236587},{"NoteNumber":50,"Velocity":63,"Duration":431743,"SoundDuration":431743,"Delta":146236587},{"NoteNumber":62,"Velocity":71,"Duration":218977,"SoundDuration":218977,"Delta":146449353},{"NoteNumber":74,"Velocity":64,"Duration":230769,"SoundDuration":230769,"Delta":146668331},{"NoteNumber":67,"Velocity":64,"Duration":230769,"SoundDuration":230769,"Delta":146668331},{"NoteNumber":79,"Velocity":76,"Duration":230769,"SoundDuration":230769,"Delta":146668331},{"NoteNumber":62,"Velocity":61,"Duration":230769,"SoundDuration":230769,"Delta":146668331},{"NoteNumber":52,"Velocity":61,"Duration":230769,"SoundDuration":230769,"Delta":146668331},{"NoteNumber":64,"Velocity":63,"Duration":230769,"SoundDuration":230769,"Delta":146668331},{"NoteNumber":69,"Velocity":68,"Duration":252100,"SoundDuration":252100,"Delta":146899101},{"NoteNumber":74,"Velocity":68,"Duration":226890,"SoundDuration":226890,"Delta":146899101},{"NoteNumber":81,"Velocity":80,"Duration":226890,"SoundDuration":226890,"Delta":146899101},{"NoteNumber":54,"Velocity":55,"Duration":252100,"SoundDuration":252100,"Delta":146899101},{"NoteNumber":62,"Velocity":55,"Duration":252100,"SoundDuration":252100,"Delta":146899101},{"NoteNumber":66,"Velocity":65,"Duration":252100,"SoundDuration":252100,"Delta":146899101},{"NoteNumber":69,"Velocity":73,"Duration":679821,"SoundDuration":679821,"Delta":147401201},{"NoteNumber":74,"Velocity":73,"Duration":679821,"SoundDuration":679821,"Delta":147401201},{"NoteNumber":81,"Velocity":86,"Duration":679821,"SoundDuration":679821,"Delta":147401201},{"NoteNumber":54,"Velocity":62,"Duration":679821,"SoundDuration":679821,"Delta":147401201},{"NoteNumber":62,"Velocity":62,"Duration":679821,"SoundDuration":679821,"Delta":147401201},{"NoteNumber":66,"Velocity":74,"Duration":679821,"SoundDuration":679821,"Delta":147401201},{"NoteNumber":74,"Velocity":70,"Duration":220149,"SoundDuration":220149,"Delta":148086620},{"NoteNumber":81,"Velocity":83,"Duration":220149,"SoundDuration":220149,"Delta":148086620},{"NoteNumber":66,"Velocity":71,"Duration":223880,"SoundDuration":223880,"Delta":148086620},{"NoteNumber":54,"Velocity":60,"Duration":223880,"SoundDuration":223880,"Delta":148086620},{"NoteNumber":74,"Velocity":73,"Duration":212230,"SoundDuration":212230,"Delta":148310501},{"NoteNumber":78,"Velocity":73,"Duration":212230,"SoundDuration":212230,"Delta":148310501},{"NoteNumber":86,"Velocity":86,"Duration":212230,"SoundDuration":212230,"Delta":148310501},{"NoteNumber":69,"Velocity":74,"Duration":215827,"SoundDuration":215827,"Delta":148310501},{"NoteNumber":57,"Velocity":62,"Duration":215827,"SoundDuration":215827,"Delta":148310501},{"NoteNumber":74,"Velocity":69,"Duration":212230,"SoundDuration":212230,"Delta":148526328},{"NoteNumber":81,"Velocity":82,"Duration":212230,"SoundDuration":212230,"Delta":148526328},{"NoteNumber":66,"Velocity":70,"Duration":215827,"SoundDuration":215827,"Delta":148526328},{"NoteNumber":54,"Velocity":59,"Duration":215827,"SoundDuration":215827,"Delta":148526328},{"NoteNumber":74,"Velocity":73,"Duration":212230,"SoundDuration":212230,"Delta":148742155},{"NoteNumber":78,"Velocity":86,"Duration":212230,"SoundDuration":212230,"Delta":148742155},{"NoteNumber":50,"Velocity":62,"Duration":215827,"SoundDuration":215827,"Delta":148742155},{"NoteNumber":62,"Velocity":74,"Duration":215827,"SoundDuration":215827,"Delta":148742155},{"NoteNumber":74,"Velocity":83,"Duration":212230,"SoundDuration":212230,"Delta":148957983},{"NoteNumber":49,"Velocity":58,"Duration":215827,"SoundDuration":215827,"Delta":148957983},{"NoteNumber":61,"Velocity":68,"Duration":215827,"SoundDuration":215827,"Delta":148957983},{"NoteNumber":74,"Velocity":70,"Duration":225190,"SoundDuration":225190,"Delta":149173810},{"NoteNumber":78,"Velocity":83,"Duration":225190,"SoundDuration":225190,"Delta":149173810},{"NoteNumber":47,"Velocity":60,"Duration":229007,"SoundDuration":229007,"Delta":149173810},{"NoteNumber":59,"Velocity":71,"Duration":229007,"SoundDuration":229007,"Delta":149173810},{"NoteNumber":74,"Velocity":70,"Duration":229007,"SoundDuration":229007,"Delta":149402818},{"NoteNumber":81,"Velocity":83,"Duration":229007,"SoundDuration":229007,"Delta":149402818},{"NoteNumber":78,"Velocity":70,"Duration":229007,"SoundDuration":229007,"Delta":149402818},{"NoteNumber":45,"Velocity":58,"Duration":229007,"SoundDuration":229007,"Delta":149402818},{"NoteNumber":57,"Velocity":68,"Duration":229007,"SoundDuration":229007,"Delta":149402818},{"NoteNumber":79,"Velocity":68,"Duration":258620,"SoundDuration":258620,"Delta":149631825},{"NoteNumber":71,"Velocity":68,"Duration":258620,"SoundDuration":258620,"Delta":149631825},{"NoteNumber":74,"Velocity":68,"Duration":232758,"SoundDuration":232758,"Delta":149631825},{"NoteNumber":83,"Velocity":80,"Duration":232758,"SoundDuration":232758,"Delta":149631825},{"NoteNumber":43,"Velocity":55,"Duration":258620,"SoundDuration":258620,"Delta":149631825},{"NoteNumber":50,"Velocity":55,"Duration":258620,"SoundDuration":258620,"Delta":149631825},{"NoteNumber":55,"Velocity":65,"Duration":258620,"SoundDuration":258620,"Delta":149631825},{"NoteNumber":79,"Velocity":73,"Duration":679821,"SoundDuration":679821,"Delta":150140446},{"NoteNumber":71,"Velocity":73,"Duration":679821,"SoundDuration":679821,"Delta":150140446},{"NoteNumber":74,"Velocity":73,"Duration":679821,"SoundDuration":679821,"Delta":150140446},{"NoteNumber":83,"Velocity":86,"Duration":679821,"SoundDuration":679821,"Delta":150140446},{"NoteNumber":43,"Velocity":62,"Duration":679821,"SoundDuration":679821,"Delta":150140446},{"NoteNumber":50,"Velocity":62,"Duration":679821,"SoundDuration":679821,"Delta":150140446},{"NoteNumber":55,"Velocity":74,"Duration":679821,"SoundDuration":679821,"Delta":150140446},{"NoteNumber":71,"Velocity":77,"Duration":439707,"SoundDuration":439707,"Delta":150825865},{"NoteNumber":74,"Velocity":77,"Duration":436110,"SoundDuration":436110,"Delta":150825865},{"NoteNumber":83,"Velocity":91,"Duration":439707,"SoundDuration":439707,"Delta":150825865},{"NoteNumber":50,"Velocity":71,"Duration":223880,"SoundDuration":223880,"Delta":150825865},{"NoteNumber":43,"Velocity":60,"Duration":223880,"SoundDuration":223880,"Delta":150825865},{"NoteNumber":55,"Velocity":82,"Duration":215827,"SoundDuration":215827,"Delta":151049746},{"NoteNumber":69,"Velocity":69,"Duration":215827,"SoundDuration":215827,"Delta":151265573},{"NoteNumber":74,"Velocity":69,"Duration":215827,"SoundDuration":215827,"Delta":151265573},{"NoteNumber":81,"Velocity":82,"Duration":215827,"SoundDuration":215827,"Delta":151265573},{"NoteNumber":50,"Velocity":59,"Duration":215827,"SoundDuration":215827,"Delta":151265573},{"NoteNumber":54,"Velocity":70,"Duration":215827,"SoundDuration":215827,"Delta":151265573},{"NoteNumber":42,"Velocity":59,"Duration":215827,"SoundDuration":215827,"Delta":151265573},{"NoteNumber":71,"Velocity":73,"Duration":205035,"SoundDuration":205035,"Delta":151481400},{"NoteNumber":74,"Velocity":73,"Duration":205035,"SoundDuration":205035,"Delta":151481400},{"NoteNumber":83,"Velocity":86,"Duration":205035,"SoundDuration":205035,"Delta":151481400},{"NoteNumber":43,"Velocity":62,"Duration":205035,"SoundDuration":205035,"Delta":151481400},{"NoteNumber":50,"Velocity":62,"Duration":205035,"SoundDuration":205035,"Delta":151481400},{"NoteNumber":55,"Velocity":74,"Duration":205035,"SoundDuration":205035,"Delta":151481400},{"NoteNumber":71,"Velocity":83,"Duration":444834,"SoundDuration":444834,"Delta":151697227},{"NoteNumber":74,"Velocity":83,"Duration":444834,"SoundDuration":444834,"Delta":151697227},{"NoteNumber":83,"Velocity":83,"Duration":444834,"SoundDuration":444834,"Delta":151697227},{"NoteNumber":43,"Velocity":60,"Duration":444834,"SoundDuration":444834,"Delta":151697227},{"NoteNumber":50,"Velocity":71,"Duration":215827,"SoundDuration":215827,"Delta":151697227},{"NoteNumber":55,"Velocity":71,"Duration":229007,"SoundDuration":229007,"Delta":151913055},{"NoteNumber":72,"Velocity":70,"Duration":229007,"SoundDuration":229007,"Delta":152142062},{"NoteNumber":84,"Velocity":83,"Duration":229007,"SoundDuration":229007,"Delta":152142062},{"NoteNumber":74,"Velocity":70,"Duration":229007,"SoundDuration":229007,"Delta":152142062},{"NoteNumber":50,"Velocity":67,"Duration":229007,"SoundDuration":229007,"Delta":152142062},{"NoteNumber":45,"Velocity":65,"Duration":229007,"SoundDuration":229007,"Delta":152142062},{"NoteNumber":57,"Velocity":71,"Duration":229007,"SoundDuration":229007,"Delta":152142062},{"NoteNumber":71,"Velocity":68,"Duration":258620,"SoundDuration":258620,"Delta":152371070},{"NoteNumber":74,"Velocity":68,"Duration":232758,"SoundDuration":232758,"Delta":152371070},{"NoteNumber":83,"Velocity":80,"Duration":232758,"SoundDuration":232758,"Delta":152371070},{"NoteNumber":43,"Velocity":55,"Duration":258620,"SoundDuration":258620,"Delta":152371070},{"NoteNumber":50,"Velocity":55,"Duration":258620,"SoundDuration":258620,"Delta":152371070},{"NoteNumber":55,"Velocity":65,"Duration":258620,"SoundDuration":258620,"Delta":152371070},{"NoteNumber":71,"Velocity":73,"Duration":685418,"SoundDuration":685418,"Delta":152879691},{"NoteNumber":74,"Velocity":73,"Duration":685418,"SoundDuration":685418,"Delta":152879691},{"NoteNumber":83,"Velocity":86,"Duration":685418,"SoundDuration":685418,"Delta":152879691},{"NoteNumber":43,"Velocity":62,"Duration":685418,"SoundDuration":685418,"Delta":152879691},{"NoteNumber":50,"Velocity":62,"Duration":685418,"SoundDuration":685418,"Delta":152879691},{"NoteNumber":55,"Velocity":74,"Duration":685418,"SoundDuration":685418,"Delta":152879691},{"NoteNumber":67,"Velocity":70,"Duration":220149,"SoundDuration":220149,"Delta":153565110},{"NoteNumber":74,"Velocity":83,"Duration":220149,"SoundDuration":220149,"Delta":153565110},{"NoteNumber":59,"Velocity":71,"Duration":223880,"SoundDuration":223880,"Delta":153565110},{"NoteNumber":47,"Velocity":60,"Duration":223880,"SoundDuration":223880,"Delta":153565110},{"NoteNumber":67,"Velocity":73,"Duration":212230,"SoundDuration":212230,"Delta":153788990},{"NoteNumber":71,"Velocity":73,"Duration":212230,"SoundDuration":212230,"Delta":153788990},{"NoteNumber":79,"Velocity":86,"Duration":212230,"SoundDuration":212230,"Delta":153788990},{"NoteNumber":62,"Velocity":74,"Duration":215827,"SoundDuration":215827,"Delta":153788990},{"NoteNumber":50,"Velocity":62,"Duration":215827,"SoundDuration":215827,"Delta":153788990},{"NoteNumber":67,"Velocity":69,"Duration":212230,"SoundDuration":212230,"Delta":154004818},{"NoteNumber":74,"Velocity":82,"Duration":212230,"SoundDuration":212230,"Delta":154004818},{"NoteNumber":59,"Velocity":70,"Duration":215827,"SoundDuration":215827,"Delta":154004818},{"NoteNumber":47,"Velocity":59,"Duration":215827,"SoundDuration":215827,"Delta":154004818},{"NoteNumber":67,"Velocity":73,"Duration":212230,"SoundDuration":212230,"Delta":154220645},{"NoteNumber":71,"Velocity":86,"Duration":212230,"SoundDuration":212230,"Delta":154220645},{"NoteNumber":43,"Velocity":62,"Duration":215827,"SoundDuration":215827,"Delta":154220645},{"NoteNumber":55,"Velocity":74,"Duration":215827,"SoundDuration":215827,"Delta":154220645},{"NoteNumber":67,"Velocity":69,"Duration":212230,"SoundDuration":212230,"Delta":154436472},{"NoteNumber":74,"Velocity":78,"Duration":212230,"SoundDuration":212230,"Delta":154436472},{"NoteNumber":47,"Velocity":58,"Duration":215827,"SoundDuration":215827,"Delta":154436472},{"NoteNumber":59,"Velocity":68,"Duration":215827,"SoundDuration":215827,"Delta":154436472},{"NoteNumber":71,"Velocity":70,"Duration":225190,"SoundDuration":225190,"Delta":154652299},{"NoteNumber":67,"Velocity":70,"Duration":225190,"SoundDuration":225190,"Delta":154652299},{"NoteNumber":79,"Velocity":83,"Duration":225190,"SoundDuration":225190,"Delta":154652299},{"NoteNumber":43,"Velocity":60,"Duration":229007,"SoundDuration":229007,"Delta":154652299},{"NoteNumber":55,"Velocity":71,"Duration":229007,"SoundDuration":229007,"Delta":154652299},{"NoteNumber":69,"Velocity":70,"Duration":229007,"SoundDuration":229007,"Delta":154881307},{"NoteNumber":81,"Velocity":83,"Duration":229007,"SoundDuration":229007,"Delta":154881307},{"NoteNumber":74,"Velocity":70,"Duration":229007,"SoundDuration":229007,"Delta":154881307},{"NoteNumber":42,"Velocity":58,"Duration":229007,"SoundDuration":229007,"Delta":154881307},{"NoteNumber":54,"Velocity":68,"Duration":229007,"SoundDuration":229007,"Delta":154881307},{"NoteNumber":79,"Velocity":68,"Duration":260869,"SoundDuration":260869,"Delta":155110315},{"NoteNumber":71,"Velocity":68,"Duration":260869,"SoundDuration":260869,"Delta":155110315},{"NoteNumber":83,"Velocity":80,"Duration":234782,"SoundDuration":234782,"Delta":155110315},{"NoteNumber":40,"Velocity":55,"Duration":260869,"SoundDuration":260869,"Delta":155110315},{"NoteNumber":47,"Velocity":55,"Duration":260869,"SoundDuration":260869,"Delta":155110315},{"NoteNumber":52,"Velocity":65,"Duration":260869,"SoundDuration":260869,"Delta":155110315},{"NoteNumber":79,"Velocity":73,"Duration":679821,"SoundDuration":679821,"Delta":155621184},{"NoteNumber":71,"Velocity":73,"Duration":679821,"SoundDuration":679821,"Delta":155621184},{"NoteNumber":83,"Velocity":86,"Duration":679821,"SoundDuration":679821,"Delta":155621184},{"NoteNumber":40,"Velocity":62,"Duration":679821,"SoundDuration":679821,"Delta":155621184},{"NoteNumber":47,"Velocity":62,"Duration":679821,"SoundDuration":679821,"Delta":155621184},{"NoteNumber":52,"Velocity":74,"Duration":679821,"SoundDuration":679821,"Delta":155621184},{"NoteNumber":79,"Velocity":78,"Duration":436063,"SoundDuration":436063,"Delta":156306603},{"NoteNumber":83,"Velocity":78,"Duration":436063,"SoundDuration":436063,"Delta":156306603},{"NoteNumber":91,"Velocity":92,"Duration":436063,"SoundDuration":436063,"Delta":156306603},{"NoteNumber":40,"Velocity":55,"Duration":436063,"SoundDuration":436063,"Delta":156306603},{"NoteNumber":47,"Velocity":55,"Duration":436063,"SoundDuration":436063,"Delta":156306603},{"NoteNumber":52,"Velocity":65,"Duration":436063,"SoundDuration":436063,"Delta":156306603},{"NoteNumber":79,"Velocity":83,"Duration":230769,"SoundDuration":230769,"Delta":156763500},{"NoteNumber":83,"Velocity":83,"Duration":230769,"SoundDuration":230769,"Delta":156763500},{"NoteNumber":91,"Velocity":98,"Duration":230769,"SoundDuration":230769,"Delta":156763500},{"NoteNumber":40,"Velocity":62,"Duration":230769,"SoundDuration":230769,"Delta":156763500},{"NoteNumber":47,"Velocity":62,"Duration":230769,"SoundDuration":230769,"Delta":156763500},{"NoteNumber":52,"Velocity":74,"Duration":230769,"SoundDuration":230769,"Delta":156763500},{"NoteNumber":79,"Velocity":68,"Duration":263158,"SoundDuration":263158,"Delta":156994269},{"NoteNumber":73,"Velocity":68,"Duration":263158,"SoundDuration":263158,"Delta":156994269},{"NoteNumber":85,"Velocity":80,"Duration":236842,"SoundDuration":236842,"Delta":156994269},{"NoteNumber":45,"Velocity":55,"Duration":263158,"SoundDuration":263158,"Delta":156994269},{"NoteNumber":52,"Velocity":55,"Duration":263158,"SoundDuration":263158,"Delta":156994269},{"NoteNumber":57,"Velocity":65,"Duration":263158,"SoundDuration":263158,"Delta":156994269},{"NoteNumber":79,"Velocity":73,"Duration":692307,"SoundDuration":692307,"Delta":157507427},{"NoteNumber":73,"Velocity":73,"Duration":692307,"SoundDuration":692307,"Delta":157507427},{"NoteNumber":85,"Velocity":86,"Duration":692307,"SoundDuration":692307,"Delta":157507427},{"NoteNumber":45,"Velocity":62,"Duration":692307,"SoundDuration":692307,"Delta":157507427},{"NoteNumber":52,"Velocity":62,"Duration":692307,"SoundDuration":692307,"Delta":157507427},{"NoteNumber":57,"Velocity":74,"Duration":692307,"SoundDuration":692307,"Delta":157507427},{"NoteNumber":74,"Velocity":78,"Duration":436063,"SoundDuration":436063,"Delta":158199735},{"NoteNumber":78,"Velocity":78,"Duration":436063,"SoundDuration":436063,"Delta":158199735},{"NoteNumber":86,"Velocity":92,"Duration":436063,"SoundDuration":436063,"Delta":158199735},{"NoteNumber":38,"Velocity":55,"Duration":436063,"SoundDuration":436063,"Delta":158199735},{"NoteNumber":45,"Velocity":55,"Duration":436063,"SoundDuration":436063,"Delta":158199735},{"NoteNumber":50,"Velocity":65,"Duration":436063,"SoundDuration":436063,"Delta":158199735},{"NoteNumber":74,"Velocity":83,"Duration":230769,"SoundDuration":230769,"Delta":158656631},{"NoteNumber":78,"Velocity":83,"Duration":230769,"SoundDuration":230769,"Delta":158656631},{"NoteNumber":86,"Velocity":98,"Duration":230769,"SoundDuration":230769,"Delta":158656631},{"NoteNumber":38,"Velocity":62,"Duration":230769,"SoundDuration":230769,"Delta":158656631},{"NoteNumber":45,"Velocity":62,"Duration":230769,"SoundDuration":230769,"Delta":158656631},{"NoteNumber":50,"Velocity":74,"Duration":230769,"SoundDuration":230769,"Delta":158656631},{"NoteNumber":66,"Velocity":68,"Duration":267857,"SoundDuration":267857,"Delta":158887401},{"NoteNumber":62,"Velocity":68,"Duration":267857,"SoundDuration":267857,"Delta":158887401},{"NoteNumber":74,"Velocity":80,"Duration":241071,"SoundDuration":241071,"Delta":158887401},{"NoteNumber":50,"Velocity":55,"Duration":267857,"SoundDuration":267857,"Delta":158887401},{"NoteNumber":57,"Velocity":65,"Duration":267857,"SoundDuration":267857,"Delta":158887401},{"NoteNumber":66,"Velocity":73,"Duration":1626982,"SoundDuration":1626982,"Delta":159420745},{"NoteNumber":62,"Velocity":73,"Duration":1626982,"SoundDuration":1626982,"Delta":159420745},{"NoteNumber":74,"Velocity":86,"Duration":1626982,"SoundDuration":1626982,"Delta":159420745},{"NoteNumber":50,"Velocity":62,"Duration":1626982,"SoundDuration":1626982,"Delta":159420745},{"NoteNumber":57,"Velocity":74,"Duration":1626982,"SoundDuration":1626982,"Delta":159420745},{"NoteNumber":62,"Velocity":37,"Duration":250836,"SoundDuration":250836,"Delta":161047728},{"NoteNumber":59,"Velocity":37,"Duration":264084,"SoundDuration":264084,"Delta":161298564},{"NoteNumber":67,"Velocity":37,"Duration":264084,"SoundDuration":264084,"Delta":161298564},{"NoteNumber":62,"Velocity":37,"Duration":278810,"SoundDuration":278810,"Delta":161562648},{"NoteNumber":69,"Velocity":37,"Duration":278810,"SoundDuration":278810,"Delta":161562648},{"NoteNumber":67,"Velocity":34,"Duration":232758,"SoundDuration":232758,"Delta":161841459},{"NoteNumber":71,"Velocity":40,"Duration":232758,"SoundDuration":232758,"Delta":161841459},{"NoteNumber":43,"Velocity":32,"Duration":250000,"SoundDuration":250000,"Delta":162100079},{"NoteNumber":67,"Velocity":39,"Duration":689898,"SoundDuration":689898,"Delta":162350079},{"NoteNumber":71,"Velocity":47,"Duration":689898,"SoundDuration":689898,"Delta":162350079},{"NoteNumber":50,"Velocity":35,"Duration":238853,"SoundDuration":238853,"Delta":162350079},{"NoteNumber":43,"Velocity":32,"Duration":682526,"SoundDuration":682526,"Delta":162588933},{"NoteNumber":50,"Velocity":36,"Duration":443672,"SoundDuration":443672,"Delta":162827786},{"NoteNumber":62,"Velocity":35,"Duration":227623,"SoundDuration":227623,"Delta":163059268},{"NoteNumber":69,"Velocity":41,"Duration":227623,"SoundDuration":227623,"Delta":163059268},{"NoteNumber":67,"Velocity":36,"Duration":219167,"SoundDuration":219167,"Delta":163290749},{"NoteNumber":71,"Velocity":43,"Duration":219167,"SoundDuration":219167,"Delta":163290749},{"NoteNumber":50,"Velocity":37,"Duration":1356348,"SoundDuration":1356348,"Delta":163290749},{"NoteNumber":43,"Velocity":31,"Duration":1356348,"SoundDuration":1356348,"Delta":163290749},{"NoteNumber":69,"Velocity":34,"Duration":219167,"SoundDuration":219167,"Delta":163513632},{"NoteNumber":74,"Velocity":41,"Duration":219167,"SoundDuration":219167,"Delta":163513632},{"NoteNumber":67,"Velocity":36,"Duration":219167,"SoundDuration":219167,"Delta":163736514},{"NoteNumber":71,"Velocity":43,"Duration":219167,"SoundDuration":219167,"Delta":163736514},{"NoteNumber":62,"Velocity":38,"Duration":219167,"SoundDuration":219167,"Delta":163959397},{"NoteNumber":69,"Velocity":38,"Duration":219167,"SoundDuration":219167,"Delta":163959397},{"NoteNumber":67,"Velocity":35,"Duration":225880,"SoundDuration":225880,"Delta":164182279},{"NoteNumber":71,"Velocity":41,"Duration":225880,"SoundDuration":225880,"Delta":164182279},{"NoteNumber":69,"Velocity":38,"Duration":235109,"SoundDuration":235109,"Delta":164411988},{"NoteNumber":74,"Velocity":38,"Duration":235109,"SoundDuration":235109,"Delta":164411988},{"NoteNumber":67,"Velocity":34,"Duration":214968,"SoundDuration":214968,"Delta":164647098},{"NoteNumber":71,"Velocity":40,"Duration":214968,"SoundDuration":214968,"Delta":164647098},{"NoteNumber":43,"Velocity":32,"Duration":235109,"SoundDuration":235109,"Delta":164885952},{"NoteNumber":67,"Velocity":39,"Duration":678754,"SoundDuration":678754,"Delta":165121061},{"NoteNumber":71,"Velocity":47,"Duration":678754,"SoundDuration":678754,"Delta":165121061},{"NoteNumber":50,"Velocity":35,"Duration":233281,"SoundDuration":233281,"Delta":165121061},{"NoteNumber":43,"Velocity":32,"Duration":676954,"SoundDuration":676954,"Delta":165354343},{"NoteNumber":50,"Velocity":36,"Duration":443672,"SoundDuration":443672,"Delta":165587624},{"NoteNumber":62,"Velocity":35,"Duration":227623,"SoundDuration":227623,"Delta":165819106},{"NoteNumber":69,"Velocity":41,"Duration":227623,"SoundDuration":227623,"Delta":165819106},{"NoteNumber":67,"Velocity":37,"Duration":219167,"SoundDuration":219167,"Delta":166050587},{"NoteNumber":71,"Velocity":44,"Duration":219167,"SoundDuration":219167,"Delta":166050587},{"NoteNumber":50,"Velocity":38,"Duration":1373339,"SoundDuration":1373339,"Delta":166050587},{"NoteNumber":43,"Velocity":31,"Duration":668647,"SoundDuration":668647,"Delta":166050587},{"NoteNumber":69,"Velocity":35,"Duration":219167,"SoundDuration":219167,"Delta":166273470},{"NoteNumber":74,"Velocity":43,"Duration":219167,"SoundDuration":219167,"Delta":166273470},{"NoteNumber":67,"Velocity":38,"Duration":219167,"SoundDuration":219167,"Delta":166496352},{"NoteNumber":71,"Velocity":46,"Duration":219167,"SoundDuration":219167,"Delta":166496352},{"NoteNumber":62,"Velocity":41,"Duration":219167,"SoundDuration":219167,"Delta":166719235},{"NoteNumber":69,"Velocity":41,"Duration":219167,"SoundDuration":219167,"Delta":166719235},{"NoteNumber":42,"Velocity":32,"Duration":222882,"SoundDuration":222882,"Delta":166719235},{"NoteNumber":67,"Velocity":38,"Duration":225880,"SoundDuration":225880,"Delta":166942117},{"NoteNumber":71,"Velocity":45,"Duration":225880,"SoundDuration":225880,"Delta":166942117},{"NoteNumber":40,"Velocity":35,"Duration":229709,"SoundDuration":229709,"Delta":166942117},{"NoteNumber":69,"Velocity":42,"Duration":252100,"SoundDuration":252100,"Delta":167171826},{"NoteNumber":74,"Velocity":42,"Duration":252100,"SoundDuration":252100,"Delta":167171826},{"NoteNumber":38,"Velocity":39,"Duration":252100,"SoundDuration":252100,"Delta":167171826},{"NoteNumber":72,"Velocity":39,"Duration":232758,"SoundDuration":232758,"Delta":167423927},{"NoteNumber":76,"Velocity":46,"Duration":232758,"SoundDuration":232758,"Delta":167423927},{"NoteNumber":36,"Velocity":36,"Duration":250000,"SoundDuration":250000,"Delta":167682548},{"NoteNumber":76,"Velocity":49,"Duration":689898,"SoundDuration":689898,"Delta":167932548},{"NoteNumber":72,"Velocity":41,"Duration":689898,"SoundDuration":689898,"Delta":167932548},{"NoteNumber":43,"Velocity":40,"Duration":238853,"SoundDuration":238853,"Delta":167932548},{"NoteNumber":36,"Velocity":36,"Duration":682526,"SoundDuration":682526,"Delta":168171401},{"NoteNumber":43,"Velocity":41,"Duration":443672,"SoundDuration":443672,"Delta":168410255},{"NoteNumber":67,"Velocity":40,"Duration":225694,"SoundDuration":225694,"Delta":168641736},{"NoteNumber":74,"Velocity":47,"Duration":227623,"SoundDuration":227623,"Delta":168641736},{"NoteNumber":72,"Velocity":41,"Duration":217310,"SoundDuration":217310,"Delta":168873218},{"NoteNumber":76,"Velocity":49,"Duration":219167,"SoundDuration":219167,"Delta":168873218},{"NoteNumber":43,"Velocity":42,"Duration":1356348,"SoundDuration":1356348,"Delta":168873218},{"NoteNumber":36,"Velocity":35,"Duration":1356348,"SoundDuration":1356348,"Delta":168873218},{"NoteNumber":67,"Velocity":39,"Duration":217310,"SoundDuration":217310,"Delta":169096100},{"NoteNumber":74,"Velocity":47,"Duration":219167,"SoundDuration":219167,"Delta":169096100},{"NoteNumber":64,"Velocity":41,"Duration":219167,"SoundDuration":219167,"Delta":169318983},{"NoteNumber":72,"Velocity":49,"Duration":217310,"SoundDuration":217310,"Delta":169318983},{"NoteNumber":62,"Velocity":43,"Duration":219167,"SoundDuration":219167,"Delta":169541865},{"NoteNumber":67,"Velocity":43,"Duration":217310,"SoundDuration":217310,"Delta":169541865},{"NoteNumber":64,"Velocity":40,"Duration":225880,"SoundDuration":225880,"Delta":169764748},{"NoteNumber":72,"Velocity":47,"Duration":223966,"SoundDuration":223966,"Delta":169764748},{"NoteNumber":67,"Velocity":43,"Duration":235109,"SoundDuration":235109,"Delta":169994457},{"NoteNumber":77,"Velocity":43,"Duration":235109,"SoundDuration":235109,"Delta":169994457},{"NoteNumber":72,"Velocity":39,"Duration":232758,"SoundDuration":232758,"Delta":170229567},{"NoteNumber":76,"Velocity":46,"Duration":232758,"SoundDuration":232758,"Delta":170229567},{"NoteNumber":36,"Velocity":36,"Duration":250000,"SoundDuration":250000,"Delta":170488187},{"NoteNumber":76,"Velocity":49,"Duration":689898,"SoundDuration":689898,"Delta":170738187},{"NoteNumber":72,"Velocity":41,"Duration":689898,"SoundDuration":689898,"Delta":170738187},{"NoteNumber":43,"Velocity":40,"Duration":238853,"SoundDuration":238853,"Delta":170738187},{"NoteNumber":36,"Velocity":36,"Duration":682526,"SoundDuration":682526,"Delta":170977041},{"NoteNumber":43,"Velocity":41,"Duration":443672,"SoundDuration":443672,"Delta":171215894},{"NoteNumber":72,"Velocity":45,"Duration":225694,"SoundDuration":225694,"Delta":171447376},{"NoteNumber":76,"Velocity":53,"Duration":227623,"SoundDuration":227623,"Delta":171447376},{"NoteNumber":76,"Velocity":49,"Duration":217310,"SoundDuration":217310,"Delta":171678857},{"NoteNumber":79,"Velocity":58,"Duration":217310,"SoundDuration":217310,"Delta":171678857},{"NoteNumber":43,"Velocity":42,"Duration":891529,"SoundDuration":891529,"Delta":171678857},{"NoteNumber":36,"Velocity":35,"Duration":1356348,"SoundDuration":1356348,"Delta":171678857},{"NoteNumber":74,"Velocity":45,"Duration":217310,"SoundDuration":217310,"Delta":171901740},{"NoteNumber":78,"Velocity":54,"Duration":219167,"SoundDuration":219167,"Delta":171901740},{"NoteNumber":72,"Velocity":50,"Duration":217310,"SoundDuration":217310,"Delta":172124622},{"NoteNumber":76,"Velocity":59,"Duration":217310,"SoundDuration":217310,"Delta":172124622},{"NoteNumber":69,"Velocity":43,"Duration":219167,"SoundDuration":219167,"Delta":172347505},{"NoteNumber":72,"Velocity":51,"Duration":217310,"SoundDuration":217310,"Delta":172347505},{"NoteNumber":72,"Velocity":47,"Duration":223966,"SoundDuration":223966,"Delta":172570387},{"NoteNumber":76,"Velocity":56,"Duration":223966,"SoundDuration":223966,"Delta":172570387},{"NoteNumber":45,"Velocity":39,"Duration":464818,"SoundDuration":464818,"Delta":172570387},{"NoteNumber":69,"Velocity":43,"Duration":235109,"SoundDuration":235109,"Delta":172800096},{"NoteNumber":72,"Velocity":51,"Duration":235109,"SoundDuration":235109,"Delta":172800096},{"NoteNumber":66,"Velocity":39,"Duration":232758,"SoundDuration":232758,"Delta":173035206},{"NoteNumber":69,"Velocity":46,"Duration":232758,"SoundDuration":232758,"Delta":173035206},{"NoteNumber":36,"Velocity":36,"Duration":250000,"SoundDuration":250000,"Delta":173293827},{"NoteNumber":69,"Velocity":53,"Duration":689898,"SoundDuration":689898,"Delta":173543827},{"NoteNumber":66,"Velocity":45,"Duration":689898,"SoundDuration":689898,"Delta":173543827},{"NoteNumber":45,"Velocity":40,"Duration":238853,"SoundDuration":238853,"Delta":173543827},{"NoteNumber":36,"Velocity":36,"Duration":682526,"SoundDuration":682526,"Delta":173782680},{"NoteNumber":45,"Velocity":41,"Duration":443672,"SoundDuration":443672,"Delta":174021534},{"NoteNumber":66,"Velocity":45,"Duration":225694,"SoundDuration":225694,"Delta":174253015},{"NoteNumber":69,"Velocity":53,"Duration":227623,"SoundDuration":227623,"Delta":174253015},{"NoteNumber":69,"Velocity":49,"Duration":217310,"SoundDuration":217310,"Delta":174484497},{"NoteNumber":72,"Velocity":58,"Duration":217310,"SoundDuration":217310,"Delta":174484497},{"NoteNumber":45,"Velocity":42,"Duration":891529,"SoundDuration":891529,"Delta":174484497},{"NoteNumber":36,"Velocity":35,"Duration":891529,"SoundDuration":891529,"Delta":174484497},{"NoteNumber":67,"Velocity":45,"Duration":217310,"SoundDuration":217310,"Delta":174707379},{"NoteNumber":71,"Velocity":54,"Duration":219167,"SoundDuration":219167,"Delta":174707379},{"NoteNumber":66,"Velocity":50,"Duration":217310,"SoundDuration":217310,"Delta":174930262},{"NoteNumber":69,"Velocity":59,"Duration":217310,"SoundDuration":217310,"Delta":174930262},{"NoteNumber":67,"Velocity":43,"Duration":217310,"SoundDuration":217310,"Delta":175153144},{"NoteNumber":71,"Velocity":51,"Duration":217310,"SoundDuration":217310,"Delta":175153144},{"NoteNumber":66,"Velocity":47,"Duration":223966,"SoundDuration":223966,"Delta":175376027},{"NoteNumber":69,"Velocity":56,"Duration":223966,"SoundDuration":223966,"Delta":175376027},{"NoteNumber":48,"Velocity":35,"Duration":464818,"SoundDuration":464818,"Delta":175376027},{"NoteNumber":57,"Velocity":42,"Duration":464818,"SoundDuration":464818,"Delta":175376027},{"NoteNumber":64,"Velocity":43,"Duration":235109,"SoundDuration":235109,"Delta":175605736},{"NoteNumber":66,"Velocity":51,"Duration":235109,"SoundDuration":235109,"Delta":175605736},{"NoteNumber":63,"Velocity":39,"Duration":232758,"SoundDuration":232758,"Delta":175840846},{"NoteNumber":71,"Velocity":46,"Duration":232758,"SoundDuration":232758,"Delta":175840846},{"NoteNumber":47,"Velocity":36,"Duration":250000,"SoundDuration":250000,"Delta":176099466},{"NoteNumber":71,"Velocity":49,"Duration":689898,"SoundDuration":689898,"Delta":176349466},{"NoteNumber":63,"Velocity":41,"Duration":689898,"SoundDuration":689898,"Delta":176349466},{"NoteNumber":57,"Velocity":40,"Duration":238853,"SoundDuration":238853,"Delta":176349466},{"NoteNumber":47,"Velocity":36,"Duration":682526,"SoundDuration":682526,"Delta":176588320},{"NoteNumber":57,"Velocity":41,"Duration":443672,"SoundDuration":443672,"Delta":176827173},{"NoteNumber":66,"Velocity":45,"Duration":225694,"SoundDuration":225694,"Delta":177058655},{"NoteNumber":69,"Velocity":53,"Duration":227623,"SoundDuration":227623,"Delta":177058655},{"NoteNumber":69,"Velocity":49,"Duration":217310,"SoundDuration":217310,"Delta":177290136},{"NoteNumber":72,"Velocity":58,"Duration":217310,"SoundDuration":217310,"Delta":177290136},{"NoteNumber":57,"Velocity":42,"Duration":891529,"SoundDuration":891529,"Delta":177290136},{"NoteNumber":47,"Velocity":35,"Duration":891529,"SoundDuration":891529,"Delta":177290136},{"NoteNumber":67,"Velocity":45,"Duration":217310,"SoundDuration":217310,"Delta":177513019},{"NoteNumber":71,"Velocity":54,"Duration":219167,"SoundDuration":219167,"Delta":177513019},{"NoteNumber":66,"Velocity":50,"Duration":217310,"SoundDuration":217310,"Delta":177735901},{"NoteNumber":69,"Velocity":59,"Duration":217310,"SoundDuration":217310,"Delta":177735901},{"NoteNumber":67,"Velocity":43,"Duration":217310,"SoundDuration":217310,"Delta":177958784},{"NoteNumber":71,"Velocity":51,"Duration":217310,"SoundDuration":217310,"Delta":177958784},{"NoteNumber":66,"Velocity":47,"Duration":223966,"SoundDuration":223966,"Delta":178181666},{"NoteNumber":69,"Velocity":56,"Duration":223966,"SoundDuration":223966,"Delta":178181666},{"NoteNumber":48,"Velocity":35,"Duration":464818,"SoundDuration":464818,"Delta":178181666},{"NoteNumber":57,"Velocity":42,"Duration":464818,"SoundDuration":464818,"Delta":178181666},{"NoteNumber":64,"Velocity":43,"Duration":235109,"SoundDuration":235109,"Delta":178411375},{"NoteNumber":66,"Velocity":51,"Duration":235109,"SoundDuration":235109,"Delta":178411375},{"NoteNumber":63,"Velocity":39,"Duration":232758,"SoundDuration":232758,"Delta":178646485},{"NoteNumber":71,"Velocity":46,"Duration":232758,"SoundDuration":232758,"Delta":178646485},{"NoteNumber":47,"Velocity":36,"Duration":250000,"SoundDuration":250000,"Delta":178905106},{"NoteNumber":71,"Velocity":49,"Duration":689898,"SoundDuration":689898,"Delta":179155106},{"NoteNumber":63,"Velocity":41,"Duration":689898,"SoundDuration":689898,"Delta":179155106},{"NoteNumber":57,"Velocity":40,"Duration":238853,"SoundDuration":238853,"Delta":179155106},{"NoteNumber":47,"Velocity":36,"Duration":682526,"SoundDuration":682526,"Delta":179393959},{"NoteNumber":57,"Velocity":41,"Duration":443672,"SoundDuration":443672,"Delta":179632813},{"NoteNumber":66,"Velocity":45,"Duration":225694,"SoundDuration":225694,"Delta":179864294},{"NoteNumber":69,"Velocity":53,"Duration":227623,"SoundDuration":227623,"Delta":179864294},{"NoteNumber":69,"Velocity":49,"Duration":217310,"SoundDuration":217310,"Delta":180095776},{"NoteNumber":72,"Velocity":58,"Duration":217310,"SoundDuration":217310,"Delta":180095776},{"NoteNumber":57,"Velocity":42,"Duration":891529,"SoundDuration":891529,"Delta":180095776},{"NoteNumber":47,"Velocity":35,"Duration":891529,"SoundDuration":891529,"Delta":180095776},{"NoteNumber":67,"Velocity":45,"Duration":217310,"SoundDuration":217310,"Delta":180318658},{"NoteNumber":71,"Velocity":54,"Duration":219167,"SoundDuration":219167,"Delta":180318658},{"NoteNumber":66,"Velocity":50,"Duration":217310,"SoundDuration":217310,"Delta":180541541},{"NoteNumber":69,"Velocity":59,"Duration":217310,"SoundDuration":217310,"Delta":180541541},{"NoteNumber":67,"Velocity":43,"Duration":217310,"SoundDuration":217310,"Delta":180764423},{"NoteNumber":71,"Velocity":51,"Duration":217310,"SoundDuration":217310,"Delta":180764423},{"NoteNumber":66,"Velocity":47,"Duration":223966,"SoundDuration":223966,"Delta":180987306},{"NoteNumber":69,"Velocity":56,"Duration":223966,"SoundDuration":223966,"Delta":180987306},{"NoteNumber":48,"Velocity":35,"Duration":483946,"SoundDuration":483946,"Delta":180987306},{"NoteNumber":57,"Velocity":42,"Duration":483946,"SoundDuration":483946,"Delta":180987306},{"NoteNumber":64,"Velocity":43,"Duration":254237,"SoundDuration":254237,"Delta":181217015},{"NoteNumber":66,"Velocity":51,"Duration":254237,"SoundDuration":254237,"Delta":181217015},{"NoteNumber":63,"Velocity":39,"Duration":232758,"SoundDuration":232758,"Delta":181471252},{"NoteNumber":71,"Velocity":46,"Duration":232758,"SoundDuration":232758,"Delta":181471252},{"NoteNumber":47,"Velocity":36,"Duration":250000,"SoundDuration":250000,"Delta":181729873},{"NoteNumber":71,"Velocity":48,"Duration":943582,"SoundDuration":943582,"Delta":181979873},{"NoteNumber":63,"Velocity":40,"Duration":943582,"SoundDuration":943582,"Delta":181979873},{"NoteNumber":57,"Velocity":39,"Duration":244698,"SoundDuration":244698,"Delta":181979873},{"NoteNumber":47,"Velocity":35,"Duration":698884,"SoundDuration":698884,"Delta":182224571},{"NoteNumber":57,"Velocity":39,"Duration":454186,"SoundDuration":454186,"Delta":182469269},{"NoteNumber":63,"Velocity":46,"Duration":918835,"SoundDuration":918835,"Delta":182943203},{"NoteNumber":71,"Velocity":46,"Duration":918835,"SoundDuration":918835,"Delta":182943203},{"NoteNumber":57,"Velocity":39,"Duration":899693,"SoundDuration":899693,"Delta":182943203},{"NoteNumber":47,"Velocity":33,"Duration":899693,"SoundDuration":899693,"Delta":182943203},{"NoteNumber":63,"Velocity":45,"Duration":505901,"SoundDuration":505901,"Delta":183862039},{"NoteNumber":71,"Velocity":45,"Duration":505901,"SoundDuration":505901,"Delta":183862039},{"NoteNumber":47,"Velocity":32,"Duration":505901,"SoundDuration":505901,"Delta":183862039},{"NoteNumber":57,"Velocity":38,"Duration":505901,"SoundDuration":505901,"Delta":183862039},{"NoteNumber":63,"Velocity":35,"Duration":237676,"SoundDuration":237676,"Delta":184367941},{"NoteNumber":71,"Velocity":41,"Duration":237676,"SoundDuration":237676,"Delta":184367941},{"NoteNumber":47,"Velocity":32,"Duration":257290,"SoundDuration":257290,"Delta":184632025},{"NoteNumber":71,"Velocity":43,"Duration":954606,"SoundDuration":954606,"Delta":184889315},{"NoteNumber":63,"Velocity":36,"Duration":954606,"SoundDuration":954606,"Delta":184889315},{"NoteNumber":57,"Velocity":35,"Duration":244698,"SoundDuration":244698,"Delta":184889315},{"NoteNumber":47,"Velocity":31,"Duration":709908,"SoundDuration":709908,"Delta":185134014},{"NoteNumber":57,"Velocity":35,"Duration":465210,"SoundDuration":465210,"Delta":185378712},{"NoteNumber":63,"Velocity":41,"Duration":947867,"SoundDuration":947867,"Delta":185864149},{"NoteNumber":71,"Velocity":41,"Duration":947867,"SoundDuration":947867,"Delta":185864149},{"NoteNumber":57,"Velocity":35,"Duration":928119,"SoundDuration":928119,"Delta":185864149},{"NoteNumber":47,"Velocity":29,"Duration":928119,"SoundDuration":928119,"Delta":185864149},{"NoteNumber":63,"Velocity":40,"Duration":519653,"SoundDuration":519653,"Delta":186812016},{"NoteNumber":71,"Velocity":40,"Duration":519653,"SoundDuration":519653,"Delta":186812016},{"NoteNumber":47,"Velocity":28,"Duration":519653,"SoundDuration":519653,"Delta":186812016},{"NoteNumber":57,"Velocity":34,"Duration":519653,"SoundDuration":519653,"Delta":186812016},{"NoteNumber":67,"Velocity":34,"Duration":232758,"SoundDuration":232758,"Delta":187331669},{"NoteNumber":71,"Velocity":40,"Duration":232758,"SoundDuration":232758,"Delta":187331669},{"NoteNumber":43,"Velocity":32,"Duration":250000,"SoundDuration":250000,"Delta":187590290},{"NoteNumber":67,"Velocity":39,"Duration":689898,"SoundDuration":689898,"Delta":187840290},{"NoteNumber":71,"Velocity":47,"Duration":689898,"SoundDuration":689898,"Delta":187840290},{"NoteNumber":50,"Velocity":35,"Duration":238853,"SoundDuration":238853,"Delta":187840290},{"NoteNumber":43,"Velocity":32,"Duration":682526,"SoundDuration":682526,"Delta":188079143},{"NoteNumber":50,"Velocity":36,"Duration":443672,"SoundDuration":443672,"Delta":188317997},{"NoteNumber":62,"Velocity":35,"Duration":227623,"SoundDuration":227623,"Delta":188549478},{"NoteNumber":69,"Velocity":41,"Duration":227623,"SoundDuration":227623,"Delta":188549478},{"NoteNumber":67,"Velocity":36,"Duration":219167,"SoundDuration":219167,"Delta":188780960},{"NoteNumber":71,"Velocity":43,"Duration":219167,"SoundDuration":219167,"Delta":188780960},{"NoteNumber":50,"Velocity":37,"Duration":1356348,"SoundDuration":1356348,"Delta":188780960},{"NoteNumber":43,"Velocity":31,"Duration":1356348,"SoundDuration":1356348,"Delta":188780960},{"NoteNumber":74,"Velocity":41,"Duration":217310,"SoundDuration":217310,"Delta":189003842},{"NoteNumber":69,"Velocity":34,"Duration":219167,"SoundDuration":219167,"Delta":189003842},{"NoteNumber":67,"Velocity":36,"Duration":219167,"SoundDuration":219167,"Delta":189226725},{"NoteNumber":71,"Velocity":43,"Duration":219167,"SoundDuration":219167,"Delta":189226725},{"NoteNumber":62,"Velocity":38,"Duration":219167,"SoundDuration":219167,"Delta":189449607},{"NoteNumber":69,"Velocity":38,"Duration":219167,"SoundDuration":219167,"Delta":189449607},{"NoteNumber":67,"Velocity":35,"Duration":225880,"SoundDuration":225880,"Delta":189672490},{"NoteNumber":71,"Velocity":41,"Duration":225880,"SoundDuration":225880,"Delta":189672490},{"NoteNumber":69,"Velocity":38,"Duration":235109,"SoundDuration":235109,"Delta":189902199},{"NoteNumber":74,"Velocity":38,"Duration":235109,"SoundDuration":235109,"Delta":189902199},{"NoteNumber":67,"Velocity":34,"Duration":214968,"SoundDuration":214968,"Delta":190137309},{"NoteNumber":71,"Velocity":40,"Duration":214968,"SoundDuration":214968,"Delta":190137309},{"NoteNumber":43,"Velocity":32,"Duration":235109,"SoundDuration":235109,"Delta":190376162},{"NoteNumber":67,"Velocity":39,"Duration":678754,"SoundDuration":678754,"Delta":190611272},{"NoteNumber":71,"Velocity":47,"Duration":678754,"SoundDuration":678754,"Delta":190611272},{"NoteNumber":50,"Velocity":35,"Duration":233281,"SoundDuration":233281,"Delta":190611272},{"NoteNumber":43,"Velocity":32,"Duration":676954,"SoundDuration":676954,"Delta":190844553},{"NoteNumber":50,"Velocity":36,"Duration":443672,"SoundDuration":443672,"Delta":191077835},{"NoteNumber":62,"Velocity":35,"Duration":227623,"SoundDuration":227623,"Delta":191309316},{"NoteNumber":69,"Velocity":41,"Duration":227623,"SoundDuration":227623,"Delta":191309316},{"NoteNumber":67,"Velocity":37,"Duration":219167,"SoundDuration":219167,"Delta":191540798},{"NoteNumber":71,"Velocity":44,"Duration":219167,"SoundDuration":219167,"Delta":191540798},{"NoteNumber":50,"Velocity":38,"Duration":1404257,"SoundDuration":1404257,"Delta":191540798},{"NoteNumber":43,"Velocity":31,"Duration":668647,"SoundDuration":668647,"Delta":191540798},{"NoteNumber":69,"Velocity":35,"Duration":219167,"SoundDuration":219167,"Delta":191763680},{"NoteNumber":74,"Velocity":43,"Duration":219167,"SoundDuration":219167,"Delta":191763680},{"NoteNumber":67,"Velocity":38,"Duration":219167,"SoundDuration":219167,"Delta":191986563},{"NoteNumber":71,"Velocity":46,"Duration":219167,"SoundDuration":219167,"Delta":191986563},{"NoteNumber":62,"Velocity":41,"Duration":219167,"SoundDuration":219167,"Delta":192209445},{"NoteNumber":69,"Velocity":41,"Duration":219167,"SoundDuration":219167,"Delta":192209445},{"NoteNumber":42,"Velocity":32,"Duration":222882,"SoundDuration":222882,"Delta":192209445},{"NoteNumber":67,"Velocity":38,"Duration":225880,"SoundDuration":225880,"Delta":192432328},{"NoteNumber":71,"Velocity":45,"Duration":225880,"SoundDuration":225880,"Delta":192432328},{"NoteNumber":40,"Velocity":35,"Duration":229709,"SoundDuration":229709,"Delta":192432328},{"NoteNumber":69,"Velocity":42,"Duration":283018,"SoundDuration":283018,"Delta":192662037},{"NoteNumber":74,"Velocity":42,"Duration":283018,"SoundDuration":283018,"Delta":192662037},{"NoteNumber":38,"Velocity":39,"Duration":283018,"SoundDuration":283018,"Delta":192662037},{"NoteNumber":72,"Velocity":39,"Duration":232758,"SoundDuration":232758,"Delta":192945056},{"NoteNumber":76,"Velocity":46,"Duration":232758,"SoundDuration":232758,"Delta":192945056},{"NoteNumber":36,"Velocity":36,"Duration":250000,"SoundDuration":250000,"Delta":193203676},{"NoteNumber":76,"Velocity":49,"Duration":689898,"SoundDuration":689898,"Delta":193453676},{"NoteNumber":72,"Velocity":41,"Duration":689898,"SoundDuration":689898,"Delta":193453676},{"NoteNumber":43,"Velocity":40,"Duration":238853,"SoundDuration":238853,"Delta":193453676},{"NoteNumber":36,"Velocity":36,"Duration":682526,"SoundDuration":682526,"Delta":193692530},{"NoteNumber":43,"Velocity":41,"Duration":443672,"SoundDuration":443672,"Delta":193931383},{"NoteNumber":67,"Velocity":40,"Duration":225694,"SoundDuration":225694,"Delta":194162865},{"NoteNumber":74,"Velocity":47,"Duration":227623,"SoundDuration":227623,"Delta":194162865},{"NoteNumber":72,"Velocity":41,"Duration":217310,"SoundDuration":217310,"Delta":194394346},{"NoteNumber":76,"Velocity":49,"Duration":219167,"SoundDuration":219167,"Delta":194394346},{"NoteNumber":43,"Velocity":42,"Duration":1356348,"SoundDuration":1356348,"Delta":194394346},{"NoteNumber":36,"Velocity":35,"Duration":1356348,"SoundDuration":1356348,"Delta":194394346},{"NoteNumber":67,"Velocity":39,"Duration":217310,"SoundDuration":217310,"Delta":194617229},{"NoteNumber":74,"Velocity":47,"Duration":219167,"SoundDuration":219167,"Delta":194617229},{"NoteNumber":64,"Velocity":41,"Duration":219167,"SoundDuration":219167,"Delta":194840111},{"NoteNumber":72,"Velocity":49,"Duration":217310,"SoundDuration":217310,"Delta":194840111},{"NoteNumber":62,"Velocity":43,"Duration":219167,"SoundDuration":219167,"Delta":195062994},{"NoteNumber":67,"Velocity":43,"Duration":217310,"SoundDuration":217310,"Delta":195062994},{"NoteNumber":64,"Velocity":40,"Duration":225880,"SoundDuration":225880,"Delta":195285876},{"NoteNumber":72,"Velocity":47,"Duration":223966,"SoundDuration":223966,"Delta":195285876},{"NoteNumber":67,"Velocity":43,"Duration":235109,"SoundDuration":235109,"Delta":195515585},{"NoteNumber":77,"Velocity":43,"Duration":235109,"SoundDuration":235109,"Delta":195515585},{"NoteNumber":72,"Velocity":39,"Duration":232758,"SoundDuration":232758,"Delta":195750695},{"NoteNumber":76,"Velocity":46,"Duration":232758,"SoundDuration":232758,"Delta":195750695},{"NoteNumber":36,"Velocity":36,"Duration":250000,"SoundDuration":250000,"Delta":196009316},{"NoteNumber":76,"Velocity":49,"Duration":689898,"SoundDuration":689898,"Delta":196259316},{"NoteNumber":72,"Velocity":41,"Duration":689898,"SoundDuration":689898,"Delta":196259316},{"NoteNumber":43,"Velocity":40,"Duration":238853,"SoundDuration":238853,"Delta":196259316},{"NoteNumber":36,"Velocity":36,"Duration":682526,"SoundDuration":682526,"Delta":196498169},{"NoteNumber":43,"Velocity":41,"Duration":443672,"SoundDuration":443672,"Delta":196737023},{"NoteNumber":72,"Velocity":45,"Duration":225694,"SoundDuration":225694,"Delta":196968504},{"NoteNumber":76,"Velocity":53,"Duration":227623,"SoundDuration":227623,"Delta":196968504},{"NoteNumber":72,"Velocity":49,"Duration":217310,"SoundDuration":217310,"Delta":197199986},{"NoteNumber":76,"Velocity":58,"Duration":217310,"SoundDuration":217310,"Delta":197199986},{"NoteNumber":43,"Velocity":45,"Duration":445764,"SoundDuration":445764,"Delta":197199986},{"NoteNumber":36,"Velocity":45,"Duration":445764,"SoundDuration":445764,"Delta":197199986},{"NoteNumber":72,"Velocity":45,"Duration":217310,"SoundDuration":217310,"Delta":197422868},{"NoteNumber":76,"Velocity":54,"Duration":219167,"SoundDuration":219167,"Delta":197422868},{"NoteNumber":74,"Velocity":58,"Duration":217310,"SoundDuration":217310,"Delta":197645751},{"NoteNumber":76,"Velocity":61,"Duration":890991,"SoundDuration":890991,"Delta":197645751},{"NoteNumber":35,"Velocity":44,"Duration":445764,"SoundDuration":445764,"Delta":197645751},{"NoteNumber":44,"Velocity":48,"Duration":910583,"SoundDuration":910583,"Delta":197645751},{"NoteNumber":71,"Velocity":55,"Duration":217310,"SoundDuration":217310,"Delta":197868633},{"NoteNumber":73,"Velocity":56,"Duration":223966,"SoundDuration":223966,"Delta":198091516},{"NoteNumber":40,"Velocity":42,"Duration":464818,"SoundDuration":464818,"Delta":198091516},{"NoteNumber":74,"Velocity":53,"Duration":235109,"SoundDuration":235109,"Delta":198321225},{"NoteNumber":73,"Velocity":60,"Duration":232758,"SoundDuration":232758,"Delta":198556335},{"NoteNumber":76,"Velocity":60,"Duration":232758,"SoundDuration":232758,"Delta":198556335},{"NoteNumber":33,"Velocity":41,"Duration":258620,"SoundDuration":258620,"Delta":198556335},{"NoteNumber":45,"Velocity":46,"Duration":237069,"SoundDuration":237069,"Delta":198556335},{"NoteNumber":45,"Velocity":36,"Duration":250000,"SoundDuration":250000,"Delta":198814955},{"NoteNumber":76,"Velocity":63,"Duration":689898,"SoundDuration":689898,"Delta":199064955},{"NoteNumber":73,"Velocity":63,"Duration":689898,"SoundDuration":689898,"Delta":199064955},{"NoteNumber":55,"Velocity":46,"Duration":238853,"SoundDuration":238853,"Delta":199064955},{"NoteNumber":45,"Velocity":41,"Duration":682526,"SoundDuration":682526,"Delta":199303809},{"NoteNumber":55,"Velocity":45,"Duration":443672,"SoundDuration":443672,"Delta":199542662},{"NoteNumber":76,"Velocity":49,"Duration":225694,"SoundDuration":225694,"Delta":199774144},{"NoteNumber":79,"Velocity":58,"Duration":225694,"SoundDuration":225694,"Delta":199774144},{"NoteNumber":79,"Velocity":53,"Duration":217310,"SoundDuration":217310,"Delta":200005625},{"NoteNumber":82,"Velocity":63,"Duration":217310,"SoundDuration":217310,"Delta":200005625},{"NoteNumber":55,"Velocity":45,"Duration":891529,"SoundDuration":891529,"Delta":200005625},{"NoteNumber":45,"Velocity":38,"Duration":891529,"SoundDuration":891529,"Delta":200005625},{"NoteNumber":77,"Velocity":48,"Duration":217310,"SoundDuration":217310,"Delta":200228508},{"NoteNumber":81,"Velocity":58,"Duration":219167,"SoundDuration":219167,"Delta":200228508},{"NoteNumber":76,"Velocity":53,"Duration":217310,"SoundDuration":217310,"Delta":200451390},{"NoteNumber":79,"Velocity":62,"Duration":217310,"SoundDuration":217310,"Delta":200451390},{"NoteNumber":77,"Velocity":45,"Duration":217310,"SoundDuration":217310,"Delta":200674273},{"NoteNumber":81,"Velocity":53,"Duration":217310,"SoundDuration":217310,"Delta":200674273},{"NoteNumber":76,"Velocity":48,"Duration":223966,"SoundDuration":223966,"Delta":200897155},{"NoteNumber":79,"Velocity":57,"Duration":223966,"SoundDuration":223966,"Delta":200897155},{"NoteNumber":46,"Velocity":36,"Duration":464818,"SoundDuration":464818,"Delta":200897155},{"NoteNumber":55,"Velocity":43,"Duration":464818,"SoundDuration":464818,"Delta":200897155},{"NoteNumber":74,"Velocity":43,"Duration":235109,"SoundDuration":235109,"Delta":201126864},{"NoteNumber":76,"Velocity":52,"Duration":235109,"SoundDuration":235109,"Delta":201126864},{"NoteNumber":73,"Velocity":39,"Duration":232758,"SoundDuration":232758,"Delta":201361974},{"NoteNumber":81,"Velocity":46,"Duration":232758,"SoundDuration":232758,"Delta":201361974},{"NoteNumber":45,"Velocity":36,"Duration":250000,"SoundDuration":250000,"Delta":201620595},{"NoteNumber":81,"Velocity":53,"Duration":689898,"SoundDuration":689898,"Delta":201870595},{"NoteNumber":73,"Velocity":45,"Duration":689898,"SoundDuration":689898,"Delta":201870595},{"NoteNumber":55,"Velocity":40,"Duration":238853,"SoundDuration":238853,"Delta":201870595},{"NoteNumber":45,"Velocity":36,"Duration":682526,"SoundDuration":682526,"Delta":202109448},{"NoteNumber":55,"Velocity":41,"Duration":443672,"SoundDuration":443672,"Delta":202348302},{"NoteNumber":76,"Velocity":45,"Duration":225694,"SoundDuration":225694,"Delta":202579783},{"NoteNumber":79,"Velocity":53,"Duration":225694,"SoundDuration":225694,"Delta":202579783},{"NoteNumber":79,"Velocity":49,"Duration":217310,"SoundDuration":217310,"Delta":202811265},{"NoteNumber":82,"Velocity":58,"Duration":217310,"SoundDuration":217310,"Delta":202811265},{"NoteNumber":55,"Velocity":42,"Duration":891529,"SoundDuration":891529,"Delta":202811265},{"NoteNumber":45,"Velocity":35,"Duration":891529,"SoundDuration":891529,"Delta":202811265},{"NoteNumber":77,"Velocity":45,"Duration":217310,"SoundDuration":217310,"Delta":203034147},{"NoteNumber":81,"Velocity":54,"Duration":219167,"SoundDuration":219167,"Delta":203034147},{"NoteNumber":76,"Velocity":50,"Duration":217310,"SoundDuration":217310,"Delta":203257030},{"NoteNumber":79,"Velocity":59,"Duration":217310,"SoundDuration":217310,"Delta":203257030},{"NoteNumber":77,"Velocity":43,"Duration":217310,"SoundDuration":217310,"Delta":203479912},{"NoteNumber":81,"Velocity":51,"Duration":217310,"SoundDuration":217310,"Delta":203479912},{"NoteNumber":76,"Velocity":47,"Duration":223966,"SoundDuration":223966,"Delta":203702795},{"NoteNumber":79,"Velocity":56,"Duration":223966,"SoundDuration":223966,"Delta":203702795},{"NoteNumber":46,"Velocity":35,"Duration":486119,"SoundDuration":486119,"Delta":203702795},{"NoteNumber":55,"Velocity":42,"Duration":486119,"SoundDuration":486119,"Delta":203702795},{"NoteNumber":74,"Velocity":43,"Duration":256410,"SoundDuration":256410,"Delta":203932504},{"NoteNumber":76,"Velocity":51,"Duration":256410,"SoundDuration":256410,"Delta":203932504},{"NoteNumber":73,"Velocity":39,"Duration":232758,"SoundDuration":232758,"Delta":204188914},{"NoteNumber":81,"Velocity":46,"Duration":232758,"SoundDuration":232758,"Delta":204188914},{"NoteNumber":45,"Velocity":29,"Duration":250000,"SoundDuration":250000,"Delta":204188914},{"NoteNumber":55,"Velocity":37,"Duration":258620,"SoundDuration":258620,"Delta":204188914},{"NoteNumber":45,"Velocity":34,"Duration":250000,"SoundDuration":250000,"Delta":204447535},{"NoteNumber":81,"Velocity":48,"Duration":943582,"SoundDuration":943582,"Delta":204697535},{"NoteNumber":73,"Velocity":40,"Duration":943582,"SoundDuration":943582,"Delta":204697535},{"NoteNumber":55,"Velocity":37,"Duration":244698,"SoundDuration":244698,"Delta":204697535},{"NoteNumber":45,"Velocity":33,"Duration":698884,"SoundDuration":698884,"Delta":204942233},{"NoteNumber":55,"Velocity":37,"Duration":454186,"SoundDuration":454186,"Delta":205186931},{"NoteNumber":73,"Velocity":46,"Duration":918835,"SoundDuration":918835,"Delta":205660865},{"NoteNumber":81,"Velocity":46,"Duration":918835,"SoundDuration":918835,"Delta":205660865},{"NoteNumber":55,"Velocity":37,"Duration":899693,"SoundDuration":899693,"Delta":205660865},{"NoteNumber":45,"Velocity":31,"Duration":899693,"SoundDuration":899693,"Delta":205660865},{"NoteNumber":73,"Velocity":45,"Duration":505901,"SoundDuration":505901,"Delta":206579701},{"NoteNumber":81,"Velocity":45,"Duration":505901,"SoundDuration":505901,"Delta":206579701},{"NoteNumber":45,"Velocity":30,"Duration":505901,"SoundDuration":505901,"Delta":206579701},{"NoteNumber":55,"Velocity":36,"Duration":505901,"SoundDuration":505901,"Delta":206579701},{"NoteNumber":73,"Velocity":40,"Duration":237676,"SoundDuration":237676,"Delta":207085603},{"NoteNumber":81,"Velocity":48,"Duration":237676,"SoundDuration":237676,"Delta":207085603},{"NoteNumber":57,"Velocity":38,"Duration":257290,"SoundDuration":257290,"Delta":207349687},{"NoteNumber":81,"Velocity":56,"Duration":954606,"SoundDuration":954606,"Delta":207606977},{"NoteNumber":73,"Velocity":47,"Duration":954606,"SoundDuration":954606,"Delta":207606977},{"NoteNumber":67,"Velocity":43,"Duration":244698,"SoundDuration":244698,"Delta":207606977},{"NoteNumber":57,"Velocity":38,"Duration":709908,"SoundDuration":709908,"Delta":207851676},{"NoteNumber":67,"Velocity":47,"Duration":465210,"SoundDuration":465210,"Delta":208096374},{"NoteNumber":57,"Velocity":30,"Duration":428571,"SoundDuration":428571,"Delta":208581811},{"NoteNumber":67,"Velocity":39,"Duration":428571,"SoundDuration":428571,"Delta":208581811},{"NoteNumber":69,"Velocity":76,"Duration":238095,"SoundDuration":238095,"Delta":208819906},{"NoteNumber":66,"Velocity":68,"Duration":214285,"SoundDuration":214285,"Delta":209058001},{"NoteNumber":74,"Velocity":81,"Duration":214285,"SoundDuration":214285,"Delta":209058001},{"NoteNumber":74,"Velocity":75,"Duration":446843,"SoundDuration":446843,"Delta":209296097},{"NoteNumber":66,"Velocity":63,"Duration":446843,"SoundDuration":446843,"Delta":209296097},{"NoteNumber":57,"Velocity":66,"Duration":232558,"SoundDuration":232558,"Delta":209510382},{"NoteNumber":69,"Velocity":64,"Duration":232558,"SoundDuration":232558,"Delta":209742941},{"NoteNumber":76,"Velocity":76,"Duration":232558,"SoundDuration":232558,"Delta":209742941},{"NoteNumber":61,"Velocity":61,"Duration":232558,"SoundDuration":232558,"Delta":209742941},{"NoteNumber":74,"Velocity":73,"Duration":431140,"SoundDuration":431140,"Delta":209975499},{"NoteNumber":78,"Velocity":86,"Duration":431140,"SoundDuration":431140,"Delta":209975499},{"NoteNumber":62,"Velocity":66,"Duration":247933,"SoundDuration":247933,"Delta":209975499},{"NoteNumber":50,"Velocity":77,"Duration":489877,"SoundDuration":489877,"Delta":210223433},{"NoteNumber":74,"Velocity":72,"Duration":720172,"SoundDuration":720172,"Delta":210452441},{"NoteNumber":78,"Velocity":85,"Duration":720172,"SoundDuration":720172,"Delta":210452441},{"NoteNumber":38,"Velocity":59,"Duration":232558,"SoundDuration":232558,"Delta":210713310},{"NoteNumber":50,"Velocity":65,"Duration":232558,"SoundDuration":232558,"Delta":210945868},{"NoteNumber":74,"Velocity":73,"Duration":465116,"SoundDuration":465116,"Delta":211178427},{"NoteNumber":78,"Velocity":86,"Duration":465116,"SoundDuration":465116,"Delta":211178427},{"NoteNumber":57,"Velocity":73,"Duration":232558,"SoundDuration":232558,"Delta":211410985},{"NoteNumber":69,"Velocity":65,"Duration":232558,"SoundDuration":232558,"Delta":211643543},{"NoteNumber":76,"Velocity":77,"Duration":232558,"SoundDuration":232558,"Delta":211643543},{"NoteNumber":61,"Velocity":65,"Duration":232558,"SoundDuration":232558,"Delta":211643543},{"NoteNumber":66,"Velocity":65,"Duration":209302,"SoundDuration":209302,"Delta":211876101},{"NoteNumber":74,"Velocity":77,"Duration":209302,"SoundDuration":209302,"Delta":211876101},{"NoteNumber":59,"Velocity":65,"Duration":232558,"SoundDuration":232558,"Delta":211876101},{"NoteNumber":71,"Velocity":73,"Duration":449469,"SoundDuration":449469,"Delta":212108660},{"NoteNumber":74,"Velocity":86,"Duration":449469,"SoundDuration":449469,"Delta":212108660},{"NoteNumber":54,"Velocity":71,"Duration":252100,"SoundDuration":252100,"Delta":212306028},{"NoteNumber":66,"Velocity":64,"Duration":230769,"SoundDuration":230769,"Delta":212558129},{"NoteNumber":73,"Velocity":76,"Duration":230769,"SoundDuration":230769,"Delta":212558129},{"NoteNumber":57,"Velocity":65,"Duration":230769,"SoundDuration":230769,"Delta":212558129},{"NoteNumber":62,"Velocity":68,"Duration":452100,"SoundDuration":452100,"Delta":212788898},{"NoteNumber":71,"Velocity":80,"Duration":452100,"SoundDuration":452100,"Delta":212788898},{"NoteNumber":55,"Velocity":65,"Duration":252100,"SoundDuration":252100,"Delta":212788898},{"NoteNumber":43,"Velocity":74,"Duration":480769,"SoundDuration":480769,"Delta":213040999},{"NoteNumber":67,"Velocity":73,"Duration":923077,"SoundDuration":923077,"Delta":213290999},{"NoteNumber":71,"Velocity":86,"Duration":923077,"SoundDuration":923077,"Delta":213290999},{"NoteNumber":31,"Velocity":65,"Duration":230769,"SoundDuration":230769,"Delta":213521768},{"NoteNumber":43,"Velocity":65,"Duration":230769,"SoundDuration":230769,"Delta":213752537},{"NoteNumber":47,"Velocity":58,"Duration":230769,"SoundDuration":230769,"Delta":213983307},{"NoteNumber":71,"Velocity":76,"Duration":476190,"SoundDuration":476190,"Delta":214214076},{"NoteNumber":43,"Velocity":61,"Duration":238095,"SoundDuration":238095,"Delta":214214076},{"NoteNumber":42,"Velocity":64,"Duration":238095,"SoundDuration":238095,"Delta":214452171},{"NoteNumber":67,"Velocity":68,"Duration":214285,"SoundDuration":214285,"Delta":214690266},{"NoteNumber":76,"Velocity":81,"Duration":214285,"SoundDuration":214285,"Delta":214690266},{"NoteNumber":40,"Velocity":68,"Duration":238095,"SoundDuration":238095,"Delta":214690266},{"NoteNumber":76,"Velocity":75,"Duration":446843,"SoundDuration":446843,"Delta":214928362},{"NoteNumber":67,"Velocity":63,"Duration":446843,"SoundDuration":446843,"Delta":214928362},{"NoteNumber":59,"Velocity":66,"Duration":232558,"SoundDuration":232558,"Delta":215142647},{"NoteNumber":71,"Velocity":64,"Duration":232558,"SoundDuration":232558,"Delta":215375206},{"NoteNumber":78,"Velocity":76,"Duration":232558,"SoundDuration":232558,"Delta":215375206},{"NoteNumber":63,"Velocity":61,"Duration":232558,"SoundDuration":232558,"Delta":215375206},{"NoteNumber":76,"Velocity":73,"Duration":446364,"SoundDuration":446364,"Delta":215607764},{"NoteNumber":79,"Velocity":86,"Duration":446364,"SoundDuration":446364,"Delta":215607764},{"NoteNumber":64,"Velocity":66,"Duration":263158,"SoundDuration":263158,"Delta":215607764},{"NoteNumber":52,"Velocity":77,"Duration":489877,"SoundDuration":489877,"Delta":215870922},{"NoteNumber":76,"Velocity":72,"Duration":720172,"SoundDuration":720172,"Delta":216099930},{"NoteNumber":79,"Velocity":85,"Duration":720172,"SoundDuration":720172,"Delta":216099930},{"NoteNumber":40,"Velocity":59,"Duration":232558,"SoundDuration":232558,"Delta":216360799},{"NoteNumber":52,"Velocity":65,"Duration":232558,"SoundDuration":232558,"Delta":216593357},{"NoteNumber":76,"Velocity":73,"Duration":465116,"SoundDuration":465116,"Delta":216825916},{"NoteNumber":79,"Velocity":86,"Duration":465116,"SoundDuration":465116,"Delta":216825916},{"NoteNumber":59,"Velocity":70,"Duration":232558,"SoundDuration":232558,"Delta":217058474},{"NoteNumber":71,"Velocity":63,"Duration":232558,"SoundDuration":232558,"Delta":217291032},{"NoteNumber":77,"Velocity":74,"Duration":232558,"SoundDuration":232558,"Delta":217291032},{"NoteNumber":62,"Velocity":63,"Duration":232558,"SoundDuration":232558,"Delta":217291032},{"NoteNumber":67,"Velocity":65,"Duration":201492,"SoundDuration":201492,"Delta":217523590},{"NoteNumber":76,"Velocity":77,"Duration":201492,"SoundDuration":201492,"Delta":217523590},{"NoteNumber":60,"Velocity":65,"Duration":223880,"SoundDuration":223880,"Delta":217523590},{"NoteNumber":72,"Velocity":73,"Duration":431743,"SoundDuration":431743,"Delta":217747471},{"NoteNumber":76,"Velocity":86,"Duration":431743,"SoundDuration":431743,"Delta":217747471},{"NoteNumber":56,"Velocity":71,"Duration":218977,"SoundDuration":218977,"Delta":217960237},{"NoteNumber":68,"Velocity":62,"Duration":230769,"SoundDuration":230769,"Delta":218179215},{"NoteNumber":74,"Velocity":73,"Duration":230769,"SoundDuration":230769,"Delta":218179215},{"NoteNumber":59,"Velocity":63,"Duration":230769,"SoundDuration":230769,"Delta":218179215},{"NoteNumber":64,"Velocity":68,"Duration":228813,"SoundDuration":228813,"Delta":218409984},{"NoteNumber":72,"Velocity":80,"Duration":228813,"SoundDuration":228813,"Delta":218409984},{"NoteNumber":57,"Velocity":65,"Duration":254237,"SoundDuration":254237,"Delta":218409984},{"NoteNumber":45,"Velocity":74,"Duration":480769,"SoundDuration":480769,"Delta":218664221},{"NoteNumber":64,"Velocity":73,"Duration":686538,"SoundDuration":686538,"Delta":218914221},{"NoteNumber":72,"Velocity":86,"Duration":684615,"SoundDuration":684615,"Delta":218914221},{"NoteNumber":33,"Velocity":65,"Duration":230769,"SoundDuration":230769,"Delta":219144991},{"NoteNumber":45,"Velocity":65,"Duration":695885,"SoundDuration":695885,"Delta":219375760},{"NoteNumber":60,"Velocity":73,"Duration":465116,"SoundDuration":465116,"Delta":219606529},{"NoteNumber":69,"Velocity":73,"Duration":461240,"SoundDuration":461240,"Delta":219606529},{"NoteNumber":72,"Velocity":86,"Duration":465116,"SoundDuration":465116,"Delta":219606529},{"NoteNumber":57,"Velocity":73,"Duration":232558,"SoundDuration":232558,"Delta":219839087},{"NoteNumber":62,"Velocity":63,"Duration":232558,"SoundDuration":232558,"Delta":220071646},{"NoteNumber":69,"Velocity":63,"Duration":456438,"SoundDuration":456438,"Delta":220071646},{"NoteNumber":74,"Velocity":74,"Duration":232558,"SoundDuration":232558,"Delta":220071646},{"NoteNumber":47,"Velocity":56,"Duration":232558,"SoundDuration":232558,"Delta":220071646},{"NoteNumber":57,"Velocity":56,"Duration":456438,"SoundDuration":456438,"Delta":220071646},{"NoteNumber":59,"Velocity":63,"Duration":232558,"SoundDuration":232558,"Delta":220071646},{"NoteNumber":64,"Velocity":65,"Duration":201492,"SoundDuration":201492,"Delta":220304204},{"NoteNumber":76,"Velocity":77,"Duration":201492,"SoundDuration":201492,"Delta":220304204},{"NoteNumber":48,"Velocity":55,"Duration":223880,"SoundDuration":223880,"Delta":220304204},{"NoteNumber":60,"Velocity":65,"Duration":223880,"SoundDuration":223880,"Delta":220304204},{"NoteNumber":65,"Velocity":73,"Duration":431743,"SoundDuration":431743,"Delta":220528084},{"NoteNumber":74,"Velocity":73,"Duration":431743,"SoundDuration":431743,"Delta":220528084},{"NoteNumber":77,"Velocity":86,"Duration":431743,"SoundDuration":431743,"Delta":220528084},{"NoteNumber":57,"Velocity":58,"Duration":431743,"SoundDuration":431743,"Delta":220528084},{"NoteNumber":50,"Velocity":63,"Duration":431743,"SoundDuration":431743,"Delta":220528084},{"NoteNumber":62,"Velocity":71,"Duration":218977,"SoundDuration":218977,"Delta":220740850},{"NoteNumber":74,"Velocity":64,"Duration":230769,"SoundDuration":230769,"Delta":220959828},{"NoteNumber":67,"Velocity":64,"Duration":230769,"SoundDuration":230769,"Delta":220959828},{"NoteNumber":79,"Velocity":76,"Duration":230769,"SoundDuration":230769,"Delta":220959828},{"NoteNumber":60,"Velocity":63,"Duration":230769,"SoundDuration":230769,"Delta":220959828},{"NoteNumber":52,"Velocity":63,"Duration":230769,"SoundDuration":230769,"Delta":220959828},{"NoteNumber":64,"Velocity":65,"Duration":230769,"SoundDuration":230769,"Delta":220959828},{"NoteNumber":69,"Velocity":68,"Duration":252100,"SoundDuration":252100,"Delta":221190598},{"NoteNumber":72,"Velocity":68,"Duration":226890,"SoundDuration":226890,"Delta":221190598},{"NoteNumber":81,"Velocity":80,"Duration":226890,"SoundDuration":226890,"Delta":221190598},{"NoteNumber":53,"Velocity":55,"Duration":252100,"SoundDuration":252100,"Delta":221190598},{"NoteNumber":60,"Velocity":55,"Duration":252100,"SoundDuration":252100,"Delta":221190598},{"NoteNumber":65,"Velocity":65,"Duration":252100,"SoundDuration":252100,"Delta":221190598},{"NoteNumber":69,"Velocity":73,"Duration":679821,"SoundDuration":679821,"Delta":221692698},{"NoteNumber":72,"Velocity":73,"Duration":677956,"SoundDuration":677956,"Delta":221692698},{"NoteNumber":81,"Velocity":86,"Duration":679821,"SoundDuration":679821,"Delta":221692698},{"NoteNumber":53,"Velocity":62,"Duration":677956,"SoundDuration":677956,"Delta":221692698},{"NoteNumber":60,"Velocity":62,"Duration":677956,"SoundDuration":677956,"Delta":221692698},{"NoteNumber":65,"Velocity":74,"Duration":677956,"SoundDuration":677956,"Delta":221692698},{"NoteNumber":65,"Velocity":70,"Duration":218283,"SoundDuration":218283,"Delta":222378117},{"NoteNumber":72,"Velocity":83,"Duration":218283,"SoundDuration":218283,"Delta":222378117},{"NoteNumber":57,"Velocity":71,"Duration":223880,"SoundDuration":223880,"Delta":222378117},{"NoteNumber":45,"Velocity":60,"Duration":223880,"SoundDuration":223880,"Delta":222378117},{"NoteNumber":65,"Velocity":73,"Duration":210431,"SoundDuration":210431,"Delta":222601998},{"NoteNumber":69,"Velocity":73,"Duration":212230,"SoundDuration":212230,"Delta":222601998},{"NoteNumber":77,"Velocity":86,"Duration":210431,"SoundDuration":210431,"Delta":222601998},{"NoteNumber":60,"Velocity":74,"Duration":215827,"SoundDuration":215827,"Delta":222601998},{"NoteNumber":48,"Velocity":62,"Duration":215827,"SoundDuration":215827,"Delta":222601998},{"NoteNumber":65,"Velocity":69,"Duration":210431,"SoundDuration":210431,"Delta":222817825},{"NoteNumber":72,"Velocity":82,"Duration":210431,"SoundDuration":210431,"Delta":222817825},{"NoteNumber":57,"Velocity":70,"Duration":215827,"SoundDuration":215827,"Delta":222817825},{"NoteNumber":45,"Velocity":59,"Duration":215827,"SoundDuration":215827,"Delta":222817825},{"NoteNumber":65,"Velocity":73,"Duration":210431,"SoundDuration":210431,"Delta":223033652},{"NoteNumber":69,"Velocity":86,"Duration":212230,"SoundDuration":212230,"Delta":223033652},{"NoteNumber":41,"Velocity":62,"Duration":215827,"SoundDuration":215827,"Delta":223033652},{"NoteNumber":53,"Velocity":74,"Duration":215827,"SoundDuration":215827,"Delta":223033652},{"NoteNumber":65,"Velocity":80,"Duration":210431,"SoundDuration":210431,"Delta":223249480},{"NoteNumber":40,"Velocity":58,"Duration":215827,"SoundDuration":215827,"Delta":223249480},{"NoteNumber":52,"Velocity":68,"Duration":215827,"SoundDuration":215827,"Delta":223249480},{"NoteNumber":65,"Velocity":70,"Duration":223282,"SoundDuration":223282,"Delta":223465307},{"NoteNumber":69,"Velocity":83,"Duration":225190,"SoundDuration":225190,"Delta":223465307},{"NoteNumber":38,"Velocity":60,"Duration":229007,"SoundDuration":229007,"Delta":223465307},{"NoteNumber":50,"Velocity":71,"Duration":229007,"SoundDuration":229007,"Delta":223465307},{"NoteNumber":65,"Velocity":67,"Duration":229007,"SoundDuration":229007,"Delta":223694315},{"NoteNumber":72,"Velocity":80,"Duration":229007,"SoundDuration":229007,"Delta":223694315},{"NoteNumber":69,"Velocity":67,"Duration":229007,"SoundDuration":229007,"Delta":223694315},{"NoteNumber":36,"Velocity":58,"Duration":229007,"SoundDuration":229007,"Delta":223694315},{"NoteNumber":48,"Velocity":68,"Duration":229007,"SoundDuration":229007,"Delta":223694315},{"NoteNumber":70,"Velocity":68,"Duration":258620,"SoundDuration":258620,"Delta":223923322},{"NoteNumber":62,"Velocity":68,"Duration":258620,"SoundDuration":258620,"Delta":223923322},{"NoteNumber":65,"Velocity":68,"Duration":232758,"SoundDuration":232758,"Delta":223923322},{"NoteNumber":74,"Velocity":80,"Duration":232758,"SoundDuration":232758,"Delta":223923322},{"NoteNumber":34,"Velocity":55,"Duration":258620,"SoundDuration":258620,"Delta":223923322},{"NoteNumber":46,"Velocity":65,"Duration":258620,"SoundDuration":258620,"Delta":223923322},{"NoteNumber":70,"Velocity":73,"Duration":677956,"SoundDuration":677956,"Delta":224431943},{"NoteNumber":62,"Velocity":73,"Duration":679821,"SoundDuration":679821,"Delta":224431943},{"NoteNumber":65,"Velocity":73,"Duration":677956,"SoundDuration":677956,"Delta":224431943},{"NoteNumber":74,"Velocity":86,"Duration":679821,"SoundDuration":679821,"Delta":224431943},{"NoteNumber":46,"Velocity":62,"Duration":677956,"SoundDuration":677956,"Delta":224431943},{"NoteNumber":53,"Velocity":62,"Duration":677956,"SoundDuration":677956,"Delta":224431943},{"NoteNumber":58,"Velocity":74,"Duration":677956,"SoundDuration":677956,"Delta":224431943},{"NoteNumber":62,"Velocity":77,"Duration":439707,"SoundDuration":439707,"Delta":225117362},{"NoteNumber":65,"Velocity":77,"Duration":436110,"SoundDuration":436110,"Delta":225117362},{"NoteNumber":74,"Velocity":91,"Duration":439707,"SoundDuration":439707,"Delta":225117362},{"NoteNumber":53,"Velocity":71,"Duration":223880,"SoundDuration":223880,"Delta":225117362},{"NoteNumber":46,"Velocity":60,"Duration":223880,"SoundDuration":223880,"Delta":225117362},{"NoteNumber":58,"Velocity":82,"Duration":215827,"SoundDuration":215827,"Delta":225341243},{"NoteNumber":60,"Velocity":69,"Duration":215827,"SoundDuration":215827,"Delta":225557070},{"NoteNumber":65,"Velocity":69,"Duration":215827,"SoundDuration":215827,"Delta":225557070},{"NoteNumber":72,"Velocity":82,"Duration":215827,"SoundDuration":215827,"Delta":225557070},{"NoteNumber":53,"Velocity":59,"Duration":215827,"SoundDuration":215827,"Delta":225557070},{"NoteNumber":57,"Velocity":70,"Duration":215827,"SoundDuration":215827,"Delta":225557070},{"NoteNumber":45,"Velocity":59,"Duration":215827,"SoundDuration":215827,"Delta":225557070},{"NoteNumber":62,"Velocity":73,"Duration":205035,"SoundDuration":205035,"Delta":225772897},{"NoteNumber":65,"Velocity":73,"Duration":205035,"SoundDuration":205035,"Delta":225772897},{"NoteNumber":74,"Velocity":86,"Duration":205035,"SoundDuration":205035,"Delta":225772897},{"NoteNumber":46,"Velocity":62,"Duration":205035,"SoundDuration":205035,"Delta":225772897},{"NoteNumber":53,"Velocity":62,"Duration":205035,"SoundDuration":205035,"Delta":225772897},{"NoteNumber":58,"Velocity":74,"Duration":205035,"SoundDuration":205035,"Delta":225772897},{"NoteNumber":62,"Velocity":83,"Duration":444834,"SoundDuration":444834,"Delta":225988724},{"NoteNumber":65,"Velocity":83,"Duration":444834,"SoundDuration":444834,"Delta":225988724},{"NoteNumber":74,"Velocity":83,"Duration":444834,"SoundDuration":444834,"Delta":225988724},{"NoteNumber":46,"Velocity":60,"Duration":444834,"SoundDuration":444834,"Delta":225988724},{"NoteNumber":53,"Velocity":71,"Duration":215827,"SoundDuration":215827,"Delta":225988724},{"NoteNumber":58,"Velocity":71,"Duration":229007,"SoundDuration":229007,"Delta":226204552},{"NoteNumber":63,"Velocity":70,"Duration":229007,"SoundDuration":229007,"Delta":226433559},{"NoteNumber":75,"Velocity":83,"Duration":229007,"SoundDuration":229007,"Delta":226433559},{"NoteNumber":65,"Velocity":70,"Duration":229007,"SoundDuration":229007,"Delta":226433559},{"NoteNumber":53,"Velocity":60,"Duration":229007,"SoundDuration":229007,"Delta":226433559},{"NoteNumber":48,"Velocity":60,"Duration":229007,"SoundDuration":229007,"Delta":226433559},{"NoteNumber":60,"Velocity":71,"Duration":229007,"SoundDuration":229007,"Delta":226433559},{"NoteNumber":62,"Velocity":68,"Duration":258620,"SoundDuration":258620,"Delta":226662567},{"NoteNumber":65,"Velocity":68,"Duration":232758,"SoundDuration":232758,"Delta":226662567},{"NoteNumber":74,"Velocity":80,"Duration":232758,"SoundDuration":232758,"Delta":226662567},{"NoteNumber":46,"Velocity":55,"Duration":258620,"SoundDuration":258620,"Delta":226662567},{"NoteNumber":53,"Velocity":55,"Duration":258620,"SoundDuration":258620,"Delta":226662567},{"NoteNumber":58,"Velocity":65,"Duration":258620,"SoundDuration":258620,"Delta":226662567},{"NoteNumber":62,"Velocity":73,"Duration":685418,"SoundDuration":685418,"Delta":227171188},{"NoteNumber":65,"Velocity":73,"Duration":685418,"SoundDuration":685418,"Delta":227171188},{"NoteNumber":74,"Velocity":86,"Duration":685418,"SoundDuration":685418,"Delta":227171188},{"NoteNumber":46,"Velocity":62,"Duration":685418,"SoundDuration":685418,"Delta":227171188},{"NoteNumber":53,"Velocity":62,"Duration":685418,"SoundDuration":685418,"Delta":227171188},{"NoteNumber":58,"Velocity":74,"Duration":685418,"SoundDuration":685418,"Delta":227171188},{"NoteNumber":70,"Velocity":70,"Duration":218283,"SoundDuration":218283,"Delta":227856607},{"NoteNumber":77,"Velocity":83,"Duration":218283,"SoundDuration":218283,"Delta":227856607},{"NoteNumber":62,"Velocity":71,"Duration":223880,"SoundDuration":223880,"Delta":227856607},{"NoteNumber":50,"Velocity":60,"Duration":223880,"SoundDuration":223880,"Delta":227856607},{"NoteNumber":70,"Velocity":73,"Duration":210431,"SoundDuration":210431,"Delta":228080487},{"NoteNumber":74,"Velocity":73,"Duration":212230,"SoundDuration":212230,"Delta":228080487},{"NoteNumber":82,"Velocity":86,"Duration":210431,"SoundDuration":210431,"Delta":228080487},{"NoteNumber":65,"Velocity":74,"Duration":215827,"SoundDuration":215827,"Delta":228080487},{"NoteNumber":53,"Velocity":62,"Duration":215827,"SoundDuration":215827,"Delta":228080487},{"NoteNumber":70,"Velocity":69,"Duration":210431,"SoundDuration":210431,"Delta":228296315},{"NoteNumber":77,"Velocity":82,"Duration":210431,"SoundDuration":210431,"Delta":228296315},{"NoteNumber":62,"Velocity":70,"Duration":215827,"SoundDuration":215827,"Delta":228296315},{"NoteNumber":50,"Velocity":59,"Duration":215827,"SoundDuration":215827,"Delta":228296315},{"NoteNumber":70,"Velocity":73,"Duration":210431,"SoundDuration":210431,"Delta":228512142},{"NoteNumber":74,"Velocity":86,"Duration":212230,"SoundDuration":212230,"Delta":228512142},{"NoteNumber":46,"Velocity":62,"Duration":215827,"SoundDuration":215827,"Delta":228512142},{"NoteNumber":58,"Velocity":74,"Duration":215827,"SoundDuration":215827,"Delta":228512142},{"NoteNumber":70,"Velocity":70,"Duration":210431,"SoundDuration":210431,"Delta":228727969},{"NoteNumber":77,"Velocity":80,"Duration":210431,"SoundDuration":210431,"Delta":228727969},{"NoteNumber":50,"Velocity":58,"Duration":215827,"SoundDuration":215827,"Delta":228727969},{"NoteNumber":62,"Velocity":68,"Duration":215827,"SoundDuration":215827,"Delta":228727969},{"NoteNumber":74,"Velocity":70,"Duration":225190,"SoundDuration":225190,"Delta":228943796},{"NoteNumber":70,"Velocity":70,"Duration":223282,"SoundDuration":223282,"Delta":228943796},{"NoteNumber":82,"Velocity":83,"Duration":223282,"SoundDuration":223282,"Delta":228943796},{"NoteNumber":46,"Velocity":60,"Duration":229007,"SoundDuration":229007,"Delta":228943796},{"NoteNumber":58,"Velocity":71,"Duration":229007,"SoundDuration":229007,"Delta":228943796},{"NoteNumber":72,"Velocity":70,"Duration":229007,"SoundDuration":229007,"Delta":229172804},{"NoteNumber":84,"Velocity":84,"Duration":229007,"SoundDuration":229007,"Delta":229172804},{"NoteNumber":77,"Velocity":70,"Duration":229007,"SoundDuration":229007,"Delta":229172804},{"NoteNumber":45,"Velocity":60,"Duration":229007,"SoundDuration":229007,"Delta":229172804},{"NoteNumber":57,"Velocity":71,"Duration":229007,"SoundDuration":229007,"Delta":229172804},{"NoteNumber":82,"Velocity":78,"Duration":260869,"SoundDuration":260869,"Delta":229401812},{"NoteNumber":74,"Velocity":78,"Duration":260869,"SoundDuration":260869,"Delta":229401812},{"NoteNumber":86,"Velocity":92,"Duration":234782,"SoundDuration":234782,"Delta":229401812},{"NoteNumber":43,"Velocity":63,"Duration":260869,"SoundDuration":260869,"Delta":229401812},{"NoteNumber":55,"Velocity":74,"Duration":260869,"SoundDuration":260869,"Delta":229401812},{"NoteNumber":82,"Velocity":83,"Duration":677956,"SoundDuration":677956,"Delta":229912681},{"NoteNumber":74,"Velocity":83,"Duration":679821,"SoundDuration":679821,"Delta":229912681},{"NoteNumber":86,"Velocity":98,"Duration":679821,"SoundDuration":679821,"Delta":229912681},{"NoteNumber":43,"Velocity":71,"Duration":677956,"SoundDuration":677956,"Delta":229912681},{"NoteNumber":55,"Velocity":85,"Duration":677956,"SoundDuration":677956,"Delta":229912681},{"NoteNumber":82,"Velocity":90,"Duration":436063,"SoundDuration":436063,"Delta":230598100},{"NoteNumber":86,"Velocity":90,"Duration":436063,"SoundDuration":436063,"Delta":230598100},{"NoteNumber":94,"Velocity":106,"Duration":436063,"SoundDuration":436063,"Delta":230598100},{"NoteNumber":31,"Velocity":64,"Duration":436063,"SoundDuration":436063,"Delta":230598100},{"NoteNumber":43,"Velocity":74,"Duration":436063,"SoundDuration":436063,"Delta":230598100},{"NoteNumber":82,"Velocity":87,"Duration":230769,"SoundDuration":230769,"Delta":231054997},{"NoteNumber":86,"Velocity":87,"Duration":230769,"SoundDuration":230769,"Delta":231054997},{"NoteNumber":94,"Velocity":102,"Duration":230769,"SoundDuration":230769,"Delta":231054997},{"NoteNumber":31,"Velocity":64,"Duration":230769,"SoundDuration":230769,"Delta":231054997},{"NoteNumber":43,"Velocity":77,"Duration":230769,"SoundDuration":230769,"Delta":231054997},{"NoteNumber":82,"Velocity":78,"Duration":263158,"SoundDuration":263158,"Delta":231285766},{"NoteNumber":76,"Velocity":78,"Duration":263158,"SoundDuration":263158,"Delta":231285766},{"NoteNumber":88,"Velocity":92,"Duration":236842,"SoundDuration":236842,"Delta":231285766},{"NoteNumber":36,"Velocity":63,"Duration":263158,"SoundDuration":263158,"Delta":231285766},{"NoteNumber":48,"Velocity":74,"Duration":263158,"SoundDuration":263158,"Delta":231285766},{"NoteNumber":82,"Velocity":83,"Duration":692307,"SoundDuration":692307,"Delta":231798924},{"NoteNumber":76,"Velocity":83,"Duration":692307,"SoundDuration":692307,"Delta":231798924},{"NoteNumber":88,"Velocity":98,"Duration":692307,"SoundDuration":692307,"Delta":231798924},{"NoteNumber":36,"Velocity":71,"Duration":692307,"SoundDuration":692307,"Delta":231798924},{"NoteNumber":48,"Velocity":85,"Duration":692307,"SoundDuration":692307,"Delta":231798924},{"NoteNumber":77,"Velocity":90,"Duration":436063,"SoundDuration":436063,"Delta":232491232},{"NoteNumber":81,"Velocity":90,"Duration":436063,"SoundDuration":436063,"Delta":232491232},{"NoteNumber":89,"Velocity":106,"Duration":436063,"SoundDuration":436063,"Delta":232491232},{"NoteNumber":29,"Velocity":64,"Duration":436063,"SoundDuration":436063,"Delta":232491232},{"NoteNumber":41,"Velocity":74,"Duration":436063,"SoundDuration":436063,"Delta":232491232},{"NoteNumber":77,"Velocity":87,"Duration":230769,"SoundDuration":230769,"Delta":232948128},{"NoteNumber":81,"Velocity":87,"Duration":230769,"SoundDuration":230769,"Delta":232948128},{"NoteNumber":89,"Velocity":102,"Duration":230769,"SoundDuration":230769,"Delta":232948128},{"NoteNumber":29,"Velocity":64,"Duration":230769,"SoundDuration":230769,"Delta":232948128},{"NoteNumber":41,"Velocity":77,"Duration":230769,"SoundDuration":230769,"Delta":232948128},{"NoteNumber":69,"Velocity":68,"Duration":258620,"SoundDuration":258620,"Delta":233178898},{"NoteNumber":65,"Velocity":68,"Duration":232758,"SoundDuration":232758,"Delta":233178898},{"NoteNumber":77,"Velocity":80,"Duration":232758,"SoundDuration":232758,"Delta":233178898},{"NoteNumber":41,"Velocity":55,"Duration":258620,"SoundDuration":258620,"Delta":233178898},{"NoteNumber":48,"Velocity":55,"Duration":258620,"SoundDuration":258620,"Delta":233178898},{"NoteNumber":53,"Velocity":65,"Duration":258620,"SoundDuration":258620,"Delta":233178898},{"NoteNumber":65,"Velocity":73,"Duration":868762,"SoundDuration":868762,"Delta":233687518},{"NoteNumber":69,"Velocity":73,"Duration":886467,"SoundDuration":886467,"Delta":233687518},{"NoteNumber":77,"Velocity":86,"Duration":868762,"SoundDuration":868762,"Delta":233687518},{"NoteNumber":41,"Velocity":62,"Duration":868762,"SoundDuration":868762,"Delta":233687518},{"NoteNumber":48,"Velocity":62,"Duration":868762,"SoundDuration":868762,"Delta":233687518},{"NoteNumber":53,"Velocity":74,"Duration":868762,"SoundDuration":868762,"Delta":233687518},{"NoteNumber":69,"Velocity":47,"Duration":543555,"SoundDuration":543555,"Delta":234573986},{"NoteNumber":65,"Velocity":47,"Duration":543555,"SoundDuration":543555,"Delta":234573986},{"NoteNumber":77,"Velocity":56,"Duration":543555,"SoundDuration":543555,"Delta":234573986},{"NoteNumber":53,"Velocity":38,"Duration":543555,"SoundDuration":543555,"Delta":234573986},{"NoteNumber":60,"Velocity":45,"Duration":543555,"SoundDuration":543555,"Delta":234573986},{"NoteNumber":65,"Velocity":51,"Duration":300000,"SoundDuration":300000,"Delta":235140478},{"NoteNumber":69,"Velocity":51,"Duration":300000,"SoundDuration":300000,"Delta":235140478},{"NoteNumber":77,"Velocity":60,"Duration":300000,"SoundDuration":300000,"Delta":235140478},{"NoteNumber":51,"Velocity":43,"Duration":300000,"SoundDuration":300000,"Delta":235140478},{"NoteNumber":60,"Velocity":51,"Duration":289999,"SoundDuration":289999,"Delta":235140478},{"NoteNumber":69,"Velocity":47,"Duration":289575,"SoundDuration":289575,"Delta":235440478},{"NoteNumber":66,"Velocity":47,"Duration":260617,"SoundDuration":260617,"Delta":235440478},{"NoteNumber":78,"Velocity":56,"Duration":260617,"SoundDuration":260617,"Delta":235440478},{"NoteNumber":50,"Velocity":38,"Duration":289575,"SoundDuration":289575,"Delta":235440478},{"NoteNumber":60,"Velocity":45,"Duration":289575,"SoundDuration":289575,"Delta":235440478},{"NoteNumber":66,"Velocity":51,"Duration":693359,"SoundDuration":693359,"Delta":235991833},{"NoteNumber":69,"Velocity":51,"Duration":703125,"SoundDuration":703125,"Delta":235991833},{"NoteNumber":78,"Velocity":60,"Duration":693359,"SoundDuration":693359,"Delta":235991833},{"NoteNumber":50,"Velocity":43,"Duration":693359,"SoundDuration":693359,"Delta":235991833},{"NoteNumber":60,"Velocity":51,"Duration":693359,"SoundDuration":693359,"Delta":235991833},{"NoteNumber":69,"Velocity":40,"Duration":234375,"SoundDuration":234375,"Delta":236694958},{"NoteNumber":78,"Velocity":48,"Duration":234375,"SoundDuration":234375,"Delta":236694958},{"NoteNumber":66,"Velocity":40,"Duration":234375,"SoundDuration":234375,"Delta":236694958},{"NoteNumber":69,"Velocity":44,"Duration":225563,"SoundDuration":225563,"Delta":236929333},{"NoteNumber":72,"Velocity":44,"Duration":225563,"SoundDuration":225563,"Delta":236929333},{"NoteNumber":81,"Velocity":52,"Duration":225563,"SoundDuration":225563,"Delta":236929333},{"NoteNumber":67,"Velocity":40,"Duration":225564,"SoundDuration":225564,"Delta":237154897},{"NoteNumber":70,"Velocity":40,"Duration":225564,"SoundDuration":225564,"Delta":237154897},{"NoteNumber":79,"Velocity":48,"Duration":225564,"SoundDuration":225564,"Delta":237154897},{"NoteNumber":66,"Velocity":44,"Duration":217391,"SoundDuration":217391,"Delta":237380461},{"NoteNumber":69,"Velocity":44,"Duration":217391,"SoundDuration":217391,"Delta":237380461},{"NoteNumber":78,"Velocity":52,"Duration":217391,"SoundDuration":217391,"Delta":237380461},{"NoteNumber":67,"Velocity":39,"Duration":217391,"SoundDuration":217391,"Delta":237597852},{"NoteNumber":70,"Velocity":39,"Duration":217391,"SoundDuration":217391,"Delta":237597852},{"NoteNumber":79,"Velocity":47,"Duration":217391,"SoundDuration":217391,"Delta":237597852},{"NoteNumber":66,"Velocity":39,"Duration":217391,"SoundDuration":217391,"Delta":237815243},{"NoteNumber":69,"Velocity":39,"Duration":217391,"SoundDuration":217391,"Delta":237815243},{"NoteNumber":78,"Velocity":47,"Duration":217391,"SoundDuration":217391,"Delta":237815243},{"NoteNumber":63,"Velocity":37,"Duration":241935,"SoundDuration":241935,"Delta":238032635},{"NoteNumber":67,"Velocity":37,"Duration":241935,"SoundDuration":241935,"Delta":238032635},{"NoteNumber":75,"Velocity":45,"Duration":241935,"SoundDuration":241935,"Delta":238032635},{"NoteNumber":48,"Velocity":38,"Duration":241935,"SoundDuration":241935,"Delta":238032635},{"NoteNumber":57,"Velocity":38,"Duration":241935,"SoundDuration":241935,"Delta":238032635},{"NoteNumber":66,"Velocity":39,"Duration":285714,"SoundDuration":285714,"Delta":238274570},{"NoteNumber":62,"Velocity":39,"Duration":257142,"SoundDuration":257142,"Delta":238274570},{"NoteNumber":74,"Velocity":46,"Duration":257142,"SoundDuration":257142,"Delta":238274570},{"NoteNumber":50,"Velocity":33,"Duration":285714,"SoundDuration":285714,"Delta":238274570},{"NoteNumber":60,"Velocity":39,"Duration":285714,"SoundDuration":285714,"Delta":238274570},{"NoteNumber":62,"Velocity":42,"Duration":978652,"SoundDuration":978652,"Delta":238845999},{"NoteNumber":66,"Velocity":42,"Duration":996357,"SoundDuration":996357,"Delta":238845999},{"NoteNumber":74,"Velocity":51,"Duration":978652,"SoundDuration":978652,"Delta":238845999},{"NoteNumber":50,"Velocity":36,"Duration":978652,"SoundDuration":978652,"Delta":238845999},{"NoteNumber":60,"Velocity":42,"Duration":978652,"SoundDuration":978652,"Delta":238845999},{"NoteNumber":69,"Velocity":40,"Duration":258620,"SoundDuration":258620,"Delta":239842356},{"NoteNumber":78,"Velocity":48,"Duration":258620,"SoundDuration":258620,"Delta":239842356},{"NoteNumber":66,"Velocity":40,"Duration":258620,"SoundDuration":258620,"Delta":239842356},{"NoteNumber":69,"Velocity":44,"Duration":241935,"SoundDuration":241935,"Delta":240100977},{"NoteNumber":72,"Velocity":44,"Duration":241935,"SoundDuration":241935,"Delta":240100977},{"NoteNumber":81,"Velocity":52,"Duration":241935,"SoundDuration":241935,"Delta":240100977},{"NoteNumber":67,"Velocity":40,"Duration":241935,"SoundDuration":241935,"Delta":240342913},{"NoteNumber":70,"Velocity":40,"Duration":241935,"SoundDuration":241935,"Delta":240342913},{"NoteNumber":79,"Velocity":48,"Duration":241935,"SoundDuration":241935,"Delta":240342913},{"NoteNumber":66,"Velocity":44,"Duration":229007,"SoundDuration":229007,"Delta":240584848},{"NoteNumber":69,"Velocity":44,"Duration":229007,"SoundDuration":229007,"Delta":240584848},{"NoteNumber":78,"Velocity":52,"Duration":229007,"SoundDuration":229007,"Delta":240584848},{"NoteNumber":67,"Velocity":39,"Duration":229007,"SoundDuration":229007,"Delta":240813856},{"NoteNumber":70,"Velocity":39,"Duration":229007,"SoundDuration":229007,"Delta":240813856},{"NoteNumber":79,"Velocity":47,"Duration":229007,"SoundDuration":229007,"Delta":240813856},{"NoteNumber":66,"Velocity":39,"Duration":229007,"SoundDuration":229007,"Delta":241042864},{"NoteNumber":69,"Velocity":39,"Duration":229007,"SoundDuration":229007,"Delta":241042864},{"NoteNumber":78,"Velocity":47,"Duration":229007,"SoundDuration":229007,"Delta":241042864},{"NoteNumber":63,"Velocity":37,"Duration":254237,"SoundDuration":254237,"Delta":241271871},{"NoteNumber":67,"Velocity":37,"Duration":254237,"SoundDuration":254237,"Delta":241271871},{"NoteNumber":75,"Velocity":45,"Duration":254237,"SoundDuration":254237,"Delta":241271871},{"NoteNumber":48,"Velocity":38,"Duration":254237,"SoundDuration":254237,"Delta":241271871},{"NoteNumber":57,"Velocity":38,"Duration":254237,"SoundDuration":254237,"Delta":241271871},{"NoteNumber":66,"Velocity":39,"Duration":285714,"SoundDuration":285714,"Delta":241526109},{"NoteNumber":62,"Velocity":39,"Duration":257142,"SoundDuration":257142,"Delta":241526109},{"NoteNumber":74,"Velocity":46,"Duration":257142,"SoundDuration":257142,"Delta":241526109},{"NoteNumber":50,"Velocity":33,"Duration":285714,"SoundDuration":285714,"Delta":241526109},{"NoteNumber":60,"Velocity":39,"Duration":285714,"SoundDuration":285714,"Delta":241526109},{"NoteNumber":62,"Velocity":42,"Duration":845237,"SoundDuration":845237,"Delta":242097537},{"NoteNumber":66,"Velocity":42,"Duration":857142,"SoundDuration":857142,"Delta":242097537},{"NoteNumber":74,"Velocity":51,"Duration":845237,"SoundDuration":845237,"Delta":242097537},{"NoteNumber":50,"Velocity":36,"Duration":845237,"SoundDuration":845237,"Delta":242097537},{"NoteNumber":60,"Velocity":42,"Duration":845237,"SoundDuration":845237,"Delta":242097537},{"NoteNumber":66,"Velocity":44,"Duration":443548,"SoundDuration":443548,"Delta":242954680},{"NoteNumber":62,"Velocity":44,"Duration":443548,"SoundDuration":443548,"Delta":242954680},{"NoteNumber":74,"Velocity":52,"Duration":443548,"SoundDuration":443548,"Delta":242954680},{"NoteNumber":50,"Velocity":37,"Duration":443548,"SoundDuration":443548,"Delta":242954680},{"NoteNumber":60,"Velocity":44,"Duration":443548,"SoundDuration":443548,"Delta":242954680},{"NoteNumber":62,"Velocity":39,"Duration":221774,"SoundDuration":221774,"Delta":243438551},{"NoteNumber":66,"Velocity":39,"Duration":221774,"SoundDuration":221774,"Delta":243438551},{"NoteNumber":74,"Velocity":47,"Duration":221774,"SoundDuration":221774,"Delta":243438551},{"NoteNumber":50,"Velocity":33,"Duration":221774,"SoundDuration":221774,"Delta":243438551},{"NoteNumber":60,"Velocity":39,"Duration":221774,"SoundDuration":221774,"Delta":243438551},{"NoteNumber":66,"Velocity":44,"Duration":285714,"SoundDuration":285714,"Delta":243680486},{"NoteNumber":62,"Velocity":44,"Duration":257142,"SoundDuration":257142,"Delta":243680486},{"NoteNumber":74,"Velocity":52,"Duration":257142,"SoundDuration":257142,"Delta":243680486},{"NoteNumber":50,"Velocity":37,"Duration":285714,"SoundDuration":285714,"Delta":243680486},{"NoteNumber":60,"Velocity":44,"Duration":285714,"SoundDuration":285714,"Delta":243680486},{"NoteNumber":62,"Velocity":39,"Duration":845237,"SoundDuration":845237,"Delta":244251915},{"NoteNumber":66,"Velocity":39,"Duration":857142,"SoundDuration":857142,"Delta":244251915},{"NoteNumber":74,"Velocity":47,"Duration":845237,"SoundDuration":845237,"Delta":244251915},{"NoteNumber":50,"Velocity":33,"Duration":845237,"SoundDuration":845237,"Delta":244251915},{"NoteNumber":60,"Velocity":39,"Duration":845237,"SoundDuration":845237,"Delta":244251915},{"NoteNumber":66,"Velocity":44,"Duration":241935,"SoundDuration":241935,"Delta":245109058},{"NoteNumber":63,"Velocity":44,"Duration":217741,"SoundDuration":217741,"Delta":245109058},{"NoteNumber":75,"Velocity":52,"Duration":217741,"SoundDuration":217741,"Delta":245109058},{"NoteNumber":47,"Velocity":37,"Duration":241935,"SoundDuration":241935,"Delta":245109058},{"NoteNumber":57,"Velocity":44,"Duration":241935,"SoundDuration":241935,"Delta":245109058},{"NoteNumber":63,"Velocity":39,"Duration":221774,"SoundDuration":221774,"Delta":245592929},{"NoteNumber":66,"Velocity":39,"Duration":221774,"SoundDuration":221774,"Delta":245592929},{"NoteNumber":75,"Velocity":47,"Duration":221774,"SoundDuration":221774,"Delta":245592929},{"NoteNumber":47,"Velocity":33,"Duration":221774,"SoundDuration":221774,"Delta":245592929},{"NoteNumber":57,"Velocity":39,"Duration":221774,"SoundDuration":221774,"Delta":245592929},{"NoteNumber":66,"Velocity":44,"Duration":555555,"SoundDuration":555555,"Delta":245834864},{"NoteNumber":63,"Velocity":44,"Duration":555555,"SoundDuration":555555,"Delta":245834864},{"NoteNumber":75,"Velocity":52,"Duration":555555,"SoundDuration":555555,"Delta":245834864},{"NoteNumber":47,"Velocity":37,"Duration":555555,"SoundDuration":555555,"Delta":245834864},{"NoteNumber":57,"Velocity":44,"Duration":555555,"SoundDuration":555555,"Delta":245834864},{"NoteNumber":63,"Velocity":39,"Duration":896464,"SoundDuration":896464,"Delta":246440925},{"NoteNumber":66,"Velocity":39,"Duration":909090,"SoundDuration":909090,"Delta":246440925},{"NoteNumber":75,"Velocity":47,"Duration":896464,"SoundDuration":896464,"Delta":246440925},{"NoteNumber":47,"Velocity":33,"Duration":896464,"SoundDuration":896464,"Delta":246440925},{"NoteNumber":57,"Velocity":39,"Duration":896464,"SoundDuration":896464,"Delta":246440925},{"NoteNumber":78,"Velocity":48,"Duration":260869,"SoundDuration":260869,"Delta":247350015},{"NoteNumber":75,"Velocity":48,"Duration":234782,"SoundDuration":234782,"Delta":247350015},{"NoteNumber":87,"Velocity":57,"Duration":234782,"SoundDuration":234782,"Delta":247350015},{"NoteNumber":46,"Velocity":40,"Duration":260869,"SoundDuration":260869,"Delta":247350015},{"NoteNumber":58,"Velocity":48,"Duration":260869,"SoundDuration":260869,"Delta":247350015},{"NoteNumber":75,"Velocity":39,"Duration":239130,"SoundDuration":239130,"Delta":247871754},{"NoteNumber":78,"Velocity":39,"Duration":239130,"SoundDuration":239130,"Delta":247871754},{"NoteNumber":87,"Velocity":47,"Duration":239130,"SoundDuration":239130,"Delta":247871754},{"NoteNumber":46,"Velocity":33,"Duration":239130,"SoundDuration":239130,"Delta":247871754},{"NoteNumber":58,"Velocity":39,"Duration":239130,"SoundDuration":239130,"Delta":247871754},{"NoteNumber":78,"Velocity":44,"Duration":604395,"SoundDuration":604395,"Delta":248132624},{"NoteNumber":75,"Velocity":44,"Duration":604395,"SoundDuration":604395,"Delta":248132624},{"NoteNumber":87,"Velocity":52,"Duration":604395,"SoundDuration":604395,"Delta":248132624},{"NoteNumber":46,"Velocity":37,"Duration":604395,"SoundDuration":604395,"Delta":248132624},{"NoteNumber":58,"Velocity":44,"Duration":604395,"SoundDuration":604395,"Delta":248132624},{"NoteNumber":75,"Velocity":39,"Duration":975274,"SoundDuration":975274,"Delta":248791964},{"NoteNumber":78,"Velocity":39,"Duration":989010,"SoundDuration":989010,"Delta":248791964},{"NoteNumber":87,"Velocity":47,"Duration":975274,"SoundDuration":975274,"Delta":248791964},{"NoteNumber":46,"Velocity":33,"Duration":975274,"SoundDuration":975274,"Delta":248791964},{"NoteNumber":58,"Velocity":39,"Duration":975274,"SoundDuration":975274,"Delta":248791964},{"NoteNumber":64,"Velocity":40,"Duration":275229,"SoundDuration":275229,"Delta":249780975},{"NoteNumber":61,"Velocity":40,"Duration":247706,"SoundDuration":247706,"Delta":249780975},{"NoteNumber":73,"Velocity":48,"Duration":247706,"SoundDuration":247706,"Delta":249780975},{"NoteNumber":45,"Velocity":34,"Duration":275229,"SoundDuration":275229,"Delta":249780975},{"NoteNumber":55,"Velocity":40,"Duration":275229,"SoundDuration":275229,"Delta":249780975},{"NoteNumber":61,"Velocity":33,"Duration":252293,"SoundDuration":252293,"Delta":250331434},{"NoteNumber":64,"Velocity":33,"Duration":252293,"SoundDuration":252293,"Delta":250331434},{"NoteNumber":73,"Velocity":39,"Duration":252293,"SoundDuration":252293,"Delta":250331434},{"NoteNumber":45,"Velocity":28,"Duration":252293,"SoundDuration":252293,"Delta":250331434},{"NoteNumber":55,"Velocity":33,"Duration":252293,"SoundDuration":252293,"Delta":250331434},{"NoteNumber":64,"Velocity":37,"Duration":632183,"SoundDuration":632183,"Delta":250606663},{"NoteNumber":61,"Velocity":37,"Duration":632183,"SoundDuration":632183,"Delta":250606663},{"NoteNumber":73,"Velocity":44,"Duration":632183,"SoundDuration":632183,"Delta":250606663},{"NoteNumber":45,"Velocity":31,"Duration":632183,"SoundDuration":632183,"Delta":250606663},{"NoteNumber":55,"Velocity":37,"Duration":632183,"SoundDuration":632183,"Delta":250606663},{"NoteNumber":61,"Velocity":33,"Duration":1020114,"SoundDuration":1020114,"Delta":251296318},{"NoteNumber":64,"Velocity":33,"Duration":1034482,"SoundDuration":1034482,"Delta":251296318},{"NoteNumber":73,"Velocity":39,"Duration":1020114,"SoundDuration":1020114,"Delta":251296318},{"NoteNumber":45,"Velocity":28,"Duration":1020114,"SoundDuration":1020114,"Delta":251296318},{"NoteNumber":55,"Velocity":33,"Duration":1020114,"SoundDuration":1020114,"Delta":251296318},{"NoteNumber":77,"Velocity":37,"Duration":280373,"SoundDuration":280373,"Delta":252330800},{"NoteNumber":73,"Velocity":37,"Duration":252336,"SoundDuration":252336,"Delta":252330800},{"NoteNumber":85,"Velocity":44,"Duration":252336,"SoundDuration":252336,"Delta":252330800},{"NoteNumber":44,"Velocity":31,"Duration":280373,"SoundDuration":280373,"Delta":252330800},{"NoteNumber":56,"Velocity":37,"Duration":280373,"SoundDuration":280373,"Delta":252330800},{"NoteNumber":73,"Velocity":33,"Duration":257009,"SoundDuration":257009,"Delta":252891548},{"NoteNumber":77,"Velocity":33,"Duration":257009,"SoundDuration":257009,"Delta":252891548},{"NoteNumber":85,"Velocity":39,"Duration":257009,"SoundDuration":257009,"Delta":252891548},{"NoteNumber":44,"Velocity":28,"Duration":257009,"SoundDuration":257009,"Delta":252891548},{"NoteNumber":56,"Velocity":33,"Duration":257009,"SoundDuration":257009,"Delta":252891548},{"NoteNumber":77,"Velocity":37,"Duration":743243,"SoundDuration":743243,"Delta":253171922},{"NoteNumber":73,"Velocity":37,"Duration":743243,"SoundDuration":743243,"Delta":253171922},{"NoteNumber":85,"Velocity":44,"Duration":743243,"SoundDuration":743243,"Delta":253171922},{"NoteNumber":44,"Velocity":31,"Duration":743243,"SoundDuration":743243,"Delta":253171922},{"NoteNumber":56,"Velocity":37,"Duration":743243,"SoundDuration":743243,"Delta":253171922},{"NoteNumber":73,"Velocity":33,"Duration":1199324,"SoundDuration":1199324,"Delta":253982733},{"NoteNumber":77,"Velocity":33,"Duration":1216216,"SoundDuration":1216216,"Delta":253982733},{"NoteNumber":85,"Velocity":39,"Duration":1199324,"SoundDuration":1199324,"Delta":253982733},{"NoteNumber":44,"Velocity":28,"Duration":1199324,"SoundDuration":1199324,"Delta":253982733},{"NoteNumber":56,"Velocity":33,"Duration":1199324,"SoundDuration":1199324,"Delta":253982733},{"NoteNumber":62,"Velocity":31,"Duration":315789,"SoundDuration":315789,"Delta":255198949},{"NoteNumber":59,"Velocity":31,"Duration":284210,"SoundDuration":284210,"Delta":255198949},{"NoteNumber":71,"Velocity":37,"Duration":284210,"SoundDuration":284210,"Delta":255198949},{"NoteNumber":43,"Velocity":26,"Duration":315789,"SoundDuration":315789,"Delta":255198949},{"NoteNumber":53,"Velocity":31,"Duration":315789,"SoundDuration":315789,"Delta":255198949},{"NoteNumber":59,"Velocity":28,"Duration":289473,"SoundDuration":289473,"Delta":255830528},{"NoteNumber":62,"Velocity":28,"Duration":289473,"SoundDuration":289473,"Delta":255830528},{"NoteNumber":71,"Velocity":33,"Duration":289473,"SoundDuration":289473,"Delta":255830528},{"NoteNumber":43,"Velocity":23,"Duration":289473,"SoundDuration":289473,"Delta":255830528},{"NoteNumber":53,"Velocity":28,"Duration":289473,"SoundDuration":289473,"Delta":255830528},{"NoteNumber":75,"Velocity":31,"Duration":389610,"SoundDuration":389610,"Delta":256535928},{"NoteNumber":71,"Velocity":31,"Duration":350649,"SoundDuration":350649,"Delta":256535928},{"NoteNumber":83,"Velocity":37,"Duration":350649,"SoundDuration":350649,"Delta":256535928},{"NoteNumber":42,"Velocity":26,"Duration":389610,"SoundDuration":389610,"Delta":256535928},{"NoteNumber":54,"Velocity":31,"Duration":389610,"SoundDuration":389610,"Delta":256535928},{"NoteNumber":71,"Velocity":28,"Duration":357142,"SoundDuration":357142,"Delta":257315149},{"NoteNumber":75,"Velocity":28,"Duration":357142,"SoundDuration":357142,"Delta":257315149},{"NoteNumber":83,"Velocity":33,"Duration":357142,"SoundDuration":357142,"Delta":257315149},{"NoteNumber":42,"Velocity":23,"Duration":357142,"SoundDuration":357142,"Delta":257315149},{"NoteNumber":54,"Velocity":28,"Duration":357142,"SoundDuration":357142,"Delta":257315149},{"NoteNumber":60,"Velocity":26,"Duration":389610,"SoundDuration":389610,"Delta":258094370},{"NoteNumber":57,"Velocity":26,"Duration":350649,"SoundDuration":350649,"Delta":258094370},{"NoteNumber":69,"Velocity":31,"Duration":350649,"SoundDuration":350649,"Delta":258094370},{"NoteNumber":41,"Velocity":22,"Duration":389610,"SoundDuration":389610,"Delta":258094370},{"NoteNumber":51,"Velocity":26,"Duration":389610,"SoundDuration":389610,"Delta":258094370},{"NoteNumber":57,"Velocity":23,"Duration":357142,"SoundDuration":357142,"Delta":258873591},{"NoteNumber":60,"Velocity":23,"Duration":357142,"SoundDuration":357142,"Delta":258873591},{"NoteNumber":69,"Velocity":28,"Duration":357142,"SoundDuration":357142,"Delta":258873591},{"NoteNumber":41,"Velocity":19,"Duration":357142,"SoundDuration":357142,"Delta":258873591},{"NoteNumber":51,"Velocity":23,"Duration":357142,"SoundDuration":357142,"Delta":258873591},{"NoteNumber":73,"Velocity":26,"Duration":389610,"SoundDuration":389610,"Delta":259652812},{"NoteNumber":69,"Velocity":26,"Duration":350649,"SoundDuration":350649,"Delta":259652812},{"NoteNumber":81,"Velocity":31,"Duration":350649,"SoundDuration":350649,"Delta":259652812},{"NoteNumber":40,"Velocity":22,"Duration":389610,"SoundDuration":389610,"Delta":259652812},{"NoteNumber":52,"Velocity":26,"Duration":389610,"SoundDuration":389610,"Delta":259652812},{"NoteNumber":69,"Velocity":23,"Duration":357142,"SoundDuration":357142,"Delta":260432033},{"NoteNumber":73,"Velocity":23,"Duration":357142,"SoundDuration":357142,"Delta":260432033},{"NoteNumber":81,"Velocity":28,"Duration":357142,"SoundDuration":357142,"Delta":260432033},{"NoteNumber":40,"Velocity":19,"Duration":357142,"SoundDuration":357142,"Delta":260432033},{"NoteNumber":52,"Velocity":23,"Duration":357142,"SoundDuration":357142,"Delta":260432033},{"NoteNumber":59,"Velocity":60,"Duration":1480519,"SoundDuration":1480519,"Delta":261600865},{"NoteNumber":62,"Velocity":60,"Duration":1480519,"SoundDuration":1480519,"Delta":261600865},{"NoteNumber":65,"Velocity":60,"Duration":1480519,"SoundDuration":1480519,"Delta":261600865},{"NoteNumber":69,"Velocity":72,"Duration":1480519,"SoundDuration":1480519,"Delta":261600865},{"NoteNumber":40,"Velocity":51,"Duration":1480519,"SoundDuration":1480519,"Delta":261600865},{"NoteNumber":52,"Velocity":60,"Duration":1480519,"SoundDuration":1480519,"Delta":261600865},{"NoteNumber":59,"Velocity":41,"Duration":779221,"SoundDuration":779221,"Delta":263159307},{"NoteNumber":62,"Velocity":41,"Duration":779221,"SoundDuration":779221,"Delta":263159307},{"NoteNumber":65,"Velocity":41,"Duration":779221,"SoundDuration":779221,"Delta":263159307},{"NoteNumber":69,"Velocity":49,"Duration":779221,"SoundDuration":779221,"Delta":263159307},{"NoteNumber":40,"Velocity":34,"Duration":779221,"SoundDuration":779221,"Delta":263159307},{"NoteNumber":52,"Velocity":41,"Duration":779221,"SoundDuration":779221,"Delta":263159307},{"NoteNumber":59,"Velocity":28,"Duration":2000000,"SoundDuration":2000000,"Delta":264938528},{"NoteNumber":62,"Velocity":28,"Duration":2000000,"SoundDuration":2000000,"Delta":264938528},{"NoteNumber":64,"Velocity":28,"Duration":2000000,"SoundDuration":2000000,"Delta":264938528},{"NoteNumber":68,"Velocity":33,"Duration":2000000,"SoundDuration":2000000,"Delta":264938528},{"NoteNumber":40,"Velocity":25,"Duration":2000000,"SoundDuration":2000000,"Delta":264938528},{"NoteNumber":52,"Velocity":30,"Duration":2000000,"SoundDuration":2000000,"Delta":264938528},{"NoteNumber":59,"Velocity":24,"Duration":899999,"SoundDuration":899999,"Delta":266938528},{"NoteNumber":62,"Velocity":24,"Duration":899999,"SoundDuration":899999,"Delta":266938528},{"NoteNumber":64,"Velocity":24,"Duration":899999,"SoundDuration":899999,"Delta":266938528},{"NoteNumber":68,"Velocity":29,"Duration":899999,"SoundDuration":899999,"Delta":266938528},{"NoteNumber":40,"Velocity":22,"Duration":899999,"SoundDuration":899999,"Delta":266938528},{"NoteNumber":52,"Velocity":26,"Duration":899999,"SoundDuration":899999,"Delta":266938528},{"NoteNumber":57,"Velocity":39,"Duration":418604,"SoundDuration":418604,"Delta":269401942},{"NoteNumber":61,"Velocity":39,"Duration":465116,"SoundDuration":465116,"Delta":269401942},{"NoteNumber":64,"Velocity":46,"Duration":465116,"SoundDuration":465116,"Delta":269401942},{"NoteNumber":76,"Velocity":52,"Duration":174418,"SoundDuration":174418,"Delta":269634500},{"NoteNumber":57,"Velocity":42,"Duration":418604,"SoundDuration":418604,"Delta":269867059},{"NoteNumber":62,"Velocity":42,"Duration":418604,"SoundDuration":418604,"Delta":269867059},{"NoteNumber":66,"Velocity":50,"Duration":418604,"SoundDuration":418604,"Delta":269867059},{"NoteNumber":80,"Velocity":52,"Duration":116279,"SoundDuration":116279,"Delta":270099617},{"NoteNumber":78,"Velocity":46,"Duration":116279,"SoundDuration":116279,"Delta":270215896},{"NoteNumber":57,"Velocity":28,"Duration":428953,"SoundDuration":428953,"Delta":270332175},{"NoteNumber":60,"Velocity":28,"Duration":428953,"SoundDuration":428953,"Delta":270332175},{"NoteNumber":63,"Velocity":34,"Duration":428953,"SoundDuration":428953,"Delta":270332175},{"NoteNumber":76,"Velocity":54,"Duration":127118,"SoundDuration":127118,"Delta":270557739},{"NoteNumber":75,"Velocity":46,"Duration":127118,"SoundDuration":127118,"Delta":270684858},{"NoteNumber":57,"Velocity":37,"Duration":1363636,"SoundDuration":1363636,"Delta":270811976},{"NoteNumber":61,"Velocity":37,"Duration":1344697,"SoundDuration":1344697,"Delta":270811976},{"NoteNumber":64,"Velocity":44,"Duration":1344697,"SoundDuration":1344697,"Delta":270811976},{"NoteNumber":76,"Velocity":50,"Duration":454545,"SoundDuration":454545,"Delta":271039249},{"NoteNumber":73,"Velocity":54,"Duration":227272,"SoundDuration":227272,"Delta":271493795},{"NoteNumber":76,"Velocity":55,"Duration":227272,"SoundDuration":227272,"Delta":271721067},{"NoteNumber":81,"Velocity":55,"Duration":170454,"SoundDuration":170454,"Delta":271948340},{"NoteNumber":61,"Velocity":42,"Duration":435606,"SoundDuration":435606,"Delta":272175613},{"NoteNumber":64,"Velocity":42,"Duration":435606,"SoundDuration":435606,"Delta":272175613},{"NoteNumber":69,"Velocity":55,"Duration":454545,"SoundDuration":454545,"Delta":272175613},{"NoteNumber":81,"Velocity":61,"Duration":170454,"SoundDuration":170454,"Delta":272402886},{"NoteNumber":61,"Velocity":42,"Duration":417989,"SoundDuration":417989,"Delta":272630158},{"NoteNumber":64,"Velocity":42,"Duration":436646,"SoundDuration":436646,"Delta":272630158},{"NoteNumber":71,"Velocity":57,"Duration":436646,"SoundDuration":436646,"Delta":272630158},{"NoteNumber":80,"Velocity":65,"Duration":167910,"SoundDuration":167910,"Delta":272842924},{"NoteNumber":61,"Velocity":47,"Duration":436090,"SoundDuration":436090,"Delta":273066805},{"NoteNumber":64,"Velocity":47,"Duration":436090,"SoundDuration":436090,"Delta":273066805},{"NoteNumber":73,"Velocity":61,"Duration":436090,"SoundDuration":436090,"Delta":273066805},{"NoteNumber":81,"Velocity":67,"Duration":197368,"SoundDuration":197368,"Delta":273292369},{"NoteNumber":62,"Velocity":38,"Duration":1347729,"SoundDuration":1347729,"Delta":273555527},{"NoteNumber":66,"Velocity":45,"Duration":1347729,"SoundDuration":1347729,"Delta":273555527},{"NoteNumber":73,"Velocity":58,"Duration":875288,"SoundDuration":875288,"Delta":273555527},{"NoteNumber":82,"Velocity":69,"Duration":687348,"SoundDuration":687348,"Delta":273979687},{"NoteNumber":71,"Velocity":44,"Duration":472441,"SoundDuration":472441,"Delta":274430815},{"NoteNumber":83,"Velocity":63,"Duration":236220,"SoundDuration":236220,"Delta":274667036},{"NoteNumber":61,"Velocity":40,"Duration":431654,"SoundDuration":431654,"Delta":274903256},{"NoteNumber":64,"Velocity":40,"Duration":431654,"SoundDuration":431654,"Delta":274903256},{"NoteNumber":69,"Velocity":56,"Duration":431654,"SoundDuration":431654,"Delta":274903256},{"NoteNumber":85,"Velocity":64,"Duration":161870,"SoundDuration":161870,"Delta":275119084},{"NoteNumber":59,"Velocity":40,"Duration":444444,"SoundDuration":444444,"Delta":275334911},{"NoteNumber":62,"Velocity":40,"Duration":444444,"SoundDuration":444444,"Delta":275334911},{"NoteNumber":68,"Velocity":51,"Duration":444444,"SoundDuration":444444,"Delta":275334911},{"NoteNumber":86,"Velocity":72,"Duration":166666,"SoundDuration":166666,"Delta":275557133},{"NoteNumber":57,"Velocity":37,"Duration":465564,"SoundDuration":465564,"Delta":275779355},{"NoteNumber":61,"Velocity":37,"Duration":417564,"SoundDuration":417564,"Delta":275779355},{"NoteNumber":66,"Velocity":48,"Duration":417564,"SoundDuration":417564,"Delta":275779355},{"NoteNumber":87,"Velocity":78,"Duration":180000,"SoundDuration":180000,"Delta":276004919},{"NoteNumber":59,"Velocity":42,"Duration":618171,"SoundDuration":618171,"Delta":276244919},{"NoteNumber":56,"Velocity":42,"Duration":1238738,"SoundDuration":1238738,"Delta":276244919},{"NoteNumber":64,"Velocity":50,"Duration":1238738,"SoundDuration":1238738,"Delta":276244919},{"NoteNumber":88,"Velocity":77,"Duration":638298,"SoundDuration":638298,"Delta":276650325},{"NoteNumber":61,"Velocity":42,"Duration":212765,"SoundDuration":212765,"Delta":276863091},{"NoteNumber":62,"Velocity":42,"Duration":425532,"SoundDuration":425532,"Delta":277075857},{"NoteNumber":90,"Velocity":68,"Duration":212765,"SoundDuration":212765,"Delta":277288623},{"NoteNumber":56,"Velocity":42,"Duration":209923,"SoundDuration":209923,"Delta":277501389},{"NoteNumber":62,"Velocity":42,"Duration":229007,"SoundDuration":229007,"Delta":277501389},{"NoteNumber":64,"Velocity":50,"Duration":209923,"SoundDuration":209923,"Delta":277501389},{"NoteNumber":88,"Velocity":71,"Duration":161870,"SoundDuration":161870,"Delta":277730397},{"NoteNumber":66,"Velocity":40,"Duration":107913,"SoundDuration":107913,"Delta":277730397},{"NoteNumber":68,"Velocity":40,"Duration":107913,"SoundDuration":107913,"Delta":277838310},{"NoteNumber":56,"Velocity":42,"Duration":409090,"SoundDuration":409090,"Delta":277946224},{"NoteNumber":62,"Velocity":42,"Duration":409090,"SoundDuration":409090,"Delta":277946224},{"NoteNumber":66,"Velocity":50,"Duration":409090,"SoundDuration":409090,"Delta":277946224},{"NoteNumber":86,"Velocity":66,"Duration":170454,"SoundDuration":170454,"Delta":278173497},{"NoteNumber":56,"Velocity":35,"Duration":448774,"SoundDuration":448774,"Delta":278400769},{"NoteNumber":62,"Velocity":35,"Duration":448774,"SoundDuration":448774,"Delta":278400769},{"NoteNumber":64,"Velocity":42,"Duration":448774,"SoundDuration":448774,"Delta":278400769},{"NoteNumber":83,"Velocity":62,"Duration":202702,"SoundDuration":202702,"Delta":278633328},{"NoteNumber":81,"Velocity":62,"Duration":225564,"SoundDuration":225564,"Delta":278903598},{"NoteNumber":57,"Velocity":42,"Duration":1676693,"SoundDuration":1676693,"Delta":278903598},{"NoteNumber":62,"Velocity":42,"Duration":1189405,"SoundDuration":1189405,"Delta":278903598},{"NoteNumber":66,"Velocity":50,"Duration":1189405,"SoundDuration":1189405,"Delta":278903598},{"NoteNumber":93,"Velocity":75,"Duration":563061,"SoundDuration":563061,"Delta":279129162},{"NoteNumber":92,"Velocity":54,"Duration":64123,"SoundDuration":64123,"Delta":279692224},{"NoteNumber":90,"Velocity":53,"Duration":64992,"SoundDuration":64992,"Delta":279756347},{"NoteNumber":88,"Velocity":51,"Duration":66124,"SoundDuration":66124,"Delta":279821340},{"NoteNumber":86,"Velocity":50,"Duration":67407,"SoundDuration":67407,"Delta":279887465},{"NoteNumber":85,"Velocity":48,"Duration":68686,"SoundDuration":68686,"Delta":279954872},{"NoteNumber":83,"Velocity":46,"Duration":69444,"SoundDuration":69444,"Delta":280023559},{"NoteNumber":81,"Velocity":53,"Duration":190677,"SoundDuration":190677,"Delta":280093003},{"NoteNumber":61,"Velocity":37,"Duration":487288,"SoundDuration":487288,"Delta":280093003},{"NoteNumber":64,"Velocity":44,"Duration":487288,"SoundDuration":487288,"Delta":280093003},{"NoteNumber":57,"Velocity":48,"Duration":465116,"SoundDuration":465116,"Delta":280601478},{"NoteNumber":61,"Velocity":57,"Duration":465116,"SoundDuration":465116,"Delta":280601478},{"NoteNumber":76,"Velocity":62,"Duration":174418,"SoundDuration":174418,"Delta":280834036},{"NoteNumber":57,"Velocity":52,"Duration":408112,"SoundDuration":408112,"Delta":281066594},{"NoteNumber":62,"Velocity":52,"Duration":408112,"SoundDuration":408112,"Delta":281066594},{"NoteNumber":66,"Velocity":62,"Duration":408112,"SoundDuration":408112,"Delta":281066594},{"NoteNumber":80,"Velocity":62,"Duration":111940,"SoundDuration":111940,"Delta":281295602},{"NoteNumber":78,"Velocity":59,"Duration":111940,"SoundDuration":111940,"Delta":281407542},{"NoteNumber":57,"Velocity":37,"Duration":440096,"SoundDuration":440096,"Delta":281519482},{"NoteNumber":60,"Velocity":37,"Duration":440096,"SoundDuration":440096,"Delta":281519482},{"NoteNumber":63,"Velocity":45,"Duration":440096,"SoundDuration":440096,"Delta":281519482},{"NoteNumber":76,"Velocity":62,"Duration":135135,"SoundDuration":135135,"Delta":281743363},{"NoteNumber":75,"Velocity":57,"Duration":135135,"SoundDuration":135135,"Delta":281878498},{"NoteNumber":57,"Velocity":43,"Duration":1358904,"SoundDuration":1358904,"Delta":282013633},{"NoteNumber":61,"Velocity":43,"Duration":1340248,"SoundDuration":1340248,"Delta":282013633},{"NoteNumber":64,"Velocity":53,"Duration":1340248,"SoundDuration":1340248,"Delta":282013633},{"NoteNumber":76,"Velocity":66,"Duration":447761,"SoundDuration":447761,"Delta":282237514},{"NoteNumber":73,"Velocity":66,"Duration":234375,"SoundDuration":234375,"Delta":282685275},{"NoteNumber":76,"Velocity":69,"Duration":229007,"SoundDuration":229007,"Delta":282919650},{"NoteNumber":81,"Velocity":66,"Duration":167910,"SoundDuration":167910,"Delta":283148657},{"NoteNumber":57,"Velocity":53,"Duration":429104,"SoundDuration":429104,"Delta":283372538},{"NoteNumber":61,"Velocity":62,"Duration":429104,"SoundDuration":429104,"Delta":283372538},{"NoteNumber":81,"Velocity":75,"Duration":167910,"SoundDuration":167910,"Delta":283596418},{"NoteNumber":57,"Velocity":62,"Duration":410714,"SoundDuration":410714,"Delta":283820299},{"NoteNumber":61,"Velocity":62,"Duration":410714,"SoundDuration":410714,"Delta":283820299},{"NoteNumber":64,"Velocity":70,"Duration":428571,"SoundDuration":428571,"Delta":283820299},{"NoteNumber":85,"Velocity":81,"Duration":160714,"SoundDuration":160714,"Delta":284034585},{"NoteNumber":61,"Velocity":56,"Duration":441397,"SoundDuration":441397,"Delta":284248870},{"NoteNumber":57,"Velocity":56,"Duration":441397,"SoundDuration":441397,"Delta":284248870},{"NoteNumber":63,"Velocity":56,"Duration":441397,"SoundDuration":441397,"Delta":284248870},{"NoteNumber":66,"Velocity":67,"Duration":441397,"SoundDuration":441397,"Delta":284248870},{"NoteNumber":87,"Velocity":85,"Duration":199115,"SoundDuration":199115,"Delta":284477878},{"NoteNumber":64,"Velocity":60,"Duration":1464509,"SoundDuration":1464509,"Delta":284743365},{"NoteNumber":56,"Velocity":60,"Duration":1488094,"SoundDuration":1488094,"Delta":284743365},{"NoteNumber":61,"Velocity":60,"Duration":1464509,"SoundDuration":1464509,"Delta":284743365},{"NoteNumber":68,"Velocity":71,"Duration":1464509,"SoundDuration":1464509,"Delta":284743365},{"NoteNumber":88,"Velocity":80,"Duration":469007,"SoundDuration":469007,"Delta":284972373},{"NoteNumber":90,"Velocity":76,"Duration":243902,"SoundDuration":243902,"Delta":285441380},{"NoteNumber":92,"Velocity":82,"Duration":263157,"SoundDuration":263157,"Delta":285685283},{"NoteNumber":97,"Velocity":75,"Duration":212264,"SoundDuration":212264,"Delta":285948441},{"NoteNumber":56,"Velocity":32,"Duration":447761,"SoundDuration":447761,"Delta":286231460},{"NoteNumber":64,"Velocity":32,"Duration":429104,"SoundDuration":429104,"Delta":286231460},{"NoteNumber":68,"Velocity":44,"Duration":447761,"SoundDuration":447761,"Delta":286231460},{"NoteNumber":85,"Velocity":62,"Duration":111940,"SoundDuration":111940,"Delta":286455340},{"NoteNumber":88,"Velocity":56,"Duration":111940,"SoundDuration":111940,"Delta":286567280},{"NoteNumber":56,"Velocity":32,"Duration":449218,"SoundDuration":449218,"Delta":286679221},{"NoteNumber":66,"Velocity":32,"Duration":449218,"SoundDuration":449218,"Delta":286679221},{"NoteNumber":68,"Velocity":40,"Duration":468750,"SoundDuration":468750,"Delta":286679221},{"NoteNumber":88,"Velocity":62,"Duration":117187,"SoundDuration":117187,"Delta":286913596},{"NoteNumber":87,"Velocity":57,"Duration":117187,"SoundDuration":117187,"Delta":287030783},{"NoteNumber":56,"Velocity":29,"Duration":446281,"SoundDuration":446281,"Delta":287147971},{"NoteNumber":63,"Velocity":29,"Duration":446281,"SoundDuration":446281,"Delta":287147971},{"NoteNumber":68,"Velocity":38,"Duration":446281,"SoundDuration":446281,"Delta":287147971},{"NoteNumber":87,"Velocity":62,"Duration":123966,"SoundDuration":123966,"Delta":287395905},{"NoteNumber":80,"Velocity":56,"Duration":123966,"SoundDuration":123966,"Delta":287519872},{"NoteNumber":64,"Velocity":33,"Duration":1428857,"SoundDuration":1428857,"Delta":287643839},{"NoteNumber":61,"Velocity":33,"Duration":1410338,"SoundDuration":1410338,"Delta":287643839},{"NoteNumber":68,"Velocity":44,"Duration":1410338,"SoundDuration":1410338,"Delta":287643839},{"NoteNumber":80,"Velocity":62,"Duration":394678,"SoundDuration":394678,"Delta":287867719},{"NoteNumber":81,"Velocity":57,"Duration":121951,"SoundDuration":121951,"Delta":288262398},{"NoteNumber":83,"Velocity":59,"Duration":121951,"SoundDuration":121951,"Delta":288384349},{"NoteNumber":84,"Velocity":60,"Duration":121951,"SoundDuration":121951,"Delta":288506300},{"NoteNumber":85,"Velocity":62,"Duration":166666,"SoundDuration":166666,"Delta":288628251},{"NoteNumber":85,"Velocity":62,"Duration":166666,"SoundDuration":166666,"Delta":288850474},{"NoteNumber":52,"Velocity":33,"Duration":468750,"SoundDuration":468750,"Delta":289072696},{"NoteNumber":61,"Velocity":33,"Duration":449218,"SoundDuration":449218,"Delta":289072696},{"NoteNumber":64,"Velocity":40,"Duration":468750,"SoundDuration":468750,"Delta":289072696},{"NoteNumber":93,"Velocity":62,"Duration":117187,"SoundDuration":117187,"Delta":289307071},{"NoteNumber":97,"Velocity":57,"Duration":117187,"SoundDuration":117187,"Delta":289424258},{"NoteNumber":52,"Velocity":33,"Duration":487804,"SoundDuration":487804,"Delta":289541446},{"NoteNumber":62,"Velocity":33,"Duration":439024,"SoundDuration":439024,"Delta":289541446},{"NoteNumber":64,"Velocity":40,"Duration":439024,"SoundDuration":439024,"Delta":289541446},{"NoteNumber":97,"Velocity":62,"Duration":121951,"SoundDuration":121951,"Delta":289785348},{"NoteNumber":95,"Velocity":57,"Duration":121951,"SoundDuration":121951,"Delta":289907300},{"NoteNumber":52,"Velocity":28,"Duration":483525,"SoundDuration":483525,"Delta":290029251},{"NoteNumber":59,"Velocity":28,"Duration":483525,"SoundDuration":483525,"Delta":290029251},{"NoteNumber":64,"Velocity":33,"Duration":483525,"SoundDuration":483525,"Delta":290029251},{"NoteNumber":95,"Velocity":62,"Duration":148514,"SoundDuration":148514,"Delta":290275153},{"NoteNumber":88,"Velocity":57,"Duration":148514,"SoundDuration":148514,"Delta":290423667},{"NoteNumber":57,"Velocity":33,"Duration":1514646,"SoundDuration":1514646,"Delta":290572182},{"NoteNumber":61,"Velocity":33,"Duration":1514646,"SoundDuration":1514646,"Delta":290572182},{"NoteNumber":64,"Velocity":40,"Duration":1514646,"SoundDuration":1514646,"Delta":290572182},{"NoteNumber":88,"Velocity":62,"Duration":376645,"SoundDuration":376645,"Delta":290816085},{"NoteNumber":90,"Velocity":56,"Duration":132743,"SoundDuration":132743,"Delta":291192731},{"NoteNumber":91,"Velocity":58,"Duration":132743,"SoundDuration":132743,"Delta":291325474},{"NoteNumber":92,"Velocity":60,"Duration":132743,"SoundDuration":132743,"Delta":291458217},{"NoteNumber":93,"Velocity":62,"Duration":247933,"SoundDuration":247933,"Delta":291590961},{"NoteNumber":81,"Velocity":44,"Duration":483871,"SoundDuration":483871,"Delta":292086829},{"NoteNumber":73,"Velocity":44,"Duration":483871,"SoundDuration":483871,"Delta":292086829},{"NoteNumber":76,"Velocity":52,"Duration":483871,"SoundDuration":483871,"Delta":292086829},{"NoteNumber":71,"Velocity":52,"Duration":181451,"SoundDuration":181451,"Delta":292328764},{"NoteNumber":81,"Velocity":48,"Duration":472441,"SoundDuration":472441,"Delta":292570700},{"NoteNumber":74,"Velocity":48,"Duration":425196,"SoundDuration":425196,"Delta":292570700},{"NoteNumber":78,"Velocity":57,"Duration":425196,"SoundDuration":425196,"Delta":292570700},{"NoteNumber":69,"Velocity":48,"Duration":177165,"SoundDuration":177165,"Delta":292806920},{"NoteNumber":81,"Velocity":39,"Duration":492630,"SoundDuration":492630,"Delta":293043141},{"NoteNumber":72,"Velocity":39,"Duration":441348,"SoundDuration":441348,"Delta":293043141},{"NoteNumber":75,"Velocity":46,"Duration":441348,"SoundDuration":441348,"Delta":293043141},{"NoteNumber":66,"Velocity":52,"Duration":192307,"SoundDuration":192307,"Delta":293279361},{"NoteNumber":81,"Velocity":44,"Duration":1348231,"SoundDuration":1348231,"Delta":293535772},{"NoteNumber":73,"Velocity":44,"Duration":1348231,"SoundDuration":1348231,"Delta":293535772},{"NoteNumber":76,"Velocity":54,"Duration":1348231,"SoundDuration":1348231,"Delta":293535772},{"NoteNumber":64,"Velocity":54,"Duration":342709,"SoundDuration":342709,"Delta":293766541},{"NoteNumber":69,"Velocity":47,"Duration":111940,"SoundDuration":111940,"Delta":294109250},{"NoteNumber":64,"Velocity":44,"Duration":111940,"SoundDuration":111940,"Delta":294221191},{"NoteNumber":61,"Velocity":44,"Duration":111940,"SoundDuration":111940,"Delta":294333131},{"NoteNumber":57,"Velocity":52,"Duration":171755,"SoundDuration":171755,"Delta":294445071},{"NoteNumber":57,"Velocity":52,"Duration":171755,"SoundDuration":171755,"Delta":294674079},{"NoteNumber":73,"Velocity":48,"Duration":956920,"SoundDuration":956920,"Delta":294903087},{"NoteNumber":76,"Velocity":48,"Duration":956920,"SoundDuration":956920,"Delta":294903087},{"NoteNumber":81,"Velocity":63,"Duration":491803,"SoundDuration":491803,"Delta":294903087},{"NoteNumber":61,"Velocity":48,"Duration":184426,"SoundDuration":184426,"Delta":295148988},{"NoteNumber":83,"Velocity":65,"Duration":465116,"SoundDuration":465116,"Delta":295394890},{"NoteNumber":64,"Velocity":52,"Duration":174418,"SoundDuration":174418,"Delta":295627448},{"NoteNumber":73,"Velocity":54,"Duration":450506,"SoundDuration":450506,"Delta":295860007},{"NoteNumber":76,"Velocity":54,"Duration":450506,"SoundDuration":450506,"Delta":295860007},{"NoteNumber":85,"Velocity":70,"Duration":450506,"SoundDuration":450506,"Delta":295860007},{"NoteNumber":69,"Velocity":54,"Duration":200892,"SoundDuration":200892,"Delta":296096227},{"NoteNumber":74,"Velocity":43,"Duration":1402184,"SoundDuration":1402184,"Delta":296364084},{"NoteNumber":78,"Velocity":51,"Duration":1402184,"SoundDuration":1402184,"Delta":296364084},{"NoteNumber":85,"Velocity":66,"Duration":906316,"SoundDuration":906316,"Delta":296364084},{"NoteNumber":70,"Velocity":58,"Duration":335257,"SoundDuration":335257,"Delta":296586307},{"NoteNumber":73,"Velocity":47,"Duration":116279,"SoundDuration":116279,"Delta":296921564},{"NoteNumber":71,"Velocity":48,"Duration":116279,"SoundDuration":116279,"Delta":297037843},{"NoteNumber":70,"Velocity":48,"Duration":116279,"SoundDuration":116279,"Delta":297154122},{"NoteNumber":83,"Velocity":50,"Duration":495867,"SoundDuration":495867,"Delta":297270401},{"NoteNumber":71,"Velocity":52,"Duration":185950,"SoundDuration":185950,"Delta":297270401},{"NoteNumber":71,"Velocity":51,"Duration":185950,"SoundDuration":185950,"Delta":297518335},{"NoteNumber":74,"Velocity":46,"Duration":432330,"SoundDuration":432330,"Delta":297766269},{"NoteNumber":81,"Velocity":64,"Duration":451127,"SoundDuration":451127,"Delta":297766269},{"NoteNumber":62,"Velocity":39,"Duration":169173,"SoundDuration":169173,"Delta":297991833},{"NoteNumber":66,"Velocity":46,"Duration":169173,"SoundDuration":169173,"Delta":297991833},{"NoteNumber":74,"Velocity":46,"Duration":438931,"SoundDuration":438931,"Delta":298217397},{"NoteNumber":80,"Velocity":58,"Duration":458015,"SoundDuration":458015,"Delta":298217397},{"NoteNumber":64,"Velocity":35,"Duration":171755,"SoundDuration":171755,"Delta":298446405},{"NoteNumber":68,"Velocity":42,"Duration":171755,"SoundDuration":171755,"Delta":298446405},{"NoteNumber":74,"Velocity":42,"Duration":445128,"SoundDuration":445128,"Delta":298675413},{"NoteNumber":78,"Velocity":55,"Duration":445128,"SoundDuration":445128,"Delta":298675413},{"NoteNumber":66,"Velocity":39,"Duration":192307,"SoundDuration":192307,"Delta":298915413},{"NoteNumber":69,"Velocity":46,"Duration":192307,"SoundDuration":192307,"Delta":298915413},{"NoteNumber":74,"Velocity":48,"Duration":1341391,"SoundDuration":1341391,"Delta":299171823},{"NoteNumber":76,"Velocity":57,"Duration":1341391,"SoundDuration":1341391,"Delta":299171823},{"NoteNumber":68,"Velocity":39,"Duration":336726,"SoundDuration":336726,"Delta":299394045},{"NoteNumber":71,"Velocity":46,"Duration":336726,"SoundDuration":336726,"Delta":299394045},{"NoteNumber":69,"Velocity":35,"Duration":114503,"SoundDuration":114503,"Delta":299730771},{"NoteNumber":73,"Velocity":41,"Duration":114503,"SoundDuration":114503,"Delta":299730771},{"NoteNumber":68,"Velocity":35,"Duration":114503,"SoundDuration":114503,"Delta":299845275},{"NoteNumber":71,"Velocity":41,"Duration":114503,"SoundDuration":114503,"Delta":299845275},{"NoteNumber":66,"Velocity":35,"Duration":114503,"SoundDuration":114503,"Delta":299959779},{"NoteNumber":69,"Velocity":41,"Duration":114503,"SoundDuration":114503,"Delta":299959779},{"NoteNumber":68,"Velocity":38,"Duration":171755,"SoundDuration":171755,"Delta":300074283},{"NoteNumber":71,"Velocity":45,"Duration":171755,"SoundDuration":171755,"Delta":300074283},{"NoteNumber":68,"Velocity":39,"Duration":171755,"SoundDuration":171755,"Delta":300303291},{"NoteNumber":71,"Velocity":46,"Duration":171755,"SoundDuration":171755,"Delta":300303291},{"NoteNumber":68,"Velocity":50,"Duration":453826,"SoundDuration":453826,"Delta":300532298},{"NoteNumber":74,"Velocity":50,"Duration":453826,"SoundDuration":453826,"Delta":300532298},{"NoteNumber":76,"Velocity":59,"Duration":453826,"SoundDuration":453826,"Delta":300532298},{"NoteNumber":64,"Velocity":52,"Duration":171755,"SoundDuration":171755,"Delta":300776201},{"NoteNumber":68,"Velocity":55,"Duration":412213,"SoundDuration":412213,"Delta":301005209},{"NoteNumber":74,"Velocity":56,"Duration":412213,"SoundDuration":412213,"Delta":301005209},{"NoteNumber":78,"Velocity":65,"Duration":412213,"SoundDuration":412213,"Delta":301005209},{"NoteNumber":62,"Velocity":54,"Duration":171755,"SoundDuration":171755,"Delta":301234216},{"NoteNumber":68,"Velocity":50,"Duration":423978,"SoundDuration":423978,"Delta":301463224},{"NoteNumber":74,"Velocity":50,"Duration":423978,"SoundDuration":423978,"Delta":301463224},{"NoteNumber":76,"Velocity":59,"Duration":423978,"SoundDuration":423978,"Delta":301463224},{"NoteNumber":59,"Velocity":59,"Duration":190677,"SoundDuration":190677,"Delta":301683812},{"NoteNumber":74,"Velocity":58,"Duration":1134559,"SoundDuration":1134559,"Delta":301938050},{"NoteNumber":78,"Velocity":69,"Duration":1134559,"SoundDuration":1134559,"Delta":301938050},{"NoteNumber":57,"Velocity":62,"Duration":238095,"SoundDuration":238095,"Delta":301938050},{"NoteNumber":69,"Velocity":71,"Duration":479797,"SoundDuration":479797,"Delta":302176145},{"NoteNumber":68,"Velocity":46,"Duration":69444,"SoundDuration":69444,"Delta":302655943},{"NoteNumber":66,"Velocity":45,"Duration":69444,"SoundDuration":69444,"Delta":302725387},{"NoteNumber":64,"Velocity":44,"Duration":69444,"SoundDuration":69444,"Delta":302794832},{"NoteNumber":62,"Velocity":43,"Duration":69444,"SoundDuration":69444,"Delta":302864276},{"NoteNumber":61,"Velocity":42,"Duration":69444,"SoundDuration":69444,"Delta":302933720},{"NoteNumber":59,"Velocity":40,"Duration":69444,"SoundDuration":69444,"Delta":303003165},{"NoteNumber":73,"Velocity":42,"Duration":467479,"SoundDuration":467479,"Delta":303072609},{"NoteNumber":76,"Velocity":50,"Duration":467479,"SoundDuration":467479,"Delta":303072609},{"NoteNumber":57,"Velocity":47,"Duration":138211,"SoundDuration":138211,"Delta":303072609},{"NoteNumber":57,"Velocity":52,"Duration":182926,"SoundDuration":182926,"Delta":303316512},{"NoteNumber":76,"Velocity":60,"Duration":472441,"SoundDuration":472441,"Delta":303560414},{"NoteNumber":69,"Velocity":60,"Duration":452755,"SoundDuration":452755,"Delta":303560414},{"NoteNumber":73,"Velocity":71,"Duration":472441,"SoundDuration":472441,"Delta":303560414},{"NoteNumber":47,"Velocity":53,"Duration":177165,"SoundDuration":177165,"Delta":303796635},{"NoteNumber":59,"Velocity":63,"Duration":177165,"SoundDuration":177165,"Delta":303796635},{"NoteNumber":69,"Velocity":64,"Duration":418604,"SoundDuration":418604,"Delta":304032855},{"NoteNumber":74,"Velocity":64,"Duration":418604,"SoundDuration":418604,"Delta":304032855},{"NoteNumber":78,"Velocity":78,"Duration":418604,"SoundDuration":418604,"Delta":304032855},{"NoteNumber":45,"Velocity":60,"Duration":174418,"SoundDuration":174418,"Delta":304265414},{"NoteNumber":57,"Velocity":71,"Duration":174418,"SoundDuration":174418,"Delta":304265414},{"NoteNumber":69,"Velocity":59,"Duration":435897,"SoundDuration":435897,"Delta":304497972},{"NoteNumber":72,"Velocity":59,"Duration":435897,"SoundDuration":435897,"Delta":304497972},{"NoteNumber":75,"Velocity":71,"Duration":435897,"SoundDuration":435897,"Delta":304497972},{"NoteNumber":42,"Velocity":62,"Duration":192307,"SoundDuration":192307,"Delta":304728741},{"NoteNumber":54,"Velocity":66,"Duration":192307,"SoundDuration":192307,"Delta":304728741},{"NoteNumber":69,"Velocity":66,"Duration":1361330,"SoundDuration":1361330,"Delta":304985151},{"NoteNumber":73,"Velocity":66,"Duration":1341644,"SoundDuration":1341644,"Delta":304985151},{"NoteNumber":76,"Velocity":82,"Duration":1341644,"SoundDuration":1341644,"Delta":304985151},{"NoteNumber":40,"Velocity":60,"Duration":444444,"SoundDuration":444444,"Delta":305207374},{"NoteNumber":52,"Velocity":71,"Duration":444444,"SoundDuration":444444,"Delta":305207374},{"NoteNumber":37,"Velocity":51,"Duration":166666,"SoundDuration":166666,"Delta":305651818},{"NoteNumber":49,"Velocity":60,"Duration":166666,"SoundDuration":166666,"Delta":305651818},{"NoteNumber":40,"Velocity":56,"Duration":177165,"SoundDuration":177165,"Delta":305874040},{"NoteNumber":52,"Velocity":66,"Duration":177165,"SoundDuration":177165,"Delta":305874040},{"NoteNumber":45,"Velocity":51,"Duration":177165,"SoundDuration":177165,"Delta":306110261},{"NoteNumber":57,"Velocity":60,"Duration":177165,"SoundDuration":177165,"Delta":306110261},{"NoteNumber":69,"Velocity":66,"Duration":438931,"SoundDuration":438931,"Delta":306346481},{"NoteNumber":73,"Velocity":66,"Duration":438931,"SoundDuration":438931,"Delta":306346481},{"NoteNumber":76,"Velocity":78,"Duration":438931,"SoundDuration":438931,"Delta":306346481},{"NoteNumber":61,"Velocity":60,"Duration":171755,"SoundDuration":171755,"Delta":306575489},{"NoteNumber":49,"Velocity":51,"Duration":171755,"SoundDuration":171755,"Delta":306575489},{"NoteNumber":73,"Velocity":78,"Duration":445736,"SoundDuration":445736,"Delta":306804497},{"NoteNumber":76,"Velocity":78,"Duration":445736,"SoundDuration":445736,"Delta":306804497},{"NoteNumber":81,"Velocity":88,"Duration":465116,"SoundDuration":465116,"Delta":306804497},{"NoteNumber":47,"Velocity":56,"Duration":174418,"SoundDuration":174418,"Delta":307037055},{"NoteNumber":59,"Velocity":66,"Duration":174418,"SoundDuration":174418,"Delta":307037055},{"NoteNumber":76,"Velocity":70,"Duration":476124,"SoundDuration":476124,"Delta":307269613},{"NoteNumber":81,"Velocity":70,"Duration":476124,"SoundDuration":476124,"Delta":307269613},{"NoteNumber":85,"Velocity":84,"Duration":476124,"SoundDuration":476124,"Delta":307269613},{"NoteNumber":45,"Velocity":57,"Duration":185950,"SoundDuration":185950,"Delta":307547391},{"NoteNumber":57,"Velocity":68,"Duration":185950,"SoundDuration":185950,"Delta":307547391},{"NoteNumber":85,"Velocity":75,"Duration":1452620,"SoundDuration":1452620,"Delta":307795325},{"NoteNumber":76,"Velocity":75,"Duration":1474360,"SoundDuration":1474360,"Delta":307795325},{"NoteNumber":80,"Velocity":75,"Duration":1452620,"SoundDuration":1452620,"Delta":307795325},{"NoteNumber":88,"Velocity":89,"Duration":1452620,"SoundDuration":1452620,"Delta":307795325},{"NoteNumber":44,"Velocity":61,"Duration":476310,"SoundDuration":476310,"Delta":308029700},{"NoteNumber":56,"Velocity":72,"Duration":476310,"SoundDuration":476310,"Delta":308029700},{"NoteNumber":40,"Velocity":49,"Duration":241935,"SoundDuration":241935,"Delta":308506011},{"NoteNumber":52,"Velocity":58,"Duration":241935,"SoundDuration":241935,"Delta":308506011},{"NoteNumber":44,"Velocity":51,"Duration":195652,"SoundDuration":195652,"Delta":308747946},{"NoteNumber":56,"Velocity":61,"Duration":195652,"SoundDuration":195652,"Delta":308747946},{"NoteNumber":61,"Velocity":57,"Duration":195652,"SoundDuration":195652,"Delta":309008816},{"NoteNumber":49,"Velocity":48,"Duration":195652,"SoundDuration":195652,"Delta":309008816},{"NoteNumber":73,"Velocity":61,"Duration":454545,"SoundDuration":454545,"Delta":309269685},{"NoteNumber":80,"Velocity":61,"Duration":435606,"SoundDuration":435606,"Delta":309269685},{"NoteNumber":85,"Velocity":84,"Duration":454545,"SoundDuration":454545,"Delta":309269685},{"NoteNumber":64,"Velocity":61,"Duration":170454,"SoundDuration":170454,"Delta":309496958},{"NoteNumber":52,"Velocity":51,"Duration":170454,"SoundDuration":170454,"Delta":309496958},{"NoteNumber":75,"Velocity":68,"Duration":452755,"SoundDuration":452755,"Delta":309724231},{"NoteNumber":78,"Velocity":73,"Duration":452755,"SoundDuration":452755,"Delta":309724231},{"NoteNumber":87,"Velocity":84,"Duration":452755,"SoundDuration":452755,"Delta":309724231},{"NoteNumber":69,"Velocity":56,"Duration":177165,"SoundDuration":177165,"Delta":309960451},{"NoteNumber":57,"Velocity":47,"Duration":177165,"SoundDuration":177165,"Delta":309960451},{"NoteNumber":84,"Velocity":56,"Duration":500000,"SoundDuration":500000,"Delta":310196672},{"NoteNumber":78,"Velocity":56,"Duration":449999,"SoundDuration":449999,"Delta":310196672},{"NoteNumber":87,"Velocity":56,"Duration":449999,"SoundDuration":449999,"Delta":310196672},{"NoteNumber":92,"Velocity":72,"Duration":449999,"SoundDuration":449999,"Delta":310196672},{"NoteNumber":44,"Velocity":51,"Duration":187500,"SoundDuration":187500,"Delta":310446672},{"NoteNumber":56,"Velocity":61,"Duration":187500,"SoundDuration":187500,"Delta":310446672},{"NoteNumber":80,"Velocity":62,"Duration":1352190,"SoundDuration":1352190,"Delta":310696672},{"NoteNumber":76,"Velocity":62,"Duration":1352190,"SoundDuration":1352190,"Delta":310696672},{"NoteNumber":73,"Velocity":62,"Duration":1333533,"SoundDuration":1333533,"Delta":310696672},{"NoteNumber":85,"Velocity":84,"Duration":1333533,"SoundDuration":1333533,"Delta":310696672},{"NoteNumber":49,"Velocity":59,"Duration":467782,"SoundDuration":467782,"Delta":310909438},{"NoteNumber":61,"Velocity":70,"Duration":467782,"SoundDuration":467782,"Delta":310909438},{"NoteNumber":44,"Velocity":50,"Duration":223880,"SoundDuration":223880,"Delta":311377221},{"NoteNumber":56,"Velocity":59,"Duration":223880,"SoundDuration":223880,"Delta":311377221},{"NoteNumber":40,"Velocity":53,"Duration":167910,"SoundDuration":167910,"Delta":311601101},{"NoteNumber":52,"Velocity":63,"Duration":167910,"SoundDuration":167910,"Delta":311601101},{"NoteNumber":37,"Velocity":51,"Duration":167910,"SoundDuration":167910,"Delta":311824982},{"NoteNumber":49,"Velocity":60,"Duration":167910,"SoundDuration":167910,"Delta":311824982},{"NoteNumber":64,"Velocity":37,"Duration":468750,"SoundDuration":468750,"Delta":312048862},{"NoteNumber":69,"Velocity":46,"Duration":468750,"SoundDuration":468750,"Delta":312048862},{"NoteNumber":49,"Velocity":39,"Duration":175781,"SoundDuration":175781,"Delta":312283237},{"NoteNumber":63,"Velocity":37,"Duration":483871,"SoundDuration":483871,"Delta":312517612},{"NoteNumber":69,"Velocity":37,"Duration":435483,"SoundDuration":435483,"Delta":312517612},{"NoteNumber":71,"Velocity":46,"Duration":435483,"SoundDuration":435483,"Delta":312517612},{"NoteNumber":54,"Velocity":44,"Duration":181451,"SoundDuration":181451,"Delta":312759548},{"NoteNumber":68,"Velocity":32,"Duration":528920,"SoundDuration":528920,"Delta":313001483},{"NoteNumber":62,"Velocity":32,"Duration":472316,"SoundDuration":472316,"Delta":313001483},{"NoteNumber":71,"Velocity":32,"Duration":472316,"SoundDuration":472316,"Delta":313001483},{"NoteNumber":76,"Velocity":37,"Duration":472316,"SoundDuration":472316,"Delta":313001483},{"NoteNumber":52,"Velocity":41,"Duration":212264,"SoundDuration":212264,"Delta":313247385},{"NoteNumber":61,"Velocity":37,"Duration":1451613,"SoundDuration":1451613,"Delta":313530404},{"NoteNumber":69,"Velocity":46,"Duration":1451613,"SoundDuration":1451613,"Delta":313530404},{"NoteNumber":54,"Velocity":51,"Duration":483870,"SoundDuration":483870,"Delta":313772339},{"NoteNumber":49,"Velocity":39,"Duration":181451,"SoundDuration":181451,"Delta":314256210},{"NoteNumber":45,"Velocity":44,"Duration":241935,"SoundDuration":241935,"Delta":314498146},{"NoteNumber":42,"Velocity":39,"Duration":241935,"SoundDuration":241935,"Delta":314740081},{"NoteNumber":73,"Velocity":47,"Duration":504201,"SoundDuration":504201,"Delta":314982017},{"NoteNumber":79,"Velocity":47,"Duration":483193,"SoundDuration":483193,"Delta":314982017},{"NoteNumber":82,"Velocity":77,"Duration":504201,"SoundDuration":504201,"Delta":314982017},{"NoteNumber":40,"Velocity":50,"Duration":252100,"SoundDuration":252100,"Delta":315234117},{"NoteNumber":52,"Velocity":59,"Duration":252100,"SoundDuration":252100,"Delta":315234117},{"NoteNumber":74,"Velocity":68,"Duration":513393,"SoundDuration":513393,"Delta":315486218},{"NoteNumber":79,"Velocity":68,"Duration":513393,"SoundDuration":513393,"Delta":315486218},{"NoteNumber":83,"Velocity":80,"Duration":535714,"SoundDuration":535714,"Delta":315486218},{"NoteNumber":38,"Velocity":52,"Duration":267857,"SoundDuration":267857,"Delta":315754075},{"NoteNumber":50,"Velocity":62,"Duration":267857,"SoundDuration":267857,"Delta":315754075},{"NoteNumber":79,"Velocity":71,"Duration":571428,"SoundDuration":571428,"Delta":316021933},{"NoteNumber":76,"Velocity":71,"Duration":514285,"SoundDuration":514285,"Delta":316021933},{"NoteNumber":85,"Velocity":84,"Duration":514285,"SoundDuration":514285,"Delta":316021933},{"NoteNumber":37,"Velocity":56,"Duration":285714,"SoundDuration":285714,"Delta":316307647},{"NoteNumber":49,"Velocity":67,"Duration":285714,"SoundDuration":285714,"Delta":316307647},{"NoteNumber":79,"Velocity":69,"Duration":1373949,"SoundDuration":1373949,"Delta":316593361},{"NoteNumber":83,"Velocity":76,"Duration":1373949,"SoundDuration":1373949,"Delta":316593361},{"NoteNumber":74,"Velocity":69,"Duration":1373949,"SoundDuration":1373949,"Delta":316593361},{"NoteNumber":86,"Velocity":102,"Duration":1373949,"SoundDuration":1373949,"Delta":316593361},{"NoteNumber":35,"Velocity":56,"Duration":571428,"SoundDuration":571428,"Delta":317164790},{"NoteNumber":38,"Velocity":56,"Duration":571428,"SoundDuration":571428,"Delta":317164790},{"NoteNumber":43,"Velocity":56,"Duration":571428,"SoundDuration":571428,"Delta":317164790},{"NoteNumber":47,"Velocity":67,"Duration":571428,"SoundDuration":571428,"Delta":317164790},{"NoteNumber":83,"Velocity":52,"Duration":189075,"SoundDuration":189075,"Delta":317988319},{"NoteNumber":86,"Velocity":62,"Duration":189075,"SoundDuration":189075,"Delta":317988319},{"NoteNumber":79,"Velocity":58,"Duration":189075,"SoundDuration":189075,"Delta":318240420},{"NoteNumber":83,"Velocity":69,"Duration":189075,"SoundDuration":189075,"Delta":318240420},{"NoteNumber":74,"Velocity":51,"Duration":189075,"SoundDuration":189075,"Delta":318492520},{"NoteNumber":79,"Velocity":61,"Duration":189075,"SoundDuration":189075,"Delta":318492520},{"NoteNumber":71,"Velocity":56,"Duration":189075,"SoundDuration":189075,"Delta":318744621},{"NoteNumber":74,"Velocity":66,"Duration":189075,"SoundDuration":189075,"Delta":318744621},{"NoteNumber":67,"Velocity":46,"Duration":189075,"SoundDuration":189075,"Delta":318996722},{"NoteNumber":71,"Velocity":55,"Duration":189075,"SoundDuration":189075,"Delta":318996722},{"NoteNumber":62,"Velocity":52,"Duration":195652,"SoundDuration":195652,"Delta":319248823},{"NoteNumber":67,"Velocity":62,"Duration":195652,"SoundDuration":195652,"Delta":319248823},{"NoteNumber":59,"Velocity":45,"Duration":255681,"SoundDuration":255681,"Delta":319509692},{"NoteNumber":62,"Velocity":53,"Duration":255681,"SoundDuration":255681,"Delta":319509692},{"NoteNumber":43,"Velocity":45,"Duration":255681,"SoundDuration":255681,"Delta":319509692},{"NoteNumber":55,"Velocity":53,"Duration":255681,"SoundDuration":255681,"Delta":319509692},{"NoteNumber":60,"Velocity":52,"Duration":1538461,"SoundDuration":1538461,"Delta":319850601},{"NoteNumber":64,"Velocity":62,"Duration":1538461,"SoundDuration":1538461,"Delta":319850601},{"NoteNumber":48,"Velocity":45,"Duration":1538461,"SoundDuration":1538461,"Delta":319850601},{"NoteNumber":55,"Velocity":53,"Duration":1538461,"SoundDuration":1538461,"Delta":319850601},{"NoteNumber":59,"Velocity":41,"Duration":192307,"SoundDuration":192307,"Delta":321389063},{"NoteNumber":62,"Velocity":49,"Duration":192307,"SoundDuration":192307,"Delta":321389063},{"NoteNumber":43,"Velocity":33,"Duration":192307,"SoundDuration":192307,"Delta":321389063},{"NoteNumber":55,"Velocity":39,"Duration":192307,"SoundDuration":192307,"Delta":321389063},{"NoteNumber":62,"Velocity":36,"Duration":192307,"SoundDuration":192307,"Delta":321645473},{"NoteNumber":67,"Velocity":43,"Duration":192307,"SoundDuration":192307,"Delta":321645473},{"NoteNumber":47,"Velocity":28,"Duration":192307,"SoundDuration":192307,"Delta":321645473},{"NoteNumber":55,"Velocity":33,"Duration":192307,"SoundDuration":192307,"Delta":321645473},{"NoteNumber":60,"Velocity":41,"Duration":187500,"SoundDuration":187500,"Delta":321901883},{"NoteNumber":64,"Velocity":49,"Duration":187500,"SoundDuration":187500,"Delta":321901883},{"NoteNumber":48,"Velocity":33,"Duration":187500,"SoundDuration":187500,"Delta":321901883},{"NoteNumber":55,"Velocity":39,"Duration":187500,"SoundDuration":187500,"Delta":321901883},{"NoteNumber":64,"Velocity":34,"Duration":187500,"SoundDuration":187500,"Delta":322151883},{"NoteNumber":72,"Velocity":40,"Duration":187500,"SoundDuration":187500,"Delta":322151883},{"NoteNumber":48,"Velocity":27,"Duration":187500,"SoundDuration":187500,"Delta":322151883},{"NoteNumber":55,"Velocity":32,"Duration":187500,"SoundDuration":187500,"Delta":322151883},{"NoteNumber":71,"Velocity":49,"Duration":200892,"SoundDuration":200892,"Delta":322401883},{"NoteNumber":65,"Velocity":41,"Duration":200892,"SoundDuration":200892,"Delta":322401883},{"NoteNumber":50,"Velocity":33,"Duration":200892,"SoundDuration":200892,"Delta":322401883},{"NoteNumber":55,"Velocity":39,"Duration":200892,"SoundDuration":200892,"Delta":322401883},{"NoteNumber":71,"Velocity":36,"Duration":264705,"SoundDuration":264705,"Delta":322669740},{"NoteNumber":77,"Velocity":43,"Duration":264705,"SoundDuration":264705,"Delta":322669740},{"NoteNumber":43,"Velocity":28,"Duration":264705,"SoundDuration":264705,"Delta":322669740},{"NoteNumber":55,"Velocity":33,"Duration":264705,"SoundDuration":264705,"Delta":322669740},{"NoteNumber":72,"Velocity":41,"Duration":384615,"SoundDuration":384615,"Delta":323022682},{"NoteNumber":76,"Velocity":49,"Duration":384615,"SoundDuration":384615,"Delta":323022682},{"NoteNumber":48,"Velocity":33,"Duration":384615,"SoundDuration":384615,"Delta":323022682},{"NoteNumber":55,"Velocity":39,"Duration":384615,"SoundDuration":384615,"Delta":323022682},{"NoteNumber":59,"Velocity":41,"Duration":192307,"SoundDuration":192307,"Delta":323535502},{"NoteNumber":62,"Velocity":49,"Duration":192307,"SoundDuration":192307,"Delta":323535502},{"NoteNumber":43,"Velocity":33,"Duration":192307,"SoundDuration":192307,"Delta":323535502},{"NoteNumber":55,"Velocity":39,"Duration":192307,"SoundDuration":192307,"Delta":323535502},{"NoteNumber":62,"Velocity":36,"Duration":192307,"SoundDuration":192307,"Delta":323791912},{"NoteNumber":67,"Velocity":43,"Duration":192307,"SoundDuration":192307,"Delta":323791912},{"NoteNumber":47,"Velocity":28,"Duration":192307,"SoundDuration":192307,"Delta":323791912},{"NoteNumber":55,"Velocity":33,"Duration":192307,"SoundDuration":192307,"Delta":323791912},{"NoteNumber":60,"Velocity":41,"Duration":187500,"SoundDuration":187500,"Delta":324048323},{"NoteNumber":64,"Velocity":49,"Duration":187500,"SoundDuration":187500,"Delta":324048323},{"NoteNumber":48,"Velocity":33,"Duration":187500,"SoundDuration":187500,"Delta":324048323},{"NoteNumber":55,"Velocity":39,"Duration":187500,"SoundDuration":187500,"Delta":324048323},{"NoteNumber":64,"Velocity":34,"Duration":187500,"SoundDuration":187500,"Delta":324298323},{"NoteNumber":72,"Velocity":40,"Duration":187500,"SoundDuration":187500,"Delta":324298323},{"NoteNumber":48,"Velocity":27,"Duration":187500,"SoundDuration":187500,"Delta":324298323},{"NoteNumber":55,"Velocity":32,"Duration":187500,"SoundDuration":187500,"Delta":324298323},{"NoteNumber":71,"Velocity":49,"Duration":200892,"SoundDuration":200892,"Delta":324548323},{"NoteNumber":65,"Velocity":41,"Duration":200892,"SoundDuration":200892,"Delta":324548323},{"NoteNumber":50,"Velocity":33,"Duration":200892,"SoundDuration":200892,"Delta":324548323},{"NoteNumber":55,"Velocity":39,"Duration":200892,"SoundDuration":200892,"Delta":324548323},{"NoteNumber":71,"Velocity":36,"Duration":229591,"SoundDuration":229591,"Delta":324816180},{"NoteNumber":77,"Velocity":43,"Duration":229591,"SoundDuration":229591,"Delta":324816180},{"NoteNumber":43,"Velocity":28,"Duration":229591,"SoundDuration":229591,"Delta":324816180},{"NoteNumber":55,"Velocity":33,"Duration":229591,"SoundDuration":229591,"Delta":324816180},{"NoteNumber":72,"Velocity":41,"Duration":384615,"SoundDuration":384615,"Delta":325122302},{"NoteNumber":76,"Velocity":49,"Duration":384615,"SoundDuration":384615,"Delta":325122302},{"NoteNumber":48,"Velocity":33,"Duration":384615,"SoundDuration":384615,"Delta":325122302},{"NoteNumber":55,"Velocity":39,"Duration":384615,"SoundDuration":384615,"Delta":325122302},{"NoteNumber":77,"Velocity":54,"Duration":192307,"SoundDuration":192307,"Delta":325635123},{"NoteNumber":83,"Velocity":64,"Duration":192307,"SoundDuration":192307,"Delta":325635123},{"NoteNumber":50,"Velocity":33,"Duration":192307,"SoundDuration":192307,"Delta":325635123},{"NoteNumber":55,"Velocity":39,"Duration":192307,"SoundDuration":192307,"Delta":325635123},{"NoteNumber":83,"Velocity":47,"Duration":192307,"SoundDuration":192307,"Delta":325891533},{"NoteNumber":89,"Velocity":56,"Duration":192307,"SoundDuration":192307,"Delta":325891533},{"NoteNumber":43,"Velocity":28,"Duration":192307,"SoundDuration":192307,"Delta":325891533},{"NoteNumber":55,"Velocity":33,"Duration":192307,"SoundDuration":192307,"Delta":325891533},{"NoteNumber":84,"Velocity":51,"Duration":187500,"SoundDuration":187500,"Delta":326147943},{"NoteNumber":88,"Velocity":61,"Duration":187500,"SoundDuration":187500,"Delta":326147943},{"NoteNumber":48,"Velocity":33,"Duration":187500,"SoundDuration":187500,"Delta":326147943},{"NoteNumber":55,"Velocity":39,"Duration":187500,"SoundDuration":187500,"Delta":326147943},{"NoteNumber":76,"Velocity":45,"Duration":187500,"SoundDuration":187500,"Delta":326397943},{"NoteNumber":84,"Velocity":54,"Duration":187500,"SoundDuration":187500,"Delta":326397943},{"NoteNumber":48,"Velocity":27,"Duration":187500,"SoundDuration":187500,"Delta":326397943},{"NoteNumber":55,"Velocity":32,"Duration":187500,"SoundDuration":187500,"Delta":326397943},{"NoteNumber":83,"Velocity":49,"Duration":200892,"SoundDuration":200892,"Delta":326647943},{"NoteNumber":77,"Velocity":41,"Duration":200892,"SoundDuration":200892,"Delta":326647943},{"NoteNumber":50,"Velocity":33,"Duration":200892,"SoundDuration":200892,"Delta":326647943},{"NoteNumber":55,"Velocity":39,"Duration":200892,"SoundDuration":200892,"Delta":326647943},{"NoteNumber":71,"Velocity":36,"Duration":241935,"SoundDuration":241935,"Delta":326915801},{"NoteNumber":77,"Velocity":43,"Duration":241935,"SoundDuration":241935,"Delta":326915801},{"NoteNumber":43,"Velocity":28,"Duration":241935,"SoundDuration":241935,"Delta":326915801},{"NoteNumber":55,"Velocity":33,"Duration":241935,"SoundDuration":241935,"Delta":326915801},{"NoteNumber":72,"Velocity":41,"Duration":384615,"SoundDuration":384615,"Delta":327238381},{"NoteNumber":76,"Velocity":49,"Duration":384615,"SoundDuration":384615,"Delta":327238381},{"NoteNumber":48,"Velocity":33,"Duration":384615,"SoundDuration":384615,"Delta":327238381},{"NoteNumber":55,"Velocity":39,"Duration":384615,"SoundDuration":384615,"Delta":327238381},{"NoteNumber":68,"Velocity":55,"Duration":365853,"SoundDuration":365853,"Delta":327751202},{"NoteNumber":64,"Velocity":55,"Duration":365853,"SoundDuration":365853,"Delta":327751202},{"NoteNumber":74,"Velocity":55,"Duration":351626,"SoundDuration":351626,"Delta":327751202},{"NoteNumber":76,"Velocity":65,"Duration":365853,"SoundDuration":365853,"Delta":327751202},{"NoteNumber":35,"Velocity":53,"Duration":243902,"SoundDuration":243902,"Delta":327995104},{"NoteNumber":47,"Velocity":63,"Duration":243902,"SoundDuration":243902,"Delta":327995104},{"NoteNumber":69,"Velocity":58,"Duration":362903,"SoundDuration":362903,"Delta":328239007},{"NoteNumber":66,"Velocity":58,"Duration":348790,"SoundDuration":348790,"Delta":328239007},{"NoteNumber":74,"Velocity":58,"Duration":348790,"SoundDuration":348790,"Delta":328239007},{"NoteNumber":78,"Velocity":69,"Duration":362903,"SoundDuration":362903,"Delta":328239007},{"NoteNumber":40,"Velocity":56,"Duration":241935,"SoundDuration":241935,"Delta":328480942},{"NoteNumber":52,"Velocity":66,"Duration":241935,"SoundDuration":241935,"Delta":328480942},{"NoteNumber":71,"Velocity":63,"Duration":351562,"SoundDuration":351562,"Delta":328722878},{"NoteNumber":76,"Velocity":63,"Duration":351562,"SoundDuration":351562,"Delta":328722878},{"NoteNumber":68,"Velocity":63,"Duration":316406,"SoundDuration":316406,"Delta":328722878},{"NoteNumber":80,"Velocity":75,"Duration":316406,"SoundDuration":316406,"Delta":328722878},{"NoteNumber":38,"Velocity":47,"Duration":234375,"SoundDuration":234375,"Delta":328957253},{"NoteNumber":50,"Velocity":67,"Duration":234375,"SoundDuration":234375,"Delta":328957253},{"NoteNumber":73,"Velocity":68,"Duration":375000,"SoundDuration":375000,"Delta":329191628},{"NoteNumber":76,"Velocity":68,"Duration":375000,"SoundDuration":375000,"Delta":329191628},{"NoteNumber":69,"Velocity":68,"Duration":375000,"SoundDuration":375000,"Delta":329191628},{"NoteNumber":81,"Velocity":81,"Duration":375000,"SoundDuration":375000,"Delta":329191628},{"NoteNumber":37,"Velocity":56,"Duration":250000,"SoundDuration":250000,"Delta":329441628},{"NoteNumber":49,"Velocity":66,"Duration":250000,"SoundDuration":250000,"Delta":329441628},{"NoteNumber":71,"Velocity":73,"Duration":441266,"SoundDuration":441266,"Delta":329691628},{"NoteNumber":75,"Velocity":73,"Duration":441266,"SoundDuration":441266,"Delta":329691628},{"NoteNumber":83,"Velocity":87,"Duration":441266,"SoundDuration":441266,"Delta":329691628},{"NoteNumber":81,"Velocity":73,"Duration":441266,"SoundDuration":441266,"Delta":329691628},{"NoteNumber":42,"Velocity":56,"Duration":337078,"SoundDuration":337078,"Delta":329964355},{"NoteNumber":54,"Velocity":67,"Duration":337078,"SoundDuration":337078,"Delta":329964355},{"NoteNumber":85,"Velocity":92,"Duration":810810,"SoundDuration":810810,"Delta":330301434},{"NoteNumber":81,"Velocity":78,"Duration":810810,"SoundDuration":810810,"Delta":330301434},{"NoteNumber":73,"Velocity":78,"Duration":810810,"SoundDuration":810810,"Delta":330301434},{"NoteNumber":76,"Velocity":78,"Duration":810810,"SoundDuration":810810,"Delta":330301434},{"NoteNumber":40,"Velocity":64,"Duration":1081080,"SoundDuration":1081080,"Delta":330301434},{"NoteNumber":52,"Velocity":76,"Duration":1081080,"SoundDuration":1081080,"Delta":330301434},{"NoteNumber":69,"Velocity":66,"Duration":270270,"SoundDuration":270270,"Delta":331112245},{"NoteNumber":62,"Velocity":63,"Duration":1101973,"SoundDuration":1101973,"Delta":331382515},{"NoteNumber":64,"Velocity":63,"Duration":1101973,"SoundDuration":1101973,"Delta":331382515},{"NoteNumber":68,"Velocity":63,"Duration":1101973,"SoundDuration":1101973,"Delta":331382515},{"NoteNumber":73,"Velocity":75,"Duration":789473,"SoundDuration":789473,"Delta":331382515},{"NoteNumber":40,"Velocity":52,"Duration":1101973,"SoundDuration":1101973,"Delta":331382515},{"NoteNumber":52,"Velocity":62,"Duration":1101973,"SoundDuration":1101973,"Delta":331382515},{"NoteNumber":71,"Velocity":64,"Duration":312500,"SoundDuration":312500,"Delta":332171989},{"NoteNumber":61,"Velocity":53,"Duration":1666666,"SoundDuration":1666666,"Delta":332484489},{"NoteNumber":64,"Velocity":53,"Duration":1666666,"SoundDuration":1666666,"Delta":332484489},{"NoteNumber":69,"Velocity":63,"Duration":1666666,"SoundDuration":1666666,"Delta":332484489},{"NoteNumber":45,"Velocity":41,"Duration":1666666,"SoundDuration":1666666,"Delta":332484489},{"NoteNumber":52,"Velocity":49,"Duration":1666666,"SoundDuration":1666666,"Delta":332484489},{"NoteNumber":76,"Velocity":53,"Duration":240000,"SoundDuration":240000,"Delta":334151155},{"NoteNumber":64,"Velocity":45,"Duration":240000,"SoundDuration":240000,"Delta":334151155},{"NoteNumber":74,"Velocity":48,"Duration":180000,"SoundDuration":180000,"Delta":334391155},{"NoteNumber":62,"Velocity":40,"Duration":180000,"SoundDuration":180000,"Delta":334391155},{"NoteNumber":74,"Velocity":53,"Duration":240000,"SoundDuration":240000,"Delta":334631155},{"NoteNumber":62,"Velocity":45,"Duration":240000,"SoundDuration":240000,"Delta":334631155},{"NoteNumber":73,"Velocity":47,"Duration":239999,"SoundDuration":239999,"Delta":334871155},{"NoteNumber":61,"Velocity":39,"Duration":239999,"SoundDuration":239999,"Delta":334871155},{"NoteNumber":71,"Velocity":53,"Duration":240000,"SoundDuration":240000,"Delta":335111155},{"NoteNumber":59,"Velocity":45,"Duration":240000,"SoundDuration":240000,"Delta":335111155},{"NoteNumber":69,"Velocity":49,"Duration":104166,"SoundDuration":104166,"Delta":335351155},{"NoteNumber":57,"Velocity":41,"Duration":104166,"SoundDuration":104166,"Delta":335351155},{"NoteNumber":69,"Velocity":45,"Duration":138888,"SoundDuration":138888,"Delta":335490044},{"NoteNumber":57,"Velocity":38,"Duration":138888,"SoundDuration":138888,"Delta":335490044},{"NoteNumber":76,"Velocity":56,"Duration":1428571,"SoundDuration":1428571,"Delta":335628933},{"NoteNumber":64,"Velocity":47,"Duration":1428571,"SoundDuration":1428571,"Delta":335628933},{"NoteNumber":76,"Velocity":53,"Duration":240000,"SoundDuration":240000,"Delta":337057505},{"NoteNumber":64,"Velocity":45,"Duration":240000,"SoundDuration":240000,"Delta":337057505},{"NoteNumber":74,"Velocity":48,"Duration":180000,"SoundDuration":180000,"Delta":337297505},{"NoteNumber":62,"Velocity":40,"Duration":180000,"SoundDuration":180000,"Delta":337297505},{"NoteNumber":74,"Velocity":53,"Duration":159999,"SoundDuration":159999,"Delta":337537505},{"NoteNumber":62,"Velocity":45,"Duration":159999,"SoundDuration":159999,"Delta":337537505},{"NoteNumber":73,"Velocity":47,"Duration":160000,"SoundDuration":160000,"Delta":337697505},{"NoteNumber":61,"Velocity":39,"Duration":160000,"SoundDuration":160000,"Delta":337697505},{"NoteNumber":71,"Velocity":47,"Duration":159999,"SoundDuration":159999,"Delta":337857505},{"NoteNumber":59,"Velocity":39,"Duration":159999,"SoundDuration":159999,"Delta":337857505},{"NoteNumber":70,"Velocity":53,"Duration":160000,"SoundDuration":160000,"Delta":338017505},{"NoteNumber":58,"Velocity":45,"Duration":160000,"SoundDuration":160000,"Delta":338017505},{"NoteNumber":73,"Velocity":47,"Duration":172592,"SoundDuration":172592,"Delta":338177505},{"NoteNumber":61,"Velocity":39,"Duration":172592,"SoundDuration":172592,"Delta":338177505},{"NoteNumber":74,"Velocity":47,"Duration":185185,"SoundDuration":185185,"Delta":338350097},{"NoteNumber":62,"Velocity":39,"Duration":185185,"SoundDuration":185185,"Delta":338350097},{"NoteNumber":73,"Velocity":45,"Duration":92592,"SoundDuration":92592,"Delta":338442690},{"NoteNumber":61,"Velocity":38,"Duration":92592,"SoundDuration":92592,"Delta":338442690},{"NoteNumber":76,"Velocity":53,"Duration":1428571,"SoundDuration":1428571,"Delta":338535282},{"NoteNumber":64,"Velocity":45,"Duration":1428571,"SoundDuration":1428571,"Delta":338535282},{"NoteNumber":70,"Velocity":62,"Duration":240000,"SoundDuration":240000,"Delta":339963854},{"NoteNumber":58,"Velocity":52,"Duration":240000,"SoundDuration":240000,"Delta":339963854},{"NoteNumber":78,"Velocity":57,"Duration":240000,"SoundDuration":240000,"Delta":340203854},{"NoteNumber":66,"Velocity":48,"Duration":240000,"SoundDuration":240000,"Delta":340203854},{"NoteNumber":74,"Velocity":61,"Duration":120000,"SoundDuration":120000,"Delta":340443854},{"NoteNumber":62,"Velocity":52,"Duration":120000,"SoundDuration":120000,"Delta":340443854},{"NoteNumber":76,"Velocity":59,"Duration":120000,"SoundDuration":120000,"Delta":340563854},{"NoteNumber":64,"Velocity":49,"Duration":120000,"SoundDuration":120000,"Delta":340563854},{"NoteNumber":74,"Velocity":59,"Duration":119571,"SoundDuration":119571,"Delta":340683854},{"NoteNumber":62,"Velocity":50,"Duration":119571,"SoundDuration":119571,"Delta":340683854},{"NoteNumber":73,"Velocity":60,"Duration":119986,"SoundDuration":119986,"Delta":340803425},{"NoteNumber":61,"Velocity":51,"Duration":119986,"SoundDuration":119986,"Delta":340803425},{"NoteNumber":71,"Velocity":63,"Duration":121492,"SoundDuration":121492,"Delta":340923412},{"NoteNumber":59,"Velocity":53,"Duration":121492,"SoundDuration":121492,"Delta":340923412},{"NoteNumber":73,"Velocity":65,"Duration":123104,"SoundDuration":123104,"Delta":341044904},{"NoteNumber":61,"Velocity":55,"Duration":123104,"SoundDuration":123104,"Delta":341044904},{"NoteNumber":74,"Velocity":68,"Duration":124604,"SoundDuration":124604,"Delta":341168009},{"NoteNumber":62,"Velocity":57,"Duration":124604,"SoundDuration":124604,"Delta":341168009},{"NoteNumber":76,"Velocity":71,"Duration":126015,"SoundDuration":126015,"Delta":341292613},{"NoteNumber":64,"Velocity":60,"Duration":126015,"SoundDuration":126015,"Delta":341292613},{"NoteNumber":78,"Velocity":78,"Duration":1446785,"SoundDuration":1446785,"Delta":341418629},{"NoteNumber":66,"Velocity":66,"Duration":1446785,"SoundDuration":1446785,"Delta":341418629},{"NoteNumber":70,"Velocity":68,"Duration":476190,"SoundDuration":476190,"Delta":341918629},{"NoteNumber":64,"Velocity":45,"Duration":476190,"SoundDuration":476190,"Delta":341918629},{"NoteNumber":71,"Velocity":70,"Duration":470595,"SoundDuration":470595,"Delta":342394819},{"NoteNumber":62,"Velocity":38,"Duration":470595,"SoundDuration":470595,"Delta":342394819},{"NoteNumber":82,"Velocity":77,"Duration":521739,"SoundDuration":521739,"Delta":342865415},{"NoteNumber":73,"Velocity":65,"Duration":521739,"SoundDuration":521739,"Delta":342865415},{"NoteNumber":66,"Velocity":38,"Duration":499999,"SoundDuration":499999,"Delta":342865415},{"NoteNumber":64,"Velocity":32,"Duration":521739,"SoundDuration":521739,"Delta":342865415},{"NoteNumber":61,"Velocity":32,"Duration":521739,"SoundDuration":521739,"Delta":342865415},{"NoteNumber":83,"Velocity":81,"Duration":472441,"SoundDuration":472441,"Delta":343387154},{"NoteNumber":74,"Velocity":68,"Duration":472441,"SoundDuration":472441,"Delta":343387154},{"NoteNumber":62,"Velocity":38,"Duration":452755,"SoundDuration":452755,"Delta":343387154},{"NoteNumber":66,"Velocity":45,"Duration":1002814,"SoundDuration":1002814,"Delta":343387154},{"NoteNumber":59,"Velocity":38,"Duration":472441,"SoundDuration":472441,"Delta":343387154},{"NoteNumber":78,"Velocity":60,"Duration":250000,"SoundDuration":250000,"Delta":343859595},{"NoteNumber":71,"Velocity":51,"Duration":530373,"SoundDuration":530373,"Delta":343859595},{"NoteNumber":62,"Velocity":37,"Duration":530373,"SoundDuration":530373,"Delta":343859595},{"NoteNumber":74,"Velocity":45,"Duration":280373,"SoundDuration":280373,"Delta":344109595},{"NoteNumber":69,"Velocity":46,"Duration":1034483,"SoundDuration":1034483,"Delta":344389968},{"NoteNumber":73,"Velocity":55,"Duration":1034483,"SoundDuration":1034483,"Delta":344389968},{"NoteNumber":63,"Velocity":42,"Duration":1034483,"SoundDuration":1034483,"Delta":344389968},{"NoteNumber":68,"Velocity":43,"Duration":517241,"SoundDuration":517241,"Delta":345424451},{"NoteNumber":71,"Velocity":51,"Duration":517241,"SoundDuration":517241,"Delta":345424451},{"NoteNumber":64,"Velocity":39,"Duration":517241,"SoundDuration":517241,"Delta":345424451},{"NoteNumber":64,"Velocity":60,"Duration":279999,"SoundDuration":279999,"Delta":345941693},{"NoteNumber":52,"Velocity":51,"Duration":279999,"SoundDuration":279999,"Delta":345941693},{"NoteNumber":63,"Velocity":55,"Duration":180000,"SoundDuration":180000,"Delta":346181693},{"NoteNumber":51,"Velocity":46,"Duration":180000,"SoundDuration":180000,"Delta":346181693},{"NoteNumber":64,"Velocity":60,"Duration":240000,"SoundDuration":240000,"Delta":346421693},{"NoteNumber":52,"Velocity":51,"Duration":240000,"SoundDuration":240000,"Delta":346421693},{"NoteNumber":59,"Velocity":54,"Duration":239999,"SoundDuration":239999,"Delta":346661693},{"NoteNumber":47,"Velocity":44,"Duration":239999,"SoundDuration":239999,"Delta":346661693},{"NoteNumber":57,"Velocity":55,"Duration":60000,"SoundDuration":60000,"Delta":346901693},{"NoteNumber":45,"Velocity":47,"Duration":60000,"SoundDuration":60000,"Delta":346901693},{"NoteNumber":59,"Velocity":56,"Duration":60000,"SoundDuration":60000,"Delta":346961693},{"NoteNumber":47,"Velocity":47,"Duration":60000,"SoundDuration":60000,"Delta":346961693},{"NoteNumber":57,"Velocity":60,"Duration":120000,"SoundDuration":120000,"Delta":347021693},{"NoteNumber":45,"Velocity":51,"Duration":120000,"SoundDuration":120000,"Delta":347021693},{"NoteNumber":56,"Velocity":56,"Duration":94537,"SoundDuration":94537,"Delta":347141693},{"NoteNumber":44,"Velocity":47,"Duration":94537,"SoundDuration":94537,"Delta":347141693},{"NoteNumber":56,"Velocity":51,"Duration":126050,"SoundDuration":126050,"Delta":347267743},{"NoteNumber":44,"Velocity":43,"Duration":126050,"SoundDuration":126050,"Delta":347267743},{"NoteNumber":64,"Velocity":64,"Duration":265486,"SoundDuration":265486,"Delta":347393794},{"NoteNumber":52,"Velocity":54,"Duration":265486,"SoundDuration":265486,"Delta":347393794},{"NoteNumber":64,"Velocity":68,"Duration":1039823,"SoundDuration":1039823,"Delta":347924767},{"NoteNumber":52,"Velocity":56,"Duration":1039823,"SoundDuration":1039823,"Delta":347924767},{"NoteNumber":64,"Velocity":60,"Duration":279999,"SoundDuration":279999,"Delta":348986714},{"NoteNumber":52,"Velocity":51,"Duration":279999,"SoundDuration":279999,"Delta":348986714},{"NoteNumber":63,"Velocity":55,"Duration":180000,"SoundDuration":180000,"Delta":349226714},{"NoteNumber":51,"Velocity":46,"Duration":180000,"SoundDuration":180000,"Delta":349226714},{"NoteNumber":64,"Velocity":60,"Duration":240000,"SoundDuration":240000,"Delta":349466714},{"NoteNumber":52,"Velocity":51,"Duration":240000,"SoundDuration":240000,"Delta":349466714},{"NoteNumber":60,"Velocity":54,"Duration":239999,"SoundDuration":239999,"Delta":349706714},{"NoteNumber":48,"Velocity":44,"Duration":239999,"SoundDuration":239999,"Delta":349706714},{"NoteNumber":59,"Velocity":55,"Duration":60000,"SoundDuration":60000,"Delta":349946714},{"NoteNumber":47,"Velocity":47,"Duration":60000,"SoundDuration":60000,"Delta":349946714},{"NoteNumber":60,"Velocity":56,"Duration":60000,"SoundDuration":60000,"Delta":350006714},{"NoteNumber":48,"Velocity":47,"Duration":60000,"SoundDuration":60000,"Delta":350006714},{"NoteNumber":59,"Velocity":60,"Duration":120000,"SoundDuration":120000,"Delta":350066714},{"NoteNumber":47,"Velocity":51,"Duration":120000,"SoundDuration":120000,"Delta":350066714},{"NoteNumber":57,"Velocity":56,"Duration":94537,"SoundDuration":94537,"Delta":350186714},{"NoteNumber":45,"Velocity":47,"Duration":94537,"SoundDuration":94537,"Delta":350186714},{"NoteNumber":57,"Velocity":51,"Duration":126050,"SoundDuration":126050,"Delta":350312764},{"NoteNumber":45,"Velocity":43,"Duration":126050,"SoundDuration":126050,"Delta":350312764},{"NoteNumber":65,"Velocity":64,"Duration":265486,"SoundDuration":265486,"Delta":350438815},{"NoteNumber":53,"Velocity":54,"Duration":265486,"SoundDuration":265486,"Delta":350438815},{"NoteNumber":65,"Velocity":68,"Duration":1039823,"SoundDuration":1039823,"Delta":350969788},{"NoteNumber":53,"Velocity":56,"Duration":1039823,"SoundDuration":1039823,"Delta":350969788},{"NoteNumber":65,"Velocity":66,"Duration":279999,"SoundDuration":279999,"Delta":352031735},{"NoteNumber":53,"Velocity":56,"Duration":279999,"SoundDuration":279999,"Delta":352031735},{"NoteNumber":64,"Velocity":61,"Duration":180000,"SoundDuration":180000,"Delta":352271735},{"NoteNumber":52,"Velocity":51,"Duration":180000,"SoundDuration":180000,"Delta":352271735},{"NoteNumber":65,"Velocity":68,"Duration":240000,"SoundDuration":240000,"Delta":352511735},{"NoteNumber":53,"Velocity":58,"Duration":240000,"SoundDuration":240000,"Delta":352511735},{"NoteNumber":62,"Velocity":62,"Duration":239999,"SoundDuration":239999,"Delta":352751735},{"NoteNumber":50,"Velocity":51,"Duration":239999,"SoundDuration":239999,"Delta":352751735},{"NoteNumber":60,"Velocity":65,"Duration":60000,"SoundDuration":60000,"Delta":352991735},{"NoteNumber":48,"Velocity":55,"Duration":60000,"SoundDuration":60000,"Delta":352991735},{"NoteNumber":62,"Velocity":66,"Duration":60000,"SoundDuration":60000,"Delta":353051735},{"NoteNumber":50,"Velocity":55,"Duration":60000,"SoundDuration":60000,"Delta":353051735},{"NoteNumber":60,"Velocity":72,"Duration":120000,"SoundDuration":120000,"Delta":353111735},{"NoteNumber":48,"Velocity":61,"Duration":120000,"SoundDuration":120000,"Delta":353111735},{"NoteNumber":59,"Velocity":67,"Duration":94537,"SoundDuration":94537,"Delta":353231735},{"NoteNumber":47,"Velocity":56,"Duration":94537,"SoundDuration":94537,"Delta":353231735},{"NoteNumber":59,"Velocity":62,"Duration":126050,"SoundDuration":126050,"Delta":353357786},{"NoteNumber":47,"Velocity":52,"Duration":126050,"SoundDuration":126050,"Delta":353357786},{"NoteNumber":67,"Velocity":78,"Duration":495689,"SoundDuration":495689,"Delta":353483836},{"NoteNumber":55,"Velocity":66,"Duration":495689,"SoundDuration":495689,"Delta":353483836},{"NoteNumber":62,"Velocity":42,"Duration":513513,"SoundDuration":513513,"Delta":354001078},{"NoteNumber":67,"Velocity":42,"Duration":513513,"SoundDuration":513513,"Delta":354001078},{"NoteNumber":71,"Velocity":50,"Duration":513513,"SoundDuration":513513,"Delta":354001078},{"NoteNumber":53,"Velocity":34,"Duration":513513,"SoundDuration":513513,"Delta":354001078},{"NoteNumber":55,"Velocity":40,"Duration":513513,"SoundDuration":513513,"Delta":354001078},{"NoteNumber":60,"Velocity":42,"Duration":513513,"SoundDuration":513513,"Delta":354541618},{"NoteNumber":67,"Velocity":42,"Duration":513513,"SoundDuration":513513,"Delta":354541618},{"NoteNumber":72,"Velocity":50,"Duration":513513,"SoundDuration":513513,"Delta":354541618},{"NoteNumber":52,"Velocity":34,"Duration":513513,"SoundDuration":513513,"Delta":354541618},{"NoteNumber":55,"Velocity":40,"Duration":513513,"SoundDuration":513513,"Delta":354541618},{"NoteNumber":62,"Velocity":46,"Duration":491379,"SoundDuration":491379,"Delta":355082159},{"NoteNumber":67,"Velocity":46,"Duration":491379,"SoundDuration":491379,"Delta":355082159},{"NoteNumber":74,"Velocity":55,"Duration":491379,"SoundDuration":491379,"Delta":355082159},{"NoteNumber":47,"Velocity":38,"Duration":491379,"SoundDuration":491379,"Delta":355082159},{"NoteNumber":55,"Velocity":45,"Duration":491379,"SoundDuration":491379,"Delta":355082159},{"NoteNumber":64,"Velocity":53,"Duration":504424,"SoundDuration":504424,"Delta":355599400},{"NoteNumber":67,"Velocity":53,"Duration":504424,"SoundDuration":504424,"Delta":355599400},{"NoteNumber":76,"Velocity":63,"Duration":504424,"SoundDuration":504424,"Delta":355599400},{"NoteNumber":48,"Velocity":43,"Duration":504424,"SoundDuration":504424,"Delta":355599400},{"NoteNumber":55,"Velocity":51,"Duration":504424,"SoundDuration":504424,"Delta":355599400},{"NoteNumber":79,"Velocity":59,"Duration":272727,"SoundDuration":272727,"Delta":356130374},{"NoteNumber":67,"Velocity":50,"Duration":576098,"SoundDuration":576098,"Delta":356130374},{"NoteNumber":71,"Velocity":50,"Duration":576098,"SoundDuration":576098,"Delta":356130374},{"NoteNumber":50,"Velocity":34,"Duration":576098,"SoundDuration":576098,"Delta":356130374},{"NoteNumber":55,"Velocity":41,"Duration":576098,"SoundDuration":576098,"Delta":356130374},{"NoteNumber":77,"Velocity":52,"Duration":308988,"SoundDuration":308988,"Delta":356403101},{"NoteNumber":67,"Velocity":42,"Duration":1660098,"SoundDuration":1660098,"Delta":356740180},{"NoteNumber":71,"Velocity":42,"Duration":1142856,"SoundDuration":1142856,"Delta":356740180},{"NoteNumber":77,"Velocity":50,"Duration":1142856,"SoundDuration":1142856,"Delta":356740180},{"NoteNumber":50,"Velocity":34,"Duration":1142856,"SoundDuration":1142856,"Delta":356740180},{"NoteNumber":55,"Velocity":40,"Duration":1660098,"SoundDuration":1660098,"Delta":356740180},{"NoteNumber":72,"Velocity":37,"Duration":517241,"SoundDuration":517241,"Delta":357883037},{"NoteNumber":76,"Velocity":44,"Duration":517241,"SoundDuration":517241,"Delta":357883037},{"NoteNumber":48,"Velocity":35,"Duration":517241,"SoundDuration":517241,"Delta":357883037},{"NoteNumber":67,"Velocity":62,"Duration":456349,"SoundDuration":456349,"Delta":358400278},{"NoteNumber":76,"Velocity":62,"Duration":456349,"SoundDuration":456349,"Delta":358400278},{"NoteNumber":79,"Velocity":73,"Duration":456349,"SoundDuration":456349,"Delta":358400278},{"NoteNumber":43,"Velocity":45,"Duration":456349,"SoundDuration":456349,"Delta":358400278},{"NoteNumber":55,"Velocity":53,"Duration":932539,"SoundDuration":932539,"Delta":358400278},{"NoteNumber":72,"Velocity":67,"Duration":476190,"SoundDuration":476190,"Delta":358876469},{"NoteNumber":79,"Velocity":67,"Duration":456349,"SoundDuration":456349,"Delta":358876469},{"NoteNumber":84,"Velocity":80,"Duration":476190,"SoundDuration":476190,"Delta":358876469},{"NoteNumber":45,"Velocity":48,"Duration":476190,"SoundDuration":476190,"Delta":358876469},{"NoteNumber":57,"Velocity":57,"Duration":476190,"SoundDuration":476190,"Delta":358876469},{"NoteNumber":79,"Velocity":85,"Duration":439024,"SoundDuration":439024,"Delta":359352659},{"NoteNumber":74,"Velocity":71,"Duration":439024,"SoundDuration":439024,"Delta":359352659},{"NoteNumber":86,"Velocity":85,"Duration":439024,"SoundDuration":439024,"Delta":359352659},{"NoteNumber":47,"Velocity":50,"Duration":487804,"SoundDuration":487804,"Delta":359352659},{"NoteNumber":55,"Velocity":50,"Duration":439024,"SoundDuration":439024,"Delta":359352659},{"NoteNumber":59,"Velocity":60,"Duration":439024,"SoundDuration":439024,"Delta":359352659},{"NoteNumber":76,"Velocity":80,"Duration":394737,"SoundDuration":394737,"Delta":359840464},{"NoteNumber":79,"Velocity":80,"Duration":394737,"SoundDuration":394737,"Delta":359840464},{"NoteNumber":88,"Velocity":96,"Duration":394737,"SoundDuration":394737,"Delta":359840464},{"NoteNumber":48,"Velocity":56,"Duration":394737,"SoundDuration":394737,"Delta":359840464},{"NoteNumber":55,"Velocity":56,"Duration":394737,"SoundDuration":394737,"Delta":359840464},{"NoteNumber":60,"Velocity":66,"Duration":394737,"SoundDuration":394737,"Delta":359840464},{"NoteNumber":76,"Velocity":75,"Duration":927419,"SoundDuration":927419,"Delta":360366780},{"NoteNumber":79,"Velocity":75,"Duration":927419,"SoundDuration":927419,"Delta":360366780},{"NoteNumber":88,"Velocity":89,"Duration":927419,"SoundDuration":927419,"Delta":360366780},{"NoteNumber":48,"Velocity":52,"Duration":927419,"SoundDuration":927419,"Delta":360366780},{"NoteNumber":55,"Velocity":52,"Duration":927419,"SoundDuration":927419,"Delta":360366780},{"NoteNumber":60,"Velocity":61,"Duration":927419,"SoundDuration":927419,"Delta":360366780},{"NoteNumber":72,"Velocity":40,"Duration":912666,"SoundDuration":912666,"Delta":361334522},{"NoteNumber":76,"Velocity":40,"Duration":893869,"SoundDuration":893869,"Delta":361334522},{"NoteNumber":84,"Velocity":56,"Duration":461538,"SoundDuration":461538,"Delta":361334522},{"NoteNumber":52,"Velocity":32,"Duration":461538,"SoundDuration":461538,"Delta":361334522},{"NoteNumber":60,"Velocity":32,"Duration":912666,"SoundDuration":912666,"Delta":361334522},{"NoteNumber":64,"Velocity":38,"Duration":912666,"SoundDuration":912666,"Delta":361334522},{"NoteNumber":79,"Velocity":55,"Duration":451127,"SoundDuration":451127,"Delta":361796061},{"NoteNumber":55,"Velocity":35,"Duration":432330,"SoundDuration":432330,"Delta":361796061},{"NoteNumber":71,"Velocity":37,"Duration":483871,"SoundDuration":483871,"Delta":362247189},{"NoteNumber":74,"Velocity":37,"Duration":435483,"SoundDuration":435483,"Delta":362247189},{"NoteNumber":77,"Velocity":48,"Duration":435483,"SoundDuration":435483,"Delta":362247189},{"NoteNumber":62,"Velocity":34,"Duration":483871,"SoundDuration":483871,"Delta":362247189},{"NoteNumber":59,"Velocity":28,"Duration":483871,"SoundDuration":483871,"Delta":362247189},{"NoteNumber":55,"Velocity":28,"Duration":435483,"SoundDuration":435483,"Delta":362247189},{"NoteNumber":72,"Velocity":55,"Duration":398230,"SoundDuration":398230,"Delta":362731060},{"NoteNumber":76,"Velocity":73,"Duration":398230,"SoundDuration":398230,"Delta":362731060},{"NoteNumber":57,"Velocity":39,"Duration":398230,"SoundDuration":398230,"Delta":362731060},{"NoteNumber":60,"Velocity":49,"Duration":398230,"SoundDuration":398230,"Delta":362731060},{"NoteNumber":72,"Velocity":38,"Duration":1025641,"SoundDuration":1025641,"Delta":363262033},{"NoteNumber":76,"Velocity":50,"Duration":1025641,"SoundDuration":1025641,"Delta":363262033},{"NoteNumber":57,"Velocity":27,"Duration":1025641,"SoundDuration":1025641,"Delta":363262033},{"NoteNumber":60,"Velocity":34,"Duration":1025641,"SoundDuration":1025641,"Delta":363262033},{"NoteNumber":65,"Velocity":34,"Duration":495867,"SoundDuration":495867,"Delta":364287674},{"NoteNumber":67,"Velocity":34,"Duration":971074,"SoundDuration":971074,"Delta":364287674},{"NoteNumber":74,"Velocity":47,"Duration":495867,"SoundDuration":495867,"Delta":364287674},{"NoteNumber":47,"Velocity":27,"Duration":495867,"SoundDuration":495867,"Delta":364287674},{"NoteNumber":55,"Velocity":32,"Duration":991735,"SoundDuration":991735,"Delta":364287674},{"NoteNumber":64,"Velocity":34,"Duration":495867,"SoundDuration":495867,"Delta":364783542},{"NoteNumber":72,"Velocity":43,"Duration":495867,"SoundDuration":495867,"Delta":364783542},{"NoteNumber":48,"Velocity":23,"Duration":475206,"SoundDuration":475206,"Delta":364783542},{"NoteNumber":59,"Velocity":31,"Duration":571428,"SoundDuration":571428,"Delta":365279410},{"NoteNumber":67,"Velocity":40,"Duration":514285,"SoundDuration":514285,"Delta":365279410},{"NoteNumber":55,"Velocity":28,"Duration":969658,"SoundDuration":969658,"Delta":365279410},{"NoteNumber":50,"Velocity":23,"Duration":571428,"SoundDuration":571428,"Delta":365279410},{"NoteNumber":60,"Velocity":31,"Duration":398230,"SoundDuration":398230,"Delta":365850839},{"NoteNumber":64,"Velocity":41,"Duration":398230,"SoundDuration":398230,"Delta":365850839},{"NoteNumber":48,"Velocity":28,"Duration":398230,"SoundDuration":398230,"Delta":365850839},{"NoteNumber":60,"Velocity":30,"Duration":1039136,"SoundDuration":1039136,"Delta":366381812},{"NoteNumber":64,"Velocity":39,"Duration":1039136,"SoundDuration":1039136,"Delta":366381812},{"NoteNumber":48,"Velocity":21,"Duration":1039136,"SoundDuration":1039136,"Delta":366381812},{"NoteNumber":55,"Velocity":27,"Duration":1039136,"SoundDuration":1039136,"Delta":366381812},{"NoteNumber":64,"Velocity":41,"Duration":247933,"SoundDuration":247933,"Delta":367420949},{"NoteNumber":60,"Velocity":34,"Duration":247933,"SoundDuration":247933,"Delta":367420949},{"NoteNumber":55,"Velocity":38,"Duration":475206,"SoundDuration":475206,"Delta":367420949},{"NoteNumber":48,"Velocity":38,"Duration":247933,"SoundDuration":247933,"Delta":367420949},{"NoteNumber":59,"Velocity":29,"Duration":223140,"SoundDuration":223140,"Delta":367668883},{"NoteNumber":62,"Velocity":35,"Duration":223140,"SoundDuration":223140,"Delta":367668883},{"NoteNumber":43,"Velocity":34,"Duration":223140,"SoundDuration":223140,"Delta":367668883},{"NoteNumber":59,"Velocity":34,"Duration":243902,"SoundDuration":243902,"Delta":367916817},{"NoteNumber":62,"Velocity":41,"Duration":243902,"SoundDuration":243902,"Delta":367916817},{"NoteNumber":55,"Velocity":38,"Duration":467479,"SoundDuration":467479,"Delta":367916817},{"NoteNumber":43,"Velocity":40,"Duration":243902,"SoundDuration":243902,"Delta":367916817},{"NoteNumber":60,"Velocity":30,"Duration":219512,"SoundDuration":219512,"Delta":368160719},{"NoteNumber":64,"Velocity":36,"Duration":219512,"SoundDuration":219512,"Delta":368160719},{"NoteNumber":48,"Velocity":35,"Duration":219512,"SoundDuration":219512,"Delta":368160719},{"NoteNumber":60,"Velocity":34,"Duration":258620,"SoundDuration":258620,"Delta":368404622},{"NoteNumber":64,"Velocity":41,"Duration":258620,"SoundDuration":258620,"Delta":368404622},{"NoteNumber":55,"Velocity":38,"Duration":536398,"SoundDuration":536398,"Delta":368404622},{"NoteNumber":48,"Velocity":40,"Duration":258620,"SoundDuration":258620,"Delta":368404622},{"NoteNumber":59,"Velocity":29,"Duration":303030,"SoundDuration":303030,"Delta":368663242},{"NoteNumber":65,"Velocity":35,"Duration":303030,"SoundDuration":303030,"Delta":368663242},{"NoteNumber":50,"Velocity":34,"Duration":303030,"SoundDuration":303030,"Delta":368663242},{"NoteNumber":60,"Velocity":34,"Duration":512820,"SoundDuration":512820,"Delta":368966273},{"NoteNumber":64,"Velocity":41,"Duration":512820,"SoundDuration":512820,"Delta":368966273},{"NoteNumber":48,"Velocity":34,"Duration":512820,"SoundDuration":512820,"Delta":368966273},{"NoteNumber":55,"Velocity":40,"Duration":512820,"SoundDuration":512820,"Delta":368966273},{"NoteNumber":76,"Velocity":45,"Duration":247933,"SoundDuration":247933,"Delta":369479093},{"NoteNumber":72,"Velocity":37,"Duration":247933,"SoundDuration":247933,"Delta":369479093},{"NoteNumber":67,"Velocity":41,"Duration":475206,"SoundDuration":475206,"Delta":369479093},{"NoteNumber":60,"Velocity":41,"Duration":247933,"SoundDuration":247933,"Delta":369479093},{"NoteNumber":71,"Velocity":31,"Duration":223140,"SoundDuration":223140,"Delta":369727027},{"NoteNumber":74,"Velocity":38,"Duration":223140,"SoundDuration":223140,"Delta":369727027},{"NoteNumber":55,"Velocity":37,"Duration":223140,"SoundDuration":223140,"Delta":369727027},{"NoteNumber":71,"Velocity":37,"Duration":243902,"SoundDuration":243902,"Delta":369974961},{"NoteNumber":74,"Velocity":45,"Duration":243902,"SoundDuration":243902,"Delta":369974961},{"NoteNumber":67,"Velocity":41,"Duration":467479,"SoundDuration":467479,"Delta":369974961},{"NoteNumber":55,"Velocity":44,"Duration":243902,"SoundDuration":243902,"Delta":369974961},{"NoteNumber":72,"Velocity":33,"Duration":219512,"SoundDuration":219512,"Delta":370218864},{"NoteNumber":76,"Velocity":39,"Duration":219512,"SoundDuration":219512,"Delta":370218864},{"NoteNumber":60,"Velocity":38,"Duration":219512,"SoundDuration":219512,"Delta":370218864},{"NoteNumber":71,"Velocity":37,"Duration":561650,"SoundDuration":561650,"Delta":370462766},{"NoteNumber":79,"Velocity":49,"Duration":258620,"SoundDuration":258620,"Delta":370462766},{"NoteNumber":67,"Velocity":41,"Duration":536398,"SoundDuration":536398,"Delta":370462766},{"NoteNumber":64,"Velocity":44,"Duration":258620,"SoundDuration":258620,"Delta":370462766},{"NoteNumber":77,"Velocity":41,"Duration":303030,"SoundDuration":303030,"Delta":370721387},{"NoteNumber":62,"Velocity":37,"Duration":303030,"SoundDuration":303030,"Delta":370721387},{"NoteNumber":72,"Velocity":37,"Duration":517241,"SoundDuration":517241,"Delta":371024417},{"NoteNumber":76,"Velocity":45,"Duration":517241,"SoundDuration":517241,"Delta":371024417},{"NoteNumber":60,"Velocity":37,"Duration":517241,"SoundDuration":517241,"Delta":371024417},{"NoteNumber":67,"Velocity":44,"Duration":517241,"SoundDuration":517241,"Delta":371024417},{"NoteNumber":64,"Velocity":38,"Duration":247933,"SoundDuration":247933,"Delta":371541659},{"NoteNumber":60,"Velocity":31,"Duration":247933,"SoundDuration":247933,"Delta":371541659},{"NoteNumber":55,"Velocity":34,"Duration":475206,"SoundDuration":475206,"Delta":371541659},{"NoteNumber":48,"Velocity":34,"Duration":247933,"SoundDuration":247933,"Delta":371541659},{"NoteNumber":59,"Velocity":26,"Duration":223140,"SoundDuration":223140,"Delta":371789593},{"NoteNumber":62,"Velocity":32,"Duration":223140,"SoundDuration":223140,"Delta":371789593},{"NoteNumber":43,"Velocity":31,"Duration":223140,"SoundDuration":223140,"Delta":371789593},{"NoteNumber":59,"Velocity":31,"Duration":243902,"SoundDuration":243902,"Delta":372037527},{"NoteNumber":62,"Velocity":38,"Duration":243902,"SoundDuration":243902,"Delta":372037527},{"NoteNumber":55,"Velocity":34,"Duration":467479,"SoundDuration":467479,"Delta":372037527},{"NoteNumber":43,"Velocity":37,"Duration":243902,"SoundDuration":243902,"Delta":372037527},{"NoteNumber":60,"Velocity":28,"Duration":219512,"SoundDuration":219512,"Delta":372281429},{"NoteNumber":64,"Velocity":33,"Duration":219512,"SoundDuration":219512,"Delta":372281429},{"NoteNumber":48,"Velocity":32,"Duration":219512,"SoundDuration":219512,"Delta":372281429},{"NoteNumber":59,"Velocity":31,"Duration":561650,"SoundDuration":561650,"Delta":372525332},{"NoteNumber":67,"Velocity":41,"Duration":258620,"SoundDuration":258620,"Delta":372525332},{"NoteNumber":55,"Velocity":34,"Duration":536398,"SoundDuration":536398,"Delta":372525332},{"NoteNumber":52,"Velocity":37,"Duration":258620,"SoundDuration":258620,"Delta":372525332},{"NoteNumber":65,"Velocity":34,"Duration":303030,"SoundDuration":303030,"Delta":372783952},{"NoteNumber":50,"Velocity":31,"Duration":303030,"SoundDuration":303030,"Delta":372783952},{"NoteNumber":60,"Velocity":31,"Duration":480000,"SoundDuration":480000,"Delta":373086983},{"NoteNumber":64,"Velocity":38,"Duration":480000,"SoundDuration":480000,"Delta":373086983},{"NoteNumber":48,"Velocity":31,"Duration":480000,"SoundDuration":480000,"Delta":373086983},{"NoteNumber":55,"Velocity":37,"Duration":480000,"SoundDuration":480000,"Delta":373086983},{"NoteNumber":72,"Velocity":45,"Duration":479999,"SoundDuration":479999,"Delta":373566983},{"NoteNumber":76,"Velocity":45,"Duration":479999,"SoundDuration":479999,"Delta":373566983},{"NoteNumber":60,"Velocity":31,"Duration":431999,"SoundDuration":431999,"Delta":373566983},{"NoteNumber":67,"Velocity":37,"Duration":431999,"SoundDuration":431999,"Delta":373566983},{"NoteNumber":74,"Velocity":49,"Duration":263157,"SoundDuration":263157,"Delta":374046983},{"NoteNumber":76,"Velocity":49,"Duration":263157,"SoundDuration":263157,"Delta":374046983},{"NoteNumber":59,"Velocity":32,"Duration":473684,"SoundDuration":473684,"Delta":374046983},{"NoteNumber":68,"Velocity":38,"Duration":473684,"SoundDuration":473684,"Delta":374046983},{"NoteNumber":78,"Velocity":48,"Duration":65789,"SoundDuration":65789,"Delta":374310141},{"NoteNumber":76,"Velocity":48,"Duration":65789,"SoundDuration":65789,"Delta":374375930},{"NoteNumber":74,"Velocity":48,"Duration":6578,"SoundDuration":6578,"Delta":374441720},{"NoteNumber":76,"Velocity":48,"Duration":65789,"SoundDuration":65789,"Delta":374507509},{"NoteNumber":78,"Velocity":61,"Duration":360000,"SoundDuration":360000,"Delta":374573299},{"NoteNumber":74,"Velocity":51,"Duration":480000,"SoundDuration":480000,"Delta":374573299},{"NoteNumber":59,"Velocity":35,"Duration":432000,"SoundDuration":432000,"Delta":374573299},{"NoteNumber":68,"Velocity":42,"Duration":432000,"SoundDuration":432000,"Delta":374573299},{"NoteNumber":76,"Velocity":53,"Duration":120000,"SoundDuration":120000,"Delta":374933299},{"NoteNumber":73,"Velocity":49,"Duration":454630,"SoundDuration":454630,"Delta":375053299},{"NoteNumber":76,"Velocity":68,"Duration":238095,"SoundDuration":238095,"Delta":375053299},{"NoteNumber":57,"Velocity":34,"Duration":427071,"SoundDuration":427071,"Delta":375053299},{"NoteNumber":69,"Velocity":40,"Duration":427071,"SoundDuration":427071,"Delta":375053299},{"NoteNumber":81,"Velocity":61,"Duration":236220,"SoundDuration":236220,"Delta":375291394},{"NoteNumber":73,"Velocity":45,"Duration":504077,"SoundDuration":504077,"Delta":375527614},{"NoteNumber":76,"Velocity":64,"Duration":236220,"SoundDuration":236220,"Delta":375527614},{"NoteNumber":57,"Velocity":28,"Duration":450506,"SoundDuration":450506,"Delta":375527614},{"NoteNumber":64,"Velocity":28,"Duration":450506,"SoundDuration":450506,"Delta":375527614},{"NoteNumber":69,"Velocity":34,"Duration":450506,"SoundDuration":450506,"Delta":375527614},{"NoteNumber":85,"Velocity":59,"Duration":267857,"SoundDuration":267857,"Delta":375763835},{"NoteNumber":71,"Velocity":39,"Duration":944882,"SoundDuration":944882,"Delta":376031692},{"NoteNumber":76,"Velocity":39,"Duration":944882,"SoundDuration":944882,"Delta":376031692},{"NoteNumber":80,"Velocity":56,"Duration":944882,"SoundDuration":944882,"Delta":376031692},{"NoteNumber":59,"Velocity":28,"Duration":944882,"SoundDuration":944882,"Delta":376031692},{"NoteNumber":64,"Velocity":28,"Duration":944882,"SoundDuration":944882,"Delta":376031692},{"NoteNumber":68,"Velocity":33,"Duration":944882,"SoundDuration":944882,"Delta":376031692},{"NoteNumber":69,"Velocity":39,"Duration":986439,"SoundDuration":986439,"Delta":376976574},{"NoteNumber":75,"Velocity":39,"Duration":986439,"SoundDuration":986439,"Delta":376976574},{"NoteNumber":80,"Velocity":55,"Duration":472441,"SoundDuration":472441,"Delta":376976574},{"NoteNumber":47,"Velocity":28,"Duration":986439,"SoundDuration":986439,"Delta":376976574},{"NoteNumber":59,"Velocity":33,"Duration":986439,"SoundDuration":986439,"Delta":376976574},{"NoteNumber":78,"Velocity":48,"Duration":375109,"SoundDuration":375109,"Delta":377449015},{"NoteNumber":76,"Velocity":45,"Duration":138888,"SoundDuration":138888,"Delta":377824124},{"NoteNumber":68,"Velocity":48,"Duration":714285,"SoundDuration":714285,"Delta":377963013},{"NoteNumber":76,"Velocity":48,"Duration":714285,"SoundDuration":714285,"Delta":377963013},{"NoteNumber":52,"Velocity":28,"Duration":952381,"SoundDuration":952381,"Delta":377963013},{"NoteNumber":59,"Velocity":34,"Duration":952381,"SoundDuration":952381,"Delta":377963013},{"NoteNumber":56,"Velocity":34,"Duration":214285,"SoundDuration":214285,"Delta":378677299},{"NoteNumber":59,"Velocity":41,"Duration":206106,"SoundDuration":206106,"Delta":378915394},{"NoteNumber":64,"Velocity":35,"Duration":206106,"SoundDuration":206106,"Delta":379144402},{"NoteNumber":68,"Velocity":41,"Duration":473215,"SoundDuration":473215,"Delta":379373410},{"NoteNumber":52,"Velocity":31,"Duration":473215,"SoundDuration":473215,"Delta":379373410},{"NoteNumber":59,"Velocity":31,"Duration":473215,"SoundDuration":473215,"Delta":379373410},{"NoteNumber":71,"Velocity":33,"Duration":254237,"SoundDuration":254237,"Delta":379592388},{"NoteNumber":69,"Velocity":41,"Duration":421875,"SoundDuration":421875,"Delta":379846625},{"NoteNumber":73,"Velocity":41,"Duration":421875,"SoundDuration":421875,"Delta":379846625},{"NoteNumber":61,"Velocity":36,"Duration":421875,"SoundDuration":421875,"Delta":379846625},{"NoteNumber":52,"Velocity":36,"Duration":421875,"SoundDuration":421875,"Delta":379846625},{"NoteNumber":67,"Velocity":36,"Duration":442623,"SoundDuration":442623,"Delta":380315375},{"NoteNumber":70,"Velocity":36,"Duration":442623,"SoundDuration":442623,"Delta":380315375},{"NoteNumber":52,"Velocity":33,"Duration":442623,"SoundDuration":442623,"Delta":380315375},{"NoteNumber":58,"Velocity":33,"Duration":442623,"SoundDuration":442623,"Delta":380315375},{"NoteNumber":68,"Velocity":48,"Duration":714285,"SoundDuration":714285,"Delta":380807179},{"NoteNumber":71,"Velocity":48,"Duration":714285,"SoundDuration":714285,"Delta":380807179},{"NoteNumber":52,"Velocity":28,"Duration":1371031,"SoundDuration":1371031,"Delta":380807179},{"NoteNumber":59,"Velocity":34,"Duration":694444,"SoundDuration":694444,"Delta":380807179},{"NoteNumber":59,"Velocity":34,"Duration":214285,"SoundDuration":214285,"Delta":381521464},{"NoteNumber":64,"Velocity":41,"Duration":200000,"SoundDuration":200000,"Delta":381759560},{"NoteNumber":68,"Velocity":35,"Duration":192857,"SoundDuration":192857,"Delta":381981782},{"NoteNumber":68,"Velocity":41,"Duration":447336,"SoundDuration":447336,"Delta":382196068},{"NoteNumber":71,"Velocity":41,"Duration":214285,"SoundDuration":214285,"Delta":382196068},{"NoteNumber":59,"Velocity":31,"Duration":447336,"SoundDuration":447336,"Delta":382196068},{"NoteNumber":52,"Velocity":31,"Duration":468523,"SoundDuration":468523,"Delta":382196068},{"NoteNumber":64,"Velocity":31,"Duration":468523,"SoundDuration":468523,"Delta":382196068},{"NoteNumber":76,"Velocity":33,"Duration":254237,"SoundDuration":254237,"Delta":382410353},{"NoteNumber":68,"Velocity":41,"Duration":449218,"SoundDuration":449218,"Delta":382664591},{"NoteNumber":71,"Velocity":41,"Duration":421875,"SoundDuration":421875,"Delta":382664591},{"NoteNumber":78,"Velocity":45,"Duration":421875,"SoundDuration":421875,"Delta":382664591},{"NoteNumber":59,"Velocity":36,"Duration":449218,"SoundDuration":449218,"Delta":382664591},{"NoteNumber":66,"Velocity":36,"Duration":421875,"SoundDuration":421875,"Delta":382664591},{"NoteNumber":52,"Velocity":36,"Duration":421875,"SoundDuration":421875,"Delta":382664591},{"NoteNumber":68,"Velocity":36,"Duration":552899,"SoundDuration":552899,"Delta":383133341},{"NoteNumber":72,"Velocity":36,"Duration":499999,"SoundDuration":499999,"Delta":383133341},{"NoteNumber":80,"Velocity":43,"Duration":499999,"SoundDuration":499999,"Delta":383133341},{"NoteNumber":60,"Velocity":33,"Duration":552899,"SoundDuration":552899,"Delta":383133341},{"NoteNumber":52,"Velocity":33,"Duration":499999,"SoundDuration":499999,"Delta":383133341},{"NoteNumber":64,"Velocity":33,"Duration":499999,"SoundDuration":499999,"Delta":383133341},{"NoteNumber":69,"Velocity":43,"Duration":1229508,"SoundDuration":1229508,"Delta":383686240},{"NoteNumber":73,"Velocity":43,"Duration":1229508,"SoundDuration":1229508,"Delta":383686240},{"NoteNumber":80,"Velocity":51,"Duration":983607,"SoundDuration":983607,"Delta":383686240},{"NoteNumber":57,"Velocity":37,"Duration":1229508,"SoundDuration":1229508,"Delta":383686240},{"NoteNumber":61,"Velocity":37,"Duration":1229508,"SoundDuration":1229508,"Delta":383686240},{"NoteNumber":65,"Velocity":44,"Duration":983607,"SoundDuration":983607,"Delta":383686240},{"NoteNumber":78,"Velocity":47,"Duration":245901,"SoundDuration":245901,"Delta":384669847},{"NoteNumber":69,"Velocity":41,"Duration":206106,"SoundDuration":206106,"Delta":384915749},{"NoteNumber":69,"Velocity":38,"Duration":435079,"SoundDuration":435079,"Delta":385144756},{"NoteNumber":73,"Velocity":45,"Duration":473215,"SoundDuration":473215,"Delta":385144756},{"NoteNumber":57,"Velocity":31,"Duration":473215,"SoundDuration":473215,"Delta":385144756},{"NoteNumber":61,"Velocity":31,"Duration":473215,"SoundDuration":473215,"Delta":385144756},{"NoteNumber":76,"Velocity":36,"Duration":254237,"SoundDuration":254237,"Delta":385363734},{"NoteNumber":69,"Velocity":39,"Duration":421875,"SoundDuration":421875,"Delta":385617972},{"NoteNumber":75,"Velocity":46,"Duration":421875,"SoundDuration":421875,"Delta":385617972},{"NoteNumber":63,"Velocity":36,"Duration":421875,"SoundDuration":421875,"Delta":385617972},{"NoteNumber":59,"Velocity":36,"Duration":421875,"SoundDuration":421875,"Delta":385617972},{"NoteNumber":69,"Velocity":35,"Duration":442623,"SoundDuration":442623,"Delta":386086722},{"NoteNumber":73,"Velocity":42,"Duration":442623,"SoundDuration":442623,"Delta":386086722},{"NoteNumber":61,"Velocity":33,"Duration":442623,"SoundDuration":442623,"Delta":386086722},{"NoteNumber":64,"Velocity":33,"Duration":442623,"SoundDuration":442623,"Delta":386086722},{"NoteNumber":69,"Velocity":45,"Duration":476190,"SoundDuration":476190,"Delta":386578525},{"NoteNumber":71,"Velocity":53,"Duration":714285,"SoundDuration":714285,"Delta":386578525},{"NoteNumber":51,"Velocity":28,"Duration":1371031,"SoundDuration":1371031,"Delta":386578525},{"NoteNumber":59,"Velocity":34,"Duration":1371031,"SoundDuration":1371031,"Delta":386578525},{"NoteNumber":71,"Velocity":40,"Duration":214285,"SoundDuration":214285,"Delta":387292811},{"NoteNumber":75,"Velocity":43,"Duration":200000,"SoundDuration":200000,"Delta":387530906},{"NoteNumber":78,"Velocity":45,"Duration":192857,"SoundDuration":192857,"Delta":387753128},{"NoteNumber":81,"Velocity":47,"Duration":447336,"SoundDuration":447336,"Delta":387967414},{"NoteNumber":63,"Velocity":31,"Duration":447336,"SoundDuration":447336,"Delta":387967414},{"NoteNumber":71,"Velocity":31,"Duration":468523,"SoundDuration":468523,"Delta":387967414},{"NoteNumber":83,"Velocity":49,"Duration":127118,"SoundDuration":127118,"Delta":388181700},{"NoteNumber":85,"Velocity":44,"Duration":63559,"SoundDuration":63559,"Delta":388308818},{"NoteNumber":87,"Velocity":44,"Duration":63559,"SoundDuration":63559,"Delta":388372378},{"NoteNumber":81,"Velocity":44,"Duration":421875,"SoundDuration":421875,"Delta":388435937},{"NoteNumber":85,"Velocity":52,"Duration":421875,"SoundDuration":421875,"Delta":388435937},{"NoteNumber":63,"Velocity":36,"Duration":449218,"SoundDuration":449218,"Delta":388435937},{"NoteNumber":73,"Velocity":36,"Duration":421875,"SoundDuration":421875,"Delta":388435937},{"NoteNumber":81,"Velocity":39,"Duration":499999,"SoundDuration":499999,"Delta":388904687},{"NoteNumber":83,"Velocity":46,"Duration":499999,"SoundDuration":499999,"Delta":388904687},{"NoteNumber":63,"Velocity":33,"Duration":552899,"SoundDuration":552899,"Delta":388904687},{"NoteNumber":71,"Velocity":33,"Duration":499999,"SoundDuration":499999,"Delta":388904687},{"NoteNumber":81,"Velocity":45,"Duration":983607,"SoundDuration":983607,"Delta":389457586},{"NoteNumber":85,"Velocity":54,"Duration":983607,"SoundDuration":983607,"Delta":389457586},{"NoteNumber":64,"Velocity":37,"Duration":1229508,"SoundDuration":1229508,"Delta":389457586},{"NoteNumber":73,"Velocity":44,"Duration":983607,"SoundDuration":983607,"Delta":389457586},{"NoteNumber":83,"Velocity":56,"Duration":245901,"SoundDuration":245901,"Delta":390441193},{"NoteNumber":71,"Velocity":44,"Duration":245901,"SoundDuration":245901,"Delta":390441193},{"NoteNumber":59,"Velocity":55,"Duration":245901,"SoundDuration":245901,"Delta":390687095},{"NoteNumber":64,"Velocity":52,"Duration":926682,"SoundDuration":926682,"Delta":390932997},{"NoteNumber":68,"Velocity":62,"Duration":926682,"SoundDuration":926682,"Delta":390932997},{"NoteNumber":56,"Velocity":57,"Duration":926682,"SoundDuration":926682,"Delta":390932997},{"NoteNumber":54,"Velocity":60,"Duration":230769,"SoundDuration":230769,"Delta":391167372},{"NoteNumber":73,"Velocity":74,"Duration":461538,"SoundDuration":461538,"Delta":391398141},{"NoteNumber":52,"Velocity":51,"Duration":461538,"SoundDuration":461538,"Delta":391398141},{"NoteNumber":66,"Velocity":64,"Duration":540540,"SoundDuration":540540,"Delta":391859679},{"NoteNumber":68,"Velocity":64,"Duration":540540,"SoundDuration":540540,"Delta":391859679},{"NoteNumber":72,"Velocity":77,"Duration":540540,"SoundDuration":540540,"Delta":391859679},{"NoteNumber":60,"Velocity":61,"Duration":540540,"SoundDuration":540540,"Delta":391859679},{"NoteNumber":56,"Velocity":51,"Duration":540540,"SoundDuration":540540,"Delta":391859679},{"NoteNumber":51,"Velocity":51,"Duration":540540,"SoundDuration":540540,"Delta":391859679},{"NoteNumber":64,"Velocity":71,"Duration":796460,"SoundDuration":796460,"Delta":392400220},{"NoteNumber":69,"Velocity":71,"Duration":796460,"SoundDuration":796460,"Delta":392400220},{"NoteNumber":73,"Velocity":84,"Duration":796460,"SoundDuration":796460,"Delta":392400220},{"NoteNumber":49,"Velocity":58,"Duration":1483483,"SoundDuration":1483483,"Delta":392400220},{"NoteNumber":52,"Velocity":58,"Duration":1483483,"SoundDuration":1483483,"Delta":392400220},{"NoteNumber":57,"Velocity":58,"Duration":1483483,"SoundDuration":1483483,"Delta":392400220},{"NoteNumber":61,"Velocity":70,"Duration":1483483,"SoundDuration":1483483,"Delta":392400220},{"NoteNumber":63,"Velocity":50,"Duration":229007,"SoundDuration":229007,"Delta":393196680},{"NoteNumber":64,"Velocity":57,"Duration":229007,"SoundDuration":229007,"Delta":393425688},{"NoteNumber":69,"Velocity":55,"Duration":229007,"SoundDuration":229007,"Delta":393654696},{"NoteNumber":73,"Velocity":57,"Duration":229007,"SoundDuration":229007,"Delta":393883703},{"NoteNumber":76,"Velocity":59,"Duration":209923,"SoundDuration":209923,"Delta":394112711},{"NoteNumber":64,"Velocity":54,"Duration":687023,"SoundDuration":687023,"Delta":394112711},{"NoteNumber":61,"Velocity":45,"Duration":229007,"SoundDuration":229007,"Delta":394112711},{"NoteNumber":78,"Velocity":62,"Duration":458015,"SoundDuration":458015,"Delta":394341719},{"NoteNumber":76,"Velocity":52,"Duration":438931,"SoundDuration":438931,"Delta":394341719},{"NoteNumber":59,"Velocity":60,"Duration":458015,"SoundDuration":458015,"Delta":394341719},{"NoteNumber":74,"Velocity":55,"Duration":398230,"SoundDuration":398230,"Delta":394799734},{"NoteNumber":80,"Velocity":65,"Duration":398230,"SoundDuration":398230,"Delta":394799734},{"NoteNumber":76,"Velocity":55,"Duration":398230,"SoundDuration":398230,"Delta":394799734},{"NoteNumber":64,"Velocity":58,"Duration":398230,"SoundDuration":398230,"Delta":394799734},{"NoteNumber":74,"Velocity":68,"Duration":3128205,"SoundDuration":3128205,"Delta":395330708},{"NoteNumber":83,"Velocity":81,"Duration":2666667,"SoundDuration":2666667,"Delta":395330708},{"NoteNumber":80,"Velocity":68,"Duration":2666667,"SoundDuration":2666667,"Delta":395330708},{"NoteNumber":68,"Velocity":69,"Duration":2666667,"SoundDuration":2666667,"Delta":395330708},{"NoteNumber":65,"Velocity":58,"Duration":2666667,"SoundDuration":2666667,"Delta":395330708},{"NoteNumber":57,"Velocity":58,"Duration":3128205,"SoundDuration":3128205,"Delta":395330708},{"NoteNumber":78,"Velocity":50,"Duration":461538,"SoundDuration":461538,"Delta":397997375},{"NoteNumber":81,"Velocity":50,"Duration":461538,"SoundDuration":461538,"Delta":397997375},{"NoteNumber":69,"Velocity":44,"Duration":461538,"SoundDuration":461538,"Delta":397997375},{"NoteNumber":66,"Velocity":37,"Duration":461538,"SoundDuration":461538,"Delta":397997375},{"NoteNumber":69,"Velocity":39,"Duration":3277112,"SoundDuration":3277112,"Delta":400711496},{"NoteNumber":73,"Velocity":39,"Duration":2781244,"SoundDuration":2781244,"Delta":400711496},{"NoteNumber":79,"Velocity":47,"Duration":1406250,"SoundDuration":1406250,"Delta":400711496},{"NoteNumber":64,"Velocity":39,"Duration":2781244,"SoundDuration":2781244,"Delta":400711496},{"NoteNumber":57,"Velocity":33,"Duration":3277112,"SoundDuration":3277112,"Delta":400711496},{"NoteNumber":81,"Velocity":39,"Duration":96153,"SoundDuration":96153,"Delta":402117746},{"NoteNumber":79,"Velocity":36,"Duration":96153,"SoundDuration":96153,"Delta":402213900},{"NoteNumber":78,"Velocity":39,"Duration":96153,"SoundDuration":96153,"Delta":402310054},{"NoteNumber":79,"Velocity":36,"Duration":96153,"SoundDuration":96153,"Delta":402406208},{"NoteNumber":78,"Velocity":46,"Duration":225564,"SoundDuration":225564,"Delta":402502361},{"NoteNumber":79,"Velocity":39,"Duration":225563,"SoundDuration":225563,"Delta":402727925},{"NoteNumber":83,"Velocity":47,"Duration":236220,"SoundDuration":236220,"Delta":402953489},{"NoteNumber":81,"Velocity":37,"Duration":303030,"SoundDuration":303030,"Delta":403189710},{"NoteNumber":74,"Velocity":39,"Duration":495867,"SoundDuration":495867,"Delta":403492740},{"NoteNumber":78,"Velocity":46,"Duration":495867,"SoundDuration":495867,"Delta":403492740},{"NoteNumber":50,"Velocity":30,"Duration":495867,"SoundDuration":495867,"Delta":403492740},{"NoteNumber":62,"Velocity":36,"Duration":495867,"SoundDuration":495867,"Delta":403492740},{"NoteNumber":66,"Velocity":50,"Duration":229007,"SoundDuration":229007,"Delta":404236542},{"NoteNumber":69,"Velocity":57,"Duration":229007,"SoundDuration":229007,"Delta":404465550},{"NoteNumber":74,"Velocity":55,"Duration":229007,"SoundDuration":229007,"Delta":404694558},{"NoteNumber":78,"Velocity":57,"Duration":229007,"SoundDuration":229007,"Delta":404923565},{"NoteNumber":69,"Velocity":51,"Duration":667939,"SoundDuration":667939,"Delta":405152573},{"NoteNumber":74,"Velocity":51,"Duration":229007,"SoundDuration":229007,"Delta":405152573},{"NoteNumber":81,"Velocity":59,"Duration":229007,"SoundDuration":229007,"Delta":405152573},{"NoteNumber":54,"Velocity":45,"Duration":229007,"SoundDuration":229007,"Delta":405152573},{"NoteNumber":80,"Velocity":62,"Duration":458015,"SoundDuration":458015,"Delta":405381581},{"NoteNumber":76,"Velocity":52,"Duration":458015,"SoundDuration":458015,"Delta":405381581},{"NoteNumber":52,"Velocity":60,"Duration":458015,"SoundDuration":458015,"Delta":405381581},{"NoteNumber":56,"Velocity":60,"Duration":458015,"SoundDuration":458015,"Delta":405381581},{"NoteNumber":69,"Velocity":46,"Duration":398230,"SoundDuration":398230,"Delta":405839596},{"NoteNumber":78,"Velocity":65,"Duration":398230,"SoundDuration":398230,"Delta":405839596},{"NoteNumber":50,"Velocity":49,"Duration":398230,"SoundDuration":398230,"Delta":405839596},{"NoteNumber":57,"Velocity":58,"Duration":398230,"SoundDuration":398230,"Delta":405839596},{"NoteNumber":69,"Velocity":58,"Duration":796460,"SoundDuration":796460,"Delta":406370570},{"NoteNumber":76,"Velocity":69,"Duration":796460,"SoundDuration":796460,"Delta":406370570},{"NoteNumber":49,"Velocity":55,"Duration":1492403,"SoundDuration":1492403,"Delta":406370570},{"NoteNumber":57,"Velocity":65,"Duration":1492403,"SoundDuration":1492403,"Delta":406370570},{"NoteNumber":61,"Velocity":50,"Duration":240500,"SoundDuration":240500,"Delta":407167030},{"NoteNumber":64,"Velocity":57,"Duration":227721,"SoundDuration":227721,"Delta":407407530},{"NoteNumber":69,"Velocity":55,"Duration":227721,"SoundDuration":227721,"Delta":407635252},{"NoteNumber":73,"Velocity":57,"Duration":227721,"SoundDuration":227721,"Delta":407862973},{"NoteNumber":64,"Velocity":51,"Duration":683163,"SoundDuration":683163,"Delta":408090694},{"NoteNumber":69,"Velocity":51,"Duration":227721,"SoundDuration":227721,"Delta":408090694},{"NoteNumber":76,"Velocity":59,"Duration":227721,"SoundDuration":227721,"Delta":408090694},{"NoteNumber":61,"Velocity":45,"Duration":227721,"SoundDuration":227721,"Delta":408090694},{"NoteNumber":75,"Velocity":62,"Duration":455442,"SoundDuration":455442,"Delta":408318415},{"NoteNumber":71,"Velocity":52,"Duration":455442,"SoundDuration":455442,"Delta":408318415},{"NoteNumber":59,"Velocity":60,"Duration":455442,"SoundDuration":455442,"Delta":408318415},{"NoteNumber":63,"Velocity":60,"Duration":455442,"SoundDuration":455442,"Delta":408318415},{"NoteNumber":64,"Velocity":46,"Duration":355057,"SoundDuration":355057,"Delta":408773858},{"NoteNumber":73,"Velocity":65,"Duration":355057,"SoundDuration":355057,"Delta":408773858},{"NoteNumber":57,"Velocity":49,"Duration":355057,"SoundDuration":355057,"Delta":408773858},{"NoteNumber":64,"Velocity":58,"Duration":355057,"SoundDuration":355057,"Delta":408773858},{"NoteNumber":64,"Velocity":58,"Duration":360750,"SoundDuration":360750,"Delta":409247268},{"NoteNumber":71,"Velocity":69,"Duration":360750,"SoundDuration":360750,"Delta":409247268},{"NoteNumber":56,"Velocity":65,"Duration":360750,"SoundDuration":360750,"Delta":409247268},{"NoteNumber":66,"Velocity":73,"Duration":406357,"SoundDuration":406357,"Delta":409728268},{"NoteNumber":70,"Velocity":73,"Duration":406357,"SoundDuration":406357,"Delta":409728268},{"NoteNumber":76,"Velocity":73,"Duration":406357,"SoundDuration":406357,"Delta":409728268},{"NoteNumber":64,"Velocity":67,"Duration":406357,"SoundDuration":406357,"Delta":409728268},{"NoteNumber":61,"Velocity":67,"Duration":406357,"SoundDuration":406357,"Delta":409728268},{"NoteNumber":68,"Velocity":65,"Duration":1045842,"SoundDuration":1045842,"Delta":410270078},{"NoteNumber":71,"Velocity":65,"Duration":1045842,"SoundDuration":1045842,"Delta":410270078},{"NoteNumber":80,"Velocity":77,"Duration":1045842,"SoundDuration":1045842,"Delta":410270078},{"NoteNumber":76,"Velocity":65,"Duration":1045842,"SoundDuration":1045842,"Delta":410270078},{"NoteNumber":59,"Velocity":61,"Duration":1045842,"SoundDuration":1045842,"Delta":410270078},{"NoteNumber":64,"Velocity":72,"Duration":1045842,"SoundDuration":1045842,"Delta":410270078},{"NoteNumber":69,"Velocity":52,"Duration":1163204,"SoundDuration":1163204,"Delta":411315921},{"NoteNumber":71,"Velocity":52,"Duration":1136534,"SoundDuration":1136534,"Delta":411315921},{"NoteNumber":75,"Velocity":52,"Duration":1163204,"SoundDuration":1163204,"Delta":411315921},{"NoteNumber":80,"Velocity":62,"Duration":843170,"SoundDuration":843170,"Delta":411315921},{"NoteNumber":47,"Velocity":38,"Duration":1136534,"SoundDuration":1136534,"Delta":411315921},{"NoteNumber":59,"Velocity":45,"Duration":1136534,"SoundDuration":1136534,"Delta":411315921},{"NoteNumber":78,"Velocity":42,"Duration":320034,"SoundDuration":320034,"Delta":412159091},{"NoteNumber":68,"Velocity":41,"Duration":1702288,"SoundDuration":1702288,"Delta":412479125},{"NoteNumber":71,"Velocity":41,"Duration":1702288,"SoundDuration":1702288,"Delta":412479125},{"NoteNumber":76,"Velocity":49,"Duration":1702288,"SoundDuration":1702288,"Delta":412479125},{"NoteNumber":52,"Velocity":31,"Duration":1702288,"SoundDuration":1702288,"Delta":412479125},{"NoteNumber":59,"Velocity":37,"Duration":1702288,"SoundDuration":1702288,"Delta":412479125},{"NoteNumber":64,"Velocity":76,"Duration":476190,"SoundDuration":476190,"Delta":414181414},{"NoteNumber":61,"Velocity":68,"Duration":214285,"SoundDuration":214285,"Delta":414657604},{"NoteNumber":69,"Velocity":81,"Duration":214285,"SoundDuration":214285,"Delta":414657604},{"NoteNumber":69,"Velocity":75,"Duration":446843,"SoundDuration":446843,"Delta":414895700},{"NoteNumber":61,"Velocity":63,"Duration":446843,"SoundDuration":446843,"Delta":414895700},{"NoteNumber":52,"Velocity":66,"Duration":232558,"SoundDuration":232558,"Delta":415109985},{"NoteNumber":64,"Velocity":64,"Duration":232558,"SoundDuration":232558,"Delta":415342544},{"NoteNumber":71,"Velocity":76,"Duration":232558,"SoundDuration":232558,"Delta":415342544},{"NoteNumber":56,"Velocity":61,"Duration":232558,"SoundDuration":232558,"Delta":415342544},{"NoteNumber":69,"Velocity":73,"Duration":431140,"SoundDuration":431140,"Delta":415575102},{"NoteNumber":73,"Velocity":86,"Duration":431140,"SoundDuration":431140,"Delta":415575102},{"NoteNumber":57,"Velocity":66,"Duration":247933,"SoundDuration":247933,"Delta":415575102},{"NoteNumber":45,"Velocity":77,"Duration":489877,"SoundDuration":489877,"Delta":415823036},{"NoteNumber":69,"Velocity":72,"Duration":720172,"SoundDuration":720172,"Delta":416052044},{"NoteNumber":73,"Velocity":85,"Duration":720172,"SoundDuration":720172,"Delta":416052044},{"NoteNumber":33,"Velocity":59,"Duration":232558,"SoundDuration":232558,"Delta":416312913},{"NoteNumber":45,"Velocity":65,"Duration":232558,"SoundDuration":232558,"Delta":416545471},{"NoteNumber":69,"Velocity":73,"Duration":465116,"SoundDuration":465116,"Delta":416778030},{"NoteNumber":73,"Velocity":86,"Duration":465116,"SoundDuration":465116,"Delta":416778030},{"NoteNumber":52,"Velocity":73,"Duration":232558,"SoundDuration":232558,"Delta":417010588},{"NoteNumber":64,"Velocity":63,"Duration":232558,"SoundDuration":232558,"Delta":417243146},{"NoteNumber":71,"Velocity":74,"Duration":232558,"SoundDuration":232558,"Delta":417243146},{"NoteNumber":56,"Velocity":63,"Duration":232558,"SoundDuration":232558,"Delta":417243146},{"NoteNumber":61,"Velocity":65,"Duration":209302,"SoundDuration":209302,"Delta":417475704},{"NoteNumber":69,"Velocity":77,"Duration":209302,"SoundDuration":209302,"Delta":417475704},{"NoteNumber":54,"Velocity":65,"Duration":232558,"SoundDuration":232558,"Delta":417475704},{"NoteNumber":66,"Velocity":73,"Duration":464866,"SoundDuration":464866,"Delta":417708263},{"NoteNumber":69,"Velocity":86,"Duration":464866,"SoundDuration":464866,"Delta":417708263},{"NoteNumber":49,"Velocity":71,"Duration":252100,"SoundDuration":252100,"Delta":417921029},{"NoteNumber":61,"Velocity":64,"Duration":230769,"SoundDuration":230769,"Delta":418173129},{"NoteNumber":68,"Velocity":76,"Duration":230769,"SoundDuration":230769,"Delta":418173129},{"NoteNumber":52,"Velocity":62,"Duration":230769,"SoundDuration":230769,"Delta":418173129},{"NoteNumber":57,"Velocity":68,"Duration":452100,"SoundDuration":452100,"Delta":418403899},{"NoteNumber":66,"Velocity":80,"Duration":452100,"SoundDuration":452100,"Delta":418403899},{"NoteNumber":50,"Velocity":65,"Duration":252100,"SoundDuration":252100,"Delta":418403899},{"NoteNumber":38,"Velocity":74,"Duration":480769,"SoundDuration":480769,"Delta":418655999},{"NoteNumber":57,"Velocity":73,"Duration":923076,"SoundDuration":923076,"Delta":418905999},{"NoteNumber":66,"Velocity":86,"Duration":923076,"SoundDuration":923076,"Delta":418905999},{"NoteNumber":33,"Velocity":65,"Duration":230769,"SoundDuration":230769,"Delta":419136769},{"NoteNumber":38,"Velocity":65,"Duration":230769,"SoundDuration":230769,"Delta":419367538},{"NoteNumber":42,"Velocity":58,"Duration":230769,"SoundDuration":230769,"Delta":419598307},{"NoteNumber":66,"Velocity":76,"Duration":476190,"SoundDuration":476190,"Delta":419829076},{"NoteNumber":38,"Velocity":61,"Duration":238095,"SoundDuration":238095,"Delta":419829076},{"NoteNumber":37,"Velocity":64,"Duration":238095,"SoundDuration":238095,"Delta":420067172},{"NoteNumber":62,"Velocity":68,"Duration":214285,"SoundDuration":214285,"Delta":420305267},{"NoteNumber":71,"Velocity":81,"Duration":214285,"SoundDuration":214285,"Delta":420305267},{"NoteNumber":35,"Velocity":68,"Duration":238095,"SoundDuration":238095,"Delta":420305267},{"NoteNumber":71,"Velocity":75,"Duration":445244,"SoundDuration":445244,"Delta":420543362},{"NoteNumber":62,"Velocity":63,"Duration":445244,"SoundDuration":445244,"Delta":420543362},{"NoteNumber":54,"Velocity":66,"Duration":243902,"SoundDuration":243902,"Delta":420744704},{"NoteNumber":66,"Velocity":64,"Duration":243902,"SoundDuration":243902,"Delta":420988607},{"NoteNumber":73,"Velocity":76,"Duration":243902,"SoundDuration":243902,"Delta":420988607},{"NoteNumber":58,"Velocity":61,"Duration":243902,"SoundDuration":243902,"Delta":420988607},{"NoteNumber":71,"Velocity":73,"Duration":446364,"SoundDuration":446364,"Delta":421232509},{"NoteNumber":74,"Velocity":86,"Duration":446364,"SoundDuration":446364,"Delta":421232509},{"NoteNumber":59,"Velocity":66,"Duration":263157,"SoundDuration":263157,"Delta":421232509},{"NoteNumber":47,"Velocity":77,"Duration":489877,"SoundDuration":489877,"Delta":421495667},{"NoteNumber":71,"Velocity":72,"Duration":720172,"SoundDuration":720172,"Delta":421724675},{"NoteNumber":74,"Velocity":85,"Duration":720172,"SoundDuration":720172,"Delta":421724675},{"NoteNumber":35,"Velocity":59,"Duration":232558,"SoundDuration":232558,"Delta":421985545},{"NoteNumber":47,"Velocity":65,"Duration":232558,"SoundDuration":232558,"Delta":422218103},{"NoteNumber":71,"Velocity":73,"Duration":465116,"SoundDuration":465116,"Delta":422450661},{"NoteNumber":74,"Velocity":86,"Duration":465116,"SoundDuration":465116,"Delta":422450661},{"NoteNumber":54,"Velocity":73,"Duration":232558,"SoundDuration":232558,"Delta":422683219},{"NoteNumber":66,"Velocity":63,"Duration":232558,"SoundDuration":232558,"Delta":422915778},{"NoteNumber":73,"Velocity":74,"Duration":232558,"SoundDuration":232558,"Delta":422915778},{"NoteNumber":57,"Velocity":63,"Duration":232558,"SoundDuration":232558,"Delta":422915778},{"NoteNumber":62,"Velocity":65,"Duration":201492,"SoundDuration":201492,"Delta":423148336},{"NoteNumber":71,"Velocity":77,"Duration":201492,"SoundDuration":201492,"Delta":423148336},{"NoteNumber":56,"Velocity":65,"Duration":223880,"SoundDuration":223880,"Delta":423148336},{"NoteNumber":68,"Velocity":73,"Duration":431743,"SoundDuration":431743,"Delta":423372216},{"NoteNumber":71,"Velocity":86,"Duration":431743,"SoundDuration":431743,"Delta":423372216},{"NoteNumber":51,"Velocity":71,"Duration":218977,"SoundDuration":218977,"Delta":423584982},{"NoteNumber":63,"Velocity":64,"Duration":230769,"SoundDuration":230769,"Delta":423803960},{"NoteNumber":69,"Velocity":76,"Duration":230769,"SoundDuration":230769,"Delta":423803960},{"NoteNumber":54,"Velocity":65,"Duration":230769,"SoundDuration":230769,"Delta":423803960},{"NoteNumber":59,"Velocity":68,"Duration":228813,"SoundDuration":228813,"Delta":424034730},{"NoteNumber":68,"Velocity":80,"Duration":228813,"SoundDuration":228813,"Delta":424034730},{"NoteNumber":52,"Velocity":65,"Duration":254237,"SoundDuration":254237,"Delta":424034730},{"NoteNumber":40,"Velocity":74,"Duration":480769,"SoundDuration":480769,"Delta":424288967},{"NoteNumber":59,"Velocity":73,"Duration":686538,"SoundDuration":686538,"Delta":424538967},{"NoteNumber":68,"Velocity":86,"Duration":686538,"SoundDuration":686538,"Delta":424538967},{"NoteNumber":35,"Velocity":65,"Duration":230769,"SoundDuration":230769,"Delta":424769736},{"NoteNumber":40,"Velocity":65,"Duration":443947,"SoundDuration":443947,"Delta":425000505},{"NoteNumber":56,"Velocity":73,"Duration":465116,"SoundDuration":465116,"Delta":425231275},{"NoteNumber":64,"Velocity":73,"Duration":461240,"SoundDuration":461240,"Delta":425231275},{"NoteNumber":68,"Velocity":86,"Duration":465116,"SoundDuration":465116,"Delta":425231275},{"NoteNumber":40,"Velocity":73,"Duration":445736,"SoundDuration":445736,"Delta":425231275},{"NoteNumber":52,"Velocity":73,"Duration":445736,"SoundDuration":445736,"Delta":425231275},{"NoteNumber":57,"Velocity":63,"Duration":232558,"SoundDuration":232558,"Delta":425696391},{"NoteNumber":64,"Velocity":63,"Duration":213178,"SoundDuration":213178,"Delta":425696391},{"NoteNumber":69,"Velocity":74,"Duration":232558,"SoundDuration":232558,"Delta":425696391},{"NoteNumber":42,"Velocity":56,"Duration":232558,"SoundDuration":232558,"Delta":425696391},{"NoteNumber":52,"Velocity":56,"Duration":456438,"SoundDuration":456438,"Delta":425696391},{"NoteNumber":54,"Velocity":63,"Duration":232558,"SoundDuration":232558,"Delta":425696391},{"NoteNumber":64,"Velocity":65,"Duration":223880,"SoundDuration":223880,"Delta":425928949},{"NoteNumber":59,"Velocity":65,"Duration":201492,"SoundDuration":201492,"Delta":425928949},{"NoteNumber":71,"Velocity":77,"Duration":201492,"SoundDuration":201492,"Delta":425928949},{"NoteNumber":44,"Velocity":55,"Duration":223880,"SoundDuration":223880,"Delta":425928949},{"NoteNumber":56,"Velocity":65,"Duration":223880,"SoundDuration":223880,"Delta":425928949},{"NoteNumber":61,"Velocity":73,"Duration":431743,"SoundDuration":431743,"Delta":426152830},{"NoteNumber":69,"Velocity":73,"Duration":431743,"SoundDuration":431743,"Delta":426152830},{"NoteNumber":73,"Velocity":86,"Duration":431743,"SoundDuration":431743,"Delta":426152830},{"NoteNumber":57,"Velocity":71,"Duration":413495,"SoundDuration":413495,"Delta":426152830},{"NoteNumber":45,"Velocity":63,"Duration":431743,"SoundDuration":431743,"Delta":426152830},{"NoteNumber":69,"Velocity":64,"Duration":230769,"SoundDuration":230769,"Delta":426584574},{"NoteNumber":62,"Velocity":64,"Duration":230769,"SoundDuration":230769,"Delta":426584574},{"NoteNumber":74,"Velocity":76,"Duration":230769,"SoundDuration":230769,"Delta":426584574},{"NoteNumber":57,"Velocity":63,"Duration":230769,"SoundDuration":230769,"Delta":426584574},{"NoteNumber":47,"Velocity":63,"Duration":230769,"SoundDuration":230769,"Delta":426584574},{"NoteNumber":59,"Velocity":65,"Duration":230769,"SoundDuration":230769,"Delta":426584574},{"NoteNumber":64,"Velocity":68,"Duration":252100,"SoundDuration":252100,"Delta":426815343},{"NoteNumber":69,"Velocity":68,"Duration":226890,"SoundDuration":226890,"Delta":426815343},{"NoteNumber":76,"Velocity":80,"Duration":226890,"SoundDuration":226890,"Delta":426815343},{"NoteNumber":49,"Velocity":55,"Duration":252100,"SoundDuration":252100,"Delta":426815343},{"NoteNumber":57,"Velocity":55,"Duration":252100,"SoundDuration":252100,"Delta":426815343},{"NoteNumber":61,"Velocity":65,"Duration":252100,"SoundDuration":252100,"Delta":426815343},{"NoteNumber":64,"Velocity":73,"Duration":679821,"SoundDuration":679821,"Delta":427317444},{"NoteNumber":69,"Velocity":73,"Duration":679821,"SoundDuration":679821,"Delta":427317444},{"NoteNumber":76,"Velocity":86,"Duration":679821,"SoundDuration":679821,"Delta":427317444},{"NoteNumber":49,"Velocity":62,"Duration":679821,"SoundDuration":679821,"Delta":427317444},{"NoteNumber":57,"Velocity":62,"Duration":679821,"SoundDuration":679821,"Delta":427317444},{"NoteNumber":61,"Velocity":74,"Duration":679821,"SoundDuration":679821,"Delta":427317444},{"NoteNumber":69,"Velocity":70,"Duration":220149,"SoundDuration":220149,"Delta":428002863},{"NoteNumber":76,"Velocity":83,"Duration":220149,"SoundDuration":220149,"Delta":428002863},{"NoteNumber":61,"Velocity":71,"Duration":223880,"SoundDuration":223880,"Delta":428002863},{"NoteNumber":49,"Velocity":60,"Duration":223880,"SoundDuration":223880,"Delta":428002863},{"NoteNumber":69,"Velocity":73,"Duration":212230,"SoundDuration":212230,"Delta":428226743},{"NoteNumber":73,"Velocity":73,"Duration":212230,"SoundDuration":212230,"Delta":428226743},{"NoteNumber":81,"Velocity":86,"Duration":212230,"SoundDuration":212230,"Delta":428226743},{"NoteNumber":64,"Velocity":74,"Duration":215827,"SoundDuration":215827,"Delta":428226743},{"NoteNumber":52,"Velocity":62,"Duration":215827,"SoundDuration":215827,"Delta":428226743},{"NoteNumber":69,"Velocity":69,"Duration":212230,"SoundDuration":212230,"Delta":428442571},{"NoteNumber":76,"Velocity":82,"Duration":212230,"SoundDuration":212230,"Delta":428442571},{"NoteNumber":61,"Velocity":70,"Duration":215827,"SoundDuration":215827,"Delta":428442571},{"NoteNumber":49,"Velocity":59,"Duration":215827,"SoundDuration":215827,"Delta":428442571},{"NoteNumber":69,"Velocity":73,"Duration":212230,"SoundDuration":212230,"Delta":428658398},{"NoteNumber":73,"Velocity":86,"Duration":212230,"SoundDuration":212230,"Delta":428658398},{"NoteNumber":45,"Velocity":62,"Duration":215827,"SoundDuration":215827,"Delta":428658398},{"NoteNumber":57,"Velocity":74,"Duration":215827,"SoundDuration":215827,"Delta":428658398},{"NoteNumber":69,"Velocity":80,"Duration":212230,"SoundDuration":212230,"Delta":428874225},{"NoteNumber":44,"Velocity":58,"Duration":215827,"SoundDuration":215827,"Delta":428874225},{"NoteNumber":56,"Velocity":68,"Duration":215827,"SoundDuration":215827,"Delta":428874225},{"NoteNumber":69,"Velocity":70,"Duration":225190,"SoundDuration":225190,"Delta":429090052},{"NoteNumber":73,"Velocity":83,"Duration":225190,"SoundDuration":225190,"Delta":429090052},{"NoteNumber":42,"Velocity":60,"Duration":229007,"SoundDuration":229007,"Delta":429090052},{"NoteNumber":54,"Velocity":71,"Duration":229007,"SoundDuration":229007,"Delta":429090052},{"NoteNumber":69,"Velocity":70,"Duration":229007,"SoundDuration":229007,"Delta":429319060},{"NoteNumber":76,"Velocity":83,"Duration":229007,"SoundDuration":229007,"Delta":429319060},{"NoteNumber":40,"Velocity":60,"Duration":229007,"SoundDuration":229007,"Delta":429319060},{"NoteNumber":52,"Velocity":71,"Duration":229007,"SoundDuration":229007,"Delta":429319060},{"NoteNumber":74,"Velocity":68,"Duration":258620,"SoundDuration":258620,"Delta":429548068},{"NoteNumber":66,"Velocity":68,"Duration":258620,"SoundDuration":258620,"Delta":429548068},{"NoteNumber":69,"Velocity":68,"Duration":232758,"SoundDuration":232758,"Delta":429548068},{"NoteNumber":78,"Velocity":80,"Duration":232758,"SoundDuration":232758,"Delta":429548068},{"NoteNumber":38,"Velocity":55,"Duration":258620,"SoundDuration":258620,"Delta":429548068},{"NoteNumber":45,"Velocity":55,"Duration":258620,"SoundDuration":258620,"Delta":429548068},{"NoteNumber":50,"Velocity":65,"Duration":258620,"SoundDuration":258620,"Delta":429548068},{"NoteNumber":74,"Velocity":73,"Duration":679821,"SoundDuration":679821,"Delta":430056689},{"NoteNumber":66,"Velocity":73,"Duration":679821,"SoundDuration":679821,"Delta":430056689},{"NoteNumber":69,"Velocity":73,"Duration":679821,"SoundDuration":679821,"Delta":430056689},{"NoteNumber":78,"Velocity":86,"Duration":679821,"SoundDuration":679821,"Delta":430056689},{"NoteNumber":38,"Velocity":62,"Duration":679821,"SoundDuration":679821,"Delta":430056689},{"NoteNumber":45,"Velocity":62,"Duration":679821,"SoundDuration":679821,"Delta":430056689},{"NoteNumber":50,"Velocity":74,"Duration":679821,"SoundDuration":679821,"Delta":430056689},{"NoteNumber":66,"Velocity":77,"Duration":439707,"SoundDuration":439707,"Delta":430742108},{"NoteNumber":69,"Velocity":77,"Duration":436110,"SoundDuration":436110,"Delta":430742108},{"NoteNumber":78,"Velocity":91,"Duration":439707,"SoundDuration":439707,"Delta":430742108},{"NoteNumber":45,"Velocity":71,"Duration":223880,"SoundDuration":223880,"Delta":430742108},{"NoteNumber":38,"Velocity":60,"Duration":439707,"SoundDuration":439707,"Delta":430742108},{"NoteNumber":50,"Velocity":82,"Duration":215827,"SoundDuration":215827,"Delta":430965988},{"NoteNumber":64,"Velocity":69,"Duration":215827,"SoundDuration":215827,"Delta":431181815},{"NoteNumber":69,"Velocity":69,"Duration":215827,"SoundDuration":215827,"Delta":431181815},{"NoteNumber":76,"Velocity":82,"Duration":215827,"SoundDuration":215827,"Delta":431181815},{"NoteNumber":45,"Velocity":59,"Duration":215827,"SoundDuration":215827,"Delta":431181815},{"NoteNumber":49,"Velocity":70,"Duration":215827,"SoundDuration":215827,"Delta":431181815},{"NoteNumber":37,"Velocity":59,"Duration":215827,"SoundDuration":215827,"Delta":431181815},{"NoteNumber":66,"Velocity":73,"Duration":205035,"SoundDuration":205035,"Delta":431397643},{"NoteNumber":69,"Velocity":73,"Duration":205035,"SoundDuration":205035,"Delta":431397643},{"NoteNumber":78,"Velocity":86,"Duration":205035,"SoundDuration":205035,"Delta":431397643},{"NoteNumber":38,"Velocity":62,"Duration":205035,"SoundDuration":205035,"Delta":431397643},{"NoteNumber":45,"Velocity":62,"Duration":205035,"SoundDuration":205035,"Delta":431397643},{"NoteNumber":50,"Velocity":74,"Duration":205035,"SoundDuration":205035,"Delta":431397643},{"NoteNumber":66,"Velocity":83,"Duration":444835,"SoundDuration":444835,"Delta":431613470},{"NoteNumber":69,"Velocity":83,"Duration":444835,"SoundDuration":444835,"Delta":431613470},{"NoteNumber":78,"Velocity":83,"Duration":444835,"SoundDuration":444835,"Delta":431613470},{"NoteNumber":38,"Velocity":60,"Duration":444835,"SoundDuration":444835,"Delta":431613470},{"NoteNumber":45,"Velocity":71,"Duration":215827,"SoundDuration":215827,"Delta":431613470},{"NoteNumber":50,"Velocity":68,"Duration":229007,"SoundDuration":229007,"Delta":431829297},{"NoteNumber":67,"Velocity":70,"Duration":229007,"SoundDuration":229007,"Delta":432058305},{"NoteNumber":79,"Velocity":83,"Duration":229007,"SoundDuration":229007,"Delta":432058305},{"NoteNumber":69,"Velocity":70,"Duration":229007,"SoundDuration":229007,"Delta":432058305},{"NoteNumber":47,"Velocity":60,"Duration":229007,"SoundDuration":229007,"Delta":432058305},{"NoteNumber":40,"Velocity":60,"Duration":229007,"SoundDuration":229007,"Delta":432058305},{"NoteNumber":52,"Velocity":71,"Duration":229007,"SoundDuration":229007,"Delta":432058305},{"NoteNumber":66,"Velocity":74,"Duration":258620,"SoundDuration":258620,"Delta":432287313},{"NoteNumber":74,"Velocity":74,"Duration":232758,"SoundDuration":232758,"Delta":432287313},{"NoteNumber":78,"Velocity":88,"Duration":232758,"SoundDuration":232758,"Delta":432287313},{"NoteNumber":38,"Velocity":60,"Duration":258620,"SoundDuration":258620,"Delta":432287313},{"NoteNumber":45,"Velocity":60,"Duration":258620,"SoundDuration":258620,"Delta":432287313},{"NoteNumber":50,"Velocity":71,"Duration":258620,"SoundDuration":258620,"Delta":432287313},{"NoteNumber":66,"Velocity":73,"Duration":685419,"SoundDuration":685419,"Delta":432795933},{"NoteNumber":74,"Velocity":73,"Duration":685419,"SoundDuration":685419,"Delta":432795933},{"NoteNumber":78,"Velocity":86,"Duration":685419,"SoundDuration":685419,"Delta":432795933},{"NoteNumber":38,"Velocity":62,"Duration":685419,"SoundDuration":685419,"Delta":432795933},{"NoteNumber":45,"Velocity":62,"Duration":685419,"SoundDuration":685419,"Delta":432795933},{"NoteNumber":50,"Velocity":74,"Duration":685419,"SoundDuration":685419,"Delta":432795933},{"NoteNumber":62,"Velocity":70,"Duration":220149,"SoundDuration":220149,"Delta":433481352},{"NoteNumber":69,"Velocity":83,"Duration":220149,"SoundDuration":220149,"Delta":433481352},{"NoteNumber":54,"Velocity":71,"Duration":223880,"SoundDuration":223880,"Delta":433481352},{"NoteNumber":42,"Velocity":60,"Duration":223880,"SoundDuration":223880,"Delta":433481352},{"NoteNumber":62,"Velocity":73,"Duration":212230,"SoundDuration":212230,"Delta":433705233},{"NoteNumber":66,"Velocity":73,"Duration":212230,"SoundDuration":212230,"Delta":433705233},{"NoteNumber":74,"Velocity":86,"Duration":212230,"SoundDuration":212230,"Delta":433705233},{"NoteNumber":57,"Velocity":74,"Duration":215827,"SoundDuration":215827,"Delta":433705233},{"NoteNumber":45,"Velocity":62,"Duration":215827,"SoundDuration":215827,"Delta":433705233},{"NoteNumber":62,"Velocity":69,"Duration":212230,"SoundDuration":212230,"Delta":433921060},{"NoteNumber":69,"Velocity":82,"Duration":212230,"SoundDuration":212230,"Delta":433921060},{"NoteNumber":54,"Velocity":70,"Duration":215827,"SoundDuration":215827,"Delta":433921060},{"NoteNumber":42,"Velocity":59,"Duration":215827,"SoundDuration":215827,"Delta":433921060},{"NoteNumber":62,"Velocity":70,"Duration":212230,"SoundDuration":212230,"Delta":434136887},{"NoteNumber":66,"Velocity":83,"Duration":212230,"SoundDuration":212230,"Delta":434136887},{"NoteNumber":38,"Velocity":60,"Duration":215827,"SoundDuration":215827,"Delta":434136887},{"NoteNumber":50,"Velocity":71,"Duration":215827,"SoundDuration":215827,"Delta":434136887},{"NoteNumber":62,"Velocity":73,"Duration":212230,"SoundDuration":212230,"Delta":434352715},{"NoteNumber":69,"Velocity":83,"Duration":212230,"SoundDuration":212230,"Delta":434352715},{"NoteNumber":42,"Velocity":60,"Duration":215827,"SoundDuration":215827,"Delta":434352715},{"NoteNumber":54,"Velocity":71,"Duration":215827,"SoundDuration":215827,"Delta":434352715},{"NoteNumber":66,"Velocity":67,"Duration":225190,"SoundDuration":225190,"Delta":434568542},{"NoteNumber":62,"Velocity":67,"Duration":225190,"SoundDuration":225190,"Delta":434568542},{"NoteNumber":74,"Velocity":80,"Duration":225190,"SoundDuration":225190,"Delta":434568542},{"NoteNumber":38,"Velocity":58,"Duration":229007,"SoundDuration":229007,"Delta":434568542},{"NoteNumber":50,"Velocity":68,"Duration":229007,"SoundDuration":229007,"Delta":434568542},{"NoteNumber":64,"Velocity":70,"Duration":229007,"SoundDuration":229007,"Delta":434797550},{"NoteNumber":76,"Velocity":83,"Duration":229007,"SoundDuration":229007,"Delta":434797550},{"NoteNumber":69,"Velocity":70,"Duration":229007,"SoundDuration":229007,"Delta":434797550},{"NoteNumber":37,"Velocity":60,"Duration":229007,"SoundDuration":229007,"Delta":434797550},{"NoteNumber":49,"Velocity":71,"Duration":229007,"SoundDuration":229007,"Delta":434797550},{"NoteNumber":74,"Velocity":68,"Duration":260869,"SoundDuration":260869,"Delta":435026557},{"NoteNumber":66,"Velocity":68,"Duration":260869,"SoundDuration":260869,"Delta":435026557},{"NoteNumber":78,"Velocity":80,"Duration":234782,"SoundDuration":234782,"Delta":435026557},{"NoteNumber":35,"Velocity":55,"Duration":260869,"SoundDuration":260869,"Delta":435026557},{"NoteNumber":47,"Velocity":65,"Duration":260869,"SoundDuration":260869,"Delta":435026557},{"NoteNumber":74,"Velocity":73,"Duration":679821,"SoundDuration":679821,"Delta":435537427},{"NoteNumber":66,"Velocity":73,"Duration":679821,"SoundDuration":679821,"Delta":435537427},{"NoteNumber":78,"Velocity":86,"Duration":679821,"SoundDuration":679821,"Delta":435537427},{"NoteNumber":35,"Velocity":62,"Duration":679821,"SoundDuration":679821,"Delta":435537427},{"NoteNumber":42,"Velocity":62,"Duration":679821,"SoundDuration":679821,"Delta":435537427},{"NoteNumber":47,"Velocity":74,"Duration":679821,"SoundDuration":679821,"Delta":435537427},{"NoteNumber":74,"Velocity":85,"Duration":436063,"SoundDuration":436063,"Delta":436222846},{"NoteNumber":78,"Velocity":85,"Duration":436063,"SoundDuration":436063,"Delta":436222846},{"NoteNumber":86,"Velocity":101,"Duration":436063,"SoundDuration":436063,"Delta":436222846},{"NoteNumber":35,"Velocity":60,"Duration":436063,"SoundDuration":436063,"Delta":436222846},{"NoteNumber":42,"Velocity":60,"Duration":436063,"SoundDuration":436063,"Delta":436222846},{"NoteNumber":47,"Velocity":71,"Duration":436063,"SoundDuration":436063,"Delta":436222846},{"NoteNumber":74,"Velocity":83,"Duration":230769,"SoundDuration":230769,"Delta":436679742},{"NoteNumber":78,"Velocity":83,"Duration":230769,"SoundDuration":230769,"Delta":436679742},{"NoteNumber":86,"Velocity":98,"Duration":230769,"SoundDuration":230769,"Delta":436679742},{"NoteNumber":35,"Velocity":62,"Duration":230769,"SoundDuration":230769,"Delta":436679742},{"NoteNumber":42,"Velocity":62,"Duration":230769,"SoundDuration":230769,"Delta":436679742},{"NoteNumber":47,"Velocity":74,"Duration":230769,"SoundDuration":230769,"Delta":436679742},{"NoteNumber":74,"Velocity":68,"Duration":263157,"SoundDuration":263157,"Delta":436910512},{"NoteNumber":68,"Velocity":68,"Duration":263157,"SoundDuration":263157,"Delta":436910512},{"NoteNumber":80,"Velocity":80,"Duration":236842,"SoundDuration":236842,"Delta":436910512},{"NoteNumber":40,"Velocity":55,"Duration":263157,"SoundDuration":263157,"Delta":436910512},{"NoteNumber":47,"Velocity":55,"Duration":263157,"SoundDuration":263157,"Delta":436910512},{"NoteNumber":52,"Velocity":65,"Duration":263157,"SoundDuration":263157,"Delta":436910512},{"NoteNumber":74,"Velocity":73,"Duration":692307,"SoundDuration":692307,"Delta":437423670},{"NoteNumber":68,"Velocity":73,"Duration":692307,"SoundDuration":692307,"Delta":437423670},{"NoteNumber":80,"Velocity":86,"Duration":692307,"SoundDuration":692307,"Delta":437423670},{"NoteNumber":40,"Velocity":62,"Duration":692307,"SoundDuration":692307,"Delta":437423670},{"NoteNumber":47,"Velocity":62,"Duration":692307,"SoundDuration":692307,"Delta":437423670},{"NoteNumber":52,"Velocity":74,"Duration":692307,"SoundDuration":692307,"Delta":437423670},{"NoteNumber":69,"Velocity":85,"Duration":436063,"SoundDuration":436063,"Delta":438115977},{"NoteNumber":73,"Velocity":85,"Duration":436063,"SoundDuration":436063,"Delta":438115977},{"NoteNumber":81,"Velocity":101,"Duration":436063,"SoundDuration":436063,"Delta":438115977},{"NoteNumber":33,"Velocity":60,"Duration":436063,"SoundDuration":436063,"Delta":438115977},{"NoteNumber":40,"Velocity":60,"Duration":436063,"SoundDuration":436063,"Delta":438115977},{"NoteNumber":45,"Velocity":71,"Duration":436063,"SoundDuration":436063,"Delta":438115977},{"NoteNumber":69,"Velocity":74,"Duration":230769,"SoundDuration":230769,"Delta":438572874},{"NoteNumber":73,"Velocity":74,"Duration":230769,"SoundDuration":230769,"Delta":438572874},{"NoteNumber":81,"Velocity":88,"Duration":230769,"SoundDuration":230769,"Delta":438572874},{"NoteNumber":33,"Velocity":55,"Duration":230769,"SoundDuration":230769,"Delta":438572874},{"NoteNumber":40,"Velocity":55,"Duration":230769,"SoundDuration":230769,"Delta":438572874},{"NoteNumber":45,"Velocity":66,"Duration":230769,"SoundDuration":230769,"Delta":438572874},{"NoteNumber":61,"Velocity":68,"Duration":267857,"SoundDuration":267857,"Delta":438803643},{"NoteNumber":57,"Velocity":68,"Duration":267857,"SoundDuration":267857,"Delta":438803643},{"NoteNumber":69,"Velocity":80,"Duration":241071,"SoundDuration":241071,"Delta":438803643},{"NoteNumber":45,"Velocity":55,"Duration":267857,"SoundDuration":267857,"Delta":438803643},{"NoteNumber":52,"Velocity":65,"Duration":267857,"SoundDuration":267857,"Delta":438803643},{"NoteNumber":61,"Velocity":73,"Duration":1626982,"SoundDuration":1626982,"Delta":439336987},{"NoteNumber":57,"Velocity":73,"Duration":1626982,"SoundDuration":1626982,"Delta":439336987},{"NoteNumber":69,"Velocity":86,"Duration":1626982,"SoundDuration":1626982,"Delta":439336987},{"NoteNumber":45,"Velocity":62,"Duration":1626982,"SoundDuration":1626982,"Delta":439336987},{"NoteNumber":52,"Velocity":74,"Duration":1626982,"SoundDuration":1626982,"Delta":439336987},{"NoteNumber":69,"Velocity":37,"Duration":250835,"SoundDuration":250835,"Delta":440963970},{"NoteNumber":66,"Velocity":37,"Duration":264084,"SoundDuration":264084,"Delta":441214806},{"NoteNumber":74,"Velocity":37,"Duration":264084,"SoundDuration":264084,"Delta":441214806},{"NoteNumber":69,"Velocity":37,"Duration":278810,"SoundDuration":278810,"Delta":441478891},{"NoteNumber":76,"Velocity":37,"Duration":278810,"SoundDuration":278810,"Delta":441478891},{"NoteNumber":74,"Velocity":34,"Duration":232758,"SoundDuration":232758,"Delta":441757701},{"NoteNumber":78,"Velocity":40,"Duration":232758,"SoundDuration":232758,"Delta":441757701},{"NoteNumber":50,"Velocity":32,"Duration":250000,"SoundDuration":250000,"Delta":442016322},{"NoteNumber":74,"Velocity":36,"Duration":689898,"SoundDuration":689898,"Delta":442266322},{"NoteNumber":78,"Velocity":43,"Duration":689898,"SoundDuration":689898,"Delta":442266322},{"NoteNumber":57,"Velocity":35,"Duration":238853,"SoundDuration":238853,"Delta":442266322},{"NoteNumber":50,"Velocity":32,"Duration":643946,"SoundDuration":643946,"Delta":442505175},{"NoteNumber":57,"Velocity":36,"Duration":405092,"SoundDuration":405092,"Delta":442744029},{"NoteNumber":69,"Velocity":35,"Duration":227623,"SoundDuration":227623,"Delta":442975510},{"NoteNumber":76,"Velocity":41,"Duration":227623,"SoundDuration":227623,"Delta":442975510},{"NoteNumber":74,"Velocity":36,"Duration":219167,"SoundDuration":219167,"Delta":443206992},{"NoteNumber":78,"Velocity":43,"Duration":219167,"SoundDuration":219167,"Delta":443206992},{"NoteNumber":57,"Velocity":37,"Duration":1356348,"SoundDuration":1356348,"Delta":443206992},{"NoteNumber":50,"Velocity":31,"Duration":1356348,"SoundDuration":1356348,"Delta":443206992},{"NoteNumber":76,"Velocity":34,"Duration":219167,"SoundDuration":219167,"Delta":443429874},{"NoteNumber":81,"Velocity":41,"Duration":219167,"SoundDuration":219167,"Delta":443429874},{"NoteNumber":74,"Velocity":36,"Duration":219167,"SoundDuration":219167,"Delta":443652757},{"NoteNumber":78,"Velocity":43,"Duration":219167,"SoundDuration":219167,"Delta":443652757},{"NoteNumber":69,"Velocity":38,"Duration":219167,"SoundDuration":219167,"Delta":443875639},{"NoteNumber":76,"Velocity":38,"Duration":219167,"SoundDuration":219167,"Delta":443875639},{"NoteNumber":74,"Velocity":35,"Duration":225880,"SoundDuration":225880,"Delta":444098522},{"NoteNumber":78,"Velocity":41,"Duration":225880,"SoundDuration":225880,"Delta":444098522},{"NoteNumber":76,"Velocity":38,"Duration":235109,"SoundDuration":235109,"Delta":444328231},{"NoteNumber":81,"Velocity":38,"Duration":235109,"SoundDuration":235109,"Delta":444328231},{"NoteNumber":74,"Velocity":34,"Duration":214968,"SoundDuration":214968,"Delta":444563341},{"NoteNumber":78,"Velocity":40,"Duration":214968,"SoundDuration":214968,"Delta":444563341},{"NoteNumber":50,"Velocity":32,"Duration":235109,"SoundDuration":235109,"Delta":444802194},{"NoteNumber":74,"Velocity":36,"Duration":678754,"SoundDuration":678754,"Delta":445037304},{"NoteNumber":78,"Velocity":43,"Duration":678754,"SoundDuration":678754,"Delta":445037304},{"NoteNumber":57,"Velocity":35,"Duration":233281,"SoundDuration":233281,"Delta":445037304},{"NoteNumber":50,"Velocity":32,"Duration":638374,"SoundDuration":638374,"Delta":445270585},{"NoteNumber":57,"Velocity":36,"Duration":405092,"SoundDuration":405092,"Delta":445503867},{"NoteNumber":69,"Velocity":35,"Duration":227623,"SoundDuration":227623,"Delta":445735348},{"NoteNumber":76,"Velocity":41,"Duration":227623,"SoundDuration":227623,"Delta":445735348},{"NoteNumber":74,"Velocity":37,"Duration":219167,"SoundDuration":219167,"Delta":445966830},{"NoteNumber":78,"Velocity":44,"Duration":219167,"SoundDuration":219167,"Delta":445966830},{"NoteNumber":57,"Velocity":38,"Duration":1360092,"SoundDuration":1360092,"Delta":445966830},{"NoteNumber":50,"Velocity":31,"Duration":668647,"SoundDuration":668647,"Delta":445966830},{"NoteNumber":76,"Velocity":35,"Duration":219167,"SoundDuration":219167,"Delta":446189712},{"NoteNumber":81,"Velocity":43,"Duration":219167,"SoundDuration":219167,"Delta":446189712},{"NoteNumber":74,"Velocity":38,"Duration":219167,"SoundDuration":219167,"Delta":446412595},{"NoteNumber":78,"Velocity":46,"Duration":219167,"SoundDuration":219167,"Delta":446412595},{"NoteNumber":69,"Velocity":41,"Duration":219167,"SoundDuration":219167,"Delta":446635477},{"NoteNumber":76,"Velocity":41,"Duration":219167,"SoundDuration":219167,"Delta":446635477},{"NoteNumber":49,"Velocity":32,"Duration":222882,"SoundDuration":222882,"Delta":446635477},{"NoteNumber":74,"Velocity":38,"Duration":225880,"SoundDuration":225880,"Delta":446858360},{"NoteNumber":78,"Velocity":45,"Duration":225880,"SoundDuration":225880,"Delta":446858360},{"NoteNumber":47,"Velocity":35,"Duration":229709,"SoundDuration":229709,"Delta":446858360},{"NoteNumber":76,"Velocity":42,"Duration":238853,"SoundDuration":238853,"Delta":447088069},{"NoteNumber":81,"Velocity":42,"Duration":238853,"SoundDuration":238853,"Delta":447088069},{"NoteNumber":45,"Velocity":39,"Duration":238853,"SoundDuration":238853,"Delta":447088069},{"NoteNumber":79,"Velocity":39,"Duration":232758,"SoundDuration":232758,"Delta":447326922},{"NoteNumber":83,"Velocity":46,"Duration":232758,"SoundDuration":232758,"Delta":447326922},{"NoteNumber":43,"Velocity":36,"Duration":250000,"SoundDuration":250000,"Delta":447585543},{"NoteNumber":83,"Velocity":49,"Duration":689898,"SoundDuration":689898,"Delta":447835543},{"NoteNumber":79,"Velocity":41,"Duration":689898,"SoundDuration":689898,"Delta":447835543},{"NoteNumber":50,"Velocity":40,"Duration":238853,"SoundDuration":238853,"Delta":447835543},{"NoteNumber":43,"Velocity":36,"Duration":643946,"SoundDuration":643946,"Delta":448074397},{"NoteNumber":50,"Velocity":41,"Duration":405092,"SoundDuration":405092,"Delta":448313250},{"NoteNumber":74,"Velocity":40,"Duration":225694,"SoundDuration":225694,"Delta":448544732},{"NoteNumber":81,"Velocity":47,"Duration":227623,"SoundDuration":227623,"Delta":448544732},{"NoteNumber":79,"Velocity":41,"Duration":217310,"SoundDuration":217310,"Delta":448776213},{"NoteNumber":83,"Velocity":49,"Duration":219167,"SoundDuration":219167,"Delta":448776213},{"NoteNumber":50,"Velocity":42,"Duration":1356348,"SoundDuration":1356348,"Delta":448776213},{"NoteNumber":43,"Velocity":35,"Duration":1356348,"SoundDuration":1356348,"Delta":448776213},{"NoteNumber":74,"Velocity":39,"Duration":217310,"SoundDuration":217310,"Delta":448999096},{"NoteNumber":81,"Velocity":47,"Duration":219167,"SoundDuration":219167,"Delta":448999096},{"NoteNumber":71,"Velocity":41,"Duration":219167,"SoundDuration":219167,"Delta":449221978},{"NoteNumber":79,"Velocity":49,"Duration":217310,"SoundDuration":217310,"Delta":449221978},{"NoteNumber":69,"Velocity":43,"Duration":219167,"SoundDuration":219167,"Delta":449444861},{"NoteNumber":74,"Velocity":43,"Duration":217310,"SoundDuration":217310,"Delta":449444861},{"NoteNumber":71,"Velocity":40,"Duration":225880,"SoundDuration":225880,"Delta":449667743},{"NoteNumber":79,"Velocity":47,"Duration":223966,"SoundDuration":223966,"Delta":449667743},{"NoteNumber":74,"Velocity":43,"Duration":235109,"SoundDuration":235109,"Delta":449897452},{"NoteNumber":84,"Velocity":43,"Duration":235109,"SoundDuration":235109,"Delta":449897452},{"NoteNumber":79,"Velocity":39,"Duration":232758,"SoundDuration":232758,"Delta":450132562},{"NoteNumber":83,"Velocity":46,"Duration":232758,"SoundDuration":232758,"Delta":450132562},{"NoteNumber":43,"Velocity":36,"Duration":250000,"SoundDuration":250000,"Delta":450391183},{"NoteNumber":83,"Velocity":49,"Duration":689898,"SoundDuration":689898,"Delta":450641183},{"NoteNumber":79,"Velocity":41,"Duration":689898,"SoundDuration":689898,"Delta":450641183},{"NoteNumber":50,"Velocity":40,"Duration":238853,"SoundDuration":238853,"Delta":450641183},{"NoteNumber":43,"Velocity":36,"Duration":643946,"SoundDuration":643946,"Delta":450880036},{"NoteNumber":50,"Velocity":41,"Duration":405092,"SoundDuration":405092,"Delta":451118890},{"NoteNumber":79,"Velocity":45,"Duration":225694,"SoundDuration":225694,"Delta":451350371},{"NoteNumber":83,"Velocity":53,"Duration":227623,"SoundDuration":227623,"Delta":451350371},{"NoteNumber":83,"Velocity":49,"Duration":217310,"SoundDuration":217310,"Delta":451581853},{"NoteNumber":86,"Velocity":58,"Duration":217310,"SoundDuration":217310,"Delta":451581853},{"NoteNumber":50,"Velocity":42,"Duration":1121239,"SoundDuration":1121239,"Delta":451581853},{"NoteNumber":43,"Velocity":35,"Duration":1117410,"SoundDuration":1117410,"Delta":451581853},{"NoteNumber":81,"Velocity":45,"Duration":217310,"SoundDuration":217310,"Delta":451804735},{"NoteNumber":85,"Velocity":54,"Duration":219167,"SoundDuration":219167,"Delta":451804735},{"NoteNumber":79,"Velocity":50,"Duration":217310,"SoundDuration":217310,"Delta":452027618},{"NoteNumber":83,"Velocity":59,"Duration":217310,"SoundDuration":217310,"Delta":452027618},{"NoteNumber":76,"Velocity":43,"Duration":219167,"SoundDuration":219167,"Delta":452250500},{"NoteNumber":79,"Velocity":51,"Duration":217310,"SoundDuration":217310,"Delta":452250500},{"NoteNumber":79,"Velocity":47,"Duration":223966,"SoundDuration":223966,"Delta":452473383},{"NoteNumber":83,"Velocity":56,"Duration":223966,"SoundDuration":223966,"Delta":452473383},{"NoteNumber":76,"Velocity":43,"Duration":235109,"SoundDuration":235109,"Delta":452703092},{"NoteNumber":79,"Velocity":51,"Duration":235109,"SoundDuration":235109,"Delta":452703092},{"NoteNumber":43,"Velocity":31,"Duration":235109,"SoundDuration":235109,"Delta":452703092},{"NoteNumber":52,"Velocity":39,"Duration":235109,"SoundDuration":235109,"Delta":452703092},{"NoteNumber":73,"Velocity":39,"Duration":232758,"SoundDuration":232758,"Delta":452938201},{"NoteNumber":76,"Velocity":46,"Duration":232758,"SoundDuration":232758,"Delta":452938201},{"NoteNumber":43,"Velocity":36,"Duration":250000,"SoundDuration":250000,"Delta":453196822},{"NoteNumber":76,"Velocity":49,"Duration":689898,"SoundDuration":689898,"Delta":453446822},{"NoteNumber":73,"Velocity":41,"Duration":689898,"SoundDuration":689898,"Delta":453446822},{"NoteNumber":52,"Velocity":40,"Duration":238853,"SoundDuration":238853,"Delta":453446822},{"NoteNumber":43,"Velocity":36,"Duration":643946,"SoundDuration":643946,"Delta":453685676},{"NoteNumber":52,"Velocity":41,"Duration":405092,"SoundDuration":405092,"Delta":453924529},{"NoteNumber":73,"Velocity":45,"Duration":225694,"SoundDuration":225694,"Delta":454156011},{"NoteNumber":76,"Velocity":53,"Duration":227623,"SoundDuration":227623,"Delta":454156011},{"NoteNumber":76,"Velocity":49,"Duration":217310,"SoundDuration":217310,"Delta":454387492},{"NoteNumber":79,"Velocity":58,"Duration":217310,"SoundDuration":217310,"Delta":454387492},{"NoteNumber":52,"Velocity":42,"Duration":891529,"SoundDuration":891529,"Delta":454387492},{"NoteNumber":43,"Velocity":35,"Duration":891529,"SoundDuration":891529,"Delta":454387492},{"NoteNumber":74,"Velocity":45,"Duration":217310,"SoundDuration":217310,"Delta":454610375},{"NoteNumber":78,"Velocity":54,"Duration":219167,"SoundDuration":219167,"Delta":454610375},{"NoteNumber":73,"Velocity":50,"Duration":217310,"SoundDuration":217310,"Delta":454833257},{"NoteNumber":76,"Velocity":59,"Duration":217310,"SoundDuration":217310,"Delta":454833257},{"NoteNumber":74,"Velocity":43,"Duration":217310,"SoundDuration":217310,"Delta":455056140},{"NoteNumber":78,"Velocity":51,"Duration":217310,"SoundDuration":217310,"Delta":455056140},{"NoteNumber":73,"Velocity":47,"Duration":223966,"SoundDuration":223966,"Delta":455279022},{"NoteNumber":76,"Velocity":56,"Duration":223966,"SoundDuration":223966,"Delta":455279022},{"NoteNumber":55,"Velocity":35,"Duration":464818,"SoundDuration":464818,"Delta":455279022},{"NoteNumber":64,"Velocity":42,"Duration":464818,"SoundDuration":464818,"Delta":455279022},{"NoteNumber":71,"Velocity":43,"Duration":235109,"SoundDuration":235109,"Delta":455508731},{"NoteNumber":73,"Velocity":51,"Duration":235109,"SoundDuration":235109,"Delta":455508731},{"NoteNumber":70,"Velocity":39,"Duration":232758,"SoundDuration":232758,"Delta":455743841},{"NoteNumber":78,"Velocity":46,"Duration":232758,"SoundDuration":232758,"Delta":455743841},{"NoteNumber":54,"Velocity":36,"Duration":250000,"SoundDuration":250000,"Delta":456002462},{"NoteNumber":78,"Velocity":49,"Duration":689898,"SoundDuration":689898,"Delta":456252462},{"NoteNumber":70,"Velocity":41,"Duration":689898,"SoundDuration":689898,"Delta":456252462},{"NoteNumber":64,"Velocity":40,"Duration":238853,"SoundDuration":238853,"Delta":456252462},{"NoteNumber":54,"Velocity":36,"Duration":643946,"SoundDuration":643946,"Delta":456491315},{"NoteNumber":64,"Velocity":41,"Duration":405092,"SoundDuration":405092,"Delta":456730169},{"NoteNumber":73,"Velocity":45,"Duration":225694,"SoundDuration":225694,"Delta":456961650},{"NoteNumber":76,"Velocity":53,"Duration":227623,"SoundDuration":227623,"Delta":456961650},{"NoteNumber":76,"Velocity":49,"Duration":221590,"SoundDuration":221590,"Delta":457193132},{"NoteNumber":79,"Velocity":58,"Duration":221590,"SoundDuration":221590,"Delta":457193132},{"NoteNumber":64,"Velocity":42,"Duration":909090,"SoundDuration":909090,"Delta":457193132},{"NoteNumber":54,"Velocity":35,"Duration":909090,"SoundDuration":909090,"Delta":457193132},{"NoteNumber":74,"Velocity":45,"Duration":221590,"SoundDuration":221590,"Delta":457420404},{"NoteNumber":78,"Velocity":54,"Duration":223484,"SoundDuration":223484,"Delta":457420404},{"NoteNumber":73,"Velocity":50,"Duration":221590,"SoundDuration":221590,"Delta":457647677},{"NoteNumber":76,"Velocity":59,"Duration":221590,"SoundDuration":221590,"Delta":457647677},{"NoteNumber":74,"Velocity":43,"Duration":221590,"SoundDuration":221590,"Delta":457874950},{"NoteNumber":78,"Velocity":51,"Duration":221590,"SoundDuration":221590,"Delta":457874950},{"NoteNumber":73,"Velocity":47,"Duration":232142,"SoundDuration":232142,"Delta":458102223},{"NoteNumber":76,"Velocity":56,"Duration":232142,"SoundDuration":232142,"Delta":458102223},{"NoteNumber":55,"Velocity":35,"Duration":488095,"SoundDuration":488095,"Delta":458102223},{"NoteNumber":64,"Velocity":42,"Duration":488095,"SoundDuration":488095,"Delta":458102223},{"NoteNumber":71,"Velocity":43,"Duration":250000,"SoundDuration":250000,"Delta":458340318},{"NoteNumber":73,"Velocity":51,"Duration":250000,"SoundDuration":250000,"Delta":458340318},{"NoteNumber":70,"Velocity":39,"Duration":232758,"SoundDuration":232758,"Delta":458590318},{"NoteNumber":78,"Velocity":46,"Duration":232758,"SoundDuration":232758,"Delta":458590318},{"NoteNumber":54,"Velocity":36,"Duration":250000,"SoundDuration":250000,"Delta":458848939},{"NoteNumber":78,"Velocity":49,"Duration":921379,"SoundDuration":921379,"Delta":459098939},{"NoteNumber":70,"Velocity":41,"Duration":921379,"SoundDuration":921379,"Delta":459098939},{"NoteNumber":64,"Velocity":40,"Duration":238853,"SoundDuration":238853,"Delta":459098939},{"NoteNumber":54,"Velocity":36,"Duration":643946,"SoundDuration":643946,"Delta":459337792},{"NoteNumber":64,"Velocity":41,"Duration":405092,"SoundDuration":405092,"Delta":459576646},{"NoteNumber":70,"Velocity":46,"Duration":872956,"SoundDuration":872956,"Delta":460039609},{"NoteNumber":78,"Velocity":46,"Duration":872956,"SoundDuration":872956,"Delta":460039609},{"NoteNumber":64,"Velocity":42,"Duration":891529,"SoundDuration":891529,"Delta":460039609},{"NoteNumber":54,"Velocity":35,"Duration":891529,"SoundDuration":891529,"Delta":460039609},{"NoteNumber":70,"Velocity":45,"Duration":469709,"SoundDuration":469709,"Delta":460931139},{"NoteNumber":78,"Velocity":45,"Duration":469709,"SoundDuration":469709,"Delta":460931139},{"NoteNumber":54,"Velocity":35,"Duration":469709,"SoundDuration":469709,"Delta":460931139},{"NoteNumber":64,"Velocity":42,"Duration":469709,"SoundDuration":469709,"Delta":460931139},{"NoteNumber":69,"Velocity":39,"Duration":232758,"SoundDuration":232758,"Delta":461460848},{"NoteNumber":78,"Velocity":46,"Duration":232758,"SoundDuration":232758,"Delta":461460848},{"NoteNumber":47,"Velocity":36,"Duration":250000,"SoundDuration":250000,"Delta":461719468},{"NoteNumber":78,"Velocity":48,"Duration":943582,"SoundDuration":943582,"Delta":461969468},{"NoteNumber":69,"Velocity":40,"Duration":943582,"SoundDuration":943582,"Delta":461969468},{"NoteNumber":63,"Velocity":39,"Duration":244698,"SoundDuration":244698,"Delta":461969468},{"NoteNumber":47,"Velocity":35,"Duration":659390,"SoundDuration":659390,"Delta":462214167},{"NoteNumber":63,"Velocity":39,"Duration":414691,"SoundDuration":414691,"Delta":462458865},{"NoteNumber":69,"Velocity":46,"Duration":899693,"SoundDuration":899693,"Delta":462932798},{"NoteNumber":78,"Velocity":46,"Duration":899693,"SoundDuration":899693,"Delta":462932798},{"NoteNumber":63,"Velocity":39,"Duration":899693,"SoundDuration":899693,"Delta":462932798},{"NoteNumber":47,"Velocity":33,"Duration":899693,"SoundDuration":899693,"Delta":462932798},{"NoteNumber":69,"Velocity":45,"Duration":455311,"SoundDuration":455311,"Delta":463851634},{"NoteNumber":78,"Velocity":45,"Duration":455311,"SoundDuration":455311,"Delta":463851634},{"NoteNumber":47,"Velocity":32,"Duration":455311,"SoundDuration":455311,"Delta":463851634},{"NoteNumber":63,"Velocity":38,"Duration":455311,"SoundDuration":455311,"Delta":463851634},{"NoteNumber":68,"Velocity":35,"Duration":237676,"SoundDuration":237676,"Delta":464357536},{"NoteNumber":76,"Velocity":41,"Duration":237676,"SoundDuration":237676,"Delta":464357536},{"NoteNumber":52,"Velocity":32,"Duration":257290,"SoundDuration":257290,"Delta":464621621},{"NoteNumber":76,"Velocity":43,"Duration":944306,"SoundDuration":944306,"Delta":464878911},{"NoteNumber":68,"Velocity":36,"Duration":944306,"SoundDuration":944306,"Delta":464878911},{"NoteNumber":62,"Velocity":35,"Duration":244698,"SoundDuration":244698,"Delta":464878911},{"NoteNumber":52,"Velocity":31,"Duration":661027,"SoundDuration":661027,"Delta":465123609},{"NoteNumber":62,"Velocity":35,"Duration":416329,"SoundDuration":416329,"Delta":465368307},{"NoteNumber":71,"Velocity":39,"Duration":225694,"SoundDuration":225694,"Delta":465611026},{"NoteNumber":74,"Velocity":46,"Duration":225694,"SoundDuration":225694,"Delta":465611026},{"NoteNumber":74,"Velocity":42,"Duration":217310,"SoundDuration":217310,"Delta":465842507},{"NoteNumber":77,"Velocity":50,"Duration":217310,"SoundDuration":217310,"Delta":465842507},{"NoteNumber":62,"Velocity":36,"Duration":891529,"SoundDuration":891529,"Delta":465842507},{"NoteNumber":52,"Velocity":30,"Duration":891529,"SoundDuration":891529,"Delta":465842507},{"NoteNumber":72,"Velocity":38,"Duration":217310,"SoundDuration":217310,"Delta":466065390},{"NoteNumber":76,"Velocity":46,"Duration":219167,"SoundDuration":219167,"Delta":466065390},{"NoteNumber":71,"Velocity":42,"Duration":217310,"SoundDuration":217310,"Delta":466288272},{"NoteNumber":74,"Velocity":49,"Duration":217310,"SoundDuration":217310,"Delta":466288272},{"NoteNumber":72,"Velocity":36,"Duration":217310,"SoundDuration":217310,"Delta":466511155},{"NoteNumber":76,"Velocity":42,"Duration":217310,"SoundDuration":217310,"Delta":466511155},{"NoteNumber":71,"Velocity":38,"Duration":223966,"SoundDuration":223966,"Delta":466734037},{"NoteNumber":74,"Velocity":45,"Duration":223966,"SoundDuration":223966,"Delta":466734037},{"NoteNumber":53,"Velocity":28,"Duration":464818,"SoundDuration":464818,"Delta":466734037},{"NoteNumber":62,"Velocity":34,"Duration":464818,"SoundDuration":464818,"Delta":466734037},{"NoteNumber":69,"Velocity":34,"Duration":235109,"SoundDuration":235109,"Delta":466963746},{"NoteNumber":71,"Velocity":41,"Duration":235109,"SoundDuration":235109,"Delta":466963746},{"NoteNumber":68,"Velocity":31,"Duration":232758,"SoundDuration":232758,"Delta":467198856},{"NoteNumber":76,"Velocity":36,"Duration":232758,"SoundDuration":232758,"Delta":467198856},{"NoteNumber":52,"Velocity":28,"Duration":250000,"SoundDuration":250000,"Delta":467457477},{"NoteNumber":76,"Velocity":39,"Duration":689898,"SoundDuration":689898,"Delta":467707477},{"NoteNumber":68,"Velocity":32,"Duration":689898,"SoundDuration":689898,"Delta":467707477},{"NoteNumber":62,"Velocity":32,"Duration":238853,"SoundDuration":238853,"Delta":467707477},{"NoteNumber":52,"Velocity":28,"Duration":643946,"SoundDuration":643946,"Delta":467946330},{"NoteNumber":62,"Velocity":32,"Duration":405092,"SoundDuration":405092,"Delta":468185184},{"NoteNumber":71,"Velocity":36,"Duration":225694,"SoundDuration":225694,"Delta":468416665},{"NoteNumber":74,"Velocity":42,"Duration":225694,"SoundDuration":225694,"Delta":468416665},{"NoteNumber":74,"Velocity":39,"Duration":217310,"SoundDuration":217310,"Delta":468648147},{"NoteNumber":77,"Velocity":46,"Duration":217310,"SoundDuration":217310,"Delta":468648147},{"NoteNumber":62,"Velocity":33,"Duration":891529,"SoundDuration":891529,"Delta":468648147},{"NoteNumber":52,"Velocity":28,"Duration":891529,"SoundDuration":891529,"Delta":468648147},{"NoteNumber":72,"Velocity":36,"Duration":217310,"SoundDuration":217310,"Delta":468871029},{"NoteNumber":76,"Velocity":43,"Duration":219167,"SoundDuration":219167,"Delta":468871029},{"NoteNumber":71,"Velocity":40,"Duration":217310,"SoundDuration":217310,"Delta":469093912},{"NoteNumber":74,"Velocity":47,"Duration":217310,"SoundDuration":217310,"Delta":469093912},{"NoteNumber":72,"Velocity":34,"Duration":217310,"SoundDuration":217310,"Delta":469316794},{"NoteNumber":76,"Velocity":40,"Duration":217310,"SoundDuration":217310,"Delta":469316794},{"NoteNumber":71,"Velocity":37,"Duration":223966,"SoundDuration":223966,"Delta":469539677},{"NoteNumber":74,"Velocity":44,"Duration":223966,"SoundDuration":223966,"Delta":469539677},{"NoteNumber":53,"Velocity":28,"Duration":464818,"SoundDuration":464818,"Delta":469539677},{"NoteNumber":62,"Velocity":33,"Duration":464818,"SoundDuration":464818,"Delta":469539677},{"NoteNumber":69,"Velocity":34,"Duration":235109,"SoundDuration":235109,"Delta":469769386},{"NoteNumber":71,"Velocity":40,"Duration":235109,"SoundDuration":235109,"Delta":469769386},{"NoteNumber":68,"Velocity":31,"Duration":232758,"SoundDuration":232758,"Delta":470004496},{"NoteNumber":76,"Velocity":36,"Duration":232758,"SoundDuration":232758,"Delta":470004496},{"NoteNumber":52,"Velocity":28,"Duration":250000,"SoundDuration":250000,"Delta":470263116},{"NoteNumber":76,"Velocity":38,"Duration":943582,"SoundDuration":943582,"Delta":470513116},{"NoteNumber":68,"Velocity":32,"Duration":943582,"SoundDuration":943582,"Delta":470513116},{"NoteNumber":62,"Velocity":31,"Duration":244698,"SoundDuration":244698,"Delta":470513116},{"NoteNumber":52,"Velocity":28,"Duration":659390,"SoundDuration":659390,"Delta":470757815},{"NoteNumber":62,"Velocity":31,"Duration":414691,"SoundDuration":414691,"Delta":471002513},{"NoteNumber":52,"Velocity":31,"Duration":230158,"SoundDuration":230158,"Delta":471476446},{"NoteNumber":62,"Velocity":35,"Duration":238095,"SoundDuration":238095,"Delta":471476446},{"NoteNumber":64,"Velocity":76,"Duration":238095,"SoundDuration":238095,"Delta":471714542},{"NoteNumber":61,"Velocity":68,"Duration":214285,"SoundDuration":214285,"Delta":471952637},{"NoteNumber":69,"Velocity":81,"Duration":214285,"SoundDuration":214285,"Delta":471952637},{"NoteNumber":69,"Velocity":75,"Duration":446843,"SoundDuration":446843,"Delta":472190732},{"NoteNumber":61,"Velocity":63,"Duration":446843,"SoundDuration":446843,"Delta":472190732},{"NoteNumber":52,"Velocity":66,"Duration":232558,"SoundDuration":232558,"Delta":472405018},{"NoteNumber":64,"Velocity":64,"Duration":232558,"SoundDuration":232558,"Delta":472637576},{"NoteNumber":71,"Velocity":76,"Duration":232558,"SoundDuration":232558,"Delta":472637576},{"NoteNumber":56,"Velocity":61,"Duration":232558,"SoundDuration":232558,"Delta":472637576},{"NoteNumber":69,"Velocity":73,"Duration":431140,"SoundDuration":431140,"Delta":472870134},{"NoteNumber":73,"Velocity":86,"Duration":431140,"SoundDuration":431140,"Delta":472870134},{"NoteNumber":57,"Velocity":66,"Duration":247933,"SoundDuration":247933,"Delta":472870134},{"NoteNumber":45,"Velocity":77,"Duration":489877,"SoundDuration":489877,"Delta":473118068},{"NoteNumber":69,"Velocity":72,"Duration":720172,"SoundDuration":720172,"Delta":473347076},{"NoteNumber":73,"Velocity":85,"Duration":720172,"SoundDuration":720172,"Delta":473347076},{"NoteNumber":33,"Velocity":59,"Duration":232558,"SoundDuration":232558,"Delta":473607946},{"NoteNumber":45,"Velocity":65,"Duration":232558,"SoundDuration":232558,"Delta":473840504},{"NoteNumber":69,"Velocity":73,"Duration":465116,"SoundDuration":465116,"Delta":474073062},{"NoteNumber":73,"Velocity":86,"Duration":465116,"SoundDuration":465116,"Delta":474073062},{"NoteNumber":52,"Velocity":73,"Duration":232558,"SoundDuration":232558,"Delta":474305620},{"NoteNumber":64,"Velocity":63,"Duration":232558,"SoundDuration":232558,"Delta":474538179},{"NoteNumber":71,"Velocity":74,"Duration":232558,"SoundDuration":232558,"Delta":474538179},{"NoteNumber":56,"Velocity":63,"Duration":232558,"SoundDuration":232558,"Delta":474538179},{"NoteNumber":61,"Velocity":65,"Duration":209302,"SoundDuration":209302,"Delta":474770737},{"NoteNumber":69,"Velocity":77,"Duration":209302,"SoundDuration":209302,"Delta":474770737},{"NoteNumber":54,"Velocity":65,"Duration":232558,"SoundDuration":232558,"Delta":474770737},{"NoteNumber":66,"Velocity":73,"Duration":456896,"SoundDuration":456896,"Delta":475003295},{"NoteNumber":69,"Velocity":86,"Duration":456896,"SoundDuration":456896,"Delta":475003295},{"NoteNumber":49,"Velocity":71,"Duration":250000,"SoundDuration":250000,"Delta":475210192},{"NoteNumber":61,"Velocity":64,"Duration":230769,"SoundDuration":230769,"Delta":475460192},{"NoteNumber":68,"Velocity":76,"Duration":230769,"SoundDuration":230769,"Delta":475460192},{"NoteNumber":52,"Velocity":65,"Duration":230769,"SoundDuration":230769,"Delta":475460192},{"NoteNumber":57,"Velocity":68,"Duration":452100,"SoundDuration":452100,"Delta":475690961},{"NoteNumber":66,"Velocity":80,"Duration":452100,"SoundDuration":452100,"Delta":475690961},{"NoteNumber":50,"Velocity":65,"Duration":252100,"SoundDuration":252100,"Delta":475690961},{"NoteNumber":38,"Velocity":74,"Duration":480769,"SoundDuration":480769,"Delta":475943062},{"NoteNumber":57,"Velocity":73,"Duration":923076,"SoundDuration":923076,"Delta":476193062},{"NoteNumber":66,"Velocity":86,"Duration":923076,"SoundDuration":923076,"Delta":476193062},{"NoteNumber":33,"Velocity":65,"Duration":230769,"SoundDuration":230769,"Delta":476423831},{"NoteNumber":38,"Velocity":65,"Duration":230769,"SoundDuration":230769,"Delta":476654600},{"NoteNumber":42,"Velocity":58,"Duration":230769,"SoundDuration":230769,"Delta":476885369},{"NoteNumber":66,"Velocity":76,"Duration":476190,"SoundDuration":476190,"Delta":477116139},{"NoteNumber":38,"Velocity":61,"Duration":238095,"SoundDuration":238095,"Delta":477116139},{"NoteNumber":37,"Velocity":64,"Duration":238095,"SoundDuration":238095,"Delta":477354234},{"NoteNumber":62,"Velocity":68,"Duration":214285,"SoundDuration":214285,"Delta":477592329},{"NoteNumber":71,"Velocity":81,"Duration":214285,"SoundDuration":214285,"Delta":477592329},{"NoteNumber":35,"Velocity":68,"Duration":238095,"SoundDuration":238095,"Delta":477592329},{"NoteNumber":71,"Velocity":75,"Duration":446843,"SoundDuration":446843,"Delta":477830424},{"NoteNumber":62,"Velocity":63,"Duration":446843,"SoundDuration":446843,"Delta":477830424},{"NoteNumber":54,"Velocity":66,"Duration":232558,"SoundDuration":232558,"Delta":478044710},{"NoteNumber":66,"Velocity":64,"Duration":232558,"SoundDuration":232558,"Delta":478277268},{"NoteNumber":73,"Velocity":76,"Duration":232558,"SoundDuration":232558,"Delta":478277268},{"NoteNumber":58,"Velocity":61,"Duration":232558,"SoundDuration":232558,"Delta":478277268},{"NoteNumber":71,"Velocity":73,"Duration":446364,"SoundDuration":446364,"Delta":478509827},{"NoteNumber":74,"Velocity":86,"Duration":446364,"SoundDuration":446364,"Delta":478509827},{"NoteNumber":59,"Velocity":66,"Duration":263157,"SoundDuration":263157,"Delta":478509827},{"NoteNumber":47,"Velocity":77,"Duration":489877,"SoundDuration":489877,"Delta":478772985},{"NoteNumber":71,"Velocity":72,"Duration":720172,"SoundDuration":720172,"Delta":479001992},{"NoteNumber":74,"Velocity":85,"Duration":720172,"SoundDuration":720172,"Delta":479001992},{"NoteNumber":35,"Velocity":59,"Duration":232558,"SoundDuration":232558,"Delta":479262862},{"NoteNumber":47,"Velocity":65,"Duration":232558,"SoundDuration":232558,"Delta":479495420},{"NoteNumber":71,"Velocity":73,"Duration":465116,"SoundDuration":465116,"Delta":479727978},{"NoteNumber":74,"Velocity":86,"Duration":465116,"SoundDuration":465116,"Delta":479727978},{"NoteNumber":54,"Velocity":73,"Duration":232558,"SoundDuration":232558,"Delta":479960537},{"NoteNumber":66,"Velocity":63,"Duration":232558,"SoundDuration":232558,"Delta":480193095},{"NoteNumber":72,"Velocity":74,"Duration":232558,"SoundDuration":232558,"Delta":480193095},{"NoteNumber":57,"Velocity":63,"Duration":232558,"SoundDuration":232558,"Delta":480193095},{"NoteNumber":62,"Velocity":65,"Duration":201492,"SoundDuration":201492,"Delta":480425653},{"NoteNumber":71,"Velocity":77,"Duration":201492,"SoundDuration":201492,"Delta":480425653},{"NoteNumber":55,"Velocity":65,"Duration":223880,"SoundDuration":223880,"Delta":480425653},{"NoteNumber":67,"Velocity":73,"Duration":431743,"SoundDuration":431743,"Delta":480649534},{"NoteNumber":71,"Velocity":86,"Duration":431743,"SoundDuration":431743,"Delta":480649534},{"NoteNumber":51,"Velocity":71,"Duration":218977,"SoundDuration":218977,"Delta":480862300},{"NoteNumber":63,"Velocity":64,"Duration":230769,"SoundDuration":230769,"Delta":481081278},{"NoteNumber":69,"Velocity":76,"Duration":230769,"SoundDuration":230769,"Delta":481081278},{"NoteNumber":54,"Velocity":65,"Duration":230769,"SoundDuration":230769,"Delta":481081278},{"NoteNumber":59,"Velocity":68,"Duration":228813,"SoundDuration":228813,"Delta":481312047},{"NoteNumber":67,"Velocity":80,"Duration":228813,"SoundDuration":228813,"Delta":481312047},{"NoteNumber":52,"Velocity":65,"Duration":254237,"SoundDuration":254237,"Delta":481312047},{"NoteNumber":40,"Velocity":74,"Duration":480769,"SoundDuration":480769,"Delta":481566284},{"NoteNumber":59,"Velocity":73,"Duration":686538,"SoundDuration":686538,"Delta":481816284},{"NoteNumber":67,"Velocity":86,"Duration":684615,"SoundDuration":684615,"Delta":481816284},{"NoteNumber":35,"Velocity":65,"Duration":230769,"SoundDuration":230769,"Delta":482047053},{"NoteNumber":40,"Velocity":65,"Duration":443947,"SoundDuration":443947,"Delta":482277823},{"NoteNumber":55,"Velocity":73,"Duration":465116,"SoundDuration":465116,"Delta":482508592},{"NoteNumber":64,"Velocity":73,"Duration":461240,"SoundDuration":461240,"Delta":482508592},{"NoteNumber":67,"Velocity":86,"Duration":465116,"SoundDuration":465116,"Delta":482508592},{"NoteNumber":40,"Velocity":73,"Duration":445736,"SoundDuration":445736,"Delta":482508592},{"NoteNumber":52,"Velocity":73,"Duration":445736,"SoundDuration":445736,"Delta":482508592},{"NoteNumber":57,"Velocity":64,"Duration":232558,"SoundDuration":232558,"Delta":482973708},{"NoteNumber":64,"Velocity":64,"Duration":228682,"SoundDuration":228682,"Delta":482973708},{"NoteNumber":69,"Velocity":77,"Duration":232558,"SoundDuration":232558,"Delta":482973708},{"NoteNumber":42,"Velocity":60,"Duration":232558,"SoundDuration":232558,"Delta":482973708},{"NoteNumber":52,"Velocity":58,"Duration":228682,"SoundDuration":228682,"Delta":482973708},{"NoteNumber":54,"Velocity":64,"Duration":232558,"SoundDuration":232558,"Delta":482973708},{"NoteNumber":64,"Velocity":67,"Duration":223880,"SoundDuration":223880,"Delta":483206267},{"NoteNumber":59,"Velocity":68,"Duration":201492,"SoundDuration":201492,"Delta":483206267},{"NoteNumber":71,"Velocity":81,"Duration":201492,"SoundDuration":201492,"Delta":483206267},{"NoteNumber":52,"Velocity":60,"Duration":223880,"SoundDuration":223880,"Delta":483206267},{"NoteNumber":43,"Velocity":58,"Duration":223880,"SoundDuration":223880,"Delta":483206267},{"NoteNumber":55,"Velocity":68,"Duration":223880,"SoundDuration":223880,"Delta":483206267},{"NoteNumber":60,"Velocity":75,"Duration":431743,"SoundDuration":431743,"Delta":483430147},{"NoteNumber":69,"Velocity":75,"Duration":431743,"SoundDuration":431743,"Delta":483430147},{"NoteNumber":72,"Velocity":89,"Duration":431743,"SoundDuration":431743,"Delta":483430147},{"NoteNumber":52,"Velocity":65,"Duration":431743,"SoundDuration":431743,"Delta":483430147},{"NoteNumber":57,"Velocity":73,"Duration":413495,"SoundDuration":413495,"Delta":483430147},{"NoteNumber":45,"Velocity":65,"Duration":431743,"SoundDuration":431743,"Delta":483430147},{"NoteNumber":67,"Velocity":71,"Duration":230769,"SoundDuration":230769,"Delta":483861891},{"NoteNumber":62,"Velocity":71,"Duration":230769,"SoundDuration":230769,"Delta":483861891},{"NoteNumber":74,"Velocity":85,"Duration":230769,"SoundDuration":230769,"Delta":483861891},{"NoteNumber":55,"Velocity":70,"Duration":230769,"SoundDuration":230769,"Delta":483861891},{"NoteNumber":47,"Velocity":70,"Duration":230769,"SoundDuration":230769,"Delta":483861891},{"NoteNumber":59,"Velocity":72,"Duration":230769,"SoundDuration":230769,"Delta":483861891},{"NoteNumber":64,"Velocity":78,"Duration":252100,"SoundDuration":252100,"Delta":484092660},{"NoteNumber":67,"Velocity":78,"Duration":226890,"SoundDuration":226890,"Delta":484092660},{"NoteNumber":76,"Velocity":92,"Duration":226890,"SoundDuration":226890,"Delta":484092660},{"NoteNumber":48,"Velocity":63,"Duration":252100,"SoundDuration":252100,"Delta":484092660},{"NoteNumber":55,"Velocity":63,"Duration":252100,"SoundDuration":252100,"Delta":484092660},{"NoteNumber":60,"Velocity":74,"Duration":252100,"SoundDuration":252100,"Delta":484092660},{"NoteNumber":64,"Velocity":83,"Duration":679821,"SoundDuration":679821,"Delta":484594761},{"NoteNumber":67,"Velocity":83,"Duration":677956,"SoundDuration":677956,"Delta":484594761},{"NoteNumber":76,"Velocity":98,"Duration":679821,"SoundDuration":679821,"Delta":484594761},{"NoteNumber":48,"Velocity":71,"Duration":677956,"SoundDuration":677956,"Delta":484594761},{"NoteNumber":55,"Velocity":71,"Duration":677956,"SoundDuration":677956,"Delta":484594761},{"NoteNumber":60,"Velocity":85,"Duration":677956,"SoundDuration":677956,"Delta":484594761},{"NoteNumber":72,"Velocity":80,"Duration":218283,"SoundDuration":218283,"Delta":485280180},{"NoteNumber":79,"Velocity":95,"Duration":218283,"SoundDuration":218283,"Delta":485280180},{"NoteNumber":64,"Velocity":81,"Duration":223880,"SoundDuration":223880,"Delta":485280180},{"NoteNumber":52,"Velocity":69,"Duration":223880,"SoundDuration":223880,"Delta":485280180},{"NoteNumber":72,"Velocity":83,"Duration":210431,"SoundDuration":210431,"Delta":485504061},{"NoteNumber":76,"Velocity":83,"Duration":212230,"SoundDuration":212230,"Delta":485504061},{"NoteNumber":84,"Velocity":98,"Duration":210431,"SoundDuration":210431,"Delta":485504061},{"NoteNumber":67,"Velocity":85,"Duration":215827,"SoundDuration":215827,"Delta":485504061},{"NoteNumber":55,"Velocity":71,"Duration":215827,"SoundDuration":215827,"Delta":485504061},{"NoteNumber":72,"Velocity":79,"Duration":210431,"SoundDuration":210431,"Delta":485719888},{"NoteNumber":79,"Velocity":94,"Duration":210431,"SoundDuration":210431,"Delta":485719888},{"NoteNumber":64,"Velocity":80,"Duration":215827,"SoundDuration":215827,"Delta":485719888},{"NoteNumber":52,"Velocity":67,"Duration":215827,"SoundDuration":215827,"Delta":485719888},{"NoteNumber":72,"Velocity":83,"Duration":210431,"SoundDuration":210431,"Delta":485935715},{"NoteNumber":76,"Velocity":98,"Duration":212230,"SoundDuration":212230,"Delta":485935715},{"NoteNumber":48,"Velocity":71,"Duration":215827,"SoundDuration":215827,"Delta":485935715},{"NoteNumber":60,"Velocity":85,"Duration":215827,"SoundDuration":215827,"Delta":485935715},{"NoteNumber":72,"Velocity":92,"Duration":210431,"SoundDuration":210431,"Delta":486151542},{"NoteNumber":47,"Velocity":66,"Duration":215827,"SoundDuration":215827,"Delta":486151542},{"NoteNumber":59,"Velocity":78,"Duration":215827,"SoundDuration":215827,"Delta":486151542},{"NoteNumber":72,"Velocity":80,"Duration":223282,"SoundDuration":223282,"Delta":486367370},{"NoteNumber":76,"Velocity":95,"Duration":225190,"SoundDuration":225190,"Delta":486367370},{"NoteNumber":45,"Velocity":69,"Duration":229007,"SoundDuration":229007,"Delta":486367370},{"NoteNumber":57,"Velocity":81,"Duration":229007,"SoundDuration":229007,"Delta":486367370},{"NoteNumber":79,"Velocity":95,"Duration":229007,"SoundDuration":229007,"Delta":486596377},{"NoteNumber":72,"Velocity":80,"Duration":229007,"SoundDuration":229007,"Delta":486596377},{"NoteNumber":43,"Velocity":69,"Duration":229007,"SoundDuration":229007,"Delta":486596377},{"NoteNumber":55,"Velocity":81,"Duration":229007,"SoundDuration":229007,"Delta":486596377},{"NoteNumber":77,"Velocity":78,"Duration":258620,"SoundDuration":258620,"Delta":486825385},{"NoteNumber":69,"Velocity":78,"Duration":258620,"SoundDuration":258620,"Delta":486825385},{"NoteNumber":72,"Velocity":78,"Duration":232758,"SoundDuration":232758,"Delta":486825385},{"NoteNumber":81,"Velocity":92,"Duration":232758,"SoundDuration":232758,"Delta":486825385},{"NoteNumber":41,"Velocity":63,"Duration":258620,"SoundDuration":258620,"Delta":486825385},{"NoteNumber":48,"Velocity":63,"Duration":258620,"SoundDuration":258620,"Delta":486825385},{"NoteNumber":53,"Velocity":74,"Duration":258620,"SoundDuration":258620,"Delta":486825385},{"NoteNumber":77,"Velocity":78,"Duration":677956,"SoundDuration":677956,"Delta":487334006},{"NoteNumber":69,"Velocity":78,"Duration":679821,"SoundDuration":679821,"Delta":487334006},{"NoteNumber":72,"Velocity":78,"Duration":677956,"SoundDuration":677956,"Delta":487334006},{"NoteNumber":81,"Velocity":93,"Duration":679821,"SoundDuration":679821,"Delta":487334006},{"NoteNumber":41,"Velocity":67,"Duration":677956,"SoundDuration":677956,"Delta":487334006},{"NoteNumber":48,"Velocity":67,"Duration":677956,"SoundDuration":677956,"Delta":487334006},{"NoteNumber":53,"Velocity":80,"Duration":677956,"SoundDuration":677956,"Delta":487334006},{"NoteNumber":69,"Velocity":80,"Duration":439707,"SoundDuration":439707,"Delta":488019425},{"NoteNumber":72,"Velocity":80,"Duration":436110,"SoundDuration":436110,"Delta":488019425},{"NoteNumber":81,"Velocity":95,"Duration":439707,"SoundDuration":439707,"Delta":488019425},{"NoteNumber":48,"Velocity":76,"Duration":223880,"SoundDuration":223880,"Delta":488019425},{"NoteNumber":41,"Velocity":55,"Duration":439707,"SoundDuration":439707,"Delta":488019425},{"NoteNumber":53,"Velocity":81,"Duration":215827,"SoundDuration":215827,"Delta":488243305},{"NoteNumber":70,"Velocity":75,"Duration":215827,"SoundDuration":215827,"Delta":488459133},{"NoteNumber":72,"Velocity":75,"Duration":215827,"SoundDuration":215827,"Delta":488459133},{"NoteNumber":82,"Velocity":89,"Duration":215827,"SoundDuration":215827,"Delta":488459133},{"NoteNumber":48,"Velocity":63,"Duration":197841,"SoundDuration":197841,"Delta":488459133},{"NoteNumber":55,"Velocity":76,"Duration":215827,"SoundDuration":215827,"Delta":488459133},{"NoteNumber":43,"Velocity":63,"Duration":197841,"SoundDuration":197841,"Delta":488459133},{"NoteNumber":69,"Velocity":78,"Duration":205035,"SoundDuration":205035,"Delta":488674960},{"NoteNumber":72,"Velocity":78,"Duration":205035,"SoundDuration":205035,"Delta":488674960},{"NoteNumber":81,"Velocity":93,"Duration":205035,"SoundDuration":205035,"Delta":488674960},{"NoteNumber":41,"Velocity":67,"Duration":205035,"SoundDuration":205035,"Delta":488674960},{"NoteNumber":48,"Velocity":67,"Duration":205035,"SoundDuration":205035,"Delta":488674960},{"NoteNumber":53,"Velocity":80,"Duration":205035,"SoundDuration":205035,"Delta":488674960},{"NoteNumber":69,"Velocity":90,"Duration":444835,"SoundDuration":444835,"Delta":488890787},{"NoteNumber":72,"Velocity":90,"Duration":444835,"SoundDuration":444835,"Delta":488890787},{"NoteNumber":81,"Velocity":90,"Duration":444835,"SoundDuration":444835,"Delta":488890787},{"NoteNumber":41,"Velocity":65,"Duration":444835,"SoundDuration":444835,"Delta":488890787},{"NoteNumber":48,"Velocity":76,"Duration":215827,"SoundDuration":215827,"Delta":488890787},{"NoteNumber":53,"Velocity":76,"Duration":229007,"SoundDuration":229007,"Delta":489106614},{"NoteNumber":67,"Velocity":80,"Duration":229007,"SoundDuration":229007,"Delta":489335622},{"NoteNumber":79,"Velocity":95,"Duration":229007,"SoundDuration":229007,"Delta":489335622},{"NoteNumber":73,"Velocity":80,"Duration":229007,"SoundDuration":229007,"Delta":489335622},{"NoteNumber":39,"Velocity":69,"Duration":229007,"SoundDuration":229007,"Delta":489335622},{"NoteNumber":51,"Velocity":81,"Duration":229007,"SoundDuration":229007,"Delta":489335622},{"NoteNumber":74,"Velocity":78,"Duration":232758,"SoundDuration":232758,"Delta":489564630},{"NoteNumber":69,"Velocity":78,"Duration":258620,"SoundDuration":258620,"Delta":489564630},{"NoteNumber":78,"Velocity":78,"Duration":232758,"SoundDuration":232758,"Delta":489564630},{"NoteNumber":81,"Velocity":92,"Duration":232758,"SoundDuration":232758,"Delta":489564630},{"NoteNumber":38,"Velocity":63,"Duration":258620,"SoundDuration":258620,"Delta":489564630},{"NoteNumber":50,"Velocity":74,"Duration":258620,"SoundDuration":258620,"Delta":489564630},{"NoteNumber":74,"Velocity":83,"Duration":666762,"SoundDuration":666762,"Delta":490073251},{"NoteNumber":69,"Velocity":83,"Duration":685419,"SoundDuration":685419,"Delta":490073251},{"NoteNumber":78,"Velocity":83,"Duration":685419,"SoundDuration":685419,"Delta":490073251},{"NoteNumber":81,"Velocity":98,"Duration":666762,"SoundDuration":666762,"Delta":490073251},{"NoteNumber":38,"Velocity":71,"Duration":685419,"SoundDuration":685419,"Delta":490073251},{"NoteNumber":50,"Velocity":85,"Duration":685419,"SoundDuration":685419,"Delta":490073251},{"NoteNumber":74,"Velocity":80,"Duration":220149,"SoundDuration":220149,"Delta":490758670},{"NoteNumber":81,"Velocity":95,"Duration":220149,"SoundDuration":220149,"Delta":490758670},{"NoteNumber":66,"Velocity":81,"Duration":223880,"SoundDuration":223880,"Delta":490758670},{"NoteNumber":54,"Velocity":69,"Duration":223880,"SoundDuration":223880,"Delta":490758670},{"NoteNumber":74,"Velocity":83,"Duration":210431,"SoundDuration":210431,"Delta":490982550},{"NoteNumber":78,"Velocity":83,"Duration":212230,"SoundDuration":212230,"Delta":490982550},{"NoteNumber":86,"Velocity":98,"Duration":212230,"SoundDuration":212230,"Delta":490982550},{"NoteNumber":69,"Velocity":85,"Duration":215827,"SoundDuration":215827,"Delta":490982550},{"NoteNumber":57,"Velocity":71,"Duration":215827,"SoundDuration":215827,"Delta":490982550},{"NoteNumber":74,"Velocity":79,"Duration":212230,"SoundDuration":212230,"Delta":491198377},{"NoteNumber":81,"Velocity":94,"Duration":212230,"SoundDuration":212230,"Delta":491198377},{"NoteNumber":66,"Velocity":80,"Duration":215827,"SoundDuration":215827,"Delta":491198377},{"NoteNumber":54,"Velocity":67,"Duration":215827,"SoundDuration":215827,"Delta":491198377},{"NoteNumber":74,"Velocity":83,"Duration":210431,"SoundDuration":210431,"Delta":491414205},{"NoteNumber":78,"Velocity":98,"Duration":212230,"SoundDuration":212230,"Delta":491414205},{"NoteNumber":50,"Velocity":71,"Duration":215827,"SoundDuration":215827,"Delta":491414205},{"NoteNumber":62,"Velocity":85,"Duration":215827,"SoundDuration":215827,"Delta":491414205},{"NoteNumber":74,"Velocity":92,"Duration":212230,"SoundDuration":212230,"Delta":491630032},{"NoteNumber":49,"Velocity":66,"Duration":215827,"SoundDuration":215827,"Delta":491630032},{"NoteNumber":61,"Velocity":78,"Duration":215827,"SoundDuration":215827,"Delta":491630032},{"NoteNumber":74,"Velocity":80,"Duration":223282,"SoundDuration":223282,"Delta":491845859},{"NoteNumber":78,"Velocity":95,"Duration":223282,"SoundDuration":223282,"Delta":491845859},{"NoteNumber":47,"Velocity":69,"Duration":229007,"SoundDuration":229007,"Delta":491845859},{"NoteNumber":59,"Velocity":81,"Duration":229007,"SoundDuration":229007,"Delta":491845859},{"NoteNumber":74,"Velocity":77,"Duration":229007,"SoundDuration":229007,"Delta":492074867},{"NoteNumber":81,"Velocity":92,"Duration":229007,"SoundDuration":229007,"Delta":492074867},{"NoteNumber":78,"Velocity":77,"Duration":229007,"SoundDuration":229007,"Delta":492074867},{"NoteNumber":45,"Velocity":66,"Duration":229007,"SoundDuration":229007,"Delta":492074867},{"NoteNumber":57,"Velocity":78,"Duration":229007,"SoundDuration":229007,"Delta":492074867},{"NoteNumber":74,"Velocity":78,"Duration":260869,"SoundDuration":260869,"Delta":492303875},{"NoteNumber":79,"Velocity":78,"Duration":260869,"SoundDuration":260869,"Delta":492303875},{"NoteNumber":71,"Velocity":78,"Duration":260869,"SoundDuration":260869,"Delta":492303875},{"NoteNumber":83,"Velocity":92,"Duration":234782,"SoundDuration":234782,"Delta":492303875},{"NoteNumber":50,"Velocity":63,"Duration":260869,"SoundDuration":260869,"Delta":492303875},{"NoteNumber":43,"Velocity":63,"Duration":260869,"SoundDuration":260869,"Delta":492303875},{"NoteNumber":55,"Velocity":74,"Duration":260869,"SoundDuration":260869,"Delta":492303875},{"NoteNumber":74,"Velocity":83,"Duration":685419,"SoundDuration":685419,"Delta":492814744},{"NoteNumber":79,"Velocity":83,"Duration":677956,"SoundDuration":677956,"Delta":492814744},{"NoteNumber":71,"Velocity":83,"Duration":679821,"SoundDuration":679821,"Delta":492814744},{"NoteNumber":83,"Velocity":98,"Duration":679821,"SoundDuration":679821,"Delta":492814744},{"NoteNumber":43,"Velocity":71,"Duration":677956,"SoundDuration":677956,"Delta":492814744},{"NoteNumber":50,"Velocity":71,"Duration":679821,"SoundDuration":679821,"Delta":492814744},{"NoteNumber":55,"Velocity":85,"Duration":677956,"SoundDuration":677956,"Delta":492814744},{"NoteNumber":71,"Velocity":81,"Duration":456896,"SoundDuration":456896,"Delta":493500163},{"NoteNumber":74,"Velocity":81,"Duration":436063,"SoundDuration":436063,"Delta":493500163},{"NoteNumber":83,"Velocity":96,"Duration":436063,"SoundDuration":436063,"Delta":493500163},{"NoteNumber":43,"Velocity":53,"Duration":436063,"SoundDuration":436063,"Delta":493500163},{"NoteNumber":50,"Velocity":53,"Duration":436063,"SoundDuration":436063,"Delta":493500163},{"NoteNumber":55,"Velocity":74,"Duration":436063,"SoundDuration":436063,"Delta":493500163},{"NoteNumber":72,"Velocity":79,"Duration":230769,"SoundDuration":230769,"Delta":493957060},{"NoteNumber":74,"Velocity":79,"Duration":230769,"SoundDuration":230769,"Delta":493957060},{"NoteNumber":84,"Velocity":93,"Duration":230769,"SoundDuration":230769,"Delta":493957060},{"NoteNumber":45,"Velocity":68,"Duration":230769,"SoundDuration":230769,"Delta":493957060},{"NoteNumber":50,"Velocity":68,"Duration":230769,"SoundDuration":230769,"Delta":493957060},{"NoteNumber":57,"Velocity":80,"Duration":230769,"SoundDuration":230769,"Delta":493957060},{"NoteNumber":71,"Velocity":84,"Duration":205035,"SoundDuration":205035,"Delta":494187829},{"NoteNumber":74,"Velocity":84,"Duration":205035,"SoundDuration":205035,"Delta":494187829},{"NoteNumber":83,"Velocity":99,"Duration":205035,"SoundDuration":205035,"Delta":494187829},{"NoteNumber":43,"Velocity":60,"Duration":205035,"SoundDuration":205035,"Delta":494187829},{"NoteNumber":50,"Velocity":60,"Duration":205035,"SoundDuration":205035,"Delta":494187829},{"NoteNumber":55,"Velocity":85,"Duration":205035,"SoundDuration":205035,"Delta":494187829},{"NoteNumber":71,"Velocity":80,"Duration":444834,"SoundDuration":444834,"Delta":494403656},{"NoteNumber":74,"Velocity":80,"Duration":444834,"SoundDuration":444834,"Delta":494403656},{"NoteNumber":83,"Velocity":95,"Duration":444834,"SoundDuration":444834,"Delta":494403656},{"NoteNumber":50,"Velocity":58,"Duration":444834,"SoundDuration":444834,"Delta":494403656},{"NoteNumber":43,"Velocity":58,"Duration":444834,"SoundDuration":444834,"Delta":494403656},{"NoteNumber":55,"Velocity":81,"Duration":444834,"SoundDuration":444834,"Delta":494403656},{"NoteNumber":69,"Velocity":80,"Duration":229007,"SoundDuration":229007,"Delta":494848491},{"NoteNumber":81,"Velocity":95,"Duration":229007,"SoundDuration":229007,"Delta":494848491},{"NoteNumber":75,"Velocity":80,"Duration":229007,"SoundDuration":229007,"Delta":494848491},{"NoteNumber":41,"Velocity":69,"Duration":229007,"SoundDuration":229007,"Delta":494848491},{"NoteNumber":53,"Velocity":81,"Duration":229007,"SoundDuration":229007,"Delta":494848491},{"NoteNumber":76,"Velocity":78,"Duration":232758,"SoundDuration":232758,"Delta":495077499},{"NoteNumber":71,"Velocity":78,"Duration":258620,"SoundDuration":258620,"Delta":495077499},{"NoteNumber":80,"Velocity":78,"Duration":232758,"SoundDuration":232758,"Delta":495077499},{"NoteNumber":83,"Velocity":92,"Duration":232758,"SoundDuration":232758,"Delta":495077499},{"NoteNumber":40,"Velocity":63,"Duration":258620,"SoundDuration":258620,"Delta":495077499},{"NoteNumber":52,"Velocity":74,"Duration":258620,"SoundDuration":258620,"Delta":495077499},{"NoteNumber":76,"Velocity":83,"Duration":707074,"SoundDuration":707074,"Delta":495586120},{"NoteNumber":71,"Velocity":83,"Duration":729395,"SoundDuration":729395,"Delta":495586120},{"NoteNumber":80,"Velocity":83,"Duration":729395,"SoundDuration":729395,"Delta":495586120},{"NoteNumber":83,"Velocity":98,"Duration":707074,"SoundDuration":707074,"Delta":495586120},{"NoteNumber":40,"Velocity":71,"Duration":729395,"SoundDuration":729395,"Delta":495586120},{"NoteNumber":52,"Velocity":85,"Duration":729395,"SoundDuration":729395,"Delta":495586120},{"NoteNumber":76,"Velocity":80,"Duration":220149,"SoundDuration":220149,"Delta":496315515},{"NoteNumber":83,"Velocity":95,"Duration":220149,"SoundDuration":220149,"Delta":496315515},{"NoteNumber":64,"Velocity":81,"Duration":223880,"SoundDuration":223880,"Delta":496315515},{"NoteNumber":56,"Velocity":69,"Duration":223880,"SoundDuration":223880,"Delta":496315515},{"NoteNumber":76,"Velocity":83,"Duration":210431,"SoundDuration":210431,"Delta":496539396},{"NoteNumber":80,"Velocity":83,"Duration":212230,"SoundDuration":212230,"Delta":496539396},{"NoteNumber":88,"Velocity":98,"Duration":212230,"SoundDuration":212230,"Delta":496539396},{"NoteNumber":71,"Velocity":85,"Duration":215827,"SoundDuration":215827,"Delta":496539396},{"NoteNumber":59,"Velocity":71,"Duration":215827,"SoundDuration":215827,"Delta":496539396},{"NoteNumber":76,"Velocity":79,"Duration":212230,"SoundDuration":212230,"Delta":496755223},{"NoteNumber":83,"Velocity":94,"Duration":212230,"SoundDuration":212230,"Delta":496755223},{"NoteNumber":68,"Velocity":80,"Duration":215827,"SoundDuration":215827,"Delta":496755223},{"NoteNumber":56,"Velocity":67,"Duration":215827,"SoundDuration":215827,"Delta":496755223},{"NoteNumber":76,"Velocity":83,"Duration":210431,"SoundDuration":210431,"Delta":496971050},{"NoteNumber":80,"Velocity":98,"Duration":212230,"SoundDuration":212230,"Delta":496971050},{"NoteNumber":52,"Velocity":71,"Duration":215827,"SoundDuration":215827,"Delta":496971050},{"NoteNumber":64,"Velocity":85,"Duration":215827,"SoundDuration":215827,"Delta":496971050},{"NoteNumber":76,"Velocity":95,"Duration":212230,"SoundDuration":212230,"Delta":497186878},{"NoteNumber":50,"Velocity":69,"Duration":215827,"SoundDuration":215827,"Delta":497186878},{"NoteNumber":62,"Velocity":81,"Duration":215827,"SoundDuration":215827,"Delta":497186878},{"NoteNumber":76,"Velocity":80,"Duration":223282,"SoundDuration":223282,"Delta":497402705},{"NoteNumber":80,"Velocity":95,"Duration":223282,"SoundDuration":223282,"Delta":497402705},{"NoteNumber":48,"Velocity":69,"Duration":229007,"SoundDuration":229007,"Delta":497402705},{"NoteNumber":60,"Velocity":81,"Duration":229007,"SoundDuration":229007,"Delta":497402705},{"NoteNumber":76,"Velocity":77,"Duration":229007,"SoundDuration":229007,"Delta":497631713},{"NoteNumber":83,"Velocity":92,"Duration":229007,"SoundDuration":229007,"Delta":497631713},{"NoteNumber":80,"Velocity":77,"Duration":229007,"SoundDuration":229007,"Delta":497631713},{"NoteNumber":47,"Velocity":66,"Duration":229007,"SoundDuration":229007,"Delta":497631713},{"NoteNumber":59,"Velocity":78,"Duration":229007,"SoundDuration":229007,"Delta":497631713},{"NoteNumber":76,"Velocity":78,"Duration":242718,"SoundDuration":242718,"Delta":497860720},{"NoteNumber":81,"Velocity":78,"Duration":242718,"SoundDuration":242718,"Delta":497860720},{"NoteNumber":72,"Velocity":78,"Duration":242718,"SoundDuration":242718,"Delta":497860720},{"NoteNumber":84,"Velocity":92,"Duration":218446,"SoundDuration":218446,"Delta":497860720},{"NoteNumber":52,"Velocity":63,"Duration":242718,"SoundDuration":242718,"Delta":497860720},{"NoteNumber":45,"Velocity":63,"Duration":242718,"SoundDuration":242718,"Delta":497860720},{"NoteNumber":57,"Velocity":74,"Duration":242718,"SoundDuration":242718,"Delta":497860720},{"NoteNumber":76,"Velocity":80,"Duration":692307,"SoundDuration":692307,"Delta":498346157},{"NoteNumber":81,"Velocity":80,"Duration":684615,"SoundDuration":684615,"Delta":498346157},{"NoteNumber":72,"Velocity":80,"Duration":684615,"SoundDuration":684615,"Delta":498346157},{"NoteNumber":84,"Velocity":95,"Duration":684615,"SoundDuration":684615,"Delta":498346157},{"NoteNumber":45,"Velocity":69,"Duration":684615,"SoundDuration":684615,"Delta":498346157},{"NoteNumber":52,"Velocity":69,"Duration":686538,"SoundDuration":686538,"Delta":498346157},{"NoteNumber":57,"Velocity":81,"Duration":684615,"SoundDuration":684615,"Delta":498346157},{"NoteNumber":81,"Velocity":80,"Duration":408961,"SoundDuration":408961,"Delta":499038465},{"NoteNumber":72,"Velocity":80,"Duration":408961,"SoundDuration":408961,"Delta":499038465},{"NoteNumber":76,"Velocity":80,"Duration":408961,"SoundDuration":408961,"Delta":499038465},{"NoteNumber":84,"Velocity":95,"Duration":408961,"SoundDuration":408961,"Delta":499038465},{"NoteNumber":52,"Velocity":60,"Duration":408961,"SoundDuration":408961,"Delta":499038465},{"NoteNumber":45,"Velocity":60,"Duration":408961,"SoundDuration":408961,"Delta":499038465},{"NoteNumber":57,"Velocity":85,"Duration":408961,"SoundDuration":408961,"Delta":499038465},{"NoteNumber":81,"Velocity":75,"Duration":213371,"SoundDuration":213371,"Delta":499465208},{"NoteNumber":72,"Velocity":75,"Duration":213371,"SoundDuration":213371,"Delta":499465208},{"NoteNumber":76,"Velocity":75,"Duration":199146,"SoundDuration":199146,"Delta":499465208},{"NoteNumber":84,"Velocity":89,"Duration":213371,"SoundDuration":213371,"Delta":499465208},{"NoteNumber":52,"Velocity":65,"Duration":213371,"SoundDuration":213371,"Delta":499465208},{"NoteNumber":45,"Velocity":65,"Duration":213371,"SoundDuration":213371,"Delta":499465208},{"NoteNumber":57,"Velocity":76,"Duration":213371,"SoundDuration":213371,"Delta":499465208},{"NoteNumber":72,"Velocity":77,"Duration":255102,"SoundDuration":255102,"Delta":499678579},{"NoteNumber":81,"Velocity":77,"Duration":255102,"SoundDuration":255102,"Delta":499678579},{"NoteNumber":76,"Velocity":77,"Duration":255102,"SoundDuration":255102,"Delta":499678579},{"NoteNumber":84,"Velocity":92,"Duration":229591,"SoundDuration":229591,"Delta":499678579},{"NoteNumber":52,"Velocity":71,"Duration":255102,"SoundDuration":255102,"Delta":499678579},{"NoteNumber":45,"Velocity":71,"Duration":255102,"SoundDuration":255102,"Delta":499678579},{"NoteNumber":57,"Velocity":83,"Duration":255102,"SoundDuration":255102,"Delta":499678579},{"NoteNumber":81,"Velocity":78,"Duration":694444,"SoundDuration":694444,"Delta":500188783},{"NoteNumber":76,"Velocity":78,"Duration":694444,"SoundDuration":694444,"Delta":500188783},{"NoteNumber":72,"Velocity":78,"Duration":694444,"SoundDuration":694444,"Delta":500188783},{"NoteNumber":84,"Velocity":93,"Duration":694444,"SoundDuration":694444,"Delta":500188783},{"NoteNumber":52,"Velocity":74,"Duration":694444,"SoundDuration":694444,"Delta":500188783},{"NoteNumber":45,"Velocity":74,"Duration":694444,"SoundDuration":694444,"Delta":500188783},{"NoteNumber":57,"Velocity":88,"Duration":694444,"SoundDuration":694444,"Delta":500188783},{"NoteNumber":81,"Velocity":83,"Duration":427191,"SoundDuration":427191,"Delta":500883227},{"NoteNumber":72,"Velocity":83,"Duration":427191,"SoundDuration":427191,"Delta":500883227},{"NoteNumber":76,"Velocity":83,"Duration":427191,"SoundDuration":427191,"Delta":500883227},{"NoteNumber":84,"Velocity":98,"Duration":427191,"SoundDuration":427191,"Delta":500883227},{"NoteNumber":52,"Velocity":62,"Duration":427191,"SoundDuration":427191,"Delta":500883227},{"NoteNumber":45,"Velocity":62,"Duration":427191,"SoundDuration":427191,"Delta":500883227},{"NoteNumber":57,"Velocity":88,"Duration":427191,"SoundDuration":427191,"Delta":500883227},{"NoteNumber":72,"Velocity":76,"Duration":238853,"SoundDuration":238853,"Delta":501328992},{"NoteNumber":76,"Velocity":76,"Duration":238853,"SoundDuration":238853,"Delta":501328992},{"NoteNumber":81,"Velocity":76,"Duration":238853,"SoundDuration":238853,"Delta":501328992},{"NoteNumber":84,"Velocity":91,"Duration":238853,"SoundDuration":238853,"Delta":501328992},{"NoteNumber":52,"Velocity":70,"Duration":238853,"SoundDuration":238853,"Delta":501328992},{"NoteNumber":45,"Velocity":70,"Duration":238853,"SoundDuration":238853,"Delta":501328992},{"NoteNumber":57,"Velocity":84,"Duration":238853,"SoundDuration":238853,"Delta":501328992},{"NoteNumber":83,"Velocity":74,"Duration":250835,"SoundDuration":250835,"Delta":501567846},{"NoteNumber":74,"Velocity":74,"Duration":250835,"SoundDuration":250835,"Delta":501567846},{"NoteNumber":79,"Velocity":74,"Duration":225752,"SoundDuration":225752,"Delta":501567846},{"NoteNumber":86,"Velocity":93,"Duration":225752,"SoundDuration":225752,"Delta":501567846},{"NoteNumber":43,"Velocity":71,"Duration":250835,"SoundDuration":250835,"Delta":501567846},{"NoteNumber":50,"Velocity":71,"Duration":250835,"SoundDuration":250835,"Delta":501567846},{"NoteNumber":55,"Velocity":86,"Duration":250835,"SoundDuration":250835,"Delta":501567846},{"NoteNumber":83,"Velocity":80,"Duration":734094,"SoundDuration":734094,"Delta":502069518},{"NoteNumber":74,"Velocity":80,"Duration":723898,"SoundDuration":723898,"Delta":502069518},{"NoteNumber":79,"Velocity":80,"Duration":734094,"SoundDuration":734094,"Delta":502069518},{"NoteNumber":86,"Velocity":96,"Duration":723898,"SoundDuration":723898,"Delta":502069518},{"NoteNumber":43,"Velocity":85,"Duration":723898,"SoundDuration":723898,"Delta":502069518},{"NoteNumber":50,"Velocity":85,"Duration":723898,"SoundDuration":723898,"Delta":502069518},{"NoteNumber":55,"Velocity":99,"Duration":723898,"SoundDuration":723898,"Delta":502069518},{"NoteNumber":83,"Velocity":84,"Duration":224551,"SoundDuration":224551,"Delta":502803613},{"NoteNumber":79,"Velocity":84,"Duration":224551,"SoundDuration":224551,"Delta":502803613},{"NoteNumber":74,"Velocity":84,"Duration":202095,"SoundDuration":202095,"Delta":502803613},{"NoteNumber":86,"Velocity":99,"Duration":202095,"SoundDuration":202095,"Delta":502803613},{"NoteNumber":50,"Velocity":84,"Duration":224551,"SoundDuration":224551,"Delta":502803613},{"NoteNumber":43,"Velocity":84,"Duration":224551,"SoundDuration":224551,"Delta":502803613},{"NoteNumber":55,"Velocity":99,"Duration":224551,"SoundDuration":224551,"Delta":502803613},{"NoteNumber":83,"Velocity":81,"Duration":244698,"SoundDuration":244698,"Delta":503252715},{"NoteNumber":74,"Velocity":81,"Duration":244698,"SoundDuration":244698,"Delta":503252715},{"NoteNumber":79,"Velocity":81,"Duration":244698,"SoundDuration":244698,"Delta":503252715},{"NoteNumber":86,"Velocity":96,"Duration":244698,"SoundDuration":244698,"Delta":503252715},{"NoteNumber":50,"Velocity":81,"Duration":244698,"SoundDuration":244698,"Delta":503252715},{"NoteNumber":43,"Velocity":81,"Duration":244698,"SoundDuration":244698,"Delta":503252715},{"NoteNumber":55,"Velocity":96,"Duration":236541,"SoundDuration":236541,"Delta":503252715},{"NoteNumber":79,"Velocity":84,"Duration":257290,"SoundDuration":257290,"Delta":503497413},{"NoteNumber":83,"Velocity":84,"Duration":257290,"SoundDuration":257290,"Delta":503497413},{"NoteNumber":74,"Velocity":84,"Duration":257290,"SoundDuration":257290,"Delta":503497413},{"NoteNumber":86,"Velocity":99,"Duration":231560,"SoundDuration":231560,"Delta":503497413},{"NoteNumber":50,"Velocity":68,"Duration":257290,"SoundDuration":257290,"Delta":503497413},{"NoteNumber":43,"Velocity":68,"Duration":257290,"SoundDuration":257290,"Delta":503497413},{"NoteNumber":55,"Velocity":79,"Duration":257290,"SoundDuration":257290,"Delta":503497413},{"NoteNumber":79,"Velocity":87,"Duration":722311,"SoundDuration":722311,"Delta":504011993},{"NoteNumber":83,"Velocity":87,"Duration":714285,"SoundDuration":714285,"Delta":504011993},{"NoteNumber":74,"Velocity":87,"Duration":714285,"SoundDuration":714285,"Delta":504011993},{"NoteNumber":86,"Velocity":103,"Duration":714285,"SoundDuration":714285,"Delta":504011993},{"NoteNumber":43,"Velocity":75,"Duration":714285,"SoundDuration":714285,"Delta":504011993},{"NoteNumber":50,"Velocity":75,"Duration":716292,"SoundDuration":716292,"Delta":504011993},{"NoteNumber":55,"Velocity":88,"Duration":714285,"SoundDuration":714285,"Delta":504011993},{"NoteNumber":83,"Velocity":88,"Duration":438530,"SoundDuration":438530,"Delta":504734304},{"NoteNumber":74,"Velocity":88,"Duration":438530,"SoundDuration":438530,"Delta":504734304},{"NoteNumber":79,"Velocity":88,"Duration":438530,"SoundDuration":438530,"Delta":504734304},{"NoteNumber":86,"Velocity":104,"Duration":438530,"SoundDuration":438530,"Delta":504734304},{"NoteNumber":50,"Velocity":66,"Duration":438530,"SoundDuration":438530,"Delta":504734304},{"NoteNumber":43,"Velocity":66,"Duration":438530,"SoundDuration":438530,"Delta":504734304},{"NoteNumber":55,"Velocity":93,"Duration":438530,"SoundDuration":438530,"Delta":504734304},{"NoteNumber":83,"Velocity":81,"Duration":266429,"SoundDuration":266429,"Delta":505191977},{"NoteNumber":74,"Velocity":81,"Duration":266429,"SoundDuration":266429,"Delta":505191977},{"NoteNumber":79,"Velocity":81,"Duration":248667,"SoundDuration":248667,"Delta":505191977},{"NoteNumber":86,"Velocity":96,"Duration":266429,"SoundDuration":266429,"Delta":505191977},{"NoteNumber":50,"Velocity":70,"Duration":266429,"SoundDuration":266429,"Delta":505191977},{"NoteNumber":43,"Velocity":70,"Duration":266429,"SoundDuration":266429,"Delta":505191977},{"NoteNumber":55,"Velocity":82,"Duration":266429,"SoundDuration":266429,"Delta":505191977},{"NoteNumber":88,"Velocity":100,"Duration":229591,"SoundDuration":229591,"Delta":505458407},{"NoteNumber":76,"Velocity":84,"Duration":255102,"SoundDuration":255102,"Delta":505458407},{"NoteNumber":84,"Velocity":84,"Duration":255102,"SoundDuration":255102,"Delta":505458407},{"NoteNumber":79,"Velocity":84,"Duration":255102,"SoundDuration":255102,"Delta":505458407},{"NoteNumber":43,"Velocity":74,"Duration":255102,"SoundDuration":255102,"Delta":505458407},{"NoteNumber":36,"Velocity":74,"Duration":255102,"SoundDuration":255102,"Delta":505458407},{"NoteNumber":48,"Velocity":88,"Duration":255102,"SoundDuration":255102,"Delta":505458407},{"NoteNumber":84,"Velocity":86,"Duration":746268,"SoundDuration":746268,"Delta":505968611},{"NoteNumber":79,"Velocity":86,"Duration":746268,"SoundDuration":746268,"Delta":505968611},{"NoteNumber":76,"Velocity":86,"Duration":746268,"SoundDuration":746268,"Delta":505968611},{"NoteNumber":88,"Velocity":101,"Duration":746268,"SoundDuration":746268,"Delta":505968611},{"NoteNumber":43,"Velocity":83,"Duration":746268,"SoundDuration":746268,"Delta":505968611},{"NoteNumber":36,"Velocity":83,"Duration":746268,"SoundDuration":746268,"Delta":505968611},{"NoteNumber":48,"Velocity":100,"Duration":746268,"SoundDuration":746268,"Delta":505968611},{"NoteNumber":84,"Velocity":89,"Duration":465210,"SoundDuration":465210,"Delta":506714879},{"NoteNumber":76,"Velocity":89,"Duration":465210,"SoundDuration":465210,"Delta":506714879},{"NoteNumber":79,"Velocity":89,"Duration":465210,"SoundDuration":465210,"Delta":506714879},{"NoteNumber":88,"Velocity":106,"Duration":465210,"SoundDuration":465210,"Delta":506714879},{"NoteNumber":43,"Velocity":67,"Duration":465210,"SoundDuration":465210,"Delta":506714879},{"NoteNumber":36,"Velocity":67,"Duration":465210,"SoundDuration":465210,"Delta":506714879},{"NoteNumber":48,"Velocity":95,"Duration":465210,"SoundDuration":465210,"Delta":506714879},{"NoteNumber":76,"Velocity":82,"Duration":276243,"SoundDuration":276243,"Delta":507200316},{"NoteNumber":79,"Velocity":82,"Duration":276243,"SoundDuration":276243,"Delta":507200316},{"NoteNumber":84,"Velocity":82,"Duration":276243,"SoundDuration":276243,"Delta":507200316},{"NoteNumber":88,"Velocity":98,"Duration":276243,"SoundDuration":276243,"Delta":507200316},{"NoteNumber":43,"Velocity":75,"Duration":276243,"SoundDuration":276243,"Delta":507200316},{"NoteNumber":36,"Velocity":75,"Duration":276243,"SoundDuration":276243,"Delta":507200316},{"NoteNumber":48,"Velocity":90,"Duration":276243,"SoundDuration":276243,"Delta":507200316},{"NoteNumber":84,"Velocity":73,"Duration":295275,"SoundDuration":295275,"Delta":507476559},{"NoteNumber":76,"Velocity":73,"Duration":295275,"SoundDuration":295275,"Delta":507476559},{"NoteNumber":79,"Velocity":73,"Duration":265747,"SoundDuration":265747,"Delta":507476559},{"NoteNumber":88,"Velocity":103,"Duration":265747,"SoundDuration":265747,"Delta":507476559},{"NoteNumber":36,"Velocity":80,"Duration":295275,"SoundDuration":295275,"Delta":507476559},{"NoteNumber":43,"Velocity":80,"Duration":295275,"SoundDuration":295275,"Delta":507476559},{"NoteNumber":48,"Velocity":96,"Duration":295275,"SoundDuration":295275,"Delta":507476559},{"NoteNumber":84,"Velocity":83,"Duration":1015801,"SoundDuration":1015801,"Delta":508067110},{"NoteNumber":76,"Velocity":83,"Duration":1001693,"SoundDuration":1001693,"Delta":508067110},{"NoteNumber":79,"Velocity":83,"Duration":1015801,"SoundDuration":1015801,"Delta":508067110},{"NoteNumber":88,"Velocity":99,"Duration":1001693,"SoundDuration":1001693,"Delta":508067110},{"NoteNumber":36,"Velocity":87,"Duration":1001693,"SoundDuration":1001693,"Delta":508067110},{"NoteNumber":43,"Velocity":87,"Duration":1001693,"SoundDuration":1001693,"Delta":508067110},{"NoteNumber":48,"Velocity":102,"Duration":1001693,"SoundDuration":1001693,"Delta":508067110},{"NoteNumber":72,"Velocity":48,"Duration":250835,"SoundDuration":250835,"Delta":509082912},{"NoteNumber":67,"Velocity":48,"Duration":250835,"SoundDuration":250835,"Delta":509082912},{"NoteNumber":64,"Velocity":48,"Duration":225752,"SoundDuration":225752,"Delta":509082912},{"NoteNumber":76,"Velocity":57,"Duration":225752,"SoundDuration":225752,"Delta":509082912},{"NoteNumber":55,"Velocity":48,"Duration":250835,"SoundDuration":250835,"Delta":509082912},{"NoteNumber":48,"Velocity":48,"Duration":250835,"SoundDuration":250835,"Delta":509082912},{"NoteNumber":60,"Velocity":57,"Duration":250835,"SoundDuration":250835,"Delta":509082912},{"NoteNumber":72,"Velocity":45,"Duration":239786,"SoundDuration":239786,"Delta":509584584},{"NoteNumber":64,"Velocity":45,"Duration":239786,"SoundDuration":239786,"Delta":509584584},{"NoteNumber":67,"Velocity":45,"Duration":239786,"SoundDuration":239786,"Delta":509584584},{"NoteNumber":76,"Velocity":54,"Duration":239786,"SoundDuration":239786,"Delta":509584584},{"NoteNumber":55,"Velocity":45,"Duration":239786,"SoundDuration":239786,"Delta":509584584},{"NoteNumber":48,"Velocity":45,"Duration":239786,"SoundDuration":239786,"Delta":509584584},{"NoteNumber":60,"Velocity":54,"Duration":233126,"SoundDuration":233126,"Delta":509584584},{"NoteNumber":67,"Velocity":45,"Duration":295275,"SoundDuration":295275,"Delta":509851014},{"NoteNumber":72,"Velocity":45,"Duration":295275,"SoundDuration":295275,"Delta":509851014},{"NoteNumber":64,"Velocity":45,"Duration":295275,"SoundDuration":295275,"Delta":509851014},{"NoteNumber":76,"Velocity":53,"Duration":265747,"SoundDuration":265747,"Delta":509851014},{"NoteNumber":55,"Velocity":36,"Duration":295275,"SoundDuration":295275,"Delta":509851014},{"NoteNumber":48,"Velocity":36,"Duration":295275,"SoundDuration":295275,"Delta":509851014},{"NoteNumber":60,"Velocity":42,"Duration":295275,"SoundDuration":295275,"Delta":509851014},{"NoteNumber":67,"Velocity":45,"Duration":806451,"SoundDuration":806451,"Delta":510441565},{"NoteNumber":72,"Velocity":45,"Duration":797491,"SoundDuration":797491,"Delta":510441565},{"NoteNumber":64,"Velocity":45,"Duration":797491,"SoundDuration":797491,"Delta":510441565},{"NoteNumber":76,"Velocity":53,"Duration":797491,"SoundDuration":797491,"Delta":510441565},{"NoteNumber":48,"Velocity":39,"Duration":797491,"SoundDuration":797491,"Delta":510441565},{"NoteNumber":55,"Velocity":39,"Duration":797491,"SoundDuration":797491,"Delta":510441565},{"NoteNumber":60,"Velocity":45,"Duration":797491,"SoundDuration":797491,"Delta":510441565},{"NoteNumber":72,"Velocity":44,"Duration":499669,"SoundDuration":499669,"Delta":511248016},{"NoteNumber":64,"Velocity":44,"Duration":499669,"SoundDuration":499669,"Delta":511248016},{"NoteNumber":67,"Velocity":44,"Duration":499669,"SoundDuration":499669,"Delta":511248016},{"NoteNumber":76,"Velocity":52,"Duration":499669,"SoundDuration":499669,"Delta":511248016},{"NoteNumber":55,"Velocity":33,"Duration":499669,"SoundDuration":499669,"Delta":511248016},{"NoteNumber":48,"Velocity":33,"Duration":499669,"SoundDuration":499669,"Delta":511248016},{"NoteNumber":60,"Velocity":46,"Duration":499669,"SoundDuration":499669,"Delta":511248016},{"NoteNumber":72,"Velocity":39,"Duration":285412,"SoundDuration":285412,"Delta":511769312},{"NoteNumber":64,"Velocity":39,"Duration":285412,"SoundDuration":285412,"Delta":511769312},{"NoteNumber":67,"Velocity":39,"Duration":266913,"SoundDuration":266913,"Delta":511769312},{"NoteNumber":76,"Velocity":47,"Duration":285412,"SoundDuration":285412,"Delta":511769312},{"NoteNumber":55,"Velocity":34,"Duration":285412,"SoundDuration":285412,"Delta":511769312},{"NoteNumber":48,"Velocity":34,"Duration":285412,"SoundDuration":285412,"Delta":511769312},{"NoteNumber":60,"Velocity":40,"Duration":285412,"SoundDuration":285412,"Delta":511769312},{"NoteNumber":76,"Velocity":50,"Duration":255681,"SoundDuration":255681,"Delta":512086437},{"NoteNumber":65,"Velocity":42,"Duration":284090,"SoundDuration":284090,"Delta":512086437},{"NoteNumber":72,"Velocity":42,"Duration":284090,"SoundDuration":284090,"Delta":512086437},{"NoteNumber":59,"Velocity":37,"Duration":284090,"SoundDuration":284090,"Delta":512086437},{"NoteNumber":50,"Velocity":37,"Duration":284090,"SoundDuration":284090,"Delta":512086437},{"NoteNumber":62,"Velocity":44,"Duration":284090,"SoundDuration":284090,"Delta":512086437},{"NoteNumber":71,"Velocity":38,"Duration":814325,"SoundDuration":814325,"Delta":512654619},{"NoteNumber":65,"Velocity":38,"Duration":814325,"SoundDuration":814325,"Delta":512654619},{"NoteNumber":74,"Velocity":45,"Duration":814325,"SoundDuration":814325,"Delta":512654619},{"NoteNumber":59,"Velocity":37,"Duration":814325,"SoundDuration":814325,"Delta":512654619},{"NoteNumber":50,"Velocity":37,"Duration":814325,"SoundDuration":814325,"Delta":512654619},{"NoteNumber":62,"Velocity":45,"Duration":814325,"SoundDuration":814325,"Delta":512654619},{"NoteNumber":71,"Velocity":40,"Duration":488945,"SoundDuration":488945,"Delta":513475787},{"NoteNumber":65,"Velocity":40,"Duration":488945,"SoundDuration":488945,"Delta":513475787},{"NoteNumber":74,"Velocity":47,"Duration":488945,"SoundDuration":488945,"Delta":513475787},{"NoteNumber":59,"Velocity":30,"Duration":488945,"SoundDuration":488945,"Delta":513475787},{"NoteNumber":50,"Velocity":30,"Duration":488945,"SoundDuration":488945,"Delta":513475787},{"NoteNumber":62,"Velocity":42,"Duration":488945,"SoundDuration":488945,"Delta":513475787},{"NoteNumber":71,"Velocity":36,"Duration":289575,"SoundDuration":289575,"Delta":513985991},{"NoteNumber":65,"Velocity":36,"Duration":270270,"SoundDuration":270270,"Delta":513985991},{"NoteNumber":74,"Velocity":42,"Duration":289575,"SoundDuration":289575,"Delta":513985991},{"NoteNumber":59,"Velocity":31,"Duration":289575,"SoundDuration":289575,"Delta":513985991},{"NoteNumber":50,"Velocity":31,"Duration":289575,"SoundDuration":289575,"Delta":513985991},{"NoteNumber":62,"Velocity":36,"Duration":289575,"SoundDuration":289575,"Delta":513985991},{"NoteNumber":74,"Velocity":45,"Duration":285412,"SoundDuration":285412,"Delta":514275566},{"NoteNumber":64,"Velocity":38,"Duration":317124,"SoundDuration":317124,"Delta":514275566},{"NoteNumber":71,"Velocity":38,"Duration":317124,"SoundDuration":317124,"Delta":514275566},{"NoteNumber":57,"Velocity":34,"Duration":317124,"SoundDuration":317124,"Delta":514275566},{"NoteNumber":52,"Velocity":34,"Duration":317124,"SoundDuration":317124,"Delta":514275566},{"NoteNumber":60,"Velocity":39,"Duration":317124,"SoundDuration":317124,"Delta":514275566},{"NoteNumber":69,"Velocity":34,"Duration":887176,"SoundDuration":887176,"Delta":514909816},{"NoteNumber":64,"Velocity":34,"Duration":887176,"SoundDuration":887176,"Delta":514909816},{"NoteNumber":72,"Velocity":41,"Duration":887176,"SoundDuration":887176,"Delta":514909816},{"NoteNumber":57,"Velocity":33,"Duration":887176,"SoundDuration":887176,"Delta":514909816},{"NoteNumber":52,"Velocity":33,"Duration":887176,"SoundDuration":887176,"Delta":514909816},{"NoteNumber":60,"Velocity":41,"Duration":887176,"SoundDuration":887176,"Delta":514909816},{"NoteNumber":69,"Velocity":35,"Duration":549713,"SoundDuration":549713,"Delta":515804448},{"NoteNumber":64,"Velocity":35,"Duration":549713,"SoundDuration":549713,"Delta":515804448},{"NoteNumber":72,"Velocity":42,"Duration":549713,"SoundDuration":549713,"Delta":515804448},{"NoteNumber":57,"Velocity":26,"Duration":549713,"SoundDuration":549713,"Delta":515804448},{"NoteNumber":52,"Velocity":26,"Duration":549713,"SoundDuration":549713,"Delta":515804448},{"NoteNumber":60,"Velocity":37,"Duration":549713,"SoundDuration":549713,"Delta":515804448},{"NoteNumber":69,"Velocity":32,"Duration":402144,"SoundDuration":402144,"Delta":516378062},{"NoteNumber":64,"Velocity":32,"Duration":375335,"SoundDuration":375335,"Delta":516378062},{"NoteNumber":72,"Velocity":38,"Duration":402144,"SoundDuration":402144,"Delta":516378062},{"NoteNumber":57,"Velocity":28,"Duration":402144,"SoundDuration":402144,"Delta":516378062},{"NoteNumber":52,"Velocity":28,"Duration":402144,"SoundDuration":402144,"Delta":516378062},{"NoteNumber":60,"Velocity":32,"Duration":402144,"SoundDuration":402144,"Delta":516378062},{"NoteNumber":72,"Velocity":40,"Duration":366847,"SoundDuration":366847,"Delta":516780207},{"NoteNumber":64,"Velocity":34,"Duration":407608,"SoundDuration":407608,"Delta":516780207},{"NoteNumber":69,"Velocity":34,"Duration":407608,"SoundDuration":407608,"Delta":516780207},{"NoteNumber":52,"Velocity":30,"Duration":407608,"SoundDuration":407608,"Delta":516780207},{"NoteNumber":62,"Velocity":35,"Duration":407608,"SoundDuration":407608,"Delta":516780207},{"NoteNumber":68,"Velocity":30,"Duration":2264537,"SoundDuration":2264537,"Delta":517595424},{"NoteNumber":64,"Velocity":30,"Duration":2264537,"SoundDuration":2264537,"Delta":517595424},{"NoteNumber":71,"Velocity":36,"Duration":2264537,"SoundDuration":2264537,"Delta":517595424},{"NoteNumber":52,"Velocity":30,"Duration":2264537,"SoundDuration":2264537,"Delta":517595424},{"NoteNumber":62,"Velocity":36,"Duration":2264537,"SoundDuration":2264537,"Delta":517595424},{"NoteNumber":61,"Velocity":39,"Duration":432000,"SoundDuration":432000,"Delta":521223598},{"NoteNumber":64,"Velocity":46,"Duration":432000,"SoundDuration":432000,"Delta":521223598},{"NoteNumber":57,"Velocity":34,"Duration":432000,"SoundDuration":432000,"Delta":521223598},{"NoteNumber":62,"Velocity":42,"Duration":432000,"SoundDuration":432000,"Delta":521703598},{"NoteNumber":66,"Velocity":50,"Duration":432000,"SoundDuration":432000,"Delta":521703598},{"NoteNumber":57,"Velocity":40,"Duration":432000,"SoundDuration":432000,"Delta":521703598},{"NoteNumber":60,"Velocity":34,"Duration":524272,"SoundDuration":524272,"Delta":522183598},{"NoteNumber":63,"Velocity":40,"Duration":524272,"SoundDuration":524272,"Delta":522183598},{"NoteNumber":57,"Velocity":29,"Duration":524272,"SoundDuration":524272,"Delta":522183598},{"NoteNumber":61,"Velocity":39,"Duration":1419999,"SoundDuration":1419999,"Delta":522766122},{"NoteNumber":64,"Velocity":47,"Duration":1419999,"SoundDuration":1419999,"Delta":522766122},{"NoteNumber":57,"Velocity":37,"Duration":1419999,"SoundDuration":1419999,"Delta":522766122},{"NoteNumber":69,"Velocity":38,"Duration":460000,"SoundDuration":460000,"Delta":523006122},{"NoteNumber":73,"Velocity":38,"Duration":460000,"SoundDuration":460000,"Delta":523006122},{"NoteNumber":45,"Velocity":31,"Duration":460000,"SoundDuration":460000,"Delta":523006122},{"NoteNumber":52,"Velocity":31,"Duration":460000,"SoundDuration":460000,"Delta":523006122},{"NoteNumber":69,"Velocity":38,"Duration":240000,"SoundDuration":240000,"Delta":523486122},{"NoteNumber":73,"Velocity":38,"Duration":240000,"SoundDuration":240000,"Delta":523486122},{"NoteNumber":45,"Velocity":31,"Duration":240000,"SoundDuration":240000,"Delta":523486122},{"NoteNumber":52,"Velocity":31,"Duration":240000,"SoundDuration":240000,"Delta":523486122},{"NoteNumber":69,"Velocity":38,"Duration":480000,"SoundDuration":480000,"Delta":523726122},{"NoteNumber":73,"Velocity":38,"Duration":480000,"SoundDuration":480000,"Delta":523726122},{"NoteNumber":45,"Velocity":31,"Duration":459999,"SoundDuration":459999,"Delta":523726122},{"NoteNumber":52,"Velocity":31,"Duration":459999,"SoundDuration":459999,"Delta":523726122},{"NoteNumber":73,"Velocity":31,"Duration":479999,"SoundDuration":479999,"Delta":524206122},{"NoteNumber":61,"Velocity":42,"Duration":459999,"SoundDuration":459999,"Delta":524206122},{"NoteNumber":64,"Velocity":42,"Duration":459999,"SoundDuration":459999,"Delta":524206122},{"NoteNumber":69,"Velocity":55,"Duration":479999,"SoundDuration":479999,"Delta":524206122},{"NoteNumber":45,"Velocity":34,"Duration":479999,"SoundDuration":479999,"Delta":524206122},{"NoteNumber":52,"Velocity":34,"Duration":479999,"SoundDuration":479999,"Delta":524206122},{"NoteNumber":57,"Velocity":41,"Duration":479999,"SoundDuration":479999,"Delta":524206122},{"NoteNumber":61,"Velocity":42,"Duration":468750,"SoundDuration":468750,"Delta":524686122},{"NoteNumber":64,"Velocity":42,"Duration":468750,"SoundDuration":468750,"Delta":524686122},{"NoteNumber":71,"Velocity":57,"Duration":468750,"SoundDuration":468750,"Delta":524686122},{"NoteNumber":57,"Velocity":43,"Duration":468750,"SoundDuration":468750,"Delta":524686122},{"NoteNumber":61,"Velocity":47,"Duration":453781,"SoundDuration":453781,"Delta":525154872},{"NoteNumber":65,"Velocity":47,"Duration":453781,"SoundDuration":453781,"Delta":525154872},{"NoteNumber":73,"Velocity":61,"Duration":453781,"SoundDuration":453781,"Delta":525154872},{"NoteNumber":57,"Velocity":45,"Duration":453781,"SoundDuration":453781,"Delta":525154872},{"NoteNumber":66,"Velocity":45,"Duration":1481135,"SoundDuration":1481135,"Delta":525659074},{"NoteNumber":73,"Velocity":58,"Duration":967742,"SoundDuration":967742,"Delta":525659074},{"NoteNumber":62,"Velocity":38,"Duration":1503456,"SoundDuration":1503456,"Delta":525659074},{"NoteNumber":78,"Velocity":48,"Duration":463709,"SoundDuration":463709,"Delta":525901009},{"NoteNumber":76,"Velocity":48,"Duration":463709,"SoundDuration":463709,"Delta":525901009},{"NoteNumber":50,"Velocity":29,"Duration":483871,"SoundDuration":483871,"Delta":525901009},{"NoteNumber":58,"Velocity":35,"Duration":483871,"SoundDuration":483871,"Delta":525901009},{"NoteNumber":78,"Velocity":41,"Duration":241935,"SoundDuration":241935,"Delta":526384880},{"NoteNumber":76,"Velocity":41,"Duration":241935,"SoundDuration":241935,"Delta":526384880},{"NoteNumber":50,"Velocity":31,"Duration":241935,"SoundDuration":241935,"Delta":526384880},{"NoteNumber":58,"Velocity":31,"Duration":241935,"SoundDuration":241935,"Delta":526384880},{"NoteNumber":74,"Velocity":38,"Duration":513393,"SoundDuration":513393,"Delta":526626816},{"NoteNumber":78,"Velocity":38,"Duration":513393,"SoundDuration":513393,"Delta":526626816},{"NoteNumber":71,"Velocity":48,"Duration":535714,"SoundDuration":535714,"Delta":526626816},{"NoteNumber":50,"Velocity":32,"Duration":535714,"SoundDuration":535714,"Delta":526626816},{"NoteNumber":59,"Velocity":38,"Duration":535714,"SoundDuration":535714,"Delta":526626816},{"NoteNumber":66,"Velocity":56,"Duration":468750,"SoundDuration":468750,"Delta":527162530},{"NoteNumber":74,"Velocity":35,"Duration":468750,"SoundDuration":468750,"Delta":527162530},{"NoteNumber":78,"Velocity":35,"Duration":468750,"SoundDuration":468750,"Delta":527162530},{"NoteNumber":71,"Velocity":51,"Duration":234375,"SoundDuration":234375,"Delta":527162530},{"NoteNumber":50,"Velocity":28,"Duration":468750,"SoundDuration":468750,"Delta":527162530},{"NoteNumber":59,"Velocity":34,"Duration":468750,"SoundDuration":468750,"Delta":527162530},{"NoteNumber":62,"Velocity":40,"Duration":468750,"SoundDuration":468750,"Delta":527162530},{"NoteNumber":69,"Velocity":48,"Duration":234375,"SoundDuration":234375,"Delta":527396905},{"NoteNumber":62,"Velocity":37,"Duration":495867,"SoundDuration":495867,"Delta":527631280},{"NoteNumber":68,"Velocity":51,"Duration":495867,"SoundDuration":495867,"Delta":527631280},{"NoteNumber":59,"Velocity":34,"Duration":495867,"SoundDuration":495867,"Delta":527631280},{"NoteNumber":62,"Velocity":37,"Duration":486486,"SoundDuration":486486,"Delta":528127148},{"NoteNumber":66,"Velocity":48,"Duration":486486,"SoundDuration":486486,"Delta":528127148},{"NoteNumber":57,"Velocity":34,"Duration":486486,"SoundDuration":486486,"Delta":528127148},{"NoteNumber":62,"Velocity":42,"Duration":1443089,"SoundDuration":1443089,"Delta":528667689},{"NoteNumber":64,"Velocity":50,"Duration":1443089,"SoundDuration":1443089,"Delta":528667689},{"NoteNumber":56,"Velocity":37,"Duration":1443089,"SoundDuration":1443089,"Delta":528667689},{"NoteNumber":74,"Velocity":40,"Duration":467479,"SoundDuration":467479,"Delta":528911591},{"NoteNumber":76,"Velocity":40,"Duration":467479,"SoundDuration":467479,"Delta":528911591},{"NoteNumber":47,"Velocity":35,"Duration":487804,"SoundDuration":487804,"Delta":528911591},{"NoteNumber":52,"Velocity":35,"Duration":487804,"SoundDuration":487804,"Delta":528911591},{"NoteNumber":74,"Velocity":35,"Duration":223577,"SoundDuration":223577,"Delta":529399396},{"NoteNumber":76,"Velocity":35,"Duration":223577,"SoundDuration":223577,"Delta":529399396},{"NoteNumber":47,"Velocity":31,"Duration":243902,"SoundDuration":243902,"Delta":529399396},{"NoteNumber":52,"Velocity":31,"Duration":243902,"SoundDuration":243902,"Delta":529399396},{"NoteNumber":74,"Velocity":40,"Duration":467479,"SoundDuration":467479,"Delta":529643299},{"NoteNumber":76,"Velocity":40,"Duration":467479,"SoundDuration":467479,"Delta":529643299},{"NoteNumber":47,"Velocity":35,"Duration":487805,"SoundDuration":487805,"Delta":529643299},{"NoteNumber":52,"Velocity":35,"Duration":487805,"SoundDuration":487805,"Delta":529643299},{"NoteNumber":74,"Velocity":40,"Duration":434895,"SoundDuration":434895,"Delta":530131104},{"NoteNumber":76,"Velocity":40,"Duration":434895,"SoundDuration":434895,"Delta":530131104},{"NoteNumber":62,"Velocity":42,"Duration":236220,"SoundDuration":236220,"Delta":530131104},{"NoteNumber":64,"Velocity":50,"Duration":216535,"SoundDuration":216535,"Delta":530131104},{"NoteNumber":52,"Velocity":35,"Duration":434895,"SoundDuration":434895,"Delta":530131104},{"NoteNumber":47,"Velocity":34,"Duration":434895,"SoundDuration":434895,"Delta":530131104},{"NoteNumber":56,"Velocity":40,"Duration":434895,"SoundDuration":434895,"Delta":530131104},{"NoteNumber":66,"Velocity":40,"Duration":66225,"SoundDuration":66225,"Delta":530433549},{"NoteNumber":68,"Velocity":40,"Duration":66225,"SoundDuration":66225,"Delta":530499775},{"NoteNumber":62,"Velocity":42,"Duration":421875,"SoundDuration":421875,"Delta":530566000},{"NoteNumber":66,"Velocity":50,"Duration":421875,"SoundDuration":421875,"Delta":530566000},{"NoteNumber":56,"Velocity":37,"Duration":421875,"SoundDuration":421875,"Delta":530566000},{"NoteNumber":62,"Velocity":35,"Duration":495412,"SoundDuration":495412,"Delta":531034750},{"NoteNumber":64,"Velocity":42,"Duration":495412,"SoundDuration":495412,"Delta":531034750},{"NoteNumber":56,"Velocity":35,"Duration":495412,"SoundDuration":495412,"Delta":531034750},{"NoteNumber":62,"Velocity":42,"Duration":1008403,"SoundDuration":1008403,"Delta":531585208},{"NoteNumber":66,"Velocity":50,"Duration":1008403,"SoundDuration":1008403,"Delta":531585208},{"NoteNumber":57,"Velocity":40,"Duration":1063958,"SoundDuration":1063958,"Delta":531585208},{"NoteNumber":69,"Velocity":35,"Duration":483193,"SoundDuration":483193,"Delta":531837309},{"NoteNumber":45,"Velocity":29,"Duration":504201,"SoundDuration":504201,"Delta":531837309},{"NoteNumber":50,"Velocity":29,"Duration":504201,"SoundDuration":504201,"Delta":531837309},{"NoteNumber":54,"Velocity":35,"Duration":504201,"SoundDuration":504201,"Delta":531837309},{"NoteNumber":69,"Velocity":31,"Duration":231092,"SoundDuration":231092,"Delta":532341510},{"NoteNumber":45,"Velocity":26,"Duration":231092,"SoundDuration":231092,"Delta":532341510},{"NoteNumber":50,"Velocity":26,"Duration":252100,"SoundDuration":252100,"Delta":532341510},{"NoteNumber":54,"Velocity":31,"Duration":252100,"SoundDuration":252100,"Delta":532341510},{"NoteNumber":69,"Velocity":36,"Duration":555555,"SoundDuration":555555,"Delta":532593611},{"NoteNumber":61,"Velocity":37,"Duration":532407,"SoundDuration":532407,"Delta":532593611},{"NoteNumber":64,"Velocity":44,"Duration":532407,"SoundDuration":532407,"Delta":532593611},{"NoteNumber":45,"Velocity":29,"Duration":555555,"SoundDuration":555555,"Delta":532593611},{"NoteNumber":49,"Velocity":35,"Duration":555555,"SoundDuration":555555,"Delta":532593611},{"NoteNumber":52,"Velocity":36,"Duration":532407,"SoundDuration":532407,"Delta":532593611},{"NoteNumber":69,"Velocity":65,"Duration":479166,"SoundDuration":479166,"Delta":533149167},{"NoteNumber":73,"Velocity":65,"Duration":500000,"SoundDuration":500000,"Delta":533149167},{"NoteNumber":76,"Velocity":77,"Duration":500000,"SoundDuration":500000,"Delta":533149167},{"NoteNumber":45,"Velocity":48,"Duration":500000,"SoundDuration":500000,"Delta":533149167},{"NoteNumber":57,"Velocity":57,"Duration":500000,"SoundDuration":500000,"Delta":533149167},{"NoteNumber":69,"Velocity":72,"Duration":479166,"SoundDuration":479166,"Delta":533649167},{"NoteNumber":74,"Velocity":72,"Duration":450000,"SoundDuration":450000,"Delta":533649167},{"NoteNumber":78,"Velocity":85,"Duration":450000,"SoundDuration":450000,"Delta":533649167},{"NoteNumber":38,"Velocity":47,"Duration":450000,"SoundDuration":450000,"Delta":533649167},{"NoteNumber":50,"Velocity":67,"Duration":450000,"SoundDuration":450000,"Delta":533649167},{"NoteNumber":69,"Velocity":63,"Duration":555555,"SoundDuration":555555,"Delta":534149167},{"NoteNumber":72,"Velocity":63,"Duration":499999,"SoundDuration":499999,"Delta":534149167},{"NoteNumber":75,"Velocity":75,"Duration":499999,"SoundDuration":499999,"Delta":534149167},{"NoteNumber":42,"Velocity":48,"Duration":499999,"SoundDuration":499999,"Delta":534149167},{"NoteNumber":54,"Velocity":57,"Duration":499999,"SoundDuration":499999,"Delta":534149167},{"NoteNumber":69,"Velocity":71,"Duration":241228,"SoundDuration":241228,"Delta":534704722},{"NoteNumber":73,"Velocity":71,"Duration":241228,"SoundDuration":241228,"Delta":534704722},{"NoteNumber":76,"Velocity":84,"Duration":241228,"SoundDuration":241228,"Delta":534704722},{"NoteNumber":45,"Velocity":60,"Duration":241228,"SoundDuration":241228,"Delta":534704722},{"NoteNumber":57,"Velocity":60,"Duration":241228,"SoundDuration":241228,"Delta":534704722},{"NoteNumber":85,"Velocity":77,"Duration":491803,"SoundDuration":491803,"Delta":534967880},{"NoteNumber":81,"Velocity":65,"Duration":491803,"SoundDuration":491803,"Delta":534967880},{"NoteNumber":76,"Velocity":65,"Duration":491803,"SoundDuration":491803,"Delta":534967880},{"NoteNumber":73,"Velocity":65,"Duration":491803,"SoundDuration":491803,"Delta":534967880},{"NoteNumber":33,"Velocity":46,"Duration":491803,"SoundDuration":491803,"Delta":534967880},{"NoteNumber":40,"Velocity":46,"Duration":491803,"SoundDuration":491803,"Delta":534967880},{"NoteNumber":45,"Velocity":55,"Duration":491803,"SoundDuration":491803,"Delta":534967880},{"NoteNumber":73,"Velocity":57,"Duration":245901,"SoundDuration":245901,"Delta":535459684},{"NoteNumber":76,"Velocity":57,"Duration":245901,"SoundDuration":245901,"Delta":535459684},{"NoteNumber":81,"Velocity":57,"Duration":245901,"SoundDuration":245901,"Delta":535459684},{"NoteNumber":85,"Velocity":68,"Duration":245901,"SoundDuration":245901,"Delta":535459684},{"NoteNumber":33,"Velocity":39,"Duration":245901,"SoundDuration":245901,"Delta":535459684},{"NoteNumber":40,"Velocity":39,"Duration":245901,"SoundDuration":245901,"Delta":535459684},{"NoteNumber":45,"Velocity":47,"Duration":245901,"SoundDuration":245901,"Delta":535459684},{"NoteNumber":73,"Velocity":66,"Duration":491803,"SoundDuration":491803,"Delta":535705585},{"NoteNumber":76,"Velocity":66,"Duration":491803,"SoundDuration":491803,"Delta":535705585},{"NoteNumber":81,"Velocity":66,"Duration":491803,"SoundDuration":491803,"Delta":535705585},{"NoteNumber":85,"Velocity":78,"Duration":491803,"SoundDuration":491803,"Delta":535705585},{"NoteNumber":33,"Velocity":46,"Duration":491803,"SoundDuration":491803,"Delta":535705585},{"NoteNumber":40,"Velocity":46,"Duration":491803,"SoundDuration":491803,"Delta":535705585},{"NoteNumber":45,"Velocity":55,"Duration":491803,"SoundDuration":491803,"Delta":535705585},{"NoteNumber":73,"Velocity":60,"Duration":277777,"SoundDuration":277777,"Delta":536197389},{"NoteNumber":76,"Velocity":60,"Duration":277777,"SoundDuration":277777,"Delta":536197389},{"NoteNumber":81,"Velocity":60,"Duration":277777,"SoundDuration":277777,"Delta":536197389},{"NoteNumber":85,"Velocity":71,"Duration":277777,"SoundDuration":277777,"Delta":536197389},{"NoteNumber":33,"Velocity":43,"Duration":277777,"SoundDuration":277777,"Delta":536197389},{"NoteNumber":40,"Velocity":43,"Duration":277777,"SoundDuration":277777,"Delta":536197389},{"NoteNumber":45,"Velocity":51,"Duration":277777,"SoundDuration":277777,"Delta":536197389},{"NoteNumber":69,"Velocity":50,"Duration":217803,"SoundDuration":217803,"Delta":536475167},{"NoteNumber":64,"Velocity":50,"Duration":217803,"SoundDuration":217803,"Delta":536475167},{"NoteNumber":73,"Velocity":50,"Duration":217803,"SoundDuration":217803,"Delta":536475167},{"NoteNumber":49,"Velocity":41,"Duration":227272,"SoundDuration":227272,"Delta":536475167},{"NoteNumber":61,"Velocity":49,"Duration":227272,"SoundDuration":227272,"Delta":536475167},{"NoteNumber":64,"Velocity":56,"Duration":418604,"SoundDuration":418604,"Delta":536702439},{"NoteNumber":69,"Velocity":56,"Duration":418604,"SoundDuration":418604,"Delta":536702439},{"NoteNumber":73,"Velocity":56,"Duration":418604,"SoundDuration":418604,"Delta":536702439},{"NoteNumber":76,"Velocity":78,"Duration":418604,"SoundDuration":418604,"Delta":536702439},{"NoteNumber":47,"Velocity":55,"Duration":465116,"SoundDuration":465116,"Delta":536702439},{"NoteNumber":59,"Velocity":65,"Duration":465116,"SoundDuration":465116,"Delta":536702439},{"NoteNumber":73,"Velocity":65,"Duration":450000,"SoundDuration":450000,"Delta":537167556},{"NoteNumber":66,"Velocity":65,"Duration":450000,"SoundDuration":450000,"Delta":537167556},{"NoteNumber":75,"Velocity":65,"Duration":450000,"SoundDuration":450000,"Delta":537167556},{"NoteNumber":78,"Velocity":77,"Duration":450000,"SoundDuration":450000,"Delta":537167556},{"NoteNumber":45,"Velocity":45,"Duration":450000,"SoundDuration":450000,"Delta":537167556},{"NoteNumber":57,"Velocity":64,"Duration":450000,"SoundDuration":450000,"Delta":537167556},{"NoteNumber":73,"Velocity":71,"Duration":263157,"SoundDuration":263157,"Delta":537667556},{"NoteNumber":68,"Velocity":71,"Duration":241228,"SoundDuration":241228,"Delta":537667556},{"NoteNumber":76,"Velocity":71,"Duration":241228,"SoundDuration":241228,"Delta":537667556},{"NoteNumber":80,"Velocity":84,"Duration":241228,"SoundDuration":241228,"Delta":537667556},{"NoteNumber":44,"Velocity":51,"Duration":241228,"SoundDuration":241228,"Delta":537667556},{"NoteNumber":56,"Velocity":60,"Duration":241228,"SoundDuration":241228,"Delta":537667556},{"NoteNumber":92,"Velocity":77,"Duration":491803,"SoundDuration":491803,"Delta":537930714},{"NoteNumber":88,"Velocity":65,"Duration":491803,"SoundDuration":491803,"Delta":537930714},{"NoteNumber":85,"Velocity":65,"Duration":491803,"SoundDuration":491803,"Delta":537930714},{"NoteNumber":80,"Velocity":65,"Duration":491803,"SoundDuration":491803,"Delta":537930714},{"NoteNumber":32,"Velocity":46,"Duration":491803,"SoundDuration":491803,"Delta":537930714},{"NoteNumber":37,"Velocity":46,"Duration":491803,"SoundDuration":491803,"Delta":537930714},{"NoteNumber":44,"Velocity":55,"Duration":491803,"SoundDuration":491803,"Delta":537930714},{"NoteNumber":80,"Velocity":57,"Duration":245901,"SoundDuration":245901,"Delta":538422517},{"NoteNumber":85,"Velocity":57,"Duration":245901,"SoundDuration":245901,"Delta":538422517},{"NoteNumber":88,"Velocity":57,"Duration":245901,"SoundDuration":245901,"Delta":538422517},{"NoteNumber":92,"Velocity":68,"Duration":245901,"SoundDuration":245901,"Delta":538422517},{"NoteNumber":32,"Velocity":39,"Duration":245901,"SoundDuration":245901,"Delta":538422517},{"NoteNumber":37,"Velocity":39,"Duration":245901,"SoundDuration":245901,"Delta":538422517},{"NoteNumber":44,"Velocity":47,"Duration":245901,"SoundDuration":245901,"Delta":538422517},{"NoteNumber":80,"Velocity":66,"Duration":491803,"SoundDuration":491803,"Delta":538668419},{"NoteNumber":85,"Velocity":66,"Duration":491803,"SoundDuration":491803,"Delta":538668419},{"NoteNumber":88,"Velocity":66,"Duration":491803,"SoundDuration":491803,"Delta":538668419},{"NoteNumber":92,"Velocity":78,"Duration":491803,"SoundDuration":491803,"Delta":538668419},{"NoteNumber":32,"Velocity":46,"Duration":491803,"SoundDuration":491803,"Delta":538668419},{"NoteNumber":37,"Velocity":46,"Duration":491803,"SoundDuration":491803,"Delta":538668419},{"NoteNumber":44,"Velocity":55,"Duration":491803,"SoundDuration":491803,"Delta":538668419},{"NoteNumber":80,"Velocity":60,"Duration":277777,"SoundDuration":277777,"Delta":539160223},{"NoteNumber":85,"Velocity":60,"Duration":277777,"SoundDuration":277777,"Delta":539160223},{"NoteNumber":88,"Velocity":60,"Duration":277777,"SoundDuration":277777,"Delta":539160223},{"NoteNumber":92,"Velocity":71,"Duration":277777,"SoundDuration":277777,"Delta":539160223},{"NoteNumber":32,"Velocity":43,"Duration":277777,"SoundDuration":277777,"Delta":539160223},{"NoteNumber":37,"Velocity":43,"Duration":277777,"SoundDuration":277777,"Delta":539160223},{"NoteNumber":44,"Velocity":51,"Duration":277777,"SoundDuration":277777,"Delta":539160223},{"NoteNumber":68,"Velocity":56,"Duration":217803,"SoundDuration":217803,"Delta":539438000},{"NoteNumber":64,"Velocity":56,"Duration":217803,"SoundDuration":217803,"Delta":539438000},{"NoteNumber":76,"Velocity":67,"Duration":217803,"SoundDuration":217803,"Delta":539438000},{"NoteNumber":56,"Velocity":46,"Duration":227272,"SoundDuration":227272,"Delta":539438000},{"NoteNumber":61,"Velocity":55,"Duration":227272,"SoundDuration":227272,"Delta":539438000},{"NoteNumber":66,"Velocity":56,"Duration":418604,"SoundDuration":418604,"Delta":539665273},{"NoteNumber":68,"Velocity":56,"Duration":418604,"SoundDuration":418604,"Delta":539665273},{"NoteNumber":75,"Velocity":78,"Duration":418604,"SoundDuration":418604,"Delta":539665273},{"NoteNumber":56,"Velocity":55,"Duration":465116,"SoundDuration":465116,"Delta":539665273},{"NoteNumber":60,"Velocity":65,"Duration":465116,"SoundDuration":465116,"Delta":539665273},{"NoteNumber":66,"Velocity":62,"Duration":450000,"SoundDuration":450000,"Delta":540130390},{"NoteNumber":68,"Velocity":75,"Duration":450000,"SoundDuration":450000,"Delta":540130390},{"NoteNumber":56,"Velocity":45,"Duration":450000,"SoundDuration":450000,"Delta":540130390},{"NoteNumber":63,"Velocity":64,"Duration":450000,"SoundDuration":450000,"Delta":540130390},{"NoteNumber":64,"Velocity":63,"Duration":241228,"SoundDuration":241228,"Delta":540630390},{"NoteNumber":68,"Velocity":63,"Duration":241228,"SoundDuration":241228,"Delta":540630390},{"NoteNumber":73,"Velocity":75,"Duration":241228,"SoundDuration":241228,"Delta":540630390},{"NoteNumber":56,"Velocity":45,"Duration":241228,"SoundDuration":241228,"Delta":540630390},{"NoteNumber":49,"Velocity":45,"Duration":241228,"SoundDuration":241228,"Delta":540630390},{"NoteNumber":61,"Velocity":54,"Duration":241228,"SoundDuration":241228,"Delta":540630390},{"NoteNumber":85,"Velocity":69,"Duration":491803,"SoundDuration":491803,"Delta":540893548},{"NoteNumber":80,"Velocity":58,"Duration":491803,"SoundDuration":491803,"Delta":540893548},{"NoteNumber":76,"Velocity":58,"Duration":491803,"SoundDuration":491803,"Delta":540893548},{"NoteNumber":73,"Velocity":58,"Duration":491803,"SoundDuration":491803,"Delta":540893548},{"NoteNumber":37,"Velocity":41,"Duration":491803,"SoundDuration":491803,"Delta":540893548},{"NoteNumber":40,"Velocity":41,"Duration":491803,"SoundDuration":491803,"Delta":540893548},{"NoteNumber":44,"Velocity":41,"Duration":491803,"SoundDuration":491803,"Delta":540893548},{"NoteNumber":49,"Velocity":49,"Duration":491803,"SoundDuration":491803,"Delta":540893548},{"NoteNumber":73,"Velocity":51,"Duration":245901,"SoundDuration":245901,"Delta":541385351},{"NoteNumber":76,"Velocity":51,"Duration":245901,"SoundDuration":245901,"Delta":541385351},{"NoteNumber":80,"Velocity":51,"Duration":245901,"SoundDuration":245901,"Delta":541385351},{"NoteNumber":85,"Velocity":61,"Duration":245901,"SoundDuration":245901,"Delta":541385351},{"NoteNumber":37,"Velocity":35,"Duration":245901,"SoundDuration":245901,"Delta":541385351},{"NoteNumber":40,"Velocity":35,"Duration":245901,"SoundDuration":245901,"Delta":541385351},{"NoteNumber":44,"Velocity":35,"Duration":245901,"SoundDuration":245901,"Delta":541385351},{"NoteNumber":49,"Velocity":42,"Duration":245901,"SoundDuration":245901,"Delta":541385351},{"NoteNumber":73,"Velocity":59,"Duration":491803,"SoundDuration":491803,"Delta":541631253},{"NoteNumber":76,"Velocity":59,"Duration":491803,"SoundDuration":491803,"Delta":541631253},{"NoteNumber":80,"Velocity":59,"Duration":491803,"SoundDuration":491803,"Delta":541631253},{"NoteNumber":85,"Velocity":70,"Duration":491803,"SoundDuration":491803,"Delta":541631253},{"NoteNumber":37,"Velocity":41,"Duration":491803,"SoundDuration":491803,"Delta":541631253},{"NoteNumber":40,"Velocity":41,"Duration":491803,"SoundDuration":491803,"Delta":541631253},{"NoteNumber":44,"Velocity":41,"Duration":491803,"SoundDuration":491803,"Delta":541631253},{"NoteNumber":49,"Velocity":49,"Duration":491803,"SoundDuration":491803,"Delta":541631253},{"NoteNumber":73,"Velocity":53,"Duration":277777,"SoundDuration":277777,"Delta":542123056},{"NoteNumber":76,"Velocity":53,"Duration":277777,"SoundDuration":277777,"Delta":542123056},{"NoteNumber":80,"Velocity":53,"Duration":277777,"SoundDuration":277777,"Delta":542123056},{"NoteNumber":85,"Velocity":63,"Duration":277777,"SoundDuration":277777,"Delta":542123056},{"NoteNumber":37,"Velocity":38,"Duration":277777,"SoundDuration":277777,"Delta":542123056},{"NoteNumber":40,"Velocity":38,"Duration":277777,"SoundDuration":277777,"Delta":542123056},{"NoteNumber":44,"Velocity":38,"Duration":277777,"SoundDuration":277777,"Delta":542123056},{"NoteNumber":49,"Velocity":45,"Duration":277777,"SoundDuration":277777,"Delta":542123056},{"NoteNumber":64,"Velocity":39,"Duration":217803,"SoundDuration":217803,"Delta":542400834},{"NoteNumber":61,"Velocity":39,"Duration":217803,"SoundDuration":217803,"Delta":542400834},{"NoteNumber":73,"Velocity":46,"Duration":217803,"SoundDuration":217803,"Delta":542400834},{"NoteNumber":52,"Velocity":38,"Duration":227272,"SoundDuration":227272,"Delta":542400834},{"NoteNumber":57,"Velocity":38,"Duration":227272,"SoundDuration":227272,"Delta":542400834},{"NoteNumber":62,"Velocity":39,"Duration":418604,"SoundDuration":418604,"Delta":542628107},{"NoteNumber":64,"Velocity":39,"Duration":418604,"SoundDuration":418604,"Delta":542628107},{"NoteNumber":71,"Velocity":54,"Duration":418604,"SoundDuration":418604,"Delta":542628107},{"NoteNumber":52,"Velocity":45,"Duration":465116,"SoundDuration":465116,"Delta":542628107},{"NoteNumber":56,"Velocity":38,"Duration":465116,"SoundDuration":465116,"Delta":542628107},{"NoteNumber":62,"Velocity":45,"Duration":450000,"SoundDuration":450000,"Delta":543093223},{"NoteNumber":64,"Velocity":53,"Duration":450000,"SoundDuration":450000,"Delta":543093223},{"NoteNumber":52,"Velocity":37,"Duration":450000,"SoundDuration":450000,"Delta":543093223},{"NoteNumber":59,"Velocity":44,"Duration":450000,"SoundDuration":450000,"Delta":543093223},{"NoteNumber":61,"Velocity":49,"Duration":241228,"SoundDuration":241228,"Delta":543593223},{"NoteNumber":69,"Velocity":58,"Duration":241228,"SoundDuration":241228,"Delta":543593223},{"NoteNumber":54,"Velocity":35,"Duration":241228,"SoundDuration":241228,"Delta":543593223},{"NoteNumber":57,"Velocity":42,"Duration":241228,"SoundDuration":241228,"Delta":543593223},{"NoteNumber":81,"Velocity":53,"Duration":491803,"SoundDuration":491803,"Delta":543856381},{"NoteNumber":78,"Velocity":53,"Duration":491803,"SoundDuration":491803,"Delta":543856381},{"NoteNumber":73,"Velocity":45,"Duration":491803,"SoundDuration":491803,"Delta":543856381},{"NoteNumber":69,"Velocity":45,"Duration":491803,"SoundDuration":491803,"Delta":543856381},{"NoteNumber":42,"Velocity":32,"Duration":491803,"SoundDuration":491803,"Delta":543856381},{"NoteNumber":49,"Velocity":32,"Duration":491803,"SoundDuration":491803,"Delta":543856381},{"NoteNumber":54,"Velocity":38,"Duration":491803,"SoundDuration":491803,"Delta":543856381},{"NoteNumber":69,"Velocity":39,"Duration":245901,"SoundDuration":245901,"Delta":544348185},{"NoteNumber":73,"Velocity":39,"Duration":245901,"SoundDuration":245901,"Delta":544348185},{"NoteNumber":78,"Velocity":47,"Duration":245901,"SoundDuration":245901,"Delta":544348185},{"NoteNumber":81,"Velocity":47,"Duration":245901,"SoundDuration":245901,"Delta":544348185},{"NoteNumber":42,"Velocity":27,"Duration":245901,"SoundDuration":245901,"Delta":544348185},{"NoteNumber":49,"Velocity":27,"Duration":245901,"SoundDuration":245901,"Delta":544348185},{"NoteNumber":54,"Velocity":32,"Duration":245901,"SoundDuration":245901,"Delta":544348185},{"NoteNumber":69,"Velocity":45,"Duration":491803,"SoundDuration":491803,"Delta":544594087},{"NoteNumber":73,"Velocity":45,"Duration":491803,"SoundDuration":491803,"Delta":544594087},{"NoteNumber":78,"Velocity":54,"Duration":491803,"SoundDuration":491803,"Delta":544594087},{"NoteNumber":81,"Velocity":54,"Duration":491803,"SoundDuration":491803,"Delta":544594087},{"NoteNumber":42,"Velocity":32,"Duration":491803,"SoundDuration":491803,"Delta":544594087},{"NoteNumber":49,"Velocity":32,"Duration":491803,"SoundDuration":491803,"Delta":544594087},{"NoteNumber":54,"Velocity":38,"Duration":491803,"SoundDuration":491803,"Delta":544594087},{"NoteNumber":69,"Velocity":41,"Duration":277777,"SoundDuration":277777,"Delta":545085890},{"NoteNumber":73,"Velocity":41,"Duration":277777,"SoundDuration":277777,"Delta":545085890},{"NoteNumber":78,"Velocity":49,"Duration":277777,"SoundDuration":277777,"Delta":545085890},{"NoteNumber":81,"Velocity":49,"Duration":277777,"SoundDuration":277777,"Delta":545085890},{"NoteNumber":42,"Velocity":29,"Duration":277777,"SoundDuration":277777,"Delta":545085890},{"NoteNumber":49,"Velocity":29,"Duration":277777,"SoundDuration":277777,"Delta":545085890},{"NoteNumber":54,"Velocity":35,"Duration":277777,"SoundDuration":277777,"Delta":545085890},{"NoteNumber":68,"Velocity":56,"Duration":217803,"SoundDuration":217803,"Delta":545363668},{"NoteNumber":61,"Velocity":56,"Duration":217803,"SoundDuration":217803,"Delta":545363668},{"NoteNumber":70,"Velocity":67,"Duration":217803,"SoundDuration":217803,"Delta":545363668},{"NoteNumber":40,"Velocity":46,"Duration":227272,"SoundDuration":227272,"Delta":545363668},{"NoteNumber":52,"Velocity":55,"Duration":227272,"SoundDuration":227272,"Delta":545363668},{"NoteNumber":62,"Velocity":56,"Duration":418604,"SoundDuration":418604,"Delta":545590941},{"NoteNumber":68,"Velocity":56,"Duration":418604,"SoundDuration":418604,"Delta":545590941},{"NoteNumber":71,"Velocity":80,"Duration":418604,"SoundDuration":418604,"Delta":545590941},{"NoteNumber":38,"Velocity":56,"Duration":465116,"SoundDuration":465116,"Delta":545590941},{"NoteNumber":50,"Velocity":66,"Duration":465116,"SoundDuration":465116,"Delta":545590941},{"NoteNumber":68,"Velocity":70,"Duration":450000,"SoundDuration":450000,"Delta":546056057},{"NoteNumber":64,"Velocity":70,"Duration":450000,"SoundDuration":450000,"Delta":546056057},{"NoteNumber":70,"Velocity":70,"Duration":450000,"SoundDuration":450000,"Delta":546056057},{"NoteNumber":73,"Velocity":83,"Duration":450000,"SoundDuration":450000,"Delta":546056057},{"NoteNumber":37,"Velocity":49,"Duration":450000,"SoundDuration":450000,"Delta":546056057},{"NoteNumber":49,"Velocity":69,"Duration":450000,"SoundDuration":450000,"Delta":546056057},{"NoteNumber":67,"Velocity":85,"Duration":263157,"SoundDuration":263157,"Delta":546556057},{"NoteNumber":62,"Velocity":85,"Duration":241228,"SoundDuration":241228,"Delta":546556057},{"NoteNumber":71,"Velocity":85,"Duration":241228,"SoundDuration":241228,"Delta":546556057},{"NoteNumber":74,"Velocity":100,"Duration":241228,"SoundDuration":241228,"Delta":546556057},{"NoteNumber":35,"Velocity":61,"Duration":241228,"SoundDuration":241228,"Delta":546556057},{"NoteNumber":47,"Velocity":72,"Duration":241228,"SoundDuration":241228,"Delta":546556057},{"NoteNumber":86,"Velocity":101,"Duration":480000,"SoundDuration":480000,"Delta":546819215},{"NoteNumber":83,"Velocity":85,"Duration":480000,"SoundDuration":480000,"Delta":546819215},{"NoteNumber":79,"Velocity":85,"Duration":480000,"SoundDuration":480000,"Delta":546819215},{"NoteNumber":74,"Velocity":85,"Duration":480000,"SoundDuration":480000,"Delta":546819215},{"NoteNumber":35,"Velocity":56,"Duration":480000,"SoundDuration":480000,"Delta":546819215},{"NoteNumber":43,"Velocity":56,"Duration":480000,"SoundDuration":480000,"Delta":546819215},{"NoteNumber":38,"Velocity":56,"Duration":480000,"SoundDuration":480000,"Delta":546819215},{"NoteNumber":47,"Velocity":66,"Duration":480000,"SoundDuration":480000,"Delta":546819215},{"NoteNumber":74,"Velocity":74,"Duration":240000,"SoundDuration":240000,"Delta":547299215},{"NoteNumber":79,"Velocity":74,"Duration":240000,"SoundDuration":240000,"Delta":547299215},{"NoteNumber":83,"Velocity":74,"Duration":240000,"SoundDuration":240000,"Delta":547299215},{"NoteNumber":86,"Velocity":89,"Duration":240000,"SoundDuration":240000,"Delta":547299215},{"NoteNumber":43,"Velocity":47,"Duration":240000,"SoundDuration":240000,"Delta":547299215},{"NoteNumber":38,"Velocity":47,"Duration":240000,"SoundDuration":240000,"Delta":547299215},{"NoteNumber":35,"Velocity":47,"Duration":240000,"SoundDuration":240000,"Delta":547299215},{"NoteNumber":47,"Velocity":56,"Duration":240000,"SoundDuration":240000,"Delta":547299215},{"NoteNumber":74,"Velocity":86,"Duration":480000,"SoundDuration":480000,"Delta":547539215},{"NoteNumber":79,"Velocity":86,"Duration":480000,"SoundDuration":480000,"Delta":547539215},{"NoteNumber":83,"Velocity":86,"Duration":480000,"SoundDuration":480000,"Delta":547539215},{"NoteNumber":86,"Velocity":102,"Duration":480000,"SoundDuration":480000,"Delta":547539215},{"NoteNumber":43,"Velocity":56,"Duration":480000,"SoundDuration":480000,"Delta":547539215},{"NoteNumber":38,"Velocity":56,"Duration":480000,"SoundDuration":480000,"Delta":547539215},{"NoteNumber":35,"Velocity":56,"Duration":480000,"SoundDuration":480000,"Delta":547539215},{"NoteNumber":47,"Velocity":66,"Duration":480000,"SoundDuration":480000,"Delta":547539215},{"NoteNumber":74,"Velocity":79,"Duration":747863,"SoundDuration":747863,"Delta":548019215},{"NoteNumber":79,"Velocity":79,"Duration":747863,"SoundDuration":747863,"Delta":548019215},{"NoteNumber":83,"Velocity":79,"Duration":747863,"SoundDuration":747863,"Delta":548019215},{"NoteNumber":86,"Velocity":93,"Duration":747863,"SoundDuration":747863,"Delta":548019215},{"NoteNumber":43,"Velocity":51,"Duration":747863,"SoundDuration":747863,"Delta":548019215},{"NoteNumber":35,"Velocity":51,"Duration":747863,"SoundDuration":747863,"Delta":548019215},{"NoteNumber":38,"Velocity":51,"Duration":747863,"SoundDuration":747863,"Delta":548019215},{"NoteNumber":47,"Velocity":61,"Duration":747863,"SoundDuration":747863,"Delta":548019215},{"NoteNumber":74,"Velocity":50,"Duration":476190,"SoundDuration":476190,"Delta":548788446},{"NoteNumber":66,"Velocity":42,"Duration":476190,"SoundDuration":476190,"Delta":548788446},{"NoteNumber":62,"Velocity":42,"Duration":476190,"SoundDuration":476190,"Delta":548788446},{"NoteNumber":48,"Velocity":30,"Duration":476190,"SoundDuration":476190,"Delta":548788446},{"NoteNumber":54,"Velocity":30,"Duration":476190,"SoundDuration":476190,"Delta":548788446},{"NoteNumber":50,"Velocity":30,"Duration":476190,"SoundDuration":476190,"Delta":548788446},{"NoteNumber":57,"Velocity":36,"Duration":476190,"SoundDuration":476190,"Delta":548788446},{"NoteNumber":69,"Velocity":42,"Duration":476190,"SoundDuration":476190,"Delta":548800351},{"NoteNumber":62,"Velocity":37,"Duration":238095,"SoundDuration":238095,"Delta":549264636},{"NoteNumber":66,"Velocity":37,"Duration":238095,"SoundDuration":238095,"Delta":549264636},{"NoteNumber":69,"Velocity":37,"Duration":238095,"SoundDuration":238095,"Delta":549264636},{"NoteNumber":74,"Velocity":44,"Duration":238095,"SoundDuration":238095,"Delta":549264636},{"NoteNumber":54,"Velocity":25,"Duration":238095,"SoundDuration":238095,"Delta":549264636},{"NoteNumber":50,"Velocity":25,"Duration":238095,"SoundDuration":238095,"Delta":549264636},{"NoteNumber":48,"Velocity":25,"Duration":238095,"SoundDuration":238095,"Delta":549264636},{"NoteNumber":57,"Velocity":30,"Duration":238095,"SoundDuration":238095,"Delta":549264636},{"NoteNumber":62,"Velocity":43,"Duration":476190,"SoundDuration":476190,"Delta":549502732},{"NoteNumber":66,"Velocity":43,"Duration":476190,"SoundDuration":476190,"Delta":549502732},{"NoteNumber":69,"Velocity":43,"Duration":476190,"SoundDuration":476190,"Delta":549502732},{"NoteNumber":74,"Velocity":51,"Duration":476190,"SoundDuration":476190,"Delta":549502732},{"NoteNumber":54,"Velocity":30,"Duration":476190,"SoundDuration":476190,"Delta":549502732},{"NoteNumber":50,"Velocity":30,"Duration":476190,"SoundDuration":476190,"Delta":549502732},{"NoteNumber":48,"Velocity":30,"Duration":476190,"SoundDuration":476190,"Delta":549502732},{"NoteNumber":57,"Velocity":36,"Duration":476190,"SoundDuration":476190,"Delta":549502732},{"NoteNumber":69,"Velocity":39,"Duration":711382,"SoundDuration":711382,"Delta":549978922},{"NoteNumber":62,"Velocity":39,"Duration":711382,"SoundDuration":711382,"Delta":549978922},{"NoteNumber":66,"Velocity":39,"Duration":711382,"SoundDuration":711382,"Delta":549978922},{"NoteNumber":74,"Velocity":46,"Duration":711382,"SoundDuration":711382,"Delta":549978922},{"NoteNumber":54,"Velocity":28,"Duration":711382,"SoundDuration":711382,"Delta":549978922},{"NoteNumber":48,"Velocity":28,"Duration":711382,"SoundDuration":711382,"Delta":549978922},{"NoteNumber":50,"Velocity":28,"Duration":711382,"SoundDuration":711382,"Delta":549978922},{"NoteNumber":57,"Velocity":33,"Duration":711382,"SoundDuration":711382,"Delta":549978922},{"NoteNumber":86,"Velocity":101,"Duration":480000,"SoundDuration":480000,"Delta":550710630},{"NoteNumber":83,"Velocity":85,"Duration":480000,"SoundDuration":480000,"Delta":550710630},{"NoteNumber":79,"Velocity":85,"Duration":480000,"SoundDuration":480000,"Delta":550710630},{"NoteNumber":74,"Velocity":85,"Duration":480000,"SoundDuration":480000,"Delta":550710630},{"NoteNumber":35,"Velocity":56,"Duration":480000,"SoundDuration":480000,"Delta":550710630},{"NoteNumber":43,"Velocity":56,"Duration":480000,"SoundDuration":480000,"Delta":550710630},{"NoteNumber":38,"Velocity":56,"Duration":480000,"SoundDuration":480000,"Delta":550710630},{"NoteNumber":47,"Velocity":66,"Duration":480000,"SoundDuration":480000,"Delta":550710630},{"NoteNumber":74,"Velocity":74,"Duration":240000,"SoundDuration":240000,"Delta":551190630},{"NoteNumber":79,"Velocity":74,"Duration":240000,"SoundDuration":240000,"Delta":551190630},{"NoteNumber":83,"Velocity":74,"Duration":240000,"SoundDuration":240000,"Delta":551190630},{"NoteNumber":86,"Velocity":89,"Duration":240000,"SoundDuration":240000,"Delta":551190630},{"NoteNumber":43,"Velocity":47,"Duration":240000,"SoundDuration":240000,"Delta":551190630},{"NoteNumber":38,"Velocity":47,"Duration":240000,"SoundDuration":240000,"Delta":551190630},{"NoteNumber":35,"Velocity":47,"Duration":240000,"SoundDuration":240000,"Delta":551190630},{"NoteNumber":47,"Velocity":56,"Duration":240000,"SoundDuration":240000,"Delta":551190630},{"NoteNumber":74,"Velocity":86,"Duration":480000,"SoundDuration":480000,"Delta":551430630},{"NoteNumber":79,"Velocity":86,"Duration":480000,"SoundDuration":480000,"Delta":551430630},{"NoteNumber":83,"Velocity":86,"Duration":480000,"SoundDuration":480000,"Delta":551430630},{"NoteNumber":86,"Velocity":102,"Duration":480000,"SoundDuration":480000,"Delta":551430630},{"NoteNumber":43,"Velocity":56,"Duration":480000,"SoundDuration":480000,"Delta":551430630},{"NoteNumber":38,"Velocity":56,"Duration":480000,"SoundDuration":480000,"Delta":551430630},{"NoteNumber":35,"Velocity":56,"Duration":480000,"SoundDuration":480000,"Delta":551430630},{"NoteNumber":47,"Velocity":66,"Duration":480000,"SoundDuration":480000,"Delta":551430630},{"NoteNumber":74,"Velocity":79,"Duration":747863,"SoundDuration":747863,"Delta":551910630},{"NoteNumber":79,"Velocity":79,"Duration":747863,"SoundDuration":747863,"Delta":551910630},{"NoteNumber":83,"Velocity":79,"Duration":747863,"SoundDuration":747863,"Delta":551910630},{"NoteNumber":86,"Velocity":93,"Duration":747863,"SoundDuration":747863,"Delta":551910630},{"NoteNumber":43,"Velocity":51,"Duration":747863,"SoundDuration":747863,"Delta":551910630},{"NoteNumber":35,"Velocity":51,"Duration":747863,"SoundDuration":747863,"Delta":551910630},{"NoteNumber":38,"Velocity":51,"Duration":747863,"SoundDuration":747863,"Delta":551910630},{"NoteNumber":47,"Velocity":61,"Duration":747863,"SoundDuration":747863,"Delta":551910630},{"NoteNumber":74,"Velocity":50,"Duration":476190,"SoundDuration":476190,"Delta":552679860},{"NoteNumber":66,"Velocity":42,"Duration":476190,"SoundDuration":476190,"Delta":552679860},{"NoteNumber":62,"Velocity":42,"Duration":476190,"SoundDuration":476190,"Delta":552679860},{"NoteNumber":48,"Velocity":30,"Duration":476190,"SoundDuration":476190,"Delta":552679860},{"NoteNumber":54,"Velocity":30,"Duration":476190,"SoundDuration":476190,"Delta":552679860},{"NoteNumber":50,"Velocity":30,"Duration":476190,"SoundDuration":476190,"Delta":552679860},{"NoteNumber":57,"Velocity":36,"Duration":476190,"SoundDuration":476190,"Delta":552679860},{"NoteNumber":69,"Velocity":42,"Duration":476190,"SoundDuration":476190,"Delta":552691765},{"NoteNumber":62,"Velocity":37,"Duration":238095,"SoundDuration":238095,"Delta":553156051},{"NoteNumber":66,"Velocity":37,"Duration":238095,"SoundDuration":238095,"Delta":553156051},{"NoteNumber":69,"Velocity":37,"Duration":238095,"SoundDuration":238095,"Delta":553156051},{"NoteNumber":74,"Velocity":44,"Duration":238095,"SoundDuration":238095,"Delta":553156051},{"NoteNumber":54,"Velocity":25,"Duration":238095,"SoundDuration":238095,"Delta":553156051},{"NoteNumber":50,"Velocity":25,"Duration":238095,"SoundDuration":238095,"Delta":553156051},{"NoteNumber":48,"Velocity":25,"Duration":238095,"SoundDuration":238095,"Delta":553156051},{"NoteNumber":57,"Velocity":30,"Duration":238095,"SoundDuration":238095,"Delta":553156051},{"NoteNumber":62,"Velocity":43,"Duration":476190,"SoundDuration":476190,"Delta":553394146},{"NoteNumber":66,"Velocity":43,"Duration":476190,"SoundDuration":476190,"Delta":553394146},{"NoteNumber":69,"Velocity":43,"Duration":476190,"SoundDuration":476190,"Delta":553394146},{"NoteNumber":74,"Velocity":51,"Duration":476190,"SoundDuration":476190,"Delta":553394146},{"NoteNumber":54,"Velocity":30,"Duration":476190,"SoundDuration":476190,"Delta":553394146},{"NoteNumber":50,"Velocity":30,"Duration":476190,"SoundDuration":476190,"Delta":553394146},{"NoteNumber":48,"Velocity":30,"Duration":476190,"SoundDuration":476190,"Delta":553394146},{"NoteNumber":57,"Velocity":36,"Duration":476190,"SoundDuration":476190,"Delta":553394146},{"NoteNumber":69,"Velocity":39,"Duration":711382,"SoundDuration":711382,"Delta":553870337},{"NoteNumber":62,"Velocity":39,"Duration":711382,"SoundDuration":711382,"Delta":553870337},{"NoteNumber":66,"Velocity":39,"Duration":711382,"SoundDuration":711382,"Delta":553870337},{"NoteNumber":74,"Velocity":46,"Duration":711382,"SoundDuration":711382,"Delta":553870337},{"NoteNumber":54,"Velocity":28,"Duration":711382,"SoundDuration":711382,"Delta":553870337},{"NoteNumber":48,"Velocity":28,"Duration":711382,"SoundDuration":711382,"Delta":553870337},{"NoteNumber":50,"Velocity":28,"Duration":711382,"SoundDuration":711382,"Delta":553870337},{"NoteNumber":57,"Velocity":33,"Duration":711382,"SoundDuration":711382,"Delta":553870337},{"NoteNumber":86,"Velocity":101,"Duration":456000,"SoundDuration":456000,"Delta":554602044},{"NoteNumber":83,"Velocity":72,"Duration":456000,"SoundDuration":456000,"Delta":554602044},{"NoteNumber":79,"Velocity":72,"Duration":456000,"SoundDuration":456000,"Delta":554602044},{"NoteNumber":74,"Velocity":72,"Duration":456000,"SoundDuration":456000,"Delta":554602044},{"NoteNumber":35,"Velocity":47,"Duration":456000,"SoundDuration":456000,"Delta":554602044},{"NoteNumber":43,"Velocity":47,"Duration":456000,"SoundDuration":456000,"Delta":554602044},{"NoteNumber":38,"Velocity":47,"Duration":456000,"SoundDuration":456000,"Delta":554602044},{"NoteNumber":47,"Velocity":66,"Duration":456000,"SoundDuration":456000,"Delta":554602044},{"NoteNumber":74,"Velocity":62,"Duration":227999,"SoundDuration":227999,"Delta":555082044},{"NoteNumber":79,"Velocity":62,"Duration":227999,"SoundDuration":227999,"Delta":555082044},{"NoteNumber":83,"Velocity":62,"Duration":227999,"SoundDuration":227999,"Delta":555082044},{"NoteNumber":86,"Velocity":89,"Duration":227999,"SoundDuration":227999,"Delta":555082044},{"NoteNumber":43,"Velocity":39,"Duration":227999,"SoundDuration":227999,"Delta":555082044},{"NoteNumber":38,"Velocity":39,"Duration":227999,"SoundDuration":227999,"Delta":555082044},{"NoteNumber":35,"Velocity":39,"Duration":227999,"SoundDuration":227999,"Delta":555082044},{"NoteNumber":47,"Velocity":56,"Duration":227999,"SoundDuration":227999,"Delta":555082044},{"NoteNumber":74,"Velocity":78,"Duration":194805,"SoundDuration":194805,"Delta":555322044},{"NoteNumber":79,"Velocity":78,"Duration":194805,"SoundDuration":194805,"Delta":555322044},{"NoteNumber":83,"Velocity":78,"Duration":194805,"SoundDuration":194805,"Delta":555322044},{"NoteNumber":86,"Velocity":92,"Duration":194805,"SoundDuration":194805,"Delta":555322044},{"NoteNumber":35,"Velocity":56,"Duration":194805,"SoundDuration":194805,"Delta":555322044},{"NoteNumber":38,"Velocity":56,"Duration":194805,"SoundDuration":194805,"Delta":555322044},{"NoteNumber":43,"Velocity":56,"Duration":194805,"SoundDuration":194805,"Delta":555322044},{"NoteNumber":47,"Velocity":66,"Duration":194805,"SoundDuration":194805,"Delta":555322044},{"NoteNumber":74,"Velocity":74,"Duration":180722,"SoundDuration":180722,"Delta":555711655},{"NoteNumber":79,"Velocity":74,"Duration":180722,"SoundDuration":180722,"Delta":555711655},{"NoteNumber":83,"Velocity":88,"Duration":180722,"SoundDuration":180722,"Delta":555711655},{"NoteNumber":35,"Velocity":56,"Duration":180722,"SoundDuration":180722,"Delta":555711655},{"NoteNumber":47,"Velocity":66,"Duration":180722,"SoundDuration":180722,"Delta":555711655},{"NoteNumber":71,"Velocity":72,"Duration":171428,"SoundDuration":171428,"Delta":556073101},{"NoteNumber":74,"Velocity":72,"Duration":171428,"SoundDuration":171428,"Delta":556073101},{"NoteNumber":79,"Velocity":85,"Duration":171428,"SoundDuration":171428,"Delta":556073101},{"NoteNumber":35,"Velocity":54,"Duration":171428,"SoundDuration":171428,"Delta":556073101},{"NoteNumber":47,"Velocity":64,"Duration":171428,"SoundDuration":171428,"Delta":556073101},{"NoteNumber":67,"Velocity":69,"Duration":168539,"SoundDuration":168539,"Delta":556415958},{"NoteNumber":71,"Velocity":69,"Duration":168539,"SoundDuration":168539,"Delta":556415958},{"NoteNumber":74,"Velocity":82,"Duration":168539,"SoundDuration":168539,"Delta":556415958},{"NoteNumber":35,"Velocity":52,"Duration":168539,"SoundDuration":168539,"Delta":556415958},{"NoteNumber":47,"Velocity":62,"Duration":168539,"SoundDuration":168539,"Delta":556415958},{"NoteNumber":62,"Velocity":67,"Duration":162162,"SoundDuration":162162,"Delta":556753036},{"NoteNumber":67,"Velocity":67,"Duration":162162,"SoundDuration":162162,"Delta":556753036},{"NoteNumber":71,"Velocity":79,"Duration":162162,"SoundDuration":162162,"Delta":556753036},{"NoteNumber":35,"Velocity":51,"Duration":162162,"SoundDuration":162162,"Delta":556753036},{"NoteNumber":47,"Velocity":60,"Duration":162162,"SoundDuration":162162,"Delta":556753036},{"NoteNumber":59,"Velocity":64,"Duration":270270,"SoundDuration":270270,"Delta":557077361},{"NoteNumber":62,"Velocity":64,"Duration":270270,"SoundDuration":270270,"Delta":557077361},{"NoteNumber":67,"Velocity":76,"Duration":270270,"SoundDuration":270270,"Delta":557077361},{"NoteNumber":35,"Velocity":49,"Duration":270270,"SoundDuration":270270,"Delta":557077361},{"NoteNumber":47,"Velocity":58,"Duration":270270,"SoundDuration":270270,"Delta":557077361},{"NoteNumber":55,"Velocity":80,"Duration":2142858,"SoundDuration":2142858,"Delta":557617901},{"NoteNumber":62,"Velocity":80,"Duration":2142858,"SoundDuration":2142858,"Delta":557617901},{"NoteNumber":65,"Velocity":95,"Duration":2142858,"SoundDuration":2142858,"Delta":557617901},{"NoteNumber":35,"Velocity":60,"Duration":2142858,"SoundDuration":2142858,"Delta":557617901},{"NoteNumber":47,"Velocity":71,"Duration":2142858,"SoundDuration":2142858,"Delta":557617901},{"NoteNumber":55,"Velocity":75,"Duration":2142857,"SoundDuration":2142857,"Delta":559760759},{"NoteNumber":62,"Velocity":75,"Duration":2142857,"SoundDuration":2142857,"Delta":559760759},{"NoteNumber":65,"Velocity":89,"Duration":2142857,"SoundDuration":2142857,"Delta":559760759},{"NoteNumber":35,"Velocity":56,"Duration":2142857,"SoundDuration":2142857,"Delta":559760759},{"NoteNumber":47,"Velocity":66,"Duration":2142857,"SoundDuration":2142857,"Delta":559760759},{"NoteNumber":56,"Velocity":39,"Duration":1589403,"SoundDuration":1589403,"Delta":561903617},{"NoteNumber":62,"Velocity":47,"Duration":1589403,"SoundDuration":1589403,"Delta":561903617},{"NoteNumber":64,"Velocity":47,"Duration":1283112,"SoundDuration":1283112,"Delta":561903617},{"NoteNumber":47,"Velocity":33,"Duration":2404926,"SoundDuration":2404926,"Delta":561903617},{"NoteNumber":50,"Velocity":33,"Duration":2404926,"SoundDuration":2404926,"Delta":561903617},{"NoteNumber":52,"Velocity":39,"Duration":2404926,"SoundDuration":2404926,"Delta":561903617},{"NoteNumber":64,"Velocity":42,"Duration":99337,"SoundDuration":99337,"Delta":563195008},{"NoteNumber":66,"Velocity":42,"Duration":99337,"SoundDuration":99337,"Delta":563294346},{"NoteNumber":68,"Velocity":42,"Duration":99337,"SoundDuration":99337,"Delta":563393683},{"NoteNumber":66,"Velocity":49,"Duration":569620,"SoundDuration":569620,"Delta":563493021},{"NoteNumber":64,"Velocity":48,"Duration":225409,"SoundDuration":225409,"Delta":564062642},{"NoteNumber":56,"Velocity":39,"Duration":1538461,"SoundDuration":1538461,"Delta":564308543},{"NoteNumber":62,"Velocity":47,"Duration":1538461,"SoundDuration":1538461,"Delta":564308543},{"NoteNumber":64,"Velocity":47,"Duration":1241987,"SoundDuration":1241987,"Delta":564308543},{"NoteNumber":47,"Velocity":33,"Duration":2339057,"SoundDuration":2339057,"Delta":564308543},{"NoteNumber":50,"Velocity":33,"Duration":2339057,"SoundDuration":2339057,"Delta":564308543},{"NoteNumber":52,"Velocity":39,"Duration":2339057,"SoundDuration":2339057,"Delta":564308543},{"NoteNumber":64,"Velocity":42,"Duration":96153,"SoundDuration":96153,"Delta":565558544},{"NoteNumber":66,"Velocity":42,"Duration":96153,"SoundDuration":96153,"Delta":565654698},{"NoteNumber":68,"Velocity":42,"Duration":96153,"SoundDuration":96153,"Delta":565750852},{"NoteNumber":66,"Velocity":49,"Duration":562500,"SoundDuration":562500,"Delta":565847005},{"NoteNumber":64,"Velocity":42,"Duration":218253,"SoundDuration":218253,"Delta":566409505},{"NoteNumber":61,"Velocity":40,"Duration":476941,"SoundDuration":476941,"Delta":566647601},{"NoteNumber":64,"Velocity":48,"Duration":229007,"SoundDuration":229007,"Delta":566647601},{"NoteNumber":49,"Velocity":36,"Duration":476941,"SoundDuration":476941,"Delta":566647601},{"NoteNumber":52,"Velocity":36,"Duration":476941,"SoundDuration":476941,"Delta":566647601},{"NoteNumber":57,"Velocity":43,"Duration":476941,"SoundDuration":476941,"Delta":566647601},{"NoteNumber":69,"Velocity":42,"Duration":247933,"SoundDuration":247933,"Delta":566876608},{"NoteNumber":63,"Velocity":40,"Duration":474909,"SoundDuration":474909,"Delta":567124542},{"NoteNumber":68,"Velocity":48,"Duration":229007,"SoundDuration":229007,"Delta":567124542},{"NoteNumber":57,"Velocity":30,"Duration":474909,"SoundDuration":474909,"Delta":567124542},{"NoteNumber":59,"Velocity":36,"Duration":474909,"SoundDuration":474909,"Delta":567124542},{"NoteNumber":54,"Velocity":30,"Duration":474909,"SoundDuration":474909,"Delta":567124542},{"NoteNumber":69,"Velocity":43,"Duration":245901,"SoundDuration":245901,"Delta":567353550},{"NoteNumber":64,"Velocity":40,"Duration":923077,"SoundDuration":923077,"Delta":567599452},{"NoteNumber":69,"Velocity":40,"Duration":923077,"SoundDuration":923077,"Delta":567599452},{"NoteNumber":73,"Velocity":48,"Duration":923077,"SoundDuration":923077,"Delta":567599452},{"NoteNumber":61,"Velocity":43,"Duration":923077,"SoundDuration":923077,"Delta":567599452},{"NoteNumber":52,"Velocity":36,"Duration":923077,"SoundDuration":923077,"Delta":567599452},{"NoteNumber":57,"Velocity":36,"Duration":923077,"SoundDuration":923077,"Delta":567599452},{"NoteNumber":62,"Velocity":38,"Duration":980769,"SoundDuration":980769,"Delta":568522529},{"NoteNumber":64,"Velocity":38,"Duration":980769,"SoundDuration":980769,"Delta":568522529},{"NoteNumber":68,"Velocity":38,"Duration":980769,"SoundDuration":980769,"Delta":568522529},{"NoteNumber":73,"Velocity":45,"Duration":692307,"SoundDuration":692307,"Delta":568522529},{"NoteNumber":40,"Velocity":34,"Duration":980769,"SoundDuration":980769,"Delta":568522529},{"NoteNumber":52,"Velocity":41,"Duration":980769,"SoundDuration":980769,"Delta":568522529},{"NoteNumber":71,"Velocity":41,"Duration":288461,"SoundDuration":288461,"Delta":569214837},{"NoteNumber":61,"Velocity":31,"Duration":270270,"SoundDuration":270270,"Delta":569503298},{"NoteNumber":64,"Velocity":31,"Duration":270270,"SoundDuration":270270,"Delta":569503298},{"NoteNumber":69,"Velocity":37,"Duration":270270,"SoundDuration":270270,"Delta":569503298},{"NoteNumber":45,"Velocity":28,"Duration":270270,"SoundDuration":270270,"Delta":569503298},{"NoteNumber":52,"Velocity":33,"Duration":270270,"SoundDuration":270270,"Delta":569503298},{"NoteNumber":57,"Velocity":34,"Duration":395270,"SoundDuration":395270,"Delta":569773568},{"NoteNumber":61,"Velocity":34,"Duration":395270,"SoundDuration":395270,"Delta":569773568},{"NoteNumber":64,"Velocity":34,"Duration":395270,"SoundDuration":395270,"Delta":569773568},{"NoteNumber":69,"Velocity":41,"Duration":395270,"SoundDuration":395270,"Delta":569773568},{"NoteNumber":57,"Velocity":27,"Duration":187500,"SoundDuration":187500,"Delta":570293839},{"NoteNumber":61,"Velocity":27,"Duration":187500,"SoundDuration":187500,"Delta":570293839},{"NoteNumber":64,"Velocity":27,"Duration":187500,"SoundDuration":187500,"Delta":570293839},{"NoteNumber":69,"Velocity":32,"Duration":187500,"SoundDuration":187500,"Delta":570293839},{"NoteNumber":57,"Velocity":29,"Duration":375000,"SoundDuration":375000,"Delta":570543839},{"NoteNumber":61,"Velocity":29,"Duration":375000,"SoundDuration":375000,"Delta":570543839},{"NoteNumber":64,"Velocity":29,"Duration":375000,"SoundDuration":375000,"Delta":570543839},{"NoteNumber":69,"Velocity":35,"Duration":375000,"SoundDuration":375000,"Delta":570543839},{"NoteNumber":57,"Velocity":27,"Duration":391304,"SoundDuration":391304,"Delta":571043839},{"NoteNumber":61,"Velocity":27,"Duration":391304,"SoundDuration":391304,"Delta":571043839},{"NoteNumber":64,"Velocity":27,"Duration":391304,"SoundDuration":391304,"Delta":571043839},{"NoteNumber":69,"Velocity":32,"Duration":391304,"SoundDuration":391304,"Delta":571043839},{"NoteNumber":45,"Velocity":36,"Duration":469565,"SoundDuration":469565,"Delta":571043839},{"NoteNumber":47,"Velocity":44,"Duration":469565,"SoundDuration":469565,"Delta":571565578},{"NoteNumber":44,"Velocity":40,"Duration":469565,"SoundDuration":469565,"Delta":572087317},{"NoteNumber":45,"Velocity":48,"Duration":1540540,"SoundDuration":1540540,"Delta":572609056},{"NoteNumber":57,"Velocity":34,"Duration":395270,"SoundDuration":395270,"Delta":572879326},{"NoteNumber":61,"Velocity":34,"Duration":395270,"SoundDuration":395270,"Delta":572879326},{"NoteNumber":67,"Velocity":34,"Duration":395270,"SoundDuration":395270,"Delta":572879326},{"NoteNumber":69,"Velocity":41,"Duration":395270,"SoundDuration":395270,"Delta":572879326},{"NoteNumber":57,"Velocity":27,"Duration":187500,"SoundDuration":187500,"Delta":573399596},{"NoteNumber":61,"Velocity":27,"Duration":187500,"SoundDuration":187500,"Delta":573399596},{"NoteNumber":67,"Velocity":27,"Duration":187500,"SoundDuration":187500,"Delta":573399596},{"NoteNumber":69,"Velocity":32,"Duration":187500,"SoundDuration":187500,"Delta":573399596},{"NoteNumber":57,"Velocity":29,"Duration":375000,"SoundDuration":375000,"Delta":573649596},{"NoteNumber":61,"Velocity":29,"Duration":375000,"SoundDuration":375000,"Delta":573649596},{"NoteNumber":67,"Velocity":29,"Duration":375000,"SoundDuration":375000,"Delta":573649596},{"NoteNumber":69,"Velocity":35,"Duration":375000,"SoundDuration":375000,"Delta":573649596},{"NoteNumber":57,"Velocity":27,"Duration":391304,"SoundDuration":391304,"Delta":574149596},{"NoteNumber":61,"Velocity":27,"Duration":391304,"SoundDuration":391304,"Delta":574149596},{"NoteNumber":67,"Velocity":27,"Duration":391304,"SoundDuration":391304,"Delta":574149596},{"NoteNumber":69,"Velocity":32,"Duration":391304,"SoundDuration":391304,"Delta":574149596},{"NoteNumber":55,"Velocity":39,"Duration":469565,"SoundDuration":469565,"Delta":574149596},{"NoteNumber":52,"Velocity":48,"Duration":469565,"SoundDuration":469565,"Delta":574671335},{"NoteNumber":49,"Velocity":44,"Duration":469565,"SoundDuration":469565,"Delta":575193074},{"NoteNumber":45,"Velocity":48,"Duration":1540540,"SoundDuration":1540540,"Delta":575714813},{"NoteNumber":57,"Velocity":34,"Duration":395270,"SoundDuration":395270,"Delta":575985083},{"NoteNumber":62,"Velocity":34,"Duration":395270,"SoundDuration":395270,"Delta":575985083},{"NoteNumber":66,"Velocity":34,"Duration":395270,"SoundDuration":395270,"Delta":575985083},{"NoteNumber":69,"Velocity":41,"Duration":395270,"SoundDuration":395270,"Delta":575985083},{"NoteNumber":57,"Velocity":27,"Duration":187500,"SoundDuration":187500,"Delta":576505354},{"NoteNumber":62,"Velocity":27,"Duration":187500,"SoundDuration":187500,"Delta":576505354},{"NoteNumber":66,"Velocity":27,"Duration":187500,"SoundDuration":187500,"Delta":576505354},{"NoteNumber":69,"Velocity":32,"Duration":187500,"SoundDuration":187500,"Delta":576505354},{"NoteNumber":57,"Velocity":29,"Duration":375000,"SoundDuration":375000,"Delta":576755354},{"NoteNumber":62,"Velocity":29,"Duration":375000,"SoundDuration":375000,"Delta":576755354},{"NoteNumber":66,"Velocity":29,"Duration":375000,"SoundDuration":375000,"Delta":576755354},{"NoteNumber":69,"Velocity":35,"Duration":375000,"SoundDuration":375000,"Delta":576755354},{"NoteNumber":57,"Velocity":27,"Duration":391304,"SoundDuration":391304,"Delta":577255354},{"NoteNumber":62,"Velocity":27,"Duration":391304,"SoundDuration":391304,"Delta":577255354},{"NoteNumber":66,"Velocity":27,"Duration":391304,"SoundDuration":391304,"Delta":577255354},{"NoteNumber":69,"Velocity":32,"Duration":391304,"SoundDuration":391304,"Delta":577255354},{"NoteNumber":45,"Velocity":36,"Duration":469565,"SoundDuration":469565,"Delta":577255354},{"NoteNumber":47,"Velocity":44,"Duration":469565,"SoundDuration":469565,"Delta":577777093},{"NoteNumber":44,"Velocity":40,"Duration":469565,"SoundDuration":469565,"Delta":578298832},{"NoteNumber":45,"Velocity":44,"Duration":1540540,"SoundDuration":1540540,"Delta":578820571},{"NoteNumber":57,"Velocity":34,"Duration":395270,"SoundDuration":395270,"Delta":579090841},{"NoteNumber":62,"Velocity":34,"Duration":395270,"SoundDuration":395270,"Delta":579090841},{"NoteNumber":65,"Velocity":34,"Duration":395270,"SoundDuration":395270,"Delta":579090841},{"NoteNumber":68,"Velocity":41,"Duration":395270,"SoundDuration":395270,"Delta":579090841},{"NoteNumber":57,"Velocity":27,"Duration":187500,"SoundDuration":187500,"Delta":579611111},{"NoteNumber":62,"Velocity":27,"Duration":187500,"SoundDuration":187500,"Delta":579611111},{"NoteNumber":65,"Velocity":27,"Duration":187500,"SoundDuration":187500,"Delta":579611111},{"NoteNumber":68,"Velocity":32,"Duration":187500,"SoundDuration":187500,"Delta":579611111},{"NoteNumber":57,"Velocity":29,"Duration":375000,"SoundDuration":375000,"Delta":579861111},{"NoteNumber":62,"Velocity":29,"Duration":375000,"SoundDuration":375000,"Delta":579861111},{"NoteNumber":65,"Velocity":29,"Duration":375000,"SoundDuration":375000,"Delta":579861111},{"NoteNumber":68,"Velocity":35,"Duration":375000,"SoundDuration":375000,"Delta":579861111},{"NoteNumber":57,"Velocity":27,"Duration":391304,"SoundDuration":391304,"Delta":580361111},{"NoteNumber":62,"Velocity":27,"Duration":391304,"SoundDuration":391304,"Delta":580361111},{"NoteNumber":65,"Velocity":27,"Duration":391304,"SoundDuration":391304,"Delta":580361111},{"NoteNumber":68,"Velocity":32,"Duration":391304,"SoundDuration":391304,"Delta":580361111},{"NoteNumber":53,"Velocity":39,"Duration":469565,"SoundDuration":469565,"Delta":580361111},{"NoteNumber":50,"Velocity":45,"Duration":782608,"SoundDuration":782608,"Delta":580882850},{"NoteNumber":47,"Velocity":37,"Duration":260869,"SoundDuration":260869,"Delta":581665459},{"NoteNumber":45,"Velocity":42,"Duration":1540540,"SoundDuration":1540540,"Delta":581926328},{"NoteNumber":57,"Velocity":30,"Duration":395270,"SoundDuration":395270,"Delta":582196598},{"NoteNumber":61,"Velocity":30,"Duration":395270,"SoundDuration":395270,"Delta":582196598},{"NoteNumber":64,"Velocity":30,"Duration":395270,"SoundDuration":395270,"Delta":582196598},{"NoteNumber":69,"Velocity":36,"Duration":395270,"SoundDuration":395270,"Delta":582196598},{"NoteNumber":57,"Velocity":23,"Duration":187500,"SoundDuration":187500,"Delta":582716869},{"NoteNumber":61,"Velocity":23,"Duration":187500,"SoundDuration":187500,"Delta":582716869},{"NoteNumber":64,"Velocity":23,"Duration":187500,"SoundDuration":187500,"Delta":582716869},{"NoteNumber":69,"Velocity":27,"Duration":187500,"SoundDuration":187500,"Delta":582716869},{"NoteNumber":57,"Velocity":25,"Duration":375000,"SoundDuration":375000,"Delta":582966869},{"NoteNumber":61,"Velocity":25,"Duration":375000,"SoundDuration":375000,"Delta":582966869},{"NoteNumber":64,"Velocity":25,"Duration":375000,"SoundDuration":375000,"Delta":582966869},{"NoteNumber":69,"Velocity":30,"Duration":375000,"SoundDuration":375000,"Delta":582966869},{"NoteNumber":57,"Velocity":23,"Duration":391304,"SoundDuration":391304,"Delta":583466869},{"NoteNumber":61,"Velocity":23,"Duration":391304,"SoundDuration":391304,"Delta":583466869},{"NoteNumber":64,"Velocity":23,"Duration":391304,"SoundDuration":391304,"Delta":583466869},{"NoteNumber":69,"Velocity":27,"Duration":391304,"SoundDuration":391304,"Delta":583466869},{"NoteNumber":33,"Velocity":31,"Duration":469565,"SoundDuration":469565,"Delta":583466869},{"NoteNumber":35,"Velocity":37,"Duration":469565,"SoundDuration":469565,"Delta":583988608},{"NoteNumber":32,"Velocity":34,"Duration":469565,"SoundDuration":469565,"Delta":584510347},{"NoteNumber":33,"Velocity":37,"Duration":1540540,"SoundDuration":1540540,"Delta":585032086},{"NoteNumber":58,"Velocity":23,"Duration":395270,"SoundDuration":395270,"Delta":585302356},{"NoteNumber":61,"Velocity":23,"Duration":395270,"SoundDuration":395270,"Delta":585302356},{"NoteNumber":64,"Velocity":28,"Duration":395270,"SoundDuration":395270,"Delta":585302356},{"NoteNumber":67,"Velocity":34,"Duration":395270,"SoundDuration":395270,"Delta":585302356},{"NoteNumber":58,"Velocity":18,"Duration":187500,"SoundDuration":187500,"Delta":585822626},{"NoteNumber":61,"Velocity":18,"Duration":187500,"SoundDuration":187500,"Delta":585822626},{"NoteNumber":64,"Velocity":22,"Duration":187500,"SoundDuration":187500,"Delta":585822626},{"NoteNumber":67,"Velocity":26,"Duration":187500,"SoundDuration":187500,"Delta":585822626},{"NoteNumber":58,"Velocity":20,"Duration":375000,"SoundDuration":375000,"Delta":586072626},{"NoteNumber":61,"Velocity":20,"Duration":375000,"SoundDuration":375000,"Delta":586072626},{"NoteNumber":64,"Velocity":24,"Duration":375000,"SoundDuration":375000,"Delta":586072626},{"NoteNumber":67,"Velocity":29,"Duration":375000,"SoundDuration":375000,"Delta":586072626},{"NoteNumber":58,"Velocity":18,"Duration":391304,"SoundDuration":391304,"Delta":586572626},{"NoteNumber":61,"Velocity":18,"Duration":391304,"SoundDuration":391304,"Delta":586572626},{"NoteNumber":64,"Velocity":22,"Duration":391304,"SoundDuration":391304,"Delta":586572626},{"NoteNumber":67,"Velocity":26,"Duration":391304,"SoundDuration":391304,"Delta":586572626},{"NoteNumber":37,"Velocity":36,"Duration":391304,"SoundDuration":391304,"Delta":586572626},{"NoteNumber":40,"Velocity":28,"Duration":130434,"SoundDuration":130434,"Delta":586963930},{"NoteNumber":43,"Velocity":40,"Duration":469565,"SoundDuration":469565,"Delta":587094365},{"NoteNumber":46,"Velocity":32,"Duration":469565,"SoundDuration":469565,"Delta":587616104},{"NoteNumber":33,"Velocity":35,"Duration":1540540,"SoundDuration":1540540,"Delta":588137843},{"NoteNumber":57,"Velocity":22,"Duration":395270,"SoundDuration":395270,"Delta":588408113},{"NoteNumber":62,"Velocity":27,"Duration":395270,"SoundDuration":395270,"Delta":588408113},{"NoteNumber":66,"Velocity":32,"Duration":395270,"SoundDuration":395270,"Delta":588408113},{"NoteNumber":57,"Velocity":17,"Duration":187500,"SoundDuration":187500,"Delta":588928384},{"NoteNumber":62,"Velocity":21,"Duration":187500,"SoundDuration":187500,"Delta":588928384},{"NoteNumber":66,"Velocity":24,"Duration":187500,"SoundDuration":187500,"Delta":588928384},{"NoteNumber":57,"Velocity":19,"Duration":375000,"SoundDuration":375000,"Delta":589178384},{"NoteNumber":62,"Velocity":23,"Duration":375000,"SoundDuration":375000,"Delta":589178384},{"NoteNumber":66,"Velocity":27,"Duration":375000,"SoundDuration":375000,"Delta":589178384},{"NoteNumber":57,"Velocity":17,"Duration":391304,"SoundDuration":391304,"Delta":589678384},{"NoteNumber":62,"Velocity":21,"Duration":391304,"SoundDuration":391304,"Delta":589678384},{"NoteNumber":66,"Velocity":24,"Duration":391304,"SoundDuration":391304,"Delta":589678384},{"NoteNumber":33,"Velocity":28,"Duration":469565,"SoundDuration":469565,"Delta":589678384},{"NoteNumber":35,"Velocity":33,"Duration":482143,"SoundDuration":482143,"Delta":590200123},{"NoteNumber":32,"Velocity":30,"Duration":482143,"SoundDuration":482143,"Delta":590735837},{"NoteNumber":33,"Velocity":33,"Duration":1669316,"SoundDuration":1669316,"Delta":591271552},{"NoteNumber":56,"Velocity":25,"Duration":429252,"SoundDuration":429252,"Delta":591565669},{"NoteNumber":59,"Velocity":25,"Duration":429252,"SoundDuration":429252,"Delta":591565669},{"NoteNumber":62,"Velocity":25,"Duration":429252,"SoundDuration":429252,"Delta":591565669},{"NoteNumber":65,"Velocity":30,"Duration":429252,"SoundDuration":429252,"Delta":591565669},{"NoteNumber":56,"Velocity":20,"Duration":202702,"SoundDuration":202702,"Delta":592130057},{"NoteNumber":59,"Velocity":20,"Duration":202702,"SoundDuration":202702,"Delta":592130057},{"NoteNumber":62,"Velocity":20,"Duration":202702,"SoundDuration":202702,"Delta":592130057},{"NoteNumber":65,"Velocity":23,"Duration":202702,"SoundDuration":202702,"Delta":592130057},{"NoteNumber":56,"Velocity":21,"Duration":405405,"SoundDuration":405405,"Delta":592400328},{"NoteNumber":59,"Velocity":21,"Duration":405405,"SoundDuration":405405,"Delta":592400328},{"NoteNumber":62,"Velocity":21,"Duration":405405,"SoundDuration":405405,"Delta":592400328},{"NoteNumber":65,"Velocity":26,"Duration":405405,"SoundDuration":405405,"Delta":592400328},{"NoteNumber":56,"Velocity":19,"Duration":428571,"SoundDuration":428571,"Delta":592940868},{"NoteNumber":59,"Velocity":19,"Duration":428571,"SoundDuration":428571,"Delta":592940868},{"NoteNumber":62,"Velocity":19,"Duration":428571,"SoundDuration":428571,"Delta":592940868},{"NoteNumber":65,"Velocity":23,"Duration":428571,"SoundDuration":428571,"Delta":592940868},{"NoteNumber":41,"Velocity":32,"Duration":428571,"SoundDuration":428571,"Delta":592940868},{"NoteNumber":40,"Velocity":27,"Duration":142834,"SoundDuration":142834,"Delta":593369440},{"NoteNumber":38,"Velocity":31,"Duration":68378,"SoundDuration":68378,"Delta":593479650},{"NoteNumber":40,"Velocity":24,"Duration":67833,"SoundDuration":67833,"Delta":593548028},{"NoteNumber":38,"Velocity":31,"Duration":68788,"SoundDuration":68788,"Delta":593615862},{"NoteNumber":40,"Velocity":25,"Duration":69790,"SoundDuration":69790,"Delta":593684650},{"NoteNumber":38,"Velocity":31,"Duration":94633,"SoundDuration":94633,"Delta":593754441},{"NoteNumber":40,"Velocity":26,"Duration":9616,"SoundDuration":9616,"Delta":593849074},{"NoteNumber":38,"Velocity":31,"Duration":101010,"SoundDuration":101010,"Delta":593946069},{"NoteNumber":37,"Velocity":25,"Duration":503922,"SoundDuration":503922,"Delta":594082433},{"NoteNumber":35,"Velocity":23,"Duration":194805,"SoundDuration":194805,"Delta":594586356},{"NoteNumber":33,"Velocity":33,"Duration":1206580,"SoundDuration":1206580,"Delta":594781161},{"NoteNumber":52,"Velocity":22,"Duration":452686,"SoundDuration":452686,"Delta":595114494},{"NoteNumber":57,"Velocity":22,"Duration":452686,"SoundDuration":452686,"Delta":595114494},{"NoteNumber":61,"Velocity":22,"Duration":452686,"SoundDuration":452686,"Delta":595114494},{"NoteNumber":64,"Velocity":27,"Duration":452686,"SoundDuration":452686,"Delta":595114494},{"NoteNumber":52,"Velocity":17,"Duration":210280,"SoundDuration":210280,"Delta":595707368},{"NoteNumber":57,"Velocity":17,"Duration":210280,"SoundDuration":210280,"Delta":595707368},{"NoteNumber":61,"Velocity":17,"Duration":210280,"SoundDuration":210280,"Delta":595707368},{"NoteNumber":64,"Velocity":19,"Duration":210280,"SoundDuration":210280,"Delta":595707368},{"NoteNumber":52,"Velocity":20,"Duration":420560,"SoundDuration":420560,"Delta":595987742},{"NoteNumber":57,"Velocity":20,"Duration":420560,"SoundDuration":420560,"Delta":595987742},{"NoteNumber":61,"Velocity":20,"Duration":420560,"SoundDuration":420560,"Delta":595987742},{"NoteNumber":64,"Velocity":24,"Duration":420560,"SoundDuration":420560,"Delta":595987742},{"NoteNumber":37,"Velocity":31,"Duration":1166807,"SoundDuration":1166807,"Delta":595987742},{"NoteNumber":52,"Velocity":18,"Duration":454545,"SoundDuration":454545,"Delta":596548489},{"NoteNumber":57,"Velocity":18,"Duration":454545,"SoundDuration":454545,"Delta":596548489},{"NoteNumber":61,"Velocity":18,"Duration":454545,"SoundDuration":454545,"Delta":596548489},{"NoteNumber":64,"Velocity":21,"Duration":454545,"SoundDuration":454545,"Delta":596548489},{"NoteNumber":52,"Velocity":19,"Duration":483871,"SoundDuration":483871,"Delta":597154550},{"NoteNumber":57,"Velocity":19,"Duration":483871,"SoundDuration":483871,"Delta":597154550},{"NoteNumber":61,"Velocity":23,"Duration":483871,"SoundDuration":483871,"Delta":597154550},{"NoteNumber":40,"Velocity":29,"Duration":1527514,"SoundDuration":1527514,"Delta":597154550},{"NoteNumber":52,"Velocity":17,"Duration":661764,"SoundDuration":661764,"Delta":597799711},{"NoteNumber":57,"Velocity":17,"Duration":661764,"SoundDuration":661764,"Delta":597799711},{"NoteNumber":61,"Velocity":20,"Duration":661764,"SoundDuration":661764,"Delta":597799711},{"NoteNumber":49,"Velocity":16,"Duration":5294118,"SoundDuration":5294118,"Delta":598682064},{"NoteNumber":52,"Velocity":16,"Duration":5294118,"SoundDuration":5294118,"Delta":598682064},{"NoteNumber":57,"Velocity":19,"Duration":5294118,"SoundDuration":5294118,"Delta":598682064},{"NoteNumber":33,"Velocity":18,"Duration":5294118,"SoundDuration":5294118,"Delta":598682064},{"NoteNumber":37,"Velocity":18,"Duration":5294118,"SoundDuration":5294118,"Delta":598682064},{"NoteNumber":40,"Velocity":18,"Duration":5294118,"SoundDuration":5294118,"Delta":598682064},{"NoteNumber":45,"Velocity":21,"Duration":5294118,"SoundDuration":5294118,"Delta":598682064}]}