{"title":"Sonate Les adieux 1. Satz","artist":"Piano","durationMs":341950,"midiSha256":"866da2766d04f478a59250d90707352c47dea8376e4b6c1bdff2aae7c4b3b732","midiObject":[{"NoteNumber":67,"Velocity":40,"Duration":1677383,"SoundDuration":1677383,"Delta":0},{"NoteNumber":63,"Velocity":34,"Duration":1677383,"SoundDuration":1677383,"Delta":0},{"NoteNumber":65,"Velocity":39,"Duration":1841620,"SoundDuration":1841620,"Delta":1677383},{"NoteNumber":58,"Velocity":33,"Duration":1841620,"SoundDuration":1841620,"Delta":1677383},{"NoteNumber":55,"Velocity":33,"Duration":2484814,"SoundDuration":2484814,"Delta":3519004},{"NoteNumber":63,"Velocity":39,"Duration":2484814,"SoundDuration":2484814,"Delta":3519004},{"NoteNumber":36,"Velocity":27,"Duration":2484814,"SoundDuration":2484814,"Delta":3519004},{"NoteNumber":48,"Velocity":32,"Duration":2484814,"SoundDuration":2484814,"Delta":3519004},{"NoteNumber":63,"Velocity":44,"Duration":621203,"SoundDuration":621203,"Delta":6003818},{"NoteNumber":48,"Velocity":27,"Duration":828271,"SoundDuration":828271,"Delta":6003818},{"NoteNumber":51,"Velocity":32,"Duration":828271,"SoundDuration":828271,"Delta":6003818},{"NoteNumber":68,"Velocity":37,"Duration":207067,"SoundDuration":207067,"Delta":6625022},{"NoteNumber":67,"Velocity":44,"Duration":828271,"SoundDuration":828271,"Delta":6832089},{"NoteNumber":46,"Velocity":28,"Duration":821369,"SoundDuration":821369,"Delta":6832089},{"NoteNumber":52,"Velocity":33,"Duration":821369,"SoundDuration":821369,"Delta":6832089},{"NoteNumber":67,"Velocity":46,"Duration":621203,"SoundDuration":621203,"Delta":7660361},{"NoteNumber":46,"Velocity":28,"Duration":821369,"SoundDuration":821369,"Delta":7660361},{"NoteNumber":52,"Velocity":34,"Duration":821369,"SoundDuration":821369,"Delta":7660361},{"NoteNumber":73,"Velocity":44,"Duration":207067,"SoundDuration":207067,"Delta":8281565},{"NoteNumber":72,"Velocity":50,"Duration":828271,"SoundDuration":828271,"Delta":8488632},{"NoteNumber":45,"Velocity":30,"Duration":828271,"SoundDuration":828271,"Delta":8488632},{"NoteNumber":53,"Velocity":36,"Duration":828271,"SoundDuration":828271,"Delta":8488632},{"NoteNumber":72,"Velocity":55,"Duration":186011,"SoundDuration":186011,"Delta":9316904},{"NoteNumber":54,"Velocity":38,"Duration":770432,"SoundDuration":770432,"Delta":9316904},{"NoteNumber":44,"Velocity":32,"Duration":770432,"SoundDuration":770432,"Delta":9316904},{"NoteNumber":74,"Velocity":48,"Duration":64935,"SoundDuration":64935,"Delta":9502916},{"NoteNumber":72,"Velocity":48,"Duration":64935,"SoundDuration":64935,"Delta":9567851},{"NoteNumber":71,"Velocity":48,"Duration":64935,"SoundDuration":64935,"Delta":9632786},{"NoteNumber":72,"Velocity":55,"Duration":179942,"SoundDuration":179942,"Delta":9697721},{"NoteNumber":74,"Velocity":48,"Duration":209672,"SoundDuration":209672,"Delta":9877664},{"NoteNumber":75,"Velocity":58,"Duration":1297788,"SoundDuration":1297788,"Delta":10087336},{"NoteNumber":63,"Velocity":44,"Duration":883652,"SoundDuration":883652,"Delta":10087336},{"NoteNumber":55,"Velocity":40,"Duration":883652,"SoundDuration":883652,"Delta":10087336},{"NoteNumber":43,"Velocity":34,"Duration":2559755,"SoundDuration":2559755,"Delta":10087336},{"NoteNumber":66,"Velocity":39,"Duration":868131,"SoundDuration":868131,"Delta":10970989},{"NoteNumber":63,"Velocity":33,"Duration":868131,"SoundDuration":868131,"Delta":10970989},{"NoteNumber":57,"Velocity":26,"Duration":868131,"SoundDuration":868131,"Delta":10970989},{"NoteNumber":72,"Velocity":44,"Duration":453995,"SoundDuration":453995,"Delta":11385125},{"NoteNumber":71,"Velocity":46,"Duration":807971,"SoundDuration":807971,"Delta":11839120},{"NoteNumber":62,"Velocity":32,"Duration":807971,"SoundDuration":807971,"Delta":11839120},{"NoteNumber":67,"Velocity":37,"Duration":807971,"SoundDuration":807971,"Delta":11839120},{"NoteNumber":59,"Velocity":29,"Duration":807971,"SoundDuration":807971,"Delta":11839120},{"NoteNumber":79,"Velocity":62,"Duration":394321,"SoundDuration":394321,"Delta":12647092},{"NoteNumber":87,"Velocity":58,"Duration":466998,"SoundDuration":466998,"Delta":13041414},{"NoteNumber":87,"Velocity":63,"Duration":1297788,"SoundDuration":1297788,"Delta":13508412},{"NoteNumber":75,"Velocity":48,"Duration":883652,"SoundDuration":883652,"Delta":13508412},{"NoteNumber":67,"Velocity":44,"Duration":883652,"SoundDuration":883652,"Delta":13508412},{"NoteNumber":55,"Velocity":44,"Duration":2659774,"SoundDuration":2659774,"Delta":13508412},{"NoteNumber":78,"Velocity":48,"Duration":868131,"SoundDuration":868131,"Delta":14392065},{"NoteNumber":75,"Velocity":40,"Duration":868131,"SoundDuration":868131,"Delta":14392065},{"NoteNumber":69,"Velocity":37,"Duration":868131,"SoundDuration":868131,"Delta":14392065},{"NoteNumber":84,"Velocity":53,"Duration":453995,"SoundDuration":453995,"Delta":14806201},{"NoteNumber":74,"Velocity":40,"Duration":900423,"SoundDuration":900423,"Delta":15260196},{"NoteNumber":79,"Velocity":40,"Duration":900423,"SoundDuration":900423,"Delta":15260196},{"NoteNumber":83,"Velocity":50,"Duration":900423,"SoundDuration":900423,"Delta":15260196},{"NoteNumber":71,"Velocity":33,"Duration":907990,"SoundDuration":907990,"Delta":15260196},{"NoteNumber":82,"Velocity":60,"Duration":990099,"SoundDuration":990099,"Delta":16168186},{"NoteNumber":74,"Velocity":46,"Duration":990099,"SoundDuration":990099,"Delta":16168186},{"NoteNumber":79,"Velocity":46,"Duration":990099,"SoundDuration":990099,"Delta":16168186},{"NoteNumber":70,"Velocity":33,"Duration":990099,"SoundDuration":990099,"Delta":16168186},{"NoteNumber":67,"Velocity":24,"Duration":990099,"SoundDuration":990099,"Delta":16168186},{"NoteNumber":82,"Velocity":68,"Duration":2178019,"SoundDuration":2178019,"Delta":17158285},{"NoteNumber":74,"Velocity":55,"Duration":975292,"SoundDuration":975292,"Delta":17158285},{"NoteNumber":68,"Velocity":45,"Duration":975292,"SoundDuration":975292,"Delta":17158285},{"NoteNumber":65,"Velocity":45,"Duration":975292,"SoundDuration":975292,"Delta":17158285},{"NoteNumber":70,"Velocity":53,"Duration":2484956,"SoundDuration":2484956,"Delta":17158285},{"NoteNumber":75,"Velocity":55,"Duration":895790,"SoundDuration":895790,"Delta":18133578},{"NoteNumber":63,"Velocity":39,"Duration":895790,"SoundDuration":895790,"Delta":18133578},{"NoteNumber":67,"Velocity":46,"Duration":895790,"SoundDuration":895790,"Delta":18133578},{"NoteNumber":77,"Velocity":46,"Duration":306936,"SoundDuration":306936,"Delta":19029368},{"NoteNumber":62,"Velocity":43,"Duration":920810,"SoundDuration":920810,"Delta":19029368},{"NoteNumber":65,"Velocity":51,"Duration":920810,"SoundDuration":920810,"Delta":19029368},{"NoteNumber":70,"Velocity":51,"Duration":613873,"SoundDuration":613873,"Delta":19336305},{"NoteNumber":72,"Velocity":46,"Duration":306936,"SoundDuration":306936,"Delta":19643242},{"NoteNumber":69,"Velocity":55,"Duration":311477,"SoundDuration":311477,"Delta":19950178},{"NoteNumber":62,"Velocity":46,"Duration":1098235,"SoundDuration":1098235,"Delta":19950178},{"NoteNumber":58,"Velocity":39,"Duration":1098235,"SoundDuration":1098235,"Delta":19950178},{"NoteNumber":70,"Velocity":46,"Duration":347584,"SoundDuration":347584,"Delta":20261655},{"NoteNumber":68,"Velocity":46,"Duration":219587,"SoundDuration":219587,"Delta":20609240},{"NoteNumber":58,"Velocity":34,"Duration":1677382,"SoundDuration":1677382,"Delta":21048414},{"NoteNumber":64,"Velocity":40,"Duration":1677382,"SoundDuration":1677382,"Delta":21048414},{"NoteNumber":67,"Velocity":40,"Duration":1677382,"SoundDuration":1677382,"Delta":21048414},{"NoteNumber":61,"Velocity":34,"Duration":1677382,"SoundDuration":1677382,"Delta":21048414},{"NoteNumber":62,"Velocity":33,"Duration":1841621,"SoundDuration":1841621,"Delta":22725797},{"NoteNumber":65,"Velocity":39,"Duration":1841621,"SoundDuration":1841621,"Delta":22725797},{"NoteNumber":56,"Velocity":33,"Duration":1841621,"SoundDuration":1841621,"Delta":22725797},{"NoteNumber":46,"Velocity":32,"Duration":1841621,"SoundDuration":1841621,"Delta":22725797},{"NoteNumber":34,"Velocity":27,"Duration":1841621,"SoundDuration":1841621,"Delta":22725797},{"NoteNumber":54,"Velocity":33,"Duration":2484814,"SoundDuration":2484814,"Delta":24567418},{"NoteNumber":63,"Velocity":39,"Duration":2484814,"SoundDuration":2484814,"Delta":24567418},{"NoteNumber":35,"Velocity":27,"Duration":2484814,"SoundDuration":2484814,"Delta":24567418},{"NoteNumber":47,"Velocity":32,"Duration":2484814,"SoundDuration":2484814,"Delta":24567418},{"NoteNumber":66,"Velocity":44,"Duration":621203,"SoundDuration":621203,"Delta":27052233},{"NoteNumber":63,"Velocity":34,"Duration":828271,"SoundDuration":828271,"Delta":27052233},{"NoteNumber":47,"Velocity":27,"Duration":828271,"SoundDuration":828271,"Delta":27052233},{"NoteNumber":54,"Velocity":32,"Duration":828271,"SoundDuration":828271,"Delta":27052233},{"NoteNumber":71,"Velocity":37,"Duration":207067,"SoundDuration":207067,"Delta":27673436},{"NoteNumber":71,"Velocity":44,"Duration":828271,"SoundDuration":828271,"Delta":27880504},{"NoteNumber":64,"Velocity":34,"Duration":828271,"SoundDuration":828271,"Delta":27880504},{"NoteNumber":54,"Velocity":33,"Duration":821369,"SoundDuration":821369,"Delta":27880504},{"NoteNumber":49,"Velocity":28,"Duration":821369,"SoundDuration":821369,"Delta":27880504},{"NoteNumber":64,"Velocity":34,"Duration":828271,"SoundDuration":828271,"Delta":28708776},{"NoteNumber":70,"Velocity":46,"Duration":621203,"SoundDuration":621203,"Delta":28708776},{"NoteNumber":54,"Velocity":34,"Duration":821369,"SoundDuration":821369,"Delta":28708776},{"NoteNumber":49,"Velocity":28,"Duration":821369,"SoundDuration":821369,"Delta":28708776},{"NoteNumber":76,"Velocity":44,"Duration":207067,"SoundDuration":207067,"Delta":29329979},{"NoteNumber":75,"Velocity":50,"Duration":828271,"SoundDuration":828271,"Delta":29537047},{"NoteNumber":63,"Velocity":34,"Duration":828271,"SoundDuration":828271,"Delta":29537047},{"NoteNumber":47,"Velocity":30,"Duration":821369,"SoundDuration":821369,"Delta":29537047},{"NoteNumber":54,"Velocity":36,"Duration":821369,"SoundDuration":821369,"Delta":29537047},{"NoteNumber":75,"Velocity":55,"Duration":186011,"SoundDuration":186011,"Delta":30365319},{"NoteNumber":46,"Velocity":32,"Duration":770432,"SoundDuration":770432,"Delta":30365319},{"NoteNumber":54,"Velocity":38,"Duration":1654084,"SoundDuration":1654084,"Delta":30365319},{"NoteNumber":77,"Velocity":48,"Duration":64935,"SoundDuration":64935,"Delta":30551330},{"NoteNumber":75,"Velocity":48,"Duration":64935,"SoundDuration":64935,"Delta":30616265},{"NoteNumber":74,"Velocity":48,"Duration":64935,"SoundDuration":64935,"Delta":30681201},{"NoteNumber":75,"Velocity":55,"Duration":179942,"SoundDuration":179942,"Delta":30746136},{"NoteNumber":77,"Velocity":48,"Duration":209672,"SoundDuration":209672,"Delta":30926078},{"NoteNumber":78,"Velocity":58,"Duration":1297788,"SoundDuration":1297788,"Delta":31135751},{"NoteNumber":72,"Velocity":37,"Duration":883652,"SoundDuration":883652,"Delta":31135751},{"NoteNumber":45,"Velocity":40,"Duration":1751783,"SoundDuration":1751783,"Delta":31135751},{"NoteNumber":72,"Velocity":44,"Duration":868130,"SoundDuration":868130,"Delta":32019403},{"NoteNumber":53,"Velocity":34,"Duration":868130,"SoundDuration":868130,"Delta":32019403},{"NoteNumber":75,"Velocity":49,"Duration":453995,"SoundDuration":453995,"Delta":32433539},{"NoteNumber":74,"Velocity":46,"Duration":807971,"SoundDuration":807971,"Delta":32887534},{"NoteNumber":70,"Velocity":37,"Duration":807971,"SoundDuration":807971,"Delta":32887534},{"NoteNumber":53,"Velocity":30,"Duration":807971,"SoundDuration":807971,"Delta":32887534},{"NoteNumber":46,"Velocity":25,"Duration":807971,"SoundDuration":807971,"Delta":32887534},{"NoteNumber":70,"Velocity":37,"Duration":1654084,"SoundDuration":1654084,"Delta":33695506},{"NoteNumber":73,"Velocity":55,"Duration":186011,"SoundDuration":186011,"Delta":33695506},{"NoteNumber":44,"Velocity":32,"Duration":770432,"SoundDuration":770432,"Delta":33695506},{"NoteNumber":52,"Velocity":38,"Duration":1654084,"SoundDuration":1654084,"Delta":33695506},{"NoteNumber":75,"Velocity":48,"Duration":64935,"SoundDuration":64935,"Delta":33881518},{"NoteNumber":73,"Velocity":48,"Duration":64935,"SoundDuration":64935,"Delta":33946453},{"NoteNumber":72,"Velocity":48,"Duration":64935,"SoundDuration":64935,"Delta":34011388},{"NoteNumber":73,"Velocity":55,"Duration":179942,"SoundDuration":179942,"Delta":34076324},{"NoteNumber":75,"Velocity":48,"Duration":209672,"SoundDuration":209672,"Delta":34256266},{"NoteNumber":76,"Velocity":58,"Duration":1297788,"SoundDuration":1297788,"Delta":34465939},{"NoteNumber":43,"Velocity":40,"Duration":1751783,"SoundDuration":1751783,"Delta":34465939},{"NoteNumber":70,"Velocity":44,"Duration":868130,"SoundDuration":868130,"Delta":35349591},{"NoteNumber":51,"Velocity":34,"Duration":868130,"SoundDuration":868130,"Delta":35349591},{"NoteNumber":75,"Velocity":49,"Duration":226997,"SoundDuration":226997,"Delta":35763727},{"NoteNumber":73,"Velocity":44,"Duration":226997,"SoundDuration":226997,"Delta":35990725},{"NoteNumber":71,"Velocity":46,"Duration":915751,"SoundDuration":915751,"Delta":36217722},{"NoteNumber":68,"Velocity":37,"Duration":915751,"SoundDuration":915751,"Delta":36217722},{"NoteNumber":51,"Velocity":30,"Duration":915751,"SoundDuration":915751,"Delta":36217722},{"NoteNumber":44,"Velocity":25,"Duration":915751,"SoundDuration":915751,"Delta":36217722},{"NoteNumber":63,"Velocity":42,"Duration":915751,"SoundDuration":915751,"Delta":37133473},{"NoteNumber":75,"Velocity":55,"Duration":915751,"SoundDuration":915751,"Delta":37133473},{"NoteNumber":70,"Velocity":42,"Duration":915751,"SoundDuration":915751,"Delta":37133473},{"NoteNumber":54,"Velocity":31,"Duration":915751,"SoundDuration":915751,"Delta":37133473},{"NoteNumber":42,"Velocity":26,"Duration":915751,"SoundDuration":915751,"Delta":37133473},{"NoteNumber":46,"Velocity":26,"Duration":915751,"SoundDuration":915751,"Delta":37133473},{"NoteNumber":74,"Velocity":51,"Duration":867553,"SoundDuration":867553,"Delta":38049224},{"NoteNumber":68,"Velocity":39,"Duration":867553,"SoundDuration":867553,"Delta":38049224},{"NoteNumber":62,"Velocity":39,"Duration":867553,"SoundDuration":867553,"Delta":38049224},{"NoteNumber":70,"Velocity":39,"Duration":867553,"SoundDuration":867553,"Delta":38049224},{"NoteNumber":41,"Velocity":27,"Duration":867553,"SoundDuration":867553,"Delta":38049224},{"NoteNumber":46,"Velocity":27,"Duration":867553,"SoundDuration":867553,"Delta":38049224},{"NoteNumber":53,"Velocity":32,"Duration":867553,"SoundDuration":867553,"Delta":38049224},{"NoteNumber":62,"Velocity":32,"Duration":430161,"SoundDuration":430161,"Delta":40218108},{"NoteNumber":70,"Velocity":38,"Duration":430161,"SoundDuration":430161,"Delta":40218108},{"NoteNumber":74,"Velocity":45,"Duration":430161,"SoundDuration":430161,"Delta":40218108},{"NoteNumber":68,"Velocity":32,"Duration":430161,"SoundDuration":430161,"Delta":40218108},{"NoteNumber":46,"Velocity":34,"Duration":430161,"SoundDuration":430161,"Delta":40218108},{"NoteNumber":53,"Velocity":40,"Duration":430161,"SoundDuration":430161,"Delta":40218108},{"NoteNumber":41,"Velocity":28,"Duration":430161,"SoundDuration":430161,"Delta":40218108},{"NoteNumber":70,"Velocity":39,"Duration":430161,"SoundDuration":430161,"Delta":40651885},{"NoteNumber":63,"Velocity":33,"Duration":430161,"SoundDuration":430161,"Delta":40651885},{"NoteNumber":66,"Velocity":33,"Duration":430161,"SoundDuration":430161,"Delta":40651885},{"NoteNumber":75,"Velocity":47,"Duration":430161,"SoundDuration":430161,"Delta":40651885},{"NoteNumber":39,"Velocity":28,"Duration":430161,"SoundDuration":430161,"Delta":40651885},{"NoteNumber":46,"Velocity":34,"Duration":430161,"SoundDuration":430161,"Delta":40651885},{"NoteNumber":51,"Velocity":40,"Duration":430161,"SoundDuration":430161,"Delta":40651885},{"NoteNumber":66,"Velocity":30,"Duration":502873,"SoundDuration":502873,"Delta":41085662},{"NoteNumber":75,"Velocity":43,"Duration":502873,"SoundDuration":502873,"Delta":41085662},{"NoteNumber":70,"Velocity":36,"Duration":502873,"SoundDuration":502873,"Delta":41085662},{"NoteNumber":63,"Velocity":30,"Duration":502873,"SoundDuration":502873,"Delta":41085662},{"NoteNumber":46,"Velocity":28,"Duration":502873,"SoundDuration":502873,"Delta":41085662},{"NoteNumber":39,"Velocity":23,"Duration":502873,"SoundDuration":502873,"Delta":41085662},{"NoteNumber":51,"Velocity":34,"Duration":502873,"SoundDuration":502873,"Delta":41085662},{"NoteNumber":77,"Velocity":55,"Duration":856164,"SoundDuration":856164,"Delta":41592761},{"NoteNumber":65,"Velocity":39,"Duration":856164,"SoundDuration":856164,"Delta":41592761},{"NoteNumber":70,"Velocity":46,"Duration":856164,"SoundDuration":856164,"Delta":41592761},{"NoteNumber":46,"Velocity":39,"Duration":856164,"SoundDuration":856164,"Delta":41592761},{"NoteNumber":50,"Velocity":47,"Duration":856164,"SoundDuration":856164,"Delta":41592761},{"NoteNumber":38,"Velocity":33,"Duration":856164,"SoundDuration":856164,"Delta":41592761},{"NoteNumber":74,"Velocity":45,"Duration":430161,"SoundDuration":430161,"Delta":43733172},{"NoteNumber":70,"Velocity":38,"Duration":430161,"SoundDuration":430161,"Delta":43733172},{"NoteNumber":65,"Velocity":34,"Duration":430161,"SoundDuration":430161,"Delta":43733172},{"NoteNumber":68,"Velocity":40,"Duration":430161,"SoundDuration":430161,"Delta":43733172},{"NoteNumber":70,"Velocity":39,"Duration":430161,"SoundDuration":430161,"Delta":44166949},{"NoteNumber":75,"Velocity":47,"Duration":430161,"SoundDuration":430161,"Delta":44166949},{"NoteNumber":66,"Velocity":40,"Duration":430161,"SoundDuration":430161,"Delta":44166949},{"NoteNumber":63,"Velocity":34,"Duration":430161,"SoundDuration":430161,"Delta":44166949},{"NoteNumber":75,"Velocity":43,"Duration":502873,"SoundDuration":502873,"Delta":44600726},{"NoteNumber":70,"Velocity":36,"Duration":502873,"SoundDuration":502873,"Delta":44600726},{"NoteNumber":66,"Velocity":34,"Duration":502873,"SoundDuration":502873,"Delta":44600726},{"NoteNumber":63,"Velocity":28,"Duration":502873,"SoundDuration":502873,"Delta":44600726},{"NoteNumber":77,"Velocity":55,"Duration":856164,"SoundDuration":856164,"Delta":45107825},{"NoteNumber":70,"Velocity":46,"Duration":856164,"SoundDuration":856164,"Delta":45107825},{"NoteNumber":62,"Velocity":39,"Duration":856164,"SoundDuration":856164,"Delta":45107825},{"NoteNumber":65,"Velocity":47,"Duration":856164,"SoundDuration":856164,"Delta":45107825},{"NoteNumber":70,"Velocity":41,"Duration":430161,"SoundDuration":430161,"Delta":47248237},{"NoteNumber":77,"Velocity":49,"Duration":430161,"SoundDuration":430161,"Delta":47248237},{"NoteNumber":65,"Velocity":44,"Duration":430161,"SoundDuration":430161,"Delta":47248237},{"NoteNumber":62,"Velocity":37,"Duration":430161,"SoundDuration":430161,"Delta":47248237},{"NoteNumber":79,"Velocity":54,"Duration":430161,"SoundDuration":430161,"Delta":47682013},{"NoteNumber":70,"Velocity":44,"Duration":430161,"SoundDuration":430161,"Delta":47682013},{"NoteNumber":63,"Velocity":46,"Duration":430161,"SoundDuration":430161,"Delta":47682013},{"NoteNumber":61,"Velocity":39,"Duration":430161,"SoundDuration":430161,"Delta":47682013},{"NoteNumber":68,"Velocity":42,"Duration":460383,"SoundDuration":460383,"Delta":48115790},{"NoteNumber":80,"Velocity":51,"Duration":460383,"SoundDuration":460383,"Delta":48115790},{"NoteNumber":59,"Velocity":33,"Duration":460383,"SoundDuration":460383,"Delta":48115790},{"NoteNumber":63,"Velocity":40,"Duration":460383,"SoundDuration":460383,"Delta":48115790},{"NoteNumber":68,"Velocity":46,"Duration":856164,"SoundDuration":856164,"Delta":48580043},{"NoteNumber":80,"Velocity":55,"Duration":856164,"SoundDuration":856164,"Delta":48580043},{"NoteNumber":59,"Velocity":39,"Duration":856164,"SoundDuration":856164,"Delta":48580043},{"NoteNumber":63,"Velocity":47,"Duration":856164,"SoundDuration":856164,"Delta":48580043},{"NoteNumber":77,"Velocity":49,"Duration":430161,"SoundDuration":430161,"Delta":50720454},{"NoteNumber":70,"Velocity":41,"Duration":430161,"SoundDuration":430161,"Delta":50720454},{"NoteNumber":62,"Velocity":37,"Duration":430161,"SoundDuration":430161,"Delta":50720454},{"NoteNumber":65,"Velocity":44,"Duration":430161,"SoundDuration":430161,"Delta":50720454},{"NoteNumber":79,"Velocity":54,"Duration":430161,"SoundDuration":430161,"Delta":51154231},{"NoteNumber":70,"Velocity":44,"Duration":430161,"SoundDuration":430161,"Delta":51154231},{"NoteNumber":61,"Velocity":39,"Duration":430161,"SoundDuration":430161,"Delta":51154231},{"NoteNumber":63,"Velocity":46,"Duration":430161,"SoundDuration":430161,"Delta":51154231},{"NoteNumber":80,"Velocity":51,"Duration":460383,"SoundDuration":460383,"Delta":51588007},{"NoteNumber":68,"Velocity":42,"Duration":460383,"SoundDuration":460383,"Delta":51588007},{"NoteNumber":60,"Velocity":33,"Duration":460383,"SoundDuration":460383,"Delta":51588007},{"NoteNumber":63,"Velocity":40,"Duration":460383,"SoundDuration":460383,"Delta":51588007},{"NoteNumber":80,"Velocity":44,"Duration":856164,"SoundDuration":856164,"Delta":52908424},{"NoteNumber":68,"Velocity":36,"Duration":856164,"SoundDuration":856164,"Delta":52908424},{"NoteNumber":60,"Velocity":31,"Duration":856164,"SoundDuration":856164,"Delta":52908424},{"NoteNumber":63,"Velocity":37,"Duration":856164,"SoundDuration":856164,"Delta":52908424},{"NoteNumber":68,"Velocity":36,"Duration":856164,"SoundDuration":856164,"Delta":54620753},{"NoteNumber":80,"Velocity":44,"Duration":856164,"SoundDuration":856164,"Delta":54620753},{"NoteNumber":63,"Velocity":37,"Duration":856164,"SoundDuration":856164,"Delta":54620753},{"NoteNumber":60,"Velocity":31,"Duration":856164,"SoundDuration":856164,"Delta":54620753},{"NoteNumber":80,"Velocity":77,"Duration":728745,"SoundDuration":728745,"Delta":55476918},{"NoteNumber":68,"Velocity":64,"Duration":728745,"SoundDuration":728745,"Delta":55476918},{"NoteNumber":63,"Velocity":77,"Duration":728745,"SoundDuration":728745,"Delta":55476918},{"NoteNumber":60,"Velocity":64,"Duration":728745,"SoundDuration":728745,"Delta":55476918},{"NoteNumber":67,"Velocity":59,"Duration":230599,"SoundDuration":230599,"Delta":56205663},{"NoteNumber":74,"Velocity":70,"Duration":107142,"SoundDuration":107142,"Delta":56205663},{"NoteNumber":62,"Velocity":60,"Duration":107142,"SoundDuration":107142,"Delta":56205663},{"NoteNumber":59,"Velocity":51,"Duration":107142,"SoundDuration":107142,"Delta":56205663},{"NoteNumber":79,"Velocity":67,"Duration":61728,"SoundDuration":61728,"Delta":56312806},{"NoteNumber":61,"Velocity":59,"Duration":61728,"SoundDuration":61728,"Delta":56312806},{"NoteNumber":58,"Velocity":50,"Duration":61728,"SoundDuration":61728,"Delta":56312806},{"NoteNumber":67,"Velocity":59,"Duration":243902,"SoundDuration":243902,"Delta":56436262},{"NoteNumber":79,"Velocity":70,"Duration":243902,"SoundDuration":243902,"Delta":56436262},{"NoteNumber":58,"Velocity":56,"Duration":243902,"SoundDuration":243902,"Delta":56436262},{"NoteNumber":61,"Velocity":67,"Duration":243902,"SoundDuration":243902,"Delta":56436262},{"NoteNumber":72,"Velocity":70,"Duration":106383,"SoundDuration":106383,"Delta":56680165},{"NoteNumber":65,"Velocity":59,"Duration":230864,"SoundDuration":230864,"Delta":56680165},{"NoteNumber":57,"Velocity":51,"Duration":106383,"SoundDuration":106383,"Delta":56680165},{"NoteNumber":60,"Velocity":60,"Duration":106383,"SoundDuration":106383,"Delta":56680165},{"NoteNumber":77,"Velocity":67,"Duration":62240,"SoundDuration":62240,"Delta":56786548},{"NoteNumber":56,"Velocity":50,"Duration":62240,"SoundDuration":62240,"Delta":56786548},{"NoteNumber":59,"Velocity":59,"Duration":62240,"SoundDuration":62240,"Delta":56786548},{"NoteNumber":65,"Velocity":59,"Duration":243902,"SoundDuration":243902,"Delta":56911029},{"NoteNumber":77,"Velocity":70,"Duration":243902,"SoundDuration":243902,"Delta":56911029},{"NoteNumber":56,"Velocity":56,"Duration":243902,"SoundDuration":243902,"Delta":56911029},{"NoteNumber":59,"Velocity":67,"Duration":243902,"SoundDuration":243902,"Delta":56911029},{"NoteNumber":70,"Velocity":70,"Duration":106383,"SoundDuration":106383,"Delta":57154932},{"NoteNumber":63,"Velocity":59,"Duration":234588,"SoundDuration":234588,"Delta":57154932},{"NoteNumber":58,"Velocity":60,"Duration":106383,"SoundDuration":106383,"Delta":57154932},{"NoteNumber":55,"Velocity":51,"Duration":106383,"SoundDuration":106383,"Delta":57154932},{"NoteNumber":75,"Velocity":67,"Duration":64102,"SoundDuration":64102,"Delta":57261315},{"NoteNumber":54,"Velocity":50,"Duration":64102,"SoundDuration":64102,"Delta":57261315},{"NoteNumber":57,"Velocity":59,"Duration":64102,"SoundDuration":64102,"Delta":57261315},{"NoteNumber":68,"Velocity":59,"Duration":740840,"SoundDuration":740840,"Delta":57389520},{"NoteNumber":63,"Velocity":59,"Duration":497925,"SoundDuration":497925,"Delta":57389520},{"NoteNumber":75,"Velocity":70,"Duration":497925,"SoundDuration":497925,"Delta":57389520},{"NoteNumber":70,"Velocity":59,"Duration":740840,"SoundDuration":740840,"Delta":57389520},{"NoteNumber":56,"Velocity":67,"Duration":740840,"SoundDuration":740840,"Delta":57389520},{"NoteNumber":53,"Velocity":56,"Duration":740840,"SoundDuration":740840,"Delta":57389520},{"NoteNumber":74,"Velocity":59,"Duration":242915,"SoundDuration":242915,"Delta":57887445},{"NoteNumber":62,"Velocity":50,"Duration":242915,"SoundDuration":242915,"Delta":57887445},{"NoteNumber":75,"Velocity":59,"Duration":242914,"SoundDuration":242914,"Delta":58130360},{"NoteNumber":70,"Velocity":50,"Duration":242914,"SoundDuration":242914,"Delta":58130360},{"NoteNumber":63,"Velocity":50,"Duration":242914,"SoundDuration":242914,"Delta":58130360},{"NoteNumber":55,"Velocity":45,"Duration":242914,"SoundDuration":242914,"Delta":58130360},{"NoteNumber":51,"Velocity":38,"Duration":242914,"SoundDuration":242914,"Delta":58130360},{"NoteNumber":65,"Velocity":48,"Duration":242914,"SoundDuration":242914,"Delta":58373275},{"NoteNumber":70,"Velocity":48,"Duration":242914,"SoundDuration":242914,"Delta":58373275},{"NoteNumber":77,"Velocity":57,"Duration":242914,"SoundDuration":242914,"Delta":58373275},{"NoteNumber":50,"Velocity":40,"Duration":242914,"SoundDuration":242914,"Delta":58373275},{"NoteNumber":53,"Velocity":48,"Duration":242914,"SoundDuration":242914,"Delta":58373275},{"NoteNumber":67,"Velocity":51,"Duration":242915,"SoundDuration":242915,"Delta":58616190},{"NoteNumber":70,"Velocity":51,"Duration":242915,"SoundDuration":242915,"Delta":58616190},{"NoteNumber":79,"Velocity":60,"Duration":242915,"SoundDuration":242915,"Delta":58616190},{"NoteNumber":48,"Velocity":42,"Duration":242915,"SoundDuration":242915,"Delta":58616190},{"NoteNumber":51,"Velocity":50,"Duration":242915,"SoundDuration":242915,"Delta":58616190},{"NoteNumber":70,"Velocity":54,"Duration":245901,"SoundDuration":245901,"Delta":58859105},{"NoteNumber":80,"Velocity":64,"Duration":245901,"SoundDuration":245901,"Delta":58859105},{"NoteNumber":68,"Velocity":54,"Duration":245901,"SoundDuration":245901,"Delta":58859105},{"NoteNumber":46,"Velocity":45,"Duration":245901,"SoundDuration":245901,"Delta":58859105},{"NoteNumber":50,"Velocity":53,"Duration":245901,"SoundDuration":245901,"Delta":58859105},{"NoteNumber":70,"Velocity":57,"Duration":256410,"SoundDuration":256410,"Delta":59105006},{"NoteNumber":82,"Velocity":68,"Duration":256410,"SoundDuration":256410,"Delta":59105006},{"NoteNumber":53,"Velocity":56,"Duration":256410,"SoundDuration":256410,"Delta":59105006},{"NoteNumber":46,"Velocity":47,"Duration":256410,"SoundDuration":256410,"Delta":59105006},{"NoteNumber":50,"Velocity":47,"Duration":256410,"SoundDuration":256410,"Delta":59105006},{"NoteNumber":67,"Velocity":66,"Duration":241935,"SoundDuration":241935,"Delta":59361417},{"NoteNumber":70,"Velocity":66,"Duration":241935,"SoundDuration":241935,"Delta":59361417},{"NoteNumber":82,"Velocity":78,"Duration":241935,"SoundDuration":241935,"Delta":59361417},{"NoteNumber":39,"Velocity":56,"Duration":120967,"SoundDuration":120967,"Delta":59361417},{"NoteNumber":46,"Velocity":40,"Duration":120967,"SoundDuration":120967,"Delta":59482385},{"NoteNumber":55,"Velocity":40,"Duration":120967,"SoundDuration":120967,"Delta":59603352},{"NoteNumber":46,"Velocity":40,"Duration":120967,"SoundDuration":120967,"Delta":59724320},{"NoteNumber":82,"Velocity":81,"Duration":241935,"SoundDuration":241935,"Delta":59845288},{"NoteNumber":70,"Velocity":69,"Duration":241935,"SoundDuration":241935,"Delta":59845288},{"NoteNumber":39,"Velocity":54,"Duration":120967,"SoundDuration":120967,"Delta":59845288},{"NoteNumber":46,"Velocity":44,"Duration":120967,"SoundDuration":120967,"Delta":59966256},{"NoteNumber":55,"Velocity":43,"Duration":125000,"SoundDuration":125000,"Delta":60087223},{"NoteNumber":46,"Velocity":43,"Duration":125000,"SoundDuration":125000,"Delta":60212223},{"NoteNumber":82,"Velocity":78,"Duration":725806,"SoundDuration":725806,"Delta":60337223},{"NoteNumber":94,"Velocity":93,"Duration":725806,"SoundDuration":725806,"Delta":60337223},{"NoteNumber":41,"Velocity":58,"Duration":120967,"SoundDuration":120967,"Delta":60337223},{"NoteNumber":46,"Velocity":49,"Duration":120967,"SoundDuration":120967,"Delta":60458191},{"NoteNumber":56,"Velocity":49,"Duration":120967,"SoundDuration":120967,"Delta":60579159},{"NoteNumber":46,"Velocity":47,"Duration":120967,"SoundDuration":120967,"Delta":60700127},{"NoteNumber":41,"Velocity":53,"Duration":120967,"SoundDuration":120967,"Delta":60821094},{"NoteNumber":46,"Velocity":44,"Duration":120967,"SoundDuration":120967,"Delta":60942062},{"NoteNumber":82,"Velocity":65,"Duration":967742,"SoundDuration":967742,"Delta":61063030},{"NoteNumber":70,"Velocity":55,"Duration":967742,"SoundDuration":967742,"Delta":61063030},{"NoteNumber":56,"Velocity":44,"Duration":120967,"SoundDuration":120967,"Delta":61063030},{"NoteNumber":46,"Velocity":44,"Duration":120967,"SoundDuration":120967,"Delta":61183998},{"NoteNumber":43,"Velocity":53,"Duration":120967,"SoundDuration":120967,"Delta":61304965},{"NoteNumber":46,"Velocity":43,"Duration":120967,"SoundDuration":120967,"Delta":61425933},{"NoteNumber":58,"Velocity":43,"Duration":120967,"SoundDuration":120967,"Delta":61546901},{"NoteNumber":46,"Velocity":43,"Duration":120967,"SoundDuration":120967,"Delta":61667869},{"NoteNumber":43,"Velocity":53,"Duration":120967,"SoundDuration":120967,"Delta":61788836},{"NoteNumber":46,"Velocity":43,"Duration":120967,"SoundDuration":120967,"Delta":61909804},{"NoteNumber":67,"Velocity":62,"Duration":253164,"SoundDuration":253164,"Delta":62030772},{"NoteNumber":79,"Velocity":62,"Duration":253164,"SoundDuration":253164,"Delta":62030772},{"NoteNumber":58,"Velocity":43,"Duration":126582,"SoundDuration":126582,"Delta":62030772},{"NoteNumber":46,"Velocity":43,"Duration":126582,"SoundDuration":126582,"Delta":62157354},{"NoteNumber":77,"Velocity":65,"Duration":240000,"SoundDuration":240000,"Delta":62283936},{"NoteNumber":65,"Velocity":55,"Duration":240000,"SoundDuration":240000,"Delta":62283936},{"NoteNumber":44,"Velocity":53,"Duration":119999,"SoundDuration":119999,"Delta":62283936},{"NoteNumber":46,"Velocity":44,"Duration":120000,"SoundDuration":120000,"Delta":62403936},{"NoteNumber":74,"Velocity":57,"Duration":239999,"SoundDuration":239999,"Delta":62523936},{"NoteNumber":62,"Velocity":48,"Duration":239999,"SoundDuration":239999,"Delta":62523936},{"NoteNumber":56,"Velocity":44,"Duration":119999,"SoundDuration":119999,"Delta":62523936},{"NoteNumber":46,"Velocity":44,"Duration":119999,"SoundDuration":119999,"Delta":62643936},{"NoteNumber":71,"Velocity":57,"Duration":240000,"SoundDuration":240000,"Delta":62763936},{"NoteNumber":59,"Velocity":48,"Duration":240000,"SoundDuration":240000,"Delta":62763936},{"NoteNumber":34,"Velocity":53,"Duration":120000,"SoundDuration":120000,"Delta":62763936},{"NoteNumber":46,"Velocity":46,"Duration":119999,"SoundDuration":119999,"Delta":62883936},{"NoteNumber":70,"Velocity":56,"Duration":248953,"SoundDuration":248953,"Delta":63003936},{"NoteNumber":58,"Velocity":47,"Duration":248953,"SoundDuration":248953,"Delta":63003936},{"NoteNumber":53,"Velocity":46,"Duration":125523,"SoundDuration":125523,"Delta":63003936},{"NoteNumber":46,"Velocity":46,"Duration":125523,"SoundDuration":125523,"Delta":63129459},{"NoteNumber":70,"Velocity":78,"Duration":241935,"SoundDuration":241935,"Delta":63254982},{"NoteNumber":58,"Velocity":66,"Duration":241935,"SoundDuration":241935,"Delta":63254982},{"NoteNumber":39,"Velocity":56,"Duration":120967,"SoundDuration":120967,"Delta":63254982},{"NoteNumber":46,"Velocity":40,"Duration":120967,"SoundDuration":120967,"Delta":63375950},{"NoteNumber":55,"Velocity":40,"Duration":120967,"SoundDuration":120967,"Delta":63496918},{"NoteNumber":46,"Velocity":40,"Duration":120967,"SoundDuration":120967,"Delta":63617886},{"NoteNumber":82,"Velocity":81,"Duration":241935,"SoundDuration":241935,"Delta":63738853},{"NoteNumber":70,"Velocity":69,"Duration":241935,"SoundDuration":241935,"Delta":63738853},{"NoteNumber":39,"Velocity":54,"Duration":120967,"SoundDuration":120967,"Delta":63738853},{"NoteNumber":46,"Velocity":44,"Duration":120967,"SoundDuration":120967,"Delta":63859821},{"NoteNumber":55,"Velocity":43,"Duration":125000,"SoundDuration":125000,"Delta":63980789},{"NoteNumber":46,"Velocity":43,"Duration":125000,"SoundDuration":125000,"Delta":64105789},{"NoteNumber":82,"Velocity":78,"Duration":725806,"SoundDuration":725806,"Delta":64230789},{"NoteNumber":94,"Velocity":93,"Duration":725806,"SoundDuration":725806,"Delta":64230789},{"NoteNumber":41,"Velocity":58,"Duration":120967,"SoundDuration":120967,"Delta":64230789},{"NoteNumber":46,"Velocity":49,"Duration":120967,"SoundDuration":120967,"Delta":64351757},{"NoteNumber":56,"Velocity":49,"Duration":120967,"SoundDuration":120967,"Delta":64472724},{"NoteNumber":46,"Velocity":47,"Duration":120967,"SoundDuration":120967,"Delta":64593692},{"NoteNumber":41,"Velocity":53,"Duration":120967,"SoundDuration":120967,"Delta":64714660},{"NoteNumber":46,"Velocity":44,"Duration":120967,"SoundDuration":120967,"Delta":64835628},{"NoteNumber":70,"Velocity":55,"Duration":967742,"SoundDuration":967742,"Delta":64956595},{"NoteNumber":82,"Velocity":65,"Duration":967742,"SoundDuration":967742,"Delta":64956595},{"NoteNumber":56,"Velocity":44,"Duration":120967,"SoundDuration":120967,"Delta":64956595},{"NoteNumber":46,"Velocity":44,"Duration":120967,"SoundDuration":120967,"Delta":65077563},{"NoteNumber":43,"Velocity":53,"Duration":120967,"SoundDuration":120967,"Delta":65198531},{"NoteNumber":51,"Velocity":43,"Duration":120967,"SoundDuration":120967,"Delta":65319499},{"NoteNumber":58,"Velocity":43,"Duration":120967,"SoundDuration":120967,"Delta":65440466},{"NoteNumber":51,"Velocity":43,"Duration":120967,"SoundDuration":120967,"Delta":65561434},{"NoteNumber":43,"Velocity":53,"Duration":120967,"SoundDuration":120967,"Delta":65682402},{"NoteNumber":51,"Velocity":43,"Duration":120967,"SoundDuration":120967,"Delta":65803370},{"NoteNumber":67,"Velocity":62,"Duration":253164,"SoundDuration":253164,"Delta":65924337},{"NoteNumber":79,"Velocity":62,"Duration":253164,"SoundDuration":253164,"Delta":65924337},{"NoteNumber":58,"Velocity":43,"Duration":126582,"SoundDuration":126582,"Delta":65924337},{"NoteNumber":51,"Velocity":43,"Duration":126582,"SoundDuration":126582,"Delta":66050920},{"NoteNumber":64,"Velocity":55,"Duration":239999,"SoundDuration":239999,"Delta":66177502},{"NoteNumber":76,"Velocity":65,"Duration":239999,"SoundDuration":239999,"Delta":66177502},{"NoteNumber":44,"Velocity":53,"Duration":120000,"SoundDuration":120000,"Delta":66177502},{"NoteNumber":51,"Velocity":44,"Duration":119999,"SoundDuration":119999,"Delta":66297502},{"NoteNumber":77,"Velocity":57,"Duration":240000,"SoundDuration":240000,"Delta":66417502},{"NoteNumber":65,"Velocity":48,"Duration":240000,"SoundDuration":240000,"Delta":66417502},{"NoteNumber":60,"Velocity":44,"Duration":120000,"SoundDuration":120000,"Delta":66417502},{"NoteNumber":51,"Velocity":44,"Duration":120000,"SoundDuration":120000,"Delta":66537502},{"NoteNumber":72,"Velocity":57,"Duration":239999,"SoundDuration":239999,"Delta":66657502},{"NoteNumber":60,"Velocity":48,"Duration":239999,"SoundDuration":239999,"Delta":66657502},{"NoteNumber":45,"Velocity":53,"Duration":119999,"SoundDuration":119999,"Delta":66657502},{"NoteNumber":53,"Velocity":46,"Duration":120000,"SoundDuration":120000,"Delta":66777502},{"NoteNumber":63,"Velocity":47,"Duration":251046,"SoundDuration":251046,"Delta":66897502},{"NoteNumber":75,"Velocity":56,"Duration":251046,"SoundDuration":251046,"Delta":66897502},{"NoteNumber":60,"Velocity":46,"Duration":125523,"SoundDuration":125523,"Delta":66897502},{"NoteNumber":53,"Velocity":46,"Duration":125523,"SoundDuration":125523,"Delta":67023025},{"NoteNumber":74,"Velocity":56,"Duration":125523,"SoundDuration":125523,"Delta":67148548},{"NoteNumber":62,"Velocity":56,"Duration":125523,"SoundDuration":125523,"Delta":67148548},{"NoteNumber":46,"Velocity":52,"Duration":246490,"SoundDuration":246490,"Delta":67148548},{"NoteNumber":58,"Velocity":52,"Duration":246490,"SoundDuration":246490,"Delta":67148548},{"NoteNumber":70,"Velocity":49,"Duration":120967,"SoundDuration":120967,"Delta":67274071},{"NoteNumber":69,"Velocity":51,"Duration":120967,"SoundDuration":120967,"Delta":67395039},{"NoteNumber":63,"Velocity":46,"Duration":120967,"SoundDuration":120967,"Delta":67395039},{"NoteNumber":70,"Velocity":53,"Duration":120967,"SoundDuration":120967,"Delta":67516006},{"NoteNumber":62,"Velocity":49,"Duration":120967,"SoundDuration":120967,"Delta":67516006},{"NoteNumber":72,"Velocity":55,"Duration":120967,"SoundDuration":120967,"Delta":67636974},{"NoteNumber":69,"Velocity":46,"Duration":120967,"SoundDuration":120967,"Delta":67636974},{"NoteNumber":60,"Velocity":48,"Duration":120967,"SoundDuration":120967,"Delta":67636974},{"NoteNumber":70,"Velocity":48,"Duration":120967,"SoundDuration":120967,"Delta":67757942},{"NoteNumber":74,"Velocity":57,"Duration":120967,"SoundDuration":120967,"Delta":67757942},{"NoteNumber":58,"Velocity":47,"Duration":120967,"SoundDuration":120967,"Delta":67757942},{"NoteNumber":72,"Velocity":50,"Duration":120967,"SoundDuration":120967,"Delta":67878910},{"NoteNumber":75,"Velocity":59,"Duration":120967,"SoundDuration":120967,"Delta":67878910},{"NoteNumber":57,"Velocity":46,"Duration":120967,"SoundDuration":120967,"Delta":67878910},{"NoteNumber":74,"Velocity":51,"Duration":128755,"SoundDuration":128755,"Delta":67999877},{"NoteNumber":77,"Velocity":61,"Duration":128755,"SoundDuration":128755,"Delta":67999877},{"NoteNumber":56,"Velocity":45,"Duration":128755,"SoundDuration":128755,"Delta":67999877},{"NoteNumber":75,"Velocity":53,"Duration":499872,"SoundDuration":499872,"Delta":68128633},{"NoteNumber":79,"Velocity":63,"Duration":499872,"SoundDuration":499872,"Delta":68128633},{"NoteNumber":55,"Velocity":44,"Duration":125000,"SoundDuration":125000,"Delta":68128633},{"NoteNumber":53,"Velocity":43,"Duration":125000,"SoundDuration":125000,"Delta":68253633},{"NoteNumber":51,"Velocity":42,"Duration":125000,"SoundDuration":125000,"Delta":68378633},{"NoteNumber":50,"Velocity":41,"Duration":124872,"SoundDuration":124872,"Delta":68503633},{"NoteNumber":84,"Velocity":62,"Duration":121971,"SoundDuration":121971,"Delta":68628506},{"NoteNumber":80,"Velocity":52,"Duration":121971,"SoundDuration":121971,"Delta":68628506},{"NoteNumber":51,"Velocity":40,"Duration":121971,"SoundDuration":121971,"Delta":68628506},{"NoteNumber":82,"Velocity":59,"Duration":122469,"SoundDuration":122469,"Delta":68750478},{"NoteNumber":79,"Velocity":50,"Duration":122469,"SoundDuration":122469,"Delta":68750478},{"NoteNumber":53,"Velocity":42,"Duration":122469,"SoundDuration":122469,"Delta":68750478},{"NoteNumber":77,"Velocity":47,"Duration":122971,"SoundDuration":122971,"Delta":68872947},{"NoteNumber":80,"Velocity":56,"Duration":122971,"SoundDuration":122971,"Delta":68872947},{"NoteNumber":55,"Velocity":44,"Duration":122971,"SoundDuration":122971,"Delta":68872947},{"NoteNumber":79,"Velocity":53,"Duration":123478,"SoundDuration":123478,"Delta":68995919},{"NoteNumber":75,"Velocity":45,"Duration":123478,"SoundDuration":123478,"Delta":68995919},{"NoteNumber":56,"Velocity":46,"Duration":123478,"SoundDuration":123478,"Delta":68995919},{"NoteNumber":77,"Velocity":61,"Duration":247934,"SoundDuration":247934,"Delta":69119397},{"NoteNumber":74,"Velocity":51,"Duration":247934,"SoundDuration":247934,"Delta":69119397},{"NoteNumber":58,"Velocity":48,"Duration":247934,"SoundDuration":247934,"Delta":69119397},{"NoteNumber":60,"Velocity":42,"Duration":123966,"SoundDuration":123966,"Delta":69367331},{"NoteNumber":62,"Velocity":46,"Duration":123967,"SoundDuration":123967,"Delta":69491298},{"NoteNumber":96,"Velocity":68,"Duration":121971,"SoundDuration":121971,"Delta":69615265},{"NoteNumber":92,"Velocity":57,"Duration":121971,"SoundDuration":121971,"Delta":69615265},{"NoteNumber":63,"Velocity":44,"Duration":121971,"SoundDuration":121971,"Delta":69615265},{"NoteNumber":94,"Velocity":64,"Duration":122469,"SoundDuration":122469,"Delta":69737237},{"NoteNumber":91,"Velocity":55,"Duration":122469,"SoundDuration":122469,"Delta":69737237},{"NoteNumber":65,"Velocity":46,"Duration":122469,"SoundDuration":122469,"Delta":69737237},{"NoteNumber":89,"Velocity":51,"Duration":122971,"SoundDuration":122971,"Delta":69859707},{"NoteNumber":92,"Velocity":61,"Duration":122971,"SoundDuration":122971,"Delta":69859707},{"NoteNumber":67,"Velocity":48,"Duration":122971,"SoundDuration":122971,"Delta":69859707},{"NoteNumber":91,"Velocity":58,"Duration":123478,"SoundDuration":123478,"Delta":69982679},{"NoteNumber":87,"Velocity":49,"Duration":123478,"SoundDuration":123478,"Delta":69982679},{"NoteNumber":68,"Velocity":50,"Duration":123478,"SoundDuration":123478,"Delta":69982679},{"NoteNumber":89,"Velocity":67,"Duration":247934,"SoundDuration":247934,"Delta":70106157},{"NoteNumber":86,"Velocity":56,"Duration":247934,"SoundDuration":247934,"Delta":70106157},{"NoteNumber":70,"Velocity":57,"Duration":247934,"SoundDuration":247934,"Delta":70106157},{"NoteNumber":84,"Velocity":68,"Duration":121603,"SoundDuration":121603,"Delta":70354091},{"NoteNumber":74,"Velocity":57,"Duration":121603,"SoundDuration":121603,"Delta":70354091},{"NoteNumber":68,"Velocity":46,"Duration":121603,"SoundDuration":121603,"Delta":70354091},{"NoteNumber":82,"Velocity":67,"Duration":121457,"SoundDuration":121457,"Delta":70475695},{"NoteNumber":75,"Velocity":56,"Duration":121457,"SoundDuration":121457,"Delta":70475695},{"NoteNumber":67,"Velocity":53,"Duration":121457,"SoundDuration":121457,"Delta":70475695},{"NoteNumber":71,"Velocity":56,"Duration":121922,"SoundDuration":121922,"Delta":70597152},{"NoteNumber":80,"Velocity":67,"Duration":121922,"SoundDuration":121922,"Delta":70597152},{"NoteNumber":65,"Velocity":52,"Duration":121922,"SoundDuration":121922,"Delta":70597152},{"NoteNumber":79,"Velocity":66,"Duration":121951,"SoundDuration":121951,"Delta":70719075},{"NoteNumber":72,"Velocity":56,"Duration":121951,"SoundDuration":121951,"Delta":70719075},{"NoteNumber":63,"Velocity":51,"Duration":121951,"SoundDuration":121951,"Delta":70719075},{"NoteNumber":67,"Velocity":55,"Duration":91807,"SoundDuration":91807,"Delta":70841026},{"NoteNumber":77,"Velocity":64,"Duration":91807,"SoundDuration":91807,"Delta":70841026},{"NoteNumber":62,"Velocity":50,"Duration":91807,"SoundDuration":91807,"Delta":70841026},{"NoteNumber":75,"Velocity":53,"Duration":91836,"SoundDuration":91836,"Delta":70963446},{"NoteNumber":78,"Velocity":63,"Duration":91836,"SoundDuration":91836,"Delta":70963446},{"NoteNumber":60,"Velocity":49,"Duration":91836,"SoundDuration":91836,"Delta":70963446},{"NoteNumber":79,"Velocity":61,"Duration":91836,"SoundDuration":91836,"Delta":71085895},{"NoteNumber":74,"Velocity":51,"Duration":91836,"SoundDuration":91836,"Delta":71085895},{"NoteNumber":59,"Velocity":47,"Duration":91836,"SoundDuration":91836,"Delta":71085895},{"NoteNumber":74,"Velocity":55,"Duration":91616,"SoundDuration":91616,"Delta":71208344},{"NoteNumber":78,"Velocity":55,"Duration":91616,"SoundDuration":91616,"Delta":71208344},{"NoteNumber":81,"Velocity":64,"Duration":91616,"SoundDuration":91616,"Delta":71208344},{"NoteNumber":57,"Velocity":48,"Duration":91616,"SoundDuration":91616,"Delta":71208344},{"NoteNumber":74,"Velocity":57,"Duration":91430,"SoundDuration":91430,"Delta":71330449},{"NoteNumber":79,"Velocity":57,"Duration":91430,"SoundDuration":91430,"Delta":71330449},{"NoteNumber":83,"Velocity":68,"Duration":91430,"SoundDuration":91430,"Delta":71330449},{"NoteNumber":55,"Velocity":51,"Duration":91430,"SoundDuration":91430,"Delta":71330449},{"NoteNumber":74,"Velocity":60,"Duration":91093,"SoundDuration":91093,"Delta":71452244},{"NoteNumber":83,"Velocity":71,"Duration":91093,"SoundDuration":91093,"Delta":71452244},{"NoteNumber":79,"Velocity":60,"Duration":91093,"SoundDuration":91093,"Delta":71452244},{"NoteNumber":53,"Velocity":55,"Duration":91093,"SoundDuration":91093,"Delta":71452244},{"NoteNumber":75,"Velocity":63,"Duration":90754,"SoundDuration":90754,"Delta":71573701},{"NoteNumber":79,"Velocity":63,"Duration":90754,"SoundDuration":90754,"Delta":71573701},{"NoteNumber":84,"Velocity":75,"Duration":90754,"SoundDuration":90754,"Delta":71573701},{"NoteNumber":51,"Velocity":59,"Duration":90754,"SoundDuration":90754,"Delta":71573701},{"NoteNumber":77,"Velocity":67,"Duration":90418,"SoundDuration":90418,"Delta":71694697},{"NoteNumber":83,"Velocity":67,"Duration":90418,"SoundDuration":90418,"Delta":71694697},{"NoteNumber":86,"Velocity":79,"Duration":90418,"SoundDuration":90418,"Delta":71694697},{"NoteNumber":50,"Velocity":62,"Duration":90418,"SoundDuration":90418,"Delta":71694697},{"NoteNumber":79,"Velocity":69,"Duration":91041,"SoundDuration":91041,"Delta":71815209},{"NoteNumber":84,"Velocity":69,"Duration":91041,"SoundDuration":91041,"Delta":71815209},{"NoteNumber":87,"Velocity":82,"Duration":91041,"SoundDuration":91041,"Delta":71815209},{"NoteNumber":48,"Velocity":66,"Duration":91041,"SoundDuration":91041,"Delta":71815209},{"NoteNumber":88,"Velocity":85,"Duration":92695,"SoundDuration":92695,"Delta":71936896},{"NoteNumber":84,"Velocity":72,"Duration":92695,"SoundDuration":92695,"Delta":71936896},{"NoteNumber":79,"Velocity":72,"Duration":92695,"SoundDuration":92695,"Delta":71936896},{"NoteNumber":46,"Velocity":58,"Duration":92695,"SoundDuration":92695,"Delta":71936896},{"NoteNumber":48,"Velocity":69,"Duration":92695,"SoundDuration":92695,"Delta":71936896},{"NoteNumber":88,"Velocity":89,"Duration":125000,"SoundDuration":125000,"Delta":72060811},{"NoteNumber":84,"Velocity":74,"Duration":125000,"SoundDuration":125000,"Delta":72060811},{"NoteNumber":79,"Velocity":74,"Duration":125000,"SoundDuration":125000,"Delta":72060811},{"NoteNumber":48,"Velocity":72,"Duration":125000,"SoundDuration":125000,"Delta":72060811},{"NoteNumber":46,"Velocity":61,"Duration":125000,"SoundDuration":125000,"Delta":72060811},{"NoteNumber":89,"Velocity":92,"Duration":142179,"SoundDuration":142179,"Delta":72560811},{"NoteNumber":77,"Velocity":92,"Duration":142179,"SoundDuration":142179,"Delta":72560811},{"NoteNumber":84,"Velocity":92,"Duration":142179,"SoundDuration":142179,"Delta":72560811},{"NoteNumber":48,"Velocity":75,"Duration":142179,"SoundDuration":142179,"Delta":72560811},{"NoteNumber":45,"Velocity":63,"Duration":142179,"SoundDuration":142179,"Delta":72560811},{"NoteNumber":70,"Velocity":65,"Duration":1248226,"SoundDuration":1248226,"Delta":73129531},{"NoteNumber":75,"Velocity":84,"Duration":743802,"SoundDuration":743802,"Delta":73129531},{"NoteNumber":42,"Velocity":71,"Duration":743802,"SoundDuration":743802,"Delta":73129531},{"NoteNumber":48,"Velocity":65,"Duration":2009366,"SoundDuration":2009366,"Delta":73129531},{"NoteNumber":77,"Velocity":85,"Duration":128755,"SoundDuration":128755,"Delta":73873333},{"NoteNumber":41,"Velocity":71,"Duration":128755,"SoundDuration":128755,"Delta":73873333},{"NoteNumber":78,"Velocity":93,"Duration":1008053,"SoundDuration":1008053,"Delta":74130844},{"NoteNumber":39,"Velocity":80,"Duration":1008053,"SoundDuration":1008053,"Delta":74130844},{"NoteNumber":70,"Velocity":61,"Duration":120481,"SoundDuration":120481,"Delta":74377757},{"NoteNumber":69,"Velocity":52,"Duration":120482,"SoundDuration":120482,"Delta":74498239},{"NoteNumber":70,"Velocity":61,"Duration":120481,"SoundDuration":120481,"Delta":74618721},{"NoteNumber":69,"Velocity":54,"Duration":120481,"SoundDuration":120481,"Delta":74739203},{"NoteNumber":70,"Velocity":61,"Duration":120482,"SoundDuration":120482,"Delta":74859685},{"NoteNumber":69,"Velocity":54,"Duration":158730,"SoundDuration":158730,"Delta":74980167},{"NoteNumber":70,"Velocity":65,"Duration":1248226,"SoundDuration":1248226,"Delta":75138898},{"NoteNumber":75,"Velocity":84,"Duration":743802,"SoundDuration":743802,"Delta":75138898},{"NoteNumber":42,"Velocity":71,"Duration":743802,"SoundDuration":743802,"Delta":75138898},{"NoteNumber":48,"Velocity":65,"Duration":2013679,"SoundDuration":2013679,"Delta":75138898},{"NoteNumber":77,"Velocity":85,"Duration":128755,"SoundDuration":128755,"Delta":75882700},{"NoteNumber":41,"Velocity":71,"Duration":128755,"SoundDuration":128755,"Delta":75882700},{"NoteNumber":79,"Velocity":93,"Duration":1012367,"SoundDuration":1012367,"Delta":76140210},{"NoteNumber":40,"Velocity":80,"Duration":1012367,"SoundDuration":1012367,"Delta":76140210},{"NoteNumber":70,"Velocity":61,"Duration":120481,"SoundDuration":120481,"Delta":76387124},{"NoteNumber":69,"Velocity":52,"Duration":120482,"SoundDuration":120482,"Delta":76507606},{"NoteNumber":70,"Velocity":61,"Duration":120481,"SoundDuration":120481,"Delta":76628088},{"NoteNumber":69,"Velocity":54,"Duration":120481,"SoundDuration":120481,"Delta":76748570},{"NoteNumber":70,"Velocity":61,"Duration":120482,"SoundDuration":120482,"Delta":76869052},{"NoteNumber":69,"Velocity":54,"Duration":163043,"SoundDuration":163043,"Delta":76989534},{"NoteNumber":78,"Velocity":70,"Duration":244898,"SoundDuration":244898,"Delta":77152577},{"NoteNumber":48,"Velocity":48,"Duration":244898,"SoundDuration":244898,"Delta":77152577},{"NoteNumber":41,"Velocity":40,"Duration":244898,"SoundDuration":244898,"Delta":77152577},{"NoteNumber":70,"Velocity":51,"Duration":120481,"SoundDuration":120481,"Delta":77397475},{"NoteNumber":69,"Velocity":44,"Duration":120482,"SoundDuration":120482,"Delta":77517957},{"NoteNumber":70,"Velocity":51,"Duration":120481,"SoundDuration":120481,"Delta":77638439},{"NoteNumber":69,"Velocity":43,"Duration":120481,"SoundDuration":120481,"Delta":77758921},{"NoteNumber":70,"Velocity":51,"Duration":120482,"SoundDuration":120482,"Delta":77879403},{"NoteNumber":69,"Velocity":45,"Duration":163043,"SoundDuration":163043,"Delta":77999885},{"NoteNumber":77,"Velocity":70,"Duration":244898,"SoundDuration":244898,"Delta":78162929},{"NoteNumber":50,"Velocity":48,"Duration":244898,"SoundDuration":244898,"Delta":78162929},{"NoteNumber":41,"Velocity":40,"Duration":244898,"SoundDuration":244898,"Delta":78162929},{"NoteNumber":72,"Velocity":51,"Duration":120481,"SoundDuration":120481,"Delta":78407827},{"NoteNumber":71,"Velocity":44,"Duration":120482,"SoundDuration":120482,"Delta":78528309},{"NoteNumber":72,"Velocity":51,"Duration":120481,"SoundDuration":120481,"Delta":78648791},{"NoteNumber":71,"Velocity":43,"Duration":120481,"SoundDuration":120481,"Delta":78769273},{"NoteNumber":72,"Velocity":51,"Duration":120482,"SoundDuration":120482,"Delta":78889755},{"NoteNumber":71,"Velocity":45,"Duration":163043,"SoundDuration":163043,"Delta":79010237},{"NoteNumber":77,"Velocity":70,"Duration":122449,"SoundDuration":122449,"Delta":79173280},{"NoteNumber":41,"Velocity":40,"Duration":244898,"SoundDuration":244898,"Delta":79173280},{"NoteNumber":51,"Velocity":48,"Duration":244898,"SoundDuration":244898,"Delta":79173280},{"NoteNumber":74,"Velocity":51,"Duration":120481,"SoundDuration":120481,"Delta":79418178},{"NoteNumber":72,"Velocity":44,"Duration":142179,"SoundDuration":142179,"Delta":79538660},{"NoteNumber":77,"Velocity":70,"Duration":122449,"SoundDuration":122449,"Delta":79680840},{"NoteNumber":41,"Velocity":40,"Duration":244898,"SoundDuration":244898,"Delta":79680840},{"NoteNumber":50,"Velocity":48,"Duration":244898,"SoundDuration":244898,"Delta":79680840},{"NoteNumber":72,"Velocity":51,"Duration":120481,"SoundDuration":120481,"Delta":79925738},{"NoteNumber":70,"Velocity":44,"Duration":142857,"SoundDuration":142857,"Delta":80046220},{"NoteNumber":77,"Velocity":70,"Duration":122449,"SoundDuration":122449,"Delta":80189077},{"NoteNumber":41,"Velocity":40,"Duration":244898,"SoundDuration":244898,"Delta":80189077},{"NoteNumber":48,"Velocity":48,"Duration":244898,"SoundDuration":244898,"Delta":80189077},{"NoteNumber":70,"Velocity":51,"Duration":120481,"SoundDuration":120481,"Delta":80433975},{"NoteNumber":69,"Velocity":44,"Duration":141509,"SoundDuration":141509,"Delta":80554457},{"NoteNumber":77,"Velocity":70,"Duration":122449,"SoundDuration":122449,"Delta":80695967},{"NoteNumber":41,"Velocity":40,"Duration":244898,"SoundDuration":244898,"Delta":80695967},{"NoteNumber":50,"Velocity":48,"Duration":244898,"SoundDuration":244898,"Delta":80695967},{"NoteNumber":72,"Velocity":51,"Duration":120481,"SoundDuration":120481,"Delta":80940865},{"NoteNumber":70,"Velocity":44,"Duration":143540,"SoundDuration":143540,"Delta":81061347},{"NoteNumber":78,"Velocity":70,"Duration":244898,"SoundDuration":244898,"Delta":81204888},{"NoteNumber":48,"Velocity":48,"Duration":244898,"SoundDuration":244898,"Delta":81204888},{"NoteNumber":41,"Velocity":40,"Duration":244898,"SoundDuration":244898,"Delta":81204888},{"NoteNumber":70,"Velocity":51,"Duration":120481,"SoundDuration":120481,"Delta":81449786},{"NoteNumber":69,"Velocity":44,"Duration":120482,"SoundDuration":120482,"Delta":81570268},{"NoteNumber":70,"Velocity":51,"Duration":120481,"SoundDuration":120481,"Delta":81690750},{"NoteNumber":69,"Velocity":43,"Duration":120481,"SoundDuration":120481,"Delta":81811232},{"NoteNumber":70,"Velocity":51,"Duration":120482,"SoundDuration":120482,"Delta":81931714},{"NoteNumber":69,"Velocity":45,"Duration":163043,"SoundDuration":163043,"Delta":82052196},{"NoteNumber":77,"Velocity":70,"Duration":244898,"SoundDuration":244898,"Delta":82215239},{"NoteNumber":50,"Velocity":48,"Duration":244898,"SoundDuration":244898,"Delta":82215239},{"NoteNumber":41,"Velocity":40,"Duration":244898,"SoundDuration":244898,"Delta":82215239},{"NoteNumber":72,"Velocity":51,"Duration":120481,"SoundDuration":120481,"Delta":82460137},{"NoteNumber":71,"Velocity":44,"Duration":120482,"SoundDuration":120482,"Delta":82580619},{"NoteNumber":72,"Velocity":51,"Duration":120481,"SoundDuration":120481,"Delta":82701101},{"NoteNumber":71,"Velocity":43,"Duration":120481,"SoundDuration":120481,"Delta":82821583},{"NoteNumber":72,"Velocity":51,"Duration":120482,"SoundDuration":120482,"Delta":82942065},{"NoteNumber":71,"Velocity":45,"Duration":163043,"SoundDuration":163043,"Delta":83062547},{"NoteNumber":77,"Velocity":70,"Duration":122449,"SoundDuration":122449,"Delta":83225591},{"NoteNumber":41,"Velocity":40,"Duration":244898,"SoundDuration":244898,"Delta":83225591},{"NoteNumber":51,"Velocity":48,"Duration":244898,"SoundDuration":244898,"Delta":83225591},{"NoteNumber":74,"Velocity":51,"Duration":120481,"SoundDuration":120481,"Delta":83470489},{"NoteNumber":72,"Velocity":44,"Duration":142179,"SoundDuration":142179,"Delta":83590971},{"NoteNumber":77,"Velocity":70,"Duration":122449,"SoundDuration":122449,"Delta":83733151},{"NoteNumber":41,"Velocity":40,"Duration":244898,"SoundDuration":244898,"Delta":83733151},{"NoteNumber":50,"Velocity":48,"Duration":244898,"SoundDuration":244898,"Delta":83733151},{"NoteNumber":72,"Velocity":51,"Duration":120481,"SoundDuration":120481,"Delta":83978049},{"NoteNumber":71,"Velocity":44,"Duration":142857,"SoundDuration":142857,"Delta":84098531},{"NoteNumber":77,"Velocity":70,"Duration":122449,"SoundDuration":122449,"Delta":84241388},{"NoteNumber":51,"Velocity":48,"Duration":244898,"SoundDuration":244898,"Delta":84241388},{"NoteNumber":41,"Velocity":40,"Duration":244898,"SoundDuration":244898,"Delta":84241388},{"NoteNumber":74,"Velocity":51,"Duration":120481,"SoundDuration":120481,"Delta":84486286},{"NoteNumber":72,"Velocity":44,"Duration":141509,"SoundDuration":141509,"Delta":84606768},{"NoteNumber":77,"Velocity":64,"Duration":244898,"SoundDuration":244898,"Delta":84748277},{"NoteNumber":53,"Velocity":48,"Duration":244898,"SoundDuration":244898,"Delta":84748277},{"NoteNumber":72,"Velocity":59,"Duration":508541,"SoundDuration":508541,"Delta":84993175},{"NoteNumber":75,"Velocity":70,"Duration":508541,"SoundDuration":508541,"Delta":84993175},{"NoteNumber":55,"Velocity":38,"Duration":120481,"SoundDuration":120481,"Delta":84993175},{"NoteNumber":57,"Velocity":40,"Duration":131004,"SoundDuration":131004,"Delta":85113657},{"NoteNumber":65,"Velocity":45,"Duration":517369,"SoundDuration":517369,"Delta":85244662},{"NoteNumber":58,"Velocity":42,"Duration":126050,"SoundDuration":126050,"Delta":85244662},{"NoteNumber":60,"Velocity":44,"Duration":131004,"SoundDuration":131004,"Delta":85370712},{"NoteNumber":74,"Velocity":65,"Duration":260314,"SoundDuration":260314,"Delta":85501716},{"NoteNumber":70,"Velocity":55,"Duration":260314,"SoundDuration":260314,"Delta":85501716},{"NoteNumber":62,"Velocity":46,"Duration":131004,"SoundDuration":131004,"Delta":85501716},{"NoteNumber":63,"Velocity":48,"Duration":129310,"SoundDuration":129310,"Delta":85632721},{"NoteNumber":72,"Velocity":65,"Duration":251046,"SoundDuration":251046,"Delta":85762031},{"NoteNumber":69,"Velocity":55,"Duration":251046,"SoundDuration":251046,"Delta":85762031},{"NoteNumber":65,"Velocity":50,"Duration":251046,"SoundDuration":251046,"Delta":85762031},{"NoteNumber":84,"Velocity":59,"Duration":508541,"SoundDuration":508541,"Delta":86013077},{"NoteNumber":87,"Velocity":70,"Duration":508541,"SoundDuration":508541,"Delta":86013077},{"NoteNumber":67,"Velocity":38,"Duration":120481,"SoundDuration":120481,"Delta":86013077},{"NoteNumber":69,"Velocity":40,"Duration":131004,"SoundDuration":131004,"Delta":86133559},{"NoteNumber":77,"Velocity":45,"Duration":517369,"SoundDuration":517369,"Delta":86264563},{"NoteNumber":70,"Velocity":42,"Duration":126050,"SoundDuration":126050,"Delta":86264563},{"NoteNumber":72,"Velocity":44,"Duration":131004,"SoundDuration":131004,"Delta":86390614},{"NoteNumber":82,"Velocity":55,"Duration":260314,"SoundDuration":260314,"Delta":86521618},{"NoteNumber":86,"Velocity":65,"Duration":260314,"SoundDuration":260314,"Delta":86521618},{"NoteNumber":74,"Velocity":46,"Duration":131004,"SoundDuration":131004,"Delta":86521618},{"NoteNumber":75,"Velocity":48,"Duration":129310,"SoundDuration":129310,"Delta":86652622},{"NoteNumber":84,"Velocity":65,"Duration":251046,"SoundDuration":251046,"Delta":86781932},{"NoteNumber":81,"Velocity":55,"Duration":251046,"SoundDuration":251046,"Delta":86781932},{"NoteNumber":77,"Velocity":50,"Duration":251046,"SoundDuration":251046,"Delta":86781932},{"NoteNumber":91,"Velocity":77,"Duration":508541,"SoundDuration":508541,"Delta":87032978},{"NoteNumber":84,"Velocity":64,"Duration":251486,"SoundDuration":251486,"Delta":87032978},{"NoteNumber":81,"Velocity":64,"Duration":251486,"SoundDuration":251486,"Delta":87032978},{"NoteNumber":75,"Velocity":47,"Duration":251486,"SoundDuration":251486,"Delta":87032978},{"NoteNumber":77,"Velocity":65,"Duration":257054,"SoundDuration":257054,"Delta":87284465},{"NoteNumber":82,"Velocity":65,"Duration":257054,"SoundDuration":257054,"Delta":87284465},{"NoteNumber":74,"Velocity":56,"Duration":257054,"SoundDuration":257054,"Delta":87284465},{"NoteNumber":77,"Velocity":63,"Duration":260314,"SoundDuration":260314,"Delta":87541519},{"NoteNumber":89,"Velocity":75,"Duration":260314,"SoundDuration":260314,"Delta":87541519},{"NoteNumber":82,"Velocity":63,"Duration":260314,"SoundDuration":260314,"Delta":87541519},{"NoteNumber":73,"Velocity":46,"Duration":260314,"SoundDuration":260314,"Delta":87541519},{"NoteNumber":79,"Velocity":69,"Duration":251046,"SoundDuration":251046,"Delta":87801834},{"NoteNumber":82,"Velocity":69,"Duration":251046,"SoundDuration":251046,"Delta":87801834},{"NoteNumber":72,"Velocity":55,"Duration":251046,"SoundDuration":251046,"Delta":87801834},{"NoteNumber":87,"Velocity":79,"Duration":251046,"SoundDuration":251046,"Delta":88052880},{"NoteNumber":84,"Velocity":67,"Duration":251046,"SoundDuration":251046,"Delta":88052880},{"NoteNumber":81,"Velocity":67,"Duration":251046,"SoundDuration":251046,"Delta":88052880},{"NoteNumber":65,"Velocity":47,"Duration":251046,"SoundDuration":251046,"Delta":88052880},{"NoteNumber":86,"Velocity":88,"Duration":1005610,"SoundDuration":1005610,"Delta":88303926},{"NoteNumber":58,"Velocity":39,"Duration":1005610,"SoundDuration":1005610,"Delta":88303926},{"NoteNumber":77,"Velocity":49,"Duration":122449,"SoundDuration":122449,"Delta":88426375},{"NoteNumber":79,"Velocity":55,"Duration":125523,"SoundDuration":125523,"Delta":88548824},{"NoteNumber":61,"Velocity":39,"Duration":502092,"SoundDuration":502092,"Delta":88548824},{"NoteNumber":64,"Velocity":39,"Duration":502092,"SoundDuration":502092,"Delta":88548824},{"NoteNumber":77,"Velocity":50,"Duration":125523,"SoundDuration":125523,"Delta":88674347},{"NoteNumber":79,"Velocity":55,"Duration":125523,"SoundDuration":125523,"Delta":88799870},{"NoteNumber":77,"Velocity":47,"Duration":125523,"SoundDuration":125523,"Delta":88925393},{"NoteNumber":79,"Velocity":55,"Duration":129310,"SoundDuration":129310,"Delta":89050916},{"NoteNumber":62,"Velocity":39,"Duration":258620,"SoundDuration":258620,"Delta":89050916},{"NoteNumber":65,"Velocity":39,"Duration":258620,"SoundDuration":258620,"Delta":89050916},{"NoteNumber":77,"Velocity":48,"Duration":129310,"SoundDuration":129310,"Delta":89180226},{"NoteNumber":84,"Velocity":80,"Duration":1004747,"SoundDuration":1004747,"Delta":89309536},{"NoteNumber":58,"Velocity":39,"Duration":1004747,"SoundDuration":1004747,"Delta":89309536},{"NoteNumber":75,"Velocity":46,"Duration":121457,"SoundDuration":121457,"Delta":89430994},{"NoteNumber":77,"Velocity":54,"Duration":125523,"SoundDuration":125523,"Delta":89552451},{"NoteNumber":66,"Velocity":39,"Duration":502092,"SoundDuration":502092,"Delta":89552451},{"NoteNumber":69,"Velocity":39,"Duration":502092,"SoundDuration":502092,"Delta":89552451},{"NoteNumber":75,"Velocity":50,"Duration":125523,"SoundDuration":125523,"Delta":89677974},{"NoteNumber":77,"Velocity":53,"Duration":125523,"SoundDuration":125523,"Delta":89803497},{"NoteNumber":75,"Velocity":47,"Duration":125523,"SoundDuration":125523,"Delta":89929020},{"NoteNumber":77,"Velocity":53,"Duration":129870,"SoundDuration":129870,"Delta":90054543},{"NoteNumber":65,"Velocity":39,"Duration":259740,"SoundDuration":259740,"Delta":90054543},{"NoteNumber":75,"Velocity":48,"Duration":129870,"SoundDuration":129870,"Delta":90184414},{"NoteNumber":82,"Velocity":70,"Duration":500000,"SoundDuration":500000,"Delta":90314284},{"NoteNumber":74,"Velocity":53,"Duration":125000,"SoundDuration":125000,"Delta":90314284},{"NoteNumber":58,"Velocity":39,"Duration":1001595,"SoundDuration":1001595,"Delta":90314284},{"NoteNumber":70,"Velocity":48,"Duration":125000,"SoundDuration":125000,"Delta":90439284},{"NoteNumber":72,"Velocity":53,"Duration":125000,"SoundDuration":125000,"Delta":90564284},{"NoteNumber":62,"Velocity":33,"Duration":250000,"SoundDuration":250000,"Delta":90564284},{"NoteNumber":65,"Velocity":39,"Duration":250000,"SoundDuration":250000,"Delta":90564284},{"NoteNumber":70,"Velocity":48,"Duration":125000,"SoundDuration":125000,"Delta":90689284},{"NoteNumber":79,"Velocity":68,"Duration":245901,"SoundDuration":245901,"Delta":90814284},{"NoteNumber":63,"Velocity":33,"Duration":245901,"SoundDuration":245901,"Delta":90814284},{"NoteNumber":67,"Velocity":39,"Duration":245901,"SoundDuration":245901,"Delta":90814284},{"NoteNumber":70,"Velocity":48,"Duration":122950,"SoundDuration":122950,"Delta":90937235},{"NoteNumber":77,"Velocity":60,"Duration":255694,"SoundDuration":255694,"Delta":91060185},{"NoteNumber":62,"Velocity":30,"Duration":255694,"SoundDuration":255694,"Delta":91060185},{"NoteNumber":65,"Velocity":39,"Duration":255694,"SoundDuration":255694,"Delta":91060185},{"NoteNumber":70,"Velocity":48,"Duration":132743,"SoundDuration":132743,"Delta":91183136},{"NoteNumber":77,"Velocity":68,"Duration":247934,"SoundDuration":247934,"Delta":91315879},{"NoteNumber":70,"Velocity":53,"Duration":123966,"SoundDuration":123966,"Delta":91315879},{"NoteNumber":62,"Velocity":39,"Duration":247934,"SoundDuration":247934,"Delta":91315879},{"NoteNumber":53,"Velocity":39,"Duration":1014152,"SoundDuration":1014152,"Delta":91315879},{"NoteNumber":65,"Velocity":48,"Duration":123967,"SoundDuration":123967,"Delta":91439846},{"NoteNumber":69,"Velocity":53,"Duration":125523,"SoundDuration":125523,"Delta":91563813},{"NoteNumber":75,"Velocity":58,"Duration":251046,"SoundDuration":251046,"Delta":91563813},{"NoteNumber":63,"Velocity":39,"Duration":251046,"SoundDuration":251046,"Delta":91563813},{"NoteNumber":60,"Velocity":33,"Duration":251046,"SoundDuration":251046,"Delta":91563813},{"NoteNumber":65,"Velocity":48,"Duration":125523,"SoundDuration":125523,"Delta":91689336},{"NoteNumber":70,"Velocity":53,"Duration":126582,"SoundDuration":126582,"Delta":91814859},{"NoteNumber":74,"Velocity":66,"Duration":253164,"SoundDuration":253164,"Delta":91814859},{"NoteNumber":58,"Velocity":33,"Duration":253164,"SoundDuration":253164,"Delta":91814859},{"NoteNumber":62,"Velocity":39,"Duration":253164,"SoundDuration":253164,"Delta":91814859},{"NoteNumber":65,"Velocity":48,"Duration":126582,"SoundDuration":126582,"Delta":91941442},{"NoteNumber":72,"Velocity":57,"Duration":262008,"SoundDuration":262008,"Delta":92068024},{"NoteNumber":60,"Velocity":39,"Duration":262008,"SoundDuration":262008,"Delta":92068024},{"NoteNumber":57,"Velocity":30,"Duration":262008,"SoundDuration":262008,"Delta":92068024},{"NoteNumber":65,"Velocity":48,"Duration":131004,"SoundDuration":131004,"Delta":92199028},{"NoteNumber":74,"Velocity":79,"Duration":1005610,"SoundDuration":1005610,"Delta":92330032},{"NoteNumber":46,"Velocity":35,"Duration":1005610,"SoundDuration":1005610,"Delta":92330032},{"NoteNumber":65,"Velocity":44,"Duration":122449,"SoundDuration":122449,"Delta":92452481},{"NoteNumber":67,"Velocity":49,"Duration":125523,"SoundDuration":125523,"Delta":92574930},{"NoteNumber":49,"Velocity":35,"Duration":502092,"SoundDuration":502092,"Delta":92574930},{"NoteNumber":52,"Velocity":35,"Duration":502092,"SoundDuration":502092,"Delta":92574930},{"NoteNumber":65,"Velocity":45,"Duration":125523,"SoundDuration":125523,"Delta":92700453},{"NoteNumber":67,"Velocity":49,"Duration":125523,"SoundDuration":125523,"Delta":92825976},{"NoteNumber":65,"Velocity":42,"Duration":125523,"SoundDuration":125523,"Delta":92951499},{"NoteNumber":67,"Velocity":49,"Duration":129310,"SoundDuration":129310,"Delta":93077022},{"NoteNumber":53,"Velocity":35,"Duration":258620,"SoundDuration":258620,"Delta":93077022},{"NoteNumber":50,"Velocity":35,"Duration":258620,"SoundDuration":258620,"Delta":93077022},{"NoteNumber":65,"Velocity":43,"Duration":129310,"SoundDuration":129310,"Delta":93206333},{"NoteNumber":72,"Velocity":72,"Duration":1004747,"SoundDuration":1004747,"Delta":93335643},{"NoteNumber":46,"Velocity":35,"Duration":1004747,"SoundDuration":1004747,"Delta":93335643},{"NoteNumber":63,"Velocity":41,"Duration":121457,"SoundDuration":121457,"Delta":93457100},{"NoteNumber":65,"Velocity":48,"Duration":125523,"SoundDuration":125523,"Delta":93578558},{"NoteNumber":54,"Velocity":35,"Duration":502092,"SoundDuration":502092,"Delta":93578558},{"NoteNumber":57,"Velocity":35,"Duration":502092,"SoundDuration":502092,"Delta":93578558},{"NoteNumber":63,"Velocity":45,"Duration":125523,"SoundDuration":125523,"Delta":93704081},{"NoteNumber":65,"Velocity":47,"Duration":125523,"SoundDuration":125523,"Delta":93829604},{"NoteNumber":63,"Velocity":42,"Duration":125523,"SoundDuration":125523,"Delta":93955127},{"NoteNumber":65,"Velocity":47,"Duration":129870,"SoundDuration":129870,"Delta":94080650},{"NoteNumber":53,"Velocity":35,"Duration":259740,"SoundDuration":259740,"Delta":94080650},{"NoteNumber":63,"Velocity":43,"Duration":129870,"SoundDuration":129870,"Delta":94210520},{"NoteNumber":70,"Velocity":63,"Duration":500000,"SoundDuration":500000,"Delta":94340390},{"NoteNumber":62,"Velocity":47,"Duration":125000,"SoundDuration":125000,"Delta":94340390},{"NoteNumber":46,"Velocity":35,"Duration":1001595,"SoundDuration":1001595,"Delta":94340390},{"NoteNumber":58,"Velocity":43,"Duration":125000,"SoundDuration":125000,"Delta":94465390},{"NoteNumber":60,"Velocity":47,"Duration":125000,"SoundDuration":125000,"Delta":94590390},{"NoteNumber":50,"Velocity":29,"Duration":250000,"SoundDuration":250000,"Delta":94590390},{"NoteNumber":53,"Velocity":35,"Duration":250000,"SoundDuration":250000,"Delta":94590390},{"NoteNumber":58,"Velocity":43,"Duration":125000,"SoundDuration":125000,"Delta":94715390},{"NoteNumber":67,"Velocity":61,"Duration":245901,"SoundDuration":245901,"Delta":94840390},{"NoteNumber":55,"Velocity":35,"Duration":245901,"SoundDuration":245901,"Delta":94840390},{"NoteNumber":51,"Velocity":29,"Duration":245901,"SoundDuration":245901,"Delta":94840390},{"NoteNumber":58,"Velocity":43,"Duration":122950,"SoundDuration":122950,"Delta":94963341},{"NoteNumber":65,"Velocity":54,"Duration":255694,"SoundDuration":255694,"Delta":95086292},{"NoteNumber":50,"Velocity":27,"Duration":255694,"SoundDuration":255694,"Delta":95086292},{"NoteNumber":53,"Velocity":35,"Duration":255694,"SoundDuration":255694,"Delta":95086292},{"NoteNumber":58,"Velocity":43,"Duration":132743,"SoundDuration":132743,"Delta":95209243},{"NoteNumber":58,"Velocity":47,"Duration":123966,"SoundDuration":123966,"Delta":95341986},{"NoteNumber":65,"Velocity":61,"Duration":247934,"SoundDuration":247934,"Delta":95341986},{"NoteNumber":41,"Velocity":35,"Duration":1014152,"SoundDuration":1014152,"Delta":95341986},{"NoteNumber":50,"Velocity":35,"Duration":247934,"SoundDuration":247934,"Delta":95341986},{"NoteNumber":53,"Velocity":43,"Duration":123967,"SoundDuration":123967,"Delta":95465953},{"NoteNumber":63,"Velocity":52,"Duration":251046,"SoundDuration":251046,"Delta":95589920},{"NoteNumber":57,"Velocity":47,"Duration":125523,"SoundDuration":125523,"Delta":95589920},{"NoteNumber":48,"Velocity":29,"Duration":251046,"SoundDuration":251046,"Delta":95589920},{"NoteNumber":51,"Velocity":35,"Duration":251046,"SoundDuration":251046,"Delta":95589920},{"NoteNumber":53,"Velocity":43,"Duration":125523,"SoundDuration":125523,"Delta":95715443},{"NoteNumber":58,"Velocity":47,"Duration":126582,"SoundDuration":126582,"Delta":95840966},{"NoteNumber":62,"Velocity":59,"Duration":253164,"SoundDuration":253164,"Delta":95840966},{"NoteNumber":46,"Velocity":29,"Duration":253164,"SoundDuration":253164,"Delta":95840966},{"NoteNumber":50,"Velocity":35,"Duration":253164,"SoundDuration":253164,"Delta":95840966},{"NoteNumber":53,"Velocity":43,"Duration":126582,"SoundDuration":126582,"Delta":95967548},{"NoteNumber":60,"Velocity":51,"Duration":262008,"SoundDuration":262008,"Delta":96094130},{"NoteNumber":45,"Velocity":27,"Duration":262008,"SoundDuration":262008,"Delta":96094130},{"NoteNumber":48,"Velocity":35,"Duration":262008,"SoundDuration":262008,"Delta":96094130},{"NoteNumber":53,"Velocity":43,"Duration":131004,"SoundDuration":131004,"Delta":96225135},{"NoteNumber":58,"Velocity":57,"Duration":633096,"SoundDuration":633096,"Delta":96356139},{"NoteNumber":46,"Velocity":43,"Duration":382050,"SoundDuration":382050,"Delta":96356139},{"NoteNumber":34,"Velocity":43,"Duration":382050,"SoundDuration":382050,"Delta":96356139},{"NoteNumber":54,"Velocity":46,"Duration":376569,"SoundDuration":376569,"Delta":96487143},{"NoteNumber":50,"Velocity":55,"Duration":251046,"SoundDuration":251046,"Delta":96612666},{"NoteNumber":42,"Velocity":39,"Duration":125523,"SoundDuration":125523,"Delta":96738189},{"NoteNumber":41,"Velocity":45,"Duration":251046,"SoundDuration":251046,"Delta":96863712},{"NoteNumber":53,"Velocity":47,"Duration":125523,"SoundDuration":125523,"Delta":96999695},{"NoteNumber":50,"Velocity":47,"Duration":125523,"SoundDuration":125523,"Delta":97114758},{"NoteNumber":34,"Velocity":38,"Duration":256527,"SoundDuration":256527,"Delta":97114758},{"NoteNumber":58,"Velocity":47,"Duration":256527,"SoundDuration":256527,"Delta":97240281},{"NoteNumber":29,"Velocity":55,"Duration":251046,"SoundDuration":251046,"Delta":97371285},{"NoteNumber":53,"Velocity":47,"Duration":502092,"SoundDuration":502092,"Delta":97371285},{"NoteNumber":58,"Velocity":47,"Duration":125523,"SoundDuration":125523,"Delta":97496808},{"NoteNumber":57,"Velocity":51,"Duration":125523,"SoundDuration":125523,"Delta":97622331},{"NoteNumber":51,"Velocity":44,"Duration":125523,"SoundDuration":125523,"Delta":97622331},{"NoteNumber":58,"Velocity":49,"Duration":125523,"SoundDuration":125523,"Delta":97747854},{"NoteNumber":50,"Velocity":36,"Duration":125523,"SoundDuration":125523,"Delta":97747854},{"NoteNumber":60,"Velocity":52,"Duration":120967,"SoundDuration":120967,"Delta":97873377},{"NoteNumber":48,"Velocity":43,"Duration":120967,"SoundDuration":120967,"Delta":97873377},{"NoteNumber":62,"Velocity":44,"Duration":120967,"SoundDuration":120967,"Delta":97994345},{"NoteNumber":46,"Velocity":39,"Duration":120967,"SoundDuration":120967,"Delta":97994345},{"NoteNumber":63,"Velocity":51,"Duration":120967,"SoundDuration":120967,"Delta":98115313},{"NoteNumber":45,"Velocity":39,"Duration":120967,"SoundDuration":120967,"Delta":98115313},{"NoteNumber":41,"Velocity":39,"Duration":120967,"SoundDuration":120967,"Delta":98115313},{"NoteNumber":60,"Velocity":47,"Duration":142179,"SoundDuration":142179,"Delta":98236281},{"NoteNumber":53,"Velocity":39,"Duration":142179,"SoundDuration":142179,"Delta":98236281},{"NoteNumber":70,"Velocity":57,"Duration":633096,"SoundDuration":633096,"Delta":98378461},{"NoteNumber":46,"Velocity":43,"Duration":382050,"SoundDuration":382050,"Delta":98378461},{"NoteNumber":66,"Velocity":46,"Duration":376569,"SoundDuration":376569,"Delta":98509465},{"NoteNumber":62,"Velocity":55,"Duration":251046,"SoundDuration":251046,"Delta":98634988},{"NoteNumber":54,"Velocity":39,"Duration":125523,"SoundDuration":125523,"Delta":98760511},{"NoteNumber":53,"Velocity":45,"Duration":251046,"SoundDuration":251046,"Delta":98886034},{"NoteNumber":65,"Velocity":47,"Duration":125523,"SoundDuration":125523,"Delta":99022017},{"NoteNumber":62,"Velocity":47,"Duration":125523,"SoundDuration":125523,"Delta":99137080},{"NoteNumber":46,"Velocity":38,"Duration":256527,"SoundDuration":256527,"Delta":99137080},{"NoteNumber":70,"Velocity":47,"Duration":256527,"SoundDuration":256527,"Delta":99262603},{"NoteNumber":65,"Velocity":47,"Duration":502092,"SoundDuration":502092,"Delta":99393607},{"NoteNumber":41,"Velocity":55,"Duration":251046,"SoundDuration":251046,"Delta":99393607},{"NoteNumber":70,"Velocity":47,"Duration":125523,"SoundDuration":125523,"Delta":99519130},{"NoteNumber":69,"Velocity":51,"Duration":125523,"SoundDuration":125523,"Delta":99644653},{"NoteNumber":63,"Velocity":44,"Duration":125523,"SoundDuration":125523,"Delta":99644653},{"NoteNumber":70,"Velocity":49,"Duration":125523,"SoundDuration":125523,"Delta":99770176},{"NoteNumber":62,"Velocity":36,"Duration":125523,"SoundDuration":125523,"Delta":99770176},{"NoteNumber":72,"Velocity":52,"Duration":120967,"SoundDuration":120967,"Delta":99895699},{"NoteNumber":60,"Velocity":43,"Duration":120967,"SoundDuration":120967,"Delta":99895699},{"NoteNumber":74,"Velocity":44,"Duration":120967,"SoundDuration":120967,"Delta":100016667},{"NoteNumber":58,"Velocity":39,"Duration":120967,"SoundDuration":120967,"Delta":100016667},{"NoteNumber":75,"Velocity":51,"Duration":120967,"SoundDuration":120967,"Delta":100137635},{"NoteNumber":57,"Velocity":39,"Duration":120967,"SoundDuration":120967,"Delta":100137635},{"NoteNumber":53,"Velocity":39,"Duration":120967,"SoundDuration":120967,"Delta":100137635},{"NoteNumber":72,"Velocity":47,"Duration":142857,"SoundDuration":142857,"Delta":100258602},{"NoteNumber":60,"Velocity":39,"Duration":142857,"SoundDuration":142857,"Delta":100258602},{"NoteNumber":74,"Velocity":51,"Duration":120967,"SoundDuration":120967,"Delta":100401460},{"NoteNumber":58,"Velocity":39,"Duration":370967,"SoundDuration":370967,"Delta":100401460},{"NoteNumber":62,"Velocity":39,"Duration":370967,"SoundDuration":370967,"Delta":100401460},{"NoteNumber":72,"Velocity":42,"Duration":125000,"SoundDuration":125000,"Delta":100522427},{"NoteNumber":70,"Velocity":49,"Duration":373966,"SoundDuration":373966,"Delta":100647427},{"NoteNumber":60,"Velocity":33,"Duration":125000,"SoundDuration":125000,"Delta":100772427},{"NoteNumber":58,"Velocity":39,"Duration":368448,"SoundDuration":368448,"Delta":100897427},{"NoteNumber":67,"Velocity":41,"Duration":120000,"SoundDuration":120000,"Delta":101021394},{"NoteNumber":65,"Velocity":48,"Duration":373443,"SoundDuration":373443,"Delta":101141394},{"NoteNumber":55,"Velocity":34,"Duration":124481,"SoundDuration":124481,"Delta":101265876},{"NoteNumber":53,"Velocity":39,"Duration":370419,"SoundDuration":370419,"Delta":101390357},{"NoteNumber":63,"Velocity":42,"Duration":124481,"SoundDuration":124481,"Delta":101514838},{"NoteNumber":62,"Velocity":48,"Duration":368371,"SoundDuration":368371,"Delta":101639319},{"NoteNumber":51,"Velocity":35,"Duration":123456,"SoundDuration":123456,"Delta":101760777},{"NoteNumber":50,"Velocity":39,"Duration":370370,"SoundDuration":370370,"Delta":101884234},{"NoteNumber":60,"Velocity":42,"Duration":123456,"SoundDuration":123456,"Delta":102007690},{"NoteNumber":58,"Velocity":47,"Duration":368456,"SoundDuration":368456,"Delta":102131147},{"NoteNumber":48,"Velocity":33,"Duration":120000,"SoundDuration":120000,"Delta":102254604},{"NoteNumber":46,"Velocity":39,"Duration":375000,"SoundDuration":375000,"Delta":102374604},{"NoteNumber":55,"Velocity":41,"Duration":125000,"SoundDuration":125000,"Delta":102499604},{"NoteNumber":53,"Velocity":47,"Duration":368456,"SoundDuration":368456,"Delta":102624604},{"NoteNumber":43,"Velocity":31,"Duration":120000,"SoundDuration":120000,"Delta":102749604},{"NoteNumber":41,"Velocity":39,"Duration":370370,"SoundDuration":370370,"Delta":102869604},{"NoteNumber":51,"Velocity":38,"Duration":123456,"SoundDuration":123456,"Delta":102993061},{"NoteNumber":50,"Velocity":43,"Duration":366407,"SoundDuration":366407,"Delta":103116517},{"NoteNumber":39,"Velocity":34,"Duration":120000,"SoundDuration":120000,"Delta":103239974},{"NoteNumber":38,"Velocity":39,"Duration":368852,"SoundDuration":368852,"Delta":103359974},{"NoteNumber":48,"Velocity":37,"Duration":122950,"SoundDuration":122950,"Delta":103482925},{"NoteNumber":46,"Velocity":44,"Duration":366917,"SoundDuration":366917,"Delta":103605876},{"NoteNumber":36,"Velocity":35,"Duration":120000,"SoundDuration":120000,"Delta":103728826},{"NoteNumber":34,"Velocity":39,"Duration":393564,"SoundDuration":393564,"Delta":103848826},{"NoteNumber":48,"Velocity":36,"Duration":123967,"SoundDuration":123967,"Delta":103972793},{"NoteNumber":46,"Velocity":41,"Duration":561838,"SoundDuration":561838,"Delta":104096760},{"NoteNumber":68,"Velocity":37,"Duration":163043,"SoundDuration":163043,"Delta":104242391},{"NoteNumber":65,"Velocity":30,"Duration":163043,"SoundDuration":163043,"Delta":104242391},{"NoteNumber":65,"Velocity":36,"Duration":1012658,"SoundDuration":1012658,"Delta":104405435},{"NoteNumber":68,"Velocity":42,"Duration":1012658,"SoundDuration":1012658,"Delta":104405435},{"NoteNumber":63,"Velocity":36,"Duration":1030041,"SoundDuration":1030041,"Delta":105418093},{"NoteNumber":67,"Velocity":42,"Duration":1030041,"SoundDuration":1030041,"Delta":105418093},{"NoteNumber":70,"Velocity":45,"Duration":1030042,"SoundDuration":1030042,"Delta":106448135},{"NoteNumber":77,"Velocity":53,"Duration":1030042,"SoundDuration":1030042,"Delta":106448135},{"NoteNumber":62,"Velocity":36,"Duration":1030042,"SoundDuration":1030042,"Delta":106448135},{"NoteNumber":65,"Velocity":42,"Duration":1030042,"SoundDuration":1030042,"Delta":106448135},{"NoteNumber":70,"Velocity":43,"Duration":1111112,"SoundDuration":1111112,"Delta":107478177},{"NoteNumber":79,"Velocity":51,"Duration":1111112,"SoundDuration":1111112,"Delta":107478177},{"NoteNumber":63,"Velocity":42,"Duration":1111112,"SoundDuration":1111112,"Delta":107478177},{"NoteNumber":61,"Velocity":36,"Duration":1111112,"SoundDuration":1111112,"Delta":107478177},{"NoteNumber":80,"Velocity":77,"Duration":728745,"SoundDuration":728745,"Delta":108589289},{"NoteNumber":68,"Velocity":64,"Duration":728745,"SoundDuration":728745,"Delta":108589289},{"NoteNumber":63,"Velocity":77,"Duration":728745,"SoundDuration":728745,"Delta":108589289},{"NoteNumber":60,"Velocity":64,"Duration":728745,"SoundDuration":728745,"Delta":108589289},{"NoteNumber":67,"Velocity":59,"Duration":230599,"SoundDuration":230599,"Delta":109318034},{"NoteNumber":74,"Velocity":70,"Duration":107142,"SoundDuration":107142,"Delta":109318034},{"NoteNumber":59,"Velocity":51,"Duration":107142,"SoundDuration":107142,"Delta":109318034},{"NoteNumber":62,"Velocity":60,"Duration":107142,"SoundDuration":107142,"Delta":109318034},{"NoteNumber":79,"Velocity":67,"Duration":61728,"SoundDuration":61728,"Delta":109425177},{"NoteNumber":58,"Velocity":50,"Duration":61728,"SoundDuration":61728,"Delta":109425177},{"NoteNumber":61,"Velocity":59,"Duration":61728,"SoundDuration":61728,"Delta":109425177},{"NoteNumber":79,"Velocity":70,"Duration":243902,"SoundDuration":243902,"Delta":109548633},{"NoteNumber":67,"Velocity":59,"Duration":243902,"SoundDuration":243902,"Delta":109548633},{"NoteNumber":58,"Velocity":56,"Duration":243902,"SoundDuration":243902,"Delta":109548633},{"NoteNumber":61,"Velocity":67,"Duration":243902,"SoundDuration":243902,"Delta":109548633},{"NoteNumber":72,"Velocity":70,"Duration":106382,"SoundDuration":106382,"Delta":109792536},{"NoteNumber":65,"Velocity":59,"Duration":230864,"SoundDuration":230864,"Delta":109792536},{"NoteNumber":57,"Velocity":51,"Duration":106382,"SoundDuration":106382,"Delta":109792536},{"NoteNumber":60,"Velocity":60,"Duration":106382,"SoundDuration":106382,"Delta":109792536},{"NoteNumber":77,"Velocity":67,"Duration":62240,"SoundDuration":62240,"Delta":109898919},{"NoteNumber":59,"Velocity":59,"Duration":62240,"SoundDuration":62240,"Delta":109898919},{"NoteNumber":56,"Velocity":50,"Duration":62240,"SoundDuration":62240,"Delta":109898919},{"NoteNumber":77,"Velocity":70,"Duration":243902,"SoundDuration":243902,"Delta":110023400},{"NoteNumber":65,"Velocity":59,"Duration":243902,"SoundDuration":243902,"Delta":110023400},{"NoteNumber":56,"Velocity":56,"Duration":243902,"SoundDuration":243902,"Delta":110023400},{"NoteNumber":59,"Velocity":67,"Duration":243902,"SoundDuration":243902,"Delta":110023400},{"NoteNumber":63,"Velocity":59,"Duration":234588,"SoundDuration":234588,"Delta":110267303},{"NoteNumber":70,"Velocity":70,"Duration":106382,"SoundDuration":106382,"Delta":110267303},{"NoteNumber":55,"Velocity":51,"Duration":106382,"SoundDuration":106382,"Delta":110267303},{"NoteNumber":58,"Velocity":60,"Duration":106382,"SoundDuration":106382,"Delta":110267303},{"NoteNumber":75,"Velocity":67,"Duration":64102,"SoundDuration":64102,"Delta":110373686},{"NoteNumber":54,"Velocity":50,"Duration":64102,"SoundDuration":64102,"Delta":110373686},{"NoteNumber":57,"Velocity":59,"Duration":64102,"SoundDuration":64102,"Delta":110373686},{"NoteNumber":63,"Velocity":59,"Duration":497924,"SoundDuration":497924,"Delta":110501891},{"NoteNumber":70,"Velocity":59,"Duration":740839,"SoundDuration":740839,"Delta":110501891},{"NoteNumber":68,"Velocity":59,"Duration":740839,"SoundDuration":740839,"Delta":110501891},{"NoteNumber":75,"Velocity":70,"Duration":497924,"SoundDuration":497924,"Delta":110501891},{"NoteNumber":56,"Velocity":67,"Duration":740839,"SoundDuration":740839,"Delta":110501891},{"NoteNumber":53,"Velocity":56,"Duration":740839,"SoundDuration":740839,"Delta":110501891},{"NoteNumber":74,"Velocity":59,"Duration":242914,"SoundDuration":242914,"Delta":110999816},{"NoteNumber":62,"Velocity":50,"Duration":242914,"SoundDuration":242914,"Delta":110999816},{"NoteNumber":75,"Velocity":59,"Duration":242914,"SoundDuration":242914,"Delta":111242731},{"NoteNumber":70,"Velocity":50,"Duration":242914,"SoundDuration":242914,"Delta":111242731},{"NoteNumber":63,"Velocity":50,"Duration":242914,"SoundDuration":242914,"Delta":111242731},{"NoteNumber":51,"Velocity":38,"Duration":242914,"SoundDuration":242914,"Delta":111242731},{"NoteNumber":55,"Velocity":45,"Duration":242914,"SoundDuration":242914,"Delta":111242731},{"NoteNumber":70,"Velocity":48,"Duration":242915,"SoundDuration":242915,"Delta":111485646},{"NoteNumber":65,"Velocity":48,"Duration":242915,"SoundDuration":242915,"Delta":111485646},{"NoteNumber":77,"Velocity":57,"Duration":242915,"SoundDuration":242915,"Delta":111485646},{"NoteNumber":53,"Velocity":48,"Duration":242915,"SoundDuration":242915,"Delta":111485646},{"NoteNumber":50,"Velocity":40,"Duration":242915,"SoundDuration":242915,"Delta":111485646},{"NoteNumber":70,"Velocity":51,"Duration":242914,"SoundDuration":242914,"Delta":111728561},{"NoteNumber":79,"Velocity":60,"Duration":242914,"SoundDuration":242914,"Delta":111728561},{"NoteNumber":67,"Velocity":51,"Duration":242914,"SoundDuration":242914,"Delta":111728561},{"NoteNumber":48,"Velocity":42,"Duration":242914,"SoundDuration":242914,"Delta":111728561},{"NoteNumber":51,"Velocity":50,"Duration":242914,"SoundDuration":242914,"Delta":111728561},{"NoteNumber":68,"Velocity":54,"Duration":245901,"SoundDuration":245901,"Delta":111971476},{"NoteNumber":70,"Velocity":54,"Duration":245901,"SoundDuration":245901,"Delta":111971476},{"NoteNumber":80,"Velocity":64,"Duration":245901,"SoundDuration":245901,"Delta":111971476},{"NoteNumber":46,"Velocity":45,"Duration":245901,"SoundDuration":245901,"Delta":111971476},{"NoteNumber":50,"Velocity":53,"Duration":245901,"SoundDuration":245901,"Delta":111971476},{"NoteNumber":70,"Velocity":57,"Duration":256410,"SoundDuration":256410,"Delta":112217377},{"NoteNumber":82,"Velocity":68,"Duration":256410,"SoundDuration":256410,"Delta":112217377},{"NoteNumber":53,"Velocity":56,"Duration":256410,"SoundDuration":256410,"Delta":112217377},{"NoteNumber":50,"Velocity":47,"Duration":256410,"SoundDuration":256410,"Delta":112217377},{"NoteNumber":46,"Velocity":47,"Duration":256410,"SoundDuration":256410,"Delta":112217377},{"NoteNumber":70,"Velocity":66,"Duration":241935,"SoundDuration":241935,"Delta":112473788},{"NoteNumber":82,"Velocity":78,"Duration":241935,"SoundDuration":241935,"Delta":112473788},{"NoteNumber":67,"Velocity":66,"Duration":241935,"SoundDuration":241935,"Delta":112473788},{"NoteNumber":39,"Velocity":56,"Duration":120967,"SoundDuration":120967,"Delta":112473788},{"NoteNumber":46,"Velocity":40,"Duration":120967,"SoundDuration":120967,"Delta":112594756},{"NoteNumber":55,"Velocity":40,"Duration":120967,"SoundDuration":120967,"Delta":112715723},{"NoteNumber":46,"Velocity":40,"Duration":120967,"SoundDuration":120967,"Delta":112836691},{"NoteNumber":82,"Velocity":81,"Duration":241935,"SoundDuration":241935,"Delta":112957659},{"NoteNumber":70,"Velocity":69,"Duration":241935,"SoundDuration":241935,"Delta":112957659},{"NoteNumber":39,"Velocity":54,"Duration":120967,"SoundDuration":120967,"Delta":112957659},{"NoteNumber":46,"Velocity":44,"Duration":120967,"SoundDuration":120967,"Delta":113078627},{"NoteNumber":55,"Velocity":43,"Duration":125000,"SoundDuration":125000,"Delta":113199594},{"NoteNumber":46,"Velocity":43,"Duration":125000,"SoundDuration":125000,"Delta":113324594},{"NoteNumber":82,"Velocity":78,"Duration":725806,"SoundDuration":725806,"Delta":113449594},{"NoteNumber":94,"Velocity":93,"Duration":725806,"SoundDuration":725806,"Delta":113449594},{"NoteNumber":41,"Velocity":58,"Duration":120967,"SoundDuration":120967,"Delta":113449594},{"NoteNumber":46,"Velocity":49,"Duration":120967,"SoundDuration":120967,"Delta":113570562},{"NoteNumber":56,"Velocity":49,"Duration":120967,"SoundDuration":120967,"Delta":113691530},{"NoteNumber":46,"Velocity":47,"Duration":120967,"SoundDuration":120967,"Delta":113812498},{"NoteNumber":41,"Velocity":53,"Duration":120967,"SoundDuration":120967,"Delta":113933465},{"NoteNumber":46,"Velocity":44,"Duration":120967,"SoundDuration":120967,"Delta":114054433},{"NoteNumber":82,"Velocity":65,"Duration":967742,"SoundDuration":967742,"Delta":114175401},{"NoteNumber":70,"Velocity":55,"Duration":967742,"SoundDuration":967742,"Delta":114175401},{"NoteNumber":56,"Velocity":44,"Duration":120967,"SoundDuration":120967,"Delta":114175401},{"NoteNumber":46,"Velocity":44,"Duration":120967,"SoundDuration":120967,"Delta":114296369},{"NoteNumber":43,"Velocity":53,"Duration":120967,"SoundDuration":120967,"Delta":114417336},{"NoteNumber":46,"Velocity":43,"Duration":120967,"SoundDuration":120967,"Delta":114538304},{"NoteNumber":58,"Velocity":43,"Duration":120967,"SoundDuration":120967,"Delta":114659272},{"NoteNumber":46,"Velocity":43,"Duration":120967,"SoundDuration":120967,"Delta":114780240},{"NoteNumber":43,"Velocity":53,"Duration":120967,"SoundDuration":120967,"Delta":114901207},{"NoteNumber":46,"Velocity":43,"Duration":120967,"SoundDuration":120967,"Delta":115022175},{"NoteNumber":67,"Velocity":62,"Duration":253164,"SoundDuration":253164,"Delta":115143143},{"NoteNumber":79,"Velocity":62,"Duration":253164,"SoundDuration":253164,"Delta":115143143},{"NoteNumber":58,"Velocity":43,"Duration":126582,"SoundDuration":126582,"Delta":115143143},{"NoteNumber":46,"Velocity":43,"Duration":126582,"SoundDuration":126582,"Delta":115269725},{"NoteNumber":77,"Velocity":65,"Duration":239999,"SoundDuration":239999,"Delta":115396307},{"NoteNumber":65,"Velocity":55,"Duration":239999,"SoundDuration":239999,"Delta":115396307},{"NoteNumber":44,"Velocity":53,"Duration":120000,"SoundDuration":120000,"Delta":115396307},{"NoteNumber":46,"Velocity":44,"Duration":119999,"SoundDuration":119999,"Delta":115516307},{"NoteNumber":74,"Velocity":57,"Duration":240000,"SoundDuration":240000,"Delta":115636307},{"NoteNumber":62,"Velocity":48,"Duration":240000,"SoundDuration":240000,"Delta":115636307},{"NoteNumber":56,"Velocity":44,"Duration":120000,"SoundDuration":120000,"Delta":115636307},{"NoteNumber":46,"Velocity":44,"Duration":120000,"SoundDuration":120000,"Delta":115756307},{"NoteNumber":71,"Velocity":57,"Duration":239999,"SoundDuration":239999,"Delta":115876307},{"NoteNumber":59,"Velocity":48,"Duration":239999,"SoundDuration":239999,"Delta":115876307},{"NoteNumber":34,"Velocity":53,"Duration":119999,"SoundDuration":119999,"Delta":115876307},{"NoteNumber":46,"Velocity":46,"Duration":120000,"SoundDuration":120000,"Delta":115996307},{"NoteNumber":58,"Velocity":47,"Duration":251046,"SoundDuration":251046,"Delta":116116307},{"NoteNumber":70,"Velocity":56,"Duration":251046,"SoundDuration":251046,"Delta":116116307},{"NoteNumber":53,"Velocity":46,"Duration":125523,"SoundDuration":125523,"Delta":116116307},{"NoteNumber":46,"Velocity":46,"Duration":125523,"SoundDuration":125523,"Delta":116241830},{"NoteNumber":58,"Velocity":66,"Duration":241935,"SoundDuration":241935,"Delta":116367353},{"NoteNumber":70,"Velocity":78,"Duration":241935,"SoundDuration":241935,"Delta":116367353},{"NoteNumber":39,"Velocity":56,"Duration":120967,"SoundDuration":120967,"Delta":116367353},{"NoteNumber":46,"Velocity":40,"Duration":120967,"SoundDuration":120967,"Delta":116488321},{"NoteNumber":55,"Velocity":40,"Duration":120558,"SoundDuration":120558,"Delta":116609289},{"NoteNumber":46,"Velocity":40,"Duration":119741,"SoundDuration":119741,"Delta":116729848},{"NoteNumber":82,"Velocity":81,"Duration":239482,"SoundDuration":239482,"Delta":116849589},{"NoteNumber":70,"Velocity":69,"Duration":239482,"SoundDuration":239482,"Delta":116849589},{"NoteNumber":39,"Velocity":54,"Duration":119741,"SoundDuration":119741,"Delta":116849589},{"NoteNumber":46,"Velocity":44,"Duration":119741,"SoundDuration":119741,"Delta":116969330},{"NoteNumber":55,"Velocity":43,"Duration":125000,"SoundDuration":125000,"Delta":117089072},{"NoteNumber":46,"Velocity":43,"Duration":125000,"SoundDuration":125000,"Delta":117214072},{"NoteNumber":82,"Velocity":78,"Duration":725806,"SoundDuration":725806,"Delta":117339072},{"NoteNumber":94,"Velocity":93,"Duration":725806,"SoundDuration":725806,"Delta":117339072},{"NoteNumber":41,"Velocity":58,"Duration":120967,"SoundDuration":120967,"Delta":117339072},{"NoteNumber":46,"Velocity":49,"Duration":120967,"SoundDuration":120967,"Delta":117460039},{"NoteNumber":56,"Velocity":49,"Duration":120967,"SoundDuration":120967,"Delta":117581007},{"NoteNumber":46,"Velocity":47,"Duration":120967,"SoundDuration":120967,"Delta":117701975},{"NoteNumber":41,"Velocity":53,"Duration":120967,"SoundDuration":120967,"Delta":117822943},{"NoteNumber":46,"Velocity":44,"Duration":120967,"SoundDuration":120967,"Delta":117943910},{"NoteNumber":82,"Velocity":65,"Duration":961200,"SoundDuration":961200,"Delta":118064878},{"NoteNumber":70,"Velocity":55,"Duration":961200,"SoundDuration":961200,"Delta":118064878},{"NoteNumber":56,"Velocity":44,"Duration":120967,"SoundDuration":120967,"Delta":118064878},{"NoteNumber":46,"Velocity":44,"Duration":120967,"SoundDuration":120967,"Delta":118185846},{"NoteNumber":43,"Velocity":53,"Duration":120558,"SoundDuration":120558,"Delta":118306814},{"NoteNumber":51,"Velocity":43,"Duration":119741,"SoundDuration":119741,"Delta":118427373},{"NoteNumber":58,"Velocity":43,"Duration":119741,"SoundDuration":119741,"Delta":118547114},{"NoteNumber":51,"Velocity":43,"Duration":119741,"SoundDuration":119741,"Delta":118666855},{"NoteNumber":43,"Velocity":53,"Duration":119741,"SoundDuration":119741,"Delta":118786596},{"NoteNumber":51,"Velocity":43,"Duration":119741,"SoundDuration":119741,"Delta":118906338},{"NoteNumber":79,"Velocity":62,"Duration":253164,"SoundDuration":253164,"Delta":119026079},{"NoteNumber":67,"Velocity":62,"Duration":253164,"SoundDuration":253164,"Delta":119026079},{"NoteNumber":58,"Velocity":43,"Duration":126582,"SoundDuration":126582,"Delta":119026079},{"NoteNumber":51,"Velocity":43,"Duration":126582,"SoundDuration":126582,"Delta":119152661},{"NoteNumber":64,"Velocity":55,"Duration":239999,"SoundDuration":239999,"Delta":119279243},{"NoteNumber":76,"Velocity":65,"Duration":239999,"SoundDuration":239999,"Delta":119279243},{"NoteNumber":44,"Velocity":53,"Duration":120000,"SoundDuration":120000,"Delta":119279243},{"NoteNumber":51,"Velocity":44,"Duration":119999,"SoundDuration":119999,"Delta":119399243},{"NoteNumber":65,"Velocity":48,"Duration":240000,"SoundDuration":240000,"Delta":119519243},{"NoteNumber":77,"Velocity":57,"Duration":240000,"SoundDuration":240000,"Delta":119519243},{"NoteNumber":60,"Velocity":44,"Duration":120000,"SoundDuration":120000,"Delta":119519243},{"NoteNumber":51,"Velocity":44,"Duration":120000,"SoundDuration":120000,"Delta":119639243},{"NoteNumber":72,"Velocity":57,"Duration":239999,"SoundDuration":239999,"Delta":119759243},{"NoteNumber":60,"Velocity":48,"Duration":239999,"SoundDuration":239999,"Delta":119759243},{"NoteNumber":45,"Velocity":53,"Duration":119999,"SoundDuration":119999,"Delta":119759243},{"NoteNumber":53,"Velocity":46,"Duration":120000,"SoundDuration":120000,"Delta":119879243},{"NoteNumber":63,"Velocity":47,"Duration":251046,"SoundDuration":251046,"Delta":119999243},{"NoteNumber":75,"Velocity":56,"Duration":251046,"SoundDuration":251046,"Delta":119999243},{"NoteNumber":60,"Velocity":46,"Duration":125523,"SoundDuration":125523,"Delta":119999243},{"NoteNumber":53,"Velocity":46,"Duration":125523,"SoundDuration":125523,"Delta":120124766},{"NoteNumber":62,"Velocity":56,"Duration":125523,"SoundDuration":125523,"Delta":120250289},{"NoteNumber":74,"Velocity":56,"Duration":125523,"SoundDuration":125523,"Delta":120250289},{"NoteNumber":46,"Velocity":52,"Duration":246490,"SoundDuration":246490,"Delta":120250289},{"NoteNumber":58,"Velocity":52,"Duration":246490,"SoundDuration":246490,"Delta":120250289},{"NoteNumber":70,"Velocity":49,"Duration":120967,"SoundDuration":120967,"Delta":120375812},{"NoteNumber":69,"Velocity":51,"Duration":119741,"SoundDuration":119741,"Delta":120496780},{"NoteNumber":63,"Velocity":46,"Duration":119741,"SoundDuration":119741,"Delta":120496780},{"NoteNumber":70,"Velocity":53,"Duration":119741,"SoundDuration":119741,"Delta":120616521},{"NoteNumber":62,"Velocity":49,"Duration":119741,"SoundDuration":119741,"Delta":120616521},{"NoteNumber":72,"Velocity":55,"Duration":119741,"SoundDuration":119741,"Delta":120736263},{"NoteNumber":69,"Velocity":46,"Duration":119741,"SoundDuration":119741,"Delta":120736263},{"NoteNumber":60,"Velocity":48,"Duration":119741,"SoundDuration":119741,"Delta":120736263},{"NoteNumber":74,"Velocity":57,"Duration":119741,"SoundDuration":119741,"Delta":120856004},{"NoteNumber":70,"Velocity":48,"Duration":119741,"SoundDuration":119741,"Delta":120856004},{"NoteNumber":58,"Velocity":47,"Duration":119741,"SoundDuration":119741,"Delta":120856004},{"NoteNumber":72,"Velocity":50,"Duration":119741,"SoundDuration":119741,"Delta":120975745},{"NoteNumber":75,"Velocity":59,"Duration":119741,"SoundDuration":119741,"Delta":120975745},{"NoteNumber":57,"Velocity":46,"Duration":119741,"SoundDuration":119741,"Delta":120975745},{"NoteNumber":77,"Velocity":61,"Duration":128755,"SoundDuration":128755,"Delta":121095486},{"NoteNumber":74,"Velocity":51,"Duration":128755,"SoundDuration":128755,"Delta":121095486},{"NoteNumber":56,"Velocity":45,"Duration":128755,"SoundDuration":128755,"Delta":121095486},{"NoteNumber":79,"Velocity":63,"Duration":499872,"SoundDuration":499872,"Delta":121224242},{"NoteNumber":75,"Velocity":53,"Duration":499872,"SoundDuration":499872,"Delta":121224242},{"NoteNumber":55,"Velocity":44,"Duration":125000,"SoundDuration":125000,"Delta":121224242},{"NoteNumber":53,"Velocity":43,"Duration":125000,"SoundDuration":125000,"Delta":121349242},{"NoteNumber":51,"Velocity":42,"Duration":125000,"SoundDuration":125000,"Delta":121474242},{"NoteNumber":50,"Velocity":41,"Duration":124872,"SoundDuration":124872,"Delta":121599242},{"NoteNumber":84,"Velocity":62,"Duration":120466,"SoundDuration":120466,"Delta":121724115},{"NoteNumber":80,"Velocity":52,"Duration":120466,"SoundDuration":120466,"Delta":121724115},{"NoteNumber":51,"Velocity":40,"Duration":120466,"SoundDuration":120466,"Delta":121724115},{"NoteNumber":79,"Velocity":50,"Duration":120442,"SoundDuration":120442,"Delta":121844581},{"NoteNumber":82,"Velocity":59,"Duration":120442,"SoundDuration":120442,"Delta":121844581},{"NoteNumber":53,"Velocity":42,"Duration":120442,"SoundDuration":120442,"Delta":121844581},{"NoteNumber":77,"Velocity":47,"Duration":120733,"SoundDuration":120733,"Delta":121965024},{"NoteNumber":80,"Velocity":56,"Duration":120733,"SoundDuration":120733,"Delta":121965024},{"NoteNumber":55,"Velocity":44,"Duration":120733,"SoundDuration":120733,"Delta":121965024},{"NoteNumber":75,"Velocity":45,"Duration":121192,"SoundDuration":121192,"Delta":122085757},{"NoteNumber":79,"Velocity":53,"Duration":121192,"SoundDuration":121192,"Delta":122085757},{"NoteNumber":56,"Velocity":46,"Duration":121192,"SoundDuration":121192,"Delta":122085757},{"NoteNumber":77,"Velocity":61,"Duration":243200,"SoundDuration":243200,"Delta":122206950},{"NoteNumber":74,"Velocity":51,"Duration":243200,"SoundDuration":243200,"Delta":122206950},{"NoteNumber":58,"Velocity":48,"Duration":243200,"SoundDuration":243200,"Delta":122206950},{"NoteNumber":60,"Velocity":42,"Duration":121684,"SoundDuration":121684,"Delta":122450150},{"NoteNumber":62,"Velocity":46,"Duration":121684,"SoundDuration":121684,"Delta":122571834},{"NoteNumber":96,"Velocity":68,"Duration":121971,"SoundDuration":121971,"Delta":122693518},{"NoteNumber":92,"Velocity":57,"Duration":121971,"SoundDuration":121971,"Delta":122693518},{"NoteNumber":63,"Velocity":44,"Duration":121971,"SoundDuration":121971,"Delta":122693518},{"NoteNumber":94,"Velocity":64,"Duration":122469,"SoundDuration":122469,"Delta":122815490},{"NoteNumber":91,"Velocity":55,"Duration":122469,"SoundDuration":122469,"Delta":122815490},{"NoteNumber":65,"Velocity":46,"Duration":122469,"SoundDuration":122469,"Delta":122815490},{"NoteNumber":89,"Velocity":51,"Duration":122971,"SoundDuration":122971,"Delta":122937960},{"NoteNumber":92,"Velocity":61,"Duration":122971,"SoundDuration":122971,"Delta":122937960},{"NoteNumber":67,"Velocity":48,"Duration":122971,"SoundDuration":122971,"Delta":122937960},{"NoteNumber":87,"Velocity":49,"Duration":123478,"SoundDuration":123478,"Delta":123060932},{"NoteNumber":91,"Velocity":58,"Duration":123478,"SoundDuration":123478,"Delta":123060932},{"NoteNumber":68,"Velocity":50,"Duration":123478,"SoundDuration":123478,"Delta":123060932},{"NoteNumber":89,"Velocity":67,"Duration":247687,"SoundDuration":247687,"Delta":123184410},{"NoteNumber":86,"Velocity":56,"Duration":247687,"SoundDuration":247687,"Delta":123184410},{"NoteNumber":70,"Velocity":57,"Duration":247687,"SoundDuration":247687,"Delta":123184410},{"NoteNumber":84,"Velocity":68,"Duration":119741,"SoundDuration":119741,"Delta":123432097},{"NoteNumber":74,"Velocity":57,"Duration":119741,"SoundDuration":119741,"Delta":123432097},{"NoteNumber":68,"Velocity":46,"Duration":119741,"SoundDuration":119741,"Delta":123432097},{"NoteNumber":75,"Velocity":56,"Duration":120153,"SoundDuration":120153,"Delta":123551838},{"NoteNumber":82,"Velocity":67,"Duration":120153,"SoundDuration":120153,"Delta":123551838},{"NoteNumber":67,"Velocity":53,"Duration":120153,"SoundDuration":120153,"Delta":123551838},{"NoteNumber":80,"Velocity":67,"Duration":120539,"SoundDuration":120539,"Delta":123671992},{"NoteNumber":71,"Velocity":56,"Duration":120539,"SoundDuration":120539,"Delta":123671992},{"NoteNumber":65,"Velocity":52,"Duration":120539,"SoundDuration":120539,"Delta":123671992},{"NoteNumber":79,"Velocity":66,"Duration":121025,"SoundDuration":121025,"Delta":123792531},{"NoteNumber":72,"Velocity":56,"Duration":121025,"SoundDuration":121025,"Delta":123792531},{"NoteNumber":63,"Velocity":51,"Duration":121025,"SoundDuration":121025,"Delta":123792531},{"NoteNumber":67,"Velocity":55,"Duration":90996,"SoundDuration":90996,"Delta":123913557},{"NoteNumber":77,"Velocity":64,"Duration":90996,"SoundDuration":90996,"Delta":123913557},{"NoteNumber":62,"Velocity":50,"Duration":90996,"SoundDuration":90996,"Delta":123913557},{"NoteNumber":75,"Velocity":53,"Duration":91366,"SoundDuration":91366,"Delta":124034975},{"NoteNumber":78,"Velocity":63,"Duration":91366,"SoundDuration":91366,"Delta":124034975},{"NoteNumber":60,"Velocity":49,"Duration":91366,"SoundDuration":91366,"Delta":124034975},{"NoteNumber":79,"Velocity":61,"Duration":91836,"SoundDuration":91836,"Delta":124156904},{"NoteNumber":74,"Velocity":51,"Duration":91836,"SoundDuration":91836,"Delta":124156904},{"NoteNumber":59,"Velocity":47,"Duration":91836,"SoundDuration":91836,"Delta":124156904},{"NoteNumber":81,"Velocity":64,"Duration":91616,"SoundDuration":91616,"Delta":124279353},{"NoteNumber":74,"Velocity":55,"Duration":91616,"SoundDuration":91616,"Delta":124279353},{"NoteNumber":78,"Velocity":55,"Duration":91616,"SoundDuration":91616,"Delta":124279353},{"NoteNumber":57,"Velocity":48,"Duration":91616,"SoundDuration":91616,"Delta":124279353},{"NoteNumber":74,"Velocity":57,"Duration":91430,"SoundDuration":91430,"Delta":124401458},{"NoteNumber":79,"Velocity":57,"Duration":91430,"SoundDuration":91430,"Delta":124401458},{"NoteNumber":83,"Velocity":68,"Duration":91430,"SoundDuration":91430,"Delta":124401458},{"NoteNumber":55,"Velocity":51,"Duration":91430,"SoundDuration":91430,"Delta":124401458},{"NoteNumber":83,"Velocity":71,"Duration":91093,"SoundDuration":91093,"Delta":124523253},{"NoteNumber":74,"Velocity":60,"Duration":91093,"SoundDuration":91093,"Delta":124523253},{"NoteNumber":79,"Velocity":60,"Duration":91093,"SoundDuration":91093,"Delta":124523253},{"NoteNumber":53,"Velocity":55,"Duration":91093,"SoundDuration":91093,"Delta":124523253},{"NoteNumber":84,"Velocity":75,"Duration":90754,"SoundDuration":90754,"Delta":124644710},{"NoteNumber":79,"Velocity":63,"Duration":90754,"SoundDuration":90754,"Delta":124644710},{"NoteNumber":75,"Velocity":63,"Duration":90754,"SoundDuration":90754,"Delta":124644710},{"NoteNumber":51,"Velocity":59,"Duration":90754,"SoundDuration":90754,"Delta":124644710},{"NoteNumber":77,"Velocity":67,"Duration":90418,"SoundDuration":90418,"Delta":124765707},{"NoteNumber":86,"Velocity":79,"Duration":90418,"SoundDuration":90418,"Delta":124765707},{"NoteNumber":83,"Velocity":67,"Duration":90418,"SoundDuration":90418,"Delta":124765707},{"NoteNumber":50,"Velocity":62,"Duration":90418,"SoundDuration":90418,"Delta":124765707},{"NoteNumber":84,"Velocity":69,"Duration":91041,"SoundDuration":91041,"Delta":124886218},{"NoteNumber":87,"Velocity":82,"Duration":91041,"SoundDuration":91041,"Delta":124886218},{"NoteNumber":79,"Velocity":69,"Duration":91041,"SoundDuration":91041,"Delta":124886218},{"NoteNumber":48,"Velocity":66,"Duration":91041,"SoundDuration":91041,"Delta":124886218},{"NoteNumber":79,"Velocity":72,"Duration":92695,"SoundDuration":92695,"Delta":125007905},{"NoteNumber":84,"Velocity":72,"Duration":92695,"SoundDuration":92695,"Delta":125007905},{"NoteNumber":88,"Velocity":85,"Duration":92695,"SoundDuration":92695,"Delta":125007905},{"NoteNumber":46,"Velocity":58,"Duration":92695,"SoundDuration":92695,"Delta":125007905},{"NoteNumber":48,"Velocity":69,"Duration":92695,"SoundDuration":92695,"Delta":125007905},{"NoteNumber":88,"Velocity":89,"Duration":125000,"SoundDuration":125000,"Delta":125131821},{"NoteNumber":79,"Velocity":74,"Duration":125000,"SoundDuration":125000,"Delta":125131821},{"NoteNumber":84,"Velocity":74,"Duration":125000,"SoundDuration":125000,"Delta":125131821},{"NoteNumber":46,"Velocity":61,"Duration":125000,"SoundDuration":125000,"Delta":125131821},{"NoteNumber":48,"Velocity":72,"Duration":125000,"SoundDuration":125000,"Delta":125131821},{"NoteNumber":84,"Velocity":92,"Duration":142179,"SoundDuration":142179,"Delta":125631821},{"NoteNumber":77,"Velocity":92,"Duration":142179,"SoundDuration":142179,"Delta":125631821},{"NoteNumber":89,"Velocity":92,"Duration":142179,"SoundDuration":142179,"Delta":125631821},{"NoteNumber":48,"Velocity":75,"Duration":142179,"SoundDuration":142179,"Delta":125631821},{"NoteNumber":45,"Velocity":63,"Duration":142179,"SoundDuration":142179,"Delta":125631821},{"NoteNumber":75,"Velocity":84,"Duration":743802,"SoundDuration":743802,"Delta":126200541},{"NoteNumber":70,"Velocity":65,"Duration":1248226,"SoundDuration":1248226,"Delta":126200541},{"NoteNumber":48,"Velocity":65,"Duration":2005715,"SoundDuration":2005715,"Delta":126200541},{"NoteNumber":42,"Velocity":71,"Duration":743802,"SoundDuration":743802,"Delta":126200541},{"NoteNumber":77,"Velocity":85,"Duration":128755,"SoundDuration":128755,"Delta":126944343},{"NoteNumber":41,"Velocity":71,"Duration":128755,"SoundDuration":128755,"Delta":126944343},{"NoteNumber":78,"Velocity":93,"Duration":1004403,"SoundDuration":1004403,"Delta":127201853},{"NoteNumber":39,"Velocity":80,"Duration":1004403,"SoundDuration":1004403,"Delta":127201853},{"NoteNumber":70,"Velocity":61,"Duration":120481,"SoundDuration":120481,"Delta":127448767},{"NoteNumber":69,"Velocity":52,"Duration":120482,"SoundDuration":120482,"Delta":127569249},{"NoteNumber":70,"Velocity":61,"Duration":119265,"SoundDuration":119265,"Delta":127689731},{"NoteNumber":69,"Velocity":54,"Duration":119265,"SoundDuration":119265,"Delta":127808996},{"NoteNumber":70,"Velocity":61,"Duration":119265,"SoundDuration":119265,"Delta":127928261},{"NoteNumber":69,"Velocity":54,"Duration":158730,"SoundDuration":158730,"Delta":128047526},{"NoteNumber":75,"Velocity":84,"Duration":743801,"SoundDuration":743801,"Delta":128206257},{"NoteNumber":70,"Velocity":65,"Duration":1248225,"SoundDuration":1248225,"Delta":128206257},{"NoteNumber":48,"Velocity":65,"Duration":2011457,"SoundDuration":2011457,"Delta":128206257},{"NoteNumber":42,"Velocity":71,"Duration":743801,"SoundDuration":743801,"Delta":128206257},{"NoteNumber":77,"Velocity":85,"Duration":128755,"SoundDuration":128755,"Delta":128950059},{"NoteNumber":41,"Velocity":71,"Duration":128755,"SoundDuration":128755,"Delta":128950059},{"NoteNumber":79,"Velocity":93,"Duration":1010144,"SoundDuration":1010144,"Delta":129207569},{"NoteNumber":40,"Velocity":80,"Duration":1010144,"SoundDuration":1010144,"Delta":129207569},{"NoteNumber":70,"Velocity":61,"Duration":120482,"SoundDuration":120482,"Delta":129454483},{"NoteNumber":69,"Velocity":52,"Duration":120481,"SoundDuration":120481,"Delta":129574965},{"NoteNumber":70,"Velocity":61,"Duration":119741,"SoundDuration":119741,"Delta":129695447},{"NoteNumber":69,"Velocity":54,"Duration":119741,"SoundDuration":119741,"Delta":129815188},{"NoteNumber":70,"Velocity":61,"Duration":119741,"SoundDuration":119741,"Delta":129934929},{"NoteNumber":69,"Velocity":54,"Duration":163043,"SoundDuration":163043,"Delta":130054670},{"NoteNumber":78,"Velocity":70,"Duration":244898,"SoundDuration":244898,"Delta":130217714},{"NoteNumber":41,"Velocity":40,"Duration":244898,"SoundDuration":244898,"Delta":130217714},{"NoteNumber":48,"Velocity":48,"Duration":244898,"SoundDuration":244898,"Delta":130217714},{"NoteNumber":70,"Velocity":51,"Duration":120482,"SoundDuration":120482,"Delta":130462612},{"NoteNumber":69,"Velocity":44,"Duration":120481,"SoundDuration":120481,"Delta":130583094},{"NoteNumber":70,"Velocity":51,"Duration":120482,"SoundDuration":120482,"Delta":130703576},{"NoteNumber":69,"Velocity":43,"Duration":120482,"SoundDuration":120482,"Delta":130824058},{"NoteNumber":70,"Velocity":51,"Duration":120481,"SoundDuration":120481,"Delta":130944540},{"NoteNumber":69,"Velocity":45,"Duration":163043,"SoundDuration":163043,"Delta":131065022},{"NoteNumber":77,"Velocity":70,"Duration":244898,"SoundDuration":244898,"Delta":131228065},{"NoteNumber":41,"Velocity":40,"Duration":244898,"SoundDuration":244898,"Delta":131228065},{"NoteNumber":50,"Velocity":48,"Duration":244898,"SoundDuration":244898,"Delta":131228065},{"NoteNumber":72,"Velocity":51,"Duration":120482,"SoundDuration":120482,"Delta":131472963},{"NoteNumber":71,"Velocity":44,"Duration":120481,"SoundDuration":120481,"Delta":131593445},{"NoteNumber":72,"Velocity":51,"Duration":120482,"SoundDuration":120482,"Delta":131713927},{"NoteNumber":71,"Velocity":43,"Duration":120482,"SoundDuration":120482,"Delta":131834409},{"NoteNumber":72,"Velocity":51,"Duration":120481,"SoundDuration":120481,"Delta":131954891},{"NoteNumber":71,"Velocity":45,"Duration":163043,"SoundDuration":163043,"Delta":132075373},{"NoteNumber":77,"Velocity":70,"Duration":122448,"SoundDuration":122448,"Delta":132238417},{"NoteNumber":51,"Velocity":48,"Duration":244898,"SoundDuration":244898,"Delta":132238417},{"NoteNumber":41,"Velocity":40,"Duration":244898,"SoundDuration":244898,"Delta":132238417},{"NoteNumber":74,"Velocity":51,"Duration":118793,"SoundDuration":118793,"Delta":132483315},{"NoteNumber":72,"Velocity":44,"Duration":142179,"SoundDuration":142179,"Delta":132602108},{"NoteNumber":77,"Velocity":70,"Duration":122448,"SoundDuration":122448,"Delta":132744288},{"NoteNumber":41,"Velocity":40,"Duration":244898,"SoundDuration":244898,"Delta":132744288},{"NoteNumber":50,"Velocity":48,"Duration":244898,"SoundDuration":244898,"Delta":132744288},{"NoteNumber":72,"Velocity":51,"Duration":118324,"SoundDuration":118324,"Delta":132989186},{"NoteNumber":70,"Velocity":44,"Duration":142857,"SoundDuration":142857,"Delta":133107510},{"NoteNumber":77,"Velocity":70,"Duration":122448,"SoundDuration":122448,"Delta":133250368},{"NoteNumber":41,"Velocity":40,"Duration":244898,"SoundDuration":244898,"Delta":133250368},{"NoteNumber":48,"Velocity":48,"Duration":244898,"SoundDuration":244898,"Delta":133250368},{"NoteNumber":70,"Velocity":51,"Duration":120482,"SoundDuration":120482,"Delta":133495266},{"NoteNumber":69,"Velocity":44,"Duration":141509,"SoundDuration":141509,"Delta":133615748},{"NoteNumber":77,"Velocity":70,"Duration":122448,"SoundDuration":122448,"Delta":133757257},{"NoteNumber":41,"Velocity":40,"Duration":244898,"SoundDuration":244898,"Delta":133757257},{"NoteNumber":50,"Velocity":48,"Duration":244898,"SoundDuration":244898,"Delta":133757257},{"NoteNumber":72,"Velocity":51,"Duration":118793,"SoundDuration":118793,"Delta":134002155},{"NoteNumber":70,"Velocity":44,"Duration":143540,"SoundDuration":143540,"Delta":134120948},{"NoteNumber":78,"Velocity":70,"Duration":244898,"SoundDuration":244898,"Delta":134264489},{"NoteNumber":41,"Velocity":40,"Duration":244898,"SoundDuration":244898,"Delta":134264489},{"NoteNumber":48,"Velocity":48,"Duration":244898,"SoundDuration":244898,"Delta":134264489},{"NoteNumber":70,"Velocity":51,"Duration":120482,"SoundDuration":120482,"Delta":134509387},{"NoteNumber":69,"Velocity":44,"Duration":120481,"SoundDuration":120481,"Delta":134629869},{"NoteNumber":70,"Velocity":51,"Duration":120482,"SoundDuration":120482,"Delta":134750351},{"NoteNumber":69,"Velocity":43,"Duration":120482,"SoundDuration":120482,"Delta":134870833},{"NoteNumber":70,"Velocity":51,"Duration":120481,"SoundDuration":120481,"Delta":134991315},{"NoteNumber":69,"Velocity":45,"Duration":163043,"SoundDuration":163043,"Delta":135111797},{"NoteNumber":77,"Velocity":70,"Duration":244898,"SoundDuration":244898,"Delta":135274840},{"NoteNumber":41,"Velocity":40,"Duration":244898,"SoundDuration":244898,"Delta":135274840},{"NoteNumber":50,"Velocity":48,"Duration":244898,"SoundDuration":244898,"Delta":135274840},{"NoteNumber":72,"Velocity":51,"Duration":120482,"SoundDuration":120482,"Delta":135519738},{"NoteNumber":71,"Velocity":44,"Duration":120481,"SoundDuration":120481,"Delta":135640220},{"NoteNumber":72,"Velocity":51,"Duration":118793,"SoundDuration":118793,"Delta":135760702},{"NoteNumber":71,"Velocity":43,"Duration":118792,"SoundDuration":118792,"Delta":135879495},{"NoteNumber":72,"Velocity":51,"Duration":118793,"SoundDuration":118793,"Delta":135998288},{"NoteNumber":71,"Velocity":45,"Duration":163043,"SoundDuration":163043,"Delta":136117081},{"NoteNumber":77,"Velocity":70,"Duration":122448,"SoundDuration":122448,"Delta":136280125},{"NoteNumber":41,"Velocity":40,"Duration":244898,"SoundDuration":244898,"Delta":136280125},{"NoteNumber":51,"Velocity":48,"Duration":244898,"SoundDuration":244898,"Delta":136280125},{"NoteNumber":74,"Velocity":51,"Duration":120482,"SoundDuration":120482,"Delta":136525023},{"NoteNumber":72,"Velocity":44,"Duration":142179,"SoundDuration":142179,"Delta":136645505},{"NoteNumber":77,"Velocity":70,"Duration":122448,"SoundDuration":122448,"Delta":136787685},{"NoteNumber":41,"Velocity":40,"Duration":244898,"SoundDuration":244898,"Delta":136787685},{"NoteNumber":50,"Velocity":48,"Duration":244898,"SoundDuration":244898,"Delta":136787685},{"NoteNumber":72,"Velocity":51,"Duration":119741,"SoundDuration":119741,"Delta":137032583},{"NoteNumber":71,"Velocity":44,"Duration":142857,"SoundDuration":142857,"Delta":137152324},{"NoteNumber":77,"Velocity":70,"Duration":122448,"SoundDuration":122448,"Delta":137295181},{"NoteNumber":51,"Velocity":48,"Duration":244898,"SoundDuration":244898,"Delta":137295181},{"NoteNumber":41,"Velocity":40,"Duration":244898,"SoundDuration":244898,"Delta":137295181},{"NoteNumber":74,"Velocity":51,"Duration":120482,"SoundDuration":120482,"Delta":137540079},{"NoteNumber":72,"Velocity":44,"Duration":141509,"SoundDuration":141509,"Delta":137660561},{"NoteNumber":77,"Velocity":64,"Duration":244898,"SoundDuration":244898,"Delta":137802071},{"NoteNumber":53,"Velocity":48,"Duration":244783,"SoundDuration":244783,"Delta":137809214},{"NoteNumber":72,"Velocity":59,"Duration":508540,"SoundDuration":508540,"Delta":138046969},{"NoteNumber":75,"Velocity":70,"Duration":508540,"SoundDuration":508540,"Delta":138046969},{"NoteNumber":55,"Velocity":38,"Duration":120482,"SoundDuration":120482,"Delta":138046969},{"NoteNumber":57,"Velocity":40,"Duration":131004,"SoundDuration":131004,"Delta":138167451},{"NoteNumber":65,"Velocity":45,"Duration":517369,"SoundDuration":517369,"Delta":138298455},{"NoteNumber":58,"Velocity":42,"Duration":126050,"SoundDuration":126050,"Delta":138298455},{"NoteNumber":60,"Velocity":44,"Duration":131004,"SoundDuration":131004,"Delta":138424506},{"NoteNumber":74,"Velocity":65,"Duration":260314,"SoundDuration":260314,"Delta":138555510},{"NoteNumber":70,"Velocity":55,"Duration":260314,"SoundDuration":260314,"Delta":138555510},{"NoteNumber":62,"Velocity":46,"Duration":131004,"SoundDuration":131004,"Delta":138555510},{"NoteNumber":63,"Velocity":48,"Duration":129310,"SoundDuration":129310,"Delta":138686514},{"NoteNumber":72,"Velocity":65,"Duration":251046,"SoundDuration":251046,"Delta":138815824},{"NoteNumber":69,"Velocity":55,"Duration":251046,"SoundDuration":251046,"Delta":138815824},{"NoteNumber":65,"Velocity":50,"Duration":251046,"SoundDuration":251046,"Delta":138815824},{"NoteNumber":84,"Velocity":59,"Duration":508540,"SoundDuration":508540,"Delta":139066870},{"NoteNumber":87,"Velocity":70,"Duration":508540,"SoundDuration":508540,"Delta":139066870},{"NoteNumber":67,"Velocity":38,"Duration":120482,"SoundDuration":120482,"Delta":139066870},{"NoteNumber":69,"Velocity":40,"Duration":131004,"SoundDuration":131004,"Delta":139187352},{"NoteNumber":77,"Velocity":45,"Duration":517369,"SoundDuration":517369,"Delta":139318357},{"NoteNumber":70,"Velocity":42,"Duration":126050,"SoundDuration":126050,"Delta":139318357},{"NoteNumber":72,"Velocity":44,"Duration":131004,"SoundDuration":131004,"Delta":139444407},{"NoteNumber":86,"Velocity":65,"Duration":260314,"SoundDuration":260314,"Delta":139575411},{"NoteNumber":82,"Velocity":55,"Duration":260314,"SoundDuration":260314,"Delta":139575411},{"NoteNumber":74,"Velocity":46,"Duration":131004,"SoundDuration":131004,"Delta":139575411},{"NoteNumber":75,"Velocity":48,"Duration":129310,"SoundDuration":129310,"Delta":139706416},{"NoteNumber":81,"Velocity":55,"Duration":251046,"SoundDuration":251046,"Delta":139835726},{"NoteNumber":84,"Velocity":65,"Duration":251046,"SoundDuration":251046,"Delta":139835726},{"NoteNumber":77,"Velocity":50,"Duration":251046,"SoundDuration":251046,"Delta":139835726},{"NoteNumber":81,"Velocity":64,"Duration":251486,"SoundDuration":251486,"Delta":140086772},{"NoteNumber":84,"Velocity":64,"Duration":251486,"SoundDuration":251486,"Delta":140086772},{"NoteNumber":91,"Velocity":77,"Duration":508540,"SoundDuration":508540,"Delta":140086772},{"NoteNumber":75,"Velocity":47,"Duration":251486,"SoundDuration":251486,"Delta":140086772},{"NoteNumber":82,"Velocity":65,"Duration":257054,"SoundDuration":257054,"Delta":140338258},{"NoteNumber":77,"Velocity":65,"Duration":257054,"SoundDuration":257054,"Delta":140338258},{"NoteNumber":74,"Velocity":56,"Duration":257054,"SoundDuration":257054,"Delta":140338258},{"NoteNumber":82,"Velocity":63,"Duration":260314,"SoundDuration":260314,"Delta":140595313},{"NoteNumber":77,"Velocity":63,"Duration":260314,"SoundDuration":260314,"Delta":140595313},{"NoteNumber":89,"Velocity":75,"Duration":260314,"SoundDuration":260314,"Delta":140595313},{"NoteNumber":73,"Velocity":46,"Duration":260314,"SoundDuration":260314,"Delta":140595313},{"NoteNumber":82,"Velocity":69,"Duration":251046,"SoundDuration":251046,"Delta":140855627},{"NoteNumber":79,"Velocity":69,"Duration":251046,"SoundDuration":251046,"Delta":140855627},{"NoteNumber":72,"Velocity":55,"Duration":251046,"SoundDuration":251046,"Delta":140855627},{"NoteNumber":87,"Velocity":79,"Duration":251046,"SoundDuration":251046,"Delta":141106673},{"NoteNumber":81,"Velocity":67,"Duration":251046,"SoundDuration":251046,"Delta":141106673},{"NoteNumber":84,"Velocity":67,"Duration":251046,"SoundDuration":251046,"Delta":141106673},{"NoteNumber":65,"Velocity":47,"Duration":251046,"SoundDuration":251046,"Delta":141106673},{"NoteNumber":86,"Velocity":88,"Duration":1005610,"SoundDuration":1005610,"Delta":141357719},{"NoteNumber":58,"Velocity":39,"Duration":1005610,"SoundDuration":1005610,"Delta":141357719},{"NoteNumber":77,"Velocity":49,"Duration":122449,"SoundDuration":122449,"Delta":141480168},{"NoteNumber":79,"Velocity":55,"Duration":125522,"SoundDuration":125522,"Delta":141602617},{"NoteNumber":64,"Velocity":39,"Duration":502092,"SoundDuration":502092,"Delta":141602617},{"NoteNumber":61,"Velocity":39,"Duration":502092,"SoundDuration":502092,"Delta":141602617},{"NoteNumber":77,"Velocity":50,"Duration":125523,"SoundDuration":125523,"Delta":141728140},{"NoteNumber":79,"Velocity":55,"Duration":125522,"SoundDuration":125522,"Delta":141853663},{"NoteNumber":77,"Velocity":47,"Duration":125523,"SoundDuration":125523,"Delta":141979186},{"NoteNumber":79,"Velocity":55,"Duration":129310,"SoundDuration":129310,"Delta":142104709},{"NoteNumber":62,"Velocity":39,"Duration":258620,"SoundDuration":258620,"Delta":142104709},{"NoteNumber":65,"Velocity":39,"Duration":258620,"SoundDuration":258620,"Delta":142104709},{"NoteNumber":77,"Velocity":48,"Duration":129310,"SoundDuration":129310,"Delta":142234020},{"NoteNumber":84,"Velocity":80,"Duration":1004747,"SoundDuration":1004747,"Delta":142363330},{"NoteNumber":58,"Velocity":39,"Duration":1004747,"SoundDuration":1004747,"Delta":142363330},{"NoteNumber":75,"Velocity":46,"Duration":121457,"SoundDuration":121457,"Delta":142484787},{"NoteNumber":77,"Velocity":54,"Duration":125522,"SoundDuration":125522,"Delta":142606245},{"NoteNumber":66,"Velocity":39,"Duration":502092,"SoundDuration":502092,"Delta":142606245},{"NoteNumber":69,"Velocity":39,"Duration":502092,"SoundDuration":502092,"Delta":142606245},{"NoteNumber":75,"Velocity":50,"Duration":125523,"SoundDuration":125523,"Delta":142731768},{"NoteNumber":77,"Velocity":53,"Duration":125522,"SoundDuration":125522,"Delta":142857291},{"NoteNumber":75,"Velocity":47,"Duration":125523,"SoundDuration":125523,"Delta":142982814},{"NoteNumber":77,"Velocity":53,"Duration":129870,"SoundDuration":129870,"Delta":143108337},{"NoteNumber":65,"Velocity":39,"Duration":259740,"SoundDuration":259740,"Delta":143108337},{"NoteNumber":75,"Velocity":48,"Duration":129870,"SoundDuration":129870,"Delta":143238207},{"NoteNumber":74,"Velocity":53,"Duration":125000,"SoundDuration":125000,"Delta":143368077},{"NoteNumber":82,"Velocity":70,"Duration":500000,"SoundDuration":500000,"Delta":143368077},{"NoteNumber":58,"Velocity":39,"Duration":1001595,"SoundDuration":1001595,"Delta":143368077},{"NoteNumber":70,"Velocity":48,"Duration":125000,"SoundDuration":125000,"Delta":143493077},{"NoteNumber":72,"Velocity":53,"Duration":125000,"SoundDuration":125000,"Delta":143618077},{"NoteNumber":62,"Velocity":33,"Duration":250000,"SoundDuration":250000,"Delta":143618077},{"NoteNumber":65,"Velocity":39,"Duration":250000,"SoundDuration":250000,"Delta":143618077},{"NoteNumber":70,"Velocity":48,"Duration":125000,"SoundDuration":125000,"Delta":143743077},{"NoteNumber":79,"Velocity":68,"Duration":245901,"SoundDuration":245901,"Delta":143868077},{"NoteNumber":67,"Velocity":39,"Duration":245901,"SoundDuration":245901,"Delta":143868077},{"NoteNumber":63,"Velocity":33,"Duration":245901,"SoundDuration":245901,"Delta":143868077},{"NoteNumber":70,"Velocity":48,"Duration":122950,"SoundDuration":122950,"Delta":143991028},{"NoteNumber":77,"Velocity":60,"Duration":255694,"SoundDuration":255694,"Delta":144113979},{"NoteNumber":65,"Velocity":39,"Duration":255694,"SoundDuration":255694,"Delta":144113979},{"NoteNumber":62,"Velocity":30,"Duration":255694,"SoundDuration":255694,"Delta":144113979},{"NoteNumber":70,"Velocity":48,"Duration":132743,"SoundDuration":132743,"Delta":144236930},{"NoteNumber":70,"Velocity":53,"Duration":123966,"SoundDuration":123966,"Delta":144369673},{"NoteNumber":77,"Velocity":68,"Duration":247933,"SoundDuration":247933,"Delta":144369673},{"NoteNumber":62,"Velocity":39,"Duration":247933,"SoundDuration":247933,"Delta":144369673},{"NoteNumber":53,"Velocity":39,"Duration":1014152,"SoundDuration":1014152,"Delta":144369673},{"NoteNumber":65,"Velocity":48,"Duration":123966,"SoundDuration":123966,"Delta":144493640},{"NoteNumber":69,"Velocity":53,"Duration":125522,"SoundDuration":125522,"Delta":144617607},{"NoteNumber":75,"Velocity":58,"Duration":251046,"SoundDuration":251046,"Delta":144617607},{"NoteNumber":63,"Velocity":39,"Duration":251046,"SoundDuration":251046,"Delta":144617607},{"NoteNumber":60,"Velocity":33,"Duration":251046,"SoundDuration":251046,"Delta":144617607},{"NoteNumber":65,"Velocity":48,"Duration":125523,"SoundDuration":125523,"Delta":144743130},{"NoteNumber":74,"Velocity":66,"Duration":253164,"SoundDuration":253164,"Delta":144868653},{"NoteNumber":70,"Velocity":53,"Duration":126582,"SoundDuration":126582,"Delta":144868653},{"NoteNumber":58,"Velocity":33,"Duration":253164,"SoundDuration":253164,"Delta":144868653},{"NoteNumber":62,"Velocity":39,"Duration":253164,"SoundDuration":253164,"Delta":144868653},{"NoteNumber":65,"Velocity":48,"Duration":126582,"SoundDuration":126582,"Delta":144995235},{"NoteNumber":72,"Velocity":57,"Duration":262008,"SoundDuration":262008,"Delta":145121817},{"NoteNumber":60,"Velocity":39,"Duration":262008,"SoundDuration":262008,"Delta":145121817},{"NoteNumber":57,"Velocity":30,"Duration":262008,"SoundDuration":262008,"Delta":145121817},{"NoteNumber":65,"Velocity":48,"Duration":131004,"SoundDuration":131004,"Delta":145252822},{"NoteNumber":74,"Velocity":79,"Duration":1005610,"SoundDuration":1005610,"Delta":145383826},{"NoteNumber":46,"Velocity":35,"Duration":1005610,"SoundDuration":1005610,"Delta":145383826},{"NoteNumber":65,"Velocity":44,"Duration":122449,"SoundDuration":122449,"Delta":145506275},{"NoteNumber":67,"Velocity":49,"Duration":125522,"SoundDuration":125522,"Delta":145628724},{"NoteNumber":49,"Velocity":35,"Duration":502092,"SoundDuration":502092,"Delta":145628724},{"NoteNumber":52,"Velocity":35,"Duration":502092,"SoundDuration":502092,"Delta":145628724},{"NoteNumber":65,"Velocity":45,"Duration":125523,"SoundDuration":125523,"Delta":145754247},{"NoteNumber":67,"Velocity":49,"Duration":125522,"SoundDuration":125522,"Delta":145879770},{"NoteNumber":65,"Velocity":42,"Duration":125523,"SoundDuration":125523,"Delta":146005293},{"NoteNumber":67,"Velocity":49,"Duration":129310,"SoundDuration":129310,"Delta":146130816},{"NoteNumber":50,"Velocity":35,"Duration":258620,"SoundDuration":258620,"Delta":146130816},{"NoteNumber":53,"Velocity":35,"Duration":258620,"SoundDuration":258620,"Delta":146130816},{"NoteNumber":65,"Velocity":43,"Duration":129310,"SoundDuration":129310,"Delta":146260126},{"NoteNumber":72,"Velocity":72,"Duration":1004747,"SoundDuration":1004747,"Delta":146389436},{"NoteNumber":46,"Velocity":35,"Duration":1004747,"SoundDuration":1004747,"Delta":146389436},{"NoteNumber":63,"Velocity":41,"Duration":121457,"SoundDuration":121457,"Delta":146510894},{"NoteNumber":65,"Velocity":48,"Duration":125522,"SoundDuration":125522,"Delta":146632351},{"NoteNumber":54,"Velocity":35,"Duration":502092,"SoundDuration":502092,"Delta":146632351},{"NoteNumber":57,"Velocity":35,"Duration":502092,"SoundDuration":502092,"Delta":146632351},{"NoteNumber":63,"Velocity":45,"Duration":125523,"SoundDuration":125523,"Delta":146757874},{"NoteNumber":65,"Velocity":47,"Duration":125522,"SoundDuration":125522,"Delta":146883397},{"NoteNumber":63,"Velocity":42,"Duration":125523,"SoundDuration":125523,"Delta":147008920},{"NoteNumber":65,"Velocity":47,"Duration":129870,"SoundDuration":129870,"Delta":147134443},{"NoteNumber":53,"Velocity":35,"Duration":259740,"SoundDuration":259740,"Delta":147134443},{"NoteNumber":63,"Velocity":43,"Duration":129870,"SoundDuration":129870,"Delta":147264314},{"NoteNumber":70,"Velocity":63,"Duration":500000,"SoundDuration":500000,"Delta":147394184},{"NoteNumber":62,"Velocity":47,"Duration":125000,"SoundDuration":125000,"Delta":147394184},{"NoteNumber":46,"Velocity":35,"Duration":1001595,"SoundDuration":1001595,"Delta":147394184},{"NoteNumber":58,"Velocity":43,"Duration":125000,"SoundDuration":125000,"Delta":147519184},{"NoteNumber":60,"Velocity":47,"Duration":125000,"SoundDuration":125000,"Delta":147644184},{"NoteNumber":53,"Velocity":35,"Duration":250000,"SoundDuration":250000,"Delta":147644184},{"NoteNumber":50,"Velocity":29,"Duration":250000,"SoundDuration":250000,"Delta":147644184},{"NoteNumber":58,"Velocity":43,"Duration":125000,"SoundDuration":125000,"Delta":147769184},{"NoteNumber":67,"Velocity":61,"Duration":245901,"SoundDuration":245901,"Delta":147894184},{"NoteNumber":55,"Velocity":35,"Duration":245901,"SoundDuration":245901,"Delta":147894184},{"NoteNumber":51,"Velocity":29,"Duration":245901,"SoundDuration":245901,"Delta":147894184},{"NoteNumber":58,"Velocity":43,"Duration":122950,"SoundDuration":122950,"Delta":148017135},{"NoteNumber":65,"Velocity":54,"Duration":255694,"SoundDuration":255694,"Delta":148140085},{"NoteNumber":50,"Velocity":27,"Duration":255694,"SoundDuration":255694,"Delta":148140085},{"NoteNumber":53,"Velocity":35,"Duration":255694,"SoundDuration":255694,"Delta":148140085},{"NoteNumber":58,"Velocity":43,"Duration":132743,"SoundDuration":132743,"Delta":148263036},{"NoteNumber":58,"Velocity":47,"Duration":123966,"SoundDuration":123966,"Delta":148395779},{"NoteNumber":65,"Velocity":61,"Duration":247933,"SoundDuration":247933,"Delta":148395779},{"NoteNumber":50,"Velocity":35,"Duration":247933,"SoundDuration":247933,"Delta":148395779},{"NoteNumber":41,"Velocity":35,"Duration":1014152,"SoundDuration":1014152,"Delta":148395779},{"NoteNumber":53,"Velocity":43,"Duration":123966,"SoundDuration":123966,"Delta":148519746},{"NoteNumber":57,"Velocity":47,"Duration":125522,"SoundDuration":125522,"Delta":148643713},{"NoteNumber":63,"Velocity":52,"Duration":251046,"SoundDuration":251046,"Delta":148643713},{"NoteNumber":51,"Velocity":35,"Duration":251046,"SoundDuration":251046,"Delta":148643713},{"NoteNumber":48,"Velocity":29,"Duration":251046,"SoundDuration":251046,"Delta":148643713},{"NoteNumber":53,"Velocity":43,"Duration":125523,"SoundDuration":125523,"Delta":148769236},{"NoteNumber":62,"Velocity":59,"Duration":253164,"SoundDuration":253164,"Delta":148894759},{"NoteNumber":58,"Velocity":47,"Duration":126582,"SoundDuration":126582,"Delta":148894759},{"NoteNumber":46,"Velocity":29,"Duration":253164,"SoundDuration":253164,"Delta":148894759},{"NoteNumber":50,"Velocity":35,"Duration":253164,"SoundDuration":253164,"Delta":148894759},{"NoteNumber":53,"Velocity":43,"Duration":126582,"SoundDuration":126582,"Delta":149021342},{"NoteNumber":60,"Velocity":51,"Duration":262008,"SoundDuration":262008,"Delta":149147924},{"NoteNumber":45,"Velocity":27,"Duration":262008,"SoundDuration":262008,"Delta":149147924},{"NoteNumber":48,"Velocity":35,"Duration":262008,"SoundDuration":262008,"Delta":149147924},{"NoteNumber":53,"Velocity":43,"Duration":131004,"SoundDuration":131004,"Delta":149278928},{"NoteNumber":58,"Velocity":57,"Duration":633096,"SoundDuration":633096,"Delta":149409932},{"NoteNumber":34,"Velocity":43,"Duration":382050,"SoundDuration":382050,"Delta":149409932},{"NoteNumber":46,"Velocity":43,"Duration":382050,"SoundDuration":382050,"Delta":149409932},{"NoteNumber":54,"Velocity":46,"Duration":376568,"SoundDuration":376568,"Delta":149540937},{"NoteNumber":50,"Velocity":55,"Duration":251046,"SoundDuration":251046,"Delta":149666460},{"NoteNumber":42,"Velocity":39,"Duration":125522,"SoundDuration":125522,"Delta":149791983},{"NoteNumber":41,"Velocity":45,"Duration":251046,"SoundDuration":251046,"Delta":149917506},{"NoteNumber":53,"Velocity":47,"Duration":125523,"SoundDuration":125523,"Delta":150053489},{"NoteNumber":50,"Velocity":47,"Duration":125523,"SoundDuration":125523,"Delta":150168552},{"NoteNumber":34,"Velocity":38,"Duration":256527,"SoundDuration":256527,"Delta":150168552},{"NoteNumber":58,"Velocity":47,"Duration":256527,"SoundDuration":256527,"Delta":150294075},{"NoteNumber":29,"Velocity":55,"Duration":251046,"SoundDuration":251046,"Delta":150425079},{"NoteNumber":53,"Velocity":47,"Duration":502092,"SoundDuration":502092,"Delta":150425079},{"NoteNumber":58,"Velocity":47,"Duration":125523,"SoundDuration":125523,"Delta":150550602},{"NoteNumber":57,"Velocity":51,"Duration":125522,"SoundDuration":125522,"Delta":150676125},{"NoteNumber":51,"Velocity":44,"Duration":125522,"SoundDuration":125522,"Delta":150676125},{"NoteNumber":58,"Velocity":49,"Duration":125523,"SoundDuration":125523,"Delta":150801648},{"NoteNumber":50,"Velocity":36,"Duration":125523,"SoundDuration":125523,"Delta":150801648},{"NoteNumber":60,"Velocity":52,"Duration":120967,"SoundDuration":120967,"Delta":150927171},{"NoteNumber":48,"Velocity":43,"Duration":120967,"SoundDuration":120967,"Delta":150927171},{"NoteNumber":62,"Velocity":44,"Duration":120967,"SoundDuration":120967,"Delta":151048139},{"NoteNumber":46,"Velocity":39,"Duration":120967,"SoundDuration":120967,"Delta":151048139},{"NoteNumber":63,"Velocity":51,"Duration":120967,"SoundDuration":120967,"Delta":151169106},{"NoteNumber":41,"Velocity":39,"Duration":120967,"SoundDuration":120967,"Delta":151169106},{"NoteNumber":45,"Velocity":39,"Duration":120967,"SoundDuration":120967,"Delta":151169106},{"NoteNumber":60,"Velocity":47,"Duration":142179,"SoundDuration":142179,"Delta":151290074},{"NoteNumber":53,"Velocity":39,"Duration":142179,"SoundDuration":142179,"Delta":151290074},{"NoteNumber":70,"Velocity":57,"Duration":633096,"SoundDuration":633096,"Delta":151432254},{"NoteNumber":46,"Velocity":43,"Duration":382050,"SoundDuration":382050,"Delta":151432254},{"NoteNumber":66,"Velocity":46,"Duration":376568,"SoundDuration":376568,"Delta":151563258},{"NoteNumber":62,"Velocity":55,"Duration":251046,"SoundDuration":251046,"Delta":151688781},{"NoteNumber":54,"Velocity":39,"Duration":125522,"SoundDuration":125522,"Delta":151814304},{"NoteNumber":53,"Velocity":45,"Duration":251046,"SoundDuration":251046,"Delta":151939827},{"NoteNumber":65,"Velocity":47,"Duration":125522,"SoundDuration":125522,"Delta":152075811},{"NoteNumber":62,"Velocity":47,"Duration":125523,"SoundDuration":125523,"Delta":152190873},{"NoteNumber":46,"Velocity":38,"Duration":256527,"SoundDuration":256527,"Delta":152190873},{"NoteNumber":70,"Velocity":47,"Duration":256527,"SoundDuration":256527,"Delta":152316396},{"NoteNumber":65,"Velocity":47,"Duration":502092,"SoundDuration":502092,"Delta":152447401},{"NoteNumber":41,"Velocity":55,"Duration":251046,"SoundDuration":251046,"Delta":152447401},{"NoteNumber":70,"Velocity":47,"Duration":125523,"SoundDuration":125523,"Delta":152572924},{"NoteNumber":69,"Velocity":51,"Duration":125522,"SoundDuration":125522,"Delta":152698447},{"NoteNumber":63,"Velocity":44,"Duration":125522,"SoundDuration":125522,"Delta":152698447},{"NoteNumber":70,"Velocity":49,"Duration":125523,"SoundDuration":125523,"Delta":152823970},{"NoteNumber":62,"Velocity":36,"Duration":125523,"SoundDuration":125523,"Delta":152823970},{"NoteNumber":72,"Velocity":52,"Duration":120967,"SoundDuration":120967,"Delta":152949493},{"NoteNumber":60,"Velocity":43,"Duration":120967,"SoundDuration":120967,"Delta":152949493},{"NoteNumber":74,"Velocity":44,"Duration":120967,"SoundDuration":120967,"Delta":153070460},{"NoteNumber":58,"Velocity":39,"Duration":120967,"SoundDuration":120967,"Delta":153070460},{"NoteNumber":75,"Velocity":51,"Duration":120967,"SoundDuration":120967,"Delta":153191428},{"NoteNumber":53,"Velocity":39,"Duration":120967,"SoundDuration":120967,"Delta":153191428},{"NoteNumber":57,"Velocity":39,"Duration":120967,"SoundDuration":120967,"Delta":153191428},{"NoteNumber":72,"Velocity":47,"Duration":142857,"SoundDuration":142857,"Delta":153312396},{"NoteNumber":60,"Velocity":39,"Duration":142857,"SoundDuration":142857,"Delta":153312396},{"NoteNumber":74,"Velocity":51,"Duration":120967,"SoundDuration":120967,"Delta":153455253},{"NoteNumber":62,"Velocity":39,"Duration":370967,"SoundDuration":370967,"Delta":153455253},{"NoteNumber":58,"Velocity":39,"Duration":370967,"SoundDuration":370967,"Delta":153455253},{"NoteNumber":72,"Velocity":42,"Duration":125000,"SoundDuration":125000,"Delta":153576221},{"NoteNumber":70,"Velocity":49,"Duration":373966,"SoundDuration":373966,"Delta":153701221},{"NoteNumber":60,"Velocity":33,"Duration":125000,"SoundDuration":125000,"Delta":153826221},{"NoteNumber":58,"Velocity":39,"Duration":368448,"SoundDuration":368448,"Delta":153951221},{"NoteNumber":67,"Velocity":41,"Duration":120000,"SoundDuration":120000,"Delta":154075188},{"NoteNumber":65,"Velocity":48,"Duration":373443,"SoundDuration":373443,"Delta":154195188},{"NoteNumber":55,"Velocity":34,"Duration":124481,"SoundDuration":124481,"Delta":154319669},{"NoteNumber":53,"Velocity":39,"Duration":370419,"SoundDuration":370419,"Delta":154444150},{"NoteNumber":63,"Velocity":42,"Duration":124481,"SoundDuration":124481,"Delta":154568632},{"NoteNumber":62,"Velocity":48,"Duration":368370,"SoundDuration":368370,"Delta":154693113},{"NoteNumber":51,"Velocity":35,"Duration":123456,"SoundDuration":123456,"Delta":154814570},{"NoteNumber":50,"Velocity":39,"Duration":370370,"SoundDuration":370370,"Delta":154938027},{"NoteNumber":60,"Velocity":42,"Duration":123456,"SoundDuration":123456,"Delta":155061484},{"NoteNumber":58,"Velocity":47,"Duration":368456,"SoundDuration":368456,"Delta":155184941},{"NoteNumber":48,"Velocity":33,"Duration":120000,"SoundDuration":120000,"Delta":155308397},{"NoteNumber":46,"Velocity":39,"Duration":375000,"SoundDuration":375000,"Delta":155428397},{"NoteNumber":55,"Velocity":41,"Duration":125000,"SoundDuration":125000,"Delta":155553397},{"NoteNumber":53,"Velocity":47,"Duration":368456,"SoundDuration":368456,"Delta":155678397},{"NoteNumber":43,"Velocity":31,"Duration":120000,"SoundDuration":120000,"Delta":155803397},{"NoteNumber":41,"Velocity":39,"Duration":370370,"SoundDuration":370370,"Delta":155923397},{"NoteNumber":51,"Velocity":38,"Duration":123456,"SoundDuration":123456,"Delta":156046854},{"NoteNumber":50,"Velocity":43,"Duration":366407,"SoundDuration":366407,"Delta":156170311},{"NoteNumber":39,"Velocity":34,"Duration":120000,"SoundDuration":120000,"Delta":156293768},{"NoteNumber":38,"Velocity":39,"Duration":368852,"SoundDuration":368852,"Delta":156413768},{"NoteNumber":48,"Velocity":37,"Duration":122950,"SoundDuration":122950,"Delta":156536718},{"NoteNumber":46,"Velocity":44,"Duration":366917,"SoundDuration":366917,"Delta":156659669},{"NoteNumber":36,"Velocity":35,"Duration":120000,"SoundDuration":120000,"Delta":156782620},{"NoteNumber":34,"Velocity":39,"Duration":393564,"SoundDuration":393564,"Delta":156902620},{"NoteNumber":48,"Velocity":36,"Duration":123966,"SoundDuration":123966,"Delta":157026587},{"NoteNumber":46,"Velocity":41,"Duration":561838,"SoundDuration":561838,"Delta":157150554},{"NoteNumber":65,"Velocity":30,"Duration":163043,"SoundDuration":163043,"Delta":157296185},{"NoteNumber":68,"Velocity":37,"Duration":163043,"SoundDuration":163043,"Delta":157296185},{"NoteNumber":68,"Velocity":42,"Duration":1012657,"SoundDuration":1012657,"Delta":157459228},{"NoteNumber":65,"Velocity":36,"Duration":1012657,"SoundDuration":1012657,"Delta":157459228},{"NoteNumber":63,"Velocity":36,"Duration":1030042,"SoundDuration":1030042,"Delta":158471886},{"NoteNumber":67,"Velocity":42,"Duration":1030042,"SoundDuration":1030042,"Delta":158471886},{"NoteNumber":70,"Velocity":45,"Duration":1030041,"SoundDuration":1030041,"Delta":159501928},{"NoteNumber":77,"Velocity":53,"Duration":1030041,"SoundDuration":1030041,"Delta":159501928},{"NoteNumber":62,"Velocity":36,"Duration":1030041,"SoundDuration":1030041,"Delta":159501928},{"NoteNumber":65,"Velocity":42,"Duration":1030041,"SoundDuration":1030041,"Delta":159501928},{"NoteNumber":80,"Velocity":51,"Duration":1030042,"SoundDuration":1030042,"Delta":160531970},{"NoteNumber":68,"Velocity":43,"Duration":1030042,"SoundDuration":1030042,"Delta":160531970},{"NoteNumber":63,"Velocity":42,"Duration":1030042,"SoundDuration":1030042,"Delta":160531970},{"NoteNumber":60,"Velocity":36,"Duration":1030042,"SoundDuration":1030042,"Delta":160531970},{"NoteNumber":67,"Velocity":73,"Duration":728745,"SoundDuration":728745,"Delta":161562012},{"NoteNumber":79,"Velocity":88,"Duration":728745,"SoundDuration":728745,"Delta":161562012},{"NoteNumber":62,"Velocity":77,"Duration":728745,"SoundDuration":728745,"Delta":161562012},{"NoteNumber":59,"Velocity":64,"Duration":728745,"SoundDuration":728745,"Delta":161562012},{"NoteNumber":74,"Velocity":79,"Duration":98039,"SoundDuration":98039,"Delta":162290757},{"NoteNumber":58,"Velocity":51,"Duration":221496,"SoundDuration":221496,"Delta":162290757},{"NoteNumber":62,"Velocity":60,"Duration":221496,"SoundDuration":221496,"Delta":162290757},{"NoteNumber":79,"Velocity":76,"Duration":61728,"SoundDuration":61728,"Delta":162388797},{"NoteNumber":79,"Velocity":79,"Duration":243902,"SoundDuration":243902,"Delta":162512253},{"NoteNumber":67,"Velocity":66,"Duration":243902,"SoundDuration":243902,"Delta":162512253},{"NoteNumber":56,"Velocity":56,"Duration":243902,"SoundDuration":243902,"Delta":162512253},{"NoteNumber":60,"Velocity":67,"Duration":243902,"SoundDuration":243902,"Delta":162512253},{"NoteNumber":72,"Velocity":78,"Duration":99009,"SoundDuration":99009,"Delta":162756156},{"NoteNumber":77,"Velocity":74,"Duration":62240,"SoundDuration":62240,"Delta":162855166},{"NoteNumber":65,"Velocity":65,"Duration":243902,"SoundDuration":243902,"Delta":162979647},{"NoteNumber":77,"Velocity":77,"Duration":243902,"SoundDuration":243902,"Delta":162979647},{"NoteNumber":59,"Velocity":67,"Duration":243902,"SoundDuration":243902,"Delta":162979647},{"NoteNumber":56,"Velocity":56,"Duration":243902,"SoundDuration":243902,"Delta":162979647},{"NoteNumber":72,"Velocity":77,"Duration":99009,"SoundDuration":99009,"Delta":163223550},{"NoteNumber":75,"Velocity":73,"Duration":64102,"SoundDuration":64102,"Delta":163322560},{"NoteNumber":63,"Velocity":63,"Duration":243902,"SoundDuration":243902,"Delta":163450765},{"NoteNumber":75,"Velocity":75,"Duration":243902,"SoundDuration":243902,"Delta":163450765},{"NoteNumber":60,"Velocity":62,"Duration":243902,"SoundDuration":243902,"Delta":163450765},{"NoteNumber":55,"Velocity":52,"Duration":243902,"SoundDuration":243902,"Delta":163450765},{"NoteNumber":69,"Velocity":74,"Duration":101010,"SoundDuration":101010,"Delta":163694667},{"NoteNumber":60,"Velocity":49,"Duration":225491,"SoundDuration":225491,"Delta":163694667},{"NoteNumber":54,"Velocity":41,"Duration":225491,"SoundDuration":225491,"Delta":163694667},{"NoteNumber":74,"Velocity":71,"Duration":62240,"SoundDuration":62240,"Delta":163795677},{"NoteNumber":62,"Velocity":62,"Duration":279069,"SoundDuration":279069,"Delta":163920159},{"NoteNumber":74,"Velocity":74,"Duration":279069,"SoundDuration":279069,"Delta":163920159},{"NoteNumber":67,"Velocity":62,"Duration":279069,"SoundDuration":279069,"Delta":163920159},{"NoteNumber":59,"Velocity":61,"Duration":279069,"SoundDuration":279069,"Delta":163920159},{"NoteNumber":53,"Velocity":51,"Duration":279069,"SoundDuration":279069,"Delta":163920159},{"NoteNumber":55,"Velocity":51,"Duration":279069,"SoundDuration":279069,"Delta":163920159},{"NoteNumber":72,"Velocity":64,"Duration":285714,"SoundDuration":285714,"Delta":164199229},{"NoteNumber":79,"Velocity":64,"Duration":119047,"SoundDuration":119047,"Delta":164199229},{"NoteNumber":55,"Velocity":34,"Duration":285714,"SoundDuration":285714,"Delta":164199229},{"NoteNumber":60,"Velocity":41,"Duration":285714,"SoundDuration":285714,"Delta":164199229},{"NoteNumber":51,"Velocity":34,"Duration":285714,"SoundDuration":285714,"Delta":164199229},{"NoteNumber":84,"Velocity":57,"Duration":83333,"SoundDuration":83333,"Delta":164318276},{"NoteNumber":65,"Velocity":45,"Duration":979591,"SoundDuration":979591,"Delta":164484943},{"NoteNumber":63,"Velocity":45,"Duration":979591,"SoundDuration":979591,"Delta":165464535},{"NoteNumber":66,"Velocity":38,"Duration":1689381,"SoundDuration":1689381,"Delta":166444127},{"NoteNumber":69,"Velocity":38,"Duration":1689381,"SoundDuration":1689381,"Delta":166444127},{"NoteNumber":75,"Velocity":45,"Duration":1689381,"SoundDuration":1689381,"Delta":166444127},{"NoteNumber":48,"Velocity":50,"Duration":99667,"SoundDuration":99667,"Delta":166689025},{"NoteNumber":54,"Velocity":41,"Duration":64102,"SoundDuration":64102,"Delta":166788693},{"NoteNumber":54,"Velocity":48,"Duration":122448,"SoundDuration":122448,"Delta":166916898},{"NoteNumber":45,"Velocity":47,"Duration":101695,"SoundDuration":101695,"Delta":167161796},{"NoteNumber":51,"Velocity":37,"Duration":65217,"SoundDuration":65217,"Delta":167263491},{"NoteNumber":51,"Velocity":48,"Duration":121951,"SoundDuration":121951,"Delta":167393926},{"NoteNumber":41,"Velocity":48,"Duration":103806,"SoundDuration":103806,"Delta":167637828},{"NoteNumber":48,"Velocity":39,"Duration":65502,"SoundDuration":65502,"Delta":167741634},{"NoteNumber":48,"Velocity":48,"Duration":130434,"SoundDuration":130434,"Delta":167872639},{"NoteNumber":70,"Velocity":45,"Duration":129310,"SoundDuration":129310,"Delta":168133508},{"NoteNumber":73,"Velocity":45,"Duration":129310,"SoundDuration":129310,"Delta":168133508},{"NoteNumber":65,"Velocity":45,"Duration":129310,"SoundDuration":129310,"Delta":168133508},{"NoteNumber":49,"Velocity":45,"Duration":129310,"SoundDuration":129310,"Delta":168133508},{"NoteNumber":73,"Velocity":55,"Duration":963855,"SoundDuration":963855,"Delta":168392129},{"NoteNumber":72,"Velocity":50,"Duration":963856,"SoundDuration":963856,"Delta":169355985},{"NoteNumber":74,"Velocity":45,"Duration":1957062,"SoundDuration":1957062,"Delta":170319841},{"NoteNumber":72,"Velocity":45,"Duration":1957062,"SoundDuration":1957062,"Delta":170319841},{"NoteNumber":81,"Velocity":45,"Duration":1957062,"SoundDuration":1957062,"Delta":170319841},{"NoteNumber":78,"Velocity":45,"Duration":1957062,"SoundDuration":1957062,"Delta":170319841},{"NoteNumber":62,"Velocity":50,"Duration":99337,"SoundDuration":99337,"Delta":170564739},{"NoteNumber":69,"Velocity":41,"Duration":64102,"SoundDuration":64102,"Delta":170664076},{"NoteNumber":69,"Velocity":48,"Duration":122448,"SoundDuration":122448,"Delta":170792282},{"NoteNumber":54,"Velocity":47,"Duration":100671,"SoundDuration":100671,"Delta":171037180},{"NoteNumber":60,"Velocity":37,"Duration":65217,"SoundDuration":65217,"Delta":171137851},{"NoteNumber":60,"Velocity":48,"Duration":121951,"SoundDuration":121951,"Delta":171268286},{"NoteNumber":50,"Velocity":48,"Duration":101351,"SoundDuration":101351,"Delta":171512188},{"NoteNumber":57,"Velocity":39,"Duration":65502,"SoundDuration":65502,"Delta":171613539},{"NoteNumber":57,"Velocity":48,"Duration":130434,"SoundDuration":130434,"Delta":171744544},{"NoteNumber":38,"Velocity":48,"Duration":129310,"SoundDuration":129310,"Delta":172005413},{"NoteNumber":50,"Velocity":39,"Duration":71089,"SoundDuration":71089,"Delta":172134723},{"NoteNumber":72,"Velocity":55,"Duration":963855,"SoundDuration":963855,"Delta":172276903},{"NoteNumber":71,"Velocity":50,"Duration":963856,"SoundDuration":963856,"Delta":173240759},{"NoteNumber":71,"Velocity":45,"Duration":1947234,"SoundDuration":1947234,"Delta":174204615},{"NoteNumber":75,"Velocity":45,"Duration":1947234,"SoundDuration":1947234,"Delta":174204615},{"NoteNumber":81,"Velocity":45,"Duration":1947234,"SoundDuration":1947234,"Delta":174204615},{"NoteNumber":78,"Velocity":45,"Duration":1947234,"SoundDuration":1947234,"Delta":174204615},{"NoteNumber":54,"Velocity":50,"Duration":101010,"SoundDuration":101010,"Delta":174449513},{"NoteNumber":63,"Velocity":41,"Duration":64102,"SoundDuration":64102,"Delta":174550523},{"NoteNumber":63,"Velocity":48,"Duration":122448,"SoundDuration":122448,"Delta":174678729},{"NoteNumber":51,"Velocity":47,"Duration":101351,"SoundDuration":101351,"Delta":174923627},{"NoteNumber":59,"Velocity":37,"Duration":65217,"SoundDuration":65217,"Delta":175024978},{"NoteNumber":59,"Velocity":48,"Duration":121951,"SoundDuration":121951,"Delta":175155413},{"NoteNumber":47,"Velocity":48,"Duration":102040,"SoundDuration":102040,"Delta":175399315},{"NoteNumber":54,"Velocity":39,"Duration":65502,"SoundDuration":65502,"Delta":175501356},{"NoteNumber":54,"Velocity":48,"Duration":130434,"SoundDuration":130434,"Delta":175632360},{"NoteNumber":42,"Velocity":48,"Duration":129310,"SoundDuration":129310,"Delta":175893230},{"NoteNumber":51,"Velocity":39,"Duration":64655,"SoundDuration":64655,"Delta":176022540},{"NoteNumber":71,"Velocity":55,"Duration":963855,"SoundDuration":963855,"Delta":176151850},{"NoteNumber":70,"Velocity":50,"Duration":963856,"SoundDuration":963856,"Delta":177115706},{"NoteNumber":74,"Velocity":45,"Duration":1196088,"SoundDuration":1196088,"Delta":178079562},{"NoteNumber":77,"Velocity":45,"Duration":1196088,"SoundDuration":1196088,"Delta":178079562},{"NoteNumber":70,"Velocity":45,"Duration":1196088,"SoundDuration":1196088,"Delta":178079562},{"NoteNumber":80,"Velocity":45,"Duration":1196088,"SoundDuration":1196088,"Delta":178079562},{"NoteNumber":56,"Velocity":50,"Duration":101010,"SoundDuration":101010,"Delta":178324460},{"NoteNumber":65,"Velocity":41,"Duration":64102,"SoundDuration":64102,"Delta":178425470},{"NoteNumber":65,"Velocity":48,"Duration":122448,"SoundDuration":122448,"Delta":178553675},{"NoteNumber":53,"Velocity":47,"Duration":102739,"SoundDuration":102739,"Delta":178798573},{"NoteNumber":62,"Velocity":37,"Duration":65217,"SoundDuration":65217,"Delta":178901313},{"NoteNumber":62,"Velocity":48,"Duration":121951,"SoundDuration":121951,"Delta":179031748},{"NoteNumber":82,"Velocity":62,"Duration":232699,"SoundDuration":232699,"Delta":179275650},{"NoteNumber":50,"Velocity":40,"Duration":101695,"SoundDuration":101695,"Delta":179275650},{"NoteNumber":53,"Velocity":48,"Duration":101695,"SoundDuration":101695,"Delta":179275650},{"NoteNumber":53,"Velocity":33,"Duration":65502,"SoundDuration":65502,"Delta":179377345},{"NoteNumber":56,"Velocity":39,"Duration":65502,"SoundDuration":65502,"Delta":179377345},{"NoteNumber":83,"Velocity":69,"Duration":260869,"SoundDuration":260869,"Delta":179508350},{"NoteNumber":53,"Velocity":40,"Duration":130434,"SoundDuration":130434,"Delta":179508350},{"NoteNumber":56,"Velocity":48,"Duration":130434,"SoundDuration":130434,"Delta":179508350},{"NoteNumber":82,"Velocity":62,"Duration":258620,"SoundDuration":258620,"Delta":179769219},{"NoteNumber":53,"Velocity":48,"Duration":129310,"SoundDuration":129310,"Delta":179769219},{"NoteNumber":50,"Velocity":40,"Duration":129310,"SoundDuration":129310,"Delta":179769219},{"NoteNumber":53,"Velocity":33,"Duration":64655,"SoundDuration":64655,"Delta":179898529},{"NoteNumber":56,"Velocity":39,"Duration":64655,"SoundDuration":64655,"Delta":179898529},{"NoteNumber":74,"Velocity":45,"Duration":1193344,"SoundDuration":1193344,"Delta":180027840},{"NoteNumber":70,"Velocity":45,"Duration":1193344,"SoundDuration":1193344,"Delta":180027840},{"NoteNumber":77,"Velocity":45,"Duration":1193344,"SoundDuration":1193344,"Delta":180027840},{"NoteNumber":80,"Velocity":45,"Duration":1193344,"SoundDuration":1193344,"Delta":180027840},{"NoteNumber":56,"Velocity":50,"Duration":100334,"SoundDuration":100334,"Delta":180272738},{"NoteNumber":65,"Velocity":41,"Duration":64102,"SoundDuration":64102,"Delta":180373072},{"NoteNumber":65,"Velocity":48,"Duration":122448,"SoundDuration":122448,"Delta":180501277},{"NoteNumber":53,"Velocity":47,"Duration":100671,"SoundDuration":100671,"Delta":180746175},{"NoteNumber":62,"Velocity":37,"Duration":65217,"SoundDuration":65217,"Delta":180846847},{"NoteNumber":62,"Velocity":48,"Duration":121951,"SoundDuration":121951,"Delta":180977281},{"NoteNumber":82,"Velocity":62,"Duration":238917,"SoundDuration":238917,"Delta":181221184},{"NoteNumber":77,"Velocity":52,"Duration":238917,"SoundDuration":238917,"Delta":181221184},{"NoteNumber":74,"Velocity":52,"Duration":238917,"SoundDuration":238917,"Delta":181221184},{"NoteNumber":78,"Velocity":58,"Duration":260869,"SoundDuration":260869,"Delta":181460102},{"NoteNumber":83,"Velocity":69,"Duration":260869,"SoundDuration":260869,"Delta":181460102},{"NoteNumber":75,"Velocity":58,"Duration":260869,"SoundDuration":260869,"Delta":181460102},{"NoteNumber":82,"Velocity":62,"Duration":258620,"SoundDuration":258620,"Delta":181720971},{"NoteNumber":77,"Velocity":52,"Duration":258620,"SoundDuration":258620,"Delta":181720971},{"NoteNumber":74,"Velocity":52,"Duration":258620,"SoundDuration":258620,"Delta":181720971},{"NoteNumber":79,"Velocity":64,"Duration":728745,"SoundDuration":728745,"Delta":181979592},{"NoteNumber":82,"Velocity":64,"Duration":728745,"SoundDuration":728745,"Delta":181979592},{"NoteNumber":75,"Velocity":64,"Duration":728745,"SoundDuration":728745,"Delta":181979592},{"NoteNumber":87,"Velocity":77,"Duration":728745,"SoundDuration":728745,"Delta":181979592},{"NoteNumber":70,"Velocity":77,"Duration":728745,"SoundDuration":728745,"Delta":181979592},{"NoteNumber":67,"Velocity":64,"Duration":728745,"SoundDuration":728745,"Delta":181979592},{"NoteNumber":61,"Velocity":64,"Duration":728745,"SoundDuration":728745,"Delta":181979592},{"NoteNumber":77,"Velocity":45,"Duration":225845,"SoundDuration":225845,"Delta":182708337},{"NoteNumber":80,"Velocity":62,"Duration":102388,"SoundDuration":102388,"Delta":182708337},{"NoteNumber":68,"Velocity":43,"Duration":225845,"SoundDuration":225845,"Delta":182708337},{"NoteNumber":59,"Velocity":43,"Duration":225845,"SoundDuration":225845,"Delta":182708337},{"NoteNumber":65,"Velocity":43,"Duration":225845,"SoundDuration":225845,"Delta":182708337},{"NoteNumber":85,"Velocity":52,"Duration":61728,"SoundDuration":61728,"Delta":182810726},{"NoteNumber":78,"Velocity":51,"Duration":243902,"SoundDuration":243902,"Delta":182934183},{"NoteNumber":85,"Velocity":61,"Duration":243902,"SoundDuration":243902,"Delta":182934183},{"NoteNumber":66,"Velocity":48,"Duration":243902,"SoundDuration":243902,"Delta":182934183},{"NoteNumber":58,"Velocity":40,"Duration":243902,"SoundDuration":243902,"Delta":182934183},{"NoteNumber":61,"Velocity":40,"Duration":243902,"SoundDuration":243902,"Delta":182934183},{"NoteNumber":77,"Velocity":51,"Duration":101351,"SoundDuration":101351,"Delta":183178085},{"NoteNumber":71,"Velocity":51,"Duration":225832,"SoundDuration":225832,"Delta":183178085},{"NoteNumber":56,"Velocity":42,"Duration":225832,"SoundDuration":225832,"Delta":183178085},{"NoteNumber":61,"Velocity":42,"Duration":225832,"SoundDuration":225832,"Delta":183178085},{"NoteNumber":83,"Velocity":51,"Duration":62240,"SoundDuration":62240,"Delta":183279436},{"NoteNumber":83,"Velocity":55,"Duration":243902,"SoundDuration":243902,"Delta":183403918},{"NoteNumber":80,"Velocity":46,"Duration":243902,"SoundDuration":243902,"Delta":183403918},{"NoteNumber":71,"Velocity":46,"Duration":243902,"SoundDuration":243902,"Delta":183403918},{"NoteNumber":53,"Velocity":42,"Duration":243902,"SoundDuration":243902,"Delta":183403918},{"NoteNumber":61,"Velocity":42,"Duration":243902,"SoundDuration":243902,"Delta":183403918},{"NoteNumber":66,"Velocity":47,"Duration":243204,"SoundDuration":243204,"Delta":183647820},{"NoteNumber":82,"Velocity":47,"Duration":243204,"SoundDuration":243204,"Delta":183647820},{"NoteNumber":78,"Velocity":47,"Duration":243204,"SoundDuration":243204,"Delta":183647820},{"NoteNumber":61,"Velocity":42,"Duration":243204,"SoundDuration":243204,"Delta":183647820},{"NoteNumber":54,"Velocity":42,"Duration":243204,"SoundDuration":243204,"Delta":183647820},{"NoteNumber":80,"Velocity":50,"Duration":247933,"SoundDuration":247933,"Delta":183891025},{"NoteNumber":68,"Velocity":42,"Duration":247933,"SoundDuration":247933,"Delta":183891025},{"NoteNumber":63,"Velocity":48,"Duration":247933,"SoundDuration":247933,"Delta":183891025},{"NoteNumber":59,"Velocity":40,"Duration":247933,"SoundDuration":247933,"Delta":183891025},{"NoteNumber":66,"Velocity":38,"Duration":240963,"SoundDuration":240963,"Delta":184138959},{"NoteNumber":78,"Velocity":45,"Duration":240963,"SoundDuration":240963,"Delta":184138959},{"NoteNumber":58,"Velocity":34,"Duration":240963,"SoundDuration":240963,"Delta":184138959},{"NoteNumber":61,"Velocity":40,"Duration":240963,"SoundDuration":240963,"Delta":184138959},{"NoteNumber":77,"Velocity":50,"Duration":240964,"SoundDuration":240964,"Delta":184379923},{"NoteNumber":65,"Velocity":42,"Duration":240964,"SoundDuration":240964,"Delta":184379923},{"NoteNumber":59,"Velocity":40,"Duration":240964,"SoundDuration":240964,"Delta":184379923},{"NoteNumber":56,"Velocity":34,"Duration":240964,"SoundDuration":240964,"Delta":184379923},{"NoteNumber":66,"Velocity":39,"Duration":265486,"SoundDuration":265486,"Delta":184620887},{"NoteNumber":78,"Velocity":47,"Duration":265486,"SoundDuration":265486,"Delta":184620887},{"NoteNumber":54,"Velocity":34,"Duration":265486,"SoundDuration":265486,"Delta":184620887},{"NoteNumber":58,"Velocity":40,"Duration":265486,"SoundDuration":265486,"Delta":184620887},{"NoteNumber":71,"Velocity":38,"Duration":959902,"SoundDuration":959902,"Delta":184886373},{"NoteNumber":68,"Velocity":38,"Duration":959902,"SoundDuration":959902,"Delta":184886373},{"NoteNumber":80,"Velocity":45,"Duration":959902,"SoundDuration":959902,"Delta":184886373},{"NoteNumber":41,"Velocity":50,"Duration":100671,"SoundDuration":100671,"Delta":185131271},{"NoteNumber":49,"Velocity":41,"Duration":64102,"SoundDuration":64102,"Delta":185231942},{"NoteNumber":49,"Velocity":48,"Duration":122448,"SoundDuration":122448,"Delta":185360148},{"NoteNumber":53,"Velocity":47,"Duration":101695,"SoundDuration":101695,"Delta":185605046},{"NoteNumber":61,"Velocity":37,"Duration":69767,"SoundDuration":69767,"Delta":185706741},{"NoteNumber":80,"Velocity":45,"Duration":960238,"SoundDuration":960238,"Delta":185846276},{"NoteNumber":71,"Velocity":38,"Duration":960238,"SoundDuration":960238,"Delta":185846276},{"NoteNumber":68,"Velocity":38,"Duration":960238,"SoundDuration":960238,"Delta":185846276},{"NoteNumber":41,"Velocity":50,"Duration":101351,"SoundDuration":101351,"Delta":186091174},{"NoteNumber":50,"Velocity":41,"Duration":64102,"SoundDuration":64102,"Delta":186192525},{"NoteNumber":50,"Velocity":48,"Duration":122448,"SoundDuration":122448,"Delta":186320730},{"NoteNumber":53,"Velocity":47,"Duration":101351,"SoundDuration":101351,"Delta":186565628},{"NoteNumber":62,"Velocity":37,"Duration":69767,"SoundDuration":69767,"Delta":186666979},{"NoteNumber":67,"Velocity":38,"Duration":960587,"SoundDuration":960587,"Delta":186806514},{"NoteNumber":72,"Velocity":38,"Duration":960587,"SoundDuration":960587,"Delta":186806514},{"NoteNumber":79,"Velocity":45,"Duration":960587,"SoundDuration":960587,"Delta":186806514},{"NoteNumber":39,"Velocity":50,"Duration":101010,"SoundDuration":101010,"Delta":187051412},{"NoteNumber":48,"Velocity":41,"Duration":64102,"SoundDuration":64102,"Delta":187152422},{"NoteNumber":48,"Velocity":47,"Duration":122448,"SoundDuration":122448,"Delta":187280628},{"NoteNumber":51,"Velocity":46,"Duration":102040,"SoundDuration":102040,"Delta":187525526},{"NoteNumber":60,"Velocity":36,"Duration":69767,"SoundDuration":69767,"Delta":187627566},{"NoteNumber":77,"Velocity":44,"Duration":963025,"SoundDuration":963025,"Delta":187767101},{"NoteNumber":65,"Velocity":37,"Duration":963025,"SoundDuration":963025,"Delta":187767101},{"NoteNumber":67,"Velocity":37,"Duration":963025,"SoundDuration":963025,"Delta":187767101},{"NoteNumber":71,"Velocity":37,"Duration":963025,"SoundDuration":963025,"Delta":187767101},{"NoteNumber":38,"Velocity":48,"Duration":102040,"SoundDuration":102040,"Delta":188011999},{"NoteNumber":47,"Velocity":39,"Duration":64102,"SoundDuration":64102,"Delta":188114040},{"NoteNumber":47,"Velocity":46,"Duration":122448,"SoundDuration":122448,"Delta":188242245},{"NoteNumber":50,"Velocity":45,"Duration":103448,"SoundDuration":103448,"Delta":188487143},{"NoteNumber":59,"Velocity":35,"Duration":69767,"SoundDuration":69767,"Delta":188590592},{"NoteNumber":63,"Velocity":36,"Duration":962013,"SoundDuration":962013,"Delta":188730127},{"NoteNumber":75,"Velocity":42,"Duration":962013,"SoundDuration":962013,"Delta":188730127},{"NoteNumber":67,"Velocity":36,"Duration":962013,"SoundDuration":962013,"Delta":188730127},{"NoteNumber":72,"Velocity":36,"Duration":962013,"SoundDuration":962013,"Delta":188730127},{"NoteNumber":36,"Velocity":47,"Duration":100671,"SoundDuration":100671,"Delta":188975025},{"NoteNumber":48,"Velocity":38,"Duration":64102,"SoundDuration":64102,"Delta":189075696},{"NoteNumber":48,"Velocity":45,"Duration":122448,"SoundDuration":122448,"Delta":189203901},{"NoteNumber":48,"Velocity":44,"Duration":103806,"SoundDuration":103806,"Delta":189448799},{"NoteNumber":60,"Velocity":34,"Duration":69767,"SoundDuration":69767,"Delta":189552605},{"NoteNumber":74,"Velocity":41,"Duration":963075,"SoundDuration":963075,"Delta":189692140},{"NoteNumber":71,"Velocity":35,"Duration":963075,"SoundDuration":963075,"Delta":189692140},{"NoteNumber":65,"Velocity":35,"Duration":963075,"SoundDuration":963075,"Delta":189692140},{"NoteNumber":68,"Velocity":35,"Duration":958994,"SoundDuration":958994,"Delta":189696222},{"NoteNumber":36,"Velocity":46,"Duration":101010,"SoundDuration":101010,"Delta":189937038},{"NoteNumber":48,"Velocity":37,"Duration":64102,"SoundDuration":64102,"Delta":190038048},{"NoteNumber":48,"Velocity":44,"Duration":122448,"SoundDuration":122448,"Delta":190166254},{"NoteNumber":48,"Velocity":42,"Duration":104529,"SoundDuration":104529,"Delta":190411152},{"NoteNumber":60,"Velocity":33,"Duration":69767,"SoundDuration":69767,"Delta":190515681},{"NoteNumber":67,"Velocity":34,"Duration":962693,"SoundDuration":962693,"Delta":190655216},{"NoteNumber":63,"Velocity":34,"Duration":962693,"SoundDuration":962693,"Delta":190655216},{"NoteNumber":72,"Velocity":40,"Duration":962693,"SoundDuration":962693,"Delta":190655216},{"NoteNumber":36,"Velocity":45,"Duration":101351,"SoundDuration":101351,"Delta":190900114},{"NoteNumber":48,"Velocity":36,"Duration":64102,"SoundDuration":64102,"Delta":191001465},{"NoteNumber":48,"Velocity":42,"Duration":122448,"SoundDuration":122448,"Delta":191129671},{"NoteNumber":48,"Velocity":41,"Duration":103806,"SoundDuration":103806,"Delta":191374569},{"NoteNumber":60,"Velocity":32,"Duration":69767,"SoundDuration":69767,"Delta":191478375},{"NoteNumber":65,"Velocity":33,"Duration":962065,"SoundDuration":962065,"Delta":191617910},{"NoteNumber":62,"Velocity":33,"Duration":962065,"SoundDuration":962065,"Delta":191617910},{"NoteNumber":59,"Velocity":33,"Duration":962065,"SoundDuration":962065,"Delta":191617910},{"NoteNumber":68,"Velocity":39,"Duration":962065,"SoundDuration":962065,"Delta":191617910},{"NoteNumber":36,"Velocity":43,"Duration":99999,"SoundDuration":99999,"Delta":191862808},{"NoteNumber":48,"Velocity":35,"Duration":64102,"SoundDuration":64102,"Delta":191962808},{"NoteNumber":48,"Velocity":41,"Duration":122448,"SoundDuration":122448,"Delta":192091013},{"NoteNumber":48,"Velocity":40,"Duration":104529,"SoundDuration":104529,"Delta":192335911},{"NoteNumber":60,"Velocity":31,"Duration":69767,"SoundDuration":69767,"Delta":192440441},{"NoteNumber":60,"Velocity":32,"Duration":889534,"SoundDuration":889534,"Delta":192579976},{"NoteNumber":63,"Velocity":32,"Duration":961627,"SoundDuration":961627,"Delta":192579976},{"NoteNumber":67,"Velocity":38,"Duration":961627,"SoundDuration":961627,"Delta":192579976},{"NoteNumber":36,"Velocity":42,"Duration":101351,"SoundDuration":101351,"Delta":192824874},{"NoteNumber":48,"Velocity":34,"Duration":64102,"SoundDuration":64102,"Delta":192926225},{"NoteNumber":48,"Velocity":40,"Duration":122448,"SoundDuration":122448,"Delta":193054430},{"NoteNumber":48,"Velocity":39,"Duration":102739,"SoundDuration":102739,"Delta":193299328},{"NoteNumber":60,"Velocity":30,"Duration":69767,"SoundDuration":69767,"Delta":193402068},{"NoteNumber":68,"Velocity":37,"Duration":961994,"SoundDuration":961994,"Delta":193541603},{"NoteNumber":63,"Velocity":31,"Duration":961994,"SoundDuration":961994,"Delta":193541603},{"NoteNumber":60,"Velocity":31,"Duration":889901,"SoundDuration":889901,"Delta":193541603},{"NoteNumber":36,"Velocity":41,"Duration":101010,"SoundDuration":101010,"Delta":193786501},{"NoteNumber":48,"Velocity":33,"Duration":64102,"SoundDuration":64102,"Delta":193887511},{"NoteNumber":48,"Velocity":39,"Duration":122448,"SoundDuration":122448,"Delta":194015716},{"NoteNumber":48,"Velocity":38,"Duration":103448,"SoundDuration":103448,"Delta":194260614},{"NoteNumber":60,"Velocity":29,"Duration":69767,"SoundDuration":69767,"Delta":194364062},{"NoteNumber":63,"Velocity":30,"Duration":941995,"SoundDuration":941995,"Delta":194503597},{"NoteNumber":68,"Velocity":36,"Duration":941995,"SoundDuration":941995,"Delta":194503597},{"NoteNumber":48,"Velocity":40,"Duration":102739,"SoundDuration":102739,"Delta":194748495},{"NoteNumber":60,"Velocity":32,"Duration":64102,"SoundDuration":64102,"Delta":194851235},{"NoteNumber":48,"Velocity":37,"Duration":102739,"SoundDuration":102739,"Delta":194979440},{"NoteNumber":60,"Velocity":29,"Duration":61224,"SoundDuration":61224,"Delta":195082180},{"NoteNumber":62,"Velocity":30,"Duration":940266,"SoundDuration":940266,"Delta":195445593},{"NoteNumber":68,"Velocity":36,"Duration":940266,"SoundDuration":940266,"Delta":195445593},{"NoteNumber":47,"Velocity":40,"Duration":101010,"SoundDuration":101010,"Delta":195690491},{"NoteNumber":59,"Velocity":32,"Duration":64102,"SoundDuration":64102,"Delta":195791501},{"NoteNumber":47,"Velocity":37,"Duration":102739,"SoundDuration":102739,"Delta":195919706},{"NoteNumber":59,"Velocity":29,"Duration":61224,"SoundDuration":61224,"Delta":196022446},{"NoteNumber":68,"Velocity":36,"Duration":941673,"SoundDuration":941673,"Delta":196385859},{"NoteNumber":63,"Velocity":30,"Duration":941673,"SoundDuration":941673,"Delta":196385859},{"NoteNumber":48,"Velocity":40,"Duration":101351,"SoundDuration":101351,"Delta":196630757},{"NoteNumber":60,"Velocity":32,"Duration":64102,"SoundDuration":64102,"Delta":196732108},{"NoteNumber":48,"Velocity":37,"Duration":103806,"SoundDuration":103806,"Delta":196860314},{"NoteNumber":60,"Velocity":29,"Duration":61224,"SoundDuration":61224,"Delta":196964120},{"NoteNumber":63,"Velocity":30,"Duration":943071,"SoundDuration":943071,"Delta":197327533},{"NoteNumber":68,"Velocity":36,"Duration":943071,"SoundDuration":943071,"Delta":197327533},{"NoteNumber":48,"Velocity":40,"Duration":102388,"SoundDuration":102388,"Delta":197572431},{"NoteNumber":60,"Velocity":32,"Duration":64102,"SoundDuration":64102,"Delta":197674820},{"NoteNumber":48,"Velocity":37,"Duration":104166,"SoundDuration":104166,"Delta":197803025},{"NoteNumber":60,"Velocity":29,"Duration":61224,"SoundDuration":61224,"Delta":197907192},{"NoteNumber":63,"Velocity":30,"Duration":702098,"SoundDuration":702098,"Delta":198270605},{"NoteNumber":68,"Velocity":36,"Duration":702098,"SoundDuration":702098,"Delta":198270605},{"NoteNumber":48,"Velocity":40,"Duration":102739,"SoundDuration":102739,"Delta":198515503},{"NoteNumber":60,"Velocity":32,"Duration":64102,"SoundDuration":64102,"Delta":198618243},{"NoteNumber":48,"Velocity":37,"Duration":103806,"SoundDuration":103806,"Delta":198746448},{"NoteNumber":60,"Velocity":29,"Duration":61224,"SoundDuration":61224,"Delta":198850254},{"NoteNumber":56,"Velocity":50,"Duration":120482,"SoundDuration":120482,"Delta":198972703},{"NoteNumber":48,"Velocity":40,"Duration":120482,"SoundDuration":120482,"Delta":198972703},{"NoteNumber":68,"Velocity":52,"Duration":120481,"SoundDuration":120481,"Delta":199093185},{"NoteNumber":60,"Velocity":40,"Duration":120481,"SoundDuration":120481,"Delta":199093185},{"NoteNumber":56,"Velocity":55,"Duration":120482,"SoundDuration":120482,"Delta":199213667},{"NoteNumber":48,"Velocity":45,"Duration":120482,"SoundDuration":120482,"Delta":199213667},{"NoteNumber":68,"Velocity":56,"Duration":108433,"SoundDuration":108433,"Delta":199334149},{"NoteNumber":60,"Velocity":48,"Duration":108433,"SoundDuration":108433,"Delta":199334149},{"NoteNumber":68,"Velocity":59,"Duration":119264,"SoundDuration":119264,"Delta":199454512},{"NoteNumber":60,"Velocity":52,"Duration":119264,"SoundDuration":119264,"Delta":199454512},{"NoteNumber":80,"Velocity":61,"Duration":120140,"SoundDuration":120140,"Delta":199573776},{"NoteNumber":63,"Velocity":56,"Duration":120140,"SoundDuration":120140,"Delta":199573776},{"NoteNumber":68,"Velocity":64,"Duration":121050,"SoundDuration":121050,"Delta":199693917},{"NoteNumber":60,"Velocity":59,"Duration":121050,"SoundDuration":121050,"Delta":199693917},{"NoteNumber":80,"Velocity":66,"Duration":121910,"SoundDuration":121910,"Delta":199814967},{"NoteNumber":63,"Velocity":63,"Duration":121910,"SoundDuration":121910,"Delta":199814967},{"NoteNumber":68,"Velocity":69,"Duration":122804,"SoundDuration":122804,"Delta":199936878},{"NoteNumber":60,"Velocity":67,"Duration":122804,"SoundDuration":122804,"Delta":199936878},{"NoteNumber":80,"Velocity":71,"Duration":148351,"SoundDuration":148351,"Delta":200059683},{"NoteNumber":63,"Velocity":70,"Duration":148351,"SoundDuration":148351,"Delta":200059683},{"NoteNumber":80,"Velocity":84,"Duration":728745,"SoundDuration":728745,"Delta":200224518},{"NoteNumber":68,"Velocity":68,"Duration":728745,"SoundDuration":728745,"Delta":200224518},{"NoteNumber":63,"Velocity":77,"Duration":728745,"SoundDuration":728745,"Delta":200224518},{"NoteNumber":60,"Velocity":64,"Duration":728745,"SoundDuration":728745,"Delta":200224518},{"NoteNumber":67,"Velocity":59,"Duration":230599,"SoundDuration":230599,"Delta":200953263},{"NoteNumber":74,"Velocity":70,"Duration":107142,"SoundDuration":107142,"Delta":200953263},{"NoteNumber":59,"Velocity":51,"Duration":107142,"SoundDuration":107142,"Delta":200953263},{"NoteNumber":62,"Velocity":60,"Duration":107142,"SoundDuration":107142,"Delta":200953263},{"NoteNumber":79,"Velocity":67,"Duration":61728,"SoundDuration":61728,"Delta":201060406},{"NoteNumber":61,"Velocity":59,"Duration":61728,"SoundDuration":61728,"Delta":201060406},{"NoteNumber":58,"Velocity":50,"Duration":61728,"SoundDuration":61728,"Delta":201060406},{"NoteNumber":79,"Velocity":70,"Duration":243902,"SoundDuration":243902,"Delta":201183862},{"NoteNumber":67,"Velocity":59,"Duration":243902,"SoundDuration":243902,"Delta":201183862},{"NoteNumber":61,"Velocity":67,"Duration":243902,"SoundDuration":243902,"Delta":201183862},{"NoteNumber":58,"Velocity":56,"Duration":243902,"SoundDuration":243902,"Delta":201183862},{"NoteNumber":72,"Velocity":70,"Duration":106382,"SoundDuration":106382,"Delta":201427765},{"NoteNumber":65,"Velocity":59,"Duration":230864,"SoundDuration":230864,"Delta":201427765},{"NoteNumber":57,"Velocity":51,"Duration":106382,"SoundDuration":106382,"Delta":201427765},{"NoteNumber":60,"Velocity":60,"Duration":106382,"SoundDuration":106382,"Delta":201427765},{"NoteNumber":77,"Velocity":67,"Duration":62240,"SoundDuration":62240,"Delta":201534148},{"NoteNumber":56,"Velocity":50,"Duration":62240,"SoundDuration":62240,"Delta":201534148},{"NoteNumber":59,"Velocity":59,"Duration":62240,"SoundDuration":62240,"Delta":201534148},{"NoteNumber":77,"Velocity":70,"Duration":243902,"SoundDuration":243902,"Delta":201658629},{"NoteNumber":65,"Velocity":59,"Duration":243902,"SoundDuration":243902,"Delta":201658629},{"NoteNumber":59,"Velocity":67,"Duration":243902,"SoundDuration":243902,"Delta":201658629},{"NoteNumber":56,"Velocity":56,"Duration":243902,"SoundDuration":243902,"Delta":201658629},{"NoteNumber":63,"Velocity":59,"Duration":234588,"SoundDuration":234588,"Delta":201902532},{"NoteNumber":70,"Velocity":70,"Duration":106382,"SoundDuration":106382,"Delta":201902532},{"NoteNumber":55,"Velocity":51,"Duration":106382,"SoundDuration":106382,"Delta":201902532},{"NoteNumber":58,"Velocity":60,"Duration":106382,"SoundDuration":106382,"Delta":201902532},{"NoteNumber":75,"Velocity":67,"Duration":64102,"SoundDuration":64102,"Delta":202008915},{"NoteNumber":57,"Velocity":59,"Duration":64102,"SoundDuration":64102,"Delta":202008915},{"NoteNumber":54,"Velocity":50,"Duration":64102,"SoundDuration":64102,"Delta":202008915},{"NoteNumber":70,"Velocity":59,"Duration":740840,"SoundDuration":740840,"Delta":202137120},{"NoteNumber":63,"Velocity":59,"Duration":497925,"SoundDuration":497925,"Delta":202137120},{"NoteNumber":75,"Velocity":70,"Duration":497925,"SoundDuration":497925,"Delta":202137120},{"NoteNumber":68,"Velocity":59,"Duration":740840,"SoundDuration":740840,"Delta":202137120},{"NoteNumber":56,"Velocity":67,"Duration":740840,"SoundDuration":740840,"Delta":202137120},{"NoteNumber":53,"Velocity":56,"Duration":740840,"SoundDuration":740840,"Delta":202137120},{"NoteNumber":74,"Velocity":59,"Duration":242915,"SoundDuration":242915,"Delta":202635045},{"NoteNumber":62,"Velocity":50,"Duration":242915,"SoundDuration":242915,"Delta":202635045},{"NoteNumber":75,"Velocity":59,"Duration":242914,"SoundDuration":242914,"Delta":202877960},{"NoteNumber":70,"Velocity":50,"Duration":242914,"SoundDuration":242914,"Delta":202877960},{"NoteNumber":63,"Velocity":50,"Duration":242914,"SoundDuration":242914,"Delta":202877960},{"NoteNumber":51,"Velocity":38,"Duration":242914,"SoundDuration":242914,"Delta":202877960},{"NoteNumber":55,"Velocity":45,"Duration":242914,"SoundDuration":242914,"Delta":202877960},{"NoteNumber":65,"Velocity":48,"Duration":242915,"SoundDuration":242915,"Delta":203120875},{"NoteNumber":70,"Velocity":48,"Duration":242915,"SoundDuration":242915,"Delta":203120875},{"NoteNumber":77,"Velocity":57,"Duration":242915,"SoundDuration":242915,"Delta":203120875},{"NoteNumber":50,"Velocity":40,"Duration":242915,"SoundDuration":242915,"Delta":203120875},{"NoteNumber":53,"Velocity":48,"Duration":242915,"SoundDuration":242915,"Delta":203120875},{"NoteNumber":70,"Velocity":51,"Duration":242914,"SoundDuration":242914,"Delta":203363790},{"NoteNumber":67,"Velocity":51,"Duration":242914,"SoundDuration":242914,"Delta":203363790},{"NoteNumber":79,"Velocity":60,"Duration":242914,"SoundDuration":242914,"Delta":203363790},{"NoteNumber":48,"Velocity":42,"Duration":242914,"SoundDuration":242914,"Delta":203363790},{"NoteNumber":51,"Velocity":50,"Duration":242914,"SoundDuration":242914,"Delta":203363790},{"NoteNumber":68,"Velocity":54,"Duration":245901,"SoundDuration":245901,"Delta":203606705},{"NoteNumber":80,"Velocity":64,"Duration":245901,"SoundDuration":245901,"Delta":203606705},{"NoteNumber":70,"Velocity":54,"Duration":245901,"SoundDuration":245901,"Delta":203606705},{"NoteNumber":46,"Velocity":45,"Duration":245901,"SoundDuration":245901,"Delta":203606705},{"NoteNumber":50,"Velocity":53,"Duration":245901,"SoundDuration":245901,"Delta":203606705},{"NoteNumber":82,"Velocity":68,"Duration":256410,"SoundDuration":256410,"Delta":203852606},{"NoteNumber":70,"Velocity":57,"Duration":256410,"SoundDuration":256410,"Delta":203852606},{"NoteNumber":53,"Velocity":56,"Duration":256410,"SoundDuration":256410,"Delta":203852606},{"NoteNumber":46,"Velocity":47,"Duration":256410,"SoundDuration":256410,"Delta":203852606},{"NoteNumber":50,"Velocity":47,"Duration":256410,"SoundDuration":256410,"Delta":203852606},{"NoteNumber":67,"Velocity":66,"Duration":241935,"SoundDuration":241935,"Delta":204109017},{"NoteNumber":82,"Velocity":78,"Duration":241935,"SoundDuration":241935,"Delta":204109017},{"NoteNumber":70,"Velocity":66,"Duration":241935,"SoundDuration":241935,"Delta":204109017},{"NoteNumber":39,"Velocity":56,"Duration":120967,"SoundDuration":120967,"Delta":204109017},{"NoteNumber":46,"Velocity":40,"Duration":120967,"SoundDuration":120967,"Delta":204229985},{"NoteNumber":55,"Velocity":40,"Duration":120967,"SoundDuration":120967,"Delta":204350952},{"NoteNumber":46,"Velocity":40,"Duration":120967,"SoundDuration":120967,"Delta":204471920},{"NoteNumber":82,"Velocity":81,"Duration":241935,"SoundDuration":241935,"Delta":204592888},{"NoteNumber":70,"Velocity":69,"Duration":241935,"SoundDuration":241935,"Delta":204592888},{"NoteNumber":39,"Velocity":54,"Duration":120967,"SoundDuration":120967,"Delta":204592888},{"NoteNumber":46,"Velocity":44,"Duration":120967,"SoundDuration":120967,"Delta":204713856},{"NoteNumber":55,"Velocity":43,"Duration":125000,"SoundDuration":125000,"Delta":204834823},{"NoteNumber":46,"Velocity":43,"Duration":125000,"SoundDuration":125000,"Delta":204959823},{"NoteNumber":94,"Velocity":93,"Duration":725806,"SoundDuration":725806,"Delta":205084823},{"NoteNumber":82,"Velocity":78,"Duration":725806,"SoundDuration":725806,"Delta":205084823},{"NoteNumber":41,"Velocity":58,"Duration":120967,"SoundDuration":120967,"Delta":205084823},{"NoteNumber":46,"Velocity":49,"Duration":120967,"SoundDuration":120967,"Delta":205205791},{"NoteNumber":56,"Velocity":49,"Duration":120967,"SoundDuration":120967,"Delta":205326759},{"NoteNumber":46,"Velocity":47,"Duration":120967,"SoundDuration":120967,"Delta":205447727},{"NoteNumber":41,"Velocity":53,"Duration":120967,"SoundDuration":120967,"Delta":205568694},{"NoteNumber":46,"Velocity":44,"Duration":120967,"SoundDuration":120967,"Delta":205689662},{"NoteNumber":82,"Velocity":65,"Duration":967741,"SoundDuration":967741,"Delta":205810630},{"NoteNumber":70,"Velocity":55,"Duration":967741,"SoundDuration":967741,"Delta":205810630},{"NoteNumber":56,"Velocity":44,"Duration":120967,"SoundDuration":120967,"Delta":205810630},{"NoteNumber":46,"Velocity":44,"Duration":120967,"SoundDuration":120967,"Delta":205931598},{"NoteNumber":43,"Velocity":53,"Duration":120967,"SoundDuration":120967,"Delta":206052565},{"NoteNumber":46,"Velocity":43,"Duration":120967,"SoundDuration":120967,"Delta":206173533},{"NoteNumber":58,"Velocity":43,"Duration":120967,"SoundDuration":120967,"Delta":206294501},{"NoteNumber":46,"Velocity":43,"Duration":120967,"SoundDuration":120967,"Delta":206415469},{"NoteNumber":43,"Velocity":53,"Duration":120967,"SoundDuration":120967,"Delta":206536436},{"NoteNumber":46,"Velocity":43,"Duration":120967,"SoundDuration":120967,"Delta":206657404},{"NoteNumber":79,"Velocity":62,"Duration":253164,"SoundDuration":253164,"Delta":206778372},{"NoteNumber":67,"Velocity":62,"Duration":253164,"SoundDuration":253164,"Delta":206778372},{"NoteNumber":58,"Velocity":43,"Duration":126582,"SoundDuration":126582,"Delta":206778372},{"NoteNumber":46,"Velocity":43,"Duration":126582,"SoundDuration":126582,"Delta":206904954},{"NoteNumber":65,"Velocity":55,"Duration":240000,"SoundDuration":240000,"Delta":207031536},{"NoteNumber":77,"Velocity":65,"Duration":240000,"SoundDuration":240000,"Delta":207031536},{"NoteNumber":44,"Velocity":53,"Duration":120000,"SoundDuration":120000,"Delta":207031536},{"NoteNumber":46,"Velocity":44,"Duration":120000,"SoundDuration":120000,"Delta":207151536},{"NoteNumber":62,"Velocity":48,"Duration":239999,"SoundDuration":239999,"Delta":207271536},{"NoteNumber":74,"Velocity":57,"Duration":239999,"SoundDuration":239999,"Delta":207271536},{"NoteNumber":56,"Velocity":44,"Duration":120000,"SoundDuration":120000,"Delta":207271536},{"NoteNumber":46,"Velocity":44,"Duration":119999,"SoundDuration":119999,"Delta":207391536},{"NoteNumber":71,"Velocity":57,"Duration":240000,"SoundDuration":240000,"Delta":207511536},{"NoteNumber":59,"Velocity":48,"Duration":240000,"SoundDuration":240000,"Delta":207511536},{"NoteNumber":34,"Velocity":53,"Duration":120000,"SoundDuration":120000,"Delta":207511536},{"NoteNumber":46,"Velocity":46,"Duration":120000,"SoundDuration":120000,"Delta":207631536},{"NoteNumber":58,"Velocity":47,"Duration":251046,"SoundDuration":251046,"Delta":207751536},{"NoteNumber":70,"Velocity":56,"Duration":251046,"SoundDuration":251046,"Delta":207751536},{"NoteNumber":53,"Velocity":46,"Duration":125522,"SoundDuration":125522,"Delta":207751536},{"NoteNumber":46,"Velocity":46,"Duration":125523,"SoundDuration":125523,"Delta":207877059},{"NoteNumber":70,"Velocity":78,"Duration":241935,"SoundDuration":241935,"Delta":208002582},{"NoteNumber":58,"Velocity":66,"Duration":241935,"SoundDuration":241935,"Delta":208002582},{"NoteNumber":39,"Velocity":56,"Duration":120967,"SoundDuration":120967,"Delta":208002582},{"NoteNumber":46,"Velocity":40,"Duration":120967,"SoundDuration":120967,"Delta":208123550},{"NoteNumber":55,"Velocity":40,"Duration":120967,"SoundDuration":120967,"Delta":208244518},{"NoteNumber":46,"Velocity":40,"Duration":120967,"SoundDuration":120967,"Delta":208365486},{"NoteNumber":82,"Velocity":81,"Duration":241935,"SoundDuration":241935,"Delta":208486453},{"NoteNumber":70,"Velocity":69,"Duration":241935,"SoundDuration":241935,"Delta":208486453},{"NoteNumber":39,"Velocity":54,"Duration":120967,"SoundDuration":120967,"Delta":208486453},{"NoteNumber":46,"Velocity":44,"Duration":120967,"SoundDuration":120967,"Delta":208607421},{"NoteNumber":56,"Velocity":43,"Duration":125000,"SoundDuration":125000,"Delta":208728389},{"NoteNumber":46,"Velocity":43,"Duration":125000,"SoundDuration":125000,"Delta":208853389},{"NoteNumber":94,"Velocity":93,"Duration":725806,"SoundDuration":725806,"Delta":208978389},{"NoteNumber":82,"Velocity":78,"Duration":725806,"SoundDuration":725806,"Delta":208978389},{"NoteNumber":43,"Velocity":58,"Duration":120967,"SoundDuration":120967,"Delta":208978389},{"NoteNumber":51,"Velocity":49,"Duration":120967,"SoundDuration":120967,"Delta":209099357},{"NoteNumber":58,"Velocity":49,"Duration":120967,"SoundDuration":120967,"Delta":209220324},{"NoteNumber":51,"Velocity":47,"Duration":120967,"SoundDuration":120967,"Delta":209341292},{"NoteNumber":43,"Velocity":53,"Duration":120967,"SoundDuration":120967,"Delta":209462260},{"NoteNumber":51,"Velocity":44,"Duration":120967,"SoundDuration":120967,"Delta":209583228},{"NoteNumber":82,"Velocity":65,"Duration":967741,"SoundDuration":967741,"Delta":209704195},{"NoteNumber":70,"Velocity":55,"Duration":967741,"SoundDuration":967741,"Delta":209704195},{"NoteNumber":58,"Velocity":44,"Duration":120967,"SoundDuration":120967,"Delta":209704195},{"NoteNumber":51,"Velocity":44,"Duration":120967,"SoundDuration":120967,"Delta":209825163},{"NoteNumber":43,"Velocity":53,"Duration":120967,"SoundDuration":120967,"Delta":209946131},{"NoteNumber":51,"Velocity":43,"Duration":120967,"SoundDuration":120967,"Delta":210067099},{"NoteNumber":58,"Velocity":43,"Duration":120967,"SoundDuration":120967,"Delta":210188066},{"NoteNumber":51,"Velocity":43,"Duration":120967,"SoundDuration":120967,"Delta":210309034},{"NoteNumber":43,"Velocity":53,"Duration":120967,"SoundDuration":120967,"Delta":210430002},{"NoteNumber":51,"Velocity":43,"Duration":120967,"SoundDuration":120967,"Delta":210550970},{"NoteNumber":79,"Velocity":62,"Duration":253164,"SoundDuration":253164,"Delta":210671937},{"NoteNumber":67,"Velocity":62,"Duration":253164,"SoundDuration":253164,"Delta":210671937},{"NoteNumber":58,"Velocity":43,"Duration":126582,"SoundDuration":126582,"Delta":210671937},{"NoteNumber":51,"Velocity":43,"Duration":126582,"SoundDuration":126582,"Delta":210798520},{"NoteNumber":64,"Velocity":55,"Duration":240000,"SoundDuration":240000,"Delta":210925102},{"NoteNumber":76,"Velocity":65,"Duration":240000,"SoundDuration":240000,"Delta":210925102},{"NoteNumber":44,"Velocity":53,"Duration":120000,"SoundDuration":120000,"Delta":210925102},{"NoteNumber":51,"Velocity":44,"Duration":120000,"SoundDuration":120000,"Delta":211045102},{"NoteNumber":77,"Velocity":57,"Duration":239999,"SoundDuration":239999,"Delta":211165102},{"NoteNumber":65,"Velocity":48,"Duration":239999,"SoundDuration":239999,"Delta":211165102},{"NoteNumber":60,"Velocity":44,"Duration":120000,"SoundDuration":120000,"Delta":211165102},{"NoteNumber":51,"Velocity":44,"Duration":119999,"SoundDuration":119999,"Delta":211285102},{"NoteNumber":60,"Velocity":48,"Duration":240000,"SoundDuration":240000,"Delta":211405102},{"NoteNumber":72,"Velocity":57,"Duration":240000,"SoundDuration":240000,"Delta":211405102},{"NoteNumber":45,"Velocity":53,"Duration":120000,"SoundDuration":120000,"Delta":211405102},{"NoteNumber":53,"Velocity":46,"Duration":120000,"SoundDuration":120000,"Delta":211525102},{"NoteNumber":63,"Velocity":47,"Duration":251046,"SoundDuration":251046,"Delta":211645102},{"NoteNumber":75,"Velocity":56,"Duration":251046,"SoundDuration":251046,"Delta":211645102},{"NoteNumber":60,"Velocity":46,"Duration":125522,"SoundDuration":125522,"Delta":211645102},{"NoteNumber":53,"Velocity":46,"Duration":125523,"SoundDuration":125523,"Delta":211770625},{"NoteNumber":74,"Velocity":56,"Duration":125522,"SoundDuration":125522,"Delta":211896148},{"NoteNumber":62,"Velocity":56,"Duration":125522,"SoundDuration":125522,"Delta":211896148},{"NoteNumber":46,"Velocity":52,"Duration":246490,"SoundDuration":246490,"Delta":211896148},{"NoteNumber":70,"Velocity":49,"Duration":120967,"SoundDuration":120967,"Delta":212021671},{"NoteNumber":69,"Velocity":51,"Duration":120967,"SoundDuration":120967,"Delta":212142639},{"NoteNumber":63,"Velocity":46,"Duration":120967,"SoundDuration":120967,"Delta":212142639},{"NoteNumber":70,"Velocity":53,"Duration":120967,"SoundDuration":120967,"Delta":212263606},{"NoteNumber":62,"Velocity":49,"Duration":120967,"SoundDuration":120967,"Delta":212263606},{"NoteNumber":72,"Velocity":55,"Duration":120967,"SoundDuration":120967,"Delta":212384574},{"NoteNumber":69,"Velocity":46,"Duration":120967,"SoundDuration":120967,"Delta":212384574},{"NoteNumber":60,"Velocity":48,"Duration":120967,"SoundDuration":120967,"Delta":212384574},{"NoteNumber":74,"Velocity":57,"Duration":120967,"SoundDuration":120967,"Delta":212505542},{"NoteNumber":70,"Velocity":48,"Duration":120967,"SoundDuration":120967,"Delta":212505542},{"NoteNumber":58,"Velocity":47,"Duration":120967,"SoundDuration":120967,"Delta":212505542},{"NoteNumber":75,"Velocity":59,"Duration":120967,"SoundDuration":120967,"Delta":212626510},{"NoteNumber":72,"Velocity":50,"Duration":120967,"SoundDuration":120967,"Delta":212626510},{"NoteNumber":57,"Velocity":46,"Duration":120967,"SoundDuration":120967,"Delta":212626510},{"NoteNumber":74,"Velocity":51,"Duration":128755,"SoundDuration":128755,"Delta":212747477},{"NoteNumber":77,"Velocity":61,"Duration":128755,"SoundDuration":128755,"Delta":212747477},{"NoteNumber":56,"Velocity":45,"Duration":128755,"SoundDuration":128755,"Delta":212747477},{"NoteNumber":79,"Velocity":63,"Duration":499872,"SoundDuration":499872,"Delta":212876233},{"NoteNumber":75,"Velocity":53,"Duration":499872,"SoundDuration":499872,"Delta":212876233},{"NoteNumber":55,"Velocity":44,"Duration":125000,"SoundDuration":125000,"Delta":212876233},{"NoteNumber":53,"Velocity":43,"Duration":125000,"SoundDuration":125000,"Delta":213001233},{"NoteNumber":51,"Velocity":42,"Duration":125000,"SoundDuration":125000,"Delta":213126233},{"NoteNumber":50,"Velocity":41,"Duration":124872,"SoundDuration":124872,"Delta":213251233},{"NoteNumber":80,"Velocity":52,"Duration":121971,"SoundDuration":121971,"Delta":213376106},{"NoteNumber":84,"Velocity":62,"Duration":121971,"SoundDuration":121971,"Delta":213376106},{"NoteNumber":51,"Velocity":40,"Duration":121971,"SoundDuration":121971,"Delta":213376106},{"NoteNumber":82,"Velocity":59,"Duration":122469,"SoundDuration":122469,"Delta":213498078},{"NoteNumber":79,"Velocity":50,"Duration":122469,"SoundDuration":122469,"Delta":213498078},{"NoteNumber":53,"Velocity":42,"Duration":122469,"SoundDuration":122469,"Delta":213498078},{"NoteNumber":77,"Velocity":47,"Duration":122971,"SoundDuration":122971,"Delta":213620547},{"NoteNumber":80,"Velocity":56,"Duration":122971,"SoundDuration":122971,"Delta":213620547},{"NoteNumber":55,"Velocity":44,"Duration":122971,"SoundDuration":122971,"Delta":213620547},{"NoteNumber":75,"Velocity":45,"Duration":123478,"SoundDuration":123478,"Delta":213743519},{"NoteNumber":79,"Velocity":53,"Duration":123478,"SoundDuration":123478,"Delta":213743519},{"NoteNumber":56,"Velocity":46,"Duration":123478,"SoundDuration":123478,"Delta":213743519},{"NoteNumber":77,"Velocity":67,"Duration":247934,"SoundDuration":247934,"Delta":213866997},{"NoteNumber":74,"Velocity":56,"Duration":247934,"SoundDuration":247934,"Delta":213866997},{"NoteNumber":58,"Velocity":57,"Duration":247934,"SoundDuration":247934,"Delta":213866997},{"NoteNumber":80,"Velocity":68,"Duration":121603,"SoundDuration":121603,"Delta":214114931},{"NoteNumber":71,"Velocity":57,"Duration":121603,"SoundDuration":121603,"Delta":214114931},{"NoteNumber":65,"Velocity":46,"Duration":121603,"SoundDuration":121603,"Delta":214114931},{"NoteNumber":72,"Velocity":56,"Duration":121457,"SoundDuration":121457,"Delta":214236535},{"NoteNumber":79,"Velocity":67,"Duration":121457,"SoundDuration":121457,"Delta":214236535},{"NoteNumber":63,"Velocity":53,"Duration":121457,"SoundDuration":121457,"Delta":214236535},{"NoteNumber":67,"Velocity":56,"Duration":121922,"SoundDuration":121922,"Delta":214357993},{"NoteNumber":77,"Velocity":67,"Duration":121922,"SoundDuration":121922,"Delta":214357993},{"NoteNumber":62,"Velocity":52,"Duration":121922,"SoundDuration":121922,"Delta":214357993},{"NoteNumber":78,"Velocity":66,"Duration":121951,"SoundDuration":121951,"Delta":214479915},{"NoteNumber":75,"Velocity":56,"Duration":121951,"SoundDuration":121951,"Delta":214479915},{"NoteNumber":60,"Velocity":51,"Duration":121951,"SoundDuration":121951,"Delta":214479915},{"NoteNumber":74,"Velocity":55,"Duration":91807,"SoundDuration":91807,"Delta":214601866},{"NoteNumber":79,"Velocity":64,"Duration":91807,"SoundDuration":91807,"Delta":214601866},{"NoteNumber":59,"Velocity":50,"Duration":91807,"SoundDuration":91807,"Delta":214601866},{"NoteNumber":77,"Velocity":53,"Duration":91836,"SoundDuration":91836,"Delta":214724286},{"NoteNumber":74,"Velocity":53,"Duration":91836,"SoundDuration":91836,"Delta":214724286},{"NoteNumber":81,"Velocity":63,"Duration":91836,"SoundDuration":91836,"Delta":214724286},{"NoteNumber":57,"Velocity":49,"Duration":91836,"SoundDuration":91836,"Delta":214724286},{"NoteNumber":79,"Velocity":51,"Duration":91836,"SoundDuration":91836,"Delta":214846735},{"NoteNumber":74,"Velocity":51,"Duration":91836,"SoundDuration":91836,"Delta":214846735},{"NoteNumber":83,"Velocity":61,"Duration":91836,"SoundDuration":91836,"Delta":214846735},{"NoteNumber":55,"Velocity":47,"Duration":91836,"SoundDuration":91836,"Delta":214846735},{"NoteNumber":79,"Velocity":55,"Duration":91616,"SoundDuration":91616,"Delta":214969184},{"NoteNumber":74,"Velocity":55,"Duration":91616,"SoundDuration":91616,"Delta":214969184},{"NoteNumber":83,"Velocity":64,"Duration":91616,"SoundDuration":91616,"Delta":214969184},{"NoteNumber":53,"Velocity":48,"Duration":91616,"SoundDuration":91616,"Delta":214969184},{"NoteNumber":75,"Velocity":57,"Duration":91430,"SoundDuration":91430,"Delta":215091289},{"NoteNumber":79,"Velocity":57,"Duration":91430,"SoundDuration":91430,"Delta":215091289},{"NoteNumber":84,"Velocity":68,"Duration":91430,"SoundDuration":91430,"Delta":215091289},{"NoteNumber":51,"Velocity":51,"Duration":91430,"SoundDuration":91430,"Delta":215091289},{"NoteNumber":77,"Velocity":60,"Duration":91093,"SoundDuration":91093,"Delta":215213084},{"NoteNumber":86,"Velocity":71,"Duration":91093,"SoundDuration":91093,"Delta":215213084},{"NoteNumber":83,"Velocity":60,"Duration":91093,"SoundDuration":91093,"Delta":215213084},{"NoteNumber":50,"Velocity":55,"Duration":91093,"SoundDuration":91093,"Delta":215213084},{"NoteNumber":87,"Velocity":75,"Duration":90754,"SoundDuration":90754,"Delta":215334542},{"NoteNumber":84,"Velocity":63,"Duration":90754,"SoundDuration":90754,"Delta":215334542},{"NoteNumber":79,"Velocity":63,"Duration":90754,"SoundDuration":90754,"Delta":215334542},{"NoteNumber":48,"Velocity":59,"Duration":90754,"SoundDuration":90754,"Delta":215334542},{"NoteNumber":79,"Velocity":67,"Duration":90418,"SoundDuration":90418,"Delta":215455538},{"NoteNumber":88,"Velocity":79,"Duration":90418,"SoundDuration":90418,"Delta":215455538},{"NoteNumber":84,"Velocity":67,"Duration":90418,"SoundDuration":90418,"Delta":215455538},{"NoteNumber":46,"Velocity":62,"Duration":90418,"SoundDuration":90418,"Delta":215455538},{"NoteNumber":89,"Velocity":82,"Duration":91041,"SoundDuration":91041,"Delta":215576049},{"NoteNumber":84,"Velocity":69,"Duration":91041,"SoundDuration":91041,"Delta":215576049},{"NoteNumber":77,"Velocity":69,"Duration":91041,"SoundDuration":91041,"Delta":215576049},{"NoteNumber":48,"Velocity":66,"Duration":91041,"SoundDuration":91041,"Delta":215576049},{"NoteNumber":45,"Velocity":66,"Duration":91041,"SoundDuration":91041,"Delta":215576049},{"NoteNumber":89,"Velocity":85,"Duration":92695,"SoundDuration":92695,"Delta":215697736},{"NoteNumber":84,"Velocity":72,"Duration":92695,"SoundDuration":92695,"Delta":215697736},{"NoteNumber":77,"Velocity":72,"Duration":92695,"SoundDuration":92695,"Delta":215697736},{"NoteNumber":45,"Velocity":58,"Duration":92695,"SoundDuration":92695,"Delta":215697736},{"NoteNumber":48,"Velocity":69,"Duration":92695,"SoundDuration":92695,"Delta":215697736},{"NoteNumber":82,"Velocity":81,"Duration":125000,"SoundDuration":125000,"Delta":215821652},{"NoteNumber":86,"Velocity":93,"Duration":125000,"SoundDuration":125000,"Delta":215821652},{"NoteNumber":77,"Velocity":77,"Duration":125000,"SoundDuration":125000,"Delta":215821652},{"NoteNumber":46,"Velocity":72,"Duration":125000,"SoundDuration":125000,"Delta":215821652},{"NoteNumber":44,"Velocity":61,"Duration":125000,"SoundDuration":125000,"Delta":215821652},{"NoteNumber":87,"Velocity":92,"Duration":142179,"SoundDuration":142179,"Delta":216321652},{"NoteNumber":82,"Velocity":92,"Duration":142179,"SoundDuration":142179,"Delta":216321652},{"NoteNumber":75,"Velocity":92,"Duration":142179,"SoundDuration":142179,"Delta":216321652},{"NoteNumber":43,"Velocity":63,"Duration":142179,"SoundDuration":142179,"Delta":216321652},{"NoteNumber":46,"Velocity":75,"Duration":142179,"SoundDuration":142179,"Delta":216321652},{"NoteNumber":68,"Velocity":84,"Duration":743801,"SoundDuration":743801,"Delta":216890372},{"NoteNumber":63,"Velocity":65,"Duration":1248225,"SoundDuration":1248225,"Delta":216890372},{"NoteNumber":53,"Velocity":65,"Duration":2002193,"SoundDuration":2002193,"Delta":216890372},{"NoteNumber":47,"Velocity":71,"Duration":743801,"SoundDuration":743801,"Delta":216890372},{"NoteNumber":70,"Velocity":85,"Duration":128755,"SoundDuration":128755,"Delta":217634174},{"NoteNumber":46,"Velocity":71,"Duration":128755,"SoundDuration":128755,"Delta":217634174},{"NoteNumber":71,"Velocity":93,"Duration":1000881,"SoundDuration":1000881,"Delta":217891684},{"NoteNumber":44,"Velocity":80,"Duration":1000881,"SoundDuration":1000881,"Delta":217891684},{"NoteNumber":63,"Velocity":61,"Duration":119047,"SoundDuration":119047,"Delta":218138598},{"NoteNumber":62,"Velocity":52,"Duration":119047,"SoundDuration":119047,"Delta":218257645},{"NoteNumber":63,"Velocity":61,"Duration":119047,"SoundDuration":119047,"Delta":218376693},{"NoteNumber":62,"Velocity":54,"Duration":119047,"SoundDuration":119047,"Delta":218495740},{"NoteNumber":63,"Velocity":61,"Duration":119047,"SoundDuration":119047,"Delta":218614788},{"NoteNumber":62,"Velocity":54,"Duration":158730,"SoundDuration":158730,"Delta":218733835},{"NoteNumber":68,"Velocity":84,"Duration":743801,"SoundDuration":743801,"Delta":218892566},{"NoteNumber":63,"Velocity":65,"Duration":1248225,"SoundDuration":1248225,"Delta":218892566},{"NoteNumber":53,"Velocity":65,"Duration":2007964,"SoundDuration":2007964,"Delta":218892566},{"NoteNumber":47,"Velocity":71,"Duration":743801,"SoundDuration":743801,"Delta":218892566},{"NoteNumber":70,"Velocity":85,"Duration":128755,"SoundDuration":128755,"Delta":219636368},{"NoteNumber":46,"Velocity":71,"Duration":128755,"SoundDuration":128755,"Delta":219636368},{"NoteNumber":72,"Velocity":93,"Duration":1006651,"SoundDuration":1006651,"Delta":219893878},{"NoteNumber":45,"Velocity":80,"Duration":1006651,"SoundDuration":1006651,"Delta":219893878},{"NoteNumber":63,"Velocity":61,"Duration":120482,"SoundDuration":120482,"Delta":220140792},{"NoteNumber":62,"Velocity":52,"Duration":120481,"SoundDuration":120481,"Delta":220261274},{"NoteNumber":63,"Velocity":61,"Duration":118576,"SoundDuration":118576,"Delta":220381756},{"NoteNumber":62,"Velocity":54,"Duration":118577,"SoundDuration":118577,"Delta":220500333},{"NoteNumber":63,"Velocity":61,"Duration":118576,"SoundDuration":118576,"Delta":220618910},{"NoteNumber":62,"Velocity":54,"Duration":163043,"SoundDuration":163043,"Delta":220737487},{"NoteNumber":71,"Velocity":70,"Duration":244898,"SoundDuration":244898,"Delta":220900530},{"NoteNumber":53,"Velocity":48,"Duration":244898,"SoundDuration":244898,"Delta":220900530},{"NoteNumber":46,"Velocity":40,"Duration":244898,"SoundDuration":244898,"Delta":220900530},{"NoteNumber":63,"Velocity":51,"Duration":119047,"SoundDuration":119047,"Delta":221145428},{"NoteNumber":62,"Velocity":44,"Duration":119047,"SoundDuration":119047,"Delta":221264476},{"NoteNumber":63,"Velocity":51,"Duration":119047,"SoundDuration":119047,"Delta":221383523},{"NoteNumber":62,"Velocity":43,"Duration":119047,"SoundDuration":119047,"Delta":221502571},{"NoteNumber":63,"Velocity":51,"Duration":119047,"SoundDuration":119047,"Delta":221621618},{"NoteNumber":62,"Velocity":45,"Duration":163043,"SoundDuration":163043,"Delta":221740666},{"NoteNumber":70,"Velocity":70,"Duration":244898,"SoundDuration":244898,"Delta":221903709},{"NoteNumber":46,"Velocity":40,"Duration":244898,"SoundDuration":244898,"Delta":221903709},{"NoteNumber":55,"Velocity":48,"Duration":244898,"SoundDuration":244898,"Delta":221903709},{"NoteNumber":65,"Velocity":51,"Duration":119047,"SoundDuration":119047,"Delta":222148607},{"NoteNumber":64,"Velocity":44,"Duration":119047,"SoundDuration":119047,"Delta":222267655},{"NoteNumber":65,"Velocity":51,"Duration":119047,"SoundDuration":119047,"Delta":222386702},{"NoteNumber":64,"Velocity":43,"Duration":119047,"SoundDuration":119047,"Delta":222505750},{"NoteNumber":65,"Velocity":51,"Duration":119047,"SoundDuration":119047,"Delta":222624797},{"NoteNumber":64,"Velocity":45,"Duration":163043,"SoundDuration":163043,"Delta":222743845},{"NoteNumber":70,"Velocity":70,"Duration":122448,"SoundDuration":122448,"Delta":222906888},{"NoteNumber":56,"Velocity":48,"Duration":244898,"SoundDuration":244898,"Delta":222906888},{"NoteNumber":46,"Velocity":40,"Duration":244898,"SoundDuration":244898,"Delta":222906888},{"NoteNumber":67,"Velocity":51,"Duration":117187,"SoundDuration":117187,"Delta":223151786},{"NoteNumber":65,"Velocity":44,"Duration":142179,"SoundDuration":142179,"Delta":223268974},{"NoteNumber":70,"Velocity":70,"Duration":122448,"SoundDuration":122448,"Delta":223411154},{"NoteNumber":55,"Velocity":48,"Duration":244898,"SoundDuration":244898,"Delta":223411154},{"NoteNumber":46,"Velocity":40,"Duration":244898,"SoundDuration":244898,"Delta":223411154},{"NoteNumber":65,"Velocity":51,"Duration":118576,"SoundDuration":118576,"Delta":223656052},{"NoteNumber":63,"Velocity":44,"Duration":142857,"SoundDuration":142857,"Delta":223774629},{"NoteNumber":70,"Velocity":70,"Duration":122448,"SoundDuration":122448,"Delta":223917486},{"NoteNumber":53,"Velocity":48,"Duration":244898,"SoundDuration":244898,"Delta":223917486},{"NoteNumber":46,"Velocity":40,"Duration":244898,"SoundDuration":244898,"Delta":223917486},{"NoteNumber":63,"Velocity":51,"Duration":118576,"SoundDuration":118576,"Delta":224162384},{"NoteNumber":62,"Velocity":44,"Duration":141509,"SoundDuration":141509,"Delta":224280961},{"NoteNumber":70,"Velocity":70,"Duration":122448,"SoundDuration":122448,"Delta":224422470},{"NoteNumber":46,"Velocity":40,"Duration":244898,"SoundDuration":244898,"Delta":224422470},{"NoteNumber":55,"Velocity":48,"Duration":244898,"SoundDuration":244898,"Delta":224422470},{"NoteNumber":65,"Velocity":51,"Duration":120482,"SoundDuration":120482,"Delta":224667368},{"NoteNumber":63,"Velocity":44,"Duration":143540,"SoundDuration":143540,"Delta":224787850},{"NoteNumber":83,"Velocity":70,"Duration":244898,"SoundDuration":244898,"Delta":224931391},{"NoteNumber":58,"Velocity":40,"Duration":244898,"SoundDuration":244898,"Delta":224931391},{"NoteNumber":65,"Velocity":48,"Duration":244898,"SoundDuration":244898,"Delta":224931391},{"NoteNumber":75,"Velocity":51,"Duration":118110,"SoundDuration":118110,"Delta":225176289},{"NoteNumber":74,"Velocity":44,"Duration":118110,"SoundDuration":118110,"Delta":225294399},{"NoteNumber":75,"Velocity":51,"Duration":118110,"SoundDuration":118110,"Delta":225412510},{"NoteNumber":74,"Velocity":43,"Duration":118110,"SoundDuration":118110,"Delta":225530620},{"NoteNumber":75,"Velocity":51,"Duration":118110,"SoundDuration":118110,"Delta":225648730},{"NoteNumber":74,"Velocity":45,"Duration":163043,"SoundDuration":163043,"Delta":225766840},{"NoteNumber":82,"Velocity":70,"Duration":244898,"SoundDuration":244898,"Delta":225929884},{"NoteNumber":58,"Velocity":40,"Duration":244898,"SoundDuration":244898,"Delta":225929884},{"NoteNumber":67,"Velocity":48,"Duration":244898,"SoundDuration":244898,"Delta":225929884},{"NoteNumber":77,"Velocity":51,"Duration":119521,"SoundDuration":119521,"Delta":226174782},{"NoteNumber":76,"Velocity":44,"Duration":119522,"SoundDuration":119522,"Delta":226294304},{"NoteNumber":77,"Velocity":51,"Duration":119521,"SoundDuration":119521,"Delta":226413826},{"NoteNumber":76,"Velocity":43,"Duration":119522,"SoundDuration":119522,"Delta":226533348},{"NoteNumber":77,"Velocity":51,"Duration":119521,"SoundDuration":119521,"Delta":226652870},{"NoteNumber":76,"Velocity":45,"Duration":163043,"SoundDuration":163043,"Delta":226772392},{"NoteNumber":82,"Velocity":70,"Duration":122448,"SoundDuration":122448,"Delta":226935435},{"NoteNumber":58,"Velocity":40,"Duration":244898,"SoundDuration":244898,"Delta":226935435},{"NoteNumber":68,"Velocity":48,"Duration":244898,"SoundDuration":244898,"Delta":226935435},{"NoteNumber":79,"Velocity":51,"Duration":119047,"SoundDuration":119047,"Delta":227180333},{"NoteNumber":77,"Velocity":44,"Duration":142179,"SoundDuration":142179,"Delta":227299381},{"NoteNumber":82,"Velocity":70,"Duration":122448,"SoundDuration":122448,"Delta":227441561},{"NoteNumber":58,"Velocity":40,"Duration":244898,"SoundDuration":244898,"Delta":227441561},{"NoteNumber":67,"Velocity":48,"Duration":244898,"SoundDuration":244898,"Delta":227441561},{"NoteNumber":77,"Velocity":51,"Duration":118576,"SoundDuration":118576,"Delta":227686459},{"NoteNumber":76,"Velocity":44,"Duration":142857,"SoundDuration":142857,"Delta":227805036},{"NoteNumber":82,"Velocity":70,"Duration":122448,"SoundDuration":122448,"Delta":227947893},{"NoteNumber":58,"Velocity":40,"Duration":244898,"SoundDuration":244898,"Delta":227947893},{"NoteNumber":68,"Velocity":48,"Duration":244898,"SoundDuration":244898,"Delta":227947893},{"NoteNumber":79,"Velocity":51,"Duration":119047,"SoundDuration":119047,"Delta":228192791},{"NoteNumber":77,"Velocity":44,"Duration":141509,"SoundDuration":141509,"Delta":228311839},{"NoteNumber":82,"Velocity":64,"Duration":244898,"SoundDuration":244898,"Delta":228453348},{"NoteNumber":58,"Velocity":48,"Duration":244898,"SoundDuration":244898,"Delta":228453348},{"NoteNumber":80,"Velocity":70,"Duration":506635,"SoundDuration":506635,"Delta":228698246},{"NoteNumber":77,"Velocity":59,"Duration":506635,"SoundDuration":506635,"Delta":228698246},{"NoteNumber":60,"Velocity":38,"Duration":118576,"SoundDuration":118576,"Delta":228698246},{"NoteNumber":62,"Velocity":40,"Duration":131004,"SoundDuration":131004,"Delta":228816823},{"NoteNumber":70,"Velocity":45,"Duration":517369,"SoundDuration":517369,"Delta":228947827},{"NoteNumber":63,"Velocity":42,"Duration":126050,"SoundDuration":126050,"Delta":228947827},{"NoteNumber":65,"Velocity":44,"Duration":131004,"SoundDuration":131004,"Delta":229073878},{"NoteNumber":79,"Velocity":65,"Duration":260314,"SoundDuration":260314,"Delta":229204882},{"NoteNumber":75,"Velocity":55,"Duration":260314,"SoundDuration":260314,"Delta":229204882},{"NoteNumber":67,"Velocity":46,"Duration":131004,"SoundDuration":131004,"Delta":229204882},{"NoteNumber":68,"Velocity":48,"Duration":129310,"SoundDuration":129310,"Delta":229335886},{"NoteNumber":77,"Velocity":65,"Duration":251046,"SoundDuration":251046,"Delta":229465197},{"NoteNumber":74,"Velocity":55,"Duration":251046,"SoundDuration":251046,"Delta":229465197},{"NoteNumber":70,"Velocity":50,"Duration":251046,"SoundDuration":251046,"Delta":229465197},{"NoteNumber":89,"Velocity":59,"Duration":508540,"SoundDuration":508540,"Delta":229716243},{"NoteNumber":92,"Velocity":70,"Duration":508540,"SoundDuration":508540,"Delta":229716243},{"NoteNumber":72,"Velocity":38,"Duration":120482,"SoundDuration":120482,"Delta":229716243},{"NoteNumber":74,"Velocity":40,"Duration":131004,"SoundDuration":131004,"Delta":229836725},{"NoteNumber":82,"Velocity":45,"Duration":517369,"SoundDuration":517369,"Delta":229967729},{"NoteNumber":75,"Velocity":42,"Duration":126050,"SoundDuration":126050,"Delta":229967729},{"NoteNumber":77,"Velocity":44,"Duration":131004,"SoundDuration":131004,"Delta":230093779},{"NoteNumber":87,"Velocity":55,"Duration":260314,"SoundDuration":260314,"Delta":230224784},{"NoteNumber":91,"Velocity":65,"Duration":260314,"SoundDuration":260314,"Delta":230224784},{"NoteNumber":79,"Velocity":46,"Duration":131004,"SoundDuration":131004,"Delta":230224784},{"NoteNumber":80,"Velocity":48,"Duration":129310,"SoundDuration":129310,"Delta":230355788},{"NoteNumber":89,"Velocity":65,"Duration":258856,"SoundDuration":258856,"Delta":230485098},{"NoteNumber":86,"Velocity":55,"Duration":258856,"SoundDuration":258856,"Delta":230485098},{"NoteNumber":82,"Velocity":50,"Duration":258856,"SoundDuration":258856,"Delta":230485098},{"NoteNumber":86,"Velocity":64,"Duration":251486,"SoundDuration":251486,"Delta":230743954},{"NoteNumber":89,"Velocity":64,"Duration":251486,"SoundDuration":251486,"Delta":230743954},{"NoteNumber":96,"Velocity":77,"Duration":508540,"SoundDuration":508540,"Delta":230743954},{"NoteNumber":80,"Velocity":47,"Duration":251486,"SoundDuration":251486,"Delta":230743954},{"NoteNumber":87,"Velocity":65,"Duration":257054,"SoundDuration":257054,"Delta":230995441},{"NoteNumber":82,"Velocity":65,"Duration":257054,"SoundDuration":257054,"Delta":230995441},{"NoteNumber":79,"Velocity":56,"Duration":257054,"SoundDuration":257054,"Delta":230995441},{"NoteNumber":94,"Velocity":75,"Duration":260314,"SoundDuration":260314,"Delta":231252495},{"NoteNumber":87,"Velocity":63,"Duration":260314,"SoundDuration":260314,"Delta":231252495},{"NoteNumber":82,"Velocity":63,"Duration":260314,"SoundDuration":260314,"Delta":231252495},{"NoteNumber":78,"Velocity":46,"Duration":260314,"SoundDuration":260314,"Delta":231252495},{"NoteNumber":87,"Velocity":69,"Duration":251046,"SoundDuration":251046,"Delta":231512810},{"NoteNumber":84,"Velocity":69,"Duration":251046,"SoundDuration":251046,"Delta":231512810},{"NoteNumber":77,"Velocity":55,"Duration":251046,"SoundDuration":251046,"Delta":231512810},{"NoteNumber":92,"Velocity":79,"Duration":251046,"SoundDuration":251046,"Delta":231763856},{"NoteNumber":89,"Velocity":67,"Duration":251046,"SoundDuration":251046,"Delta":231763856},{"NoteNumber":86,"Velocity":67,"Duration":251046,"SoundDuration":251046,"Delta":231763856},{"NoteNumber":70,"Velocity":47,"Duration":251046,"SoundDuration":251046,"Delta":231763856},{"NoteNumber":79,"Velocity":70,"Duration":983518,"SoundDuration":983518,"Delta":232014902},{"NoteNumber":91,"Velocity":88,"Duration":983518,"SoundDuration":983518,"Delta":232014902},{"NoteNumber":63,"Velocity":39,"Duration":983518,"SoundDuration":983518,"Delta":232014902},{"NoteNumber":82,"Velocity":49,"Duration":122449,"SoundDuration":122449,"Delta":232137351},{"NoteNumber":84,"Velocity":55,"Duration":120000,"SoundDuration":120000,"Delta":232259800},{"NoteNumber":66,"Velocity":39,"Duration":479999,"SoundDuration":479999,"Delta":232259800},{"NoteNumber":69,"Velocity":39,"Duration":479999,"SoundDuration":479999,"Delta":232259800},{"NoteNumber":82,"Velocity":50,"Duration":120000,"SoundDuration":120000,"Delta":232379800},{"NoteNumber":84,"Velocity":55,"Duration":120000,"SoundDuration":120000,"Delta":232499800},{"NoteNumber":82,"Velocity":47,"Duration":119999,"SoundDuration":119999,"Delta":232619800},{"NoteNumber":84,"Velocity":55,"Duration":129310,"SoundDuration":129310,"Delta":232739800},{"NoteNumber":67,"Velocity":39,"Duration":258620,"SoundDuration":258620,"Delta":232739800},{"NoteNumber":70,"Velocity":39,"Duration":258620,"SoundDuration":258620,"Delta":232739800},{"NoteNumber":82,"Velocity":48,"Duration":129310,"SoundDuration":129310,"Delta":232869110},{"NoteNumber":77,"Velocity":70,"Duration":986489,"SoundDuration":986489,"Delta":232998420},{"NoteNumber":89,"Velocity":80,"Duration":986489,"SoundDuration":986489,"Delta":232998420},{"NoteNumber":63,"Velocity":39,"Duration":986489,"SoundDuration":986489,"Delta":232998420},{"NoteNumber":80,"Velocity":46,"Duration":121457,"SoundDuration":121457,"Delta":233119878},{"NoteNumber":82,"Velocity":54,"Duration":119521,"SoundDuration":119521,"Delta":233241335},{"NoteNumber":74,"Velocity":39,"Duration":478088,"SoundDuration":478088,"Delta":233241335},{"NoteNumber":71,"Velocity":39,"Duration":478088,"SoundDuration":478088,"Delta":233241335},{"NoteNumber":80,"Velocity":50,"Duration":119522,"SoundDuration":119522,"Delta":233360857},{"NoteNumber":82,"Velocity":53,"Duration":119521,"SoundDuration":119521,"Delta":233480379},{"NoteNumber":80,"Velocity":47,"Duration":119522,"SoundDuration":119522,"Delta":233599901},{"NoteNumber":82,"Velocity":53,"Duration":132743,"SoundDuration":132743,"Delta":233719423},{"NoteNumber":70,"Velocity":39,"Duration":265486,"SoundDuration":265486,"Delta":233719423},{"NoteNumber":80,"Velocity":48,"Duration":132743,"SoundDuration":132743,"Delta":233852167},{"NoteNumber":87,"Velocity":70,"Duration":500000,"SoundDuration":500000,"Delta":233984910},{"NoteNumber":79,"Velocity":53,"Duration":125000,"SoundDuration":125000,"Delta":233984910},{"NoteNumber":63,"Velocity":39,"Duration":1001595,"SoundDuration":1001595,"Delta":233984910},{"NoteNumber":75,"Velocity":48,"Duration":125000,"SoundDuration":125000,"Delta":234109910},{"NoteNumber":77,"Velocity":53,"Duration":125000,"SoundDuration":125000,"Delta":234234910},{"NoteNumber":67,"Velocity":33,"Duration":250000,"SoundDuration":250000,"Delta":234234910},{"NoteNumber":70,"Velocity":39,"Duration":250000,"SoundDuration":250000,"Delta":234234910},{"NoteNumber":75,"Velocity":48,"Duration":125000,"SoundDuration":125000,"Delta":234359910},{"NoteNumber":84,"Velocity":68,"Duration":245901,"SoundDuration":245901,"Delta":234484910},{"NoteNumber":72,"Velocity":39,"Duration":245901,"SoundDuration":245901,"Delta":234484910},{"NoteNumber":68,"Velocity":33,"Duration":245901,"SoundDuration":245901,"Delta":234484910},{"NoteNumber":75,"Velocity":48,"Duration":122950,"SoundDuration":122950,"Delta":234607861},{"NoteNumber":82,"Velocity":60,"Duration":255694,"SoundDuration":255694,"Delta":234730811},{"NoteNumber":67,"Velocity":30,"Duration":255694,"SoundDuration":255694,"Delta":234730811},{"NoteNumber":70,"Velocity":39,"Duration":255694,"SoundDuration":255694,"Delta":234730811},{"NoteNumber":75,"Velocity":48,"Duration":132743,"SoundDuration":132743,"Delta":234853762},{"NoteNumber":82,"Velocity":68,"Duration":247933,"SoundDuration":247933,"Delta":234986505},{"NoteNumber":75,"Velocity":53,"Duration":123966,"SoundDuration":123966,"Delta":234986505},{"NoteNumber":67,"Velocity":39,"Duration":247933,"SoundDuration":247933,"Delta":234986505},{"NoteNumber":58,"Velocity":39,"Duration":1021202,"SoundDuration":1021202,"Delta":234986505},{"NoteNumber":70,"Velocity":48,"Duration":123966,"SoundDuration":123966,"Delta":235110472},{"NoteNumber":74,"Velocity":53,"Duration":125522,"SoundDuration":125522,"Delta":235234439},{"NoteNumber":80,"Velocity":58,"Duration":251046,"SoundDuration":251046,"Delta":235234439},{"NoteNumber":65,"Velocity":33,"Duration":251046,"SoundDuration":251046,"Delta":235234439},{"NoteNumber":68,"Velocity":39,"Duration":251046,"SoundDuration":251046,"Delta":235234439},{"NoteNumber":70,"Velocity":48,"Duration":125523,"SoundDuration":125523,"Delta":235359962},{"NoteNumber":75,"Velocity":53,"Duration":126582,"SoundDuration":126582,"Delta":235485485},{"NoteNumber":79,"Velocity":66,"Duration":253164,"SoundDuration":253164,"Delta":235485485},{"NoteNumber":67,"Velocity":39,"Duration":253164,"SoundDuration":253164,"Delta":235485485},{"NoteNumber":63,"Velocity":33,"Duration":253164,"SoundDuration":253164,"Delta":235485485},{"NoteNumber":70,"Velocity":48,"Duration":126582,"SoundDuration":126582,"Delta":235612068},{"NoteNumber":68,"Velocity":53,"Duration":134529,"SoundDuration":134529,"Delta":235738650},{"NoteNumber":77,"Velocity":57,"Duration":269058,"SoundDuration":269058,"Delta":235738650},{"NoteNumber":62,"Velocity":30,"Duration":269058,"SoundDuration":269058,"Delta":235738650},{"NoteNumber":65,"Velocity":39,"Duration":269058,"SoundDuration":269058,"Delta":235738650},{"NoteNumber":70,"Velocity":48,"Duration":134529,"SoundDuration":134529,"Delta":235873179},{"NoteNumber":67,"Velocity":65,"Duration":987389,"SoundDuration":987389,"Delta":236007708},{"NoteNumber":79,"Velocity":79,"Duration":987389,"SoundDuration":987389,"Delta":236007708},{"NoteNumber":51,"Velocity":35,"Duration":987389,"SoundDuration":987389,"Delta":236007708},{"NoteNumber":70,"Velocity":44,"Duration":122449,"SoundDuration":122449,"Delta":236130157},{"NoteNumber":72,"Velocity":49,"Duration":120967,"SoundDuration":120967,"Delta":236252606},{"NoteNumber":54,"Velocity":38,"Duration":483870,"SoundDuration":483870,"Delta":236252606},{"NoteNumber":57,"Velocity":53,"Duration":483870,"SoundDuration":483870,"Delta":236252606},{"NoteNumber":70,"Velocity":45,"Duration":120967,"SoundDuration":120967,"Delta":236373574},{"NoteNumber":72,"Velocity":49,"Duration":120967,"SoundDuration":120967,"Delta":236494542},{"NoteNumber":70,"Velocity":42,"Duration":120967,"SoundDuration":120967,"Delta":236615510},{"NoteNumber":72,"Velocity":49,"Duration":129310,"SoundDuration":129310,"Delta":236736477},{"NoteNumber":58,"Velocity":35,"Duration":258620,"SoundDuration":258620,"Delta":236736477},{"NoteNumber":55,"Velocity":35,"Duration":258620,"SoundDuration":258620,"Delta":236736477},{"NoteNumber":70,"Velocity":43,"Duration":129310,"SoundDuration":129310,"Delta":236865788},{"NoteNumber":65,"Velocity":65,"Duration":982655,"SoundDuration":982655,"Delta":236995098},{"NoteNumber":77,"Velocity":72,"Duration":982655,"SoundDuration":982655,"Delta":236995098},{"NoteNumber":51,"Velocity":35,"Duration":982655,"SoundDuration":982655,"Delta":236995098},{"NoteNumber":68,"Velocity":41,"Duration":121457,"SoundDuration":121457,"Delta":237116555},{"NoteNumber":70,"Velocity":48,"Duration":120000,"SoundDuration":120000,"Delta":237238013},{"NoteNumber":59,"Velocity":38,"Duration":479999,"SoundDuration":479999,"Delta":237238013},{"NoteNumber":62,"Velocity":50,"Duration":479999,"SoundDuration":479999,"Delta":237238013},{"NoteNumber":68,"Velocity":45,"Duration":120000,"SoundDuration":120000,"Delta":237358013},{"NoteNumber":70,"Velocity":47,"Duration":120000,"SoundDuration":120000,"Delta":237478013},{"NoteNumber":68,"Velocity":42,"Duration":119999,"SoundDuration":119999,"Delta":237598013},{"NoteNumber":70,"Velocity":47,"Duration":129870,"SoundDuration":129870,"Delta":237718013},{"NoteNumber":58,"Velocity":35,"Duration":259740,"SoundDuration":259740,"Delta":237718013},{"NoteNumber":68,"Velocity":43,"Duration":129870,"SoundDuration":129870,"Delta":237847883},{"NoteNumber":67,"Velocity":47,"Duration":125000,"SoundDuration":125000,"Delta":237977753},{"NoteNumber":75,"Velocity":63,"Duration":503164,"SoundDuration":503164,"Delta":237977753},{"NoteNumber":51,"Velocity":29,"Duration":503164,"SoundDuration":503164,"Delta":237977753},{"NoteNumber":55,"Velocity":29,"Duration":503164,"SoundDuration":503164,"Delta":237977753},{"NoteNumber":58,"Velocity":35,"Duration":503164,"SoundDuration":503164,"Delta":237977753},{"NoteNumber":63,"Velocity":43,"Duration":125000,"SoundDuration":125000,"Delta":238102753},{"NoteNumber":65,"Velocity":47,"Duration":126582,"SoundDuration":126582,"Delta":238227753},{"NoteNumber":63,"Velocity":43,"Duration":126582,"SoundDuration":126582,"Delta":238354336},{"NoteNumber":72,"Velocity":61,"Duration":244898,"SoundDuration":244898,"Delta":238480918},{"NoteNumber":60,"Velocity":47,"Duration":122448,"SoundDuration":122448,"Delta":238480918},{"NoteNumber":68,"Velocity":51,"Duration":244898,"SoundDuration":244898,"Delta":238480918},{"NoteNumber":56,"Velocity":35,"Duration":244898,"SoundDuration":244898,"Delta":238480918},{"NoteNumber":44,"Velocity":29,"Duration":244898,"SoundDuration":244898,"Delta":238480918},{"NoteNumber":51,"Velocity":29,"Duration":244898,"SoundDuration":244898,"Delta":238480918},{"NoteNumber":63,"Velocity":43,"Duration":122449,"SoundDuration":122449,"Delta":238603367},{"NoteNumber":67,"Velocity":45,"Duration":266679,"SoundDuration":266679,"Delta":238725816},{"NoteNumber":58,"Velocity":47,"Duration":122448,"SoundDuration":122448,"Delta":238725816},{"NoteNumber":70,"Velocity":54,"Duration":266679,"SoundDuration":266679,"Delta":238725816},{"NoteNumber":39,"Velocity":27,"Duration":266679,"SoundDuration":266679,"Delta":238725816},{"NoteNumber":51,"Velocity":35,"Duration":266679,"SoundDuration":266679,"Delta":238725816},{"NoteNumber":63,"Velocity":43,"Duration":144230,"SoundDuration":144230,"Delta":238848265},{"NoteNumber":67,"Velocity":47,"Duration":123966,"SoundDuration":123966,"Delta":238992496},{"NoteNumber":70,"Velocity":61,"Duration":247933,"SoundDuration":247933,"Delta":238992496},{"NoteNumber":34,"Velocity":35,"Duration":247933,"SoundDuration":247933,"Delta":238992496},{"NoteNumber":58,"Velocity":43,"Duration":123966,"SoundDuration":123966,"Delta":239116463},{"NoteNumber":68,"Velocity":52,"Duration":251046,"SoundDuration":251046,"Delta":239240430},{"NoteNumber":65,"Velocity":47,"Duration":125522,"SoundDuration":125522,"Delta":239240430},{"NoteNumber":46,"Velocity":35,"Duration":251046,"SoundDuration":251046,"Delta":239240430},{"NoteNumber":56,"Velocity":43,"Duration":125523,"SoundDuration":125523,"Delta":239365953},{"NoteNumber":67,"Velocity":59,"Duration":253164,"SoundDuration":253164,"Delta":239491476},{"NoteNumber":63,"Velocity":47,"Duration":126582,"SoundDuration":126582,"Delta":239491476},{"NoteNumber":34,"Velocity":35,"Duration":253164,"SoundDuration":253164,"Delta":239491476},{"NoteNumber":55,"Velocity":43,"Duration":126582,"SoundDuration":126582,"Delta":239618058},{"NoteNumber":65,"Velocity":51,"Duration":273972,"SoundDuration":273972,"Delta":239744640},{"NoteNumber":62,"Velocity":51,"Duration":273972,"SoundDuration":273972,"Delta":239744640},{"NoteNumber":46,"Velocity":35,"Duration":273972,"SoundDuration":273972,"Delta":239744640},{"NoteNumber":53,"Velocity":43,"Duration":136986,"SoundDuration":136986,"Delta":239881626},{"NoteNumber":63,"Velocity":57,"Duration":633096,"SoundDuration":633096,"Delta":240018613},{"NoteNumber":51,"Velocity":43,"Duration":382050,"SoundDuration":382050,"Delta":240018613},{"NoteNumber":39,"Velocity":43,"Duration":382050,"SoundDuration":382050,"Delta":240018613},{"NoteNumber":59,"Velocity":46,"Duration":376568,"SoundDuration":376568,"Delta":240149617},{"NoteNumber":55,"Velocity":55,"Duration":251046,"SoundDuration":251046,"Delta":240275140},{"NoteNumber":47,"Velocity":39,"Duration":125522,"SoundDuration":125522,"Delta":240400663},{"NoteNumber":46,"Velocity":45,"Duration":251046,"SoundDuration":251046,"Delta":240526186},{"NoteNumber":58,"Velocity":47,"Duration":125523,"SoundDuration":125523,"Delta":240662169},{"NoteNumber":55,"Velocity":47,"Duration":125523,"SoundDuration":125523,"Delta":240777232},{"NoteNumber":39,"Velocity":38,"Duration":256527,"SoundDuration":256527,"Delta":240777232},{"NoteNumber":63,"Velocity":47,"Duration":256527,"SoundDuration":256527,"Delta":240902755},{"NoteNumber":58,"Velocity":47,"Duration":502092,"SoundDuration":502092,"Delta":241033759},{"NoteNumber":34,"Velocity":55,"Duration":251046,"SoundDuration":251046,"Delta":241033759},{"NoteNumber":63,"Velocity":47,"Duration":125523,"SoundDuration":125523,"Delta":241159282},{"NoteNumber":62,"Velocity":51,"Duration":125522,"SoundDuration":125522,"Delta":241284805},{"NoteNumber":56,"Velocity":44,"Duration":125522,"SoundDuration":125522,"Delta":241284805},{"NoteNumber":63,"Velocity":49,"Duration":125523,"SoundDuration":125523,"Delta":241410328},{"NoteNumber":55,"Velocity":36,"Duration":125523,"SoundDuration":125523,"Delta":241410328},{"NoteNumber":65,"Velocity":52,"Duration":120967,"SoundDuration":120967,"Delta":241535851},{"NoteNumber":53,"Velocity":43,"Duration":120967,"SoundDuration":120967,"Delta":241535851},{"NoteNumber":67,"Velocity":44,"Duration":120967,"SoundDuration":120967,"Delta":241656819},{"NoteNumber":51,"Velocity":39,"Duration":120967,"SoundDuration":120967,"Delta":241656819},{"NoteNumber":68,"Velocity":51,"Duration":120967,"SoundDuration":120967,"Delta":241777787},{"NoteNumber":50,"Velocity":39,"Duration":120967,"SoundDuration":120967,"Delta":241777787},{"NoteNumber":46,"Velocity":39,"Duration":263147,"SoundDuration":263147,"Delta":241777787},{"NoteNumber":65,"Velocity":47,"Duration":142179,"SoundDuration":142179,"Delta":241898754},{"NoteNumber":58,"Velocity":39,"Duration":142179,"SoundDuration":142179,"Delta":241898754},{"NoteNumber":75,"Velocity":57,"Duration":633096,"SoundDuration":633096,"Delta":242040934},{"NoteNumber":51,"Velocity":43,"Duration":382050,"SoundDuration":382050,"Delta":242040934},{"NoteNumber":71,"Velocity":46,"Duration":376568,"SoundDuration":376568,"Delta":242171939},{"NoteNumber":67,"Velocity":55,"Duration":251046,"SoundDuration":251046,"Delta":242297462},{"NoteNumber":59,"Velocity":39,"Duration":125522,"SoundDuration":125522,"Delta":242422985},{"NoteNumber":58,"Velocity":45,"Duration":251046,"SoundDuration":251046,"Delta":242548508},{"NoteNumber":70,"Velocity":47,"Duration":125522,"SoundDuration":125522,"Delta":242684491},{"NoteNumber":67,"Velocity":47,"Duration":125523,"SoundDuration":125523,"Delta":242799554},{"NoteNumber":51,"Velocity":38,"Duration":256527,"SoundDuration":256527,"Delta":242799554},{"NoteNumber":75,"Velocity":47,"Duration":256527,"SoundDuration":256527,"Delta":242925077},{"NoteNumber":70,"Velocity":47,"Duration":502092,"SoundDuration":502092,"Delta":243056081},{"NoteNumber":46,"Velocity":55,"Duration":251046,"SoundDuration":251046,"Delta":243056081},{"NoteNumber":75,"Velocity":47,"Duration":125523,"SoundDuration":125523,"Delta":243181604},{"NoteNumber":74,"Velocity":51,"Duration":125522,"SoundDuration":125522,"Delta":243307127},{"NoteNumber":68,"Velocity":44,"Duration":125522,"SoundDuration":125522,"Delta":243307127},{"NoteNumber":75,"Velocity":49,"Duration":125523,"SoundDuration":125523,"Delta":243432650},{"NoteNumber":67,"Velocity":36,"Duration":125523,"SoundDuration":125523,"Delta":243432650},{"NoteNumber":77,"Velocity":52,"Duration":120967,"SoundDuration":120967,"Delta":243558173},{"NoteNumber":65,"Velocity":43,"Duration":120967,"SoundDuration":120967,"Delta":243558173},{"NoteNumber":79,"Velocity":44,"Duration":120967,"SoundDuration":120967,"Delta":243679141},{"NoteNumber":63,"Velocity":39,"Duration":120967,"SoundDuration":120967,"Delta":243679141},{"NoteNumber":80,"Velocity":51,"Duration":120967,"SoundDuration":120967,"Delta":243800108},{"NoteNumber":58,"Velocity":39,"Duration":120967,"SoundDuration":120967,"Delta":243800108},{"NoteNumber":62,"Velocity":39,"Duration":120967,"SoundDuration":120967,"Delta":243800108},{"NoteNumber":77,"Velocity":47,"Duration":150000,"SoundDuration":150000,"Delta":243921076},{"NoteNumber":65,"Velocity":39,"Duration":150000,"SoundDuration":150000,"Delta":243921076},{"NoteNumber":79,"Velocity":51,"Duration":117187,"SoundDuration":117187,"Delta":244071076},{"NoteNumber":63,"Velocity":39,"Duration":367187,"SoundDuration":367187,"Delta":244071076},{"NoteNumber":67,"Velocity":39,"Duration":367187,"SoundDuration":367187,"Delta":244071076},{"NoteNumber":77,"Velocity":42,"Duration":125000,"SoundDuration":125000,"Delta":244188264},{"NoteNumber":75,"Velocity":49,"Duration":373966,"SoundDuration":373966,"Delta":244313264},{"NoteNumber":65,"Velocity":33,"Duration":125000,"SoundDuration":125000,"Delta":244438264},{"NoteNumber":63,"Velocity":39,"Duration":368448,"SoundDuration":368448,"Delta":244563264},{"NoteNumber":72,"Velocity":41,"Duration":120000,"SoundDuration":120000,"Delta":244687231},{"NoteNumber":70,"Velocity":48,"Duration":373443,"SoundDuration":373443,"Delta":244807231},{"NoteNumber":60,"Velocity":34,"Duration":124481,"SoundDuration":124481,"Delta":244931712},{"NoteNumber":58,"Velocity":39,"Duration":370419,"SoundDuration":370419,"Delta":245056193},{"NoteNumber":68,"Velocity":42,"Duration":124481,"SoundDuration":124481,"Delta":245180674},{"NoteNumber":67,"Velocity":48,"Duration":368370,"SoundDuration":368370,"Delta":245305156},{"NoteNumber":56,"Velocity":35,"Duration":123456,"SoundDuration":123456,"Delta":245426613},{"NoteNumber":55,"Velocity":39,"Duration":370370,"SoundDuration":370370,"Delta":245550070},{"NoteNumber":65,"Velocity":42,"Duration":123456,"SoundDuration":123456,"Delta":245673527},{"NoteNumber":63,"Velocity":47,"Duration":368456,"SoundDuration":368456,"Delta":245796983},{"NoteNumber":53,"Velocity":33,"Duration":120000,"SoundDuration":120000,"Delta":245920440},{"NoteNumber":51,"Velocity":39,"Duration":375000,"SoundDuration":375000,"Delta":246040440},{"NoteNumber":60,"Velocity":41,"Duration":125000,"SoundDuration":125000,"Delta":246165440},{"NoteNumber":58,"Velocity":47,"Duration":368456,"SoundDuration":368456,"Delta":246290440},{"NoteNumber":48,"Velocity":31,"Duration":120000,"SoundDuration":120000,"Delta":246415440},{"NoteNumber":46,"Velocity":39,"Duration":370370,"SoundDuration":370370,"Delta":246535440},{"NoteNumber":56,"Velocity":38,"Duration":123456,"SoundDuration":123456,"Delta":246658897},{"NoteNumber":55,"Velocity":43,"Duration":366407,"SoundDuration":366407,"Delta":246782354},{"NoteNumber":44,"Velocity":34,"Duration":120000,"SoundDuration":120000,"Delta":246905810},{"NoteNumber":43,"Velocity":39,"Duration":368852,"SoundDuration":368852,"Delta":247025810},{"NoteNumber":53,"Velocity":37,"Duration":122950,"SoundDuration":122950,"Delta":247148761},{"NoteNumber":51,"Velocity":44,"Duration":366917,"SoundDuration":366917,"Delta":247271712},{"NoteNumber":41,"Velocity":35,"Duration":120000,"SoundDuration":120000,"Delta":247394663},{"NoteNumber":39,"Velocity":39,"Duration":393564,"SoundDuration":393564,"Delta":247514663},{"NoteNumber":53,"Velocity":36,"Duration":123966,"SoundDuration":123966,"Delta":247638630},{"NoteNumber":51,"Velocity":41,"Duration":561838,"SoundDuration":561838,"Delta":247762597},{"NoteNumber":73,"Velocity":37,"Duration":163043,"SoundDuration":163043,"Delta":247908228},{"NoteNumber":70,"Velocity":30,"Duration":163043,"SoundDuration":163043,"Delta":247908228},{"NoteNumber":70,"Velocity":36,"Duration":1012657,"SoundDuration":1012657,"Delta":248071271},{"NoteNumber":73,"Velocity":42,"Duration":1012657,"SoundDuration":1012657,"Delta":248071271},{"NoteNumber":68,"Velocity":36,"Duration":1030042,"SoundDuration":1030042,"Delta":249083929},{"NoteNumber":72,"Velocity":42,"Duration":1030042,"SoundDuration":1030042,"Delta":249083929},{"NoteNumber":75,"Velocity":45,"Duration":1030041,"SoundDuration":1030041,"Delta":250113971},{"NoteNumber":82,"Velocity":53,"Duration":1030041,"SoundDuration":1030041,"Delta":250113971},{"NoteNumber":70,"Velocity":42,"Duration":1030041,"SoundDuration":1030041,"Delta":250113971},{"NoteNumber":67,"Velocity":36,"Duration":1030041,"SoundDuration":1030041,"Delta":250113971},{"NoteNumber":85,"Velocity":55,"Duration":1111111,"SoundDuration":1111111,"Delta":251144013},{"NoteNumber":73,"Velocity":46,"Duration":1111111,"SoundDuration":1111111,"Delta":251144013},{"NoteNumber":65,"Velocity":36,"Duration":1111111,"SoundDuration":1111111,"Delta":251144013},{"NoteNumber":68,"Velocity":42,"Duration":1111111,"SoundDuration":1111111,"Delta":251144013},{"NoteNumber":84,"Velocity":84,"Duration":728745,"SoundDuration":728745,"Delta":252255125},{"NoteNumber":72,"Velocity":70,"Duration":728745,"SoundDuration":728745,"Delta":252255125},{"NoteNumber":67,"Velocity":84,"Duration":728745,"SoundDuration":728745,"Delta":252255125},{"NoteNumber":63,"Velocity":70,"Duration":728745,"SoundDuration":728745,"Delta":252255125},{"NoteNumber":72,"Velocity":59,"Duration":102040,"SoundDuration":102040,"Delta":252983870},{"NoteNumber":77,"Velocity":70,"Duration":102040,"SoundDuration":102040,"Delta":252983870},{"NoteNumber":63,"Velocity":51,"Duration":102040,"SoundDuration":102040,"Delta":252983870},{"NoteNumber":69,"Velocity":60,"Duration":102040,"SoundDuration":102040,"Delta":252983870},{"NoteNumber":73,"Velocity":56,"Duration":61728,"SoundDuration":61728,"Delta":253085911},{"NoteNumber":82,"Velocity":67,"Duration":61728,"SoundDuration":61728,"Delta":253085911},{"NoteNumber":65,"Velocity":59,"Duration":61728,"SoundDuration":61728,"Delta":253085911},{"NoteNumber":61,"Velocity":50,"Duration":61728,"SoundDuration":61728,"Delta":253085911},{"NoteNumber":82,"Velocity":70,"Duration":243902,"SoundDuration":243902,"Delta":253209368},{"NoteNumber":73,"Velocity":59,"Duration":243902,"SoundDuration":243902,"Delta":253209368},{"NoteNumber":65,"Velocity":67,"Duration":243902,"SoundDuration":243902,"Delta":253209368},{"NoteNumber":61,"Velocity":56,"Duration":243902,"SoundDuration":243902,"Delta":253209368},{"NoteNumber":70,"Velocity":59,"Duration":102388,"SoundDuration":102388,"Delta":253453270},{"NoteNumber":75,"Velocity":70,"Duration":102388,"SoundDuration":102388,"Delta":253453270},{"NoteNumber":61,"Velocity":51,"Duration":102388,"SoundDuration":102388,"Delta":253453270},{"NoteNumber":67,"Velocity":60,"Duration":102388,"SoundDuration":102388,"Delta":253453270},{"NoteNumber":72,"Velocity":56,"Duration":62240,"SoundDuration":62240,"Delta":253555659},{"NoteNumber":80,"Velocity":67,"Duration":62240,"SoundDuration":62240,"Delta":253555659},{"NoteNumber":63,"Velocity":59,"Duration":62240,"SoundDuration":62240,"Delta":253555659},{"NoteNumber":60,"Velocity":50,"Duration":62240,"SoundDuration":62240,"Delta":253555659},{"NoteNumber":80,"Velocity":70,"Duration":243902,"SoundDuration":243902,"Delta":253680140},{"NoteNumber":72,"Velocity":59,"Duration":243902,"SoundDuration":243902,"Delta":253680140},{"NoteNumber":63,"Velocity":67,"Duration":243902,"SoundDuration":243902,"Delta":253680140},{"NoteNumber":60,"Velocity":56,"Duration":243902,"SoundDuration":243902,"Delta":253680140},{"NoteNumber":68,"Velocity":59,"Duration":101695,"SoundDuration":101695,"Delta":253924043},{"NoteNumber":73,"Velocity":70,"Duration":101695,"SoundDuration":101695,"Delta":253924043},{"NoteNumber":65,"Velocity":60,"Duration":101695,"SoundDuration":101695,"Delta":253924043},{"NoteNumber":60,"Velocity":44,"Duration":101695,"SoundDuration":101695,"Delta":253924043},{"NoteNumber":79,"Velocity":67,"Duration":64102,"SoundDuration":64102,"Delta":254025738},{"NoteNumber":70,"Velocity":56,"Duration":64102,"SoundDuration":64102,"Delta":254025738},{"NoteNumber":58,"Velocity":50,"Duration":64102,"SoundDuration":64102,"Delta":254025738},{"NoteNumber":61,"Velocity":59,"Duration":64102,"SoundDuration":64102,"Delta":254025738},{"NoteNumber":79,"Velocity":70,"Duration":243902,"SoundDuration":243902,"Delta":254153943},{"NoteNumber":70,"Velocity":59,"Duration":243902,"SoundDuration":243902,"Delta":254153943},{"NoteNumber":61,"Velocity":67,"Duration":243902,"SoundDuration":243902,"Delta":254153943},{"NoteNumber":58,"Velocity":56,"Duration":243902,"SoundDuration":243902,"Delta":254153943},{"NoteNumber":72,"Velocity":70,"Duration":101010,"SoundDuration":101010,"Delta":254397846},{"NoteNumber":67,"Velocity":59,"Duration":101010,"SoundDuration":101010,"Delta":254397846},{"NoteNumber":64,"Velocity":60,"Duration":101010,"SoundDuration":101010,"Delta":254397846},{"NoteNumber":58,"Velocity":51,"Duration":101010,"SoundDuration":101010,"Delta":254397846},{"NoteNumber":68,"Velocity":56,"Duration":62240,"SoundDuration":62240,"Delta":254498856},{"NoteNumber":77,"Velocity":67,"Duration":62240,"SoundDuration":62240,"Delta":254498856},{"NoteNumber":60,"Velocity":59,"Duration":62240,"SoundDuration":62240,"Delta":254498856},{"NoteNumber":56,"Velocity":50,"Duration":62240,"SoundDuration":62240,"Delta":254498856},{"NoteNumber":68,"Velocity":59,"Duration":241869,"SoundDuration":241869,"Delta":254623337},{"NoteNumber":77,"Velocity":70,"Duration":241869,"SoundDuration":241869,"Delta":254623337},{"NoteNumber":56,"Velocity":56,"Duration":241869,"SoundDuration":241869,"Delta":254623337},{"NoteNumber":60,"Velocity":67,"Duration":241869,"SoundDuration":241869,"Delta":254623337},{"NoteNumber":77,"Velocity":70,"Duration":241869,"SoundDuration":241869,"Delta":254867239},{"NoteNumber":65,"Velocity":59,"Duration":241869,"SoundDuration":241869,"Delta":254867239},{"NoteNumber":56,"Velocity":56,"Duration":241869,"SoundDuration":241869,"Delta":254867239},{"NoteNumber":59,"Velocity":67,"Duration":241869,"SoundDuration":241869,"Delta":254867239},{"NoteNumber":77,"Velocity":70,"Duration":497925,"SoundDuration":497925,"Delta":255111142},{"NoteNumber":65,"Velocity":59,"Duration":497925,"SoundDuration":497925,"Delta":255111142},{"NoteNumber":58,"Velocity":67,"Duration":740840,"SoundDuration":740840,"Delta":255111142},{"NoteNumber":55,"Velocity":56,"Duration":740840,"SoundDuration":740840,"Delta":255111142},{"NoteNumber":64,"Velocity":50,"Duration":242915,"SoundDuration":242915,"Delta":255609067},{"NoteNumber":76,"Velocity":59,"Duration":242915,"SoundDuration":242915,"Delta":255609067},{"NoteNumber":72,"Velocity":50,"Duration":242914,"SoundDuration":242914,"Delta":255851982},{"NoteNumber":65,"Velocity":50,"Duration":242914,"SoundDuration":242914,"Delta":255851982},{"NoteNumber":77,"Velocity":59,"Duration":242914,"SoundDuration":242914,"Delta":255851982},{"NoteNumber":53,"Velocity":38,"Duration":242914,"SoundDuration":242914,"Delta":255851982},{"NoteNumber":56,"Velocity":45,"Duration":242914,"SoundDuration":242914,"Delta":255851982},{"NoteNumber":72,"Velocity":48,"Duration":238094,"SoundDuration":238094,"Delta":256094897},{"NoteNumber":67,"Velocity":48,"Duration":238094,"SoundDuration":238094,"Delta":256094897},{"NoteNumber":79,"Velocity":57,"Duration":238094,"SoundDuration":238094,"Delta":256094897},{"NoteNumber":55,"Velocity":48,"Duration":238094,"SoundDuration":238094,"Delta":256094897},{"NoteNumber":52,"Velocity":40,"Duration":238094,"SoundDuration":238094,"Delta":256094897},{"NoteNumber":80,"Velocity":60,"Duration":238094,"SoundDuration":238094,"Delta":256332992},{"NoteNumber":72,"Velocity":51,"Duration":238094,"SoundDuration":238094,"Delta":256332992},{"NoteNumber":68,"Velocity":51,"Duration":238094,"SoundDuration":238094,"Delta":256332992},{"NoteNumber":50,"Velocity":42,"Duration":238094,"SoundDuration":238094,"Delta":256332992},{"NoteNumber":53,"Velocity":50,"Duration":238094,"SoundDuration":238094,"Delta":256332992},{"NoteNumber":70,"Velocity":54,"Duration":245901,"SoundDuration":245901,"Delta":256571087},{"NoteNumber":72,"Velocity":54,"Duration":245901,"SoundDuration":245901,"Delta":256571087},{"NoteNumber":82,"Velocity":64,"Duration":245901,"SoundDuration":245901,"Delta":256571087},{"NoteNumber":52,"Velocity":53,"Duration":245901,"SoundDuration":245901,"Delta":256571087},{"NoteNumber":48,"Velocity":45,"Duration":245901,"SoundDuration":245901,"Delta":256571087},{"NoteNumber":67,"Velocity":57,"Duration":256410,"SoundDuration":256410,"Delta":256816988},{"NoteNumber":72,"Velocity":57,"Duration":256410,"SoundDuration":256410,"Delta":256816988},{"NoteNumber":76,"Velocity":57,"Duration":256410,"SoundDuration":256410,"Delta":256816988},{"NoteNumber":79,"Velocity":68,"Duration":256410,"SoundDuration":256410,"Delta":256816988},{"NoteNumber":48,"Velocity":47,"Duration":256410,"SoundDuration":256410,"Delta":256816988},{"NoteNumber":55,"Velocity":47,"Duration":256410,"SoundDuration":256410,"Delta":256816988},{"NoteNumber":58,"Velocity":56,"Duration":256410,"SoundDuration":256410,"Delta":256816988},{"NoteNumber":52,"Velocity":47,"Duration":256410,"SoundDuration":256410,"Delta":256816988},{"NoteNumber":77,"Velocity":66,"Duration":241935,"SoundDuration":241935,"Delta":257073399},{"NoteNumber":68,"Velocity":66,"Duration":241935,"SoundDuration":241935,"Delta":257073399},{"NoteNumber":80,"Velocity":78,"Duration":241935,"SoundDuration":241935,"Delta":257073399},{"NoteNumber":72,"Velocity":66,"Duration":241935,"SoundDuration":241935,"Delta":257073399},{"NoteNumber":41,"Velocity":56,"Duration":120967,"SoundDuration":120967,"Delta":257073399},{"NoteNumber":48,"Velocity":40,"Duration":120967,"SoundDuration":120967,"Delta":257194367},{"NoteNumber":56,"Velocity":40,"Duration":119047,"SoundDuration":119047,"Delta":257315334},{"NoteNumber":48,"Velocity":40,"Duration":119047,"SoundDuration":119047,"Delta":257434382},{"NoteNumber":72,"Velocity":75,"Duration":238094,"SoundDuration":238094,"Delta":257553429},{"NoteNumber":84,"Velocity":89,"Duration":238094,"SoundDuration":238094,"Delta":257553429},{"NoteNumber":41,"Velocity":54,"Duration":119047,"SoundDuration":119047,"Delta":257553429},{"NoteNumber":48,"Velocity":44,"Duration":119047,"SoundDuration":119047,"Delta":257672477},{"NoteNumber":56,"Velocity":43,"Duration":125000,"SoundDuration":125000,"Delta":257791524},{"NoteNumber":48,"Velocity":43,"Duration":125000,"SoundDuration":125000,"Delta":257916524},{"NoteNumber":96,"Velocity":102,"Duration":725806,"SoundDuration":725806,"Delta":258041524},{"NoteNumber":84,"Velocity":85,"Duration":725806,"SoundDuration":725806,"Delta":258041524},{"NoteNumber":43,"Velocity":58,"Duration":120967,"SoundDuration":120967,"Delta":258041524},{"NoteNumber":48,"Velocity":49,"Duration":120967,"SoundDuration":120967,"Delta":258162492},{"NoteNumber":58,"Velocity":49,"Duration":120967,"SoundDuration":120967,"Delta":258283460},{"NoteNumber":48,"Velocity":47,"Duration":120967,"SoundDuration":120967,"Delta":258404428},{"NoteNumber":43,"Velocity":53,"Duration":120967,"SoundDuration":120967,"Delta":258525395},{"NoteNumber":48,"Velocity":44,"Duration":120967,"SoundDuration":120967,"Delta":258646363},{"NoteNumber":84,"Velocity":65,"Duration":967741,"SoundDuration":967741,"Delta":258767331},{"NoteNumber":72,"Velocity":55,"Duration":967741,"SoundDuration":967741,"Delta":258767331},{"NoteNumber":58,"Velocity":44,"Duration":120967,"SoundDuration":120967,"Delta":258767331},{"NoteNumber":48,"Velocity":44,"Duration":120967,"SoundDuration":120967,"Delta":258888299},{"NoteNumber":44,"Velocity":53,"Duration":120967,"SoundDuration":120967,"Delta":259009266},{"NoteNumber":48,"Velocity":43,"Duration":120967,"SoundDuration":120967,"Delta":259130234},{"NoteNumber":60,"Velocity":43,"Duration":120967,"SoundDuration":120967,"Delta":259251202},{"NoteNumber":48,"Velocity":43,"Duration":120967,"SoundDuration":120967,"Delta":259372170},{"NoteNumber":44,"Velocity":53,"Duration":120967,"SoundDuration":120967,"Delta":259493137},{"NoteNumber":48,"Velocity":43,"Duration":120967,"SoundDuration":120967,"Delta":259614105},{"NoteNumber":80,"Velocity":62,"Duration":253164,"SoundDuration":253164,"Delta":259735073},{"NoteNumber":68,"Velocity":62,"Duration":253164,"SoundDuration":253164,"Delta":259735073},{"NoteNumber":60,"Velocity":43,"Duration":126582,"SoundDuration":126582,"Delta":259735073},{"NoteNumber":48,"Velocity":43,"Duration":126582,"SoundDuration":126582,"Delta":259861655},{"NoteNumber":67,"Velocity":55,"Duration":240000,"SoundDuration":240000,"Delta":259988237},{"NoteNumber":79,"Velocity":65,"Duration":240000,"SoundDuration":240000,"Delta":259988237},{"NoteNumber":46,"Velocity":53,"Duration":120000,"SoundDuration":120000,"Delta":259988237},{"NoteNumber":48,"Velocity":44,"Duration":120000,"SoundDuration":120000,"Delta":260108237},{"NoteNumber":76,"Velocity":57,"Duration":237153,"SoundDuration":237153,"Delta":260228237},{"NoteNumber":64,"Velocity":48,"Duration":237153,"SoundDuration":237153,"Delta":260228237},{"NoteNumber":58,"Velocity":44,"Duration":118577,"SoundDuration":118577,"Delta":260228237},{"NoteNumber":48,"Velocity":44,"Duration":118576,"SoundDuration":118576,"Delta":260346814},{"NoteNumber":61,"Velocity":48,"Duration":237154,"SoundDuration":237154,"Delta":260465391},{"NoteNumber":73,"Velocity":57,"Duration":237154,"SoundDuration":237154,"Delta":260465391},{"NoteNumber":36,"Velocity":53,"Duration":118577,"SoundDuration":118577,"Delta":260465391},{"NoteNumber":48,"Velocity":46,"Duration":118577,"SoundDuration":118577,"Delta":260583968},{"NoteNumber":72,"Velocity":56,"Duration":248953,"SoundDuration":248953,"Delta":260702545},{"NoteNumber":60,"Velocity":47,"Duration":248953,"SoundDuration":248953,"Delta":260702545},{"NoteNumber":55,"Velocity":46,"Duration":125522,"SoundDuration":125522,"Delta":260702545},{"NoteNumber":48,"Velocity":46,"Duration":125522,"SoundDuration":125522,"Delta":260828068},{"NoteNumber":60,"Velocity":66,"Duration":241935,"SoundDuration":241935,"Delta":260953591},{"NoteNumber":72,"Velocity":78,"Duration":241935,"SoundDuration":241935,"Delta":260953591},{"NoteNumber":41,"Velocity":56,"Duration":120967,"SoundDuration":120967,"Delta":260953591},{"NoteNumber":48,"Velocity":40,"Duration":120967,"SoundDuration":120967,"Delta":261074559},{"NoteNumber":56,"Velocity":40,"Duration":120967,"SoundDuration":120967,"Delta":261195527},{"NoteNumber":48,"Velocity":40,"Duration":120967,"SoundDuration":120967,"Delta":261316495},{"NoteNumber":72,"Velocity":75,"Duration":241935,"SoundDuration":241935,"Delta":261437462},{"NoteNumber":84,"Velocity":89,"Duration":241935,"SoundDuration":241935,"Delta":261437462},{"NoteNumber":41,"Velocity":54,"Duration":120967,"SoundDuration":120967,"Delta":261437462},{"NoteNumber":48,"Velocity":44,"Duration":120967,"SoundDuration":120967,"Delta":261558430},{"NoteNumber":56,"Velocity":43,"Duration":125000,"SoundDuration":125000,"Delta":261679398},{"NoteNumber":48,"Velocity":43,"Duration":125000,"SoundDuration":125000,"Delta":261804398},{"NoteNumber":84,"Velocity":85,"Duration":725806,"SoundDuration":725806,"Delta":261929398},{"NoteNumber":96,"Velocity":102,"Duration":725806,"SoundDuration":725806,"Delta":261929398},{"NoteNumber":43,"Velocity":58,"Duration":120967,"SoundDuration":120967,"Delta":261929398},{"NoteNumber":48,"Velocity":49,"Duration":120967,"SoundDuration":120967,"Delta":262050366},{"NoteNumber":58,"Velocity":49,"Duration":120967,"SoundDuration":120967,"Delta":262171333},{"NoteNumber":48,"Velocity":47,"Duration":120967,"SoundDuration":120967,"Delta":262292301},{"NoteNumber":43,"Velocity":53,"Duration":120967,"SoundDuration":120967,"Delta":262413269},{"NoteNumber":48,"Velocity":44,"Duration":120967,"SoundDuration":120967,"Delta":262534237},{"NoteNumber":84,"Velocity":65,"Duration":967741,"SoundDuration":967741,"Delta":262655204},{"NoteNumber":72,"Velocity":55,"Duration":967741,"SoundDuration":967741,"Delta":262655204},{"NoteNumber":58,"Velocity":44,"Duration":120967,"SoundDuration":120967,"Delta":262655204},{"NoteNumber":48,"Velocity":44,"Duration":120967,"SoundDuration":120967,"Delta":262776172},{"NoteNumber":44,"Velocity":53,"Duration":120967,"SoundDuration":120967,"Delta":262897140},{"NoteNumber":48,"Velocity":43,"Duration":120967,"SoundDuration":120967,"Delta":263018108},{"NoteNumber":60,"Velocity":43,"Duration":120967,"SoundDuration":120967,"Delta":263139075},{"NoteNumber":48,"Velocity":43,"Duration":120967,"SoundDuration":120967,"Delta":263260043},{"NoteNumber":41,"Velocity":53,"Duration":120967,"SoundDuration":120967,"Delta":263381011},{"NoteNumber":48,"Velocity":43,"Duration":120967,"SoundDuration":120967,"Delta":263501979},{"NoteNumber":68,"Velocity":62,"Duration":253164,"SoundDuration":253164,"Delta":263622946},{"NoteNumber":80,"Velocity":62,"Duration":253164,"SoundDuration":253164,"Delta":263622946},{"NoteNumber":56,"Velocity":43,"Duration":126582,"SoundDuration":126582,"Delta":263622946},{"NoteNumber":48,"Velocity":43,"Duration":126582,"SoundDuration":126582,"Delta":263749529},{"NoteNumber":77,"Velocity":65,"Duration":240000,"SoundDuration":240000,"Delta":263876111},{"NoteNumber":65,"Velocity":55,"Duration":240000,"SoundDuration":240000,"Delta":263876111},{"NoteNumber":38,"Velocity":53,"Duration":120000,"SoundDuration":120000,"Delta":263876111},{"NoteNumber":46,"Velocity":44,"Duration":120000,"SoundDuration":120000,"Delta":263996111},{"NoteNumber":74,"Velocity":57,"Duration":240000,"SoundDuration":240000,"Delta":264116111},{"NoteNumber":62,"Velocity":48,"Duration":240000,"SoundDuration":240000,"Delta":264116111},{"NoteNumber":53,"Velocity":44,"Duration":120000,"SoundDuration":120000,"Delta":264116111},{"NoteNumber":46,"Velocity":44,"Duration":120000,"SoundDuration":120000,"Delta":264236111},{"NoteNumber":71,"Velocity":57,"Duration":240000,"SoundDuration":240000,"Delta":264356111},{"NoteNumber":59,"Velocity":48,"Duration":240000,"SoundDuration":240000,"Delta":264356111},{"NoteNumber":38,"Velocity":53,"Duration":120000,"SoundDuration":120000,"Delta":264356111},{"NoteNumber":46,"Velocity":46,"Duration":120000,"SoundDuration":120000,"Delta":264476111},{"NoteNumber":70,"Velocity":56,"Duration":251045,"SoundDuration":251045,"Delta":264596111},{"NoteNumber":58,"Velocity":47,"Duration":251045,"SoundDuration":251045,"Delta":264596111},{"NoteNumber":53,"Velocity":46,"Duration":125522,"SoundDuration":125522,"Delta":264596111},{"NoteNumber":46,"Velocity":46,"Duration":125522,"SoundDuration":125522,"Delta":264721634},{"NoteNumber":70,"Velocity":78,"Duration":241935,"SoundDuration":241935,"Delta":264847157},{"NoteNumber":58,"Velocity":66,"Duration":241935,"SoundDuration":241935,"Delta":264847157},{"NoteNumber":39,"Velocity":56,"Duration":120967,"SoundDuration":120967,"Delta":264847157},{"NoteNumber":46,"Velocity":40,"Duration":120967,"SoundDuration":120967,"Delta":264968125},{"NoteNumber":54,"Velocity":40,"Duration":120481,"SoundDuration":120481,"Delta":265089092},{"NoteNumber":46,"Velocity":40,"Duration":120482,"SoundDuration":120482,"Delta":265209574},{"NoteNumber":70,"Velocity":75,"Duration":240963,"SoundDuration":240963,"Delta":265330056},{"NoteNumber":82,"Velocity":89,"Duration":240963,"SoundDuration":240963,"Delta":265330056},{"NoteNumber":39,"Velocity":54,"Duration":120481,"SoundDuration":120481,"Delta":265330056},{"NoteNumber":46,"Velocity":44,"Duration":120481,"SoundDuration":120481,"Delta":265450538},{"NoteNumber":54,"Velocity":43,"Duration":125000,"SoundDuration":125000,"Delta":265571020},{"NoteNumber":46,"Velocity":43,"Duration":125000,"SoundDuration":125000,"Delta":265696020},{"NoteNumber":94,"Velocity":102,"Duration":725806,"SoundDuration":725806,"Delta":265821020},{"NoteNumber":82,"Velocity":85,"Duration":725806,"SoundDuration":725806,"Delta":265821020},{"NoteNumber":41,"Velocity":58,"Duration":120967,"SoundDuration":120967,"Delta":265821020},{"NoteNumber":46,"Velocity":49,"Duration":120967,"SoundDuration":120967,"Delta":265941988},{"NoteNumber":56,"Velocity":49,"Duration":120967,"SoundDuration":120967,"Delta":266062956},{"NoteNumber":46,"Velocity":47,"Duration":120967,"SoundDuration":120967,"Delta":266183924},{"NoteNumber":41,"Velocity":53,"Duration":120967,"SoundDuration":120967,"Delta":266304891},{"NoteNumber":46,"Velocity":44,"Duration":120967,"SoundDuration":120967,"Delta":266425859},{"NoteNumber":82,"Velocity":65,"Duration":967741,"SoundDuration":967741,"Delta":266546827},{"NoteNumber":70,"Velocity":55,"Duration":967741,"SoundDuration":967741,"Delta":266546827},{"NoteNumber":56,"Velocity":44,"Duration":120967,"SoundDuration":120967,"Delta":266546827},{"NoteNumber":46,"Velocity":44,"Duration":120967,"SoundDuration":120967,"Delta":266667795},{"NoteNumber":42,"Velocity":53,"Duration":120967,"SoundDuration":120967,"Delta":266788762},{"NoteNumber":46,"Velocity":43,"Duration":120967,"SoundDuration":120967,"Delta":266909730},{"NoteNumber":58,"Velocity":43,"Duration":120967,"SoundDuration":120967,"Delta":267030698},{"NoteNumber":46,"Velocity":43,"Duration":120967,"SoundDuration":120967,"Delta":267151666},{"NoteNumber":42,"Velocity":53,"Duration":120967,"SoundDuration":120967,"Delta":267272633},{"NoteNumber":46,"Velocity":43,"Duration":120967,"SoundDuration":120967,"Delta":267393601},{"NoteNumber":66,"Velocity":62,"Duration":253164,"SoundDuration":253164,"Delta":267514569},{"NoteNumber":78,"Velocity":62,"Duration":253164,"SoundDuration":253164,"Delta":267514569},{"NoteNumber":58,"Velocity":43,"Duration":126582,"SoundDuration":126582,"Delta":267514569},{"NoteNumber":46,"Velocity":43,"Duration":126582,"SoundDuration":126582,"Delta":267641151},{"NoteNumber":65,"Velocity":55,"Duration":240000,"SoundDuration":240000,"Delta":267767733},{"NoteNumber":77,"Velocity":65,"Duration":240000,"SoundDuration":240000,"Delta":267767733},{"NoteNumber":44,"Velocity":53,"Duration":120000,"SoundDuration":120000,"Delta":267767733},{"NoteNumber":46,"Velocity":44,"Duration":120000,"SoundDuration":120000,"Delta":267887733},{"NoteNumber":74,"Velocity":57,"Duration":238094,"SoundDuration":238094,"Delta":268007733},{"NoteNumber":62,"Velocity":48,"Duration":238094,"SoundDuration":238094,"Delta":268007733},{"NoteNumber":56,"Velocity":44,"Duration":119047,"SoundDuration":119047,"Delta":268007733},{"NoteNumber":46,"Velocity":44,"Duration":119047,"SoundDuration":119047,"Delta":268126781},{"NoteNumber":59,"Velocity":48,"Duration":238094,"SoundDuration":238094,"Delta":268245828},{"NoteNumber":71,"Velocity":57,"Duration":238094,"SoundDuration":238094,"Delta":268245828},{"NoteNumber":34,"Velocity":53,"Duration":119047,"SoundDuration":119047,"Delta":268245828},{"NoteNumber":46,"Velocity":46,"Duration":119047,"SoundDuration":119047,"Delta":268364876},{"NoteNumber":70,"Velocity":56,"Duration":248953,"SoundDuration":248953,"Delta":268483923},{"NoteNumber":58,"Velocity":47,"Duration":248953,"SoundDuration":248953,"Delta":268483923},{"NoteNumber":53,"Velocity":46,"Duration":125522,"SoundDuration":125522,"Delta":268483923},{"NoteNumber":46,"Velocity":46,"Duration":125522,"SoundDuration":125522,"Delta":268609446},{"NoteNumber":70,"Velocity":78,"Duration":241935,"SoundDuration":241935,"Delta":268734969},{"NoteNumber":58,"Velocity":66,"Duration":241935,"SoundDuration":241935,"Delta":268734969},{"NoteNumber":39,"Velocity":56,"Duration":120967,"SoundDuration":120967,"Delta":268734969},{"NoteNumber":46,"Velocity":40,"Duration":120967,"SoundDuration":120967,"Delta":268855937},{"NoteNumber":54,"Velocity":40,"Duration":120967,"SoundDuration":120967,"Delta":268976905},{"NoteNumber":46,"Velocity":40,"Duration":120967,"SoundDuration":120967,"Delta":269097873},{"NoteNumber":82,"Velocity":89,"Duration":245901,"SoundDuration":245901,"Delta":269218840},{"NoteNumber":70,"Velocity":75,"Duration":245901,"SoundDuration":245901,"Delta":269218840},{"NoteNumber":41,"Velocity":54,"Duration":122950,"SoundDuration":122950,"Delta":269218840},{"NoteNumber":46,"Velocity":44,"Duration":122950,"SoundDuration":122950,"Delta":269341791},{"NoteNumber":56,"Velocity":43,"Duration":129870,"SoundDuration":129870,"Delta":269464742},{"NoteNumber":46,"Velocity":43,"Duration":129870,"SoundDuration":129870,"Delta":269594612},{"NoteNumber":82,"Velocity":78,"Duration":273972,"SoundDuration":273972,"Delta":269724482},{"NoteNumber":94,"Velocity":90,"Duration":273972,"SoundDuration":273972,"Delta":269724482},{"NoteNumber":43,"Velocity":56,"Duration":136986,"SoundDuration":136986,"Delta":269724482},{"NoteNumber":51,"Velocity":40,"Duration":136986,"SoundDuration":136986,"Delta":269861469},{"NoteNumber":58,"Velocity":40,"Duration":136986,"SoundDuration":136986,"Delta":269998455},{"NoteNumber":51,"Velocity":40,"Duration":136986,"SoundDuration":136986,"Delta":270135441},{"NoteNumber":83,"Velocity":86,"Duration":287081,"SoundDuration":287081,"Delta":270272427},{"NoteNumber":95,"Velocity":103,"Duration":287081,"SoundDuration":287081,"Delta":270272427},{"NoteNumber":44,"Velocity":54,"Duration":143540,"SoundDuration":143540,"Delta":270272427},{"NoteNumber":51,"Velocity":44,"Duration":143540,"SoundDuration":143540,"Delta":270415968},{"NoteNumber":59,"Velocity":43,"Duration":143540,"SoundDuration":143540,"Delta":270559509},{"NoteNumber":51,"Velocity":43,"Duration":143540,"SoundDuration":143540,"Delta":270703050},{"NoteNumber":71,"Velocity":55,"Duration":959999,"SoundDuration":959999,"Delta":270846590},{"NoteNumber":70,"Velocity":50,"Duration":963856,"SoundDuration":963856,"Delta":271806590},{"NoteNumber":68,"Velocity":48,"Duration":238094,"SoundDuration":238094,"Delta":272770446},{"NoteNumber":59,"Velocity":43,"Duration":952380,"SoundDuration":952380,"Delta":272770446},{"NoteNumber":58,"Velocity":44,"Duration":971659,"SoundDuration":971659,"Delta":273722826},{"NoteNumber":72,"Velocity":55,"Duration":948616,"SoundDuration":948616,"Delta":274694486},{"NoteNumber":57,"Velocity":46,"Duration":237153,"SoundDuration":237153,"Delta":274694486},{"NoteNumber":70,"Velocity":50,"Duration":967741,"SoundDuration":967741,"Delta":275643102},{"NoteNumber":69,"Velocity":48,"Duration":238094,"SoundDuration":238094,"Delta":276610844},{"NoteNumber":60,"Velocity":43,"Duration":952380,"SoundDuration":952380,"Delta":276610844},{"NoteNumber":58,"Velocity":44,"Duration":963856,"SoundDuration":963856,"Delta":277563224},{"NoteNumber":77,"Velocity":55,"Duration":948616,"SoundDuration":948616,"Delta":278527080},{"NoteNumber":56,"Velocity":46,"Duration":237153,"SoundDuration":237153,"Delta":278527080},{"NoteNumber":75,"Velocity":50,"Duration":967741,"SoundDuration":967741,"Delta":279475696},{"NoteNumber":74,"Velocity":48,"Duration":240000,"SoundDuration":240000,"Delta":280443438},{"NoteNumber":65,"Velocity":36,"Duration":959999,"SoundDuration":959999,"Delta":280443438},{"NoteNumber":68,"Velocity":43,"Duration":959999,"SoundDuration":959999,"Delta":280443438},{"NoteNumber":63,"Velocity":39,"Duration":960000,"SoundDuration":960000,"Delta":281403438},{"NoteNumber":67,"Velocity":47,"Duration":960000,"SoundDuration":960000,"Delta":281403438},{"NoteNumber":70,"Velocity":51,"Duration":952380,"SoundDuration":952380,"Delta":282363438},{"NoteNumber":82,"Velocity":60,"Duration":952380,"SoundDuration":952380,"Delta":282363438},{"NoteNumber":62,"Velocity":40,"Duration":952380,"SoundDuration":952380,"Delta":282363438},{"NoteNumber":65,"Velocity":48,"Duration":952380,"SoundDuration":952380,"Delta":282363438},{"NoteNumber":68,"Velocity":52,"Duration":967741,"SoundDuration":967741,"Delta":283315818},{"NoteNumber":80,"Velocity":61,"Duration":967741,"SoundDuration":967741,"Delta":283315818},{"NoteNumber":60,"Velocity":43,"Duration":967741,"SoundDuration":967741,"Delta":283315818},{"NoteNumber":63,"Velocity":51,"Duration":967741,"SoundDuration":967741,"Delta":283315818},{"NoteNumber":67,"Velocity":59,"Duration":1436987,"SoundDuration":1436987,"Delta":284283560},{"NoteNumber":79,"Velocity":70,"Duration":1436987,"SoundDuration":1436987,"Delta":284283560},{"NoteNumber":59,"Velocity":55,"Duration":947191,"SoundDuration":947191,"Delta":284283560},{"NoteNumber":62,"Velocity":64,"Duration":947191,"SoundDuration":947191,"Delta":284283560},{"NoteNumber":63,"Velocity":41,"Duration":489796,"SoundDuration":489796,"Delta":285230751},{"NoteNumber":58,"Velocity":34,"Duration":976553,"SoundDuration":976553,"Delta":285230751},{"NoteNumber":68,"Velocity":38,"Duration":228137,"SoundDuration":228137,"Delta":285720547},{"NoteNumber":80,"Velocity":45,"Duration":228137,"SoundDuration":228137,"Delta":285720547},{"NoteNumber":65,"Velocity":36,"Duration":228137,"SoundDuration":228137,"Delta":285720547},{"NoteNumber":65,"Velocity":34,"Duration":258620,"SoundDuration":258620,"Delta":285948684},{"NoteNumber":77,"Velocity":40,"Duration":258620,"SoundDuration":258620,"Delta":285948684},{"NoteNumber":62,"Velocity":36,"Duration":258620,"SoundDuration":258620,"Delta":285948684},{"NoteNumber":75,"Velocity":39,"Duration":953762,"SoundDuration":953762,"Delta":286207305},{"NoteNumber":79,"Velocity":47,"Duration":953762,"SoundDuration":953762,"Delta":286207305},{"NoteNumber":58,"Velocity":36,"Duration":118110,"SoundDuration":118110,"Delta":286327787},{"NoteNumber":60,"Velocity":36,"Duration":118110,"SoundDuration":118110,"Delta":286445897},{"NoteNumber":58,"Velocity":36,"Duration":118110,"SoundDuration":118110,"Delta":286564007},{"NoteNumber":57,"Velocity":42,"Duration":116731,"SoundDuration":116731,"Delta":286682118},{"NoteNumber":58,"Velocity":36,"Duration":116731,"SoundDuration":116731,"Delta":286798849},{"NoteNumber":55,"Velocity":36,"Duration":116731,"SoundDuration":116731,"Delta":286915581},{"NoteNumber":51,"Velocity":36,"Duration":128755,"SoundDuration":128755,"Delta":287032312},{"NoteNumber":70,"Velocity":40,"Duration":958457,"SoundDuration":958457,"Delta":287161067},{"NoteNumber":77,"Velocity":48,"Duration":958457,"SoundDuration":958457,"Delta":287161067},{"NoteNumber":56,"Velocity":42,"Duration":119522,"SoundDuration":119522,"Delta":287161067},{"NoteNumber":53,"Velocity":36,"Duration":119521,"SoundDuration":119521,"Delta":287280589},{"NoteNumber":50,"Velocity":36,"Duration":118110,"SoundDuration":118110,"Delta":287400111},{"NoteNumber":46,"Velocity":36,"Duration":118110,"SoundDuration":118110,"Delta":287518222},{"NoteNumber":44,"Velocity":43,"Duration":119047,"SoundDuration":119047,"Delta":287636332},{"NoteNumber":41,"Velocity":36,"Duration":119047,"SoundDuration":119047,"Delta":287755379},{"NoteNumber":38,"Velocity":36,"Duration":119047,"SoundDuration":119047,"Delta":287874427},{"NoteNumber":34,"Velocity":36,"Duration":126050,"SoundDuration":126050,"Delta":287993474},{"NoteNumber":67,"Velocity":40,"Duration":478088,"SoundDuration":478088,"Delta":288119525},{"NoteNumber":75,"Velocity":48,"Duration":478088,"SoundDuration":478088,"Delta":288119525},{"NoteNumber":39,"Velocity":45,"Duration":119522,"SoundDuration":119522,"Delta":288119525},{"NoteNumber":41,"Velocity":36,"Duration":119521,"SoundDuration":119521,"Delta":288239047},{"NoteNumber":43,"Velocity":36,"Duration":119522,"SoundDuration":119522,"Delta":288358569},{"NoteNumber":44,"Velocity":36,"Duration":119522,"SoundDuration":119522,"Delta":288478091},{"NoteNumber":68,"Velocity":35,"Duration":239043,"SoundDuration":239043,"Delta":288597613},{"NoteNumber":72,"Velocity":42,"Duration":239043,"SoundDuration":239043,"Delta":288597613},{"NoteNumber":46,"Velocity":43,"Duration":119521,"SoundDuration":119521,"Delta":288597613},{"NoteNumber":48,"Velocity":36,"Duration":119522,"SoundDuration":119522,"Delta":288717135},{"NoteNumber":70,"Velocity":41,"Duration":237051,"SoundDuration":237051,"Delta":288836657},{"NoteNumber":67,"Velocity":34,"Duration":237051,"SoundDuration":237051,"Delta":288836657},{"NoteNumber":50,"Velocity":36,"Duration":119522,"SoundDuration":119522,"Delta":288836657},{"NoteNumber":51,"Velocity":36,"Duration":119525,"SoundDuration":119525,"Delta":288956179},{"NoteNumber":67,"Velocity":39,"Duration":240732,"SoundDuration":240732,"Delta":289075705},{"NoteNumber":70,"Velocity":46,"Duration":240732,"SoundDuration":240732,"Delta":289075705},{"NoteNumber":46,"Velocity":33,"Duration":977523,"SoundDuration":977523,"Delta":289075705},{"NoteNumber":53,"Velocity":42,"Duration":120064,"SoundDuration":120064,"Delta":289075705},{"NoteNumber":55,"Velocity":30,"Duration":120668,"SoundDuration":120668,"Delta":289195769},{"NoteNumber":65,"Velocity":34,"Duration":243052,"SoundDuration":243052,"Delta":289316437},{"NoteNumber":68,"Velocity":40,"Duration":243052,"SoundDuration":243052,"Delta":289316437},{"NoteNumber":56,"Velocity":30,"Duration":121216,"SoundDuration":121216,"Delta":289316437},{"NoteNumber":57,"Velocity":30,"Duration":121836,"SoundDuration":121836,"Delta":289437654},{"NoteNumber":63,"Velocity":34,"Duration":245660,"SoundDuration":245660,"Delta":289559490},{"NoteNumber":67,"Velocity":40,"Duration":245660,"SoundDuration":245660,"Delta":289559490},{"NoteNumber":58,"Velocity":39,"Duration":245660,"SoundDuration":245660,"Delta":289559490},{"NoteNumber":58,"Velocity":34,"Duration":248077,"SoundDuration":248077,"Delta":289805151},{"NoteNumber":65,"Velocity":40,"Duration":248077,"SoundDuration":248077,"Delta":289805151},{"NoteNumber":56,"Velocity":33,"Duration":248077,"SoundDuration":248077,"Delta":289805151},{"NoteNumber":63,"Velocity":42,"Duration":118110,"SoundDuration":118110,"Delta":290053228},{"NoteNumber":55,"Velocity":39,"Duration":944574,"SoundDuration":944574,"Delta":290053228},{"NoteNumber":51,"Velocity":33,"Duration":944574,"SoundDuration":944574,"Delta":290053228},{"NoteNumber":58,"Velocity":36,"Duration":118110,"SoundDuration":118110,"Delta":290171338},{"NoteNumber":60,"Velocity":36,"Duration":116279,"SoundDuration":116279,"Delta":290289449},{"NoteNumber":58,"Velocity":36,"Duration":116278,"SoundDuration":116278,"Delta":290405728},{"NoteNumber":57,"Velocity":42,"Duration":116279,"SoundDuration":116279,"Delta":290522007},{"NoteNumber":58,"Velocity":36,"Duration":116279,"SoundDuration":116279,"Delta":290638286},{"NoteNumber":67,"Velocity":36,"Duration":117187,"SoundDuration":117187,"Delta":290754565},{"NoteNumber":63,"Velocity":36,"Duration":126050,"SoundDuration":126050,"Delta":290871752},{"NoteNumber":62,"Velocity":42,"Duration":117646,"SoundDuration":117646,"Delta":290997803},{"NoteNumber":46,"Velocity":33,"Duration":943192,"SoundDuration":943192,"Delta":290997803},{"NoteNumber":53,"Velocity":39,"Duration":943192,"SoundDuration":943192,"Delta":290997803},{"NoteNumber":63,"Velocity":36,"Duration":117647,"SoundDuration":117647,"Delta":291115450},{"NoteNumber":65,"Velocity":36,"Duration":116279,"SoundDuration":116279,"Delta":291233097},{"NoteNumber":67,"Velocity":36,"Duration":116278,"SoundDuration":116278,"Delta":291349376},{"NoteNumber":68,"Velocity":42,"Duration":116279,"SoundDuration":116279,"Delta":291465655},{"NoteNumber":69,"Velocity":37,"Duration":116279,"SoundDuration":116279,"Delta":291581934},{"NoteNumber":72,"Velocity":37,"Duration":116731,"SoundDuration":116731,"Delta":291698213},{"NoteNumber":70,"Velocity":37,"Duration":126050,"SoundDuration":126050,"Delta":291814944},{"NoteNumber":69,"Velocity":42,"Duration":117646,"SoundDuration":117646,"Delta":291940995},{"NoteNumber":63,"Velocity":33,"Duration":942373,"SoundDuration":942373,"Delta":291940995},{"NoteNumber":67,"Velocity":39,"Duration":942373,"SoundDuration":942373,"Delta":291940995},{"NoteNumber":70,"Velocity":35,"Duration":117647,"SoundDuration":117647,"Delta":292058642},{"NoteNumber":72,"Velocity":35,"Duration":115830,"SoundDuration":115830,"Delta":292176289},{"NoteNumber":70,"Velocity":35,"Duration":115829,"SoundDuration":115829,"Delta":292292119},{"NoteNumber":69,"Velocity":42,"Duration":116279,"SoundDuration":116279,"Delta":292407949},{"NoteNumber":70,"Velocity":35,"Duration":116278,"SoundDuration":116278,"Delta":292524228},{"NoteNumber":79,"Velocity":35,"Duration":116279,"SoundDuration":116279,"Delta":292640507},{"NoteNumber":75,"Velocity":35,"Duration":126582,"SoundDuration":126582,"Delta":292756786},{"NoteNumber":74,"Velocity":47,"Duration":118110,"SoundDuration":118110,"Delta":292883368},{"NoteNumber":58,"Velocity":33,"Duration":948740,"SoundDuration":948740,"Delta":292883368},{"NoteNumber":65,"Velocity":39,"Duration":948740,"SoundDuration":948740,"Delta":292883368},{"NoteNumber":75,"Velocity":40,"Duration":118110,"SoundDuration":118110,"Delta":293001478},{"NoteNumber":77,"Velocity":40,"Duration":117187,"SoundDuration":117187,"Delta":293119588},{"NoteNumber":79,"Velocity":40,"Duration":117187,"SoundDuration":117187,"Delta":293236776},{"NoteNumber":80,"Velocity":48,"Duration":117187,"SoundDuration":117187,"Delta":293353963},{"NoteNumber":81,"Velocity":39,"Duration":117187,"SoundDuration":117187,"Delta":293471151},{"NoteNumber":84,"Velocity":39,"Duration":117187,"SoundDuration":117187,"Delta":293588338},{"NoteNumber":82,"Velocity":39,"Duration":126582,"SoundDuration":126582,"Delta":293705526},{"NoteNumber":81,"Velocity":46,"Duration":118110,"SoundDuration":118110,"Delta":293832108},{"NoteNumber":75,"Velocity":33,"Duration":951037,"SoundDuration":951037,"Delta":293832108},{"NoteNumber":79,"Velocity":39,"Duration":951037,"SoundDuration":951037,"Delta":293832108},{"NoteNumber":82,"Velocity":38,"Duration":118110,"SoundDuration":118110,"Delta":293950218},{"NoteNumber":84,"Velocity":39,"Duration":117646,"SoundDuration":117646,"Delta":294068329},{"NoteNumber":82,"Velocity":39,"Duration":117647,"SoundDuration":117647,"Delta":294185976},{"NoteNumber":81,"Velocity":48,"Duration":117646,"SoundDuration":117646,"Delta":294303623},{"NoteNumber":82,"Velocity":40,"Duration":117647,"SoundDuration":117647,"Delta":294421270},{"NoteNumber":91,"Velocity":41,"Duration":117646,"SoundDuration":117646,"Delta":294538917},{"NoteNumber":87,"Velocity":41,"Duration":126582,"SoundDuration":126582,"Delta":294656564},{"NoteNumber":86,"Velocity":57,"Duration":118110,"SoundDuration":118110,"Delta":294783146},{"NoteNumber":70,"Velocity":36,"Duration":472441,"SoundDuration":472441,"Delta":294783146},{"NoteNumber":74,"Velocity":36,"Duration":472441,"SoundDuration":472441,"Delta":294783146},{"NoteNumber":77,"Velocity":43,"Duration":472441,"SoundDuration":472441,"Delta":294783146},{"NoteNumber":87,"Velocity":50,"Duration":118110,"SoundDuration":118110,"Delta":294901256},{"NoteNumber":89,"Velocity":50,"Duration":118110,"SoundDuration":118110,"Delta":295019366},{"NoteNumber":91,"Velocity":51,"Duration":118110,"SoundDuration":118110,"Delta":295137477},{"NoteNumber":92,"Velocity":61,"Duration":119522,"SoundDuration":119522,"Delta":295255587},{"NoteNumber":68,"Velocity":39,"Duration":496130,"SoundDuration":496130,"Delta":295255587},{"NoteNumber":70,"Velocity":39,"Duration":496130,"SoundDuration":496130,"Delta":295255587},{"NoteNumber":74,"Velocity":39,"Duration":496130,"SoundDuration":496130,"Delta":295255587},{"NoteNumber":77,"Velocity":46,"Duration":496130,"SoundDuration":496130,"Delta":295255587},{"NoteNumber":93,"Velocity":50,"Duration":119521,"SoundDuration":119521,"Delta":295375109},{"NoteNumber":96,"Velocity":50,"Duration":121951,"SoundDuration":121951,"Delta":295494631},{"NoteNumber":94,"Velocity":51,"Duration":135135,"SoundDuration":135135,"Delta":295616582},{"NoteNumber":93,"Velocity":63,"Duration":119522,"SoundDuration":119522,"Delta":295751717},{"NoteNumber":67,"Velocity":40,"Duration":482022,"SoundDuration":482022,"Delta":295751717},{"NoteNumber":70,"Velocity":48,"Duration":482022,"SoundDuration":482022,"Delta":295751717},{"NoteNumber":94,"Velocity":54,"Duration":119521,"SoundDuration":119521,"Delta":295871239},{"NoteNumber":92,"Velocity":53,"Duration":119522,"SoundDuration":119522,"Delta":295990761},{"NoteNumber":91,"Velocity":53,"Duration":123456,"SoundDuration":123456,"Delta":296110283},{"NoteNumber":89,"Velocity":60,"Duration":119522,"SoundDuration":119522,"Delta":296233740},{"NoteNumber":63,"Velocity":39,"Duration":487876,"SoundDuration":487876,"Delta":296233740},{"NoteNumber":67,"Velocity":46,"Duration":487876,"SoundDuration":487876,"Delta":296233740},{"NoteNumber":87,"Velocity":51,"Duration":119521,"SoundDuration":119521,"Delta":296353262},{"NoteNumber":86,"Velocity":51,"Duration":119522,"SoundDuration":119522,"Delta":296472784},{"NoteNumber":84,"Velocity":50,"Duration":129310,"SoundDuration":129310,"Delta":296592306},{"NoteNumber":82,"Velocity":59,"Duration":120000,"SoundDuration":120000,"Delta":296721616},{"NoteNumber":58,"Velocity":37,"Duration":476220,"SoundDuration":476220,"Delta":296721616},{"NoteNumber":65,"Velocity":37,"Duration":476220,"SoundDuration":476220,"Delta":296721616},{"NoteNumber":68,"Velocity":44,"Duration":476220,"SoundDuration":476220,"Delta":296721616},{"NoteNumber":80,"Velocity":45,"Duration":120000,"SoundDuration":120000,"Delta":296841616},{"NoteNumber":79,"Velocity":45,"Duration":118110,"SoundDuration":118110,"Delta":296961616},{"NoteNumber":77,"Velocity":45,"Duration":118110,"SoundDuration":118110,"Delta":297079727},{"NoteNumber":75,"Velocity":52,"Duration":118110,"SoundDuration":118110,"Delta":297197837},{"NoteNumber":58,"Velocity":34,"Duration":493865,"SoundDuration":493865,"Delta":297197837},{"NoteNumber":65,"Velocity":34,"Duration":493865,"SoundDuration":493865,"Delta":297197837},{"NoteNumber":68,"Velocity":41,"Duration":493865,"SoundDuration":493865,"Delta":297197837},{"NoteNumber":74,"Velocity":47,"Duration":118110,"SoundDuration":118110,"Delta":297315947},{"NoteNumber":77,"Velocity":43,"Duration":118110,"SoundDuration":118110,"Delta":297434057},{"NoteNumber":80,"Velocity":41,"Duration":139535,"SoundDuration":139535,"Delta":297552168},{"NoteNumber":75,"Velocity":39,"Duration":948742,"SoundDuration":948742,"Delta":297691703},{"NoteNumber":79,"Velocity":47,"Duration":948742,"SoundDuration":948742,"Delta":297691703},{"NoteNumber":58,"Velocity":36,"Duration":118110,"SoundDuration":118110,"Delta":297812185},{"NoteNumber":60,"Velocity":36,"Duration":116279,"SoundDuration":116279,"Delta":297930295},{"NoteNumber":58,"Velocity":36,"Duration":116278,"SoundDuration":116278,"Delta":298046574},{"NoteNumber":57,"Velocity":42,"Duration":116279,"SoundDuration":116279,"Delta":298162853},{"NoteNumber":58,"Velocity":36,"Duration":116279,"SoundDuration":116279,"Delta":298279132},{"NoteNumber":55,"Velocity":36,"Duration":116278,"SoundDuration":116278,"Delta":298395411},{"NoteNumber":51,"Velocity":36,"Duration":128755,"SoundDuration":128755,"Delta":298511690},{"NoteNumber":70,"Velocity":40,"Duration":961281,"SoundDuration":961281,"Delta":298640445},{"NoteNumber":77,"Velocity":48,"Duration":961281,"SoundDuration":961281,"Delta":298640445},{"NoteNumber":56,"Velocity":42,"Duration":119522,"SoundDuration":119522,"Delta":298640445},{"NoteNumber":53,"Velocity":36,"Duration":119521,"SoundDuration":119521,"Delta":298759967},{"NoteNumber":50,"Velocity":36,"Duration":119522,"SoundDuration":119522,"Delta":298879489},{"NoteNumber":46,"Velocity":36,"Duration":119522,"SoundDuration":119522,"Delta":298999011},{"NoteNumber":44,"Velocity":43,"Duration":119047,"SoundDuration":119047,"Delta":299118533},{"NoteNumber":41,"Velocity":36,"Duration":119047,"SoundDuration":119047,"Delta":299237581},{"NoteNumber":38,"Velocity":36,"Duration":119047,"SoundDuration":119047,"Delta":299356628},{"NoteNumber":34,"Velocity":36,"Duration":126050,"SoundDuration":126050,"Delta":299475676},{"NoteNumber":67,"Velocity":40,"Duration":478088,"SoundDuration":478088,"Delta":299601726},{"NoteNumber":75,"Velocity":48,"Duration":478088,"SoundDuration":478088,"Delta":299601726},{"NoteNumber":39,"Velocity":45,"Duration":119522,"SoundDuration":119522,"Delta":299601726},{"NoteNumber":41,"Velocity":36,"Duration":119521,"SoundDuration":119521,"Delta":299721248},{"NoteNumber":43,"Velocity":36,"Duration":119522,"SoundDuration":119522,"Delta":299840770},{"NoteNumber":44,"Velocity":36,"Duration":119522,"SoundDuration":119522,"Delta":299960292},{"NoteNumber":68,"Velocity":35,"Duration":239043,"SoundDuration":239043,"Delta":300079814},{"NoteNumber":72,"Velocity":42,"Duration":239043,"SoundDuration":239043,"Delta":300079814},{"NoteNumber":46,"Velocity":43,"Duration":119521,"SoundDuration":119521,"Delta":300079814},{"NoteNumber":48,"Velocity":36,"Duration":119522,"SoundDuration":119522,"Delta":300199336},{"NoteNumber":70,"Velocity":41,"Duration":237051,"SoundDuration":237051,"Delta":300318858},{"NoteNumber":67,"Velocity":34,"Duration":237051,"SoundDuration":237051,"Delta":300318858},{"NoteNumber":50,"Velocity":36,"Duration":119522,"SoundDuration":119522,"Delta":300318858},{"NoteNumber":51,"Velocity":36,"Duration":119525,"SoundDuration":119525,"Delta":300438380},{"NoteNumber":67,"Velocity":39,"Duration":240732,"SoundDuration":240732,"Delta":300557906},{"NoteNumber":70,"Velocity":46,"Duration":240732,"SoundDuration":240732,"Delta":300557906},{"NoteNumber":46,"Velocity":33,"Duration":977523,"SoundDuration":977523,"Delta":300557906},{"NoteNumber":53,"Velocity":42,"Duration":120064,"SoundDuration":120064,"Delta":300557906},{"NoteNumber":55,"Velocity":30,"Duration":120668,"SoundDuration":120668,"Delta":300677970},{"NoteNumber":65,"Velocity":34,"Duration":243052,"SoundDuration":243052,"Delta":300798639},{"NoteNumber":68,"Velocity":40,"Duration":243052,"SoundDuration":243052,"Delta":300798639},{"NoteNumber":56,"Velocity":30,"Duration":121216,"SoundDuration":121216,"Delta":300798639},{"NoteNumber":57,"Velocity":30,"Duration":121836,"SoundDuration":121836,"Delta":300919855},{"NoteNumber":63,"Velocity":34,"Duration":245660,"SoundDuration":245660,"Delta":301041691},{"NoteNumber":67,"Velocity":40,"Duration":245660,"SoundDuration":245660,"Delta":301041691},{"NoteNumber":58,"Velocity":39,"Duration":245660,"SoundDuration":245660,"Delta":301041691},{"NoteNumber":58,"Velocity":34,"Duration":248077,"SoundDuration":248077,"Delta":301287352},{"NoteNumber":65,"Velocity":40,"Duration":248077,"SoundDuration":248077,"Delta":301287352},{"NoteNumber":56,"Velocity":33,"Duration":248077,"SoundDuration":248077,"Delta":301287352},{"NoteNumber":63,"Velocity":42,"Duration":118110,"SoundDuration":118110,"Delta":301535429},{"NoteNumber":55,"Velocity":39,"Duration":945928,"SoundDuration":945928,"Delta":301535429},{"NoteNumber":51,"Velocity":33,"Duration":945928,"SoundDuration":945928,"Delta":301535429},{"NoteNumber":58,"Velocity":36,"Duration":118110,"SoundDuration":118110,"Delta":301653540},{"NoteNumber":60,"Velocity":36,"Duration":116731,"SoundDuration":116731,"Delta":301771650},{"NoteNumber":58,"Velocity":36,"Duration":116731,"SoundDuration":116731,"Delta":301888381},{"NoteNumber":57,"Velocity":42,"Duration":116731,"SoundDuration":116731,"Delta":302005113},{"NoteNumber":58,"Velocity":36,"Duration":116731,"SoundDuration":116731,"Delta":302121844},{"NoteNumber":67,"Velocity":36,"Duration":116731,"SoundDuration":116731,"Delta":302238576},{"NoteNumber":63,"Velocity":36,"Duration":126050,"SoundDuration":126050,"Delta":302355307},{"NoteNumber":62,"Velocity":42,"Duration":117646,"SoundDuration":117646,"Delta":302481358},{"NoteNumber":46,"Velocity":33,"Duration":947282,"SoundDuration":947282,"Delta":302481358},{"NoteNumber":53,"Velocity":39,"Duration":947282,"SoundDuration":947282,"Delta":302481358},{"NoteNumber":63,"Velocity":36,"Duration":117647,"SoundDuration":117647,"Delta":302599005},{"NoteNumber":65,"Velocity":36,"Duration":117187,"SoundDuration":117187,"Delta":302716652},{"NoteNumber":67,"Velocity":36,"Duration":117187,"SoundDuration":117187,"Delta":302833839},{"NoteNumber":68,"Velocity":42,"Duration":117187,"SoundDuration":117187,"Delta":302951027},{"NoteNumber":69,"Velocity":37,"Duration":117187,"SoundDuration":117187,"Delta":303068214},{"NoteNumber":72,"Velocity":37,"Duration":117187,"SoundDuration":117187,"Delta":303185402},{"NoteNumber":70,"Velocity":37,"Duration":126050,"SoundDuration":126050,"Delta":303302589},{"NoteNumber":69,"Velocity":42,"Duration":117646,"SoundDuration":117646,"Delta":303428640},{"NoteNumber":63,"Velocity":33,"Duration":945989,"SoundDuration":945989,"Delta":303428640},{"NoteNumber":67,"Velocity":39,"Duration":945989,"SoundDuration":945989,"Delta":303428640},{"NoteNumber":70,"Velocity":35,"Duration":117647,"SoundDuration":117647,"Delta":303546287},{"NoteNumber":72,"Velocity":35,"Duration":116731,"SoundDuration":116731,"Delta":303663934},{"NoteNumber":70,"Velocity":35,"Duration":116731,"SoundDuration":116731,"Delta":303780665},{"NoteNumber":69,"Velocity":42,"Duration":116731,"SoundDuration":116731,"Delta":303897397},{"NoteNumber":70,"Velocity":37,"Duration":116731,"SoundDuration":116731,"Delta":304014128},{"NoteNumber":79,"Velocity":37,"Duration":117187,"SoundDuration":117187,"Delta":304130860},{"NoteNumber":75,"Velocity":37,"Duration":126582,"SoundDuration":126582,"Delta":304248047},{"NoteNumber":74,"Velocity":51,"Duration":118110,"SoundDuration":118110,"Delta":304374630},{"NoteNumber":58,"Velocity":33,"Duration":946460,"SoundDuration":946460,"Delta":304374630},{"NoteNumber":65,"Velocity":39,"Duration":946460,"SoundDuration":946460,"Delta":304374630},{"NoteNumber":75,"Velocity":42,"Duration":118110,"SoundDuration":118110,"Delta":304492740},{"NoteNumber":77,"Velocity":42,"Duration":116731,"SoundDuration":116731,"Delta":304610850},{"NoteNumber":79,"Velocity":42,"Duration":116731,"SoundDuration":116731,"Delta":304727582},{"NoteNumber":80,"Velocity":51,"Duration":116731,"SoundDuration":116731,"Delta":304844313},{"NoteNumber":81,"Velocity":43,"Duration":116731,"SoundDuration":116731,"Delta":304961045},{"NoteNumber":84,"Velocity":42,"Duration":116731,"SoundDuration":116731,"Delta":305077776},{"NoteNumber":82,"Velocity":42,"Duration":126582,"SoundDuration":126582,"Delta":305194508},{"NoteNumber":81,"Velocity":53,"Duration":118110,"SoundDuration":118110,"Delta":305321090},{"NoteNumber":75,"Velocity":33,"Duration":946460,"SoundDuration":946460,"Delta":305321090},{"NoteNumber":79,"Velocity":39,"Duration":946460,"SoundDuration":946460,"Delta":305321090},{"NoteNumber":82,"Velocity":44,"Duration":118110,"SoundDuration":118110,"Delta":305439200},{"NoteNumber":84,"Velocity":45,"Duration":116731,"SoundDuration":116731,"Delta":305557310},{"NoteNumber":82,"Velocity":46,"Duration":116731,"SoundDuration":116731,"Delta":305674042},{"NoteNumber":81,"Velocity":54,"Duration":116731,"SoundDuration":116731,"Delta":305790773},{"NoteNumber":82,"Velocity":45,"Duration":116731,"SoundDuration":116731,"Delta":305907505},{"NoteNumber":91,"Velocity":47,"Duration":116731,"SoundDuration":116731,"Delta":306024236},{"NoteNumber":87,"Velocity":47,"Duration":126582,"SoundDuration":126582,"Delta":306140968},{"NoteNumber":86,"Velocity":57,"Duration":118110,"SoundDuration":118110,"Delta":306267550},{"NoteNumber":70,"Velocity":36,"Duration":472441,"SoundDuration":472441,"Delta":306267550},{"NoteNumber":77,"Velocity":43,"Duration":472441,"SoundDuration":472441,"Delta":306267550},{"NoteNumber":87,"Velocity":50,"Duration":118110,"SoundDuration":118110,"Delta":306385660},{"NoteNumber":89,"Velocity":50,"Duration":118110,"SoundDuration":118110,"Delta":306503771},{"NoteNumber":91,"Velocity":51,"Duration":118110,"SoundDuration":118110,"Delta":306621881},{"NoteNumber":92,"Velocity":65,"Duration":119522,"SoundDuration":119522,"Delta":306739991},{"NoteNumber":68,"Velocity":39,"Duration":496130,"SoundDuration":496130,"Delta":306739991},{"NoteNumber":70,"Velocity":39,"Duration":496130,"SoundDuration":496130,"Delta":306739991},{"NoteNumber":77,"Velocity":46,"Duration":496130,"SoundDuration":496130,"Delta":306739991},{"NoteNumber":93,"Velocity":52,"Duration":119521,"SoundDuration":119521,"Delta":306859513},{"NoteNumber":96,"Velocity":54,"Duration":121951,"SoundDuration":121951,"Delta":306979035},{"NoteNumber":94,"Velocity":51,"Duration":132882,"SoundDuration":132882,"Delta":307100986},{"NoteNumber":94,"Velocity":73,"Duration":119522,"SoundDuration":119522,"Delta":307236122},{"NoteNumber":67,"Velocity":40,"Duration":239043,"SoundDuration":239043,"Delta":307236122},{"NoteNumber":70,"Velocity":48,"Duration":117529,"SoundDuration":117529,"Delta":307236122},{"NoteNumber":70,"Velocity":47,"Duration":119521,"SoundDuration":119521,"Delta":307355644},{"NoteNumber":72,"Velocity":47,"Duration":119522,"SoundDuration":119522,"Delta":307475166},{"NoteNumber":63,"Velocity":39,"Duration":482022,"SoundDuration":482022,"Delta":307475166},{"NoteNumber":67,"Velocity":46,"Duration":482022,"SoundDuration":482022,"Delta":307475166},{"NoteNumber":70,"Velocity":47,"Duration":123456,"SoundDuration":123456,"Delta":307594688},{"NoteNumber":69,"Velocity":56,"Duration":119522,"SoundDuration":119522,"Delta":307718144},{"NoteNumber":70,"Velocity":41,"Duration":119521,"SoundDuration":119521,"Delta":307837666},{"NoteNumber":79,"Velocity":42,"Duration":119522,"SoundDuration":119522,"Delta":307957188},{"NoteNumber":63,"Velocity":40,"Duration":248832,"SoundDuration":248832,"Delta":307957188},{"NoteNumber":67,"Velocity":48,"Duration":248832,"SoundDuration":248832,"Delta":307957188},{"NoteNumber":75,"Velocity":44,"Duration":129310,"SoundDuration":129310,"Delta":308076710},{"NoteNumber":74,"Velocity":59,"Duration":120000,"SoundDuration":120000,"Delta":308206021},{"NoteNumber":58,"Velocity":37,"Duration":480000,"SoundDuration":480000,"Delta":308206021},{"NoteNumber":65,"Velocity":44,"Duration":480000,"SoundDuration":480000,"Delta":308206021},{"NoteNumber":75,"Velocity":48,"Duration":120000,"SoundDuration":120000,"Delta":308326021},{"NoteNumber":77,"Velocity":45,"Duration":120000,"SoundDuration":120000,"Delta":308446021},{"NoteNumber":79,"Velocity":42,"Duration":120000,"SoundDuration":120000,"Delta":308566021},{"NoteNumber":80,"Velocity":54,"Duration":118110,"SoundDuration":118110,"Delta":308686021},{"NoteNumber":56,"Velocity":34,"Duration":472441,"SoundDuration":472441,"Delta":308686021},{"NoteNumber":58,"Velocity":34,"Duration":472441,"SoundDuration":472441,"Delta":308686021},{"NoteNumber":65,"Velocity":41,"Duration":472441,"SoundDuration":472441,"Delta":308686021},{"NoteNumber":81,"Velocity":41,"Duration":118110,"SoundDuration":118110,"Delta":308804131},{"NoteNumber":84,"Velocity":41,"Duration":118110,"SoundDuration":118110,"Delta":308922241},{"NoteNumber":82,"Velocity":41,"Duration":118110,"SoundDuration":118110,"Delta":309040351},{"NoteNumber":82,"Velocity":60,"Duration":119522,"SoundDuration":119522,"Delta":309158462},{"NoteNumber":55,"Velocity":40,"Duration":239043,"SoundDuration":239043,"Delta":309158462},{"NoteNumber":58,"Velocity":48,"Duration":117529,"SoundDuration":117529,"Delta":309158462},{"NoteNumber":58,"Velocity":39,"Duration":119521,"SoundDuration":119521,"Delta":309277984},{"NoteNumber":60,"Velocity":36,"Duration":119522,"SoundDuration":119522,"Delta":309397506},{"NoteNumber":51,"Velocity":33,"Duration":482022,"SoundDuration":482022,"Delta":309397506},{"NoteNumber":55,"Velocity":39,"Duration":482022,"SoundDuration":482022,"Delta":309397506},{"NoteNumber":58,"Velocity":36,"Duration":123456,"SoundDuration":123456,"Delta":309517028},{"NoteNumber":57,"Velocity":45,"Duration":119522,"SoundDuration":119522,"Delta":309640484},{"NoteNumber":58,"Velocity":34,"Duration":119521,"SoundDuration":119521,"Delta":309760006},{"NoteNumber":67,"Velocity":34,"Duration":119522,"SoundDuration":119522,"Delta":309879528},{"NoteNumber":51,"Velocity":34,"Duration":248832,"SoundDuration":248832,"Delta":309879528},{"NoteNumber":55,"Velocity":40,"Duration":248832,"SoundDuration":248832,"Delta":309879528},{"NoteNumber":63,"Velocity":37,"Duration":129310,"SoundDuration":129310,"Delta":309999050},{"NoteNumber":57,"Velocity":50,"Duration":120000,"SoundDuration":120000,"Delta":310128361},{"NoteNumber":53,"Velocity":31,"Duration":480791,"SoundDuration":480791,"Delta":310128361},{"NoteNumber":46,"Velocity":31,"Duration":480791,"SoundDuration":480791,"Delta":310128361},{"NoteNumber":56,"Velocity":37,"Duration":480791,"SoundDuration":480791,"Delta":310128361},{"NoteNumber":58,"Velocity":37,"Duration":120000,"SoundDuration":120000,"Delta":310248361},{"NoteNumber":68,"Velocity":35,"Duration":120000,"SoundDuration":120000,"Delta":310368361},{"NoteNumber":65,"Velocity":35,"Duration":120791,"SoundDuration":120791,"Delta":310488361},{"NoteNumber":62,"Velocity":45,"Duration":127005,"SoundDuration":127005,"Delta":310609152},{"NoteNumber":46,"Velocity":28,"Duration":539780,"SoundDuration":539780,"Delta":310609152},{"NoteNumber":53,"Velocity":28,"Duration":539780,"SoundDuration":539780,"Delta":310609152},{"NoteNumber":56,"Velocity":34,"Duration":539780,"SoundDuration":539780,"Delta":310609152},{"NoteNumber":72,"Velocity":39,"Duration":131985,"SoundDuration":131985,"Delta":310736158},{"NoteNumber":70,"Velocity":39,"Duration":137427,"SoundDuration":137427,"Delta":310868143},{"NoteNumber":62,"Velocity":39,"Duration":143362,"SoundDuration":143362,"Delta":311005571},{"NoteNumber":63,"Velocity":55,"Duration":963961,"SoundDuration":963961,"Delta":311148933},{"NoteNumber":58,"Velocity":50,"Duration":948616,"SoundDuration":948616,"Delta":312112895},{"NoteNumber":55,"Velocity":48,"Duration":240000,"SoundDuration":240000,"Delta":313061511},{"NoteNumber":51,"Velocity":43,"Duration":959999,"SoundDuration":959999,"Delta":313061511},{"NoteNumber":46,"Velocity":44,"Duration":971659,"SoundDuration":971659,"Delta":314021511},{"NoteNumber":63,"Velocity":46,"Duration":944882,"SoundDuration":944882,"Delta":314993171},{"NoteNumber":67,"Velocity":55,"Duration":944882,"SoundDuration":944882,"Delta":314993171},{"NoteNumber":43,"Velocity":37,"Duration":236220,"SoundDuration":236220,"Delta":314993171},{"NoteNumber":65,"Velocity":50,"Duration":956176,"SoundDuration":956176,"Delta":315938053},{"NoteNumber":58,"Velocity":42,"Duration":956176,"SoundDuration":956176,"Delta":315938053},{"NoteNumber":63,"Velocity":48,"Duration":239043,"SoundDuration":239043,"Delta":316894229},{"NoteNumber":55,"Velocity":40,"Duration":239043,"SoundDuration":239043,"Delta":316894229},{"NoteNumber":55,"Velocity":43,"Duration":956175,"SoundDuration":956175,"Delta":316894229},{"NoteNumber":51,"Velocity":36,"Duration":956175,"SoundDuration":956175,"Delta":316894229},{"NoteNumber":53,"Velocity":44,"Duration":956176,"SoundDuration":956176,"Delta":317850405},{"NoteNumber":46,"Velocity":37,"Duration":956176,"SoundDuration":956176,"Delta":317850405},{"NoteNumber":63,"Velocity":31,"Duration":239044,"SoundDuration":239044,"Delta":318567537},{"NoteNumber":67,"Velocity":39,"Duration":239044,"SoundDuration":239044,"Delta":318567537},{"NoteNumber":58,"Velocity":42,"Duration":951576,"SoundDuration":951576,"Delta":318806581},{"NoteNumber":65,"Velocity":52,"Duration":951576,"SoundDuration":951576,"Delta":318806581},{"NoteNumber":43,"Velocity":27,"Duration":236220,"SoundDuration":236220,"Delta":318806581},{"NoteNumber":51,"Velocity":33,"Duration":236220,"SoundDuration":236220,"Delta":318806581},{"NoteNumber":51,"Velocity":26,"Duration":242914,"SoundDuration":242914,"Delta":319515242},{"NoteNumber":55,"Velocity":31,"Duration":240890,"SoundDuration":240890,"Delta":319515242},{"NoteNumber":55,"Velocity":37,"Duration":237153,"SoundDuration":237153,"Delta":319758157},{"NoteNumber":63,"Velocity":46,"Duration":237153,"SoundDuration":237153,"Delta":319758157},{"NoteNumber":46,"Velocity":31,"Duration":952426,"SoundDuration":952426,"Delta":319758157},{"NoteNumber":53,"Velocity":37,"Duration":952426,"SoundDuration":952426,"Delta":319758157},{"NoteNumber":75,"Velocity":31,"Duration":240964,"SoundDuration":240964,"Delta":320469619},{"NoteNumber":79,"Velocity":39,"Duration":240964,"SoundDuration":240964,"Delta":320469619},{"NoteNumber":70,"Velocity":44,"Duration":952426,"SoundDuration":952426,"Delta":320710583},{"NoteNumber":77,"Velocity":46,"Duration":952426,"SoundDuration":952426,"Delta":320710583},{"NoteNumber":43,"Velocity":27,"Duration":237153,"SoundDuration":237153,"Delta":320710583},{"NoteNumber":51,"Velocity":33,"Duration":237153,"SoundDuration":237153,"Delta":320710583},{"NoteNumber":63,"Velocity":26,"Duration":240964,"SoundDuration":240964,"Delta":321422045},{"NoteNumber":67,"Velocity":31,"Duration":238955,"SoundDuration":238955,"Delta":321422045},{"NoteNumber":67,"Velocity":33,"Duration":238094,"SoundDuration":238094,"Delta":321663009},{"NoteNumber":75,"Velocity":39,"Duration":238094,"SoundDuration":238094,"Delta":321663009},{"NoteNumber":58,"Velocity":31,"Duration":957200,"SoundDuration":957200,"Delta":321663009},{"NoteNumber":65,"Velocity":37,"Duration":957200,"SoundDuration":957200,"Delta":321663009},{"NoteNumber":87,"Velocity":37,"Duration":242914,"SoundDuration":242914,"Delta":322377294},{"NoteNumber":91,"Velocity":45,"Duration":242914,"SoundDuration":242914,"Delta":322377294},{"NoteNumber":55,"Velocity":31,"Duration":239043,"SoundDuration":239043,"Delta":322620209},{"NoteNumber":63,"Velocity":37,"Duration":239043,"SoundDuration":239043,"Delta":322620209},{"NoteNumber":87,"Velocity":41,"Duration":235294,"SoundDuration":235294,"Delta":322859253},{"NoteNumber":91,"Velocity":49,"Duration":235294,"SoundDuration":235294,"Delta":322859253},{"NoteNumber":82,"Velocity":45,"Duration":235294,"SoundDuration":235294,"Delta":323094547},{"NoteNumber":89,"Velocity":53,"Duration":235294,"SoundDuration":235294,"Delta":323094547},{"NoteNumber":87,"Velocity":50,"Duration":244855,"SoundDuration":244855,"Delta":323329841},{"NoteNumber":79,"Velocity":42,"Duration":244855,"SoundDuration":244855,"Delta":323329841},{"NoteNumber":79,"Velocity":41,"Duration":237051,"SoundDuration":237051,"Delta":323576755},{"NoteNumber":87,"Velocity":49,"Duration":239043,"SoundDuration":239043,"Delta":323576755},{"NoteNumber":75,"Velocity":38,"Duration":235294,"SoundDuration":235294,"Delta":323815799},{"NoteNumber":79,"Velocity":45,"Duration":235294,"SoundDuration":235294,"Delta":323815799},{"NoteNumber":70,"Velocity":41,"Duration":235294,"SoundDuration":235294,"Delta":324051093},{"NoteNumber":77,"Velocity":49,"Duration":235294,"SoundDuration":235294,"Delta":324051093},{"NoteNumber":75,"Velocity":46,"Duration":241869,"SoundDuration":241869,"Delta":324286387},{"NoteNumber":67,"Velocity":39,"Duration":241869,"SoundDuration":241869,"Delta":324286387},{"NoteNumber":67,"Velocity":38,"Duration":237051,"SoundDuration":237051,"Delta":324530289},{"NoteNumber":75,"Velocity":45,"Duration":239043,"SoundDuration":239043,"Delta":324530289},{"NoteNumber":63,"Velocity":38,"Duration":235294,"SoundDuration":235294,"Delta":324769333},{"NoteNumber":67,"Velocity":45,"Duration":235294,"SoundDuration":235294,"Delta":324769333},{"NoteNumber":58,"Velocity":41,"Duration":235294,"SoundDuration":235294,"Delta":325004627},{"NoteNumber":65,"Velocity":49,"Duration":235294,"SoundDuration":235294,"Delta":325004627},{"NoteNumber":63,"Velocity":46,"Duration":240890,"SoundDuration":240890,"Delta":325239921},{"NoteNumber":55,"Velocity":39,"Duration":240890,"SoundDuration":240890,"Delta":325239921},{"NoteNumber":55,"Velocity":38,"Duration":237999,"SoundDuration":237999,"Delta":325482836},{"NoteNumber":63,"Velocity":45,"Duration":240000,"SoundDuration":240000,"Delta":325482836},{"NoteNumber":51,"Velocity":38,"Duration":236220,"SoundDuration":236220,"Delta":325722836},{"NoteNumber":55,"Velocity":45,"Duration":236220,"SoundDuration":236220,"Delta":325722836},{"NoteNumber":46,"Velocity":41,"Duration":236220,"SoundDuration":236220,"Delta":325959057},{"NoteNumber":53,"Velocity":49,"Duration":236220,"SoundDuration":236220,"Delta":325959057},{"NoteNumber":51,"Velocity":46,"Duration":248962,"SoundDuration":248962,"Delta":326195277},{"NoteNumber":43,"Velocity":39,"Duration":248962,"SoundDuration":248962,"Delta":326195277},{"NoteNumber":53,"Velocity":43,"Duration":357154,"SoundDuration":357154,"Delta":326444240},{"NoteNumber":58,"Velocity":51,"Duration":711484,"SoundDuration":711484,"Delta":326444240},{"NoteNumber":50,"Velocity":47,"Duration":118110,"SoundDuration":118110,"Delta":326683284},{"NoteNumber":53,"Velocity":56,"Duration":234251,"SoundDuration":234251,"Delta":326683284},{"NoteNumber":39,"Velocity":59,"Duration":118110,"SoundDuration":118110,"Delta":326919504},{"NoteNumber":51,"Velocity":46,"Duration":121951,"SoundDuration":121951,"Delta":327155725},{"NoteNumber":55,"Velocity":55,"Duration":121951,"SoundDuration":121951,"Delta":327155725},{"NoteNumber":53,"Velocity":48,"Duration":357154,"SoundDuration":357154,"Delta":327399627},{"NoteNumber":58,"Velocity":57,"Duration":711484,"SoundDuration":711484,"Delta":327399627},{"NoteNumber":50,"Velocity":54,"Duration":118110,"SoundDuration":118110,"Delta":327638671},{"NoteNumber":53,"Velocity":63,"Duration":234251,"SoundDuration":234251,"Delta":327638671},{"NoteNumber":39,"Velocity":65,"Duration":118110,"SoundDuration":118110,"Delta":327874892},{"NoteNumber":51,"Velocity":52,"Duration":122950,"SoundDuration":122950,"Delta":328111112},{"NoteNumber":55,"Velocity":62,"Duration":122950,"SoundDuration":122950,"Delta":328111112},{"NoteNumber":53,"Velocity":53,"Duration":357154,"SoundDuration":357154,"Delta":328357014},{"NoteNumber":58,"Velocity":63,"Duration":711484,"SoundDuration":711484,"Delta":328357014},{"NoteNumber":50,"Velocity":59,"Duration":118110,"SoundDuration":118110,"Delta":328596058},{"NoteNumber":53,"Velocity":70,"Duration":234251,"SoundDuration":234251,"Delta":328596058},{"NoteNumber":39,"Velocity":73,"Duration":118110,"SoundDuration":118110,"Delta":328832278},{"NoteNumber":51,"Velocity":56,"Duration":121951,"SoundDuration":121951,"Delta":329068499},{"NoteNumber":55,"Velocity":67,"Duration":121951,"SoundDuration":121951,"Delta":329068499},{"NoteNumber":50,"Velocity":59,"Duration":711484,"SoundDuration":711484,"Delta":329312401},{"NoteNumber":53,"Velocity":59,"Duration":711484,"SoundDuration":711484,"Delta":329312401},{"NoteNumber":58,"Velocity":70,"Duration":711484,"SoundDuration":711484,"Delta":329312401},{"NoteNumber":46,"Velocity":77,"Duration":118110,"SoundDuration":118110,"Delta":329551445},{"NoteNumber":34,"Velocity":80,"Duration":118110,"SoundDuration":118110,"Delta":329787666},{"NoteNumber":62,"Velocity":75,"Duration":118110,"SoundDuration":118110,"Delta":330023886},{"NoteNumber":53,"Velocity":63,"Duration":118110,"SoundDuration":118110,"Delta":330023886},{"NoteNumber":56,"Velocity":63,"Duration":118110,"SoundDuration":118110,"Delta":330023886},{"NoteNumber":46,"Velocity":82,"Duration":118110,"SoundDuration":118110,"Delta":330023886},{"NoteNumber":55,"Velocity":41,"Duration":239043,"SoundDuration":239043,"Delta":330277743},{"NoteNumber":63,"Velocity":41,"Duration":239043,"SoundDuration":239043,"Delta":330277743},{"NoteNumber":39,"Velocity":30,"Duration":947211,"SoundDuration":947211,"Delta":330277743},{"NoteNumber":39,"Velocity":30,"Duration":947207,"SoundDuration":947207,"Delta":331233919},{"NoteNumber":38,"Velocity":24,"Duration":947207,"SoundDuration":947207,"Delta":331233919},{"NoteNumber":63,"Velocity":41,"Duration":119047,"SoundDuration":119047,"Delta":332190055},{"NoteNumber":36,"Velocity":24,"Duration":939806,"SoundDuration":939806,"Delta":332190055},{"NoteNumber":39,"Velocity":30,"Duration":939806,"SoundDuration":939806,"Delta":332190055},{"NoteNumber":65,"Velocity":35,"Duration":119047,"SoundDuration":119047,"Delta":332309103},{"NoteNumber":63,"Velocity":35,"Duration":118890,"SoundDuration":118890,"Delta":332428150},{"NoteNumber":62,"Velocity":35,"Duration":118576,"SoundDuration":118576,"Delta":332547041},{"NoteNumber":63,"Velocity":41,"Duration":118577,"SoundDuration":118577,"Delta":332665618},{"NoteNumber":65,"Velocity":37,"Duration":118304,"SoundDuration":118304,"Delta":332784195},{"NoteNumber":67,"Velocity":37,"Duration":118110,"SoundDuration":118110,"Delta":332902500},{"NoteNumber":68,"Velocity":37,"Duration":118110,"SoundDuration":118110,"Delta":333020610},{"NoteNumber":70,"Velocity":46,"Duration":117724,"SoundDuration":117724,"Delta":333138720},{"NoteNumber":34,"Velocity":24,"Duration":932437,"SoundDuration":932437,"Delta":333138720},{"NoteNumber":39,"Velocity":30,"Duration":932437,"SoundDuration":932437,"Delta":333138720},{"NoteNumber":72,"Velocity":40,"Duration":117646,"SoundDuration":117646,"Delta":333256444},{"NoteNumber":74,"Velocity":41,"Duration":117646,"SoundDuration":117646,"Delta":333374091},{"NoteNumber":75,"Velocity":43,"Duration":117647,"SoundDuration":117647,"Delta":333491738},{"NoteNumber":77,"Velocity":44,"Duration":117646,"SoundDuration":117646,"Delta":333609385},{"NoteNumber":79,"Velocity":45,"Duration":117647,"SoundDuration":117647,"Delta":333727032},{"NoteNumber":80,"Velocity":47,"Duration":117646,"SoundDuration":117646,"Delta":333844679},{"NoteNumber":82,"Velocity":48,"Duration":117724,"SoundDuration":117724,"Delta":333962326},{"NoteNumber":84,"Velocity":55,"Duration":158102,"SoundDuration":158102,"Delta":334080051},{"NoteNumber":32,"Velocity":24,"Duration":942318,"SoundDuration":942318,"Delta":334080051},{"NoteNumber":39,"Velocity":30,"Duration":942318,"SoundDuration":942318,"Delta":334080051},{"NoteNumber":86,"Velocity":48,"Duration":157482,"SoundDuration":157482,"Delta":334238154},{"NoteNumber":87,"Velocity":49,"Duration":156862,"SoundDuration":156862,"Delta":334395636},{"NoteNumber":89,"Velocity":51,"Duration":117646,"SoundDuration":117646,"Delta":334552499},{"NoteNumber":91,"Velocity":54,"Duration":117647,"SoundDuration":117647,"Delta":334670146},{"NoteNumber":92,"Velocity":58,"Duration":121771,"SoundDuration":121771,"Delta":334787793},{"NoteNumber":94,"Velocity":61,"Duration":121951,"SoundDuration":121951,"Delta":334909565},{"NoteNumber":96,"Velocity":64,"Duration":474448,"SoundDuration":474448,"Delta":335031516},{"NoteNumber":31,"Velocity":24,"Duration":946358,"SoundDuration":946358,"Delta":335031516},{"NoteNumber":39,"Velocity":30,"Duration":946358,"SoundDuration":946358,"Delta":335031516},{"NoteNumber":94,"Velocity":52,"Duration":237153,"SoundDuration":237153,"Delta":335505965},{"NoteNumber":87,"Velocity":57,"Duration":118577,"SoundDuration":118577,"Delta":335987021},{"NoteNumber":32,"Velocity":24,"Duration":939709,"SoundDuration":939709,"Delta":335987021},{"NoteNumber":39,"Velocity":30,"Duration":939709,"SoundDuration":939709,"Delta":335987021},{"NoteNumber":89,"Velocity":42,"Duration":118576,"SoundDuration":118576,"Delta":336105598},{"NoteNumber":87,"Velocity":43,"Duration":117187,"SoundDuration":117187,"Delta":336224175},{"NoteNumber":86,"Velocity":45,"Duration":117187,"SoundDuration":117187,"Delta":336341363},{"NoteNumber":87,"Velocity":47,"Duration":93750,"SoundDuration":93750,"Delta":336458550},{"NoteNumber":89,"Velocity":48,"Duration":93750,"SoundDuration":93750,"Delta":336552300},{"NoteNumber":91,"Velocity":49,"Duration":95458,"SoundDuration":95458,"Delta":336646050},{"NoteNumber":92,"Velocity":51,"Duration":97166,"SoundDuration":97166,"Delta":336741508},{"NoteNumber":94,"Velocity":52,"Duration":97165,"SoundDuration":97165,"Delta":336838674},{"NoteNumber":96,"Velocity":62,"Duration":474308,"SoundDuration":474308,"Delta":336935840},{"NoteNumber":31,"Velocity":24,"Duration":944324,"SoundDuration":944324,"Delta":336935840},{"NoteNumber":39,"Velocity":30,"Duration":944324,"SoundDuration":944324,"Delta":336935840},{"NoteNumber":94,"Velocity":48,"Duration":237153,"SoundDuration":237153,"Delta":337410148},{"NoteNumber":87,"Velocity":65,"Duration":119047,"SoundDuration":119047,"Delta":337889238},{"NoteNumber":32,"Velocity":24,"Duration":940610,"SoundDuration":940610,"Delta":337889238},{"NoteNumber":39,"Velocity":30,"Duration":940610,"SoundDuration":940610,"Delta":337889238},{"NoteNumber":89,"Velocity":50,"Duration":119047,"SoundDuration":119047,"Delta":338008285},{"NoteNumber":87,"Velocity":54,"Duration":117646,"SoundDuration":117646,"Delta":338127333},{"NoteNumber":86,"Velocity":58,"Duration":117647,"SoundDuration":117647,"Delta":338244980},{"NoteNumber":87,"Velocity":62,"Duration":94117,"SoundDuration":94117,"Delta":338362627},{"NoteNumber":89,"Velocity":64,"Duration":94117,"SoundDuration":94117,"Delta":338456744},{"NoteNumber":91,"Velocity":67,"Duration":95251,"SoundDuration":95251,"Delta":338550862},{"NoteNumber":92,"Velocity":71,"Duration":96385,"SoundDuration":96385,"Delta":338646114},{"NoteNumber":94,"Velocity":74,"Duration":96385,"SoundDuration":96385,"Delta":338742499},{"NoteNumber":84,"Velocity":77,"Duration":952380,"SoundDuration":952380,"Delta":338838885},{"NoteNumber":96,"Velocity":77,"Duration":952380,"SoundDuration":952380,"Delta":338838885},{"NoteNumber":31,"Velocity":26,"Duration":238094,"SoundDuration":238094,"Delta":338838885},{"NoteNumber":39,"Velocity":33,"Duration":238094,"SoundDuration":238094,"Delta":338838885},{"NoteNumber":82,"Velocity":68,"Duration":240964,"SoundDuration":240964,"Delta":339791265},{"NoteNumber":94,"Velocity":68,"Duration":240964,"SoundDuration":240964,"Delta":339791265},{"NoteNumber":53,"Velocity":79,"Duration":119522,"SoundDuration":119522,"Delta":340755121},{"NoteNumber":56,"Velocity":79,"Duration":119522,"SoundDuration":119522,"Delta":340755121},{"NoteNumber":58,"Velocity":79,"Duration":119522,"SoundDuration":119522,"Delta":340755121},{"NoteNumber":62,"Velocity":93,"Duration":119522,"SoundDuration":119522,"Delta":340755121},{"NoteNumber":34,"Velocity":53,"Duration":239043,"SoundDuration":239043,"Delta":340755121},{"NoteNumber":38,"Velocity":53,"Duration":239043,"SoundDuration":239043,"Delta":340755121},{"NoteNumber":41,"Velocity":53,"Duration":239043,"SoundDuration":239043,"Delta":340755121},{"NoteNumber":46,"Velocity":63,"Duration":239043,"SoundDuration":239043,"Delta":340755121},{"NoteNumber":55,"Velocity":79,"Duration":119521,"SoundDuration":119521,"Delta":341711297},{"NoteNumber":58,"Velocity":79,"Duration":119521,"SoundDuration":119521,"Delta":341711297},{"NoteNumber":63,"Velocity":93,"Duration":119521,"SoundDuration":119521,"Delta":341711297},{"NoteNumber":39,"Velocity":53,"Duration":239043,"SoundDuration":239043,"Delta":341711297},{"NoteNumber":43,"Velocity":53,"Duration":239043,"SoundDuration":239043,"Delta":341711297},{"NoteNumber":46,"Velocity":53,"Duration":239043,"SoundDuration":239043,"Delta":341711297},{"NoteNumber":51,"Velocity":63,"Duration":239043,"SoundDuration":239043,"Delta":341711297}],"license":{"name":"Creative Commons Attribution-ShareAlike 3.0 Germany","url":"http://creativecommons.org/licenses/by-sa/3.0/de/deed.en","text":"The MIDI, audio (MP3, OGG) and video files of Bernd Krueger are licensed under the cc-by-sa Germany License. This means that you can use and adapt the files, as long as you attribute the copyright holder.\n\nName: Bernd Krueger\nSource: http://www.piano-midi.de\n\nThe distribution or public playback of the files is only allowed under identical license conditions.\n\nThe scores are open source.","attribution":"MIDI files by Bernd Krueger (piano-midi.de)"}}