{"title":"Sonate Op. 10 No. 1 2. Satz","artist":"Piano","durationMs":388625,"midiSha256":"474d5e4a422ef14cf372eef42ccb0cc18949f8d5b859b4a8b2475d733fb50371","midiObject":[{"NoteNumber":60,"Velocity":42,"Duration":1786308,"SoundDuration":1786308,"Delta":0},{"NoteNumber":68,"Velocity":50,"Duration":1313867,"SoundDuration":1313867,"Delta":0},{"NoteNumber":44,"Velocity":27,"Duration":1786308,"SoundDuration":1786308,"Delta":0},{"NoteNumber":51,"Velocity":27,"Duration":1786308,"SoundDuration":1786308,"Delta":0},{"NoteNumber":56,"Velocity":32,"Duration":1786308,"SoundDuration":1786308,"Delta":0},{"NoteNumber":70,"Velocity":50,"Duration":118110,"SoundDuration":118110,"Delta":1313867},{"NoteNumber":68,"Velocity":46,"Duration":118110,"SoundDuration":118110,"Delta":1431978},{"NoteNumber":67,"Velocity":46,"Duration":118110,"SoundDuration":118110,"Delta":1550088},{"NoteNumber":68,"Velocity":46,"Duration":118110,"SoundDuration":118110,"Delta":1668198},{"NoteNumber":72,"Velocity":54,"Duration":1304347,"SoundDuration":1304347,"Delta":1786308},{"NoteNumber":61,"Velocity":45,"Duration":1758893,"SoundDuration":1758893,"Delta":1786308},{"NoteNumber":43,"Velocity":24,"Duration":1758893,"SoundDuration":1758893,"Delta":1786308},{"NoteNumber":51,"Velocity":24,"Duration":1758893,"SoundDuration":1758893,"Delta":1786308},{"NoteNumber":55,"Velocity":29,"Duration":1758893,"SoundDuration":1758893,"Delta":1786308},{"NoteNumber":70,"Velocity":45,"Duration":454545,"SoundDuration":454545,"Delta":3090656},{"NoteNumber":60,"Velocity":42,"Duration":2666666,"SoundDuration":2666666,"Delta":3545201},{"NoteNumber":68,"Velocity":50,"Duration":2666666,"SoundDuration":2666666,"Delta":3545201},{"NoteNumber":44,"Velocity":30,"Duration":2666666,"SoundDuration":2666666,"Delta":3545201},{"NoteNumber":51,"Velocity":30,"Duration":2666666,"SoundDuration":2666666,"Delta":3545201},{"NoteNumber":56,"Velocity":36,"Duration":2666666,"SoundDuration":2666666,"Delta":3545201},{"NoteNumber":69,"Velocity":50,"Duration":902390,"SoundDuration":902390,"Delta":6211868},{"NoteNumber":63,"Velocity":42,"Duration":1773097,"SoundDuration":1773097,"Delta":7114259},{"NoteNumber":70,"Velocity":50,"Duration":869564,"SoundDuration":869564,"Delta":7114259},{"NoteNumber":55,"Velocity":27,"Duration":1773097,"SoundDuration":1773097,"Delta":7114259},{"NoteNumber":61,"Velocity":32,"Duration":869564,"SoundDuration":869564,"Delta":7114259},{"NoteNumber":58,"Velocity":32,"Duration":903532,"SoundDuration":903532,"Delta":7983823},{"NoteNumber":72,"Velocity":50,"Duration":117187,"SoundDuration":117187,"Delta":8418606},{"NoteNumber":70,"Velocity":46,"Duration":117187,"SoundDuration":117187,"Delta":8535794},{"NoteNumber":69,"Velocity":46,"Duration":117187,"SoundDuration":117187,"Delta":8652981},{"NoteNumber":70,"Velocity":46,"Duration":117187,"SoundDuration":117187,"Delta":8770169},{"NoteNumber":73,"Velocity":54,"Duration":1294963,"SoundDuration":1294963,"Delta":8887356},{"NoteNumber":63,"Velocity":45,"Duration":863308,"SoundDuration":863308,"Delta":8887356},{"NoteNumber":56,"Velocity":29,"Duration":1743786,"SoundDuration":1743786,"Delta":8887356},{"NoteNumber":68,"Velocity":42,"Duration":880477,"SoundDuration":880477,"Delta":9750665},{"NoteNumber":60,"Velocity":32,"Duration":880477,"SoundDuration":880477,"Delta":9750665},{"NoteNumber":72,"Velocity":45,"Duration":448822,"SoundDuration":448822,"Delta":10182319},{"NoteNumber":67,"Velocity":42,"Duration":2571429,"SoundDuration":2571429,"Delta":10631142},{"NoteNumber":70,"Velocity":50,"Duration":2571429,"SoundDuration":2571429,"Delta":10631142},{"NoteNumber":51,"Velocity":30,"Duration":2571429,"SoundDuration":2571429,"Delta":10631142},{"NoteNumber":63,"Velocity":36,"Duration":2571429,"SoundDuration":2571429,"Delta":10631142},{"NoteNumber":71,"Velocity":50,"Duration":857142,"SoundDuration":857142,"Delta":13202571},{"NoteNumber":72,"Velocity":63,"Duration":1505639,"SoundDuration":1505639,"Delta":14059714},{"NoteNumber":63,"Velocity":63,"Duration":1731203,"SoundDuration":1731203,"Delta":14059714},{"NoteNumber":56,"Velocity":32,"Duration":1731203,"SoundDuration":1731203,"Delta":14059714},{"NoteNumber":68,"Velocity":52,"Duration":225564,"SoundDuration":225564,"Delta":15565354},{"NoteNumber":75,"Velocity":64,"Duration":1503868,"SoundDuration":1503868,"Delta":15790918},{"NoteNumber":68,"Velocity":64,"Duration":1731141,"SoundDuration":1731141,"Delta":15790918},{"NoteNumber":63,"Velocity":55,"Duration":1731141,"SoundDuration":1731141,"Delta":15790918},{"NoteNumber":48,"Velocity":37,"Duration":1731141,"SoundDuration":1731141,"Delta":15790918},{"NoteNumber":60,"Velocity":37,"Duration":1731141,"SoundDuration":1731141,"Delta":15790918},{"NoteNumber":56,"Velocity":37,"Duration":1731141,"SoundDuration":1731141,"Delta":15790918},{"NoteNumber":72,"Velocity":60,"Duration":227272,"SoundDuration":227272,"Delta":17294786},{"NoteNumber":65,"Velocity":55,"Duration":1723888,"SoundDuration":1723888,"Delta":17522059},{"NoteNumber":68,"Velocity":64,"Duration":1723888,"SoundDuration":1723888,"Delta":17522059},{"NoteNumber":77,"Velocity":70,"Duration":1496615,"SoundDuration":1496615,"Delta":17522059},{"NoteNumber":49,"Velocity":45,"Duration":1723888,"SoundDuration":1723888,"Delta":17522059},{"NoteNumber":56,"Velocity":45,"Duration":1723888,"SoundDuration":1723888,"Delta":17522059},{"NoteNumber":61,"Velocity":45,"Duration":1723888,"SoundDuration":1723888,"Delta":17522059},{"NoteNumber":73,"Velocity":67,"Duration":227272,"SoundDuration":227272,"Delta":19018674},{"NoteNumber":53,"Velocity":41,"Duration":3396518,"SoundDuration":3396518,"Delta":19245947},{"NoteNumber":56,"Velocity":45,"Duration":3350505,"SoundDuration":3350505,"Delta":19291959},{"NoteNumber":61,"Velocity":49,"Duration":3304493,"SoundDuration":3304493,"Delta":19337972},{"NoteNumber":65,"Velocity":53,"Duration":3258481,"SoundDuration":3258481,"Delta":19383984},{"NoteNumber":68,"Velocity":70,"Duration":3212468,"SoundDuration":3212468,"Delta":19429996},{"NoteNumber":73,"Velocity":75,"Duration":3166456,"SoundDuration":3166456,"Delta":19476008},{"NoteNumber":77,"Velocity":78,"Duration":1368620,"SoundDuration":1368620,"Delta":19522021},{"NoteNumber":80,"Velocity":82,"Duration":1760564,"SoundDuration":1760564,"Delta":19568033},{"NoteNumber":79,"Velocity":63,"Duration":401459,"SoundDuration":401459,"Delta":21328597},{"NoteNumber":77,"Velocity":59,"Duration":401459,"SoundDuration":401459,"Delta":21766553},{"NoteNumber":75,"Velocity":56,"Duration":401459,"SoundDuration":401459,"Delta":22204509},{"NoteNumber":70,"Velocity":51,"Duration":869565,"SoundDuration":869565,"Delta":22642465},{"NoteNumber":73,"Velocity":60,"Duration":869565,"SoundDuration":869565,"Delta":22642465},{"NoteNumber":55,"Velocity":31,"Duration":869565,"SoundDuration":869565,"Delta":22642465},{"NoteNumber":63,"Velocity":37,"Duration":869565,"SoundDuration":869565,"Delta":22642465},{"NoteNumber":68,"Velocity":44,"Duration":909091,"SoundDuration":909091,"Delta":23512030},{"NoteNumber":72,"Velocity":52,"Duration":909091,"SoundDuration":909091,"Delta":23512030},{"NoteNumber":63,"Velocity":34,"Duration":909091,"SoundDuration":909091,"Delta":23512030},{"NoteNumber":56,"Velocity":28,"Duration":909091,"SoundDuration":909091,"Delta":23512030},{"NoteNumber":63,"Velocity":46,"Duration":875911,"SoundDuration":875911,"Delta":24421121},{"NoteNumber":75,"Velocity":55,"Duration":1313867,"SoundDuration":1313867,"Delta":24421121},{"NoteNumber":60,"Velocity":37,"Duration":1313867,"SoundDuration":1313867,"Delta":24421121},{"NoteNumber":51,"Velocity":31,"Duration":1751823,"SoundDuration":1751823,"Delta":24421121},{"NoteNumber":63,"Velocity":39,"Duration":875911,"SoundDuration":875911,"Delta":25297033},{"NoteNumber":72,"Velocity":51,"Duration":437955,"SoundDuration":437955,"Delta":25734989},{"NoteNumber":56,"Velocity":31,"Duration":437955,"SoundDuration":437955,"Delta":25734989},{"NoteNumber":63,"Velocity":45,"Duration":1028836,"SoundDuration":1028836,"Delta":26172945},{"NoteNumber":70,"Velocity":53,"Duration":75757,"SoundDuration":75757,"Delta":26172945},{"NoteNumber":70,"Velocity":51,"Duration":227272,"SoundDuration":227272,"Delta":26172945},{"NoteNumber":51,"Velocity":26,"Duration":1028836,"SoundDuration":1028836,"Delta":26172945},{"NoteNumber":55,"Velocity":31,"Duration":1028836,"SoundDuration":1028836,"Delta":26172945},{"NoteNumber":72,"Velocity":46,"Duration":75757,"SoundDuration":75757,"Delta":26248703},{"NoteNumber":70,"Velocity":51,"Duration":232160,"SoundDuration":232160,"Delta":26324460},{"NoteNumber":72,"Velocity":45,"Duration":75757,"SoundDuration":75757,"Delta":26400218},{"NoteNumber":70,"Velocity":51,"Duration":241935,"SoundDuration":241935,"Delta":26475975},{"NoteNumber":69,"Velocity":46,"Duration":80645,"SoundDuration":80645,"Delta":26556621},{"NoteNumber":70,"Velocity":46,"Duration":564516,"SoundDuration":564516,"Delta":26637266},{"NoteNumber":73,"Velocity":57,"Duration":241935,"SoundDuration":241935,"Delta":26717911},{"NoteNumber":72,"Velocity":48,"Duration":241935,"SoundDuration":241935,"Delta":26959846},{"NoteNumber":75,"Velocity":55,"Duration":227272,"SoundDuration":227272,"Delta":27201782},{"NoteNumber":73,"Velocity":47,"Duration":227272,"SoundDuration":227272,"Delta":27429055},{"NoteNumber":72,"Velocity":51,"Duration":166666,"SoundDuration":166666,"Delta":27656327},{"NoteNumber":73,"Velocity":47,"Duration":190860,"SoundDuration":190860,"Delta":27822994},{"NoteNumber":70,"Velocity":47,"Duration":215053,"SoundDuration":215053,"Delta":28013854},{"NoteNumber":60,"Velocity":34,"Duration":1786308,"SoundDuration":1786308,"Delta":28228908},{"NoteNumber":68,"Velocity":50,"Duration":1313867,"SoundDuration":1313867,"Delta":28228908},{"NoteNumber":44,"Velocity":36,"Duration":1786308,"SoundDuration":1786308,"Delta":28228908},{"NoteNumber":51,"Velocity":28,"Duration":416058,"SoundDuration":416058,"Delta":28666864},{"NoteNumber":51,"Velocity":29,"Duration":416058,"SoundDuration":416058,"Delta":29104820},{"NoteNumber":70,"Velocity":50,"Duration":118110,"SoundDuration":118110,"Delta":29542776},{"NoteNumber":51,"Velocity":29,"Duration":472440,"SoundDuration":472440,"Delta":29542776},{"NoteNumber":68,"Velocity":46,"Duration":118110,"SoundDuration":118110,"Delta":29660886},{"NoteNumber":67,"Velocity":46,"Duration":118110,"SoundDuration":118110,"Delta":29778997},{"NoteNumber":68,"Velocity":46,"Duration":118110,"SoundDuration":118110,"Delta":29897107},{"NoteNumber":72,"Velocity":54,"Duration":1304347,"SoundDuration":1304347,"Delta":30015217},{"NoteNumber":61,"Velocity":45,"Duration":1758892,"SoundDuration":1758892,"Delta":30015217},{"NoteNumber":43,"Velocity":36,"Duration":1758892,"SoundDuration":1758892,"Delta":30015217},{"NoteNumber":51,"Velocity":28,"Duration":413043,"SoundDuration":413043,"Delta":30450000},{"NoteNumber":51,"Velocity":28,"Duration":413043,"SoundDuration":413043,"Delta":30884782},{"NoteNumber":70,"Velocity":45,"Duration":454545,"SoundDuration":454545,"Delta":31319565},{"NoteNumber":51,"Velocity":28,"Duration":454545,"SoundDuration":454545,"Delta":31319565},{"NoteNumber":60,"Velocity":42,"Duration":1758454,"SoundDuration":1758454,"Delta":31774110},{"NoteNumber":68,"Velocity":50,"Duration":1758454,"SoundDuration":1758454,"Delta":31774110},{"NoteNumber":44,"Velocity":36,"Duration":444444,"SoundDuration":444444,"Delta":31774110},{"NoteNumber":51,"Velocity":32,"Duration":444444,"SoundDuration":444444,"Delta":32218555},{"NoteNumber":48,"Velocity":36,"Duration":434782,"SoundDuration":434782,"Delta":32662999},{"NoteNumber":56,"Velocity":32,"Duration":434782,"SoundDuration":434782,"Delta":33097782},{"NoteNumber":51,"Velocity":40,"Duration":425531,"SoundDuration":425531,"Delta":33532564},{"NoteNumber":60,"Velocity":36,"Duration":438330,"SoundDuration":438330,"Delta":33958096},{"NoteNumber":56,"Velocity":47,"Duration":425531,"SoundDuration":425531,"Delta":34396426},{"NoteNumber":63,"Velocity":36,"Duration":457945,"SoundDuration":457945,"Delta":34821958},{"NoteNumber":70,"Velocity":59,"Duration":869565,"SoundDuration":869565,"Delta":35279904},{"NoteNumber":55,"Velocity":45,"Duration":1773097,"SoundDuration":1773097,"Delta":35279904},{"NoteNumber":63,"Velocity":29,"Duration":413043,"SoundDuration":413043,"Delta":35714686},{"NoteNumber":63,"Velocity":29,"Duration":413043,"SoundDuration":413043,"Delta":36149469},{"NoteNumber":72,"Velocity":54,"Duration":117187,"SoundDuration":117187,"Delta":36584251},{"NoteNumber":63,"Velocity":29,"Duration":468750,"SoundDuration":468750,"Delta":36584251},{"NoteNumber":70,"Velocity":46,"Duration":117187,"SoundDuration":117187,"Delta":36701439},{"NoteNumber":69,"Velocity":49,"Duration":117187,"SoundDuration":117187,"Delta":36818626},{"NoteNumber":70,"Velocity":50,"Duration":117187,"SoundDuration":117187,"Delta":36935814},{"NoteNumber":73,"Velocity":62,"Duration":1294963,"SoundDuration":1294963,"Delta":37053001},{"NoteNumber":68,"Velocity":62,"Duration":1743786,"SoundDuration":1743786,"Delta":37053001},{"NoteNumber":56,"Velocity":36,"Duration":1743786,"SoundDuration":1743786,"Delta":37053001},{"NoteNumber":63,"Velocity":29,"Duration":410071,"SoundDuration":410071,"Delta":37484656},{"NoteNumber":63,"Velocity":29,"Duration":410071,"SoundDuration":410071,"Delta":37916310},{"NoteNumber":72,"Velocity":50,"Duration":448822,"SoundDuration":448822,"Delta":38347965},{"NoteNumber":63,"Velocity":29,"Duration":448822,"SoundDuration":448822,"Delta":38347965},{"NoteNumber":67,"Velocity":57,"Duration":1691808,"SoundDuration":1691808,"Delta":38796787},{"NoteNumber":70,"Velocity":57,"Duration":1691808,"SoundDuration":1691808,"Delta":38796787},{"NoteNumber":51,"Velocity":41,"Duration":428571,"SoundDuration":428571,"Delta":38796787},{"NoteNumber":63,"Velocity":32,"Duration":424075,"SoundDuration":424075,"Delta":39225359},{"NoteNumber":62,"Velocity":33,"Duration":419580,"SoundDuration":419580,"Delta":39649435},{"NoteNumber":63,"Velocity":33,"Duration":419580,"SoundDuration":419580,"Delta":40069015},{"NoteNumber":62,"Velocity":36,"Duration":419580,"SoundDuration":419580,"Delta":40488596},{"NoteNumber":63,"Velocity":31,"Duration":419580,"SoundDuration":419580,"Delta":40908176},{"NoteNumber":65,"Velocity":36,"Duration":425531,"SoundDuration":425531,"Delta":41327757},{"NoteNumber":61,"Velocity":33,"Duration":425532,"SoundDuration":425532,"Delta":41753289},{"NoteNumber":63,"Velocity":36,"Duration":160334,"SoundDuration":160334,"Delta":42125629},{"NoteNumber":72,"Velocity":63,"Duration":1505639,"SoundDuration":1505639,"Delta":42178821},{"NoteNumber":56,"Velocity":32,"Duration":428571,"SoundDuration":428571,"Delta":42607392},{"NoteNumber":60,"Velocity":32,"Duration":428571,"SoundDuration":428571,"Delta":43035964},{"NoteNumber":63,"Velocity":29,"Duration":370300,"SoundDuration":370300,"Delta":43464535},{"NoteNumber":68,"Velocity":52,"Duration":225563,"SoundDuration":225563,"Delta":43684460},{"NoteNumber":63,"Velocity":43,"Duration":215965,"SoundDuration":215965,"Delta":43853633},{"NoteNumber":75,"Velocity":64,"Duration":1503868,"SoundDuration":1503868,"Delta":43910024},{"NoteNumber":48,"Velocity":32,"Duration":425532,"SoundDuration":425532,"Delta":44335556},{"NoteNumber":51,"Velocity":32,"Duration":425531,"SoundDuration":425531,"Delta":44761088},{"NoteNumber":56,"Velocity":30,"Duration":454545,"SoundDuration":454545,"Delta":45186620},{"NoteNumber":72,"Velocity":60,"Duration":113636,"SoundDuration":113636,"Delta":45413893},{"NoteNumber":65,"Velocity":44,"Duration":163201,"SoundDuration":163201,"Delta":45584348},{"NoteNumber":77,"Velocity":73,"Duration":2563049,"SoundDuration":2563049,"Delta":45641166},{"NoteNumber":49,"Velocity":38,"Duration":3011643,"SoundDuration":3011643,"Delta":46066698},{"NoteNumber":53,"Velocity":38,"Duration":446808,"SoundDuration":446808,"Delta":46066698},{"NoteNumber":55,"Velocity":42,"Duration":446808,"SoundDuration":446808,"Delta":46492230},{"NoteNumber":56,"Velocity":45,"Duration":468271,"SoundDuration":468271,"Delta":46917762},{"NoteNumber":57,"Velocity":49,"Duration":440559,"SoundDuration":440559,"Delta":47365054},{"NoteNumber":58,"Velocity":52,"Duration":440559,"SoundDuration":440559,"Delta":47784634},{"NoteNumber":69,"Velocity":59,"Duration":419580,"SoundDuration":419580,"Delta":48204215},{"NoteNumber":75,"Velocity":70,"Duration":419580,"SoundDuration":419580,"Delta":48204215},{"NoteNumber":60,"Velocity":48,"Duration":442307,"SoundDuration":442307,"Delta":48204215},{"NoteNumber":70,"Velocity":52,"Duration":454545,"SoundDuration":454545,"Delta":48623795},{"NoteNumber":73,"Velocity":62,"Duration":454545,"SoundDuration":454545,"Delta":48623795},{"NoteNumber":61,"Velocity":51,"Duration":475524,"SoundDuration":475524,"Delta":48623795},{"NoteNumber":68,"Velocity":59,"Duration":1693523,"SoundDuration":1693523,"Delta":49078341},{"NoteNumber":72,"Velocity":70,"Duration":839160,"SoundDuration":839160,"Delta":49078341},{"NoteNumber":51,"Velocity":32,"Duration":1693523,"SoundDuration":1693523,"Delta":49078341},{"NoteNumber":63,"Velocity":51,"Duration":419580,"SoundDuration":419580,"Delta":49078341},{"NoteNumber":62,"Velocity":45,"Duration":419580,"SoundDuration":419580,"Delta":49497921},{"NoteNumber":75,"Velocity":63,"Duration":854362,"SoundDuration":854362,"Delta":49917502},{"NoteNumber":61,"Velocity":46,"Duration":419580,"SoundDuration":419580,"Delta":49917502},{"NoteNumber":60,"Velocity":46,"Duration":434782,"SoundDuration":434782,"Delta":50337082},{"NoteNumber":67,"Velocity":59,"Duration":1762943,"SoundDuration":1762943,"Delta":50771865},{"NoteNumber":73,"Velocity":70,"Duration":839160,"SoundDuration":839160,"Delta":50771865},{"NoteNumber":51,"Velocity":32,"Duration":1762943,"SoundDuration":1762943,"Delta":50771865},{"NoteNumber":58,"Velocity":51,"Duration":419580,"SoundDuration":419580,"Delta":50771865},{"NoteNumber":60,"Velocity":44,"Duration":419580,"SoundDuration":419580,"Delta":51191445},{"NoteNumber":70,"Velocity":60,"Duration":923782,"SoundDuration":923782,"Delta":51611026},{"NoteNumber":61,"Velocity":44,"Duration":419580,"SoundDuration":419580,"Delta":51611026},{"NoteNumber":55,"Velocity":44,"Duration":483193,"SoundDuration":483193,"Delta":52030606},{"NoteNumber":61,"Velocity":59,"Duration":952381,"SoundDuration":952381,"Delta":52534808},{"NoteNumber":70,"Velocity":70,"Duration":1935769,"SoundDuration":1935769,"Delta":52534808},{"NoteNumber":44,"Velocity":32,"Duration":2880651,"SoundDuration":2880651,"Delta":52534808},{"NoteNumber":55,"Velocity":51,"Duration":1935769,"SoundDuration":1935769,"Delta":52534808},{"NoteNumber":60,"Velocity":34,"Duration":232558,"SoundDuration":232558,"Delta":53487189},{"NoteNumber":61,"Velocity":32,"Duration":232558,"SoundDuration":232558,"Delta":53719747},{"NoteNumber":63,"Velocity":36,"Duration":232558,"SoundDuration":232558,"Delta":53952305},{"NoteNumber":61,"Velocity":31,"Duration":285714,"SoundDuration":285714,"Delta":54184864},{"NoteNumber":60,"Velocity":37,"Duration":944881,"SoundDuration":944881,"Delta":54470578},{"NoteNumber":68,"Velocity":45,"Duration":944881,"SoundDuration":944881,"Delta":54470578},{"NoteNumber":56,"Velocity":31,"Duration":944881,"SoundDuration":944881,"Delta":54470578},{"NoteNumber":77,"Velocity":78,"Duration":163950,"SoundDuration":163950,"Delta":56301287},{"NoteNumber":89,"Velocity":91,"Duration":1258741,"SoundDuration":1258741,"Delta":56360342},{"NoteNumber":63,"Velocity":76,"Duration":1678322,"SoundDuration":1678322,"Delta":56360342},{"NoteNumber":65,"Velocity":76,"Duration":1674825,"SoundDuration":1674825,"Delta":56360342},{"NoteNumber":60,"Velocity":76,"Duration":1678322,"SoundDuration":1678322,"Delta":56360342},{"NoteNumber":57,"Velocity":76,"Duration":1678322,"SoundDuration":1678322,"Delta":56360342},{"NoteNumber":87,"Velocity":65,"Duration":61188,"SoundDuration":61188,"Delta":57619083},{"NoteNumber":84,"Velocity":63,"Duration":61188,"SoundDuration":61188,"Delta":57678524},{"NoteNumber":81,"Velocity":62,"Duration":59440,"SoundDuration":59440,"Delta":57739713},{"NoteNumber":77,"Velocity":61,"Duration":59440,"SoundDuration":59440,"Delta":57799153},{"NoteNumber":75,"Velocity":59,"Duration":61188,"SoundDuration":61188,"Delta":57858594},{"NoteNumber":72,"Velocity":57,"Duration":61188,"SoundDuration":61188,"Delta":57918035},{"NoteNumber":69,"Velocity":56,"Duration":61188,"SoundDuration":61188,"Delta":57977475},{"NoteNumber":65,"Velocity":78,"Duration":419580,"SoundDuration":419580,"Delta":58038664},{"NoteNumber":60,"Velocity":45,"Duration":190972,"SoundDuration":190972,"Delta":59541260},{"NoteNumber":63,"Velocity":54,"Duration":190972,"SoundDuration":190972,"Delta":59541260},{"NoteNumber":45,"Velocity":30,"Duration":190972,"SoundDuration":190972,"Delta":59541260},{"NoteNumber":53,"Velocity":36,"Duration":190972,"SoundDuration":190972,"Delta":59541260},{"NoteNumber":60,"Velocity":48,"Duration":1764705,"SoundDuration":1764705,"Delta":59749593},{"NoteNumber":63,"Velocity":57,"Duration":1764705,"SoundDuration":1764705,"Delta":59749593},{"NoteNumber":46,"Velocity":35,"Duration":2647058,"SoundDuration":2647058,"Delta":59749593},{"NoteNumber":53,"Velocity":41,"Duration":2647058,"SoundDuration":2647058,"Delta":59749593},{"NoteNumber":58,"Velocity":38,"Duration":882353,"SoundDuration":882353,"Delta":61514299},{"NoteNumber":61,"Velocity":45,"Duration":882353,"SoundDuration":882353,"Delta":61514299},{"NoteNumber":75,"Velocity":78,"Duration":160780,"SoundDuration":160780,"Delta":63223858},{"NoteNumber":87,"Velocity":91,"Duration":1267605,"SoundDuration":1267605,"Delta":63279005},{"NoteNumber":61,"Velocity":76,"Duration":1690139,"SoundDuration":1690139,"Delta":63279005},{"NoteNumber":63,"Velocity":76,"Duration":1686618,"SoundDuration":1686618,"Delta":63279005},{"NoteNumber":58,"Velocity":76,"Duration":1690139,"SoundDuration":1690139,"Delta":63279005},{"NoteNumber":55,"Velocity":76,"Duration":1690139,"SoundDuration":1690139,"Delta":63279005},{"NoteNumber":85,"Velocity":65,"Duration":61619,"SoundDuration":61619,"Delta":64546610},{"NoteNumber":82,"Velocity":63,"Duration":61619,"SoundDuration":61619,"Delta":64606469},{"NoteNumber":79,"Velocity":62,"Duration":59859,"SoundDuration":59859,"Delta":64668089},{"NoteNumber":75,"Velocity":61,"Duration":59859,"SoundDuration":59859,"Delta":64727948},{"NoteNumber":73,"Velocity":59,"Duration":61619,"SoundDuration":61619,"Delta":64787807},{"NoteNumber":70,"Velocity":57,"Duration":61619,"SoundDuration":61619,"Delta":64847666},{"NoteNumber":67,"Velocity":56,"Duration":61619,"SoundDuration":61619,"Delta":64907525},{"NoteNumber":63,"Velocity":78,"Duration":422534,"SoundDuration":422534,"Delta":64969145},{"NoteNumber":58,"Velocity":45,"Duration":195035,"SoundDuration":195035,"Delta":66509978},{"NoteNumber":61,"Velocity":54,"Duration":195035,"SoundDuration":195035,"Delta":66509978},{"NoteNumber":43,"Velocity":30,"Duration":195035,"SoundDuration":195035,"Delta":66509978},{"NoteNumber":51,"Velocity":36,"Duration":195035,"SoundDuration":195035,"Delta":66509978},{"NoteNumber":58,"Velocity":48,"Duration":1702128,"SoundDuration":1702128,"Delta":66722744},{"NoteNumber":61,"Velocity":57,"Duration":1702128,"SoundDuration":1702128,"Delta":66722744},{"NoteNumber":44,"Velocity":35,"Duration":2553192,"SoundDuration":2553192,"Delta":66722744},{"NoteNumber":51,"Velocity":41,"Duration":2553192,"SoundDuration":2553192,"Delta":66722744},{"NoteNumber":56,"Velocity":38,"Duration":851064,"SoundDuration":851064,"Delta":68424872},{"NoteNumber":60,"Velocity":45,"Duration":851064,"SoundDuration":851064,"Delta":68424872},{"NoteNumber":47,"Velocity":89,"Duration":160334,"SoundDuration":160334,"Delta":70073808},{"NoteNumber":59,"Velocity":92,"Duration":1270935,"SoundDuration":1270935,"Delta":70127000},{"NoteNumber":59,"Velocity":59,"Duration":68965,"SoundDuration":68965,"Delta":71397936},{"NoteNumber":56,"Velocity":57,"Duration":68965,"SoundDuration":68965,"Delta":71466901},{"NoteNumber":51,"Velocity":56,"Duration":68965,"SoundDuration":68965,"Delta":71537591},{"NoteNumber":47,"Velocity":56,"Duration":68965,"SoundDuration":68965,"Delta":71604832},{"NoteNumber":44,"Velocity":55,"Duration":68965,"SoundDuration":68965,"Delta":71675522},{"NoteNumber":39,"Velocity":53,"Duration":69027,"SoundDuration":69027,"Delta":71744488},{"NoteNumber":35,"Velocity":91,"Duration":428571,"SoundDuration":428571,"Delta":71811729},{"NoteNumber":51,"Velocity":69,"Duration":219999,"SoundDuration":219999,"Delta":73324586},{"NoteNumber":56,"Velocity":69,"Duration":219999,"SoundDuration":219999,"Delta":73324586},{"NoteNumber":63,"Velocity":69,"Duration":219999,"SoundDuration":219999,"Delta":73324586},{"NoteNumber":35,"Velocity":46,"Duration":219999,"SoundDuration":219999,"Delta":73324586},{"NoteNumber":47,"Velocity":46,"Duration":219999,"SoundDuration":219999,"Delta":73324586},{"NoteNumber":63,"Velocity":83,"Duration":1714286,"SoundDuration":1714286,"Delta":73564586},{"NoteNumber":56,"Velocity":59,"Duration":2571428,"SoundDuration":2571428,"Delta":73564586},{"NoteNumber":53,"Velocity":59,"Duration":2571428,"SoundDuration":2571428,"Delta":73564586},{"NoteNumber":34,"Velocity":59,"Duration":2571428,"SoundDuration":2571428,"Delta":73564586},{"NoteNumber":46,"Velocity":59,"Duration":2571428,"SoundDuration":2571428,"Delta":73564586},{"NoteNumber":62,"Velocity":46,"Duration":428571,"SoundDuration":428571,"Delta":75278872},{"NoteNumber":64,"Velocity":46,"Duration":450000,"SoundDuration":450000,"Delta":75707444},{"NoteNumber":65,"Velocity":54,"Duration":428571,"SoundDuration":428571,"Delta":76136015},{"NoteNumber":69,"Velocity":46,"Duration":449550,"SoundDuration":449550,"Delta":76564587},{"NoteNumber":70,"Velocity":54,"Duration":419580,"SoundDuration":419580,"Delta":76993158},{"NoteNumber":73,"Velocity":46,"Duration":440559,"SoundDuration":440559,"Delta":77412739},{"NoteNumber":74,"Velocity":55,"Duration":419580,"SoundDuration":419580,"Delta":77832319},{"NoteNumber":76,"Velocity":46,"Duration":440559,"SoundDuration":440559,"Delta":78251900},{"NoteNumber":77,"Velocity":55,"Duration":419580,"SoundDuration":419580,"Delta":78671480},{"NoteNumber":79,"Velocity":46,"Duration":449698,"SoundDuration":449698,"Delta":79091061},{"NoteNumber":80,"Velocity":55,"Duration":422534,"SoundDuration":422534,"Delta":79519632},{"NoteNumber":77,"Velocity":46,"Duration":441176,"SoundDuration":441176,"Delta":79942167},{"NoteNumber":74,"Velocity":55,"Duration":2097902,"SoundDuration":2097902,"Delta":80383344},{"NoteNumber":58,"Velocity":35,"Duration":797202,"SoundDuration":797202,"Delta":80383344},{"NoteNumber":56,"Velocity":29,"Duration":797202,"SoundDuration":797202,"Delta":80383344},{"NoteNumber":58,"Velocity":30,"Duration":797202,"SoundDuration":797202,"Delta":81222505},{"NoteNumber":56,"Velocity":25,"Duration":797202,"SoundDuration":797202,"Delta":81222505},{"NoteNumber":58,"Velocity":30,"Duration":797202,"SoundDuration":797202,"Delta":82061666},{"NoteNumber":56,"Velocity":25,"Duration":797202,"SoundDuration":797202,"Delta":82061666},{"NoteNumber":75,"Velocity":50,"Duration":104895,"SoundDuration":104895,"Delta":82481246},{"NoteNumber":74,"Velocity":50,"Duration":104895,"SoundDuration":104895,"Delta":82586141},{"NoteNumber":72,"Velocity":50,"Duration":104895,"SoundDuration":104895,"Delta":82691037},{"NoteNumber":74,"Velocity":50,"Duration":104895,"SoundDuration":104895,"Delta":82795932},{"NoteNumber":75,"Velocity":55,"Duration":637112,"SoundDuration":637112,"Delta":82900827},{"NoteNumber":58,"Velocity":30,"Duration":823158,"SoundDuration":823158,"Delta":82900827},{"NoteNumber":56,"Velocity":25,"Duration":823158,"SoundDuration":823158,"Delta":82900827},{"NoteNumber":77,"Velocity":55,"Duration":213178,"SoundDuration":213178,"Delta":83537939},{"NoteNumber":77,"Velocity":55,"Duration":863309,"SoundDuration":863309,"Delta":83770497},{"NoteNumber":58,"Velocity":35,"Duration":820143,"SoundDuration":820143,"Delta":83770497},{"NoteNumber":55,"Velocity":29,"Duration":820143,"SoundDuration":820143,"Delta":83770497},{"NoteNumber":75,"Velocity":55,"Duration":1666666,"SoundDuration":1666666,"Delta":84633806},{"NoteNumber":58,"Velocity":28,"Duration":791666,"SoundDuration":791666,"Delta":84633806},{"NoteNumber":55,"Velocity":23,"Duration":791666,"SoundDuration":791666,"Delta":84633806},{"NoteNumber":58,"Velocity":28,"Duration":791666,"SoundDuration":791666,"Delta":85467139},{"NoteNumber":55,"Velocity":23,"Duration":791666,"SoundDuration":791666,"Delta":85467139},{"NoteNumber":76,"Velocity":55,"Duration":864427,"SoundDuration":864427,"Delta":86300472},{"NoteNumber":58,"Velocity":28,"Duration":819651,"SoundDuration":819651,"Delta":86300472},{"NoteNumber":55,"Velocity":23,"Duration":819651,"SoundDuration":819651,"Delta":86300472},{"NoteNumber":77,"Velocity":55,"Duration":2133866,"SoundDuration":2133866,"Delta":87164900},{"NoteNumber":50,"Velocity":29,"Duration":814285,"SoundDuration":814285,"Delta":87164900},{"NoteNumber":58,"Velocity":35,"Duration":814285,"SoundDuration":814285,"Delta":87164900},{"NoteNumber":56,"Velocity":29,"Duration":814285,"SoundDuration":814285,"Delta":87164900},{"NoteNumber":50,"Velocity":27,"Duration":814285,"SoundDuration":814285,"Delta":88022043},{"NoteNumber":58,"Velocity":33,"Duration":814285,"SoundDuration":814285,"Delta":88022043},{"NoteNumber":56,"Velocity":27,"Duration":814285,"SoundDuration":814285,"Delta":88022043},{"NoteNumber":50,"Velocity":27,"Duration":805294,"SoundDuration":805294,"Delta":88879186},{"NoteNumber":58,"Velocity":33,"Duration":805294,"SoundDuration":805294,"Delta":88879186},{"NoteNumber":56,"Velocity":27,"Duration":805294,"SoundDuration":805294,"Delta":88879186},{"NoteNumber":79,"Velocity":50,"Duration":107142,"SoundDuration":107142,"Delta":89298766},{"NoteNumber":77,"Velocity":47,"Duration":107142,"SoundDuration":107142,"Delta":89405909},{"NoteNumber":75,"Velocity":49,"Duration":107142,"SoundDuration":107142,"Delta":89513052},{"NoteNumber":77,"Velocity":51,"Duration":107142,"SoundDuration":107142,"Delta":89620195},{"NoteNumber":79,"Velocity":53,"Duration":624999,"SoundDuration":624999,"Delta":89727338},{"NoteNumber":55,"Velocity":46,"Duration":624999,"SoundDuration":624999,"Delta":89727338},{"NoteNumber":50,"Velocity":25,"Duration":857557,"SoundDuration":857557,"Delta":89727338},{"NoteNumber":58,"Velocity":30,"Duration":857557,"SoundDuration":857557,"Delta":89727338},{"NoteNumber":80,"Velocity":60,"Duration":213178,"SoundDuration":213178,"Delta":90352338},{"NoteNumber":53,"Velocity":46,"Duration":213178,"SoundDuration":213178,"Delta":90352338},{"NoteNumber":80,"Velocity":58,"Duration":857142,"SoundDuration":857142,"Delta":90584896},{"NoteNumber":51,"Velocity":29,"Duration":814285,"SoundDuration":814285,"Delta":90584896},{"NoteNumber":58,"Velocity":35,"Duration":814285,"SoundDuration":814285,"Delta":90584896},{"NoteNumber":54,"Velocity":29,"Duration":814285,"SoundDuration":814285,"Delta":90584896},{"NoteNumber":79,"Velocity":55,"Duration":857143,"SoundDuration":857143,"Delta":91442039},{"NoteNumber":51,"Velocity":23,"Duration":814285,"SoundDuration":814285,"Delta":91442039},{"NoteNumber":58,"Velocity":28,"Duration":814285,"SoundDuration":814285,"Delta":91442039},{"NoteNumber":55,"Velocity":23,"Duration":814285,"SoundDuration":814285,"Delta":91442039},{"NoteNumber":51,"Velocity":23,"Duration":814285,"SoundDuration":814285,"Delta":92299182},{"NoteNumber":58,"Velocity":28,"Duration":814285,"SoundDuration":814285,"Delta":92299182},{"NoteNumber":55,"Velocity":23,"Duration":814285,"SoundDuration":814285,"Delta":92299182},{"NoteNumber":51,"Velocity":28,"Duration":814285,"SoundDuration":814285,"Delta":93156325},{"NoteNumber":58,"Velocity":28,"Duration":814285,"SoundDuration":814285,"Delta":93156325},{"NoteNumber":55,"Velocity":23,"Duration":814285,"SoundDuration":814285,"Delta":93156325},{"NoteNumber":56,"Velocity":25,"Duration":901755,"SoundDuration":901755,"Delta":94014467},{"NoteNumber":58,"Velocity":30,"Duration":901755,"SoundDuration":901755,"Delta":94014467},{"NoteNumber":62,"Velocity":30,"Duration":83475,"SoundDuration":83475,"Delta":94099123},{"NoteNumber":63,"Velocity":30,"Duration":82492,"SoundDuration":82492,"Delta":94184665},{"NoteNumber":65,"Velocity":41,"Duration":81287,"SoundDuration":81287,"Delta":94267157},{"NoteNumber":63,"Velocity":33,"Duration":80145,"SoundDuration":80145,"Delta":94348444},{"NoteNumber":62,"Velocity":33,"Duration":79257,"SoundDuration":79257,"Delta":94428589},{"NoteNumber":68,"Velocity":42,"Duration":77974,"SoundDuration":77974,"Delta":94507847},{"NoteNumber":67,"Velocity":34,"Duration":77265,"SoundDuration":77265,"Delta":94585821},{"NoteNumber":65,"Velocity":34,"Duration":76090,"SoundDuration":76090,"Delta":94663087},{"NoteNumber":74,"Velocity":51,"Duration":75159,"SoundDuration":75159,"Delta":94741072},{"NoteNumber":72,"Velocity":37,"Duration":74254,"SoundDuration":74254,"Delta":94816232},{"NoteNumber":70,"Velocity":36,"Duration":73207,"SoundDuration":73207,"Delta":94890486},{"NoteNumber":77,"Velocity":57,"Duration":72610,"SoundDuration":72610,"Delta":94960044},{"NoteNumber":56,"Velocity":25,"Duration":922464,"SoundDuration":922464,"Delta":94960044},{"NoteNumber":58,"Velocity":30,"Duration":922464,"SoundDuration":922464,"Delta":94960044},{"NoteNumber":75,"Velocity":41,"Duration":71532,"SoundDuration":71532,"Delta":95032654},{"NoteNumber":74,"Velocity":44,"Duration":70921,"SoundDuration":70921,"Delta":95104187},{"NoteNumber":80,"Velocity":59,"Duration":84745,"SoundDuration":84745,"Delta":95175109},{"NoteNumber":79,"Velocity":46,"Duration":109039,"SoundDuration":109039,"Delta":95259854},{"NoteNumber":77,"Velocity":48,"Duration":133333,"SoundDuration":133333,"Delta":95368894},{"NoteNumber":84,"Velocity":70,"Duration":1693046,"SoundDuration":1693046,"Delta":95502227},{"NoteNumber":56,"Velocity":25,"Duration":802816,"SoundDuration":802816,"Delta":95924762},{"NoteNumber":58,"Velocity":30,"Duration":802816,"SoundDuration":802816,"Delta":95924762},{"NoteNumber":56,"Velocity":25,"Duration":854012,"SoundDuration":854012,"Delta":96769832},{"NoteNumber":58,"Velocity":30,"Duration":854012,"SoundDuration":854012,"Delta":96769832},{"NoteNumber":84,"Velocity":54,"Duration":67460,"SoundDuration":67460,"Delta":97195274},{"NoteNumber":82,"Velocity":53,"Duration":67460,"SoundDuration":67460,"Delta":97262734},{"NoteNumber":80,"Velocity":52,"Duration":67460,"SoundDuration":67460,"Delta":97332178},{"NoteNumber":79,"Velocity":52,"Duration":67460,"SoundDuration":67460,"Delta":97399639},{"NoteNumber":77,"Velocity":51,"Duration":67460,"SoundDuration":67460,"Delta":97467099},{"NoteNumber":75,"Velocity":50,"Duration":67460,"SoundDuration":67460,"Delta":97534559},{"NoteNumber":74,"Velocity":49,"Duration":67460,"SoundDuration":67460,"Delta":97602020},{"NoteNumber":77,"Velocity":56,"Duration":652173,"SoundDuration":652173,"Delta":97671464},{"NoteNumber":75,"Velocity":40,"Duration":217391,"SoundDuration":217391,"Delta":98323638},{"NoteNumber":74,"Velocity":43,"Duration":326086,"SoundDuration":326086,"Delta":98541029},{"NoteNumber":55,"Velocity":25,"Duration":848895,"SoundDuration":848895,"Delta":98541029},{"NoteNumber":58,"Velocity":30,"Duration":848895,"SoundDuration":848895,"Delta":98541029},{"NoteNumber":75,"Velocity":40,"Duration":108695,"SoundDuration":108695,"Delta":98867116},{"NoteNumber":77,"Velocity":47,"Duration":340342,"SoundDuration":340342,"Delta":98975812},{"NoteNumber":75,"Velocity":41,"Duration":122950,"SoundDuration":122950,"Delta":99316154},{"NoteNumber":63,"Velocity":52,"Duration":863309,"SoundDuration":863309,"Delta":99439105},{"NoteNumber":55,"Velocity":25,"Duration":820143,"SoundDuration":820143,"Delta":99439105},{"NoteNumber":58,"Velocity":30,"Duration":820143,"SoundDuration":820143,"Delta":99439105},{"NoteNumber":55,"Velocity":25,"Duration":820143,"SoundDuration":820143,"Delta":100302414},{"NoteNumber":58,"Velocity":30,"Duration":820143,"SoundDuration":820143,"Delta":100302414},{"NoteNumber":50,"Velocity":25,"Duration":901755,"SoundDuration":901755,"Delta":101165723},{"NoteNumber":56,"Velocity":25,"Duration":901755,"SoundDuration":901755,"Delta":101165723},{"NoteNumber":58,"Velocity":30,"Duration":901755,"SoundDuration":901755,"Delta":101165723},{"NoteNumber":65,"Velocity":30,"Duration":83475,"SoundDuration":83475,"Delta":101250379},{"NoteNumber":67,"Velocity":30,"Duration":82492,"SoundDuration":82492,"Delta":101335921},{"NoteNumber":68,"Velocity":41,"Duration":81287,"SoundDuration":81287,"Delta":101418413},{"NoteNumber":67,"Velocity":33,"Duration":80145,"SoundDuration":80145,"Delta":101499700},{"NoteNumber":65,"Velocity":33,"Duration":79257,"SoundDuration":79257,"Delta":101579845},{"NoteNumber":74,"Velocity":42,"Duration":77974,"SoundDuration":77974,"Delta":101659103},{"NoteNumber":72,"Velocity":34,"Duration":77265,"SoundDuration":77265,"Delta":101737077},{"NoteNumber":70,"Velocity":34,"Duration":76090,"SoundDuration":76090,"Delta":101814343},{"NoteNumber":77,"Velocity":51,"Duration":75159,"SoundDuration":75159,"Delta":101892328},{"NoteNumber":75,"Velocity":37,"Duration":74254,"SoundDuration":74254,"Delta":101967488},{"NoteNumber":74,"Velocity":36,"Duration":73207,"SoundDuration":73207,"Delta":102041742},{"NoteNumber":80,"Velocity":57,"Duration":72610,"SoundDuration":72610,"Delta":102111300},{"NoteNumber":50,"Velocity":25,"Duration":888885,"SoundDuration":888885,"Delta":102111300},{"NoteNumber":53,"Velocity":25,"Duration":888885,"SoundDuration":888885,"Delta":102111300},{"NoteNumber":56,"Velocity":25,"Duration":888885,"SoundDuration":888885,"Delta":102111300},{"NoteNumber":58,"Velocity":30,"Duration":888885,"SoundDuration":888885,"Delta":102111300},{"NoteNumber":79,"Velocity":41,"Duration":71532,"SoundDuration":71532,"Delta":102183910},{"NoteNumber":77,"Velocity":44,"Duration":70921,"SoundDuration":70921,"Delta":102255443},{"NoteNumber":86,"Velocity":59,"Duration":83333,"SoundDuration":83333,"Delta":102326365},{"NoteNumber":84,"Velocity":46,"Duration":97846,"SoundDuration":97846,"Delta":102409698},{"NoteNumber":82,"Velocity":48,"Duration":112359,"SoundDuration":112359,"Delta":102507545},{"NoteNumber":89,"Velocity":69,"Duration":1693046,"SoundDuration":1693046,"Delta":102619904},{"NoteNumber":50,"Velocity":25,"Duration":802816,"SoundDuration":802816,"Delta":103042439},{"NoteNumber":53,"Velocity":25,"Duration":802816,"SoundDuration":802816,"Delta":103042439},{"NoteNumber":56,"Velocity":25,"Duration":802816,"SoundDuration":802816,"Delta":103042439},{"NoteNumber":58,"Velocity":30,"Duration":802816,"SoundDuration":802816,"Delta":103042439},{"NoteNumber":50,"Velocity":25,"Duration":854012,"SoundDuration":854012,"Delta":103887509},{"NoteNumber":53,"Velocity":25,"Duration":854012,"SoundDuration":854012,"Delta":103887509},{"NoteNumber":56,"Velocity":25,"Duration":854012,"SoundDuration":854012,"Delta":103887509},{"NoteNumber":58,"Velocity":30,"Duration":854012,"SoundDuration":854012,"Delta":103887509},{"NoteNumber":89,"Velocity":54,"Duration":77380,"SoundDuration":77380,"Delta":104312950},{"NoteNumber":87,"Velocity":53,"Duration":77380,"SoundDuration":77380,"Delta":104390331},{"NoteNumber":86,"Velocity":52,"Duration":77380,"SoundDuration":77380,"Delta":104467712},{"NoteNumber":84,"Velocity":52,"Duration":77380,"SoundDuration":77380,"Delta":104545093},{"NoteNumber":82,"Velocity":51,"Duration":77380,"SoundDuration":77380,"Delta":104622474},{"NoteNumber":80,"Velocity":50,"Duration":77380,"SoundDuration":77380,"Delta":104699855},{"NoteNumber":79,"Velocity":62,"Duration":1277117,"SoundDuration":1277117,"Delta":104789141},{"NoteNumber":51,"Velocity":30,"Duration":875911,"SoundDuration":875911,"Delta":105628302},{"NoteNumber":55,"Velocity":30,"Duration":875911,"SoundDuration":875911,"Delta":105628302},{"NoteNumber":58,"Velocity":30,"Duration":875911,"SoundDuration":875911,"Delta":105628302},{"NoteNumber":79,"Velocity":64,"Duration":218977,"SoundDuration":218977,"Delta":106285236},{"NoteNumber":80,"Velocity":71,"Duration":1280337,"SoundDuration":1280337,"Delta":106504214},{"NoteNumber":53,"Velocity":32,"Duration":882352,"SoundDuration":882352,"Delta":107343375},{"NoteNumber":56,"Velocity":32,"Duration":882352,"SoundDuration":882352,"Delta":107343375},{"NoteNumber":58,"Velocity":32,"Duration":882352,"SoundDuration":882352,"Delta":107343375},{"NoteNumber":62,"Velocity":32,"Duration":882352,"SoundDuration":882352,"Delta":107343375},{"NoteNumber":80,"Velocity":71,"Duration":220588,"SoundDuration":220588,"Delta":108005140},{"NoteNumber":82,"Velocity":81,"Duration":1268762,"SoundDuration":1268762,"Delta":108225728},{"NoteNumber":55,"Velocity":37,"Duration":882352,"SoundDuration":882352,"Delta":109053314},{"NoteNumber":58,"Velocity":37,"Duration":882352,"SoundDuration":882352,"Delta":109053314},{"NoteNumber":63,"Velocity":37,"Duration":882352,"SoundDuration":882352,"Delta":109053314},{"NoteNumber":82,"Velocity":78,"Duration":220588,"SoundDuration":220588,"Delta":109715079},{"NoteNumber":83,"Velocity":89,"Duration":1268762,"SoundDuration":1268762,"Delta":109935667},{"NoteNumber":55,"Velocity":43,"Duration":882352,"SoundDuration":882352,"Delta":110763253},{"NoteNumber":59,"Velocity":43,"Duration":882352,"SoundDuration":882352,"Delta":110763253},{"NoteNumber":63,"Velocity":43,"Duration":882352,"SoundDuration":882352,"Delta":110763253},{"NoteNumber":83,"Velocity":84,"Duration":220588,"SoundDuration":220588,"Delta":111425018},{"NoteNumber":84,"Velocity":92,"Duration":1259240,"SoundDuration":1259240,"Delta":111645606},{"NoteNumber":56,"Velocity":51,"Duration":863309,"SoundDuration":863309,"Delta":112473192},{"NoteNumber":60,"Velocity":51,"Duration":863309,"SoundDuration":863309,"Delta":112473192},{"NoteNumber":63,"Velocity":51,"Duration":863309,"SoundDuration":863309,"Delta":112473192},{"NoteNumber":84,"Velocity":90,"Duration":215827,"SoundDuration":215827,"Delta":113120674},{"NoteNumber":86,"Velocity":96,"Duration":1311602,"SoundDuration":1311602,"Delta":113336501},{"NoteNumber":59,"Velocity":60,"Duration":944882,"SoundDuration":944882,"Delta":114175662},{"NoteNumber":56,"Velocity":60,"Duration":944882,"SoundDuration":944882,"Delta":114175662},{"NoteNumber":62,"Velocity":60,"Duration":944882,"SoundDuration":944882,"Delta":114175662},{"NoteNumber":65,"Velocity":60,"Duration":944882,"SoundDuration":944882,"Delta":114175662},{"NoteNumber":86,"Velocity":99,"Duration":236220,"SoundDuration":236220,"Delta":114884323},{"NoteNumber":87,"Velocity":103,"Duration":1276595,"SoundDuration":1276595,"Delta":115120544},{"NoteNumber":57,"Velocity":60,"Duration":897973,"SoundDuration":897973,"Delta":115971608},{"NoteNumber":60,"Velocity":60,"Duration":897973,"SoundDuration":897973,"Delta":115971608},{"NoteNumber":63,"Velocity":60,"Duration":897973,"SoundDuration":897973,"Delta":115971608},{"NoteNumber":66,"Velocity":60,"Duration":897973,"SoundDuration":897973,"Delta":115971608},{"NoteNumber":89,"Velocity":94,"Duration":59055,"SoundDuration":59055,"Delta":116633360},{"NoteNumber":87,"Velocity":94,"Duration":59055,"SoundDuration":59055,"Delta":116692416},{"NoteNumber":86,"Velocity":94,"Duration":59055,"SoundDuration":59055,"Delta":116751471},{"NoteNumber":87,"Velocity":94,"Duration":59055,"SoundDuration":59055,"Delta":116810526},{"NoteNumber":89,"Velocity":107,"Duration":419580,"SoundDuration":419580,"Delta":116869581},{"NoteNumber":87,"Velocity":90,"Duration":419580,"SoundDuration":419580,"Delta":117289161},{"NoteNumber":86,"Velocity":74,"Duration":321428,"SoundDuration":321428,"Delta":117708742},{"NoteNumber":84,"Velocity":67,"Duration":321428,"SoundDuration":321428,"Delta":118137313},{"NoteNumber":82,"Velocity":60,"Duration":419580,"SoundDuration":419580,"Delta":118565885},{"NoteNumber":81,"Velocity":55,"Duration":441176,"SoundDuration":441176,"Delta":118985465},{"NoteNumber":84,"Velocity":60,"Duration":419580,"SoundDuration":419580,"Delta":119426642},{"NoteNumber":67,"Velocity":36,"Duration":874125,"SoundDuration":874125,"Delta":119426642},{"NoteNumber":63,"Velocity":30,"Duration":874125,"SoundDuration":874125,"Delta":119426642},{"NoteNumber":58,"Velocity":27,"Duration":874125,"SoundDuration":874125,"Delta":119426642},{"NoteNumber":82,"Velocity":55,"Duration":454545,"SoundDuration":454545,"Delta":119846222},{"NoteNumber":80,"Velocity":60,"Duration":416666,"SoundDuration":416666,"Delta":120300768},{"NoteNumber":79,"Velocity":56,"Duration":416666,"SoundDuration":416666,"Delta":120717434},{"NoteNumber":77,"Velocity":60,"Duration":416666,"SoundDuration":416666,"Delta":121134101},{"NoteNumber":68,"Velocity":36,"Duration":885416,"SoundDuration":885416,"Delta":121134101},{"NoteNumber":62,"Velocity":31,"Duration":885416,"SoundDuration":885416,"Delta":121134101},{"NoteNumber":58,"Velocity":27,"Duration":885416,"SoundDuration":885416,"Delta":121134101},{"NoteNumber":82,"Velocity":57,"Duration":468750,"SoundDuration":468750,"Delta":121550767},{"NoteNumber":78,"Velocity":60,"Duration":296296,"SoundDuration":296296,"Delta":122019517},{"NoteNumber":79,"Velocity":51,"Duration":291005,"SoundDuration":291005,"Delta":122315814},{"NoteNumber":67,"Velocity":43,"Duration":285714,"SoundDuration":285714,"Delta":122606819},{"NoteNumber":63,"Velocity":32,"Duration":285714,"SoundDuration":285714,"Delta":122606819},{"NoteNumber":58,"Velocity":39,"Duration":285714,"SoundDuration":285714,"Delta":122892533},{"NoteNumber":79,"Velocity":60,"Duration":270270,"SoundDuration":270270,"Delta":123178248},{"NoteNumber":55,"Velocity":32,"Duration":270270,"SoundDuration":270270,"Delta":123178248},{"NoteNumber":67,"Velocity":52,"Duration":300752,"SoundDuration":300752,"Delta":123448518},{"NoteNumber":51,"Velocity":32,"Duration":300752,"SoundDuration":300752,"Delta":123448518},{"NoteNumber":79,"Velocity":60,"Duration":285714,"SoundDuration":285714,"Delta":123749270},{"NoteNumber":80,"Velocity":51,"Duration":285714,"SoundDuration":285714,"Delta":124034984},{"NoteNumber":68,"Velocity":43,"Duration":285714,"SoundDuration":285714,"Delta":124320699},{"NoteNumber":65,"Velocity":34,"Duration":285714,"SoundDuration":285714,"Delta":124320699},{"NoteNumber":62,"Velocity":39,"Duration":285714,"SoundDuration":285714,"Delta":124606413},{"NoteNumber":80,"Velocity":60,"Duration":270270,"SoundDuration":270270,"Delta":124892127},{"NoteNumber":58,"Velocity":33,"Duration":270270,"SoundDuration":270270,"Delta":124892127},{"NoteNumber":68,"Velocity":54,"Duration":300752,"SoundDuration":300752,"Delta":125162398},{"NoteNumber":53,"Velocity":33,"Duration":300752,"SoundDuration":300752,"Delta":125162398},{"NoteNumber":81,"Velocity":60,"Duration":285714,"SoundDuration":285714,"Delta":125463150},{"NoteNumber":82,"Velocity":51,"Duration":285714,"SoundDuration":285714,"Delta":125748864},{"NoteNumber":70,"Velocity":44,"Duration":285714,"SoundDuration":285714,"Delta":126034578},{"NoteNumber":67,"Velocity":33,"Duration":285714,"SoundDuration":285714,"Delta":126034578},{"NoteNumber":63,"Velocity":40,"Duration":285714,"SoundDuration":285714,"Delta":126320293},{"NoteNumber":82,"Velocity":64,"Duration":270270,"SoundDuration":270270,"Delta":126606007},{"NoteNumber":58,"Velocity":34,"Duration":270270,"SoundDuration":270270,"Delta":126606007},{"NoteNumber":70,"Velocity":56,"Duration":300752,"SoundDuration":300752,"Delta":126876277},{"NoteNumber":55,"Velocity":34,"Duration":300752,"SoundDuration":300752,"Delta":126876277},{"NoteNumber":82,"Velocity":66,"Duration":285714,"SoundDuration":285714,"Delta":127177029},{"NoteNumber":83,"Velocity":63,"Duration":285714,"SoundDuration":285714,"Delta":127462744},{"NoteNumber":71,"Velocity":58,"Duration":285714,"SoundDuration":285714,"Delta":127748458},{"NoteNumber":67,"Velocity":46,"Duration":285714,"SoundDuration":285714,"Delta":127748458},{"NoteNumber":63,"Velocity":53,"Duration":285714,"SoundDuration":285714,"Delta":128034172},{"NoteNumber":83,"Velocity":70,"Duration":270270,"SoundDuration":270270,"Delta":128319887},{"NoteNumber":59,"Velocity":46,"Duration":270270,"SoundDuration":270270,"Delta":128319887},{"NoteNumber":71,"Velocity":64,"Duration":300752,"SoundDuration":300752,"Delta":128590157},{"NoteNumber":55,"Velocity":46,"Duration":300752,"SoundDuration":300752,"Delta":128590157},{"NoteNumber":83,"Velocity":73,"Duration":285714,"SoundDuration":285714,"Delta":128890909},{"NoteNumber":84,"Velocity":70,"Duration":285714,"SoundDuration":285714,"Delta":129176623},{"NoteNumber":72,"Velocity":63,"Duration":285714,"SoundDuration":285714,"Delta":129462338},{"NoteNumber":68,"Velocity":47,"Duration":285714,"SoundDuration":285714,"Delta":129462338},{"NoteNumber":63,"Velocity":58,"Duration":285714,"SoundDuration":285714,"Delta":129748052},{"NoteNumber":84,"Velocity":77,"Duration":270270,"SoundDuration":270270,"Delta":130033766},{"NoteNumber":60,"Velocity":49,"Duration":270270,"SoundDuration":270270,"Delta":130033766},{"NoteNumber":72,"Velocity":68,"Duration":300752,"SoundDuration":300752,"Delta":130304037},{"NoteNumber":56,"Velocity":49,"Duration":300752,"SoundDuration":300752,"Delta":130304037},{"NoteNumber":85,"Velocity":79,"Duration":285714,"SoundDuration":285714,"Delta":130604789},{"NoteNumber":86,"Velocity":77,"Duration":285714,"SoundDuration":285714,"Delta":130890503},{"NoteNumber":74,"Velocity":69,"Duration":285714,"SoundDuration":285714,"Delta":131176217},{"NoteNumber":68,"Velocity":56,"Duration":285714,"SoundDuration":285714,"Delta":131176217},{"NoteNumber":65,"Velocity":63,"Duration":285714,"SoundDuration":285714,"Delta":131461932},{"NoteNumber":86,"Velocity":84,"Duration":270270,"SoundDuration":270270,"Delta":131747646},{"NoteNumber":62,"Velocity":54,"Duration":270270,"SoundDuration":270270,"Delta":131747646},{"NoteNumber":74,"Velocity":76,"Duration":300752,"SoundDuration":300752,"Delta":132017916},{"NoteNumber":58,"Velocity":55,"Duration":300752,"SoundDuration":300752,"Delta":132017916},{"NoteNumber":86,"Velocity":86,"Duration":285714,"SoundDuration":285714,"Delta":132318668},{"NoteNumber":87,"Velocity":81,"Duration":285714,"SoundDuration":285714,"Delta":132604383},{"NoteNumber":75,"Velocity":75,"Duration":285714,"SoundDuration":285714,"Delta":132890097},{"NoteNumber":69,"Velocity":78,"Duration":2902058,"SoundDuration":2902058,"Delta":132890097},{"NoteNumber":66,"Velocity":57,"Duration":2616344,"SoundDuration":2616344,"Delta":133175811},{"NoteNumber":87,"Velocity":87,"Duration":285714,"SoundDuration":285714,"Delta":133461526},{"NoteNumber":63,"Velocity":61,"Duration":2330630,"SoundDuration":2330630,"Delta":133461526},{"NoteNumber":75,"Velocity":81,"Duration":312500,"SoundDuration":312500,"Delta":133747240},{"NoteNumber":59,"Velocity":65,"Duration":2044915,"SoundDuration":2044915,"Delta":133747240},{"NoteNumber":87,"Velocity":87,"Duration":275862,"SoundDuration":275862,"Delta":134059740},{"NoteNumber":78,"Velocity":79,"Duration":296296,"SoundDuration":296296,"Delta":134335602},{"NoteNumber":87,"Velocity":87,"Duration":275862,"SoundDuration":275862,"Delta":134631898},{"NoteNumber":81,"Velocity":79,"Duration":294117,"SoundDuration":294117,"Delta":134907760},{"NoteNumber":87,"Velocity":86,"Duration":277777,"SoundDuration":277777,"Delta":135201878},{"NoteNumber":81,"Velocity":79,"Duration":312500,"SoundDuration":312500,"Delta":135479656},{"NoteNumber":82,"Velocity":88,"Duration":2041823,"SoundDuration":2041823,"Delta":135792156},{"NoteNumber":46,"Velocity":64,"Duration":142857,"SoundDuration":142857,"Delta":136104656},{"NoteNumber":51,"Velocity":64,"Duration":142857,"SoundDuration":142857,"Delta":136390370},{"NoteNumber":55,"Velocity":64,"Duration":142857,"SoundDuration":142857,"Delta":136676084},{"NoteNumber":58,"Velocity":58,"Duration":142857,"SoundDuration":142857,"Delta":136961799},{"NoteNumber":63,"Velocity":58,"Duration":142857,"SoundDuration":142857,"Delta":137247513},{"NoteNumber":67,"Velocity":64,"Duration":300752,"SoundDuration":300752,"Delta":137533227},{"NoteNumber":81,"Velocity":79,"Duration":285714,"SoundDuration":285714,"Delta":137833979},{"NoteNumber":66,"Velocity":58,"Duration":285714,"SoundDuration":285714,"Delta":137833979},{"NoteNumber":84,"Velocity":79,"Duration":285714,"SoundDuration":285714,"Delta":138119694},{"NoteNumber":68,"Velocity":58,"Duration":285714,"SoundDuration":285714,"Delta":138119694},{"NoteNumber":82,"Velocity":85,"Duration":214285,"SoundDuration":214285,"Delta":138405408},{"NoteNumber":67,"Velocity":64,"Duration":214285,"SoundDuration":214285,"Delta":138405408},{"NoteNumber":80,"Velocity":79,"Duration":214285,"SoundDuration":214285,"Delta":138691122},{"NoteNumber":65,"Velocity":59,"Duration":214285,"SoundDuration":214285,"Delta":138691122},{"NoteNumber":79,"Velocity":79,"Duration":234375,"SoundDuration":234375,"Delta":138976837},{"NoteNumber":63,"Velocity":59,"Duration":234375,"SoundDuration":234375,"Delta":138976837},{"NoteNumber":75,"Velocity":79,"Duration":1702917,"SoundDuration":1702917,"Delta":139289337},{"NoteNumber":77,"Velocity":79,"Duration":1472148,"SoundDuration":1472148,"Delta":139289337},{"NoteNumber":68,"Velocity":62,"Duration":3335571,"SoundDuration":3335571,"Delta":139289337},{"NoteNumber":58,"Velocity":52,"Duration":3335571,"SoundDuration":3335571,"Delta":139289337},{"NoteNumber":77,"Velocity":74,"Duration":46153,"SoundDuration":46153,"Delta":140761485},{"NoteNumber":79,"Velocity":68,"Duration":46153,"SoundDuration":46153,"Delta":140807639},{"NoteNumber":77,"Velocity":74,"Duration":46153,"SoundDuration":46153,"Delta":140853793},{"NoteNumber":76,"Velocity":66,"Duration":46153,"SoundDuration":46153,"Delta":140899947},{"NoteNumber":77,"Velocity":67,"Duration":46153,"SoundDuration":46153,"Delta":140946100},{"NoteNumber":74,"Velocity":79,"Duration":1632654,"SoundDuration":1632654,"Delta":140992254},{"NoteNumber":82,"Velocity":79,"Duration":1428572,"SoundDuration":1428572,"Delta":140992254},{"NoteNumber":82,"Velocity":79,"Duration":204081,"SoundDuration":204081,"Delta":142420827},{"NoteNumber":67,"Velocity":74,"Duration":843537,"SoundDuration":843537,"Delta":142624908},{"NoteNumber":75,"Velocity":85,"Duration":843537,"SoundDuration":843537,"Delta":142624908},{"NoteNumber":34,"Velocity":64,"Duration":142857,"SoundDuration":142857,"Delta":142897017},{"NoteNumber":39,"Velocity":64,"Duration":142857,"SoundDuration":142857,"Delta":143182732},{"NoteNumber":43,"Velocity":64,"Duration":142857,"SoundDuration":142857,"Delta":143468446},{"NoteNumber":46,"Velocity":58,"Duration":142857,"SoundDuration":142857,"Delta":143754160},{"NoteNumber":51,"Velocity":58,"Duration":142857,"SoundDuration":142857,"Delta":144039875},{"NoteNumber":55,"Velocity":64,"Duration":300752,"SoundDuration":300752,"Delta":144325589},{"NoteNumber":69,"Velocity":79,"Duration":285714,"SoundDuration":285714,"Delta":144626341},{"NoteNumber":54,"Velocity":58,"Duration":285714,"SoundDuration":285714,"Delta":144626341},{"NoteNumber":72,"Velocity":79,"Duration":285714,"SoundDuration":285714,"Delta":144912055},{"NoteNumber":56,"Velocity":58,"Duration":285714,"SoundDuration":285714,"Delta":144912055},{"NoteNumber":70,"Velocity":85,"Duration":214285,"SoundDuration":214285,"Delta":145197770},{"NoteNumber":55,"Velocity":64,"Duration":214285,"SoundDuration":214285,"Delta":145197770},{"NoteNumber":68,"Velocity":79,"Duration":214285,"SoundDuration":214285,"Delta":145483484},{"NoteNumber":53,"Velocity":59,"Duration":214285,"SoundDuration":214285,"Delta":145483484},{"NoteNumber":67,"Velocity":79,"Duration":234375,"SoundDuration":234375,"Delta":145769198},{"NoteNumber":51,"Velocity":59,"Duration":234375,"SoundDuration":234375,"Delta":145769198},{"NoteNumber":63,"Velocity":79,"Duration":1702917,"SoundDuration":1702917,"Delta":146081698},{"NoteNumber":65,"Velocity":79,"Duration":1472148,"SoundDuration":1472148,"Delta":146081698},{"NoteNumber":56,"Velocity":62,"Duration":3335571,"SoundDuration":3335571,"Delta":146081698},{"NoteNumber":46,"Velocity":52,"Duration":3335571,"SoundDuration":3335571,"Delta":146081698},{"NoteNumber":65,"Velocity":74,"Duration":46153,"SoundDuration":46153,"Delta":147553847},{"NoteNumber":67,"Velocity":68,"Duration":46153,"SoundDuration":46153,"Delta":147600000},{"NoteNumber":65,"Velocity":74,"Duration":46153,"SoundDuration":46153,"Delta":147646154},{"NoteNumber":64,"Velocity":66,"Duration":46153,"SoundDuration":46153,"Delta":147692308},{"NoteNumber":65,"Velocity":67,"Duration":46153,"SoundDuration":46153,"Delta":147738462},{"NoteNumber":62,"Velocity":79,"Duration":1632654,"SoundDuration":1632654,"Delta":147784616},{"NoteNumber":70,"Velocity":79,"Duration":1428572,"SoundDuration":1428572,"Delta":147784616},{"NoteNumber":70,"Velocity":47,"Duration":204081,"SoundDuration":204081,"Delta":149213188},{"NoteNumber":63,"Velocity":51,"Duration":816327,"SoundDuration":816327,"Delta":149417270},{"NoteNumber":51,"Velocity":37,"Duration":816327,"SoundDuration":816327,"Delta":149417270},{"NoteNumber":55,"Velocity":43,"Duration":816327,"SoundDuration":816327,"Delta":149417270},{"NoteNumber":39,"Velocity":64,"Duration":1020408,"SoundDuration":1020408,"Delta":152478496},{"NoteNumber":46,"Velocity":67,"Duration":994898,"SoundDuration":994898,"Delta":152521013},{"NoteNumber":49,"Velocity":67,"Duration":969388,"SoundDuration":969388,"Delta":152529516},{"NoteNumber":51,"Velocity":69,"Duration":943878,"SoundDuration":943878,"Delta":152555027},{"NoteNumber":55,"Velocity":74,"Duration":918367,"SoundDuration":918367,"Delta":152580537},{"NoteNumber":58,"Velocity":77,"Duration":892857,"SoundDuration":892857,"Delta":152606047},{"NoteNumber":61,"Velocity":81,"Duration":867347,"SoundDuration":867347,"Delta":152631557},{"NoteNumber":63,"Velocity":86,"Duration":841837,"SoundDuration":841837,"Delta":152657068},{"NoteNumber":67,"Velocity":90,"Duration":816327,"SoundDuration":816327,"Delta":152682578},{"NoteNumber":60,"Velocity":42,"Duration":1786309,"SoundDuration":1786309,"Delta":155947886},{"NoteNumber":68,"Velocity":50,"Duration":1313868,"SoundDuration":1313868,"Delta":155947886},{"NoteNumber":44,"Velocity":39,"Duration":875911,"SoundDuration":875911,"Delta":155947886},{"NoteNumber":51,"Velocity":32,"Duration":910397,"SoundDuration":910397,"Delta":156823798},{"NoteNumber":70,"Velocity":50,"Duration":118110,"SoundDuration":118110,"Delta":157261754},{"NoteNumber":68,"Velocity":46,"Duration":118110,"SoundDuration":118110,"Delta":157379864},{"NoteNumber":67,"Velocity":46,"Duration":118110,"SoundDuration":118110,"Delta":157497974},{"NoteNumber":68,"Velocity":46,"Duration":118110,"SoundDuration":118110,"Delta":157616085},{"NoteNumber":72,"Velocity":54,"Duration":1304347,"SoundDuration":1304347,"Delta":157734195},{"NoteNumber":61,"Velocity":45,"Duration":1758893,"SoundDuration":1758893,"Delta":157734195},{"NoteNumber":43,"Velocity":39,"Duration":869564,"SoundDuration":869564,"Delta":157734195},{"NoteNumber":51,"Velocity":29,"Duration":889328,"SoundDuration":889328,"Delta":158603760},{"NoteNumber":70,"Velocity":45,"Duration":454545,"SoundDuration":454545,"Delta":159038542},{"NoteNumber":60,"Velocity":42,"Duration":1777778,"SoundDuration":1777778,"Delta":159493088},{"NoteNumber":68,"Velocity":50,"Duration":2222222,"SoundDuration":2222222,"Delta":159493088},{"NoteNumber":44,"Velocity":42,"Duration":888889,"SoundDuration":888889,"Delta":159493088},{"NoteNumber":51,"Velocity":36,"Duration":888889,"SoundDuration":888889,"Delta":160381977},{"NoteNumber":56,"Velocity":38,"Duration":888889,"SoundDuration":888889,"Delta":161270866},{"NoteNumber":67,"Velocity":46,"Duration":444444,"SoundDuration":444444,"Delta":161715310},{"NoteNumber":68,"Velocity":44,"Duration":444444,"SoundDuration":444444,"Delta":162159755},{"NoteNumber":60,"Velocity":40,"Duration":902389,"SoundDuration":902389,"Delta":162159755},{"NoteNumber":69,"Velocity":48,"Duration":457945,"SoundDuration":457945,"Delta":162604199},{"NoteNumber":63,"Velocity":52,"Duration":1773097,"SoundDuration":1773097,"Delta":163062145},{"NoteNumber":70,"Velocity":52,"Duration":869564,"SoundDuration":869564,"Delta":163062145},{"NoteNumber":55,"Velocity":46,"Duration":1773097,"SoundDuration":1773097,"Delta":163062145},{"NoteNumber":61,"Velocity":46,"Duration":869564,"SoundDuration":869564,"Delta":163062145},{"NoteNumber":58,"Velocity":32,"Duration":903532,"SoundDuration":903532,"Delta":163931710},{"NoteNumber":72,"Velocity":50,"Duration":117187,"SoundDuration":117187,"Delta":164366492},{"NoteNumber":70,"Velocity":46,"Duration":117187,"SoundDuration":117187,"Delta":164483680},{"NoteNumber":69,"Velocity":46,"Duration":117187,"SoundDuration":117187,"Delta":164600867},{"NoteNumber":70,"Velocity":46,"Duration":117187,"SoundDuration":117187,"Delta":164718055},{"NoteNumber":73,"Velocity":54,"Duration":1294963,"SoundDuration":1294963,"Delta":164835242},{"NoteNumber":63,"Velocity":45,"Duration":863308,"SoundDuration":863308,"Delta":164835242},{"NoteNumber":56,"Velocity":29,"Duration":1743786,"SoundDuration":1743786,"Delta":164835242},{"NoteNumber":68,"Velocity":45,"Duration":880477,"SoundDuration":880477,"Delta":165698551},{"NoteNumber":60,"Velocity":32,"Duration":880477,"SoundDuration":880477,"Delta":165698551},{"NoteNumber":72,"Velocity":45,"Duration":448822,"SoundDuration":448822,"Delta":166130206},{"NoteNumber":67,"Velocity":42,"Duration":1714285,"SoundDuration":1714285,"Delta":166579029},{"NoteNumber":70,"Velocity":50,"Duration":1992063,"SoundDuration":1992063,"Delta":166579029},{"NoteNumber":51,"Velocity":30,"Duration":3402241,"SoundDuration":3402241,"Delta":166579029},{"NoteNumber":63,"Velocity":36,"Duration":3402241,"SoundDuration":3402241,"Delta":166579029},{"NoteNumber":61,"Velocity":32,"Duration":857142,"SoundDuration":857142,"Delta":167436172},{"NoteNumber":58,"Velocity":32,"Duration":833333,"SoundDuration":833333,"Delta":168293315},{"NoteNumber":77,"Velocity":61,"Duration":277777,"SoundDuration":277777,"Delta":168571092},{"NoteNumber":75,"Velocity":55,"Duration":277777,"SoundDuration":277777,"Delta":168848870},{"NoteNumber":73,"Velocity":62,"Duration":208333,"SoundDuration":208333,"Delta":169126648},{"NoteNumber":55,"Velocity":32,"Duration":854622,"SoundDuration":854622,"Delta":169126648},{"NoteNumber":72,"Velocity":60,"Duration":211881,"SoundDuration":211881,"Delta":169404425},{"NoteNumber":71,"Velocity":57,"Duration":218977,"SoundDuration":218977,"Delta":169689299},{"NoteNumber":72,"Velocity":63,"Duration":1495761,"SoundDuration":1495761,"Delta":169981270},{"NoteNumber":56,"Velocity":37,"Duration":212766,"SoundDuration":212766,"Delta":170619568},{"NoteNumber":63,"Velocity":46,"Duration":870260,"SoundDuration":870260,"Delta":170832334},{"NoteNumber":68,"Velocity":52,"Duration":225563,"SoundDuration":225563,"Delta":171477031},{"NoteNumber":75,"Velocity":64,"Duration":1503868,"SoundDuration":1503868,"Delta":171702595},{"NoteNumber":48,"Velocity":39,"Duration":212766,"SoundDuration":212766,"Delta":172340893},{"NoteNumber":56,"Velocity":48,"Duration":880077,"SoundDuration":880077,"Delta":172553659},{"NoteNumber":72,"Velocity":60,"Duration":227272,"SoundDuration":227272,"Delta":173206464},{"NoteNumber":77,"Velocity":70,"Duration":1496615,"SoundDuration":1496615,"Delta":173433737},{"NoteNumber":49,"Velocity":51,"Duration":212766,"SoundDuration":212766,"Delta":174072035},{"NoteNumber":61,"Velocity":56,"Duration":645551,"SoundDuration":645551,"Delta":174284801},{"NoteNumber":73,"Velocity":67,"Duration":227272,"SoundDuration":227272,"Delta":174930352},{"NoteNumber":53,"Velocity":56,"Duration":2736974,"SoundDuration":2736974,"Delta":174930352},{"NoteNumber":80,"Velocity":87,"Duration":2082650,"SoundDuration":2082650,"Delta":175157625},{"NoteNumber":61,"Velocity":62,"Duration":580863,"SoundDuration":580863,"Delta":175157625},{"NoteNumber":56,"Velocity":56,"Duration":212766,"SoundDuration":212766,"Delta":175738489},{"NoteNumber":65,"Velocity":65,"Duration":638297,"SoundDuration":638297,"Delta":175951255},{"NoteNumber":61,"Velocity":65,"Duration":212766,"SoundDuration":212766,"Delta":176589553},{"NoteNumber":68,"Velocity":84,"Duration":1722150,"SoundDuration":1722150,"Delta":176802319},{"NoteNumber":56,"Velocity":72,"Duration":865007,"SoundDuration":865007,"Delta":176802319},{"NoteNumber":79,"Velocity":63,"Duration":427051,"SoundDuration":427051,"Delta":177240275},{"NoteNumber":77,"Velocity":59,"Duration":428571,"SoundDuration":428571,"Delta":177667326},{"NoteNumber":53,"Velocity":40,"Duration":857143,"SoundDuration":857143,"Delta":177667326},{"NoteNumber":56,"Velocity":48,"Duration":857143,"SoundDuration":857143,"Delta":177667326},{"NoteNumber":75,"Velocity":56,"Duration":392857,"SoundDuration":392857,"Delta":178095898},{"NoteNumber":63,"Velocity":37,"Duration":869564,"SoundDuration":869564,"Delta":178524469},{"NoteNumber":75,"Velocity":59,"Duration":434782,"SoundDuration":434782,"Delta":178524469},{"NoteNumber":55,"Velocity":48,"Duration":869564,"SoundDuration":869564,"Delta":178524469},{"NoteNumber":58,"Velocity":57,"Duration":869564,"SoundDuration":869564,"Delta":178524469},{"NoteNumber":73,"Velocity":56,"Duration":398550,"SoundDuration":398550,"Delta":178959252},{"NoteNumber":63,"Velocity":37,"Duration":909090,"SoundDuration":909090,"Delta":179394034},{"NoteNumber":73,"Velocity":59,"Duration":454545,"SoundDuration":454545,"Delta":179394034},{"NoteNumber":60,"Velocity":48,"Duration":909090,"SoundDuration":909090,"Delta":179394034},{"NoteNumber":56,"Velocity":40,"Duration":909090,"SoundDuration":909090,"Delta":179394034},{"NoteNumber":72,"Velocity":56,"Duration":416666,"SoundDuration":416666,"Delta":179848580},{"NoteNumber":63,"Velocity":46,"Duration":875911,"SoundDuration":875911,"Delta":180303125},{"NoteNumber":75,"Velocity":55,"Duration":1313868,"SoundDuration":1313868,"Delta":180303125},{"NoteNumber":60,"Velocity":43,"Duration":1313868,"SoundDuration":1313868,"Delta":180303125},{"NoteNumber":51,"Velocity":43,"Duration":1751823,"SoundDuration":1751823,"Delta":180303125},{"NoteNumber":63,"Velocity":39,"Duration":875911,"SoundDuration":875911,"Delta":181179037},{"NoteNumber":72,"Velocity":51,"Duration":437955,"SoundDuration":437955,"Delta":181616993},{"NoteNumber":56,"Velocity":31,"Duration":437955,"SoundDuration":437955,"Delta":181616993},{"NoteNumber":63,"Velocity":45,"Duration":1028836,"SoundDuration":1028836,"Delta":182054949},{"NoteNumber":70,"Velocity":53,"Duration":75757,"SoundDuration":75757,"Delta":182054949},{"NoteNumber":70,"Velocity":51,"Duration":227272,"SoundDuration":227272,"Delta":182054949},{"NoteNumber":51,"Velocity":26,"Duration":1028836,"SoundDuration":1028836,"Delta":182054949},{"NoteNumber":55,"Velocity":31,"Duration":1028836,"SoundDuration":1028836,"Delta":182054949},{"NoteNumber":72,"Velocity":46,"Duration":75757,"SoundDuration":75757,"Delta":182130707},{"NoteNumber":70,"Velocity":51,"Duration":232160,"SoundDuration":232160,"Delta":182206465},{"NoteNumber":72,"Velocity":45,"Duration":75757,"SoundDuration":75757,"Delta":182282222},{"NoteNumber":70,"Velocity":51,"Duration":241935,"SoundDuration":241935,"Delta":182357980},{"NoteNumber":69,"Velocity":46,"Duration":80645,"SoundDuration":80645,"Delta":182438625},{"NoteNumber":70,"Velocity":46,"Duration":564516,"SoundDuration":564516,"Delta":182519270},{"NoteNumber":73,"Velocity":57,"Duration":241935,"SoundDuration":241935,"Delta":182599915},{"NoteNumber":72,"Velocity":48,"Duration":241935,"SoundDuration":241935,"Delta":182841851},{"NoteNumber":75,"Velocity":55,"Duration":232558,"SoundDuration":232558,"Delta":183083786},{"NoteNumber":73,"Velocity":47,"Duration":232558,"SoundDuration":232558,"Delta":183316344},{"NoteNumber":72,"Velocity":51,"Duration":131578,"SoundDuration":131578,"Delta":183548903},{"NoteNumber":75,"Velocity":47,"Duration":131579,"SoundDuration":131579,"Delta":183680482},{"NoteNumber":73,"Velocity":47,"Duration":174418,"SoundDuration":174418,"Delta":183812061},{"NoteNumber":70,"Velocity":47,"Duration":174418,"SoundDuration":174418,"Delta":183986479},{"NoteNumber":60,"Velocity":42,"Duration":1786309,"SoundDuration":1786309,"Delta":184160898},{"NoteNumber":68,"Velocity":50,"Duration":1313868,"SoundDuration":1313868,"Delta":184160898},{"NoteNumber":44,"Velocity":36,"Duration":1786309,"SoundDuration":1786309,"Delta":184160898},{"NoteNumber":51,"Velocity":28,"Duration":416058,"SoundDuration":416058,"Delta":184598854},{"NoteNumber":51,"Velocity":29,"Duration":416058,"SoundDuration":416058,"Delta":185036810},{"NoteNumber":70,"Velocity":50,"Duration":118110,"SoundDuration":118110,"Delta":185474766},{"NoteNumber":51,"Velocity":29,"Duration":448818,"SoundDuration":448818,"Delta":185474766},{"NoteNumber":68,"Velocity":46,"Duration":118110,"SoundDuration":118110,"Delta":185592876},{"NoteNumber":67,"Velocity":46,"Duration":118110,"SoundDuration":118110,"Delta":185710986},{"NoteNumber":68,"Velocity":46,"Duration":118110,"SoundDuration":118110,"Delta":185829097},{"NoteNumber":72,"Velocity":54,"Duration":1304347,"SoundDuration":1304347,"Delta":185947207},{"NoteNumber":61,"Velocity":45,"Duration":1758893,"SoundDuration":1758893,"Delta":185947207},{"NoteNumber":43,"Velocity":36,"Duration":1758893,"SoundDuration":1758893,"Delta":185947207},{"NoteNumber":51,"Velocity":28,"Duration":413043,"SoundDuration":413043,"Delta":186381989},{"NoteNumber":51,"Velocity":28,"Duration":413043,"SoundDuration":413043,"Delta":186816772},{"NoteNumber":70,"Velocity":45,"Duration":454545,"SoundDuration":454545,"Delta":187251554},{"NoteNumber":51,"Velocity":28,"Duration":431818,"SoundDuration":431818,"Delta":187251554},{"NoteNumber":60,"Velocity":42,"Duration":1667465,"SoundDuration":1667465,"Delta":187706100},{"NoteNumber":68,"Velocity":50,"Duration":1739407,"SoundDuration":1739407,"Delta":187706100},{"NoteNumber":44,"Velocity":43,"Duration":222222,"SoundDuration":222222,"Delta":187706100},{"NoteNumber":51,"Velocity":36,"Duration":220090,"SoundDuration":220090,"Delta":188002396},{"NoteNumber":48,"Velocity":36,"Duration":215827,"SoundDuration":215827,"Delta":188294429},{"NoteNumber":56,"Velocity":40,"Duration":215827,"SoundDuration":215827,"Delta":188582199},{"NoteNumber":51,"Velocity":36,"Duration":215827,"SoundDuration":215827,"Delta":188869969},{"NoteNumber":60,"Velocity":36,"Duration":287769,"SoundDuration":287769,"Delta":189157738},{"NoteNumber":56,"Velocity":43,"Duration":214285,"SoundDuration":214285,"Delta":189445508},{"NoteNumber":63,"Velocity":36,"Duration":214285,"SoundDuration":214285,"Delta":189731222},{"NoteNumber":61,"Velocity":36,"Duration":214285,"SoundDuration":214285,"Delta":190016937},{"NoteNumber":60,"Velocity":47,"Duration":214285,"SoundDuration":214285,"Delta":190302651},{"NoteNumber":58,"Velocity":36,"Duration":219181,"SoundDuration":219181,"Delta":190588365},{"NoteNumber":56,"Velocity":36,"Duration":228972,"SoundDuration":228972,"Delta":190883871},{"NoteNumber":63,"Velocity":42,"Duration":1773097,"SoundDuration":1773097,"Delta":191189168},{"NoteNumber":70,"Velocity":50,"Duration":869564,"SoundDuration":869564,"Delta":191189168},{"NoteNumber":55,"Velocity":45,"Duration":1773097,"SoundDuration":1773097,"Delta":191189168},{"NoteNumber":51,"Velocity":29,"Duration":413043,"SoundDuration":413043,"Delta":191623950},{"NoteNumber":51,"Velocity":29,"Duration":413043,"SoundDuration":413043,"Delta":192058733},{"NoteNumber":72,"Velocity":50,"Duration":117187,"SoundDuration":117187,"Delta":192493515},{"NoteNumber":51,"Velocity":29,"Duration":445312,"SoundDuration":445312,"Delta":192493515},{"NoteNumber":70,"Velocity":46,"Duration":117187,"SoundDuration":117187,"Delta":192610703},{"NoteNumber":69,"Velocity":46,"Duration":117187,"SoundDuration":117187,"Delta":192727890},{"NoteNumber":70,"Velocity":46,"Duration":117187,"SoundDuration":117187,"Delta":192845078},{"NoteNumber":63,"Velocity":45,"Duration":1743786,"SoundDuration":1743786,"Delta":192962265},{"NoteNumber":73,"Velocity":54,"Duration":1294963,"SoundDuration":1294963,"Delta":192962265},{"NoteNumber":68,"Velocity":45,"Duration":1743786,"SoundDuration":1743786,"Delta":192962265},{"NoteNumber":56,"Velocity":36,"Duration":1743786,"SoundDuration":1743786,"Delta":192962265},{"NoteNumber":51,"Velocity":29,"Duration":410071,"SoundDuration":410071,"Delta":193393920},{"NoteNumber":51,"Velocity":29,"Duration":410071,"SoundDuration":410071,"Delta":193825574},{"NoteNumber":72,"Velocity":45,"Duration":448822,"SoundDuration":448822,"Delta":194257229},{"NoteNumber":51,"Velocity":29,"Duration":426095,"SoundDuration":426095,"Delta":194257229},{"NoteNumber":67,"Velocity":42,"Duration":1678571,"SoundDuration":1678571,"Delta":194706052},{"NoteNumber":70,"Velocity":50,"Duration":1678571,"SoundDuration":1678571,"Delta":194706052},{"NoteNumber":39,"Velocity":41,"Duration":214285,"SoundDuration":214285,"Delta":194706052},{"NoteNumber":43,"Velocity":38,"Duration":212301,"SoundDuration":212301,"Delta":194991766},{"NoteNumber":46,"Velocity":38,"Duration":208333,"SoundDuration":208333,"Delta":195273512},{"NoteNumber":51,"Velocity":48,"Duration":208333,"SoundDuration":208333,"Delta":195551290},{"NoteNumber":55,"Velocity":48,"Duration":208333,"SoundDuration":208333,"Delta":195829067},{"NoteNumber":58,"Velocity":51,"Duration":208333,"SoundDuration":208333,"Delta":196106845},{"NoteNumber":61,"Velocity":55,"Duration":208333,"SoundDuration":208333,"Delta":196384623},{"NoteNumber":65,"Velocity":49,"Duration":208333,"SoundDuration":208333,"Delta":196662400},{"NoteNumber":63,"Velocity":49,"Duration":208333,"SoundDuration":208333,"Delta":196940178},{"NoteNumber":61,"Velocity":53,"Duration":208333,"SoundDuration":208333,"Delta":197217956},{"NoteNumber":60,"Velocity":44,"Duration":211352,"SoundDuration":211352,"Delta":197495733},{"NoteNumber":58,"Velocity":44,"Duration":217391,"SoundDuration":217391,"Delta":197779550},{"NoteNumber":63,"Velocity":36,"Duration":161490,"SoundDuration":161490,"Delta":198015057},{"NoteNumber":72,"Velocity":63,"Duration":1505639,"SoundDuration":1505639,"Delta":198069405},{"NoteNumber":56,"Velocity":39,"Duration":214285,"SoundDuration":214285,"Delta":198069405},{"NoteNumber":63,"Velocity":42,"Duration":214285,"SoundDuration":214285,"Delta":198355119},{"NoteNumber":60,"Velocity":37,"Duration":214285,"SoundDuration":214285,"Delta":198640833},{"NoteNumber":56,"Velocity":42,"Duration":214285,"SoundDuration":214285,"Delta":198926548},{"NoteNumber":51,"Velocity":32,"Duration":214285,"SoundDuration":214285,"Delta":199212262},{"NoteNumber":48,"Velocity":32,"Duration":225563,"SoundDuration":225563,"Delta":199499856},{"NoteNumber":68,"Velocity":52,"Duration":225563,"SoundDuration":225563,"Delta":199575044},{"NoteNumber":63,"Velocity":43,"Duration":162773,"SoundDuration":162773,"Delta":199744217},{"NoteNumber":75,"Velocity":64,"Duration":1503868,"SoundDuration":1503868,"Delta":199800608},{"NoteNumber":60,"Velocity":36,"Duration":212765,"SoundDuration":212765,"Delta":200084296},{"NoteNumber":56,"Velocity":36,"Duration":212766,"SoundDuration":212766,"Delta":200367984},{"NoteNumber":51,"Velocity":47,"Duration":212765,"SoundDuration":212765,"Delta":200651672},{"NoteNumber":48,"Velocity":38,"Duration":217601,"SoundDuration":217601,"Delta":200935360},{"NoteNumber":44,"Velocity":40,"Duration":227272,"SoundDuration":227272,"Delta":201228719},{"NoteNumber":72,"Velocity":60,"Duration":170454,"SoundDuration":170454,"Delta":201304477},{"NoteNumber":65,"Velocity":44,"Duration":2899587,"SoundDuration":2899587,"Delta":201474931},{"NoteNumber":77,"Velocity":70,"Duration":2842769,"SoundDuration":2842769,"Delta":201531750},{"NoteNumber":49,"Velocity":32,"Duration":3153487,"SoundDuration":3153487,"Delta":201815438},{"NoteNumber":51,"Velocity":36,"Duration":297872,"SoundDuration":297872,"Delta":202099126},{"NoteNumber":53,"Velocity":36,"Duration":297872,"SoundDuration":297872,"Delta":202382814},{"NoteNumber":54,"Velocity":41,"Duration":301257,"SoundDuration":301257,"Delta":202666502},{"NoteNumber":55,"Velocity":43,"Duration":317016,"SoundDuration":317016,"Delta":202952607},{"NoteNumber":56,"Velocity":46,"Duration":293706,"SoundDuration":293706,"Delta":203255638},{"NoteNumber":57,"Velocity":48,"Duration":293706,"SoundDuration":293706,"Delta":203535358},{"NoteNumber":58,"Velocity":49,"Duration":293706,"SoundDuration":293706,"Delta":203815078},{"NoteNumber":59,"Velocity":52,"Duration":293706,"SoundDuration":293706,"Delta":204094799},{"NoteNumber":69,"Velocity":59,"Duration":291375,"SoundDuration":291375,"Delta":204374519},{"NoteNumber":75,"Velocity":70,"Duration":291375,"SoundDuration":291375,"Delta":204374519},{"NoteNumber":60,"Velocity":54,"Duration":306526,"SoundDuration":306526,"Delta":204374519},{"NoteNumber":70,"Velocity":52,"Duration":303030,"SoundDuration":303030,"Delta":204665894},{"NoteNumber":73,"Velocity":62,"Duration":303030,"SoundDuration":303030,"Delta":204665894},{"NoteNumber":61,"Velocity":57,"Duration":303030,"SoundDuration":303030,"Delta":204665894},{"NoteNumber":68,"Velocity":59,"Duration":1693524,"SoundDuration":1693524,"Delta":204968925},{"NoteNumber":72,"Velocity":70,"Duration":839160,"SoundDuration":839160,"Delta":204968925},{"NoteNumber":51,"Velocity":56,"Duration":1693524,"SoundDuration":1693524,"Delta":204968925},{"NoteNumber":63,"Velocity":56,"Duration":279720,"SoundDuration":279720,"Delta":205248645},{"NoteNumber":62,"Velocity":45,"Duration":279720,"SoundDuration":279720,"Delta":205528365},{"NoteNumber":75,"Velocity":63,"Duration":854363,"SoundDuration":854363,"Delta":205808086},{"NoteNumber":61,"Velocity":46,"Duration":284787,"SoundDuration":284787,"Delta":206087806},{"NoteNumber":60,"Velocity":46,"Duration":289855,"SoundDuration":289855,"Delta":206372594},{"NoteNumber":67,"Velocity":59,"Duration":1762943,"SoundDuration":1762943,"Delta":206662449},{"NoteNumber":73,"Velocity":70,"Duration":839160,"SoundDuration":839160,"Delta":206662449},{"NoteNumber":51,"Velocity":32,"Duration":1762943,"SoundDuration":1762943,"Delta":206662449},{"NoteNumber":58,"Velocity":51,"Duration":279720,"SoundDuration":279720,"Delta":206942169},{"NoteNumber":60,"Velocity":44,"Duration":279720,"SoundDuration":279720,"Delta":207221889},{"NoteNumber":70,"Velocity":60,"Duration":923782,"SoundDuration":923782,"Delta":207501610},{"NoteNumber":61,"Velocity":44,"Duration":307927,"SoundDuration":307927,"Delta":207781330},{"NoteNumber":55,"Velocity":44,"Duration":336134,"SoundDuration":336134,"Delta":208089257},{"NoteNumber":61,"Velocity":59,"Duration":1184939,"SoundDuration":1184939,"Delta":208425392},{"NoteNumber":70,"Velocity":70,"Duration":1935770,"SoundDuration":1935770,"Delta":208425392},{"NoteNumber":44,"Velocity":32,"Duration":2880652,"SoundDuration":2880652,"Delta":208425392},{"NoteNumber":55,"Velocity":51,"Duration":1935770,"SoundDuration":1935770,"Delta":208425392},{"NoteNumber":60,"Velocity":37,"Duration":116279,"SoundDuration":116279,"Delta":209610331},{"NoteNumber":61,"Velocity":34,"Duration":116279,"SoundDuration":116279,"Delta":209726610},{"NoteNumber":63,"Velocity":38,"Duration":116279,"SoundDuration":116279,"Delta":209842889},{"NoteNumber":61,"Velocity":34,"Duration":116279,"SoundDuration":116279,"Delta":209959168},{"NoteNumber":60,"Velocity":34,"Duration":142857,"SoundDuration":142857,"Delta":210075447},{"NoteNumber":61,"Velocity":34,"Duration":142857,"SoundDuration":142857,"Delta":210218305},{"NoteNumber":60,"Velocity":42,"Duration":944882,"SoundDuration":944882,"Delta":210361162},{"NoteNumber":68,"Velocity":51,"Duration":944882,"SoundDuration":944882,"Delta":210361162},{"NoteNumber":56,"Velocity":35,"Duration":944882,"SoundDuration":944882,"Delta":210361162},{"NoteNumber":77,"Velocity":78,"Duration":163950,"SoundDuration":163950,"Delta":212191871},{"NoteNumber":89,"Velocity":91,"Duration":1258741,"SoundDuration":1258741,"Delta":212250926},{"NoteNumber":63,"Velocity":76,"Duration":1678322,"SoundDuration":1678322,"Delta":212250926},{"NoteNumber":65,"Velocity":76,"Duration":1674825,"SoundDuration":1674825,"Delta":212250926},{"NoteNumber":60,"Velocity":76,"Duration":1678322,"SoundDuration":1678322,"Delta":212250926},{"NoteNumber":57,"Velocity":76,"Duration":1678322,"SoundDuration":1678322,"Delta":212250926},{"NoteNumber":87,"Velocity":65,"Duration":61188,"SoundDuration":61188,"Delta":213509667},{"NoteNumber":84,"Velocity":63,"Duration":61188,"SoundDuration":61188,"Delta":213569108},{"NoteNumber":81,"Velocity":62,"Duration":59440,"SoundDuration":59440,"Delta":213630297},{"NoteNumber":77,"Velocity":61,"Duration":59440,"SoundDuration":59440,"Delta":213689737},{"NoteNumber":75,"Velocity":59,"Duration":61188,"SoundDuration":61188,"Delta":213749178},{"NoteNumber":72,"Velocity":57,"Duration":61188,"SoundDuration":61188,"Delta":213808618},{"NoteNumber":69,"Velocity":56,"Duration":61188,"SoundDuration":61188,"Delta":213868059},{"NoteNumber":65,"Velocity":78,"Duration":419580,"SoundDuration":419580,"Delta":213929248},{"NoteNumber":60,"Velocity":45,"Duration":190972,"SoundDuration":190972,"Delta":215431843},{"NoteNumber":63,"Velocity":54,"Duration":190972,"SoundDuration":190972,"Delta":215431843},{"NoteNumber":45,"Velocity":30,"Duration":190972,"SoundDuration":190972,"Delta":215431843},{"NoteNumber":53,"Velocity":36,"Duration":190972,"SoundDuration":190972,"Delta":215431843},{"NoteNumber":60,"Velocity":48,"Duration":1764705,"SoundDuration":1764705,"Delta":215640177},{"NoteNumber":63,"Velocity":57,"Duration":1764705,"SoundDuration":1764705,"Delta":215640177},{"NoteNumber":46,"Velocity":35,"Duration":2647059,"SoundDuration":2647059,"Delta":215640177},{"NoteNumber":53,"Velocity":41,"Duration":2647059,"SoundDuration":2647059,"Delta":215640177},{"NoteNumber":58,"Velocity":38,"Duration":882353,"SoundDuration":882353,"Delta":217404883},{"NoteNumber":61,"Velocity":45,"Duration":882353,"SoundDuration":882353,"Delta":217404883},{"NoteNumber":75,"Velocity":78,"Duration":160780,"SoundDuration":160780,"Delta":219114442},{"NoteNumber":87,"Velocity":91,"Duration":1267605,"SoundDuration":1267605,"Delta":219169589},{"NoteNumber":61,"Velocity":76,"Duration":1690140,"SoundDuration":1690140,"Delta":219169589},{"NoteNumber":63,"Velocity":76,"Duration":1686618,"SoundDuration":1686618,"Delta":219169589},{"NoteNumber":58,"Velocity":76,"Duration":1690140,"SoundDuration":1690140,"Delta":219169589},{"NoteNumber":55,"Velocity":76,"Duration":1690140,"SoundDuration":1690140,"Delta":219169589},{"NoteNumber":85,"Velocity":65,"Duration":61619,"SoundDuration":61619,"Delta":220437194},{"NoteNumber":82,"Velocity":63,"Duration":61619,"SoundDuration":61619,"Delta":220497053},{"NoteNumber":79,"Velocity":62,"Duration":59859,"SoundDuration":59859,"Delta":220558672},{"NoteNumber":75,"Velocity":61,"Duration":59859,"SoundDuration":59859,"Delta":220618532},{"NoteNumber":73,"Velocity":59,"Duration":61619,"SoundDuration":61619,"Delta":220678391},{"NoteNumber":70,"Velocity":57,"Duration":61619,"SoundDuration":61619,"Delta":220738250},{"NoteNumber":67,"Velocity":56,"Duration":61619,"SoundDuration":61619,"Delta":220798109},{"NoteNumber":63,"Velocity":78,"Duration":422534,"SoundDuration":422534,"Delta":220859729},{"NoteNumber":58,"Velocity":45,"Duration":195035,"SoundDuration":195035,"Delta":222400562},{"NoteNumber":61,"Velocity":54,"Duration":195035,"SoundDuration":195035,"Delta":222400562},{"NoteNumber":43,"Velocity":30,"Duration":195035,"SoundDuration":195035,"Delta":222400562},{"NoteNumber":51,"Velocity":36,"Duration":195035,"SoundDuration":195035,"Delta":222400562},{"NoteNumber":58,"Velocity":48,"Duration":1702127,"SoundDuration":1702127,"Delta":222613328},{"NoteNumber":61,"Velocity":57,"Duration":1702127,"SoundDuration":1702127,"Delta":222613328},{"NoteNumber":44,"Velocity":35,"Duration":2553191,"SoundDuration":2553191,"Delta":222613328},{"NoteNumber":51,"Velocity":41,"Duration":2553191,"SoundDuration":2553191,"Delta":222613328},{"NoteNumber":56,"Velocity":38,"Duration":851064,"SoundDuration":851064,"Delta":224315456},{"NoteNumber":59,"Velocity":45,"Duration":851064,"SoundDuration":851064,"Delta":224315456},{"NoteNumber":47,"Velocity":89,"Duration":160334,"SoundDuration":160334,"Delta":225964392},{"NoteNumber":59,"Velocity":92,"Duration":1270936,"SoundDuration":1270936,"Delta":226017584},{"NoteNumber":59,"Velocity":59,"Duration":68965,"SoundDuration":68965,"Delta":227288520},{"NoteNumber":56,"Velocity":57,"Duration":68965,"SoundDuration":68965,"Delta":227357485},{"NoteNumber":52,"Velocity":56,"Duration":68965,"SoundDuration":68965,"Delta":227426451},{"NoteNumber":47,"Velocity":56,"Duration":68965,"SoundDuration":68965,"Delta":227495416},{"NoteNumber":44,"Velocity":55,"Duration":68965,"SoundDuration":68965,"Delta":227566106},{"NoteNumber":40,"Velocity":53,"Duration":68965,"SoundDuration":68965,"Delta":227633347},{"NoteNumber":35,"Velocity":91,"Duration":428571,"SoundDuration":428571,"Delta":227702313},{"NoteNumber":56,"Velocity":69,"Duration":188356,"SoundDuration":188356,"Delta":229193507},{"NoteNumber":52,"Velocity":69,"Duration":188356,"SoundDuration":188356,"Delta":229193507},{"NoteNumber":64,"Velocity":69,"Duration":188356,"SoundDuration":188356,"Delta":229193507},{"NoteNumber":35,"Velocity":46,"Duration":188356,"SoundDuration":188356,"Delta":229193507},{"NoteNumber":47,"Velocity":46,"Duration":188356,"SoundDuration":188356,"Delta":229193507},{"NoteNumber":54,"Velocity":73,"Duration":2571428,"SoundDuration":2571428,"Delta":229398986},{"NoteNumber":57,"Velocity":73,"Duration":2571428,"SoundDuration":2571428,"Delta":229398986},{"NoteNumber":64,"Velocity":73,"Duration":1714285,"SoundDuration":1714285,"Delta":229398986},{"NoteNumber":35,"Velocity":70,"Duration":2571428,"SoundDuration":2571428,"Delta":229398986},{"NoteNumber":47,"Velocity":52,"Duration":2571428,"SoundDuration":2571428,"Delta":229398986},{"NoteNumber":63,"Velocity":61,"Duration":857143,"SoundDuration":857143,"Delta":231113272},{"NoteNumber":56,"Velocity":69,"Duration":190972,"SoundDuration":190972,"Delta":232607320},{"NoteNumber":53,"Velocity":69,"Duration":190972,"SoundDuration":190972,"Delta":232607320},{"NoteNumber":63,"Velocity":69,"Duration":190972,"SoundDuration":190972,"Delta":232607320},{"NoteNumber":35,"Velocity":46,"Duration":190972,"SoundDuration":190972,"Delta":232607320},{"NoteNumber":47,"Velocity":46,"Duration":190972,"SoundDuration":190972,"Delta":232607320},{"NoteNumber":53,"Velocity":73,"Duration":2571428,"SoundDuration":2571428,"Delta":232815653},{"NoteNumber":56,"Velocity":73,"Duration":2571428,"SoundDuration":2571428,"Delta":232815653},{"NoteNumber":63,"Velocity":73,"Duration":1714285,"SoundDuration":1714285,"Delta":232815653},{"NoteNumber":35,"Velocity":70,"Duration":1714285,"SoundDuration":1714285,"Delta":232815653},{"NoteNumber":47,"Velocity":52,"Duration":1714285,"SoundDuration":1714285,"Delta":232815653},{"NoteNumber":62,"Velocity":61,"Duration":857143,"SoundDuration":857143,"Delta":234529939},{"NoteNumber":34,"Velocity":43,"Duration":857143,"SoundDuration":857143,"Delta":234529939},{"NoteNumber":46,"Velocity":46,"Duration":857143,"SoundDuration":857143,"Delta":234529939},{"NoteNumber":56,"Velocity":69,"Duration":190972,"SoundDuration":190972,"Delta":236023987},{"NoteNumber":53,"Velocity":69,"Duration":190972,"SoundDuration":190972,"Delta":236023987},{"NoteNumber":62,"Velocity":69,"Duration":190972,"SoundDuration":190972,"Delta":236023987},{"NoteNumber":34,"Velocity":46,"Duration":190972,"SoundDuration":190972,"Delta":236023987},{"NoteNumber":46,"Velocity":46,"Duration":190972,"SoundDuration":190972,"Delta":236023987},{"NoteNumber":53,"Velocity":73,"Duration":2562437,"SoundDuration":2562437,"Delta":236232320},{"NoteNumber":56,"Velocity":73,"Duration":1714285,"SoundDuration":1714285,"Delta":236232320},{"NoteNumber":62,"Velocity":73,"Duration":1714285,"SoundDuration":1714285,"Delta":236232320},{"NoteNumber":34,"Velocity":70,"Duration":1714285,"SoundDuration":1714285,"Delta":236232320},{"NoteNumber":46,"Velocity":52,"Duration":1714285,"SoundDuration":1714285,"Delta":236232320},{"NoteNumber":58,"Velocity":54,"Duration":428571,"SoundDuration":428571,"Delta":237946606},{"NoteNumber":61,"Velocity":61,"Duration":428571,"SoundDuration":428571,"Delta":237946606},{"NoteNumber":39,"Velocity":43,"Duration":428571,"SoundDuration":428571,"Delta":237946606},{"NoteNumber":51,"Velocity":46,"Duration":428571,"SoundDuration":428571,"Delta":237946606},{"NoteNumber":69,"Velocity":46,"Duration":440559,"SoundDuration":440559,"Delta":238375178},{"NoteNumber":70,"Velocity":54,"Duration":377622,"SoundDuration":377622,"Delta":238794758},{"NoteNumber":72,"Velocity":46,"Duration":440559,"SoundDuration":440559,"Delta":239214339},{"NoteNumber":73,"Velocity":54,"Duration":377622,"SoundDuration":377622,"Delta":239633919},{"NoteNumber":78,"Velocity":50,"Duration":419580,"SoundDuration":419580,"Delta":240053500},{"NoteNumber":79,"Velocity":60,"Duration":377622,"SoundDuration":377622,"Delta":240473080},{"NoteNumber":81,"Velocity":50,"Duration":440559,"SoundDuration":440559,"Delta":240892661},{"NoteNumber":82,"Velocity":60,"Duration":377622,"SoundDuration":377622,"Delta":241312241},{"NoteNumber":84,"Velocity":50,"Duration":440559,"SoundDuration":440559,"Delta":241731822},{"NoteNumber":85,"Velocity":60,"Duration":419580,"SoundDuration":419580,"Delta":242151402},{"NoteNumber":82,"Velocity":50,"Duration":447761,"SoundDuration":447761,"Delta":242570983},{"NoteNumber":79,"Velocity":60,"Duration":2127659,"SoundDuration":2127659,"Delta":243018744},{"NoteNumber":63,"Velocity":35,"Duration":808510,"SoundDuration":808510,"Delta":243018744},{"NoteNumber":61,"Velocity":29,"Duration":808510,"SoundDuration":808510,"Delta":243018744},{"NoteNumber":63,"Velocity":30,"Duration":808510,"SoundDuration":808510,"Delta":243869808},{"NoteNumber":61,"Velocity":25,"Duration":808510,"SoundDuration":808510,"Delta":243869808},{"NoteNumber":63,"Velocity":30,"Duration":808510,"SoundDuration":808510,"Delta":244720872},{"NoteNumber":61,"Velocity":25,"Duration":808510,"SoundDuration":808510,"Delta":244720872},{"NoteNumber":80,"Velocity":55,"Duration":106382,"SoundDuration":106382,"Delta":245146404},{"NoteNumber":79,"Velocity":55,"Duration":106383,"SoundDuration":106383,"Delta":245252787},{"NoteNumber":77,"Velocity":55,"Duration":106382,"SoundDuration":106382,"Delta":245359170},{"NoteNumber":79,"Velocity":55,"Duration":106382,"SoundDuration":106382,"Delta":245465553},{"NoteNumber":80,"Velocity":60,"Duration":637112,"SoundDuration":637112,"Delta":245571936},{"NoteNumber":63,"Velocity":30,"Duration":823158,"SoundDuration":823158,"Delta":245571936},{"NoteNumber":61,"Velocity":25,"Duration":823158,"SoundDuration":823158,"Delta":245571936},{"NoteNumber":82,"Velocity":60,"Duration":232558,"SoundDuration":232558,"Delta":246209048},{"NoteNumber":82,"Velocity":60,"Duration":863308,"SoundDuration":863308,"Delta":246441606},{"NoteNumber":63,"Velocity":35,"Duration":820143,"SoundDuration":820143,"Delta":246441606},{"NoteNumber":60,"Velocity":29,"Duration":820143,"SoundDuration":820143,"Delta":246441606},{"NoteNumber":80,"Velocity":60,"Duration":1726618,"SoundDuration":1726618,"Delta":247304915},{"NoteNumber":63,"Velocity":28,"Duration":820143,"SoundDuration":820143,"Delta":247304915},{"NoteNumber":60,"Velocity":23,"Duration":820143,"SoundDuration":820143,"Delta":247304915},{"NoteNumber":63,"Velocity":28,"Duration":820143,"SoundDuration":820143,"Delta":248168224},{"NoteNumber":60,"Velocity":23,"Duration":820143,"SoundDuration":820143,"Delta":248168224},{"NoteNumber":81,"Velocity":60,"Duration":863309,"SoundDuration":863309,"Delta":249031533},{"NoteNumber":63,"Velocity":28,"Duration":820143,"SoundDuration":820143,"Delta":249031533},{"NoteNumber":60,"Velocity":23,"Duration":820143,"SoundDuration":820143,"Delta":249031533},{"NoteNumber":82,"Velocity":60,"Duration":2158272,"SoundDuration":2158272,"Delta":249894842},{"NoteNumber":55,"Velocity":29,"Duration":820143,"SoundDuration":820143,"Delta":249894842},{"NoteNumber":63,"Velocity":35,"Duration":820143,"SoundDuration":820143,"Delta":249894842},{"NoteNumber":61,"Velocity":29,"Duration":820143,"SoundDuration":820143,"Delta":249894842},{"NoteNumber":55,"Velocity":25,"Duration":820143,"SoundDuration":820143,"Delta":250758151},{"NoteNumber":63,"Velocity":30,"Duration":820143,"SoundDuration":820143,"Delta":250758151},{"NoteNumber":61,"Velocity":25,"Duration":820143,"SoundDuration":820143,"Delta":250758151},{"NoteNumber":55,"Velocity":25,"Duration":820143,"SoundDuration":820143,"Delta":251621460},{"NoteNumber":63,"Velocity":30,"Duration":820143,"SoundDuration":820143,"Delta":251621460},{"NoteNumber":61,"Velocity":25,"Duration":820143,"SoundDuration":820143,"Delta":251621460},{"NoteNumber":84,"Velocity":55,"Duration":107913,"SoundDuration":107913,"Delta":252053115},{"NoteNumber":82,"Velocity":55,"Duration":107913,"SoundDuration":107913,"Delta":252161028},{"NoteNumber":81,"Velocity":55,"Duration":107913,"SoundDuration":107913,"Delta":252268942},{"NoteNumber":82,"Velocity":55,"Duration":107913,"SoundDuration":107913,"Delta":252376856},{"NoteNumber":84,"Velocity":60,"Duration":624999,"SoundDuration":624999,"Delta":252484769},{"NoteNumber":55,"Velocity":25,"Duration":857558,"SoundDuration":857558,"Delta":252484769},{"NoteNumber":63,"Velocity":30,"Duration":857558,"SoundDuration":857558,"Delta":252484769},{"NoteNumber":60,"Velocity":25,"Duration":624999,"SoundDuration":624999,"Delta":252484769},{"NoteNumber":85,"Velocity":60,"Duration":232558,"SoundDuration":232558,"Delta":253109769},{"NoteNumber":58,"Velocity":25,"Duration":232558,"SoundDuration":232558,"Delta":253109769},{"NoteNumber":85,"Velocity":60,"Duration":857143,"SoundDuration":857143,"Delta":253342327},{"NoteNumber":56,"Velocity":29,"Duration":814285,"SoundDuration":814285,"Delta":253342327},{"NoteNumber":63,"Velocity":35,"Duration":814285,"SoundDuration":814285,"Delta":253342327},{"NoteNumber":59,"Velocity":29,"Duration":814285,"SoundDuration":814285,"Delta":253342327},{"NoteNumber":84,"Velocity":60,"Duration":857142,"SoundDuration":857142,"Delta":254199470},{"NoteNumber":56,"Velocity":23,"Duration":814285,"SoundDuration":814285,"Delta":254199470},{"NoteNumber":63,"Velocity":28,"Duration":814285,"SoundDuration":814285,"Delta":254199470},{"NoteNumber":60,"Velocity":23,"Duration":814285,"SoundDuration":814285,"Delta":254199470},{"NoteNumber":56,"Velocity":23,"Duration":802816,"SoundDuration":802816,"Delta":255056613},{"NoteNumber":63,"Velocity":28,"Duration":802816,"SoundDuration":802816,"Delta":255056613},{"NoteNumber":60,"Velocity":23,"Duration":802816,"SoundDuration":802816,"Delta":255056613},{"NoteNumber":56,"Velocity":28,"Duration":819593,"SoundDuration":819593,"Delta":255901683},{"NoteNumber":63,"Velocity":28,"Duration":819593,"SoundDuration":819593,"Delta":255901683},{"NoteNumber":60,"Velocity":23,"Duration":819593,"SoundDuration":819593,"Delta":255901683},{"NoteNumber":61,"Velocity":25,"Duration":901755,"SoundDuration":901755,"Delta":256766236},{"NoteNumber":63,"Velocity":30,"Duration":901755,"SoundDuration":901755,"Delta":256766236},{"NoteNumber":67,"Velocity":30,"Duration":83475,"SoundDuration":83475,"Delta":256850893},{"NoteNumber":68,"Velocity":30,"Duration":82492,"SoundDuration":82492,"Delta":256936434},{"NoteNumber":70,"Velocity":41,"Duration":81287,"SoundDuration":81287,"Delta":257018926},{"NoteNumber":68,"Velocity":33,"Duration":80145,"SoundDuration":80145,"Delta":257100213},{"NoteNumber":67,"Velocity":33,"Duration":79257,"SoundDuration":79257,"Delta":257180358},{"NoteNumber":73,"Velocity":42,"Duration":77974,"SoundDuration":77974,"Delta":257259616},{"NoteNumber":72,"Velocity":36,"Duration":77265,"SoundDuration":77265,"Delta":257337591},{"NoteNumber":70,"Velocity":39,"Duration":76090,"SoundDuration":76090,"Delta":257414857},{"NoteNumber":79,"Velocity":51,"Duration":75159,"SoundDuration":75159,"Delta":257492841},{"NoteNumber":77,"Velocity":39,"Duration":74254,"SoundDuration":74254,"Delta":257568001},{"NoteNumber":75,"Velocity":42,"Duration":73207,"SoundDuration":73207,"Delta":257642256},{"NoteNumber":82,"Velocity":57,"Duration":72610,"SoundDuration":72610,"Delta":257711813},{"NoteNumber":61,"Velocity":25,"Duration":903228,"SoundDuration":903228,"Delta":257711813},{"NoteNumber":63,"Velocity":30,"Duration":903228,"SoundDuration":903228,"Delta":257711813},{"NoteNumber":80,"Velocity":46,"Duration":71532,"SoundDuration":71532,"Delta":257784424},{"NoteNumber":79,"Velocity":49,"Duration":70922,"SoundDuration":70922,"Delta":257855956},{"NoteNumber":85,"Velocity":59,"Duration":79999,"SoundDuration":79999,"Delta":257926878},{"NoteNumber":84,"Velocity":50,"Duration":101728,"SoundDuration":101728,"Delta":258006878},{"NoteNumber":82,"Velocity":55,"Duration":123456,"SoundDuration":123456,"Delta":258108606},{"NoteNumber":89,"Velocity":69,"Duration":1701999,"SoundDuration":1701999,"Delta":258232063},{"NoteNumber":61,"Velocity":25,"Duration":808510,"SoundDuration":808510,"Delta":258657595},{"NoteNumber":63,"Velocity":30,"Duration":808510,"SoundDuration":808510,"Delta":258657595},{"NoteNumber":61,"Velocity":25,"Duration":854012,"SoundDuration":854012,"Delta":259508622},{"NoteNumber":63,"Velocity":30,"Duration":854012,"SoundDuration":854012,"Delta":259508622},{"NoteNumber":89,"Velocity":54,"Duration":67460,"SoundDuration":67460,"Delta":259934063},{"NoteNumber":87,"Velocity":53,"Duration":67460,"SoundDuration":67460,"Delta":260001523},{"NoteNumber":85,"Velocity":52,"Duration":67460,"SoundDuration":67460,"Delta":260070968},{"NoteNumber":84,"Velocity":52,"Duration":67460,"SoundDuration":67460,"Delta":260138428},{"NoteNumber":82,"Velocity":51,"Duration":67460,"SoundDuration":67460,"Delta":260205888},{"NoteNumber":80,"Velocity":50,"Duration":67460,"SoundDuration":67460,"Delta":260273349},{"NoteNumber":79,"Velocity":49,"Duration":67460,"SoundDuration":67460,"Delta":260340809},{"NoteNumber":82,"Velocity":56,"Duration":652173,"SoundDuration":652173,"Delta":260410253},{"NoteNumber":80,"Velocity":44,"Duration":217391,"SoundDuration":217391,"Delta":261062427},{"NoteNumber":79,"Velocity":47,"Duration":326086,"SoundDuration":326086,"Delta":261279818},{"NoteNumber":60,"Velocity":25,"Duration":848895,"SoundDuration":848895,"Delta":261279818},{"NoteNumber":63,"Velocity":30,"Duration":848895,"SoundDuration":848895,"Delta":261279818},{"NoteNumber":80,"Velocity":44,"Duration":108695,"SoundDuration":108695,"Delta":261605905},{"NoteNumber":82,"Velocity":51,"Duration":340342,"SoundDuration":340342,"Delta":261714601},{"NoteNumber":80,"Velocity":45,"Duration":122950,"SoundDuration":122950,"Delta":262054943},{"NoteNumber":68,"Velocity":57,"Duration":863309,"SoundDuration":863309,"Delta":262177894},{"NoteNumber":60,"Velocity":25,"Duration":820143,"SoundDuration":820143,"Delta":262177894},{"NoteNumber":63,"Velocity":30,"Duration":820143,"SoundDuration":820143,"Delta":262177894},{"NoteNumber":60,"Velocity":25,"Duration":820143,"SoundDuration":820143,"Delta":263041203},{"NoteNumber":63,"Velocity":30,"Duration":820143,"SoundDuration":820143,"Delta":263041203},{"NoteNumber":55,"Velocity":25,"Duration":929377,"SoundDuration":929377,"Delta":263904512},{"NoteNumber":61,"Velocity":25,"Duration":929377,"SoundDuration":929377,"Delta":263904512},{"NoteNumber":63,"Velocity":30,"Duration":929377,"SoundDuration":929377,"Delta":263904512},{"NoteNumber":70,"Velocity":30,"Duration":83475,"SoundDuration":83475,"Delta":263989169},{"NoteNumber":72,"Velocity":30,"Duration":82492,"SoundDuration":82492,"Delta":264074710},{"NoteNumber":73,"Velocity":41,"Duration":81287,"SoundDuration":81287,"Delta":264157202},{"NoteNumber":72,"Velocity":33,"Duration":80145,"SoundDuration":80145,"Delta":264238489},{"NoteNumber":70,"Velocity":33,"Duration":79257,"SoundDuration":79257,"Delta":264318634},{"NoteNumber":79,"Velocity":47,"Duration":77974,"SoundDuration":77974,"Delta":264397892},{"NoteNumber":77,"Velocity":38,"Duration":77265,"SoundDuration":77265,"Delta":264475867},{"NoteNumber":75,"Velocity":39,"Duration":76090,"SoundDuration":76090,"Delta":264553133},{"NoteNumber":82,"Velocity":51,"Duration":75188,"SoundDuration":75188,"Delta":264631117},{"NoteNumber":80,"Velocity":46,"Duration":91126,"SoundDuration":91126,"Delta":264706305},{"NoteNumber":79,"Velocity":48,"Duration":104166,"SoundDuration":104166,"Delta":264797431},{"NoteNumber":85,"Velocity":69,"Duration":2162638,"SoundDuration":2162638,"Delta":264896390},{"NoteNumber":55,"Velocity":25,"Duration":835288,"SoundDuration":835288,"Delta":264896390},{"NoteNumber":58,"Velocity":25,"Duration":835288,"SoundDuration":835288,"Delta":264896390},{"NoteNumber":61,"Velocity":25,"Duration":835288,"SoundDuration":835288,"Delta":264896390},{"NoteNumber":63,"Velocity":30,"Duration":835288,"SoundDuration":835288,"Delta":264896390},{"NoteNumber":55,"Velocity":25,"Duration":802816,"SoundDuration":802816,"Delta":265773932},{"NoteNumber":58,"Velocity":25,"Duration":802816,"SoundDuration":802816,"Delta":265773932},{"NoteNumber":61,"Velocity":25,"Duration":802816,"SoundDuration":802816,"Delta":265773932},{"NoteNumber":63,"Velocity":30,"Duration":802816,"SoundDuration":802816,"Delta":265773932},{"NoteNumber":55,"Velocity":25,"Duration":974680,"SoundDuration":974680,"Delta":266619002},{"NoteNumber":58,"Velocity":25,"Duration":974680,"SoundDuration":974680,"Delta":266619002},{"NoteNumber":61,"Velocity":25,"Duration":974680,"SoundDuration":974680,"Delta":266619002},{"NoteNumber":63,"Velocity":30,"Duration":974680,"SoundDuration":974680,"Delta":266619002},{"NoteNumber":84,"Velocity":50,"Duration":54455,"SoundDuration":54455,"Delta":267059029},{"NoteNumber":85,"Velocity":52,"Duration":54455,"SoundDuration":54455,"Delta":267113484},{"NoteNumber":87,"Velocity":55,"Duration":54455,"SoundDuration":54455,"Delta":267167940},{"NoteNumber":85,"Velocity":58,"Duration":54455,"SoundDuration":54455,"Delta":267222395},{"NoteNumber":84,"Velocity":58,"Duration":54455,"SoundDuration":54455,"Delta":267276851},{"NoteNumber":82,"Velocity":57,"Duration":54455,"SoundDuration":54455,"Delta":267331306},{"NoteNumber":80,"Velocity":56,"Duration":54455,"SoundDuration":54455,"Delta":267385762},{"NoteNumber":79,"Velocity":55,"Duration":54455,"SoundDuration":54455,"Delta":267440217},{"NoteNumber":77,"Velocity":54,"Duration":54455,"SoundDuration":54455,"Delta":267492197},{"NoteNumber":75,"Velocity":53,"Duration":54455,"SoundDuration":54455,"Delta":267546653},{"NoteNumber":73,"Velocity":52,"Duration":53728,"SoundDuration":53728,"Delta":267601108},{"NoteNumber":72,"Velocity":62,"Duration":1277116,"SoundDuration":1277116,"Delta":267653088},{"NoteNumber":56,"Velocity":30,"Duration":875912,"SoundDuration":875912,"Delta":268492249},{"NoteNumber":60,"Velocity":30,"Duration":875912,"SoundDuration":875912,"Delta":268492249},{"NoteNumber":63,"Velocity":30,"Duration":875912,"SoundDuration":875912,"Delta":268492249},{"NoteNumber":72,"Velocity":64,"Duration":218978,"SoundDuration":218978,"Delta":269149183},{"NoteNumber":73,"Velocity":71,"Duration":1280337,"SoundDuration":1280337,"Delta":269368161},{"NoteNumber":58,"Velocity":32,"Duration":882353,"SoundDuration":882353,"Delta":270207322},{"NoteNumber":61,"Velocity":32,"Duration":882353,"SoundDuration":882353,"Delta":270207322},{"NoteNumber":63,"Velocity":32,"Duration":882353,"SoundDuration":882353,"Delta":270207322},{"NoteNumber":67,"Velocity":32,"Duration":882353,"SoundDuration":882353,"Delta":270207322},{"NoteNumber":73,"Velocity":71,"Duration":220588,"SoundDuration":220588,"Delta":270869087},{"NoteNumber":75,"Velocity":81,"Duration":1268762,"SoundDuration":1268762,"Delta":271089675},{"NoteNumber":60,"Velocity":37,"Duration":882353,"SoundDuration":882353,"Delta":271917261},{"NoteNumber":63,"Velocity":37,"Duration":882353,"SoundDuration":882353,"Delta":271917261},{"NoteNumber":68,"Velocity":37,"Duration":882353,"SoundDuration":882353,"Delta":271917261},{"NoteNumber":75,"Velocity":78,"Duration":220588,"SoundDuration":220588,"Delta":272579026},{"NoteNumber":76,"Velocity":89,"Duration":1268762,"SoundDuration":1268762,"Delta":272799614},{"NoteNumber":60,"Velocity":43,"Duration":882353,"SoundDuration":882353,"Delta":273627200},{"NoteNumber":64,"Velocity":43,"Duration":882353,"SoundDuration":882353,"Delta":273627200},{"NoteNumber":68,"Velocity":43,"Duration":882353,"SoundDuration":882353,"Delta":273627200},{"NoteNumber":76,"Velocity":84,"Duration":220588,"SoundDuration":220588,"Delta":274288965},{"NoteNumber":77,"Velocity":92,"Duration":1247981,"SoundDuration":1247981,"Delta":274509553},{"NoteNumber":61,"Velocity":51,"Duration":863309,"SoundDuration":863309,"Delta":275325880},{"NoteNumber":65,"Velocity":51,"Duration":863309,"SoundDuration":863309,"Delta":275325880},{"NoteNumber":68,"Velocity":51,"Duration":863309,"SoundDuration":863309,"Delta":275325880},{"NoteNumber":77,"Velocity":88,"Duration":215827,"SoundDuration":215827,"Delta":275973362},{"NoteNumber":79,"Velocity":94,"Duration":1311601,"SoundDuration":1311601,"Delta":276189189},{"NoteNumber":64,"Velocity":60,"Duration":944882,"SoundDuration":944882,"Delta":277028350},{"NoteNumber":61,"Velocity":60,"Duration":944882,"SoundDuration":944882,"Delta":277028350},{"NoteNumber":67,"Velocity":60,"Duration":944882,"SoundDuration":944882,"Delta":277028350},{"NoteNumber":70,"Velocity":60,"Duration":944882,"SoundDuration":944882,"Delta":277028350},{"NoteNumber":79,"Velocity":93,"Duration":236220,"SoundDuration":236220,"Delta":277737012},{"NoteNumber":80,"Velocity":100,"Duration":1276595,"SoundDuration":1276595,"Delta":277973232},{"NoteNumber":62,"Velocity":60,"Duration":897972,"SoundDuration":897972,"Delta":278824296},{"NoteNumber":65,"Velocity":60,"Duration":897972,"SoundDuration":897972,"Delta":278824296},{"NoteNumber":68,"Velocity":60,"Duration":897972,"SoundDuration":897972,"Delta":278824296},{"NoteNumber":71,"Velocity":60,"Duration":897972,"SoundDuration":897972,"Delta":278824296},{"NoteNumber":82,"Velocity":86,"Duration":59055,"SoundDuration":59055,"Delta":279486049},{"NoteNumber":80,"Velocity":89,"Duration":59055,"SoundDuration":59055,"Delta":279545104},{"NoteNumber":79,"Velocity":91,"Duration":59055,"SoundDuration":59055,"Delta":279604159},{"NoteNumber":80,"Velocity":93,"Duration":59055,"SoundDuration":59055,"Delta":279663214},{"NoteNumber":82,"Velocity":95,"Duration":419580,"SoundDuration":419580,"Delta":279722269},{"NoteNumber":80,"Velocity":87,"Duration":419580,"SoundDuration":419580,"Delta":280141850},{"NoteNumber":79,"Velocity":77,"Duration":321428,"SoundDuration":321428,"Delta":280561430},{"NoteNumber":77,"Velocity":67,"Duration":321428,"SoundDuration":321428,"Delta":280990002},{"NoteNumber":75,"Velocity":60,"Duration":441639,"SoundDuration":441639,"Delta":281418573},{"NoteNumber":74,"Velocity":55,"Duration":462155,"SoundDuration":462155,"Delta":281838154},{"NoteNumber":77,"Velocity":60,"Duration":442307,"SoundDuration":442307,"Delta":282279330},{"NoteNumber":60,"Velocity":40,"Duration":874125,"SoundDuration":874125,"Delta":282279330},{"NoteNumber":56,"Velocity":34,"Duration":874125,"SoundDuration":874125,"Delta":282279330},{"NoteNumber":51,"Velocity":34,"Duration":874125,"SoundDuration":874125,"Delta":282279330},{"NoteNumber":75,"Velocity":55,"Duration":475378,"SoundDuration":475378,"Delta":282698911},{"NoteNumber":73,"Velocity":60,"Duration":437499,"SoundDuration":437499,"Delta":283153456},{"NoteNumber":72,"Velocity":56,"Duration":437499,"SoundDuration":437499,"Delta":283570123},{"NoteNumber":70,"Velocity":60,"Duration":440104,"SoundDuration":440104,"Delta":283986789},{"NoteNumber":61,"Velocity":40,"Duration":885416,"SoundDuration":885416,"Delta":283986789},{"NoteNumber":55,"Velocity":34,"Duration":885416,"SoundDuration":885416,"Delta":283986789},{"NoteNumber":51,"Velocity":34,"Duration":885416,"SoundDuration":885416,"Delta":283986789},{"NoteNumber":75,"Velocity":57,"Duration":468750,"SoundDuration":468750,"Delta":284403456},{"NoteNumber":71,"Velocity":60,"Duration":300751,"SoundDuration":300751,"Delta":284872206},{"NoteNumber":72,"Velocity":51,"Duration":293233,"SoundDuration":293233,"Delta":285172958},{"NoteNumber":60,"Velocity":43,"Duration":285714,"SoundDuration":285714,"Delta":285466191},{"NoteNumber":56,"Velocity":32,"Duration":285714,"SoundDuration":285714,"Delta":285466191},{"NoteNumber":51,"Velocity":39,"Duration":285714,"SoundDuration":285714,"Delta":285751905},{"NoteNumber":72,"Velocity":60,"Duration":270270,"SoundDuration":270270,"Delta":286037620},{"NoteNumber":48,"Velocity":32,"Duration":270270,"SoundDuration":270270,"Delta":286037620},{"NoteNumber":60,"Velocity":52,"Duration":300751,"SoundDuration":300751,"Delta":286307890},{"NoteNumber":44,"Velocity":32,"Duration":300751,"SoundDuration":300751,"Delta":286307890},{"NoteNumber":72,"Velocity":60,"Duration":285714,"SoundDuration":285714,"Delta":286608642},{"NoteNumber":73,"Velocity":51,"Duration":285714,"SoundDuration":285714,"Delta":286894356},{"NoteNumber":61,"Velocity":43,"Duration":285714,"SoundDuration":285714,"Delta":287180071},{"NoteNumber":58,"Velocity":34,"Duration":285714,"SoundDuration":285714,"Delta":287180071},{"NoteNumber":55,"Velocity":39,"Duration":285714,"SoundDuration":285714,"Delta":287465785},{"NoteNumber":73,"Velocity":60,"Duration":270270,"SoundDuration":270270,"Delta":287751499},{"NoteNumber":51,"Velocity":33,"Duration":270270,"SoundDuration":270270,"Delta":287751499},{"NoteNumber":61,"Velocity":54,"Duration":300751,"SoundDuration":300751,"Delta":288021770},{"NoteNumber":46,"Velocity":33,"Duration":300751,"SoundDuration":300751,"Delta":288021770},{"NoteNumber":74,"Velocity":60,"Duration":285714,"SoundDuration":285714,"Delta":288322522},{"NoteNumber":75,"Velocity":51,"Duration":285714,"SoundDuration":285714,"Delta":288608236},{"NoteNumber":63,"Velocity":44,"Duration":285714,"SoundDuration":285714,"Delta":288893950},{"NoteNumber":60,"Velocity":33,"Duration":285714,"SoundDuration":285714,"Delta":288893950},{"NoteNumber":56,"Velocity":40,"Duration":285714,"SoundDuration":285714,"Delta":289179665},{"NoteNumber":75,"Velocity":64,"Duration":270270,"SoundDuration":270270,"Delta":289465379},{"NoteNumber":51,"Velocity":34,"Duration":270270,"SoundDuration":270270,"Delta":289465379},{"NoteNumber":63,"Velocity":56,"Duration":300751,"SoundDuration":300751,"Delta":289735649},{"NoteNumber":48,"Velocity":34,"Duration":300751,"SoundDuration":300751,"Delta":289735649},{"NoteNumber":75,"Velocity":66,"Duration":285714,"SoundDuration":285714,"Delta":290036401},{"NoteNumber":76,"Velocity":63,"Duration":285714,"SoundDuration":285714,"Delta":290322116},{"NoteNumber":64,"Velocity":58,"Duration":285714,"SoundDuration":285714,"Delta":290607830},{"NoteNumber":60,"Velocity":46,"Duration":285714,"SoundDuration":285714,"Delta":290607830},{"NoteNumber":56,"Velocity":53,"Duration":285714,"SoundDuration":285714,"Delta":290893544},{"NoteNumber":76,"Velocity":70,"Duration":270270,"SoundDuration":270270,"Delta":291179259},{"NoteNumber":52,"Velocity":46,"Duration":270270,"SoundDuration":270270,"Delta":291179259},{"NoteNumber":64,"Velocity":64,"Duration":300751,"SoundDuration":300751,"Delta":291449529},{"NoteNumber":48,"Velocity":46,"Duration":300751,"SoundDuration":300751,"Delta":291449529},{"NoteNumber":76,"Velocity":73,"Duration":285714,"SoundDuration":285714,"Delta":291750281},{"NoteNumber":77,"Velocity":70,"Duration":283702,"SoundDuration":283702,"Delta":292035995},{"NoteNumber":65,"Velocity":63,"Duration":281689,"SoundDuration":281689,"Delta":292319697},{"NoteNumber":61,"Velocity":47,"Duration":281689,"SoundDuration":281689,"Delta":292319697},{"NoteNumber":56,"Velocity":58,"Duration":281690,"SoundDuration":281690,"Delta":292601387},{"NoteNumber":77,"Velocity":77,"Duration":270270,"SoundDuration":270270,"Delta":292883077},{"NoteNumber":53,"Velocity":49,"Duration":270270,"SoundDuration":270270,"Delta":292883077},{"NoteNumber":65,"Velocity":68,"Duration":300751,"SoundDuration":300751,"Delta":293153348},{"NoteNumber":49,"Velocity":49,"Duration":300751,"SoundDuration":300751,"Delta":293153348},{"NoteNumber":78,"Velocity":79,"Duration":285714,"SoundDuration":285714,"Delta":293454100},{"NoteNumber":79,"Velocity":77,"Duration":283702,"SoundDuration":283702,"Delta":293739814},{"NoteNumber":67,"Velocity":69,"Duration":281689,"SoundDuration":281689,"Delta":294023516},{"NoteNumber":61,"Velocity":56,"Duration":281689,"SoundDuration":281689,"Delta":294023516},{"NoteNumber":58,"Velocity":63,"Duration":281690,"SoundDuration":281690,"Delta":294305206},{"NoteNumber":79,"Velocity":84,"Duration":270270,"SoundDuration":270270,"Delta":294586896},{"NoteNumber":55,"Velocity":54,"Duration":270270,"SoundDuration":270270,"Delta":294586896},{"NoteNumber":67,"Velocity":76,"Duration":300751,"SoundDuration":300751,"Delta":294857167},{"NoteNumber":51,"Velocity":55,"Duration":300751,"SoundDuration":300751,"Delta":294857167},{"NoteNumber":79,"Velocity":86,"Duration":285714,"SoundDuration":285714,"Delta":295157919},{"NoteNumber":80,"Velocity":81,"Duration":283702,"SoundDuration":283702,"Delta":295443633},{"NoteNumber":68,"Velocity":75,"Duration":281689,"SoundDuration":281689,"Delta":295727335},{"NoteNumber":62,"Velocity":78,"Duration":2889985,"SoundDuration":2889985,"Delta":295727335},{"NoteNumber":59,"Velocity":57,"Duration":2608295,"SoundDuration":2608295,"Delta":296009025},{"NoteNumber":80,"Velocity":87,"Duration":281690,"SoundDuration":281690,"Delta":296290715},{"NoteNumber":56,"Velocity":61,"Duration":2326605,"SoundDuration":2326605,"Delta":296290715},{"NoteNumber":68,"Velocity":81,"Duration":312500,"SoundDuration":312500,"Delta":296572405},{"NoteNumber":52,"Velocity":65,"Duration":2044915,"SoundDuration":2044915,"Delta":296572405},{"NoteNumber":83,"Velocity":87,"Duration":275861,"SoundDuration":275861,"Delta":296884905},{"NoteNumber":71,"Velocity":79,"Duration":296296,"SoundDuration":296296,"Delta":297160767},{"NoteNumber":83,"Velocity":87,"Duration":275861,"SoundDuration":275861,"Delta":297457063},{"NoteNumber":68,"Velocity":79,"Duration":294117,"SoundDuration":294117,"Delta":297732925},{"NoteNumber":80,"Velocity":86,"Duration":277777,"SoundDuration":277777,"Delta":298027043},{"NoteNumber":68,"Velocity":79,"Duration":312500,"SoundDuration":312500,"Delta":298304821},{"NoteNumber":75,"Velocity":88,"Duration":2014088,"SoundDuration":2014088,"Delta":298617321},{"NoteNumber":51,"Velocity":64,"Duration":142857,"SoundDuration":142857,"Delta":298929821},{"NoteNumber":56,"Velocity":64,"Duration":141358,"SoundDuration":141358,"Delta":299215535},{"NoteNumber":60,"Velocity":64,"Duration":139860,"SoundDuration":139860,"Delta":299496754},{"NoteNumber":63,"Velocity":58,"Duration":139860,"SoundDuration":139860,"Delta":299776474},{"NoteNumber":68,"Velocity":58,"Duration":139860,"SoundDuration":139860,"Delta":300056195},{"NoteNumber":72,"Velocity":64,"Duration":295494,"SoundDuration":295494,"Delta":300335915},{"NoteNumber":86,"Velocity":79,"Duration":283702,"SoundDuration":283702,"Delta":300631409},{"NoteNumber":71,"Velocity":58,"Duration":283702,"SoundDuration":283702,"Delta":300631409},{"NoteNumber":89,"Velocity":79,"Duration":281689,"SoundDuration":281689,"Delta":300915111},{"NoteNumber":73,"Velocity":58,"Duration":281689,"SoundDuration":281689,"Delta":300915111},{"NoteNumber":87,"Velocity":85,"Duration":211267,"SoundDuration":211267,"Delta":301196801},{"NoteNumber":72,"Velocity":64,"Duration":211267,"SoundDuration":211267,"Delta":301196801},{"NoteNumber":85,"Velocity":79,"Duration":211267,"SoundDuration":211267,"Delta":301478491},{"NoteNumber":70,"Velocity":59,"Duration":211267,"SoundDuration":211267,"Delta":301478491},{"NoteNumber":84,"Velocity":79,"Duration":234375,"SoundDuration":234375,"Delta":301760181},{"NoteNumber":68,"Velocity":59,"Duration":234375,"SoundDuration":234375,"Delta":301760181},{"NoteNumber":80,"Velocity":79,"Duration":1702917,"SoundDuration":1702917,"Delta":302072681},{"NoteNumber":82,"Velocity":79,"Duration":1472148,"SoundDuration":1472148,"Delta":302072681},{"NoteNumber":73,"Velocity":62,"Duration":3335571,"SoundDuration":3335571,"Delta":302072681},{"NoteNumber":63,"Velocity":52,"Duration":3335571,"SoundDuration":3335571,"Delta":302072681},{"NoteNumber":82,"Velocity":74,"Duration":46153,"SoundDuration":46153,"Delta":303544829},{"NoteNumber":84,"Velocity":68,"Duration":46153,"SoundDuration":46153,"Delta":303590983},{"NoteNumber":82,"Velocity":74,"Duration":46153,"SoundDuration":46153,"Delta":303637137},{"NoteNumber":81,"Velocity":66,"Duration":46153,"SoundDuration":46153,"Delta":303683291},{"NoteNumber":82,"Velocity":67,"Duration":46153,"SoundDuration":46153,"Delta":303729445},{"NoteNumber":79,"Velocity":79,"Duration":1632654,"SoundDuration":1632654,"Delta":303775599},{"NoteNumber":87,"Velocity":79,"Duration":1428572,"SoundDuration":1428572,"Delta":303775599},{"NoteNumber":87,"Velocity":79,"Duration":204081,"SoundDuration":204081,"Delta":305204171},{"NoteNumber":72,"Velocity":74,"Duration":843537,"SoundDuration":843537,"Delta":305408253},{"NoteNumber":80,"Velocity":85,"Duration":843537,"SoundDuration":843537,"Delta":305408253},{"NoteNumber":39,"Velocity":64,"Duration":142857,"SoundDuration":142857,"Delta":305680362},{"NoteNumber":44,"Velocity":64,"Duration":142857,"SoundDuration":142857,"Delta":305966076},{"NoteNumber":48,"Velocity":64,"Duration":139860,"SoundDuration":139860,"Delta":306251790},{"NoteNumber":51,"Velocity":58,"Duration":139860,"SoundDuration":139860,"Delta":306531511},{"NoteNumber":56,"Velocity":58,"Duration":139860,"SoundDuration":139860,"Delta":306811231},{"NoteNumber":60,"Velocity":64,"Duration":300751,"SoundDuration":300751,"Delta":307090951},{"NoteNumber":74,"Velocity":79,"Duration":285714,"SoundDuration":285714,"Delta":307391703},{"NoteNumber":59,"Velocity":58,"Duration":285714,"SoundDuration":285714,"Delta":307391703},{"NoteNumber":77,"Velocity":79,"Duration":285714,"SoundDuration":285714,"Delta":307677418},{"NoteNumber":61,"Velocity":58,"Duration":285714,"SoundDuration":285714,"Delta":307677418},{"NoteNumber":75,"Velocity":85,"Duration":214285,"SoundDuration":214285,"Delta":307963132},{"NoteNumber":60,"Velocity":64,"Duration":214285,"SoundDuration":214285,"Delta":307963132},{"NoteNumber":73,"Velocity":79,"Duration":214285,"SoundDuration":214285,"Delta":308248846},{"NoteNumber":58,"Velocity":59,"Duration":214285,"SoundDuration":214285,"Delta":308248846},{"NoteNumber":72,"Velocity":79,"Duration":234375,"SoundDuration":234375,"Delta":308534561},{"NoteNumber":56,"Velocity":59,"Duration":234375,"SoundDuration":234375,"Delta":308534561},{"NoteNumber":68,"Velocity":79,"Duration":1702917,"SoundDuration":1702917,"Delta":308847061},{"NoteNumber":70,"Velocity":79,"Duration":1472148,"SoundDuration":1472148,"Delta":308847061},{"NoteNumber":61,"Velocity":62,"Duration":3383590,"SoundDuration":3383590,"Delta":308847061},{"NoteNumber":51,"Velocity":52,"Duration":3383590,"SoundDuration":3383590,"Delta":308847061},{"NoteNumber":70,"Velocity":74,"Duration":46153,"SoundDuration":46153,"Delta":310319209},{"NoteNumber":72,"Velocity":68,"Duration":46153,"SoundDuration":46153,"Delta":310365363},{"NoteNumber":70,"Velocity":74,"Duration":46153,"SoundDuration":46153,"Delta":310411517},{"NoteNumber":69,"Velocity":66,"Duration":46153,"SoundDuration":46153,"Delta":310457671},{"NoteNumber":70,"Velocity":67,"Duration":46153,"SoundDuration":46153,"Delta":310503824},{"NoteNumber":67,"Velocity":79,"Duration":1680673,"SoundDuration":1680673,"Delta":310549978},{"NoteNumber":75,"Velocity":79,"Duration":1428572,"SoundDuration":1428572,"Delta":310549978},{"NoteNumber":75,"Velocity":61,"Duration":252100,"SoundDuration":252100,"Delta":311978550},{"NoteNumber":60,"Velocity":30,"Duration":416058,"SoundDuration":416058,"Delta":312230651},{"NoteNumber":63,"Velocity":30,"Duration":416058,"SoundDuration":416058,"Delta":312230651},{"NoteNumber":68,"Velocity":50,"Duration":1761460,"SoundDuration":1761460,"Delta":312230651},{"NoteNumber":56,"Velocity":39,"Duration":863487,"SoundDuration":863487,"Delta":312230651},{"NoteNumber":60,"Velocity":30,"Duration":808510,"SoundDuration":808510,"Delta":312668607},{"NoteNumber":63,"Velocity":30,"Duration":808510,"SoundDuration":808510,"Delta":312668607},{"NoteNumber":51,"Velocity":32,"Duration":897973,"SoundDuration":897973,"Delta":313094139},{"NoteNumber":60,"Velocity":30,"Duration":448818,"SoundDuration":448818,"Delta":313519671},{"NoteNumber":63,"Velocity":30,"Duration":448818,"SoundDuration":448818,"Delta":313519671},{"NoteNumber":61,"Velocity":30,"Duration":413043,"SoundDuration":413043,"Delta":313992112},{"NoteNumber":63,"Velocity":30,"Duration":413043,"SoundDuration":413043,"Delta":313992112},{"NoteNumber":72,"Velocity":54,"Duration":1304347,"SoundDuration":1304347,"Delta":313992112},{"NoteNumber":55,"Velocity":39,"Duration":869565,"SoundDuration":869565,"Delta":313992112},{"NoteNumber":61,"Velocity":30,"Duration":826086,"SoundDuration":826086,"Delta":314426895},{"NoteNumber":63,"Velocity":30,"Duration":826086,"SoundDuration":826086,"Delta":314426895},{"NoteNumber":51,"Velocity":29,"Duration":889327,"SoundDuration":889327,"Delta":314861677},{"NoteNumber":63,"Velocity":30,"Duration":431818,"SoundDuration":431818,"Delta":315296460},{"NoteNumber":61,"Velocity":30,"Duration":431818,"SoundDuration":431818,"Delta":315296460},{"NoteNumber":70,"Velocity":45,"Duration":454545,"SoundDuration":454545,"Delta":315296460},{"NoteNumber":60,"Velocity":30,"Duration":422222,"SoundDuration":422222,"Delta":315751005},{"NoteNumber":63,"Velocity":30,"Duration":422222,"SoundDuration":422222,"Delta":315751005},{"NoteNumber":68,"Velocity":50,"Duration":3063492,"SoundDuration":3063492,"Delta":315751005},{"NoteNumber":56,"Velocity":42,"Duration":888889,"SoundDuration":888889,"Delta":315751005},{"NoteNumber":60,"Velocity":30,"Duration":830158,"SoundDuration":830158,"Delta":316195450},{"NoteNumber":63,"Velocity":30,"Duration":830158,"SoundDuration":830158,"Delta":316195450},{"NoteNumber":51,"Velocity":36,"Duration":857143,"SoundDuration":857143,"Delta":316639894},{"NoteNumber":63,"Velocity":30,"Duration":828571,"SoundDuration":828571,"Delta":317068466},{"NoteNumber":60,"Velocity":30,"Duration":828571,"SoundDuration":828571,"Delta":317068466},{"NoteNumber":48,"Velocity":38,"Duration":888889,"SoundDuration":888889,"Delta":317497037},{"NoteNumber":60,"Velocity":30,"Duration":830158,"SoundDuration":830158,"Delta":317941482},{"NoteNumber":63,"Velocity":30,"Duration":830158,"SoundDuration":830158,"Delta":317941482},{"NoteNumber":44,"Velocity":40,"Duration":886516,"SoundDuration":886516,"Delta":318385926},{"NoteNumber":69,"Velocity":44,"Duration":457945,"SoundDuration":457945,"Delta":318814498},{"NoteNumber":60,"Velocity":30,"Duration":435048,"SoundDuration":435048,"Delta":318814498},{"NoteNumber":63,"Velocity":30,"Duration":435048,"SoundDuration":435048,"Delta":318814498},{"NoteNumber":61,"Velocity":30,"Duration":413043,"SoundDuration":413043,"Delta":319272443},{"NoteNumber":63,"Velocity":30,"Duration":413043,"SoundDuration":413043,"Delta":319272443},{"NoteNumber":70,"Velocity":52,"Duration":1291925,"SoundDuration":1291925,"Delta":319272443},{"NoteNumber":43,"Velocity":46,"Duration":863353,"SoundDuration":863353,"Delta":319272443},{"NoteNumber":63,"Velocity":35,"Duration":814285,"SoundDuration":814285,"Delta":319707226},{"NoteNumber":39,"Velocity":32,"Duration":897321,"SoundDuration":897321,"Delta":320135797},{"NoteNumber":63,"Velocity":30,"Duration":857239,"SoundDuration":857239,"Delta":320564369},{"NoteNumber":72,"Velocity":50,"Duration":117187,"SoundDuration":117187,"Delta":320564369},{"NoteNumber":70,"Velocity":46,"Duration":117187,"SoundDuration":117187,"Delta":320681556},{"NoteNumber":69,"Velocity":46,"Duration":117187,"SoundDuration":117187,"Delta":320798744},{"NoteNumber":70,"Velocity":46,"Duration":117187,"SoundDuration":117187,"Delta":320915931},{"NoteNumber":73,"Velocity":54,"Duration":1282718,"SoundDuration":1282718,"Delta":321033119},{"NoteNumber":68,"Velocity":45,"Duration":1282718,"SoundDuration":1282718,"Delta":321033119},{"NoteNumber":44,"Velocity":29,"Duration":857186,"SoundDuration":857186,"Delta":321033119},{"NoteNumber":63,"Velocity":30,"Duration":808510,"SoundDuration":808510,"Delta":321464773},{"NoteNumber":48,"Velocity":32,"Duration":872824,"SoundDuration":872824,"Delta":321890305},{"NoteNumber":63,"Velocity":30,"Duration":833006,"SoundDuration":833006,"Delta":322315837},{"NoteNumber":68,"Velocity":45,"Duration":447292,"SoundDuration":447292,"Delta":322315837},{"NoteNumber":72,"Velocity":45,"Duration":447292,"SoundDuration":447292,"Delta":322315837},{"NoteNumber":67,"Velocity":42,"Duration":3356451,"SoundDuration":3356451,"Delta":322763129},{"NoteNumber":70,"Velocity":50,"Duration":3356451,"SoundDuration":3356451,"Delta":322763129},{"NoteNumber":51,"Velocity":36,"Duration":845237,"SoundDuration":845237,"Delta":322763129},{"NoteNumber":63,"Velocity":37,"Duration":791666,"SoundDuration":791666,"Delta":323191701},{"NoteNumber":53,"Velocity":42,"Duration":833332,"SoundDuration":833332,"Delta":323608367},{"NoteNumber":63,"Velocity":41,"Duration":784013,"SoundDuration":784013,"Delta":324025034},{"NoteNumber":51,"Velocity":36,"Duration":2517042,"SoundDuration":2517042,"Delta":324441700},{"NoteNumber":63,"Velocity":39,"Duration":780577,"SoundDuration":780577,"Delta":324849864},{"NoteNumber":49,"Velocity":33,"Duration":861554,"SoundDuration":861554,"Delta":325258027},{"NoteNumber":63,"Velocity":34,"Duration":825383,"SoundDuration":825383,"Delta":325671820},{"NoteNumber":75,"Velocity":66,"Duration":1666746,"SoundDuration":1666746,"Delta":326119581},{"NoteNumber":48,"Velocity":43,"Duration":1666746,"SoundDuration":1666746,"Delta":326119581},{"NoteNumber":63,"Velocity":53,"Duration":791994,"SoundDuration":791994,"Delta":326539162},{"NoteNumber":56,"Velocity":43,"Duration":1660918,"SoundDuration":1660918,"Delta":326958742},{"NoteNumber":63,"Velocity":52,"Duration":788792,"SoundDuration":788792,"Delta":327372535},{"NoteNumber":73,"Velocity":63,"Duration":1691175,"SoundDuration":1691175,"Delta":327786328},{"NoteNumber":46,"Velocity":36,"Duration":1691175,"SoundDuration":1691175,"Delta":327786328},{"NoteNumber":63,"Velocity":51,"Duration":791666,"SoundDuration":791666,"Delta":328202995},{"NoteNumber":55,"Velocity":43,"Duration":1702913,"SoundDuration":1702913,"Delta":328619661},{"NoteNumber":63,"Velocity":52,"Duration":821458,"SoundDuration":821458,"Delta":329036328},{"NoteNumber":72,"Velocity":66,"Duration":1678403,"SoundDuration":1678403,"Delta":329477504},{"NoteNumber":44,"Velocity":46,"Duration":1678403,"SoundDuration":1678403,"Delta":329477504},{"NoteNumber":63,"Velocity":49,"Duration":797534,"SoundDuration":797534,"Delta":329900039},{"NoteNumber":56,"Velocity":43,"Duration":1649660,"SoundDuration":1649660,"Delta":330322574},{"NoteNumber":64,"Velocity":46,"Duration":784013,"SoundDuration":784013,"Delta":330739241},{"NoteNumber":70,"Velocity":58,"Duration":816327,"SoundDuration":816327,"Delta":331155907},{"NoteNumber":49,"Velocity":45,"Duration":1662446,"SoundDuration":1662446,"Delta":331155907},{"NoteNumber":65,"Velocity":54,"Duration":775510,"SoundDuration":775510,"Delta":331564071},{"NoteNumber":73,"Velocity":64,"Duration":627141,"SoundDuration":627141,"Delta":331972234},{"NoteNumber":58,"Velocity":43,"Duration":408163,"SoundDuration":408163,"Delta":331972234},{"NoteNumber":65,"Velocity":50,"Duration":860490,"SoundDuration":860490,"Delta":332380398},{"NoteNumber":61,"Velocity":41,"Duration":437955,"SoundDuration":437955,"Delta":332380398},{"NoteNumber":70,"Velocity":55,"Duration":218977,"SoundDuration":218977,"Delta":332599376},{"NoteNumber":68,"Velocity":66,"Duration":1684231,"SoundDuration":1684231,"Delta":332818354},{"NoteNumber":51,"Velocity":53,"Duration":1684231,"SoundDuration":1684231,"Delta":332818354},{"NoteNumber":63,"Velocity":47,"Duration":800157,"SoundDuration":800157,"Delta":333240889},{"NoteNumber":60,"Velocity":53,"Duration":1666746,"SoundDuration":1666746,"Delta":333663424},{"NoteNumber":63,"Velocity":43,"Duration":791994,"SoundDuration":791994,"Delta":334083004},{"NoteNumber":69,"Velocity":58,"Duration":827585,"SoundDuration":827585,"Delta":334502585},{"NoteNumber":51,"Velocity":36,"Duration":1695924,"SoundDuration":1695924,"Delta":334502585},{"NoteNumber":63,"Velocity":45,"Duration":786206,"SoundDuration":786206,"Delta":334916378},{"NoteNumber":70,"Velocity":59,"Duration":868338,"SoundDuration":868338,"Delta":335330171},{"NoteNumber":55,"Velocity":53,"Duration":1695924,"SoundDuration":1695924,"Delta":335330171},{"NoteNumber":63,"Velocity":49,"Duration":826959,"SoundDuration":826959,"Delta":335743964},{"NoteNumber":71,"Velocity":64,"Duration":827585,"SoundDuration":827585,"Delta":336198509},{"NoteNumber":44,"Velocity":49,"Duration":1643912,"SoundDuration":1643912,"Delta":336198509},{"NoteNumber":51,"Velocity":49,"Duration":1643912,"SoundDuration":1643912,"Delta":336198509},{"NoteNumber":63,"Velocity":55,"Duration":781140,"SoundDuration":781140,"Delta":336612302},{"NoteNumber":60,"Velocity":56,"Duration":816327,"SoundDuration":816327,"Delta":337026095},{"NoteNumber":72,"Velocity":67,"Duration":816327,"SoundDuration":816327,"Delta":337026095},{"NoteNumber":56,"Velocity":53,"Duration":816327,"SoundDuration":816327,"Delta":337026095},{"NoteNumber":63,"Velocity":55,"Duration":778026,"SoundDuration":778026,"Delta":337434259},{"NoteNumber":61,"Velocity":59,"Duration":830539,"SoundDuration":830539,"Delta":337842422},{"NoteNumber":73,"Velocity":70,"Duration":830539,"SoundDuration":830539,"Delta":337842422},{"NoteNumber":46,"Velocity":46,"Duration":830539,"SoundDuration":830539,"Delta":337842422},{"NoteNumber":51,"Velocity":46,"Duration":830539,"SoundDuration":830539,"Delta":337842422},{"NoteNumber":58,"Velocity":55,"Duration":830539,"SoundDuration":830539,"Delta":337842422},{"NoteNumber":63,"Velocity":58,"Duration":808069,"SoundDuration":808069,"Delta":338253381},{"NoteNumber":62,"Velocity":62,"Duration":911654,"SoundDuration":911654,"Delta":338672962},{"NoteNumber":74,"Velocity":73,"Duration":911654,"SoundDuration":911654,"Delta":338672962},{"NoteNumber":47,"Velocity":50,"Duration":911654,"SoundDuration":911654,"Delta":338672962},{"NoteNumber":51,"Velocity":50,"Duration":911654,"SoundDuration":911654,"Delta":338672962},{"NoteNumber":59,"Velocity":59,"Duration":911654,"SoundDuration":911654,"Delta":338672962},{"NoteNumber":63,"Velocity":62,"Duration":456000,"SoundDuration":456000,"Delta":339104616},{"NoteNumber":63,"Velocity":30,"Duration":811936,"SoundDuration":811936,"Delta":339584616},{"NoteNumber":75,"Velocity":77,"Duration":1724485,"SoundDuration":1724485,"Delta":339584616},{"NoteNumber":60,"Velocity":53,"Duration":854189,"SoundDuration":854189,"Delta":339584616},{"NoteNumber":48,"Velocity":64,"Duration":1724485,"SoundDuration":1724485,"Delta":339584616},{"NoteNumber":51,"Velocity":64,"Duration":1724485,"SoundDuration":1724485,"Delta":339584616},{"NoteNumber":56,"Velocity":53,"Duration":845070,"SoundDuration":845070,"Delta":340016271},{"NoteNumber":63,"Velocity":58,"Duration":825519,"SoundDuration":825519,"Delta":340438806},{"NoteNumber":56,"Velocity":53,"Duration":879415,"SoundDuration":879415,"Delta":340861341},{"NoteNumber":61,"Velocity":30,"Duration":811936,"SoundDuration":811936,"Delta":341309102},{"NoteNumber":63,"Velocity":30,"Duration":811936,"SoundDuration":811936,"Delta":341309102},{"NoteNumber":73,"Velocity":69,"Duration":1724485,"SoundDuration":1724485,"Delta":341309102},{"NoteNumber":46,"Velocity":52,"Duration":1724485,"SoundDuration":1724485,"Delta":341309102},{"NoteNumber":51,"Velocity":52,"Duration":1724485,"SoundDuration":1724485,"Delta":341309102},{"NoteNumber":55,"Velocity":53,"Duration":845070,"SoundDuration":845070,"Delta":341740756},{"NoteNumber":61,"Velocity":58,"Duration":825519,"SoundDuration":825519,"Delta":342163291},{"NoteNumber":63,"Velocity":58,"Duration":825519,"SoundDuration":825519,"Delta":342163291},{"NoteNumber":55,"Velocity":53,"Duration":876332,"SoundDuration":876332,"Delta":342585826},{"NoteNumber":60,"Velocity":30,"Duration":814285,"SoundDuration":814285,"Delta":343033587},{"NoteNumber":63,"Velocity":30,"Duration":814285,"SoundDuration":814285,"Delta":343033587},{"NoteNumber":72,"Velocity":65,"Duration":1690475,"SoundDuration":1690475,"Delta":343033587},{"NoteNumber":44,"Velocity":55,"Duration":1690475,"SoundDuration":1690475,"Delta":343033587},{"NoteNumber":56,"Velocity":53,"Duration":845238,"SoundDuration":845238,"Delta":343462159},{"NoteNumber":60,"Velocity":52,"Duration":791666,"SoundDuration":791666,"Delta":343890730},{"NoteNumber":64,"Velocity":52,"Duration":791666,"SoundDuration":791666,"Delta":343890730},{"NoteNumber":56,"Velocity":53,"Duration":1238584,"SoundDuration":1238584,"Delta":344307397},{"NoteNumber":65,"Velocity":30,"Duration":1232876,"SoundDuration":1232876,"Delta":344724063},{"NoteNumber":70,"Velocity":62,"Duration":410958,"SoundDuration":410958,"Delta":344724063},{"NoteNumber":49,"Velocity":48,"Duration":1670832,"SoundDuration":1670832,"Delta":344724063},{"NoteNumber":72,"Velocity":64,"Duration":410958,"SoundDuration":410958,"Delta":345135022},{"NoteNumber":57,"Velocity":53,"Duration":410958,"SoundDuration":410958,"Delta":345135022},{"NoteNumber":73,"Velocity":67,"Duration":629936,"SoundDuration":629936,"Delta":345545981},{"NoteNumber":58,"Velocity":53,"Duration":410958,"SoundDuration":410958,"Delta":345545981},{"NoteNumber":65,"Velocity":49,"Duration":437955,"SoundDuration":437955,"Delta":345956940},{"NoteNumber":61,"Velocity":53,"Duration":1260221,"SoundDuration":1260221,"Delta":345956940},{"NoteNumber":70,"Velocity":69,"Duration":218977,"SoundDuration":218977,"Delta":346175918},{"NoteNumber":63,"Velocity":30,"Duration":2473535,"SoundDuration":2473535,"Delta":346394896},{"NoteNumber":68,"Velocity":70,"Duration":822265,"SoundDuration":822265,"Delta":346394896},{"NoteNumber":51,"Velocity":58,"Duration":1639196,"SoundDuration":1639196,"Delta":346394896},{"NoteNumber":75,"Velocity":58,"Duration":777196,"SoundDuration":777196,"Delta":346797581},{"NoteNumber":69,"Velocity":71,"Duration":816931,"SoundDuration":816931,"Delta":347217161},{"NoteNumber":60,"Velocity":53,"Duration":816931,"SoundDuration":816931,"Delta":347217161},{"NoteNumber":75,"Velocity":58,"Duration":781996,"SoundDuration":781996,"Delta":347614512},{"NoteNumber":70,"Velocity":73,"Duration":834339,"SoundDuration":834339,"Delta":348034093},{"NoteNumber":61,"Velocity":53,"Duration":834339,"SoundDuration":834339,"Delta":348034093},{"NoteNumber":51,"Velocity":52,"Duration":1702677,"SoundDuration":1702677,"Delta":348034093},{"NoteNumber":75,"Velocity":43,"Duration":804068,"SoundDuration":804068,"Delta":348436777},{"NoteNumber":67,"Velocity":51,"Duration":868338,"SoundDuration":868338,"Delta":348868432},{"NoteNumber":58,"Velocity":46,"Duration":868338,"SoundDuration":868338,"Delta":348868432},{"NoteNumber":61,"Velocity":46,"Duration":868338,"SoundDuration":868338,"Delta":348868432},{"NoteNumber":75,"Velocity":43,"Duration":454545,"SoundDuration":454545,"Delta":349282225},{"NoteNumber":60,"Velocity":30,"Duration":393103,"SoundDuration":393103,"Delta":349736770},{"NoteNumber":63,"Velocity":30,"Duration":393103,"SoundDuration":393103,"Delta":349736770},{"NoteNumber":68,"Velocity":57,"Duration":833373,"SoundDuration":833373,"Delta":349736770},{"NoteNumber":44,"Velocity":40,"Duration":833373,"SoundDuration":833373,"Delta":349736770},{"NoteNumber":56,"Velocity":40,"Duration":833373,"SoundDuration":833373,"Delta":349736770},{"NoteNumber":63,"Velocity":30,"Duration":797202,"SoundDuration":797202,"Delta":350150563},{"NoteNumber":48,"Velocity":36,"Duration":830539,"SoundDuration":830539,"Delta":350570144},{"NoteNumber":63,"Velocity":30,"Duration":780822,"SoundDuration":780822,"Delta":350989724},{"NoteNumber":51,"Velocity":36,"Duration":821917,"SoundDuration":821917,"Delta":351400683},{"NoteNumber":63,"Velocity":30,"Duration":780822,"SoundDuration":780822,"Delta":351811642},{"NoteNumber":56,"Velocity":36,"Duration":821918,"SoundDuration":821918,"Delta":352222601},{"NoteNumber":63,"Velocity":30,"Duration":778306,"SoundDuration":778306,"Delta":352633560},{"NoteNumber":70,"Velocity":57,"Duration":1666904,"SoundDuration":1666904,"Delta":353044519},{"NoteNumber":73,"Velocity":57,"Duration":1666904,"SoundDuration":1666904,"Delta":353044519},{"NoteNumber":55,"Velocity":40,"Duration":827743,"SoundDuration":827743,"Delta":353044519},{"NoteNumber":63,"Velocity":30,"Duration":797202,"SoundDuration":797202,"Delta":353452683},{"NoteNumber":53,"Velocity":36,"Duration":839160,"SoundDuration":839160,"Delta":353872263},{"NoteNumber":63,"Velocity":30,"Duration":786927,"SoundDuration":786927,"Delta":354291844},{"NoteNumber":70,"Velocity":57,"Duration":1672251,"SoundDuration":1672251,"Delta":354711424},{"NoteNumber":73,"Velocity":57,"Duration":1672251,"SoundDuration":1672251,"Delta":354711424},{"NoteNumber":51,"Velocity":36,"Duration":816327,"SoundDuration":816327,"Delta":354711424},{"NoteNumber":63,"Velocity":30,"Duration":775510,"SoundDuration":775510,"Delta":355119588},{"NoteNumber":55,"Velocity":39,"Duration":855924,"SoundDuration":855924,"Delta":355527751},{"NoteNumber":63,"Velocity":30,"Duration":817624,"SoundDuration":817624,"Delta":355935915},{"NoteNumber":68,"Velocity":61,"Duration":836490,"SoundDuration":836490,"Delta":356383676},{"NoteNumber":72,"Velocity":61,"Duration":836490,"SoundDuration":836490,"Delta":356383676},{"NoteNumber":56,"Velocity":40,"Duration":836490,"SoundDuration":836490,"Delta":356383676},{"NoteNumber":63,"Velocity":30,"Duration":808510,"SoundDuration":808510,"Delta":356794635},{"NoteNumber":51,"Velocity":36,"Duration":851064,"SoundDuration":851064,"Delta":357220167},{"NoteNumber":63,"Velocity":30,"Duration":797945,"SoundDuration":797945,"Delta":357645699},{"NoteNumber":48,"Velocity":36,"Duration":827585,"SoundDuration":827585,"Delta":358071231},{"NoteNumber":63,"Velocity":30,"Duration":786206,"SoundDuration":786206,"Delta":358485024},{"NoteNumber":44,"Velocity":33,"Duration":827585,"SoundDuration":827585,"Delta":358898817},{"NoteNumber":63,"Velocity":30,"Duration":778657,"SoundDuration":778657,"Delta":359312610},{"NoteNumber":61,"Velocity":57,"Duration":1655404,"SoundDuration":1655404,"Delta":359726403},{"NoteNumber":70,"Velocity":57,"Duration":1655404,"SoundDuration":1655404,"Delta":359726403},{"NoteNumber":43,"Velocity":40,"Duration":822071,"SoundDuration":822071,"Delta":359726403},{"NoteNumber":63,"Velocity":30,"Duration":791666,"SoundDuration":791666,"Delta":360131808},{"NoteNumber":41,"Velocity":37,"Duration":833332,"SoundDuration":833332,"Delta":360548475},{"NoteNumber":63,"Velocity":30,"Duration":791666,"SoundDuration":791666,"Delta":360965141},{"NoteNumber":61,"Velocity":57,"Duration":1666666,"SoundDuration":1666666,"Delta":361381808},{"NoteNumber":70,"Velocity":57,"Duration":1666666,"SoundDuration":1666666,"Delta":361381808},{"NoteNumber":39,"Velocity":40,"Duration":833332,"SoundDuration":833332,"Delta":361381808},{"NoteNumber":63,"Velocity":30,"Duration":791666,"SoundDuration":791666,"Delta":361798474},{"NoteNumber":43,"Velocity":38,"Duration":833333,"SoundDuration":833333,"Delta":362215141},{"NoteNumber":63,"Velocity":30,"Duration":416666,"SoundDuration":416666,"Delta":362631807},{"NoteNumber":60,"Velocity":25,"Duration":413792,"SoundDuration":413792,"Delta":363048474},{"NoteNumber":68,"Velocity":57,"Duration":413792,"SoundDuration":413792,"Delta":363048474},{"NoteNumber":44,"Velocity":40,"Duration":833373,"SoundDuration":833373,"Delta":363048474},{"NoteNumber":63,"Velocity":30,"Duration":797202,"SoundDuration":797202,"Delta":363462267},{"NoteNumber":51,"Velocity":25,"Duration":797202,"SoundDuration":797202,"Delta":363462267},{"NoteNumber":39,"Velocity":36,"Duration":830539,"SoundDuration":830539,"Delta":363881847},{"NoteNumber":63,"Velocity":30,"Duration":780822,"SoundDuration":780822,"Delta":364301428},{"NoteNumber":51,"Velocity":25,"Duration":780822,"SoundDuration":780822,"Delta":364301428},{"NoteNumber":36,"Velocity":36,"Duration":821917,"SoundDuration":821917,"Delta":364712387},{"NoteNumber":63,"Velocity":30,"Duration":780822,"SoundDuration":780822,"Delta":365123346},{"NoteNumber":51,"Velocity":25,"Duration":780822,"SoundDuration":780822,"Delta":365123346},{"NoteNumber":56,"Velocity":42,"Duration":821918,"SoundDuration":821918,"Delta":365534305},{"NoteNumber":60,"Velocity":50,"Duration":821918,"SoundDuration":821918,"Delta":365534305},{"NoteNumber":32,"Velocity":30,"Duration":821918,"SoundDuration":821918,"Delta":365534305},{"NoteNumber":44,"Velocity":36,"Duration":821918,"SoundDuration":821918,"Delta":365534305},{"NoteNumber":63,"Velocity":30,"Duration":778306,"SoundDuration":778306,"Delta":365945264},{"NoteNumber":51,"Velocity":25,"Duration":778306,"SoundDuration":778306,"Delta":365945264},{"NoteNumber":58,"Velocity":48,"Duration":827743,"SoundDuration":827743,"Delta":366356223},{"NoteNumber":61,"Velocity":57,"Duration":827743,"SoundDuration":827743,"Delta":366356223},{"NoteNumber":31,"Velocity":34,"Duration":827743,"SoundDuration":827743,"Delta":366356223},{"NoteNumber":43,"Velocity":40,"Duration":827743,"SoundDuration":827743,"Delta":366356223},{"NoteNumber":63,"Velocity":30,"Duration":839160,"SoundDuration":839160,"Delta":366764386},{"NoteNumber":51,"Velocity":25,"Duration":839160,"SoundDuration":839160,"Delta":366764386},{"NoteNumber":29,"Velocity":30,"Duration":839160,"SoundDuration":839160,"Delta":367183967},{"NoteNumber":41,"Velocity":36,"Duration":839160,"SoundDuration":839160,"Delta":367183967},{"NoteNumber":63,"Velocity":30,"Duration":791994,"SoundDuration":791994,"Delta":367603547},{"NoteNumber":51,"Velocity":25,"Duration":791994,"SoundDuration":791994,"Delta":367603547},{"NoteNumber":58,"Velocity":48,"Duration":827585,"SoundDuration":827585,"Delta":368023128},{"NoteNumber":61,"Velocity":48,"Duration":827585,"SoundDuration":827585,"Delta":368023128},{"NoteNumber":31,"Velocity":30,"Duration":827585,"SoundDuration":827585,"Delta":368023128},{"NoteNumber":43,"Velocity":36,"Duration":827585,"SoundDuration":827585,"Delta":368023128},{"NoteNumber":63,"Velocity":30,"Duration":827585,"SoundDuration":827585,"Delta":368436921},{"NoteNumber":51,"Velocity":25,"Duration":827585,"SoundDuration":827585,"Delta":368436921},{"NoteNumber":39,"Velocity":39,"Duration":861554,"SoundDuration":861554,"Delta":368850714},{"NoteNumber":63,"Velocity":30,"Duration":817624,"SoundDuration":817624,"Delta":369264507},{"NoteNumber":51,"Velocity":25,"Duration":817624,"SoundDuration":817624,"Delta":369264507},{"NoteNumber":56,"Velocity":51,"Duration":390411,"SoundDuration":390411,"Delta":369712268},{"NoteNumber":60,"Velocity":51,"Duration":390411,"SoundDuration":390411,"Delta":369712268},{"NoteNumber":32,"Velocity":40,"Duration":836490,"SoundDuration":836490,"Delta":369712268},{"NoteNumber":63,"Velocity":30,"Duration":808510,"SoundDuration":808510,"Delta":370123227},{"NoteNumber":60,"Velocity":25,"Duration":808510,"SoundDuration":808510,"Delta":370123227},{"NoteNumber":56,"Velocity":25,"Duration":808510,"SoundDuration":808510,"Delta":370123227},{"NoteNumber":51,"Velocity":25,"Duration":808510,"SoundDuration":808510,"Delta":370123227},{"NoteNumber":44,"Velocity":35,"Duration":3337614,"SoundDuration":3337614,"Delta":370548759},{"NoteNumber":63,"Velocity":29,"Duration":792879,"SoundDuration":792879,"Delta":370974291},{"NoteNumber":60,"Velocity":24,"Duration":792879,"SoundDuration":792879,"Delta":370974291},{"NoteNumber":56,"Velocity":24,"Duration":792879,"SoundDuration":792879,"Delta":370974291},{"NoteNumber":51,"Velocity":24,"Duration":792879,"SoundDuration":792879,"Delta":370974291},{"NoteNumber":39,"Velocity":34,"Duration":827743,"SoundDuration":827743,"Delta":371399823},{"NoteNumber":63,"Velocity":28,"Duration":786927,"SoundDuration":786927,"Delta":371807986},{"NoteNumber":60,"Velocity":24,"Duration":786927,"SoundDuration":786927,"Delta":371807986},{"NoteNumber":56,"Velocity":24,"Duration":786927,"SoundDuration":786927,"Delta":371807986},{"NoteNumber":51,"Velocity":24,"Duration":786927,"SoundDuration":786927,"Delta":371807986},{"NoteNumber":36,"Velocity":31,"Duration":836734,"SoundDuration":836734,"Delta":372227567},{"NoteNumber":63,"Velocity":28,"Duration":793436,"SoundDuration":793436,"Delta":372635730},{"NoteNumber":56,"Velocity":23,"Duration":793436,"SoundDuration":793436,"Delta":372635730},{"NoteNumber":51,"Velocity":23,"Duration":793436,"SoundDuration":793436,"Delta":372635730},{"NoteNumber":60,"Velocity":23,"Duration":793436,"SoundDuration":793436,"Delta":372635730},{"NoteNumber":32,"Velocity":31,"Duration":822071,"SoundDuration":822071,"Delta":373064302},{"NoteNumber":60,"Velocity":27,"Duration":781531,"SoundDuration":781531,"Delta":373469707},{"NoteNumber":56,"Velocity":23,"Duration":781531,"SoundDuration":781531,"Delta":373469707},{"NoteNumber":51,"Velocity":23,"Duration":781531,"SoundDuration":781531,"Delta":373469707},{"NoteNumber":44,"Velocity":33,"Duration":3417658,"SoundDuration":3417658,"Delta":373886374},{"NoteNumber":60,"Velocity":27,"Duration":807196,"SoundDuration":807196,"Delta":374291779},{"NoteNumber":56,"Velocity":22,"Duration":807196,"SoundDuration":807196,"Delta":374291779},{"NoteNumber":51,"Velocity":22,"Duration":807196,"SoundDuration":807196,"Delta":374291779},{"NoteNumber":39,"Velocity":35,"Duration":861554,"SoundDuration":861554,"Delta":374726562},{"NoteNumber":60,"Velocity":26,"Duration":825383,"SoundDuration":825383,"Delta":375140355},{"NoteNumber":56,"Velocity":22,"Duration":825383,"SoundDuration":825383,"Delta":375140355},{"NoteNumber":51,"Velocity":22,"Duration":825383,"SoundDuration":825383,"Delta":375140355},{"NoteNumber":36,"Velocity":33,"Duration":867341,"SoundDuration":867341,"Delta":375588116},{"NoteNumber":60,"Velocity":26,"Duration":820174,"SoundDuration":820174,"Delta":376007696},{"NoteNumber":56,"Velocity":21,"Duration":820174,"SoundDuration":820174,"Delta":376007696},{"NoteNumber":51,"Velocity":21,"Duration":820174,"SoundDuration":820174,"Delta":376007696},{"NoteNumber":32,"Velocity":29,"Duration":848575,"SoundDuration":848575,"Delta":376455457},{"NoteNumber":56,"Velocity":25,"Duration":804645,"SoundDuration":804645,"Delta":376869250},{"NoteNumber":51,"Velocity":21,"Duration":804645,"SoundDuration":804645,"Delta":376869250},{"NoteNumber":48,"Velocity":21,"Duration":804645,"SoundDuration":804645,"Delta":376869250},{"NoteNumber":44,"Velocity":31,"Duration":3498131,"SoundDuration":3498131,"Delta":377304033},{"NoteNumber":56,"Velocity":24,"Duration":810369,"SoundDuration":810369,"Delta":377714992},{"NoteNumber":51,"Velocity":20,"Duration":810369,"SoundDuration":810369,"Delta":377714992},{"NoteNumber":48,"Velocity":20,"Duration":810369,"SoundDuration":810369,"Delta":377714992},{"NoteNumber":39,"Velocity":32,"Duration":854969,"SoundDuration":854969,"Delta":378152948},{"NoteNumber":56,"Velocity":24,"Duration":821458,"SoundDuration":821458,"Delta":378566741},{"NoteNumber":51,"Velocity":20,"Duration":821458,"SoundDuration":821458,"Delta":378566741},{"NoteNumber":48,"Velocity":20,"Duration":821458,"SoundDuration":821458,"Delta":378566741},{"NoteNumber":36,"Velocity":30,"Duration":898725,"SoundDuration":898725,"Delta":379007917},{"NoteNumber":56,"Velocity":23,"Duration":923951,"SoundDuration":923951,"Delta":379430452},{"NoteNumber":51,"Velocity":19,"Duration":923951,"SoundDuration":923951,"Delta":379430452},{"NoteNumber":48,"Velocity":19,"Duration":923951,"SoundDuration":923951,"Delta":379430452},{"NoteNumber":32,"Velocity":26,"Duration":895522,"SoundDuration":895522,"Delta":379906643},{"NoteNumber":48,"Velocity":22,"Duration":937500,"SoundDuration":937500,"Delta":381697687},{"NoteNumber":51,"Velocity":27,"Duration":937500,"SoundDuration":937500,"Delta":381697687},{"NoteNumber":32,"Velocity":24,"Duration":937500,"SoundDuration":937500,"Delta":381697687},{"NoteNumber":44,"Velocity":19,"Duration":5052632,"SoundDuration":5052632,"Delta":383572687},{"NoteNumber":48,"Velocity":23,"Duration":5052632,"SoundDuration":5052632,"Delta":383572687},{"NoteNumber":32,"Velocity":25,"Duration":5052632,"SoundDuration":5052632,"Delta":383572687}],"license":{"name":"Creative Commons Attribution-ShareAlike 3.0 Germany","url":"http://creativecommons.org/licenses/by-sa/3.0/de/deed.en","text":"The MIDI, audio (MP3, OGG) and video files of Bernd Krueger are licensed under the cc-by-sa Germany License. This means that you can use and adapt the files, as long as you attribute the copyright holder.\n\nName: Bernd Krueger\nSource: http://www.piano-midi.de\n\nThe distribution or public playback of the files is only allowed under identical license conditions.\n\nThe scores are open source.","attribution":"MIDI files by Bernd Krueger (piano-midi.de)"}}