{"title":"Sonate Hoboken XVI:8 3. Satz","artist":"Piano","durationMs":86410,"midiSha256":"54e2a7addc3fba498aff4f751e04c4118668b1f1107313dc1d9eaecd26b74fe6","midiObject":[{"NoteNumber":74,"Velocity":47,"Duration":588235,"SoundDuration":588235,"Delta":0},{"NoteNumber":74,"Velocity":50,"Duration":882353,"SoundDuration":882353,"Delta":588236},{"NoteNumber":55,"Velocity":40,"Duration":588235,"SoundDuration":588235,"Delta":1176471},{"NoteNumber":76,"Velocity":46,"Duration":147058,"SoundDuration":147058,"Delta":1470589},{"NoteNumber":78,"Velocity":49,"Duration":147058,"SoundDuration":147058,"Delta":1617648},{"NoteNumber":79,"Velocity":52,"Duration":441176,"SoundDuration":441176,"Delta":1764707},{"NoteNumber":59,"Velocity":36,"Duration":588235,"SoundDuration":588235,"Delta":1764707},{"NoteNumber":79,"Velocity":47,"Duration":450000,"SoundDuration":450000,"Delta":2352942},{"NoteNumber":60,"Velocity":39,"Duration":599999,"SoundDuration":599999,"Delta":2352942},{"NoteNumber":79,"Velocity":50,"Duration":1165048,"SoundDuration":1165048,"Delta":2952942},{"NoteNumber":62,"Velocity":43,"Duration":582524,"SoundDuration":582524,"Delta":2952942},{"NoteNumber":50,"Velocity":36,"Duration":582524,"SoundDuration":582524,"Delta":3535467},{"NoteNumber":78,"Velocity":47,"Duration":582524,"SoundDuration":582524,"Delta":4117991},{"NoteNumber":62,"Velocity":41,"Duration":582524,"SoundDuration":582524,"Delta":4117991},{"NoteNumber":76,"Velocity":47,"Duration":588235,"SoundDuration":588235,"Delta":4700516},{"NoteNumber":60,"Velocity":38,"Duration":588235,"SoundDuration":588235,"Delta":4700516},{"NoteNumber":76,"Velocity":50,"Duration":283018,"SoundDuration":283018,"Delta":5288751},{"NoteNumber":59,"Velocity":40,"Duration":566037,"SoundDuration":566037,"Delta":5288751},{"NoteNumber":74,"Velocity":45,"Duration":283018,"SoundDuration":283018,"Delta":5571770},{"NoteNumber":72,"Velocity":45,"Duration":283018,"SoundDuration":283018,"Delta":5854789},{"NoteNumber":55,"Velocity":33,"Duration":589141,"SoundDuration":589141,"Delta":5854789},{"NoteNumber":71,"Velocity":45,"Duration":306122,"SoundDuration":306122,"Delta":6137807},{"NoteNumber":74,"Velocity":50,"Duration":285714,"SoundDuration":285714,"Delta":6443930},{"NoteNumber":57,"Velocity":40,"Duration":571428,"SoundDuration":571428,"Delta":6443930},{"NoteNumber":72,"Velocity":45,"Duration":285714,"SoundDuration":285714,"Delta":6729644},{"NoteNumber":71,"Velocity":45,"Duration":285714,"SoundDuration":285714,"Delta":7015358},{"NoteNumber":50,"Velocity":34,"Duration":594992,"SoundDuration":594992,"Delta":7015358},{"NoteNumber":69,"Velocity":45,"Duration":309278,"SoundDuration":309278,"Delta":7301073},{"NoteNumber":71,"Velocity":50,"Duration":582524,"SoundDuration":582524,"Delta":7610351},{"NoteNumber":55,"Velocity":40,"Duration":582524,"SoundDuration":582524,"Delta":7610351},{"NoteNumber":67,"Velocity":46,"Duration":582524,"SoundDuration":582524,"Delta":8192875},{"NoteNumber":50,"Velocity":34,"Duration":291262,"SoundDuration":291262,"Delta":8192875},{"NoteNumber":47,"Velocity":34,"Duration":291262,"SoundDuration":291262,"Delta":8484138},{"NoteNumber":43,"Velocity":40,"Duration":588235,"SoundDuration":588235,"Delta":8775400},{"NoteNumber":74,"Velocity":56,"Duration":588235,"SoundDuration":588235,"Delta":9363635},{"NoteNumber":74,"Velocity":60,"Duration":882353,"SoundDuration":882353,"Delta":9951871},{"NoteNumber":55,"Velocity":48,"Duration":588235,"SoundDuration":588235,"Delta":10540106},{"NoteNumber":76,"Velocity":58,"Duration":147058,"SoundDuration":147058,"Delta":10834224},{"NoteNumber":78,"Velocity":62,"Duration":147058,"SoundDuration":147058,"Delta":10981283},{"NoteNumber":79,"Velocity":67,"Duration":441176,"SoundDuration":441176,"Delta":11128342},{"NoteNumber":59,"Velocity":43,"Duration":588235,"SoundDuration":588235,"Delta":11128342},{"NoteNumber":83,"Velocity":68,"Duration":300000,"SoundDuration":300000,"Delta":11716577},{"NoteNumber":55,"Velocity":52,"Duration":599999,"SoundDuration":599999,"Delta":11716577},{"NoteNumber":83,"Velocity":71,"Duration":1165048,"SoundDuration":1165048,"Delta":12316577},{"NoteNumber":67,"Velocity":51,"Duration":582524,"SoundDuration":582524,"Delta":12899102},{"NoteNumber":81,"Velocity":69,"Duration":582524,"SoundDuration":582524,"Delta":13481626},{"NoteNumber":61,"Velocity":55,"Duration":582524,"SoundDuration":582524,"Delta":13481626},{"NoteNumber":79,"Velocity":66,"Duration":588235,"SoundDuration":588235,"Delta":14064151},{"NoteNumber":64,"Velocity":49,"Duration":588235,"SoundDuration":588235,"Delta":14064151},{"NoteNumber":79,"Velocity":68,"Duration":283018,"SoundDuration":283018,"Delta":14652386},{"NoteNumber":62,"Velocity":57,"Duration":566037,"SoundDuration":566037,"Delta":14652386},{"NoteNumber":78,"Velocity":61,"Duration":283018,"SoundDuration":283018,"Delta":14935405},{"NoteNumber":76,"Velocity":61,"Duration":283018,"SoundDuration":283018,"Delta":15218424},{"NoteNumber":54,"Velocity":46,"Duration":589141,"SoundDuration":589141,"Delta":15218424},{"NoteNumber":74,"Velocity":60,"Duration":306122,"SoundDuration":306122,"Delta":15501443},{"NoteNumber":76,"Velocity":72,"Duration":152380,"SoundDuration":152380,"Delta":15807565},{"NoteNumber":55,"Velocity":54,"Duration":571428,"SoundDuration":571428,"Delta":15807565},{"NoteNumber":78,"Velocity":60,"Duration":152380,"SoundDuration":152380,"Delta":15959946},{"NoteNumber":76,"Velocity":60,"Duration":152380,"SoundDuration":152380,"Delta":16112327},{"NoteNumber":78,"Velocity":67,"Duration":114285,"SoundDuration":114285,"Delta":16264708},{"NoteNumber":76,"Velocity":58,"Duration":114285,"SoundDuration":114285,"Delta":16378994},{"NoteNumber":57,"Velocity":46,"Duration":615384,"SoundDuration":615384,"Delta":16378994},{"NoteNumber":78,"Velocity":62,"Duration":114285,"SoundDuration":114285,"Delta":16493279},{"NoteNumber":76,"Velocity":64,"Duration":123076,"SoundDuration":123076,"Delta":16607565},{"NoteNumber":74,"Velocity":62,"Duration":131868,"SoundDuration":131868,"Delta":16730642},{"NoteNumber":76,"Velocity":64,"Duration":131868,"SoundDuration":131868,"Delta":16862510},{"NoteNumber":74,"Velocity":68,"Duration":1188585,"SoundDuration":1188585,"Delta":16994378},{"NoteNumber":50,"Velocity":54,"Duration":582524,"SoundDuration":582524,"Delta":16994378},{"NoteNumber":45,"Velocity":44,"Duration":303030,"SoundDuration":303030,"Delta":17576903},{"NoteNumber":38,"Velocity":42,"Duration":337078,"SoundDuration":337078,"Delta":18182963},{"NoteNumber":74,"Velocity":47,"Duration":588235,"SoundDuration":588235,"Delta":18857121},{"NoteNumber":74,"Velocity":50,"Duration":882353,"SoundDuration":882353,"Delta":19445356},{"NoteNumber":55,"Velocity":40,"Duration":588235,"SoundDuration":588235,"Delta":20033592},{"NoteNumber":76,"Velocity":46,"Duration":147058,"SoundDuration":147058,"Delta":20327709},{"NoteNumber":78,"Velocity":49,"Duration":147058,"SoundDuration":147058,"Delta":20474768},{"NoteNumber":79,"Velocity":52,"Duration":441176,"SoundDuration":441176,"Delta":20621827},{"NoteNumber":59,"Velocity":36,"Duration":588235,"SoundDuration":588235,"Delta":20621827},{"NoteNumber":79,"Velocity":47,"Duration":449999,"SoundDuration":449999,"Delta":21210063},{"NoteNumber":60,"Velocity":39,"Duration":600000,"SoundDuration":600000,"Delta":21210063},{"NoteNumber":79,"Velocity":50,"Duration":1165048,"SoundDuration":1165048,"Delta":21810063},{"NoteNumber":62,"Velocity":43,"Duration":582524,"SoundDuration":582524,"Delta":21810063},{"NoteNumber":50,"Velocity":36,"Duration":582524,"SoundDuration":582524,"Delta":22392587},{"NoteNumber":78,"Velocity":47,"Duration":582524,"SoundDuration":582524,"Delta":22975112},{"NoteNumber":62,"Velocity":41,"Duration":582524,"SoundDuration":582524,"Delta":22975112},{"NoteNumber":76,"Velocity":47,"Duration":588235,"SoundDuration":588235,"Delta":23557636},{"NoteNumber":60,"Velocity":38,"Duration":588235,"SoundDuration":588235,"Delta":23557636},{"NoteNumber":76,"Velocity":50,"Duration":283018,"SoundDuration":283018,"Delta":24145872},{"NoteNumber":59,"Velocity":40,"Duration":566037,"SoundDuration":566037,"Delta":24145872},{"NoteNumber":74,"Velocity":45,"Duration":283018,"SoundDuration":283018,"Delta":24428890},{"NoteNumber":72,"Velocity":45,"Duration":283018,"SoundDuration":283018,"Delta":24711909},{"NoteNumber":55,"Velocity":33,"Duration":589141,"SoundDuration":589141,"Delta":24711909},{"NoteNumber":71,"Velocity":45,"Duration":306122,"SoundDuration":306122,"Delta":24994928},{"NoteNumber":74,"Velocity":50,"Duration":285714,"SoundDuration":285714,"Delta":25301050},{"NoteNumber":57,"Velocity":40,"Duration":571428,"SoundDuration":571428,"Delta":25301050},{"NoteNumber":72,"Velocity":45,"Duration":285714,"SoundDuration":285714,"Delta":25586765},{"NoteNumber":71,"Velocity":45,"Duration":285714,"SoundDuration":285714,"Delta":25872479},{"NoteNumber":50,"Velocity":34,"Duration":594992,"SoundDuration":594992,"Delta":25872479},{"NoteNumber":69,"Velocity":45,"Duration":309278,"SoundDuration":309278,"Delta":26158193},{"NoteNumber":71,"Velocity":50,"Duration":582524,"SoundDuration":582524,"Delta":26467471},{"NoteNumber":55,"Velocity":40,"Duration":582524,"SoundDuration":582524,"Delta":26467471},{"NoteNumber":67,"Velocity":46,"Duration":582524,"SoundDuration":582524,"Delta":27049996},{"NoteNumber":50,"Velocity":34,"Duration":291262,"SoundDuration":291262,"Delta":27049996},{"NoteNumber":47,"Velocity":34,"Duration":291262,"SoundDuration":291262,"Delta":27341258},{"NoteNumber":43,"Velocity":40,"Duration":588235,"SoundDuration":588235,"Delta":27632520},{"NoteNumber":74,"Velocity":56,"Duration":588235,"SoundDuration":588235,"Delta":28220756},{"NoteNumber":74,"Velocity":60,"Duration":882353,"SoundDuration":882353,"Delta":28808991},{"NoteNumber":55,"Velocity":48,"Duration":588235,"SoundDuration":588235,"Delta":29397227},{"NoteNumber":76,"Velocity":58,"Duration":147058,"SoundDuration":147058,"Delta":29691345},{"NoteNumber":78,"Velocity":62,"Duration":147058,"SoundDuration":147058,"Delta":29838403},{"NoteNumber":79,"Velocity":67,"Duration":441176,"SoundDuration":441176,"Delta":29985462},{"NoteNumber":59,"Velocity":43,"Duration":588235,"SoundDuration":588235,"Delta":29985462},{"NoteNumber":83,"Velocity":68,"Duration":450000,"SoundDuration":450000,"Delta":30573698},{"NoteNumber":55,"Velocity":52,"Duration":600000,"SoundDuration":600000,"Delta":30573698},{"NoteNumber":83,"Velocity":71,"Duration":1165049,"SoundDuration":1165049,"Delta":31173698},{"NoteNumber":67,"Velocity":51,"Duration":582524,"SoundDuration":582524,"Delta":31756222},{"NoteNumber":81,"Velocity":69,"Duration":582524,"SoundDuration":582524,"Delta":32338747},{"NoteNumber":61,"Velocity":55,"Duration":582524,"SoundDuration":582524,"Delta":32338747},{"NoteNumber":79,"Velocity":66,"Duration":588235,"SoundDuration":588235,"Delta":32921271},{"NoteNumber":64,"Velocity":49,"Duration":588235,"SoundDuration":588235,"Delta":32921271},{"NoteNumber":79,"Velocity":68,"Duration":283018,"SoundDuration":283018,"Delta":33509507},{"NoteNumber":62,"Velocity":57,"Duration":566037,"SoundDuration":566037,"Delta":33509507},{"NoteNumber":78,"Velocity":61,"Duration":283018,"SoundDuration":283018,"Delta":33792526},{"NoteNumber":76,"Velocity":61,"Duration":283018,"SoundDuration":283018,"Delta":34075544},{"NoteNumber":54,"Velocity":46,"Duration":589141,"SoundDuration":589141,"Delta":34075544},{"NoteNumber":74,"Velocity":60,"Duration":306122,"SoundDuration":306122,"Delta":34358563},{"NoteNumber":76,"Velocity":72,"Duration":152380,"SoundDuration":152380,"Delta":34664686},{"NoteNumber":55,"Velocity":54,"Duration":571428,"SoundDuration":571428,"Delta":34664686},{"NoteNumber":78,"Velocity":60,"Duration":152380,"SoundDuration":152380,"Delta":34817066},{"NoteNumber":76,"Velocity":60,"Duration":152380,"SoundDuration":152380,"Delta":34969447},{"NoteNumber":78,"Velocity":67,"Duration":114285,"SoundDuration":114285,"Delta":35121828},{"NoteNumber":76,"Velocity":58,"Duration":114285,"SoundDuration":114285,"Delta":35236114},{"NoteNumber":57,"Velocity":46,"Duration":615384,"SoundDuration":615384,"Delta":35236114},{"NoteNumber":78,"Velocity":62,"Duration":114285,"SoundDuration":114285,"Delta":35350400},{"NoteNumber":76,"Velocity":64,"Duration":123076,"SoundDuration":123076,"Delta":35464685},{"NoteNumber":74,"Velocity":62,"Duration":131868,"SoundDuration":131868,"Delta":35587762},{"NoteNumber":76,"Velocity":64,"Duration":131868,"SoundDuration":131868,"Delta":35719630},{"NoteNumber":74,"Velocity":68,"Duration":1161235,"SoundDuration":1161235,"Delta":35851499},{"NoteNumber":50,"Velocity":54,"Duration":572191,"SoundDuration":572191,"Delta":35851499},{"NoteNumber":45,"Velocity":42,"Duration":294522,"SoundDuration":294522,"Delta":36423690},{"NoteNumber":38,"Velocity":42,"Duration":337078,"SoundDuration":337078,"Delta":37012734},{"NoteNumber":74,"Velocity":70,"Duration":299999,"SoundDuration":299999,"Delta":37686892},{"NoteNumber":86,"Velocity":72,"Duration":326087,"SoundDuration":326087,"Delta":37986892},{"NoteNumber":86,"Velocity":80,"Duration":1166037,"SoundDuration":1166037,"Delta":38312979},{"NoteNumber":65,"Velocity":46,"Duration":600000,"SoundDuration":600000,"Delta":38879016},{"NoteNumber":84,"Velocity":74,"Duration":291262,"SoundDuration":291262,"Delta":39479016},{"NoteNumber":62,"Velocity":54,"Duration":582524,"SoundDuration":582524,"Delta":39479016},{"NoteNumber":83,"Velocity":65,"Duration":145631,"SoundDuration":145631,"Delta":39770278},{"NoteNumber":81,"Velocity":74,"Duration":145631,"SoundDuration":145631,"Delta":40061541},{"NoteNumber":64,"Velocity":51,"Duration":620932,"SoundDuration":620932,"Delta":40061541},{"NoteNumber":80,"Velocity":69,"Duration":164835,"SoundDuration":164835,"Delta":40352803},{"NoteNumber":81,"Velocity":78,"Duration":1173032,"SoundDuration":1173032,"Delta":40682473},{"NoteNumber":57,"Velocity":57,"Duration":572191,"SoundDuration":572191,"Delta":40682473},{"NoteNumber":52,"Velocity":50,"Duration":300420,"SoundDuration":300420,"Delta":41254665},{"NoteNumber":45,"Velocity":51,"Duration":300420,"SoundDuration":300420,"Delta":41855506},{"NoteNumber":72,"Velocity":68,"Duration":299999,"SoundDuration":299999,"Delta":42456347},{"NoteNumber":84,"Velocity":72,"Duration":326087,"SoundDuration":326087,"Delta":42756347},{"NoteNumber":84,"Velocity":80,"Duration":1166037,"SoundDuration":1166037,"Delta":43082434},{"NoteNumber":64,"Velocity":57,"Duration":600000,"SoundDuration":600000,"Delta":43648471},{"NoteNumber":83,"Velocity":75,"Duration":288461,"SoundDuration":288461,"Delta":44248471},{"NoteNumber":60,"Velocity":57,"Duration":576923,"SoundDuration":576923,"Delta":44248471},{"NoteNumber":81,"Velocity":65,"Duration":144230,"SoundDuration":144230,"Delta":44536933},{"NoteNumber":79,"Velocity":74,"Duration":144230,"SoundDuration":144230,"Delta":44825394},{"NoteNumber":62,"Velocity":51,"Duration":618131,"SoundDuration":618131,"Delta":44825394},{"NoteNumber":78,"Velocity":67,"Duration":164835,"SoundDuration":164835,"Delta":45113856},{"NoteNumber":79,"Velocity":78,"Duration":1161017,"SoundDuration":1161017,"Delta":45443526},{"NoteNumber":55,"Velocity":57,"Duration":577700,"SoundDuration":577700,"Delta":45443526},{"NoteNumber":50,"Velocity":50,"Duration":291658,"SoundDuration":291658,"Delta":46021227},{"NoteNumber":43,"Velocity":51,"Duration":319149,"SoundDuration":319149,"Delta":46604544},{"NoteNumber":74,"Velocity":50,"Duration":297029,"SoundDuration":297029,"Delta":47242842},{"NoteNumber":59,"Velocity":38,"Duration":614385,"SoundDuration":614385,"Delta":47242842},{"NoteNumber":55,"Velocity":38,"Duration":614385,"SoundDuration":614385,"Delta":47242842},{"NoteNumber":79,"Velocity":46,"Duration":317355,"SoundDuration":317355,"Delta":47539872},{"NoteNumber":76,"Velocity":50,"Duration":86894,"SoundDuration":86894,"Delta":47857227},{"NoteNumber":55,"Velocity":40,"Duration":1201282,"SoundDuration":1201282,"Delta":47857227},{"NoteNumber":60,"Velocity":40,"Duration":595246,"SoundDuration":595246,"Delta":47857227},{"NoteNumber":78,"Velocity":47,"Duration":85378,"SoundDuration":85378,"Delta":47944122},{"NoteNumber":76,"Velocity":50,"Duration":82524,"SoundDuration":82524,"Delta":48031928},{"NoteNumber":78,"Velocity":46,"Duration":82786,"SoundDuration":82786,"Delta":48114452},{"NoteNumber":76,"Velocity":50,"Duration":83503,"SoundDuration":83503,"Delta":48197238},{"NoteNumber":74,"Velocity":47,"Duration":84232,"SoundDuration":84232,"Delta":48280742},{"NoteNumber":76,"Velocity":47,"Duration":87499,"SoundDuration":87499,"Delta":48364974},{"NoteNumber":74,"Velocity":53,"Duration":606035,"SoundDuration":606035,"Delta":48452474},{"NoteNumber":59,"Velocity":38,"Duration":606035,"SoundDuration":606035,"Delta":48452474},{"NoteNumber":74,"Velocity":50,"Duration":202020,"SoundDuration":202020,"Delta":49058510},{"NoteNumber":76,"Velocity":47,"Duration":202020,"SoundDuration":202020,"Delta":49260530},{"NoteNumber":78,"Velocity":47,"Duration":202020,"SoundDuration":202020,"Delta":49462550},{"NoteNumber":79,"Velocity":50,"Duration":194174,"SoundDuration":194174,"Delta":49664570},{"NoteNumber":55,"Velocity":38,"Duration":610411,"SoundDuration":610411,"Delta":49664570},{"NoteNumber":59,"Velocity":38,"Duration":610411,"SoundDuration":610411,"Delta":49664570},{"NoteNumber":78,"Velocity":46,"Duration":203470,"SoundDuration":203470,"Delta":49858745},{"NoteNumber":79,"Velocity":46,"Duration":212766,"SoundDuration":212766,"Delta":50062215},{"NoteNumber":76,"Velocity":50,"Duration":86894,"SoundDuration":86894,"Delta":50274981},{"NoteNumber":55,"Velocity":40,"Duration":1256610,"SoundDuration":1256610,"Delta":50274981},{"NoteNumber":60,"Velocity":40,"Duration":595246,"SoundDuration":595246,"Delta":50274981},{"NoteNumber":78,"Velocity":47,"Duration":85378,"SoundDuration":85378,"Delta":50361876},{"NoteNumber":76,"Velocity":50,"Duration":82524,"SoundDuration":82524,"Delta":50449682},{"NoteNumber":78,"Velocity":46,"Duration":82786,"SoundDuration":82786,"Delta":50532206},{"NoteNumber":76,"Velocity":50,"Duration":83503,"SoundDuration":83503,"Delta":50614992},{"NoteNumber":74,"Velocity":47,"Duration":84232,"SoundDuration":84232,"Delta":50698495},{"NoteNumber":76,"Velocity":47,"Duration":87499,"SoundDuration":87499,"Delta":50782728},{"NoteNumber":74,"Velocity":53,"Duration":511363,"SoundDuration":511363,"Delta":50870228},{"NoteNumber":59,"Velocity":38,"Duration":661363,"SoundDuration":661363,"Delta":50870228},{"NoteNumber":69,"Velocity":53,"Duration":75000,"SoundDuration":75000,"Delta":51381592},{"NoteNumber":71,"Velocity":53,"Duration":74999,"SoundDuration":74999,"Delta":51456592},{"NoteNumber":72,"Velocity":62,"Duration":1200000,"SoundDuration":1200000,"Delta":51531592},{"NoteNumber":54,"Velocity":38,"Duration":600000,"SoundDuration":600000,"Delta":52131592},{"NoteNumber":72,"Velocity":53,"Duration":280373,"SoundDuration":280373,"Delta":52731592},{"NoteNumber":55,"Velocity":43,"Duration":592873,"SoundDuration":592873,"Delta":52731592},{"NoteNumber":71,"Velocity":50,"Duration":312500,"SoundDuration":312500,"Delta":53011965},{"NoteNumber":69,"Velocity":50,"Duration":291262,"SoundDuration":291262,"Delta":53324465},{"NoteNumber":47,"Velocity":38,"Duration":607051,"SoundDuration":607051,"Delta":53324465},{"NoteNumber":67,"Velocity":51,"Duration":315789,"SoundDuration":315789,"Delta":53615728},{"NoteNumber":71,"Velocity":58,"Duration":303030,"SoundDuration":303030,"Delta":53931517},{"NoteNumber":48,"Velocity":40,"Duration":606060,"SoundDuration":606060,"Delta":53931517},{"NoteNumber":69,"Velocity":51,"Duration":303030,"SoundDuration":303030,"Delta":54234547},{"NoteNumber":67,"Velocity":56,"Duration":303030,"SoundDuration":303030,"Delta":54537578},{"NoteNumber":50,"Velocity":43,"Duration":625610,"SoundDuration":625610,"Delta":54537578},{"NoteNumber":66,"Velocity":61,"Duration":322580,"SoundDuration":322580,"Delta":54840608},{"NoteNumber":67,"Velocity":65,"Duration":333333,"SoundDuration":333333,"Delta":55163189},{"NoteNumber":52,"Velocity":49,"Duration":1225907,"SoundDuration":1225907,"Delta":55163189},{"NoteNumber":79,"Velocity":62,"Duration":297029,"SoundDuration":297029,"Delta":55496522},{"NoteNumber":79,"Velocity":68,"Duration":297029,"SoundDuration":297029,"Delta":55793552},{"NoteNumber":69,"Velocity":66,"Duration":75000,"SoundDuration":75000,"Delta":56239096},{"NoteNumber":71,"Velocity":69,"Duration":74999,"SoundDuration":74999,"Delta":56314096},{"NoteNumber":72,"Velocity":72,"Duration":1200000,"SoundDuration":1200000,"Delta":56389096},{"NoteNumber":54,"Velocity":46,"Duration":1200000,"SoundDuration":1200000,"Delta":56389096},{"NoteNumber":72,"Velocity":70,"Duration":288461,"SoundDuration":288461,"Delta":57589096},{"NoteNumber":55,"Velocity":52,"Duration":600961,"SoundDuration":600961,"Delta":57589096},{"NoteNumber":71,"Velocity":62,"Duration":312500,"SoundDuration":312500,"Delta":57877558},{"NoteNumber":69,"Velocity":62,"Duration":291262,"SoundDuration":291262,"Delta":58190058},{"NoteNumber":47,"Velocity":45,"Duration":607051,"SoundDuration":607051,"Delta":58190058},{"NoteNumber":67,"Velocity":61,"Duration":315789,"SoundDuration":315789,"Delta":58481320},{"NoteNumber":71,"Velocity":67,"Duration":303030,"SoundDuration":303030,"Delta":58797110},{"NoteNumber":48,"Velocity":50,"Duration":606060,"SoundDuration":606060,"Delta":58797110},{"NoteNumber":69,"Velocity":62,"Duration":303030,"SoundDuration":303030,"Delta":59100140},{"NoteNumber":67,"Velocity":64,"Duration":303030,"SoundDuration":303030,"Delta":59403170},{"NoteNumber":50,"Velocity":47,"Duration":615530,"SoundDuration":615530,"Delta":59403170},{"NoteNumber":66,"Velocity":66,"Duration":312500,"SoundDuration":312500,"Delta":59706200},{"NoteNumber":67,"Velocity":73,"Duration":600841,"SoundDuration":600841,"Delta":60018700},{"NoteNumber":55,"Velocity":56,"Duration":300420,"SoundDuration":300420,"Delta":60018700},{"NoteNumber":50,"Velocity":44,"Duration":312956,"SoundDuration":312956,"Delta":60619541},{"NoteNumber":43,"Velocity":48,"Duration":326583,"SoundDuration":326583,"Delta":61245454},{"NoteNumber":74,"Velocity":68,"Duration":299999,"SoundDuration":299999,"Delta":61898622},{"NoteNumber":86,"Velocity":72,"Duration":326087,"SoundDuration":326087,"Delta":62198622},{"NoteNumber":86,"Velocity":80,"Duration":1166037,"SoundDuration":1166037,"Delta":62524709},{"NoteNumber":65,"Velocity":51,"Duration":599999,"SoundDuration":599999,"Delta":63090747},{"NoteNumber":84,"Velocity":73,"Duration":291262,"SoundDuration":291262,"Delta":63690747},{"NoteNumber":62,"Velocity":56,"Duration":582524,"SoundDuration":582524,"Delta":63690747},{"NoteNumber":83,"Velocity":66,"Duration":145631,"SoundDuration":145631,"Delta":63982009},{"NoteNumber":81,"Velocity":73,"Duration":145631,"SoundDuration":145631,"Delta":64273271},{"NoteNumber":64,"Velocity":51,"Duration":620932,"SoundDuration":620932,"Delta":64273271},{"NoteNumber":80,"Velocity":68,"Duration":164835,"SoundDuration":164835,"Delta":64564534},{"NoteNumber":81,"Velocity":78,"Duration":1178542,"SoundDuration":1178542,"Delta":64894204},{"NoteNumber":57,"Velocity":57,"Duration":577701,"SoundDuration":577701,"Delta":64894204},{"NoteNumber":52,"Velocity":50,"Duration":300420,"SoundDuration":300420,"Delta":65471905},{"NoteNumber":45,"Velocity":51,"Duration":300420,"SoundDuration":300420,"Delta":66072746},{"NoteNumber":72,"Velocity":68,"Duration":299999,"SoundDuration":299999,"Delta":66673587},{"NoteNumber":84,"Velocity":72,"Duration":326087,"SoundDuration":326087,"Delta":66973587},{"NoteNumber":84,"Velocity":80,"Duration":1166037,"SoundDuration":1166037,"Delta":67299674},{"NoteNumber":64,"Velocity":57,"Duration":599999,"SoundDuration":599999,"Delta":67865711},{"NoteNumber":83,"Velocity":75,"Duration":288461,"SoundDuration":288461,"Delta":68465711},{"NoteNumber":60,"Velocity":57,"Duration":576922,"SoundDuration":576922,"Delta":68465711},{"NoteNumber":81,"Velocity":68,"Duration":144230,"SoundDuration":144230,"Delta":68754173},{"NoteNumber":79,"Velocity":75,"Duration":144230,"SoundDuration":144230,"Delta":69042634},{"NoteNumber":62,"Velocity":51,"Duration":618131,"SoundDuration":618131,"Delta":69042634},{"NoteNumber":78,"Velocity":67,"Duration":164835,"SoundDuration":164835,"Delta":69331096},{"NoteNumber":79,"Velocity":78,"Duration":1178542,"SoundDuration":1178542,"Delta":69660766},{"NoteNumber":55,"Velocity":57,"Duration":577701,"SoundDuration":577701,"Delta":69660766},{"NoteNumber":50,"Velocity":50,"Duration":300420,"SoundDuration":300420,"Delta":70238467},{"NoteNumber":43,"Velocity":51,"Duration":319148,"SoundDuration":319148,"Delta":70839308},{"NoteNumber":74,"Velocity":50,"Duration":297029,"SoundDuration":297029,"Delta":71477606},{"NoteNumber":59,"Velocity":38,"Duration":614385,"SoundDuration":614385,"Delta":71477606},{"NoteNumber":55,"Velocity":38,"Duration":614385,"SoundDuration":614385,"Delta":71477606},{"NoteNumber":79,"Velocity":46,"Duration":317355,"SoundDuration":317355,"Delta":71774636},{"NoteNumber":76,"Velocity":50,"Duration":86894,"SoundDuration":86894,"Delta":72091992},{"NoteNumber":55,"Velocity":40,"Duration":1201282,"SoundDuration":1201282,"Delta":72091992},{"NoteNumber":60,"Velocity":40,"Duration":595246,"SoundDuration":595246,"Delta":72091992},{"NoteNumber":78,"Velocity":47,"Duration":85378,"SoundDuration":85378,"Delta":72178886},{"NoteNumber":76,"Velocity":50,"Duration":82524,"SoundDuration":82524,"Delta":72266692},{"NoteNumber":78,"Velocity":46,"Duration":82786,"SoundDuration":82786,"Delta":72349217},{"NoteNumber":76,"Velocity":50,"Duration":83503,"SoundDuration":83503,"Delta":72432003},{"NoteNumber":74,"Velocity":47,"Duration":84232,"SoundDuration":84232,"Delta":72515506},{"NoteNumber":76,"Velocity":47,"Duration":87500,"SoundDuration":87500,"Delta":72599739},{"NoteNumber":74,"Velocity":53,"Duration":606035,"SoundDuration":606035,"Delta":72687239},{"NoteNumber":59,"Velocity":38,"Duration":606035,"SoundDuration":606035,"Delta":72687239},{"NoteNumber":74,"Velocity":50,"Duration":202020,"SoundDuration":202020,"Delta":73293274},{"NoteNumber":76,"Velocity":48,"Duration":202020,"SoundDuration":202020,"Delta":73495294},{"NoteNumber":78,"Velocity":48,"Duration":202020,"SoundDuration":202020,"Delta":73697314},{"NoteNumber":79,"Velocity":50,"Duration":194174,"SoundDuration":194174,"Delta":73899334},{"NoteNumber":55,"Velocity":38,"Duration":610411,"SoundDuration":610411,"Delta":73899334},{"NoteNumber":59,"Velocity":38,"Duration":610411,"SoundDuration":610411,"Delta":73899334},{"NoteNumber":78,"Velocity":48,"Duration":203470,"SoundDuration":203470,"Delta":74093509},{"NoteNumber":79,"Velocity":48,"Duration":212766,"SoundDuration":212766,"Delta":74296980},{"NoteNumber":76,"Velocity":50,"Duration":86894,"SoundDuration":86894,"Delta":74509746},{"NoteNumber":55,"Velocity":40,"Duration":1256610,"SoundDuration":1256610,"Delta":74509746},{"NoteNumber":60,"Velocity":40,"Duration":595246,"SoundDuration":595246,"Delta":74509746},{"NoteNumber":78,"Velocity":47,"Duration":85378,"SoundDuration":85378,"Delta":74596640},{"NoteNumber":76,"Velocity":50,"Duration":82524,"SoundDuration":82524,"Delta":74684446},{"NoteNumber":78,"Velocity":46,"Duration":82786,"SoundDuration":82786,"Delta":74766970},{"NoteNumber":76,"Velocity":50,"Duration":83503,"SoundDuration":83503,"Delta":74849757},{"NoteNumber":74,"Velocity":47,"Duration":84232,"SoundDuration":84232,"Delta":74933260},{"NoteNumber":76,"Velocity":47,"Duration":87500,"SoundDuration":87500,"Delta":75017492},{"NoteNumber":74,"Velocity":53,"Duration":511363,"SoundDuration":511363,"Delta":75104992},{"NoteNumber":59,"Velocity":38,"Duration":661363,"SoundDuration":661363,"Delta":75104992},{"NoteNumber":69,"Velocity":53,"Duration":75000,"SoundDuration":75000,"Delta":75616356},{"NoteNumber":71,"Velocity":53,"Duration":75000,"SoundDuration":75000,"Delta":75691356},{"NoteNumber":72,"Velocity":62,"Duration":1200000,"SoundDuration":1200000,"Delta":75766356},{"NoteNumber":54,"Velocity":38,"Duration":600000,"SoundDuration":600000,"Delta":76366356},{"NoteNumber":72,"Velocity":53,"Duration":280373,"SoundDuration":280373,"Delta":76966356},{"NoteNumber":55,"Velocity":43,"Duration":592873,"SoundDuration":592873,"Delta":76966356},{"NoteNumber":71,"Velocity":50,"Duration":312500,"SoundDuration":312500,"Delta":77246730},{"NoteNumber":69,"Velocity":50,"Duration":291262,"SoundDuration":291262,"Delta":77559230},{"NoteNumber":47,"Velocity":38,"Duration":607051,"SoundDuration":607051,"Delta":77559230},{"NoteNumber":67,"Velocity":51,"Duration":315789,"SoundDuration":315789,"Delta":77850492},{"NoteNumber":71,"Velocity":59,"Duration":303030,"SoundDuration":303030,"Delta":78166281},{"NoteNumber":48,"Velocity":40,"Duration":606060,"SoundDuration":606060,"Delta":78166281},{"NoteNumber":69,"Velocity":51,"Duration":303030,"SoundDuration":303030,"Delta":78469312},{"NoteNumber":67,"Velocity":56,"Duration":303030,"SoundDuration":303030,"Delta":78772342},{"NoteNumber":50,"Velocity":43,"Duration":625611,"SoundDuration":625611,"Delta":78772342},{"NoteNumber":66,"Velocity":61,"Duration":322580,"SoundDuration":322580,"Delta":79075372},{"NoteNumber":67,"Velocity":65,"Duration":333333,"SoundDuration":333333,"Delta":79397953},{"NoteNumber":52,"Velocity":49,"Duration":1225907,"SoundDuration":1225907,"Delta":79397953},{"NoteNumber":79,"Velocity":62,"Duration":297029,"SoundDuration":297029,"Delta":79731286},{"NoteNumber":79,"Velocity":68,"Duration":297029,"SoundDuration":297029,"Delta":80028316},{"NoteNumber":69,"Velocity":66,"Duration":75000,"SoundDuration":75000,"Delta":80473861},{"NoteNumber":71,"Velocity":69,"Duration":75000,"SoundDuration":75000,"Delta":80548861},{"NoteNumber":72,"Velocity":72,"Duration":1200000,"SoundDuration":1200000,"Delta":80623861},{"NoteNumber":54,"Velocity":46,"Duration":1200000,"SoundDuration":1200000,"Delta":80623861},{"NoteNumber":72,"Velocity":70,"Duration":288461,"SoundDuration":288461,"Delta":81823861},{"NoteNumber":55,"Velocity":52,"Duration":600961,"SoundDuration":600961,"Delta":81823861},{"NoteNumber":71,"Velocity":62,"Duration":312500,"SoundDuration":312500,"Delta":82112322},{"NoteNumber":69,"Velocity":62,"Duration":291262,"SoundDuration":291262,"Delta":82424822},{"NoteNumber":47,"Velocity":45,"Duration":607051,"SoundDuration":607051,"Delta":82424822},{"NoteNumber":67,"Velocity":61,"Duration":315789,"SoundDuration":315789,"Delta":82716084},{"NoteNumber":71,"Velocity":68,"Duration":303030,"SoundDuration":303030,"Delta":83031874},{"NoteNumber":48,"Velocity":50,"Duration":606060,"SoundDuration":606060,"Delta":83031874},{"NoteNumber":69,"Velocity":62,"Duration":303030,"SoundDuration":303030,"Delta":83334904},{"NoteNumber":67,"Velocity":64,"Duration":303030,"SoundDuration":303030,"Delta":83637934},{"NoteNumber":50,"Velocity":47,"Duration":615530,"SoundDuration":615530,"Delta":83637934},{"NoteNumber":66,"Velocity":66,"Duration":312500,"SoundDuration":312500,"Delta":83940965},{"NoteNumber":67,"Velocity":73,"Duration":1370005,"SoundDuration":1370005,"Delta":84253465},{"NoteNumber":55,"Velocity":56,"Duration":638298,"SoundDuration":638298,"Delta":84253465},{"NoteNumber":50,"Velocity":49,"Duration":365853,"SoundDuration":365853,"Delta":84891763},{"NoteNumber":43,"Velocity":50,"Duration":786910,"SoundDuration":786910,"Delta":85623470}]}