{"title":"Sonata Hoboken XVI:8 2. Satz","artist":"Piano","durationMs":57966,"midiSha256":"090545668ba5fc3f56eb2f529e202830d9a6814529850fa9695acbd5a9140b19","midiObject":[{"NoteNumber":67,"Velocity":48,"Duration":600000,"SoundDuration":600000,"Delta":0},{"NoteNumber":71,"Velocity":50,"Duration":600000,"SoundDuration":600000,"Delta":600000},{"NoteNumber":55,"Velocity":41,"Duration":600000,"SoundDuration":600000,"Delta":600000},{"NoteNumber":43,"Velocity":41,"Duration":599999,"SoundDuration":599999,"Delta":1200000},{"NoteNumber":69,"Velocity":50,"Duration":143540,"SoundDuration":143540,"Delta":1799999},{"NoteNumber":67,"Velocity":45,"Duration":143540,"SoundDuration":143540,"Delta":1943540},{"NoteNumber":69,"Velocity":45,"Duration":143540,"SoundDuration":143540,"Delta":2087081},{"NoteNumber":71,"Velocity":45,"Duration":154639,"SoundDuration":154639,"Delta":2230622},{"NoteNumber":72,"Velocity":50,"Duration":597014,"SoundDuration":597014,"Delta":2385261},{"NoteNumber":54,"Velocity":41,"Duration":597014,"SoundDuration":597014,"Delta":2385261},{"NoteNumber":50,"Velocity":36,"Duration":597014,"SoundDuration":597014,"Delta":2982276},{"NoteNumber":72,"Velocity":50,"Duration":289855,"SoundDuration":289855,"Delta":3579291},{"NoteNumber":55,"Velocity":41,"Duration":592885,"SoundDuration":592885,"Delta":3579291},{"NoteNumber":71,"Velocity":49,"Duration":303030,"SoundDuration":303030,"Delta":3869146},{"NoteNumber":76,"Velocity":55,"Duration":289855,"SoundDuration":289855,"Delta":4172176},{"NoteNumber":74,"Velocity":50,"Duration":312500,"SoundDuration":312500,"Delta":4462032},{"NoteNumber":79,"Velocity":55,"Duration":193236,"SoundDuration":193236,"Delta":4774532},{"NoteNumber":78,"Velocity":50,"Duration":203570,"SoundDuration":203570,"Delta":4967768},{"NoteNumber":76,"Velocity":50,"Duration":213903,"SoundDuration":213903,"Delta":5171338},{"NoteNumber":74,"Velocity":57,"Duration":590034,"SoundDuration":590034,"Delta":5385242},{"NoteNumber":59,"Velocity":41,"Duration":590034,"SoundDuration":590034,"Delta":5385242},{"NoteNumber":72,"Velocity":59,"Duration":96171,"SoundDuration":96171,"Delta":5975277},{"NoteNumber":50,"Velocity":35,"Duration":582999,"SoundDuration":582999,"Delta":5975277},{"NoteNumber":57,"Velocity":42,"Duration":582999,"SoundDuration":582999,"Delta":5975277},{"NoteNumber":74,"Velocity":50,"Duration":96618,"SoundDuration":96618,"Delta":6071448},{"NoteNumber":72,"Velocity":50,"Duration":97011,"SoundDuration":97011,"Delta":6168066},{"NoteNumber":71,"Velocity":53,"Duration":146169,"SoundDuration":146169,"Delta":6265077},{"NoteNumber":72,"Velocity":44,"Duration":147028,"SoundDuration":147028,"Delta":6411247},{"NoteNumber":71,"Velocity":50,"Duration":588235,"SoundDuration":588235,"Delta":6558276},{"NoteNumber":55,"Velocity":51,"Duration":588235,"SoundDuration":588235,"Delta":6558276},{"NoteNumber":83,"Velocity":64,"Duration":147058,"SoundDuration":147058,"Delta":7146511},{"NoteNumber":81,"Velocity":60,"Duration":147058,"SoundDuration":147058,"Delta":7293570},{"NoteNumber":83,"Velocity":58,"Duration":147058,"SoundDuration":147058,"Delta":7440628},{"NoteNumber":84,"Velocity":60,"Duration":163043,"SoundDuration":163043,"Delta":7587687},{"NoteNumber":86,"Velocity":64,"Duration":292682,"SoundDuration":292682,"Delta":7750731},{"NoteNumber":55,"Velocity":43,"Duration":585365,"SoundDuration":585365,"Delta":7750731},{"NoteNumber":59,"Velocity":51,"Duration":585365,"SoundDuration":585365,"Delta":7750731},{"NoteNumber":55,"Velocity":36,"Duration":597251,"SoundDuration":597251,"Delta":8336097},{"NoteNumber":59,"Velocity":43,"Duration":597251,"SoundDuration":597251,"Delta":8336097},{"NoteNumber":81,"Velocity":69,"Duration":193236,"SoundDuration":193236,"Delta":8933348},{"NoteNumber":54,"Velocity":47,"Duration":592658,"SoundDuration":592658,"Delta":8933348},{"NoteNumber":62,"Velocity":56,"Duration":592658,"SoundDuration":592658,"Delta":8933348},{"NoteNumber":83,"Velocity":61,"Duration":193236,"SoundDuration":193236,"Delta":9126585},{"NoteNumber":81,"Velocity":61,"Duration":206185,"SoundDuration":206185,"Delta":9319821},{"NoteNumber":86,"Velocity":72,"Duration":195121,"SoundDuration":195121,"Delta":9526007},{"NoteNumber":85,"Velocity":64,"Duration":195121,"SoundDuration":195121,"Delta":9721129},{"NoteNumber":83,"Velocity":64,"Duration":195122,"SoundDuration":195122,"Delta":9916251},{"NoteNumber":81,"Velocity":69,"Duration":195121,"SoundDuration":195121,"Delta":10111373},{"NoteNumber":79,"Velocity":62,"Duration":195122,"SoundDuration":195122,"Delta":10306495},{"NoteNumber":78,"Velocity":62,"Duration":211640,"SoundDuration":211640,"Delta":10501617},{"NoteNumber":76,"Velocity":69,"Duration":194174,"SoundDuration":194174,"Delta":10713257},{"NoteNumber":67,"Velocity":58,"Duration":594535,"SoundDuration":594535,"Delta":10713257},{"NoteNumber":55,"Velocity":49,"Duration":594535,"SoundDuration":594535,"Delta":10713257},{"NoteNumber":79,"Velocity":60,"Duration":194174,"SoundDuration":194174,"Delta":10907432},{"NoteNumber":83,"Velocity":60,"Duration":206185,"SoundDuration":206185,"Delta":11101607},{"NoteNumber":74,"Velocity":68,"Duration":588235,"SoundDuration":588235,"Delta":11307792},{"NoteNumber":66,"Velocity":51,"Duration":588235,"SoundDuration":588235,"Delta":11307792},{"NoteNumber":57,"Velocity":43,"Duration":1189311,"SoundDuration":1189311,"Delta":11307792},{"NoteNumber":73,"Velocity":66,"Duration":101234,"SoundDuration":101234,"Delta":11896027},{"NoteNumber":64,"Velocity":51,"Duration":601076,"SoundDuration":601076,"Delta":11896027},{"NoteNumber":74,"Velocity":60,"Duration":100058,"SoundDuration":100058,"Delta":11997262},{"NoteNumber":73,"Velocity":60,"Duration":98564,"SoundDuration":98564,"Delta":12097320},{"NoteNumber":74,"Velocity":64,"Duration":73729,"SoundDuration":73729,"Delta":12195885},{"NoteNumber":73,"Velocity":52,"Duration":74883,"SoundDuration":74883,"Delta":12269615},{"NoteNumber":71,"Velocity":53,"Duration":75714,"SoundDuration":75714,"Delta":12344498},{"NoteNumber":73,"Velocity":59,"Duration":76891,"SoundDuration":76891,"Delta":12420212},{"NoteNumber":74,"Velocity":68,"Duration":634921,"SoundDuration":634921,"Delta":12497104},{"NoteNumber":62,"Velocity":57,"Duration":634921,"SoundDuration":634921,"Delta":12497104},{"NoteNumber":57,"Velocity":45,"Duration":158730,"SoundDuration":158730,"Delta":13132025},{"NoteNumber":50,"Velocity":51,"Duration":317460,"SoundDuration":317460,"Delta":13766946},{"NoteNumber":67,"Velocity":48,"Duration":599999,"SoundDuration":599999,"Delta":14401867},{"NoteNumber":71,"Velocity":50,"Duration":599999,"SoundDuration":599999,"Delta":15001867},{"NoteNumber":55,"Velocity":41,"Duration":599999,"SoundDuration":599999,"Delta":15001867},{"NoteNumber":43,"Velocity":41,"Duration":600000,"SoundDuration":600000,"Delta":15601867},{"NoteNumber":69,"Velocity":50,"Duration":143540,"SoundDuration":143540,"Delta":16201867},{"NoteNumber":67,"Velocity":45,"Duration":143540,"SoundDuration":143540,"Delta":16345408},{"NoteNumber":69,"Velocity":45,"Duration":143540,"SoundDuration":143540,"Delta":16488949},{"NoteNumber":71,"Velocity":45,"Duration":154639,"SoundDuration":154639,"Delta":16632489},{"NoteNumber":72,"Velocity":50,"Duration":597014,"SoundDuration":597014,"Delta":16787129},{"NoteNumber":54,"Velocity":41,"Duration":597014,"SoundDuration":597014,"Delta":16787129},{"NoteNumber":50,"Velocity":36,"Duration":597015,"SoundDuration":597015,"Delta":17384144},{"NoteNumber":72,"Velocity":50,"Duration":289854,"SoundDuration":289854,"Delta":17981159},{"NoteNumber":55,"Velocity":41,"Duration":592885,"SoundDuration":592885,"Delta":17981159},{"NoteNumber":71,"Velocity":49,"Duration":303030,"SoundDuration":303030,"Delta":18271014},{"NoteNumber":76,"Velocity":55,"Duration":289854,"SoundDuration":289854,"Delta":18574044},{"NoteNumber":74,"Velocity":50,"Duration":312500,"SoundDuration":312500,"Delta":18863899},{"NoteNumber":79,"Velocity":55,"Duration":193236,"SoundDuration":193236,"Delta":19176399},{"NoteNumber":78,"Velocity":50,"Duration":203570,"SoundDuration":203570,"Delta":19369636},{"NoteNumber":76,"Velocity":50,"Duration":213903,"SoundDuration":213903,"Delta":19573206},{"NoteNumber":74,"Velocity":57,"Duration":590034,"SoundDuration":590034,"Delta":19787110},{"NoteNumber":59,"Velocity":41,"Duration":590034,"SoundDuration":590034,"Delta":19787110},{"NoteNumber":72,"Velocity":59,"Duration":96171,"SoundDuration":96171,"Delta":20377144},{"NoteNumber":50,"Velocity":35,"Duration":582999,"SoundDuration":582999,"Delta":20377144},{"NoteNumber":57,"Velocity":42,"Duration":582999,"SoundDuration":582999,"Delta":20377144},{"NoteNumber":74,"Velocity":50,"Duration":96618,"SoundDuration":96618,"Delta":20473315},{"NoteNumber":72,"Velocity":50,"Duration":97011,"SoundDuration":97011,"Delta":20569934},{"NoteNumber":71,"Velocity":53,"Duration":146169,"SoundDuration":146169,"Delta":20666945},{"NoteNumber":72,"Velocity":44,"Duration":147028,"SoundDuration":147028,"Delta":20813115},{"NoteNumber":71,"Velocity":50,"Duration":588235,"SoundDuration":588235,"Delta":20960144},{"NoteNumber":55,"Velocity":51,"Duration":588235,"SoundDuration":588235,"Delta":20960144},{"NoteNumber":83,"Velocity":64,"Duration":147058,"SoundDuration":147058,"Delta":21548379},{"NoteNumber":81,"Velocity":60,"Duration":147058,"SoundDuration":147058,"Delta":21695437},{"NoteNumber":83,"Velocity":58,"Duration":147058,"SoundDuration":147058,"Delta":21842496},{"NoteNumber":84,"Velocity":60,"Duration":163043,"SoundDuration":163043,"Delta":21989555},{"NoteNumber":86,"Velocity":64,"Duration":292683,"SoundDuration":292683,"Delta":22152598},{"NoteNumber":55,"Velocity":43,"Duration":585366,"SoundDuration":585366,"Delta":22152598},{"NoteNumber":59,"Velocity":51,"Duration":585366,"SoundDuration":585366,"Delta":22152598},{"NoteNumber":55,"Velocity":36,"Duration":597251,"SoundDuration":597251,"Delta":22737964},{"NoteNumber":59,"Velocity":43,"Duration":597251,"SoundDuration":597251,"Delta":22737964},{"NoteNumber":81,"Velocity":69,"Duration":193236,"SoundDuration":193236,"Delta":23335216},{"NoteNumber":54,"Velocity":47,"Duration":592658,"SoundDuration":592658,"Delta":23335216},{"NoteNumber":62,"Velocity":56,"Duration":592658,"SoundDuration":592658,"Delta":23335216},{"NoteNumber":83,"Velocity":61,"Duration":193236,"SoundDuration":193236,"Delta":23528452},{"NoteNumber":81,"Velocity":61,"Duration":206185,"SoundDuration":206185,"Delta":23721689},{"NoteNumber":86,"Velocity":72,"Duration":195122,"SoundDuration":195122,"Delta":23927875},{"NoteNumber":85,"Velocity":64,"Duration":195121,"SoundDuration":195121,"Delta":24122997},{"NoteNumber":83,"Velocity":64,"Duration":195122,"SoundDuration":195122,"Delta":24318119},{"NoteNumber":81,"Velocity":69,"Duration":195121,"SoundDuration":195121,"Delta":24513241},{"NoteNumber":79,"Velocity":62,"Duration":195122,"SoundDuration":195122,"Delta":24708363},{"NoteNumber":78,"Velocity":62,"Duration":211640,"SoundDuration":211640,"Delta":24903485},{"NoteNumber":76,"Velocity":69,"Duration":194174,"SoundDuration":194174,"Delta":25115125},{"NoteNumber":67,"Velocity":58,"Duration":594534,"SoundDuration":594534,"Delta":25115125},{"NoteNumber":55,"Velocity":49,"Duration":594534,"SoundDuration":594534,"Delta":25115125},{"NoteNumber":79,"Velocity":60,"Duration":194174,"SoundDuration":194174,"Delta":25309300},{"NoteNumber":83,"Velocity":60,"Duration":206185,"SoundDuration":206185,"Delta":25503474},{"NoteNumber":74,"Velocity":68,"Duration":588235,"SoundDuration":588235,"Delta":25709660},{"NoteNumber":66,"Velocity":51,"Duration":588235,"SoundDuration":588235,"Delta":25709660},{"NoteNumber":57,"Velocity":43,"Duration":1189311,"SoundDuration":1189311,"Delta":25709660},{"NoteNumber":73,"Velocity":66,"Duration":101234,"SoundDuration":101234,"Delta":26297895},{"NoteNumber":64,"Velocity":51,"Duration":601076,"SoundDuration":601076,"Delta":26297895},{"NoteNumber":74,"Velocity":60,"Duration":100058,"SoundDuration":100058,"Delta":26399130},{"NoteNumber":73,"Velocity":60,"Duration":98564,"SoundDuration":98564,"Delta":26499188},{"NoteNumber":74,"Velocity":64,"Duration":73729,"SoundDuration":73729,"Delta":26597753},{"NoteNumber":73,"Velocity":52,"Duration":74883,"SoundDuration":74883,"Delta":26671483},{"NoteNumber":71,"Velocity":53,"Duration":75714,"SoundDuration":75714,"Delta":26746366},{"NoteNumber":73,"Velocity":59,"Duration":76891,"SoundDuration":76891,"Delta":26822080},{"NoteNumber":74,"Velocity":68,"Duration":634920,"SoundDuration":634920,"Delta":26898972},{"NoteNumber":62,"Velocity":57,"Duration":634920,"SoundDuration":634920,"Delta":26898972},{"NoteNumber":57,"Velocity":45,"Duration":158730,"SoundDuration":158730,"Delta":27533893},{"NoteNumber":50,"Velocity":51,"Duration":317460,"SoundDuration":317460,"Delta":28168814},{"NoteNumber":74,"Velocity":48,"Duration":600000,"SoundDuration":600000,"Delta":28803735},{"NoteNumber":59,"Velocity":41,"Duration":600000,"SoundDuration":600000,"Delta":28803735},{"NoteNumber":71,"Velocity":50,"Duration":599999,"SoundDuration":599999,"Delta":29403735},{"NoteNumber":56,"Velocity":41,"Duration":599999,"SoundDuration":599999,"Delta":29403735},{"NoteNumber":52,"Velocity":41,"Duration":600000,"SoundDuration":600000,"Delta":30003735},{"NoteNumber":72,"Velocity":50,"Duration":143540,"SoundDuration":143540,"Delta":30603735},{"NoteNumber":57,"Velocity":41,"Duration":585261,"SoundDuration":585261,"Delta":30603735},{"NoteNumber":71,"Velocity":45,"Duration":143540,"SoundDuration":143540,"Delta":30747275},{"NoteNumber":72,"Velocity":45,"Duration":143540,"SoundDuration":143540,"Delta":30890816},{"NoteNumber":74,"Velocity":45,"Duration":154639,"SoundDuration":154639,"Delta":31034357},{"NoteNumber":76,"Velocity":50,"Duration":597014,"SoundDuration":597014,"Delta":31188996},{"NoteNumber":60,"Velocity":41,"Duration":597014,"SoundDuration":597014,"Delta":31188996},{"NoteNumber":57,"Velocity":36,"Duration":597015,"SoundDuration":597015,"Delta":31786011},{"NoteNumber":72,"Velocity":50,"Duration":289855,"SoundDuration":289855,"Delta":32383026},{"NoteNumber":54,"Velocity":41,"Duration":592885,"SoundDuration":592885,"Delta":32383026},{"NoteNumber":69,"Velocity":49,"Duration":303030,"SoundDuration":303030,"Delta":32672881},{"NoteNumber":71,"Velocity":55,"Duration":289855,"SoundDuration":289855,"Delta":32975912},{"NoteNumber":55,"Velocity":34,"Duration":602355,"SoundDuration":602355,"Delta":32975912},{"NoteNumber":67,"Velocity":50,"Duration":312500,"SoundDuration":312500,"Delta":33265767},{"NoteNumber":79,"Velocity":64,"Duration":193236,"SoundDuration":193236,"Delta":33578267},{"NoteNumber":78,"Velocity":57,"Duration":203570,"SoundDuration":203570,"Delta":33771503},{"NoteNumber":76,"Velocity":56,"Duration":213903,"SoundDuration":213903,"Delta":33975074},{"NoteNumber":74,"Velocity":65,"Duration":590034,"SoundDuration":590034,"Delta":34188977},{"NoteNumber":59,"Velocity":41,"Duration":590034,"SoundDuration":590034,"Delta":34188977},{"NoteNumber":72,"Velocity":59,"Duration":96171,"SoundDuration":96171,"Delta":34779012},{"NoteNumber":50,"Velocity":35,"Duration":582999,"SoundDuration":582999,"Delta":34779012},{"NoteNumber":57,"Velocity":42,"Duration":582999,"SoundDuration":582999,"Delta":34779012},{"NoteNumber":74,"Velocity":50,"Duration":96618,"SoundDuration":96618,"Delta":34875183},{"NoteNumber":72,"Velocity":50,"Duration":97011,"SoundDuration":97011,"Delta":34971801},{"NoteNumber":71,"Velocity":53,"Duration":146169,"SoundDuration":146169,"Delta":35068812},{"NoteNumber":72,"Velocity":44,"Duration":147028,"SoundDuration":147028,"Delta":35214982},{"NoteNumber":71,"Velocity":50,"Duration":588234,"SoundDuration":588234,"Delta":35362011},{"NoteNumber":55,"Velocity":51,"Duration":588234,"SoundDuration":588234,"Delta":35362011},{"NoteNumber":76,"Velocity":64,"Duration":147058,"SoundDuration":147058,"Delta":35950246},{"NoteNumber":60,"Velocity":54,"Duration":604219,"SoundDuration":604219,"Delta":35950246},{"NoteNumber":74,"Velocity":60,"Duration":147058,"SoundDuration":147058,"Delta":36097305},{"NoteNumber":76,"Velocity":58,"Duration":147058,"SoundDuration":147058,"Delta":36244364},{"NoteNumber":78,"Velocity":60,"Duration":163043,"SoundDuration":163043,"Delta":36391422},{"NoteNumber":79,"Velocity":64,"Duration":292682,"SoundDuration":292682,"Delta":36554466},{"NoteNumber":59,"Velocity":51,"Duration":585366,"SoundDuration":585366,"Delta":36554466},{"NoteNumber":79,"Velocity":61,"Duration":146341,"SoundDuration":146341,"Delta":36847149},{"NoteNumber":79,"Velocity":61,"Duration":146341,"SoundDuration":146341,"Delta":37139832},{"NoteNumber":55,"Velocity":51,"Duration":597251,"SoundDuration":597251,"Delta":37139832},{"NoteNumber":79,"Velocity":61,"Duration":152284,"SoundDuration":152284,"Delta":37432515},{"NoteNumber":78,"Velocity":68,"Duration":147058,"SoundDuration":147058,"Delta":37737083},{"NoteNumber":57,"Velocity":59,"Duration":604219,"SoundDuration":604219,"Delta":37737083},{"NoteNumber":76,"Velocity":66,"Duration":147058,"SoundDuration":147058,"Delta":37884142},{"NoteNumber":78,"Velocity":59,"Duration":147058,"SoundDuration":147058,"Delta":38031201},{"NoteNumber":79,"Velocity":65,"Duration":163043,"SoundDuration":163043,"Delta":38178260},{"NoteNumber":81,"Velocity":69,"Duration":292682,"SoundDuration":292682,"Delta":38341303},{"NoteNumber":54,"Velocity":57,"Duration":585366,"SoundDuration":585366,"Delta":38341303},{"NoteNumber":72,"Velocity":65,"Duration":146341,"SoundDuration":146341,"Delta":38633986},{"NoteNumber":72,"Velocity":65,"Duration":146341,"SoundDuration":146341,"Delta":38926669},{"NoteNumber":55,"Velocity":59,"Duration":597251,"SoundDuration":597251,"Delta":38926669},{"NoteNumber":71,"Velocity":65,"Duration":152284,"SoundDuration":152284,"Delta":39219352},{"NoteNumber":69,"Velocity":74,"Duration":203045,"SoundDuration":203045,"Delta":39523921},{"NoteNumber":60,"Velocity":58,"Duration":612276,"SoundDuration":612276,"Delta":39523921},{"NoteNumber":48,"Velocity":49,"Duration":612276,"SoundDuration":612276,"Delta":39523921},{"NoteNumber":72,"Velocity":60,"Duration":203045,"SoundDuration":203045,"Delta":39726966},{"NoteNumber":76,"Velocity":60,"Duration":206185,"SoundDuration":206185,"Delta":39930012},{"NoteNumber":67,"Velocity":68,"Duration":588234,"SoundDuration":588234,"Delta":40136198},{"NoteNumber":50,"Velocity":43,"Duration":1189311,"SoundDuration":1189311,"Delta":40136198},{"NoteNumber":59,"Velocity":51,"Duration":588234,"SoundDuration":588234,"Delta":40136198},{"NoteNumber":66,"Velocity":66,"Duration":101234,"SoundDuration":101234,"Delta":40724433},{"NoteNumber":57,"Velocity":51,"Duration":601076,"SoundDuration":601076,"Delta":40724433},{"NoteNumber":67,"Velocity":60,"Duration":100058,"SoundDuration":100058,"Delta":40825667},{"NoteNumber":66,"Velocity":60,"Duration":98564,"SoundDuration":98564,"Delta":40925725},{"NoteNumber":67,"Velocity":64,"Duration":73729,"SoundDuration":73729,"Delta":41024290},{"NoteNumber":66,"Velocity":52,"Duration":74883,"SoundDuration":74883,"Delta":41098020},{"NoteNumber":64,"Velocity":53,"Duration":75714,"SoundDuration":75714,"Delta":41172903},{"NoteNumber":66,"Velocity":59,"Duration":76891,"SoundDuration":76891,"Delta":41248617},{"NoteNumber":67,"Velocity":68,"Duration":1269841,"SoundDuration":1269841,"Delta":41325509},{"NoteNumber":55,"Velocity":57,"Duration":634920,"SoundDuration":634920,"Delta":41325509},{"NoteNumber":50,"Velocity":45,"Duration":158730,"SoundDuration":158730,"Delta":41960430},{"NoteNumber":43,"Velocity":51,"Duration":317460,"SoundDuration":317460,"Delta":42595351},{"NoteNumber":74,"Velocity":48,"Duration":600000,"SoundDuration":600000,"Delta":43230272},{"NoteNumber":59,"Velocity":41,"Duration":600000,"SoundDuration":600000,"Delta":43230272},{"NoteNumber":71,"Velocity":50,"Duration":600000,"SoundDuration":600000,"Delta":43830272},{"NoteNumber":56,"Velocity":41,"Duration":600000,"SoundDuration":600000,"Delta":43830272},{"NoteNumber":52,"Velocity":41,"Duration":599999,"SoundDuration":599999,"Delta":44430272},{"NoteNumber":72,"Velocity":50,"Duration":143540,"SoundDuration":143540,"Delta":45030272},{"NoteNumber":57,"Velocity":41,"Duration":585261,"SoundDuration":585261,"Delta":45030272},{"NoteNumber":71,"Velocity":45,"Duration":143540,"SoundDuration":143540,"Delta":45173813},{"NoteNumber":72,"Velocity":45,"Duration":143540,"SoundDuration":143540,"Delta":45317354},{"NoteNumber":74,"Velocity":45,"Duration":154639,"SoundDuration":154639,"Delta":45460895},{"NoteNumber":76,"Velocity":50,"Duration":597014,"SoundDuration":597014,"Delta":45615534},{"NoteNumber":60,"Velocity":41,"Duration":597014,"SoundDuration":597014,"Delta":45615534},{"NoteNumber":57,"Velocity":36,"Duration":597014,"SoundDuration":597014,"Delta":46212549},{"NoteNumber":72,"Velocity":50,"Duration":289855,"SoundDuration":289855,"Delta":46809564},{"NoteNumber":54,"Velocity":41,"Duration":592885,"SoundDuration":592885,"Delta":46809564},{"NoteNumber":69,"Velocity":49,"Duration":303030,"SoundDuration":303030,"Delta":47099419},{"NoteNumber":71,"Velocity":55,"Duration":289855,"SoundDuration":289855,"Delta":47402449},{"NoteNumber":55,"Velocity":34,"Duration":602355,"SoundDuration":602355,"Delta":47402449},{"NoteNumber":67,"Velocity":50,"Duration":312500,"SoundDuration":312500,"Delta":47692304},{"NoteNumber":79,"Velocity":64,"Duration":193236,"SoundDuration":193236,"Delta":48004804},{"NoteNumber":78,"Velocity":57,"Duration":203570,"SoundDuration":203570,"Delta":48198041},{"NoteNumber":76,"Velocity":56,"Duration":213903,"SoundDuration":213903,"Delta":48401611},{"NoteNumber":74,"Velocity":65,"Duration":590034,"SoundDuration":590034,"Delta":48615515},{"NoteNumber":59,"Velocity":41,"Duration":590034,"SoundDuration":590034,"Delta":48615515},{"NoteNumber":72,"Velocity":59,"Duration":96171,"SoundDuration":96171,"Delta":49205549},{"NoteNumber":50,"Velocity":35,"Duration":582999,"SoundDuration":582999,"Delta":49205549},{"NoteNumber":57,"Velocity":42,"Duration":582999,"SoundDuration":582999,"Delta":49205549},{"NoteNumber":74,"Velocity":50,"Duration":96618,"SoundDuration":96618,"Delta":49301721},{"NoteNumber":72,"Velocity":50,"Duration":97011,"SoundDuration":97011,"Delta":49398339},{"NoteNumber":71,"Velocity":53,"Duration":146169,"SoundDuration":146169,"Delta":49495350},{"NoteNumber":72,"Velocity":44,"Duration":147028,"SoundDuration":147028,"Delta":49641520},{"NoteNumber":71,"Velocity":50,"Duration":588234,"SoundDuration":588234,"Delta":49788549},{"NoteNumber":55,"Velocity":51,"Duration":588234,"SoundDuration":588234,"Delta":49788549},{"NoteNumber":76,"Velocity":64,"Duration":147058,"SoundDuration":147058,"Delta":50376784},{"NoteNumber":60,"Velocity":54,"Duration":604219,"SoundDuration":604219,"Delta":50376784},{"NoteNumber":74,"Velocity":60,"Duration":147058,"SoundDuration":147058,"Delta":50523842},{"NoteNumber":76,"Velocity":58,"Duration":147058,"SoundDuration":147058,"Delta":50670901},{"NoteNumber":78,"Velocity":60,"Duration":163043,"SoundDuration":163043,"Delta":50817960},{"NoteNumber":79,"Velocity":64,"Duration":292682,"SoundDuration":292682,"Delta":50981003},{"NoteNumber":59,"Velocity":51,"Duration":585366,"SoundDuration":585366,"Delta":50981003},{"NoteNumber":79,"Velocity":61,"Duration":146341,"SoundDuration":146341,"Delta":51273686},{"NoteNumber":79,"Velocity":61,"Duration":146341,"SoundDuration":146341,"Delta":51566369},{"NoteNumber":55,"Velocity":51,"Duration":597251,"SoundDuration":597251,"Delta":51566369},{"NoteNumber":79,"Velocity":61,"Duration":152284,"SoundDuration":152284,"Delta":51859052},{"NoteNumber":78,"Velocity":68,"Duration":147058,"SoundDuration":147058,"Delta":52163621},{"NoteNumber":57,"Velocity":59,"Duration":604219,"SoundDuration":604219,"Delta":52163621},{"NoteNumber":76,"Velocity":66,"Duration":147058,"SoundDuration":147058,"Delta":52310680},{"NoteNumber":78,"Velocity":59,"Duration":147058,"SoundDuration":147058,"Delta":52457738},{"NoteNumber":79,"Velocity":65,"Duration":163043,"SoundDuration":163043,"Delta":52604797},{"NoteNumber":81,"Velocity":70,"Duration":292682,"SoundDuration":292682,"Delta":52767841},{"NoteNumber":54,"Velocity":57,"Duration":585366,"SoundDuration":585366,"Delta":52767841},{"NoteNumber":72,"Velocity":65,"Duration":146341,"SoundDuration":146341,"Delta":53060524},{"NoteNumber":72,"Velocity":65,"Duration":146341,"SoundDuration":146341,"Delta":53353207},{"NoteNumber":55,"Velocity":59,"Duration":597251,"SoundDuration":597251,"Delta":53353207},{"NoteNumber":71,"Velocity":65,"Duration":152284,"SoundDuration":152284,"Delta":53645890},{"NoteNumber":69,"Velocity":74,"Duration":203045,"SoundDuration":203045,"Delta":53950458},{"NoteNumber":60,"Velocity":58,"Duration":612276,"SoundDuration":612276,"Delta":53950458},{"NoteNumber":48,"Velocity":49,"Duration":612276,"SoundDuration":612276,"Delta":53950458},{"NoteNumber":72,"Velocity":60,"Duration":203045,"SoundDuration":203045,"Delta":54153504},{"NoteNumber":76,"Velocity":60,"Duration":206185,"SoundDuration":206185,"Delta":54356550},{"NoteNumber":67,"Velocity":68,"Duration":588234,"SoundDuration":588234,"Delta":54562735},{"NoteNumber":50,"Velocity":43,"Duration":1189311,"SoundDuration":1189311,"Delta":54562735},{"NoteNumber":59,"Velocity":51,"Duration":588234,"SoundDuration":588234,"Delta":54562735},{"NoteNumber":66,"Velocity":66,"Duration":101234,"SoundDuration":101234,"Delta":55150970},{"NoteNumber":57,"Velocity":51,"Duration":601076,"SoundDuration":601076,"Delta":55150970},{"NoteNumber":67,"Velocity":60,"Duration":100058,"SoundDuration":100058,"Delta":55252205},{"NoteNumber":66,"Velocity":60,"Duration":98564,"SoundDuration":98564,"Delta":55352263},{"NoteNumber":67,"Velocity":64,"Duration":73729,"SoundDuration":73729,"Delta":55450828},{"NoteNumber":66,"Velocity":52,"Duration":74883,"SoundDuration":74883,"Delta":55524558},{"NoteNumber":64,"Velocity":53,"Duration":75714,"SoundDuration":75714,"Delta":55599441},{"NoteNumber":66,"Velocity":59,"Duration":76891,"SoundDuration":76891,"Delta":55675155},{"NoteNumber":67,"Velocity":68,"Duration":1434958,"SoundDuration":1434958,"Delta":55752047},{"NoteNumber":55,"Velocity":57,"Duration":655737,"SoundDuration":655737,"Delta":55752047},{"NoteNumber":50,"Velocity":45,"Duration":194805,"SoundDuration":194805,"Delta":56407785},{"NoteNumber":43,"Velocity":51,"Duration":779220,"SoundDuration":779220,"Delta":57187006}]}