{"title":"Tango","artist":"Piano","durationMs":154836,"midiSha256":"92180d583957c5e1602e40d0638a92a1037d99b970876430412ed3a33a8ba113","midiObject":[{"NoteNumber":38,"Velocity":53,"Duration":1560888,"SoundDuration":1560888,"Delta":0},{"NoteNumber":50,"Velocity":53,"Duration":1560888,"SoundDuration":1560888,"Delta":0},{"NoteNumber":57,"Velocity":49,"Duration":256629,"SoundDuration":256629,"Delta":791000},{"NoteNumber":54,"Velocity":49,"Duration":1101494,"SoundDuration":1101494,"Delta":1047629},{"NoteNumber":69,"Velocity":55,"Duration":1101494,"SoundDuration":1101494,"Delta":1047629},{"NoteNumber":62,"Velocity":49,"Duration":1101494,"SoundDuration":1101494,"Delta":1047629},{"NoteNumber":33,"Velocity":51,"Duration":588235,"SoundDuration":588235,"Delta":1560888},{"NoteNumber":45,"Velocity":51,"Duration":588235,"SoundDuration":588235,"Delta":1560888},{"NoteNumber":38,"Velocity":54,"Duration":1560888,"SoundDuration":1560888,"Delta":2149124},{"NoteNumber":50,"Velocity":54,"Duration":1560888,"SoundDuration":1560888,"Delta":2149124},{"NoteNumber":57,"Velocity":46,"Duration":256629,"SoundDuration":256629,"Delta":2940124},{"NoteNumber":54,"Velocity":48,"Duration":1071502,"SoundDuration":1071502,"Delta":3196753},{"NoteNumber":62,"Velocity":48,"Duration":1071502,"SoundDuration":1071502,"Delta":3196753},{"NoteNumber":69,"Velocity":54,"Duration":1071502,"SoundDuration":1071502,"Delta":3196753},{"NoteNumber":33,"Velocity":49,"Duration":558243,"SoundDuration":558243,"Delta":3710012},{"NoteNumber":45,"Velocity":49,"Duration":558243,"SoundDuration":558243,"Delta":3710012},{"NoteNumber":57,"Velocity":45,"Duration":705848,"SoundDuration":705848,"Delta":4268256},{"NoteNumber":62,"Velocity":45,"Duration":705848,"SoundDuration":705848,"Delta":4268256},{"NoteNumber":66,"Velocity":65,"Duration":276370,"SoundDuration":276370,"Delta":4268256},{"NoteNumber":38,"Velocity":44,"Duration":966560,"SoundDuration":966560,"Delta":4268256},{"NoteNumber":50,"Velocity":44,"Duration":966560,"SoundDuration":966560,"Delta":4268256},{"NoteNumber":66,"Velocity":60,"Duration":276370,"SoundDuration":276370,"Delta":4575334},{"NoteNumber":66,"Velocity":57,"Duration":206308,"SoundDuration":206308,"Delta":4882412},{"NoteNumber":62,"Velocity":45,"Duration":123172,"SoundDuration":123172,"Delta":5111644},{"NoteNumber":66,"Velocity":55,"Duration":61586,"SoundDuration":61586,"Delta":5111644},{"NoteNumber":56,"Velocity":41,"Duration":123172,"SoundDuration":123172,"Delta":5111644},{"NoteNumber":69,"Velocity":49,"Duration":61586,"SoundDuration":61586,"Delta":5173230},{"NoteNumber":62,"Velocity":48,"Duration":1127224,"SoundDuration":1127224,"Delta":5234817},{"NoteNumber":67,"Velocity":58,"Duration":552291,"SoundDuration":552291,"Delta":5234817},{"NoteNumber":57,"Velocity":45,"Duration":552291,"SoundDuration":552291,"Delta":5234817},{"NoteNumber":66,"Velocity":60,"Duration":431199,"SoundDuration":431199,"Delta":5787109},{"NoteNumber":45,"Velocity":45,"Duration":574932,"SoundDuration":574932,"Delta":5787109},{"NoteNumber":54,"Velocity":38,"Duration":1696721,"SoundDuration":1696721,"Delta":6218308},{"NoteNumber":62,"Velocity":38,"Duration":1624855,"SoundDuration":1624855,"Delta":6290175},{"NoteNumber":69,"Velocity":63,"Duration":1552988,"SoundDuration":1552988,"Delta":6362042},{"NoteNumber":38,"Velocity":39,"Duration":998767,"SoundDuration":998767,"Delta":6362042},{"NoteNumber":45,"Velocity":39,"Duration":998767,"SoundDuration":998767,"Delta":6362042},{"NoteNumber":56,"Velocity":46,"Duration":121359,"SoundDuration":121359,"Delta":7239450},{"NoteNumber":57,"Velocity":50,"Duration":554221,"SoundDuration":554221,"Delta":7360809},{"NoteNumber":66,"Velocity":56,"Duration":281162,"SoundDuration":281162,"Delta":7915030},{"NoteNumber":74,"Velocity":69,"Duration":281162,"SoundDuration":281162,"Delta":7915030},{"NoteNumber":45,"Velocity":46,"Duration":597151,"SoundDuration":597151,"Delta":7915030},{"NoteNumber":69,"Velocity":56,"Duration":315989,"SoundDuration":315989,"Delta":8196193},{"NoteNumber":76,"Velocity":77,"Duration":315989,"SoundDuration":315989,"Delta":8196193},{"NoteNumber":74,"Velocity":52,"Duration":1517308,"SoundDuration":1517308,"Delta":8512182},{"NoteNumber":78,"Velocity":82,"Duration":754653,"SoundDuration":754653,"Delta":8512182},{"NoteNumber":38,"Velocity":42,"Duration":996224,"SoundDuration":996224,"Delta":8512182},{"NoteNumber":45,"Velocity":49,"Duration":996224,"SoundDuration":996224,"Delta":8512182},{"NoteNumber":69,"Velocity":61,"Duration":121339,"SoundDuration":121339,"Delta":9266835},{"NoteNumber":73,"Velocity":67,"Duration":121339,"SoundDuration":121339,"Delta":9266835},{"NoteNumber":76,"Velocity":55,"Duration":120230,"SoundDuration":120230,"Delta":9388175},{"NoteNumber":56,"Velocity":41,"Duration":120230,"SoundDuration":120230,"Delta":9388175},{"NoteNumber":66,"Velocity":62,"Duration":521083,"SoundDuration":521083,"Delta":9508406},{"NoteNumber":74,"Velocity":75,"Duration":521083,"SoundDuration":521083,"Delta":9508406},{"NoteNumber":57,"Velocity":46,"Duration":521083,"SoundDuration":521083,"Delta":9508406},{"NoteNumber":60,"Velocity":43,"Duration":622133,"SoundDuration":622133,"Delta":10029490},{"NoteNumber":66,"Velocity":43,"Duration":622133,"SoundDuration":622133,"Delta":10029490},{"NoteNumber":71,"Velocity":64,"Duration":622133,"SoundDuration":622133,"Delta":10029490},{"NoteNumber":45,"Velocity":38,"Duration":622133,"SoundDuration":622133,"Delta":10029490},{"NoteNumber":51,"Velocity":42,"Duration":622133,"SoundDuration":622133,"Delta":10029490},{"NoteNumber":57,"Velocity":47,"Duration":1556024,"SoundDuration":1556024,"Delta":10651623},{"NoteNumber":61,"Velocity":47,"Duration":1556024,"SoundDuration":1556024,"Delta":10651623},{"NoteNumber":67,"Velocity":56,"Duration":1556024,"SoundDuration":1556024,"Delta":10651623},{"NoteNumber":38,"Velocity":35,"Duration":1021265,"SoundDuration":1021265,"Delta":10651623},{"NoteNumber":45,"Velocity":35,"Duration":1021265,"SoundDuration":1021265,"Delta":10651623},{"NoteNumber":52,"Velocity":42,"Duration":1021265,"SoundDuration":1021265,"Delta":10651623},{"NoteNumber":56,"Velocity":43,"Duration":120481,"SoundDuration":120481,"Delta":11552407},{"NoteNumber":57,"Velocity":47,"Duration":534759,"SoundDuration":534759,"Delta":11672889},{"NoteNumber":64,"Velocity":50,"Duration":303459,"SoundDuration":303459,"Delta":12207648},{"NoteNumber":67,"Velocity":60,"Duration":303459,"SoundDuration":303459,"Delta":12207648},{"NoteNumber":45,"Velocity":45,"Duration":606918,"SoundDuration":606918,"Delta":12207648},{"NoteNumber":66,"Velocity":50,"Duration":303459,"SoundDuration":303459,"Delta":12511108},{"NoteNumber":69,"Velocity":60,"Duration":303459,"SoundDuration":303459,"Delta":12511108},{"NoteNumber":67,"Velocity":56,"Duration":780301,"SoundDuration":780301,"Delta":12814567},{"NoteNumber":71,"Velocity":67,"Duration":780301,"SoundDuration":780301,"Delta":12814567},{"NoteNumber":38,"Velocity":38,"Duration":1047681,"SoundDuration":1047681,"Delta":12814567},{"NoteNumber":45,"Velocity":38,"Duration":1047681,"SoundDuration":1047681,"Delta":12814567},{"NoteNumber":49,"Velocity":45,"Duration":1047681,"SoundDuration":1047681,"Delta":12814567},{"NoteNumber":73,"Velocity":63,"Duration":267379,"SoundDuration":267379,"Delta":13594869},{"NoteNumber":69,"Velocity":53,"Duration":267379,"SoundDuration":267379,"Delta":13594869},{"NoteNumber":56,"Velocity":46,"Duration":133689,"SoundDuration":133689,"Delta":13728559},{"NoteNumber":73,"Velocity":57,"Duration":534759,"SoundDuration":534759,"Delta":13862248},{"NoteNumber":76,"Velocity":68,"Duration":534759,"SoundDuration":534759,"Delta":13862248},{"NoteNumber":57,"Velocity":52,"Duration":534759,"SoundDuration":534759,"Delta":13862248},{"NoteNumber":71,"Velocity":53,"Duration":527333,"SoundDuration":527333,"Delta":14397008},{"NoteNumber":74,"Velocity":63,"Duration":527333,"SoundDuration":527333,"Delta":14397008},{"NoteNumber":45,"Velocity":45,"Duration":527333,"SoundDuration":527333,"Delta":14397008},{"NoteNumber":71,"Velocity":56,"Duration":409694,"SoundDuration":409694,"Delta":14924341},{"NoteNumber":74,"Velocity":67,"Duration":95675,"SoundDuration":95675,"Delta":14924341},{"NoteNumber":38,"Velocity":38,"Duration":967712,"SoundDuration":967712,"Delta":14924341},{"NoteNumber":45,"Velocity":38,"Duration":967712,"SoundDuration":967712,"Delta":14924341},{"NoteNumber":52,"Velocity":45,"Duration":967712,"SoundDuration":967712,"Delta":14924341},{"NoteNumber":76,"Velocity":58,"Duration":95675,"SoundDuration":95675,"Delta":15020017},{"NoteNumber":74,"Velocity":61,"Duration":218343,"SoundDuration":218343,"Delta":15115692},{"NoteNumber":73,"Velocity":56,"Duration":1112239,"SoundDuration":1112239,"Delta":15334036},{"NoteNumber":69,"Velocity":47,"Duration":1112239,"SoundDuration":1112239,"Delta":15334036},{"NoteNumber":56,"Velocity":46,"Duration":122269,"SoundDuration":122269,"Delta":15769785},{"NoteNumber":57,"Velocity":52,"Duration":554221,"SoundDuration":554221,"Delta":15892054},{"NoteNumber":73,"Velocity":56,"Duration":294753,"SoundDuration":294753,"Delta":16446275},{"NoteNumber":76,"Velocity":67,"Duration":294753,"SoundDuration":294753,"Delta":16446275},{"NoteNumber":45,"Velocity":45,"Duration":594873,"SoundDuration":594873,"Delta":16446275},{"NoteNumber":67,"Velocity":49,"Duration":300119,"SoundDuration":300119,"Delta":16741029},{"NoteNumber":71,"Velocity":58,"Duration":300119,"SoundDuration":300119,"Delta":16741029},{"NoteNumber":71,"Velocity":54,"Duration":843486,"SoundDuration":843486,"Delta":17041149},{"NoteNumber":74,"Velocity":64,"Duration":843486,"SoundDuration":843486,"Delta":17041149},{"NoteNumber":38,"Velocity":38,"Duration":1091707,"SoundDuration":1091707,"Delta":17041149},{"NoteNumber":45,"Velocity":38,"Duration":1091707,"SoundDuration":1091707,"Delta":17041149},{"NoteNumber":49,"Velocity":45,"Duration":1091707,"SoundDuration":1091707,"Delta":17041149},{"NoteNumber":66,"Velocity":48,"Duration":186165,"SoundDuration":186165,"Delta":17884636},{"NoteNumber":69,"Velocity":57,"Duration":186165,"SoundDuration":186165,"Delta":17884636},{"NoteNumber":56,"Velocity":46,"Duration":124110,"SoundDuration":124110,"Delta":18008746},{"NoteNumber":69,"Velocity":51,"Duration":550156,"SoundDuration":550156,"Delta":18132857},{"NoteNumber":73,"Velocity":61,"Duration":550156,"SoundDuration":550156,"Delta":18132857},{"NoteNumber":57,"Velocity":52,"Duration":550156,"SoundDuration":550156,"Delta":18132857},{"NoteNumber":64,"Velocity":45,"Duration":579150,"SoundDuration":579150,"Delta":18683013},{"NoteNumber":67,"Velocity":54,"Duration":579150,"SoundDuration":579150,"Delta":18683013},{"NoteNumber":45,"Velocity":45,"Duration":579150,"SoundDuration":579150,"Delta":18683013},{"NoteNumber":65,"Velocity":49,"Duration":574162,"SoundDuration":574162,"Delta":19262163},{"NoteNumber":71,"Velocity":58,"Duration":574162,"SoundDuration":574162,"Delta":19262163},{"NoteNumber":38,"Velocity":41,"Duration":1103916,"SoundDuration":1103916,"Delta":19262163},{"NoteNumber":45,"Velocity":41,"Duration":1103916,"SoundDuration":1103916,"Delta":19262163},{"NoteNumber":50,"Velocity":49,"Duration":1103916,"SoundDuration":1103916,"Delta":19262163},{"NoteNumber":69,"Velocity":54,"Duration":1096219,"SoundDuration":1096219,"Delta":19836326},{"NoteNumber":66,"Velocity":45,"Duration":1096219,"SoundDuration":1096219,"Delta":19836326},{"NoteNumber":56,"Velocity":45,"Duration":128314,"SoundDuration":128314,"Delta":20237765},{"NoteNumber":57,"Velocity":48,"Duration":1219286,"SoundDuration":1219286,"Delta":20366080},{"NoteNumber":68,"Velocity":48,"Duration":387629,"SoundDuration":387629,"Delta":20743723},{"NoteNumber":65,"Velocity":48,"Duration":387629,"SoundDuration":387629,"Delta":20743723},{"NoteNumber":69,"Velocity":61,"Duration":652820,"SoundDuration":652820,"Delta":20932545},{"NoteNumber":81,"Velocity":70,"Duration":652820,"SoundDuration":652820,"Delta":20932545},{"NoteNumber":67,"Velocity":48,"Duration":454013,"SoundDuration":454013,"Delta":21131352},{"NoteNumber":64,"Velocity":48,"Duration":454013,"SoundDuration":454013,"Delta":21131352},{"NoteNumber":66,"Velocity":65,"Duration":307078,"SoundDuration":307078,"Delta":21585366},{"NoteNumber":62,"Velocity":45,"Duration":966560,"SoundDuration":966560,"Delta":21585366},{"NoteNumber":54,"Velocity":41,"Duration":797541,"SoundDuration":797541,"Delta":21585366},{"NoteNumber":38,"Velocity":44,"Duration":966560,"SoundDuration":966560,"Delta":21585366},{"NoteNumber":45,"Velocity":44,"Duration":966560,"SoundDuration":966560,"Delta":21585366},{"NoteNumber":66,"Velocity":60,"Duration":307078,"SoundDuration":307078,"Delta":21892444},{"NoteNumber":66,"Velocity":57,"Duration":229231,"SoundDuration":229231,"Delta":22199522},{"NoteNumber":54,"Velocity":41,"Duration":260711,"SoundDuration":260711,"Delta":22291215},{"NoteNumber":55,"Velocity":41,"Duration":86903,"SoundDuration":86903,"Delta":22382907},{"NoteNumber":62,"Velocity":45,"Duration":123172,"SoundDuration":123172,"Delta":22428754},{"NoteNumber":66,"Velocity":55,"Duration":61586,"SoundDuration":61586,"Delta":22428754},{"NoteNumber":56,"Velocity":41,"Duration":82115,"SoundDuration":82115,"Delta":22469811},{"NoteNumber":69,"Velocity":49,"Duration":61586,"SoundDuration":61586,"Delta":22490340},{"NoteNumber":67,"Velocity":58,"Duration":552292,"SoundDuration":552292,"Delta":22551926},{"NoteNumber":62,"Velocity":48,"Duration":1127225,"SoundDuration":1127225,"Delta":22551926},{"NoteNumber":57,"Velocity":45,"Duration":552292,"SoundDuration":552292,"Delta":22551926},{"NoteNumber":66,"Velocity":60,"Duration":431199,"SoundDuration":431199,"Delta":23104218},{"NoteNumber":45,"Velocity":45,"Duration":574933,"SoundDuration":574933,"Delta":23104218},{"NoteNumber":54,"Velocity":38,"Duration":1696722,"SoundDuration":1696722,"Delta":23535418},{"NoteNumber":62,"Velocity":38,"Duration":1624855,"SoundDuration":1624855,"Delta":23607285},{"NoteNumber":69,"Velocity":63,"Duration":877408,"SoundDuration":877408,"Delta":23679151},{"NoteNumber":38,"Velocity":39,"Duration":998767,"SoundDuration":998767,"Delta":23679151},{"NoteNumber":45,"Velocity":39,"Duration":998767,"SoundDuration":998767,"Delta":23679151},{"NoteNumber":69,"Velocity":37,"Duration":796939,"SoundDuration":796939,"Delta":24435200},{"NoteNumber":74,"Velocity":35,"Duration":659415,"SoundDuration":659415,"Delta":24556559},{"NoteNumber":78,"Velocity":39,"Duration":645240,"SoundDuration":645240,"Delta":24586899},{"NoteNumber":81,"Velocity":45,"Duration":614901,"SoundDuration":614901,"Delta":24617239},{"NoteNumber":86,"Velocity":45,"Duration":584561,"SoundDuration":584561,"Delta":24647579},{"NoteNumber":93,"Velocity":50,"Duration":554221,"SoundDuration":554221,"Delta":24677919},{"NoteNumber":67,"Velocity":56,"Duration":597151,"SoundDuration":597151,"Delta":25232140},{"NoteNumber":71,"Velocity":56,"Duration":281162,"SoundDuration":281162,"Delta":25232140},{"NoteNumber":74,"Velocity":69,"Duration":281162,"SoundDuration":281162,"Delta":25232140},{"NoteNumber":45,"Velocity":46,"Duration":1100253,"SoundDuration":1100253,"Delta":25232140},{"NoteNumber":73,"Velocity":56,"Duration":315988,"SoundDuration":315988,"Delta":25513302},{"NoteNumber":76,"Velocity":77,"Duration":315988,"SoundDuration":315988,"Delta":25513302},{"NoteNumber":66,"Velocity":52,"Duration":1517308,"SoundDuration":1517308,"Delta":25829291},{"NoteNumber":74,"Velocity":52,"Duration":1517308,"SoundDuration":1517308,"Delta":25829291},{"NoteNumber":78,"Velocity":82,"Duration":754653,"SoundDuration":754653,"Delta":25829291},{"NoteNumber":38,"Velocity":42,"Duration":1517308,"SoundDuration":1517308,"Delta":25829291},{"NoteNumber":46,"Velocity":49,"Duration":493121,"SoundDuration":493121,"Delta":26332394},{"NoteNumber":67,"Velocity":61,"Duration":121339,"SoundDuration":121339,"Delta":26583945},{"NoteNumber":73,"Velocity":67,"Duration":121339,"SoundDuration":121339,"Delta":26583945},{"NoteNumber":76,"Velocity":55,"Duration":120230,"SoundDuration":120230,"Delta":26705285},{"NoteNumber":66,"Velocity":62,"Duration":521083,"SoundDuration":521083,"Delta":26825516},{"NoteNumber":74,"Velocity":75,"Duration":521083,"SoundDuration":521083,"Delta":26825516},{"NoteNumber":47,"Velocity":46,"Duration":521083,"SoundDuration":521083,"Delta":26825516},{"NoteNumber":71,"Velocity":64,"Duration":622133,"SoundDuration":622133,"Delta":27346600},{"NoteNumber":63,"Velocity":43,"Duration":622133,"SoundDuration":622133,"Delta":27346600},{"NoteNumber":66,"Velocity":43,"Duration":622133,"SoundDuration":622133,"Delta":27346600},{"NoteNumber":48,"Velocity":42,"Duration":622133,"SoundDuration":622133,"Delta":27346600},{"NoteNumber":38,"Velocity":38,"Duration":622133,"SoundDuration":622133,"Delta":27346600},{"NoteNumber":57,"Velocity":47,"Duration":1556024,"SoundDuration":1556024,"Delta":27968733},{"NoteNumber":64,"Velocity":47,"Duration":1556024,"SoundDuration":1556024,"Delta":27968733},{"NoteNumber":67,"Velocity":56,"Duration":1556024,"SoundDuration":1556024,"Delta":27968733},{"NoteNumber":38,"Velocity":35,"Duration":1556024,"SoundDuration":1556024,"Delta":27968733},{"NoteNumber":49,"Velocity":42,"Duration":1556024,"SoundDuration":1556024,"Delta":27968733},{"NoteNumber":69,"Velocity":37,"Duration":120481,"SoundDuration":120481,"Delta":28749035},{"NoteNumber":76,"Velocity":35,"Duration":655241,"SoundDuration":655241,"Delta":28869517},{"NoteNumber":79,"Velocity":39,"Duration":625120,"SoundDuration":625120,"Delta":28899637},{"NoteNumber":81,"Velocity":45,"Duration":595000,"SoundDuration":595000,"Delta":28929758},{"NoteNumber":85,"Velocity":45,"Duration":564879,"SoundDuration":564879,"Delta":28959878},{"NoteNumber":93,"Velocity":50,"Duration":534759,"SoundDuration":534759,"Delta":28989999},{"NoteNumber":64,"Velocity":50,"Duration":303459,"SoundDuration":303459,"Delta":29524758},{"NoteNumber":67,"Velocity":60,"Duration":303459,"SoundDuration":303459,"Delta":29524758},{"NoteNumber":45,"Velocity":45,"Duration":606919,"SoundDuration":606919,"Delta":29524758},{"NoteNumber":69,"Velocity":60,"Duration":303459,"SoundDuration":303459,"Delta":29828218},{"NoteNumber":66,"Velocity":50,"Duration":303459,"SoundDuration":303459,"Delta":29828218},{"NoteNumber":67,"Velocity":56,"Duration":780301,"SoundDuration":780301,"Delta":30131677},{"NoteNumber":71,"Velocity":67,"Duration":780301,"SoundDuration":780301,"Delta":30131677},{"NoteNumber":49,"Velocity":45,"Duration":1047681,"SoundDuration":1047681,"Delta":30131677},{"NoteNumber":45,"Velocity":38,"Duration":1047681,"SoundDuration":1047681,"Delta":30131677},{"NoteNumber":38,"Velocity":38,"Duration":1047681,"SoundDuration":1047681,"Delta":30131677},{"NoteNumber":73,"Velocity":63,"Duration":267379,"SoundDuration":267379,"Delta":30911979},{"NoteNumber":69,"Velocity":53,"Duration":267379,"SoundDuration":267379,"Delta":30911979},{"NoteNumber":54,"Velocity":41,"Duration":89126,"SoundDuration":89126,"Delta":30911979},{"NoteNumber":55,"Velocity":41,"Duration":89126,"SoundDuration":89126,"Delta":31001105},{"NoteNumber":56,"Velocity":41,"Duration":89126,"SoundDuration":89126,"Delta":31090232},{"NoteNumber":76,"Velocity":68,"Duration":534759,"SoundDuration":534759,"Delta":31179358},{"NoteNumber":73,"Velocity":57,"Duration":534759,"SoundDuration":534759,"Delta":31179358},{"NoteNumber":57,"Velocity":52,"Duration":534759,"SoundDuration":534759,"Delta":31179358},{"NoteNumber":74,"Velocity":63,"Duration":527333,"SoundDuration":527333,"Delta":31714118},{"NoteNumber":71,"Velocity":53,"Duration":527333,"SoundDuration":527333,"Delta":31714118},{"NoteNumber":45,"Velocity":45,"Duration":527333,"SoundDuration":527333,"Delta":31714118},{"NoteNumber":74,"Velocity":67,"Duration":94708,"SoundDuration":94708,"Delta":32241451},{"NoteNumber":71,"Velocity":56,"Duration":413070,"SoundDuration":413070,"Delta":32241451},{"NoteNumber":38,"Velocity":38,"Duration":1525310,"SoundDuration":1525310,"Delta":32241451},{"NoteNumber":52,"Velocity":45,"Duration":1525310,"SoundDuration":1525310,"Delta":32241451},{"NoteNumber":45,"Velocity":38,"Duration":1525310,"SoundDuration":1525310,"Delta":32241451},{"NoteNumber":76,"Velocity":58,"Duration":94708,"SoundDuration":94708,"Delta":32336160},{"NoteNumber":74,"Velocity":61,"Duration":223652,"SoundDuration":223652,"Delta":32430869},{"NoteNumber":73,"Velocity":56,"Duration":1112239,"SoundDuration":1112239,"Delta":32654522},{"NoteNumber":69,"Velocity":47,"Duration":435748,"SoundDuration":435748,"Delta":32654522},{"NoteNumber":69,"Velocity":37,"Duration":798760,"SoundDuration":798760,"Delta":32968002},{"NoteNumber":76,"Velocity":35,"Duration":669563,"SoundDuration":669563,"Delta":33090271},{"NoteNumber":79,"Velocity":39,"Duration":645923,"SoundDuration":645923,"Delta":33120838},{"NoteNumber":81,"Velocity":45,"Duration":615356,"SoundDuration":615356,"Delta":33151406},{"NoteNumber":85,"Velocity":45,"Duration":584788,"SoundDuration":584788,"Delta":33181973},{"NoteNumber":93,"Velocity":50,"Duration":554221,"SoundDuration":554221,"Delta":33212540},{"NoteNumber":73,"Velocity":56,"Duration":294753,"SoundDuration":294753,"Delta":33766762},{"NoteNumber":76,"Velocity":67,"Duration":294753,"SoundDuration":294753,"Delta":33766762},{"NoteNumber":45,"Velocity":45,"Duration":594873,"SoundDuration":594873,"Delta":33766762},{"NoteNumber":67,"Velocity":49,"Duration":300119,"SoundDuration":300119,"Delta":34061515},{"NoteNumber":71,"Velocity":58,"Duration":300119,"SoundDuration":300119,"Delta":34061515},{"NoteNumber":74,"Velocity":64,"Duration":843486,"SoundDuration":843486,"Delta":34361635},{"NoteNumber":71,"Velocity":54,"Duration":843486,"SoundDuration":843486,"Delta":34361635},{"NoteNumber":49,"Velocity":45,"Duration":1091707,"SoundDuration":1091707,"Delta":34361635},{"NoteNumber":38,"Velocity":38,"Duration":1091707,"SoundDuration":1091707,"Delta":34361635},{"NoteNumber":45,"Velocity":38,"Duration":1091707,"SoundDuration":1091707,"Delta":34361635},{"NoteNumber":69,"Velocity":57,"Duration":186165,"SoundDuration":186165,"Delta":35205122},{"NoteNumber":66,"Velocity":48,"Duration":186165,"SoundDuration":186165,"Delta":35205122},{"NoteNumber":54,"Velocity":41,"Duration":82740,"SoundDuration":82740,"Delta":35205122},{"NoteNumber":55,"Velocity":41,"Duration":82740,"SoundDuration":82740,"Delta":35287862},{"NoteNumber":56,"Velocity":41,"Duration":82740,"SoundDuration":82740,"Delta":35370603},{"NoteNumber":73,"Velocity":61,"Duration":550156,"SoundDuration":550156,"Delta":35453343},{"NoteNumber":69,"Velocity":51,"Duration":550156,"SoundDuration":550156,"Delta":35453343},{"NoteNumber":57,"Velocity":52,"Duration":550156,"SoundDuration":550156,"Delta":35453343},{"NoteNumber":67,"Velocity":54,"Duration":579150,"SoundDuration":579150,"Delta":36003499},{"NoteNumber":64,"Velocity":45,"Duration":579150,"SoundDuration":579150,"Delta":36003499},{"NoteNumber":45,"Velocity":45,"Duration":579150,"SoundDuration":579150,"Delta":36003499},{"NoteNumber":65,"Velocity":49,"Duration":574162,"SoundDuration":574162,"Delta":36582650},{"NoteNumber":71,"Velocity":58,"Duration":574162,"SoundDuration":574162,"Delta":36582650},{"NoteNumber":38,"Velocity":41,"Duration":1670382,"SoundDuration":1670382,"Delta":36582650},{"NoteNumber":45,"Velocity":41,"Duration":1670382,"SoundDuration":1670382,"Delta":36582650},{"NoteNumber":50,"Velocity":49,"Duration":1670382,"SoundDuration":1670382,"Delta":36582650},{"NoteNumber":66,"Velocity":45,"Duration":1096219,"SoundDuration":1096219,"Delta":37156812},{"NoteNumber":69,"Velocity":54,"Duration":401439,"SoundDuration":401439,"Delta":37156812},{"NoteNumber":69,"Velocity":37,"Duration":823095,"SoundDuration":823095,"Delta":37429937},{"NoteNumber":74,"Velocity":35,"Duration":685339,"SoundDuration":685339,"Delta":37558251},{"NoteNumber":78,"Velocity":39,"Duration":662701,"SoundDuration":662701,"Delta":37590330},{"NoteNumber":81,"Velocity":45,"Duration":630622,"SoundDuration":630622,"Delta":37622409},{"NoteNumber":86,"Velocity":45,"Duration":598544,"SoundDuration":598544,"Delta":37654487},{"NoteNumber":93,"Velocity":50,"Duration":566465,"SoundDuration":566465,"Delta":37686566},{"NoteNumber":66,"Velocity":61,"Duration":541223,"SoundDuration":541223,"Delta":38253032},{"NoteNumber":62,"Velocity":61,"Duration":541223,"SoundDuration":541223,"Delta":38253032},{"NoteNumber":74,"Velocity":70,"Duration":541223,"SoundDuration":541223,"Delta":38253032},{"NoteNumber":46,"Velocity":45,"Duration":541223,"SoundDuration":541223,"Delta":38253032},{"NoteNumber":38,"Velocity":37,"Duration":541223,"SoundDuration":541223,"Delta":38253032},{"NoteNumber":66,"Velocity":54,"Duration":1046181,"SoundDuration":1046181,"Delta":38794255},{"NoteNumber":62,"Velocity":54,"Duration":1046181,"SoundDuration":1046181,"Delta":38794255},{"NoteNumber":74,"Velocity":76,"Duration":360815,"SoundDuration":360815,"Delta":38794255},{"NoteNumber":47,"Velocity":52,"Duration":794165,"SoundDuration":794165,"Delta":38794255},{"NoteNumber":35,"Velocity":52,"Duration":794165,"SoundDuration":794165,"Delta":38794255},{"NoteNumber":73,"Velocity":72,"Duration":349344,"SoundDuration":349344,"Delta":39155070},{"NoteNumber":71,"Velocity":66,"Duration":336021,"SoundDuration":336021,"Delta":39504415},{"NoteNumber":47,"Velocity":31,"Duration":784497,"SoundDuration":784497,"Delta":39588420},{"NoteNumber":67,"Velocity":36,"Duration":1101633,"SoundDuration":1101633,"Delta":39840437},{"NoteNumber":62,"Velocity":36,"Duration":1101633,"SoundDuration":1101633,"Delta":39840437},{"NoteNumber":73,"Velocity":79,"Duration":532481,"SoundDuration":532481,"Delta":39840437},{"NoteNumber":52,"Velocity":31,"Duration":532481,"SoundDuration":532481,"Delta":39840437},{"NoteNumber":58,"Velocity":31,"Duration":532481,"SoundDuration":532481,"Delta":39840437},{"NoteNumber":83,"Velocity":59,"Duration":635712,"SoundDuration":635712,"Delta":40306358},{"NoteNumber":95,"Velocity":63,"Duration":569152,"SoundDuration":569152,"Delta":40372918},{"NoteNumber":64,"Velocity":52,"Duration":569152,"SoundDuration":569152,"Delta":40372918},{"NoteNumber":67,"Velocity":52,"Duration":569152,"SoundDuration":569152,"Delta":40372918},{"NoteNumber":71,"Velocity":61,"Duration":569152,"SoundDuration":569152,"Delta":40372918},{"NoteNumber":59,"Velocity":31,"Duration":569152,"SoundDuration":569152,"Delta":40372918},{"NoteNumber":62,"Velocity":54,"Duration":1153669,"SoundDuration":1153669,"Delta":40870926},{"NoteNumber":66,"Velocity":54,"Duration":555773,"SoundDuration":555773,"Delta":40906498},{"NoteNumber":74,"Velocity":75,"Duration":520201,"SoundDuration":520201,"Delta":40942070},{"NoteNumber":35,"Velocity":48,"Duration":346800,"SoundDuration":346800,"Delta":40942070},{"NoteNumber":47,"Velocity":48,"Duration":346800,"SoundDuration":346800,"Delta":40942070},{"NoteNumber":59,"Velocity":52,"Duration":360841,"SoundDuration":360841,"Delta":41288871},{"NoteNumber":66,"Velocity":66,"Duration":562324,"SoundDuration":562324,"Delta":41462271},{"NoteNumber":58,"Velocity":52,"Duration":374883,"SoundDuration":374883,"Delta":41649713},{"NoteNumber":67,"Velocity":57,"Duration":140581,"SoundDuration":140581,"Delta":41884014},{"NoteNumber":62,"Velocity":54,"Duration":1060372,"SoundDuration":1060372,"Delta":42024596},{"NoteNumber":66,"Velocity":65,"Duration":346800,"SoundDuration":346800,"Delta":42024596},{"NoteNumber":57,"Velocity":45,"Duration":520201,"SoundDuration":520201,"Delta":42024596},{"NoteNumber":65,"Velocity":61,"Duration":346800,"SoundDuration":346800,"Delta":42371396},{"NoteNumber":56,"Velocity":45,"Duration":402631,"SoundDuration":402631,"Delta":42544797},{"NoteNumber":66,"Velocity":67,"Duration":229231,"SoundDuration":229231,"Delta":42718197},{"NoteNumber":55,"Velocity":54,"Duration":1157405,"SoundDuration":1157405,"Delta":42947429},{"NoteNumber":62,"Velocity":54,"Duration":1024047,"SoundDuration":1024047,"Delta":43016198},{"NoteNumber":67,"Velocity":76,"Duration":342172,"SoundDuration":342172,"Delta":43084968},{"NoteNumber":47,"Velocity":52,"Duration":761512,"SoundDuration":761512,"Delta":43084968},{"NoteNumber":35,"Velocity":52,"Duration":761512,"SoundDuration":761512,"Delta":43084968},{"NoteNumber":71,"Velocity":72,"Duration":333222,"SoundDuration":333222,"Delta":43427140},{"NoteNumber":74,"Velocity":66,"Duration":344471,"SoundDuration":344471,"Delta":43760363},{"NoteNumber":47,"Velocity":31,"Duration":775060,"SoundDuration":775060,"Delta":43846480},{"NoteNumber":73,"Velocity":79,"Duration":516707,"SoundDuration":516707,"Delta":44104834},{"NoteNumber":67,"Velocity":36,"Duration":516707,"SoundDuration":516707,"Delta":44104834},{"NoteNumber":62,"Velocity":36,"Duration":516707,"SoundDuration":516707,"Delta":44104834},{"NoteNumber":53,"Velocity":31,"Duration":516707,"SoundDuration":516707,"Delta":44104834},{"NoteNumber":59,"Velocity":31,"Duration":516707,"SoundDuration":516707,"Delta":44104834},{"NoteNumber":83,"Velocity":59,"Duration":595655,"SoundDuration":595655,"Delta":44556953},{"NoteNumber":95,"Velocity":63,"Duration":531067,"SoundDuration":531067,"Delta":44621541},{"NoteNumber":61,"Velocity":52,"Duration":531067,"SoundDuration":531067,"Delta":44621541},{"NoteNumber":71,"Velocity":60,"Duration":531067,"SoundDuration":531067,"Delta":44621541},{"NoteNumber":67,"Velocity":52,"Duration":531067,"SoundDuration":531067,"Delta":44621541},{"NoteNumber":62,"Velocity":54,"Duration":1107235,"SoundDuration":1107235,"Delta":45086225},{"NoteNumber":66,"Velocity":54,"Duration":546450,"SoundDuration":546450,"Delta":45119417},{"NoteNumber":74,"Velocity":75,"Duration":1575611,"SoundDuration":1575611,"Delta":45152608},{"NoteNumber":47,"Velocity":48,"Duration":342172,"SoundDuration":342172,"Delta":45152608},{"NoteNumber":53,"Velocity":48,"Duration":342172,"SoundDuration":342172,"Delta":45494781},{"NoteNumber":71,"Velocity":66,"Duration":527592,"SoundDuration":527592,"Delta":45665867},{"NoteNumber":54,"Velocity":48,"Duration":289661,"SoundDuration":289661,"Delta":45836954},{"NoteNumber":47,"Velocity":41,"Duration":601604,"SoundDuration":601604,"Delta":46126615},{"NoteNumber":70,"Velocity":71,"Duration":356506,"SoundDuration":356506,"Delta":46193460},{"NoteNumber":62,"Velocity":49,"Duration":1030416,"SoundDuration":1030416,"Delta":46193460},{"NoteNumber":69,"Velocity":67,"Duration":367075,"SoundDuration":367075,"Delta":46549966},{"NoteNumber":78,"Velocity":54,"Duration":566465,"SoundDuration":566465,"Delta":46728220},{"NoteNumber":40,"Velocity":41,"Duration":495657,"SoundDuration":495657,"Delta":46728220},{"NoteNumber":68,"Velocity":73,"Duration":377643,"SoundDuration":377643,"Delta":46917041},{"NoteNumber":45,"Velocity":47,"Duration":496306,"SoundDuration":496306,"Delta":47223877},{"NoteNumber":69,"Velocity":51,"Duration":337609,"SoundDuration":337609,"Delta":47294685},{"NoteNumber":78,"Velocity":72,"Duration":337609,"SoundDuration":337609,"Delta":47294685},{"NoteNumber":61,"Velocity":56,"Duration":513387,"SoundDuration":513387,"Delta":47294685},{"NoteNumber":68,"Velocity":51,"Duration":351555,"SoundDuration":351555,"Delta":47632295},{"NoteNumber":76,"Velocity":67,"Duration":351555,"SoundDuration":351555,"Delta":47632295},{"NoteNumber":46,"Velocity":42,"Duration":514359,"SoundDuration":514359,"Delta":47808073},{"NoteNumber":52,"Velocity":50,"Duration":514359,"SoundDuration":514359,"Delta":47808073},{"NoteNumber":67,"Velocity":55,"Duration":338581,"SoundDuration":338581,"Delta":47983850},{"NoteNumber":73,"Velocity":67,"Duration":338581,"SoundDuration":338581,"Delta":47983850},{"NoteNumber":74,"Velocity":73,"Duration":550156,"SoundDuration":550156,"Delta":48322432},{"NoteNumber":66,"Velocity":50,"Duration":550156,"SoundDuration":550156,"Delta":48322432},{"NoteNumber":47,"Velocity":44,"Duration":550156,"SoundDuration":550156,"Delta":48322432},{"NoteNumber":57,"Velocity":52,"Duration":550156,"SoundDuration":550156,"Delta":48322432},{"NoteNumber":65,"Velocity":50,"Duration":588235,"SoundDuration":588235,"Delta":48872588},{"NoteNumber":71,"Velocity":65,"Duration":588235,"SoundDuration":588235,"Delta":48872588},{"NoteNumber":50,"Velocity":39,"Duration":588235,"SoundDuration":588235,"Delta":48872588},{"NoteNumber":56,"Velocity":47,"Duration":1108436,"SoundDuration":1108436,"Delta":48872588},{"NoteNumber":64,"Velocity":47,"Duration":1005205,"SoundDuration":1005205,"Delta":49460823},{"NoteNumber":76,"Velocity":72,"Duration":520201,"SoundDuration":520201,"Delta":49460823},{"NoteNumber":49,"Velocity":50,"Duration":1082525,"SoundDuration":1082525,"Delta":49460823},{"NoteNumber":73,"Velocity":66,"Duration":562324,"SoundDuration":562324,"Delta":49981024},{"NoteNumber":57,"Velocity":52,"Duration":562324,"SoundDuration":562324,"Delta":49981024},{"NoteNumber":64,"Velocity":46,"Duration":590491,"SoundDuration":590491,"Delta":50473058},{"NoteNumber":69,"Velocity":64,"Duration":346800,"SoundDuration":346800,"Delta":50543349},{"NoteNumber":54,"Velocity":48,"Duration":1052603,"SoundDuration":1052603,"Delta":50543349},{"NoteNumber":71,"Velocity":64,"Duration":346800,"SoundDuration":346800,"Delta":50890149},{"NoteNumber":63,"Velocity":44,"Duration":465089,"SoundDuration":465089,"Delta":51063550},{"NoteNumber":81,"Velocity":53,"Duration":532402,"SoundDuration":532402,"Delta":51063550},{"NoteNumber":73,"Velocity":71,"Duration":359002,"SoundDuration":359002,"Delta":51236950},{"NoteNumber":62,"Velocity":38,"Duration":1100612,"SoundDuration":1100612,"Delta":51528639},{"NoteNumber":69,"Velocity":36,"Duration":1066955,"SoundDuration":1066955,"Delta":51562296},{"NoteNumber":76,"Velocity":72,"Duration":328893,"SoundDuration":328893,"Delta":51595952},{"NoteNumber":47,"Velocity":36,"Duration":1033299,"SoundDuration":1033299,"Delta":51595952},{"NoteNumber":53,"Velocity":36,"Duration":1033299,"SoundDuration":1033299,"Delta":51595952},{"NoteNumber":74,"Velocity":68,"Duration":346560,"SoundDuration":346560,"Delta":51924845},{"NoteNumber":81,"Velocity":53,"Duration":531125,"SoundDuration":531125,"Delta":52098126},{"NoteNumber":73,"Velocity":65,"Duration":357845,"SoundDuration":357845,"Delta":52271406},{"NoteNumber":62,"Velocity":47,"Duration":1116621,"SoundDuration":1116621,"Delta":52629251},{"NoteNumber":68,"Velocity":47,"Duration":1116621,"SoundDuration":1116621,"Delta":52629251},{"NoteNumber":73,"Velocity":66,"Duration":550156,"SoundDuration":550156,"Delta":52629251},{"NoteNumber":76,"Velocity":66,"Duration":1116621,"SoundDuration":1116621,"Delta":52629251},{"NoteNumber":52,"Velocity":42,"Duration":372207,"SoundDuration":372207,"Delta":52996022},{"NoteNumber":71,"Velocity":59,"Duration":566465,"SoundDuration":566465,"Delta":53179407},{"NoteNumber":40,"Velocity":49,"Duration":377643,"SoundDuration":377643,"Delta":53368229},{"NoteNumber":69,"Velocity":62,"Duration":2436537,"SoundDuration":2436537,"Delta":53745873},{"NoteNumber":61,"Velocity":46,"Duration":948615,"SoundDuration":948615,"Delta":53745873},{"NoteNumber":45,"Velocity":47,"Duration":1663649,"SoundDuration":1663649,"Delta":53745873},{"NoteNumber":56,"Velocity":49,"Duration":377643,"SoundDuration":377643,"Delta":54123517},{"NoteNumber":57,"Velocity":47,"Duration":339209,"SoundDuration":339209,"Delta":54501160},{"NoteNumber":61,"Velocity":39,"Duration":125041,"SoundDuration":125041,"Delta":54715328},{"NoteNumber":59,"Velocity":42,"Duration":498007,"SoundDuration":498007,"Delta":54840370},{"NoteNumber":55,"Velocity":42,"Duration":569152,"SoundDuration":569152,"Delta":54840370},{"NoteNumber":57,"Velocity":42,"Duration":844032,"SoundDuration":844032,"Delta":55338378},{"NoteNumber":61,"Velocity":30,"Duration":808460,"SoundDuration":808460,"Delta":55373950},{"NoteNumber":67,"Velocity":42,"Duration":772888,"SoundDuration":772888,"Delta":55409522},{"NoteNumber":81,"Velocity":68,"Duration":772888,"SoundDuration":772888,"Delta":55409522},{"NoteNumber":66,"Velocity":45,"Duration":276370,"SoundDuration":276370,"Delta":56182410},{"NoteNumber":78,"Velocity":65,"Duration":276370,"SoundDuration":276370,"Delta":56182410},{"NoteNumber":74,"Velocity":45,"Duration":276370,"SoundDuration":276370,"Delta":56182410},{"NoteNumber":38,"Velocity":44,"Duration":966560,"SoundDuration":966560,"Delta":56182410},{"NoteNumber":45,"Velocity":44,"Duration":797541,"SoundDuration":797541,"Delta":56182410},{"NoteNumber":66,"Velocity":60,"Duration":276370,"SoundDuration":276370,"Delta":56489488},{"NoteNumber":74,"Velocity":60,"Duration":276370,"SoundDuration":276370,"Delta":56489488},{"NoteNumber":78,"Velocity":60,"Duration":276370,"SoundDuration":276370,"Delta":56489488},{"NoteNumber":66,"Velocity":57,"Duration":206308,"SoundDuration":206308,"Delta":56796566},{"NoteNumber":74,"Velocity":57,"Duration":206308,"SoundDuration":206308,"Delta":56796566},{"NoteNumber":78,"Velocity":57,"Duration":206308,"SoundDuration":206308,"Delta":56796566},{"NoteNumber":45,"Velocity":41,"Duration":260711,"SoundDuration":260711,"Delta":56888259},{"NoteNumber":50,"Velocity":41,"Duration":86903,"SoundDuration":86903,"Delta":56979952},{"NoteNumber":74,"Velocity":45,"Duration":61586,"SoundDuration":61586,"Delta":57025798},{"NoteNumber":66,"Velocity":45,"Duration":61586,"SoundDuration":61586,"Delta":57025798},{"NoteNumber":78,"Velocity":55,"Duration":61586,"SoundDuration":61586,"Delta":57025798},{"NoteNumber":57,"Velocity":41,"Duration":82115,"SoundDuration":82115,"Delta":57066856},{"NoteNumber":81,"Velocity":49,"Duration":61586,"SoundDuration":61586,"Delta":57087384},{"NoteNumber":67,"Velocity":58,"Duration":552292,"SoundDuration":552292,"Delta":57148971},{"NoteNumber":79,"Velocity":58,"Duration":552292,"SoundDuration":552292,"Delta":57148971},{"NoteNumber":74,"Velocity":48,"Duration":2664048,"SoundDuration":2664048,"Delta":57148971},{"NoteNumber":62,"Velocity":41,"Duration":552292,"SoundDuration":552292,"Delta":57148971},{"NoteNumber":69,"Velocity":45,"Duration":552292,"SoundDuration":552292,"Delta":57148971},{"NoteNumber":66,"Velocity":60,"Duration":574933,"SoundDuration":574933,"Delta":57701263},{"NoteNumber":78,"Velocity":60,"Duration":574933,"SoundDuration":574933,"Delta":57701263},{"NoteNumber":57,"Velocity":45,"Duration":503066,"SoundDuration":503066,"Delta":57701263},{"NoteNumber":50,"Velocity":45,"Duration":191644,"SoundDuration":191644,"Delta":57892907},{"NoteNumber":45,"Velocity":45,"Duration":119777,"SoundDuration":119777,"Delta":58084552},{"NoteNumber":38,"Velocity":39,"Duration":1070633,"SoundDuration":1070633,"Delta":58204329},{"NoteNumber":45,"Velocity":39,"Duration":1034700,"SoundDuration":1034700,"Delta":58240263},{"NoteNumber":66,"Velocity":38,"Duration":1552988,"SoundDuration":1552988,"Delta":58276196},{"NoteNumber":81,"Velocity":63,"Duration":1552988,"SoundDuration":1552988,"Delta":58276196},{"NoteNumber":54,"Velocity":39,"Duration":998767,"SoundDuration":998767,"Delta":58276196},{"NoteNumber":69,"Velocity":37,"Duration":121359,"SoundDuration":121359,"Delta":59032245},{"NoteNumber":74,"Velocity":35,"Duration":675580,"SoundDuration":675580,"Delta":59153604},{"NoteNumber":78,"Velocity":39,"Duration":645240,"SoundDuration":645240,"Delta":59183944},{"NoteNumber":81,"Velocity":45,"Duration":614901,"SoundDuration":614901,"Delta":59214283},{"NoteNumber":86,"Velocity":45,"Duration":584561,"SoundDuration":584561,"Delta":59244623},{"NoteNumber":93,"Velocity":50,"Duration":554221,"SoundDuration":554221,"Delta":59274963},{"NoteNumber":74,"Velocity":56,"Duration":281162,"SoundDuration":281162,"Delta":59829185},{"NoteNumber":86,"Velocity":69,"Duration":281162,"SoundDuration":281162,"Delta":59829185},{"NoteNumber":78,"Velocity":56,"Duration":281162,"SoundDuration":281162,"Delta":59829185},{"NoteNumber":57,"Velocity":50,"Duration":187441,"SoundDuration":187441,"Delta":59829185},{"NoteNumber":50,"Velocity":50,"Duration":199050,"SoundDuration":199050,"Delta":60016626},{"NoteNumber":76,"Velocity":56,"Duration":315989,"SoundDuration":315989,"Delta":60110347},{"NoteNumber":81,"Velocity":56,"Duration":315989,"SoundDuration":315989,"Delta":60110347},{"NoteNumber":88,"Velocity":77,"Duration":315989,"SoundDuration":315989,"Delta":60110347},{"NoteNumber":45,"Velocity":50,"Duration":1046575,"SoundDuration":1046575,"Delta":60215677},{"NoteNumber":78,"Velocity":52,"Duration":1520241,"SoundDuration":1520241,"Delta":60426336},{"NoteNumber":86,"Velocity":52,"Duration":1520241,"SoundDuration":1520241,"Delta":60426336},{"NoteNumber":90,"Velocity":82,"Duration":754653,"SoundDuration":754653,"Delta":60426336},{"NoteNumber":38,"Velocity":42,"Duration":996224,"SoundDuration":996224,"Delta":60426336},{"NoteNumber":73,"Velocity":61,"Duration":121339,"SoundDuration":121339,"Delta":61180990},{"NoteNumber":85,"Velocity":67,"Duration":121339,"SoundDuration":121339,"Delta":61180990},{"NoteNumber":81,"Velocity":61,"Duration":121339,"SoundDuration":121339,"Delta":61180990},{"NoteNumber":45,"Velocity":41,"Duration":241570,"SoundDuration":241570,"Delta":61180990},{"NoteNumber":50,"Velocity":41,"Duration":80153,"SoundDuration":80153,"Delta":61262252},{"NoteNumber":88,"Velocity":55,"Duration":120230,"SoundDuration":120230,"Delta":61302329},{"NoteNumber":57,"Velocity":41,"Duration":80153,"SoundDuration":80153,"Delta":61342406},{"NoteNumber":74,"Velocity":62,"Duration":524017,"SoundDuration":524017,"Delta":61422560},{"NoteNumber":86,"Velocity":75,"Duration":524017,"SoundDuration":524017,"Delta":61422560},{"NoteNumber":78,"Velocity":62,"Duration":524017,"SoundDuration":524017,"Delta":61422560},{"NoteNumber":62,"Velocity":38,"Duration":524017,"SoundDuration":524017,"Delta":61422560},{"NoteNumber":69,"Velocity":46,"Duration":524017,"SoundDuration":524017,"Delta":61422560},{"NoteNumber":71,"Velocity":46,"Duration":622133,"SoundDuration":622133,"Delta":61946578},{"NoteNumber":78,"Velocity":46,"Duration":622133,"SoundDuration":622133,"Delta":61946578},{"NoteNumber":83,"Velocity":68,"Duration":622133,"SoundDuration":622133,"Delta":61946578},{"NoteNumber":72,"Velocity":46,"Duration":622133,"SoundDuration":622133,"Delta":61946578},{"NoteNumber":57,"Velocity":53,"Duration":542465,"SoundDuration":542465,"Delta":61946578},{"NoteNumber":51,"Velocity":53,"Duration":207377,"SoundDuration":207377,"Delta":62148884},{"NoteNumber":45,"Velocity":53,"Duration":132780,"SoundDuration":132780,"Delta":62356262},{"NoteNumber":38,"Velocity":41,"Duration":1100933,"SoundDuration":1100933,"Delta":62489043},{"NoteNumber":45,"Velocity":41,"Duration":1061099,"SoundDuration":1061099,"Delta":62528877},{"NoteNumber":67,"Velocity":50,"Duration":1556024,"SoundDuration":1556024,"Delta":62568712},{"NoteNumber":73,"Velocity":50,"Duration":1556024,"SoundDuration":1556024,"Delta":62568712},{"NoteNumber":79,"Velocity":60,"Duration":1556024,"SoundDuration":1556024,"Delta":62568712},{"NoteNumber":52,"Velocity":49,"Duration":1021265,"SoundDuration":1021265,"Delta":62568712},{"NoteNumber":69,"Velocity":37,"Duration":120481,"SoundDuration":120481,"Delta":63349013},{"NoteNumber":76,"Velocity":35,"Duration":646328,"SoundDuration":646328,"Delta":63469495},{"NoteNumber":79,"Velocity":39,"Duration":625120,"SoundDuration":625120,"Delta":63499615},{"NoteNumber":81,"Velocity":45,"Duration":595000,"SoundDuration":595000,"Delta":63529736},{"NoteNumber":85,"Velocity":45,"Duration":564879,"SoundDuration":564879,"Delta":63559856},{"NoteNumber":93,"Velocity":50,"Duration":534759,"SoundDuration":534759,"Delta":63589977},{"NoteNumber":67,"Velocity":50,"Duration":292169,"SoundDuration":292169,"Delta":64124736},{"NoteNumber":79,"Velocity":66,"Duration":292169,"SoundDuration":292169,"Delta":64124736},{"NoteNumber":76,"Velocity":55,"Duration":292169,"SoundDuration":292169,"Delta":64124736},{"NoteNumber":62,"Velocity":47,"Duration":595016,"SoundDuration":595016,"Delta":64124736},{"NoteNumber":52,"Velocity":47,"Duration":198338,"SoundDuration":198338,"Delta":64319516},{"NoteNumber":70,"Velocity":50,"Duration":302846,"SoundDuration":302846,"Delta":64416906},{"NoteNumber":82,"Velocity":66,"Duration":302846,"SoundDuration":302846,"Delta":64416906},{"NoteNumber":78,"Velocity":55,"Duration":302846,"SoundDuration":302846,"Delta":64416906},{"NoteNumber":47,"Velocity":47,"Duration":201897,"SoundDuration":201897,"Delta":64517855},{"NoteNumber":71,"Velocity":57,"Duration":780301,"SoundDuration":780301,"Delta":64719753},{"NoteNumber":79,"Velocity":57,"Duration":780301,"SoundDuration":780301,"Delta":64719753},{"NoteNumber":83,"Velocity":74,"Duration":780301,"SoundDuration":780301,"Delta":64719753},{"NoteNumber":38,"Velocity":51,"Duration":520201,"SoundDuration":520201,"Delta":64719753},{"NoteNumber":47,"Velocity":54,"Duration":173400,"SoundDuration":173400,"Delta":64893153},{"NoteNumber":52,"Velocity":56,"Duration":173400,"SoundDuration":173400,"Delta":65066553},{"NoteNumber":61,"Velocity":59,"Duration":527480,"SoundDuration":527480,"Delta":65239954},{"NoteNumber":73,"Velocity":58,"Duration":267379,"SoundDuration":267379,"Delta":65500054},{"NoteNumber":85,"Velocity":77,"Duration":267379,"SoundDuration":267379,"Delta":65500054},{"NoteNumber":82,"Velocity":63,"Duration":267379,"SoundDuration":267379,"Delta":65500054},{"NoteNumber":76,"Velocity":56,"Duration":534759,"SoundDuration":534759,"Delta":65767434},{"NoteNumber":88,"Velocity":80,"Duration":534759,"SoundDuration":534759,"Delta":65767434},{"NoteNumber":85,"Velocity":61,"Duration":534759,"SoundDuration":534759,"Delta":65767434},{"NoteNumber":59,"Velocity":58,"Duration":534759,"SoundDuration":534759,"Delta":65767434},{"NoteNumber":55,"Velocity":52,"Duration":178253,"SoundDuration":178253,"Delta":65945687},{"NoteNumber":47,"Velocity":52,"Duration":178253,"SoundDuration":178253,"Delta":66123940},{"NoteNumber":74,"Velocity":49,"Duration":579150,"SoundDuration":579150,"Delta":66302194},{"NoteNumber":83,"Velocity":53,"Duration":579150,"SoundDuration":579150,"Delta":66302194},{"NoteNumber":86,"Velocity":80,"Duration":579150,"SoundDuration":579150,"Delta":66302194},{"NoteNumber":38,"Velocity":49,"Duration":289575,"SoundDuration":289575,"Delta":66302194},{"NoteNumber":26,"Velocity":40,"Duration":289575,"SoundDuration":289575,"Delta":66302194},{"NoteNumber":40,"Velocity":51,"Duration":289575,"SoundDuration":289575,"Delta":66591769},{"NoteNumber":28,"Velocity":43,"Duration":289575,"SoundDuration":289575,"Delta":66591769},{"NoteNumber":82,"Velocity":51,"Duration":1637351,"SoundDuration":1637351,"Delta":66881344},{"NoteNumber":74,"Velocity":51,"Duration":559492,"SoundDuration":559492,"Delta":66881344},{"NoteNumber":86,"Velocity":83,"Duration":559492,"SoundDuration":559492,"Delta":66881344},{"NoteNumber":78,"Velocity":51,"Duration":1637351,"SoundDuration":1637351,"Delta":66881344},{"NoteNumber":42,"Velocity":57,"Duration":559492,"SoundDuration":559492,"Delta":66881344},{"NoteNumber":30,"Velocity":48,"Duration":559492,"SoundDuration":559492,"Delta":66881344},{"NoteNumber":73,"Velocity":61,"Duration":1077858,"SoundDuration":1077858,"Delta":67440837},{"NoteNumber":85,"Velocity":73,"Duration":1077858,"SoundDuration":1077858,"Delta":67440837},{"NoteNumber":58,"Velocity":46,"Duration":861258,"SoundDuration":861258,"Delta":67440837},{"NoteNumber":52,"Velocity":51,"Duration":186006,"SoundDuration":186006,"Delta":67649823},{"NoteNumber":54,"Velocity":59,"Duration":163025,"SoundDuration":163025,"Delta":67835829},{"NoteNumber":66,"Velocity":60,"Duration":519840,"SoundDuration":519840,"Delta":67998855},{"NoteNumber":70,"Velocity":56,"Duration":303459,"SoundDuration":303459,"Delta":68518695},{"NoteNumber":76,"Velocity":61,"Duration":303459,"SoundDuration":303459,"Delta":68518695},{"NoteNumber":82,"Velocity":69,"Duration":303459,"SoundDuration":303459,"Delta":68518695},{"NoteNumber":67,"Velocity":60,"Duration":202306,"SoundDuration":202306,"Delta":68518695},{"NoteNumber":66,"Velocity":49,"Duration":202306,"SoundDuration":202306,"Delta":68721002},{"NoteNumber":71,"Velocity":54,"Duration":303459,"SoundDuration":303459,"Delta":68822155},{"NoteNumber":74,"Velocity":59,"Duration":303459,"SoundDuration":303459,"Delta":68822155},{"NoteNumber":83,"Velocity":74,"Duration":303459,"SoundDuration":303459,"Delta":68822155},{"NoteNumber":65,"Velocity":50,"Duration":202306,"SoundDuration":202306,"Delta":68923308},{"NoteNumber":73,"Velocity":61,"Duration":780301,"SoundDuration":780301,"Delta":69125614},{"NoteNumber":79,"Velocity":67,"Duration":780301,"SoundDuration":780301,"Delta":69125614},{"NoteNumber":85,"Velocity":82,"Duration":780301,"SoundDuration":780301,"Delta":69125614},{"NoteNumber":64,"Velocity":56,"Duration":520201,"SoundDuration":520201,"Delta":69125614},{"NoteNumber":59,"Velocity":51,"Duration":173400,"SoundDuration":173400,"Delta":69299015},{"NoteNumber":52,"Velocity":51,"Duration":173400,"SoundDuration":173400,"Delta":69472415},{"NoteNumber":42,"Velocity":58,"Duration":527480,"SoundDuration":527480,"Delta":69645815},{"NoteNumber":74,"Velocity":65,"Duration":267379,"SoundDuration":267379,"Delta":69905916},{"NoteNumber":86,"Velocity":81,"Duration":267379,"SoundDuration":267379,"Delta":69905916},{"NoteNumber":78,"Velocity":59,"Duration":550156,"SoundDuration":550156,"Delta":70173296},{"NoteNumber":86,"Velocity":64,"Duration":550156,"SoundDuration":550156,"Delta":70173296},{"NoteNumber":90,"Velocity":86,"Duration":550156,"SoundDuration":550156,"Delta":70173296},{"NoteNumber":30,"Velocity":58,"Duration":550156,"SoundDuration":550156,"Delta":70173296},{"NoteNumber":42,"Velocity":47,"Duration":275078,"SoundDuration":275078,"Delta":70448374},{"NoteNumber":76,"Velocity":67,"Duration":554836,"SoundDuration":554836,"Delta":70723452},{"NoteNumber":85,"Velocity":73,"Duration":554836,"SoundDuration":554836,"Delta":70723452},{"NoteNumber":88,"Velocity":81,"Duration":554836,"SoundDuration":554836,"Delta":70723452},{"NoteNumber":44,"Velocity":47,"Duration":277418,"SoundDuration":277418,"Delta":70723452},{"NoteNumber":32,"Velocity":39,"Duration":277418,"SoundDuration":277418,"Delta":70723452},{"NoteNumber":46,"Velocity":50,"Duration":277418,"SoundDuration":277418,"Delta":71000870},{"NoteNumber":34,"Velocity":42,"Duration":277418,"SoundDuration":277418,"Delta":71000870},{"NoteNumber":73,"Velocity":57,"Duration":541223,"SoundDuration":541223,"Delta":71278288},{"NoteNumber":77,"Velocity":59,"Duration":541223,"SoundDuration":541223,"Delta":71278288},{"NoteNumber":85,"Velocity":74,"Duration":541223,"SoundDuration":541223,"Delta":71278288},{"NoteNumber":47,"Velocity":54,"Duration":1611011,"SoundDuration":1611011,"Delta":71278288},{"NoteNumber":35,"Velocity":45,"Duration":1611011,"SoundDuration":1611011,"Delta":71278288},{"NoteNumber":74,"Velocity":54,"Duration":1069788,"SoundDuration":1069788,"Delta":71819511},{"NoteNumber":86,"Velocity":80,"Duration":1069788,"SoundDuration":1069788,"Delta":71819511},{"NoteNumber":78,"Velocity":54,"Duration":1069788,"SoundDuration":1069788,"Delta":71819511},{"NoteNumber":54,"Velocity":46,"Duration":244538,"SoundDuration":244538,"Delta":72132991},{"NoteNumber":59,"Velocity":34,"Duration":511770,"SoundDuration":511770,"Delta":72377529},{"NoteNumber":66,"Velocity":50,"Duration":511770,"SoundDuration":511770,"Delta":72377529},{"NoteNumber":62,"Velocity":59,"Duration":536768,"SoundDuration":536768,"Delta":72889300},{"NoteNumber":71,"Velocity":59,"Duration":536768,"SoundDuration":536768,"Delta":72889300},{"NoteNumber":74,"Velocity":74,"Duration":536768,"SoundDuration":536768,"Delta":72889300},{"NoteNumber":54,"Velocity":46,"Duration":536768,"SoundDuration":536768,"Delta":72889300},{"NoteNumber":64,"Velocity":33,"Duration":502173,"SoundDuration":502173,"Delta":73426068},{"NoteNumber":71,"Velocity":36,"Duration":502173,"SoundDuration":502173,"Delta":73426068},{"NoteNumber":73,"Velocity":76,"Duration":328893,"SoundDuration":328893,"Delta":73426068},{"NoteNumber":47,"Velocity":43,"Duration":764915,"SoundDuration":764915,"Delta":73426068},{"NoteNumber":55,"Velocity":51,"Duration":764915,"SoundDuration":764915,"Delta":73426068},{"NoteNumber":76,"Velocity":68,"Duration":346560,"SoundDuration":346560,"Delta":73754962},{"NoteNumber":70,"Velocity":46,"Duration":531125,"SoundDuration":531125,"Delta":73928242},{"NoteNumber":78,"Velocity":65,"Duration":357845,"SoundDuration":357845,"Delta":74101522},{"NoteNumber":55,"Velocity":45,"Duration":268384,"SoundDuration":268384,"Delta":74190983},{"NoteNumber":69,"Velocity":46,"Duration":366770,"SoundDuration":366770,"Delta":74459368},{"NoteNumber":76,"Velocity":71,"Duration":550156,"SoundDuration":550156,"Delta":74459368},{"NoteNumber":59,"Velocity":43,"Duration":550156,"SoundDuration":550156,"Delta":74459368},{"NoteNumber":61,"Velocity":50,"Duration":550156,"SoundDuration":550156,"Delta":74459368},{"NoteNumber":68,"Velocity":44,"Duration":372207,"SoundDuration":372207,"Delta":74826138},{"NoteNumber":71,"Velocity":66,"Duration":566465,"SoundDuration":566465,"Delta":75009524},{"NoteNumber":52,"Velocity":47,"Duration":566465,"SoundDuration":566465,"Delta":75009524},{"NoteNumber":67,"Velocity":42,"Duration":377643,"SoundDuration":377643,"Delta":75198345},{"NoteNumber":74,"Velocity":71,"Duration":1615061,"SoundDuration":1615061,"Delta":75575989},{"NoteNumber":66,"Velocity":60,"Duration":810757,"SoundDuration":810757,"Delta":75575989},{"NoteNumber":47,"Velocity":49,"Duration":1615061,"SoundDuration":1615061,"Delta":75575989},{"NoteNumber":53,"Velocity":50,"Duration":360815,"SoundDuration":360815,"Delta":75936804},{"NoteNumber":54,"Velocity":53,"Duration":339209,"SoundDuration":339209,"Delta":76297620},{"NoteNumber":62,"Velocity":50,"Duration":1341073,"SoundDuration":1341073,"Delta":76386746},{"NoteNumber":57,"Velocity":51,"Duration":125041,"SoundDuration":125041,"Delta":76511788},{"NoteNumber":71,"Velocity":50,"Duration":1090989,"SoundDuration":1090989,"Delta":76636830},{"NoteNumber":55,"Velocity":55,"Duration":554221,"SoundDuration":554221,"Delta":76636830},{"NoteNumber":74,"Velocity":74,"Duration":536768,"SoundDuration":536768,"Delta":77191051},{"NoteNumber":47,"Velocity":39,"Duration":536768,"SoundDuration":536768,"Delta":77191051},{"NoteNumber":54,"Velocity":50,"Duration":536768,"SoundDuration":536768,"Delta":77191051},{"NoteNumber":71,"Velocity":57,"Duration":481858,"SoundDuration":481858,"Delta":77727820},{"NoteNumber":64,"Velocity":57,"Duration":481858,"SoundDuration":481858,"Delta":77727820},{"NoteNumber":73,"Velocity":68,"Duration":164744,"SoundDuration":164744,"Delta":77727820},{"NoteNumber":47,"Velocity":43,"Duration":710866,"SoundDuration":710866,"Delta":77727820},{"NoteNumber":55,"Velocity":51,"Duration":710866,"SoundDuration":710866,"Delta":77727820},{"NoteNumber":76,"Velocity":58,"Duration":160619,"SoundDuration":160619,"Delta":77892564},{"NoteNumber":78,"Velocity":58,"Duration":156494,"SoundDuration":156494,"Delta":78053184},{"NoteNumber":76,"Velocity":66,"Duration":152671,"SoundDuration":152671,"Delta":78209678},{"NoteNumber":83,"Velocity":62,"Duration":160938,"SoundDuration":160938,"Delta":78362350},{"NoteNumber":55,"Velocity":45,"Duration":253806,"SoundDuration":253806,"Delta":78438686},{"NoteNumber":90,"Velocity":62,"Duration":169204,"SoundDuration":169204,"Delta":78523288},{"NoteNumber":88,"Velocity":71,"Duration":183385,"SoundDuration":183385,"Delta":78692493},{"NoteNumber":61,"Velocity":43,"Duration":550156,"SoundDuration":550156,"Delta":78692493},{"NoteNumber":59,"Velocity":43,"Duration":550156,"SoundDuration":550156,"Delta":78692493},{"NoteNumber":67,"Velocity":50,"Duration":550156,"SoundDuration":550156,"Delta":78692493},{"NoteNumber":85,"Velocity":67,"Duration":183385,"SoundDuration":183385,"Delta":78875878},{"NoteNumber":83,"Velocity":63,"Duration":183385,"SoundDuration":183385,"Delta":79059264},{"NoteNumber":78,"Velocity":62,"Duration":94410,"SoundDuration":94410,"Delta":79242649},{"NoteNumber":55,"Velocity":47,"Duration":566465,"SoundDuration":566465,"Delta":79242649},{"NoteNumber":76,"Velocity":62,"Duration":94410,"SoundDuration":94410,"Delta":79431471},{"NoteNumber":71,"Velocity":59,"Duration":94410,"SoundDuration":94410,"Delta":79620293},{"NoteNumber":66,"Velocity":57,"Duration":1685870,"SoundDuration":1685870,"Delta":79738306},{"NoteNumber":73,"Velocity":57,"Duration":1650466,"SoundDuration":1650466,"Delta":79773711},{"NoteNumber":74,"Velocity":57,"Duration":1615061,"SoundDuration":1615061,"Delta":79809115},{"NoteNumber":47,"Velocity":49,"Duration":1615061,"SoundDuration":1615061,"Delta":79809115},{"NoteNumber":53,"Velocity":50,"Duration":360815,"SoundDuration":360815,"Delta":80169930},{"NoteNumber":54,"Velocity":53,"Duration":339209,"SoundDuration":339209,"Delta":80530745},{"NoteNumber":62,"Velocity":50,"Duration":1341073,"SoundDuration":1341073,"Delta":80619872},{"NoteNumber":57,"Velocity":51,"Duration":125041,"SoundDuration":125041,"Delta":80744914},{"NoteNumber":71,"Velocity":50,"Duration":1090989,"SoundDuration":1090989,"Delta":80869955},{"NoteNumber":55,"Velocity":55,"Duration":554221,"SoundDuration":554221,"Delta":80869955},{"NoteNumber":74,"Velocity":68,"Duration":536768,"SoundDuration":536768,"Delta":81424177},{"NoteNumber":54,"Velocity":50,"Duration":536768,"SoundDuration":536768,"Delta":81424177},{"NoteNumber":45,"Velocity":39,"Duration":536768,"SoundDuration":536768,"Delta":81424177},{"NoteNumber":71,"Velocity":71,"Duration":328893,"SoundDuration":328893,"Delta":81960945},{"NoteNumber":66,"Velocity":38,"Duration":1033299,"SoundDuration":1033299,"Delta":81960945},{"NoteNumber":62,"Velocity":38,"Duration":1033299,"SoundDuration":1033299,"Delta":81960945},{"NoteNumber":44,"Velocity":51,"Duration":764915,"SoundDuration":764915,"Delta":81960945},{"NoteNumber":73,"Velocity":68,"Duration":346560,"SoundDuration":346560,"Delta":82289838},{"NoteNumber":74,"Velocity":64,"Duration":290749,"SoundDuration":290749,"Delta":82636399},{"NoteNumber":54,"Velocity":45,"Duration":268384,"SoundDuration":268384,"Delta":82725860},{"NoteNumber":64,"Velocity":59,"Duration":617252,"SoundDuration":617252,"Delta":82927148},{"NoteNumber":71,"Velocity":70,"Duration":550156,"SoundDuration":550156,"Delta":82994244},{"NoteNumber":56,"Velocity":43,"Duration":550156,"SoundDuration":550156,"Delta":82994244},{"NoteNumber":66,"Velocity":50,"Duration":543279,"SoundDuration":543279,"Delta":82994244},{"NoteNumber":62,"Velocity":59,"Duration":566465,"SoundDuration":566465,"Delta":83544400},{"NoteNumber":66,"Velocity":64,"Duration":2181527,"SoundDuration":2181527,"Delta":83544400},{"NoteNumber":48,"Velocity":37,"Duration":566465,"SoundDuration":566465,"Delta":83544400},{"NoteNumber":57,"Velocity":47,"Duration":566465,"SoundDuration":566465,"Delta":83544400},{"NoteNumber":70,"Velocity":68,"Duration":1615061,"SoundDuration":1615061,"Delta":84110866},{"NoteNumber":63,"Velocity":47,"Duration":541223,"SoundDuration":541223,"Delta":84110866},{"NoteNumber":37,"Velocity":49,"Duration":360815,"SoundDuration":360815,"Delta":84110866},{"NoteNumber":48,"Velocity":48,"Duration":360815,"SoundDuration":360815,"Delta":84471681},{"NoteNumber":61,"Velocity":43,"Duration":519617,"SoundDuration":519617,"Delta":84652089},{"NoteNumber":49,"Velocity":51,"Duration":339209,"SoundDuration":339209,"Delta":84832497},{"NoteNumber":53,"Velocity":49,"Duration":125041,"SoundDuration":125041,"Delta":85046665},{"NoteNumber":60,"Velocity":47,"Duration":554221,"SoundDuration":554221,"Delta":85171706},{"NoteNumber":51,"Velocity":52,"Duration":554221,"SoundDuration":554221,"Delta":85171706},{"NoteNumber":66,"Velocity":42,"Duration":536768,"SoundDuration":536768,"Delta":85725928},{"NoteNumber":61,"Velocity":42,"Duration":536768,"SoundDuration":536768,"Delta":85725928},{"NoteNumber":70,"Velocity":57,"Duration":536768,"SoundDuration":536768,"Delta":85725928},{"NoteNumber":49,"Velocity":48,"Duration":536768,"SoundDuration":536768,"Delta":85725928},{"NoteNumber":64,"Velocity":36,"Duration":570731,"SoundDuration":570731,"Delta":86262696},{"NoteNumber":68,"Velocity":62,"Duration":328893,"SoundDuration":328893,"Delta":86262696},{"NoteNumber":59,"Velocity":45,"Duration":570731,"SoundDuration":570731,"Delta":86262696},{"NoteNumber":54,"Velocity":45,"Duration":570731,"SoundDuration":570731,"Delta":86262696},{"NoteNumber":70,"Velocity":69,"Duration":412428,"SoundDuration":412428,"Delta":86591590},{"NoteNumber":62,"Velocity":36,"Duration":260051,"SoundDuration":260051,"Delta":86833428},{"NoteNumber":44,"Velocity":45,"Duration":528435,"SoundDuration":528435,"Delta":86833428},{"NoteNumber":73,"Velocity":49,"Duration":127942,"SoundDuration":127942,"Delta":86876075},{"NoteNumber":71,"Velocity":56,"Duration":357845,"SoundDuration":357845,"Delta":87004018},{"NoteNumber":65,"Velocity":40,"Duration":1121302,"SoundDuration":1121302,"Delta":87361864},{"NoteNumber":61,"Velocity":40,"Duration":554836,"SoundDuration":554836,"Delta":87361864},{"NoteNumber":70,"Velocity":66,"Duration":554836,"SoundDuration":554836,"Delta":87361864},{"NoteNumber":37,"Velocity":50,"Duration":369890,"SoundDuration":369890,"Delta":87361864},{"NoteNumber":49,"Velocity":40,"Duration":373767,"SoundDuration":373767,"Delta":87731755},{"NoteNumber":59,"Velocity":35,"Duration":566465,"SoundDuration":566465,"Delta":87916700},{"NoteNumber":68,"Velocity":57,"Duration":566465,"SoundDuration":566465,"Delta":87916700},{"NoteNumber":61,"Velocity":40,"Duration":377643,"SoundDuration":377643,"Delta":88105522},{"NoteNumber":58,"Velocity":44,"Duration":1615061,"SoundDuration":1615061,"Delta":88483166},{"NoteNumber":73,"Velocity":63,"Duration":1615061,"SoundDuration":1615061,"Delta":88483166},{"NoteNumber":66,"Velocity":44,"Duration":1615061,"SoundDuration":1615061,"Delta":88483166},{"NoteNumber":42,"Velocity":49,"Duration":2151830,"SoundDuration":2151830,"Delta":88483166},{"NoteNumber":48,"Velocity":50,"Duration":360815,"SoundDuration":360815,"Delta":88843981},{"NoteNumber":49,"Velocity":53,"Duration":339209,"SoundDuration":339209,"Delta":89204796},{"NoteNumber":53,"Velocity":51,"Duration":125041,"SoundDuration":125041,"Delta":89418965},{"NoteNumber":51,"Velocity":55,"Duration":554221,"SoundDuration":554221,"Delta":89544006},{"NoteNumber":61,"Velocity":40,"Duration":536768,"SoundDuration":536768,"Delta":90098228},{"NoteNumber":66,"Velocity":40,"Duration":536768,"SoundDuration":536768,"Delta":90098228},{"NoteNumber":70,"Velocity":48,"Duration":536768,"SoundDuration":536768,"Delta":90098228},{"NoteNumber":49,"Velocity":50,"Duration":536768,"SoundDuration":536768,"Delta":90098228},{"NoteNumber":61,"Velocity":34,"Duration":1064970,"SoundDuration":1064970,"Delta":90634996},{"NoteNumber":71,"Velocity":48,"Duration":328893,"SoundDuration":328893,"Delta":90634996},{"NoteNumber":65,"Velocity":34,"Duration":1064970,"SoundDuration":1064970,"Delta":90634996},{"NoteNumber":49,"Velocity":38,"Duration":1615126,"SoundDuration":1615126,"Delta":90634996},{"NoteNumber":56,"Velocity":45,"Duration":1615126,"SoundDuration":1615126,"Delta":90634996},{"NoteNumber":42,"Velocity":38,"Duration":1615126,"SoundDuration":1615126,"Delta":90634996},{"NoteNumber":73,"Velocity":53,"Duration":378231,"SoundDuration":378231,"Delta":90963889},{"NoteNumber":77,"Velocity":51,"Duration":357845,"SoundDuration":357845,"Delta":91342121},{"NoteNumber":73,"Velocity":36,"Duration":201288,"SoundDuration":201288,"Delta":91431582},{"NoteNumber":80,"Velocity":34,"Duration":617252,"SoundDuration":617252,"Delta":91632870},{"NoteNumber":83,"Velocity":39,"Duration":583704,"SoundDuration":583704,"Delta":91666418},{"NoteNumber":65,"Velocity":39,"Duration":550156,"SoundDuration":550156,"Delta":91699966},{"NoteNumber":71,"Velocity":39,"Duration":550156,"SoundDuration":550156,"Delta":91699966},{"NoteNumber":75,"Velocity":53,"Duration":137539,"SoundDuration":137539,"Delta":91699966},{"NoteNumber":85,"Velocity":42,"Duration":550156,"SoundDuration":550156,"Delta":91699966},{"NoteNumber":77,"Velocity":46,"Duration":137538,"SoundDuration":137538,"Delta":91837505},{"NoteNumber":75,"Velocity":46,"Duration":275078,"SoundDuration":275078,"Delta":91975044},{"NoteNumber":61,"Velocity":40,"Duration":566465,"SoundDuration":566465,"Delta":92250122},{"NoteNumber":65,"Velocity":40,"Duration":566465,"SoundDuration":566465,"Delta":92250122},{"NoteNumber":71,"Velocity":40,"Duration":566465,"SoundDuration":566465,"Delta":92250122},{"NoteNumber":73,"Velocity":51,"Duration":566465,"SoundDuration":566465,"Delta":92250122},{"NoteNumber":42,"Velocity":28,"Duration":566465,"SoundDuration":566465,"Delta":92250122},{"NoteNumber":49,"Velocity":28,"Duration":566465,"SoundDuration":566465,"Delta":92250122},{"NoteNumber":56,"Velocity":33,"Duration":566465,"SoundDuration":566465,"Delta":92250122},{"NoteNumber":58,"Velocity":28,"Duration":1678507,"SoundDuration":1678507,"Delta":92816588},{"NoteNumber":61,"Velocity":48,"Duration":328893,"SoundDuration":328893,"Delta":92816588},{"NoteNumber":70,"Velocity":34,"Duration":1678507,"SoundDuration":1678507,"Delta":92816588},{"NoteNumber":54,"Velocity":45,"Duration":1678507,"SoundDuration":1678507,"Delta":92816588},{"NoteNumber":49,"Velocity":38,"Duration":1678507,"SoundDuration":1678507,"Delta":92816588},{"NoteNumber":42,"Velocity":38,"Duration":1678507,"SoundDuration":1678507,"Delta":92816588},{"NoteNumber":63,"Velocity":53,"Duration":378231,"SoundDuration":378231,"Delta":93145481},{"NoteNumber":65,"Velocity":51,"Duration":357845,"SoundDuration":357845,"Delta":93523713},{"NoteNumber":73,"Velocity":30,"Duration":201288,"SoundDuration":201288,"Delta":93613174},{"NoteNumber":78,"Velocity":40,"Duration":680633,"SoundDuration":680633,"Delta":93814462},{"NoteNumber":82,"Velocity":46,"Duration":647085,"SoundDuration":647085,"Delta":93848010},{"NoteNumber":63,"Velocity":55,"Duration":103820,"SoundDuration":103820,"Delta":93881558},{"NoteNumber":85,"Velocity":48,"Duration":613537,"SoundDuration":613537,"Delta":93881558},{"NoteNumber":65,"Velocity":49,"Duration":103820,"SoundDuration":103820,"Delta":93985379},{"NoteNumber":63,"Velocity":54,"Duration":207641,"SoundDuration":207641,"Delta":94089199},{"NoteNumber":61,"Velocity":47,"Duration":396510,"SoundDuration":396510,"Delta":94296841},{"NoteNumber":70,"Velocity":53,"Duration":574477,"SoundDuration":574477,"Delta":94495096},{"NoteNumber":42,"Velocity":28,"Duration":574477,"SoundDuration":574477,"Delta":94495096},{"NoteNumber":54,"Velocity":33,"Duration":574477,"SoundDuration":574477,"Delta":94495096},{"NoteNumber":49,"Velocity":28,"Duration":574477,"SoundDuration":574477,"Delta":94495096},{"NoteNumber":66,"Velocity":40,"Duration":376222,"SoundDuration":376222,"Delta":94693351},{"NoteNumber":71,"Velocity":34,"Duration":1064970,"SoundDuration":1064970,"Delta":95069574},{"NoteNumber":66,"Velocity":48,"Duration":328893,"SoundDuration":328893,"Delta":95069574},{"NoteNumber":42,"Velocity":38,"Duration":1663637,"SoundDuration":1663637,"Delta":95069574},{"NoteNumber":49,"Velocity":38,"Duration":1663637,"SoundDuration":1663637,"Delta":95069574},{"NoteNumber":56,"Velocity":45,"Duration":1663637,"SoundDuration":1663637,"Delta":95069574},{"NoteNumber":65,"Velocity":52,"Duration":378231,"SoundDuration":378231,"Delta":95398467},{"NoteNumber":63,"Velocity":48,"Duration":357845,"SoundDuration":357845,"Delta":95776699},{"NoteNumber":73,"Velocity":36,"Duration":201288,"SoundDuration":201288,"Delta":95866160},{"NoteNumber":80,"Velocity":34,"Duration":665763,"SoundDuration":665763,"Delta":96067448},{"NoteNumber":83,"Velocity":39,"Duration":632215,"SoundDuration":632215,"Delta":96100996},{"NoteNumber":71,"Velocity":46,"Duration":1165133,"SoundDuration":1165133,"Delta":96134544},{"NoteNumber":65,"Velocity":46,"Duration":598667,"SoundDuration":598667,"Delta":96134544},{"NoteNumber":85,"Velocity":42,"Duration":598667,"SoundDuration":598667,"Delta":96134544},{"NoteNumber":61,"Velocity":46,"Duration":566465,"SoundDuration":566465,"Delta":96733212},{"NoteNumber":42,"Velocity":28,"Duration":566465,"SoundDuration":566465,"Delta":96733212},{"NoteNumber":49,"Velocity":28,"Duration":566465,"SoundDuration":566465,"Delta":96733212},{"NoteNumber":56,"Velocity":33,"Duration":566465,"SoundDuration":566465,"Delta":96733212},{"NoteNumber":61,"Velocity":34,"Duration":1009899,"SoundDuration":1009899,"Delta":97299677},{"NoteNumber":66,"Velocity":34,"Duration":1009899,"SoundDuration":1009899,"Delta":97299677},{"NoteNumber":70,"Velocity":48,"Duration":328893,"SoundDuration":328893,"Delta":97299677},{"NoteNumber":42,"Velocity":38,"Duration":493340,"SoundDuration":493340,"Delta":97299677},{"NoteNumber":49,"Velocity":38,"Duration":493340,"SoundDuration":493340,"Delta":97299677},{"NoteNumber":54,"Velocity":45,"Duration":1613911,"SoundDuration":1613911,"Delta":97299677},{"NoteNumber":71,"Velocity":53,"Duration":328893,"SoundDuration":328893,"Delta":97628571},{"NoteNumber":72,"Velocity":54,"Duration":352112,"SoundDuration":352112,"Delta":97957464},{"NoteNumber":49,"Velocity":40,"Duration":264084,"SoundDuration":264084,"Delta":98045492},{"NoteNumber":66,"Velocity":34,"Duration":1173164,"SoundDuration":1173164,"Delta":98309577},{"NoteNumber":73,"Velocity":57,"Duration":386100,"SoundDuration":386100,"Delta":98309577},{"NoteNumber":57,"Velocity":48,"Duration":604012,"SoundDuration":604012,"Delta":98309577},{"NoteNumber":77,"Velocity":46,"Duration":144787,"SoundDuration":144787,"Delta":98550890},{"NoteNumber":75,"Velocity":52,"Duration":407629,"SoundDuration":407629,"Delta":98695677},{"NoteNumber":49,"Velocity":28,"Duration":498007,"SoundDuration":498007,"Delta":98913589},{"NoteNumber":58,"Velocity":37,"Duration":498007,"SoundDuration":498007,"Delta":98913589},{"NoteNumber":73,"Velocity":48,"Duration":308290,"SoundDuration":308290,"Delta":99103307},{"NoteNumber":63,"Velocity":39,"Duration":1136114,"SoundDuration":1136114,"Delta":99411597},{"NoteNumber":65,"Velocity":34,"Duration":1100542,"SoundDuration":1100542,"Delta":99447169},{"NoteNumber":71,"Velocity":48,"Duration":328893,"SoundDuration":328893,"Delta":99482741},{"NoteNumber":42,"Velocity":38,"Duration":1064970,"SoundDuration":1064970,"Delta":99482741},{"NoteNumber":49,"Velocity":38,"Duration":1064970,"SoundDuration":1064970,"Delta":99482741},{"NoteNumber":56,"Velocity":45,"Duration":1064970,"SoundDuration":1064970,"Delta":99482741},{"NoteNumber":73,"Velocity":53,"Duration":378231,"SoundDuration":378231,"Delta":99811635},{"NoteNumber":61,"Velocity":36,"Duration":528435,"SoundDuration":528435,"Delta":100019276},{"NoteNumber":77,"Velocity":51,"Duration":357845,"SoundDuration":357845,"Delta":100189866},{"NoteNumber":66,"Velocity":47,"Duration":275077,"SoundDuration":275077,"Delta":100547712},{"NoteNumber":75,"Velocity":55,"Duration":137539,"SoundDuration":137539,"Delta":100547712},{"NoteNumber":60,"Velocity":38,"Duration":621078,"SoundDuration":621078,"Delta":100547712},{"NoteNumber":49,"Velocity":32,"Duration":626942,"SoundDuration":626942,"Delta":100547712},{"NoteNumber":77,"Velocity":48,"Duration":137538,"SoundDuration":137538,"Delta":100685251},{"NoteNumber":75,"Velocity":47,"Duration":263898,"SoundDuration":263898,"Delta":100822790},{"NoteNumber":59,"Velocity":43,"Duration":648399,"SoundDuration":648399,"Delta":101086689},{"NoteNumber":65,"Velocity":43,"Duration":604416,"SoundDuration":604416,"Delta":101130672},{"NoteNumber":73,"Velocity":51,"Duration":560433,"SoundDuration":560433,"Delta":101174655},{"NoteNumber":56,"Velocity":33,"Duration":560433,"SoundDuration":560433,"Delta":101174655},{"NoteNumber":42,"Velocity":28,"Duration":560433,"SoundDuration":560433,"Delta":101174655},{"NoteNumber":49,"Velocity":28,"Duration":560433,"SoundDuration":560433,"Delta":101174655},{"NoteNumber":66,"Velocity":44,"Duration":1120867,"SoundDuration":1120867,"Delta":101735088},{"NoteNumber":70,"Velocity":52,"Duration":1120867,"SoundDuration":1120867,"Delta":101735088},{"NoteNumber":58,"Velocity":44,"Duration":1120867,"SoundDuration":1120867,"Delta":101735088},{"NoteNumber":42,"Velocity":38,"Duration":1120867,"SoundDuration":1120867,"Delta":101735088},{"NoteNumber":49,"Velocity":38,"Duration":1120867,"SoundDuration":1120867,"Delta":101735088},{"NoteNumber":54,"Velocity":45,"Duration":1120867,"SoundDuration":1120867,"Delta":101735088},{"NoteNumber":66,"Velocity":48,"Duration":1037978,"SoundDuration":1037978,"Delta":102855955},{"NoteNumber":60,"Velocity":48,"Duration":1037978,"SoundDuration":1037978,"Delta":102855955},{"NoteNumber":69,"Velocity":62,"Duration":338581,"SoundDuration":338581,"Delta":102855955},{"NoteNumber":38,"Velocity":35,"Duration":1037978,"SoundDuration":1037978,"Delta":102855955},{"NoteNumber":50,"Velocity":35,"Duration":1037978,"SoundDuration":1037978,"Delta":102855955},{"NoteNumber":74,"Velocity":57,"Duration":338581,"SoundDuration":338581,"Delta":103194537},{"NoteNumber":71,"Velocity":55,"Duration":360815,"SoundDuration":360815,"Delta":103533118},{"NoteNumber":69,"Velocity":57,"Duration":338581,"SoundDuration":338581,"Delta":103893933},{"NoteNumber":62,"Velocity":44,"Duration":1035008,"SoundDuration":1035008,"Delta":103893933},{"NoteNumber":43,"Velocity":32,"Duration":1035008,"SoundDuration":1035008,"Delta":103893933},{"NoteNumber":50,"Velocity":38,"Duration":1035008,"SoundDuration":1035008,"Delta":103893933},{"NoteNumber":60,"Velocity":38,"Duration":507872,"SoundDuration":507872,"Delta":103893933},{"NoteNumber":67,"Velocity":48,"Duration":338581,"SoundDuration":338581,"Delta":104232515},{"NoteNumber":59,"Velocity":34,"Duration":522663,"SoundDuration":522663,"Delta":104401805},{"NoteNumber":74,"Velocity":48,"Duration":357845,"SoundDuration":357845,"Delta":104571096},{"NoteNumber":65,"Velocity":51,"Duration":524017,"SoundDuration":524017,"Delta":104928942},{"NoteNumber":59,"Velocity":38,"Duration":1078853,"SoundDuration":1078853,"Delta":104928942},{"NoteNumber":44,"Velocity":35,"Duration":524017,"SoundDuration":524017,"Delta":104928942},{"NoteNumber":49,"Velocity":35,"Duration":1078853,"SoundDuration":1078853,"Delta":104928942},{"NoteNumber":73,"Velocity":53,"Duration":554836,"SoundDuration":554836,"Delta":105452959},{"NoteNumber":37,"Velocity":33,"Duration":554836,"SoundDuration":554836,"Delta":105452959},{"NoteNumber":66,"Velocity":52,"Duration":1158300,"SoundDuration":1158300,"Delta":106007796},{"NoteNumber":58,"Velocity":48,"Duration":1158300,"SoundDuration":1158300,"Delta":106007796},{"NoteNumber":49,"Velocity":37,"Duration":1158300,"SoundDuration":1158300,"Delta":106007796},{"NoteNumber":42,"Velocity":37,"Duration":1158300,"SoundDuration":1158300,"Delta":106007796},{"NoteNumber":64,"Velocity":56,"Duration":507872,"SoundDuration":507872,"Delta":107166097},{"NoteNumber":57,"Velocity":56,"Duration":1037978,"SoundDuration":1037978,"Delta":107166097},{"NoteNumber":66,"Velocity":66,"Duration":338581,"SoundDuration":338581,"Delta":107166097},{"NoteNumber":36,"Velocity":35,"Duration":507872,"SoundDuration":507872,"Delta":107166097},{"NoteNumber":48,"Velocity":35,"Duration":507872,"SoundDuration":507872,"Delta":107166097},{"NoteNumber":69,"Velocity":58,"Duration":338581,"SoundDuration":338581,"Delta":107504678},{"NoteNumber":63,"Velocity":56,"Duration":530106,"SoundDuration":530106,"Delta":107673969},{"NoteNumber":35,"Velocity":35,"Duration":530106,"SoundDuration":530106,"Delta":107673969},{"NoteNumber":47,"Velocity":35,"Duration":1037978,"SoundDuration":1037978,"Delta":107673969},{"NoteNumber":67,"Velocity":58,"Duration":360815,"SoundDuration":360815,"Delta":107843259},{"NoteNumber":57,"Velocity":51,"Duration":507872,"SoundDuration":507872,"Delta":108204075},{"NoteNumber":66,"Velocity":61,"Duration":338581,"SoundDuration":338581,"Delta":108204075},{"NoteNumber":40,"Velocity":45,"Duration":1079440,"SoundDuration":1079440,"Delta":108212539},{"NoteNumber":64,"Velocity":56,"Duration":338581,"SoundDuration":338581,"Delta":108542656},{"NoteNumber":56,"Velocity":51,"Duration":569450,"SoundDuration":569450,"Delta":108711947},{"NoteNumber":50,"Velocity":34,"Duration":569450,"SoundDuration":569450,"Delta":108711947},{"NoteNumber":71,"Velocity":55,"Duration":400159,"SoundDuration":400159,"Delta":108881237},{"NoteNumber":55,"Velocity":42,"Duration":1410768,"SoundDuration":1410768,"Delta":109281397},{"NoteNumber":64,"Velocity":50,"Duration":634920,"SoundDuration":634920,"Delta":109281397},{"NoteNumber":61,"Velocity":42,"Duration":1410768,"SoundDuration":1410768,"Delta":109281397},{"NoteNumber":45,"Velocity":35,"Duration":1410768,"SoundDuration":1410768,"Delta":109281397},{"NoteNumber":33,"Velocity":35,"Duration":1410768,"SoundDuration":1410768,"Delta":109281397},{"NoteNumber":65,"Velocity":46,"Duration":775847,"SoundDuration":775847,"Delta":109916318},{"NoteNumber":62,"Velocity":30,"Duration":264765,"SoundDuration":264765,"Delta":110692165},{"NoteNumber":54,"Velocity":30,"Duration":264765,"SoundDuration":264765,"Delta":110692165},{"NoteNumber":66,"Velocity":55,"Duration":264765,"SoundDuration":264765,"Delta":110692165},{"NoteNumber":26,"Velocity":33,"Duration":978492,"SoundDuration":978492,"Delta":110692165},{"NoteNumber":38,"Velocity":41,"Duration":978492,"SoundDuration":978492,"Delta":110692165},{"NoteNumber":55,"Velocity":40,"Duration":241000,"SoundDuration":241000,"Delta":111017003},{"NoteNumber":62,"Velocity":40,"Duration":241000,"SoundDuration":241000,"Delta":111017003},{"NoteNumber":66,"Velocity":51,"Duration":241000,"SoundDuration":241000,"Delta":111017003},{"NoteNumber":56,"Velocity":38,"Duration":229231,"SoundDuration":229231,"Delta":111318253},{"NoteNumber":62,"Velocity":38,"Duration":229231,"SoundDuration":229231,"Delta":111318253},{"NoteNumber":66,"Velocity":48,"Duration":229231,"SoundDuration":229231,"Delta":111318253},{"NoteNumber":54,"Velocity":41,"Duration":91692,"SoundDuration":91692,"Delta":111409946},{"NoteNumber":55,"Velocity":41,"Duration":86903,"SoundDuration":86903,"Delta":111501639},{"NoteNumber":62,"Velocity":45,"Duration":123172,"SoundDuration":123172,"Delta":111547485},{"NoteNumber":66,"Velocity":55,"Duration":61586,"SoundDuration":61586,"Delta":111547485},{"NoteNumber":56,"Velocity":41,"Duration":82115,"SoundDuration":82115,"Delta":111588543},{"NoteNumber":69,"Velocity":49,"Duration":61586,"SoundDuration":61586,"Delta":111609072},{"NoteNumber":67,"Velocity":58,"Duration":564334,"SoundDuration":564334,"Delta":111670658},{"NoteNumber":62,"Velocity":48,"Duration":1159100,"SoundDuration":1159100,"Delta":111670658},{"NoteNumber":57,"Velocity":45,"Duration":564334,"SoundDuration":564334,"Delta":111670658},{"NoteNumber":66,"Velocity":60,"Duration":446074,"SoundDuration":446074,"Delta":112234992},{"NoteNumber":45,"Velocity":45,"Duration":594766,"SoundDuration":594766,"Delta":112234992},{"NoteNumber":54,"Velocity":38,"Duration":1733922,"SoundDuration":1733922,"Delta":112681067},{"NoteNumber":62,"Velocity":38,"Duration":1659576,"SoundDuration":1659576,"Delta":112755412},{"NoteNumber":69,"Velocity":63,"Duration":1585230,"SoundDuration":1585230,"Delta":112829758},{"NoteNumber":45,"Velocity":39,"Duration":1585230,"SoundDuration":1585230,"Delta":112829758},{"NoteNumber":38,"Velocity":39,"Duration":1585230,"SoundDuration":1585230,"Delta":112829758},{"NoteNumber":74,"Velocity":34,"Duration":511102,"SoundDuration":511102,"Delta":113349665},{"NoteNumber":78,"Velocity":40,"Duration":511102,"SoundDuration":511102,"Delta":113349665},{"NoteNumber":57,"Velocity":37,"Duration":121359,"SoundDuration":121359,"Delta":113618049},{"NoteNumber":62,"Velocity":35,"Duration":675580,"SoundDuration":675580,"Delta":113739408},{"NoteNumber":66,"Velocity":39,"Duration":640622,"SoundDuration":640622,"Delta":113769748},{"NoteNumber":69,"Velocity":45,"Duration":614901,"SoundDuration":614901,"Delta":113800088},{"NoteNumber":74,"Velocity":45,"Duration":584561,"SoundDuration":584561,"Delta":113830427},{"NoteNumber":81,"Velocity":50,"Duration":554221,"SoundDuration":554221,"Delta":113860767},{"NoteNumber":66,"Velocity":56,"Duration":281162,"SoundDuration":281162,"Delta":114414989},{"NoteNumber":74,"Velocity":63,"Duration":281162,"SoundDuration":281162,"Delta":114414989},{"NoteNumber":45,"Velocity":46,"Duration":1100253,"SoundDuration":1100253,"Delta":114414989},{"NoteNumber":76,"Velocity":70,"Duration":236991,"SoundDuration":236991,"Delta":114696151},{"NoteNumber":69,"Velocity":56,"Duration":236991,"SoundDuration":236991,"Delta":114696151},{"NoteNumber":74,"Velocity":52,"Duration":1596305,"SoundDuration":1596305,"Delta":114933143},{"NoteNumber":78,"Velocity":75,"Duration":754653,"SoundDuration":754653,"Delta":115012140},{"NoteNumber":38,"Velocity":42,"Duration":1517308,"SoundDuration":1517308,"Delta":115012140},{"NoteNumber":54,"Velocity":44,"Duration":251551,"SoundDuration":251551,"Delta":115515243},{"NoteNumber":62,"Velocity":50,"Duration":251551,"SoundDuration":251551,"Delta":115515243},{"NoteNumber":69,"Velocity":61,"Duration":121339,"SoundDuration":121339,"Delta":115766794},{"NoteNumber":73,"Velocity":67,"Duration":121339,"SoundDuration":121339,"Delta":115766794},{"NoteNumber":64,"Velocity":56,"Duration":181455,"SoundDuration":181455,"Delta":115766794},{"NoteNumber":57,"Velocity":44,"Duration":181455,"SoundDuration":181455,"Delta":115766794},{"NoteNumber":76,"Velocity":55,"Duration":120230,"SoundDuration":120230,"Delta":115888134},{"NoteNumber":62,"Velocity":41,"Duration":581199,"SoundDuration":581199,"Delta":115948249},{"NoteNumber":74,"Velocity":70,"Duration":521083,"SoundDuration":521083,"Delta":116008364},{"NoteNumber":69,"Velocity":62,"Duration":521083,"SoundDuration":521083,"Delta":116008364},{"NoteNumber":66,"Velocity":52,"Duration":521083,"SoundDuration":521083,"Delta":116008364},{"NoteNumber":60,"Velocity":43,"Duration":622133,"SoundDuration":622133,"Delta":116529448},{"NoteNumber":65,"Velocity":43,"Duration":303459,"SoundDuration":303459,"Delta":116529448},{"NoteNumber":71,"Velocity":64,"Duration":622133,"SoundDuration":622133,"Delta":116529448},{"NoteNumber":51,"Velocity":38,"Duration":622133,"SoundDuration":622133,"Delta":116529448},{"NoteNumber":57,"Velocity":42,"Duration":622133,"SoundDuration":622133,"Delta":116529448},{"NoteNumber":66,"Velocity":43,"Duration":318674,"SoundDuration":318674,"Delta":116832908},{"NoteNumber":64,"Velocity":47,"Duration":1115098,"SoundDuration":1115098,"Delta":117151582},{"NoteNumber":67,"Velocity":56,"Duration":822741,"SoundDuration":822741,"Delta":117151582},{"NoteNumber":57,"Velocity":47,"Duration":1656763,"SoundDuration":1656763,"Delta":117151582},{"NoteNumber":45,"Velocity":35,"Duration":1656763,"SoundDuration":1656763,"Delta":117151582},{"NoteNumber":52,"Velocity":42,"Duration":1656763,"SoundDuration":1656763,"Delta":117151582},{"NoteNumber":38,"Velocity":35,"Duration":1656763,"SoundDuration":1656763,"Delta":117151582},{"NoteNumber":73,"Velocity":32,"Duration":552486,"SoundDuration":552486,"Delta":117721100},{"NoteNumber":76,"Velocity":32,"Duration":552486,"SoundDuration":552486,"Delta":117721100},{"NoteNumber":83,"Velocity":40,"Duration":552486,"SoundDuration":552486,"Delta":117721100},{"NoteNumber":67,"Velocity":35,"Duration":276243,"SoundDuration":276243,"Delta":117997343},{"NoteNumber":73,"Velocity":37,"Duration":572691,"SoundDuration":572691,"Delta":118273586},{"NoteNumber":71,"Velocity":37,"Duration":610624,"SoundDuration":610624,"Delta":118273586},{"NoteNumber":79,"Velocity":45,"Duration":534759,"SoundDuration":534759,"Delta":118273586},{"NoteNumber":64,"Velocity":35,"Duration":528075,"SoundDuration":528075,"Delta":118273586},{"NoteNumber":57,"Velocity":30,"Duration":534759,"SoundDuration":534759,"Delta":118273586},{"NoteNumber":62,"Velocity":50,"Duration":606919,"SoundDuration":606919,"Delta":118808346},{"NoteNumber":67,"Velocity":60,"Duration":303459,"SoundDuration":303459,"Delta":118808346},{"NoteNumber":64,"Velocity":50,"Duration":303459,"SoundDuration":303459,"Delta":118808346},{"NoteNumber":45,"Velocity":45,"Duration":1654600,"SoundDuration":1654600,"Delta":118808346},{"NoteNumber":66,"Velocity":50,"Duration":303459,"SoundDuration":303459,"Delta":119111805},{"NoteNumber":69,"Velocity":60,"Duration":303459,"SoundDuration":303459,"Delta":119111805},{"NoteNumber":67,"Velocity":56,"Duration":780301,"SoundDuration":780301,"Delta":119415265},{"NoteNumber":71,"Velocity":67,"Duration":780301,"SoundDuration":780301,"Delta":119415265},{"NoteNumber":38,"Velocity":38,"Duration":1047681,"SoundDuration":1047681,"Delta":119415265},{"NoteNumber":61,"Velocity":45,"Duration":520201,"SoundDuration":520201,"Delta":119415265},{"NoteNumber":59,"Velocity":42,"Duration":527480,"SoundDuration":527480,"Delta":119935466},{"NoteNumber":69,"Velocity":53,"Duration":267379,"SoundDuration":267379,"Delta":120195566},{"NoteNumber":73,"Velocity":63,"Duration":267379,"SoundDuration":267379,"Delta":120195566},{"NoteNumber":76,"Velocity":68,"Duration":534759,"SoundDuration":534759,"Delta":120462946},{"NoteNumber":73,"Velocity":57,"Duration":534759,"SoundDuration":534759,"Delta":120462946},{"NoteNumber":57,"Velocity":52,"Duration":534759,"SoundDuration":534759,"Delta":120462946},{"NoteNumber":74,"Velocity":63,"Duration":527333,"SoundDuration":527333,"Delta":120997706},{"NoteNumber":71,"Velocity":53,"Duration":527333,"SoundDuration":527333,"Delta":120997706},{"NoteNumber":56,"Velocity":48,"Duration":527333,"SoundDuration":527333,"Delta":120997706},{"NoteNumber":45,"Velocity":45,"Duration":527333,"SoundDuration":527333,"Delta":120997706},{"NoteNumber":71,"Velocity":56,"Duration":422079,"SoundDuration":422079,"Delta":121525039},{"NoteNumber":74,"Velocity":67,"Duration":95675,"SoundDuration":95675,"Delta":121525039},{"NoteNumber":55,"Velocity":45,"Duration":980097,"SoundDuration":980097,"Delta":121525039},{"NoteNumber":76,"Velocity":58,"Duration":95675,"SoundDuration":95675,"Delta":121620715},{"NoteNumber":74,"Velocity":61,"Duration":230728,"SoundDuration":230728,"Delta":121716390},{"NoteNumber":45,"Velocity":38,"Duration":788746,"SoundDuration":788746,"Delta":121716390},{"NoteNumber":69,"Velocity":47,"Duration":1112239,"SoundDuration":1112239,"Delta":121947119},{"NoteNumber":73,"Velocity":56,"Duration":1112239,"SoundDuration":1112239,"Delta":121947119},{"NoteNumber":38,"Velocity":41,"Duration":1707113,"SoundDuration":1707113,"Delta":121947119},{"NoteNumber":43,"Velocity":45,"Duration":244538,"SoundDuration":244538,"Delta":122260598},{"NoteNumber":45,"Velocity":51,"Duration":1149095,"SoundDuration":1149095,"Delta":122505137},{"NoteNumber":73,"Velocity":56,"Duration":294753,"SoundDuration":294753,"Delta":123059358},{"NoteNumber":76,"Velocity":67,"Duration":294753,"SoundDuration":294753,"Delta":123059358},{"NoteNumber":52,"Velocity":45,"Duration":294753,"SoundDuration":294753,"Delta":123059358},{"NoteNumber":67,"Velocity":49,"Duration":300120,"SoundDuration":300120,"Delta":123354112},{"NoteNumber":71,"Velocity":58,"Duration":300120,"SoundDuration":300120,"Delta":123354112},{"NoteNumber":54,"Velocity":45,"Duration":300120,"SoundDuration":300120,"Delta":123354112},{"NoteNumber":71,"Velocity":54,"Duration":843486,"SoundDuration":843486,"Delta":123654232},{"NoteNumber":74,"Velocity":64,"Duration":843486,"SoundDuration":843486,"Delta":123654232},{"NoteNumber":55,"Velocity":45,"Duration":843486,"SoundDuration":843486,"Delta":123654232},{"NoteNumber":45,"Velocity":38,"Duration":281162,"SoundDuration":281162,"Delta":123935394},{"NoteNumber":38,"Velocity":38,"Duration":529383,"SoundDuration":529383,"Delta":124216556},{"NoteNumber":66,"Velocity":48,"Duration":186165,"SoundDuration":186165,"Delta":124497719},{"NoteNumber":69,"Velocity":57,"Duration":186165,"SoundDuration":186165,"Delta":124497719},{"NoteNumber":57,"Velocity":45,"Duration":248221,"SoundDuration":248221,"Delta":124497719},{"NoteNumber":69,"Velocity":51,"Duration":550156,"SoundDuration":550156,"Delta":124745940},{"NoteNumber":73,"Velocity":61,"Duration":550156,"SoundDuration":550156,"Delta":124745940},{"NoteNumber":59,"Velocity":52,"Duration":550156,"SoundDuration":550156,"Delta":124745940},{"NoteNumber":67,"Velocity":54,"Duration":579150,"SoundDuration":579150,"Delta":125296096},{"NoteNumber":64,"Velocity":45,"Duration":579150,"SoundDuration":579150,"Delta":125296096},{"NoteNumber":61,"Velocity":45,"Duration":571911,"SoundDuration":571911,"Delta":125296096},{"NoteNumber":61,"Velocity":45,"Duration":574162,"SoundDuration":574162,"Delta":125875246},{"NoteNumber":65,"Velocity":49,"Duration":574162,"SoundDuration":574162,"Delta":125875246},{"NoteNumber":71,"Velocity":58,"Duration":574162,"SoundDuration":574162,"Delta":125875246},{"NoteNumber":38,"Velocity":41,"Duration":847286,"SoundDuration":847286,"Delta":125875246},{"NoteNumber":62,"Velocity":45,"Duration":1096219,"SoundDuration":1096219,"Delta":126449409},{"NoteNumber":69,"Velocity":54,"Duration":1096219,"SoundDuration":1096219,"Delta":126449409},{"NoteNumber":66,"Velocity":45,"Duration":1096219,"SoundDuration":1096219,"Delta":126449409},{"NoteNumber":45,"Velocity":41,"Duration":256629,"SoundDuration":256629,"Delta":126722533},{"NoteNumber":57,"Velocity":49,"Duration":566465,"SoundDuration":566465,"Delta":126979163},{"NoteNumber":74,"Velocity":70,"Duration":564996,"SoundDuration":564996,"Delta":127545628},{"NoteNumber":62,"Velocity":61,"Duration":564996,"SoundDuration":564996,"Delta":127545628},{"NoteNumber":54,"Velocity":45,"Duration":272826,"SoundDuration":272826,"Delta":127545628},{"NoteNumber":45,"Velocity":37,"Duration":564996,"SoundDuration":564996,"Delta":127545628},{"NoteNumber":50,"Velocity":45,"Duration":292169,"SoundDuration":292169,"Delta":127818455},{"NoteNumber":74,"Velocity":62,"Duration":1027650,"SoundDuration":1027650,"Delta":128110624},{"NoteNumber":64,"Velocity":62,"Duration":345889,"SoundDuration":345889,"Delta":128110624},{"NoteNumber":34,"Velocity":47,"Duration":773714,"SoundDuration":773714,"Delta":128110624},{"NoteNumber":46,"Velocity":56,"Duration":773714,"SoundDuration":773714,"Delta":128110624},{"NoteNumber":65,"Velocity":56,"Duration":342529,"SoundDuration":342529,"Delta":128456514},{"NoteNumber":69,"Velocity":56,"Duration":339231,"SoundDuration":339231,"Delta":128799044},{"NoteNumber":53,"Velocity":48,"Duration":1641154,"SoundDuration":1641154,"Delta":128884339},{"NoteNumber":74,"Velocity":58,"Duration":334410,"SoundDuration":334410,"Delta":129138275},{"NoteNumber":67,"Velocity":66,"Duration":1040417,"SoundDuration":1040417,"Delta":129138275},{"NoteNumber":72,"Velocity":58,"Duration":503381,"SoundDuration":503381,"Delta":129138275},{"NoteNumber":62,"Velocity":66,"Duration":503381,"SoundDuration":503381,"Delta":129138275},{"NoteNumber":74,"Velocity":62,"Duration":339236,"SoundDuration":339236,"Delta":129472686},{"NoteNumber":70,"Velocity":58,"Duration":537035,"SoundDuration":537035,"Delta":129641657},{"NoteNumber":61,"Velocity":57,"Duration":537035,"SoundDuration":537035,"Delta":129641657},{"NoteNumber":76,"Velocity":64,"Duration":366770,"SoundDuration":366770,"Delta":129811922},{"NoteNumber":79,"Velocity":66,"Duration":346800,"SoundDuration":346800,"Delta":130178693},{"NoteNumber":69,"Velocity":66,"Duration":1040402,"SoundDuration":1040402,"Delta":130178693},{"NoteNumber":60,"Velocity":67,"Duration":1040402,"SoundDuration":1040402,"Delta":130178693},{"NoteNumber":77,"Velocity":64,"Duration":346800,"SoundDuration":346800,"Delta":130525493},{"NoteNumber":41,"Velocity":62,"Duration":346800,"SoundDuration":346800,"Delta":130525493},{"NoteNumber":72,"Velocity":61,"Duration":346800,"SoundDuration":346800,"Delta":130872294},{"NoteNumber":57,"Velocity":48,"Duration":346800,"SoundDuration":346800,"Delta":130872294},{"NoteNumber":69,"Velocity":47,"Duration":86700,"SoundDuration":86700,"Delta":131219095},{"NoteNumber":60,"Velocity":66,"Duration":520200,"SoundDuration":520200,"Delta":131219095},{"NoteNumber":70,"Velocity":39,"Duration":86700,"SoundDuration":86700,"Delta":131305795},{"NoteNumber":69,"Velocity":59,"Duration":173400,"SoundDuration":173400,"Delta":131392495},{"NoteNumber":67,"Velocity":61,"Duration":346800,"SoundDuration":346800,"Delta":131565895},{"NoteNumber":61,"Velocity":55,"Duration":533294,"SoundDuration":533294,"Delta":131739296},{"NoteNumber":65,"Velocity":58,"Duration":366770,"SoundDuration":366770,"Delta":131912696},{"NoteNumber":70,"Velocity":62,"Duration":1362061,"SoundDuration":1362061,"Delta":132279467},{"NoteNumber":61,"Velocity":68,"Duration":345889,"SoundDuration":345889,"Delta":132279467},{"NoteNumber":43,"Velocity":47,"Duration":773714,"SoundDuration":773714,"Delta":132279467},{"NoteNumber":50,"Velocity":56,"Duration":773714,"SoundDuration":773714,"Delta":132279467},{"NoteNumber":62,"Velocity":57,"Duration":342529,"SoundDuration":342529,"Delta":132625357},{"NoteNumber":66,"Velocity":59,"Duration":339231,"SoundDuration":339231,"Delta":132967886},{"NoteNumber":50,"Velocity":48,"Duration":2074655,"SoundDuration":2074655,"Delta":133053181},{"NoteNumber":69,"Velocity":58,"Duration":503381,"SoundDuration":503381,"Delta":133307117},{"NoteNumber":64,"Velocity":66,"Duration":1040417,"SoundDuration":1040417,"Delta":133307117},{"NoteNumber":60,"Velocity":64,"Duration":503381,"SoundDuration":503381,"Delta":133307117},{"NoteNumber":70,"Velocity":62,"Duration":339236,"SoundDuration":339236,"Delta":133641528},{"NoteNumber":67,"Velocity":58,"Duration":537035,"SoundDuration":537035,"Delta":133810499},{"NoteNumber":58,"Velocity":52,"Duration":537035,"SoundDuration":537035,"Delta":133810499},{"NoteNumber":73,"Velocity":66,"Duration":366770,"SoundDuration":366770,"Delta":133980764},{"NoteNumber":76,"Velocity":66,"Duration":347050,"SoundDuration":347050,"Delta":134342950},{"NoteNumber":66,"Velocity":66,"Duration":1040402,"SoundDuration":1040402,"Delta":134347535},{"NoteNumber":57,"Velocity":61,"Duration":1040402,"SoundDuration":1040402,"Delta":134347535},{"NoteNumber":74,"Velocity":64,"Duration":346800,"SoundDuration":346800,"Delta":134694335},{"NoteNumber":65,"Velocity":61,"Duration":346800,"SoundDuration":346800,"Delta":135041136},{"NoteNumber":38,"Velocity":48,"Duration":1340202,"SoundDuration":1340202,"Delta":135127836},{"NoteNumber":62,"Velocity":60,"Duration":540050,"SoundDuration":540050,"Delta":135387937},{"NoteNumber":66,"Velocity":59,"Duration":298001,"SoundDuration":298001,"Delta":135387937},{"NoteNumber":45,"Velocity":60,"Duration":540050,"SoundDuration":540050,"Delta":135387937},{"NoteNumber":69,"Velocity":39,"Duration":68769,"SoundDuration":68769,"Delta":135685938},{"NoteNumber":67,"Velocity":61,"Duration":346560,"SoundDuration":346560,"Delta":135754707},{"NoteNumber":64,"Velocity":50,"Duration":540050,"SoundDuration":540050,"Delta":135927988},{"NoteNumber":36,"Velocity":39,"Duration":540050,"SoundDuration":540050,"Delta":135927988},{"NoteNumber":46,"Velocity":50,"Duration":540050,"SoundDuration":540050,"Delta":135927988},{"NoteNumber":66,"Velocity":58,"Duration":366770,"SoundDuration":366770,"Delta":136101268},{"NoteNumber":63,"Velocity":46,"Duration":2201084,"SoundDuration":2201084,"Delta":136468038},{"NoteNumber":57,"Velocity":46,"Duration":2201084,"SoundDuration":2201084,"Delta":136468038},{"NoteNumber":66,"Velocity":54,"Duration":346560,"SoundDuration":346560,"Delta":136468038},{"NoteNumber":47,"Velocity":42,"Duration":1621934,"SoundDuration":1621934,"Delta":136468038},{"NoteNumber":35,"Velocity":37,"Duration":1621934,"SoundDuration":1621934,"Delta":136468038},{"NoteNumber":67,"Velocity":49,"Duration":352112,"SoundDuration":352112,"Delta":136814599},{"NoteNumber":69,"Velocity":49,"Duration":363768,"SoundDuration":363768,"Delta":137166711},{"NoteNumber":72,"Velocity":47,"Duration":272826,"SoundDuration":272826,"Delta":137257654},{"NoteNumber":67,"Velocity":52,"Duration":559492,"SoundDuration":559492,"Delta":137530480},{"NoteNumber":81,"Velocity":45,"Duration":559492,"SoundDuration":559492,"Delta":137530480},{"NoteNumber":84,"Velocity":53,"Duration":559492,"SoundDuration":559492,"Delta":137530480},{"NoteNumber":75,"Velocity":45,"Duration":559492,"SoundDuration":559492,"Delta":137530480},{"NoteNumber":66,"Velocity":50,"Duration":579150,"SoundDuration":579150,"Delta":138089973},{"NoteNumber":72,"Velocity":46,"Duration":579150,"SoundDuration":579150,"Delta":138089973},{"NoteNumber":62,"Velocity":46,"Duration":1113637,"SoundDuration":1113637,"Delta":138669123},{"NoteNumber":57,"Velocity":46,"Duration":1113637,"SoundDuration":1113637,"Delta":138669123},{"NoteNumber":66,"Velocity":54,"Duration":363768,"SoundDuration":363768,"Delta":138669123},{"NoteNumber":40,"Velocity":37,"Duration":1742436,"SoundDuration":1742436,"Delta":138669123},{"NoteNumber":47,"Velocity":42,"Duration":1742436,"SoundDuration":1742436,"Delta":138669123},{"NoteNumber":71,"Velocity":52,"Duration":363768,"SoundDuration":363768,"Delta":139032892},{"NoteNumber":66,"Velocity":51,"Duration":386100,"SoundDuration":386100,"Delta":139396660},{"NoteNumber":71,"Velocity":47,"Duration":289575,"SoundDuration":289575,"Delta":139493186},{"NoteNumber":62,"Velocity":42,"Duration":1387716,"SoundDuration":1387716,"Delta":139782761},{"NoteNumber":56,"Velocity":42,"Duration":1387716,"SoundDuration":1387716,"Delta":139782761},{"NoteNumber":64,"Velocity":50,"Duration":1760711,"SoundDuration":1760711,"Delta":139782761},{"NoteNumber":76,"Velocity":45,"Duration":628798,"SoundDuration":628798,"Delta":139782761},{"NoteNumber":83,"Velocity":53,"Duration":628798,"SoundDuration":628798,"Delta":139782761},{"NoteNumber":74,"Velocity":45,"Duration":628798,"SoundDuration":628798,"Delta":139782761},{"NoteNumber":40,"Velocity":46,"Duration":758917,"SoundDuration":758917,"Delta":140411560},{"NoteNumber":55,"Velocity":50,"Duration":372995,"SoundDuration":372995,"Delta":141170477},{"NoteNumber":59,"Velocity":50,"Duration":372995,"SoundDuration":372995,"Delta":141170477},{"NoteNumber":33,"Velocity":38,"Duration":1902123,"SoundDuration":1902123,"Delta":141170477},{"NoteNumber":45,"Velocity":43,"Duration":1902123,"SoundDuration":1902123,"Delta":141170477},{"NoteNumber":58,"Velocity":50,"Duration":389559,"SoundDuration":389559,"Delta":141543472},{"NoteNumber":61,"Velocity":50,"Duration":389559,"SoundDuration":389559,"Delta":141543472},{"NoteNumber":67,"Velocity":50,"Duration":389559,"SoundDuration":389559,"Delta":141543472},{"NoteNumber":57,"Velocity":50,"Duration":277901,"SoundDuration":277901,"Delta":141933032},{"NoteNumber":61,"Velocity":50,"Duration":277901,"SoundDuration":277901,"Delta":141933032},{"NoteNumber":66,"Velocity":46,"Duration":277901,"SoundDuration":277901,"Delta":141933032},{"NoteNumber":69,"Velocity":47,"Duration":333481,"SoundDuration":333481,"Delta":142044192},{"NoteNumber":57,"Velocity":42,"Duration":716891,"SoundDuration":716891,"Delta":142210933},{"NoteNumber":61,"Velocity":42,"Duration":716891,"SoundDuration":716891,"Delta":142210933},{"NoteNumber":66,"Velocity":40,"Duration":83370,"SoundDuration":83370,"Delta":142210933},{"NoteNumber":67,"Velocity":36,"Duration":83370,"SoundDuration":83370,"Delta":142294304},{"NoteNumber":66,"Velocity":50,"Duration":550150,"SoundDuration":550150,"Delta":142377674},{"NoteNumber":81,"Velocity":53,"Duration":694927,"SoundDuration":694927,"Delta":142377674},{"NoteNumber":55,"Velocity":39,"Duration":1047449,"SoundDuration":1047449,"Delta":142942302},{"NoteNumber":61,"Velocity":39,"Duration":1004016,"SoundDuration":1004016,"Delta":142985735},{"NoteNumber":64,"Velocity":45,"Duration":960583,"SoundDuration":960583,"Delta":143029168},{"NoteNumber":69,"Velocity":55,"Duration":917150,"SoundDuration":917150,"Delta":143072601},{"NoteNumber":33,"Velocity":35,"Duration":917150,"SoundDuration":917150,"Delta":143072601},{"NoteNumber":45,"Velocity":40,"Duration":917150,"SoundDuration":917150,"Delta":143072601},{"NoteNumber":54,"Velocity":32,"Duration":1258066,"SoundDuration":1258066,"Delta":143989751},{"NoteNumber":62,"Velocity":32,"Duration":1258066,"SoundDuration":1258066,"Delta":143989751},{"NoteNumber":69,"Velocity":38,"Duration":952380,"SoundDuration":952380,"Delta":143989751},{"NoteNumber":26,"Velocity":32,"Duration":1258066,"SoundDuration":1258066,"Delta":143989751},{"NoteNumber":38,"Velocity":38,"Duration":1258066,"SoundDuration":1258066,"Delta":143989751},{"NoteNumber":69,"Velocity":33,"Duration":1642571,"SoundDuration":1642571,"Delta":144942132},{"NoteNumber":74,"Velocity":39,"Duration":1336885,"SoundDuration":1336885,"Delta":145247818},{"NoteNumber":81,"Velocity":39,"Duration":1336885,"SoundDuration":1336885,"Delta":145247818},{"NoteNumber":66,"Velocity":33,"Duration":611371,"SoundDuration":611371,"Delta":145247818},{"NoteNumber":62,"Velocity":28,"Duration":611371,"SoundDuration":611371,"Delta":145247818},{"NoteNumber":45,"Velocity":35,"Duration":2061016,"SoundDuration":2061016,"Delta":145859189},{"NoteNumber":54,"Velocity":32,"Duration":1335502,"SoundDuration":1335502,"Delta":146584703},{"NoteNumber":62,"Velocity":32,"Duration":1335502,"SoundDuration":1335502,"Delta":146584703},{"NoteNumber":66,"Velocity":38,"Duration":1021102,"SoundDuration":1021102,"Delta":146584703},{"NoteNumber":38,"Velocity":38,"Duration":1335502,"SoundDuration":1335502,"Delta":146584703},{"NoteNumber":69,"Velocity":33,"Duration":1894576,"SoundDuration":1894576,"Delta":147605806},{"NoteNumber":74,"Velocity":39,"Duration":1580176,"SoundDuration":1580176,"Delta":147920205},{"NoteNumber":81,"Velocity":39,"Duration":1580176,"SoundDuration":1580176,"Delta":147920205},{"NoteNumber":66,"Velocity":33,"Duration":733675,"SoundDuration":733675,"Delta":147920205},{"NoteNumber":62,"Velocity":28,"Duration":733675,"SoundDuration":733675,"Delta":147920205},{"NoteNumber":45,"Velocity":35,"Duration":2180426,"SoundDuration":2180426,"Delta":148653881},{"NoteNumber":54,"Velocity":27,"Duration":1333925,"SoundDuration":1333925,"Delta":149500382},{"NoteNumber":62,"Velocity":33,"Duration":1333925,"SoundDuration":1333925,"Delta":149500382},{"NoteNumber":66,"Velocity":33,"Duration":1333925,"SoundDuration":1333925,"Delta":149500382},{"NoteNumber":38,"Velocity":25,"Duration":1333925,"SoundDuration":1333925,"Delta":149500382},{"NoteNumber":66,"Velocity":33,"Duration":1333926,"SoundDuration":1333926,"Delta":150834308},{"NoteNumber":74,"Velocity":33,"Duration":1333926,"SoundDuration":1333926,"Delta":150834308},{"NoteNumber":78,"Velocity":39,"Duration":1333926,"SoundDuration":1333926,"Delta":150834308},{"NoteNumber":50,"Velocity":21,"Duration":1333926,"SoundDuration":1333926,"Delta":150834308},{"NoteNumber":57,"Velocity":25,"Duration":1333926,"SoundDuration":1333926,"Delta":150834308},{"NoteNumber":86,"Velocity":37,"Duration":2667851,"SoundDuration":2667851,"Delta":152168234},{"NoteNumber":78,"Velocity":37,"Duration":2667851,"SoundDuration":2667851,"Delta":152168234},{"NoteNumber":74,"Velocity":33,"Duration":2667851,"SoundDuration":2667851,"Delta":152168234},{"NoteNumber":62,"Velocity":27,"Duration":2667851,"SoundDuration":2667851,"Delta":152168234},{"NoteNumber":69,"Velocity":31,"Duration":2667851,"SoundDuration":2667851,"Delta":152168234}],"license":{"name":"Creative Commons Attribution-ShareAlike 3.0 Germany","url":"http://creativecommons.org/licenses/by-sa/3.0/de/deed.en","text":"The MIDI, audio (MP3, OGG) and video files of Bernd Krueger are licensed under the cc-by-sa Germany License. This means that you can use and adapt the files, as long as you attribute the copyright holder.\n\nName: Bernd Krueger\nSource: http://www.piano-midi.de\n\nThe distribution or public playback of the files is only allowed under identical license conditions.\n\nThe scores are open source.","attribution":"MIDI files by Bernd Krueger (piano-midi.de)"}}