{"title":"Ungarische Rhapsodie Nr. 2","artist":"Piano","durationMs":524688,"midiSha256":"bf3a478f4706ca2184092c6b51b2448f96ab970f4307cce4fc6776e800204ec3","midiObject":[{"NoteNumber":61,"Velocity":77,"Duration":172127,"SoundDuration":172127,"Delta":0},{"NoteNumber":61,"Velocity":85,"Duration":2124172,"SoundDuration":2124172,"Delta":178062},{"NoteNumber":44,"Velocity":59,"Duration":133547,"SoundDuration":133547,"Delta":1339653},{"NoteNumber":37,"Velocity":59,"Duration":133547,"SoundDuration":133547,"Delta":1339653},{"NoteNumber":56,"Velocity":70,"Duration":133547,"SoundDuration":133547,"Delta":1339653},{"NoteNumber":53,"Velocity":59,"Duration":133547,"SoundDuration":133547,"Delta":1339653},{"NoteNumber":44,"Velocity":67,"Duration":784519,"SoundDuration":784519,"Delta":1517716},{"NoteNumber":53,"Velocity":67,"Duration":784519,"SoundDuration":784519,"Delta":1517716},{"NoteNumber":56,"Velocity":79,"Duration":784519,"SoundDuration":784519,"Delta":1517716},{"NoteNumber":37,"Velocity":67,"Duration":784519,"SoundDuration":784519,"Delta":1517716},{"NoteNumber":61,"Velocity":73,"Duration":173190,"SoundDuration":173190,"Delta":2302235},{"NoteNumber":59,"Velocity":70,"Duration":129466,"SoundDuration":129466,"Delta":2475425},{"NoteNumber":61,"Velocity":68,"Duration":154463,"SoundDuration":154463,"Delta":2604891},{"NoteNumber":59,"Velocity":77,"Duration":2280991,"SoundDuration":2280991,"Delta":2759355},{"NoteNumber":54,"Velocity":70,"Duration":133547,"SoundDuration":133547,"Delta":3920946},{"NoteNumber":44,"Velocity":59,"Duration":133547,"SoundDuration":133547,"Delta":3920946},{"NoteNumber":50,"Velocity":59,"Duration":133547,"SoundDuration":133547,"Delta":3920946},{"NoteNumber":32,"Velocity":59,"Duration":133547,"SoundDuration":133547,"Delta":3920946},{"NoteNumber":32,"Velocity":68,"Duration":774393,"SoundDuration":774393,"Delta":4099008},{"NoteNumber":44,"Velocity":68,"Duration":774393,"SoundDuration":774393,"Delta":4099008},{"NoteNumber":50,"Velocity":68,"Duration":774393,"SoundDuration":774393,"Delta":4099008},{"NoteNumber":54,"Velocity":80,"Duration":774393,"SoundDuration":774393,"Delta":4099008},{"NoteNumber":61,"Velocity":64,"Duration":166944,"SoundDuration":166944,"Delta":5040347},{"NoteNumber":64,"Velocity":70,"Duration":152533,"SoundDuration":152533,"Delta":5207292},{"NoteNumber":62,"Velocity":66,"Duration":156333,"SoundDuration":156333,"Delta":5359825},{"NoteNumber":61,"Velocity":66,"Duration":193389,"SoundDuration":193389,"Delta":5516159},{"NoteNumber":61,"Velocity":79,"Duration":2157071,"SoundDuration":2157071,"Delta":5727129},{"NoteNumber":56,"Velocity":70,"Duration":138923,"SoundDuration":138923,"Delta":6787450},{"NoteNumber":37,"Velocity":59,"Duration":138923,"SoundDuration":138923,"Delta":6787450},{"NoteNumber":53,"Velocity":59,"Duration":138923,"SoundDuration":138923,"Delta":6787450},{"NoteNumber":44,"Velocity":59,"Duration":138923,"SoundDuration":138923,"Delta":6787450},{"NoteNumber":37,"Velocity":67,"Duration":784518,"SoundDuration":784518,"Delta":6972681},{"NoteNumber":56,"Velocity":79,"Duration":784518,"SoundDuration":784518,"Delta":6972681},{"NoteNumber":44,"Velocity":67,"Duration":784518,"SoundDuration":784518,"Delta":6972681},{"NoteNumber":53,"Velocity":67,"Duration":784518,"SoundDuration":784518,"Delta":6972681},{"NoteNumber":61,"Velocity":73,"Duration":450903,"SoundDuration":450903,"Delta":7757200},{"NoteNumber":59,"Velocity":70,"Duration":148279,"SoundDuration":148279,"Delta":7884200},{"NoteNumber":61,"Velocity":68,"Duration":175623,"SoundDuration":175623,"Delta":8032480},{"NoteNumber":59,"Velocity":81,"Duration":2107400,"SoundDuration":2107400,"Delta":8208104},{"NoteNumber":50,"Velocity":53,"Duration":145649,"SoundDuration":145649,"Delta":9221352},{"NoteNumber":32,"Velocity":53,"Duration":145649,"SoundDuration":145649,"Delta":9221352},{"NoteNumber":54,"Velocity":63,"Duration":145649,"SoundDuration":145649,"Delta":9221352},{"NoteNumber":44,"Velocity":53,"Duration":145649,"SoundDuration":145649,"Delta":9221352},{"NoteNumber":44,"Velocity":60,"Duration":805585,"SoundDuration":805585,"Delta":9415552},{"NoteNumber":50,"Velocity":60,"Duration":805585,"SoundDuration":805585,"Delta":9415552},{"NoteNumber":54,"Velocity":71,"Duration":805585,"SoundDuration":805585,"Delta":9415552},{"NoteNumber":32,"Velocity":60,"Duration":805585,"SoundDuration":805585,"Delta":9415552},{"NoteNumber":57,"Velocity":62,"Duration":142893,"SoundDuration":142893,"Delta":10319134},{"NoteNumber":56,"Velocity":67,"Duration":154130,"SoundDuration":154130,"Delta":10512119},{"NoteNumber":59,"Velocity":59,"Duration":181513,"SoundDuration":181513,"Delta":10666250},{"NoteNumber":57,"Velocity":63,"Duration":184106,"SoundDuration":184106,"Delta":10847763},{"NoteNumber":56,"Velocity":66,"Duration":201454,"SoundDuration":201454,"Delta":11031870},{"NoteNumber":56,"Velocity":75,"Duration":2852994,"SoundDuration":2852994,"Delta":11238238},{"NoteNumber":44,"Velocity":50,"Duration":134344,"SoundDuration":134344,"Delta":12463061},{"NoteNumber":49,"Velocity":50,"Duration":134344,"SoundDuration":134344,"Delta":12463061},{"NoteNumber":37,"Velocity":50,"Duration":134344,"SoundDuration":134344,"Delta":12463061},{"NoteNumber":53,"Velocity":59,"Duration":134344,"SoundDuration":134344,"Delta":12463061},{"NoteNumber":53,"Velocity":68,"Duration":863557,"SoundDuration":863557,"Delta":12642187},{"NoteNumber":37,"Velocity":57,"Duration":863557,"SoundDuration":863557,"Delta":12642187},{"NoteNumber":44,"Velocity":57,"Duration":863557,"SoundDuration":863557,"Delta":12642187},{"NoteNumber":49,"Velocity":57,"Duration":863557,"SoundDuration":863557,"Delta":12642187},{"NoteNumber":56,"Velocity":46,"Duration":231695,"SoundDuration":231695,"Delta":13863398},{"NoteNumber":56,"Velocity":54,"Duration":2469757,"SoundDuration":2469757,"Delta":14095094},{"NoteNumber":44,"Velocity":39,"Duration":196540,"SoundDuration":196540,"Delta":15372053},{"NoteNumber":40,"Velocity":39,"Duration":196540,"SoundDuration":196540,"Delta":15372053},{"NoteNumber":52,"Velocity":46,"Duration":196540,"SoundDuration":196540,"Delta":15372053},{"NoteNumber":49,"Velocity":39,"Duration":196540,"SoundDuration":196540,"Delta":15372053},{"NoteNumber":52,"Velocity":51,"Duration":823270,"SoundDuration":823270,"Delta":15634107},{"NoteNumber":44,"Velocity":43,"Duration":823270,"SoundDuration":823270,"Delta":15634107},{"NoteNumber":49,"Velocity":43,"Duration":823270,"SoundDuration":823270,"Delta":15634107},{"NoteNumber":40,"Velocity":43,"Duration":823270,"SoundDuration":823270,"Delta":15634107},{"NoteNumber":57,"Velocity":48,"Duration":161047,"SoundDuration":161047,"Delta":16568985},{"NoteNumber":56,"Velocity":47,"Duration":193500,"SoundDuration":193500,"Delta":16783416},{"NoteNumber":59,"Velocity":53,"Duration":185813,"SoundDuration":185813,"Delta":16976917},{"NoteNumber":57,"Velocity":47,"Duration":233302,"SoundDuration":233302,"Delta":17162730},{"NoteNumber":56,"Velocity":44,"Duration":274122,"SoundDuration":274122,"Delta":17396033},{"NoteNumber":56,"Velocity":60,"Duration":5434098,"SoundDuration":5434098,"Delta":17683862},{"NoteNumber":44,"Velocity":36,"Duration":233208,"SoundDuration":233208,"Delta":18998114},{"NoteNumber":51,"Velocity":44,"Duration":233208,"SoundDuration":233208,"Delta":18998114},{"NoteNumber":49,"Velocity":36,"Duration":233208,"SoundDuration":233208,"Delta":18998114},{"NoteNumber":51,"Velocity":51,"Duration":902526,"SoundDuration":902526,"Delta":19309059},{"NoteNumber":44,"Velocity":43,"Duration":2385100,"SoundDuration":2385100,"Delta":19309059},{"NoteNumber":49,"Velocity":43,"Duration":902526,"SoundDuration":902526,"Delta":19309059},{"NoteNumber":54,"Velocity":42,"Duration":1152368,"SoundDuration":1152368,"Delta":21114113},{"NoteNumber":48,"Velocity":36,"Duration":1152368,"SoundDuration":1152368,"Delta":21114113},{"NoteNumber":51,"Velocity":36,"Duration":1152368,"SoundDuration":1152368,"Delta":21114113},{"NoteNumber":45,"Velocity":50,"Duration":351571,"SoundDuration":351571,"Delta":21694160},{"NoteNumber":44,"Velocity":44,"Duration":328239,"SoundDuration":328239,"Delta":21990544},{"NoteNumber":47,"Velocity":50,"Duration":317466,"SoundDuration":317466,"Delta":22266482},{"NoteNumber":45,"Velocity":43,"Duration":341833,"SoundDuration":341833,"Delta":22527988},{"NoteNumber":44,"Velocity":43,"Duration":366133,"SoundDuration":366133,"Delta":22807787},{"NoteNumber":42,"Velocity":52,"Duration":339075,"SoundDuration":339075,"Delta":23117961},{"NoteNumber":40,"Velocity":43,"Duration":355661,"SoundDuration":355661,"Delta":23397759},{"NoteNumber":42,"Velocity":43,"Duration":362521,"SoundDuration":362521,"Delta":23694143},{"NoteNumber":39,"Velocity":43,"Duration":559520,"SoundDuration":559520,"Delta":23990527},{"NoteNumber":45,"Velocity":49,"Duration":1334713,"SoundDuration":1334713,"Delta":24321215},{"NoteNumber":44,"Velocity":39,"Duration":190548,"SoundDuration":190548,"Delta":25655929},{"NoteNumber":37,"Velocity":54,"Duration":2307950,"SoundDuration":2307950,"Delta":25846478},{"NoteNumber":44,"Velocity":43,"Duration":173933,"SoundDuration":173933,"Delta":26819661},{"NoteNumber":49,"Velocity":52,"Duration":1160833,"SoundDuration":1160833,"Delta":26993594},{"NoteNumber":37,"Velocity":52,"Duration":2312304,"SoundDuration":2312304,"Delta":28154428},{"NoteNumber":44,"Velocity":48,"Duration":172930,"SoundDuration":172930,"Delta":29127611},{"NoteNumber":49,"Velocity":54,"Duration":1166190,"SoundDuration":1166190,"Delta":29300542},{"NoteNumber":56,"Velocity":48,"Duration":84757,"SoundDuration":84757,"Delta":30263315},{"NoteNumber":56,"Velocity":48,"Duration":84757,"SoundDuration":84757,"Delta":30365023},{"NoteNumber":61,"Velocity":58,"Duration":317527,"SoundDuration":317527,"Delta":30466732},{"NoteNumber":37,"Velocity":52,"Duration":2165198,"SoundDuration":2165198,"Delta":30466732},{"NoteNumber":44,"Velocity":48,"Duration":177011,"SoundDuration":177011,"Delta":31419315},{"NoteNumber":52,"Velocity":48,"Duration":533428,"SoundDuration":533428,"Delta":31596327},{"NoteNumber":56,"Velocity":48,"Duration":533428,"SoundDuration":533428,"Delta":31596327},{"NoteNumber":61,"Velocity":60,"Duration":1258685,"SoundDuration":1258685,"Delta":31596327},{"NoteNumber":49,"Velocity":54,"Duration":1035603,"SoundDuration":1035603,"Delta":31596327},{"NoteNumber":37,"Velocity":52,"Duration":1892110,"SoundDuration":1892110,"Delta":32631931},{"NoteNumber":60,"Velocity":48,"Duration":231695,"SoundDuration":231695,"Delta":32855012},{"NoteNumber":61,"Velocity":58,"Duration":246954,"SoundDuration":246954,"Delta":33086708},{"NoteNumber":63,"Velocity":62,"Duration":94055,"SoundDuration":94055,"Delta":33333662},{"NoteNumber":45,"Velocity":48,"Duration":188111,"SoundDuration":188111,"Delta":33333662},{"NoteNumber":54,"Velocity":52,"Duration":596231,"SoundDuration":596231,"Delta":33427718},{"NoteNumber":57,"Velocity":52,"Duration":549203,"SoundDuration":549203,"Delta":33474746},{"NoteNumber":64,"Velocity":65,"Duration":251088,"SoundDuration":251088,"Delta":33521774},{"NoteNumber":49,"Velocity":54,"Duration":1002268,"SoundDuration":1002268,"Delta":33521774},{"NoteNumber":57,"Velocity":55,"Duration":251087,"SoundDuration":251087,"Delta":33772862},{"NoteNumber":64,"Velocity":61,"Duration":251088,"SoundDuration":251088,"Delta":34023950},{"NoteNumber":63,"Velocity":48,"Duration":249003,"SoundDuration":249003,"Delta":34275038},{"NoteNumber":61,"Velocity":62,"Duration":786163,"SoundDuration":786163,"Delta":34524042},{"NoteNumber":37,"Velocity":52,"Duration":1997527,"SoundDuration":1997527,"Delta":34524042},{"NoteNumber":61,"Velocity":54,"Duration":86465,"SoundDuration":86465,"Delta":35310205},{"NoteNumber":44,"Velocity":48,"Duration":172930,"SoundDuration":172930,"Delta":35310205},{"NoteNumber":63,"Velocity":54,"Duration":86465,"SoundDuration":86465,"Delta":35396670},{"NoteNumber":61,"Velocity":59,"Duration":857142,"SoundDuration":857142,"Delta":35483136},{"NoteNumber":52,"Velocity":47,"Duration":571428,"SoundDuration":571428,"Delta":35483136},{"NoteNumber":56,"Velocity":47,"Duration":571428,"SoundDuration":571428,"Delta":35483136},{"NoteNumber":49,"Velocity":54,"Duration":1038433,"SoundDuration":1038433,"Delta":35483136},{"NoteNumber":60,"Velocity":55,"Duration":181290,"SoundDuration":181290,"Delta":36340278},{"NoteNumber":61,"Velocity":62,"Duration":1835266,"SoundDuration":1835266,"Delta":36521569},{"NoteNumber":37,"Velocity":52,"Duration":2019904,"SoundDuration":2019904,"Delta":36521569},{"NoteNumber":44,"Velocity":48,"Duration":175973,"SoundDuration":175973,"Delta":37351215},{"NoteNumber":52,"Velocity":47,"Duration":553097,"SoundDuration":553097,"Delta":37527189},{"NoteNumber":56,"Velocity":47,"Duration":553097,"SoundDuration":553097,"Delta":37527189},{"NoteNumber":49,"Velocity":54,"Duration":1014284,"SoundDuration":1014284,"Delta":37527189},{"NoteNumber":63,"Velocity":60,"Duration":184637,"SoundDuration":184637,"Delta":38356835},{"NoteNumber":64,"Velocity":63,"Duration":317527,"SoundDuration":317527,"Delta":38541473},{"NoteNumber":35,"Velocity":53,"Duration":2146543,"SoundDuration":2146543,"Delta":38541473},{"NoteNumber":47,"Velocity":48,"Duration":177011,"SoundDuration":177011,"Delta":39494056},{"NoteNumber":64,"Velocity":66,"Duration":1236761,"SoundDuration":1236761,"Delta":39671068},{"NoteNumber":56,"Velocity":48,"Duration":508474,"SoundDuration":508474,"Delta":39671068},{"NoteNumber":59,"Velocity":48,"Duration":508474,"SoundDuration":508474,"Delta":39671068},{"NoteNumber":52,"Velocity":54,"Duration":1016948,"SoundDuration":1016948,"Delta":39671068},{"NoteNumber":35,"Velocity":53,"Duration":1837663,"SoundDuration":1837663,"Delta":40688017},{"NoteNumber":63,"Velocity":52,"Duration":228171,"SoundDuration":228171,"Delta":40907829},{"NoteNumber":64,"Velocity":63,"Duration":243902,"SoundDuration":243902,"Delta":41136001},{"NoteNumber":66,"Velocity":68,"Duration":188111,"SoundDuration":188111,"Delta":41379903},{"NoteNumber":47,"Velocity":48,"Duration":188111,"SoundDuration":188111,"Delta":41379903},{"NoteNumber":68,"Velocity":71,"Duration":236220,"SoundDuration":236220,"Delta":41568015},{"NoteNumber":57,"Velocity":52,"Duration":472441,"SoundDuration":472441,"Delta":41568015},{"NoteNumber":59,"Velocity":52,"Duration":472441,"SoundDuration":472441,"Delta":41568015},{"NoteNumber":51,"Velocity":53,"Duration":957665,"SoundDuration":957665,"Delta":41568015},{"NoteNumber":63,"Velocity":60,"Duration":236220,"SoundDuration":236220,"Delta":41804235},{"NoteNumber":68,"Velocity":67,"Duration":236220,"SoundDuration":236220,"Delta":42040456},{"NoteNumber":66,"Velocity":52,"Duration":249003,"SoundDuration":249003,"Delta":42276676},{"NoteNumber":64,"Velocity":68,"Duration":786163,"SoundDuration":786163,"Delta":42525680},{"NoteNumber":40,"Velocity":55,"Duration":1985613,"SoundDuration":1985613,"Delta":42525680},{"NoteNumber":64,"Velocity":56,"Duration":86465,"SoundDuration":86465,"Delta":43311844},{"NoteNumber":47,"Velocity":48,"Duration":172930,"SoundDuration":172930,"Delta":43311844},{"NoteNumber":66,"Velocity":56,"Duration":86465,"SoundDuration":86465,"Delta":43398309},{"NoteNumber":56,"Velocity":47,"Duration":563485,"SoundDuration":563485,"Delta":43484774},{"NoteNumber":64,"Velocity":64,"Duration":845229,"SoundDuration":845229,"Delta":43484774},{"NoteNumber":59,"Velocity":47,"Duration":563485,"SoundDuration":563485,"Delta":43484774},{"NoteNumber":52,"Velocity":58,"Duration":1026519,"SoundDuration":1026519,"Delta":43484774},{"NoteNumber":63,"Velocity":60,"Duration":181290,"SoundDuration":181290,"Delta":44330003},{"NoteNumber":64,"Velocity":68,"Duration":876472,"SoundDuration":876472,"Delta":44511294},{"NoteNumber":40,"Velocity":52,"Duration":700498,"SoundDuration":700498,"Delta":44511294},{"NoteNumber":47,"Velocity":48,"Duration":87986,"SoundDuration":87986,"Delta":45211792},{"NoteNumber":32,"Velocity":54,"Duration":1200310,"SoundDuration":1200310,"Delta":45299779},{"NoteNumber":60,"Velocity":47,"Duration":553097,"SoundDuration":553097,"Delta":45387766},{"NoteNumber":64,"Velocity":57,"Duration":829646,"SoundDuration":829646,"Delta":45387766},{"NoteNumber":56,"Velocity":37,"Duration":553097,"SoundDuration":553097,"Delta":45387766},{"NoteNumber":68,"Velocity":67,"Duration":1112324,"SoundDuration":1112324,"Delta":45387766},{"NoteNumber":54,"Velocity":37,"Duration":553097,"SoundDuration":553097,"Delta":45387766},{"NoteNumber":48,"Velocity":54,"Duration":1112324,"SoundDuration":1112324,"Delta":45387766},{"NoteNumber":63,"Velocity":60,"Duration":171467,"SoundDuration":171467,"Delta":46217412},{"NoteNumber":56,"Velocity":35,"Duration":55604,"SoundDuration":55604,"Delta":46388880},{"NoteNumber":61,"Velocity":37,"Duration":55604,"SoundDuration":55604,"Delta":46416683},{"NoteNumber":64,"Velocity":40,"Duration":55604,"SoundDuration":55604,"Delta":46444485},{"NoteNumber":68,"Velocity":42,"Duration":61745,"SoundDuration":61745,"Delta":46472288},{"NoteNumber":73,"Velocity":77,"Duration":543084,"SoundDuration":543084,"Delta":46500090},{"NoteNumber":37,"Velocity":62,"Duration":1888901,"SoundDuration":1888901,"Delta":46500090},{"NoteNumber":44,"Velocity":52,"Duration":177011,"SoundDuration":177011,"Delta":47314717},{"NoteNumber":68,"Velocity":55,"Duration":448631,"SoundDuration":448631,"Delta":47491729},{"NoteNumber":73,"Velocity":69,"Duration":1108530,"SoundDuration":1108530,"Delta":47491729},{"NoteNumber":61,"Velocity":55,"Duration":1108530,"SoundDuration":1108530,"Delta":47491729},{"NoteNumber":64,"Velocity":55,"Duration":448631,"SoundDuration":448631,"Delta":47491729},{"NoteNumber":49,"Velocity":50,"Duration":897263,"SoundDuration":897263,"Delta":47491729},{"NoteNumber":52,"Velocity":59,"Duration":897263,"SoundDuration":897263,"Delta":47491729},{"NoteNumber":30,"Velocity":59,"Duration":1791589,"SoundDuration":1791589,"Delta":48388992},{"NoteNumber":72,"Velocity":57,"Duration":229920,"SoundDuration":229920,"Delta":48600259},{"NoteNumber":60,"Velocity":48,"Duration":229920,"SoundDuration":229920,"Delta":48600259},{"NoteNumber":73,"Velocity":69,"Duration":209966,"SoundDuration":209966,"Delta":48830180},{"NoteNumber":61,"Velocity":58,"Duration":209966,"SoundDuration":209966,"Delta":48830180},{"NoteNumber":63,"Velocity":62,"Duration":197524,"SoundDuration":197524,"Delta":49040146},{"NoteNumber":75,"Velocity":73,"Duration":197524,"SoundDuration":197524,"Delta":49040146},{"NoteNumber":49,"Velocity":58,"Duration":197524,"SoundDuration":197524,"Delta":49040146},{"NoteNumber":64,"Velocity":65,"Duration":214469,"SoundDuration":214469,"Delta":49237670},{"NoteNumber":76,"Velocity":77,"Duration":214469,"SoundDuration":214469,"Delta":49237670},{"NoteNumber":54,"Velocity":53,"Duration":942911,"SoundDuration":942911,"Delta":49237670},{"NoteNumber":57,"Velocity":63,"Duration":942911,"SoundDuration":942911,"Delta":49237670},{"NoteNumber":69,"Velocity":67,"Duration":232774,"SoundDuration":232774,"Delta":49452140},{"NoteNumber":64,"Velocity":62,"Duration":217580,"SoundDuration":217580,"Delta":49684915},{"NoteNumber":76,"Velocity":74,"Duration":217580,"SoundDuration":217580,"Delta":49684915},{"NoteNumber":63,"Velocity":49,"Duration":278086,"SoundDuration":278086,"Delta":49902495},{"NoteNumber":75,"Velocity":58,"Duration":278086,"SoundDuration":278086,"Delta":49902495},{"NoteNumber":61,"Velocity":61,"Duration":734814,"SoundDuration":734814,"Delta":50180582},{"NoteNumber":73,"Velocity":72,"Duration":734814,"SoundDuration":734814,"Delta":50180582},{"NoteNumber":25,"Velocity":64,"Duration":1839035,"SoundDuration":1839035,"Delta":50180582},{"NoteNumber":73,"Velocity":64,"Duration":86465,"SoundDuration":86465,"Delta":50915396},{"NoteNumber":44,"Velocity":57,"Duration":172930,"SoundDuration":172930,"Delta":50915396},{"NoteNumber":75,"Velocity":64,"Duration":86465,"SoundDuration":86465,"Delta":51001861},{"NoteNumber":73,"Velocity":72,"Duration":750000,"SoundDuration":750000,"Delta":51088326},{"NoteNumber":68,"Velocity":61,"Duration":500000,"SoundDuration":500000,"Delta":51088326},{"NoteNumber":61,"Velocity":61,"Duration":750000,"SoundDuration":750000,"Delta":51088326},{"NoteNumber":49,"Velocity":57,"Duration":931290,"SoundDuration":931290,"Delta":51088326},{"NoteNumber":52,"Velocity":68,"Duration":931290,"SoundDuration":931290,"Delta":51088326},{"NoteNumber":72,"Velocity":62,"Duration":181290,"SoundDuration":181290,"Delta":51838326},{"NoteNumber":60,"Velocity":52,"Duration":181290,"SoundDuration":181290,"Delta":51838326},{"NoteNumber":73,"Velocity":70,"Duration":1706118,"SoundDuration":1706118,"Delta":52019617},{"NoteNumber":61,"Velocity":59,"Duration":1706118,"SoundDuration":1706118,"Delta":52019617},{"NoteNumber":37,"Velocity":70,"Duration":700498,"SoundDuration":700498,"Delta":52019617},{"NoteNumber":44,"Velocity":59,"Duration":175973,"SoundDuration":175973,"Delta":52720116},{"NoteNumber":64,"Velocity":56,"Duration":553097,"SoundDuration":553097,"Delta":52896089},{"NoteNumber":68,"Velocity":67,"Duration":553097,"SoundDuration":553097,"Delta":52896089},{"NoteNumber":49,"Velocity":63,"Duration":829646,"SoundDuration":829646,"Delta":52896089},{"NoteNumber":56,"Velocity":74,"Duration":829646,"SoundDuration":829646,"Delta":52896089},{"NoteNumber":68,"Velocity":62,"Duration":184637,"SoundDuration":184637,"Delta":53725736},{"NoteNumber":76,"Velocity":74,"Duration":184637,"SoundDuration":184637,"Delta":53725736},{"NoteNumber":71,"Velocity":62,"Duration":184637,"SoundDuration":184637,"Delta":53725736},{"NoteNumber":64,"Velocity":62,"Duration":184637,"SoundDuration":184637,"Delta":53725736},{"NoteNumber":38,"Velocity":50,"Duration":184637,"SoundDuration":184637,"Delta":53725736},{"NoteNumber":50,"Velocity":59,"Duration":184637,"SoundDuration":184637,"Delta":53725736},{"NoteNumber":80,"Velocity":84,"Duration":280373,"SoundDuration":280373,"Delta":53910374},{"NoteNumber":71,"Velocity":71,"Duration":280373,"SoundDuration":280373,"Delta":53910374},{"NoteNumber":68,"Velocity":71,"Duration":280373,"SoundDuration":280373,"Delta":53910374},{"NoteNumber":51,"Velocity":64,"Duration":841121,"SoundDuration":841121,"Delta":53910374},{"NoteNumber":39,"Velocity":54,"Duration":841121,"SoundDuration":841121,"Delta":53910374},{"NoteNumber":56,"Velocity":58,"Duration":177011,"SoundDuration":177011,"Delta":54751495},{"NoteNumber":51,"Velocity":49,"Duration":177011,"SoundDuration":177011,"Delta":54751495},{"NoteNumber":68,"Velocity":86,"Duration":1066856,"SoundDuration":1066856,"Delta":54928507},{"NoteNumber":63,"Velocity":61,"Duration":1596267,"SoundDuration":1596267,"Delta":54928507},{"NoteNumber":59,"Velocity":51,"Duration":1596267,"SoundDuration":1596267,"Delta":54928507},{"NoteNumber":68,"Velocity":60,"Duration":176470,"SoundDuration":176470,"Delta":55995363},{"NoteNumber":67,"Velocity":54,"Duration":176470,"SoundDuration":176470,"Delta":56171833},{"NoteNumber":68,"Velocity":54,"Duration":176470,"SoundDuration":176470,"Delta":56348304},{"NoteNumber":67,"Velocity":53,"Duration":101434,"SoundDuration":101434,"Delta":56524775},{"NoteNumber":39,"Velocity":54,"Duration":991234,"SoundDuration":991234,"Delta":56524775},{"NoteNumber":51,"Velocity":64,"Duration":991234,"SoundDuration":991234,"Delta":56524775},{"NoteNumber":64,"Velocity":55,"Duration":97570,"SoundDuration":97570,"Delta":56626210},{"NoteNumber":67,"Velocity":57,"Duration":94701,"SoundDuration":94701,"Delta":56723780},{"NoteNumber":68,"Velocity":59,"Duration":92173,"SoundDuration":92173,"Delta":56818481},{"NoteNumber":70,"Velocity":61,"Duration":89425,"SoundDuration":89425,"Delta":56910655},{"NoteNumber":71,"Velocity":63,"Duration":87465,"SoundDuration":87465,"Delta":57000080},{"NoteNumber":73,"Velocity":64,"Duration":86831,"SoundDuration":86831,"Delta":57087546},{"NoteNumber":75,"Velocity":66,"Duration":86231,"SoundDuration":86231,"Delta":57174377},{"NoteNumber":76,"Velocity":68,"Duration":85665,"SoundDuration":85665,"Delta":57260609},{"NoteNumber":79,"Velocity":70,"Duration":85155,"SoundDuration":85155,"Delta":57346275},{"NoteNumber":80,"Velocity":72,"Duration":84579,"SoundDuration":84579,"Delta":57431430},{"NoteNumber":82,"Velocity":74,"Duration":84010,"SoundDuration":84010,"Delta":57516009},{"NoteNumber":58,"Velocity":58,"Duration":333072,"SoundDuration":333072,"Delta":57516009},{"NoteNumber":51,"Velocity":49,"Duration":333072,"SoundDuration":333072,"Delta":57516009},{"NoteNumber":83,"Velocity":76,"Duration":83542,"SoundDuration":83542,"Delta":57600020},{"NoteNumber":85,"Velocity":81,"Duration":82988,"SoundDuration":82988,"Delta":57683563},{"NoteNumber":87,"Velocity":84,"Duration":82531,"SoundDuration":82531,"Delta":57766551},{"NoteNumber":88,"Velocity":87,"Duration":81922,"SoundDuration":81922,"Delta":57849082},{"NoteNumber":63,"Velocity":74,"Duration":668424,"SoundDuration":668424,"Delta":57849082},{"NoteNumber":61,"Velocity":61,"Duration":668424,"SoundDuration":668424,"Delta":57849082},{"NoteNumber":87,"Velocity":83,"Duration":81588,"SoundDuration":81588,"Delta":57931005},{"NoteNumber":85,"Velocity":81,"Duration":82214,"SoundDuration":82214,"Delta":58012594},{"NoteNumber":83,"Velocity":80,"Duration":83011,"SoundDuration":83011,"Delta":58094809},{"NoteNumber":82,"Velocity":78,"Duration":83589,"SoundDuration":83589,"Delta":58177820},{"NoteNumber":80,"Velocity":77,"Duration":84412,"SoundDuration":84412,"Delta":58261409},{"NoteNumber":79,"Velocity":75,"Duration":90361,"SoundDuration":90361,"Delta":58345822},{"NoteNumber":83,"Velocity":80,"Duration":81323,"SoundDuration":81323,"Delta":58436184},{"NoteNumber":82,"Velocity":78,"Duration":82260,"SoundDuration":82260,"Delta":58517507},{"NoteNumber":80,"Velocity":75,"Duration":83381,"SoundDuration":83381,"Delta":58599768},{"NoteNumber":79,"Velocity":73,"Duration":84580,"SoundDuration":84580,"Delta":58683149},{"NoteNumber":76,"Velocity":70,"Duration":85764,"SoundDuration":85764,"Delta":58767729},{"NoteNumber":75,"Velocity":68,"Duration":86680,"SoundDuration":86680,"Delta":58853494},{"NoteNumber":73,"Velocity":65,"Duration":93224,"SoundDuration":93224,"Delta":58940175},{"NoteNumber":76,"Velocity":71,"Duration":84129,"SoundDuration":84129,"Delta":59033399},{"NoteNumber":75,"Velocity":67,"Duration":85277,"SoundDuration":85277,"Delta":59117528},{"NoteNumber":73,"Velocity":63,"Duration":86258,"SoundDuration":86258,"Delta":59202806},{"NoteNumber":71,"Velocity":58,"Duration":87541,"SoundDuration":87541,"Delta":59289064},{"NoteNumber":70,"Velocity":54,"Duration":88235,"SoundDuration":88235,"Delta":59376606},{"NoteNumber":68,"Velocity":50,"Duration":97062,"SoundDuration":97062,"Delta":59464841},{"NoteNumber":67,"Velocity":46,"Duration":90909,"SoundDuration":90909,"Delta":59561904},{"NoteNumber":68,"Velocity":42,"Duration":90909,"SoundDuration":90909,"Delta":59652813},{"NoteNumber":67,"Velocity":46,"Duration":90909,"SoundDuration":90909,"Delta":59743722},{"NoteNumber":64,"Velocity":34,"Duration":90909,"SoundDuration":90909,"Delta":59834631},{"NoteNumber":67,"Velocity":33,"Duration":118667,"SoundDuration":118667,"Delta":59925540},{"NoteNumber":71,"Velocity":38,"Duration":209179,"SoundDuration":209179,"Delta":60044208},{"NoteNumber":71,"Velocity":34,"Duration":77231,"SoundDuration":77231,"Delta":60253387},{"NoteNumber":71,"Velocity":30,"Duration":76185,"SoundDuration":76185,"Delta":60356199},{"NoteNumber":71,"Velocity":34,"Duration":75302,"SoundDuration":75302,"Delta":60457621},{"NoteNumber":71,"Velocity":28,"Duration":99142,"SoundDuration":99142,"Delta":60557923},{"NoteNumber":71,"Velocity":36,"Duration":1520431,"SoundDuration":1520431,"Delta":60657065},{"NoteNumber":70,"Velocity":30,"Duration":158763,"SoundDuration":158763,"Delta":62177497},{"NoteNumber":68,"Velocity":42,"Duration":810810,"SoundDuration":810810,"Delta":62336260},{"NoteNumber":44,"Velocity":34,"Duration":810810,"SoundDuration":810810,"Delta":62336260},{"NoteNumber":32,"Velocity":28,"Duration":810810,"SoundDuration":810810,"Delta":62336260},{"NoteNumber":68,"Velocity":35,"Duration":86465,"SoundDuration":86465,"Delta":63147071},{"NoteNumber":44,"Velocity":24,"Duration":172930,"SoundDuration":172930,"Delta":63147071},{"NoteNumber":51,"Velocity":29,"Duration":172930,"SoundDuration":172930,"Delta":63147071},{"NoteNumber":70,"Velocity":35,"Duration":86465,"SoundDuration":86465,"Delta":63233536},{"NoteNumber":63,"Velocity":28,"Duration":563485,"SoundDuration":563485,"Delta":63320002},{"NoteNumber":68,"Velocity":39,"Duration":845229,"SoundDuration":845229,"Delta":63320002},{"NoteNumber":59,"Velocity":28,"Duration":563485,"SoundDuration":563485,"Delta":63320002},{"NoteNumber":51,"Velocity":30,"Duration":1026519,"SoundDuration":1026519,"Delta":63320002},{"NoteNumber":56,"Velocity":36,"Duration":1026519,"SoundDuration":1026519,"Delta":63320002},{"NoteNumber":67,"Velocity":37,"Duration":181290,"SoundDuration":181290,"Delta":64165231},{"NoteNumber":68,"Velocity":35,"Duration":1179435,"SoundDuration":1179435,"Delta":64346521},{"NoteNumber":44,"Velocity":28,"Duration":937500,"SoundDuration":937500,"Delta":64346521},{"NoteNumber":32,"Velocity":23,"Duration":937500,"SoundDuration":937500,"Delta":64346521},{"NoteNumber":44,"Velocity":20,"Duration":241935,"SoundDuration":241935,"Delta":65284021},{"NoteNumber":51,"Velocity":24,"Duration":241935,"SoundDuration":241935,"Delta":65284021},{"NoteNumber":63,"Velocity":23,"Duration":857142,"SoundDuration":857142,"Delta":65525957},{"NoteNumber":59,"Velocity":23,"Duration":857142,"SoundDuration":857142,"Delta":65525957},{"NoteNumber":51,"Velocity":25,"Duration":1285714,"SoundDuration":1285714,"Delta":65525957},{"NoteNumber":56,"Velocity":30,"Duration":1285714,"SoundDuration":1285714,"Delta":65525957},{"NoteNumber":68,"Velocity":41,"Duration":126008,"SoundDuration":126008,"Delta":66811671},{"NoteNumber":68,"Velocity":41,"Duration":180635,"SoundDuration":180635,"Delta":66962881},{"NoteNumber":80,"Velocity":54,"Duration":317527,"SoundDuration":317527,"Delta":67179644},{"NoteNumber":76,"Velocity":45,"Duration":317527,"SoundDuration":317527,"Delta":67179644},{"NoteNumber":40,"Velocity":35,"Duration":635054,"SoundDuration":635054,"Delta":67179644},{"NoteNumber":52,"Velocity":42,"Duration":635054,"SoundDuration":635054,"Delta":67179644},{"NoteNumber":59,"Velocity":27,"Duration":177012,"SoundDuration":177012,"Delta":68132226},{"NoteNumber":64,"Velocity":33,"Duration":177012,"SoundDuration":177012,"Delta":68132226},{"NoteNumber":56,"Velocity":27,"Duration":177012,"SoundDuration":177012,"Delta":68132226},{"NoteNumber":71,"Velocity":48,"Duration":577344,"SoundDuration":577344,"Delta":68220732},{"NoteNumber":76,"Velocity":48,"Duration":1251392,"SoundDuration":1251392,"Delta":68264985},{"NoteNumber":80,"Velocity":57,"Duration":1207138,"SoundDuration":1207138,"Delta":68309238},{"NoteNumber":59,"Velocity":33,"Duration":977676,"SoundDuration":977676,"Delta":68309238},{"NoteNumber":64,"Velocity":33,"Duration":977676,"SoundDuration":977676,"Delta":68309238},{"NoteNumber":68,"Velocity":39,"Duration":977676,"SoundDuration":977676,"Delta":68309238},{"NoteNumber":52,"Velocity":42,"Duration":479462,"SoundDuration":479462,"Delta":69286914},{"NoteNumber":40,"Velocity":35,"Duration":479462,"SoundDuration":479462,"Delta":69286914},{"NoteNumber":78,"Velocity":48,"Duration":250000,"SoundDuration":250000,"Delta":69516377},{"NoteNumber":75,"Velocity":40,"Duration":250000,"SoundDuration":250000,"Delta":69516377},{"NoteNumber":80,"Velocity":51,"Duration":227721,"SoundDuration":227721,"Delta":69766377},{"NoteNumber":76,"Velocity":43,"Duration":227721,"SoundDuration":227721,"Delta":69766377},{"NoteNumber":78,"Velocity":45,"Duration":241935,"SoundDuration":241935,"Delta":69994099},{"NoteNumber":81,"Velocity":53,"Duration":241935,"SoundDuration":241935,"Delta":69994099},{"NoteNumber":59,"Velocity":27,"Duration":241935,"SoundDuration":241935,"Delta":69994099},{"NoteNumber":64,"Velocity":33,"Duration":241935,"SoundDuration":241935,"Delta":69994099},{"NoteNumber":56,"Velocity":27,"Duration":241935,"SoundDuration":241935,"Delta":69994099},{"NoteNumber":80,"Velocity":47,"Duration":224315,"SoundDuration":224315,"Delta":70236034},{"NoteNumber":83,"Velocity":56,"Duration":224315,"SoundDuration":224315,"Delta":70236034},{"NoteNumber":59,"Velocity":33,"Duration":932098,"SoundDuration":932098,"Delta":70236034},{"NoteNumber":68,"Velocity":39,"Duration":932098,"SoundDuration":932098,"Delta":70236034},{"NoteNumber":64,"Velocity":33,"Duration":932098,"SoundDuration":932098,"Delta":70236034},{"NoteNumber":76,"Velocity":50,"Duration":239999,"SoundDuration":239999,"Delta":70460350},{"NoteNumber":71,"Velocity":42,"Duration":239999,"SoundDuration":239999,"Delta":70460350},{"NoteNumber":78,"Velocity":46,"Duration":223880,"SoundDuration":223880,"Delta":70700350},{"NoteNumber":81,"Velocity":55,"Duration":223880,"SoundDuration":223880,"Delta":70700350},{"NoteNumber":80,"Velocity":49,"Duration":243902,"SoundDuration":243902,"Delta":70924230},{"NoteNumber":76,"Velocity":41,"Duration":243902,"SoundDuration":243902,"Delta":70924230},{"NoteNumber":78,"Velocity":54,"Duration":266098,"SoundDuration":266098,"Delta":71168133},{"NoteNumber":75,"Velocity":45,"Duration":266098,"SoundDuration":266098,"Delta":71168133},{"NoteNumber":35,"Velocity":35,"Duration":532197,"SoundDuration":532197,"Delta":71168133},{"NoteNumber":47,"Velocity":42,"Duration":532197,"SoundDuration":532197,"Delta":71168133},{"NoteNumber":78,"Velocity":48,"Duration":59004,"SoundDuration":59004,"Delta":71966430},{"NoteNumber":59,"Velocity":27,"Duration":177012,"SoundDuration":177012,"Delta":71966430},{"NoteNumber":63,"Velocity":33,"Duration":177012,"SoundDuration":177012,"Delta":71966430},{"NoteNumber":54,"Velocity":27,"Duration":177012,"SoundDuration":177012,"Delta":71966430},{"NoteNumber":78,"Velocity":44,"Duration":59004,"SoundDuration":59004,"Delta":72025434},{"NoteNumber":80,"Velocity":44,"Duration":59629,"SoundDuration":59629,"Delta":72085913},{"NoteNumber":75,"Velocity":48,"Duration":252100,"SoundDuration":252100,"Delta":72143442},{"NoteNumber":78,"Velocity":57,"Duration":252100,"SoundDuration":252100,"Delta":72143442},{"NoteNumber":63,"Velocity":33,"Duration":1008403,"SoundDuration":1008403,"Delta":72143442},{"NoteNumber":66,"Velocity":39,"Duration":1008403,"SoundDuration":1008403,"Delta":72143442},{"NoteNumber":59,"Velocity":33,"Duration":1008403,"SoundDuration":1008403,"Delta":72143442},{"NoteNumber":77,"Velocity":51,"Duration":126050,"SoundDuration":126050,"Delta":73025795},{"NoteNumber":74,"Velocity":46,"Duration":126050,"SoundDuration":126050,"Delta":73025795},{"NoteNumber":75,"Velocity":45,"Duration":289184,"SoundDuration":289184,"Delta":73151845},{"NoteNumber":78,"Velocity":54,"Duration":289184,"SoundDuration":289184,"Delta":73151845},{"NoteNumber":47,"Velocity":42,"Duration":578368,"SoundDuration":578368,"Delta":73151845},{"NoteNumber":54,"Velocity":29,"Duration":177012,"SoundDuration":177012,"Delta":74019398},{"NoteNumber":63,"Velocity":36,"Duration":177012,"SoundDuration":177012,"Delta":74019398},{"NoteNumber":59,"Velocity":29,"Duration":177012,"SoundDuration":177012,"Delta":74019398},{"NoteNumber":80,"Velocity":61,"Duration":1038390,"SoundDuration":1038390,"Delta":74196410},{"NoteNumber":68,"Velocity":48,"Duration":1038390,"SoundDuration":1038390,"Delta":74196410},{"NoteNumber":75,"Velocity":48,"Duration":1038390,"SoundDuration":1038390,"Delta":74196410},{"NoteNumber":48,"Velocity":52,"Duration":562113,"SoundDuration":562113,"Delta":74196410},{"NoteNumber":63,"Velocity":27,"Duration":195219,"SoundDuration":195219,"Delta":75039581},{"NoteNumber":56,"Velocity":27,"Duration":195219,"SoundDuration":195219,"Delta":75039581},{"NoteNumber":68,"Velocity":33,"Duration":195219,"SoundDuration":195219,"Delta":75039581},{"NoteNumber":73,"Velocity":45,"Duration":294869,"SoundDuration":294869,"Delta":75234800},{"NoteNumber":76,"Velocity":54,"Duration":294869,"SoundDuration":294869,"Delta":75234800},{"NoteNumber":37,"Velocity":35,"Duration":589738,"SoundDuration":589738,"Delta":75234800},{"NoteNumber":49,"Velocity":42,"Duration":589738,"SoundDuration":589738,"Delta":75234800},{"NoteNumber":56,"Velocity":27,"Duration":177012,"SoundDuration":177012,"Delta":76119408},{"NoteNumber":61,"Velocity":33,"Duration":177012,"SoundDuration":177012,"Delta":76119408},{"NoteNumber":52,"Velocity":27,"Duration":177012,"SoundDuration":177012,"Delta":76119408},{"NoteNumber":68,"Velocity":48,"Duration":554561,"SoundDuration":554561,"Delta":76207914},{"NoteNumber":73,"Velocity":48,"Duration":1208922,"SoundDuration":1208922,"Delta":76252167},{"NoteNumber":76,"Velocity":57,"Duration":1164669,"SoundDuration":1164669,"Delta":76296420},{"NoteNumber":61,"Velocity":33,"Duration":932111,"SoundDuration":932111,"Delta":76296420},{"NoteNumber":56,"Velocity":33,"Duration":932111,"SoundDuration":932111,"Delta":76296420},{"NoteNumber":64,"Velocity":39,"Duration":932111,"SoundDuration":932111,"Delta":76296420},{"NoteNumber":52,"Velocity":42,"Duration":482558,"SoundDuration":482558,"Delta":77228531},{"NoteNumber":40,"Velocity":35,"Duration":482558,"SoundDuration":482558,"Delta":77228531},{"NoteNumber":72,"Velocity":40,"Duration":250000,"SoundDuration":250000,"Delta":77461089},{"NoteNumber":75,"Velocity":48,"Duration":250000,"SoundDuration":250000,"Delta":77461089},{"NoteNumber":76,"Velocity":51,"Duration":229462,"SoundDuration":229462,"Delta":77711089},{"NoteNumber":73,"Velocity":43,"Duration":229462,"SoundDuration":229462,"Delta":77711089},{"NoteNumber":78,"Velocity":53,"Duration":120967,"SoundDuration":120967,"Delta":77940552},{"NoteNumber":75,"Velocity":45,"Duration":120967,"SoundDuration":120967,"Delta":77940552},{"NoteNumber":56,"Velocity":27,"Duration":241935,"SoundDuration":241935,"Delta":77940552},{"NoteNumber":64,"Velocity":33,"Duration":241935,"SoundDuration":241935,"Delta":77940552},{"NoteNumber":61,"Velocity":27,"Duration":241935,"SoundDuration":241935,"Delta":77940552},{"NoteNumber":76,"Velocity":47,"Duration":60483,"SoundDuration":60483,"Delta":78061520},{"NoteNumber":73,"Velocity":40,"Duration":60483,"SoundDuration":60483,"Delta":78061520},{"NoteNumber":75,"Velocity":40,"Duration":60483,"SoundDuration":60483,"Delta":78122004},{"NoteNumber":78,"Velocity":47,"Duration":60483,"SoundDuration":60483,"Delta":78122004},{"NoteNumber":80,"Velocity":56,"Duration":222650,"SoundDuration":222650,"Delta":78182488},{"NoteNumber":76,"Velocity":47,"Duration":222650,"SoundDuration":222650,"Delta":78182488},{"NoteNumber":68,"Velocity":39,"Duration":462650,"SoundDuration":462650,"Delta":78182488},{"NoteNumber":61,"Velocity":33,"Duration":929204,"SoundDuration":929204,"Delta":78182488},{"NoteNumber":64,"Velocity":33,"Duration":929204,"SoundDuration":929204,"Delta":78182488},{"NoteNumber":68,"Velocity":42,"Duration":586553,"SoundDuration":586553,"Delta":78525139},{"NoteNumber":73,"Velocity":50,"Duration":119999,"SoundDuration":119999,"Delta":78525139},{"NoteNumber":75,"Velocity":46,"Duration":222650,"SoundDuration":222650,"Delta":78645139},{"NoteNumber":78,"Velocity":55,"Duration":222650,"SoundDuration":222650,"Delta":78645139},{"NoteNumber":76,"Velocity":49,"Duration":243902,"SoundDuration":243902,"Delta":78867790},{"NoteNumber":73,"Velocity":41,"Duration":243902,"SoundDuration":243902,"Delta":78867790},{"NoteNumber":72,"Velocity":45,"Duration":275229,"SoundDuration":275229,"Delta":79111692},{"NoteNumber":75,"Velocity":54,"Duration":275229,"SoundDuration":275229,"Delta":79111692},{"NoteNumber":44,"Velocity":42,"Duration":550458,"SoundDuration":550458,"Delta":79111692},{"NoteNumber":75,"Velocity":48,"Duration":59004,"SoundDuration":59004,"Delta":79937380},{"NoteNumber":51,"Velocity":27,"Duration":177012,"SoundDuration":177012,"Delta":79937380},{"NoteNumber":56,"Velocity":27,"Duration":177012,"SoundDuration":177012,"Delta":79937380},{"NoteNumber":60,"Velocity":33,"Duration":177012,"SoundDuration":177012,"Delta":79937380},{"NoteNumber":75,"Velocity":44,"Duration":59004,"SoundDuration":59004,"Delta":79996384},{"NoteNumber":76,"Velocity":44,"Duration":59629,"SoundDuration":59629,"Delta":80056863},{"NoteNumber":75,"Velocity":57,"Duration":252100,"SoundDuration":252100,"Delta":80114392},{"NoteNumber":72,"Velocity":48,"Duration":252100,"SoundDuration":252100,"Delta":80114392},{"NoteNumber":60,"Velocity":33,"Duration":1008403,"SoundDuration":1008403,"Delta":80114392},{"NoteNumber":63,"Velocity":39,"Duration":1008403,"SoundDuration":1008403,"Delta":80114392},{"NoteNumber":56,"Velocity":33,"Duration":1008403,"SoundDuration":1008403,"Delta":80114392},{"NoteNumber":73,"Velocity":51,"Duration":126050,"SoundDuration":126050,"Delta":80996745},{"NoteNumber":70,"Velocity":46,"Duration":126050,"SoundDuration":126050,"Delta":80996745},{"NoteNumber":75,"Velocity":54,"Duration":1167267,"SoundDuration":1167267,"Delta":81122795},{"NoteNumber":72,"Velocity":45,"Duration":1167267,"SoundDuration":1167267,"Delta":81122795},{"NoteNumber":44,"Velocity":42,"Duration":635054,"SoundDuration":635054,"Delta":81122795},{"NoteNumber":60,"Velocity":27,"Duration":214684,"SoundDuration":214684,"Delta":82075378},{"NoteNumber":63,"Velocity":33,"Duration":214684,"SoundDuration":214684,"Delta":82075378},{"NoteNumber":56,"Velocity":27,"Duration":214684,"SoundDuration":214684,"Delta":82075378},{"NoteNumber":68,"Velocity":33,"Duration":1197427,"SoundDuration":1197427,"Delta":82290062},{"NoteNumber":60,"Velocity":33,"Duration":1197427,"SoundDuration":1197427,"Delta":82290062},{"NoteNumber":63,"Velocity":33,"Duration":1197427,"SoundDuration":1197427,"Delta":82290062},{"NoteNumber":75,"Velocity":42,"Duration":132303,"SoundDuration":132303,"Delta":83086171},{"NoteNumber":75,"Velocity":42,"Duration":83623,"SoundDuration":83623,"Delta":83244935},{"NoteNumber":80,"Velocity":42,"Duration":811215,"SoundDuration":811215,"Delta":83345283},{"NoteNumber":75,"Velocity":54,"Duration":577254,"SoundDuration":577254,"Delta":83487490},{"NoteNumber":32,"Velocity":42,"Duration":388400,"SoundDuration":388400,"Delta":83487490},{"NoteNumber":68,"Velocity":44,"Duration":183508,"SoundDuration":183508,"Delta":84064744},{"NoteNumber":51,"Velocity":31,"Duration":61169,"SoundDuration":61169,"Delta":84064744},{"NoteNumber":72,"Velocity":35,"Duration":61169,"SoundDuration":61169,"Delta":84125914},{"NoteNumber":56,"Velocity":31,"Duration":61169,"SoundDuration":61169,"Delta":84125914},{"NoteNumber":80,"Velocity":35,"Duration":697503,"SoundDuration":697503,"Delta":84187083},{"NoteNumber":63,"Velocity":31,"Duration":61169,"SoundDuration":61169,"Delta":84187083},{"NoteNumber":72,"Velocity":52,"Duration":527921,"SoundDuration":527921,"Delta":84248253},{"NoteNumber":60,"Velocity":42,"Duration":690540,"SoundDuration":690540,"Delta":84248253},{"NoteNumber":73,"Velocity":36,"Duration":81309,"SoundDuration":81309,"Delta":84776174},{"NoteNumber":75,"Velocity":44,"Duration":54206,"SoundDuration":54206,"Delta":84830381},{"NoteNumber":80,"Velocity":36,"Duration":689956,"SoundDuration":689956,"Delta":84884587},{"NoteNumber":75,"Velocity":54,"Duration":527921,"SoundDuration":527921,"Delta":84938794},{"NoteNumber":44,"Velocity":42,"Duration":351947,"SoundDuration":351947,"Delta":84938794},{"NoteNumber":78,"Velocity":46,"Duration":161742,"SoundDuration":161742,"Delta":85466715},{"NoteNumber":56,"Velocity":29,"Duration":53914,"SoundDuration":53914,"Delta":85466715},{"NoteNumber":76,"Velocity":36,"Duration":53914,"SoundDuration":53914,"Delta":85520629},{"NoteNumber":60,"Velocity":29,"Duration":53914,"SoundDuration":53914,"Delta":85520629},{"NoteNumber":80,"Velocity":36,"Duration":691436,"SoundDuration":691436,"Delta":85574543},{"NoteNumber":68,"Velocity":29,"Duration":53914,"SoundDuration":53914,"Delta":85574543},{"NoteNumber":76,"Velocity":53,"Duration":527921,"SoundDuration":527921,"Delta":85628457},{"NoteNumber":63,"Velocity":42,"Duration":692322,"SoundDuration":692322,"Delta":85628457},{"NoteNumber":75,"Velocity":49,"Duration":164401,"SoundDuration":164401,"Delta":86156379},{"NoteNumber":73,"Velocity":38,"Duration":54800,"SoundDuration":54800,"Delta":86211179},{"NoteNumber":80,"Velocity":37,"Duration":706375,"SoundDuration":706375,"Delta":86265980},{"NoteNumber":73,"Velocity":54,"Duration":540759,"SoundDuration":540759,"Delta":86320780},{"NoteNumber":32,"Velocity":42,"Duration":364785,"SoundDuration":364785,"Delta":86320780},{"NoteNumber":68,"Velocity":46,"Duration":166223,"SoundDuration":166223,"Delta":86861540},{"NoteNumber":52,"Velocity":30,"Duration":55407,"SoundDuration":55407,"Delta":86861540},{"NoteNumber":73,"Velocity":37,"Duration":55407,"SoundDuration":55407,"Delta":86916948},{"NoteNumber":56,"Velocity":30,"Duration":55407,"SoundDuration":55407,"Delta":86916948},{"NoteNumber":80,"Velocity":37,"Duration":692332,"SoundDuration":692332,"Delta":86972355},{"NoteNumber":64,"Velocity":30,"Duration":55407,"SoundDuration":55407,"Delta":86972355},{"NoteNumber":73,"Velocity":53,"Duration":527921,"SoundDuration":527921,"Delta":87027763},{"NoteNumber":61,"Velocity":42,"Duration":691426,"SoundDuration":691426,"Delta":87027763},{"NoteNumber":75,"Velocity":49,"Duration":163505,"SoundDuration":163505,"Delta":87555685},{"NoteNumber":76,"Velocity":37,"Duration":54501,"SoundDuration":54501,"Delta":87610186},{"NoteNumber":80,"Velocity":37,"Duration":637223,"SoundDuration":637223,"Delta":87664688},{"NoteNumber":76,"Velocity":54,"Duration":527921,"SoundDuration":527921,"Delta":87719190},{"NoteNumber":44,"Velocity":42,"Duration":351947,"SoundDuration":351947,"Delta":87719190},{"NoteNumber":80,"Velocity":46,"Duration":164401,"SoundDuration":164401,"Delta":88247111},{"NoteNumber":56,"Velocity":30,"Duration":54800,"SoundDuration":54800,"Delta":88247111},{"NoteNumber":78,"Velocity":36,"Duration":54800,"SoundDuration":54800,"Delta":88301912},{"NoteNumber":61,"Velocity":30,"Duration":54800,"SoundDuration":54800,"Delta":88301912},{"NoteNumber":80,"Velocity":36,"Duration":692322,"SoundDuration":692322,"Delta":88356712},{"NoteNumber":68,"Velocity":30,"Duration":54800,"SoundDuration":54800,"Delta":88356712},{"NoteNumber":78,"Velocity":53,"Duration":527921,"SoundDuration":527921,"Delta":88411513},{"NoteNumber":64,"Velocity":42,"Duration":692322,"SoundDuration":692322,"Delta":88411513},{"NoteNumber":76,"Velocity":49,"Duration":164401,"SoundDuration":164401,"Delta":88939434},{"NoteNumber":75,"Velocity":38,"Duration":54800,"SoundDuration":54800,"Delta":88994235},{"NoteNumber":80,"Velocity":38,"Duration":346161,"SoundDuration":346161,"Delta":89049035},{"NoteNumber":75,"Velocity":54,"Duration":346161,"SoundDuration":346161,"Delta":89103836},{"NoteNumber":32,"Velocity":42,"Duration":346161,"SoundDuration":346161,"Delta":89103836},{"NoteNumber":68,"Velocity":38,"Duration":56729,"SoundDuration":56729,"Delta":89338467},{"NoteNumber":80,"Velocity":38,"Duration":340109,"SoundDuration":340109,"Delta":89395196},{"NoteNumber":68,"Velocity":46,"Duration":340109,"SoundDuration":340109,"Delta":89449997},{"NoteNumber":51,"Velocity":29,"Duration":57313,"SoundDuration":57313,"Delta":89621936},{"NoteNumber":72,"Velocity":38,"Duration":56056,"SoundDuration":56056,"Delta":89679250},{"NoteNumber":56,"Velocity":29,"Duration":56056,"SoundDuration":56056,"Delta":89679250},{"NoteNumber":80,"Velocity":38,"Duration":346465,"SoundDuration":346465,"Delta":89735306},{"NoteNumber":63,"Velocity":29,"Duration":54800,"SoundDuration":54800,"Delta":89735306},{"NoteNumber":72,"Velocity":53,"Duration":347072,"SoundDuration":347072,"Delta":89790107},{"NoteNumber":60,"Velocity":42,"Duration":692785,"SoundDuration":692785,"Delta":89790107},{"NoteNumber":73,"Velocity":38,"Duration":57032,"SoundDuration":57032,"Delta":90024739},{"NoteNumber":80,"Velocity":38,"Duration":346619,"SoundDuration":346619,"Delta":90081771},{"NoteNumber":73,"Velocity":49,"Duration":345713,"SoundDuration":345713,"Delta":90137179},{"NoteNumber":75,"Velocity":37,"Duration":56579,"SoundDuration":56579,"Delta":90371811},{"NoteNumber":80,"Velocity":37,"Duration":341448,"SoundDuration":341448,"Delta":90428391},{"NoteNumber":75,"Velocity":54,"Duration":342049,"SoundDuration":342049,"Delta":90482893},{"NoteNumber":44,"Velocity":42,"Duration":342049,"SoundDuration":342049,"Delta":90482893},{"NoteNumber":78,"Velocity":36,"Duration":56372,"SoundDuration":56372,"Delta":90713467},{"NoteNumber":80,"Velocity":36,"Duration":341898,"SoundDuration":341898,"Delta":90769840},{"NoteNumber":78,"Velocity":46,"Duration":341596,"SoundDuration":341596,"Delta":90824942},{"NoteNumber":56,"Velocity":30,"Duration":57643,"SoundDuration":57643,"Delta":90997873},{"NoteNumber":76,"Velocity":36,"Duration":56221,"SoundDuration":56221,"Delta":91055516},{"NoteNumber":60,"Velocity":30,"Duration":56221,"SoundDuration":56221,"Delta":91055516},{"NoteNumber":80,"Velocity":40,"Duration":347869,"SoundDuration":347869,"Delta":91111738},{"NoteNumber":68,"Velocity":30,"Duration":54800,"SoundDuration":54800,"Delta":91111738},{"NoteNumber":76,"Velocity":53,"Duration":348171,"SoundDuration":348171,"Delta":91166539},{"NoteNumber":63,"Velocity":42,"Duration":701988,"SoundDuration":701988,"Delta":91166539},{"NoteNumber":75,"Velocity":38,"Duration":57053,"SoundDuration":57053,"Delta":91402555},{"NoteNumber":80,"Velocity":38,"Duration":408918,"SoundDuration":408918,"Delta":91459608},{"NoteNumber":75,"Velocity":49,"Duration":353816,"SoundDuration":353816,"Delta":91514710},{"NoteNumber":73,"Velocity":54,"Duration":348688,"SoundDuration":348688,"Delta":91868527},{"NoteNumber":80,"Velocity":44,"Duration":87884,"SoundDuration":87884,"Delta":91868527},{"NoteNumber":32,"Velocity":42,"Duration":348688,"SoundDuration":348688,"Delta":91868527},{"NoteNumber":81,"Velocity":39,"Duration":87372,"SoundDuration":87372,"Delta":91956411},{"NoteNumber":80,"Velocity":44,"Duration":86966,"SoundDuration":86966,"Delta":92043783},{"NoteNumber":81,"Velocity":39,"Duration":86465,"SoundDuration":86465,"Delta":92130750},{"NoteNumber":80,"Velocity":44,"Duration":85969,"SoundDuration":85969,"Delta":92217215},{"NoteNumber":81,"Velocity":39,"Duration":85479,"SoundDuration":85479,"Delta":92303185},{"NoteNumber":80,"Velocity":44,"Duration":85092,"SoundDuration":85092,"Delta":92388665},{"NoteNumber":52,"Velocity":30,"Duration":56760,"SoundDuration":56760,"Delta":92388665},{"NoteNumber":56,"Velocity":30,"Duration":56599,"SoundDuration":56599,"Delta":92445425},{"NoteNumber":81,"Velocity":39,"Duration":84612,"SoundDuration":84612,"Delta":92473757},{"NoteNumber":64,"Velocity":30,"Duration":56344,"SoundDuration":56344,"Delta":92502025},{"NoteNumber":80,"Velocity":44,"Duration":82128,"SoundDuration":82128,"Delta":92558370},{"NoteNumber":73,"Velocity":53,"Duration":330656,"SoundDuration":330656,"Delta":92558370},{"NoteNumber":61,"Velocity":42,"Duration":659048,"SoundDuration":659048,"Delta":92558370},{"NoteNumber":81,"Velocity":39,"Duration":82846,"SoundDuration":82846,"Delta":92640498},{"NoteNumber":80,"Velocity":44,"Duration":83806,"SoundDuration":83806,"Delta":92723345},{"NoteNumber":81,"Velocity":39,"Duration":81874,"SoundDuration":81874,"Delta":92807152},{"NoteNumber":80,"Velocity":44,"Duration":83270,"SoundDuration":83270,"Delta":92889026},{"NoteNumber":81,"Velocity":39,"Duration":80900,"SoundDuration":80900,"Delta":92972297},{"NoteNumber":75,"Velocity":49,"Duration":164220,"SoundDuration":164220,"Delta":93053197},{"NoteNumber":80,"Velocity":44,"Duration":81502,"SoundDuration":81502,"Delta":93053197},{"NoteNumber":81,"Velocity":39,"Duration":82717,"SoundDuration":82717,"Delta":93134700},{"NoteNumber":80,"Velocity":44,"Duration":81336,"SoundDuration":81336,"Delta":93217418},{"NoteNumber":76,"Velocity":50,"Duration":330421,"SoundDuration":330421,"Delta":93217418},{"NoteNumber":44,"Velocity":42,"Duration":330421,"SoundDuration":330421,"Delta":93217418},{"NoteNumber":81,"Velocity":39,"Duration":83041,"SoundDuration":83041,"Delta":93298755},{"NoteNumber":80,"Velocity":44,"Duration":84499,"SoundDuration":84499,"Delta":93381796},{"NoteNumber":81,"Velocity":39,"Duration":81543,"SoundDuration":81543,"Delta":93466296},{"NoteNumber":80,"Velocity":60,"Duration":81975,"SoundDuration":81975,"Delta":93547839},{"NoteNumber":81,"Velocity":39,"Duration":82845,"SoundDuration":82845,"Delta":93629814},{"NoteNumber":80,"Velocity":44,"Duration":82437,"SoundDuration":82437,"Delta":93712660},{"NoteNumber":56,"Velocity":30,"Duration":54734,"SoundDuration":54734,"Delta":93712660},{"NoteNumber":61,"Velocity":30,"Duration":55407,"SoundDuration":55407,"Delta":93767394},{"NoteNumber":81,"Velocity":39,"Duration":82884,"SoundDuration":82884,"Delta":93795098},{"NoteNumber":68,"Velocity":30,"Duration":55180,"SoundDuration":55180,"Delta":93822802},{"NoteNumber":80,"Velocity":44,"Duration":81322,"SoundDuration":81322,"Delta":93877982},{"NoteNumber":85,"Velocity":65,"Duration":327712,"SoundDuration":327712,"Delta":93877982},{"NoteNumber":64,"Velocity":42,"Duration":668737,"SoundDuration":668737,"Delta":93877982},{"NoteNumber":81,"Velocity":39,"Duration":81881,"SoundDuration":81881,"Delta":93959305},{"NoteNumber":80,"Velocity":44,"Duration":83041,"SoundDuration":83041,"Delta":94041186},{"NoteNumber":81,"Velocity":39,"Duration":81467,"SoundDuration":81467,"Delta":94124227},{"NoteNumber":80,"Velocity":44,"Duration":83813,"SoundDuration":83813,"Delta":94205695},{"NoteNumber":88,"Velocity":66,"Duration":341025,"SoundDuration":341025,"Delta":94205695},{"NoteNumber":81,"Velocity":39,"Duration":82519,"SoundDuration":82519,"Delta":94289509},{"NoteNumber":80,"Velocity":44,"Duration":86966,"SoundDuration":86966,"Delta":94372028},{"NoteNumber":81,"Velocity":39,"Duration":87725,"SoundDuration":87725,"Delta":94458995},{"NoteNumber":80,"Velocity":59,"Duration":68230,"SoundDuration":68230,"Delta":94546720},{"NoteNumber":32,"Velocity":46,"Duration":676794,"SoundDuration":676794,"Delta":94546720},{"NoteNumber":87,"Velocity":42,"Duration":67645,"SoundDuration":67645,"Delta":94614951},{"NoteNumber":92,"Velocity":51,"Duration":66962,"SoundDuration":66962,"Delta":94682596},{"NoteNumber":87,"Velocity":45,"Duration":66275,"SoundDuration":66275,"Delta":94749558},{"NoteNumber":80,"Velocity":39,"Duration":49335,"SoundDuration":49335,"Delta":94815834},{"NoteNumber":80,"Velocity":58,"Duration":64109,"SoundDuration":64109,"Delta":94881595},{"NoteNumber":80,"Velocity":40,"Duration":85479,"SoundDuration":85479,"Delta":94967075},{"NoteNumber":92,"Velocity":51,"Duration":85479,"SoundDuration":85479,"Delta":95052555},{"NoteNumber":56,"Velocity":31,"Duration":56986,"SoundDuration":56986,"Delta":95052555},{"NoteNumber":60,"Velocity":31,"Duration":56986,"SoundDuration":56986,"Delta":95109541},{"NoteNumber":80,"Velocity":40,"Duration":85479,"SoundDuration":85479,"Delta":95138035},{"NoteNumber":68,"Velocity":31,"Duration":56986,"SoundDuration":56986,"Delta":95166528},{"NoteNumber":84,"Velocity":65,"Duration":167149,"SoundDuration":167149,"Delta":95223515},{"NoteNumber":63,"Velocity":46,"Duration":662651,"SoundDuration":662651,"Delta":95223515},{"NoteNumber":92,"Velocity":52,"Duration":83574,"SoundDuration":83574,"Delta":95307089},{"NoteNumber":87,"Velocity":41,"Duration":83574,"SoundDuration":83574,"Delta":95390664},{"NoteNumber":84,"Velocity":41,"Duration":83567,"SoundDuration":83567,"Delta":95474239},{"NoteNumber":85,"Velocity":61,"Duration":165176,"SoundDuration":165176,"Delta":95557806},{"NoteNumber":92,"Velocity":49,"Duration":82186,"SoundDuration":82186,"Delta":95640795},{"NoteNumber":85,"Velocity":39,"Duration":81516,"SoundDuration":81516,"Delta":95722982},{"NoteNumber":80,"Velocity":39,"Duration":81666,"SoundDuration":81666,"Delta":95804499},{"NoteNumber":87,"Velocity":63,"Duration":83111,"SoundDuration":83111,"Delta":95886166},{"NoteNumber":44,"Velocity":46,"Duration":664894,"SoundDuration":664894,"Delta":95886166},{"NoteNumber":92,"Velocity":51,"Duration":83111,"SoundDuration":83111,"Delta":95969278},{"NoteNumber":87,"Velocity":41,"Duration":83111,"SoundDuration":83111,"Delta":96052389},{"NoteNumber":80,"Velocity":41,"Duration":83111,"SoundDuration":83111,"Delta":96135501},{"NoteNumber":90,"Velocity":58,"Duration":83111,"SoundDuration":83111,"Delta":96218613},{"NoteNumber":92,"Velocity":48,"Duration":83111,"SoundDuration":83111,"Delta":96301725},{"NoteNumber":90,"Velocity":41,"Duration":83111,"SoundDuration":83111,"Delta":96384836},{"NoteNumber":63,"Velocity":33,"Duration":55407,"SoundDuration":55407,"Delta":96384836},{"NoteNumber":72,"Velocity":33,"Duration":55407,"SoundDuration":55407,"Delta":96440244},{"NoteNumber":80,"Velocity":41,"Duration":83111,"SoundDuration":83111,"Delta":96467948},{"NoteNumber":75,"Velocity":33,"Duration":55407,"SoundDuration":55407,"Delta":96495652},{"NoteNumber":88,"Velocity":63,"Duration":84995,"SoundDuration":84995,"Delta":96551060},{"NoteNumber":68,"Velocity":46,"Duration":674379,"SoundDuration":674379,"Delta":96551060},{"NoteNumber":92,"Velocity":49,"Duration":84995,"SoundDuration":84995,"Delta":96636055},{"NoteNumber":88,"Velocity":40,"Duration":84995,"SoundDuration":84995,"Delta":96721051},{"NoteNumber":80,"Velocity":40,"Duration":84995,"SoundDuration":84995,"Delta":96806046},{"NoteNumber":87,"Velocity":60,"Duration":83111,"SoundDuration":83111,"Delta":96891042},{"NoteNumber":92,"Velocity":48,"Duration":83111,"SoundDuration":83111,"Delta":96974154},{"NoteNumber":87,"Velocity":41,"Duration":83111,"SoundDuration":83111,"Delta":97057265},{"NoteNumber":80,"Velocity":41,"Duration":63065,"SoundDuration":63065,"Delta":97140377},{"NoteNumber":80,"Velocity":65,"Duration":68928,"SoundDuration":68928,"Delta":97225439},{"NoteNumber":32,"Velocity":46,"Duration":676125,"SoundDuration":676125,"Delta":97225439},{"NoteNumber":85,"Velocity":42,"Duration":67527,"SoundDuration":67527,"Delta":97294367},{"NoteNumber":92,"Velocity":51,"Duration":66729,"SoundDuration":66729,"Delta":97361895},{"NoteNumber":85,"Velocity":45,"Duration":49509,"SoundDuration":49509,"Delta":97428624},{"NoteNumber":80,"Velocity":39,"Duration":48897,"SoundDuration":48897,"Delta":97494574},{"NoteNumber":80,"Velocity":58,"Duration":64109,"SoundDuration":64109,"Delta":97559645},{"NoteNumber":80,"Velocity":40,"Duration":85479,"SoundDuration":85479,"Delta":97645125},{"NoteNumber":92,"Velocity":51,"Duration":85479,"SoundDuration":85479,"Delta":97730605},{"NoteNumber":56,"Velocity":31,"Duration":56986,"SoundDuration":56986,"Delta":97730605},{"NoteNumber":61,"Velocity":31,"Duration":56986,"SoundDuration":56986,"Delta":97787591},{"NoteNumber":80,"Velocity":40,"Duration":85479,"SoundDuration":85479,"Delta":97816085},{"NoteNumber":68,"Velocity":31,"Duration":56986,"SoundDuration":56986,"Delta":97844578},{"NoteNumber":85,"Velocity":65,"Duration":168086,"SoundDuration":168086,"Delta":97901565},{"NoteNumber":64,"Velocity":46,"Duration":667122,"SoundDuration":667122,"Delta":97901565},{"NoteNumber":92,"Velocity":52,"Duration":84043,"SoundDuration":84043,"Delta":97985608},{"NoteNumber":85,"Velocity":41,"Duration":84042,"SoundDuration":84042,"Delta":98069651},{"NoteNumber":80,"Velocity":41,"Duration":84043,"SoundDuration":84043,"Delta":98153694},{"NoteNumber":87,"Velocity":63,"Duration":167127,"SoundDuration":167127,"Delta":98237737},{"NoteNumber":92,"Velocity":49,"Duration":83097,"SoundDuration":83097,"Delta":98321767},{"NoteNumber":87,"Velocity":39,"Duration":82298,"SoundDuration":82298,"Delta":98404864},{"NoteNumber":80,"Velocity":39,"Duration":81523,"SoundDuration":81523,"Delta":98487163},{"NoteNumber":88,"Velocity":64,"Duration":83111,"SoundDuration":83111,"Delta":98568687},{"NoteNumber":44,"Velocity":46,"Duration":664894,"SoundDuration":664894,"Delta":98568687},{"NoteNumber":92,"Velocity":51,"Duration":83111,"SoundDuration":83111,"Delta":98651799},{"NoteNumber":88,"Velocity":41,"Duration":83111,"SoundDuration":83111,"Delta":98734910},{"NoteNumber":80,"Velocity":41,"Duration":83111,"SoundDuration":83111,"Delta":98818022},{"NoteNumber":92,"Velocity":53,"Duration":83111,"SoundDuration":83111,"Delta":98901134},{"NoteNumber":80,"Velocity":44,"Duration":83111,"SoundDuration":83111,"Delta":98984246},{"NoteNumber":92,"Velocity":51,"Duration":83111,"SoundDuration":83111,"Delta":99067357},{"NoteNumber":64,"Velocity":33,"Duration":55407,"SoundDuration":55407,"Delta":99067357},{"NoteNumber":73,"Velocity":33,"Duration":55407,"SoundDuration":55407,"Delta":99122765},{"NoteNumber":80,"Velocity":41,"Duration":83111,"SoundDuration":83111,"Delta":99150469},{"NoteNumber":76,"Velocity":33,"Duration":55407,"SoundDuration":55407,"Delta":99178173},{"NoteNumber":90,"Velocity":63,"Duration":84995,"SoundDuration":84995,"Delta":99233581},{"NoteNumber":68,"Velocity":46,"Duration":691929,"SoundDuration":691929,"Delta":99233581},{"NoteNumber":92,"Velocity":49,"Duration":84995,"SoundDuration":84995,"Delta":99318576},{"NoteNumber":90,"Velocity":40,"Duration":84995,"SoundDuration":84995,"Delta":99403572},{"NoteNumber":80,"Velocity":40,"Duration":84995,"SoundDuration":84995,"Delta":99488567},{"NoteNumber":88,"Velocity":63,"Duration":87986,"SoundDuration":87986,"Delta":99573563},{"NoteNumber":92,"Velocity":48,"Duration":87986,"SoundDuration":87986,"Delta":99661550},{"NoteNumber":88,"Velocity":41,"Duration":87986,"SoundDuration":87986,"Delta":99749537},{"NoteNumber":80,"Velocity":41,"Duration":87986,"SoundDuration":87986,"Delta":99837524},{"NoteNumber":87,"Velocity":64,"Duration":68230,"SoundDuration":68230,"Delta":99925510},{"NoteNumber":32,"Velocity":46,"Duration":676794,"SoundDuration":676794,"Delta":99925510},{"NoteNumber":92,"Velocity":46,"Duration":67645,"SoundDuration":67645,"Delta":99993741},{"NoteNumber":93,"Velocity":51,"Duration":66962,"SoundDuration":66962,"Delta":100061387},{"NoteNumber":92,"Velocity":45,"Duration":66275,"SoundDuration":66275,"Delta":100128349},{"NoteNumber":87,"Velocity":39,"Duration":65760,"SoundDuration":65760,"Delta":100194625},{"NoteNumber":80,"Velocity":63,"Duration":68383,"SoundDuration":68383,"Delta":100260385},{"NoteNumber":92,"Velocity":46,"Duration":68383,"SoundDuration":68383,"Delta":100328769},{"NoteNumber":93,"Velocity":52,"Duration":68383,"SoundDuration":68383,"Delta":100397153},{"NoteNumber":56,"Velocity":31,"Duration":56986,"SoundDuration":56986,"Delta":100431345},{"NoteNumber":92,"Velocity":46,"Duration":68383,"SoundDuration":68383,"Delta":100465537},{"NoteNumber":60,"Velocity":31,"Duration":56986,"SoundDuration":56986,"Delta":100488332},{"NoteNumber":80,"Velocity":40,"Duration":68383,"SoundDuration":68383,"Delta":100533921},{"NoteNumber":68,"Velocity":31,"Duration":56986,"SoundDuration":56986,"Delta":100545318},{"NoteNumber":84,"Velocity":60,"Duration":66859,"SoundDuration":66859,"Delta":100602305},{"NoteNumber":63,"Velocity":47,"Duration":662651,"SoundDuration":662651,"Delta":100602305},{"NoteNumber":92,"Velocity":47,"Duration":66859,"SoundDuration":66859,"Delta":100669165},{"NoteNumber":93,"Velocity":53,"Duration":66859,"SoundDuration":66859,"Delta":100736025},{"NoteNumber":92,"Velocity":46,"Duration":66859,"SoundDuration":66859,"Delta":100802884},{"NoteNumber":80,"Velocity":40,"Duration":66852,"SoundDuration":66852,"Delta":100869744},{"NoteNumber":85,"Velocity":61,"Duration":66458,"SoundDuration":66458,"Delta":100936596},{"NoteNumber":92,"Velocity":48,"Duration":65956,"SoundDuration":65956,"Delta":101003055},{"NoteNumber":93,"Velocity":54,"Duration":65461,"SoundDuration":65461,"Delta":101069012},{"NoteNumber":92,"Velocity":47,"Duration":64989,"SoundDuration":64989,"Delta":101134474},{"NoteNumber":80,"Velocity":41,"Duration":65492,"SoundDuration":65492,"Delta":101199464},{"NoteNumber":87,"Velocity":66,"Duration":68230,"SoundDuration":68230,"Delta":101264956},{"NoteNumber":44,"Velocity":49,"Duration":660113,"SoundDuration":660113,"Delta":101264956},{"NoteNumber":92,"Velocity":49,"Duration":67645,"SoundDuration":67645,"Delta":101333187},{"NoteNumber":93,"Velocity":55,"Duration":66962,"SoundDuration":66962,"Delta":101400833},{"NoteNumber":92,"Velocity":48,"Duration":66275,"SoundDuration":66275,"Delta":101467795},{"NoteNumber":80,"Velocity":42,"Duration":65760,"SoundDuration":65760,"Delta":101534070},{"NoteNumber":90,"Velocity":64,"Duration":65047,"SoundDuration":65047,"Delta":101599831},{"NoteNumber":92,"Velocity":50,"Duration":65047,"SoundDuration":65047,"Delta":101664879},{"NoteNumber":93,"Velocity":56,"Duration":65047,"SoundDuration":65047,"Delta":101729927},{"NoteNumber":63,"Velocity":34,"Duration":54206,"SoundDuration":54206,"Delta":101762451},{"NoteNumber":92,"Velocity":49,"Duration":65047,"SoundDuration":65047,"Delta":101794974},{"NoteNumber":72,"Velocity":34,"Duration":54206,"SoundDuration":54206,"Delta":101816657},{"NoteNumber":80,"Velocity":42,"Duration":65047,"SoundDuration":65047,"Delta":101860022},{"NoteNumber":75,"Velocity":34,"Duration":54206,"SoundDuration":54206,"Delta":101870863},{"NoteNumber":88,"Velocity":65,"Duration":66859,"SoundDuration":66859,"Delta":101925070},{"NoteNumber":68,"Velocity":51,"Duration":662651,"SoundDuration":662651,"Delta":101925070},{"NoteNumber":92,"Velocity":51,"Duration":66859,"SoundDuration":66859,"Delta":101991930},{"NoteNumber":93,"Velocity":57,"Duration":66859,"SoundDuration":66859,"Delta":102058789},{"NoteNumber":92,"Velocity":50,"Duration":66859,"SoundDuration":66859,"Delta":102125649},{"NoteNumber":80,"Velocity":43,"Duration":66852,"SoundDuration":66852,"Delta":102192509},{"NoteNumber":87,"Velocity":66,"Duration":66458,"SoundDuration":66458,"Delta":102259361},{"NoteNumber":92,"Velocity":51,"Duration":65956,"SoundDuration":65956,"Delta":102325820},{"NoteNumber":93,"Velocity":57,"Duration":65461,"SoundDuration":65461,"Delta":102391777},{"NoteNumber":92,"Velocity":51,"Duration":64989,"SoundDuration":64989,"Delta":102457239},{"NoteNumber":80,"Velocity":44,"Duration":65492,"SoundDuration":65492,"Delta":102522228},{"NoteNumber":85,"Velocity":67,"Duration":348688,"SoundDuration":348688,"Delta":102587721},{"NoteNumber":92,"Velocity":55,"Duration":87884,"SoundDuration":87884,"Delta":102587721},{"NoteNumber":32,"Velocity":48,"Duration":689842,"SoundDuration":689842,"Delta":102587721},{"NoteNumber":93,"Velocity":48,"Duration":87372,"SoundDuration":87372,"Delta":102675605},{"NoteNumber":92,"Velocity":55,"Duration":86966,"SoundDuration":86966,"Delta":102762978},{"NoteNumber":93,"Velocity":48,"Duration":86465,"SoundDuration":86465,"Delta":102849944},{"NoteNumber":92,"Velocity":55,"Duration":85969,"SoundDuration":85969,"Delta":102936410},{"NoteNumber":93,"Velocity":48,"Duration":85479,"SoundDuration":85479,"Delta":103022379},{"NoteNumber":92,"Velocity":55,"Duration":85092,"SoundDuration":85092,"Delta":103107859},{"NoteNumber":56,"Velocity":34,"Duration":56760,"SoundDuration":56760,"Delta":103107859},{"NoteNumber":61,"Velocity":34,"Duration":56599,"SoundDuration":56599,"Delta":103164620},{"NoteNumber":93,"Velocity":48,"Duration":84612,"SoundDuration":84612,"Delta":103192952},{"NoteNumber":68,"Velocity":34,"Duration":56344,"SoundDuration":56344,"Delta":103221220},{"NoteNumber":92,"Velocity":55,"Duration":82128,"SoundDuration":82128,"Delta":103277564},{"NoteNumber":85,"Velocity":66,"Duration":330656,"SoundDuration":330656,"Delta":103277564},{"NoteNumber":64,"Velocity":48,"Duration":659048,"SoundDuration":659048,"Delta":103277564},{"NoteNumber":93,"Velocity":48,"Duration":82846,"SoundDuration":82846,"Delta":103359692},{"NoteNumber":92,"Velocity":55,"Duration":83806,"SoundDuration":83806,"Delta":103442539},{"NoteNumber":93,"Velocity":48,"Duration":81874,"SoundDuration":81874,"Delta":103526346},{"NoteNumber":92,"Velocity":55,"Duration":83270,"SoundDuration":83270,"Delta":103608220},{"NoteNumber":93,"Velocity":48,"Duration":80900,"SoundDuration":80900,"Delta":103691491},{"NoteNumber":84,"Velocity":60,"Duration":164220,"SoundDuration":164220,"Delta":103772392},{"NoteNumber":92,"Velocity":55,"Duration":81502,"SoundDuration":81502,"Delta":103772392},{"NoteNumber":93,"Velocity":48,"Duration":82717,"SoundDuration":82717,"Delta":103853894},{"NoteNumber":85,"Velocity":63,"Duration":678931,"SoundDuration":678931,"Delta":103936612},{"NoteNumber":92,"Velocity":55,"Duration":81336,"SoundDuration":81336,"Delta":103936612},{"NoteNumber":44,"Velocity":48,"Duration":678931,"SoundDuration":678931,"Delta":103936612},{"NoteNumber":93,"Velocity":48,"Duration":83041,"SoundDuration":83041,"Delta":104017949},{"NoteNumber":92,"Velocity":55,"Duration":84499,"SoundDuration":84499,"Delta":104100991},{"NoteNumber":93,"Velocity":48,"Duration":81543,"SoundDuration":81543,"Delta":104185490},{"NoteNumber":92,"Velocity":58,"Duration":81975,"SoundDuration":81975,"Delta":104267034},{"NoteNumber":93,"Velocity":48,"Duration":83002,"SoundDuration":83002,"Delta":104349009},{"NoteNumber":92,"Velocity":55,"Duration":90104,"SoundDuration":90104,"Delta":104432011},{"NoteNumber":64,"Velocity":34,"Duration":58173,"SoundDuration":58173,"Delta":104432011},{"NoteNumber":73,"Velocity":34,"Duration":65898,"SoundDuration":65898,"Delta":104490185},{"NoteNumber":93,"Velocity":48,"Duration":93427,"SoundDuration":93427,"Delta":104522116},{"NoteNumber":76,"Velocity":34,"Duration":59460,"SoundDuration":59460,"Delta":104556083},{"NoteNumber":88,"Velocity":52,"Duration":62606,"SoundDuration":62606,"Delta":104615543},{"NoteNumber":68,"Velocity":42,"Duration":668346,"SoundDuration":668346,"Delta":104615543},{"NoteNumber":92,"Velocity":47,"Duration":59105,"SoundDuration":59105,"Delta":104678150},{"NoteNumber":100,"Velocity":54,"Duration":59154,"SoundDuration":59154,"Delta":104737255},{"NoteNumber":99,"Velocity":51,"Duration":59893,"SoundDuration":59893,"Delta":104796409},{"NoteNumber":97,"Velocity":49,"Duration":60401,"SoundDuration":60401,"Delta":104854933},{"NoteNumber":92,"Velocity":47,"Duration":60841,"SoundDuration":60841,"Delta":104915334},{"NoteNumber":88,"Velocity":45,"Duration":61514,"SoundDuration":61514,"Delta":104976176},{"NoteNumber":87,"Velocity":42,"Duration":62074,"SoundDuration":62074,"Delta":105037690},{"NoteNumber":85,"Velocity":40,"Duration":62548,"SoundDuration":62548,"Delta":105099765},{"NoteNumber":80,"Velocity":38,"Duration":63094,"SoundDuration":63094,"Delta":105160888},{"NoteNumber":76,"Velocity":41,"Duration":59907,"SoundDuration":59907,"Delta":105223983},{"NoteNumber":75,"Velocity":53,"Duration":82551,"SoundDuration":82551,"Delta":105283890},{"NoteNumber":44,"Velocity":42,"Duration":82551,"SoundDuration":82551,"Delta":105283890},{"NoteNumber":51,"Velocity":34,"Duration":80773,"SoundDuration":80773,"Delta":105448095},{"NoteNumber":76,"Velocity":37,"Duration":79906,"SoundDuration":79906,"Delta":105528869},{"NoteNumber":78,"Velocity":47,"Duration":79897,"SoundDuration":79897,"Delta":105608775},{"NoteNumber":54,"Velocity":34,"Duration":79897,"SoundDuration":79897,"Delta":105608775},{"NoteNumber":60,"Velocity":34,"Duration":79167,"SoundDuration":79167,"Delta":105768154},{"NoteNumber":80,"Velocity":43,"Duration":78855,"SoundDuration":78855,"Delta":105847321},{"NoteNumber":81,"Velocity":51,"Duration":78641,"SoundDuration":78641,"Delta":105926176},{"NoteNumber":63,"Velocity":42,"Duration":78641,"SoundDuration":78641,"Delta":105926176},{"NoteNumber":68,"Velocity":35,"Duration":78641,"SoundDuration":78641,"Delta":106083459},{"NoteNumber":80,"Velocity":42,"Duration":78641,"SoundDuration":78641,"Delta":106162100},{"NoteNumber":83,"Velocity":51,"Duration":78641,"SoundDuration":78641,"Delta":106240741},{"NoteNumber":63,"Velocity":35,"Duration":78641,"SoundDuration":78641,"Delta":106240741},{"NoteNumber":68,"Velocity":35,"Duration":78641,"SoundDuration":78641,"Delta":106398023},{"NoteNumber":81,"Velocity":46,"Duration":78641,"SoundDuration":78641,"Delta":106476664},{"NoteNumber":80,"Velocity":54,"Duration":170706,"SoundDuration":170706,"Delta":106555305},{"NoteNumber":44,"Velocity":42,"Duration":85353,"SoundDuration":85353,"Delta":106555305},{"NoteNumber":51,"Velocity":34,"Duration":77025,"SoundDuration":77025,"Delta":106726012},{"NoteNumber":68,"Velocity":51,"Duration":231077,"SoundDuration":231077,"Delta":106803038},{"NoteNumber":80,"Velocity":55,"Duration":154051,"SoundDuration":154051,"Delta":106880064},{"NoteNumber":54,"Velocity":34,"Duration":77025,"SoundDuration":77025,"Delta":106880064},{"NoteNumber":60,"Velocity":34,"Duration":77025,"SoundDuration":77025,"Delta":107034115},{"NoteNumber":70,"Velocity":53,"Duration":231077,"SoundDuration":231077,"Delta":107111141},{"NoteNumber":80,"Velocity":58,"Duration":154051,"SoundDuration":154051,"Delta":107188167},{"NoteNumber":63,"Velocity":42,"Duration":77025,"SoundDuration":77025,"Delta":107188167},{"NoteNumber":68,"Velocity":35,"Duration":77025,"SoundDuration":77025,"Delta":107342218},{"NoteNumber":72,"Velocity":55,"Duration":231077,"SoundDuration":231077,"Delta":107419244},{"NoteNumber":80,"Velocity":60,"Duration":154051,"SoundDuration":154051,"Delta":107496270},{"NoteNumber":63,"Velocity":35,"Duration":77025,"SoundDuration":77025,"Delta":107496270},{"NoteNumber":68,"Velocity":35,"Duration":91052,"SoundDuration":91052,"Delta":107650321},{"NoteNumber":73,"Velocity":37,"Duration":45526,"SoundDuration":45526,"Delta":107741374},{"NoteNumber":75,"Velocity":37,"Duration":45526,"SoundDuration":45526,"Delta":107786900},{"NoteNumber":73,"Velocity":50,"Duration":78231,"SoundDuration":78231,"Delta":107832426},{"NoteNumber":44,"Velocity":42,"Duration":78231,"SoundDuration":78231,"Delta":107832426},{"NoteNumber":52,"Velocity":34,"Duration":78230,"SoundDuration":78230,"Delta":107988888},{"NoteNumber":72,"Velocity":37,"Duration":78231,"SoundDuration":78231,"Delta":108067119},{"NoteNumber":73,"Velocity":48,"Duration":79055,"SoundDuration":79055,"Delta":108145350},{"NoteNumber":56,"Velocity":34,"Duration":79055,"SoundDuration":79055,"Delta":108145350},{"NoteNumber":61,"Velocity":34,"Duration":79055,"SoundDuration":79055,"Delta":108303461},{"NoteNumber":75,"Velocity":39,"Duration":39527,"SoundDuration":39527,"Delta":108382517},{"NoteNumber":76,"Velocity":34,"Duration":19763,"SoundDuration":19763,"Delta":108422045},{"NoteNumber":78,"Velocity":35,"Duration":19667,"SoundDuration":19667,"Delta":108441809},{"NoteNumber":76,"Velocity":51,"Duration":78641,"SoundDuration":78641,"Delta":108461476},{"NoteNumber":64,"Velocity":42,"Duration":78641,"SoundDuration":78641,"Delta":108461476},{"NoteNumber":68,"Velocity":35,"Duration":78641,"SoundDuration":78641,"Delta":108618758},{"NoteNumber":75,"Velocity":42,"Duration":78641,"SoundDuration":78641,"Delta":108697399},{"NoteNumber":76,"Velocity":53,"Duration":79897,"SoundDuration":79897,"Delta":108776040},{"NoteNumber":64,"Velocity":35,"Duration":79897,"SoundDuration":79897,"Delta":108776040},{"NoteNumber":68,"Velocity":35,"Duration":83920,"SoundDuration":83920,"Delta":108935836},{"NoteNumber":78,"Velocity":42,"Duration":83920,"SoundDuration":83920,"Delta":109019757},{"NoteNumber":79,"Velocity":55,"Duration":78641,"SoundDuration":78641,"Delta":109103677},{"NoteNumber":44,"Velocity":43,"Duration":78641,"SoundDuration":78641,"Delta":109103677},{"NoteNumber":52,"Velocity":34,"Duration":78306,"SoundDuration":78306,"Delta":109260960},{"NoteNumber":80,"Velocity":45,"Duration":78231,"SoundDuration":78231,"Delta":109339266},{"NoteNumber":81,"Velocity":54,"Duration":77899,"SoundDuration":77899,"Delta":109417497},{"NoteNumber":56,"Velocity":39,"Duration":77899,"SoundDuration":77899,"Delta":109417497},{"NoteNumber":61,"Velocity":34,"Duration":77497,"SoundDuration":77497,"Delta":109573221},{"NoteNumber":80,"Velocity":48,"Duration":77396,"SoundDuration":77396,"Delta":109650718},{"NoteNumber":78,"Velocity":55,"Duration":77825,"SoundDuration":77825,"Delta":109728115},{"NoteNumber":64,"Velocity":45,"Duration":77825,"SoundDuration":77825,"Delta":109728115},{"NoteNumber":68,"Velocity":35,"Duration":77825,"SoundDuration":77825,"Delta":109883765},{"NoteNumber":76,"Velocity":42,"Duration":77825,"SoundDuration":77825,"Delta":109961590},{"NoteNumber":75,"Velocity":52,"Duration":88894,"SoundDuration":88894,"Delta":110039415},{"NoteNumber":80,"Velocity":52,"Duration":88894,"SoundDuration":88894,"Delta":110039415},{"NoteNumber":64,"Velocity":41,"Duration":88894,"SoundDuration":88894,"Delta":110039415},{"NoteNumber":68,"Velocity":35,"Duration":88894,"SoundDuration":88894,"Delta":110217203},{"NoteNumber":73,"Velocity":42,"Duration":44447,"SoundDuration":44447,"Delta":110306097},{"NoteNumber":72,"Velocity":49,"Duration":667198,"SoundDuration":667198,"Delta":110350544},{"NoteNumber":87,"Velocity":57,"Duration":79055,"SoundDuration":79055,"Delta":110394992},{"NoteNumber":44,"Velocity":43,"Duration":79055,"SoundDuration":79055,"Delta":110394992},{"NoteNumber":51,"Velocity":34,"Duration":79055,"SoundDuration":79055,"Delta":110553103},{"NoteNumber":88,"Velocity":55,"Duration":79055,"SoundDuration":79055,"Delta":110632158},{"NoteNumber":90,"Velocity":62,"Duration":76632,"SoundDuration":76632,"Delta":110711214},{"NoteNumber":54,"Velocity":39,"Duration":76632,"SoundDuration":76632,"Delta":110711214},{"NoteNumber":60,"Velocity":34,"Duration":76632,"SoundDuration":76632,"Delta":110864478},{"NoteNumber":92,"Velocity":55,"Duration":76632,"SoundDuration":76632,"Delta":110941110},{"NoteNumber":93,"Velocity":61,"Duration":76730,"SoundDuration":76730,"Delta":111017743},{"NoteNumber":63,"Velocity":45,"Duration":76730,"SoundDuration":76730,"Delta":111017743},{"NoteNumber":68,"Velocity":35,"Duration":77724,"SoundDuration":77724,"Delta":111171698},{"NoteNumber":92,"Velocity":49,"Duration":78333,"SoundDuration":78333,"Delta":111249422},{"NoteNumber":95,"Velocity":57,"Duration":78848,"SoundDuration":78848,"Delta":111327756},{"NoteNumber":63,"Velocity":41,"Duration":78848,"SoundDuration":78848,"Delta":111327756},{"NoteNumber":68,"Velocity":35,"Duration":80004,"SoundDuration":80004,"Delta":111485974},{"NoteNumber":93,"Velocity":51,"Duration":80541,"SoundDuration":80541,"Delta":111565979},{"NoteNumber":92,"Velocity":60,"Duration":171683,"SoundDuration":171683,"Delta":111646520},{"NoteNumber":44,"Velocity":42,"Duration":85841,"SoundDuration":85841,"Delta":111646520},{"NoteNumber":51,"Velocity":34,"Duration":85841,"SoundDuration":85841,"Delta":111818204},{"NoteNumber":68,"Velocity":51,"Duration":251149,"SoundDuration":251149,"Delta":111904046},{"NoteNumber":80,"Velocity":58,"Duration":165307,"SoundDuration":165307,"Delta":111989888},{"NoteNumber":54,"Velocity":34,"Duration":82653,"SoundDuration":82653,"Delta":111989888},{"NoteNumber":60,"Velocity":34,"Duration":82653,"SoundDuration":82653,"Delta":112155195},{"NoteNumber":70,"Velocity":53,"Duration":257601,"SoundDuration":257601,"Delta":112237849},{"NoteNumber":80,"Velocity":62,"Duration":174947,"SoundDuration":174947,"Delta":112320503},{"NoteNumber":82,"Velocity":62,"Duration":174947,"SoundDuration":174947,"Delta":112320503},{"NoteNumber":63,"Velocity":42,"Duration":87473,"SoundDuration":87473,"Delta":112320503},{"NoteNumber":68,"Velocity":35,"Duration":87473,"SoundDuration":87473,"Delta":112495450},{"NoteNumber":72,"Velocity":55,"Duration":279191,"SoundDuration":279191,"Delta":112582924},{"NoteNumber":84,"Velocity":65,"Duration":191717,"SoundDuration":191717,"Delta":112670398},{"NoteNumber":80,"Velocity":65,"Duration":191717,"SoundDuration":191717,"Delta":112670398},{"NoteNumber":63,"Velocity":35,"Duration":95858,"SoundDuration":95858,"Delta":112670398},{"NoteNumber":68,"Velocity":35,"Duration":95858,"SoundDuration":95858,"Delta":112862116},{"NoteNumber":73,"Velocity":61,"Duration":82074,"SoundDuration":82074,"Delta":112957974},{"NoteNumber":80,"Velocity":55,"Duration":82074,"SoundDuration":82074,"Delta":113040049},{"NoteNumber":87,"Velocity":66,"Duration":82074,"SoundDuration":82074,"Delta":113122124},{"NoteNumber":85,"Velocity":62,"Duration":93921,"SoundDuration":93921,"Delta":113204199},{"NoteNumber":37,"Velocity":46,"Duration":93921,"SoundDuration":93921,"Delta":113204199},{"NoteNumber":87,"Velocity":40,"Duration":93040,"SoundDuration":93040,"Delta":113298120},{"NoteNumber":85,"Velocity":50,"Duration":89701,"SoundDuration":89701,"Delta":113391161},{"NoteNumber":44,"Velocity":37,"Duration":89701,"SoundDuration":89701,"Delta":113391161},{"NoteNumber":87,"Velocity":40,"Duration":86593,"SoundDuration":86593,"Delta":113480863},{"NoteNumber":85,"Velocity":49,"Duration":85353,"SoundDuration":85353,"Delta":113567456},{"NoteNumber":53,"Velocity":37,"Duration":85353,"SoundDuration":85353,"Delta":113567456},{"NoteNumber":87,"Velocity":40,"Duration":84870,"SoundDuration":84870,"Delta":113652809},{"NoteNumber":85,"Velocity":47,"Duration":84392,"SoundDuration":84392,"Delta":113737680},{"NoteNumber":56,"Velocity":37,"Duration":84392,"SoundDuration":84392,"Delta":113737680},{"NoteNumber":87,"Velocity":39,"Duration":83920,"SoundDuration":83920,"Delta":113822073},{"NoteNumber":85,"Velocity":47,"Duration":83453,"SoundDuration":83453,"Delta":113905993},{"NoteNumber":61,"Velocity":45,"Duration":83453,"SoundDuration":83453,"Delta":113905993},{"NoteNumber":87,"Velocity":39,"Duration":82992,"SoundDuration":82992,"Delta":113989447},{"NoteNumber":85,"Velocity":46,"Duration":82535,"SoundDuration":82535,"Delta":114072439},{"NoteNumber":68,"Velocity":37,"Duration":82535,"SoundDuration":82535,"Delta":114072439},{"NoteNumber":87,"Velocity":39,"Duration":82083,"SoundDuration":82083,"Delta":114154975},{"NoteNumber":85,"Velocity":46,"Duration":81416,"SoundDuration":81416,"Delta":114237059},{"NoteNumber":61,"Velocity":37,"Duration":81416,"SoundDuration":81416,"Delta":114237059},{"NoteNumber":87,"Velocity":39,"Duration":82766,"SoundDuration":82766,"Delta":114318475},{"NoteNumber":85,"Velocity":45,"Duration":84159,"SoundDuration":84159,"Delta":114401241},{"NoteNumber":68,"Velocity":37,"Duration":84159,"SoundDuration":84159,"Delta":114401241},{"NoteNumber":87,"Velocity":39,"Duration":85719,"SoundDuration":85719,"Delta":114485401},{"NoteNumber":85,"Velocity":51,"Duration":80978,"SoundDuration":80978,"Delta":114571121},{"NoteNumber":49,"Velocity":44,"Duration":80978,"SoundDuration":80978,"Delta":114571121},{"NoteNumber":87,"Velocity":38,"Duration":79267,"SoundDuration":79267,"Delta":114652100},{"NoteNumber":85,"Velocity":48,"Duration":77626,"SoundDuration":77626,"Delta":114731367},{"NoteNumber":56,"Velocity":35,"Duration":77626,"SoundDuration":77626,"Delta":114731367},{"NoteNumber":87,"Velocity":38,"Duration":78236,"SoundDuration":78236,"Delta":114808993},{"NoteNumber":85,"Velocity":46,"Duration":79897,"SoundDuration":79897,"Delta":114887229},{"NoteNumber":65,"Velocity":35,"Duration":79897,"SoundDuration":79897,"Delta":114887229},{"NoteNumber":87,"Velocity":38,"Duration":78641,"SoundDuration":78641,"Delta":114967127},{"NoteNumber":85,"Velocity":45,"Duration":78641,"SoundDuration":78641,"Delta":115045768},{"NoteNumber":68,"Velocity":35,"Duration":78641,"SoundDuration":78641,"Delta":115045768},{"NoteNumber":87,"Velocity":38,"Duration":78744,"SoundDuration":78744,"Delta":115124409},{"NoteNumber":85,"Velocity":45,"Duration":79055,"SoundDuration":79055,"Delta":115203154},{"NoteNumber":73,"Velocity":43,"Duration":79055,"SoundDuration":79055,"Delta":115203154},{"NoteNumber":87,"Velocity":38,"Duration":79055,"SoundDuration":79055,"Delta":115282209},{"NoteNumber":85,"Velocity":43,"Duration":77025,"SoundDuration":77025,"Delta":115361265},{"NoteNumber":80,"Velocity":35,"Duration":77025,"SoundDuration":77025,"Delta":115361265},{"NoteNumber":87,"Velocity":37,"Duration":80325,"SoundDuration":80325,"Delta":115438291},{"NoteNumber":85,"Velocity":43,"Duration":80112,"SoundDuration":80112,"Delta":115518616},{"NoteNumber":73,"Velocity":35,"Duration":80112,"SoundDuration":80112,"Delta":115518616},{"NoteNumber":87,"Velocity":37,"Duration":81764,"SoundDuration":81764,"Delta":115598729},{"NoteNumber":85,"Velocity":43,"Duration":86108,"SoundDuration":86108,"Delta":115680494},{"NoteNumber":80,"Velocity":35,"Duration":86108,"SoundDuration":86108,"Delta":115680494},{"NoteNumber":87,"Velocity":37,"Duration":86345,"SoundDuration":86345,"Delta":115766603},{"NoteNumber":85,"Velocity":44,"Duration":82992,"SoundDuration":82992,"Delta":115852948},{"NoteNumber":77,"Velocity":31,"Duration":82992,"SoundDuration":82992,"Delta":115852948},{"NoteNumber":73,"Velocity":31,"Duration":82992,"SoundDuration":82992,"Delta":115852948},{"NoteNumber":87,"Velocity":33,"Duration":82535,"SoundDuration":82535,"Delta":115935940},{"NoteNumber":80,"Velocity":26,"Duration":82535,"SoundDuration":82535,"Delta":115935940},{"NoteNumber":85,"Velocity":41,"Duration":82196,"SoundDuration":82196,"Delta":116018476},{"NoteNumber":77,"Velocity":31,"Duration":82196,"SoundDuration":82196,"Delta":116018476},{"NoteNumber":73,"Velocity":31,"Duration":82196,"SoundDuration":82196,"Delta":116018476},{"NoteNumber":87,"Velocity":33,"Duration":81860,"SoundDuration":81860,"Delta":116100672},{"NoteNumber":80,"Velocity":26,"Duration":81860,"SoundDuration":81860,"Delta":116100672},{"NoteNumber":77,"Velocity":33,"Duration":81637,"SoundDuration":81637,"Delta":116182533},{"NoteNumber":85,"Velocity":42,"Duration":81637,"SoundDuration":81637,"Delta":116182533},{"NoteNumber":73,"Velocity":33,"Duration":81637,"SoundDuration":81637,"Delta":116182533},{"NoteNumber":87,"Velocity":35,"Duration":81195,"SoundDuration":81195,"Delta":116264170},{"NoteNumber":80,"Velocity":27,"Duration":81195,"SoundDuration":81195,"Delta":116264170},{"NoteNumber":77,"Velocity":33,"Duration":80867,"SoundDuration":80867,"Delta":116345365},{"NoteNumber":85,"Velocity":42,"Duration":80867,"SoundDuration":80867,"Delta":116345365},{"NoteNumber":73,"Velocity":33,"Duration":80867,"SoundDuration":80867,"Delta":116345365},{"NoteNumber":87,"Velocity":36,"Duration":80329,"SoundDuration":80329,"Delta":116426233},{"NoteNumber":80,"Velocity":28,"Duration":80329,"SoundDuration":80329,"Delta":116426233},{"NoteNumber":85,"Velocity":44,"Duration":79055,"SoundDuration":79055,"Delta":116506562},{"NoteNumber":77,"Velocity":35,"Duration":79055,"SoundDuration":79055,"Delta":116506562},{"NoteNumber":73,"Velocity":35,"Duration":79055,"SoundDuration":79055,"Delta":116506562},{"NoteNumber":87,"Velocity":37,"Duration":78951,"SoundDuration":78951,"Delta":116585617},{"NoteNumber":80,"Velocity":30,"Duration":78951,"SoundDuration":78951,"Delta":116585617},{"NoteNumber":85,"Velocity":44,"Duration":78641,"SoundDuration":78641,"Delta":116664569},{"NoteNumber":77,"Velocity":36,"Duration":78641,"SoundDuration":78641,"Delta":116664569},{"NoteNumber":73,"Velocity":36,"Duration":78641,"SoundDuration":78641,"Delta":116664569},{"NoteNumber":87,"Velocity":38,"Duration":78333,"SoundDuration":78333,"Delta":116743210},{"NoteNumber":80,"Velocity":32,"Duration":78333,"SoundDuration":78333,"Delta":116743210},{"NoteNumber":77,"Velocity":36,"Duration":78231,"SoundDuration":78231,"Delta":116821544},{"NoteNumber":85,"Velocity":45,"Duration":78231,"SoundDuration":78231,"Delta":116821544},{"NoteNumber":73,"Velocity":36,"Duration":78231,"SoundDuration":78231,"Delta":116821544},{"NoteNumber":87,"Velocity":40,"Duration":77825,"SoundDuration":77825,"Delta":116899775},{"NoteNumber":80,"Velocity":33,"Duration":77825,"SoundDuration":77825,"Delta":116899775},{"NoteNumber":77,"Velocity":38,"Duration":77624,"SoundDuration":77624,"Delta":116977600},{"NoteNumber":85,"Velocity":47,"Duration":77624,"SoundDuration":77624,"Delta":116977600},{"NoteNumber":73,"Velocity":38,"Duration":77624,"SoundDuration":77624,"Delta":116977600},{"NoteNumber":87,"Velocity":41,"Duration":77423,"SoundDuration":77423,"Delta":117055224},{"NoteNumber":80,"Velocity":34,"Duration":77423,"SoundDuration":77423,"Delta":117055224},{"NoteNumber":85,"Velocity":56,"Duration":77025,"SoundDuration":77025,"Delta":117132647},{"NoteNumber":77,"Velocity":40,"Duration":77025,"SoundDuration":77025,"Delta":117132647},{"NoteNumber":73,"Velocity":40,"Duration":77025,"SoundDuration":77025,"Delta":117132647},{"NoteNumber":87,"Velocity":42,"Duration":77025,"SoundDuration":77025,"Delta":117209673},{"NoteNumber":80,"Velocity":33,"Duration":77025,"SoundDuration":77025,"Delta":117209673},{"NoteNumber":77,"Velocity":39,"Duration":77125,"SoundDuration":77125,"Delta":117286699},{"NoteNumber":85,"Velocity":51,"Duration":77125,"SoundDuration":77125,"Delta":117286699},{"NoteNumber":73,"Velocity":39,"Duration":77125,"SoundDuration":77125,"Delta":117286699},{"NoteNumber":87,"Velocity":40,"Duration":77423,"SoundDuration":77423,"Delta":117363824},{"NoteNumber":80,"Velocity":31,"Duration":77423,"SoundDuration":77423,"Delta":117363824},{"NoteNumber":85,"Velocity":48,"Duration":77423,"SoundDuration":77423,"Delta":117441247},{"NoteNumber":77,"Velocity":37,"Duration":77423,"SoundDuration":77423,"Delta":117441247},{"NoteNumber":73,"Velocity":37,"Duration":77423,"SoundDuration":77423,"Delta":117441247},{"NoteNumber":87,"Velocity":39,"Duration":77624,"SoundDuration":77624,"Delta":117518671},{"NoteNumber":80,"Velocity":30,"Duration":77624,"SoundDuration":77624,"Delta":117518671},{"NoteNumber":85,"Velocity":45,"Duration":77825,"SoundDuration":77825,"Delta":117596295},{"NoteNumber":77,"Velocity":36,"Duration":77825,"SoundDuration":77825,"Delta":117596295},{"NoteNumber":73,"Velocity":36,"Duration":77825,"SoundDuration":77825,"Delta":117596295},{"NoteNumber":87,"Velocity":37,"Duration":77825,"SoundDuration":77825,"Delta":117674120},{"NoteNumber":80,"Velocity":29,"Duration":77825,"SoundDuration":77825,"Delta":117674120},{"NoteNumber":77,"Velocity":35,"Duration":78231,"SoundDuration":78231,"Delta":117751945},{"NoteNumber":85,"Velocity":44,"Duration":78231,"SoundDuration":78231,"Delta":117751945},{"NoteNumber":73,"Velocity":35,"Duration":78231,"SoundDuration":78231,"Delta":117751945},{"NoteNumber":87,"Velocity":36,"Duration":78641,"SoundDuration":78641,"Delta":117830176},{"NoteNumber":80,"Velocity":29,"Duration":78641,"SoundDuration":78641,"Delta":117830176},{"NoteNumber":77,"Velocity":33,"Duration":79160,"SoundDuration":79160,"Delta":117908817},{"NoteNumber":85,"Velocity":41,"Duration":79160,"SoundDuration":79160,"Delta":117908817},{"NoteNumber":73,"Velocity":33,"Duration":79160,"SoundDuration":79160,"Delta":117908817},{"NoteNumber":87,"Velocity":35,"Duration":79580,"SoundDuration":79580,"Delta":117987977},{"NoteNumber":80,"Velocity":29,"Duration":79580,"SoundDuration":79580,"Delta":117987977},{"NoteNumber":85,"Velocity":39,"Duration":80111,"SoundDuration":80111,"Delta":118067557},{"NoteNumber":77,"Velocity":32,"Duration":80111,"SoundDuration":80111,"Delta":118067557},{"NoteNumber":73,"Velocity":32,"Duration":80111,"SoundDuration":80111,"Delta":118067557},{"NoteNumber":87,"Velocity":33,"Duration":80541,"SoundDuration":80541,"Delta":118147669},{"NoteNumber":80,"Velocity":28,"Duration":80541,"SoundDuration":80541,"Delta":118147669},{"NoteNumber":77,"Velocity":31,"Duration":81085,"SoundDuration":81085,"Delta":118228211},{"NoteNumber":85,"Velocity":38,"Duration":81085,"SoundDuration":81085,"Delta":118228211},{"NoteNumber":73,"Velocity":31,"Duration":81085,"SoundDuration":81085,"Delta":118228211},{"NoteNumber":87,"Velocity":32,"Duration":81526,"SoundDuration":81526,"Delta":118309297},{"NoteNumber":80,"Velocity":26,"Duration":81526,"SoundDuration":81526,"Delta":118309297},{"NoteNumber":77,"Velocity":39,"Duration":82083,"SoundDuration":82083,"Delta":118390823},{"NoteNumber":85,"Velocity":39,"Duration":82083,"SoundDuration":82083,"Delta":118390823},{"NoteNumber":73,"Velocity":31,"Duration":41041,"SoundDuration":41041,"Delta":118390823},{"NoteNumber":80,"Velocity":31,"Duration":82083,"SoundDuration":82083,"Delta":118431865},{"NoteNumber":84,"Velocity":33,"Duration":82083,"SoundDuration":82083,"Delta":118472907},{"NoteNumber":87,"Velocity":42,"Duration":82083,"SoundDuration":82083,"Delta":118554991},{"NoteNumber":85,"Velocity":37,"Duration":89960,"SoundDuration":89960,"Delta":118637075},{"NoteNumber":89,"Velocity":47,"Duration":82083,"SoundDuration":82083,"Delta":118727035},{"NoteNumber":87,"Velocity":44,"Duration":82083,"SoundDuration":82083,"Delta":118809119},{"NoteNumber":85,"Velocity":41,"Duration":82083,"SoundDuration":82083,"Delta":118891203},{"NoteNumber":80,"Velocity":39,"Duration":86835,"SoundDuration":86835,"Delta":118973287},{"NoteNumber":77,"Velocity":44,"Duration":82862,"SoundDuration":82862,"Delta":119060123},{"NoteNumber":75,"Velocity":39,"Duration":82992,"SoundDuration":82992,"Delta":119142986},{"NoteNumber":73,"Velocity":39,"Duration":82550,"SoundDuration":82550,"Delta":119225978},{"NoteNumber":68,"Velocity":39,"Duration":82324,"SoundDuration":82324,"Delta":119308528},{"NoteNumber":65,"Velocity":42,"Duration":82083,"SoundDuration":82083,"Delta":119390853},{"NoteNumber":68,"Velocity":36,"Duration":81652,"SoundDuration":81652,"Delta":119472937},{"NoteNumber":73,"Velocity":39,"Duration":81430,"SoundDuration":81430,"Delta":119554589},{"NoteNumber":75,"Velocity":43,"Duration":81195,"SoundDuration":81195,"Delta":119636020},{"NoteNumber":77,"Velocity":46,"Duration":80772,"SoundDuration":80772,"Delta":119717215},{"NoteNumber":80,"Velocity":42,"Duration":80448,"SoundDuration":80448,"Delta":119797988},{"NoteNumber":85,"Velocity":44,"Duration":80125,"SoundDuration":80125,"Delta":119878436},{"NoteNumber":87,"Velocity":46,"Duration":79806,"SoundDuration":79806,"Delta":119958562},{"NoteNumber":89,"Velocity":52,"Duration":79474,"SoundDuration":79474,"Delta":120038368},{"NoteNumber":92,"Velocity":46,"Duration":79264,"SoundDuration":79264,"Delta":120117842},{"NoteNumber":97,"Velocity":53,"Duration":80083,"SoundDuration":80083,"Delta":120197107},{"NoteNumber":92,"Velocity":46,"Duration":80947,"SoundDuration":80947,"Delta":120277190},{"NoteNumber":99,"Velocity":59,"Duration":81942,"SoundDuration":81942,"Delta":120358138},{"NoteNumber":97,"Velocity":52,"Duration":90503,"SoundDuration":90503,"Delta":120440081},{"NoteNumber":101,"Velocity":59,"Duration":81987,"SoundDuration":81987,"Delta":120530584},{"NoteNumber":99,"Velocity":53,"Duration":80602,"SoundDuration":80602,"Delta":120612571},{"NoteNumber":97,"Velocity":59,"Duration":79488,"SoundDuration":79488,"Delta":120693173},{"NoteNumber":92,"Velocity":54,"Duration":79474,"SoundDuration":79474,"Delta":120772662},{"NoteNumber":89,"Velocity":59,"Duration":86335,"SoundDuration":86335,"Delta":120852136},{"NoteNumber":97,"Velocity":59,"Duration":78730,"SoundDuration":78730,"Delta":120938472},{"NoteNumber":92,"Velocity":65,"Duration":79250,"SoundDuration":79250,"Delta":121017203},{"NoteNumber":89,"Velocity":56,"Duration":79777,"SoundDuration":79777,"Delta":121096454},{"NoteNumber":87,"Velocity":56,"Duration":80405,"SoundDuration":80405,"Delta":121176232},{"NoteNumber":85,"Velocity":40,"Duration":87852,"SoundDuration":87852,"Delta":121256637},{"NoteNumber":89,"Velocity":58,"Duration":78875,"SoundDuration":78875,"Delta":121344489},{"NoteNumber":87,"Velocity":51,"Duration":79447,"SoundDuration":79447,"Delta":121423365},{"NoteNumber":85,"Velocity":50,"Duration":80298,"SoundDuration":80298,"Delta":121502813},{"NoteNumber":80,"Velocity":50,"Duration":81071,"SoundDuration":81071,"Delta":121583111},{"NoteNumber":77,"Velocity":62,"Duration":88894,"SoundDuration":88894,"Delta":121664182},{"NoteNumber":85,"Velocity":52,"Duration":79382,"SoundDuration":79382,"Delta":121753076},{"NoteNumber":80,"Velocity":59,"Duration":80283,"SoundDuration":80283,"Delta":121832459},{"NoteNumber":77,"Velocity":55,"Duration":81277,"SoundDuration":81277,"Delta":121912743},{"NoteNumber":75,"Velocity":63,"Duration":82392,"SoundDuration":82392,"Delta":121994020},{"NoteNumber":73,"Velocity":56,"Duration":86944,"SoundDuration":86944,"Delta":122076413},{"NoteNumber":77,"Velocity":57,"Duration":80097,"SoundDuration":80097,"Delta":122163358},{"NoteNumber":75,"Velocity":58,"Duration":80635,"SoundDuration":80635,"Delta":122243455},{"NoteNumber":73,"Velocity":69,"Duration":81276,"SoundDuration":81276,"Delta":122324091},{"NoteNumber":68,"Velocity":60,"Duration":81957,"SoundDuration":81957,"Delta":122405367},{"NoteNumber":65,"Velocity":63,"Duration":87350,"SoundDuration":87350,"Delta":122487324},{"NoteNumber":73,"Velocity":58,"Duration":89595,"SoundDuration":89595,"Delta":122574674},{"NoteNumber":68,"Velocity":69,"Duration":93212,"SoundDuration":93212,"Delta":122664270},{"NoteNumber":65,"Velocity":64,"Duration":97119,"SoundDuration":97119,"Delta":122757482},{"NoteNumber":63,"Velocity":66,"Duration":101087,"SoundDuration":101087,"Delta":122854601},{"NoteNumber":61,"Velocity":68,"Duration":121473,"SoundDuration":121473,"Delta":122955689},{"NoteNumber":65,"Velocity":70,"Duration":207122,"SoundDuration":207122,"Delta":123077162},{"NoteNumber":63,"Velocity":77,"Duration":252243,"SoundDuration":252243,"Delta":123284285},{"NoteNumber":61,"Velocity":82,"Duration":280607,"SoundDuration":280607,"Delta":123536528},{"NoteNumber":61,"Velocity":85,"Duration":2124172,"SoundDuration":2124172,"Delta":123859697},{"NoteNumber":37,"Velocity":59,"Duration":133547,"SoundDuration":133547,"Delta":125021287},{"NoteNumber":53,"Velocity":59,"Duration":133547,"SoundDuration":133547,"Delta":125021287},{"NoteNumber":44,"Velocity":59,"Duration":133547,"SoundDuration":133547,"Delta":125021287},{"NoteNumber":49,"Velocity":59,"Duration":133547,"SoundDuration":133547,"Delta":125021287},{"NoteNumber":56,"Velocity":70,"Duration":133547,"SoundDuration":133547,"Delta":125021287},{"NoteNumber":37,"Velocity":67,"Duration":784519,"SoundDuration":784519,"Delta":125199350},{"NoteNumber":56,"Velocity":79,"Duration":784519,"SoundDuration":784519,"Delta":125199350},{"NoteNumber":49,"Velocity":67,"Duration":784519,"SoundDuration":784519,"Delta":125199350},{"NoteNumber":53,"Velocity":67,"Duration":784519,"SoundDuration":784519,"Delta":125199350},{"NoteNumber":44,"Velocity":67,"Duration":784519,"SoundDuration":784519,"Delta":125199350},{"NoteNumber":61,"Velocity":73,"Duration":148942,"SoundDuration":148942,"Delta":125983869},{"NoteNumber":59,"Velocity":70,"Duration":132205,"SoundDuration":132205,"Delta":126132811},{"NoteNumber":61,"Velocity":68,"Duration":154463,"SoundDuration":154463,"Delta":126265016},{"NoteNumber":59,"Velocity":77,"Duration":2145711,"SoundDuration":2145711,"Delta":126419480},{"NoteNumber":54,"Velocity":70,"Duration":133547,"SoundDuration":133547,"Delta":127581070},{"NoteNumber":47,"Velocity":59,"Duration":133547,"SoundDuration":133547,"Delta":127581070},{"NoteNumber":42,"Velocity":59,"Duration":133547,"SoundDuration":133547,"Delta":127581070},{"NoteNumber":50,"Velocity":59,"Duration":133547,"SoundDuration":133547,"Delta":127581070},{"NoteNumber":38,"Velocity":59,"Duration":133547,"SoundDuration":133547,"Delta":127581070},{"NoteNumber":42,"Velocity":68,"Duration":639114,"SoundDuration":639114,"Delta":127759133},{"NoteNumber":47,"Velocity":68,"Duration":639114,"SoundDuration":639114,"Delta":127759133},{"NoteNumber":38,"Velocity":68,"Duration":639114,"SoundDuration":639114,"Delta":127759133},{"NoteNumber":54,"Velocity":80,"Duration":639114,"SoundDuration":639114,"Delta":127759133},{"NoteNumber":50,"Velocity":68,"Duration":639114,"SoundDuration":639114,"Delta":127759133},{"NoteNumber":61,"Velocity":64,"Duration":166944,"SoundDuration":166944,"Delta":128565192},{"NoteNumber":64,"Velocity":70,"Duration":152533,"SoundDuration":152533,"Delta":128732137},{"NoteNumber":62,"Velocity":66,"Duration":156333,"SoundDuration":156333,"Delta":128884670},{"NoteNumber":61,"Velocity":66,"Duration":175808,"SoundDuration":175808,"Delta":129041004},{"NoteNumber":61,"Velocity":74,"Duration":1972123,"SoundDuration":1972123,"Delta":129251974},{"NoteNumber":49,"Velocity":59,"Duration":138923,"SoundDuration":138923,"Delta":130196559},{"NoteNumber":44,"Velocity":59,"Duration":138923,"SoundDuration":138923,"Delta":130196559},{"NoteNumber":56,"Velocity":70,"Duration":138923,"SoundDuration":138923,"Delta":130196559},{"NoteNumber":37,"Velocity":59,"Duration":138923,"SoundDuration":138923,"Delta":130196559},{"NoteNumber":53,"Velocity":59,"Duration":138923,"SoundDuration":138923,"Delta":130196559},{"NoteNumber":49,"Velocity":67,"Duration":715307,"SoundDuration":715307,"Delta":130381790},{"NoteNumber":37,"Velocity":67,"Duration":715307,"SoundDuration":715307,"Delta":130381790},{"NoteNumber":44,"Velocity":67,"Duration":715307,"SoundDuration":715307,"Delta":130381790},{"NoteNumber":56,"Velocity":79,"Duration":715307,"SoundDuration":715307,"Delta":130381790},{"NoteNumber":53,"Velocity":67,"Duration":715307,"SoundDuration":715307,"Delta":130381790},{"NoteNumber":61,"Velocity":73,"Duration":450903,"SoundDuration":450903,"Delta":131097097},{"NoteNumber":59,"Velocity":70,"Duration":148280,"SoundDuration":148280,"Delta":131224098},{"NoteNumber":61,"Velocity":68,"Duration":175623,"SoundDuration":175623,"Delta":131372378},{"NoteNumber":59,"Velocity":77,"Duration":1984563,"SoundDuration":1984563,"Delta":131548001},{"NoteNumber":42,"Velocity":53,"Duration":145649,"SoundDuration":145649,"Delta":132561249},{"NoteNumber":50,"Velocity":53,"Duration":145649,"SoundDuration":145649,"Delta":132561249},{"NoteNumber":38,"Velocity":53,"Duration":145649,"SoundDuration":145649,"Delta":132561249},{"NoteNumber":47,"Velocity":53,"Duration":145649,"SoundDuration":145649,"Delta":132561249},{"NoteNumber":54,"Velocity":63,"Duration":145649,"SoundDuration":145649,"Delta":132561249},{"NoteNumber":54,"Velocity":71,"Duration":682749,"SoundDuration":682749,"Delta":132755449},{"NoteNumber":38,"Velocity":60,"Duration":682749,"SoundDuration":682749,"Delta":132755449},{"NoteNumber":47,"Velocity":60,"Duration":682749,"SoundDuration":682749,"Delta":132755449},{"NoteNumber":42,"Velocity":60,"Duration":682749,"SoundDuration":682749,"Delta":132755449},{"NoteNumber":50,"Velocity":60,"Duration":682749,"SoundDuration":682749,"Delta":132755449},{"NoteNumber":57,"Velocity":54,"Duration":142893,"SoundDuration":142893,"Delta":133536195},{"NoteNumber":56,"Velocity":62,"Duration":154130,"SoundDuration":154130,"Delta":133729180},{"NoteNumber":59,"Velocity":56,"Duration":183477,"SoundDuration":183477,"Delta":133883311},{"NoteNumber":57,"Velocity":56,"Duration":196102,"SoundDuration":196102,"Delta":134066788},{"NoteNumber":56,"Velocity":56,"Duration":226369,"SoundDuration":226369,"Delta":134262891},{"NoteNumber":56,"Velocity":65,"Duration":2863581,"SoundDuration":2863581,"Delta":134494781},{"NoteNumber":49,"Velocity":50,"Duration":149271,"SoundDuration":149271,"Delta":135719604},{"NoteNumber":44,"Velocity":50,"Duration":149271,"SoundDuration":149271,"Delta":135719604},{"NoteNumber":37,"Velocity":50,"Duration":149271,"SoundDuration":149271,"Delta":135719604},{"NoteNumber":53,"Velocity":59,"Duration":149271,"SoundDuration":149271,"Delta":135719604},{"NoteNumber":53,"Velocity":68,"Duration":878734,"SoundDuration":878734,"Delta":135898730},{"NoteNumber":37,"Velocity":57,"Duration":878734,"SoundDuration":878734,"Delta":135898730},{"NoteNumber":44,"Velocity":57,"Duration":878734,"SoundDuration":878734,"Delta":135898730},{"NoteNumber":49,"Velocity":57,"Duration":878734,"SoundDuration":878734,"Delta":135898730},{"NoteNumber":56,"Velocity":46,"Duration":215393,"SoundDuration":215393,"Delta":137146559},{"NoteNumber":56,"Velocity":54,"Duration":2399394,"SoundDuration":2399394,"Delta":137361952},{"NoteNumber":52,"Velocity":46,"Duration":179597,"SoundDuration":179597,"Delta":138596859},{"NoteNumber":40,"Velocity":39,"Duration":179597,"SoundDuration":179597,"Delta":138596859},{"NoteNumber":44,"Velocity":39,"Duration":179597,"SoundDuration":179597,"Delta":138596859},{"NoteNumber":49,"Velocity":39,"Duration":179597,"SoundDuration":179597,"Delta":138596859},{"NoteNumber":49,"Velocity":43,"Duration":823271,"SoundDuration":823271,"Delta":138836322},{"NoteNumber":44,"Velocity":43,"Duration":823271,"SoundDuration":823271,"Delta":138836322},{"NoteNumber":52,"Velocity":51,"Duration":823271,"SoundDuration":823271,"Delta":138836322},{"NoteNumber":40,"Velocity":43,"Duration":823271,"SoundDuration":823271,"Delta":138836322},{"NoteNumber":57,"Velocity":45,"Duration":155019,"SoundDuration":155019,"Delta":139765260},{"NoteNumber":56,"Velocity":44,"Duration":172473,"SoundDuration":172473,"Delta":139976333},{"NoteNumber":59,"Velocity":50,"Duration":224501,"SoundDuration":224501,"Delta":140148806},{"NoteNumber":57,"Velocity":44,"Duration":267176,"SoundDuration":267176,"Delta":140373308},{"NoteNumber":56,"Velocity":41,"Duration":330251,"SoundDuration":330251,"Delta":140640485},{"NoteNumber":56,"Velocity":56,"Duration":6393705,"SoundDuration":6393705,"Delta":140987248},{"NoteNumber":44,"Velocity":33,"Duration":249224,"SoundDuration":249224,"Delta":142455917},{"NoteNumber":51,"Velocity":40,"Duration":249224,"SoundDuration":249224,"Delta":142455917},{"NoteNumber":49,"Velocity":33,"Duration":249224,"SoundDuration":249224,"Delta":142455917},{"NoteNumber":49,"Velocity":39,"Duration":952683,"SoundDuration":952683,"Delta":142788216},{"NoteNumber":44,"Velocity":39,"Duration":952683,"SoundDuration":952683,"Delta":142788216},{"NoteNumber":51,"Velocity":46,"Duration":952683,"SoundDuration":952683,"Delta":142788216},{"NoteNumber":48,"Velocity":26,"Duration":895790,"SoundDuration":895790,"Delta":145589373},{"NoteNumber":54,"Velocity":30,"Duration":895790,"SoundDuration":895790,"Delta":145589373},{"NoteNumber":51,"Velocity":26,"Duration":895790,"SoundDuration":895790,"Delta":145589373},{"NoteNumber":44,"Velocity":26,"Duration":895790,"SoundDuration":895790,"Delta":145589373},{"NoteNumber":32,"Velocity":39,"Duration":618684,"SoundDuration":618684,"Delta":148936229},{"NoteNumber":33,"Velocity":42,"Duration":978473,"SoundDuration":978473,"Delta":149554913},{"NoteNumber":35,"Velocity":46,"Duration":326157,"SoundDuration":326157,"Delta":150533387},{"NoteNumber":37,"Velocity":55,"Duration":317527,"SoundDuration":317527,"Delta":150859544},{"NoteNumber":37,"Velocity":42,"Duration":88505,"SoundDuration":88505,"Delta":151900633},{"NoteNumber":61,"Velocity":32,"Duration":1066856,"SoundDuration":1066856,"Delta":151989139},{"NoteNumber":52,"Velocity":32,"Duration":1066856,"SoundDuration":1066856,"Delta":151989139},{"NoteNumber":64,"Velocity":40,"Duration":1066856,"SoundDuration":1066856,"Delta":151989139},{"NoteNumber":56,"Velocity":32,"Duration":1066856,"SoundDuration":1066856,"Delta":151989139},{"NoteNumber":49,"Velocity":52,"Duration":1295027,"SoundDuration":1295027,"Delta":151989139},{"NoteNumber":30,"Velocity":47,"Duration":475125,"SoundDuration":475125,"Delta":153055995},{"NoteNumber":48,"Velocity":43,"Duration":246954,"SoundDuration":246954,"Delta":153284166},{"NoteNumber":49,"Velocity":52,"Duration":255362,"SoundDuration":255362,"Delta":153531121},{"NoteNumber":51,"Velocity":55,"Duration":225597,"SoundDuration":225597,"Delta":153786483},{"NoteNumber":61,"Velocity":32,"Duration":1002268,"SoundDuration":1002268,"Delta":154012081},{"NoteNumber":66,"Velocity":32,"Duration":1002268,"SoundDuration":1002268,"Delta":154012081},{"NoteNumber":69,"Velocity":40,"Duration":1002268,"SoundDuration":1002268,"Delta":154012081},{"NoteNumber":57,"Velocity":32,"Duration":1002268,"SoundDuration":1002268,"Delta":154012081},{"NoteNumber":52,"Velocity":57,"Duration":251088,"SoundDuration":251088,"Delta":154012081},{"NoteNumber":45,"Velocity":48,"Duration":251087,"SoundDuration":251087,"Delta":154263169},{"NoteNumber":52,"Velocity":55,"Duration":251088,"SoundDuration":251088,"Delta":154514257},{"NoteNumber":51,"Velocity":43,"Duration":249004,"SoundDuration":249004,"Delta":154765345},{"NoteNumber":49,"Velocity":51,"Duration":219009,"SoundDuration":219009,"Delta":155014349},{"NoteNumber":37,"Velocity":43,"Duration":81539,"SoundDuration":81539,"Delta":155671379},{"NoteNumber":44,"Velocity":45,"Duration":81539,"SoundDuration":81539,"Delta":155752918},{"NoteNumber":49,"Velocity":46,"Duration":81539,"SoundDuration":81539,"Delta":155834458},{"NoteNumber":51,"Velocity":48,"Duration":81539,"SoundDuration":81539,"Delta":155915997},{"NoteNumber":61,"Velocity":32,"Duration":1038433,"SoundDuration":1038433,"Delta":155997537},{"NoteNumber":52,"Velocity":32,"Duration":1038433,"SoundDuration":1038433,"Delta":155997537},{"NoteNumber":64,"Velocity":40,"Duration":1038433,"SoundDuration":1038433,"Delta":155997537},{"NoteNumber":56,"Velocity":32,"Duration":1038433,"SoundDuration":1038433,"Delta":155997537},{"NoteNumber":49,"Velocity":56,"Duration":857142,"SoundDuration":857142,"Delta":155997537},{"NoteNumber":48,"Velocity":48,"Duration":181290,"SoundDuration":181290,"Delta":156854679},{"NoteNumber":49,"Velocity":56,"Duration":1835266,"SoundDuration":1835266,"Delta":157035970},{"NoteNumber":64,"Velocity":40,"Duration":1014284,"SoundDuration":1014284,"Delta":158041590},{"NoteNumber":56,"Velocity":32,"Duration":1014284,"SoundDuration":1014284,"Delta":158041590},{"NoteNumber":52,"Velocity":32,"Duration":1014284,"SoundDuration":1014284,"Delta":158041590},{"NoteNumber":61,"Velocity":32,"Duration":1014284,"SoundDuration":1014284,"Delta":158041590},{"NoteNumber":37,"Velocity":43,"Duration":553097,"SoundDuration":553097,"Delta":158041590},{"NoteNumber":51,"Velocity":49,"Duration":92319,"SoundDuration":92319,"Delta":158871236},{"NoteNumber":35,"Velocity":53,"Duration":375391,"SoundDuration":375391,"Delta":158963555},{"NoteNumber":52,"Velocity":57,"Duration":283072,"SoundDuration":283072,"Delta":159055874},{"NoteNumber":68,"Velocity":40,"Duration":1071619,"SoundDuration":1071619,"Delta":160188163},{"NoteNumber":59,"Velocity":32,"Duration":1071619,"SoundDuration":1071619,"Delta":160188163},{"NoteNumber":56,"Velocity":32,"Duration":1071619,"SoundDuration":1071619,"Delta":160188163},{"NoteNumber":64,"Velocity":32,"Duration":1071619,"SoundDuration":1071619,"Delta":160188163},{"NoteNumber":52,"Velocity":63,"Duration":1299791,"SoundDuration":1299791,"Delta":160188163},{"NoteNumber":35,"Velocity":48,"Duration":460729,"SoundDuration":460729,"Delta":161259783},{"NoteNumber":51,"Velocity":46,"Duration":232558,"SoundDuration":232558,"Delta":161487955},{"NoteNumber":52,"Velocity":56,"Duration":243902,"SoundDuration":243902,"Delta":161720513},{"NoteNumber":54,"Velocity":61,"Duration":205198,"SoundDuration":205198,"Delta":161964416},{"NoteNumber":57,"Velocity":32,"Duration":957665,"SoundDuration":957665,"Delta":162169614},{"NoteNumber":63,"Velocity":32,"Duration":957665,"SoundDuration":957665,"Delta":162169614},{"NoteNumber":59,"Velocity":32,"Duration":957665,"SoundDuration":957665,"Delta":162169614},{"NoteNumber":71,"Velocity":40,"Duration":957665,"SoundDuration":957665,"Delta":162169614},{"NoteNumber":56,"Velocity":66,"Duration":236220,"SoundDuration":236220,"Delta":162169614},{"NoteNumber":47,"Velocity":53,"Duration":236220,"SoundDuration":236220,"Delta":162405834},{"NoteNumber":56,"Velocity":60,"Duration":236220,"SoundDuration":236220,"Delta":162642055},{"NoteNumber":54,"Velocity":48,"Duration":249004,"SoundDuration":249004,"Delta":162878275},{"NoteNumber":52,"Velocity":61,"Duration":262054,"SoundDuration":262054,"Delta":163127279},{"NoteNumber":37,"Velocity":48,"Duration":80662,"SoundDuration":80662,"Delta":163913443},{"NoteNumber":47,"Velocity":49,"Duration":80662,"SoundDuration":80662,"Delta":163994105},{"NoteNumber":52,"Velocity":50,"Duration":80662,"SoundDuration":80662,"Delta":164074768},{"NoteNumber":54,"Velocity":51,"Duration":80662,"SoundDuration":80662,"Delta":164155430},{"NoteNumber":68,"Velocity":40,"Duration":1022569,"SoundDuration":1022569,"Delta":164236093},{"NoteNumber":56,"Velocity":32,"Duration":1022569,"SoundDuration":1022569,"Delta":164236093},{"NoteNumber":59,"Velocity":32,"Duration":1022569,"SoundDuration":1022569,"Delta":164236093},{"NoteNumber":64,"Velocity":32,"Duration":1022569,"SoundDuration":1022569,"Delta":164236093},{"NoteNumber":52,"Velocity":64,"Duration":841278,"SoundDuration":841278,"Delta":164236093},{"NoteNumber":51,"Velocity":51,"Duration":181290,"SoundDuration":181290,"Delta":165077372},{"NoteNumber":52,"Velocity":59,"Duration":252100,"SoundDuration":252100,"Delta":165258662},{"NoteNumber":60,"Velocity":44,"Duration":1112324,"SoundDuration":1112324,"Delta":166190938},{"NoteNumber":68,"Velocity":56,"Duration":1112324,"SoundDuration":1112324,"Delta":166190938},{"NoteNumber":64,"Velocity":56,"Duration":829646,"SoundDuration":829646,"Delta":166190938},{"NoteNumber":56,"Velocity":44,"Duration":1112324,"SoundDuration":1112324,"Delta":166190938},{"NoteNumber":54,"Velocity":44,"Duration":1112324,"SoundDuration":1112324,"Delta":166190938},{"NoteNumber":52,"Velocity":44,"Duration":829646,"SoundDuration":829646,"Delta":166190938},{"NoteNumber":44,"Velocity":48,"Duration":1112324,"SoundDuration":1112324,"Delta":166190938},{"NoteNumber":63,"Velocity":57,"Duration":171467,"SoundDuration":171467,"Delta":167020585},{"NoteNumber":51,"Velocity":45,"Duration":171467,"SoundDuration":171467,"Delta":167020585},{"NoteNumber":37,"Velocity":39,"Duration":55605,"SoundDuration":55605,"Delta":167192052},{"NoteNumber":49,"Velocity":41,"Duration":55604,"SoundDuration":55604,"Delta":167247657},{"NoteNumber":61,"Velocity":64,"Duration":543084,"SoundDuration":543084,"Delta":167303262},{"NoteNumber":64,"Velocity":60,"Duration":1066856,"SoundDuration":1066856,"Delta":168389431},{"NoteNumber":61,"Velocity":55,"Duration":1295027,"SoundDuration":1295027,"Delta":168389431},{"NoteNumber":68,"Velocity":66,"Duration":1066856,"SoundDuration":1066856,"Delta":168389431},{"NoteNumber":73,"Velocity":75,"Duration":1530728,"SoundDuration":1530728,"Delta":168389431},{"NoteNumber":49,"Velocity":57,"Duration":1295027,"SoundDuration":1295027,"Delta":168389431},{"NoteNumber":69,"Velocity":65,"Duration":463872,"SoundDuration":463872,"Delta":169456287},{"NoteNumber":66,"Velocity":58,"Duration":463872,"SoundDuration":463872,"Delta":169456287},{"NoteNumber":30,"Velocity":47,"Duration":463872,"SoundDuration":463872,"Delta":169456287},{"NoteNumber":60,"Velocity":67,"Duration":235700,"SoundDuration":235700,"Delta":169684459},{"NoteNumber":48,"Velocity":43,"Duration":235700,"SoundDuration":235700,"Delta":169684459},{"NoteNumber":61,"Velocity":69,"Duration":255362,"SoundDuration":255362,"Delta":169920160},{"NoteNumber":49,"Velocity":52,"Duration":255362,"SoundDuration":255362,"Delta":169920160},{"NoteNumber":63,"Velocity":72,"Duration":218531,"SoundDuration":218531,"Delta":170175522},{"NoteNumber":51,"Velocity":55,"Duration":218531,"SoundDuration":218531,"Delta":170175522},{"NoteNumber":64,"Velocity":74,"Duration":243348,"SoundDuration":243348,"Delta":170394054},{"NoteNumber":52,"Velocity":57,"Duration":243348,"SoundDuration":243348,"Delta":170394054},{"NoteNumber":57,"Velocity":65,"Duration":243348,"SoundDuration":243348,"Delta":170637402},{"NoteNumber":45,"Velocity":48,"Duration":243348,"SoundDuration":243348,"Delta":170637402},{"NoteNumber":64,"Velocity":74,"Duration":243348,"SoundDuration":243348,"Delta":170880751},{"NoteNumber":52,"Velocity":55,"Duration":243348,"SoundDuration":243348,"Delta":170880751},{"NoteNumber":63,"Velocity":66,"Duration":249004,"SoundDuration":249004,"Delta":171124099},{"NoteNumber":51,"Velocity":43,"Duration":249004,"SoundDuration":249004,"Delta":171124099},{"NoteNumber":61,"Velocity":78,"Duration":232594,"SoundDuration":232594,"Delta":171373103},{"NoteNumber":49,"Velocity":51,"Duration":232594,"SoundDuration":232594,"Delta":171373103},{"NoteNumber":61,"Velocity":63,"Duration":110881,"SoundDuration":110881,"Delta":172060054},{"NoteNumber":63,"Velocity":63,"Duration":110881,"SoundDuration":110881,"Delta":172170935},{"NoteNumber":73,"Velocity":70,"Duration":512908,"SoundDuration":512908,"Delta":172281816},{"NoteNumber":61,"Velocity":70,"Duration":769362,"SoundDuration":769362,"Delta":172281816},{"NoteNumber":64,"Velocity":56,"Duration":512908,"SoundDuration":512908,"Delta":172281816},{"NoteNumber":68,"Velocity":56,"Duration":512908,"SoundDuration":512908,"Delta":172281816},{"NoteNumber":49,"Velocity":56,"Duration":769362,"SoundDuration":769362,"Delta":172281816},{"NoteNumber":37,"Velocity":61,"Duration":512908,"SoundDuration":512908,"Delta":172281816},{"NoteNumber":60,"Velocity":72,"Duration":234411,"SoundDuration":234411,"Delta":173051178},{"NoteNumber":48,"Velocity":57,"Duration":234411,"SoundDuration":234411,"Delta":173051178},{"NoteNumber":61,"Velocity":78,"Duration":245942,"SoundDuration":245942,"Delta":173285590},{"NoteNumber":49,"Velocity":81,"Duration":245942,"SoundDuration":245942,"Delta":173285590},{"NoteNumber":67,"Velocity":62,"Duration":775716,"SoundDuration":775716,"Delta":174269358},{"NoteNumber":73,"Velocity":62,"Duration":775716,"SoundDuration":775716,"Delta":174269358},{"NoteNumber":64,"Velocity":62,"Duration":775716,"SoundDuration":775716,"Delta":174269358},{"NoteNumber":76,"Velocity":78,"Duration":775716,"SoundDuration":775716,"Delta":174269358},{"NoteNumber":55,"Velocity":52,"Duration":960173,"SoundDuration":960173,"Delta":174269358},{"NoteNumber":52,"Velocity":52,"Duration":960173,"SoundDuration":960173,"Delta":174269358},{"NoteNumber":61,"Velocity":66,"Duration":960173,"SoundDuration":960173,"Delta":174269358},{"NoteNumber":46,"Velocity":66,"Duration":465188,"SoundDuration":465188,"Delta":174269358},{"NoteNumber":45,"Velocity":77,"Duration":310528,"SoundDuration":310528,"Delta":174734546},{"NoteNumber":44,"Velocity":55,"Duration":430398,"SoundDuration":430398,"Delta":175045075},{"NoteNumber":52,"Velocity":55,"Duration":368912,"SoundDuration":368912,"Delta":175106560},{"NoteNumber":56,"Velocity":55,"Duration":307427,"SoundDuration":307427,"Delta":175168046},{"NoteNumber":80,"Velocity":85,"Duration":245942,"SoundDuration":245942,"Delta":175229531},{"NoteNumber":68,"Velocity":68,"Duration":245942,"SoundDuration":245942,"Delta":175229531},{"NoteNumber":73,"Velocity":68,"Duration":245942,"SoundDuration":245942,"Delta":175229531},{"NoteNumber":64,"Velocity":69,"Duration":245942,"SoundDuration":245942,"Delta":175229531},{"NoteNumber":32,"Velocity":77,"Duration":1360362,"SoundDuration":1360362,"Delta":176227646},{"NoteNumber":66,"Velocity":64,"Duration":888050,"SoundDuration":888050,"Delta":177038355},{"NoteNumber":72,"Velocity":67,"Duration":800821,"SoundDuration":800821,"Delta":177125584},{"NoteNumber":75,"Velocity":71,"Duration":713591,"SoundDuration":713591,"Delta":177212814},{"NoteNumber":81,"Velocity":86,"Duration":626362,"SoundDuration":626362,"Delta":177300043},{"NoteNumber":31,"Velocity":38,"Duration":118128,"SoundDuration":118128,"Delta":177574227},{"NoteNumber":32,"Velocity":39,"Duration":117298,"SoundDuration":117298,"Delta":177692356},{"NoteNumber":33,"Velocity":39,"Duration":116751,"SoundDuration":116751,"Delta":177809654},{"NoteNumber":36,"Velocity":42,"Duration":116028,"SoundDuration":116028,"Delta":177926405},{"NoteNumber":37,"Velocity":43,"Duration":115402,"SoundDuration":115402,"Delta":178042434},{"NoteNumber":39,"Velocity":45,"Duration":114609,"SoundDuration":114609,"Delta":178157836},{"NoteNumber":40,"Velocity":47,"Duration":114087,"SoundDuration":114087,"Delta":178272446},{"NoteNumber":42,"Velocity":49,"Duration":113397,"SoundDuration":113397,"Delta":178386533},{"NoteNumber":44,"Velocity":51,"Duration":131601,"SoundDuration":131601,"Delta":178499930},{"NoteNumber":47,"Velocity":53,"Duration":113291,"SoundDuration":113291,"Delta":178631532},{"NoteNumber":45,"Velocity":46,"Duration":110392,"SoundDuration":110392,"Delta":178744824},{"NoteNumber":44,"Velocity":43,"Duration":109585,"SoundDuration":109585,"Delta":178855216},{"NoteNumber":43,"Velocity":43,"Duration":108712,"SoundDuration":108712,"Delta":178964802},{"NoteNumber":44,"Velocity":45,"Duration":123083,"SoundDuration":123083,"Delta":179073514},{"NoteNumber":45,"Velocity":46,"Duration":104912,"SoundDuration":104912,"Delta":179196598},{"NoteNumber":48,"Velocity":47,"Duration":102970,"SoundDuration":102970,"Delta":179301511},{"NoteNumber":49,"Velocity":49,"Duration":101026,"SoundDuration":101026,"Delta":179404481},{"NoteNumber":51,"Velocity":50,"Duration":99025,"SoundDuration":99025,"Delta":179505508},{"NoteNumber":52,"Velocity":51,"Duration":97355,"SoundDuration":97355,"Delta":179604533},{"NoteNumber":54,"Velocity":52,"Duration":95555,"SoundDuration":95555,"Delta":179701889},{"NoteNumber":55,"Velocity":57,"Duration":98644,"SoundDuration":98644,"Delta":179797445},{"NoteNumber":56,"Velocity":62,"Duration":100684,"SoundDuration":100684,"Delta":179896089},{"NoteNumber":59,"Velocity":69,"Duration":100684,"SoundDuration":100684,"Delta":179996774},{"NoteNumber":57,"Velocity":58,"Duration":100684,"SoundDuration":100684,"Delta":180097458},{"NoteNumber":56,"Velocity":47,"Duration":94948,"SoundDuration":94948,"Delta":180198143},{"NoteNumber":57,"Velocity":48,"Duration":94948,"SoundDuration":94948,"Delta":180293092},{"NoteNumber":60,"Velocity":49,"Duration":94948,"SoundDuration":94948,"Delta":180388041},{"NoteNumber":61,"Velocity":50,"Duration":94948,"SoundDuration":94948,"Delta":180482989},{"NoteNumber":63,"Velocity":51,"Duration":94948,"SoundDuration":94948,"Delta":180577938},{"NoteNumber":64,"Velocity":52,"Duration":94948,"SoundDuration":94948,"Delta":180672887},{"NoteNumber":66,"Velocity":53,"Duration":94948,"SoundDuration":94948,"Delta":180767836},{"NoteNumber":67,"Velocity":71,"Duration":100013,"SoundDuration":100013,"Delta":180862784},{"NoteNumber":68,"Velocity":76,"Duration":100013,"SoundDuration":100013,"Delta":180962798},{"NoteNumber":71,"Velocity":80,"Duration":100013,"SoundDuration":100013,"Delta":181062811},{"NoteNumber":69,"Velocity":71,"Duration":100013,"SoundDuration":100013,"Delta":181162824},{"NoteNumber":68,"Velocity":64,"Duration":92603,"SoundDuration":92603,"Delta":181262838},{"NoteNumber":69,"Velocity":65,"Duration":92603,"SoundDuration":92603,"Delta":181355442},{"NoteNumber":72,"Velocity":67,"Duration":92604,"SoundDuration":92604,"Delta":181448046},{"NoteNumber":73,"Velocity":69,"Duration":92603,"SoundDuration":92603,"Delta":181540650},{"NoteNumber":75,"Velocity":70,"Duration":106494,"SoundDuration":106494,"Delta":181633254},{"NoteNumber":76,"Velocity":72,"Duration":104951,"SoundDuration":104951,"Delta":181739748},{"NoteNumber":78,"Velocity":74,"Duration":106494,"SoundDuration":106494,"Delta":181844700},{"NoteNumber":79,"Velocity":80,"Duration":109581,"SoundDuration":109581,"Delta":181949651},{"NoteNumber":80,"Velocity":83,"Duration":111125,"SoundDuration":111125,"Delta":182059233},{"NoteNumber":83,"Velocity":88,"Duration":112759,"SoundDuration":112759,"Delta":182170358},{"NoteNumber":81,"Velocity":82,"Duration":111543,"SoundDuration":111543,"Delta":182281484},{"NoteNumber":80,"Velocity":69,"Duration":83798,"SoundDuration":83798,"Delta":182393027},{"NoteNumber":81,"Velocity":61,"Duration":83426,"SoundDuration":83426,"Delta":182476826},{"NoteNumber":80,"Velocity":69,"Duration":83057,"SoundDuration":83057,"Delta":182560253},{"NoteNumber":81,"Velocity":63,"Duration":82781,"SoundDuration":82781,"Delta":182643310},{"NoteNumber":80,"Velocity":72,"Duration":82417,"SoundDuration":82417,"Delta":182726091},{"NoteNumber":81,"Velocity":64,"Duration":81967,"SoundDuration":81967,"Delta":182808509},{"NoteNumber":80,"Velocity":72,"Duration":81610,"SoundDuration":81610,"Delta":182890476},{"NoteNumber":81,"Velocity":65,"Duration":81345,"SoundDuration":81345,"Delta":182972087},{"NoteNumber":80,"Velocity":74,"Duration":80993,"SoundDuration":80993,"Delta":183053433},{"NoteNumber":81,"Velocity":66,"Duration":80645,"SoundDuration":80645,"Delta":183134427},{"NoteNumber":80,"Velocity":74,"Duration":80300,"SoundDuration":80300,"Delta":183215072},{"NoteNumber":81,"Velocity":67,"Duration":79957,"SoundDuration":79957,"Delta":183295372},{"NoteNumber":80,"Velocity":76,"Duration":79618,"SoundDuration":79618,"Delta":183375330},{"NoteNumber":81,"Velocity":68,"Duration":79365,"SoundDuration":79365,"Delta":183454948},{"NoteNumber":80,"Velocity":77,"Duration":78947,"SoundDuration":78947,"Delta":183534313},{"NoteNumber":81,"Velocity":69,"Duration":78616,"SoundDuration":78616,"Delta":183613261},{"NoteNumber":80,"Velocity":79,"Duration":78370,"SoundDuration":78370,"Delta":183691877},{"NoteNumber":81,"Velocity":70,"Duration":78044,"SoundDuration":78044,"Delta":183770248},{"NoteNumber":80,"Velocity":79,"Duration":77720,"SoundDuration":77720,"Delta":183848292},{"NoteNumber":81,"Velocity":70,"Duration":77319,"SoundDuration":77319,"Delta":183926012},{"NoteNumber":80,"Velocity":81,"Duration":77081,"SoundDuration":77081,"Delta":184003332},{"NoteNumber":81,"Velocity":72,"Duration":76766,"SoundDuration":76766,"Delta":184080413},{"NoteNumber":80,"Velocity":82,"Duration":76530,"SoundDuration":76530,"Delta":184157179},{"NoteNumber":81,"Velocity":73,"Duration":76142,"SoundDuration":76142,"Delta":184233710},{"NoteNumber":80,"Velocity":83,"Duration":75834,"SoundDuration":75834,"Delta":184309852},{"NoteNumber":81,"Velocity":74,"Duration":75529,"SoundDuration":75529,"Delta":184385687},{"NoteNumber":80,"Velocity":84,"Duration":75301,"SoundDuration":75301,"Delta":184461216},{"NoteNumber":81,"Velocity":76,"Duration":75000,"SoundDuration":75000,"Delta":184536517},{"NoteNumber":80,"Velocity":87,"Duration":74626,"SoundDuration":74626,"Delta":184611517},{"NoteNumber":81,"Velocity":76,"Duration":74405,"SoundDuration":74405,"Delta":184686144},{"NoteNumber":80,"Velocity":86,"Duration":74111,"SoundDuration":74111,"Delta":184760549},{"NoteNumber":81,"Velocity":77,"Duration":73819,"SoundDuration":73819,"Delta":184834661},{"NoteNumber":80,"Velocity":88,"Duration":73529,"SoundDuration":73529,"Delta":184908480},{"NoteNumber":81,"Velocity":78,"Duration":73242,"SoundDuration":73242,"Delta":184982009},{"NoteNumber":80,"Velocity":88,"Duration":73028,"SoundDuration":73028,"Delta":185055252},{"NoteNumber":81,"Velocity":79,"Duration":72815,"SoundDuration":72815,"Delta":185128280},{"NoteNumber":80,"Velocity":91,"Duration":72463,"SoundDuration":72463,"Delta":185201096},{"NoteNumber":81,"Velocity":81,"Duration":72254,"SoundDuration":72254,"Delta":185273559},{"NoteNumber":80,"Velocity":91,"Duration":72046,"SoundDuration":72046,"Delta":185345814},{"NoteNumber":81,"Velocity":81,"Duration":71567,"SoundDuration":71567,"Delta":185417861},{"NoteNumber":80,"Velocity":93,"Duration":70754,"SoundDuration":70754,"Delta":185489428},{"NoteNumber":81,"Velocity":82,"Duration":70754,"SoundDuration":70754,"Delta":185560183},{"NoteNumber":80,"Velocity":93,"Duration":70754,"SoundDuration":70754,"Delta":185630937},{"NoteNumber":81,"Velocity":83,"Duration":70821,"SoundDuration":70821,"Delta":185701692},{"NoteNumber":80,"Velocity":95,"Duration":71089,"SoundDuration":71089,"Delta":185772514},{"NoteNumber":81,"Velocity":85,"Duration":71089,"SoundDuration":71089,"Delta":185843604},{"NoteNumber":80,"Velocity":95,"Duration":71089,"SoundDuration":71089,"Delta":185914694},{"NoteNumber":81,"Velocity":85,"Duration":71308,"SoundDuration":71308,"Delta":185985784},{"NoteNumber":80,"Velocity":97,"Duration":71435,"SoundDuration":71435,"Delta":186057093},{"NoteNumber":81,"Velocity":86,"Duration":71572,"SoundDuration":71572,"Delta":186128528},{"NoteNumber":80,"Velocity":97,"Duration":71777,"SoundDuration":71777,"Delta":186200100},{"NoteNumber":81,"Velocity":87,"Duration":71944,"SoundDuration":71944,"Delta":186271877},{"NoteNumber":80,"Velocity":99,"Duration":72122,"SoundDuration":72122,"Delta":186343821},{"NoteNumber":81,"Velocity":88,"Duration":72313,"SoundDuration":72313,"Delta":186415944},{"NoteNumber":80,"Velocity":100,"Duration":72470,"SoundDuration":72470,"Delta":186488258},{"NoteNumber":81,"Velocity":90,"Duration":72693,"SoundDuration":72693,"Delta":186560729},{"NoteNumber":80,"Velocity":101,"Duration":72822,"SoundDuration":72822,"Delta":186633422},{"NoteNumber":81,"Velocity":88,"Duration":72964,"SoundDuration":72964,"Delta":186706245},{"NoteNumber":80,"Velocity":95,"Duration":73177,"SoundDuration":73177,"Delta":186779209},{"NoteNumber":81,"Velocity":82,"Duration":73351,"SoundDuration":73351,"Delta":186852387},{"NoteNumber":80,"Velocity":91,"Duration":73536,"SoundDuration":73536,"Delta":186925739},{"NoteNumber":81,"Velocity":80,"Duration":73735,"SoundDuration":73735,"Delta":186999275},{"NoteNumber":80,"Velocity":86,"Duration":73898,"SoundDuration":73898,"Delta":187073011},{"NoteNumber":81,"Velocity":75,"Duration":74364,"SoundDuration":74364,"Delta":187146910},{"NoteNumber":80,"Velocity":83,"Duration":75411,"SoundDuration":75411,"Delta":187221275},{"NoteNumber":81,"Velocity":71,"Duration":76461,"SoundDuration":76461,"Delta":187296686},{"NoteNumber":80,"Velocity":79,"Duration":77449,"SoundDuration":77449,"Delta":187373147},{"NoteNumber":81,"Velocity":68,"Duration":78660,"SoundDuration":78660,"Delta":187450596},{"NoteNumber":80,"Velocity":74,"Duration":79607,"SoundDuration":79607,"Delta":187529256},{"NoteNumber":81,"Velocity":64,"Duration":80946,"SoundDuration":80946,"Delta":187608864},{"NoteNumber":80,"Velocity":70,"Duration":81925,"SoundDuration":81925,"Delta":187689810},{"NoteNumber":81,"Velocity":61,"Duration":83298,"SoundDuration":83298,"Delta":187771735},{"NoteNumber":80,"Velocity":66,"Duration":84789,"SoundDuration":84789,"Delta":187855034},{"NoteNumber":81,"Velocity":57,"Duration":86520,"SoundDuration":86520,"Delta":187939823},{"NoteNumber":80,"Velocity":61,"Duration":88404,"SoundDuration":88404,"Delta":188026344},{"NoteNumber":81,"Velocity":53,"Duration":90505,"SoundDuration":90505,"Delta":188114749},{"NoteNumber":80,"Velocity":59,"Duration":92649,"SoundDuration":92649,"Delta":188205254},{"NoteNumber":81,"Velocity":50,"Duration":94752,"SoundDuration":94752,"Delta":188297903},{"NoteNumber":80,"Velocity":54,"Duration":97241,"SoundDuration":97241,"Delta":188392656},{"NoteNumber":81,"Velocity":46,"Duration":98664,"SoundDuration":98664,"Delta":188489897},{"NoteNumber":80,"Velocity":47,"Duration":202726,"SoundDuration":202726,"Delta":188588562},{"NoteNumber":81,"Velocity":45,"Duration":186481,"SoundDuration":186481,"Delta":188791289},{"NoteNumber":80,"Velocity":44,"Duration":187035,"SoundDuration":187035,"Delta":188997108},{"NoteNumber":79,"Velocity":42,"Duration":189962,"SoundDuration":189962,"Delta":189205750},{"NoteNumber":80,"Velocity":41,"Duration":194984,"SoundDuration":194984,"Delta":189415668},{"NoteNumber":81,"Velocity":39,"Duration":197736,"SoundDuration":197736,"Delta":189630932},{"NoteNumber":82,"Velocity":38,"Duration":200061,"SoundDuration":200061,"Delta":189849282},{"NoteNumber":83,"Velocity":37,"Duration":208094,"SoundDuration":208094,"Delta":190069788},{"NoteNumber":84,"Velocity":35,"Duration":227062,"SoundDuration":227062,"Delta":190300824},{"NoteNumber":85,"Velocity":48,"Duration":317527,"SoundDuration":317527,"Delta":190551861},{"NoteNumber":45,"Velocity":36,"Duration":635054,"SoundDuration":635054,"Delta":190551861},{"NoteNumber":69,"Velocity":33,"Duration":177011,"SoundDuration":177011,"Delta":191504443},{"NoteNumber":64,"Velocity":27,"Duration":177011,"SoundDuration":177011,"Delta":191504443},{"NoteNumber":61,"Velocity":27,"Duration":177011,"SoundDuration":177011,"Delta":191504443},{"NoteNumber":76,"Velocity":44,"Duration":592707,"SoundDuration":592707,"Delta":191592949},{"NoteNumber":81,"Velocity":46,"Duration":1285214,"SoundDuration":1285214,"Delta":191637202},{"NoteNumber":85,"Velocity":57,"Duration":1240961,"SoundDuration":1240961,"Delta":191681455},{"NoteNumber":64,"Velocity":33,"Duration":1008402,"SoundDuration":1008402,"Delta":191681455},{"NoteNumber":69,"Velocity":33,"Duration":1008402,"SoundDuration":1008402,"Delta":191681455},{"NoteNumber":73,"Velocity":39,"Duration":1008402,"SoundDuration":1008402,"Delta":191681455},{"NoteNumber":49,"Velocity":42,"Duration":482558,"SoundDuration":482558,"Delta":192689858},{"NoteNumber":80,"Velocity":40,"Duration":250000,"SoundDuration":250000,"Delta":192922416},{"NoteNumber":84,"Velocity":48,"Duration":250000,"SoundDuration":250000,"Delta":192922416},{"NoteNumber":85,"Velocity":51,"Duration":234375,"SoundDuration":234375,"Delta":193172416},{"NoteNumber":81,"Velocity":43,"Duration":234375,"SoundDuration":234375,"Delta":193172416},{"NoteNumber":87,"Velocity":53,"Duration":241935,"SoundDuration":241935,"Delta":193406791},{"NoteNumber":83,"Velocity":45,"Duration":241935,"SoundDuration":241935,"Delta":193406791},{"NoteNumber":69,"Velocity":33,"Duration":241935,"SoundDuration":241935,"Delta":193406791},{"NoteNumber":64,"Velocity":27,"Duration":241935,"SoundDuration":241935,"Delta":193406791},{"NoteNumber":61,"Velocity":27,"Duration":241935,"SoundDuration":241935,"Delta":193406791},{"NoteNumber":88,"Velocity":56,"Duration":229007,"SoundDuration":229007,"Delta":193648727},{"NoteNumber":85,"Velocity":47,"Duration":229007,"SoundDuration":229007,"Delta":193648727},{"NoteNumber":73,"Velocity":39,"Duration":936790,"SoundDuration":936790,"Delta":193648727},{"NoteNumber":69,"Velocity":33,"Duration":936790,"SoundDuration":936790,"Delta":193648727},{"NoteNumber":64,"Velocity":33,"Duration":936790,"SoundDuration":936790,"Delta":193648727},{"NoteNumber":76,"Velocity":42,"Duration":240000,"SoundDuration":240000,"Delta":193877735},{"NoteNumber":81,"Velocity":50,"Duration":240000,"SoundDuration":240000,"Delta":193877735},{"NoteNumber":87,"Velocity":55,"Duration":223880,"SoundDuration":223880,"Delta":194117735},{"NoteNumber":83,"Velocity":46,"Duration":223880,"SoundDuration":223880,"Delta":194117735},{"NoteNumber":85,"Velocity":49,"Duration":243902,"SoundDuration":243902,"Delta":194341615},{"NoteNumber":81,"Velocity":41,"Duration":243902,"SoundDuration":243902,"Delta":194341615},{"NoteNumber":80,"Velocity":45,"Duration":275229,"SoundDuration":275229,"Delta":194585518},{"NoteNumber":83,"Velocity":54,"Duration":275229,"SoundDuration":275229,"Delta":194585518},{"NoteNumber":40,"Velocity":42,"Duration":550458,"SoundDuration":550458,"Delta":194585518},{"NoteNumber":83,"Velocity":48,"Duration":88505,"SoundDuration":88505,"Delta":195411205},{"NoteNumber":64,"Velocity":27,"Duration":177011,"SoundDuration":177011,"Delta":195411205},{"NoteNumber":68,"Velocity":33,"Duration":177011,"SoundDuration":177011,"Delta":195411205},{"NoteNumber":59,"Velocity":27,"Duration":177011,"SoundDuration":177011,"Delta":195411205},{"NoteNumber":85,"Velocity":44,"Duration":88505,"SoundDuration":88505,"Delta":195499711},{"NoteNumber":80,"Velocity":48,"Duration":756302,"SoundDuration":756302,"Delta":195588217},{"NoteNumber":83,"Velocity":57,"Duration":756302,"SoundDuration":756302,"Delta":195588217},{"NoteNumber":71,"Velocity":39,"Duration":961809,"SoundDuration":961809,"Delta":195588217},{"NoteNumber":64,"Velocity":33,"Duration":961809,"SoundDuration":961809,"Delta":195588217},{"NoteNumber":68,"Velocity":33,"Duration":961809,"SoundDuration":961809,"Delta":195588217},{"NoteNumber":82,"Velocity":51,"Duration":205507,"SoundDuration":205507,"Delta":196344520},{"NoteNumber":79,"Velocity":46,"Duration":205507,"SoundDuration":205507,"Delta":196344520},{"NoteNumber":83,"Velocity":54,"Duration":317527,"SoundDuration":317527,"Delta":196550027},{"NoteNumber":80,"Velocity":45,"Duration":317527,"SoundDuration":317527,"Delta":196550027},{"NoteNumber":85,"Velocity":57,"Duration":1008402,"SoundDuration":1008402,"Delta":197679622},{"NoteNumber":80,"Velocity":48,"Duration":1008402,"SoundDuration":1008402,"Delta":197679622},{"NoteNumber":73,"Velocity":48,"Duration":1008402,"SoundDuration":1008402,"Delta":197679622},{"NoteNumber":53,"Velocity":39,"Duration":1008402,"SoundDuration":1008402,"Delta":197679622},{"NoteNumber":61,"Velocity":39,"Duration":1008402,"SoundDuration":1008402,"Delta":197679622},{"NoteNumber":68,"Velocity":52,"Duration":1008402,"SoundDuration":1008402,"Delta":197679622},{"NoteNumber":81,"Velocity":54,"Duration":270319,"SoundDuration":270319,"Delta":198688025},{"NoteNumber":78,"Velocity":45,"Duration":270319,"SoundDuration":270319,"Delta":198688025},{"NoteNumber":73,"Velocity":45,"Duration":270319,"SoundDuration":270319,"Delta":198688025},{"NoteNumber":42,"Velocity":42,"Duration":540638,"SoundDuration":540638,"Delta":198688025},{"NoteNumber":57,"Velocity":27,"Duration":177011,"SoundDuration":177011,"Delta":199498982},{"NoteNumber":66,"Velocity":33,"Duration":177011,"SoundDuration":177011,"Delta":199498982},{"NoteNumber":61,"Velocity":27,"Duration":177011,"SoundDuration":177011,"Delta":199498982},{"NoteNumber":81,"Velocity":57,"Duration":1240961,"SoundDuration":1240961,"Delta":199675994},{"NoteNumber":78,"Velocity":48,"Duration":1240961,"SoundDuration":1240961,"Delta":199675994},{"NoteNumber":73,"Velocity":48,"Duration":1240961,"SoundDuration":1240961,"Delta":199675994},{"NoteNumber":66,"Velocity":33,"Duration":1008402,"SoundDuration":1008402,"Delta":199675994},{"NoteNumber":69,"Velocity":39,"Duration":1008402,"SoundDuration":1008402,"Delta":199675994},{"NoteNumber":61,"Velocity":33,"Duration":1008402,"SoundDuration":1008402,"Delta":199675994},{"NoteNumber":45,"Velocity":42,"Duration":482558,"SoundDuration":482558,"Delta":200684397},{"NoteNumber":80,"Velocity":48,"Duration":250000,"SoundDuration":250000,"Delta":200916955},{"NoteNumber":77,"Velocity":40,"Duration":250000,"SoundDuration":250000,"Delta":200916955},{"NoteNumber":81,"Velocity":51,"Duration":234375,"SoundDuration":234375,"Delta":201166955},{"NoteNumber":78,"Velocity":43,"Duration":234375,"SoundDuration":234375,"Delta":201166955},{"NoteNumber":80,"Velocity":45,"Duration":241935,"SoundDuration":241935,"Delta":201401330},{"NoteNumber":83,"Velocity":53,"Duration":241935,"SoundDuration":241935,"Delta":201401330},{"NoteNumber":61,"Velocity":27,"Duration":241935,"SoundDuration":241935,"Delta":201401330},{"NoteNumber":66,"Velocity":33,"Duration":241935,"SoundDuration":241935,"Delta":201401330},{"NoteNumber":57,"Velocity":27,"Duration":241935,"SoundDuration":241935,"Delta":201401330},{"NoteNumber":85,"Velocity":56,"Duration":229007,"SoundDuration":229007,"Delta":201643265},{"NoteNumber":81,"Velocity":47,"Duration":229007,"SoundDuration":229007,"Delta":201643265},{"NoteNumber":61,"Velocity":33,"Duration":936790,"SoundDuration":936790,"Delta":201643265},{"NoteNumber":69,"Velocity":39,"Duration":936790,"SoundDuration":936790,"Delta":201643265},{"NoteNumber":66,"Velocity":33,"Duration":936790,"SoundDuration":936790,"Delta":201643265},{"NoteNumber":73,"Velocity":42,"Duration":240000,"SoundDuration":240000,"Delta":201872273},{"NoteNumber":78,"Velocity":50,"Duration":240000,"SoundDuration":240000,"Delta":201872273},{"NoteNumber":83,"Velocity":55,"Duration":223880,"SoundDuration":223880,"Delta":202112273},{"NoteNumber":80,"Velocity":46,"Duration":223880,"SoundDuration":223880,"Delta":202112273},{"NoteNumber":78,"Velocity":41,"Duration":243902,"SoundDuration":243902,"Delta":202336154},{"NoteNumber":81,"Velocity":49,"Duration":243902,"SoundDuration":243902,"Delta":202336154},{"NoteNumber":80,"Velocity":54,"Duration":275229,"SoundDuration":275229,"Delta":202580056},{"NoteNumber":76,"Velocity":45,"Duration":275229,"SoundDuration":275229,"Delta":202580056},{"NoteNumber":49,"Velocity":42,"Duration":550458,"SoundDuration":550458,"Delta":202580056},{"NoteNumber":80,"Velocity":48,"Duration":88505,"SoundDuration":88505,"Delta":203405744},{"NoteNumber":56,"Velocity":27,"Duration":177011,"SoundDuration":177011,"Delta":203405744},{"NoteNumber":64,"Velocity":33,"Duration":177011,"SoundDuration":177011,"Delta":203405744},{"NoteNumber":61,"Velocity":27,"Duration":177011,"SoundDuration":177011,"Delta":203405744},{"NoteNumber":81,"Velocity":48,"Duration":88505,"SoundDuration":88505,"Delta":203494250},{"NoteNumber":80,"Velocity":57,"Duration":756302,"SoundDuration":756302,"Delta":203582756},{"NoteNumber":76,"Velocity":48,"Duration":756302,"SoundDuration":756302,"Delta":203582756},{"NoteNumber":68,"Velocity":39,"Duration":1008402,"SoundDuration":1008402,"Delta":203582756},{"NoteNumber":64,"Velocity":33,"Duration":1008402,"SoundDuration":1008402,"Delta":203582756},{"NoteNumber":61,"Velocity":33,"Duration":1008402,"SoundDuration":1008402,"Delta":203582756},{"NoteNumber":75,"Velocity":46,"Duration":252100,"SoundDuration":252100,"Delta":204339058},{"NoteNumber":79,"Velocity":51,"Duration":252100,"SoundDuration":252100,"Delta":204339058},{"NoteNumber":80,"Velocity":54,"Duration":1043659,"SoundDuration":1043659,"Delta":204591159},{"NoteNumber":76,"Velocity":45,"Duration":1043659,"SoundDuration":1043659,"Delta":204591159},{"NoteNumber":37,"Velocity":39,"Duration":136388,"SoundDuration":136388,"Delta":206316761},{"NoteNumber":39,"Velocity":43,"Duration":132766,"SoundDuration":132766,"Delta":206453149},{"NoteNumber":40,"Velocity":47,"Duration":132766,"SoundDuration":132766,"Delta":206585916},{"NoteNumber":42,"Velocity":50,"Duration":560852,"SoundDuration":560852,"Delta":206718683},{"NoteNumber":69,"Velocity":48,"Duration":59003,"SoundDuration":59003,"Delta":207559962},{"NoteNumber":74,"Velocity":48,"Duration":59004,"SoundDuration":59004,"Delta":207618966},{"NoteNumber":80,"Velocity":48,"Duration":59003,"SoundDuration":59003,"Delta":207677970},{"NoteNumber":78,"Velocity":57,"Duration":756302,"SoundDuration":756302,"Delta":207736974},{"NoteNumber":74,"Velocity":48,"Duration":756302,"SoundDuration":756302,"Delta":207736974},{"NoteNumber":62,"Velocity":33,"Duration":1508486,"SoundDuration":1508486,"Delta":207736974},{"NoteNumber":54,"Velocity":33,"Duration":1508486,"SoundDuration":1508486,"Delta":207736974},{"NoteNumber":66,"Velocity":39,"Duration":1508486,"SoundDuration":1508486,"Delta":207736974},{"NoteNumber":57,"Velocity":33,"Duration":1508486,"SoundDuration":1508486,"Delta":207736974},{"NoteNumber":73,"Velocity":46,"Duration":252100,"SoundDuration":252100,"Delta":208493276},{"NoteNumber":77,"Velocity":51,"Duration":252100,"SoundDuration":252100,"Delta":208493276},{"NoteNumber":74,"Velocity":45,"Duration":500083,"SoundDuration":500083,"Delta":208745377},{"NoteNumber":78,"Velocity":54,"Duration":500083,"SoundDuration":500083,"Delta":208745377},{"NoteNumber":38,"Velocity":39,"Duration":136388,"SoundDuration":136388,"Delta":210382015},{"NoteNumber":40,"Velocity":43,"Duration":132766,"SoundDuration":132766,"Delta":210518404},{"NoteNumber":42,"Velocity":47,"Duration":132766,"SoundDuration":132766,"Delta":210651171},{"NoteNumber":44,"Velocity":50,"Duration":280426,"SoundDuration":280426,"Delta":210783938},{"NoteNumber":66,"Velocity":48,"Duration":59003,"SoundDuration":59003,"Delta":211625216},{"NoteNumber":69,"Velocity":48,"Duration":59004,"SoundDuration":59004,"Delta":211684220},{"NoteNumber":76,"Velocity":48,"Duration":59003,"SoundDuration":59003,"Delta":211743224},{"NoteNumber":69,"Velocity":48,"Duration":3400529,"SoundDuration":3400529,"Delta":211802228},{"NoteNumber":74,"Velocity":57,"Duration":756302,"SoundDuration":756302,"Delta":211802228},{"NoteNumber":66,"Velocity":48,"Duration":756302,"SoundDuration":756302,"Delta":211802228},{"NoteNumber":57,"Velocity":33,"Duration":1585436,"SoundDuration":1585436,"Delta":211802228},{"NoteNumber":62,"Velocity":39,"Duration":1585436,"SoundDuration":1585436,"Delta":211802228},{"NoteNumber":60,"Velocity":33,"Duration":1585436,"SoundDuration":1585436,"Delta":211802228},{"NoteNumber":54,"Velocity":33,"Duration":1585436,"SoundDuration":1585436,"Delta":211802228},{"NoteNumber":73,"Velocity":51,"Duration":252100,"SoundDuration":252100,"Delta":212558531},{"NoteNumber":65,"Velocity":46,"Duration":252100,"SoundDuration":252100,"Delta":212558531},{"NoteNumber":74,"Velocity":54,"Duration":2047615,"SoundDuration":2047615,"Delta":212810631},{"NoteNumber":66,"Velocity":45,"Duration":2047615,"SoundDuration":2047615,"Delta":212810631},{"NoteNumber":64,"Velocity":31,"Duration":258383,"SoundDuration":258383,"Delta":214858247},{"NoteNumber":73,"Velocity":37,"Duration":258383,"SoundDuration":258383,"Delta":214858247},{"NoteNumber":73,"Velocity":37,"Duration":631047,"SoundDuration":631047,"Delta":215202758},{"NoteNumber":64,"Velocity":31,"Duration":631047,"SoundDuration":631047,"Delta":215202758},{"NoteNumber":45,"Velocity":28,"Duration":631047,"SoundDuration":631047,"Delta":215202758},{"NoteNumber":64,"Velocity":35,"Duration":1261794,"SoundDuration":1261794,"Delta":216464853},{"NoteNumber":73,"Velocity":45,"Duration":1240961,"SoundDuration":1240961,"Delta":216464853},{"NoteNumber":69,"Velocity":36,"Duration":1240961,"SoundDuration":1240961,"Delta":216464853},{"NoteNumber":61,"Velocity":31,"Duration":1008402,"SoundDuration":1008402,"Delta":216464853},{"NoteNumber":52,"Velocity":26,"Duration":1008402,"SoundDuration":1008402,"Delta":216464853},{"NoteNumber":57,"Velocity":26,"Duration":1008402,"SoundDuration":1008402,"Delta":216464853},{"NoteNumber":49,"Velocity":37,"Duration":482558,"SoundDuration":482558,"Delta":217473256},{"NoteNumber":68,"Velocity":36,"Duration":250000,"SoundDuration":250000,"Delta":217705814},{"NoteNumber":72,"Velocity":43,"Duration":250000,"SoundDuration":250000,"Delta":217705814},{"NoteNumber":69,"Velocity":38,"Duration":234375,"SoundDuration":234375,"Delta":217955814},{"NoteNumber":73,"Velocity":45,"Duration":234375,"SoundDuration":234375,"Delta":217955814},{"NoteNumber":71,"Velocity":40,"Duration":241935,"SoundDuration":241935,"Delta":218190189},{"NoteNumber":75,"Velocity":47,"Duration":241935,"SoundDuration":241935,"Delta":218190189},{"NoteNumber":76,"Velocity":50,"Duration":229007,"SoundDuration":229007,"Delta":218432125},{"NoteNumber":73,"Velocity":42,"Duration":229007,"SoundDuration":229007,"Delta":218432125},{"NoteNumber":52,"Velocity":29,"Duration":936790,"SoundDuration":936790,"Delta":218432125},{"NoteNumber":57,"Velocity":29,"Duration":936790,"SoundDuration":936790,"Delta":218432125},{"NoteNumber":61,"Velocity":35,"Duration":936790,"SoundDuration":936790,"Delta":218432125},{"NoteNumber":69,"Velocity":45,"Duration":240000,"SoundDuration":240000,"Delta":218661132},{"NoteNumber":64,"Velocity":37,"Duration":240000,"SoundDuration":240000,"Delta":218661132},{"NoteNumber":71,"Velocity":41,"Duration":223880,"SoundDuration":223880,"Delta":218901132},{"NoteNumber":75,"Velocity":49,"Duration":223880,"SoundDuration":223880,"Delta":218901132},{"NoteNumber":69,"Velocity":36,"Duration":243902,"SoundDuration":243902,"Delta":219125013},{"NoteNumber":73,"Velocity":44,"Duration":243902,"SoundDuration":243902,"Delta":219125013},{"NoteNumber":71,"Velocity":48,"Duration":275229,"SoundDuration":275229,"Delta":219368915},{"NoteNumber":68,"Velocity":40,"Duration":275229,"SoundDuration":275229,"Delta":219368915},{"NoteNumber":40,"Velocity":37,"Duration":550458,"SoundDuration":550458,"Delta":219368915},{"NoteNumber":71,"Velocity":43,"Duration":88505,"SoundDuration":88505,"Delta":220194603},{"NoteNumber":73,"Velocity":39,"Duration":88505,"SoundDuration":88505,"Delta":220283109},{"NoteNumber":71,"Velocity":51,"Duration":756302,"SoundDuration":756302,"Delta":220371615},{"NoteNumber":68,"Velocity":43,"Duration":756302,"SoundDuration":756302,"Delta":220371615},{"NoteNumber":52,"Velocity":29,"Duration":961809,"SoundDuration":961809,"Delta":220371615},{"NoteNumber":56,"Velocity":29,"Duration":961809,"SoundDuration":961809,"Delta":220371615},{"NoteNumber":59,"Velocity":35,"Duration":961809,"SoundDuration":961809,"Delta":220371615},{"NoteNumber":70,"Velocity":45,"Duration":205507,"SoundDuration":205507,"Delta":221127917},{"NoteNumber":67,"Velocity":41,"Duration":205507,"SoundDuration":205507,"Delta":221127917},{"NoteNumber":68,"Velocity":40,"Duration":317527,"SoundDuration":317527,"Delta":221333425},{"NoteNumber":71,"Velocity":48,"Duration":317527,"SoundDuration":317527,"Delta":221333425},{"NoteNumber":73,"Velocity":51,"Duration":1008402,"SoundDuration":1008402,"Delta":222463019},{"NoteNumber":68,"Velocity":43,"Duration":1008402,"SoundDuration":1008402,"Delta":222463019},{"NoteNumber":61,"Velocity":43,"Duration":1008402,"SoundDuration":1008402,"Delta":222463019},{"NoteNumber":56,"Velocity":46,"Duration":1008402,"SoundDuration":1008402,"Delta":222463019},{"NoteNumber":49,"Velocity":35,"Duration":1008402,"SoundDuration":1008402,"Delta":222463019},{"NoteNumber":41,"Velocity":35,"Duration":1008402,"SoundDuration":1008402,"Delta":222463019},{"NoteNumber":69,"Velocity":48,"Duration":270319,"SoundDuration":270319,"Delta":223471422},{"NoteNumber":61,"Velocity":40,"Duration":270319,"SoundDuration":270319,"Delta":223471422},{"NoteNumber":66,"Velocity":40,"Duration":270319,"SoundDuration":270319,"Delta":223471422},{"NoteNumber":42,"Velocity":37,"Duration":270319,"SoundDuration":270319,"Delta":223471422},{"NoteNumber":66,"Velocity":43,"Duration":1240961,"SoundDuration":1240961,"Delta":224459391},{"NoteNumber":69,"Velocity":51,"Duration":1240961,"SoundDuration":1240961,"Delta":224459391},{"NoteNumber":61,"Velocity":43,"Duration":1240961,"SoundDuration":1240961,"Delta":224459391},{"NoteNumber":49,"Velocity":29,"Duration":1008402,"SoundDuration":1008402,"Delta":224459391},{"NoteNumber":54,"Velocity":29,"Duration":1008402,"SoundDuration":1008402,"Delta":224459391},{"NoteNumber":57,"Velocity":35,"Duration":1008402,"SoundDuration":1008402,"Delta":224459391},{"NoteNumber":45,"Velocity":37,"Duration":482558,"SoundDuration":482558,"Delta":225467794},{"NoteNumber":65,"Velocity":36,"Duration":250000,"SoundDuration":250000,"Delta":225700353},{"NoteNumber":68,"Velocity":43,"Duration":250000,"SoundDuration":250000,"Delta":225700353},{"NoteNumber":69,"Velocity":45,"Duration":234375,"SoundDuration":234375,"Delta":225950353},{"NoteNumber":66,"Velocity":38,"Duration":234375,"SoundDuration":234375,"Delta":225950353},{"NoteNumber":71,"Velocity":47,"Duration":135037,"SoundDuration":135037,"Delta":226184728},{"NoteNumber":68,"Velocity":40,"Duration":135037,"SoundDuration":135037,"Delta":226184728},{"NoteNumber":66,"Velocity":40,"Duration":73471,"SoundDuration":73471,"Delta":226319765},{"NoteNumber":69,"Velocity":40,"Duration":73471,"SoundDuration":73471,"Delta":226319765},{"NoteNumber":71,"Velocity":40,"Duration":73471,"SoundDuration":73471,"Delta":226393237},{"NoteNumber":68,"Velocity":40,"Duration":73471,"SoundDuration":73471,"Delta":226393237},{"NoteNumber":73,"Velocity":50,"Duration":229007,"SoundDuration":229007,"Delta":226466709},{"NoteNumber":69,"Velocity":42,"Duration":229007,"SoundDuration":229007,"Delta":226466709},{"NoteNumber":49,"Velocity":29,"Duration":936790,"SoundDuration":936790,"Delta":226466709},{"NoteNumber":54,"Velocity":29,"Duration":936790,"SoundDuration":936790,"Delta":226466709},{"NoteNumber":57,"Velocity":35,"Duration":936790,"SoundDuration":936790,"Delta":226466709},{"NoteNumber":66,"Velocity":45,"Duration":240000,"SoundDuration":240000,"Delta":226695717},{"NoteNumber":61,"Velocity":37,"Duration":240000,"SoundDuration":240000,"Delta":226695717},{"NoteNumber":71,"Velocity":49,"Duration":223880,"SoundDuration":223880,"Delta":226935717},{"NoteNumber":68,"Velocity":41,"Duration":223880,"SoundDuration":223880,"Delta":226935717},{"NoteNumber":69,"Velocity":44,"Duration":243902,"SoundDuration":243902,"Delta":227159597},{"NoteNumber":66,"Velocity":36,"Duration":243902,"SoundDuration":243902,"Delta":227159597},{"NoteNumber":64,"Velocity":40,"Duration":275229,"SoundDuration":275229,"Delta":227403500},{"NoteNumber":68,"Velocity":48,"Duration":275229,"SoundDuration":275229,"Delta":227403500},{"NoteNumber":37,"Velocity":37,"Duration":550458,"SoundDuration":550458,"Delta":227403500},{"NoteNumber":68,"Velocity":43,"Duration":88505,"SoundDuration":88505,"Delta":228229188},{"NoteNumber":69,"Velocity":43,"Duration":88505,"SoundDuration":88505,"Delta":228317694},{"NoteNumber":64,"Velocity":43,"Duration":756302,"SoundDuration":756302,"Delta":228406200},{"NoteNumber":68,"Velocity":51,"Duration":756302,"SoundDuration":756302,"Delta":228406200},{"NoteNumber":56,"Velocity":35,"Duration":1008402,"SoundDuration":1008402,"Delta":228406200},{"NoteNumber":52,"Velocity":29,"Duration":1008402,"SoundDuration":1008402,"Delta":228406200},{"NoteNumber":49,"Velocity":29,"Duration":1008402,"SoundDuration":1008402,"Delta":228406200},{"NoteNumber":63,"Velocity":41,"Duration":252100,"SoundDuration":252100,"Delta":229162502},{"NoteNumber":67,"Velocity":45,"Duration":252100,"SoundDuration":252100,"Delta":229162502},{"NoteNumber":68,"Velocity":48,"Duration":1043659,"SoundDuration":1043659,"Delta":229414603},{"NoteNumber":64,"Velocity":40,"Duration":1043659,"SoundDuration":1043659,"Delta":229414603},{"NoteNumber":37,"Velocity":35,"Duration":136388,"SoundDuration":136388,"Delta":231140204},{"NoteNumber":39,"Velocity":38,"Duration":132766,"SoundDuration":132766,"Delta":231276593},{"NoteNumber":40,"Velocity":42,"Duration":132766,"SoundDuration":132766,"Delta":231409360},{"NoteNumber":30,"Velocity":45,"Duration":560852,"SoundDuration":560852,"Delta":231542127},{"NoteNumber":57,"Velocity":43,"Duration":59003,"SoundDuration":59003,"Delta":232383405},{"NoteNumber":62,"Velocity":43,"Duration":59004,"SoundDuration":59004,"Delta":232442409},{"NoteNumber":68,"Velocity":43,"Duration":59003,"SoundDuration":59003,"Delta":232501413},{"NoteNumber":57,"Velocity":35,"Duration":1530232,"SoundDuration":1530232,"Delta":232560417},{"NoteNumber":66,"Velocity":51,"Duration":756302,"SoundDuration":756302,"Delta":232560417},{"NoteNumber":62,"Velocity":43,"Duration":756302,"SoundDuration":756302,"Delta":232560417},{"NoteNumber":54,"Velocity":35,"Duration":1530232,"SoundDuration":1530232,"Delta":232560417},{"NoteNumber":42,"Velocity":29,"Duration":1530232,"SoundDuration":1530232,"Delta":232560417},{"NoteNumber":50,"Velocity":29,"Duration":1530232,"SoundDuration":1530232,"Delta":232560417},{"NoteNumber":45,"Velocity":29,"Duration":1530232,"SoundDuration":1530232,"Delta":232560417},{"NoteNumber":61,"Velocity":41,"Duration":252100,"SoundDuration":252100,"Delta":233316720},{"NoteNumber":65,"Velocity":45,"Duration":252100,"SoundDuration":252100,"Delta":233316720},{"NoteNumber":62,"Velocity":40,"Duration":521829,"SoundDuration":521829,"Delta":233568820},{"NoteNumber":66,"Velocity":48,"Duration":521829,"SoundDuration":521829,"Delta":233568820},{"NoteNumber":38,"Velocity":35,"Duration":154511,"SoundDuration":154511,"Delta":235264768},{"NoteNumber":40,"Velocity":38,"Duration":146943,"SoundDuration":146943,"Delta":235419280},{"NoteNumber":42,"Velocity":42,"Duration":146943,"SoundDuration":146943,"Delta":235566223},{"NoteNumber":32,"Velocity":45,"Duration":521829,"SoundDuration":521829,"Delta":235713167},{"NoteNumber":54,"Velocity":38,"Duration":782745,"SoundDuration":782745,"Delta":236756827},{"NoteNumber":57,"Velocity":45,"Duration":782745,"SoundDuration":782745,"Delta":236756827},{"NoteNumber":42,"Velocity":26,"Duration":3130979,"SoundDuration":3130979,"Delta":236756827},{"NoteNumber":50,"Velocity":31,"Duration":3130979,"SoundDuration":3130979,"Delta":236756827},{"NoteNumber":48,"Velocity":26,"Duration":3130979,"SoundDuration":3130979,"Delta":236756827},{"NoteNumber":45,"Velocity":26,"Duration":3130979,"SoundDuration":3130979,"Delta":236756827},{"NoteNumber":56,"Velocity":40,"Duration":260914,"SoundDuration":260914,"Delta":237539572},{"NoteNumber":53,"Velocity":36,"Duration":260914,"SoundDuration":260914,"Delta":237539572},{"NoteNumber":54,"Velocity":36,"Duration":3130979,"SoundDuration":3130979,"Delta":237800487},{"NoteNumber":57,"Velocity":43,"Duration":3130979,"SoundDuration":3130979,"Delta":237800487},{"NoteNumber":54,"Velocity":32,"Duration":1249119,"SoundDuration":1249119,"Delta":240931467},{"NoteNumber":56,"Velocity":38,"Duration":1249119,"SoundDuration":1249119,"Delta":240931467},{"NoteNumber":48,"Velocity":32,"Duration":1249119,"SoundDuration":1249119,"Delta":240931467},{"NoteNumber":50,"Velocity":32,"Duration":1249119,"SoundDuration":1249119,"Delta":240931467},{"NoteNumber":32,"Velocity":30,"Duration":161151,"SoundDuration":161151,"Delta":241697131},{"NoteNumber":33,"Velocity":31,"Duration":161151,"SoundDuration":161151,"Delta":241858283},{"NoteNumber":36,"Velocity":33,"Duration":161151,"SoundDuration":161151,"Delta":242019435},{"NoteNumber":37,"Velocity":31,"Duration":1865035,"SoundDuration":1865035,"Delta":242180587},{"NoteNumber":49,"Velocity":32,"Duration":1177154,"SoundDuration":1177154,"Delta":243301244},{"NoteNumber":56,"Velocity":38,"Duration":1177154,"SoundDuration":1177154,"Delta":243301244},{"NoteNumber":53,"Velocity":32,"Duration":1177154,"SoundDuration":1177154,"Delta":243301244},{"NoteNumber":37,"Velocity":30,"Duration":144258,"SoundDuration":144258,"Delta":244045622},{"NoteNumber":35,"Velocity":31,"Duration":144258,"SoundDuration":144258,"Delta":244189881},{"NoteNumber":37,"Velocity":33,"Duration":144258,"SoundDuration":144258,"Delta":244334139},{"NoteNumber":35,"Velocity":31,"Duration":1399132,"SoundDuration":1399132,"Delta":244478398},{"NoteNumber":50,"Velocity":32,"Duration":1232602,"SoundDuration":1232602,"Delta":245632466},{"NoteNumber":56,"Velocity":38,"Duration":1232602,"SoundDuration":1232602,"Delta":245632466},{"NoteNumber":54,"Velocity":32,"Duration":1232602,"SoundDuration":1232602,"Delta":245632466},{"NoteNumber":37,"Velocity":31,"Duration":267523,"SoundDuration":267523,"Delta":245877530},{"NoteNumber":40,"Velocity":35,"Duration":232828,"SoundDuration":232828,"Delta":246145053},{"NoteNumber":38,"Velocity":33,"Duration":237134,"SoundDuration":237134,"Delta":246377882},{"NoteNumber":37,"Velocity":35,"Duration":234423,"SoundDuration":234423,"Delta":246615016},{"NoteNumber":37,"Velocity":31,"Duration":2083778,"SoundDuration":2083778,"Delta":246865068},{"NoteNumber":56,"Velocity":38,"Duration":1362432,"SoundDuration":1362432,"Delta":248115328},{"NoteNumber":49,"Velocity":32,"Duration":1362432,"SoundDuration":1362432,"Delta":248115328},{"NoteNumber":53,"Velocity":32,"Duration":1362432,"SoundDuration":1362432,"Delta":248115328},{"NoteNumber":37,"Velocity":30,"Duration":176304,"SoundDuration":176304,"Delta":248948847},{"NoteNumber":35,"Velocity":31,"Duration":176304,"SoundDuration":176304,"Delta":249125152},{"NoteNumber":37,"Velocity":31,"Duration":176304,"SoundDuration":176304,"Delta":249301456},{"NoteNumber":35,"Velocity":31,"Duration":1552965,"SoundDuration":1552965,"Delta":249477761},{"NoteNumber":50,"Velocity":32,"Duration":1554133,"SoundDuration":1554133,"Delta":250780976},{"NoteNumber":56,"Velocity":38,"Duration":1554133,"SoundDuration":1554133,"Delta":250780976},{"NoteNumber":54,"Velocity":32,"Duration":1554133,"SoundDuration":1554133,"Delta":250780976},{"NoteNumber":33,"Velocity":35,"Duration":249750,"SoundDuration":249750,"Delta":251030726},{"NoteNumber":32,"Velocity":30,"Duration":227066,"SoundDuration":227066,"Delta":251280476},{"NoteNumber":35,"Velocity":35,"Duration":227066,"SoundDuration":227066,"Delta":251507543},{"NoteNumber":33,"Velocity":31,"Duration":256147,"SoundDuration":256147,"Delta":251734609},{"NoteNumber":32,"Velocity":31,"Duration":301308,"SoundDuration":301308,"Delta":251990757},{"NoteNumber":32,"Velocity":31,"Duration":3034902,"SoundDuration":3034902,"Delta":252335109},{"NoteNumber":53,"Velocity":28,"Duration":1517451,"SoundDuration":1517451,"Delta":253852560},{"NoteNumber":49,"Velocity":28,"Duration":1517451,"SoundDuration":1517451,"Delta":253852560},{"NoteNumber":56,"Velocity":34,"Duration":1517451,"SoundDuration":1517451,"Delta":253852560},{"NoteNumber":32,"Velocity":39,"Duration":3796222,"SoundDuration":3796222,"Delta":255370011},{"NoteNumber":48,"Velocity":32,"Duration":2218934,"SoundDuration":2218934,"Delta":256947298},{"NoteNumber":54,"Velocity":32,"Duration":2218934,"SoundDuration":2218934,"Delta":256947298},{"NoteNumber":51,"Velocity":32,"Duration":2218934,"SoundDuration":2218934,"Delta":256947298},{"NoteNumber":56,"Velocity":38,"Duration":2218934,"SoundDuration":2218934,"Delta":256947298},{"NoteNumber":49,"Velocity":28,"Duration":5447943,"SoundDuration":5447943,"Delta":259166233},{"NoteNumber":44,"Velocity":28,"Duration":5447943,"SoundDuration":5447943,"Delta":259166233},{"NoteNumber":53,"Velocity":32,"Duration":5447943,"SoundDuration":5447943,"Delta":259166233},{"NoteNumber":56,"Velocity":38,"Duration":5447943,"SoundDuration":5447943,"Delta":259166233},{"NoteNumber":25,"Velocity":23,"Duration":5447943,"SoundDuration":5447943,"Delta":259166233},{"NoteNumber":37,"Velocity":27,"Duration":5447943,"SoundDuration":5447943,"Delta":259166233},{"NoteNumber":32,"Velocity":23,"Duration":5447943,"SoundDuration":5447943,"Delta":259166233},{"NoteNumber":73,"Velocity":39,"Duration":25027,"SoundDuration":25027,"Delta":265733131},{"NoteNumber":80,"Velocity":42,"Duration":25027,"SoundDuration":25027,"Delta":265758159},{"NoteNumber":85,"Velocity":45,"Duration":969043,"SoundDuration":969043,"Delta":265783186},{"NoteNumber":80,"Velocity":50,"Duration":384319,"SoundDuration":384319,"Delta":265808214},{"NoteNumber":73,"Velocity":44,"Duration":112705,"SoundDuration":112705,"Delta":266192533},{"NoteNumber":80,"Velocity":50,"Duration":395118,"SoundDuration":395118,"Delta":266305239},{"NoteNumber":81,"Velocity":46,"Duration":77808,"SoundDuration":77808,"Delta":266700357},{"NoteNumber":73,"Velocity":39,"Duration":25936,"SoundDuration":25936,"Delta":266778166},{"NoteNumber":80,"Velocity":42,"Duration":25936,"SoundDuration":25936,"Delta":266804102},{"NoteNumber":85,"Velocity":45,"Duration":963136,"SoundDuration":963136,"Delta":266830038},{"NoteNumber":80,"Velocity":50,"Duration":381065,"SoundDuration":381065,"Delta":266855975},{"NoteNumber":83,"Velocity":53,"Duration":115749,"SoundDuration":115749,"Delta":267237040},{"NoteNumber":81,"Velocity":51,"Duration":389306,"SoundDuration":389306,"Delta":267352790},{"NoteNumber":80,"Velocity":46,"Duration":76616,"SoundDuration":76616,"Delta":267742097},{"NoteNumber":73,"Velocity":39,"Duration":25027,"SoundDuration":25027,"Delta":267818713},{"NoteNumber":78,"Velocity":42,"Duration":25027,"SoundDuration":25027,"Delta":267843741},{"NoteNumber":85,"Velocity":45,"Duration":960900,"SoundDuration":960900,"Delta":267868768},{"NoteNumber":78,"Velocity":50,"Duration":381065,"SoundDuration":381065,"Delta":267893796},{"NoteNumber":73,"Velocity":44,"Duration":115304,"SoundDuration":115304,"Delta":268274861},{"NoteNumber":78,"Velocity":50,"Duration":387630,"SoundDuration":387630,"Delta":268390166},{"NoteNumber":80,"Velocity":46,"Duration":77808,"SoundDuration":77808,"Delta":268777796},{"NoteNumber":73,"Velocity":39,"Duration":25936,"SoundDuration":25936,"Delta":268855605},{"NoteNumber":81,"Velocity":42,"Duration":25936,"SoundDuration":25936,"Delta":268881541},{"NoteNumber":85,"Velocity":45,"Duration":405395,"SoundDuration":405395,"Delta":268907477},{"NoteNumber":81,"Velocity":50,"Duration":379458,"SoundDuration":379458,"Delta":268933414},{"NoteNumber":85,"Velocity":54,"Duration":578629,"SoundDuration":578629,"Delta":269312873},{"NoteNumber":83,"Velocity":50,"Duration":389306,"SoundDuration":389306,"Delta":269425578},{"NoteNumber":81,"Velocity":46,"Duration":76616,"SoundDuration":76616,"Delta":269814885},{"NoteNumber":73,"Velocity":39,"Duration":25027,"SoundDuration":25027,"Delta":269891502},{"NoteNumber":80,"Velocity":42,"Duration":25027,"SoundDuration":25027,"Delta":269916529},{"NoteNumber":85,"Velocity":45,"Duration":969043,"SoundDuration":969043,"Delta":269941557},{"NoteNumber":80,"Velocity":50,"Duration":384319,"SoundDuration":384319,"Delta":269966585},{"NoteNumber":73,"Velocity":44,"Duration":112705,"SoundDuration":112705,"Delta":270350904},{"NoteNumber":80,"Velocity":50,"Duration":395118,"SoundDuration":395118,"Delta":270463610},{"NoteNumber":81,"Velocity":46,"Duration":77808,"SoundDuration":77808,"Delta":270858728},{"NoteNumber":73,"Velocity":39,"Duration":25936,"SoundDuration":25936,"Delta":270936537},{"NoteNumber":80,"Velocity":42,"Duration":25936,"SoundDuration":25936,"Delta":270962473},{"NoteNumber":85,"Velocity":45,"Duration":963136,"SoundDuration":963136,"Delta":270988409},{"NoteNumber":80,"Velocity":50,"Duration":381065,"SoundDuration":381065,"Delta":271014346},{"NoteNumber":83,"Velocity":53,"Duration":115749,"SoundDuration":115749,"Delta":271395411},{"NoteNumber":81,"Velocity":51,"Duration":389306,"SoundDuration":389306,"Delta":271511161},{"NoteNumber":80,"Velocity":46,"Duration":76616,"SoundDuration":76616,"Delta":271900468},{"NoteNumber":73,"Velocity":39,"Duration":25027,"SoundDuration":25027,"Delta":271977084},{"NoteNumber":78,"Velocity":42,"Duration":25027,"SoundDuration":25027,"Delta":272002112},{"NoteNumber":85,"Velocity":45,"Duration":960900,"SoundDuration":960900,"Delta":272027139},{"NoteNumber":78,"Velocity":50,"Duration":381065,"SoundDuration":381065,"Delta":272052167},{"NoteNumber":73,"Velocity":44,"Duration":115304,"SoundDuration":115304,"Delta":272433232},{"NoteNumber":78,"Velocity":50,"Duration":387630,"SoundDuration":387630,"Delta":272548537},{"NoteNumber":80,"Velocity":46,"Duration":77808,"SoundDuration":77808,"Delta":272936167},{"NoteNumber":73,"Velocity":39,"Duration":25936,"SoundDuration":25936,"Delta":273013976},{"NoteNumber":78,"Velocity":42,"Duration":25936,"SoundDuration":25936,"Delta":273039912},{"NoteNumber":85,"Velocity":45,"Duration":958485,"SoundDuration":958485,"Delta":273065848},{"NoteNumber":78,"Velocity":50,"Duration":379458,"SoundDuration":379458,"Delta":273091785},{"NoteNumber":73,"Velocity":54,"Duration":112705,"SoundDuration":112705,"Delta":273471243},{"NoteNumber":81,"Velocity":50,"Duration":389306,"SoundDuration":389306,"Delta":273583949},{"NoteNumber":73,"Velocity":46,"Duration":76616,"SoundDuration":76616,"Delta":273973256},{"NoteNumber":73,"Velocity":39,"Duration":25027,"SoundDuration":25027,"Delta":274049873},{"NoteNumber":80,"Velocity":42,"Duration":25027,"SoundDuration":25027,"Delta":274074900},{"NoteNumber":85,"Velocity":45,"Duration":954105,"SoundDuration":954105,"Delta":274099928},{"NoteNumber":80,"Velocity":50,"Duration":376569,"SoundDuration":376569,"Delta":274124955},{"NoteNumber":73,"Velocity":44,"Duration":112705,"SoundDuration":112705,"Delta":274501524},{"NoteNumber":68,"Velocity":29,"Duration":56352,"SoundDuration":56352,"Delta":274501524},{"NoteNumber":77,"Velocity":29,"Duration":56352,"SoundDuration":56352,"Delta":274557877},{"NoteNumber":80,"Velocity":50,"Duration":387930,"SoundDuration":387930,"Delta":274614230},{"NoteNumber":68,"Velocity":38,"Duration":465739,"SoundDuration":465739,"Delta":274614230},{"NoteNumber":81,"Velocity":46,"Duration":77808,"SoundDuration":77808,"Delta":275002161},{"NoteNumber":73,"Velocity":39,"Duration":25936,"SoundDuration":25936,"Delta":275079970},{"NoteNumber":80,"Velocity":42,"Duration":25936,"SoundDuration":25936,"Delta":275105906},{"NoteNumber":85,"Velocity":45,"Duration":945954,"SoundDuration":945954,"Delta":275131842},{"NoteNumber":80,"Velocity":50,"Duration":373443,"SoundDuration":373443,"Delta":275157779},{"NoteNumber":83,"Velocity":53,"Duration":115749,"SoundDuration":115749,"Delta":275531222},{"NoteNumber":92,"Velocity":36,"Duration":57874,"SoundDuration":57874,"Delta":275531222},{"NoteNumber":97,"Velocity":33,"Duration":57874,"SoundDuration":57874,"Delta":275589097},{"NoteNumber":81,"Velocity":51,"Duration":379746,"SoundDuration":379746,"Delta":275646972},{"NoteNumber":92,"Velocity":45,"Duration":456363,"SoundDuration":456363,"Delta":275646972},{"NoteNumber":80,"Velocity":46,"Duration":76616,"SoundDuration":76616,"Delta":276026719},{"NoteNumber":73,"Velocity":39,"Duration":25027,"SoundDuration":25027,"Delta":276103335},{"NoteNumber":78,"Velocity":42,"Duration":25027,"SoundDuration":25027,"Delta":276128363},{"NoteNumber":85,"Velocity":45,"Duration":971331,"SoundDuration":971331,"Delta":276153390},{"NoteNumber":78,"Velocity":50,"Duration":373443,"SoundDuration":373443,"Delta":276178418},{"NoteNumber":73,"Velocity":44,"Duration":115304,"SoundDuration":115304,"Delta":276551862},{"NoteNumber":61,"Velocity":29,"Duration":57652,"SoundDuration":57652,"Delta":276551862},{"NoteNumber":69,"Velocity":29,"Duration":57652,"SoundDuration":57652,"Delta":276609514},{"NoteNumber":78,"Velocity":50,"Duration":379746,"SoundDuration":379746,"Delta":276667167},{"NoteNumber":61,"Velocity":38,"Duration":457555,"SoundDuration":457555,"Delta":276667167},{"NoteNumber":80,"Velocity":46,"Duration":77808,"SoundDuration":77808,"Delta":277046913},{"NoteNumber":73,"Velocity":39,"Duration":25936,"SoundDuration":25936,"Delta":277124722},{"NoteNumber":81,"Velocity":42,"Duration":25936,"SoundDuration":25936,"Delta":277150658},{"NoteNumber":85,"Velocity":45,"Duration":397837,"SoundDuration":397837,"Delta":277176595},{"NoteNumber":81,"Velocity":50,"Duration":371900,"SoundDuration":371900,"Delta":277202531},{"NoteNumber":85,"Velocity":54,"Duration":567473,"SoundDuration":567473,"Delta":277574432},{"NoteNumber":90,"Velocity":36,"Duration":56352,"SoundDuration":56352,"Delta":277574432},{"NoteNumber":97,"Velocity":36,"Duration":56352,"SoundDuration":56352,"Delta":277630785},{"NoteNumber":83,"Velocity":50,"Duration":378151,"SoundDuration":378151,"Delta":277687138},{"NoteNumber":90,"Velocity":45,"Duration":454768,"SoundDuration":454768,"Delta":277687138},{"NoteNumber":81,"Velocity":46,"Duration":76616,"SoundDuration":76616,"Delta":278065289},{"NoteNumber":73,"Velocity":39,"Duration":25027,"SoundDuration":25027,"Delta":278141906},{"NoteNumber":80,"Velocity":42,"Duration":25027,"SoundDuration":25027,"Delta":278166933},{"NoteNumber":85,"Velocity":45,"Duration":944723,"SoundDuration":944723,"Delta":278191961},{"NoteNumber":80,"Velocity":50,"Duration":368852,"SoundDuration":368852,"Delta":278216989},{"NoteNumber":73,"Velocity":44,"Duration":112705,"SoundDuration":112705,"Delta":278585841},{"NoteNumber":68,"Velocity":29,"Duration":56352,"SoundDuration":56352,"Delta":278585841},{"NoteNumber":77,"Velocity":29,"Duration":56352,"SoundDuration":56352,"Delta":278642194},{"NoteNumber":80,"Velocity":50,"Duration":386265,"SoundDuration":386265,"Delta":278698547},{"NoteNumber":68,"Velocity":38,"Duration":464074,"SoundDuration":464074,"Delta":278698547},{"NoteNumber":81,"Velocity":46,"Duration":77808,"SoundDuration":77808,"Delta":279084812},{"NoteNumber":73,"Velocity":39,"Duration":25936,"SoundDuration":25936,"Delta":279162621},{"NoteNumber":80,"Velocity":42,"Duration":25936,"SoundDuration":25936,"Delta":279188557},{"NoteNumber":85,"Velocity":45,"Duration":949186,"SoundDuration":949186,"Delta":279214494},{"NoteNumber":80,"Velocity":50,"Duration":373443,"SoundDuration":373443,"Delta":279240430},{"NoteNumber":83,"Velocity":53,"Duration":115749,"SoundDuration":115749,"Delta":279613874},{"NoteNumber":92,"Velocity":36,"Duration":57874,"SoundDuration":57874,"Delta":279613874},{"NoteNumber":97,"Velocity":33,"Duration":57874,"SoundDuration":57874,"Delta":279671749},{"NoteNumber":81,"Velocity":51,"Duration":382978,"SoundDuration":382978,"Delta":279729624},{"NoteNumber":92,"Velocity":45,"Duration":459595,"SoundDuration":459595,"Delta":279729624},{"NoteNumber":80,"Velocity":46,"Duration":76616,"SoundDuration":76616,"Delta":280112602},{"NoteNumber":73,"Velocity":39,"Duration":25027,"SoundDuration":25027,"Delta":280189219},{"NoteNumber":78,"Velocity":42,"Duration":25027,"SoundDuration":25027,"Delta":280214246},{"NoteNumber":85,"Velocity":45,"Duration":945462,"SoundDuration":945462,"Delta":280239274},{"NoteNumber":78,"Velocity":50,"Duration":371900,"SoundDuration":371900,"Delta":280264301},{"NoteNumber":73,"Velocity":44,"Duration":115304,"SoundDuration":115304,"Delta":280636202},{"NoteNumber":61,"Velocity":29,"Duration":57652,"SoundDuration":57652,"Delta":280636202},{"NoteNumber":69,"Velocity":29,"Duration":57652,"SoundDuration":57652,"Delta":280693855},{"NoteNumber":78,"Velocity":50,"Duration":381356,"SoundDuration":381356,"Delta":280751507},{"NoteNumber":61,"Velocity":38,"Duration":459165,"SoundDuration":459165,"Delta":280751507},{"NoteNumber":80,"Velocity":46,"Duration":77808,"SoundDuration":77808,"Delta":281132863},{"NoteNumber":73,"Velocity":39,"Duration":25936,"SoundDuration":25936,"Delta":281210672},{"NoteNumber":78,"Velocity":42,"Duration":25936,"SoundDuration":25936,"Delta":281236608},{"NoteNumber":85,"Velocity":45,"Duration":940712,"SoundDuration":940712,"Delta":281262545},{"NoteNumber":78,"Velocity":50,"Duration":371900,"SoundDuration":371900,"Delta":281288481},{"NoteNumber":73,"Velocity":54,"Duration":112705,"SoundDuration":112705,"Delta":281660382},{"NoteNumber":90,"Velocity":36,"Duration":56352,"SoundDuration":56352,"Delta":281660382},{"NoteNumber":97,"Velocity":36,"Duration":56352,"SoundDuration":56352,"Delta":281716735},{"NoteNumber":81,"Velocity":50,"Duration":389306,"SoundDuration":389306,"Delta":281773088},{"NoteNumber":90,"Velocity":45,"Duration":430169,"SoundDuration":430169,"Delta":281773088},{"NoteNumber":73,"Velocity":46,"Duration":40862,"SoundDuration":40862,"Delta":282162395},{"NoteNumber":80,"Velocity":42,"Duration":37541,"SoundDuration":37541,"Delta":282238296},{"NoteNumber":85,"Velocity":45,"Duration":32394,"SoundDuration":32394,"Delta":282275837},{"NoteNumber":80,"Velocity":50,"Duration":360975,"SoundDuration":360975,"Delta":282308231},{"NoteNumber":73,"Velocity":44,"Duration":112705,"SoundDuration":112705,"Delta":282669207},{"NoteNumber":68,"Velocity":29,"Duration":56352,"SoundDuration":56352,"Delta":282669207},{"NoteNumber":77,"Velocity":29,"Duration":56352,"SoundDuration":56352,"Delta":282725559},{"NoteNumber":85,"Velocity":50,"Duration":377874,"SoundDuration":377874,"Delta":282781912},{"NoteNumber":68,"Velocity":38,"Duration":455683,"SoundDuration":455683,"Delta":282781912},{"NoteNumber":73,"Velocity":46,"Duration":77808,"SoundDuration":77808,"Delta":283159787},{"NoteNumber":80,"Velocity":42,"Duration":37541,"SoundDuration":37541,"Delta":283237596},{"NoteNumber":85,"Velocity":45,"Duration":32394,"SoundDuration":32394,"Delta":283275137},{"NoteNumber":80,"Velocity":50,"Duration":362330,"SoundDuration":362330,"Delta":283307531},{"NoteNumber":73,"Velocity":44,"Duration":112705,"SoundDuration":112705,"Delta":283669862},{"NoteNumber":92,"Velocity":36,"Duration":56352,"SoundDuration":56352,"Delta":283669862},{"NoteNumber":97,"Velocity":36,"Duration":56352,"SoundDuration":56352,"Delta":283726215},{"NoteNumber":85,"Velocity":50,"Duration":377874,"SoundDuration":377874,"Delta":283782567},{"NoteNumber":92,"Velocity":45,"Duration":377874,"SoundDuration":377874,"Delta":283782567},{"NoteNumber":73,"Velocity":46,"Duration":77808,"SoundDuration":77808,"Delta":284160442},{"NoteNumber":78,"Velocity":42,"Duration":38904,"SoundDuration":38904,"Delta":284238251},{"NoteNumber":85,"Velocity":45,"Duration":38904,"SoundDuration":38904,"Delta":284277155},{"NoteNumber":78,"Velocity":50,"Duration":362085,"SoundDuration":362085,"Delta":284316060},{"NoteNumber":73,"Velocity":44,"Duration":117139,"SoundDuration":117139,"Delta":284678145},{"NoteNumber":61,"Velocity":29,"Duration":56352,"SoundDuration":56352,"Delta":284678145},{"NoteNumber":69,"Velocity":29,"Duration":60786,"SoundDuration":60786,"Delta":284734498},{"NoteNumber":85,"Velocity":50,"Duration":375086,"SoundDuration":375086,"Delta":284795284},{"NoteNumber":61,"Velocity":38,"Duration":375086,"SoundDuration":375086,"Delta":284795284},{"NoteNumber":73,"Velocity":46,"Duration":77808,"SoundDuration":77808,"Delta":285170371},{"NoteNumber":81,"Velocity":42,"Duration":37541,"SoundDuration":37541,"Delta":285248180},{"NoteNumber":85,"Velocity":45,"Duration":32394,"SoundDuration":32394,"Delta":285285721},{"NoteNumber":81,"Velocity":50,"Duration":356975,"SoundDuration":356975,"Delta":285318115},{"NoteNumber":73,"Velocity":44,"Duration":120279,"SoundDuration":120279,"Delta":285675091},{"NoteNumber":90,"Velocity":36,"Duration":56352,"SoundDuration":56352,"Delta":285675091},{"NoteNumber":97,"Velocity":36,"Duration":63926,"SoundDuration":63926,"Delta":285731444},{"NoteNumber":85,"Velocity":50,"Duration":373709,"SoundDuration":373709,"Delta":285795370},{"NoteNumber":90,"Velocity":45,"Duration":373709,"SoundDuration":373709,"Delta":285795370},{"NoteNumber":73,"Velocity":46,"Duration":77808,"SoundDuration":77808,"Delta":286169079},{"NoteNumber":80,"Velocity":42,"Duration":37541,"SoundDuration":37541,"Delta":286246888},{"NoteNumber":85,"Velocity":45,"Duration":32394,"SoundDuration":32394,"Delta":286284429},{"NoteNumber":80,"Velocity":50,"Duration":356975,"SoundDuration":356975,"Delta":286316824},{"NoteNumber":73,"Velocity":44,"Duration":117139,"SoundDuration":117139,"Delta":286673799},{"NoteNumber":68,"Velocity":29,"Duration":56352,"SoundDuration":56352,"Delta":286673799},{"NoteNumber":77,"Velocity":29,"Duration":60786,"SoundDuration":60786,"Delta":286730152},{"NoteNumber":85,"Velocity":50,"Duration":373709,"SoundDuration":373709,"Delta":286790938},{"NoteNumber":68,"Velocity":38,"Duration":373709,"SoundDuration":373709,"Delta":286790938},{"NoteNumber":73,"Velocity":46,"Duration":77808,"SoundDuration":77808,"Delta":287164648},{"NoteNumber":80,"Velocity":42,"Duration":37541,"SoundDuration":37541,"Delta":287242457},{"NoteNumber":85,"Velocity":45,"Duration":32394,"SoundDuration":32394,"Delta":287279998},{"NoteNumber":80,"Velocity":50,"Duration":356975,"SoundDuration":356975,"Delta":287312392},{"NoteNumber":73,"Velocity":44,"Duration":112705,"SoundDuration":112705,"Delta":287669368},{"NoteNumber":92,"Velocity":36,"Duration":56352,"SoundDuration":56352,"Delta":287669368},{"NoteNumber":97,"Velocity":36,"Duration":56352,"SoundDuration":56352,"Delta":287725721},{"NoteNumber":85,"Velocity":50,"Duration":373709,"SoundDuration":373709,"Delta":287782073},{"NoteNumber":92,"Velocity":45,"Duration":373709,"SoundDuration":373709,"Delta":287782073},{"NoteNumber":73,"Velocity":46,"Duration":77808,"SoundDuration":77808,"Delta":288155783},{"NoteNumber":78,"Velocity":42,"Duration":31120,"SoundDuration":31120,"Delta":288233592},{"NoteNumber":85,"Velocity":45,"Duration":31966,"SoundDuration":31966,"Delta":288264712},{"NoteNumber":78,"Velocity":50,"Duration":359631,"SoundDuration":359631,"Delta":288296678},{"NoteNumber":73,"Velocity":44,"Duration":117139,"SoundDuration":117139,"Delta":288656310},{"NoteNumber":61,"Velocity":29,"Duration":56352,"SoundDuration":56352,"Delta":288656310},{"NoteNumber":69,"Velocity":29,"Duration":60786,"SoundDuration":60786,"Delta":288712663},{"NoteNumber":85,"Velocity":50,"Duration":375086,"SoundDuration":375086,"Delta":288773449},{"NoteNumber":61,"Velocity":38,"Duration":375086,"SoundDuration":375086,"Delta":288773449},{"NoteNumber":73,"Velocity":46,"Duration":77808,"SoundDuration":77808,"Delta":289148535},{"NoteNumber":81,"Velocity":42,"Duration":37541,"SoundDuration":37541,"Delta":289226344},{"NoteNumber":85,"Velocity":45,"Duration":32394,"SoundDuration":32394,"Delta":289263885},{"NoteNumber":81,"Velocity":50,"Duration":369680,"SoundDuration":369680,"Delta":289296280},{"NoteNumber":73,"Velocity":44,"Duration":117139,"SoundDuration":117139,"Delta":289665960},{"NoteNumber":90,"Velocity":36,"Duration":56352,"SoundDuration":56352,"Delta":289665960},{"NoteNumber":97,"Velocity":36,"Duration":60786,"SoundDuration":60786,"Delta":289722312},{"NoteNumber":85,"Velocity":50,"Duration":400697,"SoundDuration":400697,"Delta":289783099},{"NoteNumber":90,"Velocity":45,"Duration":556315,"SoundDuration":556315,"Delta":289783099},{"NoteNumber":73,"Velocity":46,"Duration":155617,"SoundDuration":155617,"Delta":290183796},{"NoteNumber":68,"Velocity":50,"Duration":461985,"SoundDuration":461985,"Delta":290339414},{"NoteNumber":73,"Velocity":45,"Duration":60197,"SoundDuration":60197,"Delta":290459809},{"NoteNumber":73,"Velocity":46,"Duration":55970,"SoundDuration":55970,"Delta":290578443},{"NoteNumber":52,"Velocity":44,"Duration":111770,"SoundDuration":111770,"Delta":290578443},{"NoteNumber":73,"Velocity":46,"Duration":55634,"SoundDuration":55634,"Delta":290690213},{"NoteNumber":73,"Velocity":46,"Duration":55350,"SoundDuration":55350,"Delta":290801400},{"NoteNumber":59,"Velocity":44,"Duration":110534,"SoundDuration":110534,"Delta":290801400},{"NoteNumber":73,"Velocity":46,"Duration":55103,"SoundDuration":55103,"Delta":290911934},{"NoteNumber":73,"Velocity":46,"Duration":54744,"SoundDuration":54744,"Delta":291021979},{"NoteNumber":65,"Velocity":44,"Duration":109406,"SoundDuration":109406,"Delta":291021979},{"NoteNumber":73,"Velocity":46,"Duration":54502,"SoundDuration":54502,"Delta":291131385},{"NoteNumber":69,"Velocity":50,"Duration":108303,"SoundDuration":108303,"Delta":291240233},{"NoteNumber":73,"Velocity":43,"Duration":54151,"SoundDuration":54151,"Delta":291348536},{"NoteNumber":73,"Velocity":43,"Duration":54151,"SoundDuration":54151,"Delta":291456839},{"NoteNumber":61,"Velocity":46,"Duration":108303,"SoundDuration":108303,"Delta":291456839},{"NoteNumber":73,"Velocity":43,"Duration":54151,"SoundDuration":54151,"Delta":291565142},{"NoteNumber":68,"Velocity":50,"Duration":110701,"SoundDuration":110701,"Delta":291673446},{"NoteNumber":73,"Velocity":45,"Duration":55350,"SoundDuration":55350,"Delta":291784147},{"NoteNumber":73,"Velocity":45,"Duration":57251,"SoundDuration":57251,"Delta":291894848},{"NoteNumber":61,"Velocity":46,"Duration":114503,"SoundDuration":114503,"Delta":291894848},{"NoteNumber":73,"Velocity":45,"Duration":57251,"SoundDuration":57251,"Delta":292009351},{"NoteNumber":66,"Velocity":50,"Duration":453782,"SoundDuration":453782,"Delta":292123855},{"NoteNumber":73,"Velocity":44,"Duration":57212,"SoundDuration":57212,"Delta":292239167},{"NoteNumber":73,"Velocity":44,"Duration":57179,"SoundDuration":57179,"Delta":292353592},{"NoteNumber":49,"Velocity":44,"Duration":112941,"SoundDuration":112941,"Delta":292353592},{"NoteNumber":73,"Velocity":44,"Duration":55634,"SoundDuration":55634,"Delta":292466533},{"NoteNumber":73,"Velocity":44,"Duration":55306,"SoundDuration":55306,"Delta":292577638},{"NoteNumber":57,"Velocity":44,"Duration":110450,"SoundDuration":110450,"Delta":292577638},{"NoteNumber":73,"Velocity":44,"Duration":54945,"SoundDuration":54945,"Delta":292688088},{"NoteNumber":73,"Velocity":44,"Duration":54701,"SoundDuration":54701,"Delta":292797895},{"NoteNumber":61,"Velocity":44,"Duration":109243,"SoundDuration":109243,"Delta":292797895},{"NoteNumber":68,"Velocity":46,"Duration":54347,"SoundDuration":54347,"Delta":292907138},{"NoteNumber":69,"Velocity":50,"Duration":107988,"SoundDuration":107988,"Delta":293015674},{"NoteNumber":73,"Velocity":44,"Duration":53956,"SoundDuration":53956,"Delta":293123662},{"NoteNumber":73,"Velocity":44,"Duration":53956,"SoundDuration":53956,"Delta":293231576},{"NoteNumber":61,"Velocity":46,"Duration":107913,"SoundDuration":107913,"Delta":293231576},{"NoteNumber":73,"Velocity":44,"Duration":53956,"SoundDuration":53956,"Delta":293339490},{"NoteNumber":66,"Velocity":50,"Duration":113105,"SoundDuration":113105,"Delta":293447403},{"NoteNumber":73,"Velocity":45,"Duration":56179,"SoundDuration":56179,"Delta":293560508},{"NoteNumber":73,"Velocity":45,"Duration":56179,"SoundDuration":56179,"Delta":293672868},{"NoteNumber":61,"Velocity":46,"Duration":112359,"SoundDuration":112359,"Delta":293672868},{"NoteNumber":73,"Velocity":45,"Duration":56179,"SoundDuration":56179,"Delta":293785227},{"NoteNumber":68,"Velocity":50,"Duration":455353,"SoundDuration":455353,"Delta":293897587},{"NoteNumber":73,"Velocity":44,"Duration":58365,"SoundDuration":58365,"Delta":294014318},{"NoteNumber":73,"Velocity":44,"Duration":56333,"SoundDuration":56333,"Delta":294131050},{"NoteNumber":49,"Velocity":44,"Duration":111680,"SoundDuration":111680,"Delta":294131050},{"NoteNumber":73,"Velocity":44,"Duration":55146,"SoundDuration":55146,"Delta":294242730},{"NoteNumber":73,"Velocity":44,"Duration":54901,"SoundDuration":54901,"Delta":294352940},{"NoteNumber":59,"Velocity":44,"Duration":109646,"SoundDuration":109646,"Delta":294352940},{"NoteNumber":73,"Velocity":44,"Duration":54621,"SoundDuration":54621,"Delta":294462586},{"NoteNumber":73,"Velocity":44,"Duration":54347,"SoundDuration":54347,"Delta":294571750},{"NoteNumber":65,"Velocity":44,"Duration":108535,"SoundDuration":108535,"Delta":294571750},{"NoteNumber":71,"Velocity":49,"Duration":54109,"SoundDuration":54109,"Delta":294680286},{"NoteNumber":69,"Velocity":50,"Duration":107839,"SoundDuration":107839,"Delta":294788349},{"NoteNumber":73,"Velocity":46,"Duration":53956,"SoundDuration":53956,"Delta":294896188},{"NoteNumber":73,"Velocity":46,"Duration":53956,"SoundDuration":53956,"Delta":295004102},{"NoteNumber":61,"Velocity":46,"Duration":107913,"SoundDuration":107913,"Delta":295004102},{"NoteNumber":73,"Velocity":46,"Duration":53956,"SoundDuration":53956,"Delta":295112016},{"NoteNumber":68,"Velocity":50,"Duration":111480,"SoundDuration":111480,"Delta":295219930},{"NoteNumber":73,"Velocity":45,"Duration":55555,"SoundDuration":55555,"Delta":295331411},{"NoteNumber":73,"Velocity":45,"Duration":58020,"SoundDuration":58020,"Delta":295442522},{"NoteNumber":61,"Velocity":46,"Duration":115491,"SoundDuration":115491,"Delta":295442522},{"NoteNumber":73,"Velocity":45,"Duration":57471,"SoundDuration":57471,"Delta":295558013},{"NoteNumber":66,"Velocity":50,"Duration":452952,"SoundDuration":452952,"Delta":295672945},{"NoteNumber":73,"Velocity":42,"Duration":58098,"SoundDuration":58098,"Delta":295788954},{"NoteNumber":73,"Velocity":42,"Duration":56154,"SoundDuration":56154,"Delta":295905152},{"NoteNumber":49,"Velocity":44,"Duration":111099,"SoundDuration":111099,"Delta":295905152},{"NoteNumber":73,"Velocity":42,"Duration":54901,"SoundDuration":54901,"Delta":296016251},{"NoteNumber":73,"Velocity":42,"Duration":54744,"SoundDuration":54744,"Delta":296125897},{"NoteNumber":57,"Velocity":44,"Duration":109326,"SoundDuration":109326,"Delta":296125897},{"NoteNumber":73,"Velocity":42,"Duration":54545,"SoundDuration":54545,"Delta":296235223},{"NoteNumber":73,"Velocity":42,"Duration":54347,"SoundDuration":54347,"Delta":296344232},{"NoteNumber":61,"Velocity":44,"Duration":108692,"SoundDuration":108692,"Delta":296344232},{"NoteNumber":68,"Velocity":50,"Duration":54151,"SoundDuration":54151,"Delta":296452924},{"NoteNumber":69,"Velocity":50,"Duration":108144,"SoundDuration":108144,"Delta":296561228},{"NoteNumber":73,"Velocity":45,"Duration":53956,"SoundDuration":53956,"Delta":296669372},{"NoteNumber":73,"Velocity":45,"Duration":53956,"SoundDuration":53956,"Delta":296777285},{"NoteNumber":61,"Velocity":46,"Duration":107913,"SoundDuration":107913,"Delta":296777285},{"NoteNumber":73,"Velocity":45,"Duration":53956,"SoundDuration":53956,"Delta":296885199},{"NoteNumber":66,"Velocity":50,"Duration":109530,"SoundDuration":109530,"Delta":296993113},{"NoteNumber":73,"Velocity":44,"Duration":55350,"SoundDuration":55350,"Delta":297102643},{"NoteNumber":73,"Velocity":44,"Duration":55350,"SoundDuration":55350,"Delta":297213344},{"NoteNumber":61,"Velocity":46,"Duration":110700,"SoundDuration":110700,"Delta":297213344},{"NoteNumber":73,"Velocity":44,"Duration":55350,"SoundDuration":55350,"Delta":297324045},{"NoteNumber":68,"Velocity":57,"Duration":457453,"SoundDuration":457453,"Delta":297434781},{"NoteNumber":80,"Velocity":57,"Duration":457453,"SoundDuration":457453,"Delta":297434781},{"NoteNumber":73,"Velocity":45,"Duration":58782,"SoundDuration":58782,"Delta":297552345},{"NoteNumber":73,"Velocity":45,"Duration":57734,"SoundDuration":57734,"Delta":297669909},{"NoteNumber":49,"Velocity":44,"Duration":112679,"SoundDuration":112679,"Delta":297669909},{"NoteNumber":73,"Velocity":45,"Duration":54901,"SoundDuration":54901,"Delta":297782589},{"NoteNumber":73,"Velocity":45,"Duration":54621,"SoundDuration":54621,"Delta":297892235},{"NoteNumber":59,"Velocity":44,"Duration":109163,"SoundDuration":109163,"Delta":297892235},{"NoteNumber":73,"Velocity":45,"Duration":54347,"SoundDuration":54347,"Delta":298001399},{"NoteNumber":73,"Velocity":45,"Duration":54151,"SoundDuration":54151,"Delta":298110013},{"NoteNumber":65,"Velocity":44,"Duration":108144,"SoundDuration":108144,"Delta":298110013},{"NoteNumber":73,"Velocity":45,"Duration":53914,"SoundDuration":53914,"Delta":298218157},{"NoteNumber":81,"Velocity":54,"Duration":214359,"SoundDuration":214359,"Delta":298325835},{"NoteNumber":69,"Velocity":54,"Duration":214359,"SoundDuration":214359,"Delta":298325835},{"NoteNumber":73,"Velocity":45,"Duration":53571,"SoundDuration":53571,"Delta":298433052},{"NoteNumber":73,"Velocity":45,"Duration":53571,"SoundDuration":53571,"Delta":298540195},{"NoteNumber":65,"Velocity":46,"Duration":107142,"SoundDuration":107142,"Delta":298540195},{"NoteNumber":73,"Velocity":45,"Duration":53571,"SoundDuration":53571,"Delta":298647337},{"NoteNumber":80,"Velocity":54,"Duration":219012,"SoundDuration":219012,"Delta":298754480},{"NoteNumber":68,"Velocity":54,"Duration":219012,"SoundDuration":219012,"Delta":298754480},{"NoteNumber":59,"Velocity":50,"Duration":108718,"SoundDuration":108718,"Delta":298754480},{"NoteNumber":73,"Velocity":46,"Duration":55147,"SoundDuration":55147,"Delta":298863199},{"NoteNumber":73,"Velocity":46,"Duration":56818,"SoundDuration":56818,"Delta":298973493},{"NoteNumber":49,"Velocity":46,"Duration":113636,"SoundDuration":113636,"Delta":298973493},{"NoteNumber":73,"Velocity":46,"Duration":56818,"SoundDuration":56818,"Delta":299087129},{"NoteNumber":66,"Velocity":55,"Duration":450487,"SoundDuration":450487,"Delta":299200765},{"NoteNumber":78,"Velocity":55,"Duration":450487,"SoundDuration":450487,"Delta":299200765},{"NoteNumber":73,"Velocity":42,"Duration":56603,"SoundDuration":56603,"Delta":299314290},{"NoteNumber":73,"Velocity":42,"Duration":57630,"SoundDuration":57630,"Delta":299427602},{"NoteNumber":49,"Velocity":44,"Duration":113362,"SoundDuration":113362,"Delta":299427602},{"NoteNumber":73,"Velocity":42,"Duration":55225,"SoundDuration":55225,"Delta":299540965},{"NoteNumber":73,"Velocity":42,"Duration":54901,"SoundDuration":54901,"Delta":299651252},{"NoteNumber":57,"Velocity":44,"Duration":109642,"SoundDuration":109642,"Delta":299651252},{"NoteNumber":73,"Velocity":42,"Duration":54502,"SoundDuration":54502,"Delta":299760895},{"NoteNumber":73,"Velocity":42,"Duration":54151,"SoundDuration":54151,"Delta":299869742},{"NoteNumber":66,"Velocity":44,"Duration":108144,"SoundDuration":108144,"Delta":299869742},{"NoteNumber":80,"Velocity":50,"Duration":53837,"SoundDuration":53837,"Delta":299977887},{"NoteNumber":68,"Velocity":50,"Duration":53837,"SoundDuration":53837,"Delta":299977887},{"NoteNumber":81,"Velocity":55,"Duration":427119,"SoundDuration":427119,"Delta":300085408},{"NoteNumber":69,"Velocity":55,"Duration":427119,"SoundDuration":427119,"Delta":300085408},{"NoteNumber":73,"Velocity":43,"Duration":53380,"SoundDuration":53380,"Delta":300192242},{"NoteNumber":73,"Velocity":43,"Duration":53380,"SoundDuration":53380,"Delta":300299004},{"NoteNumber":66,"Velocity":46,"Duration":106761,"SoundDuration":106761,"Delta":300299004},{"NoteNumber":73,"Velocity":43,"Duration":53380,"SoundDuration":53380,"Delta":300405765},{"NoteNumber":66,"Velocity":50,"Duration":447761,"SoundDuration":447761,"Delta":300512527},{"NoteNumber":78,"Velocity":50,"Duration":447761,"SoundDuration":447761,"Delta":300512527},{"NoteNumber":57,"Velocity":50,"Duration":111940,"SoundDuration":111940,"Delta":300512527},{"NoteNumber":73,"Velocity":43,"Duration":55970,"SoundDuration":55970,"Delta":300624467},{"NoteNumber":73,"Velocity":43,"Duration":55970,"SoundDuration":55970,"Delta":300736407},{"NoteNumber":49,"Velocity":46,"Duration":111940,"SoundDuration":111940,"Delta":300736407},{"NoteNumber":73,"Velocity":43,"Duration":55970,"SoundDuration":55970,"Delta":300848348},{"NoteNumber":68,"Velocity":57,"Duration":451518,"SoundDuration":451518,"Delta":300960288},{"NoteNumber":80,"Velocity":57,"Duration":451518,"SoundDuration":451518,"Delta":300960288},{"NoteNumber":73,"Velocity":41,"Duration":58552,"SoundDuration":58552,"Delta":301077393},{"NoteNumber":73,"Velocity":41,"Duration":54945,"SoundDuration":54945,"Delta":301192995},{"NoteNumber":49,"Velocity":44,"Duration":109726,"SoundDuration":109726,"Delta":301192995},{"NoteNumber":73,"Velocity":41,"Duration":54621,"SoundDuration":54621,"Delta":301302721},{"NoteNumber":73,"Velocity":41,"Duration":54305,"SoundDuration":54305,"Delta":301411806},{"NoteNumber":59,"Velocity":44,"Duration":108453,"SoundDuration":108453,"Delta":301411806},{"NoteNumber":73,"Velocity":41,"Duration":53956,"SoundDuration":53956,"Delta":301520260},{"NoteNumber":83,"Velocity":49,"Duration":213665,"SoundDuration":213665,"Delta":301628016},{"NoteNumber":71,"Velocity":49,"Duration":213665,"SoundDuration":213665,"Delta":301628016},{"NoteNumber":65,"Velocity":44,"Duration":107136,"SoundDuration":107136,"Delta":301628016},{"NoteNumber":73,"Velocity":43,"Duration":53339,"SoundDuration":53339,"Delta":301735153},{"NoteNumber":81,"Velocity":56,"Duration":213502,"SoundDuration":213502,"Delta":301841681},{"NoteNumber":69,"Velocity":56,"Duration":213502,"SoundDuration":213502,"Delta":301841681},{"NoteNumber":73,"Velocity":44,"Duration":53191,"SoundDuration":53191,"Delta":301948801},{"NoteNumber":73,"Velocity":44,"Duration":53191,"SoundDuration":53191,"Delta":302055184},{"NoteNumber":65,"Velocity":46,"Duration":106382,"SoundDuration":106382,"Delta":302055184},{"NoteNumber":73,"Velocity":44,"Duration":53191,"SoundDuration":53191,"Delta":302161567},{"NoteNumber":80,"Velocity":54,"Duration":221696,"SoundDuration":221696,"Delta":302267950},{"NoteNumber":68,"Velocity":54,"Duration":221696,"SoundDuration":221696,"Delta":302267950},{"NoteNumber":59,"Velocity":50,"Duration":110585,"SoundDuration":110585,"Delta":302267950},{"NoteNumber":73,"Velocity":44,"Duration":55555,"SoundDuration":55555,"Delta":302378535},{"NoteNumber":73,"Velocity":44,"Duration":57379,"SoundDuration":57379,"Delta":302489646},{"NoteNumber":49,"Velocity":46,"Duration":116392,"SoundDuration":116392,"Delta":302489646},{"NoteNumber":73,"Velocity":44,"Duration":59013,"SoundDuration":59013,"Delta":302606039},{"NoteNumber":78,"Velocity":55,"Duration":451671,"SoundDuration":451671,"Delta":302724065},{"NoteNumber":66,"Velocity":55,"Duration":451671,"SoundDuration":451671,"Delta":302724065},{"NoteNumber":73,"Velocity":44,"Duration":56603,"SoundDuration":56603,"Delta":302837590},{"NoteNumber":73,"Velocity":44,"Duration":57344,"SoundDuration":57344,"Delta":302950880},{"NoteNumber":49,"Velocity":44,"Duration":113424,"SoundDuration":113424,"Delta":302950880},{"NoteNumber":73,"Velocity":44,"Duration":55841,"SoundDuration":55841,"Delta":303064305},{"NoteNumber":73,"Velocity":44,"Duration":55350,"SoundDuration":55350,"Delta":303175737},{"NoteNumber":57,"Velocity":44,"Duration":110531,"SoundDuration":110531,"Delta":303175737},{"NoteNumber":73,"Velocity":44,"Duration":54901,"SoundDuration":54901,"Delta":303286268},{"NoteNumber":73,"Velocity":44,"Duration":54502,"SoundDuration":54502,"Delta":303395911},{"NoteNumber":66,"Velocity":44,"Duration":108768,"SoundDuration":108768,"Delta":303395911},{"NoteNumber":80,"Velocity":50,"Duration":54109,"SoundDuration":54109,"Delta":303504679},{"NoteNumber":68,"Velocity":50,"Duration":54109,"SoundDuration":54109,"Delta":303504679},{"NoteNumber":69,"Velocity":57,"Duration":428644,"SoundDuration":428644,"Delta":303612665},{"NoteNumber":81,"Velocity":57,"Duration":428644,"SoundDuration":428644,"Delta":303612665},{"NoteNumber":73,"Velocity":43,"Duration":53571,"SoundDuration":53571,"Delta":303719882},{"NoteNumber":73,"Velocity":44,"Duration":53571,"SoundDuration":53571,"Delta":303827024},{"NoteNumber":66,"Velocity":46,"Duration":107142,"SoundDuration":107142,"Delta":303827024},{"NoteNumber":73,"Velocity":44,"Duration":53571,"SoundDuration":53571,"Delta":303934167},{"NoteNumber":78,"Velocity":54,"Duration":462226,"SoundDuration":462226,"Delta":304041310},{"NoteNumber":66,"Velocity":54,"Duration":462226,"SoundDuration":462226,"Delta":304041310},{"NoteNumber":57,"Velocity":50,"Duration":113632,"SoundDuration":113632,"Delta":304041310},{"NoteNumber":73,"Velocity":44,"Duration":58099,"SoundDuration":58099,"Delta":304154942},{"NoteNumber":73,"Velocity":44,"Duration":58099,"SoundDuration":58099,"Delta":304271140},{"NoteNumber":49,"Velocity":46,"Duration":116197,"SoundDuration":116197,"Delta":304271140},{"NoteNumber":73,"Velocity":44,"Duration":58099,"SoundDuration":58099,"Delta":304387338},{"NoteNumber":85,"Velocity":57,"Duration":58324,"SoundDuration":58324,"Delta":304503536},{"NoteNumber":56,"Velocity":62,"Duration":116649,"SoundDuration":116649,"Delta":304503536},{"NoteNumber":73,"Velocity":43,"Duration":53763,"SoundDuration":53763,"Delta":304620186},{"NoteNumber":73,"Velocity":44,"Duration":53763,"SoundDuration":53763,"Delta":304727713},{"NoteNumber":73,"Velocity":44,"Duration":53763,"SoundDuration":53763,"Delta":304835240},{"NoteNumber":85,"Velocity":54,"Duration":55970,"SoundDuration":55970,"Delta":304942767},{"NoteNumber":71,"Velocity":60,"Duration":451927,"SoundDuration":451927,"Delta":304942767},{"NoteNumber":61,"Velocity":50,"Duration":451927,"SoundDuration":451927,"Delta":304942767},{"NoteNumber":65,"Velocity":50,"Duration":451927,"SoundDuration":451927,"Delta":304942767},{"NoteNumber":73,"Velocity":44,"Duration":56565,"SoundDuration":56565,"Delta":305055302},{"NoteNumber":73,"Velocity":44,"Duration":56565,"SoundDuration":56565,"Delta":305168433},{"NoteNumber":73,"Velocity":44,"Duration":56565,"SoundDuration":56565,"Delta":305281564},{"NoteNumber":85,"Velocity":57,"Duration":55146,"SoundDuration":55146,"Delta":305394695},{"NoteNumber":49,"Velocity":57,"Duration":110294,"SoundDuration":110294,"Delta":305394695},{"NoteNumber":73,"Velocity":43,"Duration":55146,"SoundDuration":55146,"Delta":305504989},{"NoteNumber":73,"Velocity":44,"Duration":52816,"SoundDuration":52816,"Delta":305615283},{"NoteNumber":65,"Velocity":39,"Duration":52816,"SoundDuration":52816,"Delta":305615283},{"NoteNumber":69,"Velocity":46,"Duration":52816,"SoundDuration":52816,"Delta":305615283},{"NoteNumber":61,"Velocity":39,"Duration":52816,"SoundDuration":52816,"Delta":305615283},{"NoteNumber":73,"Velocity":44,"Duration":52816,"SoundDuration":52816,"Delta":305720916},{"NoteNumber":85,"Velocity":54,"Duration":52816,"SoundDuration":52816,"Delta":305826550},{"NoteNumber":59,"Velocity":46,"Duration":52816,"SoundDuration":52816,"Delta":305826550},{"NoteNumber":73,"Velocity":44,"Duration":52816,"SoundDuration":52816,"Delta":305932184},{"NoteNumber":73,"Velocity":44,"Duration":52816,"SoundDuration":52816,"Delta":306037818},{"NoteNumber":61,"Velocity":39,"Duration":52816,"SoundDuration":52816,"Delta":306037818},{"NoteNumber":68,"Velocity":46,"Duration":52816,"SoundDuration":52816,"Delta":306037818},{"NoteNumber":65,"Velocity":39,"Duration":52816,"SoundDuration":52816,"Delta":306037818},{"NoteNumber":73,"Velocity":44,"Duration":55555,"SoundDuration":55555,"Delta":306143451},{"NoteNumber":85,"Velocity":57,"Duration":56565,"SoundDuration":56565,"Delta":306254562},{"NoteNumber":54,"Velocity":64,"Duration":113130,"SoundDuration":113130,"Delta":306254562},{"NoteNumber":73,"Velocity":43,"Duration":53191,"SoundDuration":53191,"Delta":306367693},{"NoteNumber":73,"Velocity":44,"Duration":53191,"SoundDuration":53191,"Delta":306474076},{"NoteNumber":73,"Velocity":44,"Duration":53191,"SoundDuration":53191,"Delta":306580459},{"NoteNumber":85,"Velocity":54,"Duration":57351,"SoundDuration":57351,"Delta":306686842},{"NoteNumber":66,"Velocity":50,"Duration":455078,"SoundDuration":455078,"Delta":306686842},{"NoteNumber":69,"Velocity":60,"Duration":455078,"SoundDuration":455078,"Delta":306686842},{"NoteNumber":61,"Velocity":50,"Duration":455078,"SoundDuration":455078,"Delta":306686842},{"NoteNumber":73,"Velocity":44,"Duration":56818,"SoundDuration":56818,"Delta":306801012},{"NoteNumber":73,"Velocity":44,"Duration":56818,"SoundDuration":56818,"Delta":306914648},{"NoteNumber":73,"Velocity":44,"Duration":56818,"SoundDuration":56818,"Delta":307028284},{"NoteNumber":85,"Velocity":57,"Duration":54545,"SoundDuration":54545,"Delta":307141920},{"NoteNumber":49,"Velocity":61,"Duration":109090,"SoundDuration":109090,"Delta":307141920},{"NoteNumber":73,"Velocity":43,"Duration":54545,"SoundDuration":54545,"Delta":307251011},{"NoteNumber":73,"Velocity":44,"Duration":52631,"SoundDuration":52631,"Delta":307360102},{"NoteNumber":57,"Velocity":39,"Duration":52631,"SoundDuration":52631,"Delta":307360102},{"NoteNumber":68,"Velocity":46,"Duration":52631,"SoundDuration":52631,"Delta":307360102},{"NoteNumber":61,"Velocity":39,"Duration":52631,"SoundDuration":52631,"Delta":307360102},{"NoteNumber":73,"Velocity":44,"Duration":52631,"SoundDuration":52631,"Delta":307465366},{"NoteNumber":85,"Velocity":54,"Duration":52631,"SoundDuration":52631,"Delta":307570629},{"NoteNumber":54,"Velocity":46,"Duration":52631,"SoundDuration":52631,"Delta":307570629},{"NoteNumber":73,"Velocity":44,"Duration":52631,"SoundDuration":52631,"Delta":307675892},{"NoteNumber":73,"Velocity":44,"Duration":52631,"SoundDuration":52631,"Delta":307781155},{"NoteNumber":57,"Velocity":39,"Duration":52631,"SoundDuration":52631,"Delta":307781155},{"NoteNumber":66,"Velocity":46,"Duration":52631,"SoundDuration":52631,"Delta":307781155},{"NoteNumber":61,"Velocity":39,"Duration":52631,"SoundDuration":52631,"Delta":307781155},{"NoteNumber":73,"Velocity":44,"Duration":55762,"SoundDuration":55762,"Delta":307886419},{"NoteNumber":85,"Velocity":57,"Duration":60684,"SoundDuration":60684,"Delta":307997943},{"NoteNumber":56,"Velocity":60,"Duration":121369,"SoundDuration":121369,"Delta":307997943},{"NoteNumber":73,"Velocity":43,"Duration":53571,"SoundDuration":53571,"Delta":308119312},{"NoteNumber":73,"Velocity":44,"Duration":53571,"SoundDuration":53571,"Delta":308226455},{"NoteNumber":73,"Velocity":44,"Duration":53571,"SoundDuration":53571,"Delta":308333597},{"NoteNumber":85,"Velocity":54,"Duration":57351,"SoundDuration":57351,"Delta":308440740},{"NoteNumber":65,"Velocity":50,"Duration":464044,"SoundDuration":464044,"Delta":308440740},{"NoteNumber":71,"Velocity":60,"Duration":464044,"SoundDuration":464044,"Delta":308440740},{"NoteNumber":61,"Velocity":50,"Duration":464044,"SoundDuration":464044,"Delta":308440740},{"NoteNumber":73,"Velocity":44,"Duration":58099,"SoundDuration":58099,"Delta":308556190},{"NoteNumber":73,"Velocity":44,"Duration":58099,"SoundDuration":58099,"Delta":308672388},{"NoteNumber":73,"Velocity":44,"Duration":58099,"SoundDuration":58099,"Delta":308788586},{"NoteNumber":85,"Velocity":57,"Duration":54744,"SoundDuration":54744,"Delta":308904784},{"NoteNumber":49,"Velocity":57,"Duration":109488,"SoundDuration":109488,"Delta":308904784},{"NoteNumber":73,"Velocity":43,"Duration":54744,"SoundDuration":54744,"Delta":309014273},{"NoteNumber":73,"Velocity":44,"Duration":52447,"SoundDuration":52447,"Delta":309123762},{"NoteNumber":61,"Velocity":39,"Duration":52447,"SoundDuration":52447,"Delta":309123762},{"NoteNumber":69,"Velocity":46,"Duration":52447,"SoundDuration":52447,"Delta":309123762},{"NoteNumber":65,"Velocity":39,"Duration":52447,"SoundDuration":52447,"Delta":309123762},{"NoteNumber":73,"Velocity":44,"Duration":52447,"SoundDuration":52447,"Delta":309228657},{"NoteNumber":85,"Velocity":54,"Duration":52447,"SoundDuration":52447,"Delta":309333552},{"NoteNumber":59,"Velocity":46,"Duration":52447,"SoundDuration":52447,"Delta":309333552},{"NoteNumber":73,"Velocity":44,"Duration":52447,"SoundDuration":52447,"Delta":309438447},{"NoteNumber":73,"Velocity":44,"Duration":52447,"SoundDuration":52447,"Delta":309543342},{"NoteNumber":61,"Velocity":39,"Duration":52447,"SoundDuration":52447,"Delta":309543342},{"NoteNumber":68,"Velocity":46,"Duration":52447,"SoundDuration":52447,"Delta":309543342},{"NoteNumber":65,"Velocity":39,"Duration":52447,"SoundDuration":52447,"Delta":309543342},{"NoteNumber":73,"Velocity":44,"Duration":56779,"SoundDuration":56779,"Delta":309648237},{"NoteNumber":85,"Velocity":57,"Duration":56565,"SoundDuration":56565,"Delta":309761796},{"NoteNumber":54,"Velocity":62,"Duration":113130,"SoundDuration":113130,"Delta":309761796},{"NoteNumber":73,"Velocity":43,"Duration":53571,"SoundDuration":53571,"Delta":309874927},{"NoteNumber":73,"Velocity":44,"Duration":53571,"SoundDuration":53571,"Delta":309982070},{"NoteNumber":73,"Velocity":44,"Duration":53571,"SoundDuration":53571,"Delta":310089213},{"NoteNumber":85,"Velocity":54,"Duration":57351,"SoundDuration":57351,"Delta":310196355},{"NoteNumber":61,"Velocity":50,"Duration":464044,"SoundDuration":464044,"Delta":310196355},{"NoteNumber":66,"Velocity":50,"Duration":464044,"SoundDuration":464044,"Delta":310196355},{"NoteNumber":69,"Velocity":60,"Duration":464044,"SoundDuration":464044,"Delta":310196355},{"NoteNumber":73,"Velocity":44,"Duration":58099,"SoundDuration":58099,"Delta":310311806},{"NoteNumber":73,"Velocity":44,"Duration":58099,"SoundDuration":58099,"Delta":310428004},{"NoteNumber":73,"Velocity":44,"Duration":58099,"SoundDuration":58099,"Delta":310544202},{"NoteNumber":85,"Velocity":57,"Duration":55518,"SoundDuration":55518,"Delta":310660400},{"NoteNumber":49,"Velocity":57,"Duration":111037,"SoundDuration":111037,"Delta":310660400},{"NoteNumber":73,"Velocity":43,"Duration":55518,"SoundDuration":55518,"Delta":310771437},{"NoteNumber":73,"Velocity":44,"Duration":52631,"SoundDuration":52631,"Delta":310882474},{"NoteNumber":57,"Velocity":39,"Duration":52631,"SoundDuration":52631,"Delta":310882474},{"NoteNumber":61,"Velocity":39,"Duration":52631,"SoundDuration":52631,"Delta":310882474},{"NoteNumber":68,"Velocity":46,"Duration":52631,"SoundDuration":52631,"Delta":310882474},{"NoteNumber":73,"Velocity":44,"Duration":52631,"SoundDuration":52631,"Delta":310987737},{"NoteNumber":85,"Velocity":54,"Duration":52631,"SoundDuration":52631,"Delta":311093000},{"NoteNumber":54,"Velocity":46,"Duration":52631,"SoundDuration":52631,"Delta":311093000},{"NoteNumber":73,"Velocity":44,"Duration":52631,"SoundDuration":52631,"Delta":311198263},{"NoteNumber":73,"Velocity":44,"Duration":52631,"SoundDuration":52631,"Delta":311303527},{"NoteNumber":61,"Velocity":39,"Duration":52631,"SoundDuration":52631,"Delta":311303527},{"NoteNumber":66,"Velocity":46,"Duration":52631,"SoundDuration":52631,"Delta":311303527},{"NoteNumber":57,"Velocity":39,"Duration":52631,"SoundDuration":52631,"Delta":311303527},{"NoteNumber":73,"Velocity":44,"Duration":56779,"SoundDuration":56779,"Delta":311408790},{"NoteNumber":85,"Velocity":57,"Duration":60684,"SoundDuration":60684,"Delta":311522349},{"NoteNumber":56,"Velocity":55,"Duration":121369,"SoundDuration":121369,"Delta":311522349},{"NoteNumber":73,"Velocity":43,"Duration":52264,"SoundDuration":52264,"Delta":311643718},{"NoteNumber":85,"Velocity":51,"Duration":52264,"SoundDuration":52264,"Delta":311748247},{"NoteNumber":85,"Velocity":51,"Duration":52264,"SoundDuration":52264,"Delta":311852777},{"NoteNumber":97,"Velocity":63,"Duration":54744,"SoundDuration":54744,"Delta":311957306},{"NoteNumber":61,"Velocity":46,"Duration":437955,"SoundDuration":437955,"Delta":311957306},{"NoteNumber":71,"Velocity":55,"Duration":437955,"SoundDuration":437955,"Delta":311957306},{"NoteNumber":65,"Velocity":46,"Duration":437955,"SoundDuration":437955,"Delta":311957306},{"NoteNumber":85,"Velocity":44,"Duration":54744,"SoundDuration":54744,"Delta":312066795},{"NoteNumber":85,"Velocity":44,"Duration":54744,"SoundDuration":54744,"Delta":312176284},{"NoteNumber":73,"Velocity":44,"Duration":54744,"SoundDuration":54744,"Delta":312285773},{"NoteNumber":85,"Velocity":57,"Duration":58782,"SoundDuration":58782,"Delta":312395262},{"NoteNumber":49,"Velocity":55,"Duration":117564,"SoundDuration":117564,"Delta":312395262},{"NoteNumber":73,"Velocity":43,"Duration":52631,"SoundDuration":52631,"Delta":312512826},{"NoteNumber":73,"Velocity":44,"Duration":52631,"SoundDuration":52631,"Delta":312618090},{"NoteNumber":73,"Velocity":44,"Duration":52631,"SoundDuration":52631,"Delta":312723353},{"NoteNumber":85,"Velocity":55,"Duration":54944,"SoundDuration":54944,"Delta":312828616},{"NoteNumber":61,"Velocity":46,"Duration":439559,"SoundDuration":439559,"Delta":312828616},{"NoteNumber":65,"Velocity":46,"Duration":439559,"SoundDuration":439559,"Delta":312828616},{"NoteNumber":71,"Velocity":56,"Duration":439559,"SoundDuration":439559,"Delta":312828616},{"NoteNumber":73,"Velocity":45,"Duration":54944,"SoundDuration":54944,"Delta":312938506},{"NoteNumber":73,"Velocity":45,"Duration":54944,"SoundDuration":54944,"Delta":313048396},{"NoteNumber":73,"Velocity":45,"Duration":54944,"SoundDuration":54944,"Delta":313158286},{"NoteNumber":85,"Velocity":59,"Duration":59246,"SoundDuration":59246,"Delta":313268176},{"NoteNumber":54,"Velocity":57,"Duration":118492,"SoundDuration":118492,"Delta":313268176},{"NoteNumber":73,"Velocity":44,"Duration":53571,"SoundDuration":53571,"Delta":313386669},{"NoteNumber":85,"Velocity":53,"Duration":53571,"SoundDuration":53571,"Delta":313493812},{"NoteNumber":85,"Velocity":53,"Duration":53571,"SoundDuration":53571,"Delta":313600954},{"NoteNumber":97,"Velocity":65,"Duration":56141,"SoundDuration":56141,"Delta":313708097},{"NoteNumber":70,"Velocity":58,"Duration":449135,"SoundDuration":449135,"Delta":313708097},{"NoteNumber":61,"Velocity":48,"Duration":449135,"SoundDuration":449135,"Delta":313708097},{"NoteNumber":66,"Velocity":48,"Duration":449135,"SoundDuration":449135,"Delta":313708097},{"NoteNumber":85,"Velocity":46,"Duration":56141,"SoundDuration":56141,"Delta":313820381},{"NoteNumber":85,"Velocity":47,"Duration":56141,"SoundDuration":56141,"Delta":313932665},{"NoteNumber":73,"Velocity":47,"Duration":56141,"SoundDuration":56141,"Delta":314044948},{"NoteNumber":85,"Velocity":60,"Duration":59013,"SoundDuration":59013,"Delta":314157232},{"NoteNumber":49,"Velocity":58,"Duration":118026,"SoundDuration":118026,"Delta":314157232},{"NoteNumber":73,"Velocity":46,"Duration":53921,"SoundDuration":53921,"Delta":314275259},{"NoteNumber":73,"Velocity":47,"Duration":53921,"SoundDuration":53921,"Delta":314383102},{"NoteNumber":73,"Velocity":47,"Duration":53921,"SoundDuration":53921,"Delta":314490946},{"NoteNumber":85,"Velocity":59,"Duration":55518,"SoundDuration":55518,"Delta":314598790},{"NoteNumber":70,"Velocity":60,"Duration":444147,"SoundDuration":444147,"Delta":314598790},{"NoteNumber":61,"Velocity":49,"Duration":444147,"SoundDuration":444147,"Delta":314598790},{"NoteNumber":66,"Velocity":49,"Duration":444147,"SoundDuration":444147,"Delta":314598790},{"NoteNumber":73,"Velocity":47,"Duration":55518,"SoundDuration":55518,"Delta":314709827},{"NoteNumber":73,"Velocity":48,"Duration":55518,"SoundDuration":55518,"Delta":314820864},{"NoteNumber":73,"Velocity":48,"Duration":55518,"SoundDuration":55518,"Delta":314931901},{"NoteNumber":85,"Velocity":63,"Duration":54509,"SoundDuration":54509,"Delta":315042938},{"NoteNumber":56,"Velocity":60,"Duration":108822,"SoundDuration":108822,"Delta":315042938},{"NoteNumber":73,"Velocity":48,"Duration":53921,"SoundDuration":53921,"Delta":315151760},{"NoteNumber":85,"Velocity":60,"Duration":53921,"SoundDuration":53921,"Delta":315259604},{"NoteNumber":61,"Velocity":46,"Duration":53921,"SoundDuration":53921,"Delta":315259604},{"NoteNumber":65,"Velocity":46,"Duration":53921,"SoundDuration":53921,"Delta":315259604},{"NoteNumber":71,"Velocity":55,"Duration":53921,"SoundDuration":53921,"Delta":315259604},{"NoteNumber":85,"Velocity":60,"Duration":53921,"SoundDuration":53921,"Delta":315367448},{"NoteNumber":97,"Velocity":76,"Duration":54509,"SoundDuration":54509,"Delta":315475291},{"NoteNumber":49,"Velocity":61,"Duration":108238,"SoundDuration":108238,"Delta":315475291},{"NoteNumber":85,"Velocity":49,"Duration":53728,"SoundDuration":53728,"Delta":315583530},{"NoteNumber":85,"Velocity":49,"Duration":53921,"SoundDuration":53921,"Delta":315690987},{"NoteNumber":65,"Velocity":47,"Duration":53921,"SoundDuration":53921,"Delta":315690987},{"NoteNumber":61,"Velocity":47,"Duration":53921,"SoundDuration":53921,"Delta":315690987},{"NoteNumber":71,"Velocity":56,"Duration":53921,"SoundDuration":53921,"Delta":315690987},{"NoteNumber":73,"Velocity":49,"Duration":54708,"SoundDuration":54708,"Delta":315799618},{"NoteNumber":85,"Velocity":65,"Duration":53571,"SoundDuration":53571,"Delta":315909035},{"NoteNumber":56,"Velocity":62,"Duration":107142,"SoundDuration":107142,"Delta":315909035},{"NoteNumber":73,"Velocity":48,"Duration":54116,"SoundDuration":54116,"Delta":316016178},{"NoteNumber":73,"Velocity":49,"Duration":54116,"SoundDuration":54116,"Delta":316124411},{"NoteNumber":61,"Velocity":47,"Duration":54116,"SoundDuration":54116,"Delta":316124411},{"NoteNumber":65,"Velocity":47,"Duration":54116,"SoundDuration":54116,"Delta":316124411},{"NoteNumber":71,"Velocity":57,"Duration":54116,"SoundDuration":54116,"Delta":316124411},{"NoteNumber":73,"Velocity":50,"Duration":55110,"SoundDuration":55110,"Delta":316233638},{"NoteNumber":85,"Velocity":62,"Duration":53571,"SoundDuration":53571,"Delta":316343859},{"NoteNumber":49,"Velocity":63,"Duration":107142,"SoundDuration":107142,"Delta":316343859},{"NoteNumber":73,"Velocity":51,"Duration":53571,"SoundDuration":53571,"Delta":316451002},{"NoteNumber":73,"Velocity":51,"Duration":55518,"SoundDuration":55518,"Delta":316558145},{"NoteNumber":65,"Velocity":49,"Duration":55518,"SoundDuration":55518,"Delta":316558145},{"NoteNumber":61,"Velocity":49,"Duration":55518,"SoundDuration":55518,"Delta":316558145},{"NoteNumber":71,"Velocity":58,"Duration":55518,"SoundDuration":55518,"Delta":316558145},{"NoteNumber":73,"Velocity":51,"Duration":55518,"SoundDuration":55518,"Delta":316669182},{"NoteNumber":85,"Velocity":67,"Duration":53003,"SoundDuration":53003,"Delta":316780219},{"NoteNumber":54,"Velocity":65,"Duration":106006,"SoundDuration":106006,"Delta":316780219},{"NoteNumber":73,"Velocity":50,"Duration":53003,"SoundDuration":53003,"Delta":316886226},{"NoteNumber":85,"Velocity":64,"Duration":55724,"SoundDuration":55724,"Delta":316992233},{"NoteNumber":61,"Velocity":49,"Duration":55724,"SoundDuration":55724,"Delta":316992233},{"NoteNumber":70,"Velocity":58,"Duration":55724,"SoundDuration":55724,"Delta":316992233},{"NoteNumber":66,"Velocity":49,"Duration":55724,"SoundDuration":55724,"Delta":316992233},{"NoteNumber":85,"Velocity":63,"Duration":54908,"SoundDuration":54908,"Delta":317102866},{"NoteNumber":97,"Velocity":82,"Duration":52631,"SoundDuration":52631,"Delta":317212684},{"NoteNumber":49,"Velocity":65,"Duration":105263,"SoundDuration":105263,"Delta":317212684},{"NoteNumber":85,"Velocity":61,"Duration":52631,"SoundDuration":52631,"Delta":317317947},{"NoteNumber":85,"Velocity":61,"Duration":52631,"SoundDuration":52631,"Delta":317423211},{"NoteNumber":70,"Velocity":60,"Duration":52631,"SoundDuration":52631,"Delta":317423211},{"NoteNumber":61,"Velocity":50,"Duration":52631,"SoundDuration":52631,"Delta":317423211},{"NoteNumber":66,"Velocity":50,"Duration":52631,"SoundDuration":52631,"Delta":317423211},{"NoteNumber":73,"Velocity":52,"Duration":55110,"SoundDuration":55110,"Delta":317531775},{"NoteNumber":85,"Velocity":69,"Duration":52816,"SoundDuration":52816,"Delta":317641996},{"NoteNumber":54,"Velocity":66,"Duration":105633,"SoundDuration":105633,"Delta":317641996},{"NoteNumber":73,"Velocity":51,"Duration":52816,"SoundDuration":52816,"Delta":317747630},{"NoteNumber":73,"Velocity":53,"Duration":54908,"SoundDuration":54908,"Delta":317853264},{"NoteNumber":70,"Velocity":61,"Duration":54908,"SoundDuration":54908,"Delta":317853264},{"NoteNumber":66,"Velocity":51,"Duration":54908,"SoundDuration":54908,"Delta":317853264},{"NoteNumber":61,"Velocity":51,"Duration":54908,"SoundDuration":54908,"Delta":317853264},{"NoteNumber":73,"Velocity":53,"Duration":54908,"SoundDuration":54908,"Delta":317963081},{"NoteNumber":85,"Velocity":66,"Duration":52816,"SoundDuration":52816,"Delta":318072899},{"NoteNumber":49,"Velocity":67,"Duration":105633,"SoundDuration":105633,"Delta":318072899},{"NoteNumber":73,"Velocity":54,"Duration":52816,"SoundDuration":52816,"Delta":318178533},{"NoteNumber":73,"Velocity":54,"Duration":55110,"SoundDuration":55110,"Delta":318284167},{"NoteNumber":70,"Velocity":62,"Duration":55110,"SoundDuration":55110,"Delta":318284167},{"NoteNumber":61,"Velocity":51,"Duration":55110,"SoundDuration":55110,"Delta":318284167},{"NoteNumber":66,"Velocity":51,"Duration":55110,"SoundDuration":55110,"Delta":318284167},{"NoteNumber":73,"Velocity":54,"Duration":55110,"SoundDuration":55110,"Delta":318394388},{"NoteNumber":85,"Velocity":71,"Duration":52816,"SoundDuration":52816,"Delta":318504609},{"NoteNumber":56,"Velocity":69,"Duration":105633,"SoundDuration":105633,"Delta":318504609},{"NoteNumber":73,"Velocity":53,"Duration":52816,"SoundDuration":52816,"Delta":318610243},{"NoteNumber":85,"Velocity":68,"Duration":52816,"SoundDuration":52816,"Delta":318715877},{"NoteNumber":65,"Velocity":52,"Duration":52816,"SoundDuration":52816,"Delta":318715877},{"NoteNumber":61,"Velocity":52,"Duration":52816,"SoundDuration":52816,"Delta":318715877},{"NoteNumber":71,"Velocity":62,"Duration":52816,"SoundDuration":52816,"Delta":318715877},{"NoteNumber":85,"Velocity":68,"Duration":54908,"SoundDuration":54908,"Delta":318823602},{"NoteNumber":97,"Velocity":83,"Duration":52447,"SoundDuration":52447,"Delta":318933420},{"NoteNumber":49,"Velocity":69,"Duration":104894,"SoundDuration":104894,"Delta":318933420},{"NoteNumber":85,"Velocity":64,"Duration":52447,"SoundDuration":52447,"Delta":319038315},{"NoteNumber":85,"Velocity":64,"Duration":52447,"SoundDuration":52447,"Delta":319143210},{"NoteNumber":71,"Velocity":63,"Duration":52447,"SoundDuration":52447,"Delta":319143210},{"NoteNumber":61,"Velocity":53,"Duration":52447,"SoundDuration":52447,"Delta":319143210},{"NoteNumber":65,"Velocity":53,"Duration":52447,"SoundDuration":52447,"Delta":319143210},{"NoteNumber":73,"Velocity":56,"Duration":54908,"SoundDuration":54908,"Delta":319250566},{"NoteNumber":85,"Velocity":74,"Duration":52264,"SoundDuration":52264,"Delta":319360384},{"NoteNumber":56,"Velocity":71,"Duration":104529,"SoundDuration":104529,"Delta":319360384},{"NoteNumber":73,"Velocity":56,"Duration":52264,"SoundDuration":52264,"Delta":319464914},{"NoteNumber":85,"Velocity":65,"Duration":53763,"SoundDuration":53763,"Delta":319569443},{"NoteNumber":65,"Velocity":54,"Duration":53763,"SoundDuration":53763,"Delta":319569443},{"NoteNumber":61,"Velocity":54,"Duration":53763,"SoundDuration":53763,"Delta":319569443},{"NoteNumber":71,"Velocity":65,"Duration":53763,"SoundDuration":53763,"Delta":319569443},{"NoteNumber":85,"Velocity":65,"Duration":53763,"SoundDuration":53763,"Delta":319676970},{"NoteNumber":97,"Velocity":83,"Duration":52447,"SoundDuration":52447,"Delta":319784497},{"NoteNumber":49,"Velocity":73,"Duration":104894,"SoundDuration":104894,"Delta":319784497},{"NoteNumber":85,"Velocity":64,"Duration":52447,"SoundDuration":52447,"Delta":319889392},{"NoteNumber":85,"Velocity":64,"Duration":53380,"SoundDuration":53380,"Delta":319995220},{"NoteNumber":65,"Velocity":56,"Duration":53380,"SoundDuration":53380,"Delta":319995220},{"NoteNumber":61,"Velocity":56,"Duration":53380,"SoundDuration":53380,"Delta":319995220},{"NoteNumber":71,"Velocity":67,"Duration":53380,"SoundDuration":53380,"Delta":319995220},{"NoteNumber":73,"Velocity":59,"Duration":53380,"SoundDuration":53380,"Delta":320101982},{"NoteNumber":85,"Velocity":77,"Duration":52083,"SoundDuration":52083,"Delta":320208743},{"NoteNumber":54,"Velocity":75,"Duration":104166,"SoundDuration":104166,"Delta":320208743},{"NoteNumber":73,"Velocity":58,"Duration":52083,"SoundDuration":52083,"Delta":320312910},{"NoteNumber":85,"Velocity":72,"Duration":53191,"SoundDuration":53191,"Delta":320417077},{"NoteNumber":66,"Velocity":57,"Duration":53191,"SoundDuration":53191,"Delta":320417077},{"NoteNumber":61,"Velocity":57,"Duration":53191,"SoundDuration":53191,"Delta":320417077},{"NoteNumber":70,"Velocity":68,"Duration":53191,"SoundDuration":53191,"Delta":320417077},{"NoteNumber":85,"Velocity":72,"Duration":53191,"SoundDuration":53191,"Delta":320523460},{"NoteNumber":97,"Velocity":92,"Duration":52414,"SoundDuration":52414,"Delta":320629843},{"NoteNumber":49,"Velocity":76,"Duration":104317,"SoundDuration":104317,"Delta":320629843},{"NoteNumber":85,"Velocity":68,"Duration":51903,"SoundDuration":51903,"Delta":320734161},{"NoteNumber":85,"Velocity":68,"Duration":53003,"SoundDuration":53003,"Delta":320839067},{"NoteNumber":61,"Velocity":58,"Duration":53003,"SoundDuration":53003,"Delta":320839067},{"NoteNumber":70,"Velocity":70,"Duration":53003,"SoundDuration":53003,"Delta":320839067},{"NoteNumber":66,"Velocity":58,"Duration":53003,"SoundDuration":53003,"Delta":320839067},{"NoteNumber":73,"Velocity":62,"Duration":53003,"SoundDuration":53003,"Delta":320945074},{"NoteNumber":85,"Velocity":80,"Duration":51903,"SoundDuration":51903,"Delta":321051081},{"NoteNumber":54,"Velocity":77,"Duration":104135,"SoundDuration":104135,"Delta":321051081},{"NoteNumber":73,"Velocity":61,"Duration":52232,"SoundDuration":52232,"Delta":321155216},{"NoteNumber":85,"Velocity":72,"Duration":53003,"SoundDuration":53003,"Delta":321259680},{"NoteNumber":70,"Velocity":71,"Duration":53003,"SoundDuration":53003,"Delta":321259680},{"NoteNumber":66,"Velocity":60,"Duration":53003,"SoundDuration":53003,"Delta":321259680},{"NoteNumber":61,"Velocity":60,"Duration":53003,"SoundDuration":53003,"Delta":321259680},{"NoteNumber":85,"Velocity":72,"Duration":53003,"SoundDuration":53003,"Delta":321365687},{"NoteNumber":97,"Velocity":93,"Duration":51903,"SoundDuration":51903,"Delta":321471694},{"NoteNumber":49,"Velocity":79,"Duration":103806,"SoundDuration":103806,"Delta":321471694},{"NoteNumber":85,"Velocity":76,"Duration":51903,"SoundDuration":51903,"Delta":321575501},{"NoteNumber":85,"Velocity":76,"Duration":56565,"SoundDuration":56565,"Delta":321683969},{"NoteNumber":61,"Velocity":61,"Duration":56565,"SoundDuration":56565,"Delta":321683969},{"NoteNumber":66,"Velocity":61,"Duration":56565,"SoundDuration":56565,"Delta":321683969},{"NoteNumber":70,"Velocity":72,"Duration":56565,"SoundDuration":56565,"Delta":321683969},{"NoteNumber":73,"Velocity":63,"Duration":73177,"SoundDuration":73177,"Delta":321797100},{"NoteNumber":84,"Velocity":85,"Duration":68813,"SoundDuration":68813,"Delta":321943456},{"NoteNumber":72,"Velocity":72,"Duration":68813,"SoundDuration":68813,"Delta":321943456},{"NoteNumber":77,"Velocity":72,"Duration":68813,"SoundDuration":68813,"Delta":321943456},{"NoteNumber":44,"Velocity":61,"Duration":68813,"SoundDuration":68813,"Delta":321943456},{"NoteNumber":56,"Velocity":73,"Duration":68813,"SoundDuration":68813,"Delta":321943456},{"NoteNumber":85,"Velocity":81,"Duration":125522,"SoundDuration":125522,"Delta":322218710},{"NoteNumber":73,"Velocity":68,"Duration":125522,"SoundDuration":125522,"Delta":322218710},{"NoteNumber":80,"Velocity":68,"Duration":125522,"SoundDuration":125522,"Delta":322218710},{"NoteNumber":61,"Velocity":57,"Duration":125522,"SoundDuration":125522,"Delta":322218710},{"NoteNumber":56,"Velocity":57,"Duration":125522,"SoundDuration":125522,"Delta":322218710},{"NoteNumber":65,"Velocity":68,"Duration":125522,"SoundDuration":125522,"Delta":322218710},{"NoteNumber":83,"Velocity":85,"Duration":348837,"SoundDuration":348837,"Delta":322469756},{"NoteNumber":77,"Velocity":72,"Duration":348837,"SoundDuration":348837,"Delta":322469756},{"NoteNumber":71,"Velocity":72,"Duration":348837,"SoundDuration":348837,"Delta":322469756},{"NoteNumber":37,"Velocity":61,"Duration":116279,"SoundDuration":116279,"Delta":322469756},{"NoteNumber":49,"Velocity":73,"Duration":116279,"SoundDuration":116279,"Delta":322469756},{"NoteNumber":61,"Velocity":58,"Duration":116279,"SoundDuration":116279,"Delta":322702314},{"NoteNumber":56,"Velocity":58,"Duration":116279,"SoundDuration":116279,"Delta":322702314},{"NoteNumber":65,"Velocity":69,"Duration":116279,"SoundDuration":116279,"Delta":322702314},{"NoteNumber":85,"Velocity":79,"Duration":117105,"SoundDuration":117105,"Delta":322818593},{"NoteNumber":73,"Velocity":67,"Duration":117105,"SoundDuration":117105,"Delta":322818593},{"NoteNumber":72,"Velocity":72,"Duration":58593,"SoundDuration":58593,"Delta":322935698},{"NoteNumber":77,"Velocity":72,"Duration":58593,"SoundDuration":58593,"Delta":322935698},{"NoteNumber":84,"Velocity":85,"Duration":58593,"SoundDuration":58593,"Delta":322935698},{"NoteNumber":44,"Velocity":61,"Duration":58593,"SoundDuration":58593,"Delta":322935698},{"NoteNumber":56,"Velocity":73,"Duration":58593,"SoundDuration":58593,"Delta":322935698},{"NoteNumber":85,"Velocity":81,"Duration":117187,"SoundDuration":117187,"Delta":323170073},{"NoteNumber":73,"Velocity":68,"Duration":117187,"SoundDuration":117187,"Delta":323170073},{"NoteNumber":80,"Velocity":68,"Duration":117187,"SoundDuration":117187,"Delta":323170073},{"NoteNumber":56,"Velocity":57,"Duration":117187,"SoundDuration":117187,"Delta":323170073},{"NoteNumber":61,"Velocity":57,"Duration":117187,"SoundDuration":117187,"Delta":323170073},{"NoteNumber":65,"Velocity":68,"Duration":117187,"SoundDuration":117187,"Delta":323170073},{"NoteNumber":77,"Velocity":72,"Duration":343511,"SoundDuration":343511,"Delta":323404448},{"NoteNumber":71,"Velocity":72,"Duration":343511,"SoundDuration":343511,"Delta":323404448},{"NoteNumber":83,"Velocity":85,"Duration":343511,"SoundDuration":343511,"Delta":323404448},{"NoteNumber":37,"Velocity":61,"Duration":114503,"SoundDuration":114503,"Delta":323404448},{"NoteNumber":49,"Velocity":73,"Duration":114503,"SoundDuration":114503,"Delta":323404448},{"NoteNumber":65,"Velocity":69,"Duration":114503,"SoundDuration":114503,"Delta":323633456},{"NoteNumber":61,"Velocity":58,"Duration":114503,"SoundDuration":114503,"Delta":323633456},{"NoteNumber":56,"Velocity":58,"Duration":114503,"SoundDuration":114503,"Delta":323633456},{"NoteNumber":73,"Velocity":67,"Duration":119522,"SoundDuration":119522,"Delta":323747960},{"NoteNumber":85,"Velocity":79,"Duration":119522,"SoundDuration":119522,"Delta":323747960},{"NoteNumber":81,"Velocity":72,"Duration":57251,"SoundDuration":57251,"Delta":323867482},{"NoteNumber":72,"Velocity":72,"Duration":57251,"SoundDuration":57251,"Delta":323867482},{"NoteNumber":84,"Velocity":85,"Duration":57251,"SoundDuration":57251,"Delta":323867482},{"NoteNumber":54,"Velocity":73,"Duration":57251,"SoundDuration":57251,"Delta":323867482},{"NoteNumber":42,"Velocity":61,"Duration":57251,"SoundDuration":57251,"Delta":323867482},{"NoteNumber":73,"Velocity":68,"Duration":114503,"SoundDuration":114503,"Delta":324096489},{"NoteNumber":85,"Velocity":81,"Duration":114503,"SoundDuration":114503,"Delta":324096489},{"NoteNumber":82,"Velocity":68,"Duration":114503,"SoundDuration":114503,"Delta":324096489},{"NoteNumber":61,"Velocity":57,"Duration":114503,"SoundDuration":114503,"Delta":324096489},{"NoteNumber":66,"Velocity":68,"Duration":114503,"SoundDuration":114503,"Delta":324096489},{"NoteNumber":58,"Velocity":57,"Duration":114503,"SoundDuration":114503,"Delta":324096489},{"NoteNumber":70,"Velocity":72,"Duration":337078,"SoundDuration":337078,"Delta":324325497},{"NoteNumber":78,"Velocity":72,"Duration":337078,"SoundDuration":337078,"Delta":324325497},{"NoteNumber":82,"Velocity":85,"Duration":337078,"SoundDuration":337078,"Delta":324325497},{"NoteNumber":49,"Velocity":73,"Duration":112359,"SoundDuration":112359,"Delta":324325497},{"NoteNumber":37,"Velocity":61,"Duration":112359,"SoundDuration":112359,"Delta":324325497},{"NoteNumber":61,"Velocity":58,"Duration":112359,"SoundDuration":112359,"Delta":324550216},{"NoteNumber":58,"Velocity":58,"Duration":112359,"SoundDuration":112359,"Delta":324550216},{"NoteNumber":66,"Velocity":69,"Duration":112359,"SoundDuration":112359,"Delta":324550216},{"NoteNumber":85,"Velocity":79,"Duration":111110,"SoundDuration":111110,"Delta":324662575},{"NoteNumber":73,"Velocity":67,"Duration":111110,"SoundDuration":111110,"Delta":324662575},{"NoteNumber":82,"Velocity":67,"Duration":111110,"SoundDuration":111110,"Delta":324662575},{"NoteNumber":84,"Velocity":85,"Duration":56779,"SoundDuration":56779,"Delta":324773686},{"NoteNumber":81,"Velocity":72,"Duration":56779,"SoundDuration":56779,"Delta":324773686},{"NoteNumber":72,"Velocity":72,"Duration":56779,"SoundDuration":56779,"Delta":324773686},{"NoteNumber":54,"Velocity":73,"Duration":56779,"SoundDuration":56779,"Delta":324773686},{"NoteNumber":42,"Velocity":61,"Duration":56779,"SoundDuration":56779,"Delta":324773686},{"NoteNumber":82,"Velocity":68,"Duration":113559,"SoundDuration":113559,"Delta":325000804},{"NoteNumber":85,"Velocity":81,"Duration":113559,"SoundDuration":113559,"Delta":325000804},{"NoteNumber":73,"Velocity":68,"Duration":113559,"SoundDuration":113559,"Delta":325000804},{"NoteNumber":61,"Velocity":57,"Duration":113559,"SoundDuration":113559,"Delta":325000804},{"NoteNumber":58,"Velocity":57,"Duration":113559,"SoundDuration":113559,"Delta":325000804},{"NoteNumber":66,"Velocity":68,"Duration":113559,"SoundDuration":113559,"Delta":325000804},{"NoteNumber":78,"Velocity":72,"Duration":336851,"SoundDuration":336851,"Delta":325227922},{"NoteNumber":82,"Velocity":85,"Duration":336851,"SoundDuration":336851,"Delta":325227922},{"NoteNumber":70,"Velocity":72,"Duration":336851,"SoundDuration":336851,"Delta":325227922},{"NoteNumber":37,"Velocity":61,"Duration":112283,"SoundDuration":112283,"Delta":325227922},{"NoteNumber":49,"Velocity":73,"Duration":112283,"SoundDuration":112283,"Delta":325227922},{"NoteNumber":58,"Velocity":58,"Duration":112283,"SoundDuration":112283,"Delta":325452490},{"NoteNumber":61,"Velocity":58,"Duration":112283,"SoundDuration":112283,"Delta":325452490},{"NoteNumber":66,"Velocity":69,"Duration":112283,"SoundDuration":112283,"Delta":325452490},{"NoteNumber":73,"Velocity":67,"Duration":113990,"SoundDuration":113990,"Delta":325564773},{"NoteNumber":85,"Velocity":79,"Duration":113990,"SoundDuration":113990,"Delta":325564773},{"NoteNumber":84,"Velocity":85,"Duration":55932,"SoundDuration":55932,"Delta":325678764},{"NoteNumber":72,"Velocity":72,"Duration":55932,"SoundDuration":55932,"Delta":325678764},{"NoteNumber":44,"Velocity":61,"Duration":55932,"SoundDuration":55932,"Delta":325678764},{"NoteNumber":56,"Velocity":73,"Duration":55932,"SoundDuration":55932,"Delta":325678764},{"NoteNumber":73,"Velocity":68,"Duration":113130,"SoundDuration":113130,"Delta":325902494},{"NoteNumber":80,"Velocity":68,"Duration":113130,"SoundDuration":113130,"Delta":325902494},{"NoteNumber":85,"Velocity":81,"Duration":113130,"SoundDuration":113130,"Delta":325902494},{"NoteNumber":61,"Velocity":57,"Duration":113130,"SoundDuration":113130,"Delta":325902494},{"NoteNumber":65,"Velocity":68,"Duration":113130,"SoundDuration":113130,"Delta":325902494},{"NoteNumber":87,"Velocity":85,"Duration":336851,"SoundDuration":336851,"Delta":326128756},{"NoteNumber":83,"Velocity":72,"Duration":336851,"SoundDuration":336851,"Delta":326128756},{"NoteNumber":75,"Velocity":72,"Duration":336851,"SoundDuration":336851,"Delta":326128756},{"NoteNumber":37,"Velocity":61,"Duration":112283,"SoundDuration":112283,"Delta":326128756},{"NoteNumber":49,"Velocity":73,"Duration":112283,"SoundDuration":112283,"Delta":326128756},{"NoteNumber":65,"Velocity":69,"Duration":112283,"SoundDuration":112283,"Delta":326353323},{"NoteNumber":61,"Velocity":58,"Duration":112283,"SoundDuration":112283,"Delta":326353323},{"NoteNumber":59,"Velocity":58,"Duration":112283,"SoundDuration":112283,"Delta":326353323},{"NoteNumber":73,"Velocity":67,"Duration":114425,"SoundDuration":114425,"Delta":326465607},{"NoteNumber":85,"Velocity":79,"Duration":114425,"SoundDuration":114425,"Delta":326465607},{"NoteNumber":80,"Velocity":67,"Duration":114425,"SoundDuration":114425,"Delta":326465607},{"NoteNumber":72,"Velocity":72,"Duration":55932,"SoundDuration":55932,"Delta":326580032},{"NoteNumber":84,"Velocity":85,"Duration":55932,"SoundDuration":55932,"Delta":326580032},{"NoteNumber":44,"Velocity":61,"Duration":55932,"SoundDuration":55932,"Delta":326580032},{"NoteNumber":56,"Velocity":73,"Duration":55932,"SoundDuration":55932,"Delta":326580032},{"NoteNumber":73,"Velocity":68,"Duration":113130,"SoundDuration":113130,"Delta":326803763},{"NoteNumber":85,"Velocity":81,"Duration":113130,"SoundDuration":113130,"Delta":326803763},{"NoteNumber":80,"Velocity":68,"Duration":113130,"SoundDuration":113130,"Delta":326803763},{"NoteNumber":59,"Velocity":57,"Duration":113130,"SoundDuration":113130,"Delta":326803763},{"NoteNumber":61,"Velocity":57,"Duration":113130,"SoundDuration":113130,"Delta":326803763},{"NoteNumber":65,"Velocity":68,"Duration":113130,"SoundDuration":113130,"Delta":326803763},{"NoteNumber":75,"Velocity":72,"Duration":336851,"SoundDuration":336851,"Delta":327030024},{"NoteNumber":87,"Velocity":85,"Duration":336851,"SoundDuration":336851,"Delta":327030024},{"NoteNumber":83,"Velocity":72,"Duration":336851,"SoundDuration":336851,"Delta":327030024},{"NoteNumber":49,"Velocity":73,"Duration":112283,"SoundDuration":112283,"Delta":327030024},{"NoteNumber":37,"Velocity":61,"Duration":112283,"SoundDuration":112283,"Delta":327030024},{"NoteNumber":59,"Velocity":58,"Duration":112283,"SoundDuration":112283,"Delta":327254592},{"NoteNumber":61,"Velocity":58,"Duration":112283,"SoundDuration":112283,"Delta":327254592},{"NoteNumber":65,"Velocity":69,"Duration":112283,"SoundDuration":112283,"Delta":327254592},{"NoteNumber":73,"Velocity":67,"Duration":114425,"SoundDuration":114425,"Delta":327366876},{"NoteNumber":80,"Velocity":67,"Duration":114425,"SoundDuration":114425,"Delta":327366876},{"NoteNumber":85,"Velocity":79,"Duration":114425,"SoundDuration":114425,"Delta":327366876},{"NoteNumber":81,"Velocity":72,"Duration":57212,"SoundDuration":57212,"Delta":327481301},{"NoteNumber":84,"Velocity":85,"Duration":57212,"SoundDuration":57212,"Delta":327481301},{"NoteNumber":72,"Velocity":72,"Duration":57212,"SoundDuration":57212,"Delta":327481301},{"NoteNumber":42,"Velocity":61,"Duration":57212,"SoundDuration":57212,"Delta":327481301},{"NoteNumber":54,"Velocity":73,"Duration":57212,"SoundDuration":57212,"Delta":327481301},{"NoteNumber":82,"Velocity":68,"Duration":112705,"SoundDuration":112705,"Delta":327707572},{"NoteNumber":73,"Velocity":68,"Duration":112705,"SoundDuration":112705,"Delta":327707572},{"NoteNumber":85,"Velocity":81,"Duration":112705,"SoundDuration":112705,"Delta":327707572},{"NoteNumber":66,"Velocity":68,"Duration":112705,"SoundDuration":112705,"Delta":327707572},{"NoteNumber":58,"Velocity":57,"Duration":112705,"SoundDuration":112705,"Delta":327707572},{"NoteNumber":61,"Velocity":57,"Duration":112705,"SoundDuration":112705,"Delta":327707572},{"NoteNumber":90,"Velocity":85,"Duration":336851,"SoundDuration":336851,"Delta":327932984},{"NoteNumber":82,"Velocity":72,"Duration":336851,"SoundDuration":336851,"Delta":327932984},{"NoteNumber":78,"Velocity":72,"Duration":336851,"SoundDuration":336851,"Delta":327932984},{"NoteNumber":49,"Velocity":73,"Duration":112283,"SoundDuration":112283,"Delta":327932984},{"NoteNumber":37,"Velocity":61,"Duration":112283,"SoundDuration":112283,"Delta":327932984},{"NoteNumber":58,"Velocity":58,"Duration":112283,"SoundDuration":112283,"Delta":328157551},{"NoteNumber":66,"Velocity":69,"Duration":112283,"SoundDuration":112283,"Delta":328157551},{"NoteNumber":61,"Velocity":58,"Duration":112283,"SoundDuration":112283,"Delta":328157551},{"NoteNumber":85,"Velocity":79,"Duration":116197,"SoundDuration":116197,"Delta":328269835},{"NoteNumber":73,"Velocity":67,"Duration":116197,"SoundDuration":116197,"Delta":328269835},{"NoteNumber":84,"Velocity":85,"Duration":56141,"SoundDuration":56141,"Delta":328386033},{"NoteNumber":72,"Velocity":72,"Duration":56141,"SoundDuration":56141,"Delta":328386033},{"NoteNumber":81,"Velocity":72,"Duration":56141,"SoundDuration":56141,"Delta":328386033},{"NoteNumber":54,"Velocity":73,"Duration":56141,"SoundDuration":56141,"Delta":328386033},{"NoteNumber":42,"Velocity":61,"Duration":56141,"SoundDuration":56141,"Delta":328386033},{"NoteNumber":73,"Velocity":68,"Duration":112921,"SoundDuration":112921,"Delta":328610600},{"NoteNumber":85,"Velocity":81,"Duration":112921,"SoundDuration":112921,"Delta":328610600},{"NoteNumber":82,"Velocity":68,"Duration":112921,"SoundDuration":112921,"Delta":328610600},{"NoteNumber":58,"Velocity":57,"Duration":112921,"SoundDuration":112921,"Delta":328610600},{"NoteNumber":61,"Velocity":57,"Duration":112921,"SoundDuration":112921,"Delta":328610600},{"NoteNumber":66,"Velocity":68,"Duration":112921,"SoundDuration":112921,"Delta":328610600},{"NoteNumber":90,"Velocity":85,"Duration":342893,"SoundDuration":342893,"Delta":328837081},{"NoteNumber":82,"Velocity":72,"Duration":342893,"SoundDuration":342893,"Delta":328837081},{"NoteNumber":78,"Velocity":72,"Duration":342893,"SoundDuration":342893,"Delta":328837081},{"NoteNumber":37,"Velocity":61,"Duration":112283,"SoundDuration":112283,"Delta":328837081},{"NoteNumber":49,"Velocity":73,"Duration":112283,"SoundDuration":112283,"Delta":328837081},{"NoteNumber":58,"Velocity":58,"Duration":115304,"SoundDuration":115304,"Delta":329064669},{"NoteNumber":61,"Velocity":58,"Duration":115304,"SoundDuration":115304,"Delta":329064669},{"NoteNumber":66,"Velocity":69,"Duration":115304,"SoundDuration":115304,"Delta":329064669},{"NoteNumber":85,"Velocity":72,"Duration":123977,"SoundDuration":123977,"Delta":329179974},{"NoteNumber":73,"Velocity":61,"Duration":123977,"SoundDuration":123977,"Delta":329179974},{"NoteNumber":72,"Velocity":52,"Duration":66377,"SoundDuration":66377,"Delta":329303951},{"NoteNumber":77,"Velocity":52,"Duration":66377,"SoundDuration":66377,"Delta":329303951},{"NoteNumber":84,"Velocity":62,"Duration":66377,"SoundDuration":66377,"Delta":329303951},{"NoteNumber":56,"Velocity":53,"Duration":66377,"SoundDuration":66377,"Delta":329303951},{"NoteNumber":85,"Velocity":59,"Duration":120879,"SoundDuration":120879,"Delta":329569461},{"NoteNumber":80,"Velocity":49,"Duration":120879,"SoundDuration":120879,"Delta":329569461},{"NoteNumber":73,"Velocity":49,"Duration":120879,"SoundDuration":120879,"Delta":329569461},{"NoteNumber":61,"Velocity":41,"Duration":120879,"SoundDuration":120879,"Delta":329569461},{"NoteNumber":65,"Velocity":49,"Duration":120879,"SoundDuration":120879,"Delta":329569461},{"NoteNumber":83,"Velocity":62,"Duration":340677,"SoundDuration":340677,"Delta":329811221},{"NoteNumber":71,"Velocity":52,"Duration":340677,"SoundDuration":340677,"Delta":329811221},{"NoteNumber":77,"Velocity":52,"Duration":340677,"SoundDuration":340677,"Delta":329811221},{"NoteNumber":49,"Velocity":53,"Duration":113559,"SoundDuration":113559,"Delta":329811221},{"NoteNumber":61,"Velocity":42,"Duration":113559,"SoundDuration":113559,"Delta":330038339},{"NoteNumber":56,"Velocity":42,"Duration":113559,"SoundDuration":113559,"Delta":330038339},{"NoteNumber":65,"Velocity":50,"Duration":113559,"SoundDuration":113559,"Delta":330038339},{"NoteNumber":85,"Velocity":57,"Duration":117105,"SoundDuration":117105,"Delta":330151898},{"NoteNumber":73,"Velocity":48,"Duration":117105,"SoundDuration":117105,"Delta":330151898},{"NoteNumber":77,"Velocity":52,"Duration":56779,"SoundDuration":56779,"Delta":330269004},{"NoteNumber":72,"Velocity":52,"Duration":56779,"SoundDuration":56779,"Delta":330269004},{"NoteNumber":84,"Velocity":62,"Duration":56779,"SoundDuration":56779,"Delta":330269004},{"NoteNumber":44,"Velocity":53,"Duration":56779,"SoundDuration":56779,"Delta":330269004},{"NoteNumber":73,"Velocity":49,"Duration":113559,"SoundDuration":113559,"Delta":330496122},{"NoteNumber":80,"Velocity":49,"Duration":113559,"SoundDuration":113559,"Delta":330496122},{"NoteNumber":85,"Velocity":59,"Duration":113559,"SoundDuration":113559,"Delta":330496122},{"NoteNumber":56,"Velocity":41,"Duration":113559,"SoundDuration":113559,"Delta":330496122},{"NoteNumber":65,"Velocity":49,"Duration":113559,"SoundDuration":113559,"Delta":330496122},{"NoteNumber":61,"Velocity":41,"Duration":113559,"SoundDuration":113559,"Delta":330496122},{"NoteNumber":71,"Velocity":52,"Duration":336851,"SoundDuration":336851,"Delta":330723240},{"NoteNumber":83,"Velocity":62,"Duration":336851,"SoundDuration":336851,"Delta":330723240},{"NoteNumber":77,"Velocity":52,"Duration":336851,"SoundDuration":336851,"Delta":330723240},{"NoteNumber":37,"Velocity":53,"Duration":112283,"SoundDuration":112283,"Delta":330723240},{"NoteNumber":65,"Velocity":50,"Duration":112283,"SoundDuration":112283,"Delta":330947807},{"NoteNumber":61,"Velocity":42,"Duration":112283,"SoundDuration":112283,"Delta":330947807},{"NoteNumber":56,"Velocity":42,"Duration":112283,"SoundDuration":112283,"Delta":330947807},{"NoteNumber":85,"Velocity":57,"Duration":116197,"SoundDuration":116197,"Delta":331060091},{"NoteNumber":73,"Velocity":48,"Duration":116197,"SoundDuration":116197,"Delta":331060091},{"NoteNumber":84,"Velocity":62,"Duration":56779,"SoundDuration":56779,"Delta":331176289},{"NoteNumber":81,"Velocity":52,"Duration":56779,"SoundDuration":56779,"Delta":331176289},{"NoteNumber":72,"Velocity":52,"Duration":56779,"SoundDuration":56779,"Delta":331176289},{"NoteNumber":54,"Velocity":53,"Duration":56779,"SoundDuration":56779,"Delta":331176289},{"NoteNumber":85,"Velocity":59,"Duration":113559,"SoundDuration":113559,"Delta":331403407},{"NoteNumber":73,"Velocity":49,"Duration":113559,"SoundDuration":113559,"Delta":331403407},{"NoteNumber":82,"Velocity":49,"Duration":113559,"SoundDuration":113559,"Delta":331403407},{"NoteNumber":58,"Velocity":41,"Duration":113559,"SoundDuration":113559,"Delta":331403407},{"NoteNumber":66,"Velocity":49,"Duration":113559,"SoundDuration":113559,"Delta":331403407},{"NoteNumber":61,"Velocity":41,"Duration":113559,"SoundDuration":113559,"Delta":331403407},{"NoteNumber":70,"Velocity":52,"Duration":336851,"SoundDuration":336851,"Delta":331630525},{"NoteNumber":78,"Velocity":52,"Duration":336851,"SoundDuration":336851,"Delta":331630525},{"NoteNumber":82,"Velocity":62,"Duration":336851,"SoundDuration":336851,"Delta":331630525},{"NoteNumber":49,"Velocity":53,"Duration":112283,"SoundDuration":112283,"Delta":331630525},{"NoteNumber":58,"Velocity":42,"Duration":112283,"SoundDuration":112283,"Delta":331855092},{"NoteNumber":66,"Velocity":50,"Duration":112283,"SoundDuration":112283,"Delta":331855092},{"NoteNumber":61,"Velocity":42,"Duration":112283,"SoundDuration":112283,"Delta":331855092},{"NoteNumber":73,"Velocity":48,"Duration":109817,"SoundDuration":109817,"Delta":331967376},{"NoteNumber":85,"Velocity":57,"Duration":109817,"SoundDuration":109817,"Delta":331967376},{"NoteNumber":81,"Velocity":52,"Duration":56779,"SoundDuration":56779,"Delta":332077194},{"NoteNumber":72,"Velocity":52,"Duration":56779,"SoundDuration":56779,"Delta":332077194},{"NoteNumber":84,"Velocity":62,"Duration":56779,"SoundDuration":56779,"Delta":332077194},{"NoteNumber":42,"Velocity":53,"Duration":56779,"SoundDuration":56779,"Delta":332077194},{"NoteNumber":85,"Velocity":59,"Duration":113559,"SoundDuration":113559,"Delta":332304312},{"NoteNumber":82,"Velocity":49,"Duration":113559,"SoundDuration":113559,"Delta":332304312},{"NoteNumber":73,"Velocity":49,"Duration":113559,"SoundDuration":113559,"Delta":332304312},{"NoteNumber":58,"Velocity":41,"Duration":113559,"SoundDuration":113559,"Delta":332304312},{"NoteNumber":66,"Velocity":49,"Duration":113559,"SoundDuration":113559,"Delta":332304312},{"NoteNumber":61,"Velocity":41,"Duration":113559,"SoundDuration":113559,"Delta":332304312},{"NoteNumber":82,"Velocity":62,"Duration":336851,"SoundDuration":336851,"Delta":332531430},{"NoteNumber":70,"Velocity":52,"Duration":336851,"SoundDuration":336851,"Delta":332531430},{"NoteNumber":78,"Velocity":52,"Duration":336851,"SoundDuration":336851,"Delta":332531430},{"NoteNumber":37,"Velocity":53,"Duration":112283,"SoundDuration":112283,"Delta":332531430},{"NoteNumber":58,"Velocity":42,"Duration":112283,"SoundDuration":112283,"Delta":332755997},{"NoteNumber":61,"Velocity":42,"Duration":112283,"SoundDuration":112283,"Delta":332755997},{"NoteNumber":66,"Velocity":50,"Duration":112283,"SoundDuration":112283,"Delta":332755997},{"NoteNumber":85,"Velocity":57,"Duration":113990,"SoundDuration":113990,"Delta":332868281},{"NoteNumber":73,"Velocity":48,"Duration":113990,"SoundDuration":113990,"Delta":332868281},{"NoteNumber":84,"Velocity":62,"Duration":55932,"SoundDuration":55932,"Delta":332982272},{"NoteNumber":72,"Velocity":52,"Duration":55932,"SoundDuration":55932,"Delta":332982272},{"NoteNumber":56,"Velocity":53,"Duration":55932,"SoundDuration":55932,"Delta":332982272},{"NoteNumber":85,"Velocity":59,"Duration":113130,"SoundDuration":113130,"Delta":333206002},{"NoteNumber":73,"Velocity":49,"Duration":113130,"SoundDuration":113130,"Delta":333206002},{"NoteNumber":80,"Velocity":49,"Duration":113130,"SoundDuration":113130,"Delta":333206002},{"NoteNumber":65,"Velocity":49,"Duration":113130,"SoundDuration":113130,"Delta":333206002},{"NoteNumber":61,"Velocity":41,"Duration":113130,"SoundDuration":113130,"Delta":333206002},{"NoteNumber":83,"Velocity":52,"Duration":336851,"SoundDuration":336851,"Delta":333432264},{"NoteNumber":75,"Velocity":52,"Duration":336851,"SoundDuration":336851,"Delta":333432264},{"NoteNumber":87,"Velocity":62,"Duration":336851,"SoundDuration":336851,"Delta":333432264},{"NoteNumber":49,"Velocity":53,"Duration":112283,"SoundDuration":112283,"Delta":333432264},{"NoteNumber":65,"Velocity":50,"Duration":112283,"SoundDuration":112283,"Delta":333656831},{"NoteNumber":56,"Velocity":42,"Duration":112283,"SoundDuration":112283,"Delta":333656831},{"NoteNumber":61,"Velocity":42,"Duration":112283,"SoundDuration":112283,"Delta":333656831},{"NoteNumber":85,"Velocity":57,"Duration":114425,"SoundDuration":114425,"Delta":333769115},{"NoteNumber":80,"Velocity":48,"Duration":114425,"SoundDuration":114425,"Delta":333769115},{"NoteNumber":73,"Velocity":48,"Duration":114425,"SoundDuration":114425,"Delta":333769115},{"NoteNumber":84,"Velocity":62,"Duration":55932,"SoundDuration":55932,"Delta":333883540},{"NoteNumber":72,"Velocity":52,"Duration":55932,"SoundDuration":55932,"Delta":333883540},{"NoteNumber":44,"Velocity":53,"Duration":55932,"SoundDuration":55932,"Delta":333883540},{"NoteNumber":85,"Velocity":59,"Duration":112705,"SoundDuration":112705,"Delta":334108531},{"NoteNumber":80,"Velocity":49,"Duration":112705,"SoundDuration":112705,"Delta":334108531},{"NoteNumber":73,"Velocity":49,"Duration":112705,"SoundDuration":112705,"Delta":334108531},{"NoteNumber":61,"Velocity":41,"Duration":112705,"SoundDuration":112705,"Delta":334108531},{"NoteNumber":65,"Velocity":49,"Duration":112705,"SoundDuration":112705,"Delta":334108531},{"NoteNumber":56,"Velocity":41,"Duration":112705,"SoundDuration":112705,"Delta":334108531},{"NoteNumber":87,"Velocity":62,"Duration":336851,"SoundDuration":336851,"Delta":334333943},{"NoteNumber":83,"Velocity":52,"Duration":336851,"SoundDuration":336851,"Delta":334333943},{"NoteNumber":75,"Velocity":52,"Duration":336851,"SoundDuration":336851,"Delta":334333943},{"NoteNumber":37,"Velocity":53,"Duration":112283,"SoundDuration":112283,"Delta":334333943},{"NoteNumber":61,"Velocity":42,"Duration":112283,"SoundDuration":112283,"Delta":334558510},{"NoteNumber":65,"Velocity":50,"Duration":112283,"SoundDuration":112283,"Delta":334558510},{"NoteNumber":56,"Velocity":42,"Duration":112283,"SoundDuration":112283,"Delta":334558510},{"NoteNumber":80,"Velocity":48,"Duration":116197,"SoundDuration":116197,"Delta":334670794},{"NoteNumber":73,"Velocity":48,"Duration":116197,"SoundDuration":116197,"Delta":334670794},{"NoteNumber":85,"Velocity":57,"Duration":116197,"SoundDuration":116197,"Delta":334670794},{"NoteNumber":84,"Velocity":62,"Duration":56141,"SoundDuration":56141,"Delta":334786992},{"NoteNumber":72,"Velocity":52,"Duration":56141,"SoundDuration":56141,"Delta":334786992},{"NoteNumber":81,"Velocity":52,"Duration":56141,"SoundDuration":56141,"Delta":334786992},{"NoteNumber":54,"Velocity":53,"Duration":56141,"SoundDuration":56141,"Delta":334786992},{"NoteNumber":73,"Velocity":49,"Duration":112921,"SoundDuration":112921,"Delta":335011560},{"NoteNumber":85,"Velocity":59,"Duration":112921,"SoundDuration":112921,"Delta":335011560},{"NoteNumber":82,"Velocity":49,"Duration":112921,"SoundDuration":112921,"Delta":335011560},{"NoteNumber":61,"Velocity":41,"Duration":112921,"SoundDuration":112921,"Delta":335011560},{"NoteNumber":58,"Velocity":41,"Duration":112921,"SoundDuration":112921,"Delta":335011560},{"NoteNumber":66,"Velocity":49,"Duration":112921,"SoundDuration":112921,"Delta":335011560},{"NoteNumber":90,"Velocity":62,"Duration":336851,"SoundDuration":336851,"Delta":335238040},{"NoteNumber":82,"Velocity":52,"Duration":336851,"SoundDuration":336851,"Delta":335238040},{"NoteNumber":78,"Velocity":52,"Duration":336851,"SoundDuration":336851,"Delta":335238040},{"NoteNumber":49,"Velocity":53,"Duration":112283,"SoundDuration":112283,"Delta":335238040},{"NoteNumber":66,"Velocity":50,"Duration":112283,"SoundDuration":112283,"Delta":335462607},{"NoteNumber":58,"Velocity":42,"Duration":112283,"SoundDuration":112283,"Delta":335462607},{"NoteNumber":61,"Velocity":42,"Duration":112283,"SoundDuration":112283,"Delta":335462607},{"NoteNumber":85,"Velocity":57,"Duration":116197,"SoundDuration":116197,"Delta":335574891},{"NoteNumber":73,"Velocity":48,"Duration":116197,"SoundDuration":116197,"Delta":335574891},{"NoteNumber":84,"Velocity":62,"Duration":56141,"SoundDuration":56141,"Delta":335691089},{"NoteNumber":72,"Velocity":52,"Duration":56141,"SoundDuration":56141,"Delta":335691089},{"NoteNumber":81,"Velocity":52,"Duration":56141,"SoundDuration":56141,"Delta":335691089},{"NoteNumber":42,"Velocity":53,"Duration":56141,"SoundDuration":56141,"Delta":335691089},{"NoteNumber":85,"Velocity":59,"Duration":112921,"SoundDuration":112921,"Delta":335915657},{"NoteNumber":82,"Velocity":49,"Duration":112921,"SoundDuration":112921,"Delta":335915657},{"NoteNumber":73,"Velocity":49,"Duration":112921,"SoundDuration":112921,"Delta":335915657},{"NoteNumber":61,"Velocity":41,"Duration":112921,"SoundDuration":112921,"Delta":335915657},{"NoteNumber":58,"Velocity":41,"Duration":112921,"SoundDuration":112921,"Delta":335915657},{"NoteNumber":66,"Velocity":49,"Duration":112921,"SoundDuration":112921,"Delta":335915657},{"NoteNumber":82,"Velocity":52,"Duration":336851,"SoundDuration":336851,"Delta":336142137},{"NoteNumber":90,"Velocity":62,"Duration":336851,"SoundDuration":336851,"Delta":336142137},{"NoteNumber":78,"Velocity":52,"Duration":336851,"SoundDuration":336851,"Delta":336142137},{"NoteNumber":37,"Velocity":53,"Duration":112283,"SoundDuration":112283,"Delta":336142137},{"NoteNumber":58,"Velocity":42,"Duration":112283,"SoundDuration":112283,"Delta":336366705},{"NoteNumber":61,"Velocity":42,"Duration":112283,"SoundDuration":112283,"Delta":336366705},{"NoteNumber":66,"Velocity":50,"Duration":112283,"SoundDuration":112283,"Delta":336366705},{"NoteNumber":85,"Velocity":57,"Duration":116197,"SoundDuration":116197,"Delta":336478988},{"NoteNumber":73,"Velocity":48,"Duration":116197,"SoundDuration":116197,"Delta":336478988},{"NoteNumber":87,"Velocity":64,"Duration":76535,"SoundDuration":76535,"Delta":336595186},{"NoteNumber":83,"Velocity":49,"Duration":76535,"SoundDuration":76535,"Delta":336595186},{"NoteNumber":75,"Velocity":49,"Duration":76535,"SoundDuration":76535,"Delta":336595186},{"NoteNumber":54,"Velocity":42,"Duration":76535,"SoundDuration":76535,"Delta":336595186},{"NoteNumber":83,"Velocity":56,"Duration":78676,"SoundDuration":78676,"Delta":336799282},{"NoteNumber":78,"Velocity":44,"Duration":78676,"SoundDuration":78676,"Delta":336799282},{"NoteNumber":59,"Velocity":29,"Duration":78676,"SoundDuration":78676,"Delta":336799282},{"NoteNumber":63,"Velocity":35,"Duration":78676,"SoundDuration":78676,"Delta":336799282},{"NoteNumber":75,"Velocity":44,"Duration":79736,"SoundDuration":79736,"Delta":337009087},{"NoteNumber":78,"Velocity":56,"Duration":79736,"SoundDuration":79736,"Delta":337009087},{"NoteNumber":49,"Velocity":33,"Duration":79736,"SoundDuration":79736,"Delta":337009087},{"NoteNumber":71,"Velocity":44,"Duration":78076,"SoundDuration":78076,"Delta":337221717},{"NoteNumber":75,"Velocity":56,"Duration":78076,"SoundDuration":78076,"Delta":337221717},{"NoteNumber":66,"Velocity":33,"Duration":78076,"SoundDuration":78076,"Delta":337221717},{"NoteNumber":63,"Velocity":28,"Duration":78076,"SoundDuration":78076,"Delta":337221717},{"NoteNumber":75,"Velocity":44,"Duration":78621,"SoundDuration":78621,"Delta":337429920},{"NoteNumber":78,"Velocity":56,"Duration":78621,"SoundDuration":78621,"Delta":337429920},{"NoteNumber":54,"Velocity":42,"Duration":78621,"SoundDuration":78621,"Delta":337429920},{"NoteNumber":78,"Velocity":46,"Duration":78621,"SoundDuration":78621,"Delta":337639578},{"NoteNumber":83,"Velocity":58,"Duration":78621,"SoundDuration":78621,"Delta":337639578},{"NoteNumber":63,"Velocity":36,"Duration":78621,"SoundDuration":78621,"Delta":337639578},{"NoteNumber":59,"Velocity":30,"Duration":78621,"SoundDuration":78621,"Delta":337639578},{"NoteNumber":83,"Velocity":48,"Duration":77271,"SoundDuration":77271,"Delta":337849237},{"NoteNumber":87,"Velocity":60,"Duration":77271,"SoundDuration":77271,"Delta":337849237},{"NoteNumber":49,"Velocity":36,"Duration":77271,"SoundDuration":77271,"Delta":337849237},{"NoteNumber":90,"Velocity":62,"Duration":79736,"SoundDuration":79736,"Delta":338055295},{"NoteNumber":87,"Velocity":49,"Duration":79736,"SoundDuration":79736,"Delta":338055295},{"NoteNumber":63,"Velocity":30,"Duration":79736,"SoundDuration":79736,"Delta":338055295},{"NoteNumber":66,"Velocity":36,"Duration":79736,"SoundDuration":79736,"Delta":338055295},{"NoteNumber":73,"Velocity":51,"Duration":75762,"SoundDuration":75762,"Delta":338267925},{"NoteNumber":82,"Velocity":51,"Duration":75762,"SoundDuration":75762,"Delta":338267925},{"NoteNumber":85,"Velocity":64,"Duration":75762,"SoundDuration":75762,"Delta":338267925},{"NoteNumber":54,"Velocity":42,"Duration":75762,"SoundDuration":75762,"Delta":338267925},{"NoteNumber":78,"Velocity":44,"Duration":77591,"SoundDuration":77591,"Delta":338469959},{"NoteNumber":82,"Velocity":55,"Duration":77591,"SoundDuration":77591,"Delta":338469959},{"NoteNumber":61,"Velocity":36,"Duration":77591,"SoundDuration":77591,"Delta":338469959},{"NoteNumber":58,"Velocity":30,"Duration":77591,"SoundDuration":77591,"Delta":338469959},{"NoteNumber":78,"Velocity":55,"Duration":78897,"SoundDuration":78897,"Delta":338676870},{"NoteNumber":73,"Velocity":44,"Duration":78897,"SoundDuration":78897,"Delta":338676870},{"NoteNumber":49,"Velocity":36,"Duration":78897,"SoundDuration":78897,"Delta":338676870},{"NoteNumber":70,"Velocity":44,"Duration":80019,"SoundDuration":80019,"Delta":338887263},{"NoteNumber":73,"Velocity":55,"Duration":80019,"SoundDuration":80019,"Delta":338887263},{"NoteNumber":66,"Velocity":36,"Duration":80019,"SoundDuration":80019,"Delta":338887263},{"NoteNumber":61,"Velocity":30,"Duration":80019,"SoundDuration":80019,"Delta":338887263},{"NoteNumber":73,"Velocity":45,"Duration":78348,"SoundDuration":78348,"Delta":339100650},{"NoteNumber":78,"Velocity":57,"Duration":78348,"SoundDuration":78348,"Delta":339100650},{"NoteNumber":54,"Velocity":42,"Duration":78348,"SoundDuration":78348,"Delta":339100650},{"NoteNumber":78,"Velocity":44,"Duration":78348,"SoundDuration":78348,"Delta":339309578},{"NoteNumber":82,"Velocity":56,"Duration":78348,"SoundDuration":78348,"Delta":339309578},{"NoteNumber":58,"Velocity":30,"Duration":78348,"SoundDuration":78348,"Delta":339309578},{"NoteNumber":61,"Velocity":37,"Duration":78348,"SoundDuration":78348,"Delta":339309578},{"NoteNumber":73,"Velocity":49,"Duration":262991,"SoundDuration":262991,"Delta":339518506},{"NoteNumber":82,"Velocity":49,"Duration":262991,"SoundDuration":262991,"Delta":339518506},{"NoteNumber":78,"Velocity":49,"Duration":262991,"SoundDuration":262991,"Delta":339518506},{"NoteNumber":85,"Velocity":62,"Duration":262991,"SoundDuration":262991,"Delta":339518506},{"NoteNumber":49,"Velocity":37,"Duration":105196,"SoundDuration":105196,"Delta":339518506},{"NoteNumber":61,"Velocity":31,"Duration":105196,"SoundDuration":105196,"Delta":339728899},{"NoteNumber":66,"Velocity":37,"Duration":105196,"SoundDuration":105196,"Delta":339728899},{"NoteNumber":75,"Velocity":49,"Duration":182345,"SoundDuration":182345,"Delta":339860395},{"NoteNumber":78,"Velocity":49,"Duration":156046,"SoundDuration":156046,"Delta":339886694},{"NoteNumber":83,"Velocity":49,"Duration":129747,"SoundDuration":129747,"Delta":339912994},{"NoteNumber":87,"Velocity":64,"Duration":103448,"SoundDuration":103448,"Delta":339939293},{"NoteNumber":54,"Velocity":42,"Duration":103448,"SoundDuration":103448,"Delta":339939293},{"NoteNumber":78,"Velocity":44,"Duration":77586,"SoundDuration":77586,"Delta":340146189},{"NoteNumber":83,"Velocity":56,"Duration":77586,"SoundDuration":77586,"Delta":340146189},{"NoteNumber":63,"Velocity":35,"Duration":77586,"SoundDuration":77586,"Delta":340146189},{"NoteNumber":59,"Velocity":29,"Duration":77586,"SoundDuration":77586,"Delta":340146189},{"NoteNumber":75,"Velocity":44,"Duration":79505,"SoundDuration":79505,"Delta":340353086},{"NoteNumber":78,"Velocity":56,"Duration":79505,"SoundDuration":79505,"Delta":340353086},{"NoteNumber":49,"Velocity":33,"Duration":79505,"SoundDuration":79505,"Delta":340353086},{"NoteNumber":75,"Velocity":56,"Duration":77586,"SoundDuration":77586,"Delta":340565408},{"NoteNumber":71,"Velocity":44,"Duration":77586,"SoundDuration":77586,"Delta":340565408},{"NoteNumber":63,"Velocity":28,"Duration":77586,"SoundDuration":77586,"Delta":340565408},{"NoteNumber":66,"Velocity":33,"Duration":77586,"SoundDuration":77586,"Delta":340565408},{"NoteNumber":75,"Velocity":44,"Duration":77854,"SoundDuration":77854,"Delta":340772304},{"NoteNumber":78,"Velocity":56,"Duration":77854,"SoundDuration":77854,"Delta":340772304},{"NoteNumber":54,"Velocity":42,"Duration":77854,"SoundDuration":77854,"Delta":340772304},{"NoteNumber":83,"Velocity":58,"Duration":77854,"SoundDuration":77854,"Delta":340979917},{"NoteNumber":78,"Velocity":46,"Duration":77854,"SoundDuration":77854,"Delta":340979917},{"NoteNumber":59,"Velocity":30,"Duration":77854,"SoundDuration":77854,"Delta":340979917},{"NoteNumber":63,"Velocity":36,"Duration":77854,"SoundDuration":77854,"Delta":340979917},{"NoteNumber":83,"Velocity":48,"Duration":76013,"SoundDuration":76013,"Delta":341187529},{"NoteNumber":87,"Velocity":60,"Duration":76013,"SoundDuration":76013,"Delta":341187529},{"NoteNumber":49,"Velocity":36,"Duration":76013,"SoundDuration":76013,"Delta":341187529},{"NoteNumber":90,"Velocity":62,"Duration":77054,"SoundDuration":77054,"Delta":341390232},{"NoteNumber":87,"Velocity":49,"Duration":77054,"SoundDuration":77054,"Delta":341390232},{"NoteNumber":66,"Velocity":36,"Duration":77054,"SoundDuration":77054,"Delta":341390232},{"NoteNumber":63,"Velocity":30,"Duration":77054,"SoundDuration":77054,"Delta":341390232},{"NoteNumber":82,"Velocity":51,"Duration":78094,"SoundDuration":78094,"Delta":341595711},{"NoteNumber":85,"Velocity":64,"Duration":78094,"SoundDuration":78094,"Delta":341595711},{"NoteNumber":54,"Velocity":42,"Duration":78094,"SoundDuration":78094,"Delta":341595711},{"NoteNumber":78,"Velocity":44,"Duration":77586,"SoundDuration":77586,"Delta":341803116},{"NoteNumber":82,"Velocity":55,"Duration":77586,"SoundDuration":77586,"Delta":341803116},{"NoteNumber":61,"Velocity":36,"Duration":77586,"SoundDuration":77586,"Delta":341803116},{"NoteNumber":58,"Velocity":30,"Duration":77586,"SoundDuration":77586,"Delta":341803116},{"NoteNumber":78,"Velocity":55,"Duration":78897,"SoundDuration":78897,"Delta":342010012},{"NoteNumber":73,"Velocity":44,"Duration":78897,"SoundDuration":78897,"Delta":342010012},{"NoteNumber":49,"Velocity":36,"Duration":78897,"SoundDuration":78897,"Delta":342010012},{"NoteNumber":73,"Velocity":55,"Duration":80882,"SoundDuration":80882,"Delta":342220406},{"NoteNumber":70,"Velocity":44,"Duration":80882,"SoundDuration":80882,"Delta":342220406},{"NoteNumber":61,"Velocity":30,"Duration":80882,"SoundDuration":80882,"Delta":342220406},{"NoteNumber":66,"Velocity":36,"Duration":80882,"SoundDuration":80882,"Delta":342220406},{"NoteNumber":73,"Velocity":45,"Duration":78348,"SoundDuration":78348,"Delta":342436093},{"NoteNumber":78,"Velocity":57,"Duration":78348,"SoundDuration":78348,"Delta":342436093},{"NoteNumber":54,"Velocity":42,"Duration":78348,"SoundDuration":78348,"Delta":342436093},{"NoteNumber":78,"Velocity":44,"Duration":78348,"SoundDuration":78348,"Delta":342645021},{"NoteNumber":82,"Velocity":56,"Duration":78348,"SoundDuration":78348,"Delta":342645021},{"NoteNumber":58,"Velocity":30,"Duration":78348,"SoundDuration":78348,"Delta":342645021},{"NoteNumber":61,"Velocity":37,"Duration":78348,"SoundDuration":78348,"Delta":342645021},{"NoteNumber":78,"Velocity":49,"Duration":394487,"SoundDuration":394487,"Delta":342853949},{"NoteNumber":82,"Velocity":49,"Duration":394487,"SoundDuration":394487,"Delta":342853949},{"NoteNumber":85,"Velocity":62,"Duration":394487,"SoundDuration":394487,"Delta":342853949},{"NoteNumber":73,"Velocity":49,"Duration":394487,"SoundDuration":394487,"Delta":342853949},{"NoteNumber":49,"Velocity":37,"Duration":105196,"SoundDuration":105196,"Delta":342853949},{"NoteNumber":61,"Velocity":31,"Duration":105196,"SoundDuration":105196,"Delta":343064343},{"NoteNumber":66,"Velocity":37,"Duration":105196,"SoundDuration":105196,"Delta":343064343},{"NoteNumber":84,"Velocity":65,"Duration":102072,"SoundDuration":102072,"Delta":343274581},{"NoteNumber":56,"Velocity":42,"Duration":102072,"SoundDuration":102072,"Delta":343274581},{"NoteNumber":97,"Velocity":50,"Duration":101668,"SoundDuration":101668,"Delta":343376653},{"NoteNumber":85,"Velocity":59,"Duration":101268,"SoundDuration":101268,"Delta":343478322},{"NoteNumber":65,"Velocity":37,"Duration":101268,"SoundDuration":101268,"Delta":343478322},{"NoteNumber":61,"Velocity":31,"Duration":101268,"SoundDuration":101268,"Delta":343478322},{"NoteNumber":97,"Velocity":50,"Duration":100927,"SoundDuration":100927,"Delta":343579590},{"NoteNumber":83,"Velocity":65,"Duration":200674,"SoundDuration":200674,"Delta":343680518},{"NoteNumber":49,"Velocity":42,"Duration":100533,"SoundDuration":100533,"Delta":343680518},{"NoteNumber":97,"Velocity":50,"Duration":100141,"SoundDuration":100141,"Delta":343781051},{"NoteNumber":85,"Velocity":60,"Duration":204754,"SoundDuration":204754,"Delta":343881193},{"NoteNumber":61,"Velocity":31,"Duration":99808,"SoundDuration":99808,"Delta":343881193},{"NoteNumber":65,"Velocity":37,"Duration":99808,"SoundDuration":99808,"Delta":343881193},{"NoteNumber":97,"Velocity":50,"Duration":104946,"SoundDuration":104946,"Delta":343981001},{"NoteNumber":84,"Velocity":65,"Duration":99055,"SoundDuration":99055,"Delta":344085947},{"NoteNumber":68,"Velocity":42,"Duration":99055,"SoundDuration":99055,"Delta":344085947},{"NoteNumber":97,"Velocity":50,"Duration":99055,"SoundDuration":99055,"Delta":344185003},{"NoteNumber":85,"Velocity":59,"Duration":99055,"SoundDuration":99055,"Delta":344284059},{"NoteNumber":77,"Velocity":37,"Duration":99055,"SoundDuration":99055,"Delta":344284059},{"NoteNumber":73,"Velocity":31,"Duration":99055,"SoundDuration":99055,"Delta":344284059},{"NoteNumber":97,"Velocity":50,"Duration":99055,"SoundDuration":99055,"Delta":344383115},{"NoteNumber":83,"Velocity":65,"Duration":198111,"SoundDuration":198111,"Delta":344482170},{"NoteNumber":61,"Velocity":42,"Duration":99055,"SoundDuration":99055,"Delta":344482170},{"NoteNumber":97,"Velocity":50,"Duration":99055,"SoundDuration":99055,"Delta":344581226},{"NoteNumber":85,"Velocity":60,"Duration":198111,"SoundDuration":198111,"Delta":344680282},{"NoteNumber":77,"Velocity":37,"Duration":99055,"SoundDuration":99055,"Delta":344680282},{"NoteNumber":73,"Velocity":31,"Duration":99055,"SoundDuration":99055,"Delta":344680282},{"NoteNumber":97,"Velocity":50,"Duration":99055,"SoundDuration":99055,"Delta":344779338},{"NoteNumber":84,"Velocity":65,"Duration":102072,"SoundDuration":102072,"Delta":344878393},{"NoteNumber":54,"Velocity":42,"Duration":102072,"SoundDuration":102072,"Delta":344878393},{"NoteNumber":97,"Velocity":50,"Duration":101668,"SoundDuration":101668,"Delta":344980466},{"NoteNumber":85,"Velocity":59,"Duration":101268,"SoundDuration":101268,"Delta":345082134},{"NoteNumber":66,"Velocity":37,"Duration":101268,"SoundDuration":101268,"Delta":345082134},{"NoteNumber":58,"Velocity":31,"Duration":101268,"SoundDuration":101268,"Delta":345082134},{"NoteNumber":61,"Velocity":31,"Duration":101268,"SoundDuration":101268,"Delta":345082134},{"NoteNumber":97,"Velocity":50,"Duration":100927,"SoundDuration":100927,"Delta":345183403},{"NoteNumber":82,"Velocity":65,"Duration":200674,"SoundDuration":200674,"Delta":345284330},{"NoteNumber":49,"Velocity":42,"Duration":100533,"SoundDuration":100533,"Delta":345284330},{"NoteNumber":97,"Velocity":50,"Duration":100141,"SoundDuration":100141,"Delta":345384864},{"NoteNumber":85,"Velocity":60,"Duration":204754,"SoundDuration":204754,"Delta":345485005},{"NoteNumber":58,"Velocity":31,"Duration":99808,"SoundDuration":99808,"Delta":345485005},{"NoteNumber":61,"Velocity":31,"Duration":99808,"SoundDuration":99808,"Delta":345485005},{"NoteNumber":66,"Velocity":37,"Duration":99808,"SoundDuration":99808,"Delta":345485005},{"NoteNumber":97,"Velocity":50,"Duration":104946,"SoundDuration":104946,"Delta":345584814},{"NoteNumber":84,"Velocity":65,"Duration":99055,"SoundDuration":99055,"Delta":345689760},{"NoteNumber":70,"Velocity":42,"Duration":99055,"SoundDuration":99055,"Delta":345689760},{"NoteNumber":97,"Velocity":50,"Duration":99055,"SoundDuration":99055,"Delta":345788816},{"NoteNumber":85,"Velocity":59,"Duration":99055,"SoundDuration":99055,"Delta":345887872},{"NoteNumber":73,"Velocity":31,"Duration":99055,"SoundDuration":99055,"Delta":345887872},{"NoteNumber":78,"Velocity":37,"Duration":99055,"SoundDuration":99055,"Delta":345887872},{"NoteNumber":97,"Velocity":50,"Duration":99055,"SoundDuration":99055,"Delta":345986927},{"NoteNumber":82,"Velocity":65,"Duration":198111,"SoundDuration":198111,"Delta":346085983},{"NoteNumber":66,"Velocity":42,"Duration":99055,"SoundDuration":99055,"Delta":346085983},{"NoteNumber":97,"Velocity":50,"Duration":99055,"SoundDuration":99055,"Delta":346185039},{"NoteNumber":85,"Velocity":60,"Duration":198111,"SoundDuration":198111,"Delta":346284095},{"NoteNumber":73,"Velocity":31,"Duration":99055,"SoundDuration":99055,"Delta":346284095},{"NoteNumber":78,"Velocity":37,"Duration":99055,"SoundDuration":99055,"Delta":346284095},{"NoteNumber":97,"Velocity":50,"Duration":99055,"SoundDuration":99055,"Delta":346383150},{"NoteNumber":84,"Velocity":65,"Duration":102072,"SoundDuration":102072,"Delta":346482206},{"NoteNumber":56,"Velocity":42,"Duration":102072,"SoundDuration":102072,"Delta":346482206},{"NoteNumber":97,"Velocity":50,"Duration":101668,"SoundDuration":101668,"Delta":346584278},{"NoteNumber":85,"Velocity":59,"Duration":101268,"SoundDuration":101268,"Delta":346685947},{"NoteNumber":61,"Velocity":31,"Duration":101268,"SoundDuration":101268,"Delta":346685947},{"NoteNumber":65,"Velocity":37,"Duration":101268,"SoundDuration":101268,"Delta":346685947},{"NoteNumber":97,"Velocity":50,"Duration":100927,"SoundDuration":100927,"Delta":346787215},{"NoteNumber":89,"Velocity":65,"Duration":200674,"SoundDuration":200674,"Delta":346888143},{"NoteNumber":83,"Velocity":56,"Duration":200674,"SoundDuration":200674,"Delta":346888143},{"NoteNumber":49,"Velocity":42,"Duration":100533,"SoundDuration":100533,"Delta":346888143},{"NoteNumber":97,"Velocity":50,"Duration":100141,"SoundDuration":100141,"Delta":346988676},{"NoteNumber":85,"Velocity":60,"Duration":204754,"SoundDuration":204754,"Delta":347088818},{"NoteNumber":61,"Velocity":31,"Duration":99808,"SoundDuration":99808,"Delta":347088818},{"NoteNumber":65,"Velocity":37,"Duration":99808,"SoundDuration":99808,"Delta":347088818},{"NoteNumber":97,"Velocity":50,"Duration":104946,"SoundDuration":104946,"Delta":347188626},{"NoteNumber":84,"Velocity":65,"Duration":99055,"SoundDuration":99055,"Delta":347293573},{"NoteNumber":68,"Velocity":42,"Duration":99055,"SoundDuration":99055,"Delta":347293573},{"NoteNumber":97,"Velocity":50,"Duration":99055,"SoundDuration":99055,"Delta":347392629},{"NoteNumber":85,"Velocity":59,"Duration":99055,"SoundDuration":99055,"Delta":347491684},{"NoteNumber":73,"Velocity":31,"Duration":99055,"SoundDuration":99055,"Delta":347491684},{"NoteNumber":77,"Velocity":37,"Duration":99055,"SoundDuration":99055,"Delta":347491684},{"NoteNumber":97,"Velocity":50,"Duration":99055,"SoundDuration":99055,"Delta":347590740},{"NoteNumber":83,"Velocity":55,"Duration":198111,"SoundDuration":198111,"Delta":347689796},{"NoteNumber":89,"Velocity":65,"Duration":198111,"SoundDuration":198111,"Delta":347689796},{"NoteNumber":61,"Velocity":42,"Duration":99055,"SoundDuration":99055,"Delta":347689796},{"NoteNumber":97,"Velocity":50,"Duration":99055,"SoundDuration":99055,"Delta":347788852},{"NoteNumber":85,"Velocity":60,"Duration":198111,"SoundDuration":198111,"Delta":347887907},{"NoteNumber":77,"Velocity":37,"Duration":99055,"SoundDuration":99055,"Delta":347887907},{"NoteNumber":73,"Velocity":31,"Duration":99055,"SoundDuration":99055,"Delta":347887907},{"NoteNumber":97,"Velocity":50,"Duration":99055,"SoundDuration":99055,"Delta":347986963},{"NoteNumber":82,"Velocity":65,"Duration":102072,"SoundDuration":102072,"Delta":348086019},{"NoteNumber":54,"Velocity":42,"Duration":102072,"SoundDuration":102072,"Delta":348086019},{"NoteNumber":97,"Velocity":50,"Duration":101668,"SoundDuration":101668,"Delta":348188091},{"NoteNumber":85,"Velocity":59,"Duration":101268,"SoundDuration":101268,"Delta":348289760},{"NoteNumber":66,"Velocity":37,"Duration":101268,"SoundDuration":101268,"Delta":348289760},{"NoteNumber":58,"Velocity":31,"Duration":101268,"SoundDuration":101268,"Delta":348289760},{"NoteNumber":61,"Velocity":31,"Duration":101268,"SoundDuration":101268,"Delta":348289760},{"NoteNumber":97,"Velocity":50,"Duration":100927,"SoundDuration":100927,"Delta":348391028},{"NoteNumber":90,"Velocity":65,"Duration":200674,"SoundDuration":200674,"Delta":348491956},{"NoteNumber":82,"Velocity":53,"Duration":200674,"SoundDuration":200674,"Delta":348491956},{"NoteNumber":49,"Velocity":42,"Duration":100533,"SoundDuration":100533,"Delta":348491956},{"NoteNumber":97,"Velocity":50,"Duration":100141,"SoundDuration":100141,"Delta":348592489},{"NoteNumber":85,"Velocity":60,"Duration":204754,"SoundDuration":204754,"Delta":348692630},{"NoteNumber":61,"Velocity":31,"Duration":99808,"SoundDuration":99808,"Delta":348692630},{"NoteNumber":66,"Velocity":37,"Duration":99808,"SoundDuration":99808,"Delta":348692630},{"NoteNumber":58,"Velocity":31,"Duration":99808,"SoundDuration":99808,"Delta":348692630},{"NoteNumber":97,"Velocity":50,"Duration":104946,"SoundDuration":104946,"Delta":348792439},{"NoteNumber":82,"Velocity":65,"Duration":99055,"SoundDuration":99055,"Delta":348897385},{"NoteNumber":70,"Velocity":42,"Duration":99055,"SoundDuration":99055,"Delta":348897385},{"NoteNumber":97,"Velocity":50,"Duration":99055,"SoundDuration":99055,"Delta":348996441},{"NoteNumber":85,"Velocity":59,"Duration":99055,"SoundDuration":99055,"Delta":349095497},{"NoteNumber":73,"Velocity":31,"Duration":99055,"SoundDuration":99055,"Delta":349095497},{"NoteNumber":78,"Velocity":37,"Duration":99055,"SoundDuration":99055,"Delta":349095497},{"NoteNumber":97,"Velocity":50,"Duration":99055,"SoundDuration":99055,"Delta":349194553},{"NoteNumber":90,"Velocity":65,"Duration":198111,"SoundDuration":198111,"Delta":349293608},{"NoteNumber":82,"Velocity":58,"Duration":198111,"SoundDuration":198111,"Delta":349293608},{"NoteNumber":66,"Velocity":42,"Duration":99055,"SoundDuration":99055,"Delta":349293608},{"NoteNumber":97,"Velocity":50,"Duration":99055,"SoundDuration":99055,"Delta":349392664},{"NoteNumber":85,"Velocity":60,"Duration":198111,"SoundDuration":198111,"Delta":349491720},{"NoteNumber":78,"Velocity":37,"Duration":99055,"SoundDuration":99055,"Delta":349491720},{"NoteNumber":73,"Velocity":31,"Duration":99055,"SoundDuration":99055,"Delta":349491720},{"NoteNumber":97,"Velocity":50,"Duration":99055,"SoundDuration":99055,"Delta":349590776},{"NoteNumber":87,"Velocity":65,"Duration":97446,"SoundDuration":97446,"Delta":349689831},{"NoteNumber":66,"Velocity":42,"Duration":97446,"SoundDuration":97446,"Delta":349689831},{"NoteNumber":97,"Velocity":47,"Duration":97446,"SoundDuration":97446,"Delta":349787278},{"NoteNumber":83,"Velocity":60,"Duration":97447,"SoundDuration":97447,"Delta":349884725},{"NoteNumber":71,"Velocity":31,"Duration":97447,"SoundDuration":97447,"Delta":349884725},{"NoteNumber":75,"Velocity":37,"Duration":97447,"SoundDuration":97447,"Delta":349884725},{"NoteNumber":97,"Velocity":47,"Duration":97446,"SoundDuration":97446,"Delta":349982172},{"NoteNumber":82,"Velocity":60,"Duration":96197,"SoundDuration":96197,"Delta":350079619},{"NoteNumber":61,"Velocity":42,"Duration":96197,"SoundDuration":96197,"Delta":350079619},{"NoteNumber":97,"Velocity":47,"Duration":96196,"SoundDuration":96196,"Delta":350175816},{"NoteNumber":83,"Velocity":62,"Duration":96197,"SoundDuration":96197,"Delta":350272013},{"NoteNumber":78,"Velocity":37,"Duration":96197,"SoundDuration":96197,"Delta":350272013},{"NoteNumber":75,"Velocity":31,"Duration":96197,"SoundDuration":96197,"Delta":350272013},{"NoteNumber":97,"Velocity":47,"Duration":98405,"SoundDuration":98405,"Delta":350368210},{"NoteNumber":87,"Velocity":65,"Duration":96506,"SoundDuration":96506,"Delta":350466616},{"NoteNumber":66,"Velocity":42,"Duration":96506,"SoundDuration":96506,"Delta":350466616},{"NoteNumber":97,"Velocity":48,"Duration":96506,"SoundDuration":96506,"Delta":350563123},{"NoteNumber":83,"Velocity":62,"Duration":96506,"SoundDuration":96506,"Delta":350659629},{"NoteNumber":78,"Velocity":37,"Duration":96506,"SoundDuration":96506,"Delta":350659629},{"NoteNumber":75,"Velocity":31,"Duration":96506,"SoundDuration":96506,"Delta":350659629},{"NoteNumber":97,"Velocity":47,"Duration":96506,"SoundDuration":96506,"Delta":350756136},{"NoteNumber":90,"Velocity":65,"Duration":96197,"SoundDuration":96197,"Delta":350852642},{"NoteNumber":71,"Velocity":42,"Duration":96197,"SoundDuration":96197,"Delta":350852642},{"NoteNumber":97,"Velocity":46,"Duration":96196,"SoundDuration":96196,"Delta":350948839},{"NoteNumber":87,"Velocity":61,"Duration":100381,"SoundDuration":100381,"Delta":351045036},{"NoteNumber":75,"Velocity":31,"Duration":100381,"SoundDuration":100381,"Delta":351045036},{"NoteNumber":78,"Velocity":37,"Duration":100381,"SoundDuration":100381,"Delta":351045036},{"NoteNumber":97,"Velocity":48,"Duration":100381,"SoundDuration":100381,"Delta":351145418},{"NoteNumber":85,"Velocity":65,"Duration":97446,"SoundDuration":97446,"Delta":351245799},{"NoteNumber":66,"Velocity":42,"Duration":97446,"SoundDuration":97446,"Delta":351245799},{"NoteNumber":97,"Velocity":47,"Duration":97446,"SoundDuration":97446,"Delta":351343246},{"NoteNumber":82,"Velocity":60,"Duration":97447,"SoundDuration":97447,"Delta":351440693},{"NoteNumber":70,"Velocity":31,"Duration":97447,"SoundDuration":97447,"Delta":351440693},{"NoteNumber":73,"Velocity":37,"Duration":97447,"SoundDuration":97447,"Delta":351440693},{"NoteNumber":97,"Velocity":47,"Duration":97446,"SoundDuration":97446,"Delta":351538140},{"NoteNumber":81,"Velocity":60,"Duration":96197,"SoundDuration":96197,"Delta":351635587},{"NoteNumber":61,"Velocity":42,"Duration":96197,"SoundDuration":96197,"Delta":351635587},{"NoteNumber":97,"Velocity":47,"Duration":96196,"SoundDuration":96196,"Delta":351731784},{"NoteNumber":82,"Velocity":62,"Duration":96197,"SoundDuration":96197,"Delta":351827981},{"NoteNumber":78,"Velocity":37,"Duration":96197,"SoundDuration":96197,"Delta":351827981},{"NoteNumber":73,"Velocity":31,"Duration":96197,"SoundDuration":96197,"Delta":351827981},{"NoteNumber":97,"Velocity":47,"Duration":98405,"SoundDuration":98405,"Delta":351924178},{"NoteNumber":85,"Velocity":65,"Duration":96506,"SoundDuration":96506,"Delta":352022584},{"NoteNumber":66,"Velocity":42,"Duration":96506,"SoundDuration":96506,"Delta":352022584},{"NoteNumber":97,"Velocity":48,"Duration":96506,"SoundDuration":96506,"Delta":352119090},{"NoteNumber":82,"Velocity":62,"Duration":96506,"SoundDuration":96506,"Delta":352215597},{"NoteNumber":78,"Velocity":37,"Duration":96506,"SoundDuration":96506,"Delta":352215597},{"NoteNumber":73,"Velocity":31,"Duration":96506,"SoundDuration":96506,"Delta":352215597},{"NoteNumber":97,"Velocity":47,"Duration":96506,"SoundDuration":96506,"Delta":352312103},{"NoteNumber":90,"Velocity":65,"Duration":96197,"SoundDuration":96197,"Delta":352408610},{"NoteNumber":70,"Velocity":42,"Duration":96197,"SoundDuration":96197,"Delta":352408610},{"NoteNumber":97,"Velocity":46,"Duration":96196,"SoundDuration":96196,"Delta":352504807},{"NoteNumber":85,"Velocity":61,"Duration":100381,"SoundDuration":100381,"Delta":352601004},{"NoteNumber":78,"Velocity":37,"Duration":100381,"SoundDuration":100381,"Delta":352601004},{"NoteNumber":73,"Velocity":31,"Duration":100381,"SoundDuration":100381,"Delta":352601004},{"NoteNumber":97,"Velocity":48,"Duration":100381,"SoundDuration":100381,"Delta":352701385},{"NoteNumber":87,"Velocity":65,"Duration":97446,"SoundDuration":97446,"Delta":352801767},{"NoteNumber":66,"Velocity":42,"Duration":97446,"SoundDuration":97446,"Delta":352801767},{"NoteNumber":97,"Velocity":47,"Duration":97446,"SoundDuration":97446,"Delta":352899214},{"NoteNumber":83,"Velocity":60,"Duration":97447,"SoundDuration":97447,"Delta":352996661},{"NoteNumber":75,"Velocity":37,"Duration":97447,"SoundDuration":97447,"Delta":352996661},{"NoteNumber":71,"Velocity":31,"Duration":97447,"SoundDuration":97447,"Delta":352996661},{"NoteNumber":97,"Velocity":47,"Duration":97446,"SoundDuration":97446,"Delta":353094108},{"NoteNumber":82,"Velocity":60,"Duration":96197,"SoundDuration":96197,"Delta":353191555},{"NoteNumber":61,"Velocity":42,"Duration":96197,"SoundDuration":96197,"Delta":353191555},{"NoteNumber":97,"Velocity":47,"Duration":96196,"SoundDuration":96196,"Delta":353287752},{"NoteNumber":83,"Velocity":62,"Duration":96197,"SoundDuration":96197,"Delta":353383949},{"NoteNumber":78,"Velocity":37,"Duration":96197,"SoundDuration":96197,"Delta":353383949},{"NoteNumber":75,"Velocity":31,"Duration":96197,"SoundDuration":96197,"Delta":353383949},{"NoteNumber":97,"Velocity":47,"Duration":98405,"SoundDuration":98405,"Delta":353480146},{"NoteNumber":87,"Velocity":65,"Duration":96506,"SoundDuration":96506,"Delta":353578552},{"NoteNumber":66,"Velocity":42,"Duration":96506,"SoundDuration":96506,"Delta":353578552},{"NoteNumber":97,"Velocity":48,"Duration":96506,"SoundDuration":96506,"Delta":353675058},{"NoteNumber":83,"Velocity":62,"Duration":96506,"SoundDuration":96506,"Delta":353771565},{"NoteNumber":78,"Velocity":37,"Duration":96506,"SoundDuration":96506,"Delta":353771565},{"NoteNumber":75,"Velocity":31,"Duration":96506,"SoundDuration":96506,"Delta":353771565},{"NoteNumber":97,"Velocity":47,"Duration":96506,"SoundDuration":96506,"Delta":353868071},{"NoteNumber":90,"Velocity":65,"Duration":96197,"SoundDuration":96197,"Delta":353964578},{"NoteNumber":71,"Velocity":42,"Duration":96197,"SoundDuration":96197,"Delta":353964578},{"NoteNumber":97,"Velocity":46,"Duration":96196,"SoundDuration":96196,"Delta":354060775},{"NoteNumber":87,"Velocity":61,"Duration":100381,"SoundDuration":100381,"Delta":354156972},{"NoteNumber":78,"Velocity":37,"Duration":100381,"SoundDuration":100381,"Delta":354156972},{"NoteNumber":75,"Velocity":31,"Duration":100381,"SoundDuration":100381,"Delta":354156972},{"NoteNumber":97,"Velocity":48,"Duration":100381,"SoundDuration":100381,"Delta":354257353},{"NoteNumber":85,"Velocity":65,"Duration":97446,"SoundDuration":97446,"Delta":354357735},{"NoteNumber":66,"Velocity":42,"Duration":97446,"SoundDuration":97446,"Delta":354357735},{"NoteNumber":97,"Velocity":47,"Duration":97446,"SoundDuration":97446,"Delta":354455182},{"NoteNumber":82,"Velocity":60,"Duration":97447,"SoundDuration":97447,"Delta":354552629},{"NoteNumber":73,"Velocity":37,"Duration":97447,"SoundDuration":97447,"Delta":354552629},{"NoteNumber":70,"Velocity":31,"Duration":97447,"SoundDuration":97447,"Delta":354552629},{"NoteNumber":97,"Velocity":47,"Duration":97446,"SoundDuration":97446,"Delta":354650076},{"NoteNumber":81,"Velocity":60,"Duration":96197,"SoundDuration":96197,"Delta":354747523},{"NoteNumber":61,"Velocity":42,"Duration":96197,"SoundDuration":96197,"Delta":354747523},{"NoteNumber":97,"Velocity":47,"Duration":96196,"SoundDuration":96196,"Delta":354843720},{"NoteNumber":82,"Velocity":62,"Duration":96197,"SoundDuration":96197,"Delta":354939917},{"NoteNumber":78,"Velocity":37,"Duration":96197,"SoundDuration":96197,"Delta":354939917},{"NoteNumber":73,"Velocity":31,"Duration":96197,"SoundDuration":96197,"Delta":354939917},{"NoteNumber":97,"Velocity":47,"Duration":98405,"SoundDuration":98405,"Delta":355036114},{"NoteNumber":85,"Velocity":65,"Duration":96506,"SoundDuration":96506,"Delta":355134519},{"NoteNumber":66,"Velocity":42,"Duration":96506,"SoundDuration":96506,"Delta":355134519},{"NoteNumber":97,"Velocity":48,"Duration":96506,"SoundDuration":96506,"Delta":355231026},{"NoteNumber":82,"Velocity":62,"Duration":96506,"SoundDuration":96506,"Delta":355327532},{"NoteNumber":73,"Velocity":31,"Duration":96506,"SoundDuration":96506,"Delta":355327532},{"NoteNumber":78,"Velocity":37,"Duration":96506,"SoundDuration":96506,"Delta":355327532},{"NoteNumber":97,"Velocity":47,"Duration":96506,"SoundDuration":96506,"Delta":355424039},{"NoteNumber":90,"Velocity":65,"Duration":96197,"SoundDuration":96197,"Delta":355520545},{"NoteNumber":70,"Velocity":42,"Duration":96197,"SoundDuration":96197,"Delta":355520545},{"NoteNumber":97,"Velocity":46,"Duration":96196,"SoundDuration":96196,"Delta":355616742},{"NoteNumber":85,"Velocity":61,"Duration":100381,"SoundDuration":100381,"Delta":355712939},{"NoteNumber":73,"Velocity":31,"Duration":100381,"SoundDuration":100381,"Delta":355712939},{"NoteNumber":78,"Velocity":37,"Duration":100381,"SoundDuration":100381,"Delta":355712939},{"NoteNumber":97,"Velocity":48,"Duration":100381,"SoundDuration":100381,"Delta":355813321},{"NoteNumber":83,"Velocity":55,"Duration":93498,"SoundDuration":93498,"Delta":355913702},{"NoteNumber":89,"Velocity":65,"Duration":93498,"SoundDuration":93498,"Delta":355913702},{"NoteNumber":97,"Velocity":48,"Duration":93498,"SoundDuration":93498,"Delta":356007201},{"NoteNumber":60,"Velocity":42,"Duration":46749,"SoundDuration":46749,"Delta":356053951},{"NoteNumber":92,"Velocity":62,"Duration":116873,"SoundDuration":116873,"Delta":356100700},{"NoteNumber":85,"Velocity":52,"Duration":116873,"SoundDuration":116873,"Delta":356100700},{"NoteNumber":61,"Velocity":48,"Duration":93498,"SoundDuration":93498,"Delta":356100700},{"NoteNumber":97,"Velocity":47,"Duration":93498,"SoundDuration":93498,"Delta":356194199},{"NoteNumber":83,"Velocity":55,"Duration":94978,"SoundDuration":94978,"Delta":356287697},{"NoteNumber":89,"Velocity":65,"Duration":94978,"SoundDuration":94978,"Delta":356287697},{"NoteNumber":97,"Velocity":46,"Duration":94978,"SoundDuration":94978,"Delta":356382676},{"NoteNumber":64,"Velocity":48,"Duration":47489,"SoundDuration":47489,"Delta":356430166},{"NoteNumber":85,"Velocity":51,"Duration":123007,"SoundDuration":123007,"Delta":356477655},{"NoteNumber":92,"Velocity":61,"Duration":123007,"SoundDuration":123007,"Delta":356477655},{"NoteNumber":65,"Velocity":49,"Duration":98405,"SoundDuration":98405,"Delta":356477655},{"NoteNumber":97,"Velocity":48,"Duration":98405,"SoundDuration":98405,"Delta":356576061},{"NoteNumber":89,"Velocity":65,"Duration":93498,"SoundDuration":93498,"Delta":356674466},{"NoteNumber":83,"Velocity":55,"Duration":93498,"SoundDuration":93498,"Delta":356674466},{"NoteNumber":97,"Velocity":48,"Duration":93498,"SoundDuration":93498,"Delta":356767965},{"NoteNumber":69,"Velocity":50,"Duration":46749,"SoundDuration":46749,"Delta":356814715},{"NoteNumber":85,"Velocity":52,"Duration":116873,"SoundDuration":116873,"Delta":356861464},{"NoteNumber":92,"Velocity":62,"Duration":116873,"SoundDuration":116873,"Delta":356861464},{"NoteNumber":70,"Velocity":51,"Duration":93498,"SoundDuration":93498,"Delta":356861464},{"NoteNumber":97,"Velocity":47,"Duration":93498,"SoundDuration":93498,"Delta":356954963},{"NoteNumber":83,"Velocity":55,"Duration":95280,"SoundDuration":95280,"Delta":357048461},{"NoteNumber":89,"Velocity":65,"Duration":95280,"SoundDuration":95280,"Delta":357048461},{"NoteNumber":97,"Velocity":46,"Duration":95280,"SoundDuration":95280,"Delta":357143742},{"NoteNumber":67,"Velocity":42,"Duration":47640,"SoundDuration":47640,"Delta":357191382},{"NoteNumber":85,"Velocity":51,"Duration":125476,"SoundDuration":125476,"Delta":357239022},{"NoteNumber":92,"Velocity":61,"Duration":125476,"SoundDuration":125476,"Delta":357239022},{"NoteNumber":68,"Velocity":49,"Duration":100381,"SoundDuration":100381,"Delta":357239022},{"NoteNumber":97,"Velocity":48,"Duration":96774,"SoundDuration":96774,"Delta":357339404},{"NoteNumber":90,"Velocity":65,"Duration":93167,"SoundDuration":93167,"Delta":357436179},{"NoteNumber":82,"Velocity":55,"Duration":93167,"SoundDuration":93167,"Delta":357436179},{"NoteNumber":97,"Velocity":48,"Duration":93167,"SoundDuration":93167,"Delta":357529346},{"NoteNumber":65,"Velocity":42,"Duration":46583,"SoundDuration":46583,"Delta":357575930},{"NoteNumber":94,"Velocity":62,"Duration":116459,"SoundDuration":116459,"Delta":357622514},{"NoteNumber":85,"Velocity":52,"Duration":116459,"SoundDuration":116459,"Delta":357622514},{"NoteNumber":66,"Velocity":50,"Duration":93167,"SoundDuration":93167,"Delta":357622514},{"NoteNumber":97,"Velocity":47,"Duration":93167,"SoundDuration":93167,"Delta":357715682},{"NoteNumber":64,"Velocity":42,"Duration":46583,"SoundDuration":46583,"Delta":357762266},{"NoteNumber":90,"Velocity":65,"Duration":95583,"SoundDuration":95583,"Delta":357808850},{"NoteNumber":82,"Velocity":55,"Duration":95583,"SoundDuration":95583,"Delta":357808850},{"NoteNumber":65,"Velocity":48,"Duration":95583,"SoundDuration":95583,"Delta":357808850},{"NoteNumber":97,"Velocity":46,"Duration":95584,"SoundDuration":95584,"Delta":357904434},{"NoteNumber":63,"Velocity":42,"Duration":47792,"SoundDuration":47792,"Delta":357952226},{"NoteNumber":94,"Velocity":61,"Duration":125476,"SoundDuration":125476,"Delta":358000018},{"NoteNumber":85,"Velocity":51,"Duration":125476,"SoundDuration":125476,"Delta":358000018},{"NoteNumber":64,"Velocity":54,"Duration":100381,"SoundDuration":100381,"Delta":358000018},{"NoteNumber":97,"Velocity":48,"Duration":100381,"SoundDuration":100381,"Delta":358100399},{"NoteNumber":82,"Velocity":55,"Duration":94085,"SoundDuration":94085,"Delta":358200781},{"NoteNumber":90,"Velocity":65,"Duration":94085,"SoundDuration":94085,"Delta":358200781},{"NoteNumber":97,"Velocity":48,"Duration":94085,"SoundDuration":94085,"Delta":358294866},{"NoteNumber":62,"Velocity":42,"Duration":47042,"SoundDuration":47042,"Delta":358341908},{"NoteNumber":85,"Velocity":52,"Duration":117606,"SoundDuration":117606,"Delta":358388951},{"NoteNumber":94,"Velocity":62,"Duration":117606,"SoundDuration":117606,"Delta":358388951},{"NoteNumber":63,"Velocity":49,"Duration":94085,"SoundDuration":94085,"Delta":358388951},{"NoteNumber":97,"Velocity":47,"Duration":94085,"SoundDuration":94085,"Delta":358483036},{"NoteNumber":61,"Velocity":42,"Duration":47042,"SoundDuration":47042,"Delta":358530079},{"NoteNumber":82,"Velocity":55,"Duration":96197,"SoundDuration":96197,"Delta":358577122},{"NoteNumber":90,"Velocity":65,"Duration":96197,"SoundDuration":96197,"Delta":358577122},{"NoteNumber":62,"Velocity":49,"Duration":96197,"SoundDuration":96197,"Delta":358577122},{"NoteNumber":97,"Velocity":46,"Duration":96196,"SoundDuration":96196,"Delta":358673319},{"NoteNumber":60,"Velocity":54,"Duration":48098,"SoundDuration":48098,"Delta":358721417},{"NoteNumber":85,"Velocity":51,"Duration":125476,"SoundDuration":125476,"Delta":358769516},{"NoteNumber":94,"Velocity":61,"Duration":125476,"SoundDuration":125476,"Delta":358769516},{"NoteNumber":61,"Velocity":56,"Duration":100381,"SoundDuration":100381,"Delta":358769516},{"NoteNumber":97,"Velocity":48,"Duration":100381,"SoundDuration":100381,"Delta":358869897},{"NoteNumber":83,"Velocity":55,"Duration":93498,"SoundDuration":93498,"Delta":358970279},{"NoteNumber":89,"Velocity":65,"Duration":93498,"SoundDuration":93498,"Delta":358970279},{"NoteNumber":97,"Velocity":48,"Duration":93498,"SoundDuration":93498,"Delta":359063777},{"NoteNumber":60,"Velocity":42,"Duration":46749,"SoundDuration":46749,"Delta":359110527},{"NoteNumber":92,"Velocity":62,"Duration":116873,"SoundDuration":116873,"Delta":359157276},{"NoteNumber":85,"Velocity":52,"Duration":116873,"SoundDuration":116873,"Delta":359157276},{"NoteNumber":61,"Velocity":48,"Duration":93498,"SoundDuration":93498,"Delta":359157276},{"NoteNumber":97,"Velocity":47,"Duration":93498,"SoundDuration":93498,"Delta":359250775},{"NoteNumber":83,"Velocity":55,"Duration":94978,"SoundDuration":94978,"Delta":359344274},{"NoteNumber":89,"Velocity":65,"Duration":94978,"SoundDuration":94978,"Delta":359344274},{"NoteNumber":97,"Velocity":46,"Duration":94978,"SoundDuration":94978,"Delta":359439252},{"NoteNumber":64,"Velocity":48,"Duration":47489,"SoundDuration":47489,"Delta":359486742},{"NoteNumber":92,"Velocity":61,"Duration":123007,"SoundDuration":123007,"Delta":359534231},{"NoteNumber":85,"Velocity":51,"Duration":123007,"SoundDuration":123007,"Delta":359534231},{"NoteNumber":65,"Velocity":49,"Duration":98405,"SoundDuration":98405,"Delta":359534231},{"NoteNumber":97,"Velocity":48,"Duration":98405,"SoundDuration":98405,"Delta":359632637},{"NoteNumber":89,"Velocity":65,"Duration":93498,"SoundDuration":93498,"Delta":359731043},{"NoteNumber":83,"Velocity":55,"Duration":93498,"SoundDuration":93498,"Delta":359731043},{"NoteNumber":97,"Velocity":48,"Duration":93498,"SoundDuration":93498,"Delta":359824541},{"NoteNumber":69,"Velocity":50,"Duration":46749,"SoundDuration":46749,"Delta":359871291},{"NoteNumber":85,"Velocity":52,"Duration":116873,"SoundDuration":116873,"Delta":359918040},{"NoteNumber":92,"Velocity":62,"Duration":116873,"SoundDuration":116873,"Delta":359918040},{"NoteNumber":70,"Velocity":51,"Duration":93498,"SoundDuration":93498,"Delta":359918040},{"NoteNumber":97,"Velocity":47,"Duration":93498,"SoundDuration":93498,"Delta":360011539},{"NoteNumber":83,"Velocity":55,"Duration":95280,"SoundDuration":95280,"Delta":360105038},{"NoteNumber":89,"Velocity":65,"Duration":95280,"SoundDuration":95280,"Delta":360105038},{"NoteNumber":97,"Velocity":46,"Duration":95280,"SoundDuration":95280,"Delta":360200318},{"NoteNumber":67,"Velocity":42,"Duration":47640,"SoundDuration":47640,"Delta":360247958},{"NoteNumber":85,"Velocity":51,"Duration":125476,"SoundDuration":125476,"Delta":360295599},{"NoteNumber":92,"Velocity":61,"Duration":125476,"SoundDuration":125476,"Delta":360295599},{"NoteNumber":68,"Velocity":49,"Duration":100381,"SoundDuration":100381,"Delta":360295599},{"NoteNumber":97,"Velocity":48,"Duration":100381,"SoundDuration":100381,"Delta":360395980},{"NoteNumber":82,"Velocity":55,"Duration":94085,"SoundDuration":94085,"Delta":360496362},{"NoteNumber":90,"Velocity":65,"Duration":94085,"SoundDuration":94085,"Delta":360496362},{"NoteNumber":97,"Velocity":48,"Duration":94085,"SoundDuration":94085,"Delta":360590447},{"NoteNumber":65,"Velocity":42,"Duration":47042,"SoundDuration":47042,"Delta":360637489},{"NoteNumber":85,"Velocity":52,"Duration":117606,"SoundDuration":117606,"Delta":360684532},{"NoteNumber":94,"Velocity":62,"Duration":117606,"SoundDuration":117606,"Delta":360684532},{"NoteNumber":66,"Velocity":50,"Duration":94085,"SoundDuration":94085,"Delta":360684532},{"NoteNumber":97,"Velocity":47,"Duration":94085,"SoundDuration":94085,"Delta":360778617},{"NoteNumber":64,"Velocity":42,"Duration":47042,"SoundDuration":47042,"Delta":360825660},{"NoteNumber":82,"Velocity":55,"Duration":95583,"SoundDuration":95583,"Delta":360872703},{"NoteNumber":90,"Velocity":65,"Duration":95583,"SoundDuration":95583,"Delta":360872703},{"NoteNumber":65,"Velocity":48,"Duration":95583,"SoundDuration":95583,"Delta":360872703},{"NoteNumber":97,"Velocity":46,"Duration":95584,"SoundDuration":95584,"Delta":360968287},{"NoteNumber":63,"Velocity":42,"Duration":47792,"SoundDuration":47792,"Delta":361016079},{"NoteNumber":85,"Velocity":51,"Duration":125476,"SoundDuration":125476,"Delta":361063871},{"NoteNumber":94,"Velocity":61,"Duration":125476,"SoundDuration":125476,"Delta":361063871},{"NoteNumber":64,"Velocity":54,"Duration":100381,"SoundDuration":100381,"Delta":361063871},{"NoteNumber":97,"Velocity":48,"Duration":100381,"SoundDuration":100381,"Delta":361164252},{"NoteNumber":82,"Velocity":55,"Duration":94085,"SoundDuration":94085,"Delta":361264634},{"NoteNumber":90,"Velocity":65,"Duration":94085,"SoundDuration":94085,"Delta":361264634},{"NoteNumber":97,"Velocity":48,"Duration":94085,"SoundDuration":94085,"Delta":361358719},{"NoteNumber":62,"Velocity":42,"Duration":47042,"SoundDuration":47042,"Delta":361405761},{"NoteNumber":94,"Velocity":62,"Duration":117606,"SoundDuration":117606,"Delta":361452804},{"NoteNumber":85,"Velocity":52,"Duration":117606,"SoundDuration":117606,"Delta":361452804},{"NoteNumber":63,"Velocity":49,"Duration":94085,"SoundDuration":94085,"Delta":361452804},{"NoteNumber":97,"Velocity":47,"Duration":94085,"SoundDuration":94085,"Delta":361546889},{"NoteNumber":61,"Velocity":42,"Duration":47042,"SoundDuration":47042,"Delta":361593932},{"NoteNumber":82,"Velocity":55,"Duration":96197,"SoundDuration":96197,"Delta":361640975},{"NoteNumber":90,"Velocity":65,"Duration":96197,"SoundDuration":96197,"Delta":361640975},{"NoteNumber":62,"Velocity":49,"Duration":96197,"SoundDuration":96197,"Delta":361640975},{"NoteNumber":97,"Velocity":46,"Duration":96196,"SoundDuration":96196,"Delta":361737172},{"NoteNumber":60,"Velocity":54,"Duration":48098,"SoundDuration":48098,"Delta":361785270},{"NoteNumber":85,"Velocity":51,"Duration":125476,"SoundDuration":125476,"Delta":361833369},{"NoteNumber":94,"Velocity":61,"Duration":125476,"SoundDuration":125476,"Delta":361833369},{"NoteNumber":61,"Velocity":56,"Duration":100381,"SoundDuration":100381,"Delta":361833369},{"NoteNumber":97,"Velocity":48,"Duration":100381,"SoundDuration":100381,"Delta":361933750},{"NoteNumber":83,"Velocity":55,"Duration":91502,"SoundDuration":91502,"Delta":362034132},{"NoteNumber":89,"Velocity":65,"Duration":91502,"SoundDuration":91502,"Delta":362034132},{"NoteNumber":56,"Velocity":42,"Duration":91502,"SoundDuration":91502,"Delta":362034132},{"NoteNumber":97,"Velocity":48,"Duration":91502,"SoundDuration":91502,"Delta":362125634},{"NoteNumber":92,"Velocity":62,"Duration":114378,"SoundDuration":114378,"Delta":362217137},{"NoteNumber":85,"Velocity":52,"Duration":114378,"SoundDuration":114378,"Delta":362217137},{"NoteNumber":61,"Velocity":37,"Duration":91502,"SoundDuration":91502,"Delta":362217137},{"NoteNumber":65,"Velocity":37,"Duration":91502,"SoundDuration":91502,"Delta":362217137},{"NoteNumber":97,"Velocity":47,"Duration":91502,"SoundDuration":91502,"Delta":362308639},{"NoteNumber":89,"Velocity":65,"Duration":94085,"SoundDuration":94085,"Delta":362400142},{"NoteNumber":83,"Velocity":55,"Duration":94085,"SoundDuration":94085,"Delta":362400142},{"NoteNumber":49,"Velocity":42,"Duration":94085,"SoundDuration":94085,"Delta":362400142},{"NoteNumber":97,"Velocity":46,"Duration":94085,"SoundDuration":94085,"Delta":362494227},{"NoteNumber":85,"Velocity":51,"Duration":130271,"SoundDuration":130271,"Delta":362588312},{"NoteNumber":92,"Velocity":61,"Duration":130271,"SoundDuration":130271,"Delta":362588312},{"NoteNumber":61,"Velocity":37,"Duration":104217,"SoundDuration":104217,"Delta":362588312},{"NoteNumber":65,"Velocity":37,"Duration":104217,"SoundDuration":104217,"Delta":362588312},{"NoteNumber":97,"Velocity":48,"Duration":104217,"SoundDuration":104217,"Delta":362692529},{"NoteNumber":89,"Velocity":65,"Duration":100718,"SoundDuration":100718,"Delta":362796747},{"NoteNumber":83,"Velocity":55,"Duration":100718,"SoundDuration":100718,"Delta":362796747},{"NoteNumber":68,"Velocity":37,"Duration":100718,"SoundDuration":100718,"Delta":362796747},{"NoteNumber":72,"Velocity":42,"Duration":100718,"SoundDuration":100718,"Delta":362796747},{"NoteNumber":97,"Velocity":48,"Duration":100718,"SoundDuration":100718,"Delta":362897465},{"NoteNumber":85,"Velocity":52,"Duration":140328,"SoundDuration":140328,"Delta":362998184},{"NoteNumber":92,"Velocity":62,"Duration":140328,"SoundDuration":140328,"Delta":362998184},{"NoteNumber":73,"Velocity":37,"Duration":109946,"SoundDuration":109946,"Delta":362998184},{"NoteNumber":65,"Velocity":37,"Duration":109946,"SoundDuration":109946,"Delta":362998184},{"NoteNumber":97,"Velocity":47,"Duration":121526,"SoundDuration":121526,"Delta":363108130},{"NoteNumber":89,"Velocity":65,"Duration":418075,"SoundDuration":418075,"Delta":363229656},{"NoteNumber":85,"Velocity":55,"Duration":418075,"SoundDuration":418075,"Delta":363229656},{"NoteNumber":77,"Velocity":55,"Duration":418075,"SoundDuration":418075,"Delta":363229656},{"NoteNumber":71,"Velocity":48,"Duration":310494,"SoundDuration":310494,"Delta":363229656},{"NoteNumber":68,"Velocity":42,"Duration":310494,"SoundDuration":310494,"Delta":363229656},{"NoteNumber":73,"Velocity":37,"Duration":107580,"SoundDuration":107580,"Delta":363540151},{"NoteNumber":65,"Velocity":37,"Duration":107580,"SoundDuration":107580,"Delta":363540151},{"NoteNumber":82,"Velocity":55,"Duration":93750,"SoundDuration":93750,"Delta":363647732},{"NoteNumber":90,"Velocity":65,"Duration":93750,"SoundDuration":93750,"Delta":363647732},{"NoteNumber":54,"Velocity":42,"Duration":93750,"SoundDuration":93750,"Delta":363647732},{"NoteNumber":97,"Velocity":48,"Duration":93750,"SoundDuration":93750,"Delta":363741482},{"NoteNumber":94,"Velocity":62,"Duration":117187,"SoundDuration":117187,"Delta":363835232},{"NoteNumber":85,"Velocity":52,"Duration":117187,"SoundDuration":117187,"Delta":363835232},{"NoteNumber":61,"Velocity":37,"Duration":93750,"SoundDuration":93750,"Delta":363835232},{"NoteNumber":66,"Velocity":37,"Duration":93750,"SoundDuration":93750,"Delta":363835232},{"NoteNumber":97,"Velocity":47,"Duration":93750,"SoundDuration":93750,"Delta":363928982},{"NoteNumber":90,"Velocity":65,"Duration":94381,"SoundDuration":94381,"Delta":364022732},{"NoteNumber":82,"Velocity":55,"Duration":94381,"SoundDuration":94381,"Delta":364022732},{"NoteNumber":49,"Velocity":42,"Duration":94381,"SoundDuration":94381,"Delta":364022732},{"NoteNumber":97,"Velocity":46,"Duration":94381,"SoundDuration":94381,"Delta":364117113},{"NoteNumber":94,"Velocity":61,"Duration":130271,"SoundDuration":130271,"Delta":364211494},{"NoteNumber":85,"Velocity":51,"Duration":130271,"SoundDuration":130271,"Delta":364211494},{"NoteNumber":61,"Velocity":37,"Duration":104217,"SoundDuration":104217,"Delta":364211494},{"NoteNumber":66,"Velocity":37,"Duration":104217,"SoundDuration":104217,"Delta":364211494},{"NoteNumber":97,"Velocity":48,"Duration":104217,"SoundDuration":104217,"Delta":364315712},{"NoteNumber":82,"Velocity":55,"Duration":100718,"SoundDuration":100718,"Delta":364419929},{"NoteNumber":90,"Velocity":65,"Duration":100718,"SoundDuration":100718,"Delta":364419929},{"NoteNumber":72,"Velocity":42,"Duration":100718,"SoundDuration":100718,"Delta":364419929},{"NoteNumber":69,"Velocity":37,"Duration":100718,"SoundDuration":100718,"Delta":364419929},{"NoteNumber":97,"Velocity":48,"Duration":100718,"SoundDuration":100718,"Delta":364520647},{"NoteNumber":94,"Velocity":62,"Duration":140328,"SoundDuration":140328,"Delta":364621366},{"NoteNumber":85,"Velocity":52,"Duration":140328,"SoundDuration":140328,"Delta":364621366},{"NoteNumber":73,"Velocity":37,"Duration":109946,"SoundDuration":109946,"Delta":364621366},{"NoteNumber":70,"Velocity":37,"Duration":109946,"SoundDuration":109946,"Delta":364621366},{"NoteNumber":97,"Velocity":47,"Duration":121526,"SoundDuration":121526,"Delta":364731312},{"NoteNumber":85,"Velocity":55,"Duration":424998,"SoundDuration":424998,"Delta":364852839},{"NoteNumber":90,"Velocity":65,"Duration":424998,"SoundDuration":424998,"Delta":364852839},{"NoteNumber":78,"Velocity":55,"Duration":424998,"SoundDuration":424998,"Delta":364852839},{"NoteNumber":66,"Velocity":42,"Duration":424998,"SoundDuration":424998,"Delta":364852839},{"NoteNumber":70,"Velocity":48,"Duration":310494,"SoundDuration":310494,"Delta":364852839},{"NoteNumber":73,"Velocity":37,"Duration":114503,"SoundDuration":114503,"Delta":365163333},{"NoteNumber":89,"Velocity":65,"Duration":94637,"SoundDuration":94637,"Delta":365277837},{"NoteNumber":83,"Velocity":55,"Duration":94637,"SoundDuration":94637,"Delta":365277837},{"NoteNumber":56,"Velocity":42,"Duration":94637,"SoundDuration":94637,"Delta":365277837},{"NoteNumber":97,"Velocity":48,"Duration":94637,"SoundDuration":94637,"Delta":365372474},{"NoteNumber":92,"Velocity":62,"Duration":118296,"SoundDuration":118296,"Delta":365467112},{"NoteNumber":85,"Velocity":52,"Duration":118296,"SoundDuration":118296,"Delta":365467112},{"NoteNumber":61,"Velocity":37,"Duration":94637,"SoundDuration":94637,"Delta":365467112},{"NoteNumber":65,"Velocity":37,"Duration":94637,"SoundDuration":94637,"Delta":365467112},{"NoteNumber":97,"Velocity":47,"Duration":94637,"SoundDuration":94637,"Delta":365561749},{"NoteNumber":89,"Velocity":65,"Duration":94085,"SoundDuration":94085,"Delta":365656386},{"NoteNumber":83,"Velocity":55,"Duration":94085,"SoundDuration":94085,"Delta":365656386},{"NoteNumber":49,"Velocity":42,"Duration":94085,"SoundDuration":94085,"Delta":365656386},{"NoteNumber":97,"Velocity":46,"Duration":94085,"SoundDuration":94085,"Delta":365750471},{"NoteNumber":85,"Velocity":51,"Duration":130271,"SoundDuration":130271,"Delta":365844557},{"NoteNumber":92,"Velocity":61,"Duration":130271,"SoundDuration":130271,"Delta":365844557},{"NoteNumber":65,"Velocity":37,"Duration":104217,"SoundDuration":104217,"Delta":365844557},{"NoteNumber":61,"Velocity":37,"Duration":104217,"SoundDuration":104217,"Delta":365844557},{"NoteNumber":97,"Velocity":48,"Duration":104217,"SoundDuration":104217,"Delta":365948774},{"NoteNumber":83,"Velocity":55,"Duration":100718,"SoundDuration":100718,"Delta":366052991},{"NoteNumber":89,"Velocity":65,"Duration":100718,"SoundDuration":100718,"Delta":366052991},{"NoteNumber":72,"Velocity":42,"Duration":100718,"SoundDuration":100718,"Delta":366052991},{"NoteNumber":68,"Velocity":37,"Duration":100718,"SoundDuration":100718,"Delta":366052991},{"NoteNumber":97,"Velocity":48,"Duration":100718,"SoundDuration":100718,"Delta":366153710},{"NoteNumber":85,"Velocity":52,"Duration":140328,"SoundDuration":140328,"Delta":366254428},{"NoteNumber":92,"Velocity":62,"Duration":140328,"SoundDuration":140328,"Delta":366254428},{"NoteNumber":73,"Velocity":37,"Duration":109946,"SoundDuration":109946,"Delta":366254428},{"NoteNumber":65,"Velocity":37,"Duration":109946,"SoundDuration":109946,"Delta":366254428},{"NoteNumber":97,"Velocity":47,"Duration":121526,"SoundDuration":121526,"Delta":366364375},{"NoteNumber":89,"Velocity":65,"Duration":418075,"SoundDuration":418075,"Delta":366485901},{"NoteNumber":85,"Velocity":55,"Duration":418075,"SoundDuration":418075,"Delta":366485901},{"NoteNumber":77,"Velocity":55,"Duration":418075,"SoundDuration":418075,"Delta":366485901},{"NoteNumber":68,"Velocity":42,"Duration":310494,"SoundDuration":310494,"Delta":366485901},{"NoteNumber":71,"Velocity":48,"Duration":310494,"SoundDuration":310494,"Delta":366485901},{"NoteNumber":65,"Velocity":37,"Duration":107580,"SoundDuration":107580,"Delta":366796396},{"NoteNumber":73,"Velocity":37,"Duration":107580,"SoundDuration":107580,"Delta":366796396},{"NoteNumber":90,"Velocity":65,"Duration":94936,"SoundDuration":94936,"Delta":366903976},{"NoteNumber":82,"Velocity":55,"Duration":94936,"SoundDuration":94936,"Delta":366903976},{"NoteNumber":54,"Velocity":42,"Duration":94936,"SoundDuration":94936,"Delta":366903976},{"NoteNumber":97,"Velocity":48,"Duration":94936,"SoundDuration":94936,"Delta":366998913},{"NoteNumber":85,"Velocity":52,"Duration":118670,"SoundDuration":118670,"Delta":367093850},{"NoteNumber":94,"Velocity":62,"Duration":118670,"SoundDuration":118670,"Delta":367093850},{"NoteNumber":61,"Velocity":37,"Duration":94936,"SoundDuration":94936,"Delta":367093850},{"NoteNumber":66,"Velocity":37,"Duration":94936,"SoundDuration":94936,"Delta":367093850},{"NoteNumber":97,"Velocity":47,"Duration":94936,"SoundDuration":94936,"Delta":367188787},{"NoteNumber":82,"Velocity":55,"Duration":97131,"SoundDuration":97131,"Delta":367283723},{"NoteNumber":90,"Velocity":65,"Duration":97131,"SoundDuration":97131,"Delta":367283723},{"NoteNumber":49,"Velocity":42,"Duration":97131,"SoundDuration":97131,"Delta":367283723},{"NoteNumber":97,"Velocity":46,"Duration":97131,"SoundDuration":97131,"Delta":367380855},{"NoteNumber":85,"Velocity":51,"Duration":138960,"SoundDuration":138960,"Delta":367477986},{"NoteNumber":94,"Velocity":61,"Duration":138960,"SoundDuration":138960,"Delta":367477986},{"NoteNumber":66,"Velocity":37,"Duration":111168,"SoundDuration":111168,"Delta":367477986},{"NoteNumber":61,"Velocity":37,"Duration":111168,"SoundDuration":111168,"Delta":367477986},{"NoteNumber":97,"Velocity":48,"Duration":111168,"SoundDuration":111168,"Delta":367589155},{"NoteNumber":82,"Velocity":55,"Duration":104580,"SoundDuration":104580,"Delta":367700324},{"NoteNumber":90,"Velocity":65,"Duration":104580,"SoundDuration":104580,"Delta":367700324},{"NoteNumber":72,"Velocity":42,"Duration":104580,"SoundDuration":104580,"Delta":367700324},{"NoteNumber":69,"Velocity":37,"Duration":104580,"SoundDuration":104580,"Delta":367700324},{"NoteNumber":97,"Velocity":48,"Duration":104580,"SoundDuration":104580,"Delta":367804905},{"NoteNumber":85,"Velocity":52,"Duration":145964,"SoundDuration":145964,"Delta":367909485},{"NoteNumber":94,"Velocity":62,"Duration":145964,"SoundDuration":145964,"Delta":367909485},{"NoteNumber":70,"Velocity":37,"Duration":114565,"SoundDuration":114565,"Delta":367909485},{"NoteNumber":73,"Velocity":37,"Duration":114565,"SoundDuration":114565,"Delta":367909485},{"NoteNumber":97,"Velocity":47,"Duration":125596,"SoundDuration":125596,"Delta":368024050},{"NoteNumber":85,"Velocity":55,"Duration":500337,"SoundDuration":500337,"Delta":368149647},{"NoteNumber":78,"Velocity":55,"Duration":500337,"SoundDuration":500337,"Delta":368149647},{"NoteNumber":90,"Velocity":65,"Duration":500337,"SoundDuration":500337,"Delta":368149647},{"NoteNumber":66,"Velocity":42,"Duration":500337,"SoundDuration":500337,"Delta":368149647},{"NoteNumber":70,"Velocity":48,"Duration":364578,"SoundDuration":364578,"Delta":368149647},{"NoteNumber":73,"Velocity":37,"Duration":135759,"SoundDuration":135759,"Delta":368514226},{"NoteNumber":83,"Velocity":66,"Duration":67879,"SoundDuration":67879,"Delta":368582105},{"NoteNumber":99,"Velocity":82,"Duration":121457,"SoundDuration":121457,"Delta":368649985},{"NoteNumber":56,"Velocity":42,"Duration":121457,"SoundDuration":121457,"Delta":368649985},{"NoteNumber":61,"Velocity":30,"Duration":117646,"SoundDuration":117646,"Delta":368892900},{"NoteNumber":71,"Velocity":36,"Duration":117646,"SoundDuration":117646,"Delta":368892900},{"NoteNumber":65,"Velocity":30,"Duration":117646,"SoundDuration":117646,"Delta":368892900},{"NoteNumber":80,"Velocity":65,"Duration":648220,"SoundDuration":648220,"Delta":369128194},{"NoteNumber":49,"Velocity":36,"Duration":109946,"SoundDuration":109946,"Delta":369128194},{"NoteNumber":65,"Velocity":30,"Duration":109946,"SoundDuration":109946,"Delta":369348087},{"NoteNumber":71,"Velocity":36,"Duration":109946,"SoundDuration":109946,"Delta":369348087},{"NoteNumber":61,"Velocity":30,"Duration":109946,"SoundDuration":109946,"Delta":369348087},{"NoteNumber":56,"Velocity":42,"Duration":104217,"SoundDuration":104217,"Delta":369567980},{"NoteNumber":82,"Velocity":65,"Duration":104217,"SoundDuration":104217,"Delta":369776414},{"NoteNumber":65,"Velocity":36,"Duration":104217,"SoundDuration":104217,"Delta":369776414},{"NoteNumber":61,"Velocity":36,"Duration":104217,"SoundDuration":104217,"Delta":369776414},{"NoteNumber":71,"Velocity":36,"Duration":104217,"SoundDuration":104217,"Delta":369776414},{"NoteNumber":83,"Velocity":69,"Duration":102389,"SoundDuration":102389,"Delta":369984849},{"NoteNumber":49,"Velocity":36,"Duration":102389,"SoundDuration":102389,"Delta":369984849},{"NoteNumber":80,"Velocity":65,"Duration":102389,"SoundDuration":102389,"Delta":370189627},{"NoteNumber":61,"Velocity":30,"Duration":102389,"SoundDuration":102389,"Delta":370189627},{"NoteNumber":71,"Velocity":36,"Duration":102389,"SoundDuration":102389,"Delta":370189627},{"NoteNumber":65,"Velocity":30,"Duration":102389,"SoundDuration":102389,"Delta":370189627},{"NoteNumber":82,"Velocity":63,"Duration":53598,"SoundDuration":53598,"Delta":370345614},{"NoteNumber":97,"Velocity":83,"Duration":103652,"SoundDuration":103652,"Delta":370399212},{"NoteNumber":54,"Velocity":42,"Duration":103652,"SoundDuration":103652,"Delta":370399212},{"NoteNumber":61,"Velocity":28,"Duration":103448,"SoundDuration":103448,"Delta":370606313},{"NoteNumber":66,"Velocity":28,"Duration":103448,"SoundDuration":103448,"Delta":370606313},{"NoteNumber":70,"Velocity":34,"Duration":103448,"SoundDuration":103448,"Delta":370606313},{"NoteNumber":78,"Velocity":65,"Duration":613869,"SoundDuration":613869,"Delta":370813209},{"NoteNumber":49,"Velocity":34,"Duration":103448,"SoundDuration":103448,"Delta":370813209},{"NoteNumber":70,"Velocity":34,"Duration":101743,"SoundDuration":101743,"Delta":371020106},{"NoteNumber":61,"Velocity":28,"Duration":101743,"SoundDuration":101743,"Delta":371020106},{"NoteNumber":66,"Velocity":28,"Duration":101743,"SoundDuration":101743,"Delta":371020106},{"NoteNumber":54,"Velocity":42,"Duration":101743,"SoundDuration":101743,"Delta":371223592},{"NoteNumber":80,"Velocity":65,"Duration":99667,"SoundDuration":99667,"Delta":371427079},{"NoteNumber":70,"Velocity":36,"Duration":99667,"SoundDuration":99667,"Delta":371427079},{"NoteNumber":66,"Velocity":30,"Duration":99667,"SoundDuration":99667,"Delta":371427079},{"NoteNumber":61,"Velocity":30,"Duration":99667,"SoundDuration":99667,"Delta":371427079},{"NoteNumber":82,"Velocity":69,"Duration":98684,"SoundDuration":98684,"Delta":371626414},{"NoteNumber":49,"Velocity":36,"Duration":98684,"SoundDuration":98684,"Delta":371626414},{"NoteNumber":78,"Velocity":59,"Duration":98684,"SoundDuration":98684,"Delta":371823783},{"NoteNumber":70,"Velocity":36,"Duration":98684,"SoundDuration":98684,"Delta":371823783},{"NoteNumber":61,"Velocity":30,"Duration":98684,"SoundDuration":98684,"Delta":371823783},{"NoteNumber":66,"Velocity":30,"Duration":98684,"SoundDuration":98684,"Delta":371823783},{"NoteNumber":77,"Velocity":65,"Duration":99714,"SoundDuration":99714,"Delta":372021151},{"NoteNumber":56,"Velocity":42,"Duration":99714,"SoundDuration":99714,"Delta":372021151},{"NoteNumber":78,"Velocity":61,"Duration":97087,"SoundDuration":97087,"Delta":372220580},{"NoteNumber":65,"Velocity":28,"Duration":97087,"SoundDuration":97087,"Delta":372220580},{"NoteNumber":71,"Velocity":34,"Duration":97087,"SoundDuration":97087,"Delta":372220580},{"NoteNumber":61,"Velocity":28,"Duration":97087,"SoundDuration":97087,"Delta":372220580},{"NoteNumber":80,"Velocity":65,"Duration":95846,"SoundDuration":95846,"Delta":372414755},{"NoteNumber":49,"Velocity":34,"Duration":95846,"SoundDuration":95846,"Delta":372414755},{"NoteNumber":82,"Velocity":61,"Duration":95846,"SoundDuration":95846,"Delta":372606448},{"NoteNumber":65,"Velocity":28,"Duration":95846,"SoundDuration":95846,"Delta":372606448},{"NoteNumber":61,"Velocity":28,"Duration":95846,"SoundDuration":95846,"Delta":372606448},{"NoteNumber":71,"Velocity":34,"Duration":95846,"SoundDuration":95846,"Delta":372606448},{"NoteNumber":83,"Velocity":65,"Duration":98405,"SoundDuration":98405,"Delta":372798142},{"NoteNumber":56,"Velocity":42,"Duration":98405,"SoundDuration":98405,"Delta":372798142},{"NoteNumber":85,"Velocity":60,"Duration":95237,"SoundDuration":95237,"Delta":372994953},{"NoteNumber":65,"Velocity":31,"Duration":95237,"SoundDuration":95237,"Delta":372994953},{"NoteNumber":71,"Velocity":37,"Duration":95237,"SoundDuration":95237,"Delta":372994953},{"NoteNumber":61,"Velocity":31,"Duration":95237,"SoundDuration":95237,"Delta":372994953},{"NoteNumber":87,"Velocity":65,"Duration":94637,"SoundDuration":94637,"Delta":373185129},{"NoteNumber":49,"Velocity":37,"Duration":94637,"SoundDuration":94637,"Delta":373185129},{"NoteNumber":89,"Velocity":59,"Duration":94637,"SoundDuration":94637,"Delta":373374403},{"NoteNumber":61,"Velocity":30,"Duration":94637,"SoundDuration":94637,"Delta":373374403},{"NoteNumber":65,"Velocity":30,"Duration":94637,"SoundDuration":94637,"Delta":373374403},{"NoteNumber":71,"Velocity":36,"Duration":94637,"SoundDuration":94637,"Delta":373374403},{"NoteNumber":90,"Velocity":61,"Duration":23659,"SoundDuration":23659,"Delta":373516359},{"NoteNumber":92,"Velocity":61,"Duration":23659,"SoundDuration":23659,"Delta":373540018},{"NoteNumber":90,"Velocity":75,"Duration":97131,"SoundDuration":97131,"Delta":373563678},{"NoteNumber":54,"Velocity":42,"Duration":97131,"SoundDuration":97131,"Delta":373563678},{"NoteNumber":89,"Velocity":65,"Duration":93898,"SoundDuration":93898,"Delta":373757941},{"NoteNumber":70,"Velocity":39,"Duration":93898,"SoundDuration":93898,"Delta":373757941},{"NoteNumber":66,"Velocity":33,"Duration":93898,"SoundDuration":93898,"Delta":373757941},{"NoteNumber":61,"Velocity":33,"Duration":93898,"SoundDuration":93898,"Delta":373757941},{"NoteNumber":90,"Velocity":71,"Duration":93457,"SoundDuration":93457,"Delta":373945298},{"NoteNumber":49,"Velocity":39,"Duration":93457,"SoundDuration":93457,"Delta":373945298},{"NoteNumber":92,"Velocity":65,"Duration":94652,"SoundDuration":94652,"Delta":374132214},{"NoteNumber":61,"Velocity":33,"Duration":94652,"SoundDuration":94652,"Delta":374132214},{"NoteNumber":70,"Velocity":39,"Duration":94652,"SoundDuration":94652,"Delta":374132214},{"NoteNumber":66,"Velocity":33,"Duration":94652,"SoundDuration":94652,"Delta":374132214},{"NoteNumber":94,"Velocity":73,"Duration":93457,"SoundDuration":93457,"Delta":374322713},{"NoteNumber":54,"Velocity":42,"Duration":93457,"SoundDuration":93457,"Delta":374322713},{"NoteNumber":92,"Velocity":65,"Duration":93457,"SoundDuration":93457,"Delta":374509629},{"NoteNumber":61,"Velocity":32,"Duration":93457,"SoundDuration":93457,"Delta":374509629},{"NoteNumber":70,"Velocity":38,"Duration":93457,"SoundDuration":93457,"Delta":374509629},{"NoteNumber":66,"Velocity":32,"Duration":93457,"SoundDuration":93457,"Delta":374509629},{"NoteNumber":94,"Velocity":73,"Duration":94637,"SoundDuration":94637,"Delta":374696545},{"NoteNumber":49,"Velocity":38,"Duration":94637,"SoundDuration":94637,"Delta":374696545},{"NoteNumber":90,"Velocity":65,"Duration":94637,"SoundDuration":94637,"Delta":374885819},{"NoteNumber":66,"Velocity":32,"Duration":94637,"SoundDuration":94637,"Delta":374885819},{"NoteNumber":70,"Velocity":38,"Duration":94637,"SoundDuration":94637,"Delta":374885819},{"NoteNumber":61,"Velocity":32,"Duration":94637,"SoundDuration":94637,"Delta":374885819},{"NoteNumber":83,"Velocity":50,"Duration":22524,"SoundDuration":22524,"Delta":375048030},{"NoteNumber":89,"Velocity":54,"Duration":22524,"SoundDuration":22524,"Delta":375070555},{"NoteNumber":92,"Velocity":57,"Duration":22524,"SoundDuration":22524,"Delta":375093079},{"NoteNumber":99,"Velocity":82,"Duration":110758,"SoundDuration":110758,"Delta":375115604},{"NoteNumber":56,"Velocity":42,"Duration":110758,"SoundDuration":110758,"Delta":375115604},{"NoteNumber":65,"Velocity":30,"Duration":110758,"SoundDuration":110758,"Delta":375337120},{"NoteNumber":61,"Velocity":30,"Duration":110758,"SoundDuration":110758,"Delta":375337120},{"NoteNumber":71,"Velocity":36,"Duration":110758,"SoundDuration":110758,"Delta":375337120},{"NoteNumber":77,"Velocity":55,"Duration":626136,"SoundDuration":626136,"Delta":375558637},{"NoteNumber":80,"Velocity":65,"Duration":626136,"SoundDuration":626136,"Delta":375558637},{"NoteNumber":49,"Velocity":36,"Duration":105315,"SoundDuration":105315,"Delta":375558637},{"NoteNumber":71,"Velocity":36,"Duration":105315,"SoundDuration":105315,"Delta":375769267},{"NoteNumber":61,"Velocity":30,"Duration":105315,"SoundDuration":105315,"Delta":375769267},{"NoteNumber":65,"Velocity":30,"Duration":105315,"SoundDuration":105315,"Delta":375769267},{"NoteNumber":56,"Velocity":42,"Duration":102438,"SoundDuration":102438,"Delta":375979897},{"NoteNumber":82,"Velocity":66,"Duration":99502,"SoundDuration":99502,"Delta":376184773},{"NoteNumber":78,"Velocity":56,"Duration":99502,"SoundDuration":99502,"Delta":376184773},{"NoteNumber":71,"Velocity":36,"Duration":99502,"SoundDuration":99502,"Delta":376184773},{"NoteNumber":65,"Velocity":36,"Duration":99502,"SoundDuration":99502,"Delta":376184773},{"NoteNumber":61,"Velocity":36,"Duration":99502,"SoundDuration":99502,"Delta":376184773},{"NoteNumber":80,"Velocity":59,"Duration":96774,"SoundDuration":96774,"Delta":376383613},{"NoteNumber":83,"Velocity":70,"Duration":96774,"SoundDuration":96774,"Delta":376383613},{"NoteNumber":49,"Velocity":36,"Duration":96774,"SoundDuration":96774,"Delta":376383613},{"NoteNumber":77,"Velocity":56,"Duration":96774,"SoundDuration":96774,"Delta":376577162},{"NoteNumber":80,"Velocity":66,"Duration":96774,"SoundDuration":96774,"Delta":376577162},{"NoteNumber":71,"Velocity":37,"Duration":96774,"SoundDuration":96774,"Delta":376577162},{"NoteNumber":65,"Velocity":30,"Duration":96774,"SoundDuration":96774,"Delta":376577162},{"NoteNumber":61,"Velocity":30,"Duration":96774,"SoundDuration":96774,"Delta":376577162},{"NoteNumber":82,"Velocity":46,"Duration":17866,"SoundDuration":17866,"Delta":376727534},{"NoteNumber":85,"Velocity":58,"Duration":17866,"SoundDuration":17866,"Delta":376745400},{"NoteNumber":90,"Velocity":61,"Duration":1786,"SoundDuration":1786,"Delta":376763266},{"NoteNumber":97,"Velocity":85,"Duration":101743,"SoundDuration":101743,"Delta":376781132},{"NoteNumber":54,"Velocity":43,"Duration":101743,"SoundDuration":101743,"Delta":376781132},{"NoteNumber":66,"Velocity":29,"Duration":101743,"SoundDuration":101743,"Delta":376984619},{"NoteNumber":70,"Velocity":35,"Duration":101743,"SoundDuration":101743,"Delta":376984619},{"NoteNumber":61,"Velocity":29,"Duration":101743,"SoundDuration":101743,"Delta":376984619},{"NoteNumber":70,"Velocity":57,"Duration":607641,"SoundDuration":607641,"Delta":377188105},{"NoteNumber":78,"Velocity":67,"Duration":607641,"SoundDuration":607641,"Delta":377188105},{"NoteNumber":49,"Velocity":35,"Duration":100334,"SoundDuration":100334,"Delta":377188105},{"NoteNumber":66,"Velocity":35,"Duration":101743,"SoundDuration":101743,"Delta":377388774},{"NoteNumber":61,"Velocity":29,"Duration":101743,"SoundDuration":101743,"Delta":377388774},{"NoteNumber":54,"Velocity":44,"Duration":101743,"SoundDuration":101743,"Delta":377592261},{"NoteNumber":71,"Velocity":58,"Duration":98039,"SoundDuration":98039,"Delta":377795747},{"NoteNumber":80,"Velocity":68,"Duration":98039,"SoundDuration":98039,"Delta":377795747},{"NoteNumber":66,"Velocity":38,"Duration":98039,"SoundDuration":98039,"Delta":377795747},{"NoteNumber":61,"Velocity":31,"Duration":98039,"SoundDuration":98039,"Delta":377795747},{"NoteNumber":73,"Velocity":61,"Duration":97245,"SoundDuration":97245,"Delta":377991826},{"NoteNumber":82,"Velocity":73,"Duration":97245,"SoundDuration":97245,"Delta":377991826},{"NoteNumber":49,"Velocity":38,"Duration":97245,"SoundDuration":97245,"Delta":377991826},{"NoteNumber":78,"Velocity":63,"Duration":97087,"SoundDuration":97087,"Delta":378186158},{"NoteNumber":70,"Velocity":53,"Duration":97087,"SoundDuration":97087,"Delta":378186158},{"NoteNumber":61,"Velocity":32,"Duration":97087,"SoundDuration":97087,"Delta":378186158},{"NoteNumber":66,"Velocity":38,"Duration":97087,"SoundDuration":97087,"Delta":378186158},{"NoteNumber":77,"Velocity":69,"Duration":99714,"SoundDuration":99714,"Delta":378380333},{"NoteNumber":68,"Velocity":58,"Duration":99714,"SoundDuration":99714,"Delta":378380333},{"NoteNumber":56,"Velocity":44,"Duration":99714,"SoundDuration":99714,"Delta":378380333},{"NoteNumber":78,"Velocity":65,"Duration":95889,"SoundDuration":95889,"Delta":378579762},{"NoteNumber":70,"Velocity":54,"Duration":95889,"SoundDuration":95889,"Delta":378579762},{"NoteNumber":65,"Velocity":36,"Duration":95889,"SoundDuration":95889,"Delta":378579762},{"NoteNumber":59,"Velocity":29,"Duration":95889,"SoundDuration":95889,"Delta":378579762},{"NoteNumber":61,"Velocity":29,"Duration":95889,"SoundDuration":95889,"Delta":378579762},{"NoteNumber":71,"Velocity":59,"Duration":94340,"SoundDuration":94340,"Delta":378771541},{"NoteNumber":80,"Velocity":70,"Duration":94340,"SoundDuration":94340,"Delta":378771541},{"NoteNumber":49,"Velocity":36,"Duration":94340,"SoundDuration":94340,"Delta":378771541},{"NoteNumber":73,"Velocity":55,"Duration":94637,"SoundDuration":94637,"Delta":378960519},{"NoteNumber":82,"Velocity":65,"Duration":94637,"SoundDuration":94637,"Delta":378960519},{"NoteNumber":65,"Velocity":36,"Duration":94637,"SoundDuration":94637,"Delta":378960519},{"NoteNumber":61,"Velocity":30,"Duration":94637,"SoundDuration":94637,"Delta":378960519},{"NoteNumber":59,"Velocity":30,"Duration":94637,"SoundDuration":94637,"Delta":378960519},{"NoteNumber":75,"Velocity":59,"Duration":98405,"SoundDuration":98405,"Delta":379149793},{"NoteNumber":83,"Velocity":70,"Duration":98405,"SoundDuration":98405,"Delta":379149793},{"NoteNumber":56,"Velocity":45,"Duration":98405,"SoundDuration":98405,"Delta":379149793},{"NoteNumber":77,"Velocity":55,"Duration":94381,"SoundDuration":94381,"Delta":379346605},{"NoteNumber":85,"Velocity":65,"Duration":94381,"SoundDuration":94381,"Delta":379346605},{"NoteNumber":61,"Velocity":33,"Duration":94381,"SoundDuration":94381,"Delta":379346605},{"NoteNumber":65,"Velocity":40,"Duration":94381,"SoundDuration":94381,"Delta":379346605},{"NoteNumber":59,"Velocity":33,"Duration":94381,"SoundDuration":94381,"Delta":379346605},{"NoteNumber":87,"Velocity":71,"Duration":92879,"SoundDuration":92879,"Delta":379535367},{"NoteNumber":78,"Velocity":60,"Duration":92879,"SoundDuration":92879,"Delta":379535367},{"NoteNumber":49,"Velocity":40,"Duration":92879,"SoundDuration":92879,"Delta":379535367},{"NoteNumber":80,"Velocity":55,"Duration":92879,"SoundDuration":92879,"Delta":379721126},{"NoteNumber":89,"Velocity":64,"Duration":92879,"SoundDuration":92879,"Delta":379721126},{"NoteNumber":61,"Velocity":33,"Duration":92879,"SoundDuration":92879,"Delta":379721126},{"NoteNumber":59,"Velocity":33,"Duration":92879,"SoundDuration":92879,"Delta":379721126},{"NoteNumber":65,"Velocity":39,"Duration":92879,"SoundDuration":92879,"Delta":379721126},{"NoteNumber":82,"Velocity":69,"Duration":97131,"SoundDuration":97131,"Delta":379906884},{"NoteNumber":90,"Velocity":83,"Duration":97131,"SoundDuration":97131,"Delta":379906884},{"NoteNumber":54,"Velocity":46,"Duration":97131,"SoundDuration":97131,"Delta":379906884},{"NoteNumber":80,"Velocity":61,"Duration":92063,"SoundDuration":92063,"Delta":380101147},{"NoteNumber":89,"Velocity":72,"Duration":92063,"SoundDuration":92063,"Delta":380101147},{"NoteNumber":61,"Velocity":36,"Duration":92063,"SoundDuration":92063,"Delta":380101147},{"NoteNumber":66,"Velocity":43,"Duration":92063,"SoundDuration":92063,"Delta":380101147},{"NoteNumber":58,"Velocity":36,"Duration":92063,"SoundDuration":92063,"Delta":380101147},{"NoteNumber":82,"Velocity":67,"Duration":92063,"SoundDuration":92063,"Delta":380285275},{"NoteNumber":90,"Velocity":79,"Duration":92063,"SoundDuration":92063,"Delta":380285275},{"NoteNumber":49,"Velocity":43,"Duration":92063,"SoundDuration":92063,"Delta":380285275},{"NoteNumber":83,"Velocity":61,"Duration":93350,"SoundDuration":93350,"Delta":380469403},{"NoteNumber":92,"Velocity":72,"Duration":93350,"SoundDuration":93350,"Delta":380469403},{"NoteNumber":61,"Velocity":36,"Duration":93350,"SoundDuration":93350,"Delta":380469403},{"NoteNumber":58,"Velocity":36,"Duration":93350,"SoundDuration":93350,"Delta":380469403},{"NoteNumber":66,"Velocity":43,"Duration":93350,"SoundDuration":93350,"Delta":380469403},{"NoteNumber":94,"Velocity":82,"Duration":93330,"SoundDuration":93330,"Delta":380657391},{"NoteNumber":85,"Velocity":70,"Duration":93330,"SoundDuration":93330,"Delta":380657391},{"NoteNumber":54,"Velocity":47,"Duration":93330,"SoundDuration":93330,"Delta":380657391},{"NoteNumber":83,"Velocity":62,"Duration":92024,"SoundDuration":92024,"Delta":380842747},{"NoteNumber":92,"Velocity":73,"Duration":92024,"SoundDuration":92024,"Delta":380842747},{"NoteNumber":58,"Velocity":36,"Duration":92024,"SoundDuration":92024,"Delta":380842747},{"NoteNumber":66,"Velocity":42,"Duration":92024,"SoundDuration":92024,"Delta":380842747},{"NoteNumber":61,"Velocity":36,"Duration":92024,"SoundDuration":92024,"Delta":380842747},{"NoteNumber":94,"Velocity":83,"Duration":92024,"SoundDuration":92024,"Delta":381026796},{"NoteNumber":85,"Velocity":70,"Duration":92024,"SoundDuration":92024,"Delta":381026796},{"NoteNumber":49,"Velocity":43,"Duration":92024,"SoundDuration":92024,"Delta":381026796},{"NoteNumber":90,"Velocity":74,"Duration":92024,"SoundDuration":92024,"Delta":381210845},{"NoteNumber":82,"Velocity":62,"Duration":92024,"SoundDuration":92024,"Delta":381210845},{"NoteNumber":61,"Velocity":36,"Duration":92024,"SoundDuration":92024,"Delta":381210845},{"NoteNumber":66,"Velocity":43,"Duration":92024,"SoundDuration":92024,"Delta":381210845},{"NoteNumber":58,"Velocity":36,"Duration":92024,"SoundDuration":92024,"Delta":381210845},{"NoteNumber":87,"Velocity":58,"Duration":31664,"SoundDuration":31664,"Delta":381348881},{"NoteNumber":94,"Velocity":62,"Duration":31664,"SoundDuration":31664,"Delta":381380546},{"NoteNumber":102,"Velocity":93,"Duration":110758,"SoundDuration":110758,"Delta":381412210},{"NoteNumber":51,"Velocity":53,"Duration":110758,"SoundDuration":110758,"Delta":381412210},{"NoteNumber":60,"Velocity":37,"Duration":110758,"SoundDuration":110758,"Delta":381633726},{"NoteNumber":66,"Velocity":44,"Duration":110758,"SoundDuration":110758,"Delta":381633726},{"NoteNumber":56,"Velocity":37,"Duration":110758,"SoundDuration":110758,"Delta":381633726},{"NoteNumber":75,"Velocity":77,"Duration":616189,"SoundDuration":616189,"Delta":381855243},{"NoteNumber":66,"Velocity":65,"Duration":616189,"SoundDuration":616189,"Delta":381855243},{"NoteNumber":44,"Velocity":48,"Duration":103856,"SoundDuration":103856,"Delta":381855243},{"NoteNumber":60,"Velocity":44,"Duration":103856,"SoundDuration":103856,"Delta":382062956},{"NoteNumber":56,"Velocity":37,"Duration":103856,"SoundDuration":103856,"Delta":382062956},{"NoteNumber":54,"Velocity":52,"Duration":100381,"SoundDuration":100381,"Delta":382270669},{"NoteNumber":68,"Velocity":63,"Duration":100718,"SoundDuration":100718,"Delta":382471432},{"NoteNumber":77,"Velocity":75,"Duration":100718,"SoundDuration":100718,"Delta":382471432},{"NoteNumber":60,"Velocity":43,"Duration":100718,"SoundDuration":100718,"Delta":382471432},{"NoteNumber":56,"Velocity":36,"Duration":100718,"SoundDuration":100718,"Delta":382471432},{"NoteNumber":78,"Velocity":78,"Duration":95241,"SoundDuration":95241,"Delta":382669597},{"NoteNumber":70,"Velocity":66,"Duration":95241,"SoundDuration":95241,"Delta":382669597},{"NoteNumber":44,"Velocity":48,"Duration":95241,"SoundDuration":95241,"Delta":382669597},{"NoteNumber":66,"Velocity":60,"Duration":94637,"SoundDuration":94637,"Delta":382859477},{"NoteNumber":75,"Velocity":71,"Duration":94637,"SoundDuration":94637,"Delta":382859477},{"NoteNumber":56,"Velocity":37,"Duration":94637,"SoundDuration":94637,"Delta":382859477},{"NoteNumber":60,"Velocity":44,"Duration":94637,"SoundDuration":94637,"Delta":382859477},{"NoteNumber":85,"Velocity":58,"Duration":31664,"SoundDuration":31664,"Delta":383001432},{"NoteNumber":92,"Velocity":62,"Duration":31664,"SoundDuration":31664,"Delta":383033097},{"NoteNumber":101,"Velocity":93,"Duration":110758,"SoundDuration":110758,"Delta":383064761},{"NoteNumber":49,"Velocity":53,"Duration":110758,"SoundDuration":110758,"Delta":383064761},{"NoteNumber":61,"Velocity":37,"Duration":110758,"SoundDuration":110758,"Delta":383286277},{"NoteNumber":56,"Velocity":37,"Duration":110758,"SoundDuration":110758,"Delta":383286277},{"NoteNumber":65,"Velocity":44,"Duration":110758,"SoundDuration":110758,"Delta":383286277},{"NoteNumber":65,"Velocity":65,"Duration":616189,"SoundDuration":616189,"Delta":383507794},{"NoteNumber":73,"Velocity":77,"Duration":616189,"SoundDuration":616189,"Delta":383507794},{"NoteNumber":44,"Velocity":48,"Duration":103856,"SoundDuration":103856,"Delta":383507794},{"NoteNumber":61,"Velocity":44,"Duration":103856,"SoundDuration":103856,"Delta":383715507},{"NoteNumber":56,"Velocity":37,"Duration":103856,"SoundDuration":103856,"Delta":383715507},{"NoteNumber":49,"Velocity":52,"Duration":100381,"SoundDuration":100381,"Delta":383923220},{"NoteNumber":66,"Velocity":63,"Duration":100718,"SoundDuration":100718,"Delta":384123983},{"NoteNumber":75,"Velocity":75,"Duration":100718,"SoundDuration":100718,"Delta":384123983},{"NoteNumber":56,"Velocity":36,"Duration":100718,"SoundDuration":100718,"Delta":384123983},{"NoteNumber":61,"Velocity":43,"Duration":100718,"SoundDuration":100718,"Delta":384123983},{"NoteNumber":68,"Velocity":66,"Duration":97446,"SoundDuration":97446,"Delta":384322148},{"NoteNumber":77,"Velocity":78,"Duration":97446,"SoundDuration":97446,"Delta":384322148},{"NoteNumber":44,"Velocity":48,"Duration":97446,"SoundDuration":97446,"Delta":384322148},{"NoteNumber":65,"Velocity":60,"Duration":97446,"SoundDuration":97446,"Delta":384517042},{"NoteNumber":73,"Velocity":71,"Duration":97446,"SoundDuration":97446,"Delta":384517042},{"NoteNumber":61,"Velocity":44,"Duration":97446,"SoundDuration":97446,"Delta":384517042},{"NoteNumber":56,"Velocity":37,"Duration":97446,"SoundDuration":97446,"Delta":384517042},{"NoteNumber":72,"Velocity":70,"Duration":97446,"SoundDuration":97446,"Delta":384711936},{"NoteNumber":63,"Velocity":59,"Duration":97446,"SoundDuration":97446,"Delta":384711936},{"NoteNumber":51,"Velocity":52,"Duration":97446,"SoundDuration":97446,"Delta":384711936},{"NoteNumber":65,"Velocity":61,"Duration":95846,"SoundDuration":95846,"Delta":384906830},{"NoteNumber":73,"Velocity":72,"Duration":95846,"SoundDuration":95846,"Delta":384906830},{"NoteNumber":54,"Velocity":38,"Duration":95846,"SoundDuration":95846,"Delta":384906830},{"NoteNumber":60,"Velocity":45,"Duration":95846,"SoundDuration":95846,"Delta":384906830},{"NoteNumber":56,"Velocity":38,"Duration":95846,"SoundDuration":95846,"Delta":384906830},{"NoteNumber":75,"Velocity":74,"Duration":95846,"SoundDuration":95846,"Delta":385098524},{"NoteNumber":66,"Velocity":62,"Duration":95846,"SoundDuration":95846,"Delta":385098524},{"NoteNumber":44,"Velocity":45,"Duration":95846,"SoundDuration":95846,"Delta":385098524},{"NoteNumber":68,"Velocity":65,"Duration":95846,"SoundDuration":95846,"Delta":385290217},{"NoteNumber":77,"Velocity":77,"Duration":95846,"SoundDuration":95846,"Delta":385290217},{"NoteNumber":56,"Velocity":38,"Duration":95846,"SoundDuration":95846,"Delta":385290217},{"NoteNumber":60,"Velocity":45,"Duration":95846,"SoundDuration":95846,"Delta":385290217},{"NoteNumber":54,"Velocity":38,"Duration":95846,"SoundDuration":95846,"Delta":385290217},{"NoteNumber":70,"Velocity":67,"Duration":95846,"SoundDuration":95846,"Delta":385481911},{"NoteNumber":78,"Velocity":79,"Duration":95846,"SoundDuration":95846,"Delta":385481911},{"NoteNumber":51,"Velocity":54,"Duration":95846,"SoundDuration":95846,"Delta":385481911},{"NoteNumber":72,"Velocity":63,"Duration":94339,"SoundDuration":94339,"Delta":385673604},{"NoteNumber":80,"Velocity":75,"Duration":94339,"SoundDuration":94339,"Delta":385673604},{"NoteNumber":60,"Velocity":47,"Duration":94339,"SoundDuration":94339,"Delta":385673604},{"NoteNumber":66,"Velocity":47,"Duration":94339,"SoundDuration":94339,"Delta":385673604},{"NoteNumber":56,"Velocity":39,"Duration":94339,"SoundDuration":94339,"Delta":385673604},{"NoteNumber":82,"Velocity":77,"Duration":93457,"SoundDuration":93457,"Delta":385862283},{"NoteNumber":73,"Velocity":65,"Duration":93457,"SoundDuration":93457,"Delta":385862283},{"NoteNumber":44,"Velocity":47,"Duration":93457,"SoundDuration":93457,"Delta":385862283},{"NoteNumber":84,"Velocity":80,"Duration":93457,"SoundDuration":93457,"Delta":386049199},{"NoteNumber":75,"Velocity":68,"Duration":93457,"SoundDuration":93457,"Delta":386049199},{"NoteNumber":60,"Velocity":46,"Duration":93457,"SoundDuration":93457,"Delta":386049199},{"NoteNumber":56,"Velocity":39,"Duration":93457,"SoundDuration":93457,"Delta":386049199},{"NoteNumber":77,"Velocity":69,"Duration":93457,"SoundDuration":93457,"Delta":386236115},{"NoteNumber":85,"Velocity":82,"Duration":93457,"SoundDuration":93457,"Delta":386236115},{"NoteNumber":49,"Velocity":56,"Duration":93457,"SoundDuration":93457,"Delta":386236115},{"NoteNumber":75,"Velocity":67,"Duration":94381,"SoundDuration":94381,"Delta":386422886},{"NoteNumber":84,"Velocity":79,"Duration":94381,"SoundDuration":94381,"Delta":386422886},{"NoteNumber":61,"Velocity":43,"Duration":94381,"SoundDuration":94381,"Delta":386422886},{"NoteNumber":65,"Velocity":51,"Duration":94381,"SoundDuration":94381,"Delta":386422886},{"NoteNumber":56,"Velocity":43,"Duration":94381,"SoundDuration":94381,"Delta":386422886},{"NoteNumber":85,"Velocity":79,"Duration":94381,"SoundDuration":94381,"Delta":386611649},{"NoteNumber":77,"Velocity":67,"Duration":94381,"SoundDuration":94381,"Delta":386611649},{"NoteNumber":44,"Velocity":51,"Duration":94381,"SoundDuration":94381,"Delta":386611649},{"NoteNumber":78,"Velocity":68,"Duration":94381,"SoundDuration":94381,"Delta":386800411},{"NoteNumber":87,"Velocity":80,"Duration":94381,"SoundDuration":94381,"Delta":386800411},{"NoteNumber":56,"Velocity":43,"Duration":94381,"SoundDuration":94381,"Delta":386800411},{"NoteNumber":61,"Velocity":51,"Duration":94381,"SoundDuration":94381,"Delta":386800411},{"NoteNumber":89,"Velocity":87,"Duration":92880,"SoundDuration":92880,"Delta":386992240},{"NoteNumber":80,"Velocity":73,"Duration":92880,"SoundDuration":92880,"Delta":386992240},{"NoteNumber":49,"Velocity":57,"Duration":92880,"SoundDuration":92880,"Delta":386992240},{"NoteNumber":78,"Velocity":68,"Duration":93167,"SoundDuration":93167,"Delta":387178287},{"NoteNumber":87,"Velocity":80,"Duration":93167,"SoundDuration":93167,"Delta":387178287},{"NoteNumber":65,"Velocity":51,"Duration":93167,"SoundDuration":93167,"Delta":387178287},{"NoteNumber":56,"Velocity":43,"Duration":93167,"SoundDuration":93167,"Delta":387178287},{"NoteNumber":61,"Velocity":43,"Duration":93167,"SoundDuration":93167,"Delta":387178287},{"NoteNumber":80,"Velocity":73,"Duration":94678,"SoundDuration":94678,"Delta":387364623},{"NoteNumber":89,"Velocity":87,"Duration":94678,"SoundDuration":94678,"Delta":387364623},{"NoteNumber":44,"Velocity":51,"Duration":94678,"SoundDuration":94678,"Delta":387364623},{"NoteNumber":85,"Velocity":80,"Duration":96817,"SoundDuration":96817,"Delta":387553981},{"NoteNumber":77,"Velocity":68,"Duration":96817,"SoundDuration":96817,"Delta":387553981},{"NoteNumber":61,"Velocity":51,"Duration":96817,"SoundDuration":96817,"Delta":387553981},{"NoteNumber":56,"Velocity":43,"Duration":96817,"SoundDuration":96817,"Delta":387553981},{"NoteNumber":87,"Velocity":58,"Duration":31664,"SoundDuration":31664,"Delta":387699208},{"NoteNumber":94,"Velocity":62,"Duration":31664,"SoundDuration":31664,"Delta":387730872},{"NoteNumber":102,"Velocity":97,"Duration":110758,"SoundDuration":110758,"Delta":387762536},{"NoteNumber":51,"Velocity":55,"Duration":110758,"SoundDuration":110758,"Delta":387762536},{"NoteNumber":66,"Velocity":46,"Duration":110758,"SoundDuration":110758,"Delta":387984053},{"NoteNumber":56,"Velocity":38,"Duration":110758,"SoundDuration":110758,"Delta":387984053},{"NoteNumber":60,"Velocity":38,"Duration":110758,"SoundDuration":110758,"Delta":387984053},{"NoteNumber":75,"Velocity":80,"Duration":612885,"SoundDuration":612885,"Delta":388205569},{"NoteNumber":66,"Velocity":68,"Duration":612885,"SoundDuration":612885,"Delta":388205569},{"NoteNumber":44,"Velocity":50,"Duration":103856,"SoundDuration":103856,"Delta":388205569},{"NoteNumber":56,"Velocity":38,"Duration":103856,"SoundDuration":103856,"Delta":388413282},{"NoteNumber":60,"Velocity":46,"Duration":103856,"SoundDuration":103856,"Delta":388413282},{"NoteNumber":51,"Velocity":54,"Duration":98729,"SoundDuration":98729,"Delta":388620995},{"NoteNumber":77,"Velocity":79,"Duration":98729,"SoundDuration":98729,"Delta":388818455},{"NoteNumber":68,"Velocity":66,"Duration":98729,"SoundDuration":98729,"Delta":388818455},{"NoteNumber":60,"Velocity":45,"Duration":98729,"SoundDuration":98729,"Delta":388818455},{"NoteNumber":56,"Velocity":38,"Duration":98729,"SoundDuration":98729,"Delta":388818455},{"NoteNumber":78,"Velocity":82,"Duration":93750,"SoundDuration":93750,"Delta":389012465},{"NoteNumber":70,"Velocity":69,"Duration":93750,"SoundDuration":93750,"Delta":389012465},{"NoteNumber":44,"Velocity":50,"Duration":93750,"SoundDuration":93750,"Delta":389012465},{"NoteNumber":75,"Velocity":75,"Duration":93750,"SoundDuration":93750,"Delta":389199965},{"NoteNumber":66,"Velocity":63,"Duration":93750,"SoundDuration":93750,"Delta":389199965},{"NoteNumber":56,"Velocity":39,"Duration":93750,"SoundDuration":93750,"Delta":389199965},{"NoteNumber":60,"Velocity":46,"Duration":93750,"SoundDuration":93750,"Delta":389199965},{"NoteNumber":85,"Velocity":61,"Duration":31664,"SoundDuration":31664,"Delta":389340590},{"NoteNumber":92,"Velocity":65,"Duration":31664,"SoundDuration":31664,"Delta":389372254},{"NoteNumber":101,"Velocity":98,"Duration":110758,"SoundDuration":110758,"Delta":389403919},{"NoteNumber":49,"Velocity":56,"Duration":110758,"SoundDuration":110758,"Delta":389403919},{"NoteNumber":65,"Velocity":46,"Duration":110758,"SoundDuration":110758,"Delta":389625435},{"NoteNumber":61,"Velocity":39,"Duration":110758,"SoundDuration":110758,"Delta":389625435},{"NoteNumber":56,"Velocity":39,"Duration":110758,"SoundDuration":110758,"Delta":389625435},{"NoteNumber":73,"Velocity":82,"Duration":606396,"SoundDuration":606396,"Delta":389846952},{"NoteNumber":65,"Velocity":69,"Duration":606396,"SoundDuration":606396,"Delta":389846952},{"NoteNumber":44,"Velocity":51,"Duration":102531,"SoundDuration":102531,"Delta":389846952},{"NoteNumber":61,"Velocity":47,"Duration":102089,"SoundDuration":102089,"Delta":390051572},{"NoteNumber":56,"Velocity":39,"Duration":102089,"SoundDuration":102089,"Delta":390051572},{"NoteNumber":49,"Velocity":55,"Duration":98867,"SoundDuration":98867,"Delta":390255751},{"NoteNumber":75,"Velocity":80,"Duration":98729,"SoundDuration":98729,"Delta":390453349},{"NoteNumber":66,"Velocity":67,"Duration":98729,"SoundDuration":98729,"Delta":390453349},{"NoteNumber":56,"Velocity":38,"Duration":98729,"SoundDuration":98729,"Delta":390453349},{"NoteNumber":61,"Velocity":46,"Duration":98729,"SoundDuration":98729,"Delta":390453349},{"NoteNumber":68,"Velocity":70,"Duration":94381,"SoundDuration":94381,"Delta":390646715},{"NoteNumber":77,"Velocity":83,"Duration":94381,"SoundDuration":94381,"Delta":390646715},{"NoteNumber":44,"Velocity":51,"Duration":94381,"SoundDuration":94381,"Delta":390646715},{"NoteNumber":73,"Velocity":76,"Duration":94381,"SoundDuration":94381,"Delta":390835478},{"NoteNumber":65,"Velocity":64,"Duration":94381,"SoundDuration":94381,"Delta":390835478},{"NoteNumber":61,"Velocity":47,"Duration":94381,"SoundDuration":94381,"Delta":390835478},{"NoteNumber":56,"Velocity":39,"Duration":94381,"SoundDuration":94381,"Delta":390835478},{"NoteNumber":72,"Velocity":75,"Duration":92592,"SoundDuration":92592,"Delta":391024240},{"NoteNumber":63,"Velocity":63,"Duration":92592,"SoundDuration":92592,"Delta":391024240},{"NoteNumber":51,"Velocity":56,"Duration":92592,"SoundDuration":92592,"Delta":391024240},{"NoteNumber":73,"Velocity":77,"Duration":92592,"SoundDuration":92592,"Delta":391209425},{"NoteNumber":65,"Velocity":65,"Duration":92592,"SoundDuration":92592,"Delta":391209425},{"NoteNumber":54,"Velocity":41,"Duration":92592,"SoundDuration":92592,"Delta":391209425},{"NoteNumber":60,"Velocity":48,"Duration":92592,"SoundDuration":92592,"Delta":391209425},{"NoteNumber":56,"Velocity":41,"Duration":92592,"SoundDuration":92592,"Delta":391209425},{"NoteNumber":66,"Velocity":66,"Duration":93362,"SoundDuration":93362,"Delta":391394610},{"NoteNumber":75,"Velocity":79,"Duration":93362,"SoundDuration":93362,"Delta":391394610},{"NoteNumber":44,"Velocity":48,"Duration":93362,"SoundDuration":93362,"Delta":391394610},{"NoteNumber":77,"Velocity":83,"Duration":93457,"SoundDuration":93457,"Delta":391581430},{"NoteNumber":68,"Velocity":70,"Duration":93457,"SoundDuration":93457,"Delta":391581430},{"NoteNumber":60,"Velocity":48,"Duration":93457,"SoundDuration":93457,"Delta":391581430},{"NoteNumber":56,"Velocity":41,"Duration":93457,"SoundDuration":93457,"Delta":391581430},{"NoteNumber":54,"Velocity":41,"Duration":93457,"SoundDuration":93457,"Delta":391581430},{"NoteNumber":78,"Velocity":86,"Duration":92142,"SoundDuration":92142,"Delta":391768059},{"NoteNumber":70,"Velocity":73,"Duration":92142,"SoundDuration":92142,"Delta":391768059},{"NoteNumber":51,"Velocity":58,"Duration":92142,"SoundDuration":92142,"Delta":391768059},{"NoteNumber":80,"Velocity":81,"Duration":91301,"SoundDuration":91301,"Delta":391951898},{"NoteNumber":72,"Velocity":68,"Duration":91301,"SoundDuration":91301,"Delta":391951898},{"NoteNumber":56,"Velocity":42,"Duration":91301,"SoundDuration":91301,"Delta":391951898},{"NoteNumber":60,"Velocity":51,"Duration":91301,"SoundDuration":91301,"Delta":391951898},{"NoteNumber":66,"Velocity":51,"Duration":91301,"SoundDuration":91301,"Delta":391951898},{"NoteNumber":73,"Velocity":70,"Duration":90475,"SoundDuration":90475,"Delta":392134062},{"NoteNumber":82,"Velocity":83,"Duration":90475,"SoundDuration":90475,"Delta":392134062},{"NoteNumber":44,"Velocity":51,"Duration":90475,"SoundDuration":90475,"Delta":392134062},{"NoteNumber":75,"Velocity":74,"Duration":89663,"SoundDuration":89663,"Delta":392314583},{"NoteNumber":84,"Velocity":87,"Duration":89663,"SoundDuration":89663,"Delta":392314583},{"NoteNumber":60,"Velocity":50,"Duration":89663,"SoundDuration":89663,"Delta":392314583},{"NoteNumber":56,"Velocity":42,"Duration":89663,"SoundDuration":89663,"Delta":392314583},{"NoteNumber":85,"Velocity":87,"Duration":178041,"SoundDuration":178041,"Delta":392493555},{"NoteNumber":77,"Velocity":73,"Duration":178041,"SoundDuration":178041,"Delta":392493555},{"NoteNumber":73,"Velocity":73,"Duration":178041,"SoundDuration":178041,"Delta":392493555},{"NoteNumber":56,"Velocity":51,"Duration":178041,"SoundDuration":178041,"Delta":392493555},{"NoteNumber":49,"Velocity":51,"Duration":178041,"SoundDuration":178041,"Delta":392493555},{"NoteNumber":61,"Velocity":60,"Duration":178041,"SoundDuration":178041,"Delta":392493555},{"NoteNumber":72,"Velocity":64,"Duration":90909,"SoundDuration":90909,"Delta":392671597},{"NoteNumber":84,"Velocity":76,"Duration":90909,"SoundDuration":90909,"Delta":392671597},{"NoteNumber":50,"Velocity":40,"Duration":90909,"SoundDuration":90909,"Delta":392671597},{"NoteNumber":62,"Velocity":48,"Duration":90909,"SoundDuration":90909,"Delta":392671597},{"NoteNumber":86,"Velocity":87,"Duration":176470,"SoundDuration":176470,"Delta":392853415},{"NoteNumber":74,"Velocity":73,"Duration":176470,"SoundDuration":176470,"Delta":392853415},{"NoteNumber":48,"Velocity":51,"Duration":176470,"SoundDuration":176470,"Delta":392853415},{"NoteNumber":60,"Velocity":60,"Duration":176470,"SoundDuration":176470,"Delta":392853415},{"NoteNumber":73,"Velocity":64,"Duration":90634,"SoundDuration":90634,"Delta":393029885},{"NoteNumber":85,"Velocity":76,"Duration":90634,"SoundDuration":90634,"Delta":393029885},{"NoteNumber":61,"Velocity":49,"Duration":90634,"SoundDuration":90634,"Delta":393029885},{"NoteNumber":49,"Velocity":41,"Duration":90634,"SoundDuration":90634,"Delta":393029885},{"NoteNumber":87,"Velocity":88,"Duration":175054,"SoundDuration":175054,"Delta":393211154},{"NoteNumber":75,"Velocity":74,"Duration":175054,"SoundDuration":175054,"Delta":393211154},{"NoteNumber":47,"Velocity":52,"Duration":175054,"SoundDuration":175054,"Delta":393211154},{"NoteNumber":59,"Velocity":61,"Duration":175054,"SoundDuration":175054,"Delta":393211154},{"NoteNumber":74,"Velocity":64,"Duration":89820,"SoundDuration":89820,"Delta":393386209},{"NoteNumber":86,"Velocity":77,"Duration":89820,"SoundDuration":89820,"Delta":393386209},{"NoteNumber":60,"Velocity":52,"Duration":89820,"SoundDuration":89820,"Delta":393386209},{"NoteNumber":48,"Velocity":44,"Duration":89820,"SoundDuration":89820,"Delta":393386209},{"NoteNumber":76,"Velocity":75,"Duration":175438,"SoundDuration":175438,"Delta":393565850},{"NoteNumber":88,"Velocity":89,"Duration":175438,"SoundDuration":175438,"Delta":393565850},{"NoteNumber":58,"Velocity":61,"Duration":175438,"SoundDuration":175438,"Delta":393565850},{"NoteNumber":46,"Velocity":52,"Duration":175438,"SoundDuration":175438,"Delta":393565850},{"NoteNumber":75,"Velocity":66,"Duration":89820,"SoundDuration":89820,"Delta":393741288},{"NoteNumber":87,"Velocity":79,"Duration":89820,"SoundDuration":89820,"Delta":393741288},{"NoteNumber":47,"Velocity":44,"Duration":89820,"SoundDuration":89820,"Delta":393741288},{"NoteNumber":59,"Velocity":53,"Duration":89820,"SoundDuration":89820,"Delta":393741288},{"NoteNumber":77,"Velocity":76,"Duration":173913,"SoundDuration":173913,"Delta":393920929},{"NoteNumber":89,"Velocity":91,"Duration":173913,"SoundDuration":173913,"Delta":393920929},{"NoteNumber":57,"Velocity":63,"Duration":173913,"SoundDuration":173913,"Delta":393920929},{"NoteNumber":45,"Velocity":53,"Duration":173913,"SoundDuration":173913,"Delta":393920929},{"NoteNumber":88,"Velocity":78,"Duration":90089,"SoundDuration":90089,"Delta":394094842},{"NoteNumber":76,"Velocity":66,"Duration":90089,"SoundDuration":90089,"Delta":394094842},{"NoteNumber":46,"Velocity":46,"Duration":90089,"SoundDuration":90089,"Delta":394094842},{"NoteNumber":58,"Velocity":54,"Duration":90089,"SoundDuration":90089,"Delta":394094842},{"NoteNumber":90,"Velocity":92,"Duration":172414,"SoundDuration":172414,"Delta":394275022},{"NoteNumber":78,"Velocity":77,"Duration":172414,"SoundDuration":172414,"Delta":394275022},{"NoteNumber":44,"Velocity":54,"Duration":172414,"SoundDuration":172414,"Delta":394275022},{"NoteNumber":56,"Velocity":63,"Duration":172414,"SoundDuration":172414,"Delta":394275022},{"NoteNumber":77,"Velocity":67,"Duration":89552,"SoundDuration":89552,"Delta":394447436},{"NoteNumber":89,"Velocity":80,"Duration":89552,"SoundDuration":89552,"Delta":394447436},{"NoteNumber":57,"Velocity":55,"Duration":89552,"SoundDuration":89552,"Delta":394447436},{"NoteNumber":45,"Velocity":46,"Duration":89552,"SoundDuration":89552,"Delta":394447436},{"NoteNumber":91,"Velocity":93,"Duration":170454,"SoundDuration":170454,"Delta":394626540},{"NoteNumber":79,"Velocity":78,"Duration":170454,"SoundDuration":170454,"Delta":394626540},{"NoteNumber":55,"Velocity":64,"Duration":170454,"SoundDuration":170454,"Delta":394626540},{"NoteNumber":43,"Velocity":54,"Duration":170454,"SoundDuration":170454,"Delta":394626540},{"NoteNumber":90,"Velocity":82,"Duration":87463,"SoundDuration":87463,"Delta":394796995},{"NoteNumber":78,"Velocity":69,"Duration":87463,"SoundDuration":87463,"Delta":394796995},{"NoteNumber":44,"Velocity":46,"Duration":87463,"SoundDuration":87463,"Delta":394796995},{"NoteNumber":56,"Velocity":55,"Duration":87463,"SoundDuration":87463,"Delta":394796995},{"NoteNumber":80,"Velocity":78,"Duration":168539,"SoundDuration":168539,"Delta":394971922},{"NoteNumber":92,"Velocity":93,"Duration":168539,"SoundDuration":168539,"Delta":394971922},{"NoteNumber":54,"Velocity":64,"Duration":168539,"SoundDuration":168539,"Delta":394971922},{"NoteNumber":42,"Velocity":55,"Duration":168539,"SoundDuration":168539,"Delta":394971922},{"NoteNumber":91,"Velocity":81,"Duration":86455,"SoundDuration":86455,"Delta":395140461},{"NoteNumber":79,"Velocity":68,"Duration":86455,"SoundDuration":86455,"Delta":395140461},{"NoteNumber":43,"Velocity":46,"Duration":86455,"SoundDuration":86455,"Delta":395140461},{"NoteNumber":55,"Velocity":55,"Duration":86455,"SoundDuration":86455,"Delta":395140461},{"NoteNumber":81,"Velocity":80,"Duration":167365,"SoundDuration":167365,"Delta":395313372},{"NoteNumber":93,"Velocity":95,"Duration":167365,"SoundDuration":167365,"Delta":395313372},{"NoteNumber":53,"Velocity":66,"Duration":167365,"SoundDuration":167365,"Delta":395313372},{"NoteNumber":41,"Velocity":56,"Duration":167365,"SoundDuration":167365,"Delta":395313372},{"NoteNumber":80,"Velocity":69,"Duration":85960,"SoundDuration":85960,"Delta":395480737},{"NoteNumber":92,"Velocity":82,"Duration":85960,"SoundDuration":85960,"Delta":395480737},{"NoteNumber":42,"Velocity":48,"Duration":85960,"SoundDuration":85960,"Delta":395480737},{"NoteNumber":54,"Velocity":57,"Duration":85960,"SoundDuration":85960,"Delta":395480737},{"NoteNumber":94,"Velocity":96,"Duration":167130,"SoundDuration":167130,"Delta":395652657},{"NoteNumber":82,"Velocity":81,"Duration":167130,"SoundDuration":167130,"Delta":395652657},{"NoteNumber":40,"Velocity":56,"Duration":167130,"SoundDuration":167130,"Delta":395652657},{"NoteNumber":52,"Velocity":66,"Duration":167130,"SoundDuration":167130,"Delta":395652657},{"NoteNumber":93,"Velocity":82,"Duration":84269,"SoundDuration":84269,"Delta":395819788},{"NoteNumber":81,"Velocity":68,"Duration":84269,"SoundDuration":84269,"Delta":395819788},{"NoteNumber":41,"Velocity":48,"Duration":84269,"SoundDuration":84269,"Delta":395819788},{"NoteNumber":53,"Velocity":57,"Duration":84269,"SoundDuration":84269,"Delta":395819788},{"NoteNumber":83,"Velocity":81,"Duration":165289,"SoundDuration":165289,"Delta":395989285},{"NoteNumber":95,"Velocity":97,"Duration":165289,"SoundDuration":165289,"Delta":395989285},{"NoteNumber":39,"Velocity":57,"Duration":165289,"SoundDuration":165289,"Delta":395989285},{"NoteNumber":51,"Velocity":67,"Duration":165289,"SoundDuration":165289,"Delta":395989285},{"NoteNumber":82,"Velocity":71,"Duration":84506,"SoundDuration":84506,"Delta":396154574},{"NoteNumber":94,"Velocity":84,"Duration":84506,"SoundDuration":84506,"Delta":396154574},{"NoteNumber":52,"Velocity":58,"Duration":84506,"SoundDuration":84506,"Delta":396154574},{"NoteNumber":40,"Velocity":49,"Duration":84506,"SoundDuration":84506,"Delta":396154574},{"NoteNumber":95,"Velocity":98,"Duration":166666,"SoundDuration":166666,"Delta":396323588},{"NoteNumber":83,"Velocity":82,"Duration":166666,"SoundDuration":166666,"Delta":396323588},{"NoteNumber":50,"Velocity":67,"Duration":166666,"SoundDuration":166666,"Delta":396323588},{"NoteNumber":38,"Velocity":57,"Duration":166666,"SoundDuration":166666,"Delta":396323588},{"NoteNumber":96,"Velocity":84,"Duration":87719,"SoundDuration":87719,"Delta":396490255},{"NoteNumber":84,"Velocity":70,"Duration":87719,"SoundDuration":87719,"Delta":396490255},{"NoteNumber":51,"Velocity":59,"Duration":87719,"SoundDuration":87719,"Delta":396490255},{"NoteNumber":39,"Velocity":50,"Duration":87719,"SoundDuration":87719,"Delta":396490255},{"NoteNumber":89,"Velocity":86,"Duration":166666,"SoundDuration":166666,"Delta":396665693},{"NoteNumber":97,"Velocity":102,"Duration":166666,"SoundDuration":166666,"Delta":396665693},{"NoteNumber":85,"Velocity":86,"Duration":166666,"SoundDuration":166666,"Delta":396665693},{"NoteNumber":37,"Velocity":60,"Duration":166666,"SoundDuration":166666,"Delta":396665693},{"NoteNumber":49,"Velocity":71,"Duration":166666,"SoundDuration":166666,"Delta":396665693},{"NoteNumber":84,"Velocity":80,"Duration":171428,"SoundDuration":171428,"Delta":396832360},{"NoteNumber":96,"Velocity":95,"Duration":171428,"SoundDuration":171428,"Delta":396832360},{"NoteNumber":38,"Velocity":54,"Duration":171428,"SoundDuration":171428,"Delta":396832360},{"NoteNumber":50,"Velocity":64,"Duration":171428,"SoundDuration":171428,"Delta":396832360},{"NoteNumber":97,"Velocity":102,"Duration":164834,"SoundDuration":164834,"Delta":397003788},{"NoteNumber":89,"Velocity":86,"Duration":164834,"SoundDuration":164834,"Delta":397003788},{"NoteNumber":85,"Velocity":86,"Duration":164834,"SoundDuration":164834,"Delta":397003788},{"NoteNumber":44,"Velocity":61,"Duration":164834,"SoundDuration":164834,"Delta":397003788},{"NoteNumber":49,"Velocity":72,"Duration":164834,"SoundDuration":164834,"Delta":397003788},{"NoteNumber":37,"Velocity":61,"Duration":164834,"SoundDuration":164834,"Delta":397003788},{"NoteNumber":84,"Velocity":80,"Duration":169971,"SoundDuration":169971,"Delta":397168623},{"NoteNumber":96,"Velocity":95,"Duration":169971,"SoundDuration":169971,"Delta":397168623},{"NoteNumber":90,"Velocity":80,"Duration":169971,"SoundDuration":169971,"Delta":397168623},{"NoteNumber":50,"Velocity":66,"Duration":169971,"SoundDuration":169971,"Delta":397168623},{"NoteNumber":38,"Velocity":56,"Duration":169971,"SoundDuration":169971,"Delta":397168623},{"NoteNumber":85,"Velocity":86,"Duration":166204,"SoundDuration":166204,"Delta":397338595},{"NoteNumber":97,"Velocity":102,"Duration":166204,"SoundDuration":166204,"Delta":397338595},{"NoteNumber":89,"Velocity":86,"Duration":166204,"SoundDuration":166204,"Delta":397338595},{"NoteNumber":49,"Velocity":71,"Duration":166204,"SoundDuration":166204,"Delta":397338595},{"NoteNumber":44,"Velocity":60,"Duration":166204,"SoundDuration":166204,"Delta":397338595},{"NoteNumber":37,"Velocity":60,"Duration":166204,"SoundDuration":166204,"Delta":397338595},{"NoteNumber":84,"Velocity":80,"Duration":172910,"SoundDuration":172910,"Delta":397504800},{"NoteNumber":96,"Velocity":95,"Duration":172910,"SoundDuration":172910,"Delta":397504800},{"NoteNumber":90,"Velocity":80,"Duration":172910,"SoundDuration":172910,"Delta":397504800},{"NoteNumber":50,"Velocity":64,"Duration":172910,"SoundDuration":172910,"Delta":397504800},{"NoteNumber":38,"Velocity":54,"Duration":172910,"SoundDuration":172910,"Delta":397504800},{"NoteNumber":97,"Velocity":102,"Duration":169491,"SoundDuration":169491,"Delta":397677710},{"NoteNumber":89,"Velocity":86,"Duration":169491,"SoundDuration":169491,"Delta":397677710},{"NoteNumber":85,"Velocity":86,"Duration":169491,"SoundDuration":169491,"Delta":397677710},{"NoteNumber":49,"Velocity":72,"Duration":169491,"SoundDuration":169491,"Delta":397677710},{"NoteNumber":37,"Velocity":61,"Duration":169491,"SoundDuration":169491,"Delta":397677710},{"NoteNumber":44,"Velocity":61,"Duration":169491,"SoundDuration":169491,"Delta":397677710},{"NoteNumber":84,"Velocity":80,"Duration":176470,"SoundDuration":176470,"Delta":397847202},{"NoteNumber":90,"Velocity":80,"Duration":176470,"SoundDuration":176470,"Delta":397847202},{"NoteNumber":96,"Velocity":95,"Duration":176470,"SoundDuration":176470,"Delta":397847202},{"NoteNumber":38,"Velocity":56,"Duration":176470,"SoundDuration":176470,"Delta":397847202},{"NoteNumber":50,"Velocity":66,"Duration":176470,"SoundDuration":176470,"Delta":397847202},{"NoteNumber":89,"Velocity":86,"Duration":173913,"SoundDuration":173913,"Delta":398023672},{"NoteNumber":85,"Velocity":86,"Duration":173913,"SoundDuration":173913,"Delta":398023672},{"NoteNumber":97,"Velocity":102,"Duration":173913,"SoundDuration":173913,"Delta":398023672},{"NoteNumber":37,"Velocity":60,"Duration":173913,"SoundDuration":173913,"Delta":398023672},{"NoteNumber":44,"Velocity":60,"Duration":173913,"SoundDuration":173913,"Delta":398023672},{"NoteNumber":49,"Velocity":71,"Duration":173913,"SoundDuration":173913,"Delta":398023672},{"NoteNumber":72,"Velocity":68,"Duration":183615,"SoundDuration":183615,"Delta":398197585},{"NoteNumber":84,"Velocity":81,"Duration":183615,"SoundDuration":183615,"Delta":398197585},{"NoteNumber":48,"Velocity":56,"Duration":183615,"SoundDuration":183615,"Delta":398197585},{"NoteNumber":60,"Velocity":67,"Duration":183615,"SoundDuration":183615,"Delta":398197585},{"NoteNumber":73,"Velocity":74,"Duration":183615,"SoundDuration":183615,"Delta":398367077},{"NoteNumber":85,"Velocity":88,"Duration":183615,"SoundDuration":183615,"Delta":398367077},{"NoteNumber":49,"Velocity":61,"Duration":183615,"SoundDuration":183615,"Delta":398367077},{"NoteNumber":61,"Velocity":72,"Duration":183615,"SoundDuration":183615,"Delta":398367077},{"NoteNumber":84,"Velocity":81,"Duration":184735,"SoundDuration":184735,"Delta":398536568},{"NoteNumber":72,"Velocity":68,"Duration":184735,"SoundDuration":184735,"Delta":398536568},{"NoteNumber":48,"Velocity":56,"Duration":184735,"SoundDuration":184735,"Delta":398536568},{"NoteNumber":60,"Velocity":67,"Duration":184735,"SoundDuration":184735,"Delta":398536568},{"NoteNumber":73,"Velocity":74,"Duration":91463,"SoundDuration":91463,"Delta":398706060},{"NoteNumber":85,"Velocity":88,"Duration":91463,"SoundDuration":91463,"Delta":398706060},{"NoteNumber":49,"Velocity":61,"Duration":91463,"SoundDuration":91463,"Delta":398706060},{"NoteNumber":61,"Velocity":73,"Duration":91463,"SoundDuration":91463,"Delta":398706060},{"NoteNumber":72,"Velocity":74,"Duration":187819,"SoundDuration":187819,"Delta":398888987},{"NoteNumber":60,"Velocity":62,"Duration":187819,"SoundDuration":187819,"Delta":398888987},{"NoteNumber":48,"Velocity":67,"Duration":187819,"SoundDuration":187819,"Delta":398888987},{"NoteNumber":36,"Velocity":56,"Duration":187819,"SoundDuration":187819,"Delta":398888987},{"NoteNumber":73,"Velocity":80,"Duration":188486,"SoundDuration":188486,"Delta":399062397},{"NoteNumber":61,"Velocity":68,"Duration":188486,"SoundDuration":188486,"Delta":399062397},{"NoteNumber":37,"Velocity":61,"Duration":188486,"SoundDuration":188486,"Delta":399062397},{"NoteNumber":49,"Velocity":72,"Duration":188486,"SoundDuration":188486,"Delta":399062397},{"NoteNumber":60,"Velocity":61,"Duration":186915,"SoundDuration":186915,"Delta":399235308},{"NoteNumber":72,"Velocity":72,"Duration":186915,"SoundDuration":186915,"Delta":399235308},{"NoteNumber":48,"Velocity":67,"Duration":186915,"SoundDuration":186915,"Delta":399235308},{"NoteNumber":36,"Velocity":56,"Duration":186915,"SoundDuration":186915,"Delta":399235308},{"NoteNumber":61,"Velocity":77,"Duration":345821,"SoundDuration":345821,"Delta":399422224},{"NoteNumber":73,"Velocity":93,"Duration":345821,"SoundDuration":345821,"Delta":399422224},{"NoteNumber":37,"Velocity":70,"Duration":345821,"SoundDuration":345821,"Delta":399422224},{"NoteNumber":49,"Velocity":82,"Duration":345821,"SoundDuration":345821,"Delta":399422224},{"NoteNumber":65,"Velocity":64,"Duration":86455,"SoundDuration":86455,"Delta":399595134},{"NoteNumber":68,"Velocity":76,"Duration":86455,"SoundDuration":86455,"Delta":399595134},{"NoteNumber":53,"Velocity":55,"Duration":86455,"SoundDuration":86455,"Delta":399595134},{"NoteNumber":56,"Velocity":66,"Duration":86455,"SoundDuration":86455,"Delta":399595134},{"NoteNumber":65,"Velocity":71,"Duration":349380,"SoundDuration":349380,"Delta":399768045},{"NoteNumber":77,"Velocity":84,"Duration":349380,"SoundDuration":349380,"Delta":399768045},{"NoteNumber":41,"Velocity":64,"Duration":349380,"SoundDuration":349380,"Delta":399768045},{"NoteNumber":53,"Velocity":75,"Duration":349380,"SoundDuration":349380,"Delta":399768045},{"NoteNumber":73,"Velocity":76,"Duration":88235,"SoundDuration":88235,"Delta":399940955},{"NoteNumber":68,"Velocity":64,"Duration":88235,"SoundDuration":88235,"Delta":399940955},{"NoteNumber":61,"Velocity":66,"Duration":88235,"SoundDuration":88235,"Delta":399940955},{"NoteNumber":56,"Velocity":55,"Duration":88235,"SoundDuration":88235,"Delta":399940955},{"NoteNumber":82,"Velocity":100,"Duration":517242,"SoundDuration":517242,"Delta":400117426},{"NoteNumber":70,"Velocity":85,"Duration":517242,"SoundDuration":517242,"Delta":400117426},{"NoteNumber":58,"Velocity":90,"Duration":517242,"SoundDuration":517242,"Delta":400117426},{"NoteNumber":46,"Velocity":76,"Duration":517242,"SoundDuration":517242,"Delta":400117426},{"NoteNumber":73,"Velocity":64,"Duration":86207,"SoundDuration":86207,"Delta":400289840},{"NoteNumber":77,"Velocity":76,"Duration":86207,"SoundDuration":86207,"Delta":400289840},{"NoteNumber":65,"Velocity":66,"Duration":86207,"SoundDuration":86207,"Delta":400289840},{"NoteNumber":61,"Velocity":55,"Duration":86207,"SoundDuration":86207,"Delta":400289840},{"NoteNumber":77,"Velocity":76,"Duration":86207,"SoundDuration":86207,"Delta":400462254},{"NoteNumber":73,"Velocity":64,"Duration":86207,"SoundDuration":86207,"Delta":400462254},{"NoteNumber":61,"Velocity":55,"Duration":86207,"SoundDuration":86207,"Delta":400462254},{"NoteNumber":65,"Velocity":66,"Duration":86207,"SoundDuration":86207,"Delta":400462254},{"NoteNumber":68,"Velocity":77,"Duration":86207,"SoundDuration":86207,"Delta":400634668},{"NoteNumber":80,"Velocity":92,"Duration":86207,"SoundDuration":86207,"Delta":400634668},{"NoteNumber":56,"Velocity":80,"Duration":86207,"SoundDuration":86207,"Delta":400634668},{"NoteNumber":44,"Velocity":67,"Duration":86207,"SoundDuration":86207,"Delta":400634668},{"NoteNumber":78,"Velocity":96,"Duration":84745,"SoundDuration":84745,"Delta":400807082},{"NoteNumber":70,"Velocity":64,"Duration":84745,"SoundDuration":84745,"Delta":400807082},{"NoteNumber":73,"Velocity":81,"Duration":84745,"SoundDuration":84745,"Delta":400807082},{"NoteNumber":66,"Velocity":64,"Duration":84745,"SoundDuration":84745,"Delta":400807082},{"NoteNumber":49,"Velocity":72,"Duration":84745,"SoundDuration":84745,"Delta":400807082},{"NoteNumber":46,"Velocity":57,"Duration":84745,"SoundDuration":84745,"Delta":400807082},{"NoteNumber":42,"Velocity":57,"Duration":84745,"SoundDuration":84745,"Delta":400807082},{"NoteNumber":54,"Velocity":85,"Duration":84745,"SoundDuration":84745,"Delta":400807082},{"NoteNumber":77,"Velocity":88,"Duration":84745,"SoundDuration":84745,"Delta":400976573},{"NoteNumber":65,"Velocity":74,"Duration":84745,"SoundDuration":84745,"Delta":400976573},{"NoteNumber":53,"Velocity":75,"Duration":84745,"SoundDuration":84745,"Delta":400976573},{"NoteNumber":41,"Velocity":63,"Duration":84745,"SoundDuration":84745,"Delta":400976573},{"NoteNumber":76,"Velocity":88,"Duration":87209,"SoundDuration":87209,"Delta":401146065},{"NoteNumber":64,"Velocity":74,"Duration":87209,"SoundDuration":87209,"Delta":401146065},{"NoteNumber":52,"Velocity":75,"Duration":87209,"SoundDuration":87209,"Delta":401146065},{"NoteNumber":40,"Velocity":63,"Duration":87209,"SoundDuration":87209,"Delta":401146065},{"NoteNumber":63,"Velocity":69,"Duration":128590,"SoundDuration":128590,"Delta":401276878},{"NoteNumber":39,"Velocity":60,"Duration":128590,"SoundDuration":128590,"Delta":401276878},{"NoteNumber":66,"Velocity":71,"Duration":99891,"SoundDuration":99891,"Delta":401291413},{"NoteNumber":42,"Velocity":62,"Duration":114055,"SoundDuration":114055,"Delta":401291413},{"NoteNumber":70,"Velocity":73,"Duration":99520,"SoundDuration":99520,"Delta":401305948},{"NoteNumber":46,"Velocity":64,"Duration":99520,"SoundDuration":99520,"Delta":401305948},{"NoteNumber":75,"Velocity":89,"Duration":84985,"SoundDuration":84985,"Delta":401320483},{"NoteNumber":51,"Velocity":78,"Duration":84985,"SoundDuration":84985,"Delta":401320483},{"NoteNumber":74,"Velocity":88,"Duration":84985,"SoundDuration":84985,"Delta":401490455},{"NoteNumber":62,"Velocity":74,"Duration":84985,"SoundDuration":84985,"Delta":401490455},{"NoteNumber":38,"Velocity":62,"Duration":84985,"SoundDuration":84985,"Delta":401490455},{"NoteNumber":50,"Velocity":74,"Duration":84985,"SoundDuration":84985,"Delta":401490455},{"NoteNumber":61,"Velocity":63,"Duration":129198,"SoundDuration":129198,"Delta":401617933},{"NoteNumber":37,"Velocity":55,"Duration":129198,"SoundDuration":129198,"Delta":401617933},{"NoteNumber":66,"Velocity":67,"Duration":115033,"SoundDuration":115033,"Delta":401632097},{"NoteNumber":42,"Velocity":57,"Duration":115033,"SoundDuration":115033,"Delta":401632097},{"NoteNumber":70,"Velocity":70,"Duration":100869,"SoundDuration":100869,"Delta":401646262},{"NoteNumber":46,"Velocity":58,"Duration":100869,"SoundDuration":100869,"Delta":401646262},{"NoteNumber":73,"Velocity":83,"Duration":86705,"SoundDuration":86705,"Delta":401660426},{"NoteNumber":49,"Velocity":74,"Duration":86705,"SoundDuration":86705,"Delta":401660426},{"NoteNumber":60,"Velocity":76,"Duration":85960,"SoundDuration":85960,"Delta":401833837},{"NoteNumber":72,"Velocity":91,"Duration":85960,"SoundDuration":85960,"Delta":401833837},{"NoteNumber":48,"Velocity":75,"Duration":85960,"SoundDuration":85960,"Delta":401833837},{"NoteNumber":36,"Velocity":59,"Duration":85960,"SoundDuration":85960,"Delta":401833837},{"NoteNumber":61,"Velocity":74,"Duration":93167,"SoundDuration":93167,"Delta":402005757},{"NoteNumber":73,"Velocity":88,"Duration":93167,"SoundDuration":93167,"Delta":402005757},{"NoteNumber":49,"Velocity":72,"Duration":93167,"SoundDuration":93167,"Delta":402005757},{"NoteNumber":37,"Velocity":61,"Duration":93167,"SoundDuration":93167,"Delta":402005757},{"NoteNumber":73,"Velocity":93,"Duration":345821,"SoundDuration":345821,"Delta":402192092},{"NoteNumber":61,"Velocity":77,"Duration":345821,"SoundDuration":345821,"Delta":402192092},{"NoteNumber":49,"Velocity":82,"Duration":345821,"SoundDuration":345821,"Delta":402192092},{"NoteNumber":37,"Velocity":70,"Duration":345821,"SoundDuration":345821,"Delta":402192092},{"NoteNumber":65,"Velocity":64,"Duration":86455,"SoundDuration":86455,"Delta":402365003},{"NoteNumber":68,"Velocity":76,"Duration":86455,"SoundDuration":86455,"Delta":402365003},{"NoteNumber":56,"Velocity":55,"Duration":86455,"SoundDuration":86455,"Delta":402365003},{"NoteNumber":53,"Velocity":55,"Duration":86455,"SoundDuration":86455,"Delta":402365003},{"NoteNumber":65,"Velocity":71,"Duration":349380,"SoundDuration":349380,"Delta":402537913},{"NoteNumber":77,"Velocity":84,"Duration":349380,"SoundDuration":349380,"Delta":402537913},{"NoteNumber":53,"Velocity":75,"Duration":349380,"SoundDuration":349380,"Delta":402537913},{"NoteNumber":41,"Velocity":64,"Duration":349380,"SoundDuration":349380,"Delta":402537913},{"NoteNumber":73,"Velocity":76,"Duration":88235,"SoundDuration":88235,"Delta":402710824},{"NoteNumber":68,"Velocity":64,"Duration":88235,"SoundDuration":88235,"Delta":402710824},{"NoteNumber":56,"Velocity":55,"Duration":88235,"SoundDuration":88235,"Delta":402710824},{"NoteNumber":61,"Velocity":55,"Duration":88235,"SoundDuration":88235,"Delta":402710824},{"NoteNumber":82,"Velocity":100,"Duration":517242,"SoundDuration":517242,"Delta":402887294},{"NoteNumber":70,"Velocity":85,"Duration":517242,"SoundDuration":517242,"Delta":402887294},{"NoteNumber":46,"Velocity":76,"Duration":517242,"SoundDuration":517242,"Delta":402887294},{"NoteNumber":58,"Velocity":90,"Duration":517242,"SoundDuration":517242,"Delta":402887294},{"NoteNumber":77,"Velocity":76,"Duration":86207,"SoundDuration":86207,"Delta":403059708},{"NoteNumber":73,"Velocity":64,"Duration":86207,"SoundDuration":86207,"Delta":403059708},{"NoteNumber":61,"Velocity":55,"Duration":86207,"SoundDuration":86207,"Delta":403059708},{"NoteNumber":65,"Velocity":66,"Duration":86207,"SoundDuration":86207,"Delta":403059708},{"NoteNumber":73,"Velocity":64,"Duration":86207,"SoundDuration":86207,"Delta":403232122},{"NoteNumber":77,"Velocity":76,"Duration":86207,"SoundDuration":86207,"Delta":403232122},{"NoteNumber":61,"Velocity":55,"Duration":86207,"SoundDuration":86207,"Delta":403232122},{"NoteNumber":65,"Velocity":66,"Duration":86207,"SoundDuration":86207,"Delta":403232122},{"NoteNumber":80,"Velocity":92,"Duration":86207,"SoundDuration":86207,"Delta":403404536},{"NoteNumber":68,"Velocity":77,"Duration":86207,"SoundDuration":86207,"Delta":403404536},{"NoteNumber":56,"Velocity":80,"Duration":86207,"SoundDuration":86207,"Delta":403404536},{"NoteNumber":44,"Velocity":67,"Duration":86207,"SoundDuration":86207,"Delta":403404536},{"NoteNumber":73,"Velocity":81,"Duration":84745,"SoundDuration":84745,"Delta":403576950},{"NoteNumber":66,"Velocity":64,"Duration":84745,"SoundDuration":84745,"Delta":403576950},{"NoteNumber":70,"Velocity":64,"Duration":84745,"SoundDuration":84745,"Delta":403576950},{"NoteNumber":78,"Velocity":96,"Duration":84745,"SoundDuration":84745,"Delta":403576950},{"NoteNumber":54,"Velocity":85,"Duration":84745,"SoundDuration":84745,"Delta":403576950},{"NoteNumber":46,"Velocity":57,"Duration":84745,"SoundDuration":84745,"Delta":403576950},{"NoteNumber":42,"Velocity":57,"Duration":84745,"SoundDuration":84745,"Delta":403576950},{"NoteNumber":49,"Velocity":72,"Duration":84745,"SoundDuration":84745,"Delta":403576950},{"NoteNumber":65,"Velocity":74,"Duration":84745,"SoundDuration":84745,"Delta":403746442},{"NoteNumber":77,"Velocity":88,"Duration":84745,"SoundDuration":84745,"Delta":403746442},{"NoteNumber":41,"Velocity":63,"Duration":84745,"SoundDuration":84745,"Delta":403746442},{"NoteNumber":53,"Velocity":75,"Duration":84745,"SoundDuration":84745,"Delta":403746442},{"NoteNumber":63,"Velocity":74,"Duration":85714,"SoundDuration":85714,"Delta":403915933},{"NoteNumber":75,"Velocity":88,"Duration":85714,"SoundDuration":85714,"Delta":403915933},{"NoteNumber":51,"Velocity":75,"Duration":85714,"SoundDuration":85714,"Delta":403915933},{"NoteNumber":39,"Velocity":63,"Duration":85714,"SoundDuration":85714,"Delta":403915933},{"NoteNumber":66,"Velocity":60,"Duration":99693,"SoundDuration":99693,"Delta":404087362},{"NoteNumber":70,"Velocity":61,"Duration":92024,"SoundDuration":92024,"Delta":404087362},{"NoteNumber":61,"Velocity":58,"Duration":92024,"SoundDuration":92024,"Delta":404087362},{"NoteNumber":73,"Velocity":74,"Duration":92024,"SoundDuration":92024,"Delta":404087362},{"NoteNumber":49,"Velocity":66,"Duration":92024,"SoundDuration":92024,"Delta":404087362},{"NoteNumber":42,"Velocity":52,"Duration":92024,"SoundDuration":92024,"Delta":404087362},{"NoteNumber":37,"Velocity":50,"Duration":92024,"SoundDuration":92024,"Delta":404087362},{"NoteNumber":46,"Velocity":55,"Duration":92024,"SoundDuration":92024,"Delta":404087362},{"NoteNumber":66,"Velocity":74,"Duration":379747,"SoundDuration":379747,"Delta":404271411},{"NoteNumber":73,"Velocity":74,"Duration":379747,"SoundDuration":379747,"Delta":404271411},{"NoteNumber":78,"Velocity":89,"Duration":379747,"SoundDuration":379747,"Delta":404271411},{"NoteNumber":70,"Velocity":74,"Duration":379747,"SoundDuration":379747,"Delta":404271411},{"NoteNumber":54,"Velocity":79,"Duration":379747,"SoundDuration":379747,"Delta":404271411},{"NoteNumber":46,"Velocity":67,"Duration":379747,"SoundDuration":379747,"Delta":404271411},{"NoteNumber":42,"Velocity":67,"Duration":379747,"SoundDuration":379747,"Delta":404271411},{"NoteNumber":49,"Velocity":67,"Duration":379747,"SoundDuration":379747,"Delta":404271411},{"NoteNumber":73,"Velocity":68,"Duration":393256,"SoundDuration":393256,"Delta":404651158},{"NoteNumber":82,"Velocity":80,"Duration":393256,"SoundDuration":393256,"Delta":404651158},{"NoteNumber":70,"Velocity":68,"Duration":393256,"SoundDuration":393256,"Delta":404651158},{"NoteNumber":78,"Velocity":68,"Duration":393256,"SoundDuration":393256,"Delta":404651158},{"NoteNumber":54,"Velocity":61,"Duration":393256,"SoundDuration":393256,"Delta":404651158},{"NoteNumber":49,"Velocity":61,"Duration":393256,"SoundDuration":393256,"Delta":404651158},{"NoteNumber":58,"Velocity":72,"Duration":393256,"SoundDuration":393256,"Delta":404651158},{"NoteNumber":46,"Velocity":61,"Duration":393256,"SoundDuration":393256,"Delta":404651158},{"NoteNumber":89,"Velocity":55,"Duration":95930,"SoundDuration":95930,"Delta":405044414},{"NoteNumber":83,"Velocity":55,"Duration":95930,"SoundDuration":95930,"Delta":405044414},{"NoteNumber":49,"Velocity":61,"Duration":95930,"SoundDuration":95930,"Delta":405044414},{"NoteNumber":37,"Velocity":51,"Duration":95930,"SoundDuration":95930,"Delta":405044414},{"NoteNumber":97,"Velocity":56,"Duration":93126,"SoundDuration":93126,"Delta":405140344},{"NoteNumber":92,"Velocity":57,"Duration":90751,"SoundDuration":90751,"Delta":405233471},{"NoteNumber":85,"Velocity":57,"Duration":90751,"SoundDuration":90751,"Delta":405233471},{"NoteNumber":61,"Velocity":77,"Duration":180796,"SoundDuration":180796,"Delta":405233471},{"NoteNumber":49,"Velocity":65,"Duration":180796,"SoundDuration":180796,"Delta":405233471},{"NoteNumber":97,"Velocity":59,"Duration":90045,"SoundDuration":90045,"Delta":405324222},{"NoteNumber":84,"Velocity":60,"Duration":89663,"SoundDuration":89663,"Delta":405414268},{"NoteNumber":89,"Velocity":60,"Duration":89663,"SoundDuration":89663,"Delta":405414268},{"NoteNumber":44,"Velocity":51,"Duration":89663,"SoundDuration":89663,"Delta":405414268},{"NoteNumber":56,"Velocity":61,"Duration":89648,"SoundDuration":89648,"Delta":405419507},{"NoteNumber":97,"Velocity":61,"Duration":89241,"SoundDuration":89241,"Delta":405503932},{"NoteNumber":85,"Velocity":63,"Duration":88867,"SoundDuration":88867,"Delta":405593173},{"NoteNumber":92,"Velocity":63,"Duration":88867,"SoundDuration":88867,"Delta":405593173},{"NoteNumber":53,"Velocity":67,"Duration":177362,"SoundDuration":177362,"Delta":405593173},{"NoteNumber":65,"Velocity":80,"Duration":177362,"SoundDuration":177362,"Delta":405593173},{"NoteNumber":97,"Velocity":64,"Duration":88495,"SoundDuration":88495,"Delta":405682040},{"NoteNumber":89,"Velocity":66,"Duration":88582,"SoundDuration":88582,"Delta":405770536},{"NoteNumber":83,"Velocity":66,"Duration":88582,"SoundDuration":88582,"Delta":405770536},{"NoteNumber":49,"Velocity":54,"Duration":88582,"SoundDuration":88582,"Delta":405770536},{"NoteNumber":61,"Velocity":65,"Duration":88582,"SoundDuration":88582,"Delta":405770536},{"NoteNumber":97,"Velocity":67,"Duration":87976,"SoundDuration":87976,"Delta":405859119},{"NoteNumber":92,"Velocity":69,"Duration":87421,"SoundDuration":87421,"Delta":405947096},{"NoteNumber":85,"Velocity":69,"Duration":87421,"SoundDuration":87421,"Delta":405947096},{"NoteNumber":70,"Velocity":87,"Duration":347184,"SoundDuration":347184,"Delta":405947096},{"NoteNumber":58,"Velocity":73,"Duration":347184,"SoundDuration":347184,"Delta":405947096},{"NoteNumber":97,"Velocity":69,"Duration":86852,"SoundDuration":86852,"Delta":406034518},{"NoteNumber":89,"Velocity":68,"Duration":86455,"SoundDuration":86455,"Delta":406121370},{"NoteNumber":84,"Velocity":68,"Duration":86455,"SoundDuration":86455,"Delta":406121370},{"NoteNumber":97,"Velocity":67,"Duration":86455,"SoundDuration":86455,"Delta":406207825},{"NoteNumber":92,"Velocity":67,"Duration":86455,"SoundDuration":86455,"Delta":406294280},{"NoteNumber":85,"Velocity":67,"Duration":86455,"SoundDuration":86455,"Delta":406294280},{"NoteNumber":68,"Velocity":75,"Duration":86455,"SoundDuration":86455,"Delta":406294280},{"NoteNumber":56,"Velocity":64,"Duration":86455,"SoundDuration":86455,"Delta":406294280},{"NoteNumber":97,"Velocity":66,"Duration":86455,"SoundDuration":86455,"Delta":406380735},{"NoteNumber":82,"Velocity":71,"Duration":84506,"SoundDuration":84506,"Delta":406467191},{"NoteNumber":90,"Velocity":71,"Duration":84506,"SoundDuration":84506,"Delta":406467191},{"NoteNumber":66,"Velocity":84,"Duration":84506,"SoundDuration":84506,"Delta":406467191},{"NoteNumber":54,"Velocity":71,"Duration":84506,"SoundDuration":84506,"Delta":406467191},{"NoteNumber":97,"Velocity":64,"Duration":84507,"SoundDuration":84507,"Delta":406551698},{"NoteNumber":85,"Velocity":67,"Duration":86207,"SoundDuration":86207,"Delta":406636205},{"NoteNumber":94,"Velocity":67,"Duration":86207,"SoundDuration":86207,"Delta":406636205},{"NoteNumber":53,"Velocity":58,"Duration":86207,"SoundDuration":86207,"Delta":406636205},{"NoteNumber":65,"Velocity":70,"Duration":86207,"SoundDuration":86207,"Delta":406636205},{"NoteNumber":97,"Velocity":63,"Duration":86207,"SoundDuration":86207,"Delta":406722412},{"NoteNumber":84,"Velocity":68,"Duration":84985,"SoundDuration":84985,"Delta":406808619},{"NoteNumber":90,"Velocity":68,"Duration":84985,"SoundDuration":84985,"Delta":406808619},{"NoteNumber":64,"Velocity":70,"Duration":84985,"SoundDuration":84985,"Delta":406808619},{"NoteNumber":52,"Velocity":58,"Duration":84985,"SoundDuration":84985,"Delta":406808619},{"NoteNumber":97,"Velocity":62,"Duration":84985,"SoundDuration":84985,"Delta":406893604},{"NoteNumber":85,"Velocity":68,"Duration":88757,"SoundDuration":88757,"Delta":406978590},{"NoteNumber":94,"Velocity":68,"Duration":88757,"SoundDuration":88757,"Delta":406978590},{"NoteNumber":51,"Velocity":58,"Duration":88757,"SoundDuration":88757,"Delta":406978590},{"NoteNumber":63,"Velocity":70,"Duration":88757,"SoundDuration":88757,"Delta":406978590},{"NoteNumber":97,"Velocity":61,"Duration":88757,"SoundDuration":88757,"Delta":407067348},{"NoteNumber":90,"Velocity":69,"Duration":83798,"SoundDuration":83798,"Delta":407156105},{"NoteNumber":82,"Velocity":69,"Duration":83798,"SoundDuration":83798,"Delta":407156105},{"NoteNumber":50,"Velocity":71,"Duration":83798,"SoundDuration":83798,"Delta":407156105},{"NoteNumber":62,"Velocity":85,"Duration":83798,"SoundDuration":83798,"Delta":407156105},{"NoteNumber":97,"Velocity":60,"Duration":83798,"SoundDuration":83798,"Delta":407239904},{"NoteNumber":94,"Velocity":63,"Duration":86207,"SoundDuration":86207,"Delta":407323703},{"NoteNumber":85,"Velocity":63,"Duration":86207,"SoundDuration":86207,"Delta":407323703},{"NoteNumber":61,"Velocity":69,"Duration":86207,"SoundDuration":86207,"Delta":407323703},{"NoteNumber":49,"Velocity":58,"Duration":86207,"SoundDuration":86207,"Delta":407323703},{"NoteNumber":97,"Velocity":58,"Duration":86207,"SoundDuration":86207,"Delta":407409910},{"NoteNumber":84,"Velocity":61,"Duration":84985,"SoundDuration":84985,"Delta":407496117},{"NoteNumber":90,"Velocity":61,"Duration":84985,"SoundDuration":84985,"Delta":407496117},{"NoteNumber":46,"Velocity":58,"Duration":84985,"SoundDuration":84985,"Delta":407496117},{"NoteNumber":58,"Velocity":69,"Duration":84985,"SoundDuration":84985,"Delta":407496117},{"NoteNumber":97,"Velocity":57,"Duration":84985,"SoundDuration":84985,"Delta":407581103},{"NoteNumber":85,"Velocity":61,"Duration":90361,"SoundDuration":90361,"Delta":407666089},{"NoteNumber":94,"Velocity":61,"Duration":90361,"SoundDuration":90361,"Delta":407666089},{"NoteNumber":54,"Velocity":69,"Duration":90361,"SoundDuration":90361,"Delta":407666089},{"NoteNumber":42,"Velocity":58,"Duration":90361,"SoundDuration":90361,"Delta":407666089},{"NoteNumber":97,"Velocity":56,"Duration":90600,"SoundDuration":90600,"Delta":407756450},{"NoteNumber":89,"Velocity":60,"Duration":91158,"SoundDuration":91158,"Delta":407847050},{"NoteNumber":83,"Velocity":60,"Duration":91158,"SoundDuration":91158,"Delta":407847050},{"NoteNumber":49,"Velocity":67,"Duration":91158,"SoundDuration":91158,"Delta":407847050},{"NoteNumber":37,"Velocity":57,"Duration":91158,"SoundDuration":91158,"Delta":407847050},{"NoteNumber":97,"Velocity":60,"Duration":90457,"SoundDuration":90457,"Delta":407938209},{"NoteNumber":85,"Velocity":61,"Duration":89780,"SoundDuration":89780,"Delta":408028666},{"NoteNumber":92,"Velocity":61,"Duration":89780,"SoundDuration":89780,"Delta":408028666},{"NoteNumber":49,"Velocity":71,"Duration":179736,"SoundDuration":179736,"Delta":408028666},{"NoteNumber":61,"Velocity":84,"Duration":179736,"SoundDuration":179736,"Delta":408028666},{"NoteNumber":97,"Velocity":62,"Duration":89955,"SoundDuration":89955,"Delta":408118447},{"NoteNumber":84,"Velocity":62,"Duration":89663,"SoundDuration":89663,"Delta":408208402},{"NoteNumber":89,"Velocity":62,"Duration":89663,"SoundDuration":89663,"Delta":408208402},{"NoteNumber":44,"Velocity":53,"Duration":89663,"SoundDuration":89663,"Delta":408208402},{"NoteNumber":56,"Velocity":64,"Duration":89648,"SoundDuration":89648,"Delta":408213642},{"NoteNumber":97,"Velocity":63,"Duration":89241,"SoundDuration":89241,"Delta":408298066},{"NoteNumber":85,"Velocity":64,"Duration":88867,"SoundDuration":88867,"Delta":408387308},{"NoteNumber":92,"Velocity":64,"Duration":88867,"SoundDuration":88867,"Delta":408387308},{"NoteNumber":65,"Velocity":82,"Duration":177362,"SoundDuration":177362,"Delta":408387308},{"NoteNumber":53,"Velocity":70,"Duration":177362,"SoundDuration":177362,"Delta":408387308},{"NoteNumber":97,"Velocity":66,"Duration":88495,"SoundDuration":88495,"Delta":408476175},{"NoteNumber":83,"Velocity":66,"Duration":88582,"SoundDuration":88582,"Delta":408564671},{"NoteNumber":89,"Velocity":66,"Duration":88582,"SoundDuration":88582,"Delta":408564671},{"NoteNumber":61,"Velocity":65,"Duration":88582,"SoundDuration":88582,"Delta":408564671},{"NoteNumber":49,"Velocity":54,"Duration":88582,"SoundDuration":88582,"Delta":408564671},{"NoteNumber":97,"Velocity":67,"Duration":87976,"SoundDuration":87976,"Delta":408653254},{"NoteNumber":85,"Velocity":69,"Duration":87421,"SoundDuration":87421,"Delta":408741231},{"NoteNumber":92,"Velocity":69,"Duration":87421,"SoundDuration":87421,"Delta":408741231},{"NoteNumber":58,"Velocity":73,"Duration":347184,"SoundDuration":347184,"Delta":408741231},{"NoteNumber":70,"Velocity":87,"Duration":347184,"SoundDuration":347184,"Delta":408741231},{"NoteNumber":97,"Velocity":69,"Duration":86852,"SoundDuration":86852,"Delta":408828652},{"NoteNumber":84,"Velocity":68,"Duration":86455,"SoundDuration":86455,"Delta":408915504},{"NoteNumber":89,"Velocity":68,"Duration":86455,"SoundDuration":86455,"Delta":408915504},{"NoteNumber":97,"Velocity":67,"Duration":86455,"SoundDuration":86455,"Delta":409001960},{"NoteNumber":92,"Velocity":67,"Duration":86455,"SoundDuration":86455,"Delta":409088415},{"NoteNumber":85,"Velocity":67,"Duration":86455,"SoundDuration":86455,"Delta":409088415},{"NoteNumber":68,"Velocity":75,"Duration":86455,"SoundDuration":86455,"Delta":409088415},{"NoteNumber":56,"Velocity":64,"Duration":86455,"SoundDuration":86455,"Delta":409088415},{"NoteNumber":97,"Velocity":66,"Duration":86455,"SoundDuration":86455,"Delta":409174870},{"NoteNumber":82,"Velocity":71,"Duration":84506,"SoundDuration":84506,"Delta":409261325},{"NoteNumber":90,"Velocity":71,"Duration":84506,"SoundDuration":84506,"Delta":409261325},{"NoteNumber":54,"Velocity":71,"Duration":84506,"SoundDuration":84506,"Delta":409261325},{"NoteNumber":66,"Velocity":84,"Duration":84506,"SoundDuration":84506,"Delta":409261325},{"NoteNumber":97,"Velocity":64,"Duration":84507,"SoundDuration":84507,"Delta":409345832},{"NoteNumber":94,"Velocity":67,"Duration":86207,"SoundDuration":86207,"Delta":409430339},{"NoteNumber":85,"Velocity":67,"Duration":86207,"SoundDuration":86207,"Delta":409430339},{"NoteNumber":65,"Velocity":70,"Duration":86207,"SoundDuration":86207,"Delta":409430339},{"NoteNumber":53,"Velocity":58,"Duration":86207,"SoundDuration":86207,"Delta":409430339},{"NoteNumber":97,"Velocity":63,"Duration":86207,"SoundDuration":86207,"Delta":409516546},{"NoteNumber":84,"Velocity":68,"Duration":84985,"SoundDuration":84985,"Delta":409602753},{"NoteNumber":90,"Velocity":68,"Duration":84985,"SoundDuration":84985,"Delta":409602753},{"NoteNumber":64,"Velocity":70,"Duration":84985,"SoundDuration":84985,"Delta":409602753},{"NoteNumber":52,"Velocity":58,"Duration":84985,"SoundDuration":84985,"Delta":409602753},{"NoteNumber":97,"Velocity":62,"Duration":84985,"SoundDuration":84985,"Delta":409687739},{"NoteNumber":85,"Velocity":68,"Duration":88757,"SoundDuration":88757,"Delta":409772725},{"NoteNumber":94,"Velocity":68,"Duration":88757,"SoundDuration":88757,"Delta":409772725},{"NoteNumber":51,"Velocity":58,"Duration":88757,"SoundDuration":88757,"Delta":409772725},{"NoteNumber":63,"Velocity":70,"Duration":88757,"SoundDuration":88757,"Delta":409772725},{"NoteNumber":97,"Velocity":61,"Duration":88757,"SoundDuration":88757,"Delta":409861482},{"NoteNumber":90,"Velocity":69,"Duration":83798,"SoundDuration":83798,"Delta":409950240},{"NoteNumber":82,"Velocity":69,"Duration":83798,"SoundDuration":83798,"Delta":409950240},{"NoteNumber":50,"Velocity":64,"Duration":83798,"SoundDuration":83798,"Delta":409950240},{"NoteNumber":62,"Velocity":76,"Duration":83798,"SoundDuration":83798,"Delta":409950240},{"NoteNumber":97,"Velocity":59,"Duration":83798,"SoundDuration":83798,"Delta":410034039},{"NoteNumber":94,"Velocity":61,"Duration":86207,"SoundDuration":86207,"Delta":410117838},{"NoteNumber":85,"Velocity":61,"Duration":86207,"SoundDuration":86207,"Delta":410117838},{"NoteNumber":61,"Velocity":66,"Duration":86207,"SoundDuration":86207,"Delta":410117838},{"NoteNumber":49,"Velocity":55,"Duration":86207,"SoundDuration":86207,"Delta":410117838},{"NoteNumber":97,"Velocity":56,"Duration":86207,"SoundDuration":86207,"Delta":410204045},{"NoteNumber":90,"Velocity":58,"Duration":84985,"SoundDuration":84985,"Delta":410290252},{"NoteNumber":82,"Velocity":58,"Duration":84985,"SoundDuration":84985,"Delta":410290252},{"NoteNumber":60,"Velocity":65,"Duration":84985,"SoundDuration":84985,"Delta":410290252},{"NoteNumber":48,"Velocity":54,"Duration":84985,"SoundDuration":84985,"Delta":410290252},{"NoteNumber":97,"Velocity":52,"Duration":84985,"SoundDuration":84985,"Delta":410375238},{"NoteNumber":94,"Velocity":57,"Duration":90361,"SoundDuration":90361,"Delta":410460223},{"NoteNumber":85,"Velocity":57,"Duration":90361,"SoundDuration":90361,"Delta":410460223},{"NoteNumber":49,"Velocity":52,"Duration":90361,"SoundDuration":90361,"Delta":410460223},{"NoteNumber":61,"Velocity":63,"Duration":90361,"SoundDuration":90361,"Delta":410460223},{"NoteNumber":97,"Velocity":50,"Duration":90361,"SoundDuration":90361,"Delta":410550585},{"NoteNumber":83,"Velocity":55,"Duration":86956,"SoundDuration":86956,"Delta":410640946},{"NoteNumber":89,"Velocity":65,"Duration":86956,"SoundDuration":86956,"Delta":410640946},{"NoteNumber":56,"Velocity":42,"Duration":86956,"SoundDuration":86956,"Delta":410640946},{"NoteNumber":97,"Velocity":48,"Duration":86956,"SoundDuration":86956,"Delta":410727903},{"NoteNumber":92,"Velocity":62,"Duration":108695,"SoundDuration":108695,"Delta":410814859},{"NoteNumber":85,"Velocity":52,"Duration":108695,"SoundDuration":108695,"Delta":410814859},{"NoteNumber":65,"Velocity":37,"Duration":86956,"SoundDuration":86956,"Delta":410814859},{"NoteNumber":61,"Velocity":37,"Duration":86956,"SoundDuration":86956,"Delta":410814859},{"NoteNumber":71,"Velocity":37,"Duration":86956,"SoundDuration":86956,"Delta":410814859},{"NoteNumber":97,"Velocity":47,"Duration":86956,"SoundDuration":86956,"Delta":410901816},{"NoteNumber":89,"Velocity":65,"Duration":90909,"SoundDuration":90909,"Delta":410988772},{"NoteNumber":83,"Velocity":55,"Duration":90909,"SoundDuration":90909,"Delta":410988772},{"NoteNumber":49,"Velocity":42,"Duration":90909,"SoundDuration":90909,"Delta":410988772},{"NoteNumber":97,"Velocity":46,"Duration":90909,"SoundDuration":90909,"Delta":411079681},{"NoteNumber":92,"Velocity":61,"Duration":130271,"SoundDuration":130271,"Delta":411170590},{"NoteNumber":85,"Velocity":51,"Duration":130271,"SoundDuration":130271,"Delta":411170590},{"NoteNumber":65,"Velocity":37,"Duration":104217,"SoundDuration":104217,"Delta":411170590},{"NoteNumber":61,"Velocity":37,"Duration":104217,"SoundDuration":104217,"Delta":411170590},{"NoteNumber":71,"Velocity":37,"Duration":104217,"SoundDuration":104217,"Delta":411170590},{"NoteNumber":97,"Velocity":48,"Duration":104217,"SoundDuration":104217,"Delta":411274808},{"NoteNumber":89,"Velocity":65,"Duration":100718,"SoundDuration":100718,"Delta":411379025},{"NoteNumber":83,"Velocity":55,"Duration":100718,"SoundDuration":100718,"Delta":411379025},{"NoteNumber":68,"Velocity":37,"Duration":100718,"SoundDuration":100718,"Delta":411379025},{"NoteNumber":72,"Velocity":42,"Duration":100718,"SoundDuration":100718,"Delta":411379025},{"NoteNumber":97,"Velocity":48,"Duration":100718,"SoundDuration":100718,"Delta":411479743},{"NoteNumber":92,"Velocity":62,"Duration":140328,"SoundDuration":140328,"Delta":411580462},{"NoteNumber":85,"Velocity":52,"Duration":140328,"SoundDuration":140328,"Delta":411580462},{"NoteNumber":65,"Velocity":37,"Duration":109946,"SoundDuration":109946,"Delta":411580462},{"NoteNumber":73,"Velocity":37,"Duration":109946,"SoundDuration":109946,"Delta":411580462},{"NoteNumber":97,"Velocity":47,"Duration":121526,"SoundDuration":121526,"Delta":411690408},{"NoteNumber":77,"Velocity":55,"Duration":418075,"SoundDuration":418075,"Delta":411811935},{"NoteNumber":85,"Velocity":55,"Duration":418075,"SoundDuration":418075,"Delta":411811935},{"NoteNumber":89,"Velocity":65,"Duration":418075,"SoundDuration":418075,"Delta":411811935},{"NoteNumber":68,"Velocity":42,"Duration":310494,"SoundDuration":310494,"Delta":411811935},{"NoteNumber":71,"Velocity":48,"Duration":310494,"SoundDuration":310494,"Delta":411811935},{"NoteNumber":65,"Velocity":37,"Duration":107580,"SoundDuration":107580,"Delta":412122429},{"NoteNumber":73,"Velocity":37,"Duration":107580,"SoundDuration":107580,"Delta":412122429},{"NoteNumber":90,"Velocity":65,"Duration":90361,"SoundDuration":90361,"Delta":412230010},{"NoteNumber":82,"Velocity":55,"Duration":90361,"SoundDuration":90361,"Delta":412230010},{"NoteNumber":54,"Velocity":42,"Duration":90361,"SoundDuration":90361,"Delta":412230010},{"NoteNumber":97,"Velocity":48,"Duration":90361,"SoundDuration":90361,"Delta":412320372},{"NoteNumber":85,"Velocity":52,"Duration":112951,"SoundDuration":112951,"Delta":412410733},{"NoteNumber":94,"Velocity":62,"Duration":112951,"SoundDuration":112951,"Delta":412410733},{"NoteNumber":66,"Velocity":37,"Duration":90361,"SoundDuration":90361,"Delta":412410733},{"NoteNumber":70,"Velocity":37,"Duration":90361,"SoundDuration":90361,"Delta":412410733},{"NoteNumber":61,"Velocity":37,"Duration":90361,"SoundDuration":90361,"Delta":412410733},{"NoteNumber":97,"Velocity":47,"Duration":90361,"SoundDuration":90361,"Delta":412501095},{"NoteNumber":90,"Velocity":65,"Duration":93167,"SoundDuration":93167,"Delta":412591456},{"NoteNumber":82,"Velocity":55,"Duration":93167,"SoundDuration":93167,"Delta":412591456},{"NoteNumber":49,"Velocity":42,"Duration":93167,"SoundDuration":93167,"Delta":412591456},{"NoteNumber":97,"Velocity":46,"Duration":93167,"SoundDuration":93167,"Delta":412684624},{"NoteNumber":85,"Velocity":51,"Duration":130271,"SoundDuration":130271,"Delta":412777792},{"NoteNumber":94,"Velocity":61,"Duration":130271,"SoundDuration":130271,"Delta":412777792},{"NoteNumber":66,"Velocity":37,"Duration":104217,"SoundDuration":104217,"Delta":412777792},{"NoteNumber":70,"Velocity":37,"Duration":104217,"SoundDuration":104217,"Delta":412777792},{"NoteNumber":61,"Velocity":37,"Duration":104217,"SoundDuration":104217,"Delta":412777792},{"NoteNumber":97,"Velocity":48,"Duration":104217,"SoundDuration":104217,"Delta":412882009},{"NoteNumber":90,"Velocity":65,"Duration":100718,"SoundDuration":100718,"Delta":412986226},{"NoteNumber":82,"Velocity":55,"Duration":100718,"SoundDuration":100718,"Delta":412986226},{"NoteNumber":69,"Velocity":37,"Duration":100718,"SoundDuration":100718,"Delta":412986226},{"NoteNumber":72,"Velocity":42,"Duration":100718,"SoundDuration":100718,"Delta":412986226},{"NoteNumber":97,"Velocity":48,"Duration":100718,"SoundDuration":100718,"Delta":413086945},{"NoteNumber":85,"Velocity":52,"Duration":140328,"SoundDuration":140328,"Delta":413187663},{"NoteNumber":94,"Velocity":62,"Duration":140328,"SoundDuration":140328,"Delta":413187663},{"NoteNumber":70,"Velocity":37,"Duration":109946,"SoundDuration":109946,"Delta":413187663},{"NoteNumber":73,"Velocity":37,"Duration":109946,"SoundDuration":109946,"Delta":413187663},{"NoteNumber":97,"Velocity":47,"Duration":121526,"SoundDuration":121526,"Delta":413297610},{"NoteNumber":85,"Velocity":55,"Duration":418075,"SoundDuration":418075,"Delta":413419136},{"NoteNumber":90,"Velocity":65,"Duration":418075,"SoundDuration":418075,"Delta":413419136},{"NoteNumber":78,"Velocity":55,"Duration":418075,"SoundDuration":418075,"Delta":413419136},{"NoteNumber":66,"Velocity":42,"Duration":418075,"SoundDuration":418075,"Delta":413419136},{"NoteNumber":70,"Velocity":48,"Duration":310494,"SoundDuration":310494,"Delta":413419136},{"NoteNumber":73,"Velocity":37,"Duration":107580,"SoundDuration":107580,"Delta":413729631},{"NoteNumber":89,"Velocity":65,"Duration":92024,"SoundDuration":92024,"Delta":413837211},{"NoteNumber":83,"Velocity":55,"Duration":92024,"SoundDuration":92024,"Delta":413837211},{"NoteNumber":56,"Velocity":42,"Duration":92024,"SoundDuration":92024,"Delta":413837211},{"NoteNumber":97,"Velocity":48,"Duration":92024,"SoundDuration":92024,"Delta":413929236},{"NoteNumber":92,"Velocity":62,"Duration":115030,"SoundDuration":115030,"Delta":414021260},{"NoteNumber":85,"Velocity":52,"Duration":115030,"SoundDuration":115030,"Delta":414021260},{"NoteNumber":65,"Velocity":37,"Duration":92024,"SoundDuration":92024,"Delta":414021260},{"NoteNumber":61,"Velocity":37,"Duration":92024,"SoundDuration":92024,"Delta":414021260},{"NoteNumber":71,"Velocity":37,"Duration":92024,"SoundDuration":92024,"Delta":414021260},{"NoteNumber":97,"Velocity":47,"Duration":92024,"SoundDuration":92024,"Delta":414113285},{"NoteNumber":89,"Velocity":65,"Duration":93750,"SoundDuration":93750,"Delta":414205309},{"NoteNumber":83,"Velocity":55,"Duration":93750,"SoundDuration":93750,"Delta":414205309},{"NoteNumber":49,"Velocity":42,"Duration":93750,"SoundDuration":93750,"Delta":414205309},{"NoteNumber":97,"Velocity":46,"Duration":93750,"SoundDuration":93750,"Delta":414299059},{"NoteNumber":92,"Velocity":61,"Duration":130271,"SoundDuration":130271,"Delta":414392809},{"NoteNumber":85,"Velocity":51,"Duration":130271,"SoundDuration":130271,"Delta":414392809},{"NoteNumber":65,"Velocity":37,"Duration":104217,"SoundDuration":104217,"Delta":414392809},{"NoteNumber":71,"Velocity":37,"Duration":104217,"SoundDuration":104217,"Delta":414392809},{"NoteNumber":61,"Velocity":37,"Duration":104217,"SoundDuration":104217,"Delta":414392809},{"NoteNumber":97,"Velocity":48,"Duration":104217,"SoundDuration":104217,"Delta":414497027},{"NoteNumber":83,"Velocity":55,"Duration":100718,"SoundDuration":100718,"Delta":414601244},{"NoteNumber":89,"Velocity":65,"Duration":100718,"SoundDuration":100718,"Delta":414601244},{"NoteNumber":68,"Velocity":37,"Duration":100718,"SoundDuration":100718,"Delta":414601244},{"NoteNumber":72,"Velocity":42,"Duration":100718,"SoundDuration":100718,"Delta":414601244},{"NoteNumber":97,"Velocity":48,"Duration":100718,"SoundDuration":100718,"Delta":414701962},{"NoteNumber":92,"Velocity":62,"Duration":140328,"SoundDuration":140328,"Delta":414802681},{"NoteNumber":85,"Velocity":52,"Duration":140328,"SoundDuration":140328,"Delta":414802681},{"NoteNumber":65,"Velocity":37,"Duration":109946,"SoundDuration":109946,"Delta":414802681},{"NoteNumber":73,"Velocity":37,"Duration":109946,"SoundDuration":109946,"Delta":414802681},{"NoteNumber":97,"Velocity":47,"Duration":121526,"SoundDuration":121526,"Delta":414912627},{"NoteNumber":85,"Velocity":55,"Duration":418075,"SoundDuration":418075,"Delta":415034154},{"NoteNumber":89,"Velocity":65,"Duration":418075,"SoundDuration":418075,"Delta":415034154},{"NoteNumber":77,"Velocity":55,"Duration":418075,"SoundDuration":418075,"Delta":415034154},{"NoteNumber":71,"Velocity":48,"Duration":310494,"SoundDuration":310494,"Delta":415034154},{"NoteNumber":68,"Velocity":42,"Duration":310494,"SoundDuration":310494,"Delta":415034154},{"NoteNumber":73,"Velocity":37,"Duration":107580,"SoundDuration":107580,"Delta":415344648},{"NoteNumber":65,"Velocity":37,"Duration":107580,"SoundDuration":107580,"Delta":415344648},{"NoteNumber":82,"Velocity":55,"Duration":94637,"SoundDuration":94637,"Delta":415452229},{"NoteNumber":90,"Velocity":65,"Duration":94637,"SoundDuration":94637,"Delta":415452229},{"NoteNumber":54,"Velocity":42,"Duration":94637,"SoundDuration":94637,"Delta":415452229},{"NoteNumber":97,"Velocity":48,"Duration":94637,"SoundDuration":94637,"Delta":415546866},{"NoteNumber":94,"Velocity":62,"Duration":118296,"SoundDuration":118296,"Delta":415641504},{"NoteNumber":85,"Velocity":52,"Duration":118296,"SoundDuration":118296,"Delta":415641504},{"NoteNumber":66,"Velocity":37,"Duration":94637,"SoundDuration":94637,"Delta":415641504},{"NoteNumber":70,"Velocity":37,"Duration":94637,"SoundDuration":94637,"Delta":415641504},{"NoteNumber":61,"Velocity":37,"Duration":94637,"SoundDuration":94637,"Delta":415641504},{"NoteNumber":97,"Velocity":47,"Duration":94637,"SoundDuration":94637,"Delta":415736141},{"NoteNumber":82,"Velocity":55,"Duration":100671,"SoundDuration":100671,"Delta":415830778},{"NoteNumber":90,"Velocity":65,"Duration":100671,"SoundDuration":100671,"Delta":415830778},{"NoteNumber":49,"Velocity":42,"Duration":100671,"SoundDuration":100671,"Delta":415830778},{"NoteNumber":97,"Velocity":46,"Duration":100671,"SoundDuration":100671,"Delta":415931449},{"NoteNumber":94,"Velocity":61,"Duration":145348,"SoundDuration":145348,"Delta":416032121},{"NoteNumber":85,"Velocity":51,"Duration":145348,"SoundDuration":145348,"Delta":416032121},{"NoteNumber":66,"Velocity":37,"Duration":116279,"SoundDuration":116279,"Delta":416032121},{"NoteNumber":70,"Velocity":37,"Duration":116279,"SoundDuration":116279,"Delta":416032121},{"NoteNumber":61,"Velocity":37,"Duration":116279,"SoundDuration":116279,"Delta":416032121},{"NoteNumber":97,"Velocity":48,"Duration":116278,"SoundDuration":116278,"Delta":416148400},{"NoteNumber":82,"Velocity":55,"Duration":118110,"SoundDuration":118110,"Delta":416264679},{"NoteNumber":90,"Velocity":65,"Duration":118110,"SoundDuration":118110,"Delta":416264679},{"NoteNumber":69,"Velocity":37,"Duration":118110,"SoundDuration":118110,"Delta":416264679},{"NoteNumber":72,"Velocity":42,"Duration":118110,"SoundDuration":118110,"Delta":416264679},{"NoteNumber":97,"Velocity":48,"Duration":118110,"SoundDuration":118110,"Delta":416382789},{"NoteNumber":94,"Velocity":62,"Duration":156539,"SoundDuration":156539,"Delta":416500899},{"NoteNumber":85,"Velocity":52,"Duration":156539,"SoundDuration":156539,"Delta":416500899},{"NoteNumber":70,"Velocity":37,"Duration":122449,"SoundDuration":122449,"Delta":416500899},{"NoteNumber":73,"Velocity":37,"Duration":122449,"SoundDuration":122449,"Delta":416500899},{"NoteNumber":97,"Velocity":47,"Duration":136363,"SoundDuration":136363,"Delta":416623348},{"NoteNumber":90,"Velocity":65,"Duration":435768,"SoundDuration":435768,"Delta":416759712},{"NoteNumber":85,"Velocity":55,"Duration":435768,"SoundDuration":435768,"Delta":416759712},{"NoteNumber":78,"Velocity":55,"Duration":435768,"SoundDuration":435768,"Delta":416759712},{"NoteNumber":66,"Velocity":42,"Duration":435768,"SoundDuration":435768,"Delta":416759712},{"NoteNumber":70,"Velocity":48,"Duration":371900,"SoundDuration":371900,"Delta":416759712},{"NoteNumber":73,"Velocity":37,"Duration":63867,"SoundDuration":63867,"Delta":417131613},{"NoteNumber":87,"Velocity":65,"Duration":105315,"SoundDuration":105315,"Delta":417259349},{"NoteNumber":66,"Velocity":42,"Duration":105315,"SoundDuration":105315,"Delta":417259349},{"NoteNumber":97,"Velocity":47,"Duration":105314,"SoundDuration":105314,"Delta":417364664},{"NoteNumber":83,"Velocity":60,"Duration":99055,"SoundDuration":99055,"Delta":417469979},{"NoteNumber":71,"Velocity":31,"Duration":99055,"SoundDuration":99055,"Delta":417469979},{"NoteNumber":75,"Velocity":37,"Duration":99055,"SoundDuration":99055,"Delta":417469979},{"NoteNumber":97,"Velocity":47,"Duration":99055,"SoundDuration":99055,"Delta":417569034},{"NoteNumber":82,"Velocity":60,"Duration":95583,"SoundDuration":95583,"Delta":417668090},{"NoteNumber":61,"Velocity":42,"Duration":95583,"SoundDuration":95583,"Delta":417668090},{"NoteNumber":97,"Velocity":47,"Duration":95584,"SoundDuration":95584,"Delta":417763674},{"NoteNumber":83,"Velocity":62,"Duration":95583,"SoundDuration":95583,"Delta":417859258},{"NoteNumber":78,"Velocity":37,"Duration":95583,"SoundDuration":95583,"Delta":417859258},{"NoteNumber":75,"Velocity":31,"Duration":95583,"SoundDuration":95583,"Delta":417859258},{"NoteNumber":97,"Velocity":47,"Duration":98405,"SoundDuration":98405,"Delta":417954842},{"NoteNumber":87,"Velocity":65,"Duration":91224,"SoundDuration":91224,"Delta":418053248},{"NoteNumber":66,"Velocity":42,"Duration":91224,"SoundDuration":91224,"Delta":418053248},{"NoteNumber":97,"Velocity":48,"Duration":91224,"SoundDuration":91224,"Delta":418144472},{"NoteNumber":83,"Velocity":62,"Duration":91224,"SoundDuration":91224,"Delta":418235696},{"NoteNumber":75,"Velocity":31,"Duration":91224,"SoundDuration":91224,"Delta":418235696},{"NoteNumber":78,"Velocity":37,"Duration":91224,"SoundDuration":91224,"Delta":418235696},{"NoteNumber":97,"Velocity":47,"Duration":91224,"SoundDuration":91224,"Delta":418326921},{"NoteNumber":90,"Velocity":65,"Duration":89322,"SoundDuration":89322,"Delta":418418145},{"NoteNumber":71,"Velocity":42,"Duration":89322,"SoundDuration":89322,"Delta":418418145},{"NoteNumber":97,"Velocity":46,"Duration":89323,"SoundDuration":89323,"Delta":418507468},{"NoteNumber":87,"Velocity":61,"Duration":90947,"SoundDuration":90947,"Delta":418596791},{"NoteNumber":78,"Velocity":37,"Duration":90947,"SoundDuration":90947,"Delta":418596791},{"NoteNumber":75,"Velocity":31,"Duration":90947,"SoundDuration":90947,"Delta":418596791},{"NoteNumber":97,"Velocity":48,"Duration":90947,"SoundDuration":90947,"Delta":418687739},{"NoteNumber":85,"Velocity":65,"Duration":87244,"SoundDuration":87244,"Delta":418778686},{"NoteNumber":66,"Velocity":42,"Duration":87244,"SoundDuration":87244,"Delta":418778686},{"NoteNumber":97,"Velocity":47,"Duration":87244,"SoundDuration":87244,"Delta":418865931},{"NoteNumber":82,"Velocity":60,"Duration":87244,"SoundDuration":87244,"Delta":418953176},{"NoteNumber":70,"Velocity":31,"Duration":87244,"SoundDuration":87244,"Delta":418953176},{"NoteNumber":73,"Velocity":37,"Duration":87244,"SoundDuration":87244,"Delta":418953176},{"NoteNumber":97,"Velocity":47,"Duration":87244,"SoundDuration":87244,"Delta":419040421},{"NoteNumber":81,"Velocity":60,"Duration":85504,"SoundDuration":85504,"Delta":419127665},{"NoteNumber":61,"Velocity":42,"Duration":85504,"SoundDuration":85504,"Delta":419127665},{"NoteNumber":97,"Velocity":47,"Duration":85504,"SoundDuration":85504,"Delta":419213170},{"NoteNumber":82,"Velocity":62,"Duration":85504,"SoundDuration":85504,"Delta":419298674},{"NoteNumber":73,"Velocity":31,"Duration":85504,"SoundDuration":85504,"Delta":419298674},{"NoteNumber":78,"Velocity":37,"Duration":85504,"SoundDuration":85504,"Delta":419298674},{"NoteNumber":97,"Velocity":47,"Duration":89322,"SoundDuration":89322,"Delta":419384178},{"NoteNumber":85,"Velocity":65,"Duration":84540,"SoundDuration":84540,"Delta":419473501},{"NoteNumber":66,"Velocity":42,"Duration":84540,"SoundDuration":84540,"Delta":419473501},{"NoteNumber":97,"Velocity":48,"Duration":84540,"SoundDuration":84540,"Delta":419558042},{"NoteNumber":82,"Velocity":62,"Duration":84540,"SoundDuration":84540,"Delta":419642582},{"NoteNumber":73,"Velocity":31,"Duration":84540,"SoundDuration":84540,"Delta":419642582},{"NoteNumber":78,"Velocity":37,"Duration":84540,"SoundDuration":84540,"Delta":419642582},{"NoteNumber":97,"Velocity":47,"Duration":84540,"SoundDuration":84540,"Delta":419727123},{"NoteNumber":90,"Velocity":65,"Duration":85019,"SoundDuration":85019,"Delta":419811663},{"NoteNumber":70,"Velocity":42,"Duration":85019,"SoundDuration":85019,"Delta":419811663},{"NoteNumber":97,"Velocity":46,"Duration":85019,"SoundDuration":85019,"Delta":419896683},{"NoteNumber":85,"Velocity":61,"Duration":85748,"SoundDuration":85748,"Delta":419981702},{"NoteNumber":73,"Velocity":31,"Duration":85748,"SoundDuration":85748,"Delta":419981702},{"NoteNumber":78,"Velocity":37,"Duration":85748,"SoundDuration":85748,"Delta":419981702},{"NoteNumber":97,"Velocity":48,"Duration":85748,"SoundDuration":85748,"Delta":420067451},{"NoteNumber":87,"Velocity":65,"Duration":84779,"SoundDuration":84779,"Delta":420153199},{"NoteNumber":66,"Velocity":42,"Duration":84779,"SoundDuration":84779,"Delta":420153199},{"NoteNumber":97,"Velocity":47,"Duration":84779,"SoundDuration":84779,"Delta":420237978},{"NoteNumber":83,"Velocity":60,"Duration":84779,"SoundDuration":84779,"Delta":420322758},{"NoteNumber":75,"Velocity":37,"Duration":84779,"SoundDuration":84779,"Delta":420322758},{"NoteNumber":71,"Velocity":31,"Duration":84779,"SoundDuration":84779,"Delta":420322758},{"NoteNumber":97,"Velocity":47,"Duration":84779,"SoundDuration":84779,"Delta":420407537},{"NoteNumber":82,"Velocity":60,"Duration":83365,"SoundDuration":83365,"Delta":420492316},{"NoteNumber":61,"Velocity":42,"Duration":83365,"SoundDuration":83365,"Delta":420492316},{"NoteNumber":97,"Velocity":47,"Duration":83365,"SoundDuration":83365,"Delta":420575682},{"NoteNumber":83,"Velocity":62,"Duration":83365,"SoundDuration":83365,"Delta":420659048},{"NoteNumber":75,"Velocity":31,"Duration":83365,"SoundDuration":83365,"Delta":420659048},{"NoteNumber":78,"Velocity":37,"Duration":83365,"SoundDuration":83365,"Delta":420659048},{"NoteNumber":97,"Velocity":47,"Duration":84779,"SoundDuration":84779,"Delta":420742413},{"NoteNumber":87,"Velocity":65,"Duration":83597,"SoundDuration":83597,"Delta":420827193},{"NoteNumber":66,"Velocity":42,"Duration":83597,"SoundDuration":83597,"Delta":420827193},{"NoteNumber":97,"Velocity":48,"Duration":83597,"SoundDuration":83597,"Delta":420910791},{"NoteNumber":83,"Velocity":62,"Duration":83597,"SoundDuration":83597,"Delta":420994389},{"NoteNumber":78,"Velocity":37,"Duration":83597,"SoundDuration":83597,"Delta":420994389},{"NoteNumber":75,"Velocity":31,"Duration":83597,"SoundDuration":83597,"Delta":420994389},{"NoteNumber":97,"Velocity":47,"Duration":83597,"SoundDuration":83597,"Delta":421077987},{"NoteNumber":90,"Velocity":65,"Duration":84302,"SoundDuration":84302,"Delta":421161585},{"NoteNumber":71,"Velocity":42,"Duration":84302,"SoundDuration":84302,"Delta":421161585},{"NoteNumber":97,"Velocity":46,"Duration":84302,"SoundDuration":84302,"Delta":421245887},{"NoteNumber":87,"Velocity":61,"Duration":85261,"SoundDuration":85261,"Delta":421330190},{"NoteNumber":78,"Velocity":37,"Duration":85261,"SoundDuration":85261,"Delta":421330190},{"NoteNumber":75,"Velocity":31,"Duration":85261,"SoundDuration":85261,"Delta":421330190},{"NoteNumber":97,"Velocity":48,"Duration":85261,"SoundDuration":85261,"Delta":421415451},{"NoteNumber":85,"Velocity":65,"Duration":83597,"SoundDuration":83597,"Delta":421500713},{"NoteNumber":66,"Velocity":42,"Duration":83597,"SoundDuration":83597,"Delta":421500713},{"NoteNumber":97,"Velocity":47,"Duration":83597,"SoundDuration":83597,"Delta":421584311},{"NoteNumber":82,"Velocity":60,"Duration":83597,"SoundDuration":83597,"Delta":421667909},{"NoteNumber":70,"Velocity":31,"Duration":83597,"SoundDuration":83597,"Delta":421667909},{"NoteNumber":73,"Velocity":37,"Duration":83597,"SoundDuration":83597,"Delta":421667909},{"NoteNumber":97,"Velocity":47,"Duration":83597,"SoundDuration":83597,"Delta":421751507},{"NoteNumber":81,"Velocity":60,"Duration":82676,"SoundDuration":82676,"Delta":421835105},{"NoteNumber":61,"Velocity":42,"Duration":82676,"SoundDuration":82676,"Delta":421835105},{"NoteNumber":97,"Velocity":47,"Duration":82676,"SoundDuration":82676,"Delta":421917781},{"NoteNumber":82,"Velocity":62,"Duration":84066,"SoundDuration":84066,"Delta":422000458},{"NoteNumber":73,"Velocity":31,"Duration":84066,"SoundDuration":84066,"Delta":422000458},{"NoteNumber":78,"Velocity":37,"Duration":84066,"SoundDuration":84066,"Delta":422000458},{"NoteNumber":97,"Velocity":47,"Duration":92063,"SoundDuration":92063,"Delta":422084524},{"NoteNumber":85,"Velocity":65,"Duration":89589,"SoundDuration":89589,"Delta":422176588},{"NoteNumber":66,"Velocity":42,"Duration":89589,"SoundDuration":89589,"Delta":422176588},{"NoteNumber":97,"Velocity":48,"Duration":89589,"SoundDuration":89589,"Delta":422266178},{"NoteNumber":82,"Velocity":62,"Duration":89589,"SoundDuration":89589,"Delta":422355768},{"NoteNumber":73,"Velocity":31,"Duration":89589,"SoundDuration":89589,"Delta":422355768},{"NoteNumber":78,"Velocity":37,"Duration":89589,"SoundDuration":89589,"Delta":422355768},{"NoteNumber":97,"Velocity":47,"Duration":93498,"SoundDuration":93498,"Delta":422445357},{"NoteNumber":90,"Velocity":65,"Duration":92063,"SoundDuration":92063,"Delta":422538856},{"NoteNumber":70,"Velocity":42,"Duration":92063,"SoundDuration":92063,"Delta":422538856},{"NoteNumber":97,"Velocity":46,"Duration":92063,"SoundDuration":92063,"Delta":422630920},{"NoteNumber":78,"Velocity":37,"Duration":88012,"SoundDuration":88012,"Delta":422722984},{"NoteNumber":73,"Velocity":31,"Duration":88012,"SoundDuration":88012,"Delta":422722984},{"NoteNumber":49,"Velocity":46,"Duration":85019,"SoundDuration":85019,"Delta":422899010},{"NoteNumber":56,"Velocity":42,"Duration":85019,"SoundDuration":85019,"Delta":422899010},{"NoteNumber":51,"Velocity":48,"Duration":82626,"SoundDuration":82626,"Delta":423066656},{"NoteNumber":71,"Velocity":33,"Duration":82626,"SoundDuration":82626,"Delta":423066656},{"NoteNumber":65,"Velocity":28,"Duration":82626,"SoundDuration":82626,"Delta":423066656},{"NoteNumber":53,"Velocity":50,"Duration":82626,"SoundDuration":82626,"Delta":423231909},{"NoteNumber":61,"Velocity":36,"Duration":82626,"SoundDuration":82626,"Delta":423231909},{"NoteNumber":54,"Velocity":53,"Duration":84250,"SoundDuration":84250,"Delta":423398786},{"NoteNumber":71,"Velocity":33,"Duration":84250,"SoundDuration":84250,"Delta":423398786},{"NoteNumber":65,"Velocity":28,"Duration":84250,"SoundDuration":84250,"Delta":423398786},{"NoteNumber":58,"Velocity":50,"Duration":42125,"SoundDuration":42125,"Delta":423525162},{"NoteNumber":56,"Velocity":55,"Duration":82399,"SoundDuration":82399,"Delta":423567287},{"NoteNumber":55,"Velocity":46,"Duration":82399,"SoundDuration":82399,"Delta":423732086},{"NoteNumber":65,"Velocity":28,"Duration":82399,"SoundDuration":82399,"Delta":423732086},{"NoteNumber":71,"Velocity":33,"Duration":82399,"SoundDuration":82399,"Delta":423732086},{"NoteNumber":56,"Velocity":50,"Duration":81521,"SoundDuration":81521,"Delta":423896447},{"NoteNumber":61,"Velocity":38,"Duration":81521,"SoundDuration":81521,"Delta":423896447},{"NoteNumber":53,"Velocity":46,"Duration":83546,"SoundDuration":83546,"Delta":424059490},{"NoteNumber":65,"Velocity":28,"Duration":83546,"SoundDuration":83546,"Delta":424059490},{"NoteNumber":71,"Velocity":33,"Duration":83546,"SoundDuration":83546,"Delta":424059490},{"NoteNumber":54,"Velocity":46,"Duration":81949,"SoundDuration":81949,"Delta":424226584},{"NoteNumber":58,"Velocity":42,"Duration":81949,"SoundDuration":81949,"Delta":424226584},{"NoteNumber":56,"Velocity":48,"Duration":82626,"SoundDuration":82626,"Delta":424391159},{"NoteNumber":66,"Velocity":28,"Duration":82626,"SoundDuration":82626,"Delta":424391159},{"NoteNumber":70,"Velocity":33,"Duration":82626,"SoundDuration":82626,"Delta":424391159},{"NoteNumber":58,"Velocity":50,"Duration":82626,"SoundDuration":82626,"Delta":424556412},{"NoteNumber":61,"Velocity":36,"Duration":82626,"SoundDuration":82626,"Delta":424556412},{"NoteNumber":59,"Velocity":53,"Duration":84014,"SoundDuration":84014,"Delta":424723054},{"NoteNumber":70,"Velocity":33,"Duration":84014,"SoundDuration":84014,"Delta":424723054},{"NoteNumber":66,"Velocity":28,"Duration":84014,"SoundDuration":84014,"Delta":424723054},{"NoteNumber":63,"Velocity":50,"Duration":42007,"SoundDuration":42007,"Delta":424849076},{"NoteNumber":61,"Velocity":55,"Duration":82173,"SoundDuration":82173,"Delta":424891083},{"NoteNumber":58,"Velocity":44,"Duration":82173,"SoundDuration":82173,"Delta":424891083},{"NoteNumber":60,"Velocity":46,"Duration":82173,"SoundDuration":82173,"Delta":425055431},{"NoteNumber":66,"Velocity":28,"Duration":82173,"SoundDuration":82173,"Delta":425055431},{"NoteNumber":70,"Velocity":33,"Duration":82173,"SoundDuration":82173,"Delta":425055431},{"NoteNumber":61,"Velocity":50,"Duration":82173,"SoundDuration":82173,"Delta":425219778},{"NoteNumber":58,"Velocity":46,"Duration":84540,"SoundDuration":84540,"Delta":425384126},{"NoteNumber":70,"Velocity":33,"Duration":84540,"SoundDuration":84540,"Delta":425384126},{"NoteNumber":66,"Velocity":28,"Duration":84540,"SoundDuration":84540,"Delta":425384126},{"NoteNumber":59,"Velocity":55,"Duration":81283,"SoundDuration":81283,"Delta":425553207},{"NoteNumber":56,"Velocity":44,"Duration":81283,"SoundDuration":81283,"Delta":425553207},{"NoteNumber":62,"Velocity":50,"Duration":40641,"SoundDuration":40641,"Delta":425675131},{"NoteNumber":63,"Velocity":46,"Duration":42125,"SoundDuration":42125,"Delta":425715773},{"NoteNumber":65,"Velocity":28,"Duration":42125,"SoundDuration":42125,"Delta":425715773},{"NoteNumber":71,"Velocity":33,"Duration":42125,"SoundDuration":42125,"Delta":425715773},{"NoteNumber":56,"Velocity":50,"Duration":80845,"SoundDuration":80845,"Delta":425884275},{"NoteNumber":61,"Velocity":38,"Duration":80845,"SoundDuration":80845,"Delta":425884275},{"NoteNumber":58,"Velocity":50,"Duration":40422,"SoundDuration":40422,"Delta":426005542},{"NoteNumber":59,"Velocity":46,"Duration":42125,"SoundDuration":42125,"Delta":426045965},{"NoteNumber":65,"Velocity":28,"Duration":42125,"SoundDuration":42125,"Delta":426045965},{"NoteNumber":71,"Velocity":33,"Duration":42125,"SoundDuration":42125,"Delta":426045965},{"NoteNumber":53,"Velocity":55,"Duration":80845,"SoundDuration":80845,"Delta":426214466},{"NoteNumber":56,"Velocity":44,"Duration":80845,"SoundDuration":80845,"Delta":426214466},{"NoteNumber":55,"Velocity":50,"Duration":40422,"SoundDuration":40422,"Delta":426335734},{"NoteNumber":56,"Velocity":46,"Duration":42125,"SoundDuration":42125,"Delta":426376156},{"NoteNumber":65,"Velocity":28,"Duration":42125,"SoundDuration":42125,"Delta":426376156},{"NoteNumber":71,"Velocity":33,"Duration":42125,"SoundDuration":42125,"Delta":426376156},{"NoteNumber":49,"Velocity":50,"Duration":80845,"SoundDuration":80845,"Delta":426544658},{"NoteNumber":61,"Velocity":38,"Duration":80845,"SoundDuration":80845,"Delta":426544658},{"NoteNumber":52,"Velocity":50,"Duration":40422,"SoundDuration":40422,"Delta":426665925},{"NoteNumber":53,"Velocity":46,"Duration":42125,"SoundDuration":42125,"Delta":426706348},{"NoteNumber":71,"Velocity":33,"Duration":42125,"SoundDuration":42125,"Delta":426706348},{"NoteNumber":65,"Velocity":28,"Duration":42125,"SoundDuration":42125,"Delta":426706348},{"NoteNumber":54,"Velocity":55,"Duration":80627,"SoundDuration":80627,"Delta":426874849},{"NoteNumber":58,"Velocity":44,"Duration":80627,"SoundDuration":80627,"Delta":426874849},{"NoteNumber":57,"Velocity":50,"Duration":40313,"SoundDuration":40313,"Delta":426995791},{"NoteNumber":58,"Velocity":46,"Duration":42125,"SoundDuration":42125,"Delta":427036105},{"NoteNumber":70,"Velocity":33,"Duration":42125,"SoundDuration":42125,"Delta":427036105},{"NoteNumber":66,"Velocity":28,"Duration":42125,"SoundDuration":42125,"Delta":427036105},{"NoteNumber":49,"Velocity":50,"Duration":81726,"SoundDuration":81726,"Delta":427204606},{"NoteNumber":61,"Velocity":38,"Duration":81726,"SoundDuration":81726,"Delta":427204606},{"NoteNumber":53,"Velocity":50,"Duration":40863,"SoundDuration":40863,"Delta":427327195},{"NoteNumber":54,"Velocity":46,"Duration":43093,"SoundDuration":43093,"Delta":427368058},{"NoteNumber":70,"Velocity":33,"Duration":43093,"SoundDuration":43093,"Delta":427368058},{"NoteNumber":66,"Velocity":28,"Duration":43093,"SoundDuration":43093,"Delta":427368058},{"NoteNumber":46,"Velocity":55,"Duration":81503,"SoundDuration":81503,"Delta":427540432},{"NoteNumber":58,"Velocity":44,"Duration":81503,"SoundDuration":81503,"Delta":427540432},{"NoteNumber":48,"Velocity":50,"Duration":40751,"SoundDuration":40751,"Delta":427662688},{"NoteNumber":49,"Velocity":46,"Duration":44368,"SoundDuration":44368,"Delta":427703440},{"NoteNumber":66,"Velocity":28,"Duration":44368,"SoundDuration":44368,"Delta":427703440},{"NoteNumber":70,"Velocity":33,"Duration":44368,"SoundDuration":44368,"Delta":427703440},{"NoteNumber":42,"Velocity":50,"Duration":83083,"SoundDuration":83083,"Delta":427880913},{"NoteNumber":61,"Velocity":38,"Duration":83083,"SoundDuration":83083,"Delta":427880913},{"NoteNumber":66,"Velocity":28,"Duration":42125,"SoundDuration":42125,"Delta":428047081},{"NoteNumber":70,"Velocity":33,"Duration":42125,"SoundDuration":42125,"Delta":428047081},{"NoteNumber":61,"Velocity":40,"Duration":85019,"SoundDuration":85019,"Delta":428215583},{"NoteNumber":73,"Velocity":48,"Duration":85019,"SoundDuration":85019,"Delta":428215583},{"NoteNumber":56,"Velocity":42,"Duration":85019,"SoundDuration":85019,"Delta":428215583},{"NoteNumber":63,"Velocity":42,"Duration":81743,"SoundDuration":81743,"Delta":428382346},{"NoteNumber":75,"Velocity":50,"Duration":81743,"SoundDuration":81743,"Delta":428382346},{"NoteNumber":59,"Velocity":28,"Duration":81743,"SoundDuration":81743,"Delta":428382346},{"NoteNumber":65,"Velocity":33,"Duration":81743,"SoundDuration":81743,"Delta":428382346},{"NoteNumber":65,"Velocity":44,"Duration":81743,"SoundDuration":81743,"Delta":428545833},{"NoteNumber":77,"Velocity":52,"Duration":81743,"SoundDuration":81743,"Delta":428545833},{"NoteNumber":49,"Velocity":36,"Duration":81743,"SoundDuration":81743,"Delta":428545833},{"NoteNumber":66,"Velocity":47,"Duration":83333,"SoundDuration":83333,"Delta":428710910},{"NoteNumber":78,"Velocity":55,"Duration":83333,"SoundDuration":83333,"Delta":428710910},{"NoteNumber":59,"Velocity":28,"Duration":83333,"SoundDuration":83333,"Delta":428710910},{"NoteNumber":61,"Velocity":33,"Duration":83333,"SoundDuration":83333,"Delta":428710910},{"NoteNumber":82,"Velocity":52,"Duration":41666,"SoundDuration":41666,"Delta":428835910},{"NoteNumber":68,"Velocity":48,"Duration":81521,"SoundDuration":81521,"Delta":428877577},{"NoteNumber":80,"Velocity":57,"Duration":81521,"SoundDuration":81521,"Delta":428877577},{"NoteNumber":56,"Velocity":44,"Duration":81521,"SoundDuration":81521,"Delta":428877577},{"NoteNumber":67,"Velocity":40,"Duration":81521,"SoundDuration":81521,"Delta":429040620},{"NoteNumber":79,"Velocity":48,"Duration":81521,"SoundDuration":81521,"Delta":429040620},{"NoteNumber":59,"Velocity":28,"Duration":81521,"SoundDuration":81521,"Delta":429040620},{"NoteNumber":65,"Velocity":33,"Duration":81521,"SoundDuration":81521,"Delta":429040620},{"NoteNumber":80,"Velocity":52,"Duration":81521,"SoundDuration":81521,"Delta":429203664},{"NoteNumber":68,"Velocity":44,"Duration":81521,"SoundDuration":81521,"Delta":429203664},{"NoteNumber":49,"Velocity":38,"Duration":81521,"SoundDuration":81521,"Delta":429203664},{"NoteNumber":77,"Velocity":48,"Duration":83546,"SoundDuration":83546,"Delta":429366707},{"NoteNumber":65,"Velocity":40,"Duration":83546,"SoundDuration":83546,"Delta":429366707},{"NoteNumber":59,"Velocity":28,"Duration":83546,"SoundDuration":83546,"Delta":429366707},{"NoteNumber":61,"Velocity":33,"Duration":83546,"SoundDuration":83546,"Delta":429366707},{"NoteNumber":78,"Velocity":48,"Duration":81300,"SoundDuration":81300,"Delta":429533801},{"NoteNumber":66,"Velocity":40,"Duration":81300,"SoundDuration":81300,"Delta":429533801},{"NoteNumber":54,"Velocity":42,"Duration":81300,"SoundDuration":81300,"Delta":429533801},{"NoteNumber":68,"Velocity":42,"Duration":81521,"SoundDuration":81521,"Delta":429696623},{"NoteNumber":80,"Velocity":50,"Duration":81521,"SoundDuration":81521,"Delta":429696623},{"NoteNumber":66,"Velocity":33,"Duration":81521,"SoundDuration":81521,"Delta":429696623},{"NoteNumber":58,"Velocity":28,"Duration":81521,"SoundDuration":81521,"Delta":429696623},{"NoteNumber":82,"Velocity":52,"Duration":81521,"SoundDuration":81521,"Delta":429859667},{"NoteNumber":70,"Velocity":44,"Duration":81521,"SoundDuration":81521,"Delta":429859667},{"NoteNumber":49,"Velocity":36,"Duration":81521,"SoundDuration":81521,"Delta":429859667},{"NoteNumber":71,"Velocity":47,"Duration":84014,"SoundDuration":84014,"Delta":430025203},{"NoteNumber":83,"Velocity":55,"Duration":84014,"SoundDuration":84014,"Delta":430025203},{"NoteNumber":58,"Velocity":28,"Duration":84014,"SoundDuration":84014,"Delta":430025203},{"NoteNumber":61,"Velocity":33,"Duration":84014,"SoundDuration":84014,"Delta":430025203},{"NoteNumber":90,"Velocity":52,"Duration":42007,"SoundDuration":42007,"Delta":430151225},{"NoteNumber":73,"Velocity":48,"Duration":81521,"SoundDuration":81521,"Delta":430193233},{"NoteNumber":85,"Velocity":57,"Duration":81521,"SoundDuration":81521,"Delta":430193233},{"NoteNumber":54,"Velocity":44,"Duration":81521,"SoundDuration":81521,"Delta":430193233},{"NoteNumber":84,"Velocity":48,"Duration":81521,"SoundDuration":81521,"Delta":430356276},{"NoteNumber":72,"Velocity":40,"Duration":81521,"SoundDuration":81521,"Delta":430356276},{"NoteNumber":66,"Velocity":33,"Duration":81521,"SoundDuration":81521,"Delta":430356276},{"NoteNumber":58,"Velocity":28,"Duration":81521,"SoundDuration":81521,"Delta":430356276},{"NoteNumber":73,"Velocity":44,"Duration":81521,"SoundDuration":81521,"Delta":430519320},{"NoteNumber":85,"Velocity":52,"Duration":81521,"SoundDuration":81521,"Delta":430519320},{"NoteNumber":49,"Velocity":38,"Duration":81521,"SoundDuration":81521,"Delta":430519320},{"NoteNumber":70,"Velocity":40,"Duration":84540,"SoundDuration":84540,"Delta":430682363},{"NoteNumber":82,"Velocity":48,"Duration":84540,"SoundDuration":84540,"Delta":430682363},{"NoteNumber":58,"Velocity":28,"Duration":84540,"SoundDuration":84540,"Delta":430682363},{"NoteNumber":61,"Velocity":33,"Duration":84540,"SoundDuration":84540,"Delta":430682363},{"NoteNumber":83,"Velocity":66,"Duration":80214,"SoundDuration":80214,"Delta":430851444},{"NoteNumber":75,"Velocity":50,"Duration":80214,"SoundDuration":80214,"Delta":430851444},{"NoteNumber":56,"Velocity":44,"Duration":80214,"SoundDuration":80214,"Delta":430853450},{"NoteNumber":86,"Velocity":60,"Duration":40107,"SoundDuration":40107,"Delta":430971765},{"NoteNumber":87,"Velocity":55,"Duration":41208,"SoundDuration":41208,"Delta":431011872},{"NoteNumber":65,"Velocity":33,"Duration":41208,"SoundDuration":41208,"Delta":431011872},{"NoteNumber":59,"Velocity":28,"Duration":41208,"SoundDuration":41208,"Delta":431011872},{"NoteNumber":71,"Velocity":50,"Duration":79999,"SoundDuration":79999,"Delta":431176707},{"NoteNumber":80,"Velocity":60,"Duration":79999,"SoundDuration":79999,"Delta":431176707},{"NoteNumber":49,"Velocity":38,"Duration":79999,"SoundDuration":79999,"Delta":431176707},{"NoteNumber":82,"Velocity":60,"Duration":40000,"SoundDuration":40000,"Delta":431296707},{"NoteNumber":83,"Velocity":55,"Duration":41208,"SoundDuration":41208,"Delta":431336707},{"NoteNumber":61,"Velocity":33,"Duration":41208,"SoundDuration":41208,"Delta":431336707},{"NoteNumber":59,"Velocity":28,"Duration":41208,"SoundDuration":41208,"Delta":431336707},{"NoteNumber":77,"Velocity":66,"Duration":79999,"SoundDuration":79999,"Delta":431501542},{"NoteNumber":68,"Velocity":50,"Duration":79999,"SoundDuration":79999,"Delta":431501542},{"NoteNumber":56,"Velocity":44,"Duration":79999,"SoundDuration":79999,"Delta":431501542},{"NoteNumber":79,"Velocity":60,"Duration":40000,"SoundDuration":40000,"Delta":431621542},{"NoteNumber":80,"Velocity":55,"Duration":41208,"SoundDuration":41208,"Delta":431661542},{"NoteNumber":59,"Velocity":28,"Duration":41208,"SoundDuration":41208,"Delta":431661542},{"NoteNumber":65,"Velocity":33,"Duration":41208,"SoundDuration":41208,"Delta":431661542},{"NoteNumber":73,"Velocity":60,"Duration":79364,"SoundDuration":79364,"Delta":431826377},{"NoteNumber":65,"Velocity":50,"Duration":79364,"SoundDuration":79364,"Delta":431826377},{"NoteNumber":49,"Velocity":38,"Duration":79364,"SoundDuration":79364,"Delta":431826377},{"NoteNumber":76,"Velocity":60,"Duration":39682,"SoundDuration":39682,"Delta":431945425},{"NoteNumber":77,"Velocity":55,"Duration":40983,"SoundDuration":40983,"Delta":431985107},{"NoteNumber":59,"Velocity":28,"Duration":40983,"SoundDuration":40983,"Delta":431985107},{"NoteNumber":61,"Velocity":33,"Duration":40983,"SoundDuration":40983,"Delta":431985107},{"NoteNumber":78,"Velocity":66,"Duration":79787,"SoundDuration":79787,"Delta":432149042},{"NoteNumber":70,"Velocity":50,"Duration":79787,"SoundDuration":79787,"Delta":432149042},{"NoteNumber":54,"Velocity":44,"Duration":79787,"SoundDuration":79787,"Delta":432149042},{"NoteNumber":81,"Velocity":60,"Duration":39893,"SoundDuration":39893,"Delta":432268723},{"NoteNumber":82,"Velocity":55,"Duration":41208,"SoundDuration":41208,"Delta":432308616},{"NoteNumber":58,"Velocity":28,"Duration":41208,"SoundDuration":41208,"Delta":432308616},{"NoteNumber":66,"Velocity":33,"Duration":41208,"SoundDuration":41208,"Delta":432308616},{"NoteNumber":73,"Velocity":60,"Duration":81726,"SoundDuration":81726,"Delta":432473451},{"NoteNumber":66,"Velocity":50,"Duration":81726,"SoundDuration":81726,"Delta":432473451},{"NoteNumber":49,"Velocity":38,"Duration":81726,"SoundDuration":81726,"Delta":432473451},{"NoteNumber":77,"Velocity":60,"Duration":40863,"SoundDuration":40863,"Delta":432596040},{"NoteNumber":78,"Velocity":55,"Duration":43859,"SoundDuration":43859,"Delta":432636903},{"NoteNumber":61,"Velocity":33,"Duration":43859,"SoundDuration":43859,"Delta":432636903},{"NoteNumber":58,"Velocity":28,"Duration":43859,"SoundDuration":43859,"Delta":432636903},{"NoteNumber":70,"Velocity":66,"Duration":84033,"SoundDuration":84033,"Delta":432812342},{"NoteNumber":61,"Velocity":50,"Duration":84033,"SoundDuration":84033,"Delta":432812342},{"NoteNumber":54,"Velocity":44,"Duration":84033,"SoundDuration":84033,"Delta":432812342},{"NoteNumber":72,"Velocity":60,"Duration":42016,"SoundDuration":42016,"Delta":432938392},{"NoteNumber":73,"Velocity":55,"Duration":44368,"SoundDuration":44368,"Delta":432980409},{"NoteNumber":66,"Velocity":33,"Duration":44368,"SoundDuration":44368,"Delta":432980409},{"NoteNumber":58,"Velocity":28,"Duration":44368,"SoundDuration":44368,"Delta":432980409},{"NoteNumber":58,"Velocity":50,"Duration":167378,"SoundDuration":167378,"Delta":433157882},{"NoteNumber":66,"Velocity":60,"Duration":344350,"SoundDuration":344350,"Delta":433157882},{"NoteNumber":49,"Velocity":38,"Duration":85469,"SoundDuration":85469,"Delta":433157882},{"NoteNumber":58,"Velocity":28,"Duration":43352,"SoundDuration":43352,"Delta":433328822},{"NoteNumber":61,"Velocity":33,"Duration":43352,"SoundDuration":43352,"Delta":433328822},{"NoteNumber":44,"Velocity":46,"Duration":102739,"SoundDuration":102739,"Delta":433502232},{"NoteNumber":51,"Velocity":42,"Duration":102739,"SoundDuration":102739,"Delta":433502232},{"NoteNumber":46,"Velocity":48,"Duration":86207,"SoundDuration":86207,"Delta":433699312},{"NoteNumber":66,"Velocity":33,"Duration":86207,"SoundDuration":86207,"Delta":433699312},{"NoteNumber":60,"Velocity":28,"Duration":86207,"SoundDuration":86207,"Delta":433699312},{"NoteNumber":48,"Velocity":50,"Duration":86207,"SoundDuration":86207,"Delta":433871726},{"NoteNumber":56,"Velocity":36,"Duration":86207,"SoundDuration":86207,"Delta":433871726},{"NoteNumber":49,"Velocity":53,"Duration":82873,"SoundDuration":82873,"Delta":434040806},{"NoteNumber":66,"Velocity":33,"Duration":82873,"SoundDuration":82873,"Delta":434040806},{"NoteNumber":60,"Velocity":28,"Duration":82873,"SoundDuration":82873,"Delta":434040806},{"NoteNumber":53,"Velocity":50,"Duration":41436,"SoundDuration":41436,"Delta":434165115},{"NoteNumber":51,"Velocity":55,"Duration":81521,"SoundDuration":81521,"Delta":434206552},{"NoteNumber":50,"Velocity":46,"Duration":81521,"SoundDuration":81521,"Delta":434369595},{"NoteNumber":60,"Velocity":28,"Duration":81521,"SoundDuration":81521,"Delta":434369595},{"NoteNumber":66,"Velocity":33,"Duration":81521,"SoundDuration":81521,"Delta":434369595},{"NoteNumber":51,"Velocity":50,"Duration":81521,"SoundDuration":81521,"Delta":434532639},{"NoteNumber":56,"Velocity":38,"Duration":81521,"SoundDuration":81521,"Delta":434532639},{"NoteNumber":48,"Velocity":46,"Duration":83546,"SoundDuration":83546,"Delta":434695682},{"NoteNumber":60,"Velocity":28,"Duration":83546,"SoundDuration":83546,"Delta":434695682},{"NoteNumber":66,"Velocity":33,"Duration":83546,"SoundDuration":83546,"Delta":434695682},{"NoteNumber":49,"Velocity":46,"Duration":81080,"SoundDuration":81080,"Delta":434862776},{"NoteNumber":53,"Velocity":42,"Duration":81080,"SoundDuration":81080,"Delta":434862776},{"NoteNumber":51,"Velocity":48,"Duration":81081,"SoundDuration":81081,"Delta":435024938},{"NoteNumber":61,"Velocity":28,"Duration":81081,"SoundDuration":81081,"Delta":435024938},{"NoteNumber":65,"Velocity":33,"Duration":81081,"SoundDuration":81081,"Delta":435024938},{"NoteNumber":53,"Velocity":50,"Duration":81080,"SoundDuration":81080,"Delta":435187100},{"NoteNumber":56,"Velocity":36,"Duration":81080,"SoundDuration":81080,"Delta":435187100},{"NoteNumber":54,"Velocity":53,"Duration":82873,"SoundDuration":82873,"Delta":435351054},{"NoteNumber":61,"Velocity":28,"Duration":82873,"SoundDuration":82873,"Delta":435351054},{"NoteNumber":65,"Velocity":33,"Duration":82873,"SoundDuration":82873,"Delta":435351054},{"NoteNumber":58,"Velocity":50,"Duration":41436,"SoundDuration":41436,"Delta":435475363},{"NoteNumber":56,"Velocity":55,"Duration":80645,"SoundDuration":80645,"Delta":435516800},{"NoteNumber":53,"Velocity":44,"Duration":80645,"SoundDuration":80645,"Delta":435516800},{"NoteNumber":55,"Velocity":46,"Duration":80645,"SoundDuration":80645,"Delta":435678090},{"NoteNumber":65,"Velocity":33,"Duration":80645,"SoundDuration":80645,"Delta":435678090},{"NoteNumber":61,"Velocity":28,"Duration":80645,"SoundDuration":80645,"Delta":435678090},{"NoteNumber":56,"Velocity":50,"Duration":80645,"SoundDuration":80645,"Delta":435839381},{"NoteNumber":53,"Velocity":46,"Duration":84540,"SoundDuration":84540,"Delta":436000671},{"NoteNumber":65,"Velocity":33,"Duration":84540,"SoundDuration":84540,"Delta":436000671},{"NoteNumber":61,"Velocity":28,"Duration":84540,"SoundDuration":84540,"Delta":436000671},{"NoteNumber":54,"Velocity":55,"Duration":80428,"SoundDuration":80428,"Delta":436169752},{"NoteNumber":51,"Velocity":44,"Duration":80428,"SoundDuration":80428,"Delta":436169752},{"NoteNumber":57,"Velocity":50,"Duration":40214,"SoundDuration":40214,"Delta":436290396},{"NoteNumber":58,"Velocity":46,"Duration":41436,"SoundDuration":41436,"Delta":436330610},{"NoteNumber":66,"Velocity":33,"Duration":41436,"SoundDuration":41436,"Delta":436330610},{"NoteNumber":60,"Velocity":28,"Duration":41436,"SoundDuration":41436,"Delta":436330610},{"NoteNumber":51,"Velocity":50,"Duration":79999,"SoundDuration":79999,"Delta":436496356},{"NoteNumber":56,"Velocity":38,"Duration":79999,"SoundDuration":79999,"Delta":436496356},{"NoteNumber":53,"Velocity":50,"Duration":40000,"SoundDuration":40000,"Delta":436616356},{"NoteNumber":54,"Velocity":46,"Duration":41436,"SoundDuration":41436,"Delta":436656356},{"NoteNumber":60,"Velocity":28,"Duration":41436,"SoundDuration":41436,"Delta":436656356},{"NoteNumber":66,"Velocity":33,"Duration":41436,"SoundDuration":41436,"Delta":436656356},{"NoteNumber":48,"Velocity":55,"Duration":79787,"SoundDuration":79787,"Delta":436822102},{"NoteNumber":51,"Velocity":44,"Duration":79787,"SoundDuration":79787,"Delta":436822102},{"NoteNumber":50,"Velocity":50,"Duration":39893,"SoundDuration":39893,"Delta":436941783},{"NoteNumber":51,"Velocity":46,"Duration":42125,"SoundDuration":42125,"Delta":436981677},{"NoteNumber":66,"Velocity":33,"Duration":42125,"SoundDuration":42125,"Delta":436981677},{"NoteNumber":60,"Velocity":28,"Duration":42125,"SoundDuration":42125,"Delta":436981677},{"NoteNumber":44,"Velocity":50,"Duration":80428,"SoundDuration":80428,"Delta":437150178},{"NoteNumber":56,"Velocity":38,"Duration":80428,"SoundDuration":80428,"Delta":437150178},{"NoteNumber":47,"Velocity":50,"Duration":40214,"SoundDuration":40214,"Delta":437270822},{"NoteNumber":48,"Velocity":46,"Duration":42125,"SoundDuration":42125,"Delta":437311036},{"NoteNumber":60,"Velocity":28,"Duration":42125,"SoundDuration":42125,"Delta":437311036},{"NoteNumber":66,"Velocity":33,"Duration":42125,"SoundDuration":42125,"Delta":437311036},{"NoteNumber":49,"Velocity":55,"Duration":80627,"SoundDuration":80627,"Delta":437479538},{"NoteNumber":53,"Velocity":44,"Duration":80627,"SoundDuration":80627,"Delta":437479538},{"NoteNumber":52,"Velocity":50,"Duration":40313,"SoundDuration":40313,"Delta":437600479},{"NoteNumber":53,"Velocity":46,"Duration":42125,"SoundDuration":42125,"Delta":437640793},{"NoteNumber":61,"Velocity":28,"Duration":42125,"SoundDuration":42125,"Delta":437640793},{"NoteNumber":65,"Velocity":33,"Duration":42125,"SoundDuration":42125,"Delta":437640793},{"NoteNumber":44,"Velocity":50,"Duration":81726,"SoundDuration":81726,"Delta":437809295},{"NoteNumber":56,"Velocity":38,"Duration":81726,"SoundDuration":81726,"Delta":437809295},{"NoteNumber":48,"Velocity":50,"Duration":40863,"SoundDuration":40863,"Delta":437931884},{"NoteNumber":49,"Velocity":46,"Duration":43093,"SoundDuration":43093,"Delta":437972747},{"NoteNumber":61,"Velocity":28,"Duration":43093,"SoundDuration":43093,"Delta":437972747},{"NoteNumber":65,"Velocity":33,"Duration":43093,"SoundDuration":43093,"Delta":437972747},{"NoteNumber":41,"Velocity":55,"Duration":81503,"SoundDuration":81503,"Delta":438145121},{"NoteNumber":53,"Velocity":44,"Duration":81503,"SoundDuration":81503,"Delta":438145121},{"NoteNumber":43,"Velocity":50,"Duration":40751,"SoundDuration":40751,"Delta":438267377},{"NoteNumber":44,"Velocity":46,"Duration":44368,"SoundDuration":44368,"Delta":438308129},{"NoteNumber":61,"Velocity":28,"Duration":44368,"SoundDuration":44368,"Delta":438308129},{"NoteNumber":65,"Velocity":33,"Duration":44368,"SoundDuration":44368,"Delta":438308129},{"NoteNumber":37,"Velocity":50,"Duration":83083,"SoundDuration":83083,"Delta":438485602},{"NoteNumber":56,"Velocity":38,"Duration":83083,"SoundDuration":83083,"Delta":438485602},{"NoteNumber":65,"Velocity":33,"Duration":42125,"SoundDuration":42125,"Delta":438651770},{"NoteNumber":61,"Velocity":28,"Duration":42125,"SoundDuration":42125,"Delta":438651770},{"NoteNumber":72,"Velocity":44,"Duration":87108,"SoundDuration":87108,"Delta":438820271},{"NoteNumber":80,"Velocity":52,"Duration":87108,"SoundDuration":87108,"Delta":438820271},{"NoteNumber":68,"Velocity":44,"Duration":87108,"SoundDuration":87108,"Delta":438820271},{"NoteNumber":51,"Velocity":46,"Duration":87108,"SoundDuration":87108,"Delta":438820271},{"NoteNumber":70,"Velocity":46,"Duration":84668,"SoundDuration":84668,"Delta":438993376},{"NoteNumber":73,"Velocity":46,"Duration":84668,"SoundDuration":84668,"Delta":438993376},{"NoteNumber":82,"Velocity":55,"Duration":84668,"SoundDuration":84668,"Delta":438993376},{"NoteNumber":60,"Velocity":30,"Duration":84668,"SoundDuration":84668,"Delta":438993376},{"NoteNumber":56,"Velocity":30,"Duration":84668,"SoundDuration":84668,"Delta":438993376},{"NoteNumber":66,"Velocity":36,"Duration":84668,"SoundDuration":84668,"Delta":438993376},{"NoteNumber":72,"Velocity":48,"Duration":82872,"SoundDuration":82872,"Delta":439161483},{"NoteNumber":75,"Velocity":48,"Duration":82872,"SoundDuration":82872,"Delta":439161483},{"NoteNumber":84,"Velocity":57,"Duration":82872,"SoundDuration":82872,"Delta":439161483},{"NoteNumber":44,"Velocity":39,"Duration":82872,"SoundDuration":82872,"Delta":439161483},{"NoteNumber":77,"Velocity":51,"Duration":82417,"SoundDuration":82417,"Delta":439326774},{"NoteNumber":73,"Velocity":51,"Duration":82417,"SoundDuration":82417,"Delta":439326774},{"NoteNumber":85,"Velocity":60,"Duration":82417,"SoundDuration":82417,"Delta":439326774},{"NoteNumber":60,"Velocity":30,"Duration":82417,"SoundDuration":82417,"Delta":439326774},{"NoteNumber":56,"Velocity":30,"Duration":82417,"SoundDuration":82417,"Delta":439326774},{"NoteNumber":66,"Velocity":36,"Duration":82417,"SoundDuration":82417,"Delta":439326774},{"NoteNumber":75,"Velocity":52,"Duration":80645,"SoundDuration":80645,"Delta":439491609},{"NoteNumber":78,"Velocity":52,"Duration":80645,"SoundDuration":80645,"Delta":439491609},{"NoteNumber":87,"Velocity":62,"Duration":80645,"SoundDuration":80645,"Delta":439491609},{"NoteNumber":51,"Velocity":48,"Duration":80645,"SoundDuration":80645,"Delta":439491609},{"NoteNumber":74,"Velocity":44,"Duration":80645,"SoundDuration":80645,"Delta":439652899},{"NoteNumber":77,"Velocity":44,"Duration":80645,"SoundDuration":80645,"Delta":439652899},{"NoteNumber":86,"Velocity":52,"Duration":80645,"SoundDuration":80645,"Delta":439652899},{"NoteNumber":66,"Velocity":36,"Duration":80645,"SoundDuration":80645,"Delta":439652899},{"NoteNumber":56,"Velocity":30,"Duration":80645,"SoundDuration":80645,"Delta":439652899},{"NoteNumber":60,"Velocity":30,"Duration":80645,"SoundDuration":80645,"Delta":439652899},{"NoteNumber":75,"Velocity":48,"Duration":80645,"SoundDuration":80645,"Delta":439814190},{"NoteNumber":78,"Velocity":48,"Duration":80645,"SoundDuration":80645,"Delta":439814190},{"NoteNumber":87,"Velocity":57,"Duration":80645,"SoundDuration":80645,"Delta":439814190},{"NoteNumber":44,"Velocity":41,"Duration":80645,"SoundDuration":80645,"Delta":439814190},{"NoteNumber":84,"Velocity":52,"Duration":83546,"SoundDuration":83546,"Delta":439975480},{"NoteNumber":72,"Velocity":44,"Duration":83546,"SoundDuration":83546,"Delta":439975480},{"NoteNumber":75,"Velocity":44,"Duration":83546,"SoundDuration":83546,"Delta":439975480},{"NoteNumber":60,"Velocity":30,"Duration":83546,"SoundDuration":83546,"Delta":439975480},{"NoteNumber":66,"Velocity":36,"Duration":83546,"SoundDuration":83546,"Delta":439975480},{"NoteNumber":56,"Velocity":30,"Duration":83546,"SoundDuration":83546,"Delta":439975480},{"NoteNumber":85,"Velocity":52,"Duration":80214,"SoundDuration":80214,"Delta":440142574},{"NoteNumber":73,"Velocity":44,"Duration":80214,"SoundDuration":80214,"Delta":440142574},{"NoteNumber":77,"Velocity":44,"Duration":80214,"SoundDuration":80214,"Delta":440142574},{"NoteNumber":49,"Velocity":46,"Duration":80214,"SoundDuration":80214,"Delta":440142574},{"NoteNumber":75,"Velocity":46,"Duration":80214,"SoundDuration":80214,"Delta":440303002},{"NoteNumber":87,"Velocity":55,"Duration":80214,"SoundDuration":80214,"Delta":440303002},{"NoteNumber":80,"Velocity":46,"Duration":80214,"SoundDuration":80214,"Delta":440303002},{"NoteNumber":56,"Velocity":30,"Duration":80214,"SoundDuration":80214,"Delta":440303002},{"NoteNumber":65,"Velocity":36,"Duration":80214,"SoundDuration":80214,"Delta":440303002},{"NoteNumber":61,"Velocity":30,"Duration":80214,"SoundDuration":80214,"Delta":440303002},{"NoteNumber":89,"Velocity":57,"Duration":80214,"SoundDuration":80214,"Delta":440463430},{"NoteNumber":85,"Velocity":48,"Duration":80214,"SoundDuration":80214,"Delta":440463430},{"NoteNumber":77,"Velocity":48,"Duration":80214,"SoundDuration":80214,"Delta":440463430},{"NoteNumber":44,"Velocity":39,"Duration":80214,"SoundDuration":80214,"Delta":440463430},{"NoteNumber":90,"Velocity":60,"Duration":82644,"SoundDuration":82644,"Delta":440626289},{"NoteNumber":78,"Velocity":51,"Duration":82644,"SoundDuration":82644,"Delta":440626289},{"NoteNumber":87,"Velocity":51,"Duration":82644,"SoundDuration":82644,"Delta":440626289},{"NoteNumber":61,"Velocity":30,"Duration":82644,"SoundDuration":82644,"Delta":440626289},{"NoteNumber":56,"Velocity":30,"Duration":82644,"SoundDuration":82644,"Delta":440626289},{"NoteNumber":65,"Velocity":36,"Duration":82644,"SoundDuration":82644,"Delta":440626289},{"NoteNumber":92,"Velocity":62,"Duration":80214,"SoundDuration":80214,"Delta":440791578},{"NoteNumber":83,"Velocity":52,"Duration":80214,"SoundDuration":80214,"Delta":440791578},{"NoteNumber":80,"Velocity":52,"Duration":80214,"SoundDuration":80214,"Delta":440791578},{"NoteNumber":49,"Velocity":48,"Duration":80214,"SoundDuration":80214,"Delta":440791578},{"NoteNumber":79,"Velocity":44,"Duration":80213,"SoundDuration":80213,"Delta":440952006},{"NoteNumber":91,"Velocity":52,"Duration":80213,"SoundDuration":80213,"Delta":440952006},{"NoteNumber":88,"Velocity":44,"Duration":80213,"SoundDuration":80213,"Delta":440952006},{"NoteNumber":56,"Velocity":30,"Duration":80213,"SoundDuration":80213,"Delta":440952006},{"NoteNumber":65,"Velocity":36,"Duration":80213,"SoundDuration":80213,"Delta":440952006},{"NoteNumber":61,"Velocity":30,"Duration":80213,"SoundDuration":80213,"Delta":440952006},{"NoteNumber":92,"Velocity":57,"Duration":80214,"SoundDuration":80214,"Delta":441112434},{"NoteNumber":89,"Velocity":48,"Duration":80214,"SoundDuration":80214,"Delta":441112434},{"NoteNumber":80,"Velocity":48,"Duration":80214,"SoundDuration":80214,"Delta":441112434},{"NoteNumber":44,"Velocity":41,"Duration":80214,"SoundDuration":80214,"Delta":441112434},{"NoteNumber":89,"Velocity":52,"Duration":84540,"SoundDuration":84540,"Delta":441272862},{"NoteNumber":77,"Velocity":44,"Duration":84540,"SoundDuration":84540,"Delta":441272862},{"NoteNumber":85,"Velocity":44,"Duration":84540,"SoundDuration":84540,"Delta":441272862},{"NoteNumber":61,"Velocity":30,"Duration":84540,"SoundDuration":84540,"Delta":441272862},{"NoteNumber":56,"Velocity":30,"Duration":84540,"SoundDuration":84540,"Delta":441272862},{"NoteNumber":65,"Velocity":36,"Duration":84540,"SoundDuration":84540,"Delta":441272862},{"NoteNumber":82,"Velocity":55,"Duration":79999,"SoundDuration":79999,"Delta":441441943},{"NoteNumber":90,"Velocity":72,"Duration":79999,"SoundDuration":79999,"Delta":441441943},{"NoteNumber":51,"Velocity":48,"Duration":79999,"SoundDuration":79999,"Delta":441443943},{"NoteNumber":93,"Velocity":66,"Duration":40000,"SoundDuration":40000,"Delta":441561943},{"NoteNumber":94,"Velocity":60,"Duration":41208,"SoundDuration":41208,"Delta":441601943},{"NoteNumber":66,"Velocity":36,"Duration":41208,"SoundDuration":41208,"Delta":441601943},{"NoteNumber":60,"Velocity":30,"Duration":41208,"SoundDuration":41208,"Delta":441601943},{"NoteNumber":56,"Velocity":30,"Duration":41208,"SoundDuration":41208,"Delta":441601943},{"NoteNumber":87,"Velocity":66,"Duration":79999,"SoundDuration":79999,"Delta":441766778},{"NoteNumber":78,"Velocity":55,"Duration":79999,"SoundDuration":79999,"Delta":441766778},{"NoteNumber":44,"Velocity":41,"Duration":79999,"SoundDuration":79999,"Delta":441766778},{"NoteNumber":89,"Velocity":66,"Duration":40000,"SoundDuration":40000,"Delta":441886778},{"NoteNumber":90,"Velocity":60,"Duration":41208,"SoundDuration":41208,"Delta":441926778},{"NoteNumber":60,"Velocity":30,"Duration":41208,"SoundDuration":41208,"Delta":441926778},{"NoteNumber":56,"Velocity":30,"Duration":41208,"SoundDuration":41208,"Delta":441926778},{"NoteNumber":66,"Velocity":36,"Duration":41208,"SoundDuration":41208,"Delta":441926778},{"NoteNumber":84,"Velocity":72,"Duration":79999,"SoundDuration":79999,"Delta":442091613},{"NoteNumber":75,"Velocity":55,"Duration":79999,"SoundDuration":79999,"Delta":442091613},{"NoteNumber":51,"Velocity":48,"Duration":79999,"SoundDuration":79999,"Delta":442091613},{"NoteNumber":86,"Velocity":66,"Duration":40000,"SoundDuration":40000,"Delta":442211613},{"NoteNumber":87,"Velocity":60,"Duration":41208,"SoundDuration":41208,"Delta":442251613},{"NoteNumber":56,"Velocity":30,"Duration":41208,"SoundDuration":41208,"Delta":442251613},{"NoteNumber":60,"Velocity":30,"Duration":41208,"SoundDuration":41208,"Delta":442251613},{"NoteNumber":66,"Velocity":36,"Duration":41208,"SoundDuration":41208,"Delta":442251613},{"NoteNumber":80,"Velocity":66,"Duration":79364,"SoundDuration":79364,"Delta":442416448},{"NoteNumber":72,"Velocity":55,"Duration":79364,"SoundDuration":79364,"Delta":442416448},{"NoteNumber":44,"Velocity":41,"Duration":79364,"SoundDuration":79364,"Delta":442416448},{"NoteNumber":83,"Velocity":66,"Duration":39682,"SoundDuration":39682,"Delta":442535496},{"NoteNumber":84,"Velocity":60,"Duration":40983,"SoundDuration":40983,"Delta":442575178},{"NoteNumber":66,"Velocity":36,"Duration":40983,"SoundDuration":40983,"Delta":442575178},{"NoteNumber":60,"Velocity":30,"Duration":40983,"SoundDuration":40983,"Delta":442575178},{"NoteNumber":56,"Velocity":30,"Duration":40983,"SoundDuration":40983,"Delta":442575178},{"NoteNumber":85,"Velocity":72,"Duration":79787,"SoundDuration":79787,"Delta":442739113},{"NoteNumber":77,"Velocity":55,"Duration":79787,"SoundDuration":79787,"Delta":442739113},{"NoteNumber":49,"Velocity":48,"Duration":79787,"SoundDuration":79787,"Delta":442739113},{"NoteNumber":88,"Velocity":66,"Duration":39893,"SoundDuration":39893,"Delta":442858793},{"NoteNumber":89,"Velocity":60,"Duration":41208,"SoundDuration":41208,"Delta":442898687},{"NoteNumber":65,"Velocity":36,"Duration":41208,"SoundDuration":41208,"Delta":442898687},{"NoteNumber":56,"Velocity":30,"Duration":41208,"SoundDuration":41208,"Delta":442898687},{"NoteNumber":61,"Velocity":30,"Duration":41208,"SoundDuration":41208,"Delta":442898687},{"NoteNumber":73,"Velocity":55,"Duration":81726,"SoundDuration":81726,"Delta":443063522},{"NoteNumber":80,"Velocity":66,"Duration":81726,"SoundDuration":81726,"Delta":443063522},{"NoteNumber":44,"Velocity":41,"Duration":81726,"SoundDuration":81726,"Delta":443063522},{"NoteNumber":84,"Velocity":66,"Duration":40863,"SoundDuration":40863,"Delta":443186111},{"NoteNumber":85,"Velocity":60,"Duration":43859,"SoundDuration":43859,"Delta":443226974},{"NoteNumber":65,"Velocity":36,"Duration":43859,"SoundDuration":43859,"Delta":443226974},{"NoteNumber":61,"Velocity":30,"Duration":43859,"SoundDuration":43859,"Delta":443226974},{"NoteNumber":56,"Velocity":30,"Duration":43859,"SoundDuration":43859,"Delta":443226974},{"NoteNumber":77,"Velocity":72,"Duration":83102,"SoundDuration":83102,"Delta":443402413},{"NoteNumber":68,"Velocity":55,"Duration":83102,"SoundDuration":83102,"Delta":443402413},{"NoteNumber":49,"Velocity":48,"Duration":83102,"SoundDuration":83102,"Delta":443402413},{"NoteNumber":79,"Velocity":66,"Duration":41551,"SoundDuration":41551,"Delta":443527066},{"NoteNumber":80,"Velocity":60,"Duration":44368,"SoundDuration":44368,"Delta":443568618},{"NoteNumber":65,"Velocity":36,"Duration":44368,"SoundDuration":44368,"Delta":443568618},{"NoteNumber":61,"Velocity":30,"Duration":44368,"SoundDuration":44368,"Delta":443568618},{"NoteNumber":56,"Velocity":30,"Duration":44368,"SoundDuration":44368,"Delta":443568618},{"NoteNumber":65,"Velocity":55,"Duration":164783,"SoundDuration":164783,"Delta":443746091},{"NoteNumber":73,"Velocity":66,"Duration":334669,"SoundDuration":334669,"Delta":443746091},{"NoteNumber":44,"Velocity":41,"Duration":83083,"SoundDuration":83083,"Delta":443746091},{"NoteNumber":65,"Velocity":36,"Duration":168501,"SoundDuration":168501,"Delta":443912259},{"NoteNumber":56,"Velocity":30,"Duration":42125,"SoundDuration":42125,"Delta":443912259},{"NoteNumber":61,"Velocity":30,"Duration":42125,"SoundDuration":42125,"Delta":443912259},{"NoteNumber":80,"Velocity":50,"Duration":83995,"SoundDuration":83995,"Delta":444080760},{"NoteNumber":84,"Velocity":50,"Duration":83995,"SoundDuration":83995,"Delta":444080760},{"NoteNumber":92,"Velocity":59,"Duration":83995,"SoundDuration":83995,"Delta":444080760},{"NoteNumber":51,"Velocity":52,"Duration":83995,"SoundDuration":83995,"Delta":444080760},{"NoteNumber":94,"Velocity":63,"Duration":82294,"SoundDuration":82294,"Delta":444247915},{"NoteNumber":85,"Velocity":52,"Duration":82294,"SoundDuration":82294,"Delta":444247915},{"NoteNumber":82,"Velocity":52,"Duration":82294,"SoundDuration":82294,"Delta":444247915},{"NoteNumber":66,"Velocity":41,"Duration":82294,"SoundDuration":82294,"Delta":444247915},{"NoteNumber":60,"Velocity":34,"Duration":82294,"SoundDuration":82294,"Delta":444247915},{"NoteNumber":56,"Velocity":34,"Duration":82294,"SoundDuration":82294,"Delta":444247915},{"NoteNumber":87,"Velocity":55,"Duration":81080,"SoundDuration":81080,"Delta":444411660},{"NoteNumber":84,"Velocity":55,"Duration":81080,"SoundDuration":81080,"Delta":444411660},{"NoteNumber":96,"Velocity":65,"Duration":81080,"SoundDuration":81080,"Delta":444411660},{"NoteNumber":44,"Velocity":44,"Duration":81080,"SoundDuration":81080,"Delta":444411660},{"NoteNumber":89,"Velocity":58,"Duration":81081,"SoundDuration":81081,"Delta":444573822},{"NoteNumber":97,"Velocity":69,"Duration":81081,"SoundDuration":81081,"Delta":444573822},{"NoteNumber":85,"Velocity":58,"Duration":81081,"SoundDuration":81081,"Delta":444573822},{"NoteNumber":60,"Velocity":34,"Duration":81081,"SoundDuration":81081,"Delta":444573822},{"NoteNumber":56,"Velocity":34,"Duration":81081,"SoundDuration":81081,"Delta":444573822},{"NoteNumber":66,"Velocity":41,"Duration":81081,"SoundDuration":81081,"Delta":444573822},{"NoteNumber":90,"Velocity":64,"Duration":80214,"SoundDuration":80214,"Delta":444735984},{"NoteNumber":99,"Velocity":78,"Duration":80214,"SoundDuration":80214,"Delta":444735984},{"NoteNumber":87,"Velocity":64,"Duration":80214,"SoundDuration":80214,"Delta":444735984},{"NoteNumber":51,"Velocity":55,"Duration":80214,"SoundDuration":80214,"Delta":444735984},{"NoteNumber":86,"Velocity":55,"Duration":80213,"SoundDuration":80213,"Delta":444896412},{"NoteNumber":89,"Velocity":55,"Duration":80213,"SoundDuration":80213,"Delta":444896412},{"NoteNumber":98,"Velocity":64,"Duration":80213,"SoundDuration":80213,"Delta":444896412},{"NoteNumber":66,"Velocity":41,"Duration":80213,"SoundDuration":80213,"Delta":444896412},{"NoteNumber":60,"Velocity":34,"Duration":80213,"SoundDuration":80213,"Delta":444896412},{"NoteNumber":56,"Velocity":34,"Duration":80213,"SoundDuration":80213,"Delta":444896412},{"NoteNumber":87,"Velocity":60,"Duration":80214,"SoundDuration":80214,"Delta":445056840},{"NoteNumber":90,"Velocity":60,"Duration":80214,"SoundDuration":80214,"Delta":445056840},{"NoteNumber":99,"Velocity":71,"Duration":80214,"SoundDuration":80214,"Delta":445056840},{"NoteNumber":44,"Velocity":47,"Duration":80214,"SoundDuration":80214,"Delta":445056840},{"NoteNumber":96,"Velocity":64,"Duration":83546,"SoundDuration":83546,"Delta":445217268},{"NoteNumber":87,"Velocity":55,"Duration":83546,"SoundDuration":83546,"Delta":445217268},{"NoteNumber":84,"Velocity":55,"Duration":83546,"SoundDuration":83546,"Delta":445217268},{"NoteNumber":60,"Velocity":34,"Duration":83546,"SoundDuration":83546,"Delta":445217268},{"NoteNumber":66,"Velocity":41,"Duration":83546,"SoundDuration":83546,"Delta":445217268},{"NoteNumber":56,"Velocity":34,"Duration":83546,"SoundDuration":83546,"Delta":445217268},{"NoteNumber":89,"Velocity":55,"Duration":79999,"SoundDuration":79999,"Delta":445384361},{"NoteNumber":97,"Velocity":64,"Duration":79999,"SoundDuration":79999,"Delta":445384361},{"NoteNumber":85,"Velocity":55,"Duration":79999,"SoundDuration":79999,"Delta":445384361},{"NoteNumber":49,"Velocity":57,"Duration":79999,"SoundDuration":79999,"Delta":445384361},{"NoteNumber":87,"Velocity":57,"Duration":80214,"SoundDuration":80214,"Delta":445544575},{"NoteNumber":92,"Velocity":57,"Duration":80214,"SoundDuration":80214,"Delta":445544575},{"NoteNumber":99,"Velocity":69,"Duration":80214,"SoundDuration":80214,"Delta":445544575},{"NoteNumber":65,"Velocity":45,"Duration":80214,"SoundDuration":80214,"Delta":445544575},{"NoteNumber":61,"Velocity":37,"Duration":80214,"SoundDuration":80214,"Delta":445544575},{"NoteNumber":56,"Velocity":37,"Duration":80214,"SoundDuration":80214,"Delta":445544575},{"NoteNumber":89,"Velocity":60,"Duration":80214,"SoundDuration":80214,"Delta":445705003},{"NoteNumber":101,"Velocity":71,"Duration":80214,"SoundDuration":80214,"Delta":445705003},{"NoteNumber":97,"Velocity":60,"Duration":80214,"SoundDuration":80214,"Delta":445705003},{"NoteNumber":44,"Velocity":48,"Duration":80214,"SoundDuration":80214,"Delta":445705003},{"NoteNumber":102,"Velocity":75,"Duration":82644,"SoundDuration":82644,"Delta":445867862},{"NoteNumber":90,"Velocity":63,"Duration":82644,"SoundDuration":82644,"Delta":445867862},{"NoteNumber":99,"Velocity":63,"Duration":82644,"SoundDuration":82644,"Delta":445867862},{"NoteNumber":56,"Velocity":37,"Duration":82644,"SoundDuration":82644,"Delta":445867862},{"NoteNumber":65,"Velocity":45,"Duration":82644,"SoundDuration":82644,"Delta":445867862},{"NoteNumber":61,"Velocity":37,"Duration":82644,"SoundDuration":82644,"Delta":445867862},{"NoteNumber":104,"Velocity":78,"Duration":79787,"SoundDuration":79787,"Delta":446033152},{"NoteNumber":92,"Velocity":64,"Duration":79787,"SoundDuration":79787,"Delta":446033152},{"NoteNumber":95,"Velocity":64,"Duration":79787,"SoundDuration":79787,"Delta":446033152},{"NoteNumber":49,"Velocity":60,"Duration":79787,"SoundDuration":79787,"Delta":446033152},{"NoteNumber":103,"Velocity":64,"Duration":79787,"SoundDuration":79787,"Delta":446192726},{"NoteNumber":91,"Velocity":55,"Duration":79787,"SoundDuration":79787,"Delta":446192726},{"NoteNumber":100,"Velocity":55,"Duration":79787,"SoundDuration":79787,"Delta":446192726},{"NoteNumber":61,"Velocity":37,"Duration":79787,"SoundDuration":79787,"Delta":446192726},{"NoteNumber":56,"Velocity":37,"Duration":79787,"SoundDuration":79787,"Delta":446192726},{"NoteNumber":65,"Velocity":45,"Duration":79787,"SoundDuration":79787,"Delta":446192726},{"NoteNumber":101,"Velocity":60,"Duration":79787,"SoundDuration":79787,"Delta":446352301},{"NoteNumber":92,"Velocity":60,"Duration":79787,"SoundDuration":79787,"Delta":446352301},{"NoteNumber":104,"Velocity":71,"Duration":79787,"SoundDuration":79787,"Delta":446352301},{"NoteNumber":44,"Velocity":51,"Duration":79787,"SoundDuration":79787,"Delta":446352301},{"NoteNumber":89,"Velocity":55,"Duration":84540,"SoundDuration":84540,"Delta":446511875},{"NoteNumber":101,"Velocity":64,"Duration":84540,"SoundDuration":84540,"Delta":446511875},{"NoteNumber":97,"Velocity":55,"Duration":84540,"SoundDuration":84540,"Delta":446511875},{"NoteNumber":56,"Velocity":37,"Duration":84540,"SoundDuration":84540,"Delta":446511875},{"NoteNumber":65,"Velocity":45,"Duration":84540,"SoundDuration":84540,"Delta":446511875},{"NoteNumber":61,"Velocity":37,"Duration":84540,"SoundDuration":84540,"Delta":446511875},{"NoteNumber":93,"Velocity":82,"Duration":42270,"SoundDuration":42270,"Delta":446638686},{"NoteNumber":102,"Velocity":90,"Duration":79364,"SoundDuration":79364,"Delta":446680956},{"NoteNumber":94,"Velocity":69,"Duration":79364,"SoundDuration":79364,"Delta":446680956},{"NoteNumber":51,"Velocity":60,"Duration":79364,"SoundDuration":79364,"Delta":446682940},{"NoteNumber":90,"Velocity":75,"Duration":41208,"SoundDuration":41208,"Delta":446839686},{"NoteNumber":60,"Velocity":37,"Duration":41208,"SoundDuration":41208,"Delta":446839686},{"NoteNumber":56,"Velocity":37,"Duration":41208,"SoundDuration":41208,"Delta":446839686},{"NoteNumber":66,"Velocity":45,"Duration":41208,"SoundDuration":41208,"Delta":446839686},{"NoteNumber":89,"Velocity":82,"Duration":41208,"SoundDuration":41208,"Delta":446963312},{"NoteNumber":99,"Velocity":82,"Duration":79155,"SoundDuration":79155,"Delta":447004521},{"NoteNumber":90,"Velocity":69,"Duration":79155,"SoundDuration":79155,"Delta":447004521},{"NoteNumber":44,"Velocity":51,"Duration":79155,"SoundDuration":79155,"Delta":447004521},{"NoteNumber":90,"Velocity":75,"Duration":41208,"SoundDuration":41208,"Delta":447162833},{"NoteNumber":60,"Velocity":37,"Duration":41208,"SoundDuration":41208,"Delta":447162833},{"NoteNumber":66,"Velocity":45,"Duration":41208,"SoundDuration":41208,"Delta":447162833},{"NoteNumber":56,"Velocity":37,"Duration":41208,"SoundDuration":41208,"Delta":447162833},{"NoteNumber":86,"Velocity":82,"Duration":41208,"SoundDuration":41208,"Delta":447286459},{"NoteNumber":96,"Velocity":90,"Duration":79575,"SoundDuration":79575,"Delta":447327668},{"NoteNumber":87,"Velocity":69,"Duration":79575,"SoundDuration":79575,"Delta":447327668},{"NoteNumber":51,"Velocity":60,"Duration":79575,"SoundDuration":79575,"Delta":447327668},{"NoteNumber":84,"Velocity":75,"Duration":41208,"SoundDuration":41208,"Delta":447486819},{"NoteNumber":66,"Velocity":45,"Duration":41208,"SoundDuration":41208,"Delta":447486819},{"NoteNumber":60,"Velocity":37,"Duration":41208,"SoundDuration":41208,"Delta":447486819},{"NoteNumber":56,"Velocity":37,"Duration":41208,"SoundDuration":41208,"Delta":447486819},{"NoteNumber":83,"Velocity":82,"Duration":41208,"SoundDuration":41208,"Delta":447610445},{"NoteNumber":92,"Velocity":82,"Duration":78740,"SoundDuration":78740,"Delta":447651654},{"NoteNumber":84,"Velocity":69,"Duration":78740,"SoundDuration":78740,"Delta":447651654},{"NoteNumber":44,"Velocity":51,"Duration":78740,"SoundDuration":78740,"Delta":447651654},{"NoteNumber":80,"Velocity":75,"Duration":40983,"SoundDuration":40983,"Delta":447809134},{"NoteNumber":66,"Velocity":45,"Duration":40983,"SoundDuration":40983,"Delta":447809134},{"NoteNumber":56,"Velocity":37,"Duration":40983,"SoundDuration":40983,"Delta":447809134},{"NoteNumber":60,"Velocity":37,"Duration":40983,"SoundDuration":40983,"Delta":447809134},{"NoteNumber":73,"Velocity":59,"Duration":159682,"SoundDuration":159682,"Delta":447972587},{"NoteNumber":85,"Velocity":70,"Duration":159682,"SoundDuration":159682,"Delta":447972587},{"NoteNumber":77,"Velocity":59,"Duration":159682,"SoundDuration":159682,"Delta":447972587},{"NoteNumber":61,"Velocity":50,"Duration":159682,"SoundDuration":159682,"Delta":447972587},{"NoteNumber":49,"Velocity":42,"Duration":159682,"SoundDuration":159682,"Delta":447972587},{"NoteNumber":86,"Velocity":72,"Duration":158795,"SoundDuration":158795,"Delta":448132270},{"NoteNumber":74,"Velocity":61,"Duration":158795,"SoundDuration":158795,"Delta":448132270},{"NoteNumber":78,"Velocity":61,"Duration":158795,"SoundDuration":158795,"Delta":448132270},{"NoteNumber":60,"Velocity":53,"Duration":158795,"SoundDuration":158795,"Delta":448132270},{"NoteNumber":48,"Velocity":45,"Duration":158795,"SoundDuration":158795,"Delta":448132270},{"NoteNumber":79,"Velocity":62,"Duration":157914,"SoundDuration":157914,"Delta":448291066},{"NoteNumber":87,"Velocity":74,"Duration":157914,"SoundDuration":157914,"Delta":448291066},{"NoteNumber":75,"Velocity":62,"Duration":157914,"SoundDuration":157914,"Delta":448291066},{"NoteNumber":47,"Velocity":47,"Duration":157914,"SoundDuration":157914,"Delta":448291066},{"NoteNumber":59,"Velocity":56,"Duration":157914,"SoundDuration":157914,"Delta":448291066},{"NoteNumber":88,"Velocity":78,"Duration":157046,"SoundDuration":157046,"Delta":448448980},{"NoteNumber":76,"Velocity":66,"Duration":157046,"SoundDuration":157046,"Delta":448448980},{"NoteNumber":80,"Velocity":66,"Duration":157046,"SoundDuration":157046,"Delta":448448980},{"NoteNumber":58,"Velocity":59,"Duration":157046,"SoundDuration":157046,"Delta":448448980},{"NoteNumber":46,"Velocity":49,"Duration":157046,"SoundDuration":157046,"Delta":448448980},{"NoteNumber":77,"Velocity":67,"Duration":156401,"SoundDuration":156401,"Delta":448606026},{"NoteNumber":89,"Velocity":79,"Duration":156401,"SoundDuration":156401,"Delta":448606026},{"NoteNumber":81,"Velocity":79,"Duration":156401,"SoundDuration":156401,"Delta":448606026},{"NoteNumber":45,"Velocity":52,"Duration":156401,"SoundDuration":156401,"Delta":448606026},{"NoteNumber":57,"Velocity":62,"Duration":156401,"SoundDuration":156401,"Delta":448606026},{"NoteNumber":76,"Velocity":64,"Duration":157048,"SoundDuration":157048,"Delta":448762428},{"NoteNumber":88,"Velocity":77,"Duration":157048,"SoundDuration":157048,"Delta":448762428},{"NoteNumber":80,"Velocity":64,"Duration":157048,"SoundDuration":157048,"Delta":448762428},{"NoteNumber":58,"Velocity":58,"Duration":157048,"SoundDuration":157048,"Delta":448762428},{"NoteNumber":46,"Velocity":49,"Duration":157048,"SoundDuration":157048,"Delta":448762428},{"NoteNumber":79,"Velocity":61,"Duration":157744,"SoundDuration":157744,"Delta":448919476},{"NoteNumber":75,"Velocity":61,"Duration":157744,"SoundDuration":157744,"Delta":448919476},{"NoteNumber":87,"Velocity":73,"Duration":157744,"SoundDuration":157744,"Delta":448919476},{"NoteNumber":59,"Velocity":53,"Duration":157744,"SoundDuration":157744,"Delta":448919476},{"NoteNumber":47,"Velocity":45,"Duration":157744,"SoundDuration":157744,"Delta":448919476},{"NoteNumber":74,"Velocity":59,"Duration":158529,"SoundDuration":158529,"Delta":449077220},{"NoteNumber":78,"Velocity":59,"Duration":158529,"SoundDuration":158529,"Delta":449077220},{"NoteNumber":86,"Velocity":70,"Duration":158529,"SoundDuration":158529,"Delta":449077220},{"NoteNumber":48,"Velocity":41,"Duration":158529,"SoundDuration":158529,"Delta":449077220},{"NoteNumber":60,"Velocity":49,"Duration":158529,"SoundDuration":158529,"Delta":449077220},{"NoteNumber":79,"Velocity":59,"Duration":157740,"SoundDuration":157740,"Delta":449235750},{"NoteNumber":87,"Velocity":70,"Duration":157740,"SoundDuration":157740,"Delta":449235750},{"NoteNumber":75,"Velocity":59,"Duration":157740,"SoundDuration":157740,"Delta":449235750},{"NoteNumber":59,"Velocity":50,"Duration":157740,"SoundDuration":157740,"Delta":449235750},{"NoteNumber":47,"Velocity":42,"Duration":157740,"SoundDuration":157740,"Delta":449235750},{"NoteNumber":88,"Velocity":72,"Duration":157001,"SoundDuration":157001,"Delta":449393491},{"NoteNumber":76,"Velocity":61,"Duration":157001,"SoundDuration":157001,"Delta":449393491},{"NoteNumber":80,"Velocity":61,"Duration":157001,"SoundDuration":157001,"Delta":449393491},{"NoteNumber":46,"Velocity":45,"Duration":157001,"SoundDuration":157001,"Delta":449393491},{"NoteNumber":58,"Velocity":53,"Duration":157001,"SoundDuration":157001,"Delta":449393491},{"NoteNumber":81,"Velocity":62,"Duration":156226,"SoundDuration":156226,"Delta":449550493},{"NoteNumber":77,"Velocity":62,"Duration":156226,"SoundDuration":156226,"Delta":449550493},{"NoteNumber":89,"Velocity":74,"Duration":156226,"SoundDuration":156226,"Delta":449550493},{"NoteNumber":57,"Velocity":56,"Duration":156226,"SoundDuration":156226,"Delta":449550493},{"NoteNumber":45,"Velocity":47,"Duration":156226,"SoundDuration":156226,"Delta":449550493},{"NoteNumber":78,"Velocity":66,"Duration":155461,"SoundDuration":155461,"Delta":449706719},{"NoteNumber":82,"Velocity":66,"Duration":155461,"SoundDuration":155461,"Delta":449706719},{"NoteNumber":90,"Velocity":78,"Duration":155461,"SoundDuration":155461,"Delta":449706719},{"NoteNumber":56,"Velocity":59,"Duration":155461,"SoundDuration":155461,"Delta":449706719},{"NoteNumber":44,"Velocity":49,"Duration":155461,"SoundDuration":155461,"Delta":449706719},{"NoteNumber":79,"Velocity":67,"Duration":155506,"SoundDuration":155506,"Delta":449862180},{"NoteNumber":91,"Velocity":79,"Duration":155506,"SoundDuration":155506,"Delta":449862180},{"NoteNumber":83,"Velocity":79,"Duration":155506,"SoundDuration":155506,"Delta":449862180},{"NoteNumber":43,"Velocity":52,"Duration":155506,"SoundDuration":155506,"Delta":449862180},{"NoteNumber":55,"Velocity":62,"Duration":155506,"SoundDuration":155506,"Delta":449862180},{"NoteNumber":82,"Velocity":64,"Duration":156575,"SoundDuration":156575,"Delta":450017687},{"NoteNumber":78,"Velocity":64,"Duration":156575,"SoundDuration":156575,"Delta":450017687},{"NoteNumber":90,"Velocity":77,"Duration":156575,"SoundDuration":156575,"Delta":450017687},{"NoteNumber":56,"Velocity":58,"Duration":156575,"SoundDuration":156575,"Delta":450017687},{"NoteNumber":44,"Velocity":49,"Duration":156575,"SoundDuration":156575,"Delta":450017687},{"NoteNumber":77,"Velocity":62,"Duration":157570,"SoundDuration":157570,"Delta":450174262},{"NoteNumber":89,"Velocity":74,"Duration":157570,"SoundDuration":157570,"Delta":450174262},{"NoteNumber":81,"Velocity":62,"Duration":157570,"SoundDuration":157570,"Delta":450174262},{"NoteNumber":57,"Velocity":54,"Duration":157570,"SoundDuration":157570,"Delta":450174262},{"NoteNumber":45,"Velocity":45,"Duration":157570,"SoundDuration":157570,"Delta":450174262},{"NoteNumber":76,"Velocity":60,"Duration":158311,"SoundDuration":158311,"Delta":450331833},{"NoteNumber":88,"Velocity":71,"Duration":158311,"SoundDuration":158311,"Delta":450331833},{"NoteNumber":80,"Velocity":60,"Duration":158311,"SoundDuration":158311,"Delta":450331833},{"NoteNumber":46,"Velocity":41,"Duration":158311,"SoundDuration":158311,"Delta":450331833},{"NoteNumber":58,"Velocity":49,"Duration":158311,"SoundDuration":158311,"Delta":450331833},{"NoteNumber":81,"Velocity":60,"Duration":157239,"SoundDuration":157239,"Delta":450490144},{"NoteNumber":89,"Velocity":71,"Duration":157239,"SoundDuration":157239,"Delta":450490144},{"NoteNumber":77,"Velocity":60,"Duration":157239,"SoundDuration":157239,"Delta":450490144},{"NoteNumber":57,"Velocity":51,"Duration":157239,"SoundDuration":157239,"Delta":450490144},{"NoteNumber":45,"Velocity":42,"Duration":157239,"SoundDuration":157239,"Delta":450490144},{"NoteNumber":78,"Velocity":62,"Duration":156549,"SoundDuration":156549,"Delta":450647384},{"NoteNumber":90,"Velocity":73,"Duration":156549,"SoundDuration":156549,"Delta":450647384},{"NoteNumber":82,"Velocity":62,"Duration":156549,"SoundDuration":156549,"Delta":450647384},{"NoteNumber":56,"Velocity":54,"Duration":156549,"SoundDuration":156549,"Delta":450647384},{"NoteNumber":44,"Velocity":45,"Duration":156549,"SoundDuration":156549,"Delta":450647384},{"NoteNumber":79,"Velocity":63,"Duration":155949,"SoundDuration":155949,"Delta":450803933},{"NoteNumber":91,"Velocity":75,"Duration":155949,"SoundDuration":155949,"Delta":450803933},{"NoteNumber":83,"Velocity":63,"Duration":155949,"SoundDuration":155949,"Delta":450803933},{"NoteNumber":43,"Velocity":47,"Duration":155949,"SoundDuration":155949,"Delta":450803933},{"NoteNumber":55,"Velocity":57,"Duration":155949,"SoundDuration":155949,"Delta":450803933},{"NoteNumber":80,"Velocity":67,"Duration":155269,"SoundDuration":155269,"Delta":450959882},{"NoteNumber":84,"Velocity":67,"Duration":155269,"SoundDuration":155269,"Delta":450959882},{"NoteNumber":92,"Velocity":79,"Duration":155269,"SoundDuration":155269,"Delta":450959882},{"NoteNumber":54,"Velocity":60,"Duration":155269,"SoundDuration":155269,"Delta":450959882},{"NoteNumber":42,"Velocity":49,"Duration":155269,"SoundDuration":155269,"Delta":450959882},{"NoteNumber":93,"Velocity":80,"Duration":154222,"SoundDuration":154222,"Delta":451115152},{"NoteNumber":81,"Velocity":68,"Duration":154222,"SoundDuration":154222,"Delta":451115152},{"NoteNumber":85,"Velocity":80,"Duration":154222,"SoundDuration":154222,"Delta":451115152},{"NoteNumber":41,"Velocity":53,"Duration":154222,"SoundDuration":154222,"Delta":451115152},{"NoteNumber":53,"Velocity":63,"Duration":154222,"SoundDuration":154222,"Delta":451115152},{"NoteNumber":92,"Velocity":79,"Duration":155233,"SoundDuration":155233,"Delta":451269375},{"NoteNumber":84,"Velocity":65,"Duration":155233,"SoundDuration":155233,"Delta":451269375},{"NoteNumber":80,"Velocity":65,"Duration":155233,"SoundDuration":155233,"Delta":451269375},{"NoteNumber":42,"Velocity":50,"Duration":155233,"SoundDuration":155233,"Delta":451269375},{"NoteNumber":54,"Velocity":59,"Duration":155233,"SoundDuration":155233,"Delta":451269375},{"NoteNumber":91,"Velocity":75,"Duration":156425,"SoundDuration":156425,"Delta":451424608},{"NoteNumber":83,"Velocity":62,"Duration":156425,"SoundDuration":156425,"Delta":451424608},{"NoteNumber":79,"Velocity":62,"Duration":156425,"SoundDuration":156425,"Delta":451424608},{"NoteNumber":43,"Velocity":46,"Duration":156425,"SoundDuration":156425,"Delta":451424608},{"NoteNumber":55,"Velocity":54,"Duration":156425,"SoundDuration":156425,"Delta":451424608},{"NoteNumber":82,"Velocity":60,"Duration":157593,"SoundDuration":157593,"Delta":451581034},{"NoteNumber":90,"Velocity":72,"Duration":157593,"SoundDuration":157593,"Delta":451581034},{"NoteNumber":78,"Velocity":60,"Duration":157593,"SoundDuration":157593,"Delta":451581034},{"NoteNumber":44,"Velocity":42,"Duration":157593,"SoundDuration":157593,"Delta":451581034},{"NoteNumber":56,"Velocity":50,"Duration":157593,"SoundDuration":157593,"Delta":451581034},{"NoteNumber":83,"Velocity":61,"Duration":158156,"SoundDuration":158156,"Delta":451738627},{"NoteNumber":91,"Velocity":74,"Duration":158156,"SoundDuration":158156,"Delta":451738627},{"NoteNumber":79,"Velocity":61,"Duration":158156,"SoundDuration":158156,"Delta":451738627},{"NoteNumber":55,"Velocity":51,"Duration":158156,"SoundDuration":158156,"Delta":451738627},{"NoteNumber":43,"Velocity":43,"Duration":158156,"SoundDuration":158156,"Delta":451738627},{"NoteNumber":84,"Velocity":64,"Duration":157456,"SoundDuration":157456,"Delta":451896784},{"NoteNumber":92,"Velocity":76,"Duration":157456,"SoundDuration":157456,"Delta":451896784},{"NoteNumber":80,"Velocity":64,"Duration":157456,"SoundDuration":157456,"Delta":451896784},{"NoteNumber":54,"Velocity":53,"Duration":157456,"SoundDuration":157456,"Delta":451896784},{"NoteNumber":42,"Velocity":45,"Duration":157456,"SoundDuration":157456,"Delta":451896784},{"NoteNumber":93,"Velocity":78,"Duration":156719,"SoundDuration":156719,"Delta":452054241},{"NoteNumber":81,"Velocity":65,"Duration":156719,"SoundDuration":156719,"Delta":452054241},{"NoteNumber":85,"Velocity":65,"Duration":156719,"SoundDuration":156719,"Delta":452054241},{"NoteNumber":41,"Velocity":47,"Duration":156719,"SoundDuration":156719,"Delta":452054241},{"NoteNumber":53,"Velocity":55,"Duration":156719,"SoundDuration":156719,"Delta":452054241},{"NoteNumber":86,"Velocity":68,"Duration":156033,"SoundDuration":156033,"Delta":452210961},{"NoteNumber":82,"Velocity":68,"Duration":156033,"SoundDuration":156033,"Delta":452210961},{"NoteNumber":94,"Velocity":82,"Duration":156033,"SoundDuration":156033,"Delta":452210961},{"NoteNumber":40,"Velocity":48,"Duration":156033,"SoundDuration":156033,"Delta":452210961},{"NoteNumber":52,"Velocity":58,"Duration":156033,"SoundDuration":156033,"Delta":452210961},{"NoteNumber":87,"Velocity":71,"Duration":155249,"SoundDuration":155249,"Delta":452366994},{"NoteNumber":83,"Velocity":71,"Duration":155249,"SoundDuration":155249,"Delta":452366994},{"NoteNumber":95,"Velocity":85,"Duration":155249,"SoundDuration":155249,"Delta":452366994},{"NoteNumber":51,"Velocity":61,"Duration":155249,"SoundDuration":155249,"Delta":452366994},{"NoteNumber":39,"Velocity":50,"Duration":155249,"SoundDuration":155249,"Delta":452366994},{"NoteNumber":84,"Velocity":74,"Duration":154574,"SoundDuration":154574,"Delta":452522244},{"NoteNumber":96,"Velocity":88,"Duration":154574,"SoundDuration":154574,"Delta":452522244},{"NoteNumber":88,"Velocity":74,"Duration":154574,"SoundDuration":154574,"Delta":452522244},{"NoteNumber":50,"Velocity":64,"Duration":154574,"SoundDuration":154574,"Delta":452522244},{"NoteNumber":38,"Velocity":54,"Duration":154574,"SoundDuration":154574,"Delta":452522244},{"NoteNumber":89,"Velocity":75,"Duration":153864,"SoundDuration":153864,"Delta":452676819},{"NoteNumber":97,"Velocity":90,"Duration":153864,"SoundDuration":153864,"Delta":452676819},{"NoteNumber":85,"Velocity":75,"Duration":153864,"SoundDuration":153864,"Delta":452676819},{"NoteNumber":49,"Velocity":66,"Duration":153864,"SoundDuration":153864,"Delta":452676819},{"NoteNumber":37,"Velocity":55,"Duration":153864,"SoundDuration":153864,"Delta":452676819},{"NoteNumber":98,"Velocity":93,"Duration":153162,"SoundDuration":153162,"Delta":452830683},{"NoteNumber":86,"Velocity":79,"Duration":153162,"SoundDuration":153162,"Delta":452830683},{"NoteNumber":90,"Velocity":79,"Duration":153162,"SoundDuration":153162,"Delta":452830683},{"NoteNumber":36,"Velocity":58,"Duration":153162,"SoundDuration":153162,"Delta":452830683},{"NoteNumber":48,"Velocity":68,"Duration":153162,"SoundDuration":153162,"Delta":452830683},{"NoteNumber":99,"Velocity":95,"Duration":152487,"SoundDuration":152487,"Delta":452983846},{"NoteNumber":87,"Velocity":81,"Duration":152487,"SoundDuration":152487,"Delta":452983846},{"NoteNumber":91,"Velocity":81,"Duration":152487,"SoundDuration":152487,"Delta":452983846},{"NoteNumber":35,"Velocity":61,"Duration":152487,"SoundDuration":152487,"Delta":452983846},{"NoteNumber":47,"Velocity":71,"Duration":152487,"SoundDuration":152487,"Delta":452983846},{"NoteNumber":100,"Velocity":100,"Duration":151754,"SoundDuration":151754,"Delta":453136334},{"NoteNumber":92,"Velocity":83,"Duration":151754,"SoundDuration":151754,"Delta":453136334},{"NoteNumber":88,"Velocity":83,"Duration":151754,"SoundDuration":151754,"Delta":453136334},{"NoteNumber":46,"Velocity":75,"Duration":151754,"SoundDuration":151754,"Delta":453136334},{"NoteNumber":34,"Velocity":63,"Duration":151754,"SoundDuration":151754,"Delta":453136334},{"NoteNumber":89,"Velocity":87,"Duration":151111,"SoundDuration":151111,"Delta":453288088},{"NoteNumber":101,"Velocity":103,"Duration":151111,"SoundDuration":151111,"Delta":453288088},{"NoteNumber":93,"Velocity":87,"Duration":151111,"SoundDuration":151111,"Delta":453288088},{"NoteNumber":33,"Velocity":66,"Duration":151111,"SoundDuration":151111,"Delta":453288088},{"NoteNumber":45,"Velocity":78,"Duration":151111,"SoundDuration":151111,"Delta":453288088},{"NoteNumber":100,"Velocity":101,"Duration":150797,"SoundDuration":150797,"Delta":453439200},{"NoteNumber":92,"Velocity":85,"Duration":150797,"SoundDuration":150797,"Delta":453439200},{"NoteNumber":88,"Velocity":85,"Duration":150797,"SoundDuration":150797,"Delta":453439200},{"NoteNumber":46,"Velocity":76,"Duration":150797,"SoundDuration":150797,"Delta":453439200},{"NoteNumber":34,"Velocity":64,"Duration":150797,"SoundDuration":150797,"Delta":453439200},{"NoteNumber":91,"Velocity":98,"Duration":151356,"SoundDuration":151356,"Delta":453589997},{"NoteNumber":87,"Velocity":84,"Duration":151356,"SoundDuration":151356,"Delta":453589997},{"NoteNumber":99,"Velocity":98,"Duration":151356,"SoundDuration":151356,"Delta":453589997},{"NoteNumber":35,"Velocity":64,"Duration":151356,"SoundDuration":151356,"Delta":453589997},{"NoteNumber":47,"Velocity":75,"Duration":151356,"SoundDuration":151356,"Delta":453589997},{"NoteNumber":90,"Velocity":82,"Duration":151797,"SoundDuration":151797,"Delta":453741353},{"NoteNumber":86,"Velocity":82,"Duration":151797,"SoundDuration":151797,"Delta":453741353},{"NoteNumber":98,"Velocity":97,"Duration":151797,"SoundDuration":151797,"Delta":453741353},{"NoteNumber":36,"Velocity":63,"Duration":151797,"SoundDuration":151797,"Delta":453741353},{"NoteNumber":48,"Velocity":73,"Duration":151797,"SoundDuration":151797,"Delta":453741353},{"NoteNumber":85,"Velocity":81,"Duration":152265,"SoundDuration":152265,"Delta":453893151},{"NoteNumber":97,"Velocity":96,"Duration":152265,"SoundDuration":152265,"Delta":453893151},{"NoteNumber":89,"Velocity":81,"Duration":152265,"SoundDuration":152265,"Delta":453893151},{"NoteNumber":37,"Velocity":59,"Duration":152265,"SoundDuration":152265,"Delta":453893151},{"NoteNumber":49,"Velocity":71,"Duration":152265,"SoundDuration":152265,"Delta":453893151},{"NoteNumber":84,"Velocity":80,"Duration":152754,"SoundDuration":152754,"Delta":454045416},{"NoteNumber":88,"Velocity":80,"Duration":152754,"SoundDuration":152754,"Delta":454045416},{"NoteNumber":96,"Velocity":95,"Duration":152754,"SoundDuration":152754,"Delta":454045416},{"NoteNumber":38,"Velocity":58,"Duration":152754,"SoundDuration":152754,"Delta":454045416},{"NoteNumber":50,"Velocity":70,"Duration":152754,"SoundDuration":152754,"Delta":454045416},{"NoteNumber":83,"Velocity":78,"Duration":153206,"SoundDuration":153206,"Delta":454198171},{"NoteNumber":95,"Velocity":94,"Duration":153206,"SoundDuration":153206,"Delta":454198171},{"NoteNumber":87,"Velocity":78,"Duration":153206,"SoundDuration":153206,"Delta":454198171},{"NoteNumber":39,"Velocity":55,"Duration":153206,"SoundDuration":153206,"Delta":454198171},{"NoteNumber":51,"Velocity":67,"Duration":153206,"SoundDuration":153206,"Delta":454198171},{"NoteNumber":94,"Velocity":93,"Duration":153660,"SoundDuration":153660,"Delta":454351377},{"NoteNumber":82,"Velocity":77,"Duration":153660,"SoundDuration":153660,"Delta":454351377},{"NoteNumber":86,"Velocity":77,"Duration":153660,"SoundDuration":153660,"Delta":454351377},{"NoteNumber":52,"Velocity":66,"Duration":153660,"SoundDuration":153660,"Delta":454351377},{"NoteNumber":40,"Velocity":55,"Duration":153660,"SoundDuration":153660,"Delta":454351377},{"NoteNumber":93,"Velocity":92,"Duration":154117,"SoundDuration":154117,"Delta":454505038},{"NoteNumber":81,"Velocity":77,"Duration":154117,"SoundDuration":154117,"Delta":454505038},{"NoteNumber":85,"Velocity":77,"Duration":154117,"SoundDuration":154117,"Delta":454505038},{"NoteNumber":41,"Velocity":53,"Duration":154117,"SoundDuration":154117,"Delta":454505038},{"NoteNumber":53,"Velocity":64,"Duration":154117,"SoundDuration":154117,"Delta":454505038},{"NoteNumber":86,"Velocity":76,"Duration":154579,"SoundDuration":154579,"Delta":454659156},{"NoteNumber":94,"Velocity":90,"Duration":154579,"SoundDuration":154579,"Delta":454659156},{"NoteNumber":82,"Velocity":76,"Duration":154579,"SoundDuration":154579,"Delta":454659156},{"NoteNumber":40,"Velocity":51,"Duration":154579,"SoundDuration":154579,"Delta":454659156},{"NoteNumber":52,"Velocity":60,"Duration":154579,"SoundDuration":154579,"Delta":454659156},{"NoteNumber":95,"Velocity":89,"Duration":156479,"SoundDuration":156479,"Delta":454813735},{"NoteNumber":83,"Velocity":75,"Duration":156479,"SoundDuration":156479,"Delta":454813735},{"NoteNumber":87,"Velocity":75,"Duration":156479,"SoundDuration":156479,"Delta":454813735},{"NoteNumber":51,"Velocity":64,"Duration":156479,"SoundDuration":156479,"Delta":454813735},{"NoteNumber":39,"Velocity":53,"Duration":156479,"SoundDuration":156479,"Delta":454813735},{"NoteNumber":84,"Velocity":77,"Duration":155015,"SoundDuration":155015,"Delta":454970215},{"NoteNumber":88,"Velocity":77,"Duration":155015,"SoundDuration":155015,"Delta":454970215},{"NoteNumber":96,"Velocity":92,"Duration":155015,"SoundDuration":155015,"Delta":454970215},{"NoteNumber":50,"Velocity":66,"Duration":155015,"SoundDuration":155015,"Delta":454970215},{"NoteNumber":38,"Velocity":55,"Duration":155015,"SoundDuration":155015,"Delta":454970215},{"NoteNumber":97,"Velocity":94,"Duration":154491,"SoundDuration":154491,"Delta":455125231},{"NoteNumber":85,"Velocity":78,"Duration":154491,"SoundDuration":154491,"Delta":455125231},{"NoteNumber":89,"Velocity":78,"Duration":154491,"SoundDuration":154491,"Delta":455125231},{"NoteNumber":37,"Velocity":57,"Duration":154491,"SoundDuration":154491,"Delta":455125231},{"NoteNumber":49,"Velocity":69,"Duration":154491,"SoundDuration":154491,"Delta":455125231},{"NoteNumber":98,"Velocity":96,"Duration":154032,"SoundDuration":154032,"Delta":455279722},{"NoteNumber":90,"Velocity":81,"Duration":154032,"SoundDuration":154032,"Delta":455279722},{"NoteNumber":86,"Velocity":81,"Duration":154032,"SoundDuration":154032,"Delta":455279722},{"NoteNumber":36,"Velocity":59,"Duration":154032,"SoundDuration":154032,"Delta":455279722},{"NoteNumber":48,"Velocity":71,"Duration":154032,"SoundDuration":154032,"Delta":455279722},{"NoteNumber":87,"Velocity":84,"Duration":153534,"SoundDuration":153534,"Delta":455433754},{"NoteNumber":91,"Velocity":84,"Duration":153534,"SoundDuration":153534,"Delta":455433754},{"NoteNumber":99,"Velocity":98,"Duration":153534,"SoundDuration":153534,"Delta":455433754},{"NoteNumber":47,"Velocity":73,"Duration":153534,"SoundDuration":153534,"Delta":455433754},{"NoteNumber":35,"Velocity":63,"Duration":153534,"SoundDuration":153534,"Delta":455433754},{"NoteNumber":100,"Velocity":101,"Duration":152997,"SoundDuration":152997,"Delta":455587289},{"NoteNumber":92,"Velocity":85,"Duration":152997,"SoundDuration":152997,"Delta":455587289},{"NoteNumber":88,"Velocity":85,"Duration":152997,"SoundDuration":152997,"Delta":455587289},{"NoteNumber":34,"Velocity":64,"Duration":152997,"SoundDuration":152997,"Delta":455587289},{"NoteNumber":46,"Velocity":76,"Duration":152997,"SoundDuration":152997,"Delta":455587289},{"NoteNumber":89,"Velocity":88,"Duration":152528,"SoundDuration":152528,"Delta":455740287},{"NoteNumber":93,"Velocity":88,"Duration":152528,"SoundDuration":152528,"Delta":455740287},{"NoteNumber":101,"Velocity":105,"Duration":152528,"SoundDuration":152528,"Delta":455740287},{"NoteNumber":33,"Velocity":66,"Duration":152528,"SoundDuration":152528,"Delta":455740287},{"NoteNumber":45,"Velocity":78,"Duration":152528,"SoundDuration":152528,"Delta":455740287},{"NoteNumber":100,"Velocity":101,"Duration":152081,"SoundDuration":152081,"Delta":455892815},{"NoteNumber":88,"Velocity":85,"Duration":152081,"SoundDuration":152081,"Delta":455892815},{"NoteNumber":92,"Velocity":85,"Duration":152081,"SoundDuration":152081,"Delta":455892815},{"NoteNumber":46,"Velocity":76,"Duration":152081,"SoundDuration":152081,"Delta":455892815},{"NoteNumber":34,"Velocity":64,"Duration":152081,"SoundDuration":152081,"Delta":455892815},{"NoteNumber":99,"Velocity":98,"Duration":152573,"SoundDuration":152573,"Delta":456044897},{"NoteNumber":87,"Velocity":84,"Duration":152573,"SoundDuration":152573,"Delta":456044897},{"NoteNumber":91,"Velocity":98,"Duration":152573,"SoundDuration":152573,"Delta":456044897},{"NoteNumber":35,"Velocity":64,"Duration":152573,"SoundDuration":152573,"Delta":456044897},{"NoteNumber":47,"Velocity":75,"Duration":152573,"SoundDuration":152573,"Delta":456044897},{"NoteNumber":86,"Velocity":82,"Duration":153392,"SoundDuration":153392,"Delta":456197471},{"NoteNumber":90,"Velocity":82,"Duration":153392,"SoundDuration":153392,"Delta":456197471},{"NoteNumber":98,"Velocity":97,"Duration":153392,"SoundDuration":153392,"Delta":456197471},{"NoteNumber":36,"Velocity":63,"Duration":153392,"SoundDuration":153392,"Delta":456197471},{"NoteNumber":48,"Velocity":73,"Duration":153392,"SoundDuration":153392,"Delta":456197471},{"NoteNumber":97,"Velocity":96,"Duration":154182,"SoundDuration":154182,"Delta":456350863},{"NoteNumber":89,"Velocity":81,"Duration":154182,"SoundDuration":154182,"Delta":456350863},{"NoteNumber":85,"Velocity":81,"Duration":154182,"SoundDuration":154182,"Delta":456350863},{"NoteNumber":37,"Velocity":59,"Duration":154182,"SoundDuration":154182,"Delta":456350863},{"NoteNumber":49,"Velocity":71,"Duration":154182,"SoundDuration":154182,"Delta":456350863},{"NoteNumber":44,"Velocity":59,"Duration":154182,"SoundDuration":154182,"Delta":456350863},{"NoteNumber":90,"Velocity":80,"Duration":155019,"SoundDuration":155019,"Delta":456505046},{"NoteNumber":84,"Velocity":80,"Duration":155019,"SoundDuration":155019,"Delta":456505046},{"NoteNumber":96,"Velocity":95,"Duration":155019,"SoundDuration":155019,"Delta":456505046},{"NoteNumber":38,"Velocity":58,"Duration":155019,"SoundDuration":155019,"Delta":456505046},{"NoteNumber":50,"Velocity":70,"Duration":155019,"SoundDuration":155019,"Delta":456505046},{"NoteNumber":89,"Velocity":90,"Duration":166204,"SoundDuration":166204,"Delta":456660065},{"NoteNumber":97,"Velocity":107,"Duration":166204,"SoundDuration":166204,"Delta":456660065},{"NoteNumber":85,"Velocity":90,"Duration":166204,"SoundDuration":166204,"Delta":456660065},{"NoteNumber":44,"Velocity":63,"Duration":166204,"SoundDuration":166204,"Delta":456660065},{"NoteNumber":37,"Velocity":63,"Duration":166204,"SoundDuration":166204,"Delta":456660065},{"NoteNumber":49,"Velocity":74,"Duration":166204,"SoundDuration":166204,"Delta":456660065},{"NoteNumber":84,"Velocity":84,"Duration":172910,"SoundDuration":172910,"Delta":456826270},{"NoteNumber":96,"Velocity":99,"Duration":172910,"SoundDuration":172910,"Delta":456826270},{"NoteNumber":90,"Velocity":84,"Duration":172910,"SoundDuration":172910,"Delta":456826270},{"NoteNumber":50,"Velocity":67,"Duration":172910,"SoundDuration":172910,"Delta":456826270},{"NoteNumber":38,"Velocity":56,"Duration":172910,"SoundDuration":172910,"Delta":456826270},{"NoteNumber":85,"Velocity":90,"Duration":169491,"SoundDuration":169491,"Delta":456999181},{"NoteNumber":89,"Velocity":90,"Duration":169491,"SoundDuration":169491,"Delta":456999181},{"NoteNumber":97,"Velocity":107,"Duration":169491,"SoundDuration":169491,"Delta":456999181},{"NoteNumber":44,"Velocity":64,"Duration":169491,"SoundDuration":169491,"Delta":456999181},{"NoteNumber":37,"Velocity":64,"Duration":169491,"SoundDuration":169491,"Delta":456999181},{"NoteNumber":49,"Velocity":75,"Duration":169491,"SoundDuration":169491,"Delta":456999181},{"NoteNumber":96,"Velocity":99,"Duration":176470,"SoundDuration":176470,"Delta":457168672},{"NoteNumber":90,"Velocity":84,"Duration":176470,"SoundDuration":176470,"Delta":457168672},{"NoteNumber":84,"Velocity":84,"Duration":176470,"SoundDuration":176470,"Delta":457168672},{"NoteNumber":38,"Velocity":58,"Duration":176470,"SoundDuration":176470,"Delta":457168672},{"NoteNumber":50,"Velocity":69,"Duration":176470,"SoundDuration":176470,"Delta":457168672},{"NoteNumber":85,"Velocity":90,"Duration":173913,"SoundDuration":173913,"Delta":457345143},{"NoteNumber":97,"Velocity":107,"Duration":173913,"SoundDuration":173913,"Delta":457345143},{"NoteNumber":89,"Velocity":90,"Duration":173913,"SoundDuration":173913,"Delta":457345143},{"NoteNumber":49,"Velocity":74,"Duration":173913,"SoundDuration":173913,"Delta":457345143},{"NoteNumber":44,"Velocity":63,"Duration":173913,"SoundDuration":173913,"Delta":457345143},{"NoteNumber":37,"Velocity":63,"Duration":173913,"SoundDuration":173913,"Delta":457345143},{"NoteNumber":72,"Velocity":68,"Duration":183615,"SoundDuration":183615,"Delta":457519056},{"NoteNumber":84,"Velocity":81,"Duration":183615,"SoundDuration":183615,"Delta":457519056},{"NoteNumber":48,"Velocity":56,"Duration":183615,"SoundDuration":183615,"Delta":457519056},{"NoteNumber":60,"Velocity":67,"Duration":183615,"SoundDuration":183615,"Delta":457519056},{"NoteNumber":85,"Velocity":88,"Duration":183615,"SoundDuration":183615,"Delta":457688547},{"NoteNumber":73,"Velocity":74,"Duration":183615,"SoundDuration":183615,"Delta":457688547},{"NoteNumber":61,"Velocity":72,"Duration":183615,"SoundDuration":183615,"Delta":457688547},{"NoteNumber":49,"Velocity":61,"Duration":183615,"SoundDuration":183615,"Delta":457688547},{"NoteNumber":84,"Velocity":81,"Duration":184735,"SoundDuration":184735,"Delta":457858039},{"NoteNumber":72,"Velocity":68,"Duration":184735,"SoundDuration":184735,"Delta":457858039},{"NoteNumber":60,"Velocity":67,"Duration":184735,"SoundDuration":184735,"Delta":457858039},{"NoteNumber":48,"Velocity":56,"Duration":184735,"SoundDuration":184735,"Delta":457858039},{"NoteNumber":85,"Velocity":88,"Duration":91463,"SoundDuration":91463,"Delta":458027530},{"NoteNumber":73,"Velocity":74,"Duration":91463,"SoundDuration":91463,"Delta":458027530},{"NoteNumber":61,"Velocity":73,"Duration":91463,"SoundDuration":91463,"Delta":458027530},{"NoteNumber":49,"Velocity":61,"Duration":91463,"SoundDuration":91463,"Delta":458027530},{"NoteNumber":73,"Velocity":74,"Duration":187819,"SoundDuration":187819,"Delta":458210457},{"NoteNumber":61,"Velocity":62,"Duration":187819,"SoundDuration":187819,"Delta":458210457},{"NoteNumber":49,"Velocity":67,"Duration":187819,"SoundDuration":187819,"Delta":458210457},{"NoteNumber":37,"Velocity":56,"Duration":187819,"SoundDuration":187819,"Delta":458210457},{"NoteNumber":74,"Velocity":80,"Duration":188486,"SoundDuration":188486,"Delta":458383868},{"NoteNumber":62,"Velocity":68,"Duration":188486,"SoundDuration":188486,"Delta":458383868},{"NoteNumber":50,"Velocity":72,"Duration":188486,"SoundDuration":188486,"Delta":458383868},{"NoteNumber":38,"Velocity":61,"Duration":188486,"SoundDuration":188486,"Delta":458383868},{"NoteNumber":75,"Velocity":72,"Duration":186915,"SoundDuration":186915,"Delta":458556778},{"NoteNumber":63,"Velocity":61,"Duration":186915,"SoundDuration":186915,"Delta":458556778},{"NoteNumber":39,"Velocity":56,"Duration":186915,"SoundDuration":186915,"Delta":458556778},{"NoteNumber":51,"Velocity":67,"Duration":186915,"SoundDuration":186915,"Delta":458556778},{"NoteNumber":76,"Velocity":97,"Duration":345821,"SoundDuration":345821,"Delta":458743694},{"NoteNumber":64,"Velocity":80,"Duration":345821,"SoundDuration":345821,"Delta":458743694},{"NoteNumber":40,"Velocity":73,"Duration":345821,"SoundDuration":345821,"Delta":458743694},{"NoteNumber":52,"Velocity":86,"Duration":345821,"SoundDuration":345821,"Delta":458743694},{"NoteNumber":71,"Velocity":79,"Duration":86455,"SoundDuration":86455,"Delta":458916605},{"NoteNumber":68,"Velocity":67,"Duration":86455,"SoundDuration":86455,"Delta":458916605},{"NoteNumber":59,"Velocity":69,"Duration":86455,"SoundDuration":86455,"Delta":458916605},{"NoteNumber":56,"Velocity":57,"Duration":86455,"SoundDuration":86455,"Delta":458916605},{"NoteNumber":68,"Velocity":74,"Duration":349380,"SoundDuration":349380,"Delta":459089515},{"NoteNumber":80,"Velocity":88,"Duration":349380,"SoundDuration":349380,"Delta":459089515},{"NoteNumber":44,"Velocity":67,"Duration":349380,"SoundDuration":349380,"Delta":459089515},{"NoteNumber":56,"Velocity":78,"Duration":349380,"SoundDuration":349380,"Delta":459089515},{"NoteNumber":71,"Velocity":67,"Duration":88235,"SoundDuration":88235,"Delta":459262426},{"NoteNumber":76,"Velocity":79,"Duration":88235,"SoundDuration":88235,"Delta":459262426},{"NoteNumber":64,"Velocity":69,"Duration":88235,"SoundDuration":88235,"Delta":459262426},{"NoteNumber":59,"Velocity":57,"Duration":88235,"SoundDuration":88235,"Delta":459262426},{"NoteNumber":85,"Velocity":105,"Duration":517242,"SoundDuration":517242,"Delta":459438896},{"NoteNumber":73,"Velocity":89,"Duration":517242,"SoundDuration":517242,"Delta":459438896},{"NoteNumber":61,"Velocity":94,"Duration":517242,"SoundDuration":517242,"Delta":459438896},{"NoteNumber":49,"Velocity":79,"Duration":517242,"SoundDuration":517242,"Delta":459438896},{"NoteNumber":80,"Velocity":79,"Duration":86207,"SoundDuration":86207,"Delta":459611310},{"NoteNumber":76,"Velocity":67,"Duration":86207,"SoundDuration":86207,"Delta":459611310},{"NoteNumber":68,"Velocity":69,"Duration":86207,"SoundDuration":86207,"Delta":459611310},{"NoteNumber":64,"Velocity":57,"Duration":86207,"SoundDuration":86207,"Delta":459611310},{"NoteNumber":80,"Velocity":79,"Duration":86207,"SoundDuration":86207,"Delta":459783724},{"NoteNumber":76,"Velocity":67,"Duration":86207,"SoundDuration":86207,"Delta":459783724},{"NoteNumber":68,"Velocity":69,"Duration":86207,"SoundDuration":86207,"Delta":459783724},{"NoteNumber":64,"Velocity":57,"Duration":86207,"SoundDuration":86207,"Delta":459783724},{"NoteNumber":71,"Velocity":80,"Duration":86207,"SoundDuration":86207,"Delta":459956138},{"NoteNumber":83,"Velocity":96,"Duration":86207,"SoundDuration":86207,"Delta":459956138},{"NoteNumber":59,"Velocity":84,"Duration":86207,"SoundDuration":86207,"Delta":459956138},{"NoteNumber":47,"Velocity":70,"Duration":86207,"SoundDuration":86207,"Delta":459956138},{"NoteNumber":76,"Velocity":85,"Duration":84745,"SoundDuration":84745,"Delta":460128552},{"NoteNumber":73,"Velocity":85,"Duration":84745,"SoundDuration":84745,"Delta":460128552},{"NoteNumber":81,"Velocity":100,"Duration":84745,"SoundDuration":84745,"Delta":460128552},{"NoteNumber":69,"Velocity":85,"Duration":84745,"SoundDuration":84745,"Delta":460128552},{"NoteNumber":52,"Velocity":75,"Duration":84745,"SoundDuration":84745,"Delta":460128552},{"NoteNumber":57,"Velocity":89,"Duration":84745,"SoundDuration":84745,"Delta":460128552},{"NoteNumber":49,"Velocity":75,"Duration":84745,"SoundDuration":84745,"Delta":460128552},{"NoteNumber":45,"Velocity":75,"Duration":84745,"SoundDuration":84745,"Delta":460128552},{"NoteNumber":80,"Velocity":92,"Duration":84745,"SoundDuration":84745,"Delta":460298044},{"NoteNumber":68,"Velocity":77,"Duration":84745,"SoundDuration":84745,"Delta":460298044},{"NoteNumber":56,"Velocity":78,"Duration":84745,"SoundDuration":84745,"Delta":460298044},{"NoteNumber":44,"Velocity":66,"Duration":84745,"SoundDuration":84745,"Delta":460298044},{"NoteNumber":67,"Velocity":77,"Duration":87209,"SoundDuration":87209,"Delta":460467535},{"NoteNumber":79,"Velocity":92,"Duration":87209,"SoundDuration":87209,"Delta":460467535},{"NoteNumber":55,"Velocity":78,"Duration":87209,"SoundDuration":87209,"Delta":460467535},{"NoteNumber":43,"Velocity":66,"Duration":87209,"SoundDuration":87209,"Delta":460467535},{"NoteNumber":66,"Velocity":72,"Duration":128590,"SoundDuration":128590,"Delta":460598349},{"NoteNumber":42,"Velocity":63,"Duration":128590,"SoundDuration":128590,"Delta":460598349},{"NoteNumber":69,"Velocity":74,"Duration":99891,"SoundDuration":99891,"Delta":460612884},{"NoteNumber":45,"Velocity":65,"Duration":114055,"SoundDuration":114055,"Delta":460612884},{"NoteNumber":73,"Velocity":76,"Duration":99520,"SoundDuration":99520,"Delta":460627419},{"NoteNumber":49,"Velocity":67,"Duration":99520,"SoundDuration":99520,"Delta":460627419},{"NoteNumber":78,"Velocity":93,"Duration":84985,"SoundDuration":84985,"Delta":460641954},{"NoteNumber":54,"Velocity":81,"Duration":84985,"SoundDuration":84985,"Delta":460641954},{"NoteNumber":77,"Velocity":92,"Duration":84985,"SoundDuration":84985,"Delta":460811925},{"NoteNumber":65,"Velocity":77,"Duration":84985,"SoundDuration":84985,"Delta":460811925},{"NoteNumber":41,"Velocity":65,"Duration":84985,"SoundDuration":84985,"Delta":460811925},{"NoteNumber":53,"Velocity":77,"Duration":84985,"SoundDuration":84985,"Delta":460811925},{"NoteNumber":64,"Velocity":60,"Duration":129198,"SoundDuration":129198,"Delta":460939404},{"NoteNumber":40,"Velocity":52,"Duration":129198,"SoundDuration":129198,"Delta":460939404},{"NoteNumber":69,"Velocity":64,"Duration":115033,"SoundDuration":115033,"Delta":460953568},{"NoteNumber":45,"Velocity":54,"Duration":115033,"SoundDuration":115033,"Delta":460953568},{"NoteNumber":73,"Velocity":67,"Duration":100869,"SoundDuration":100869,"Delta":460967732},{"NoteNumber":49,"Velocity":55,"Duration":100869,"SoundDuration":100869,"Delta":460967732},{"NoteNumber":76,"Velocity":80,"Duration":86705,"SoundDuration":86705,"Delta":460981897},{"NoteNumber":52,"Velocity":71,"Duration":86705,"SoundDuration":86705,"Delta":460981897},{"NoteNumber":63,"Velocity":75,"Duration":85960,"SoundDuration":85960,"Delta":461155307},{"NoteNumber":75,"Velocity":90,"Duration":85960,"SoundDuration":85960,"Delta":461155307},{"NoteNumber":39,"Velocity":63,"Duration":85960,"SoundDuration":85960,"Delta":461155307},{"NoteNumber":51,"Velocity":74,"Duration":85960,"SoundDuration":85960,"Delta":461155307},{"NoteNumber":64,"Velocity":65,"Duration":136147,"SoundDuration":136147,"Delta":461284247},{"NoteNumber":40,"Velocity":53,"Duration":136147,"SoundDuration":136147,"Delta":461284247},{"NoteNumber":69,"Velocity":65,"Duration":121821,"SoundDuration":121821,"Delta":461298574},{"NoteNumber":45,"Velocity":53,"Duration":121821,"SoundDuration":121821,"Delta":461298574},{"NoteNumber":73,"Velocity":65,"Duration":107494,"SoundDuration":107494,"Delta":461312900},{"NoteNumber":49,"Velocity":53,"Duration":107494,"SoundDuration":107494,"Delta":461312900},{"NoteNumber":76,"Velocity":77,"Duration":93167,"SoundDuration":93167,"Delta":461327227},{"NoteNumber":52,"Velocity":64,"Duration":93167,"SoundDuration":93167,"Delta":461327227},{"NoteNumber":64,"Velocity":80,"Duration":345821,"SoundDuration":345821,"Delta":461513563},{"NoteNumber":76,"Velocity":97,"Duration":345821,"SoundDuration":345821,"Delta":461513563},{"NoteNumber":40,"Velocity":73,"Duration":345821,"SoundDuration":345821,"Delta":461513563},{"NoteNumber":52,"Velocity":86,"Duration":345821,"SoundDuration":345821,"Delta":461513563},{"NoteNumber":71,"Velocity":79,"Duration":86455,"SoundDuration":86455,"Delta":461686473},{"NoteNumber":68,"Velocity":67,"Duration":86455,"SoundDuration":86455,"Delta":461686473},{"NoteNumber":56,"Velocity":57,"Duration":86455,"SoundDuration":86455,"Delta":461686473},{"NoteNumber":59,"Velocity":57,"Duration":86455,"SoundDuration":86455,"Delta":461686473},{"NoteNumber":68,"Velocity":74,"Duration":349380,"SoundDuration":349380,"Delta":461859384},{"NoteNumber":80,"Velocity":88,"Duration":349380,"SoundDuration":349380,"Delta":461859384},{"NoteNumber":44,"Velocity":67,"Duration":349380,"SoundDuration":349380,"Delta":461859384},{"NoteNumber":56,"Velocity":78,"Duration":349380,"SoundDuration":349380,"Delta":461859384},{"NoteNumber":76,"Velocity":79,"Duration":88235,"SoundDuration":88235,"Delta":462032294},{"NoteNumber":71,"Velocity":67,"Duration":88235,"SoundDuration":88235,"Delta":462032294},{"NoteNumber":59,"Velocity":57,"Duration":88235,"SoundDuration":88235,"Delta":462032294},{"NoteNumber":64,"Velocity":57,"Duration":88235,"SoundDuration":88235,"Delta":462032294},{"NoteNumber":73,"Velocity":89,"Duration":517242,"SoundDuration":517242,"Delta":462208765},{"NoteNumber":85,"Velocity":105,"Duration":517242,"SoundDuration":517242,"Delta":462208765},{"NoteNumber":49,"Velocity":79,"Duration":517242,"SoundDuration":517242,"Delta":462208765},{"NoteNumber":61,"Velocity":94,"Duration":517242,"SoundDuration":517242,"Delta":462208765},{"NoteNumber":76,"Velocity":67,"Duration":86207,"SoundDuration":86207,"Delta":462381179},{"NoteNumber":80,"Velocity":79,"Duration":86207,"SoundDuration":86207,"Delta":462381179},{"NoteNumber":64,"Velocity":57,"Duration":86207,"SoundDuration":86207,"Delta":462381179},{"NoteNumber":68,"Velocity":69,"Duration":86207,"SoundDuration":86207,"Delta":462381179},{"NoteNumber":76,"Velocity":67,"Duration":86207,"SoundDuration":86207,"Delta":462553593},{"NoteNumber":80,"Velocity":79,"Duration":86207,"SoundDuration":86207,"Delta":462553593},{"NoteNumber":68,"Velocity":69,"Duration":86207,"SoundDuration":86207,"Delta":462553593},{"NoteNumber":64,"Velocity":57,"Duration":86207,"SoundDuration":86207,"Delta":462553593},{"NoteNumber":83,"Velocity":96,"Duration":86207,"SoundDuration":86207,"Delta":462726007},{"NoteNumber":71,"Velocity":80,"Duration":86207,"SoundDuration":86207,"Delta":462726007},{"NoteNumber":47,"Velocity":70,"Duration":86207,"SoundDuration":86207,"Delta":462726007},{"NoteNumber":59,"Velocity":84,"Duration":86207,"SoundDuration":86207,"Delta":462726007},{"NoteNumber":81,"Velocity":95,"Duration":84745,"SoundDuration":84745,"Delta":462898421},{"NoteNumber":69,"Velocity":79,"Duration":84745,"SoundDuration":84745,"Delta":462898421},{"NoteNumber":76,"Velocity":79,"Duration":84745,"SoundDuration":84745,"Delta":462898421},{"NoteNumber":73,"Velocity":79,"Duration":84745,"SoundDuration":84745,"Delta":462898421},{"NoteNumber":57,"Velocity":84,"Duration":84745,"SoundDuration":84745,"Delta":462898421},{"NoteNumber":52,"Velocity":71,"Duration":84745,"SoundDuration":84745,"Delta":462898421},{"NoteNumber":45,"Velocity":71,"Duration":84745,"SoundDuration":84745,"Delta":462898421},{"NoteNumber":49,"Velocity":71,"Duration":84745,"SoundDuration":84745,"Delta":462898421},{"NoteNumber":80,"Velocity":92,"Duration":84745,"SoundDuration":84745,"Delta":463067912},{"NoteNumber":68,"Velocity":77,"Duration":84745,"SoundDuration":84745,"Delta":463067912},{"NoteNumber":56,"Velocity":78,"Duration":84745,"SoundDuration":84745,"Delta":463067912},{"NoteNumber":44,"Velocity":66,"Duration":84745,"SoundDuration":84745,"Delta":463067912},{"NoteNumber":78,"Velocity":92,"Duration":85714,"SoundDuration":85714,"Delta":463237404},{"NoteNumber":66,"Velocity":77,"Duration":85714,"SoundDuration":85714,"Delta":463237404},{"NoteNumber":42,"Velocity":66,"Duration":85714,"SoundDuration":85714,"Delta":463237404},{"NoteNumber":54,"Velocity":78,"Duration":85714,"SoundDuration":85714,"Delta":463237404},{"NoteNumber":69,"Velocity":63,"Duration":96726,"SoundDuration":96726,"Delta":463408832},{"NoteNumber":73,"Velocity":64,"Duration":89285,"SoundDuration":89285,"Delta":463408832},{"NoteNumber":64,"Velocity":60,"Duration":89285,"SoundDuration":89285,"Delta":463408832},{"NoteNumber":76,"Velocity":77,"Duration":89285,"SoundDuration":89285,"Delta":463408832},{"NoteNumber":40,"Velocity":52,"Duration":89285,"SoundDuration":89285,"Delta":463408832},{"NoteNumber":49,"Velocity":57,"Duration":89285,"SoundDuration":89285,"Delta":463408832},{"NoteNumber":45,"Velocity":54,"Duration":89285,"SoundDuration":89285,"Delta":463408832},{"NoteNumber":52,"Velocity":69,"Duration":89285,"SoundDuration":89285,"Delta":463408832},{"NoteNumber":73,"Velocity":77,"Duration":374977,"SoundDuration":374977,"Delta":463587404},{"NoteNumber":76,"Velocity":77,"Duration":374977,"SoundDuration":374977,"Delta":463587404},{"NoteNumber":69,"Velocity":77,"Duration":374977,"SoundDuration":374977,"Delta":463587404},{"NoteNumber":81,"Velocity":93,"Duration":374977,"SoundDuration":374977,"Delta":463587404},{"NoteNumber":45,"Velocity":70,"Duration":374977,"SoundDuration":374977,"Delta":463587404},{"NoteNumber":49,"Velocity":70,"Duration":374977,"SoundDuration":374977,"Delta":463587404},{"NoteNumber":57,"Velocity":82,"Duration":374977,"SoundDuration":374977,"Delta":463587404},{"NoteNumber":52,"Velocity":70,"Duration":374977,"SoundDuration":374977,"Delta":463587404},{"NoteNumber":85,"Velocity":84,"Duration":388457,"SoundDuration":388457,"Delta":463962381},{"NoteNumber":73,"Velocity":71,"Duration":388457,"SoundDuration":388457,"Delta":463962381},{"NoteNumber":81,"Velocity":71,"Duration":388457,"SoundDuration":388457,"Delta":463962381},{"NoteNumber":76,"Velocity":71,"Duration":388457,"SoundDuration":388457,"Delta":463962381},{"NoteNumber":49,"Velocity":64,"Duration":388457,"SoundDuration":388457,"Delta":463962381},{"NoteNumber":61,"Velocity":75,"Duration":388457,"SoundDuration":388457,"Delta":463962381},{"NoteNumber":57,"Velocity":64,"Duration":388457,"SoundDuration":388457,"Delta":463962381},{"NoteNumber":52,"Velocity":64,"Duration":388457,"SoundDuration":388457,"Delta":463962381},{"NoteNumber":86,"Velocity":57,"Duration":95930,"SoundDuration":95930,"Delta":464350838},{"NoteNumber":92,"Velocity":57,"Duration":95930,"SoundDuration":95930,"Delta":464350838},{"NoteNumber":40,"Velocity":53,"Duration":95930,"SoundDuration":95930,"Delta":464350838},{"NoteNumber":52,"Velocity":64,"Duration":95930,"SoundDuration":95930,"Delta":464350838},{"NoteNumber":100,"Velocity":58,"Duration":93126,"SoundDuration":93126,"Delta":464446768},{"NoteNumber":88,"Velocity":59,"Duration":90751,"SoundDuration":90751,"Delta":464539895},{"NoteNumber":95,"Velocity":59,"Duration":90751,"SoundDuration":90751,"Delta":464539895},{"NoteNumber":52,"Velocity":68,"Duration":180796,"SoundDuration":180796,"Delta":464539895},{"NoteNumber":64,"Velocity":80,"Duration":180796,"SoundDuration":180796,"Delta":464539895},{"NoteNumber":100,"Velocity":61,"Duration":90045,"SoundDuration":90045,"Delta":464630646},{"NoteNumber":92,"Velocity":63,"Duration":89663,"SoundDuration":89663,"Delta":464720692},{"NoteNumber":86,"Velocity":63,"Duration":89663,"SoundDuration":89663,"Delta":464720692},{"NoteNumber":59,"Velocity":64,"Duration":89663,"SoundDuration":89663,"Delta":464720692},{"NoteNumber":47,"Velocity":53,"Duration":89663,"SoundDuration":89663,"Delta":464720692},{"NoteNumber":100,"Velocity":64,"Duration":89241,"SoundDuration":89241,"Delta":464810356},{"NoteNumber":88,"Velocity":66,"Duration":88867,"SoundDuration":88867,"Delta":464899597},{"NoteNumber":95,"Velocity":66,"Duration":88867,"SoundDuration":88867,"Delta":464899597},{"NoteNumber":68,"Velocity":84,"Duration":177362,"SoundDuration":177362,"Delta":464899597},{"NoteNumber":56,"Velocity":70,"Duration":177362,"SoundDuration":177362,"Delta":464899597},{"NoteNumber":100,"Velocity":67,"Duration":88495,"SoundDuration":88495,"Delta":464988464},{"NoteNumber":86,"Velocity":69,"Duration":88582,"SoundDuration":88582,"Delta":465076960},{"NoteNumber":92,"Velocity":69,"Duration":88582,"SoundDuration":88582,"Delta":465076960},{"NoteNumber":64,"Velocity":68,"Duration":88582,"SoundDuration":88582,"Delta":465076960},{"NoteNumber":52,"Velocity":56,"Duration":88582,"SoundDuration":88582,"Delta":465076960},{"NoteNumber":100,"Velocity":70,"Duration":87976,"SoundDuration":87976,"Delta":465165543},{"NoteNumber":95,"Velocity":72,"Duration":87421,"SoundDuration":87421,"Delta":465253520},{"NoteNumber":88,"Velocity":72,"Duration":87421,"SoundDuration":87421,"Delta":465253520},{"NoteNumber":61,"Velocity":76,"Duration":347184,"SoundDuration":347184,"Delta":465253520},{"NoteNumber":73,"Velocity":91,"Duration":347184,"SoundDuration":347184,"Delta":465253520},{"NoteNumber":100,"Velocity":72,"Duration":86852,"SoundDuration":86852,"Delta":465340942},{"NoteNumber":92,"Velocity":71,"Duration":86455,"SoundDuration":86455,"Delta":465427794},{"NoteNumber":86,"Velocity":71,"Duration":86455,"SoundDuration":86455,"Delta":465427794},{"NoteNumber":100,"Velocity":70,"Duration":86455,"SoundDuration":86455,"Delta":465514249},{"NoteNumber":95,"Velocity":70,"Duration":86455,"SoundDuration":86455,"Delta":465600704},{"NoteNumber":88,"Velocity":70,"Duration":86455,"SoundDuration":86455,"Delta":465600704},{"NoteNumber":71,"Velocity":78,"Duration":172910,"SoundDuration":172910,"Delta":465600704},{"NoteNumber":59,"Velocity":67,"Duration":172910,"SoundDuration":172910,"Delta":465600704},{"NoteNumber":100,"Velocity":69,"Duration":86455,"SoundDuration":86455,"Delta":465687159},{"NoteNumber":85,"Velocity":74,"Duration":84506,"SoundDuration":84506,"Delta":465773615},{"NoteNumber":93,"Velocity":74,"Duration":84506,"SoundDuration":84506,"Delta":465773615},{"NoteNumber":57,"Velocity":74,"Duration":84506,"SoundDuration":84506,"Delta":465773615},{"NoteNumber":69,"Velocity":88,"Duration":84506,"SoundDuration":84506,"Delta":465773615},{"NoteNumber":100,"Velocity":67,"Duration":84507,"SoundDuration":84507,"Delta":465858122},{"NoteNumber":88,"Velocity":70,"Duration":86207,"SoundDuration":86207,"Delta":465942629},{"NoteNumber":97,"Velocity":70,"Duration":86207,"SoundDuration":86207,"Delta":465942629},{"NoteNumber":68,"Velocity":73,"Duration":86207,"SoundDuration":86207,"Delta":465942629},{"NoteNumber":56,"Velocity":60,"Duration":86207,"SoundDuration":86207,"Delta":465942629},{"NoteNumber":100,"Velocity":66,"Duration":86207,"SoundDuration":86207,"Delta":466028836},{"NoteNumber":85,"Velocity":71,"Duration":84985,"SoundDuration":84985,"Delta":466115043},{"NoteNumber":93,"Velocity":71,"Duration":84985,"SoundDuration":84985,"Delta":466115043},{"NoteNumber":55,"Velocity":60,"Duration":84985,"SoundDuration":84985,"Delta":466115043},{"NoteNumber":67,"Velocity":73,"Duration":84985,"SoundDuration":84985,"Delta":466115043},{"NoteNumber":100,"Velocity":65,"Duration":84985,"SoundDuration":84985,"Delta":466200028},{"NoteNumber":97,"Velocity":71,"Duration":88757,"SoundDuration":88757,"Delta":466285014},{"NoteNumber":88,"Velocity":71,"Duration":88757,"SoundDuration":88757,"Delta":466285014},{"NoteNumber":54,"Velocity":60,"Duration":88757,"SoundDuration":88757,"Delta":466285014},{"NoteNumber":66,"Velocity":73,"Duration":88757,"SoundDuration":88757,"Delta":466285014},{"NoteNumber":100,"Velocity":64,"Duration":88757,"SoundDuration":88757,"Delta":466373772},{"NoteNumber":85,"Velocity":72,"Duration":83798,"SoundDuration":83798,"Delta":466462529},{"NoteNumber":93,"Velocity":72,"Duration":83798,"SoundDuration":83798,"Delta":466462529},{"NoteNumber":53,"Velocity":66,"Duration":167597,"SoundDuration":167597,"Delta":466462529},{"NoteNumber":65,"Velocity":80,"Duration":167597,"SoundDuration":167597,"Delta":466462529},{"NoteNumber":100,"Velocity":63,"Duration":83798,"SoundDuration":83798,"Delta":466546328},{"NoteNumber":97,"Velocity":66,"Duration":86207,"SoundDuration":86207,"Delta":466630127},{"NoteNumber":88,"Velocity":66,"Duration":86207,"SoundDuration":86207,"Delta":466630127},{"NoteNumber":52,"Velocity":60,"Duration":172414,"SoundDuration":172414,"Delta":466630127},{"NoteNumber":64,"Velocity":72,"Duration":172414,"SoundDuration":172414,"Delta":466630127},{"NoteNumber":100,"Velocity":60,"Duration":86207,"SoundDuration":86207,"Delta":466716334},{"NoteNumber":93,"Velocity":64,"Duration":84985,"SoundDuration":84985,"Delta":466802541},{"NoteNumber":85,"Velocity":64,"Duration":84985,"SoundDuration":84985,"Delta":466802541},{"NoteNumber":61,"Velocity":72,"Duration":84985,"SoundDuration":84985,"Delta":466802541},{"NoteNumber":49,"Velocity":60,"Duration":84985,"SoundDuration":84985,"Delta":466802541},{"NoteNumber":100,"Velocity":59,"Duration":84985,"SoundDuration":84985,"Delta":466887527},{"NoteNumber":97,"Velocity":64,"Duration":90361,"SoundDuration":90361,"Delta":466972513},{"NoteNumber":88,"Velocity":64,"Duration":90361,"SoundDuration":90361,"Delta":466972513},{"NoteNumber":45,"Velocity":60,"Duration":90361,"SoundDuration":90361,"Delta":466972513},{"NoteNumber":57,"Velocity":72,"Duration":90361,"SoundDuration":90361,"Delta":466972513},{"NoteNumber":100,"Velocity":58,"Duration":90600,"SoundDuration":90600,"Delta":467062874},{"NoteNumber":86,"Velocity":63,"Duration":91158,"SoundDuration":91158,"Delta":467153474},{"NoteNumber":92,"Velocity":63,"Duration":91158,"SoundDuration":91158,"Delta":467153474},{"NoteNumber":40,"Velocity":59,"Duration":91158,"SoundDuration":91158,"Delta":467153474},{"NoteNumber":52,"Velocity":70,"Duration":91158,"SoundDuration":91158,"Delta":467153474},{"NoteNumber":100,"Velocity":63,"Duration":90457,"SoundDuration":90457,"Delta":467244633},{"NoteNumber":95,"Velocity":64,"Duration":89780,"SoundDuration":89780,"Delta":467335090},{"NoteNumber":88,"Velocity":64,"Duration":89780,"SoundDuration":89780,"Delta":467335090},{"NoteNumber":64,"Velocity":88,"Duration":179736,"SoundDuration":179736,"Delta":467335090},{"NoteNumber":52,"Velocity":74,"Duration":179736,"SoundDuration":179736,"Delta":467335090},{"NoteNumber":100,"Velocity":65,"Duration":89955,"SoundDuration":89955,"Delta":467424871},{"NoteNumber":86,"Velocity":65,"Duration":89663,"SoundDuration":89663,"Delta":467514826},{"NoteNumber":92,"Velocity":65,"Duration":89663,"SoundDuration":89663,"Delta":467514826},{"NoteNumber":59,"Velocity":67,"Duration":89663,"SoundDuration":89663,"Delta":467514826},{"NoteNumber":47,"Velocity":55,"Duration":89663,"SoundDuration":89663,"Delta":467514826},{"NoteNumber":100,"Velocity":66,"Duration":89241,"SoundDuration":89241,"Delta":467604490},{"NoteNumber":95,"Velocity":67,"Duration":88867,"SoundDuration":88867,"Delta":467693732},{"NoteNumber":88,"Velocity":67,"Duration":88867,"SoundDuration":88867,"Delta":467693732},{"NoteNumber":56,"Velocity":73,"Duration":177362,"SoundDuration":177362,"Delta":467693732},{"NoteNumber":68,"Velocity":86,"Duration":177362,"SoundDuration":177362,"Delta":467693732},{"NoteNumber":100,"Velocity":69,"Duration":88495,"SoundDuration":88495,"Delta":467782599},{"NoteNumber":86,"Velocity":69,"Duration":88582,"SoundDuration":88582,"Delta":467871095},{"NoteNumber":92,"Velocity":69,"Duration":88582,"SoundDuration":88582,"Delta":467871095},{"NoteNumber":64,"Velocity":68,"Duration":88582,"SoundDuration":88582,"Delta":467871095},{"NoteNumber":52,"Velocity":56,"Duration":88582,"SoundDuration":88582,"Delta":467871095},{"NoteNumber":100,"Velocity":70,"Duration":87976,"SoundDuration":87976,"Delta":467959678},{"NoteNumber":88,"Velocity":72,"Duration":87421,"SoundDuration":87421,"Delta":468047655},{"NoteNumber":95,"Velocity":72,"Duration":87421,"SoundDuration":87421,"Delta":468047655},{"NoteNumber":61,"Velocity":76,"Duration":347184,"SoundDuration":347184,"Delta":468047655},{"NoteNumber":73,"Velocity":91,"Duration":347184,"SoundDuration":347184,"Delta":468047655},{"NoteNumber":100,"Velocity":72,"Duration":86852,"SoundDuration":86852,"Delta":468135076},{"NoteNumber":92,"Velocity":71,"Duration":86455,"SoundDuration":86455,"Delta":468221928},{"NoteNumber":86,"Velocity":71,"Duration":86455,"SoundDuration":86455,"Delta":468221928},{"NoteNumber":100,"Velocity":70,"Duration":86455,"SoundDuration":86455,"Delta":468308384},{"NoteNumber":95,"Velocity":70,"Duration":86455,"SoundDuration":86455,"Delta":468394839},{"NoteNumber":88,"Velocity":70,"Duration":86455,"SoundDuration":86455,"Delta":468394839},{"NoteNumber":59,"Velocity":67,"Duration":172910,"SoundDuration":172910,"Delta":468394839},{"NoteNumber":71,"Velocity":78,"Duration":172910,"SoundDuration":172910,"Delta":468394839},{"NoteNumber":100,"Velocity":69,"Duration":86455,"SoundDuration":86455,"Delta":468481294},{"NoteNumber":85,"Velocity":74,"Duration":84506,"SoundDuration":84506,"Delta":468567749},{"NoteNumber":93,"Velocity":74,"Duration":84506,"SoundDuration":84506,"Delta":468567749},{"NoteNumber":57,"Velocity":74,"Duration":84506,"SoundDuration":84506,"Delta":468567749},{"NoteNumber":69,"Velocity":88,"Duration":84506,"SoundDuration":84506,"Delta":468567749},{"NoteNumber":100,"Velocity":67,"Duration":84507,"SoundDuration":84507,"Delta":468652256},{"NoteNumber":97,"Velocity":70,"Duration":86207,"SoundDuration":86207,"Delta":468736763},{"NoteNumber":88,"Velocity":70,"Duration":86207,"SoundDuration":86207,"Delta":468736763},{"NoteNumber":56,"Velocity":60,"Duration":86207,"SoundDuration":86207,"Delta":468736763},{"NoteNumber":68,"Velocity":73,"Duration":86207,"SoundDuration":86207,"Delta":468736763},{"NoteNumber":100,"Velocity":66,"Duration":86207,"SoundDuration":86207,"Delta":468822970},{"NoteNumber":85,"Velocity":71,"Duration":84985,"SoundDuration":84985,"Delta":468909177},{"NoteNumber":93,"Velocity":71,"Duration":84985,"SoundDuration":84985,"Delta":468909177},{"NoteNumber":67,"Velocity":73,"Duration":84985,"SoundDuration":84985,"Delta":468909177},{"NoteNumber":55,"Velocity":60,"Duration":84985,"SoundDuration":84985,"Delta":468909177},{"NoteNumber":100,"Velocity":65,"Duration":84985,"SoundDuration":84985,"Delta":468994163},{"NoteNumber":97,"Velocity":71,"Duration":88757,"SoundDuration":88757,"Delta":469079149},{"NoteNumber":88,"Velocity":71,"Duration":88757,"SoundDuration":88757,"Delta":469079149},{"NoteNumber":54,"Velocity":60,"Duration":88757,"SoundDuration":88757,"Delta":469079149},{"NoteNumber":66,"Velocity":73,"Duration":88757,"SoundDuration":88757,"Delta":469079149},{"NoteNumber":100,"Velocity":64,"Duration":88757,"SoundDuration":88757,"Delta":469167906},{"NoteNumber":93,"Velocity":72,"Duration":83798,"SoundDuration":83798,"Delta":469256664},{"NoteNumber":85,"Velocity":72,"Duration":83798,"SoundDuration":83798,"Delta":469256664},{"NoteNumber":53,"Velocity":60,"Duration":167597,"SoundDuration":167597,"Delta":469256664},{"NoteNumber":65,"Velocity":71,"Duration":167597,"SoundDuration":167597,"Delta":469256664},{"NoteNumber":100,"Velocity":61,"Duration":83798,"SoundDuration":83798,"Delta":469340463},{"NoteNumber":88,"Velocity":64,"Duration":86207,"SoundDuration":86207,"Delta":469424262},{"NoteNumber":97,"Velocity":64,"Duration":86207,"SoundDuration":86207,"Delta":469424262},{"NoteNumber":52,"Velocity":57,"Duration":172414,"SoundDuration":172414,"Delta":469424262},{"NoteNumber":64,"Velocity":69,"Duration":172414,"SoundDuration":172414,"Delta":469424262},{"NoteNumber":100,"Velocity":58,"Duration":86207,"SoundDuration":86207,"Delta":469510469},{"NoteNumber":85,"Velocity":60,"Duration":84985,"SoundDuration":84985,"Delta":469596676},{"NoteNumber":93,"Velocity":60,"Duration":84985,"SoundDuration":84985,"Delta":469596676},{"NoteNumber":63,"Velocity":68,"Duration":84985,"SoundDuration":84985,"Delta":469596676},{"NoteNumber":51,"Velocity":56,"Duration":84985,"SoundDuration":84985,"Delta":469596676},{"NoteNumber":100,"Velocity":54,"Duration":84985,"SoundDuration":84985,"Delta":469681662},{"NoteNumber":97,"Velocity":59,"Duration":90361,"SoundDuration":90361,"Delta":469766647},{"NoteNumber":88,"Velocity":59,"Duration":90361,"SoundDuration":90361,"Delta":469766647},{"NoteNumber":64,"Velocity":66,"Duration":90361,"SoundDuration":90361,"Delta":469766647},{"NoteNumber":52,"Velocity":54,"Duration":90361,"SoundDuration":90361,"Delta":469766647},{"NoteNumber":100,"Velocity":52,"Duration":90361,"SoundDuration":90361,"Delta":469857009},{"NoteNumber":98,"Velocity":71,"Duration":41322,"SoundDuration":41322,"Delta":469947370},{"NoteNumber":90,"Velocity":71,"Duration":41322,"SoundDuration":41322,"Delta":469947370},{"NoteNumber":56,"Velocity":57,"Duration":82531,"SoundDuration":82531,"Delta":469947370},{"NoteNumber":62,"Velocity":57,"Duration":82531,"SoundDuration":82531,"Delta":469947370},{"NoteNumber":64,"Velocity":68,"Duration":82531,"SoundDuration":82531,"Delta":469947370},{"NoteNumber":100,"Velocity":75,"Duration":41208,"SoundDuration":41208,"Delta":469988693},{"NoteNumber":102,"Velocity":79,"Duration":27472,"SoundDuration":27472,"Delta":470029901},{"NoteNumber":52,"Velocity":67,"Duration":84506,"SoundDuration":84506,"Delta":470112319},{"NoteNumber":95,"Velocity":71,"Duration":41095,"SoundDuration":41095,"Delta":470281333},{"NoteNumber":86,"Velocity":71,"Duration":41095,"SoundDuration":41095,"Delta":470281333},{"NoteNumber":56,"Velocity":57,"Duration":82191,"SoundDuration":82191,"Delta":470281333},{"NoteNumber":64,"Velocity":68,"Duration":82191,"SoundDuration":82191,"Delta":470281333},{"NoteNumber":62,"Velocity":57,"Duration":82191,"SoundDuration":82191,"Delta":470281333},{"NoteNumber":97,"Velocity":75,"Duration":41095,"SoundDuration":41095,"Delta":470322429},{"NoteNumber":98,"Velocity":80,"Duration":27397,"SoundDuration":27397,"Delta":470363525},{"NoteNumber":47,"Velocity":66,"Duration":84269,"SoundDuration":84269,"Delta":470445716},{"NoteNumber":83,"Velocity":71,"Duration":41095,"SoundDuration":41095,"Delta":470614256},{"NoteNumber":92,"Velocity":71,"Duration":41095,"SoundDuration":41095,"Delta":470614256},{"NoteNumber":64,"Velocity":68,"Duration":82191,"SoundDuration":82191,"Delta":470614256},{"NoteNumber":62,"Velocity":57,"Duration":82191,"SoundDuration":82191,"Delta":470614256},{"NoteNumber":56,"Velocity":57,"Duration":82191,"SoundDuration":82191,"Delta":470614256},{"NoteNumber":93,"Velocity":75,"Duration":41095,"SoundDuration":41095,"Delta":470655352},{"NoteNumber":95,"Velocity":80,"Duration":27397,"SoundDuration":27397,"Delta":470696448},{"NoteNumber":40,"Velocity":67,"Duration":84745,"SoundDuration":84745,"Delta":470778639},{"NoteNumber":88,"Velocity":71,"Duration":41322,"SoundDuration":41322,"Delta":470948131},{"NoteNumber":80,"Velocity":71,"Duration":41322,"SoundDuration":41322,"Delta":470948131},{"NoteNumber":64,"Velocity":68,"Duration":82644,"SoundDuration":82644,"Delta":470948131},{"NoteNumber":62,"Velocity":57,"Duration":82644,"SoundDuration":82644,"Delta":470948131},{"NoteNumber":56,"Velocity":57,"Duration":82644,"SoundDuration":82644,"Delta":470948131},{"NoteNumber":90,"Velocity":75,"Duration":41322,"SoundDuration":41322,"Delta":470989453},{"NoteNumber":92,"Velocity":80,"Duration":27548,"SoundDuration":27548,"Delta":471030776},{"NoteNumber":47,"Velocity":66,"Duration":84745,"SoundDuration":84745,"Delta":471114471},{"NoteNumber":69,"Velocity":66,"Duration":49999,"SoundDuration":49999,"Delta":471284553},{"NoteNumber":61,"Velocity":57,"Duration":86897,"SoundDuration":86897,"Delta":471284553},{"NoteNumber":64,"Velocity":68,"Duration":86897,"SoundDuration":86897,"Delta":471284553},{"NoteNumber":57,"Velocity":57,"Duration":86897,"SoundDuration":86897,"Delta":471284553},{"NoteNumber":71,"Velocity":67,"Duration":49181,"SoundDuration":49181,"Delta":471334553},{"NoteNumber":73,"Velocity":68,"Duration":49774,"SoundDuration":49774,"Delta":471383734},{"NoteNumber":74,"Velocity":69,"Duration":49647,"SoundDuration":49647,"Delta":471432788},{"NoteNumber":52,"Velocity":67,"Duration":86128,"SoundDuration":86128,"Delta":471458004},{"NoteNumber":76,"Velocity":70,"Duration":48803,"SoundDuration":48803,"Delta":471482435},{"NoteNumber":78,"Velocity":71,"Duration":49394,"SoundDuration":49394,"Delta":471531239},{"NoteNumber":80,"Velocity":72,"Duration":48555,"SoundDuration":48555,"Delta":471580633},{"NoteNumber":81,"Velocity":73,"Duration":49145,"SoundDuration":49145,"Delta":471629188},{"NoteNumber":57,"Velocity":57,"Duration":85413,"SoundDuration":85413,"Delta":471629900},{"NoteNumber":61,"Velocity":57,"Duration":85413,"SoundDuration":85413,"Delta":471629900},{"NoteNumber":64,"Velocity":68,"Duration":85413,"SoundDuration":85413,"Delta":471629900},{"NoteNumber":83,"Velocity":74,"Duration":49056,"SoundDuration":49056,"Delta":471677621},{"NoteNumber":85,"Velocity":75,"Duration":48220,"SoundDuration":48220,"Delta":471726677},{"NoteNumber":86,"Velocity":76,"Duration":48806,"SoundDuration":48806,"Delta":471774898},{"NoteNumber":49,"Velocity":66,"Duration":84670,"SoundDuration":84670,"Delta":471800394},{"NoteNumber":88,"Velocity":77,"Duration":47978,"SoundDuration":47978,"Delta":471823705},{"NoteNumber":90,"Velocity":78,"Duration":48561,"SoundDuration":48561,"Delta":471871684},{"NoteNumber":92,"Velocity":79,"Duration":49841,"SoundDuration":49841,"Delta":471919544},{"NoteNumber":93,"Velocity":80,"Duration":48319,"SoundDuration":48319,"Delta":471969385},{"NoteNumber":64,"Velocity":68,"Duration":84033,"SoundDuration":84033,"Delta":471969385},{"NoteNumber":61,"Velocity":57,"Duration":84033,"SoundDuration":84033,"Delta":471969385},{"NoteNumber":57,"Velocity":57,"Duration":84033,"SoundDuration":84033,"Delta":471969385},{"NoteNumber":95,"Velocity":81,"Duration":47618,"SoundDuration":47618,"Delta":472017705},{"NoteNumber":97,"Velocity":82,"Duration":48293,"SoundDuration":48293,"Delta":472065324},{"NoteNumber":98,"Velocity":84,"Duration":47486,"SoundDuration":47486,"Delta":472112919},{"NoteNumber":40,"Velocity":67,"Duration":83798,"SoundDuration":83798,"Delta":472137361},{"NoteNumber":100,"Velocity":85,"Duration":47486,"SoundDuration":47486,"Delta":472161104},{"NoteNumber":102,"Velocity":86,"Duration":48153,"SoundDuration":48153,"Delta":472208590},{"NoteNumber":104,"Velocity":87,"Duration":47353,"SoundDuration":47353,"Delta":472256743},{"NoteNumber":105,"Velocity":88,"Duration":85960,"SoundDuration":85960,"Delta":472304793},{"NoteNumber":64,"Velocity":68,"Duration":85960,"SoundDuration":85960,"Delta":472304793},{"NoteNumber":57,"Velocity":57,"Duration":85960,"SoundDuration":85960,"Delta":472304793},{"NoteNumber":61,"Velocity":57,"Duration":85960,"SoundDuration":85960,"Delta":472304793},{"NoteNumber":93,"Velocity":71,"Duration":85960,"SoundDuration":85960,"Delta":472476713},{"NoteNumber":97,"Velocity":71,"Duration":85960,"SoundDuration":85960,"Delta":472476713},{"NoteNumber":49,"Velocity":66,"Duration":85960,"SoundDuration":85960,"Delta":472476713},{"NoteNumber":90,"Velocity":71,"Duration":41322,"SoundDuration":41322,"Delta":472648633},{"NoteNumber":98,"Velocity":71,"Duration":41322,"SoundDuration":41322,"Delta":472648633},{"NoteNumber":56,"Velocity":57,"Duration":82531,"SoundDuration":82531,"Delta":472648633},{"NoteNumber":64,"Velocity":68,"Duration":82531,"SoundDuration":82531,"Delta":472648633},{"NoteNumber":62,"Velocity":57,"Duration":82531,"SoundDuration":82531,"Delta":472648633},{"NoteNumber":100,"Velocity":75,"Duration":41208,"SoundDuration":41208,"Delta":472689956},{"NoteNumber":102,"Velocity":79,"Duration":27472,"SoundDuration":27472,"Delta":472731164},{"NoteNumber":52,"Velocity":67,"Duration":84506,"SoundDuration":84506,"Delta":472813582},{"NoteNumber":95,"Velocity":71,"Duration":41095,"SoundDuration":41095,"Delta":472982596},{"NoteNumber":86,"Velocity":71,"Duration":41095,"SoundDuration":41095,"Delta":472982596},{"NoteNumber":56,"Velocity":57,"Duration":82191,"SoundDuration":82191,"Delta":472982596},{"NoteNumber":62,"Velocity":57,"Duration":82191,"SoundDuration":82191,"Delta":472982596},{"NoteNumber":64,"Velocity":68,"Duration":82191,"SoundDuration":82191,"Delta":472982596},{"NoteNumber":97,"Velocity":75,"Duration":41095,"SoundDuration":41095,"Delta":473023692},{"NoteNumber":98,"Velocity":80,"Duration":27397,"SoundDuration":27397,"Delta":473064788},{"NoteNumber":47,"Velocity":66,"Duration":84269,"SoundDuration":84269,"Delta":473146979},{"NoteNumber":92,"Velocity":71,"Duration":41095,"SoundDuration":41095,"Delta":473315519},{"NoteNumber":83,"Velocity":71,"Duration":41095,"SoundDuration":41095,"Delta":473315519},{"NoteNumber":62,"Velocity":57,"Duration":82191,"SoundDuration":82191,"Delta":473315519},{"NoteNumber":64,"Velocity":68,"Duration":82191,"SoundDuration":82191,"Delta":473315519},{"NoteNumber":56,"Velocity":57,"Duration":82191,"SoundDuration":82191,"Delta":473315519},{"NoteNumber":93,"Velocity":75,"Duration":41095,"SoundDuration":41095,"Delta":473356615},{"NoteNumber":95,"Velocity":80,"Duration":27397,"SoundDuration":27397,"Delta":473397711},{"NoteNumber":40,"Velocity":67,"Duration":84745,"SoundDuration":84745,"Delta":473479902},{"NoteNumber":88,"Velocity":71,"Duration":41322,"SoundDuration":41322,"Delta":473649394},{"NoteNumber":80,"Velocity":71,"Duration":41322,"SoundDuration":41322,"Delta":473649394},{"NoteNumber":56,"Velocity":57,"Duration":82644,"SoundDuration":82644,"Delta":473649394},{"NoteNumber":62,"Velocity":57,"Duration":82644,"SoundDuration":82644,"Delta":473649394},{"NoteNumber":64,"Velocity":68,"Duration":82644,"SoundDuration":82644,"Delta":473649394},{"NoteNumber":90,"Velocity":75,"Duration":41322,"SoundDuration":41322,"Delta":473690716},{"NoteNumber":92,"Velocity":80,"Duration":27548,"SoundDuration":27548,"Delta":473732039},{"NoteNumber":47,"Velocity":66,"Duration":84745,"SoundDuration":84745,"Delta":473815734},{"NoteNumber":69,"Velocity":66,"Duration":49999,"SoundDuration":49999,"Delta":473985816},{"NoteNumber":57,"Velocity":57,"Duration":86897,"SoundDuration":86897,"Delta":473985816},{"NoteNumber":64,"Velocity":68,"Duration":86897,"SoundDuration":86897,"Delta":473985816},{"NoteNumber":61,"Velocity":57,"Duration":86897,"SoundDuration":86897,"Delta":473985816},{"NoteNumber":71,"Velocity":67,"Duration":49181,"SoundDuration":49181,"Delta":474035816},{"NoteNumber":73,"Velocity":68,"Duration":49774,"SoundDuration":49774,"Delta":474084997},{"NoteNumber":74,"Velocity":69,"Duration":49647,"SoundDuration":49647,"Delta":474134051},{"NoteNumber":52,"Velocity":67,"Duration":86128,"SoundDuration":86128,"Delta":474159267},{"NoteNumber":76,"Velocity":70,"Duration":48803,"SoundDuration":48803,"Delta":474183698},{"NoteNumber":78,"Velocity":71,"Duration":49394,"SoundDuration":49394,"Delta":474232502},{"NoteNumber":80,"Velocity":72,"Duration":48555,"SoundDuration":48555,"Delta":474281896},{"NoteNumber":81,"Velocity":73,"Duration":49145,"SoundDuration":49145,"Delta":474330451},{"NoteNumber":61,"Velocity":57,"Duration":85413,"SoundDuration":85413,"Delta":474331163},{"NoteNumber":57,"Velocity":57,"Duration":85413,"SoundDuration":85413,"Delta":474331163},{"NoteNumber":64,"Velocity":68,"Duration":85413,"SoundDuration":85413,"Delta":474331163},{"NoteNumber":83,"Velocity":74,"Duration":49056,"SoundDuration":49056,"Delta":474378884},{"NoteNumber":85,"Velocity":75,"Duration":48220,"SoundDuration":48220,"Delta":474427940},{"NoteNumber":86,"Velocity":76,"Duration":48806,"SoundDuration":48806,"Delta":474476161},{"NoteNumber":49,"Velocity":66,"Duration":84670,"SoundDuration":84670,"Delta":474501657},{"NoteNumber":88,"Velocity":77,"Duration":47978,"SoundDuration":47978,"Delta":474524968},{"NoteNumber":90,"Velocity":78,"Duration":48561,"SoundDuration":48561,"Delta":474572947},{"NoteNumber":92,"Velocity":79,"Duration":49841,"SoundDuration":49841,"Delta":474620806},{"NoteNumber":93,"Velocity":80,"Duration":48319,"SoundDuration":48319,"Delta":474670648},{"NoteNumber":57,"Velocity":57,"Duration":84033,"SoundDuration":84033,"Delta":474670648},{"NoteNumber":61,"Velocity":57,"Duration":84033,"SoundDuration":84033,"Delta":474670648},{"NoteNumber":64,"Velocity":68,"Duration":84033,"SoundDuration":84033,"Delta":474670648},{"NoteNumber":95,"Velocity":81,"Duration":47618,"SoundDuration":47618,"Delta":474718967},{"NoteNumber":97,"Velocity":82,"Duration":48293,"SoundDuration":48293,"Delta":474766586},{"NoteNumber":98,"Velocity":84,"Duration":47486,"SoundDuration":47486,"Delta":474814182},{"NoteNumber":40,"Velocity":67,"Duration":83798,"SoundDuration":83798,"Delta":474838623},{"NoteNumber":100,"Velocity":85,"Duration":47486,"SoundDuration":47486,"Delta":474862366},{"NoteNumber":102,"Velocity":86,"Duration":48153,"SoundDuration":48153,"Delta":474909853},{"NoteNumber":104,"Velocity":87,"Duration":47353,"SoundDuration":47353,"Delta":474958006},{"NoteNumber":105,"Velocity":88,"Duration":85960,"SoundDuration":85960,"Delta":475006056},{"NoteNumber":57,"Velocity":57,"Duration":85960,"SoundDuration":85960,"Delta":475006056},{"NoteNumber":64,"Velocity":68,"Duration":85960,"SoundDuration":85960,"Delta":475006056},{"NoteNumber":61,"Velocity":57,"Duration":85960,"SoundDuration":85960,"Delta":475006056},{"NoteNumber":49,"Velocity":66,"Duration":85960,"SoundDuration":85960,"Delta":475177976},{"NoteNumber":87,"Velocity":71,"Duration":41322,"SoundDuration":41322,"Delta":475349896},{"NoteNumber":95,"Velocity":71,"Duration":41322,"SoundDuration":41322,"Delta":475349896},{"NoteNumber":56,"Velocity":57,"Duration":82531,"SoundDuration":82531,"Delta":475349896},{"NoteNumber":61,"Velocity":57,"Duration":82531,"SoundDuration":82531,"Delta":475349896},{"NoteNumber":65,"Velocity":68,"Duration":82531,"SoundDuration":82531,"Delta":475349896},{"NoteNumber":97,"Velocity":75,"Duration":41208,"SoundDuration":41208,"Delta":475391218},{"NoteNumber":99,"Velocity":79,"Duration":27472,"SoundDuration":27472,"Delta":475432427},{"NoteNumber":49,"Velocity":67,"Duration":84506,"SoundDuration":84506,"Delta":475514845},{"NoteNumber":83,"Velocity":71,"Duration":41095,"SoundDuration":41095,"Delta":475683859},{"NoteNumber":92,"Velocity":71,"Duration":41095,"SoundDuration":41095,"Delta":475683859},{"NoteNumber":56,"Velocity":57,"Duration":82191,"SoundDuration":82191,"Delta":475683859},{"NoteNumber":65,"Velocity":68,"Duration":82191,"SoundDuration":82191,"Delta":475683859},{"NoteNumber":61,"Velocity":57,"Duration":82191,"SoundDuration":82191,"Delta":475683859},{"NoteNumber":94,"Velocity":75,"Duration":41095,"SoundDuration":41095,"Delta":475724954},{"NoteNumber":95,"Velocity":80,"Duration":27397,"SoundDuration":27397,"Delta":475766050},{"NoteNumber":44,"Velocity":66,"Duration":84269,"SoundDuration":84269,"Delta":475848242},{"NoteNumber":80,"Velocity":71,"Duration":41095,"SoundDuration":41095,"Delta":476016782},{"NoteNumber":89,"Velocity":71,"Duration":41095,"SoundDuration":41095,"Delta":476016782},{"NoteNumber":56,"Velocity":57,"Duration":82191,"SoundDuration":82191,"Delta":476016782},{"NoteNumber":65,"Velocity":68,"Duration":82191,"SoundDuration":82191,"Delta":476016782},{"NoteNumber":61,"Velocity":57,"Duration":82191,"SoundDuration":82191,"Delta":476016782},{"NoteNumber":90,"Velocity":75,"Duration":41095,"SoundDuration":41095,"Delta":476057877},{"NoteNumber":92,"Velocity":80,"Duration":27397,"SoundDuration":27397,"Delta":476098973},{"NoteNumber":37,"Velocity":67,"Duration":84745,"SoundDuration":84745,"Delta":476181165},{"NoteNumber":85,"Velocity":71,"Duration":41322,"SoundDuration":41322,"Delta":476350657},{"NoteNumber":77,"Velocity":71,"Duration":41322,"SoundDuration":41322,"Delta":476350657},{"NoteNumber":65,"Velocity":68,"Duration":82644,"SoundDuration":82644,"Delta":476350657},{"NoteNumber":56,"Velocity":57,"Duration":82644,"SoundDuration":82644,"Delta":476350657},{"NoteNumber":61,"Velocity":57,"Duration":82644,"SoundDuration":82644,"Delta":476350657},{"NoteNumber":87,"Velocity":75,"Duration":41322,"SoundDuration":41322,"Delta":476391979},{"NoteNumber":89,"Velocity":80,"Duration":27548,"SoundDuration":27548,"Delta":476433301},{"NoteNumber":49,"Velocity":66,"Duration":84745,"SoundDuration":84745,"Delta":476516997},{"NoteNumber":66,"Velocity":66,"Duration":49999,"SoundDuration":49999,"Delta":476687078},{"NoteNumber":61,"Velocity":68,"Duration":86897,"SoundDuration":86897,"Delta":476687078},{"NoteNumber":58,"Velocity":57,"Duration":86897,"SoundDuration":86897,"Delta":476687078},{"NoteNumber":68,"Velocity":67,"Duration":49181,"SoundDuration":49181,"Delta":476737078},{"NoteNumber":70,"Velocity":68,"Duration":49774,"SoundDuration":49774,"Delta":476786260},{"NoteNumber":71,"Velocity":69,"Duration":49647,"SoundDuration":49647,"Delta":476835313},{"NoteNumber":49,"Velocity":67,"Duration":86128,"SoundDuration":86128,"Delta":476860530},{"NoteNumber":73,"Velocity":70,"Duration":48803,"SoundDuration":48803,"Delta":476884961},{"NoteNumber":75,"Velocity":71,"Duration":49394,"SoundDuration":49394,"Delta":476933764},{"NoteNumber":77,"Velocity":72,"Duration":48555,"SoundDuration":48555,"Delta":476983159},{"NoteNumber":78,"Velocity":73,"Duration":49145,"SoundDuration":49145,"Delta":477031714},{"NoteNumber":58,"Velocity":57,"Duration":85413,"SoundDuration":85413,"Delta":477032426},{"NoteNumber":66,"Velocity":68,"Duration":85413,"SoundDuration":85413,"Delta":477032426},{"NoteNumber":61,"Velocity":57,"Duration":85413,"SoundDuration":85413,"Delta":477032426},{"NoteNumber":80,"Velocity":74,"Duration":49056,"SoundDuration":49056,"Delta":477080147},{"NoteNumber":82,"Velocity":75,"Duration":48220,"SoundDuration":48220,"Delta":477129203},{"NoteNumber":83,"Velocity":76,"Duration":48806,"SoundDuration":48806,"Delta":477177424},{"NoteNumber":46,"Velocity":66,"Duration":84670,"SoundDuration":84670,"Delta":477202920},{"NoteNumber":85,"Velocity":77,"Duration":47978,"SoundDuration":47978,"Delta":477226231},{"NoteNumber":87,"Velocity":78,"Duration":48561,"SoundDuration":48561,"Delta":477274210},{"NoteNumber":89,"Velocity":79,"Duration":49841,"SoundDuration":49841,"Delta":477322069},{"NoteNumber":90,"Velocity":80,"Duration":48319,"SoundDuration":48319,"Delta":477371911},{"NoteNumber":61,"Velocity":57,"Duration":84033,"SoundDuration":84033,"Delta":477371911},{"NoteNumber":58,"Velocity":57,"Duration":84033,"SoundDuration":84033,"Delta":477371911},{"NoteNumber":66,"Velocity":68,"Duration":84033,"SoundDuration":84033,"Delta":477371911},{"NoteNumber":92,"Velocity":81,"Duration":47618,"SoundDuration":47618,"Delta":477420230},{"NoteNumber":94,"Velocity":82,"Duration":48293,"SoundDuration":48293,"Delta":477467849},{"NoteNumber":95,"Velocity":84,"Duration":47486,"SoundDuration":47486,"Delta":477515445},{"NoteNumber":37,"Velocity":67,"Duration":83798,"SoundDuration":83798,"Delta":477539886},{"NoteNumber":97,"Velocity":85,"Duration":47486,"SoundDuration":47486,"Delta":477563629},{"NoteNumber":99,"Velocity":86,"Duration":48153,"SoundDuration":48153,"Delta":477611115},{"NoteNumber":101,"Velocity":87,"Duration":47353,"SoundDuration":47353,"Delta":477659269},{"NoteNumber":102,"Velocity":88,"Duration":85960,"SoundDuration":85960,"Delta":477707319},{"NoteNumber":61,"Velocity":57,"Duration":85960,"SoundDuration":85960,"Delta":477707319},{"NoteNumber":58,"Velocity":57,"Duration":85960,"SoundDuration":85960,"Delta":477707319},{"NoteNumber":66,"Velocity":68,"Duration":85960,"SoundDuration":85960,"Delta":477707319},{"NoteNumber":90,"Velocity":71,"Duration":85960,"SoundDuration":85960,"Delta":477879239},{"NoteNumber":94,"Velocity":71,"Duration":85960,"SoundDuration":85960,"Delta":477879239},{"NoteNumber":49,"Velocity":66,"Duration":85960,"SoundDuration":85960,"Delta":477879239},{"NoteNumber":95,"Velocity":71,"Duration":41322,"SoundDuration":41322,"Delta":478051159},{"NoteNumber":87,"Velocity":71,"Duration":41322,"SoundDuration":41322,"Delta":478051159},{"NoteNumber":65,"Velocity":68,"Duration":82531,"SoundDuration":82531,"Delta":478051159},{"NoteNumber":56,"Velocity":57,"Duration":82531,"SoundDuration":82531,"Delta":478051159},{"NoteNumber":61,"Velocity":57,"Duration":82531,"SoundDuration":82531,"Delta":478051159},{"NoteNumber":97,"Velocity":75,"Duration":41208,"SoundDuration":41208,"Delta":478092481},{"NoteNumber":99,"Velocity":79,"Duration":27472,"SoundDuration":27472,"Delta":478133690},{"NoteNumber":49,"Velocity":67,"Duration":84506,"SoundDuration":84506,"Delta":478216107},{"NoteNumber":83,"Velocity":71,"Duration":41095,"SoundDuration":41095,"Delta":478385121},{"NoteNumber":92,"Velocity":71,"Duration":41095,"SoundDuration":41095,"Delta":478385121},{"NoteNumber":61,"Velocity":57,"Duration":82191,"SoundDuration":82191,"Delta":478385121},{"NoteNumber":65,"Velocity":68,"Duration":82191,"SoundDuration":82191,"Delta":478385121},{"NoteNumber":56,"Velocity":57,"Duration":82191,"SoundDuration":82191,"Delta":478385121},{"NoteNumber":94,"Velocity":75,"Duration":41095,"SoundDuration":41095,"Delta":478426217},{"NoteNumber":95,"Velocity":80,"Duration":27397,"SoundDuration":27397,"Delta":478467313},{"NoteNumber":44,"Velocity":66,"Duration":84269,"SoundDuration":84269,"Delta":478549505},{"NoteNumber":89,"Velocity":71,"Duration":41095,"SoundDuration":41095,"Delta":478718044},{"NoteNumber":80,"Velocity":71,"Duration":41095,"SoundDuration":41095,"Delta":478718044},{"NoteNumber":61,"Velocity":57,"Duration":82191,"SoundDuration":82191,"Delta":478718044},{"NoteNumber":56,"Velocity":57,"Duration":82191,"SoundDuration":82191,"Delta":478718044},{"NoteNumber":65,"Velocity":68,"Duration":82191,"SoundDuration":82191,"Delta":478718044},{"NoteNumber":90,"Velocity":75,"Duration":41095,"SoundDuration":41095,"Delta":478759140},{"NoteNumber":92,"Velocity":80,"Duration":27397,"SoundDuration":27397,"Delta":478800236},{"NoteNumber":37,"Velocity":67,"Duration":84745,"SoundDuration":84745,"Delta":478882428},{"NoteNumber":85,"Velocity":71,"Duration":41322,"SoundDuration":41322,"Delta":479051919},{"NoteNumber":77,"Velocity":71,"Duration":41322,"SoundDuration":41322,"Delta":479051919},{"NoteNumber":61,"Velocity":57,"Duration":82644,"SoundDuration":82644,"Delta":479051919},{"NoteNumber":65,"Velocity":68,"Duration":82644,"SoundDuration":82644,"Delta":479051919},{"NoteNumber":56,"Velocity":57,"Duration":82644,"SoundDuration":82644,"Delta":479051919},{"NoteNumber":87,"Velocity":75,"Duration":41322,"SoundDuration":41322,"Delta":479093242},{"NoteNumber":89,"Velocity":80,"Duration":27548,"SoundDuration":27548,"Delta":479134564},{"NoteNumber":49,"Velocity":66,"Duration":84745,"SoundDuration":84745,"Delta":479218259},{"NoteNumber":66,"Velocity":66,"Duration":49999,"SoundDuration":49999,"Delta":479388341},{"NoteNumber":61,"Velocity":68,"Duration":86897,"SoundDuration":86897,"Delta":479388341},{"NoteNumber":58,"Velocity":57,"Duration":86897,"SoundDuration":86897,"Delta":479388341},{"NoteNumber":68,"Velocity":67,"Duration":49181,"SoundDuration":49181,"Delta":479438341},{"NoteNumber":70,"Velocity":68,"Duration":49774,"SoundDuration":49774,"Delta":479487522},{"NoteNumber":71,"Velocity":69,"Duration":49647,"SoundDuration":49647,"Delta":479536576},{"NoteNumber":49,"Velocity":67,"Duration":86128,"SoundDuration":86128,"Delta":479561792},{"NoteNumber":73,"Velocity":70,"Duration":48803,"SoundDuration":48803,"Delta":479586224},{"NoteNumber":75,"Velocity":71,"Duration":49394,"SoundDuration":49394,"Delta":479635027},{"NoteNumber":77,"Velocity":72,"Duration":48555,"SoundDuration":48555,"Delta":479684421},{"NoteNumber":78,"Velocity":73,"Duration":49145,"SoundDuration":49145,"Delta":479732977},{"NoteNumber":58,"Velocity":57,"Duration":85413,"SoundDuration":85413,"Delta":479733689},{"NoteNumber":61,"Velocity":57,"Duration":85413,"SoundDuration":85413,"Delta":479733689},{"NoteNumber":66,"Velocity":68,"Duration":85413,"SoundDuration":85413,"Delta":479733689},{"NoteNumber":80,"Velocity":74,"Duration":49056,"SoundDuration":49056,"Delta":479781410},{"NoteNumber":82,"Velocity":75,"Duration":48220,"SoundDuration":48220,"Delta":479830466},{"NoteNumber":83,"Velocity":76,"Duration":48806,"SoundDuration":48806,"Delta":479878687},{"NoteNumber":46,"Velocity":66,"Duration":84670,"SoundDuration":84670,"Delta":479904182},{"NoteNumber":85,"Velocity":77,"Duration":47978,"SoundDuration":47978,"Delta":479927494},{"NoteNumber":87,"Velocity":78,"Duration":48561,"SoundDuration":48561,"Delta":479975472},{"NoteNumber":89,"Velocity":79,"Duration":49841,"SoundDuration":49841,"Delta":480023332},{"NoteNumber":90,"Velocity":80,"Duration":67226,"SoundDuration":67226,"Delta":480073174},{"NoteNumber":66,"Velocity":68,"Duration":84033,"SoundDuration":84033,"Delta":480073174},{"NoteNumber":61,"Velocity":57,"Duration":84033,"SoundDuration":84033,"Delta":480073174},{"NoteNumber":58,"Velocity":57,"Duration":84033,"SoundDuration":84033,"Delta":480073174},{"NoteNumber":92,"Velocity":81,"Duration":67226,"SoundDuration":67226,"Delta":480140401},{"NoteNumber":94,"Velocity":82,"Duration":67041,"SoundDuration":67041,"Delta":480207627},{"NoteNumber":37,"Velocity":67,"Duration":83798,"SoundDuration":83798,"Delta":480241149},{"NoteNumber":95,"Velocity":84,"Duration":67039,"SoundDuration":67039,"Delta":480274669},{"NoteNumber":97,"Velocity":85,"Duration":67099,"SoundDuration":67099,"Delta":480341708},{"NoteNumber":99,"Velocity":88,"Duration":70316,"SoundDuration":70316,"Delta":480408808},{"NoteNumber":61,"Velocity":57,"Duration":88178,"SoundDuration":88178,"Delta":480408808},{"NoteNumber":58,"Velocity":57,"Duration":88178,"SoundDuration":88178,"Delta":480408808},{"NoteNumber":66,"Velocity":68,"Duration":88178,"SoundDuration":88178,"Delta":480408808},{"NoteNumber":97,"Velocity":86,"Duration":72185,"SoundDuration":72185,"Delta":480479124},{"NoteNumber":96,"Velocity":80,"Duration":74126,"SoundDuration":74126,"Delta":480551310},{"NoteNumber":49,"Velocity":66,"Duration":93143,"SoundDuration":93143,"Delta":480588193},{"NoteNumber":97,"Velocity":86,"Duration":74534,"SoundDuration":74534,"Delta":480625436},{"NoteNumber":99,"Velocity":88,"Duration":117770,"SoundDuration":117770,"Delta":480699970},{"NoteNumber":101,"Velocity":89,"Duration":84745,"SoundDuration":84745,"Delta":480817741},{"NoteNumber":56,"Velocity":42,"Duration":84745,"SoundDuration":84745,"Delta":480817741},{"NoteNumber":97,"Velocity":67,"Duration":63559,"SoundDuration":63559,"Delta":480902487},{"NoteNumber":97,"Velocity":83,"Duration":79802,"SoundDuration":79802,"Delta":480987233},{"NoteNumber":61,"Velocity":37,"Duration":84745,"SoundDuration":84745,"Delta":480987233},{"NoteNumber":65,"Velocity":37,"Duration":84745,"SoundDuration":84745,"Delta":480987233},{"NoteNumber":71,"Velocity":37,"Duration":84745,"SoundDuration":84745,"Delta":480987233},{"NoteNumber":97,"Velocity":64,"Duration":63559,"SoundDuration":63559,"Delta":481071978},{"NoteNumber":89,"Velocity":82,"Duration":87719,"SoundDuration":87719,"Delta":481156724},{"NoteNumber":49,"Velocity":42,"Duration":87719,"SoundDuration":87719,"Delta":481156724},{"NoteNumber":97,"Velocity":66,"Duration":65789,"SoundDuration":65789,"Delta":481244443},{"NoteNumber":97,"Velocity":76,"Duration":91129,"SoundDuration":91129,"Delta":481332163},{"NoteNumber":65,"Velocity":37,"Duration":96774,"SoundDuration":96774,"Delta":481332163},{"NoteNumber":61,"Velocity":37,"Duration":96774,"SoundDuration":96774,"Delta":481332163},{"NoteNumber":71,"Velocity":37,"Duration":96774,"SoundDuration":96774,"Delta":481332163},{"NoteNumber":97,"Velocity":60,"Duration":72580,"SoundDuration":72580,"Delta":481428937},{"NoteNumber":101,"Velocity":80,"Duration":90909,"SoundDuration":90909,"Delta":481525711},{"NoteNumber":68,"Velocity":37,"Duration":90909,"SoundDuration":90909,"Delta":481525711},{"NoteNumber":72,"Velocity":42,"Duration":90909,"SoundDuration":90909,"Delta":481525711},{"NoteNumber":97,"Velocity":61,"Duration":68181,"SoundDuration":68181,"Delta":481616620},{"NoteNumber":97,"Velocity":78,"Duration":93543,"SoundDuration":93543,"Delta":481707529},{"NoteNumber":73,"Velocity":37,"Duration":99337,"SoundDuration":99337,"Delta":481707529},{"NoteNumber":65,"Velocity":37,"Duration":99337,"SoundDuration":99337,"Delta":481707529},{"NoteNumber":97,"Velocity":60,"Duration":78947,"SoundDuration":78947,"Delta":481806867},{"NoteNumber":89,"Velocity":77,"Duration":93457,"SoundDuration":93457,"Delta":481912130},{"NoteNumber":71,"Velocity":48,"Duration":280373,"SoundDuration":280373,"Delta":481912130},{"NoteNumber":68,"Velocity":42,"Duration":396653,"SoundDuration":396653,"Delta":481912130},{"NoteNumber":97,"Velocity":63,"Duration":70093,"SoundDuration":70093,"Delta":482005588},{"NoteNumber":97,"Velocity":77,"Duration":88006,"SoundDuration":88006,"Delta":482099046},{"NoteNumber":97,"Velocity":63,"Duration":87209,"SoundDuration":87209,"Delta":482192504},{"NoteNumber":73,"Velocity":37,"Duration":116279,"SoundDuration":116279,"Delta":482192504},{"NoteNumber":102,"Velocity":85,"Duration":85714,"SoundDuration":85714,"Delta":482308783},{"NoteNumber":54,"Velocity":42,"Duration":85714,"SoundDuration":85714,"Delta":482308783},{"NoteNumber":97,"Velocity":64,"Duration":64285,"SoundDuration":64285,"Delta":482394497},{"NoteNumber":97,"Velocity":83,"Duration":80714,"SoundDuration":80714,"Delta":482480212},{"NoteNumber":66,"Velocity":37,"Duration":85714,"SoundDuration":85714,"Delta":482480212},{"NoteNumber":61,"Velocity":37,"Duration":85714,"SoundDuration":85714,"Delta":482480212},{"NoteNumber":70,"Velocity":37,"Duration":85714,"SoundDuration":85714,"Delta":482480212},{"NoteNumber":97,"Velocity":64,"Duration":64285,"SoundDuration":64285,"Delta":482565926},{"NoteNumber":90,"Velocity":82,"Duration":89555,"SoundDuration":89555,"Delta":482651640},{"NoteNumber":49,"Velocity":42,"Duration":89555,"SoundDuration":89555,"Delta":482651640},{"NoteNumber":97,"Velocity":66,"Duration":66765,"SoundDuration":66765,"Delta":482741195},{"NoteNumber":97,"Velocity":76,"Duration":91424,"SoundDuration":91424,"Delta":482830216},{"NoteNumber":66,"Velocity":37,"Duration":97087,"SoundDuration":97087,"Delta":482830216},{"NoteNumber":70,"Velocity":37,"Duration":97087,"SoundDuration":97087,"Delta":482830216},{"NoteNumber":61,"Velocity":37,"Duration":97087,"SoundDuration":97087,"Delta":482830216},{"NoteNumber":97,"Velocity":60,"Duration":72815,"SoundDuration":72815,"Delta":482927304},{"NoteNumber":102,"Velocity":80,"Duration":90634,"SoundDuration":90634,"Delta":483024391},{"NoteNumber":72,"Velocity":42,"Duration":90634,"SoundDuration":90634,"Delta":483024391},{"NoteNumber":69,"Velocity":37,"Duration":90634,"SoundDuration":90634,"Delta":483024391},{"NoteNumber":97,"Velocity":61,"Duration":67975,"SoundDuration":67975,"Delta":483115026},{"NoteNumber":97,"Velocity":78,"Duration":91129,"SoundDuration":91129,"Delta":483205660},{"NoteNumber":73,"Velocity":37,"Duration":96774,"SoundDuration":96774,"Delta":483205660},{"NoteNumber":70,"Velocity":37,"Duration":96774,"SoundDuration":96774,"Delta":483205660},{"NoteNumber":97,"Velocity":60,"Duration":80071,"SoundDuration":80071,"Delta":483302434},{"NoteNumber":90,"Velocity":77,"Duration":93167,"SoundDuration":93167,"Delta":483409196},{"NoteNumber":70,"Velocity":48,"Duration":279503,"SoundDuration":279503,"Delta":483409196},{"NoteNumber":66,"Velocity":42,"Duration":395782,"SoundDuration":395782,"Delta":483409196},{"NoteNumber":97,"Velocity":63,"Duration":69875,"SoundDuration":69875,"Delta":483502364},{"NoteNumber":97,"Velocity":77,"Duration":87732,"SoundDuration":87732,"Delta":483595531},{"NoteNumber":97,"Velocity":63,"Duration":87209,"SoundDuration":87209,"Delta":483688699},{"NoteNumber":73,"Velocity":37,"Duration":116279,"SoundDuration":116279,"Delta":483688699},{"NoteNumber":101,"Velocity":87,"Duration":87209,"SoundDuration":87209,"Delta":483804978},{"NoteNumber":56,"Velocity":42,"Duration":87209,"SoundDuration":87209,"Delta":483804978},{"NoteNumber":97,"Velocity":67,"Duration":65406,"SoundDuration":65406,"Delta":483892187},{"NoteNumber":97,"Velocity":83,"Duration":82122,"SoundDuration":82122,"Delta":483979397},{"NoteNumber":71,"Velocity":37,"Duration":87209,"SoundDuration":87209,"Delta":483979397},{"NoteNumber":65,"Velocity":37,"Duration":87209,"SoundDuration":87209,"Delta":483979397},{"NoteNumber":61,"Velocity":37,"Duration":87209,"SoundDuration":87209,"Delta":483979397},{"NoteNumber":97,"Velocity":64,"Duration":65406,"SoundDuration":65406,"Delta":484066606},{"NoteNumber":89,"Velocity":82,"Duration":89820,"SoundDuration":89820,"Delta":484153815},{"NoteNumber":49,"Velocity":42,"Duration":89820,"SoundDuration":89820,"Delta":484153815},{"NoteNumber":97,"Velocity":66,"Duration":67365,"SoundDuration":67365,"Delta":484243635},{"NoteNumber":97,"Velocity":76,"Duration":92320,"SoundDuration":92320,"Delta":484333456},{"NoteNumber":65,"Velocity":37,"Duration":98039,"SoundDuration":98039,"Delta":484333456},{"NoteNumber":71,"Velocity":37,"Duration":98039,"SoundDuration":98039,"Delta":484333456},{"NoteNumber":61,"Velocity":37,"Duration":98039,"SoundDuration":98039,"Delta":484333456},{"NoteNumber":97,"Velocity":60,"Duration":73529,"SoundDuration":73529,"Delta":484431495},{"NoteNumber":101,"Velocity":80,"Duration":91463,"SoundDuration":91463,"Delta":484529534},{"NoteNumber":72,"Velocity":42,"Duration":91463,"SoundDuration":91463,"Delta":484529534},{"NoteNumber":68,"Velocity":37,"Duration":91463,"SoundDuration":91463,"Delta":484529534},{"NoteNumber":97,"Velocity":61,"Duration":68597,"SoundDuration":68597,"Delta":484620998},{"NoteNumber":97,"Velocity":78,"Duration":93234,"SoundDuration":93234,"Delta":484712461},{"NoteNumber":65,"Velocity":37,"Duration":99010,"SoundDuration":99010,"Delta":484712461},{"NoteNumber":73,"Velocity":37,"Duration":99010,"SoundDuration":99010,"Delta":484712461},{"NoteNumber":97,"Velocity":60,"Duration":80071,"SoundDuration":80071,"Delta":484811471},{"NoteNumber":89,"Velocity":77,"Duration":93750,"SoundDuration":93750,"Delta":484918233},{"NoteNumber":71,"Velocity":48,"Duration":291193,"SoundDuration":291193,"Delta":484918233},{"NoteNumber":68,"Velocity":42,"Duration":398773,"SoundDuration":398773,"Delta":484918233},{"NoteNumber":97,"Velocity":63,"Duration":70312,"SoundDuration":70312,"Delta":485011983},{"NoteNumber":97,"Velocity":77,"Duration":97064,"SoundDuration":97064,"Delta":485105733},{"NoteNumber":97,"Velocity":63,"Duration":80685,"SoundDuration":80685,"Delta":485209426},{"NoteNumber":73,"Velocity":37,"Duration":107580,"SoundDuration":107580,"Delta":485209426},{"NoteNumber":102,"Velocity":87,"Duration":85960,"SoundDuration":85960,"Delta":485317007},{"NoteNumber":54,"Velocity":42,"Duration":85960,"SoundDuration":85960,"Delta":485317007},{"NoteNumber":97,"Velocity":67,"Duration":64469,"SoundDuration":64469,"Delta":485402967},{"NoteNumber":97,"Velocity":83,"Duration":80945,"SoundDuration":80945,"Delta":485488927},{"NoteNumber":66,"Velocity":37,"Duration":85960,"SoundDuration":85960,"Delta":485488927},{"NoteNumber":61,"Velocity":37,"Duration":85960,"SoundDuration":85960,"Delta":485488927},{"NoteNumber":70,"Velocity":37,"Duration":85960,"SoundDuration":85960,"Delta":485488927},{"NoteNumber":97,"Velocity":64,"Duration":64469,"SoundDuration":64469,"Delta":485574887},{"NoteNumber":90,"Velocity":82,"Duration":90361,"SoundDuration":90361,"Delta":485660847},{"NoteNumber":49,"Velocity":42,"Duration":90361,"SoundDuration":90361,"Delta":485660847},{"NoteNumber":97,"Velocity":66,"Duration":67771,"SoundDuration":67771,"Delta":485751208},{"NoteNumber":97,"Velocity":76,"Duration":91720,"SoundDuration":91720,"Delta":485841570},{"NoteNumber":70,"Velocity":37,"Duration":97402,"SoundDuration":97402,"Delta":485841570},{"NoteNumber":66,"Velocity":37,"Duration":97402,"SoundDuration":97402,"Delta":485841570},{"NoteNumber":61,"Velocity":37,"Duration":97402,"SoundDuration":97402,"Delta":485841570},{"NoteNumber":97,"Velocity":60,"Duration":73051,"SoundDuration":73051,"Delta":485938972},{"NoteNumber":102,"Velocity":80,"Duration":89552,"SoundDuration":89552,"Delta":486036375},{"NoteNumber":72,"Velocity":42,"Duration":89552,"SoundDuration":89552,"Delta":486036375},{"NoteNumber":69,"Velocity":37,"Duration":89552,"SoundDuration":89552,"Delta":486036375},{"NoteNumber":97,"Velocity":61,"Duration":67164,"SoundDuration":67164,"Delta":486125927},{"NoteNumber":97,"Velocity":78,"Duration":89682,"SoundDuration":89682,"Delta":486215479},{"NoteNumber":70,"Velocity":37,"Duration":95237,"SoundDuration":95237,"Delta":486215479},{"NoteNumber":73,"Velocity":37,"Duration":95237,"SoundDuration":95237,"Delta":486215479},{"NoteNumber":97,"Velocity":60,"Duration":78397,"SoundDuration":78397,"Delta":486310717},{"NoteNumber":90,"Velocity":77,"Duration":92024,"SoundDuration":92024,"Delta":486415247},{"NoteNumber":70,"Velocity":48,"Duration":276073,"SoundDuration":276073,"Delta":486415247},{"NoteNumber":66,"Velocity":42,"Duration":403809,"SoundDuration":403809,"Delta":486415247},{"NoteNumber":97,"Velocity":63,"Duration":69018,"SoundDuration":69018,"Delta":486507271},{"NoteNumber":97,"Velocity":77,"Duration":86656,"SoundDuration":86656,"Delta":486599296},{"NoteNumber":97,"Velocity":63,"Duration":95801,"SoundDuration":95801,"Delta":486691320},{"NoteNumber":73,"Velocity":37,"Duration":127735,"SoundDuration":127735,"Delta":486691320},{"NoteNumber":101,"Velocity":89,"Duration":87976,"SoundDuration":87976,"Delta":486819056},{"NoteNumber":56,"Velocity":42,"Duration":87976,"SoundDuration":87976,"Delta":486819056},{"NoteNumber":97,"Velocity":67,"Duration":65982,"SoundDuration":65982,"Delta":486907032},{"NoteNumber":97,"Velocity":83,"Duration":82844,"SoundDuration":82844,"Delta":486995009},{"NoteNumber":61,"Velocity":37,"Duration":87976,"SoundDuration":87976,"Delta":486995009},{"NoteNumber":65,"Velocity":37,"Duration":87976,"SoundDuration":87976,"Delta":486995009},{"NoteNumber":71,"Velocity":37,"Duration":87976,"SoundDuration":87976,"Delta":486995009},{"NoteNumber":97,"Velocity":64,"Duration":65982,"SoundDuration":65982,"Delta":487082985},{"NoteNumber":89,"Velocity":82,"Duration":91185,"SoundDuration":91185,"Delta":487170962},{"NoteNumber":49,"Velocity":42,"Duration":91185,"SoundDuration":91185,"Delta":487170962},{"NoteNumber":97,"Velocity":66,"Duration":70022,"SoundDuration":70022,"Delta":487262147},{"NoteNumber":97,"Velocity":76,"Duration":91129,"SoundDuration":91129,"Delta":487356600},{"NoteNumber":71,"Velocity":37,"Duration":96774,"SoundDuration":96774,"Delta":487356600},{"NoteNumber":61,"Velocity":37,"Duration":96774,"SoundDuration":96774,"Delta":487356600},{"NoteNumber":65,"Velocity":37,"Duration":96774,"SoundDuration":96774,"Delta":487356600},{"NoteNumber":97,"Velocity":60,"Duration":72580,"SoundDuration":72580,"Delta":487453374},{"NoteNumber":101,"Velocity":80,"Duration":92879,"SoundDuration":92879,"Delta":487550148},{"NoteNumber":68,"Velocity":37,"Duration":92879,"SoundDuration":92879,"Delta":487550148},{"NoteNumber":72,"Velocity":42,"Duration":92879,"SoundDuration":92879,"Delta":487550148},{"NoteNumber":97,"Velocity":61,"Duration":69659,"SoundDuration":69659,"Delta":487643028},{"NoteNumber":97,"Velocity":78,"Duration":93543,"SoundDuration":93543,"Delta":487735907},{"NoteNumber":73,"Velocity":37,"Duration":99337,"SoundDuration":99337,"Delta":487735907},{"NoteNumber":65,"Velocity":37,"Duration":99337,"SoundDuration":99337,"Delta":487735907},{"NoteNumber":97,"Velocity":60,"Duration":85551,"SoundDuration":85551,"Delta":487835245},{"NoteNumber":89,"Velocity":77,"Duration":98039,"SoundDuration":98039,"Delta":487949313},{"NoteNumber":71,"Velocity":48,"Duration":294117,"SoundDuration":294117,"Delta":487949313},{"NoteNumber":68,"Velocity":42,"Duration":410396,"SoundDuration":410396,"Delta":487949313},{"NoteNumber":97,"Velocity":63,"Duration":73529,"SoundDuration":73529,"Delta":488047352},{"NoteNumber":97,"Velocity":77,"Duration":92320,"SoundDuration":92320,"Delta":488145392},{"NoteNumber":97,"Velocity":63,"Duration":87209,"SoundDuration":87209,"Delta":488243431},{"NoteNumber":73,"Velocity":37,"Duration":116279,"SoundDuration":116279,"Delta":488243431},{"NoteNumber":101,"Velocity":76,"Duration":99667,"SoundDuration":99667,"Delta":488359710},{"NoteNumber":84,"Velocity":48,"Duration":99667,"SoundDuration":99667,"Delta":488359710},{"NoteNumber":80,"Velocity":37,"Duration":99667,"SoundDuration":99667,"Delta":488359710},{"NoteNumber":97,"Velocity":57,"Duration":74750,"SoundDuration":74750,"Delta":488459378},{"NoteNumber":97,"Velocity":74,"Duration":100600,"SoundDuration":100600,"Delta":488559045},{"NoteNumber":85,"Velocity":48,"Duration":107305,"SoundDuration":107305,"Delta":488559045},{"NoteNumber":77,"Velocity":37,"Duration":107305,"SoundDuration":107305,"Delta":488559045},{"NoteNumber":97,"Velocity":57,"Duration":86206,"SoundDuration":86206,"Delta":488666351},{"NoteNumber":89,"Velocity":73,"Duration":102739,"SoundDuration":102739,"Delta":488781293},{"NoteNumber":83,"Velocity":56,"Duration":315369,"SoundDuration":315369,"Delta":488781293},{"NoteNumber":80,"Velocity":42,"Duration":425259,"SoundDuration":425259,"Delta":488781293},{"NoteNumber":97,"Velocity":59,"Duration":77054,"SoundDuration":77054,"Delta":488884033},{"NoteNumber":97,"Velocity":68,"Duration":103479,"SoundDuration":103479,"Delta":488986773},{"NoteNumber":97,"Velocity":54,"Duration":82417,"SoundDuration":82417,"Delta":489096663},{"NoteNumber":85,"Velocity":37,"Duration":109890,"SoundDuration":109890,"Delta":489096663},{"NoteNumber":101,"Velocity":72,"Duration":103092,"SoundDuration":103092,"Delta":489206553},{"NoteNumber":84,"Velocity":48,"Duration":103092,"SoundDuration":103092,"Delta":489206553},{"NoteNumber":80,"Velocity":37,"Duration":103092,"SoundDuration":103092,"Delta":489206553},{"NoteNumber":97,"Velocity":54,"Duration":77319,"SoundDuration":77319,"Delta":489309645},{"NoteNumber":97,"Velocity":70,"Duration":96088,"SoundDuration":96088,"Delta":489412738},{"NoteNumber":77,"Velocity":37,"Duration":102040,"SoundDuration":102040,"Delta":489412738},{"NoteNumber":85,"Velocity":49,"Duration":102040,"SoundDuration":102040,"Delta":489412738},{"NoteNumber":97,"Velocity":54,"Duration":92213,"SoundDuration":92213,"Delta":489514779},{"NoteNumber":89,"Velocity":69,"Duration":107142,"SoundDuration":107142,"Delta":489637730},{"NoteNumber":87,"Velocity":56,"Duration":321428,"SoundDuration":321428,"Delta":489637730},{"NoteNumber":83,"Velocity":42,"Duration":321428,"SoundDuration":321428,"Delta":489637730},{"NoteNumber":97,"Velocity":56,"Duration":80357,"SoundDuration":80357,"Delta":489744872},{"NoteNumber":97,"Velocity":69,"Duration":100892,"SoundDuration":100892,"Delta":489852015},{"NoteNumber":97,"Velocity":56,"Duration":93360,"SoundDuration":93360,"Delta":489959158},{"NoteNumber":80,"Velocity":38,"Duration":123325,"SoundDuration":123325,"Delta":489959158},{"NoteNumber":85,"Velocity":37,"Duration":123325,"SoundDuration":123325,"Delta":489959158},{"NoteNumber":101,"Velocity":78,"Duration":107245,"SoundDuration":107245,"Delta":490082483},{"NoteNumber":97,"Velocity":60,"Duration":80780,"SoundDuration":80780,"Delta":490189728},{"NoteNumber":97,"Velocity":73,"Duration":102041,"SoundDuration":102041,"Delta":490297487},{"NoteNumber":97,"Velocity":56,"Duration":81660,"SoundDuration":81660,"Delta":490405869},{"NoteNumber":89,"Velocity":71,"Duration":109569,"SoundDuration":109569,"Delta":490514802},{"NoteNumber":97,"Velocity":56,"Duration":82558,"SoundDuration":82558,"Delta":490624372},{"NoteNumber":97,"Velocity":65,"Duration":104301,"SoundDuration":104301,"Delta":490734504},{"NoteNumber":97,"Velocity":51,"Duration":83477,"SoundDuration":83477,"Delta":490845287},{"NoteNumber":101,"Velocity":67,"Duration":112606,"SoundDuration":112606,"Delta":490956723},{"NoteNumber":97,"Velocity":50,"Duration":85009,"SoundDuration":85009,"Delta":491069329},{"NoteNumber":97,"Velocity":63,"Duration":107704,"SoundDuration":107704,"Delta":491182787},{"NoteNumber":97,"Velocity":49,"Duration":86420,"SoundDuration":86420,"Delta":491297197},{"NoteNumber":89,"Velocity":62,"Duration":116272,"SoundDuration":116272,"Delta":491412575},{"NoteNumber":97,"Velocity":50,"Duration":87860,"SoundDuration":87860,"Delta":491528847},{"NoteNumber":97,"Velocity":60,"Duration":111372,"SoundDuration":111372,"Delta":491646119},{"NoteNumber":97,"Velocity":49,"Duration":89349,"SoundDuration":89349,"Delta":491764409},{"NoteNumber":101,"Velocity":67,"Duration":120760,"SoundDuration":120760,"Delta":491883683},{"NoteNumber":97,"Velocity":51,"Duration":92147,"SoundDuration":92147,"Delta":492004443},{"NoteNumber":97,"Velocity":63,"Duration":117860,"SoundDuration":117860,"Delta":492127583},{"NoteNumber":97,"Velocity":48,"Duration":95674,"SoundDuration":95674,"Delta":492252827},{"NoteNumber":89,"Velocity":60,"Duration":130133,"SoundDuration":130133,"Delta":492380690},{"NoteNumber":97,"Velocity":48,"Duration":99481,"SoundDuration":99481,"Delta":492510824},{"NoteNumber":97,"Velocity":55,"Duration":127430,"SoundDuration":127430,"Delta":492643788},{"NoteNumber":97,"Velocity":43,"Duration":103551,"SoundDuration":103551,"Delta":492779209},{"NoteNumber":101,"Velocity":56,"Duration":138563,"SoundDuration":138563,"Delta":492917322},{"NoteNumber":97,"Velocity":42,"Duration":104452,"SoundDuration":104452,"Delta":493055886},{"NoteNumber":97,"Velocity":53,"Duration":131960,"SoundDuration":131960,"Delta":493195221},{"NoteNumber":97,"Velocity":41,"Duration":105661,"SoundDuration":105661,"Delta":493335398},{"NoteNumber":89,"Velocity":52,"Duration":141839,"SoundDuration":141839,"Delta":493476437},{"NoteNumber":97,"Velocity":42,"Duration":106934,"SoundDuration":106934,"Delta":493618276},{"NoteNumber":97,"Velocity":50,"Duration":155557,"SoundDuration":155557,"Delta":493760924},{"NoteNumber":97,"Velocity":40,"Duration":142405,"SoundDuration":142405,"Delta":493927558},{"NoteNumber":102,"Velocity":82,"Duration":165745,"SoundDuration":165745,"Delta":494117431},{"NoteNumber":54,"Velocity":42,"Duration":165745,"SoundDuration":165745,"Delta":494117431},{"NoteNumber":66,"Velocity":30,"Duration":154639,"SoundDuration":154639,"Delta":494448923},{"NoteNumber":70,"Velocity":36,"Duration":154639,"SoundDuration":154639,"Delta":494448923},{"NoteNumber":61,"Velocity":30,"Duration":154639,"SoundDuration":154639,"Delta":494448923},{"NoteNumber":78,"Velocity":58,"Duration":289854,"SoundDuration":289854,"Delta":494758201},{"NoteNumber":49,"Velocity":36,"Duration":144927,"SoundDuration":144927,"Delta":494758201},{"NoteNumber":61,"Velocity":30,"Duration":144927,"SoundDuration":144927,"Delta":495048056},{"NoteNumber":70,"Velocity":36,"Duration":144927,"SoundDuration":144927,"Delta":495048056},{"NoteNumber":66,"Velocity":30,"Duration":144927,"SoundDuration":144927,"Delta":495048056},{"NoteNumber":81,"Velocity":67,"Duration":1092861,"SoundDuration":1092861,"Delta":495337911},{"NoteNumber":54,"Velocity":42,"Duration":139535,"SoundDuration":139535,"Delta":495337911},{"NoteNumber":66,"Velocity":36,"Duration":134168,"SoundDuration":134168,"Delta":495616981},{"NoteNumber":61,"Velocity":36,"Duration":134168,"SoundDuration":134168,"Delta":495616981},{"NoteNumber":69,"Velocity":36,"Duration":134168,"SoundDuration":134168,"Delta":495616981},{"NoteNumber":49,"Velocity":36,"Duration":136363,"SoundDuration":136363,"Delta":495885318},{"NoteNumber":61,"Velocity":30,"Duration":136363,"SoundDuration":136363,"Delta":496158045},{"NoteNumber":69,"Velocity":36,"Duration":136363,"SoundDuration":136363,"Delta":496158045},{"NoteNumber":66,"Velocity":30,"Duration":136363,"SoundDuration":136363,"Delta":496158045},{"NoteNumber":80,"Velocity":65,"Duration":131004,"SoundDuration":131004,"Delta":496430773},{"NoteNumber":56,"Velocity":42,"Duration":131004,"SoundDuration":131004,"Delta":496430773},{"NoteNumber":61,"Velocity":36,"Duration":126050,"SoundDuration":126050,"Delta":496692781},{"NoteNumber":71,"Velocity":36,"Duration":126050,"SoundDuration":126050,"Delta":496692781},{"NoteNumber":65,"Velocity":36,"Duration":126050,"SoundDuration":126050,"Delta":496692781},{"NoteNumber":81,"Velocity":59,"Duration":126050,"SoundDuration":126050,"Delta":496818832},{"NoteNumber":83,"Velocity":65,"Duration":127139,"SoundDuration":127139,"Delta":496944882},{"NoteNumber":49,"Velocity":36,"Duration":127139,"SoundDuration":127139,"Delta":496944882},{"NoteNumber":71,"Velocity":36,"Duration":125522,"SoundDuration":125522,"Delta":497197544},{"NoteNumber":65,"Velocity":30,"Duration":125522,"SoundDuration":125522,"Delta":497197544},{"NoteNumber":61,"Velocity":30,"Duration":125522,"SoundDuration":125522,"Delta":497197544},{"NoteNumber":86,"Velocity":70,"Duration":139535,"SoundDuration":139535,"Delta":497323067},{"NoteNumber":85,"Velocity":65,"Duration":122449,"SoundDuration":122449,"Delta":497462602},{"NoteNumber":56,"Velocity":42,"Duration":122449,"SoundDuration":122449,"Delta":497462602},{"NoteNumber":71,"Velocity":36,"Duration":122449,"SoundDuration":122449,"Delta":497707500},{"NoteNumber":65,"Velocity":36,"Duration":122449,"SoundDuration":122449,"Delta":497707500},{"NoteNumber":61,"Velocity":36,"Duration":122449,"SoundDuration":122449,"Delta":497707500},{"NoteNumber":73,"Velocity":59,"Duration":122449,"SoundDuration":122449,"Delta":497829949},{"NoteNumber":75,"Velocity":65,"Duration":119047,"SoundDuration":119047,"Delta":497952398},{"NoteNumber":49,"Velocity":36,"Duration":119047,"SoundDuration":119047,"Delta":497952398},{"NoteNumber":71,"Velocity":36,"Duration":119047,"SoundDuration":119047,"Delta":498190493},{"NoteNumber":61,"Velocity":30,"Duration":119047,"SoundDuration":119047,"Delta":498190493},{"NoteNumber":65,"Velocity":30,"Duration":119047,"SoundDuration":119047,"Delta":498190493},{"NoteNumber":77,"Velocity":60,"Duration":66666,"SoundDuration":66666,"Delta":498309541},{"NoteNumber":78,"Velocity":49,"Duration":33333,"SoundDuration":33333,"Delta":498376207},{"NoteNumber":80,"Velocity":50,"Duration":33333,"SoundDuration":33333,"Delta":498409541},{"NoteNumber":78,"Velocity":65,"Duration":126050,"SoundDuration":126050,"Delta":498442874},{"NoteNumber":54,"Velocity":42,"Duration":126050,"SoundDuration":126050,"Delta":498442874},{"NoteNumber":61,"Velocity":36,"Duration":119047,"SoundDuration":119047,"Delta":498691473},{"NoteNumber":70,"Velocity":36,"Duration":119047,"SoundDuration":119047,"Delta":498691473},{"NoteNumber":66,"Velocity":36,"Duration":119047,"SoundDuration":119047,"Delta":498691473},{"NoteNumber":77,"Velocity":59,"Duration":119047,"SoundDuration":119047,"Delta":498810521},{"NoteNumber":78,"Velocity":65,"Duration":117646,"SoundDuration":117646,"Delta":498929568},{"NoteNumber":49,"Velocity":36,"Duration":117646,"SoundDuration":117646,"Delta":498929568},{"NoteNumber":70,"Velocity":36,"Duration":117646,"SoundDuration":117646,"Delta":499164862},{"NoteNumber":66,"Velocity":30,"Duration":117646,"SoundDuration":117646,"Delta":499164862},{"NoteNumber":61,"Velocity":30,"Duration":117646,"SoundDuration":117646,"Delta":499164862},{"NoteNumber":80,"Velocity":70,"Duration":130434,"SoundDuration":130434,"Delta":499282509},{"NoteNumber":81,"Velocity":65,"Duration":1026528,"SoundDuration":1026528,"Delta":499412944},{"NoteNumber":54,"Velocity":42,"Duration":135746,"SoundDuration":135746,"Delta":499412944},{"NoteNumber":61,"Velocity":36,"Duration":125522,"SoundDuration":125522,"Delta":499684437},{"NoteNumber":69,"Velocity":36,"Duration":125522,"SoundDuration":125522,"Delta":499684437},{"NoteNumber":66,"Velocity":36,"Duration":125522,"SoundDuration":125522,"Delta":499684437},{"NoteNumber":49,"Velocity":36,"Duration":125000,"SoundDuration":125000,"Delta":499935483},{"NoteNumber":69,"Velocity":36,"Duration":126329,"SoundDuration":126329,"Delta":500185483},{"NoteNumber":66,"Velocity":30,"Duration":126329,"SoundDuration":126329,"Delta":500185483},{"NoteNumber":61,"Velocity":30,"Duration":126329,"SoundDuration":126329,"Delta":500185483},{"NoteNumber":80,"Velocity":65,"Duration":122950,"SoundDuration":122950,"Delta":500439472},{"NoteNumber":56,"Velocity":42,"Duration":122950,"SoundDuration":122950,"Delta":500439472},{"NoteNumber":71,"Velocity":36,"Duration":120967,"SoundDuration":120967,"Delta":500684382},{"NoteNumber":65,"Velocity":36,"Duration":120967,"SoundDuration":120967,"Delta":500684382},{"NoteNumber":61,"Velocity":36,"Duration":120967,"SoundDuration":120967,"Delta":500684382},{"NoteNumber":81,"Velocity":59,"Duration":120967,"SoundDuration":120967,"Delta":500805350},{"NoteNumber":83,"Velocity":65,"Duration":117646,"SoundDuration":117646,"Delta":500926318},{"NoteNumber":49,"Velocity":36,"Duration":117646,"SoundDuration":117646,"Delta":500926318},{"NoteNumber":71,"Velocity":36,"Duration":125787,"SoundDuration":125787,"Delta":501161612},{"NoteNumber":61,"Velocity":30,"Duration":125787,"SoundDuration":125787,"Delta":501161612},{"NoteNumber":65,"Velocity":30,"Duration":125787,"SoundDuration":125787,"Delta":501161612},{"NoteNumber":86,"Velocity":70,"Duration":133928,"SoundDuration":133928,"Delta":501287400},{"NoteNumber":85,"Velocity":65,"Duration":122449,"SoundDuration":122449,"Delta":501421328},{"NoteNumber":56,"Velocity":42,"Duration":122449,"SoundDuration":122449,"Delta":501421328},{"NoteNumber":61,"Velocity":36,"Duration":120967,"SoundDuration":120967,"Delta":501665486},{"NoteNumber":71,"Velocity":36,"Duration":120967,"SoundDuration":120967,"Delta":501665486},{"NoteNumber":65,"Velocity":36,"Duration":120967,"SoundDuration":120967,"Delta":501665486},{"NoteNumber":73,"Velocity":59,"Duration":119307,"SoundDuration":119307,"Delta":501786453},{"NoteNumber":75,"Velocity":65,"Duration":117646,"SoundDuration":117646,"Delta":501905761},{"NoteNumber":49,"Velocity":36,"Duration":117646,"SoundDuration":117646,"Delta":501905761},{"NoteNumber":71,"Velocity":36,"Duration":117646,"SoundDuration":117646,"Delta":502141055},{"NoteNumber":65,"Velocity":30,"Duration":117646,"SoundDuration":117646,"Delta":502141055},{"NoteNumber":61,"Velocity":30,"Duration":117646,"SoundDuration":117646,"Delta":502141055},{"NoteNumber":77,"Velocity":60,"Duration":64377,"SoundDuration":64377,"Delta":502258702},{"NoteNumber":78,"Velocity":49,"Duration":32188,"SoundDuration":32188,"Delta":502323079},{"NoteNumber":80,"Velocity":50,"Duration":32188,"SoundDuration":32188,"Delta":502355268},{"NoteNumber":78,"Velocity":65,"Duration":124481,"SoundDuration":124481,"Delta":502387457},{"NoteNumber":54,"Velocity":42,"Duration":124481,"SoundDuration":124481,"Delta":502387457},{"NoteNumber":66,"Velocity":36,"Duration":119522,"SoundDuration":119522,"Delta":502636419},{"NoteNumber":61,"Velocity":36,"Duration":119522,"SoundDuration":119522,"Delta":502636419},{"NoteNumber":70,"Velocity":36,"Duration":119522,"SoundDuration":119522,"Delta":502636419},{"NoteNumber":77,"Velocity":59,"Duration":119521,"SoundDuration":119521,"Delta":502755941},{"NoteNumber":78,"Velocity":65,"Duration":119522,"SoundDuration":119522,"Delta":502875463},{"NoteNumber":49,"Velocity":36,"Duration":119522,"SoundDuration":119522,"Delta":502875463},{"NoteNumber":70,"Velocity":36,"Duration":119521,"SoundDuration":119521,"Delta":503114507},{"NoteNumber":61,"Velocity":30,"Duration":119521,"SoundDuration":119521,"Delta":503114507},{"NoteNumber":66,"Velocity":30,"Duration":119521,"SoundDuration":119521,"Delta":503114507},{"NoteNumber":80,"Velocity":70,"Duration":67873,"SoundDuration":67873,"Delta":503234029},{"NoteNumber":78,"Velocity":60,"Duration":33936,"SoundDuration":33936,"Delta":503301903},{"NoteNumber":80,"Velocity":60,"Duration":33936,"SoundDuration":33936,"Delta":503335839},{"NoteNumber":81,"Velocity":65,"Duration":251161,"SoundDuration":251161,"Delta":503369776},{"NoteNumber":54,"Velocity":42,"Duration":127118,"SoundDuration":127118,"Delta":503369776},{"NoteNumber":69,"Velocity":36,"Duration":120967,"SoundDuration":120967,"Delta":503620938},{"NoteNumber":61,"Velocity":36,"Duration":120967,"SoundDuration":120967,"Delta":503620938},{"NoteNumber":66,"Velocity":36,"Duration":120967,"SoundDuration":120967,"Delta":503620938},{"NoteNumber":81,"Velocity":65,"Duration":524185,"SoundDuration":524185,"Delta":503862631},{"NoteNumber":49,"Velocity":36,"Duration":123966,"SoundDuration":123966,"Delta":503862631},{"NoteNumber":66,"Velocity":30,"Duration":123966,"SoundDuration":123966,"Delta":504110565},{"NoteNumber":61,"Velocity":30,"Duration":123966,"SoundDuration":123966,"Delta":504110565},{"NoteNumber":69,"Velocity":36,"Duration":123966,"SoundDuration":123966,"Delta":504110565},{"NoteNumber":80,"Velocity":59,"Duration":146341,"SoundDuration":146341,"Delta":504386816},{"NoteNumber":56,"Velocity":42,"Duration":146341,"SoundDuration":146341,"Delta":504386816},{"NoteNumber":65,"Velocity":36,"Duration":146341,"SoundDuration":146341,"Delta":504679499},{"NoteNumber":61,"Velocity":36,"Duration":146341,"SoundDuration":146341,"Delta":504679499},{"NoteNumber":71,"Velocity":36,"Duration":146341,"SoundDuration":146341,"Delta":504679499},{"NoteNumber":81,"Velocity":47,"Duration":146341,"SoundDuration":146341,"Delta":504825840},{"NoteNumber":83,"Velocity":53,"Duration":161290,"SoundDuration":161290,"Delta":504972182},{"NoteNumber":49,"Velocity":36,"Duration":161290,"SoundDuration":161290,"Delta":504972182},{"NoteNumber":61,"Velocity":30,"Duration":161290,"SoundDuration":161290,"Delta":505294762},{"NoteNumber":71,"Velocity":36,"Duration":161290,"SoundDuration":161290,"Delta":505294762},{"NoteNumber":65,"Velocity":30,"Duration":161290,"SoundDuration":161290,"Delta":505294762},{"NoteNumber":86,"Velocity":57,"Duration":214285,"SoundDuration":214285,"Delta":505456053},{"NoteNumber":85,"Velocity":51,"Duration":1710582,"SoundDuration":1710582,"Delta":505670338},{"NoteNumber":37,"Velocity":39,"Duration":56336,"SoundDuration":56336,"Delta":507380921},{"NoteNumber":61,"Velocity":48,"Duration":56165,"SoundDuration":56165,"Delta":507456021},{"NoteNumber":49,"Velocity":48,"Duration":56165,"SoundDuration":56165,"Delta":507456021},{"NoteNumber":39,"Velocity":41,"Duration":56022,"SoundDuration":56022,"Delta":507530897},{"NoteNumber":51,"Velocity":49,"Duration":55876,"SoundDuration":55876,"Delta":507605549},{"NoteNumber":63,"Velocity":49,"Duration":55876,"SoundDuration":55876,"Delta":507605549},{"NoteNumber":41,"Velocity":42,"Duration":55700,"SoundDuration":55700,"Delta":507680007},{"NoteNumber":53,"Velocity":51,"Duration":55555,"SoundDuration":55555,"Delta":507754245},{"NoteNumber":65,"Velocity":51,"Duration":55555,"SoundDuration":55555,"Delta":507754245},{"NoteNumber":42,"Velocity":44,"Duration":55382,"SoundDuration":55382,"Delta":507828292},{"NoteNumber":54,"Velocity":52,"Duration":55238,"SoundDuration":55238,"Delta":507902120},{"NoteNumber":66,"Velocity":52,"Duration":55238,"SoundDuration":55238,"Delta":507902120},{"NoteNumber":49,"Velocity":46,"Duration":55114,"SoundDuration":55114,"Delta":507975759},{"NoteNumber":44,"Velocity":46,"Duration":55114,"SoundDuration":55114,"Delta":507975759},{"NoteNumber":61,"Velocity":54,"Duration":55391,"SoundDuration":55391,"Delta":508049278},{"NoteNumber":68,"Velocity":54,"Duration":55391,"SoundDuration":55391,"Delta":508049278},{"NoteNumber":56,"Velocity":54,"Duration":55391,"SoundDuration":55391,"Delta":508049278},{"NoteNumber":43,"Velocity":44,"Duration":55705,"SoundDuration":55705,"Delta":508123173},{"NoteNumber":55,"Velocity":53,"Duration":55998,"SoundDuration":55998,"Delta":508197507},{"NoteNumber":67,"Velocity":53,"Duration":55998,"SoundDuration":55998,"Delta":508197507},{"NoteNumber":44,"Velocity":43,"Duration":56353,"SoundDuration":56353,"Delta":508272227},{"NoteNumber":56,"Velocity":51,"Duration":56646,"SoundDuration":56646,"Delta":508347401},{"NoteNumber":68,"Velocity":51,"Duration":56646,"SoundDuration":56646,"Delta":508347401},{"NoteNumber":41,"Velocity":41,"Duration":61643,"SoundDuration":61643,"Delta":508423002},{"NoteNumber":65,"Velocity":49,"Duration":61643,"SoundDuration":61643,"Delta":508505193},{"NoteNumber":53,"Velocity":49,"Duration":61643,"SoundDuration":61643,"Delta":508505193},{"NoteNumber":42,"Velocity":39,"Duration":55170,"SoundDuration":55170,"Delta":508586881},{"NoteNumber":54,"Velocity":48,"Duration":55066,"SoundDuration":55066,"Delta":508660448},{"NoteNumber":66,"Velocity":48,"Duration":55066,"SoundDuration":55066,"Delta":508660448},{"NoteNumber":44,"Velocity":41,"Duration":54900,"SoundDuration":54900,"Delta":508733829},{"NoteNumber":68,"Velocity":49,"Duration":54731,"SoundDuration":54731,"Delta":508806995},{"NoteNumber":56,"Velocity":49,"Duration":54731,"SoundDuration":54731,"Delta":508806995},{"NoteNumber":46,"Velocity":42,"Duration":54533,"SoundDuration":54533,"Delta":508879948},{"NoteNumber":70,"Velocity":51,"Duration":54375,"SoundDuration":54375,"Delta":508952626},{"NoteNumber":58,"Velocity":51,"Duration":54375,"SoundDuration":54375,"Delta":508952626},{"NoteNumber":47,"Velocity":44,"Duration":54209,"SoundDuration":54209,"Delta":509025091},{"NoteNumber":59,"Velocity":52,"Duration":54044,"SoundDuration":54044,"Delta":509097347},{"NoteNumber":71,"Velocity":52,"Duration":54044,"SoundDuration":54044,"Delta":509097347},{"NoteNumber":49,"Velocity":46,"Duration":54051,"SoundDuration":54051,"Delta":509169369},{"NoteNumber":54,"Velocity":46,"Duration":54051,"SoundDuration":54051,"Delta":509169369},{"NoteNumber":73,"Velocity":54,"Duration":54321,"SoundDuration":54321,"Delta":509241471},{"NoteNumber":66,"Velocity":54,"Duration":54321,"SoundDuration":54321,"Delta":509241471},{"NoteNumber":61,"Velocity":54,"Duration":54321,"SoundDuration":54321,"Delta":509241471},{"NoteNumber":48,"Velocity":44,"Duration":54623,"SoundDuration":54623,"Delta":509313938},{"NoteNumber":72,"Velocity":53,"Duration":54904,"SoundDuration":54904,"Delta":509386827},{"NoteNumber":60,"Velocity":53,"Duration":54904,"SoundDuration":54904,"Delta":509386827},{"NoteNumber":49,"Velocity":43,"Duration":55246,"SoundDuration":55246,"Delta":509460088},{"NoteNumber":61,"Velocity":51,"Duration":55528,"SoundDuration":55528,"Delta":509533784},{"NoteNumber":73,"Velocity":51,"Duration":55528,"SoundDuration":55528,"Delta":509533784},{"NoteNumber":46,"Velocity":41,"Duration":61475,"SoundDuration":61475,"Delta":509607891},{"NoteNumber":58,"Velocity":49,"Duration":61475,"SoundDuration":61475,"Delta":509689858},{"NoteNumber":70,"Velocity":49,"Duration":61475,"SoundDuration":61475,"Delta":509689858},{"NoteNumber":47,"Velocity":49,"Duration":53495,"SoundDuration":53495,"Delta":509771825},{"NoteNumber":71,"Velocity":59,"Duration":53495,"SoundDuration":53495,"Delta":509843152},{"NoteNumber":59,"Velocity":59,"Duration":53495,"SoundDuration":53495,"Delta":509843152},{"NoteNumber":51,"Velocity":43,"Duration":57019,"SoundDuration":57019,"Delta":509914479},{"NoteNumber":63,"Velocity":51,"Duration":57019,"SoundDuration":57019,"Delta":509990505},{"NoteNumber":75,"Velocity":51,"Duration":57019,"SoundDuration":57019,"Delta":509990505},{"NoteNumber":44,"Velocity":50,"Duration":53495,"SoundDuration":53495,"Delta":510066531},{"NoteNumber":56,"Velocity":60,"Duration":53495,"SoundDuration":53495,"Delta":510137858},{"NoteNumber":68,"Velocity":60,"Duration":53495,"SoundDuration":53495,"Delta":510137858},{"NoteNumber":47,"Velocity":46,"Duration":57019,"SoundDuration":57019,"Delta":510209185},{"NoteNumber":71,"Velocity":55,"Duration":57019,"SoundDuration":57019,"Delta":510285211},{"NoteNumber":59,"Velocity":55,"Duration":57019,"SoundDuration":57019,"Delta":510285211},{"NoteNumber":41,"Velocity":50,"Duration":53879,"SoundDuration":53879,"Delta":510361237},{"NoteNumber":53,"Velocity":60,"Duration":53879,"SoundDuration":53879,"Delta":510433076},{"NoteNumber":65,"Velocity":60,"Duration":53879,"SoundDuration":53879,"Delta":510433076},{"NoteNumber":44,"Velocity":44,"Duration":56589,"SoundDuration":56589,"Delta":510504915},{"NoteNumber":56,"Velocity":52,"Duration":56589,"SoundDuration":56589,"Delta":510580368},{"NoteNumber":68,"Velocity":52,"Duration":56589,"SoundDuration":56589,"Delta":510580368},{"NoteNumber":37,"Velocity":51,"Duration":54008,"SoundDuration":54008,"Delta":510655821},{"NoteNumber":49,"Velocity":62,"Duration":54008,"SoundDuration":54008,"Delta":510727832},{"NoteNumber":61,"Velocity":62,"Duration":54008,"SoundDuration":54008,"Delta":510727832},{"NoteNumber":41,"Velocity":47,"Duration":56732,"SoundDuration":56732,"Delta":510799844},{"NoteNumber":53,"Velocity":56,"Duration":56732,"SoundDuration":56732,"Delta":510875487},{"NoteNumber":65,"Velocity":56,"Duration":56732,"SoundDuration":56732,"Delta":510875487},{"NoteNumber":42,"Velocity":51,"Duration":53622,"SoundDuration":53622,"Delta":510951130},{"NoteNumber":66,"Velocity":62,"Duration":53622,"SoundDuration":53622,"Delta":511022626},{"NoteNumber":54,"Velocity":62,"Duration":53622,"SoundDuration":53622,"Delta":511022626},{"NoteNumber":46,"Velocity":45,"Duration":56732,"SoundDuration":56732,"Delta":511094123},{"NoteNumber":58,"Velocity":53,"Duration":56732,"SoundDuration":56732,"Delta":511169766},{"NoteNumber":70,"Velocity":53,"Duration":56732,"SoundDuration":56732,"Delta":511169766},{"NoteNumber":37,"Velocity":53,"Duration":53495,"SoundDuration":53495,"Delta":511245409},{"NoteNumber":61,"Velocity":63,"Duration":53495,"SoundDuration":53495,"Delta":511316736},{"NoteNumber":49,"Velocity":63,"Duration":53495,"SoundDuration":53495,"Delta":511316736},{"NoteNumber":42,"Velocity":48,"Duration":56875,"SoundDuration":56875,"Delta":511388063},{"NoteNumber":66,"Velocity":58,"Duration":56875,"SoundDuration":56875,"Delta":511463897},{"NoteNumber":54,"Velocity":58,"Duration":56875,"SoundDuration":56875,"Delta":511463897},{"NoteNumber":34,"Velocity":52,"Duration":53495,"SoundDuration":53495,"Delta":511539731},{"NoteNumber":58,"Velocity":63,"Duration":53495,"SoundDuration":53495,"Delta":511611058},{"NoteNumber":46,"Velocity":63,"Duration":53495,"SoundDuration":53495,"Delta":511611058},{"NoteNumber":37,"Velocity":46,"Duration":56306,"SoundDuration":56306,"Delta":511682385},{"NoteNumber":61,"Velocity":55,"Duration":56306,"SoundDuration":56306,"Delta":511757460},{"NoteNumber":49,"Velocity":55,"Duration":56306,"SoundDuration":56306,"Delta":511757460},{"NoteNumber":30,"Velocity":54,"Duration":53495,"SoundDuration":53495,"Delta":511832535},{"NoteNumber":42,"Velocity":54,"Duration":53495,"SoundDuration":53495,"Delta":511832535},{"NoteNumber":66,"Velocity":64,"Duration":53495,"SoundDuration":53495,"Delta":511903861},{"NoteNumber":54,"Velocity":64,"Duration":53495,"SoundDuration":53495,"Delta":511903861},{"NoteNumber":46,"Velocity":50,"Duration":56306,"SoundDuration":56306,"Delta":511975188},{"NoteNumber":34,"Velocity":50,"Duration":56306,"SoundDuration":56306,"Delta":511975188},{"NoteNumber":70,"Velocity":59,"Duration":74503,"SoundDuration":74503,"Delta":512050263},{"NoteNumber":58,"Velocity":59,"Duration":74503,"SoundDuration":74503,"Delta":512050263},{"NoteNumber":49,"Velocity":44,"Duration":74606,"SoundDuration":74606,"Delta":512145905},{"NoteNumber":37,"Velocity":44,"Duration":75227,"SoundDuration":75227,"Delta":512145905},{"NoteNumber":44,"Velocity":44,"Duration":74606,"SoundDuration":74606,"Delta":512145905},{"NoteNumber":41,"Velocity":44,"Duration":74606,"SoundDuration":74606,"Delta":512145905},{"NoteNumber":65,"Velocity":55,"Duration":74314,"SoundDuration":74314,"Delta":512220512},{"NoteNumber":68,"Velocity":55,"Duration":74314,"SoundDuration":74314,"Delta":512220512},{"NoteNumber":73,"Velocity":55,"Duration":74932,"SoundDuration":74932,"Delta":512220512},{"NoteNumber":61,"Velocity":55,"Duration":74932,"SoundDuration":74932,"Delta":512220512},{"NoteNumber":39,"Velocity":47,"Duration":74655,"SoundDuration":74655,"Delta":512294827},{"NoteNumber":51,"Velocity":47,"Duration":74039,"SoundDuration":74039,"Delta":512294827},{"NoteNumber":75,"Velocity":56,"Duration":74349,"SoundDuration":74349,"Delta":512368866},{"NoteNumber":63,"Velocity":56,"Duration":74349,"SoundDuration":74349,"Delta":512368866},{"NoteNumber":53,"Velocity":48,"Duration":73418,"SoundDuration":73418,"Delta":512442601},{"NoteNumber":41,"Velocity":48,"Duration":74028,"SoundDuration":74028,"Delta":512442601},{"NoteNumber":77,"Velocity":59,"Duration":73752,"SoundDuration":73752,"Delta":512516020},{"NoteNumber":65,"Velocity":59,"Duration":73752,"SoundDuration":73752,"Delta":512516020},{"NoteNumber":42,"Velocity":51,"Duration":73461,"SoundDuration":73461,"Delta":512589164},{"NoteNumber":54,"Velocity":51,"Duration":72855,"SoundDuration":72855,"Delta":512589164},{"NoteNumber":78,"Velocity":61,"Duration":73176,"SoundDuration":73176,"Delta":512662020},{"NoteNumber":66,"Velocity":61,"Duration":73176,"SoundDuration":73176,"Delta":512662020},{"NoteNumber":44,"Velocity":54,"Duration":73115,"SoundDuration":73115,"Delta":512734593},{"NoteNumber":56,"Velocity":54,"Duration":72509,"SoundDuration":72509,"Delta":512734593},{"NoteNumber":49,"Velocity":54,"Duration":73115,"SoundDuration":73115,"Delta":512734593},{"NoteNumber":73,"Velocity":64,"Duration":73483,"SoundDuration":73483,"Delta":512807102},{"NoteNumber":80,"Velocity":64,"Duration":73483,"SoundDuration":73483,"Delta":512807102},{"NoteNumber":68,"Velocity":64,"Duration":73483,"SoundDuration":73483,"Delta":512807102},{"NoteNumber":43,"Velocity":52,"Duration":73857,"SoundDuration":73857,"Delta":512879977},{"NoteNumber":55,"Velocity":52,"Duration":73245,"SoundDuration":73245,"Delta":512879977},{"NoteNumber":79,"Velocity":63,"Duration":73619,"SoundDuration":73619,"Delta":512953223},{"NoteNumber":67,"Velocity":63,"Duration":73619,"SoundDuration":73619,"Delta":512953223},{"NoteNumber":56,"Velocity":51,"Duration":73996,"SoundDuration":73996,"Delta":513026842},{"NoteNumber":44,"Velocity":51,"Duration":74614,"SoundDuration":74614,"Delta":513026842},{"NoteNumber":80,"Velocity":61,"Duration":75063,"SoundDuration":75063,"Delta":513100839},{"NoteNumber":73,"Velocity":61,"Duration":74378,"SoundDuration":74378,"Delta":513100839},{"NoteNumber":68,"Velocity":61,"Duration":75063,"SoundDuration":75063,"Delta":513100839},{"NoteNumber":41,"Velocity":49,"Duration":82876,"SoundDuration":82876,"Delta":513175218},{"NoteNumber":53,"Velocity":49,"Duration":82191,"SoundDuration":82191,"Delta":513175218},{"NoteNumber":65,"Velocity":59,"Duration":81602,"SoundDuration":81602,"Delta":513257410},{"NoteNumber":77,"Velocity":59,"Duration":81602,"SoundDuration":81602,"Delta":513257410},{"NoteNumber":42,"Velocity":47,"Duration":74670,"SoundDuration":74670,"Delta":513338395},{"NoteNumber":46,"Velocity":47,"Duration":74054,"SoundDuration":74054,"Delta":513338395},{"NoteNumber":54,"Velocity":47,"Duration":74054,"SoundDuration":74054,"Delta":513338395},{"NoteNumber":49,"Velocity":47,"Duration":74054,"SoundDuration":74054,"Delta":513338395},{"NoteNumber":73,"Velocity":58,"Duration":73766,"SoundDuration":73766,"Delta":513412449},{"NoteNumber":70,"Velocity":58,"Duration":73766,"SoundDuration":73766,"Delta":513412449},{"NoteNumber":66,"Velocity":58,"Duration":74379,"SoundDuration":74379,"Delta":513412449},{"NoteNumber":78,"Velocity":58,"Duration":74379,"SoundDuration":74379,"Delta":513412449},{"NoteNumber":44,"Velocity":50,"Duration":74106,"SoundDuration":74106,"Delta":513486215},{"NoteNumber":56,"Velocity":50,"Duration":73494,"SoundDuration":73494,"Delta":513486215},{"NoteNumber":68,"Velocity":60,"Duration":73805,"SoundDuration":73805,"Delta":513559710},{"NoteNumber":80,"Velocity":60,"Duration":73805,"SoundDuration":73805,"Delta":513559710},{"NoteNumber":58,"Velocity":52,"Duration":72941,"SoundDuration":72941,"Delta":513632906},{"NoteNumber":46,"Velocity":52,"Duration":73546,"SoundDuration":73546,"Delta":513632906},{"NoteNumber":82,"Velocity":63,"Duration":73245,"SoundDuration":73245,"Delta":513705847},{"NoteNumber":70,"Velocity":63,"Duration":73245,"SoundDuration":73245,"Delta":513705847},{"NoteNumber":47,"Velocity":55,"Duration":72985,"SoundDuration":72985,"Delta":513778488},{"NoteNumber":59,"Velocity":55,"Duration":72383,"SoundDuration":72383,"Delta":513778488},{"NoteNumber":71,"Velocity":65,"Duration":72703,"SoundDuration":72703,"Delta":513850872},{"NoteNumber":83,"Velocity":65,"Duration":72703,"SoundDuration":72703,"Delta":513850872},{"NoteNumber":61,"Velocity":57,"Duration":72276,"SoundDuration":72276,"Delta":513922976},{"NoteNumber":49,"Velocity":57,"Duration":72880,"SoundDuration":72880,"Delta":513922976},{"NoteNumber":54,"Velocity":57,"Duration":72880,"SoundDuration":72880,"Delta":513922976},{"NoteNumber":73,"Velocity":68,"Duration":73305,"SoundDuration":73305,"Delta":513995252},{"NoteNumber":78,"Velocity":68,"Duration":73305,"SoundDuration":73305,"Delta":513995252},{"NoteNumber":85,"Velocity":68,"Duration":73305,"SoundDuration":73305,"Delta":513995252},{"NoteNumber":48,"Velocity":55,"Duration":73677,"SoundDuration":73677,"Delta":514067950},{"NoteNumber":60,"Velocity":55,"Duration":73066,"SoundDuration":73066,"Delta":514067950},{"NoteNumber":84,"Velocity":67,"Duration":74109,"SoundDuration":74109,"Delta":514141017},{"NoteNumber":72,"Velocity":67,"Duration":74109,"SoundDuration":74109,"Delta":514141017},{"NoteNumber":61,"Velocity":55,"Duration":73908,"SoundDuration":73908,"Delta":514214514},{"NoteNumber":49,"Velocity":55,"Duration":74526,"SoundDuration":74526,"Delta":514214514},{"NoteNumber":54,"Velocity":55,"Duration":73908,"SoundDuration":73908,"Delta":514214514},{"NoteNumber":73,"Velocity":65,"Duration":74939,"SoundDuration":74939,"Delta":514288422},{"NoteNumber":78,"Velocity":65,"Duration":74318,"SoundDuration":74318,"Delta":514288422},{"NoteNumber":85,"Velocity":65,"Duration":74939,"SoundDuration":74939,"Delta":514288422},{"NoteNumber":46,"Velocity":52,"Duration":75306,"SoundDuration":75306,"Delta":514362741},{"NoteNumber":58,"Velocity":52,"Duration":74684,"SoundDuration":74684,"Delta":514362741},{"NoteNumber":70,"Velocity":63,"Duration":75323,"SoundDuration":75323,"Delta":514437425},{"NoteNumber":82,"Velocity":63,"Duration":75323,"SoundDuration":75323,"Delta":514437425},{"NoteNumber":49,"Velocity":50,"Duration":75221,"SoundDuration":75221,"Delta":514512127},{"NoteNumber":53,"Velocity":50,"Duration":74602,"SoundDuration":74602,"Delta":514512127},{"NoteNumber":56,"Velocity":50,"Duration":74602,"SoundDuration":74602,"Delta":514512127},{"NoteNumber":61,"Velocity":50,"Duration":74602,"SoundDuration":74602,"Delta":514512127},{"NoteNumber":80,"Velocity":62,"Duration":74229,"SoundDuration":74229,"Delta":514586729},{"NoteNumber":77,"Velocity":62,"Duration":74229,"SoundDuration":74229,"Delta":514586729},{"NoteNumber":85,"Velocity":62,"Duration":74847,"SoundDuration":74847,"Delta":514586729},{"NoteNumber":73,"Velocity":62,"Duration":74847,"SoundDuration":74847,"Delta":514586729},{"NoteNumber":51,"Velocity":53,"Duration":74518,"SoundDuration":74518,"Delta":514660959},{"NoteNumber":63,"Velocity":53,"Duration":73903,"SoundDuration":73903,"Delta":514660959},{"NoteNumber":87,"Velocity":64,"Duration":74166,"SoundDuration":74166,"Delta":514734863},{"NoteNumber":75,"Velocity":64,"Duration":74166,"SoundDuration":74166,"Delta":514734863},{"NoteNumber":53,"Velocity":55,"Duration":73820,"SoundDuration":73820,"Delta":514808418},{"NoteNumber":65,"Velocity":55,"Duration":73211,"SoundDuration":73211,"Delta":514808418},{"NoteNumber":77,"Velocity":67,"Duration":73504,"SoundDuration":73504,"Delta":514881629},{"NoteNumber":89,"Velocity":67,"Duration":73504,"SoundDuration":73504,"Delta":514881629},{"NoteNumber":54,"Velocity":58,"Duration":73161,"SoundDuration":73161,"Delta":514954527},{"NoteNumber":66,"Velocity":58,"Duration":72558,"SoundDuration":72558,"Delta":514954527},{"NoteNumber":78,"Velocity":69,"Duration":72824,"SoundDuration":72824,"Delta":515027086},{"NoteNumber":90,"Velocity":69,"Duration":72824,"SoundDuration":72824,"Delta":515027086},{"NoteNumber":61,"Velocity":61,"Duration":72796,"SoundDuration":72796,"Delta":515099310},{"NoteNumber":56,"Velocity":61,"Duration":72796,"SoundDuration":72796,"Delta":515099310},{"NoteNumber":68,"Velocity":61,"Duration":72192,"SoundDuration":72192,"Delta":515099310},{"NoteNumber":92,"Velocity":72,"Duration":73305,"SoundDuration":73305,"Delta":515171503},{"NoteNumber":80,"Velocity":72,"Duration":73305,"SoundDuration":73305,"Delta":515171503},{"NoteNumber":85,"Velocity":72,"Duration":73305,"SoundDuration":73305,"Delta":515171503},{"NoteNumber":67,"Velocity":58,"Duration":73200,"SoundDuration":73200,"Delta":515244201},{"NoteNumber":55,"Velocity":58,"Duration":73200,"SoundDuration":73200,"Delta":515244201},{"NoteNumber":79,"Velocity":71,"Duration":73675,"SoundDuration":73675,"Delta":515317402},{"NoteNumber":91,"Velocity":71,"Duration":73675,"SoundDuration":73675,"Delta":515317402},{"NoteNumber":61,"Velocity":58,"Duration":74184,"SoundDuration":74184,"Delta":515391077},{"NoteNumber":68,"Velocity":58,"Duration":74184,"SoundDuration":74184,"Delta":515391077},{"NoteNumber":56,"Velocity":58,"Duration":74805,"SoundDuration":74805,"Delta":515391077},{"NoteNumber":85,"Velocity":69,"Duration":74732,"SoundDuration":74732,"Delta":515465262},{"NoteNumber":92,"Velocity":69,"Duration":75417,"SoundDuration":75417,"Delta":515465262},{"NoteNumber":80,"Velocity":69,"Duration":75417,"SoundDuration":75417,"Delta":515465262},{"NoteNumber":65,"Velocity":55,"Duration":82191,"SoundDuration":82191,"Delta":515539994},{"NoteNumber":53,"Velocity":55,"Duration":82876,"SoundDuration":82876,"Delta":515539994},{"NoteNumber":77,"Velocity":67,"Duration":81545,"SoundDuration":81545,"Delta":515622186},{"NoteNumber":89,"Velocity":67,"Duration":81545,"SoundDuration":81545,"Delta":515622186},{"NoteNumber":66,"Velocity":53,"Duration":73690,"SoundDuration":73690,"Delta":515703116},{"NoteNumber":58,"Velocity":53,"Duration":73690,"SoundDuration":73690,"Delta":515703116},{"NoteNumber":54,"Velocity":53,"Duration":74303,"SoundDuration":74303,"Delta":515703116},{"NoteNumber":61,"Velocity":53,"Duration":73690,"SoundDuration":73690,"Delta":515703116},{"NoteNumber":82,"Velocity":65,"Duration":73375,"SoundDuration":73375,"Delta":515776807},{"NoteNumber":90,"Velocity":65,"Duration":73985,"SoundDuration":73985,"Delta":515776807},{"NoteNumber":85,"Velocity":65,"Duration":73375,"SoundDuration":73375,"Delta":515776807},{"NoteNumber":78,"Velocity":65,"Duration":73985,"SoundDuration":73985,"Delta":515776807},{"NoteNumber":68,"Velocity":56,"Duration":73089,"SoundDuration":73089,"Delta":515850182},{"NoteNumber":56,"Velocity":56,"Duration":73696,"SoundDuration":73696,"Delta":515850182},{"NoteNumber":92,"Velocity":67,"Duration":73381,"SoundDuration":73381,"Delta":515923271},{"NoteNumber":80,"Velocity":67,"Duration":73381,"SoundDuration":73381,"Delta":515923271},{"NoteNumber":70,"Velocity":58,"Duration":72474,"SoundDuration":72474,"Delta":515996047},{"NoteNumber":58,"Velocity":58,"Duration":73077,"SoundDuration":73077,"Delta":515996047},{"NoteNumber":82,"Velocity":70,"Duration":72769,"SoundDuration":72769,"Delta":516068521},{"NoteNumber":94,"Velocity":70,"Duration":72769,"SoundDuration":72769,"Delta":516068521},{"NoteNumber":59,"Velocity":61,"Duration":72488,"SoundDuration":72488,"Delta":516140690},{"NoteNumber":71,"Velocity":61,"Duration":71890,"SoundDuration":71890,"Delta":516140690},{"NoteNumber":83,"Velocity":72,"Duration":72183,"SoundDuration":72183,"Delta":516212581},{"NoteNumber":95,"Velocity":72,"Duration":72183,"SoundDuration":72183,"Delta":516212581},{"NoteNumber":73,"Velocity":64,"Duration":71505,"SoundDuration":71505,"Delta":516284169},{"NoteNumber":61,"Velocity":64,"Duration":72104,"SoundDuration":72104,"Delta":516284169},{"NoteNumber":66,"Velocity":64,"Duration":72104,"SoundDuration":72104,"Delta":516284169},{"NoteNumber":97,"Velocity":76,"Duration":72739,"SoundDuration":72739,"Delta":516355675},{"NoteNumber":90,"Velocity":76,"Duration":72739,"SoundDuration":72739,"Delta":516355675},{"NoteNumber":85,"Velocity":76,"Duration":72739,"SoundDuration":72739,"Delta":516355675},{"NoteNumber":72,"Velocity":62,"Duration":72788,"SoundDuration":72788,"Delta":516427809},{"NoteNumber":60,"Velocity":62,"Duration":73396,"SoundDuration":73396,"Delta":516427809},{"NoteNumber":84,"Velocity":75,"Duration":74071,"SoundDuration":74071,"Delta":516500597},{"NoteNumber":96,"Velocity":75,"Duration":74071,"SoundDuration":74071,"Delta":516500597},{"NoteNumber":73,"Velocity":61,"Duration":74123,"SoundDuration":74123,"Delta":516574054},{"NoteNumber":61,"Velocity":61,"Duration":74744,"SoundDuration":74744,"Delta":516574054},{"NoteNumber":66,"Velocity":61,"Duration":74123,"SoundDuration":74123,"Delta":516574054},{"NoteNumber":85,"Velocity":72,"Duration":75328,"SoundDuration":75328,"Delta":516648177},{"NoteNumber":90,"Velocity":72,"Duration":74676,"SoundDuration":74676,"Delta":516648177},{"NoteNumber":97,"Velocity":72,"Duration":75328,"SoundDuration":75328,"Delta":516648177},{"NoteNumber":58,"Velocity":59,"Duration":79059,"SoundDuration":79059,"Delta":516722854},{"NoteNumber":70,"Velocity":59,"Duration":78206,"SoundDuration":78206,"Delta":516722854},{"NoteNumber":94,"Velocity":70,"Duration":103077,"SoundDuration":103077,"Delta":516801060},{"NoteNumber":82,"Velocity":70,"Duration":103077,"SoundDuration":103077,"Delta":516801060},{"NoteNumber":71,"Velocity":68,"Duration":82644,"SoundDuration":82644,"Delta":516903449},{"NoteNumber":59,"Velocity":68,"Duration":82644,"SoundDuration":82644,"Delta":516903449},{"NoteNumber":83,"Velocity":82,"Duration":83339,"SoundDuration":83339,"Delta":516986094},{"NoteNumber":95,"Velocity":82,"Duration":83339,"SoundDuration":83339,"Delta":516986094},{"NoteNumber":63,"Velocity":59,"Duration":84027,"SoundDuration":84027,"Delta":517068739},{"NoteNumber":75,"Velocity":59,"Duration":83333,"SoundDuration":83333,"Delta":517068739},{"NoteNumber":87,"Velocity":71,"Duration":83966,"SoundDuration":83966,"Delta":517152072},{"NoteNumber":99,"Velocity":71,"Duration":83966,"SoundDuration":83966,"Delta":517152072},{"NoteNumber":68,"Velocity":69,"Duration":76026,"SoundDuration":76026,"Delta":517235405},{"NoteNumber":56,"Velocity":69,"Duration":76659,"SoundDuration":76659,"Delta":517235405},{"NoteNumber":80,"Velocity":82,"Duration":76681,"SoundDuration":76681,"Delta":517311431},{"NoteNumber":92,"Velocity":82,"Duration":76681,"SoundDuration":76681,"Delta":517311431},{"NoteNumber":71,"Velocity":63,"Duration":78616,"SoundDuration":78616,"Delta":517387458},{"NoteNumber":59,"Velocity":63,"Duration":79271,"SoundDuration":79271,"Delta":517387458},{"NoteNumber":83,"Velocity":75,"Duration":79237,"SoundDuration":79237,"Delta":517466074},{"NoteNumber":95,"Velocity":75,"Duration":79237,"SoundDuration":79237,"Delta":517466074},{"NoteNumber":65,"Velocity":69,"Duration":74515,"SoundDuration":74515,"Delta":517544690},{"NoteNumber":53,"Velocity":69,"Duration":74515,"SoundDuration":74515,"Delta":517544690},{"NoteNumber":77,"Velocity":83,"Duration":74515,"SoundDuration":74515,"Delta":517619206},{"NoteNumber":89,"Velocity":83,"Duration":74515,"SoundDuration":74515,"Delta":517619206},{"NoteNumber":68,"Velocity":60,"Duration":77599,"SoundDuration":77599,"Delta":517693722},{"NoteNumber":56,"Velocity":60,"Duration":78246,"SoundDuration":78246,"Delta":517693722},{"NoteNumber":92,"Velocity":72,"Duration":78211,"SoundDuration":78211,"Delta":517771321},{"NoteNumber":80,"Velocity":72,"Duration":78211,"SoundDuration":78211,"Delta":517771321},{"NoteNumber":49,"Velocity":71,"Duration":74033,"SoundDuration":74033,"Delta":517848921},{"NoteNumber":61,"Velocity":71,"Duration":73421,"SoundDuration":73421,"Delta":517848921},{"NoteNumber":73,"Velocity":84,"Duration":74061,"SoundDuration":74061,"Delta":517922342},{"NoteNumber":85,"Velocity":84,"Duration":74061,"SoundDuration":74061,"Delta":517922342},{"NoteNumber":53,"Velocity":64,"Duration":76805,"SoundDuration":76805,"Delta":517995764},{"NoteNumber":65,"Velocity":64,"Duration":76805,"SoundDuration":76805,"Delta":517995764},{"NoteNumber":77,"Velocity":78,"Duration":76804,"SoundDuration":76804,"Delta":518072569},{"NoteNumber":89,"Velocity":78,"Duration":76804,"SoundDuration":76804,"Delta":518072569},{"NoteNumber":58,"Velocity":70,"Duration":72886,"SoundDuration":72886,"Delta":518149374},{"NoteNumber":46,"Velocity":70,"Duration":72886,"SoundDuration":72886,"Delta":518149374},{"NoteNumber":70,"Velocity":85,"Duration":72886,"SoundDuration":72886,"Delta":518222260},{"NoteNumber":82,"Velocity":85,"Duration":72886,"SoundDuration":72886,"Delta":518222260},{"NoteNumber":61,"Velocity":61,"Duration":76414,"SoundDuration":76414,"Delta":518295146},{"NoteNumber":49,"Velocity":61,"Duration":77049,"SoundDuration":77049,"Delta":518295146},{"NoteNumber":73,"Velocity":74,"Duration":76821,"SoundDuration":76821,"Delta":518371560},{"NoteNumber":85,"Velocity":74,"Duration":76821,"SoundDuration":76821,"Delta":518371560},{"NoteNumber":42,"Velocity":72,"Duration":72786,"SoundDuration":72786,"Delta":518447780},{"NoteNumber":54,"Velocity":72,"Duration":72184,"SoundDuration":72184,"Delta":518447780},{"NoteNumber":66,"Velocity":86,"Duration":72816,"SoundDuration":72816,"Delta":518519965},{"NoteNumber":78,"Velocity":86,"Duration":72816,"SoundDuration":72816,"Delta":518519965},{"NoteNumber":46,"Velocity":66,"Duration":75834,"SoundDuration":75834,"Delta":518592149},{"NoteNumber":58,"Velocity":66,"Duration":75834,"SoundDuration":75834,"Delta":518592149},{"NoteNumber":82,"Velocity":79,"Duration":75834,"SoundDuration":75834,"Delta":518667984},{"NoteNumber":70,"Velocity":79,"Duration":75834,"SoundDuration":75834,"Delta":518667984},{"NoteNumber":39,"Velocity":72,"Duration":71667,"SoundDuration":71667,"Delta":518743818},{"NoteNumber":51,"Velocity":72,"Duration":71667,"SoundDuration":71667,"Delta":518743818},{"NoteNumber":75,"Velocity":86,"Duration":71667,"SoundDuration":71667,"Delta":518815485},{"NoteNumber":63,"Velocity":86,"Duration":71667,"SoundDuration":71667,"Delta":518815485},{"NoteNumber":42,"Velocity":62,"Duration":75890,"SoundDuration":75890,"Delta":518887153},{"NoteNumber":54,"Velocity":62,"Duration":75263,"SoundDuration":75263,"Delta":518887153},{"NoteNumber":66,"Velocity":75,"Duration":75863,"SoundDuration":75863,"Delta":518962416},{"NoteNumber":78,"Velocity":75,"Duration":75863,"SoundDuration":75863,"Delta":518962416},{"NoteNumber":35,"Velocity":73,"Duration":72611,"SoundDuration":72611,"Delta":519037680},{"NoteNumber":47,"Velocity":73,"Duration":72011,"SoundDuration":72011,"Delta":519037680},{"NoteNumber":71,"Velocity":87,"Duration":72638,"SoundDuration":72638,"Delta":519109691},{"NoteNumber":59,"Velocity":87,"Duration":72638,"SoundDuration":72638,"Delta":519109691},{"NoteNumber":51,"Velocity":68,"Duration":75263,"SoundDuration":75263,"Delta":519181703},{"NoteNumber":39,"Velocity":68,"Duration":75263,"SoundDuration":75263,"Delta":519181703},{"NoteNumber":63,"Velocity":81,"Duration":75263,"SoundDuration":75263,"Delta":519256966},{"NoteNumber":75,"Velocity":81,"Duration":75263,"SoundDuration":75263,"Delta":519256966},{"NoteNumber":32,"Velocity":73,"Duration":72011,"SoundDuration":72011,"Delta":519332230},{"NoteNumber":44,"Velocity":73,"Duration":72011,"SoundDuration":72011,"Delta":519332230},{"NoteNumber":56,"Velocity":88,"Duration":72011,"SoundDuration":72011,"Delta":519404241},{"NoteNumber":68,"Velocity":88,"Duration":72011,"SoundDuration":72011,"Delta":519404241},{"NoteNumber":47,"Velocity":64,"Duration":75074,"SoundDuration":75074,"Delta":519476253},{"NoteNumber":35,"Velocity":64,"Duration":75700,"SoundDuration":75700,"Delta":519476253},{"NoteNumber":71,"Velocity":77,"Duration":75675,"SoundDuration":75675,"Delta":519551328},{"NoteNumber":59,"Velocity":77,"Duration":75675,"SoundDuration":75675,"Delta":519551328},{"NoteNumber":29,"Velocity":75,"Duration":72611,"SoundDuration":72611,"Delta":519626403},{"NoteNumber":41,"Velocity":75,"Duration":72011,"SoundDuration":72011,"Delta":519626403},{"NoteNumber":65,"Velocity":89,"Duration":72643,"SoundDuration":72643,"Delta":519698414},{"NoteNumber":53,"Velocity":89,"Duration":72011,"SoundDuration":72011,"Delta":519698414},{"NoteNumber":32,"Velocity":69,"Duration":75643,"SoundDuration":75643,"Delta":519770426},{"NoteNumber":44,"Velocity":69,"Duration":75643,"SoundDuration":75643,"Delta":519770426},{"NoteNumber":68,"Velocity":82,"Duration":75452,"SoundDuration":75452,"Delta":519846069},{"NoteNumber":56,"Velocity":82,"Duration":75452,"SoundDuration":75452,"Delta":519846069},{"NoteNumber":37,"Velocity":74,"Duration":72184,"SoundDuration":72184,"Delta":519921522},{"NoteNumber":61,"Velocity":90,"Duration":72184,"SoundDuration":72184,"Delta":519993707},{"NoteNumber":49,"Velocity":90,"Duration":72184,"SoundDuration":72184,"Delta":519993707},{"NoteNumber":41,"Velocity":65,"Duration":75643,"SoundDuration":75643,"Delta":520065892},{"NoteNumber":65,"Velocity":78,"Duration":76248,"SoundDuration":76248,"Delta":520141535},{"NoteNumber":53,"Velocity":78,"Duration":76248,"SoundDuration":76248,"Delta":520141535},{"NoteNumber":34,"Velocity":76,"Duration":72709,"SoundDuration":72709,"Delta":520217178},{"NoteNumber":46,"Velocity":91,"Duration":72709,"SoundDuration":72709,"Delta":520289887},{"NoteNumber":58,"Velocity":91,"Duration":73346,"SoundDuration":73346,"Delta":520289887},{"NoteNumber":37,"Velocity":70,"Duration":76124,"SoundDuration":76124,"Delta":520362597},{"NoteNumber":49,"Velocity":84,"Duration":75834,"SoundDuration":75834,"Delta":520438721},{"NoteNumber":61,"Velocity":84,"Duration":75834,"SoundDuration":75834,"Delta":520438721},{"NoteNumber":42,"Velocity":76,"Duration":73242,"SoundDuration":73242,"Delta":520514555},{"NoteNumber":30,"Velocity":76,"Duration":73242,"SoundDuration":73242,"Delta":520514555},{"NoteNumber":54,"Velocity":92,"Duration":73242,"SoundDuration":73242,"Delta":520587798},{"NoteNumber":46,"Velocity":66,"Duration":77801,"SoundDuration":77801,"Delta":520661040},{"NoteNumber":34,"Velocity":66,"Duration":77801,"SoundDuration":77801,"Delta":520661040},{"NoteNumber":58,"Velocity":80,"Duration":78234,"SoundDuration":78234,"Delta":520738841},{"NoteNumber":39,"Velocity":77,"Duration":76219,"SoundDuration":76219,"Delta":520816441},{"NoteNumber":27,"Velocity":77,"Duration":76219,"SoundDuration":76219,"Delta":520816441},{"NoteNumber":51,"Velocity":93,"Duration":76957,"SoundDuration":76957,"Delta":520892660},{"NoteNumber":42,"Velocity":71,"Duration":88600,"SoundDuration":88600,"Delta":520968880},{"NoteNumber":30,"Velocity":71,"Duration":88600,"SoundDuration":88600,"Delta":520968880},{"NoteNumber":54,"Velocity":85,"Duration":88599,"SoundDuration":88599,"Delta":521057480},{"NoteNumber":47,"Velocity":103,"Duration":177200,"SoundDuration":177200,"Delta":521146080},{"NoteNumber":35,"Velocity":90,"Duration":88600,"SoundDuration":88600,"Delta":521146080},{"NoteNumber":23,"Velocity":90,"Duration":88600,"SoundDuration":88600,"Delta":521146080},{"NoteNumber":63,"Velocity":80,"Duration":87344,"SoundDuration":87344,"Delta":521938223},{"NoteNumber":71,"Velocity":80,"Duration":87344,"SoundDuration":87344,"Delta":521938223},{"NoteNumber":75,"Velocity":95,"Duration":87344,"SoundDuration":87344,"Delta":521938223},{"NoteNumber":47,"Velocity":70,"Duration":87344,"SoundDuration":87344,"Delta":521938223},{"NoteNumber":35,"Velocity":59,"Duration":87344,"SoundDuration":87344,"Delta":521938223},{"NoteNumber":63,"Velocity":85,"Duration":349379,"SoundDuration":349379,"Delta":522054683},{"NoteNumber":75,"Velocity":101,"Duration":349379,"SoundDuration":349379,"Delta":522054683},{"NoteNumber":71,"Velocity":85,"Duration":349379,"SoundDuration":349379,"Delta":522054683},{"NoteNumber":54,"Velocity":64,"Duration":349379,"SoundDuration":349379,"Delta":522054683},{"NoteNumber":59,"Velocity":77,"Duration":349379,"SoundDuration":349379,"Delta":522054683},{"NoteNumber":51,"Velocity":64,"Duration":349379,"SoundDuration":349379,"Delta":522054683},{"NoteNumber":65,"Velocity":79,"Duration":87344,"SoundDuration":87344,"Delta":522404062},{"NoteNumber":77,"Velocity":93,"Duration":87344,"SoundDuration":87344,"Delta":522404062},{"NoteNumber":71,"Velocity":79,"Duration":87344,"SoundDuration":87344,"Delta":522404062},{"NoteNumber":68,"Velocity":79,"Duration":87344,"SoundDuration":87344,"Delta":522404062},{"NoteNumber":37,"Velocity":72,"Duration":87344,"SoundDuration":87344,"Delta":522404062},{"NoteNumber":49,"Velocity":85,"Duration":87344,"SoundDuration":87344,"Delta":522404062},{"NoteNumber":71,"Velocity":85,"Duration":349379,"SoundDuration":349379,"Delta":522520522},{"NoteNumber":68,"Velocity":85,"Duration":349379,"SoundDuration":349379,"Delta":522520522},{"NoteNumber":65,"Velocity":85,"Duration":349379,"SoundDuration":349379,"Delta":522520522},{"NoteNumber":77,"Velocity":101,"Duration":349379,"SoundDuration":349379,"Delta":522520522},{"NoteNumber":56,"Velocity":64,"Duration":349379,"SoundDuration":349379,"Delta":522520522},{"NoteNumber":61,"Velocity":77,"Duration":349379,"SoundDuration":349379,"Delta":522520522},{"NoteNumber":49,"Velocity":64,"Duration":349379,"SoundDuration":349379,"Delta":522520522},{"NoteNumber":53,"Velocity":64,"Duration":349379,"SoundDuration":349379,"Delta":522520522},{"NoteNumber":70,"Velocity":80,"Duration":97150,"SoundDuration":97150,"Delta":522869901},{"NoteNumber":78,"Velocity":95,"Duration":97150,"SoundDuration":97150,"Delta":522869901},{"NoteNumber":73,"Velocity":80,"Duration":97150,"SoundDuration":97150,"Delta":522869901},{"NoteNumber":66,"Velocity":80,"Duration":97150,"SoundDuration":97150,"Delta":522869901},{"NoteNumber":42,"Velocity":99,"Duration":97150,"SoundDuration":97150,"Delta":522869901},{"NoteNumber":30,"Velocity":83,"Duration":97150,"SoundDuration":97150,"Delta":522869901},{"NoteNumber":70,"Velocity":85,"Duration":1036270,"SoundDuration":1036270,"Delta":522999435},{"NoteNumber":78,"Velocity":101,"Duration":1036270,"SoundDuration":1036270,"Delta":522999435},{"NoteNumber":73,"Velocity":85,"Duration":1036270,"SoundDuration":1036270,"Delta":522999435},{"NoteNumber":66,"Velocity":85,"Duration":1036270,"SoundDuration":1036270,"Delta":522999435},{"NoteNumber":54,"Velocity":64,"Duration":1036270,"SoundDuration":1036270,"Delta":522999435},{"NoteNumber":58,"Velocity":64,"Duration":1036270,"SoundDuration":1036270,"Delta":522999435},{"NoteNumber":49,"Velocity":64,"Duration":1036270,"SoundDuration":1036270,"Delta":522999435},{"NoteNumber":61,"Velocity":77,"Duration":1036270,"SoundDuration":1036270,"Delta":522999435},{"NoteNumber":90,"Velocity":101,"Duration":72533,"SoundDuration":72533,"Delta":524035705},{"NoteNumber":82,"Velocity":85,"Duration":72533,"SoundDuration":72533,"Delta":524035705},{"NoteNumber":78,"Velocity":85,"Duration":72533,"SoundDuration":72533,"Delta":524035705},{"NoteNumber":85,"Velocity":85,"Duration":72533,"SoundDuration":72533,"Delta":524035705},{"NoteNumber":66,"Velocity":64,"Duration":72533,"SoundDuration":72533,"Delta":524035705},{"NoteNumber":61,"Velocity":64,"Duration":72533,"SoundDuration":72533,"Delta":524035705},{"NoteNumber":70,"Velocity":64,"Duration":72533,"SoundDuration":72533,"Delta":524035705},{"NoteNumber":73,"Velocity":77,"Duration":72533,"SoundDuration":72533,"Delta":524035705},{"NoteNumber":94,"Velocity":85,"Duration":72533,"SoundDuration":72533,"Delta":524325840},{"NoteNumber":102,"Velocity":101,"Duration":72533,"SoundDuration":72533,"Delta":524325840},{"NoteNumber":90,"Velocity":85,"Duration":72533,"SoundDuration":72533,"Delta":524325840},{"NoteNumber":97,"Velocity":85,"Duration":72533,"SoundDuration":72533,"Delta":524325840},{"NoteNumber":82,"Velocity":64,"Duration":72533,"SoundDuration":72533,"Delta":524325840},{"NoteNumber":73,"Velocity":64,"Duration":72533,"SoundDuration":72533,"Delta":524325840},{"NoteNumber":85,"Velocity":77,"Duration":72533,"SoundDuration":72533,"Delta":524325840},{"NoteNumber":78,"Velocity":64,"Duration":72533,"SoundDuration":72533,"Delta":524325840},{"NoteNumber":66,"Velocity":107,"Duration":72533,"SoundDuration":72533,"Delta":524615975},{"NoteNumber":54,"Velocity":91,"Duration":72533,"SoundDuration":72533,"Delta":524615975},{"NoteNumber":42,"Velocity":88,"Duration":72533,"SoundDuration":72533,"Delta":524615975},{"NoteNumber":30,"Velocity":74,"Duration":72533,"SoundDuration":72533,"Delta":524615975}]}