{"title":"Vöglein Op 43, No. 4","artist":"Piano","durationMs":93287,"midiSha256":"dd307663a30e56fe4608bf32dc7297cee96c552099abfbcda881328eaa92c827","midiObject":[{"NoteNumber":81,"Velocity":43,"Duration":55625,"SoundDuration":55625,"Delta":0},{"NoteNumber":74,"Velocity":42,"Duration":55625,"SoundDuration":55625,"Delta":0},{"NoteNumber":82,"Velocity":38,"Duration":55625,"SoundDuration":55625,"Delta":55625},{"NoteNumber":77,"Velocity":38,"Duration":55625,"SoundDuration":55625,"Delta":55625},{"NoteNumber":81,"Velocity":43,"Duration":55625,"SoundDuration":55625,"Delta":111251},{"NoteNumber":74,"Velocity":42,"Duration":55625,"SoundDuration":55625,"Delta":111251},{"NoteNumber":82,"Velocity":39,"Duration":55625,"SoundDuration":55625,"Delta":166876},{"NoteNumber":77,"Velocity":38,"Duration":55625,"SoundDuration":55625,"Delta":166876},{"NoteNumber":81,"Velocity":49,"Duration":134060,"SoundDuration":134060,"Delta":222502},{"NoteNumber":74,"Velocity":50,"Duration":134060,"SoundDuration":134060,"Delta":222502},{"NoteNumber":69,"Velocity":30,"Duration":297029,"SoundDuration":297029,"Delta":758743},{"NoteNumber":62,"Velocity":30,"Duration":297029,"SoundDuration":297029,"Delta":758743},{"NoteNumber":69,"Velocity":30,"Duration":148514,"SoundDuration":148514,"Delta":1055773},{"NoteNumber":62,"Velocity":30,"Duration":148514,"SoundDuration":148514,"Delta":1055773},{"NoteNumber":86,"Velocity":44,"Duration":57286,"SoundDuration":57286,"Delta":1649832},{"NoteNumber":79,"Velocity":44,"Duration":57286,"SoundDuration":57286,"Delta":1649832},{"NoteNumber":88,"Velocity":40,"Duration":57286,"SoundDuration":57286,"Delta":1707118},{"NoteNumber":83,"Velocity":40,"Duration":57286,"SoundDuration":57286,"Delta":1707118},{"NoteNumber":86,"Velocity":44,"Duration":57286,"SoundDuration":57286,"Delta":1764405},{"NoteNumber":79,"Velocity":44,"Duration":57286,"SoundDuration":57286,"Delta":1764405},{"NoteNumber":88,"Velocity":42,"Duration":57286,"SoundDuration":57286,"Delta":1821692},{"NoteNumber":83,"Velocity":40,"Duration":57286,"SoundDuration":57286,"Delta":1821692},{"NoteNumber":86,"Velocity":50,"Duration":134060,"SoundDuration":134060,"Delta":1878979},{"NoteNumber":79,"Velocity":50,"Duration":134060,"SoundDuration":134060,"Delta":1878979},{"NoteNumber":74,"Velocity":30,"Duration":306122,"SoundDuration":306122,"Delta":2415220},{"NoteNumber":67,"Velocity":30,"Duration":306122,"SoundDuration":306122,"Delta":2415220},{"NoteNumber":74,"Velocity":30,"Duration":153061,"SoundDuration":153061,"Delta":2721342},{"NoteNumber":67,"Velocity":30,"Duration":153061,"SoundDuration":153061,"Delta":2721342},{"NoteNumber":81,"Velocity":49,"Duration":56327,"SoundDuration":56327,"Delta":3333587},{"NoteNumber":74,"Velocity":48,"Duration":56327,"SoundDuration":56327,"Delta":3333587},{"NoteNumber":82,"Velocity":44,"Duration":56327,"SoundDuration":56327,"Delta":3389915},{"NoteNumber":77,"Velocity":43,"Duration":56327,"SoundDuration":56327,"Delta":3389915},{"NoteNumber":81,"Velocity":49,"Duration":56327,"SoundDuration":56327,"Delta":3446243},{"NoteNumber":74,"Velocity":48,"Duration":56327,"SoundDuration":56327,"Delta":3446243},{"NoteNumber":82,"Velocity":44,"Duration":56327,"SoundDuration":56327,"Delta":3502570},{"NoteNumber":77,"Velocity":44,"Duration":56327,"SoundDuration":56327,"Delta":3502570},{"NoteNumber":81,"Velocity":52,"Duration":115065,"SoundDuration":115065,"Delta":3558898},{"NoteNumber":74,"Velocity":51,"Duration":115065,"SoundDuration":115065,"Delta":3558898},{"NoteNumber":77,"Velocity":48,"Duration":56091,"SoundDuration":56091,"Delta":4019162},{"NoteNumber":70,"Velocity":48,"Duration":56091,"SoundDuration":56091,"Delta":4019162},{"NoteNumber":79,"Velocity":45,"Duration":56091,"SoundDuration":56091,"Delta":4075253},{"NoteNumber":74,"Velocity":45,"Duration":56091,"SoundDuration":56091,"Delta":4075253},{"NoteNumber":77,"Velocity":48,"Duration":56091,"SoundDuration":56091,"Delta":4131345},{"NoteNumber":70,"Velocity":48,"Duration":56091,"SoundDuration":56091,"Delta":4131345},{"NoteNumber":79,"Velocity":45,"Duration":56091,"SoundDuration":56091,"Delta":4187436},{"NoteNumber":74,"Velocity":44,"Duration":56091,"SoundDuration":56091,"Delta":4187436},{"NoteNumber":77,"Velocity":56,"Duration":114573,"SoundDuration":114573,"Delta":4243527},{"NoteNumber":70,"Velocity":55,"Duration":114573,"SoundDuration":114573,"Delta":4243527},{"NoteNumber":81,"Velocity":49,"Duration":56327,"SoundDuration":56327,"Delta":4701822},{"NoteNumber":74,"Velocity":49,"Duration":56327,"SoundDuration":56327,"Delta":4701822},{"NoteNumber":82,"Velocity":44,"Duration":56327,"SoundDuration":56327,"Delta":4758150},{"NoteNumber":77,"Velocity":44,"Duration":56327,"SoundDuration":56327,"Delta":4758150},{"NoteNumber":81,"Velocity":49,"Duration":56327,"SoundDuration":56327,"Delta":4814477},{"NoteNumber":74,"Velocity":49,"Duration":56327,"SoundDuration":56327,"Delta":4814477},{"NoteNumber":82,"Velocity":44,"Duration":56327,"SoundDuration":56327,"Delta":4870805},{"NoteNumber":77,"Velocity":45,"Duration":56327,"SoundDuration":56327,"Delta":4870805},{"NoteNumber":81,"Velocity":54,"Duration":134060,"SoundDuration":134060,"Delta":4927132},{"NoteNumber":74,"Velocity":56,"Duration":134060,"SoundDuration":134060,"Delta":4927132},{"NoteNumber":69,"Velocity":32,"Duration":292683,"SoundDuration":292683,"Delta":5463374},{"NoteNumber":62,"Velocity":32,"Duration":292683,"SoundDuration":292683,"Delta":5463374},{"NoteNumber":62,"Velocity":32,"Duration":146341,"SoundDuration":146341,"Delta":5756057},{"NoteNumber":69,"Velocity":32,"Duration":146341,"SoundDuration":146341,"Delta":5756057},{"NoteNumber":84,"Velocity":48,"Duration":60935,"SoundDuration":60935,"Delta":6341423},{"NoteNumber":77,"Velocity":48,"Duration":60935,"SoundDuration":60935,"Delta":6341423},{"NoteNumber":86,"Velocity":45,"Duration":60935,"SoundDuration":60935,"Delta":6402359},{"NoteNumber":81,"Velocity":44,"Duration":60935,"SoundDuration":60935,"Delta":6402359},{"NoteNumber":84,"Velocity":48,"Duration":60935,"SoundDuration":60935,"Delta":6463295},{"NoteNumber":77,"Velocity":48,"Duration":60935,"SoundDuration":60935,"Delta":6463295},{"NoteNumber":86,"Velocity":45,"Duration":60936,"SoundDuration":60936,"Delta":6524230},{"NoteNumber":81,"Velocity":45,"Duration":60936,"SoundDuration":60936,"Delta":6524230},{"NoteNumber":84,"Velocity":68,"Duration":134060,"SoundDuration":134060,"Delta":6585167},{"NoteNumber":77,"Velocity":69,"Duration":134060,"SoundDuration":134060,"Delta":6585167},{"NoteNumber":65,"Velocity":40,"Duration":274976,"SoundDuration":274976,"Delta":7121408},{"NoteNumber":72,"Velocity":40,"Duration":274976,"SoundDuration":274976,"Delta":7121408},{"NoteNumber":65,"Velocity":40,"Duration":137488,"SoundDuration":137488,"Delta":7396385},{"NoteNumber":72,"Velocity":40,"Duration":137488,"SoundDuration":137488,"Delta":7396385},{"NoteNumber":88,"Velocity":48,"Duration":62060,"SoundDuration":62060,"Delta":7946339},{"NoteNumber":81,"Velocity":49,"Duration":62060,"SoundDuration":62060,"Delta":7946339},{"NoteNumber":89,"Velocity":44,"Duration":62060,"SoundDuration":62060,"Delta":8008399},{"NoteNumber":84,"Velocity":44,"Duration":62060,"SoundDuration":62060,"Delta":8008399},{"NoteNumber":88,"Velocity":48,"Duration":62060,"SoundDuration":62060,"Delta":8070459},{"NoteNumber":81,"Velocity":49,"Duration":62060,"SoundDuration":62060,"Delta":8070459},{"NoteNumber":89,"Velocity":45,"Duration":62060,"SoundDuration":62060,"Delta":8132520},{"NoteNumber":84,"Velocity":45,"Duration":62060,"SoundDuration":62060,"Delta":8132520},{"NoteNumber":88,"Velocity":67,"Duration":137488,"SoundDuration":137488,"Delta":8194580},{"NoteNumber":81,"Velocity":69,"Duration":137488,"SoundDuration":137488,"Delta":8194580},{"NoteNumber":72,"Velocity":45,"Duration":296267,"SoundDuration":296267,"Delta":8744534},{"NoteNumber":64,"Velocity":45,"Duration":296267,"SoundDuration":296267,"Delta":8744534},{"NoteNumber":72,"Velocity":45,"Duration":148133,"SoundDuration":148133,"Delta":9040801},{"NoteNumber":64,"Velocity":45,"Duration":148133,"SoundDuration":148133,"Delta":9040801},{"NoteNumber":80,"Velocity":54,"Duration":89073,"SoundDuration":89073,"Delta":9485202},{"NoteNumber":76,"Velocity":54,"Duration":116568,"SoundDuration":116568,"Delta":9574275},{"NoteNumber":72,"Velocity":49,"Duration":274976,"SoundDuration":274976,"Delta":9810898},{"NoteNumber":68,"Velocity":49,"Duration":274976,"SoundDuration":274976,"Delta":9810898},{"NoteNumber":62,"Velocity":44,"Duration":274976,"SoundDuration":274976,"Delta":9810898},{"NoteNumber":52,"Velocity":44,"Duration":274976,"SoundDuration":274976,"Delta":9810898},{"NoteNumber":80,"Velocity":54,"Duration":89669,"SoundDuration":89669,"Delta":10218395},{"NoteNumber":76,"Velocity":54,"Duration":116568,"SoundDuration":116568,"Delta":10308065},{"NoteNumber":68,"Velocity":50,"Duration":274976,"SoundDuration":274976,"Delta":10541201},{"NoteNumber":72,"Velocity":50,"Duration":274976,"SoundDuration":274976,"Delta":10541201},{"NoteNumber":52,"Velocity":44,"Duration":274976,"SoundDuration":274976,"Delta":10541201},{"NoteNumber":62,"Velocity":44,"Duration":274976,"SoundDuration":274976,"Delta":10541201},{"NoteNumber":81,"Velocity":54,"Duration":89669,"SoundDuration":89669,"Delta":10953667},{"NoteNumber":76,"Velocity":54,"Duration":117591,"SoundDuration":117591,"Delta":11043337},{"NoteNumber":69,"Velocity":56,"Duration":259045,"SoundDuration":259045,"Delta":11278520},{"NoteNumber":60,"Velocity":55,"Duration":285225,"SoundDuration":285225,"Delta":11796610},{"NoteNumber":69,"Velocity":55,"Duration":285225,"SoundDuration":285225,"Delta":11796610},{"NoteNumber":52,"Velocity":50,"Duration":285225,"SoundDuration":285225,"Delta":11796610},{"NoteNumber":45,"Velocity":50,"Duration":285225,"SoundDuration":285225,"Delta":11796610},{"NoteNumber":69,"Velocity":55,"Duration":285225,"SoundDuration":285225,"Delta":12081836},{"NoteNumber":60,"Velocity":55,"Duration":285225,"SoundDuration":285225,"Delta":12081836},{"NoteNumber":45,"Velocity":50,"Duration":285225,"SoundDuration":285225,"Delta":12081836},{"NoteNumber":52,"Velocity":50,"Duration":285225,"SoundDuration":285225,"Delta":12081836},{"NoteNumber":81,"Velocity":43,"Duration":55625,"SoundDuration":55625,"Delta":12652287},{"NoteNumber":74,"Velocity":42,"Duration":55625,"SoundDuration":55625,"Delta":12652287},{"NoteNumber":82,"Velocity":38,"Duration":55625,"SoundDuration":55625,"Delta":12707912},{"NoteNumber":77,"Velocity":38,"Duration":55625,"SoundDuration":55625,"Delta":12707912},{"NoteNumber":81,"Velocity":43,"Duration":55625,"SoundDuration":55625,"Delta":12763538},{"NoteNumber":74,"Velocity":42,"Duration":55625,"SoundDuration":55625,"Delta":12763538},{"NoteNumber":82,"Velocity":39,"Duration":55625,"SoundDuration":55625,"Delta":12819164},{"NoteNumber":77,"Velocity":38,"Duration":55625,"SoundDuration":55625,"Delta":12819164},{"NoteNumber":81,"Velocity":49,"Duration":134060,"SoundDuration":134060,"Delta":12874789},{"NoteNumber":74,"Velocity":50,"Duration":134060,"SoundDuration":134060,"Delta":12874789},{"NoteNumber":62,"Velocity":30,"Duration":295566,"SoundDuration":295566,"Delta":13411030},{"NoteNumber":69,"Velocity":30,"Duration":295566,"SoundDuration":295566,"Delta":13411030},{"NoteNumber":62,"Velocity":30,"Duration":147783,"SoundDuration":147783,"Delta":13706597},{"NoteNumber":69,"Velocity":30,"Duration":147783,"SoundDuration":147783,"Delta":13706597},{"NoteNumber":86,"Velocity":44,"Duration":57286,"SoundDuration":57286,"Delta":14297730},{"NoteNumber":79,"Velocity":44,"Duration":57286,"SoundDuration":57286,"Delta":14297730},{"NoteNumber":88,"Velocity":40,"Duration":57286,"SoundDuration":57286,"Delta":14355017},{"NoteNumber":83,"Velocity":40,"Duration":57286,"SoundDuration":57286,"Delta":14355017},{"NoteNumber":86,"Velocity":44,"Duration":57286,"SoundDuration":57286,"Delta":14412304},{"NoteNumber":79,"Velocity":44,"Duration":57286,"SoundDuration":57286,"Delta":14412304},{"NoteNumber":88,"Velocity":42,"Duration":57286,"SoundDuration":57286,"Delta":14469590},{"NoteNumber":83,"Velocity":40,"Duration":57286,"SoundDuration":57286,"Delta":14469590},{"NoteNumber":86,"Velocity":50,"Duration":134060,"SoundDuration":134060,"Delta":14526877},{"NoteNumber":79,"Velocity":50,"Duration":134060,"SoundDuration":134060,"Delta":14526877},{"NoteNumber":67,"Velocity":30,"Duration":304568,"SoundDuration":304568,"Delta":15063118},{"NoteNumber":74,"Velocity":30,"Duration":304568,"SoundDuration":304568,"Delta":15063118},{"NoteNumber":67,"Velocity":30,"Duration":152284,"SoundDuration":152284,"Delta":15367687},{"NoteNumber":74,"Velocity":30,"Duration":152284,"SoundDuration":152284,"Delta":15367687},{"NoteNumber":81,"Velocity":49,"Duration":56327,"SoundDuration":56327,"Delta":15976824},{"NoteNumber":74,"Velocity":48,"Duration":56327,"SoundDuration":56327,"Delta":15976824},{"NoteNumber":82,"Velocity":44,"Duration":56327,"SoundDuration":56327,"Delta":16033151},{"NoteNumber":77,"Velocity":43,"Duration":56327,"SoundDuration":56327,"Delta":16033151},{"NoteNumber":81,"Velocity":49,"Duration":56327,"SoundDuration":56327,"Delta":16089479},{"NoteNumber":74,"Velocity":48,"Duration":56327,"SoundDuration":56327,"Delta":16089479},{"NoteNumber":82,"Velocity":44,"Duration":56327,"SoundDuration":56327,"Delta":16145806},{"NoteNumber":77,"Velocity":44,"Duration":56327,"SoundDuration":56327,"Delta":16145806},{"NoteNumber":81,"Velocity":52,"Duration":115065,"SoundDuration":115065,"Delta":16202134},{"NoteNumber":74,"Velocity":51,"Duration":115065,"SoundDuration":115065,"Delta":16202134},{"NoteNumber":77,"Velocity":48,"Duration":56091,"SoundDuration":56091,"Delta":16662398},{"NoteNumber":70,"Velocity":48,"Duration":56091,"SoundDuration":56091,"Delta":16662398},{"NoteNumber":79,"Velocity":45,"Duration":56091,"SoundDuration":56091,"Delta":16718489},{"NoteNumber":74,"Velocity":45,"Duration":56091,"SoundDuration":56091,"Delta":16718489},{"NoteNumber":77,"Velocity":48,"Duration":56091,"SoundDuration":56091,"Delta":16774581},{"NoteNumber":70,"Velocity":48,"Duration":56091,"SoundDuration":56091,"Delta":16774581},{"NoteNumber":79,"Velocity":45,"Duration":56091,"SoundDuration":56091,"Delta":16830672},{"NoteNumber":74,"Velocity":44,"Duration":56091,"SoundDuration":56091,"Delta":16830672},{"NoteNumber":77,"Velocity":56,"Duration":114573,"SoundDuration":114573,"Delta":16886764},{"NoteNumber":70,"Velocity":55,"Duration":114573,"SoundDuration":114573,"Delta":16886764},{"NoteNumber":81,"Velocity":49,"Duration":56327,"SoundDuration":56327,"Delta":17345059},{"NoteNumber":74,"Velocity":49,"Duration":56327,"SoundDuration":56327,"Delta":17345059},{"NoteNumber":82,"Velocity":44,"Duration":56327,"SoundDuration":56327,"Delta":17401386},{"NoteNumber":77,"Velocity":44,"Duration":56327,"SoundDuration":56327,"Delta":17401386},{"NoteNumber":81,"Velocity":49,"Duration":56327,"SoundDuration":56327,"Delta":17457714},{"NoteNumber":74,"Velocity":49,"Duration":56327,"SoundDuration":56327,"Delta":17457714},{"NoteNumber":82,"Velocity":44,"Duration":56327,"SoundDuration":56327,"Delta":17514041},{"NoteNumber":77,"Velocity":45,"Duration":56327,"SoundDuration":56327,"Delta":17514041},{"NoteNumber":81,"Velocity":54,"Duration":134060,"SoundDuration":134060,"Delta":17570369},{"NoteNumber":74,"Velocity":56,"Duration":134060,"SoundDuration":134060,"Delta":17570369},{"NoteNumber":62,"Velocity":32,"Duration":288461,"SoundDuration":288461,"Delta":18106610},{"NoteNumber":69,"Velocity":32,"Duration":288461,"SoundDuration":288461,"Delta":18106610},{"NoteNumber":62,"Velocity":32,"Duration":144230,"SoundDuration":144230,"Delta":18395071},{"NoteNumber":69,"Velocity":32,"Duration":144230,"SoundDuration":144230,"Delta":18395071},{"NoteNumber":84,"Velocity":48,"Duration":60936,"SoundDuration":60936,"Delta":18971994},{"NoteNumber":77,"Velocity":48,"Duration":60936,"SoundDuration":60936,"Delta":18971994},{"NoteNumber":86,"Velocity":45,"Duration":60935,"SoundDuration":60935,"Delta":19032930},{"NoteNumber":81,"Velocity":44,"Duration":60935,"SoundDuration":60935,"Delta":19032930},{"NoteNumber":84,"Velocity":48,"Duration":60936,"SoundDuration":60936,"Delta":19093866},{"NoteNumber":77,"Velocity":48,"Duration":60936,"SoundDuration":60936,"Delta":19093866},{"NoteNumber":86,"Velocity":45,"Duration":60935,"SoundDuration":60935,"Delta":19154802},{"NoteNumber":81,"Velocity":45,"Duration":60935,"SoundDuration":60935,"Delta":19154802},{"NoteNumber":84,"Velocity":68,"Duration":134060,"SoundDuration":134060,"Delta":19215738},{"NoteNumber":77,"Velocity":69,"Duration":134060,"SoundDuration":134060,"Delta":19215738},{"NoteNumber":65,"Velocity":40,"Duration":274976,"SoundDuration":274976,"Delta":19751979},{"NoteNumber":72,"Velocity":40,"Duration":274976,"SoundDuration":274976,"Delta":19751979},{"NoteNumber":65,"Velocity":40,"Duration":137488,"SoundDuration":137488,"Delta":20026956},{"NoteNumber":72,"Velocity":40,"Duration":137488,"SoundDuration":137488,"Delta":20026956},{"NoteNumber":88,"Velocity":48,"Duration":62060,"SoundDuration":62060,"Delta":20576910},{"NoteNumber":81,"Velocity":49,"Duration":62060,"SoundDuration":62060,"Delta":20576910},{"NoteNumber":89,"Velocity":44,"Duration":62060,"SoundDuration":62060,"Delta":20638971},{"NoteNumber":84,"Velocity":44,"Duration":62060,"SoundDuration":62060,"Delta":20638971},{"NoteNumber":88,"Velocity":48,"Duration":62060,"SoundDuration":62060,"Delta":20701031},{"NoteNumber":81,"Velocity":49,"Duration":62060,"SoundDuration":62060,"Delta":20701031},{"NoteNumber":89,"Velocity":45,"Duration":62060,"SoundDuration":62060,"Delta":20763091},{"NoteNumber":84,"Velocity":45,"Duration":62060,"SoundDuration":62060,"Delta":20763091},{"NoteNumber":88,"Velocity":67,"Duration":137488,"SoundDuration":137488,"Delta":20825152},{"NoteNumber":81,"Velocity":69,"Duration":137488,"SoundDuration":137488,"Delta":20825152},{"NoteNumber":64,"Velocity":45,"Duration":303030,"SoundDuration":303030,"Delta":21375106},{"NoteNumber":72,"Velocity":45,"Duration":303030,"SoundDuration":303030,"Delta":21375106},{"NoteNumber":64,"Velocity":45,"Duration":151515,"SoundDuration":151515,"Delta":21678136},{"NoteNumber":72,"Velocity":45,"Duration":151515,"SoundDuration":151515,"Delta":21678136},{"NoteNumber":80,"Velocity":54,"Duration":89073,"SoundDuration":89073,"Delta":22132682},{"NoteNumber":76,"Velocity":54,"Duration":116568,"SoundDuration":116568,"Delta":22221756},{"NoteNumber":68,"Velocity":49,"Duration":274976,"SoundDuration":274976,"Delta":22458379},{"NoteNumber":72,"Velocity":49,"Duration":274976,"SoundDuration":274976,"Delta":22458379},{"NoteNumber":62,"Velocity":44,"Duration":274976,"SoundDuration":274976,"Delta":22458379},{"NoteNumber":52,"Velocity":44,"Duration":274976,"SoundDuration":274976,"Delta":22458379},{"NoteNumber":80,"Velocity":54,"Duration":89670,"SoundDuration":89670,"Delta":22865875},{"NoteNumber":76,"Velocity":54,"Duration":116568,"SoundDuration":116568,"Delta":22955545},{"NoteNumber":68,"Velocity":50,"Duration":274976,"SoundDuration":274976,"Delta":23188682},{"NoteNumber":72,"Velocity":50,"Duration":274976,"SoundDuration":274976,"Delta":23188682},{"NoteNumber":62,"Velocity":44,"Duration":274976,"SoundDuration":274976,"Delta":23188682},{"NoteNumber":52,"Velocity":44,"Duration":274976,"SoundDuration":274976,"Delta":23188682},{"NoteNumber":81,"Velocity":54,"Duration":89670,"SoundDuration":89670,"Delta":23601147},{"NoteNumber":76,"Velocity":54,"Duration":117591,"SoundDuration":117591,"Delta":23690817},{"NoteNumber":69,"Velocity":56,"Duration":247096,"SoundDuration":247096,"Delta":23926001},{"NoteNumber":60,"Velocity":57,"Duration":285225,"SoundDuration":285225,"Delta":24420194},{"NoteNumber":69,"Velocity":57,"Duration":285225,"SoundDuration":285225,"Delta":24420194},{"NoteNumber":52,"Velocity":52,"Duration":285225,"SoundDuration":285225,"Delta":24420194},{"NoteNumber":45,"Velocity":52,"Duration":285225,"SoundDuration":285225,"Delta":24420194},{"NoteNumber":60,"Velocity":57,"Duration":285225,"SoundDuration":285225,"Delta":24705419},{"NoteNumber":69,"Velocity":57,"Duration":285225,"SoundDuration":285225,"Delta":24705419},{"NoteNumber":45,"Velocity":52,"Duration":285225,"SoundDuration":285225,"Delta":24705419},{"NoteNumber":52,"Velocity":52,"Duration":285225,"SoundDuration":285225,"Delta":24705419},{"NoteNumber":46,"Velocity":43,"Duration":62761,"SoundDuration":62761,"Delta":25309794},{"NoteNumber":48,"Velocity":43,"Duration":62761,"SoundDuration":62761,"Delta":25372555},{"NoteNumber":46,"Velocity":43,"Duration":62761,"SoundDuration":62761,"Delta":25435317},{"NoteNumber":48,"Velocity":43,"Duration":62761,"SoundDuration":62761,"Delta":25498078},{"NoteNumber":46,"Velocity":61,"Duration":1249731,"SoundDuration":1249731,"Delta":25560840},{"NoteNumber":52,"Velocity":40,"Duration":114068,"SoundDuration":114068,"Delta":25994057},{"NoteNumber":62,"Velocity":40,"Duration":114068,"SoundDuration":114068,"Delta":25994057},{"NoteNumber":64,"Velocity":43,"Duration":114068,"SoundDuration":114068,"Delta":26108126},{"NoteNumber":64,"Velocity":49,"Duration":725353,"SoundDuration":725353,"Delta":26336263},{"NoteNumber":62,"Velocity":49,"Duration":725353,"SoundDuration":725353,"Delta":26336263},{"NoteNumber":52,"Velocity":49,"Duration":725353,"SoundDuration":725353,"Delta":26336263},{"NoteNumber":46,"Velocity":43,"Duration":62761,"SoundDuration":62761,"Delta":26810571},{"NoteNumber":48,"Velocity":43,"Duration":62761,"SoundDuration":62761,"Delta":26873332},{"NoteNumber":46,"Velocity":43,"Duration":62761,"SoundDuration":62761,"Delta":26936094},{"NoteNumber":48,"Velocity":43,"Duration":62761,"SoundDuration":62761,"Delta":26998855},{"NoteNumber":46,"Velocity":61,"Duration":1249671,"SoundDuration":1249671,"Delta":27061617},{"NoteNumber":62,"Velocity":40,"Duration":114942,"SoundDuration":114942,"Delta":27494020},{"NoteNumber":52,"Velocity":40,"Duration":114942,"SoundDuration":114942,"Delta":27494020},{"NoteNumber":64,"Velocity":45,"Duration":114942,"SoundDuration":114942,"Delta":27608962},{"NoteNumber":62,"Velocity":48,"Duration":723486,"SoundDuration":723486,"Delta":27838847},{"NoteNumber":64,"Velocity":48,"Duration":723486,"SoundDuration":723486,"Delta":27838847},{"NoteNumber":52,"Velocity":48,"Duration":723486,"SoundDuration":723486,"Delta":27838847},{"NoteNumber":46,"Velocity":42,"Duration":62761,"SoundDuration":62761,"Delta":28311288},{"NoteNumber":48,"Velocity":42,"Duration":62761,"SoundDuration":62761,"Delta":28374050},{"NoteNumber":46,"Velocity":42,"Duration":62761,"SoundDuration":62761,"Delta":28436811},{"NoteNumber":48,"Velocity":40,"Duration":62761,"SoundDuration":62761,"Delta":28499573},{"NoteNumber":46,"Velocity":64,"Duration":232558,"SoundDuration":232558,"Delta":28562334},{"NoteNumber":46,"Velocity":45,"Duration":116278,"SoundDuration":116278,"Delta":28911171},{"NoteNumber":64,"Velocity":40,"Duration":124481,"SoundDuration":124481,"Delta":29027450},{"NoteNumber":62,"Velocity":40,"Duration":124481,"SoundDuration":124481,"Delta":29027450},{"NoteNumber":52,"Velocity":40,"Duration":124481,"SoundDuration":124481,"Delta":29027450},{"NoteNumber":48,"Velocity":45,"Duration":124481,"SoundDuration":124481,"Delta":29027450},{"NoteNumber":46,"Velocity":63,"Duration":232558,"SoundDuration":232558,"Delta":29276413},{"NoteNumber":46,"Velocity":43,"Duration":116278,"SoundDuration":116278,"Delta":29625250},{"NoteNumber":64,"Velocity":40,"Duration":123456,"SoundDuration":123456,"Delta":29741529},{"NoteNumber":62,"Velocity":40,"Duration":123456,"SoundDuration":123456,"Delta":29741529},{"NoteNumber":52,"Velocity":40,"Duration":123456,"SoundDuration":123456,"Delta":29741529},{"NoteNumber":48,"Velocity":43,"Duration":123456,"SoundDuration":123456,"Delta":29741529},{"NoteNumber":45,"Velocity":60,"Duration":942443,"SoundDuration":942443,"Delta":29988442},{"NoteNumber":61,"Velocity":48,"Duration":116423,"SoundDuration":116423,"Delta":30337713},{"NoteNumber":52,"Velocity":48,"Duration":116423,"SoundDuration":116423,"Delta":30337713},{"NoteNumber":64,"Velocity":48,"Duration":116423,"SoundDuration":116423,"Delta":30454136},{"NoteNumber":52,"Velocity":48,"Duration":705440,"SoundDuration":705440,"Delta":30686983},{"NoteNumber":61,"Velocity":48,"Duration":705440,"SoundDuration":705440,"Delta":30686983},{"NoteNumber":64,"Velocity":48,"Duration":705440,"SoundDuration":705440,"Delta":30686983},{"NoteNumber":42,"Velocity":48,"Duration":115384,"SoundDuration":115384,"Delta":30930886},{"NoteNumber":44,"Velocity":48,"Duration":115384,"SoundDuration":115384,"Delta":31161655},{"NoteNumber":40,"Velocity":64,"Duration":241935,"SoundDuration":241935,"Delta":31392424},{"NoteNumber":69,"Velocity":76,"Duration":47810,"SoundDuration":47810,"Delta":31876295},{"NoteNumber":64,"Velocity":76,"Duration":191240,"SoundDuration":191240,"Delta":31876295},{"NoteNumber":61,"Velocity":76,"Duration":191240,"SoundDuration":191240,"Delta":31876295},{"NoteNumber":71,"Velocity":69,"Duration":47810,"SoundDuration":47810,"Delta":31924105},{"NoteNumber":69,"Velocity":69,"Duration":47810,"SoundDuration":47810,"Delta":31971915},{"NoteNumber":71,"Velocity":69,"Duration":47810,"SoundDuration":47810,"Delta":32019726},{"NoteNumber":68,"Velocity":68,"Duration":95620,"SoundDuration":95620,"Delta":32067536},{"NoteNumber":63,"Velocity":67,"Duration":95620,"SoundDuration":95620,"Delta":32067536},{"NoteNumber":60,"Velocity":67,"Duration":95620,"SoundDuration":95620,"Delta":32067536},{"NoteNumber":67,"Velocity":73,"Duration":48549,"SoundDuration":48549,"Delta":32450018},{"NoteNumber":62,"Velocity":73,"Duration":194200,"SoundDuration":194200,"Delta":32450018},{"NoteNumber":59,"Velocity":73,"Duration":194200,"SoundDuration":194200,"Delta":32450018},{"NoteNumber":69,"Velocity":67,"Duration":48549,"SoundDuration":48549,"Delta":32498568},{"NoteNumber":67,"Velocity":67,"Duration":48550,"SoundDuration":48550,"Delta":32547118},{"NoteNumber":69,"Velocity":67,"Duration":48549,"SoundDuration":48549,"Delta":32595668},{"NoteNumber":66,"Velocity":67,"Duration":97099,"SoundDuration":97099,"Delta":32644218},{"NoteNumber":58,"Velocity":67,"Duration":97099,"SoundDuration":97099,"Delta":32644218},{"NoteNumber":61,"Velocity":67,"Duration":97099,"SoundDuration":97099,"Delta":32644218},{"NoteNumber":65,"Velocity":70,"Duration":50335,"SoundDuration":50335,"Delta":33032618},{"NoteNumber":60,"Velocity":70,"Duration":201342,"SoundDuration":201342,"Delta":33032618},{"NoteNumber":57,"Velocity":70,"Duration":201342,"SoundDuration":201342,"Delta":33032618},{"NoteNumber":67,"Velocity":62,"Duration":50335,"SoundDuration":50335,"Delta":33082953},{"NoteNumber":65,"Velocity":62,"Duration":50335,"SoundDuration":50335,"Delta":33133289},{"NoteNumber":67,"Velocity":62,"Duration":50335,"SoundDuration":50335,"Delta":33183625},{"NoteNumber":64,"Velocity":62,"Duration":100671,"SoundDuration":100671,"Delta":33233960},{"NoteNumber":56,"Velocity":62,"Duration":100671,"SoundDuration":100671,"Delta":33233960},{"NoteNumber":59,"Velocity":62,"Duration":100671,"SoundDuration":100671,"Delta":33233960},{"NoteNumber":62,"Velocity":68,"Duration":54151,"SoundDuration":54151,"Delta":33645093},{"NoteNumber":54,"Velocity":68,"Duration":216606,"SoundDuration":216606,"Delta":33645093},{"NoteNumber":57,"Velocity":68,"Duration":324909,"SoundDuration":324909,"Delta":33645093},{"NoteNumber":64,"Velocity":60,"Duration":54151,"SoundDuration":54151,"Delta":33699244},{"NoteNumber":62,"Velocity":60,"Duration":54151,"SoundDuration":54151,"Delta":33753396},{"NoteNumber":64,"Velocity":60,"Duration":54151,"SoundDuration":54151,"Delta":33807548},{"NoteNumber":61,"Velocity":60,"Duration":108303,"SoundDuration":108303,"Delta":33861699},{"NoteNumber":53,"Velocity":61,"Duration":108303,"SoundDuration":108303,"Delta":33861699},{"NoteNumber":60,"Velocity":64,"Duration":55350,"SoundDuration":55350,"Delta":34294912},{"NoteNumber":52,"Velocity":64,"Duration":221401,"SoundDuration":221401,"Delta":34294912},{"NoteNumber":57,"Velocity":64,"Duration":332102,"SoundDuration":332102,"Delta":34294912},{"NoteNumber":64,"Velocity":57,"Duration":55350,"SoundDuration":55350,"Delta":34350263},{"NoteNumber":60,"Velocity":58,"Duration":55350,"SoundDuration":55350,"Delta":34405613},{"NoteNumber":64,"Velocity":58,"Duration":55350,"SoundDuration":55350,"Delta":34460964},{"NoteNumber":59,"Velocity":58,"Duration":110700,"SoundDuration":110700,"Delta":34516314},{"NoteNumber":51,"Velocity":58,"Duration":110700,"SoundDuration":110700,"Delta":34516314},{"NoteNumber":58,"Velocity":62,"Duration":56603,"SoundDuration":56603,"Delta":34959118},{"NoteNumber":50,"Velocity":62,"Duration":339622,"SoundDuration":339622,"Delta":34959118},{"NoteNumber":52,"Velocity":62,"Duration":226415,"SoundDuration":226415,"Delta":34959118},{"NoteNumber":64,"Velocity":55,"Duration":56603,"SoundDuration":56603,"Delta":35015722},{"NoteNumber":58,"Velocity":54,"Duration":56603,"SoundDuration":56603,"Delta":35072326},{"NoteNumber":64,"Velocity":54,"Duration":56603,"SoundDuration":56603,"Delta":35128930},{"NoteNumber":57,"Velocity":68,"Duration":113207,"SoundDuration":113207,"Delta":35185533},{"NoteNumber":49,"Velocity":56,"Duration":113207,"SoundDuration":113207,"Delta":35185533},{"NoteNumber":40,"Velocity":67,"Duration":119522,"SoundDuration":119522,"Delta":35537785},{"NoteNumber":45,"Velocity":75,"Duration":151515,"SoundDuration":151515,"Delta":35657307},{"NoteNumber":33,"Velocity":64,"Duration":120909,"SoundDuration":120909,"Delta":35960337},{"NoteNumber":70,"Velocity":74,"Duration":50335,"SoundDuration":50335,"Delta":36443974},{"NoteNumber":62,"Velocity":72,"Duration":201342,"SoundDuration":201342,"Delta":36443974},{"NoteNumber":64,"Velocity":72,"Duration":302013,"SoundDuration":302013,"Delta":36443974},{"NoteNumber":76,"Velocity":64,"Duration":50335,"SoundDuration":50335,"Delta":36494310},{"NoteNumber":70,"Velocity":64,"Duration":50335,"SoundDuration":50335,"Delta":36544646},{"NoteNumber":76,"Velocity":64,"Duration":50335,"SoundDuration":50335,"Delta":36594981},{"NoteNumber":69,"Velocity":64,"Duration":100671,"SoundDuration":100671,"Delta":36645317},{"NoteNumber":61,"Velocity":64,"Duration":100671,"SoundDuration":100671,"Delta":36645317},{"NoteNumber":52,"Velocity":61,"Duration":100671,"SoundDuration":100671,"Delta":36947331},{"NoteNumber":57,"Velocity":72,"Duration":136986,"SoundDuration":136986,"Delta":37048002},{"NoteNumber":45,"Velocity":56,"Duration":116731,"SoundDuration":116731,"Delta":37321974},{"NoteNumber":82,"Velocity":81,"Duration":50505,"SoundDuration":50505,"Delta":37788900},{"NoteNumber":74,"Velocity":81,"Duration":202019,"SoundDuration":202019,"Delta":37788900},{"NoteNumber":76,"Velocity":81,"Duration":303029,"SoundDuration":303029,"Delta":37788900},{"NoteNumber":88,"Velocity":74,"Duration":50505,"SoundDuration":50505,"Delta":37839405},{"NoteNumber":82,"Velocity":74,"Duration":50505,"SoundDuration":50505,"Delta":37889910},{"NoteNumber":88,"Velocity":74,"Duration":50504,"SoundDuration":50504,"Delta":37940415},{"NoteNumber":81,"Velocity":74,"Duration":101010,"SoundDuration":101010,"Delta":37990920},{"NoteNumber":73,"Velocity":74,"Duration":101010,"SoundDuration":101010,"Delta":37990920},{"NoteNumber":64,"Velocity":69,"Duration":103164,"SoundDuration":103164,"Delta":38293950},{"NoteNumber":69,"Velocity":76,"Duration":139535,"SoundDuration":139535,"Delta":38397115},{"NoteNumber":57,"Velocity":55,"Duration":110294,"SoundDuration":110294,"Delta":38676185},{"NoteNumber":94,"Velocity":86,"Duration":47993,"SoundDuration":47993,"Delta":39117361},{"NoteNumber":88,"Velocity":84,"Duration":287963,"SoundDuration":287963,"Delta":39117361},{"NoteNumber":86,"Velocity":84,"Duration":191975,"SoundDuration":191975,"Delta":39117361},{"NoteNumber":100,"Velocity":78,"Duration":47993,"SoundDuration":47993,"Delta":39165355},{"NoteNumber":94,"Velocity":78,"Duration":47993,"SoundDuration":47993,"Delta":39213348},{"NoteNumber":100,"Velocity":78,"Duration":47993,"SoundDuration":47993,"Delta":39261342},{"NoteNumber":93,"Velocity":78,"Duration":95987,"SoundDuration":95987,"Delta":39309336},{"NoteNumber":85,"Velocity":80,"Duration":95987,"SoundDuration":95987,"Delta":39309336},{"NoteNumber":82,"Velocity":81,"Duration":47993,"SoundDuration":47993,"Delta":39693287},{"NoteNumber":74,"Velocity":80,"Duration":191975,"SoundDuration":191975,"Delta":39693287},{"NoteNumber":76,"Velocity":80,"Duration":287963,"SoundDuration":287963,"Delta":39693287},{"NoteNumber":88,"Velocity":68,"Duration":47993,"SoundDuration":47993,"Delta":39741281},{"NoteNumber":82,"Velocity":68,"Duration":47993,"SoundDuration":47993,"Delta":39789275},{"NoteNumber":88,"Velocity":68,"Duration":47993,"SoundDuration":47993,"Delta":39837269},{"NoteNumber":81,"Velocity":68,"Duration":95987,"SoundDuration":95987,"Delta":39885263},{"NoteNumber":73,"Velocity":68,"Duration":95987,"SoundDuration":95987,"Delta":39885263},{"NoteNumber":70,"Velocity":69,"Duration":50295,"SoundDuration":50295,"Delta":40269214},{"NoteNumber":62,"Velocity":68,"Duration":201180,"SoundDuration":201180,"Delta":40269214},{"NoteNumber":64,"Velocity":68,"Duration":301770,"SoundDuration":301770,"Delta":40269214},{"NoteNumber":76,"Velocity":55,"Duration":50295,"SoundDuration":50295,"Delta":40319509},{"NoteNumber":70,"Velocity":55,"Duration":50295,"SoundDuration":50295,"Delta":40369804},{"NoteNumber":76,"Velocity":55,"Duration":50295,"SoundDuration":50295,"Delta":40420099},{"NoteNumber":69,"Velocity":55,"Duration":100590,"SoundDuration":100590,"Delta":40470394},{"NoteNumber":61,"Velocity":56,"Duration":100590,"SoundDuration":100590,"Delta":40470394},{"NoteNumber":58,"Velocity":56,"Duration":79583,"SoundDuration":79583,"Delta":40872755},{"NoteNumber":50,"Velocity":55,"Duration":318336,"SoundDuration":318336,"Delta":40872755},{"NoteNumber":52,"Velocity":55,"Duration":477504,"SoundDuration":477504,"Delta":40872755},{"NoteNumber":64,"Velocity":44,"Duration":79584,"SoundDuration":79584,"Delta":40952339},{"NoteNumber":58,"Velocity":44,"Duration":79583,"SoundDuration":79583,"Delta":41031923},{"NoteNumber":64,"Velocity":46,"Duration":79584,"SoundDuration":79584,"Delta":41111507},{"NoteNumber":57,"Velocity":46,"Duration":159168,"SoundDuration":159168,"Delta":41191091},{"NoteNumber":49,"Velocity":44,"Duration":159168,"SoundDuration":159168,"Delta":41191091},{"NoteNumber":81,"Velocity":49,"Duration":62500,"SoundDuration":62500,"Delta":41827763},{"NoteNumber":74,"Velocity":48,"Duration":62500,"SoundDuration":62500,"Delta":41827763},{"NoteNumber":82,"Velocity":43,"Duration":56306,"SoundDuration":56306,"Delta":41890263},{"NoteNumber":77,"Velocity":43,"Duration":56306,"SoundDuration":56306,"Delta":41890263},{"NoteNumber":81,"Velocity":49,"Duration":56306,"SoundDuration":56306,"Delta":41946569},{"NoteNumber":74,"Velocity":48,"Duration":56306,"SoundDuration":56306,"Delta":41946569},{"NoteNumber":82,"Velocity":44,"Duration":56306,"SoundDuration":56306,"Delta":42002876},{"NoteNumber":77,"Velocity":43,"Duration":56306,"SoundDuration":56306,"Delta":42002876},{"NoteNumber":81,"Velocity":57,"Duration":134468,"SoundDuration":134468,"Delta":42059182},{"NoteNumber":74,"Velocity":55,"Duration":134468,"SoundDuration":134468,"Delta":42059182},{"NoteNumber":82,"Velocity":60,"Duration":57971,"SoundDuration":57971,"Delta":42597057},{"NoteNumber":81,"Velocity":58,"Duration":57970,"SoundDuration":57970,"Delta":42655028},{"NoteNumber":77,"Velocity":55,"Duration":57971,"SoundDuration":57971,"Delta":42712999},{"NoteNumber":74,"Velocity":52,"Duration":57971,"SoundDuration":57971,"Delta":42770970},{"NoteNumber":69,"Velocity":50,"Duration":57971,"SoundDuration":57971,"Delta":42828941},{"NoteNumber":62,"Velocity":50,"Duration":144927,"SoundDuration":144927,"Delta":42886912},{"NoteNumber":86,"Velocity":50,"Duration":56066,"SoundDuration":56066,"Delta":43466622},{"NoteNumber":79,"Velocity":50,"Duration":56066,"SoundDuration":56066,"Delta":43466622},{"NoteNumber":88,"Velocity":46,"Duration":56066,"SoundDuration":56066,"Delta":43522688},{"NoteNumber":83,"Velocity":46,"Duration":56066,"SoundDuration":56066,"Delta":43522688},{"NoteNumber":86,"Velocity":50,"Duration":56066,"SoundDuration":56066,"Delta":43578755},{"NoteNumber":79,"Velocity":50,"Duration":56066,"SoundDuration":56066,"Delta":43578755},{"NoteNumber":88,"Velocity":48,"Duration":56066,"SoundDuration":56066,"Delta":43634821},{"NoteNumber":83,"Velocity":46,"Duration":56066,"SoundDuration":56066,"Delta":43634821},{"NoteNumber":86,"Velocity":57,"Duration":135135,"SoundDuration":135135,"Delta":43690887},{"NoteNumber":79,"Velocity":57,"Duration":135135,"SoundDuration":135135,"Delta":43690887},{"NoteNumber":88,"Velocity":56,"Duration":57971,"SoundDuration":57971,"Delta":44231428},{"NoteNumber":86,"Velocity":55,"Duration":57970,"SoundDuration":57970,"Delta":44289399},{"NoteNumber":83,"Velocity":52,"Duration":57971,"SoundDuration":57971,"Delta":44347370},{"NoteNumber":79,"Velocity":51,"Duration":57971,"SoundDuration":57971,"Delta":44405341},{"NoteNumber":74,"Velocity":49,"Duration":57971,"SoundDuration":57971,"Delta":44463312},{"NoteNumber":67,"Velocity":45,"Duration":144927,"SoundDuration":144927,"Delta":44521283},{"NoteNumber":81,"Velocity":56,"Duration":55836,"SoundDuration":55836,"Delta":45100993},{"NoteNumber":74,"Velocity":55,"Duration":55836,"SoundDuration":55836,"Delta":45100993},{"NoteNumber":82,"Velocity":50,"Duration":55836,"SoundDuration":55836,"Delta":45156830},{"NoteNumber":77,"Velocity":49,"Duration":55836,"SoundDuration":55836,"Delta":45156830},{"NoteNumber":81,"Velocity":56,"Duration":55836,"SoundDuration":55836,"Delta":45212667},{"NoteNumber":74,"Velocity":55,"Duration":55836,"SoundDuration":55836,"Delta":45212667},{"NoteNumber":82,"Velocity":50,"Duration":55836,"SoundDuration":55836,"Delta":45268504},{"NoteNumber":77,"Velocity":50,"Duration":55836,"SoundDuration":55836,"Delta":45268504},{"NoteNumber":81,"Velocity":60,"Duration":114512,"SoundDuration":114512,"Delta":45324340},{"NoteNumber":74,"Velocity":58,"Duration":114512,"SoundDuration":114512,"Delta":45324340},{"NoteNumber":77,"Velocity":55,"Duration":55604,"SoundDuration":55604,"Delta":45782390},{"NoteNumber":70,"Velocity":55,"Duration":55604,"SoundDuration":55604,"Delta":45782390},{"NoteNumber":79,"Velocity":51,"Duration":55604,"SoundDuration":55604,"Delta":45837995},{"NoteNumber":74,"Velocity":51,"Duration":55604,"SoundDuration":55604,"Delta":45837995},{"NoteNumber":77,"Velocity":55,"Duration":55604,"SoundDuration":55604,"Delta":45893600},{"NoteNumber":70,"Velocity":55,"Duration":55604,"SoundDuration":55604,"Delta":45893600},{"NoteNumber":79,"Velocity":51,"Duration":55604,"SoundDuration":55604,"Delta":45949205},{"NoteNumber":74,"Velocity":50,"Duration":55604,"SoundDuration":55604,"Delta":45949205},{"NoteNumber":77,"Velocity":64,"Duration":114512,"SoundDuration":114512,"Delta":46004810},{"NoteNumber":70,"Velocity":62,"Duration":114512,"SoundDuration":114512,"Delta":46004810},{"NoteNumber":81,"Velocity":56,"Duration":55604,"SoundDuration":55604,"Delta":46462860},{"NoteNumber":74,"Velocity":56,"Duration":55604,"SoundDuration":55604,"Delta":46462860},{"NoteNumber":82,"Velocity":50,"Duration":55604,"SoundDuration":55604,"Delta":46518465},{"NoteNumber":77,"Velocity":50,"Duration":55604,"SoundDuration":55604,"Delta":46518465},{"NoteNumber":81,"Velocity":56,"Duration":55604,"SoundDuration":55604,"Delta":46574070},{"NoteNumber":74,"Velocity":56,"Duration":55604,"SoundDuration":55604,"Delta":46574070},{"NoteNumber":82,"Velocity":50,"Duration":55604,"SoundDuration":55604,"Delta":46629675},{"NoteNumber":77,"Velocity":51,"Duration":55604,"SoundDuration":55604,"Delta":46629675},{"NoteNumber":81,"Velocity":61,"Duration":119056,"SoundDuration":119056,"Delta":46685280},{"NoteNumber":74,"Velocity":64,"Duration":119056,"SoundDuration":119056,"Delta":46685280},{"NoteNumber":82,"Velocity":56,"Duration":49135,"SoundDuration":49135,"Delta":47161508},{"NoteNumber":81,"Velocity":51,"Duration":49136,"SoundDuration":49136,"Delta":47210644},{"NoteNumber":77,"Velocity":49,"Duration":49135,"SoundDuration":49135,"Delta":47259780},{"NoteNumber":74,"Velocity":44,"Duration":49136,"SoundDuration":49136,"Delta":47308916},{"NoteNumber":69,"Velocity":42,"Duration":49135,"SoundDuration":49135,"Delta":47358052},{"NoteNumber":62,"Velocity":50,"Duration":122839,"SoundDuration":122839,"Delta":47407188},{"NoteNumber":81,"Velocity":55,"Duration":56306,"SoundDuration":56306,"Delta":47898548},{"NoteNumber":73,"Velocity":55,"Duration":56306,"SoundDuration":56306,"Delta":47898548},{"NoteNumber":82,"Velocity":51,"Duration":56306,"SoundDuration":56306,"Delta":47954855},{"NoteNumber":77,"Velocity":50,"Duration":56306,"SoundDuration":56306,"Delta":47954855},{"NoteNumber":81,"Velocity":55,"Duration":56306,"SoundDuration":56306,"Delta":48011161},{"NoteNumber":73,"Velocity":55,"Duration":56306,"SoundDuration":56306,"Delta":48011161},{"NoteNumber":82,"Velocity":51,"Duration":56306,"SoundDuration":56306,"Delta":48067467},{"NoteNumber":77,"Velocity":51,"Duration":56306,"SoundDuration":56306,"Delta":48067467},{"NoteNumber":81,"Velocity":72,"Duration":135135,"SoundDuration":135135,"Delta":48123773},{"NoteNumber":73,"Velocity":73,"Duration":135135,"SoundDuration":135135,"Delta":48123773},{"NoteNumber":82,"Velocity":64,"Duration":57197,"SoundDuration":57197,"Delta":48664314},{"NoteNumber":81,"Velocity":61,"Duration":57197,"SoundDuration":57197,"Delta":48721512},{"NoteNumber":77,"Velocity":57,"Duration":57197,"SoundDuration":57197,"Delta":48778709},{"NoteNumber":73,"Velocity":54,"Duration":57197,"SoundDuration":57197,"Delta":48835906},{"NoteNumber":69,"Velocity":51,"Duration":57197,"SoundDuration":57197,"Delta":48893104},{"NoteNumber":61,"Velocity":52,"Duration":142993,"SoundDuration":142993,"Delta":48950301},{"NoteNumber":84,"Velocity":55,"Duration":56539,"SoundDuration":56539,"Delta":49487333},{"NoteNumber":77,"Velocity":56,"Duration":56539,"SoundDuration":56539,"Delta":49487333},{"NoteNumber":86,"Velocity":50,"Duration":56539,"SoundDuration":56539,"Delta":49543873},{"NoteNumber":81,"Velocity":50,"Duration":56539,"SoundDuration":56539,"Delta":49543873},{"NoteNumber":84,"Velocity":55,"Duration":56539,"SoundDuration":56539,"Delta":49600413},{"NoteNumber":77,"Velocity":56,"Duration":56539,"SoundDuration":56539,"Delta":49600413},{"NoteNumber":86,"Velocity":51,"Duration":56539,"SoundDuration":56539,"Delta":49656953},{"NoteNumber":81,"Velocity":51,"Duration":56539,"SoundDuration":56539,"Delta":49656953},{"NoteNumber":84,"Velocity":87,"Duration":138581,"SoundDuration":138581,"Delta":49713492},{"NoteNumber":81,"Velocity":74,"Duration":138581,"SoundDuration":138581,"Delta":49713492},{"NoteNumber":86,"Velocity":70,"Duration":51282,"SoundDuration":51282,"Delta":50267816},{"NoteNumber":84,"Velocity":66,"Duration":51282,"SoundDuration":51282,"Delta":50319099},{"NoteNumber":81,"Velocity":64,"Duration":51282,"SoundDuration":51282,"Delta":50370381},{"NoteNumber":77,"Velocity":62,"Duration":51282,"SoundDuration":51282,"Delta":50421663},{"NoteNumber":72,"Velocity":58,"Duration":51282,"SoundDuration":51282,"Delta":50472945},{"NoteNumber":69,"Velocity":56,"Duration":51282,"SoundDuration":51282,"Delta":50524227},{"NoteNumber":60,"Velocity":54,"Duration":131579,"SoundDuration":131579,"Delta":50575509},{"NoteNumber":85,"Velocity":61,"Duration":89777,"SoundDuration":89777,"Delta":50970246},{"NoteNumber":81,"Velocity":61,"Duration":108972,"SoundDuration":108972,"Delta":51060023},{"NoteNumber":73,"Velocity":58,"Duration":257400,"SoundDuration":257400,"Delta":51282902},{"NoteNumber":77,"Velocity":58,"Duration":257400,"SoundDuration":257400,"Delta":51282902},{"NoteNumber":67,"Velocity":54,"Duration":128700,"SoundDuration":128700,"Delta":51282902},{"NoteNumber":57,"Velocity":54,"Duration":128700,"SoundDuration":128700,"Delta":51282902},{"NoteNumber":85,"Velocity":62,"Duration":90377,"SoundDuration":90377,"Delta":51665642},{"NoteNumber":81,"Velocity":62,"Duration":110758,"SoundDuration":110758,"Delta":51756020},{"NoteNumber":73,"Velocity":58,"Duration":254950,"SoundDuration":254950,"Delta":51977537},{"NoteNumber":77,"Velocity":58,"Duration":254950,"SoundDuration":254950,"Delta":51977537},{"NoteNumber":67,"Velocity":54,"Duration":127475,"SoundDuration":127475,"Delta":51977537},{"NoteNumber":57,"Velocity":54,"Duration":127475,"SoundDuration":127475,"Delta":51977537},{"NoteNumber":86,"Velocity":62,"Duration":90377,"SoundDuration":90377,"Delta":52359962},{"NoteNumber":81,"Velocity":62,"Duration":111673,"SoundDuration":111673,"Delta":52450340},{"NoteNumber":74,"Velocity":61,"Duration":231982,"SoundDuration":231982,"Delta":52673687},{"NoteNumber":65,"Velocity":52,"Duration":287494,"SoundDuration":287494,"Delta":53137652},{"NoteNumber":74,"Velocity":52,"Duration":287494,"SoundDuration":287494,"Delta":53137652},{"NoteNumber":57,"Velocity":50,"Duration":287494,"SoundDuration":287494,"Delta":53137652},{"NoteNumber":50,"Velocity":50,"Duration":287494,"SoundDuration":287494,"Delta":53137652},{"NoteNumber":65,"Velocity":52,"Duration":308465,"SoundDuration":308465,"Delta":53425146},{"NoteNumber":74,"Velocity":52,"Duration":308465,"SoundDuration":308465,"Delta":53425146},{"NoteNumber":50,"Velocity":50,"Duration":308465,"SoundDuration":308465,"Delta":53425146},{"NoteNumber":57,"Velocity":50,"Duration":308465,"SoundDuration":308465,"Delta":53425146},{"NoteNumber":46,"Velocity":42,"Duration":62240,"SoundDuration":62240,"Delta":54052761},{"NoteNumber":48,"Velocity":42,"Duration":62240,"SoundDuration":62240,"Delta":54115001},{"NoteNumber":46,"Velocity":42,"Duration":62240,"SoundDuration":62240,"Delta":54177242},{"NoteNumber":48,"Velocity":42,"Duration":62240,"SoundDuration":62240,"Delta":54239482},{"NoteNumber":46,"Velocity":61,"Duration":1249731,"SoundDuration":1249731,"Delta":54301723},{"NoteNumber":52,"Velocity":40,"Duration":114068,"SoundDuration":114068,"Delta":54734941},{"NoteNumber":62,"Velocity":40,"Duration":114068,"SoundDuration":114068,"Delta":54734941},{"NoteNumber":64,"Velocity":43,"Duration":114068,"SoundDuration":114068,"Delta":54849009},{"NoteNumber":64,"Velocity":49,"Duration":725354,"SoundDuration":725354,"Delta":55077146},{"NoteNumber":62,"Velocity":49,"Duration":725354,"SoundDuration":725354,"Delta":55077146},{"NoteNumber":52,"Velocity":49,"Duration":725354,"SoundDuration":725354,"Delta":55077146},{"NoteNumber":46,"Velocity":43,"Duration":62761,"SoundDuration":62761,"Delta":55551454},{"NoteNumber":48,"Velocity":43,"Duration":62761,"SoundDuration":62761,"Delta":55614216},{"NoteNumber":46,"Velocity":43,"Duration":62761,"SoundDuration":62761,"Delta":55676977},{"NoteNumber":48,"Velocity":43,"Duration":62761,"SoundDuration":62761,"Delta":55739739},{"NoteNumber":46,"Velocity":61,"Duration":1249671,"SoundDuration":1249671,"Delta":55802500},{"NoteNumber":62,"Velocity":40,"Duration":114942,"SoundDuration":114942,"Delta":56234903},{"NoteNumber":52,"Velocity":40,"Duration":114942,"SoundDuration":114942,"Delta":56234903},{"NoteNumber":64,"Velocity":45,"Duration":114942,"SoundDuration":114942,"Delta":56349846},{"NoteNumber":62,"Velocity":48,"Duration":723487,"SoundDuration":723487,"Delta":56579731},{"NoteNumber":64,"Velocity":48,"Duration":723487,"SoundDuration":723487,"Delta":56579731},{"NoteNumber":52,"Velocity":48,"Duration":723487,"SoundDuration":723487,"Delta":56579731},{"NoteNumber":46,"Velocity":42,"Duration":62761,"SoundDuration":62761,"Delta":57052172},{"NoteNumber":48,"Velocity":42,"Duration":62761,"SoundDuration":62761,"Delta":57114933},{"NoteNumber":46,"Velocity":42,"Duration":62761,"SoundDuration":62761,"Delta":57177695},{"NoteNumber":48,"Velocity":40,"Duration":62761,"SoundDuration":62761,"Delta":57240456},{"NoteNumber":46,"Velocity":64,"Duration":232557,"SoundDuration":232557,"Delta":57303218},{"NoteNumber":46,"Velocity":45,"Duration":116278,"SoundDuration":116278,"Delta":57652055},{"NoteNumber":64,"Velocity":40,"Duration":124481,"SoundDuration":124481,"Delta":57768334},{"NoteNumber":62,"Velocity":40,"Duration":124481,"SoundDuration":124481,"Delta":57768334},{"NoteNumber":52,"Velocity":40,"Duration":124481,"SoundDuration":124481,"Delta":57768334},{"NoteNumber":48,"Velocity":45,"Duration":124481,"SoundDuration":124481,"Delta":57768334},{"NoteNumber":46,"Velocity":63,"Duration":232557,"SoundDuration":232557,"Delta":58017296},{"NoteNumber":46,"Velocity":43,"Duration":116278,"SoundDuration":116278,"Delta":58366133},{"NoteNumber":64,"Velocity":40,"Duration":123456,"SoundDuration":123456,"Delta":58482412},{"NoteNumber":62,"Velocity":40,"Duration":123456,"SoundDuration":123456,"Delta":58482412},{"NoteNumber":52,"Velocity":40,"Duration":123456,"SoundDuration":123456,"Delta":58482412},{"NoteNumber":48,"Velocity":43,"Duration":123456,"SoundDuration":123456,"Delta":58482412},{"NoteNumber":45,"Velocity":60,"Duration":942443,"SoundDuration":942443,"Delta":58729326},{"NoteNumber":61,"Velocity":48,"Duration":116423,"SoundDuration":116423,"Delta":59078596},{"NoteNumber":52,"Velocity":48,"Duration":116423,"SoundDuration":116423,"Delta":59078596},{"NoteNumber":64,"Velocity":48,"Duration":116423,"SoundDuration":116423,"Delta":59195020},{"NoteNumber":52,"Velocity":48,"Duration":705440,"SoundDuration":705440,"Delta":59427867},{"NoteNumber":61,"Velocity":48,"Duration":705440,"SoundDuration":705440,"Delta":59427867},{"NoteNumber":64,"Velocity":48,"Duration":705440,"SoundDuration":705440,"Delta":59427867},{"NoteNumber":42,"Velocity":48,"Duration":115384,"SoundDuration":115384,"Delta":59671769},{"NoteNumber":44,"Velocity":48,"Duration":115384,"SoundDuration":115384,"Delta":59902538},{"NoteNumber":40,"Velocity":64,"Duration":241935,"SoundDuration":241935,"Delta":60133307},{"NoteNumber":69,"Velocity":76,"Duration":47810,"SoundDuration":47810,"Delta":60617178},{"NoteNumber":61,"Velocity":76,"Duration":191240,"SoundDuration":191240,"Delta":60617178},{"NoteNumber":64,"Velocity":76,"Duration":191240,"SoundDuration":191240,"Delta":60617178},{"NoteNumber":71,"Velocity":69,"Duration":47810,"SoundDuration":47810,"Delta":60664988},{"NoteNumber":69,"Velocity":69,"Duration":47810,"SoundDuration":47810,"Delta":60712799},{"NoteNumber":71,"Velocity":69,"Duration":47810,"SoundDuration":47810,"Delta":60760609},{"NoteNumber":68,"Velocity":68,"Duration":95620,"SoundDuration":95620,"Delta":60808419},{"NoteNumber":63,"Velocity":67,"Duration":95620,"SoundDuration":95620,"Delta":60808419},{"NoteNumber":60,"Velocity":67,"Duration":95620,"SoundDuration":95620,"Delta":60808419},{"NoteNumber":67,"Velocity":73,"Duration":48549,"SoundDuration":48549,"Delta":61190901},{"NoteNumber":62,"Velocity":73,"Duration":194200,"SoundDuration":194200,"Delta":61190901},{"NoteNumber":59,"Velocity":73,"Duration":194200,"SoundDuration":194200,"Delta":61190901},{"NoteNumber":69,"Velocity":67,"Duration":48549,"SoundDuration":48549,"Delta":61239451},{"NoteNumber":67,"Velocity":67,"Duration":48550,"SoundDuration":48550,"Delta":61288001},{"NoteNumber":69,"Velocity":67,"Duration":48549,"SoundDuration":48549,"Delta":61336551},{"NoteNumber":66,"Velocity":67,"Duration":97099,"SoundDuration":97099,"Delta":61385101},{"NoteNumber":58,"Velocity":67,"Duration":97099,"SoundDuration":97099,"Delta":61385101},{"NoteNumber":61,"Velocity":67,"Duration":97099,"SoundDuration":97099,"Delta":61385101},{"NoteNumber":65,"Velocity":70,"Duration":50335,"SoundDuration":50335,"Delta":61773501},{"NoteNumber":60,"Velocity":70,"Duration":201342,"SoundDuration":201342,"Delta":61773501},{"NoteNumber":57,"Velocity":70,"Duration":201342,"SoundDuration":201342,"Delta":61773501},{"NoteNumber":67,"Velocity":62,"Duration":50335,"SoundDuration":50335,"Delta":61823837},{"NoteNumber":65,"Velocity":62,"Duration":50335,"SoundDuration":50335,"Delta":61874172},{"NoteNumber":67,"Velocity":62,"Duration":50335,"SoundDuration":50335,"Delta":61924508},{"NoteNumber":64,"Velocity":62,"Duration":100671,"SoundDuration":100671,"Delta":61974844},{"NoteNumber":59,"Velocity":62,"Duration":100671,"SoundDuration":100671,"Delta":61974844},{"NoteNumber":56,"Velocity":62,"Duration":100671,"SoundDuration":100671,"Delta":61974844},{"NoteNumber":62,"Velocity":68,"Duration":54151,"SoundDuration":54151,"Delta":62385976},{"NoteNumber":54,"Velocity":68,"Duration":216606,"SoundDuration":216606,"Delta":62385976},{"NoteNumber":57,"Velocity":68,"Duration":324909,"SoundDuration":324909,"Delta":62385976},{"NoteNumber":64,"Velocity":60,"Duration":54151,"SoundDuration":54151,"Delta":62440128},{"NoteNumber":62,"Velocity":60,"Duration":54151,"SoundDuration":54151,"Delta":62494279},{"NoteNumber":64,"Velocity":60,"Duration":54151,"SoundDuration":54151,"Delta":62548431},{"NoteNumber":61,"Velocity":60,"Duration":108303,"SoundDuration":108303,"Delta":62602583},{"NoteNumber":53,"Velocity":61,"Duration":108303,"SoundDuration":108303,"Delta":62602583},{"NoteNumber":60,"Velocity":64,"Duration":55350,"SoundDuration":55350,"Delta":63035796},{"NoteNumber":57,"Velocity":64,"Duration":332102,"SoundDuration":332102,"Delta":63035796},{"NoteNumber":52,"Velocity":64,"Duration":221402,"SoundDuration":221402,"Delta":63035796},{"NoteNumber":64,"Velocity":57,"Duration":55350,"SoundDuration":55350,"Delta":63091146},{"NoteNumber":60,"Velocity":58,"Duration":55350,"SoundDuration":55350,"Delta":63146497},{"NoteNumber":64,"Velocity":58,"Duration":55350,"SoundDuration":55350,"Delta":63201847},{"NoteNumber":59,"Velocity":58,"Duration":110700,"SoundDuration":110700,"Delta":63257198},{"NoteNumber":51,"Velocity":58,"Duration":110700,"SoundDuration":110700,"Delta":63257198},{"NoteNumber":58,"Velocity":62,"Duration":56603,"SoundDuration":56603,"Delta":63700002},{"NoteNumber":50,"Velocity":62,"Duration":339622,"SoundDuration":339622,"Delta":63700002},{"NoteNumber":52,"Velocity":62,"Duration":226415,"SoundDuration":226415,"Delta":63700002},{"NoteNumber":64,"Velocity":55,"Duration":56603,"SoundDuration":56603,"Delta":63756605},{"NoteNumber":58,"Velocity":54,"Duration":56603,"SoundDuration":56603,"Delta":63813209},{"NoteNumber":64,"Velocity":54,"Duration":56603,"SoundDuration":56603,"Delta":63869813},{"NoteNumber":57,"Velocity":68,"Duration":113207,"SoundDuration":113207,"Delta":63926417},{"NoteNumber":49,"Velocity":56,"Duration":113207,"SoundDuration":113207,"Delta":63926417},{"NoteNumber":40,"Velocity":67,"Duration":119521,"SoundDuration":119521,"Delta":64278668},{"NoteNumber":45,"Velocity":75,"Duration":151515,"SoundDuration":151515,"Delta":64398190},{"NoteNumber":33,"Velocity":64,"Duration":120909,"SoundDuration":120909,"Delta":64701221},{"NoteNumber":70,"Velocity":74,"Duration":50335,"SoundDuration":50335,"Delta":65184858},{"NoteNumber":64,"Velocity":72,"Duration":302013,"SoundDuration":302013,"Delta":65184858},{"NoteNumber":62,"Velocity":72,"Duration":201342,"SoundDuration":201342,"Delta":65184858},{"NoteNumber":76,"Velocity":64,"Duration":50335,"SoundDuration":50335,"Delta":65235193},{"NoteNumber":70,"Velocity":64,"Duration":50335,"SoundDuration":50335,"Delta":65285529},{"NoteNumber":76,"Velocity":64,"Duration":50335,"SoundDuration":50335,"Delta":65335864},{"NoteNumber":69,"Velocity":64,"Duration":100671,"SoundDuration":100671,"Delta":65386200},{"NoteNumber":61,"Velocity":64,"Duration":100671,"SoundDuration":100671,"Delta":65386200},{"NoteNumber":52,"Velocity":61,"Duration":100671,"SoundDuration":100671,"Delta":65688214},{"NoteNumber":57,"Velocity":72,"Duration":136986,"SoundDuration":136986,"Delta":65788885},{"NoteNumber":45,"Velocity":56,"Duration":116731,"SoundDuration":116731,"Delta":66062858},{"NoteNumber":82,"Velocity":81,"Duration":50505,"SoundDuration":50505,"Delta":66529784},{"NoteNumber":74,"Velocity":81,"Duration":202020,"SoundDuration":202020,"Delta":66529784},{"NoteNumber":76,"Velocity":81,"Duration":303030,"SoundDuration":303030,"Delta":66529784},{"NoteNumber":88,"Velocity":74,"Duration":50505,"SoundDuration":50505,"Delta":66580289},{"NoteNumber":82,"Velocity":74,"Duration":50505,"SoundDuration":50505,"Delta":66630794},{"NoteNumber":88,"Velocity":74,"Duration":50505,"SoundDuration":50505,"Delta":66681299},{"NoteNumber":81,"Velocity":74,"Duration":101010,"SoundDuration":101010,"Delta":66731804},{"NoteNumber":73,"Velocity":74,"Duration":101010,"SoundDuration":101010,"Delta":66731804},{"NoteNumber":64,"Velocity":69,"Duration":103164,"SoundDuration":103164,"Delta":67034834},{"NoteNumber":69,"Velocity":76,"Duration":139534,"SoundDuration":139534,"Delta":67137998},{"NoteNumber":57,"Velocity":55,"Duration":110293,"SoundDuration":110293,"Delta":67417068},{"NoteNumber":94,"Velocity":86,"Duration":47993,"SoundDuration":47993,"Delta":67858244},{"NoteNumber":88,"Velocity":86,"Duration":287963,"SoundDuration":287963,"Delta":67858244},{"NoteNumber":86,"Velocity":86,"Duration":191975,"SoundDuration":191975,"Delta":67858244},{"NoteNumber":100,"Velocity":78,"Duration":47993,"SoundDuration":47993,"Delta":67906238},{"NoteNumber":94,"Velocity":78,"Duration":47993,"SoundDuration":47993,"Delta":67954232},{"NoteNumber":100,"Velocity":78,"Duration":47993,"SoundDuration":47993,"Delta":68002226},{"NoteNumber":93,"Velocity":78,"Duration":95987,"SoundDuration":95987,"Delta":68050219},{"NoteNumber":85,"Velocity":80,"Duration":95987,"SoundDuration":95987,"Delta":68050219},{"NoteNumber":82,"Velocity":81,"Duration":47993,"SoundDuration":47993,"Delta":68434170},{"NoteNumber":74,"Velocity":80,"Duration":191975,"SoundDuration":191975,"Delta":68434170},{"NoteNumber":76,"Velocity":80,"Duration":287963,"SoundDuration":287963,"Delta":68434170},{"NoteNumber":88,"Velocity":68,"Duration":47993,"SoundDuration":47993,"Delta":68482164},{"NoteNumber":82,"Velocity":68,"Duration":47993,"SoundDuration":47993,"Delta":68530158},{"NoteNumber":88,"Velocity":68,"Duration":47993,"SoundDuration":47993,"Delta":68578152},{"NoteNumber":81,"Velocity":68,"Duration":95987,"SoundDuration":95987,"Delta":68626146},{"NoteNumber":73,"Velocity":68,"Duration":95987,"SoundDuration":95987,"Delta":68626146},{"NoteNumber":70,"Velocity":69,"Duration":50295,"SoundDuration":50295,"Delta":69010097},{"NoteNumber":64,"Velocity":68,"Duration":301770,"SoundDuration":301770,"Delta":69010097},{"NoteNumber":62,"Velocity":68,"Duration":201180,"SoundDuration":201180,"Delta":69010097},{"NoteNumber":76,"Velocity":55,"Duration":50295,"SoundDuration":50295,"Delta":69060392},{"NoteNumber":70,"Velocity":55,"Duration":50295,"SoundDuration":50295,"Delta":69110687},{"NoteNumber":76,"Velocity":55,"Duration":50295,"SoundDuration":50295,"Delta":69160982},{"NoteNumber":69,"Velocity":55,"Duration":100590,"SoundDuration":100590,"Delta":69211277},{"NoteNumber":61,"Velocity":56,"Duration":100590,"SoundDuration":100590,"Delta":69211277},{"NoteNumber":58,"Velocity":56,"Duration":79583,"SoundDuration":79583,"Delta":69613638},{"NoteNumber":52,"Velocity":55,"Duration":477503,"SoundDuration":477503,"Delta":69613638},{"NoteNumber":50,"Velocity":55,"Duration":318336,"SoundDuration":318336,"Delta":69613638},{"NoteNumber":64,"Velocity":44,"Duration":79583,"SoundDuration":79583,"Delta":69693222},{"NoteNumber":58,"Velocity":44,"Duration":79584,"SoundDuration":79584,"Delta":69772806},{"NoteNumber":64,"Velocity":46,"Duration":79583,"SoundDuration":79583,"Delta":69852390},{"NoteNumber":57,"Velocity":46,"Duration":159167,"SoundDuration":159167,"Delta":69931974},{"NoteNumber":49,"Velocity":44,"Duration":159167,"SoundDuration":159167,"Delta":69931974},{"NoteNumber":81,"Velocity":49,"Duration":62500,"SoundDuration":62500,"Delta":70568646},{"NoteNumber":74,"Velocity":48,"Duration":62500,"SoundDuration":62500,"Delta":70568646},{"NoteNumber":82,"Velocity":43,"Duration":56306,"SoundDuration":56306,"Delta":70631146},{"NoteNumber":77,"Velocity":43,"Duration":56306,"SoundDuration":56306,"Delta":70631146},{"NoteNumber":81,"Velocity":49,"Duration":56306,"SoundDuration":56306,"Delta":70687453},{"NoteNumber":74,"Velocity":48,"Duration":56306,"SoundDuration":56306,"Delta":70687453},{"NoteNumber":82,"Velocity":44,"Duration":56306,"SoundDuration":56306,"Delta":70743759},{"NoteNumber":77,"Velocity":43,"Duration":56306,"SoundDuration":56306,"Delta":70743759},{"NoteNumber":81,"Velocity":57,"Duration":134468,"SoundDuration":134468,"Delta":70800065},{"NoteNumber":74,"Velocity":55,"Duration":134468,"SoundDuration":134468,"Delta":70800065},{"NoteNumber":82,"Velocity":60,"Duration":57970,"SoundDuration":57970,"Delta":71337940},{"NoteNumber":81,"Velocity":58,"Duration":57971,"SoundDuration":57971,"Delta":71395911},{"NoteNumber":77,"Velocity":55,"Duration":57970,"SoundDuration":57970,"Delta":71453882},{"NoteNumber":74,"Velocity":52,"Duration":57970,"SoundDuration":57970,"Delta":71511853},{"NoteNumber":69,"Velocity":50,"Duration":57971,"SoundDuration":57971,"Delta":71569824},{"NoteNumber":62,"Velocity":50,"Duration":144927,"SoundDuration":144927,"Delta":71627795},{"NoteNumber":86,"Velocity":50,"Duration":56066,"SoundDuration":56066,"Delta":72207505},{"NoteNumber":79,"Velocity":50,"Duration":56066,"SoundDuration":56066,"Delta":72207505},{"NoteNumber":88,"Velocity":46,"Duration":56066,"SoundDuration":56066,"Delta":72263572},{"NoteNumber":83,"Velocity":46,"Duration":56066,"SoundDuration":56066,"Delta":72263572},{"NoteNumber":86,"Velocity":50,"Duration":56066,"SoundDuration":56066,"Delta":72319638},{"NoteNumber":79,"Velocity":50,"Duration":56066,"SoundDuration":56066,"Delta":72319638},{"NoteNumber":88,"Velocity":48,"Duration":56066,"SoundDuration":56066,"Delta":72375704},{"NoteNumber":83,"Velocity":46,"Duration":56066,"SoundDuration":56066,"Delta":72375704},{"NoteNumber":86,"Velocity":57,"Duration":135135,"SoundDuration":135135,"Delta":72431771},{"NoteNumber":79,"Velocity":57,"Duration":135135,"SoundDuration":135135,"Delta":72431771},{"NoteNumber":88,"Velocity":56,"Duration":58536,"SoundDuration":58536,"Delta":72972312},{"NoteNumber":86,"Velocity":55,"Duration":58536,"SoundDuration":58536,"Delta":73030848},{"NoteNumber":83,"Velocity":52,"Duration":58536,"SoundDuration":58536,"Delta":73089385},{"NoteNumber":79,"Velocity":51,"Duration":58536,"SoundDuration":58536,"Delta":73147921},{"NoteNumber":74,"Velocity":49,"Duration":58536,"SoundDuration":58536,"Delta":73206458},{"NoteNumber":67,"Velocity":45,"Duration":146341,"SoundDuration":146341,"Delta":73264995},{"NoteNumber":81,"Velocity":56,"Duration":55836,"SoundDuration":55836,"Delta":73850361},{"NoteNumber":74,"Velocity":55,"Duration":55836,"SoundDuration":55836,"Delta":73850361},{"NoteNumber":82,"Velocity":50,"Duration":55836,"SoundDuration":55836,"Delta":73906197},{"NoteNumber":77,"Velocity":49,"Duration":55836,"SoundDuration":55836,"Delta":73906197},{"NoteNumber":81,"Velocity":56,"Duration":55836,"SoundDuration":55836,"Delta":73962034},{"NoteNumber":74,"Velocity":55,"Duration":55836,"SoundDuration":55836,"Delta":73962034},{"NoteNumber":82,"Velocity":50,"Duration":55836,"SoundDuration":55836,"Delta":74017871},{"NoteNumber":77,"Velocity":50,"Duration":55836,"SoundDuration":55836,"Delta":74017871},{"NoteNumber":81,"Velocity":60,"Duration":114512,"SoundDuration":114512,"Delta":74073708},{"NoteNumber":74,"Velocity":58,"Duration":114512,"SoundDuration":114512,"Delta":74073708},{"NoteNumber":77,"Velocity":55,"Duration":55604,"SoundDuration":55604,"Delta":74531758},{"NoteNumber":70,"Velocity":55,"Duration":55604,"SoundDuration":55604,"Delta":74531758},{"NoteNumber":79,"Velocity":51,"Duration":55604,"SoundDuration":55604,"Delta":74587363},{"NoteNumber":74,"Velocity":51,"Duration":55604,"SoundDuration":55604,"Delta":74587363},{"NoteNumber":77,"Velocity":55,"Duration":55604,"SoundDuration":55604,"Delta":74642968},{"NoteNumber":70,"Velocity":55,"Duration":55604,"SoundDuration":55604,"Delta":74642968},{"NoteNumber":79,"Velocity":51,"Duration":55604,"SoundDuration":55604,"Delta":74698573},{"NoteNumber":74,"Velocity":50,"Duration":55604,"SoundDuration":55604,"Delta":74698573},{"NoteNumber":77,"Velocity":64,"Duration":114512,"SoundDuration":114512,"Delta":74754178},{"NoteNumber":70,"Velocity":62,"Duration":114512,"SoundDuration":114512,"Delta":74754178},{"NoteNumber":81,"Velocity":56,"Duration":55604,"SoundDuration":55604,"Delta":75212228},{"NoteNumber":74,"Velocity":56,"Duration":55604,"SoundDuration":55604,"Delta":75212228},{"NoteNumber":82,"Velocity":50,"Duration":55604,"SoundDuration":55604,"Delta":75267833},{"NoteNumber":77,"Velocity":50,"Duration":55604,"SoundDuration":55604,"Delta":75267833},{"NoteNumber":81,"Velocity":56,"Duration":55604,"SoundDuration":55604,"Delta":75323438},{"NoteNumber":74,"Velocity":56,"Duration":55604,"SoundDuration":55604,"Delta":75323438},{"NoteNumber":82,"Velocity":50,"Duration":55604,"SoundDuration":55604,"Delta":75379043},{"NoteNumber":77,"Velocity":51,"Duration":55604,"SoundDuration":55604,"Delta":75379043},{"NoteNumber":81,"Velocity":61,"Duration":119056,"SoundDuration":119056,"Delta":75434648},{"NoteNumber":74,"Velocity":64,"Duration":119056,"SoundDuration":119056,"Delta":75434648},{"NoteNumber":82,"Velocity":56,"Duration":49136,"SoundDuration":49136,"Delta":75910876},{"NoteNumber":81,"Velocity":51,"Duration":49135,"SoundDuration":49135,"Delta":75960012},{"NoteNumber":77,"Velocity":49,"Duration":49136,"SoundDuration":49136,"Delta":76009148},{"NoteNumber":74,"Velocity":44,"Duration":49136,"SoundDuration":49136,"Delta":76058284},{"NoteNumber":69,"Velocity":42,"Duration":49135,"SoundDuration":49135,"Delta":76107420},{"NoteNumber":62,"Velocity":50,"Duration":122840,"SoundDuration":122840,"Delta":76156556},{"NoteNumber":81,"Velocity":55,"Duration":56306,"SoundDuration":56306,"Delta":76647916},{"NoteNumber":73,"Velocity":55,"Duration":56306,"SoundDuration":56306,"Delta":76647916},{"NoteNumber":82,"Velocity":51,"Duration":56306,"SoundDuration":56306,"Delta":76704222},{"NoteNumber":77,"Velocity":50,"Duration":56306,"SoundDuration":56306,"Delta":76704222},{"NoteNumber":81,"Velocity":55,"Duration":56306,"SoundDuration":56306,"Delta":76760528},{"NoteNumber":73,"Velocity":55,"Duration":56306,"SoundDuration":56306,"Delta":76760528},{"NoteNumber":82,"Velocity":51,"Duration":56306,"SoundDuration":56306,"Delta":76816834},{"NoteNumber":77,"Velocity":51,"Duration":56306,"SoundDuration":56306,"Delta":76816834},{"NoteNumber":81,"Velocity":72,"Duration":135135,"SoundDuration":135135,"Delta":76873141},{"NoteNumber":73,"Velocity":73,"Duration":135135,"SoundDuration":135135,"Delta":76873141},{"NoteNumber":82,"Velocity":64,"Duration":57197,"SoundDuration":57197,"Delta":77413682},{"NoteNumber":81,"Velocity":61,"Duration":57197,"SoundDuration":57197,"Delta":77470879},{"NoteNumber":77,"Velocity":57,"Duration":57197,"SoundDuration":57197,"Delta":77528076},{"NoteNumber":73,"Velocity":54,"Duration":57197,"SoundDuration":57197,"Delta":77585274},{"NoteNumber":69,"Velocity":51,"Duration":57197,"SoundDuration":57197,"Delta":77642471},{"NoteNumber":61,"Velocity":52,"Duration":129310,"SoundDuration":129310,"Delta":77699668},{"NoteNumber":84,"Velocity":55,"Duration":56539,"SoundDuration":56539,"Delta":78214699},{"NoteNumber":77,"Velocity":56,"Duration":56539,"SoundDuration":56539,"Delta":78214699},{"NoteNumber":86,"Velocity":50,"Duration":56539,"SoundDuration":56539,"Delta":78271239},{"NoteNumber":81,"Velocity":50,"Duration":56539,"SoundDuration":56539,"Delta":78271239},{"NoteNumber":84,"Velocity":55,"Duration":56539,"SoundDuration":56539,"Delta":78327779},{"NoteNumber":77,"Velocity":56,"Duration":56539,"SoundDuration":56539,"Delta":78327779},{"NoteNumber":86,"Velocity":51,"Duration":56539,"SoundDuration":56539,"Delta":78384318},{"NoteNumber":81,"Velocity":51,"Duration":56539,"SoundDuration":56539,"Delta":78384318},{"NoteNumber":84,"Velocity":87,"Duration":138581,"SoundDuration":138581,"Delta":78440858},{"NoteNumber":81,"Velocity":74,"Duration":138581,"SoundDuration":138581,"Delta":78440858},{"NoteNumber":86,"Velocity":70,"Duration":49771,"SoundDuration":49771,"Delta":78995182},{"NoteNumber":84,"Velocity":66,"Duration":49771,"SoundDuration":49771,"Delta":79044953},{"NoteNumber":81,"Velocity":64,"Duration":49771,"SoundDuration":49771,"Delta":79094724},{"NoteNumber":77,"Velocity":62,"Duration":49771,"SoundDuration":49771,"Delta":79144495},{"NoteNumber":72,"Velocity":58,"Duration":49771,"SoundDuration":49771,"Delta":79194267},{"NoteNumber":69,"Velocity":56,"Duration":49771,"SoundDuration":49771,"Delta":79244038},{"NoteNumber":60,"Velocity":54,"Duration":131579,"SoundDuration":131579,"Delta":79293809},{"NoteNumber":85,"Velocity":61,"Duration":89777,"SoundDuration":89777,"Delta":79688546},{"NoteNumber":81,"Velocity":61,"Duration":108971,"SoundDuration":108971,"Delta":79778323},{"NoteNumber":73,"Velocity":58,"Duration":257400,"SoundDuration":257400,"Delta":80001202},{"NoteNumber":77,"Velocity":58,"Duration":257400,"SoundDuration":257400,"Delta":80001202},{"NoteNumber":57,"Velocity":54,"Duration":128700,"SoundDuration":128700,"Delta":80001202},{"NoteNumber":67,"Velocity":54,"Duration":128700,"SoundDuration":128700,"Delta":80001202},{"NoteNumber":85,"Velocity":62,"Duration":90377,"SoundDuration":90377,"Delta":80383942},{"NoteNumber":81,"Velocity":62,"Duration":110758,"SoundDuration":110758,"Delta":80474320},{"NoteNumber":73,"Velocity":58,"Duration":254950,"SoundDuration":254950,"Delta":80695836},{"NoteNumber":77,"Velocity":58,"Duration":254950,"SoundDuration":254950,"Delta":80695836},{"NoteNumber":57,"Velocity":54,"Duration":127475,"SoundDuration":127475,"Delta":80695836},{"NoteNumber":67,"Velocity":54,"Duration":127475,"SoundDuration":127475,"Delta":80695836},{"NoteNumber":86,"Velocity":62,"Duration":90377,"SoundDuration":90377,"Delta":81078262},{"NoteNumber":81,"Velocity":62,"Duration":111673,"SoundDuration":111673,"Delta":81168640},{"NoteNumber":74,"Velocity":61,"Duration":231982,"SoundDuration":231982,"Delta":81391987},{"NoteNumber":65,"Velocity":52,"Duration":287493,"SoundDuration":287493,"Delta":81855952},{"NoteNumber":74,"Velocity":52,"Duration":287493,"SoundDuration":287493,"Delta":81855952},{"NoteNumber":57,"Velocity":50,"Duration":287493,"SoundDuration":287493,"Delta":81855952},{"NoteNumber":50,"Velocity":50,"Duration":287493,"SoundDuration":287493,"Delta":81855952},{"NoteNumber":65,"Velocity":52,"Duration":308465,"SoundDuration":308465,"Delta":82143446},{"NoteNumber":74,"Velocity":52,"Duration":308465,"SoundDuration":308465,"Delta":82143446},{"NoteNumber":50,"Velocity":50,"Duration":308465,"SoundDuration":308465,"Delta":82143446},{"NoteNumber":57,"Velocity":50,"Duration":308465,"SoundDuration":308465,"Delta":82143446},{"NoteNumber":39,"Velocity":45,"Duration":62761,"SoundDuration":62761,"Delta":82771060},{"NoteNumber":41,"Velocity":45,"Duration":62761,"SoundDuration":62761,"Delta":82833822},{"NoteNumber":39,"Velocity":45,"Duration":62761,"SoundDuration":62761,"Delta":82896583},{"NoteNumber":41,"Velocity":45,"Duration":62761,"SoundDuration":62761,"Delta":82959345},{"NoteNumber":39,"Velocity":76,"Duration":1249730,"SoundDuration":1249730,"Delta":83022106},{"NoteNumber":45,"Velocity":38,"Duration":114068,"SoundDuration":114068,"Delta":83455324},{"NoteNumber":55,"Velocity":38,"Duration":114068,"SoundDuration":114068,"Delta":83455324},{"NoteNumber":57,"Velocity":42,"Duration":114068,"SoundDuration":114068,"Delta":83569392},{"NoteNumber":57,"Velocity":45,"Duration":725353,"SoundDuration":725353,"Delta":83797529},{"NoteNumber":55,"Velocity":45,"Duration":725353,"SoundDuration":725353,"Delta":83797529},{"NoteNumber":45,"Velocity":45,"Duration":725353,"SoundDuration":725353,"Delta":83797529},{"NoteNumber":39,"Velocity":45,"Duration":62761,"SoundDuration":62761,"Delta":84271837},{"NoteNumber":41,"Velocity":45,"Duration":62761,"SoundDuration":62761,"Delta":84334599},{"NoteNumber":39,"Velocity":45,"Duration":62761,"SoundDuration":62761,"Delta":84397360},{"NoteNumber":41,"Velocity":45,"Duration":62761,"SoundDuration":62761,"Delta":84460122},{"NoteNumber":39,"Velocity":76,"Duration":1249671,"SoundDuration":1249671,"Delta":84522883},{"NoteNumber":55,"Velocity":37,"Duration":114942,"SoundDuration":114942,"Delta":84955286},{"NoteNumber":45,"Velocity":37,"Duration":114942,"SoundDuration":114942,"Delta":84955286},{"NoteNumber":57,"Velocity":39,"Duration":114942,"SoundDuration":114942,"Delta":85070229},{"NoteNumber":57,"Velocity":44,"Duration":723487,"SoundDuration":723487,"Delta":85300114},{"NoteNumber":55,"Velocity":44,"Duration":723487,"SoundDuration":723487,"Delta":85300114},{"NoteNumber":45,"Velocity":44,"Duration":723487,"SoundDuration":723487,"Delta":85300114},{"NoteNumber":39,"Velocity":42,"Duration":62761,"SoundDuration":62761,"Delta":85772555},{"NoteNumber":41,"Velocity":42,"Duration":62761,"SoundDuration":62761,"Delta":85835316},{"NoteNumber":39,"Velocity":42,"Duration":62761,"SoundDuration":62761,"Delta":85898078},{"NoteNumber":41,"Velocity":42,"Duration":62761,"SoundDuration":62761,"Delta":85960839},{"NoteNumber":39,"Velocity":75,"Duration":225564,"SoundDuration":225564,"Delta":86023601},{"NoteNumber":39,"Velocity":57,"Duration":112781,"SoundDuration":112781,"Delta":86361947},{"NoteNumber":57,"Velocity":40,"Duration":117647,"SoundDuration":117647,"Delta":86474729},{"NoteNumber":55,"Velocity":40,"Duration":117647,"SoundDuration":117647,"Delta":86474729},{"NoteNumber":45,"Velocity":40,"Duration":117647,"SoundDuration":117647,"Delta":86474729},{"NoteNumber":41,"Velocity":57,"Duration":117647,"SoundDuration":117647,"Delta":86474729},{"NoteNumber":39,"Velocity":74,"Duration":224718,"SoundDuration":224718,"Delta":86710023},{"NoteNumber":39,"Velocity":54,"Duration":112359,"SoundDuration":112359,"Delta":87047101},{"NoteNumber":57,"Velocity":38,"Duration":117187,"SoundDuration":117187,"Delta":87159461},{"NoteNumber":55,"Velocity":38,"Duration":117187,"SoundDuration":117187,"Delta":87159461},{"NoteNumber":45,"Velocity":38,"Duration":117187,"SoundDuration":117187,"Delta":87159461},{"NoteNumber":41,"Velocity":54,"Duration":117187,"SoundDuration":117187,"Delta":87159461},{"NoteNumber":39,"Velocity":64,"Duration":234375,"SoundDuration":234375,"Delta":87393836},{"NoteNumber":39,"Velocity":45,"Duration":112359,"SoundDuration":112359,"Delta":87740570},{"NoteNumber":57,"Velocity":33,"Duration":112359,"SoundDuration":112359,"Delta":87852930},{"NoteNumber":55,"Velocity":33,"Duration":112359,"SoundDuration":112359,"Delta":87852930},{"NoteNumber":45,"Velocity":33,"Duration":112359,"SoundDuration":112359,"Delta":87852930},{"NoteNumber":41,"Velocity":45,"Duration":112359,"SoundDuration":112359,"Delta":87852930},{"NoteNumber":39,"Velocity":55,"Duration":220588,"SoundDuration":220588,"Delta":88077649},{"NoteNumber":39,"Velocity":36,"Duration":112359,"SoundDuration":112359,"Delta":88410596},{"NoteNumber":55,"Velocity":33,"Duration":112359,"SoundDuration":112359,"Delta":88522956},{"NoteNumber":45,"Velocity":33,"Duration":112359,"SoundDuration":112359,"Delta":88522956},{"NoteNumber":57,"Velocity":33,"Duration":112359,"SoundDuration":112359,"Delta":88522956},{"NoteNumber":41,"Velocity":36,"Duration":112359,"SoundDuration":112359,"Delta":88522956},{"NoteNumber":38,"Velocity":49,"Duration":224718,"SoundDuration":224718,"Delta":88747675},{"NoteNumber":54,"Velocity":36,"Duration":108397,"SoundDuration":108397,"Delta":89080791},{"NoteNumber":45,"Velocity":37,"Duration":108397,"SoundDuration":108397,"Delta":89080791},{"NoteNumber":57,"Velocity":36,"Duration":108397,"SoundDuration":108397,"Delta":89189188},{"NoteNumber":50,"Velocity":37,"Duration":108397,"SoundDuration":108397,"Delta":89189188},{"NoteNumber":62,"Velocity":43,"Duration":108397,"SoundDuration":108397,"Delta":89405983},{"NoteNumber":54,"Velocity":43,"Duration":108397,"SoundDuration":108397,"Delta":89405983},{"NoteNumber":66,"Velocity":40,"Duration":109809,"SoundDuration":109809,"Delta":89732587},{"NoteNumber":57,"Velocity":39,"Duration":109809,"SoundDuration":109809,"Delta":89732587},{"NoteNumber":69,"Velocity":40,"Duration":109809,"SoundDuration":109809,"Delta":89842397},{"NoteNumber":62,"Velocity":39,"Duration":109809,"SoundDuration":109809,"Delta":89842397},{"NoteNumber":74,"Velocity":44,"Duration":109809,"SoundDuration":109809,"Delta":90062016},{"NoteNumber":66,"Velocity":44,"Duration":109809,"SoundDuration":109809,"Delta":90062016},{"NoteNumber":66,"Velocity":42,"Duration":109809,"SoundDuration":109809,"Delta":90391446},{"NoteNumber":57,"Velocity":42,"Duration":109809,"SoundDuration":109809,"Delta":90391446},{"NoteNumber":69,"Velocity":42,"Duration":109809,"SoundDuration":109809,"Delta":90501255},{"NoteNumber":62,"Velocity":42,"Duration":109809,"SoundDuration":109809,"Delta":90501255},{"NoteNumber":74,"Velocity":45,"Duration":109809,"SoundDuration":109809,"Delta":90720875},{"NoteNumber":66,"Velocity":45,"Duration":109809,"SoundDuration":109809,"Delta":90720875},{"NoteNumber":78,"Velocity":42,"Duration":120327,"SoundDuration":120327,"Delta":91060822},{"NoteNumber":69,"Velocity":42,"Duration":120327,"SoundDuration":120327,"Delta":91060822},{"NoteNumber":81,"Velocity":42,"Duration":126368,"SoundDuration":126368,"Delta":91181149},{"NoteNumber":74,"Velocity":42,"Duration":126368,"SoundDuration":126368,"Delta":91181149},{"NoteNumber":86,"Velocity":44,"Duration":130434,"SoundDuration":130434,"Delta":91433887},{"NoteNumber":78,"Velocity":43,"Duration":130434,"SoundDuration":130434,"Delta":91433887},{"NoteNumber":55,"Velocity":39,"Duration":153061,"SoundDuration":153061,"Delta":92216495},{"NoteNumber":52,"Velocity":39,"Duration":153061,"SoundDuration":153061,"Delta":92216495},{"NoteNumber":62,"Velocity":39,"Duration":153061,"SoundDuration":153061,"Delta":92216495},{"NoteNumber":58,"Velocity":39,"Duration":153061,"SoundDuration":153061,"Delta":92216495},{"NoteNumber":33,"Velocity":38,"Duration":153061,"SoundDuration":153061,"Delta":92216495},{"NoteNumber":45,"Velocity":38,"Duration":153061,"SoundDuration":153061,"Delta":92216495},{"NoteNumber":62,"Velocity":39,"Duration":153061,"SoundDuration":153061,"Delta":93134863},{"NoteNumber":54,"Velocity":39,"Duration":153061,"SoundDuration":153061,"Delta":93134863},{"NoteNumber":57,"Velocity":39,"Duration":153061,"SoundDuration":153061,"Delta":93134863},{"NoteNumber":26,"Velocity":38,"Duration":153061,"SoundDuration":153061,"Delta":93134863},{"NoteNumber":38,"Velocity":38,"Duration":153061,"SoundDuration":153061,"Delta":93134863}],"license":{"name":"Creative Commons Attribution-ShareAlike 3.0 Germany","url":"http://creativecommons.org/licenses/by-sa/3.0/de/deed.en","text":"The MIDI, audio (MP3, OGG) and video files of Bernd Krueger are licensed under the cc-by-sa Germany License. This means that you can use and adapt the files, as long as you attribute the copyright holder.\n\nName: Bernd Krueger\nSource: http://www.piano-midi.de\n\nThe distribution or public playback of the files is only allowed under identical license conditions.\n\nThe scores are open source.","attribution":"MIDI files by Bernd Krueger (piano-midi.de)"}}