{"title":"Venetianisches Gondellied","artist":"Piano","durationMs":161311,"midiSha256":"8f836b7c1c4faad461af9168b5e88d2e80b342001b722d32c5209ea59a32957b","midiObject":[{"NoteNumber":43,"Velocity":36,"Duration":1171211,"SoundDuration":1171211,"Delta":0},{"NoteNumber":58,"Velocity":28,"Duration":577034,"SoundDuration":577034,"Delta":594177},{"NoteNumber":55,"Velocity":24,"Duration":577034,"SoundDuration":577034,"Delta":594177},{"NoteNumber":50,"Velocity":28,"Duration":594177,"SoundDuration":594177,"Delta":1171211},{"NoteNumber":43,"Velocity":36,"Duration":1154495,"SoundDuration":1154495,"Delta":1765388},{"NoteNumber":58,"Velocity":30,"Duration":566144,"SoundDuration":566144,"Delta":2353738},{"NoteNumber":55,"Velocity":25,"Duration":566144,"SoundDuration":566144,"Delta":2353738},{"NoteNumber":50,"Velocity":30,"Duration":582637,"SoundDuration":582637,"Delta":2919883},{"NoteNumber":43,"Velocity":36,"Duration":1154494,"SoundDuration":1154494,"Delta":3502520},{"NoteNumber":58,"Velocity":28,"Duration":566144,"SoundDuration":566144,"Delta":4090871},{"NoteNumber":55,"Velocity":24,"Duration":566144,"SoundDuration":566144,"Delta":4090871},{"NoteNumber":50,"Velocity":28,"Duration":588350,"SoundDuration":588350,"Delta":4657015},{"NoteNumber":43,"Velocity":36,"Duration":1128988,"SoundDuration":1128988,"Delta":5245366},{"NoteNumber":57,"Velocity":25,"Duration":540637,"SoundDuration":540637,"Delta":5833716},{"NoteNumber":60,"Velocity":30,"Duration":540637,"SoundDuration":540637,"Delta":5833716},{"NoteNumber":55,"Velocity":25,"Duration":540637,"SoundDuration":540637,"Delta":5833716},{"NoteNumber":51,"Velocity":30,"Duration":666814,"SoundDuration":666814,"Delta":6374354},{"NoteNumber":62,"Velocity":50,"Duration":1744129,"SoundDuration":1744129,"Delta":7041169},{"NoteNumber":31,"Velocity":30,"Duration":1144009,"SoundDuration":1144009,"Delta":7041169},{"NoteNumber":43,"Velocity":36,"Duration":1144009,"SoundDuration":1144009,"Delta":7041169},{"NoteNumber":55,"Velocity":26,"Duration":555658,"SoundDuration":555658,"Delta":7629519},{"NoteNumber":58,"Velocity":31,"Duration":555658,"SoundDuration":555658,"Delta":7629519},{"NoteNumber":50,"Velocity":36,"Duration":600120,"SoundDuration":600120,"Delta":8185178},{"NoteNumber":65,"Velocity":61,"Duration":3504058,"SoundDuration":3504058,"Delta":8785298},{"NoteNumber":41,"Velocity":44,"Duration":1149203,"SoundDuration":1149203,"Delta":8785298},{"NoteNumber":29,"Velocity":36,"Duration":1149203,"SoundDuration":1149203,"Delta":8785298},{"NoteNumber":57,"Velocity":29,"Duration":560852,"SoundDuration":560852,"Delta":9373649},{"NoteNumber":60,"Velocity":35,"Duration":560852,"SoundDuration":560852,"Delta":9373649},{"NoteNumber":53,"Velocity":30,"Duration":594177,"SoundDuration":594177,"Delta":9934501},{"NoteNumber":31,"Velocity":30,"Duration":1154495,"SoundDuration":1154495,"Delta":10528678},{"NoteNumber":43,"Velocity":36,"Duration":1154495,"SoundDuration":1154495,"Delta":10528678},{"NoteNumber":62,"Velocity":28,"Duration":566144,"SoundDuration":566144,"Delta":11117029},{"NoteNumber":58,"Velocity":24,"Duration":566144,"SoundDuration":566144,"Delta":11117029},{"NoteNumber":53,"Velocity":28,"Duration":606182,"SoundDuration":606182,"Delta":11683173},{"NoteNumber":63,"Velocity":57,"Duration":1808866,"SoundDuration":1808866,"Delta":12289356},{"NoteNumber":36,"Velocity":30,"Duration":1177153,"SoundDuration":1177153,"Delta":12289356},{"NoteNumber":48,"Velocity":36,"Duration":1177153,"SoundDuration":1177153,"Delta":12289356},{"NoteNumber":60,"Velocity":30,"Duration":600120,"SoundDuration":600120,"Delta":12866390},{"NoteNumber":55,"Velocity":25,"Duration":600120,"SoundDuration":600120,"Delta":12866390},{"NoteNumber":51,"Velocity":30,"Duration":631712,"SoundDuration":631712,"Delta":13466510},{"NoteNumber":62,"Velocity":50,"Duration":2922382,"SoundDuration":2922382,"Delta":14098222},{"NoteNumber":38,"Velocity":36,"Duration":1184829,"SoundDuration":1184829,"Delta":14098222},{"NoteNumber":58,"Velocity":28,"Duration":566144,"SoundDuration":566144,"Delta":14716907},{"NoteNumber":55,"Velocity":24,"Duration":566144,"SoundDuration":566144,"Delta":14716907},{"NoteNumber":50,"Velocity":28,"Duration":588350,"SoundDuration":588350,"Delta":15283051},{"NoteNumber":38,"Velocity":36,"Duration":1149202,"SoundDuration":1149202,"Delta":15871402},{"NoteNumber":58,"Velocity":30,"Duration":560852,"SoundDuration":560852,"Delta":16459752},{"NoteNumber":55,"Velocity":30,"Duration":560852,"SoundDuration":560852,"Delta":16459752},{"NoteNumber":50,"Velocity":30,"Duration":631712,"SoundDuration":631712,"Delta":17020605},{"NoteNumber":38,"Velocity":36,"Duration":1149203,"SoundDuration":1149203,"Delta":17652317},{"NoteNumber":60,"Velocity":28,"Duration":560852,"SoundDuration":560852,"Delta":18240667},{"NoteNumber":57,"Velocity":24,"Duration":560852,"SoundDuration":560852,"Delta":18240667},{"NoteNumber":50,"Velocity":28,"Duration":618684,"SoundDuration":618684,"Delta":18801520},{"NoteNumber":38,"Velocity":36,"Duration":1177154,"SoundDuration":1177154,"Delta":19420204},{"NoteNumber":57,"Velocity":30,"Duration":577034,"SoundDuration":577034,"Delta":20020324},{"NoteNumber":54,"Velocity":25,"Duration":577034,"SoundDuration":577034,"Delta":20020324},{"NoteNumber":50,"Velocity":30,"Duration":625129,"SoundDuration":625129,"Delta":20597358},{"NoteNumber":43,"Velocity":36,"Duration":436978,"SoundDuration":436978,"Delta":21222488},{"NoteNumber":58,"Velocity":28,"Duration":550559,"SoundDuration":550559,"Delta":21805126},{"NoteNumber":55,"Velocity":24,"Duration":550559,"SoundDuration":550559,"Delta":21805126},{"NoteNumber":50,"Velocity":28,"Duration":588350,"SoundDuration":588350,"Delta":22355685},{"NoteNumber":43,"Velocity":36,"Duration":441262,"SoundDuration":441262,"Delta":22944036},{"NoteNumber":58,"Velocity":30,"Duration":588350,"SoundDuration":588350,"Delta":23532386},{"NoteNumber":55,"Velocity":25,"Duration":588350,"SoundDuration":588350,"Delta":23532386},{"NoteNumber":74,"Velocity":53,"Duration":555658,"SoundDuration":555658,"Delta":24120737},{"NoteNumber":70,"Velocity":45,"Duration":555658,"SoundDuration":555658,"Delta":24120737},{"NoteNumber":50,"Velocity":30,"Duration":555658,"SoundDuration":555658,"Delta":24120737},{"NoteNumber":72,"Velocity":61,"Duration":1149203,"SoundDuration":1149203,"Delta":24676395},{"NoteNumber":69,"Velocity":51,"Duration":1149203,"SoundDuration":1149203,"Delta":24676395},{"NoteNumber":43,"Velocity":36,"Duration":441262,"SoundDuration":441262,"Delta":24676395},{"NoteNumber":60,"Velocity":28,"Duration":560852,"SoundDuration":560852,"Delta":25264746},{"NoteNumber":57,"Velocity":24,"Duration":560852,"SoundDuration":560852,"Delta":25264746},{"NoteNumber":67,"Velocity":42,"Duration":600120,"SoundDuration":600120,"Delta":25825598},{"NoteNumber":70,"Velocity":50,"Duration":600120,"SoundDuration":600120,"Delta":25825598},{"NoteNumber":50,"Velocity":28,"Duration":600120,"SoundDuration":600120,"Delta":25825598},{"NoteNumber":69,"Velocity":55,"Duration":1153362,"SoundDuration":1153362,"Delta":26425718},{"NoteNumber":66,"Velocity":46,"Duration":1153362,"SoundDuration":1153362,"Delta":26425718},{"NoteNumber":43,"Velocity":36,"Duration":441262,"SoundDuration":441262,"Delta":26425718},{"NoteNumber":60,"Velocity":30,"Duration":577034,"SoundDuration":577034,"Delta":27014069},{"NoteNumber":57,"Velocity":25,"Duration":577034,"SoundDuration":577034,"Delta":27014069},{"NoteNumber":69,"Velocity":42,"Duration":577033,"SoundDuration":577033,"Delta":27591103},{"NoteNumber":72,"Velocity":50,"Duration":577033,"SoundDuration":577033,"Delta":27591103},{"NoteNumber":50,"Velocity":30,"Duration":577033,"SoundDuration":577033,"Delta":27591103},{"NoteNumber":70,"Velocity":56,"Duration":1159888,"SoundDuration":1159888,"Delta":28168137},{"NoteNumber":62,"Velocity":47,"Duration":1159888,"SoundDuration":1159888,"Delta":28168137},{"NoteNumber":43,"Velocity":36,"Duration":441262,"SoundDuration":441262,"Delta":28168137},{"NoteNumber":58,"Velocity":28,"Duration":571537,"SoundDuration":571537,"Delta":28756487},{"NoteNumber":55,"Velocity":24,"Duration":571537,"SoundDuration":571537,"Delta":28756487},{"NoteNumber":60,"Velocity":42,"Duration":606183,"SoundDuration":606183,"Delta":29328025},{"NoteNumber":69,"Velocity":50,"Duration":606183,"SoundDuration":606183,"Delta":29328025},{"NoteNumber":50,"Velocity":28,"Duration":606183,"SoundDuration":606183,"Delta":29328025},{"NoteNumber":67,"Velocity":55,"Duration":1176701,"SoundDuration":1176701,"Delta":29934208},{"NoteNumber":58,"Velocity":46,"Duration":1176701,"SoundDuration":1176701,"Delta":29934208},{"NoteNumber":43,"Velocity":36,"Duration":441262,"SoundDuration":441262,"Delta":29934208},{"NoteNumber":55,"Velocity":30,"Duration":588350,"SoundDuration":588350,"Delta":30522558},{"NoteNumber":62,"Velocity":50,"Duration":577034,"SoundDuration":577034,"Delta":31110909},{"NoteNumber":50,"Velocity":30,"Duration":577034,"SoundDuration":577034,"Delta":31110909},{"NoteNumber":63,"Velocity":55,"Duration":1130905,"SoundDuration":1130905,"Delta":31687943},{"NoteNumber":60,"Velocity":46,"Duration":1130905,"SoundDuration":1130905,"Delta":31687943},{"NoteNumber":43,"Velocity":36,"Duration":441262,"SoundDuration":441262,"Delta":31687943},{"NoteNumber":55,"Velocity":28,"Duration":566144,"SoundDuration":566144,"Delta":32276293},{"NoteNumber":60,"Velocity":42,"Duration":569419,"SoundDuration":569419,"Delta":32842438},{"NoteNumber":63,"Velocity":50,"Duration":569419,"SoundDuration":569419,"Delta":32842438},{"NoteNumber":51,"Velocity":28,"Duration":594177,"SoundDuration":594177,"Delta":32842438},{"NoteNumber":63,"Velocity":48,"Duration":285768,"SoundDuration":285768,"Delta":33436615},{"NoteNumber":60,"Velocity":40,"Duration":285768,"SoundDuration":285768,"Delta":33436615},{"NoteNumber":43,"Velocity":36,"Duration":428653,"SoundDuration":428653,"Delta":33436615},{"NoteNumber":65,"Velocity":53,"Duration":285768,"SoundDuration":285768,"Delta":33722383},{"NoteNumber":62,"Velocity":45,"Duration":285768,"SoundDuration":285768,"Delta":33722383},{"NoteNumber":67,"Velocity":54,"Duration":277829,"SoundDuration":277829,"Delta":34008152},{"NoteNumber":63,"Velocity":45,"Duration":277829,"SoundDuration":277829,"Delta":34008152},{"NoteNumber":60,"Velocity":30,"Duration":555658,"SoundDuration":555658,"Delta":34008152},{"NoteNumber":55,"Velocity":25,"Duration":555658,"SoundDuration":555658,"Delta":34008152},{"NoteNumber":60,"Velocity":42,"Duration":348918,"SoundDuration":348918,"Delta":34563811},{"NoteNumber":63,"Velocity":50,"Duration":348918,"SoundDuration":348918,"Delta":34563811},{"NoteNumber":51,"Velocity":30,"Duration":697836,"SoundDuration":697836,"Delta":34563811},{"NoteNumber":62,"Velocity":46,"Duration":6897050,"SoundDuration":6897050,"Delta":35261647},{"NoteNumber":43,"Velocity":36,"Duration":436978,"SoundDuration":436978,"Delta":35261647},{"NoteNumber":58,"Velocity":28,"Duration":555658,"SoundDuration":555658,"Delta":35844285},{"NoteNumber":55,"Velocity":24,"Duration":555658,"SoundDuration":555658,"Delta":35844285},{"NoteNumber":50,"Velocity":28,"Duration":588350,"SoundDuration":588350,"Delta":36399943},{"NoteNumber":43,"Velocity":36,"Duration":441262,"SoundDuration":441262,"Delta":36988294},{"NoteNumber":58,"Velocity":30,"Duration":571537,"SoundDuration":571537,"Delta":37576644},{"NoteNumber":55,"Velocity":25,"Duration":571537,"SoundDuration":571537,"Delta":37576644},{"NoteNumber":74,"Velocity":53,"Duration":550559,"SoundDuration":550559,"Delta":38148182},{"NoteNumber":70,"Velocity":45,"Duration":550559,"SoundDuration":550559,"Delta":38148182},{"NoteNumber":50,"Velocity":30,"Duration":550559,"SoundDuration":550559,"Delta":38148182},{"NoteNumber":72,"Velocity":61,"Duration":1144736,"SoundDuration":1144736,"Delta":38698741},{"NoteNumber":69,"Velocity":51,"Duration":1144736,"SoundDuration":1144736,"Delta":38698741},{"NoteNumber":43,"Velocity":36,"Duration":445632,"SoundDuration":445632,"Delta":38698741},{"NoteNumber":60,"Velocity":28,"Duration":550559,"SoundDuration":550559,"Delta":39292918},{"NoteNumber":57,"Velocity":24,"Duration":550559,"SoundDuration":550559,"Delta":39292918},{"NoteNumber":67,"Velocity":42,"Duration":577033,"SoundDuration":577033,"Delta":39843478},{"NoteNumber":70,"Velocity":50,"Duration":577033,"SoundDuration":577033,"Delta":39843478},{"NoteNumber":50,"Velocity":28,"Duration":577033,"SoundDuration":577033,"Delta":39843478},{"NoteNumber":69,"Velocity":55,"Duration":1126683,"SoundDuration":1126683,"Delta":40420511},{"NoteNumber":66,"Velocity":46,"Duration":1126683,"SoundDuration":1126683,"Delta":40420511},{"NoteNumber":43,"Velocity":36,"Duration":445632,"SoundDuration":445632,"Delta":40420511},{"NoteNumber":60,"Velocity":30,"Duration":555658,"SoundDuration":555658,"Delta":41014689},{"NoteNumber":57,"Velocity":25,"Duration":555658,"SoundDuration":555658,"Delta":41014689},{"NoteNumber":69,"Velocity":42,"Duration":588350,"SoundDuration":588350,"Delta":41570347},{"NoteNumber":72,"Velocity":50,"Duration":588350,"SoundDuration":588350,"Delta":41570347},{"NoteNumber":50,"Velocity":30,"Duration":588350,"SoundDuration":588350,"Delta":41570347},{"NoteNumber":70,"Velocity":56,"Duration":1143490,"SoundDuration":1143490,"Delta":42158697},{"NoteNumber":62,"Velocity":47,"Duration":1143490,"SoundDuration":1143490,"Delta":42158697},{"NoteNumber":43,"Velocity":36,"Duration":436978,"SoundDuration":436978,"Delta":42158697},{"NoteNumber":58,"Velocity":28,"Duration":560852,"SoundDuration":560852,"Delta":42741335},{"NoteNumber":55,"Velocity":24,"Duration":560852,"SoundDuration":560852,"Delta":42741335},{"NoteNumber":60,"Velocity":42,"Duration":582637,"SoundDuration":582637,"Delta":43302187},{"NoteNumber":69,"Velocity":50,"Duration":582637,"SoundDuration":582637,"Delta":43302187},{"NoteNumber":50,"Velocity":28,"Duration":582637,"SoundDuration":582637,"Delta":43302187},{"NoteNumber":67,"Velocity":55,"Duration":509807,"SoundDuration":509807,"Delta":43884825},{"NoteNumber":58,"Velocity":46,"Duration":509807,"SoundDuration":509807,"Delta":43884825},{"NoteNumber":43,"Velocity":36,"Duration":436978,"SoundDuration":436978,"Delta":43884825},{"NoteNumber":67,"Velocity":62,"Duration":545553,"SoundDuration":545553,"Delta":44467462},{"NoteNumber":55,"Velocity":33,"Duration":545553,"SoundDuration":545553,"Delta":44467462},{"NoteNumber":69,"Velocity":63,"Duration":545553,"SoundDuration":545553,"Delta":45013016},{"NoteNumber":50,"Velocity":35,"Duration":545553,"SoundDuration":545553,"Delta":45013016},{"NoteNumber":70,"Velocity":69,"Duration":555658,"SoundDuration":555658,"Delta":45558569},{"NoteNumber":43,"Velocity":50,"Duration":416743,"SoundDuration":416743,"Delta":45558569},{"NoteNumber":73,"Velocity":62,"Duration":571537,"SoundDuration":571537,"Delta":46114228},{"NoteNumber":62,"Velocity":40,"Duration":571537,"SoundDuration":571537,"Delta":46114228},{"NoteNumber":58,"Velocity":40,"Duration":571537,"SoundDuration":571537,"Delta":46114228},{"NoteNumber":74,"Velocity":67,"Duration":612369,"SoundDuration":612369,"Delta":46685765},{"NoteNumber":55,"Velocity":47,"Duration":612369,"SoundDuration":612369,"Delta":46685765},{"NoteNumber":73,"Velocity":66,"Duration":571537,"SoundDuration":571537,"Delta":47298135},{"NoteNumber":77,"Velocity":78,"Duration":571537,"SoundDuration":571537,"Delta":47298135},{"NoteNumber":43,"Velocity":49,"Duration":428653,"SoundDuration":428653,"Delta":47298135},{"NoteNumber":76,"Velocity":66,"Duration":571537,"SoundDuration":571537,"Delta":47869673},{"NoteNumber":61,"Velocity":45,"Duration":571537,"SoundDuration":571537,"Delta":47869673},{"NoteNumber":58,"Velocity":45,"Duration":571537,"SoundDuration":571537,"Delta":47869673},{"NoteNumber":74,"Velocity":72,"Duration":625129,"SoundDuration":625129,"Delta":48441210},{"NoteNumber":55,"Velocity":47,"Duration":625129,"SoundDuration":625129,"Delta":48441210},{"NoteNumber":81,"Velocity":78,"Duration":1128190,"SoundDuration":1128190,"Delta":49066340},{"NoteNumber":74,"Velocity":56,"Duration":1128190,"SoundDuration":1128190,"Delta":49066340},{"NoteNumber":41,"Velocity":55,"Duration":436978,"SoundDuration":436978,"Delta":49066340},{"NoteNumber":57,"Velocity":34,"Duration":545553,"SoundDuration":545553,"Delta":49648978},{"NoteNumber":62,"Velocity":41,"Duration":545553,"SoundDuration":545553,"Delta":49648978},{"NoteNumber":77,"Velocity":68,"Duration":571537,"SoundDuration":571537,"Delta":50194531},{"NoteNumber":53,"Velocity":34,"Duration":571537,"SoundDuration":571537,"Delta":50194531},{"NoteNumber":74,"Velocity":63,"Duration":1176701,"SoundDuration":1176701,"Delta":50766069},{"NoteNumber":41,"Velocity":40,"Duration":441262,"SoundDuration":441262,"Delta":50766069},{"NoteNumber":57,"Velocity":33,"Duration":588350,"SoundDuration":588350,"Delta":51354419},{"NoteNumber":62,"Velocity":39,"Duration":588350,"SoundDuration":588350,"Delta":51354419},{"NoteNumber":69,"Velocity":55,"Duration":545553,"SoundDuration":545553,"Delta":51942770},{"NoteNumber":53,"Velocity":34,"Duration":545553,"SoundDuration":545553,"Delta":51942770},{"NoteNumber":70,"Velocity":57,"Duration":555658,"SoundDuration":555658,"Delta":52488323},{"NoteNumber":43,"Velocity":45,"Duration":416743,"SoundDuration":416743,"Delta":52488323},{"NoteNumber":64,"Velocity":48,"Duration":571537,"SoundDuration":571537,"Delta":53043982},{"NoteNumber":73,"Velocity":57,"Duration":571537,"SoundDuration":571537,"Delta":53043982},{"NoteNumber":58,"Velocity":26,"Duration":571537,"SoundDuration":571537,"Delta":53043982},{"NoteNumber":62,"Velocity":31,"Duration":571537,"SoundDuration":571537,"Delta":53043982},{"NoteNumber":65,"Velocity":48,"Duration":612369,"SoundDuration":612369,"Delta":53615519},{"NoteNumber":74,"Velocity":57,"Duration":612369,"SoundDuration":612369,"Delta":53615519},{"NoteNumber":55,"Velocity":34,"Duration":612369,"SoundDuration":612369,"Delta":53615519},{"NoteNumber":69,"Velocity":53,"Duration":571537,"SoundDuration":571537,"Delta":54227889},{"NoteNumber":77,"Velocity":63,"Duration":571537,"SoundDuration":571537,"Delta":54227889},{"NoteNumber":43,"Velocity":37,"Duration":428653,"SoundDuration":428653,"Delta":54227889},{"NoteNumber":76,"Velocity":57,"Duration":571537,"SoundDuration":571537,"Delta":54799427},{"NoteNumber":67,"Velocity":48,"Duration":571537,"SoundDuration":571537,"Delta":54799427},{"NoteNumber":61,"Velocity":34,"Duration":571537,"SoundDuration":571537,"Delta":54799427},{"NoteNumber":74,"Velocity":54,"Duration":593873,"SoundDuration":593873,"Delta":55370964},{"NoteNumber":65,"Velocity":45,"Duration":593873,"SoundDuration":593873,"Delta":55370964},{"NoteNumber":57,"Velocity":34,"Duration":625129,"SoundDuration":625129,"Delta":55370964},{"NoteNumber":74,"Velocity":65,"Duration":2748625,"SoundDuration":2748625,"Delta":55996094},{"NoteNumber":65,"Velocity":55,"Duration":2748625,"SoundDuration":2748625,"Delta":55996094},{"NoteNumber":53,"Velocity":41,"Duration":436978,"SoundDuration":436978,"Delta":55996094},{"NoteNumber":62,"Velocity":35,"Duration":545553,"SoundDuration":545553,"Delta":56578732},{"NoteNumber":57,"Velocity":29,"Duration":545553,"SoundDuration":545553,"Delta":56578732},{"NoteNumber":53,"Velocity":30,"Duration":571537,"SoundDuration":571537,"Delta":57124285},{"NoteNumber":53,"Velocity":41,"Duration":428653,"SoundDuration":428653,"Delta":57695823},{"NoteNumber":62,"Velocity":35,"Duration":545553,"SoundDuration":545553,"Delta":58267360},{"NoteNumber":57,"Velocity":29,"Duration":545553,"SoundDuration":545553,"Delta":58267360},{"NoteNumber":74,"Velocity":59,"Duration":588350,"SoundDuration":588350,"Delta":58812914},{"NoteNumber":53,"Velocity":30,"Duration":588350,"SoundDuration":588350,"Delta":58812914},{"NoteNumber":77,"Velocity":70,"Duration":1164237,"SoundDuration":1164237,"Delta":59401264},{"NoteNumber":43,"Velocity":41,"Duration":464013,"SoundDuration":464013,"Delta":59401264},{"NoteNumber":65,"Velocity":39,"Duration":545553,"SoundDuration":545553,"Delta":60019949},{"NoteNumber":59,"Velocity":35,"Duration":545553,"SoundDuration":545553,"Delta":60019949},{"NoteNumber":55,"Velocity":29,"Duration":545553,"SoundDuration":545553,"Delta":60019949},{"NoteNumber":67,"Velocity":34,"Duration":582637,"SoundDuration":582637,"Delta":60565502},{"NoteNumber":74,"Velocity":61,"Duration":582637,"SoundDuration":582637,"Delta":60565502},{"NoteNumber":50,"Velocity":30,"Duration":582637,"SoundDuration":582637,"Delta":60565502},{"NoteNumber":72,"Velocity":65,"Duration":1116703,"SoundDuration":1116703,"Delta":61148140},{"NoteNumber":43,"Velocity":41,"Duration":424608,"SoundDuration":424608,"Delta":61148140},{"NoteNumber":65,"Velocity":39,"Duration":550559,"SoundDuration":550559,"Delta":61714284},{"NoteNumber":59,"Velocity":35,"Duration":550559,"SoundDuration":550559,"Delta":61714284},{"NoteNumber":55,"Velocity":29,"Duration":550559,"SoundDuration":550559,"Delta":61714284},{"NoteNumber":67,"Velocity":34,"Duration":582637,"SoundDuration":582637,"Delta":62264844},{"NoteNumber":71,"Velocity":61,"Duration":582637,"SoundDuration":582637,"Delta":62264844},{"NoteNumber":50,"Velocity":30,"Duration":582637,"SoundDuration":582637,"Delta":62264844},{"NoteNumber":72,"Velocity":70,"Duration":1160972,"SoundDuration":1160972,"Delta":62847481},{"NoteNumber":36,"Velocity":51,"Duration":450090,"SoundDuration":450090,"Delta":62847481},{"NoteNumber":60,"Velocity":39,"Duration":560852,"SoundDuration":560852,"Delta":63447601},{"NoteNumber":63,"Velocity":39,"Duration":560852,"SoundDuration":560852,"Delta":63447601},{"NoteNumber":55,"Velocity":32,"Duration":560852,"SoundDuration":560852,"Delta":63447601},{"NoteNumber":67,"Velocity":58,"Duration":577033,"SoundDuration":577033,"Delta":64008454},{"NoteNumber":51,"Velocity":30,"Duration":577033,"SoundDuration":577033,"Delta":64008454},{"NoteNumber":68,"Velocity":65,"Duration":1097211,"SoundDuration":1097211,"Delta":64585488},{"NoteNumber":48,"Velocity":41,"Duration":424608,"SoundDuration":424608,"Delta":64585488},{"NoteNumber":62,"Velocity":39,"Duration":531067,"SoundDuration":531067,"Delta":65151632},{"NoteNumber":65,"Velocity":39,"Duration":531067,"SoundDuration":531067,"Delta":65151632},{"NoteNumber":56,"Velocity":35,"Duration":531067,"SoundDuration":531067,"Delta":65151632},{"NoteNumber":53,"Velocity":29,"Duration":531067,"SoundDuration":531067,"Delta":65151632},{"NoteNumber":71,"Velocity":65,"Duration":588350,"SoundDuration":588350,"Delta":65682700},{"NoteNumber":50,"Velocity":30,"Duration":588350,"SoundDuration":588350,"Delta":65682700},{"NoteNumber":72,"Velocity":69,"Duration":1157923,"SoundDuration":1157923,"Delta":66271050},{"NoteNumber":36,"Velocity":43,"Duration":459277,"SoundDuration":459277,"Delta":66271050},{"NoteNumber":60,"Velocity":39,"Duration":545553,"SoundDuration":545553,"Delta":66883420},{"NoteNumber":63,"Velocity":39,"Duration":545553,"SoundDuration":545553,"Delta":66883420},{"NoteNumber":55,"Velocity":29,"Duration":545553,"SoundDuration":545553,"Delta":66883420},{"NoteNumber":67,"Velocity":56,"Duration":582637,"SoundDuration":582637,"Delta":67428974},{"NoteNumber":51,"Velocity":30,"Duration":582637,"SoundDuration":582637,"Delta":67428974},{"NoteNumber":68,"Velocity":62,"Duration":1111698,"SoundDuration":1111698,"Delta":68011611},{"NoteNumber":48,"Velocity":41,"Duration":424608,"SoundDuration":424608,"Delta":68011611},{"NoteNumber":62,"Velocity":39,"Duration":545553,"SoundDuration":545553,"Delta":68577756},{"NoteNumber":65,"Velocity":39,"Duration":545553,"SoundDuration":545553,"Delta":68577756},{"NoteNumber":56,"Velocity":32,"Duration":545553,"SoundDuration":545553,"Delta":68577756},{"NoteNumber":53,"Velocity":27,"Duration":545553,"SoundDuration":545553,"Delta":68577756},{"NoteNumber":71,"Velocity":56,"Duration":594177,"SoundDuration":594177,"Delta":69123309},{"NoteNumber":50,"Velocity":30,"Duration":594177,"SoundDuration":594177,"Delta":69123309},{"NoteNumber":72,"Velocity":64,"Duration":2260479,"SoundDuration":2260479,"Delta":69717486},{"NoteNumber":36,"Velocity":41,"Duration":424608,"SoundDuration":424608,"Delta":69717486},{"NoteNumber":63,"Velocity":39,"Duration":545553,"SoundDuration":545553,"Delta":70283631},{"NoteNumber":55,"Velocity":35,"Duration":545553,"SoundDuration":545553,"Delta":70283631},{"NoteNumber":51,"Velocity":29,"Duration":545553,"SoundDuration":545553,"Delta":70283631},{"NoteNumber":67,"Velocity":34,"Duration":582637,"SoundDuration":582637,"Delta":70829184},{"NoteNumber":48,"Velocity":30,"Duration":582637,"SoundDuration":582637,"Delta":70829184},{"NoteNumber":36,"Velocity":37,"Duration":424608,"SoundDuration":424608,"Delta":71411822},{"NoteNumber":63,"Velocity":39,"Duration":550559,"SoundDuration":550559,"Delta":71977966},{"NoteNumber":51,"Velocity":22,"Duration":550559,"SoundDuration":550559,"Delta":71977966},{"NoteNumber":55,"Velocity":27,"Duration":550559,"SoundDuration":550559,"Delta":71977966},{"NoteNumber":67,"Velocity":27,"Duration":588350,"SoundDuration":588350,"Delta":72528526},{"NoteNumber":72,"Velocity":47,"Duration":588350,"SoundDuration":588350,"Delta":72528526},{"NoteNumber":48,"Velocity":20,"Duration":588350,"SoundDuration":588350,"Delta":72528526},{"NoteNumber":75,"Velocity":58,"Duration":1164237,"SoundDuration":1164237,"Delta":73116876},{"NoteNumber":42,"Velocity":32,"Duration":464013,"SoundDuration":464013,"Delta":73116876},{"NoteNumber":63,"Velocity":31,"Duration":545553,"SoundDuration":545553,"Delta":73735561},{"NoteNumber":57,"Velocity":27,"Duration":545553,"SoundDuration":545553,"Delta":73735561},{"NoteNumber":51,"Velocity":23,"Duration":545553,"SoundDuration":545553,"Delta":73735561},{"NoteNumber":66,"Velocity":27,"Duration":582637,"SoundDuration":582637,"Delta":74281114},{"NoteNumber":69,"Velocity":48,"Duration":582637,"SoundDuration":582637,"Delta":74281114},{"NoteNumber":48,"Velocity":24,"Duration":582637,"SoundDuration":582637,"Delta":74281114},{"NoteNumber":75,"Velocity":52,"Duration":1116703,"SoundDuration":1116703,"Delta":74863752},{"NoteNumber":42,"Velocity":32,"Duration":424608,"SoundDuration":424608,"Delta":74863752},{"NoteNumber":63,"Velocity":31,"Duration":550559,"SoundDuration":550559,"Delta":75429896},{"NoteNumber":57,"Velocity":27,"Duration":550559,"SoundDuration":550559,"Delta":75429896},{"NoteNumber":51,"Velocity":23,"Duration":550559,"SoundDuration":550559,"Delta":75429896},{"NoteNumber":66,"Velocity":27,"Duration":582637,"SoundDuration":582637,"Delta":75980456},{"NoteNumber":69,"Velocity":48,"Duration":582637,"SoundDuration":582637,"Delta":75980456},{"NoteNumber":48,"Velocity":24,"Duration":582637,"SoundDuration":582637,"Delta":75980456},{"NoteNumber":75,"Velocity":58,"Duration":2835218,"SoundDuration":2835218,"Delta":76563093},{"NoteNumber":42,"Velocity":40,"Duration":450090,"SoundDuration":450090,"Delta":76563093},{"NoteNumber":63,"Velocity":31,"Duration":560852,"SoundDuration":560852,"Delta":77163213},{"NoteNumber":51,"Velocity":22,"Duration":560852,"SoundDuration":560852,"Delta":77163213},{"NoteNumber":57,"Velocity":25,"Duration":560852,"SoundDuration":560852,"Delta":77163213},{"NoteNumber":66,"Velocity":46,"Duration":577033,"SoundDuration":577033,"Delta":77724066},{"NoteNumber":69,"Velocity":46,"Duration":577033,"SoundDuration":577033,"Delta":77724066},{"NoteNumber":48,"Velocity":24,"Duration":577033,"SoundDuration":577033,"Delta":77724066},{"NoteNumber":42,"Velocity":32,"Duration":424608,"SoundDuration":424608,"Delta":78301100},{"NoteNumber":63,"Velocity":31,"Duration":531067,"SoundDuration":531067,"Delta":78867244},{"NoteNumber":57,"Velocity":27,"Duration":531067,"SoundDuration":531067,"Delta":78867244},{"NoteNumber":51,"Velocity":23,"Duration":531067,"SoundDuration":531067,"Delta":78867244},{"NoteNumber":69,"Velocity":31,"Duration":588350,"SoundDuration":588350,"Delta":79398312},{"NoteNumber":74,"Velocity":52,"Duration":588350,"SoundDuration":588350,"Delta":79398312},{"NoteNumber":48,"Velocity":24,"Duration":588350,"SoundDuration":588350,"Delta":79398312},{"NoteNumber":72,"Velocity":55,"Duration":1157923,"SoundDuration":1157923,"Delta":79986662},{"NoteNumber":43,"Velocity":34,"Duration":459277,"SoundDuration":459277,"Delta":79986662},{"NoteNumber":62,"Velocity":31,"Duration":545553,"SoundDuration":545553,"Delta":80599032},{"NoteNumber":50,"Velocity":23,"Duration":545553,"SoundDuration":545553,"Delta":80599032},{"NoteNumber":55,"Velocity":23,"Duration":545553,"SoundDuration":545553,"Delta":80599032},{"NoteNumber":67,"Velocity":31,"Duration":582637,"SoundDuration":582637,"Delta":81144586},{"NoteNumber":70,"Velocity":44,"Duration":582637,"SoundDuration":582637,"Delta":81144586},{"NoteNumber":46,"Velocity":24,"Duration":582637,"SoundDuration":582637,"Delta":81144586},{"NoteNumber":69,"Velocity":31,"Duration":566350,"SoundDuration":566350,"Delta":81719941},{"NoteNumber":39,"Velocity":32,"Duration":424608,"SoundDuration":424608,"Delta":81727223},{"NoteNumber":61,"Velocity":31,"Duration":582637,"SoundDuration":582637,"Delta":82293368},{"NoteNumber":70,"Velocity":31,"Duration":582637,"SoundDuration":582637,"Delta":82293368},{"NoteNumber":58,"Velocity":25,"Duration":582637,"SoundDuration":582637,"Delta":82293368},{"NoteNumber":55,"Velocity":21,"Duration":582637,"SoundDuration":582637,"Delta":82293368},{"NoteNumber":67,"Velocity":44,"Duration":638433,"SoundDuration":638433,"Delta":82876005},{"NoteNumber":51,"Velocity":24,"Duration":638433,"SoundDuration":638433,"Delta":82876005},{"NoteNumber":62,"Velocity":44,"Duration":588350,"SoundDuration":588350,"Delta":83514439},{"NoteNumber":66,"Velocity":44,"Duration":588350,"SoundDuration":588350,"Delta":83514439},{"NoteNumber":69,"Velocity":44,"Duration":588350,"SoundDuration":588350,"Delta":83514439},{"NoteNumber":74,"Velocity":55,"Duration":588350,"SoundDuration":588350,"Delta":83514439},{"NoteNumber":38,"Velocity":34,"Duration":1171480,"SoundDuration":1171480,"Delta":83514439},{"NoteNumber":74,"Velocity":55,"Duration":438287,"SoundDuration":438287,"Delta":84102789},{"NoteNumber":74,"Velocity":61,"Duration":431401,"SoundDuration":431401,"Delta":84685919},{"NoteNumber":74,"Velocity":71,"Duration":443840,"SoundDuration":443840,"Delta":85262396},{"NoteNumber":74,"Velocity":68,"Duration":462072,"SoundDuration":462072,"Delta":85857151},{"NoteNumber":74,"Velocity":63,"Duration":478825,"SoundDuration":478825,"Delta":86476606},{"NoteNumber":74,"Velocity":63,"Duration":500092,"SoundDuration":500092,"Delta":87115039},{"NoteNumber":31,"Velocity":37,"Duration":555658,"SoundDuration":555658,"Delta":87115039},{"NoteNumber":43,"Velocity":44,"Duration":555658,"SoundDuration":555658,"Delta":87115039},{"NoteNumber":62,"Velocity":38,"Duration":519330,"SoundDuration":519330,"Delta":87670698},{"NoteNumber":67,"Velocity":38,"Duration":519330,"SoundDuration":519330,"Delta":87670698},{"NoteNumber":70,"Velocity":55,"Duration":519330,"SoundDuration":519330,"Delta":87670698},{"NoteNumber":66,"Velocity":42,"Duration":540108,"SoundDuration":540108,"Delta":88247732},{"NoteNumber":72,"Velocity":42,"Duration":540108,"SoundDuration":540108,"Delta":88247732},{"NoteNumber":75,"Velocity":60,"Duration":540108,"SoundDuration":540108,"Delta":88247732},{"NoteNumber":74,"Velocity":63,"Duration":1148781,"SoundDuration":1148781,"Delta":88847852},{"NoteNumber":67,"Velocity":42,"Duration":524373,"SoundDuration":524373,"Delta":89413996},{"NoteNumber":70,"Velocity":42,"Duration":524373,"SoundDuration":524373,"Delta":89413996},{"NoteNumber":70,"Velocity":42,"Duration":545564,"SoundDuration":545564,"Delta":89996634},{"NoteNumber":74,"Velocity":42,"Duration":545564,"SoundDuration":545564,"Delta":89996634},{"NoteNumber":79,"Velocity":61,"Duration":545564,"SoundDuration":545564,"Delta":89996634},{"NoteNumber":74,"Velocity":64,"Duration":509530,"SoundDuration":509530,"Delta":90602817},{"NoteNumber":31,"Velocity":37,"Duration":566144,"SoundDuration":566144,"Delta":90602817},{"NoteNumber":43,"Velocity":44,"Duration":566144,"SoundDuration":566144,"Delta":90602817},{"NoteNumber":62,"Velocity":38,"Duration":524373,"SoundDuration":524373,"Delta":91168961},{"NoteNumber":67,"Velocity":38,"Duration":524373,"SoundDuration":524373,"Delta":91168961},{"NoteNumber":70,"Velocity":55,"Duration":524373,"SoundDuration":524373,"Delta":91168961},{"NoteNumber":66,"Velocity":43,"Duration":545564,"SoundDuration":545564,"Delta":91751599},{"NoteNumber":72,"Velocity":43,"Duration":545564,"SoundDuration":545564,"Delta":91751599},{"NoteNumber":75,"Velocity":62,"Duration":545564,"SoundDuration":545564,"Delta":91751599},{"NoteNumber":74,"Velocity":65,"Duration":1159888,"SoundDuration":1159888,"Delta":92357782},{"NoteNumber":67,"Velocity":42,"Duration":514383,"SoundDuration":514383,"Delta":92946132},{"NoteNumber":70,"Velocity":42,"Duration":514383,"SoundDuration":514383,"Delta":92946132},{"NoteNumber":70,"Velocity":42,"Duration":556816,"SoundDuration":556816,"Delta":93517670},{"NoteNumber":74,"Velocity":42,"Duration":556816,"SoundDuration":556816,"Delta":93517670},{"NoteNumber":79,"Velocity":59,"Duration":556816,"SoundDuration":556816,"Delta":93517670},{"NoteNumber":74,"Velocity":65,"Duration":504767,"SoundDuration":504767,"Delta":94136354},{"NoteNumber":34,"Velocity":37,"Duration":560852,"SoundDuration":560852,"Delta":94136354},{"NoteNumber":46,"Velocity":44,"Duration":560852,"SoundDuration":560852,"Delta":94136354},{"NoteNumber":62,"Velocity":38,"Duration":504767,"SoundDuration":504767,"Delta":94697207},{"NoteNumber":67,"Velocity":38,"Duration":504767,"SoundDuration":504767,"Delta":94697207},{"NoteNumber":72,"Velocity":55,"Duration":504767,"SoundDuration":504767,"Delta":94697207},{"NoteNumber":62,"Velocity":38,"Duration":534759,"SoundDuration":534759,"Delta":95258059},{"NoteNumber":67,"Velocity":38,"Duration":534759,"SoundDuration":534759,"Delta":95258059},{"NoteNumber":70,"Velocity":55,"Duration":534759,"SoundDuration":534759,"Delta":95258059},{"NoteNumber":69,"Velocity":61,"Duration":1159888,"SoundDuration":1159888,"Delta":95852236},{"NoteNumber":36,"Velocity":37,"Duration":588350,"SoundDuration":588350,"Delta":95852236},{"NoteNumber":48,"Velocity":44,"Duration":588350,"SoundDuration":588350,"Delta":95852236},{"NoteNumber":63,"Velocity":42,"Duration":514383,"SoundDuration":514383,"Delta":96440587},{"NoteNumber":67,"Velocity":42,"Duration":514383,"SoundDuration":514383,"Delta":96440587},{"NoteNumber":63,"Velocity":42,"Duration":556816,"SoundDuration":556816,"Delta":97012124},{"NoteNumber":67,"Velocity":42,"Duration":556816,"SoundDuration":556816,"Delta":97012124},{"NoteNumber":69,"Velocity":55,"Duration":556816,"SoundDuration":556816,"Delta":97012124},{"NoteNumber":74,"Velocity":63,"Duration":1165384,"SoundDuration":1165384,"Delta":97630809},{"NoteNumber":38,"Velocity":37,"Duration":588350,"SoundDuration":588350,"Delta":97630809},{"NoteNumber":50,"Velocity":44,"Duration":588350,"SoundDuration":588350,"Delta":97630809},{"NoteNumber":62,"Velocity":42,"Duration":519330,"SoundDuration":519330,"Delta":98219159},{"NoteNumber":66,"Velocity":42,"Duration":519330,"SoundDuration":519330,"Delta":98219159},{"NoteNumber":62,"Velocity":42,"Duration":534759,"SoundDuration":534759,"Delta":98796193},{"NoteNumber":66,"Velocity":42,"Duration":534759,"SoundDuration":534759,"Delta":98796193},{"NoteNumber":69,"Velocity":55,"Duration":534759,"SoundDuration":534759,"Delta":98796193},{"NoteNumber":72,"Velocity":63,"Duration":1154495,"SoundDuration":1154495,"Delta":99390370},{"NoteNumber":43,"Velocity":37,"Duration":588350,"SoundDuration":588350,"Delta":99390370},{"NoteNumber":55,"Velocity":44,"Duration":588350,"SoundDuration":588350,"Delta":99390370},{"NoteNumber":62,"Velocity":42,"Duration":509530,"SoundDuration":509530,"Delta":99978721},{"NoteNumber":69,"Velocity":42,"Duration":509530,"SoundDuration":509530,"Delta":99978721},{"NoteNumber":62,"Velocity":42,"Duration":551132,"SoundDuration":551132,"Delta":100544865},{"NoteNumber":67,"Velocity":42,"Duration":551132,"SoundDuration":551132,"Delta":100544865},{"NoteNumber":70,"Velocity":55,"Duration":551132,"SoundDuration":551132,"Delta":100544865},{"NoteNumber":74,"Velocity":63,"Duration":509530,"SoundDuration":509530,"Delta":101157235},{"NoteNumber":31,"Velocity":37,"Duration":566144,"SoundDuration":566144,"Delta":101157235},{"NoteNumber":43,"Velocity":44,"Duration":566144,"SoundDuration":566144,"Delta":101157235},{"NoteNumber":62,"Velocity":38,"Duration":519330,"SoundDuration":519330,"Delta":101723380},{"NoteNumber":67,"Velocity":38,"Duration":519330,"SoundDuration":519330,"Delta":101723380},{"NoteNumber":70,"Velocity":55,"Duration":519330,"SoundDuration":519330,"Delta":101723380},{"NoteNumber":66,"Velocity":42,"Duration":534759,"SoundDuration":534759,"Delta":102300414},{"NoteNumber":72,"Velocity":42,"Duration":534759,"SoundDuration":534759,"Delta":102300414},{"NoteNumber":75,"Velocity":60,"Duration":534759,"SoundDuration":534759,"Delta":102300414},{"NoteNumber":74,"Velocity":64,"Duration":1171210,"SoundDuration":1171210,"Delta":102894591},{"NoteNumber":67,"Velocity":42,"Duration":519330,"SoundDuration":519330,"Delta":103488768},{"NoteNumber":70,"Velocity":42,"Duration":519330,"SoundDuration":519330,"Delta":103488768},{"NoteNumber":70,"Velocity":42,"Duration":556816,"SoundDuration":556816,"Delta":104065802},{"NoteNumber":74,"Velocity":42,"Duration":556816,"SoundDuration":556816,"Delta":104065802},{"NoteNumber":79,"Velocity":58,"Duration":556816,"SoundDuration":556816,"Delta":104065802},{"NoteNumber":74,"Velocity":65,"Duration":519330,"SoundDuration":519330,"Delta":104684486},{"NoteNumber":43,"Velocity":37,"Duration":577033,"SoundDuration":577033,"Delta":104684486},{"NoteNumber":55,"Velocity":44,"Duration":577033,"SoundDuration":577033,"Delta":104684486},{"NoteNumber":62,"Velocity":40,"Duration":529515,"SoundDuration":529515,"Delta":105261520},{"NoteNumber":67,"Velocity":40,"Duration":529515,"SoundDuration":529515,"Delta":105261520},{"NoteNumber":70,"Velocity":40,"Duration":529515,"SoundDuration":529515,"Delta":105261520},{"NoteNumber":66,"Velocity":43,"Duration":556816,"SoundDuration":556816,"Delta":105849871},{"NoteNumber":72,"Velocity":43,"Duration":556816,"SoundDuration":556816,"Delta":105849871},{"NoteNumber":75,"Velocity":62,"Duration":556816,"SoundDuration":556816,"Delta":105849871},{"NoteNumber":74,"Velocity":65,"Duration":1129635,"SoundDuration":1129635,"Delta":106468555},{"NoteNumber":67,"Velocity":40,"Duration":529515,"SoundDuration":529515,"Delta":107068675},{"NoteNumber":71,"Velocity":40,"Duration":529515,"SoundDuration":529515,"Delta":107068675},{"NoteNumber":71,"Velocity":57,"Duration":638433,"SoundDuration":638433,"Delta":107657026},{"NoteNumber":74,"Velocity":57,"Duration":638433,"SoundDuration":638433,"Delta":107657026},{"NoteNumber":77,"Velocity":57,"Duration":638433,"SoundDuration":638433,"Delta":107657026},{"NoteNumber":79,"Velocity":82,"Duration":1238553,"SoundDuration":1238553,"Delta":107657026},{"NoteNumber":72,"Velocity":57,"Duration":600120,"SoundDuration":600120,"Delta":108295459},{"NoteNumber":75,"Velocity":57,"Duration":600120,"SoundDuration":600120,"Delta":108295459},{"NoteNumber":36,"Velocity":74,"Duration":600120,"SoundDuration":600120,"Delta":108295459},{"NoteNumber":48,"Velocity":74,"Duration":600120,"SoundDuration":600120,"Delta":108295459},{"NoteNumber":79,"Velocity":72,"Duration":519330,"SoundDuration":519330,"Delta":108895579},{"NoteNumber":75,"Velocity":71,"Duration":519330,"SoundDuration":519330,"Delta":109472613},{"NoteNumber":74,"Velocity":69,"Duration":519330,"SoundDuration":519330,"Delta":110049647},{"NoteNumber":75,"Velocity":66,"Duration":519330,"SoundDuration":519330,"Delta":110626681},{"NoteNumber":67,"Velocity":49,"Duration":519330,"SoundDuration":519330,"Delta":110626681},{"NoteNumber":72,"Velocity":59,"Duration":519330,"SoundDuration":519330,"Delta":111203715},{"NoteNumber":63,"Velocity":44,"Duration":519330,"SoundDuration":519330,"Delta":111203715},{"NoteNumber":70,"Velocity":64,"Duration":519330,"SoundDuration":519330,"Delta":111780749},{"NoteNumber":62,"Velocity":48,"Duration":519330,"SoundDuration":519330,"Delta":111780749},{"NoteNumber":67,"Velocity":45,"Duration":519330,"SoundDuration":519330,"Delta":112357783},{"NoteNumber":72,"Velocity":54,"Duration":519330,"SoundDuration":519330,"Delta":112357783},{"NoteNumber":63,"Velocity":40,"Duration":519330,"SoundDuration":519330,"Delta":112357783},{"NoteNumber":63,"Velocity":47,"Duration":545564,"SoundDuration":545564,"Delta":112934817},{"NoteNumber":69,"Velocity":56,"Duration":545564,"SoundDuration":545564,"Delta":112934817},{"NoteNumber":60,"Velocity":42,"Duration":545564,"SoundDuration":545564,"Delta":112934817},{"NoteNumber":67,"Velocity":54,"Duration":519330,"SoundDuration":519330,"Delta":113541000},{"NoteNumber":62,"Velocity":40,"Duration":519330,"SoundDuration":519330,"Delta":113541000},{"NoteNumber":69,"Velocity":49,"Duration":519330,"SoundDuration":519330,"Delta":114118034},{"NoteNumber":60,"Velocity":41,"Duration":574590,"SoundDuration":574590,"Delta":114695068},{"NoteNumber":62,"Velocity":41,"Duration":574590,"SoundDuration":574590,"Delta":114695068},{"NoteNumber":66,"Velocity":49,"Duration":574590,"SoundDuration":574590,"Delta":114695068},{"NoteNumber":50,"Velocity":41,"Duration":574590,"SoundDuration":574590,"Delta":114695068},{"NoteNumber":58,"Velocity":49,"Duration":582637,"SoundDuration":582637,"Delta":115333502},{"NoteNumber":62,"Velocity":49,"Duration":582637,"SoundDuration":582637,"Delta":115333502},{"NoteNumber":67,"Velocity":58,"Duration":582637,"SoundDuration":582637,"Delta":115333502},{"NoteNumber":43,"Velocity":40,"Duration":436978,"SoundDuration":436978,"Delta":115333502},{"NoteNumber":58,"Velocity":28,"Duration":550559,"SoundDuration":550559,"Delta":115916139},{"NoteNumber":55,"Velocity":24,"Duration":550559,"SoundDuration":550559,"Delta":115916139},{"NoteNumber":50,"Velocity":28,"Duration":588350,"SoundDuration":588350,"Delta":116466699},{"NoteNumber":43,"Velocity":36,"Duration":441262,"SoundDuration":441262,"Delta":117055049},{"NoteNumber":58,"Velocity":30,"Duration":588350,"SoundDuration":588350,"Delta":117643400},{"NoteNumber":55,"Velocity":25,"Duration":588350,"SoundDuration":588350,"Delta":117643400},{"NoteNumber":74,"Velocity":53,"Duration":555658,"SoundDuration":555658,"Delta":118231750},{"NoteNumber":70,"Velocity":45,"Duration":555658,"SoundDuration":555658,"Delta":118231750},{"NoteNumber":50,"Velocity":30,"Duration":555658,"SoundDuration":555658,"Delta":118231750},{"NoteNumber":72,"Velocity":61,"Duration":1149203,"SoundDuration":1149203,"Delta":118787409},{"NoteNumber":69,"Velocity":51,"Duration":1149203,"SoundDuration":1149203,"Delta":118787409},{"NoteNumber":43,"Velocity":36,"Duration":441262,"SoundDuration":441262,"Delta":118787409},{"NoteNumber":60,"Velocity":28,"Duration":560852,"SoundDuration":560852,"Delta":119375759},{"NoteNumber":57,"Velocity":24,"Duration":560852,"SoundDuration":560852,"Delta":119375759},{"NoteNumber":67,"Velocity":42,"Duration":600120,"SoundDuration":600120,"Delta":119936612},{"NoteNumber":70,"Velocity":50,"Duration":600120,"SoundDuration":600120,"Delta":119936612},{"NoteNumber":50,"Velocity":28,"Duration":600120,"SoundDuration":600120,"Delta":119936612},{"NoteNumber":69,"Velocity":55,"Duration":1165384,"SoundDuration":1165384,"Delta":120536732},{"NoteNumber":66,"Velocity":46,"Duration":1165384,"SoundDuration":1165384,"Delta":120536732},{"NoteNumber":43,"Velocity":36,"Duration":441262,"SoundDuration":441262,"Delta":120536732},{"NoteNumber":60,"Velocity":30,"Duration":577033,"SoundDuration":577033,"Delta":121125082},{"NoteNumber":57,"Velocity":25,"Duration":577033,"SoundDuration":577033,"Delta":121125082},{"NoteNumber":72,"Velocity":53,"Duration":555658,"SoundDuration":555658,"Delta":121702116},{"NoteNumber":63,"Velocity":45,"Duration":555658,"SoundDuration":555658,"Delta":121702116},{"NoteNumber":50,"Velocity":30,"Duration":555658,"SoundDuration":555658,"Delta":121702116},{"NoteNumber":70,"Velocity":61,"Duration":1149203,"SoundDuration":1149203,"Delta":122257775},{"NoteNumber":62,"Velocity":51,"Duration":1149203,"SoundDuration":1149203,"Delta":122257775},{"NoteNumber":43,"Velocity":36,"Duration":441262,"SoundDuration":441262,"Delta":122257775},{"NoteNumber":58,"Velocity":28,"Duration":560852,"SoundDuration":560852,"Delta":122846125},{"NoteNumber":55,"Velocity":24,"Duration":560852,"SoundDuration":560852,"Delta":122846125},{"NoteNumber":74,"Velocity":42,"Duration":540108,"SoundDuration":540108,"Delta":123406978},{"NoteNumber":86,"Velocity":50,"Duration":540108,"SoundDuration":540108,"Delta":123406978},{"NoteNumber":50,"Velocity":28,"Duration":600120,"SoundDuration":600120,"Delta":123406978},{"NoteNumber":86,"Velocity":55,"Duration":1165384,"SoundDuration":1165384,"Delta":124007098},{"NoteNumber":74,"Velocity":46,"Duration":1165384,"SoundDuration":1165384,"Delta":124007098},{"NoteNumber":43,"Velocity":36,"Duration":441262,"SoundDuration":441262,"Delta":124007098},{"NoteNumber":58,"Velocity":30,"Duration":577033,"SoundDuration":577033,"Delta":124595448},{"NoteNumber":55,"Velocity":25,"Duration":577033,"SoundDuration":577033,"Delta":124595448},{"NoteNumber":70,"Velocity":47,"Duration":555658,"SoundDuration":555658,"Delta":125172482},{"NoteNumber":62,"Velocity":40,"Duration":555658,"SoundDuration":555658,"Delta":125172482},{"NoteNumber":50,"Velocity":27,"Duration":555658,"SoundDuration":555658,"Delta":125172482},{"NoteNumber":69,"Velocity":53,"Duration":1149203,"SoundDuration":1149203,"Delta":125728141},{"NoteNumber":60,"Velocity":44,"Duration":1149203,"SoundDuration":1149203,"Delta":125728141},{"NoteNumber":43,"Velocity":31,"Duration":441262,"SoundDuration":441262,"Delta":125728141},{"NoteNumber":55,"Velocity":24,"Duration":560852,"SoundDuration":560852,"Delta":126316491},{"NoteNumber":58,"Velocity":35,"Duration":600120,"SoundDuration":600120,"Delta":126877344},{"NoteNumber":67,"Velocity":42,"Duration":600120,"SoundDuration":600120,"Delta":126877344},{"NoteNumber":50,"Velocity":23,"Duration":600120,"SoundDuration":600120,"Delta":126877344},{"NoteNumber":66,"Velocity":45,"Duration":1165384,"SoundDuration":1165384,"Delta":127477464},{"NoteNumber":57,"Velocity":37,"Duration":1165384,"SoundDuration":1165384,"Delta":127477464},{"NoteNumber":43,"Velocity":28,"Duration":441262,"SoundDuration":441262,"Delta":127477464},{"NoteNumber":62,"Velocity":24,"Duration":577033,"SoundDuration":577033,"Delta":128065814},{"NoteNumber":60,"Velocity":19,"Duration":577033,"SoundDuration":577033,"Delta":128065814},{"NoteNumber":69,"Velocity":41,"Duration":555658,"SoundDuration":555658,"Delta":128642848},{"NoteNumber":66,"Velocity":35,"Duration":555658,"SoundDuration":555658,"Delta":128642848},{"NoteNumber":50,"Velocity":23,"Duration":555658,"SoundDuration":555658,"Delta":128642848},{"NoteNumber":67,"Velocity":42,"Duration":1149203,"SoundDuration":1149203,"Delta":129198507},{"NoteNumber":62,"Velocity":35,"Duration":1149203,"SoundDuration":1149203,"Delta":129198507},{"NoteNumber":43,"Velocity":25,"Duration":441262,"SoundDuration":441262,"Delta":129198507},{"NoteNumber":58,"Velocity":19,"Duration":560852,"SoundDuration":560852,"Delta":129786857},{"NoteNumber":55,"Velocity":16,"Duration":560852,"SoundDuration":560852,"Delta":129786857},{"NoteNumber":74,"Velocity":29,"Duration":540108,"SoundDuration":540108,"Delta":130347710},{"NoteNumber":86,"Velocity":35,"Duration":540108,"SoundDuration":540108,"Delta":130347710},{"NoteNumber":50,"Velocity":19,"Duration":600120,"SoundDuration":600120,"Delta":130347710},{"NoteNumber":86,"Velocity":38,"Duration":1165384,"SoundDuration":1165384,"Delta":130947830},{"NoteNumber":74,"Velocity":32,"Duration":1165384,"SoundDuration":1165384,"Delta":130947830},{"NoteNumber":43,"Velocity":25,"Duration":441262,"SoundDuration":441262,"Delta":130947830},{"NoteNumber":58,"Velocity":20,"Duration":577033,"SoundDuration":577033,"Delta":131536180},{"NoteNumber":55,"Velocity":17,"Duration":577033,"SoundDuration":577033,"Delta":131536180},{"NoteNumber":70,"Velocity":37,"Duration":555658,"SoundDuration":555658,"Delta":132113214},{"NoteNumber":62,"Velocity":31,"Duration":555658,"SoundDuration":555658,"Delta":132113214},{"NoteNumber":50,"Velocity":20,"Duration":555658,"SoundDuration":555658,"Delta":132113214},{"NoteNumber":67,"Velocity":42,"Duration":1149203,"SoundDuration":1149203,"Delta":132668873},{"NoteNumber":43,"Velocity":25,"Duration":441262,"SoundDuration":441262,"Delta":132668873},{"NoteNumber":58,"Velocity":19,"Duration":560852,"SoundDuration":560852,"Delta":133257223},{"NoteNumber":55,"Velocity":16,"Duration":560852,"SoundDuration":560852,"Delta":133257223},{"NoteNumber":74,"Velocity":29,"Duration":540108,"SoundDuration":540108,"Delta":133818076},{"NoteNumber":86,"Velocity":35,"Duration":540108,"SoundDuration":540108,"Delta":133818076},{"NoteNumber":50,"Velocity":19,"Duration":600120,"SoundDuration":600120,"Delta":133818076},{"NoteNumber":86,"Velocity":38,"Duration":1165384,"SoundDuration":1165384,"Delta":134418196},{"NoteNumber":74,"Velocity":32,"Duration":1165384,"SoundDuration":1165384,"Delta":134418196},{"NoteNumber":43,"Velocity":25,"Duration":441262,"SoundDuration":441262,"Delta":134418196},{"NoteNumber":58,"Velocity":20,"Duration":577033,"SoundDuration":577033,"Delta":135006546},{"NoteNumber":55,"Velocity":17,"Duration":577033,"SoundDuration":577033,"Delta":135006546},{"NoteNumber":50,"Velocity":19,"Duration":600120,"SoundDuration":600120,"Delta":135583580},{"NoteNumber":43,"Velocity":25,"Duration":441262,"SoundDuration":441262,"Delta":136183700},{"NoteNumber":58,"Velocity":20,"Duration":577033,"SoundDuration":577033,"Delta":136772051},{"NoteNumber":55,"Velocity":17,"Duration":577033,"SoundDuration":577033,"Delta":136772051},{"NoteNumber":50,"Velocity":19,"Duration":577033,"SoundDuration":577033,"Delta":137349085},{"NoteNumber":65,"Velocity":37,"Duration":3484836,"SoundDuration":3484836,"Delta":137926119},{"NoteNumber":29,"Velocity":21,"Duration":1165384,"SoundDuration":1165384,"Delta":137926119},{"NoteNumber":41,"Velocity":25,"Duration":1165384,"SoundDuration":1165384,"Delta":137926119},{"NoteNumber":60,"Velocity":20,"Duration":577033,"SoundDuration":577033,"Delta":138514469},{"NoteNumber":57,"Velocity":17,"Duration":577033,"SoundDuration":577033,"Delta":138514469},{"NoteNumber":53,"Velocity":19,"Duration":577033,"SoundDuration":577033,"Delta":139091503},{"NoteNumber":34,"Velocity":21,"Duration":1165384,"SoundDuration":1165384,"Delta":139668537},{"NoteNumber":46,"Velocity":25,"Duration":1165384,"SoundDuration":1165384,"Delta":139668537},{"NoteNumber":62,"Velocity":20,"Duration":577033,"SoundDuration":577033,"Delta":140256888},{"NoteNumber":58,"Velocity":17,"Duration":577033,"SoundDuration":577033,"Delta":140256888},{"NoteNumber":53,"Velocity":19,"Duration":577033,"SoundDuration":577033,"Delta":140833922},{"NoteNumber":63,"Velocity":37,"Duration":1803817,"SoundDuration":1803817,"Delta":141410956},{"NoteNumber":36,"Velocity":21,"Duration":1165384,"SoundDuration":1165384,"Delta":141410956},{"NoteNumber":48,"Velocity":25,"Duration":1165384,"SoundDuration":1165384,"Delta":141410956},{"NoteNumber":60,"Velocity":20,"Duration":577033,"SoundDuration":577033,"Delta":141999306},{"NoteNumber":55,"Velocity":17,"Duration":577033,"SoundDuration":577033,"Delta":141999306},{"NoteNumber":51,"Velocity":19,"Duration":638433,"SoundDuration":638433,"Delta":142576340},{"NoteNumber":62,"Velocity":37,"Duration":2896486,"SoundDuration":2896486,"Delta":143214774},{"NoteNumber":38,"Velocity":25,"Duration":1165384,"SoundDuration":1165384,"Delta":143214774},{"NoteNumber":58,"Velocity":20,"Duration":577033,"SoundDuration":577033,"Delta":143803124},{"NoteNumber":55,"Velocity":17,"Duration":577033,"SoundDuration":577033,"Delta":143803124},{"NoteNumber":50,"Velocity":19,"Duration":577033,"SoundDuration":577033,"Delta":144380158},{"NoteNumber":38,"Velocity":25,"Duration":1154067,"SoundDuration":1154067,"Delta":144957192},{"NoteNumber":55,"Velocity":17,"Duration":577033,"SoundDuration":577033,"Delta":145534226},{"NoteNumber":58,"Velocity":20,"Duration":577033,"SoundDuration":577033,"Delta":145534226},{"NoteNumber":50,"Velocity":19,"Duration":577033,"SoundDuration":577033,"Delta":146111260},{"NoteNumber":38,"Velocity":25,"Duration":1165384,"SoundDuration":1165384,"Delta":146688294},{"NoteNumber":60,"Velocity":20,"Duration":577033,"SoundDuration":577033,"Delta":147276645},{"NoteNumber":57,"Velocity":17,"Duration":577033,"SoundDuration":577033,"Delta":147276645},{"NoteNumber":50,"Velocity":19,"Duration":577033,"SoundDuration":577033,"Delta":147853679},{"NoteNumber":38,"Velocity":25,"Duration":1165384,"SoundDuration":1165384,"Delta":148430713},{"NoteNumber":57,"Velocity":20,"Duration":577033,"SoundDuration":577033,"Delta":149019063},{"NoteNumber":54,"Velocity":17,"Duration":577033,"SoundDuration":577033,"Delta":149019063},{"NoteNumber":50,"Velocity":19,"Duration":638433,"SoundDuration":638433,"Delta":149596097},{"NoteNumber":31,"Velocity":25,"Duration":1149203,"SoundDuration":1149203,"Delta":150234531},{"NoteNumber":58,"Velocity":20,"Duration":560852,"SoundDuration":560852,"Delta":150822881},{"NoteNumber":55,"Velocity":17,"Duration":560852,"SoundDuration":560852,"Delta":150822881},{"NoteNumber":50,"Velocity":19,"Duration":638433,"SoundDuration":638433,"Delta":151383734},{"NoteNumber":62,"Velocity":37,"Duration":2319452,"SoundDuration":2319452,"Delta":152022167},{"NoteNumber":31,"Velocity":25,"Duration":1149203,"SoundDuration":1149203,"Delta":153753269},{"NoteNumber":58,"Velocity":20,"Duration":560852,"SoundDuration":560852,"Delta":154341620},{"NoteNumber":55,"Velocity":17,"Duration":560852,"SoundDuration":560852,"Delta":154341620},{"NoteNumber":50,"Velocity":19,"Duration":638433,"SoundDuration":638433,"Delta":154902472},{"NoteNumber":62,"Velocity":37,"Duration":2473039,"SoundDuration":2473039,"Delta":155540906},{"NoteNumber":31,"Velocity":21,"Duration":3956913,"SoundDuration":3956913,"Delta":157354459}]}