{"title":"Villanesca","artist":"Piano","durationMs":282377,"midiSha256":"623dd0e0f6e03a939c3cab2f993cbb8b21465c07038f19b146f4626a2416ff10","midiObject":[{"NoteNumber":59,"Velocity":64,"Duration":731707,"SoundDuration":731707,"Delta":0},{"NoteNumber":62,"Velocity":77,"Duration":731707,"SoundDuration":731707,"Delta":0},{"NoteNumber":43,"Velocity":44,"Duration":1432848,"SoundDuration":1432848,"Delta":0},{"NoteNumber":50,"Velocity":52,"Duration":1432848,"SoundDuration":1432848,"Delta":0},{"NoteNumber":86,"Velocity":70,"Duration":348553,"SoundDuration":348553,"Delta":731707},{"NoteNumber":59,"Velocity":55,"Duration":731706,"SoundDuration":731706,"Delta":1432848},{"NoteNumber":62,"Velocity":65,"Duration":731706,"SoundDuration":731706,"Delta":1432848},{"NoteNumber":50,"Velocity":44,"Duration":1409673,"SoundDuration":1409673,"Delta":1432848},{"NoteNumber":43,"Velocity":38,"Duration":1409673,"SoundDuration":1409673,"Delta":1432848},{"NoteNumber":86,"Velocity":62,"Duration":338982,"SoundDuration":338982,"Delta":2164555},{"NoteNumber":62,"Velocity":59,"Duration":705881,"SoundDuration":705881,"Delta":2842522},{"NoteNumber":59,"Velocity":50,"Duration":705881,"SoundDuration":705881,"Delta":2842522},{"NoteNumber":50,"Velocity":36,"Duration":1398482,"SoundDuration":1398482,"Delta":2842522},{"NoteNumber":43,"Velocity":29,"Duration":1398482,"SoundDuration":1398482,"Delta":2842522},{"NoteNumber":86,"Velocity":57,"Duration":346300,"SoundDuration":346300,"Delta":3548403},{"NoteNumber":59,"Velocity":43,"Duration":715734,"SoundDuration":715734,"Delta":4241004},{"NoteNumber":62,"Velocity":51,"Duration":715734,"SoundDuration":715734,"Delta":4241004},{"NoteNumber":43,"Velocity":25,"Duration":1450523,"SoundDuration":1450523,"Delta":4241004},{"NoteNumber":50,"Velocity":30,"Duration":1450523,"SoundDuration":1450523,"Delta":4241004},{"NoteNumber":86,"Velocity":49,"Duration":368097,"SoundDuration":368097,"Delta":4956739},{"NoteNumber":62,"Velocity":46,"Duration":181598,"SoundDuration":181598,"Delta":5509930},{"NoteNumber":59,"Velocity":43,"Duration":356803,"SoundDuration":356803,"Delta":5691528},{"NoteNumber":67,"Velocity":51,"Duration":356803,"SoundDuration":356803,"Delta":5691528},{"NoteNumber":43,"Velocity":28,"Duration":1377701,"SoundDuration":1377701,"Delta":5691528},{"NoteNumber":50,"Velocity":34,"Duration":1377701,"SoundDuration":1377701,"Delta":5691528},{"NoteNumber":67,"Velocity":44,"Duration":338332,"SoundDuration":338332,"Delta":6048331},{"NoteNumber":86,"Velocity":47,"Duration":682565,"SoundDuration":682565,"Delta":6386664},{"NoteNumber":59,"Velocity":42,"Duration":163523,"SoundDuration":163523,"Delta":6386664},{"NoteNumber":67,"Velocity":50,"Duration":163523,"SoundDuration":163523,"Delta":6386664},{"NoteNumber":69,"Velocity":40,"Duration":167242,"SoundDuration":167242,"Delta":6550188},{"NoteNumber":71,"Velocity":45,"Duration":163523,"SoundDuration":163523,"Delta":6717430},{"NoteNumber":72,"Velocity":40,"Duration":138069,"SoundDuration":138069,"Delta":6880954},{"NoteNumber":72,"Velocity":44,"Duration":86924,"SoundDuration":86924,"Delta":7026196},{"NoteNumber":62,"Velocity":43,"Duration":351123,"SoundDuration":351123,"Delta":7069230},{"NoteNumber":71,"Velocity":51,"Duration":351123,"SoundDuration":351123,"Delta":7069230},{"NoteNumber":43,"Velocity":30,"Duration":1395367,"SoundDuration":1395367,"Delta":7069230},{"NoteNumber":50,"Velocity":36,"Duration":1395367,"SoundDuration":1395367,"Delta":7069230},{"NoteNumber":69,"Velocity":39,"Duration":170998,"SoundDuration":170998,"Delta":7420354},{"NoteNumber":71,"Velocity":35,"Duration":170998,"SoundDuration":170998,"Delta":7591352},{"NoteNumber":86,"Velocity":45,"Duration":702246,"SoundDuration":702246,"Delta":7762351},{"NoteNumber":59,"Velocity":38,"Duration":526685,"SoundDuration":526685,"Delta":7762351},{"NoteNumber":67,"Velocity":45,"Duration":526685,"SoundDuration":526685,"Delta":7762351},{"NoteNumber":64,"Velocity":47,"Duration":175561,"SoundDuration":175561,"Delta":8289036},{"NoteNumber":60,"Velocity":43,"Duration":356802,"SoundDuration":356802,"Delta":8464598},{"NoteNumber":69,"Velocity":51,"Duration":356802,"SoundDuration":356802,"Delta":8464598},{"NoteNumber":43,"Velocity":28,"Duration":1370005,"SoundDuration":1370005,"Delta":8464598},{"NoteNumber":50,"Velocity":34,"Duration":1370005,"SoundDuration":1370005,"Delta":8464598},{"NoteNumber":69,"Velocity":45,"Duration":329670,"SoundDuration":329670,"Delta":8821401},{"NoteNumber":86,"Velocity":47,"Duration":683532,"SoundDuration":683532,"Delta":9151072},{"NoteNumber":60,"Velocity":42,"Duration":162619,"SoundDuration":162619,"Delta":9151072},{"NoteNumber":69,"Velocity":50,"Duration":162619,"SoundDuration":162619,"Delta":9151072},{"NoteNumber":71,"Velocity":40,"Duration":168199,"SoundDuration":168199,"Delta":9313691},{"NoteNumber":72,"Velocity":45,"Duration":164437,"SoundDuration":164437,"Delta":9481890},{"NoteNumber":74,"Velocity":40,"Duration":138069,"SoundDuration":138069,"Delta":9646328},{"NoteNumber":74,"Velocity":44,"Duration":86924,"SoundDuration":86924,"Delta":9791569},{"NoteNumber":64,"Velocity":43,"Duration":351123,"SoundDuration":351123,"Delta":9834604},{"NoteNumber":72,"Velocity":51,"Duration":351123,"SoundDuration":351123,"Delta":9834604},{"NoteNumber":43,"Velocity":30,"Duration":1395367,"SoundDuration":1395367,"Delta":9834604},{"NoteNumber":50,"Velocity":36,"Duration":1395367,"SoundDuration":1395367,"Delta":9834604},{"NoteNumber":71,"Velocity":41,"Duration":170998,"SoundDuration":170998,"Delta":10185727},{"NoteNumber":72,"Velocity":38,"Duration":170998,"SoundDuration":170998,"Delta":10356726},{"NoteNumber":86,"Velocity":45,"Duration":702246,"SoundDuration":702246,"Delta":10527725},{"NoteNumber":60,"Velocity":38,"Duration":526685,"SoundDuration":526685,"Delta":10527725},{"NoteNumber":69,"Velocity":45,"Duration":526685,"SoundDuration":526685,"Delta":10527725},{"NoteNumber":67,"Velocity":47,"Duration":175561,"SoundDuration":175561,"Delta":11054410},{"NoteNumber":60,"Velocity":43,"Duration":356802,"SoundDuration":356802,"Delta":11229972},{"NoteNumber":66,"Velocity":51,"Duration":356802,"SoundDuration":356802,"Delta":11229972},{"NoteNumber":43,"Velocity":28,"Duration":1401779,"SoundDuration":1401779,"Delta":11229972},{"NoteNumber":50,"Velocity":34,"Duration":1401779,"SoundDuration":1401779,"Delta":11229972},{"NoteNumber":66,"Velocity":48,"Duration":301239,"SoundDuration":301239,"Delta":11586775},{"NoteNumber":67,"Velocity":42,"Duration":43034,"SoundDuration":43034,"Delta":11888014},{"NoteNumber":86,"Velocity":47,"Duration":700703,"SoundDuration":700703,"Delta":11931048},{"NoteNumber":60,"Velocity":42,"Duration":170145,"SoundDuration":170145,"Delta":11931048},{"NoteNumber":66,"Velocity":50,"Duration":170145,"SoundDuration":170145,"Delta":11931048},{"NoteNumber":62,"Velocity":40,"Duration":170145,"SoundDuration":170145,"Delta":12101193},{"NoteNumber":64,"Velocity":45,"Duration":172136,"SoundDuration":172136,"Delta":12271339},{"NoteNumber":66,"Velocity":40,"Duration":188276,"SoundDuration":188276,"Delta":12443475},{"NoteNumber":59,"Velocity":43,"Duration":722891,"SoundDuration":722891,"Delta":12631751},{"NoteNumber":67,"Velocity":51,"Duration":722891,"SoundDuration":722891,"Delta":12631751},{"NoteNumber":43,"Velocity":28,"Duration":1415565,"SoundDuration":1415565,"Delta":12631751},{"NoteNumber":50,"Velocity":34,"Duration":1415565,"SoundDuration":1415565,"Delta":12631751},{"NoteNumber":86,"Velocity":47,"Duration":692673,"SoundDuration":692673,"Delta":13354643},{"NoteNumber":62,"Velocity":44,"Duration":176263,"SoundDuration":176263,"Delta":13871054},{"NoteNumber":67,"Velocity":48,"Duration":356802,"SoundDuration":356802,"Delta":14047317},{"NoteNumber":59,"Velocity":40,"Duration":356802,"SoundDuration":356802,"Delta":14047317},{"NoteNumber":43,"Velocity":27,"Duration":1376797,"SoundDuration":1376797,"Delta":14047317},{"NoteNumber":50,"Velocity":32,"Duration":1376797,"SoundDuration":1376797,"Delta":14047317},{"NoteNumber":67,"Velocity":45,"Duration":338333,"SoundDuration":338333,"Delta":14404120},{"NoteNumber":59,"Velocity":40,"Duration":163523,"SoundDuration":163523,"Delta":14742453},{"NoteNumber":67,"Velocity":47,"Duration":163523,"SoundDuration":163523,"Delta":14742453},{"NoteNumber":86,"Velocity":44,"Duration":681661,"SoundDuration":681661,"Delta":14742453},{"NoteNumber":69,"Velocity":38,"Duration":167242,"SoundDuration":167242,"Delta":14905976},{"NoteNumber":71,"Velocity":43,"Duration":162619,"SoundDuration":162619,"Delta":15073219},{"NoteNumber":72,"Velocity":38,"Duration":138069,"SoundDuration":138069,"Delta":15235838},{"NoteNumber":72,"Velocity":41,"Duration":86924,"SoundDuration":86924,"Delta":15381080},{"NoteNumber":62,"Velocity":40,"Duration":351123,"SoundDuration":351123,"Delta":15424114},{"NoteNumber":71,"Velocity":48,"Duration":351123,"SoundDuration":351123,"Delta":15424114},{"NoteNumber":43,"Velocity":28,"Duration":1395367,"SoundDuration":1395367,"Delta":15424114},{"NoteNumber":50,"Velocity":34,"Duration":1395367,"SoundDuration":1395367,"Delta":15424114},{"NoteNumber":69,"Velocity":39,"Duration":170998,"SoundDuration":170998,"Delta":15775238},{"NoteNumber":71,"Velocity":33,"Duration":170998,"SoundDuration":170998,"Delta":15946237},{"NoteNumber":86,"Velocity":42,"Duration":702246,"SoundDuration":702246,"Delta":16117235},{"NoteNumber":67,"Velocity":42,"Duration":526685,"SoundDuration":526685,"Delta":16117235},{"NoteNumber":59,"Velocity":36,"Duration":526685,"SoundDuration":526685,"Delta":16117235},{"NoteNumber":64,"Velocity":44,"Duration":175561,"SoundDuration":175561,"Delta":16643920},{"NoteNumber":69,"Velocity":48,"Duration":356802,"SoundDuration":356802,"Delta":16819482},{"NoteNumber":60,"Velocity":40,"Duration":356802,"SoundDuration":356802,"Delta":16819482},{"NoteNumber":50,"Velocity":32,"Duration":1376797,"SoundDuration":1376797,"Delta":16819482},{"NoteNumber":43,"Velocity":27,"Duration":1376797,"SoundDuration":1376797,"Delta":16819482},{"NoteNumber":69,"Velocity":42,"Duration":338332,"SoundDuration":338332,"Delta":17176285},{"NoteNumber":60,"Velocity":40,"Duration":163523,"SoundDuration":163523,"Delta":17514618},{"NoteNumber":69,"Velocity":47,"Duration":163523,"SoundDuration":163523,"Delta":17514618},{"NoteNumber":86,"Velocity":44,"Duration":681661,"SoundDuration":681661,"Delta":17514618},{"NoteNumber":71,"Velocity":38,"Duration":167242,"SoundDuration":167242,"Delta":17678142},{"NoteNumber":72,"Velocity":43,"Duration":162619,"SoundDuration":162619,"Delta":17845384},{"NoteNumber":74,"Velocity":38,"Duration":138069,"SoundDuration":138069,"Delta":18008004},{"NoteNumber":74,"Velocity":41,"Duration":86924,"SoundDuration":86924,"Delta":18153246},{"NoteNumber":72,"Velocity":48,"Duration":351123,"SoundDuration":351123,"Delta":18196280},{"NoteNumber":64,"Velocity":40,"Duration":351123,"SoundDuration":351123,"Delta":18196280},{"NoteNumber":50,"Velocity":34,"Duration":1413476,"SoundDuration":1413476,"Delta":18196280},{"NoteNumber":43,"Velocity":28,"Duration":1413476,"SoundDuration":1413476,"Delta":18196280},{"NoteNumber":71,"Velocity":38,"Duration":170998,"SoundDuration":170998,"Delta":18547403},{"NoteNumber":72,"Velocity":36,"Duration":170998,"SoundDuration":170998,"Delta":18718402},{"NoteNumber":86,"Velocity":42,"Duration":720355,"SoundDuration":720355,"Delta":18889401},{"NoteNumber":60,"Velocity":36,"Duration":538757,"SoundDuration":538757,"Delta":18889401},{"NoteNumber":69,"Velocity":42,"Duration":538757,"SoundDuration":538757,"Delta":18889401},{"NoteNumber":67,"Velocity":44,"Duration":181598,"SoundDuration":181598,"Delta":19428158},{"NoteNumber":60,"Velocity":40,"Duration":356802,"SoundDuration":356802,"Delta":19609756},{"NoteNumber":66,"Velocity":48,"Duration":356802,"SoundDuration":356802,"Delta":19609756},{"NoteNumber":43,"Velocity":27,"Duration":1401779,"SoundDuration":1401779,"Delta":19609756},{"NoteNumber":50,"Velocity":32,"Duration":1401779,"SoundDuration":1401779,"Delta":19609756},{"NoteNumber":66,"Velocity":45,"Duration":301239,"SoundDuration":301239,"Delta":19966559},{"NoteNumber":67,"Velocity":40,"Duration":43034,"SoundDuration":43034,"Delta":20267799},{"NoteNumber":60,"Velocity":40,"Duration":170145,"SoundDuration":170145,"Delta":20310833},{"NoteNumber":66,"Velocity":47,"Duration":170145,"SoundDuration":170145,"Delta":20310833},{"NoteNumber":86,"Velocity":44,"Duration":700703,"SoundDuration":700703,"Delta":20310833},{"NoteNumber":62,"Velocity":38,"Duration":170145,"SoundDuration":170145,"Delta":20480978},{"NoteNumber":64,"Velocity":43,"Duration":172136,"SoundDuration":172136,"Delta":20651123},{"NoteNumber":66,"Velocity":38,"Duration":188275,"SoundDuration":188275,"Delta":20823260},{"NoteNumber":67,"Velocity":48,"Duration":705052,"SoundDuration":705052,"Delta":21011536},{"NoteNumber":59,"Velocity":40,"Duration":705052,"SoundDuration":705052,"Delta":21011536},{"NoteNumber":43,"Velocity":27,"Duration":1408018,"SoundDuration":1408018,"Delta":21011536},{"NoteNumber":50,"Velocity":32,"Duration":1408018,"SoundDuration":1408018,"Delta":21011536},{"NoteNumber":86,"Velocity":44,"Duration":702965,"SoundDuration":702965,"Delta":21716589},{"NoteNumber":62,"Velocity":46,"Duration":174175,"SoundDuration":174175,"Delta":22245379},{"NoteNumber":67,"Velocity":51,"Duration":356802,"SoundDuration":356802,"Delta":22419554},{"NoteNumber":59,"Velocity":43,"Duration":356802,"SoundDuration":356802,"Delta":22419554},{"NoteNumber":43,"Velocity":28,"Duration":1377701,"SoundDuration":1377701,"Delta":22419554},{"NoteNumber":50,"Velocity":34,"Duration":1377701,"SoundDuration":1377701,"Delta":22419554},{"NoteNumber":67,"Velocity":44,"Duration":338332,"SoundDuration":338332,"Delta":22776357},{"NoteNumber":59,"Velocity":42,"Duration":163523,"SoundDuration":163523,"Delta":23114690},{"NoteNumber":77,"Velocity":45,"Duration":682565,"SoundDuration":682565,"Delta":23114690},{"NoteNumber":67,"Velocity":50,"Duration":163523,"SoundDuration":163523,"Delta":23114690},{"NoteNumber":69,"Velocity":40,"Duration":167242,"SoundDuration":167242,"Delta":23278214},{"NoteNumber":71,"Velocity":45,"Duration":163523,"SoundDuration":163523,"Delta":23445457},{"NoteNumber":72,"Velocity":37,"Duration":138069,"SoundDuration":138069,"Delta":23608980},{"NoteNumber":72,"Velocity":44,"Duration":86924,"SoundDuration":86924,"Delta":23754222},{"NoteNumber":71,"Velocity":51,"Duration":351123,"SoundDuration":351123,"Delta":23797256},{"NoteNumber":62,"Velocity":43,"Duration":351123,"SoundDuration":351123,"Delta":23797256},{"NoteNumber":43,"Velocity":30,"Duration":1385722,"SoundDuration":1385722,"Delta":23797256},{"NoteNumber":50,"Velocity":36,"Duration":1385722,"SoundDuration":1385722,"Delta":23797256},{"NoteNumber":69,"Velocity":41,"Duration":170998,"SoundDuration":170998,"Delta":24148380},{"NoteNumber":71,"Velocity":37,"Duration":170998,"SoundDuration":170998,"Delta":24319378},{"NoteNumber":59,"Velocity":37,"Duration":519450,"SoundDuration":519450,"Delta":24490377},{"NoteNumber":67,"Velocity":45,"Duration":519450,"SoundDuration":519450,"Delta":24490377},{"NoteNumber":77,"Velocity":42,"Duration":692600,"SoundDuration":692600,"Delta":24490377},{"NoteNumber":64,"Velocity":47,"Duration":173150,"SoundDuration":173150,"Delta":25009828},{"NoteNumber":69,"Velocity":51,"Duration":342270,"SoundDuration":342270,"Delta":25182978},{"NoteNumber":60,"Velocity":43,"Duration":342270,"SoundDuration":342270,"Delta":25182978},{"NoteNumber":52,"Velocity":34,"Duration":1355472,"SoundDuration":1355472,"Delta":25182978},{"NoteNumber":43,"Velocity":28,"Duration":1355472,"SoundDuration":1355472,"Delta":25182978},{"NoteNumber":69,"Velocity":45,"Duration":329670,"SoundDuration":329670,"Delta":25525249},{"NoteNumber":60,"Velocity":44,"Duration":162619,"SoundDuration":162619,"Delta":25854919},{"NoteNumber":76,"Velocity":46,"Duration":683531,"SoundDuration":683531,"Delta":25854919},{"NoteNumber":69,"Velocity":51,"Duration":162619,"SoundDuration":162619,"Delta":25854919},{"NoteNumber":71,"Velocity":42,"Duration":168199,"SoundDuration":168199,"Delta":26017538},{"NoteNumber":72,"Velocity":48,"Duration":164437,"SoundDuration":164437,"Delta":26185738},{"NoteNumber":74,"Velocity":43,"Duration":138069,"SoundDuration":138069,"Delta":26350175},{"NoteNumber":74,"Velocity":47,"Duration":86321,"SoundDuration":86321,"Delta":26495417},{"NoteNumber":72,"Velocity":54,"Duration":346300,"SoundDuration":346300,"Delta":26538451},{"NoteNumber":64,"Velocity":46,"Duration":346300,"SoundDuration":346300,"Delta":26538451},{"NoteNumber":43,"Velocity":32,"Duration":1351693,"SoundDuration":1351693,"Delta":26538451},{"NoteNumber":52,"Velocity":38,"Duration":1351693,"SoundDuration":1351693,"Delta":26538451},{"NoteNumber":71,"Velocity":45,"Duration":166297,"SoundDuration":166297,"Delta":26884752},{"NoteNumber":72,"Velocity":38,"Duration":166297,"SoundDuration":166297,"Delta":27051049},{"NoteNumber":60,"Velocity":42,"Duration":507053,"SoundDuration":507053,"Delta":27217346},{"NoteNumber":69,"Velocity":51,"Duration":507053,"SoundDuration":507053,"Delta":27217346},{"NoteNumber":76,"Velocity":47,"Duration":672799,"SoundDuration":672799,"Delta":27217346},{"NoteNumber":67,"Velocity":56,"Duration":165745,"SoundDuration":165745,"Delta":27724399},{"NoteNumber":72,"Velocity":62,"Duration":350426,"SoundDuration":350426,"Delta":27890145},{"NoteNumber":64,"Velocity":52,"Duration":350426,"SoundDuration":350426,"Delta":27890145},{"NoteNumber":50,"Velocity":42,"Duration":1363628,"SoundDuration":1363628,"Delta":27890145},{"NoteNumber":43,"Velocity":35,"Duration":1363628,"SoundDuration":1363628,"Delta":27890145},{"NoteNumber":72,"Velocity":55,"Duration":329670,"SoundDuration":329670,"Delta":28240571},{"NoteNumber":64,"Velocity":53,"Duration":162619,"SoundDuration":162619,"Delta":28570242},{"NoteNumber":81,"Velocity":55,"Duration":683531,"SoundDuration":683531,"Delta":28570242},{"NoteNumber":72,"Velocity":63,"Duration":162619,"SoundDuration":162619,"Delta":28570242},{"NoteNumber":74,"Velocity":51,"Duration":168199,"SoundDuration":168199,"Delta":28732861},{"NoteNumber":76,"Velocity":58,"Duration":164437,"SoundDuration":164437,"Delta":28901060},{"NoteNumber":78,"Velocity":52,"Duration":138069,"SoundDuration":138069,"Delta":29065498},{"NoteNumber":78,"Velocity":56,"Duration":85817,"SoundDuration":85817,"Delta":29210740},{"NoteNumber":76,"Velocity":66,"Duration":342270,"SoundDuration":342270,"Delta":29253774},{"NoteNumber":67,"Velocity":55,"Duration":342270,"SoundDuration":342270,"Delta":29253774},{"NoteNumber":43,"Velocity":38,"Duration":1364967,"SoundDuration":1364967,"Delta":29253774},{"NoteNumber":50,"Velocity":46,"Duration":1364967,"SoundDuration":1364967,"Delta":29253774},{"NoteNumber":74,"Velocity":54,"Duration":165362,"SoundDuration":165362,"Delta":29596044},{"NoteNumber":76,"Velocity":50,"Duration":165362,"SoundDuration":165362,"Delta":29761406},{"NoteNumber":66,"Velocity":50,"Duration":519835,"SoundDuration":519835,"Delta":29926769},{"NoteNumber":72,"Velocity":61,"Duration":519835,"SoundDuration":519835,"Delta":29926769},{"NoteNumber":81,"Velocity":55,"Duration":691971,"SoundDuration":691971,"Delta":29926769},{"NoteNumber":71,"Velocity":67,"Duration":172136,"SoundDuration":172136,"Delta":30446604},{"NoteNumber":79,"Velocity":74,"Duration":354652,"SoundDuration":354652,"Delta":30618741},{"NoteNumber":71,"Velocity":62,"Duration":354652,"SoundDuration":354652,"Delta":30618741},{"NoteNumber":50,"Velocity":53,"Duration":1366052,"SoundDuration":1366052,"Delta":30618741},{"NoteNumber":43,"Velocity":44,"Duration":1366052,"SoundDuration":1366052,"Delta":30618741},{"NoteNumber":79,"Velocity":68,"Duration":327868,"SoundDuration":327868,"Delta":30973393},{"NoteNumber":71,"Velocity":65,"Duration":162619,"SoundDuration":162619,"Delta":31301262},{"NoteNumber":86,"Velocity":72,"Duration":683531,"SoundDuration":683531,"Delta":31301262},{"NoteNumber":79,"Velocity":76,"Duration":162619,"SoundDuration":162619,"Delta":31301262},{"NoteNumber":81,"Velocity":62,"Duration":168199,"SoundDuration":168199,"Delta":31463881},{"NoteNumber":83,"Velocity":70,"Duration":164437,"SoundDuration":164437,"Delta":31632080},{"NoteNumber":84,"Velocity":62,"Duration":138069,"SoundDuration":138069,"Delta":31796518},{"NoteNumber":84,"Velocity":67,"Duration":86924,"SoundDuration":86924,"Delta":31941760},{"NoteNumber":83,"Velocity":79,"Duration":351123,"SoundDuration":351123,"Delta":31984794},{"NoteNumber":74,"Velocity":66,"Duration":351123,"SoundDuration":351123,"Delta":31984794},{"NoteNumber":43,"Velocity":46,"Duration":1413476,"SoundDuration":1413476,"Delta":31984794},{"NoteNumber":50,"Velocity":55,"Duration":1413476,"SoundDuration":1413476,"Delta":31984794},{"NoteNumber":81,"Velocity":73,"Duration":170998,"SoundDuration":170998,"Delta":32335917},{"NoteNumber":83,"Velocity":69,"Duration":170998,"SoundDuration":170998,"Delta":32506916},{"NoteNumber":71,"Velocity":69,"Duration":538757,"SoundDuration":538757,"Delta":32677915},{"NoteNumber":79,"Velocity":84,"Duration":538757,"SoundDuration":538757,"Delta":32677915},{"NoteNumber":91,"Velocity":81,"Duration":720355,"SoundDuration":720355,"Delta":32677915},{"NoteNumber":62,"Velocity":64,"Duration":181598,"SoundDuration":181598,"Delta":33216672},{"NoteNumber":67,"Velocity":69,"Duration":356802,"SoundDuration":356802,"Delta":33398270},{"NoteNumber":59,"Velocity":57,"Duration":356802,"SoundDuration":356802,"Delta":33398270},{"NoteNumber":43,"Velocity":37,"Duration":1360956,"SoundDuration":1360956,"Delta":33398270},{"NoteNumber":50,"Velocity":46,"Duration":1360956,"SoundDuration":1360956,"Delta":33398270},{"NoteNumber":67,"Velocity":59,"Duration":329670,"SoundDuration":329670,"Delta":33755073},{"NoteNumber":59,"Velocity":56,"Duration":163523,"SoundDuration":163523,"Delta":34084744},{"NoteNumber":77,"Velocity":59,"Duration":674482,"SoundDuration":674482,"Delta":34084744},{"NoteNumber":67,"Velocity":68,"Duration":163523,"SoundDuration":163523,"Delta":34084744},{"NoteNumber":69,"Velocity":54,"Duration":167242,"SoundDuration":167242,"Delta":34248267},{"NoteNumber":71,"Velocity":60,"Duration":155440,"SoundDuration":155440,"Delta":34415510},{"NoteNumber":72,"Velocity":54,"Duration":138069,"SoundDuration":138069,"Delta":34570951},{"NoteNumber":72,"Velocity":59,"Duration":86924,"SoundDuration":86924,"Delta":34716193},{"NoteNumber":71,"Velocity":69,"Duration":351123,"SoundDuration":351123,"Delta":34759227},{"NoteNumber":62,"Velocity":57,"Duration":351123,"SoundDuration":351123,"Delta":34759227},{"NoteNumber":43,"Velocity":40,"Duration":1380803,"SoundDuration":1380803,"Delta":34759227},{"NoteNumber":50,"Velocity":48,"Duration":1380803,"SoundDuration":1380803,"Delta":34759227},{"NoteNumber":69,"Velocity":53,"Duration":168539,"SoundDuration":168539,"Delta":35110350},{"NoteNumber":71,"Velocity":51,"Duration":168539,"SoundDuration":168539,"Delta":35278889},{"NoteNumber":59,"Velocity":51,"Duration":519450,"SoundDuration":519450,"Delta":35447429},{"NoteNumber":67,"Velocity":60,"Duration":519450,"SoundDuration":519450,"Delta":35447429},{"NoteNumber":77,"Velocity":56,"Duration":692601,"SoundDuration":692601,"Delta":35447429},{"NoteNumber":64,"Velocity":64,"Duration":173150,"SoundDuration":173150,"Delta":35966879},{"NoteNumber":69,"Velocity":69,"Duration":342270,"SoundDuration":342270,"Delta":36140030},{"NoteNumber":60,"Velocity":57,"Duration":342270,"SoundDuration":342270,"Delta":36140030},{"NoteNumber":52,"Velocity":46,"Duration":1347285,"SoundDuration":1347285,"Delta":36140030},{"NoteNumber":43,"Velocity":37,"Duration":1347285,"SoundDuration":1347285,"Delta":36140030},{"NoteNumber":69,"Velocity":60,"Duration":329670,"SoundDuration":329670,"Delta":36482300},{"NoteNumber":60,"Velocity":59,"Duration":162619,"SoundDuration":162619,"Delta":36811971},{"NoteNumber":76,"Velocity":61,"Duration":675344,"SoundDuration":675344,"Delta":36811971},{"NoteNumber":69,"Velocity":69,"Duration":162619,"SoundDuration":162619,"Delta":36811971},{"NoteNumber":71,"Velocity":56,"Duration":168199,"SoundDuration":168199,"Delta":36974590},{"NoteNumber":72,"Velocity":65,"Duration":156250,"SoundDuration":156250,"Delta":37142789},{"NoteNumber":74,"Velocity":57,"Duration":138069,"SoundDuration":138069,"Delta":37299039},{"NoteNumber":74,"Velocity":62,"Duration":86321,"SoundDuration":86321,"Delta":37444281},{"NoteNumber":72,"Velocity":72,"Duration":346300,"SoundDuration":346300,"Delta":37487315},{"NoteNumber":64,"Velocity":61,"Duration":346300,"SoundDuration":346300,"Delta":37487315},{"NoteNumber":43,"Velocity":43,"Duration":1367861,"SoundDuration":1367861,"Delta":37487315},{"NoteNumber":52,"Velocity":52,"Duration":1367861,"SoundDuration":1367861,"Delta":37487315},{"NoteNumber":71,"Velocity":60,"Duration":166297,"SoundDuration":166297,"Delta":37833616},{"NoteNumber":72,"Velocity":55,"Duration":166297,"SoundDuration":166297,"Delta":37999913},{"NoteNumber":60,"Velocity":56,"Duration":517832,"SoundDuration":517832,"Delta":38166210},{"NoteNumber":69,"Velocity":69,"Duration":517832,"SoundDuration":517832,"Delta":38166210},{"NoteNumber":76,"Velocity":64,"Duration":688967,"SoundDuration":688967,"Delta":38166210},{"NoteNumber":67,"Velocity":65,"Duration":171135,"SoundDuration":171135,"Delta":38684042},{"NoteNumber":72,"Velocity":71,"Duration":350426,"SoundDuration":350426,"Delta":38855177},{"NoteNumber":64,"Velocity":59,"Duration":350426,"SoundDuration":350426,"Delta":38855177},{"NoteNumber":50,"Velocity":48,"Duration":1366584,"SoundDuration":1366584,"Delta":38855177},{"NoteNumber":43,"Velocity":40,"Duration":1366584,"SoundDuration":1366584,"Delta":38855177},{"NoteNumber":72,"Velocity":63,"Duration":338332,"SoundDuration":338332,"Delta":39205604},{"NoteNumber":64,"Velocity":61,"Duration":162619,"SoundDuration":162619,"Delta":39543937},{"NoteNumber":81,"Velocity":65,"Duration":677824,"SoundDuration":677824,"Delta":39543937},{"NoteNumber":72,"Velocity":72,"Duration":162619,"SoundDuration":162619,"Delta":39543937},{"NoteNumber":74,"Velocity":58,"Duration":168199,"SoundDuration":168199,"Delta":39706556},{"NoteNumber":76,"Velocity":67,"Duration":158730,"SoundDuration":158730,"Delta":39874755},{"NoteNumber":78,"Velocity":59,"Duration":138069,"SoundDuration":138069,"Delta":40033485},{"NoteNumber":78,"Velocity":65,"Duration":85818,"SoundDuration":85818,"Delta":40178727},{"NoteNumber":76,"Velocity":75,"Duration":342270,"SoundDuration":342270,"Delta":40221761},{"NoteNumber":67,"Velocity":63,"Duration":342270,"SoundDuration":342270,"Delta":40221761},{"NoteNumber":43,"Velocity":44,"Duration":1364967,"SoundDuration":1364967,"Delta":40221761},{"NoteNumber":50,"Velocity":53,"Duration":1364967,"SoundDuration":1364967,"Delta":40221761},{"NoteNumber":74,"Velocity":62,"Duration":165362,"SoundDuration":165362,"Delta":40564032},{"NoteNumber":76,"Velocity":57,"Duration":165362,"SoundDuration":165362,"Delta":40729394},{"NoteNumber":66,"Velocity":57,"Duration":519835,"SoundDuration":519835,"Delta":40894756},{"NoteNumber":72,"Velocity":70,"Duration":519835,"SoundDuration":519835,"Delta":40894756},{"NoteNumber":81,"Velocity":65,"Duration":691971,"SoundDuration":691971,"Delta":40894756},{"NoteNumber":74,"Velocity":68,"Duration":172136,"SoundDuration":172136,"Delta":41414592},{"NoteNumber":79,"Velocity":75,"Duration":354652,"SoundDuration":354652,"Delta":41586728},{"NoteNumber":71,"Velocity":63,"Duration":354652,"SoundDuration":354652,"Delta":41586728},{"NoteNumber":50,"Velocity":54,"Duration":1376516,"SoundDuration":1376516,"Delta":41586728},{"NoteNumber":43,"Velocity":45,"Duration":1376516,"SoundDuration":1376516,"Delta":41586728},{"NoteNumber":79,"Velocity":70,"Duration":338332,"SoundDuration":338332,"Delta":41941380},{"NoteNumber":71,"Velocity":67,"Duration":162619,"SoundDuration":162619,"Delta":42279713},{"NoteNumber":86,"Velocity":70,"Duration":683531,"SoundDuration":683531,"Delta":42279713},{"NoteNumber":79,"Velocity":78,"Duration":162619,"SoundDuration":162619,"Delta":42279713},{"NoteNumber":81,"Velocity":63,"Duration":168199,"SoundDuration":168199,"Delta":42442333},{"NoteNumber":83,"Velocity":69,"Duration":164437,"SoundDuration":164437,"Delta":42610532},{"NoteNumber":84,"Velocity":63,"Duration":138069,"SoundDuration":138069,"Delta":42774969},{"NoteNumber":84,"Velocity":68,"Duration":86924,"SoundDuration":86924,"Delta":42920211},{"NoteNumber":83,"Velocity":81,"Duration":351123,"SoundDuration":351123,"Delta":42963245},{"NoteNumber":74,"Velocity":68,"Duration":351123,"SoundDuration":351123,"Delta":42963245},{"NoteNumber":43,"Velocity":48,"Duration":1413476,"SoundDuration":1413476,"Delta":42963245},{"NoteNumber":50,"Velocity":55,"Duration":1413476,"SoundDuration":1413476,"Delta":42963245},{"NoteNumber":81,"Velocity":75,"Duration":170998,"SoundDuration":170998,"Delta":43314369},{"NoteNumber":83,"Velocity":71,"Duration":170998,"SoundDuration":170998,"Delta":43485368},{"NoteNumber":71,"Velocity":71,"Duration":720355,"SoundDuration":720355,"Delta":43656366},{"NoteNumber":79,"Velocity":87,"Duration":720355,"SoundDuration":720355,"Delta":43656366},{"NoteNumber":91,"Velocity":78,"Duration":720355,"SoundDuration":720355,"Delta":43656366},{"NoteNumber":57,"Velocity":71,"Duration":172136,"SoundDuration":172136,"Delta":44376722},{"NoteNumber":62,"Velocity":62,"Duration":172136,"SoundDuration":172136,"Delta":44376722},{"NoteNumber":43,"Velocity":39,"Duration":1408417,"SoundDuration":1408417,"Delta":44376722},{"NoteNumber":50,"Velocity":47,"Duration":1408417,"SoundDuration":1408417,"Delta":44376722},{"NoteNumber":59,"Velocity":56,"Duration":172136,"SoundDuration":172136,"Delta":44548859},{"NoteNumber":60,"Velocity":59,"Duration":172136,"SoundDuration":172136,"Delta":44720996},{"NoteNumber":62,"Velocity":54,"Duration":178401,"SoundDuration":178401,"Delta":44893132},{"NoteNumber":74,"Velocity":68,"Duration":713605,"SoundDuration":713605,"Delta":45071534},{"NoteNumber":64,"Velocity":59,"Duration":342857,"SoundDuration":342857,"Delta":45785140},{"NoteNumber":72,"Velocity":70,"Duration":342857,"SoundDuration":342857,"Delta":45785140},{"NoteNumber":43,"Velocity":47,"Duration":342857,"SoundDuration":342857,"Delta":45785140},{"NoteNumber":62,"Velocity":52,"Duration":179490,"SoundDuration":179490,"Delta":46127997},{"NoteNumber":71,"Velocity":62,"Duration":179490,"SoundDuration":179490,"Delta":46127997},{"NoteNumber":43,"Velocity":40,"Duration":179490,"SoundDuration":179490,"Delta":46127997},{"NoteNumber":64,"Velocity":46,"Duration":179490,"SoundDuration":179490,"Delta":46307487},{"NoteNumber":72,"Velocity":55,"Duration":179490,"SoundDuration":179490,"Delta":46307487},{"NoteNumber":50,"Velocity":40,"Duration":179490,"SoundDuration":179490,"Delta":46307487},{"NoteNumber":60,"Velocity":52,"Duration":709304,"SoundDuration":709304,"Delta":46486977},{"NoteNumber":69,"Velocity":62,"Duration":709304,"SoundDuration":709304,"Delta":46486977},{"NoteNumber":43,"Velocity":47,"Duration":354652,"SoundDuration":354652,"Delta":46486977},{"NoteNumber":38,"Velocity":41,"Duration":354652,"SoundDuration":354652,"Delta":46841629},{"NoteNumber":57,"Velocity":71,"Duration":172136,"SoundDuration":172136,"Delta":47196281},{"NoteNumber":62,"Velocity":62,"Duration":172136,"SoundDuration":172136,"Delta":47196281},{"NoteNumber":43,"Velocity":39,"Duration":1408417,"SoundDuration":1408417,"Delta":47196281},{"NoteNumber":50,"Velocity":47,"Duration":1408417,"SoundDuration":1408417,"Delta":47196281},{"NoteNumber":59,"Velocity":58,"Duration":172136,"SoundDuration":172136,"Delta":47368418},{"NoteNumber":60,"Velocity":59,"Duration":172136,"SoundDuration":172136,"Delta":47540555},{"NoteNumber":62,"Velocity":53,"Duration":178401,"SoundDuration":178401,"Delta":47712692},{"NoteNumber":74,"Velocity":68,"Duration":713605,"SoundDuration":713605,"Delta":47891093},{"NoteNumber":62,"Velocity":59,"Duration":340909,"SoundDuration":340909,"Delta":48604699},{"NoteNumber":71,"Velocity":70,"Duration":340909,"SoundDuration":340909,"Delta":48604699},{"NoteNumber":43,"Velocity":47,"Duration":340909,"SoundDuration":340909,"Delta":48604699},{"NoteNumber":60,"Velocity":52,"Duration":179490,"SoundDuration":179490,"Delta":48945608},{"NoteNumber":69,"Velocity":62,"Duration":179490,"SoundDuration":179490,"Delta":48945608},{"NoteNumber":43,"Velocity":40,"Duration":179490,"SoundDuration":179490,"Delta":48945608},{"NoteNumber":62,"Velocity":46,"Duration":179490,"SoundDuration":179490,"Delta":49125098},{"NoteNumber":71,"Velocity":55,"Duration":179490,"SoundDuration":179490,"Delta":49125098},{"NoteNumber":50,"Velocity":40,"Duration":179490,"SoundDuration":179490,"Delta":49125098},{"NoteNumber":59,"Velocity":52,"Duration":709304,"SoundDuration":709304,"Delta":49304589},{"NoteNumber":67,"Velocity":62,"Duration":709304,"SoundDuration":709304,"Delta":49304589},{"NoteNumber":43,"Velocity":40,"Duration":354652,"SoundDuration":354652,"Delta":49304589},{"NoteNumber":55,"Velocity":47,"Duration":354652,"SoundDuration":354652,"Delta":49304589},{"NoteNumber":38,"Velocity":39,"Duration":354652,"SoundDuration":354652,"Delta":49659241},{"NoteNumber":57,"Velocity":58,"Duration":172136,"SoundDuration":172136,"Delta":50013893},{"NoteNumber":62,"Velocity":51,"Duration":172136,"SoundDuration":172136,"Delta":50013893},{"NoteNumber":43,"Velocity":32,"Duration":1408417,"SoundDuration":1408417,"Delta":50013893},{"NoteNumber":50,"Velocity":38,"Duration":1408417,"SoundDuration":1408417,"Delta":50013893},{"NoteNumber":59,"Velocity":47,"Duration":172136,"SoundDuration":172136,"Delta":50186029},{"NoteNumber":60,"Velocity":48,"Duration":172136,"SoundDuration":172136,"Delta":50358166},{"NoteNumber":62,"Velocity":45,"Duration":178401,"SoundDuration":178401,"Delta":50530303},{"NoteNumber":74,"Velocity":55,"Duration":713605,"SoundDuration":713605,"Delta":50708704},{"NoteNumber":64,"Velocity":48,"Duration":342857,"SoundDuration":342857,"Delta":51422310},{"NoteNumber":72,"Velocity":57,"Duration":342857,"SoundDuration":342857,"Delta":51422310},{"NoteNumber":43,"Velocity":38,"Duration":342857,"SoundDuration":342857,"Delta":51422310},{"NoteNumber":62,"Velocity":43,"Duration":179490,"SoundDuration":179490,"Delta":51765167},{"NoteNumber":71,"Velocity":51,"Duration":179490,"SoundDuration":179490,"Delta":51765167},{"NoteNumber":43,"Velocity":33,"Duration":179490,"SoundDuration":179490,"Delta":51765167},{"NoteNumber":64,"Velocity":37,"Duration":179490,"SoundDuration":179490,"Delta":51944658},{"NoteNumber":72,"Velocity":45,"Duration":179490,"SoundDuration":179490,"Delta":51944658},{"NoteNumber":50,"Velocity":33,"Duration":179490,"SoundDuration":179490,"Delta":51944658},{"NoteNumber":60,"Velocity":43,"Duration":693635,"SoundDuration":693635,"Delta":52124148},{"NoteNumber":69,"Velocity":51,"Duration":693635,"SoundDuration":693635,"Delta":52124148},{"NoteNumber":43,"Velocity":38,"Duration":354652,"SoundDuration":354652,"Delta":52124148},{"NoteNumber":38,"Velocity":33,"Duration":338982,"SoundDuration":338982,"Delta":52478800},{"NoteNumber":57,"Velocity":55,"Duration":172136,"SoundDuration":172136,"Delta":52817783},{"NoteNumber":62,"Velocity":48,"Duration":172136,"SoundDuration":172136,"Delta":52817783},{"NoteNumber":43,"Velocity":30,"Duration":1408417,"SoundDuration":1408417,"Delta":52817783},{"NoteNumber":50,"Velocity":36,"Duration":1408417,"SoundDuration":1408417,"Delta":52817783},{"NoteNumber":59,"Velocity":40,"Duration":172136,"SoundDuration":172136,"Delta":52989920},{"NoteNumber":60,"Velocity":45,"Duration":172136,"SoundDuration":172136,"Delta":53162056},{"NoteNumber":62,"Velocity":40,"Duration":178401,"SoundDuration":178401,"Delta":53334193},{"NoteNumber":74,"Velocity":52,"Duration":713605,"SoundDuration":713605,"Delta":53512595},{"NoteNumber":62,"Velocity":45,"Duration":350426,"SoundDuration":350426,"Delta":54226201},{"NoteNumber":71,"Velocity":54,"Duration":350426,"SoundDuration":350426,"Delta":54226201},{"NoteNumber":43,"Velocity":36,"Duration":350426,"SoundDuration":350426,"Delta":54226201},{"NoteNumber":60,"Velocity":40,"Duration":179490,"SoundDuration":179490,"Delta":54576627},{"NoteNumber":69,"Velocity":48,"Duration":179490,"SoundDuration":179490,"Delta":54576627},{"NoteNumber":43,"Velocity":31,"Duration":179490,"SoundDuration":179490,"Delta":54576627},{"NoteNumber":62,"Velocity":35,"Duration":179490,"SoundDuration":179490,"Delta":54756117},{"NoteNumber":71,"Velocity":42,"Duration":179490,"SoundDuration":179490,"Delta":54756117},{"NoteNumber":50,"Velocity":31,"Duration":179490,"SoundDuration":179490,"Delta":54756117},{"NoteNumber":59,"Velocity":40,"Duration":354652,"SoundDuration":354652,"Delta":54935608},{"NoteNumber":67,"Velocity":48,"Duration":354652,"SoundDuration":354652,"Delta":54935608},{"NoteNumber":43,"Velocity":31,"Duration":354652,"SoundDuration":354652,"Delta":54935608},{"NoteNumber":62,"Velocity":34,"Duration":370232,"SoundDuration":370232,"Delta":55290260},{"NoteNumber":71,"Velocity":40,"Duration":370232,"SoundDuration":370232,"Delta":55290260},{"NoteNumber":38,"Velocity":29,"Duration":370232,"SoundDuration":370232,"Delta":55290260},{"NoteNumber":60,"Velocity":39,"Duration":377358,"SoundDuration":377358,"Delta":55660493},{"NoteNumber":69,"Velocity":46,"Duration":377358,"SoundDuration":377358,"Delta":55660493},{"NoteNumber":43,"Velocity":30,"Duration":1510905,"SoundDuration":1510905,"Delta":55660493},{"NoteNumber":50,"Velocity":36,"Duration":1510905,"SoundDuration":1510905,"Delta":55660493},{"NoteNumber":59,"Velocity":36,"Duration":397351,"SoundDuration":397351,"Delta":56037851},{"NoteNumber":67,"Velocity":43,"Duration":397351,"SoundDuration":397351,"Delta":56037851},{"NoteNumber":79,"Velocity":48,"Duration":736195,"SoundDuration":736195,"Delta":56435202},{"NoteNumber":59,"Velocity":40,"Duration":736195,"SoundDuration":736195,"Delta":56435202},{"NoteNumber":67,"Velocity":48,"Duration":736195,"SoundDuration":736195,"Delta":56435202},{"NoteNumber":59,"Velocity":34,"Duration":750000,"SoundDuration":750000,"Delta":57171398},{"NoteNumber":62,"Velocity":40,"Duration":750000,"SoundDuration":750000,"Delta":57171398},{"NoteNumber":43,"Velocity":24,"Duration":1481707,"SoundDuration":1481707,"Delta":57171398},{"NoteNumber":50,"Velocity":28,"Duration":1481707,"SoundDuration":1481707,"Delta":57171398},{"NoteNumber":79,"Velocity":48,"Duration":731707,"SoundDuration":731707,"Delta":57921398},{"NoteNumber":59,"Velocity":33,"Duration":736195,"SoundDuration":736195,"Delta":58653105},{"NoteNumber":62,"Velocity":39,"Duration":736195,"SoundDuration":736195,"Delta":58653105},{"NoteNumber":43,"Velocity":24,"Duration":2218581,"SoundDuration":2218581,"Delta":58653105},{"NoteNumber":50,"Velocity":28,"Duration":2218581,"SoundDuration":2218581,"Delta":58653105},{"NoteNumber":79,"Velocity":48,"Duration":1482385,"SoundDuration":1482385,"Delta":59389301},{"NoteNumber":59,"Velocity":33,"Duration":722892,"SoundDuration":722892,"Delta":60148795},{"NoteNumber":62,"Velocity":39,"Duration":722892,"SoundDuration":722892,"Delta":60148795},{"NoteNumber":78,"Velocity":45,"Duration":210304,"SoundDuration":210304,"Delta":60871687},{"NoteNumber":76,"Velocity":41,"Duration":213795,"SoundDuration":213795,"Delta":61051689},{"NoteNumber":74,"Velocity":44,"Duration":216818,"SoundDuration":216818,"Delta":61234620},{"NoteNumber":72,"Velocity":40,"Duration":220531,"SoundDuration":220531,"Delta":61420189},{"NoteNumber":71,"Velocity":48,"Duration":764330,"SoundDuration":764330,"Delta":61608873},{"NoteNumber":60,"Velocity":34,"Duration":764330,"SoundDuration":764330,"Delta":62373204},{"NoteNumber":66,"Velocity":34,"Duration":764330,"SoundDuration":764330,"Delta":62373204},{"NoteNumber":69,"Velocity":41,"Duration":764330,"SoundDuration":764330,"Delta":62373204},{"NoteNumber":38,"Velocity":24,"Duration":764330,"SoundDuration":764330,"Delta":62373204},{"NoteNumber":67,"Velocity":40,"Duration":731707,"SoundDuration":731707,"Delta":63137535},{"NoteNumber":59,"Velocity":34,"Duration":731707,"SoundDuration":731707,"Delta":63137535},{"NoteNumber":62,"Velocity":34,"Duration":731707,"SoundDuration":731707,"Delta":63137535},{"NoteNumber":43,"Velocity":26,"Duration":1432849,"SoundDuration":1432849,"Delta":63137535},{"NoteNumber":50,"Velocity":31,"Duration":1432849,"SoundDuration":1432849,"Delta":63137535},{"NoteNumber":86,"Velocity":43,"Duration":701142,"SoundDuration":701142,"Delta":63869242},{"NoteNumber":67,"Velocity":38,"Duration":731707,"SoundDuration":731707,"Delta":64570384},{"NoteNumber":59,"Velocity":32,"Duration":731707,"SoundDuration":731707,"Delta":64570384},{"NoteNumber":62,"Velocity":32,"Duration":731707,"SoundDuration":731707,"Delta":64570384},{"NoteNumber":43,"Velocity":22,"Duration":1409672,"SoundDuration":1409672,"Delta":64570384},{"NoteNumber":50,"Velocity":27,"Duration":1409672,"SoundDuration":1409672,"Delta":64570384},{"NoteNumber":86,"Velocity":39,"Duration":677965,"SoundDuration":677965,"Delta":65302091},{"NoteNumber":67,"Velocity":38,"Duration":710059,"SoundDuration":710059,"Delta":65980057},{"NoteNumber":59,"Velocity":32,"Duration":710059,"SoundDuration":710059,"Delta":65980057},{"NoteNumber":62,"Velocity":32,"Duration":710059,"SoundDuration":710059,"Delta":65980057},{"NoteNumber":43,"Velocity":23,"Duration":1402659,"SoundDuration":1402659,"Delta":65980057},{"NoteNumber":50,"Velocity":28,"Duration":1402659,"SoundDuration":1402659,"Delta":65980057},{"NoteNumber":86,"Velocity":39,"Duration":692600,"SoundDuration":692600,"Delta":66690116},{"NoteNumber":59,"Velocity":33,"Duration":715733,"SoundDuration":715733,"Delta":67382717},{"NoteNumber":62,"Velocity":39,"Duration":715733,"SoundDuration":715733,"Delta":67382717},{"NoteNumber":43,"Velocity":22,"Duration":1450523,"SoundDuration":1450523,"Delta":67382717},{"NoteNumber":50,"Velocity":26,"Duration":1450523,"SoundDuration":1450523,"Delta":67382717},{"NoteNumber":86,"Velocity":42,"Duration":734789,"SoundDuration":734789,"Delta":68098451},{"NoteNumber":62,"Velocity":46,"Duration":181597,"SoundDuration":181597,"Delta":68651643},{"NoteNumber":59,"Velocity":43,"Duration":356802,"SoundDuration":356802,"Delta":68833241},{"NoteNumber":67,"Velocity":51,"Duration":356802,"SoundDuration":356802,"Delta":68833241},{"NoteNumber":50,"Velocity":34,"Duration":1377701,"SoundDuration":1377701,"Delta":68833241},{"NoteNumber":43,"Velocity":28,"Duration":1377701,"SoundDuration":1377701,"Delta":68833241},{"NoteNumber":67,"Velocity":44,"Duration":338333,"SoundDuration":338333,"Delta":69190044},{"NoteNumber":86,"Velocity":47,"Duration":682565,"SoundDuration":682565,"Delta":69528377},{"NoteNumber":59,"Velocity":42,"Duration":163523,"SoundDuration":163523,"Delta":69528377},{"NoteNumber":67,"Velocity":50,"Duration":163523,"SoundDuration":163523,"Delta":69528377},{"NoteNumber":69,"Velocity":40,"Duration":167242,"SoundDuration":167242,"Delta":69691900},{"NoteNumber":71,"Velocity":43,"Duration":163523,"SoundDuration":163523,"Delta":69859143},{"NoteNumber":72,"Velocity":39,"Duration":138069,"SoundDuration":138069,"Delta":70022666},{"NoteNumber":72,"Velocity":44,"Duration":86924,"SoundDuration":86924,"Delta":70167908},{"NoteNumber":62,"Velocity":43,"Duration":351123,"SoundDuration":351123,"Delta":70210942},{"NoteNumber":71,"Velocity":51,"Duration":351123,"SoundDuration":351123,"Delta":70210942},{"NoteNumber":43,"Velocity":30,"Duration":1395368,"SoundDuration":1395368,"Delta":70210942},{"NoteNumber":50,"Velocity":36,"Duration":1395368,"SoundDuration":1395368,"Delta":70210942},{"NoteNumber":69,"Velocity":39,"Duration":170998,"SoundDuration":170998,"Delta":70562066},{"NoteNumber":71,"Velocity":38,"Duration":170998,"SoundDuration":170998,"Delta":70733065},{"NoteNumber":86,"Velocity":45,"Duration":702246,"SoundDuration":702246,"Delta":70904063},{"NoteNumber":59,"Velocity":38,"Duration":526685,"SoundDuration":526685,"Delta":70904063},{"NoteNumber":67,"Velocity":45,"Duration":526685,"SoundDuration":526685,"Delta":70904063},{"NoteNumber":64,"Velocity":47,"Duration":175561,"SoundDuration":175561,"Delta":71430749},{"NoteNumber":60,"Velocity":43,"Duration":356802,"SoundDuration":356802,"Delta":71606310},{"NoteNumber":69,"Velocity":51,"Duration":356802,"SoundDuration":356802,"Delta":71606310},{"NoteNumber":43,"Velocity":28,"Duration":1366858,"SoundDuration":1366858,"Delta":71606310},{"NoteNumber":50,"Velocity":34,"Duration":1366858,"SoundDuration":1366858,"Delta":71606310},{"NoteNumber":69,"Velocity":45,"Duration":329670,"SoundDuration":329670,"Delta":71963113},{"NoteNumber":86,"Velocity":47,"Duration":680384,"SoundDuration":680384,"Delta":72292784},{"NoteNumber":60,"Velocity":42,"Duration":162619,"SoundDuration":162619,"Delta":72292784},{"NoteNumber":69,"Velocity":50,"Duration":162619,"SoundDuration":162619,"Delta":72292784},{"NoteNumber":71,"Velocity":40,"Duration":168199,"SoundDuration":168199,"Delta":72455403},{"NoteNumber":72,"Velocity":45,"Duration":161290,"SoundDuration":161290,"Delta":72623602},{"NoteNumber":74,"Velocity":40,"Duration":138069,"SoundDuration":138069,"Delta":72784893},{"NoteNumber":74,"Velocity":44,"Duration":86924,"SoundDuration":86924,"Delta":72930135},{"NoteNumber":64,"Velocity":43,"Duration":351123,"SoundDuration":351123,"Delta":72973169},{"NoteNumber":72,"Velocity":51,"Duration":351123,"SoundDuration":351123,"Delta":72973169},{"NoteNumber":43,"Velocity":30,"Duration":1386703,"SoundDuration":1386703,"Delta":72973169},{"NoteNumber":50,"Velocity":36,"Duration":1386703,"SoundDuration":1386703,"Delta":72973169},{"NoteNumber":71,"Velocity":41,"Duration":166666,"SoundDuration":166666,"Delta":73324292},{"NoteNumber":72,"Velocity":38,"Duration":166666,"SoundDuration":166666,"Delta":73490959},{"NoteNumber":86,"Velocity":45,"Duration":702246,"SoundDuration":702246,"Delta":73657626},{"NoteNumber":60,"Velocity":38,"Duration":526685,"SoundDuration":526685,"Delta":73657626},{"NoteNumber":69,"Velocity":45,"Duration":526685,"SoundDuration":526685,"Delta":73657626},{"NoteNumber":67,"Velocity":47,"Duration":175561,"SoundDuration":175561,"Delta":74184311},{"NoteNumber":57,"Velocity":43,"Duration":356802,"SoundDuration":356802,"Delta":74359873},{"NoteNumber":66,"Velocity":51,"Duration":356802,"SoundDuration":356802,"Delta":74359873},{"NoteNumber":43,"Velocity":28,"Duration":1401779,"SoundDuration":1401779,"Delta":74359873},{"NoteNumber":50,"Velocity":34,"Duration":1401779,"SoundDuration":1401779,"Delta":74359873},{"NoteNumber":60,"Velocity":39,"Duration":344273,"SoundDuration":344273,"Delta":74716676},{"NoteNumber":66,"Velocity":48,"Duration":301239,"SoundDuration":301239,"Delta":74716676},{"NoteNumber":67,"Velocity":42,"Duration":43034,"SoundDuration":43034,"Delta":75017915},{"NoteNumber":86,"Velocity":47,"Duration":700703,"SoundDuration":700703,"Delta":75060949},{"NoteNumber":57,"Velocity":42,"Duration":170145,"SoundDuration":170145,"Delta":75060949},{"NoteNumber":66,"Velocity":50,"Duration":170145,"SoundDuration":170145,"Delta":75060949},{"NoteNumber":62,"Velocity":40,"Duration":170145,"SoundDuration":170145,"Delta":75231094},{"NoteNumber":60,"Velocity":42,"Duration":172136,"SoundDuration":172136,"Delta":75401240},{"NoteNumber":64,"Velocity":45,"Duration":172136,"SoundDuration":172136,"Delta":75401240},{"NoteNumber":66,"Velocity":40,"Duration":188276,"SoundDuration":188276,"Delta":75573376},{"NoteNumber":59,"Velocity":43,"Duration":709304,"SoundDuration":709304,"Delta":75761652},{"NoteNumber":67,"Velocity":51,"Duration":709304,"SoundDuration":709304,"Delta":75761652},{"NoteNumber":43,"Velocity":28,"Duration":1401977,"SoundDuration":1401977,"Delta":75761652},{"NoteNumber":50,"Velocity":34,"Duration":1401977,"SoundDuration":1401977,"Delta":75761652},{"NoteNumber":86,"Velocity":47,"Duration":692673,"SoundDuration":692673,"Delta":76470956},{"NoteNumber":62,"Velocity":41,"Duration":176263,"SoundDuration":176263,"Delta":76987367},{"NoteNumber":67,"Velocity":51,"Duration":356802,"SoundDuration":356802,"Delta":77163630},{"NoteNumber":59,"Velocity":43,"Duration":356802,"SoundDuration":356802,"Delta":77163630},{"NoteNumber":43,"Velocity":28,"Duration":1377701,"SoundDuration":1377701,"Delta":77163630},{"NoteNumber":50,"Velocity":34,"Duration":1377701,"SoundDuration":1377701,"Delta":77163630},{"NoteNumber":67,"Velocity":44,"Duration":338333,"SoundDuration":338333,"Delta":77520433},{"NoteNumber":59,"Velocity":42,"Duration":163523,"SoundDuration":163523,"Delta":77858766},{"NoteNumber":77,"Velocity":44,"Duration":682565,"SoundDuration":682565,"Delta":77858766},{"NoteNumber":67,"Velocity":50,"Duration":163523,"SoundDuration":163523,"Delta":77858766},{"NoteNumber":69,"Velocity":40,"Duration":167242,"SoundDuration":167242,"Delta":78022290},{"NoteNumber":71,"Velocity":45,"Duration":163523,"SoundDuration":163523,"Delta":78189532},{"NoteNumber":72,"Velocity":40,"Duration":138069,"SoundDuration":138069,"Delta":78353056},{"NoteNumber":72,"Velocity":44,"Duration":86924,"SoundDuration":86924,"Delta":78498298},{"NoteNumber":71,"Velocity":51,"Duration":351123,"SoundDuration":351123,"Delta":78541332},{"NoteNumber":62,"Velocity":43,"Duration":351123,"SoundDuration":351123,"Delta":78541332},{"NoteNumber":43,"Velocity":30,"Duration":1385722,"SoundDuration":1385722,"Delta":78541332},{"NoteNumber":50,"Velocity":36,"Duration":1385722,"SoundDuration":1385722,"Delta":78541332},{"NoteNumber":69,"Velocity":41,"Duration":170998,"SoundDuration":170998,"Delta":78892455},{"NoteNumber":71,"Velocity":38,"Duration":170998,"SoundDuration":170998,"Delta":79063454},{"NoteNumber":59,"Velocity":38,"Duration":519450,"SoundDuration":519450,"Delta":79234453},{"NoteNumber":67,"Velocity":45,"Duration":519450,"SoundDuration":519450,"Delta":79234453},{"NoteNumber":77,"Velocity":42,"Duration":692600,"SoundDuration":692600,"Delta":79234453},{"NoteNumber":64,"Velocity":47,"Duration":173150,"SoundDuration":173150,"Delta":79753904},{"NoteNumber":69,"Velocity":51,"Duration":342270,"SoundDuration":342270,"Delta":79927054},{"NoteNumber":60,"Velocity":43,"Duration":342270,"SoundDuration":342270,"Delta":79927054},{"NoteNumber":52,"Velocity":34,"Duration":1364135,"SoundDuration":1364135,"Delta":79927054},{"NoteNumber":43,"Velocity":28,"Duration":1364135,"SoundDuration":1364135,"Delta":79927054},{"NoteNumber":69,"Velocity":45,"Duration":338333,"SoundDuration":338333,"Delta":80269324},{"NoteNumber":60,"Velocity":44,"Duration":162619,"SoundDuration":162619,"Delta":80607657},{"NoteNumber":76,"Velocity":46,"Duration":683532,"SoundDuration":683532,"Delta":80607657},{"NoteNumber":69,"Velocity":51,"Duration":162619,"SoundDuration":162619,"Delta":80607657},{"NoteNumber":71,"Velocity":42,"Duration":168199,"SoundDuration":168199,"Delta":80770277},{"NoteNumber":72,"Velocity":48,"Duration":164437,"SoundDuration":164437,"Delta":80938476},{"NoteNumber":74,"Velocity":43,"Duration":138069,"SoundDuration":138069,"Delta":81102913},{"NoteNumber":74,"Velocity":47,"Duration":86321,"SoundDuration":86321,"Delta":81248155},{"NoteNumber":72,"Velocity":55,"Duration":346300,"SoundDuration":346300,"Delta":81291189},{"NoteNumber":64,"Velocity":46,"Duration":346300,"SoundDuration":346300,"Delta":81291189},{"NoteNumber":43,"Velocity":32,"Duration":1367862,"SoundDuration":1367862,"Delta":81291189},{"NoteNumber":52,"Velocity":39,"Duration":1367862,"SoundDuration":1367862,"Delta":81291189},{"NoteNumber":71,"Velocity":45,"Duration":166297,"SoundDuration":166297,"Delta":81637490},{"NoteNumber":72,"Velocity":41,"Duration":166297,"SoundDuration":166297,"Delta":81803787},{"NoteNumber":60,"Velocity":42,"Duration":517832,"SoundDuration":517832,"Delta":81970084},{"NoteNumber":69,"Velocity":51,"Duration":517832,"SoundDuration":517832,"Delta":81970084},{"NoteNumber":76,"Velocity":47,"Duration":688967,"SoundDuration":688967,"Delta":81970084},{"NoteNumber":67,"Velocity":50,"Duration":171135,"SoundDuration":171135,"Delta":82487916},{"NoteNumber":72,"Velocity":55,"Duration":350426,"SoundDuration":350426,"Delta":82659051},{"NoteNumber":64,"Velocity":46,"Duration":350426,"SoundDuration":350426,"Delta":82659051},{"NoteNumber":50,"Velocity":37,"Duration":1372291,"SoundDuration":1372291,"Delta":82659051},{"NoteNumber":43,"Velocity":31,"Duration":1372291,"SoundDuration":1372291,"Delta":82659051},{"NoteNumber":72,"Velocity":49,"Duration":338333,"SoundDuration":338333,"Delta":83009478},{"NoteNumber":64,"Velocity":47,"Duration":162619,"SoundDuration":162619,"Delta":83347811},{"NoteNumber":81,"Velocity":53,"Duration":683532,"SoundDuration":683532,"Delta":83347811},{"NoteNumber":72,"Velocity":56,"Duration":162619,"SoundDuration":162619,"Delta":83347811},{"NoteNumber":74,"Velocity":45,"Duration":168199,"SoundDuration":168199,"Delta":83510430},{"NoteNumber":76,"Velocity":52,"Duration":164437,"SoundDuration":164437,"Delta":83678629},{"NoteNumber":78,"Velocity":46,"Duration":138069,"SoundDuration":138069,"Delta":83843067},{"NoteNumber":78,"Velocity":50,"Duration":84933,"SoundDuration":84933,"Delta":83988309},{"NoteNumber":76,"Velocity":58,"Duration":335195,"SoundDuration":335195,"Delta":84031343},{"NoteNumber":67,"Velocity":49,"Duration":335195,"SoundDuration":335195,"Delta":84031343},{"NoteNumber":43,"Velocity":34,"Duration":1357892,"SoundDuration":1357892,"Delta":84031343},{"NoteNumber":50,"Velocity":41,"Duration":1357892,"SoundDuration":1357892,"Delta":84031343},{"NoteNumber":74,"Velocity":48,"Duration":165362,"SoundDuration":165362,"Delta":84366538},{"NoteNumber":76,"Velocity":40,"Duration":165362,"SoundDuration":165362,"Delta":84531901},{"NoteNumber":66,"Velocity":44,"Duration":519835,"SoundDuration":519835,"Delta":84697263},{"NoteNumber":72,"Velocity":54,"Duration":519835,"SoundDuration":519835,"Delta":84697263},{"NoteNumber":81,"Velocity":53,"Duration":691972,"SoundDuration":691972,"Delta":84697263},{"NoteNumber":74,"Velocity":53,"Duration":172136,"SoundDuration":172136,"Delta":85217098},{"NoteNumber":79,"Velocity":58,"Duration":354652,"SoundDuration":354652,"Delta":85389235},{"NoteNumber":71,"Velocity":49,"Duration":354652,"SoundDuration":354652,"Delta":85389235},{"NoteNumber":50,"Velocity":42,"Duration":1376517,"SoundDuration":1376517,"Delta":85389235},{"NoteNumber":43,"Velocity":35,"Duration":1376517,"SoundDuration":1376517,"Delta":85389235},{"NoteNumber":79,"Velocity":54,"Duration":338333,"SoundDuration":338333,"Delta":85743887},{"NoteNumber":71,"Velocity":52,"Duration":162619,"SoundDuration":162619,"Delta":86082220},{"NoteNumber":86,"Velocity":57,"Duration":683532,"SoundDuration":683532,"Delta":86082220},{"NoteNumber":79,"Velocity":60,"Duration":162619,"SoundDuration":162619,"Delta":86082220},{"NoteNumber":81,"Velocity":49,"Duration":168199,"SoundDuration":168199,"Delta":86244839},{"NoteNumber":83,"Velocity":56,"Duration":164437,"SoundDuration":164437,"Delta":86413038},{"NoteNumber":84,"Velocity":49,"Duration":138069,"SoundDuration":138069,"Delta":86577476},{"NoteNumber":84,"Velocity":53,"Duration":86924,"SoundDuration":86924,"Delta":86722718},{"NoteNumber":83,"Velocity":63,"Duration":351123,"SoundDuration":351123,"Delta":86765752},{"NoteNumber":74,"Velocity":53,"Duration":351123,"SoundDuration":351123,"Delta":86765752},{"NoteNumber":43,"Velocity":37,"Duration":1413476,"SoundDuration":1413476,"Delta":86765752},{"NoteNumber":50,"Velocity":43,"Duration":1413476,"SoundDuration":1413476,"Delta":86765752},{"NoteNumber":81,"Velocity":58,"Duration":170998,"SoundDuration":170998,"Delta":87116875},{"NoteNumber":83,"Velocity":55,"Duration":170998,"SoundDuration":170998,"Delta":87287874},{"NoteNumber":71,"Velocity":55,"Duration":720355,"SoundDuration":720355,"Delta":87458873},{"NoteNumber":79,"Velocity":67,"Duration":720355,"SoundDuration":720355,"Delta":87458873},{"NoteNumber":91,"Velocity":64,"Duration":720355,"SoundDuration":720355,"Delta":87458873},{"NoteNumber":57,"Velocity":58,"Duration":172136,"SoundDuration":172136,"Delta":88179229},{"NoteNumber":62,"Velocity":51,"Duration":172136,"SoundDuration":172136,"Delta":88179229},{"NoteNumber":43,"Velocity":32,"Duration":1408417,"SoundDuration":1408417,"Delta":88179229},{"NoteNumber":50,"Velocity":38,"Duration":1408417,"SoundDuration":1408417,"Delta":88179229},{"NoteNumber":59,"Velocity":46,"Duration":172136,"SoundDuration":172136,"Delta":88351365},{"NoteNumber":60,"Velocity":48,"Duration":172136,"SoundDuration":172136,"Delta":88523502},{"NoteNumber":62,"Velocity":45,"Duration":178401,"SoundDuration":178401,"Delta":88695639},{"NoteNumber":74,"Velocity":55,"Duration":713605,"SoundDuration":713605,"Delta":88874040},{"NoteNumber":64,"Velocity":48,"Duration":342856,"SoundDuration":342856,"Delta":89587646},{"NoteNumber":72,"Velocity":57,"Duration":342856,"SoundDuration":342856,"Delta":89587646},{"NoteNumber":43,"Velocity":38,"Duration":342856,"SoundDuration":342856,"Delta":89587646},{"NoteNumber":62,"Velocity":43,"Duration":179490,"SoundDuration":179490,"Delta":89930503},{"NoteNumber":71,"Velocity":51,"Duration":179490,"SoundDuration":179490,"Delta":89930503},{"NoteNumber":43,"Velocity":33,"Duration":179490,"SoundDuration":179490,"Delta":89930503},{"NoteNumber":64,"Velocity":37,"Duration":179490,"SoundDuration":179490,"Delta":90109994},{"NoteNumber":72,"Velocity":45,"Duration":179490,"SoundDuration":179490,"Delta":90109994},{"NoteNumber":50,"Velocity":33,"Duration":179490,"SoundDuration":179490,"Delta":90109994},{"NoteNumber":60,"Velocity":43,"Duration":709304,"SoundDuration":709304,"Delta":90289484},{"NoteNumber":69,"Velocity":51,"Duration":709304,"SoundDuration":709304,"Delta":90289484},{"NoteNumber":43,"Velocity":38,"Duration":354652,"SoundDuration":354652,"Delta":90289484},{"NoteNumber":38,"Velocity":34,"Duration":354652,"SoundDuration":354652,"Delta":90644136},{"NoteNumber":57,"Velocity":58,"Duration":172136,"SoundDuration":172136,"Delta":90998788},{"NoteNumber":62,"Velocity":51,"Duration":172136,"SoundDuration":172136,"Delta":90998788},{"NoteNumber":43,"Velocity":32,"Duration":1408417,"SoundDuration":1408417,"Delta":90998788},{"NoteNumber":50,"Velocity":38,"Duration":1408417,"SoundDuration":1408417,"Delta":90998788},{"NoteNumber":59,"Velocity":46,"Duration":172136,"SoundDuration":172136,"Delta":91170925},{"NoteNumber":60,"Velocity":48,"Duration":172136,"SoundDuration":172136,"Delta":91343061},{"NoteNumber":62,"Velocity":45,"Duration":178401,"SoundDuration":178401,"Delta":91515198},{"NoteNumber":74,"Velocity":55,"Duration":713605,"SoundDuration":713605,"Delta":91693600},{"NoteNumber":62,"Velocity":48,"Duration":340908,"SoundDuration":340908,"Delta":92407206},{"NoteNumber":71,"Velocity":57,"Duration":340908,"SoundDuration":340908,"Delta":92407206},{"NoteNumber":43,"Velocity":38,"Duration":340908,"SoundDuration":340908,"Delta":92407206},{"NoteNumber":60,"Velocity":43,"Duration":179490,"SoundDuration":179490,"Delta":92748115},{"NoteNumber":69,"Velocity":51,"Duration":179490,"SoundDuration":179490,"Delta":92748115},{"NoteNumber":43,"Velocity":33,"Duration":179490,"SoundDuration":179490,"Delta":92748115},{"NoteNumber":62,"Velocity":37,"Duration":179490,"SoundDuration":179490,"Delta":92927605},{"NoteNumber":71,"Velocity":45,"Duration":179490,"SoundDuration":179490,"Delta":92927605},{"NoteNumber":50,"Velocity":33,"Duration":179490,"SoundDuration":179490,"Delta":92927605},{"NoteNumber":59,"Velocity":43,"Duration":691730,"SoundDuration":691730,"Delta":93107095},{"NoteNumber":67,"Velocity":51,"Duration":691730,"SoundDuration":691730,"Delta":93107095},{"NoteNumber":43,"Velocity":33,"Duration":354652,"SoundDuration":354652,"Delta":93107095},{"NoteNumber":38,"Velocity":32,"Duration":337078,"SoundDuration":337078,"Delta":93461747},{"NoteNumber":57,"Velocity":58,"Duration":172136,"SoundDuration":172136,"Delta":93798826},{"NoteNumber":62,"Velocity":51,"Duration":172136,"SoundDuration":172136,"Delta":93798826},{"NoteNumber":43,"Velocity":32,"Duration":1408417,"SoundDuration":1408417,"Delta":93798826},{"NoteNumber":50,"Velocity":38,"Duration":1408417,"SoundDuration":1408417,"Delta":93798826},{"NoteNumber":59,"Velocity":46,"Duration":172136,"SoundDuration":172136,"Delta":93970962},{"NoteNumber":60,"Velocity":48,"Duration":172136,"SoundDuration":172136,"Delta":94143099},{"NoteNumber":62,"Velocity":46,"Duration":178401,"SoundDuration":178401,"Delta":94315236},{"NoteNumber":74,"Velocity":55,"Duration":713605,"SoundDuration":713605,"Delta":94493637},{"NoteNumber":64,"Velocity":48,"Duration":342856,"SoundDuration":342856,"Delta":95207243},{"NoteNumber":72,"Velocity":57,"Duration":342856,"SoundDuration":342856,"Delta":95207243},{"NoteNumber":43,"Velocity":38,"Duration":342856,"SoundDuration":342856,"Delta":95207243},{"NoteNumber":62,"Velocity":43,"Duration":179490,"SoundDuration":179490,"Delta":95550100},{"NoteNumber":71,"Velocity":51,"Duration":179490,"SoundDuration":179490,"Delta":95550100},{"NoteNumber":43,"Velocity":33,"Duration":179490,"SoundDuration":179490,"Delta":95550100},{"NoteNumber":64,"Velocity":37,"Duration":179490,"SoundDuration":179490,"Delta":95729591},{"NoteNumber":72,"Velocity":45,"Duration":179490,"SoundDuration":179490,"Delta":95729591},{"NoteNumber":50,"Velocity":33,"Duration":179490,"SoundDuration":179490,"Delta":95729591},{"NoteNumber":60,"Velocity":43,"Duration":711794,"SoundDuration":711794,"Delta":95909081},{"NoteNumber":69,"Velocity":51,"Duration":711794,"SoundDuration":711794,"Delta":95909081},{"NoteNumber":43,"Velocity":38,"Duration":354652,"SoundDuration":354652,"Delta":95909081},{"NoteNumber":38,"Velocity":33,"Duration":357142,"SoundDuration":357142,"Delta":96263733},{"NoteNumber":57,"Velocity":55,"Duration":172136,"SoundDuration":172136,"Delta":96620876},{"NoteNumber":62,"Velocity":48,"Duration":172136,"SoundDuration":172136,"Delta":96620876},{"NoteNumber":43,"Velocity":30,"Duration":1408417,"SoundDuration":1408417,"Delta":96620876},{"NoteNumber":50,"Velocity":36,"Duration":1408417,"SoundDuration":1408417,"Delta":96620876},{"NoteNumber":59,"Velocity":44,"Duration":172136,"SoundDuration":172136,"Delta":96793013},{"NoteNumber":60,"Velocity":45,"Duration":172136,"SoundDuration":172136,"Delta":96965149},{"NoteNumber":62,"Velocity":41,"Duration":178401,"SoundDuration":178401,"Delta":97137286},{"NoteNumber":74,"Velocity":52,"Duration":713605,"SoundDuration":713605,"Delta":97315688},{"NoteNumber":62,"Velocity":45,"Duration":350426,"SoundDuration":350426,"Delta":98029294},{"NoteNumber":71,"Velocity":54,"Duration":350426,"SoundDuration":350426,"Delta":98029294},{"NoteNumber":43,"Velocity":36,"Duration":350426,"SoundDuration":350426,"Delta":98029294},{"NoteNumber":60,"Velocity":40,"Duration":179490,"SoundDuration":179490,"Delta":98379720},{"NoteNumber":69,"Velocity":48,"Duration":179490,"SoundDuration":179490,"Delta":98379720},{"NoteNumber":43,"Velocity":31,"Duration":179490,"SoundDuration":179490,"Delta":98379720},{"NoteNumber":62,"Velocity":35,"Duration":179490,"SoundDuration":179490,"Delta":98559210},{"NoteNumber":71,"Velocity":42,"Duration":179490,"SoundDuration":179490,"Delta":98559210},{"NoteNumber":50,"Velocity":31,"Duration":179490,"SoundDuration":179490,"Delta":98559210},{"NoteNumber":59,"Velocity":40,"Duration":354652,"SoundDuration":354652,"Delta":98738701},{"NoteNumber":67,"Velocity":48,"Duration":354652,"SoundDuration":354652,"Delta":98738701},{"NoteNumber":43,"Velocity":31,"Duration":354652,"SoundDuration":354652,"Delta":98738701},{"NoteNumber":62,"Velocity":34,"Duration":370232,"SoundDuration":370232,"Delta":99093353},{"NoteNumber":71,"Velocity":40,"Duration":370232,"SoundDuration":370232,"Delta":99093353},{"NoteNumber":38,"Velocity":29,"Duration":370232,"SoundDuration":370232,"Delta":99093353},{"NoteNumber":60,"Velocity":39,"Duration":377358,"SoundDuration":377358,"Delta":99463586},{"NoteNumber":69,"Velocity":46,"Duration":377358,"SoundDuration":377358,"Delta":99463586},{"NoteNumber":43,"Velocity":30,"Duration":1501982,"SoundDuration":1501982,"Delta":99463586},{"NoteNumber":50,"Velocity":36,"Duration":1501982,"SoundDuration":1501982,"Delta":99463586},{"NoteNumber":59,"Velocity":36,"Duration":397351,"SoundDuration":397351,"Delta":99840944},{"NoteNumber":67,"Velocity":43,"Duration":397351,"SoundDuration":397351,"Delta":99840944},{"NoteNumber":79,"Velocity":48,"Duration":727272,"SoundDuration":727272,"Delta":100238295},{"NoteNumber":59,"Velocity":40,"Duration":727272,"SoundDuration":727272,"Delta":100238295},{"NoteNumber":67,"Velocity":48,"Duration":727272,"SoundDuration":727272,"Delta":100238295},{"NoteNumber":59,"Velocity":34,"Duration":750000,"SoundDuration":750000,"Delta":100965568},{"NoteNumber":62,"Velocity":40,"Duration":750000,"SoundDuration":750000,"Delta":100965568},{"NoteNumber":43,"Velocity":24,"Duration":1481707,"SoundDuration":1481707,"Delta":100965568},{"NoteNumber":50,"Velocity":28,"Duration":1481707,"SoundDuration":1481707,"Delta":100965568},{"NoteNumber":79,"Velocity":48,"Duration":731707,"SoundDuration":731707,"Delta":101715568},{"NoteNumber":59,"Velocity":33,"Duration":722892,"SoundDuration":722892,"Delta":102447275},{"NoteNumber":62,"Velocity":39,"Duration":722892,"SoundDuration":722892,"Delta":102447275},{"NoteNumber":43,"Velocity":24,"Duration":2210115,"SoundDuration":2210115,"Delta":102447275},{"NoteNumber":50,"Velocity":28,"Duration":2210115,"SoundDuration":2210115,"Delta":102447275},{"NoteNumber":79,"Velocity":48,"Duration":1487223,"SoundDuration":1487223,"Delta":103170167},{"NoteNumber":59,"Velocity":33,"Duration":722892,"SoundDuration":722892,"Delta":103934498},{"NoteNumber":62,"Velocity":39,"Duration":722892,"SoundDuration":722892,"Delta":103934498},{"NoteNumber":78,"Velocity":45,"Duration":210304,"SoundDuration":210304,"Delta":104657390},{"NoteNumber":76,"Velocity":40,"Duration":213795,"SoundDuration":213795,"Delta":104837392},{"NoteNumber":74,"Velocity":44,"Duration":216818,"SoundDuration":216818,"Delta":105020323},{"NoteNumber":72,"Velocity":39,"Duration":220531,"SoundDuration":220531,"Delta":105205892},{"NoteNumber":71,"Velocity":48,"Duration":764330,"SoundDuration":764330,"Delta":105394576},{"NoteNumber":60,"Velocity":34,"Duration":764330,"SoundDuration":764330,"Delta":106158907},{"NoteNumber":66,"Velocity":34,"Duration":764330,"SoundDuration":764330,"Delta":106158907},{"NoteNumber":69,"Velocity":41,"Duration":764330,"SoundDuration":764330,"Delta":106158907},{"NoteNumber":38,"Velocity":24,"Duration":764330,"SoundDuration":764330,"Delta":106158907},{"NoteNumber":67,"Velocity":40,"Duration":731707,"SoundDuration":731707,"Delta":106923238},{"NoteNumber":59,"Velocity":34,"Duration":731707,"SoundDuration":731707,"Delta":106923238},{"NoteNumber":62,"Velocity":40,"Duration":731707,"SoundDuration":731707,"Delta":106923238},{"NoteNumber":43,"Velocity":26,"Duration":1432848,"SoundDuration":1432848,"Delta":106923238},{"NoteNumber":50,"Velocity":31,"Duration":1432848,"SoundDuration":1432848,"Delta":106923238},{"NoteNumber":86,"Velocity":43,"Duration":701141,"SoundDuration":701141,"Delta":107654945},{"NoteNumber":59,"Velocity":35,"Duration":731707,"SoundDuration":731707,"Delta":108356087},{"NoteNumber":62,"Velocity":41,"Duration":731707,"SoundDuration":731707,"Delta":108356087},{"NoteNumber":43,"Velocity":22,"Duration":1409672,"SoundDuration":1409672,"Delta":108356087},{"NoteNumber":50,"Velocity":32,"Duration":1409672,"SoundDuration":1409672,"Delta":108356087},{"NoteNumber":86,"Velocity":41,"Duration":677965,"SoundDuration":677965,"Delta":109087794},{"NoteNumber":59,"Velocity":35,"Duration":731707,"SoundDuration":731707,"Delta":109765760},{"NoteNumber":62,"Velocity":41,"Duration":731707,"SoundDuration":731707,"Delta":109765760},{"NoteNumber":43,"Velocity":25,"Duration":1424307,"SoundDuration":1424307,"Delta":109765760},{"NoteNumber":50,"Velocity":30,"Duration":1424307,"SoundDuration":1424307,"Delta":109765760},{"NoteNumber":86,"Velocity":42,"Duration":692600,"SoundDuration":692600,"Delta":110497467},{"NoteNumber":59,"Velocity":34,"Duration":715733,"SoundDuration":715733,"Delta":111190068},{"NoteNumber":62,"Velocity":40,"Duration":715733,"SoundDuration":715733,"Delta":111190068},{"NoteNumber":43,"Velocity":22,"Duration":1470267,"SoundDuration":1470267,"Delta":111190068},{"NoteNumber":50,"Velocity":31,"Duration":1470267,"SoundDuration":1470267,"Delta":111190068},{"NoteNumber":86,"Velocity":41,"Duration":553191,"SoundDuration":553191,"Delta":111905802},{"NoteNumber":62,"Velocity":38,"Duration":201342,"SoundDuration":201342,"Delta":112458994},{"NoteNumber":58,"Velocity":34,"Duration":731707,"SoundDuration":731707,"Delta":112660336},{"NoteNumber":62,"Velocity":40,"Duration":731707,"SoundDuration":731707,"Delta":112660336},{"NoteNumber":43,"Velocity":26,"Duration":1432848,"SoundDuration":1432848,"Delta":112660336},{"NoteNumber":50,"Velocity":31,"Duration":1432848,"SoundDuration":1432848,"Delta":112660336},{"NoteNumber":86,"Velocity":36,"Duration":701141,"SoundDuration":701141,"Delta":113392043},{"NoteNumber":58,"Velocity":30,"Duration":731707,"SoundDuration":731707,"Delta":114093185},{"NoteNumber":62,"Velocity":36,"Duration":731707,"SoundDuration":731707,"Delta":114093185},{"NoteNumber":43,"Velocity":21,"Duration":1409672,"SoundDuration":1409672,"Delta":114093185},{"NoteNumber":50,"Velocity":31,"Duration":1409672,"SoundDuration":1409672,"Delta":114093185},{"NoteNumber":86,"Velocity":34,"Duration":677965,"SoundDuration":677965,"Delta":114824892},{"NoteNumber":58,"Velocity":27,"Duration":731707,"SoundDuration":731707,"Delta":115502858},{"NoteNumber":62,"Velocity":32,"Duration":731707,"SoundDuration":731707,"Delta":115502858},{"NoteNumber":43,"Velocity":21,"Duration":1437589,"SoundDuration":1437589,"Delta":115502858},{"NoteNumber":50,"Velocity":25,"Duration":1437589,"SoundDuration":1437589,"Delta":115502858},{"NoteNumber":86,"Velocity":34,"Duration":705882,"SoundDuration":705882,"Delta":116234565},{"NoteNumber":58,"Velocity":25,"Duration":774193,"SoundDuration":774193,"Delta":116940447},{"NoteNumber":62,"Velocity":30,"Duration":774193,"SoundDuration":774193,"Delta":116940447},{"NoteNumber":43,"Velocity":20,"Duration":1584420,"SoundDuration":1584420,"Delta":116940447},{"NoteNumber":50,"Velocity":24,"Duration":1584420,"SoundDuration":1584420,"Delta":116940447},{"NoteNumber":86,"Velocity":33,"Duration":619967,"SoundDuration":619967,"Delta":117714641},{"NoteNumber":62,"Velocity":48,"Duration":190258,"SoundDuration":190258,"Delta":118334609},{"NoteNumber":67,"Velocity":56,"Duration":775996,"SoundDuration":775996,"Delta":118524867},{"NoteNumber":65,"Velocity":52,"Duration":387998,"SoundDuration":387998,"Delta":118912865},{"NoteNumber":67,"Velocity":56,"Duration":181818,"SoundDuration":181818,"Delta":119300863},{"NoteNumber":60,"Velocity":47,"Duration":363636,"SoundDuration":363636,"Delta":119300863},{"NoteNumber":63,"Velocity":47,"Duration":363636,"SoundDuration":363636,"Delta":119300863},{"NoteNumber":69,"Velocity":51,"Duration":181818,"SoundDuration":181818,"Delta":119482682},{"NoteNumber":70,"Velocity":53,"Duration":184049,"SoundDuration":184049,"Delta":119664500},{"NoteNumber":58,"Velocity":35,"Duration":368098,"SoundDuration":368098,"Delta":119664500},{"NoteNumber":62,"Velocity":36,"Duration":368098,"SoundDuration":368098,"Delta":119664500},{"NoteNumber":72,"Velocity":51,"Duration":184049,"SoundDuration":184049,"Delta":119848549},{"NoteNumber":70,"Velocity":60,"Duration":377358,"SoundDuration":377358,"Delta":120032598},{"NoteNumber":63,"Velocity":50,"Duration":377358,"SoundDuration":377358,"Delta":120032598},{"NoteNumber":55,"Velocity":40,"Duration":377358,"SoundDuration":377358,"Delta":120032598},{"NoteNumber":69,"Velocity":56,"Duration":184049,"SoundDuration":184049,"Delta":120409956},{"NoteNumber":65,"Velocity":44,"Duration":368098,"SoundDuration":368098,"Delta":120409956},{"NoteNumber":57,"Velocity":39,"Duration":368098,"SoundDuration":368098,"Delta":120409956},{"NoteNumber":70,"Velocity":51,"Duration":184049,"SoundDuration":184049,"Delta":120594005},{"NoteNumber":67,"Velocity":57,"Duration":377358,"SoundDuration":377358,"Delta":120778054},{"NoteNumber":58,"Velocity":48,"Duration":377358,"SoundDuration":377358,"Delta":120778054},{"NoteNumber":62,"Velocity":48,"Duration":377358,"SoundDuration":377358,"Delta":120778054},{"NoteNumber":69,"Velocity":53,"Duration":416666,"SoundDuration":416666,"Delta":121155413},{"NoteNumber":60,"Velocity":45,"Duration":416666,"SoundDuration":416666,"Delta":121155413},{"NoteNumber":63,"Velocity":45,"Duration":416666,"SoundDuration":416666,"Delta":121155413},{"NoteNumber":65,"Velocity":49,"Duration":410959,"SoundDuration":410959,"Delta":121572079},{"NoteNumber":70,"Velocity":58,"Duration":410959,"SoundDuration":410959,"Delta":121572079},{"NoteNumber":62,"Velocity":40,"Duration":410959,"SoundDuration":410959,"Delta":121572079},{"NoteNumber":58,"Velocity":34,"Duration":410959,"SoundDuration":410959,"Delta":121572079},{"NoteNumber":69,"Velocity":46,"Duration":425532,"SoundDuration":425532,"Delta":121983038},{"NoteNumber":72,"Velocity":55,"Duration":425532,"SoundDuration":425532,"Delta":121983038},{"NoteNumber":53,"Velocity":30,"Duration":425532,"SoundDuration":425532,"Delta":121983038},{"NoteNumber":60,"Velocity":36,"Duration":425532,"SoundDuration":425532,"Delta":121983038},{"NoteNumber":69,"Velocity":49,"Duration":888889,"SoundDuration":888889,"Delta":122408570},{"NoteNumber":72,"Velocity":58,"Duration":888889,"SoundDuration":888889,"Delta":122408570},{"NoteNumber":53,"Velocity":34,"Duration":888889,"SoundDuration":888889,"Delta":122408570},{"NoteNumber":60,"Velocity":40,"Duration":888889,"SoundDuration":888889,"Delta":122408570},{"NoteNumber":70,"Velocity":41,"Duration":888888,"SoundDuration":888888,"Delta":123297459},{"NoteNumber":74,"Velocity":50,"Duration":888888,"SoundDuration":888888,"Delta":123297459},{"NoteNumber":46,"Velocity":29,"Duration":888888,"SoundDuration":888888,"Delta":123297459},{"NoteNumber":53,"Velocity":36,"Duration":888888,"SoundDuration":888888,"Delta":123297459},{"NoteNumber":65,"Velocity":52,"Duration":392567,"SoundDuration":392567,"Delta":124603652},{"NoteNumber":70,"Velocity":58,"Duration":775996,"SoundDuration":775996,"Delta":124996220},{"NoteNumber":69,"Velocity":52,"Duration":387998,"SoundDuration":387998,"Delta":125384218},{"NoteNumber":70,"Velocity":56,"Duration":184049,"SoundDuration":184049,"Delta":125772216},{"NoteNumber":63,"Velocity":47,"Duration":368098,"SoundDuration":368098,"Delta":125772216},{"NoteNumber":67,"Velocity":47,"Duration":368098,"SoundDuration":368098,"Delta":125772216},{"NoteNumber":72,"Velocity":51,"Duration":184049,"SoundDuration":184049,"Delta":125956265},{"NoteNumber":74,"Velocity":53,"Duration":187116,"SoundDuration":187116,"Delta":126140314},{"NoteNumber":62,"Velocity":36,"Duration":373452,"SoundDuration":373452,"Delta":126140314},{"NoteNumber":65,"Velocity":38,"Duration":373452,"SoundDuration":373452,"Delta":126140314},{"NoteNumber":75,"Velocity":51,"Duration":186335,"SoundDuration":186335,"Delta":126327431},{"NoteNumber":58,"Velocity":40,"Duration":376577,"SoundDuration":376577,"Delta":126513766},{"NoteNumber":74,"Velocity":60,"Duration":376577,"SoundDuration":376577,"Delta":126513766},{"NoteNumber":67,"Velocity":50,"Duration":376577,"SoundDuration":376577,"Delta":126513766},{"NoteNumber":63,"Velocity":40,"Duration":377358,"SoundDuration":377358,"Delta":126890343},{"NoteNumber":60,"Velocity":40,"Duration":377358,"SoundDuration":377358,"Delta":126890343},{"NoteNumber":72,"Velocity":56,"Duration":188679,"SoundDuration":188679,"Delta":126890343},{"NoteNumber":69,"Velocity":47,"Duration":377358,"SoundDuration":377358,"Delta":126890343},{"NoteNumber":74,"Velocity":51,"Duration":188679,"SoundDuration":188679,"Delta":127079023},{"NoteNumber":70,"Velocity":57,"Duration":392567,"SoundDuration":392567,"Delta":127267702},{"NoteNumber":62,"Velocity":48,"Duration":392567,"SoundDuration":392567,"Delta":127267702},{"NoteNumber":65,"Velocity":48,"Duration":392567,"SoundDuration":392567,"Delta":127267702},{"NoteNumber":69,"Velocity":45,"Duration":411410,"SoundDuration":411410,"Delta":127660269},{"NoteNumber":72,"Velocity":53,"Duration":411410,"SoundDuration":411410,"Delta":127660269},{"NoteNumber":60,"Velocity":45,"Duration":411410,"SoundDuration":411410,"Delta":127660269},{"NoteNumber":63,"Velocity":45,"Duration":411410,"SoundDuration":411410,"Delta":127660269},{"NoteNumber":65,"Velocity":49,"Duration":408163,"SoundDuration":408163,"Delta":128071679},{"NoteNumber":74,"Velocity":58,"Duration":408163,"SoundDuration":408163,"Delta":128071679},{"NoteNumber":62,"Velocity":40,"Duration":408163,"SoundDuration":408163,"Delta":128071679},{"NoteNumber":58,"Velocity":34,"Duration":408163,"SoundDuration":408163,"Delta":128071679},{"NoteNumber":67,"Velocity":50,"Duration":425532,"SoundDuration":425532,"Delta":128479843},{"NoteNumber":76,"Velocity":60,"Duration":425532,"SoundDuration":425532,"Delta":128479843},{"NoteNumber":57,"Velocity":33,"Duration":425532,"SoundDuration":425532,"Delta":128479843},{"NoteNumber":61,"Velocity":39,"Duration":425532,"SoundDuration":425532,"Delta":128479843},{"NoteNumber":67,"Velocity":53,"Duration":888889,"SoundDuration":888889,"Delta":128905375},{"NoteNumber":76,"Velocity":63,"Duration":888889,"SoundDuration":888889,"Delta":128905375},{"NoteNumber":57,"Velocity":37,"Duration":888889,"SoundDuration":888889,"Delta":128905375},{"NoteNumber":61,"Velocity":44,"Duration":888889,"SoundDuration":888889,"Delta":128905375},{"NoteNumber":66,"Velocity":45,"Duration":888889,"SoundDuration":888889,"Delta":129794264},{"NoteNumber":74,"Velocity":45,"Duration":888889,"SoundDuration":888889,"Delta":129794264},{"NoteNumber":78,"Velocity":55,"Duration":888889,"SoundDuration":888889,"Delta":129794264},{"NoteNumber":50,"Velocity":31,"Duration":888889,"SoundDuration":888889,"Delta":129794264},{"NoteNumber":57,"Velocity":39,"Duration":888889,"SoundDuration":888889,"Delta":129794264},{"NoteNumber":74,"Velocity":67,"Duration":827585,"SoundDuration":827585,"Delta":130683153},{"NoteNumber":72,"Velocity":63,"Duration":808529,"SoundDuration":808529,"Delta":131096946},{"NoteNumber":79,"Velocity":69,"Duration":767407,"SoundDuration":767407,"Delta":131510739},{"NoteNumber":70,"Velocity":62,"Duration":372670,"SoundDuration":372670,"Delta":131905476},{"NoteNumber":77,"Velocity":64,"Duration":186335,"SoundDuration":186335,"Delta":132278147},{"NoteNumber":69,"Velocity":56,"Duration":372670,"SoundDuration":372670,"Delta":132278147},{"NoteNumber":79,"Velocity":57,"Duration":186335,"SoundDuration":186335,"Delta":132464482},{"NoteNumber":77,"Velocity":63,"Duration":192307,"SoundDuration":192307,"Delta":132650818},{"NoteNumber":65,"Velocity":42,"Duration":384615,"SoundDuration":384615,"Delta":132650818},{"NoteNumber":75,"Velocity":61,"Duration":192307,"SoundDuration":192307,"Delta":132843126},{"NoteNumber":74,"Velocity":70,"Duration":394736,"SoundDuration":394736,"Delta":133035433},{"NoteNumber":70,"Velocity":60,"Duration":394736,"SoundDuration":394736,"Delta":133035433},{"NoteNumber":74,"Velocity":62,"Duration":394737,"SoundDuration":394737,"Delta":133430170},{"NoteNumber":69,"Velocity":45,"Duration":394737,"SoundDuration":394737,"Delta":133430170},{"NoteNumber":70,"Velocity":68,"Duration":392567,"SoundDuration":392567,"Delta":133824907},{"NoteNumber":67,"Velocity":57,"Duration":392567,"SoundDuration":392567,"Delta":133824907},{"NoteNumber":65,"Velocity":53,"Duration":411409,"SoundDuration":411409,"Delta":134217475},{"NoteNumber":72,"Velocity":63,"Duration":411409,"SoundDuration":411409,"Delta":134217475},{"NoteNumber":70,"Velocity":56,"Duration":402684,"SoundDuration":402684,"Delta":134628885},{"NoteNumber":74,"Velocity":67,"Duration":402684,"SoundDuration":402684,"Delta":134628885},{"NoteNumber":58,"Velocity":53,"Duration":402684,"SoundDuration":402684,"Delta":134628885},{"NoteNumber":70,"Velocity":53,"Duration":833494,"SoundDuration":833494,"Delta":135031569},{"NoteNumber":74,"Velocity":63,"Duration":833494,"SoundDuration":833494,"Delta":135031569},{"NoteNumber":57,"Velocity":53,"Duration":422535,"SoundDuration":422535,"Delta":135031569},{"NoteNumber":55,"Velocity":49,"Duration":410958,"SoundDuration":410958,"Delta":135454104},{"NoteNumber":70,"Velocity":53,"Duration":410959,"SoundDuration":410959,"Delta":135865063},{"NoteNumber":74,"Velocity":63,"Duration":410959,"SoundDuration":410959,"Delta":135865063},{"NoteNumber":53,"Velocity":46,"Duration":410959,"SoundDuration":410959,"Delta":135865063},{"NoteNumber":67,"Velocity":58,"Duration":821917,"SoundDuration":821917,"Delta":136276022},{"NoteNumber":70,"Velocity":58,"Duration":821917,"SoundDuration":821917,"Delta":136276022},{"NoteNumber":79,"Velocity":69,"Duration":821917,"SoundDuration":821917,"Delta":136276022},{"NoteNumber":51,"Velocity":53,"Duration":821917,"SoundDuration":821917,"Delta":136276022},{"NoteNumber":72,"Velocity":58,"Duration":784347,"SoundDuration":784347,"Delta":137097940},{"NoteNumber":65,"Velocity":49,"Duration":194805,"SoundDuration":194805,"Delta":137097940},{"NoteNumber":77,"Velocity":58,"Duration":194805,"SoundDuration":194805,"Delta":137097940},{"NoteNumber":45,"Velocity":41,"Duration":784347,"SoundDuration":784347,"Delta":137097940},{"NoteNumber":67,"Velocity":45,"Duration":194805,"SoundDuration":194805,"Delta":137292746},{"NoteNumber":79,"Velocity":53,"Duration":194805,"SoundDuration":194805,"Delta":137292746},{"NoteNumber":65,"Velocity":46,"Duration":197368,"SoundDuration":197368,"Delta":137487551},{"NoteNumber":77,"Velocity":56,"Duration":197368,"SoundDuration":197368,"Delta":137487551},{"NoteNumber":63,"Velocity":44,"Duration":197368,"SoundDuration":197368,"Delta":137684919},{"NoteNumber":75,"Velocity":52,"Duration":197368,"SoundDuration":197368,"Delta":137684919},{"NoteNumber":62,"Velocity":51,"Duration":400000,"SoundDuration":400000,"Delta":137882288},{"NoteNumber":70,"Velocity":51,"Duration":400000,"SoundDuration":400000,"Delta":137882288},{"NoteNumber":74,"Velocity":61,"Duration":400000,"SoundDuration":400000,"Delta":137882288},{"NoteNumber":46,"Velocity":49,"Duration":800000,"SoundDuration":800000,"Delta":137882288},{"NoteNumber":62,"Velocity":46,"Duration":400000,"SoundDuration":400000,"Delta":138282288},{"NoteNumber":67,"Velocity":46,"Duration":400000,"SoundDuration":400000,"Delta":138282288},{"NoteNumber":74,"Velocity":55,"Duration":400000,"SoundDuration":400000,"Delta":138282288},{"NoteNumber":67,"Velocity":49,"Duration":410958,"SoundDuration":410958,"Delta":138682288},{"NoteNumber":70,"Velocity":58,"Duration":410958,"SoundDuration":410958,"Delta":138682288},{"NoteNumber":51,"Velocity":46,"Duration":410958,"SoundDuration":410958,"Delta":138682288},{"NoteNumber":65,"Velocity":53,"Duration":214285,"SoundDuration":214285,"Delta":139093247},{"NoteNumber":72,"Velocity":53,"Duration":428571,"SoundDuration":428571,"Delta":139093247},{"NoteNumber":45,"Velocity":41,"Duration":428571,"SoundDuration":428571,"Delta":139093247},{"NoteNumber":63,"Velocity":42,"Duration":214285,"SoundDuration":214285,"Delta":139307533},{"NoteNumber":62,"Velocity":49,"Duration":410958,"SoundDuration":410958,"Delta":139521818},{"NoteNumber":74,"Velocity":58,"Duration":410958,"SoundDuration":410958,"Delta":139521818},{"NoteNumber":46,"Velocity":49,"Duration":821918,"SoundDuration":821918,"Delta":139521818},{"NoteNumber":62,"Velocity":46,"Duration":410959,"SoundDuration":410959,"Delta":139932777},{"NoteNumber":67,"Velocity":55,"Duration":410959,"SoundDuration":410959,"Delta":139932777},{"NoteNumber":60,"Velocity":44,"Duration":410958,"SoundDuration":410958,"Delta":140343736},{"NoteNumber":63,"Velocity":49,"Duration":410958,"SoundDuration":410958,"Delta":140343736},{"NoteNumber":69,"Velocity":58,"Duration":410958,"SoundDuration":410958,"Delta":140343736},{"NoteNumber":48,"Velocity":48,"Duration":410958,"SoundDuration":410958,"Delta":140343736},{"NoteNumber":62,"Velocity":45,"Duration":410958,"SoundDuration":410958,"Delta":140754695},{"NoteNumber":67,"Velocity":45,"Duration":410958,"SoundDuration":410958,"Delta":140754695},{"NoteNumber":70,"Velocity":53,"Duration":410958,"SoundDuration":410958,"Delta":140754695},{"NoteNumber":46,"Velocity":42,"Duration":410958,"SoundDuration":410958,"Delta":140754695},{"NoteNumber":60,"Velocity":43,"Duration":422535,"SoundDuration":422535,"Delta":141165654},{"NoteNumber":63,"Velocity":58,"Duration":422535,"SoundDuration":422535,"Delta":141165654},{"NoteNumber":69,"Velocity":58,"Duration":422535,"SoundDuration":422535,"Delta":141165654},{"NoteNumber":48,"Velocity":49,"Duration":422535,"SoundDuration":422535,"Delta":141165654},{"NoteNumber":58,"Velocity":44,"Duration":422534,"SoundDuration":422534,"Delta":141588189},{"NoteNumber":67,"Velocity":52,"Duration":422534,"SoundDuration":422534,"Delta":141588189},{"NoteNumber":51,"Velocity":38,"Duration":422534,"SoundDuration":422534,"Delta":141588189},{"NoteNumber":67,"Velocity":46,"Duration":67567,"SoundDuration":67567,"Delta":142010724},{"NoteNumber":60,"Velocity":30,"Duration":1066589,"SoundDuration":1066589,"Delta":142010724},{"NoteNumber":38,"Velocity":46,"Duration":1066589,"SoundDuration":1066589,"Delta":142010724},{"NoteNumber":66,"Velocity":40,"Duration":67567,"SoundDuration":67567,"Delta":142078292},{"NoteNumber":67,"Velocity":47,"Duration":67567,"SoundDuration":67567,"Delta":142145859},{"NoteNumber":66,"Velocity":42,"Duration":67567,"SoundDuration":67567,"Delta":142213427},{"NoteNumber":64,"Velocity":44,"Duration":240000,"SoundDuration":240000,"Delta":142280995},{"NoteNumber":66,"Velocity":55,"Duration":267857,"SoundDuration":267857,"Delta":142520995},{"NoteNumber":67,"Velocity":49,"Duration":288461,"SoundDuration":288461,"Delta":142788852},{"NoteNumber":58,"Velocity":46,"Duration":1044386,"SoundDuration":1044386,"Delta":143077313},{"NoteNumber":67,"Velocity":55,"Duration":1044386,"SoundDuration":1044386,"Delta":143077313},{"NoteNumber":31,"Velocity":40,"Duration":1044386,"SoundDuration":1044386,"Delta":143077313},{"NoteNumber":62,"Velocity":49,"Duration":827585,"SoundDuration":827585,"Delta":144121699},{"NoteNumber":60,"Velocity":46,"Duration":413792,"SoundDuration":413792,"Delta":144535492},{"NoteNumber":58,"Velocity":43,"Duration":784313,"SoundDuration":784313,"Delta":144949285},{"NoteNumber":67,"Velocity":50,"Duration":784313,"SoundDuration":784313,"Delta":144949285},{"NoteNumber":65,"Velocity":45,"Duration":392156,"SoundDuration":392156,"Delta":145341442},{"NoteNumber":67,"Velocity":48,"Duration":181818,"SoundDuration":181818,"Delta":145733599},{"NoteNumber":60,"Velocity":40,"Duration":363636,"SoundDuration":363636,"Delta":145733599},{"NoteNumber":63,"Velocity":40,"Duration":363636,"SoundDuration":363636,"Delta":145733599},{"NoteNumber":69,"Velocity":44,"Duration":181818,"SoundDuration":181818,"Delta":145915418},{"NoteNumber":70,"Velocity":46,"Duration":188679,"SoundDuration":188679,"Delta":146097236},{"NoteNumber":58,"Velocity":28,"Duration":377358,"SoundDuration":377358,"Delta":146097236},{"NoteNumber":62,"Velocity":34,"Duration":377358,"SoundDuration":377358,"Delta":146097236},{"NoteNumber":72,"Velocity":44,"Duration":188679,"SoundDuration":188679,"Delta":146285915},{"NoteNumber":70,"Velocity":52,"Duration":377358,"SoundDuration":377358,"Delta":146474594},{"NoteNumber":63,"Velocity":43,"Duration":377358,"SoundDuration":377358,"Delta":146474594},{"NoteNumber":55,"Velocity":35,"Duration":377358,"SoundDuration":377358,"Delta":146474594},{"NoteNumber":69,"Velocity":48,"Duration":184048,"SoundDuration":184048,"Delta":146851953},{"NoteNumber":65,"Velocity":40,"Duration":368098,"SoundDuration":368098,"Delta":146851953},{"NoteNumber":57,"Velocity":35,"Duration":368098,"SoundDuration":368098,"Delta":146851953},{"NoteNumber":70,"Velocity":44,"Duration":184049,"SoundDuration":184049,"Delta":147036002},{"NoteNumber":67,"Velocity":49,"Duration":377358,"SoundDuration":377358,"Delta":147220051},{"NoteNumber":58,"Velocity":41,"Duration":377358,"SoundDuration":377358,"Delta":147220051},{"NoteNumber":62,"Velocity":41,"Duration":377358,"SoundDuration":377358,"Delta":147220051},{"NoteNumber":69,"Velocity":46,"Duration":416666,"SoundDuration":416666,"Delta":147597409},{"NoteNumber":60,"Velocity":38,"Duration":416666,"SoundDuration":416666,"Delta":147597409},{"NoteNumber":63,"Velocity":38,"Duration":416666,"SoundDuration":416666,"Delta":147597409},{"NoteNumber":65,"Velocity":42,"Duration":410958,"SoundDuration":410958,"Delta":148014076},{"NoteNumber":70,"Velocity":50,"Duration":410958,"SoundDuration":410958,"Delta":148014076},{"NoteNumber":62,"Velocity":35,"Duration":410958,"SoundDuration":410958,"Delta":148014076},{"NoteNumber":58,"Velocity":29,"Duration":410958,"SoundDuration":410958,"Delta":148014076},{"NoteNumber":69,"Velocity":39,"Duration":425532,"SoundDuration":425532,"Delta":148425035},{"NoteNumber":72,"Velocity":47,"Duration":425532,"SoundDuration":425532,"Delta":148425035},{"NoteNumber":53,"Velocity":26,"Duration":425532,"SoundDuration":425532,"Delta":148425035},{"NoteNumber":60,"Velocity":31,"Duration":425532,"SoundDuration":425532,"Delta":148425035},{"NoteNumber":69,"Velocity":42,"Duration":444444,"SoundDuration":444444,"Delta":148850567},{"NoteNumber":72,"Velocity":50,"Duration":444444,"SoundDuration":444444,"Delta":148850567},{"NoteNumber":53,"Velocity":29,"Duration":879227,"SoundDuration":879227,"Delta":148850567},{"NoteNumber":60,"Velocity":35,"Duration":879227,"SoundDuration":879227,"Delta":148850567},{"NoteNumber":70,"Velocity":36,"Duration":108695,"SoundDuration":108695,"Delta":149295011},{"NoteNumber":74,"Velocity":42,"Duration":108695,"SoundDuration":108695,"Delta":149295011},{"NoteNumber":69,"Velocity":31,"Duration":108695,"SoundDuration":108695,"Delta":149403707},{"NoteNumber":72,"Velocity":37,"Duration":108695,"SoundDuration":108695,"Delta":149403707},{"NoteNumber":67,"Velocity":34,"Duration":108695,"SoundDuration":108695,"Delta":149512403},{"NoteNumber":70,"Velocity":40,"Duration":108695,"SoundDuration":108695,"Delta":149512403},{"NoteNumber":69,"Velocity":30,"Duration":108695,"SoundDuration":108695,"Delta":149621098},{"NoteNumber":72,"Velocity":36,"Duration":108695,"SoundDuration":108695,"Delta":149621098},{"NoteNumber":70,"Velocity":34,"Duration":887278,"SoundDuration":887278,"Delta":149729794},{"NoteNumber":74,"Velocity":40,"Duration":887278,"SoundDuration":887278,"Delta":149729794},{"NoteNumber":46,"Velocity":23,"Duration":887278,"SoundDuration":887278,"Delta":149729794},{"NoteNumber":53,"Velocity":29,"Duration":887278,"SoundDuration":887278,"Delta":149729794},{"NoteNumber":65,"Velocity":45,"Duration":809871,"SoundDuration":809871,"Delta":150617072},{"NoteNumber":63,"Velocity":45,"Duration":392567,"SoundDuration":392567,"Delta":151034376},{"NoteNumber":62,"Velocity":43,"Duration":775995,"SoundDuration":775995,"Delta":151426944},{"NoteNumber":70,"Velocity":50,"Duration":775995,"SoundDuration":775995,"Delta":151426944},{"NoteNumber":69,"Velocity":45,"Duration":387997,"SoundDuration":387997,"Delta":151814942},{"NoteNumber":70,"Velocity":48,"Duration":184048,"SoundDuration":184048,"Delta":152202940},{"NoteNumber":63,"Velocity":40,"Duration":368098,"SoundDuration":368098,"Delta":152202940},{"NoteNumber":67,"Velocity":40,"Duration":368098,"SoundDuration":368098,"Delta":152202940},{"NoteNumber":72,"Velocity":44,"Duration":184049,"SoundDuration":184049,"Delta":152386989},{"NoteNumber":74,"Velocity":46,"Duration":184048,"SoundDuration":184048,"Delta":152571038},{"NoteNumber":62,"Velocity":32,"Duration":368098,"SoundDuration":368098,"Delta":152571038},{"NoteNumber":65,"Velocity":32,"Duration":368098,"SoundDuration":368098,"Delta":152571038},{"NoteNumber":75,"Velocity":44,"Duration":184049,"SoundDuration":184049,"Delta":152755087},{"NoteNumber":58,"Velocity":35,"Duration":377358,"SoundDuration":377358,"Delta":152939136},{"NoteNumber":74,"Velocity":52,"Duration":377358,"SoundDuration":377358,"Delta":152939136},{"NoteNumber":67,"Velocity":43,"Duration":377358,"SoundDuration":377358,"Delta":152939136},{"NoteNumber":63,"Velocity":35,"Duration":377358,"SoundDuration":377358,"Delta":153316494},{"NoteNumber":60,"Velocity":35,"Duration":377358,"SoundDuration":377358,"Delta":153316494},{"NoteNumber":72,"Velocity":48,"Duration":188679,"SoundDuration":188679,"Delta":153316494},{"NoteNumber":69,"Velocity":40,"Duration":377358,"SoundDuration":377358,"Delta":153316494},{"NoteNumber":74,"Velocity":44,"Duration":188679,"SoundDuration":188679,"Delta":153505174},{"NoteNumber":70,"Velocity":49,"Duration":392567,"SoundDuration":392567,"Delta":153693853},{"NoteNumber":62,"Velocity":41,"Duration":392567,"SoundDuration":392567,"Delta":153693853},{"NoteNumber":65,"Velocity":41,"Duration":392567,"SoundDuration":392567,"Delta":153693853},{"NoteNumber":69,"Velocity":38,"Duration":411409,"SoundDuration":411409,"Delta":154086420},{"NoteNumber":72,"Velocity":46,"Duration":411409,"SoundDuration":411409,"Delta":154086420},{"NoteNumber":60,"Velocity":38,"Duration":411409,"SoundDuration":411409,"Delta":154086420},{"NoteNumber":63,"Velocity":38,"Duration":411409,"SoundDuration":411409,"Delta":154086420},{"NoteNumber":65,"Velocity":42,"Duration":408163,"SoundDuration":408163,"Delta":154497830},{"NoteNumber":74,"Velocity":50,"Duration":408163,"SoundDuration":408163,"Delta":154497830},{"NoteNumber":62,"Velocity":35,"Duration":408163,"SoundDuration":408163,"Delta":154497830},{"NoteNumber":58,"Velocity":29,"Duration":408163,"SoundDuration":408163,"Delta":154497830},{"NoteNumber":67,"Velocity":43,"Duration":425532,"SoundDuration":425532,"Delta":154905994},{"NoteNumber":76,"Velocity":52,"Duration":425532,"SoundDuration":425532,"Delta":154905994},{"NoteNumber":57,"Velocity":28,"Duration":425532,"SoundDuration":425532,"Delta":154905994},{"NoteNumber":61,"Velocity":34,"Duration":425532,"SoundDuration":425532,"Delta":154905994},{"NoteNumber":73,"Velocity":46,"Duration":408163,"SoundDuration":408163,"Delta":155331526},{"NoteNumber":76,"Velocity":55,"Duration":408163,"SoundDuration":408163,"Delta":155331526},{"NoteNumber":67,"Velocity":38,"Duration":852608,"SoundDuration":852608,"Delta":155331526},{"NoteNumber":57,"Velocity":32,"Duration":852608,"SoundDuration":852608,"Delta":155331526},{"NoteNumber":61,"Velocity":38,"Duration":852608,"SoundDuration":852608,"Delta":155331526},{"NoteNumber":74,"Velocity":37,"Duration":111111,"SoundDuration":111111,"Delta":155739689},{"NoteNumber":78,"Velocity":44,"Duration":111111,"SoundDuration":111111,"Delta":155739689},{"NoteNumber":73,"Velocity":34,"Duration":111111,"SoundDuration":111111,"Delta":155850801},{"NoteNumber":76,"Velocity":40,"Duration":111111,"SoundDuration":111111,"Delta":155850801},{"NoteNumber":71,"Velocity":37,"Duration":111111,"SoundDuration":111111,"Delta":155961912},{"NoteNumber":74,"Velocity":44,"Duration":111111,"SoundDuration":111111,"Delta":155961912},{"NoteNumber":73,"Velocity":34,"Duration":111111,"SoundDuration":111111,"Delta":156073023},{"NoteNumber":76,"Velocity":40,"Duration":111111,"SoundDuration":111111,"Delta":156073023},{"NoteNumber":66,"Velocity":34,"Duration":888889,"SoundDuration":888889,"Delta":156184134},{"NoteNumber":74,"Velocity":34,"Duration":888889,"SoundDuration":888889,"Delta":156184134},{"NoteNumber":78,"Velocity":42,"Duration":888889,"SoundDuration":888889,"Delta":156184134},{"NoteNumber":50,"Velocity":24,"Duration":888889,"SoundDuration":888889,"Delta":156184134},{"NoteNumber":57,"Velocity":30,"Duration":888889,"SoundDuration":888889,"Delta":156184134},{"NoteNumber":74,"Velocity":60,"Duration":827585,"SoundDuration":827585,"Delta":157073023},{"NoteNumber":72,"Velocity":55,"Duration":808529,"SoundDuration":808529,"Delta":157486816},{"NoteNumber":82,"Velocity":60,"Duration":197368,"SoundDuration":197368,"Delta":157900609},{"NoteNumber":81,"Velocity":57,"Duration":197368,"SoundDuration":197368,"Delta":158097977},{"NoteNumber":79,"Velocity":60,"Duration":372670,"SoundDuration":372670,"Delta":158295346},{"NoteNumber":70,"Velocity":53,"Duration":372670,"SoundDuration":372670,"Delta":158295346},{"NoteNumber":77,"Velocity":56,"Duration":186335,"SoundDuration":186335,"Delta":158668017},{"NoteNumber":69,"Velocity":48,"Duration":372670,"SoundDuration":372670,"Delta":158668017},{"NoteNumber":79,"Velocity":49,"Duration":186335,"SoundDuration":186335,"Delta":158854352},{"NoteNumber":77,"Velocity":55,"Duration":197368,"SoundDuration":197368,"Delta":159040688},{"NoteNumber":65,"Velocity":37,"Duration":394736,"SoundDuration":394736,"Delta":159040688},{"NoteNumber":75,"Velocity":52,"Duration":197368,"SoundDuration":197368,"Delta":159238056},{"NoteNumber":74,"Velocity":62,"Duration":394737,"SoundDuration":394737,"Delta":159435425},{"NoteNumber":70,"Velocity":51,"Duration":394737,"SoundDuration":394737,"Delta":159435425},{"NoteNumber":74,"Velocity":53,"Duration":394736,"SoundDuration":394736,"Delta":159830162},{"NoteNumber":69,"Velocity":39,"Duration":394736,"SoundDuration":394736,"Delta":159830162},{"NoteNumber":70,"Velocity":59,"Duration":392567,"SoundDuration":392567,"Delta":160224899},{"NoteNumber":67,"Velocity":49,"Duration":392567,"SoundDuration":392567,"Delta":160224899},{"NoteNumber":65,"Velocity":46,"Duration":411409,"SoundDuration":411409,"Delta":160617466},{"NoteNumber":72,"Velocity":55,"Duration":411409,"SoundDuration":411409,"Delta":160617466},{"NoteNumber":70,"Velocity":48,"Duration":201342,"SoundDuration":201342,"Delta":161028876},{"NoteNumber":74,"Velocity":58,"Duration":201342,"SoundDuration":201342,"Delta":161028876},{"NoteNumber":58,"Velocity":46,"Duration":402684,"SoundDuration":402684,"Delta":161028876},{"NoteNumber":72,"Velocity":42,"Duration":201342,"SoundDuration":201342,"Delta":161230219},{"NoteNumber":75,"Velocity":42,"Duration":201342,"SoundDuration":201342,"Delta":161230219},{"NoteNumber":70,"Velocity":44,"Duration":833494,"SoundDuration":833494,"Delta":161431561},{"NoteNumber":74,"Velocity":53,"Duration":833494,"SoundDuration":833494,"Delta":161431561},{"NoteNumber":57,"Velocity":46,"Duration":422535,"SoundDuration":422535,"Delta":161431561},{"NoteNumber":55,"Velocity":41,"Duration":410958,"SoundDuration":410958,"Delta":161854096},{"NoteNumber":70,"Velocity":46,"Duration":444444,"SoundDuration":444444,"Delta":162265055},{"NoteNumber":74,"Velocity":55,"Duration":444444,"SoundDuration":444444,"Delta":162265055},{"NoteNumber":53,"Velocity":40,"Duration":444444,"SoundDuration":444444,"Delta":162265055},{"NoteNumber":67,"Velocity":50,"Duration":833333,"SoundDuration":833333,"Delta":162709499},{"NoteNumber":74,"Velocity":50,"Duration":833333,"SoundDuration":833333,"Delta":162709499},{"NoteNumber":79,"Velocity":60,"Duration":833333,"SoundDuration":833333,"Delta":162709499},{"NoteNumber":58,"Velocity":46,"Duration":833333,"SoundDuration":833333,"Delta":162709499},{"NoteNumber":52,"Velocity":46,"Duration":833333,"SoundDuration":833333,"Delta":162709499},{"NoteNumber":72,"Velocity":50,"Duration":802756,"SoundDuration":802756,"Delta":163542832},{"NoteNumber":65,"Velocity":42,"Duration":198675,"SoundDuration":198675,"Delta":163542832},{"NoteNumber":77,"Velocity":50,"Duration":198675,"SoundDuration":198675,"Delta":163542832},{"NoteNumber":51,"Velocity":36,"Duration":802756,"SoundDuration":802756,"Delta":163542832},{"NoteNumber":57,"Velocity":36,"Duration":802756,"SoundDuration":802756,"Delta":163542832},{"NoteNumber":79,"Velocity":44,"Duration":198675,"SoundDuration":198675,"Delta":163741508},{"NoteNumber":77,"Velocity":50,"Duration":202702,"SoundDuration":202702,"Delta":163940183},{"NoteNumber":71,"Velocity":42,"Duration":202702,"SoundDuration":202702,"Delta":164142886},{"NoteNumber":65,"Velocity":44,"Duration":400000,"SoundDuration":400000,"Delta":164345589},{"NoteNumber":71,"Velocity":53,"Duration":400000,"SoundDuration":400000,"Delta":164345589},{"NoteNumber":50,"Velocity":36,"Duration":400000,"SoundDuration":400000,"Delta":164345589},{"NoteNumber":56,"Velocity":42,"Duration":400000,"SoundDuration":400000,"Delta":164345589},{"NoteNumber":67,"Velocity":39,"Duration":400000,"SoundDuration":400000,"Delta":164745589},{"NoteNumber":72,"Velocity":47,"Duration":400000,"SoundDuration":400000,"Delta":164745589},{"NoteNumber":51,"Velocity":33,"Duration":400000,"SoundDuration":400000,"Delta":164745589},{"NoteNumber":55,"Velocity":39,"Duration":400000,"SoundDuration":400000,"Delta":164745589},{"NoteNumber":69,"Velocity":42,"Duration":410958,"SoundDuration":410958,"Delta":165145589},{"NoteNumber":74,"Velocity":50,"Duration":410958,"SoundDuration":410958,"Delta":165145589},{"NoteNumber":50,"Velocity":33,"Duration":410958,"SoundDuration":410958,"Delta":165145589},{"NoteNumber":54,"Velocity":39,"Duration":410958,"SoundDuration":410958,"Delta":165145589},{"NoteNumber":62,"Velocity":41,"Duration":428571,"SoundDuration":428571,"Delta":165556548},{"NoteNumber":67,"Velocity":46,"Duration":428571,"SoundDuration":428571,"Delta":165556548},{"NoteNumber":46,"Velocity":30,"Duration":428571,"SoundDuration":428571,"Delta":165556548},{"NoteNumber":55,"Velocity":36,"Duration":428571,"SoundDuration":428571,"Delta":165556548},{"NoteNumber":63,"Velocity":42,"Duration":821918,"SoundDuration":821918,"Delta":165985119},{"NoteNumber":69,"Velocity":50,"Duration":410958,"SoundDuration":410958,"Delta":165985119},{"NoteNumber":48,"Velocity":36,"Duration":821918,"SoundDuration":821918,"Delta":165985119},{"NoteNumber":55,"Velocity":42,"Duration":821918,"SoundDuration":821918,"Delta":165985119},{"NoteNumber":70,"Velocity":47,"Duration":410959,"SoundDuration":410959,"Delta":166396078},{"NoteNumber":62,"Velocity":42,"Duration":821917,"SoundDuration":821917,"Delta":166807037},{"NoteNumber":69,"Velocity":50,"Duration":410958,"SoundDuration":410958,"Delta":166807037},{"NoteNumber":46,"Velocity":33,"Duration":821917,"SoundDuration":821917,"Delta":166807037},{"NoteNumber":55,"Velocity":41,"Duration":821917,"SoundDuration":821917,"Delta":166807037},{"NoteNumber":67,"Velocity":46,"Duration":410958,"SoundDuration":410958,"Delta":167217996},{"NoteNumber":60,"Velocity":42,"Duration":422535,"SoundDuration":422535,"Delta":167628955},{"NoteNumber":63,"Velocity":50,"Duration":422535,"SoundDuration":422535,"Delta":167628955},{"NoteNumber":69,"Velocity":50,"Duration":422535,"SoundDuration":422535,"Delta":167628955},{"NoteNumber":48,"Velocity":42,"Duration":422535,"SoundDuration":422535,"Delta":167628955},{"NoteNumber":58,"Velocity":38,"Duration":444444,"SoundDuration":444444,"Delta":168051490},{"NoteNumber":67,"Velocity":45,"Duration":444444,"SoundDuration":444444,"Delta":168051490},{"NoteNumber":51,"Velocity":33,"Duration":444444,"SoundDuration":444444,"Delta":168051490},{"NoteNumber":67,"Velocity":40,"Duration":63025,"SoundDuration":63025,"Delta":168495935},{"NoteNumber":60,"Velocity":32,"Duration":1686717,"SoundDuration":1686717,"Delta":168495935},{"NoteNumber":38,"Velocity":39,"Duration":1048419,"SoundDuration":1048419,"Delta":168495935},{"NoteNumber":66,"Velocity":34,"Duration":63025,"SoundDuration":63025,"Delta":168558960},{"NoteNumber":67,"Velocity":41,"Duration":63025,"SoundDuration":63025,"Delta":168621985},{"NoteNumber":66,"Velocity":36,"Duration":63025,"SoundDuration":63025,"Delta":168685010},{"NoteNumber":64,"Velocity":37,"Duration":240000,"SoundDuration":240000,"Delta":168748036},{"NoteNumber":66,"Velocity":47,"Duration":267857,"SoundDuration":267857,"Delta":168988036},{"NoteNumber":67,"Velocity":42,"Duration":288461,"SoundDuration":288461,"Delta":169255893},{"NoteNumber":67,"Velocity":47,"Duration":1276596,"SoundDuration":1276596,"Delta":169544354},{"NoteNumber":31,"Velocity":35,"Duration":1276596,"SoundDuration":1276596,"Delta":169544354},{"NoteNumber":57,"Velocity":31,"Duration":638298,"SoundDuration":638298,"Delta":170182652},{"NoteNumber":79,"Velocity":30,"Duration":821918,"SoundDuration":821918,"Delta":170820950},{"NoteNumber":58,"Velocity":30,"Duration":1232877,"SoundDuration":1232877,"Delta":170820950},{"NoteNumber":62,"Velocity":41,"Duration":181598,"SoundDuration":181598,"Delta":172053827},{"NoteNumber":59,"Velocity":38,"Duration":356803,"SoundDuration":356803,"Delta":172235425},{"NoteNumber":67,"Velocity":45,"Duration":356803,"SoundDuration":356803,"Delta":172235425},{"NoteNumber":43,"Velocity":25,"Duration":1382225,"SoundDuration":1382225,"Delta":172235425},{"NoteNumber":50,"Velocity":30,"Duration":1382225,"SoundDuration":1382225,"Delta":172235425},{"NoteNumber":67,"Velocity":39,"Duration":342857,"SoundDuration":342857,"Delta":172592228},{"NoteNumber":86,"Velocity":42,"Duration":682565,"SoundDuration":682565,"Delta":172935085},{"NoteNumber":59,"Velocity":37,"Duration":163523,"SoundDuration":163523,"Delta":172935085},{"NoteNumber":67,"Velocity":45,"Duration":163523,"SoundDuration":163523,"Delta":172935085},{"NoteNumber":69,"Velocity":36,"Duration":167242,"SoundDuration":167242,"Delta":173098609},{"NoteNumber":71,"Velocity":40,"Duration":163523,"SoundDuration":163523,"Delta":173265852},{"NoteNumber":72,"Velocity":36,"Duration":138069,"SoundDuration":138069,"Delta":173429375},{"NoteNumber":72,"Velocity":39,"Duration":86924,"SoundDuration":86924,"Delta":173574617},{"NoteNumber":62,"Velocity":38,"Duration":351123,"SoundDuration":351123,"Delta":173617651},{"NoteNumber":71,"Velocity":45,"Duration":351123,"SoundDuration":351123,"Delta":173617651},{"NoteNumber":43,"Velocity":27,"Duration":1395367,"SoundDuration":1395367,"Delta":173617651},{"NoteNumber":50,"Velocity":32,"Duration":1395367,"SoundDuration":1395367,"Delta":173617651},{"NoteNumber":69,"Velocity":35,"Duration":170998,"SoundDuration":170998,"Delta":173968775},{"NoteNumber":71,"Velocity":34,"Duration":170998,"SoundDuration":170998,"Delta":174139773},{"NoteNumber":86,"Velocity":40,"Duration":702246,"SoundDuration":702246,"Delta":174310772},{"NoteNumber":59,"Velocity":34,"Duration":526685,"SoundDuration":526685,"Delta":174310772},{"NoteNumber":67,"Velocity":40,"Duration":526685,"SoundDuration":526685,"Delta":174310772},{"NoteNumber":64,"Velocity":42,"Duration":175561,"SoundDuration":175561,"Delta":174837457},{"NoteNumber":60,"Velocity":38,"Duration":356803,"SoundDuration":356803,"Delta":175013019},{"NoteNumber":69,"Velocity":45,"Duration":356803,"SoundDuration":356803,"Delta":175013019},{"NoteNumber":43,"Velocity":25,"Duration":1370005,"SoundDuration":1370005,"Delta":175013019},{"NoteNumber":50,"Velocity":30,"Duration":1370005,"SoundDuration":1370005,"Delta":175013019},{"NoteNumber":69,"Velocity":40,"Duration":329670,"SoundDuration":329670,"Delta":175369822},{"NoteNumber":86,"Velocity":42,"Duration":683531,"SoundDuration":683531,"Delta":175699493},{"NoteNumber":60,"Velocity":37,"Duration":162619,"SoundDuration":162619,"Delta":175699493},{"NoteNumber":69,"Velocity":45,"Duration":162619,"SoundDuration":162619,"Delta":175699493},{"NoteNumber":71,"Velocity":35,"Duration":168199,"SoundDuration":168199,"Delta":175862112},{"NoteNumber":72,"Velocity":40,"Duration":164437,"SoundDuration":164437,"Delta":176030311},{"NoteNumber":74,"Velocity":36,"Duration":138069,"SoundDuration":138069,"Delta":176194749},{"NoteNumber":74,"Velocity":39,"Duration":86924,"SoundDuration":86924,"Delta":176339990},{"NoteNumber":64,"Velocity":38,"Duration":351123,"SoundDuration":351123,"Delta":176383025},{"NoteNumber":72,"Velocity":45,"Duration":351123,"SoundDuration":351123,"Delta":176383025},{"NoteNumber":43,"Velocity":27,"Duration":1407440,"SoundDuration":1407440,"Delta":176383025},{"NoteNumber":50,"Velocity":32,"Duration":1407440,"SoundDuration":1407440,"Delta":176383025},{"NoteNumber":71,"Velocity":36,"Duration":170998,"SoundDuration":170998,"Delta":176734148},{"NoteNumber":72,"Velocity":34,"Duration":170998,"SoundDuration":170998,"Delta":176905147},{"NoteNumber":86,"Velocity":40,"Duration":714319,"SoundDuration":714319,"Delta":177076146},{"NoteNumber":60,"Velocity":34,"Duration":532721,"SoundDuration":532721,"Delta":177076146},{"NoteNumber":69,"Velocity":40,"Duration":532721,"SoundDuration":532721,"Delta":177076146},{"NoteNumber":67,"Velocity":42,"Duration":181597,"SoundDuration":181597,"Delta":177608867},{"NoteNumber":60,"Velocity":38,"Duration":356803,"SoundDuration":356803,"Delta":177790465},{"NoteNumber":66,"Velocity":45,"Duration":356803,"SoundDuration":356803,"Delta":177790465},{"NoteNumber":43,"Velocity":25,"Duration":1401779,"SoundDuration":1401779,"Delta":177790465},{"NoteNumber":50,"Velocity":30,"Duration":1401779,"SoundDuration":1401779,"Delta":177790465},{"NoteNumber":66,"Velocity":43,"Duration":301239,"SoundDuration":301239,"Delta":178147268},{"NoteNumber":67,"Velocity":37,"Duration":43034,"SoundDuration":43034,"Delta":178448507},{"NoteNumber":86,"Velocity":42,"Duration":700703,"SoundDuration":700703,"Delta":178491542},{"NoteNumber":60,"Velocity":37,"Duration":170145,"SoundDuration":170145,"Delta":178491542},{"NoteNumber":66,"Velocity":45,"Duration":170145,"SoundDuration":170145,"Delta":178491542},{"NoteNumber":62,"Velocity":36,"Duration":170145,"SoundDuration":170145,"Delta":178661687},{"NoteNumber":64,"Velocity":40,"Duration":172136,"SoundDuration":172136,"Delta":178831832},{"NoteNumber":66,"Velocity":36,"Duration":188276,"SoundDuration":188276,"Delta":179003969},{"NoteNumber":59,"Velocity":38,"Duration":722892,"SoundDuration":722892,"Delta":179192245},{"NoteNumber":67,"Velocity":45,"Duration":722892,"SoundDuration":722892,"Delta":179192245},{"NoteNumber":43,"Velocity":25,"Duration":1415565,"SoundDuration":1415565,"Delta":179192245},{"NoteNumber":50,"Velocity":30,"Duration":1415565,"SoundDuration":1415565,"Delta":179192245},{"NoteNumber":86,"Velocity":42,"Duration":692673,"SoundDuration":692673,"Delta":179915137},{"NoteNumber":62,"Velocity":44,"Duration":176263,"SoundDuration":176263,"Delta":180431547},{"NoteNumber":67,"Velocity":48,"Duration":356803,"SoundDuration":356803,"Delta":180607810},{"NoteNumber":59,"Velocity":40,"Duration":356803,"SoundDuration":356803,"Delta":180607810},{"NoteNumber":43,"Velocity":27,"Duration":1376797,"SoundDuration":1376797,"Delta":180607810},{"NoteNumber":50,"Velocity":32,"Duration":1376797,"SoundDuration":1376797,"Delta":180607810},{"NoteNumber":67,"Velocity":45,"Duration":338333,"SoundDuration":338333,"Delta":180964613},{"NoteNumber":59,"Velocity":40,"Duration":163523,"SoundDuration":163523,"Delta":181302946},{"NoteNumber":67,"Velocity":47,"Duration":163523,"SoundDuration":163523,"Delta":181302946},{"NoteNumber":86,"Velocity":44,"Duration":681661,"SoundDuration":681661,"Delta":181302946},{"NoteNumber":69,"Velocity":38,"Duration":167242,"SoundDuration":167242,"Delta":181466470},{"NoteNumber":71,"Velocity":43,"Duration":162619,"SoundDuration":162619,"Delta":181633713},{"NoteNumber":72,"Velocity":38,"Duration":138069,"SoundDuration":138069,"Delta":181796332},{"NoteNumber":72,"Velocity":41,"Duration":86924,"SoundDuration":86924,"Delta":181941574},{"NoteNumber":62,"Velocity":40,"Duration":351123,"SoundDuration":351123,"Delta":181984608},{"NoteNumber":71,"Velocity":48,"Duration":351123,"SoundDuration":351123,"Delta":181984608},{"NoteNumber":43,"Velocity":28,"Duration":1395367,"SoundDuration":1395367,"Delta":181984608},{"NoteNumber":50,"Velocity":34,"Duration":1395367,"SoundDuration":1395367,"Delta":181984608},{"NoteNumber":69,"Velocity":38,"Duration":170998,"SoundDuration":170998,"Delta":182335731},{"NoteNumber":71,"Velocity":36,"Duration":170998,"SoundDuration":170998,"Delta":182506730},{"NoteNumber":86,"Velocity":42,"Duration":702246,"SoundDuration":702246,"Delta":182677729},{"NoteNumber":67,"Velocity":42,"Duration":526685,"SoundDuration":526685,"Delta":182677729},{"NoteNumber":59,"Velocity":36,"Duration":526685,"SoundDuration":526685,"Delta":182677729},{"NoteNumber":64,"Velocity":44,"Duration":175561,"SoundDuration":175561,"Delta":183204414},{"NoteNumber":69,"Velocity":48,"Duration":356803,"SoundDuration":356803,"Delta":183379976},{"NoteNumber":60,"Velocity":40,"Duration":356803,"SoundDuration":356803,"Delta":183379976},{"NoteNumber":50,"Velocity":32,"Duration":1376797,"SoundDuration":1376797,"Delta":183379976},{"NoteNumber":43,"Velocity":27,"Duration":1376797,"SoundDuration":1376797,"Delta":183379976},{"NoteNumber":69,"Velocity":42,"Duration":338333,"SoundDuration":338333,"Delta":183736779},{"NoteNumber":60,"Velocity":40,"Duration":163523,"SoundDuration":163523,"Delta":184075112},{"NoteNumber":69,"Velocity":47,"Duration":163523,"SoundDuration":163523,"Delta":184075112},{"NoteNumber":86,"Velocity":44,"Duration":681661,"SoundDuration":681661,"Delta":184075112},{"NoteNumber":71,"Velocity":38,"Duration":167242,"SoundDuration":167242,"Delta":184238635},{"NoteNumber":72,"Velocity":43,"Duration":162619,"SoundDuration":162619,"Delta":184405878},{"NoteNumber":74,"Velocity":38,"Duration":138069,"SoundDuration":138069,"Delta":184568497},{"NoteNumber":74,"Velocity":41,"Duration":86924,"SoundDuration":86924,"Delta":184713739},{"NoteNumber":72,"Velocity":48,"Duration":351123,"SoundDuration":351123,"Delta":184756773},{"NoteNumber":64,"Velocity":40,"Duration":351123,"SoundDuration":351123,"Delta":184756773},{"NoteNumber":50,"Velocity":34,"Duration":1413476,"SoundDuration":1413476,"Delta":184756773},{"NoteNumber":43,"Velocity":28,"Duration":1413476,"SoundDuration":1413476,"Delta":184756773},{"NoteNumber":71,"Velocity":38,"Duration":170998,"SoundDuration":170998,"Delta":185107897},{"NoteNumber":72,"Velocity":36,"Duration":170998,"SoundDuration":170998,"Delta":185278896},{"NoteNumber":86,"Velocity":42,"Duration":720355,"SoundDuration":720355,"Delta":185449894},{"NoteNumber":60,"Velocity":36,"Duration":538757,"SoundDuration":538757,"Delta":185449894},{"NoteNumber":69,"Velocity":42,"Duration":538757,"SoundDuration":538757,"Delta":185449894},{"NoteNumber":67,"Velocity":44,"Duration":181598,"SoundDuration":181598,"Delta":185988652},{"NoteNumber":60,"Velocity":40,"Duration":356803,"SoundDuration":356803,"Delta":186170250},{"NoteNumber":66,"Velocity":48,"Duration":356803,"SoundDuration":356803,"Delta":186170250},{"NoteNumber":43,"Velocity":27,"Duration":1401779,"SoundDuration":1401779,"Delta":186170250},{"NoteNumber":50,"Velocity":32,"Duration":1401779,"SoundDuration":1401779,"Delta":186170250},{"NoteNumber":66,"Velocity":45,"Duration":301239,"SoundDuration":301239,"Delta":186527053},{"NoteNumber":67,"Velocity":40,"Duration":43034,"SoundDuration":43034,"Delta":186828292},{"NoteNumber":60,"Velocity":40,"Duration":170145,"SoundDuration":170145,"Delta":186871327},{"NoteNumber":66,"Velocity":47,"Duration":170145,"SoundDuration":170145,"Delta":186871327},{"NoteNumber":86,"Velocity":44,"Duration":700703,"SoundDuration":700703,"Delta":186871327},{"NoteNumber":62,"Velocity":38,"Duration":170145,"SoundDuration":170145,"Delta":187041472},{"NoteNumber":64,"Velocity":43,"Duration":172136,"SoundDuration":172136,"Delta":187211617},{"NoteNumber":66,"Velocity":38,"Duration":188276,"SoundDuration":188276,"Delta":187383754},{"NoteNumber":67,"Velocity":48,"Duration":705052,"SoundDuration":705052,"Delta":187572030},{"NoteNumber":59,"Velocity":40,"Duration":705052,"SoundDuration":705052,"Delta":187572030},{"NoteNumber":43,"Velocity":27,"Duration":1408018,"SoundDuration":1408018,"Delta":187572030},{"NoteNumber":50,"Velocity":32,"Duration":1408018,"SoundDuration":1408018,"Delta":187572030},{"NoteNumber":86,"Velocity":44,"Duration":702965,"SoundDuration":702965,"Delta":188277083},{"NoteNumber":62,"Velocity":46,"Duration":174175,"SoundDuration":174175,"Delta":188805873},{"NoteNumber":67,"Velocity":51,"Duration":356803,"SoundDuration":356803,"Delta":188980048},{"NoteNumber":59,"Velocity":43,"Duration":356803,"SoundDuration":356803,"Delta":188980048},{"NoteNumber":43,"Velocity":28,"Duration":1377701,"SoundDuration":1377701,"Delta":188980048},{"NoteNumber":50,"Velocity":34,"Duration":1377701,"SoundDuration":1377701,"Delta":188980048},{"NoteNumber":67,"Velocity":44,"Duration":338333,"SoundDuration":338333,"Delta":189336851},{"NoteNumber":59,"Velocity":42,"Duration":163523,"SoundDuration":163523,"Delta":189675184},{"NoteNumber":77,"Velocity":45,"Duration":682565,"SoundDuration":682565,"Delta":189675184},{"NoteNumber":67,"Velocity":50,"Duration":163523,"SoundDuration":163523,"Delta":189675184},{"NoteNumber":69,"Velocity":40,"Duration":167242,"SoundDuration":167242,"Delta":189838708},{"NoteNumber":71,"Velocity":45,"Duration":163523,"SoundDuration":163523,"Delta":190005950},{"NoteNumber":72,"Velocity":35,"Duration":138069,"SoundDuration":138069,"Delta":190169474},{"NoteNumber":72,"Velocity":44,"Duration":86924,"SoundDuration":86924,"Delta":190314716},{"NoteNumber":71,"Velocity":51,"Duration":351123,"SoundDuration":351123,"Delta":190357750},{"NoteNumber":62,"Velocity":43,"Duration":351123,"SoundDuration":351123,"Delta":190357750},{"NoteNumber":43,"Velocity":30,"Duration":1385721,"SoundDuration":1385721,"Delta":190357750},{"NoteNumber":50,"Velocity":36,"Duration":1385721,"SoundDuration":1385721,"Delta":190357750},{"NoteNumber":69,"Velocity":41,"Duration":170998,"SoundDuration":170998,"Delta":190708873},{"NoteNumber":71,"Velocity":37,"Duration":170998,"SoundDuration":170998,"Delta":190879872},{"NoteNumber":59,"Velocity":37,"Duration":519450,"SoundDuration":519450,"Delta":191050871},{"NoteNumber":67,"Velocity":45,"Duration":519450,"SoundDuration":519450,"Delta":191050871},{"NoteNumber":77,"Velocity":42,"Duration":692600,"SoundDuration":692600,"Delta":191050871},{"NoteNumber":64,"Velocity":47,"Duration":173150,"SoundDuration":173150,"Delta":191570322},{"NoteNumber":69,"Velocity":51,"Duration":342270,"SoundDuration":342270,"Delta":191743472},{"NoteNumber":60,"Velocity":43,"Duration":342270,"SoundDuration":342270,"Delta":191743472},{"NoteNumber":52,"Velocity":34,"Duration":1355472,"SoundDuration":1355472,"Delta":191743472},{"NoteNumber":43,"Velocity":28,"Duration":1355472,"SoundDuration":1355472,"Delta":191743472},{"NoteNumber":69,"Velocity":45,"Duration":329670,"SoundDuration":329670,"Delta":192085742},{"NoteNumber":60,"Velocity":44,"Duration":162619,"SoundDuration":162619,"Delta":192415413},{"NoteNumber":76,"Velocity":46,"Duration":683531,"SoundDuration":683531,"Delta":192415413},{"NoteNumber":69,"Velocity":51,"Duration":162619,"SoundDuration":162619,"Delta":192415413},{"NoteNumber":71,"Velocity":42,"Duration":168199,"SoundDuration":168199,"Delta":192578032},{"NoteNumber":72,"Velocity":48,"Duration":164437,"SoundDuration":164437,"Delta":192746231},{"NoteNumber":74,"Velocity":39,"Duration":138069,"SoundDuration":138069,"Delta":192910669},{"NoteNumber":74,"Velocity":47,"Duration":86321,"SoundDuration":86321,"Delta":193055911},{"NoteNumber":72,"Velocity":54,"Duration":346300,"SoundDuration":346300,"Delta":193098945},{"NoteNumber":64,"Velocity":46,"Duration":346300,"SoundDuration":346300,"Delta":193098945},{"NoteNumber":43,"Velocity":32,"Duration":1351693,"SoundDuration":1351693,"Delta":193098945},{"NoteNumber":52,"Velocity":38,"Duration":1351693,"SoundDuration":1351693,"Delta":193098945},{"NoteNumber":71,"Velocity":45,"Duration":166296,"SoundDuration":166296,"Delta":193445245},{"NoteNumber":72,"Velocity":41,"Duration":166297,"SoundDuration":166297,"Delta":193611542},{"NoteNumber":60,"Velocity":42,"Duration":507053,"SoundDuration":507053,"Delta":193777839},{"NoteNumber":69,"Velocity":51,"Duration":507053,"SoundDuration":507053,"Delta":193777839},{"NoteNumber":76,"Velocity":47,"Duration":672799,"SoundDuration":672799,"Delta":193777839},{"NoteNumber":67,"Velocity":56,"Duration":165745,"SoundDuration":165745,"Delta":194284893},{"NoteNumber":72,"Velocity":62,"Duration":350426,"SoundDuration":350426,"Delta":194450638},{"NoteNumber":64,"Velocity":52,"Duration":350426,"SoundDuration":350426,"Delta":194450638},{"NoteNumber":50,"Velocity":42,"Duration":1363628,"SoundDuration":1363628,"Delta":194450638},{"NoteNumber":43,"Velocity":35,"Duration":1363628,"SoundDuration":1363628,"Delta":194450638},{"NoteNumber":72,"Velocity":55,"Duration":329670,"SoundDuration":329670,"Delta":194801065},{"NoteNumber":64,"Velocity":53,"Duration":162619,"SoundDuration":162619,"Delta":195130735},{"NoteNumber":81,"Velocity":55,"Duration":683531,"SoundDuration":683531,"Delta":195130735},{"NoteNumber":72,"Velocity":63,"Duration":162619,"SoundDuration":162619,"Delta":195130735},{"NoteNumber":74,"Velocity":51,"Duration":168199,"SoundDuration":168199,"Delta":195293355},{"NoteNumber":76,"Velocity":58,"Duration":164437,"SoundDuration":164437,"Delta":195461554},{"NoteNumber":78,"Velocity":52,"Duration":138069,"SoundDuration":138069,"Delta":195625991},{"NoteNumber":78,"Velocity":56,"Duration":85817,"SoundDuration":85817,"Delta":195771233},{"NoteNumber":76,"Velocity":66,"Duration":342270,"SoundDuration":342270,"Delta":195814267},{"NoteNumber":67,"Velocity":55,"Duration":342270,"SoundDuration":342270,"Delta":195814267},{"NoteNumber":43,"Velocity":38,"Duration":1364967,"SoundDuration":1364967,"Delta":195814267},{"NoteNumber":50,"Velocity":46,"Duration":1364967,"SoundDuration":1364967,"Delta":195814267},{"NoteNumber":74,"Velocity":54,"Duration":165362,"SoundDuration":165362,"Delta":196156538},{"NoteNumber":76,"Velocity":50,"Duration":165362,"SoundDuration":165362,"Delta":196321900},{"NoteNumber":66,"Velocity":50,"Duration":519835,"SoundDuration":519835,"Delta":196487262},{"NoteNumber":72,"Velocity":61,"Duration":519835,"SoundDuration":519835,"Delta":196487262},{"NoteNumber":81,"Velocity":55,"Duration":691972,"SoundDuration":691972,"Delta":196487262},{"NoteNumber":74,"Velocity":67,"Duration":172136,"SoundDuration":172136,"Delta":197007098},{"NoteNumber":79,"Velocity":74,"Duration":354651,"SoundDuration":354651,"Delta":197179234},{"NoteNumber":71,"Velocity":62,"Duration":354651,"SoundDuration":354651,"Delta":197179234},{"NoteNumber":50,"Velocity":53,"Duration":1366052,"SoundDuration":1366052,"Delta":197179234},{"NoteNumber":43,"Velocity":44,"Duration":1366052,"SoundDuration":1366052,"Delta":197179234},{"NoteNumber":79,"Velocity":68,"Duration":327868,"SoundDuration":327868,"Delta":197533886},{"NoteNumber":71,"Velocity":65,"Duration":162619,"SoundDuration":162619,"Delta":197861755},{"NoteNumber":86,"Velocity":72,"Duration":683531,"SoundDuration":683531,"Delta":197861755},{"NoteNumber":79,"Velocity":76,"Duration":162619,"SoundDuration":162619,"Delta":197861755},{"NoteNumber":81,"Velocity":62,"Duration":168199,"SoundDuration":168199,"Delta":198024375},{"NoteNumber":83,"Velocity":70,"Duration":164437,"SoundDuration":164437,"Delta":198192574},{"NoteNumber":84,"Velocity":57,"Duration":138069,"SoundDuration":138069,"Delta":198357011},{"NoteNumber":84,"Velocity":67,"Duration":86924,"SoundDuration":86924,"Delta":198502253},{"NoteNumber":83,"Velocity":79,"Duration":351123,"SoundDuration":351123,"Delta":198545287},{"NoteNumber":74,"Velocity":66,"Duration":351123,"SoundDuration":351123,"Delta":198545287},{"NoteNumber":43,"Velocity":46,"Duration":1413476,"SoundDuration":1413476,"Delta":198545287},{"NoteNumber":50,"Velocity":55,"Duration":1413476,"SoundDuration":1413476,"Delta":198545287},{"NoteNumber":81,"Velocity":73,"Duration":170998,"SoundDuration":170998,"Delta":198896411},{"NoteNumber":83,"Velocity":69,"Duration":170998,"SoundDuration":170998,"Delta":199067410},{"NoteNumber":71,"Velocity":69,"Duration":538757,"SoundDuration":538757,"Delta":199238408},{"NoteNumber":79,"Velocity":84,"Duration":538757,"SoundDuration":538757,"Delta":199238408},{"NoteNumber":91,"Velocity":81,"Duration":720355,"SoundDuration":720355,"Delta":199238408},{"NoteNumber":62,"Velocity":64,"Duration":181598,"SoundDuration":181598,"Delta":199777166},{"NoteNumber":67,"Velocity":69,"Duration":356803,"SoundDuration":356803,"Delta":199958764},{"NoteNumber":59,"Velocity":57,"Duration":356803,"SoundDuration":356803,"Delta":199958764},{"NoteNumber":43,"Velocity":37,"Duration":1362583,"SoundDuration":1362583,"Delta":199958764},{"NoteNumber":50,"Velocity":46,"Duration":1362583,"SoundDuration":1362583,"Delta":199958764},{"NoteNumber":67,"Velocity":59,"Duration":329670,"SoundDuration":329670,"Delta":200315567},{"NoteNumber":59,"Velocity":56,"Duration":163523,"SoundDuration":163523,"Delta":200645238},{"NoteNumber":77,"Velocity":59,"Duration":676110,"SoundDuration":676110,"Delta":200645238},{"NoteNumber":67,"Velocity":68,"Duration":163523,"SoundDuration":163523,"Delta":200645238},{"NoteNumber":69,"Velocity":54,"Duration":167242,"SoundDuration":167242,"Delta":200808761},{"NoteNumber":71,"Velocity":60,"Duration":157068,"SoundDuration":157068,"Delta":200976004},{"NoteNumber":72,"Velocity":49,"Duration":138069,"SoundDuration":138069,"Delta":201133072},{"NoteNumber":72,"Velocity":59,"Duration":86924,"SoundDuration":86924,"Delta":201278314},{"NoteNumber":71,"Velocity":69,"Duration":351123,"SoundDuration":351123,"Delta":201321348},{"NoteNumber":62,"Velocity":57,"Duration":351123,"SoundDuration":351123,"Delta":201321348},{"NoteNumber":43,"Velocity":40,"Duration":1380802,"SoundDuration":1380802,"Delta":201321348},{"NoteNumber":50,"Velocity":48,"Duration":1380802,"SoundDuration":1380802,"Delta":201321348},{"NoteNumber":69,"Velocity":55,"Duration":168539,"SoundDuration":168539,"Delta":201672471},{"NoteNumber":71,"Velocity":51,"Duration":168539,"SoundDuration":168539,"Delta":201841011},{"NoteNumber":59,"Velocity":51,"Duration":519450,"SoundDuration":519450,"Delta":202009550},{"NoteNumber":67,"Velocity":60,"Duration":519450,"SoundDuration":519450,"Delta":202009550},{"NoteNumber":77,"Velocity":56,"Duration":692600,"SoundDuration":692600,"Delta":202009550},{"NoteNumber":64,"Velocity":64,"Duration":173150,"SoundDuration":173150,"Delta":202529001},{"NoteNumber":69,"Velocity":69,"Duration":342270,"SoundDuration":342270,"Delta":202702151},{"NoteNumber":60,"Velocity":57,"Duration":342270,"SoundDuration":342270,"Delta":202702151},{"NoteNumber":52,"Velocity":46,"Duration":1348103,"SoundDuration":1348103,"Delta":202702151},{"NoteNumber":43,"Velocity":37,"Duration":1348103,"SoundDuration":1348103,"Delta":202702151},{"NoteNumber":69,"Velocity":60,"Duration":329670,"SoundDuration":329670,"Delta":203044421},{"NoteNumber":60,"Velocity":56,"Duration":162619,"SoundDuration":162619,"Delta":203374092},{"NoteNumber":76,"Velocity":61,"Duration":676162,"SoundDuration":676162,"Delta":203374092},{"NoteNumber":69,"Velocity":69,"Duration":162619,"SoundDuration":162619,"Delta":203374092},{"NoteNumber":71,"Velocity":56,"Duration":168199,"SoundDuration":168199,"Delta":203536711},{"NoteNumber":72,"Velocity":60,"Duration":157068,"SoundDuration":157068,"Delta":203704910},{"NoteNumber":74,"Velocity":53,"Duration":138069,"SoundDuration":138069,"Delta":203861978},{"NoteNumber":74,"Velocity":64,"Duration":86321,"SoundDuration":86321,"Delta":204007220},{"NoteNumber":72,"Velocity":72,"Duration":346300,"SoundDuration":346300,"Delta":204050254},{"NoteNumber":64,"Velocity":59,"Duration":346300,"SoundDuration":346300,"Delta":204050254},{"NoteNumber":43,"Velocity":43,"Duration":1367862,"SoundDuration":1367862,"Delta":204050254},{"NoteNumber":52,"Velocity":52,"Duration":1367862,"SoundDuration":1367862,"Delta":204050254},{"NoteNumber":71,"Velocity":60,"Duration":166296,"SoundDuration":166296,"Delta":204396555},{"NoteNumber":72,"Velocity":55,"Duration":166297,"SoundDuration":166297,"Delta":204562852},{"NoteNumber":60,"Velocity":56,"Duration":517832,"SoundDuration":517832,"Delta":204729149},{"NoteNumber":69,"Velocity":69,"Duration":517832,"SoundDuration":517832,"Delta":204729149},{"NoteNumber":76,"Velocity":64,"Duration":688967,"SoundDuration":688967,"Delta":204729149},{"NoteNumber":67,"Velocity":65,"Duration":171135,"SoundDuration":171135,"Delta":205246981},{"NoteNumber":72,"Velocity":71,"Duration":350426,"SoundDuration":350426,"Delta":205418116},{"NoteNumber":64,"Velocity":59,"Duration":350426,"SoundDuration":350426,"Delta":205418116},{"NoteNumber":50,"Velocity":48,"Duration":1365748,"SoundDuration":1365748,"Delta":205418116},{"NoteNumber":43,"Velocity":40,"Duration":1365748,"SoundDuration":1365748,"Delta":205418116},{"NoteNumber":72,"Velocity":63,"Duration":338333,"SoundDuration":338333,"Delta":205768543},{"NoteNumber":64,"Velocity":61,"Duration":162619,"SoundDuration":162619,"Delta":206106876},{"NoteNumber":81,"Velocity":65,"Duration":676989,"SoundDuration":676989,"Delta":206106876},{"NoteNumber":72,"Velocity":72,"Duration":162619,"SoundDuration":162619,"Delta":206106876},{"NoteNumber":74,"Velocity":58,"Duration":168199,"SoundDuration":168199,"Delta":206269495},{"NoteNumber":76,"Velocity":67,"Duration":157894,"SoundDuration":157894,"Delta":206437694},{"NoteNumber":78,"Velocity":59,"Duration":138069,"SoundDuration":138069,"Delta":206595589},{"NoteNumber":78,"Velocity":65,"Duration":85817,"SoundDuration":85817,"Delta":206740831},{"NoteNumber":76,"Velocity":75,"Duration":342270,"SoundDuration":342270,"Delta":206783865},{"NoteNumber":67,"Velocity":63,"Duration":342270,"SoundDuration":342270,"Delta":206783865},{"NoteNumber":43,"Velocity":44,"Duration":1364967,"SoundDuration":1364967,"Delta":206783865},{"NoteNumber":50,"Velocity":53,"Duration":1364967,"SoundDuration":1364967,"Delta":206783865},{"NoteNumber":74,"Velocity":62,"Duration":165362,"SoundDuration":165362,"Delta":207126136},{"NoteNumber":76,"Velocity":57,"Duration":165362,"SoundDuration":165362,"Delta":207291498},{"NoteNumber":66,"Velocity":57,"Duration":519835,"SoundDuration":519835,"Delta":207456860},{"NoteNumber":72,"Velocity":70,"Duration":519835,"SoundDuration":519835,"Delta":207456860},{"NoteNumber":81,"Velocity":65,"Duration":691972,"SoundDuration":691972,"Delta":207456860},{"NoteNumber":74,"Velocity":68,"Duration":172136,"SoundDuration":172136,"Delta":207976695},{"NoteNumber":79,"Velocity":75,"Duration":354651,"SoundDuration":354651,"Delta":208148832},{"NoteNumber":71,"Velocity":63,"Duration":354651,"SoundDuration":354651,"Delta":208148832},{"NoteNumber":50,"Velocity":54,"Duration":1369147,"SoundDuration":1369147,"Delta":208148832},{"NoteNumber":43,"Velocity":45,"Duration":1369147,"SoundDuration":1369147,"Delta":208148832},{"NoteNumber":79,"Velocity":70,"Duration":338333,"SoundDuration":338333,"Delta":208503484},{"NoteNumber":71,"Velocity":67,"Duration":162619,"SoundDuration":162619,"Delta":208841817},{"NoteNumber":86,"Velocity":70,"Duration":676162,"SoundDuration":676162,"Delta":208841817},{"NoteNumber":79,"Velocity":78,"Duration":162619,"SoundDuration":162619,"Delta":208841817},{"NoteNumber":81,"Velocity":63,"Duration":168199,"SoundDuration":168199,"Delta":209004436},{"NoteNumber":83,"Velocity":70,"Duration":157068,"SoundDuration":157068,"Delta":209172636},{"NoteNumber":84,"Velocity":63,"Duration":138069,"SoundDuration":138069,"Delta":209329704},{"NoteNumber":84,"Velocity":68,"Duration":86924,"SoundDuration":86924,"Delta":209474945},{"NoteNumber":83,"Velocity":81,"Duration":351123,"SoundDuration":351123,"Delta":209517980},{"NoteNumber":74,"Velocity":68,"Duration":351123,"SoundDuration":351123,"Delta":209517980},{"NoteNumber":43,"Velocity":48,"Duration":1413476,"SoundDuration":1413476,"Delta":209517980},{"NoteNumber":50,"Velocity":55,"Duration":1413476,"SoundDuration":1413476,"Delta":209517980},{"NoteNumber":81,"Velocity":75,"Duration":170998,"SoundDuration":170998,"Delta":209869103},{"NoteNumber":83,"Velocity":71,"Duration":170998,"SoundDuration":170998,"Delta":210040102},{"NoteNumber":71,"Velocity":71,"Duration":720355,"SoundDuration":720355,"Delta":210211101},{"NoteNumber":79,"Velocity":87,"Duration":720355,"SoundDuration":720355,"Delta":210211101},{"NoteNumber":91,"Velocity":78,"Duration":720355,"SoundDuration":720355,"Delta":210211101},{"NoteNumber":57,"Velocity":71,"Duration":172136,"SoundDuration":172136,"Delta":210931456},{"NoteNumber":62,"Velocity":62,"Duration":172136,"SoundDuration":172136,"Delta":210931456},{"NoteNumber":43,"Velocity":39,"Duration":1408417,"SoundDuration":1408417,"Delta":210931456},{"NoteNumber":50,"Velocity":47,"Duration":1408417,"SoundDuration":1408417,"Delta":210931456},{"NoteNumber":59,"Velocity":60,"Duration":172136,"SoundDuration":172136,"Delta":211103593},{"NoteNumber":60,"Velocity":59,"Duration":172136,"SoundDuration":172136,"Delta":211275730},{"NoteNumber":62,"Velocity":54,"Duration":178401,"SoundDuration":178401,"Delta":211447867},{"NoteNumber":74,"Velocity":68,"Duration":713605,"SoundDuration":713605,"Delta":211626268},{"NoteNumber":64,"Velocity":59,"Duration":342857,"SoundDuration":342857,"Delta":212339874},{"NoteNumber":72,"Velocity":70,"Duration":342857,"SoundDuration":342857,"Delta":212339874},{"NoteNumber":43,"Velocity":47,"Duration":342857,"SoundDuration":342857,"Delta":212339874},{"NoteNumber":62,"Velocity":52,"Duration":179490,"SoundDuration":179490,"Delta":212682731},{"NoteNumber":71,"Velocity":62,"Duration":179490,"SoundDuration":179490,"Delta":212682731},{"NoteNumber":43,"Velocity":40,"Duration":179490,"SoundDuration":179490,"Delta":212682731},{"NoteNumber":64,"Velocity":46,"Duration":179490,"SoundDuration":179490,"Delta":212862221},{"NoteNumber":72,"Velocity":55,"Duration":179490,"SoundDuration":179490,"Delta":212862221},{"NoteNumber":50,"Velocity":40,"Duration":179490,"SoundDuration":179490,"Delta":212862221},{"NoteNumber":60,"Velocity":52,"Duration":709304,"SoundDuration":709304,"Delta":213041712},{"NoteNumber":69,"Velocity":62,"Duration":709304,"SoundDuration":709304,"Delta":213041712},{"NoteNumber":43,"Velocity":47,"Duration":354651,"SoundDuration":354651,"Delta":213041712},{"NoteNumber":38,"Velocity":41,"Duration":354652,"SoundDuration":354652,"Delta":213396364},{"NoteNumber":57,"Velocity":71,"Duration":172136,"SoundDuration":172136,"Delta":213751016},{"NoteNumber":62,"Velocity":62,"Duration":172136,"SoundDuration":172136,"Delta":213751016},{"NoteNumber":43,"Velocity":39,"Duration":1408417,"SoundDuration":1408417,"Delta":213751016},{"NoteNumber":50,"Velocity":47,"Duration":1408417,"SoundDuration":1408417,"Delta":213751016},{"NoteNumber":59,"Velocity":60,"Duration":172136,"SoundDuration":172136,"Delta":213923152},{"NoteNumber":60,"Velocity":59,"Duration":172136,"SoundDuration":172136,"Delta":214095289},{"NoteNumber":62,"Velocity":56,"Duration":178401,"SoundDuration":178401,"Delta":214267426},{"NoteNumber":74,"Velocity":68,"Duration":713605,"SoundDuration":713605,"Delta":214445827},{"NoteNumber":62,"Velocity":59,"Duration":340909,"SoundDuration":340909,"Delta":215159433},{"NoteNumber":71,"Velocity":70,"Duration":340909,"SoundDuration":340909,"Delta":215159433},{"NoteNumber":43,"Velocity":47,"Duration":340909,"SoundDuration":340909,"Delta":215159433},{"NoteNumber":60,"Velocity":52,"Duration":179490,"SoundDuration":179490,"Delta":215500342},{"NoteNumber":69,"Velocity":62,"Duration":179490,"SoundDuration":179490,"Delta":215500342},{"NoteNumber":43,"Velocity":40,"Duration":179490,"SoundDuration":179490,"Delta":215500342},{"NoteNumber":62,"Velocity":46,"Duration":179490,"SoundDuration":179490,"Delta":215679833},{"NoteNumber":71,"Velocity":55,"Duration":179490,"SoundDuration":179490,"Delta":215679833},{"NoteNumber":50,"Velocity":40,"Duration":179490,"SoundDuration":179490,"Delta":215679833},{"NoteNumber":59,"Velocity":52,"Duration":709304,"SoundDuration":709304,"Delta":215859323},{"NoteNumber":67,"Velocity":62,"Duration":709304,"SoundDuration":709304,"Delta":215859323},{"NoteNumber":43,"Velocity":40,"Duration":354651,"SoundDuration":354651,"Delta":215859323},{"NoteNumber":55,"Velocity":47,"Duration":354651,"SoundDuration":354651,"Delta":215859323},{"NoteNumber":38,"Velocity":39,"Duration":354652,"SoundDuration":354652,"Delta":216213975},{"NoteNumber":57,"Velocity":58,"Duration":172136,"SoundDuration":172136,"Delta":216568627},{"NoteNumber":62,"Velocity":51,"Duration":172136,"SoundDuration":172136,"Delta":216568627},{"NoteNumber":43,"Velocity":32,"Duration":1408417,"SoundDuration":1408417,"Delta":216568627},{"NoteNumber":50,"Velocity":38,"Duration":1408417,"SoundDuration":1408417,"Delta":216568627},{"NoteNumber":59,"Velocity":47,"Duration":172136,"SoundDuration":172136,"Delta":216740764},{"NoteNumber":60,"Velocity":48,"Duration":172136,"SoundDuration":172136,"Delta":216912900},{"NoteNumber":62,"Velocity":46,"Duration":178401,"SoundDuration":178401,"Delta":217085037},{"NoteNumber":74,"Velocity":55,"Duration":713605,"SoundDuration":713605,"Delta":217263439},{"NoteNumber":64,"Velocity":48,"Duration":342857,"SoundDuration":342857,"Delta":217977045},{"NoteNumber":72,"Velocity":57,"Duration":342857,"SoundDuration":342857,"Delta":217977045},{"NoteNumber":43,"Velocity":38,"Duration":342857,"SoundDuration":342857,"Delta":217977045},{"NoteNumber":62,"Velocity":43,"Duration":179490,"SoundDuration":179490,"Delta":218319902},{"NoteNumber":71,"Velocity":51,"Duration":179490,"SoundDuration":179490,"Delta":218319902},{"NoteNumber":43,"Velocity":33,"Duration":179490,"SoundDuration":179490,"Delta":218319902},{"NoteNumber":64,"Velocity":37,"Duration":179490,"SoundDuration":179490,"Delta":218499392},{"NoteNumber":72,"Velocity":45,"Duration":179490,"SoundDuration":179490,"Delta":218499392},{"NoteNumber":50,"Velocity":33,"Duration":179490,"SoundDuration":179490,"Delta":218499392},{"NoteNumber":60,"Velocity":43,"Duration":693635,"SoundDuration":693635,"Delta":218678882},{"NoteNumber":69,"Velocity":51,"Duration":693635,"SoundDuration":693635,"Delta":218678882},{"NoteNumber":43,"Velocity":38,"Duration":354651,"SoundDuration":354651,"Delta":218678882},{"NoteNumber":38,"Velocity":33,"Duration":338983,"SoundDuration":338983,"Delta":219033534},{"NoteNumber":57,"Velocity":55,"Duration":172136,"SoundDuration":172136,"Delta":219372517},{"NoteNumber":62,"Velocity":48,"Duration":172136,"SoundDuration":172136,"Delta":219372517},{"NoteNumber":43,"Velocity":30,"Duration":1408417,"SoundDuration":1408417,"Delta":219372517},{"NoteNumber":50,"Velocity":36,"Duration":1408417,"SoundDuration":1408417,"Delta":219372517},{"NoteNumber":59,"Velocity":43,"Duration":172136,"SoundDuration":172136,"Delta":219544654},{"NoteNumber":60,"Velocity":45,"Duration":172136,"SoundDuration":172136,"Delta":219716791},{"NoteNumber":62,"Velocity":42,"Duration":178401,"SoundDuration":178401,"Delta":219888927},{"NoteNumber":74,"Velocity":52,"Duration":713605,"SoundDuration":713605,"Delta":220067329},{"NoteNumber":62,"Velocity":45,"Duration":350426,"SoundDuration":350426,"Delta":220780935},{"NoteNumber":71,"Velocity":54,"Duration":350426,"SoundDuration":350426,"Delta":220780935},{"NoteNumber":43,"Velocity":36,"Duration":350426,"SoundDuration":350426,"Delta":220780935},{"NoteNumber":60,"Velocity":40,"Duration":179490,"SoundDuration":179490,"Delta":221131361},{"NoteNumber":69,"Velocity":48,"Duration":179490,"SoundDuration":179490,"Delta":221131361},{"NoteNumber":43,"Velocity":31,"Duration":179490,"SoundDuration":179490,"Delta":221131361},{"NoteNumber":62,"Velocity":35,"Duration":179490,"SoundDuration":179490,"Delta":221310852},{"NoteNumber":71,"Velocity":42,"Duration":179490,"SoundDuration":179490,"Delta":221310852},{"NoteNumber":50,"Velocity":31,"Duration":179490,"SoundDuration":179490,"Delta":221310852},{"NoteNumber":59,"Velocity":40,"Duration":354651,"SoundDuration":354651,"Delta":221490342},{"NoteNumber":67,"Velocity":48,"Duration":354651,"SoundDuration":354651,"Delta":221490342},{"NoteNumber":43,"Velocity":31,"Duration":354651,"SoundDuration":354651,"Delta":221490342},{"NoteNumber":62,"Velocity":34,"Duration":370233,"SoundDuration":370233,"Delta":221844994},{"NoteNumber":71,"Velocity":40,"Duration":370233,"SoundDuration":370233,"Delta":221844994},{"NoteNumber":38,"Velocity":29,"Duration":370233,"SoundDuration":370233,"Delta":221844994},{"NoteNumber":60,"Velocity":39,"Duration":377358,"SoundDuration":377358,"Delta":222215227},{"NoteNumber":69,"Velocity":46,"Duration":377358,"SoundDuration":377358,"Delta":222215227},{"NoteNumber":43,"Velocity":30,"Duration":1510905,"SoundDuration":1510905,"Delta":222215227},{"NoteNumber":50,"Velocity":36,"Duration":1510905,"SoundDuration":1510905,"Delta":222215227},{"NoteNumber":59,"Velocity":36,"Duration":397350,"SoundDuration":397350,"Delta":222592585},{"NoteNumber":67,"Velocity":43,"Duration":397350,"SoundDuration":397350,"Delta":222592585},{"NoteNumber":79,"Velocity":48,"Duration":736196,"SoundDuration":736196,"Delta":222989936},{"NoteNumber":59,"Velocity":40,"Duration":736196,"SoundDuration":736196,"Delta":222989936},{"NoteNumber":67,"Velocity":48,"Duration":736196,"SoundDuration":736196,"Delta":222989936},{"NoteNumber":59,"Velocity":34,"Duration":750000,"SoundDuration":750000,"Delta":223726132},{"NoteNumber":62,"Velocity":40,"Duration":750000,"SoundDuration":750000,"Delta":223726132},{"NoteNumber":43,"Velocity":24,"Duration":1481707,"SoundDuration":1481707,"Delta":223726132},{"NoteNumber":50,"Velocity":28,"Duration":1481707,"SoundDuration":1481707,"Delta":223726132},{"NoteNumber":79,"Velocity":48,"Duration":731707,"SoundDuration":731707,"Delta":224476132},{"NoteNumber":59,"Velocity":33,"Duration":736196,"SoundDuration":736196,"Delta":225207839},{"NoteNumber":62,"Velocity":39,"Duration":736196,"SoundDuration":736196,"Delta":225207839},{"NoteNumber":43,"Velocity":24,"Duration":2218581,"SoundDuration":2218581,"Delta":225207839},{"NoteNumber":50,"Velocity":28,"Duration":2218581,"SoundDuration":2218581,"Delta":225207839},{"NoteNumber":79,"Velocity":48,"Duration":1482385,"SoundDuration":1482385,"Delta":225944035},{"NoteNumber":59,"Velocity":33,"Duration":722892,"SoundDuration":722892,"Delta":226703529},{"NoteNumber":62,"Velocity":39,"Duration":722892,"SoundDuration":722892,"Delta":226703529},{"NoteNumber":78,"Velocity":45,"Duration":210304,"SoundDuration":210304,"Delta":227426421},{"NoteNumber":76,"Velocity":41,"Duration":213795,"SoundDuration":213795,"Delta":227606423},{"NoteNumber":74,"Velocity":40,"Duration":216818,"SoundDuration":216818,"Delta":227789354},{"NoteNumber":72,"Velocity":37,"Duration":220531,"SoundDuration":220531,"Delta":227974923},{"NoteNumber":71,"Velocity":48,"Duration":764330,"SoundDuration":764330,"Delta":228163607},{"NoteNumber":60,"Velocity":34,"Duration":764330,"SoundDuration":764330,"Delta":228927938},{"NoteNumber":66,"Velocity":34,"Duration":764330,"SoundDuration":764330,"Delta":228927938},{"NoteNumber":69,"Velocity":41,"Duration":764330,"SoundDuration":764330,"Delta":228927938},{"NoteNumber":38,"Velocity":24,"Duration":764330,"SoundDuration":764330,"Delta":228927938},{"NoteNumber":67,"Velocity":40,"Duration":731707,"SoundDuration":731707,"Delta":229692269},{"NoteNumber":59,"Velocity":34,"Duration":731707,"SoundDuration":731707,"Delta":229692269},{"NoteNumber":62,"Velocity":34,"Duration":731707,"SoundDuration":731707,"Delta":229692269},{"NoteNumber":43,"Velocity":26,"Duration":1432848,"SoundDuration":1432848,"Delta":229692269},{"NoteNumber":50,"Velocity":31,"Duration":1432848,"SoundDuration":1432848,"Delta":229692269},{"NoteNumber":86,"Velocity":43,"Duration":701141,"SoundDuration":701141,"Delta":230423976},{"NoteNumber":67,"Velocity":38,"Duration":731707,"SoundDuration":731707,"Delta":231125118},{"NoteNumber":59,"Velocity":32,"Duration":731707,"SoundDuration":731707,"Delta":231125118},{"NoteNumber":62,"Velocity":32,"Duration":731707,"SoundDuration":731707,"Delta":231125118},{"NoteNumber":43,"Velocity":22,"Duration":1409672,"SoundDuration":1409672,"Delta":231125118},{"NoteNumber":50,"Velocity":27,"Duration":1409672,"SoundDuration":1409672,"Delta":231125118},{"NoteNumber":86,"Velocity":39,"Duration":677965,"SoundDuration":677965,"Delta":231856825},{"NoteNumber":67,"Velocity":38,"Duration":710059,"SoundDuration":710059,"Delta":232534791},{"NoteNumber":59,"Velocity":32,"Duration":710059,"SoundDuration":710059,"Delta":232534791},{"NoteNumber":62,"Velocity":32,"Duration":710059,"SoundDuration":710059,"Delta":232534791},{"NoteNumber":43,"Velocity":23,"Duration":1402659,"SoundDuration":1402659,"Delta":232534791},{"NoteNumber":50,"Velocity":28,"Duration":1402659,"SoundDuration":1402659,"Delta":232534791},{"NoteNumber":86,"Velocity":39,"Duration":692600,"SoundDuration":692600,"Delta":233244850},{"NoteNumber":59,"Velocity":33,"Duration":715733,"SoundDuration":715733,"Delta":233937451},{"NoteNumber":62,"Velocity":39,"Duration":715733,"SoundDuration":715733,"Delta":233937451},{"NoteNumber":43,"Velocity":22,"Duration":1450523,"SoundDuration":1450523,"Delta":233937451},{"NoteNumber":50,"Velocity":26,"Duration":1450523,"SoundDuration":1450523,"Delta":233937451},{"NoteNumber":86,"Velocity":42,"Duration":553191,"SoundDuration":553191,"Delta":234653185},{"NoteNumber":62,"Velocity":46,"Duration":181598,"SoundDuration":181598,"Delta":235206377},{"NoteNumber":59,"Velocity":43,"Duration":356803,"SoundDuration":356803,"Delta":235387975},{"NoteNumber":67,"Velocity":51,"Duration":356803,"SoundDuration":356803,"Delta":235387975},{"NoteNumber":50,"Velocity":34,"Duration":1377701,"SoundDuration":1377701,"Delta":235387975},{"NoteNumber":43,"Velocity":28,"Duration":1377701,"SoundDuration":1377701,"Delta":235387975},{"NoteNumber":67,"Velocity":44,"Duration":338333,"SoundDuration":338333,"Delta":235744778},{"NoteNumber":86,"Velocity":47,"Duration":682565,"SoundDuration":682565,"Delta":236083111},{"NoteNumber":59,"Velocity":42,"Duration":163523,"SoundDuration":163523,"Delta":236083111},{"NoteNumber":67,"Velocity":50,"Duration":163523,"SoundDuration":163523,"Delta":236083111},{"NoteNumber":69,"Velocity":40,"Duration":167242,"SoundDuration":167242,"Delta":236246634},{"NoteNumber":71,"Velocity":45,"Duration":163523,"SoundDuration":163523,"Delta":236413877},{"NoteNumber":72,"Velocity":40,"Duration":138069,"SoundDuration":138069,"Delta":236577401},{"NoteNumber":72,"Velocity":44,"Duration":86924,"SoundDuration":86924,"Delta":236722642},{"NoteNumber":62,"Velocity":43,"Duration":351123,"SoundDuration":351123,"Delta":236765677},{"NoteNumber":71,"Velocity":51,"Duration":351123,"SoundDuration":351123,"Delta":236765677},{"NoteNumber":43,"Velocity":30,"Duration":1395367,"SoundDuration":1395367,"Delta":236765677},{"NoteNumber":50,"Velocity":36,"Duration":1395367,"SoundDuration":1395367,"Delta":236765677},{"NoteNumber":69,"Velocity":39,"Duration":170998,"SoundDuration":170998,"Delta":237116800},{"NoteNumber":71,"Velocity":38,"Duration":170998,"SoundDuration":170998,"Delta":237287799},{"NoteNumber":86,"Velocity":45,"Duration":702246,"SoundDuration":702246,"Delta":237458798},{"NoteNumber":59,"Velocity":38,"Duration":526685,"SoundDuration":526685,"Delta":237458798},{"NoteNumber":67,"Velocity":45,"Duration":526685,"SoundDuration":526685,"Delta":237458798},{"NoteNumber":64,"Velocity":47,"Duration":175561,"SoundDuration":175561,"Delta":237985483},{"NoteNumber":60,"Velocity":43,"Duration":356803,"SoundDuration":356803,"Delta":238161045},{"NoteNumber":69,"Velocity":51,"Duration":356803,"SoundDuration":356803,"Delta":238161045},{"NoteNumber":43,"Velocity":28,"Duration":1366858,"SoundDuration":1366858,"Delta":238161045},{"NoteNumber":50,"Velocity":34,"Duration":1366858,"SoundDuration":1366858,"Delta":238161045},{"NoteNumber":69,"Velocity":45,"Duration":329670,"SoundDuration":329670,"Delta":238517848},{"NoteNumber":86,"Velocity":47,"Duration":680384,"SoundDuration":680384,"Delta":238847518},{"NoteNumber":60,"Velocity":42,"Duration":162619,"SoundDuration":162619,"Delta":238847518},{"NoteNumber":69,"Velocity":50,"Duration":162619,"SoundDuration":162619,"Delta":238847518},{"NoteNumber":71,"Velocity":40,"Duration":168199,"SoundDuration":168199,"Delta":239010137},{"NoteNumber":72,"Velocity":45,"Duration":161290,"SoundDuration":161290,"Delta":239178337},{"NoteNumber":74,"Velocity":40,"Duration":138069,"SoundDuration":138069,"Delta":239339627},{"NoteNumber":74,"Velocity":44,"Duration":86924,"SoundDuration":86924,"Delta":239484869},{"NoteNumber":64,"Velocity":43,"Duration":351123,"SoundDuration":351123,"Delta":239527903},{"NoteNumber":72,"Velocity":51,"Duration":351123,"SoundDuration":351123,"Delta":239527903},{"NoteNumber":43,"Velocity":30,"Duration":1386704,"SoundDuration":1386704,"Delta":239527903},{"NoteNumber":50,"Velocity":36,"Duration":1386704,"SoundDuration":1386704,"Delta":239527903},{"NoteNumber":71,"Velocity":41,"Duration":166666,"SoundDuration":166666,"Delta":239879026},{"NoteNumber":72,"Velocity":38,"Duration":166666,"SoundDuration":166666,"Delta":240045693},{"NoteNumber":86,"Velocity":45,"Duration":702246,"SoundDuration":702246,"Delta":240212360},{"NoteNumber":60,"Velocity":38,"Duration":526685,"SoundDuration":526685,"Delta":240212360},{"NoteNumber":69,"Velocity":45,"Duration":526685,"SoundDuration":526685,"Delta":240212360},{"NoteNumber":67,"Velocity":47,"Duration":175561,"SoundDuration":175561,"Delta":240739045},{"NoteNumber":57,"Velocity":43,"Duration":356803,"SoundDuration":356803,"Delta":240914607},{"NoteNumber":66,"Velocity":51,"Duration":356803,"SoundDuration":356803,"Delta":240914607},{"NoteNumber":43,"Velocity":28,"Duration":1401779,"SoundDuration":1401779,"Delta":240914607},{"NoteNumber":50,"Velocity":34,"Duration":1401779,"SoundDuration":1401779,"Delta":240914607},{"NoteNumber":60,"Velocity":38,"Duration":344273,"SoundDuration":344273,"Delta":241271410},{"NoteNumber":66,"Velocity":48,"Duration":301239,"SoundDuration":301239,"Delta":241271410},{"NoteNumber":67,"Velocity":42,"Duration":43034,"SoundDuration":43034,"Delta":241572649},{"NoteNumber":86,"Velocity":47,"Duration":700703,"SoundDuration":700703,"Delta":241615683},{"NoteNumber":57,"Velocity":42,"Duration":170145,"SoundDuration":170145,"Delta":241615683},{"NoteNumber":66,"Velocity":50,"Duration":170145,"SoundDuration":170145,"Delta":241615683},{"NoteNumber":62,"Velocity":40,"Duration":170145,"SoundDuration":170145,"Delta":241785829},{"NoteNumber":60,"Velocity":41,"Duration":172136,"SoundDuration":172136,"Delta":241955974},{"NoteNumber":64,"Velocity":45,"Duration":172136,"SoundDuration":172136,"Delta":241955974},{"NoteNumber":66,"Velocity":40,"Duration":188276,"SoundDuration":188276,"Delta":242128111},{"NoteNumber":59,"Velocity":43,"Duration":709304,"SoundDuration":709304,"Delta":242316387},{"NoteNumber":67,"Velocity":51,"Duration":709304,"SoundDuration":709304,"Delta":242316387},{"NoteNumber":43,"Velocity":28,"Duration":1401977,"SoundDuration":1401977,"Delta":242316387},{"NoteNumber":50,"Velocity":34,"Duration":1401977,"SoundDuration":1401977,"Delta":242316387},{"NoteNumber":86,"Velocity":47,"Duration":692673,"SoundDuration":692673,"Delta":243025691},{"NoteNumber":62,"Velocity":41,"Duration":176263,"SoundDuration":176263,"Delta":243542101},{"NoteNumber":67,"Velocity":51,"Duration":356803,"SoundDuration":356803,"Delta":243718364},{"NoteNumber":59,"Velocity":43,"Duration":356803,"SoundDuration":356803,"Delta":243718364},{"NoteNumber":43,"Velocity":28,"Duration":1377701,"SoundDuration":1377701,"Delta":243718364},{"NoteNumber":50,"Velocity":34,"Duration":1377701,"SoundDuration":1377701,"Delta":243718364},{"NoteNumber":67,"Velocity":44,"Duration":338333,"SoundDuration":338333,"Delta":244075167},{"NoteNumber":59,"Velocity":42,"Duration":163523,"SoundDuration":163523,"Delta":244413500},{"NoteNumber":77,"Velocity":44,"Duration":682565,"SoundDuration":682565,"Delta":244413500},{"NoteNumber":67,"Velocity":50,"Duration":163523,"SoundDuration":163523,"Delta":244413500},{"NoteNumber":69,"Velocity":40,"Duration":167242,"SoundDuration":167242,"Delta":244577024},{"NoteNumber":71,"Velocity":45,"Duration":163523,"SoundDuration":163523,"Delta":244744266},{"NoteNumber":72,"Velocity":40,"Duration":138069,"SoundDuration":138069,"Delta":244907790},{"NoteNumber":72,"Velocity":44,"Duration":86924,"SoundDuration":86924,"Delta":245053032},{"NoteNumber":71,"Velocity":51,"Duration":351123,"SoundDuration":351123,"Delta":245096066},{"NoteNumber":62,"Velocity":43,"Duration":351123,"SoundDuration":351123,"Delta":245096066},{"NoteNumber":43,"Velocity":30,"Duration":1385721,"SoundDuration":1385721,"Delta":245096066},{"NoteNumber":50,"Velocity":36,"Duration":1385721,"SoundDuration":1385721,"Delta":245096066},{"NoteNumber":69,"Velocity":41,"Duration":170998,"SoundDuration":170998,"Delta":245447189},{"NoteNumber":71,"Velocity":38,"Duration":170998,"SoundDuration":170998,"Delta":245618188},{"NoteNumber":59,"Velocity":38,"Duration":519450,"SoundDuration":519450,"Delta":245789187},{"NoteNumber":67,"Velocity":45,"Duration":519450,"SoundDuration":519450,"Delta":245789187},{"NoteNumber":77,"Velocity":42,"Duration":692600,"SoundDuration":692600,"Delta":245789187},{"NoteNumber":64,"Velocity":47,"Duration":173150,"SoundDuration":173150,"Delta":246308638},{"NoteNumber":69,"Velocity":51,"Duration":342270,"SoundDuration":342270,"Delta":246481788},{"NoteNumber":60,"Velocity":43,"Duration":342270,"SoundDuration":342270,"Delta":246481788},{"NoteNumber":52,"Velocity":34,"Duration":1364135,"SoundDuration":1364135,"Delta":246481788},{"NoteNumber":43,"Velocity":28,"Duration":1364135,"SoundDuration":1364135,"Delta":246481788},{"NoteNumber":69,"Velocity":45,"Duration":338333,"SoundDuration":338333,"Delta":246824058},{"NoteNumber":60,"Velocity":44,"Duration":162619,"SoundDuration":162619,"Delta":247162391},{"NoteNumber":76,"Velocity":46,"Duration":683531,"SoundDuration":683531,"Delta":247162391},{"NoteNumber":69,"Velocity":51,"Duration":162619,"SoundDuration":162619,"Delta":247162391},{"NoteNumber":71,"Velocity":42,"Duration":168199,"SoundDuration":168199,"Delta":247325011},{"NoteNumber":72,"Velocity":48,"Duration":164437,"SoundDuration":164437,"Delta":247493210},{"NoteNumber":74,"Velocity":43,"Duration":138069,"SoundDuration":138069,"Delta":247657647},{"NoteNumber":74,"Velocity":47,"Duration":86321,"SoundDuration":86321,"Delta":247802889},{"NoteNumber":72,"Velocity":55,"Duration":346300,"SoundDuration":346300,"Delta":247845923},{"NoteNumber":64,"Velocity":46,"Duration":346300,"SoundDuration":346300,"Delta":247845923},{"NoteNumber":43,"Velocity":32,"Duration":1367862,"SoundDuration":1367862,"Delta":247845923},{"NoteNumber":52,"Velocity":39,"Duration":1367862,"SoundDuration":1367862,"Delta":247845923},{"NoteNumber":71,"Velocity":45,"Duration":166296,"SoundDuration":166296,"Delta":248192224},{"NoteNumber":72,"Velocity":41,"Duration":166297,"SoundDuration":166297,"Delta":248358521},{"NoteNumber":60,"Velocity":42,"Duration":517832,"SoundDuration":517832,"Delta":248524818},{"NoteNumber":69,"Velocity":51,"Duration":517832,"SoundDuration":517832,"Delta":248524818},{"NoteNumber":76,"Velocity":47,"Duration":688967,"SoundDuration":688967,"Delta":248524818},{"NoteNumber":67,"Velocity":50,"Duration":171135,"SoundDuration":171135,"Delta":249042650},{"NoteNumber":72,"Velocity":55,"Duration":350426,"SoundDuration":350426,"Delta":249213785},{"NoteNumber":64,"Velocity":46,"Duration":350426,"SoundDuration":350426,"Delta":249213785},{"NoteNumber":50,"Velocity":37,"Duration":1372291,"SoundDuration":1372291,"Delta":249213785},{"NoteNumber":43,"Velocity":31,"Duration":1372291,"SoundDuration":1372291,"Delta":249213785},{"NoteNumber":72,"Velocity":49,"Duration":338333,"SoundDuration":338333,"Delta":249564212},{"NoteNumber":64,"Velocity":47,"Duration":162619,"SoundDuration":162619,"Delta":249902545},{"NoteNumber":81,"Velocity":53,"Duration":683531,"SoundDuration":683531,"Delta":249902545},{"NoteNumber":72,"Velocity":56,"Duration":162619,"SoundDuration":162619,"Delta":249902545},{"NoteNumber":74,"Velocity":45,"Duration":168199,"SoundDuration":168199,"Delta":250065164},{"NoteNumber":76,"Velocity":52,"Duration":164437,"SoundDuration":164437,"Delta":250233363},{"NoteNumber":78,"Velocity":46,"Duration":138069,"SoundDuration":138069,"Delta":250397801},{"NoteNumber":78,"Velocity":50,"Duration":84933,"SoundDuration":84933,"Delta":250543043},{"NoteNumber":76,"Velocity":58,"Duration":335195,"SoundDuration":335195,"Delta":250586077},{"NoteNumber":67,"Velocity":49,"Duration":335195,"SoundDuration":335195,"Delta":250586077},{"NoteNumber":43,"Velocity":34,"Duration":1357892,"SoundDuration":1357892,"Delta":250586077},{"NoteNumber":50,"Velocity":41,"Duration":1357892,"SoundDuration":1357892,"Delta":250586077},{"NoteNumber":74,"Velocity":48,"Duration":165362,"SoundDuration":165362,"Delta":250921272},{"NoteNumber":76,"Velocity":44,"Duration":165362,"SoundDuration":165362,"Delta":251086635},{"NoteNumber":66,"Velocity":44,"Duration":519835,"SoundDuration":519835,"Delta":251251997},{"NoteNumber":72,"Velocity":54,"Duration":519835,"SoundDuration":519835,"Delta":251251997},{"NoteNumber":81,"Velocity":53,"Duration":691972,"SoundDuration":691972,"Delta":251251997},{"NoteNumber":71,"Velocity":53,"Duration":172136,"SoundDuration":172136,"Delta":251771832},{"NoteNumber":79,"Velocity":58,"Duration":354651,"SoundDuration":354651,"Delta":251943969},{"NoteNumber":71,"Velocity":49,"Duration":354651,"SoundDuration":354651,"Delta":251943969},{"NoteNumber":50,"Velocity":42,"Duration":1376516,"SoundDuration":1376516,"Delta":251943969},{"NoteNumber":43,"Velocity":35,"Duration":1376516,"SoundDuration":1376516,"Delta":251943969},{"NoteNumber":79,"Velocity":54,"Duration":338333,"SoundDuration":338333,"Delta":252298621},{"NoteNumber":71,"Velocity":52,"Duration":162619,"SoundDuration":162619,"Delta":252636954},{"NoteNumber":86,"Velocity":57,"Duration":683531,"SoundDuration":683531,"Delta":252636954},{"NoteNumber":79,"Velocity":60,"Duration":162619,"SoundDuration":162619,"Delta":252636954},{"NoteNumber":81,"Velocity":49,"Duration":168199,"SoundDuration":168199,"Delta":252799573},{"NoteNumber":83,"Velocity":56,"Duration":164437,"SoundDuration":164437,"Delta":252967772},{"NoteNumber":84,"Velocity":49,"Duration":138069,"SoundDuration":138069,"Delta":253132210},{"NoteNumber":84,"Velocity":53,"Duration":86924,"SoundDuration":86924,"Delta":253277452},{"NoteNumber":83,"Velocity":63,"Duration":351123,"SoundDuration":351123,"Delta":253320486},{"NoteNumber":74,"Velocity":53,"Duration":351123,"SoundDuration":351123,"Delta":253320486},{"NoteNumber":43,"Velocity":37,"Duration":1413476,"SoundDuration":1413476,"Delta":253320486},{"NoteNumber":50,"Velocity":43,"Duration":1413476,"SoundDuration":1413476,"Delta":253320486},{"NoteNumber":81,"Velocity":58,"Duration":170998,"SoundDuration":170998,"Delta":253671609},{"NoteNumber":83,"Velocity":55,"Duration":170998,"SoundDuration":170998,"Delta":253842608},{"NoteNumber":71,"Velocity":55,"Duration":720355,"SoundDuration":720355,"Delta":254013607},{"NoteNumber":79,"Velocity":67,"Duration":720355,"SoundDuration":720355,"Delta":254013607},{"NoteNumber":91,"Velocity":64,"Duration":720355,"SoundDuration":720355,"Delta":254013607},{"NoteNumber":57,"Velocity":58,"Duration":172136,"SoundDuration":172136,"Delta":254733963},{"NoteNumber":62,"Velocity":51,"Duration":172136,"SoundDuration":172136,"Delta":254733963},{"NoteNumber":43,"Velocity":32,"Duration":1408417,"SoundDuration":1408417,"Delta":254733963},{"NoteNumber":50,"Velocity":38,"Duration":1408417,"SoundDuration":1408417,"Delta":254733963},{"NoteNumber":59,"Velocity":49,"Duration":172136,"SoundDuration":172136,"Delta":254906099},{"NoteNumber":60,"Velocity":48,"Duration":172136,"SoundDuration":172136,"Delta":255078236},{"NoteNumber":62,"Velocity":46,"Duration":178401,"SoundDuration":178401,"Delta":255250373},{"NoteNumber":74,"Velocity":55,"Duration":713605,"SoundDuration":713605,"Delta":255428774},{"NoteNumber":64,"Velocity":48,"Duration":342856,"SoundDuration":342856,"Delta":256142380},{"NoteNumber":72,"Velocity":57,"Duration":342856,"SoundDuration":342856,"Delta":256142380},{"NoteNumber":43,"Velocity":38,"Duration":342856,"SoundDuration":342856,"Delta":256142380},{"NoteNumber":62,"Velocity":43,"Duration":179490,"SoundDuration":179490,"Delta":256485237},{"NoteNumber":71,"Velocity":51,"Duration":179490,"SoundDuration":179490,"Delta":256485237},{"NoteNumber":43,"Velocity":33,"Duration":179490,"SoundDuration":179490,"Delta":256485237},{"NoteNumber":64,"Velocity":37,"Duration":179490,"SoundDuration":179490,"Delta":256664728},{"NoteNumber":72,"Velocity":45,"Duration":179490,"SoundDuration":179490,"Delta":256664728},{"NoteNumber":50,"Velocity":33,"Duration":179490,"SoundDuration":179490,"Delta":256664728},{"NoteNumber":60,"Velocity":43,"Duration":709303,"SoundDuration":709303,"Delta":256844218},{"NoteNumber":69,"Velocity":51,"Duration":709303,"SoundDuration":709303,"Delta":256844218},{"NoteNumber":43,"Velocity":38,"Duration":354651,"SoundDuration":354651,"Delta":256844218},{"NoteNumber":38,"Velocity":34,"Duration":354651,"SoundDuration":354651,"Delta":257198870},{"NoteNumber":57,"Velocity":58,"Duration":172136,"SoundDuration":172136,"Delta":257553522},{"NoteNumber":62,"Velocity":51,"Duration":172136,"SoundDuration":172136,"Delta":257553522},{"NoteNumber":43,"Velocity":32,"Duration":1408417,"SoundDuration":1408417,"Delta":257553522},{"NoteNumber":50,"Velocity":38,"Duration":1408417,"SoundDuration":1408417,"Delta":257553522},{"NoteNumber":59,"Velocity":47,"Duration":172136,"SoundDuration":172136,"Delta":257725659},{"NoteNumber":60,"Velocity":48,"Duration":172136,"SoundDuration":172136,"Delta":257897795},{"NoteNumber":62,"Velocity":45,"Duration":178401,"SoundDuration":178401,"Delta":258069932},{"NoteNumber":74,"Velocity":55,"Duration":713605,"SoundDuration":713605,"Delta":258248334},{"NoteNumber":62,"Velocity":48,"Duration":340909,"SoundDuration":340909,"Delta":258961940},{"NoteNumber":71,"Velocity":57,"Duration":340909,"SoundDuration":340909,"Delta":258961940},{"NoteNumber":43,"Velocity":38,"Duration":340909,"SoundDuration":340909,"Delta":258961940},{"NoteNumber":60,"Velocity":43,"Duration":179490,"SoundDuration":179490,"Delta":259302849},{"NoteNumber":69,"Velocity":51,"Duration":179490,"SoundDuration":179490,"Delta":259302849},{"NoteNumber":43,"Velocity":33,"Duration":179490,"SoundDuration":179490,"Delta":259302849},{"NoteNumber":62,"Velocity":37,"Duration":179490,"SoundDuration":179490,"Delta":259482339},{"NoteNumber":71,"Velocity":45,"Duration":179490,"SoundDuration":179490,"Delta":259482339},{"NoteNumber":50,"Velocity":33,"Duration":179490,"SoundDuration":179490,"Delta":259482339},{"NoteNumber":59,"Velocity":43,"Duration":691730,"SoundDuration":691730,"Delta":259661829},{"NoteNumber":67,"Velocity":51,"Duration":691730,"SoundDuration":691730,"Delta":259661829},{"NoteNumber":43,"Velocity":33,"Duration":354651,"SoundDuration":354651,"Delta":259661829},{"NoteNumber":38,"Velocity":32,"Duration":337078,"SoundDuration":337078,"Delta":260016481},{"NoteNumber":57,"Velocity":58,"Duration":172136,"SoundDuration":172136,"Delta":260353560},{"NoteNumber":62,"Velocity":51,"Duration":172136,"SoundDuration":172136,"Delta":260353560},{"NoteNumber":43,"Velocity":32,"Duration":1408417,"SoundDuration":1408417,"Delta":260353560},{"NoteNumber":50,"Velocity":38,"Duration":1408417,"SoundDuration":1408417,"Delta":260353560},{"NoteNumber":59,"Velocity":46,"Duration":172136,"SoundDuration":172136,"Delta":260525696},{"NoteNumber":60,"Velocity":48,"Duration":172136,"SoundDuration":172136,"Delta":260697833},{"NoteNumber":62,"Velocity":46,"Duration":178401,"SoundDuration":178401,"Delta":260869970},{"NoteNumber":74,"Velocity":55,"Duration":713605,"SoundDuration":713605,"Delta":261048371},{"NoteNumber":64,"Velocity":48,"Duration":342856,"SoundDuration":342856,"Delta":261761977},{"NoteNumber":72,"Velocity":57,"Duration":342856,"SoundDuration":342856,"Delta":261761977},{"NoteNumber":43,"Velocity":38,"Duration":342856,"SoundDuration":342856,"Delta":261761977},{"NoteNumber":62,"Velocity":43,"Duration":179490,"SoundDuration":179490,"Delta":262104834},{"NoteNumber":71,"Velocity":51,"Duration":179490,"SoundDuration":179490,"Delta":262104834},{"NoteNumber":43,"Velocity":33,"Duration":179490,"SoundDuration":179490,"Delta":262104834},{"NoteNumber":64,"Velocity":37,"Duration":179490,"SoundDuration":179490,"Delta":262284325},{"NoteNumber":72,"Velocity":45,"Duration":179490,"SoundDuration":179490,"Delta":262284325},{"NoteNumber":50,"Velocity":33,"Duration":179490,"SoundDuration":179490,"Delta":262284325},{"NoteNumber":60,"Velocity":43,"Duration":711794,"SoundDuration":711794,"Delta":262463815},{"NoteNumber":69,"Velocity":51,"Duration":711794,"SoundDuration":711794,"Delta":262463815},{"NoteNumber":43,"Velocity":38,"Duration":354651,"SoundDuration":354651,"Delta":262463815},{"NoteNumber":38,"Velocity":33,"Duration":357143,"SoundDuration":357143,"Delta":262818467},{"NoteNumber":57,"Velocity":55,"Duration":172136,"SoundDuration":172136,"Delta":263175610},{"NoteNumber":62,"Velocity":48,"Duration":172136,"SoundDuration":172136,"Delta":263175610},{"NoteNumber":43,"Velocity":30,"Duration":1408417,"SoundDuration":1408417,"Delta":263175610},{"NoteNumber":50,"Velocity":36,"Duration":1408417,"SoundDuration":1408417,"Delta":263175610},{"NoteNumber":59,"Velocity":43,"Duration":172136,"SoundDuration":172136,"Delta":263347747},{"NoteNumber":60,"Velocity":45,"Duration":172136,"SoundDuration":172136,"Delta":263519883},{"NoteNumber":62,"Velocity":43,"Duration":178401,"SoundDuration":178401,"Delta":263692020},{"NoteNumber":74,"Velocity":52,"Duration":713605,"SoundDuration":713605,"Delta":263870422},{"NoteNumber":62,"Velocity":45,"Duration":350426,"SoundDuration":350426,"Delta":264584028},{"NoteNumber":71,"Velocity":54,"Duration":350426,"SoundDuration":350426,"Delta":264584028},{"NoteNumber":43,"Velocity":36,"Duration":350426,"SoundDuration":350426,"Delta":264584028},{"NoteNumber":60,"Velocity":40,"Duration":179490,"SoundDuration":179490,"Delta":264934454},{"NoteNumber":69,"Velocity":48,"Duration":179490,"SoundDuration":179490,"Delta":264934454},{"NoteNumber":43,"Velocity":31,"Duration":179490,"SoundDuration":179490,"Delta":264934454},{"NoteNumber":62,"Velocity":35,"Duration":179490,"SoundDuration":179490,"Delta":265113944},{"NoteNumber":71,"Velocity":42,"Duration":179490,"SoundDuration":179490,"Delta":265113944},{"NoteNumber":50,"Velocity":31,"Duration":179490,"SoundDuration":179490,"Delta":265113944},{"NoteNumber":59,"Velocity":40,"Duration":354651,"SoundDuration":354651,"Delta":265293435},{"NoteNumber":67,"Velocity":48,"Duration":354651,"SoundDuration":354651,"Delta":265293435},{"NoteNumber":43,"Velocity":31,"Duration":354651,"SoundDuration":354651,"Delta":265293435},{"NoteNumber":62,"Velocity":34,"Duration":370232,"SoundDuration":370232,"Delta":265648087},{"NoteNumber":71,"Velocity":40,"Duration":370232,"SoundDuration":370232,"Delta":265648087},{"NoteNumber":38,"Velocity":29,"Duration":370232,"SoundDuration":370232,"Delta":265648087},{"NoteNumber":60,"Velocity":39,"Duration":377358,"SoundDuration":377358,"Delta":266018320},{"NoteNumber":69,"Velocity":46,"Duration":377358,"SoundDuration":377358,"Delta":266018320},{"NoteNumber":43,"Velocity":30,"Duration":1501982,"SoundDuration":1501982,"Delta":266018320},{"NoteNumber":50,"Velocity":36,"Duration":1501982,"SoundDuration":1501982,"Delta":266018320},{"NoteNumber":59,"Velocity":36,"Duration":397351,"SoundDuration":397351,"Delta":266395678},{"NoteNumber":67,"Velocity":43,"Duration":397351,"SoundDuration":397351,"Delta":266395678},{"NoteNumber":79,"Velocity":48,"Duration":727273,"SoundDuration":727273,"Delta":266793029},{"NoteNumber":59,"Velocity":40,"Duration":727273,"SoundDuration":727273,"Delta":266793029},{"NoteNumber":67,"Velocity":48,"Duration":727273,"SoundDuration":727273,"Delta":266793029},{"NoteNumber":59,"Velocity":34,"Duration":750000,"SoundDuration":750000,"Delta":267520302},{"NoteNumber":62,"Velocity":40,"Duration":750000,"SoundDuration":750000,"Delta":267520302},{"NoteNumber":43,"Velocity":24,"Duration":1481706,"SoundDuration":1481706,"Delta":267520302},{"NoteNumber":50,"Velocity":28,"Duration":1481706,"SoundDuration":1481706,"Delta":267520302},{"NoteNumber":79,"Velocity":48,"Duration":731706,"SoundDuration":731706,"Delta":268270302},{"NoteNumber":59,"Velocity":33,"Duration":722892,"SoundDuration":722892,"Delta":269002009},{"NoteNumber":62,"Velocity":39,"Duration":722892,"SoundDuration":722892,"Delta":269002009},{"NoteNumber":43,"Velocity":24,"Duration":2210115,"SoundDuration":2210115,"Delta":269002009},{"NoteNumber":50,"Velocity":28,"Duration":2210115,"SoundDuration":2210115,"Delta":269002009},{"NoteNumber":79,"Velocity":48,"Duration":1487223,"SoundDuration":1487223,"Delta":269724901},{"NoteNumber":59,"Velocity":33,"Duration":722892,"SoundDuration":722892,"Delta":270489232},{"NoteNumber":62,"Velocity":39,"Duration":722892,"SoundDuration":722892,"Delta":270489232},{"NoteNumber":78,"Velocity":45,"Duration":210304,"SoundDuration":210304,"Delta":271212124},{"NoteNumber":76,"Velocity":41,"Duration":213795,"SoundDuration":213795,"Delta":271392126},{"NoteNumber":74,"Velocity":44,"Duration":216818,"SoundDuration":216818,"Delta":271575057},{"NoteNumber":72,"Velocity":36,"Duration":220531,"SoundDuration":220531,"Delta":271760626},{"NoteNumber":71,"Velocity":47,"Duration":764331,"SoundDuration":764331,"Delta":271949310},{"NoteNumber":60,"Velocity":34,"Duration":764330,"SoundDuration":764330,"Delta":272713641},{"NoteNumber":66,"Velocity":34,"Duration":764330,"SoundDuration":764330,"Delta":272713641},{"NoteNumber":69,"Velocity":41,"Duration":764330,"SoundDuration":764330,"Delta":272713641},{"NoteNumber":38,"Velocity":24,"Duration":764330,"SoundDuration":764330,"Delta":272713641},{"NoteNumber":67,"Velocity":36,"Duration":731706,"SoundDuration":731706,"Delta":273477972},{"NoteNumber":59,"Velocity":30,"Duration":731706,"SoundDuration":731706,"Delta":273477972},{"NoteNumber":62,"Velocity":36,"Duration":731706,"SoundDuration":731706,"Delta":273477972},{"NoteNumber":43,"Velocity":23,"Duration":1432848,"SoundDuration":1432848,"Delta":273477972},{"NoteNumber":50,"Velocity":27,"Duration":1432848,"SoundDuration":1432848,"Delta":273477972},{"NoteNumber":86,"Velocity":43,"Duration":701142,"SoundDuration":701142,"Delta":274209679},{"NoteNumber":59,"Velocity":31,"Duration":731706,"SoundDuration":731706,"Delta":274910821},{"NoteNumber":62,"Velocity":36,"Duration":731706,"SoundDuration":731706,"Delta":274910821},{"NoteNumber":43,"Velocity":19,"Duration":1409672,"SoundDuration":1409672,"Delta":274910821},{"NoteNumber":50,"Velocity":28,"Duration":1409672,"SoundDuration":1409672,"Delta":274910821},{"NoteNumber":86,"Velocity":41,"Duration":677966,"SoundDuration":677966,"Delta":275642528},{"NoteNumber":59,"Velocity":31,"Duration":731706,"SoundDuration":731706,"Delta":276320494},{"NoteNumber":62,"Velocity":36,"Duration":731706,"SoundDuration":731706,"Delta":276320494},{"NoteNumber":43,"Velocity":22,"Duration":1424307,"SoundDuration":1424307,"Delta":276320494},{"NoteNumber":50,"Velocity":27,"Duration":1424307,"SoundDuration":1424307,"Delta":276320494},{"NoteNumber":86,"Velocity":42,"Duration":692601,"SoundDuration":692601,"Delta":277052201},{"NoteNumber":59,"Velocity":30,"Duration":715733,"SoundDuration":715733,"Delta":277744802},{"NoteNumber":62,"Velocity":36,"Duration":715733,"SoundDuration":715733,"Delta":277744802},{"NoteNumber":43,"Velocity":19,"Duration":1454019,"SoundDuration":1454019,"Delta":277744802},{"NoteNumber":50,"Velocity":27,"Duration":1454019,"SoundDuration":1454019,"Delta":277744802},{"NoteNumber":86,"Velocity":41,"Duration":738285,"SoundDuration":738285,"Delta":278460536},{"NoteNumber":59,"Velocity":27,"Duration":1589404,"SoundDuration":1589404,"Delta":279198821},{"NoteNumber":62,"Velocity":32,"Duration":1589404,"SoundDuration":1589404,"Delta":279198821},{"NoteNumber":43,"Velocity":17,"Duration":3178808,"SoundDuration":3178808,"Delta":279198821},{"NoteNumber":50,"Velocity":24,"Duration":3178808,"SoundDuration":3178808,"Delta":279198821},{"NoteNumber":86,"Velocity":36,"Duration":1589404,"SoundDuration":1589404,"Delta":280788225}],"license":{"name":"Creative Commons Attribution-ShareAlike 3.0 Germany","url":"http://creativecommons.org/licenses/by-sa/3.0/de/deed.en","text":"The MIDI, audio (MP3, OGG) and video files of Bernd Krueger are licensed under the cc-by-sa Germany License. This means that you can use and adapt the files, as long as you attribute the copyright holder.\n\nName: Bernd Krueger\nSource: http://www.piano-midi.de\n\nThe distribution or public playback of the files is only allowed under identical license conditions.\n\nThe scores are open source.","attribution":"MIDI files by Bernd Krueger (piano-midi.de)"}}