{"title":"Volkslied","artist":"Piano","durationMs":147713,"midiSha256":"111bc2ec9bd096debc594988ac8552a165709b5598de18778deed3f4eba7ecc6","midiObject":[{"NoteNumber":72,"Velocity":33,"Duration":101009,"SoundDuration":101009,"Delta":0},{"NoteNumber":74,"Velocity":34,"Duration":101010,"SoundDuration":101010,"Delta":101010},{"NoteNumber":76,"Velocity":41,"Duration":101010,"SoundDuration":101010,"Delta":202020},{"NoteNumber":72,"Velocity":34,"Duration":101010,"SoundDuration":101010,"Delta":303030},{"NoteNumber":69,"Velocity":34,"Duration":173076,"SoundDuration":173076,"Delta":404040},{"NoteNumber":64,"Velocity":27,"Duration":410514,"SoundDuration":410514,"Delta":634809},{"NoteNumber":60,"Velocity":23,"Duration":410514,"SoundDuration":410514,"Delta":634809},{"NoteNumber":57,"Velocity":23,"Duration":410514,"SoundDuration":410514,"Delta":634809},{"NoteNumber":76,"Velocity":35,"Duration":101351,"SoundDuration":101351,"Delta":741951},{"NoteNumber":72,"Velocity":35,"Duration":101010,"SoundDuration":101010,"Delta":843303},{"NoteNumber":69,"Velocity":35,"Duration":101010,"SoundDuration":101010,"Delta":944313},{"NoteNumber":77,"Velocity":41,"Duration":101010,"SoundDuration":101010,"Delta":1045323},{"NoteNumber":74,"Velocity":35,"Duration":101010,"SoundDuration":101010,"Delta":1146333},{"NoteNumber":69,"Velocity":35,"Duration":172413,"SoundDuration":172413,"Delta":1247343},{"NoteNumber":57,"Velocity":23,"Duration":417675,"SoundDuration":417675,"Delta":1477228},{"NoteNumber":62,"Velocity":23,"Duration":417675,"SoundDuration":417675,"Delta":1477228},{"NoteNumber":65,"Velocity":27,"Duration":417675,"SoundDuration":417675,"Delta":1477228},{"NoteNumber":77,"Velocity":35,"Duration":107142,"SoundDuration":107142,"Delta":1584370},{"NoteNumber":74,"Velocity":35,"Duration":101694,"SoundDuration":101694,"Delta":1691513},{"NoteNumber":69,"Velocity":35,"Duration":101695,"SoundDuration":101695,"Delta":1793208},{"NoteNumber":74,"Velocity":41,"Duration":101694,"SoundDuration":101694,"Delta":1894903},{"NoteNumber":71,"Velocity":36,"Duration":101694,"SoundDuration":101694,"Delta":1996598},{"NoteNumber":68,"Velocity":36,"Duration":173076,"SoundDuration":173076,"Delta":2098293},{"NoteNumber":62,"Velocity":27,"Duration":412227,"SoundDuration":412227,"Delta":2329062},{"NoteNumber":59,"Velocity":23,"Duration":412227,"SoundDuration":412227,"Delta":2329062},{"NoteNumber":57,"Velocity":23,"Duration":412227,"SoundDuration":412227,"Delta":2329062},{"NoteNumber":74,"Velocity":36,"Duration":101695,"SoundDuration":101695,"Delta":2436205},{"NoteNumber":71,"Velocity":36,"Duration":101695,"SoundDuration":101695,"Delta":2537900},{"NoteNumber":68,"Velocity":36,"Duration":101694,"SoundDuration":101694,"Delta":2639595},{"NoteNumber":76,"Velocity":41,"Duration":101695,"SoundDuration":101695,"Delta":2741290},{"NoteNumber":72,"Velocity":35,"Duration":101695,"SoundDuration":101695,"Delta":2842985},{"NoteNumber":69,"Velocity":35,"Duration":171755,"SoundDuration":171755,"Delta":2944680},{"NoteNumber":64,"Velocity":27,"Duration":413265,"SoundDuration":413265,"Delta":3173687},{"NoteNumber":60,"Velocity":23,"Duration":413265,"SoundDuration":413265,"Delta":3173687},{"NoteNumber":57,"Velocity":23,"Duration":413265,"SoundDuration":413265,"Delta":3173687},{"NoteNumber":71,"Velocity":38,"Duration":102040,"SoundDuration":102040,"Delta":3280830},{"NoteNumber":72,"Velocity":38,"Duration":102040,"SoundDuration":102040,"Delta":3382871},{"NoteNumber":74,"Velocity":38,"Duration":102040,"SoundDuration":102040,"Delta":3484912},{"NoteNumber":76,"Velocity":45,"Duration":102040,"SoundDuration":102040,"Delta":3586952},{"NoteNumber":72,"Velocity":37,"Duration":102040,"SoundDuration":102040,"Delta":3688993},{"NoteNumber":69,"Velocity":38,"Duration":172413,"SoundDuration":172413,"Delta":3791034},{"NoteNumber":64,"Velocity":31,"Duration":414309,"SoundDuration":414309,"Delta":4020919},{"NoteNumber":60,"Velocity":25,"Duration":414309,"SoundDuration":414309,"Delta":4020919},{"NoteNumber":57,"Velocity":25,"Duration":414309,"SoundDuration":414309,"Delta":4020919},{"NoteNumber":76,"Velocity":44,"Duration":102388,"SoundDuration":102388,"Delta":4128062},{"NoteNumber":72,"Velocity":42,"Duration":102389,"SoundDuration":102389,"Delta":4230451},{"NoteNumber":69,"Velocity":42,"Duration":102388,"SoundDuration":102388,"Delta":4332840},{"NoteNumber":77,"Velocity":46,"Duration":102389,"SoundDuration":102389,"Delta":4435229},{"NoteNumber":74,"Velocity":43,"Duration":102388,"SoundDuration":102388,"Delta":4537618},{"NoteNumber":69,"Velocity":43,"Duration":171755,"SoundDuration":171755,"Delta":4640007},{"NoteNumber":57,"Velocity":27,"Duration":413265,"SoundDuration":413265,"Delta":4869014},{"NoteNumber":62,"Velocity":27,"Duration":413265,"SoundDuration":413265,"Delta":4869014},{"NoteNumber":65,"Velocity":34,"Duration":413265,"SoundDuration":413265,"Delta":4869014},{"NoteNumber":77,"Velocity":46,"Duration":102040,"SoundDuration":102040,"Delta":4976157},{"NoteNumber":74,"Velocity":46,"Duration":102040,"SoundDuration":102040,"Delta":5078198},{"NoteNumber":69,"Velocity":46,"Duration":102040,"SoundDuration":102040,"Delta":5180238},{"NoteNumber":74,"Velocity":52,"Duration":102040,"SoundDuration":102040,"Delta":5282279},{"NoteNumber":71,"Velocity":47,"Duration":102040,"SoundDuration":102040,"Delta":5384320},{"NoteNumber":68,"Velocity":47,"Duration":171755,"SoundDuration":171755,"Delta":5486361},{"NoteNumber":62,"Velocity":36,"Duration":412227,"SoundDuration":412227,"Delta":5715368},{"NoteNumber":59,"Velocity":29,"Duration":412227,"SoundDuration":412227,"Delta":5715368},{"NoteNumber":57,"Velocity":29,"Duration":412227,"SoundDuration":412227,"Delta":5715368},{"NoteNumber":74,"Velocity":48,"Duration":101695,"SoundDuration":101695,"Delta":5822511},{"NoteNumber":71,"Velocity":48,"Duration":101694,"SoundDuration":101694,"Delta":5924206},{"NoteNumber":68,"Velocity":48,"Duration":101695,"SoundDuration":101695,"Delta":6025901},{"NoteNumber":76,"Velocity":56,"Duration":111111,"SoundDuration":111111,"Delta":6127596},{"NoteNumber":72,"Velocity":52,"Duration":111111,"SoundDuration":111111,"Delta":6238707},{"NoteNumber":69,"Velocity":52,"Duration":165441,"SoundDuration":165441,"Delta":6349818},{"NoteNumber":60,"Velocity":31,"Duration":165441,"SoundDuration":165441,"Delta":6349818},{"NoteNumber":57,"Velocity":31,"Duration":165441,"SoundDuration":165441,"Delta":6349818},{"NoteNumber":64,"Velocity":38,"Duration":165441,"SoundDuration":165441,"Delta":6349818},{"NoteNumber":65,"Velocity":38,"Duration":412227,"SoundDuration":412227,"Delta":6570406},{"NoteNumber":62,"Velocity":31,"Duration":412227,"SoundDuration":412227,"Delta":6570406},{"NoteNumber":57,"Velocity":31,"Duration":412227,"SoundDuration":412227,"Delta":6570406},{"NoteNumber":74,"Velocity":55,"Duration":101694,"SoundDuration":101694,"Delta":6677549},{"NoteNumber":71,"Velocity":55,"Duration":101695,"SoundDuration":101695,"Delta":6779244},{"NoteNumber":68,"Velocity":55,"Duration":101694,"SoundDuration":101694,"Delta":6880939},{"NoteNumber":76,"Velocity":64,"Duration":110293,"SoundDuration":110293,"Delta":6982634},{"NoteNumber":72,"Velocity":55,"Duration":110293,"SoundDuration":110293,"Delta":7092928},{"NoteNumber":69,"Velocity":55,"Duration":165440,"SoundDuration":165440,"Delta":7203222},{"NoteNumber":57,"Velocity":34,"Duration":165440,"SoundDuration":165440,"Delta":7203222},{"NoteNumber":60,"Velocity":34,"Duration":165440,"SoundDuration":165440,"Delta":7203222},{"NoteNumber":64,"Velocity":42,"Duration":165440,"SoundDuration":165440,"Delta":7203222},{"NoteNumber":65,"Velocity":42,"Duration":409251,"SoundDuration":409251,"Delta":7423810},{"NoteNumber":62,"Velocity":34,"Duration":409251,"SoundDuration":409251,"Delta":7423810},{"NoteNumber":57,"Velocity":34,"Duration":409251,"SoundDuration":409251,"Delta":7423810},{"NoteNumber":74,"Velocity":58,"Duration":101694,"SoundDuration":101694,"Delta":7527976},{"NoteNumber":71,"Velocity":58,"Duration":101695,"SoundDuration":101695,"Delta":7629671},{"NoteNumber":68,"Velocity":58,"Duration":101694,"SoundDuration":101694,"Delta":7731366},{"NoteNumber":76,"Velocity":69,"Duration":109890,"SoundDuration":109890,"Delta":7833061},{"NoteNumber":72,"Velocity":57,"Duration":109890,"SoundDuration":109890,"Delta":7942951},{"NoteNumber":69,"Velocity":58,"Duration":164835,"SoundDuration":164835,"Delta":8052841},{"NoteNumber":60,"Velocity":37,"Duration":164835,"SoundDuration":164835,"Delta":8052841},{"NoteNumber":57,"Velocity":37,"Duration":164835,"SoundDuration":164835,"Delta":8052841},{"NoteNumber":64,"Velocity":46,"Duration":164835,"SoundDuration":164835,"Delta":8052841},{"NoteNumber":65,"Velocity":46,"Duration":406478,"SoundDuration":406478,"Delta":8272621},{"NoteNumber":62,"Velocity":37,"Duration":406478,"SoundDuration":406478,"Delta":8272621},{"NoteNumber":57,"Velocity":37,"Duration":406478,"SoundDuration":406478,"Delta":8272621},{"NoteNumber":74,"Velocity":64,"Duration":101010,"SoundDuration":101010,"Delta":8376069},{"NoteNumber":71,"Velocity":65,"Duration":101009,"SoundDuration":101009,"Delta":8477080},{"NoteNumber":68,"Velocity":65,"Duration":101010,"SoundDuration":101010,"Delta":8578089},{"NoteNumber":76,"Velocity":71,"Duration":101581,"SoundDuration":101581,"Delta":8679099},{"NoteNumber":72,"Velocity":65,"Duration":102506,"SoundDuration":102506,"Delta":8780681},{"NoteNumber":69,"Velocity":64,"Duration":103927,"SoundDuration":103927,"Delta":8883187},{"NoteNumber":64,"Velocity":63,"Duration":105141,"SoundDuration":105141,"Delta":8987115},{"NoteNumber":60,"Velocity":60,"Duration":106386,"SoundDuration":106386,"Delta":9092256},{"NoteNumber":57,"Velocity":58,"Duration":107656,"SoundDuration":107656,"Delta":9198642},{"NoteNumber":52,"Velocity":58,"Duration":108960,"SoundDuration":108960,"Delta":9306299},{"NoteNumber":48,"Velocity":57,"Duration":110159,"SoundDuration":110159,"Delta":9415259},{"NoteNumber":33,"Velocity":57,"Duration":241935,"SoundDuration":241935,"Delta":9525419},{"NoteNumber":45,"Velocity":57,"Duration":241935,"SoundDuration":241935,"Delta":9525419},{"NoteNumber":64,"Velocity":71,"Duration":441176,"SoundDuration":441176,"Delta":10009290},{"NoteNumber":52,"Velocity":56,"Duration":441176,"SoundDuration":441176,"Delta":10009290},{"NoteNumber":64,"Velocity":64,"Duration":661763,"SoundDuration":661763,"Delta":10450466},{"NoteNumber":69,"Velocity":71,"Duration":661763,"SoundDuration":661763,"Delta":10450466},{"NoteNumber":48,"Velocity":54,"Duration":661763,"SoundDuration":661763,"Delta":10450466},{"NoteNumber":57,"Velocity":58,"Duration":661763,"SoundDuration":661763,"Delta":10450466},{"NoteNumber":64,"Velocity":62,"Duration":215054,"SoundDuration":215054,"Delta":11112230},{"NoteNumber":71,"Velocity":68,"Duration":215054,"SoundDuration":215054,"Delta":11112230},{"NoteNumber":52,"Velocity":52,"Duration":215054,"SoundDuration":215054,"Delta":11112230},{"NoteNumber":59,"Velocity":57,"Duration":215054,"SoundDuration":215054,"Delta":11112230},{"NoteNumber":69,"Velocity":64,"Duration":441176,"SoundDuration":441176,"Delta":11327284},{"NoteNumber":72,"Velocity":71,"Duration":441176,"SoundDuration":441176,"Delta":11327284},{"NoteNumber":57,"Velocity":54,"Duration":441176,"SoundDuration":441176,"Delta":11327284},{"NoteNumber":60,"Velocity":58,"Duration":441176,"SoundDuration":441176,"Delta":11327284},{"NoteNumber":71,"Velocity":64,"Duration":441176,"SoundDuration":441176,"Delta":11768460},{"NoteNumber":74,"Velocity":71,"Duration":441176,"SoundDuration":441176,"Delta":11768460},{"NoteNumber":59,"Velocity":54,"Duration":441176,"SoundDuration":441176,"Delta":11768460},{"NoteNumber":62,"Velocity":58,"Duration":441176,"SoundDuration":441176,"Delta":11768460},{"NoteNumber":72,"Velocity":64,"Duration":452830,"SoundDuration":452830,"Delta":12209636},{"NoteNumber":76,"Velocity":73,"Duration":452830,"SoundDuration":452830,"Delta":12209636},{"NoteNumber":60,"Velocity":54,"Duration":452830,"SoundDuration":452830,"Delta":12209636},{"NoteNumber":64,"Velocity":58,"Duration":452830,"SoundDuration":452830,"Delta":12209636},{"NoteNumber":76,"Velocity":68,"Duration":882351,"SoundDuration":882351,"Delta":12662466},{"NoteNumber":79,"Velocity":76,"Duration":882351,"SoundDuration":882351,"Delta":12662466},{"NoteNumber":64,"Velocity":57,"Duration":882351,"SoundDuration":882351,"Delta":12662466},{"NoteNumber":67,"Velocity":65,"Duration":882351,"SoundDuration":882351,"Delta":12662466},{"NoteNumber":74,"Velocity":64,"Duration":323741,"SoundDuration":323741,"Delta":13544818},{"NoteNumber":77,"Velocity":73,"Duration":323741,"SoundDuration":323741,"Delta":13544818},{"NoteNumber":65,"Velocity":63,"Duration":323741,"SoundDuration":323741,"Delta":13544818},{"NoteNumber":62,"Velocity":56,"Duration":323741,"SoundDuration":323741,"Delta":13544818},{"NoteNumber":72,"Velocity":60,"Duration":102518,"SoundDuration":102518,"Delta":13868559},{"NoteNumber":76,"Velocity":67,"Duration":102518,"SoundDuration":102518,"Delta":13868559},{"NoteNumber":60,"Velocity":54,"Duration":102518,"SoundDuration":102518,"Delta":13868559},{"NoteNumber":64,"Velocity":58,"Duration":102518,"SoundDuration":102518,"Delta":13868559},{"NoteNumber":72,"Velocity":64,"Duration":441176,"SoundDuration":441176,"Delta":13976473},{"NoteNumber":76,"Velocity":71,"Duration":441176,"SoundDuration":441176,"Delta":13976473},{"NoteNumber":60,"Velocity":56,"Duration":441176,"SoundDuration":441176,"Delta":13976473},{"NoteNumber":64,"Velocity":63,"Duration":441176,"SoundDuration":441176,"Delta":13976473},{"NoteNumber":71,"Velocity":64,"Duration":327674,"SoundDuration":327674,"Delta":14417649},{"NoteNumber":74,"Velocity":71,"Duration":327674,"SoundDuration":327674,"Delta":14417649},{"NoteNumber":59,"Velocity":54,"Duration":327674,"SoundDuration":327674,"Delta":14417649},{"NoteNumber":62,"Velocity":58,"Duration":327674,"SoundDuration":327674,"Delta":14417649},{"NoteNumber":69,"Velocity":60,"Duration":103636,"SoundDuration":103636,"Delta":14745323},{"NoteNumber":72,"Velocity":67,"Duration":103636,"SoundDuration":103636,"Delta":14745323},{"NoteNumber":57,"Velocity":50,"Duration":103636,"SoundDuration":103636,"Delta":14745323},{"NoteNumber":60,"Velocity":56,"Duration":103636,"SoundDuration":103636,"Delta":14745323},{"NoteNumber":69,"Velocity":64,"Duration":447917,"SoundDuration":447917,"Delta":14854414},{"NoteNumber":72,"Velocity":71,"Duration":447917,"SoundDuration":447917,"Delta":14854414},{"NoteNumber":57,"Velocity":54,"Duration":447917,"SoundDuration":447917,"Delta":14854414},{"NoteNumber":60,"Velocity":58,"Duration":447917,"SoundDuration":447917,"Delta":14854414},{"NoteNumber":65,"Velocity":65,"Duration":335820,"SoundDuration":335820,"Delta":15302331},{"NoteNumber":72,"Velocity":65,"Duration":335820,"SoundDuration":335820,"Delta":15302331},{"NoteNumber":76,"Velocity":74,"Duration":335820,"SoundDuration":335820,"Delta":15302331},{"NoteNumber":50,"Velocity":54,"Duration":456302,"SoundDuration":456302,"Delta":15302331},{"NoteNumber":60,"Velocity":56,"Duration":335820,"SoundDuration":335820,"Delta":15302331},{"NoteNumber":64,"Velocity":63,"Duration":335820,"SoundDuration":335820,"Delta":15302331},{"NoteNumber":71,"Velocity":60,"Duration":120481,"SoundDuration":120481,"Delta":15638151},{"NoteNumber":74,"Velocity":67,"Duration":120481,"SoundDuration":120481,"Delta":15638151},{"NoteNumber":62,"Velocity":56,"Duration":120481,"SoundDuration":120481,"Delta":15638151},{"NoteNumber":59,"Velocity":50,"Duration":120481,"SoundDuration":120481,"Delta":15638151},{"NoteNumber":69,"Velocity":58,"Duration":909089,"SoundDuration":909089,"Delta":15758633},{"NoteNumber":72,"Velocity":66,"Duration":909089,"SoundDuration":909089,"Delta":15758633},{"NoteNumber":52,"Velocity":49,"Duration":1136362,"SoundDuration":1136362,"Delta":15758633},{"NoteNumber":60,"Velocity":56,"Duration":909089,"SoundDuration":909089,"Delta":15758633},{"NoteNumber":57,"Velocity":49,"Duration":909089,"SoundDuration":909089,"Delta":15758633},{"NoteNumber":68,"Velocity":57,"Duration":227272,"SoundDuration":227272,"Delta":16667723},{"NoteNumber":71,"Velocity":65,"Duration":227272,"SoundDuration":227272,"Delta":16667723},{"NoteNumber":56,"Velocity":48,"Duration":227272,"SoundDuration":227272,"Delta":16667723},{"NoteNumber":59,"Velocity":55,"Duration":227272,"SoundDuration":227272,"Delta":16667723},{"NoteNumber":62,"Velocity":64,"Duration":441175,"SoundDuration":441175,"Delta":17122268},{"NoteNumber":64,"Velocity":71,"Duration":441175,"SoundDuration":441175,"Delta":17122268},{"NoteNumber":52,"Velocity":56,"Duration":441175,"SoundDuration":441175,"Delta":17122268},{"NoteNumber":60,"Velocity":64,"Duration":661764,"SoundDuration":661764,"Delta":17563444},{"NoteNumber":64,"Velocity":64,"Duration":661764,"SoundDuration":661764,"Delta":17563444},{"NoteNumber":69,"Velocity":71,"Duration":661764,"SoundDuration":661764,"Delta":17563444},{"NoteNumber":45,"Velocity":54,"Duration":661764,"SoundDuration":661764,"Delta":17563444},{"NoteNumber":48,"Velocity":54,"Duration":661764,"SoundDuration":661764,"Delta":17563444},{"NoteNumber":57,"Velocity":58,"Duration":661764,"SoundDuration":661764,"Delta":17563444},{"NoteNumber":64,"Velocity":62,"Duration":215053,"SoundDuration":215053,"Delta":18225208},{"NoteNumber":71,"Velocity":68,"Duration":215053,"SoundDuration":215053,"Delta":18225208},{"NoteNumber":52,"Velocity":52,"Duration":215053,"SoundDuration":215053,"Delta":18225208},{"NoteNumber":59,"Velocity":57,"Duration":215053,"SoundDuration":215053,"Delta":18225208},{"NoteNumber":69,"Velocity":64,"Duration":441175,"SoundDuration":441175,"Delta":18440262},{"NoteNumber":72,"Velocity":71,"Duration":441175,"SoundDuration":441175,"Delta":18440262},{"NoteNumber":57,"Velocity":54,"Duration":441175,"SoundDuration":441175,"Delta":18440262},{"NoteNumber":60,"Velocity":58,"Duration":441175,"SoundDuration":441175,"Delta":18440262},{"NoteNumber":71,"Velocity":64,"Duration":441176,"SoundDuration":441176,"Delta":18881438},{"NoteNumber":74,"Velocity":71,"Duration":441176,"SoundDuration":441176,"Delta":18881438},{"NoteNumber":59,"Velocity":54,"Duration":441176,"SoundDuration":441176,"Delta":18881438},{"NoteNumber":62,"Velocity":58,"Duration":441176,"SoundDuration":441176,"Delta":18881438},{"NoteNumber":72,"Velocity":64,"Duration":430188,"SoundDuration":430188,"Delta":19322614},{"NoteNumber":76,"Velocity":73,"Duration":430188,"SoundDuration":430188,"Delta":19322614},{"NoteNumber":60,"Velocity":54,"Duration":430188,"SoundDuration":430188,"Delta":19322614},{"NoteNumber":64,"Velocity":58,"Duration":430188,"SoundDuration":430188,"Delta":19322614},{"NoteNumber":67,"Velocity":68,"Duration":887575,"SoundDuration":887575,"Delta":19775444},{"NoteNumber":76,"Velocity":68,"Duration":887575,"SoundDuration":887575,"Delta":19775444},{"NoteNumber":79,"Velocity":76,"Duration":887575,"SoundDuration":887575,"Delta":19775444},{"NoteNumber":52,"Velocity":67,"Duration":108695,"SoundDuration":108695,"Delta":19775444},{"NoteNumber":64,"Velocity":67,"Duration":887575,"SoundDuration":887575,"Delta":19775444},{"NoteNumber":53,"Velocity":69,"Duration":114503,"SoundDuration":114503,"Delta":19992836},{"NoteNumber":55,"Velocity":75,"Duration":1314006,"SoundDuration":1314006,"Delta":20221843},{"NoteNumber":74,"Velocity":64,"Duration":323741,"SoundDuration":323741,"Delta":20663019},{"NoteNumber":77,"Velocity":73,"Duration":323741,"SoundDuration":323741,"Delta":20663019},{"NoteNumber":65,"Velocity":63,"Duration":323741,"SoundDuration":323741,"Delta":20663019},{"NoteNumber":62,"Velocity":56,"Duration":323741,"SoundDuration":323741,"Delta":20663019},{"NoteNumber":72,"Velocity":60,"Duration":102518,"SoundDuration":102518,"Delta":20986761},{"NoteNumber":76,"Velocity":67,"Duration":102518,"SoundDuration":102518,"Delta":20986761},{"NoteNumber":60,"Velocity":54,"Duration":102518,"SoundDuration":102518,"Delta":20986761},{"NoteNumber":64,"Velocity":58,"Duration":102518,"SoundDuration":102518,"Delta":20986761},{"NoteNumber":72,"Velocity":64,"Duration":441175,"SoundDuration":441175,"Delta":21094674},{"NoteNumber":76,"Velocity":71,"Duration":441175,"SoundDuration":441175,"Delta":21094674},{"NoteNumber":60,"Velocity":56,"Duration":441175,"SoundDuration":441175,"Delta":21094674},{"NoteNumber":64,"Velocity":63,"Duration":441175,"SoundDuration":441175,"Delta":21094674},{"NoteNumber":71,"Velocity":64,"Duration":327674,"SoundDuration":327674,"Delta":21535850},{"NoteNumber":74,"Velocity":71,"Duration":327674,"SoundDuration":327674,"Delta":21535850},{"NoteNumber":55,"Velocity":54,"Duration":436765,"SoundDuration":436765,"Delta":21535850},{"NoteNumber":59,"Velocity":54,"Duration":327674,"SoundDuration":327674,"Delta":21535850},{"NoteNumber":62,"Velocity":58,"Duration":327674,"SoundDuration":327674,"Delta":21535850},{"NoteNumber":69,"Velocity":60,"Duration":103636,"SoundDuration":103636,"Delta":21863524},{"NoteNumber":72,"Velocity":67,"Duration":103636,"SoundDuration":103636,"Delta":21863524},{"NoteNumber":57,"Velocity":50,"Duration":103636,"SoundDuration":103636,"Delta":21863524},{"NoteNumber":60,"Velocity":56,"Duration":103636,"SoundDuration":103636,"Delta":21863524},{"NoteNumber":69,"Velocity":64,"Duration":447917,"SoundDuration":447917,"Delta":21972615},{"NoteNumber":72,"Velocity":71,"Duration":447917,"SoundDuration":447917,"Delta":21972615},{"NoteNumber":57,"Velocity":54,"Duration":447917,"SoundDuration":447917,"Delta":21972615},{"NoteNumber":60,"Velocity":58,"Duration":447917,"SoundDuration":447917,"Delta":21972615},{"NoteNumber":67,"Velocity":65,"Duration":335820,"SoundDuration":335820,"Delta":22420532},{"NoteNumber":71,"Velocity":74,"Duration":335820,"SoundDuration":335820,"Delta":22420532},{"NoteNumber":52,"Velocity":52,"Duration":456302,"SoundDuration":456302,"Delta":22420532},{"NoteNumber":55,"Velocity":52,"Duration":456302,"SoundDuration":456302,"Delta":22420532},{"NoteNumber":59,"Velocity":57,"Duration":456302,"SoundDuration":456302,"Delta":22420532},{"NoteNumber":65,"Velocity":60,"Duration":114457,"SoundDuration":114457,"Delta":22756353},{"NoteNumber":69,"Velocity":67,"Duration":114457,"SoundDuration":114457,"Delta":22756353},{"NoteNumber":65,"Velocity":57,"Duration":113636,"SoundDuration":113636,"Delta":22876835},{"NoteNumber":69,"Velocity":64,"Duration":113636,"SoundDuration":113636,"Delta":22876835},{"NoteNumber":53,"Velocity":42,"Duration":453119,"SoundDuration":453119,"Delta":22876835},{"NoteNumber":57,"Velocity":47,"Duration":227129,"SoundDuration":227129,"Delta":22876835},{"NoteNumber":59,"Velocity":57,"Duration":113207,"SoundDuration":113207,"Delta":23103965},{"NoteNumber":68,"Velocity":57,"Duration":113207,"SoundDuration":113207,"Delta":23103965},{"NoteNumber":71,"Velocity":65,"Duration":113207,"SoundDuration":113207,"Delta":23103965},{"NoteNumber":56,"Velocity":49,"Duration":113207,"SoundDuration":113207,"Delta":23103965},{"NoteNumber":60,"Velocity":59,"Duration":112500,"SoundDuration":112500,"Delta":23329954},{"NoteNumber":69,"Velocity":59,"Duration":112500,"SoundDuration":112500,"Delta":23329954},{"NoteNumber":72,"Velocity":67,"Duration":112500,"SoundDuration":112500,"Delta":23329954},{"NoteNumber":52,"Velocity":46,"Duration":112500,"SoundDuration":112500,"Delta":23329954},{"NoteNumber":57,"Velocity":52,"Duration":112500,"SoundDuration":112500,"Delta":23329954},{"NoteNumber":62,"Velocity":62,"Duration":111940,"SoundDuration":111940,"Delta":23554674},{"NoteNumber":71,"Velocity":62,"Duration":111940,"SoundDuration":111940,"Delta":23554674},{"NoteNumber":74,"Velocity":69,"Duration":111940,"SoundDuration":111940,"Delta":23554674},{"NoteNumber":50,"Velocity":47,"Duration":111940,"SoundDuration":111940,"Delta":23554674},{"NoteNumber":59,"Velocity":54,"Duration":111940,"SoundDuration":111940,"Delta":23554674},{"NoteNumber":64,"Velocity":64,"Duration":111248,"SoundDuration":111248,"Delta":23778139},{"NoteNumber":72,"Velocity":64,"Duration":111248,"SoundDuration":111248,"Delta":23778139},{"NoteNumber":76,"Velocity":71,"Duration":111248,"SoundDuration":111248,"Delta":23778139},{"NoteNumber":48,"Velocity":48,"Duration":111248,"SoundDuration":111248,"Delta":23778139},{"NoteNumber":60,"Velocity":55,"Duration":111248,"SoundDuration":111248,"Delta":23778139},{"NoteNumber":62,"Velocity":62,"Duration":112219,"SoundDuration":112219,"Delta":24001050},{"NoteNumber":71,"Velocity":62,"Duration":112219,"SoundDuration":112219,"Delta":24001050},{"NoteNumber":74,"Velocity":69,"Duration":112219,"SoundDuration":112219,"Delta":24001050},{"NoteNumber":50,"Velocity":46,"Duration":112219,"SoundDuration":112219,"Delta":24001050},{"NoteNumber":59,"Velocity":53,"Duration":112219,"SoundDuration":112219,"Delta":24001050},{"NoteNumber":60,"Velocity":59,"Duration":113780,"SoundDuration":113780,"Delta":24226336},{"NoteNumber":69,"Velocity":59,"Duration":113780,"SoundDuration":113780,"Delta":24226336},{"NoteNumber":72,"Velocity":67,"Duration":113780,"SoundDuration":113780,"Delta":24226336},{"NoteNumber":52,"Velocity":45,"Duration":113780,"SoundDuration":113780,"Delta":24226336},{"NoteNumber":57,"Velocity":50,"Duration":113780,"SoundDuration":113780,"Delta":24226336},{"NoteNumber":59,"Velocity":57,"Duration":115853,"SoundDuration":115853,"Delta":24569564},{"NoteNumber":64,"Velocity":57,"Duration":115853,"SoundDuration":115853,"Delta":24569564},{"NoteNumber":71,"Velocity":65,"Duration":115853,"SoundDuration":115853,"Delta":24569564},{"NoteNumber":52,"Velocity":48,"Duration":115853,"SoundDuration":115853,"Delta":24569564},{"NoteNumber":59,"Velocity":53,"Duration":930232,"SoundDuration":930232,"Delta":24691515},{"NoteNumber":64,"Velocity":53,"Duration":930232,"SoundDuration":930232,"Delta":24691515},{"NoteNumber":71,"Velocity":66,"Duration":930232,"SoundDuration":930232,"Delta":24691515},{"NoteNumber":52,"Velocity":52,"Duration":930232,"SoundDuration":930232,"Delta":24691515},{"NoteNumber":60,"Velocity":57,"Duration":232558,"SoundDuration":232558,"Delta":25621747},{"NoteNumber":69,"Velocity":65,"Duration":232558,"SoundDuration":232558,"Delta":25621747},{"NoteNumber":45,"Velocity":48,"Duration":232558,"SoundDuration":232558,"Delta":25621747},{"NoteNumber":57,"Velocity":55,"Duration":232558,"SoundDuration":232558,"Delta":25621747},{"NoteNumber":68,"Velocity":35,"Duration":102040,"SoundDuration":102040,"Delta":26296046},{"NoteNumber":69,"Velocity":35,"Duration":102040,"SoundDuration":102040,"Delta":26398087},{"NoteNumber":71,"Velocity":41,"Duration":102040,"SoundDuration":102040,"Delta":26500128},{"NoteNumber":68,"Velocity":35,"Duration":102040,"SoundDuration":102040,"Delta":26602169},{"NoteNumber":64,"Velocity":35,"Duration":173076,"SoundDuration":173076,"Delta":26704209},{"NoteNumber":59,"Velocity":27,"Duration":412227,"SoundDuration":412227,"Delta":26934978},{"NoteNumber":56,"Velocity":23,"Duration":412227,"SoundDuration":412227,"Delta":26934978},{"NoteNumber":52,"Velocity":23,"Duration":412227,"SoundDuration":412227,"Delta":26934978},{"NoteNumber":71,"Velocity":35,"Duration":101694,"SoundDuration":101694,"Delta":27042121},{"NoteNumber":68,"Velocity":35,"Duration":101694,"SoundDuration":101694,"Delta":27143816},{"NoteNumber":64,"Velocity":35,"Duration":101694,"SoundDuration":101694,"Delta":27245511},{"NoteNumber":72,"Velocity":41,"Duration":101695,"SoundDuration":101695,"Delta":27347206},{"NoteNumber":69,"Velocity":35,"Duration":101694,"SoundDuration":101694,"Delta":27448901},{"NoteNumber":64,"Velocity":35,"Duration":172413,"SoundDuration":172413,"Delta":27550596},{"NoteNumber":52,"Velocity":23,"Duration":413265,"SoundDuration":413265,"Delta":27780481},{"NoteNumber":57,"Velocity":23,"Duration":413265,"SoundDuration":413265,"Delta":27780481},{"NoteNumber":60,"Velocity":27,"Duration":413265,"SoundDuration":413265,"Delta":27780481},{"NoteNumber":72,"Velocity":36,"Duration":102040,"SoundDuration":102040,"Delta":27887624},{"NoteNumber":69,"Velocity":36,"Duration":102040,"SoundDuration":102040,"Delta":27989665},{"NoteNumber":64,"Velocity":36,"Duration":102040,"SoundDuration":102040,"Delta":28091705},{"NoteNumber":69,"Velocity":41,"Duration":102040,"SoundDuration":102040,"Delta":28193746},{"NoteNumber":66,"Velocity":35,"Duration":102040,"SoundDuration":102040,"Delta":28295787},{"NoteNumber":63,"Velocity":35,"Duration":173076,"SoundDuration":173076,"Delta":28397828},{"NoteNumber":57,"Velocity":27,"Duration":412227,"SoundDuration":412227,"Delta":28628597},{"NoteNumber":54,"Velocity":23,"Duration":412227,"SoundDuration":412227,"Delta":28628597},{"NoteNumber":52,"Velocity":23,"Duration":412227,"SoundDuration":412227,"Delta":28628597},{"NoteNumber":69,"Velocity":36,"Duration":101694,"SoundDuration":101694,"Delta":28735739},{"NoteNumber":66,"Velocity":36,"Duration":101694,"SoundDuration":101694,"Delta":28837434},{"NoteNumber":63,"Velocity":36,"Duration":101694,"SoundDuration":101694,"Delta":28939129},{"NoteNumber":71,"Velocity":41,"Duration":101695,"SoundDuration":101695,"Delta":29040824},{"NoteNumber":68,"Velocity":35,"Duration":101694,"SoundDuration":101694,"Delta":29142519},{"NoteNumber":64,"Velocity":35,"Duration":171755,"SoundDuration":171755,"Delta":29244214},{"NoteNumber":59,"Velocity":27,"Duration":413265,"SoundDuration":413265,"Delta":29473222},{"NoteNumber":56,"Velocity":23,"Duration":413265,"SoundDuration":413265,"Delta":29473222},{"NoteNumber":52,"Velocity":23,"Duration":413265,"SoundDuration":413265,"Delta":29473222},{"NoteNumber":66,"Velocity":38,"Duration":102040,"SoundDuration":102040,"Delta":29580365},{"NoteNumber":68,"Velocity":38,"Duration":102040,"SoundDuration":102040,"Delta":29682405},{"NoteNumber":69,"Velocity":38,"Duration":102040,"SoundDuration":102040,"Delta":29784446},{"NoteNumber":71,"Velocity":45,"Duration":102040,"SoundDuration":102040,"Delta":29886487},{"NoteNumber":68,"Velocity":37,"Duration":102040,"SoundDuration":102040,"Delta":29988528},{"NoteNumber":64,"Velocity":38,"Duration":172413,"SoundDuration":172413,"Delta":30090568},{"NoteNumber":62,"Velocity":31,"Duration":413264,"SoundDuration":413264,"Delta":30320453},{"NoteNumber":59,"Velocity":25,"Duration":413264,"SoundDuration":413264,"Delta":30320453},{"NoteNumber":52,"Velocity":25,"Duration":413264,"SoundDuration":413264,"Delta":30320453},{"NoteNumber":71,"Velocity":45,"Duration":102040,"SoundDuration":102040,"Delta":30427596},{"NoteNumber":68,"Velocity":46,"Duration":102040,"SoundDuration":102040,"Delta":30529637},{"NoteNumber":64,"Velocity":46,"Duration":102040,"SoundDuration":102040,"Delta":30631678},{"NoteNumber":72,"Velocity":50,"Duration":102040,"SoundDuration":102040,"Delta":30733718},{"NoteNumber":69,"Velocity":46,"Duration":102040,"SoundDuration":102040,"Delta":30835759},{"NoteNumber":64,"Velocity":46,"Duration":171755,"SoundDuration":171755,"Delta":30937800},{"NoteNumber":52,"Velocity":29,"Duration":412227,"SoundDuration":412227,"Delta":31166807},{"NoteNumber":57,"Velocity":29,"Duration":412227,"SoundDuration":412227,"Delta":31166807},{"NoteNumber":60,"Velocity":37,"Duration":412227,"SoundDuration":412227,"Delta":31166807},{"NoteNumber":72,"Velocity":52,"Duration":101694,"SoundDuration":101694,"Delta":31273950},{"NoteNumber":69,"Velocity":52,"Duration":101694,"SoundDuration":101694,"Delta":31375645},{"NoteNumber":64,"Velocity":52,"Duration":101694,"SoundDuration":101694,"Delta":31477340},{"NoteNumber":69,"Velocity":57,"Duration":101694,"SoundDuration":101694,"Delta":31579035},{"NoteNumber":66,"Velocity":53,"Duration":101694,"SoundDuration":101694,"Delta":31680730},{"NoteNumber":63,"Velocity":53,"Duration":171755,"SoundDuration":171755,"Delta":31782425},{"NoteNumber":57,"Velocity":35,"Duration":414309,"SoundDuration":414309,"Delta":32011433},{"NoteNumber":60,"Velocity":42,"Duration":414309,"SoundDuration":414309,"Delta":32011433},{"NoteNumber":54,"Velocity":35,"Duration":414309,"SoundDuration":414309,"Delta":32011433},{"NoteNumber":52,"Velocity":35,"Duration":414309,"SoundDuration":414309,"Delta":32011433},{"NoteNumber":69,"Velocity":58,"Duration":102389,"SoundDuration":102389,"Delta":32118575},{"NoteNumber":66,"Velocity":58,"Duration":102388,"SoundDuration":102388,"Delta":32220964},{"NoteNumber":63,"Velocity":60,"Duration":102389,"SoundDuration":102389,"Delta":32323353},{"NoteNumber":71,"Velocity":66,"Duration":111111,"SoundDuration":111111,"Delta":32425742},{"NoteNumber":68,"Velocity":58,"Duration":111111,"SoundDuration":111111,"Delta":32536853},{"NoteNumber":64,"Velocity":57,"Duration":165441,"SoundDuration":165441,"Delta":32647964},{"NoteNumber":52,"Velocity":56,"Duration":227272,"SoundDuration":227272,"Delta":32868552},{"NoteNumber":56,"Velocity":56,"Duration":227272,"SoundDuration":227272,"Delta":32868552},{"NoteNumber":59,"Velocity":66,"Duration":227272,"SoundDuration":227272,"Delta":32868552},{"NoteNumber":64,"Velocity":71,"Duration":227272,"SoundDuration":227272,"Delta":33095825},{"NoteNumber":52,"Velocity":56,"Duration":227272,"SoundDuration":227272,"Delta":33095825},{"NoteNumber":64,"Velocity":64,"Duration":661763,"SoundDuration":661763,"Delta":33323097},{"NoteNumber":71,"Velocity":71,"Duration":661763,"SoundDuration":661763,"Delta":33323097},{"NoteNumber":56,"Velocity":54,"Duration":661763,"SoundDuration":661763,"Delta":33323097},{"NoteNumber":59,"Velocity":58,"Duration":661763,"SoundDuration":661763,"Delta":33323097},{"NoteNumber":69,"Velocity":62,"Duration":215054,"SoundDuration":215054,"Delta":33984861},{"NoteNumber":72,"Velocity":68,"Duration":215054,"SoundDuration":215054,"Delta":33984861},{"NoteNumber":57,"Velocity":52,"Duration":215054,"SoundDuration":215054,"Delta":33984861},{"NoteNumber":60,"Velocity":57,"Duration":215054,"SoundDuration":215054,"Delta":33984861},{"NoteNumber":68,"Velocity":64,"Duration":441175,"SoundDuration":441175,"Delta":34199915},{"NoteNumber":74,"Velocity":71,"Duration":441175,"SoundDuration":441175,"Delta":34199915},{"NoteNumber":59,"Velocity":54,"Duration":441175,"SoundDuration":441175,"Delta":34199915},{"NoteNumber":62,"Velocity":58,"Duration":441175,"SoundDuration":441175,"Delta":34199915},{"NoteNumber":69,"Velocity":64,"Duration":441175,"SoundDuration":441175,"Delta":34641091},{"NoteNumber":72,"Velocity":71,"Duration":441175,"SoundDuration":441175,"Delta":34641091},{"NoteNumber":57,"Velocity":54,"Duration":441175,"SoundDuration":441175,"Delta":34641091},{"NoteNumber":60,"Velocity":58,"Duration":441175,"SoundDuration":441175,"Delta":34641091},{"NoteNumber":68,"Velocity":64,"Duration":113207,"SoundDuration":113207,"Delta":35082267},{"NoteNumber":77,"Velocity":73,"Duration":113207,"SoundDuration":113207,"Delta":35082267},{"NoteNumber":62,"Velocity":54,"Duration":113207,"SoundDuration":113207,"Delta":35082267},{"NoteNumber":65,"Velocity":58,"Duration":113207,"SoundDuration":113207,"Delta":35082267},{"NoteNumber":68,"Velocity":64,"Duration":84905,"SoundDuration":84905,"Delta":35421890},{"NoteNumber":76,"Velocity":73,"Duration":84905,"SoundDuration":84905,"Delta":35421890},{"NoteNumber":60,"Velocity":54,"Duration":84905,"SoundDuration":84905,"Delta":35421890},{"NoteNumber":64,"Velocity":58,"Duration":84905,"SoundDuration":84905,"Delta":35421890},{"NoteNumber":68,"Velocity":68,"Duration":882351,"SoundDuration":882351,"Delta":35535097},{"NoteNumber":74,"Velocity":76,"Duration":882351,"SoundDuration":882351,"Delta":35535097},{"NoteNumber":59,"Velocity":57,"Duration":882351,"SoundDuration":882351,"Delta":35535097},{"NoteNumber":62,"Velocity":65,"Duration":882351,"SoundDuration":882351,"Delta":35535097},{"NoteNumber":68,"Velocity":64,"Duration":431654,"SoundDuration":431654,"Delta":36417449},{"NoteNumber":77,"Velocity":73,"Duration":431654,"SoundDuration":431654,"Delta":36417449},{"NoteNumber":65,"Velocity":63,"Duration":431654,"SoundDuration":431654,"Delta":36417449},{"NoteNumber":62,"Velocity":56,"Duration":431654,"SoundDuration":431654,"Delta":36417449},{"NoteNumber":69,"Velocity":64,"Duration":441175,"SoundDuration":441175,"Delta":36849104},{"NoteNumber":76,"Velocity":71,"Duration":441175,"SoundDuration":441175,"Delta":36849104},{"NoteNumber":60,"Velocity":56,"Duration":441175,"SoundDuration":441175,"Delta":36849104},{"NoteNumber":64,"Velocity":63,"Duration":441175,"SoundDuration":441175,"Delta":36849104},{"NoteNumber":64,"Velocity":64,"Duration":436765,"SoundDuration":436765,"Delta":37290280},{"NoteNumber":72,"Velocity":71,"Duration":436765,"SoundDuration":436765,"Delta":37290280},{"NoteNumber":57,"Velocity":54,"Duration":436765,"SoundDuration":436765,"Delta":37290280},{"NoteNumber":60,"Velocity":58,"Duration":436765,"SoundDuration":436765,"Delta":37290280},{"NoteNumber":64,"Velocity":64,"Duration":447916,"SoundDuration":447916,"Delta":37727045},{"NoteNumber":71,"Velocity":69,"Duration":447916,"SoundDuration":447916,"Delta":37727045},{"NoteNumber":56,"Velocity":56,"Duration":447916,"SoundDuration":447916,"Delta":37727045},{"NoteNumber":59,"Velocity":61,"Duration":447916,"SoundDuration":447916,"Delta":37727045},{"NoteNumber":60,"Velocity":57,"Duration":456302,"SoundDuration":456302,"Delta":38174962},{"NoteNumber":63,"Velocity":65,"Duration":456302,"SoundDuration":456302,"Delta":38174962},{"NoteNumber":69,"Velocity":70,"Duration":335820,"SoundDuration":335820,"Delta":38174962},{"NoteNumber":54,"Velocity":55,"Duration":456302,"SoundDuration":456302,"Delta":38174962},{"NoteNumber":57,"Velocity":60,"Duration":335820,"SoundDuration":335820,"Delta":38174962},{"NoteNumber":71,"Velocity":67,"Duration":120482,"SoundDuration":120482,"Delta":38510783},{"NoteNumber":59,"Velocity":56,"Duration":120482,"SoundDuration":120482,"Delta":38510783},{"NoteNumber":60,"Velocity":58,"Duration":909089,"SoundDuration":909089,"Delta":38631265},{"NoteNumber":63,"Velocity":58,"Duration":909089,"SoundDuration":909089,"Delta":38631265},{"NoteNumber":69,"Velocity":66,"Duration":909089,"SoundDuration":909089,"Delta":38631265},{"NoteNumber":52,"Velocity":49,"Duration":1363635,"SoundDuration":1363635,"Delta":38631265},{"NoteNumber":57,"Velocity":56,"Duration":909089,"SoundDuration":909089,"Delta":38631265},{"NoteNumber":59,"Velocity":57,"Duration":454545,"SoundDuration":454545,"Delta":39540355},{"NoteNumber":64,"Velocity":57,"Duration":454545,"SoundDuration":454545,"Delta":39540355},{"NoteNumber":68,"Velocity":65,"Duration":454545,"SoundDuration":454545,"Delta":39540355},{"NoteNumber":56,"Velocity":55,"Duration":454545,"SoundDuration":454545,"Delta":39540355},{"NoteNumber":64,"Velocity":71,"Duration":441175,"SoundDuration":441175,"Delta":39994900},{"NoteNumber":52,"Velocity":56,"Duration":441175,"SoundDuration":441175,"Delta":39994900},{"NoteNumber":59,"Velocity":64,"Duration":661763,"SoundDuration":661763,"Delta":40436076},{"NoteNumber":64,"Velocity":64,"Duration":661763,"SoundDuration":661763,"Delta":40436076},{"NoteNumber":71,"Velocity":71,"Duration":661763,"SoundDuration":661763,"Delta":40436076},{"NoteNumber":56,"Velocity":58,"Duration":661763,"SoundDuration":661763,"Delta":40436076},{"NoteNumber":60,"Velocity":62,"Duration":215054,"SoundDuration":215054,"Delta":41097840},{"NoteNumber":69,"Velocity":62,"Duration":215054,"SoundDuration":215054,"Delta":41097840},{"NoteNumber":72,"Velocity":68,"Duration":215054,"SoundDuration":215054,"Delta":41097840},{"NoteNumber":57,"Velocity":57,"Duration":215054,"SoundDuration":215054,"Delta":41097840},{"NoteNumber":62,"Velocity":64,"Duration":441175,"SoundDuration":441175,"Delta":41312894},{"NoteNumber":68,"Velocity":64,"Duration":441175,"SoundDuration":441175,"Delta":41312894},{"NoteNumber":74,"Velocity":71,"Duration":441175,"SoundDuration":441175,"Delta":41312894},{"NoteNumber":59,"Velocity":58,"Duration":441175,"SoundDuration":441175,"Delta":41312894},{"NoteNumber":65,"Velocity":64,"Duration":441175,"SoundDuration":441175,"Delta":41754070},{"NoteNumber":68,"Velocity":64,"Duration":441175,"SoundDuration":441175,"Delta":41754070},{"NoteNumber":77,"Velocity":71,"Duration":441175,"SoundDuration":441175,"Delta":41754070},{"NoteNumber":62,"Velocity":58,"Duration":441175,"SoundDuration":441175,"Delta":41754070},{"NoteNumber":69,"Velocity":64,"Duration":113207,"SoundDuration":113207,"Delta":42195246},{"NoteNumber":64,"Velocity":64,"Duration":113207,"SoundDuration":113207,"Delta":42195246},{"NoteNumber":76,"Velocity":73,"Duration":113207,"SoundDuration":113207,"Delta":42195246},{"NoteNumber":60,"Velocity":58,"Duration":113207,"SoundDuration":113207,"Delta":42195246},{"NoteNumber":69,"Velocity":64,"Duration":84905,"SoundDuration":84905,"Delta":42534869},{"NoteNumber":62,"Velocity":64,"Duration":84905,"SoundDuration":84905,"Delta":42534869},{"NoteNumber":74,"Velocity":73,"Duration":84905,"SoundDuration":84905,"Delta":42534869},{"NoteNumber":59,"Velocity":58,"Duration":84905,"SoundDuration":84905,"Delta":42534869},{"NoteNumber":60,"Velocity":64,"Duration":882351,"SoundDuration":882351,"Delta":42648076},{"NoteNumber":69,"Velocity":68,"Duration":882351,"SoundDuration":882351,"Delta":42648076},{"NoteNumber":72,"Velocity":75,"Duration":882351,"SoundDuration":882351,"Delta":42648076},{"NoteNumber":57,"Velocity":60,"Duration":882351,"SoundDuration":882351,"Delta":42648076},{"NoteNumber":72,"Velocity":69,"Duration":449438,"SoundDuration":449438,"Delta":43530428},{"NoteNumber":64,"Velocity":69,"Duration":449438,"SoundDuration":449438,"Delta":43530428},{"NoteNumber":76,"Velocity":78,"Duration":449438,"SoundDuration":449438,"Delta":43530428},{"NoteNumber":54,"Velocity":68,"Duration":449438,"SoundDuration":449438,"Delta":43530428},{"NoteNumber":45,"Velocity":61,"Duration":449438,"SoundDuration":449438,"Delta":43530428},{"NoteNumber":71,"Velocity":69,"Duration":447760,"SoundDuration":447760,"Delta":43979866},{"NoteNumber":62,"Velocity":69,"Duration":447760,"SoundDuration":447760,"Delta":43979866},{"NoteNumber":74,"Velocity":77,"Duration":447760,"SoundDuration":447760,"Delta":43979866},{"NoteNumber":47,"Velocity":61,"Duration":447760,"SoundDuration":447760,"Delta":43979866},{"NoteNumber":55,"Velocity":68,"Duration":447760,"SoundDuration":447760,"Delta":43979866},{"NoteNumber":69,"Velocity":69,"Duration":439560,"SoundDuration":439560,"Delta":44427627},{"NoteNumber":64,"Velocity":69,"Duration":439560,"SoundDuration":439560,"Delta":44427627},{"NoteNumber":72,"Velocity":77,"Duration":439560,"SoundDuration":439560,"Delta":44427627},{"NoteNumber":48,"Velocity":58,"Duration":439560,"SoundDuration":439560,"Delta":44427627},{"NoteNumber":60,"Velocity":65,"Duration":439560,"SoundDuration":439560,"Delta":44427627},{"NoteNumber":67,"Velocity":72,"Duration":460101,"SoundDuration":460101,"Delta":44867187},{"NoteNumber":62,"Velocity":68,"Duration":460101,"SoundDuration":460101,"Delta":44867187},{"NoteNumber":71,"Velocity":75,"Duration":460101,"SoundDuration":460101,"Delta":44867187},{"NoteNumber":50,"Velocity":58,"Duration":460101,"SoundDuration":460101,"Delta":44867187},{"NoteNumber":59,"Velocity":65,"Duration":460101,"SoundDuration":460101,"Delta":44867187},{"NoteNumber":66,"Velocity":71,"Duration":456302,"SoundDuration":456302,"Delta":45327288},{"NoteNumber":60,"Velocity":71,"Duration":456302,"SoundDuration":456302,"Delta":45327288},{"NoteNumber":62,"Velocity":71,"Duration":456302,"SoundDuration":456302,"Delta":45327288},{"NoteNumber":69,"Velocity":79,"Duration":335820,"SoundDuration":335820,"Delta":45327288},{"NoteNumber":50,"Velocity":61,"Duration":456302,"SoundDuration":456302,"Delta":45327288},{"NoteNumber":57,"Velocity":68,"Duration":335820,"SoundDuration":335820,"Delta":45327288},{"NoteNumber":71,"Velocity":74,"Duration":120482,"SoundDuration":120482,"Delta":45663109},{"NoteNumber":59,"Velocity":62,"Duration":120482,"SoundDuration":120482,"Delta":45663109},{"NoteNumber":66,"Velocity":65,"Duration":909089,"SoundDuration":909089,"Delta":45783591},{"NoteNumber":60,"Velocity":65,"Duration":909089,"SoundDuration":909089,"Delta":45783591},{"NoteNumber":62,"Velocity":65,"Duration":909089,"SoundDuration":909089,"Delta":45783591},{"NoteNumber":69,"Velocity":73,"Duration":909089,"SoundDuration":909089,"Delta":45783591},{"NoteNumber":50,"Velocity":55,"Duration":909089,"SoundDuration":909089,"Delta":45783591},{"NoteNumber":57,"Velocity":62,"Duration":909089,"SoundDuration":909089,"Delta":45783591},{"NoteNumber":59,"Velocity":64,"Duration":441860,"SoundDuration":441860,"Delta":46692681},{"NoteNumber":62,"Velocity":64,"Duration":441860,"SoundDuration":441860,"Delta":46692681},{"NoteNumber":67,"Velocity":71,"Duration":441860,"SoundDuration":441860,"Delta":46692681},{"NoteNumber":43,"Velocity":52,"Duration":441860,"SoundDuration":441860,"Delta":46692681},{"NoteNumber":55,"Velocity":59,"Duration":441860,"SoundDuration":441860,"Delta":46692681},{"NoteNumber":67,"Velocity":82,"Duration":476190,"SoundDuration":476190,"Delta":47157797},{"NoteNumber":53,"Velocity":62,"Duration":476190,"SoundDuration":476190,"Delta":47157797},{"NoteNumber":55,"Velocity":67,"Duration":476190,"SoundDuration":476190,"Delta":47157797},{"NoteNumber":67,"Velocity":71,"Duration":661763,"SoundDuration":661763,"Delta":47633987},{"NoteNumber":76,"Velocity":71,"Duration":661763,"SoundDuration":661763,"Delta":47633987},{"NoteNumber":79,"Velocity":79,"Duration":661763,"SoundDuration":661763,"Delta":47633987},{"NoteNumber":52,"Velocity":63,"Duration":1317993,"SoundDuration":1317993,"Delta":47633987},{"NoteNumber":64,"Velocity":66,"Duration":661763,"SoundDuration":661763,"Delta":47633987},{"NoteNumber":65,"Velocity":69,"Duration":215054,"SoundDuration":215054,"Delta":48295751},{"NoteNumber":74,"Velocity":69,"Duration":215054,"SoundDuration":215054,"Delta":48295751},{"NoteNumber":77,"Velocity":76,"Duration":215054,"SoundDuration":215054,"Delta":48295751},{"NoteNumber":62,"Velocity":64,"Duration":215054,"SoundDuration":215054,"Delta":48295751},{"NoteNumber":64,"Velocity":71,"Duration":441175,"SoundDuration":441175,"Delta":48510805},{"NoteNumber":72,"Velocity":71,"Duration":441175,"SoundDuration":441175,"Delta":48510805},{"NoteNumber":76,"Velocity":79,"Duration":441175,"SoundDuration":441175,"Delta":48510805},{"NoteNumber":60,"Velocity":66,"Duration":441175,"SoundDuration":441175,"Delta":48510805},{"NoteNumber":65,"Velocity":71,"Duration":441175,"SoundDuration":441175,"Delta":48951981},{"NoteNumber":74,"Velocity":71,"Duration":441175,"SoundDuration":441175,"Delta":48951981},{"NoteNumber":77,"Velocity":79,"Duration":441175,"SoundDuration":441175,"Delta":48951981},{"NoteNumber":50,"Velocity":59,"Duration":441175,"SoundDuration":441175,"Delta":48951981},{"NoteNumber":62,"Velocity":66,"Duration":441175,"SoundDuration":441175,"Delta":48951981},{"NoteNumber":72,"Velocity":71,"Duration":452829,"SoundDuration":452829,"Delta":49393157},{"NoteNumber":64,"Velocity":71,"Duration":452829,"SoundDuration":452829,"Delta":49393157},{"NoteNumber":76,"Velocity":80,"Duration":452829,"SoundDuration":452829,"Delta":49393157},{"NoteNumber":55,"Velocity":66,"Duration":1114593,"SoundDuration":1114593,"Delta":49393157},{"NoteNumber":60,"Velocity":66,"Duration":452829,"SoundDuration":452829,"Delta":49393157},{"NoteNumber":62,"Velocity":73,"Duration":330882,"SoundDuration":330882,"Delta":49845987},{"NoteNumber":71,"Velocity":73,"Duration":330882,"SoundDuration":330882,"Delta":49845987},{"NoteNumber":74,"Velocity":80,"Duration":330882,"SoundDuration":330882,"Delta":49845987},{"NoteNumber":59,"Velocity":68,"Duration":330882,"SoundDuration":330882,"Delta":49845987},{"NoteNumber":60,"Velocity":69,"Duration":110293,"SoundDuration":110293,"Delta":50176869},{"NoteNumber":69,"Velocity":69,"Duration":110293,"SoundDuration":110293,"Delta":50176869},{"NoteNumber":72,"Velocity":76,"Duration":110293,"SoundDuration":110293,"Delta":50176869},{"NoteNumber":57,"Velocity":73,"Duration":110293,"SoundDuration":110293,"Delta":50176869},{"NoteNumber":62,"Velocity":69,"Duration":441175,"SoundDuration":441175,"Delta":50287163},{"NoteNumber":71,"Velocity":69,"Duration":441175,"SoundDuration":441175,"Delta":50287163},{"NoteNumber":74,"Velocity":79,"Duration":441175,"SoundDuration":441175,"Delta":50287163},{"NoteNumber":59,"Velocity":66,"Duration":441175,"SoundDuration":441175,"Delta":50287163},{"NoteNumber":53,"Velocity":73,"Duration":110294,"SoundDuration":110294,"Delta":50507751},{"NoteNumber":65,"Velocity":70,"Duration":431654,"SoundDuration":431654,"Delta":50728339},{"NoteNumber":67,"Velocity":85,"Duration":431654,"SoundDuration":431654,"Delta":50728339},{"NoteNumber":52,"Velocity":76,"Duration":107913,"SoundDuration":107913,"Delta":50728339},{"NoteNumber":55,"Velocity":71,"Duration":431654,"SoundDuration":431654,"Delta":50728339},{"NoteNumber":50,"Velocity":73,"Duration":107913,"SoundDuration":107913,"Delta":50944166},{"NoteNumber":72,"Velocity":71,"Duration":659758,"SoundDuration":659758,"Delta":51159994},{"NoteNumber":64,"Velocity":71,"Duration":659758,"SoundDuration":659758,"Delta":51159994},{"NoteNumber":76,"Velocity":79,"Duration":659758,"SoundDuration":659758,"Delta":51159994},{"NoteNumber":48,"Velocity":62,"Duration":1325857,"SoundDuration":1325857,"Delta":51159994},{"NoteNumber":60,"Velocity":70,"Duration":659758,"SoundDuration":659758,"Delta":51159994},{"NoteNumber":62,"Velocity":71,"Duration":109090,"SoundDuration":109090,"Delta":51819753},{"NoteNumber":71,"Velocity":71,"Duration":109090,"SoundDuration":109090,"Delta":51819753},{"NoteNumber":74,"Velocity":79,"Duration":109090,"SoundDuration":109090,"Delta":51819753},{"NoteNumber":59,"Velocity":63,"Duration":109090,"SoundDuration":109090,"Delta":51819753},{"NoteNumber":60,"Velocity":64,"Duration":109890,"SoundDuration":109890,"Delta":52037935},{"NoteNumber":69,"Velocity":64,"Duration":109890,"SoundDuration":109890,"Delta":52037935},{"NoteNumber":72,"Velocity":76,"Duration":109890,"SoundDuration":109890,"Delta":52037935},{"NoteNumber":57,"Velocity":64,"Duration":109890,"SoundDuration":109890,"Delta":52037935},{"NoteNumber":62,"Velocity":65,"Duration":114068,"SoundDuration":114068,"Delta":52257715},{"NoteNumber":71,"Velocity":65,"Duration":114068,"SoundDuration":114068,"Delta":52257715},{"NoteNumber":74,"Velocity":77,"Duration":114068,"SoundDuration":114068,"Delta":52257715},{"NoteNumber":59,"Velocity":68,"Duration":114068,"SoundDuration":114068,"Delta":52257715},{"NoteNumber":64,"Velocity":67,"Duration":111940,"SoundDuration":111940,"Delta":52485852},{"NoteNumber":72,"Velocity":67,"Duration":111940,"SoundDuration":111940,"Delta":52485852},{"NoteNumber":76,"Velocity":79,"Duration":111940,"SoundDuration":111940,"Delta":52485852},{"NoteNumber":47,"Velocity":68,"Duration":456302,"SoundDuration":456302,"Delta":52485852},{"NoteNumber":60,"Velocity":68,"Duration":111940,"SoundDuration":111940,"Delta":52485852},{"NoteNumber":62,"Velocity":65,"Duration":111940,"SoundDuration":111940,"Delta":52709732},{"NoteNumber":71,"Velocity":65,"Duration":111940,"SoundDuration":111940,"Delta":52709732},{"NoteNumber":74,"Velocity":77,"Duration":111940,"SoundDuration":111940,"Delta":52709732},{"NoteNumber":59,"Velocity":66,"Duration":111940,"SoundDuration":111940,"Delta":52709732},{"NoteNumber":69,"Velocity":71,"Duration":452829,"SoundDuration":452829,"Delta":52942155},{"NoteNumber":60,"Velocity":71,"Duration":452829,"SoundDuration":452829,"Delta":52942155},{"NoteNumber":72,"Velocity":80,"Duration":452829,"SoundDuration":452829,"Delta":52942155},{"NoteNumber":52,"Velocity":66,"Duration":1114593,"SoundDuration":1114593,"Delta":52942155},{"NoteNumber":57,"Velocity":66,"Duration":452829,"SoundDuration":452829,"Delta":52942155},{"NoteNumber":59,"Velocity":73,"Duration":330882,"SoundDuration":330882,"Delta":53394985},{"NoteNumber":68,"Velocity":73,"Duration":330882,"SoundDuration":330882,"Delta":53394985},{"NoteNumber":71,"Velocity":80,"Duration":330882,"SoundDuration":330882,"Delta":53394985},{"NoteNumber":56,"Velocity":68,"Duration":330882,"SoundDuration":330882,"Delta":53394985},{"NoteNumber":57,"Velocity":65,"Duration":110293,"SoundDuration":110293,"Delta":53725867},{"NoteNumber":66,"Velocity":65,"Duration":110293,"SoundDuration":110293,"Delta":53725867},{"NoteNumber":69,"Velocity":73,"Duration":110293,"SoundDuration":110293,"Delta":53725867},{"NoteNumber":54,"Velocity":68,"Duration":110293,"SoundDuration":110293,"Delta":53725867},{"NoteNumber":59,"Velocity":65,"Duration":441175,"SoundDuration":441175,"Delta":53836161},{"NoteNumber":68,"Velocity":65,"Duration":441175,"SoundDuration":441175,"Delta":53836161},{"NoteNumber":71,"Velocity":76,"Duration":441175,"SoundDuration":441175,"Delta":53836161},{"NoteNumber":56,"Velocity":62,"Duration":441175,"SoundDuration":441175,"Delta":53836161},{"NoteNumber":50,"Velocity":76,"Duration":110294,"SoundDuration":110294,"Delta":54056749},{"NoteNumber":62,"Velocity":71,"Duration":454545,"SoundDuration":454545,"Delta":54277337},{"NoteNumber":64,"Velocity":80,"Duration":454545,"SoundDuration":454545,"Delta":54277337},{"NoteNumber":48,"Velocity":79,"Duration":113636,"SoundDuration":113636,"Delta":54277337},{"NoteNumber":52,"Velocity":74,"Duration":454545,"SoundDuration":454545,"Delta":54277337},{"NoteNumber":45,"Velocity":76,"Duration":113636,"SoundDuration":113636,"Delta":54504609},{"NoteNumber":60,"Velocity":71,"Duration":661763,"SoundDuration":661763,"Delta":54731882},{"NoteNumber":64,"Velocity":71,"Duration":661763,"SoundDuration":661763,"Delta":54731882},{"NoteNumber":69,"Velocity":79,"Duration":661763,"SoundDuration":661763,"Delta":54731882},{"NoteNumber":45,"Velocity":59,"Duration":661763,"SoundDuration":661763,"Delta":54731882},{"NoteNumber":48,"Velocity":59,"Duration":661763,"SoundDuration":661763,"Delta":54731882},{"NoteNumber":57,"Velocity":66,"Duration":661763,"SoundDuration":661763,"Delta":54731882},{"NoteNumber":64,"Velocity":69,"Duration":215054,"SoundDuration":215054,"Delta":55393646},{"NoteNumber":71,"Velocity":76,"Duration":215054,"SoundDuration":215054,"Delta":55393646},{"NoteNumber":52,"Velocity":57,"Duration":215054,"SoundDuration":215054,"Delta":55393646},{"NoteNumber":59,"Velocity":64,"Duration":215054,"SoundDuration":215054,"Delta":55393646},{"NoteNumber":69,"Velocity":71,"Duration":441175,"SoundDuration":441175,"Delta":55608700},{"NoteNumber":72,"Velocity":79,"Duration":441175,"SoundDuration":441175,"Delta":55608700},{"NoteNumber":57,"Velocity":59,"Duration":441175,"SoundDuration":441175,"Delta":55608700},{"NoteNumber":60,"Velocity":66,"Duration":441175,"SoundDuration":441175,"Delta":55608700},{"NoteNumber":71,"Velocity":71,"Duration":441175,"SoundDuration":441175,"Delta":56049876},{"NoteNumber":74,"Velocity":79,"Duration":441175,"SoundDuration":441175,"Delta":56049876},{"NoteNumber":59,"Velocity":59,"Duration":441175,"SoundDuration":441175,"Delta":56049876},{"NoteNumber":62,"Velocity":66,"Duration":441175,"SoundDuration":441175,"Delta":56049876},{"NoteNumber":72,"Velocity":71,"Duration":430188,"SoundDuration":430188,"Delta":56491052},{"NoteNumber":76,"Velocity":80,"Duration":430188,"SoundDuration":430188,"Delta":56491052},{"NoteNumber":60,"Velocity":59,"Duration":430188,"SoundDuration":430188,"Delta":56491052},{"NoteNumber":64,"Velocity":66,"Duration":430188,"SoundDuration":430188,"Delta":56491052},{"NoteNumber":67,"Velocity":76,"Duration":887574,"SoundDuration":887574,"Delta":56943882},{"NoteNumber":76,"Velocity":76,"Duration":887574,"SoundDuration":887574,"Delta":56943882},{"NoteNumber":79,"Velocity":86,"Duration":887574,"SoundDuration":887574,"Delta":56943882},{"NoteNumber":52,"Velocity":76,"Duration":108695,"SoundDuration":108695,"Delta":56943882},{"NoteNumber":64,"Velocity":76,"Duration":887574,"SoundDuration":887574,"Delta":56943882},{"NoteNumber":53,"Velocity":77,"Duration":114503,"SoundDuration":114503,"Delta":57161273},{"NoteNumber":55,"Velocity":84,"Duration":1314006,"SoundDuration":1314006,"Delta":57390281},{"NoteNumber":74,"Velocity":71,"Duration":323741,"SoundDuration":323741,"Delta":57831457},{"NoteNumber":77,"Velocity":80,"Duration":323741,"SoundDuration":323741,"Delta":57831457},{"NoteNumber":65,"Velocity":70,"Duration":323741,"SoundDuration":323741,"Delta":57831457},{"NoteNumber":62,"Velocity":62,"Duration":323741,"SoundDuration":323741,"Delta":57831457},{"NoteNumber":72,"Velocity":68,"Duration":102518,"SoundDuration":102518,"Delta":58155198},{"NoteNumber":76,"Velocity":76,"Duration":102518,"SoundDuration":102518,"Delta":58155198},{"NoteNumber":60,"Velocity":59,"Duration":102518,"SoundDuration":102518,"Delta":58155198},{"NoteNumber":64,"Velocity":66,"Duration":102518,"SoundDuration":102518,"Delta":58155198},{"NoteNumber":72,"Velocity":71,"Duration":441175,"SoundDuration":441175,"Delta":58263112},{"NoteNumber":76,"Velocity":79,"Duration":441175,"SoundDuration":441175,"Delta":58263112},{"NoteNumber":60,"Velocity":62,"Duration":441175,"SoundDuration":441175,"Delta":58263112},{"NoteNumber":64,"Velocity":70,"Duration":441175,"SoundDuration":441175,"Delta":58263112},{"NoteNumber":71,"Velocity":71,"Duration":327674,"SoundDuration":327674,"Delta":58704288},{"NoteNumber":74,"Velocity":79,"Duration":327674,"SoundDuration":327674,"Delta":58704288},{"NoteNumber":56,"Velocity":59,"Duration":436765,"SoundDuration":436765,"Delta":58704288},{"NoteNumber":59,"Velocity":59,"Duration":327674,"SoundDuration":327674,"Delta":58704288},{"NoteNumber":62,"Velocity":66,"Duration":327674,"SoundDuration":327674,"Delta":58704288},{"NoteNumber":69,"Velocity":68,"Duration":103636,"SoundDuration":103636,"Delta":59031962},{"NoteNumber":72,"Velocity":76,"Duration":103636,"SoundDuration":103636,"Delta":59031962},{"NoteNumber":57,"Velocity":57,"Duration":103636,"SoundDuration":103636,"Delta":59031962},{"NoteNumber":60,"Velocity":63,"Duration":103636,"SoundDuration":103636,"Delta":59031962},{"NoteNumber":69,"Velocity":71,"Duration":219780,"SoundDuration":219780,"Delta":59141053},{"NoteNumber":72,"Velocity":79,"Duration":219780,"SoundDuration":219780,"Delta":59141053},{"NoteNumber":57,"Velocity":59,"Duration":447916,"SoundDuration":447916,"Delta":59141053},{"NoteNumber":60,"Velocity":66,"Duration":447916,"SoundDuration":447916,"Delta":59141053},{"NoteNumber":72,"Velocity":85,"Duration":228136,"SoundDuration":228136,"Delta":59360833},{"NoteNumber":64,"Velocity":68,"Duration":354330,"SoundDuration":354330,"Delta":59588970},{"NoteNumber":65,"Velocity":73,"Duration":354330,"SoundDuration":354330,"Delta":59588970},{"NoteNumber":72,"Velocity":73,"Duration":354330,"SoundDuration":354330,"Delta":59588970},{"NoteNumber":76,"Velocity":79,"Duration":354330,"SoundDuration":354330,"Delta":59588970},{"NoteNumber":50,"Velocity":57,"Duration":481449,"SoundDuration":481449,"Delta":59588970},{"NoteNumber":60,"Velocity":64,"Duration":354330,"SoundDuration":354330,"Delta":59588970},{"NoteNumber":71,"Velocity":68,"Duration":127118,"SoundDuration":127118,"Delta":59943300},{"NoteNumber":74,"Velocity":76,"Duration":127118,"SoundDuration":127118,"Delta":59943300},{"NoteNumber":59,"Velocity":63,"Duration":127118,"SoundDuration":127118,"Delta":59943300},{"NoteNumber":62,"Velocity":63,"Duration":127118,"SoundDuration":127118,"Delta":59943300},{"NoteNumber":69,"Velocity":66,"Duration":922787,"SoundDuration":922787,"Delta":60070419},{"NoteNumber":72,"Velocity":75,"Duration":922787,"SoundDuration":922787,"Delta":60070419},{"NoteNumber":52,"Velocity":56,"Duration":1150060,"SoundDuration":1150060,"Delta":60070419},{"NoteNumber":60,"Velocity":63,"Duration":922787,"SoundDuration":922787,"Delta":60070419},{"NoteNumber":57,"Velocity":56,"Duration":922787,"SoundDuration":922787,"Delta":60070419},{"NoteNumber":63,"Velocity":76,"Duration":348720,"SoundDuration":348720,"Delta":60524964},{"NoteNumber":64,"Velocity":66,"Duration":119522,"SoundDuration":119522,"Delta":60873685},{"NoteNumber":68,"Velocity":61,"Duration":227272,"SoundDuration":227272,"Delta":60993207},{"NoteNumber":71,"Velocity":69,"Duration":227272,"SoundDuration":227272,"Delta":60993207},{"NoteNumber":56,"Velocity":52,"Duration":227272,"SoundDuration":227272,"Delta":60993207},{"NoteNumber":59,"Velocity":57,"Duration":227272,"SoundDuration":227272,"Delta":60993207},{"NoteNumber":62,"Velocity":71,"Duration":454545,"SoundDuration":454545,"Delta":61447752},{"NoteNumber":64,"Velocity":80,"Duration":454545,"SoundDuration":454545,"Delta":61447752},{"NoteNumber":52,"Velocity":74,"Duration":454545,"SoundDuration":454545,"Delta":61447752},{"NoteNumber":60,"Velocity":71,"Duration":661764,"SoundDuration":661764,"Delta":61902297},{"NoteNumber":64,"Velocity":71,"Duration":661764,"SoundDuration":661764,"Delta":61902297},{"NoteNumber":69,"Velocity":79,"Duration":661764,"SoundDuration":661764,"Delta":61902297},{"NoteNumber":45,"Velocity":59,"Duration":661764,"SoundDuration":661764,"Delta":61902297},{"NoteNumber":48,"Velocity":59,"Duration":661764,"SoundDuration":661764,"Delta":61902297},{"NoteNumber":57,"Velocity":66,"Duration":661764,"SoundDuration":661764,"Delta":61902297},{"NoteNumber":64,"Velocity":69,"Duration":215053,"SoundDuration":215053,"Delta":62564061},{"NoteNumber":71,"Velocity":76,"Duration":215053,"SoundDuration":215053,"Delta":62564061},{"NoteNumber":52,"Velocity":57,"Duration":215053,"SoundDuration":215053,"Delta":62564061},{"NoteNumber":59,"Velocity":64,"Duration":215053,"SoundDuration":215053,"Delta":62564061},{"NoteNumber":69,"Velocity":71,"Duration":330882,"SoundDuration":330882,"Delta":62779115},{"NoteNumber":72,"Velocity":79,"Duration":330882,"SoundDuration":330882,"Delta":62779115},{"NoteNumber":60,"Velocity":67,"Duration":330882,"SoundDuration":330882,"Delta":62779115},{"NoteNumber":57,"Velocity":59,"Duration":330882,"SoundDuration":330882,"Delta":62779115},{"NoteNumber":64,"Velocity":71,"Duration":110293,"SoundDuration":110293,"Delta":63109997},{"NoteNumber":71,"Velocity":79,"Duration":110293,"SoundDuration":110293,"Delta":63109997},{"NoteNumber":59,"Velocity":63,"Duration":110293,"SoundDuration":110293,"Delta":63109997},{"NoteNumber":52,"Velocity":53,"Duration":110293,"SoundDuration":110293,"Delta":63109997},{"NoteNumber":69,"Velocity":71,"Duration":330882,"SoundDuration":330882,"Delta":63220291},{"NoteNumber":72,"Velocity":79,"Duration":330882,"SoundDuration":330882,"Delta":63220291},{"NoteNumber":60,"Velocity":68,"Duration":330882,"SoundDuration":330882,"Delta":63220291},{"NoteNumber":57,"Velocity":57,"Duration":330882,"SoundDuration":330882,"Delta":63220291},{"NoteNumber":74,"Velocity":79,"Duration":110293,"SoundDuration":110293,"Delta":63551173},{"NoteNumber":71,"Velocity":71,"Duration":110293,"SoundDuration":110293,"Delta":63551173},{"NoteNumber":62,"Velocity":54,"Duration":110293,"SoundDuration":110293,"Delta":63551173},{"NoteNumber":59,"Velocity":52,"Duration":110293,"SoundDuration":110293,"Delta":63551173},{"NoteNumber":72,"Velocity":71,"Duration":430188,"SoundDuration":430188,"Delta":63661467},{"NoteNumber":76,"Velocity":80,"Duration":430188,"SoundDuration":430188,"Delta":63661467},{"NoteNumber":64,"Velocity":66,"Duration":430188,"SoundDuration":430188,"Delta":63661467},{"NoteNumber":60,"Velocity":59,"Duration":430188,"SoundDuration":430188,"Delta":63661467},{"NoteNumber":76,"Velocity":76,"Duration":887574,"SoundDuration":887574,"Delta":64114297},{"NoteNumber":79,"Velocity":86,"Duration":887574,"SoundDuration":887574,"Delta":64114297},{"NoteNumber":67,"Velocity":76,"Duration":887574,"SoundDuration":887574,"Delta":64114297},{"NoteNumber":64,"Velocity":76,"Duration":887574,"SoundDuration":887574,"Delta":64114297},{"NoteNumber":79,"Velocity":77,"Duration":1630070,"SoundDuration":1630070,"Delta":65001872},{"NoteNumber":82,"Velocity":88,"Duration":1630070,"SoundDuration":1630070,"Delta":65001872},{"NoteNumber":67,"Velocity":75,"Duration":1630070,"SoundDuration":1630070,"Delta":65001872},{"NoteNumber":70,"Velocity":75,"Duration":1630070,"SoundDuration":1630070,"Delta":65001872},{"NoteNumber":65,"Velocity":75,"Duration":110293,"SoundDuration":110293,"Delta":65654115},{"NoteNumber":64,"Velocity":71,"Duration":106007,"SoundDuration":106007,"Delta":65874703},{"NoteNumber":62,"Velocity":71,"Duration":106007,"SoundDuration":106007,"Delta":66086717},{"NoteNumber":61,"Velocity":66,"Duration":442828,"SoundDuration":442828,"Delta":66300638},{"NoteNumber":70,"Velocity":67,"Duration":83643,"SoundDuration":83643,"Delta":66631942},{"NoteNumber":79,"Velocity":67,"Duration":83643,"SoundDuration":83643,"Delta":66631942},{"NoteNumber":82,"Velocity":79,"Duration":83643,"SoundDuration":83643,"Delta":66631942},{"NoteNumber":67,"Velocity":63,"Duration":83643,"SoundDuration":83643,"Delta":66631942},{"NoteNumber":69,"Velocity":73,"Duration":108303,"SoundDuration":108303,"Delta":66743466},{"NoteNumber":77,"Velocity":73,"Duration":108303,"SoundDuration":108303,"Delta":66743466},{"NoteNumber":81,"Velocity":81,"Duration":81227,"SoundDuration":81227,"Delta":66743466},{"NoteNumber":65,"Velocity":65,"Duration":108303,"SoundDuration":108303,"Delta":66743466},{"NoteNumber":67,"Velocity":68,"Duration":85877,"SoundDuration":85877,"Delta":67068376},{"NoteNumber":76,"Velocity":68,"Duration":85877,"SoundDuration":85877,"Delta":67068376},{"NoteNumber":79,"Velocity":76,"Duration":85877,"SoundDuration":85877,"Delta":67068376},{"NoteNumber":64,"Velocity":59,"Duration":85877,"SoundDuration":85877,"Delta":67068376},{"NoteNumber":65,"Velocity":75,"Duration":1196816,"SoundDuration":1196816,"Delta":67182880},{"NoteNumber":74,"Velocity":75,"Duration":1196816,"SoundDuration":1196816,"Delta":67182880},{"NoteNumber":77,"Velocity":84,"Duration":1196816,"SoundDuration":1196816,"Delta":67182880},{"NoteNumber":62,"Velocity":71,"Duration":1196816,"SoundDuration":1196816,"Delta":67182880},{"NoteNumber":60,"Velocity":71,"Duration":110293,"SoundDuration":110293,"Delta":67403468},{"NoteNumber":59,"Velocity":71,"Duration":106007,"SoundDuration":106007,"Delta":67621675},{"NoteNumber":57,"Velocity":71,"Duration":106007,"SoundDuration":106007,"Delta":67833689},{"NoteNumber":56,"Velocity":66,"Duration":442828,"SoundDuration":442828,"Delta":68048392},{"NoteNumber":65,"Velocity":67,"Duration":83643,"SoundDuration":83643,"Delta":68379696},{"NoteNumber":74,"Velocity":67,"Duration":83643,"SoundDuration":83643,"Delta":68379696},{"NoteNumber":77,"Velocity":79,"Duration":83643,"SoundDuration":83643,"Delta":68379696},{"NoteNumber":62,"Velocity":63,"Duration":83643,"SoundDuration":83643,"Delta":68379696},{"NoteNumber":64,"Velocity":73,"Duration":107913,"SoundDuration":107913,"Delta":68491221},{"NoteNumber":72,"Velocity":73,"Duration":107913,"SoundDuration":107913,"Delta":68491221},{"NoteNumber":76,"Velocity":81,"Duration":107913,"SoundDuration":107913,"Delta":68491221},{"NoteNumber":60,"Velocity":65,"Duration":107913,"SoundDuration":107913,"Delta":68491221},{"NoteNumber":62,"Velocity":68,"Duration":85227,"SoundDuration":85227,"Delta":68814962},{"NoteNumber":71,"Velocity":68,"Duration":85227,"SoundDuration":85227,"Delta":68814962},{"NoteNumber":74,"Velocity":76,"Duration":85227,"SoundDuration":85227,"Delta":68814962},{"NoteNumber":59,"Velocity":59,"Duration":85227,"SoundDuration":85227,"Delta":68814962},{"NoteNumber":60,"Velocity":75,"Duration":1089888,"SoundDuration":1089888,"Delta":68928598},{"NoteNumber":69,"Velocity":75,"Duration":1089888,"SoundDuration":1089888,"Delta":68928598},{"NoteNumber":72,"Velocity":84,"Duration":1089888,"SoundDuration":1089888,"Delta":68928598},{"NoteNumber":57,"Velocity":71,"Duration":1201412,"SoundDuration":1201412,"Delta":68928598},{"NoteNumber":55,"Velocity":71,"Duration":110293,"SoundDuration":110293,"Delta":69149186},{"NoteNumber":54,"Velocity":71,"Duration":109488,"SoundDuration":109488,"Delta":69367007},{"NoteNumber":52,"Velocity":71,"Duration":109488,"SoundDuration":109488,"Delta":69585985},{"NoteNumber":51,"Velocity":66,"Duration":436571,"SoundDuration":436571,"Delta":69804963},{"NoteNumber":59,"Velocity":67,"Duration":83643,"SoundDuration":83643,"Delta":70018486},{"NoteNumber":68,"Velocity":67,"Duration":83643,"SoundDuration":83643,"Delta":70018486},{"NoteNumber":71,"Velocity":79,"Duration":83643,"SoundDuration":83643,"Delta":70018486},{"NoteNumber":56,"Velocity":63,"Duration":83643,"SoundDuration":83643,"Delta":70018486},{"NoteNumber":57,"Velocity":73,"Duration":111524,"SoundDuration":111524,"Delta":70241535},{"NoteNumber":66,"Velocity":73,"Duration":111524,"SoundDuration":111524,"Delta":70241535},{"NoteNumber":69,"Velocity":81,"Duration":111524,"SoundDuration":111524,"Delta":70241535},{"NoteNumber":54,"Velocity":65,"Duration":111524,"SoundDuration":111524,"Delta":70241535},{"NoteNumber":59,"Velocity":68,"Duration":83643,"SoundDuration":83643,"Delta":70464583},{"NoteNumber":68,"Velocity":68,"Duration":83643,"SoundDuration":83643,"Delta":70464583},{"NoteNumber":71,"Velocity":76,"Duration":83643,"SoundDuration":83643,"Delta":70464583},{"NoteNumber":56,"Velocity":59,"Duration":83643,"SoundDuration":83643,"Delta":70464583},{"NoteNumber":60,"Velocity":64,"Duration":111524,"SoundDuration":111524,"Delta":70688048},{"NoteNumber":69,"Velocity":64,"Duration":111524,"SoundDuration":111524,"Delta":70688048},{"NoteNumber":72,"Velocity":76,"Duration":111524,"SoundDuration":111524,"Delta":70688048},{"NoteNumber":52,"Velocity":59,"Duration":1484982,"SoundDuration":1484982,"Delta":70688048},{"NoteNumber":57,"Velocity":71,"Duration":111524,"SoundDuration":111524,"Delta":70688048},{"NoteNumber":62,"Velocity":65,"Duration":110701,"SoundDuration":110701,"Delta":70910683},{"NoteNumber":71,"Velocity":65,"Duration":110701,"SoundDuration":110701,"Delta":70910683},{"NoteNumber":74,"Velocity":77,"Duration":110701,"SoundDuration":110701,"Delta":70910683},{"NoteNumber":59,"Velocity":73,"Duration":110701,"SoundDuration":110701,"Delta":70910683},{"NoteNumber":64,"Velocity":67,"Duration":109756,"SoundDuration":109756,"Delta":71131543},{"NoteNumber":72,"Velocity":67,"Duration":109756,"SoundDuration":109756,"Delta":71131543},{"NoteNumber":76,"Velocity":79,"Duration":109756,"SoundDuration":109756,"Delta":71131543},{"NoteNumber":60,"Velocity":74,"Duration":109756,"SoundDuration":109756,"Delta":71131543},{"NoteNumber":65,"Velocity":69,"Duration":108827,"SoundDuration":108827,"Delta":71350656},{"NoteNumber":74,"Velocity":69,"Duration":108827,"SoundDuration":108827,"Delta":71350656},{"NoteNumber":77,"Velocity":81,"Duration":108827,"SoundDuration":108827,"Delta":71350656},{"NoteNumber":62,"Velocity":75,"Duration":108827,"SoundDuration":108827,"Delta":71350656},{"NoteNumber":64,"Velocity":66,"Duration":110701,"SoundDuration":110701,"Delta":71568973},{"NoteNumber":72,"Velocity":66,"Duration":110701,"SoundDuration":110701,"Delta":71568973},{"NoteNumber":76,"Velocity":78,"Duration":110701,"SoundDuration":110701,"Delta":71568973},{"NoteNumber":60,"Velocity":76,"Duration":110701,"SoundDuration":110701,"Delta":71568973},{"NoteNumber":62,"Velocity":65,"Duration":113208,"SoundDuration":113208,"Delta":71791617},{"NoteNumber":71,"Velocity":65,"Duration":113208,"SoundDuration":113208,"Delta":71791617},{"NoteNumber":74,"Velocity":77,"Duration":113208,"SoundDuration":113208,"Delta":71791617},{"NoteNumber":59,"Velocity":75,"Duration":113208,"SoundDuration":113208,"Delta":71791617},{"NoteNumber":60,"Velocity":64,"Duration":115384,"SoundDuration":115384,"Delta":72019184},{"NoteNumber":69,"Velocity":64,"Duration":115384,"SoundDuration":115384,"Delta":72019184},{"NoteNumber":72,"Velocity":76,"Duration":115384,"SoundDuration":115384,"Delta":72019184},{"NoteNumber":57,"Velocity":73,"Duration":115384,"SoundDuration":115384,"Delta":72019184},{"NoteNumber":64,"Velocity":64,"Duration":94537,"SoundDuration":94537,"Delta":72376003},{"NoteNumber":71,"Velocity":76,"Duration":94537,"SoundDuration":94537,"Delta":72376003},{"NoteNumber":52,"Velocity":58,"Duration":94537,"SoundDuration":94537,"Delta":72376003},{"NoteNumber":59,"Velocity":70,"Duration":94537,"SoundDuration":94537,"Delta":72376003},{"NoteNumber":64,"Velocity":64,"Duration":1008403,"SoundDuration":1008403,"Delta":72502054},{"NoteNumber":71,"Velocity":76,"Duration":1008403,"SoundDuration":1008403,"Delta":72502054},{"NoteNumber":52,"Velocity":58,"Duration":1008403,"SoundDuration":1008403,"Delta":72502054},{"NoteNumber":59,"Velocity":70,"Duration":1008403,"SoundDuration":1008403,"Delta":72502054},{"NoteNumber":60,"Velocity":64,"Duration":504202,"SoundDuration":504202,"Delta":73510458},{"NoteNumber":69,"Velocity":76,"Duration":504202,"SoundDuration":504202,"Delta":73510458},{"NoteNumber":45,"Velocity":59,"Duration":504202,"SoundDuration":504202,"Delta":73510458},{"NoteNumber":57,"Velocity":71,"Duration":504202,"SoundDuration":504202,"Delta":73510458},{"NoteNumber":69,"Velocity":34,"Duration":107142,"SoundDuration":107142,"Delta":74121803},{"NoteNumber":68,"Velocity":34,"Duration":107142,"SoundDuration":107142,"Delta":74228945},{"NoteNumber":69,"Velocity":34,"Duration":107142,"SoundDuration":107142,"Delta":74336088},{"NoteNumber":71,"Velocity":41,"Duration":102389,"SoundDuration":102389,"Delta":74443231},{"NoteNumber":68,"Velocity":35,"Duration":102389,"SoundDuration":102389,"Delta":74545620},{"NoteNumber":64,"Velocity":35,"Duration":173076,"SoundDuration":173076,"Delta":74648009},{"NoteNumber":59,"Velocity":27,"Duration":417487,"SoundDuration":417487,"Delta":74878778},{"NoteNumber":56,"Velocity":23,"Duration":417487,"SoundDuration":417487,"Delta":74878778},{"NoteNumber":52,"Velocity":23,"Duration":417487,"SoundDuration":417487,"Delta":74878778},{"NoteNumber":71,"Velocity":34,"Duration":103448,"SoundDuration":103448,"Delta":74985921},{"NoteNumber":68,"Velocity":34,"Duration":103448,"SoundDuration":103448,"Delta":75089369},{"NoteNumber":64,"Velocity":34,"Duration":103448,"SoundDuration":103448,"Delta":75192817},{"NoteNumber":72,"Velocity":41,"Duration":102040,"SoundDuration":102040,"Delta":75296265},{"NoteNumber":69,"Velocity":34,"Duration":102040,"SoundDuration":102040,"Delta":75398306},{"NoteNumber":64,"Velocity":34,"Duration":172413,"SoundDuration":172413,"Delta":75500347},{"NoteNumber":52,"Velocity":23,"Duration":418561,"SoundDuration":418561,"Delta":75730232},{"NoteNumber":57,"Velocity":23,"Duration":418561,"SoundDuration":418561,"Delta":75730232},{"NoteNumber":60,"Velocity":27,"Duration":418561,"SoundDuration":418561,"Delta":75730232},{"NoteNumber":72,"Velocity":36,"Duration":103806,"SoundDuration":103806,"Delta":75837375},{"NoteNumber":69,"Velocity":36,"Duration":103806,"SoundDuration":103806,"Delta":75941181},{"NoteNumber":64,"Velocity":36,"Duration":103806,"SoundDuration":103806,"Delta":76044987},{"NoteNumber":69,"Velocity":41,"Duration":102739,"SoundDuration":102739,"Delta":76148793},{"NoteNumber":66,"Velocity":36,"Duration":102739,"SoundDuration":102739,"Delta":76251533},{"NoteNumber":63,"Velocity":36,"Duration":173076,"SoundDuration":173076,"Delta":76354273},{"NoteNumber":57,"Velocity":27,"Duration":418561,"SoundDuration":418561,"Delta":76585042},{"NoteNumber":54,"Velocity":23,"Duration":418561,"SoundDuration":418561,"Delta":76585042},{"NoteNumber":52,"Velocity":23,"Duration":418561,"SoundDuration":418561,"Delta":76585042},{"NoteNumber":69,"Velocity":36,"Duration":103806,"SoundDuration":103806,"Delta":76692185},{"NoteNumber":66,"Velocity":36,"Duration":103806,"SoundDuration":103806,"Delta":76795991},{"NoteNumber":63,"Velocity":36,"Duration":103806,"SoundDuration":103806,"Delta":76899797},{"NoteNumber":71,"Velocity":41,"Duration":102389,"SoundDuration":102389,"Delta":77003603},{"NoteNumber":68,"Velocity":35,"Duration":102389,"SoundDuration":102389,"Delta":77105992},{"NoteNumber":64,"Velocity":35,"Duration":171755,"SoundDuration":171755,"Delta":77208381},{"NoteNumber":59,"Velocity":27,"Duration":416420,"SoundDuration":416420,"Delta":77437389},{"NoteNumber":56,"Velocity":23,"Duration":416420,"SoundDuration":416420,"Delta":77437389},{"NoteNumber":52,"Velocity":23,"Duration":416420,"SoundDuration":416420,"Delta":77437389},{"NoteNumber":66,"Velocity":39,"Duration":103092,"SoundDuration":103092,"Delta":77544532},{"NoteNumber":68,"Velocity":39,"Duration":103092,"SoundDuration":103092,"Delta":77647624},{"NoteNumber":69,"Velocity":39,"Duration":103092,"SoundDuration":103092,"Delta":77750717},{"NoteNumber":71,"Velocity":42,"Duration":102040,"SoundDuration":102040,"Delta":77853810},{"NoteNumber":40,"Velocity":27,"Duration":433966,"SoundDuration":433966,"Delta":77853810},{"NoteNumber":52,"Velocity":32,"Duration":433966,"SoundDuration":433966,"Delta":77853810},{"NoteNumber":68,"Velocity":38,"Duration":102040,"SoundDuration":102040,"Delta":77955851},{"NoteNumber":64,"Velocity":38,"Duration":172413,"SoundDuration":172413,"Delta":78057891},{"NoteNumber":62,"Velocity":31,"Duration":415361,"SoundDuration":415361,"Delta":78287776},{"NoteNumber":59,"Velocity":25,"Duration":415361,"SoundDuration":415361,"Delta":78287776},{"NoteNumber":52,"Velocity":25,"Duration":415361,"SoundDuration":415361,"Delta":78287776},{"NoteNumber":71,"Velocity":46,"Duration":102739,"SoundDuration":102739,"Delta":78394919},{"NoteNumber":68,"Velocity":47,"Duration":102739,"SoundDuration":102739,"Delta":78497659},{"NoteNumber":64,"Velocity":47,"Duration":102739,"SoundDuration":102739,"Delta":78600399},{"NoteNumber":72,"Velocity":53,"Duration":101695,"SoundDuration":101695,"Delta":78703138},{"NoteNumber":69,"Velocity":48,"Duration":101694,"SoundDuration":101694,"Delta":78804833},{"NoteNumber":64,"Velocity":48,"Duration":171755,"SoundDuration":171755,"Delta":78906528},{"NoteNumber":52,"Velocity":32,"Duration":416420,"SoundDuration":416420,"Delta":79135536},{"NoteNumber":57,"Velocity":32,"Duration":416420,"SoundDuration":416420,"Delta":79135536},{"NoteNumber":60,"Velocity":38,"Duration":416420,"SoundDuration":416420,"Delta":79135536},{"NoteNumber":72,"Velocity":53,"Duration":103092,"SoundDuration":103092,"Delta":79242679},{"NoteNumber":69,"Velocity":54,"Duration":103092,"SoundDuration":103092,"Delta":79345771},{"NoteNumber":64,"Velocity":54,"Duration":103092,"SoundDuration":103092,"Delta":79448864},{"NoteNumber":69,"Velocity":60,"Duration":102040,"SoundDuration":102040,"Delta":79551957},{"NoteNumber":40,"Velocity":33,"Duration":433088,"SoundDuration":433088,"Delta":79551957},{"NoteNumber":52,"Velocity":38,"Duration":433088,"SoundDuration":433088,"Delta":79551957},{"NoteNumber":66,"Velocity":56,"Duration":102040,"SoundDuration":102040,"Delta":79653998},{"NoteNumber":63,"Velocity":56,"Duration":171755,"SoundDuration":171755,"Delta":79756038},{"NoteNumber":57,"Velocity":37,"Duration":417487,"SoundDuration":417487,"Delta":79985046},{"NoteNumber":60,"Velocity":45,"Duration":417487,"SoundDuration":417487,"Delta":79985046},{"NoteNumber":54,"Velocity":37,"Duration":417487,"SoundDuration":417487,"Delta":79985046},{"NoteNumber":52,"Velocity":37,"Duration":417487,"SoundDuration":417487,"Delta":79985046},{"NoteNumber":69,"Velocity":58,"Duration":103448,"SoundDuration":103448,"Delta":80092189},{"NoteNumber":66,"Velocity":58,"Duration":103448,"SoundDuration":103448,"Delta":80195637},{"NoteNumber":63,"Velocity":58,"Duration":103448,"SoundDuration":103448,"Delta":80299085},{"NoteNumber":71,"Velocity":71,"Duration":111110,"SoundDuration":111110,"Delta":80402533},{"NoteNumber":68,"Velocity":59,"Duration":111111,"SoundDuration":111111,"Delta":80513644},{"NoteNumber":64,"Velocity":60,"Duration":165441,"SoundDuration":165441,"Delta":80624755},{"NoteNumber":52,"Velocity":57,"Duration":227272,"SoundDuration":227272,"Delta":80845343},{"NoteNumber":56,"Velocity":63,"Duration":227272,"SoundDuration":227272,"Delta":80845343},{"NoteNumber":59,"Velocity":78,"Duration":227272,"SoundDuration":227272,"Delta":80845343},{"NoteNumber":64,"Velocity":79,"Duration":226415,"SoundDuration":226415,"Delta":81072616},{"NoteNumber":40,"Velocity":57,"Duration":226415,"SoundDuration":226415,"Delta":81072616},{"NoteNumber":52,"Velocity":63,"Duration":226415,"SoundDuration":226415,"Delta":81072616},{"NoteNumber":59,"Velocity":71,"Duration":661764,"SoundDuration":661764,"Delta":81299031},{"NoteNumber":64,"Velocity":71,"Duration":661764,"SoundDuration":661764,"Delta":81299031},{"NoteNumber":71,"Velocity":79,"Duration":661764,"SoundDuration":661764,"Delta":81299031},{"NoteNumber":44,"Velocity":59,"Duration":661764,"SoundDuration":661764,"Delta":81299031},{"NoteNumber":52,"Velocity":66,"Duration":661764,"SoundDuration":661764,"Delta":81299031},{"NoteNumber":60,"Velocity":69,"Duration":215053,"SoundDuration":215053,"Delta":81960795},{"NoteNumber":64,"Velocity":69,"Duration":215053,"SoundDuration":215053,"Delta":81960795},{"NoteNumber":72,"Velocity":76,"Duration":215053,"SoundDuration":215053,"Delta":81960795},{"NoteNumber":45,"Velocity":57,"Duration":215053,"SoundDuration":215053,"Delta":81960795},{"NoteNumber":52,"Velocity":64,"Duration":215053,"SoundDuration":215053,"Delta":81960795},{"NoteNumber":62,"Velocity":71,"Duration":441175,"SoundDuration":441175,"Delta":82175849},{"NoteNumber":64,"Velocity":71,"Duration":441175,"SoundDuration":441175,"Delta":82175849},{"NoteNumber":74,"Velocity":79,"Duration":441175,"SoundDuration":441175,"Delta":82175849},{"NoteNumber":47,"Velocity":59,"Duration":441175,"SoundDuration":441175,"Delta":82175849},{"NoteNumber":52,"Velocity":66,"Duration":441175,"SoundDuration":441175,"Delta":82175849},{"NoteNumber":60,"Velocity":71,"Duration":441175,"SoundDuration":441175,"Delta":82617025},{"NoteNumber":64,"Velocity":71,"Duration":441175,"SoundDuration":441175,"Delta":82617025},{"NoteNumber":72,"Velocity":79,"Duration":441175,"SoundDuration":441175,"Delta":82617025},{"NoteNumber":45,"Velocity":59,"Duration":441175,"SoundDuration":441175,"Delta":82617025},{"NoteNumber":52,"Velocity":66,"Duration":441175,"SoundDuration":441175,"Delta":82617025},{"NoteNumber":65,"Velocity":71,"Duration":113207,"SoundDuration":113207,"Delta":83058201},{"NoteNumber":68,"Velocity":71,"Duration":113207,"SoundDuration":113207,"Delta":83058201},{"NoteNumber":77,"Velocity":80,"Duration":113207,"SoundDuration":113207,"Delta":83058201},{"NoteNumber":50,"Velocity":59,"Duration":113207,"SoundDuration":113207,"Delta":83058201},{"NoteNumber":52,"Velocity":66,"Duration":113207,"SoundDuration":113207,"Delta":83058201},{"NoteNumber":64,"Velocity":71,"Duration":84905,"SoundDuration":84905,"Delta":83397823},{"NoteNumber":68,"Velocity":71,"Duration":84905,"SoundDuration":84905,"Delta":83397823},{"NoteNumber":76,"Velocity":80,"Duration":84905,"SoundDuration":84905,"Delta":83397823},{"NoteNumber":48,"Velocity":59,"Duration":84905,"SoundDuration":84905,"Delta":83397823},{"NoteNumber":52,"Velocity":66,"Duration":84905,"SoundDuration":84905,"Delta":83397823},{"NoteNumber":62,"Velocity":76,"Duration":882351,"SoundDuration":882351,"Delta":83511031},{"NoteNumber":68,"Velocity":76,"Duration":882351,"SoundDuration":882351,"Delta":83511031},{"NoteNumber":74,"Velocity":86,"Duration":882351,"SoundDuration":882351,"Delta":83511031},{"NoteNumber":47,"Velocity":64,"Duration":882351,"SoundDuration":882351,"Delta":83511031},{"NoteNumber":52,"Velocity":73,"Duration":882351,"SoundDuration":882351,"Delta":83511031},{"NoteNumber":65,"Velocity":71,"Duration":431655,"SoundDuration":431655,"Delta":84393383},{"NoteNumber":68,"Velocity":71,"Duration":431655,"SoundDuration":431655,"Delta":84393383},{"NoteNumber":77,"Velocity":80,"Duration":431655,"SoundDuration":431655,"Delta":84393383},{"NoteNumber":50,"Velocity":62,"Duration":431655,"SoundDuration":431655,"Delta":84393383},{"NoteNumber":62,"Velocity":70,"Duration":431655,"SoundDuration":431655,"Delta":84393383},{"NoteNumber":52,"Velocity":62,"Duration":431655,"SoundDuration":431655,"Delta":84393383},{"NoteNumber":64,"Velocity":71,"Duration":441175,"SoundDuration":441175,"Delta":84825038},{"NoteNumber":69,"Velocity":71,"Duration":441175,"SoundDuration":441175,"Delta":84825038},{"NoteNumber":76,"Velocity":79,"Duration":441175,"SoundDuration":441175,"Delta":84825038},{"NoteNumber":48,"Velocity":62,"Duration":441175,"SoundDuration":441175,"Delta":84825038},{"NoteNumber":52,"Velocity":62,"Duration":441175,"SoundDuration":441175,"Delta":84825038},{"NoteNumber":60,"Velocity":70,"Duration":441175,"SoundDuration":441175,"Delta":84825038},{"NoteNumber":60,"Velocity":71,"Duration":436764,"SoundDuration":436764,"Delta":85266214},{"NoteNumber":64,"Velocity":71,"Duration":436764,"SoundDuration":436764,"Delta":85266214},{"NoteNumber":72,"Velocity":79,"Duration":436764,"SoundDuration":436764,"Delta":85266214},{"NoteNumber":52,"Velocity":59,"Duration":436764,"SoundDuration":436764,"Delta":85266214},{"NoteNumber":45,"Velocity":59,"Duration":436764,"SoundDuration":436764,"Delta":85266214},{"NoteNumber":57,"Velocity":66,"Duration":436764,"SoundDuration":436764,"Delta":85266214},{"NoteNumber":59,"Velocity":75,"Duration":447917,"SoundDuration":447917,"Delta":85702979},{"NoteNumber":64,"Velocity":71,"Duration":447917,"SoundDuration":447917,"Delta":85702979},{"NoteNumber":71,"Velocity":75,"Duration":447917,"SoundDuration":447917,"Delta":85702979},{"NoteNumber":52,"Velocity":62,"Duration":447917,"SoundDuration":447917,"Delta":85702979},{"NoteNumber":44,"Velocity":62,"Duration":447917,"SoundDuration":447917,"Delta":85702979},{"NoteNumber":56,"Velocity":69,"Duration":447917,"SoundDuration":447917,"Delta":85702979},{"NoteNumber":60,"Velocity":66,"Duration":456302,"SoundDuration":456302,"Delta":86150896},{"NoteNumber":63,"Velocity":73,"Duration":456302,"SoundDuration":456302,"Delta":86150896},{"NoteNumber":69,"Velocity":76,"Duration":335820,"SoundDuration":335820,"Delta":86150896},{"NoteNumber":52,"Velocity":57,"Duration":456302,"SoundDuration":456302,"Delta":86150896},{"NoteNumber":42,"Velocity":57,"Duration":456302,"SoundDuration":456302,"Delta":86150896},{"NoteNumber":54,"Velocity":70,"Duration":456302,"SoundDuration":456302,"Delta":86150896},{"NoteNumber":71,"Velocity":76,"Duration":120481,"SoundDuration":120481,"Delta":86486717},{"NoteNumber":60,"Velocity":66,"Duration":941191,"SoundDuration":941191,"Delta":86607199},{"NoteNumber":63,"Velocity":66,"Duration":941191,"SoundDuration":941191,"Delta":86607199},{"NoteNumber":69,"Velocity":75,"Duration":941191,"SoundDuration":941191,"Delta":86607199},{"NoteNumber":40,"Velocity":56,"Duration":468750,"SoundDuration":468750,"Delta":86607199},{"NoteNumber":52,"Velocity":67,"Duration":468750,"SoundDuration":468750,"Delta":86607199},{"NoteNumber":28,"Velocity":66,"Duration":926985,"SoundDuration":926985,"Delta":87075949},{"NoteNumber":40,"Velocity":76,"Duration":926985,"SoundDuration":926985,"Delta":87075949},{"NoteNumber":59,"Velocity":65,"Duration":431817,"SoundDuration":431817,"Delta":87548390},{"NoteNumber":64,"Velocity":65,"Duration":431817,"SoundDuration":431817,"Delta":87548390},{"NoteNumber":68,"Velocity":73,"Duration":431817,"SoundDuration":431817,"Delta":87548390},{"NoteNumber":64,"Velocity":79,"Duration":461538,"SoundDuration":461538,"Delta":88002935},{"NoteNumber":40,"Velocity":56,"Duration":461538,"SoundDuration":461538,"Delta":88002935},{"NoteNumber":52,"Velocity":63,"Duration":461538,"SoundDuration":461538,"Delta":88002935},{"NoteNumber":59,"Velocity":71,"Duration":669145,"SoundDuration":669145,"Delta":88464473},{"NoteNumber":64,"Velocity":71,"Duration":669145,"SoundDuration":669145,"Delta":88464473},{"NoteNumber":71,"Velocity":79,"Duration":669145,"SoundDuration":669145,"Delta":88464473},{"NoteNumber":50,"Velocity":56,"Duration":669145,"SoundDuration":669145,"Delta":88464473},{"NoteNumber":52,"Velocity":56,"Duration":669145,"SoundDuration":669145,"Delta":88464473},{"NoteNumber":56,"Velocity":66,"Duration":669145,"SoundDuration":669145,"Delta":88464473},{"NoteNumber":60,"Velocity":69,"Duration":215053,"SoundDuration":215053,"Delta":89133618},{"NoteNumber":69,"Velocity":69,"Duration":215053,"SoundDuration":215053,"Delta":89133618},{"NoteNumber":72,"Velocity":76,"Duration":215053,"SoundDuration":215053,"Delta":89133618},{"NoteNumber":48,"Velocity":54,"Duration":215053,"SoundDuration":215053,"Delta":89133618},{"NoteNumber":52,"Velocity":54,"Duration":215053,"SoundDuration":215053,"Delta":89133618},{"NoteNumber":57,"Velocity":64,"Duration":215053,"SoundDuration":215053,"Delta":89133618},{"NoteNumber":62,"Velocity":71,"Duration":439337,"SoundDuration":439337,"Delta":89348672},{"NoteNumber":68,"Velocity":71,"Duration":441175,"SoundDuration":441175,"Delta":89348672},{"NoteNumber":74,"Velocity":79,"Duration":441175,"SoundDuration":441175,"Delta":89348672},{"NoteNumber":47,"Velocity":56,"Duration":441175,"SoundDuration":441175,"Delta":89348672},{"NoteNumber":52,"Velocity":56,"Duration":441175,"SoundDuration":441175,"Delta":89348672},{"NoteNumber":59,"Velocity":66,"Duration":441175,"SoundDuration":441175,"Delta":89348672},{"NoteNumber":65,"Velocity":71,"Duration":441175,"SoundDuration":441175,"Delta":89789848},{"NoteNumber":68,"Velocity":71,"Duration":441175,"SoundDuration":441175,"Delta":89789848},{"NoteNumber":77,"Velocity":79,"Duration":441175,"SoundDuration":441175,"Delta":89789848},{"NoteNumber":50,"Velocity":56,"Duration":441175,"SoundDuration":441175,"Delta":89789848},{"NoteNumber":52,"Velocity":56,"Duration":441175,"SoundDuration":441175,"Delta":89789848},{"NoteNumber":62,"Velocity":66,"Duration":441175,"SoundDuration":441175,"Delta":89789848},{"NoteNumber":69,"Velocity":71,"Duration":113207,"SoundDuration":113207,"Delta":90231024},{"NoteNumber":64,"Velocity":71,"Duration":113207,"SoundDuration":113207,"Delta":90231024},{"NoteNumber":76,"Velocity":80,"Duration":113207,"SoundDuration":113207,"Delta":90231024},{"NoteNumber":48,"Velocity":56,"Duration":113207,"SoundDuration":113207,"Delta":90231024},{"NoteNumber":52,"Velocity":56,"Duration":113207,"SoundDuration":113207,"Delta":90231024},{"NoteNumber":60,"Velocity":66,"Duration":113207,"SoundDuration":113207,"Delta":90231024},{"NoteNumber":69,"Velocity":71,"Duration":84905,"SoundDuration":84905,"Delta":90570647},{"NoteNumber":62,"Velocity":71,"Duration":84905,"SoundDuration":84905,"Delta":90570647},{"NoteNumber":74,"Velocity":80,"Duration":84905,"SoundDuration":84905,"Delta":90570647},{"NoteNumber":47,"Velocity":56,"Duration":84905,"SoundDuration":84905,"Delta":90570647},{"NoteNumber":52,"Velocity":56,"Duration":84905,"SoundDuration":84905,"Delta":90570647},{"NoteNumber":59,"Velocity":66,"Duration":84905,"SoundDuration":84905,"Delta":90570647},{"NoteNumber":60,"Velocity":71,"Duration":882351,"SoundDuration":882351,"Delta":90683854},{"NoteNumber":69,"Velocity":76,"Duration":882351,"SoundDuration":882351,"Delta":90683854},{"NoteNumber":72,"Velocity":84,"Duration":882351,"SoundDuration":882351,"Delta":90683854},{"NoteNumber":45,"Velocity":57,"Duration":882351,"SoundDuration":882351,"Delta":90683854},{"NoteNumber":52,"Velocity":57,"Duration":882351,"SoundDuration":882351,"Delta":90683854},{"NoteNumber":57,"Velocity":68,"Duration":882351,"SoundDuration":882351,"Delta":90683854},{"NoteNumber":66,"Velocity":75,"Duration":466926,"SoundDuration":466926,"Delta":91566206},{"NoteNumber":72,"Velocity":75,"Duration":466926,"SoundDuration":466926,"Delta":91566206},{"NoteNumber":64,"Velocity":75,"Duration":466926,"SoundDuration":466926,"Delta":91566206},{"NoteNumber":76,"Velocity":84,"Duration":466926,"SoundDuration":466926,"Delta":91566206},{"NoteNumber":45,"Velocity":74,"Duration":466926,"SoundDuration":466926,"Delta":91566206},{"NoteNumber":33,"Velocity":65,"Duration":466926,"SoundDuration":466926,"Delta":91566206},{"NoteNumber":67,"Velocity":75,"Duration":480000,"SoundDuration":480000,"Delta":92033132},{"NoteNumber":71,"Velocity":75,"Duration":480000,"SoundDuration":480000,"Delta":92033132},{"NoteNumber":62,"Velocity":75,"Duration":480000,"SoundDuration":480000,"Delta":92033132},{"NoteNumber":74,"Velocity":83,"Duration":480000,"SoundDuration":480000,"Delta":92033132},{"NoteNumber":35,"Velocity":65,"Duration":480000,"SoundDuration":480000,"Delta":92033132},{"NoteNumber":47,"Velocity":74,"Duration":480000,"SoundDuration":480000,"Delta":92033132},{"NoteNumber":60,"Velocity":75,"Duration":465115,"SoundDuration":465115,"Delta":92513132},{"NoteNumber":69,"Velocity":75,"Duration":465115,"SoundDuration":465115,"Delta":92513132},{"NoteNumber":64,"Velocity":75,"Duration":465115,"SoundDuration":465115,"Delta":92513132},{"NoteNumber":72,"Velocity":83,"Duration":465115,"SoundDuration":465115,"Delta":92513132},{"NoteNumber":36,"Velocity":62,"Duration":465115,"SoundDuration":465115,"Delta":92513132},{"NoteNumber":48,"Velocity":69,"Duration":465115,"SoundDuration":465115,"Delta":92513132},{"NoteNumber":59,"Velocity":74,"Duration":474307,"SoundDuration":474307,"Delta":92978248},{"NoteNumber":67,"Velocity":76,"Duration":474307,"SoundDuration":474307,"Delta":92978248},{"NoteNumber":62,"Velocity":74,"Duration":474307,"SoundDuration":474307,"Delta":92978248},{"NoteNumber":71,"Velocity":80,"Duration":474307,"SoundDuration":474307,"Delta":92978248},{"NoteNumber":38,"Velocity":62,"Duration":474307,"SoundDuration":474307,"Delta":92978248},{"NoteNumber":50,"Velocity":69,"Duration":474307,"SoundDuration":474307,"Delta":92978248},{"NoteNumber":66,"Velocity":76,"Duration":495164,"SoundDuration":495164,"Delta":93452556},{"NoteNumber":57,"Velocity":76,"Duration":495164,"SoundDuration":495164,"Delta":93452556},{"NoteNumber":60,"Velocity":76,"Duration":495164,"SoundDuration":495164,"Delta":93452556},{"NoteNumber":69,"Velocity":85,"Duration":365853,"SoundDuration":365853,"Delta":93452556},{"NoteNumber":38,"Velocity":65,"Duration":495164,"SoundDuration":495164,"Delta":93452556},{"NoteNumber":50,"Velocity":74,"Duration":495164,"SoundDuration":495164,"Delta":93452556},{"NoteNumber":59,"Velocity":78,"Duration":129310,"SoundDuration":129310,"Delta":93818410},{"NoteNumber":71,"Velocity":78,"Duration":129310,"SoundDuration":129310,"Delta":93818410},{"NoteNumber":66,"Velocity":69,"Duration":919877,"SoundDuration":919877,"Delta":93947720},{"NoteNumber":57,"Velocity":69,"Duration":919877,"SoundDuration":919877,"Delta":93947720},{"NoteNumber":60,"Velocity":69,"Duration":919877,"SoundDuration":919877,"Delta":93947720},{"NoteNumber":69,"Velocity":77,"Duration":919877,"SoundDuration":919877,"Delta":93947720},{"NoteNumber":31,"Velocity":63,"Duration":451127,"SoundDuration":451127,"Delta":93947720},{"NoteNumber":43,"Velocity":73,"Duration":451127,"SoundDuration":451127,"Delta":93947720},{"NoteNumber":43,"Velocity":77,"Duration":952620,"SoundDuration":952620,"Delta":94398848},{"NoteNumber":55,"Velocity":90,"Duration":952620,"SoundDuration":952620,"Delta":94398848},{"NoteNumber":59,"Velocity":68,"Duration":459677,"SoundDuration":459677,"Delta":94867598},{"NoteNumber":62,"Velocity":68,"Duration":459677,"SoundDuration":459677,"Delta":94867598},{"NoteNumber":67,"Velocity":76,"Duration":459677,"SoundDuration":459677,"Delta":94867598},{"NoteNumber":67,"Velocity":88,"Duration":521738,"SoundDuration":521738,"Delta":95351469},{"NoteNumber":41,"Velocity":69,"Duration":521738,"SoundDuration":521738,"Delta":95351469},{"NoteNumber":53,"Velocity":78,"Duration":521738,"SoundDuration":521738,"Delta":95351469},{"NoteNumber":67,"Velocity":75,"Duration":714485,"SoundDuration":714485,"Delta":95873208},{"NoteNumber":76,"Velocity":76,"Duration":714485,"SoundDuration":714485,"Delta":95873208},{"NoteNumber":79,"Velocity":88,"Duration":714485,"SoundDuration":714485,"Delta":95873208},{"NoteNumber":40,"Velocity":66,"Duration":481927,"SoundDuration":481927,"Delta":95873208},{"NoteNumber":43,"Velocity":66,"Duration":481927,"SoundDuration":481927,"Delta":95873208},{"NoteNumber":48,"Velocity":66,"Duration":481927,"SoundDuration":481927,"Delta":95873208},{"NoteNumber":52,"Velocity":70,"Duration":481927,"SoundDuration":481927,"Delta":95873208},{"NoteNumber":52,"Velocity":66,"Duration":905168,"SoundDuration":905168,"Delta":96355136},{"NoteNumber":55,"Velocity":66,"Duration":905168,"SoundDuration":905168,"Delta":96355136},{"NoteNumber":60,"Velocity":66,"Duration":905168,"SoundDuration":905168,"Delta":96355136},{"NoteNumber":64,"Velocity":66,"Duration":905168,"SoundDuration":905168,"Delta":96355136},{"NoteNumber":65,"Velocity":73,"Duration":219780,"SoundDuration":219780,"Delta":96587694},{"NoteNumber":74,"Velocity":73,"Duration":219780,"SoundDuration":219780,"Delta":96587694},{"NoteNumber":77,"Velocity":79,"Duration":219780,"SoundDuration":219780,"Delta":96587694},{"NoteNumber":64,"Velocity":75,"Duration":452830,"SoundDuration":452830,"Delta":96807474},{"NoteNumber":72,"Velocity":75,"Duration":452830,"SoundDuration":452830,"Delta":96807474},{"NoteNumber":76,"Velocity":83,"Duration":452830,"SoundDuration":452830,"Delta":96807474},{"NoteNumber":65,"Velocity":75,"Duration":452829,"SoundDuration":452829,"Delta":97260304},{"NoteNumber":74,"Velocity":75,"Duration":452829,"SoundDuration":452829,"Delta":97260304},{"NoteNumber":77,"Velocity":83,"Duration":452829,"SoundDuration":452829,"Delta":97260304},{"NoteNumber":38,"Velocity":57,"Duration":452829,"SoundDuration":452829,"Delta":97260304},{"NoteNumber":50,"Velocity":69,"Duration":452829,"SoundDuration":452829,"Delta":97260304},{"NoteNumber":72,"Velocity":75,"Duration":466926,"SoundDuration":466926,"Delta":97713134},{"NoteNumber":64,"Velocity":75,"Duration":466926,"SoundDuration":466926,"Delta":97713134},{"NoteNumber":76,"Velocity":84,"Duration":466926,"SoundDuration":466926,"Delta":97713134},{"NoteNumber":43,"Velocity":48,"Duration":466926,"SoundDuration":466926,"Delta":97713134},{"NoteNumber":55,"Velocity":57,"Duration":466926,"SoundDuration":466926,"Delta":97713134},{"NoteNumber":62,"Velocity":76,"Duration":335820,"SoundDuration":335820,"Delta":98180060},{"NoteNumber":71,"Velocity":76,"Duration":335820,"SoundDuration":335820,"Delta":98180060},{"NoteNumber":74,"Velocity":84,"Duration":335820,"SoundDuration":335820,"Delta":98180060},{"NoteNumber":31,"Velocity":48,"Duration":674176,"SoundDuration":674176,"Delta":98180060},{"NoteNumber":43,"Velocity":57,"Duration":674176,"SoundDuration":674176,"Delta":98180060},{"NoteNumber":60,"Velocity":73,"Duration":111940,"SoundDuration":111940,"Delta":98515881},{"NoteNumber":69,"Velocity":73,"Duration":111940,"SoundDuration":111940,"Delta":98515881},{"NoteNumber":72,"Velocity":79,"Duration":111940,"SoundDuration":111940,"Delta":98515881},{"NoteNumber":62,"Velocity":73,"Duration":452830,"SoundDuration":452830,"Delta":98627821},{"NoteNumber":71,"Velocity":73,"Duration":452830,"SoundDuration":452830,"Delta":98627821},{"NoteNumber":74,"Velocity":83,"Duration":452830,"SoundDuration":452830,"Delta":98627821},{"NoteNumber":41,"Velocity":59,"Duration":226415,"SoundDuration":226415,"Delta":98854236},{"NoteNumber":53,"Velocity":69,"Duration":226415,"SoundDuration":226415,"Delta":98854236},{"NoteNumber":65,"Velocity":74,"Duration":459770,"SoundDuration":459770,"Delta":99080651},{"NoteNumber":67,"Velocity":89,"Duration":459770,"SoundDuration":459770,"Delta":99080651},{"NoteNumber":40,"Velocity":61,"Duration":172413,"SoundDuration":172413,"Delta":99080651},{"NoteNumber":52,"Velocity":73,"Duration":172413,"SoundDuration":172413,"Delta":99080651},{"NoteNumber":38,"Velocity":59,"Duration":172413,"SoundDuration":172413,"Delta":99310536},{"NoteNumber":50,"Velocity":69,"Duration":172413,"SoundDuration":172413,"Delta":99310536},{"NoteNumber":72,"Velocity":76,"Duration":680684,"SoundDuration":680684,"Delta":99540421},{"NoteNumber":64,"Velocity":75,"Duration":680684,"SoundDuration":680684,"Delta":99540421},{"NoteNumber":76,"Velocity":85,"Duration":680684,"SoundDuration":680684,"Delta":99540421},{"NoteNumber":36,"Velocity":66,"Duration":458015,"SoundDuration":458015,"Delta":99540421},{"NoteNumber":48,"Velocity":71,"Duration":458015,"SoundDuration":458015,"Delta":99540421},{"NoteNumber":48,"Velocity":66,"Duration":893509,"SoundDuration":893509,"Delta":99998436},{"NoteNumber":52,"Velocity":66,"Duration":893509,"SoundDuration":893509,"Delta":99998436},{"NoteNumber":57,"Velocity":66,"Duration":893509,"SoundDuration":893509,"Delta":99998436},{"NoteNumber":60,"Velocity":66,"Duration":893509,"SoundDuration":893509,"Delta":99998436},{"NoteNumber":62,"Velocity":75,"Duration":110701,"SoundDuration":110701,"Delta":100221106},{"NoteNumber":71,"Velocity":75,"Duration":110701,"SoundDuration":110701,"Delta":100221106},{"NoteNumber":74,"Velocity":83,"Duration":110701,"SoundDuration":110701,"Delta":100221106},{"NoteNumber":60,"Velocity":67,"Duration":112359,"SoundDuration":112359,"Delta":100442508},{"NoteNumber":69,"Velocity":67,"Duration":112359,"SoundDuration":112359,"Delta":100442508},{"NoteNumber":72,"Velocity":78,"Duration":112359,"SoundDuration":112359,"Delta":100442508},{"NoteNumber":62,"Velocity":68,"Duration":112359,"SoundDuration":112359,"Delta":100667227},{"NoteNumber":71,"Velocity":68,"Duration":112359,"SoundDuration":112359,"Delta":100667227},{"NoteNumber":74,"Velocity":80,"Duration":112359,"SoundDuration":112359,"Delta":100667227},{"NoteNumber":64,"Velocity":70,"Duration":114503,"SoundDuration":114503,"Delta":100891946},{"NoteNumber":72,"Velocity":70,"Duration":114503,"SoundDuration":114503,"Delta":100891946},{"NoteNumber":76,"Velocity":83,"Duration":114503,"SoundDuration":114503,"Delta":100891946},{"NoteNumber":35,"Velocity":67,"Duration":458015,"SoundDuration":458015,"Delta":100891946},{"NoteNumber":47,"Velocity":71,"Duration":458015,"SoundDuration":458015,"Delta":100891946},{"NoteNumber":62,"Velocity":68,"Duration":114503,"SoundDuration":114503,"Delta":101120953},{"NoteNumber":71,"Velocity":68,"Duration":114503,"SoundDuration":114503,"Delta":101120953},{"NoteNumber":74,"Velocity":80,"Duration":114503,"SoundDuration":114503,"Delta":101120953},{"NoteNumber":69,"Velocity":75,"Duration":461538,"SoundDuration":461538,"Delta":101349961},{"NoteNumber":60,"Velocity":75,"Duration":461538,"SoundDuration":461538,"Delta":101349961},{"NoteNumber":72,"Velocity":84,"Duration":461538,"SoundDuration":461538,"Delta":101349961},{"NoteNumber":40,"Velocity":57,"Duration":461538,"SoundDuration":461538,"Delta":101349961},{"NoteNumber":52,"Velocity":69,"Duration":461538,"SoundDuration":461538,"Delta":101349961},{"NoteNumber":59,"Velocity":76,"Duration":338346,"SoundDuration":338346,"Delta":101811499},{"NoteNumber":68,"Velocity":76,"Duration":338346,"SoundDuration":338346,"Delta":101811499},{"NoteNumber":71,"Velocity":84,"Duration":338346,"SoundDuration":338346,"Delta":101811499},{"NoteNumber":28,"Velocity":57,"Duration":674176,"SoundDuration":674176,"Delta":101811499},{"NoteNumber":40,"Velocity":69,"Duration":674176,"SoundDuration":674176,"Delta":101811499},{"NoteNumber":57,"Velocity":68,"Duration":112781,"SoundDuration":112781,"Delta":102149845},{"NoteNumber":66,"Velocity":68,"Duration":112781,"SoundDuration":112781,"Delta":102149845},{"NoteNumber":69,"Velocity":76,"Duration":112781,"SoundDuration":112781,"Delta":102149845},{"NoteNumber":59,"Velocity":68,"Duration":446096,"SoundDuration":446096,"Delta":102262627},{"NoteNumber":68,"Velocity":68,"Duration":446096,"SoundDuration":446096,"Delta":102262627},{"NoteNumber":71,"Velocity":78,"Duration":446096,"SoundDuration":446096,"Delta":102262627},{"NoteNumber":38,"Velocity":63,"Duration":223048,"SoundDuration":223048,"Delta":102485675},{"NoteNumber":50,"Velocity":76,"Duration":223048,"SoundDuration":223048,"Delta":102485675},{"NoteNumber":62,"Velocity":75,"Duration":494308,"SoundDuration":494308,"Delta":102708724},{"NoteNumber":64,"Velocity":84,"Duration":494308,"SoundDuration":494308,"Delta":102708724},{"NoteNumber":36,"Velocity":67,"Duration":177345,"SoundDuration":177345,"Delta":102708724},{"NoteNumber":48,"Velocity":79,"Duration":177345,"SoundDuration":177345,"Delta":102708724},{"NoteNumber":35,"Velocity":63,"Duration":190193,"SoundDuration":190193,"Delta":102947046},{"NoteNumber":47,"Velocity":76,"Duration":190193,"SoundDuration":190193,"Delta":102947046},{"NoteNumber":57,"Velocity":75,"Duration":674163,"SoundDuration":674163,"Delta":103203032},{"NoteNumber":60,"Velocity":75,"Duration":674163,"SoundDuration":674163,"Delta":103203032},{"NoteNumber":64,"Velocity":75,"Duration":674163,"SoundDuration":674163,"Delta":103203032},{"NoteNumber":69,"Velocity":83,"Duration":674163,"SoundDuration":674163,"Delta":103203032},{"NoteNumber":33,"Velocity":65,"Duration":225564,"SoundDuration":225564,"Delta":103203032},{"NoteNumber":45,"Velocity":76,"Duration":225564,"SoundDuration":225564,"Delta":103203032},{"NoteNumber":40,"Velocity":57,"Duration":224718,"SoundDuration":224718,"Delta":103428596},{"NoteNumber":52,"Velocity":69,"Duration":224718,"SoundDuration":224718,"Delta":103428596},{"NoteNumber":36,"Velocity":60,"Duration":223880,"SoundDuration":223880,"Delta":103653315},{"NoteNumber":48,"Velocity":74,"Duration":223880,"SoundDuration":223880,"Delta":103653315},{"NoteNumber":59,"Velocity":73,"Duration":215827,"SoundDuration":215827,"Delta":103877196},{"NoteNumber":64,"Velocity":73,"Duration":215827,"SoundDuration":215827,"Delta":103877196},{"NoteNumber":71,"Velocity":79,"Duration":215827,"SoundDuration":215827,"Delta":103877196},{"NoteNumber":40,"Velocity":57,"Duration":215827,"SoundDuration":215827,"Delta":103877196},{"NoteNumber":52,"Velocity":69,"Duration":215827,"SoundDuration":215827,"Delta":103877196},{"NoteNumber":60,"Velocity":75,"Duration":447760,"SoundDuration":447760,"Delta":104093023},{"NoteNumber":69,"Velocity":75,"Duration":447760,"SoundDuration":447760,"Delta":104093023},{"NoteNumber":72,"Velocity":83,"Duration":447760,"SoundDuration":447760,"Delta":104093023},{"NoteNumber":45,"Velocity":62,"Duration":223880,"SoundDuration":223880,"Delta":104093023},{"NoteNumber":57,"Velocity":75,"Duration":223880,"SoundDuration":223880,"Delta":104093023},{"NoteNumber":40,"Velocity":57,"Duration":223880,"SoundDuration":223880,"Delta":104316904},{"NoteNumber":52,"Velocity":69,"Duration":223880,"SoundDuration":223880,"Delta":104316904},{"NoteNumber":62,"Velocity":75,"Duration":452830,"SoundDuration":452830,"Delta":104540784},{"NoteNumber":71,"Velocity":75,"Duration":452830,"SoundDuration":452830,"Delta":104540784},{"NoteNumber":74,"Velocity":83,"Duration":452830,"SoundDuration":452830,"Delta":104540784},{"NoteNumber":47,"Velocity":62,"Duration":226415,"SoundDuration":226415,"Delta":104540784},{"NoteNumber":59,"Velocity":75,"Duration":226415,"SoundDuration":226415,"Delta":104540784},{"NoteNumber":40,"Velocity":57,"Duration":226415,"SoundDuration":226415,"Delta":104767199},{"NoteNumber":52,"Velocity":69,"Duration":226415,"SoundDuration":226415,"Delta":104767199},{"NoteNumber":64,"Velocity":75,"Duration":447760,"SoundDuration":447760,"Delta":104993614},{"NoteNumber":72,"Velocity":75,"Duration":447760,"SoundDuration":447760,"Delta":104993614},{"NoteNumber":76,"Velocity":84,"Duration":447760,"SoundDuration":447760,"Delta":104993614},{"NoteNumber":48,"Velocity":63,"Duration":223880,"SoundDuration":223880,"Delta":104993614},{"NoteNumber":60,"Velocity":76,"Duration":223880,"SoundDuration":223880,"Delta":104993614},{"NoteNumber":47,"Velocity":57,"Duration":223880,"SoundDuration":223880,"Delta":105217495},{"NoteNumber":59,"Velocity":69,"Duration":223880,"SoundDuration":223880,"Delta":105217495},{"NoteNumber":67,"Velocity":79,"Duration":884461,"SoundDuration":884461,"Delta":105441375},{"NoteNumber":76,"Velocity":79,"Duration":884461,"SoundDuration":884461,"Delta":105441375},{"NoteNumber":79,"Velocity":90,"Duration":884461,"SoundDuration":884461,"Delta":105441375},{"NoteNumber":48,"Velocity":58,"Duration":217391,"SoundDuration":217391,"Delta":105441375},{"NoteNumber":60,"Velocity":70,"Duration":217391,"SoundDuration":217391,"Delta":105441375},{"NoteNumber":50,"Velocity":59,"Duration":224265,"SoundDuration":224265,"Delta":105658767},{"NoteNumber":62,"Velocity":73,"Duration":224265,"SoundDuration":224265,"Delta":105658767},{"NoteNumber":52,"Velocity":60,"Duration":221401,"SoundDuration":221401,"Delta":105883032},{"NoteNumber":64,"Velocity":74,"Duration":221401,"SoundDuration":221401,"Delta":105883032},{"NoteNumber":43,"Velocity":56,"Duration":221401,"SoundDuration":221401,"Delta":106104434},{"NoteNumber":55,"Velocity":67,"Duration":221401,"SoundDuration":221401,"Delta":106104434},{"NoteNumber":65,"Velocity":75,"Duration":322058,"SoundDuration":322058,"Delta":106325836},{"NoteNumber":74,"Velocity":75,"Duration":322058,"SoundDuration":322058,"Delta":106325836},{"NoteNumber":77,"Velocity":84,"Duration":322058,"SoundDuration":322058,"Delta":106325836},{"NoteNumber":45,"Velocity":58,"Duration":211357,"SoundDuration":211357,"Delta":106325836},{"NoteNumber":57,"Velocity":70,"Duration":211357,"SoundDuration":211357,"Delta":106325836},{"NoteNumber":47,"Velocity":60,"Duration":221401,"SoundDuration":221401,"Delta":106537193},{"NoteNumber":59,"Velocity":74,"Duration":221401,"SoundDuration":221401,"Delta":106537193},{"NoteNumber":64,"Velocity":71,"Duration":105165,"SoundDuration":105165,"Delta":106647894},{"NoteNumber":72,"Velocity":71,"Duration":105165,"SoundDuration":105165,"Delta":106647894},{"NoteNumber":76,"Velocity":78,"Duration":105165,"SoundDuration":105165,"Delta":106647894},{"NoteNumber":64,"Velocity":75,"Duration":432028,"SoundDuration":432028,"Delta":106758595},{"NoteNumber":72,"Velocity":75,"Duration":432028,"SoundDuration":432028,"Delta":106758595},{"NoteNumber":76,"Velocity":83,"Duration":432028,"SoundDuration":432028,"Delta":106758595},{"NoteNumber":48,"Velocity":63,"Duration":216014,"SoundDuration":216014,"Delta":106758595},{"NoteNumber":60,"Velocity":76,"Duration":216014,"SoundDuration":216014,"Delta":106758595},{"NoteNumber":40,"Velocity":56,"Duration":216014,"SoundDuration":216014,"Delta":106974609},{"NoteNumber":52,"Velocity":67,"Duration":216014,"SoundDuration":216014,"Delta":106974609},{"NoteNumber":62,"Velocity":75,"Duration":324346,"SoundDuration":324346,"Delta":107190623},{"NoteNumber":71,"Velocity":75,"Duration":324346,"SoundDuration":324346,"Delta":107190623},{"NoteNumber":74,"Velocity":83,"Duration":324346,"SoundDuration":324346,"Delta":107190623},{"NoteNumber":42,"Velocity":57,"Duration":214052,"SoundDuration":214052,"Delta":107190623},{"NoteNumber":54,"Velocity":69,"Duration":214052,"SoundDuration":214052,"Delta":107190623},{"NoteNumber":44,"Velocity":58,"Duration":220588,"SoundDuration":220588,"Delta":107404675},{"NoteNumber":56,"Velocity":70,"Duration":220588,"SoundDuration":220588,"Delta":107404675},{"NoteNumber":60,"Velocity":71,"Duration":104779,"SoundDuration":104779,"Delta":107514969},{"NoteNumber":69,"Velocity":71,"Duration":104779,"SoundDuration":104779,"Delta":107514969},{"NoteNumber":72,"Velocity":78,"Duration":104779,"SoundDuration":104779,"Delta":107514969},{"NoteNumber":60,"Velocity":75,"Duration":449829,"SoundDuration":449829,"Delta":107625263},{"NoteNumber":69,"Velocity":75,"Duration":449829,"SoundDuration":449829,"Delta":107625263},{"NoteNumber":72,"Velocity":83,"Duration":449829,"SoundDuration":449829,"Delta":107625263},{"NoteNumber":45,"Velocity":59,"Duration":226415,"SoundDuration":226415,"Delta":107625263},{"NoteNumber":57,"Velocity":73,"Duration":226415,"SoundDuration":226415,"Delta":107625263},{"NoteNumber":36,"Velocity":57,"Duration":223414,"SoundDuration":223414,"Delta":107851678},{"NoteNumber":48,"Velocity":69,"Duration":223414,"SoundDuration":223414,"Delta":107851678},{"NoteNumber":64,"Velocity":76,"Duration":346981,"SoundDuration":346981,"Delta":108075092},{"NoteNumber":72,"Velocity":76,"Duration":346981,"SoundDuration":346981,"Delta":108075092},{"NoteNumber":76,"Velocity":85,"Duration":346981,"SoundDuration":346981,"Delta":108075092},{"NoteNumber":41,"Velocity":60,"Duration":231320,"SoundDuration":231320,"Delta":108075092},{"NoteNumber":53,"Velocity":74,"Duration":231320,"SoundDuration":231320,"Delta":108075092},{"NoteNumber":38,"Velocity":57,"Duration":240141,"SoundDuration":240141,"Delta":108306413},{"NoteNumber":50,"Velocity":69,"Duration":240141,"SoundDuration":240141,"Delta":108306413},{"NoteNumber":62,"Velocity":71,"Duration":124481,"SoundDuration":124481,"Delta":108422074},{"NoteNumber":71,"Velocity":71,"Duration":124481,"SoundDuration":124481,"Delta":108422074},{"NoteNumber":74,"Velocity":78,"Duration":124481,"SoundDuration":124481,"Delta":108422074},{"NoteNumber":60,"Velocity":69,"Duration":905659,"SoundDuration":905659,"Delta":108546555},{"NoteNumber":69,"Velocity":69,"Duration":905659,"SoundDuration":905659,"Delta":108546555},{"NoteNumber":72,"Velocity":77,"Duration":905659,"SoundDuration":905659,"Delta":108546555},{"NoteNumber":40,"Velocity":62,"Duration":226415,"SoundDuration":226415,"Delta":108546555},{"NoteNumber":52,"Velocity":75,"Duration":226415,"SoundDuration":226415,"Delta":108546555},{"NoteNumber":39,"Velocity":57,"Duration":226415,"SoundDuration":226415,"Delta":108772970},{"NoteNumber":51,"Velocity":69,"Duration":226415,"SoundDuration":226415,"Delta":108772970},{"NoteNumber":40,"Velocity":57,"Duration":226414,"SoundDuration":226414,"Delta":108999385},{"NoteNumber":52,"Velocity":69,"Duration":226414,"SoundDuration":226414,"Delta":108999385},{"NoteNumber":39,"Velocity":57,"Duration":226415,"SoundDuration":226415,"Delta":109225800},{"NoteNumber":51,"Velocity":69,"Duration":226415,"SoundDuration":226415,"Delta":109225800},{"NoteNumber":59,"Velocity":68,"Duration":452830,"SoundDuration":452830,"Delta":109452215},{"NoteNumber":68,"Velocity":68,"Duration":452830,"SoundDuration":452830,"Delta":109452215},{"NoteNumber":71,"Velocity":76,"Duration":452830,"SoundDuration":452830,"Delta":109452215},{"NoteNumber":40,"Velocity":60,"Duration":226415,"SoundDuration":226415,"Delta":109452215},{"NoteNumber":52,"Velocity":74,"Duration":226415,"SoundDuration":226415,"Delta":109452215},{"NoteNumber":38,"Velocity":57,"Duration":226415,"SoundDuration":226415,"Delta":109678630},{"NoteNumber":50,"Velocity":69,"Duration":226415,"SoundDuration":226415,"Delta":109678630},{"NoteNumber":62,"Velocity":75,"Duration":445137,"SoundDuration":445137,"Delta":109905045},{"NoteNumber":64,"Velocity":84,"Duration":445137,"SoundDuration":445137,"Delta":109905045},{"NoteNumber":35,"Velocity":57,"Duration":222568,"SoundDuration":222568,"Delta":109905045},{"NoteNumber":47,"Velocity":69,"Duration":222568,"SoundDuration":222568,"Delta":109905045},{"NoteNumber":36,"Velocity":57,"Duration":222568,"SoundDuration":222568,"Delta":110127614},{"NoteNumber":48,"Velocity":69,"Duration":222568,"SoundDuration":222568,"Delta":110127614},{"NoteNumber":57,"Velocity":75,"Duration":658555,"SoundDuration":658555,"Delta":110350182},{"NoteNumber":60,"Velocity":75,"Duration":658555,"SoundDuration":658555,"Delta":110350182},{"NoteNumber":64,"Velocity":75,"Duration":658555,"SoundDuration":658555,"Delta":110350182},{"NoteNumber":69,"Velocity":83,"Duration":658555,"SoundDuration":658555,"Delta":110350182},{"NoteNumber":33,"Velocity":65,"Duration":220995,"SoundDuration":220995,"Delta":110350182},{"NoteNumber":45,"Velocity":76,"Duration":220995,"SoundDuration":220995,"Delta":110350182},{"NoteNumber":52,"Velocity":69,"Duration":219378,"SoundDuration":219378,"Delta":110571177},{"NoteNumber":40,"Velocity":57,"Duration":219378,"SoundDuration":219378,"Delta":110571177},{"NoteNumber":36,"Velocity":60,"Duration":218181,"SoundDuration":218181,"Delta":110790556},{"NoteNumber":48,"Velocity":74,"Duration":218181,"SoundDuration":218181,"Delta":110790556},{"NoteNumber":59,"Velocity":73,"Duration":212013,"SoundDuration":212013,"Delta":111008738},{"NoteNumber":64,"Velocity":73,"Duration":212013,"SoundDuration":212013,"Delta":111008738},{"NoteNumber":71,"Velocity":79,"Duration":212013,"SoundDuration":212013,"Delta":111008738},{"NoteNumber":40,"Velocity":57,"Duration":212013,"SoundDuration":212013,"Delta":111008738},{"NoteNumber":52,"Velocity":69,"Duration":212013,"SoundDuration":212013,"Delta":111008738},{"NoteNumber":60,"Velocity":75,"Duration":326087,"SoundDuration":326087,"Delta":111220752},{"NoteNumber":69,"Velocity":75,"Duration":326087,"SoundDuration":326087,"Delta":111220752},{"NoteNumber":72,"Velocity":83,"Duration":326087,"SoundDuration":326087,"Delta":111220752},{"NoteNumber":45,"Velocity":62,"Duration":217391,"SoundDuration":217391,"Delta":111220752},{"NoteNumber":57,"Velocity":75,"Duration":217391,"SoundDuration":217391,"Delta":111220752},{"NoteNumber":40,"Velocity":57,"Duration":217391,"SoundDuration":217391,"Delta":111438144},{"NoteNumber":52,"Velocity":69,"Duration":217391,"SoundDuration":217391,"Delta":111438144},{"NoteNumber":59,"Velocity":75,"Duration":108695,"SoundDuration":108695,"Delta":111546839},{"NoteNumber":68,"Velocity":75,"Duration":108695,"SoundDuration":108695,"Delta":111546839},{"NoteNumber":71,"Velocity":83,"Duration":108695,"SoundDuration":108695,"Delta":111546839},{"NoteNumber":60,"Velocity":75,"Duration":326087,"SoundDuration":326087,"Delta":111655535},{"NoteNumber":69,"Velocity":75,"Duration":326087,"SoundDuration":326087,"Delta":111655535},{"NoteNumber":72,"Velocity":83,"Duration":326087,"SoundDuration":326087,"Delta":111655535},{"NoteNumber":45,"Velocity":62,"Duration":217391,"SoundDuration":217391,"Delta":111655535},{"NoteNumber":57,"Velocity":75,"Duration":217391,"SoundDuration":217391,"Delta":111655535},{"NoteNumber":59,"Velocity":69,"Duration":217391,"SoundDuration":217391,"Delta":111872927},{"NoteNumber":47,"Velocity":57,"Duration":217391,"SoundDuration":217391,"Delta":111872927},{"NoteNumber":62,"Velocity":75,"Duration":108695,"SoundDuration":108695,"Delta":111981622},{"NoteNumber":74,"Velocity":83,"Duration":108695,"SoundDuration":108695,"Delta":111981622},{"NoteNumber":71,"Velocity":75,"Duration":108695,"SoundDuration":108695,"Delta":111981622},{"NoteNumber":64,"Velocity":75,"Duration":443459,"SoundDuration":443459,"Delta":112090318},{"NoteNumber":72,"Velocity":75,"Duration":443459,"SoundDuration":443459,"Delta":112090318},{"NoteNumber":76,"Velocity":84,"Duration":443459,"SoundDuration":443459,"Delta":112090318},{"NoteNumber":60,"Velocity":76,"Duration":221729,"SoundDuration":221729,"Delta":112090318},{"NoteNumber":48,"Velocity":63,"Duration":221729,"SoundDuration":221729,"Delta":112090318},{"NoteNumber":59,"Velocity":69,"Duration":221729,"SoundDuration":221729,"Delta":112312048},{"NoteNumber":47,"Velocity":57,"Duration":221729,"SoundDuration":221729,"Delta":112312048},{"NoteNumber":67,"Velocity":79,"Duration":873992,"SoundDuration":873992,"Delta":112533777},{"NoteNumber":76,"Velocity":79,"Duration":873992,"SoundDuration":873992,"Delta":112533777},{"NoteNumber":79,"Velocity":90,"Duration":873992,"SoundDuration":873992,"Delta":112533777},{"NoteNumber":48,"Velocity":58,"Duration":212886,"SoundDuration":212886,"Delta":112533777},{"NoteNumber":60,"Velocity":70,"Duration":212886,"SoundDuration":212886,"Delta":112533777},{"NoteNumber":50,"Velocity":59,"Duration":224265,"SoundDuration":224265,"Delta":112746664},{"NoteNumber":62,"Velocity":73,"Duration":224265,"SoundDuration":224265,"Delta":112746664},{"NoteNumber":64,"Velocity":74,"Duration":218419,"SoundDuration":218419,"Delta":112970929},{"NoteNumber":52,"Velocity":60,"Duration":218419,"SoundDuration":218419,"Delta":112970929},{"NoteNumber":53,"Velocity":56,"Duration":218420,"SoundDuration":218420,"Delta":113189349},{"NoteNumber":65,"Velocity":67,"Duration":218420,"SoundDuration":218420,"Delta":113189349},{"NoteNumber":70,"Velocity":80,"Duration":1657342,"SoundDuration":1657342,"Delta":113407769},{"NoteNumber":79,"Velocity":80,"Duration":1657342,"SoundDuration":1657342,"Delta":113407769},{"NoteNumber":82,"Velocity":92,"Duration":1657342,"SoundDuration":1657342,"Delta":113407769},{"NoteNumber":67,"Velocity":70,"Duration":224265,"SoundDuration":224265,"Delta":113407769},{"NoteNumber":55,"Velocity":58,"Duration":224265,"SoundDuration":224265,"Delta":113407769},{"NoteNumber":69,"Velocity":74,"Duration":238853,"SoundDuration":238853,"Delta":113632035},{"NoteNumber":57,"Velocity":60,"Duration":238853,"SoundDuration":238853,"Delta":113632035},{"NoteNumber":58,"Velocity":62,"Duration":220880,"SoundDuration":220880,"Delta":113870888},{"NoteNumber":70,"Velocity":76,"Duration":220880,"SoundDuration":220880,"Delta":113870888},{"NoteNumber":55,"Velocity":66,"Duration":220880,"SoundDuration":220880,"Delta":114091769},{"NoteNumber":67,"Velocity":77,"Duration":220880,"SoundDuration":220880,"Delta":114091769},{"NoteNumber":52,"Velocity":62,"Duration":212766,"SoundDuration":212766,"Delta":114312649},{"NoteNumber":64,"Velocity":75,"Duration":212766,"SoundDuration":212766,"Delta":114312649},{"NoteNumber":50,"Velocity":62,"Duration":212766,"SoundDuration":212766,"Delta":114525415},{"NoteNumber":62,"Velocity":75,"Duration":212766,"SoundDuration":212766,"Delta":114525415},{"NoteNumber":49,"Velocity":65,"Duration":438637,"SoundDuration":438637,"Delta":114738181},{"NoteNumber":61,"Velocity":69,"Duration":438637,"SoundDuration":438637,"Delta":114738181},{"NoteNumber":70,"Velocity":76,"Duration":111707,"SoundDuration":111707,"Delta":115065112},{"NoteNumber":79,"Velocity":76,"Duration":111707,"SoundDuration":111707,"Delta":115065112},{"NoteNumber":82,"Velocity":83,"Duration":111707,"SoundDuration":111707,"Delta":115065112},{"NoteNumber":67,"Velocity":66,"Duration":111707,"SoundDuration":111707,"Delta":115065112},{"NoteNumber":69,"Velocity":76,"Duration":346981,"SoundDuration":346981,"Delta":115176819},{"NoteNumber":77,"Velocity":76,"Duration":346981,"SoundDuration":346981,"Delta":115176819},{"NoteNumber":81,"Velocity":85,"Duration":346981,"SoundDuration":346981,"Delta":115176819},{"NoteNumber":65,"Velocity":68,"Duration":346981,"SoundDuration":346981,"Delta":115176819},{"NoteNumber":67,"Velocity":71,"Duration":124481,"SoundDuration":124481,"Delta":115523800},{"NoteNumber":76,"Velocity":71,"Duration":124481,"SoundDuration":124481,"Delta":115523800},{"NoteNumber":79,"Velocity":78,"Duration":124481,"SoundDuration":124481,"Delta":115523800},{"NoteNumber":64,"Velocity":62,"Duration":124481,"SoundDuration":124481,"Delta":115523800},{"NoteNumber":65,"Velocity":77,"Duration":1206479,"SoundDuration":1206479,"Delta":115648281},{"NoteNumber":74,"Velocity":77,"Duration":1206479,"SoundDuration":1206479,"Delta":115648281},{"NoteNumber":77,"Velocity":88,"Duration":1206479,"SoundDuration":1206479,"Delta":115648281},{"NoteNumber":50,"Velocity":65,"Duration":220880,"SoundDuration":220880,"Delta":115648281},{"NoteNumber":62,"Velocity":77,"Duration":220880,"SoundDuration":220880,"Delta":115648281},{"NoteNumber":48,"Velocity":65,"Duration":110440,"SoundDuration":110440,"Delta":115869162},{"NoteNumber":60,"Velocity":74,"Duration":110440,"SoundDuration":110440,"Delta":115869162},{"NoteNumber":47,"Velocity":65,"Duration":106761,"SoundDuration":106761,"Delta":116090042},{"NoteNumber":59,"Velocity":74,"Duration":106761,"SoundDuration":106761,"Delta":116090042},{"NoteNumber":45,"Velocity":65,"Duration":112132,"SoundDuration":112132,"Delta":116303565},{"NoteNumber":57,"Velocity":74,"Duration":112132,"SoundDuration":112132,"Delta":116303565},{"NoteNumber":44,"Velocity":59,"Duration":438637,"SoundDuration":438637,"Delta":116527831},{"NoteNumber":56,"Velocity":73,"Duration":438637,"SoundDuration":438637,"Delta":116527831},{"NoteNumber":65,"Velocity":70,"Duration":111707,"SoundDuration":111707,"Delta":116854761},{"NoteNumber":74,"Velocity":70,"Duration":111707,"SoundDuration":111707,"Delta":116854761},{"NoteNumber":77,"Velocity":83,"Duration":111707,"SoundDuration":111707,"Delta":116854761},{"NoteNumber":62,"Velocity":66,"Duration":111707,"SoundDuration":111707,"Delta":116854761},{"NoteNumber":64,"Velocity":76,"Duration":346981,"SoundDuration":346981,"Delta":116966468},{"NoteNumber":72,"Velocity":76,"Duration":346981,"SoundDuration":346981,"Delta":116966468},{"NoteNumber":76,"Velocity":85,"Duration":346981,"SoundDuration":346981,"Delta":116966468},{"NoteNumber":60,"Velocity":68,"Duration":346981,"SoundDuration":346981,"Delta":116966468},{"NoteNumber":62,"Velocity":71,"Duration":124481,"SoundDuration":124481,"Delta":117313450},{"NoteNumber":71,"Velocity":71,"Duration":124481,"SoundDuration":124481,"Delta":117313450},{"NoteNumber":74,"Velocity":78,"Duration":124481,"SoundDuration":124481,"Delta":117313450},{"NoteNumber":59,"Velocity":62,"Duration":124481,"SoundDuration":124481,"Delta":117313450},{"NoteNumber":60,"Velocity":74,"Duration":1217160,"SoundDuration":1217160,"Delta":117437931},{"NoteNumber":69,"Velocity":77,"Duration":1217160,"SoundDuration":1217160,"Delta":117437931},{"NoteNumber":72,"Velocity":82,"Duration":1217160,"SoundDuration":1217160,"Delta":117437931},{"NoteNumber":45,"Velocity":65,"Duration":221729,"SoundDuration":221729,"Delta":117437931},{"NoteNumber":57,"Velocity":73,"Duration":221729,"SoundDuration":221729,"Delta":117437931},{"NoteNumber":43,"Velocity":63,"Duration":110864,"SoundDuration":110864,"Delta":117659661},{"NoteNumber":55,"Velocity":73,"Duration":110864,"SoundDuration":110864,"Delta":117659661},{"NoteNumber":42,"Velocity":65,"Duration":108405,"SoundDuration":108405,"Delta":117881390},{"NoteNumber":54,"Velocity":74,"Duration":108405,"SoundDuration":108405,"Delta":117881390},{"NoteNumber":40,"Velocity":65,"Duration":112561,"SoundDuration":112561,"Delta":118098200},{"NoteNumber":52,"Velocity":74,"Duration":112561,"SoundDuration":112561,"Delta":118098200},{"NoteNumber":39,"Velocity":59,"Duration":220243,"SoundDuration":220243,"Delta":118323324},{"NoteNumber":51,"Velocity":73,"Duration":220243,"SoundDuration":220243,"Delta":118323324},{"NoteNumber":59,"Velocity":42,"Duration":111524,"SoundDuration":111524,"Delta":118543568},{"NoteNumber":68,"Velocity":42,"Duration":111524,"SoundDuration":111524,"Delta":118543568},{"NoteNumber":71,"Velocity":60,"Duration":111524,"SoundDuration":111524,"Delta":118543568},{"NoteNumber":56,"Velocity":49,"Duration":111524,"SoundDuration":111524,"Delta":118543568},{"NoteNumber":57,"Velocity":53,"Duration":109091,"SoundDuration":109091,"Delta":118766616},{"NoteNumber":66,"Velocity":53,"Duration":109091,"SoundDuration":109091,"Delta":118766616},{"NoteNumber":69,"Velocity":64,"Duration":109091,"SoundDuration":109091,"Delta":118766616},{"NoteNumber":54,"Velocity":53,"Duration":109091,"SoundDuration":109091,"Delta":118766616},{"NoteNumber":59,"Velocity":52,"Duration":109091,"SoundDuration":109091,"Delta":118984798},{"NoteNumber":68,"Velocity":52,"Duration":109091,"SoundDuration":109091,"Delta":118984798},{"NoteNumber":71,"Velocity":62,"Duration":109091,"SoundDuration":109091,"Delta":118984798},{"NoteNumber":56,"Velocity":48,"Duration":109091,"SoundDuration":109091,"Delta":118984798},{"NoteNumber":69,"Velocity":52,"Duration":107142,"SoundDuration":107142,"Delta":119202980},{"NoteNumber":72,"Velocity":63,"Duration":107142,"SoundDuration":107142,"Delta":119202980},{"NoteNumber":60,"Velocity":52,"Duration":107142,"SoundDuration":107142,"Delta":119202980},{"NoteNumber":40,"Velocity":48,"Duration":107142,"SoundDuration":107142,"Delta":119202980},{"NoteNumber":52,"Velocity":52,"Duration":107142,"SoundDuration":107142,"Delta":119202980},{"NoteNumber":62,"Velocity":54,"Duration":110293,"SoundDuration":110293,"Delta":119417266},{"NoteNumber":74,"Velocity":65,"Duration":110293,"SoundDuration":110293,"Delta":119417266},{"NoteNumber":71,"Velocity":54,"Duration":110293,"SoundDuration":110293,"Delta":119417266},{"NoteNumber":59,"Velocity":54,"Duration":110293,"SoundDuration":110293,"Delta":119417266},{"NoteNumber":64,"Velocity":56,"Duration":106761,"SoundDuration":106761,"Delta":119637854},{"NoteNumber":76,"Velocity":67,"Duration":106761,"SoundDuration":106761,"Delta":119637854},{"NoteNumber":72,"Velocity":56,"Duration":106761,"SoundDuration":106761,"Delta":119637854},{"NoteNumber":60,"Velocity":55,"Duration":106761,"SoundDuration":106761,"Delta":119637854},{"NoteNumber":65,"Velocity":57,"Duration":109488,"SoundDuration":109488,"Delta":119851377},{"NoteNumber":74,"Velocity":57,"Duration":109488,"SoundDuration":109488,"Delta":119851377},{"NoteNumber":77,"Velocity":69,"Duration":109488,"SoundDuration":109488,"Delta":119851377},{"NoteNumber":62,"Velocity":57,"Duration":109488,"SoundDuration":109488,"Delta":119851377},{"NoteNumber":64,"Velocity":57,"Duration":106187,"SoundDuration":106187,"Delta":120070355},{"NoteNumber":72,"Velocity":57,"Duration":106187,"SoundDuration":106187,"Delta":120070355},{"NoteNumber":76,"Velocity":68,"Duration":106187,"SoundDuration":106187,"Delta":120070355},{"NoteNumber":60,"Velocity":58,"Duration":106187,"SoundDuration":106187,"Delta":120070355},{"NoteNumber":71,"Velocity":57,"Duration":107766,"SoundDuration":107766,"Delta":120282729},{"NoteNumber":74,"Velocity":68,"Duration":107766,"SoundDuration":107766,"Delta":120282729},{"NoteNumber":62,"Velocity":57,"Duration":107766,"SoundDuration":107766,"Delta":120282729},{"NoteNumber":59,"Velocity":58,"Duration":107766,"SoundDuration":107766,"Delta":120282729},{"NoteNumber":69,"Velocity":57,"Duration":106967,"SoundDuration":106967,"Delta":120498262},{"NoteNumber":72,"Velocity":68,"Duration":106967,"SoundDuration":106967,"Delta":120498262},{"NoteNumber":60,"Velocity":57,"Duration":106967,"SoundDuration":106967,"Delta":120498262},{"NoteNumber":57,"Velocity":57,"Duration":106967,"SoundDuration":106967,"Delta":120498262},{"NoteNumber":68,"Velocity":58,"Duration":106967,"SoundDuration":106967,"Delta":120712196},{"NoteNumber":71,"Velocity":68,"Duration":106967,"SoundDuration":106967,"Delta":120712196},{"NoteNumber":59,"Velocity":58,"Duration":106967,"SoundDuration":106967,"Delta":120712196},{"NoteNumber":52,"Velocity":56,"Duration":106967,"SoundDuration":106967,"Delta":120712196},{"NoteNumber":72,"Velocity":70,"Duration":105633,"SoundDuration":105633,"Delta":120926131},{"NoteNumber":60,"Velocity":59,"Duration":105633,"SoundDuration":105633,"Delta":120926131},{"NoteNumber":69,"Velocity":59,"Duration":105633,"SoundDuration":105633,"Delta":120926131},{"NoteNumber":57,"Velocity":57,"Duration":105633,"SoundDuration":105633,"Delta":120926131},{"NoteNumber":62,"Velocity":59,"Duration":108162,"SoundDuration":108162,"Delta":121137398},{"NoteNumber":71,"Velocity":59,"Duration":108162,"SoundDuration":108162,"Delta":121137398},{"NoteNumber":74,"Velocity":71,"Duration":108162,"SoundDuration":108162,"Delta":121137398},{"NoteNumber":59,"Velocity":58,"Duration":108162,"SoundDuration":108162,"Delta":121137398},{"NoteNumber":72,"Velocity":63,"Duration":105263,"SoundDuration":105263,"Delta":121353724},{"NoteNumber":76,"Velocity":76,"Duration":105263,"SoundDuration":105263,"Delta":121353724},{"NoteNumber":64,"Velocity":63,"Duration":105263,"SoundDuration":105263,"Delta":121353724},{"NoteNumber":60,"Velocity":62,"Duration":105263,"SoundDuration":105263,"Delta":121353724},{"NoteNumber":65,"Velocity":65,"Duration":108569,"SoundDuration":108569,"Delta":121564250},{"NoteNumber":77,"Velocity":78,"Duration":108569,"SoundDuration":108569,"Delta":121564250},{"NoteNumber":74,"Velocity":65,"Duration":108569,"SoundDuration":108569,"Delta":121564250},{"NoteNumber":62,"Velocity":64,"Duration":108569,"SoundDuration":108569,"Delta":121564250},{"NoteNumber":64,"Velocity":63,"Duration":105633,"SoundDuration":105633,"Delta":121781390},{"NoteNumber":76,"Velocity":76,"Duration":105633,"SoundDuration":105633,"Delta":121781390},{"NoteNumber":72,"Velocity":63,"Duration":105633,"SoundDuration":105633,"Delta":121781390},{"NoteNumber":60,"Velocity":65,"Duration":105633,"SoundDuration":105633,"Delta":121781390},{"NoteNumber":62,"Velocity":64,"Duration":105633,"SoundDuration":105633,"Delta":121992657},{"NoteNumber":71,"Velocity":64,"Duration":105633,"SoundDuration":105633,"Delta":121992657},{"NoteNumber":74,"Velocity":76,"Duration":105633,"SoundDuration":105633,"Delta":121992657},{"NoteNumber":59,"Velocity":66,"Duration":105633,"SoundDuration":105633,"Delta":121992657},{"NoteNumber":60,"Velocity":64,"Duration":104529,"SoundDuration":104529,"Delta":122203925},{"NoteNumber":69,"Velocity":64,"Duration":104529,"SoundDuration":104529,"Delta":122203925},{"NoteNumber":72,"Velocity":76,"Duration":104529,"SoundDuration":104529,"Delta":122203925},{"NoteNumber":57,"Velocity":65,"Duration":104529,"SoundDuration":104529,"Delta":122203925},{"NoteNumber":68,"Velocity":64,"Duration":104529,"SoundDuration":104529,"Delta":122412984},{"NoteNumber":71,"Velocity":76,"Duration":104529,"SoundDuration":104529,"Delta":122412984},{"NoteNumber":59,"Velocity":64,"Duration":104529,"SoundDuration":104529,"Delta":122412984},{"NoteNumber":44,"Velocity":53,"Duration":104529,"SoundDuration":104529,"Delta":122412984},{"NoteNumber":47,"Velocity":53,"Duration":104529,"SoundDuration":104529,"Delta":122412984},{"NoteNumber":56,"Velocity":63,"Duration":104529,"SoundDuration":104529,"Delta":122412984},{"NoteNumber":69,"Velocity":66,"Duration":105633,"SoundDuration":105633,"Delta":122622043},{"NoteNumber":72,"Velocity":79,"Duration":105633,"SoundDuration":105633,"Delta":122622043},{"NoteNumber":60,"Velocity":66,"Duration":105633,"SoundDuration":105633,"Delta":122622043},{"NoteNumber":45,"Velocity":56,"Duration":105633,"SoundDuration":105633,"Delta":122622043},{"NoteNumber":57,"Velocity":66,"Duration":105633,"SoundDuration":105633,"Delta":122622043},{"NoteNumber":48,"Velocity":56,"Duration":105633,"SoundDuration":105633,"Delta":122622043},{"NoteNumber":74,"Velocity":81,"Duration":108162,"SoundDuration":108162,"Delta":122833310},{"NoteNumber":71,"Velocity":68,"Duration":108162,"SoundDuration":108162,"Delta":122833310},{"NoteNumber":62,"Velocity":68,"Duration":108162,"SoundDuration":108162,"Delta":122833310},{"NoteNumber":47,"Velocity":57,"Duration":108162,"SoundDuration":108162,"Delta":122833310},{"NoteNumber":50,"Velocity":57,"Duration":108162,"SoundDuration":108162,"Delta":122833310},{"NoteNumber":59,"Velocity":68,"Duration":108162,"SoundDuration":108162,"Delta":122833310},{"NoteNumber":76,"Velocity":84,"Duration":103448,"SoundDuration":103448,"Delta":123049636},{"NoteNumber":72,"Velocity":70,"Duration":103448,"SoundDuration":103448,"Delta":123049636},{"NoteNumber":64,"Velocity":70,"Duration":103448,"SoundDuration":103448,"Delta":123049636},{"NoteNumber":48,"Velocity":58,"Duration":103448,"SoundDuration":103448,"Delta":123049636},{"NoteNumber":52,"Velocity":58,"Duration":103448,"SoundDuration":103448,"Delta":123049636},{"NoteNumber":60,"Velocity":69,"Duration":103448,"SoundDuration":103448,"Delta":123049636},{"NoteNumber":65,"Velocity":73,"Duration":105633,"SoundDuration":105633,"Delta":123256532},{"NoteNumber":74,"Velocity":73,"Duration":105633,"SoundDuration":105633,"Delta":123256532},{"NoteNumber":77,"Velocity":86,"Duration":105633,"SoundDuration":105633,"Delta":123256532},{"NoteNumber":50,"Velocity":58,"Duration":105633,"SoundDuration":105633,"Delta":123256532},{"NoteNumber":53,"Velocity":58,"Duration":105633,"SoundDuration":105633,"Delta":123256532},{"NoteNumber":62,"Velocity":70,"Duration":105633,"SoundDuration":105633,"Delta":123256532},{"NoteNumber":76,"Velocity":83,"Duration":105633,"SoundDuration":105633,"Delta":123467800},{"NoteNumber":64,"Velocity":69,"Duration":105633,"SoundDuration":105633,"Delta":123467800},{"NoteNumber":72,"Velocity":69,"Duration":105633,"SoundDuration":105633,"Delta":123467800},{"NoteNumber":48,"Velocity":59,"Duration":105633,"SoundDuration":105633,"Delta":123467800},{"NoteNumber":52,"Velocity":59,"Duration":105633,"SoundDuration":105633,"Delta":123467800},{"NoteNumber":60,"Velocity":71,"Duration":105633,"SoundDuration":105633,"Delta":123467800},{"NoteNumber":62,"Velocity":68,"Duration":105633,"SoundDuration":105633,"Delta":123679067},{"NoteNumber":71,"Velocity":68,"Duration":105633,"SoundDuration":105633,"Delta":123679067},{"NoteNumber":74,"Velocity":81,"Duration":105633,"SoundDuration":105633,"Delta":123679067},{"NoteNumber":47,"Velocity":58,"Duration":105633,"SoundDuration":105633,"Delta":123679067},{"NoteNumber":50,"Velocity":58,"Duration":105633,"SoundDuration":105633,"Delta":123679067},{"NoteNumber":59,"Velocity":70,"Duration":105633,"SoundDuration":105633,"Delta":123679067},{"NoteNumber":60,"Velocity":67,"Duration":105210,"SoundDuration":105210,"Delta":123890335},{"NoteNumber":69,"Velocity":67,"Duration":105210,"SoundDuration":105210,"Delta":123890335},{"NoteNumber":72,"Velocity":80,"Duration":105210,"SoundDuration":105210,"Delta":123890335},{"NoteNumber":45,"Velocity":57,"Duration":105210,"SoundDuration":105210,"Delta":123890335},{"NoteNumber":48,"Velocity":57,"Duration":105210,"SoundDuration":105210,"Delta":123890335},{"NoteNumber":57,"Velocity":68,"Duration":105210,"SoundDuration":105210,"Delta":123890335},{"NoteNumber":68,"Velocity":68,"Duration":104529,"SoundDuration":104529,"Delta":124100075},{"NoteNumber":59,"Velocity":68,"Duration":104529,"SoundDuration":104529,"Delta":124100075},{"NoteNumber":71,"Velocity":80,"Duration":104529,"SoundDuration":104529,"Delta":124100075},{"NoteNumber":44,"Velocity":57,"Duration":104529,"SoundDuration":104529,"Delta":124100075},{"NoteNumber":47,"Velocity":57,"Duration":104529,"SoundDuration":104529,"Delta":124100075},{"NoteNumber":56,"Velocity":67,"Duration":104529,"SoundDuration":104529,"Delta":124100075},{"NoteNumber":60,"Velocity":70,"Duration":104894,"SoundDuration":104894,"Delta":124309134},{"NoteNumber":69,"Velocity":70,"Duration":104894,"SoundDuration":104894,"Delta":124309134},{"NoteNumber":72,"Velocity":84,"Duration":104894,"SoundDuration":104894,"Delta":124309134},{"NoteNumber":45,"Velocity":56,"Duration":104894,"SoundDuration":104894,"Delta":124309134},{"NoteNumber":48,"Velocity":56,"Duration":104894,"SoundDuration":104894,"Delta":124309134},{"NoteNumber":57,"Velocity":66,"Duration":104894,"SoundDuration":104894,"Delta":124309134},{"NoteNumber":74,"Velocity":85,"Duration":108162,"SoundDuration":108162,"Delta":124518924},{"NoteNumber":62,"Velocity":71,"Duration":108162,"SoundDuration":108162,"Delta":124518924},{"NoteNumber":71,"Velocity":71,"Duration":108162,"SoundDuration":108162,"Delta":124518924},{"NoteNumber":47,"Velocity":56,"Duration":108162,"SoundDuration":108162,"Delta":124518924},{"NoteNumber":50,"Velocity":56,"Duration":108162,"SoundDuration":108162,"Delta":124518924},{"NoteNumber":59,"Velocity":67,"Duration":108162,"SoundDuration":108162,"Delta":124518924},{"NoteNumber":64,"Velocity":74,"Duration":105263,"SoundDuration":105263,"Delta":124735249},{"NoteNumber":72,"Velocity":74,"Duration":105263,"SoundDuration":105263,"Delta":124735249},{"NoteNumber":76,"Velocity":88,"Duration":105263,"SoundDuration":105263,"Delta":124735249},{"NoteNumber":48,"Velocity":57,"Duration":105263,"SoundDuration":105263,"Delta":124735249},{"NoteNumber":52,"Velocity":57,"Duration":105263,"SoundDuration":105263,"Delta":124735249},{"NoteNumber":60,"Velocity":68,"Duration":105263,"SoundDuration":105263,"Delta":124735249},{"NoteNumber":77,"Velocity":90,"Duration":108569,"SoundDuration":108569,"Delta":124945776},{"NoteNumber":65,"Velocity":76,"Duration":108569,"SoundDuration":108569,"Delta":124945776},{"NoteNumber":74,"Velocity":76,"Duration":108569,"SoundDuration":108569,"Delta":124945776},{"NoteNumber":50,"Velocity":58,"Duration":108569,"SoundDuration":108569,"Delta":124945776},{"NoteNumber":53,"Velocity":58,"Duration":108569,"SoundDuration":108569,"Delta":124945776},{"NoteNumber":62,"Velocity":69,"Duration":108569,"SoundDuration":108569,"Delta":124945776},{"NoteNumber":64,"Velocity":74,"Duration":105263,"SoundDuration":105263,"Delta":125162915},{"NoteNumber":72,"Velocity":74,"Duration":105263,"SoundDuration":105263,"Delta":125162915},{"NoteNumber":76,"Velocity":87,"Duration":105263,"SoundDuration":105263,"Delta":125162915},{"NoteNumber":48,"Velocity":59,"Duration":105263,"SoundDuration":105263,"Delta":125162915},{"NoteNumber":52,"Velocity":59,"Duration":105263,"SoundDuration":105263,"Delta":125162915},{"NoteNumber":60,"Velocity":71,"Duration":105263,"SoundDuration":105263,"Delta":125162915},{"NoteNumber":62,"Velocity":74,"Duration":105263,"SoundDuration":105263,"Delta":125373442},{"NoteNumber":74,"Velocity":87,"Duration":105263,"SoundDuration":105263,"Delta":125373442},{"NoteNumber":71,"Velocity":74,"Duration":105263,"SoundDuration":105263,"Delta":125373442},{"NoteNumber":47,"Velocity":59,"Duration":105263,"SoundDuration":105263,"Delta":125373442},{"NoteNumber":50,"Velocity":59,"Duration":105263,"SoundDuration":105263,"Delta":125373442},{"NoteNumber":59,"Velocity":71,"Duration":105263,"SoundDuration":105263,"Delta":125373442},{"NoteNumber":69,"Velocity":73,"Duration":105263,"SoundDuration":105263,"Delta":125583968},{"NoteNumber":60,"Velocity":73,"Duration":105263,"SoundDuration":105263,"Delta":125583968},{"NoteNumber":72,"Velocity":86,"Duration":105263,"SoundDuration":105263,"Delta":125583968},{"NoteNumber":45,"Velocity":57,"Duration":105263,"SoundDuration":105263,"Delta":125583968},{"NoteNumber":48,"Velocity":57,"Duration":105263,"SoundDuration":105263,"Delta":125583968},{"NoteNumber":57,"Velocity":68,"Duration":105263,"SoundDuration":105263,"Delta":125583968},{"NoteNumber":68,"Velocity":73,"Duration":109889,"SoundDuration":109889,"Delta":125794495},{"NoteNumber":59,"Velocity":73,"Duration":109889,"SoundDuration":109889,"Delta":125794495},{"NoteNumber":71,"Velocity":86,"Duration":109889,"SoundDuration":109889,"Delta":125794495},{"NoteNumber":44,"Velocity":57,"Duration":109889,"SoundDuration":109889,"Delta":125794495},{"NoteNumber":47,"Velocity":57,"Duration":109889,"SoundDuration":109889,"Delta":125794495},{"NoteNumber":56,"Velocity":67,"Duration":109889,"SoundDuration":109889,"Delta":125794495},{"NoteNumber":69,"Velocity":72,"Duration":160525,"SoundDuration":160525,"Delta":126013699},{"NoteNumber":72,"Velocity":93,"Duration":160525,"SoundDuration":160525,"Delta":126013699},{"NoteNumber":60,"Velocity":72,"Duration":160525,"SoundDuration":160525,"Delta":126013699},{"NoteNumber":45,"Velocity":54,"Duration":160525,"SoundDuration":160525,"Delta":126013699},{"NoteNumber":48,"Velocity":54,"Duration":160525,"SoundDuration":160525,"Delta":126013699},{"NoteNumber":57,"Velocity":71,"Duration":160525,"SoundDuration":160525,"Delta":126013699},{"NoteNumber":71,"Velocity":89,"Duration":161612,"SoundDuration":161612,"Delta":126227987},{"NoteNumber":59,"Velocity":69,"Duration":161612,"SoundDuration":161612,"Delta":126227987},{"NoteNumber":68,"Velocity":69,"Duration":161612,"SoundDuration":161612,"Delta":126227987},{"NoteNumber":47,"Velocity":52,"Duration":161612,"SoundDuration":161612,"Delta":126227987},{"NoteNumber":56,"Velocity":65,"Duration":161612,"SoundDuration":161612,"Delta":126227987},{"NoteNumber":44,"Velocity":52,"Duration":161612,"SoundDuration":161612,"Delta":126227987},{"NoteNumber":72,"Velocity":93,"Duration":162325,"SoundDuration":162325,"Delta":126443557},{"NoteNumber":60,"Velocity":72,"Duration":162325,"SoundDuration":162325,"Delta":126443557},{"NoteNumber":69,"Velocity":72,"Duration":162325,"SoundDuration":162325,"Delta":126443557},{"NoteNumber":48,"Velocity":54,"Duration":162325,"SoundDuration":162325,"Delta":126443557},{"NoteNumber":57,"Velocity":71,"Duration":162325,"SoundDuration":162325,"Delta":126443557},{"NoteNumber":45,"Velocity":54,"Duration":162325,"SoundDuration":162325,"Delta":126443557},{"NoteNumber":59,"Velocity":67,"Duration":163109,"SoundDuration":163109,"Delta":126660034},{"NoteNumber":68,"Velocity":67,"Duration":163109,"SoundDuration":163109,"Delta":126660034},{"NoteNumber":71,"Velocity":85,"Duration":163109,"SoundDuration":163109,"Delta":126660034},{"NoteNumber":47,"Velocity":51,"Duration":163109,"SoundDuration":163109,"Delta":126660034},{"NoteNumber":56,"Velocity":64,"Duration":163109,"SoundDuration":163109,"Delta":126660034},{"NoteNumber":44,"Velocity":51,"Duration":163109,"SoundDuration":163109,"Delta":126660034},{"NoteNumber":60,"Velocity":72,"Duration":163835,"SoundDuration":163835,"Delta":126877689},{"NoteNumber":72,"Velocity":93,"Duration":163835,"SoundDuration":163835,"Delta":126877689},{"NoteNumber":69,"Velocity":72,"Duration":163835,"SoundDuration":163835,"Delta":126877689},{"NoteNumber":48,"Velocity":54,"Duration":163835,"SoundDuration":163835,"Delta":126877689},{"NoteNumber":57,"Velocity":71,"Duration":163835,"SoundDuration":163835,"Delta":126877689},{"NoteNumber":45,"Velocity":54,"Duration":163835,"SoundDuration":163835,"Delta":126877689},{"NoteNumber":71,"Velocity":83,"Duration":164567,"SoundDuration":164567,"Delta":127096269},{"NoteNumber":68,"Velocity":66,"Duration":164567,"SoundDuration":164567,"Delta":127096269},{"NoteNumber":59,"Velocity":66,"Duration":164567,"SoundDuration":164567,"Delta":127096269},{"NoteNumber":47,"Velocity":51,"Duration":164567,"SoundDuration":164567,"Delta":127096269},{"NoteNumber":56,"Velocity":64,"Duration":164567,"SoundDuration":164567,"Delta":127096269},{"NoteNumber":44,"Velocity":51,"Duration":164567,"SoundDuration":164567,"Delta":127096269},{"NoteNumber":60,"Velocity":72,"Duration":166603,"SoundDuration":166603,"Delta":127315781},{"NoteNumber":69,"Velocity":72,"Duration":166603,"SoundDuration":166603,"Delta":127315781},{"NoteNumber":72,"Velocity":93,"Duration":166603,"SoundDuration":166603,"Delta":127315781},{"NoteNumber":48,"Velocity":54,"Duration":166603,"SoundDuration":166603,"Delta":127315781},{"NoteNumber":57,"Velocity":71,"Duration":166603,"SoundDuration":166603,"Delta":127315781},{"NoteNumber":45,"Velocity":54,"Duration":166603,"SoundDuration":166603,"Delta":127315781},{"NoteNumber":71,"Velocity":83,"Duration":171545,"SoundDuration":171545,"Delta":127538705},{"NoteNumber":59,"Velocity":66,"Duration":171545,"SoundDuration":171545,"Delta":127538705},{"NoteNumber":68,"Velocity":66,"Duration":171545,"SoundDuration":171545,"Delta":127538705},{"NoteNumber":47,"Velocity":50,"Duration":171545,"SoundDuration":171545,"Delta":127538705},{"NoteNumber":56,"Velocity":63,"Duration":171545,"SoundDuration":171545,"Delta":127538705},{"NoteNumber":44,"Velocity":50,"Duration":171545,"SoundDuration":171545,"Delta":127538705},{"NoteNumber":60,"Velocity":72,"Duration":175097,"SoundDuration":175097,"Delta":127768017},{"NoteNumber":69,"Velocity":72,"Duration":175097,"SoundDuration":175097,"Delta":127768017},{"NoteNumber":72,"Velocity":93,"Duration":175097,"SoundDuration":175097,"Delta":127768017},{"NoteNumber":48,"Velocity":54,"Duration":466926,"SoundDuration":466926,"Delta":127768017},{"NoteNumber":57,"Velocity":71,"Duration":466926,"SoundDuration":466926,"Delta":127768017},{"NoteNumber":45,"Velocity":54,"Duration":466926,"SoundDuration":466926,"Delta":127768017},{"NoteNumber":59,"Velocity":67,"Duration":175097,"SoundDuration":175097,"Delta":128001480},{"NoteNumber":68,"Velocity":67,"Duration":175097,"SoundDuration":175097,"Delta":128001480},{"NoteNumber":71,"Velocity":85,"Duration":175097,"SoundDuration":175097,"Delta":128001480},{"NoteNumber":69,"Velocity":72,"Duration":179282,"SoundDuration":179282,"Delta":128234943},{"NoteNumber":60,"Velocity":72,"Duration":179282,"SoundDuration":179282,"Delta":128234943},{"NoteNumber":72,"Velocity":93,"Duration":179282,"SoundDuration":179282,"Delta":128234943},{"NoteNumber":45,"Velocity":53,"Duration":485957,"SoundDuration":485957,"Delta":128234943},{"NoteNumber":53,"Velocity":66,"Duration":485957,"SoundDuration":485957,"Delta":128234943},{"NoteNumber":41,"Velocity":53,"Duration":485957,"SoundDuration":485957,"Delta":128234943},{"NoteNumber":62,"Velocity":66,"Duration":185185,"SoundDuration":185185,"Delta":128473987},{"NoteNumber":71,"Velocity":66,"Duration":185185,"SoundDuration":185185,"Delta":128473987},{"NoteNumber":74,"Velocity":83,"Duration":185185,"SoundDuration":185185,"Delta":128473987},{"NoteNumber":76,"Velocity":93,"Duration":493826,"SoundDuration":493826,"Delta":128720901},{"NoteNumber":64,"Velocity":72,"Duration":493826,"SoundDuration":493826,"Delta":128720901},{"NoteNumber":72,"Velocity":72,"Duration":493826,"SoundDuration":493826,"Delta":128720901},{"NoteNumber":44,"Velocity":53,"Duration":493826,"SoundDuration":493826,"Delta":128720901},{"NoteNumber":52,"Velocity":66,"Duration":493826,"SoundDuration":493826,"Delta":128720901},{"NoteNumber":40,"Velocity":53,"Duration":493826,"SoundDuration":493826,"Delta":128720901},{"NoteNumber":59,"Velocity":68,"Duration":370370,"SoundDuration":370370,"Delta":129214728},{"NoteNumber":64,"Velocity":68,"Duration":370370,"SoundDuration":370370,"Delta":129214728},{"NoteNumber":71,"Velocity":88,"Duration":370370,"SoundDuration":370370,"Delta":129214728},{"NoteNumber":40,"Velocity":52,"Duration":493827,"SoundDuration":493827,"Delta":129214728},{"NoteNumber":52,"Velocity":67,"Duration":493827,"SoundDuration":493827,"Delta":129214728},{"NoteNumber":47,"Velocity":67,"Duration":370370,"SoundDuration":370370,"Delta":129214728},{"NoteNumber":60,"Velocity":63,"Duration":123456,"SoundDuration":123456,"Delta":129585098},{"NoteNumber":72,"Velocity":81,"Duration":123456,"SoundDuration":123456,"Delta":129585098},{"NoteNumber":48,"Velocity":58,"Duration":123456,"SoundDuration":123456,"Delta":129585098},{"NoteNumber":64,"Velocity":68,"Duration":1012657,"SoundDuration":1012657,"Delta":129708555},{"NoteNumber":59,"Velocity":68,"Duration":1012657,"SoundDuration":1012657,"Delta":129708555},{"NoteNumber":71,"Velocity":88,"Duration":1012657,"SoundDuration":1012657,"Delta":129708555},{"NoteNumber":40,"Velocity":52,"Duration":1012657,"SoundDuration":1012657,"Delta":129708555},{"NoteNumber":47,"Velocity":52,"Duration":1012657,"SoundDuration":1012657,"Delta":129708555},{"NoteNumber":52,"Velocity":67,"Duration":1012657,"SoundDuration":1012657,"Delta":129708555},{"NoteNumber":57,"Velocity":63,"Duration":506329,"SoundDuration":506329,"Delta":130721213},{"NoteNumber":69,"Velocity":81,"Duration":506329,"SoundDuration":506329,"Delta":130721213},{"NoteNumber":33,"Velocity":49,"Duration":506329,"SoundDuration":506329,"Delta":130721213},{"NoteNumber":45,"Velocity":62,"Duration":506329,"SoundDuration":506329,"Delta":130721213},{"NoteNumber":71,"Velocity":68,"Duration":103448,"SoundDuration":103448,"Delta":131334685},{"NoteNumber":72,"Velocity":69,"Duration":103448,"SoundDuration":103448,"Delta":131438133},{"NoteNumber":74,"Velocity":66,"Duration":103448,"SoundDuration":103448,"Delta":131541581},{"NoteNumber":76,"Velocity":76,"Duration":101010,"SoundDuration":101010,"Delta":131645029},{"NoteNumber":72,"Velocity":64,"Duration":101010,"SoundDuration":101010,"Delta":131746039},{"NoteNumber":69,"Velocity":64,"Duration":173076,"SoundDuration":173076,"Delta":131847049},{"NoteNumber":64,"Velocity":46,"Duration":418561,"SoundDuration":418561,"Delta":132077818},{"NoteNumber":60,"Velocity":38,"Duration":418561,"SoundDuration":418561,"Delta":132077818},{"NoteNumber":57,"Velocity":38,"Duration":418561,"SoundDuration":418561,"Delta":132077818},{"NoteNumber":76,"Velocity":70,"Duration":103806,"SoundDuration":103806,"Delta":132184961},{"NoteNumber":72,"Velocity":69,"Duration":103806,"SoundDuration":103806,"Delta":132288767},{"NoteNumber":69,"Velocity":69,"Duration":103806,"SoundDuration":103806,"Delta":132392574},{"NoteNumber":77,"Velocity":76,"Duration":101010,"SoundDuration":101010,"Delta":132496380},{"NoteNumber":74,"Velocity":64,"Duration":101010,"SoundDuration":101010,"Delta":132597390},{"NoteNumber":69,"Velocity":64,"Duration":172413,"SoundDuration":172413,"Delta":132698400},{"NoteNumber":57,"Velocity":38,"Duration":417969,"SoundDuration":417969,"Delta":132928285},{"NoteNumber":62,"Velocity":38,"Duration":417969,"SoundDuration":417969,"Delta":132928285},{"NoteNumber":65,"Velocity":46,"Duration":417969,"SoundDuration":417969,"Delta":132928285},{"NoteNumber":77,"Velocity":68,"Duration":103448,"SoundDuration":103448,"Delta":133035428},{"NoteNumber":74,"Velocity":68,"Duration":103448,"SoundDuration":103448,"Delta":133138876},{"NoteNumber":69,"Velocity":68,"Duration":103930,"SoundDuration":103930,"Delta":133242324},{"NoteNumber":74,"Velocity":76,"Duration":101351,"SoundDuration":101351,"Delta":133346255},{"NoteNumber":71,"Velocity":64,"Duration":101351,"SoundDuration":101351,"Delta":133447606},{"NoteNumber":68,"Velocity":64,"Duration":173076,"SoundDuration":173076,"Delta":133548957},{"NoteNumber":62,"Velocity":48,"Duration":419643,"SoundDuration":419643,"Delta":133779726},{"NoteNumber":59,"Velocity":39,"Duration":419643,"SoundDuration":419643,"Delta":133779726},{"NoteNumber":57,"Velocity":39,"Duration":419643,"SoundDuration":419643,"Delta":133779726},{"NoteNumber":74,"Velocity":64,"Duration":104166,"SoundDuration":104166,"Delta":133886869},{"NoteNumber":71,"Velocity":64,"Duration":104166,"SoundDuration":104166,"Delta":133991036},{"NoteNumber":68,"Velocity":64,"Duration":104166,"SoundDuration":104166,"Delta":134095202},{"NoteNumber":76,"Velocity":75,"Duration":101010,"SoundDuration":101010,"Delta":134199369},{"NoteNumber":72,"Velocity":62,"Duration":101010,"SoundDuration":101010,"Delta":134300379},{"NoteNumber":69,"Velocity":63,"Duration":171755,"SoundDuration":171755,"Delta":134401389},{"NoteNumber":64,"Velocity":38,"Duration":418561,"SoundDuration":418561,"Delta":134630397},{"NoteNumber":60,"Velocity":33,"Duration":418561,"SoundDuration":418561,"Delta":134630397},{"NoteNumber":57,"Velocity":33,"Duration":418561,"SoundDuration":418561,"Delta":134630397},{"NoteNumber":71,"Velocity":47,"Duration":103806,"SoundDuration":103806,"Delta":134737539},{"NoteNumber":72,"Velocity":47,"Duration":103806,"SoundDuration":103806,"Delta":134841346},{"NoteNumber":74,"Velocity":48,"Duration":103806,"SoundDuration":103806,"Delta":134945152},{"NoteNumber":76,"Velocity":57,"Duration":101010,"SoundDuration":101010,"Delta":135048958},{"NoteNumber":73,"Velocity":46,"Duration":101010,"SoundDuration":101010,"Delta":135149968},{"NoteNumber":69,"Velocity":46,"Duration":172413,"SoundDuration":172413,"Delta":135250978},{"NoteNumber":67,"Velocity":37,"Duration":418561,"SoundDuration":418561,"Delta":135480863},{"NoteNumber":64,"Velocity":32,"Duration":418561,"SoundDuration":418561,"Delta":135480863},{"NoteNumber":57,"Velocity":32,"Duration":418561,"SoundDuration":418561,"Delta":135480863},{"NoteNumber":76,"Velocity":44,"Duration":103806,"SoundDuration":103806,"Delta":135588006},{"NoteNumber":73,"Velocity":44,"Duration":103806,"SoundDuration":103806,"Delta":135691812},{"NoteNumber":69,"Velocity":44,"Duration":103806,"SoundDuration":103806,"Delta":135795618},{"NoteNumber":77,"Velocity":52,"Duration":101351,"SoundDuration":101351,"Delta":135899425},{"NoteNumber":74,"Velocity":42,"Duration":101351,"SoundDuration":101351,"Delta":136000776},{"NoteNumber":69,"Velocity":42,"Duration":171755,"SoundDuration":171755,"Delta":136102127},{"NoteNumber":57,"Velocity":28,"Duration":418561,"SoundDuration":418561,"Delta":136331135},{"NoteNumber":62,"Velocity":28,"Duration":418561,"SoundDuration":418561,"Delta":136331135},{"NoteNumber":65,"Velocity":36,"Duration":418561,"SoundDuration":418561,"Delta":136331135},{"NoteNumber":77,"Velocity":44,"Duration":103806,"SoundDuration":103806,"Delta":136438277},{"NoteNumber":74,"Velocity":44,"Duration":103806,"SoundDuration":103806,"Delta":136542084},{"NoteNumber":69,"Velocity":44,"Duration":103806,"SoundDuration":103806,"Delta":136645890},{"NoteNumber":74,"Velocity":50,"Duration":101010,"SoundDuration":101010,"Delta":136749696},{"NoteNumber":71,"Velocity":42,"Duration":101010,"SoundDuration":101010,"Delta":136850706},{"NoteNumber":68,"Velocity":42,"Duration":171755,"SoundDuration":171755,"Delta":136951716},{"NoteNumber":62,"Velocity":27,"Duration":418561,"SoundDuration":418561,"Delta":137180724},{"NoteNumber":65,"Velocity":33,"Duration":418561,"SoundDuration":418561,"Delta":137180724},{"NoteNumber":59,"Velocity":27,"Duration":418561,"SoundDuration":418561,"Delta":137180724},{"NoteNumber":57,"Velocity":27,"Duration":418561,"SoundDuration":418561,"Delta":137180724},{"NoteNumber":74,"Velocity":43,"Duration":103806,"SoundDuration":103806,"Delta":137287866},{"NoteNumber":71,"Velocity":43,"Duration":103806,"SoundDuration":103806,"Delta":137391673},{"NoteNumber":68,"Velocity":43,"Duration":103806,"SoundDuration":103806,"Delta":137495479},{"NoteNumber":76,"Velocity":49,"Duration":102040,"SoundDuration":102040,"Delta":137599285},{"NoteNumber":72,"Velocity":41,"Duration":102040,"SoundDuration":102040,"Delta":137701326},{"NoteNumber":69,"Velocity":41,"Duration":165440,"SoundDuration":165440,"Delta":137803367},{"NoteNumber":60,"Velocity":26,"Duration":165440,"SoundDuration":165440,"Delta":137803367},{"NoteNumber":57,"Velocity":26,"Duration":165440,"SoundDuration":165440,"Delta":137803367},{"NoteNumber":64,"Velocity":35,"Duration":165440,"SoundDuration":165440,"Delta":137803367},{"NoteNumber":65,"Velocity":34,"Duration":419643,"SoundDuration":419643,"Delta":138023955},{"NoteNumber":62,"Velocity":26,"Duration":419643,"SoundDuration":419643,"Delta":138023955},{"NoteNumber":57,"Velocity":26,"Duration":419643,"SoundDuration":419643,"Delta":138023955},{"NoteNumber":74,"Velocity":43,"Duration":104166,"SoundDuration":104166,"Delta":138131097},{"NoteNumber":71,"Velocity":43,"Duration":104166,"SoundDuration":104166,"Delta":138235264},{"NoteNumber":68,"Velocity":43,"Duration":104166,"SoundDuration":104166,"Delta":138339431},{"NoteNumber":76,"Velocity":52,"Duration":102739,"SoundDuration":102739,"Delta":138443598},{"NoteNumber":72,"Velocity":43,"Duration":102739,"SoundDuration":102739,"Delta":138546337},{"NoteNumber":69,"Velocity":43,"Duration":165440,"SoundDuration":165440,"Delta":138649077},{"NoteNumber":57,"Velocity":28,"Duration":165440,"SoundDuration":165440,"Delta":138649077},{"NoteNumber":60,"Velocity":28,"Duration":165440,"SoundDuration":165440,"Delta":138649077},{"NoteNumber":64,"Velocity":37,"Duration":165440,"SoundDuration":165440,"Delta":138649077},{"NoteNumber":65,"Velocity":34,"Duration":417425,"SoundDuration":417425,"Delta":138869665},{"NoteNumber":62,"Velocity":27,"Duration":417425,"SoundDuration":417425,"Delta":138869665},{"NoteNumber":57,"Velocity":27,"Duration":417425,"SoundDuration":417425,"Delta":138869665},{"NoteNumber":74,"Velocity":39,"Duration":103806,"SoundDuration":103806,"Delta":138975672},{"NoteNumber":71,"Velocity":39,"Duration":103806,"SoundDuration":103806,"Delta":139079478},{"NoteNumber":68,"Velocity":39,"Duration":103806,"SoundDuration":103806,"Delta":139183285},{"NoteNumber":76,"Velocity":47,"Duration":102739,"SoundDuration":102739,"Delta":139287091},{"NoteNumber":57,"Velocity":27,"Duration":1250336,"SoundDuration":1250336,"Delta":139287091},{"NoteNumber":64,"Velocity":34,"Duration":419002,"SoundDuration":419002,"Delta":139287091},{"NoteNumber":60,"Velocity":27,"Duration":419002,"SoundDuration":419002,"Delta":139287091},{"NoteNumber":72,"Velocity":39,"Duration":102739,"SoundDuration":102739,"Delta":139389831},{"NoteNumber":69,"Velocity":38,"Duration":106761,"SoundDuration":106761,"Delta":139492570},{"NoteNumber":74,"Velocity":38,"Duration":106761,"SoundDuration":106761,"Delta":139599332},{"NoteNumber":71,"Velocity":38,"Duration":106007,"SoundDuration":106007,"Delta":139706093},{"NoteNumber":62,"Velocity":25,"Duration":416792,"SoundDuration":416792,"Delta":139706093},{"NoteNumber":65,"Velocity":31,"Duration":416792,"SoundDuration":416792,"Delta":139706093},{"NoteNumber":68,"Velocity":38,"Duration":106007,"SoundDuration":106007,"Delta":139812100},{"NoteNumber":76,"Velocity":46,"Duration":102388,"SoundDuration":102388,"Delta":139918107},{"NoteNumber":72,"Velocity":41,"Duration":102389,"SoundDuration":102389,"Delta":140020496},{"NoteNumber":69,"Velocity":38,"Duration":105263,"SoundDuration":105263,"Delta":140122885},{"NoteNumber":64,"Velocity":32,"Duration":208356,"SoundDuration":208356,"Delta":140122885},{"NoteNumber":60,"Velocity":25,"Duration":208356,"SoundDuration":208356,"Delta":140122885},{"NoteNumber":74,"Velocity":38,"Duration":103092,"SoundDuration":103092,"Delta":140228149},{"NoteNumber":71,"Velocity":38,"Duration":103092,"SoundDuration":103092,"Delta":140331241},{"NoteNumber":62,"Velocity":25,"Duration":206185,"SoundDuration":206185,"Delta":140331241},{"NoteNumber":65,"Velocity":32,"Duration":206185,"SoundDuration":206185,"Delta":140331241},{"NoteNumber":68,"Velocity":38,"Duration":103092,"SoundDuration":103092,"Delta":140434334},{"NoteNumber":76,"Velocity":45,"Duration":102388,"SoundDuration":102388,"Delta":140537427},{"NoteNumber":64,"Velocity":33,"Duration":416792,"SoundDuration":416792,"Delta":140537427},{"NoteNumber":60,"Velocity":27,"Duration":416792,"SoundDuration":416792,"Delta":140537427},{"NoteNumber":57,"Velocity":33,"Duration":1255338,"SoundDuration":1255338,"Delta":140537427},{"NoteNumber":72,"Velocity":38,"Duration":102389,"SoundDuration":102389,"Delta":140639816},{"NoteNumber":69,"Velocity":38,"Duration":106007,"SoundDuration":106007,"Delta":140742205},{"NoteNumber":74,"Velocity":38,"Duration":106007,"SoundDuration":106007,"Delta":140848212},{"NoteNumber":71,"Velocity":38,"Duration":106006,"SoundDuration":106006,"Delta":140954219},{"NoteNumber":62,"Velocity":24,"Duration":417493,"SoundDuration":417493,"Delta":140954219},{"NoteNumber":65,"Velocity":29,"Duration":417493,"SoundDuration":417493,"Delta":140954219},{"NoteNumber":68,"Velocity":37,"Duration":106007,"SoundDuration":106007,"Delta":141060226},{"NoteNumber":76,"Velocity":44,"Duration":102739,"SoundDuration":102739,"Delta":141166233},{"NoteNumber":72,"Velocity":37,"Duration":102739,"SoundDuration":102739,"Delta":141268973},{"NoteNumber":69,"Velocity":37,"Duration":105263,"SoundDuration":105263,"Delta":141371712},{"NoteNumber":60,"Velocity":24,"Duration":210526,"SoundDuration":210526,"Delta":141371712},{"NoteNumber":64,"Velocity":28,"Duration":210526,"SoundDuration":210526,"Delta":141371712},{"NoteNumber":74,"Velocity":37,"Duration":105263,"SoundDuration":105263,"Delta":141476976},{"NoteNumber":71,"Velocity":37,"Duration":105263,"SoundDuration":105263,"Delta":141582239},{"NoteNumber":62,"Velocity":24,"Duration":210526,"SoundDuration":210526,"Delta":141582239},{"NoteNumber":65,"Velocity":28,"Duration":210526,"SoundDuration":210526,"Delta":141582239},{"NoteNumber":68,"Velocity":37,"Duration":105263,"SoundDuration":105263,"Delta":141687502},{"NoteNumber":76,"Velocity":41,"Duration":107913,"SoundDuration":107913,"Delta":141792765},{"NoteNumber":64,"Velocity":32,"Duration":5920560,"SoundDuration":5920560,"Delta":141792765},{"NoteNumber":60,"Velocity":25,"Duration":5920560,"SoundDuration":5920560,"Delta":141792765},{"NoteNumber":57,"Velocity":25,"Duration":5920560,"SoundDuration":5920560,"Delta":141792765},{"NoteNumber":72,"Velocity":35,"Duration":107913,"SoundDuration":107913,"Delta":141900679},{"NoteNumber":69,"Velocity":35,"Duration":107913,"SoundDuration":107913,"Delta":142008593},{"NoteNumber":76,"Velocity":35,"Duration":107913,"SoundDuration":107913,"Delta":142116507},{"NoteNumber":72,"Velocity":35,"Duration":106382,"SoundDuration":106382,"Delta":142224420},{"NoteNumber":69,"Velocity":34,"Duration":106509,"SoundDuration":106509,"Delta":142330803},{"NoteNumber":76,"Velocity":42,"Duration":106761,"SoundDuration":106761,"Delta":142437313},{"NoteNumber":72,"Velocity":35,"Duration":107015,"SoundDuration":107015,"Delta":142544074},{"NoteNumber":69,"Velocity":35,"Duration":107142,"SoundDuration":107142,"Delta":142651090},{"NoteNumber":76,"Velocity":35,"Duration":107527,"SoundDuration":107527,"Delta":142758233},{"NoteNumber":72,"Velocity":36,"Duration":107655,"SoundDuration":107655,"Delta":142865760},{"NoteNumber":69,"Velocity":36,"Duration":107913,"SoundDuration":107913,"Delta":142973415},{"NoteNumber":76,"Velocity":41,"Duration":108173,"SoundDuration":108173,"Delta":143081329},{"NoteNumber":72,"Velocity":36,"Duration":108303,"SoundDuration":108303,"Delta":143189503},{"NoteNumber":69,"Velocity":36,"Duration":108695,"SoundDuration":108695,"Delta":143297806},{"NoteNumber":76,"Velocity":36,"Duration":108827,"SoundDuration":108827,"Delta":143406502},{"NoteNumber":72,"Velocity":36,"Duration":109488,"SoundDuration":109488,"Delta":143515329},{"NoteNumber":69,"Velocity":34,"Duration":110024,"SoundDuration":110024,"Delta":143624818},{"NoteNumber":76,"Velocity":39,"Duration":110565,"SoundDuration":110565,"Delta":143734843},{"NoteNumber":72,"Velocity":33,"Duration":111248,"SoundDuration":111248,"Delta":143845408},{"NoteNumber":69,"Velocity":33,"Duration":111662,"SoundDuration":111662,"Delta":143956657},{"NoteNumber":76,"Velocity":33,"Duration":112219,"SoundDuration":112219,"Delta":144068320},{"NoteNumber":72,"Velocity":33,"Duration":112923,"SoundDuration":112923,"Delta":144180540},{"NoteNumber":69,"Velocity":33,"Duration":113493,"SoundDuration":113493,"Delta":144293463},{"NoteNumber":76,"Velocity":38,"Duration":945621,"SoundDuration":945621,"Delta":144406957},{"NoteNumber":33,"Velocity":25,"Duration":3306369,"SoundDuration":3306369,"Delta":144406957},{"NoteNumber":45,"Velocity":31,"Duration":3306369,"SoundDuration":3306369,"Delta":144406957},{"NoteNumber":72,"Velocity":35,"Duration":560747,"SoundDuration":560747,"Delta":145352578},{"NoteNumber":69,"Velocity":35,"Duration":1800000,"SoundDuration":1800000,"Delta":145913326}]}