{"title":"Wandererfantasie D760, 1. Satz","artist":"Piano","durationMs":351396,"midiSha256":"3d97ba272d646fc44cd93b860a515e1d3dd74dfd65686fe8ae52c209ed75a5ef","midiObject":[{"NoteNumber":52,"Velocity":74,"Duration":412342,"SoundDuration":412342,"Delta":0},{"NoteNumber":55,"Velocity":74,"Duration":412342,"SoundDuration":412342,"Delta":0},{"NoteNumber":60,"Velocity":74,"Duration":412342,"SoundDuration":412342,"Delta":0},{"NoteNumber":64,"Velocity":88,"Duration":412342,"SoundDuration":412342,"Delta":0},{"NoteNumber":36,"Velocity":55,"Duration":412342,"SoundDuration":412342,"Delta":0},{"NoteNumber":43,"Velocity":55,"Duration":412342,"SoundDuration":412342,"Delta":0},{"NoteNumber":48,"Velocity":64,"Duration":412342,"SoundDuration":412342,"Delta":0},{"NoteNumber":52,"Velocity":70,"Duration":100563,"SoundDuration":100563,"Delta":412342},{"NoteNumber":55,"Velocity":70,"Duration":100563,"SoundDuration":100563,"Delta":412342},{"NoteNumber":60,"Velocity":70,"Duration":100563,"SoundDuration":100563,"Delta":412342},{"NoteNumber":64,"Velocity":83,"Duration":100563,"SoundDuration":100563,"Delta":412342},{"NoteNumber":36,"Velocity":49,"Duration":100563,"SoundDuration":100563,"Delta":412342},{"NoteNumber":43,"Velocity":49,"Duration":100563,"SoundDuration":100563,"Delta":412342},{"NoteNumber":48,"Velocity":59,"Duration":100563,"SoundDuration":100563,"Delta":412342},{"NoteNumber":52,"Velocity":70,"Duration":100563,"SoundDuration":100563,"Delta":613469},{"NoteNumber":55,"Velocity":70,"Duration":100563,"SoundDuration":100563,"Delta":613469},{"NoteNumber":60,"Velocity":70,"Duration":100563,"SoundDuration":100563,"Delta":613469},{"NoteNumber":64,"Velocity":83,"Duration":100563,"SoundDuration":100563,"Delta":613469},{"NoteNumber":36,"Velocity":49,"Duration":100563,"SoundDuration":100563,"Delta":613469},{"NoteNumber":43,"Velocity":49,"Duration":100563,"SoundDuration":100563,"Delta":613469},{"NoteNumber":48,"Velocity":59,"Duration":100563,"SoundDuration":100563,"Delta":613469},{"NoteNumber":52,"Velocity":74,"Duration":412343,"SoundDuration":412343,"Delta":814596},{"NoteNumber":55,"Velocity":74,"Duration":412343,"SoundDuration":412343,"Delta":814596},{"NoteNumber":60,"Velocity":74,"Duration":412343,"SoundDuration":412343,"Delta":814596},{"NoteNumber":64,"Velocity":88,"Duration":412343,"SoundDuration":412343,"Delta":814596},{"NoteNumber":36,"Velocity":56,"Duration":412343,"SoundDuration":412343,"Delta":814596},{"NoteNumber":43,"Velocity":56,"Duration":412343,"SoundDuration":412343,"Delta":814596},{"NoteNumber":48,"Velocity":66,"Duration":412343,"SoundDuration":412343,"Delta":814596},{"NoteNumber":52,"Velocity":69,"Duration":100563,"SoundDuration":100563,"Delta":1226939},{"NoteNumber":55,"Velocity":69,"Duration":100563,"SoundDuration":100563,"Delta":1226939},{"NoteNumber":60,"Velocity":69,"Duration":100563,"SoundDuration":100563,"Delta":1226939},{"NoteNumber":64,"Velocity":82,"Duration":100563,"SoundDuration":100563,"Delta":1226939},{"NoteNumber":36,"Velocity":50,"Duration":100563,"SoundDuration":100563,"Delta":1226939},{"NoteNumber":43,"Velocity":50,"Duration":100563,"SoundDuration":100563,"Delta":1226939},{"NoteNumber":48,"Velocity":60,"Duration":100563,"SoundDuration":100563,"Delta":1226939},{"NoteNumber":52,"Velocity":69,"Duration":100563,"SoundDuration":100563,"Delta":1428065},{"NoteNumber":55,"Velocity":69,"Duration":100563,"SoundDuration":100563,"Delta":1428065},{"NoteNumber":60,"Velocity":69,"Duration":100563,"SoundDuration":100563,"Delta":1428065},{"NoteNumber":64,"Velocity":82,"Duration":100563,"SoundDuration":100563,"Delta":1428065},{"NoteNumber":36,"Velocity":50,"Duration":100563,"SoundDuration":100563,"Delta":1428065},{"NoteNumber":43,"Velocity":50,"Duration":100563,"SoundDuration":100563,"Delta":1428065},{"NoteNumber":48,"Velocity":60,"Duration":100563,"SoundDuration":100563,"Delta":1428065},{"NoteNumber":52,"Velocity":74,"Duration":205437,"SoundDuration":205437,"Delta":1629192},{"NoteNumber":55,"Velocity":74,"Duration":205437,"SoundDuration":205437,"Delta":1629192},{"NoteNumber":60,"Velocity":74,"Duration":205437,"SoundDuration":205437,"Delta":1629192},{"NoteNumber":64,"Velocity":88,"Duration":205437,"SoundDuration":205437,"Delta":1629192},{"NoteNumber":36,"Velocity":56,"Duration":205437,"SoundDuration":205437,"Delta":1629192},{"NoteNumber":43,"Velocity":56,"Duration":205437,"SoundDuration":205437,"Delta":1629192},{"NoteNumber":48,"Velocity":66,"Duration":205437,"SoundDuration":205437,"Delta":1629192},{"NoteNumber":48,"Velocity":79,"Duration":102718,"SoundDuration":102718,"Delta":1834629},{"NoteNumber":52,"Velocity":81,"Duration":102597,"SoundDuration":102597,"Delta":1937347},{"NoteNumber":55,"Velocity":83,"Duration":102719,"SoundDuration":102719,"Delta":2039944},{"NoteNumber":60,"Velocity":85,"Duration":103582,"SoundDuration":103582,"Delta":2142664},{"NoteNumber":64,"Velocity":89,"Duration":104461,"SoundDuration":104461,"Delta":2246246},{"NoteNumber":67,"Velocity":91,"Duration":104588,"SoundDuration":104588,"Delta":2350708},{"NoteNumber":59,"Velocity":88,"Duration":418351,"SoundDuration":418351,"Delta":2455296},{"NoteNumber":71,"Velocity":88,"Duration":418351,"SoundDuration":418351,"Delta":2455296},{"NoteNumber":60,"Velocity":70,"Duration":104588,"SoundDuration":104588,"Delta":2873648},{"NoteNumber":72,"Velocity":84,"Duration":104588,"SoundDuration":104588,"Delta":2873648},{"NoteNumber":60,"Velocity":70,"Duration":104587,"SoundDuration":104587,"Delta":3082824},{"NoteNumber":72,"Velocity":84,"Duration":104587,"SoundDuration":104587,"Delta":3082824},{"NoteNumber":65,"Velocity":76,"Duration":218977,"SoundDuration":218977,"Delta":3292000},{"NoteNumber":67,"Velocity":76,"Duration":218977,"SoundDuration":218977,"Delta":3292000},{"NoteNumber":71,"Velocity":91,"Duration":218977,"SoundDuration":218977,"Delta":3292000},{"NoteNumber":73,"Velocity":91,"Duration":218977,"SoundDuration":218977,"Delta":3292000},{"NoteNumber":31,"Velocity":57,"Duration":218977,"SoundDuration":218977,"Delta":3292000},{"NoteNumber":43,"Velocity":68,"Duration":218977,"SoundDuration":218977,"Delta":3292000},{"NoteNumber":67,"Velocity":71,"Duration":218977,"SoundDuration":218977,"Delta":3729956},{"NoteNumber":65,"Velocity":71,"Duration":218977,"SoundDuration":218977,"Delta":3729956},{"NoteNumber":71,"Velocity":85,"Duration":218977,"SoundDuration":218977,"Delta":3729956},{"NoteNumber":74,"Velocity":85,"Duration":218977,"SoundDuration":218977,"Delta":3729956},{"NoteNumber":43,"Velocity":57,"Duration":218977,"SoundDuration":218977,"Delta":3729956},{"NoteNumber":55,"Velocity":68,"Duration":218977,"SoundDuration":218977,"Delta":3729956},{"NoteNumber":53,"Velocity":64,"Duration":412342,"SoundDuration":412342,"Delta":5058986},{"NoteNumber":55,"Velocity":64,"Duration":412342,"SoundDuration":412342,"Delta":5058986},{"NoteNumber":59,"Velocity":64,"Duration":412342,"SoundDuration":412342,"Delta":5058986},{"NoteNumber":62,"Velocity":76,"Duration":412342,"SoundDuration":412342,"Delta":5058986},{"NoteNumber":31,"Velocity":47,"Duration":412342,"SoundDuration":412342,"Delta":5058986},{"NoteNumber":43,"Velocity":56,"Duration":412342,"SoundDuration":412342,"Delta":5058986},{"NoteNumber":53,"Velocity":60,"Duration":100563,"SoundDuration":100563,"Delta":5471329},{"NoteNumber":55,"Velocity":60,"Duration":100563,"SoundDuration":100563,"Delta":5471329},{"NoteNumber":59,"Velocity":60,"Duration":100563,"SoundDuration":100563,"Delta":5471329},{"NoteNumber":62,"Velocity":72,"Duration":100563,"SoundDuration":100563,"Delta":5471329},{"NoteNumber":31,"Velocity":42,"Duration":100563,"SoundDuration":100563,"Delta":5471329},{"NoteNumber":43,"Velocity":51,"Duration":100563,"SoundDuration":100563,"Delta":5471329},{"NoteNumber":53,"Velocity":60,"Duration":100563,"SoundDuration":100563,"Delta":5672456},{"NoteNumber":55,"Velocity":60,"Duration":100563,"SoundDuration":100563,"Delta":5672456},{"NoteNumber":59,"Velocity":60,"Duration":100563,"SoundDuration":100563,"Delta":5672456},{"NoteNumber":62,"Velocity":72,"Duration":100563,"SoundDuration":100563,"Delta":5672456},{"NoteNumber":31,"Velocity":42,"Duration":100563,"SoundDuration":100563,"Delta":5672456},{"NoteNumber":43,"Velocity":51,"Duration":100563,"SoundDuration":100563,"Delta":5672456},{"NoteNumber":53,"Velocity":64,"Duration":412342,"SoundDuration":412342,"Delta":5873582},{"NoteNumber":55,"Velocity":64,"Duration":412342,"SoundDuration":412342,"Delta":5873582},{"NoteNumber":59,"Velocity":64,"Duration":412342,"SoundDuration":412342,"Delta":5873582},{"NoteNumber":62,"Velocity":76,"Duration":412342,"SoundDuration":412342,"Delta":5873582},{"NoteNumber":31,"Velocity":48,"Duration":412342,"SoundDuration":412342,"Delta":5873582},{"NoteNumber":43,"Velocity":57,"Duration":412342,"SoundDuration":412342,"Delta":5873582},{"NoteNumber":53,"Velocity":59,"Duration":100563,"SoundDuration":100563,"Delta":6285925},{"NoteNumber":55,"Velocity":59,"Duration":100563,"SoundDuration":100563,"Delta":6285925},{"NoteNumber":59,"Velocity":59,"Duration":100563,"SoundDuration":100563,"Delta":6285925},{"NoteNumber":62,"Velocity":71,"Duration":100563,"SoundDuration":100563,"Delta":6285925},{"NoteNumber":31,"Velocity":43,"Duration":100563,"SoundDuration":100563,"Delta":6285925},{"NoteNumber":43,"Velocity":52,"Duration":100563,"SoundDuration":100563,"Delta":6285925},{"NoteNumber":53,"Velocity":59,"Duration":100563,"SoundDuration":100563,"Delta":6487052},{"NoteNumber":55,"Velocity":59,"Duration":100563,"SoundDuration":100563,"Delta":6487052},{"NoteNumber":59,"Velocity":59,"Duration":100563,"SoundDuration":100563,"Delta":6487052},{"NoteNumber":62,"Velocity":71,"Duration":100563,"SoundDuration":100563,"Delta":6487052},{"NoteNumber":31,"Velocity":43,"Duration":100563,"SoundDuration":100563,"Delta":6487052},{"NoteNumber":43,"Velocity":52,"Duration":100563,"SoundDuration":100563,"Delta":6487052},{"NoteNumber":53,"Velocity":64,"Duration":205436,"SoundDuration":205436,"Delta":6688178},{"NoteNumber":55,"Velocity":64,"Duration":205436,"SoundDuration":205436,"Delta":6688178},{"NoteNumber":59,"Velocity":64,"Duration":205436,"SoundDuration":205436,"Delta":6688178},{"NoteNumber":62,"Velocity":76,"Duration":205436,"SoundDuration":205436,"Delta":6688178},{"NoteNumber":31,"Velocity":48,"Duration":205436,"SoundDuration":205436,"Delta":6688178},{"NoteNumber":43,"Velocity":57,"Duration":205436,"SoundDuration":205436,"Delta":6688178},{"NoteNumber":55,"Velocity":68,"Duration":102718,"SoundDuration":102718,"Delta":6893615},{"NoteNumber":59,"Velocity":70,"Duration":102597,"SoundDuration":102597,"Delta":6996334},{"NoteNumber":62,"Velocity":72,"Duration":102719,"SoundDuration":102719,"Delta":7098931},{"NoteNumber":65,"Velocity":74,"Duration":103581,"SoundDuration":103581,"Delta":7201650},{"NoteNumber":67,"Velocity":76,"Duration":104461,"SoundDuration":104461,"Delta":7305232},{"NoteNumber":71,"Velocity":78,"Duration":104587,"SoundDuration":104587,"Delta":7409694},{"NoteNumber":61,"Velocity":88,"Duration":418352,"SoundDuration":418352,"Delta":7514282},{"NoteNumber":73,"Velocity":88,"Duration":418352,"SoundDuration":418352,"Delta":7514282},{"NoteNumber":62,"Velocity":70,"Duration":104587,"SoundDuration":104587,"Delta":7932634},{"NoteNumber":74,"Velocity":83,"Duration":104587,"SoundDuration":104587,"Delta":7932634},{"NoteNumber":62,"Velocity":70,"Duration":104587,"SoundDuration":104587,"Delta":8141810},{"NoteNumber":74,"Velocity":83,"Duration":104587,"SoundDuration":104587,"Delta":8141810},{"NoteNumber":63,"Velocity":77,"Duration":218977,"SoundDuration":218977,"Delta":8350986},{"NoteNumber":67,"Velocity":77,"Duration":218977,"SoundDuration":218977,"Delta":8350986},{"NoteNumber":72,"Velocity":91,"Duration":218977,"SoundDuration":218977,"Delta":8350986},{"NoteNumber":75,"Velocity":91,"Duration":218977,"SoundDuration":218977,"Delta":8350986},{"NoteNumber":43,"Velocity":52,"Duration":218977,"SoundDuration":218977,"Delta":8350986},{"NoteNumber":36,"Velocity":52,"Duration":218977,"SoundDuration":218977,"Delta":8350986},{"NoteNumber":48,"Velocity":62,"Duration":218977,"SoundDuration":218977,"Delta":8350986},{"NoteNumber":67,"Velocity":71,"Duration":218977,"SoundDuration":218977,"Delta":8788942},{"NoteNumber":64,"Velocity":71,"Duration":218977,"SoundDuration":218977,"Delta":8788942},{"NoteNumber":72,"Velocity":84,"Duration":218977,"SoundDuration":218977,"Delta":8788942},{"NoteNumber":76,"Velocity":84,"Duration":218977,"SoundDuration":218977,"Delta":8788942},{"NoteNumber":55,"Velocity":50,"Duration":218977,"SoundDuration":218977,"Delta":8788942},{"NoteNumber":48,"Velocity":50,"Duration":218977,"SoundDuration":218977,"Delta":8788942},{"NoteNumber":60,"Velocity":60,"Duration":218977,"SoundDuration":218977,"Delta":8788942},{"NoteNumber":55,"Velocity":64,"Duration":101351,"SoundDuration":101351,"Delta":9445744},{"NoteNumber":60,"Velocity":66,"Duration":101351,"SoundDuration":101351,"Delta":9547095},{"NoteNumber":64,"Velocity":68,"Duration":98039,"SoundDuration":98039,"Delta":9648446},{"NoteNumber":67,"Velocity":70,"Duration":98039,"SoundDuration":98039,"Delta":9746485},{"NoteNumber":72,"Velocity":72,"Duration":98039,"SoundDuration":98039,"Delta":9844525},{"NoteNumber":76,"Velocity":74,"Duration":98039,"SoundDuration":98039,"Delta":9942564},{"NoteNumber":67,"Velocity":66,"Duration":413793,"SoundDuration":413793,"Delta":10040603},{"NoteNumber":76,"Velocity":66,"Duration":413793,"SoundDuration":413793,"Delta":10040603},{"NoteNumber":79,"Velocity":78,"Duration":413793,"SoundDuration":413793,"Delta":10040603},{"NoteNumber":36,"Velocity":50,"Duration":817833,"SoundDuration":817833,"Delta":10040603},{"NoteNumber":48,"Velocity":60,"Duration":817833,"SoundDuration":817833,"Delta":10040603},{"NoteNumber":67,"Velocity":58,"Duration":191919,"SoundDuration":191919,"Delta":10454396},{"NoteNumber":76,"Velocity":58,"Duration":191919,"SoundDuration":191919,"Delta":10454396},{"NoteNumber":79,"Velocity":70,"Duration":191919,"SoundDuration":191919,"Delta":10454396},{"NoteNumber":67,"Velocity":58,"Duration":191919,"SoundDuration":191919,"Delta":10656416},{"NoteNumber":76,"Velocity":58,"Duration":191919,"SoundDuration":191919,"Delta":10656416},{"NoteNumber":79,"Velocity":70,"Duration":191919,"SoundDuration":191919,"Delta":10656416},{"NoteNumber":67,"Velocity":65,"Duration":629607,"SoundDuration":629607,"Delta":10858436},{"NoteNumber":74,"Velocity":65,"Duration":629607,"SoundDuration":629607,"Delta":10858436},{"NoteNumber":79,"Velocity":78,"Duration":629607,"SoundDuration":629607,"Delta":10858436},{"NoteNumber":35,"Velocity":44,"Duration":427587,"SoundDuration":427587,"Delta":10858436},{"NoteNumber":47,"Velocity":53,"Duration":427587,"SoundDuration":427587,"Delta":10858436},{"NoteNumber":47,"Velocity":57,"Duration":202019,"SoundDuration":202019,"Delta":11286024},{"NoteNumber":59,"Velocity":70,"Duration":202019,"SoundDuration":202019,"Delta":11286024},{"NoteNumber":67,"Velocity":67,"Duration":202020,"SoundDuration":202020,"Delta":11488044},{"NoteNumber":74,"Velocity":67,"Duration":202020,"SoundDuration":202020,"Delta":11488044},{"NoteNumber":79,"Velocity":80,"Duration":202020,"SoundDuration":202020,"Delta":11488044},{"NoteNumber":47,"Velocity":53,"Duration":202020,"SoundDuration":202020,"Delta":11488044},{"NoteNumber":59,"Velocity":65,"Duration":202020,"SoundDuration":202020,"Delta":11488044},{"NoteNumber":72,"Velocity":74,"Duration":408075,"SoundDuration":408075,"Delta":11690064},{"NoteNumber":79,"Velocity":74,"Duration":408075,"SoundDuration":408075,"Delta":11690064},{"NoteNumber":84,"Velocity":88,"Duration":408075,"SoundDuration":408075,"Delta":11690064},{"NoteNumber":45,"Velocity":63,"Duration":408075,"SoundDuration":408075,"Delta":11690064},{"NoteNumber":57,"Velocity":72,"Duration":408075,"SoundDuration":408075,"Delta":11690064},{"NoteNumber":72,"Velocity":63,"Duration":195876,"SoundDuration":195876,"Delta":12102435},{"NoteNumber":78,"Velocity":63,"Duration":195876,"SoundDuration":195876,"Delta":12102435},{"NoteNumber":84,"Velocity":75,"Duration":195876,"SoundDuration":195876,"Delta":12102435},{"NoteNumber":38,"Velocity":50,"Duration":412371,"SoundDuration":412371,"Delta":12102435},{"NoteNumber":50,"Velocity":61,"Duration":412371,"SoundDuration":412371,"Delta":12102435},{"NoteNumber":72,"Velocity":61,"Duration":195876,"SoundDuration":195876,"Delta":12308620},{"NoteNumber":78,"Velocity":61,"Duration":195876,"SoundDuration":195876,"Delta":12308620},{"NoteNumber":84,"Velocity":73,"Duration":195876,"SoundDuration":195876,"Delta":12308620},{"NoteNumber":71,"Velocity":64,"Duration":213523,"SoundDuration":213523,"Delta":12514806},{"NoteNumber":79,"Velocity":64,"Duration":213523,"SoundDuration":213523,"Delta":12514806},{"NoteNumber":83,"Velocity":76,"Duration":213523,"SoundDuration":213523,"Delta":12514806},{"NoteNumber":43,"Velocity":48,"Duration":213523,"SoundDuration":213523,"Delta":12514806},{"NoteNumber":55,"Velocity":59,"Duration":211743,"SoundDuration":211743,"Delta":12514806},{"NoteNumber":55,"Velocity":64,"Duration":100671,"SoundDuration":100671,"Delta":12728329},{"NoteNumber":60,"Velocity":66,"Duration":100671,"SoundDuration":100671,"Delta":12829000},{"NoteNumber":64,"Velocity":68,"Duration":98039,"SoundDuration":98039,"Delta":12929671},{"NoteNumber":67,"Velocity":70,"Duration":98039,"SoundDuration":98039,"Delta":13027710},{"NoteNumber":72,"Velocity":72,"Duration":98039,"SoundDuration":98039,"Delta":13125750},{"NoteNumber":76,"Velocity":74,"Duration":98039,"SoundDuration":98039,"Delta":13223789},{"NoteNumber":67,"Velocity":66,"Duration":409482,"SoundDuration":409482,"Delta":13321828},{"NoteNumber":76,"Velocity":66,"Duration":409482,"SoundDuration":409482,"Delta":13321828},{"NoteNumber":79,"Velocity":78,"Duration":409482,"SoundDuration":409482,"Delta":13321828},{"NoteNumber":36,"Velocity":50,"Duration":817833,"SoundDuration":817833,"Delta":13321828},{"NoteNumber":48,"Velocity":60,"Duration":817833,"SoundDuration":817833,"Delta":13321828},{"NoteNumber":67,"Velocity":58,"Duration":202019,"SoundDuration":202019,"Delta":13735621},{"NoteNumber":76,"Velocity":58,"Duration":202019,"SoundDuration":202019,"Delta":13735621},{"NoteNumber":79,"Velocity":70,"Duration":202019,"SoundDuration":202019,"Delta":13735621},{"NoteNumber":67,"Velocity":58,"Duration":202020,"SoundDuration":202020,"Delta":13937641},{"NoteNumber":76,"Velocity":58,"Duration":202020,"SoundDuration":202020,"Delta":13937641},{"NoteNumber":79,"Velocity":70,"Duration":202020,"SoundDuration":202020,"Delta":13937641},{"NoteNumber":67,"Velocity":65,"Duration":629607,"SoundDuration":629607,"Delta":14139661},{"NoteNumber":74,"Velocity":65,"Duration":629607,"SoundDuration":629607,"Delta":14139661},{"NoteNumber":79,"Velocity":78,"Duration":629607,"SoundDuration":629607,"Delta":14139661},{"NoteNumber":35,"Velocity":44,"Duration":427587,"SoundDuration":427587,"Delta":14139661},{"NoteNumber":47,"Velocity":53,"Duration":427587,"SoundDuration":427587,"Delta":14139661},{"NoteNumber":47,"Velocity":55,"Duration":191919,"SoundDuration":191919,"Delta":14567249},{"NoteNumber":59,"Velocity":67,"Duration":191919,"SoundDuration":191919,"Delta":14567249},{"NoteNumber":67,"Velocity":67,"Duration":202020,"SoundDuration":202020,"Delta":14769269},{"NoteNumber":74,"Velocity":67,"Duration":202020,"SoundDuration":202020,"Delta":14769269},{"NoteNumber":79,"Velocity":80,"Duration":202020,"SoundDuration":202020,"Delta":14769269},{"NoteNumber":47,"Velocity":53,"Duration":191919,"SoundDuration":191919,"Delta":14769269},{"NoteNumber":59,"Velocity":65,"Duration":191919,"SoundDuration":191919,"Delta":14769269},{"NoteNumber":72,"Velocity":74,"Duration":408075,"SoundDuration":408075,"Delta":14971289},{"NoteNumber":79,"Velocity":74,"Duration":408075,"SoundDuration":408075,"Delta":14971289},{"NoteNumber":84,"Velocity":88,"Duration":408075,"SoundDuration":408075,"Delta":14971289},{"NoteNumber":45,"Velocity":63,"Duration":408075,"SoundDuration":408075,"Delta":14971289},{"NoteNumber":57,"Velocity":72,"Duration":408075,"SoundDuration":408075,"Delta":14971289},{"NoteNumber":72,"Velocity":63,"Duration":195876,"SoundDuration":195876,"Delta":15383660},{"NoteNumber":78,"Velocity":63,"Duration":195876,"SoundDuration":195876,"Delta":15383660},{"NoteNumber":84,"Velocity":75,"Duration":195876,"SoundDuration":195876,"Delta":15383660},{"NoteNumber":38,"Velocity":50,"Duration":412371,"SoundDuration":412371,"Delta":15383660},{"NoteNumber":50,"Velocity":61,"Duration":412371,"SoundDuration":412371,"Delta":15383660},{"NoteNumber":72,"Velocity":61,"Duration":195876,"SoundDuration":195876,"Delta":15589845},{"NoteNumber":78,"Velocity":61,"Duration":195876,"SoundDuration":195876,"Delta":15589845},{"NoteNumber":84,"Velocity":73,"Duration":195876,"SoundDuration":195876,"Delta":15589845},{"NoteNumber":71,"Velocity":64,"Duration":206185,"SoundDuration":206185,"Delta":15796031},{"NoteNumber":79,"Velocity":64,"Duration":206185,"SoundDuration":206185,"Delta":15796031},{"NoteNumber":83,"Velocity":76,"Duration":206185,"SoundDuration":206185,"Delta":15796031},{"NoteNumber":43,"Velocity":48,"Duration":206185,"SoundDuration":206185,"Delta":15796031},{"NoteNumber":55,"Velocity":59,"Duration":206185,"SoundDuration":206185,"Delta":15796031},{"NoteNumber":60,"Velocity":64,"Duration":100671,"SoundDuration":100671,"Delta":16002216},{"NoteNumber":65,"Velocity":66,"Duration":100671,"SoundDuration":100671,"Delta":16102887},{"NoteNumber":69,"Velocity":68,"Duration":98039,"SoundDuration":98039,"Delta":16203559},{"NoteNumber":72,"Velocity":70,"Duration":98039,"SoundDuration":98039,"Delta":16301598},{"NoteNumber":77,"Velocity":72,"Duration":98039,"SoundDuration":98039,"Delta":16399637},{"NoteNumber":81,"Velocity":74,"Duration":98039,"SoundDuration":98039,"Delta":16497676},{"NoteNumber":72,"Velocity":72,"Duration":409482,"SoundDuration":409482,"Delta":16595716},{"NoteNumber":81,"Velocity":72,"Duration":409482,"SoundDuration":409482,"Delta":16595716},{"NoteNumber":84,"Velocity":85,"Duration":409482,"SoundDuration":409482,"Delta":16595716},{"NoteNumber":41,"Velocity":50,"Duration":817832,"SoundDuration":817832,"Delta":16595716},{"NoteNumber":53,"Velocity":60,"Duration":817832,"SoundDuration":817832,"Delta":16595716},{"NoteNumber":72,"Velocity":63,"Duration":191918,"SoundDuration":191918,"Delta":17009509},{"NoteNumber":81,"Velocity":63,"Duration":191918,"SoundDuration":191918,"Delta":17009509},{"NoteNumber":84,"Velocity":77,"Duration":191918,"SoundDuration":191918,"Delta":17009509},{"NoteNumber":72,"Velocity":63,"Duration":191918,"SoundDuration":191918,"Delta":17211529},{"NoteNumber":81,"Velocity":63,"Duration":191918,"SoundDuration":191918,"Delta":17211529},{"NoteNumber":84,"Velocity":77,"Duration":191918,"SoundDuration":191918,"Delta":17211529},{"NoteNumber":72,"Velocity":71,"Duration":641110,"SoundDuration":641110,"Delta":17413549},{"NoteNumber":79,"Velocity":71,"Duration":641110,"SoundDuration":641110,"Delta":17413549},{"NoteNumber":84,"Velocity":85,"Duration":641110,"SoundDuration":641110,"Delta":17413549},{"NoteNumber":40,"Velocity":44,"Duration":427587,"SoundDuration":427587,"Delta":17413549},{"NoteNumber":52,"Velocity":53,"Duration":427587,"SoundDuration":427587,"Delta":17413549},{"NoteNumber":52,"Velocity":57,"Duration":202846,"SoundDuration":202846,"Delta":17841136},{"NoteNumber":64,"Velocity":70,"Duration":202846,"SoundDuration":202846,"Delta":17841136},{"NoteNumber":72,"Velocity":73,"Duration":213523,"SoundDuration":213523,"Delta":18054659},{"NoteNumber":79,"Velocity":73,"Duration":213523,"SoundDuration":213523,"Delta":18054659},{"NoteNumber":84,"Velocity":88,"Duration":213523,"SoundDuration":213523,"Delta":18054659},{"NoteNumber":52,"Velocity":53,"Duration":202846,"SoundDuration":202846,"Delta":18054659},{"NoteNumber":64,"Velocity":65,"Duration":202846,"SoundDuration":202846,"Delta":18054659},{"NoteNumber":77,"Velocity":81,"Duration":408075,"SoundDuration":408075,"Delta":18268182},{"NoteNumber":84,"Velocity":81,"Duration":408075,"SoundDuration":408075,"Delta":18268182},{"NoteNumber":89,"Velocity":96,"Duration":408075,"SoundDuration":408075,"Delta":18268182},{"NoteNumber":50,"Velocity":63,"Duration":408075,"SoundDuration":408075,"Delta":18268182},{"NoteNumber":62,"Velocity":72,"Duration":408075,"SoundDuration":408075,"Delta":18268182},{"NoteNumber":77,"Velocity":75,"Duration":195876,"SoundDuration":195876,"Delta":18680553},{"NoteNumber":83,"Velocity":75,"Duration":195876,"SoundDuration":195876,"Delta":18680553},{"NoteNumber":89,"Velocity":90,"Duration":195876,"SoundDuration":195876,"Delta":18680553},{"NoteNumber":43,"Velocity":54,"Duration":412371,"SoundDuration":412371,"Delta":18680553},{"NoteNumber":55,"Velocity":67,"Duration":412371,"SoundDuration":412371,"Delta":18680553},{"NoteNumber":77,"Velocity":73,"Duration":195876,"SoundDuration":195876,"Delta":18886739},{"NoteNumber":83,"Velocity":73,"Duration":195876,"SoundDuration":195876,"Delta":18886739},{"NoteNumber":89,"Velocity":88,"Duration":195876,"SoundDuration":195876,"Delta":18886739},{"NoteNumber":76,"Velocity":76,"Duration":408075,"SoundDuration":408075,"Delta":19092924},{"NoteNumber":83,"Velocity":76,"Duration":408075,"SoundDuration":408075,"Delta":19092924},{"NoteNumber":88,"Velocity":92,"Duration":408075,"SoundDuration":408075,"Delta":19092924},{"NoteNumber":48,"Velocity":52,"Duration":412371,"SoundDuration":412371,"Delta":19092924},{"NoteNumber":60,"Velocity":65,"Duration":412371,"SoundDuration":412371,"Delta":19092924},{"NoteNumber":88,"Velocity":88,"Duration":399831,"SoundDuration":399831,"Delta":19505295},{"NoteNumber":81,"Velocity":73,"Duration":399831,"SoundDuration":399831,"Delta":19505295},{"NoteNumber":76,"Velocity":73,"Duration":399831,"SoundDuration":399831,"Delta":19505295},{"NoteNumber":41,"Velocity":57,"Duration":191918,"SoundDuration":191918,"Delta":19505295},{"NoteNumber":53,"Velocity":70,"Duration":191918,"SoundDuration":191918,"Delta":19505295},{"NoteNumber":41,"Velocity":53,"Duration":191918,"SoundDuration":191918,"Delta":19707315},{"NoteNumber":53,"Velocity":65,"Duration":191918,"SoundDuration":191918,"Delta":19707315},{"NoteNumber":74,"Velocity":81,"Duration":412371,"SoundDuration":412371,"Delta":19909335},{"NoteNumber":81,"Velocity":81,"Duration":412371,"SoundDuration":412371,"Delta":19909335},{"NoteNumber":86,"Velocity":95,"Duration":412371,"SoundDuration":412371,"Delta":19909335},{"NoteNumber":47,"Velocity":62,"Duration":412371,"SoundDuration":412371,"Delta":19909335},{"NoteNumber":59,"Velocity":71,"Duration":412371,"SoundDuration":412371,"Delta":19909335},{"NoteNumber":74,"Velocity":74,"Duration":195876,"SoundDuration":195876,"Delta":20321706},{"NoteNumber":80,"Velocity":74,"Duration":195876,"SoundDuration":195876,"Delta":20321706},{"NoteNumber":86,"Velocity":88,"Duration":195876,"SoundDuration":195876,"Delta":20321706},{"NoteNumber":40,"Velocity":53,"Duration":412371,"SoundDuration":412371,"Delta":20321706},{"NoteNumber":52,"Velocity":65,"Duration":412371,"SoundDuration":412371,"Delta":20321706},{"NoteNumber":74,"Velocity":71,"Duration":195876,"SoundDuration":195876,"Delta":20527892},{"NoteNumber":80,"Velocity":71,"Duration":195876,"SoundDuration":195876,"Delta":20527892},{"NoteNumber":86,"Velocity":85,"Duration":195876,"SoundDuration":195876,"Delta":20527892},{"NoteNumber":72,"Velocity":74,"Duration":412371,"SoundDuration":412371,"Delta":20734077},{"NoteNumber":81,"Velocity":74,"Duration":412371,"SoundDuration":412371,"Delta":20734077},{"NoteNumber":84,"Velocity":89,"Duration":412371,"SoundDuration":412371,"Delta":20734077},{"NoteNumber":45,"Velocity":51,"Duration":412371,"SoundDuration":412371,"Delta":20734077},{"NoteNumber":57,"Velocity":63,"Duration":412371,"SoundDuration":412371,"Delta":20734077},{"NoteNumber":81,"Velocity":67,"Duration":413792,"SoundDuration":413792,"Delta":21146448},{"NoteNumber":72,"Velocity":56,"Duration":413792,"SoundDuration":413792,"Delta":21146448},{"NoteNumber":69,"Velocity":56,"Duration":413792,"SoundDuration":413792,"Delta":21146448},{"NoteNumber":33,"Velocity":44,"Duration":103448,"SoundDuration":103448,"Delta":21146448},{"NoteNumber":45,"Velocity":53,"Duration":103448,"SoundDuration":103448,"Delta":21146448},{"NoteNumber":31,"Velocity":40,"Duration":103448,"SoundDuration":103448,"Delta":21353345},{"NoteNumber":43,"Velocity":49,"Duration":103448,"SoundDuration":103448,"Delta":21353345},{"NoteNumber":69,"Velocity":35,"Duration":104408,"SoundDuration":104408,"Delta":21560241},{"NoteNumber":76,"Velocity":42,"Duration":104408,"SoundDuration":104408,"Delta":21560241},{"NoteNumber":29,"Velocity":34,"Duration":104408,"SoundDuration":104408,"Delta":21560241},{"NoteNumber":81,"Velocity":44,"Duration":103807,"SoundDuration":103807,"Delta":21664650},{"NoteNumber":41,"Velocity":35,"Duration":103807,"SoundDuration":103807,"Delta":21664650},{"NoteNumber":69,"Velocity":38,"Duration":103093,"SoundDuration":103093,"Delta":21768457},{"NoteNumber":76,"Velocity":45,"Duration":103093,"SoundDuration":103093,"Delta":21768457},{"NoteNumber":29,"Velocity":37,"Duration":103093,"SoundDuration":103093,"Delta":21768457},{"NoteNumber":81,"Velocity":47,"Duration":102505,"SoundDuration":102505,"Delta":21871550},{"NoteNumber":41,"Velocity":38,"Duration":102505,"SoundDuration":102505,"Delta":21871550},{"NoteNumber":69,"Velocity":41,"Duration":101810,"SoundDuration":101810,"Delta":21974056},{"NoteNumber":76,"Velocity":49,"Duration":101810,"SoundDuration":101810,"Delta":21974056},{"NoteNumber":29,"Velocity":39,"Duration":101810,"SoundDuration":101810,"Delta":21974056},{"NoteNumber":81,"Velocity":51,"Duration":101123,"SoundDuration":101123,"Delta":22075867},{"NoteNumber":41,"Velocity":41,"Duration":101123,"SoundDuration":101123,"Delta":22075867},{"NoteNumber":69,"Velocity":45,"Duration":100559,"SoundDuration":100559,"Delta":22176990},{"NoteNumber":76,"Velocity":53,"Duration":100559,"SoundDuration":100559,"Delta":22176990},{"NoteNumber":29,"Velocity":42,"Duration":100559,"SoundDuration":100559,"Delta":22176990},{"NoteNumber":81,"Velocity":54,"Duration":99889,"SoundDuration":99889,"Delta":22277549},{"NoteNumber":41,"Velocity":44,"Duration":99889,"SoundDuration":99889,"Delta":22277549},{"NoteNumber":69,"Velocity":47,"Duration":99337,"SoundDuration":99337,"Delta":22377439},{"NoteNumber":76,"Velocity":56,"Duration":99337,"SoundDuration":99337,"Delta":22377439},{"NoteNumber":29,"Velocity":45,"Duration":99337,"SoundDuration":99337,"Delta":22377439},{"NoteNumber":81,"Velocity":58,"Duration":99009,"SoundDuration":99009,"Delta":22476776},{"NoteNumber":41,"Velocity":47,"Duration":99009,"SoundDuration":99009,"Delta":22476776},{"NoteNumber":69,"Velocity":51,"Duration":98901,"SoundDuration":98901,"Delta":22575786},{"NoteNumber":76,"Velocity":60,"Duration":98901,"SoundDuration":98901,"Delta":22575786},{"NoteNumber":29,"Velocity":48,"Duration":98901,"SoundDuration":98901,"Delta":22575786},{"NoteNumber":81,"Velocity":62,"Duration":98684,"SoundDuration":98684,"Delta":22674688},{"NoteNumber":41,"Velocity":50,"Duration":98684,"SoundDuration":98684,"Delta":22674688},{"NoteNumber":69,"Velocity":53,"Duration":98576,"SoundDuration":98576,"Delta":22773372},{"NoteNumber":76,"Velocity":63,"Duration":98576,"SoundDuration":98576,"Delta":22773372},{"NoteNumber":29,"Velocity":51,"Duration":98576,"SoundDuration":98576,"Delta":22773372},{"NoteNumber":81,"Velocity":65,"Duration":98360,"SoundDuration":98360,"Delta":22871948},{"NoteNumber":41,"Velocity":52,"Duration":98360,"SoundDuration":98360,"Delta":22871948},{"NoteNumber":69,"Velocity":56,"Duration":98146,"SoundDuration":98146,"Delta":22970309},{"NoteNumber":76,"Velocity":67,"Duration":98146,"SoundDuration":98146,"Delta":22970309},{"NoteNumber":29,"Velocity":54,"Duration":98146,"SoundDuration":98146,"Delta":22970309},{"NoteNumber":81,"Velocity":69,"Duration":98039,"SoundDuration":98039,"Delta":23068456},{"NoteNumber":41,"Velocity":55,"Duration":98039,"SoundDuration":98039,"Delta":23068456},{"NoteNumber":69,"Velocity":62,"Duration":97087,"SoundDuration":97087,"Delta":23166495},{"NoteNumber":75,"Velocity":73,"Duration":97087,"SoundDuration":97087,"Delta":23166495},{"NoteNumber":42,"Velocity":61,"Duration":97087,"SoundDuration":97087,"Delta":23166495},{"NoteNumber":81,"Velocity":74,"Duration":96878,"SoundDuration":96878,"Delta":23263582},{"NoteNumber":43,"Velocity":62,"Duration":96878,"SoundDuration":96878,"Delta":23263582},{"NoteNumber":69,"Velocity":63,"Duration":96566,"SoundDuration":96566,"Delta":23360461},{"NoteNumber":75,"Velocity":75,"Duration":96566,"SoundDuration":96566,"Delta":23360461},{"NoteNumber":44,"Velocity":63,"Duration":96566,"SoundDuration":96566,"Delta":23360461},{"NoteNumber":81,"Velocity":76,"Duration":96359,"SoundDuration":96359,"Delta":23457028},{"NoteNumber":45,"Velocity":64,"Duration":96359,"SoundDuration":96359,"Delta":23457028},{"NoteNumber":69,"Velocity":66,"Duration":96051,"SoundDuration":96051,"Delta":23553388},{"NoteNumber":75,"Velocity":78,"Duration":96051,"SoundDuration":96051,"Delta":23553388},{"NoteNumber":46,"Velocity":66,"Duration":96051,"SoundDuration":96051,"Delta":23553388},{"NoteNumber":81,"Velocity":80,"Duration":95846,"SoundDuration":95846,"Delta":23649439},{"NoteNumber":47,"Velocity":67,"Duration":95846,"SoundDuration":95846,"Delta":23649439},{"NoteNumber":69,"Velocity":69,"Duration":96051,"SoundDuration":96051,"Delta":23745286},{"NoteNumber":75,"Velocity":81,"Duration":96051,"SoundDuration":96051,"Delta":23745286},{"NoteNumber":48,"Velocity":69,"Duration":96051,"SoundDuration":96051,"Delta":23745286},{"NoteNumber":81,"Velocity":83,"Duration":96153,"SoundDuration":96153,"Delta":23841337},{"NoteNumber":49,"Velocity":70,"Duration":96153,"SoundDuration":96153,"Delta":23841337},{"NoteNumber":69,"Velocity":71,"Duration":96462,"SoundDuration":96462,"Delta":23937491},{"NoteNumber":75,"Velocity":85,"Duration":96462,"SoundDuration":96462,"Delta":23937491},{"NoteNumber":50,"Velocity":72,"Duration":96462,"SoundDuration":96462,"Delta":23937491},{"NoteNumber":81,"Velocity":86,"Duration":96566,"SoundDuration":96566,"Delta":24033954},{"NoteNumber":51,"Velocity":73,"Duration":96566,"SoundDuration":96566,"Delta":24033954},{"NoteNumber":69,"Velocity":74,"Duration":96774,"SoundDuration":96774,"Delta":24130521},{"NoteNumber":75,"Velocity":87,"Duration":96774,"SoundDuration":96774,"Delta":24130521},{"NoteNumber":52,"Velocity":75,"Duration":96774,"SoundDuration":96774,"Delta":24130521},{"NoteNumber":81,"Velocity":89,"Duration":96983,"SoundDuration":96983,"Delta":24227295},{"NoteNumber":53,"Velocity":76,"Duration":96983,"SoundDuration":96983,"Delta":24227295},{"NoteNumber":69,"Velocity":77,"Duration":204081,"SoundDuration":204081,"Delta":24324278},{"NoteNumber":75,"Velocity":90,"Duration":204081,"SoundDuration":204081,"Delta":24324278},{"NoteNumber":81,"Velocity":90,"Duration":204081,"SoundDuration":204081,"Delta":24324278},{"NoteNumber":41,"Velocity":66,"Duration":204081,"SoundDuration":204081,"Delta":24324278},{"NoteNumber":53,"Velocity":78,"Duration":204081,"SoundDuration":204081,"Delta":24324278},{"NoteNumber":69,"Velocity":78,"Duration":204081,"SoundDuration":204081,"Delta":24528360},{"NoteNumber":75,"Velocity":93,"Duration":204081,"SoundDuration":204081,"Delta":24528360},{"NoteNumber":81,"Velocity":93,"Duration":204081,"SoundDuration":204081,"Delta":24528360},{"NoteNumber":41,"Velocity":66,"Duration":204081,"SoundDuration":204081,"Delta":24528360},{"NoteNumber":53,"Velocity":79,"Duration":204081,"SoundDuration":204081,"Delta":24528360},{"NoteNumber":69,"Velocity":84,"Duration":106007,"SoundDuration":106007,"Delta":24732441},{"NoteNumber":75,"Velocity":84,"Duration":106007,"SoundDuration":106007,"Delta":24732441},{"NoteNumber":81,"Velocity":100,"Duration":106007,"SoundDuration":106007,"Delta":24732441},{"NoteNumber":41,"Velocity":74,"Duration":106007,"SoundDuration":106007,"Delta":24732441},{"NoteNumber":53,"Velocity":88,"Duration":106007,"SoundDuration":106007,"Delta":24732441},{"NoteNumber":71,"Velocity":75,"Duration":101694,"SoundDuration":101694,"Delta":24944455},{"NoteNumber":75,"Velocity":75,"Duration":101694,"SoundDuration":101694,"Delta":24944455},{"NoteNumber":83,"Velocity":90,"Duration":101694,"SoundDuration":101694,"Delta":24944455},{"NoteNumber":81,"Velocity":90,"Duration":101694,"SoundDuration":101694,"Delta":24944455},{"NoteNumber":53,"Velocity":68,"Duration":101694,"SoundDuration":101694,"Delta":24944455},{"NoteNumber":65,"Velocity":81,"Duration":101694,"SoundDuration":101694,"Delta":24944455},{"NoteNumber":71,"Velocity":75,"Duration":103448,"SoundDuration":103448,"Delta":25147845},{"NoteNumber":75,"Velocity":75,"Duration":103448,"SoundDuration":103448,"Delta":25147845},{"NoteNumber":81,"Velocity":90,"Duration":103448,"SoundDuration":103448,"Delta":25147845},{"NoteNumber":83,"Velocity":90,"Duration":103448,"SoundDuration":103448,"Delta":25147845},{"NoteNumber":53,"Velocity":68,"Duration":103448,"SoundDuration":103448,"Delta":25147845},{"NoteNumber":65,"Velocity":81,"Duration":103448,"SoundDuration":103448,"Delta":25147845},{"NoteNumber":71,"Velocity":75,"Duration":101694,"SoundDuration":101694,"Delta":25354742},{"NoteNumber":75,"Velocity":75,"Duration":101694,"SoundDuration":101694,"Delta":25354742},{"NoteNumber":81,"Velocity":90,"Duration":101694,"SoundDuration":101694,"Delta":25354742},{"NoteNumber":83,"Velocity":90,"Duration":101694,"SoundDuration":101694,"Delta":25354742},{"NoteNumber":53,"Velocity":68,"Duration":101694,"SoundDuration":101694,"Delta":25354742},{"NoteNumber":65,"Velocity":81,"Duration":101694,"SoundDuration":101694,"Delta":25354742},{"NoteNumber":71,"Velocity":75,"Duration":101694,"SoundDuration":101694,"Delta":25558132},{"NoteNumber":75,"Velocity":75,"Duration":101694,"SoundDuration":101694,"Delta":25558132},{"NoteNumber":81,"Velocity":90,"Duration":101694,"SoundDuration":101694,"Delta":25558132},{"NoteNumber":83,"Velocity":90,"Duration":101694,"SoundDuration":101694,"Delta":25558132},{"NoteNumber":53,"Velocity":68,"Duration":101694,"SoundDuration":101694,"Delta":25558132},{"NoteNumber":65,"Velocity":81,"Duration":101694,"SoundDuration":101694,"Delta":25558132},{"NoteNumber":71,"Velocity":75,"Duration":101694,"SoundDuration":101694,"Delta":25761522},{"NoteNumber":75,"Velocity":75,"Duration":101694,"SoundDuration":101694,"Delta":25761522},{"NoteNumber":81,"Velocity":90,"Duration":101694,"SoundDuration":101694,"Delta":25761522},{"NoteNumber":83,"Velocity":90,"Duration":101694,"SoundDuration":101694,"Delta":25761522},{"NoteNumber":53,"Velocity":68,"Duration":101694,"SoundDuration":101694,"Delta":25761522},{"NoteNumber":65,"Velocity":81,"Duration":101694,"SoundDuration":101694,"Delta":25761522},{"NoteNumber":71,"Velocity":75,"Duration":103806,"SoundDuration":103806,"Delta":25964912},{"NoteNumber":75,"Velocity":75,"Duration":103806,"SoundDuration":103806,"Delta":25964912},{"NoteNumber":81,"Velocity":90,"Duration":103806,"SoundDuration":103806,"Delta":25964912},{"NoteNumber":83,"Velocity":90,"Duration":103806,"SoundDuration":103806,"Delta":25964912},{"NoteNumber":53,"Velocity":68,"Duration":103806,"SoundDuration":103806,"Delta":25964912},{"NoteNumber":65,"Velocity":81,"Duration":103806,"SoundDuration":103806,"Delta":25964912},{"NoteNumber":71,"Velocity":75,"Duration":103806,"SoundDuration":103806,"Delta":26172524},{"NoteNumber":75,"Velocity":75,"Duration":103806,"SoundDuration":103806,"Delta":26172524},{"NoteNumber":81,"Velocity":90,"Duration":103806,"SoundDuration":103806,"Delta":26172524},{"NoteNumber":83,"Velocity":90,"Duration":103806,"SoundDuration":103806,"Delta":26172524},{"NoteNumber":53,"Velocity":68,"Duration":103806,"SoundDuration":103806,"Delta":26172524},{"NoteNumber":65,"Velocity":81,"Duration":103806,"SoundDuration":103806,"Delta":26172524},{"NoteNumber":71,"Velocity":85,"Duration":209058,"SoundDuration":209058,"Delta":26380137},{"NoteNumber":76,"Velocity":85,"Duration":209058,"SoundDuration":209058,"Delta":26380137},{"NoteNumber":80,"Velocity":85,"Duration":209058,"SoundDuration":209058,"Delta":26380137},{"NoteNumber":83,"Velocity":101,"Duration":209058,"SoundDuration":209058,"Delta":26380137},{"NoteNumber":64,"Velocity":91,"Duration":209058,"SoundDuration":209058,"Delta":26380137},{"NoteNumber":52,"Velocity":77,"Duration":209058,"SoundDuration":209058,"Delta":26380137},{"NoteNumber":88,"Velocity":102,"Duration":209058,"SoundDuration":209058,"Delta":26798255},{"NoteNumber":83,"Velocity":86,"Duration":209058,"SoundDuration":209058,"Delta":26798255},{"NoteNumber":80,"Velocity":86,"Duration":209058,"SoundDuration":209058,"Delta":26798255},{"NoteNumber":76,"Velocity":86,"Duration":209058,"SoundDuration":209058,"Delta":26798255},{"NoteNumber":40,"Velocity":74,"Duration":209058,"SoundDuration":209058,"Delta":26798255},{"NoteNumber":52,"Velocity":88,"Duration":209058,"SoundDuration":209058,"Delta":26798255},{"NoteNumber":52,"Velocity":29,"Duration":408047,"SoundDuration":408047,"Delta":28052609},{"NoteNumber":55,"Velocity":29,"Duration":408047,"SoundDuration":408047,"Delta":28052609},{"NoteNumber":60,"Velocity":29,"Duration":408047,"SoundDuration":408047,"Delta":28052609},{"NoteNumber":64,"Velocity":36,"Duration":408047,"SoundDuration":408047,"Delta":28052609},{"NoteNumber":36,"Velocity":22,"Duration":408047,"SoundDuration":408047,"Delta":28052609},{"NoteNumber":43,"Velocity":22,"Duration":408047,"SoundDuration":408047,"Delta":28052609},{"NoteNumber":48,"Velocity":25,"Duration":408047,"SoundDuration":408047,"Delta":28052609},{"NoteNumber":52,"Velocity":28,"Duration":100563,"SoundDuration":100563,"Delta":28464952},{"NoteNumber":55,"Velocity":28,"Duration":100563,"SoundDuration":100563,"Delta":28464952},{"NoteNumber":60,"Velocity":28,"Duration":100563,"SoundDuration":100563,"Delta":28464952},{"NoteNumber":64,"Velocity":34,"Duration":100563,"SoundDuration":100563,"Delta":28464952},{"NoteNumber":36,"Velocity":19,"Duration":100563,"SoundDuration":100563,"Delta":28464952},{"NoteNumber":43,"Velocity":19,"Duration":100563,"SoundDuration":100563,"Delta":28464952},{"NoteNumber":48,"Velocity":23,"Duration":100563,"SoundDuration":100563,"Delta":28464952},{"NoteNumber":52,"Velocity":28,"Duration":100563,"SoundDuration":100563,"Delta":28666078},{"NoteNumber":55,"Velocity":28,"Duration":100563,"SoundDuration":100563,"Delta":28666078},{"NoteNumber":60,"Velocity":28,"Duration":100563,"SoundDuration":100563,"Delta":28666078},{"NoteNumber":64,"Velocity":34,"Duration":100563,"SoundDuration":100563,"Delta":28666078},{"NoteNumber":36,"Velocity":19,"Duration":100563,"SoundDuration":100563,"Delta":28666078},{"NoteNumber":43,"Velocity":19,"Duration":100563,"SoundDuration":100563,"Delta":28666078},{"NoteNumber":48,"Velocity":23,"Duration":100563,"SoundDuration":100563,"Delta":28666078},{"NoteNumber":52,"Velocity":29,"Duration":408047,"SoundDuration":408047,"Delta":28867205},{"NoteNumber":55,"Velocity":29,"Duration":408047,"SoundDuration":408047,"Delta":28867205},{"NoteNumber":60,"Velocity":29,"Duration":408047,"SoundDuration":408047,"Delta":28867205},{"NoteNumber":64,"Velocity":36,"Duration":408047,"SoundDuration":408047,"Delta":28867205},{"NoteNumber":36,"Velocity":22,"Duration":408047,"SoundDuration":408047,"Delta":28867205},{"NoteNumber":43,"Velocity":22,"Duration":408047,"SoundDuration":408047,"Delta":28867205},{"NoteNumber":48,"Velocity":26,"Duration":408047,"SoundDuration":408047,"Delta":28867205},{"NoteNumber":52,"Velocity":27,"Duration":100563,"SoundDuration":100563,"Delta":29279548},{"NoteNumber":55,"Velocity":27,"Duration":100563,"SoundDuration":100563,"Delta":29279548},{"NoteNumber":60,"Velocity":27,"Duration":100563,"SoundDuration":100563,"Delta":29279548},{"NoteNumber":64,"Velocity":33,"Duration":100563,"SoundDuration":100563,"Delta":29279548},{"NoteNumber":36,"Velocity":20,"Duration":100563,"SoundDuration":100563,"Delta":29279548},{"NoteNumber":43,"Velocity":20,"Duration":100563,"SoundDuration":100563,"Delta":29279548},{"NoteNumber":48,"Velocity":24,"Duration":100563,"SoundDuration":100563,"Delta":29279548},{"NoteNumber":52,"Velocity":27,"Duration":100563,"SoundDuration":100563,"Delta":29480674},{"NoteNumber":55,"Velocity":27,"Duration":100563,"SoundDuration":100563,"Delta":29480674},{"NoteNumber":60,"Velocity":27,"Duration":100563,"SoundDuration":100563,"Delta":29480674},{"NoteNumber":64,"Velocity":33,"Duration":100563,"SoundDuration":100563,"Delta":29480674},{"NoteNumber":36,"Velocity":20,"Duration":100563,"SoundDuration":100563,"Delta":29480674},{"NoteNumber":43,"Velocity":20,"Duration":100563,"SoundDuration":100563,"Delta":29480674},{"NoteNumber":48,"Velocity":24,"Duration":100563,"SoundDuration":100563,"Delta":29480674},{"NoteNumber":52,"Velocity":29,"Duration":205436,"SoundDuration":205436,"Delta":29681801},{"NoteNumber":55,"Velocity":29,"Duration":205436,"SoundDuration":205436,"Delta":29681801},{"NoteNumber":60,"Velocity":29,"Duration":205436,"SoundDuration":205436,"Delta":29681801},{"NoteNumber":64,"Velocity":36,"Duration":205436,"SoundDuration":205436,"Delta":29681801},{"NoteNumber":36,"Velocity":22,"Duration":205436,"SoundDuration":205436,"Delta":29681801},{"NoteNumber":43,"Velocity":22,"Duration":205436,"SoundDuration":205436,"Delta":29681801},{"NoteNumber":48,"Velocity":26,"Duration":205436,"SoundDuration":205436,"Delta":29681801},{"NoteNumber":48,"Velocity":32,"Duration":102718,"SoundDuration":102718,"Delta":29887238},{"NoteNumber":52,"Velocity":33,"Duration":102597,"SoundDuration":102597,"Delta":29989956},{"NoteNumber":55,"Velocity":34,"Duration":102719,"SoundDuration":102719,"Delta":30092553},{"NoteNumber":60,"Velocity":35,"Duration":103581,"SoundDuration":103581,"Delta":30195273},{"NoteNumber":64,"Velocity":36,"Duration":104461,"SoundDuration":104461,"Delta":30298855},{"NoteNumber":67,"Velocity":37,"Duration":104587,"SoundDuration":104587,"Delta":30403317},{"NoteNumber":59,"Velocity":36,"Duration":418351,"SoundDuration":418351,"Delta":30507905},{"NoteNumber":71,"Velocity":36,"Duration":418351,"SoundDuration":418351,"Delta":30507905},{"NoteNumber":60,"Velocity":28,"Duration":104587,"SoundDuration":104587,"Delta":30926257},{"NoteNumber":72,"Velocity":34,"Duration":104587,"SoundDuration":104587,"Delta":30926257},{"NoteNumber":60,"Velocity":28,"Duration":104587,"SoundDuration":104587,"Delta":31135433},{"NoteNumber":72,"Velocity":34,"Duration":104587,"SoundDuration":104587,"Delta":31135433},{"NoteNumber":65,"Velocity":31,"Duration":218977,"SoundDuration":218977,"Delta":31344609},{"NoteNumber":67,"Velocity":31,"Duration":218977,"SoundDuration":218977,"Delta":31344609},{"NoteNumber":71,"Velocity":37,"Duration":218977,"SoundDuration":218977,"Delta":31344609},{"NoteNumber":73,"Velocity":37,"Duration":218977,"SoundDuration":218977,"Delta":31344609},{"NoteNumber":31,"Velocity":22,"Duration":218977,"SoundDuration":218977,"Delta":31344609},{"NoteNumber":43,"Velocity":27,"Duration":218977,"SoundDuration":218977,"Delta":31344609},{"NoteNumber":67,"Velocity":28,"Duration":269058,"SoundDuration":269058,"Delta":31782565},{"NoteNumber":65,"Velocity":28,"Duration":269058,"SoundDuration":269058,"Delta":31782565},{"NoteNumber":71,"Velocity":35,"Duration":269058,"SoundDuration":269058,"Delta":31782565},{"NoteNumber":74,"Velocity":35,"Duration":269058,"SoundDuration":269058,"Delta":31782565},{"NoteNumber":43,"Velocity":22,"Duration":269058,"SoundDuration":269058,"Delta":31782565},{"NoteNumber":55,"Velocity":27,"Duration":269058,"SoundDuration":269058,"Delta":31782565},{"NoteNumber":77,"Velocity":35,"Duration":902256,"SoundDuration":902256,"Delta":32320682},{"NoteNumber":79,"Velocity":35,"Duration":902256,"SoundDuration":902256,"Delta":32320682},{"NoteNumber":86,"Velocity":35,"Duration":902256,"SoundDuration":902256,"Delta":32320682},{"NoteNumber":83,"Velocity":35,"Duration":902256,"SoundDuration":902256,"Delta":32320682},{"NoteNumber":74,"Velocity":27,"Duration":902256,"SoundDuration":902256,"Delta":32320682},{"NoteNumber":71,"Velocity":22,"Duration":902256,"SoundDuration":902256,"Delta":32320682},{"NoteNumber":67,"Velocity":22,"Duration":902256,"SoundDuration":902256,"Delta":32320682},{"NoteNumber":53,"Velocity":25,"Duration":408047,"SoundDuration":408047,"Delta":33222938},{"NoteNumber":55,"Velocity":25,"Duration":408047,"SoundDuration":408047,"Delta":33222938},{"NoteNumber":59,"Velocity":25,"Duration":408047,"SoundDuration":408047,"Delta":33222938},{"NoteNumber":62,"Velocity":31,"Duration":408047,"SoundDuration":408047,"Delta":33222938},{"NoteNumber":31,"Velocity":18,"Duration":408047,"SoundDuration":408047,"Delta":33222938},{"NoteNumber":43,"Velocity":22,"Duration":408047,"SoundDuration":408047,"Delta":33222938},{"NoteNumber":53,"Velocity":24,"Duration":100563,"SoundDuration":100563,"Delta":33635281},{"NoteNumber":55,"Velocity":24,"Duration":100563,"SoundDuration":100563,"Delta":33635281},{"NoteNumber":59,"Velocity":24,"Duration":100563,"SoundDuration":100563,"Delta":33635281},{"NoteNumber":62,"Velocity":28,"Duration":100563,"SoundDuration":100563,"Delta":33635281},{"NoteNumber":31,"Velocity":16,"Duration":100563,"SoundDuration":100563,"Delta":33635281},{"NoteNumber":43,"Velocity":20,"Duration":100563,"SoundDuration":100563,"Delta":33635281},{"NoteNumber":53,"Velocity":24,"Duration":100563,"SoundDuration":100563,"Delta":33836407},{"NoteNumber":55,"Velocity":24,"Duration":100563,"SoundDuration":100563,"Delta":33836407},{"NoteNumber":59,"Velocity":24,"Duration":100563,"SoundDuration":100563,"Delta":33836407},{"NoteNumber":62,"Velocity":28,"Duration":100563,"SoundDuration":100563,"Delta":33836407},{"NoteNumber":31,"Velocity":16,"Duration":100563,"SoundDuration":100563,"Delta":33836407},{"NoteNumber":43,"Velocity":20,"Duration":100563,"SoundDuration":100563,"Delta":33836407},{"NoteNumber":53,"Velocity":25,"Duration":408047,"SoundDuration":408047,"Delta":34037534},{"NoteNumber":55,"Velocity":25,"Duration":408047,"SoundDuration":408047,"Delta":34037534},{"NoteNumber":59,"Velocity":25,"Duration":408047,"SoundDuration":408047,"Delta":34037534},{"NoteNumber":62,"Velocity":31,"Duration":408047,"SoundDuration":408047,"Delta":34037534},{"NoteNumber":31,"Velocity":19,"Duration":408047,"SoundDuration":408047,"Delta":34037534},{"NoteNumber":43,"Velocity":22,"Duration":408047,"SoundDuration":408047,"Delta":34037534},{"NoteNumber":53,"Velocity":23,"Duration":100563,"SoundDuration":100563,"Delta":34449877},{"NoteNumber":55,"Velocity":23,"Duration":100563,"SoundDuration":100563,"Delta":34449877},{"NoteNumber":59,"Velocity":23,"Duration":100563,"SoundDuration":100563,"Delta":34449877},{"NoteNumber":62,"Velocity":28,"Duration":100563,"SoundDuration":100563,"Delta":34449877},{"NoteNumber":31,"Velocity":17,"Duration":100563,"SoundDuration":100563,"Delta":34449877},{"NoteNumber":43,"Velocity":20,"Duration":100563,"SoundDuration":100563,"Delta":34449877},{"NoteNumber":53,"Velocity":23,"Duration":100563,"SoundDuration":100563,"Delta":34651003},{"NoteNumber":55,"Velocity":23,"Duration":100563,"SoundDuration":100563,"Delta":34651003},{"NoteNumber":59,"Velocity":23,"Duration":100563,"SoundDuration":100563,"Delta":34651003},{"NoteNumber":62,"Velocity":28,"Duration":100563,"SoundDuration":100563,"Delta":34651003},{"NoteNumber":31,"Velocity":17,"Duration":100563,"SoundDuration":100563,"Delta":34651003},{"NoteNumber":43,"Velocity":20,"Duration":100563,"SoundDuration":100563,"Delta":34651003},{"NoteNumber":53,"Velocity":25,"Duration":205437,"SoundDuration":205437,"Delta":34852130},{"NoteNumber":55,"Velocity":25,"Duration":205437,"SoundDuration":205437,"Delta":34852130},{"NoteNumber":59,"Velocity":25,"Duration":205437,"SoundDuration":205437,"Delta":34852130},{"NoteNumber":62,"Velocity":31,"Duration":205437,"SoundDuration":205437,"Delta":34852130},{"NoteNumber":31,"Velocity":19,"Duration":205437,"SoundDuration":205437,"Delta":34852130},{"NoteNumber":43,"Velocity":22,"Duration":205437,"SoundDuration":205437,"Delta":34852130},{"NoteNumber":55,"Velocity":27,"Duration":102718,"SoundDuration":102718,"Delta":35057567},{"NoteNumber":59,"Velocity":28,"Duration":102597,"SoundDuration":102597,"Delta":35160285},{"NoteNumber":62,"Velocity":28,"Duration":102719,"SoundDuration":102719,"Delta":35262882},{"NoteNumber":65,"Velocity":29,"Duration":103581,"SoundDuration":103581,"Delta":35365602},{"NoteNumber":67,"Velocity":31,"Duration":104461,"SoundDuration":104461,"Delta":35469184},{"NoteNumber":71,"Velocity":32,"Duration":104587,"SoundDuration":104587,"Delta":35573646},{"NoteNumber":61,"Velocity":36,"Duration":418352,"SoundDuration":418352,"Delta":35678234},{"NoteNumber":73,"Velocity":36,"Duration":418352,"SoundDuration":418352,"Delta":35678234},{"NoteNumber":62,"Velocity":28,"Duration":104587,"SoundDuration":104587,"Delta":36096586},{"NoteNumber":74,"Velocity":34,"Duration":104587,"SoundDuration":104587,"Delta":36096586},{"NoteNumber":62,"Velocity":28,"Duration":104587,"SoundDuration":104587,"Delta":36305762},{"NoteNumber":74,"Velocity":34,"Duration":104587,"SoundDuration":104587,"Delta":36305762},{"NoteNumber":63,"Velocity":31,"Duration":218977,"SoundDuration":218977,"Delta":36514938},{"NoteNumber":67,"Velocity":31,"Duration":218977,"SoundDuration":218977,"Delta":36514938},{"NoteNumber":72,"Velocity":37,"Duration":218977,"SoundDuration":218977,"Delta":36514938},{"NoteNumber":75,"Velocity":37,"Duration":218977,"SoundDuration":218977,"Delta":36514938},{"NoteNumber":43,"Velocity":20,"Duration":218977,"SoundDuration":218977,"Delta":36514938},{"NoteNumber":36,"Velocity":20,"Duration":218977,"SoundDuration":218977,"Delta":36514938},{"NoteNumber":48,"Velocity":24,"Duration":218977,"SoundDuration":218977,"Delta":36514938},{"NoteNumber":67,"Velocity":28,"Duration":271492,"SoundDuration":271492,"Delta":36952894},{"NoteNumber":64,"Velocity":28,"Duration":271492,"SoundDuration":271492,"Delta":36952894},{"NoteNumber":72,"Velocity":34,"Duration":271492,"SoundDuration":271492,"Delta":36952894},{"NoteNumber":76,"Velocity":34,"Duration":271492,"SoundDuration":271492,"Delta":36952894},{"NoteNumber":55,"Velocity":20,"Duration":271492,"SoundDuration":271492,"Delta":36952894},{"NoteNumber":48,"Velocity":20,"Duration":271492,"SoundDuration":271492,"Delta":36952894},{"NoteNumber":60,"Velocity":24,"Duration":271492,"SoundDuration":271492,"Delta":36952894},{"NoteNumber":76,"Velocity":35,"Duration":902256,"SoundDuration":902256,"Delta":37495880},{"NoteNumber":79,"Velocity":35,"Duration":902256,"SoundDuration":902256,"Delta":37495880},{"NoteNumber":88,"Velocity":35,"Duration":902256,"SoundDuration":902256,"Delta":37495880},{"NoteNumber":84,"Velocity":35,"Duration":902256,"SoundDuration":902256,"Delta":37495880},{"NoteNumber":72,"Velocity":27,"Duration":902256,"SoundDuration":902256,"Delta":37495880},{"NoteNumber":67,"Velocity":22,"Duration":902256,"SoundDuration":902256,"Delta":37495880},{"NoteNumber":60,"Velocity":22,"Duration":902256,"SoundDuration":902256,"Delta":37495880},{"NoteNumber":55,"Velocity":27,"Duration":108695,"SoundDuration":108695,"Delta":38623700},{"NoteNumber":60,"Velocity":28,"Duration":108695,"SoundDuration":108695,"Delta":38732395},{"NoteNumber":64,"Velocity":28,"Duration":108695,"SoundDuration":108695,"Delta":38841091},{"NoteNumber":67,"Velocity":29,"Duration":108695,"SoundDuration":108695,"Delta":38949787},{"NoteNumber":72,"Velocity":31,"Duration":108695,"SoundDuration":108695,"Delta":39058483},{"NoteNumber":76,"Velocity":32,"Duration":108695,"SoundDuration":108695,"Delta":39167178},{"NoteNumber":72,"Velocity":30,"Duration":362903,"SoundDuration":362903,"Delta":39275874},{"NoteNumber":67,"Velocity":30,"Duration":362903,"SoundDuration":362903,"Delta":39275874},{"NoteNumber":79,"Velocity":37,"Duration":362903,"SoundDuration":362903,"Delta":39275874},{"NoteNumber":33,"Velocity":29,"Duration":362903,"SoundDuration":362903,"Delta":39275874},{"NoteNumber":45,"Velocity":35,"Duration":362903,"SoundDuration":362903,"Delta":39275874},{"NoteNumber":65,"Velocity":29,"Duration":307692,"SoundDuration":307692,"Delta":39759745},{"NoteNumber":72,"Velocity":29,"Duration":307692,"SoundDuration":307692,"Delta":39759745},{"NoteNumber":77,"Velocity":36,"Duration":307692,"SoundDuration":307692,"Delta":39759745},{"NoteNumber":57,"Velocity":26,"Duration":307692,"SoundDuration":307692,"Delta":39759745},{"NoteNumber":60,"Velocity":32,"Duration":307692,"SoundDuration":307692,"Delta":39759745},{"NoteNumber":84,"Velocity":35,"Duration":902256,"SoundDuration":902256,"Delta":40375130},{"NoteNumber":77,"Velocity":28,"Duration":902256,"SoundDuration":902256,"Delta":40375130},{"NoteNumber":72,"Velocity":27,"Duration":902256,"SoundDuration":902256,"Delta":40375130},{"NoteNumber":69,"Velocity":18,"Duration":902256,"SoundDuration":902256,"Delta":40375130},{"NoteNumber":57,"Velocity":24,"Duration":108695,"SoundDuration":108695,"Delta":41502950},{"NoteNumber":60,"Velocity":25,"Duration":108695,"SoundDuration":108695,"Delta":41611646},{"NoteNumber":65,"Velocity":25,"Duration":108695,"SoundDuration":108695,"Delta":41720342},{"NoteNumber":69,"Velocity":26,"Duration":108695,"SoundDuration":108695,"Delta":41829037},{"NoteNumber":72,"Velocity":27,"Duration":108695,"SoundDuration":108695,"Delta":41937733},{"NoteNumber":77,"Velocity":27,"Duration":108695,"SoundDuration":108695,"Delta":42046429},{"NoteNumber":72,"Velocity":26,"Duration":371901,"SoundDuration":371901,"Delta":42155125},{"NoteNumber":69,"Velocity":26,"Duration":371901,"SoundDuration":371901,"Delta":42155125},{"NoteNumber":81,"Velocity":32,"Duration":371901,"SoundDuration":371901,"Delta":42155125},{"NoteNumber":40,"Velocity":25,"Duration":371901,"SoundDuration":371901,"Delta":42155125},{"NoteNumber":52,"Velocity":29,"Duration":371901,"SoundDuration":371901,"Delta":42155125},{"NoteNumber":67,"Velocity":26,"Duration":335195,"SoundDuration":335195,"Delta":42650993},{"NoteNumber":72,"Velocity":26,"Duration":335195,"SoundDuration":335195,"Delta":42650993},{"NoteNumber":79,"Velocity":32,"Duration":335195,"SoundDuration":335195,"Delta":42650993},{"NoteNumber":52,"Velocity":23,"Duration":335195,"SoundDuration":335195,"Delta":42650993},{"NoteNumber":55,"Velocity":27,"Duration":335195,"SoundDuration":335195,"Delta":42650993},{"NoteNumber":72,"Velocity":25,"Duration":1804512,"SoundDuration":1804512,"Delta":43321384},{"NoteNumber":84,"Velocity":31,"Duration":1804512,"SoundDuration":1804512,"Delta":43321384},{"NoteNumber":79,"Velocity":25,"Duration":1804512,"SoundDuration":1804512,"Delta":43321384},{"NoteNumber":67,"Velocity":24,"Duration":1804512,"SoundDuration":1804512,"Delta":43321384},{"NoteNumber":64,"Velocity":16,"Duration":1804512,"SoundDuration":1804512,"Delta":43321384},{"NoteNumber":60,"Velocity":76,"Duration":101351,"SoundDuration":101351,"Delta":45328598},{"NoteNumber":64,"Velocity":78,"Duration":101351,"SoundDuration":101351,"Delta":45429949},{"NoteNumber":67,"Velocity":80,"Duration":101351,"SoundDuration":101351,"Delta":45531301},{"NoteNumber":72,"Velocity":82,"Duration":101351,"SoundDuration":101351,"Delta":45632652},{"NoteNumber":76,"Velocity":84,"Duration":101351,"SoundDuration":101351,"Delta":45734003},{"NoteNumber":79,"Velocity":86,"Duration":101351,"SoundDuration":101351,"Delta":45835354},{"NoteNumber":72,"Velocity":79,"Duration":846454,"SoundDuration":846454,"Delta":45936706},{"NoteNumber":77,"Velocity":79,"Duration":846454,"SoundDuration":846454,"Delta":45936706},{"NoteNumber":80,"Velocity":79,"Duration":846454,"SoundDuration":846454,"Delta":45936706},{"NoteNumber":84,"Velocity":93,"Duration":846454,"SoundDuration":846454,"Delta":45936706},{"NoteNumber":38,"Velocity":72,"Duration":104894,"SoundDuration":104894,"Delta":46166591},{"NoteNumber":41,"Velocity":74,"Duration":104894,"SoundDuration":104894,"Delta":46271486},{"NoteNumber":44,"Velocity":76,"Duration":101694,"SoundDuration":101694,"Delta":46376381},{"NoteNumber":50,"Velocity":78,"Duration":101694,"SoundDuration":101694,"Delta":46478076},{"NoteNumber":53,"Velocity":80,"Duration":101694,"SoundDuration":101694,"Delta":46579771},{"NoteNumber":56,"Velocity":82,"Duration":101694,"SoundDuration":101694,"Delta":46681466},{"NoteNumber":71,"Velocity":77,"Duration":813560,"SoundDuration":813560,"Delta":46783161},{"NoteNumber":77,"Velocity":77,"Duration":813560,"SoundDuration":813560,"Delta":46783161},{"NoteNumber":83,"Velocity":91,"Duration":813560,"SoundDuration":813560,"Delta":46783161},{"NoteNumber":79,"Velocity":77,"Duration":813560,"SoundDuration":813560,"Delta":46783161},{"NoteNumber":50,"Velocity":71,"Duration":813560,"SoundDuration":813560,"Delta":46783161},{"NoteNumber":62,"Velocity":84,"Duration":813560,"SoundDuration":813560,"Delta":46783161},{"NoteNumber":72,"Velocity":78,"Duration":416666,"SoundDuration":416666,"Delta":47596721},{"NoteNumber":84,"Velocity":92,"Duration":416666,"SoundDuration":416666,"Delta":47596721},{"NoteNumber":79,"Velocity":78,"Duration":416666,"SoundDuration":416666,"Delta":47596721},{"NoteNumber":52,"Velocity":68,"Duration":416666,"SoundDuration":416666,"Delta":47596721},{"NoteNumber":64,"Velocity":80,"Duration":416666,"SoundDuration":416666,"Delta":47596721},{"NoteNumber":76,"Velocity":76,"Duration":416667,"SoundDuration":416667,"Delta":48013388},{"NoteNumber":88,"Velocity":90,"Duration":416667,"SoundDuration":416667,"Delta":48013388},{"NoteNumber":81,"Velocity":76,"Duration":416667,"SoundDuration":416667,"Delta":48013388},{"NoteNumber":78,"Velocity":76,"Duration":416667,"SoundDuration":416667,"Delta":48013388},{"NoteNumber":48,"Velocity":64,"Duration":416667,"SoundDuration":416667,"Delta":48013388},{"NoteNumber":60,"Velocity":76,"Duration":416667,"SoundDuration":416667,"Delta":48013388},{"NoteNumber":74,"Velocity":79,"Duration":224719,"SoundDuration":224719,"Delta":48430055},{"NoteNumber":86,"Velocity":94,"Duration":224719,"SoundDuration":224719,"Delta":48430055},{"NoteNumber":83,"Velocity":79,"Duration":224719,"SoundDuration":224719,"Delta":48430055},{"NoteNumber":79,"Velocity":79,"Duration":224719,"SoundDuration":224719,"Delta":48430055},{"NoteNumber":43,"Velocity":68,"Duration":224719,"SoundDuration":224719,"Delta":48430055},{"NoteNumber":55,"Velocity":80,"Duration":224719,"SoundDuration":224719,"Delta":48430055},{"NoteNumber":62,"Velocity":76,"Duration":100671,"SoundDuration":100671,"Delta":48654774},{"NoteNumber":67,"Velocity":79,"Duration":100671,"SoundDuration":100671,"Delta":48755445},{"NoteNumber":71,"Velocity":82,"Duration":100671,"SoundDuration":100671,"Delta":48856116},{"NoteNumber":74,"Velocity":85,"Duration":100671,"SoundDuration":100671,"Delta":48956787},{"NoteNumber":79,"Velocity":88,"Duration":100671,"SoundDuration":100671,"Delta":49057459},{"NoteNumber":83,"Velocity":91,"Duration":100671,"SoundDuration":100671,"Delta":49158130},{"NoteNumber":72,"Velocity":79,"Duration":846454,"SoundDuration":846454,"Delta":49258801},{"NoteNumber":77,"Velocity":79,"Duration":846454,"SoundDuration":846454,"Delta":49258801},{"NoteNumber":80,"Velocity":79,"Duration":846454,"SoundDuration":846454,"Delta":49258801},{"NoteNumber":84,"Velocity":93,"Duration":846454,"SoundDuration":846454,"Delta":49258801},{"NoteNumber":38,"Velocity":72,"Duration":104894,"SoundDuration":104894,"Delta":49488686},{"NoteNumber":41,"Velocity":74,"Duration":104894,"SoundDuration":104894,"Delta":49593581},{"NoteNumber":44,"Velocity":76,"Duration":101694,"SoundDuration":101694,"Delta":49698476},{"NoteNumber":50,"Velocity":78,"Duration":101694,"SoundDuration":101694,"Delta":49800171},{"NoteNumber":53,"Velocity":80,"Duration":101694,"SoundDuration":101694,"Delta":49901866},{"NoteNumber":56,"Velocity":82,"Duration":101694,"SoundDuration":101694,"Delta":50003561},{"NoteNumber":71,"Velocity":77,"Duration":813560,"SoundDuration":813560,"Delta":50105256},{"NoteNumber":77,"Velocity":77,"Duration":813560,"SoundDuration":813560,"Delta":50105256},{"NoteNumber":83,"Velocity":91,"Duration":813560,"SoundDuration":813560,"Delta":50105256},{"NoteNumber":79,"Velocity":77,"Duration":813560,"SoundDuration":813560,"Delta":50105256},{"NoteNumber":50,"Velocity":71,"Duration":813560,"SoundDuration":813560,"Delta":50105256},{"NoteNumber":62,"Velocity":84,"Duration":813560,"SoundDuration":813560,"Delta":50105256},{"NoteNumber":72,"Velocity":78,"Duration":422535,"SoundDuration":422535,"Delta":50918816},{"NoteNumber":84,"Velocity":92,"Duration":422535,"SoundDuration":422535,"Delta":50918816},{"NoteNumber":79,"Velocity":78,"Duration":422535,"SoundDuration":422535,"Delta":50918816},{"NoteNumber":52,"Velocity":68,"Duration":422535,"SoundDuration":422535,"Delta":50918816},{"NoteNumber":64,"Velocity":80,"Duration":422535,"SoundDuration":422535,"Delta":50918816},{"NoteNumber":76,"Velocity":76,"Duration":422534,"SoundDuration":422534,"Delta":51341351},{"NoteNumber":88,"Velocity":90,"Duration":422534,"SoundDuration":422534,"Delta":51341351},{"NoteNumber":81,"Velocity":76,"Duration":422534,"SoundDuration":422534,"Delta":51341351},{"NoteNumber":78,"Velocity":76,"Duration":422534,"SoundDuration":422534,"Delta":51341351},{"NoteNumber":48,"Velocity":64,"Duration":422534,"SoundDuration":422534,"Delta":51341351},{"NoteNumber":60,"Velocity":76,"Duration":422534,"SoundDuration":422534,"Delta":51341351},{"NoteNumber":74,"Velocity":79,"Duration":211267,"SoundDuration":211267,"Delta":51763886},{"NoteNumber":86,"Velocity":94,"Duration":211267,"SoundDuration":211267,"Delta":51763886},{"NoteNumber":83,"Velocity":79,"Duration":211267,"SoundDuration":211267,"Delta":51763886},{"NoteNumber":79,"Velocity":79,"Duration":211267,"SoundDuration":211267,"Delta":51763886},{"NoteNumber":43,"Velocity":68,"Duration":211267,"SoundDuration":211267,"Delta":51763886},{"NoteNumber":55,"Velocity":80,"Duration":211267,"SoundDuration":211267,"Delta":51763886},{"NoteNumber":67,"Velocity":76,"Duration":104166,"SoundDuration":104166,"Delta":51975154},{"NoteNumber":71,"Velocity":79,"Duration":104166,"SoundDuration":104166,"Delta":52079320},{"NoteNumber":74,"Velocity":82,"Duration":104166,"SoundDuration":104166,"Delta":52183487},{"NoteNumber":79,"Velocity":85,"Duration":104166,"SoundDuration":104166,"Delta":52287654},{"NoteNumber":83,"Velocity":88,"Duration":104166,"SoundDuration":104166,"Delta":52391821},{"NoteNumber":86,"Velocity":91,"Duration":104166,"SoundDuration":104166,"Delta":52495987},{"NoteNumber":79,"Velocity":79,"Duration":850401,"SoundDuration":850401,"Delta":52600154},{"NoteNumber":82,"Velocity":79,"Duration":850401,"SoundDuration":850401,"Delta":52600154},{"NoteNumber":85,"Velocity":79,"Duration":850401,"SoundDuration":850401,"Delta":52600154},{"NoteNumber":91,"Velocity":93,"Duration":850401,"SoundDuration":850401,"Delta":52600154},{"NoteNumber":52,"Velocity":73,"Duration":105386,"SoundDuration":105386,"Delta":52826936},{"NoteNumber":55,"Velocity":75,"Duration":104773,"SoundDuration":104773,"Delta":52932323},{"NoteNumber":58,"Velocity":77,"Duration":104287,"SoundDuration":104287,"Delta":53037096},{"NoteNumber":61,"Velocity":79,"Duration":103686,"SoundDuration":103686,"Delta":53141384},{"NoteNumber":67,"Velocity":80,"Duration":103211,"SoundDuration":103211,"Delta":53245071},{"NoteNumber":70,"Velocity":82,"Duration":102273,"SoundDuration":102273,"Delta":53348282},{"NoteNumber":73,"Velocity":88,"Duration":102040,"SoundDuration":102040,"Delta":53450556},{"NoteNumber":76,"Velocity":82,"Duration":102272,"SoundDuration":102272,"Delta":53552597},{"NoteNumber":73,"Velocity":81,"Duration":102389,"SoundDuration":102389,"Delta":53654869},{"NoteNumber":70,"Velocity":80,"Duration":102739,"SoundDuration":102739,"Delta":53757258},{"NoteNumber":67,"Velocity":76,"Duration":102857,"SoundDuration":102857,"Delta":53859998},{"NoteNumber":64,"Velocity":78,"Duration":103092,"SoundDuration":103092,"Delta":53962856},{"NoteNumber":61,"Velocity":78,"Duration":103329,"SoundDuration":103329,"Delta":54065948},{"NoteNumber":58,"Velocity":76,"Duration":103212,"SoundDuration":103212,"Delta":54169278},{"NoteNumber":88,"Velocity":89,"Duration":103806,"SoundDuration":103806,"Delta":54272490},{"NoteNumber":61,"Velocity":76,"Duration":103806,"SoundDuration":103806,"Delta":54272490},{"NoteNumber":91,"Velocity":82,"Duration":103806,"SoundDuration":103806,"Delta":54376296},{"NoteNumber":64,"Velocity":68,"Duration":103806,"SoundDuration":103806,"Delta":54376296},{"NoteNumber":88,"Velocity":82,"Duration":103806,"SoundDuration":103806,"Delta":54480103},{"NoteNumber":61,"Velocity":69,"Duration":103806,"SoundDuration":103806,"Delta":54480103},{"NoteNumber":85,"Velocity":82,"Duration":103806,"SoundDuration":103806,"Delta":54583909},{"NoteNumber":58,"Velocity":69,"Duration":103806,"SoundDuration":103806,"Delta":54583909},{"NoteNumber":82,"Velocity":86,"Duration":103806,"SoundDuration":103806,"Delta":54687715},{"NoteNumber":55,"Velocity":73,"Duration":103806,"SoundDuration":103806,"Delta":54687715},{"NoteNumber":79,"Velocity":75,"Duration":103806,"SoundDuration":103806,"Delta":54791521},{"NoteNumber":52,"Velocity":66,"Duration":103806,"SoundDuration":103806,"Delta":54791521},{"NoteNumber":76,"Velocity":75,"Duration":103806,"SoundDuration":103806,"Delta":54895328},{"NoteNumber":49,"Velocity":66,"Duration":103806,"SoundDuration":103806,"Delta":54895328},{"NoteNumber":73,"Velocity":75,"Duration":110700,"SoundDuration":110700,"Delta":54999134},{"NoteNumber":46,"Velocity":66,"Duration":110700,"SoundDuration":110700,"Delta":54999134},{"NoteNumber":76,"Velocity":81,"Duration":103806,"SoundDuration":103806,"Delta":55109835},{"NoteNumber":49,"Velocity":66,"Duration":103806,"SoundDuration":103806,"Delta":55109835},{"NoteNumber":79,"Velocity":73,"Duration":103806,"SoundDuration":103806,"Delta":55213641},{"NoteNumber":52,"Velocity":60,"Duration":103806,"SoundDuration":103806,"Delta":55213641},{"NoteNumber":76,"Velocity":73,"Duration":103806,"SoundDuration":103806,"Delta":55317447},{"NoteNumber":49,"Velocity":60,"Duration":103806,"SoundDuration":103806,"Delta":55317447},{"NoteNumber":73,"Velocity":73,"Duration":103806,"SoundDuration":103806,"Delta":55421254},{"NoteNumber":46,"Velocity":60,"Duration":103806,"SoundDuration":103806,"Delta":55421254},{"NoteNumber":70,"Velocity":80,"Duration":103806,"SoundDuration":103806,"Delta":55525060},{"NoteNumber":43,"Velocity":67,"Duration":103806,"SoundDuration":103806,"Delta":55525060},{"NoteNumber":67,"Velocity":74,"Duration":103806,"SoundDuration":103806,"Delta":55628866},{"NoteNumber":40,"Velocity":59,"Duration":103806,"SoundDuration":103806,"Delta":55628866},{"NoteNumber":64,"Velocity":74,"Duration":103806,"SoundDuration":103806,"Delta":55732672},{"NoteNumber":37,"Velocity":60,"Duration":103806,"SoundDuration":103806,"Delta":55732672},{"NoteNumber":61,"Velocity":74,"Duration":109890,"SoundDuration":109890,"Delta":55836479},{"NoteNumber":34,"Velocity":60,"Duration":109890,"SoundDuration":109890,"Delta":55836479},{"NoteNumber":64,"Velocity":77,"Duration":104166,"SoundDuration":104166,"Delta":55946369},{"NoteNumber":37,"Velocity":68,"Duration":104166,"SoundDuration":104166,"Delta":55946369},{"NoteNumber":67,"Velocity":58,"Duration":104166,"SoundDuration":104166,"Delta":56050535},{"NoteNumber":40,"Velocity":47,"Duration":104166,"SoundDuration":104166,"Delta":56050535},{"NoteNumber":64,"Velocity":58,"Duration":104166,"SoundDuration":104166,"Delta":56154702},{"NoteNumber":37,"Velocity":47,"Duration":104166,"SoundDuration":104166,"Delta":56154702},{"NoteNumber":61,"Velocity":58,"Duration":104166,"SoundDuration":104166,"Delta":56258869},{"NoteNumber":34,"Velocity":47,"Duration":104166,"SoundDuration":104166,"Delta":56258869},{"NoteNumber":64,"Velocity":64,"Duration":104166,"SoundDuration":104166,"Delta":56363036},{"NoteNumber":37,"Velocity":58,"Duration":104166,"SoundDuration":104166,"Delta":56363036},{"NoteNumber":67,"Velocity":53,"Duration":104166,"SoundDuration":104166,"Delta":56467202},{"NoteNumber":40,"Velocity":45,"Duration":104166,"SoundDuration":104166,"Delta":56467202},{"NoteNumber":64,"Velocity":52,"Duration":103687,"SoundDuration":103687,"Delta":56571369},{"NoteNumber":37,"Velocity":45,"Duration":103687,"SoundDuration":103687,"Delta":56571369},{"NoteNumber":61,"Velocity":52,"Duration":103448,"SoundDuration":103448,"Delta":56675057},{"NoteNumber":34,"Velocity":45,"Duration":103448,"SoundDuration":103448,"Delta":56675057},{"NoteNumber":64,"Velocity":57,"Duration":103092,"SoundDuration":103092,"Delta":56778505},{"NoteNumber":37,"Velocity":53,"Duration":103092,"SoundDuration":103092,"Delta":56778505},{"NoteNumber":67,"Velocity":48,"Duration":102975,"SoundDuration":102975,"Delta":56881598},{"NoteNumber":40,"Velocity":39,"Duration":102975,"SoundDuration":102975,"Delta":56881598},{"NoteNumber":64,"Velocity":48,"Duration":102739,"SoundDuration":102739,"Delta":56984573},{"NoteNumber":37,"Velocity":39,"Duration":102739,"SoundDuration":102739,"Delta":56984573},{"NoteNumber":61,"Velocity":48,"Duration":102505,"SoundDuration":102505,"Delta":57087313},{"NoteNumber":34,"Velocity":39,"Duration":102505,"SoundDuration":102505,"Delta":57087313},{"NoteNumber":64,"Velocity":54,"Duration":102389,"SoundDuration":102389,"Delta":57189819},{"NoteNumber":37,"Velocity":51,"Duration":102389,"SoundDuration":102389,"Delta":57189819},{"NoteNumber":67,"Velocity":46,"Duration":102040,"SoundDuration":102040,"Delta":57292208},{"NoteNumber":40,"Velocity":34,"Duration":102040,"SoundDuration":102040,"Delta":57292208},{"NoteNumber":64,"Velocity":46,"Duration":101925,"SoundDuration":101925,"Delta":57394248},{"NoteNumber":37,"Velocity":34,"Duration":101925,"SoundDuration":101925,"Delta":57394248},{"NoteNumber":61,"Velocity":46,"Duration":101695,"SoundDuration":101695,"Delta":57496174},{"NoteNumber":34,"Velocity":34,"Duration":101695,"SoundDuration":101695,"Delta":57496174},{"NoteNumber":62,"Velocity":50,"Duration":101351,"SoundDuration":101351,"Delta":57597869},{"NoteNumber":35,"Velocity":37,"Duration":101351,"SoundDuration":101351,"Delta":57597869},{"NoteNumber":67,"Velocity":41,"Duration":101351,"SoundDuration":101351,"Delta":57699220},{"NoteNumber":38,"Velocity":30,"Duration":101351,"SoundDuration":101351,"Delta":57699220},{"NoteNumber":62,"Velocity":41,"Duration":101351,"SoundDuration":101351,"Delta":57800571},{"NoteNumber":43,"Velocity":30,"Duration":101351,"SoundDuration":101351,"Delta":57800571},{"NoteNumber":55,"Velocity":41,"Duration":101351,"SoundDuration":101351,"Delta":57901923},{"NoteNumber":38,"Velocity":30,"Duration":101351,"SoundDuration":101351,"Delta":57901923},{"NoteNumber":62,"Velocity":49,"Duration":101351,"SoundDuration":101351,"Delta":58003274},{"NoteNumber":35,"Velocity":35,"Duration":101351,"SoundDuration":101351,"Delta":58003274},{"NoteNumber":67,"Velocity":41,"Duration":101351,"SoundDuration":101351,"Delta":58104625},{"NoteNumber":38,"Velocity":30,"Duration":101351,"SoundDuration":101351,"Delta":58104625},{"NoteNumber":62,"Velocity":41,"Duration":101351,"SoundDuration":101351,"Delta":58205976},{"NoteNumber":43,"Velocity":30,"Duration":101351,"SoundDuration":101351,"Delta":58205976},{"NoteNumber":55,"Velocity":41,"Duration":101351,"SoundDuration":101351,"Delta":58307328},{"NoteNumber":38,"Velocity":30,"Duration":101351,"SoundDuration":101351,"Delta":58307328},{"NoteNumber":62,"Velocity":48,"Duration":101351,"SoundDuration":101351,"Delta":58408679},{"NoteNumber":35,"Velocity":35,"Duration":101351,"SoundDuration":101351,"Delta":58408679},{"NoteNumber":67,"Velocity":41,"Duration":101351,"SoundDuration":101351,"Delta":58510030},{"NoteNumber":38,"Velocity":30,"Duration":101351,"SoundDuration":101351,"Delta":58510030},{"NoteNumber":62,"Velocity":41,"Duration":101351,"SoundDuration":101351,"Delta":58611381},{"NoteNumber":43,"Velocity":30,"Duration":101351,"SoundDuration":101351,"Delta":58611381},{"NoteNumber":55,"Velocity":41,"Duration":101351,"SoundDuration":101351,"Delta":58712733},{"NoteNumber":38,"Velocity":30,"Duration":101351,"SoundDuration":101351,"Delta":58712733},{"NoteNumber":62,"Velocity":48,"Duration":101010,"SoundDuration":101010,"Delta":58814084},{"NoteNumber":35,"Velocity":35,"Duration":101010,"SoundDuration":101010,"Delta":58814084},{"NoteNumber":67,"Velocity":41,"Duration":101465,"SoundDuration":101465,"Delta":58915094},{"NoteNumber":38,"Velocity":30,"Duration":101465,"SoundDuration":101465,"Delta":58915094},{"NoteNumber":62,"Velocity":40,"Duration":101925,"SoundDuration":101925,"Delta":59016560},{"NoteNumber":43,"Velocity":30,"Duration":101925,"SoundDuration":101925,"Delta":59016560},{"NoteNumber":55,"Velocity":40,"Duration":102505,"SoundDuration":102505,"Delta":59118485},{"NoteNumber":38,"Velocity":30,"Duration":102505,"SoundDuration":102505,"Delta":59118485},{"NoteNumber":59,"Velocity":55,"Duration":410958,"SoundDuration":410958,"Delta":59220991},{"NoteNumber":36,"Velocity":37,"Duration":102739,"SoundDuration":102739,"Delta":59220991},{"NoteNumber":64,"Velocity":41,"Duration":102739,"SoundDuration":102739,"Delta":59323731},{"NoteNumber":40,"Velocity":30,"Duration":102739,"SoundDuration":102739,"Delta":59323731},{"NoteNumber":71,"Velocity":41,"Duration":102739,"SoundDuration":102739,"Delta":59426471},{"NoteNumber":45,"Velocity":30,"Duration":102739,"SoundDuration":102739,"Delta":59426471},{"NoteNumber":64,"Velocity":41,"Duration":102739,"SoundDuration":102739,"Delta":59529210},{"NoteNumber":40,"Velocity":30,"Duration":102739,"SoundDuration":102739,"Delta":59529210},{"NoteNumber":59,"Velocity":53,"Duration":410958,"SoundDuration":410958,"Delta":59631950},{"NoteNumber":36,"Velocity":35,"Duration":102739,"SoundDuration":102739,"Delta":59631950},{"NoteNumber":64,"Velocity":41,"Duration":102739,"SoundDuration":102739,"Delta":59734690},{"NoteNumber":40,"Velocity":30,"Duration":102739,"SoundDuration":102739,"Delta":59734690},{"NoteNumber":71,"Velocity":41,"Duration":102739,"SoundDuration":102739,"Delta":59837430},{"NoteNumber":45,"Velocity":30,"Duration":102739,"SoundDuration":102739,"Delta":59837430},{"NoteNumber":64,"Velocity":41,"Duration":102739,"SoundDuration":102739,"Delta":59940169},{"NoteNumber":40,"Velocity":30,"Duration":102739,"SoundDuration":102739,"Delta":59940169},{"NoteNumber":59,"Velocity":52,"Duration":410959,"SoundDuration":410959,"Delta":60042909},{"NoteNumber":36,"Velocity":35,"Duration":102739,"SoundDuration":102739,"Delta":60042909},{"NoteNumber":64,"Velocity":41,"Duration":102739,"SoundDuration":102739,"Delta":60145649},{"NoteNumber":40,"Velocity":30,"Duration":102739,"SoundDuration":102739,"Delta":60145649},{"NoteNumber":71,"Velocity":41,"Duration":102739,"SoundDuration":102739,"Delta":60248389},{"NoteNumber":45,"Velocity":30,"Duration":102739,"SoundDuration":102739,"Delta":60248389},{"NoteNumber":64,"Velocity":41,"Duration":102739,"SoundDuration":102739,"Delta":60351128},{"NoteNumber":40,"Velocity":30,"Duration":102739,"SoundDuration":102739,"Delta":60351128},{"NoteNumber":57,"Velocity":52,"Duration":410958,"SoundDuration":410958,"Delta":60453868},{"NoteNumber":36,"Velocity":35,"Duration":102739,"SoundDuration":102739,"Delta":60453868},{"NoteNumber":64,"Velocity":41,"Duration":102739,"SoundDuration":102739,"Delta":60556608},{"NoteNumber":40,"Velocity":30,"Duration":102739,"SoundDuration":102739,"Delta":60556608},{"NoteNumber":69,"Velocity":40,"Duration":102739,"SoundDuration":102739,"Delta":60659348},{"NoteNumber":45,"Velocity":30,"Duration":102739,"SoundDuration":102739,"Delta":60659348},{"NoteNumber":64,"Velocity":40,"Duration":102739,"SoundDuration":102739,"Delta":60762087},{"NoteNumber":40,"Velocity":30,"Duration":102739,"SoundDuration":102739,"Delta":60762087},{"NoteNumber":59,"Velocity":50,"Duration":103932,"SoundDuration":103932,"Delta":60864827},{"NoteNumber":38,"Velocity":37,"Duration":103932,"SoundDuration":103932,"Delta":60864827},{"NoteNumber":62,"Velocity":41,"Duration":104773,"SoundDuration":104773,"Delta":60968760},{"NoteNumber":43,"Velocity":30,"Duration":104773,"SoundDuration":104773,"Delta":60968760},{"NoteNumber":69,"Velocity":41,"Duration":105140,"SoundDuration":105140,"Delta":61073533},{"NoteNumber":47,"Velocity":30,"Duration":105140,"SoundDuration":105140,"Delta":61073533},{"NoteNumber":62,"Velocity":41,"Duration":105510,"SoundDuration":105510,"Delta":61178674},{"NoteNumber":43,"Velocity":30,"Duration":105510,"SoundDuration":105510,"Delta":61178674},{"NoteNumber":59,"Velocity":49,"Duration":105882,"SoundDuration":105882,"Delta":61284184},{"NoteNumber":38,"Velocity":35,"Duration":105882,"SoundDuration":105882,"Delta":61284184},{"NoteNumber":62,"Velocity":41,"Duration":106257,"SoundDuration":106257,"Delta":61390067},{"NoteNumber":43,"Velocity":30,"Duration":106257,"SoundDuration":106257,"Delta":61390067},{"NoteNumber":67,"Velocity":41,"Duration":106635,"SoundDuration":106635,"Delta":61496324},{"NoteNumber":47,"Velocity":30,"Duration":106635,"SoundDuration":106635,"Delta":61496324},{"NoteNumber":62,"Velocity":41,"Duration":107015,"SoundDuration":107015,"Delta":61602960},{"NoteNumber":43,"Velocity":30,"Duration":107015,"SoundDuration":107015,"Delta":61602960},{"NoteNumber":60,"Velocity":48,"Duration":107142,"SoundDuration":107142,"Delta":61709975},{"NoteNumber":38,"Velocity":35,"Duration":107142,"SoundDuration":107142,"Delta":61709975},{"NoteNumber":62,"Velocity":41,"Duration":107142,"SoundDuration":107142,"Delta":61817118},{"NoteNumber":45,"Velocity":30,"Duration":107142,"SoundDuration":107142,"Delta":61817118},{"NoteNumber":67,"Velocity":41,"Duration":107786,"SoundDuration":107786,"Delta":61924261},{"NoteNumber":48,"Velocity":30,"Duration":107786,"SoundDuration":107786,"Delta":61924261},{"NoteNumber":62,"Velocity":41,"Duration":109624,"SoundDuration":109624,"Delta":62032047},{"NoteNumber":45,"Velocity":30,"Duration":109624,"SoundDuration":109624,"Delta":62032047},{"NoteNumber":60,"Velocity":48,"Duration":111111,"SoundDuration":111111,"Delta":62141672},{"NoteNumber":38,"Velocity":35,"Duration":111111,"SoundDuration":111111,"Delta":62141672},{"NoteNumber":62,"Velocity":41,"Duration":111111,"SoundDuration":111111,"Delta":62252783},{"NoteNumber":45,"Velocity":30,"Duration":111111,"SoundDuration":111111,"Delta":62252783},{"NoteNumber":66,"Velocity":40,"Duration":111111,"SoundDuration":111111,"Delta":62363894},{"NoteNumber":48,"Velocity":30,"Duration":111111,"SoundDuration":111111,"Delta":62363894},{"NoteNumber":62,"Velocity":40,"Duration":125523,"SoundDuration":125523,"Delta":62475005},{"NoteNumber":45,"Velocity":30,"Duration":125523,"SoundDuration":125523,"Delta":62475005},{"NoteNumber":79,"Velocity":79,"Duration":850401,"SoundDuration":850401,"Delta":62600528},{"NoteNumber":82,"Velocity":79,"Duration":850401,"SoundDuration":850401,"Delta":62600528},{"NoteNumber":85,"Velocity":79,"Duration":850401,"SoundDuration":850401,"Delta":62600528},{"NoteNumber":91,"Velocity":93,"Duration":850401,"SoundDuration":850401,"Delta":62600528},{"NoteNumber":52,"Velocity":73,"Duration":105386,"SoundDuration":105386,"Delta":62827310},{"NoteNumber":55,"Velocity":75,"Duration":104773,"SoundDuration":104773,"Delta":62932697},{"NoteNumber":58,"Velocity":77,"Duration":104287,"SoundDuration":104287,"Delta":63037470},{"NoteNumber":61,"Velocity":79,"Duration":103686,"SoundDuration":103686,"Delta":63141758},{"NoteNumber":67,"Velocity":80,"Duration":103211,"SoundDuration":103211,"Delta":63245445},{"NoteNumber":70,"Velocity":82,"Duration":102273,"SoundDuration":102273,"Delta":63348656},{"NoteNumber":73,"Velocity":88,"Duration":102040,"SoundDuration":102040,"Delta":63450930},{"NoteNumber":76,"Velocity":82,"Duration":102272,"SoundDuration":102272,"Delta":63552970},{"NoteNumber":73,"Velocity":81,"Duration":102389,"SoundDuration":102389,"Delta":63655243},{"NoteNumber":70,"Velocity":80,"Duration":102739,"SoundDuration":102739,"Delta":63757632},{"NoteNumber":67,"Velocity":76,"Duration":102857,"SoundDuration":102857,"Delta":63860372},{"NoteNumber":64,"Velocity":78,"Duration":103092,"SoundDuration":103092,"Delta":63963229},{"NoteNumber":61,"Velocity":78,"Duration":103329,"SoundDuration":103329,"Delta":64066322},{"NoteNumber":58,"Velocity":76,"Duration":103212,"SoundDuration":103212,"Delta":64169652},{"NoteNumber":88,"Velocity":89,"Duration":103806,"SoundDuration":103806,"Delta":64272864},{"NoteNumber":61,"Velocity":76,"Duration":103806,"SoundDuration":103806,"Delta":64272864},{"NoteNumber":91,"Velocity":82,"Duration":103806,"SoundDuration":103806,"Delta":64376670},{"NoteNumber":64,"Velocity":68,"Duration":103806,"SoundDuration":103806,"Delta":64376670},{"NoteNumber":88,"Velocity":82,"Duration":103806,"SoundDuration":103806,"Delta":64480477},{"NoteNumber":61,"Velocity":69,"Duration":103806,"SoundDuration":103806,"Delta":64480477},{"NoteNumber":85,"Velocity":82,"Duration":103806,"SoundDuration":103806,"Delta":64584283},{"NoteNumber":58,"Velocity":69,"Duration":103806,"SoundDuration":103806,"Delta":64584283},{"NoteNumber":82,"Velocity":86,"Duration":103806,"SoundDuration":103806,"Delta":64688089},{"NoteNumber":55,"Velocity":73,"Duration":103806,"SoundDuration":103806,"Delta":64688089},{"NoteNumber":79,"Velocity":75,"Duration":103806,"SoundDuration":103806,"Delta":64791895},{"NoteNumber":52,"Velocity":66,"Duration":103806,"SoundDuration":103806,"Delta":64791895},{"NoteNumber":76,"Velocity":75,"Duration":103806,"SoundDuration":103806,"Delta":64895702},{"NoteNumber":49,"Velocity":66,"Duration":103806,"SoundDuration":103806,"Delta":64895702},{"NoteNumber":73,"Velocity":75,"Duration":110701,"SoundDuration":110701,"Delta":64999508},{"NoteNumber":46,"Velocity":66,"Duration":110701,"SoundDuration":110701,"Delta":64999508},{"NoteNumber":76,"Velocity":81,"Duration":103806,"SoundDuration":103806,"Delta":65110209},{"NoteNumber":49,"Velocity":66,"Duration":103806,"SoundDuration":103806,"Delta":65110209},{"NoteNumber":79,"Velocity":73,"Duration":103806,"SoundDuration":103806,"Delta":65214015},{"NoteNumber":52,"Velocity":60,"Duration":103806,"SoundDuration":103806,"Delta":65214015},{"NoteNumber":76,"Velocity":73,"Duration":103806,"SoundDuration":103806,"Delta":65317821},{"NoteNumber":49,"Velocity":60,"Duration":103806,"SoundDuration":103806,"Delta":65317821},{"NoteNumber":73,"Velocity":73,"Duration":103806,"SoundDuration":103806,"Delta":65421628},{"NoteNumber":46,"Velocity":60,"Duration":103806,"SoundDuration":103806,"Delta":65421628},{"NoteNumber":70,"Velocity":80,"Duration":103806,"SoundDuration":103806,"Delta":65525434},{"NoteNumber":43,"Velocity":67,"Duration":103806,"SoundDuration":103806,"Delta":65525434},{"NoteNumber":67,"Velocity":74,"Duration":103806,"SoundDuration":103806,"Delta":65629240},{"NoteNumber":40,"Velocity":59,"Duration":103806,"SoundDuration":103806,"Delta":65629240},{"NoteNumber":64,"Velocity":74,"Duration":103806,"SoundDuration":103806,"Delta":65733046},{"NoteNumber":37,"Velocity":60,"Duration":103806,"SoundDuration":103806,"Delta":65733046},{"NoteNumber":61,"Velocity":74,"Duration":109889,"SoundDuration":109889,"Delta":65836853},{"NoteNumber":34,"Velocity":60,"Duration":109889,"SoundDuration":109889,"Delta":65836853},{"NoteNumber":64,"Velocity":77,"Duration":104166,"SoundDuration":104166,"Delta":65946743},{"NoteNumber":37,"Velocity":68,"Duration":104166,"SoundDuration":104166,"Delta":65946743},{"NoteNumber":67,"Velocity":58,"Duration":104166,"SoundDuration":104166,"Delta":66050909},{"NoteNumber":40,"Velocity":47,"Duration":104166,"SoundDuration":104166,"Delta":66050909},{"NoteNumber":64,"Velocity":58,"Duration":104166,"SoundDuration":104166,"Delta":66155076},{"NoteNumber":37,"Velocity":47,"Duration":104166,"SoundDuration":104166,"Delta":66155076},{"NoteNumber":61,"Velocity":58,"Duration":104166,"SoundDuration":104166,"Delta":66259243},{"NoteNumber":34,"Velocity":47,"Duration":104166,"SoundDuration":104166,"Delta":66259243},{"NoteNumber":64,"Velocity":64,"Duration":104166,"SoundDuration":104166,"Delta":66363410},{"NoteNumber":37,"Velocity":58,"Duration":104166,"SoundDuration":104166,"Delta":66363410},{"NoteNumber":67,"Velocity":53,"Duration":104166,"SoundDuration":104166,"Delta":66467576},{"NoteNumber":40,"Velocity":45,"Duration":104166,"SoundDuration":104166,"Delta":66467576},{"NoteNumber":64,"Velocity":52,"Duration":103687,"SoundDuration":103687,"Delta":66571743},{"NoteNumber":37,"Velocity":45,"Duration":103687,"SoundDuration":103687,"Delta":66571743},{"NoteNumber":61,"Velocity":52,"Duration":103448,"SoundDuration":103448,"Delta":66675431},{"NoteNumber":34,"Velocity":45,"Duration":103448,"SoundDuration":103448,"Delta":66675431},{"NoteNumber":64,"Velocity":57,"Duration":103092,"SoundDuration":103092,"Delta":66778879},{"NoteNumber":37,"Velocity":53,"Duration":103092,"SoundDuration":103092,"Delta":66778879},{"NoteNumber":67,"Velocity":48,"Duration":102975,"SoundDuration":102975,"Delta":66881972},{"NoteNumber":40,"Velocity":39,"Duration":102975,"SoundDuration":102975,"Delta":66881972},{"NoteNumber":64,"Velocity":48,"Duration":102739,"SoundDuration":102739,"Delta":66984947},{"NoteNumber":37,"Velocity":39,"Duration":102739,"SoundDuration":102739,"Delta":66984947},{"NoteNumber":61,"Velocity":48,"Duration":102505,"SoundDuration":102505,"Delta":67087687},{"NoteNumber":34,"Velocity":39,"Duration":102505,"SoundDuration":102505,"Delta":67087687},{"NoteNumber":64,"Velocity":54,"Duration":102389,"SoundDuration":102389,"Delta":67190193},{"NoteNumber":37,"Velocity":51,"Duration":102389,"SoundDuration":102389,"Delta":67190193},{"NoteNumber":67,"Velocity":46,"Duration":102040,"SoundDuration":102040,"Delta":67292582},{"NoteNumber":40,"Velocity":34,"Duration":102040,"SoundDuration":102040,"Delta":67292582},{"NoteNumber":64,"Velocity":46,"Duration":101925,"SoundDuration":101925,"Delta":67394622},{"NoteNumber":37,"Velocity":34,"Duration":101925,"SoundDuration":101925,"Delta":67394622},{"NoteNumber":61,"Velocity":46,"Duration":101694,"SoundDuration":101694,"Delta":67496548},{"NoteNumber":34,"Velocity":34,"Duration":101694,"SoundDuration":101694,"Delta":67496548},{"NoteNumber":64,"Velocity":50,"Duration":101351,"SoundDuration":101351,"Delta":67598243},{"NoteNumber":35,"Velocity":37,"Duration":101351,"SoundDuration":101351,"Delta":67598243},{"NoteNumber":67,"Velocity":41,"Duration":101351,"SoundDuration":101351,"Delta":67699594},{"NoteNumber":40,"Velocity":30,"Duration":101351,"SoundDuration":101351,"Delta":67699594},{"NoteNumber":64,"Velocity":41,"Duration":101351,"SoundDuration":101351,"Delta":67800945},{"NoteNumber":43,"Velocity":30,"Duration":101351,"SoundDuration":101351,"Delta":67800945},{"NoteNumber":55,"Velocity":41,"Duration":101351,"SoundDuration":101351,"Delta":67902297},{"NoteNumber":40,"Velocity":30,"Duration":101351,"SoundDuration":101351,"Delta":67902297},{"NoteNumber":64,"Velocity":49,"Duration":101351,"SoundDuration":101351,"Delta":68003648},{"NoteNumber":35,"Velocity":35,"Duration":101351,"SoundDuration":101351,"Delta":68003648},{"NoteNumber":67,"Velocity":41,"Duration":101351,"SoundDuration":101351,"Delta":68104999},{"NoteNumber":40,"Velocity":30,"Duration":101351,"SoundDuration":101351,"Delta":68104999},{"NoteNumber":64,"Velocity":41,"Duration":101351,"SoundDuration":101351,"Delta":68206350},{"NoteNumber":43,"Velocity":30,"Duration":101351,"SoundDuration":101351,"Delta":68206350},{"NoteNumber":55,"Velocity":41,"Duration":101351,"SoundDuration":101351,"Delta":68307702},{"NoteNumber":40,"Velocity":30,"Duration":101351,"SoundDuration":101351,"Delta":68307702},{"NoteNumber":64,"Velocity":48,"Duration":101351,"SoundDuration":101351,"Delta":68409053},{"NoteNumber":35,"Velocity":35,"Duration":101351,"SoundDuration":101351,"Delta":68409053},{"NoteNumber":67,"Velocity":41,"Duration":101351,"SoundDuration":101351,"Delta":68510404},{"NoteNumber":40,"Velocity":30,"Duration":101351,"SoundDuration":101351,"Delta":68510404},{"NoteNumber":64,"Velocity":41,"Duration":101351,"SoundDuration":101351,"Delta":68611755},{"NoteNumber":43,"Velocity":30,"Duration":101351,"SoundDuration":101351,"Delta":68611755},{"NoteNumber":55,"Velocity":41,"Duration":101351,"SoundDuration":101351,"Delta":68713107},{"NoteNumber":40,"Velocity":30,"Duration":101351,"SoundDuration":101351,"Delta":68713107},{"NoteNumber":64,"Velocity":48,"Duration":101010,"SoundDuration":101010,"Delta":68814458},{"NoteNumber":35,"Velocity":35,"Duration":101010,"SoundDuration":101010,"Delta":68814458},{"NoteNumber":67,"Velocity":41,"Duration":101465,"SoundDuration":101465,"Delta":68915468},{"NoteNumber":40,"Velocity":30,"Duration":101465,"SoundDuration":101465,"Delta":68915468},{"NoteNumber":64,"Velocity":40,"Duration":101925,"SoundDuration":101925,"Delta":69016934},{"NoteNumber":43,"Velocity":30,"Duration":101925,"SoundDuration":101925,"Delta":69016934},{"NoteNumber":55,"Velocity":40,"Duration":102505,"SoundDuration":102505,"Delta":69118859},{"NoteNumber":40,"Velocity":30,"Duration":102505,"SoundDuration":102505,"Delta":69118859},{"NoteNumber":59,"Velocity":55,"Duration":410959,"SoundDuration":410959,"Delta":69221365},{"NoteNumber":36,"Velocity":37,"Duration":102739,"SoundDuration":102739,"Delta":69221365},{"NoteNumber":64,"Velocity":41,"Duration":102739,"SoundDuration":102739,"Delta":69324105},{"NoteNumber":40,"Velocity":30,"Duration":102739,"SoundDuration":102739,"Delta":69324105},{"NoteNumber":71,"Velocity":41,"Duration":102739,"SoundDuration":102739,"Delta":69426845},{"NoteNumber":45,"Velocity":30,"Duration":102739,"SoundDuration":102739,"Delta":69426845},{"NoteNumber":64,"Velocity":41,"Duration":102739,"SoundDuration":102739,"Delta":69529584},{"NoteNumber":40,"Velocity":30,"Duration":102739,"SoundDuration":102739,"Delta":69529584},{"NoteNumber":59,"Velocity":53,"Duration":410958,"SoundDuration":410958,"Delta":69632324},{"NoteNumber":36,"Velocity":35,"Duration":102739,"SoundDuration":102739,"Delta":69632324},{"NoteNumber":64,"Velocity":41,"Duration":102739,"SoundDuration":102739,"Delta":69735064},{"NoteNumber":40,"Velocity":30,"Duration":102739,"SoundDuration":102739,"Delta":69735064},{"NoteNumber":71,"Velocity":41,"Duration":102739,"SoundDuration":102739,"Delta":69837804},{"NoteNumber":45,"Velocity":30,"Duration":102739,"SoundDuration":102739,"Delta":69837804},{"NoteNumber":64,"Velocity":41,"Duration":102739,"SoundDuration":102739,"Delta":69940543},{"NoteNumber":40,"Velocity":30,"Duration":102739,"SoundDuration":102739,"Delta":69940543},{"NoteNumber":59,"Velocity":52,"Duration":410959,"SoundDuration":410959,"Delta":70043283},{"NoteNumber":36,"Velocity":35,"Duration":102739,"SoundDuration":102739,"Delta":70043283},{"NoteNumber":64,"Velocity":41,"Duration":102739,"SoundDuration":102739,"Delta":70146023},{"NoteNumber":40,"Velocity":30,"Duration":102739,"SoundDuration":102739,"Delta":70146023},{"NoteNumber":71,"Velocity":41,"Duration":102739,"SoundDuration":102739,"Delta":70248763},{"NoteNumber":45,"Velocity":30,"Duration":102739,"SoundDuration":102739,"Delta":70248763},{"NoteNumber":64,"Velocity":41,"Duration":102739,"SoundDuration":102739,"Delta":70351502},{"NoteNumber":40,"Velocity":30,"Duration":102739,"SoundDuration":102739,"Delta":70351502},{"NoteNumber":57,"Velocity":52,"Duration":416812,"SoundDuration":416812,"Delta":70454242},{"NoteNumber":36,"Velocity":35,"Duration":103211,"SoundDuration":103211,"Delta":70454242},{"NoteNumber":64,"Velocity":41,"Duration":103807,"SoundDuration":103807,"Delta":70557453},{"NoteNumber":40,"Velocity":30,"Duration":103807,"SoundDuration":103807,"Delta":70557453},{"NoteNumber":69,"Velocity":40,"Duration":104530,"SoundDuration":104530,"Delta":70661260},{"NoteNumber":45,"Velocity":30,"Duration":104530,"SoundDuration":104530,"Delta":70661260},{"NoteNumber":64,"Velocity":40,"Duration":105264,"SoundDuration":105264,"Delta":70765791},{"NoteNumber":40,"Velocity":30,"Duration":105264,"SoundDuration":105264,"Delta":70765791},{"NoteNumber":59,"Velocity":34,"Duration":102739,"SoundDuration":102739,"Delta":70871055},{"NoteNumber":38,"Velocity":27,"Duration":102739,"SoundDuration":102739,"Delta":70871055},{"NoteNumber":62,"Velocity":34,"Duration":102739,"SoundDuration":102739,"Delta":70973795},{"NoteNumber":43,"Velocity":28,"Duration":102739,"SoundDuration":102739,"Delta":70973795},{"NoteNumber":69,"Velocity":40,"Duration":410959,"SoundDuration":410959,"Delta":71076534},{"NoteNumber":47,"Velocity":28,"Duration":102739,"SoundDuration":102739,"Delta":71076534},{"NoteNumber":62,"Velocity":34,"Duration":102739,"SoundDuration":102739,"Delta":71179274},{"NoteNumber":43,"Velocity":28,"Duration":102739,"SoundDuration":102739,"Delta":71179274},{"NoteNumber":59,"Velocity":32,"Duration":102739,"SoundDuration":102739,"Delta":71282014},{"NoteNumber":38,"Velocity":28,"Duration":102739,"SoundDuration":102739,"Delta":71282014},{"NoteNumber":62,"Velocity":34,"Duration":102739,"SoundDuration":102739,"Delta":71384754},{"NoteNumber":43,"Velocity":28,"Duration":102739,"SoundDuration":102739,"Delta":71384754},{"NoteNumber":69,"Velocity":40,"Duration":411194,"SoundDuration":411194,"Delta":71487493},{"NoteNumber":47,"Velocity":28,"Duration":102739,"SoundDuration":102739,"Delta":71487493},{"NoteNumber":62,"Velocity":33,"Duration":102739,"SoundDuration":102739,"Delta":71590233},{"NoteNumber":43,"Velocity":28,"Duration":102739,"SoundDuration":102739,"Delta":71590233},{"NoteNumber":59,"Velocity":32,"Duration":102739,"SoundDuration":102739,"Delta":71692973},{"NoteNumber":38,"Velocity":28,"Duration":102739,"SoundDuration":102739,"Delta":71692973},{"NoteNumber":62,"Velocity":33,"Duration":102975,"SoundDuration":102975,"Delta":71795713},{"NoteNumber":43,"Velocity":28,"Duration":102975,"SoundDuration":102975,"Delta":71795713},{"NoteNumber":69,"Velocity":39,"Duration":413914,"SoundDuration":413914,"Delta":71898688},{"NoteNumber":47,"Velocity":28,"Duration":103092,"SoundDuration":103092,"Delta":71898688},{"NoteNumber":62,"Velocity":33,"Duration":103448,"SoundDuration":103448,"Delta":72001780},{"NoteNumber":43,"Velocity":28,"Duration":103448,"SoundDuration":103448,"Delta":72001780},{"NoteNumber":59,"Velocity":32,"Duration":103567,"SoundDuration":103567,"Delta":72105229},{"NoteNumber":38,"Velocity":29,"Duration":103567,"SoundDuration":103567,"Delta":72105229},{"NoteNumber":62,"Velocity":33,"Duration":103806,"SoundDuration":103806,"Delta":72208796},{"NoteNumber":43,"Velocity":28,"Duration":103806,"SoundDuration":103806,"Delta":72208796},{"NoteNumber":67,"Velocity":39,"Duration":413813,"SoundDuration":413813,"Delta":72312602},{"NoteNumber":47,"Velocity":28,"Duration":104046,"SoundDuration":104046,"Delta":72312602},{"NoteNumber":62,"Velocity":33,"Duration":104287,"SoundDuration":104287,"Delta":72416649},{"NoteNumber":43,"Velocity":28,"Duration":104287,"SoundDuration":104287,"Delta":72416649},{"NoteNumber":60,"Velocity":33,"Duration":102739,"SoundDuration":102739,"Delta":72520937},{"NoteNumber":38,"Velocity":29,"Duration":102739,"SoundDuration":102739,"Delta":72520937},{"NoteNumber":62,"Velocity":33,"Duration":102739,"SoundDuration":102739,"Delta":72623676},{"NoteNumber":45,"Velocity":28,"Duration":102739,"SoundDuration":102739,"Delta":72623676},{"NoteNumber":67,"Velocity":39,"Duration":410959,"SoundDuration":410959,"Delta":72726416},{"NoteNumber":48,"Velocity":28,"Duration":102739,"SoundDuration":102739,"Delta":72726416},{"NoteNumber":62,"Velocity":33,"Duration":102739,"SoundDuration":102739,"Delta":72829156},{"NoteNumber":45,"Velocity":28,"Duration":102739,"SoundDuration":102739,"Delta":72829156},{"NoteNumber":60,"Velocity":31,"Duration":102739,"SoundDuration":102739,"Delta":72931896},{"NoteNumber":38,"Velocity":29,"Duration":102739,"SoundDuration":102739,"Delta":72931896},{"NoteNumber":62,"Velocity":33,"Duration":102739,"SoundDuration":102739,"Delta":73034635},{"NoteNumber":45,"Velocity":28,"Duration":102739,"SoundDuration":102739,"Delta":73034635},{"NoteNumber":66,"Velocity":39,"Duration":410491,"SoundDuration":410491,"Delta":73137375},{"NoteNumber":48,"Velocity":28,"Duration":102739,"SoundDuration":102739,"Delta":73137375},{"NoteNumber":62,"Velocity":33,"Duration":102622,"SoundDuration":102622,"Delta":73240115},{"NoteNumber":45,"Velocity":28,"Duration":102622,"SoundDuration":102622,"Delta":73240115},{"NoteNumber":60,"Velocity":34,"Duration":102389,"SoundDuration":102389,"Delta":73342738},{"NoteNumber":38,"Velocity":29,"Duration":102389,"SoundDuration":102389,"Delta":73342738},{"NoteNumber":62,"Velocity":35,"Duration":102739,"SoundDuration":102739,"Delta":73445127},{"NoteNumber":45,"Velocity":28,"Duration":102739,"SoundDuration":102739,"Delta":73445127},{"NoteNumber":64,"Velocity":40,"Duration":413798,"SoundDuration":413798,"Delta":73547867},{"NoteNumber":48,"Velocity":28,"Duration":102975,"SoundDuration":102975,"Delta":73547867},{"NoteNumber":62,"Velocity":34,"Duration":103329,"SoundDuration":103329,"Delta":73650842},{"NoteNumber":45,"Velocity":28,"Duration":103329,"SoundDuration":103329,"Delta":73650842},{"NoteNumber":60,"Velocity":35,"Duration":103567,"SoundDuration":103567,"Delta":73754171},{"NoteNumber":38,"Velocity":28,"Duration":103567,"SoundDuration":103567,"Delta":73754171},{"NoteNumber":62,"Velocity":34,"Duration":103926,"SoundDuration":103926,"Delta":73857739},{"NoteNumber":45,"Velocity":28,"Duration":103926,"SoundDuration":103926,"Delta":73857739},{"NoteNumber":66,"Velocity":40,"Duration":208696,"SoundDuration":208696,"Delta":73961665},{"NoteNumber":48,"Velocity":28,"Duration":104166,"SoundDuration":104166,"Delta":73961665},{"NoteNumber":62,"Velocity":34,"Duration":104529,"SoundDuration":104529,"Delta":74065832},{"NoteNumber":45,"Velocity":28,"Duration":104529,"SoundDuration":104529,"Delta":74065832},{"NoteNumber":59,"Velocity":40,"Duration":255319,"SoundDuration":255319,"Delta":74170362},{"NoteNumber":71,"Velocity":40,"Duration":255319,"SoundDuration":255319,"Delta":74170362},{"NoteNumber":43,"Velocity":28,"Duration":255319,"SoundDuration":255319,"Delta":74170362},{"NoteNumber":71,"Velocity":47,"Duration":485106,"SoundDuration":485106,"Delta":74425681},{"NoteNumber":71,"Velocity":47,"Duration":485106,"SoundDuration":485106,"Delta":74936319},{"NoteNumber":71,"Velocity":47,"Duration":485106,"SoundDuration":485106,"Delta":75446957},{"NoteNumber":71,"Velocity":44,"Duration":485106,"SoundDuration":485106,"Delta":75957595},{"NoteNumber":72,"Velocity":50,"Duration":511732,"SoundDuration":511732,"Delta":76468233},{"NoteNumber":71,"Velocity":48,"Duration":523484,"SoundDuration":523484,"Delta":76979965},{"NoteNumber":70,"Velocity":48,"Duration":537535,"SoundDuration":537535,"Delta":77503449},{"NoteNumber":69,"Velocity":45,"Duration":303030,"SoundDuration":303030,"Delta":78040985},{"NoteNumber":56,"Velocity":30,"Duration":511853,"SoundDuration":511853,"Delta":78344016},{"NoteNumber":68,"Velocity":36,"Duration":511853,"SoundDuration":511853,"Delta":78344016},{"NoteNumber":40,"Velocity":33,"Duration":1034481,"SoundDuration":1034481,"Delta":78344016},{"NoteNumber":47,"Velocity":27,"Duration":775861,"SoundDuration":775861,"Delta":78602636},{"NoteNumber":56,"Velocity":27,"Duration":245689,"SoundDuration":245689,"Delta":78861257},{"NoteNumber":68,"Velocity":34,"Duration":245689,"SoundDuration":245689,"Delta":78861257},{"NoteNumber":56,"Velocity":27,"Duration":245689,"SoundDuration":245689,"Delta":79119877},{"NoteNumber":68,"Velocity":34,"Duration":245689,"SoundDuration":245689,"Delta":79119877},{"NoteNumber":56,"Velocity":30,"Duration":511853,"SoundDuration":511853,"Delta":79378498},{"NoteNumber":68,"Velocity":36,"Duration":511853,"SoundDuration":511853,"Delta":79378498},{"NoteNumber":40,"Velocity":31,"Duration":1034481,"SoundDuration":1034481,"Delta":79378498},{"NoteNumber":47,"Velocity":27,"Duration":775861,"SoundDuration":775861,"Delta":79637118},{"NoteNumber":56,"Velocity":27,"Duration":245689,"SoundDuration":245689,"Delta":79895739},{"NoteNumber":68,"Velocity":33,"Duration":245689,"SoundDuration":245689,"Delta":79895739},{"NoteNumber":56,"Velocity":27,"Duration":245689,"SoundDuration":245689,"Delta":80154359},{"NoteNumber":68,"Velocity":33,"Duration":245689,"SoundDuration":245689,"Delta":80154359},{"NoteNumber":56,"Velocity":30,"Duration":251046,"SoundDuration":251046,"Delta":80412980},{"NoteNumber":68,"Velocity":36,"Duration":251046,"SoundDuration":251046,"Delta":80412980},{"NoteNumber":42,"Velocity":32,"Duration":2047289,"SoundDuration":2047289,"Delta":80412980},{"NoteNumber":59,"Velocity":27,"Duration":251046,"SoundDuration":251046,"Delta":80664026},{"NoteNumber":71,"Velocity":34,"Duration":251046,"SoundDuration":251046,"Delta":80664026},{"NoteNumber":47,"Velocity":27,"Duration":238493,"SoundDuration":238493,"Delta":80664026},{"NoteNumber":57,"Velocity":27,"Duration":517240,"SoundDuration":517240,"Delta":80915072},{"NoteNumber":69,"Velocity":34,"Duration":517240,"SoundDuration":517240,"Delta":80915072},{"NoteNumber":47,"Velocity":27,"Duration":245689,"SoundDuration":245689,"Delta":80915072},{"NoteNumber":47,"Velocity":27,"Duration":245689,"SoundDuration":245689,"Delta":81173692},{"NoteNumber":47,"Velocity":32,"Duration":254237,"SoundDuration":254237,"Delta":81432313},{"NoteNumber":49,"Velocity":35,"Duration":254237,"SoundDuration":254237,"Delta":81686550},{"NoteNumber":47,"Velocity":31,"Duration":129870,"SoundDuration":129870,"Delta":81940788},{"NoteNumber":47,"Velocity":31,"Duration":129870,"SoundDuration":129870,"Delta":82200528},{"NoteNumber":57,"Velocity":30,"Duration":511853,"SoundDuration":511853,"Delta":82460269},{"NoteNumber":69,"Velocity":36,"Duration":511853,"SoundDuration":511853,"Delta":82460269},{"NoteNumber":42,"Velocity":33,"Duration":1034481,"SoundDuration":1034481,"Delta":82460269},{"NoteNumber":47,"Velocity":27,"Duration":775861,"SoundDuration":775861,"Delta":82718889},{"NoteNumber":57,"Velocity":27,"Duration":245689,"SoundDuration":245689,"Delta":82977510},{"NoteNumber":69,"Velocity":34,"Duration":245689,"SoundDuration":245689,"Delta":82977510},{"NoteNumber":57,"Velocity":27,"Duration":245689,"SoundDuration":245689,"Delta":83236130},{"NoteNumber":69,"Velocity":34,"Duration":245689,"SoundDuration":245689,"Delta":83236130},{"NoteNumber":57,"Velocity":30,"Duration":511853,"SoundDuration":511853,"Delta":83494751},{"NoteNumber":69,"Velocity":36,"Duration":511853,"SoundDuration":511853,"Delta":83494751},{"NoteNumber":42,"Velocity":31,"Duration":1041347,"SoundDuration":1041347,"Delta":83494751},{"NoteNumber":47,"Velocity":27,"Duration":782727,"SoundDuration":782727,"Delta":83753371},{"NoteNumber":57,"Velocity":27,"Duration":245689,"SoundDuration":245689,"Delta":84011992},{"NoteNumber":69,"Velocity":33,"Duration":245689,"SoundDuration":245689,"Delta":84011992},{"NoteNumber":57,"Velocity":27,"Duration":252212,"SoundDuration":252212,"Delta":84270612},{"NoteNumber":69,"Velocity":33,"Duration":252212,"SoundDuration":252212,"Delta":84270612},{"NoteNumber":58,"Velocity":30,"Duration":251046,"SoundDuration":251046,"Delta":84536099},{"NoteNumber":70,"Velocity":36,"Duration":251046,"SoundDuration":251046,"Delta":84536099},{"NoteNumber":44,"Velocity":32,"Duration":2037554,"SoundDuration":2037554,"Delta":84536099},{"NoteNumber":61,"Velocity":27,"Duration":251046,"SoundDuration":251046,"Delta":84787145},{"NoteNumber":73,"Velocity":34,"Duration":251046,"SoundDuration":251046,"Delta":84787145},{"NoteNumber":47,"Velocity":27,"Duration":238493,"SoundDuration":238493,"Delta":84787145},{"NoteNumber":59,"Velocity":27,"Duration":771478,"SoundDuration":771478,"Delta":85038191},{"NoteNumber":71,"Velocity":34,"Duration":771478,"SoundDuration":771478,"Delta":85038191},{"NoteNumber":47,"Velocity":27,"Duration":245689,"SoundDuration":245689,"Delta":85038191},{"NoteNumber":47,"Velocity":27,"Duration":245689,"SoundDuration":245689,"Delta":85296811},{"NoteNumber":47,"Velocity":32,"Duration":254237,"SoundDuration":254237,"Delta":85555432},{"NoteNumber":64,"Velocity":30,"Duration":248962,"SoundDuration":248962,"Delta":85809669},{"NoteNumber":76,"Velocity":43,"Duration":248962,"SoundDuration":248962,"Delta":85809669},{"NoteNumber":49,"Velocity":39,"Duration":248962,"SoundDuration":248962,"Delta":85809669},{"NoteNumber":66,"Velocity":33,"Duration":257510,"SoundDuration":257510,"Delta":86058632},{"NoteNumber":78,"Velocity":47,"Duration":257510,"SoundDuration":257510,"Delta":86058632},{"NoteNumber":47,"Velocity":41,"Duration":128755,"SoundDuration":128755,"Delta":86058632},{"NoteNumber":76,"Velocity":52,"Duration":515021,"SoundDuration":515021,"Delta":86316142},{"NoteNumber":68,"Velocity":36,"Duration":257510,"SoundDuration":257510,"Delta":86316142},{"NoteNumber":80,"Velocity":52,"Duration":257510,"SoundDuration":257510,"Delta":86316142},{"NoteNumber":47,"Velocity":46,"Duration":128755,"SoundDuration":128755,"Delta":86316142},{"NoteNumber":69,"Velocity":41,"Duration":1287552,"SoundDuration":1287552,"Delta":86573653},{"NoteNumber":81,"Velocity":59,"Duration":1287552,"SoundDuration":1287552,"Delta":86573653},{"NoteNumber":54,"Velocity":54,"Duration":1030041,"SoundDuration":1030041,"Delta":86573653},{"NoteNumber":75,"Velocity":54,"Duration":257510,"SoundDuration":257510,"Delta":86831163},{"NoteNumber":59,"Velocity":43,"Duration":257510,"SoundDuration":257510,"Delta":86831163},{"NoteNumber":73,"Velocity":51,"Duration":257510,"SoundDuration":257510,"Delta":87088674},{"NoteNumber":61,"Velocity":41,"Duration":257510,"SoundDuration":257510,"Delta":87088674},{"NoteNumber":71,"Velocity":50,"Duration":257510,"SoundDuration":257510,"Delta":87346184},{"NoteNumber":63,"Velocity":40,"Duration":257510,"SoundDuration":257510,"Delta":87346184},{"NoteNumber":71,"Velocity":46,"Duration":1044024,"SoundDuration":1044024,"Delta":87603695},{"NoteNumber":52,"Velocity":30,"Duration":515021,"SoundDuration":515021,"Delta":87603695},{"NoteNumber":64,"Velocity":45,"Duration":515021,"SoundDuration":515021,"Delta":87603695},{"NoteNumber":68,"Velocity":27,"Duration":257510,"SoundDuration":257510,"Delta":87861205},{"NoteNumber":80,"Velocity":40,"Duration":257510,"SoundDuration":257510,"Delta":87861205},{"NoteNumber":69,"Velocity":27,"Duration":257510,"SoundDuration":257510,"Delta":88118716},{"NoteNumber":78,"Velocity":40,"Duration":257510,"SoundDuration":257510,"Delta":88118716},{"NoteNumber":54,"Velocity":27,"Duration":257510,"SoundDuration":257510,"Delta":88118716},{"NoteNumber":63,"Velocity":39,"Duration":257510,"SoundDuration":257510,"Delta":88118716},{"NoteNumber":71,"Velocity":27,"Duration":271493,"SoundDuration":271493,"Delta":88376226},{"NoteNumber":76,"Velocity":40,"Duration":271493,"SoundDuration":271493,"Delta":88376226},{"NoteNumber":56,"Velocity":26,"Duration":271493,"SoundDuration":271493,"Delta":88376226},{"NoteNumber":64,"Velocity":37,"Duration":271493,"SoundDuration":271493,"Delta":88376226},{"NoteNumber":71,"Velocity":34,"Duration":515021,"SoundDuration":515021,"Delta":88647719},{"NoteNumber":76,"Velocity":47,"Duration":257510,"SoundDuration":257510,"Delta":88647719},{"NoteNumber":66,"Velocity":45,"Duration":515021,"SoundDuration":515021,"Delta":88647719},{"NoteNumber":54,"Velocity":30,"Duration":515021,"SoundDuration":515021,"Delta":88647719},{"NoteNumber":75,"Velocity":41,"Duration":257510,"SoundDuration":257510,"Delta":88905230},{"NoteNumber":70,"Velocity":29,"Duration":524017,"SoundDuration":524017,"Delta":89162740},{"NoteNumber":75,"Velocity":44,"Duration":262008,"SoundDuration":262008,"Delta":89162740},{"NoteNumber":64,"Velocity":36,"Duration":524017,"SoundDuration":524017,"Delta":89162740},{"NoteNumber":54,"Velocity":25,"Duration":524017,"SoundDuration":524017,"Delta":89162740},{"NoteNumber":73,"Velocity":36,"Duration":262008,"SoundDuration":262008,"Delta":89424749},{"NoteNumber":71,"Velocity":36,"Duration":280373,"SoundDuration":280373,"Delta":89686757},{"NoteNumber":63,"Velocity":36,"Duration":280373,"SoundDuration":280373,"Delta":89686757},{"NoteNumber":59,"Velocity":25,"Duration":280373,"SoundDuration":280373,"Delta":89686757},{"NoteNumber":83,"Velocity":39,"Duration":263158,"SoundDuration":263158,"Delta":89967131},{"NoteNumber":71,"Velocity":27,"Duration":263158,"SoundDuration":263158,"Delta":89967131},{"NoteNumber":70,"Velocity":26,"Duration":263157,"SoundDuration":263157,"Delta":90230289},{"NoteNumber":82,"Velocity":36,"Duration":263157,"SoundDuration":263157,"Delta":90230289},{"NoteNumber":69,"Velocity":25,"Duration":263158,"SoundDuration":263158,"Delta":90493447},{"NoteNumber":81,"Velocity":36,"Duration":263158,"SoundDuration":263158,"Delta":90493447},{"NoteNumber":68,"Velocity":30,"Duration":511853,"SoundDuration":511853,"Delta":90756605},{"NoteNumber":80,"Velocity":36,"Duration":511853,"SoundDuration":511853,"Delta":90756605},{"NoteNumber":52,"Velocity":33,"Duration":1034481,"SoundDuration":1034481,"Delta":90756605},{"NoteNumber":59,"Velocity":27,"Duration":775861,"SoundDuration":775861,"Delta":91015226},{"NoteNumber":68,"Velocity":27,"Duration":245689,"SoundDuration":245689,"Delta":91273846},{"NoteNumber":80,"Velocity":34,"Duration":245689,"SoundDuration":245689,"Delta":91273846},{"NoteNumber":68,"Velocity":27,"Duration":245689,"SoundDuration":245689,"Delta":91532467},{"NoteNumber":80,"Velocity":34,"Duration":245689,"SoundDuration":245689,"Delta":91532467},{"NoteNumber":68,"Velocity":30,"Duration":511853,"SoundDuration":511853,"Delta":91791087},{"NoteNumber":80,"Velocity":36,"Duration":511853,"SoundDuration":511853,"Delta":91791087},{"NoteNumber":52,"Velocity":31,"Duration":1034481,"SoundDuration":1034481,"Delta":91791087},{"NoteNumber":59,"Velocity":27,"Duration":775861,"SoundDuration":775861,"Delta":92049708},{"NoteNumber":68,"Velocity":27,"Duration":245689,"SoundDuration":245689,"Delta":92308328},{"NoteNumber":80,"Velocity":33,"Duration":245689,"SoundDuration":245689,"Delta":92308328},{"NoteNumber":68,"Velocity":27,"Duration":245689,"SoundDuration":245689,"Delta":92566949},{"NoteNumber":80,"Velocity":33,"Duration":245689,"SoundDuration":245689,"Delta":92566949},{"NoteNumber":68,"Velocity":30,"Duration":251046,"SoundDuration":251046,"Delta":92825569},{"NoteNumber":80,"Velocity":36,"Duration":251046,"SoundDuration":251046,"Delta":92825569},{"NoteNumber":54,"Velocity":32,"Duration":2042517,"SoundDuration":2042517,"Delta":92825569},{"NoteNumber":71,"Velocity":27,"Duration":251046,"SoundDuration":251046,"Delta":93076615},{"NoteNumber":83,"Velocity":34,"Duration":251046,"SoundDuration":251046,"Delta":93076615},{"NoteNumber":59,"Velocity":27,"Duration":238493,"SoundDuration":238493,"Delta":93076615},{"NoteNumber":69,"Velocity":27,"Duration":517240,"SoundDuration":517240,"Delta":93327661},{"NoteNumber":81,"Velocity":34,"Duration":517240,"SoundDuration":517240,"Delta":93327661},{"NoteNumber":59,"Velocity":27,"Duration":245689,"SoundDuration":245689,"Delta":93327661},{"NoteNumber":59,"Velocity":27,"Duration":245689,"SoundDuration":245689,"Delta":93586282},{"NoteNumber":58,"Velocity":32,"Duration":123456,"SoundDuration":123456,"Delta":93844902},{"NoteNumber":59,"Velocity":27,"Duration":123456,"SoundDuration":123456,"Delta":93968359},{"NoteNumber":61,"Velocity":27,"Duration":123456,"SoundDuration":123456,"Delta":94091816},{"NoteNumber":59,"Velocity":29,"Duration":133333,"SoundDuration":133333,"Delta":94215272},{"NoteNumber":59,"Velocity":31,"Duration":129870,"SoundDuration":129870,"Delta":94348606},{"NoteNumber":59,"Velocity":31,"Duration":129870,"SoundDuration":129870,"Delta":94608346},{"NoteNumber":69,"Velocity":30,"Duration":511853,"SoundDuration":511853,"Delta":94868087},{"NoteNumber":81,"Velocity":36,"Duration":511853,"SoundDuration":511853,"Delta":94868087},{"NoteNumber":54,"Velocity":33,"Duration":1034481,"SoundDuration":1034481,"Delta":94868087},{"NoteNumber":59,"Velocity":27,"Duration":775861,"SoundDuration":775861,"Delta":95126707},{"NoteNumber":69,"Velocity":27,"Duration":245689,"SoundDuration":245689,"Delta":95385328},{"NoteNumber":81,"Velocity":34,"Duration":245689,"SoundDuration":245689,"Delta":95385328},{"NoteNumber":69,"Velocity":27,"Duration":245689,"SoundDuration":245689,"Delta":95643948},{"NoteNumber":81,"Velocity":34,"Duration":245689,"SoundDuration":245689,"Delta":95643948},{"NoteNumber":69,"Velocity":30,"Duration":511853,"SoundDuration":511853,"Delta":95902569},{"NoteNumber":81,"Velocity":36,"Duration":511853,"SoundDuration":511853,"Delta":95902569},{"NoteNumber":54,"Velocity":31,"Duration":1058055,"SoundDuration":1058055,"Delta":95902569},{"NoteNumber":59,"Velocity":27,"Duration":799435,"SoundDuration":799435,"Delta":96161189},{"NoteNumber":69,"Velocity":27,"Duration":251101,"SoundDuration":251101,"Delta":96419810},{"NoteNumber":81,"Velocity":33,"Duration":251101,"SoundDuration":251101,"Delta":96419810},{"NoteNumber":69,"Velocity":27,"Duration":262672,"SoundDuration":262672,"Delta":96684127},{"NoteNumber":81,"Velocity":33,"Duration":262672,"SoundDuration":262672,"Delta":96684127},{"NoteNumber":70,"Velocity":30,"Duration":252100,"SoundDuration":252100,"Delta":96960624},{"NoteNumber":82,"Velocity":36,"Duration":252100,"SoundDuration":252100,"Delta":96960624},{"NoteNumber":55,"Velocity":32,"Duration":2048081,"SoundDuration":2048081,"Delta":96960624},{"NoteNumber":72,"Velocity":27,"Duration":252101,"SoundDuration":252101,"Delta":97212725},{"NoteNumber":84,"Velocity":34,"Duration":252101,"SoundDuration":252101,"Delta":97212725},{"NoteNumber":59,"Velocity":27,"Duration":239495,"SoundDuration":239495,"Delta":97212725},{"NoteNumber":71,"Velocity":27,"Duration":764154,"SoundDuration":764154,"Delta":97464826},{"NoteNumber":83,"Velocity":34,"Duration":764154,"SoundDuration":764154,"Delta":97464826},{"NoteNumber":59,"Velocity":27,"Duration":245689,"SoundDuration":245689,"Delta":97464826},{"NoteNumber":59,"Velocity":27,"Duration":245689,"SoundDuration":245689,"Delta":97723447},{"NoteNumber":58,"Velocity":32,"Duration":123456,"SoundDuration":123456,"Delta":97982067},{"NoteNumber":59,"Velocity":27,"Duration":123456,"SoundDuration":123456,"Delta":98105524},{"NoteNumber":60,"Velocity":27,"Duration":123456,"SoundDuration":123456,"Delta":98228981},{"NoteNumber":59,"Velocity":27,"Duration":134529,"SoundDuration":134529,"Delta":98352437},{"NoteNumber":59,"Velocity":31,"Duration":130434,"SoundDuration":130434,"Delta":98486967},{"NoteNumber":59,"Velocity":31,"Duration":130434,"SoundDuration":130434,"Delta":98747836},{"NoteNumber":71,"Velocity":45,"Duration":252100,"SoundDuration":252100,"Delta":99008706},{"NoteNumber":83,"Velocity":45,"Duration":252100,"SoundDuration":252100,"Delta":99008706},{"NoteNumber":57,"Velocity":32,"Duration":2060954,"SoundDuration":2060954,"Delta":99008706},{"NoteNumber":74,"Velocity":40,"Duration":252101,"SoundDuration":252101,"Delta":99260807},{"NoteNumber":86,"Velocity":40,"Duration":252101,"SoundDuration":252101,"Delta":99260807},{"NoteNumber":64,"Velocity":27,"Duration":239495,"SoundDuration":239495,"Delta":99260807},{"NoteNumber":72,"Velocity":41,"Duration":530113,"SoundDuration":530113,"Delta":99512908},{"NoteNumber":84,"Velocity":41,"Duration":530113,"SoundDuration":530113,"Delta":99512908},{"NoteNumber":64,"Velocity":27,"Duration":245689,"SoundDuration":245689,"Delta":99512908},{"NoteNumber":64,"Velocity":27,"Duration":257918,"SoundDuration":257918,"Delta":99771528},{"NoteNumber":76,"Velocity":54,"Duration":765768,"SoundDuration":765768,"Delta":100043021},{"NoteNumber":88,"Velocity":54,"Duration":765768,"SoundDuration":765768,"Delta":100043021},{"NoteNumber":59,"Velocity":36,"Duration":123456,"SoundDuration":123456,"Delta":100043021},{"NoteNumber":60,"Velocity":32,"Duration":123456,"SoundDuration":123456,"Delta":100166478},{"NoteNumber":62,"Velocity":35,"Duration":123456,"SoundDuration":123456,"Delta":100289935},{"NoteNumber":60,"Velocity":37,"Duration":134529,"SoundDuration":134529,"Delta":100413391},{"NoteNumber":62,"Velocity":35,"Duration":260869,"SoundDuration":260869,"Delta":100547921},{"NoteNumber":72,"Velocity":43,"Duration":260869,"SoundDuration":260869,"Delta":100808790},{"NoteNumber":84,"Velocity":43,"Duration":260869,"SoundDuration":260869,"Delta":100808790},{"NoteNumber":64,"Velocity":34,"Duration":260869,"SoundDuration":260869,"Delta":100808790},{"NoteNumber":70,"Velocity":45,"Duration":252100,"SoundDuration":252100,"Delta":101069660},{"NoteNumber":82,"Velocity":45,"Duration":252100,"SoundDuration":252100,"Delta":101069660},{"NoteNumber":55,"Velocity":32,"Duration":2060954,"SoundDuration":2060954,"Delta":101069660},{"NoteNumber":72,"Velocity":40,"Duration":252101,"SoundDuration":252101,"Delta":101321761},{"NoteNumber":84,"Velocity":40,"Duration":252101,"SoundDuration":252101,"Delta":101321761},{"NoteNumber":64,"Velocity":27,"Duration":239495,"SoundDuration":239495,"Delta":101321761},{"NoteNumber":71,"Velocity":41,"Duration":530113,"SoundDuration":530113,"Delta":101573862},{"NoteNumber":83,"Velocity":41,"Duration":530113,"SoundDuration":530113,"Delta":101573862},{"NoteNumber":64,"Velocity":27,"Duration":245689,"SoundDuration":245689,"Delta":101573862},{"NoteNumber":64,"Velocity":27,"Duration":257918,"SoundDuration":257918,"Delta":101832482},{"NoteNumber":76,"Velocity":54,"Duration":765768,"SoundDuration":765768,"Delta":102103975},{"NoteNumber":88,"Velocity":54,"Duration":765768,"SoundDuration":765768,"Delta":102103975},{"NoteNumber":58,"Velocity":36,"Duration":123456,"SoundDuration":123456,"Delta":102103975},{"NoteNumber":59,"Velocity":33,"Duration":123456,"SoundDuration":123456,"Delta":102227432},{"NoteNumber":60,"Velocity":35,"Duration":123456,"SoundDuration":123456,"Delta":102350889},{"NoteNumber":59,"Velocity":38,"Duration":134529,"SoundDuration":134529,"Delta":102474345},{"NoteNumber":64,"Velocity":40,"Duration":260869,"SoundDuration":260869,"Delta":102608875},{"NoteNumber":71,"Velocity":43,"Duration":260869,"SoundDuration":260869,"Delta":102869744},{"NoteNumber":83,"Velocity":43,"Duration":260869,"SoundDuration":260869,"Delta":102869744},{"NoteNumber":67,"Velocity":34,"Duration":260869,"SoundDuration":260869,"Delta":102869744},{"NoteNumber":69,"Velocity":39,"Duration":260869,"SoundDuration":260869,"Delta":103130614},{"NoteNumber":81,"Velocity":46,"Duration":260869,"SoundDuration":260869,"Delta":103130614},{"NoteNumber":54,"Velocity":33,"Duration":260869,"SoundDuration":260869,"Delta":103130614},{"NoteNumber":71,"Velocity":41,"Duration":255319,"SoundDuration":255319,"Delta":103391483},{"NoteNumber":83,"Velocity":49,"Duration":255319,"SoundDuration":255319,"Delta":103391483},{"NoteNumber":55,"Velocity":36,"Duration":255319,"SoundDuration":255319,"Delta":103391483},{"NoteNumber":72,"Velocity":51,"Duration":255319,"SoundDuration":255319,"Delta":103646802},{"NoteNumber":84,"Velocity":51,"Duration":255319,"SoundDuration":255319,"Delta":103646802},{"NoteNumber":59,"Velocity":39,"Duration":255319,"SoundDuration":255319,"Delta":103646802},{"NoteNumber":57,"Velocity":33,"Duration":255319,"SoundDuration":255319,"Delta":103646802},{"NoteNumber":69,"Velocity":39,"Duration":263158,"SoundDuration":263158,"Delta":103902121},{"NoteNumber":81,"Velocity":46,"Duration":263158,"SoundDuration":263158,"Delta":103902121},{"NoteNumber":59,"Velocity":35,"Duration":263158,"SoundDuration":263158,"Delta":103902121},{"NoteNumber":54,"Velocity":29,"Duration":263158,"SoundDuration":263158,"Delta":103902121},{"NoteNumber":67,"Velocity":37,"Duration":263157,"SoundDuration":263157,"Delta":104165279},{"NoteNumber":79,"Velocity":45,"Duration":263157,"SoundDuration":263157,"Delta":104165279},{"NoteNumber":52,"Velocity":33,"Duration":263157,"SoundDuration":263157,"Delta":104165279},{"NoteNumber":70,"Velocity":39,"Duration":257510,"SoundDuration":257510,"Delta":104428437},{"NoteNumber":82,"Velocity":46,"Duration":257510,"SoundDuration":257510,"Delta":104428437},{"NoteNumber":54,"Velocity":36,"Duration":257510,"SoundDuration":257510,"Delta":104428437},{"NoteNumber":71,"Velocity":41,"Duration":257510,"SoundDuration":257510,"Delta":104685948},{"NoteNumber":83,"Velocity":49,"Duration":257510,"SoundDuration":257510,"Delta":104685948},{"NoteNumber":59,"Velocity":41,"Duration":257510,"SoundDuration":257510,"Delta":104685948},{"NoteNumber":55,"Velocity":34,"Duration":257510,"SoundDuration":257510,"Delta":104685948},{"NoteNumber":67,"Velocity":37,"Duration":266666,"SoundDuration":266666,"Delta":104943458},{"NoteNumber":79,"Velocity":45,"Duration":266666,"SoundDuration":266666,"Delta":104943458},{"NoteNumber":59,"Velocity":36,"Duration":266666,"SoundDuration":266666,"Delta":104943458},{"NoteNumber":52,"Velocity":30,"Duration":266666,"SoundDuration":266666,"Delta":104943458},{"NoteNumber":66,"Velocity":36,"Duration":1045888,"SoundDuration":1045888,"Delta":105210125},{"NoteNumber":75,"Velocity":36,"Duration":1045888,"SoundDuration":1045888,"Delta":105210125},{"NoteNumber":78,"Velocity":43,"Duration":1045888,"SoundDuration":1045888,"Delta":105210125},{"NoteNumber":59,"Velocity":43,"Duration":266666,"SoundDuration":266666,"Delta":105210125},{"NoteNumber":47,"Velocity":36,"Duration":1045888,"SoundDuration":1045888,"Delta":105210125},{"NoteNumber":58,"Velocity":39,"Duration":259740,"SoundDuration":259740,"Delta":105476791},{"NoteNumber":59,"Velocity":42,"Duration":259740,"SoundDuration":259740,"Delta":105736532},{"NoteNumber":60,"Velocity":44,"Duration":259740,"SoundDuration":259740,"Delta":105996272},{"NoteNumber":59,"Velocity":47,"Duration":260305,"SoundDuration":260305,"Delta":106256013},{"NoteNumber":57,"Velocity":44,"Duration":262968,"SoundDuration":262968,"Delta":106516318},{"NoteNumber":54,"Velocity":44,"Duration":265489,"SoundDuration":265489,"Delta":106779286},{"NoteNumber":51,"Velocity":43,"Duration":266666,"SoundDuration":266666,"Delta":107044776},{"NoteNumber":57,"Velocity":39,"Duration":262008,"SoundDuration":262008,"Delta":107311442},{"NoteNumber":69,"Velocity":46,"Duration":262008,"SoundDuration":262008,"Delta":107311442},{"NoteNumber":42,"Velocity":33,"Duration":262008,"SoundDuration":262008,"Delta":107311442},{"NoteNumber":59,"Velocity":41,"Duration":255319,"SoundDuration":255319,"Delta":107573451},{"NoteNumber":71,"Velocity":49,"Duration":255319,"SoundDuration":255319,"Delta":107573451},{"NoteNumber":43,"Velocity":36,"Duration":255319,"SoundDuration":255319,"Delta":107573451},{"NoteNumber":60,"Velocity":51,"Duration":255319,"SoundDuration":255319,"Delta":107828770},{"NoteNumber":72,"Velocity":51,"Duration":255319,"SoundDuration":255319,"Delta":107828770},{"NoteNumber":47,"Velocity":39,"Duration":255319,"SoundDuration":255319,"Delta":107828770},{"NoteNumber":45,"Velocity":33,"Duration":255319,"SoundDuration":255319,"Delta":107828770},{"NoteNumber":57,"Velocity":39,"Duration":263158,"SoundDuration":263158,"Delta":108084089},{"NoteNumber":69,"Velocity":46,"Duration":263158,"SoundDuration":263158,"Delta":108084089},{"NoteNumber":47,"Velocity":35,"Duration":263158,"SoundDuration":263158,"Delta":108084089},{"NoteNumber":42,"Velocity":29,"Duration":263158,"SoundDuration":263158,"Delta":108084089},{"NoteNumber":55,"Velocity":37,"Duration":263157,"SoundDuration":263157,"Delta":108347247},{"NoteNumber":67,"Velocity":45,"Duration":263157,"SoundDuration":263157,"Delta":108347247},{"NoteNumber":40,"Velocity":33,"Duration":263157,"SoundDuration":263157,"Delta":108347247},{"NoteNumber":58,"Velocity":39,"Duration":257510,"SoundDuration":257510,"Delta":108610405},{"NoteNumber":70,"Velocity":46,"Duration":257510,"SoundDuration":257510,"Delta":108610405},{"NoteNumber":42,"Velocity":36,"Duration":257510,"SoundDuration":257510,"Delta":108610405},{"NoteNumber":59,"Velocity":41,"Duration":257510,"SoundDuration":257510,"Delta":108867915},{"NoteNumber":71,"Velocity":49,"Duration":257510,"SoundDuration":257510,"Delta":108867915},{"NoteNumber":47,"Velocity":41,"Duration":257510,"SoundDuration":257510,"Delta":108867915},{"NoteNumber":43,"Velocity":34,"Duration":257510,"SoundDuration":257510,"Delta":108867915},{"NoteNumber":55,"Velocity":37,"Duration":266666,"SoundDuration":266666,"Delta":109125426},{"NoteNumber":67,"Velocity":45,"Duration":266666,"SoundDuration":266666,"Delta":109125426},{"NoteNumber":47,"Velocity":36,"Duration":266666,"SoundDuration":266666,"Delta":109125426},{"NoteNumber":40,"Velocity":30,"Duration":266666,"SoundDuration":266666,"Delta":109125426},{"NoteNumber":54,"Velocity":36,"Duration":1045888,"SoundDuration":1045888,"Delta":109392092},{"NoteNumber":63,"Velocity":36,"Duration":1045888,"SoundDuration":1045888,"Delta":109392092},{"NoteNumber":66,"Velocity":43,"Duration":1045888,"SoundDuration":1045888,"Delta":109392092},{"NoteNumber":35,"Velocity":43,"Duration":520995,"SoundDuration":520995,"Delta":109392092},{"NoteNumber":47,"Velocity":43,"Duration":520995,"SoundDuration":520995,"Delta":109392092},{"NoteNumber":35,"Velocity":36,"Duration":246753,"SoundDuration":246753,"Delta":109918499},{"NoteNumber":47,"Velocity":36,"Duration":246753,"SoundDuration":246753,"Delta":109918499},{"NoteNumber":35,"Velocity":36,"Duration":246753,"SoundDuration":246753,"Delta":110178240},{"NoteNumber":47,"Velocity":36,"Duration":246753,"SoundDuration":246753,"Delta":110178240},{"NoteNumber":35,"Velocity":43,"Duration":517416,"SoundDuration":517416,"Delta":110437980},{"NoteNumber":47,"Velocity":43,"Duration":517416,"SoundDuration":517416,"Delta":110437980},{"NoteNumber":62,"Velocity":40,"Duration":263158,"SoundDuration":263158,"Delta":110697721},{"NoteNumber":66,"Velocity":40,"Duration":263158,"SoundDuration":263158,"Delta":110697721},{"NoteNumber":61,"Velocity":42,"Duration":263157,"SoundDuration":263157,"Delta":110960879},{"NoteNumber":64,"Velocity":42,"Duration":263157,"SoundDuration":263157,"Delta":110960879},{"NoteNumber":66,"Velocity":42,"Duration":263157,"SoundDuration":263157,"Delta":110960879},{"NoteNumber":35,"Velocity":36,"Duration":250000,"SoundDuration":250000,"Delta":110960879},{"NoteNumber":47,"Velocity":36,"Duration":250000,"SoundDuration":250000,"Delta":110960879},{"NoteNumber":59,"Velocity":44,"Duration":263158,"SoundDuration":263158,"Delta":111224037},{"NoteNumber":62,"Velocity":44,"Duration":263158,"SoundDuration":263158,"Delta":111224037},{"NoteNumber":66,"Velocity":44,"Duration":263158,"SoundDuration":263158,"Delta":111224037},{"NoteNumber":35,"Velocity":37,"Duration":250000,"SoundDuration":250000,"Delta":111224037},{"NoteNumber":47,"Velocity":37,"Duration":250000,"SoundDuration":250000,"Delta":111224037},{"NoteNumber":56,"Velocity":45,"Duration":792208,"SoundDuration":792208,"Delta":111487195},{"NoteNumber":66,"Velocity":45,"Duration":532468,"SoundDuration":532468,"Delta":111487195},{"NoteNumber":35,"Velocity":43,"Duration":259740,"SoundDuration":259740,"Delta":111487195},{"NoteNumber":47,"Velocity":43,"Duration":259740,"SoundDuration":259740,"Delta":111487195},{"NoteNumber":38,"Velocity":36,"Duration":272727,"SoundDuration":272727,"Delta":111746935},{"NoteNumber":50,"Velocity":36,"Duration":272727,"SoundDuration":272727,"Delta":111746935},{"NoteNumber":65,"Velocity":44,"Duration":259740,"SoundDuration":259740,"Delta":112019663},{"NoteNumber":37,"Velocity":36,"Duration":779221,"SoundDuration":779221,"Delta":112019663},{"NoteNumber":49,"Velocity":36,"Duration":779221,"SoundDuration":779221,"Delta":112019663},{"NoteNumber":57,"Velocity":45,"Duration":259740,"SoundDuration":259740,"Delta":112279403},{"NoteNumber":61,"Velocity":45,"Duration":259740,"SoundDuration":259740,"Delta":112279403},{"NoteNumber":66,"Velocity":45,"Duration":259740,"SoundDuration":259740,"Delta":112279403},{"NoteNumber":61,"Velocity":47,"Duration":519480,"SoundDuration":519480,"Delta":112539144},{"NoteNumber":65,"Velocity":47,"Duration":519480,"SoundDuration":519480,"Delta":112539144},{"NoteNumber":68,"Velocity":47,"Duration":519480,"SoundDuration":519480,"Delta":112539144},{"NoteNumber":35,"Velocity":36,"Duration":259740,"SoundDuration":259740,"Delta":112798884},{"NoteNumber":47,"Velocity":36,"Duration":259740,"SoundDuration":259740,"Delta":112798884},{"NoteNumber":61,"Velocity":47,"Duration":259740,"SoundDuration":259740,"Delta":113058625},{"NoteNumber":66,"Velocity":47,"Duration":259740,"SoundDuration":259740,"Delta":113058625},{"NoteNumber":69,"Velocity":47,"Duration":259740,"SoundDuration":259740,"Delta":113058625},{"NoteNumber":33,"Velocity":36,"Duration":259740,"SoundDuration":259740,"Delta":113058625},{"NoteNumber":45,"Velocity":36,"Duration":259740,"SoundDuration":259740,"Delta":113058625},{"NoteNumber":61,"Velocity":47,"Duration":273972,"SoundDuration":273972,"Delta":113318365},{"NoteNumber":65,"Velocity":47,"Duration":273972,"SoundDuration":273972,"Delta":113318365},{"NoteNumber":73,"Velocity":47,"Duration":273972,"SoundDuration":273972,"Delta":113318365},{"NoteNumber":32,"Velocity":36,"Duration":273972,"SoundDuration":273972,"Delta":113318365},{"NoteNumber":44,"Velocity":36,"Duration":273972,"SoundDuration":273972,"Delta":113318365},{"NoteNumber":61,"Velocity":51,"Duration":782639,"SoundDuration":782639,"Delta":113592338},{"NoteNumber":66,"Velocity":51,"Duration":782639,"SoundDuration":782639,"Delta":113592338},{"NoteNumber":71,"Velocity":51,"Duration":519480,"SoundDuration":519480,"Delta":113592338},{"NoteNumber":30,"Velocity":40,"Duration":1305537,"SoundDuration":1305537,"Delta":113592338},{"NoteNumber":42,"Velocity":40,"Duration":1305537,"SoundDuration":1305537,"Delta":113592338},{"NoteNumber":69,"Velocity":45,"Duration":263158,"SoundDuration":263158,"Delta":114111819},{"NoteNumber":59,"Velocity":45,"Duration":263157,"SoundDuration":263157,"Delta":114374977},{"NoteNumber":61,"Velocity":45,"Duration":263157,"SoundDuration":263157,"Delta":114374977},{"NoteNumber":68,"Velocity":45,"Duration":263157,"SoundDuration":263157,"Delta":114374977},{"NoteNumber":57,"Velocity":49,"Duration":779221,"SoundDuration":779221,"Delta":114638135},{"NoteNumber":61,"Velocity":49,"Duration":779221,"SoundDuration":779221,"Delta":114638135},{"NoteNumber":66,"Velocity":49,"Duration":779221,"SoundDuration":779221,"Delta":114638135},{"NoteNumber":32,"Velocity":36,"Duration":259740,"SoundDuration":259740,"Delta":114897875},{"NoteNumber":44,"Velocity":36,"Duration":259740,"SoundDuration":259740,"Delta":114897875},{"NoteNumber":33,"Velocity":36,"Duration":259740,"SoundDuration":259740,"Delta":115157616},{"NoteNumber":45,"Velocity":36,"Duration":259740,"SoundDuration":259740,"Delta":115157616},{"NoteNumber":56,"Velocity":45,"Duration":269058,"SoundDuration":269058,"Delta":115417356},{"NoteNumber":64,"Velocity":45,"Duration":269058,"SoundDuration":269058,"Delta":115417356},{"NoteNumber":34,"Velocity":36,"Duration":269058,"SoundDuration":269058,"Delta":115417356},{"NoteNumber":46,"Velocity":36,"Duration":269058,"SoundDuration":269058,"Delta":115417356},{"NoteNumber":54,"Velocity":46,"Duration":783798,"SoundDuration":783798,"Delta":115686415},{"NoteNumber":64,"Velocity":46,"Duration":519480,"SoundDuration":519480,"Delta":115686415},{"NoteNumber":34,"Velocity":43,"Duration":259740,"SoundDuration":259740,"Delta":115686415},{"NoteNumber":46,"Velocity":43,"Duration":259740,"SoundDuration":259740,"Delta":115686415},{"NoteNumber":37,"Velocity":35,"Duration":259740,"SoundDuration":259740,"Delta":115946155},{"NoteNumber":49,"Velocity":35,"Duration":259740,"SoundDuration":259740,"Delta":115946155},{"NoteNumber":63,"Velocity":45,"Duration":264317,"SoundDuration":264317,"Delta":116205896},{"NoteNumber":35,"Velocity":35,"Duration":792951,"SoundDuration":792951,"Delta":116205896},{"NoteNumber":47,"Velocity":35,"Duration":792951,"SoundDuration":792951,"Delta":116205896},{"NoteNumber":56,"Velocity":45,"Duration":264316,"SoundDuration":264316,"Delta":116470213},{"NoteNumber":59,"Velocity":45,"Duration":264316,"SoundDuration":264316,"Delta":116470213},{"NoteNumber":64,"Velocity":45,"Duration":264316,"SoundDuration":264316,"Delta":116470213},{"NoteNumber":59,"Velocity":49,"Duration":528633,"SoundDuration":528633,"Delta":116734530},{"NoteNumber":63,"Velocity":49,"Duration":528633,"SoundDuration":528633,"Delta":116734530},{"NoteNumber":66,"Velocity":49,"Duration":528633,"SoundDuration":528633,"Delta":116734530},{"NoteNumber":33,"Velocity":35,"Duration":264316,"SoundDuration":264316,"Delta":116998847},{"NoteNumber":45,"Velocity":35,"Duration":264316,"SoundDuration":264316,"Delta":116998847},{"NoteNumber":59,"Velocity":43,"Duration":259740,"SoundDuration":259740,"Delta":117263164},{"NoteNumber":64,"Velocity":43,"Duration":259740,"SoundDuration":259740,"Delta":117263164},{"NoteNumber":68,"Velocity":43,"Duration":259740,"SoundDuration":259740,"Delta":117263164},{"NoteNumber":32,"Velocity":36,"Duration":259740,"SoundDuration":259740,"Delta":117263164},{"NoteNumber":44,"Velocity":36,"Duration":259740,"SoundDuration":259740,"Delta":117263164},{"NoteNumber":59,"Velocity":43,"Duration":259740,"SoundDuration":259740,"Delta":117522904},{"NoteNumber":63,"Velocity":43,"Duration":259740,"SoundDuration":259740,"Delta":117522904},{"NoteNumber":71,"Velocity":43,"Duration":259740,"SoundDuration":259740,"Delta":117522904},{"NoteNumber":30,"Velocity":36,"Duration":259740,"SoundDuration":259740,"Delta":117522904},{"NoteNumber":42,"Velocity":36,"Duration":259740,"SoundDuration":259740,"Delta":117522904},{"NoteNumber":59,"Velocity":47,"Duration":792982,"SoundDuration":792982,"Delta":117782645},{"NoteNumber":64,"Velocity":47,"Duration":792982,"SoundDuration":792982,"Delta":117782645},{"NoteNumber":69,"Velocity":47,"Duration":526315,"SoundDuration":526315,"Delta":117782645},{"NoteNumber":40,"Velocity":37,"Duration":1610107,"SoundDuration":1610107,"Delta":117782645},{"NoteNumber":68,"Velocity":39,"Duration":266666,"SoundDuration":266666,"Delta":118308961},{"NoteNumber":57,"Velocity":37,"Duration":266666,"SoundDuration":266666,"Delta":118575627},{"NoteNumber":59,"Velocity":37,"Duration":266666,"SoundDuration":266666,"Delta":118575627},{"NoteNumber":66,"Velocity":37,"Duration":266666,"SoundDuration":266666,"Delta":118575627},{"NoteNumber":56,"Velocity":43,"Duration":550459,"SoundDuration":550459,"Delta":118842294},{"NoteNumber":59,"Velocity":43,"Duration":550459,"SoundDuration":550459,"Delta":118842294},{"NoteNumber":64,"Velocity":43,"Duration":550459,"SoundDuration":550459,"Delta":118842294},{"NoteNumber":56,"Velocity":36,"Duration":588234,"SoundDuration":588234,"Delta":119392753},{"NoteNumber":59,"Velocity":36,"Duration":588234,"SoundDuration":588234,"Delta":119392753},{"NoteNumber":64,"Velocity":36,"Duration":588234,"SoundDuration":588234,"Delta":119392753},{"NoteNumber":38,"Velocity":34,"Duration":588234,"SoundDuration":588234,"Delta":119392753},{"NoteNumber":60,"Velocity":30,"Duration":116580,"SoundDuration":116580,"Delta":119980988},{"NoteNumber":64,"Velocity":36,"Duration":116580,"SoundDuration":116580,"Delta":119980988},{"NoteNumber":36,"Velocity":31,"Duration":116580,"SoundDuration":116580,"Delta":119980988},{"NoteNumber":55,"Velocity":30,"Duration":115979,"SoundDuration":115979,"Delta":120097568},{"NoteNumber":43,"Velocity":27,"Duration":115979,"SoundDuration":115979,"Delta":120097568},{"NoteNumber":60,"Velocity":31,"Duration":115237,"SoundDuration":115237,"Delta":120213548},{"NoteNumber":64,"Velocity":36,"Duration":115237,"SoundDuration":115237,"Delta":120213548},{"NoteNumber":36,"Velocity":32,"Duration":115237,"SoundDuration":115237,"Delta":120213548},{"NoteNumber":55,"Velocity":32,"Duration":114649,"SoundDuration":114649,"Delta":120328785},{"NoteNumber":43,"Velocity":29,"Duration":114649,"SoundDuration":114649,"Delta":120328785},{"NoteNumber":60,"Velocity":32,"Duration":113924,"SoundDuration":113924,"Delta":120443435},{"NoteNumber":64,"Velocity":38,"Duration":113924,"SoundDuration":113924,"Delta":120443435},{"NoteNumber":36,"Velocity":33,"Duration":113924,"SoundDuration":113924,"Delta":120443435},{"NoteNumber":55,"Velocity":33,"Duration":113208,"SoundDuration":113208,"Delta":120557360},{"NoteNumber":43,"Velocity":30,"Duration":113208,"SoundDuration":113208,"Delta":120557360},{"NoteNumber":60,"Velocity":34,"Duration":112500,"SoundDuration":112500,"Delta":120670568},{"NoteNumber":64,"Velocity":40,"Duration":112500,"SoundDuration":112500,"Delta":120670568},{"NoteNumber":36,"Velocity":35,"Duration":112500,"SoundDuration":112500,"Delta":120670568},{"NoteNumber":55,"Velocity":34,"Duration":111801,"SoundDuration":111801,"Delta":120783068},{"NoteNumber":43,"Velocity":31,"Duration":111801,"SoundDuration":111801,"Delta":120783068},{"NoteNumber":60,"Velocity":35,"Duration":111248,"SoundDuration":111248,"Delta":120894870},{"NoteNumber":64,"Velocity":41,"Duration":111248,"SoundDuration":111248,"Delta":120894870},{"NoteNumber":36,"Velocity":36,"Duration":111248,"SoundDuration":111248,"Delta":120894870},{"NoteNumber":55,"Velocity":34,"Duration":110565,"SoundDuration":110565,"Delta":121006119},{"NoteNumber":43,"Velocity":31,"Duration":110565,"SoundDuration":110565,"Delta":121006119},{"NoteNumber":60,"Velocity":36,"Duration":109890,"SoundDuration":109890,"Delta":121116684},{"NoteNumber":64,"Velocity":44,"Duration":109890,"SoundDuration":109890,"Delta":121116684},{"NoteNumber":36,"Velocity":38,"Duration":109890,"SoundDuration":109890,"Delta":121116684},{"NoteNumber":55,"Velocity":37,"Duration":109223,"SoundDuration":109223,"Delta":121226575},{"NoteNumber":43,"Velocity":32,"Duration":109223,"SoundDuration":109223,"Delta":121226575},{"NoteNumber":60,"Velocity":38,"Duration":108564,"SoundDuration":108564,"Delta":121335799},{"NoteNumber":64,"Velocity":46,"Duration":108564,"SoundDuration":108564,"Delta":121335799},{"NoteNumber":36,"Velocity":39,"Duration":108564,"SoundDuration":108564,"Delta":121335799},{"NoteNumber":55,"Velocity":37,"Duration":108043,"SoundDuration":108043,"Delta":121444364},{"NoteNumber":43,"Velocity":34,"Duration":108043,"SoundDuration":108043,"Delta":121444364},{"NoteNumber":60,"Velocity":39,"Duration":107398,"SoundDuration":107398,"Delta":121552407},{"NoteNumber":64,"Velocity":46,"Duration":107398,"SoundDuration":107398,"Delta":121552407},{"NoteNumber":36,"Velocity":41,"Duration":107398,"SoundDuration":107398,"Delta":121552407},{"NoteNumber":55,"Velocity":40,"Duration":106762,"SoundDuration":106762,"Delta":121659806},{"NoteNumber":43,"Velocity":36,"Duration":106762,"SoundDuration":106762,"Delta":121659806},{"NoteNumber":64,"Velocity":41,"Duration":106258,"SoundDuration":106258,"Delta":121766569},{"NoteNumber":67,"Velocity":49,"Duration":106258,"SoundDuration":106258,"Delta":121766569},{"NoteNumber":36,"Velocity":42,"Duration":106258,"SoundDuration":106258,"Delta":121766569},{"NoteNumber":60,"Velocity":41,"Duration":105758,"SoundDuration":105758,"Delta":121872827},{"NoteNumber":43,"Velocity":38,"Duration":105758,"SoundDuration":105758,"Delta":121872827},{"NoteNumber":64,"Velocity":42,"Duration":105386,"SoundDuration":105386,"Delta":121978585},{"NoteNumber":67,"Velocity":50,"Duration":105386,"SoundDuration":105386,"Delta":121978585},{"NoteNumber":36,"Velocity":43,"Duration":105386,"SoundDuration":105386,"Delta":121978585},{"NoteNumber":60,"Velocity":43,"Duration":105017,"SoundDuration":105017,"Delta":122083972},{"NoteNumber":43,"Velocity":39,"Duration":105017,"SoundDuration":105017,"Delta":122083972},{"NoteNumber":64,"Velocity":44,"Duration":104651,"SoundDuration":104651,"Delta":122188990},{"NoteNumber":67,"Velocity":52,"Duration":104651,"SoundDuration":104651,"Delta":122188990},{"NoteNumber":36,"Velocity":46,"Duration":104651,"SoundDuration":104651,"Delta":122188990},{"NoteNumber":60,"Velocity":44,"Duration":104166,"SoundDuration":104166,"Delta":122293641},{"NoteNumber":43,"Velocity":41,"Duration":104166,"SoundDuration":104166,"Delta":122293641},{"NoteNumber":64,"Velocity":46,"Duration":103806,"SoundDuration":103806,"Delta":122397808},{"NoteNumber":67,"Velocity":54,"Duration":103806,"SoundDuration":103806,"Delta":122397808},{"NoteNumber":36,"Velocity":47,"Duration":103806,"SoundDuration":103806,"Delta":122397808},{"NoteNumber":60,"Velocity":44,"Duration":103448,"SoundDuration":103448,"Delta":122501614},{"NoteNumber":43,"Velocity":41,"Duration":103448,"SoundDuration":103448,"Delta":122501614},{"NoteNumber":67,"Velocity":48,"Duration":102975,"SoundDuration":102975,"Delta":122605062},{"NoteNumber":72,"Velocity":57,"Duration":102975,"SoundDuration":102975,"Delta":122605062},{"NoteNumber":36,"Velocity":49,"Duration":102975,"SoundDuration":102975,"Delta":122605062},{"NoteNumber":64,"Velocity":48,"Duration":102622,"SoundDuration":102622,"Delta":122708037},{"NoteNumber":43,"Velocity":44,"Duration":102622,"SoundDuration":102622,"Delta":122708037},{"NoteNumber":67,"Velocity":49,"Duration":102272,"SoundDuration":102272,"Delta":122810660},{"NoteNumber":72,"Velocity":57,"Duration":102272,"SoundDuration":102272,"Delta":122810660},{"NoteNumber":36,"Velocity":50,"Duration":102272,"SoundDuration":102272,"Delta":122810660},{"NoteNumber":64,"Velocity":48,"Duration":101925,"SoundDuration":101925,"Delta":122912933},{"NoteNumber":43,"Velocity":43,"Duration":101925,"SoundDuration":101925,"Delta":122912933},{"NoteNumber":67,"Velocity":50,"Duration":101465,"SoundDuration":101465,"Delta":123014859},{"NoteNumber":72,"Velocity":59,"Duration":101465,"SoundDuration":101465,"Delta":123014859},{"NoteNumber":36,"Velocity":52,"Duration":101465,"SoundDuration":101465,"Delta":123014859},{"NoteNumber":64,"Velocity":49,"Duration":101123,"SoundDuration":101123,"Delta":123116325},{"NoteNumber":43,"Velocity":46,"Duration":101123,"SoundDuration":101123,"Delta":123116325},{"NoteNumber":67,"Velocity":52,"Duration":100784,"SoundDuration":100784,"Delta":123217448},{"NoteNumber":72,"Velocity":61,"Duration":100784,"SoundDuration":100784,"Delta":123217448},{"NoteNumber":36,"Velocity":53,"Duration":100784,"SoundDuration":100784,"Delta":123217448},{"NoteNumber":64,"Velocity":51,"Duration":100446,"SoundDuration":100446,"Delta":123318232},{"NoteNumber":43,"Velocity":45,"Duration":100446,"SoundDuration":100446,"Delta":123318232},{"NoteNumber":72,"Velocity":53,"Duration":99999,"SoundDuration":99999,"Delta":123418679},{"NoteNumber":76,"Velocity":63,"Duration":99999,"SoundDuration":99999,"Delta":123418679},{"NoteNumber":36,"Velocity":55,"Duration":99999,"SoundDuration":99999,"Delta":123418679},{"NoteNumber":67,"Velocity":52,"Duration":99889,"SoundDuration":99889,"Delta":123518679},{"NoteNumber":43,"Velocity":49,"Duration":99889,"SoundDuration":99889,"Delta":123518679},{"NoteNumber":72,"Velocity":55,"Duration":99667,"SoundDuration":99667,"Delta":123618568},{"NoteNumber":76,"Velocity":65,"Duration":99667,"SoundDuration":99667,"Delta":123618568},{"NoteNumber":36,"Velocity":57,"Duration":99667,"SoundDuration":99667,"Delta":123618568},{"NoteNumber":67,"Velocity":53,"Duration":99447,"SoundDuration":99447,"Delta":123718236},{"NoteNumber":43,"Velocity":51,"Duration":99447,"SoundDuration":99447,"Delta":123718236},{"NoteNumber":76,"Velocity":57,"Duration":99228,"SoundDuration":99228,"Delta":123817684},{"NoteNumber":79,"Velocity":67,"Duration":99228,"SoundDuration":99228,"Delta":123817684},{"NoteNumber":36,"Velocity":59,"Duration":99228,"SoundDuration":99228,"Delta":123817684},{"NoteNumber":72,"Velocity":56,"Duration":99009,"SoundDuration":99009,"Delta":123916912},{"NoteNumber":43,"Velocity":52,"Duration":99009,"SoundDuration":99009,"Delta":123916912},{"NoteNumber":76,"Velocity":58,"Duration":98792,"SoundDuration":98792,"Delta":124015922},{"NoteNumber":79,"Velocity":68,"Duration":98792,"SoundDuration":98792,"Delta":124015922},{"NoteNumber":36,"Velocity":60,"Duration":98792,"SoundDuration":98792,"Delta":124015922},{"NoteNumber":72,"Velocity":57,"Duration":98576,"SoundDuration":98576,"Delta":124114715},{"NoteNumber":43,"Velocity":52,"Duration":98576,"SoundDuration":98576,"Delta":124114715},{"NoteNumber":84,"Velocity":71,"Duration":98360,"SoundDuration":98360,"Delta":124213292},{"NoteNumber":79,"Velocity":60,"Duration":98360,"SoundDuration":98360,"Delta":124213292},{"NoteNumber":36,"Velocity":62,"Duration":98360,"SoundDuration":98360,"Delta":124213292},{"NoteNumber":76,"Velocity":59,"Duration":98146,"SoundDuration":98146,"Delta":124311652},{"NoteNumber":43,"Velocity":55,"Duration":98146,"SoundDuration":98146,"Delta":124311652},{"NoteNumber":79,"Velocity":61,"Duration":97932,"SoundDuration":97932,"Delta":124409799},{"NoteNumber":84,"Velocity":72,"Duration":97932,"SoundDuration":97932,"Delta":124409799},{"NoteNumber":36,"Velocity":63,"Duration":97932,"SoundDuration":97932,"Delta":124409799},{"NoteNumber":76,"Velocity":62,"Duration":97719,"SoundDuration":97719,"Delta":124507732},{"NoteNumber":43,"Velocity":56,"Duration":97719,"SoundDuration":97719,"Delta":124507732},{"NoteNumber":88,"Velocity":75,"Duration":97508,"SoundDuration":97508,"Delta":124605451},{"NoteNumber":84,"Velocity":63,"Duration":97508,"SoundDuration":97508,"Delta":124605451},{"NoteNumber":36,"Velocity":65,"Duration":97508,"SoundDuration":97508,"Delta":124605451},{"NoteNumber":79,"Velocity":62,"Duration":97297,"SoundDuration":97297,"Delta":124702960},{"NoteNumber":43,"Velocity":56,"Duration":97297,"SoundDuration":97297,"Delta":124702960},{"NoteNumber":88,"Velocity":77,"Duration":106382,"SoundDuration":106382,"Delta":124800257},{"NoteNumber":84,"Velocity":65,"Duration":106382,"SoundDuration":106382,"Delta":124800257},{"NoteNumber":36,"Velocity":67,"Duration":106382,"SoundDuration":106382,"Delta":124800257},{"NoteNumber":79,"Velocity":64,"Duration":106383,"SoundDuration":106383,"Delta":124906640},{"NoteNumber":43,"Velocity":58,"Duration":106383,"SoundDuration":106383,"Delta":124906640},{"NoteNumber":76,"Velocity":74,"Duration":408047,"SoundDuration":408047,"Delta":125013023},{"NoteNumber":79,"Velocity":74,"Duration":408047,"SoundDuration":408047,"Delta":125013023},{"NoteNumber":84,"Velocity":74,"Duration":408047,"SoundDuration":408047,"Delta":125013023},{"NoteNumber":88,"Velocity":88,"Duration":408047,"SoundDuration":408047,"Delta":125013023},{"NoteNumber":60,"Velocity":55,"Duration":408047,"SoundDuration":408047,"Delta":125013023},{"NoteNumber":67,"Velocity":55,"Duration":408047,"SoundDuration":408047,"Delta":125013023},{"NoteNumber":72,"Velocity":64,"Duration":408047,"SoundDuration":408047,"Delta":125013023},{"NoteNumber":76,"Velocity":70,"Duration":191070,"SoundDuration":191070,"Delta":125425366},{"NoteNumber":79,"Velocity":70,"Duration":191070,"SoundDuration":191070,"Delta":125425366},{"NoteNumber":84,"Velocity":70,"Duration":191070,"SoundDuration":191070,"Delta":125425366},{"NoteNumber":88,"Velocity":83,"Duration":191070,"SoundDuration":191070,"Delta":125425366},{"NoteNumber":60,"Velocity":49,"Duration":191070,"SoundDuration":191070,"Delta":125425366},{"NoteNumber":67,"Velocity":49,"Duration":191070,"SoundDuration":191070,"Delta":125425366},{"NoteNumber":72,"Velocity":59,"Duration":191070,"SoundDuration":191070,"Delta":125425366},{"NoteNumber":76,"Velocity":70,"Duration":191070,"SoundDuration":191070,"Delta":125626493},{"NoteNumber":79,"Velocity":70,"Duration":191070,"SoundDuration":191070,"Delta":125626493},{"NoteNumber":84,"Velocity":70,"Duration":191070,"SoundDuration":191070,"Delta":125626493},{"NoteNumber":88,"Velocity":83,"Duration":191070,"SoundDuration":191070,"Delta":125626493},{"NoteNumber":60,"Velocity":49,"Duration":191070,"SoundDuration":191070,"Delta":125626493},{"NoteNumber":67,"Velocity":49,"Duration":191070,"SoundDuration":191070,"Delta":125626493},{"NoteNumber":72,"Velocity":59,"Duration":191070,"SoundDuration":191070,"Delta":125626493},{"NoteNumber":76,"Velocity":74,"Duration":408047,"SoundDuration":408047,"Delta":125827619},{"NoteNumber":79,"Velocity":74,"Duration":408047,"SoundDuration":408047,"Delta":125827619},{"NoteNumber":84,"Velocity":74,"Duration":408047,"SoundDuration":408047,"Delta":125827619},{"NoteNumber":88,"Velocity":88,"Duration":408047,"SoundDuration":408047,"Delta":125827619},{"NoteNumber":60,"Velocity":56,"Duration":408047,"SoundDuration":408047,"Delta":125827619},{"NoteNumber":67,"Velocity":56,"Duration":408047,"SoundDuration":408047,"Delta":125827619},{"NoteNumber":72,"Velocity":66,"Duration":408047,"SoundDuration":408047,"Delta":125827619},{"NoteNumber":76,"Velocity":69,"Duration":191070,"SoundDuration":191070,"Delta":126239962},{"NoteNumber":79,"Velocity":69,"Duration":191070,"SoundDuration":191070,"Delta":126239962},{"NoteNumber":84,"Velocity":69,"Duration":191070,"SoundDuration":191070,"Delta":126239962},{"NoteNumber":88,"Velocity":82,"Duration":191070,"SoundDuration":191070,"Delta":126239962},{"NoteNumber":60,"Velocity":50,"Duration":191070,"SoundDuration":191070,"Delta":126239962},{"NoteNumber":67,"Velocity":50,"Duration":191070,"SoundDuration":191070,"Delta":126239962},{"NoteNumber":72,"Velocity":60,"Duration":191070,"SoundDuration":191070,"Delta":126239962},{"NoteNumber":76,"Velocity":69,"Duration":191070,"SoundDuration":191070,"Delta":126441089},{"NoteNumber":79,"Velocity":69,"Duration":191070,"SoundDuration":191070,"Delta":126441089},{"NoteNumber":84,"Velocity":69,"Duration":191070,"SoundDuration":191070,"Delta":126441089},{"NoteNumber":88,"Velocity":82,"Duration":191070,"SoundDuration":191070,"Delta":126441089},{"NoteNumber":60,"Velocity":50,"Duration":191070,"SoundDuration":191070,"Delta":126441089},{"NoteNumber":67,"Velocity":50,"Duration":191070,"SoundDuration":191070,"Delta":126441089},{"NoteNumber":72,"Velocity":60,"Duration":191070,"SoundDuration":191070,"Delta":126441089},{"NoteNumber":76,"Velocity":74,"Duration":205437,"SoundDuration":205437,"Delta":126642215},{"NoteNumber":79,"Velocity":74,"Duration":205437,"SoundDuration":205437,"Delta":126642215},{"NoteNumber":84,"Velocity":74,"Duration":205437,"SoundDuration":205437,"Delta":126642215},{"NoteNumber":88,"Velocity":88,"Duration":205437,"SoundDuration":205437,"Delta":126642215},{"NoteNumber":64,"Velocity":56,"Duration":205437,"SoundDuration":205437,"Delta":126642215},{"NoteNumber":60,"Velocity":56,"Duration":205437,"SoundDuration":205437,"Delta":126642215},{"NoteNumber":67,"Velocity":56,"Duration":205437,"SoundDuration":205437,"Delta":126642215},{"NoteNumber":72,"Velocity":66,"Duration":205437,"SoundDuration":205437,"Delta":126642215},{"NoteNumber":67,"Velocity":79,"Duration":102718,"SoundDuration":102718,"Delta":126847652},{"NoteNumber":64,"Velocity":81,"Duration":102597,"SoundDuration":102597,"Delta":126950371},{"NoteNumber":60,"Velocity":83,"Duration":102719,"SoundDuration":102719,"Delta":127052968},{"NoteNumber":55,"Velocity":85,"Duration":103582,"SoundDuration":103582,"Delta":127155687},{"NoteNumber":52,"Velocity":89,"Duration":104461,"SoundDuration":104461,"Delta":127259269},{"NoteNumber":48,"Velocity":91,"Duration":104587,"SoundDuration":104587,"Delta":127363731},{"NoteNumber":47,"Velocity":96,"Duration":418351,"SoundDuration":418351,"Delta":127468319},{"NoteNumber":35,"Velocity":96,"Duration":418351,"SoundDuration":418351,"Delta":127468319},{"NoteNumber":48,"Velocity":92,"Duration":104588,"SoundDuration":104588,"Delta":127886671},{"NoteNumber":36,"Velocity":77,"Duration":104588,"SoundDuration":104588,"Delta":127886671},{"NoteNumber":48,"Velocity":92,"Duration":104588,"SoundDuration":104588,"Delta":128095847},{"NoteNumber":36,"Velocity":77,"Duration":104588,"SoundDuration":104588,"Delta":128095847},{"NoteNumber":67,"Velocity":76,"Duration":218977,"SoundDuration":218977,"Delta":128305023},{"NoteNumber":71,"Velocity":76,"Duration":218977,"SoundDuration":218977,"Delta":128305023},{"NoteNumber":77,"Velocity":91,"Duration":218977,"SoundDuration":218977,"Delta":128305023},{"NoteNumber":79,"Velocity":91,"Duration":218977,"SoundDuration":218977,"Delta":128305023},{"NoteNumber":37,"Velocity":57,"Duration":218977,"SoundDuration":218977,"Delta":128305023},{"NoteNumber":49,"Velocity":68,"Duration":218977,"SoundDuration":218977,"Delta":128305023},{"NoteNumber":59,"Velocity":71,"Duration":218977,"SoundDuration":218977,"Delta":128742979},{"NoteNumber":55,"Velocity":71,"Duration":218977,"SoundDuration":218977,"Delta":128742979},{"NoteNumber":65,"Velocity":85,"Duration":218977,"SoundDuration":218977,"Delta":128742979},{"NoteNumber":67,"Velocity":85,"Duration":218977,"SoundDuration":218977,"Delta":128742979},{"NoteNumber":38,"Velocity":57,"Duration":218977,"SoundDuration":218977,"Delta":128742979},{"NoteNumber":50,"Velocity":68,"Duration":218977,"SoundDuration":218977,"Delta":128742979},{"NoteNumber":77,"Velocity":74,"Duration":408047,"SoundDuration":408047,"Delta":130072010},{"NoteNumber":79,"Velocity":74,"Duration":408047,"SoundDuration":408047,"Delta":130072010},{"NoteNumber":83,"Velocity":74,"Duration":408047,"SoundDuration":408047,"Delta":130072010},{"NoteNumber":86,"Velocity":88,"Duration":408047,"SoundDuration":408047,"Delta":130072010},{"NoteNumber":55,"Velocity":55,"Duration":408047,"SoundDuration":408047,"Delta":130072010},{"NoteNumber":67,"Velocity":64,"Duration":408047,"SoundDuration":408047,"Delta":130072010},{"NoteNumber":77,"Velocity":70,"Duration":191070,"SoundDuration":191070,"Delta":130484353},{"NoteNumber":79,"Velocity":70,"Duration":191070,"SoundDuration":191070,"Delta":130484353},{"NoteNumber":83,"Velocity":70,"Duration":191070,"SoundDuration":191070,"Delta":130484353},{"NoteNumber":86,"Velocity":83,"Duration":191070,"SoundDuration":191070,"Delta":130484353},{"NoteNumber":55,"Velocity":49,"Duration":191070,"SoundDuration":191070,"Delta":130484353},{"NoteNumber":67,"Velocity":59,"Duration":191070,"SoundDuration":191070,"Delta":130484353},{"NoteNumber":77,"Velocity":70,"Duration":191070,"SoundDuration":191070,"Delta":130685479},{"NoteNumber":79,"Velocity":70,"Duration":191070,"SoundDuration":191070,"Delta":130685479},{"NoteNumber":83,"Velocity":70,"Duration":191070,"SoundDuration":191070,"Delta":130685479},{"NoteNumber":86,"Velocity":83,"Duration":191070,"SoundDuration":191070,"Delta":130685479},{"NoteNumber":55,"Velocity":49,"Duration":191070,"SoundDuration":191070,"Delta":130685479},{"NoteNumber":67,"Velocity":59,"Duration":191070,"SoundDuration":191070,"Delta":130685479},{"NoteNumber":77,"Velocity":74,"Duration":408047,"SoundDuration":408047,"Delta":130886606},{"NoteNumber":79,"Velocity":74,"Duration":408047,"SoundDuration":408047,"Delta":130886606},{"NoteNumber":83,"Velocity":74,"Duration":408047,"SoundDuration":408047,"Delta":130886606},{"NoteNumber":86,"Velocity":88,"Duration":408047,"SoundDuration":408047,"Delta":130886606},{"NoteNumber":55,"Velocity":56,"Duration":408047,"SoundDuration":408047,"Delta":130886606},{"NoteNumber":67,"Velocity":66,"Duration":408047,"SoundDuration":408047,"Delta":130886606},{"NoteNumber":77,"Velocity":69,"Duration":191070,"SoundDuration":191070,"Delta":131298949},{"NoteNumber":79,"Velocity":69,"Duration":191070,"SoundDuration":191070,"Delta":131298949},{"NoteNumber":83,"Velocity":69,"Duration":191070,"SoundDuration":191070,"Delta":131298949},{"NoteNumber":86,"Velocity":82,"Duration":191070,"SoundDuration":191070,"Delta":131298949},{"NoteNumber":55,"Velocity":50,"Duration":191070,"SoundDuration":191070,"Delta":131298949},{"NoteNumber":67,"Velocity":60,"Duration":191070,"SoundDuration":191070,"Delta":131298949},{"NoteNumber":77,"Velocity":69,"Duration":191070,"SoundDuration":191070,"Delta":131500075},{"NoteNumber":79,"Velocity":69,"Duration":191070,"SoundDuration":191070,"Delta":131500075},{"NoteNumber":83,"Velocity":69,"Duration":191070,"SoundDuration":191070,"Delta":131500075},{"NoteNumber":86,"Velocity":82,"Duration":191070,"SoundDuration":191070,"Delta":131500075},{"NoteNumber":55,"Velocity":50,"Duration":191070,"SoundDuration":191070,"Delta":131500075},{"NoteNumber":67,"Velocity":60,"Duration":191070,"SoundDuration":191070,"Delta":131500075},{"NoteNumber":77,"Velocity":74,"Duration":205436,"SoundDuration":205436,"Delta":131701202},{"NoteNumber":79,"Velocity":74,"Duration":205436,"SoundDuration":205436,"Delta":131701202},{"NoteNumber":83,"Velocity":74,"Duration":205436,"SoundDuration":205436,"Delta":131701202},{"NoteNumber":86,"Velocity":88,"Duration":205436,"SoundDuration":205436,"Delta":131701202},{"NoteNumber":55,"Velocity":56,"Duration":205436,"SoundDuration":205436,"Delta":131701202},{"NoteNumber":67,"Velocity":66,"Duration":205436,"SoundDuration":205436,"Delta":131701202},{"NoteNumber":65,"Velocity":79,"Duration":102718,"SoundDuration":102718,"Delta":131906639},{"NoteNumber":62,"Velocity":81,"Duration":102597,"SoundDuration":102597,"Delta":132009357},{"NoteNumber":59,"Velocity":83,"Duration":102719,"SoundDuration":102719,"Delta":132111954},{"NoteNumber":55,"Velocity":85,"Duration":103581,"SoundDuration":103581,"Delta":132214674},{"NoteNumber":53,"Velocity":89,"Duration":104461,"SoundDuration":104461,"Delta":132318256},{"NoteNumber":50,"Velocity":91,"Duration":104588,"SoundDuration":104588,"Delta":132422718},{"NoteNumber":49,"Velocity":96,"Duration":418351,"SoundDuration":418351,"Delta":132527306},{"NoteNumber":37,"Velocity":96,"Duration":418351,"SoundDuration":418351,"Delta":132527306},{"NoteNumber":50,"Velocity":92,"Duration":104587,"SoundDuration":104587,"Delta":132945658},{"NoteNumber":38,"Velocity":77,"Duration":104587,"SoundDuration":104587,"Delta":132945658},{"NoteNumber":50,"Velocity":92,"Duration":104588,"SoundDuration":104588,"Delta":133154834},{"NoteNumber":38,"Velocity":77,"Duration":104588,"SoundDuration":104588,"Delta":133154834},{"NoteNumber":67,"Velocity":79,"Duration":218977,"SoundDuration":218977,"Delta":133364010},{"NoteNumber":72,"Velocity":79,"Duration":218977,"SoundDuration":218977,"Delta":133364010},{"NoteNumber":79,"Velocity":95,"Duration":218977,"SoundDuration":218977,"Delta":133364010},{"NoteNumber":39,"Velocity":59,"Duration":218977,"SoundDuration":218977,"Delta":133364010},{"NoteNumber":51,"Velocity":71,"Duration":218977,"SoundDuration":218977,"Delta":133364010},{"NoteNumber":60,"Velocity":74,"Duration":218977,"SoundDuration":218977,"Delta":133801966},{"NoteNumber":55,"Velocity":74,"Duration":218977,"SoundDuration":218977,"Delta":133801966},{"NoteNumber":67,"Velocity":89,"Duration":218977,"SoundDuration":218977,"Delta":133801966},{"NoteNumber":40,"Velocity":59,"Duration":218977,"SoundDuration":218977,"Delta":133801966},{"NoteNumber":52,"Velocity":71,"Duration":218977,"SoundDuration":218977,"Delta":133801966},{"NoteNumber":55,"Velocity":64,"Duration":101351,"SoundDuration":101351,"Delta":134458767},{"NoteNumber":60,"Velocity":66,"Duration":101351,"SoundDuration":101351,"Delta":134560118},{"NoteNumber":64,"Velocity":68,"Duration":98039,"SoundDuration":98039,"Delta":134661470},{"NoteNumber":67,"Velocity":70,"Duration":98039,"SoundDuration":98039,"Delta":134759509},{"NoteNumber":72,"Velocity":72,"Duration":98039,"SoundDuration":98039,"Delta":134857548},{"NoteNumber":76,"Velocity":74,"Duration":98039,"SoundDuration":98039,"Delta":134955587},{"NoteNumber":67,"Velocity":66,"Duration":409482,"SoundDuration":409482,"Delta":135053627},{"NoteNumber":76,"Velocity":66,"Duration":409482,"SoundDuration":409482,"Delta":135053627},{"NoteNumber":79,"Velocity":78,"Duration":409482,"SoundDuration":409482,"Delta":135053627},{"NoteNumber":36,"Velocity":50,"Duration":817833,"SoundDuration":817833,"Delta":135053627},{"NoteNumber":48,"Velocity":60,"Duration":817833,"SoundDuration":817833,"Delta":135053627},{"NoteNumber":67,"Velocity":58,"Duration":191919,"SoundDuration":191919,"Delta":135467420},{"NoteNumber":76,"Velocity":58,"Duration":191919,"SoundDuration":191919,"Delta":135467420},{"NoteNumber":79,"Velocity":70,"Duration":191919,"SoundDuration":191919,"Delta":135467420},{"NoteNumber":67,"Velocity":58,"Duration":191918,"SoundDuration":191918,"Delta":135669440},{"NoteNumber":76,"Velocity":58,"Duration":191918,"SoundDuration":191918,"Delta":135669440},{"NoteNumber":79,"Velocity":70,"Duration":191918,"SoundDuration":191918,"Delta":135669440},{"NoteNumber":67,"Velocity":65,"Duration":629607,"SoundDuration":629607,"Delta":135871460},{"NoteNumber":74,"Velocity":65,"Duration":629607,"SoundDuration":629607,"Delta":135871460},{"NoteNumber":79,"Velocity":78,"Duration":629607,"SoundDuration":629607,"Delta":135871460},{"NoteNumber":35,"Velocity":44,"Duration":427587,"SoundDuration":427587,"Delta":135871460},{"NoteNumber":47,"Velocity":53,"Duration":427587,"SoundDuration":427587,"Delta":135871460},{"NoteNumber":47,"Velocity":57,"Duration":191919,"SoundDuration":191919,"Delta":136299047},{"NoteNumber":59,"Velocity":70,"Duration":191919,"SoundDuration":191919,"Delta":136299047},{"NoteNumber":67,"Velocity":67,"Duration":202020,"SoundDuration":202020,"Delta":136501067},{"NoteNumber":74,"Velocity":67,"Duration":202020,"SoundDuration":202020,"Delta":136501067},{"NoteNumber":79,"Velocity":80,"Duration":202020,"SoundDuration":202020,"Delta":136501067},{"NoteNumber":47,"Velocity":53,"Duration":191918,"SoundDuration":191918,"Delta":136501067},{"NoteNumber":59,"Velocity":65,"Duration":191918,"SoundDuration":191918,"Delta":136501067},{"NoteNumber":72,"Velocity":74,"Duration":412371,"SoundDuration":412371,"Delta":136703087},{"NoteNumber":79,"Velocity":74,"Duration":412371,"SoundDuration":412371,"Delta":136703087},{"NoteNumber":84,"Velocity":88,"Duration":412371,"SoundDuration":412371,"Delta":136703087},{"NoteNumber":45,"Velocity":63,"Duration":412371,"SoundDuration":412371,"Delta":136703087},{"NoteNumber":57,"Velocity":72,"Duration":412371,"SoundDuration":412371,"Delta":136703087},{"NoteNumber":72,"Velocity":63,"Duration":206185,"SoundDuration":206185,"Delta":137115458},{"NoteNumber":78,"Velocity":63,"Duration":206185,"SoundDuration":206185,"Delta":137115458},{"NoteNumber":84,"Velocity":75,"Duration":206185,"SoundDuration":206185,"Delta":137115458},{"NoteNumber":38,"Velocity":50,"Duration":412370,"SoundDuration":412370,"Delta":137115458},{"NoteNumber":50,"Velocity":61,"Duration":412370,"SoundDuration":412370,"Delta":137115458},{"NoteNumber":72,"Velocity":61,"Duration":206185,"SoundDuration":206185,"Delta":137321644},{"NoteNumber":78,"Velocity":61,"Duration":206185,"SoundDuration":206185,"Delta":137321644},{"NoteNumber":84,"Velocity":73,"Duration":206185,"SoundDuration":206185,"Delta":137321644},{"NoteNumber":71,"Velocity":64,"Duration":213523,"SoundDuration":213523,"Delta":137527829},{"NoteNumber":79,"Velocity":64,"Duration":213523,"SoundDuration":213523,"Delta":137527829},{"NoteNumber":83,"Velocity":76,"Duration":213523,"SoundDuration":213523,"Delta":137527829},{"NoteNumber":43,"Velocity":48,"Duration":213523,"SoundDuration":213523,"Delta":137527829},{"NoteNumber":55,"Velocity":59,"Duration":211743,"SoundDuration":211743,"Delta":137527829},{"NoteNumber":55,"Velocity":64,"Duration":100671,"SoundDuration":100671,"Delta":137741352},{"NoteNumber":60,"Velocity":66,"Duration":100671,"SoundDuration":100671,"Delta":137842023},{"NoteNumber":64,"Velocity":68,"Duration":98039,"SoundDuration":98039,"Delta":137942695},{"NoteNumber":67,"Velocity":70,"Duration":98039,"SoundDuration":98039,"Delta":138040734},{"NoteNumber":72,"Velocity":72,"Duration":98039,"SoundDuration":98039,"Delta":138138773},{"NoteNumber":76,"Velocity":74,"Duration":98039,"SoundDuration":98039,"Delta":138236812},{"NoteNumber":67,"Velocity":66,"Duration":409482,"SoundDuration":409482,"Delta":138334852},{"NoteNumber":76,"Velocity":66,"Duration":409482,"SoundDuration":409482,"Delta":138334852},{"NoteNumber":79,"Velocity":78,"Duration":409482,"SoundDuration":409482,"Delta":138334852},{"NoteNumber":36,"Velocity":50,"Duration":817833,"SoundDuration":817833,"Delta":138334852},{"NoteNumber":48,"Velocity":60,"Duration":817833,"SoundDuration":817833,"Delta":138334852},{"NoteNumber":67,"Velocity":58,"Duration":191919,"SoundDuration":191919,"Delta":138748645},{"NoteNumber":76,"Velocity":58,"Duration":191919,"SoundDuration":191919,"Delta":138748645},{"NoteNumber":79,"Velocity":70,"Duration":191919,"SoundDuration":191919,"Delta":138748645},{"NoteNumber":67,"Velocity":58,"Duration":191918,"SoundDuration":191918,"Delta":138950665},{"NoteNumber":76,"Velocity":58,"Duration":191918,"SoundDuration":191918,"Delta":138950665},{"NoteNumber":79,"Velocity":70,"Duration":191918,"SoundDuration":191918,"Delta":138950665},{"NoteNumber":67,"Velocity":65,"Duration":629607,"SoundDuration":629607,"Delta":139152685},{"NoteNumber":74,"Velocity":65,"Duration":629607,"SoundDuration":629607,"Delta":139152685},{"NoteNumber":79,"Velocity":78,"Duration":629607,"SoundDuration":629607,"Delta":139152685},{"NoteNumber":35,"Velocity":44,"Duration":427587,"SoundDuration":427587,"Delta":139152685},{"NoteNumber":47,"Velocity":53,"Duration":427587,"SoundDuration":427587,"Delta":139152685},{"NoteNumber":47,"Velocity":57,"Duration":191919,"SoundDuration":191919,"Delta":139580272},{"NoteNumber":59,"Velocity":70,"Duration":191919,"SoundDuration":191919,"Delta":139580272},{"NoteNumber":67,"Velocity":67,"Duration":202020,"SoundDuration":202020,"Delta":139782292},{"NoteNumber":74,"Velocity":67,"Duration":202020,"SoundDuration":202020,"Delta":139782292},{"NoteNumber":79,"Velocity":80,"Duration":202020,"SoundDuration":202020,"Delta":139782292},{"NoteNumber":47,"Velocity":53,"Duration":191918,"SoundDuration":191918,"Delta":139782292},{"NoteNumber":59,"Velocity":65,"Duration":191918,"SoundDuration":191918,"Delta":139782292},{"NoteNumber":72,"Velocity":74,"Duration":412371,"SoundDuration":412371,"Delta":139984312},{"NoteNumber":79,"Velocity":74,"Duration":412371,"SoundDuration":412371,"Delta":139984312},{"NoteNumber":84,"Velocity":88,"Duration":412371,"SoundDuration":412371,"Delta":139984312},{"NoteNumber":45,"Velocity":63,"Duration":412371,"SoundDuration":412371,"Delta":139984312},{"NoteNumber":57,"Velocity":72,"Duration":412371,"SoundDuration":412371,"Delta":139984312},{"NoteNumber":72,"Velocity":63,"Duration":412370,"SoundDuration":412370,"Delta":140396683},{"NoteNumber":78,"Velocity":63,"Duration":412370,"SoundDuration":412370,"Delta":140396683},{"NoteNumber":84,"Velocity":75,"Duration":412370,"SoundDuration":412370,"Delta":140396683},{"NoteNumber":38,"Velocity":50,"Duration":412370,"SoundDuration":412370,"Delta":140396683},{"NoteNumber":50,"Velocity":61,"Duration":412370,"SoundDuration":412370,"Delta":140396683},{"NoteNumber":71,"Velocity":64,"Duration":206185,"SoundDuration":206185,"Delta":140809054},{"NoteNumber":79,"Velocity":64,"Duration":206185,"SoundDuration":206185,"Delta":140809054},{"NoteNumber":83,"Velocity":76,"Duration":206185,"SoundDuration":206185,"Delta":140809054},{"NoteNumber":43,"Velocity":48,"Duration":206185,"SoundDuration":206185,"Delta":140809054},{"NoteNumber":55,"Velocity":59,"Duration":206185,"SoundDuration":206185,"Delta":140809054},{"NoteNumber":60,"Velocity":64,"Duration":100671,"SoundDuration":100671,"Delta":141015240},{"NoteNumber":65,"Velocity":66,"Duration":100671,"SoundDuration":100671,"Delta":141115911},{"NoteNumber":69,"Velocity":68,"Duration":98039,"SoundDuration":98039,"Delta":141216582},{"NoteNumber":72,"Velocity":70,"Duration":98039,"SoundDuration":98039,"Delta":141314621},{"NoteNumber":77,"Velocity":72,"Duration":98039,"SoundDuration":98039,"Delta":141412661},{"NoteNumber":81,"Velocity":74,"Duration":98039,"SoundDuration":98039,"Delta":141510700},{"NoteNumber":72,"Velocity":72,"Duration":409482,"SoundDuration":409482,"Delta":141608739},{"NoteNumber":81,"Velocity":72,"Duration":409482,"SoundDuration":409482,"Delta":141608739},{"NoteNumber":84,"Velocity":85,"Duration":409482,"SoundDuration":409482,"Delta":141608739},{"NoteNumber":41,"Velocity":50,"Duration":817833,"SoundDuration":817833,"Delta":141608739},{"NoteNumber":53,"Velocity":60,"Duration":817833,"SoundDuration":817833,"Delta":141608739},{"NoteNumber":72,"Velocity":63,"Duration":191919,"SoundDuration":191919,"Delta":142022532},{"NoteNumber":81,"Velocity":63,"Duration":191919,"SoundDuration":191919,"Delta":142022532},{"NoteNumber":84,"Velocity":77,"Duration":191919,"SoundDuration":191919,"Delta":142022532},{"NoteNumber":72,"Velocity":63,"Duration":191918,"SoundDuration":191918,"Delta":142224552},{"NoteNumber":81,"Velocity":63,"Duration":191918,"SoundDuration":191918,"Delta":142224552},{"NoteNumber":84,"Velocity":77,"Duration":191918,"SoundDuration":191918,"Delta":142224552},{"NoteNumber":72,"Velocity":71,"Duration":641110,"SoundDuration":641110,"Delta":142426572},{"NoteNumber":79,"Velocity":71,"Duration":641110,"SoundDuration":641110,"Delta":142426572},{"NoteNumber":84,"Velocity":85,"Duration":641110,"SoundDuration":641110,"Delta":142426572},{"NoteNumber":40,"Velocity":44,"Duration":427587,"SoundDuration":427587,"Delta":142426572},{"NoteNumber":52,"Velocity":53,"Duration":427587,"SoundDuration":427587,"Delta":142426572},{"NoteNumber":52,"Velocity":57,"Duration":202846,"SoundDuration":202846,"Delta":142854160},{"NoteNumber":64,"Velocity":70,"Duration":202846,"SoundDuration":202846,"Delta":142854160},{"NoteNumber":72,"Velocity":73,"Duration":213522,"SoundDuration":213522,"Delta":143067683},{"NoteNumber":79,"Velocity":73,"Duration":213522,"SoundDuration":213522,"Delta":143067683},{"NoteNumber":84,"Velocity":88,"Duration":213522,"SoundDuration":213522,"Delta":143067683},{"NoteNumber":52,"Velocity":53,"Duration":202846,"SoundDuration":202846,"Delta":143067683},{"NoteNumber":64,"Velocity":65,"Duration":202846,"SoundDuration":202846,"Delta":143067683},{"NoteNumber":77,"Velocity":81,"Duration":408075,"SoundDuration":408075,"Delta":143281206},{"NoteNumber":84,"Velocity":81,"Duration":408075,"SoundDuration":408075,"Delta":143281206},{"NoteNumber":89,"Velocity":96,"Duration":408075,"SoundDuration":408075,"Delta":143281206},{"NoteNumber":50,"Velocity":63,"Duration":408075,"SoundDuration":408075,"Delta":143281206},{"NoteNumber":62,"Velocity":72,"Duration":408075,"SoundDuration":408075,"Delta":143281206},{"NoteNumber":77,"Velocity":75,"Duration":195876,"SoundDuration":195876,"Delta":143693577},{"NoteNumber":83,"Velocity":75,"Duration":195876,"SoundDuration":195876,"Delta":143693577},{"NoteNumber":89,"Velocity":90,"Duration":195876,"SoundDuration":195876,"Delta":143693577},{"NoteNumber":43,"Velocity":54,"Duration":412370,"SoundDuration":412370,"Delta":143693577},{"NoteNumber":55,"Velocity":67,"Duration":412370,"SoundDuration":412370,"Delta":143693577},{"NoteNumber":77,"Velocity":66,"Duration":195876,"SoundDuration":195876,"Delta":143899762},{"NoteNumber":83,"Velocity":66,"Duration":195876,"SoundDuration":195876,"Delta":143899762},{"NoteNumber":89,"Velocity":78,"Duration":195876,"SoundDuration":195876,"Delta":143899762},{"NoteNumber":76,"Velocity":76,"Duration":408075,"SoundDuration":408075,"Delta":144105948},{"NoteNumber":83,"Velocity":76,"Duration":408075,"SoundDuration":408075,"Delta":144105948},{"NoteNumber":88,"Velocity":92,"Duration":408075,"SoundDuration":408075,"Delta":144105948},{"NoteNumber":48,"Velocity":52,"Duration":408075,"SoundDuration":408075,"Delta":144105948},{"NoteNumber":60,"Velocity":65,"Duration":408075,"SoundDuration":408075,"Delta":144105948},{"NoteNumber":88,"Velocity":84,"Duration":404040,"SoundDuration":404040,"Delta":144518319},{"NoteNumber":81,"Velocity":70,"Duration":404040,"SoundDuration":404040,"Delta":144518319},{"NoteNumber":76,"Velocity":70,"Duration":404040,"SoundDuration":404040,"Delta":144518319},{"NoteNumber":41,"Velocity":55,"Duration":191919,"SoundDuration":191919,"Delta":144518319},{"NoteNumber":53,"Velocity":67,"Duration":191919,"SoundDuration":191919,"Delta":144518319},{"NoteNumber":41,"Velocity":51,"Duration":191918,"SoundDuration":191918,"Delta":144720339},{"NoteNumber":53,"Velocity":62,"Duration":191918,"SoundDuration":191918,"Delta":144720339},{"NoteNumber":74,"Velocity":78,"Duration":206185,"SoundDuration":206185,"Delta":144922359},{"NoteNumber":81,"Velocity":78,"Duration":206185,"SoundDuration":206185,"Delta":144922359},{"NoteNumber":86,"Velocity":92,"Duration":206185,"SoundDuration":206185,"Delta":144922359},{"NoteNumber":47,"Velocity":60,"Duration":412371,"SoundDuration":412371,"Delta":144922359},{"NoteNumber":59,"Velocity":69,"Duration":412371,"SoundDuration":412371,"Delta":144922359},{"NoteNumber":74,"Velocity":78,"Duration":206185,"SoundDuration":206185,"Delta":145128544},{"NoteNumber":80,"Velocity":78,"Duration":206185,"SoundDuration":206185,"Delta":145128544},{"NoteNumber":86,"Velocity":78,"Duration":206185,"SoundDuration":206185,"Delta":145128544},{"NoteNumber":72,"Velocity":73,"Duration":412370,"SoundDuration":412370,"Delta":145334730},{"NoteNumber":81,"Velocity":73,"Duration":412370,"SoundDuration":412370,"Delta":145334730},{"NoteNumber":84,"Velocity":87,"Duration":412370,"SoundDuration":412370,"Delta":145334730},{"NoteNumber":48,"Velocity":53,"Duration":412370,"SoundDuration":412370,"Delta":145334730},{"NoteNumber":60,"Velocity":65,"Duration":412370,"SoundDuration":412370,"Delta":145334730},{"NoteNumber":81,"Velocity":76,"Duration":412371,"SoundDuration":412371,"Delta":145747101},{"NoteNumber":71,"Velocity":76,"Duration":412371,"SoundDuration":412371,"Delta":145747101},{"NoteNumber":77,"Velocity":76,"Duration":412371,"SoundDuration":412371,"Delta":145747101},{"NoteNumber":83,"Velocity":92,"Duration":412371,"SoundDuration":412371,"Delta":145747101},{"NoteNumber":50,"Velocity":52,"Duration":195876,"SoundDuration":195876,"Delta":145747101},{"NoteNumber":62,"Velocity":65,"Duration":195876,"SoundDuration":195876,"Delta":145747101},{"NoteNumber":50,"Velocity":55,"Duration":195876,"SoundDuration":195876,"Delta":145953286},{"NoteNumber":62,"Velocity":55,"Duration":195876,"SoundDuration":195876,"Delta":145953286},{"NoteNumber":80,"Velocity":74,"Duration":364852,"SoundDuration":364852,"Delta":146159472},{"NoteNumber":83,"Velocity":89,"Duration":364852,"SoundDuration":364852,"Delta":146159472},{"NoteNumber":76,"Velocity":74,"Duration":364852,"SoundDuration":364852,"Delta":146159472},{"NoteNumber":71,"Velocity":74,"Duration":364852,"SoundDuration":364852,"Delta":146159472},{"NoteNumber":52,"Velocity":58,"Duration":415019,"SoundDuration":415019,"Delta":146159472},{"NoteNumber":64,"Velocity":71,"Duration":415019,"SoundDuration":415019,"Delta":146159472},{"NoteNumber":81,"Velocity":82,"Duration":50167,"SoundDuration":50167,"Delta":146524324},{"NoteNumber":93,"Velocity":92,"Duration":203390,"SoundDuration":203390,"Delta":146574491},{"NoteNumber":33,"Velocity":81,"Duration":402542,"SoundDuration":402542,"Delta":146574491},{"NoteNumber":45,"Velocity":96,"Duration":402542,"SoundDuration":402542,"Delta":146574491},{"NoteNumber":91,"Velocity":82,"Duration":101694,"SoundDuration":101694,"Delta":146777881},{"NoteNumber":89,"Velocity":82,"Duration":101695,"SoundDuration":101695,"Delta":146879576},{"NoteNumber":88,"Velocity":81,"Duration":101695,"SoundDuration":101695,"Delta":146981271},{"NoteNumber":33,"Velocity":75,"Duration":193220,"SoundDuration":193220,"Delta":146981271},{"NoteNumber":45,"Velocity":90,"Duration":193220,"SoundDuration":193220,"Delta":146981271},{"NoteNumber":86,"Velocity":81,"Duration":101695,"SoundDuration":101695,"Delta":147082966},{"NoteNumber":84,"Velocity":80,"Duration":101694,"SoundDuration":101694,"Delta":147184661},{"NoteNumber":33,"Velocity":75,"Duration":193220,"SoundDuration":193220,"Delta":147184661},{"NoteNumber":45,"Velocity":90,"Duration":193220,"SoundDuration":193220,"Delta":147184661},{"NoteNumber":83,"Velocity":79,"Duration":101695,"SoundDuration":101695,"Delta":147286356},{"NoteNumber":81,"Velocity":79,"Duration":101695,"SoundDuration":101695,"Delta":147388051},{"NoteNumber":33,"Velocity":81,"Duration":402542,"SoundDuration":402542,"Delta":147388051},{"NoteNumber":45,"Velocity":96,"Duration":402542,"SoundDuration":402542,"Delta":147388051},{"NoteNumber":79,"Velocity":78,"Duration":101695,"SoundDuration":101695,"Delta":147489746},{"NoteNumber":77,"Velocity":78,"Duration":101694,"SoundDuration":101694,"Delta":147591441},{"NoteNumber":76,"Velocity":77,"Duration":101695,"SoundDuration":101695,"Delta":147693136},{"NoteNumber":74,"Velocity":77,"Duration":101695,"SoundDuration":101695,"Delta":147794831},{"NoteNumber":33,"Velocity":75,"Duration":193220,"SoundDuration":193220,"Delta":147794831},{"NoteNumber":45,"Velocity":90,"Duration":193220,"SoundDuration":193220,"Delta":147794831},{"NoteNumber":72,"Velocity":75,"Duration":101695,"SoundDuration":101695,"Delta":147896526},{"NoteNumber":71,"Velocity":74,"Duration":101695,"SoundDuration":101695,"Delta":147998221},{"NoteNumber":33,"Velocity":74,"Duration":193220,"SoundDuration":193220,"Delta":147998221},{"NoteNumber":45,"Velocity":88,"Duration":193220,"SoundDuration":193220,"Delta":147998221},{"NoteNumber":69,"Velocity":74,"Duration":101694,"SoundDuration":101694,"Delta":148099916},{"NoteNumber":68,"Velocity":71,"Duration":98360,"SoundDuration":98360,"Delta":148201611},{"NoteNumber":33,"Velocity":81,"Duration":196721,"SoundDuration":196721,"Delta":148201611},{"NoteNumber":45,"Velocity":96,"Duration":196721,"SoundDuration":196721,"Delta":148201611},{"NoteNumber":65,"Velocity":64,"Duration":98360,"SoundDuration":98360,"Delta":148299972},{"NoteNumber":64,"Velocity":64,"Duration":104529,"SoundDuration":104529,"Delta":148398333},{"NoteNumber":36,"Velocity":75,"Duration":209058,"SoundDuration":209058,"Delta":148398333},{"NoteNumber":48,"Velocity":90,"Duration":209058,"SoundDuration":209058,"Delta":148398333},{"NoteNumber":62,"Velocity":64,"Duration":104529,"SoundDuration":104529,"Delta":148502862},{"NoteNumber":68,"Velocity":63,"Duration":102739,"SoundDuration":102739,"Delta":148607392},{"NoteNumber":35,"Velocity":79,"Duration":410958,"SoundDuration":410958,"Delta":148607392},{"NoteNumber":47,"Velocity":93,"Duration":410958,"SoundDuration":410958,"Delta":148607392},{"NoteNumber":65,"Velocity":57,"Duration":102739,"SoundDuration":102739,"Delta":148710131},{"NoteNumber":64,"Velocity":57,"Duration":102739,"SoundDuration":102739,"Delta":148812871},{"NoteNumber":62,"Velocity":57,"Duration":102739,"SoundDuration":102739,"Delta":148915611},{"NoteNumber":68,"Velocity":67,"Duration":102739,"SoundDuration":102739,"Delta":149018351},{"NoteNumber":74,"Velocity":79,"Duration":832939,"SoundDuration":832939,"Delta":149018351},{"NoteNumber":77,"Velocity":93,"Duration":832939,"SoundDuration":832939,"Delta":149018351},{"NoteNumber":65,"Velocity":58,"Duration":102739,"SoundDuration":102739,"Delta":149121090},{"NoteNumber":64,"Velocity":58,"Duration":102739,"SoundDuration":102739,"Delta":149223830},{"NoteNumber":62,"Velocity":58,"Duration":102739,"SoundDuration":102739,"Delta":149326570},{"NoteNumber":68,"Velocity":64,"Duration":102739,"SoundDuration":102739,"Delta":149429310},{"NoteNumber":65,"Velocity":59,"Duration":102739,"SoundDuration":102739,"Delta":149532049},{"NoteNumber":64,"Velocity":59,"Duration":115829,"SoundDuration":115829,"Delta":149634789},{"NoteNumber":62,"Velocity":59,"Duration":50335,"SoundDuration":50335,"Delta":149750619},{"NoteNumber":83,"Velocity":81,"Duration":50335,"SoundDuration":50335,"Delta":149800955},{"NoteNumber":95,"Velocity":92,"Duration":203390,"SoundDuration":203390,"Delta":149851290},{"NoteNumber":35,"Velocity":81,"Duration":402542,"SoundDuration":402542,"Delta":149851290},{"NoteNumber":47,"Velocity":96,"Duration":402542,"SoundDuration":402542,"Delta":149851290},{"NoteNumber":93,"Velocity":82,"Duration":101694,"SoundDuration":101694,"Delta":150054680},{"NoteNumber":92,"Velocity":82,"Duration":101695,"SoundDuration":101695,"Delta":150156375},{"NoteNumber":89,"Velocity":81,"Duration":101695,"SoundDuration":101695,"Delta":150258070},{"NoteNumber":35,"Velocity":75,"Duration":193220,"SoundDuration":193220,"Delta":150258070},{"NoteNumber":47,"Velocity":90,"Duration":193220,"SoundDuration":193220,"Delta":150258070},{"NoteNumber":88,"Velocity":81,"Duration":101695,"SoundDuration":101695,"Delta":150359765},{"NoteNumber":86,"Velocity":80,"Duration":101694,"SoundDuration":101694,"Delta":150461460},{"NoteNumber":35,"Velocity":75,"Duration":193220,"SoundDuration":193220,"Delta":150461460},{"NoteNumber":47,"Velocity":90,"Duration":193220,"SoundDuration":193220,"Delta":150461460},{"NoteNumber":84,"Velocity":79,"Duration":101695,"SoundDuration":101695,"Delta":150563155},{"NoteNumber":83,"Velocity":79,"Duration":101695,"SoundDuration":101695,"Delta":150664850},{"NoteNumber":35,"Velocity":81,"Duration":402542,"SoundDuration":402542,"Delta":150664850},{"NoteNumber":47,"Velocity":96,"Duration":402542,"SoundDuration":402542,"Delta":150664850},{"NoteNumber":81,"Velocity":78,"Duration":101695,"SoundDuration":101695,"Delta":150766545},{"NoteNumber":80,"Velocity":78,"Duration":101694,"SoundDuration":101694,"Delta":150868240},{"NoteNumber":77,"Velocity":77,"Duration":101695,"SoundDuration":101695,"Delta":150969935},{"NoteNumber":76,"Velocity":77,"Duration":101695,"SoundDuration":101695,"Delta":151071630},{"NoteNumber":35,"Velocity":75,"Duration":193220,"SoundDuration":193220,"Delta":151071630},{"NoteNumber":47,"Velocity":90,"Duration":193220,"SoundDuration":193220,"Delta":151071630},{"NoteNumber":74,"Velocity":75,"Duration":101695,"SoundDuration":101695,"Delta":151173325},{"NoteNumber":72,"Velocity":74,"Duration":101695,"SoundDuration":101695,"Delta":151275020},{"NoteNumber":35,"Velocity":74,"Duration":193220,"SoundDuration":193220,"Delta":151275020},{"NoteNumber":47,"Velocity":88,"Duration":193220,"SoundDuration":193220,"Delta":151275020},{"NoteNumber":71,"Velocity":74,"Duration":101694,"SoundDuration":101694,"Delta":151376715},{"NoteNumber":69,"Velocity":71,"Duration":98360,"SoundDuration":98360,"Delta":151478410},{"NoteNumber":35,"Velocity":81,"Duration":196721,"SoundDuration":196721,"Delta":151478410},{"NoteNumber":47,"Velocity":96,"Duration":196721,"SoundDuration":196721,"Delta":151478410},{"NoteNumber":63,"Velocity":64,"Duration":98360,"SoundDuration":98360,"Delta":151576771},{"NoteNumber":64,"Velocity":64,"Duration":104529,"SoundDuration":104529,"Delta":151675132},{"NoteNumber":38,"Velocity":75,"Duration":209058,"SoundDuration":209058,"Delta":151675132},{"NoteNumber":50,"Velocity":90,"Duration":209058,"SoundDuration":209058,"Delta":151675132},{"NoteNumber":57,"Velocity":64,"Duration":104529,"SoundDuration":104529,"Delta":151779661},{"NoteNumber":69,"Velocity":63,"Duration":102739,"SoundDuration":102739,"Delta":151884191},{"NoteNumber":36,"Velocity":79,"Duration":410958,"SoundDuration":410958,"Delta":151884191},{"NoteNumber":48,"Velocity":93,"Duration":410958,"SoundDuration":410958,"Delta":151884191},{"NoteNumber":63,"Velocity":57,"Duration":102739,"SoundDuration":102739,"Delta":151986931},{"NoteNumber":64,"Velocity":57,"Duration":102739,"SoundDuration":102739,"Delta":152089670},{"NoteNumber":57,"Velocity":57,"Duration":102739,"SoundDuration":102739,"Delta":152192410},{"NoteNumber":69,"Velocity":67,"Duration":102739,"SoundDuration":102739,"Delta":152295150},{"NoteNumber":72,"Velocity":79,"Duration":821918,"SoundDuration":821918,"Delta":152295150},{"NoteNumber":76,"Velocity":79,"Duration":821918,"SoundDuration":821918,"Delta":152295150},{"NoteNumber":81,"Velocity":93,"Duration":821918,"SoundDuration":821918,"Delta":152295150},{"NoteNumber":63,"Velocity":58,"Duration":102739,"SoundDuration":102739,"Delta":152397890},{"NoteNumber":64,"Velocity":58,"Duration":102739,"SoundDuration":102739,"Delta":152500629},{"NoteNumber":57,"Velocity":58,"Duration":102739,"SoundDuration":102739,"Delta":152603369},{"NoteNumber":69,"Velocity":64,"Duration":102739,"SoundDuration":102739,"Delta":152706109},{"NoteNumber":63,"Velocity":59,"Duration":102739,"SoundDuration":102739,"Delta":152808849},{"NoteNumber":64,"Velocity":59,"Duration":102739,"SoundDuration":102739,"Delta":152911588},{"NoteNumber":57,"Velocity":59,"Duration":102739,"SoundDuration":102739,"Delta":153014328},{"NoteNumber":70,"Velocity":67,"Duration":98360,"SoundDuration":98360,"Delta":153117068},{"NoteNumber":37,"Velocity":77,"Duration":196721,"SoundDuration":196721,"Delta":153117068},{"NoteNumber":49,"Velocity":91,"Duration":196721,"SoundDuration":196721,"Delta":153117068},{"NoteNumber":64,"Velocity":61,"Duration":98360,"SoundDuration":98360,"Delta":153215429},{"NoteNumber":65,"Velocity":61,"Duration":104529,"SoundDuration":104529,"Delta":153313789},{"NoteNumber":40,"Velocity":71,"Duration":209058,"SoundDuration":209058,"Delta":153313789},{"NoteNumber":52,"Velocity":84,"Duration":209058,"SoundDuration":209058,"Delta":153313789},{"NoteNumber":58,"Velocity":61,"Duration":104529,"SoundDuration":104529,"Delta":153418319},{"NoteNumber":70,"Velocity":60,"Duration":102739,"SoundDuration":102739,"Delta":153522848},{"NoteNumber":38,"Velocity":74,"Duration":410958,"SoundDuration":410958,"Delta":153522848},{"NoteNumber":50,"Velocity":88,"Duration":410958,"SoundDuration":410958,"Delta":153522848},{"NoteNumber":64,"Velocity":53,"Duration":102739,"SoundDuration":102739,"Delta":153625588},{"NoteNumber":65,"Velocity":53,"Duration":102739,"SoundDuration":102739,"Delta":153728328},{"NoteNumber":58,"Velocity":53,"Duration":102739,"SoundDuration":102739,"Delta":153831068},{"NoteNumber":70,"Velocity":59,"Duration":102739,"SoundDuration":102739,"Delta":153933807},{"NoteNumber":74,"Velocity":70,"Duration":821918,"SoundDuration":821918,"Delta":153933807},{"NoteNumber":77,"Velocity":72,"Duration":821918,"SoundDuration":821918,"Delta":153933807},{"NoteNumber":82,"Velocity":85,"Duration":821918,"SoundDuration":821918,"Delta":153933807},{"NoteNumber":64,"Velocity":51,"Duration":102739,"SoundDuration":102739,"Delta":154036547},{"NoteNumber":65,"Velocity":51,"Duration":102739,"SoundDuration":102739,"Delta":154139287},{"NoteNumber":58,"Velocity":51,"Duration":102739,"SoundDuration":102739,"Delta":154242027},{"NoteNumber":70,"Velocity":58,"Duration":102739,"SoundDuration":102739,"Delta":154344766},{"NoteNumber":64,"Velocity":52,"Duration":102739,"SoundDuration":102739,"Delta":154447506},{"NoteNumber":65,"Velocity":52,"Duration":102739,"SoundDuration":102739,"Delta":154550246},{"NoteNumber":58,"Velocity":52,"Duration":102739,"SoundDuration":102739,"Delta":154652986},{"NoteNumber":73,"Velocity":53,"Duration":102739,"SoundDuration":102739,"Delta":154755725},{"NoteNumber":40,"Velocity":52,"Duration":409298,"SoundDuration":409298,"Delta":154755725},{"NoteNumber":52,"Velocity":52,"Duration":409298,"SoundDuration":409298,"Delta":154755725},{"NoteNumber":66,"Velocity":47,"Duration":102418,"SoundDuration":102418,"Delta":154858465},{"NoteNumber":67,"Velocity":47,"Duration":102185,"SoundDuration":102185,"Delta":154960883},{"NoteNumber":61,"Velocity":48,"Duration":101954,"SoundDuration":101954,"Delta":155063069},{"NoteNumber":74,"Velocity":54,"Duration":101695,"SoundDuration":101695,"Delta":155165024},{"NoteNumber":41,"Velocity":55,"Duration":405152,"SoundDuration":405152,"Delta":155165024},{"NoteNumber":53,"Velocity":55,"Duration":405152,"SoundDuration":405152,"Delta":155165024},{"NoteNumber":68,"Velocity":48,"Duration":101379,"SoundDuration":101379,"Delta":155266719},{"NoteNumber":69,"Velocity":48,"Duration":101152,"SoundDuration":101152,"Delta":155368099},{"NoteNumber":62,"Velocity":49,"Duration":100925,"SoundDuration":100925,"Delta":155469251},{"NoteNumber":76,"Velocity":55,"Duration":100671,"SoundDuration":100671,"Delta":155570176},{"NoteNumber":44,"Velocity":58,"Duration":401090,"SoundDuration":401090,"Delta":155570176},{"NoteNumber":56,"Velocity":58,"Duration":401090,"SoundDuration":401090,"Delta":155570176},{"NoteNumber":70,"Velocity":49,"Duration":100362,"SoundDuration":100362,"Delta":155670847},{"NoteNumber":71,"Velocity":49,"Duration":100139,"SoundDuration":100139,"Delta":155771210},{"NoteNumber":64,"Velocity":49,"Duration":99916,"SoundDuration":99916,"Delta":155871349},{"NoteNumber":77,"Velocity":56,"Duration":99667,"SoundDuration":99667,"Delta":155971266},{"NoteNumber":45,"Velocity":60,"Duration":397189,"SoundDuration":397189,"Delta":155971266},{"NoteNumber":57,"Velocity":60,"Duration":397189,"SoundDuration":397189,"Delta":155971266},{"NoteNumber":71,"Velocity":49,"Duration":99365,"SoundDuration":99365,"Delta":156070934},{"NoteNumber":72,"Velocity":49,"Duration":99146,"SoundDuration":99146,"Delta":156170299},{"NoteNumber":65,"Velocity":50,"Duration":99009,"SoundDuration":99009,"Delta":156269446},{"NoteNumber":80,"Velocity":57,"Duration":99009,"SoundDuration":99009,"Delta":156368456},{"NoteNumber":47,"Velocity":63,"Duration":396039,"SoundDuration":396039,"Delta":156368456},{"NoteNumber":59,"Velocity":63,"Duration":396039,"SoundDuration":396039,"Delta":156368456},{"NoteNumber":75,"Velocity":52,"Duration":99009,"SoundDuration":99009,"Delta":156467466},{"NoteNumber":76,"Velocity":53,"Duration":99010,"SoundDuration":99010,"Delta":156566476},{"NoteNumber":68,"Velocity":54,"Duration":99009,"SoundDuration":99009,"Delta":156665486},{"NoteNumber":81,"Velocity":59,"Duration":100334,"SoundDuration":100334,"Delta":156764496},{"NoteNumber":48,"Velocity":66,"Duration":401338,"SoundDuration":401338,"Delta":156764496},{"NoteNumber":60,"Velocity":66,"Duration":401338,"SoundDuration":401338,"Delta":156764496},{"NoteNumber":75,"Velocity":52,"Duration":100334,"SoundDuration":100334,"Delta":156864830},{"NoteNumber":76,"Velocity":53,"Duration":100334,"SoundDuration":100334,"Delta":156965165},{"NoteNumber":69,"Velocity":53,"Duration":100334,"SoundDuration":100334,"Delta":157065499},{"NoteNumber":83,"Velocity":66,"Duration":99009,"SoundDuration":99009,"Delta":157165834},{"NoteNumber":65,"Velocity":68,"Duration":396039,"SoundDuration":396039,"Delta":157165834},{"NoteNumber":53,"Velocity":68,"Duration":396039,"SoundDuration":396039,"Delta":157165834},{"NoteNumber":75,"Velocity":54,"Duration":99010,"SoundDuration":99010,"Delta":157264844},{"NoteNumber":81,"Velocity":53,"Duration":99009,"SoundDuration":99009,"Delta":157363854},{"NoteNumber":71,"Velocity":52,"Duration":99009,"SoundDuration":99009,"Delta":157462864},{"NoteNumber":84,"Velocity":57,"Duration":99009,"SoundDuration":99009,"Delta":157561874},{"NoteNumber":52,"Velocity":65,"Duration":396039,"SoundDuration":396039,"Delta":157561874},{"NoteNumber":64,"Velocity":65,"Duration":396039,"SoundDuration":396039,"Delta":157561874},{"NoteNumber":76,"Velocity":49,"Duration":99010,"SoundDuration":99010,"Delta":157660884},{"NoteNumber":80,"Velocity":48,"Duration":99009,"SoundDuration":99009,"Delta":157759894},{"NoteNumber":72,"Velocity":48,"Duration":99009,"SoundDuration":99009,"Delta":157858904},{"NoteNumber":81,"Velocity":66,"Duration":402542,"SoundDuration":402542,"Delta":157957914},{"NoteNumber":93,"Velocity":79,"Duration":402542,"SoundDuration":402542,"Delta":157957914},{"NoteNumber":33,"Velocity":75,"Duration":203390,"SoundDuration":203390,"Delta":157957914},{"NoteNumber":35,"Velocity":67,"Duration":101694,"SoundDuration":101694,"Delta":158161304},{"NoteNumber":36,"Velocity":67,"Duration":101695,"SoundDuration":101695,"Delta":158262999},{"NoteNumber":81,"Velocity":62,"Duration":193220,"SoundDuration":193220,"Delta":158364694},{"NoteNumber":93,"Velocity":73,"Duration":193220,"SoundDuration":193220,"Delta":158364694},{"NoteNumber":38,"Velocity":66,"Duration":101695,"SoundDuration":101695,"Delta":158364694},{"NoteNumber":40,"Velocity":66,"Duration":101695,"SoundDuration":101695,"Delta":158466389},{"NoteNumber":81,"Velocity":62,"Duration":193220,"SoundDuration":193220,"Delta":158568084},{"NoteNumber":93,"Velocity":73,"Duration":193220,"SoundDuration":193220,"Delta":158568084},{"NoteNumber":42,"Velocity":65,"Duration":101694,"SoundDuration":101694,"Delta":158568084},{"NoteNumber":44,"Velocity":64,"Duration":101695,"SoundDuration":101695,"Delta":158669779},{"NoteNumber":81,"Velocity":66,"Duration":402542,"SoundDuration":402542,"Delta":158771474},{"NoteNumber":93,"Velocity":79,"Duration":402542,"SoundDuration":402542,"Delta":158771474},{"NoteNumber":45,"Velocity":64,"Duration":101695,"SoundDuration":101695,"Delta":158771474},{"NoteNumber":47,"Velocity":63,"Duration":101695,"SoundDuration":101695,"Delta":158873169},{"NoteNumber":48,"Velocity":63,"Duration":101694,"SoundDuration":101694,"Delta":158974864},{"NoteNumber":50,"Velocity":63,"Duration":101695,"SoundDuration":101695,"Delta":159076559},{"NoteNumber":81,"Velocity":62,"Duration":193220,"SoundDuration":193220,"Delta":159178254},{"NoteNumber":93,"Velocity":73,"Duration":193220,"SoundDuration":193220,"Delta":159178254},{"NoteNumber":52,"Velocity":63,"Duration":101695,"SoundDuration":101695,"Delta":159178254},{"NoteNumber":54,"Velocity":62,"Duration":101695,"SoundDuration":101695,"Delta":159279949},{"NoteNumber":81,"Velocity":61,"Duration":193220,"SoundDuration":193220,"Delta":159381644},{"NoteNumber":93,"Velocity":72,"Duration":193220,"SoundDuration":193220,"Delta":159381644},{"NoteNumber":56,"Velocity":61,"Duration":101695,"SoundDuration":101695,"Delta":159381644},{"NoteNumber":57,"Velocity":61,"Duration":101694,"SoundDuration":101694,"Delta":159483339},{"NoteNumber":81,"Velocity":66,"Duration":196721,"SoundDuration":196721,"Delta":159585034},{"NoteNumber":93,"Velocity":79,"Duration":196721,"SoundDuration":196721,"Delta":159585034},{"NoteNumber":58,"Velocity":58,"Duration":98360,"SoundDuration":98360,"Delta":159585034},{"NoteNumber":61,"Velocity":53,"Duration":98360,"SoundDuration":98360,"Delta":159683394},{"NoteNumber":78,"Velocity":62,"Duration":209058,"SoundDuration":209058,"Delta":159781755},{"NoteNumber":90,"Velocity":73,"Duration":209058,"SoundDuration":209058,"Delta":159781755},{"NoteNumber":62,"Velocity":53,"Duration":104529,"SoundDuration":104529,"Delta":159781755},{"NoteNumber":64,"Velocity":53,"Duration":104529,"SoundDuration":104529,"Delta":159886285},{"NoteNumber":79,"Velocity":64,"Duration":417493,"SoundDuration":417493,"Delta":159990814},{"NoteNumber":91,"Velocity":76,"Duration":417493,"SoundDuration":417493,"Delta":159990814},{"NoteNumber":58,"Velocity":52,"Duration":102739,"SoundDuration":102739,"Delta":159990814},{"NoteNumber":61,"Velocity":46,"Duration":102739,"SoundDuration":102739,"Delta":160093554},{"NoteNumber":62,"Velocity":46,"Duration":106007,"SoundDuration":106007,"Delta":160196294},{"NoteNumber":64,"Velocity":46,"Duration":106007,"SoundDuration":106007,"Delta":160302301},{"NoteNumber":45,"Velocity":97,"Duration":821918,"SoundDuration":821918,"Delta":160408308},{"NoteNumber":58,"Velocity":54,"Duration":102739,"SoundDuration":102739,"Delta":160408308},{"NoteNumber":61,"Velocity":47,"Duration":102739,"SoundDuration":102739,"Delta":160511047},{"NoteNumber":62,"Velocity":47,"Duration":102739,"SoundDuration":102739,"Delta":160613787},{"NoteNumber":64,"Velocity":47,"Duration":102739,"SoundDuration":102739,"Delta":160716527},{"NoteNumber":58,"Velocity":53,"Duration":102739,"SoundDuration":102739,"Delta":160819267},{"NoteNumber":61,"Velocity":48,"Duration":102739,"SoundDuration":102739,"Delta":160922006},{"NoteNumber":62,"Velocity":48,"Duration":102739,"SoundDuration":102739,"Delta":161024746},{"NoteNumber":64,"Velocity":48,"Duration":102739,"SoundDuration":102739,"Delta":161127486},{"NoteNumber":79,"Velocity":66,"Duration":402542,"SoundDuration":402542,"Delta":161230226},{"NoteNumber":91,"Velocity":79,"Duration":402542,"SoundDuration":402542,"Delta":161230226},{"NoteNumber":37,"Velocity":75,"Duration":203390,"SoundDuration":203390,"Delta":161230226},{"NoteNumber":38,"Velocity":67,"Duration":101694,"SoundDuration":101694,"Delta":161433616},{"NoteNumber":40,"Velocity":67,"Duration":101695,"SoundDuration":101695,"Delta":161535311},{"NoteNumber":79,"Velocity":62,"Duration":193220,"SoundDuration":193220,"Delta":161637006},{"NoteNumber":91,"Velocity":73,"Duration":193220,"SoundDuration":193220,"Delta":161637006},{"NoteNumber":41,"Velocity":66,"Duration":101695,"SoundDuration":101695,"Delta":161637006},{"NoteNumber":43,"Velocity":66,"Duration":101695,"SoundDuration":101695,"Delta":161738701},{"NoteNumber":79,"Velocity":62,"Duration":193220,"SoundDuration":193220,"Delta":161840396},{"NoteNumber":91,"Velocity":73,"Duration":193220,"SoundDuration":193220,"Delta":161840396},{"NoteNumber":45,"Velocity":65,"Duration":101694,"SoundDuration":101694,"Delta":161840396},{"NoteNumber":47,"Velocity":64,"Duration":101695,"SoundDuration":101695,"Delta":161942091},{"NoteNumber":79,"Velocity":66,"Duration":402542,"SoundDuration":402542,"Delta":162043786},{"NoteNumber":91,"Velocity":79,"Duration":402542,"SoundDuration":402542,"Delta":162043786},{"NoteNumber":49,"Velocity":64,"Duration":101695,"SoundDuration":101695,"Delta":162043786},{"NoteNumber":50,"Velocity":63,"Duration":101695,"SoundDuration":101695,"Delta":162145481},{"NoteNumber":52,"Velocity":63,"Duration":101694,"SoundDuration":101694,"Delta":162247176},{"NoteNumber":53,"Velocity":63,"Duration":101695,"SoundDuration":101695,"Delta":162348871},{"NoteNumber":79,"Velocity":62,"Duration":193220,"SoundDuration":193220,"Delta":162450566},{"NoteNumber":91,"Velocity":73,"Duration":193220,"SoundDuration":193220,"Delta":162450566},{"NoteNumber":55,"Velocity":63,"Duration":101695,"SoundDuration":101695,"Delta":162450566},{"NoteNumber":57,"Velocity":62,"Duration":101695,"SoundDuration":101695,"Delta":162552261},{"NoteNumber":79,"Velocity":61,"Duration":193220,"SoundDuration":193220,"Delta":162653956},{"NoteNumber":91,"Velocity":72,"Duration":193220,"SoundDuration":193220,"Delta":162653956},{"NoteNumber":59,"Velocity":61,"Duration":101695,"SoundDuration":101695,"Delta":162653956},{"NoteNumber":61,"Velocity":61,"Duration":101694,"SoundDuration":101694,"Delta":162755651},{"NoteNumber":79,"Velocity":66,"Duration":196721,"SoundDuration":196721,"Delta":162857346},{"NoteNumber":91,"Velocity":79,"Duration":196721,"SoundDuration":196721,"Delta":162857346},{"NoteNumber":62,"Velocity":58,"Duration":98360,"SoundDuration":98360,"Delta":162857346},{"NoteNumber":65,"Velocity":53,"Duration":98360,"SoundDuration":98360,"Delta":162955706},{"NoteNumber":76,"Velocity":62,"Duration":209058,"SoundDuration":209058,"Delta":163054067},{"NoteNumber":88,"Velocity":73,"Duration":209058,"SoundDuration":209058,"Delta":163054067},{"NoteNumber":68,"Velocity":53,"Duration":104529,"SoundDuration":104529,"Delta":163054067},{"NoteNumber":69,"Velocity":53,"Duration":104529,"SoundDuration":104529,"Delta":163158597},{"NoteNumber":77,"Velocity":64,"Duration":416746,"SoundDuration":416746,"Delta":163263126},{"NoteNumber":89,"Velocity":76,"Duration":416746,"SoundDuration":416746,"Delta":163263126},{"NoteNumber":62,"Velocity":52,"Duration":102739,"SoundDuration":102739,"Delta":163263126},{"NoteNumber":65,"Velocity":46,"Duration":102739,"SoundDuration":102739,"Delta":163365866},{"NoteNumber":68,"Velocity":46,"Duration":105633,"SoundDuration":105633,"Delta":163468606},{"NoteNumber":69,"Velocity":46,"Duration":105633,"SoundDuration":105633,"Delta":163574239},{"NoteNumber":45,"Velocity":97,"Duration":821918,"SoundDuration":821918,"Delta":163679873},{"NoteNumber":62,"Velocity":54,"Duration":102739,"SoundDuration":102739,"Delta":163679873},{"NoteNumber":65,"Velocity":47,"Duration":102739,"SoundDuration":102739,"Delta":163782613},{"NoteNumber":68,"Velocity":47,"Duration":102739,"SoundDuration":102739,"Delta":163885353},{"NoteNumber":69,"Velocity":47,"Duration":102739,"SoundDuration":102739,"Delta":163988092},{"NoteNumber":62,"Velocity":53,"Duration":102739,"SoundDuration":102739,"Delta":164090832},{"NoteNumber":65,"Velocity":48,"Duration":102739,"SoundDuration":102739,"Delta":164193572},{"NoteNumber":68,"Velocity":48,"Duration":102739,"SoundDuration":102739,"Delta":164296312},{"NoteNumber":69,"Velocity":48,"Duration":102739,"SoundDuration":102739,"Delta":164399051},{"NoteNumber":77,"Velocity":62,"Duration":196721,"SoundDuration":196721,"Delta":164501791},{"NoteNumber":89,"Velocity":75,"Duration":196721,"SoundDuration":196721,"Delta":164501791},{"NoteNumber":60,"Velocity":55,"Duration":98360,"SoundDuration":98360,"Delta":164501791},{"NoteNumber":64,"Velocity":50,"Duration":98360,"SoundDuration":98360,"Delta":164600152},{"NoteNumber":75,"Velocity":58,"Duration":209058,"SoundDuration":209058,"Delta":164698513},{"NoteNumber":87,"Velocity":68,"Duration":209058,"SoundDuration":209058,"Delta":164698513},{"NoteNumber":68,"Velocity":49,"Duration":104529,"SoundDuration":104529,"Delta":164698513},{"NoteNumber":69,"Velocity":49,"Duration":104529,"SoundDuration":104529,"Delta":164803042},{"NoteNumber":76,"Velocity":58,"Duration":416746,"SoundDuration":416746,"Delta":164907572},{"NoteNumber":88,"Velocity":69,"Duration":416746,"SoundDuration":416746,"Delta":164907572},{"NoteNumber":60,"Velocity":47,"Duration":102739,"SoundDuration":102739,"Delta":164907572},{"NoteNumber":64,"Velocity":42,"Duration":102739,"SoundDuration":102739,"Delta":165010311},{"NoteNumber":68,"Velocity":41,"Duration":105633,"SoundDuration":105633,"Delta":165113051},{"NoteNumber":69,"Velocity":41,"Duration":105633,"SoundDuration":105633,"Delta":165218685},{"NoteNumber":45,"Velocity":86,"Duration":821918,"SoundDuration":821918,"Delta":165324319},{"NoteNumber":60,"Velocity":48,"Duration":102739,"SoundDuration":102739,"Delta":165324319},{"NoteNumber":64,"Velocity":41,"Duration":102739,"SoundDuration":102739,"Delta":165427058},{"NoteNumber":68,"Velocity":41,"Duration":102739,"SoundDuration":102739,"Delta":165529798},{"NoteNumber":69,"Velocity":40,"Duration":102739,"SoundDuration":102739,"Delta":165632538},{"NoteNumber":60,"Velocity":45,"Duration":102739,"SoundDuration":102739,"Delta":165735278},{"NoteNumber":64,"Velocity":40,"Duration":102739,"SoundDuration":102739,"Delta":165838017},{"NoteNumber":68,"Velocity":40,"Duration":102739,"SoundDuration":102739,"Delta":165940757},{"NoteNumber":69,"Velocity":40,"Duration":102739,"SoundDuration":102739,"Delta":166043497},{"NoteNumber":76,"Velocity":54,"Duration":199335,"SoundDuration":199335,"Delta":166146237},{"NoteNumber":88,"Velocity":65,"Duration":199335,"SoundDuration":199335,"Delta":166146237},{"NoteNumber":59,"Velocity":48,"Duration":99667,"SoundDuration":99667,"Delta":166146237},{"NoteNumber":62,"Velocity":43,"Duration":99667,"SoundDuration":99667,"Delta":166245904},{"NoteNumber":73,"Velocity":50,"Duration":213523,"SoundDuration":213523,"Delta":166345572},{"NoteNumber":85,"Velocity":59,"Duration":213523,"SoundDuration":213523,"Delta":166345572},{"NoteNumber":68,"Velocity":42,"Duration":106761,"SoundDuration":106761,"Delta":166345572},{"NoteNumber":69,"Velocity":42,"Duration":106761,"SoundDuration":106761,"Delta":166452334},{"NoteNumber":74,"Velocity":51,"Duration":419601,"SoundDuration":419601,"Delta":166559095},{"NoteNumber":86,"Velocity":60,"Duration":419601,"SoundDuration":419601,"Delta":166559095},{"NoteNumber":59,"Velocity":41,"Duration":104166,"SoundDuration":104166,"Delta":166559095},{"NoteNumber":62,"Velocity":36,"Duration":104166,"SoundDuration":104166,"Delta":166663262},{"NoteNumber":68,"Velocity":35,"Duration":105633,"SoundDuration":105633,"Delta":166767429},{"NoteNumber":69,"Velocity":35,"Duration":105633,"SoundDuration":105633,"Delta":166873062},{"NoteNumber":45,"Velocity":74,"Duration":821918,"SoundDuration":821918,"Delta":166978696},{"NoteNumber":59,"Velocity":41,"Duration":102739,"SoundDuration":102739,"Delta":166978696},{"NoteNumber":62,"Velocity":35,"Duration":102739,"SoundDuration":102739,"Delta":167081436},{"NoteNumber":68,"Velocity":35,"Duration":102739,"SoundDuration":102739,"Delta":167184176},{"NoteNumber":69,"Velocity":34,"Duration":102739,"SoundDuration":102739,"Delta":167286915},{"NoteNumber":59,"Velocity":39,"Duration":102739,"SoundDuration":102739,"Delta":167389655},{"NoteNumber":62,"Velocity":35,"Duration":102739,"SoundDuration":102739,"Delta":167492395},{"NoteNumber":68,"Velocity":34,"Duration":102739,"SoundDuration":102739,"Delta":167595135},{"NoteNumber":69,"Velocity":34,"Duration":102739,"SoundDuration":102739,"Delta":167697874},{"NoteNumber":74,"Velocity":48,"Duration":203390,"SoundDuration":203390,"Delta":167800614},{"NoteNumber":86,"Velocity":58,"Duration":203390,"SoundDuration":203390,"Delta":167800614},{"NoteNumber":57,"Velocity":43,"Duration":101695,"SoundDuration":101695,"Delta":167800614},{"NoteNumber":60,"Velocity":35,"Duration":101695,"SoundDuration":101695,"Delta":167902309},{"NoteNumber":71,"Velocity":45,"Duration":222221,"SoundDuration":222221,"Delta":168004004},{"NoteNumber":83,"Velocity":53,"Duration":222221,"SoundDuration":222221,"Delta":168004004},{"NoteNumber":68,"Velocity":35,"Duration":111110,"SoundDuration":111110,"Delta":168004004},{"NoteNumber":69,"Velocity":35,"Duration":111110,"SoundDuration":111110,"Delta":168115115},{"NoteNumber":72,"Velocity":45,"Duration":430271,"SoundDuration":430271,"Delta":168226226},{"NoteNumber":84,"Velocity":54,"Duration":430271,"SoundDuration":430271,"Delta":168226226},{"NoteNumber":57,"Velocity":35,"Duration":106382,"SoundDuration":106382,"Delta":168226226},{"NoteNumber":60,"Velocity":35,"Duration":106382,"SoundDuration":106382,"Delta":168332609},{"NoteNumber":68,"Velocity":31,"Duration":109091,"SoundDuration":109091,"Delta":168438992},{"NoteNumber":69,"Velocity":31,"Duration":108414,"SoundDuration":108414,"Delta":168548083},{"NoteNumber":81,"Velocity":56,"Duration":212765,"SoundDuration":212765,"Delta":168656497},{"NoteNumber":69,"Velocity":47,"Duration":212765,"SoundDuration":212765,"Delta":168656497},{"NoteNumber":48,"Velocity":40,"Duration":106382,"SoundDuration":106382,"Delta":168656497},{"NoteNumber":57,"Velocity":36,"Duration":106382,"SoundDuration":106382,"Delta":168762880},{"NoteNumber":71,"Velocity":50,"Duration":212765,"SoundDuration":212765,"Delta":168869263},{"NoteNumber":83,"Velocity":59,"Duration":212765,"SoundDuration":212765,"Delta":168869263},{"NoteNumber":50,"Velocity":37,"Duration":106382,"SoundDuration":106382,"Delta":168869263},{"NoteNumber":57,"Velocity":38,"Duration":106382,"SoundDuration":106382,"Delta":168975646},{"NoteNumber":72,"Velocity":52,"Duration":212766,"SoundDuration":212766,"Delta":169082029},{"NoteNumber":84,"Velocity":62,"Duration":212766,"SoundDuration":212766,"Delta":169082029},{"NoteNumber":45,"Velocity":46,"Duration":106383,"SoundDuration":106383,"Delta":169082029},{"NoteNumber":57,"Velocity":40,"Duration":106382,"SoundDuration":106382,"Delta":169188412},{"NoteNumber":74,"Velocity":55,"Duration":212765,"SoundDuration":212765,"Delta":169294795},{"NoteNumber":86,"Velocity":65,"Duration":212765,"SoundDuration":212765,"Delta":169294795},{"NoteNumber":47,"Velocity":41,"Duration":106382,"SoundDuration":106382,"Delta":169294795},{"NoteNumber":57,"Velocity":42,"Duration":106382,"SoundDuration":106382,"Delta":169401178},{"NoteNumber":88,"Velocity":68,"Duration":438330,"SoundDuration":438330,"Delta":169507561},{"NoteNumber":76,"Velocity":57,"Duration":438330,"SoundDuration":438330,"Delta":169507561},{"NoteNumber":48,"Velocity":50,"Duration":106382,"SoundDuration":106382,"Delta":169507561},{"NoteNumber":57,"Velocity":43,"Duration":106383,"SoundDuration":106383,"Delta":169613944},{"NoteNumber":52,"Velocity":43,"Duration":112782,"SoundDuration":112782,"Delta":169720327},{"NoteNumber":57,"Velocity":43,"Duration":112781,"SoundDuration":112781,"Delta":169833109},{"NoteNumber":74,"Velocity":56,"Duration":327272,"SoundDuration":327272,"Delta":169945891},{"NoteNumber":86,"Velocity":66,"Duration":327272,"SoundDuration":327272,"Delta":169945891},{"NoteNumber":50,"Velocity":47,"Duration":109091,"SoundDuration":109091,"Delta":169945891},{"NoteNumber":57,"Velocity":39,"Duration":109091,"SoundDuration":109091,"Delta":170054982},{"NoteNumber":53,"Velocity":39,"Duration":109090,"SoundDuration":109090,"Delta":170164073},{"NoteNumber":72,"Velocity":46,"Duration":111110,"SoundDuration":111110,"Delta":170273164},{"NoteNumber":84,"Velocity":55,"Duration":111110,"SoundDuration":111110,"Delta":170273164},{"NoteNumber":57,"Velocity":39,"Duration":111110,"SoundDuration":111110,"Delta":170273164},{"NoteNumber":84,"Velocity":61,"Duration":444444,"SoundDuration":444444,"Delta":170384275},{"NoteNumber":72,"Velocity":51,"Duration":444444,"SoundDuration":444444,"Delta":170384275},{"NoteNumber":52,"Velocity":45,"Duration":111110,"SoundDuration":111110,"Delta":170384275},{"NoteNumber":60,"Velocity":35,"Duration":111111,"SoundDuration":111111,"Delta":170495386},{"NoteNumber":57,"Velocity":35,"Duration":111110,"SoundDuration":111110,"Delta":170606497},{"NoteNumber":60,"Velocity":35,"Duration":111110,"SoundDuration":111110,"Delta":170717608},{"NoteNumber":71,"Velocity":47,"Duration":461747,"SoundDuration":461747,"Delta":170828719},{"NoteNumber":83,"Velocity":56,"Duration":461747,"SoundDuration":461747,"Delta":170828719},{"NoteNumber":52,"Velocity":46,"Duration":114257,"SoundDuration":114257,"Delta":170828719},{"NoteNumber":62,"Velocity":35,"Duration":115829,"SoundDuration":115829,"Delta":170942976},{"NoteNumber":56,"Velocity":35,"Duration":115829,"SoundDuration":115829,"Delta":171058806},{"NoteNumber":62,"Velocity":35,"Duration":115830,"SoundDuration":115830,"Delta":171174636},{"NoteNumber":68,"Velocity":50,"Duration":446097,"SoundDuration":446097,"Delta":171290466},{"NoteNumber":80,"Velocity":59,"Duration":446097,"SoundDuration":446097,"Delta":171290466},{"NoteNumber":53,"Velocity":41,"Duration":111524,"SoundDuration":111524,"Delta":171290466},{"NoteNumber":60,"Velocity":32,"Duration":111524,"SoundDuration":111524,"Delta":171401990},{"NoteNumber":57,"Velocity":33,"Duration":111524,"SoundDuration":111524,"Delta":171513515},{"NoteNumber":60,"Velocity":33,"Duration":111524,"SoundDuration":111524,"Delta":171625039},{"NoteNumber":69,"Velocity":47,"Duration":223048,"SoundDuration":223048,"Delta":171736563},{"NoteNumber":81,"Velocity":56,"Duration":223048,"SoundDuration":223048,"Delta":171736563},{"NoteNumber":53,"Velocity":41,"Duration":111524,"SoundDuration":111524,"Delta":171736563},{"NoteNumber":60,"Velocity":35,"Duration":111524,"SoundDuration":111524,"Delta":171848087},{"NoteNumber":57,"Velocity":35,"Duration":111662,"SoundDuration":111662,"Delta":171959612},{"NoteNumber":60,"Velocity":35,"Duration":112219,"SoundDuration":112219,"Delta":172071275},{"NoteNumber":81,"Velocity":56,"Duration":225563,"SoundDuration":225563,"Delta":172192893},{"NoteNumber":69,"Velocity":47,"Duration":225563,"SoundDuration":225563,"Delta":172192893},{"NoteNumber":48,"Velocity":40,"Duration":112782,"SoundDuration":112782,"Delta":172192893},{"NoteNumber":57,"Velocity":36,"Duration":112781,"SoundDuration":112781,"Delta":172305675},{"NoteNumber":71,"Velocity":50,"Duration":225563,"SoundDuration":225563,"Delta":172418457},{"NoteNumber":83,"Velocity":59,"Duration":225563,"SoundDuration":225563,"Delta":172418457},{"NoteNumber":50,"Velocity":37,"Duration":112782,"SoundDuration":112782,"Delta":172418457},{"NoteNumber":57,"Velocity":38,"Duration":112781,"SoundDuration":112781,"Delta":172531239},{"NoteNumber":72,"Velocity":52,"Duration":225564,"SoundDuration":225564,"Delta":172644021},{"NoteNumber":84,"Velocity":62,"Duration":225564,"SoundDuration":225564,"Delta":172644021},{"NoteNumber":45,"Velocity":46,"Duration":112782,"SoundDuration":112782,"Delta":172644021},{"NoteNumber":57,"Velocity":40,"Duration":112782,"SoundDuration":112782,"Delta":172756803},{"NoteNumber":74,"Velocity":55,"Duration":225563,"SoundDuration":225563,"Delta":172869585},{"NoteNumber":86,"Velocity":65,"Duration":225563,"SoundDuration":225563,"Delta":172869585},{"NoteNumber":47,"Velocity":41,"Duration":112781,"SoundDuration":112781,"Delta":172869585},{"NoteNumber":57,"Velocity":42,"Duration":112782,"SoundDuration":112782,"Delta":172982367},{"NoteNumber":88,"Velocity":68,"Duration":465707,"SoundDuration":465707,"Delta":173095149},{"NoteNumber":76,"Velocity":57,"Duration":465707,"SoundDuration":465707,"Delta":173095149},{"NoteNumber":48,"Velocity":50,"Duration":112782,"SoundDuration":112782,"Delta":173095149},{"NoteNumber":57,"Velocity":43,"Duration":113383,"SoundDuration":113383,"Delta":173207931},{"NoteNumber":52,"Velocity":43,"Duration":120000,"SoundDuration":120000,"Delta":173321314},{"NoteNumber":57,"Velocity":43,"Duration":119541,"SoundDuration":119541,"Delta":173441314},{"NoteNumber":74,"Velocity":56,"Duration":344943,"SoundDuration":344943,"Delta":173560856},{"NoteNumber":86,"Velocity":66,"Duration":344943,"SoundDuration":344943,"Delta":173560856},{"NoteNumber":50,"Velocity":47,"Duration":114503,"SoundDuration":114503,"Delta":173560856},{"NoteNumber":57,"Velocity":39,"Duration":114869,"SoundDuration":114869,"Delta":173675360},{"NoteNumber":53,"Velocity":39,"Duration":115570,"SoundDuration":115570,"Delta":173790230},{"NoteNumber":72,"Velocity":46,"Duration":116204,"SoundDuration":116204,"Delta":173905800},{"NoteNumber":84,"Velocity":55,"Duration":116204,"SoundDuration":116204,"Delta":173905800},{"NoteNumber":57,"Velocity":39,"Duration":116204,"SoundDuration":116204,"Delta":173905800},{"NoteNumber":84,"Velocity":61,"Duration":471924,"SoundDuration":471924,"Delta":174022004},{"NoteNumber":72,"Velocity":51,"Duration":471924,"SoundDuration":471924,"Delta":174022004},{"NoteNumber":52,"Velocity":45,"Duration":116921,"SoundDuration":116921,"Delta":174022004},{"NoteNumber":60,"Velocity":35,"Duration":117570,"SoundDuration":117570,"Delta":174138926},{"NoteNumber":57,"Velocity":35,"Duration":118304,"SoundDuration":118304,"Delta":174256497},{"NoteNumber":60,"Velocity":35,"Duration":119127,"SoundDuration":119127,"Delta":174374801},{"NoteNumber":71,"Velocity":47,"Duration":477633,"SoundDuration":477633,"Delta":174493929},{"NoteNumber":83,"Velocity":56,"Duration":477633,"SoundDuration":477633,"Delta":174493929},{"NoteNumber":52,"Velocity":46,"Duration":119521,"SoundDuration":119521,"Delta":174493929},{"NoteNumber":62,"Velocity":35,"Duration":119522,"SoundDuration":119522,"Delta":174613451},{"NoteNumber":56,"Velocity":35,"Duration":119521,"SoundDuration":119521,"Delta":174732973},{"NoteNumber":62,"Velocity":35,"Duration":119067,"SoundDuration":119067,"Delta":174852495},{"NoteNumber":81,"Velocity":69,"Duration":114068,"SoundDuration":114068,"Delta":174962057},{"NoteNumber":35,"Velocity":68,"Duration":114068,"SoundDuration":114068,"Delta":174962057},{"NoteNumber":47,"Velocity":80,"Duration":114068,"SoundDuration":114068,"Delta":174962057},{"NoteNumber":75,"Velocity":61,"Duration":114068,"SoundDuration":114068,"Delta":175076125},{"NoteNumber":76,"Velocity":61,"Duration":108695,"SoundDuration":108695,"Delta":175190194},{"NoteNumber":38,"Velocity":64,"Duration":108695,"SoundDuration":108695,"Delta":175190194},{"NoteNumber":50,"Velocity":76,"Duration":108695,"SoundDuration":108695,"Delta":175190194},{"NoteNumber":69,"Velocity":61,"Duration":108695,"SoundDuration":108695,"Delta":175298889},{"NoteNumber":69,"Velocity":66,"Duration":111110,"SoundDuration":111110,"Delta":175407585},{"NoteNumber":36,"Velocity":69,"Duration":444444,"SoundDuration":444444,"Delta":175407585},{"NoteNumber":48,"Velocity":82,"Duration":444444,"SoundDuration":444444,"Delta":175407585},{"NoteNumber":63,"Velocity":61,"Duration":111110,"SoundDuration":111110,"Delta":175518696},{"NoteNumber":64,"Velocity":61,"Duration":111111,"SoundDuration":111111,"Delta":175629807},{"NoteNumber":57,"Velocity":61,"Duration":111110,"SoundDuration":111110,"Delta":175740918},{"NoteNumber":82,"Velocity":69,"Duration":113207,"SoundDuration":113207,"Delta":175852029},{"NoteNumber":37,"Velocity":69,"Duration":113207,"SoundDuration":113207,"Delta":175852029},{"NoteNumber":49,"Velocity":81,"Duration":113207,"SoundDuration":113207,"Delta":175852029},{"NoteNumber":76,"Velocity":62,"Duration":113207,"SoundDuration":113207,"Delta":175965237},{"NoteNumber":77,"Velocity":62,"Duration":108695,"SoundDuration":108695,"Delta":176078444},{"NoteNumber":40,"Velocity":64,"Duration":108695,"SoundDuration":108695,"Delta":176078444},{"NoteNumber":52,"Velocity":76,"Duration":108695,"SoundDuration":108695,"Delta":176078444},{"NoteNumber":70,"Velocity":62,"Duration":108695,"SoundDuration":108695,"Delta":176187140},{"NoteNumber":70,"Velocity":66,"Duration":110701,"SoundDuration":110701,"Delta":176295836},{"NoteNumber":38,"Velocity":70,"Duration":442803,"SoundDuration":442803,"Delta":176295836},{"NoteNumber":50,"Velocity":82,"Duration":442803,"SoundDuration":442803,"Delta":176295836},{"NoteNumber":64,"Velocity":62,"Duration":110701,"SoundDuration":110701,"Delta":176406537},{"NoteNumber":65,"Velocity":62,"Duration":110700,"SoundDuration":110700,"Delta":176517238},{"NoteNumber":58,"Velocity":63,"Duration":110701,"SoundDuration":110701,"Delta":176627939},{"NoteNumber":85,"Velocity":72,"Duration":110701,"SoundDuration":110701,"Delta":176738640},{"NoteNumber":39,"Velocity":70,"Duration":110701,"SoundDuration":110701,"Delta":176738640},{"NoteNumber":51,"Velocity":83,"Duration":110701,"SoundDuration":110701,"Delta":176738640},{"NoteNumber":78,"Velocity":63,"Duration":110701,"SoundDuration":110701,"Delta":176849341},{"NoteNumber":79,"Velocity":64,"Duration":107142,"SoundDuration":107142,"Delta":176960042},{"NoteNumber":41,"Velocity":65,"Duration":107142,"SoundDuration":107142,"Delta":176960042},{"NoteNumber":53,"Velocity":77,"Duration":107142,"SoundDuration":107142,"Delta":176960042},{"NoteNumber":73,"Velocity":64,"Duration":107142,"SoundDuration":107142,"Delta":177067184},{"NoteNumber":73,"Velocity":70,"Duration":111110,"SoundDuration":111110,"Delta":177174327},{"NoteNumber":40,"Velocity":71,"Duration":444444,"SoundDuration":444444,"Delta":177174327},{"NoteNumber":52,"Velocity":84,"Duration":444444,"SoundDuration":444444,"Delta":177174327},{"NoteNumber":66,"Velocity":64,"Duration":111110,"SoundDuration":111110,"Delta":177285438},{"NoteNumber":67,"Velocity":63,"Duration":111111,"SoundDuration":111111,"Delta":177396549},{"NoteNumber":61,"Velocity":63,"Duration":111110,"SoundDuration":111110,"Delta":177507660},{"NoteNumber":86,"Velocity":75,"Duration":109091,"SoundDuration":109091,"Delta":177618771},{"NoteNumber":40,"Velocity":72,"Duration":109091,"SoundDuration":109091,"Delta":177618771},{"NoteNumber":52,"Velocity":84,"Duration":109091,"SoundDuration":109091,"Delta":177618771},{"NoteNumber":80,"Velocity":63,"Duration":109091,"SoundDuration":109091,"Delta":177727862},{"NoteNumber":81,"Velocity":64,"Duration":104894,"SoundDuration":104894,"Delta":177836953},{"NoteNumber":43,"Velocity":66,"Duration":104894,"SoundDuration":104894,"Delta":177836953},{"NoteNumber":55,"Velocity":79,"Duration":104894,"SoundDuration":104894,"Delta":177836953},{"NoteNumber":74,"Velocity":64,"Duration":104894,"SoundDuration":104894,"Delta":177941848},{"NoteNumber":74,"Velocity":69,"Duration":111524,"SoundDuration":111524,"Delta":178046743},{"NoteNumber":41,"Velocity":72,"Duration":446097,"SoundDuration":446097,"Delta":178046743},{"NoteNumber":53,"Velocity":85,"Duration":446097,"SoundDuration":446097,"Delta":178046743},{"NoteNumber":68,"Velocity":64,"Duration":111524,"SoundDuration":111524,"Delta":178158267},{"NoteNumber":69,"Velocity":64,"Duration":111524,"SoundDuration":111524,"Delta":178269792},{"NoteNumber":62,"Velocity":64,"Duration":111524,"SoundDuration":111524,"Delta":178381316},{"NoteNumber":89,"Velocity":76,"Duration":109890,"SoundDuration":109890,"Delta":178492840},{"NoteNumber":44,"Velocity":73,"Duration":109890,"SoundDuration":109890,"Delta":178492840},{"NoteNumber":56,"Velocity":86,"Duration":109890,"SoundDuration":109890,"Delta":178492840},{"NoteNumber":85,"Velocity":65,"Duration":109889,"SoundDuration":109889,"Delta":178602730},{"NoteNumber":86,"Velocity":65,"Duration":116731,"SoundDuration":116731,"Delta":178712620},{"NoteNumber":62,"Velocity":80,"Duration":116731,"SoundDuration":116731,"Delta":178712620},{"NoteNumber":59,"Velocity":67,"Duration":116731,"SoundDuration":116731,"Delta":178712620},{"NoteNumber":77,"Velocity":65,"Duration":116731,"SoundDuration":116731,"Delta":178829352},{"NoteNumber":89,"Velocity":71,"Duration":112782,"SoundDuration":112782,"Delta":178946083},{"NoteNumber":65,"Velocity":88,"Duration":917679,"SoundDuration":917679,"Delta":178946083},{"NoteNumber":62,"Velocity":74,"Duration":917679,"SoundDuration":917679,"Delta":178946083},{"NoteNumber":59,"Velocity":74,"Duration":917679,"SoundDuration":917679,"Delta":178946083},{"NoteNumber":56,"Velocity":74,"Duration":917679,"SoundDuration":917679,"Delta":178946083},{"NoteNumber":85,"Velocity":66,"Duration":112781,"SoundDuration":112781,"Delta":179058865},{"NoteNumber":86,"Velocity":66,"Duration":112782,"SoundDuration":112782,"Delta":179171647},{"NoteNumber":77,"Velocity":66,"Duration":112782,"SoundDuration":112782,"Delta":179284429},{"NoteNumber":89,"Velocity":70,"Duration":112781,"SoundDuration":112781,"Delta":179397211},{"NoteNumber":85,"Velocity":61,"Duration":112782,"SoundDuration":112782,"Delta":179509993},{"NoteNumber":86,"Velocity":61,"Duration":112782,"SoundDuration":112782,"Delta":179622775},{"NoteNumber":77,"Velocity":61,"Duration":128205,"SoundDuration":128205,"Delta":179735557},{"NoteNumber":80,"Velocity":64,"Duration":119047,"SoundDuration":119047,"Delta":179863762},{"NoteNumber":52,"Velocity":37,"Duration":476190,"SoundDuration":476190,"Delta":179863762},{"NoteNumber":56,"Velocity":37,"Duration":476190,"SoundDuration":476190,"Delta":179863762},{"NoteNumber":59,"Velocity":45,"Duration":476190,"SoundDuration":476190,"Delta":179863762},{"NoteNumber":83,"Velocity":58,"Duration":119047,"SoundDuration":119047,"Delta":179982810},{"NoteNumber":86,"Velocity":58,"Duration":119047,"SoundDuration":119047,"Delta":180101857},{"NoteNumber":89,"Velocity":58,"Duration":119047,"SoundDuration":119047,"Delta":180220905},{"NoteNumber":88,"Velocity":61,"Duration":449444,"SoundDuration":449444,"Delta":180339952},{"NoteNumber":76,"Velocity":51,"Duration":449444,"SoundDuration":449444,"Delta":180339952},{"NoteNumber":48,"Velocity":45,"Duration":111940,"SoundDuration":111940,"Delta":180339952},{"NoteNumber":57,"Velocity":38,"Duration":111940,"SoundDuration":111940,"Delta":180451893},{"NoteNumber":52,"Velocity":38,"Duration":112782,"SoundDuration":112782,"Delta":180563833},{"NoteNumber":57,"Velocity":38,"Duration":112781,"SoundDuration":112781,"Delta":180676615},{"NoteNumber":74,"Velocity":50,"Duration":327272,"SoundDuration":327272,"Delta":180789397},{"NoteNumber":86,"Velocity":59,"Duration":327272,"SoundDuration":327272,"Delta":180789397},{"NoteNumber":50,"Velocity":42,"Duration":109091,"SoundDuration":109091,"Delta":180789397},{"NoteNumber":57,"Velocity":35,"Duration":109091,"SoundDuration":109091,"Delta":180898488},{"NoteNumber":53,"Velocity":35,"Duration":109090,"SoundDuration":109090,"Delta":181007579},{"NoteNumber":72,"Velocity":41,"Duration":111110,"SoundDuration":111110,"Delta":181116670},{"NoteNumber":84,"Velocity":49,"Duration":111110,"SoundDuration":111110,"Delta":181116670},{"NoteNumber":57,"Velocity":35,"Duration":111110,"SoundDuration":111110,"Delta":181116670},{"NoteNumber":84,"Velocity":54,"Duration":444444,"SoundDuration":444444,"Delta":181227781},{"NoteNumber":72,"Velocity":45,"Duration":444444,"SoundDuration":444444,"Delta":181227781},{"NoteNumber":52,"Velocity":40,"Duration":111110,"SoundDuration":111110,"Delta":181227781},{"NoteNumber":60,"Velocity":31,"Duration":111111,"SoundDuration":111111,"Delta":181338892},{"NoteNumber":57,"Velocity":31,"Duration":111110,"SoundDuration":111110,"Delta":181450003},{"NoteNumber":60,"Velocity":31,"Duration":111110,"SoundDuration":111110,"Delta":181561114},{"NoteNumber":71,"Velocity":42,"Duration":486905,"SoundDuration":486905,"Delta":181672225},{"NoteNumber":83,"Velocity":50,"Duration":486905,"SoundDuration":486905,"Delta":181672225},{"NoteNumber":52,"Velocity":41,"Duration":116280,"SoundDuration":116280,"Delta":181672225},{"NoteNumber":62,"Velocity":31,"Duration":117648,"SoundDuration":117648,"Delta":181788505},{"NoteNumber":56,"Velocity":31,"Duration":119048,"SoundDuration":119048,"Delta":181906153},{"NoteNumber":62,"Velocity":31,"Duration":133928,"SoundDuration":133928,"Delta":182025202},{"NoteNumber":88,"Velocity":43,"Duration":457184,"SoundDuration":457184,"Delta":182159131},{"NoteNumber":76,"Velocity":36,"Duration":457184,"SoundDuration":457184,"Delta":182159131},{"NoteNumber":48,"Velocity":32,"Duration":113207,"SoundDuration":113207,"Delta":182159131},{"NoteNumber":57,"Velocity":27,"Duration":113207,"SoundDuration":113207,"Delta":182272338},{"NoteNumber":52,"Velocity":27,"Duration":115384,"SoundDuration":115384,"Delta":182385546},{"NoteNumber":57,"Velocity":27,"Duration":115384,"SoundDuration":115384,"Delta":182500930},{"NoteNumber":74,"Velocity":36,"Duration":332102,"SoundDuration":332102,"Delta":182616315},{"NoteNumber":86,"Velocity":42,"Duration":332102,"SoundDuration":332102,"Delta":182616315},{"NoteNumber":50,"Velocity":29,"Duration":110701,"SoundDuration":110701,"Delta":182616315},{"NoteNumber":57,"Velocity":25,"Duration":110701,"SoundDuration":110701,"Delta":182727016},{"NoteNumber":53,"Velocity":25,"Duration":110700,"SoundDuration":110700,"Delta":182837717},{"NoteNumber":72,"Velocity":28,"Duration":111110,"SoundDuration":111110,"Delta":182948418},{"NoteNumber":84,"Velocity":35,"Duration":111110,"SoundDuration":111110,"Delta":182948418},{"NoteNumber":57,"Velocity":25,"Duration":111110,"SoundDuration":111110,"Delta":182948418},{"NoteNumber":84,"Velocity":38,"Duration":456274,"SoundDuration":456274,"Delta":183059529},{"NoteNumber":72,"Velocity":32,"Duration":456274,"SoundDuration":456274,"Delta":183059529},{"NoteNumber":52,"Velocity":28,"Duration":114068,"SoundDuration":114068,"Delta":183059529},{"NoteNumber":60,"Velocity":21,"Duration":114068,"SoundDuration":114068,"Delta":183173597},{"NoteNumber":57,"Velocity":21,"Duration":114068,"SoundDuration":114068,"Delta":183287666},{"NoteNumber":60,"Velocity":21,"Duration":114068,"SoundDuration":114068,"Delta":183401734},{"NoteNumber":71,"Velocity":29,"Duration":482132,"SoundDuration":482132,"Delta":183515803},{"NoteNumber":83,"Velocity":36,"Duration":482132,"SoundDuration":482132,"Delta":183515803},{"NoteNumber":52,"Velocity":28,"Duration":115243,"SoundDuration":115243,"Delta":183515803},{"NoteNumber":62,"Velocity":21,"Duration":118741,"SoundDuration":118741,"Delta":183631047},{"NoteNumber":56,"Velocity":21,"Duration":122624,"SoundDuration":122624,"Delta":183749788},{"NoteNumber":62,"Velocity":21,"Duration":125522,"SoundDuration":125522,"Delta":183872413},{"NoteNumber":81,"Velocity":69,"Duration":114942,"SoundDuration":114942,"Delta":183997936},{"NoteNumber":35,"Velocity":68,"Duration":114942,"SoundDuration":114942,"Delta":183997936},{"NoteNumber":47,"Velocity":80,"Duration":114942,"SoundDuration":114942,"Delta":183997936},{"NoteNumber":75,"Velocity":61,"Duration":114942,"SoundDuration":114942,"Delta":184112878},{"NoteNumber":76,"Velocity":61,"Duration":110294,"SoundDuration":110294,"Delta":184227821},{"NoteNumber":38,"Velocity":64,"Duration":110294,"SoundDuration":110294,"Delta":184227821},{"NoteNumber":50,"Velocity":76,"Duration":110294,"SoundDuration":110294,"Delta":184227821},{"NoteNumber":69,"Velocity":61,"Duration":103860,"SoundDuration":103860,"Delta":184338115},{"NoteNumber":69,"Velocity":66,"Duration":112359,"SoundDuration":112359,"Delta":184448409},{"NoteNumber":36,"Velocity":69,"Duration":449437,"SoundDuration":449437,"Delta":184448409},{"NoteNumber":48,"Velocity":82,"Duration":449437,"SoundDuration":449437,"Delta":184448409},{"NoteNumber":63,"Velocity":61,"Duration":112359,"SoundDuration":112359,"Delta":184560768},{"NoteNumber":64,"Velocity":61,"Duration":112359,"SoundDuration":112359,"Delta":184673128},{"NoteNumber":57,"Velocity":61,"Duration":112359,"SoundDuration":112359,"Delta":184785487},{"NoteNumber":82,"Velocity":68,"Duration":111524,"SoundDuration":111524,"Delta":184897847},{"NoteNumber":37,"Velocity":68,"Duration":111524,"SoundDuration":111524,"Delta":184897847},{"NoteNumber":49,"Velocity":80,"Duration":111524,"SoundDuration":111524,"Delta":184897847},{"NoteNumber":76,"Velocity":61,"Duration":111524,"SoundDuration":111524,"Delta":185009371},{"NoteNumber":77,"Velocity":62,"Duration":108695,"SoundDuration":108695,"Delta":185120895},{"NoteNumber":40,"Velocity":64,"Duration":108695,"SoundDuration":108695,"Delta":185120895},{"NoteNumber":52,"Velocity":76,"Duration":108695,"SoundDuration":108695,"Delta":185120895},{"NoteNumber":70,"Velocity":62,"Duration":101449,"SoundDuration":101449,"Delta":185229591},{"NoteNumber":70,"Velocity":66,"Duration":110701,"SoundDuration":110701,"Delta":185338287},{"NoteNumber":38,"Velocity":69,"Duration":442803,"SoundDuration":442803,"Delta":185338287},{"NoteNumber":50,"Velocity":81,"Duration":442803,"SoundDuration":442803,"Delta":185338287},{"NoteNumber":64,"Velocity":62,"Duration":110701,"SoundDuration":110701,"Delta":185448988},{"NoteNumber":65,"Velocity":62,"Duration":110700,"SoundDuration":110700,"Delta":185559689},{"NoteNumber":58,"Velocity":62,"Duration":110701,"SoundDuration":110701,"Delta":185670390},{"NoteNumber":85,"Velocity":72,"Duration":110701,"SoundDuration":110701,"Delta":185781091},{"NoteNumber":39,"Velocity":70,"Duration":110701,"SoundDuration":110701,"Delta":185781091},{"NoteNumber":51,"Velocity":82,"Duration":110701,"SoundDuration":110701,"Delta":185781091},{"NoteNumber":78,"Velocity":62,"Duration":110701,"SoundDuration":110701,"Delta":185891792},{"NoteNumber":79,"Velocity":62,"Duration":107142,"SoundDuration":107142,"Delta":186002493},{"NoteNumber":41,"Velocity":63,"Duration":107142,"SoundDuration":107142,"Delta":186002493},{"NoteNumber":53,"Velocity":76,"Duration":107142,"SoundDuration":107142,"Delta":186002493},{"NoteNumber":73,"Velocity":62,"Duration":100892,"SoundDuration":100892,"Delta":186109635},{"NoteNumber":73,"Velocity":69,"Duration":110294,"SoundDuration":110294,"Delta":186216778},{"NoteNumber":40,"Velocity":70,"Duration":441176,"SoundDuration":441176,"Delta":186216778},{"NoteNumber":52,"Velocity":83,"Duration":441176,"SoundDuration":441176,"Delta":186216778},{"NoteNumber":66,"Velocity":63,"Duration":110293,"SoundDuration":110293,"Delta":186327072},{"NoteNumber":67,"Velocity":62,"Duration":110294,"SoundDuration":110294,"Delta":186437366},{"NoteNumber":61,"Velocity":62,"Duration":110294,"SoundDuration":110294,"Delta":186547660},{"NoteNumber":86,"Velocity":74,"Duration":108303,"SoundDuration":108303,"Delta":186657954},{"NoteNumber":40,"Velocity":71,"Duration":108303,"SoundDuration":108303,"Delta":186657954},{"NoteNumber":52,"Velocity":84,"Duration":108303,"SoundDuration":108303,"Delta":186657954},{"NoteNumber":80,"Velocity":63,"Duration":108303,"SoundDuration":108303,"Delta":186766257},{"NoteNumber":81,"Velocity":63,"Duration":104166,"SoundDuration":104166,"Delta":186874561},{"NoteNumber":43,"Velocity":65,"Duration":104166,"SoundDuration":104166,"Delta":186874561},{"NoteNumber":55,"Velocity":77,"Duration":104166,"SoundDuration":104166,"Delta":186874561},{"NoteNumber":74,"Velocity":63,"Duration":98090,"SoundDuration":98090,"Delta":186978727},{"NoteNumber":74,"Velocity":68,"Duration":111524,"SoundDuration":111524,"Delta":187082894},{"NoteNumber":41,"Velocity":71,"Duration":446097,"SoundDuration":446097,"Delta":187082894},{"NoteNumber":53,"Velocity":84,"Duration":446097,"SoundDuration":446097,"Delta":187082894},{"NoteNumber":68,"Velocity":63,"Duration":111524,"SoundDuration":111524,"Delta":187194418},{"NoteNumber":69,"Velocity":63,"Duration":111524,"SoundDuration":111524,"Delta":187305943},{"NoteNumber":62,"Velocity":63,"Duration":111524,"SoundDuration":111524,"Delta":187417467},{"NoteNumber":88,"Velocity":74,"Duration":108303,"SoundDuration":108303,"Delta":187528991},{"NoteNumber":42,"Velocity":72,"Duration":108303,"SoundDuration":108303,"Delta":187528991},{"NoteNumber":54,"Velocity":84,"Duration":108303,"SoundDuration":108303,"Delta":187528991},{"NoteNumber":82,"Velocity":64,"Duration":108303,"SoundDuration":108303,"Delta":187637294},{"NoteNumber":83,"Velocity":65,"Duration":104894,"SoundDuration":104894,"Delta":187745598},{"NoteNumber":45,"Velocity":66,"Duration":104894,"SoundDuration":104894,"Delta":187745598},{"NoteNumber":57,"Velocity":79,"Duration":104894,"SoundDuration":104894,"Delta":187745598},{"NoteNumber":76,"Velocity":65,"Duration":97027,"SoundDuration":97027,"Delta":187850493},{"NoteNumber":76,"Velocity":71,"Duration":111110,"SoundDuration":111110,"Delta":187955388},{"NoteNumber":44,"Velocity":72,"Duration":444444,"SoundDuration":444444,"Delta":187955388},{"NoteNumber":56,"Velocity":85,"Duration":444444,"SoundDuration":444444,"Delta":187955388},{"NoteNumber":70,"Velocity":65,"Duration":111110,"SoundDuration":111110,"Delta":188066499},{"NoteNumber":71,"Velocity":64,"Duration":111111,"SoundDuration":111111,"Delta":188177610},{"NoteNumber":64,"Velocity":64,"Duration":111110,"SoundDuration":111110,"Delta":188288721},{"NoteNumber":89,"Velocity":76,"Duration":111110,"SoundDuration":111110,"Delta":188399832},{"NoteNumber":44,"Velocity":73,"Duration":111110,"SoundDuration":111110,"Delta":188399832},{"NoteNumber":56,"Velocity":86,"Duration":111110,"SoundDuration":111110,"Delta":188399832},{"NoteNumber":83,"Velocity":64,"Duration":111110,"SoundDuration":111110,"Delta":188510943},{"NoteNumber":84,"Velocity":64,"Duration":107913,"SoundDuration":107913,"Delta":188622054},{"NoteNumber":47,"Velocity":66,"Duration":107913,"SoundDuration":107913,"Delta":188622054},{"NoteNumber":59,"Velocity":79,"Duration":107913,"SoundDuration":107913,"Delta":188622054},{"NoteNumber":77,"Velocity":64,"Duration":98021,"SoundDuration":98021,"Delta":188729967},{"NoteNumber":77,"Velocity":70,"Duration":111524,"SoundDuration":111524,"Delta":188837881},{"NoteNumber":45,"Velocity":74,"Duration":464763,"SoundDuration":464763,"Delta":188837881},{"NoteNumber":57,"Velocity":87,"Duration":464763,"SoundDuration":464763,"Delta":188837881},{"NoteNumber":71,"Velocity":65,"Duration":111524,"SoundDuration":111524,"Delta":188949405},{"NoteNumber":72,"Velocity":65,"Duration":124481,"SoundDuration":124481,"Delta":189060930},{"NoteNumber":65,"Velocity":65,"Duration":117234,"SoundDuration":117234,"Delta":189185411},{"NoteNumber":80,"Velocity":81,"Duration":205479,"SoundDuration":205479,"Delta":189302645},{"NoteNumber":92,"Velocity":88,"Duration":205479,"SoundDuration":205479,"Delta":189302645},{"NoteNumber":58,"Velocity":77,"Duration":825816,"SoundDuration":825816,"Delta":189302645},{"NoteNumber":62,"Velocity":77,"Duration":825816,"SoundDuration":825816,"Delta":189302645},{"NoteNumber":65,"Velocity":77,"Duration":825816,"SoundDuration":825816,"Delta":189302645},{"NoteNumber":68,"Velocity":92,"Duration":824951,"SoundDuration":824951,"Delta":189302645},{"NoteNumber":91,"Velocity":81,"Duration":103092,"SoundDuration":103092,"Delta":189508124},{"NoteNumber":89,"Velocity":80,"Duration":103092,"SoundDuration":103092,"Delta":189611217},{"NoteNumber":87,"Velocity":79,"Duration":103329,"SoundDuration":103329,"Delta":189714310},{"NoteNumber":86,"Velocity":78,"Duration":103448,"SoundDuration":103448,"Delta":189817640},{"NoteNumber":84,"Velocity":77,"Duration":103567,"SoundDuration":103567,"Delta":189921088},{"NoteNumber":82,"Velocity":76,"Duration":103806,"SoundDuration":103806,"Delta":190024655},{"NoteNumber":80,"Velocity":75,"Duration":103806,"SoundDuration":103806,"Delta":190128462},{"NoteNumber":79,"Velocity":74,"Duration":104166,"SoundDuration":104166,"Delta":190232268},{"NoteNumber":77,"Velocity":73,"Duration":104166,"SoundDuration":104166,"Delta":190336435},{"NoteNumber":75,"Velocity":72,"Duration":104408,"SoundDuration":104408,"Delta":190440601},{"NoteNumber":74,"Velocity":72,"Duration":104529,"SoundDuration":104529,"Delta":190545010},{"NoteNumber":72,"Velocity":71,"Duration":104651,"SoundDuration":104651,"Delta":190649540},{"NoteNumber":70,"Velocity":70,"Duration":104894,"SoundDuration":104894,"Delta":190754191},{"NoteNumber":69,"Velocity":69,"Duration":104894,"SoundDuration":104894,"Delta":190859086},{"NoteNumber":68,"Velocity":68,"Duration":105263,"SoundDuration":105263,"Delta":190963981},{"NoteNumber":67,"Velocity":66,"Duration":105510,"SoundDuration":105510,"Delta":191069244},{"NoteNumber":65,"Velocity":65,"Duration":105758,"SoundDuration":105758,"Delta":191174754},{"NoteNumber":63,"Velocity":64,"Duration":106006,"SoundDuration":106006,"Delta":191280513},{"NoteNumber":62,"Velocity":63,"Duration":106382,"SoundDuration":106382,"Delta":191386520},{"NoteNumber":60,"Velocity":62,"Duration":106635,"SoundDuration":106635,"Delta":191492903},{"NoteNumber":58,"Velocity":61,"Duration":106888,"SoundDuration":106888,"Delta":191599538},{"NoteNumber":56,"Velocity":60,"Duration":107142,"SoundDuration":107142,"Delta":191706426},{"NoteNumber":57,"Velocity":59,"Duration":107527,"SoundDuration":107527,"Delta":191813569},{"NoteNumber":58,"Velocity":59,"Duration":107784,"SoundDuration":107784,"Delta":191921096},{"NoteNumber":60,"Velocity":58,"Duration":108043,"SoundDuration":108043,"Delta":192028881},{"NoteNumber":58,"Velocity":57,"Duration":108303,"SoundDuration":108303,"Delta":192136925},{"NoteNumber":57,"Velocity":56,"Duration":108695,"SoundDuration":108695,"Delta":192245228},{"NoteNumber":58,"Velocity":55,"Duration":108959,"SoundDuration":108959,"Delta":192353924},{"NoteNumber":60,"Velocity":54,"Duration":109223,"SoundDuration":109223,"Delta":192462883},{"NoteNumber":58,"Velocity":53,"Duration":109488,"SoundDuration":109488,"Delta":192572107},{"NoteNumber":57,"Velocity":53,"Duration":146925,"SoundDuration":146925,"Delta":192681596},{"NoteNumber":60,"Velocity":46,"Duration":148425,"SoundDuration":148425,"Delta":192828521},{"NoteNumber":58,"Velocity":46,"Duration":150096,"SoundDuration":150096,"Delta":192976946},{"NoteNumber":57,"Velocity":51,"Duration":151805,"SoundDuration":151805,"Delta":193127042},{"NoteNumber":60,"Velocity":45,"Duration":153553,"SoundDuration":153553,"Delta":193278848},{"NoteNumber":58,"Velocity":45,"Duration":155342,"SoundDuration":155342,"Delta":193432401},{"NoteNumber":57,"Velocity":53,"Duration":159863,"SoundDuration":159863,"Delta":193587744},{"NoteNumber":60,"Velocity":42,"Duration":167748,"SoundDuration":167748,"Delta":193747608},{"NoteNumber":58,"Velocity":42,"Duration":176639,"SoundDuration":176639,"Delta":193915356},{"NoteNumber":57,"Velocity":49,"Duration":185659,"SoundDuration":185659,"Delta":194091995},{"NoteNumber":60,"Velocity":38,"Duration":198269,"SoundDuration":198269,"Delta":194277655},{"NoteNumber":58,"Velocity":38,"Duration":269034,"SoundDuration":269034,"Delta":194475924},{"NoteNumber":57,"Velocity":36,"Duration":300000,"SoundDuration":300000,"Delta":194744959},{"NoteNumber":69,"Velocity":44,"Duration":300000,"SoundDuration":300000,"Delta":194744959},{"NoteNumber":60,"Velocity":30,"Duration":291261,"SoundDuration":291261,"Delta":195044959},{"NoteNumber":72,"Velocity":36,"Duration":291261,"SoundDuration":291261,"Delta":195044959},{"NoteNumber":58,"Velocity":30,"Duration":591262,"SoundDuration":591262,"Delta":195336221},{"NoteNumber":70,"Velocity":36,"Duration":591262,"SoundDuration":591262,"Delta":195336221},{"NoteNumber":57,"Velocity":35,"Duration":291261,"SoundDuration":291261,"Delta":195927483},{"NoteNumber":69,"Velocity":42,"Duration":291261,"SoundDuration":291261,"Delta":195927483},{"NoteNumber":60,"Velocity":29,"Duration":291262,"SoundDuration":291262,"Delta":196218745},{"NoteNumber":72,"Velocity":35,"Duration":291262,"SoundDuration":291262,"Delta":196218745},{"NoteNumber":58,"Velocity":29,"Duration":603761,"SoundDuration":603761,"Delta":196510007},{"NoteNumber":70,"Velocity":35,"Duration":603761,"SoundDuration":603761,"Delta":196510007},{"NoteNumber":69,"Velocity":44,"Duration":304568,"SoundDuration":304568,"Delta":197113769},{"NoteNumber":51,"Velocity":36,"Duration":152284,"SoundDuration":152284,"Delta":197113769},{"NoteNumber":58,"Velocity":30,"Duration":152284,"SoundDuration":152284,"Delta":197266053},{"NoteNumber":72,"Velocity":39,"Duration":294117,"SoundDuration":294117,"Delta":197418337},{"NoteNumber":55,"Velocity":31,"Duration":147058,"SoundDuration":147058,"Delta":197418337},{"NoteNumber":58,"Velocity":31,"Duration":147058,"SoundDuration":147058,"Delta":197565396},{"NoteNumber":70,"Velocity":50,"Duration":857143,"SoundDuration":857143,"Delta":197712455},{"NoteNumber":63,"Velocity":36,"Duration":142857,"SoundDuration":142857,"Delta":197712455},{"NoteNumber":58,"Velocity":31,"Duration":142857,"SoundDuration":142857,"Delta":197855312},{"NoteNumber":55,"Velocity":31,"Duration":142857,"SoundDuration":142857,"Delta":197998169},{"NoteNumber":58,"Velocity":31,"Duration":142857,"SoundDuration":142857,"Delta":198141027},{"NoteNumber":51,"Velocity":36,"Duration":142857,"SoundDuration":142857,"Delta":198283884},{"NoteNumber":58,"Velocity":31,"Duration":142857,"SoundDuration":142857,"Delta":198426741},{"NoteNumber":72,"Velocity":46,"Duration":280373,"SoundDuration":280373,"Delta":198569598},{"NoteNumber":55,"Velocity":31,"Duration":140186,"SoundDuration":140186,"Delta":198569598},{"NoteNumber":58,"Velocity":32,"Duration":140186,"SoundDuration":140186,"Delta":198709785},{"NoteNumber":74,"Velocity":48,"Duration":280373,"SoundDuration":280373,"Delta":198849972},{"NoteNumber":63,"Velocity":36,"Duration":140186,"SoundDuration":140186,"Delta":198849972},{"NoteNumber":58,"Velocity":31,"Duration":140186,"SoundDuration":140186,"Delta":198990159},{"NoteNumber":75,"Velocity":50,"Duration":295566,"SoundDuration":295566,"Delta":199130346},{"NoteNumber":55,"Velocity":31,"Duration":147783,"SoundDuration":147783,"Delta":199130346},{"NoteNumber":58,"Velocity":31,"Duration":147783,"SoundDuration":147783,"Delta":199278130},{"NoteNumber":69,"Velocity":52,"Duration":294117,"SoundDuration":294117,"Delta":199425913},{"NoteNumber":51,"Velocity":36,"Duration":147058,"SoundDuration":147058,"Delta":199425913},{"NoteNumber":58,"Velocity":30,"Duration":147058,"SoundDuration":147058,"Delta":199572972},{"NoteNumber":72,"Velocity":49,"Duration":284359,"SoundDuration":284359,"Delta":199720030},{"NoteNumber":55,"Velocity":31,"Duration":142179,"SoundDuration":142179,"Delta":199720030},{"NoteNumber":58,"Velocity":31,"Duration":142179,"SoundDuration":142179,"Delta":199862210},{"NoteNumber":70,"Velocity":53,"Duration":853080,"SoundDuration":853080,"Delta":200004390},{"NoteNumber":63,"Velocity":36,"Duration":142179,"SoundDuration":142179,"Delta":200004390},{"NoteNumber":58,"Velocity":31,"Duration":142180,"SoundDuration":142180,"Delta":200146570},{"NoteNumber":55,"Velocity":31,"Duration":142179,"SoundDuration":142179,"Delta":200288750},{"NoteNumber":58,"Velocity":31,"Duration":142179,"SoundDuration":142179,"Delta":200430930},{"NoteNumber":51,"Velocity":36,"Duration":142179,"SoundDuration":142179,"Delta":200573110},{"NoteNumber":58,"Velocity":31,"Duration":142179,"SoundDuration":142179,"Delta":200715290},{"NoteNumber":72,"Velocity":47,"Duration":280373,"SoundDuration":280373,"Delta":200857470},{"NoteNumber":55,"Velocity":31,"Duration":140186,"SoundDuration":140186,"Delta":200857470},{"NoteNumber":58,"Velocity":32,"Duration":140186,"SoundDuration":140186,"Delta":200997657},{"NoteNumber":74,"Velocity":49,"Duration":280373,"SoundDuration":280373,"Delta":201137844},{"NoteNumber":63,"Velocity":36,"Duration":140186,"SoundDuration":140186,"Delta":201137844},{"NoteNumber":58,"Velocity":31,"Duration":140186,"SoundDuration":140186,"Delta":201278031},{"NoteNumber":75,"Velocity":52,"Duration":295566,"SoundDuration":295566,"Delta":201418218},{"NoteNumber":55,"Velocity":31,"Duration":147783,"SoundDuration":147783,"Delta":201418218},{"NoteNumber":58,"Velocity":31,"Duration":147783,"SoundDuration":147783,"Delta":201566002},{"NoteNumber":76,"Velocity":57,"Duration":306122,"SoundDuration":306122,"Delta":201713785},{"NoteNumber":46,"Velocity":40,"Duration":153061,"SoundDuration":153061,"Delta":201713785},{"NoteNumber":58,"Velocity":33,"Duration":153061,"SoundDuration":153061,"Delta":201866846},{"NoteNumber":79,"Velocity":55,"Duration":284359,"SoundDuration":284359,"Delta":202019907},{"NoteNumber":56,"Velocity":34,"Duration":142179,"SoundDuration":142179,"Delta":202019907},{"NoteNumber":58,"Velocity":34,"Duration":142179,"SoundDuration":142179,"Delta":202162087},{"NoteNumber":77,"Velocity":58,"Duration":853080,"SoundDuration":853080,"Delta":202304267},{"NoteNumber":62,"Velocity":40,"Duration":142179,"SoundDuration":142179,"Delta":202304267},{"NoteNumber":58,"Velocity":34,"Duration":142180,"SoundDuration":142180,"Delta":202446447},{"NoteNumber":56,"Velocity":34,"Duration":142179,"SoundDuration":142179,"Delta":202588627},{"NoteNumber":58,"Velocity":34,"Duration":142179,"SoundDuration":142179,"Delta":202730807},{"NoteNumber":46,"Velocity":40,"Duration":142179,"SoundDuration":142179,"Delta":202872987},{"NoteNumber":58,"Velocity":34,"Duration":142179,"SoundDuration":142179,"Delta":203015167},{"NoteNumber":74,"Velocity":55,"Duration":280373,"SoundDuration":280373,"Delta":203157347},{"NoteNumber":56,"Velocity":34,"Duration":140186,"SoundDuration":140186,"Delta":203157347},{"NoteNumber":58,"Velocity":35,"Duration":140186,"SoundDuration":140186,"Delta":203297534},{"NoteNumber":72,"Velocity":53,"Duration":280373,"SoundDuration":280373,"Delta":203437721},{"NoteNumber":62,"Velocity":40,"Duration":140186,"SoundDuration":140186,"Delta":203437721},{"NoteNumber":58,"Velocity":34,"Duration":140186,"SoundDuration":140186,"Delta":203577908},{"NoteNumber":70,"Velocity":53,"Duration":295566,"SoundDuration":295566,"Delta":203718095},{"NoteNumber":56,"Velocity":34,"Duration":147783,"SoundDuration":147783,"Delta":203718095},{"NoteNumber":58,"Velocity":34,"Duration":147783,"SoundDuration":147783,"Delta":203865879},{"NoteNumber":76,"Velocity":57,"Duration":294117,"SoundDuration":294117,"Delta":204013662},{"NoteNumber":46,"Velocity":40,"Duration":147058,"SoundDuration":147058,"Delta":204013662},{"NoteNumber":58,"Velocity":33,"Duration":147058,"SoundDuration":147058,"Delta":204160721},{"NoteNumber":79,"Velocity":53,"Duration":284359,"SoundDuration":284359,"Delta":204307779},{"NoteNumber":56,"Velocity":34,"Duration":142179,"SoundDuration":142179,"Delta":204307779},{"NoteNumber":58,"Velocity":34,"Duration":142179,"SoundDuration":142179,"Delta":204449959},{"NoteNumber":77,"Velocity":58,"Duration":853080,"SoundDuration":853080,"Delta":204592139},{"NoteNumber":62,"Velocity":40,"Duration":142179,"SoundDuration":142179,"Delta":204592139},{"NoteNumber":58,"Velocity":34,"Duration":142180,"SoundDuration":142180,"Delta":204734319},{"NoteNumber":56,"Velocity":34,"Duration":142179,"SoundDuration":142179,"Delta":204876499},{"NoteNumber":58,"Velocity":34,"Duration":142179,"SoundDuration":142179,"Delta":205018679},{"NoteNumber":46,"Velocity":40,"Duration":142179,"SoundDuration":142179,"Delta":205160859},{"NoteNumber":58,"Velocity":34,"Duration":142179,"SoundDuration":142179,"Delta":205303039},{"NoteNumber":74,"Velocity":55,"Duration":280373,"SoundDuration":280373,"Delta":205445219},{"NoteNumber":56,"Velocity":34,"Duration":140186,"SoundDuration":140186,"Delta":205445219},{"NoteNumber":58,"Velocity":35,"Duration":140186,"SoundDuration":140186,"Delta":205585406},{"NoteNumber":72,"Velocity":53,"Duration":276497,"SoundDuration":276497,"Delta":205725593},{"NoteNumber":62,"Velocity":40,"Duration":138248,"SoundDuration":138248,"Delta":205725593},{"NoteNumber":58,"Velocity":34,"Duration":138248,"SoundDuration":138248,"Delta":205863842},{"NoteNumber":70,"Velocity":53,"Duration":295566,"SoundDuration":295566,"Delta":206002091},{"NoteNumber":56,"Velocity":34,"Duration":147783,"SoundDuration":147783,"Delta":206002091},{"NoteNumber":58,"Velocity":34,"Duration":147783,"SoundDuration":147783,"Delta":206149874},{"NoteNumber":81,"Velocity":55,"Duration":306122,"SoundDuration":306122,"Delta":206297657},{"NoteNumber":69,"Velocity":46,"Duration":306122,"SoundDuration":306122,"Delta":206297657},{"NoteNumber":51,"Velocity":40,"Duration":153061,"SoundDuration":153061,"Delta":206297657},{"NoteNumber":58,"Velocity":33,"Duration":153061,"SoundDuration":153061,"Delta":206450719},{"NoteNumber":84,"Velocity":51,"Duration":284359,"SoundDuration":284359,"Delta":206603780},{"NoteNumber":72,"Velocity":42,"Duration":284359,"SoundDuration":284359,"Delta":206603780},{"NoteNumber":55,"Velocity":34,"Duration":142179,"SoundDuration":142179,"Delta":206603780},{"NoteNumber":58,"Velocity":34,"Duration":142179,"SoundDuration":142179,"Delta":206745960},{"NoteNumber":82,"Velocity":58,"Duration":853080,"SoundDuration":853080,"Delta":206888140},{"NoteNumber":70,"Velocity":49,"Duration":853080,"SoundDuration":853080,"Delta":206888140},{"NoteNumber":63,"Velocity":40,"Duration":142179,"SoundDuration":142179,"Delta":206888140},{"NoteNumber":58,"Velocity":34,"Duration":142180,"SoundDuration":142180,"Delta":207030320},{"NoteNumber":55,"Velocity":34,"Duration":142179,"SoundDuration":142179,"Delta":207172500},{"NoteNumber":58,"Velocity":34,"Duration":142179,"SoundDuration":142179,"Delta":207314680},{"NoteNumber":51,"Velocity":40,"Duration":142179,"SoundDuration":142179,"Delta":207456860},{"NoteNumber":58,"Velocity":34,"Duration":142179,"SoundDuration":142179,"Delta":207599040},{"NoteNumber":84,"Velocity":50,"Duration":280373,"SoundDuration":280373,"Delta":207741220},{"NoteNumber":72,"Velocity":42,"Duration":280373,"SoundDuration":280373,"Delta":207741220},{"NoteNumber":55,"Velocity":34,"Duration":140186,"SoundDuration":140186,"Delta":207741220},{"NoteNumber":58,"Velocity":35,"Duration":140186,"SoundDuration":140186,"Delta":207881407},{"NoteNumber":86,"Velocity":52,"Duration":280373,"SoundDuration":280373,"Delta":208021594},{"NoteNumber":74,"Velocity":44,"Duration":280373,"SoundDuration":280373,"Delta":208021594},{"NoteNumber":63,"Velocity":40,"Duration":140186,"SoundDuration":140186,"Delta":208021594},{"NoteNumber":58,"Velocity":34,"Duration":140186,"SoundDuration":140186,"Delta":208161781},{"NoteNumber":87,"Velocity":55,"Duration":295566,"SoundDuration":295566,"Delta":208301968},{"NoteNumber":75,"Velocity":46,"Duration":295566,"SoundDuration":295566,"Delta":208301968},{"NoteNumber":55,"Velocity":34,"Duration":147783,"SoundDuration":147783,"Delta":208301968},{"NoteNumber":58,"Velocity":34,"Duration":147783,"SoundDuration":147783,"Delta":208449751},{"NoteNumber":81,"Velocity":57,"Duration":294117,"SoundDuration":294117,"Delta":208597534},{"NoteNumber":69,"Velocity":48,"Duration":294117,"SoundDuration":294117,"Delta":208597534},{"NoteNumber":51,"Velocity":40,"Duration":147058,"SoundDuration":147058,"Delta":208597534},{"NoteNumber":58,"Velocity":33,"Duration":147058,"SoundDuration":147058,"Delta":208744593},{"NoteNumber":84,"Velocity":53,"Duration":284359,"SoundDuration":284359,"Delta":208891652},{"NoteNumber":72,"Velocity":45,"Duration":284359,"SoundDuration":284359,"Delta":208891652},{"NoteNumber":55,"Velocity":34,"Duration":142179,"SoundDuration":142179,"Delta":208891652},{"NoteNumber":58,"Velocity":34,"Duration":142179,"SoundDuration":142179,"Delta":209033832},{"NoteNumber":82,"Velocity":58,"Duration":861403,"SoundDuration":861403,"Delta":209176012},{"NoteNumber":70,"Velocity":49,"Duration":861403,"SoundDuration":861403,"Delta":209176012},{"NoteNumber":63,"Velocity":40,"Duration":142179,"SoundDuration":142179,"Delta":209176012},{"NoteNumber":58,"Velocity":34,"Duration":142180,"SoundDuration":142180,"Delta":209318192},{"NoteNumber":55,"Velocity":34,"Duration":142179,"SoundDuration":142179,"Delta":209460372},{"NoteNumber":58,"Velocity":34,"Duration":142179,"SoundDuration":142179,"Delta":209602552},{"NoteNumber":51,"Velocity":40,"Duration":146341,"SoundDuration":146341,"Delta":209744732},{"NoteNumber":58,"Velocity":34,"Duration":146341,"SoundDuration":146341,"Delta":209891073},{"NoteNumber":84,"Velocity":51,"Duration":280373,"SoundDuration":280373,"Delta":210037415},{"NoteNumber":72,"Velocity":42,"Duration":280373,"SoundDuration":280373,"Delta":210037415},{"NoteNumber":55,"Velocity":34,"Duration":140186,"SoundDuration":140186,"Delta":210037415},{"NoteNumber":58,"Velocity":35,"Duration":140186,"SoundDuration":140186,"Delta":210177602},{"NoteNumber":86,"Velocity":53,"Duration":276497,"SoundDuration":276497,"Delta":210317789},{"NoteNumber":74,"Velocity":45,"Duration":276497,"SoundDuration":276497,"Delta":210317789},{"NoteNumber":63,"Velocity":40,"Duration":138248,"SoundDuration":138248,"Delta":210317789},{"NoteNumber":58,"Velocity":34,"Duration":138248,"SoundDuration":138248,"Delta":210456038},{"NoteNumber":87,"Velocity":57,"Duration":295566,"SoundDuration":295566,"Delta":210594286},{"NoteNumber":75,"Velocity":48,"Duration":295566,"SoundDuration":295566,"Delta":210594286},{"NoteNumber":55,"Velocity":34,"Duration":147783,"SoundDuration":147783,"Delta":210594286},{"NoteNumber":58,"Velocity":34,"Duration":147783,"SoundDuration":147783,"Delta":210742070},{"NoteNumber":88,"Velocity":62,"Duration":294117,"SoundDuration":294117,"Delta":210889853},{"NoteNumber":76,"Velocity":52,"Duration":294117,"SoundDuration":294117,"Delta":210889853},{"NoteNumber":46,"Velocity":44,"Duration":147058,"SoundDuration":147058,"Delta":210889853},{"NoteNumber":58,"Velocity":36,"Duration":147058,"SoundDuration":147058,"Delta":211036912},{"NoteNumber":91,"Velocity":56,"Duration":284359,"SoundDuration":284359,"Delta":211183970},{"NoteNumber":79,"Velocity":47,"Duration":284359,"SoundDuration":284359,"Delta":211183970},{"NoteNumber":56,"Velocity":36,"Duration":142179,"SoundDuration":142179,"Delta":211183970},{"NoteNumber":58,"Velocity":36,"Duration":142179,"SoundDuration":142179,"Delta":211326150},{"NoteNumber":89,"Velocity":61,"Duration":853080,"SoundDuration":853080,"Delta":211468330},{"NoteNumber":77,"Velocity":51,"Duration":853080,"SoundDuration":853080,"Delta":211468330},{"NoteNumber":62,"Velocity":44,"Duration":142179,"SoundDuration":142179,"Delta":211468330},{"NoteNumber":58,"Velocity":36,"Duration":142180,"SoundDuration":142180,"Delta":211610510},{"NoteNumber":56,"Velocity":36,"Duration":142179,"SoundDuration":142179,"Delta":211752690},{"NoteNumber":58,"Velocity":36,"Duration":142179,"SoundDuration":142179,"Delta":211894870},{"NoteNumber":46,"Velocity":44,"Duration":142179,"SoundDuration":142179,"Delta":212037050},{"NoteNumber":58,"Velocity":36,"Duration":142179,"SoundDuration":142179,"Delta":212179230},{"NoteNumber":86,"Velocity":60,"Duration":280373,"SoundDuration":280373,"Delta":212321410},{"NoteNumber":74,"Velocity":50,"Duration":280373,"SoundDuration":280373,"Delta":212321410},{"NoteNumber":56,"Velocity":36,"Duration":140186,"SoundDuration":140186,"Delta":212321410},{"NoteNumber":58,"Velocity":37,"Duration":140186,"SoundDuration":140186,"Delta":212461597},{"NoteNumber":84,"Velocity":58,"Duration":280373,"SoundDuration":280373,"Delta":212601784},{"NoteNumber":72,"Velocity":49,"Duration":280373,"SoundDuration":280373,"Delta":212601784},{"NoteNumber":62,"Velocity":44,"Duration":140186,"SoundDuration":140186,"Delta":212601784},{"NoteNumber":58,"Velocity":36,"Duration":140186,"SoundDuration":140186,"Delta":212741971},{"NoteNumber":82,"Velocity":58,"Duration":309278,"SoundDuration":309278,"Delta":212882158},{"NoteNumber":70,"Velocity":49,"Duration":309278,"SoundDuration":309278,"Delta":212882158},{"NoteNumber":56,"Velocity":36,"Duration":154639,"SoundDuration":154639,"Delta":212882158},{"NoteNumber":58,"Velocity":36,"Duration":154639,"SoundDuration":154639,"Delta":213036798},{"NoteNumber":88,"Velocity":62,"Duration":294117,"SoundDuration":294117,"Delta":213191437},{"NoteNumber":76,"Velocity":52,"Duration":294117,"SoundDuration":294117,"Delta":213191437},{"NoteNumber":46,"Velocity":44,"Duration":147058,"SoundDuration":147058,"Delta":213191437},{"NoteNumber":58,"Velocity":36,"Duration":147058,"SoundDuration":147058,"Delta":213338496},{"NoteNumber":91,"Velocity":57,"Duration":284359,"SoundDuration":284359,"Delta":213485554},{"NoteNumber":79,"Velocity":48,"Duration":284359,"SoundDuration":284359,"Delta":213485554},{"NoteNumber":56,"Velocity":36,"Duration":142179,"SoundDuration":142179,"Delta":213485554},{"NoteNumber":58,"Velocity":36,"Duration":142179,"SoundDuration":142179,"Delta":213627734},{"NoteNumber":89,"Velocity":62,"Duration":853080,"SoundDuration":853080,"Delta":213769914},{"NoteNumber":77,"Velocity":52,"Duration":853080,"SoundDuration":853080,"Delta":213769914},{"NoteNumber":62,"Velocity":44,"Duration":142179,"SoundDuration":142179,"Delta":213769914},{"NoteNumber":58,"Velocity":36,"Duration":142180,"SoundDuration":142180,"Delta":213912094},{"NoteNumber":56,"Velocity":36,"Duration":142179,"SoundDuration":142179,"Delta":214054274},{"NoteNumber":58,"Velocity":36,"Duration":142179,"SoundDuration":142179,"Delta":214196454},{"NoteNumber":46,"Velocity":44,"Duration":142179,"SoundDuration":142179,"Delta":214338634},{"NoteNumber":58,"Velocity":36,"Duration":142179,"SoundDuration":142179,"Delta":214480814},{"NoteNumber":86,"Velocity":60,"Duration":280373,"SoundDuration":280373,"Delta":214622994},{"NoteNumber":74,"Velocity":50,"Duration":280373,"SoundDuration":280373,"Delta":214622994},{"NoteNumber":56,"Velocity":36,"Duration":140186,"SoundDuration":140186,"Delta":214622994},{"NoteNumber":58,"Velocity":37,"Duration":140186,"SoundDuration":140186,"Delta":214763181},{"NoteNumber":84,"Velocity":58,"Duration":280373,"SoundDuration":280373,"Delta":214903368},{"NoteNumber":72,"Velocity":49,"Duration":280373,"SoundDuration":280373,"Delta":214903368},{"NoteNumber":62,"Velocity":44,"Duration":140186,"SoundDuration":140186,"Delta":214903368},{"NoteNumber":58,"Velocity":36,"Duration":140186,"SoundDuration":140186,"Delta":215043555},{"NoteNumber":82,"Velocity":58,"Duration":295566,"SoundDuration":295566,"Delta":215183742},{"NoteNumber":70,"Velocity":49,"Duration":295566,"SoundDuration":295566,"Delta":215183742},{"NoteNumber":56,"Velocity":36,"Duration":147783,"SoundDuration":147783,"Delta":215183742},{"NoteNumber":58,"Velocity":36,"Duration":147783,"SoundDuration":147783,"Delta":215331526},{"NoteNumber":82,"Velocity":62,"Duration":315789,"SoundDuration":315789,"Delta":215479309},{"NoteNumber":70,"Velocity":52,"Duration":315789,"SoundDuration":315789,"Delta":215479309},{"NoteNumber":51,"Velocity":44,"Duration":157894,"SoundDuration":157894,"Delta":215479309},{"NoteNumber":58,"Velocity":36,"Duration":157894,"SoundDuration":157894,"Delta":215637204},{"NoteNumber":92,"Velocity":57,"Duration":284359,"SoundDuration":284359,"Delta":215795098},{"NoteNumber":80,"Velocity":48,"Duration":284359,"SoundDuration":284359,"Delta":215795098},{"NoteNumber":55,"Velocity":36,"Duration":142179,"SoundDuration":142179,"Delta":215795098},{"NoteNumber":58,"Velocity":36,"Duration":142179,"SoundDuration":142179,"Delta":215937278},{"NoteNumber":91,"Velocity":62,"Duration":861403,"SoundDuration":861403,"Delta":216079458},{"NoteNumber":79,"Velocity":52,"Duration":861403,"SoundDuration":861403,"Delta":216079458},{"NoteNumber":63,"Velocity":44,"Duration":142179,"SoundDuration":142179,"Delta":216079458},{"NoteNumber":58,"Velocity":36,"Duration":142180,"SoundDuration":142180,"Delta":216221638},{"NoteNumber":55,"Velocity":36,"Duration":142179,"SoundDuration":142179,"Delta":216363818},{"NoteNumber":58,"Velocity":36,"Duration":142179,"SoundDuration":142179,"Delta":216505998},{"NoteNumber":43,"Velocity":44,"Duration":146341,"SoundDuration":146341,"Delta":216648178},{"NoteNumber":59,"Velocity":36,"Duration":146341,"SoundDuration":146341,"Delta":216794520},{"NoteNumber":89,"Velocity":60,"Duration":280373,"SoundDuration":280373,"Delta":216940861},{"NoteNumber":77,"Velocity":50,"Duration":280373,"SoundDuration":280373,"Delta":216940861},{"NoteNumber":55,"Velocity":36,"Duration":140186,"SoundDuration":140186,"Delta":216940861},{"NoteNumber":59,"Velocity":37,"Duration":140186,"SoundDuration":140186,"Delta":217081048},{"NoteNumber":86,"Velocity":58,"Duration":280373,"SoundDuration":280373,"Delta":217221235},{"NoteNumber":74,"Velocity":49,"Duration":280373,"SoundDuration":280373,"Delta":217221235},{"NoteNumber":65,"Velocity":44,"Duration":140186,"SoundDuration":140186,"Delta":217221235},{"NoteNumber":59,"Velocity":36,"Duration":140186,"SoundDuration":140186,"Delta":217361422},{"NoteNumber":83,"Velocity":58,"Duration":295566,"SoundDuration":295566,"Delta":217501609},{"NoteNumber":71,"Velocity":49,"Duration":295566,"SoundDuration":295566,"Delta":217501609},{"NoteNumber":55,"Velocity":36,"Duration":147783,"SoundDuration":147783,"Delta":217501609},{"NoteNumber":59,"Velocity":36,"Duration":147783,"SoundDuration":147783,"Delta":217649393},{"NoteNumber":79,"Velocity":62,"Duration":300000,"SoundDuration":300000,"Delta":217797176},{"NoteNumber":67,"Velocity":52,"Duration":300000,"SoundDuration":300000,"Delta":217797176},{"NoteNumber":48,"Velocity":44,"Duration":150000,"SoundDuration":150000,"Delta":217797176},{"NoteNumber":55,"Velocity":36,"Duration":150000,"SoundDuration":150000,"Delta":217947176},{"NoteNumber":89,"Velocity":57,"Duration":284359,"SoundDuration":284359,"Delta":218097176},{"NoteNumber":77,"Velocity":48,"Duration":284359,"SoundDuration":284359,"Delta":218097176},{"NoteNumber":51,"Velocity":36,"Duration":142179,"SoundDuration":142179,"Delta":218097176},{"NoteNumber":55,"Velocity":36,"Duration":142179,"SoundDuration":142179,"Delta":218239356},{"NoteNumber":87,"Velocity":62,"Duration":861403,"SoundDuration":861403,"Delta":218381536},{"NoteNumber":75,"Velocity":52,"Duration":861403,"SoundDuration":861403,"Delta":218381536},{"NoteNumber":60,"Velocity":44,"Duration":142179,"SoundDuration":142179,"Delta":218381536},{"NoteNumber":55,"Velocity":36,"Duration":142180,"SoundDuration":142180,"Delta":218523716},{"NoteNumber":51,"Velocity":36,"Duration":142179,"SoundDuration":142179,"Delta":218665896},{"NoteNumber":55,"Velocity":36,"Duration":142179,"SoundDuration":142179,"Delta":218808076},{"NoteNumber":39,"Velocity":44,"Duration":146341,"SoundDuration":146341,"Delta":218950256},{"NoteNumber":55,"Velocity":36,"Duration":146341,"SoundDuration":146341,"Delta":219096597},{"NoteNumber":85,"Velocity":60,"Duration":280373,"SoundDuration":280373,"Delta":219242939},{"NoteNumber":73,"Velocity":50,"Duration":280373,"SoundDuration":280373,"Delta":219242939},{"NoteNumber":51,"Velocity":36,"Duration":140186,"SoundDuration":140186,"Delta":219242939},{"NoteNumber":55,"Velocity":37,"Duration":140186,"SoundDuration":140186,"Delta":219383126},{"NoteNumber":82,"Velocity":58,"Duration":280373,"SoundDuration":280373,"Delta":219523313},{"NoteNumber":70,"Velocity":49,"Duration":280373,"SoundDuration":280373,"Delta":219523313},{"NoteNumber":61,"Velocity":44,"Duration":140186,"SoundDuration":140186,"Delta":219523313},{"NoteNumber":55,"Velocity":36,"Duration":140186,"SoundDuration":140186,"Delta":219663500},{"NoteNumber":79,"Velocity":58,"Duration":295566,"SoundDuration":295566,"Delta":219803687},{"NoteNumber":67,"Velocity":49,"Duration":295566,"SoundDuration":295566,"Delta":219803687},{"NoteNumber":51,"Velocity":36,"Duration":147783,"SoundDuration":147783,"Delta":219803687},{"NoteNumber":55,"Velocity":36,"Duration":147783,"SoundDuration":147783,"Delta":219951470},{"NoteNumber":75,"Velocity":62,"Duration":300000,"SoundDuration":300000,"Delta":220099253},{"NoteNumber":63,"Velocity":52,"Duration":300000,"SoundDuration":300000,"Delta":220099253},{"NoteNumber":44,"Velocity":44,"Duration":150000,"SoundDuration":150000,"Delta":220099253},{"NoteNumber":51,"Velocity":36,"Duration":150000,"SoundDuration":150000,"Delta":220249253},{"NoteNumber":85,"Velocity":56,"Duration":284359,"SoundDuration":284359,"Delta":220399253},{"NoteNumber":73,"Velocity":47,"Duration":284359,"SoundDuration":284359,"Delta":220399253},{"NoteNumber":48,"Velocity":36,"Duration":142179,"SoundDuration":142179,"Delta":220399253},{"NoteNumber":51,"Velocity":36,"Duration":142179,"SoundDuration":142179,"Delta":220541433},{"NoteNumber":84,"Velocity":60,"Duration":874842,"SoundDuration":874842,"Delta":220683613},{"NoteNumber":72,"Velocity":50,"Duration":874842,"SoundDuration":874842,"Delta":220683613},{"NoteNumber":56,"Velocity":42,"Duration":142179,"SoundDuration":142179,"Delta":220683613},{"NoteNumber":51,"Velocity":35,"Duration":142180,"SoundDuration":142180,"Delta":220825793},{"NoteNumber":48,"Velocity":34,"Duration":142179,"SoundDuration":142179,"Delta":220967973},{"NoteNumber":51,"Velocity":34,"Duration":142179,"SoundDuration":142179,"Delta":221110153},{"NoteNumber":37,"Velocity":40,"Duration":153061,"SoundDuration":153061,"Delta":221252333},{"NoteNumber":53,"Velocity":33,"Duration":153061,"SoundDuration":153061,"Delta":221405395},{"NoteNumber":82,"Velocity":54,"Duration":280373,"SoundDuration":280373,"Delta":221558456},{"NoteNumber":70,"Velocity":45,"Duration":280373,"SoundDuration":280373,"Delta":221558456},{"NoteNumber":49,"Velocity":33,"Duration":140186,"SoundDuration":140186,"Delta":221558456},{"NoteNumber":53,"Velocity":33,"Duration":140186,"SoundDuration":140186,"Delta":221698643},{"NoteNumber":84,"Velocity":51,"Duration":280373,"SoundDuration":280373,"Delta":221838830},{"NoteNumber":72,"Velocity":43,"Duration":280373,"SoundDuration":280373,"Delta":221838830},{"NoteNumber":58,"Velocity":38,"Duration":140186,"SoundDuration":140186,"Delta":221838830},{"NoteNumber":53,"Velocity":32,"Duration":140186,"SoundDuration":140186,"Delta":221979017},{"NoteNumber":85,"Velocity":50,"Duration":295566,"SoundDuration":295566,"Delta":222119204},{"NoteNumber":73,"Velocity":42,"Duration":295566,"SoundDuration":295566,"Delta":222119204},{"NoteNumber":49,"Velocity":31,"Duration":147783,"SoundDuration":147783,"Delta":222119204},{"NoteNumber":53,"Velocity":31,"Duration":147783,"SoundDuration":147783,"Delta":222266987},{"NoteNumber":75,"Velocity":52,"Duration":300000,"SoundDuration":300000,"Delta":222414770},{"NoteNumber":63,"Velocity":44,"Duration":300000,"SoundDuration":300000,"Delta":222414770},{"NoteNumber":39,"Velocity":36,"Duration":150000,"SoundDuration":150000,"Delta":222414770},{"NoteNumber":51,"Velocity":30,"Duration":150000,"SoundDuration":150000,"Delta":222564770},{"NoteNumber":82,"Velocity":47,"Duration":284359,"SoundDuration":284359,"Delta":222714770},{"NoteNumber":70,"Velocity":40,"Duration":284359,"SoundDuration":284359,"Delta":222714770},{"NoteNumber":48,"Velocity":30,"Duration":142179,"SoundDuration":142179,"Delta":222714770},{"NoteNumber":51,"Velocity":30,"Duration":142179,"SoundDuration":142179,"Delta":222856950},{"NoteNumber":80,"Velocity":50,"Duration":861403,"SoundDuration":861403,"Delta":222999130},{"NoteNumber":68,"Velocity":42,"Duration":861403,"SoundDuration":861403,"Delta":222999130},{"NoteNumber":56,"Velocity":36,"Duration":142179,"SoundDuration":142179,"Delta":222999130},{"NoteNumber":51,"Velocity":29,"Duration":142180,"SoundDuration":142180,"Delta":223141310},{"NoteNumber":48,"Velocity":28,"Duration":142179,"SoundDuration":142179,"Delta":223283490},{"NoteNumber":51,"Velocity":28,"Duration":142179,"SoundDuration":142179,"Delta":223425670},{"NoteNumber":39,"Velocity":34,"Duration":146341,"SoundDuration":146341,"Delta":223567850},{"NoteNumber":51,"Velocity":27,"Duration":146341,"SoundDuration":146341,"Delta":223714192},{"NoteNumber":79,"Velocity":45,"Duration":285714,"SoundDuration":285714,"Delta":223860533},{"NoteNumber":67,"Velocity":38,"Duration":285714,"SoundDuration":285714,"Delta":223860533},{"NoteNumber":49,"Velocity":27,"Duration":142857,"SoundDuration":142857,"Delta":223860533},{"NoteNumber":51,"Velocity":27,"Duration":142857,"SoundDuration":142857,"Delta":224003391},{"NoteNumber":80,"Velocity":42,"Duration":289854,"SoundDuration":289854,"Delta":224146248},{"NoteNumber":68,"Velocity":36,"Duration":289854,"SoundDuration":289854,"Delta":224146248},{"NoteNumber":58,"Velocity":32,"Duration":144927,"SoundDuration":144927,"Delta":224146248},{"NoteNumber":51,"Velocity":26,"Duration":144927,"SoundDuration":144927,"Delta":224291175},{"NoteNumber":82,"Velocity":41,"Duration":314135,"SoundDuration":314135,"Delta":224436103},{"NoteNumber":70,"Velocity":35,"Duration":314135,"SoundDuration":314135,"Delta":224436103},{"NoteNumber":49,"Velocity":26,"Duration":157068,"SoundDuration":157068,"Delta":224436103},{"NoteNumber":51,"Velocity":26,"Duration":157067,"SoundDuration":157067,"Delta":224593171},{"NoteNumber":74,"Velocity":44,"Duration":294117,"SoundDuration":294117,"Delta":224750239},{"NoteNumber":56,"Velocity":26,"Duration":147058,"SoundDuration":147058,"Delta":224750239},{"NoteNumber":63,"Velocity":25,"Duration":147058,"SoundDuration":147058,"Delta":224897298},{"NoteNumber":77,"Velocity":40,"Duration":284359,"SoundDuration":284359,"Delta":225044356},{"NoteNumber":60,"Velocity":26,"Duration":142179,"SoundDuration":142179,"Delta":225044356},{"NoteNumber":63,"Velocity":26,"Duration":142179,"SoundDuration":142179,"Delta":225186536},{"NoteNumber":75,"Velocity":46,"Duration":790121,"SoundDuration":790121,"Delta":225328716},{"NoteNumber":68,"Velocity":29,"Duration":142179,"SoundDuration":142179,"Delta":225328716},{"NoteNumber":63,"Velocity":26,"Duration":142180,"SoundDuration":142180,"Delta":225470896},{"NoteNumber":60,"Velocity":26,"Duration":142179,"SoundDuration":142179,"Delta":225613076},{"NoteNumber":63,"Velocity":26,"Duration":142993,"SoundDuration":142993,"Delta":225755256},{"NoteNumber":56,"Velocity":29,"Duration":147058,"SoundDuration":147058,"Delta":225898250},{"NoteNumber":63,"Velocity":26,"Duration":147058,"SoundDuration":147058,"Delta":226045308},{"NoteNumber":72,"Velocity":41,"Duration":73529,"SoundDuration":73529,"Delta":226118838},{"NoteNumber":87,"Velocity":55,"Duration":214285,"SoundDuration":214285,"Delta":226192367},{"NoteNumber":60,"Velocity":26,"Duration":142857,"SoundDuration":142857,"Delta":226192367},{"NoteNumber":63,"Velocity":26,"Duration":142857,"SoundDuration":142857,"Delta":226335224},{"NoteNumber":70,"Velocity":38,"Duration":71428,"SoundDuration":71428,"Delta":226406653},{"NoteNumber":85,"Velocity":52,"Duration":214285,"SoundDuration":214285,"Delta":226478082},{"NoteNumber":67,"Velocity":29,"Duration":142857,"SoundDuration":142857,"Delta":226478082},{"NoteNumber":63,"Velocity":26,"Duration":142857,"SoundDuration":142857,"Delta":226620939},{"NoteNumber":68,"Velocity":38,"Duration":71428,"SoundDuration":71428,"Delta":226692367},{"NoteNumber":84,"Velocity":52,"Duration":295566,"SoundDuration":295566,"Delta":226763796},{"NoteNumber":68,"Velocity":26,"Duration":147783,"SoundDuration":147783,"Delta":226763796},{"NoteNumber":63,"Velocity":26,"Duration":147783,"SoundDuration":147783,"Delta":226911579},{"NoteNumber":74,"Velocity":44,"Duration":294117,"SoundDuration":294117,"Delta":227059363},{"NoteNumber":56,"Velocity":29,"Duration":147058,"SoundDuration":147058,"Delta":227059363},{"NoteNumber":63,"Velocity":25,"Duration":147058,"SoundDuration":147058,"Delta":227206421},{"NoteNumber":77,"Velocity":40,"Duration":284359,"SoundDuration":284359,"Delta":227353480},{"NoteNumber":60,"Velocity":26,"Duration":142179,"SoundDuration":142179,"Delta":227353480},{"NoteNumber":63,"Velocity":26,"Duration":142179,"SoundDuration":142179,"Delta":227495660},{"NoteNumber":75,"Velocity":46,"Duration":786569,"SoundDuration":786569,"Delta":227637840},{"NoteNumber":68,"Velocity":29,"Duration":142179,"SoundDuration":142179,"Delta":227637840},{"NoteNumber":63,"Velocity":26,"Duration":142180,"SoundDuration":142180,"Delta":227780020},{"NoteNumber":60,"Velocity":26,"Duration":142179,"SoundDuration":142179,"Delta":227922200},{"NoteNumber":63,"Velocity":26,"Duration":142637,"SoundDuration":142637,"Delta":228064380},{"NoteNumber":56,"Velocity":29,"Duration":144927,"SoundDuration":144927,"Delta":228207018},{"NoteNumber":63,"Velocity":26,"Duration":144927,"SoundDuration":144927,"Delta":228351945},{"NoteNumber":72,"Velocity":41,"Duration":72463,"SoundDuration":72463,"Delta":228424409},{"NoteNumber":87,"Velocity":55,"Duration":210280,"SoundDuration":210280,"Delta":228496873},{"NoteNumber":60,"Velocity":26,"Duration":140186,"SoundDuration":140186,"Delta":228496873},{"NoteNumber":63,"Velocity":26,"Duration":140186,"SoundDuration":140186,"Delta":228637060},{"NoteNumber":70,"Velocity":38,"Duration":70093,"SoundDuration":70093,"Delta":228707153},{"NoteNumber":85,"Velocity":52,"Duration":210280,"SoundDuration":210280,"Delta":228777247},{"NoteNumber":67,"Velocity":29,"Duration":140186,"SoundDuration":140186,"Delta":228777247},{"NoteNumber":63,"Velocity":26,"Duration":140186,"SoundDuration":140186,"Delta":228917434},{"NoteNumber":68,"Velocity":38,"Duration":70093,"SoundDuration":70093,"Delta":228987527},{"NoteNumber":84,"Velocity":52,"Duration":295566,"SoundDuration":295566,"Delta":229057621},{"NoteNumber":68,"Velocity":26,"Duration":147783,"SoundDuration":147783,"Delta":229057621},{"NoteNumber":63,"Velocity":26,"Duration":147783,"SoundDuration":147783,"Delta":229205404},{"NoteNumber":69,"Velocity":44,"Duration":294117,"SoundDuration":294117,"Delta":229353187},{"NoteNumber":51,"Velocity":31,"Duration":147058,"SoundDuration":147058,"Delta":229353187},{"NoteNumber":63,"Velocity":26,"Duration":147058,"SoundDuration":147058,"Delta":229500246},{"NoteNumber":72,"Velocity":40,"Duration":284359,"SoundDuration":284359,"Delta":229647305},{"NoteNumber":61,"Velocity":27,"Duration":142179,"SoundDuration":142179,"Delta":229647305},{"NoteNumber":63,"Velocity":27,"Duration":142179,"SoundDuration":142179,"Delta":229789485},{"NoteNumber":70,"Velocity":46,"Duration":804028,"SoundDuration":804028,"Delta":229931665},{"NoteNumber":67,"Velocity":31,"Duration":142179,"SoundDuration":142179,"Delta":229931665},{"NoteNumber":63,"Velocity":27,"Duration":142180,"SoundDuration":142180,"Delta":230073845},{"NoteNumber":61,"Velocity":27,"Duration":142179,"SoundDuration":142179,"Delta":230216025},{"NoteNumber":63,"Velocity":27,"Duration":143113,"SoundDuration":143113,"Delta":230358205},{"NoteNumber":51,"Velocity":31,"Duration":156250,"SoundDuration":156250,"Delta":230501319},{"NoteNumber":63,"Velocity":27,"Duration":156250,"SoundDuration":156250,"Delta":230657569},{"NoteNumber":63,"Velocity":41,"Duration":78125,"SoundDuration":78125,"Delta":230735694},{"NoteNumber":79,"Velocity":55,"Duration":214285,"SoundDuration":214285,"Delta":230813819},{"NoteNumber":65,"Velocity":27,"Duration":142857,"SoundDuration":142857,"Delta":230813819},{"NoteNumber":63,"Velocity":27,"Duration":142857,"SoundDuration":142857,"Delta":230956676},{"NoteNumber":65,"Velocity":38,"Duration":71428,"SoundDuration":71428,"Delta":231028105},{"NoteNumber":80,"Velocity":52,"Duration":214285,"SoundDuration":214285,"Delta":231099533},{"NoteNumber":62,"Velocity":31,"Duration":142857,"SoundDuration":142857,"Delta":231099533},{"NoteNumber":63,"Velocity":27,"Duration":142857,"SoundDuration":142857,"Delta":231242391},{"NoteNumber":67,"Velocity":38,"Duration":71428,"SoundDuration":71428,"Delta":231313819},{"NoteNumber":82,"Velocity":52,"Duration":295566,"SoundDuration":295566,"Delta":231385248},{"NoteNumber":61,"Velocity":27,"Duration":147783,"SoundDuration":147783,"Delta":231385248},{"NoteNumber":63,"Velocity":27,"Duration":147783,"SoundDuration":147783,"Delta":231533031},{"NoteNumber":69,"Velocity":44,"Duration":294117,"SoundDuration":294117,"Delta":231680814},{"NoteNumber":51,"Velocity":31,"Duration":147058,"SoundDuration":147058,"Delta":231680814},{"NoteNumber":63,"Velocity":26,"Duration":147058,"SoundDuration":147058,"Delta":231827873},{"NoteNumber":72,"Velocity":40,"Duration":284359,"SoundDuration":284359,"Delta":231974932},{"NoteNumber":61,"Velocity":27,"Duration":142179,"SoundDuration":142179,"Delta":231974932},{"NoteNumber":63,"Velocity":27,"Duration":142179,"SoundDuration":142179,"Delta":232117112},{"NoteNumber":70,"Velocity":46,"Duration":793720,"SoundDuration":793720,"Delta":232259292},{"NoteNumber":67,"Velocity":31,"Duration":142179,"SoundDuration":142179,"Delta":232259292},{"NoteNumber":63,"Velocity":27,"Duration":142180,"SoundDuration":142180,"Delta":232401472},{"NoteNumber":61,"Velocity":27,"Duration":142179,"SoundDuration":142179,"Delta":232543652},{"NoteNumber":63,"Velocity":27,"Duration":142179,"SoundDuration":142179,"Delta":232685832},{"NoteNumber":51,"Velocity":31,"Duration":150000,"SoundDuration":150000,"Delta":232828012},{"NoteNumber":63,"Velocity":27,"Duration":150000,"SoundDuration":150000,"Delta":232978012},{"NoteNumber":63,"Velocity":41,"Duration":75000,"SoundDuration":75000,"Delta":233053012},{"NoteNumber":79,"Velocity":55,"Duration":221674,"SoundDuration":221674,"Delta":233128012},{"NoteNumber":65,"Velocity":27,"Duration":147783,"SoundDuration":147783,"Delta":233128012},{"NoteNumber":63,"Velocity":27,"Duration":147783,"SoundDuration":147783,"Delta":233275795},{"NoteNumber":65,"Velocity":38,"Duration":73891,"SoundDuration":73891,"Delta":233349687},{"NoteNumber":80,"Velocity":52,"Duration":221674,"SoundDuration":221674,"Delta":233423578},{"NoteNumber":62,"Velocity":31,"Duration":147783,"SoundDuration":147783,"Delta":233423578},{"NoteNumber":63,"Velocity":27,"Duration":147783,"SoundDuration":147783,"Delta":233571362},{"NoteNumber":67,"Velocity":38,"Duration":73891,"SoundDuration":73891,"Delta":233645253},{"NoteNumber":82,"Velocity":52,"Duration":309278,"SoundDuration":309278,"Delta":233719145},{"NoteNumber":61,"Velocity":27,"Duration":154639,"SoundDuration":154639,"Delta":233719145},{"NoteNumber":63,"Velocity":27,"Duration":154639,"SoundDuration":154639,"Delta":233873784},{"NoteNumber":75,"Velocity":58,"Duration":315789,"SoundDuration":315789,"Delta":234028423},{"NoteNumber":63,"Velocity":49,"Duration":315789,"SoundDuration":315789,"Delta":234028423},{"NoteNumber":56,"Velocity":46,"Duration":157894,"SoundDuration":157894,"Delta":234028423},{"NoteNumber":63,"Velocity":38,"Duration":157894,"SoundDuration":157894,"Delta":234186318},{"NoteNumber":85,"Velocity":54,"Duration":284359,"SoundDuration":284359,"Delta":234344213},{"NoteNumber":73,"Velocity":45,"Duration":284359,"SoundDuration":284359,"Delta":234344213},{"NoteNumber":60,"Velocity":38,"Duration":142179,"SoundDuration":142179,"Delta":234344213},{"NoteNumber":63,"Velocity":38,"Duration":142179,"SoundDuration":142179,"Delta":234486393},{"NoteNumber":84,"Velocity":58,"Duration":861403,"SoundDuration":861403,"Delta":234628573},{"NoteNumber":72,"Velocity":49,"Duration":861403,"SoundDuration":861403,"Delta":234628573},{"NoteNumber":68,"Velocity":46,"Duration":142179,"SoundDuration":142179,"Delta":234628573},{"NoteNumber":63,"Velocity":38,"Duration":142180,"SoundDuration":142180,"Delta":234770753},{"NoteNumber":60,"Velocity":38,"Duration":142179,"SoundDuration":142179,"Delta":234912933},{"NoteNumber":63,"Velocity":38,"Duration":142179,"SoundDuration":142179,"Delta":235055113},{"NoteNumber":48,"Velocity":46,"Duration":146341,"SoundDuration":146341,"Delta":235197293},{"NoteNumber":60,"Velocity":38,"Duration":146341,"SoundDuration":146341,"Delta":235343634},{"NoteNumber":82,"Velocity":57,"Duration":280373,"SoundDuration":280373,"Delta":235489976},{"NoteNumber":70,"Velocity":47,"Duration":280373,"SoundDuration":280373,"Delta":235489976},{"NoteNumber":55,"Velocity":38,"Duration":140186,"SoundDuration":140186,"Delta":235489976},{"NoteNumber":60,"Velocity":39,"Duration":140186,"SoundDuration":140186,"Delta":235630163},{"NoteNumber":79,"Velocity":55,"Duration":280373,"SoundDuration":280373,"Delta":235770350},{"NoteNumber":67,"Velocity":46,"Duration":280373,"SoundDuration":280373,"Delta":235770350},{"NoteNumber":64,"Velocity":46,"Duration":140186,"SoundDuration":140186,"Delta":235770350},{"NoteNumber":60,"Velocity":38,"Duration":140186,"SoundDuration":140186,"Delta":235910537},{"NoteNumber":76,"Velocity":55,"Duration":295566,"SoundDuration":295566,"Delta":236050724},{"NoteNumber":64,"Velocity":46,"Duration":295566,"SoundDuration":295566,"Delta":236050724},{"NoteNumber":55,"Velocity":38,"Duration":147783,"SoundDuration":147783,"Delta":236050724},{"NoteNumber":60,"Velocity":38,"Duration":147783,"SoundDuration":147783,"Delta":236198507},{"NoteNumber":84,"Velocity":58,"Duration":300000,"SoundDuration":300000,"Delta":236346290},{"NoteNumber":72,"Velocity":49,"Duration":300000,"SoundDuration":300000,"Delta":236346290},{"NoteNumber":53,"Velocity":46,"Duration":150000,"SoundDuration":150000,"Delta":236346290},{"NoteNumber":60,"Velocity":38,"Duration":150000,"SoundDuration":150000,"Delta":236496290},{"NoteNumber":94,"Velocity":54,"Duration":284359,"SoundDuration":284359,"Delta":236646290},{"NoteNumber":82,"Velocity":45,"Duration":284359,"SoundDuration":284359,"Delta":236646290},{"NoteNumber":56,"Velocity":38,"Duration":142179,"SoundDuration":142179,"Delta":236646290},{"NoteNumber":60,"Velocity":38,"Duration":142179,"SoundDuration":142179,"Delta":236788470},{"NoteNumber":92,"Velocity":58,"Duration":861403,"SoundDuration":861403,"Delta":236930650},{"NoteNumber":80,"Velocity":49,"Duration":861403,"SoundDuration":861403,"Delta":236930650},{"NoteNumber":65,"Velocity":46,"Duration":142179,"SoundDuration":142179,"Delta":236930650},{"NoteNumber":60,"Velocity":38,"Duration":142180,"SoundDuration":142180,"Delta":237072830},{"NoteNumber":56,"Velocity":38,"Duration":142179,"SoundDuration":142179,"Delta":237215010},{"NoteNumber":60,"Velocity":38,"Duration":142179,"SoundDuration":142179,"Delta":237357190},{"NoteNumber":44,"Velocity":46,"Duration":146341,"SoundDuration":146341,"Delta":237499370},{"NoteNumber":56,"Velocity":38,"Duration":146341,"SoundDuration":146341,"Delta":237645712},{"NoteNumber":90,"Velocity":57,"Duration":280373,"SoundDuration":280373,"Delta":237792053},{"NoteNumber":78,"Velocity":47,"Duration":280373,"SoundDuration":280373,"Delta":237792053},{"NoteNumber":51,"Velocity":38,"Duration":140186,"SoundDuration":140186,"Delta":237792053},{"NoteNumber":56,"Velocity":39,"Duration":140186,"SoundDuration":140186,"Delta":237932240},{"NoteNumber":87,"Velocity":55,"Duration":280373,"SoundDuration":280373,"Delta":238072427},{"NoteNumber":75,"Velocity":46,"Duration":280373,"SoundDuration":280373,"Delta":238072427},{"NoteNumber":60,"Velocity":46,"Duration":140186,"SoundDuration":140186,"Delta":238072427},{"NoteNumber":56,"Velocity":38,"Duration":140186,"SoundDuration":140186,"Delta":238212614},{"NoteNumber":84,"Velocity":55,"Duration":309278,"SoundDuration":309278,"Delta":238352801},{"NoteNumber":72,"Velocity":46,"Duration":309278,"SoundDuration":309278,"Delta":238352801},{"NoteNumber":51,"Velocity":38,"Duration":154639,"SoundDuration":154639,"Delta":238352801},{"NoteNumber":56,"Velocity":38,"Duration":154639,"SoundDuration":154639,"Delta":238507441},{"NoteNumber":80,"Velocity":62,"Duration":300000,"SoundDuration":300000,"Delta":238662080},{"NoteNumber":68,"Velocity":52,"Duration":300000,"SoundDuration":300000,"Delta":238662080},{"NoteNumber":49,"Velocity":49,"Duration":150000,"SoundDuration":150000,"Delta":238662080},{"NoteNumber":56,"Velocity":40,"Duration":150000,"SoundDuration":150000,"Delta":238812080},{"NoteNumber":90,"Velocity":56,"Duration":284359,"SoundDuration":284359,"Delta":238962080},{"NoteNumber":78,"Velocity":47,"Duration":284359,"SoundDuration":284359,"Delta":238962080},{"NoteNumber":53,"Velocity":40,"Duration":142179,"SoundDuration":142179,"Delta":238962080},{"NoteNumber":56,"Velocity":40,"Duration":142179,"SoundDuration":142179,"Delta":239104260},{"NoteNumber":89,"Velocity":60,"Duration":861403,"SoundDuration":861403,"Delta":239246440},{"NoteNumber":77,"Velocity":50,"Duration":861403,"SoundDuration":861403,"Delta":239246440},{"NoteNumber":61,"Velocity":47,"Duration":142179,"SoundDuration":142179,"Delta":239246440},{"NoteNumber":56,"Velocity":39,"Duration":142180,"SoundDuration":142180,"Delta":239388620},{"NoteNumber":53,"Velocity":38,"Duration":142179,"SoundDuration":142179,"Delta":239530800},{"NoteNumber":56,"Velocity":38,"Duration":142179,"SoundDuration":142179,"Delta":239672980},{"NoteNumber":42,"Velocity":45,"Duration":146341,"SoundDuration":146341,"Delta":239815160},{"NoteNumber":58,"Velocity":37,"Duration":146341,"SoundDuration":146341,"Delta":239961501},{"NoteNumber":87,"Velocity":54,"Duration":285714,"SoundDuration":285714,"Delta":240107843},{"NoteNumber":75,"Velocity":45,"Duration":285714,"SoundDuration":285714,"Delta":240107843},{"NoteNumber":54,"Velocity":37,"Duration":142857,"SoundDuration":142857,"Delta":240107843},{"NoteNumber":58,"Velocity":37,"Duration":142857,"SoundDuration":142857,"Delta":240250700},{"NoteNumber":89,"Velocity":51,"Duration":285714,"SoundDuration":285714,"Delta":240393557},{"NoteNumber":77,"Velocity":43,"Duration":285714,"SoundDuration":285714,"Delta":240393557},{"NoteNumber":63,"Velocity":43,"Duration":142857,"SoundDuration":142857,"Delta":240393557},{"NoteNumber":58,"Velocity":36,"Duration":142857,"SoundDuration":142857,"Delta":240536415},{"NoteNumber":90,"Velocity":50,"Duration":295566,"SoundDuration":295566,"Delta":240679272},{"NoteNumber":78,"Velocity":42,"Duration":295566,"SoundDuration":295566,"Delta":240679272},{"NoteNumber":54,"Velocity":35,"Duration":147783,"SoundDuration":147783,"Delta":240679272},{"NoteNumber":58,"Velocity":35,"Duration":147783,"SoundDuration":147783,"Delta":240827055},{"NoteNumber":80,"Velocity":52,"Duration":300000,"SoundDuration":300000,"Delta":240974838},{"NoteNumber":68,"Velocity":44,"Duration":300000,"SoundDuration":300000,"Delta":240974838},{"NoteNumber":44,"Velocity":41,"Duration":150000,"SoundDuration":150000,"Delta":240974838},{"NoteNumber":56,"Velocity":34,"Duration":150000,"SoundDuration":150000,"Delta":241124838},{"NoteNumber":87,"Velocity":47,"Duration":284359,"SoundDuration":284359,"Delta":241274838},{"NoteNumber":75,"Velocity":40,"Duration":284359,"SoundDuration":284359,"Delta":241274838},{"NoteNumber":53,"Velocity":34,"Duration":142179,"SoundDuration":142179,"Delta":241274838},{"NoteNumber":56,"Velocity":34,"Duration":142179,"SoundDuration":142179,"Delta":241417018},{"NoteNumber":85,"Velocity":50,"Duration":881220,"SoundDuration":881220,"Delta":241559198},{"NoteNumber":73,"Velocity":42,"Duration":881220,"SoundDuration":881220,"Delta":241559198},{"NoteNumber":61,"Velocity":40,"Duration":142179,"SoundDuration":142179,"Delta":241559198},{"NoteNumber":56,"Velocity":33,"Duration":142180,"SoundDuration":142180,"Delta":241701378},{"NoteNumber":53,"Velocity":32,"Duration":142179,"SoundDuration":142179,"Delta":241843558},{"NoteNumber":56,"Velocity":32,"Duration":142179,"SoundDuration":142179,"Delta":241985738},{"NoteNumber":44,"Velocity":38,"Duration":156250,"SoundDuration":156250,"Delta":242127918},{"NoteNumber":56,"Velocity":31,"Duration":156250,"SoundDuration":156250,"Delta":242284168},{"NoteNumber":84,"Velocity":45,"Duration":294117,"SoundDuration":294117,"Delta":242440418},{"NoteNumber":72,"Velocity":38,"Duration":294117,"SoundDuration":294117,"Delta":242440418},{"NoteNumber":54,"Velocity":31,"Duration":147058,"SoundDuration":147058,"Delta":242440418},{"NoteNumber":56,"Velocity":31,"Duration":147058,"SoundDuration":147058,"Delta":242587477},{"NoteNumber":85,"Velocity":42,"Duration":294117,"SoundDuration":294117,"Delta":242734536},{"NoteNumber":73,"Velocity":36,"Duration":294117,"SoundDuration":294117,"Delta":242734536},{"NoteNumber":63,"Velocity":36,"Duration":147058,"SoundDuration":147058,"Delta":242734536},{"NoteNumber":56,"Velocity":29,"Duration":147058,"SoundDuration":147058,"Delta":242881595},{"NoteNumber":87,"Velocity":41,"Duration":295566,"SoundDuration":295566,"Delta":243028653},{"NoteNumber":75,"Velocity":35,"Duration":295566,"SoundDuration":295566,"Delta":243028653},{"NoteNumber":54,"Velocity":29,"Duration":147783,"SoundDuration":147783,"Delta":243028653},{"NoteNumber":56,"Velocity":29,"Duration":147783,"SoundDuration":147783,"Delta":243176437},{"NoteNumber":77,"Velocity":77,"Duration":391914,"SoundDuration":391914,"Delta":243324220},{"NoteNumber":80,"Velocity":77,"Duration":391914,"SoundDuration":391914,"Delta":243324220},{"NoteNumber":85,"Velocity":77,"Duration":391914,"SoundDuration":391914,"Delta":243324220},{"NoteNumber":89,"Velocity":92,"Duration":391914,"SoundDuration":391914,"Delta":243324220},{"NoteNumber":53,"Velocity":57,"Duration":391914,"SoundDuration":391914,"Delta":243324220},{"NoteNumber":49,"Velocity":57,"Duration":391914,"SoundDuration":391914,"Delta":243324220},{"NoteNumber":56,"Velocity":57,"Duration":391914,"SoundDuration":391914,"Delta":243324220},{"NoteNumber":61,"Velocity":67,"Duration":391914,"SoundDuration":391914,"Delta":243324220},{"NoteNumber":77,"Velocity":73,"Duration":96587,"SoundDuration":96587,"Delta":243720260},{"NoteNumber":80,"Velocity":73,"Duration":96587,"SoundDuration":96587,"Delta":243720260},{"NoteNumber":85,"Velocity":73,"Duration":96587,"SoundDuration":96587,"Delta":243720260},{"NoteNumber":89,"Velocity":87,"Duration":96587,"SoundDuration":96587,"Delta":243720260},{"NoteNumber":53,"Velocity":51,"Duration":96587,"SoundDuration":96587,"Delta":243720260},{"NoteNumber":49,"Velocity":51,"Duration":96587,"SoundDuration":96587,"Delta":243720260},{"NoteNumber":56,"Velocity":51,"Duration":96587,"SoundDuration":96587,"Delta":243720260},{"NoteNumber":61,"Velocity":61,"Duration":96587,"SoundDuration":96587,"Delta":243720260},{"NoteNumber":77,"Velocity":73,"Duration":96587,"SoundDuration":96587,"Delta":243913434},{"NoteNumber":80,"Velocity":73,"Duration":96587,"SoundDuration":96587,"Delta":243913434},{"NoteNumber":85,"Velocity":73,"Duration":96587,"SoundDuration":96587,"Delta":243913434},{"NoteNumber":89,"Velocity":87,"Duration":96587,"SoundDuration":96587,"Delta":243913434},{"NoteNumber":53,"Velocity":51,"Duration":96587,"SoundDuration":96587,"Delta":243913434},{"NoteNumber":49,"Velocity":51,"Duration":96587,"SoundDuration":96587,"Delta":243913434},{"NoteNumber":56,"Velocity":51,"Duration":96587,"SoundDuration":96587,"Delta":243913434},{"NoteNumber":61,"Velocity":61,"Duration":96587,"SoundDuration":96587,"Delta":243913434},{"NoteNumber":77,"Velocity":77,"Duration":391914,"SoundDuration":391914,"Delta":244106609},{"NoteNumber":80,"Velocity":77,"Duration":391914,"SoundDuration":391914,"Delta":244106609},{"NoteNumber":85,"Velocity":77,"Duration":391914,"SoundDuration":391914,"Delta":244106609},{"NoteNumber":89,"Velocity":92,"Duration":391914,"SoundDuration":391914,"Delta":244106609},{"NoteNumber":53,"Velocity":58,"Duration":391914,"SoundDuration":391914,"Delta":244106609},{"NoteNumber":49,"Velocity":58,"Duration":391914,"SoundDuration":391914,"Delta":244106609},{"NoteNumber":56,"Velocity":58,"Duration":391914,"SoundDuration":391914,"Delta":244106609},{"NoteNumber":61,"Velocity":69,"Duration":391914,"SoundDuration":391914,"Delta":244106609},{"NoteNumber":77,"Velocity":72,"Duration":96587,"SoundDuration":96587,"Delta":244502649},{"NoteNumber":80,"Velocity":72,"Duration":96587,"SoundDuration":96587,"Delta":244502649},{"NoteNumber":85,"Velocity":72,"Duration":96587,"SoundDuration":96587,"Delta":244502649},{"NoteNumber":89,"Velocity":86,"Duration":96587,"SoundDuration":96587,"Delta":244502649},{"NoteNumber":49,"Velocity":52,"Duration":96587,"SoundDuration":96587,"Delta":244502649},{"NoteNumber":56,"Velocity":52,"Duration":96587,"SoundDuration":96587,"Delta":244502649},{"NoteNumber":61,"Velocity":63,"Duration":96587,"SoundDuration":96587,"Delta":244502649},{"NoteNumber":53,"Velocity":52,"Duration":96587,"SoundDuration":96587,"Delta":244507478},{"NoteNumber":77,"Velocity":72,"Duration":96587,"SoundDuration":96587,"Delta":244695823},{"NoteNumber":80,"Velocity":72,"Duration":96587,"SoundDuration":96587,"Delta":244695823},{"NoteNumber":85,"Velocity":72,"Duration":96587,"SoundDuration":96587,"Delta":244695823},{"NoteNumber":89,"Velocity":86,"Duration":96587,"SoundDuration":96587,"Delta":244695823},{"NoteNumber":53,"Velocity":52,"Duration":96587,"SoundDuration":96587,"Delta":244695823},{"NoteNumber":49,"Velocity":52,"Duration":96587,"SoundDuration":96587,"Delta":244695823},{"NoteNumber":56,"Velocity":52,"Duration":96587,"SoundDuration":96587,"Delta":244695823},{"NoteNumber":61,"Velocity":63,"Duration":96587,"SoundDuration":96587,"Delta":244695823},{"NoteNumber":77,"Velocity":77,"Duration":147987,"SoundDuration":147987,"Delta":244888998},{"NoteNumber":80,"Velocity":77,"Duration":147987,"SoundDuration":147987,"Delta":244888998},{"NoteNumber":85,"Velocity":77,"Duration":147987,"SoundDuration":147987,"Delta":244888998},{"NoteNumber":89,"Velocity":92,"Duration":147987,"SoundDuration":147987,"Delta":244888998},{"NoteNumber":53,"Velocity":58,"Duration":147987,"SoundDuration":147987,"Delta":244888998},{"NoteNumber":49,"Velocity":58,"Duration":147987,"SoundDuration":147987,"Delta":244888998},{"NoteNumber":56,"Velocity":58,"Duration":147987,"SoundDuration":147987,"Delta":244888998},{"NoteNumber":61,"Velocity":69,"Duration":147987,"SoundDuration":147987,"Delta":244888998},{"NoteNumber":89,"Velocity":70,"Duration":95093,"SoundDuration":95093,"Delta":245086314},{"NoteNumber":61,"Velocity":52,"Duration":95093,"SoundDuration":95093,"Delta":245086314},{"NoteNumber":85,"Velocity":72,"Duration":95093,"SoundDuration":95093,"Delta":245181408},{"NoteNumber":56,"Velocity":54,"Duration":95093,"SoundDuration":95093,"Delta":245181408},{"NoteNumber":80,"Velocity":73,"Duration":95093,"SoundDuration":95093,"Delta":245276501},{"NoteNumber":53,"Velocity":56,"Duration":95093,"SoundDuration":95093,"Delta":245276501},{"NoteNumber":77,"Velocity":75,"Duration":95093,"SoundDuration":95093,"Delta":245371594},{"NoteNumber":49,"Velocity":58,"Duration":95093,"SoundDuration":95093,"Delta":245371594},{"NoteNumber":73,"Velocity":77,"Duration":95093,"SoundDuration":95093,"Delta":245466687},{"NoteNumber":44,"Velocity":59,"Duration":95093,"SoundDuration":95093,"Delta":245466687},{"NoteNumber":68,"Velocity":78,"Duration":95093,"SoundDuration":95093,"Delta":245561781},{"NoteNumber":41,"Velocity":61,"Duration":95093,"SoundDuration":95093,"Delta":245561781},{"NoteNumber":65,"Velocity":81,"Duration":95093,"SoundDuration":95093,"Delta":245656874},{"NoteNumber":37,"Velocity":62,"Duration":95093,"SoundDuration":95093,"Delta":245656874},{"NoteNumber":61,"Velocity":80,"Duration":95302,"SoundDuration":95302,"Delta":245751967},{"NoteNumber":32,"Velocity":61,"Duration":95302,"SoundDuration":95302,"Delta":245751967},{"NoteNumber":65,"Velocity":79,"Duration":95618,"SoundDuration":95618,"Delta":245847270},{"NoteNumber":37,"Velocity":60,"Duration":95618,"SoundDuration":95618,"Delta":245847270},{"NoteNumber":68,"Velocity":78,"Duration":95936,"SoundDuration":95936,"Delta":245942889},{"NoteNumber":41,"Velocity":59,"Duration":95936,"SoundDuration":95936,"Delta":245942889},{"NoteNumber":73,"Velocity":78,"Duration":96149,"SoundDuration":96149,"Delta":246038826},{"NoteNumber":44,"Velocity":58,"Duration":96149,"SoundDuration":96149,"Delta":246038826},{"NoteNumber":77,"Velocity":77,"Duration":96471,"SoundDuration":96471,"Delta":246134975},{"NoteNumber":49,"Velocity":57,"Duration":96471,"SoundDuration":96471,"Delta":246134975},{"NoteNumber":80,"Velocity":76,"Duration":105159,"SoundDuration":105159,"Delta":246231447},{"NoteNumber":53,"Velocity":57,"Duration":105159,"SoundDuration":105159,"Delta":246231447},{"NoteNumber":85,"Velocity":75,"Duration":153264,"SoundDuration":153264,"Delta":246336607},{"NoteNumber":56,"Velocity":56,"Duration":153264,"SoundDuration":153264,"Delta":246336607},{"NoteNumber":77,"Velocity":77,"Duration":391914,"SoundDuration":391914,"Delta":246489871},{"NoteNumber":82,"Velocity":77,"Duration":391914,"SoundDuration":391914,"Delta":246489871},{"NoteNumber":85,"Velocity":77,"Duration":391914,"SoundDuration":391914,"Delta":246489871},{"NoteNumber":89,"Velocity":92,"Duration":391914,"SoundDuration":391914,"Delta":246489871},{"NoteNumber":53,"Velocity":57,"Duration":391914,"SoundDuration":391914,"Delta":246489871},{"NoteNumber":49,"Velocity":57,"Duration":391914,"SoundDuration":391914,"Delta":246489871},{"NoteNumber":46,"Velocity":57,"Duration":391914,"SoundDuration":391914,"Delta":246489871},{"NoteNumber":58,"Velocity":67,"Duration":391914,"SoundDuration":391914,"Delta":246489871},{"NoteNumber":77,"Velocity":73,"Duration":96587,"SoundDuration":96587,"Delta":246885911},{"NoteNumber":82,"Velocity":73,"Duration":96587,"SoundDuration":96587,"Delta":246885911},{"NoteNumber":85,"Velocity":73,"Duration":96587,"SoundDuration":96587,"Delta":246885911},{"NoteNumber":89,"Velocity":87,"Duration":96587,"SoundDuration":96587,"Delta":246885911},{"NoteNumber":53,"Velocity":51,"Duration":96587,"SoundDuration":96587,"Delta":246885911},{"NoteNumber":49,"Velocity":51,"Duration":96587,"SoundDuration":96587,"Delta":246885911},{"NoteNumber":46,"Velocity":51,"Duration":96587,"SoundDuration":96587,"Delta":246885911},{"NoteNumber":58,"Velocity":61,"Duration":96587,"SoundDuration":96587,"Delta":246885911},{"NoteNumber":77,"Velocity":73,"Duration":96587,"SoundDuration":96587,"Delta":247079086},{"NoteNumber":82,"Velocity":73,"Duration":96587,"SoundDuration":96587,"Delta":247079086},{"NoteNumber":85,"Velocity":73,"Duration":96587,"SoundDuration":96587,"Delta":247079086},{"NoteNumber":89,"Velocity":87,"Duration":96587,"SoundDuration":96587,"Delta":247079086},{"NoteNumber":53,"Velocity":51,"Duration":96587,"SoundDuration":96587,"Delta":247079086},{"NoteNumber":49,"Velocity":51,"Duration":96587,"SoundDuration":96587,"Delta":247079086},{"NoteNumber":46,"Velocity":51,"Duration":96587,"SoundDuration":96587,"Delta":247079086},{"NoteNumber":58,"Velocity":61,"Duration":96587,"SoundDuration":96587,"Delta":247079086},{"NoteNumber":77,"Velocity":77,"Duration":391914,"SoundDuration":391914,"Delta":247272260},{"NoteNumber":82,"Velocity":77,"Duration":391914,"SoundDuration":391914,"Delta":247272260},{"NoteNumber":85,"Velocity":77,"Duration":391914,"SoundDuration":391914,"Delta":247272260},{"NoteNumber":89,"Velocity":92,"Duration":391914,"SoundDuration":391914,"Delta":247272260},{"NoteNumber":53,"Velocity":58,"Duration":391914,"SoundDuration":391914,"Delta":247272260},{"NoteNumber":49,"Velocity":58,"Duration":391914,"SoundDuration":391914,"Delta":247272260},{"NoteNumber":46,"Velocity":58,"Duration":391914,"SoundDuration":391914,"Delta":247272260},{"NoteNumber":58,"Velocity":69,"Duration":391914,"SoundDuration":391914,"Delta":247272260},{"NoteNumber":77,"Velocity":72,"Duration":96587,"SoundDuration":96587,"Delta":247668300},{"NoteNumber":82,"Velocity":72,"Duration":96587,"SoundDuration":96587,"Delta":247668300},{"NoteNumber":85,"Velocity":72,"Duration":96587,"SoundDuration":96587,"Delta":247668300},{"NoteNumber":89,"Velocity":86,"Duration":96587,"SoundDuration":96587,"Delta":247668300},{"NoteNumber":49,"Velocity":52,"Duration":96587,"SoundDuration":96587,"Delta":247668300},{"NoteNumber":46,"Velocity":52,"Duration":96587,"SoundDuration":96587,"Delta":247668300},{"NoteNumber":58,"Velocity":63,"Duration":96587,"SoundDuration":96587,"Delta":247668300},{"NoteNumber":53,"Velocity":52,"Duration":96587,"SoundDuration":96587,"Delta":247673129},{"NoteNumber":77,"Velocity":72,"Duration":96587,"SoundDuration":96587,"Delta":247861475},{"NoteNumber":82,"Velocity":72,"Duration":96587,"SoundDuration":96587,"Delta":247861475},{"NoteNumber":85,"Velocity":72,"Duration":96587,"SoundDuration":96587,"Delta":247861475},{"NoteNumber":89,"Velocity":86,"Duration":96587,"SoundDuration":96587,"Delta":247861475},{"NoteNumber":53,"Velocity":52,"Duration":96587,"SoundDuration":96587,"Delta":247861475},{"NoteNumber":49,"Velocity":52,"Duration":96587,"SoundDuration":96587,"Delta":247861475},{"NoteNumber":46,"Velocity":52,"Duration":96587,"SoundDuration":96587,"Delta":247861475},{"NoteNumber":58,"Velocity":63,"Duration":96587,"SoundDuration":96587,"Delta":247861475},{"NoteNumber":77,"Velocity":77,"Duration":147987,"SoundDuration":147987,"Delta":248054649},{"NoteNumber":82,"Velocity":77,"Duration":147987,"SoundDuration":147987,"Delta":248054649},{"NoteNumber":85,"Velocity":77,"Duration":147987,"SoundDuration":147987,"Delta":248054649},{"NoteNumber":89,"Velocity":92,"Duration":147987,"SoundDuration":147987,"Delta":248054649},{"NoteNumber":53,"Velocity":58,"Duration":147987,"SoundDuration":147987,"Delta":248054649},{"NoteNumber":49,"Velocity":58,"Duration":147987,"SoundDuration":147987,"Delta":248054649},{"NoteNumber":46,"Velocity":58,"Duration":147987,"SoundDuration":147987,"Delta":248054649},{"NoteNumber":58,"Velocity":69,"Duration":147987,"SoundDuration":147987,"Delta":248054649},{"NoteNumber":89,"Velocity":71,"Duration":95093,"SoundDuration":95093,"Delta":248251966},{"NoteNumber":61,"Velocity":53,"Duration":95093,"SoundDuration":95093,"Delta":248251966},{"NoteNumber":85,"Velocity":72,"Duration":95093,"SoundDuration":95093,"Delta":248347059},{"NoteNumber":58,"Velocity":55,"Duration":95093,"SoundDuration":95093,"Delta":248347059},{"NoteNumber":82,"Velocity":73,"Duration":95093,"SoundDuration":95093,"Delta":248442152},{"NoteNumber":53,"Velocity":57,"Duration":95093,"SoundDuration":95093,"Delta":248442152},{"NoteNumber":77,"Velocity":74,"Duration":95093,"SoundDuration":95093,"Delta":248537245},{"NoteNumber":49,"Velocity":58,"Duration":95093,"SoundDuration":95093,"Delta":248537245},{"NoteNumber":73,"Velocity":75,"Duration":95093,"SoundDuration":95093,"Delta":248632339},{"NoteNumber":46,"Velocity":60,"Duration":95093,"SoundDuration":95093,"Delta":248632339},{"NoteNumber":70,"Velocity":75,"Duration":95093,"SoundDuration":95093,"Delta":248727432},{"NoteNumber":41,"Velocity":62,"Duration":95093,"SoundDuration":95093,"Delta":248727432},{"NoteNumber":65,"Velocity":76,"Duration":95093,"SoundDuration":95093,"Delta":248822525},{"NoteNumber":37,"Velocity":64,"Duration":95093,"SoundDuration":95093,"Delta":248822525},{"NoteNumber":61,"Velocity":77,"Duration":95302,"SoundDuration":95302,"Delta":248917618},{"NoteNumber":34,"Velocity":64,"Duration":95302,"SoundDuration":95302,"Delta":248917618},{"NoteNumber":65,"Velocity":76,"Duration":95618,"SoundDuration":95618,"Delta":249012921},{"NoteNumber":37,"Velocity":63,"Duration":95618,"SoundDuration":95618,"Delta":249012921},{"NoteNumber":70,"Velocity":75,"Duration":95936,"SoundDuration":95936,"Delta":249108540},{"NoteNumber":41,"Velocity":62,"Duration":95936,"SoundDuration":95936,"Delta":249108540},{"NoteNumber":73,"Velocity":74,"Duration":96149,"SoundDuration":96149,"Delta":249204477},{"NoteNumber":46,"Velocity":61,"Duration":96149,"SoundDuration":96149,"Delta":249204477},{"NoteNumber":77,"Velocity":73,"Duration":96471,"SoundDuration":96471,"Delta":249300627},{"NoteNumber":49,"Velocity":60,"Duration":96471,"SoundDuration":96471,"Delta":249300627},{"NoteNumber":82,"Velocity":73,"Duration":106322,"SoundDuration":106322,"Delta":249397098},{"NoteNumber":53,"Velocity":59,"Duration":106322,"SoundDuration":106322,"Delta":249397098},{"NoteNumber":85,"Velocity":72,"Duration":149298,"SoundDuration":149298,"Delta":249503421},{"NoteNumber":58,"Velocity":60,"Duration":149298,"SoundDuration":149298,"Delta":249503421},{"NoteNumber":78,"Velocity":69,"Duration":391914,"SoundDuration":391914,"Delta":249652719},{"NoteNumber":82,"Velocity":69,"Duration":391914,"SoundDuration":391914,"Delta":249652719},{"NoteNumber":85,"Velocity":69,"Duration":391914,"SoundDuration":391914,"Delta":249652719},{"NoteNumber":90,"Velocity":82,"Duration":391914,"SoundDuration":391914,"Delta":249652719},{"NoteNumber":54,"Velocity":51,"Duration":391914,"SoundDuration":391914,"Delta":249652719},{"NoteNumber":58,"Velocity":51,"Duration":391914,"SoundDuration":391914,"Delta":249652719},{"NoteNumber":61,"Velocity":59,"Duration":391914,"SoundDuration":391914,"Delta":249652719},{"NoteNumber":78,"Velocity":66,"Duration":96587,"SoundDuration":96587,"Delta":250048759},{"NoteNumber":82,"Velocity":66,"Duration":96587,"SoundDuration":96587,"Delta":250048759},{"NoteNumber":85,"Velocity":66,"Duration":96587,"SoundDuration":96587,"Delta":250048759},{"NoteNumber":90,"Velocity":77,"Duration":96587,"SoundDuration":96587,"Delta":250048759},{"NoteNumber":54,"Velocity":46,"Duration":96587,"SoundDuration":96587,"Delta":250048759},{"NoteNumber":58,"Velocity":46,"Duration":96587,"SoundDuration":96587,"Delta":250048759},{"NoteNumber":61,"Velocity":55,"Duration":96587,"SoundDuration":96587,"Delta":250048759},{"NoteNumber":78,"Velocity":66,"Duration":96587,"SoundDuration":96587,"Delta":250241934},{"NoteNumber":82,"Velocity":66,"Duration":96587,"SoundDuration":96587,"Delta":250241934},{"NoteNumber":85,"Velocity":66,"Duration":96587,"SoundDuration":96587,"Delta":250241934},{"NoteNumber":90,"Velocity":77,"Duration":96587,"SoundDuration":96587,"Delta":250241934},{"NoteNumber":54,"Velocity":46,"Duration":96587,"SoundDuration":96587,"Delta":250241934},{"NoteNumber":58,"Velocity":46,"Duration":96587,"SoundDuration":96587,"Delta":250241934},{"NoteNumber":61,"Velocity":55,"Duration":96587,"SoundDuration":96587,"Delta":250241934},{"NoteNumber":78,"Velocity":75,"Duration":391914,"SoundDuration":391914,"Delta":250435108},{"NoteNumber":81,"Velocity":75,"Duration":391914,"SoundDuration":391914,"Delta":250435108},{"NoteNumber":86,"Velocity":75,"Duration":391914,"SoundDuration":391914,"Delta":250435108},{"NoteNumber":90,"Velocity":90,"Duration":391914,"SoundDuration":391914,"Delta":250435108},{"NoteNumber":50,"Velocity":57,"Duration":391914,"SoundDuration":391914,"Delta":250435108},{"NoteNumber":54,"Velocity":57,"Duration":391914,"SoundDuration":391914,"Delta":250435108},{"NoteNumber":57,"Velocity":57,"Duration":391914,"SoundDuration":391914,"Delta":250435108},{"NoteNumber":62,"Velocity":67,"Duration":391914,"SoundDuration":391914,"Delta":250435108},{"NoteNumber":78,"Velocity":71,"Duration":96587,"SoundDuration":96587,"Delta":250831148},{"NoteNumber":81,"Velocity":71,"Duration":96587,"SoundDuration":96587,"Delta":250831148},{"NoteNumber":86,"Velocity":71,"Duration":96587,"SoundDuration":96587,"Delta":250831148},{"NoteNumber":90,"Velocity":84,"Duration":96587,"SoundDuration":96587,"Delta":250831148},{"NoteNumber":50,"Velocity":51,"Duration":96587,"SoundDuration":96587,"Delta":250831148},{"NoteNumber":57,"Velocity":51,"Duration":96587,"SoundDuration":96587,"Delta":250831148},{"NoteNumber":62,"Velocity":61,"Duration":96587,"SoundDuration":96587,"Delta":250831148},{"NoteNumber":54,"Velocity":51,"Duration":96587,"SoundDuration":96587,"Delta":250835977},{"NoteNumber":78,"Velocity":71,"Duration":96587,"SoundDuration":96587,"Delta":251024323},{"NoteNumber":81,"Velocity":71,"Duration":96587,"SoundDuration":96587,"Delta":251024323},{"NoteNumber":86,"Velocity":71,"Duration":96587,"SoundDuration":96587,"Delta":251024323},{"NoteNumber":90,"Velocity":84,"Duration":96587,"SoundDuration":96587,"Delta":251024323},{"NoteNumber":50,"Velocity":51,"Duration":96587,"SoundDuration":96587,"Delta":251024323},{"NoteNumber":54,"Velocity":51,"Duration":96587,"SoundDuration":96587,"Delta":251024323},{"NoteNumber":57,"Velocity":51,"Duration":96587,"SoundDuration":96587,"Delta":251024323},{"NoteNumber":62,"Velocity":61,"Duration":96587,"SoundDuration":96587,"Delta":251024323},{"NoteNumber":78,"Velocity":75,"Duration":147987,"SoundDuration":147987,"Delta":251217497},{"NoteNumber":80,"Velocity":75,"Duration":147987,"SoundDuration":147987,"Delta":251217497},{"NoteNumber":87,"Velocity":75,"Duration":147987,"SoundDuration":147987,"Delta":251217497},{"NoteNumber":90,"Velocity":90,"Duration":147987,"SoundDuration":147987,"Delta":251217497},{"NoteNumber":48,"Velocity":57,"Duration":147987,"SoundDuration":147987,"Delta":251217497},{"NoteNumber":51,"Velocity":57,"Duration":147987,"SoundDuration":147987,"Delta":251217497},{"NoteNumber":56,"Velocity":57,"Duration":147987,"SoundDuration":147987,"Delta":251217497},{"NoteNumber":60,"Velocity":67,"Duration":147987,"SoundDuration":147987,"Delta":251217497},{"NoteNumber":78,"Velocity":60,"Duration":95093,"SoundDuration":95093,"Delta":251414814},{"NoteNumber":63,"Velocity":47,"Duration":95093,"SoundDuration":95093,"Delta":251414814},{"NoteNumber":77,"Velocity":62,"Duration":95093,"SoundDuration":95093,"Delta":251509907},{"NoteNumber":61,"Velocity":48,"Duration":95093,"SoundDuration":95093,"Delta":251509907},{"NoteNumber":75,"Velocity":63,"Duration":95093,"SoundDuration":95093,"Delta":251605000},{"NoteNumber":60,"Velocity":50,"Duration":95093,"SoundDuration":95093,"Delta":251605000},{"NoteNumber":77,"Velocity":64,"Duration":95093,"SoundDuration":95093,"Delta":251700093},{"NoteNumber":61,"Velocity":51,"Duration":95093,"SoundDuration":95093,"Delta":251700093},{"NoteNumber":75,"Velocity":66,"Duration":95093,"SoundDuration":95093,"Delta":251795187},{"NoteNumber":60,"Velocity":52,"Duration":95093,"SoundDuration":95093,"Delta":251795187},{"NoteNumber":73,"Velocity":67,"Duration":95093,"SoundDuration":95093,"Delta":251890280},{"NoteNumber":58,"Velocity":54,"Duration":95093,"SoundDuration":95093,"Delta":251890280},{"NoteNumber":72,"Velocity":70,"Duration":95093,"SoundDuration":95093,"Delta":251985373},{"NoteNumber":56,"Velocity":55,"Duration":95093,"SoundDuration":95093,"Delta":251985373},{"NoteNumber":73,"Velocity":70,"Duration":95302,"SoundDuration":95302,"Delta":252080466},{"NoteNumber":58,"Velocity":53,"Duration":95302,"SoundDuration":95302,"Delta":252080466},{"NoteNumber":72,"Velocity":69,"Duration":95618,"SoundDuration":95618,"Delta":252175769},{"NoteNumber":56,"Velocity":52,"Duration":95618,"SoundDuration":95618,"Delta":252175769},{"NoteNumber":73,"Velocity":68,"Duration":95936,"SoundDuration":95936,"Delta":252271388},{"NoteNumber":58,"Velocity":52,"Duration":95936,"SoundDuration":95936,"Delta":252271388},{"NoteNumber":75,"Velocity":67,"Duration":96149,"SoundDuration":96149,"Delta":252367325},{"NoteNumber":60,"Velocity":51,"Duration":96149,"SoundDuration":96149,"Delta":252367325},{"NoteNumber":77,"Velocity":66,"Duration":96471,"SoundDuration":96471,"Delta":252463475},{"NoteNumber":61,"Velocity":51,"Duration":96471,"SoundDuration":96471,"Delta":252463475},{"NoteNumber":78,"Velocity":65,"Duration":106322,"SoundDuration":106322,"Delta":252559946},{"NoteNumber":63,"Velocity":50,"Duration":106322,"SoundDuration":106322,"Delta":252559946},{"NoteNumber":80,"Velocity":64,"Duration":149298,"SoundDuration":149298,"Delta":252666269},{"NoteNumber":65,"Velocity":50,"Duration":149298,"SoundDuration":149298,"Delta":252666269},{"NoteNumber":78,"Velocity":69,"Duration":391914,"SoundDuration":391914,"Delta":252815567},{"NoteNumber":82,"Velocity":69,"Duration":391914,"SoundDuration":391914,"Delta":252815567},{"NoteNumber":85,"Velocity":69,"Duration":391914,"SoundDuration":391914,"Delta":252815567},{"NoteNumber":90,"Velocity":82,"Duration":391914,"SoundDuration":391914,"Delta":252815567},{"NoteNumber":54,"Velocity":51,"Duration":391914,"SoundDuration":391914,"Delta":252815567},{"NoteNumber":58,"Velocity":51,"Duration":391914,"SoundDuration":391914,"Delta":252815567},{"NoteNumber":61,"Velocity":59,"Duration":391914,"SoundDuration":391914,"Delta":252815567},{"NoteNumber":78,"Velocity":66,"Duration":96587,"SoundDuration":96587,"Delta":253211607},{"NoteNumber":82,"Velocity":66,"Duration":96587,"SoundDuration":96587,"Delta":253211607},{"NoteNumber":85,"Velocity":66,"Duration":96587,"SoundDuration":96587,"Delta":253211607},{"NoteNumber":90,"Velocity":77,"Duration":96587,"SoundDuration":96587,"Delta":253211607},{"NoteNumber":54,"Velocity":46,"Duration":96587,"SoundDuration":96587,"Delta":253211607},{"NoteNumber":58,"Velocity":46,"Duration":96587,"SoundDuration":96587,"Delta":253211607},{"NoteNumber":61,"Velocity":55,"Duration":96587,"SoundDuration":96587,"Delta":253211607},{"NoteNumber":78,"Velocity":66,"Duration":96587,"SoundDuration":96587,"Delta":253404782},{"NoteNumber":82,"Velocity":66,"Duration":96587,"SoundDuration":96587,"Delta":253404782},{"NoteNumber":85,"Velocity":66,"Duration":96587,"SoundDuration":96587,"Delta":253404782},{"NoteNumber":90,"Velocity":77,"Duration":96587,"SoundDuration":96587,"Delta":253404782},{"NoteNumber":54,"Velocity":46,"Duration":96587,"SoundDuration":96587,"Delta":253404782},{"NoteNumber":58,"Velocity":46,"Duration":96587,"SoundDuration":96587,"Delta":253404782},{"NoteNumber":61,"Velocity":55,"Duration":96587,"SoundDuration":96587,"Delta":253404782},{"NoteNumber":78,"Velocity":75,"Duration":391914,"SoundDuration":391914,"Delta":253597956},{"NoteNumber":81,"Velocity":75,"Duration":391914,"SoundDuration":391914,"Delta":253597956},{"NoteNumber":86,"Velocity":75,"Duration":391914,"SoundDuration":391914,"Delta":253597956},{"NoteNumber":90,"Velocity":90,"Duration":391914,"SoundDuration":391914,"Delta":253597956},{"NoteNumber":50,"Velocity":57,"Duration":391914,"SoundDuration":391914,"Delta":253597956},{"NoteNumber":54,"Velocity":57,"Duration":391914,"SoundDuration":391914,"Delta":253597956},{"NoteNumber":57,"Velocity":57,"Duration":391914,"SoundDuration":391914,"Delta":253597956},{"NoteNumber":62,"Velocity":67,"Duration":391914,"SoundDuration":391914,"Delta":253597956},{"NoteNumber":78,"Velocity":71,"Duration":96587,"SoundDuration":96587,"Delta":253993996},{"NoteNumber":81,"Velocity":71,"Duration":96587,"SoundDuration":96587,"Delta":253993996},{"NoteNumber":86,"Velocity":71,"Duration":96587,"SoundDuration":96587,"Delta":253993996},{"NoteNumber":90,"Velocity":84,"Duration":96587,"SoundDuration":96587,"Delta":253993996},{"NoteNumber":50,"Velocity":51,"Duration":96587,"SoundDuration":96587,"Delta":253993996},{"NoteNumber":57,"Velocity":51,"Duration":96587,"SoundDuration":96587,"Delta":253993996},{"NoteNumber":62,"Velocity":61,"Duration":96587,"SoundDuration":96587,"Delta":253993996},{"NoteNumber":54,"Velocity":51,"Duration":96587,"SoundDuration":96587,"Delta":253998825},{"NoteNumber":78,"Velocity":71,"Duration":96587,"SoundDuration":96587,"Delta":254187171},{"NoteNumber":81,"Velocity":71,"Duration":96587,"SoundDuration":96587,"Delta":254187171},{"NoteNumber":86,"Velocity":71,"Duration":96587,"SoundDuration":96587,"Delta":254187171},{"NoteNumber":90,"Velocity":84,"Duration":96587,"SoundDuration":96587,"Delta":254187171},{"NoteNumber":50,"Velocity":51,"Duration":96587,"SoundDuration":96587,"Delta":254187171},{"NoteNumber":54,"Velocity":51,"Duration":96587,"SoundDuration":96587,"Delta":254187171},{"NoteNumber":57,"Velocity":51,"Duration":96587,"SoundDuration":96587,"Delta":254187171},{"NoteNumber":62,"Velocity":61,"Duration":96587,"SoundDuration":96587,"Delta":254187171},{"NoteNumber":78,"Velocity":75,"Duration":147987,"SoundDuration":147987,"Delta":254380345},{"NoteNumber":80,"Velocity":75,"Duration":147987,"SoundDuration":147987,"Delta":254380345},{"NoteNumber":87,"Velocity":75,"Duration":147987,"SoundDuration":147987,"Delta":254380345},{"NoteNumber":90,"Velocity":90,"Duration":147987,"SoundDuration":147987,"Delta":254380345},{"NoteNumber":48,"Velocity":57,"Duration":147987,"SoundDuration":147987,"Delta":254380345},{"NoteNumber":51,"Velocity":57,"Duration":147987,"SoundDuration":147987,"Delta":254380345},{"NoteNumber":56,"Velocity":57,"Duration":147987,"SoundDuration":147987,"Delta":254380345},{"NoteNumber":60,"Velocity":67,"Duration":147987,"SoundDuration":147987,"Delta":254380345},{"NoteNumber":78,"Velocity":61,"Duration":95093,"SoundDuration":95093,"Delta":254577662},{"NoteNumber":63,"Velocity":47,"Duration":95093,"SoundDuration":95093,"Delta":254577662},{"NoteNumber":77,"Velocity":62,"Duration":95093,"SoundDuration":95093,"Delta":254672755},{"NoteNumber":61,"Velocity":48,"Duration":95093,"SoundDuration":95093,"Delta":254672755},{"NoteNumber":75,"Velocity":63,"Duration":95093,"SoundDuration":95093,"Delta":254767848},{"NoteNumber":60,"Velocity":50,"Duration":95093,"SoundDuration":95093,"Delta":254767848},{"NoteNumber":77,"Velocity":64,"Duration":95093,"SoundDuration":95093,"Delta":254862941},{"NoteNumber":61,"Velocity":51,"Duration":95093,"SoundDuration":95093,"Delta":254862941},{"NoteNumber":75,"Velocity":65,"Duration":95093,"SoundDuration":95093,"Delta":254958035},{"NoteNumber":60,"Velocity":51,"Duration":95093,"SoundDuration":95093,"Delta":254958035},{"NoteNumber":73,"Velocity":67,"Duration":95093,"SoundDuration":95093,"Delta":255053128},{"NoteNumber":58,"Velocity":53,"Duration":95093,"SoundDuration":95093,"Delta":255053128},{"NoteNumber":72,"Velocity":68,"Duration":95093,"SoundDuration":95093,"Delta":255148221},{"NoteNumber":56,"Velocity":55,"Duration":95093,"SoundDuration":95093,"Delta":255148221},{"NoteNumber":73,"Velocity":68,"Duration":95302,"SoundDuration":95302,"Delta":255243314},{"NoteNumber":58,"Velocity":55,"Duration":95302,"SoundDuration":95302,"Delta":255243314},{"NoteNumber":72,"Velocity":68,"Duration":95618,"SoundDuration":95618,"Delta":255338617},{"NoteNumber":56,"Velocity":53,"Duration":95618,"SoundDuration":95618,"Delta":255338617},{"NoteNumber":73,"Velocity":67,"Duration":95936,"SoundDuration":95936,"Delta":255434236},{"NoteNumber":58,"Velocity":52,"Duration":95936,"SoundDuration":95936,"Delta":255434236},{"NoteNumber":75,"Velocity":66,"Duration":96149,"SoundDuration":96149,"Delta":255530173},{"NoteNumber":60,"Velocity":50,"Duration":96149,"SoundDuration":96149,"Delta":255530173},{"NoteNumber":77,"Velocity":66,"Duration":96471,"SoundDuration":96471,"Delta":255626323},{"NoteNumber":61,"Velocity":49,"Duration":96471,"SoundDuration":96471,"Delta":255626323},{"NoteNumber":78,"Velocity":65,"Duration":106322,"SoundDuration":106322,"Delta":255722794},{"NoteNumber":63,"Velocity":48,"Duration":106322,"SoundDuration":106322,"Delta":255722794},{"NoteNumber":80,"Velocity":65,"Duration":149298,"SoundDuration":149298,"Delta":255829117},{"NoteNumber":65,"Velocity":47,"Duration":149298,"SoundDuration":149298,"Delta":255829117},{"NoteNumber":69,"Velocity":68,"Duration":391914,"SoundDuration":391914,"Delta":255978415},{"NoteNumber":73,"Velocity":68,"Duration":391914,"SoundDuration":391914,"Delta":255978415},{"NoteNumber":78,"Velocity":68,"Duration":391914,"SoundDuration":391914,"Delta":255978415},{"NoteNumber":81,"Velocity":80,"Duration":391914,"SoundDuration":391914,"Delta":255978415},{"NoteNumber":54,"Velocity":55,"Duration":391914,"SoundDuration":391914,"Delta":255978415},{"NoteNumber":57,"Velocity":55,"Duration":391914,"SoundDuration":391914,"Delta":255978415},{"NoteNumber":61,"Velocity":55,"Duration":391914,"SoundDuration":391914,"Delta":255978415},{"NoteNumber":66,"Velocity":66,"Duration":391914,"SoundDuration":391914,"Delta":255978415},{"NoteNumber":69,"Velocity":63,"Duration":96587,"SoundDuration":96587,"Delta":256374455},{"NoteNumber":73,"Velocity":63,"Duration":96587,"SoundDuration":96587,"Delta":256374455},{"NoteNumber":78,"Velocity":63,"Duration":96587,"SoundDuration":96587,"Delta":256374455},{"NoteNumber":81,"Velocity":74,"Duration":96587,"SoundDuration":96587,"Delta":256374455},{"NoteNumber":54,"Velocity":38,"Duration":96587,"SoundDuration":96587,"Delta":256374455},{"NoteNumber":57,"Velocity":38,"Duration":96587,"SoundDuration":96587,"Delta":256374455},{"NoteNumber":61,"Velocity":38,"Duration":96587,"SoundDuration":96587,"Delta":256374455},{"NoteNumber":66,"Velocity":55,"Duration":96587,"SoundDuration":96587,"Delta":256374455},{"NoteNumber":69,"Velocity":63,"Duration":96587,"SoundDuration":96587,"Delta":256567630},{"NoteNumber":78,"Velocity":63,"Duration":96587,"SoundDuration":96587,"Delta":256567630},{"NoteNumber":73,"Velocity":63,"Duration":96587,"SoundDuration":96587,"Delta":256567630},{"NoteNumber":81,"Velocity":74,"Duration":96587,"SoundDuration":96587,"Delta":256567630},{"NoteNumber":54,"Velocity":46,"Duration":96587,"SoundDuration":96587,"Delta":256567630},{"NoteNumber":57,"Velocity":46,"Duration":96587,"SoundDuration":96587,"Delta":256567630},{"NoteNumber":61,"Velocity":46,"Duration":96587,"SoundDuration":96587,"Delta":256567630},{"NoteNumber":66,"Velocity":54,"Duration":96587,"SoundDuration":96587,"Delta":256567630},{"NoteNumber":74,"Velocity":69,"Duration":391914,"SoundDuration":391914,"Delta":256760804},{"NoteNumber":78,"Velocity":69,"Duration":391914,"SoundDuration":391914,"Delta":256760804},{"NoteNumber":81,"Velocity":69,"Duration":391914,"SoundDuration":391914,"Delta":256760804},{"NoteNumber":86,"Velocity":81,"Duration":391914,"SoundDuration":391914,"Delta":256760804},{"NoteNumber":50,"Velocity":51,"Duration":391914,"SoundDuration":391914,"Delta":256760804},{"NoteNumber":54,"Velocity":51,"Duration":391914,"SoundDuration":391914,"Delta":256760804},{"NoteNumber":57,"Velocity":51,"Duration":391914,"SoundDuration":391914,"Delta":256760804},{"NoteNumber":62,"Velocity":60,"Duration":391914,"SoundDuration":391914,"Delta":256760804},{"NoteNumber":74,"Velocity":65,"Duration":96587,"SoundDuration":96587,"Delta":257156844},{"NoteNumber":78,"Velocity":65,"Duration":96587,"SoundDuration":96587,"Delta":257156844},{"NoteNumber":81,"Velocity":65,"Duration":96587,"SoundDuration":96587,"Delta":257156844},{"NoteNumber":86,"Velocity":76,"Duration":96587,"SoundDuration":96587,"Delta":257156844},{"NoteNumber":54,"Velocity":47,"Duration":96587,"SoundDuration":96587,"Delta":257156844},{"NoteNumber":50,"Velocity":47,"Duration":96587,"SoundDuration":96587,"Delta":257156844},{"NoteNumber":57,"Velocity":47,"Duration":96587,"SoundDuration":96587,"Delta":257156844},{"NoteNumber":62,"Velocity":56,"Duration":96587,"SoundDuration":96587,"Delta":257156844},{"NoteNumber":74,"Velocity":65,"Duration":96587,"SoundDuration":96587,"Delta":257350019},{"NoteNumber":78,"Velocity":65,"Duration":96587,"SoundDuration":96587,"Delta":257350019},{"NoteNumber":81,"Velocity":65,"Duration":96587,"SoundDuration":96587,"Delta":257350019},{"NoteNumber":86,"Velocity":77,"Duration":96587,"SoundDuration":96587,"Delta":257350019},{"NoteNumber":50,"Velocity":48,"Duration":96587,"SoundDuration":96587,"Delta":257350019},{"NoteNumber":54,"Velocity":48,"Duration":96587,"SoundDuration":96587,"Delta":257350019},{"NoteNumber":57,"Velocity":48,"Duration":96587,"SoundDuration":96587,"Delta":257350019},{"NoteNumber":62,"Velocity":57,"Duration":96587,"SoundDuration":96587,"Delta":257350019},{"NoteNumber":71,"Velocity":58,"Duration":396040,"SoundDuration":396040,"Delta":257543193},{"NoteNumber":79,"Velocity":58,"Duration":396040,"SoundDuration":396040,"Delta":257543193},{"NoteNumber":83,"Velocity":82,"Duration":396040,"SoundDuration":396040,"Delta":257543193},{"NoteNumber":52,"Velocity":54,"Duration":396040,"SoundDuration":396040,"Delta":257543193},{"NoteNumber":55,"Velocity":54,"Duration":396040,"SoundDuration":396040,"Delta":257543193},{"NoteNumber":59,"Velocity":54,"Duration":396040,"SoundDuration":396040,"Delta":257543193},{"NoteNumber":64,"Velocity":65,"Duration":396040,"SoundDuration":396040,"Delta":257543193},{"NoteNumber":72,"Velocity":64,"Duration":386348,"SoundDuration":386348,"Delta":257939233},{"NoteNumber":76,"Velocity":64,"Duration":386348,"SoundDuration":386348,"Delta":257939233},{"NoteNumber":81,"Velocity":64,"Duration":386348,"SoundDuration":386348,"Delta":257939233},{"NoteNumber":84,"Velocity":75,"Duration":386348,"SoundDuration":386348,"Delta":257939233},{"NoteNumber":48,"Velocity":47,"Duration":386348,"SoundDuration":386348,"Delta":257939233},{"NoteNumber":52,"Velocity":47,"Duration":386348,"SoundDuration":386348,"Delta":257939233},{"NoteNumber":57,"Velocity":47,"Duration":386348,"SoundDuration":386348,"Delta":257939233},{"NoteNumber":60,"Velocity":56,"Duration":386348,"SoundDuration":386348,"Delta":257939233},{"NoteNumber":69,"Velocity":68,"Duration":396040,"SoundDuration":396040,"Delta":258325582},{"NoteNumber":74,"Velocity":68,"Duration":396040,"SoundDuration":396040,"Delta":258325582},{"NoteNumber":79,"Velocity":68,"Duration":396040,"SoundDuration":396040,"Delta":258325582},{"NoteNumber":81,"Velocity":80,"Duration":396040,"SoundDuration":396040,"Delta":258325582},{"NoteNumber":50,"Velocity":53,"Duration":396040,"SoundDuration":396040,"Delta":258325582},{"NoteNumber":57,"Velocity":53,"Duration":396040,"SoundDuration":396040,"Delta":258325582},{"NoteNumber":62,"Velocity":63,"Duration":396040,"SoundDuration":396040,"Delta":258325582},{"NoteNumber":74,"Velocity":70,"Duration":392156,"SoundDuration":392156,"Delta":258721622},{"NoteNumber":78,"Velocity":70,"Duration":392156,"SoundDuration":392156,"Delta":258721622},{"NoteNumber":81,"Velocity":70,"Duration":392156,"SoundDuration":392156,"Delta":258721622},{"NoteNumber":86,"Velocity":82,"Duration":392156,"SoundDuration":392156,"Delta":258721622},{"NoteNumber":38,"Velocity":51,"Duration":392156,"SoundDuration":392156,"Delta":258721622},{"NoteNumber":50,"Velocity":61,"Duration":392156,"SoundDuration":392156,"Delta":258721622},{"NoteNumber":71,"Velocity":69,"Duration":409556,"SoundDuration":409556,"Delta":259113779},{"NoteNumber":79,"Velocity":69,"Duration":409556,"SoundDuration":409556,"Delta":259113779},{"NoteNumber":83,"Velocity":81,"Duration":409556,"SoundDuration":409556,"Delta":259113779},{"NoteNumber":40,"Velocity":52,"Duration":409556,"SoundDuration":409556,"Delta":259113779},{"NoteNumber":52,"Velocity":61,"Duration":409556,"SoundDuration":409556,"Delta":259113779},{"NoteNumber":72,"Velocity":65,"Duration":396040,"SoundDuration":396040,"Delta":259523335},{"NoteNumber":76,"Velocity":65,"Duration":396040,"SoundDuration":396040,"Delta":259523335},{"NoteNumber":81,"Velocity":77,"Duration":396040,"SoundDuration":396040,"Delta":259523335},{"NoteNumber":84,"Velocity":77,"Duration":396040,"SoundDuration":396040,"Delta":259523335},{"NoteNumber":48,"Velocity":47,"Duration":396040,"SoundDuration":396040,"Delta":259523335},{"NoteNumber":52,"Velocity":47,"Duration":396040,"SoundDuration":396040,"Delta":259523335},{"NoteNumber":57,"Velocity":47,"Duration":396040,"SoundDuration":396040,"Delta":259523335},{"NoteNumber":60,"Velocity":55,"Duration":396040,"SoundDuration":396040,"Delta":259523335},{"NoteNumber":69,"Velocity":72,"Duration":410958,"SoundDuration":410958,"Delta":259919375},{"NoteNumber":74,"Velocity":72,"Duration":410958,"SoundDuration":410958,"Delta":259919375},{"NoteNumber":79,"Velocity":72,"Duration":410958,"SoundDuration":410958,"Delta":259919375},{"NoteNumber":81,"Velocity":85,"Duration":410958,"SoundDuration":410958,"Delta":259919375},{"NoteNumber":50,"Velocity":54,"Duration":410958,"SoundDuration":410958,"Delta":259919375},{"NoteNumber":57,"Velocity":54,"Duration":410958,"SoundDuration":410958,"Delta":259919375},{"NoteNumber":62,"Velocity":65,"Duration":410958,"SoundDuration":410958,"Delta":259919375},{"NoteNumber":74,"Velocity":75,"Duration":421052,"SoundDuration":421052,"Delta":260330334},{"NoteNumber":78,"Velocity":75,"Duration":421052,"SoundDuration":421052,"Delta":260330334},{"NoteNumber":81,"Velocity":75,"Duration":421052,"SoundDuration":421052,"Delta":260330334},{"NoteNumber":86,"Velocity":88,"Duration":421052,"SoundDuration":421052,"Delta":260330334},{"NoteNumber":38,"Velocity":57,"Duration":421052,"SoundDuration":421052,"Delta":260330334},{"NoteNumber":50,"Velocity":68,"Duration":421052,"SoundDuration":421052,"Delta":260330334},{"NoteNumber":67,"Velocity":74,"Duration":402542,"SoundDuration":402542,"Delta":260751387},{"NoteNumber":71,"Velocity":74,"Duration":402542,"SoundDuration":402542,"Delta":260751387},{"NoteNumber":79,"Velocity":88,"Duration":402542,"SoundDuration":402542,"Delta":260751387},{"NoteNumber":43,"Velocity":61,"Duration":101695,"SoundDuration":101695,"Delta":260751387},{"NoteNumber":45,"Velocity":57,"Duration":101695,"SoundDuration":101695,"Delta":260853082},{"NoteNumber":43,"Velocity":57,"Duration":101695,"SoundDuration":101695,"Delta":260954777},{"NoteNumber":45,"Velocity":57,"Duration":101695,"SoundDuration":101695,"Delta":261056472},{"NoteNumber":67,"Velocity":67,"Duration":99010,"SoundDuration":99010,"Delta":261158167},{"NoteNumber":71,"Velocity":67,"Duration":99010,"SoundDuration":99010,"Delta":261158167},{"NoteNumber":79,"Velocity":80,"Duration":99010,"SoundDuration":99010,"Delta":261158167},{"NoteNumber":47,"Velocity":61,"Duration":99010,"SoundDuration":99010,"Delta":261158167},{"NoteNumber":48,"Velocity":57,"Duration":99009,"SoundDuration":99009,"Delta":261257177},{"NoteNumber":67,"Velocity":67,"Duration":99010,"SoundDuration":99010,"Delta":261356187},{"NoteNumber":71,"Velocity":67,"Duration":99010,"SoundDuration":99010,"Delta":261356187},{"NoteNumber":79,"Velocity":80,"Duration":99010,"SoundDuration":99010,"Delta":261356187},{"NoteNumber":47,"Velocity":57,"Duration":99010,"SoundDuration":99010,"Delta":261356187},{"NoteNumber":48,"Velocity":57,"Duration":99010,"SoundDuration":99010,"Delta":261455197},{"NoteNumber":67,"Velocity":72,"Duration":399831,"SoundDuration":399831,"Delta":261554207},{"NoteNumber":71,"Velocity":72,"Duration":399831,"SoundDuration":399831,"Delta":261554207},{"NoteNumber":79,"Velocity":86,"Duration":399831,"SoundDuration":399831,"Delta":261554207},{"NoteNumber":50,"Velocity":63,"Duration":101009,"SoundDuration":101009,"Delta":261554207},{"NoteNumber":51,"Velocity":57,"Duration":101010,"SoundDuration":101010,"Delta":261655217},{"NoteNumber":50,"Velocity":57,"Duration":101009,"SoundDuration":101009,"Delta":261756227},{"NoteNumber":51,"Velocity":57,"Duration":101010,"SoundDuration":101010,"Delta":261857237},{"NoteNumber":67,"Velocity":67,"Duration":98684,"SoundDuration":98684,"Delta":261958247},{"NoteNumber":71,"Velocity":67,"Duration":98684,"SoundDuration":98684,"Delta":261958247},{"NoteNumber":79,"Velocity":80,"Duration":98684,"SoundDuration":98684,"Delta":261958247},{"NoteNumber":53,"Velocity":61,"Duration":98684,"SoundDuration":98684,"Delta":261958247},{"NoteNumber":55,"Velocity":57,"Duration":98684,"SoundDuration":98684,"Delta":262056931},{"NoteNumber":67,"Velocity":67,"Duration":98684,"SoundDuration":98684,"Delta":262155616},{"NoteNumber":71,"Velocity":67,"Duration":98684,"SoundDuration":98684,"Delta":262155616},{"NoteNumber":79,"Velocity":80,"Duration":98684,"SoundDuration":98684,"Delta":262155616},{"NoteNumber":53,"Velocity":57,"Duration":98684,"SoundDuration":98684,"Delta":262155616},{"NoteNumber":55,"Velocity":57,"Duration":98684,"SoundDuration":98684,"Delta":262254300},{"NoteNumber":67,"Velocity":73,"Duration":408163,"SoundDuration":408163,"Delta":262352984},{"NoteNumber":72,"Velocity":73,"Duration":408163,"SoundDuration":408163,"Delta":262352984},{"NoteNumber":79,"Velocity":87,"Duration":408163,"SoundDuration":408163,"Delta":262352984},{"NoteNumber":44,"Velocity":67,"Duration":826280,"SoundDuration":826280,"Delta":262352984},{"NoteNumber":56,"Velocity":67,"Duration":826280,"SoundDuration":826280,"Delta":262352984},{"NoteNumber":65,"Velocity":67,"Duration":418117,"SoundDuration":418117,"Delta":262761147},{"NoteNumber":72,"Velocity":67,"Duration":418117,"SoundDuration":418117,"Delta":262761147},{"NoteNumber":77,"Velocity":80,"Duration":418117,"SoundDuration":418117,"Delta":262761147},{"NoteNumber":77,"Velocity":70,"Duration":204081,"SoundDuration":204081,"Delta":263179265},{"NoteNumber":84,"Velocity":70,"Duration":204081,"SoundDuration":204081,"Delta":263179265},{"NoteNumber":89,"Velocity":84,"Duration":204081,"SoundDuration":204081,"Delta":263179265},{"NoteNumber":32,"Velocity":66,"Duration":812530,"SoundDuration":812530,"Delta":263179265},{"NoteNumber":44,"Velocity":66,"Duration":812530,"SoundDuration":812530,"Delta":263179265},{"NoteNumber":65,"Velocity":58,"Duration":93137,"SoundDuration":93137,"Delta":263383347},{"NoteNumber":72,"Velocity":58,"Duration":93137,"SoundDuration":93137,"Delta":263383347},{"NoteNumber":77,"Velocity":70,"Duration":93137,"SoundDuration":93137,"Delta":263383347},{"NoteNumber":65,"Velocity":58,"Duration":93137,"SoundDuration":93137,"Delta":263481386},{"NoteNumber":72,"Velocity":58,"Duration":93137,"SoundDuration":93137,"Delta":263481386},{"NoteNumber":77,"Velocity":70,"Duration":93137,"SoundDuration":93137,"Delta":263481386},{"NoteNumber":65,"Velocity":65,"Duration":195876,"SoundDuration":195876,"Delta":263579425},{"NoteNumber":72,"Velocity":65,"Duration":195876,"SoundDuration":195876,"Delta":263579425},{"NoteNumber":77,"Velocity":77,"Duration":195876,"SoundDuration":195876,"Delta":263579425},{"NoteNumber":65,"Velocity":64,"Duration":195876,"SoundDuration":195876,"Delta":263785611},{"NoteNumber":72,"Velocity":64,"Duration":195876,"SoundDuration":195876,"Delta":263785611},{"NoteNumber":77,"Velocity":75,"Duration":195876,"SoundDuration":195876,"Delta":263785611},{"NoteNumber":68,"Velocity":74,"Duration":402542,"SoundDuration":402542,"Delta":263991796},{"NoteNumber":72,"Velocity":74,"Duration":402542,"SoundDuration":402542,"Delta":263991796},{"NoteNumber":77,"Velocity":88,"Duration":402542,"SoundDuration":402542,"Delta":263991796},{"NoteNumber":41,"Velocity":61,"Duration":101695,"SoundDuration":101695,"Delta":263991796},{"NoteNumber":43,"Velocity":57,"Duration":101695,"SoundDuration":101695,"Delta":264093491},{"NoteNumber":41,"Velocity":57,"Duration":101695,"SoundDuration":101695,"Delta":264195186},{"NoteNumber":43,"Velocity":57,"Duration":101695,"SoundDuration":101695,"Delta":264296881},{"NoteNumber":68,"Velocity":67,"Duration":99010,"SoundDuration":99010,"Delta":264398576},{"NoteNumber":72,"Velocity":67,"Duration":99010,"SoundDuration":99010,"Delta":264398576},{"NoteNumber":77,"Velocity":80,"Duration":99010,"SoundDuration":99010,"Delta":264398576},{"NoteNumber":44,"Velocity":61,"Duration":99010,"SoundDuration":99010,"Delta":264398576},{"NoteNumber":46,"Velocity":57,"Duration":99009,"SoundDuration":99009,"Delta":264497586},{"NoteNumber":68,"Velocity":67,"Duration":99010,"SoundDuration":99010,"Delta":264596596},{"NoteNumber":72,"Velocity":67,"Duration":99010,"SoundDuration":99010,"Delta":264596596},{"NoteNumber":77,"Velocity":80,"Duration":99010,"SoundDuration":99010,"Delta":264596596},{"NoteNumber":44,"Velocity":57,"Duration":99010,"SoundDuration":99010,"Delta":264596596},{"NoteNumber":46,"Velocity":57,"Duration":99010,"SoundDuration":99010,"Delta":264695606},{"NoteNumber":68,"Velocity":72,"Duration":399831,"SoundDuration":399831,"Delta":264794616},{"NoteNumber":72,"Velocity":72,"Duration":399831,"SoundDuration":399831,"Delta":264794616},{"NoteNumber":77,"Velocity":86,"Duration":399831,"SoundDuration":399831,"Delta":264794616},{"NoteNumber":48,"Velocity":63,"Duration":101009,"SoundDuration":101009,"Delta":264794616},{"NoteNumber":50,"Velocity":57,"Duration":101010,"SoundDuration":101010,"Delta":264895626},{"NoteNumber":48,"Velocity":57,"Duration":101009,"SoundDuration":101009,"Delta":264996636},{"NoteNumber":50,"Velocity":57,"Duration":101010,"SoundDuration":101010,"Delta":265097646},{"NoteNumber":68,"Velocity":67,"Duration":98684,"SoundDuration":98684,"Delta":265198656},{"NoteNumber":72,"Velocity":67,"Duration":98684,"SoundDuration":98684,"Delta":265198656},{"NoteNumber":77,"Velocity":80,"Duration":98684,"SoundDuration":98684,"Delta":265198656},{"NoteNumber":51,"Velocity":61,"Duration":98684,"SoundDuration":98684,"Delta":265198656},{"NoteNumber":53,"Velocity":57,"Duration":98684,"SoundDuration":98684,"Delta":265297340},{"NoteNumber":68,"Velocity":67,"Duration":98684,"SoundDuration":98684,"Delta":265396025},{"NoteNumber":72,"Velocity":67,"Duration":98684,"SoundDuration":98684,"Delta":265396025},{"NoteNumber":77,"Velocity":80,"Duration":98684,"SoundDuration":98684,"Delta":265396025},{"NoteNumber":51,"Velocity":57,"Duration":98684,"SoundDuration":98684,"Delta":265396025},{"NoteNumber":53,"Velocity":57,"Duration":98684,"SoundDuration":98684,"Delta":265494709},{"NoteNumber":67,"Velocity":73,"Duration":408163,"SoundDuration":408163,"Delta":265593393},{"NoteNumber":70,"Velocity":73,"Duration":408163,"SoundDuration":408163,"Delta":265593393},{"NoteNumber":77,"Velocity":87,"Duration":408163,"SoundDuration":408163,"Delta":265593393},{"NoteNumber":43,"Velocity":67,"Duration":805514,"SoundDuration":805514,"Delta":265593393},{"NoteNumber":55,"Velocity":67,"Duration":805514,"SoundDuration":805514,"Delta":265593393},{"NoteNumber":67,"Velocity":67,"Duration":397351,"SoundDuration":397351,"Delta":266001556},{"NoteNumber":70,"Velocity":67,"Duration":397351,"SoundDuration":397351,"Delta":266001556},{"NoteNumber":75,"Velocity":80,"Duration":397351,"SoundDuration":397351,"Delta":266001556},{"NoteNumber":75,"Velocity":73,"Duration":204081,"SoundDuration":204081,"Delta":266398907},{"NoteNumber":82,"Velocity":73,"Duration":204081,"SoundDuration":204081,"Delta":266398907},{"NoteNumber":87,"Velocity":88,"Duration":204081,"SoundDuration":204081,"Delta":266398907},{"NoteNumber":31,"Velocity":66,"Duration":812530,"SoundDuration":812530,"Delta":266398907},{"NoteNumber":43,"Velocity":66,"Duration":812530,"SoundDuration":812530,"Delta":266398907},{"NoteNumber":63,"Velocity":58,"Duration":93137,"SoundDuration":93137,"Delta":266602989},{"NoteNumber":70,"Velocity":58,"Duration":93137,"SoundDuration":93137,"Delta":266602989},{"NoteNumber":75,"Velocity":70,"Duration":93137,"SoundDuration":93137,"Delta":266602989},{"NoteNumber":63,"Velocity":58,"Duration":93137,"SoundDuration":93137,"Delta":266701028},{"NoteNumber":70,"Velocity":58,"Duration":93137,"SoundDuration":93137,"Delta":266701028},{"NoteNumber":75,"Velocity":70,"Duration":93137,"SoundDuration":93137,"Delta":266701028},{"NoteNumber":63,"Velocity":65,"Duration":195876,"SoundDuration":195876,"Delta":266799067},{"NoteNumber":70,"Velocity":65,"Duration":195876,"SoundDuration":195876,"Delta":266799067},{"NoteNumber":75,"Velocity":77,"Duration":195876,"SoundDuration":195876,"Delta":266799067},{"NoteNumber":63,"Velocity":64,"Duration":195876,"SoundDuration":195876,"Delta":267005253},{"NoteNumber":70,"Velocity":64,"Duration":195876,"SoundDuration":195876,"Delta":267005253},{"NoteNumber":75,"Velocity":75,"Duration":195876,"SoundDuration":195876,"Delta":267005253},{"NoteNumber":67,"Velocity":74,"Duration":406780,"SoundDuration":406780,"Delta":267211438},{"NoteNumber":70,"Velocity":74,"Duration":406780,"SoundDuration":406780,"Delta":267211438},{"NoteNumber":75,"Velocity":88,"Duration":406780,"SoundDuration":406780,"Delta":267211438},{"NoteNumber":39,"Velocity":61,"Duration":101695,"SoundDuration":101695,"Delta":267211438},{"NoteNumber":41,"Velocity":57,"Duration":101695,"SoundDuration":101695,"Delta":267313133},{"NoteNumber":39,"Velocity":57,"Duration":101695,"SoundDuration":101695,"Delta":267414828},{"NoteNumber":41,"Velocity":57,"Duration":101695,"SoundDuration":101695,"Delta":267516523},{"NoteNumber":67,"Velocity":67,"Duration":99010,"SoundDuration":99010,"Delta":267618218},{"NoteNumber":70,"Velocity":67,"Duration":99010,"SoundDuration":99010,"Delta":267618218},{"NoteNumber":75,"Velocity":80,"Duration":99010,"SoundDuration":99010,"Delta":267618218},{"NoteNumber":43,"Velocity":61,"Duration":99010,"SoundDuration":99010,"Delta":267618218},{"NoteNumber":44,"Velocity":57,"Duration":99009,"SoundDuration":99009,"Delta":267717228},{"NoteNumber":67,"Velocity":67,"Duration":99010,"SoundDuration":99010,"Delta":267816238},{"NoteNumber":70,"Velocity":67,"Duration":99010,"SoundDuration":99010,"Delta":267816238},{"NoteNumber":75,"Velocity":80,"Duration":99010,"SoundDuration":99010,"Delta":267816238},{"NoteNumber":43,"Velocity":57,"Duration":99010,"SoundDuration":99010,"Delta":267816238},{"NoteNumber":44,"Velocity":57,"Duration":99010,"SoundDuration":99010,"Delta":267915248},{"NoteNumber":67,"Velocity":72,"Duration":404040,"SoundDuration":404040,"Delta":268014258},{"NoteNumber":70,"Velocity":72,"Duration":404040,"SoundDuration":404040,"Delta":268014258},{"NoteNumber":75,"Velocity":86,"Duration":404040,"SoundDuration":404040,"Delta":268014258},{"NoteNumber":46,"Velocity":63,"Duration":101009,"SoundDuration":101009,"Delta":268014258},{"NoteNumber":48,"Velocity":57,"Duration":101010,"SoundDuration":101010,"Delta":268115268},{"NoteNumber":46,"Velocity":57,"Duration":101009,"SoundDuration":101009,"Delta":268216278},{"NoteNumber":48,"Velocity":57,"Duration":101010,"SoundDuration":101010,"Delta":268317288},{"NoteNumber":67,"Velocity":67,"Duration":98684,"SoundDuration":98684,"Delta":268418298},{"NoteNumber":70,"Velocity":67,"Duration":98684,"SoundDuration":98684,"Delta":268418298},{"NoteNumber":75,"Velocity":80,"Duration":98684,"SoundDuration":98684,"Delta":268418298},{"NoteNumber":50,"Velocity":61,"Duration":98684,"SoundDuration":98684,"Delta":268418298},{"NoteNumber":51,"Velocity":57,"Duration":98684,"SoundDuration":98684,"Delta":268516982},{"NoteNumber":67,"Velocity":67,"Duration":98684,"SoundDuration":98684,"Delta":268615667},{"NoteNumber":70,"Velocity":67,"Duration":98684,"SoundDuration":98684,"Delta":268615667},{"NoteNumber":75,"Velocity":80,"Duration":98684,"SoundDuration":98684,"Delta":268615667},{"NoteNumber":50,"Velocity":57,"Duration":98684,"SoundDuration":98684,"Delta":268615667},{"NoteNumber":51,"Velocity":57,"Duration":98684,"SoundDuration":98684,"Delta":268714351},{"NoteNumber":65,"Velocity":73,"Duration":408163,"SoundDuration":408163,"Delta":268813035},{"NoteNumber":68,"Velocity":73,"Duration":408163,"SoundDuration":408163,"Delta":268813035},{"NoteNumber":75,"Velocity":87,"Duration":408163,"SoundDuration":408163,"Delta":268813035},{"NoteNumber":41,"Velocity":67,"Duration":826280,"SoundDuration":826280,"Delta":268813035},{"NoteNumber":53,"Velocity":67,"Duration":826280,"SoundDuration":826280,"Delta":268813035},{"NoteNumber":65,"Velocity":67,"Duration":418117,"SoundDuration":418117,"Delta":269221198},{"NoteNumber":68,"Velocity":67,"Duration":418117,"SoundDuration":418117,"Delta":269221198},{"NoteNumber":73,"Velocity":80,"Duration":418117,"SoundDuration":418117,"Delta":269221198},{"NoteNumber":73,"Velocity":73,"Duration":193877,"SoundDuration":193877,"Delta":269639316},{"NoteNumber":80,"Velocity":73,"Duration":193877,"SoundDuration":193877,"Delta":269639316},{"NoteNumber":85,"Velocity":88,"Duration":193877,"SoundDuration":193877,"Delta":269639316},{"NoteNumber":29,"Velocity":66,"Duration":812530,"SoundDuration":812530,"Delta":269639316},{"NoteNumber":41,"Velocity":66,"Duration":812530,"SoundDuration":812530,"Delta":269639316},{"NoteNumber":61,"Velocity":58,"Duration":93137,"SoundDuration":93137,"Delta":269843398},{"NoteNumber":68,"Velocity":58,"Duration":93137,"SoundDuration":93137,"Delta":269843398},{"NoteNumber":73,"Velocity":70,"Duration":93137,"SoundDuration":93137,"Delta":269843398},{"NoteNumber":61,"Velocity":58,"Duration":93137,"SoundDuration":93137,"Delta":269941437},{"NoteNumber":68,"Velocity":58,"Duration":93137,"SoundDuration":93137,"Delta":269941437},{"NoteNumber":73,"Velocity":70,"Duration":93137,"SoundDuration":93137,"Delta":269941437},{"NoteNumber":61,"Velocity":65,"Duration":195876,"SoundDuration":195876,"Delta":270039476},{"NoteNumber":68,"Velocity":65,"Duration":195876,"SoundDuration":195876,"Delta":270039476},{"NoteNumber":73,"Velocity":77,"Duration":195876,"SoundDuration":195876,"Delta":270039476},{"NoteNumber":61,"Velocity":64,"Duration":195876,"SoundDuration":195876,"Delta":270245662},{"NoteNumber":68,"Velocity":64,"Duration":195876,"SoundDuration":195876,"Delta":270245662},{"NoteNumber":73,"Velocity":75,"Duration":195876,"SoundDuration":195876,"Delta":270245662},{"NoteNumber":61,"Velocity":73,"Duration":408163,"SoundDuration":408163,"Delta":270451847},{"NoteNumber":67,"Velocity":73,"Duration":408163,"SoundDuration":408163,"Delta":270451847},{"NoteNumber":73,"Velocity":87,"Duration":408163,"SoundDuration":408163,"Delta":270451847},{"NoteNumber":39,"Velocity":67,"Duration":812203,"SoundDuration":812203,"Delta":270451847},{"NoteNumber":51,"Velocity":67,"Duration":812203,"SoundDuration":812203,"Delta":270451847},{"NoteNumber":60,"Velocity":67,"Duration":404040,"SoundDuration":404040,"Delta":270860010},{"NoteNumber":67,"Velocity":67,"Duration":404040,"SoundDuration":404040,"Delta":270860010},{"NoteNumber":72,"Velocity":80,"Duration":404040,"SoundDuration":404040,"Delta":270860010},{"NoteNumber":72,"Velocity":73,"Duration":193877,"SoundDuration":193877,"Delta":271264050},{"NoteNumber":79,"Velocity":73,"Duration":193877,"SoundDuration":193877,"Delta":271264050},{"NoteNumber":84,"Velocity":88,"Duration":193877,"SoundDuration":193877,"Delta":271264050},{"NoteNumber":27,"Velocity":66,"Duration":812530,"SoundDuration":812530,"Delta":271264050},{"NoteNumber":39,"Velocity":66,"Duration":812530,"SoundDuration":812530,"Delta":271264050},{"NoteNumber":60,"Velocity":58,"Duration":93137,"SoundDuration":93137,"Delta":271468132},{"NoteNumber":67,"Velocity":58,"Duration":93137,"SoundDuration":93137,"Delta":271468132},{"NoteNumber":72,"Velocity":70,"Duration":93137,"SoundDuration":93137,"Delta":271468132},{"NoteNumber":60,"Velocity":58,"Duration":93137,"SoundDuration":93137,"Delta":271566171},{"NoteNumber":67,"Velocity":58,"Duration":93137,"SoundDuration":93137,"Delta":271566171},{"NoteNumber":72,"Velocity":70,"Duration":93137,"SoundDuration":93137,"Delta":271566171},{"NoteNumber":60,"Velocity":65,"Duration":195876,"SoundDuration":195876,"Delta":271664210},{"NoteNumber":67,"Velocity":65,"Duration":195876,"SoundDuration":195876,"Delta":271664210},{"NoteNumber":72,"Velocity":77,"Duration":195876,"SoundDuration":195876,"Delta":271664210},{"NoteNumber":60,"Velocity":64,"Duration":195876,"SoundDuration":195876,"Delta":271870396},{"NoteNumber":67,"Velocity":64,"Duration":195876,"SoundDuration":195876,"Delta":271870396},{"NoteNumber":72,"Velocity":75,"Duration":195876,"SoundDuration":195876,"Delta":271870396},{"NoteNumber":60,"Velocity":73,"Duration":397351,"SoundDuration":397351,"Delta":272076581},{"NoteNumber":65,"Velocity":73,"Duration":397351,"SoundDuration":397351,"Delta":272076581},{"NoteNumber":72,"Velocity":87,"Duration":397351,"SoundDuration":397351,"Delta":272076581},{"NoteNumber":49,"Velocity":67,"Duration":298013,"SoundDuration":298013,"Delta":272076581},{"NoteNumber":61,"Velocity":67,"Duration":298013,"SoundDuration":298013,"Delta":272076581},{"NoteNumber":37,"Velocity":60,"Duration":94370,"SoundDuration":94370,"Delta":272374594},{"NoteNumber":49,"Velocity":60,"Duration":94370,"SoundDuration":94370,"Delta":272374594},{"NoteNumber":58,"Velocity":67,"Duration":418117,"SoundDuration":418117,"Delta":272473932},{"NoteNumber":65,"Velocity":67,"Duration":418117,"SoundDuration":418117,"Delta":272473932},{"NoteNumber":70,"Velocity":80,"Duration":418117,"SoundDuration":418117,"Delta":272473932},{"NoteNumber":37,"Velocity":67,"Duration":418117,"SoundDuration":418117,"Delta":272473932},{"NoteNumber":49,"Velocity":67,"Duration":418117,"SoundDuration":418117,"Delta":272473932},{"NoteNumber":70,"Velocity":76,"Duration":398670,"SoundDuration":398670,"Delta":272892050},{"NoteNumber":75,"Velocity":76,"Duration":398670,"SoundDuration":398670,"Delta":272892050},{"NoteNumber":82,"Velocity":90,"Duration":398670,"SoundDuration":398670,"Delta":272892050},{"NoteNumber":48,"Velocity":70,"Duration":299003,"SoundDuration":299003,"Delta":272892050},{"NoteNumber":60,"Velocity":70,"Duration":299003,"SoundDuration":299003,"Delta":272892050},{"NoteNumber":36,"Velocity":63,"Duration":94684,"SoundDuration":94684,"Delta":273191053},{"NoteNumber":48,"Velocity":63,"Duration":94684,"SoundDuration":94684,"Delta":273191053},{"NoteNumber":68,"Velocity":70,"Duration":418117,"SoundDuration":418117,"Delta":273290721},{"NoteNumber":75,"Velocity":70,"Duration":418117,"SoundDuration":418117,"Delta":273290721},{"NoteNumber":80,"Velocity":84,"Duration":418117,"SoundDuration":418117,"Delta":273290721},{"NoteNumber":36,"Velocity":70,"Duration":418117,"SoundDuration":418117,"Delta":273290721},{"NoteNumber":48,"Velocity":70,"Duration":418117,"SoundDuration":418117,"Delta":273290721},{"NoteNumber":56,"Velocity":76,"Duration":408163,"SoundDuration":408163,"Delta":273708839},{"NoteNumber":62,"Velocity":76,"Duration":408163,"SoundDuration":408163,"Delta":273708839},{"NoteNumber":68,"Velocity":90,"Duration":408163,"SoundDuration":408163,"Delta":273708839},{"NoteNumber":46,"Velocity":70,"Duration":306122,"SoundDuration":306122,"Delta":273708839},{"NoteNumber":58,"Velocity":70,"Duration":306122,"SoundDuration":306122,"Delta":273708839},{"NoteNumber":34,"Velocity":63,"Duration":96938,"SoundDuration":96938,"Delta":274014961},{"NoteNumber":46,"Velocity":63,"Duration":96938,"SoundDuration":96938,"Delta":274014961},{"NoteNumber":55,"Velocity":70,"Duration":434782,"SoundDuration":434782,"Delta":274117002},{"NoteNumber":62,"Velocity":70,"Duration":434782,"SoundDuration":434782,"Delta":274117002},{"NoteNumber":67,"Velocity":84,"Duration":434782,"SoundDuration":434782,"Delta":274117002},{"NoteNumber":34,"Velocity":70,"Duration":434782,"SoundDuration":434782,"Delta":274117002},{"NoteNumber":46,"Velocity":70,"Duration":434782,"SoundDuration":434782,"Delta":274117002},{"NoteNumber":67,"Velocity":80,"Duration":415225,"SoundDuration":415225,"Delta":274551785},{"NoteNumber":72,"Velocity":80,"Duration":415225,"SoundDuration":415225,"Delta":274551785},{"NoteNumber":79,"Velocity":94,"Duration":415225,"SoundDuration":415225,"Delta":274551785},{"NoteNumber":44,"Velocity":73,"Duration":311418,"SoundDuration":311418,"Delta":274551785},{"NoteNumber":56,"Velocity":73,"Duration":311418,"SoundDuration":311418,"Delta":274551785},{"NoteNumber":32,"Velocity":65,"Duration":98615,"SoundDuration":98615,"Delta":274863204},{"NoteNumber":44,"Velocity":65,"Duration":98615,"SoundDuration":98615,"Delta":274863204},{"NoteNumber":66,"Velocity":73,"Duration":430108,"SoundDuration":430108,"Delta":274967010},{"NoteNumber":72,"Velocity":73,"Duration":430108,"SoundDuration":430108,"Delta":274967010},{"NoteNumber":78,"Velocity":87,"Duration":430108,"SoundDuration":430108,"Delta":274967010},{"NoteNumber":32,"Velocity":73,"Duration":430108,"SoundDuration":430108,"Delta":274967010},{"NoteNumber":44,"Velocity":73,"Duration":430108,"SoundDuration":430108,"Delta":274967010},{"NoteNumber":67,"Velocity":73,"Duration":110974,"SoundDuration":110974,"Delta":275397118},{"NoteNumber":79,"Velocity":73,"Duration":110974,"SoundDuration":110974,"Delta":275397118},{"NoteNumber":31,"Velocity":75,"Duration":440384,"SoundDuration":440384,"Delta":275397118},{"NoteNumber":43,"Velocity":75,"Duration":440384,"SoundDuration":440384,"Delta":275397118},{"NoteNumber":81,"Velocity":74,"Duration":110429,"SoundDuration":110429,"Delta":275508092},{"NoteNumber":79,"Velocity":75,"Duration":109756,"SoundDuration":109756,"Delta":275618522},{"NoteNumber":81,"Velocity":76,"Duration":109223,"SoundDuration":109223,"Delta":275728278},{"NoteNumber":83,"Velocity":77,"Duration":108564,"SoundDuration":108564,"Delta":275837502},{"NoteNumber":67,"Velocity":70,"Duration":108564,"SoundDuration":108564,"Delta":275837502},{"NoteNumber":55,"Velocity":70,"Duration":108564,"SoundDuration":108564,"Delta":275837502},{"NoteNumber":84,"Velocity":78,"Duration":108043,"SoundDuration":108043,"Delta":275946067},{"NoteNumber":83,"Velocity":79,"Duration":107398,"SoundDuration":107398,"Delta":276054111},{"NoteNumber":55,"Velocity":70,"Duration":107398,"SoundDuration":107398,"Delta":276054111},{"NoteNumber":67,"Velocity":70,"Duration":107398,"SoundDuration":107398,"Delta":276054111},{"NoteNumber":84,"Velocity":80,"Duration":106888,"SoundDuration":106888,"Delta":276161510},{"NoteNumber":86,"Velocity":81,"Duration":106761,"SoundDuration":106761,"Delta":276268398},{"NoteNumber":67,"Velocity":73,"Duration":422597,"SoundDuration":422597,"Delta":276268398},{"NoteNumber":55,"Velocity":73,"Duration":422597,"SoundDuration":422597,"Delta":276268398},{"NoteNumber":87,"Velocity":82,"Duration":106761,"SoundDuration":106761,"Delta":276375160},{"NoteNumber":86,"Velocity":84,"Duration":106761,"SoundDuration":106761,"Delta":276481921},{"NoteNumber":87,"Velocity":85,"Duration":106761,"SoundDuration":106761,"Delta":276588683},{"NoteNumber":89,"Velocity":86,"Duration":106761,"SoundDuration":106761,"Delta":276695444},{"NoteNumber":67,"Velocity":70,"Duration":106761,"SoundDuration":106761,"Delta":276695444},{"NoteNumber":55,"Velocity":70,"Duration":106761,"SoundDuration":106761,"Delta":276695444},{"NoteNumber":91,"Velocity":87,"Duration":106761,"SoundDuration":106761,"Delta":276802206},{"NoteNumber":89,"Velocity":88,"Duration":106761,"SoundDuration":106761,"Delta":276908967},{"NoteNumber":67,"Velocity":70,"Duration":426288,"SoundDuration":426288,"Delta":276908967},{"NoteNumber":55,"Velocity":70,"Duration":426288,"SoundDuration":426288,"Delta":276908967},{"NoteNumber":91,"Velocity":89,"Duration":106761,"SoundDuration":106761,"Delta":277015729},{"NoteNumber":80,"Velocity":90,"Duration":845539,"SoundDuration":845539,"Delta":277122490},{"NoteNumber":92,"Velocity":90,"Duration":845539,"SoundDuration":845539,"Delta":277122490},{"NoteNumber":53,"Velocity":70,"Duration":78125,"SoundDuration":78125,"Delta":277335256},{"NoteNumber":65,"Velocity":70,"Duration":78125,"SoundDuration":78125,"Delta":277335256},{"NoteNumber":52,"Velocity":70,"Duration":78125,"SoundDuration":78125,"Delta":277439423},{"NoteNumber":64,"Velocity":70,"Duration":78125,"SoundDuration":78125,"Delta":277439423},{"NoteNumber":53,"Velocity":73,"Duration":104166,"SoundDuration":104166,"Delta":277543590},{"NoteNumber":65,"Velocity":73,"Duration":104166,"SoundDuration":104166,"Delta":277543590},{"NoteNumber":41,"Velocity":67,"Duration":160136,"SoundDuration":160136,"Delta":277751923},{"NoteNumber":53,"Velocity":67,"Duration":160136,"SoundDuration":160136,"Delta":277751923},{"NoteNumber":68,"Velocity":77,"Duration":839461,"SoundDuration":839461,"Delta":277968030},{"NoteNumber":80,"Velocity":77,"Duration":839461,"SoundDuration":839461,"Delta":277968030},{"NoteNumber":44,"Velocity":68,"Duration":162377,"SoundDuration":162377,"Delta":277968030},{"NoteNumber":56,"Velocity":68,"Duration":162377,"SoundDuration":162377,"Delta":277968030},{"NoteNumber":48,"Velocity":68,"Duration":156250,"SoundDuration":156250,"Delta":278182491},{"NoteNumber":60,"Velocity":68,"Duration":156250,"SoundDuration":156250,"Delta":278182491},{"NoteNumber":50,"Velocity":68,"Duration":156250,"SoundDuration":156250,"Delta":278390824},{"NoteNumber":62,"Velocity":68,"Duration":156250,"SoundDuration":156250,"Delta":278390824},{"NoteNumber":52,"Velocity":68,"Duration":156250,"SoundDuration":156250,"Delta":278599158},{"NoteNumber":64,"Velocity":68,"Duration":156250,"SoundDuration":156250,"Delta":278599158},{"NoteNumber":77,"Velocity":73,"Duration":110974,"SoundDuration":110974,"Delta":278807491},{"NoteNumber":53,"Velocity":75,"Duration":435838,"SoundDuration":435838,"Delta":278807491},{"NoteNumber":65,"Velocity":75,"Duration":435838,"SoundDuration":435838,"Delta":278807491},{"NoteNumber":79,"Velocity":74,"Duration":110429,"SoundDuration":110429,"Delta":278918466},{"NoteNumber":77,"Velocity":75,"Duration":109756,"SoundDuration":109756,"Delta":279028895},{"NoteNumber":79,"Velocity":76,"Duration":109223,"SoundDuration":109223,"Delta":279138652},{"NoteNumber":80,"Velocity":77,"Duration":108564,"SoundDuration":108564,"Delta":279247875},{"NoteNumber":65,"Velocity":70,"Duration":108564,"SoundDuration":108564,"Delta":279247875},{"NoteNumber":53,"Velocity":70,"Duration":108564,"SoundDuration":108564,"Delta":279247875},{"NoteNumber":82,"Velocity":78,"Duration":108043,"SoundDuration":108043,"Delta":279356440},{"NoteNumber":80,"Velocity":79,"Duration":107398,"SoundDuration":107398,"Delta":279464484},{"NoteNumber":53,"Velocity":70,"Duration":107398,"SoundDuration":107398,"Delta":279464484},{"NoteNumber":65,"Velocity":70,"Duration":107398,"SoundDuration":107398,"Delta":279464484},{"NoteNumber":82,"Velocity":80,"Duration":106888,"SoundDuration":106888,"Delta":279571883},{"NoteNumber":84,"Velocity":81,"Duration":106761,"SoundDuration":106761,"Delta":279678771},{"NoteNumber":65,"Velocity":73,"Duration":422597,"SoundDuration":422597,"Delta":279678771},{"NoteNumber":53,"Velocity":73,"Duration":422597,"SoundDuration":422597,"Delta":279678771},{"NoteNumber":86,"Velocity":82,"Duration":106761,"SoundDuration":106761,"Delta":279785533},{"NoteNumber":84,"Velocity":84,"Duration":106761,"SoundDuration":106761,"Delta":279892294},{"NoteNumber":86,"Velocity":85,"Duration":106761,"SoundDuration":106761,"Delta":279999056},{"NoteNumber":87,"Velocity":86,"Duration":106761,"SoundDuration":106761,"Delta":280105817},{"NoteNumber":65,"Velocity":70,"Duration":106761,"SoundDuration":106761,"Delta":280105817},{"NoteNumber":53,"Velocity":70,"Duration":106761,"SoundDuration":106761,"Delta":280105817},{"NoteNumber":89,"Velocity":87,"Duration":106761,"SoundDuration":106761,"Delta":280212579},{"NoteNumber":87,"Velocity":88,"Duration":106761,"SoundDuration":106761,"Delta":280319340},{"NoteNumber":65,"Velocity":70,"Duration":426288,"SoundDuration":426288,"Delta":280319340},{"NoteNumber":53,"Velocity":70,"Duration":426288,"SoundDuration":426288,"Delta":280319340},{"NoteNumber":89,"Velocity":89,"Duration":106761,"SoundDuration":106761,"Delta":280426102},{"NoteNumber":79,"Velocity":90,"Duration":845539,"SoundDuration":845539,"Delta":280532863},{"NoteNumber":91,"Velocity":90,"Duration":845539,"SoundDuration":845539,"Delta":280532863},{"NoteNumber":51,"Velocity":70,"Duration":78125,"SoundDuration":78125,"Delta":280745629},{"NoteNumber":63,"Velocity":70,"Duration":78125,"SoundDuration":78125,"Delta":280745629},{"NoteNumber":50,"Velocity":70,"Duration":78125,"SoundDuration":78125,"Delta":280849796},{"NoteNumber":62,"Velocity":70,"Duration":78125,"SoundDuration":78125,"Delta":280849796},{"NoteNumber":51,"Velocity":73,"Duration":104166,"SoundDuration":104166,"Delta":280953963},{"NoteNumber":63,"Velocity":73,"Duration":104166,"SoundDuration":104166,"Delta":280953963},{"NoteNumber":39,"Velocity":67,"Duration":160136,"SoundDuration":160136,"Delta":281162296},{"NoteNumber":51,"Velocity":67,"Duration":160136,"SoundDuration":160136,"Delta":281162296},{"NoteNumber":67,"Velocity":77,"Duration":839461,"SoundDuration":839461,"Delta":281378403},{"NoteNumber":79,"Velocity":77,"Duration":839461,"SoundDuration":839461,"Delta":281378403},{"NoteNumber":43,"Velocity":68,"Duration":162377,"SoundDuration":162377,"Delta":281378403},{"NoteNumber":55,"Velocity":68,"Duration":162377,"SoundDuration":162377,"Delta":281378403},{"NoteNumber":46,"Velocity":68,"Duration":156250,"SoundDuration":156250,"Delta":281592864},{"NoteNumber":58,"Velocity":68,"Duration":156250,"SoundDuration":156250,"Delta":281592864},{"NoteNumber":48,"Velocity":68,"Duration":156250,"SoundDuration":156250,"Delta":281801198},{"NoteNumber":60,"Velocity":68,"Duration":156250,"SoundDuration":156250,"Delta":281801198},{"NoteNumber":50,"Velocity":68,"Duration":156250,"SoundDuration":156250,"Delta":282009531},{"NoteNumber":62,"Velocity":68,"Duration":156250,"SoundDuration":156250,"Delta":282009531},{"NoteNumber":75,"Velocity":73,"Duration":110974,"SoundDuration":110974,"Delta":282217865},{"NoteNumber":51,"Velocity":75,"Duration":435838,"SoundDuration":435838,"Delta":282217865},{"NoteNumber":63,"Velocity":75,"Duration":435838,"SoundDuration":435838,"Delta":282217865},{"NoteNumber":77,"Velocity":74,"Duration":110429,"SoundDuration":110429,"Delta":282328839},{"NoteNumber":75,"Velocity":75,"Duration":109756,"SoundDuration":109756,"Delta":282439269},{"NoteNumber":77,"Velocity":76,"Duration":109223,"SoundDuration":109223,"Delta":282549025},{"NoteNumber":79,"Velocity":77,"Duration":108564,"SoundDuration":108564,"Delta":282658249},{"NoteNumber":63,"Velocity":70,"Duration":108564,"SoundDuration":108564,"Delta":282658249},{"NoteNumber":51,"Velocity":70,"Duration":108564,"SoundDuration":108564,"Delta":282658249},{"NoteNumber":80,"Velocity":78,"Duration":108043,"SoundDuration":108043,"Delta":282766814},{"NoteNumber":79,"Velocity":79,"Duration":107398,"SoundDuration":107398,"Delta":282874857},{"NoteNumber":51,"Velocity":70,"Duration":107398,"SoundDuration":107398,"Delta":282874857},{"NoteNumber":63,"Velocity":70,"Duration":107398,"SoundDuration":107398,"Delta":282874857},{"NoteNumber":80,"Velocity":80,"Duration":106888,"SoundDuration":106888,"Delta":282982256},{"NoteNumber":82,"Velocity":81,"Duration":106761,"SoundDuration":106761,"Delta":283089145},{"NoteNumber":63,"Velocity":73,"Duration":422597,"SoundDuration":422597,"Delta":283089145},{"NoteNumber":51,"Velocity":73,"Duration":422597,"SoundDuration":422597,"Delta":283089145},{"NoteNumber":84,"Velocity":82,"Duration":106761,"SoundDuration":106761,"Delta":283195906},{"NoteNumber":82,"Velocity":84,"Duration":106761,"SoundDuration":106761,"Delta":283302668},{"NoteNumber":84,"Velocity":85,"Duration":106761,"SoundDuration":106761,"Delta":283409429},{"NoteNumber":86,"Velocity":86,"Duration":106761,"SoundDuration":106761,"Delta":283516191},{"NoteNumber":63,"Velocity":70,"Duration":106761,"SoundDuration":106761,"Delta":283516191},{"NoteNumber":51,"Velocity":70,"Duration":106761,"SoundDuration":106761,"Delta":283516191},{"NoteNumber":87,"Velocity":87,"Duration":106761,"SoundDuration":106761,"Delta":283622952},{"NoteNumber":86,"Velocity":88,"Duration":106761,"SoundDuration":106761,"Delta":283729714},{"NoteNumber":63,"Velocity":70,"Duration":426288,"SoundDuration":426288,"Delta":283729714},{"NoteNumber":51,"Velocity":70,"Duration":426288,"SoundDuration":426288,"Delta":283729714},{"NoteNumber":87,"Velocity":89,"Duration":106761,"SoundDuration":106761,"Delta":283836475},{"NoteNumber":77,"Velocity":90,"Duration":845539,"SoundDuration":845539,"Delta":283943237},{"NoteNumber":89,"Velocity":90,"Duration":845539,"SoundDuration":845539,"Delta":283943237},{"NoteNumber":49,"Velocity":70,"Duration":78125,"SoundDuration":78125,"Delta":284156003},{"NoteNumber":61,"Velocity":70,"Duration":78125,"SoundDuration":78125,"Delta":284156003},{"NoteNumber":48,"Velocity":70,"Duration":78125,"SoundDuration":78125,"Delta":284260169},{"NoteNumber":60,"Velocity":70,"Duration":78125,"SoundDuration":78125,"Delta":284260169},{"NoteNumber":49,"Velocity":73,"Duration":104166,"SoundDuration":104166,"Delta":284364336},{"NoteNumber":61,"Velocity":73,"Duration":104166,"SoundDuration":104166,"Delta":284364336},{"NoteNumber":49,"Velocity":67,"Duration":160136,"SoundDuration":160136,"Delta":284572670},{"NoteNumber":61,"Velocity":67,"Duration":160136,"SoundDuration":160136,"Delta":284572670},{"NoteNumber":65,"Velocity":77,"Duration":839461,"SoundDuration":839461,"Delta":284788777},{"NoteNumber":77,"Velocity":77,"Duration":839461,"SoundDuration":839461,"Delta":284788777},{"NoteNumber":44,"Velocity":68,"Duration":162377,"SoundDuration":162377,"Delta":284788777},{"NoteNumber":56,"Velocity":68,"Duration":162377,"SoundDuration":162377,"Delta":284788777},{"NoteNumber":41,"Velocity":68,"Duration":156250,"SoundDuration":156250,"Delta":285003237},{"NoteNumber":53,"Velocity":68,"Duration":156250,"SoundDuration":156250,"Delta":285003237},{"NoteNumber":44,"Velocity":68,"Duration":156250,"SoundDuration":156250,"Delta":285211571},{"NoteNumber":56,"Velocity":68,"Duration":156250,"SoundDuration":156250,"Delta":285211571},{"NoteNumber":49,"Velocity":68,"Duration":421099,"SoundDuration":421099,"Delta":285419904},{"NoteNumber":61,"Velocity":68,"Duration":421099,"SoundDuration":421099,"Delta":285419904},{"NoteNumber":75,"Velocity":90,"Duration":845539,"SoundDuration":845539,"Delta":285628238},{"NoteNumber":87,"Velocity":90,"Duration":845539,"SoundDuration":845539,"Delta":285628238},{"NoteNumber":48,"Velocity":70,"Duration":78125,"SoundDuration":78125,"Delta":285841004},{"NoteNumber":60,"Velocity":70,"Duration":78125,"SoundDuration":78125,"Delta":285841004},{"NoteNumber":47,"Velocity":70,"Duration":78125,"SoundDuration":78125,"Delta":285945171},{"NoteNumber":59,"Velocity":70,"Duration":78125,"SoundDuration":78125,"Delta":285945171},{"NoteNumber":48,"Velocity":73,"Duration":104166,"SoundDuration":104166,"Delta":286049337},{"NoteNumber":60,"Velocity":73,"Duration":104166,"SoundDuration":104166,"Delta":286049337},{"NoteNumber":48,"Velocity":67,"Duration":160136,"SoundDuration":160136,"Delta":286257671},{"NoteNumber":60,"Velocity":67,"Duration":160136,"SoundDuration":160136,"Delta":286257671},{"NoteNumber":63,"Velocity":77,"Duration":839461,"SoundDuration":839461,"Delta":286473778},{"NoteNumber":75,"Velocity":77,"Duration":839461,"SoundDuration":839461,"Delta":286473778},{"NoteNumber":43,"Velocity":68,"Duration":162377,"SoundDuration":162377,"Delta":286473778},{"NoteNumber":55,"Velocity":68,"Duration":162377,"SoundDuration":162377,"Delta":286473778},{"NoteNumber":39,"Velocity":68,"Duration":156250,"SoundDuration":156250,"Delta":286688239},{"NoteNumber":51,"Velocity":68,"Duration":156250,"SoundDuration":156250,"Delta":286688239},{"NoteNumber":43,"Velocity":68,"Duration":156250,"SoundDuration":156250,"Delta":286896572},{"NoteNumber":55,"Velocity":68,"Duration":156250,"SoundDuration":156250,"Delta":286896572},{"NoteNumber":48,"Velocity":68,"Duration":415945,"SoundDuration":415945,"Delta":287104906},{"NoteNumber":60,"Velocity":68,"Duration":415945,"SoundDuration":415945,"Delta":287104906},{"NoteNumber":73,"Velocity":76,"Duration":311779,"SoundDuration":311779,"Delta":287313239},{"NoteNumber":85,"Velocity":90,"Duration":311779,"SoundDuration":311779,"Delta":287313239},{"NoteNumber":46,"Velocity":52,"Duration":78125,"SoundDuration":78125,"Delta":287520852},{"NoteNumber":58,"Velocity":61,"Duration":78125,"SoundDuration":78125,"Delta":287520852},{"NoteNumber":61,"Velocity":67,"Duration":98958,"SoundDuration":98958,"Delta":287625018},{"NoteNumber":73,"Velocity":79,"Duration":98958,"SoundDuration":98958,"Delta":287625018},{"NoteNumber":45,"Velocity":53,"Duration":78125,"SoundDuration":78125,"Delta":287625018},{"NoteNumber":57,"Velocity":63,"Duration":78125,"SoundDuration":78125,"Delta":287625018},{"NoteNumber":61,"Velocity":67,"Duration":424440,"SoundDuration":424440,"Delta":287729185},{"NoteNumber":73,"Velocity":79,"Duration":424440,"SoundDuration":424440,"Delta":287729185},{"NoteNumber":46,"Velocity":58,"Duration":104166,"SoundDuration":104166,"Delta":287729185},{"NoteNumber":58,"Velocity":69,"Duration":104166,"SoundDuration":104166,"Delta":287729185},{"NoteNumber":34,"Velocity":51,"Duration":160136,"SoundDuration":160136,"Delta":287937519},{"NoteNumber":46,"Velocity":60,"Duration":160136,"SoundDuration":160136,"Delta":287937519},{"NoteNumber":72,"Velocity":76,"Duration":311779,"SoundDuration":311779,"Delta":288153626},{"NoteNumber":84,"Velocity":90,"Duration":311779,"SoundDuration":311779,"Delta":288153626},{"NoteNumber":46,"Velocity":68,"Duration":103806,"SoundDuration":103806,"Delta":288153626},{"NoteNumber":58,"Velocity":68,"Duration":103806,"SoundDuration":103806,"Delta":288153626},{"NoteNumber":44,"Velocity":52,"Duration":78125,"SoundDuration":78125,"Delta":288361238},{"NoteNumber":56,"Velocity":61,"Duration":78125,"SoundDuration":78125,"Delta":288361238},{"NoteNumber":60,"Velocity":67,"Duration":98958,"SoundDuration":98958,"Delta":288465405},{"NoteNumber":72,"Velocity":79,"Duration":98958,"SoundDuration":98958,"Delta":288465405},{"NoteNumber":43,"Velocity":53,"Duration":78125,"SoundDuration":78125,"Delta":288465405},{"NoteNumber":55,"Velocity":63,"Duration":78125,"SoundDuration":78125,"Delta":288465405},{"NoteNumber":60,"Velocity":67,"Duration":424440,"SoundDuration":424440,"Delta":288569572},{"NoteNumber":72,"Velocity":79,"Duration":424440,"SoundDuration":424440,"Delta":288569572},{"NoteNumber":44,"Velocity":58,"Duration":104166,"SoundDuration":104166,"Delta":288569572},{"NoteNumber":56,"Velocity":69,"Duration":104166,"SoundDuration":104166,"Delta":288569572},{"NoteNumber":32,"Velocity":51,"Duration":160136,"SoundDuration":160136,"Delta":288777905},{"NoteNumber":44,"Velocity":60,"Duration":160136,"SoundDuration":160136,"Delta":288777905},{"NoteNumber":70,"Velocity":76,"Duration":312500,"SoundDuration":312500,"Delta":288994012},{"NoteNumber":82,"Velocity":90,"Duration":312500,"SoundDuration":312500,"Delta":288994012},{"NoteNumber":44,"Velocity":68,"Duration":104166,"SoundDuration":104166,"Delta":288994012},{"NoteNumber":56,"Velocity":68,"Duration":104166,"SoundDuration":104166,"Delta":288994012},{"NoteNumber":43,"Velocity":52,"Duration":78125,"SoundDuration":78125,"Delta":289202346},{"NoteNumber":55,"Velocity":61,"Duration":78125,"SoundDuration":78125,"Delta":289202346},{"NoteNumber":58,"Velocity":67,"Duration":98958,"SoundDuration":98958,"Delta":289306512},{"NoteNumber":70,"Velocity":79,"Duration":98958,"SoundDuration":98958,"Delta":289306512},{"NoteNumber":42,"Velocity":53,"Duration":78125,"SoundDuration":78125,"Delta":289306512},{"NoteNumber":54,"Velocity":63,"Duration":78125,"SoundDuration":78125,"Delta":289306512},{"NoteNumber":58,"Velocity":67,"Duration":424440,"SoundDuration":424440,"Delta":289410679},{"NoteNumber":70,"Velocity":79,"Duration":424440,"SoundDuration":424440,"Delta":289410679},{"NoteNumber":43,"Velocity":58,"Duration":104166,"SoundDuration":104166,"Delta":289410679},{"NoteNumber":55,"Velocity":69,"Duration":104166,"SoundDuration":104166,"Delta":289410679},{"NoteNumber":31,"Velocity":51,"Duration":160136,"SoundDuration":160136,"Delta":289619013},{"NoteNumber":43,"Velocity":60,"Duration":160136,"SoundDuration":160136,"Delta":289619013},{"NoteNumber":75,"Velocity":76,"Duration":321043,"SoundDuration":321043,"Delta":289835120},{"NoteNumber":72,"Velocity":76,"Duration":321043,"SoundDuration":321043,"Delta":289835120},{"NoteNumber":68,"Velocity":76,"Duration":321043,"SoundDuration":321043,"Delta":289835120},{"NoteNumber":80,"Velocity":90,"Duration":321043,"SoundDuration":321043,"Delta":289835120},{"NoteNumber":43,"Velocity":68,"Duration":107913,"SoundDuration":107913,"Delta":289835120},{"NoteNumber":55,"Velocity":68,"Duration":107913,"SoundDuration":107913,"Delta":289835120},{"NoteNumber":41,"Velocity":52,"Duration":80935,"SoundDuration":80935,"Delta":290050947},{"NoteNumber":53,"Velocity":61,"Duration":80935,"SoundDuration":80935,"Delta":290050947},{"NoteNumber":63,"Velocity":67,"Duration":102518,"SoundDuration":102518,"Delta":290158861},{"NoteNumber":60,"Velocity":67,"Duration":102518,"SoundDuration":102518,"Delta":290158861},{"NoteNumber":56,"Velocity":67,"Duration":102518,"SoundDuration":102518,"Delta":290158861},{"NoteNumber":68,"Velocity":79,"Duration":102518,"SoundDuration":102518,"Delta":290158861},{"NoteNumber":40,"Velocity":53,"Duration":80935,"SoundDuration":80935,"Delta":290158861},{"NoteNumber":52,"Velocity":63,"Duration":80935,"SoundDuration":80935,"Delta":290158861},{"NoteNumber":63,"Velocity":67,"Duration":446194,"SoundDuration":446194,"Delta":290266775},{"NoteNumber":60,"Velocity":67,"Duration":446194,"SoundDuration":446194,"Delta":290266775},{"NoteNumber":56,"Velocity":67,"Duration":446194,"SoundDuration":446194,"Delta":290266775},{"NoteNumber":68,"Velocity":79,"Duration":446194,"SoundDuration":446194,"Delta":290266775},{"NoteNumber":41,"Velocity":58,"Duration":109890,"SoundDuration":109890,"Delta":290266775},{"NoteNumber":53,"Velocity":69,"Duration":109890,"SoundDuration":109890,"Delta":290266775},{"NoteNumber":42,"Velocity":64,"Duration":113207,"SoundDuration":113207,"Delta":290486555},{"NoteNumber":54,"Velocity":68,"Duration":113207,"SoundDuration":113207,"Delta":290486555},{"NoteNumber":59,"Velocity":73,"Duration":451858,"SoundDuration":451858,"Delta":290712970},{"NoteNumber":62,"Velocity":73,"Duration":451858,"SoundDuration":451858,"Delta":290712970},{"NoteNumber":67,"Velocity":87,"Duration":451858,"SoundDuration":451858,"Delta":290712970},{"NoteNumber":43,"Velocity":58,"Duration":447263,"SoundDuration":447263,"Delta":290712970},{"NoteNumber":47,"Velocity":58,"Duration":447263,"SoundDuration":447263,"Delta":290712970},{"NoteNumber":50,"Velocity":58,"Duration":447263,"SoundDuration":447263,"Delta":290712970},{"NoteNumber":55,"Velocity":69,"Duration":447263,"SoundDuration":447263,"Delta":290712970},{"NoteNumber":62,"Velocity":66,"Duration":82518,"SoundDuration":82518,"Delta":291164828},{"NoteNumber":74,"Velocity":78,"Duration":82518,"SoundDuration":82518,"Delta":291164828},{"NoteNumber":43,"Velocity":55,"Duration":207980,"SoundDuration":207980,"Delta":291164828},{"NoteNumber":47,"Velocity":55,"Duration":207980,"SoundDuration":207980,"Delta":291164828},{"NoteNumber":50,"Velocity":55,"Duration":207980,"SoundDuration":207980,"Delta":291164828},{"NoteNumber":55,"Velocity":66,"Duration":207980,"SoundDuration":207980,"Delta":291164828},{"NoteNumber":63,"Velocity":68,"Duration":81785,"SoundDuration":81785,"Delta":291274719},{"NoteNumber":75,"Velocity":80,"Duration":81785,"SoundDuration":81785,"Delta":291274719},{"NoteNumber":65,"Velocity":70,"Duration":81065,"SoundDuration":81065,"Delta":291383679},{"NoteNumber":77,"Velocity":82,"Duration":81065,"SoundDuration":81065,"Delta":291383679},{"NoteNumber":43,"Velocity":55,"Duration":204511,"SoundDuration":204511,"Delta":291383679},{"NoteNumber":47,"Velocity":55,"Duration":204511,"SoundDuration":204511,"Delta":291383679},{"NoteNumber":50,"Velocity":55,"Duration":204511,"SoundDuration":204511,"Delta":291383679},{"NoteNumber":55,"Velocity":66,"Duration":204511,"SoundDuration":204511,"Delta":291383679},{"NoteNumber":67,"Velocity":72,"Duration":80453,"SoundDuration":80453,"Delta":291491722},{"NoteNumber":79,"Velocity":86,"Duration":80453,"SoundDuration":80453,"Delta":291491722},{"NoteNumber":68,"Velocity":74,"Duration":436580,"SoundDuration":436580,"Delta":291598866},{"NoteNumber":80,"Velocity":88,"Duration":436580,"SoundDuration":436580,"Delta":291598866},{"NoteNumber":36,"Velocity":58,"Duration":436580,"SoundDuration":436580,"Delta":291598866},{"NoteNumber":39,"Velocity":58,"Duration":436580,"SoundDuration":436580,"Delta":291598866},{"NoteNumber":44,"Velocity":58,"Duration":436580,"SoundDuration":436580,"Delta":291598866},{"NoteNumber":48,"Velocity":69,"Duration":436580,"SoundDuration":436580,"Delta":291598866},{"NoteNumber":72,"Velocity":68,"Duration":222224,"SoundDuration":222224,"Delta":292040042},{"NoteNumber":75,"Velocity":68,"Duration":222224,"SoundDuration":222224,"Delta":292040042},{"NoteNumber":80,"Velocity":80,"Duration":222224,"SoundDuration":222224,"Delta":292040042},{"NoteNumber":36,"Velocity":57,"Duration":83608,"SoundDuration":83608,"Delta":292040042},{"NoteNumber":48,"Velocity":68,"Duration":83608,"SoundDuration":83608,"Delta":292040042},{"NoteNumber":38,"Velocity":60,"Duration":83162,"SoundDuration":83162,"Delta":292151429},{"NoteNumber":50,"Velocity":72,"Duration":83162,"SoundDuration":83162,"Delta":292151429},{"NoteNumber":72,"Velocity":66,"Duration":228736,"SoundDuration":228736,"Delta":292262266},{"NoteNumber":75,"Velocity":66,"Duration":228736,"SoundDuration":228736,"Delta":292262266},{"NoteNumber":80,"Velocity":78,"Duration":228736,"SoundDuration":228736,"Delta":292262266},{"NoteNumber":39,"Velocity":63,"Duration":82686,"SoundDuration":82686,"Delta":292262266},{"NoteNumber":51,"Velocity":75,"Duration":82686,"SoundDuration":82686,"Delta":292262266},{"NoteNumber":41,"Velocity":67,"Duration":88932,"SoundDuration":88932,"Delta":292372426},{"NoteNumber":53,"Velocity":78,"Duration":88932,"SoundDuration":88932,"Delta":292372426},{"NoteNumber":71,"Velocity":73,"Duration":448835,"SoundDuration":448835,"Delta":292491003},{"NoteNumber":74,"Velocity":73,"Duration":448835,"SoundDuration":448835,"Delta":292491003},{"NoteNumber":79,"Velocity":87,"Duration":448835,"SoundDuration":448835,"Delta":292491003},{"NoteNumber":43,"Velocity":58,"Duration":448835,"SoundDuration":448835,"Delta":292491003},{"NoteNumber":55,"Velocity":69,"Duration":448835,"SoundDuration":448835,"Delta":292491003},{"NoteNumber":74,"Velocity":66,"Duration":82518,"SoundDuration":82518,"Delta":292944433},{"NoteNumber":86,"Velocity":78,"Duration":82518,"SoundDuration":82518,"Delta":292944433},{"NoteNumber":55,"Velocity":55,"Duration":207980,"SoundDuration":207980,"Delta":292944433},{"NoteNumber":59,"Velocity":55,"Duration":207980,"SoundDuration":207980,"Delta":292944433},{"NoteNumber":62,"Velocity":55,"Duration":207980,"SoundDuration":207980,"Delta":292944433},{"NoteNumber":67,"Velocity":66,"Duration":207980,"SoundDuration":207980,"Delta":292944433},{"NoteNumber":75,"Velocity":68,"Duration":81785,"SoundDuration":81785,"Delta":293054324},{"NoteNumber":87,"Velocity":80,"Duration":81785,"SoundDuration":81785,"Delta":293054324},{"NoteNumber":77,"Velocity":70,"Duration":81065,"SoundDuration":81065,"Delta":293163284},{"NoteNumber":89,"Velocity":82,"Duration":81065,"SoundDuration":81065,"Delta":293163284},{"NoteNumber":55,"Velocity":55,"Duration":204511,"SoundDuration":204511,"Delta":293163284},{"NoteNumber":59,"Velocity":55,"Duration":204511,"SoundDuration":204511,"Delta":293163284},{"NoteNumber":62,"Velocity":55,"Duration":204511,"SoundDuration":204511,"Delta":293163284},{"NoteNumber":67,"Velocity":66,"Duration":204511,"SoundDuration":204511,"Delta":293163284},{"NoteNumber":79,"Velocity":72,"Duration":80453,"SoundDuration":80453,"Delta":293271327},{"NoteNumber":91,"Velocity":86,"Duration":80453,"SoundDuration":80453,"Delta":293271327},{"NoteNumber":80,"Velocity":74,"Duration":441175,"SoundDuration":441175,"Delta":293378471},{"NoteNumber":92,"Velocity":88,"Duration":441175,"SoundDuration":441175,"Delta":293378471},{"NoteNumber":48,"Velocity":58,"Duration":441175,"SoundDuration":441175,"Delta":293378471},{"NoteNumber":51,"Velocity":58,"Duration":441175,"SoundDuration":441175,"Delta":293378471},{"NoteNumber":56,"Velocity":58,"Duration":441175,"SoundDuration":441175,"Delta":293378471},{"NoteNumber":60,"Velocity":69,"Duration":441175,"SoundDuration":441175,"Delta":293378471},{"NoteNumber":84,"Velocity":68,"Duration":222224,"SoundDuration":222224,"Delta":293819647},{"NoteNumber":87,"Velocity":68,"Duration":222224,"SoundDuration":222224,"Delta":293819647},{"NoteNumber":92,"Velocity":80,"Duration":222224,"SoundDuration":222224,"Delta":293819647},{"NoteNumber":48,"Velocity":57,"Duration":83608,"SoundDuration":83608,"Delta":293819647},{"NoteNumber":60,"Velocity":68,"Duration":83608,"SoundDuration":83608,"Delta":293819647},{"NoteNumber":50,"Velocity":60,"Duration":83162,"SoundDuration":83162,"Delta":293931034},{"NoteNumber":62,"Velocity":72,"Duration":83162,"SoundDuration":83162,"Delta":293931034},{"NoteNumber":84,"Velocity":66,"Duration":227595,"SoundDuration":227595,"Delta":294041871},{"NoteNumber":87,"Velocity":66,"Duration":227595,"SoundDuration":227595,"Delta":294041871},{"NoteNumber":92,"Velocity":78,"Duration":227595,"SoundDuration":227595,"Delta":294041871},{"NoteNumber":51,"Velocity":63,"Duration":82686,"SoundDuration":82686,"Delta":294041871},{"NoteNumber":63,"Velocity":75,"Duration":82686,"SoundDuration":82686,"Delta":294041871},{"NoteNumber":53,"Velocity":67,"Duration":88582,"SoundDuration":88582,"Delta":294152031},{"NoteNumber":65,"Velocity":78,"Duration":88582,"SoundDuration":88582,"Delta":294152031},{"NoteNumber":74,"Velocity":66,"Duration":85335,"SoundDuration":85335,"Delta":294269467},{"NoteNumber":86,"Velocity":78,"Duration":85335,"SoundDuration":85335,"Delta":294269467},{"NoteNumber":55,"Velocity":55,"Duration":460267,"SoundDuration":460267,"Delta":294269467},{"NoteNumber":59,"Velocity":55,"Duration":460267,"SoundDuration":460267,"Delta":294269467},{"NoteNumber":62,"Velocity":55,"Duration":460267,"SoundDuration":460267,"Delta":294269467},{"NoteNumber":67,"Velocity":66,"Duration":460267,"SoundDuration":460267,"Delta":294269467},{"NoteNumber":75,"Velocity":68,"Duration":84375,"SoundDuration":84375,"Delta":294383105},{"NoteNumber":87,"Velocity":80,"Duration":84375,"SoundDuration":84375,"Delta":294383105},{"NoteNumber":77,"Velocity":70,"Duration":83609,"SoundDuration":83609,"Delta":294495465},{"NoteNumber":89,"Velocity":82,"Duration":83609,"SoundDuration":83609,"Delta":294495465},{"NoteNumber":79,"Velocity":72,"Duration":92213,"SoundDuration":92213,"Delta":294606784},{"NoteNumber":91,"Velocity":86,"Duration":92213,"SoundDuration":92213,"Delta":294606784},{"NoteNumber":87,"Velocity":74,"Duration":459684,"SoundDuration":459684,"Delta":294729735},{"NoteNumber":84,"Velocity":74,"Duration":459684,"SoundDuration":459684,"Delta":294729735},{"NoteNumber":80,"Velocity":74,"Duration":459684,"SoundDuration":459684,"Delta":294729735},{"NoteNumber":92,"Velocity":88,"Duration":459684,"SoundDuration":459684,"Delta":294729735},{"NoteNumber":48,"Velocity":57,"Duration":85443,"SoundDuration":85443,"Delta":294729735},{"NoteNumber":60,"Velocity":68,"Duration":85443,"SoundDuration":85443,"Delta":294729735},{"NoteNumber":50,"Velocity":60,"Duration":84693,"SoundDuration":84693,"Delta":294843515},{"NoteNumber":62,"Velocity":72,"Duration":84693,"SoundDuration":84693,"Delta":294843515},{"NoteNumber":51,"Velocity":63,"Duration":83851,"SoundDuration":83851,"Delta":294956298},{"NoteNumber":63,"Velocity":75,"Duration":83851,"SoundDuration":83851,"Delta":294956298},{"NoteNumber":53,"Velocity":67,"Duration":91093,"SoundDuration":91093,"Delta":295067962},{"NoteNumber":65,"Velocity":78,"Duration":91093,"SoundDuration":91093,"Delta":295067962},{"NoteNumber":74,"Velocity":66,"Duration":85013,"SoundDuration":85013,"Delta":295189419},{"NoteNumber":86,"Velocity":78,"Duration":85013,"SoundDuration":85013,"Delta":295189419},{"NoteNumber":55,"Velocity":55,"Duration":456819,"SoundDuration":456819,"Delta":295189419},{"NoteNumber":59,"Velocity":55,"Duration":456819,"SoundDuration":456819,"Delta":295189419},{"NoteNumber":62,"Velocity":55,"Duration":456819,"SoundDuration":456819,"Delta":295189419},{"NoteNumber":67,"Velocity":66,"Duration":456819,"SoundDuration":456819,"Delta":295189419},{"NoteNumber":75,"Velocity":68,"Duration":84060,"SoundDuration":84060,"Delta":295302628},{"NoteNumber":87,"Velocity":80,"Duration":84060,"SoundDuration":84060,"Delta":295302628},{"NoteNumber":77,"Velocity":70,"Duration":83128,"SoundDuration":83128,"Delta":295414569},{"NoteNumber":89,"Velocity":82,"Duration":83128,"SoundDuration":83128,"Delta":295414569},{"NoteNumber":79,"Velocity":72,"Duration":90725,"SoundDuration":90725,"Delta":295525271},{"NoteNumber":91,"Velocity":86,"Duration":90725,"SoundDuration":90725,"Delta":295525271},{"NoteNumber":87,"Velocity":74,"Duration":457999,"SoundDuration":457999,"Delta":295646239},{"NoteNumber":84,"Velocity":74,"Duration":457999,"SoundDuration":457999,"Delta":295646239},{"NoteNumber":80,"Velocity":74,"Duration":457999,"SoundDuration":457999,"Delta":295646239},{"NoteNumber":92,"Velocity":88,"Duration":457999,"SoundDuration":457999,"Delta":295646239},{"NoteNumber":48,"Velocity":57,"Duration":84799,"SoundDuration":84799,"Delta":295646239},{"NoteNumber":60,"Velocity":68,"Duration":84799,"SoundDuration":84799,"Delta":295646239},{"NoteNumber":50,"Velocity":60,"Duration":84094,"SoundDuration":84094,"Delta":295759234},{"NoteNumber":62,"Velocity":72,"Duration":84094,"SoundDuration":84094,"Delta":295759234},{"NoteNumber":51,"Velocity":63,"Duration":83367,"SoundDuration":83367,"Delta":295871244},{"NoteNumber":63,"Velocity":75,"Duration":83367,"SoundDuration":83367,"Delta":295871244},{"NoteNumber":53,"Velocity":67,"Duration":91463,"SoundDuration":91463,"Delta":295982288},{"NoteNumber":65,"Velocity":78,"Duration":91463,"SoundDuration":91463,"Delta":295982288},{"NoteNumber":74,"Velocity":78,"Duration":85668,"SoundDuration":85668,"Delta":296104239},{"NoteNumber":55,"Velocity":55,"Duration":460600,"SoundDuration":460600,"Delta":296104239},{"NoteNumber":59,"Velocity":55,"Duration":460600,"SoundDuration":460600,"Delta":296104239},{"NoteNumber":62,"Velocity":55,"Duration":460600,"SoundDuration":460600,"Delta":296104239},{"NoteNumber":67,"Velocity":66,"Duration":460600,"SoundDuration":460600,"Delta":296104239},{"NoteNumber":75,"Velocity":80,"Duration":84375,"SoundDuration":84375,"Delta":296218209},{"NoteNumber":77,"Velocity":82,"Duration":83609,"SoundDuration":83609,"Delta":296330570},{"NoteNumber":79,"Velocity":87,"Duration":92213,"SoundDuration":92213,"Delta":296441888},{"NoteNumber":75,"Velocity":76,"Duration":493932,"SoundDuration":493932,"Delta":296564839},{"NoteNumber":72,"Velocity":76,"Duration":493932,"SoundDuration":493932,"Delta":296564839},{"NoteNumber":68,"Velocity":76,"Duration":493932,"SoundDuration":493932,"Delta":296564839},{"NoteNumber":80,"Velocity":90,"Duration":493932,"SoundDuration":493932,"Delta":296564839},{"NoteNumber":36,"Velocity":58,"Duration":90418,"SoundDuration":90418,"Delta":296564839},{"NoteNumber":48,"Velocity":69,"Duration":90418,"SoundDuration":90418,"Delta":296564839},{"NoteNumber":38,"Velocity":63,"Duration":89098,"SoundDuration":89098,"Delta":296685194},{"NoteNumber":50,"Velocity":74,"Duration":89098,"SoundDuration":89098,"Delta":296685194},{"NoteNumber":39,"Velocity":66,"Duration":87754,"SoundDuration":87754,"Delta":296803758},{"NoteNumber":51,"Velocity":78,"Duration":87754,"SoundDuration":87754,"Delta":296803758},{"NoteNumber":41,"Velocity":70,"Duration":103686,"SoundDuration":103686,"Delta":296920522},{"NoteNumber":53,"Velocity":82,"Duration":103686,"SoundDuration":103686,"Delta":296920522},{"NoteNumber":62,"Velocity":70,"Duration":95809,"SoundDuration":95809,"Delta":297058771},{"NoteNumber":74,"Velocity":84,"Duration":95809,"SoundDuration":95809,"Delta":297058771},{"NoteNumber":43,"Velocity":58,"Duration":516916,"SoundDuration":516916,"Delta":297058771},{"NoteNumber":47,"Velocity":58,"Duration":516916,"SoundDuration":516916,"Delta":297058771},{"NoteNumber":50,"Velocity":58,"Duration":516916,"SoundDuration":516916,"Delta":297058771},{"NoteNumber":55,"Velocity":70,"Duration":516916,"SoundDuration":516916,"Delta":297058771},{"NoteNumber":63,"Velocity":73,"Duration":94204,"SoundDuration":94204,"Delta":297186235},{"NoteNumber":75,"Velocity":87,"Duration":94204,"SoundDuration":94204,"Delta":297186235},{"NoteNumber":65,"Velocity":76,"Duration":92653,"SoundDuration":92653,"Delta":297311569},{"NoteNumber":77,"Velocity":90,"Duration":92653,"SoundDuration":92653,"Delta":297311569},{"NoteNumber":67,"Velocity":78,"Duration":105633,"SoundDuration":105633,"Delta":297434842},{"NoteNumber":79,"Velocity":94,"Duration":105633,"SoundDuration":105633,"Delta":297434842},{"NoteNumber":75,"Velocity":81,"Duration":569281,"SoundDuration":569281,"Delta":297575687},{"NoteNumber":72,"Velocity":81,"Duration":569281,"SoundDuration":569281,"Delta":297575687},{"NoteNumber":68,"Velocity":81,"Duration":569281,"SoundDuration":569281,"Delta":297575687},{"NoteNumber":80,"Velocity":97,"Duration":569281,"SoundDuration":569281,"Delta":297575687},{"NoteNumber":36,"Velocity":64,"Duration":97077,"SoundDuration":97077,"Delta":297575687},{"NoteNumber":48,"Velocity":75,"Duration":97077,"SoundDuration":97077,"Delta":297575687},{"NoteNumber":38,"Velocity":67,"Duration":99541,"SoundDuration":99541,"Delta":297705507},{"NoteNumber":50,"Velocity":80,"Duration":99541,"SoundDuration":99541,"Delta":297705507},{"NoteNumber":39,"Velocity":70,"Duration":102255,"SoundDuration":102255,"Delta":297838670},{"NoteNumber":51,"Velocity":85,"Duration":102255,"SoundDuration":102255,"Delta":297838670},{"NoteNumber":41,"Velocity":75,"Duration":127118,"SoundDuration":127118,"Delta":297975477},{"NoteNumber":53,"Velocity":89,"Duration":127118,"SoundDuration":127118,"Delta":297975477},{"NoteNumber":67,"Velocity":76,"Duration":475000,"SoundDuration":475000,"Delta":298144968},{"NoteNumber":71,"Velocity":76,"Duration":475000,"SoundDuration":475000,"Delta":298144968},{"NoteNumber":74,"Velocity":85,"Duration":475000,"SoundDuration":475000,"Delta":298144968},{"NoteNumber":79,"Velocity":100,"Duration":475000,"SoundDuration":475000,"Delta":298144968},{"NoteNumber":43,"Velocity":56,"Duration":475000,"SoundDuration":475000,"Delta":298144968},{"NoteNumber":47,"Velocity":56,"Duration":475000,"SoundDuration":475000,"Delta":298144968},{"NoteNumber":50,"Velocity":63,"Duration":475000,"SoundDuration":475000,"Delta":298144968},{"NoteNumber":55,"Velocity":75,"Duration":475000,"SoundDuration":475000,"Delta":298144968},{"NoteNumber":67,"Velocity":50,"Duration":118110,"SoundDuration":118110,"Delta":298624968},{"NoteNumber":67,"Velocity":51,"Duration":122449,"SoundDuration":122449,"Delta":298861189},{"NoteNumber":67,"Velocity":53,"Duration":475000,"SoundDuration":475000,"Delta":299106087},{"NoteNumber":67,"Velocity":50,"Duration":119047,"SoundDuration":119047,"Delta":299586087},{"NoteNumber":67,"Velocity":50,"Duration":121951,"SoundDuration":121951,"Delta":299824182},{"NoteNumber":67,"Velocity":53,"Duration":475000,"SoundDuration":475000,"Delta":300068084},{"NoteNumber":67,"Velocity":50,"Duration":118577,"SoundDuration":118577,"Delta":300548084},{"NoteNumber":67,"Velocity":50,"Duration":121457,"SoundDuration":121457,"Delta":300785238},{"NoteNumber":67,"Velocity":53,"Duration":475000,"SoundDuration":475000,"Delta":301028153},{"NoteNumber":67,"Velocity":49,"Duration":119047,"SoundDuration":119047,"Delta":301508153},{"NoteNumber":67,"Velocity":49,"Duration":120967,"SoundDuration":120967,"Delta":301746248},{"NoteNumber":68,"Velocity":76,"Duration":475000,"SoundDuration":475000,"Delta":301988184},{"NoteNumber":71,"Velocity":76,"Duration":475000,"SoundDuration":475000,"Delta":301988184},{"NoteNumber":74,"Velocity":85,"Duration":475000,"SoundDuration":475000,"Delta":301988184},{"NoteNumber":80,"Velocity":100,"Duration":475000,"SoundDuration":475000,"Delta":301988184},{"NoteNumber":41,"Velocity":56,"Duration":475000,"SoundDuration":475000,"Delta":301988184},{"NoteNumber":47,"Velocity":56,"Duration":475000,"SoundDuration":475000,"Delta":301988184},{"NoteNumber":50,"Velocity":63,"Duration":475000,"SoundDuration":475000,"Delta":301988184},{"NoteNumber":53,"Velocity":75,"Duration":475000,"SoundDuration":475000,"Delta":301988184},{"NoteNumber":68,"Velocity":51,"Duration":119051,"SoundDuration":119051,"Delta":302468184},{"NoteNumber":68,"Velocity":52,"Duration":120967,"SoundDuration":120967,"Delta":302705812},{"NoteNumber":68,"Velocity":53,"Duration":475000,"SoundDuration":475000,"Delta":302947748},{"NoteNumber":68,"Velocity":41,"Duration":57251,"SoundDuration":57251,"Delta":303427748},{"NoteNumber":71,"Velocity":49,"Duration":57251,"SoundDuration":57251,"Delta":303427748},{"NoteNumber":68,"Velocity":42,"Duration":64655,"SoundDuration":64655,"Delta":303656755},{"NoteNumber":71,"Velocity":50,"Duration":64655,"SoundDuration":64655,"Delta":303656755},{"NoteNumber":68,"Velocity":45,"Duration":475000,"SoundDuration":475000,"Delta":303915376},{"NoteNumber":71,"Velocity":53,"Duration":475000,"SoundDuration":475000,"Delta":303915376},{"NoteNumber":68,"Velocity":40,"Duration":58139,"SoundDuration":58139,"Delta":304395376},{"NoteNumber":71,"Velocity":48,"Duration":58139,"SoundDuration":58139,"Delta":304395376},{"NoteNumber":68,"Velocity":40,"Duration":63559,"SoundDuration":63559,"Delta":304627934},{"NoteNumber":71,"Velocity":48,"Duration":63559,"SoundDuration":63559,"Delta":304627934},{"NoteNumber":68,"Velocity":45,"Duration":475000,"SoundDuration":475000,"Delta":304882171},{"NoteNumber":71,"Velocity":53,"Duration":475000,"SoundDuration":475000,"Delta":304882171},{"NoteNumber":68,"Velocity":40,"Duration":57692,"SoundDuration":57692,"Delta":305362171},{"NoteNumber":71,"Velocity":48,"Duration":57692,"SoundDuration":57692,"Delta":305362171},{"NoteNumber":68,"Velocity":40,"Duration":64102,"SoundDuration":64102,"Delta":305592940},{"NoteNumber":71,"Velocity":48,"Duration":64102,"SoundDuration":64102,"Delta":305592940},{"NoteNumber":68,"Velocity":76,"Duration":475000,"SoundDuration":475000,"Delta":305849351},{"NoteNumber":71,"Velocity":76,"Duration":475000,"SoundDuration":475000,"Delta":305849351},{"NoteNumber":73,"Velocity":85,"Duration":475000,"SoundDuration":475000,"Delta":305849351},{"NoteNumber":80,"Velocity":100,"Duration":475000,"SoundDuration":475000,"Delta":305849351},{"NoteNumber":41,"Velocity":56,"Duration":475000,"SoundDuration":475000,"Delta":305849351},{"NoteNumber":47,"Velocity":56,"Duration":475000,"SoundDuration":475000,"Delta":305849351},{"NoteNumber":49,"Velocity":63,"Duration":475000,"SoundDuration":475000,"Delta":305849351},{"NoteNumber":53,"Velocity":75,"Duration":475000,"SoundDuration":475000,"Delta":305849351},{"NoteNumber":68,"Velocity":41,"Duration":58139,"SoundDuration":58139,"Delta":306329351},{"NoteNumber":71,"Velocity":49,"Duration":58139,"SoundDuration":58139,"Delta":306329351},{"NoteNumber":68,"Velocity":41,"Duration":64935,"SoundDuration":64935,"Delta":306561909},{"NoteNumber":71,"Velocity":49,"Duration":64935,"SoundDuration":64935,"Delta":306561909},{"NoteNumber":68,"Velocity":45,"Duration":475000,"SoundDuration":475000,"Delta":306821649},{"NoteNumber":71,"Velocity":45,"Duration":475000,"SoundDuration":475000,"Delta":306821649},{"NoteNumber":73,"Velocity":53,"Duration":475000,"SoundDuration":475000,"Delta":306821649},{"NoteNumber":68,"Velocity":40,"Duration":58365,"SoundDuration":58365,"Delta":307301649},{"NoteNumber":71,"Velocity":40,"Duration":58365,"SoundDuration":58365,"Delta":307301649},{"NoteNumber":73,"Velocity":48,"Duration":58365,"SoundDuration":58365,"Delta":307301649},{"NoteNumber":68,"Velocity":40,"Duration":62500,"SoundDuration":62500,"Delta":307535112},{"NoteNumber":71,"Velocity":40,"Duration":62500,"SoundDuration":62500,"Delta":307535112},{"NoteNumber":73,"Velocity":48,"Duration":62500,"SoundDuration":62500,"Delta":307535112},{"NoteNumber":68,"Velocity":76,"Duration":475000,"SoundDuration":475000,"Delta":307785112},{"NoteNumber":71,"Velocity":76,"Duration":475000,"SoundDuration":475000,"Delta":307785112},{"NoteNumber":74,"Velocity":85,"Duration":475000,"SoundDuration":475000,"Delta":307785112},{"NoteNumber":80,"Velocity":100,"Duration":475000,"SoundDuration":475000,"Delta":307785112},{"NoteNumber":42,"Velocity":56,"Duration":475000,"SoundDuration":475000,"Delta":307785112},{"NoteNumber":47,"Velocity":56,"Duration":475000,"SoundDuration":475000,"Delta":307785112},{"NoteNumber":50,"Velocity":63,"Duration":475000,"SoundDuration":475000,"Delta":307785112},{"NoteNumber":54,"Velocity":75,"Duration":475000,"SoundDuration":475000,"Delta":307785112},{"NoteNumber":68,"Velocity":41,"Duration":58139,"SoundDuration":58139,"Delta":308265112},{"NoteNumber":71,"Velocity":49,"Duration":58139,"SoundDuration":58139,"Delta":308265112},{"NoteNumber":68,"Velocity":41,"Duration":63559,"SoundDuration":63559,"Delta":308497670},{"NoteNumber":71,"Velocity":49,"Duration":63559,"SoundDuration":63559,"Delta":308497670},{"NoteNumber":68,"Velocity":45,"Duration":475000,"SoundDuration":475000,"Delta":308751908},{"NoteNumber":71,"Velocity":45,"Duration":475000,"SoundDuration":475000,"Delta":308751908},{"NoteNumber":74,"Velocity":53,"Duration":475000,"SoundDuration":475000,"Delta":308751908},{"NoteNumber":68,"Velocity":41,"Duration":58365,"SoundDuration":58365,"Delta":309231908},{"NoteNumber":71,"Velocity":41,"Duration":58365,"SoundDuration":58365,"Delta":309231908},{"NoteNumber":74,"Velocity":49,"Duration":58365,"SoundDuration":58365,"Delta":309231908},{"NoteNumber":68,"Velocity":41,"Duration":61728,"SoundDuration":61728,"Delta":309465371},{"NoteNumber":71,"Velocity":41,"Duration":61728,"SoundDuration":61728,"Delta":309465371},{"NoteNumber":74,"Velocity":49,"Duration":61728,"SoundDuration":61728,"Delta":309465371},{"NoteNumber":68,"Velocity":76,"Duration":475000,"SoundDuration":475000,"Delta":309712284},{"NoteNumber":71,"Velocity":76,"Duration":475000,"SoundDuration":475000,"Delta":309712284},{"NoteNumber":73,"Velocity":85,"Duration":475000,"SoundDuration":475000,"Delta":309712284},{"NoteNumber":80,"Velocity":100,"Duration":475000,"SoundDuration":475000,"Delta":309712284},{"NoteNumber":41,"Velocity":56,"Duration":475000,"SoundDuration":475000,"Delta":309712284},{"NoteNumber":44,"Velocity":56,"Duration":475000,"SoundDuration":475000,"Delta":309712284},{"NoteNumber":49,"Velocity":63,"Duration":475000,"SoundDuration":475000,"Delta":309712284},{"NoteNumber":53,"Velocity":75,"Duration":475000,"SoundDuration":475000,"Delta":309712284},{"NoteNumber":68,"Velocity":35,"Duration":58593,"SoundDuration":58593,"Delta":310192284},{"NoteNumber":71,"Velocity":42,"Duration":58593,"SoundDuration":58593,"Delta":310192284},{"NoteNumber":68,"Velocity":35,"Duration":63025,"SoundDuration":63025,"Delta":310426659},{"NoteNumber":71,"Velocity":42,"Duration":63025,"SoundDuration":63025,"Delta":310426659},{"NoteNumber":68,"Velocity":39,"Duration":475000,"SoundDuration":475000,"Delta":310678760},{"NoteNumber":71,"Velocity":39,"Duration":475000,"SoundDuration":475000,"Delta":310678760},{"NoteNumber":73,"Velocity":47,"Duration":475000,"SoundDuration":475000,"Delta":310678760},{"NoteNumber":68,"Velocity":35,"Duration":58593,"SoundDuration":58593,"Delta":311158760},{"NoteNumber":71,"Velocity":35,"Duration":58593,"SoundDuration":58593,"Delta":311158760},{"NoteNumber":73,"Velocity":42,"Duration":58593,"SoundDuration":58593,"Delta":311158760},{"NoteNumber":68,"Velocity":35,"Duration":62761,"SoundDuration":62761,"Delta":311393135},{"NoteNumber":71,"Velocity":35,"Duration":62761,"SoundDuration":62761,"Delta":311393135},{"NoteNumber":73,"Velocity":42,"Duration":62761,"SoundDuration":62761,"Delta":311393135},{"NoteNumber":68,"Velocity":76,"Duration":475000,"SoundDuration":475000,"Delta":311644181},{"NoteNumber":71,"Velocity":76,"Duration":475000,"SoundDuration":475000,"Delta":311644181},{"NoteNumber":74,"Velocity":85,"Duration":475000,"SoundDuration":475000,"Delta":311644181},{"NoteNumber":80,"Velocity":100,"Duration":475000,"SoundDuration":475000,"Delta":311644181},{"NoteNumber":42,"Velocity":56,"Duration":475000,"SoundDuration":475000,"Delta":311644181},{"NoteNumber":47,"Velocity":56,"Duration":475000,"SoundDuration":475000,"Delta":311644181},{"NoteNumber":50,"Velocity":63,"Duration":475000,"SoundDuration":475000,"Delta":311644181},{"NoteNumber":54,"Velocity":75,"Duration":475000,"SoundDuration":475000,"Delta":311644181},{"NoteNumber":68,"Velocity":40,"Duration":58593,"SoundDuration":58593,"Delta":312124181},{"NoteNumber":71,"Velocity":40,"Duration":58593,"SoundDuration":58593,"Delta":312124181},{"NoteNumber":68,"Velocity":40,"Duration":62240,"SoundDuration":62240,"Delta":312358556},{"NoteNumber":71,"Velocity":40,"Duration":62240,"SoundDuration":62240,"Delta":312358556},{"NoteNumber":68,"Velocity":39,"Duration":475000,"SoundDuration":475000,"Delta":312607519},{"NoteNumber":71,"Velocity":39,"Duration":475000,"SoundDuration":475000,"Delta":312607519},{"NoteNumber":74,"Velocity":46,"Duration":475000,"SoundDuration":475000,"Delta":312607519},{"NoteNumber":68,"Velocity":34,"Duration":58823,"SoundDuration":58823,"Delta":313087519},{"NoteNumber":71,"Velocity":34,"Duration":58823,"SoundDuration":58823,"Delta":313087519},{"NoteNumber":74,"Velocity":40,"Duration":58823,"SoundDuration":58823,"Delta":313087519},{"NoteNumber":68,"Velocity":34,"Duration":62240,"SoundDuration":62240,"Delta":313322813},{"NoteNumber":71,"Velocity":34,"Duration":62240,"SoundDuration":62240,"Delta":313322813},{"NoteNumber":74,"Velocity":41,"Duration":62240,"SoundDuration":62240,"Delta":313322813},{"NoteNumber":68,"Velocity":76,"Duration":475000,"SoundDuration":475000,"Delta":313571775},{"NoteNumber":71,"Velocity":76,"Duration":475000,"SoundDuration":475000,"Delta":313571775},{"NoteNumber":74,"Velocity":85,"Duration":475000,"SoundDuration":475000,"Delta":313571775},{"NoteNumber":80,"Velocity":100,"Duration":475000,"SoundDuration":475000,"Delta":313571775},{"NoteNumber":41,"Velocity":56,"Duration":475000,"SoundDuration":475000,"Delta":313571775},{"NoteNumber":47,"Velocity":56,"Duration":475000,"SoundDuration":475000,"Delta":313571775},{"NoteNumber":50,"Velocity":63,"Duration":475000,"SoundDuration":475000,"Delta":313571775},{"NoteNumber":53,"Velocity":75,"Duration":475000,"SoundDuration":475000,"Delta":313571775},{"NoteNumber":71,"Velocity":48,"Duration":58593,"SoundDuration":58593,"Delta":314051775},{"NoteNumber":74,"Velocity":48,"Duration":58593,"SoundDuration":58593,"Delta":314051775},{"NoteNumber":71,"Velocity":48,"Duration":62240,"SoundDuration":62240,"Delta":314286150},{"NoteNumber":74,"Velocity":48,"Duration":62240,"SoundDuration":62240,"Delta":314286150},{"NoteNumber":68,"Velocity":76,"Duration":475000,"SoundDuration":475000,"Delta":314535113},{"NoteNumber":71,"Velocity":76,"Duration":475000,"SoundDuration":475000,"Delta":314535113},{"NoteNumber":73,"Velocity":85,"Duration":475000,"SoundDuration":475000,"Delta":314535113},{"NoteNumber":80,"Velocity":100,"Duration":475000,"SoundDuration":475000,"Delta":314535113},{"NoteNumber":29,"Velocity":56,"Duration":475000,"SoundDuration":475000,"Delta":314535113},{"NoteNumber":41,"Velocity":75,"Duration":475000,"SoundDuration":475000,"Delta":314535113},{"NoteNumber":71,"Velocity":48,"Duration":58593,"SoundDuration":58593,"Delta":315015113},{"NoteNumber":73,"Velocity":48,"Duration":58593,"SoundDuration":58593,"Delta":315015113},{"NoteNumber":71,"Velocity":48,"Duration":62240,"SoundDuration":62240,"Delta":315249488},{"NoteNumber":73,"Velocity":48,"Duration":62240,"SoundDuration":62240,"Delta":315249488},{"NoteNumber":68,"Velocity":71,"Duration":475000,"SoundDuration":475000,"Delta":315498450},{"NoteNumber":71,"Velocity":71,"Duration":475000,"SoundDuration":475000,"Delta":315498450},{"NoteNumber":73,"Velocity":71,"Duration":475000,"SoundDuration":475000,"Delta":315498450},{"NoteNumber":80,"Velocity":85,"Duration":475000,"SoundDuration":475000,"Delta":315498450},{"NoteNumber":30,"Velocity":53,"Duration":475000,"SoundDuration":475000,"Delta":315498450},{"NoteNumber":42,"Velocity":64,"Duration":475000,"SoundDuration":475000,"Delta":315498450},{"NoteNumber":71,"Velocity":48,"Duration":58593,"SoundDuration":58593,"Delta":315978450},{"NoteNumber":73,"Velocity":48,"Duration":58593,"SoundDuration":58593,"Delta":315978450},{"NoteNumber":71,"Velocity":48,"Duration":62240,"SoundDuration":62240,"Delta":316212825},{"NoteNumber":73,"Velocity":48,"Duration":62240,"SoundDuration":62240,"Delta":316212825},{"NoteNumber":66,"Velocity":65,"Duration":475000,"SoundDuration":475000,"Delta":316461788},{"NoteNumber":69,"Velocity":65,"Duration":475000,"SoundDuration":475000,"Delta":316461788},{"NoteNumber":73,"Velocity":65,"Duration":475000,"SoundDuration":475000,"Delta":316461788},{"NoteNumber":78,"Velocity":78,"Duration":475000,"SoundDuration":475000,"Delta":316461788},{"NoteNumber":33,"Velocity":49,"Duration":475000,"SoundDuration":475000,"Delta":316461788},{"NoteNumber":45,"Velocity":59,"Duration":475000,"SoundDuration":475000,"Delta":316461788},{"NoteNumber":69,"Velocity":48,"Duration":58593,"SoundDuration":58593,"Delta":316941788},{"NoteNumber":73,"Velocity":48,"Duration":58593,"SoundDuration":58593,"Delta":316941788},{"NoteNumber":69,"Velocity":48,"Duration":62240,"SoundDuration":62240,"Delta":317176163},{"NoteNumber":73,"Velocity":48,"Duration":62240,"SoundDuration":62240,"Delta":317176163},{"NoteNumber":66,"Velocity":63,"Duration":484693,"SoundDuration":484693,"Delta":317425125},{"NoteNumber":68,"Velocity":63,"Duration":484693,"SoundDuration":484693,"Delta":317425125},{"NoteNumber":73,"Velocity":63,"Duration":484693,"SoundDuration":484693,"Delta":317425125},{"NoteNumber":78,"Velocity":76,"Duration":484693,"SoundDuration":484693,"Delta":317425125},{"NoteNumber":37,"Velocity":47,"Duration":484693,"SoundDuration":484693,"Delta":317425125},{"NoteNumber":49,"Velocity":57,"Duration":484693,"SoundDuration":484693,"Delta":317425125},{"NoteNumber":66,"Velocity":48,"Duration":59760,"SoundDuration":59760,"Delta":317914921},{"NoteNumber":68,"Velocity":48,"Duration":59760,"SoundDuration":59760,"Delta":317914921},{"NoteNumber":66,"Velocity":48,"Duration":64935,"SoundDuration":64935,"Delta":318153965},{"NoteNumber":68,"Velocity":48,"Duration":64935,"SoundDuration":64935,"Delta":318153965},{"NoteNumber":64,"Velocity":61,"Duration":486680,"SoundDuration":486680,"Delta":318413706},{"NoteNumber":68,"Velocity":61,"Duration":486680,"SoundDuration":486680,"Delta":318413706},{"NoteNumber":73,"Velocity":61,"Duration":486680,"SoundDuration":486680,"Delta":318413706},{"NoteNumber":76,"Velocity":73,"Duration":486680,"SoundDuration":486680,"Delta":318413706},{"NoteNumber":40,"Velocity":46,"Duration":486680,"SoundDuration":486680,"Delta":318413706},{"NoteNumber":52,"Velocity":55,"Duration":486680,"SoundDuration":486680,"Delta":318413706},{"NoteNumber":64,"Velocity":48,"Duration":60241,"SoundDuration":60241,"Delta":318905509},{"NoteNumber":68,"Velocity":48,"Duration":60241,"SoundDuration":60241,"Delta":318905509},{"NoteNumber":64,"Velocity":48,"Duration":65789,"SoundDuration":65789,"Delta":319146473},{"NoteNumber":68,"Velocity":48,"Duration":65789,"SoundDuration":65789,"Delta":319146473},{"NoteNumber":63,"Velocity":59,"Duration":494791,"SoundDuration":494791,"Delta":319409631},{"NoteNumber":68,"Velocity":59,"Duration":494791,"SoundDuration":494791,"Delta":319409631},{"NoteNumber":72,"Velocity":59,"Duration":494791,"SoundDuration":494791,"Delta":319409631},{"NoteNumber":75,"Velocity":71,"Duration":494791,"SoundDuration":494791,"Delta":319409631},{"NoteNumber":44,"Velocity":44,"Duration":494791,"SoundDuration":494791,"Delta":319409631},{"NoteNumber":56,"Velocity":53,"Duration":494791,"SoundDuration":494791,"Delta":319409631},{"NoteNumber":63,"Velocity":48,"Duration":61224,"SoundDuration":61224,"Delta":319909631},{"NoteNumber":72,"Velocity":48,"Duration":61224,"SoundDuration":61224,"Delta":319909631},{"NoteNumber":63,"Velocity":48,"Duration":66666,"SoundDuration":66666,"Delta":320154529},{"NoteNumber":72,"Velocity":48,"Duration":66666,"SoundDuration":66666,"Delta":320154529},{"NoteNumber":63,"Velocity":62,"Duration":507479,"SoundDuration":507479,"Delta":320421195},{"NoteNumber":67,"Velocity":62,"Duration":507479,"SoundDuration":507479,"Delta":320421195},{"NoteNumber":73,"Velocity":62,"Duration":507479,"SoundDuration":507479,"Delta":320421195},{"NoteNumber":75,"Velocity":74,"Duration":507479,"SoundDuration":507479,"Delta":320421195},{"NoteNumber":45,"Velocity":47,"Duration":507479,"SoundDuration":507479,"Delta":320421195},{"NoteNumber":57,"Velocity":56,"Duration":507479,"SoundDuration":507479,"Delta":320421195},{"NoteNumber":63,"Velocity":48,"Duration":61224,"SoundDuration":61224,"Delta":320934016},{"NoteNumber":73,"Velocity":48,"Duration":61224,"SoundDuration":61224,"Delta":320934016},{"NoteNumber":63,"Velocity":48,"Duration":66666,"SoundDuration":66666,"Delta":321178914},{"NoteNumber":73,"Velocity":48,"Duration":66666,"SoundDuration":66666,"Delta":321178914},{"NoteNumber":63,"Velocity":59,"Duration":514069,"SoundDuration":514069,"Delta":321445581},{"NoteNumber":68,"Velocity":59,"Duration":514069,"SoundDuration":514069,"Delta":321445581},{"NoteNumber":72,"Velocity":59,"Duration":514069,"SoundDuration":514069,"Delta":321445581},{"NoteNumber":75,"Velocity":71,"Duration":514069,"SoundDuration":514069,"Delta":321445581},{"NoteNumber":44,"Velocity":44,"Duration":514069,"SoundDuration":514069,"Delta":321445581},{"NoteNumber":56,"Velocity":53,"Duration":514069,"SoundDuration":514069,"Delta":321445581},{"NoteNumber":60,"Velocity":32,"Duration":62761,"SoundDuration":62761,"Delta":321965062},{"NoteNumber":63,"Velocity":38,"Duration":62761,"SoundDuration":62761,"Delta":321965062},{"NoteNumber":60,"Velocity":31,"Duration":66079,"SoundDuration":66079,"Delta":322216108},{"NoteNumber":63,"Velocity":37,"Duration":66079,"SoundDuration":66079,"Delta":322216108},{"NoteNumber":60,"Velocity":38,"Duration":511853,"SoundDuration":511853,"Delta":322480425},{"NoteNumber":63,"Velocity":45,"Duration":511853,"SoundDuration":511853,"Delta":322480425},{"NoteNumber":60,"Velocity":31,"Duration":64563,"SoundDuration":64563,"Delta":322997666},{"NoteNumber":63,"Velocity":37,"Duration":64563,"SoundDuration":64563,"Delta":322997666},{"NoteNumber":32,"Velocity":32,"Duration":129876,"SoundDuration":129876,"Delta":322997666},{"NoteNumber":36,"Velocity":35,"Duration":133340,"SoundDuration":133340,"Delta":323127542},{"NoteNumber":60,"Velocity":31,"Duration":68079,"SoundDuration":68079,"Delta":323260883},{"NoteNumber":63,"Velocity":37,"Duration":68079,"SoundDuration":68079,"Delta":323260883},{"NoteNumber":39,"Velocity":38,"Duration":136993,"SoundDuration":136993,"Delta":323260883},{"NoteNumber":44,"Velocity":41,"Duration":140187,"SoundDuration":140187,"Delta":323397877},{"NoteNumber":61,"Velocity":38,"Duration":516304,"SoundDuration":516304,"Delta":323538064},{"NoteNumber":63,"Velocity":45,"Duration":516304,"SoundDuration":516304,"Delta":323538064},{"NoteNumber":45,"Velocity":44,"Duration":260869,"SoundDuration":260869,"Delta":323538064},{"NoteNumber":61,"Velocity":28,"Duration":62761,"SoundDuration":62761,"Delta":324059803},{"NoteNumber":63,"Velocity":34,"Duration":62761,"SoundDuration":62761,"Delta":324059803},{"NoteNumber":61,"Velocity":28,"Duration":65789,"SoundDuration":65789,"Delta":324310849},{"NoteNumber":63,"Velocity":33,"Duration":65789,"SoundDuration":65789,"Delta":324310849},{"NoteNumber":61,"Velocity":33,"Duration":511853,"SoundDuration":511853,"Delta":324574007},{"NoteNumber":63,"Velocity":39,"Duration":511853,"SoundDuration":511853,"Delta":324574007},{"NoteNumber":61,"Velocity":28,"Duration":64748,"SoundDuration":64748,"Delta":325091248},{"NoteNumber":63,"Velocity":33,"Duration":64748,"SoundDuration":64748,"Delta":325091248},{"NoteNumber":31,"Velocity":27,"Duration":130061,"SoundDuration":130061,"Delta":325091248},{"NoteNumber":34,"Velocity":29,"Duration":132943,"SoundDuration":132943,"Delta":325221309},{"NoteNumber":61,"Velocity":27,"Duration":67669,"SoundDuration":67669,"Delta":325354253},{"NoteNumber":63,"Velocity":33,"Duration":67669,"SoundDuration":67669,"Delta":325354253},{"NoteNumber":39,"Velocity":31,"Duration":135956,"SoundDuration":135956,"Delta":325354253},{"NoteNumber":43,"Velocity":34,"Duration":138248,"SoundDuration":138248,"Delta":325490209},{"NoteNumber":60,"Velocity":28,"Duration":516304,"SoundDuration":516304,"Delta":325628457},{"NoteNumber":63,"Velocity":34,"Duration":516304,"SoundDuration":516304,"Delta":325628457},{"NoteNumber":44,"Velocity":33,"Duration":260869,"SoundDuration":260869,"Delta":325628457},{"NoteNumber":60,"Velocity":24,"Duration":62761,"SoundDuration":62761,"Delta":326150196},{"NoteNumber":63,"Velocity":28,"Duration":62761,"SoundDuration":62761,"Delta":326150196},{"NoteNumber":60,"Velocity":23,"Duration":66079,"SoundDuration":66079,"Delta":326401242},{"NoteNumber":63,"Velocity":27,"Duration":66079,"SoundDuration":66079,"Delta":326401242},{"NoteNumber":60,"Velocity":28,"Duration":511853,"SoundDuration":511853,"Delta":326665559},{"NoteNumber":63,"Velocity":34,"Duration":511853,"SoundDuration":511853,"Delta":326665559},{"NoteNumber":60,"Velocity":23,"Duration":64563,"SoundDuration":64563,"Delta":327182800},{"NoteNumber":63,"Velocity":27,"Duration":64563,"SoundDuration":64563,"Delta":327182800},{"NoteNumber":32,"Velocity":24,"Duration":129876,"SoundDuration":129876,"Delta":327182800},{"NoteNumber":36,"Velocity":26,"Duration":133340,"SoundDuration":133340,"Delta":327312677},{"NoteNumber":60,"Velocity":23,"Duration":68079,"SoundDuration":68079,"Delta":327446017},{"NoteNumber":63,"Velocity":27,"Duration":68079,"SoundDuration":68079,"Delta":327446017},{"NoteNumber":39,"Velocity":28,"Duration":136993,"SoundDuration":136993,"Delta":327446017},{"NoteNumber":44,"Velocity":30,"Duration":140187,"SoundDuration":140187,"Delta":327583011},{"NoteNumber":61,"Velocity":28,"Duration":516304,"SoundDuration":516304,"Delta":327723198},{"NoteNumber":63,"Velocity":34,"Duration":516304,"SoundDuration":516304,"Delta":327723198},{"NoteNumber":45,"Velocity":33,"Duration":258695,"SoundDuration":258695,"Delta":327723198},{"NoteNumber":61,"Velocity":22,"Duration":62761,"SoundDuration":62761,"Delta":328244937},{"NoteNumber":63,"Velocity":27,"Duration":62761,"SoundDuration":62761,"Delta":328244937},{"NoteNumber":61,"Velocity":22,"Duration":65789,"SoundDuration":65789,"Delta":328495983},{"NoteNumber":63,"Velocity":27,"Duration":65789,"SoundDuration":65789,"Delta":328495983},{"NoteNumber":61,"Velocity":27,"Duration":511853,"SoundDuration":511853,"Delta":328759141},{"NoteNumber":63,"Velocity":32,"Duration":511853,"SoundDuration":511853,"Delta":328759141},{"NoteNumber":61,"Velocity":24,"Duration":64748,"SoundDuration":64748,"Delta":329276382},{"NoteNumber":63,"Velocity":28,"Duration":64748,"SoundDuration":64748,"Delta":329276382},{"NoteNumber":31,"Velocity":24,"Duration":130061,"SoundDuration":130061,"Delta":329276382},{"NoteNumber":34,"Velocity":26,"Duration":132943,"SoundDuration":132943,"Delta":329406444},{"NoteNumber":61,"Velocity":24,"Duration":67669,"SoundDuration":67669,"Delta":329539387},{"NoteNumber":63,"Velocity":28,"Duration":67669,"SoundDuration":67669,"Delta":329539387},{"NoteNumber":39,"Velocity":27,"Duration":135956,"SoundDuration":135956,"Delta":329539387},{"NoteNumber":43,"Velocity":30,"Duration":138248,"SoundDuration":138248,"Delta":329675343},{"NoteNumber":60,"Velocity":28,"Duration":552326,"SoundDuration":552326,"Delta":329813592},{"NoteNumber":63,"Velocity":34,"Duration":552326,"SoundDuration":552326,"Delta":329813592},{"NoteNumber":44,"Velocity":33,"Duration":276744,"SoundDuration":276744,"Delta":329813592},{"NoteNumber":56,"Velocity":23,"Duration":135746,"SoundDuration":135746,"Delta":330371732},{"NoteNumber":68,"Velocity":28,"Duration":135746,"SoundDuration":135746,"Delta":330371732},{"NoteNumber":56,"Velocity":23,"Duration":142179,"SoundDuration":142179,"Delta":330643225},{"NoteNumber":68,"Velocity":28,"Duration":142179,"SoundDuration":142179,"Delta":330643225},{"NoteNumber":56,"Velocity":26,"Duration":555556,"SoundDuration":555556,"Delta":330927585},{"NoteNumber":68,"Velocity":31,"Duration":555556,"SoundDuration":555556,"Delta":330927585},{"NoteNumber":44,"Velocity":23,"Duration":135746,"SoundDuration":135746,"Delta":331483141},{"NoteNumber":48,"Velocity":28,"Duration":135746,"SoundDuration":135746,"Delta":331483141},{"NoteNumber":44,"Velocity":23,"Duration":143540,"SoundDuration":143540,"Delta":331754634},{"NoteNumber":48,"Velocity":28,"Duration":143540,"SoundDuration":143540,"Delta":331754634},{"NoteNumber":44,"Velocity":28,"Duration":555556,"SoundDuration":555556,"Delta":332041715},{"NoteNumber":48,"Velocity":33,"Duration":555556,"SoundDuration":555556,"Delta":332041715},{"NoteNumber":56,"Velocity":23,"Duration":136986,"SoundDuration":136986,"Delta":332597271},{"NoteNumber":68,"Velocity":28,"Duration":136986,"SoundDuration":136986,"Delta":332597271},{"NoteNumber":56,"Velocity":23,"Duration":143540,"SoundDuration":143540,"Delta":332871244},{"NoteNumber":68,"Velocity":28,"Duration":143540,"SoundDuration":143540,"Delta":332871244},{"NoteNumber":56,"Velocity":26,"Duration":555556,"SoundDuration":555556,"Delta":333158325},{"NoteNumber":68,"Velocity":31,"Duration":555556,"SoundDuration":555556,"Delta":333158325},{"NoteNumber":44,"Velocity":23,"Duration":136986,"SoundDuration":136986,"Delta":333713881},{"NoteNumber":48,"Velocity":28,"Duration":136986,"SoundDuration":136986,"Delta":333713881},{"NoteNumber":44,"Velocity":23,"Duration":144230,"SoundDuration":144230,"Delta":333987854},{"NoteNumber":48,"Velocity":28,"Duration":144230,"SoundDuration":144230,"Delta":333987854},{"NoteNumber":44,"Velocity":28,"Duration":560747,"SoundDuration":560747,"Delta":334276315},{"NoteNumber":48,"Velocity":33,"Duration":560747,"SoundDuration":560747,"Delta":334276315},{"NoteNumber":56,"Velocity":23,"Duration":137614,"SoundDuration":137614,"Delta":334837063},{"NoteNumber":68,"Velocity":28,"Duration":137614,"SoundDuration":137614,"Delta":334837063},{"NoteNumber":56,"Velocity":23,"Duration":144230,"SoundDuration":144230,"Delta":335112293},{"NoteNumber":68,"Velocity":28,"Duration":144230,"SoundDuration":144230,"Delta":335112293},{"NoteNumber":56,"Velocity":26,"Duration":585776,"SoundDuration":585776,"Delta":335400754},{"NoteNumber":68,"Velocity":31,"Duration":585776,"SoundDuration":585776,"Delta":335400754},{"NoteNumber":45,"Velocity":23,"Duration":144927,"SoundDuration":144927,"Delta":335986530},{"NoteNumber":49,"Velocity":28,"Duration":144927,"SoundDuration":144927,"Delta":335986530},{"NoteNumber":45,"Velocity":23,"Duration":157894,"SoundDuration":157894,"Delta":336276385},{"NoteNumber":49,"Velocity":28,"Duration":157894,"SoundDuration":157894,"Delta":336276385},{"NoteNumber":45,"Velocity":28,"Duration":591133,"SoundDuration":591133,"Delta":336592175},{"NoteNumber":49,"Velocity":33,"Duration":591133,"SoundDuration":591133,"Delta":336592175},{"NoteNumber":56,"Velocity":23,"Duration":142179,"SoundDuration":142179,"Delta":337183308},{"NoteNumber":68,"Velocity":28,"Duration":142179,"SoundDuration":142179,"Delta":337183308},{"NoteNumber":56,"Velocity":23,"Duration":156250,"SoundDuration":156250,"Delta":337467668},{"NoteNumber":68,"Velocity":28,"Duration":156250,"SoundDuration":156250,"Delta":337467668},{"NoteNumber":56,"Velocity":26,"Duration":591133,"SoundDuration":591133,"Delta":337780168},{"NoteNumber":68,"Velocity":31,"Duration":591133,"SoundDuration":591133,"Delta":337780168},{"NoteNumber":45,"Velocity":23,"Duration":145630,"SoundDuration":145630,"Delta":338371301},{"NoteNumber":49,"Velocity":28,"Duration":145630,"SoundDuration":145630,"Delta":338371301},{"NoteNumber":45,"Velocity":23,"Duration":164835,"SoundDuration":164835,"Delta":338662563},{"NoteNumber":49,"Velocity":28,"Duration":164835,"SoundDuration":164835,"Delta":338662563},{"NoteNumber":48,"Velocity":28,"Duration":625000,"SoundDuration":625000,"Delta":338992233},{"NoteNumber":51,"Velocity":33,"Duration":625000,"SoundDuration":625000,"Delta":338992233},{"NoteNumber":66,"Velocity":23,"Duration":150753,"SoundDuration":150753,"Delta":339617233},{"NoteNumber":56,"Velocity":23,"Duration":150753,"SoundDuration":150753,"Delta":339617233},{"NoteNumber":68,"Velocity":28,"Duration":150753,"SoundDuration":150753,"Delta":339617233},{"NoteNumber":66,"Velocity":23,"Duration":163043,"SoundDuration":163043,"Delta":339918741},{"NoteNumber":56,"Velocity":23,"Duration":163043,"SoundDuration":163043,"Delta":339918741},{"NoteNumber":68,"Velocity":28,"Duration":163043,"SoundDuration":163043,"Delta":339918741},{"NoteNumber":66,"Velocity":26,"Duration":628271,"SoundDuration":628271,"Delta":340244828},{"NoteNumber":56,"Velocity":26,"Duration":628271,"SoundDuration":628271,"Delta":340244828},{"NoteNumber":68,"Velocity":31,"Duration":628271,"SoundDuration":628271,"Delta":340244828},{"NoteNumber":48,"Velocity":23,"Duration":152284,"SoundDuration":152284,"Delta":340873100},{"NoteNumber":51,"Velocity":28,"Duration":152284,"SoundDuration":152284,"Delta":340873100},{"NoteNumber":48,"Velocity":23,"Duration":163934,"SoundDuration":163934,"Delta":341177668},{"NoteNumber":51,"Velocity":28,"Duration":163934,"SoundDuration":163934,"Delta":341177668},{"NoteNumber":48,"Velocity":28,"Duration":628271,"SoundDuration":628271,"Delta":341505537},{"NoteNumber":51,"Velocity":33,"Duration":628271,"SoundDuration":628271,"Delta":341505537},{"NoteNumber":66,"Velocity":23,"Duration":153061,"SoundDuration":153061,"Delta":342133809},{"NoteNumber":56,"Velocity":23,"Duration":153061,"SoundDuration":153061,"Delta":342133809},{"NoteNumber":68,"Velocity":28,"Duration":153061,"SoundDuration":153061,"Delta":342133809},{"NoteNumber":66,"Velocity":23,"Duration":167597,"SoundDuration":167597,"Delta":342439932},{"NoteNumber":56,"Velocity":23,"Duration":167597,"SoundDuration":167597,"Delta":342439932},{"NoteNumber":68,"Velocity":28,"Duration":167597,"SoundDuration":167597,"Delta":342439932},{"NoteNumber":48,"Velocity":28,"Duration":648648,"SoundDuration":648648,"Delta":342775127},{"NoteNumber":51,"Velocity":33,"Duration":648648,"SoundDuration":648648,"Delta":342775127},{"NoteNumber":66,"Velocity":23,"Duration":157894,"SoundDuration":157894,"Delta":343423776},{"NoteNumber":56,"Velocity":23,"Duration":157894,"SoundDuration":157894,"Delta":343423776},{"NoteNumber":68,"Velocity":28,"Duration":157894,"SoundDuration":157894,"Delta":343423776},{"NoteNumber":66,"Velocity":23,"Duration":176470,"SoundDuration":176470,"Delta":343739566},{"NoteNumber":56,"Velocity":23,"Duration":176470,"SoundDuration":176470,"Delta":343739566},{"NoteNumber":68,"Velocity":28,"Duration":176470,"SoundDuration":176470,"Delta":343739566},{"NoteNumber":48,"Velocity":28,"Duration":666667,"SoundDuration":666667,"Delta":344092507},{"NoteNumber":51,"Velocity":33,"Duration":666667,"SoundDuration":666667,"Delta":344092507},{"NoteNumber":66,"Velocity":22,"Duration":666666,"SoundDuration":666666,"Delta":344759174},{"NoteNumber":56,"Velocity":22,"Duration":666666,"SoundDuration":666666,"Delta":344759174},{"NoteNumber":68,"Velocity":27,"Duration":666666,"SoundDuration":666666,"Delta":344759174},{"NoteNumber":48,"Velocity":27,"Duration":666667,"SoundDuration":666667,"Delta":345425841},{"NoteNumber":51,"Velocity":32,"Duration":666667,"SoundDuration":666667,"Delta":345425841},{"NoteNumber":66,"Velocity":21,"Duration":731706,"SoundDuration":731706,"Delta":346092508},{"NoteNumber":56,"Velocity":21,"Duration":731706,"SoundDuration":731706,"Delta":346092508},{"NoteNumber":68,"Velocity":26,"Duration":731706,"SoundDuration":731706,"Delta":346092508},{"NoteNumber":48,"Velocity":26,"Duration":784313,"SoundDuration":784313,"Delta":346824215},{"NoteNumber":51,"Velocity":30,"Duration":784313,"SoundDuration":784313,"Delta":346824215},{"NoteNumber":66,"Velocity":20,"Duration":827585,"SoundDuration":827585,"Delta":347608529},{"NoteNumber":57,"Velocity":20,"Duration":827585,"SoundDuration":827585,"Delta":347608529},{"NoteNumber":69,"Velocity":25,"Duration":827585,"SoundDuration":827585,"Delta":347608529},{"NoteNumber":48,"Velocity":25,"Duration":959999,"SoundDuration":959999,"Delta":348436115},{"NoteNumber":51,"Velocity":29,"Duration":959999,"SoundDuration":959999,"Delta":348436115},{"NoteNumber":66,"Velocity":20,"Duration":2000000,"SoundDuration":2000000,"Delta":349396115},{"NoteNumber":56,"Velocity":20,"Duration":2000000,"SoundDuration":2000000,"Delta":349396115},{"NoteNumber":68,"Velocity":24,"Duration":2000000,"SoundDuration":2000000,"Delta":349396115}]}