{"title":"Weihnachtsfantasie","artist":"Piano","durationMs":398779,"midiSha256":"aba4c8a944c39d577041d36c8597acc467a1f159f511551a6d1a18fc516f49c0","midiObject":[{"NoteNumber":31,"Velocity":33,"Duration":92857,"SoundDuration":92857,"Delta":0},{"NoteNumber":43,"Velocity":24,"Duration":79592,"SoundDuration":79592,"Delta":79592},{"NoteNumber":31,"Velocity":33,"Duration":92857,"SoundDuration":92857,"Delta":159185},{"NoteNumber":43,"Velocity":24,"Duration":79592,"SoundDuration":79592,"Delta":238777},{"NoteNumber":31,"Velocity":33,"Duration":92857,"SoundDuration":92857,"Delta":318370},{"NoteNumber":43,"Velocity":24,"Duration":79592,"SoundDuration":79592,"Delta":397962},{"NoteNumber":31,"Velocity":33,"Duration":92857,"SoundDuration":92857,"Delta":477555},{"NoteNumber":43,"Velocity":24,"Duration":79592,"SoundDuration":79592,"Delta":557147},{"NoteNumber":31,"Velocity":33,"Duration":92857,"SoundDuration":92857,"Delta":636740},{"NoteNumber":43,"Velocity":24,"Duration":79592,"SoundDuration":79592,"Delta":716332},{"NoteNumber":31,"Velocity":33,"Duration":92857,"SoundDuration":92857,"Delta":795925},{"NoteNumber":43,"Velocity":24,"Duration":79592,"SoundDuration":79592,"Delta":875517},{"NoteNumber":31,"Velocity":33,"Duration":92857,"SoundDuration":92857,"Delta":955110},{"NoteNumber":43,"Velocity":24,"Duration":79592,"SoundDuration":79592,"Delta":1034702},{"NoteNumber":31,"Velocity":33,"Duration":92857,"SoundDuration":92857,"Delta":1114295},{"NoteNumber":43,"Velocity":24,"Duration":79592,"SoundDuration":79592,"Delta":1193887},{"NoteNumber":67,"Velocity":49,"Duration":636740,"SoundDuration":636740,"Delta":1273480},{"NoteNumber":59,"Velocity":41,"Duration":636740,"SoundDuration":636740,"Delta":1273480},{"NoteNumber":65,"Velocity":41,"Duration":636740,"SoundDuration":636740,"Delta":1273480},{"NoteNumber":31,"Velocity":33,"Duration":92857,"SoundDuration":92857,"Delta":1273480},{"NoteNumber":43,"Velocity":24,"Duration":79592,"SoundDuration":79592,"Delta":1353072},{"NoteNumber":31,"Velocity":33,"Duration":92857,"SoundDuration":92857,"Delta":1432665},{"NoteNumber":43,"Velocity":24,"Duration":79592,"SoundDuration":79592,"Delta":1512257},{"NoteNumber":31,"Velocity":33,"Duration":92857,"SoundDuration":92857,"Delta":1591850},{"NoteNumber":43,"Velocity":24,"Duration":79592,"SoundDuration":79592,"Delta":1671442},{"NoteNumber":31,"Velocity":33,"Duration":92857,"SoundDuration":92857,"Delta":1751035},{"NoteNumber":43,"Velocity":24,"Duration":79592,"SoundDuration":79592,"Delta":1830627},{"NoteNumber":59,"Velocity":43,"Duration":477555,"SoundDuration":477555,"Delta":1910220},{"NoteNumber":67,"Velocity":51,"Duration":477555,"SoundDuration":477555,"Delta":1910220},{"NoteNumber":65,"Velocity":43,"Duration":477555,"SoundDuration":477555,"Delta":1910220},{"NoteNumber":31,"Velocity":33,"Duration":92857,"SoundDuration":92857,"Delta":1910220},{"NoteNumber":43,"Velocity":24,"Duration":79592,"SoundDuration":79592,"Delta":1989812},{"NoteNumber":31,"Velocity":33,"Duration":92857,"SoundDuration":92857,"Delta":2069405},{"NoteNumber":43,"Velocity":24,"Duration":79592,"SoundDuration":79592,"Delta":2148997},{"NoteNumber":31,"Velocity":33,"Duration":92857,"SoundDuration":92857,"Delta":2228590},{"NoteNumber":43,"Velocity":24,"Duration":79592,"SoundDuration":79592,"Delta":2308182},{"NoteNumber":67,"Velocity":46,"Duration":173470,"SoundDuration":173470,"Delta":2387775},{"NoteNumber":59,"Velocity":39,"Duration":173470,"SoundDuration":173470,"Delta":2387775},{"NoteNumber":65,"Velocity":39,"Duration":173470,"SoundDuration":173470,"Delta":2387775},{"NoteNumber":31,"Velocity":33,"Duration":101191,"SoundDuration":101191,"Delta":2387775},{"NoteNumber":43,"Velocity":24,"Duration":86735,"SoundDuration":86735,"Delta":2474510},{"NoteNumber":60,"Velocity":46,"Duration":1237114,"SoundDuration":1237114,"Delta":2561245},{"NoteNumber":65,"Velocity":46,"Duration":1237114,"SoundDuration":1237114,"Delta":2561245},{"NoteNumber":69,"Velocity":55,"Duration":1237114,"SoundDuration":1237114,"Delta":2561245},{"NoteNumber":31,"Velocity":33,"Duration":90206,"SoundDuration":90206,"Delta":2561245},{"NoteNumber":43,"Velocity":24,"Duration":77319,"SoundDuration":77319,"Delta":2638565},{"NoteNumber":31,"Velocity":33,"Duration":90206,"SoundDuration":90206,"Delta":2715884},{"NoteNumber":43,"Velocity":24,"Duration":77319,"SoundDuration":77319,"Delta":2793204},{"NoteNumber":31,"Velocity":33,"Duration":90206,"SoundDuration":90206,"Delta":2870524},{"NoteNumber":43,"Velocity":24,"Duration":77319,"SoundDuration":77319,"Delta":2947843},{"NoteNumber":31,"Velocity":33,"Duration":90206,"SoundDuration":90206,"Delta":3025163},{"NoteNumber":43,"Velocity":24,"Duration":77319,"SoundDuration":77319,"Delta":3102482},{"NoteNumber":31,"Velocity":33,"Duration":90206,"SoundDuration":90206,"Delta":3179802},{"NoteNumber":43,"Velocity":24,"Duration":77319,"SoundDuration":77319,"Delta":3257122},{"NoteNumber":31,"Velocity":33,"Duration":90206,"SoundDuration":90206,"Delta":3334441},{"NoteNumber":43,"Velocity":24,"Duration":77319,"SoundDuration":77319,"Delta":3411761},{"NoteNumber":31,"Velocity":33,"Duration":90206,"SoundDuration":90206,"Delta":3489081},{"NoteNumber":43,"Velocity":24,"Duration":77319,"SoundDuration":77319,"Delta":3566400},{"NoteNumber":31,"Velocity":33,"Duration":90206,"SoundDuration":90206,"Delta":3643720},{"NoteNumber":43,"Velocity":24,"Duration":77319,"SoundDuration":77319,"Delta":3721039},{"NoteNumber":71,"Velocity":58,"Duration":618557,"SoundDuration":618557,"Delta":3798359},{"NoteNumber":65,"Velocity":49,"Duration":618557,"SoundDuration":618557,"Delta":3798359},{"NoteNumber":62,"Velocity":49,"Duration":618557,"SoundDuration":618557,"Delta":3798359},{"NoteNumber":31,"Velocity":33,"Duration":90206,"SoundDuration":90206,"Delta":3798359},{"NoteNumber":43,"Velocity":24,"Duration":77319,"SoundDuration":77319,"Delta":3875679},{"NoteNumber":31,"Velocity":33,"Duration":90206,"SoundDuration":90206,"Delta":3952998},{"NoteNumber":43,"Velocity":24,"Duration":77319,"SoundDuration":77319,"Delta":4030318},{"NoteNumber":31,"Velocity":33,"Duration":90206,"SoundDuration":90206,"Delta":4107638},{"NoteNumber":43,"Velocity":24,"Duration":77319,"SoundDuration":77319,"Delta":4184957},{"NoteNumber":31,"Velocity":34,"Duration":90206,"SoundDuration":90206,"Delta":4262277},{"NoteNumber":43,"Velocity":25,"Duration":77319,"SoundDuration":77319,"Delta":4339596},{"NoteNumber":62,"Velocity":48,"Duration":463917,"SoundDuration":463917,"Delta":4416916},{"NoteNumber":65,"Velocity":48,"Duration":463917,"SoundDuration":463917,"Delta":4416916},{"NoteNumber":71,"Velocity":57,"Duration":463917,"SoundDuration":463917,"Delta":4416916},{"NoteNumber":31,"Velocity":34,"Duration":90206,"SoundDuration":90206,"Delta":4416916},{"NoteNumber":43,"Velocity":25,"Duration":77319,"SoundDuration":77319,"Delta":4494236},{"NoteNumber":31,"Velocity":34,"Duration":90206,"SoundDuration":90206,"Delta":4571555},{"NoteNumber":43,"Velocity":25,"Duration":77319,"SoundDuration":77319,"Delta":4648875},{"NoteNumber":31,"Velocity":35,"Duration":90206,"SoundDuration":90206,"Delta":4726195},{"NoteNumber":43,"Velocity":26,"Duration":77319,"SoundDuration":77319,"Delta":4803514},{"NoteNumber":65,"Velocity":52,"Duration":164005,"SoundDuration":164005,"Delta":4880834},{"NoteNumber":62,"Velocity":52,"Duration":164005,"SoundDuration":164005,"Delta":4880834},{"NoteNumber":71,"Velocity":62,"Duration":164005,"SoundDuration":164005,"Delta":4880834},{"NoteNumber":31,"Velocity":35,"Duration":95670,"SoundDuration":95670,"Delta":4880834},{"NoteNumber":43,"Velocity":27,"Duration":82002,"SoundDuration":82002,"Delta":4962837},{"NoteNumber":64,"Velocity":57,"Duration":1230138,"SoundDuration":1230138,"Delta":5044840},{"NoteNumber":72,"Velocity":68,"Duration":1230138,"SoundDuration":1230138,"Delta":5044840},{"NoteNumber":67,"Velocity":57,"Duration":1230138,"SoundDuration":1230138,"Delta":5044840},{"NoteNumber":31,"Velocity":37,"Duration":89697,"SoundDuration":89697,"Delta":5044840},{"NoteNumber":43,"Velocity":27,"Duration":76883,"SoundDuration":76883,"Delta":5121723},{"NoteNumber":31,"Velocity":37,"Duration":89697,"SoundDuration":89697,"Delta":5198607},{"NoteNumber":43,"Velocity":27,"Duration":76883,"SoundDuration":76883,"Delta":5275491},{"NoteNumber":31,"Velocity":37,"Duration":89697,"SoundDuration":89697,"Delta":5352374},{"NoteNumber":43,"Velocity":27,"Duration":76883,"SoundDuration":76883,"Delta":5429258},{"NoteNumber":31,"Velocity":38,"Duration":89697,"SoundDuration":89697,"Delta":5506142},{"NoteNumber":43,"Velocity":27,"Duration":76883,"SoundDuration":76883,"Delta":5583025},{"NoteNumber":31,"Velocity":38,"Duration":89697,"SoundDuration":89697,"Delta":5659909},{"NoteNumber":43,"Velocity":27,"Duration":76883,"SoundDuration":76883,"Delta":5736792},{"NoteNumber":31,"Velocity":38,"Duration":89697,"SoundDuration":89697,"Delta":5813676},{"NoteNumber":43,"Velocity":27,"Duration":76883,"SoundDuration":76883,"Delta":5890560},{"NoteNumber":31,"Velocity":38,"Duration":89697,"SoundDuration":89697,"Delta":5967443},{"NoteNumber":43,"Velocity":28,"Duration":76883,"SoundDuration":76883,"Delta":6044327},{"NoteNumber":31,"Velocity":38,"Duration":89697,"SoundDuration":89697,"Delta":6121211},{"NoteNumber":43,"Velocity":28,"Duration":76883,"SoundDuration":76883,"Delta":6198094},{"NoteNumber":74,"Velocity":77,"Duration":601383,"SoundDuration":601383,"Delta":6274978},{"NoteNumber":71,"Velocity":65,"Duration":601383,"SoundDuration":601383,"Delta":6274978},{"NoteNumber":65,"Velocity":65,"Duration":601383,"SoundDuration":601383,"Delta":6274978},{"NoteNumber":31,"Velocity":46,"Duration":87701,"SoundDuration":87701,"Delta":6274978},{"NoteNumber":43,"Velocity":34,"Duration":75172,"SoundDuration":75172,"Delta":6350151},{"NoteNumber":31,"Velocity":46,"Duration":87701,"SoundDuration":87701,"Delta":6425324},{"NoteNumber":43,"Velocity":35,"Duration":75172,"SoundDuration":75172,"Delta":6500496},{"NoteNumber":31,"Velocity":49,"Duration":87701,"SoundDuration":87701,"Delta":6575669},{"NoteNumber":43,"Velocity":37,"Duration":75172,"SoundDuration":75172,"Delta":6650842},{"NoteNumber":31,"Velocity":49,"Duration":87701,"SoundDuration":87701,"Delta":6726015},{"NoteNumber":43,"Velocity":37,"Duration":75172,"SoundDuration":75172,"Delta":6801188},{"NoteNumber":64,"Velocity":68,"Duration":601382,"SoundDuration":601382,"Delta":6876361},{"NoteNumber":70,"Velocity":68,"Duration":601382,"SoundDuration":601382,"Delta":6876361},{"NoteNumber":73,"Velocity":81,"Duration":601382,"SoundDuration":601382,"Delta":6876361},{"NoteNumber":31,"Velocity":49,"Duration":87701,"SoundDuration":87701,"Delta":6876361},{"NoteNumber":43,"Velocity":37,"Duration":75172,"SoundDuration":75172,"Delta":6951534},{"NoteNumber":31,"Velocity":50,"Duration":87701,"SoundDuration":87701,"Delta":7026707},{"NoteNumber":43,"Velocity":38,"Duration":75172,"SoundDuration":75172,"Delta":7101879},{"NoteNumber":31,"Velocity":50,"Duration":87701,"SoundDuration":87701,"Delta":7177052},{"NoteNumber":43,"Velocity":39,"Duration":75172,"SoundDuration":75172,"Delta":7252225},{"NoteNumber":31,"Velocity":51,"Duration":87701,"SoundDuration":87701,"Delta":7327398},{"NoteNumber":43,"Velocity":39,"Duration":75172,"SoundDuration":75172,"Delta":7402571},{"NoteNumber":71,"Velocity":68,"Duration":601383,"SoundDuration":601383,"Delta":7477744},{"NoteNumber":65,"Velocity":68,"Duration":601383,"SoundDuration":601383,"Delta":7477744},{"NoteNumber":74,"Velocity":81,"Duration":601383,"SoundDuration":601383,"Delta":7477744},{"NoteNumber":31,"Velocity":51,"Duration":87701,"SoundDuration":87701,"Delta":7477744},{"NoteNumber":43,"Velocity":39,"Duration":75172,"SoundDuration":75172,"Delta":7552917},{"NoteNumber":31,"Velocity":53,"Duration":87701,"SoundDuration":87701,"Delta":7628090},{"NoteNumber":43,"Velocity":39,"Duration":75172,"SoundDuration":75172,"Delta":7703262},{"NoteNumber":31,"Velocity":53,"Duration":87701,"SoundDuration":87701,"Delta":7778435},{"NoteNumber":43,"Velocity":41,"Duration":75172,"SoundDuration":75172,"Delta":7853608},{"NoteNumber":31,"Velocity":53,"Duration":87701,"SoundDuration":87701,"Delta":7928781},{"NoteNumber":43,"Velocity":41,"Duration":75172,"SoundDuration":75172,"Delta":8003954},{"NoteNumber":67,"Velocity":68,"Duration":625716,"SoundDuration":625716,"Delta":8079127},{"NoteNumber":76,"Velocity":81,"Duration":625716,"SoundDuration":625716,"Delta":8079127},{"NoteNumber":73,"Velocity":68,"Duration":625716,"SoundDuration":625716,"Delta":8079127},{"NoteNumber":70,"Velocity":68,"Duration":625716,"SoundDuration":625716,"Delta":8079127},{"NoteNumber":31,"Velocity":58,"Duration":91250,"SoundDuration":91250,"Delta":8079127},{"NoteNumber":43,"Velocity":41,"Duration":78214,"SoundDuration":78214,"Delta":8157341},{"NoteNumber":31,"Velocity":59,"Duration":91250,"SoundDuration":91250,"Delta":8235556},{"NoteNumber":43,"Velocity":41,"Duration":78214,"SoundDuration":78214,"Delta":8313771},{"NoteNumber":31,"Velocity":59,"Duration":91250,"SoundDuration":91250,"Delta":8391985},{"NoteNumber":43,"Velocity":44,"Duration":78214,"SoundDuration":78214,"Delta":8470200},{"NoteNumber":31,"Velocity":59,"Duration":91250,"SoundDuration":91250,"Delta":8548415},{"NoteNumber":43,"Velocity":45,"Duration":1300217,"SoundDuration":1300217,"Delta":8626629},{"NoteNumber":77,"Velocity":86,"Duration":644330,"SoundDuration":644330,"Delta":8704844},{"NoteNumber":74,"Velocity":73,"Duration":644330,"SoundDuration":644330,"Delta":8704844},{"NoteNumber":71,"Velocity":73,"Duration":644330,"SoundDuration":644330,"Delta":8704844},{"NoteNumber":67,"Velocity":73,"Duration":644330,"SoundDuration":644330,"Delta":8704844},{"NoteNumber":31,"Velocity":44,"Duration":1222003,"SoundDuration":1222003,"Delta":8704844},{"NoteNumber":91,"Velocity":82,"Duration":139495,"SoundDuration":139495,"Delta":9349174},{"NoteNumber":79,"Velocity":72,"Duration":139496,"SoundDuration":139496,"Delta":9488670},{"NoteNumber":91,"Velocity":74,"Duration":139495,"SoundDuration":139495,"Delta":9628166},{"NoteNumber":79,"Velocity":62,"Duration":159185,"SoundDuration":159185,"Delta":9767662},{"NoteNumber":91,"Velocity":77,"Duration":1334754,"SoundDuration":1334754,"Delta":9926847},{"NoteNumber":74,"Velocity":68,"Duration":507385,"SoundDuration":507385,"Delta":10575005},{"NoteNumber":77,"Velocity":80,"Duration":507385,"SoundDuration":507385,"Delta":10575005},{"NoteNumber":76,"Velocity":71,"Duration":179211,"SoundDuration":179211,"Delta":11082390},{"NoteNumber":72,"Velocity":60,"Duration":179211,"SoundDuration":179211,"Delta":11082390},{"NoteNumber":67,"Velocity":56,"Duration":1196664,"SoundDuration":1196664,"Delta":11261602},{"NoteNumber":74,"Velocity":67,"Duration":1196664,"SoundDuration":1196664,"Delta":11261602},{"NoteNumber":91,"Velocity":64,"Duration":138773,"SoundDuration":138773,"Delta":11883686},{"NoteNumber":79,"Velocity":52,"Duration":138773,"SoundDuration":138773,"Delta":12022459},{"NoteNumber":91,"Velocity":58,"Duration":138773,"SoundDuration":138773,"Delta":12161232},{"NoteNumber":79,"Velocity":47,"Duration":158261,"SoundDuration":158261,"Delta":12300006},{"NoteNumber":91,"Velocity":64,"Duration":1263170,"SoundDuration":1263170,"Delta":12458267},{"NoteNumber":77,"Velocity":61,"Duration":474783,"SoundDuration":474783,"Delta":13091312},{"NoteNumber":74,"Velocity":51,"Duration":474783,"SoundDuration":474783,"Delta":13091312},{"NoteNumber":76,"Velocity":57,"Duration":155341,"SoundDuration":155341,"Delta":13566096},{"NoteNumber":72,"Velocity":48,"Duration":155341,"SoundDuration":155341,"Delta":13566096},{"NoteNumber":91,"Velocity":52,"Duration":135992,"SoundDuration":135992,"Delta":13721437},{"NoteNumber":67,"Velocity":45,"Duration":543742,"SoundDuration":543742,"Delta":13721437},{"NoteNumber":74,"Velocity":53,"Duration":543742,"SoundDuration":543742,"Delta":13721437},{"NoteNumber":79,"Velocity":41,"Duration":135992,"SoundDuration":135992,"Delta":13857430},{"NoteNumber":91,"Velocity":53,"Duration":135992,"SoundDuration":135992,"Delta":13993423},{"NoteNumber":79,"Velocity":41,"Duration":135763,"SoundDuration":135763,"Delta":14129416},{"NoteNumber":91,"Velocity":47,"Duration":130106,"SoundDuration":130106,"Delta":14265179},{"NoteNumber":76,"Velocity":62,"Duration":520426,"SoundDuration":520426,"Delta":14265179},{"NoteNumber":72,"Velocity":52,"Duration":520426,"SoundDuration":520426,"Delta":14265179},{"NoteNumber":79,"Velocity":41,"Duration":130106,"SoundDuration":130106,"Delta":14395286},{"NoteNumber":91,"Velocity":47,"Duration":130106,"SoundDuration":130106,"Delta":14525393},{"NoteNumber":79,"Velocity":41,"Duration":130106,"SoundDuration":130106,"Delta":14655500},{"NoteNumber":91,"Velocity":52,"Duration":128866,"SoundDuration":128866,"Delta":14785606},{"NoteNumber":67,"Velocity":56,"Duration":516085,"SoundDuration":516085,"Delta":14785606},{"NoteNumber":74,"Velocity":67,"Duration":516085,"SoundDuration":516085,"Delta":14785606},{"NoteNumber":79,"Velocity":47,"Duration":128866,"SoundDuration":128866,"Delta":14914472},{"NoteNumber":91,"Velocity":58,"Duration":128865,"SoundDuration":128865,"Delta":15043338},{"NoteNumber":79,"Velocity":51,"Duration":129487,"SoundDuration":129487,"Delta":15172204},{"NoteNumber":91,"Velocity":62,"Duration":126454,"SoundDuration":126454,"Delta":15301692},{"NoteNumber":72,"Velocity":56,"Duration":505817,"SoundDuration":505817,"Delta":15301692},{"NoteNumber":76,"Velocity":66,"Duration":505817,"SoundDuration":505817,"Delta":15301692},{"NoteNumber":79,"Velocity":56,"Duration":126454,"SoundDuration":126454,"Delta":15428146},{"NoteNumber":91,"Velocity":64,"Duration":126454,"SoundDuration":126454,"Delta":15554600},{"NoteNumber":79,"Velocity":58,"Duration":126454,"SoundDuration":126454,"Delta":15681055},{"NoteNumber":79,"Velocity":64,"Duration":2933766,"SoundDuration":2933766,"Delta":15807509},{"NoteNumber":91,"Velocity":64,"Duration":2933766,"SoundDuration":2933766,"Delta":15807509},{"NoteNumber":67,"Velocity":62,"Duration":508216,"SoundDuration":508216,"Delta":15807509},{"NoteNumber":74,"Velocity":74,"Duration":508216,"SoundDuration":508216,"Delta":15807509},{"NoteNumber":45,"Velocity":70,"Duration":478087,"SoundDuration":478087,"Delta":16315725},{"NoteNumber":57,"Velocity":83,"Duration":478087,"SoundDuration":478087,"Delta":16315725},{"NoteNumber":55,"Velocity":93,"Duration":485830,"SoundDuration":485830,"Delta":16793813},{"NoteNumber":43,"Velocity":62,"Duration":485830,"SoundDuration":485830,"Delta":16793813},{"NoteNumber":54,"Velocity":82,"Duration":480000,"SoundDuration":480000,"Delta":17279643},{"NoteNumber":42,"Velocity":56,"Duration":480000,"SoundDuration":480000,"Delta":17279643},{"NoteNumber":43,"Velocity":56,"Duration":493826,"SoundDuration":493826,"Delta":17759643},{"NoteNumber":55,"Velocity":83,"Duration":493826,"SoundDuration":493826,"Delta":17759643},{"NoteNumber":41,"Velocity":57,"Duration":487805,"SoundDuration":487805,"Delta":18253470},{"NoteNumber":53,"Velocity":84,"Duration":487805,"SoundDuration":487805,"Delta":18253470},{"NoteNumber":40,"Velocity":59,"Duration":547701,"SoundDuration":547701,"Delta":18741275},{"NoteNumber":52,"Velocity":89,"Duration":547701,"SoundDuration":547701,"Delta":18741275},{"NoteNumber":38,"Velocity":62,"Duration":572075,"SoundDuration":572075,"Delta":19288976},{"NoteNumber":50,"Velocity":92,"Duration":572075,"SoundDuration":572075,"Delta":19288976},{"NoteNumber":67,"Velocity":76,"Duration":987668,"SoundDuration":987668,"Delta":19861052},{"NoteNumber":72,"Velocity":90,"Duration":1007858,"SoundDuration":1007858,"Delta":19861052},{"NoteNumber":64,"Velocity":68,"Duration":1007858,"SoundDuration":1007858,"Delta":19861052},{"NoteNumber":60,"Velocity":68,"Duration":1007858,"SoundDuration":1007858,"Delta":19861052},{"NoteNumber":36,"Velocity":49,"Duration":1007858,"SoundDuration":1007858,"Delta":19861052},{"NoteNumber":48,"Velocity":73,"Duration":1007858,"SoundDuration":1007858,"Delta":19861052},{"NoteNumber":62,"Velocity":68,"Duration":969148,"SoundDuration":969148,"Delta":20848721},{"NoteNumber":67,"Velocity":76,"Duration":989247,"SoundDuration":989247,"Delta":20848721},{"NoteNumber":71,"Velocity":90,"Duration":989247,"SoundDuration":989247,"Delta":20848721},{"NoteNumber":43,"Velocity":49,"Duration":989247,"SoundDuration":989247,"Delta":20848721},{"NoteNumber":55,"Velocity":73,"Duration":989247,"SoundDuration":989247,"Delta":20848721},{"NoteNumber":66,"Velocity":72,"Duration":985257,"SoundDuration":985257,"Delta":21817869},{"NoteNumber":62,"Velocity":65,"Duration":964786,"SoundDuration":964786,"Delta":21817869},{"NoteNumber":69,"Velocity":85,"Duration":985257,"SoundDuration":985257,"Delta":21817869},{"NoteNumber":50,"Velocity":69,"Duration":985257,"SoundDuration":985257,"Delta":21817869},{"NoteNumber":38,"Velocity":46,"Duration":985257,"SoundDuration":985257,"Delta":21817869},{"NoteNumber":62,"Velocity":68,"Duration":982640,"SoundDuration":982640,"Delta":22782655},{"NoteNumber":71,"Velocity":90,"Duration":982640,"SoundDuration":982640,"Delta":22782655},{"NoteNumber":67,"Velocity":76,"Duration":982640,"SoundDuration":982640,"Delta":22782655},{"NoteNumber":43,"Velocity":49,"Duration":982640,"SoundDuration":982640,"Delta":22782655},{"NoteNumber":55,"Velocity":73,"Duration":982640,"SoundDuration":982640,"Delta":22782655},{"NoteNumber":67,"Velocity":90,"Duration":975666,"SoundDuration":975666,"Delta":23765295},{"NoteNumber":60,"Velocity":68,"Duration":956099,"SoundDuration":956099,"Delta":23765295},{"NoteNumber":40,"Velocity":49,"Duration":975666,"SoundDuration":975666,"Delta":23765295},{"NoteNumber":52,"Velocity":73,"Duration":975666,"SoundDuration":975666,"Delta":23765295},{"NoteNumber":60,"Velocity":68,"Duration":984315,"SoundDuration":984315,"Delta":24721395},{"NoteNumber":65,"Velocity":76,"Duration":963218,"SoundDuration":963218,"Delta":24721395},{"NoteNumber":69,"Velocity":90,"Duration":984315,"SoundDuration":984315,"Delta":24721395},{"NoteNumber":41,"Velocity":49,"Duration":490161,"SoundDuration":490161,"Delta":24721395},{"NoteNumber":53,"Velocity":73,"Duration":490161,"SoundDuration":490161,"Delta":24721395},{"NoteNumber":40,"Velocity":46,"Duration":514721,"SoundDuration":514721,"Delta":25190989},{"NoteNumber":52,"Velocity":69,"Duration":514721,"SoundDuration":514721,"Delta":25190989},{"NoteNumber":65,"Velocity":73,"Duration":1053987,"SoundDuration":1053987,"Delta":25684613},{"NoteNumber":62,"Velocity":66,"Duration":1053987,"SoundDuration":1053987,"Delta":25684613},{"NoteNumber":71,"Velocity":86,"Duration":1053987,"SoundDuration":1053987,"Delta":25684613},{"NoteNumber":50,"Velocity":69,"Duration":1053987,"SoundDuration":1053987,"Delta":25684613},{"NoteNumber":38,"Velocity":46,"Duration":1053987,"SoundDuration":1053987,"Delta":25684613},{"NoteNumber":60,"Velocity":68,"Duration":1487848,"SoundDuration":1487848,"Delta":26697271},{"NoteNumber":72,"Velocity":90,"Duration":1487848,"SoundDuration":1487848,"Delta":26697271},{"NoteNumber":67,"Velocity":76,"Duration":1487848,"SoundDuration":1487848,"Delta":26697271},{"NoteNumber":64,"Velocity":68,"Duration":1487848,"SoundDuration":1487848,"Delta":26697271},{"NoteNumber":36,"Velocity":49,"Duration":1487848,"SoundDuration":1487848,"Delta":26697271},{"NoteNumber":48,"Velocity":73,"Duration":1487848,"SoundDuration":1487848,"Delta":26697271},{"NoteNumber":79,"Velocity":38,"Duration":970168,"SoundDuration":970168,"Delta":28681069},{"NoteNumber":84,"Velocity":45,"Duration":970168,"SoundDuration":970168,"Delta":28681069},{"NoteNumber":76,"Velocity":38,"Duration":970168,"SoundDuration":970168,"Delta":28681069},{"NoteNumber":60,"Velocity":34,"Duration":970168,"SoundDuration":970168,"Delta":28681069},{"NoteNumber":67,"Velocity":40,"Duration":970168,"SoundDuration":970168,"Delta":28681069},{"NoteNumber":76,"Velocity":31,"Duration":956175,"SoundDuration":956175,"Delta":29651237},{"NoteNumber":84,"Velocity":37,"Duration":956175,"SoundDuration":956175,"Delta":29651237},{"NoteNumber":81,"Velocity":31,"Duration":956175,"SoundDuration":956175,"Delta":29651237},{"NoteNumber":69,"Velocity":33,"Duration":956175,"SoundDuration":956175,"Delta":29651237},{"NoteNumber":57,"Velocity":28,"Duration":956175,"SoundDuration":956175,"Delta":29651237},{"NoteNumber":74,"Velocity":40,"Duration":967742,"SoundDuration":967742,"Delta":30607413},{"NoteNumber":79,"Velocity":48,"Duration":967742,"SoundDuration":967742,"Delta":30607413},{"NoteNumber":59,"Velocity":34,"Duration":967742,"SoundDuration":967742,"Delta":30607413},{"NoteNumber":67,"Velocity":41,"Duration":967742,"SoundDuration":967742,"Delta":30607413},{"NoteNumber":76,"Velocity":47,"Duration":963855,"SoundDuration":963855,"Delta":31575155},{"NoteNumber":79,"Velocity":56,"Duration":963855,"SoundDuration":963855,"Delta":31575155},{"NoteNumber":60,"Velocity":41,"Duration":963855,"SoundDuration":963855,"Delta":31575155},{"NoteNumber":67,"Velocity":49,"Duration":963855,"SoundDuration":963855,"Delta":31575155},{"NoteNumber":76,"Velocity":46,"Duration":478050,"SoundDuration":478050,"Delta":32539011},{"NoteNumber":72,"Velocity":46,"Duration":951834,"SoundDuration":951834,"Delta":32539011},{"NoteNumber":60,"Velocity":50,"Duration":478050,"SoundDuration":478050,"Delta":32539011},{"NoteNumber":67,"Velocity":50,"Duration":951834,"SoundDuration":951834,"Delta":32539011},{"NoteNumber":77,"Velocity":41,"Duration":473784,"SoundDuration":473784,"Delta":33017061},{"NoteNumber":62,"Velocity":53,"Duration":473784,"SoundDuration":473784,"Delta":33017061},{"NoteNumber":72,"Velocity":42,"Duration":963855,"SoundDuration":963855,"Delta":33490845},{"NoteNumber":79,"Velocity":50,"Duration":963855,"SoundDuration":963855,"Delta":33490845},{"NoteNumber":64,"Velocity":39,"Duration":963855,"SoundDuration":963855,"Delta":33490845},{"NoteNumber":67,"Velocity":46,"Duration":963855,"SoundDuration":963855,"Delta":33490845},{"NoteNumber":72,"Velocity":40,"Duration":1015571,"SoundDuration":1015571,"Delta":34454701},{"NoteNumber":77,"Velocity":48,"Duration":1015571,"SoundDuration":1015571,"Delta":34454701},{"NoteNumber":62,"Velocity":37,"Duration":1015571,"SoundDuration":1015571,"Delta":34454701},{"NoteNumber":69,"Velocity":44,"Duration":1015571,"SoundDuration":1015571,"Delta":34454701},{"NoteNumber":71,"Velocity":42,"Duration":1105514,"SoundDuration":1105514,"Delta":35470273},{"NoteNumber":76,"Velocity":50,"Duration":1105514,"SoundDuration":1105514,"Delta":35470273},{"NoteNumber":64,"Velocity":32,"Duration":1105514,"SoundDuration":1105514,"Delta":35470273},{"NoteNumber":68,"Velocity":38,"Duration":1105514,"SoundDuration":1105514,"Delta":35470273},{"NoteNumber":72,"Velocity":51,"Duration":935015,"SoundDuration":935015,"Delta":36944293},{"NoteNumber":76,"Velocity":61,"Duration":935015,"SoundDuration":935015,"Delta":36944293},{"NoteNumber":69,"Velocity":56,"Duration":467508,"SoundDuration":467508,"Delta":36944293},{"NoteNumber":57,"Velocity":47,"Duration":467508,"SoundDuration":467508,"Delta":36944293},{"NoteNumber":55,"Velocity":45,"Duration":467507,"SoundDuration":467507,"Delta":37411801},{"NoteNumber":67,"Velocity":53,"Duration":467507,"SoundDuration":467507,"Delta":37411801},{"NoteNumber":81,"Velocity":58,"Duration":935016,"SoundDuration":935016,"Delta":37879309},{"NoteNumber":72,"Velocity":49,"Duration":935016,"SoundDuration":935016,"Delta":37879309},{"NoteNumber":77,"Velocity":49,"Duration":935016,"SoundDuration":935016,"Delta":37879309},{"NoteNumber":53,"Velocity":52,"Duration":935016,"SoundDuration":935016,"Delta":37879309},{"NoteNumber":65,"Velocity":62,"Duration":935016,"SoundDuration":935016,"Delta":37879309},{"NoteNumber":72,"Velocity":57,"Duration":933852,"SoundDuration":933852,"Delta":38814325},{"NoteNumber":74,"Velocity":57,"Duration":933852,"SoundDuration":933852,"Delta":38814325},{"NoteNumber":81,"Velocity":68,"Duration":933852,"SoundDuration":933852,"Delta":38814325},{"NoteNumber":66,"Velocity":66,"Duration":933852,"SoundDuration":933852,"Delta":38814325},{"NoteNumber":54,"Velocity":56,"Duration":933852,"SoundDuration":933852,"Delta":38814325},{"NoteNumber":79,"Velocity":72,"Duration":943322,"SoundDuration":943322,"Delta":39748177},{"NoteNumber":71,"Velocity":61,"Duration":943322,"SoundDuration":943322,"Delta":39748177},{"NoteNumber":74,"Velocity":61,"Duration":943322,"SoundDuration":943322,"Delta":39748177},{"NoteNumber":55,"Velocity":56,"Duration":943322,"SoundDuration":943322,"Delta":39748177},{"NoteNumber":67,"Velocity":66,"Duration":943322,"SoundDuration":943322,"Delta":39748177},{"NoteNumber":83,"Velocity":73,"Duration":930881,"SoundDuration":930881,"Delta":40691499},{"NoteNumber":74,"Velocity":62,"Duration":930881,"SoundDuration":930881,"Delta":40691499},{"NoteNumber":76,"Velocity":62,"Duration":930881,"SoundDuration":930881,"Delta":40691499},{"NoteNumber":68,"Velocity":72,"Duration":930881,"SoundDuration":930881,"Delta":40691499},{"NoteNumber":56,"Velocity":61,"Duration":930881,"SoundDuration":930881,"Delta":40691499},{"NoteNumber":72,"Velocity":62,"Duration":939188,"SoundDuration":939188,"Delta":41622381},{"NoteNumber":81,"Velocity":73,"Duration":939188,"SoundDuration":939188,"Delta":41622381},{"NoteNumber":84,"Velocity":73,"Duration":939188,"SoundDuration":939188,"Delta":41622381},{"NoteNumber":76,"Velocity":62,"Duration":939188,"SoundDuration":939188,"Delta":41622381},{"NoteNumber":57,"Velocity":56,"Duration":939188,"SoundDuration":939188,"Delta":41622381},{"NoteNumber":69,"Velocity":67,"Duration":939188,"SoundDuration":939188,"Delta":41622381},{"NoteNumber":81,"Velocity":72,"Duration":970111,"SoundDuration":970111,"Delta":42561569},{"NoteNumber":78,"Velocity":61,"Duration":970111,"SoundDuration":970111,"Delta":42561569},{"NoteNumber":62,"Velocity":51,"Duration":970111,"SoundDuration":970111,"Delta":42561569},{"NoteNumber":74,"Velocity":61,"Duration":457422,"SoundDuration":457422,"Delta":42561569},{"NoteNumber":72,"Velocity":58,"Duration":512689,"SoundDuration":512689,"Delta":43018991},{"NoteNumber":79,"Velocity":77,"Duration":1187962,"SoundDuration":1187962,"Delta":43531680},{"NoteNumber":74,"Velocity":65,"Duration":1187962,"SoundDuration":1187962,"Delta":43531680},{"NoteNumber":71,"Velocity":58,"Duration":1187962,"SoundDuration":1187962,"Delta":43531680},{"NoteNumber":67,"Velocity":49,"Duration":1187962,"SoundDuration":1187962,"Delta":43531680},{"NoteNumber":45,"Velocity":73,"Duration":1111245,"SoundDuration":1111245,"Delta":45112499},{"NoteNumber":52,"Velocity":57,"Duration":1070848,"SoundDuration":1070848,"Delta":45152895},{"NoteNumber":57,"Velocity":68,"Duration":1029409,"SoundDuration":1029409,"Delta":45194334},{"NoteNumber":60,"Velocity":65,"Duration":987194,"SoundDuration":987194,"Delta":45236549},{"NoteNumber":64,"Velocity":65,"Duration":943839,"SoundDuration":943839,"Delta":45279905},{"NoteNumber":69,"Velocity":69,"Duration":899633,"SoundDuration":899633,"Delta":45324110},{"NoteNumber":72,"Velocity":70,"Duration":854175,"SoundDuration":854175,"Delta":45369568},{"NoteNumber":67,"Velocity":71,"Duration":895589,"SoundDuration":895589,"Delta":46223744},{"NoteNumber":64,"Velocity":62,"Duration":895589,"SoundDuration":895589,"Delta":46223744},{"NoteNumber":59,"Velocity":62,"Duration":895589,"SoundDuration":895589,"Delta":46223744},{"NoteNumber":71,"Velocity":84,"Duration":895589,"SoundDuration":895589,"Delta":46223744},{"NoteNumber":52,"Velocity":75,"Duration":895589,"SoundDuration":895589,"Delta":46223744},{"NoteNumber":40,"Velocity":56,"Duration":895589,"SoundDuration":895589,"Delta":46223744},{"NoteNumber":41,"Velocity":69,"Duration":1131816,"SoundDuration":1131816,"Delta":47119334},{"NoteNumber":48,"Velocity":54,"Duration":1081811,"SoundDuration":1081811,"Delta":47169339},{"NoteNumber":53,"Velocity":74,"Duration":1033106,"SoundDuration":1033106,"Delta":47218044},{"NoteNumber":57,"Velocity":71,"Duration":985932,"SoundDuration":985932,"Delta":47265218},{"NoteNumber":60,"Velocity":62,"Duration":940101,"SoundDuration":940101,"Delta":47311049},{"NoteNumber":65,"Velocity":81,"Duration":895719,"SoundDuration":895719,"Delta":47355430},{"NoteNumber":69,"Velocity":70,"Duration":852364,"SoundDuration":852364,"Delta":47398786},{"NoteNumber":55,"Velocity":66,"Duration":947567,"SoundDuration":947567,"Delta":48251150},{"NoteNumber":60,"Velocity":74,"Duration":947567,"SoundDuration":947567,"Delta":48251150},{"NoteNumber":67,"Velocity":88,"Duration":947567,"SoundDuration":947567,"Delta":48251150},{"NoteNumber":64,"Velocity":74,"Duration":947567,"SoundDuration":947567,"Delta":48251150},{"NoteNumber":36,"Velocity":53,"Duration":947567,"SoundDuration":947567,"Delta":48251150},{"NoteNumber":48,"Velocity":70,"Duration":947567,"SoundDuration":947567,"Delta":48251150},{"NoteNumber":64,"Velocity":74,"Duration":947568,"SoundDuration":947568,"Delta":49198718},{"NoteNumber":57,"Velocity":66,"Duration":947568,"SoundDuration":947568,"Delta":49198718},{"NoteNumber":69,"Velocity":88,"Duration":947568,"SoundDuration":947568,"Delta":49198718},{"NoteNumber":37,"Velocity":51,"Duration":947568,"SoundDuration":947568,"Delta":49198718},{"NoteNumber":49,"Velocity":69,"Duration":947568,"SoundDuration":947568,"Delta":49198718},{"NoteNumber":65,"Velocity":91,"Duration":484574,"SoundDuration":484574,"Delta":50146286},{"NoteNumber":62,"Velocity":77,"Duration":969147,"SoundDuration":969147,"Delta":50146286},{"NoteNumber":57,"Velocity":68,"Duration":969147,"SoundDuration":969147,"Delta":50146286},{"NoteNumber":38,"Velocity":56,"Duration":969147,"SoundDuration":969147,"Delta":50146286},{"NoteNumber":50,"Velocity":74,"Duration":969147,"SoundDuration":969147,"Delta":50146286},{"NoteNumber":64,"Velocity":78,"Duration":484573,"SoundDuration":484573,"Delta":50630860},{"NoteNumber":59,"Velocity":77,"Duration":1051670,"SoundDuration":1051670,"Delta":51115434},{"NoteNumber":62,"Velocity":91,"Duration":1051670,"SoundDuration":1051670,"Delta":51115434},{"NoteNumber":31,"Velocity":56,"Duration":1051670,"SoundDuration":1051670,"Delta":51115434},{"NoteNumber":43,"Velocity":62,"Duration":1051670,"SoundDuration":1051670,"Delta":51115434},{"NoteNumber":55,"Velocity":74,"Duration":510204,"SoundDuration":510204,"Delta":51115434},{"NoteNumber":53,"Velocity":74,"Duration":541466,"SoundDuration":541466,"Delta":51625638},{"NoteNumber":60,"Velocity":93,"Duration":1293975,"SoundDuration":1293975,"Delta":52167105},{"NoteNumber":52,"Velocity":72,"Duration":452653,"SoundDuration":452653,"Delta":52167105},{"NoteNumber":55,"Velocity":85,"Duration":560223,"SoundDuration":560223,"Delta":52167105},{"NoteNumber":36,"Velocity":85,"Duration":112706,"SoundDuration":112706,"Delta":52167105},{"NoteNumber":43,"Velocity":57,"Duration":116341,"SoundDuration":116341,"Delta":52279812},{"NoteNumber":48,"Velocity":57,"Duration":112897,"SoundDuration":112897,"Delta":52396153},{"NoteNumber":52,"Velocity":64,"Duration":952029,"SoundDuration":952029,"Delta":52509051},{"NoteNumber":55,"Velocity":57,"Duration":841321,"SoundDuration":841321,"Delta":52619758},{"NoteNumber":60,"Velocity":57,"Duration":104328,"SoundDuration":104328,"Delta":52727329},{"NoteNumber":64,"Velocity":64,"Duration":103755,"SoundDuration":103755,"Delta":52831657},{"NoteNumber":67,"Velocity":58,"Duration":104138,"SoundDuration":104138,"Delta":52935413},{"NoteNumber":72,"Velocity":58,"Duration":104712,"SoundDuration":104712,"Delta":53039552},{"NoteNumber":76,"Velocity":64,"Duration":105092,"SoundDuration":105092,"Delta":53144264},{"NoteNumber":72,"Velocity":58,"Duration":105663,"SoundDuration":105663,"Delta":53249356},{"NoteNumber":67,"Velocity":58,"Duration":106060,"SoundDuration":106060,"Delta":53355020},{"NoteNumber":48,"Velocity":64,"Duration":100989,"SoundDuration":100989,"Delta":53461080},{"NoteNumber":55,"Velocity":57,"Duration":99762,"SoundDuration":99762,"Delta":53562070},{"NoteNumber":60,"Velocity":60,"Duration":98638,"SoundDuration":98638,"Delta":53661832},{"NoteNumber":64,"Velocity":68,"Duration":97781,"SoundDuration":97781,"Delta":53760471},{"NoteNumber":67,"Velocity":63,"Duration":96385,"SoundDuration":96385,"Delta":53858253},{"NoteNumber":72,"Velocity":64,"Duration":95346,"SoundDuration":95346,"Delta":53954638},{"NoteNumber":76,"Velocity":72,"Duration":95660,"SoundDuration":95660,"Delta":54049985},{"NoteNumber":79,"Velocity":68,"Duration":97036,"SoundDuration":97036,"Delta":54145645},{"NoteNumber":84,"Velocity":69,"Duration":98127,"SoundDuration":98127,"Delta":54242681},{"NoteNumber":88,"Velocity":78,"Duration":99583,"SoundDuration":99583,"Delta":54340809},{"NoteNumber":84,"Velocity":74,"Duration":100728,"SoundDuration":100728,"Delta":54440392},{"NoteNumber":79,"Velocity":74,"Duration":102276,"SoundDuration":102276,"Delta":54541121},{"NoteNumber":60,"Velocity":78,"Duration":96711,"SoundDuration":96711,"Delta":54643398},{"NoteNumber":67,"Velocity":70,"Duration":95581,"SoundDuration":95581,"Delta":54740109},{"NoteNumber":72,"Velocity":70,"Duration":94558,"SoundDuration":94558,"Delta":54835691},{"NoteNumber":76,"Velocity":78,"Duration":93250,"SoundDuration":93250,"Delta":54930250},{"NoteNumber":79,"Velocity":70,"Duration":91959,"SoundDuration":91959,"Delta":55023500},{"NoteNumber":84,"Velocity":70,"Duration":91808,"SoundDuration":91808,"Delta":55115460},{"NoteNumber":88,"Velocity":78,"Duration":93094,"SoundDuration":93094,"Delta":55207269},{"NoteNumber":91,"Velocity":72,"Duration":94094,"SoundDuration":94094,"Delta":55300363},{"NoteNumber":96,"Velocity":72,"Duration":95425,"SoundDuration":95425,"Delta":55394457},{"NoteNumber":100,"Velocity":78,"Duration":96466,"SoundDuration":96466,"Delta":55489882},{"NoteNumber":96,"Velocity":72,"Duration":97868,"SoundDuration":97868,"Delta":55586349},{"NoteNumber":91,"Velocity":72,"Duration":98974,"SoundDuration":98974,"Delta":55684217},{"NoteNumber":60,"Velocity":78,"Duration":95895,"SoundDuration":95895,"Delta":55783191},{"NoteNumber":67,"Velocity":69,"Duration":94795,"SoundDuration":94795,"Delta":55879087},{"NoteNumber":72,"Velocity":68,"Duration":94018,"SoundDuration":94018,"Delta":55973882},{"NoteNumber":76,"Velocity":74,"Duration":93015,"SoundDuration":93015,"Delta":56067901},{"NoteNumber":79,"Velocity":67,"Duration":91228,"SoundDuration":91228,"Delta":56160917},{"NoteNumber":84,"Velocity":66,"Duration":93722,"SoundDuration":93722,"Delta":56252145},{"NoteNumber":88,"Velocity":72,"Duration":99420,"SoundDuration":99420,"Delta":56345867},{"NoteNumber":91,"Velocity":66,"Duration":105892,"SoundDuration":105892,"Delta":56445288},{"NoteNumber":96,"Velocity":66,"Duration":113265,"SoundDuration":113265,"Delta":56551180},{"NoteNumber":100,"Velocity":58,"Duration":121335,"SoundDuration":121335,"Delta":56664445},{"NoteNumber":96,"Velocity":53,"Duration":145734,"SoundDuration":145734,"Delta":56785781},{"NoteNumber":91,"Velocity":48,"Duration":162919,"SoundDuration":162919,"Delta":56931515},{"NoteNumber":96,"Velocity":62,"Duration":3071788,"SoundDuration":3071788,"Delta":57094435},{"NoteNumber":88,"Velocity":52,"Duration":3071788,"SoundDuration":3071788,"Delta":57094435},{"NoteNumber":76,"Velocity":52,"Duration":3071788,"SoundDuration":3071788,"Delta":57094435},{"NoteNumber":79,"Velocity":62,"Duration":3071788,"SoundDuration":3071788,"Delta":57094435},{"NoteNumber":72,"Velocity":52,"Duration":3071788,"SoundDuration":3071788,"Delta":57094435},{"NoteNumber":60,"Velocity":61,"Duration":233030,"SoundDuration":233030,"Delta":60920941},{"NoteNumber":60,"Velocity":58,"Duration":173290,"SoundDuration":173290,"Delta":61385024},{"NoteNumber":60,"Velocity":52,"Duration":57763,"SoundDuration":57763,"Delta":61731605},{"NoteNumber":60,"Velocity":60,"Duration":231053,"SoundDuration":231053,"Delta":61847131},{"NoteNumber":60,"Velocity":58,"Duration":237811,"SoundDuration":237811,"Delta":62309238},{"NoteNumber":60,"Velocity":58,"Duration":231053,"SoundDuration":231053,"Delta":62784862},{"NoteNumber":64,"Velocity":69,"Duration":231053,"SoundDuration":231053,"Delta":62784862},{"NoteNumber":60,"Velocity":53,"Duration":173290,"SoundDuration":173290,"Delta":63246969},{"NoteNumber":64,"Velocity":63,"Duration":173290,"SoundDuration":173290,"Delta":63246969},{"NoteNumber":60,"Velocity":49,"Duration":57763,"SoundDuration":57763,"Delta":63593550},{"NoteNumber":64,"Velocity":58,"Duration":57763,"SoundDuration":57763,"Delta":63593550},{"NoteNumber":60,"Velocity":58,"Duration":231053,"SoundDuration":231053,"Delta":63709076},{"NoteNumber":64,"Velocity":69,"Duration":231053,"SoundDuration":231053,"Delta":63709076},{"NoteNumber":60,"Velocity":53,"Duration":235830,"SoundDuration":235830,"Delta":64171183},{"NoteNumber":64,"Velocity":63,"Duration":235830,"SoundDuration":235830,"Delta":64171183},{"NoteNumber":67,"Velocity":72,"Duration":230131,"SoundDuration":230131,"Delta":64642844},{"NoteNumber":60,"Velocity":61,"Duration":230131,"SoundDuration":230131,"Delta":64642844},{"NoteNumber":64,"Velocity":61,"Duration":230131,"SoundDuration":230131,"Delta":64642844},{"NoteNumber":60,"Velocity":58,"Duration":230132,"SoundDuration":230132,"Delta":65103108},{"NoteNumber":67,"Velocity":69,"Duration":230132,"SoundDuration":230132,"Delta":65103108},{"NoteNumber":64,"Velocity":58,"Duration":230132,"SoundDuration":230132,"Delta":65103108},{"NoteNumber":66,"Velocity":72,"Duration":234870,"SoundDuration":234870,"Delta":65563372},{"NoteNumber":63,"Velocity":61,"Duration":234870,"SoundDuration":234870,"Delta":65563372},{"NoteNumber":60,"Velocity":61,"Duration":234870,"SoundDuration":234870,"Delta":65563372},{"NoteNumber":69,"Velocity":72,"Duration":234870,"SoundDuration":234870,"Delta":65563372},{"NoteNumber":60,"Velocity":58,"Duration":240808,"SoundDuration":240808,"Delta":66033113},{"NoteNumber":69,"Velocity":69,"Duration":240808,"SoundDuration":240808,"Delta":66033113},{"NoteNumber":63,"Velocity":58,"Duration":240808,"SoundDuration":240808,"Delta":66033113},{"NoteNumber":66,"Velocity":69,"Duration":240808,"SoundDuration":240808,"Delta":66033113},{"NoteNumber":60,"Velocity":61,"Duration":1431375,"SoundDuration":1431375,"Delta":66514731},{"NoteNumber":64,"Velocity":61,"Duration":1431375,"SoundDuration":1431375,"Delta":66514731},{"NoteNumber":70,"Velocity":72,"Duration":1431375,"SoundDuration":1431375,"Delta":66514731},{"NoteNumber":67,"Velocity":61,"Duration":1431375,"SoundDuration":1431375,"Delta":66514731},{"NoteNumber":48,"Velocity":57,"Duration":119522,"SoundDuration":119522,"Delta":66981657},{"NoteNumber":50,"Velocity":59,"Duration":119522,"SoundDuration":119522,"Delta":67101179},{"NoteNumber":52,"Velocity":62,"Duration":119521,"SoundDuration":119521,"Delta":67220701},{"NoteNumber":53,"Velocity":63,"Duration":119522,"SoundDuration":119522,"Delta":67340223},{"NoteNumber":55,"Velocity":66,"Duration":120160,"SoundDuration":120160,"Delta":67459745},{"NoteNumber":53,"Velocity":64,"Duration":121131,"SoundDuration":121131,"Delta":67579906},{"NoteNumber":52,"Velocity":63,"Duration":122117,"SoundDuration":122117,"Delta":67701037},{"NoteNumber":50,"Velocity":62,"Duration":122952,"SoundDuration":122952,"Delta":67823154},{"NoteNumber":48,"Velocity":61,"Duration":123968,"SoundDuration":123968,"Delta":67946106},{"NoteNumber":46,"Velocity":60,"Duration":125001,"SoundDuration":125001,"Delta":68070075},{"NoteNumber":45,"Velocity":59,"Duration":123966,"SoundDuration":123966,"Delta":68195076},{"NoteNumber":43,"Velocity":58,"Duration":126258,"SoundDuration":126258,"Delta":68319043},{"NoteNumber":60,"Velocity":59,"Duration":244242,"SoundDuration":244242,"Delta":68445302},{"NoteNumber":57,"Velocity":59,"Duration":244242,"SoundDuration":244242,"Delta":68445302},{"NoteNumber":65,"Velocity":70,"Duration":244242,"SoundDuration":244242,"Delta":68445302},{"NoteNumber":41,"Velocity":56,"Duration":244242,"SoundDuration":244242,"Delta":68445302},{"NoteNumber":57,"Velocity":46,"Duration":248900,"SoundDuration":248900,"Delta":68689544},{"NoteNumber":65,"Velocity":55,"Duration":248900,"SoundDuration":248900,"Delta":68689544},{"NoteNumber":60,"Velocity":46,"Duration":248900,"SoundDuration":248900,"Delta":68689544},{"NoteNumber":53,"Velocity":41,"Duration":248900,"SoundDuration":248900,"Delta":68689544},{"NoteNumber":57,"Velocity":51,"Duration":244898,"SoundDuration":244898,"Delta":68938445},{"NoteNumber":60,"Velocity":51,"Duration":244898,"SoundDuration":244898,"Delta":68938445},{"NoteNumber":65,"Velocity":61,"Duration":244898,"SoundDuration":244898,"Delta":68938445},{"NoteNumber":41,"Velocity":46,"Duration":244898,"SoundDuration":244898,"Delta":68938445},{"NoteNumber":60,"Velocity":57,"Duration":187437,"SoundDuration":187437,"Delta":69183343},{"NoteNumber":57,"Velocity":48,"Duration":187437,"SoundDuration":187437,"Delta":69183343},{"NoteNumber":53,"Velocity":40,"Duration":187437,"SoundDuration":187437,"Delta":69183343},{"NoteNumber":69,"Velocity":70,"Duration":245881,"SoundDuration":245881,"Delta":69433259},{"NoteNumber":65,"Velocity":59,"Duration":245881,"SoundDuration":245881,"Delta":69433259},{"NoteNumber":60,"Velocity":59,"Duration":245881,"SoundDuration":245881,"Delta":69433259},{"NoteNumber":41,"Velocity":57,"Duration":245881,"SoundDuration":245881,"Delta":69433259},{"NoteNumber":60,"Velocity":47,"Duration":249916,"SoundDuration":249916,"Delta":69679141},{"NoteNumber":65,"Velocity":47,"Duration":249916,"SoundDuration":249916,"Delta":69679141},{"NoteNumber":69,"Velocity":56,"Duration":249916,"SoundDuration":249916,"Delta":69679141},{"NoteNumber":53,"Velocity":50,"Duration":249916,"SoundDuration":249916,"Delta":69679141},{"NoteNumber":65,"Velocity":52,"Duration":245881,"SoundDuration":245881,"Delta":69929057},{"NoteNumber":60,"Velocity":52,"Duration":245881,"SoundDuration":245881,"Delta":69929057},{"NoteNumber":69,"Velocity":62,"Duration":245881,"SoundDuration":245881,"Delta":69929057},{"NoteNumber":41,"Velocity":55,"Duration":245881,"SoundDuration":245881,"Delta":69929057},{"NoteNumber":60,"Velocity":48,"Duration":191359,"SoundDuration":191359,"Delta":70174939},{"NoteNumber":65,"Velocity":57,"Duration":191359,"SoundDuration":191359,"Delta":70174939},{"NoteNumber":53,"Velocity":49,"Duration":191359,"SoundDuration":191359,"Delta":70174939},{"NoteNumber":69,"Velocity":58,"Duration":184668,"SoundDuration":184668,"Delta":70430084},{"NoteNumber":72,"Velocity":69,"Duration":184668,"SoundDuration":184668,"Delta":70430084},{"NoteNumber":41,"Velocity":58,"Duration":184668,"SoundDuration":184668,"Delta":70430084},{"NoteNumber":69,"Velocity":50,"Duration":185185,"SoundDuration":185185,"Delta":70676309},{"NoteNumber":72,"Velocity":59,"Duration":185185,"SoundDuration":185185,"Delta":70676309},{"NoteNumber":53,"Velocity":50,"Duration":185185,"SoundDuration":185185,"Delta":70676309},{"NoteNumber":67,"Velocity":56,"Duration":185185,"SoundDuration":185185,"Delta":70923222},{"NoteNumber":70,"Velocity":66,"Duration":185185,"SoundDuration":185185,"Delta":70923222},{"NoteNumber":52,"Velocity":56,"Duration":185185,"SoundDuration":185185,"Delta":70923222},{"NoteNumber":70,"Velocity":57,"Duration":186721,"SoundDuration":186721,"Delta":71170136},{"NoteNumber":67,"Velocity":48,"Duration":186721,"SoundDuration":186721,"Delta":71170136},{"NoteNumber":60,"Velocity":49,"Duration":186721,"SoundDuration":186721,"Delta":71170136},{"NoteNumber":65,"Velocity":53,"Duration":184426,"SoundDuration":184426,"Delta":71419098},{"NoteNumber":69,"Velocity":63,"Duration":184426,"SoundDuration":184426,"Delta":71419098},{"NoteNumber":53,"Velocity":56,"Duration":184426,"SoundDuration":184426,"Delta":71419098},{"NoteNumber":69,"Velocity":53,"Duration":230048,"SoundDuration":230048,"Delta":71665000},{"NoteNumber":65,"Velocity":45,"Duration":230048,"SoundDuration":230048,"Delta":71665000},{"NoteNumber":60,"Velocity":41,"Duration":230048,"SoundDuration":230048,"Delta":71665000},{"NoteNumber":64,"Velocity":52,"Duration":471157,"SoundDuration":471157,"Delta":71915962},{"NoteNumber":67,"Velocity":62,"Duration":471157,"SoundDuration":471157,"Delta":71915962},{"NoteNumber":48,"Velocity":48,"Duration":243922,"SoundDuration":243922,"Delta":71915962},{"NoteNumber":60,"Velocity":38,"Duration":227235,"SoundDuration":227235,"Delta":72159884},{"NoteNumber":57,"Velocity":59,"Duration":245881,"SoundDuration":245881,"Delta":72407777},{"NoteNumber":60,"Velocity":59,"Duration":245881,"SoundDuration":245881,"Delta":72407777},{"NoteNumber":65,"Velocity":70,"Duration":245881,"SoundDuration":245881,"Delta":72407777},{"NoteNumber":41,"Velocity":56,"Duration":245881,"SoundDuration":245881,"Delta":72407777},{"NoteNumber":65,"Velocity":55,"Duration":250962,"SoundDuration":250962,"Delta":72653659},{"NoteNumber":57,"Velocity":46,"Duration":250962,"SoundDuration":250962,"Delta":72653659},{"NoteNumber":60,"Velocity":46,"Duration":250962,"SoundDuration":250962,"Delta":72653659},{"NoteNumber":53,"Velocity":41,"Duration":250962,"SoundDuration":250962,"Delta":72653659},{"NoteNumber":57,"Velocity":51,"Duration":245881,"SoundDuration":245881,"Delta":72904621},{"NoteNumber":60,"Velocity":51,"Duration":245881,"SoundDuration":245881,"Delta":72904621},{"NoteNumber":65,"Velocity":61,"Duration":245881,"SoundDuration":245881,"Delta":72904621},{"NoteNumber":41,"Velocity":46,"Duration":245881,"SoundDuration":245881,"Delta":72904621},{"NoteNumber":57,"Velocity":48,"Duration":188221,"SoundDuration":188221,"Delta":73150502},{"NoteNumber":60,"Velocity":57,"Duration":188221,"SoundDuration":188221,"Delta":73150502},{"NoteNumber":53,"Velocity":40,"Duration":188221,"SoundDuration":188221,"Delta":73150502},{"NoteNumber":60,"Velocity":58,"Duration":245881,"SoundDuration":245881,"Delta":73401464},{"NoteNumber":65,"Velocity":58,"Duration":245881,"SoundDuration":245881,"Delta":73401464},{"NoteNumber":69,"Velocity":69,"Duration":245881,"SoundDuration":245881,"Delta":73401464},{"NoteNumber":41,"Velocity":57,"Duration":245881,"SoundDuration":245881,"Delta":73401464},{"NoteNumber":69,"Velocity":56,"Duration":249916,"SoundDuration":249916,"Delta":73647346},{"NoteNumber":60,"Velocity":47,"Duration":249916,"SoundDuration":249916,"Delta":73647346},{"NoteNumber":65,"Velocity":47,"Duration":249916,"SoundDuration":249916,"Delta":73647346},{"NoteNumber":53,"Velocity":50,"Duration":249916,"SoundDuration":249916,"Delta":73647346},{"NoteNumber":60,"Velocity":52,"Duration":247137,"SoundDuration":247137,"Delta":73897262},{"NoteNumber":65,"Velocity":52,"Duration":247137,"SoundDuration":247137,"Delta":73897262},{"NoteNumber":69,"Velocity":62,"Duration":247137,"SoundDuration":247137,"Delta":73897262},{"NoteNumber":41,"Velocity":55,"Duration":247137,"SoundDuration":247137,"Delta":73897262},{"NoteNumber":60,"Velocity":48,"Duration":192176,"SoundDuration":192176,"Delta":74144400},{"NoteNumber":65,"Velocity":57,"Duration":192176,"SoundDuration":192176,"Delta":74144400},{"NoteNumber":53,"Velocity":49,"Duration":192176,"SoundDuration":192176,"Delta":74144400},{"NoteNumber":72,"Velocity":69,"Duration":185950,"SoundDuration":185950,"Delta":74402253},{"NoteNumber":69,"Velocity":58,"Duration":185950,"SoundDuration":185950,"Delta":74402253},{"NoteNumber":41,"Velocity":58,"Duration":185950,"SoundDuration":185950,"Delta":74402253},{"NoteNumber":69,"Velocity":50,"Duration":187500,"SoundDuration":187500,"Delta":74650187},{"NoteNumber":72,"Velocity":59,"Duration":187500,"SoundDuration":187500,"Delta":74650187},{"NoteNumber":53,"Velocity":50,"Duration":187500,"SoundDuration":187500,"Delta":74650187},{"NoteNumber":70,"Velocity":66,"Duration":185950,"SoundDuration":185950,"Delta":74900187},{"NoteNumber":67,"Velocity":56,"Duration":185950,"SoundDuration":185950,"Delta":74900187},{"NoteNumber":52,"Velocity":56,"Duration":185950,"SoundDuration":185950,"Delta":74900187},{"NoteNumber":67,"Velocity":48,"Duration":187500,"SoundDuration":187500,"Delta":75148121},{"NoteNumber":70,"Velocity":57,"Duration":187500,"SoundDuration":187500,"Delta":75148121},{"NoteNumber":60,"Velocity":49,"Duration":187500,"SoundDuration":187500,"Delta":75148121},{"NoteNumber":65,"Velocity":53,"Duration":186721,"SoundDuration":186721,"Delta":75398121},{"NoteNumber":69,"Velocity":63,"Duration":186721,"SoundDuration":186721,"Delta":75398121},{"NoteNumber":53,"Velocity":56,"Duration":186721,"SoundDuration":186721,"Delta":75398121},{"NoteNumber":65,"Velocity":45,"Duration":187437,"SoundDuration":187437,"Delta":75647083},{"NoteNumber":69,"Velocity":53,"Duration":187437,"SoundDuration":187437,"Delta":75647083},{"NoteNumber":60,"Velocity":41,"Duration":187437,"SoundDuration":187437,"Delta":75647083},{"NoteNumber":64,"Velocity":52,"Duration":487690,"SoundDuration":487690,"Delta":75897000},{"NoteNumber":67,"Velocity":62,"Duration":487690,"SoundDuration":487690,"Delta":75897000},{"NoteNumber":48,"Velocity":48,"Duration":250584,"SoundDuration":250584,"Delta":75897000},{"NoteNumber":60,"Velocity":38,"Duration":237106,"SoundDuration":237106,"Delta":76147584},{"NoteNumber":69,"Velocity":61,"Duration":127661,"SoundDuration":127661,"Delta":76405928},{"NoteNumber":72,"Velocity":72,"Duration":127661,"SoundDuration":127661,"Delta":76405928},{"NoteNumber":41,"Velocity":48,"Duration":510705,"SoundDuration":510705,"Delta":76405928},{"NoteNumber":53,"Velocity":57,"Duration":510705,"SoundDuration":510705,"Delta":76405928},{"NoteNumber":72,"Velocity":64,"Duration":127681,"SoundDuration":127681,"Delta":76661270},{"NoteNumber":69,"Velocity":54,"Duration":127681,"SoundDuration":127681,"Delta":76661270},{"NoteNumber":65,"Velocity":61,"Duration":255362,"SoundDuration":255362,"Delta":76916633},{"NoteNumber":69,"Velocity":72,"Duration":255362,"SoundDuration":255362,"Delta":76916633},{"NoteNumber":65,"Velocity":66,"Duration":264107,"SoundDuration":264107,"Delta":77171995},{"NoteNumber":74,"Velocity":78,"Duration":132054,"SoundDuration":132054,"Delta":77436103},{"NoteNumber":65,"Velocity":66,"Duration":132054,"SoundDuration":132054,"Delta":77436103},{"NoteNumber":70,"Velocity":66,"Duration":132054,"SoundDuration":132054,"Delta":77436103},{"NoteNumber":34,"Velocity":52,"Duration":132054,"SoundDuration":132054,"Delta":77436103},{"NoteNumber":46,"Velocity":62,"Duration":132054,"SoundDuration":132054,"Delta":77436103},{"NoteNumber":65,"Velocity":60,"Duration":132053,"SoundDuration":132053,"Delta":77700211},{"NoteNumber":70,"Velocity":60,"Duration":132053,"SoundDuration":132053,"Delta":77700211},{"NoteNumber":74,"Velocity":71,"Duration":132053,"SoundDuration":132053,"Delta":77700211},{"NoteNumber":50,"Velocity":57,"Duration":132053,"SoundDuration":132053,"Delta":77700211},{"NoteNumber":38,"Velocity":48,"Duration":132053,"SoundDuration":132053,"Delta":77700211},{"NoteNumber":72,"Velocity":70,"Duration":506207,"SoundDuration":506207,"Delta":77964319},{"NoteNumber":65,"Velocity":65,"Duration":506207,"SoundDuration":506207,"Delta":77964319},{"NoteNumber":69,"Velocity":65,"Duration":506207,"SoundDuration":506207,"Delta":77964319},{"NoteNumber":41,"Velocity":58,"Duration":506207,"SoundDuration":506207,"Delta":77964319},{"NoteNumber":53,"Velocity":69,"Duration":506207,"SoundDuration":506207,"Delta":77964319},{"NoteNumber":65,"Velocity":68,"Duration":396162,"SoundDuration":396162,"Delta":78492535},{"NoteNumber":69,"Velocity":68,"Duration":396162,"SoundDuration":396162,"Delta":78492535},{"NoteNumber":77,"Velocity":81,"Duration":396162,"SoundDuration":396162,"Delta":78492535},{"NoteNumber":72,"Velocity":68,"Duration":396162,"SoundDuration":396162,"Delta":78492535},{"NoteNumber":48,"Velocity":69,"Duration":1042659,"SoundDuration":1042659,"Delta":78492535},{"NoteNumber":36,"Velocity":58,"Duration":1042659,"SoundDuration":1042659,"Delta":78492535},{"NoteNumber":72,"Velocity":77,"Duration":127150,"SoundDuration":127150,"Delta":78888697},{"NoteNumber":69,"Velocity":83,"Duration":259673,"SoundDuration":259673,"Delta":79015848},{"NoteNumber":65,"Velocity":71,"Duration":259672,"SoundDuration":259672,"Delta":79275521},{"NoteNumber":64,"Velocity":62,"Duration":133179,"SoundDuration":133179,"Delta":79535194},{"NoteNumber":72,"Velocity":74,"Duration":133179,"SoundDuration":133179,"Delta":79535194},{"NoteNumber":67,"Velocity":62,"Duration":133179,"SoundDuration":133179,"Delta":79535194},{"NoteNumber":48,"Velocity":50,"Duration":133179,"SoundDuration":133179,"Delta":79535194},{"NoteNumber":58,"Velocity":59,"Duration":133179,"SoundDuration":133179,"Delta":79535194},{"NoteNumber":64,"Velocity":54,"Duration":137337,"SoundDuration":137337,"Delta":79801553},{"NoteNumber":67,"Velocity":54,"Duration":137337,"SoundDuration":137337,"Delta":79801553},{"NoteNumber":72,"Velocity":64,"Duration":137337,"SoundDuration":137337,"Delta":79801553},{"NoteNumber":58,"Velocity":57,"Duration":137337,"SoundDuration":137337,"Delta":79801553},{"NoteNumber":48,"Velocity":48,"Duration":137337,"SoundDuration":137337,"Delta":79801553},{"NoteNumber":65,"Velocity":72,"Duration":423250,"SoundDuration":423250,"Delta":80076228},{"NoteNumber":53,"Velocity":51,"Duration":423250,"SoundDuration":423250,"Delta":80076228},{"NoteNumber":57,"Velocity":60,"Duration":423250,"SoundDuration":423250,"Delta":80076228},{"NoteNumber":72,"Velocity":58,"Duration":126246,"SoundDuration":126246,"Delta":80641149},{"NoteNumber":52,"Velocity":49,"Duration":251246,"SoundDuration":251246,"Delta":80641149},{"NoteNumber":58,"Velocity":58,"Duration":251246,"SoundDuration":251246,"Delta":80641149},{"NoteNumber":74,"Velocity":60,"Duration":125000,"SoundDuration":125000,"Delta":80767395},{"NoteNumber":76,"Velocity":62,"Duration":124481,"SoundDuration":124481,"Delta":80892395},{"NoteNumber":60,"Velocity":51,"Duration":248962,"SoundDuration":248962,"Delta":80892395},{"NoteNumber":77,"Velocity":64,"Duration":124481,"SoundDuration":124481,"Delta":81016877},{"NoteNumber":79,"Velocity":66,"Duration":123626,"SoundDuration":123626,"Delta":81141358},{"NoteNumber":48,"Velocity":58,"Duration":247936,"SoundDuration":247936,"Delta":81141358},{"NoteNumber":77,"Velocity":64,"Duration":124309,"SoundDuration":124309,"Delta":81264985},{"NoteNumber":76,"Velocity":62,"Duration":125174,"SoundDuration":125174,"Delta":81389295},{"NoteNumber":60,"Velocity":52,"Duration":251226,"SoundDuration":251226,"Delta":81389295},{"NoteNumber":74,"Velocity":61,"Duration":126051,"SoundDuration":126051,"Delta":81514469},{"NoteNumber":72,"Velocity":66,"Duration":127043,"SoundDuration":127043,"Delta":81640521},{"NoteNumber":53,"Velocity":49,"Duration":254086,"SoundDuration":254086,"Delta":81640521},{"NoteNumber":57,"Velocity":58,"Duration":254086,"SoundDuration":254086,"Delta":81640521},{"NoteNumber":77,"Velocity":59,"Duration":127043,"SoundDuration":127043,"Delta":81767564},{"NoteNumber":81,"Velocity":66,"Duration":124885,"SoundDuration":124885,"Delta":81894607},{"NoteNumber":60,"Velocity":52,"Duration":249770,"SoundDuration":249770,"Delta":81894607},{"NoteNumber":77,"Velocity":61,"Duration":124885,"SoundDuration":124885,"Delta":82019493},{"NoteNumber":84,"Velocity":66,"Duration":249771,"SoundDuration":249771,"Delta":82144378},{"NoteNumber":48,"Velocity":58,"Duration":249771,"SoundDuration":249771,"Delta":82144378},{"NoteNumber":60,"Velocity":52,"Duration":258554,"SoundDuration":258554,"Delta":82394149},{"NoteNumber":84,"Velocity":61,"Duration":122950,"SoundDuration":122950,"Delta":82652703},{"NoteNumber":58,"Velocity":58,"Duration":245734,"SoundDuration":245734,"Delta":82652703},{"NoteNumber":52,"Velocity":49,"Duration":245734,"SoundDuration":245734,"Delta":82652703},{"NoteNumber":86,"Velocity":62,"Duration":122783,"SoundDuration":122783,"Delta":82775654},{"NoteNumber":88,"Velocity":63,"Duration":122449,"SoundDuration":122449,"Delta":82898438},{"NoteNumber":60,"Velocity":52,"Duration":244400,"SoundDuration":244400,"Delta":82898438},{"NoteNumber":89,"Velocity":66,"Duration":121951,"SoundDuration":121951,"Delta":83020887},{"NoteNumber":91,"Velocity":68,"Duration":242916,"SoundDuration":242916,"Delta":83142838},{"NoteNumber":48,"Velocity":58,"Duration":242916,"SoundDuration":242916,"Delta":83142838},{"NoteNumber":60,"Velocity":52,"Duration":258554,"SoundDuration":258554,"Delta":83385754},{"NoteNumber":89,"Velocity":59,"Duration":121457,"SoundDuration":121457,"Delta":83644308},{"NoteNumber":57,"Velocity":58,"Duration":242914,"SoundDuration":242914,"Delta":83644308},{"NoteNumber":53,"Velocity":49,"Duration":242914,"SoundDuration":242914,"Delta":83644308},{"NoteNumber":91,"Velocity":62,"Duration":121457,"SoundDuration":121457,"Delta":83765766},{"NoteNumber":93,"Velocity":63,"Duration":120967,"SoundDuration":120967,"Delta":83887223},{"NoteNumber":60,"Velocity":53,"Duration":241773,"SoundDuration":241773,"Delta":83887223},{"NoteNumber":94,"Velocity":67,"Duration":120805,"SoundDuration":120805,"Delta":84008191},{"NoteNumber":96,"Velocity":70,"Duration":240642,"SoundDuration":240642,"Delta":84128997},{"NoteNumber":48,"Velocity":58,"Duration":240642,"SoundDuration":240642,"Delta":84128997},{"NoteNumber":60,"Velocity":53,"Duration":257422,"SoundDuration":257422,"Delta":84369639},{"NoteNumber":72,"Velocity":58,"Duration":122950,"SoundDuration":122950,"Delta":84627062},{"NoteNumber":52,"Velocity":49,"Duration":245233,"SoundDuration":245233,"Delta":84627062},{"NoteNumber":58,"Velocity":58,"Duration":245233,"SoundDuration":245233,"Delta":84627062},{"NoteNumber":74,"Velocity":60,"Duration":122283,"SoundDuration":122283,"Delta":84750013},{"NoteNumber":76,"Velocity":62,"Duration":121786,"SoundDuration":121786,"Delta":84872296},{"NoteNumber":60,"Velocity":51,"Duration":242917,"SoundDuration":242917,"Delta":84872296},{"NoteNumber":77,"Velocity":64,"Duration":121130,"SoundDuration":121130,"Delta":84994082},{"NoteNumber":79,"Velocity":66,"Duration":120643,"SoundDuration":120643,"Delta":85115213},{"NoteNumber":48,"Velocity":58,"Duration":241938,"SoundDuration":241938,"Delta":85115213},{"NoteNumber":77,"Velocity":64,"Duration":121294,"SoundDuration":121294,"Delta":85235857},{"NoteNumber":76,"Velocity":62,"Duration":122117,"SoundDuration":122117,"Delta":85357152},{"NoteNumber":60,"Velocity":52,"Duration":245069,"SoundDuration":245069,"Delta":85357152},{"NoteNumber":74,"Velocity":61,"Duration":122952,"SoundDuration":122952,"Delta":85479269},{"NoteNumber":72,"Velocity":66,"Duration":121951,"SoundDuration":121951,"Delta":85602221},{"NoteNumber":53,"Velocity":49,"Duration":243902,"SoundDuration":243902,"Delta":85602221},{"NoteNumber":57,"Velocity":58,"Duration":243902,"SoundDuration":243902,"Delta":85602221},{"NoteNumber":77,"Velocity":59,"Duration":121951,"SoundDuration":121951,"Delta":85724172},{"NoteNumber":81,"Velocity":66,"Duration":120481,"SoundDuration":120481,"Delta":85846123},{"NoteNumber":60,"Velocity":52,"Duration":240964,"SoundDuration":240964,"Delta":85846123},{"NoteNumber":77,"Velocity":61,"Duration":120482,"SoundDuration":120482,"Delta":85966605},{"NoteNumber":84,"Velocity":66,"Duration":240963,"SoundDuration":240963,"Delta":86087087},{"NoteNumber":48,"Velocity":58,"Duration":240963,"SoundDuration":240963,"Delta":86087087},{"NoteNumber":60,"Velocity":52,"Duration":258554,"SoundDuration":258554,"Delta":86328051},{"NoteNumber":84,"Velocity":58,"Duration":122950,"SoundDuration":122950,"Delta":86586605},{"NoteNumber":52,"Velocity":49,"Duration":245567,"SoundDuration":245567,"Delta":86586605},{"NoteNumber":58,"Velocity":58,"Duration":245567,"SoundDuration":245567,"Delta":86586605},{"NoteNumber":86,"Velocity":60,"Duration":122616,"SoundDuration":122616,"Delta":86709556},{"NoteNumber":88,"Velocity":62,"Duration":122283,"SoundDuration":122283,"Delta":86832172},{"NoteNumber":60,"Velocity":51,"Duration":244234,"SoundDuration":244234,"Delta":86832172},{"NoteNumber":89,"Velocity":64,"Duration":121951,"SoundDuration":121951,"Delta":86954456},{"NoteNumber":91,"Velocity":66,"Duration":121457,"SoundDuration":121457,"Delta":87076407},{"NoteNumber":48,"Velocity":58,"Duration":243574,"SoundDuration":243574,"Delta":87076407},{"NoteNumber":88,"Velocity":64,"Duration":122117,"SoundDuration":122117,"Delta":87197864},{"NoteNumber":86,"Velocity":62,"Duration":122783,"SoundDuration":122783,"Delta":87319981},{"NoteNumber":60,"Velocity":52,"Duration":246410,"SoundDuration":246410,"Delta":87319981},{"NoteNumber":84,"Velocity":61,"Duration":123626,"SoundDuration":123626,"Delta":87442765},{"NoteNumber":89,"Velocity":68,"Duration":126582,"SoundDuration":126582,"Delta":87566392},{"NoteNumber":57,"Velocity":56,"Duration":126582,"SoundDuration":126582,"Delta":87566392},{"NoteNumber":53,"Velocity":47,"Duration":126582,"SoundDuration":126582,"Delta":87566392},{"NoteNumber":87,"Velocity":67,"Duration":125523,"SoundDuration":125523,"Delta":87819556},{"NoteNumber":89,"Velocity":63,"Duration":125523,"SoundDuration":125523,"Delta":87945079},{"NoteNumber":91,"Velocity":67,"Duration":125523,"SoundDuration":125523,"Delta":88070602},{"NoteNumber":89,"Velocity":63,"Duration":125523,"SoundDuration":125523,"Delta":88196125},{"NoteNumber":87,"Velocity":67,"Duration":125523,"SoundDuration":125523,"Delta":88321648},{"NoteNumber":86,"Velocity":63,"Duration":125523,"SoundDuration":125523,"Delta":88447171},{"NoteNumber":84,"Velocity":69,"Duration":125522,"SoundDuration":125522,"Delta":88572694},{"NoteNumber":63,"Velocity":53,"Duration":125522,"SoundDuration":125522,"Delta":88572694},{"NoteNumber":57,"Velocity":45,"Duration":125522,"SoundDuration":125522,"Delta":88572694},{"NoteNumber":53,"Velocity":45,"Duration":125522,"SoundDuration":125522,"Delta":88572694},{"NoteNumber":60,"Velocity":45,"Duration":125522,"SoundDuration":125522,"Delta":88572694},{"NoteNumber":84,"Velocity":67,"Duration":125523,"SoundDuration":125523,"Delta":88823740},{"NoteNumber":86,"Velocity":63,"Duration":125523,"SoundDuration":125523,"Delta":88949263},{"NoteNumber":87,"Velocity":67,"Duration":125523,"SoundDuration":125523,"Delta":89074786},{"NoteNumber":86,"Velocity":63,"Duration":125523,"SoundDuration":125523,"Delta":89200309},{"NoteNumber":84,"Velocity":67,"Duration":125523,"SoundDuration":125523,"Delta":89325832},{"NoteNumber":82,"Velocity":63,"Duration":125523,"SoundDuration":125523,"Delta":89451355},{"NoteNumber":81,"Velocity":69,"Duration":125522,"SoundDuration":125522,"Delta":89576878},{"NoteNumber":72,"Velocity":45,"Duration":125522,"SoundDuration":125522,"Delta":89576878},{"NoteNumber":69,"Velocity":45,"Duration":125522,"SoundDuration":125522,"Delta":89576878},{"NoteNumber":75,"Velocity":53,"Duration":125522,"SoundDuration":125522,"Delta":89576878},{"NoteNumber":65,"Velocity":45,"Duration":125522,"SoundDuration":125522,"Delta":89576878},{"NoteNumber":81,"Velocity":67,"Duration":125523,"SoundDuration":125523,"Delta":89827924},{"NoteNumber":82,"Velocity":63,"Duration":125523,"SoundDuration":125523,"Delta":89953447},{"NoteNumber":84,"Velocity":67,"Duration":126582,"SoundDuration":126582,"Delta":90078970},{"NoteNumber":82,"Velocity":63,"Duration":126582,"SoundDuration":126582,"Delta":90205553},{"NoteNumber":81,"Velocity":67,"Duration":126582,"SoundDuration":126582,"Delta":90332135},{"NoteNumber":79,"Velocity":63,"Duration":128205,"SoundDuration":128205,"Delta":90458717},{"NoteNumber":77,"Velocity":69,"Duration":136986,"SoundDuration":136986,"Delta":90586922},{"NoteNumber":60,"Velocity":45,"Duration":136986,"SoundDuration":136986,"Delta":90586922},{"NoteNumber":57,"Velocity":45,"Duration":136986,"SoundDuration":136986,"Delta":90586922},{"NoteNumber":53,"Velocity":45,"Duration":136986,"SoundDuration":136986,"Delta":90586922},{"NoteNumber":63,"Velocity":53,"Duration":136986,"SoundDuration":136986,"Delta":90586922},{"NoteNumber":65,"Velocity":70,"Duration":443349,"SoundDuration":443349,"Delta":91134867},{"NoteNumber":53,"Velocity":69,"Duration":443349,"SoundDuration":443349,"Delta":91134867},{"NoteNumber":41,"Velocity":58,"Duration":443349,"SoundDuration":443349,"Delta":91134867},{"NoteNumber":64,"Velocity":61,"Duration":147783,"SoundDuration":147783,"Delta":91578217},{"NoteNumber":40,"Velocity":51,"Duration":147783,"SoundDuration":147783,"Delta":91578217},{"NoteNumber":52,"Velocity":60,"Duration":147783,"SoundDuration":147783,"Delta":91578217},{"NoteNumber":65,"Velocity":64,"Duration":320363,"SoundDuration":320363,"Delta":91726000},{"NoteNumber":41,"Velocity":56,"Duration":320363,"SoundDuration":320363,"Delta":91726000},{"NoteNumber":53,"Velocity":66,"Duration":320363,"SoundDuration":320363,"Delta":91726000},{"NoteNumber":63,"Velocity":71,"Duration":329155,"SoundDuration":329155,"Delta":92046364},{"NoteNumber":51,"Velocity":71,"Duration":329155,"SoundDuration":329155,"Delta":92046364},{"NoteNumber":39,"Velocity":60,"Duration":329155,"SoundDuration":329155,"Delta":92046364},{"NoteNumber":62,"Velocity":77,"Duration":354729,"SoundDuration":354729,"Delta":92375519},{"NoteNumber":38,"Velocity":63,"Duration":354729,"SoundDuration":354729,"Delta":92375519},{"NoteNumber":50,"Velocity":75,"Duration":354729,"SoundDuration":354729,"Delta":92375519},{"NoteNumber":63,"Velocity":68,"Duration":416666,"SoundDuration":416666,"Delta":92780925},{"NoteNumber":65,"Velocity":80,"Duration":416666,"SoundDuration":416666,"Delta":92780925},{"NoteNumber":57,"Velocity":68,"Duration":416666,"SoundDuration":416666,"Delta":92780925},{"NoteNumber":48,"Velocity":71,"Duration":416666,"SoundDuration":416666,"Delta":92780925},{"NoteNumber":36,"Velocity":60,"Duration":416666,"SoundDuration":416666,"Delta":92780925},{"NoteNumber":58,"Velocity":73,"Duration":568540,"SoundDuration":568540,"Delta":93197591},{"NoteNumber":62,"Velocity":73,"Duration":568540,"SoundDuration":568540,"Delta":93197591},{"NoteNumber":70,"Velocity":82,"Duration":568540,"SoundDuration":568540,"Delta":93197591},{"NoteNumber":65,"Velocity":82,"Duration":568540,"SoundDuration":568540,"Delta":93197591},{"NoteNumber":34,"Velocity":60,"Duration":568540,"SoundDuration":568540,"Delta":93197591},{"NoteNumber":46,"Velocity":69,"Duration":568540,"SoundDuration":568540,"Delta":93197591},{"NoteNumber":62,"Velocity":66,"Duration":189513,"SoundDuration":189513,"Delta":93766132},{"NoteNumber":65,"Velocity":74,"Duration":189513,"SoundDuration":189513,"Delta":93766132},{"NoteNumber":70,"Velocity":74,"Duration":189513,"SoundDuration":189513,"Delta":93766132},{"NoteNumber":46,"Velocity":57,"Duration":189513,"SoundDuration":189513,"Delta":93766132},{"NoteNumber":58,"Velocity":63,"Duration":189513,"SoundDuration":189513,"Delta":93766132},{"NoteNumber":70,"Velocity":81,"Duration":1093750,"SoundDuration":1093750,"Delta":93955645},{"NoteNumber":65,"Velocity":81,"Duration":1093750,"SoundDuration":1093750,"Delta":93955645},{"NoteNumber":62,"Velocity":72,"Duration":1093750,"SoundDuration":1093750,"Delta":93955645},{"NoteNumber":46,"Velocity":71,"Duration":1093750,"SoundDuration":1093750,"Delta":93955645},{"NoteNumber":58,"Velocity":71,"Duration":1093750,"SoundDuration":1093750,"Delta":93955645},{"NoteNumber":65,"Velocity":73,"Duration":734303,"SoundDuration":734303,"Delta":95205645},{"NoteNumber":69,"Velocity":82,"Duration":734303,"SoundDuration":734303,"Delta":95205645},{"NoteNumber":72,"Velocity":82,"Duration":734303,"SoundDuration":734303,"Delta":95205645},{"NoteNumber":41,"Velocity":63,"Duration":734303,"SoundDuration":734303,"Delta":95205645},{"NoteNumber":53,"Velocity":71,"Duration":734303,"SoundDuration":734303,"Delta":95205645},{"NoteNumber":74,"Velocity":84,"Duration":568540,"SoundDuration":568540,"Delta":95939949},{"NoteNumber":65,"Velocity":75,"Duration":568540,"SoundDuration":568540,"Delta":95939949},{"NoteNumber":70,"Velocity":84,"Duration":568540,"SoundDuration":568540,"Delta":95939949},{"NoteNumber":46,"Velocity":74,"Duration":568540,"SoundDuration":568540,"Delta":95939949},{"NoteNumber":34,"Velocity":67,"Duration":568540,"SoundDuration":568540,"Delta":95939949},{"NoteNumber":65,"Velocity":72,"Duration":189513,"SoundDuration":189513,"Delta":96508490},{"NoteNumber":70,"Velocity":81,"Duration":189513,"SoundDuration":189513,"Delta":96508490},{"NoteNumber":74,"Velocity":81,"Duration":189513,"SoundDuration":189513,"Delta":96508490},{"NoteNumber":46,"Velocity":59,"Duration":189513,"SoundDuration":189513,"Delta":96508490},{"NoteNumber":58,"Velocity":68,"Duration":189513,"SoundDuration":189513,"Delta":96508490},{"NoteNumber":74,"Velocity":85,"Duration":703955,"SoundDuration":703955,"Delta":96698003},{"NoteNumber":65,"Velocity":77,"Duration":703955,"SoundDuration":703955,"Delta":96698003},{"NoteNumber":70,"Velocity":85,"Duration":703955,"SoundDuration":703955,"Delta":96698003},{"NoteNumber":58,"Velocity":73,"Duration":703955,"SoundDuration":703955,"Delta":96698003},{"NoteNumber":46,"Velocity":66,"Duration":703955,"SoundDuration":703955,"Delta":96698003},{"NoteNumber":67,"Velocity":62,"Duration":753201,"SoundDuration":753201,"Delta":97465954},{"NoteNumber":70,"Velocity":69,"Duration":753201,"SoundDuration":753201,"Delta":97465954},{"NoteNumber":74,"Velocity":69,"Duration":753201,"SoundDuration":753201,"Delta":97465954},{"NoteNumber":55,"Velocity":64,"Duration":753201,"SoundDuration":753201,"Delta":97465954},{"NoteNumber":43,"Velocity":58,"Duration":753201,"SoundDuration":753201,"Delta":97465954},{"NoteNumber":72,"Velocity":74,"Duration":405131,"SoundDuration":405131,"Delta":98219155},{"NoteNumber":67,"Velocity":62,"Duration":405131,"SoundDuration":405131,"Delta":98219155},{"NoteNumber":39,"Velocity":59,"Duration":405131,"SoundDuration":405131,"Delta":98219155},{"NoteNumber":51,"Velocity":67,"Duration":405131,"SoundDuration":405131,"Delta":98219155},{"NoteNumber":67,"Velocity":56,"Duration":410790,"SoundDuration":410790,"Delta":98624287},{"NoteNumber":71,"Velocity":56,"Duration":410790,"SoundDuration":410790,"Delta":98624287},{"NoteNumber":74,"Velocity":66,"Duration":410790,"SoundDuration":410790,"Delta":98624287},{"NoteNumber":50,"Velocity":60,"Duration":410790,"SoundDuration":410790,"Delta":98624287},{"NoteNumber":38,"Velocity":55,"Duration":410790,"SoundDuration":410790,"Delta":98624287},{"NoteNumber":75,"Velocity":69,"Duration":755684,"SoundDuration":755684,"Delta":99035077},{"NoteNumber":72,"Velocity":58,"Duration":755684,"SoundDuration":755684,"Delta":99035077},{"NoteNumber":67,"Velocity":58,"Duration":755684,"SoundDuration":755684,"Delta":99035077},{"NoteNumber":36,"Velocity":58,"Duration":755684,"SoundDuration":755684,"Delta":99035077},{"NoteNumber":48,"Velocity":64,"Duration":755684,"SoundDuration":755684,"Delta":99035077},{"NoteNumber":63,"Velocity":51,"Duration":762969,"SoundDuration":762969,"Delta":99823617},{"NoteNumber":69,"Velocity":61,"Duration":762969,"SoundDuration":762969,"Delta":99823617},{"NoteNumber":41,"Velocity":49,"Duration":762969,"SoundDuration":762969,"Delta":99823617},{"NoteNumber":53,"Velocity":56,"Duration":762969,"SoundDuration":762969,"Delta":99823617},{"NoteNumber":63,"Velocity":54,"Duration":799254,"SoundDuration":799254,"Delta":100586587},{"NoteNumber":72,"Velocity":64,"Duration":799254,"SoundDuration":799254,"Delta":100586587},{"NoteNumber":69,"Velocity":54,"Duration":799254,"SoundDuration":799254,"Delta":100586587},{"NoteNumber":46,"Velocity":53,"Duration":799254,"SoundDuration":799254,"Delta":100586587},{"NoteNumber":53,"Velocity":59,"Duration":799254,"SoundDuration":799254,"Delta":100586587},{"NoteNumber":62,"Velocity":51,"Duration":734265,"SoundDuration":734265,"Delta":101385841},{"NoteNumber":70,"Velocity":61,"Duration":734265,"SoundDuration":734265,"Delta":101385841},{"NoteNumber":58,"Velocity":59,"Duration":734265,"SoundDuration":734265,"Delta":101385841},{"NoteNumber":75,"Velocity":39,"Duration":799254,"SoundDuration":799254,"Delta":102225002},{"NoteNumber":69,"Velocity":39,"Duration":799254,"SoundDuration":799254,"Delta":102225002},{"NoteNumber":77,"Velocity":47,"Duration":799254,"SoundDuration":799254,"Delta":102225002},{"NoteNumber":53,"Velocity":38,"Duration":799254,"SoundDuration":799254,"Delta":102225002},{"NoteNumber":65,"Velocity":38,"Duration":799254,"SoundDuration":799254,"Delta":102225002},{"NoteNumber":77,"Velocity":41,"Duration":568540,"SoundDuration":568540,"Delta":103024256},{"NoteNumber":74,"Velocity":41,"Duration":568540,"SoundDuration":568540,"Delta":103024256},{"NoteNumber":70,"Velocity":41,"Duration":568540,"SoundDuration":568540,"Delta":103024256},{"NoteNumber":82,"Velocity":49,"Duration":568540,"SoundDuration":568540,"Delta":103024256},{"NoteNumber":46,"Velocity":34,"Duration":568540,"SoundDuration":568540,"Delta":103024256},{"NoteNumber":58,"Velocity":40,"Duration":568540,"SoundDuration":568540,"Delta":103024256},{"NoteNumber":74,"Velocity":38,"Duration":189513,"SoundDuration":189513,"Delta":103592796},{"NoteNumber":82,"Velocity":45,"Duration":189513,"SoundDuration":189513,"Delta":103592796},{"NoteNumber":77,"Velocity":38,"Duration":189513,"SoundDuration":189513,"Delta":103592796},{"NoteNumber":70,"Velocity":38,"Duration":189513,"SoundDuration":189513,"Delta":103592796},{"NoteNumber":74,"Velocity":40,"Duration":1093750,"SoundDuration":1093750,"Delta":103782310},{"NoteNumber":77,"Velocity":40,"Duration":1093750,"SoundDuration":1093750,"Delta":103782310},{"NoteNumber":82,"Velocity":48,"Duration":1093750,"SoundDuration":1093750,"Delta":103782310},{"NoteNumber":70,"Velocity":41,"Duration":1093750,"SoundDuration":1093750,"Delta":103782310},{"NoteNumber":84,"Velocity":49,"Duration":734303,"SoundDuration":734303,"Delta":105032310},{"NoteNumber":81,"Velocity":41,"Duration":734303,"SoundDuration":734303,"Delta":105032310},{"NoteNumber":77,"Velocity":41,"Duration":734303,"SoundDuration":734303,"Delta":105032310},{"NoteNumber":53,"Velocity":34,"Duration":734303,"SoundDuration":734303,"Delta":105032310},{"NoteNumber":65,"Velocity":41,"Duration":734303,"SoundDuration":734303,"Delta":105032310},{"NoteNumber":77,"Velocity":43,"Duration":568540,"SoundDuration":568540,"Delta":105766614},{"NoteNumber":82,"Velocity":43,"Duration":568540,"SoundDuration":568540,"Delta":105766614},{"NoteNumber":86,"Velocity":51,"Duration":568540,"SoundDuration":568540,"Delta":105766614},{"NoteNumber":58,"Velocity":45,"Duration":568540,"SoundDuration":568540,"Delta":105766614},{"NoteNumber":46,"Velocity":38,"Duration":568540,"SoundDuration":568540,"Delta":105766614},{"NoteNumber":86,"Velocity":48,"Duration":189513,"SoundDuration":189513,"Delta":106335154},{"NoteNumber":77,"Velocity":40,"Duration":189513,"SoundDuration":189513,"Delta":106335154},{"NoteNumber":82,"Velocity":40,"Duration":189513,"SoundDuration":189513,"Delta":106335154},{"NoteNumber":70,"Velocity":39,"Duration":189513,"SoundDuration":189513,"Delta":106335154},{"NoteNumber":77,"Velocity":44,"Duration":735953,"SoundDuration":735953,"Delta":106524668},{"NoteNumber":82,"Velocity":44,"Duration":735953,"SoundDuration":735953,"Delta":106524668},{"NoteNumber":86,"Velocity":52,"Duration":735953,"SoundDuration":735953,"Delta":106524668},{"NoteNumber":70,"Velocity":44,"Duration":735953,"SoundDuration":735953,"Delta":106524668},{"NoteNumber":86,"Velocity":41,"Duration":753201,"SoundDuration":753201,"Delta":107292619},{"NoteNumber":79,"Velocity":34,"Duration":753201,"SoundDuration":753201,"Delta":107292619},{"NoteNumber":82,"Velocity":34,"Duration":753201,"SoundDuration":753201,"Delta":107292619},{"NoteNumber":67,"Velocity":38,"Duration":753201,"SoundDuration":753201,"Delta":107292619},{"NoteNumber":79,"Velocity":45,"Duration":405131,"SoundDuration":405131,"Delta":108045820},{"NoteNumber":84,"Velocity":45,"Duration":405131,"SoundDuration":405131,"Delta":108045820},{"NoteNumber":63,"Velocity":39,"Duration":405131,"SoundDuration":405131,"Delta":108045820},{"NoteNumber":79,"Velocity":39,"Duration":410790,"SoundDuration":410790,"Delta":108450951},{"NoteNumber":86,"Velocity":39,"Duration":410790,"SoundDuration":410790,"Delta":108450951},{"NoteNumber":83,"Velocity":39,"Duration":410790,"SoundDuration":410790,"Delta":108450951},{"NoteNumber":62,"Velocity":37,"Duration":410790,"SoundDuration":410790,"Delta":108450951},{"NoteNumber":79,"Velocity":41,"Duration":755684,"SoundDuration":755684,"Delta":108861741},{"NoteNumber":84,"Velocity":41,"Duration":755684,"SoundDuration":755684,"Delta":108861741},{"NoteNumber":87,"Velocity":41,"Duration":755684,"SoundDuration":755684,"Delta":108861741},{"NoteNumber":60,"Velocity":38,"Duration":755684,"SoundDuration":755684,"Delta":108861741},{"NoteNumber":81,"Velocity":37,"Duration":762969,"SoundDuration":762969,"Delta":109650281},{"NoteNumber":75,"Velocity":37,"Duration":762969,"SoundDuration":762969,"Delta":109650281},{"NoteNumber":53,"Velocity":34,"Duration":762969,"SoundDuration":762969,"Delta":109650281},{"NoteNumber":65,"Velocity":34,"Duration":762969,"SoundDuration":762969,"Delta":109650281},{"NoteNumber":81,"Velocity":39,"Duration":799254,"SoundDuration":799254,"Delta":110413251},{"NoteNumber":75,"Velocity":39,"Duration":799254,"SoundDuration":799254,"Delta":110413251},{"NoteNumber":84,"Velocity":39,"Duration":799254,"SoundDuration":799254,"Delta":110413251},{"NoteNumber":65,"Velocity":36,"Duration":799254,"SoundDuration":799254,"Delta":110413251},{"NoteNumber":58,"Velocity":36,"Duration":799254,"SoundDuration":799254,"Delta":110413251},{"NoteNumber":74,"Velocity":37,"Duration":749300,"SoundDuration":749300,"Delta":111212505},{"NoteNumber":82,"Velocity":37,"Duration":749300,"SoundDuration":749300,"Delta":111212505},{"NoteNumber":70,"Velocity":35,"Duration":749300,"SoundDuration":749300,"Delta":111212505},{"NoteNumber":74,"Velocity":62,"Duration":367106,"SoundDuration":367106,"Delta":112377818},{"NoteNumber":77,"Velocity":73,"Duration":367106,"SoundDuration":367106,"Delta":112377818},{"NoteNumber":74,"Velocity":63,"Duration":367107,"SoundDuration":367107,"Delta":112744925},{"NoteNumber":77,"Velocity":75,"Duration":367107,"SoundDuration":367107,"Delta":112744925},{"NoteNumber":34,"Velocity":48,"Duration":748980,"SoundDuration":748980,"Delta":112744925},{"NoteNumber":46,"Velocity":57,"Duration":748980,"SoundDuration":748980,"Delta":112744925},{"NoteNumber":74,"Velocity":73,"Duration":381873,"SoundDuration":381873,"Delta":113112032},{"NoteNumber":70,"Velocity":62,"Duration":381873,"SoundDuration":381873,"Delta":113112032},{"NoteNumber":75,"Velocity":82,"Duration":1094314,"SoundDuration":1094314,"Delta":113493906},{"NoteNumber":79,"Velocity":69,"Duration":1094314,"SoundDuration":1094314,"Delta":113493906},{"NoteNumber":62,"Velocity":41,"Duration":734213,"SoundDuration":734213,"Delta":113493906},{"NoteNumber":58,"Velocity":41,"Duration":734213,"SoundDuration":734213,"Delta":113493906},{"NoteNumber":65,"Velocity":49,"Duration":734213,"SoundDuration":734213,"Delta":113493906},{"NoteNumber":62,"Velocity":41,"Duration":704967,"SoundDuration":704967,"Delta":114228120},{"NoteNumber":58,"Velocity":41,"Duration":704967,"SoundDuration":704967,"Delta":114228120},{"NoteNumber":65,"Velocity":49,"Duration":704967,"SoundDuration":704967,"Delta":114228120},{"NoteNumber":74,"Velocity":66,"Duration":344866,"SoundDuration":344866,"Delta":114588221},{"NoteNumber":77,"Velocity":78,"Duration":344866,"SoundDuration":344866,"Delta":114588221},{"NoteNumber":74,"Velocity":68,"Duration":357866,"SoundDuration":357866,"Delta":114933088},{"NoteNumber":77,"Velocity":80,"Duration":357866,"SoundDuration":357866,"Delta":114933088},{"NoteNumber":53,"Velocity":63,"Duration":715733,"SoundDuration":715733,"Delta":114933088},{"NoteNumber":41,"Velocity":53,"Duration":715733,"SoundDuration":715733,"Delta":114933088},{"NoteNumber":75,"Velocity":73,"Duration":357866,"SoundDuration":357866,"Delta":115290955},{"NoteNumber":72,"Velocity":62,"Duration":357866,"SoundDuration":357866,"Delta":115290955},{"NoteNumber":72,"Velocity":62,"Duration":1082841,"SoundDuration":1082841,"Delta":115648822},{"NoteNumber":75,"Velocity":73,"Duration":1082841,"SoundDuration":1082841,"Delta":115648822},{"NoteNumber":63,"Velocity":41,"Duration":715733,"SoundDuration":715733,"Delta":115648822},{"NoteNumber":57,"Velocity":41,"Duration":715733,"SoundDuration":715733,"Delta":115648822},{"NoteNumber":65,"Velocity":49,"Duration":715733,"SoundDuration":715733,"Delta":115648822},{"NoteNumber":63,"Velocity":41,"Duration":724974,"SoundDuration":724974,"Delta":116364556},{"NoteNumber":57,"Velocity":41,"Duration":724974,"SoundDuration":724974,"Delta":116364556},{"NoteNumber":65,"Velocity":49,"Duration":724974,"SoundDuration":724974,"Delta":116364556},{"NoteNumber":75,"Velocity":73,"Duration":357866,"SoundDuration":357866,"Delta":116731663},{"NoteNumber":72,"Velocity":62,"Duration":357866,"SoundDuration":357866,"Delta":116731663},{"NoteNumber":75,"Velocity":75,"Duration":346941,"SoundDuration":346941,"Delta":117089530},{"NoteNumber":72,"Velocity":63,"Duration":346941,"SoundDuration":346941,"Delta":117089530},{"NoteNumber":29,"Velocity":51,"Duration":709347,"SoundDuration":709347,"Delta":117089530},{"NoteNumber":41,"Velocity":61,"Duration":709347,"SoundDuration":709347,"Delta":117089530},{"NoteNumber":69,"Velocity":62,"Duration":362406,"SoundDuration":362406,"Delta":117436471},{"NoteNumber":72,"Velocity":73,"Duration":362406,"SoundDuration":362406,"Delta":117436471},{"NoteNumber":77,"Velocity":81,"Duration":1053737,"SoundDuration":1053737,"Delta":117798877},{"NoteNumber":74,"Velocity":68,"Duration":1053737,"SoundDuration":1053737,"Delta":117798877},{"NoteNumber":65,"Velocity":49,"Duration":706796,"SoundDuration":706796,"Delta":117798877},{"NoteNumber":57,"Velocity":41,"Duration":706796,"SoundDuration":706796,"Delta":117798877},{"NoteNumber":63,"Velocity":41,"Duration":706796,"SoundDuration":706796,"Delta":117798877},{"NoteNumber":65,"Velocity":49,"Duration":702560,"SoundDuration":702560,"Delta":118505674},{"NoteNumber":57,"Velocity":41,"Duration":702560,"SoundDuration":702560,"Delta":118505674},{"NoteNumber":63,"Velocity":41,"Duration":702560,"SoundDuration":702560,"Delta":118505674},{"NoteNumber":72,"Velocity":63,"Duration":355619,"SoundDuration":355619,"Delta":118852615},{"NoteNumber":75,"Velocity":75,"Duration":355619,"SoundDuration":355619,"Delta":118852615},{"NoteNumber":72,"Velocity":68,"Duration":355618,"SoundDuration":355618,"Delta":119208234},{"NoteNumber":75,"Velocity":80,"Duration":355618,"SoundDuration":355618,"Delta":119208234},{"NoteNumber":46,"Velocity":57,"Duration":711237,"SoundDuration":711237,"Delta":119208234},{"NoteNumber":34,"Velocity":48,"Duration":711237,"SoundDuration":711237,"Delta":119208234},{"NoteNumber":70,"Velocity":62,"Duration":355619,"SoundDuration":355619,"Delta":119563853},{"NoteNumber":74,"Velocity":73,"Duration":355619,"SoundDuration":355619,"Delta":119563853},{"NoteNumber":74,"Velocity":73,"Duration":1139399,"SoundDuration":1139399,"Delta":119919472},{"NoteNumber":70,"Velocity":62,"Duration":1139399,"SoundDuration":1139399,"Delta":119919472},{"NoteNumber":62,"Velocity":41,"Duration":1139399,"SoundDuration":1139399,"Delta":119919472},{"NoteNumber":58,"Velocity":41,"Duration":1139399,"SoundDuration":1139399,"Delta":119919472},{"NoteNumber":65,"Velocity":49,"Duration":1139399,"SoundDuration":1139399,"Delta":119919472},{"NoteNumber":57,"Velocity":63,"Duration":734303,"SoundDuration":734303,"Delta":121135371},{"NoteNumber":65,"Velocity":80,"Duration":734303,"SoundDuration":734303,"Delta":121135371},{"NoteNumber":63,"Velocity":80,"Duration":734303,"SoundDuration":734303,"Delta":121135371},{"NoteNumber":53,"Velocity":63,"Duration":734303,"SoundDuration":734303,"Delta":121135371},{"NoteNumber":41,"Velocity":50,"Duration":734303,"SoundDuration":734303,"Delta":121135371},{"NoteNumber":62,"Velocity":64,"Duration":568540,"SoundDuration":568540,"Delta":121869675},{"NoteNumber":70,"Velocity":82,"Duration":568540,"SoundDuration":568540,"Delta":121869675},{"NoteNumber":65,"Velocity":82,"Duration":568540,"SoundDuration":568540,"Delta":121869675},{"NoteNumber":58,"Velocity":64,"Duration":568540,"SoundDuration":568540,"Delta":121869675},{"NoteNumber":34,"Velocity":55,"Duration":568540,"SoundDuration":568540,"Delta":121869675},{"NoteNumber":46,"Velocity":69,"Duration":568540,"SoundDuration":568540,"Delta":121869675},{"NoteNumber":70,"Velocity":74,"Duration":189513,"SoundDuration":189513,"Delta":122438215},{"NoteNumber":65,"Velocity":74,"Duration":189513,"SoundDuration":189513,"Delta":122438215},{"NoteNumber":62,"Velocity":59,"Duration":189513,"SoundDuration":189513,"Delta":122438215},{"NoteNumber":46,"Velocity":50,"Duration":189513,"SoundDuration":189513,"Delta":122438215},{"NoteNumber":58,"Velocity":63,"Duration":189513,"SoundDuration":189513,"Delta":122438215},{"NoteNumber":62,"Velocity":64,"Duration":1093750,"SoundDuration":1093750,"Delta":122627729},{"NoteNumber":65,"Velocity":81,"Duration":1093750,"SoundDuration":1093750,"Delta":122627729},{"NoteNumber":70,"Velocity":81,"Duration":1093750,"SoundDuration":1093750,"Delta":122627729},{"NoteNumber":46,"Velocity":57,"Duration":1093750,"SoundDuration":1093750,"Delta":122627729},{"NoteNumber":58,"Velocity":71,"Duration":1093750,"SoundDuration":1093750,"Delta":122627729},{"NoteNumber":72,"Velocity":82,"Duration":734303,"SoundDuration":734303,"Delta":123877729},{"NoteNumber":65,"Velocity":64,"Duration":734303,"SoundDuration":734303,"Delta":123877729},{"NoteNumber":69,"Velocity":82,"Duration":734303,"SoundDuration":734303,"Delta":123877729},{"NoteNumber":53,"Velocity":71,"Duration":734303,"SoundDuration":734303,"Delta":123877729},{"NoteNumber":41,"Velocity":57,"Duration":734303,"SoundDuration":734303,"Delta":123877729},{"NoteNumber":65,"Velocity":67,"Duration":568540,"SoundDuration":568540,"Delta":124612033},{"NoteNumber":70,"Velocity":84,"Duration":568540,"SoundDuration":568540,"Delta":124612033},{"NoteNumber":74,"Velocity":84,"Duration":568540,"SoundDuration":568540,"Delta":124612033},{"NoteNumber":34,"Velocity":59,"Duration":568540,"SoundDuration":568540,"Delta":124612033},{"NoteNumber":46,"Velocity":74,"Duration":568540,"SoundDuration":568540,"Delta":124612033},{"NoteNumber":74,"Velocity":81,"Duration":189513,"SoundDuration":189513,"Delta":125180573},{"NoteNumber":65,"Velocity":64,"Duration":189513,"SoundDuration":189513,"Delta":125180573},{"NoteNumber":70,"Velocity":81,"Duration":189513,"SoundDuration":189513,"Delta":125180573},{"NoteNumber":46,"Velocity":53,"Duration":189513,"SoundDuration":189513,"Delta":125180573},{"NoteNumber":58,"Velocity":68,"Duration":189513,"SoundDuration":189513,"Delta":125180573},{"NoteNumber":65,"Velocity":68,"Duration":735953,"SoundDuration":735953,"Delta":125370087},{"NoteNumber":70,"Velocity":85,"Duration":735953,"SoundDuration":735953,"Delta":125370087},{"NoteNumber":74,"Velocity":85,"Duration":735953,"SoundDuration":735953,"Delta":125370087},{"NoteNumber":58,"Velocity":73,"Duration":735953,"SoundDuration":735953,"Delta":125370087},{"NoteNumber":46,"Velocity":58,"Duration":735953,"SoundDuration":735953,"Delta":125370087},{"NoteNumber":74,"Velocity":63,"Duration":753201,"SoundDuration":753201,"Delta":126138038},{"NoteNumber":67,"Velocity":50,"Duration":753201,"SoundDuration":753201,"Delta":126138038},{"NoteNumber":70,"Velocity":63,"Duration":753201,"SoundDuration":753201,"Delta":126138038},{"NoteNumber":55,"Velocity":59,"Duration":753201,"SoundDuration":753201,"Delta":126138038},{"NoteNumber":43,"Velocity":47,"Duration":753201,"SoundDuration":753201,"Delta":126138038},{"NoteNumber":67,"Velocity":46,"Duration":391644,"SoundDuration":391644,"Delta":126891239},{"NoteNumber":72,"Velocity":68,"Duration":391644,"SoundDuration":391644,"Delta":126891239},{"NoteNumber":39,"Velocity":41,"Duration":391644,"SoundDuration":391644,"Delta":126891239},{"NoteNumber":51,"Velocity":60,"Duration":391644,"SoundDuration":391644,"Delta":126891239},{"NoteNumber":74,"Velocity":60,"Duration":399626,"SoundDuration":399626,"Delta":127282884},{"NoteNumber":71,"Velocity":60,"Duration":399626,"SoundDuration":399626,"Delta":127282884},{"NoteNumber":67,"Velocity":39,"Duration":399626,"SoundDuration":399626,"Delta":127282884},{"NoteNumber":50,"Velocity":56,"Duration":399626,"SoundDuration":399626,"Delta":127282884},{"NoteNumber":38,"Velocity":37,"Duration":399626,"SoundDuration":399626,"Delta":127282884},{"NoteNumber":67,"Velocity":42,"Duration":745687,"SoundDuration":745687,"Delta":127682511},{"NoteNumber":72,"Velocity":53,"Duration":745687,"SoundDuration":745687,"Delta":127682511},{"NoteNumber":75,"Velocity":63,"Duration":745687,"SoundDuration":745687,"Delta":127682511},{"NoteNumber":36,"Velocity":39,"Duration":745687,"SoundDuration":745687,"Delta":127682511},{"NoteNumber":48,"Velocity":59,"Duration":745687,"SoundDuration":745687,"Delta":127682511},{"NoteNumber":69,"Velocity":57,"Duration":762969,"SoundDuration":762969,"Delta":128460620},{"NoteNumber":63,"Velocity":38,"Duration":762969,"SoundDuration":762969,"Delta":128460620},{"NoteNumber":41,"Velocity":34,"Duration":762969,"SoundDuration":762969,"Delta":128460620},{"NoteNumber":53,"Velocity":51,"Duration":762969,"SoundDuration":762969,"Delta":128460620},{"NoteNumber":63,"Velocity":39,"Duration":778109,"SoundDuration":778109,"Delta":129223590},{"NoteNumber":69,"Velocity":59,"Duration":778109,"SoundDuration":778109,"Delta":129223590},{"NoteNumber":72,"Velocity":59,"Duration":778109,"SoundDuration":778109,"Delta":129223590},{"NoteNumber":53,"Velocity":55,"Duration":778109,"SoundDuration":778109,"Delta":129223590},{"NoteNumber":46,"Velocity":35,"Duration":778109,"SoundDuration":778109,"Delta":129223590},{"NoteNumber":70,"Velocity":57,"Duration":745033,"SoundDuration":745033,"Delta":130001699},{"NoteNumber":62,"Velocity":38,"Duration":745033,"SoundDuration":745033,"Delta":130001699},{"NoteNumber":58,"Velocity":53,"Duration":745033,"SoundDuration":745033,"Delta":130001699},{"NoteNumber":86,"Velocity":38,"Duration":753200,"SoundDuration":753200,"Delta":130796401},{"NoteNumber":82,"Velocity":38,"Duration":753200,"SoundDuration":753200,"Delta":130796401},{"NoteNumber":79,"Velocity":38,"Duration":753200,"SoundDuration":753200,"Delta":130796401},{"NoteNumber":67,"Velocity":36,"Duration":753200,"SoundDuration":753200,"Delta":130796401},{"NoteNumber":79,"Velocity":41,"Duration":405131,"SoundDuration":405131,"Delta":131549602},{"NoteNumber":84,"Velocity":41,"Duration":405131,"SoundDuration":405131,"Delta":131549602},{"NoteNumber":63,"Velocity":37,"Duration":405131,"SoundDuration":405131,"Delta":131549602},{"NoteNumber":86,"Velocity":36,"Duration":410789,"SoundDuration":410789,"Delta":131954733},{"NoteNumber":79,"Velocity":36,"Duration":410789,"SoundDuration":410789,"Delta":131954733},{"NoteNumber":83,"Velocity":36,"Duration":410789,"SoundDuration":410789,"Delta":131954733},{"NoteNumber":62,"Velocity":34,"Duration":410789,"SoundDuration":410789,"Delta":131954733},{"NoteNumber":79,"Velocity":38,"Duration":755684,"SoundDuration":755684,"Delta":132365523},{"NoteNumber":84,"Velocity":38,"Duration":755684,"SoundDuration":755684,"Delta":132365523},{"NoteNumber":87,"Velocity":38,"Duration":755684,"SoundDuration":755684,"Delta":132365523},{"NoteNumber":60,"Velocity":36,"Duration":755684,"SoundDuration":755684,"Delta":132365523},{"NoteNumber":75,"Velocity":34,"Duration":857143,"SoundDuration":857143,"Delta":133154729},{"NoteNumber":81,"Velocity":34,"Duration":857143,"SoundDuration":857143,"Delta":133154729},{"NoteNumber":65,"Velocity":30,"Duration":857143,"SoundDuration":857143,"Delta":133154729},{"NoteNumber":75,"Velocity":36,"Duration":875911,"SoundDuration":875911,"Delta":134011872},{"NoteNumber":81,"Velocity":36,"Duration":875911,"SoundDuration":875911,"Delta":134011872},{"NoteNumber":84,"Velocity":36,"Duration":875911,"SoundDuration":875911,"Delta":134011872},{"NoteNumber":65,"Velocity":33,"Duration":875911,"SoundDuration":875911,"Delta":134011872},{"NoteNumber":58,"Velocity":33,"Duration":875911,"SoundDuration":875911,"Delta":134011872},{"NoteNumber":82,"Velocity":34,"Duration":1171875,"SoundDuration":1171875,"Delta":134887784},{"NoteNumber":74,"Velocity":34,"Duration":1171875,"SoundDuration":1171875,"Delta":134887784},{"NoteNumber":70,"Velocity":31,"Duration":1171875,"SoundDuration":1171875,"Delta":134887784},{"NoteNumber":77,"Velocity":64,"Duration":189015,"SoundDuration":189015,"Delta":136137784},{"NoteNumber":82,"Velocity":67,"Duration":182459,"SoundDuration":182459,"Delta":136326800},{"NoteNumber":86,"Velocity":69,"Duration":176449,"SoundDuration":176449,"Delta":136509260},{"NoteNumber":89,"Velocity":74,"Duration":181225,"SoundDuration":181225,"Delta":136685710},{"NoteNumber":89,"Velocity":88,"Duration":170784,"SoundDuration":170784,"Delta":136866935},{"NoteNumber":53,"Velocity":49,"Duration":666434,"SoundDuration":666434,"Delta":136866935},{"NoteNumber":41,"Velocity":41,"Duration":666434,"SoundDuration":666434,"Delta":136866935},{"NoteNumber":87,"Velocity":70,"Duration":165216,"SoundDuration":165216,"Delta":137037719},{"NoteNumber":84,"Velocity":68,"Duration":165216,"SoundDuration":165216,"Delta":137202936},{"NoteNumber":77,"Velocity":68,"Duration":165216,"SoundDuration":165216,"Delta":137368152},{"NoteNumber":89,"Velocity":88,"Duration":170784,"SoundDuration":170784,"Delta":137533369},{"NoteNumber":65,"Velocity":42,"Duration":666434,"SoundDuration":666434,"Delta":137533369},{"NoteNumber":57,"Velocity":35,"Duration":666434,"SoundDuration":666434,"Delta":137533369},{"NoteNumber":63,"Velocity":35,"Duration":666434,"SoundDuration":666434,"Delta":137533369},{"NoteNumber":87,"Velocity":69,"Duration":165216,"SoundDuration":165216,"Delta":137704153},{"NoteNumber":84,"Velocity":68,"Duration":165216,"SoundDuration":165216,"Delta":137869370},{"NoteNumber":77,"Velocity":68,"Duration":165216,"SoundDuration":165216,"Delta":138034586},{"NoteNumber":76,"Velocity":68,"Duration":168501,"SoundDuration":168501,"Delta":138199803},{"NoteNumber":63,"Velocity":35,"Duration":665230,"SoundDuration":665230,"Delta":138199803},{"NoteNumber":57,"Velocity":35,"Duration":665230,"SoundDuration":665230,"Delta":138199803},{"NoteNumber":65,"Velocity":42,"Duration":665230,"SoundDuration":665230,"Delta":138199803},{"NoteNumber":77,"Velocity":64,"Duration":168501,"SoundDuration":168501,"Delta":138368304},{"NoteNumber":81,"Velocity":68,"Duration":164113,"SoundDuration":164113,"Delta":138536806},{"NoteNumber":84,"Velocity":64,"Duration":164113,"SoundDuration":164113,"Delta":138700919},{"NoteNumber":87,"Velocity":88,"Duration":173912,"SoundDuration":173912,"Delta":138865033},{"NoteNumber":34,"Velocity":46,"Duration":668038,"SoundDuration":668038,"Delta":138865033},{"NoteNumber":46,"Velocity":55,"Duration":668038,"SoundDuration":668038,"Delta":138865033},{"NoteNumber":86,"Velocity":69,"Duration":164708,"SoundDuration":164708,"Delta":139038946},{"NoteNumber":82,"Velocity":66,"Duration":164708,"SoundDuration":164708,"Delta":139203655},{"NoteNumber":77,"Velocity":66,"Duration":164708,"SoundDuration":164708,"Delta":139368363},{"NoteNumber":87,"Velocity":85,"Duration":170784,"SoundDuration":170784,"Delta":139533072},{"NoteNumber":62,"Velocity":41,"Duration":667802,"SoundDuration":667802,"Delta":139533072},{"NoteNumber":53,"Velocity":34,"Duration":667802,"SoundDuration":667802,"Delta":139533072},{"NoteNumber":58,"Velocity":34,"Duration":667802,"SoundDuration":667802,"Delta":139533072},{"NoteNumber":86,"Velocity":68,"Duration":165672,"SoundDuration":165672,"Delta":139703856},{"NoteNumber":82,"Velocity":64,"Duration":165672,"SoundDuration":165672,"Delta":139869529},{"NoteNumber":77,"Velocity":64,"Duration":165672,"SoundDuration":165672,"Delta":140035202},{"NoteNumber":76,"Velocity":64,"Duration":165672,"SoundDuration":165672,"Delta":140200874},{"NoteNumber":58,"Velocity":34,"Duration":653890,"SoundDuration":653890,"Delta":140200874},{"NoteNumber":53,"Velocity":34,"Duration":653890,"SoundDuration":653890,"Delta":140200874},{"NoteNumber":62,"Velocity":41,"Duration":653890,"SoundDuration":653890,"Delta":140200874},{"NoteNumber":77,"Velocity":62,"Duration":160978,"SoundDuration":160978,"Delta":140366547},{"NoteNumber":76,"Velocity":64,"Duration":165216,"SoundDuration":165216,"Delta":140527526},{"NoteNumber":77,"Velocity":62,"Duration":162022,"SoundDuration":162022,"Delta":140692742},{"NoteNumber":81,"Velocity":81,"Duration":169606,"SoundDuration":169606,"Delta":140854764},{"NoteNumber":41,"Velocity":47,"Duration":659581,"SoundDuration":659581,"Delta":140854764},{"NoteNumber":53,"Velocity":56,"Duration":659581,"SoundDuration":659581,"Delta":140854764},{"NoteNumber":69,"Velocity":50,"Duration":162022,"SoundDuration":162022,"Delta":141024371},{"NoteNumber":79,"Velocity":78,"Duration":166278,"SoundDuration":166278,"Delta":141186393},{"NoteNumber":69,"Velocity":52,"Duration":161674,"SoundDuration":161674,"Delta":141352672},{"NoteNumber":77,"Velocity":80,"Duration":166278,"SoundDuration":166278,"Delta":141514346},{"NoteNumber":60,"Velocity":37,"Duration":660902,"SoundDuration":660902,"Delta":141514346},{"NoteNumber":53,"Velocity":37,"Duration":660902,"SoundDuration":660902,"Delta":141514346},{"NoteNumber":63,"Velocity":44,"Duration":660902,"SoundDuration":660902,"Delta":141514346},{"NoteNumber":69,"Velocity":52,"Duration":163061,"SoundDuration":163061,"Delta":141680625},{"NoteNumber":75,"Velocity":80,"Duration":168501,"SoundDuration":168501,"Delta":141843686},{"NoteNumber":69,"Velocity":53,"Duration":163061,"SoundDuration":163061,"Delta":142012187},{"NoteNumber":74,"Velocity":82,"Duration":170784,"SoundDuration":170784,"Delta":142175249},{"NoteNumber":63,"Velocity":44,"Duration":697889,"SoundDuration":697889,"Delta":142175249},{"NoteNumber":60,"Velocity":37,"Duration":697889,"SoundDuration":697889,"Delta":142175249},{"NoteNumber":53,"Velocity":37,"Duration":697889,"SoundDuration":697889,"Delta":142175249},{"NoteNumber":69,"Velocity":55,"Duration":166278,"SoundDuration":166278,"Delta":142346033},{"NoteNumber":72,"Velocity":84,"Duration":170784,"SoundDuration":170784,"Delta":142512312},{"NoteNumber":69,"Velocity":57,"Duration":190041,"SoundDuration":190041,"Delta":142683096},{"NoteNumber":79,"Velocity":89,"Duration":535013,"SoundDuration":535013,"Delta":142873138},{"NoteNumber":75,"Velocity":89,"Duration":535013,"SoundDuration":535013,"Delta":142873138},{"NoteNumber":34,"Velocity":46,"Duration":713351,"SoundDuration":713351,"Delta":142873138},{"NoteNumber":46,"Velocity":55,"Duration":713351,"SoundDuration":713351,"Delta":142873138},{"NoteNumber":74,"Velocity":74,"Duration":515345,"SoundDuration":515345,"Delta":143586490},{"NoteNumber":77,"Velocity":74,"Duration":515345,"SoundDuration":515345,"Delta":143586490},{"NoteNumber":62,"Velocity":40,"Duration":687128,"SoundDuration":687128,"Delta":143586490},{"NoteNumber":58,"Velocity":34,"Duration":687128,"SoundDuration":687128,"Delta":143586490},{"NoteNumber":53,"Velocity":34,"Duration":687128,"SoundDuration":687128,"Delta":143586490},{"NoteNumber":77,"Velocity":69,"Duration":168653,"SoundDuration":168653,"Delta":144273618},{"NoteNumber":62,"Velocity":44,"Duration":674369,"SoundDuration":674369,"Delta":144273618},{"NoteNumber":58,"Velocity":37,"Duration":674369,"SoundDuration":674369,"Delta":144273618},{"NoteNumber":53,"Velocity":37,"Duration":674369,"SoundDuration":674369,"Delta":144273618},{"NoteNumber":82,"Velocity":72,"Duration":168653,"SoundDuration":168653,"Delta":144442271},{"NoteNumber":86,"Velocity":77,"Duration":166278,"SoundDuration":166278,"Delta":144610924},{"NoteNumber":89,"Velocity":81,"Duration":170784,"SoundDuration":170784,"Delta":144777203},{"NoteNumber":89,"Velocity":94,"Duration":170784,"SoundDuration":170784,"Delta":144947987},{"NoteNumber":41,"Velocity":45,"Duration":666434,"SoundDuration":666434,"Delta":144947987},{"NoteNumber":53,"Velocity":53,"Duration":666434,"SoundDuration":666434,"Delta":144947987},{"NoteNumber":87,"Velocity":78,"Duration":165216,"SoundDuration":165216,"Delta":145118772},{"NoteNumber":84,"Velocity":74,"Duration":165216,"SoundDuration":165216,"Delta":145283988},{"NoteNumber":77,"Velocity":74,"Duration":165216,"SoundDuration":165216,"Delta":145449205},{"NoteNumber":89,"Velocity":94,"Duration":170784,"SoundDuration":170784,"Delta":145614421},{"NoteNumber":63,"Velocity":38,"Duration":666434,"SoundDuration":666434,"Delta":145614421},{"NoteNumber":57,"Velocity":38,"Duration":666434,"SoundDuration":666434,"Delta":145614421},{"NoteNumber":65,"Velocity":45,"Duration":666434,"SoundDuration":666434,"Delta":145614421},{"NoteNumber":87,"Velocity":77,"Duration":165216,"SoundDuration":165216,"Delta":145785206},{"NoteNumber":84,"Velocity":74,"Duration":165216,"SoundDuration":165216,"Delta":145950422},{"NoteNumber":77,"Velocity":74,"Duration":165216,"SoundDuration":165216,"Delta":146115639},{"NoteNumber":76,"Velocity":74,"Duration":166666,"SoundDuration":166666,"Delta":146280855},{"NoteNumber":65,"Velocity":45,"Duration":667130,"SoundDuration":667130,"Delta":146280855},{"NoteNumber":63,"Velocity":38,"Duration":667130,"SoundDuration":667130,"Delta":146280855},{"NoteNumber":57,"Velocity":38,"Duration":667130,"SoundDuration":667130,"Delta":146280855},{"NoteNumber":77,"Velocity":69,"Duration":166666,"SoundDuration":166666,"Delta":146447522},{"NoteNumber":81,"Velocity":74,"Duration":164113,"SoundDuration":164113,"Delta":146614189},{"NoteNumber":84,"Velocity":69,"Duration":169683,"SoundDuration":169683,"Delta":146778303},{"NoteNumber":87,"Velocity":96,"Duration":173912,"SoundDuration":173912,"Delta":146947986},{"NoteNumber":34,"Velocity":51,"Duration":669562,"SoundDuration":669562,"Delta":146947986},{"NoteNumber":46,"Velocity":60,"Duration":669562,"SoundDuration":669562,"Delta":146947986},{"NoteNumber":86,"Velocity":77,"Duration":165216,"SoundDuration":165216,"Delta":147121899},{"NoteNumber":82,"Velocity":70,"Duration":165216,"SoundDuration":165216,"Delta":147287115},{"NoteNumber":77,"Velocity":70,"Duration":165216,"SoundDuration":165216,"Delta":147452332},{"NoteNumber":87,"Velocity":96,"Duration":171782,"SoundDuration":171782,"Delta":147617548},{"NoteNumber":58,"Velocity":38,"Duration":667431,"SoundDuration":667431,"Delta":147617548},{"NoteNumber":53,"Velocity":38,"Duration":667431,"SoundDuration":667431,"Delta":147617548},{"NoteNumber":62,"Velocity":45,"Duration":667431,"SoundDuration":667431,"Delta":147617548},{"NoteNumber":86,"Velocity":75,"Duration":165216,"SoundDuration":165216,"Delta":147789330},{"NoteNumber":82,"Velocity":69,"Duration":165216,"SoundDuration":165216,"Delta":147954547},{"NoteNumber":77,"Velocity":69,"Duration":165216,"SoundDuration":165216,"Delta":148119763},{"NoteNumber":76,"Velocity":75,"Duration":165216,"SoundDuration":165216,"Delta":148284980},{"NoteNumber":58,"Velocity":38,"Duration":653433,"SoundDuration":653433,"Delta":148284980},{"NoteNumber":53,"Velocity":38,"Duration":653433,"SoundDuration":653433,"Delta":148284980},{"NoteNumber":62,"Velocity":45,"Duration":653433,"SoundDuration":653433,"Delta":148284980},{"NoteNumber":77,"Velocity":73,"Duration":160978,"SoundDuration":160978,"Delta":148450196},{"NoteNumber":76,"Velocity":80,"Duration":165216,"SoundDuration":165216,"Delta":148611175},{"NoteNumber":77,"Velocity":75,"Duration":162022,"SoundDuration":162022,"Delta":148776392},{"NoteNumber":79,"Velocity":82,"Duration":162021,"SoundDuration":162021,"Delta":148938414},{"NoteNumber":55,"Velocity":53,"Duration":1942974,"SoundDuration":1942974,"Delta":148938414},{"NoteNumber":60,"Velocity":63,"Duration":1942974,"SoundDuration":1942974,"Delta":148938414},{"NoteNumber":51,"Velocity":53,"Duration":1942974,"SoundDuration":1942974,"Delta":148938414},{"NoteNumber":77,"Velocity":79,"Duration":162022,"SoundDuration":162022,"Delta":149100436},{"NoteNumber":75,"Velocity":79,"Duration":162022,"SoundDuration":162022,"Delta":149262458},{"NoteNumber":74,"Velocity":79,"Duration":162022,"SoundDuration":162022,"Delta":149424480},{"NoteNumber":72,"Velocity":79,"Duration":161847,"SoundDuration":161847,"Delta":149586502},{"NoteNumber":74,"Velocity":79,"Duration":161847,"SoundDuration":161847,"Delta":149748349},{"NoteNumber":75,"Velocity":78,"Duration":161233,"SoundDuration":161233,"Delta":149910196},{"NoteNumber":77,"Velocity":79,"Duration":160927,"SoundDuration":160927,"Delta":150071430},{"NoteNumber":79,"Velocity":81,"Duration":160612,"SoundDuration":160612,"Delta":150232357},{"NoteNumber":81,"Velocity":84,"Duration":160919,"SoundDuration":160919,"Delta":150392969},{"NoteNumber":82,"Velocity":85,"Duration":162793,"SoundDuration":162793,"Delta":150553888},{"NoteNumber":83,"Velocity":90,"Duration":164706,"SoundDuration":164706,"Delta":150716682},{"NoteNumber":84,"Velocity":94,"Duration":170706,"SoundDuration":170706,"Delta":150881388},{"NoteNumber":63,"Velocity":63,"Duration":170706,"SoundDuration":170706,"Delta":150881388},{"NoteNumber":53,"Velocity":53,"Duration":170706,"SoundDuration":170706,"Delta":150881388},{"NoteNumber":57,"Velocity":53,"Duration":170706,"SoundDuration":170706,"Delta":150881388},{"NoteNumber":101,"Velocity":70,"Duration":85353,"SoundDuration":85353,"Delta":151478862},{"NoteNumber":89,"Velocity":93,"Duration":176097,"SoundDuration":176097,"Delta":151564215},{"NoteNumber":29,"Velocity":66,"Duration":279746,"SoundDuration":279746,"Delta":152268606},{"NoteNumber":41,"Velocity":78,"Duration":279746,"SoundDuration":279746,"Delta":152268606},{"NoteNumber":74,"Velocity":58,"Duration":171428,"SoundDuration":171428,"Delta":152641601},{"NoteNumber":77,"Velocity":69,"Duration":171428,"SoundDuration":171428,"Delta":152641601},{"NoteNumber":74,"Velocity":63,"Duration":645161,"SoundDuration":645161,"Delta":152984458},{"NoteNumber":77,"Velocity":75,"Duration":645161,"SoundDuration":645161,"Delta":152984458},{"NoteNumber":34,"Velocity":60,"Duration":322580,"SoundDuration":322580,"Delta":152984458},{"NoteNumber":46,"Velocity":71,"Duration":322580,"SoundDuration":322580,"Delta":152984458},{"NoteNumber":53,"Velocity":45,"Duration":322580,"SoundDuration":322580,"Delta":153307039},{"NoteNumber":74,"Velocity":69,"Duration":266497,"SoundDuration":266497,"Delta":153629619},{"NoteNumber":70,"Velocity":58,"Duration":266497,"SoundDuration":266497,"Delta":153629619},{"NoteNumber":62,"Velocity":49,"Duration":266497,"SoundDuration":266497,"Delta":153629619},{"NoteNumber":58,"Velocity":41,"Duration":266497,"SoundDuration":266497,"Delta":153629619},{"NoteNumber":74,"Velocity":53,"Duration":235602,"SoundDuration":235602,"Delta":153934188},{"NoteNumber":77,"Velocity":63,"Duration":235602,"SoundDuration":235602,"Delta":153934188},{"NoteNumber":53,"Velocity":45,"Duration":235602,"SoundDuration":235602,"Delta":153934188},{"NoteNumber":77,"Velocity":74,"Duration":606061,"SoundDuration":606061,"Delta":154248324},{"NoteNumber":74,"Velocity":62,"Duration":606061,"SoundDuration":606061,"Delta":154248324},{"NoteNumber":46,"Velocity":72,"Duration":303030,"SoundDuration":303030,"Delta":154248324},{"NoteNumber":53,"Velocity":44,"Duration":303030,"SoundDuration":303030,"Delta":154551354},{"NoteNumber":70,"Velocity":58,"Duration":257352,"SoundDuration":257352,"Delta":154854385},{"NoteNumber":74,"Velocity":69,"Duration":257352,"SoundDuration":257352,"Delta":154854385},{"NoteNumber":58,"Velocity":40,"Duration":257352,"SoundDuration":257352,"Delta":154854385},{"NoteNumber":62,"Velocity":48,"Duration":257352,"SoundDuration":257352,"Delta":154854385},{"NoteNumber":74,"Velocity":53,"Duration":309278,"SoundDuration":309278,"Delta":155148502},{"NoteNumber":77,"Velocity":63,"Duration":309278,"SoundDuration":309278,"Delta":155148502},{"NoteNumber":53,"Velocity":44,"Duration":309278,"SoundDuration":309278,"Delta":155148502},{"NoteNumber":72,"Velocity":56,"Duration":609137,"SoundDuration":609137,"Delta":155457781},{"NoteNumber":75,"Velocity":67,"Duration":609137,"SoundDuration":609137,"Delta":155457781},{"NoteNumber":41,"Velocity":48,"Duration":304568,"SoundDuration":304568,"Delta":155457781},{"NoteNumber":53,"Velocity":57,"Duration":304568,"SoundDuration":304568,"Delta":155457781},{"NoteNumber":53,"Velocity":44,"Duration":304568,"SoundDuration":304568,"Delta":155762349},{"NoteNumber":72,"Velocity":61,"Duration":293013,"SoundDuration":293013,"Delta":156066918},{"NoteNumber":69,"Velocity":51,"Duration":293013,"SoundDuration":293013,"Delta":156066918},{"NoteNumber":63,"Velocity":49,"Duration":293013,"SoundDuration":293013,"Delta":156066918},{"NoteNumber":57,"Velocity":41,"Duration":293013,"SoundDuration":293013,"Delta":156066918},{"NoteNumber":72,"Velocity":50,"Duration":304568,"SoundDuration":304568,"Delta":156359931},{"NoteNumber":75,"Velocity":59,"Duration":304568,"SoundDuration":304568,"Delta":156359931},{"NoteNumber":53,"Velocity":45,"Duration":304568,"SoundDuration":304568,"Delta":156359931},{"NoteNumber":74,"Velocity":62,"Duration":591541,"SoundDuration":591541,"Delta":156664499},{"NoteNumber":70,"Velocity":52,"Duration":591541,"SoundDuration":591541,"Delta":156664499},{"NoteNumber":46,"Velocity":68,"Duration":295770,"SoundDuration":295770,"Delta":156664499},{"NoteNumber":53,"Velocity":44,"Duration":295770,"SoundDuration":295770,"Delta":156960270},{"NoteNumber":62,"Velocity":51,"Duration":295770,"SoundDuration":295770,"Delta":157256040},{"NoteNumber":58,"Velocity":43,"Duration":295770,"SoundDuration":295770,"Delta":157256040},{"NoteNumber":77,"Velocity":69,"Duration":152423,"SoundDuration":152423,"Delta":157551811},{"NoteNumber":74,"Velocity":58,"Duration":152423,"SoundDuration":152423,"Delta":157551811},{"NoteNumber":74,"Velocity":63,"Duration":591541,"SoundDuration":591541,"Delta":157856658},{"NoteNumber":77,"Velocity":75,"Duration":591541,"SoundDuration":591541,"Delta":157856658},{"NoteNumber":46,"Velocity":71,"Duration":295770,"SoundDuration":295770,"Delta":157856658},{"NoteNumber":34,"Velocity":60,"Duration":295770,"SoundDuration":295770,"Delta":157856658},{"NoteNumber":53,"Velocity":45,"Duration":295770,"SoundDuration":295770,"Delta":158152428},{"NoteNumber":74,"Velocity":69,"Duration":254261,"SoundDuration":254261,"Delta":158448199},{"NoteNumber":70,"Velocity":58,"Duration":254261,"SoundDuration":254261,"Delta":158448199},{"NoteNumber":58,"Velocity":41,"Duration":254261,"SoundDuration":254261,"Delta":158448199},{"NoteNumber":62,"Velocity":49,"Duration":254261,"SoundDuration":254261,"Delta":158448199},{"NoteNumber":74,"Velocity":53,"Duration":150587,"SoundDuration":150587,"Delta":158738784},{"NoteNumber":77,"Velocity":63,"Duration":150587,"SoundDuration":150587,"Delta":158738784},{"NoteNumber":53,"Velocity":45,"Duration":150587,"SoundDuration":150587,"Delta":158738784},{"NoteNumber":74,"Velocity":62,"Duration":591541,"SoundDuration":591541,"Delta":159039958},{"NoteNumber":77,"Velocity":74,"Duration":591541,"SoundDuration":591541,"Delta":159039958},{"NoteNumber":46,"Velocity":72,"Duration":295770,"SoundDuration":295770,"Delta":159039958},{"NoteNumber":53,"Velocity":44,"Duration":295770,"SoundDuration":295770,"Delta":159335729},{"NoteNumber":70,"Velocity":58,"Duration":251316,"SoundDuration":251316,"Delta":159631499},{"NoteNumber":74,"Velocity":69,"Duration":251316,"SoundDuration":251316,"Delta":159631499},{"NoteNumber":62,"Velocity":48,"Duration":251316,"SoundDuration":251316,"Delta":159631499},{"NoteNumber":58,"Velocity":40,"Duration":251316,"SoundDuration":251316,"Delta":159631499},{"NoteNumber":77,"Velocity":63,"Duration":294002,"SoundDuration":294002,"Delta":159918718},{"NoteNumber":74,"Velocity":53,"Duration":294002,"SoundDuration":294002,"Delta":159918718},{"NoteNumber":53,"Velocity":44,"Duration":294002,"SoundDuration":294002,"Delta":159918718},{"NoteNumber":72,"Velocity":56,"Duration":584623,"SoundDuration":584623,"Delta":160212721},{"NoteNumber":75,"Velocity":67,"Duration":584623,"SoundDuration":584623,"Delta":160212721},{"NoteNumber":53,"Velocity":57,"Duration":292312,"SoundDuration":292312,"Delta":160212721},{"NoteNumber":41,"Velocity":48,"Duration":292312,"SoundDuration":292312,"Delta":160212721},{"NoteNumber":53,"Velocity":44,"Duration":292311,"SoundDuration":292311,"Delta":160505033},{"NoteNumber":72,"Velocity":61,"Duration":283929,"SoundDuration":283929,"Delta":160797345},{"NoteNumber":69,"Velocity":51,"Duration":283929,"SoundDuration":283929,"Delta":160797345},{"NoteNumber":63,"Velocity":49,"Duration":283929,"SoundDuration":283929,"Delta":160797345},{"NoteNumber":57,"Velocity":41,"Duration":283929,"SoundDuration":283929,"Delta":160797345},{"NoteNumber":72,"Velocity":50,"Duration":299311,"SoundDuration":299311,"Delta":161081274},{"NoteNumber":75,"Velocity":59,"Duration":299311,"SoundDuration":299311,"Delta":161081274},{"NoteNumber":53,"Velocity":45,"Duration":299311,"SoundDuration":299311,"Delta":161081274},{"NoteNumber":70,"Velocity":52,"Duration":591541,"SoundDuration":591541,"Delta":161380586},{"NoteNumber":74,"Velocity":62,"Duration":591541,"SoundDuration":591541,"Delta":161380586},{"NoteNumber":46,"Velocity":68,"Duration":295770,"SoundDuration":295770,"Delta":161380586},{"NoteNumber":53,"Velocity":44,"Duration":295770,"SoundDuration":295770,"Delta":161676356},{"NoteNumber":62,"Velocity":51,"Duration":295770,"SoundDuration":295770,"Delta":161972127},{"NoteNumber":58,"Velocity":43,"Duration":295770,"SoundDuration":295770,"Delta":161972127},{"NoteNumber":70,"Velocity":52,"Duration":308641,"SoundDuration":308641,"Delta":162267897},{"NoteNumber":74,"Velocity":62,"Duration":308641,"SoundDuration":308641,"Delta":162267897},{"NoteNumber":69,"Velocity":56,"Duration":595060,"SoundDuration":595060,"Delta":162576539},{"NoteNumber":72,"Velocity":67,"Duration":595060,"SoundDuration":595060,"Delta":162576539},{"NoteNumber":41,"Velocity":49,"Duration":148765,"SoundDuration":148765,"Delta":162576539},{"NoteNumber":53,"Velocity":41,"Duration":148765,"SoundDuration":148765,"Delta":162725304},{"NoteNumber":41,"Velocity":49,"Duration":148765,"SoundDuration":148765,"Delta":162874070},{"NoteNumber":53,"Velocity":41,"Duration":148765,"SoundDuration":148765,"Delta":163022835},{"NoteNumber":69,"Velocity":52,"Duration":297530,"SoundDuration":297530,"Delta":163171600},{"NoteNumber":72,"Velocity":62,"Duration":297530,"SoundDuration":297530,"Delta":163171600},{"NoteNumber":41,"Velocity":49,"Duration":148765,"SoundDuration":148765,"Delta":163171600},{"NoteNumber":53,"Velocity":41,"Duration":148765,"SoundDuration":148765,"Delta":163320365},{"NoteNumber":72,"Velocity":62,"Duration":310590,"SoundDuration":310590,"Delta":163469131},{"NoteNumber":69,"Velocity":52,"Duration":310590,"SoundDuration":310590,"Delta":163469131},{"NoteNumber":41,"Velocity":49,"Duration":155295,"SoundDuration":155295,"Delta":163469131},{"NoteNumber":53,"Velocity":41,"Duration":155295,"SoundDuration":155295,"Delta":163624426},{"NoteNumber":72,"Velocity":57,"Duration":598623,"SoundDuration":598623,"Delta":163779722},{"NoteNumber":75,"Velocity":68,"Duration":598623,"SoundDuration":598623,"Delta":163779722},{"NoteNumber":41,"Velocity":49,"Duration":149655,"SoundDuration":149655,"Delta":163779722},{"NoteNumber":53,"Velocity":41,"Duration":149655,"SoundDuration":149655,"Delta":163929377},{"NoteNumber":41,"Velocity":51,"Duration":149655,"SoundDuration":149655,"Delta":164079033},{"NoteNumber":53,"Velocity":44,"Duration":149655,"SoundDuration":149655,"Delta":164228689},{"NoteNumber":75,"Velocity":64,"Duration":299311,"SoundDuration":299311,"Delta":164378345},{"NoteNumber":72,"Velocity":54,"Duration":299311,"SoundDuration":299311,"Delta":164378345},{"NoteNumber":41,"Velocity":52,"Duration":149655,"SoundDuration":149655,"Delta":164378345},{"NoteNumber":53,"Velocity":45,"Duration":149655,"SoundDuration":149655,"Delta":164528000},{"NoteNumber":72,"Velocity":61,"Duration":312532,"SoundDuration":312532,"Delta":164677656},{"NoteNumber":75,"Velocity":72,"Duration":312532,"SoundDuration":312532,"Delta":164677656},{"NoteNumber":41,"Velocity":53,"Duration":156266,"SoundDuration":156266,"Delta":164677656},{"NoteNumber":53,"Velocity":47,"Duration":156266,"SoundDuration":156266,"Delta":164833922},{"NoteNumber":70,"Velocity":68,"Duration":634920,"SoundDuration":634920,"Delta":164990189},{"NoteNumber":74,"Velocity":80,"Duration":634920,"SoundDuration":634920,"Delta":164990189},{"NoteNumber":46,"Velocity":59,"Duration":158730,"SoundDuration":158730,"Delta":164990189},{"NoteNumber":58,"Velocity":48,"Duration":158730,"SoundDuration":158730,"Delta":165148919},{"NoteNumber":46,"Velocity":62,"Duration":158730,"SoundDuration":158730,"Delta":165307649},{"NoteNumber":58,"Velocity":50,"Duration":158730,"SoundDuration":158730,"Delta":165466379},{"NoteNumber":70,"Velocity":67,"Duration":338028,"SoundDuration":338028,"Delta":165625110},{"NoteNumber":74,"Velocity":79,"Duration":338028,"SoundDuration":338028,"Delta":165625110},{"NoteNumber":46,"Velocity":64,"Duration":169014,"SoundDuration":169014,"Delta":165625110},{"NoteNumber":58,"Velocity":52,"Duration":169014,"SoundDuration":169014,"Delta":165794124},{"NoteNumber":74,"Velocity":82,"Duration":376459,"SoundDuration":376459,"Delta":165963138},{"NoteNumber":70,"Velocity":69,"Duration":376459,"SoundDuration":376459,"Delta":165963138},{"NoteNumber":46,"Velocity":66,"Duration":188229,"SoundDuration":188229,"Delta":165963138},{"NoteNumber":58,"Velocity":55,"Duration":188229,"SoundDuration":188229,"Delta":166151367},{"NoteNumber":70,"Velocity":78,"Duration":1129376,"SoundDuration":1129376,"Delta":166339597},{"NoteNumber":79,"Velocity":86,"Duration":1129376,"SoundDuration":1129376,"Delta":166339597},{"NoteNumber":75,"Velocity":86,"Duration":1129376,"SoundDuration":1129376,"Delta":166339597},{"NoteNumber":39,"Velocity":52,"Duration":1129376,"SoundDuration":1129376,"Delta":166339597},{"NoteNumber":51,"Velocity":59,"Duration":1129376,"SoundDuration":1129376,"Delta":166339597},{"NoteNumber":79,"Velocity":81,"Duration":333555,"SoundDuration":333555,"Delta":167468974},{"NoteNumber":75,"Velocity":81,"Duration":333555,"SoundDuration":333555,"Delta":167468974},{"NoteNumber":70,"Velocity":72,"Duration":333555,"SoundDuration":333555,"Delta":167468974},{"NoteNumber":39,"Velocity":55,"Duration":333555,"SoundDuration":333555,"Delta":167468974},{"NoteNumber":51,"Velocity":60,"Duration":333555,"SoundDuration":333555,"Delta":167468974},{"NoteNumber":70,"Velocity":78,"Duration":663052,"SoundDuration":663052,"Delta":167802529},{"NoteNumber":74,"Velocity":86,"Duration":663052,"SoundDuration":663052,"Delta":167802529},{"NoteNumber":77,"Velocity":86,"Duration":663052,"SoundDuration":663052,"Delta":167802529},{"NoteNumber":41,"Velocity":58,"Duration":663052,"SoundDuration":663052,"Delta":167802529},{"NoteNumber":53,"Velocity":66,"Duration":663052,"SoundDuration":663052,"Delta":167802529},{"NoteNumber":74,"Velocity":82,"Duration":331308,"SoundDuration":331308,"Delta":168465581},{"NoteNumber":70,"Velocity":73,"Duration":331308,"SoundDuration":331308,"Delta":168465581},{"NoteNumber":77,"Velocity":82,"Duration":331308,"SoundDuration":331308,"Delta":168465581},{"NoteNumber":53,"Velocity":61,"Duration":331308,"SoundDuration":331308,"Delta":168465581},{"NoteNumber":41,"Velocity":56,"Duration":331308,"SoundDuration":331308,"Delta":168465581},{"NoteNumber":70,"Velocity":70,"Duration":349976,"SoundDuration":349976,"Delta":168796890},{"NoteNumber":77,"Velocity":79,"Duration":349976,"SoundDuration":349976,"Delta":168796890},{"NoteNumber":74,"Velocity":79,"Duration":349976,"SoundDuration":349976,"Delta":168796890},{"NoteNumber":41,"Velocity":56,"Duration":349976,"SoundDuration":349976,"Delta":168796890},{"NoteNumber":53,"Velocity":61,"Duration":349976,"SoundDuration":349976,"Delta":168796890},{"NoteNumber":77,"Velocity":92,"Duration":658110,"SoundDuration":658110,"Delta":169146866},{"NoteNumber":82,"Velocity":92,"Duration":658110,"SoundDuration":658110,"Delta":169146866},{"NoteNumber":74,"Velocity":83,"Duration":658110,"SoundDuration":658110,"Delta":169146866},{"NoteNumber":70,"Velocity":83,"Duration":658110,"SoundDuration":658110,"Delta":169146866},{"NoteNumber":29,"Velocity":61,"Duration":658110,"SoundDuration":658110,"Delta":169146866},{"NoteNumber":41,"Velocity":69,"Duration":658110,"SoundDuration":658110,"Delta":169146866},{"NoteNumber":70,"Velocity":74,"Duration":338028,"SoundDuration":338028,"Delta":169804977},{"NoteNumber":74,"Velocity":83,"Duration":338028,"SoundDuration":338028,"Delta":169804977},{"NoteNumber":77,"Velocity":83,"Duration":338028,"SoundDuration":338028,"Delta":169804977},{"NoteNumber":41,"Velocity":58,"Duration":338028,"SoundDuration":338028,"Delta":169804977},{"NoteNumber":53,"Velocity":64,"Duration":338028,"SoundDuration":338028,"Delta":169804977},{"NoteNumber":70,"Velocity":79,"Duration":362713,"SoundDuration":362713,"Delta":170143005},{"NoteNumber":65,"Velocity":70,"Duration":362713,"SoundDuration":362713,"Delta":170143005},{"NoteNumber":74,"Velocity":79,"Duration":362713,"SoundDuration":362713,"Delta":170143005},{"NoteNumber":53,"Velocity":59,"Duration":362713,"SoundDuration":362713,"Delta":170143005},{"NoteNumber":41,"Velocity":53,"Duration":362713,"SoundDuration":362713,"Delta":170143005},{"NoteNumber":67,"Velocity":77,"Duration":685478,"SoundDuration":685478,"Delta":170505718},{"NoteNumber":75,"Velocity":85,"Duration":685478,"SoundDuration":685478,"Delta":170505718},{"NoteNumber":72,"Velocity":85,"Duration":685478,"SoundDuration":685478,"Delta":170505718},{"NoteNumber":53,"Velocity":64,"Duration":685478,"SoundDuration":685478,"Delta":170505718},{"NoteNumber":41,"Velocity":58,"Duration":685478,"SoundDuration":685478,"Delta":170505718},{"NoteNumber":69,"Velocity":80,"Duration":354903,"SoundDuration":354903,"Delta":171191197},{"NoteNumber":63,"Velocity":71,"Duration":354903,"SoundDuration":354903,"Delta":171191197},{"NoteNumber":72,"Velocity":80,"Duration":354903,"SoundDuration":354903,"Delta":171191197},{"NoteNumber":53,"Velocity":59,"Duration":354903,"SoundDuration":354903,"Delta":171191197},{"NoteNumber":41,"Velocity":53,"Duration":354903,"SoundDuration":354903,"Delta":171191197},{"NoteNumber":60,"Velocity":63,"Duration":388198,"SoundDuration":388198,"Delta":171546101},{"NoteNumber":69,"Velocity":71,"Duration":388198,"SoundDuration":388198,"Delta":171546101},{"NoteNumber":63,"Velocity":71,"Duration":388198,"SoundDuration":388198,"Delta":171546101},{"NoteNumber":41,"Velocity":53,"Duration":388198,"SoundDuration":388198,"Delta":171546101},{"NoteNumber":53,"Velocity":59,"Duration":388198,"SoundDuration":388198,"Delta":171546101},{"NoteNumber":62,"Velocity":62,"Duration":741656,"SoundDuration":741656,"Delta":171934300},{"NoteNumber":65,"Velocity":69,"Duration":741656,"SoundDuration":741656,"Delta":171934300},{"NoteNumber":70,"Velocity":69,"Duration":741656,"SoundDuration":741656,"Delta":171934300},{"NoteNumber":46,"Velocity":46,"Duration":741656,"SoundDuration":741656,"Delta":171934300},{"NoteNumber":53,"Velocity":51,"Duration":741656,"SoundDuration":741656,"Delta":171934300},{"NoteNumber":63,"Velocity":49,"Duration":741655,"SoundDuration":741655,"Delta":173417612},{"NoteNumber":60,"Velocity":49,"Duration":741655,"SoundDuration":741655,"Delta":173417612},{"NoteNumber":55,"Velocity":49,"Duration":741655,"SoundDuration":741655,"Delta":173417612},{"NoteNumber":48,"Velocity":42,"Duration":741655,"SoundDuration":741655,"Delta":173417612},{"NoteNumber":36,"Velocity":38,"Duration":741655,"SoundDuration":741655,"Delta":173417612},{"NoteNumber":60,"Velocity":42,"Duration":370828,"SoundDuration":370828,"Delta":174159268},{"NoteNumber":57,"Velocity":42,"Duration":370828,"SoundDuration":370828,"Delta":174159268},{"NoteNumber":41,"Velocity":34,"Duration":370828,"SoundDuration":370828,"Delta":174159268},{"NoteNumber":51,"Velocity":38,"Duration":370828,"SoundDuration":370828,"Delta":174159268},{"NoteNumber":53,"Velocity":42,"Duration":391389,"SoundDuration":391389,"Delta":174530096},{"NoteNumber":57,"Velocity":42,"Duration":391389,"SoundDuration":391389,"Delta":174530096},{"NoteNumber":51,"Velocity":38,"Duration":391389,"SoundDuration":391389,"Delta":174530096},{"NoteNumber":41,"Velocity":34,"Duration":391389,"SoundDuration":391389,"Delta":174530096},{"NoteNumber":58,"Velocity":49,"Duration":782779,"SoundDuration":782779,"Delta":174921485},{"NoteNumber":53,"Velocity":49,"Duration":782779,"SoundDuration":782779,"Delta":174921485},{"NoteNumber":50,"Velocity":42,"Duration":782779,"SoundDuration":782779,"Delta":174921485},{"NoteNumber":46,"Velocity":38,"Duration":782779,"SoundDuration":782779,"Delta":174921485},{"NoteNumber":77,"Velocity":56,"Duration":730727,"SoundDuration":730727,"Delta":176434991},{"NoteNumber":70,"Velocity":47,"Duration":730727,"SoundDuration":730727,"Delta":176434991},{"NoteNumber":62,"Velocity":34,"Duration":730727,"SoundDuration":730727,"Delta":176434991},{"NoteNumber":58,"Velocity":34,"Duration":730727,"SoundDuration":730727,"Delta":176434991},{"NoteNumber":68,"Velocity":40,"Duration":730727,"SoundDuration":730727,"Delta":176434991},{"NoteNumber":70,"Velocity":43,"Duration":365363,"SoundDuration":365363,"Delta":177165718},{"NoteNumber":74,"Velocity":51,"Duration":365363,"SoundDuration":365363,"Delta":177165718},{"NoteNumber":68,"Velocity":38,"Duration":365363,"SoundDuration":365363,"Delta":177165718},{"NoteNumber":62,"Velocity":32,"Duration":365363,"SoundDuration":365363,"Delta":177165718},{"NoteNumber":58,"Velocity":32,"Duration":365363,"SoundDuration":365363,"Delta":177165718},{"NoteNumber":70,"Velocity":45,"Duration":349976,"SoundDuration":349976,"Delta":177531082},{"NoteNumber":77,"Velocity":53,"Duration":349976,"SoundDuration":349976,"Delta":177531082},{"NoteNumber":68,"Velocity":38,"Duration":349976,"SoundDuration":349976,"Delta":177531082},{"NoteNumber":62,"Velocity":32,"Duration":349976,"SoundDuration":349976,"Delta":177531082},{"NoteNumber":58,"Velocity":32,"Duration":349976,"SoundDuration":349976,"Delta":177531082},{"NoteNumber":70,"Velocity":50,"Duration":720288,"SoundDuration":720288,"Delta":177881058},{"NoteNumber":80,"Velocity":59,"Duration":720288,"SoundDuration":720288,"Delta":177881058},{"NoteNumber":68,"Velocity":41,"Duration":720288,"SoundDuration":720288,"Delta":177881058},{"NoteNumber":58,"Velocity":34,"Duration":720288,"SoundDuration":720288,"Delta":177881058},{"NoteNumber":62,"Velocity":34,"Duration":720288,"SoundDuration":720288,"Delta":177881058},{"NoteNumber":74,"Velocity":57,"Duration":360143,"SoundDuration":360143,"Delta":178601346},{"NoteNumber":77,"Velocity":60,"Duration":360143,"SoundDuration":360143,"Delta":178601346},{"NoteNumber":62,"Velocity":37,"Duration":360143,"SoundDuration":360143,"Delta":178601346},{"NoteNumber":58,"Velocity":37,"Duration":360143,"SoundDuration":360143,"Delta":178601346},{"NoteNumber":68,"Velocity":44,"Duration":360143,"SoundDuration":360143,"Delta":178601346},{"NoteNumber":80,"Velocity":63,"Duration":373645,"SoundDuration":373645,"Delta":178961490},{"NoteNumber":74,"Velocity":53,"Duration":373645,"SoundDuration":373645,"Delta":178961490},{"NoteNumber":68,"Velocity":44,"Duration":373645,"SoundDuration":373645,"Delta":178961490},{"NoteNumber":58,"Velocity":37,"Duration":373645,"SoundDuration":373645,"Delta":178961490},{"NoteNumber":62,"Velocity":37,"Duration":373645,"SoundDuration":373645,"Delta":178961490},{"NoteNumber":84,"Velocity":68,"Duration":758629,"SoundDuration":758629,"Delta":179335136},{"NoteNumber":74,"Velocity":57,"Duration":758629,"SoundDuration":758629,"Delta":179335136},{"NoteNumber":62,"Velocity":41,"Duration":758629,"SoundDuration":758629,"Delta":179335136},{"NoteNumber":58,"Velocity":41,"Duration":758629,"SoundDuration":758629,"Delta":179335136},{"NoteNumber":68,"Velocity":49,"Duration":758629,"SoundDuration":758629,"Delta":179335136},{"NoteNumber":83,"Velocity":67,"Duration":815834,"SoundDuration":815834,"Delta":180093765},{"NoteNumber":74,"Velocity":56,"Duration":815834,"SoundDuration":815834,"Delta":180093765},{"NoteNumber":68,"Velocity":46,"Duration":815834,"SoundDuration":815834,"Delta":180093765},{"NoteNumber":65,"Velocity":39,"Duration":815834,"SoundDuration":815834,"Delta":180093765},{"NoteNumber":58,"Velocity":39,"Duration":815834,"SoundDuration":815834,"Delta":180093765},{"NoteNumber":82,"Velocity":67,"Duration":149504,"SoundDuration":149504,"Delta":180909599},{"NoteNumber":46,"Velocity":41,"Duration":2550235,"SoundDuration":2550235,"Delta":180909599},{"NoteNumber":53,"Velocity":41,"Duration":2475235,"SoundDuration":2475235,"Delta":180984599},{"NoteNumber":86,"Velocity":56,"Duration":147544,"SoundDuration":147544,"Delta":181059104},{"NoteNumber":56,"Velocity":41,"Duration":2400730,"SoundDuration":2400730,"Delta":181059104},{"NoteNumber":62,"Velocity":49,"Duration":2326715,"SoundDuration":2326715,"Delta":181133118},{"NoteNumber":89,"Velocity":62,"Duration":145164,"SoundDuration":145164,"Delta":181206648},{"NoteNumber":92,"Velocity":61,"Duration":143315,"SoundDuration":143315,"Delta":181351812},{"NoteNumber":94,"Velocity":67,"Duration":141509,"SoundDuration":141509,"Delta":181495127},{"NoteNumber":92,"Velocity":62,"Duration":141509,"SoundDuration":141509,"Delta":181636637},{"NoteNumber":89,"Velocity":66,"Duration":141509,"SoundDuration":141509,"Delta":181778146},{"NoteNumber":86,"Velocity":61,"Duration":141509,"SoundDuration":141509,"Delta":181919655},{"NoteNumber":82,"Velocity":63,"Duration":145548,"SoundDuration":145548,"Delta":182061165},{"NoteNumber":80,"Velocity":60,"Duration":147849,"SoundDuration":147849,"Delta":182206713},{"NoteNumber":77,"Velocity":62,"Duration":152253,"SoundDuration":152253,"Delta":182354563},{"NoteNumber":74,"Velocity":57,"Duration":157386,"SoundDuration":157386,"Delta":182506816},{"NoteNumber":70,"Velocity":60,"Duration":90266,"SoundDuration":90266,"Delta":182664203},{"NoteNumber":68,"Velocity":59,"Duration":93545,"SoundDuration":93545,"Delta":182754469},{"NoteNumber":65,"Velocity":58,"Duration":97799,"SoundDuration":97799,"Delta":182848015},{"NoteNumber":62,"Velocity":58,"Duration":102351,"SoundDuration":102351,"Delta":182945815},{"NoteNumber":58,"Velocity":57,"Duration":107953,"SoundDuration":107953,"Delta":183048166},{"NoteNumber":56,"Velocity":56,"Duration":113023,"SoundDuration":113023,"Delta":183156120},{"NoteNumber":53,"Velocity":56,"Duration":207932,"SoundDuration":207932,"Delta":183269143},{"NoteNumber":39,"Velocity":44,"Duration":827585,"SoundDuration":827585,"Delta":183459834},{"NoteNumber":51,"Velocity":55,"Duration":827585,"SoundDuration":827585,"Delta":183459834},{"NoteNumber":34,"Velocity":39,"Duration":805369,"SoundDuration":805369,"Delta":184287420},{"NoteNumber":46,"Velocity":49,"Duration":805369,"SoundDuration":805369,"Delta":184287420},{"NoteNumber":51,"Velocity":55,"Duration":827585,"SoundDuration":827585,"Delta":185092789},{"NoteNumber":39,"Velocity":44,"Duration":827585,"SoundDuration":827585,"Delta":185092789},{"NoteNumber":46,"Velocity":49,"Duration":805369,"SoundDuration":805369,"Delta":185920375},{"NoteNumber":34,"Velocity":39,"Duration":805369,"SoundDuration":805369,"Delta":185920375},{"NoteNumber":51,"Velocity":55,"Duration":827585,"SoundDuration":827585,"Delta":186725744},{"NoteNumber":39,"Velocity":44,"Duration":827585,"SoundDuration":827585,"Delta":186725744},{"NoteNumber":46,"Velocity":50,"Duration":805369,"SoundDuration":805369,"Delta":187553330},{"NoteNumber":34,"Velocity":39,"Duration":805369,"SoundDuration":805369,"Delta":187553330},{"NoteNumber":39,"Velocity":44,"Duration":827585,"SoundDuration":827585,"Delta":188358699},{"NoteNumber":51,"Velocity":55,"Duration":827585,"SoundDuration":827585,"Delta":188358699},{"NoteNumber":34,"Velocity":39,"Duration":810811,"SoundDuration":810811,"Delta":189186285},{"NoteNumber":46,"Velocity":49,"Duration":810811,"SoundDuration":810811,"Delta":189186285},{"NoteNumber":63,"Velocity":48,"Duration":1638396,"SoundDuration":1638396,"Delta":189997096},{"NoteNumber":67,"Velocity":48,"Duration":1638396,"SoundDuration":1638396,"Delta":189997096},{"NoteNumber":70,"Velocity":48,"Duration":1638396,"SoundDuration":1638396,"Delta":189997096},{"NoteNumber":39,"Velocity":44,"Duration":827585,"SoundDuration":827585,"Delta":189997096},{"NoteNumber":51,"Velocity":55,"Duration":827585,"SoundDuration":827585,"Delta":189997096},{"NoteNumber":46,"Velocity":49,"Duration":810811,"SoundDuration":810811,"Delta":190824682},{"NoteNumber":34,"Velocity":39,"Duration":810811,"SoundDuration":810811,"Delta":190824682},{"NoteNumber":72,"Velocity":47,"Duration":1643912,"SoundDuration":1643912,"Delta":191635493},{"NoteNumber":63,"Velocity":47,"Duration":1643912,"SoundDuration":1643912,"Delta":191635493},{"NoteNumber":68,"Velocity":47,"Duration":1643912,"SoundDuration":1643912,"Delta":191635493},{"NoteNumber":51,"Velocity":55,"Duration":827585,"SoundDuration":827585,"Delta":191635493},{"NoteNumber":39,"Velocity":44,"Duration":827585,"SoundDuration":827585,"Delta":191635493},{"NoteNumber":46,"Velocity":49,"Duration":816327,"SoundDuration":816327,"Delta":192463079},{"NoteNumber":34,"Velocity":39,"Duration":816327,"SoundDuration":816327,"Delta":192463079},{"NoteNumber":63,"Velocity":48,"Duration":1208053,"SoundDuration":1208053,"Delta":193279406},{"NoteNumber":67,"Velocity":48,"Duration":1208053,"SoundDuration":1208053,"Delta":193279406},{"NoteNumber":70,"Velocity":48,"Duration":1208053,"SoundDuration":1208053,"Delta":193279406},{"NoteNumber":51,"Velocity":56,"Duration":805369,"SoundDuration":805369,"Delta":193279406},{"NoteNumber":39,"Velocity":44,"Duration":805369,"SoundDuration":805369,"Delta":193279406},{"NoteNumber":34,"Velocity":39,"Duration":794841,"SoundDuration":794841,"Delta":194084775},{"NoteNumber":46,"Velocity":50,"Duration":794841,"SoundDuration":794841,"Delta":194084775},{"NoteNumber":68,"Velocity":38,"Duration":392156,"SoundDuration":392156,"Delta":194487460},{"NoteNumber":65,"Velocity":38,"Duration":392156,"SoundDuration":392156,"Delta":194487460},{"NoteNumber":63,"Velocity":48,"Duration":784313,"SoundDuration":784313,"Delta":194879617},{"NoteNumber":67,"Velocity":48,"Duration":784313,"SoundDuration":784313,"Delta":194879617},{"NoteNumber":39,"Velocity":44,"Duration":784313,"SoundDuration":784313,"Delta":194879617},{"NoteNumber":51,"Velocity":55,"Duration":784313,"SoundDuration":784313,"Delta":194879617},{"NoteNumber":65,"Velocity":51,"Duration":805949,"SoundDuration":805949,"Delta":195663931},{"NoteNumber":68,"Velocity":51,"Duration":805949,"SoundDuration":805949,"Delta":195663931},{"NoteNumber":34,"Velocity":39,"Duration":805949,"SoundDuration":805949,"Delta":195663931},{"NoteNumber":46,"Velocity":49,"Duration":805949,"SoundDuration":805949,"Delta":195663931},{"NoteNumber":70,"Velocity":57,"Duration":1627586,"SoundDuration":1627586,"Delta":196469881},{"NoteNumber":67,"Velocity":57,"Duration":1627586,"SoundDuration":1627586,"Delta":196469881},{"NoteNumber":63,"Velocity":57,"Duration":1627586,"SoundDuration":1627586,"Delta":196469881},{"NoteNumber":39,"Velocity":44,"Duration":827585,"SoundDuration":827585,"Delta":196469881},{"NoteNumber":51,"Velocity":55,"Duration":827585,"SoundDuration":827585,"Delta":196469881},{"NoteNumber":46,"Velocity":48,"Duration":800000,"SoundDuration":800000,"Delta":197297467},{"NoteNumber":34,"Velocity":38,"Duration":800000,"SoundDuration":800000,"Delta":197297467},{"NoteNumber":63,"Velocity":45,"Duration":1644144,"SoundDuration":1644144,"Delta":198097467},{"NoteNumber":68,"Velocity":45,"Duration":1644144,"SoundDuration":1644144,"Delta":198097467},{"NoteNumber":72,"Velocity":45,"Duration":1644144,"SoundDuration":1644144,"Delta":198097467},{"NoteNumber":44,"Velocity":61,"Duration":833333,"SoundDuration":833333,"Delta":198097467},{"NoteNumber":32,"Velocity":49,"Duration":833333,"SoundDuration":833333,"Delta":198097467},{"NoteNumber":48,"Velocity":50,"Duration":810811,"SoundDuration":810811,"Delta":198930800},{"NoteNumber":36,"Velocity":39,"Duration":810811,"SoundDuration":810811,"Delta":198930800},{"NoteNumber":67,"Velocity":50,"Duration":1208053,"SoundDuration":1208053,"Delta":199741611},{"NoteNumber":63,"Velocity":50,"Duration":1208053,"SoundDuration":1208053,"Delta":199741611},{"NoteNumber":70,"Velocity":50,"Duration":1208053,"SoundDuration":1208053,"Delta":199741611},{"NoteNumber":51,"Velocity":56,"Duration":805369,"SoundDuration":805369,"Delta":199741611},{"NoteNumber":39,"Velocity":44,"Duration":805369,"SoundDuration":805369,"Delta":199741611},{"NoteNumber":46,"Velocity":49,"Duration":794841,"SoundDuration":794841,"Delta":200546980},{"NoteNumber":34,"Velocity":39,"Duration":794841,"SoundDuration":794841,"Delta":200546980},{"NoteNumber":65,"Velocity":40,"Duration":392156,"SoundDuration":392156,"Delta":200949664},{"NoteNumber":68,"Velocity":40,"Duration":392156,"SoundDuration":392156,"Delta":200949664},{"NoteNumber":63,"Velocity":50,"Duration":784313,"SoundDuration":784313,"Delta":201341821},{"NoteNumber":67,"Velocity":50,"Duration":784313,"SoundDuration":784313,"Delta":201341821},{"NoteNumber":39,"Velocity":44,"Duration":784313,"SoundDuration":784313,"Delta":201341821},{"NoteNumber":51,"Velocity":56,"Duration":784313,"SoundDuration":784313,"Delta":201341821},{"NoteNumber":68,"Velocity":55,"Duration":805949,"SoundDuration":805949,"Delta":202126135},{"NoteNumber":65,"Velocity":55,"Duration":805949,"SoundDuration":805949,"Delta":202126135},{"NoteNumber":34,"Velocity":39,"Duration":805949,"SoundDuration":805949,"Delta":202126135},{"NoteNumber":46,"Velocity":50,"Duration":805949,"SoundDuration":805949,"Delta":202126135},{"NoteNumber":63,"Velocity":51,"Duration":1627586,"SoundDuration":1627586,"Delta":202932085},{"NoteNumber":67,"Velocity":51,"Duration":1627586,"SoundDuration":1627586,"Delta":202932085},{"NoteNumber":70,"Velocity":51,"Duration":1627586,"SoundDuration":1627586,"Delta":202932085},{"NoteNumber":51,"Velocity":58,"Duration":827585,"SoundDuration":827585,"Delta":202932085},{"NoteNumber":39,"Velocity":46,"Duration":827585,"SoundDuration":827585,"Delta":202932085},{"NoteNumber":34,"Velocity":40,"Duration":800000,"SoundDuration":800000,"Delta":203759671},{"NoteNumber":46,"Velocity":51,"Duration":800000,"SoundDuration":800000,"Delta":203759671},{"NoteNumber":65,"Velocity":62,"Duration":1621918,"SoundDuration":1621918,"Delta":204559671},{"NoteNumber":58,"Velocity":62,"Duration":1621918,"SoundDuration":1621918,"Delta":204559671},{"NoteNumber":70,"Velocity":62,"Duration":1621918,"SoundDuration":1621918,"Delta":204559671},{"NoteNumber":50,"Velocity":62,"Duration":821918,"SoundDuration":821918,"Delta":204559671},{"NoteNumber":38,"Velocity":49,"Duration":821918,"SoundDuration":821918,"Delta":204559671},{"NoteNumber":46,"Velocity":56,"Duration":800000,"SoundDuration":800000,"Delta":205381589},{"NoteNumber":34,"Velocity":44,"Duration":800000,"SoundDuration":800000,"Delta":205381589},{"NoteNumber":65,"Velocity":68,"Duration":1627586,"SoundDuration":1627586,"Delta":206181589},{"NoteNumber":72,"Velocity":68,"Duration":1627586,"SoundDuration":1627586,"Delta":206181589},{"NoteNumber":69,"Velocity":68,"Duration":1627586,"SoundDuration":1627586,"Delta":206181589},{"NoteNumber":53,"Velocity":67,"Duration":827585,"SoundDuration":827585,"Delta":206181589},{"NoteNumber":41,"Velocity":52,"Duration":827585,"SoundDuration":827585,"Delta":206181589},{"NoteNumber":48,"Velocity":58,"Duration":800000,"SoundDuration":800000,"Delta":207009175},{"NoteNumber":36,"Velocity":46,"Duration":800000,"SoundDuration":800000,"Delta":207009175},{"NoteNumber":70,"Velocity":71,"Duration":821918,"SoundDuration":821918,"Delta":207809175},{"NoteNumber":65,"Velocity":71,"Duration":821918,"SoundDuration":821918,"Delta":207809175},{"NoteNumber":74,"Velocity":71,"Duration":821918,"SoundDuration":821918,"Delta":207809175},{"NoteNumber":46,"Velocity":77,"Duration":821918,"SoundDuration":821918,"Delta":207809175},{"NoteNumber":34,"Velocity":61,"Duration":821918,"SoundDuration":821918,"Delta":207809175},{"NoteNumber":67,"Velocity":75,"Duration":805369,"SoundDuration":805369,"Delta":208631093},{"NoteNumber":75,"Velocity":75,"Duration":805369,"SoundDuration":805369,"Delta":208631093},{"NoteNumber":72,"Velocity":75,"Duration":805369,"SoundDuration":805369,"Delta":208631093},{"NoteNumber":39,"Velocity":56,"Duration":805369,"SoundDuration":805369,"Delta":208631093},{"NoteNumber":51,"Velocity":70,"Duration":805369,"SoundDuration":805369,"Delta":208631093},{"NoteNumber":65,"Velocity":80,"Duration":1649971,"SoundDuration":1649971,"Delta":209436462},{"NoteNumber":70,"Velocity":80,"Duration":1649971,"SoundDuration":1649971,"Delta":209436462},{"NoteNumber":74,"Velocity":80,"Duration":1649971,"SoundDuration":1649971,"Delta":209436462},{"NoteNumber":29,"Velocity":66,"Duration":839160,"SoundDuration":839160,"Delta":209436462},{"NoteNumber":41,"Velocity":82,"Duration":839160,"SoundDuration":839160,"Delta":209436462},{"NoteNumber":53,"Velocity":70,"Duration":810811,"SoundDuration":810811,"Delta":210275623},{"NoteNumber":72,"Velocity":73,"Duration":1639771,"SoundDuration":1639771,"Delta":211086434},{"NoteNumber":69,"Velocity":73,"Duration":1639771,"SoundDuration":1639771,"Delta":211086434},{"NoteNumber":63,"Velocity":73,"Duration":1639771,"SoundDuration":1639771,"Delta":211086434},{"NoteNumber":29,"Velocity":61,"Duration":845069,"SoundDuration":845069,"Delta":211086434},{"NoteNumber":41,"Velocity":78,"Duration":845069,"SoundDuration":845069,"Delta":211086434},{"NoteNumber":53,"Velocity":66,"Duration":794702,"SoundDuration":794702,"Delta":211931504},{"NoteNumber":65,"Velocity":71,"Duration":3178549,"SoundDuration":3178549,"Delta":212726206},{"NoteNumber":62,"Velocity":71,"Duration":3178549,"SoundDuration":3178549,"Delta":212726206},{"NoteNumber":70,"Velocity":71,"Duration":3178549,"SoundDuration":3178549,"Delta":212726206},{"NoteNumber":34,"Velocity":60,"Duration":821918,"SoundDuration":821918,"Delta":212726206},{"NoteNumber":46,"Velocity":75,"Duration":821918,"SoundDuration":821918,"Delta":212726206},{"NoteNumber":46,"Velocity":64,"Duration":759493,"SoundDuration":759493,"Delta":213548124},{"NoteNumber":58,"Velocity":81,"Duration":759493,"SoundDuration":759493,"Delta":213548124},{"NoteNumber":53,"Velocity":73,"Duration":791768,"SoundDuration":791768,"Delta":214307618},{"NoteNumber":41,"Velocity":59,"Duration":791768,"SoundDuration":791768,"Delta":214307618},{"NoteNumber":38,"Velocity":52,"Duration":805369,"SoundDuration":805369,"Delta":215099386},{"NoteNumber":50,"Velocity":66,"Duration":805369,"SoundDuration":805369,"Delta":215099386},{"NoteNumber":58,"Velocity":41,"Duration":1114080,"SoundDuration":1114080,"Delta":215904755},{"NoteNumber":65,"Velocity":41,"Duration":1144819,"SoundDuration":1144819,"Delta":215904755},{"NoteNumber":62,"Velocity":41,"Duration":1144819,"SoundDuration":1144819,"Delta":215904755},{"NoteNumber":34,"Velocity":33,"Duration":752068,"SoundDuration":752068,"Delta":215904755},{"NoteNumber":46,"Velocity":41,"Duration":752068,"SoundDuration":752068,"Delta":215904755},{"NoteNumber":70,"Velocity":36,"Duration":271509,"SoundDuration":271509,"Delta":216656823},{"NoteNumber":58,"Velocity":37,"Duration":368867,"SoundDuration":368867,"Delta":217018836},{"NoteNumber":63,"Velocity":37,"Duration":399606,"SoundDuration":399606,"Delta":217018836},{"NoteNumber":67,"Velocity":37,"Duration":399606,"SoundDuration":399606,"Delta":217018836},{"NoteNumber":65,"Velocity":41,"Duration":767718,"SoundDuration":767718,"Delta":217387704},{"NoteNumber":62,"Velocity":41,"Duration":767718,"SoundDuration":767718,"Delta":217387704},{"NoteNumber":58,"Velocity":41,"Duration":737735,"SoundDuration":737735,"Delta":217387704},{"NoteNumber":70,"Velocity":39,"Duration":276650,"SoundDuration":276650,"Delta":217387704},{"NoteNumber":58,"Velocity":41,"Duration":719596,"SoundDuration":719596,"Delta":218125439},{"NoteNumber":63,"Velocity":41,"Duration":719596,"SoundDuration":719596,"Delta":218125439},{"NoteNumber":67,"Velocity":41,"Duration":719596,"SoundDuration":719596,"Delta":218125439},{"NoteNumber":70,"Velocity":41,"Duration":269848,"SoundDuration":269848,"Delta":218125439},{"NoteNumber":68,"Velocity":41,"Duration":1116728,"SoundDuration":1116728,"Delta":218845036},{"NoteNumber":58,"Velocity":41,"Duration":1086369,"SoundDuration":1086369,"Delta":218845036},{"NoteNumber":65,"Velocity":41,"Duration":1116728,"SoundDuration":1116728,"Delta":218845036},{"NoteNumber":46,"Velocity":48,"Duration":733137,"SoundDuration":733137,"Delta":218845036},{"NoteNumber":34,"Velocity":48,"Duration":733137,"SoundDuration":733137,"Delta":218845036},{"NoteNumber":82,"Velocity":49,"Duration":264924,"SoundDuration":264924,"Delta":219578174},{"NoteNumber":58,"Velocity":35,"Duration":364298,"SoundDuration":364298,"Delta":219931406},{"NoteNumber":67,"Velocity":35,"Duration":393734,"SoundDuration":393734,"Delta":219931406},{"NoteNumber":70,"Velocity":35,"Duration":393734,"SoundDuration":393734,"Delta":219931406},{"NoteNumber":68,"Velocity":41,"Duration":1412927,"SoundDuration":1412927,"Delta":220295704},{"NoteNumber":58,"Velocity":41,"Duration":1412927,"SoundDuration":1412927,"Delta":220295704},{"NoteNumber":65,"Velocity":41,"Duration":1412927,"SoundDuration":1412927,"Delta":220295704},{"NoteNumber":82,"Velocity":49,"Duration":264924,"SoundDuration":264924,"Delta":220295704},{"NoteNumber":82,"Velocity":50,"Duration":264923,"SoundDuration":264923,"Delta":221002168},{"NoteNumber":58,"Velocity":48,"Duration":1078721,"SoundDuration":1078721,"Delta":221708632},{"NoteNumber":63,"Velocity":48,"Duration":1108889,"SoundDuration":1108889,"Delta":221708632},{"NoteNumber":67,"Velocity":48,"Duration":1108889,"SoundDuration":1108889,"Delta":221708632},{"NoteNumber":51,"Velocity":49,"Duration":724026,"SoundDuration":724026,"Delta":221708632},{"NoteNumber":39,"Velocity":49,"Duration":724026,"SoundDuration":724026,"Delta":221725224},{"NoteNumber":75,"Velocity":52,"Duration":266387,"SoundDuration":266387,"Delta":222432658},{"NoteNumber":68,"Velocity":40,"Duration":391630,"SoundDuration":391630,"Delta":222787354},{"NoteNumber":58,"Velocity":40,"Duration":362012,"SoundDuration":362012,"Delta":222787354},{"NoteNumber":65,"Velocity":40,"Duration":391630,"SoundDuration":391630,"Delta":222787354},{"NoteNumber":58,"Velocity":52,"Duration":710815,"SoundDuration":710815,"Delta":223149367},{"NoteNumber":67,"Velocity":52,"Duration":740613,"SoundDuration":740613,"Delta":223149367},{"NoteNumber":75,"Velocity":52,"Duration":266556,"SoundDuration":266556,"Delta":223149367},{"NoteNumber":63,"Velocity":52,"Duration":740649,"SoundDuration":740649,"Delta":223155290},{"NoteNumber":68,"Velocity":52,"Duration":715136,"SoundDuration":715136,"Delta":223860183},{"NoteNumber":65,"Velocity":52,"Duration":715136,"SoundDuration":715136,"Delta":223860183},{"NoteNumber":58,"Velocity":52,"Duration":715136,"SoundDuration":715136,"Delta":223860183},{"NoteNumber":75,"Velocity":56,"Duration":268176,"SoundDuration":268176,"Delta":223860183},{"NoteNumber":63,"Velocity":57,"Duration":1086369,"SoundDuration":1086369,"Delta":224575320},{"NoteNumber":67,"Velocity":57,"Duration":1116353,"SoundDuration":1116353,"Delta":224575320},{"NoteNumber":70,"Velocity":57,"Duration":1116353,"SoundDuration":1116353,"Delta":224575320},{"NoteNumber":39,"Velocity":59,"Duration":733137,"SoundDuration":733137,"Delta":224575320},{"NoteNumber":51,"Velocity":59,"Duration":733137,"SoundDuration":733137,"Delta":224575320},{"NoteNumber":87,"Velocity":66,"Duration":264924,"SoundDuration":264924,"Delta":225308458},{"NoteNumber":68,"Velocity":45,"Duration":389966,"SoundDuration":389966,"Delta":225661690},{"NoteNumber":63,"Velocity":45,"Duration":359798,"SoundDuration":359798,"Delta":225661690},{"NoteNumber":72,"Velocity":45,"Duration":389966,"SoundDuration":389966,"Delta":225661690},{"NoteNumber":63,"Velocity":57,"Duration":1448051,"SoundDuration":1448051,"Delta":226021488},{"NoteNumber":70,"Velocity":57,"Duration":1448051,"SoundDuration":1448051,"Delta":226021488},{"NoteNumber":67,"Velocity":57,"Duration":1448051,"SoundDuration":1448051,"Delta":226021488},{"NoteNumber":87,"Velocity":66,"Duration":271509,"SoundDuration":271509,"Delta":226021488},{"NoteNumber":87,"Velocity":66,"Duration":271509,"SoundDuration":271509,"Delta":226745514},{"NoteNumber":70,"Velocity":79,"Duration":735641,"SoundDuration":735641,"Delta":227469540},{"NoteNumber":67,"Velocity":79,"Duration":735641,"SoundDuration":735641,"Delta":227469540},{"NoteNumber":63,"Velocity":79,"Duration":735641,"SoundDuration":735641,"Delta":227469540},{"NoteNumber":75,"Velocity":89,"Duration":735641,"SoundDuration":735641,"Delta":227469540},{"NoteNumber":51,"Velocity":72,"Duration":1458900,"SoundDuration":1458900,"Delta":227469540},{"NoteNumber":39,"Velocity":64,"Duration":1458900,"SoundDuration":1458900,"Delta":227469540},{"NoteNumber":63,"Velocity":78,"Duration":723259,"SoundDuration":723259,"Delta":228205182},{"NoteNumber":74,"Velocity":86,"Duration":723259,"SoundDuration":723259,"Delta":228205182},{"NoteNumber":70,"Velocity":78,"Duration":723259,"SoundDuration":723259,"Delta":228205182},{"NoteNumber":63,"Velocity":74,"Duration":731707,"SoundDuration":731707,"Delta":228928441},{"NoteNumber":68,"Velocity":83,"Duration":731707,"SoundDuration":731707,"Delta":228928441},{"NoteNumber":72,"Velocity":74,"Duration":731707,"SoundDuration":731707,"Delta":228928441},{"NoteNumber":44,"Velocity":55,"Duration":731707,"SoundDuration":731707,"Delta":228928441},{"NoteNumber":56,"Velocity":61,"Duration":731707,"SoundDuration":731707,"Delta":228928441},{"NoteNumber":70,"Velocity":82,"Duration":767066,"SoundDuration":767066,"Delta":229660148},{"NoteNumber":67,"Velocity":73,"Duration":767066,"SoundDuration":767066,"Delta":229660148},{"NoteNumber":63,"Velocity":73,"Duration":767066,"SoundDuration":767066,"Delta":229660148},{"NoteNumber":39,"Velocity":53,"Duration":767066,"SoundDuration":767066,"Delta":229660148},{"NoteNumber":51,"Velocity":60,"Duration":767066,"SoundDuration":767066,"Delta":229660148},{"NoteNumber":63,"Velocity":83,"Duration":767066,"SoundDuration":767066,"Delta":230427215},{"NoteNumber":72,"Velocity":83,"Duration":767066,"SoundDuration":767066,"Delta":230427215},{"NoteNumber":75,"Velocity":93,"Duration":767066,"SoundDuration":767066,"Delta":230427215},{"NoteNumber":32,"Velocity":71,"Duration":1503263,"SoundDuration":1503263,"Delta":230427215},{"NoteNumber":44,"Velocity":80,"Duration":1503263,"SoundDuration":1503263,"Delta":230427215},{"NoteNumber":72,"Velocity":80,"Duration":736196,"SoundDuration":736196,"Delta":231194282},{"NoteNumber":63,"Velocity":71,"Duration":736196,"SoundDuration":736196,"Delta":231194282},{"NoteNumber":68,"Velocity":71,"Duration":736196,"SoundDuration":736196,"Delta":231194282},{"NoteNumber":60,"Velocity":72,"Duration":764330,"SoundDuration":764330,"Delta":231930478},{"NoteNumber":67,"Velocity":72,"Duration":764330,"SoundDuration":764330,"Delta":231930478},{"NoteNumber":70,"Velocity":81,"Duration":764330,"SoundDuration":764330,"Delta":231930478},{"NoteNumber":48,"Velocity":71,"Duration":764330,"SoundDuration":764330,"Delta":231930478},{"NoteNumber":36,"Velocity":62,"Duration":764330,"SoundDuration":764330,"Delta":231930478},{"NoteNumber":68,"Velocity":74,"Duration":794702,"SoundDuration":794702,"Delta":232694809},{"NoteNumber":60,"Velocity":67,"Duration":794702,"SoundDuration":794702,"Delta":232694809},{"NoteNumber":65,"Velocity":67,"Duration":794702,"SoundDuration":794702,"Delta":232694809},{"NoteNumber":53,"Velocity":61,"Duration":794702,"SoundDuration":794702,"Delta":232694809},{"NoteNumber":41,"Velocity":55,"Duration":794702,"SoundDuration":794702,"Delta":232694809},{"NoteNumber":58,"Velocity":79,"Duration":1628635,"SoundDuration":1628635,"Delta":233489511},{"NoteNumber":63,"Velocity":79,"Duration":1628635,"SoundDuration":1628635,"Delta":233489511},{"NoteNumber":67,"Velocity":89,"Duration":1628635,"SoundDuration":1628635,"Delta":233489511},{"NoteNumber":46,"Velocity":77,"Duration":839160,"SoundDuration":839160,"Delta":233489511},{"NoteNumber":34,"Velocity":68,"Duration":839160,"SoundDuration":839160,"Delta":233489511},{"NoteNumber":70,"Velocity":62,"Duration":394736,"SoundDuration":394736,"Delta":234328672},{"NoteNumber":62,"Velocity":59,"Duration":1607527,"SoundDuration":1607527,"Delta":235118146},{"NoteNumber":65,"Velocity":66,"Duration":1607527,"SoundDuration":1607527,"Delta":235118146},{"NoteNumber":58,"Velocity":66,"Duration":1607527,"SoundDuration":1607527,"Delta":235118146},{"NoteNumber":56,"Velocity":58,"Duration":1607527,"SoundDuration":1607527,"Delta":235118146},{"NoteNumber":34,"Velocity":67,"Duration":833333,"SoundDuration":833333,"Delta":235118146},{"NoteNumber":46,"Velocity":74,"Duration":833333,"SoundDuration":833333,"Delta":235118146},{"NoteNumber":82,"Velocity":68,"Duration":387097,"SoundDuration":387097,"Delta":235951479},{"NoteNumber":55,"Velocity":59,"Duration":805369,"SoundDuration":805369,"Delta":236725673},{"NoteNumber":63,"Velocity":67,"Duration":805369,"SoundDuration":805369,"Delta":236725673},{"NoteNumber":58,"Velocity":59,"Duration":805369,"SoundDuration":805369,"Delta":236725673},{"NoteNumber":39,"Velocity":51,"Duration":805369,"SoundDuration":805369,"Delta":236725673},{"NoteNumber":51,"Velocity":58,"Duration":805369,"SoundDuration":805369,"Delta":236725673},{"NoteNumber":82,"Velocity":61,"Duration":181818,"SoundDuration":181818,"Delta":237531042},{"NoteNumber":63,"Velocity":58,"Duration":727272,"SoundDuration":727272,"Delta":237531042},{"NoteNumber":58,"Velocity":58,"Duration":727272,"SoundDuration":727272,"Delta":237531042},{"NoteNumber":67,"Velocity":58,"Duration":727272,"SoundDuration":727272,"Delta":237531042},{"NoteNumber":70,"Velocity":50,"Duration":181818,"SoundDuration":181818,"Delta":237712860},{"NoteNumber":82,"Velocity":66,"Duration":181818,"SoundDuration":181818,"Delta":237894678},{"NoteNumber":70,"Velocity":53,"Duration":181818,"SoundDuration":181818,"Delta":238076497},{"NoteNumber":82,"Velocity":67,"Duration":181818,"SoundDuration":181818,"Delta":238258315},{"NoteNumber":58,"Velocity":61,"Duration":727272,"SoundDuration":727272,"Delta":238258315},{"NoteNumber":56,"Velocity":61,"Duration":727272,"SoundDuration":727272,"Delta":238258315},{"NoteNumber":65,"Velocity":61,"Duration":727272,"SoundDuration":727272,"Delta":238258315},{"NoteNumber":70,"Velocity":53,"Duration":181818,"SoundDuration":181818,"Delta":238440133},{"NoteNumber":82,"Velocity":70,"Duration":181818,"SoundDuration":181818,"Delta":238621951},{"NoteNumber":70,"Velocity":57,"Duration":181818,"SoundDuration":181818,"Delta":238803770},{"NoteNumber":82,"Velocity":71,"Duration":201342,"SoundDuration":201342,"Delta":238985588},{"NoteNumber":58,"Velocity":62,"Duration":805369,"SoundDuration":805369,"Delta":238985588},{"NoteNumber":53,"Velocity":62,"Duration":805369,"SoundDuration":805369,"Delta":238985588},{"NoteNumber":62,"Velocity":62,"Duration":805369,"SoundDuration":805369,"Delta":238985588},{"NoteNumber":70,"Velocity":60,"Duration":201342,"SoundDuration":201342,"Delta":239186930},{"NoteNumber":82,"Velocity":74,"Duration":201342,"SoundDuration":201342,"Delta":239388272},{"NoteNumber":70,"Velocity":62,"Duration":201342,"SoundDuration":201342,"Delta":239589615},{"NoteNumber":75,"Velocity":75,"Duration":1569199,"SoundDuration":1569199,"Delta":239790957},{"NoteNumber":82,"Velocity":84,"Duration":1569199,"SoundDuration":1569199,"Delta":239790957},{"NoteNumber":79,"Velocity":75,"Duration":1569199,"SoundDuration":1569199,"Delta":239790957},{"NoteNumber":70,"Velocity":75,"Duration":1569199,"SoundDuration":1569199,"Delta":239790957},{"NoteNumber":39,"Velocity":75,"Duration":198150,"SoundDuration":198150,"Delta":239790957},{"NoteNumber":46,"Velocity":62,"Duration":198150,"SoundDuration":198150,"Delta":239989107},{"NoteNumber":51,"Velocity":70,"Duration":198150,"SoundDuration":198150,"Delta":240187258},{"NoteNumber":55,"Velocity":61,"Duration":198150,"SoundDuration":198150,"Delta":240385408},{"NoteNumber":58,"Velocity":75,"Duration":194149,"SoundDuration":194149,"Delta":240583559},{"NoteNumber":63,"Velocity":63,"Duration":194149,"SoundDuration":194149,"Delta":240777708},{"NoteNumber":67,"Velocity":70,"Duration":194149,"SoundDuration":194149,"Delta":240971858},{"NoteNumber":63,"Velocity":62,"Duration":194149,"SoundDuration":194149,"Delta":241166007},{"NoteNumber":80,"Velocity":74,"Duration":1574462,"SoundDuration":1574462,"Delta":241360157},{"NoteNumber":84,"Velocity":83,"Duration":1574462,"SoundDuration":1574462,"Delta":241360157},{"NoteNumber":75,"Velocity":74,"Duration":1574462,"SoundDuration":1574462,"Delta":241360157},{"NoteNumber":72,"Velocity":74,"Duration":1574462,"SoundDuration":1574462,"Delta":241360157},{"NoteNumber":68,"Velocity":81,"Duration":396300,"SoundDuration":396300,"Delta":241360157},{"NoteNumber":63,"Velocity":72,"Duration":396300,"SoundDuration":396300,"Delta":241756458},{"NoteNumber":60,"Velocity":78,"Duration":390930,"SoundDuration":390930,"Delta":242152759},{"NoteNumber":56,"Velocity":72,"Duration":390930,"SoundDuration":390930,"Delta":242543689},{"NoteNumber":70,"Velocity":75,"Duration":1157110,"SoundDuration":1157110,"Delta":242934620},{"NoteNumber":82,"Velocity":84,"Duration":1157110,"SoundDuration":1157110,"Delta":242934620},{"NoteNumber":79,"Velocity":75,"Duration":1157110,"SoundDuration":1157110,"Delta":242934620},{"NoteNumber":75,"Velocity":84,"Duration":1157110,"SoundDuration":1157110,"Delta":242934620},{"NoteNumber":39,"Velocity":75,"Duration":192851,"SoundDuration":192851,"Delta":242934620},{"NoteNumber":46,"Velocity":68,"Duration":192851,"SoundDuration":192851,"Delta":243127472},{"NoteNumber":51,"Velocity":68,"Duration":192851,"SoundDuration":192851,"Delta":243320323},{"NoteNumber":55,"Velocity":68,"Duration":192851,"SoundDuration":192851,"Delta":243513175},{"NoteNumber":58,"Velocity":78,"Duration":385703,"SoundDuration":385703,"Delta":243706027},{"NoteNumber":68,"Velocity":61,"Duration":375610,"SoundDuration":375610,"Delta":244091730},{"NoteNumber":77,"Velocity":60,"Duration":375610,"SoundDuration":375610,"Delta":244091730},{"NoteNumber":80,"Velocity":68,"Duration":375610,"SoundDuration":375610,"Delta":244091730},{"NoteNumber":63,"Velocity":68,"Duration":375610,"SoundDuration":375610,"Delta":244091730},{"NoteNumber":79,"Velocity":84,"Duration":751221,"SoundDuration":751221,"Delta":244467341},{"NoteNumber":67,"Velocity":75,"Duration":751221,"SoundDuration":751221,"Delta":244467341},{"NoteNumber":75,"Velocity":75,"Duration":751221,"SoundDuration":751221,"Delta":244467341},{"NoteNumber":51,"Velocity":83,"Duration":375610,"SoundDuration":375610,"Delta":244467341},{"NoteNumber":63,"Velocity":75,"Duration":375610,"SoundDuration":375610,"Delta":244842951},{"NoteNumber":68,"Velocity":83,"Duration":771911,"SoundDuration":771911,"Delta":245218562},{"NoteNumber":77,"Velocity":82,"Duration":771911,"SoundDuration":771911,"Delta":245218562},{"NoteNumber":80,"Velocity":92,"Duration":771911,"SoundDuration":771911,"Delta":245218562},{"NoteNumber":46,"Velocity":83,"Duration":375610,"SoundDuration":375610,"Delta":245218562},{"NoteNumber":58,"Velocity":68,"Duration":396300,"SoundDuration":396300,"Delta":245594172},{"NoteNumber":79,"Velocity":89,"Duration":1558886,"SoundDuration":1558886,"Delta":245990473},{"NoteNumber":82,"Velocity":100,"Duration":1558886,"SoundDuration":1558886,"Delta":245990473},{"NoteNumber":75,"Velocity":89,"Duration":1558886,"SoundDuration":1558886,"Delta":245990473},{"NoteNumber":70,"Velocity":89,"Duration":1558886,"SoundDuration":1558886,"Delta":245990473},{"NoteNumber":39,"Velocity":81,"Duration":198150,"SoundDuration":198150,"Delta":245990473},{"NoteNumber":46,"Velocity":64,"Duration":198150,"SoundDuration":198150,"Delta":246188624},{"NoteNumber":51,"Velocity":64,"Duration":198150,"SoundDuration":198150,"Delta":246386774},{"NoteNumber":55,"Velocity":64,"Duration":198150,"SoundDuration":198150,"Delta":246584925},{"NoteNumber":58,"Velocity":75,"Duration":191571,"SoundDuration":191571,"Delta":246783075},{"NoteNumber":63,"Velocity":63,"Duration":191570,"SoundDuration":191570,"Delta":246974646},{"NoteNumber":67,"Velocity":63,"Duration":191571,"SoundDuration":191571,"Delta":247166217},{"NoteNumber":63,"Velocity":63,"Duration":191571,"SoundDuration":191571,"Delta":247357788},{"NoteNumber":72,"Velocity":82,"Duration":1574789,"SoundDuration":1574789,"Delta":247549359},{"NoteNumber":75,"Velocity":82,"Duration":1574789,"SoundDuration":1574789,"Delta":247549359},{"NoteNumber":84,"Velocity":91,"Duration":1574789,"SoundDuration":1574789,"Delta":247549359},{"NoteNumber":80,"Velocity":81,"Duration":1574789,"SoundDuration":1574789,"Delta":247549359},{"NoteNumber":68,"Velocity":81,"Duration":399095,"SoundDuration":399095,"Delta":247549359},{"NoteNumber":63,"Velocity":68,"Duration":399095,"SoundDuration":399095,"Delta":247948455},{"NoteNumber":60,"Velocity":75,"Duration":388298,"SoundDuration":388298,"Delta":248347550},{"NoteNumber":56,"Velocity":68,"Duration":388299,"SoundDuration":388299,"Delta":248735849},{"NoteNumber":70,"Velocity":85,"Duration":1157110,"SoundDuration":1157110,"Delta":249124148},{"NoteNumber":75,"Velocity":85,"Duration":1157110,"SoundDuration":1157110,"Delta":249124148},{"NoteNumber":79,"Velocity":86,"Duration":1157110,"SoundDuration":1157110,"Delta":249124148},{"NoteNumber":82,"Velocity":96,"Duration":1157110,"SoundDuration":1157110,"Delta":249124148},{"NoteNumber":39,"Velocity":77,"Duration":192851,"SoundDuration":192851,"Delta":249124148},{"NoteNumber":46,"Velocity":62,"Duration":192851,"SoundDuration":192851,"Delta":249317000},{"NoteNumber":51,"Velocity":62,"Duration":192851,"SoundDuration":192851,"Delta":249509852},{"NoteNumber":55,"Velocity":62,"Duration":192851,"SoundDuration":192851,"Delta":249702704},{"NoteNumber":58,"Velocity":68,"Duration":385703,"SoundDuration":385703,"Delta":249895555},{"NoteNumber":80,"Velocity":72,"Duration":375610,"SoundDuration":375610,"Delta":250281259},{"NoteNumber":77,"Velocity":64,"Duration":375610,"SoundDuration":375610,"Delta":250281259},{"NoteNumber":68,"Velocity":64,"Duration":375610,"SoundDuration":375610,"Delta":250281259},{"NoteNumber":63,"Velocity":62,"Duration":375610,"SoundDuration":375610,"Delta":250281259},{"NoteNumber":67,"Velocity":80,"Duration":751221,"SoundDuration":751221,"Delta":250656869},{"NoteNumber":75,"Velocity":79,"Duration":751221,"SoundDuration":751221,"Delta":250656869},{"NoteNumber":79,"Velocity":89,"Duration":751221,"SoundDuration":751221,"Delta":250656869},{"NoteNumber":51,"Velocity":68,"Duration":375610,"SoundDuration":375610,"Delta":250656869},{"NoteNumber":63,"Velocity":62,"Duration":375610,"SoundDuration":375610,"Delta":251032480},{"NoteNumber":77,"Velocity":86,"Duration":771911,"SoundDuration":771911,"Delta":251408090},{"NoteNumber":68,"Velocity":85,"Duration":771911,"SoundDuration":771911,"Delta":251408090},{"NoteNumber":80,"Velocity":96,"Duration":771911,"SoundDuration":771911,"Delta":251408090},{"NoteNumber":46,"Velocity":68,"Duration":375610,"SoundDuration":375610,"Delta":251408090},{"NoteNumber":58,"Velocity":62,"Duration":396300,"SoundDuration":396300,"Delta":251783701},{"NoteNumber":70,"Velocity":88,"Duration":1558886,"SoundDuration":1558886,"Delta":252180002},{"NoteNumber":82,"Velocity":99,"Duration":1558886,"SoundDuration":1558886,"Delta":252180002},{"NoteNumber":79,"Velocity":89,"Duration":1558886,"SoundDuration":1558886,"Delta":252180002},{"NoteNumber":75,"Velocity":88,"Duration":1558886,"SoundDuration":1558886,"Delta":252180002},{"NoteNumber":39,"Velocity":77,"Duration":198150,"SoundDuration":198150,"Delta":252180002},{"NoteNumber":46,"Velocity":63,"Duration":198150,"SoundDuration":198150,"Delta":252378152},{"NoteNumber":51,"Velocity":63,"Duration":198150,"SoundDuration":198150,"Delta":252576303},{"NoteNumber":55,"Velocity":63,"Duration":198150,"SoundDuration":198150,"Delta":252774453},{"NoteNumber":46,"Velocity":73,"Duration":191571,"SoundDuration":191571,"Delta":252972604},{"NoteNumber":51,"Velocity":63,"Duration":191570,"SoundDuration":191570,"Delta":253164175},{"NoteNumber":55,"Velocity":63,"Duration":191571,"SoundDuration":191571,"Delta":253355746},{"NoteNumber":58,"Velocity":64,"Duration":191571,"SoundDuration":191571,"Delta":253547317},{"NoteNumber":74,"Velocity":89,"Duration":1553479,"SoundDuration":1553479,"Delta":253738888},{"NoteNumber":82,"Velocity":100,"Duration":1553479,"SoundDuration":1553479,"Delta":253738888},{"NoteNumber":77,"Velocity":89,"Duration":1553479,"SoundDuration":1553479,"Delta":253738888},{"NoteNumber":70,"Velocity":89,"Duration":1553479,"SoundDuration":1553479,"Delta":253738888},{"NoteNumber":50,"Velocity":82,"Duration":196798,"SoundDuration":196798,"Delta":253738888},{"NoteNumber":53,"Velocity":66,"Duration":196798,"SoundDuration":196798,"Delta":253935687},{"NoteNumber":58,"Velocity":66,"Duration":196798,"SoundDuration":196798,"Delta":254132485},{"NoteNumber":62,"Velocity":66,"Duration":196798,"SoundDuration":196798,"Delta":254329284},{"NoteNumber":58,"Velocity":82,"Duration":191571,"SoundDuration":191571,"Delta":254526083},{"NoteNumber":62,"Velocity":68,"Duration":191570,"SoundDuration":191570,"Delta":254717654},{"NoteNumber":58,"Velocity":68,"Duration":191571,"SoundDuration":191571,"Delta":254909225},{"NoteNumber":53,"Velocity":68,"Duration":191571,"SoundDuration":191571,"Delta":255100796},{"NoteNumber":81,"Velocity":90,"Duration":1558886,"SoundDuration":1558886,"Delta":255292367},{"NoteNumber":84,"Velocity":101,"Duration":1558886,"SoundDuration":1558886,"Delta":255292367},{"NoteNumber":77,"Velocity":90,"Duration":1558886,"SoundDuration":1558886,"Delta":255292367},{"NoteNumber":72,"Velocity":90,"Duration":1558886,"SoundDuration":1558886,"Delta":255292367},{"NoteNumber":41,"Velocity":82,"Duration":396300,"SoundDuration":396300,"Delta":255292367},{"NoteNumber":45,"Velocity":68,"Duration":198150,"SoundDuration":198150,"Delta":255688668},{"NoteNumber":48,"Velocity":68,"Duration":198150,"SoundDuration":198150,"Delta":255886818},{"NoteNumber":53,"Velocity":74,"Duration":191571,"SoundDuration":191571,"Delta":256084969},{"NoteNumber":57,"Velocity":68,"Duration":191571,"SoundDuration":191571,"Delta":256276540},{"NoteNumber":60,"Velocity":68,"Duration":191570,"SoundDuration":191570,"Delta":256468111},{"NoteNumber":65,"Velocity":68,"Duration":191571,"SoundDuration":191571,"Delta":256659682},{"NoteNumber":77,"Velocity":93,"Duration":787194,"SoundDuration":787194,"Delta":256851253},{"NoteNumber":86,"Velocity":104,"Duration":787194,"SoundDuration":787194,"Delta":256851253},{"NoteNumber":82,"Velocity":93,"Duration":787194,"SoundDuration":787194,"Delta":256851253},{"NoteNumber":74,"Velocity":93,"Duration":787194,"SoundDuration":787194,"Delta":256851253},{"NoteNumber":58,"Velocity":81,"Duration":787194,"SoundDuration":787194,"Delta":256851253},{"NoteNumber":46,"Velocity":81,"Duration":787194,"SoundDuration":787194,"Delta":256851253},{"NoteNumber":75,"Velocity":97,"Duration":771407,"SoundDuration":771407,"Delta":257638448},{"NoteNumber":79,"Velocity":97,"Duration":771407,"SoundDuration":771407,"Delta":257638448},{"NoteNumber":84,"Velocity":97,"Duration":771407,"SoundDuration":771407,"Delta":257638448},{"NoteNumber":87,"Velocity":108,"Duration":771407,"SoundDuration":771407,"Delta":257638448},{"NoteNumber":51,"Velocity":83,"Duration":771407,"SoundDuration":771407,"Delta":257638448},{"NoteNumber":39,"Velocity":83,"Duration":771407,"SoundDuration":771407,"Delta":257638448},{"NoteNumber":77,"Velocity":101,"Duration":1526315,"SoundDuration":1526315,"Delta":258409855},{"NoteNumber":86,"Velocity":112,"Duration":1526315,"SoundDuration":1526315,"Delta":258409855},{"NoteNumber":82,"Velocity":100,"Duration":1526315,"SoundDuration":1526315,"Delta":258409855},{"NoteNumber":74,"Velocity":101,"Duration":1526315,"SoundDuration":1526315,"Delta":258409855},{"NoteNumber":41,"Velocity":85,"Duration":401875,"SoundDuration":401875,"Delta":258409855},{"NoteNumber":53,"Velocity":85,"Duration":401875,"SoundDuration":401875,"Delta":258409855},{"NoteNumber":70,"Velocity":81,"Duration":181270,"SoundDuration":181270,"Delta":258811730},{"NoteNumber":69,"Velocity":81,"Duration":183487,"SoundDuration":183487,"Delta":258993001},{"NoteNumber":67,"Velocity":80,"Duration":186146,"SoundDuration":186146,"Delta":259176489},{"NoteNumber":65,"Velocity":80,"Duration":188485,"SoundDuration":188485,"Delta":259362635},{"NoteNumber":63,"Velocity":78,"Duration":191289,"SoundDuration":191289,"Delta":259551120},{"NoteNumber":62,"Velocity":78,"Duration":193760,"SoundDuration":193760,"Delta":259742410},{"NoteNumber":81,"Velocity":91,"Duration":1551466,"SoundDuration":1551466,"Delta":259936171},{"NoteNumber":84,"Velocity":102,"Duration":1551466,"SoundDuration":1551466,"Delta":259936171},{"NoteNumber":75,"Velocity":91,"Duration":1551466,"SoundDuration":1551466,"Delta":259936171},{"NoteNumber":72,"Velocity":91,"Duration":1551466,"SoundDuration":1551466,"Delta":259936171},{"NoteNumber":60,"Velocity":74,"Duration":196078,"SoundDuration":196078,"Delta":259936171},{"NoteNumber":58,"Velocity":74,"Duration":196078,"SoundDuration":196078,"Delta":260132249},{"NoteNumber":57,"Velocity":73,"Duration":196078,"SoundDuration":196078,"Delta":260328328},{"NoteNumber":55,"Velocity":72,"Duration":194648,"SoundDuration":194648,"Delta":260524406},{"NoteNumber":53,"Velocity":71,"Duration":188485,"SoundDuration":188485,"Delta":260719055},{"NoteNumber":51,"Velocity":71,"Duration":190883,"SoundDuration":190883,"Delta":260907540},{"NoteNumber":50,"Velocity":70,"Duration":193344,"SoundDuration":193344,"Delta":261098424},{"NoteNumber":48,"Velocity":69,"Duration":195869,"SoundDuration":195869,"Delta":261291768},{"NoteNumber":70,"Velocity":88,"Duration":2361584,"SoundDuration":2361584,"Delta":261487637},{"NoteNumber":74,"Velocity":88,"Duration":2361584,"SoundDuration":2361584,"Delta":261487637},{"NoteNumber":77,"Velocity":89,"Duration":2361584,"SoundDuration":2361584,"Delta":261487637},{"NoteNumber":82,"Velocity":99,"Duration":2361584,"SoundDuration":2361584,"Delta":261487637},{"NoteNumber":46,"Velocity":82,"Duration":787194,"SoundDuration":787194,"Delta":261487637},{"NoteNumber":58,"Velocity":84,"Duration":787194,"SoundDuration":787194,"Delta":262274832},{"NoteNumber":46,"Velocity":75,"Duration":787194,"SoundDuration":787194,"Delta":262274832},{"NoteNumber":41,"Velocity":70,"Duration":787194,"SoundDuration":787194,"Delta":263062027},{"NoteNumber":53,"Velocity":79,"Duration":787194,"SoundDuration":787194,"Delta":263062027},{"NoteNumber":38,"Velocity":69,"Duration":787194,"SoundDuration":787194,"Delta":263849222},{"NoteNumber":50,"Velocity":77,"Duration":787194,"SoundDuration":787194,"Delta":263849222},{"NoteNumber":65,"Velocity":41,"Duration":185368,"SoundDuration":185368,"Delta":264636417},{"NoteNumber":62,"Velocity":41,"Duration":185368,"SoundDuration":185368,"Delta":264636417},{"NoteNumber":34,"Velocity":37,"Duration":741472,"SoundDuration":741472,"Delta":264636417},{"NoteNumber":46,"Velocity":41,"Duration":741472,"SoundDuration":741472,"Delta":264636417},{"NoteNumber":58,"Velocity":28,"Duration":185368,"SoundDuration":185368,"Delta":264821786},{"NoteNumber":62,"Velocity":34,"Duration":185368,"SoundDuration":185368,"Delta":265007154},{"NoteNumber":65,"Velocity":34,"Duration":185368,"SoundDuration":185368,"Delta":265007154},{"NoteNumber":58,"Velocity":27,"Duration":185368,"SoundDuration":185368,"Delta":265192522},{"NoteNumber":65,"Velocity":34,"Duration":178465,"SoundDuration":178465,"Delta":265377890},{"NoteNumber":62,"Velocity":34,"Duration":178465,"SoundDuration":178465,"Delta":265377890},{"NoteNumber":58,"Velocity":28,"Duration":178465,"SoundDuration":178465,"Delta":265556356},{"NoteNumber":63,"Velocity":37,"Duration":181862,"SoundDuration":181862,"Delta":265734821},{"NoteNumber":67,"Velocity":37,"Duration":181862,"SoundDuration":181862,"Delta":265734821},{"NoteNumber":70,"Velocity":49,"Duration":363724,"SoundDuration":363724,"Delta":265734821},{"NoteNumber":58,"Velocity":31,"Duration":181862,"SoundDuration":181862,"Delta":265916683},{"NoteNumber":62,"Velocity":41,"Duration":181862,"SoundDuration":181862,"Delta":266098545},{"NoteNumber":65,"Velocity":41,"Duration":181862,"SoundDuration":181862,"Delta":266098545},{"NoteNumber":70,"Velocity":53,"Duration":727449,"SoundDuration":727449,"Delta":266098545},{"NoteNumber":58,"Velocity":33,"Duration":181862,"SoundDuration":181862,"Delta":266280408},{"NoteNumber":65,"Velocity":36,"Duration":181862,"SoundDuration":181862,"Delta":266462270},{"NoteNumber":62,"Velocity":36,"Duration":181862,"SoundDuration":181862,"Delta":266462270},{"NoteNumber":58,"Velocity":30,"Duration":181862,"SoundDuration":181862,"Delta":266644132},{"NoteNumber":67,"Velocity":41,"Duration":177367,"SoundDuration":177367,"Delta":266825994},{"NoteNumber":63,"Velocity":41,"Duration":177367,"SoundDuration":177367,"Delta":266825994},{"NoteNumber":70,"Velocity":52,"Duration":709471,"SoundDuration":709471,"Delta":266825994},{"NoteNumber":58,"Velocity":33,"Duration":177367,"SoundDuration":177367,"Delta":267003362},{"NoteNumber":63,"Velocity":36,"Duration":177367,"SoundDuration":177367,"Delta":267180730},{"NoteNumber":67,"Velocity":36,"Duration":177367,"SoundDuration":177367,"Delta":267180730},{"NoteNumber":58,"Velocity":33,"Duration":177367,"SoundDuration":177367,"Delta":267358098},{"NoteNumber":65,"Velocity":41,"Duration":180723,"SoundDuration":180723,"Delta":267535465},{"NoteNumber":68,"Velocity":41,"Duration":180723,"SoundDuration":180723,"Delta":267535465},{"NoteNumber":34,"Velocity":48,"Duration":722892,"SoundDuration":722892,"Delta":267535465},{"NoteNumber":46,"Velocity":48,"Duration":722892,"SoundDuration":722892,"Delta":267535465},{"NoteNumber":58,"Velocity":27,"Duration":180723,"SoundDuration":180723,"Delta":267716188},{"NoteNumber":65,"Velocity":31,"Duration":180723,"SoundDuration":180723,"Delta":267896911},{"NoteNumber":68,"Velocity":31,"Duration":180723,"SoundDuration":180723,"Delta":267896911},{"NoteNumber":58,"Velocity":27,"Duration":180723,"SoundDuration":180723,"Delta":268077634},{"NoteNumber":65,"Velocity":31,"Duration":174155,"SoundDuration":174155,"Delta":268258357},{"NoteNumber":68,"Velocity":31,"Duration":174155,"SoundDuration":174155,"Delta":268258357},{"NoteNumber":58,"Velocity":27,"Duration":174155,"SoundDuration":174155,"Delta":268432513},{"NoteNumber":70,"Velocity":35,"Duration":179597,"SoundDuration":179597,"Delta":268606668},{"NoteNumber":67,"Velocity":35,"Duration":179597,"SoundDuration":179597,"Delta":268606668},{"NoteNumber":82,"Velocity":56,"Duration":359195,"SoundDuration":359195,"Delta":268606668},{"NoteNumber":58,"Velocity":30,"Duration":179597,"SoundDuration":179597,"Delta":268786266},{"NoteNumber":65,"Velocity":41,"Duration":174155,"SoundDuration":174155,"Delta":268965863},{"NoteNumber":68,"Velocity":41,"Duration":174155,"SoundDuration":174155,"Delta":268965863},{"NoteNumber":82,"Velocity":55,"Duration":1393241,"SoundDuration":1393241,"Delta":268965863},{"NoteNumber":58,"Velocity":33,"Duration":174155,"SoundDuration":174155,"Delta":269140019},{"NoteNumber":65,"Velocity":36,"Duration":174155,"SoundDuration":174155,"Delta":269314174},{"NoteNumber":68,"Velocity":36,"Duration":174155,"SoundDuration":174155,"Delta":269314174},{"NoteNumber":58,"Velocity":34,"Duration":174155,"SoundDuration":174155,"Delta":269488329},{"NoteNumber":65,"Velocity":36,"Duration":174155,"SoundDuration":174155,"Delta":269662484},{"NoteNumber":68,"Velocity":36,"Duration":174155,"SoundDuration":174155,"Delta":269662484},{"NoteNumber":58,"Velocity":31,"Duration":174155,"SoundDuration":174155,"Delta":269836640},{"NoteNumber":68,"Velocity":36,"Duration":174155,"SoundDuration":174155,"Delta":270010795},{"NoteNumber":65,"Velocity":36,"Duration":174155,"SoundDuration":174155,"Delta":270010795},{"NoteNumber":58,"Velocity":31,"Duration":174155,"SoundDuration":174155,"Delta":270184950},{"NoteNumber":63,"Velocity":48,"Duration":178465,"SoundDuration":178465,"Delta":270359105},{"NoteNumber":67,"Velocity":48,"Duration":178465,"SoundDuration":178465,"Delta":270359105},{"NoteNumber":51,"Velocity":49,"Duration":713861,"SoundDuration":713861,"Delta":270359105},{"NoteNumber":39,"Velocity":49,"Duration":713861,"SoundDuration":713861,"Delta":270375465},{"NoteNumber":58,"Velocity":27,"Duration":178465,"SoundDuration":178465,"Delta":270537571},{"NoteNumber":63,"Velocity":33,"Duration":178465,"SoundDuration":178465,"Delta":270716036},{"NoteNumber":67,"Velocity":33,"Duration":178465,"SoundDuration":178465,"Delta":270716036},{"NoteNumber":58,"Velocity":26,"Duration":178465,"SoundDuration":178465,"Delta":270894501},{"NoteNumber":63,"Velocity":34,"Duration":175591,"SoundDuration":175591,"Delta":271072966},{"NoteNumber":67,"Velocity":34,"Duration":175591,"SoundDuration":175591,"Delta":271072966},{"NoteNumber":58,"Velocity":29,"Duration":174155,"SoundDuration":174155,"Delta":271248558},{"NoteNumber":68,"Velocity":40,"Duration":178465,"SoundDuration":178465,"Delta":271422713},{"NoteNumber":65,"Velocity":40,"Duration":178465,"SoundDuration":178465,"Delta":271422713},{"NoteNumber":75,"Velocity":57,"Duration":356930,"SoundDuration":356930,"Delta":271422713},{"NoteNumber":58,"Velocity":35,"Duration":178465,"SoundDuration":178465,"Delta":271601179},{"NoteNumber":67,"Velocity":52,"Duration":175213,"SoundDuration":175213,"Delta":271779644},{"NoteNumber":75,"Velocity":58,"Duration":700852,"SoundDuration":700852,"Delta":271779644},{"NoteNumber":63,"Velocity":52,"Duration":175213,"SoundDuration":175213,"Delta":271785484},{"NoteNumber":58,"Velocity":38,"Duration":175213,"SoundDuration":175213,"Delta":271954857},{"NoteNumber":63,"Velocity":38,"Duration":175213,"SoundDuration":175213,"Delta":272130070},{"NoteNumber":67,"Velocity":38,"Duration":175213,"SoundDuration":175213,"Delta":272130070},{"NoteNumber":58,"Velocity":36,"Duration":175213,"SoundDuration":175213,"Delta":272305284},{"NoteNumber":65,"Velocity":52,"Duration":176284,"SoundDuration":176284,"Delta":272480497},{"NoteNumber":68,"Velocity":52,"Duration":176284,"SoundDuration":176284,"Delta":272480497},{"NoteNumber":75,"Velocity":56,"Duration":705135,"SoundDuration":705135,"Delta":272480497},{"NoteNumber":58,"Velocity":38,"Duration":176284,"SoundDuration":176284,"Delta":272656781},{"NoteNumber":68,"Velocity":42,"Duration":176283,"SoundDuration":176283,"Delta":272833065},{"NoteNumber":65,"Velocity":42,"Duration":176283,"SoundDuration":176283,"Delta":272833065},{"NoteNumber":58,"Velocity":38,"Duration":176284,"SoundDuration":176284,"Delta":273009349},{"NoteNumber":67,"Velocity":57,"Duration":180723,"SoundDuration":180723,"Delta":273185633},{"NoteNumber":70,"Velocity":57,"Duration":180723,"SoundDuration":180723,"Delta":273185633},{"NoteNumber":51,"Velocity":59,"Duration":722892,"SoundDuration":722892,"Delta":273185633},{"NoteNumber":39,"Velocity":59,"Duration":722892,"SoundDuration":722892,"Delta":273185633},{"NoteNumber":63,"Velocity":41,"Duration":180723,"SoundDuration":180723,"Delta":273366356},{"NoteNumber":70,"Velocity":47,"Duration":180723,"SoundDuration":180723,"Delta":273547079},{"NoteNumber":67,"Velocity":47,"Duration":180723,"SoundDuration":180723,"Delta":273547079},{"NoteNumber":63,"Velocity":41,"Duration":180723,"SoundDuration":180723,"Delta":273727802},{"NoteNumber":67,"Velocity":37,"Duration":174155,"SoundDuration":174155,"Delta":273908525},{"NoteNumber":70,"Velocity":37,"Duration":174155,"SoundDuration":174155,"Delta":273908525},{"NoteNumber":63,"Velocity":37,"Duration":174155,"SoundDuration":174155,"Delta":274082680},{"NoteNumber":68,"Velocity":45,"Duration":177367,"SoundDuration":177367,"Delta":274256835},{"NoteNumber":72,"Velocity":45,"Duration":177367,"SoundDuration":177367,"Delta":274256835},{"NoteNumber":87,"Velocity":72,"Duration":354735,"SoundDuration":354735,"Delta":274256835},{"NoteNumber":63,"Velocity":41,"Duration":177367,"SoundDuration":177367,"Delta":274434203},{"NoteNumber":70,"Velocity":57,"Duration":178465,"SoundDuration":178465,"Delta":274611571},{"NoteNumber":67,"Velocity":57,"Duration":178465,"SoundDuration":178465,"Delta":274611571},{"NoteNumber":87,"Velocity":75,"Duration":1427722,"SoundDuration":1427722,"Delta":274611571},{"NoteNumber":63,"Velocity":35,"Duration":178465,"SoundDuration":178465,"Delta":274790036},{"NoteNumber":67,"Velocity":41,"Duration":178465,"SoundDuration":178465,"Delta":274968501},{"NoteNumber":70,"Velocity":41,"Duration":178465,"SoundDuration":178465,"Delta":274968501},{"NoteNumber":63,"Velocity":37,"Duration":178465,"SoundDuration":178465,"Delta":275146967},{"NoteNumber":67,"Velocity":41,"Duration":178465,"SoundDuration":178465,"Delta":275325432},{"NoteNumber":70,"Velocity":41,"Duration":178465,"SoundDuration":178465,"Delta":275325432},{"NoteNumber":63,"Velocity":38,"Duration":178465,"SoundDuration":178465,"Delta":275503897},{"NoteNumber":70,"Velocity":46,"Duration":178465,"SoundDuration":178465,"Delta":275682362},{"NoteNumber":67,"Velocity":46,"Duration":178465,"SoundDuration":178465,"Delta":275682362},{"NoteNumber":63,"Velocity":41,"Duration":178465,"SoundDuration":178465,"Delta":275860828},{"NoteNumber":63,"Velocity":87,"Duration":738725,"SoundDuration":738725,"Delta":276039293},{"NoteNumber":75,"Velocity":97,"Duration":738725,"SoundDuration":738725,"Delta":276039293},{"NoteNumber":70,"Velocity":87,"Duration":738725,"SoundDuration":738725,"Delta":276039293},{"NoteNumber":67,"Velocity":87,"Duration":738725,"SoundDuration":738725,"Delta":276039293},{"NoteNumber":51,"Velocity":71,"Duration":738725,"SoundDuration":738725,"Delta":276039293},{"NoteNumber":39,"Velocity":63,"Duration":738725,"SoundDuration":738725,"Delta":276039293},{"NoteNumber":63,"Velocity":86,"Duration":619585,"SoundDuration":619585,"Delta":276778018},{"NoteNumber":70,"Velocity":85,"Duration":619585,"SoundDuration":619585,"Delta":276778018},{"NoteNumber":74,"Velocity":95,"Duration":619585,"SoundDuration":619585,"Delta":276778018},{"NoteNumber":55,"Velocity":71,"Duration":619585,"SoundDuration":619585,"Delta":276778018},{"NoteNumber":43,"Velocity":71,"Duration":619585,"SoundDuration":619585,"Delta":276778018},{"NoteNumber":60,"Velocity":77,"Duration":866200,"SoundDuration":866200,"Delta":277397604},{"NoteNumber":63,"Velocity":84,"Duration":808090,"SoundDuration":808090,"Delta":277455714},{"NoteNumber":44,"Velocity":58,"Duration":808090,"SoundDuration":808090,"Delta":277455714},{"NoteNumber":68,"Velocity":78,"Duration":745350,"SoundDuration":745350,"Delta":277518454},{"NoteNumber":51,"Velocity":61,"Duration":745350,"SoundDuration":745350,"Delta":277518454},{"NoteNumber":72,"Velocity":92,"Duration":677966,"SoundDuration":677966,"Delta":277585839},{"NoteNumber":56,"Velocity":70,"Duration":677966,"SoundDuration":677966,"Delta":277585839},{"NoteNumber":58,"Velocity":82,"Duration":736739,"SoundDuration":736739,"Delta":278263805},{"NoteNumber":70,"Velocity":94,"Duration":736739,"SoundDuration":736739,"Delta":278263805},{"NoteNumber":67,"Velocity":84,"Duration":736739,"SoundDuration":736739,"Delta":278263805},{"NoteNumber":63,"Velocity":82,"Duration":736739,"SoundDuration":736739,"Delta":278263805},{"NoteNumber":51,"Velocity":65,"Duration":736739,"SoundDuration":736739,"Delta":278263805},{"NoteNumber":39,"Velocity":58,"Duration":736739,"SoundDuration":736739,"Delta":278263805},{"NoteNumber":75,"Velocity":97,"Duration":750000,"SoundDuration":750000,"Delta":279000544},{"NoteNumber":87,"Velocity":110,"Duration":750000,"SoundDuration":750000,"Delta":279000544},{"NoteNumber":84,"Velocity":97,"Duration":750000,"SoundDuration":750000,"Delta":279000544},{"NoteNumber":80,"Velocity":97,"Duration":750000,"SoundDuration":750000,"Delta":279000544},{"NoteNumber":32,"Velocity":74,"Duration":750000,"SoundDuration":750000,"Delta":279000544},{"NoteNumber":44,"Velocity":81,"Duration":750000,"SoundDuration":750000,"Delta":279000544},{"NoteNumber":80,"Velocity":88,"Duration":658647,"SoundDuration":658647,"Delta":279750544},{"NoteNumber":84,"Velocity":98,"Duration":658647,"SoundDuration":658647,"Delta":279750544},{"NoteNumber":75,"Velocity":98,"Duration":658647,"SoundDuration":658647,"Delta":279750544},{"NoteNumber":72,"Velocity":98,"Duration":658647,"SoundDuration":658647,"Delta":279750544},{"NoteNumber":44,"Velocity":74,"Duration":658647,"SoundDuration":658647,"Delta":279750544},{"NoteNumber":56,"Velocity":74,"Duration":658647,"SoundDuration":658647,"Delta":279750544},{"NoteNumber":70,"Velocity":90,"Duration":851161,"SoundDuration":851161,"Delta":280409191},{"NoteNumber":48,"Velocity":58,"Duration":851161,"SoundDuration":851161,"Delta":280409191},{"NoteNumber":76,"Velocity":95,"Duration":795710,"SoundDuration":795710,"Delta":280464642},{"NoteNumber":52,"Velocity":59,"Duration":795710,"SoundDuration":795710,"Delta":280464642},{"NoteNumber":79,"Velocity":89,"Duration":738041,"SoundDuration":738041,"Delta":280522311},{"NoteNumber":55,"Velocity":60,"Duration":738041,"SoundDuration":738041,"Delta":280522311},{"NoteNumber":82,"Velocity":105,"Duration":677966,"SoundDuration":677966,"Delta":280582387},{"NoteNumber":60,"Velocity":70,"Duration":677966,"SoundDuration":677966,"Delta":280582387},{"NoteNumber":68,"Velocity":86,"Duration":761228,"SoundDuration":761228,"Delta":281260353},{"NoteNumber":72,"Velocity":86,"Duration":761228,"SoundDuration":761228,"Delta":281260353},{"NoteNumber":77,"Velocity":85,"Duration":761228,"SoundDuration":761228,"Delta":281260353},{"NoteNumber":80,"Velocity":95,"Duration":761228,"SoundDuration":761228,"Delta":281260353},{"NoteNumber":41,"Velocity":63,"Duration":761228,"SoundDuration":761228,"Delta":281260353},{"NoteNumber":53,"Velocity":72,"Duration":761228,"SoundDuration":761228,"Delta":281260353},{"NoteNumber":70,"Velocity":90,"Duration":1521051,"SoundDuration":1521051,"Delta":282021581},{"NoteNumber":79,"Velocity":101,"Duration":1521051,"SoundDuration":1521051,"Delta":282021581},{"NoteNumber":75,"Velocity":92,"Duration":1521051,"SoundDuration":1521051,"Delta":282021581},{"NoteNumber":67,"Velocity":90,"Duration":1521051,"SoundDuration":1521051,"Delta":282021581},{"NoteNumber":58,"Velocity":73,"Duration":821017,"SoundDuration":821017,"Delta":282021581},{"NoteNumber":46,"Velocity":65,"Duration":821017,"SoundDuration":821017,"Delta":282021581},{"NoteNumber":46,"Velocity":74,"Duration":700033,"SoundDuration":700033,"Delta":282842599},{"NoteNumber":34,"Velocity":74,"Duration":700033,"SoundDuration":700033,"Delta":282842599},{"NoteNumber":65,"Velocity":74,"Duration":1683927,"SoundDuration":1683927,"Delta":283542632},{"NoteNumber":53,"Velocity":57,"Duration":924853,"SoundDuration":924853,"Delta":283542632},{"NoteNumber":68,"Velocity":80,"Duration":1624003,"SoundDuration":1624003,"Delta":283602557},{"NoteNumber":56,"Velocity":61,"Duration":864928,"SoundDuration":864928,"Delta":283602557},{"NoteNumber":74,"Velocity":75,"Duration":1560641,"SoundDuration":1560641,"Delta":283665918},{"NoteNumber":58,"Velocity":64,"Duration":801566,"SoundDuration":801566,"Delta":283665918},{"NoteNumber":77,"Velocity":96,"Duration":1500547,"SoundDuration":1500547,"Delta":283726012},{"NoteNumber":62,"Velocity":70,"Duration":741472,"SoundDuration":741472,"Delta":283726012},{"NoteNumber":34,"Velocity":73,"Duration":759074,"SoundDuration":759074,"Delta":284467485},{"NoteNumber":46,"Velocity":73,"Duration":759074,"SoundDuration":759074,"Delta":284467485},{"NoteNumber":63,"Velocity":79,"Duration":761198,"SoundDuration":761198,"Delta":285226560},{"NoteNumber":67,"Velocity":79,"Duration":761198,"SoundDuration":761198,"Delta":285226560},{"NoteNumber":70,"Velocity":72,"Duration":761198,"SoundDuration":761198,"Delta":285226560},{"NoteNumber":75,"Velocity":79,"Duration":761198,"SoundDuration":761198,"Delta":285226560},{"NoteNumber":39,"Velocity":66,"Duration":126232,"SoundDuration":126232,"Delta":285226560},{"NoteNumber":51,"Velocity":55,"Duration":128343,"SoundDuration":128343,"Delta":285352792},{"NoteNumber":39,"Velocity":61,"Duration":125257,"SoundDuration":125257,"Delta":285481135},{"NoteNumber":51,"Velocity":54,"Duration":128621,"SoundDuration":128621,"Delta":285606393},{"NoteNumber":39,"Velocity":61,"Duration":125536,"SoundDuration":125536,"Delta":285735014},{"NoteNumber":51,"Velocity":54,"Duration":127207,"SoundDuration":127207,"Delta":285860551},{"NoteNumber":63,"Velocity":82,"Duration":245649,"SoundDuration":245649,"Delta":285987758},{"NoteNumber":39,"Velocity":66,"Duration":121380,"SoundDuration":121380,"Delta":285987758},{"NoteNumber":51,"Velocity":55,"Duration":124268,"SoundDuration":124268,"Delta":286109139},{"NoteNumber":67,"Velocity":82,"Duration":246472,"SoundDuration":246472,"Delta":286233408},{"NoteNumber":39,"Velocity":61,"Duration":120705,"SoundDuration":120705,"Delta":286233408},{"NoteNumber":51,"Velocity":54,"Duration":125767,"SoundDuration":125767,"Delta":286354113},{"NoteNumber":70,"Velocity":82,"Duration":245303,"SoundDuration":245303,"Delta":286479880},{"NoteNumber":39,"Velocity":61,"Duration":123042,"SoundDuration":123042,"Delta":286479880},{"NoteNumber":51,"Velocity":54,"Duration":122261,"SoundDuration":122261,"Delta":286602923},{"NoteNumber":63,"Velocity":75,"Duration":751467,"SoundDuration":751467,"Delta":286725184},{"NoteNumber":75,"Velocity":82,"Duration":751467,"SoundDuration":751467,"Delta":286725184},{"NoteNumber":71,"Velocity":75,"Duration":751467,"SoundDuration":751467,"Delta":286725184},{"NoteNumber":68,"Velocity":75,"Duration":751467,"SoundDuration":751467,"Delta":286725184},{"NoteNumber":39,"Velocity":71,"Duration":125985,"SoundDuration":125985,"Delta":286725184},{"NoteNumber":51,"Velocity":55,"Duration":125368,"SoundDuration":125368,"Delta":286851170},{"NoteNumber":39,"Velocity":61,"Duration":124905,"SoundDuration":124905,"Delta":286976538},{"NoteNumber":51,"Velocity":54,"Duration":125229,"SoundDuration":125229,"Delta":287101443},{"NoteNumber":39,"Velocity":61,"Duration":124191,"SoundDuration":124191,"Delta":287226673},{"NoteNumber":51,"Velocity":54,"Duration":125786,"SoundDuration":125786,"Delta":287350865},{"NoteNumber":68,"Velocity":75,"Duration":768949,"SoundDuration":768949,"Delta":287476651},{"NoteNumber":71,"Velocity":75,"Duration":768949,"SoundDuration":768949,"Delta":287476651},{"NoteNumber":75,"Velocity":75,"Duration":768949,"SoundDuration":768949,"Delta":287476651},{"NoteNumber":80,"Velocity":82,"Duration":768949,"SoundDuration":768949,"Delta":287476651},{"NoteNumber":39,"Velocity":74,"Duration":125998,"SoundDuration":125998,"Delta":287476651},{"NoteNumber":51,"Velocity":55,"Duration":131111,"SoundDuration":131111,"Delta":287602650},{"NoteNumber":39,"Velocity":64,"Duration":127798,"SoundDuration":127798,"Delta":287733761},{"NoteNumber":51,"Velocity":54,"Duration":127811,"SoundDuration":127811,"Delta":287861559},{"NoteNumber":39,"Velocity":65,"Duration":130351,"SoundDuration":130351,"Delta":287989371},{"NoteNumber":51,"Velocity":54,"Duration":125879,"SoundDuration":125879,"Delta":288119722},{"NoteNumber":70,"Velocity":75,"Duration":769072,"SoundDuration":769072,"Delta":288245601},{"NoteNumber":79,"Velocity":82,"Duration":769072,"SoundDuration":769072,"Delta":288245601},{"NoteNumber":75,"Velocity":75,"Duration":769072,"SoundDuration":769072,"Delta":288245601},{"NoteNumber":67,"Velocity":75,"Duration":769072,"SoundDuration":769072,"Delta":288245601},{"NoteNumber":39,"Velocity":74,"Duration":129117,"SoundDuration":129117,"Delta":288245601},{"NoteNumber":51,"Velocity":55,"Duration":128057,"SoundDuration":128057,"Delta":288374719},{"NoteNumber":39,"Velocity":64,"Duration":127819,"SoundDuration":127819,"Delta":288502777},{"NoteNumber":51,"Velocity":54,"Duration":129633,"SoundDuration":129633,"Delta":288630597},{"NoteNumber":39,"Velocity":64,"Duration":126015,"SoundDuration":126015,"Delta":288760231},{"NoteNumber":51,"Velocity":54,"Duration":128427,"SoundDuration":128427,"Delta":288886246},{"NoteNumber":75,"Velocity":84,"Duration":246676,"SoundDuration":246676,"Delta":289014674},{"NoteNumber":39,"Velocity":66,"Duration":121408,"SoundDuration":121408,"Delta":289014674},{"NoteNumber":51,"Velocity":55,"Duration":125267,"SoundDuration":125267,"Delta":289136083},{"NoteNumber":79,"Velocity":84,"Duration":244695,"SoundDuration":244695,"Delta":289261350},{"NoteNumber":39,"Velocity":63,"Duration":120994,"SoundDuration":120994,"Delta":289261350},{"NoteNumber":51,"Velocity":54,"Duration":123701,"SoundDuration":123701,"Delta":289382345},{"NoteNumber":82,"Velocity":85,"Duration":246253,"SoundDuration":246253,"Delta":289506046},{"NoteNumber":39,"Velocity":63,"Duration":123256,"SoundDuration":123256,"Delta":289506046},{"NoteNumber":51,"Velocity":54,"Duration":122996,"SoundDuration":122996,"Delta":289629303},{"NoteNumber":83,"Velocity":80,"Duration":753388,"SoundDuration":753388,"Delta":289752300},{"NoteNumber":75,"Velocity":80,"Duration":753388,"SoundDuration":753388,"Delta":289752300},{"NoteNumber":80,"Velocity":80,"Duration":753388,"SoundDuration":753388,"Delta":289752300},{"NoteNumber":87,"Velocity":91,"Duration":753388,"SoundDuration":753388,"Delta":289752300},{"NoteNumber":39,"Velocity":73,"Duration":126192,"SoundDuration":126192,"Delta":289752300},{"NoteNumber":51,"Velocity":55,"Duration":125628,"SoundDuration":125628,"Delta":289878493},{"NoteNumber":39,"Velocity":65,"Duration":125740,"SoundDuration":125740,"Delta":290004121},{"NoteNumber":51,"Velocity":54,"Duration":125999,"SoundDuration":125999,"Delta":290129862},{"NoteNumber":39,"Velocity":64,"Duration":123277,"SoundDuration":123277,"Delta":290255861},{"NoteNumber":51,"Velocity":54,"Duration":126550,"SoundDuration":126550,"Delta":290379138},{"NoteNumber":83,"Velocity":86,"Duration":805349,"SoundDuration":805349,"Delta":290505689},{"NoteNumber":80,"Velocity":86,"Duration":805349,"SoundDuration":805349,"Delta":290505689},{"NoteNumber":87,"Velocity":86,"Duration":805349,"SoundDuration":805349,"Delta":290505689},{"NoteNumber":92,"Velocity":97,"Duration":805349,"SoundDuration":805349,"Delta":290505689},{"NoteNumber":39,"Velocity":72,"Duration":133888,"SoundDuration":133888,"Delta":290505689},{"NoteNumber":51,"Velocity":55,"Duration":134899,"SoundDuration":134899,"Delta":290639577},{"NoteNumber":39,"Velocity":64,"Duration":133785,"SoundDuration":133785,"Delta":290774476},{"NoteNumber":51,"Velocity":54,"Duration":135690,"SoundDuration":135690,"Delta":290908261},{"NoteNumber":39,"Velocity":63,"Duration":131880,"SoundDuration":131880,"Delta":291043952},{"NoteNumber":51,"Velocity":54,"Duration":135206,"SoundDuration":135206,"Delta":291175832},{"NoteNumber":91,"Velocity":96,"Duration":779221,"SoundDuration":779221,"Delta":291311039},{"NoteNumber":79,"Velocity":86,"Duration":779221,"SoundDuration":779221,"Delta":291311039},{"NoteNumber":82,"Velocity":86,"Duration":779221,"SoundDuration":779221,"Delta":291311039},{"NoteNumber":87,"Velocity":86,"Duration":779221,"SoundDuration":779221,"Delta":291311039},{"NoteNumber":39,"Velocity":63,"Duration":1573922,"SoundDuration":1573922,"Delta":291311039},{"NoteNumber":27,"Velocity":63,"Duration":1576010,"SoundDuration":1576010,"Delta":291354870},{"NoteNumber":63,"Velocity":78,"Duration":596026,"SoundDuration":596026,"Delta":292090260},{"NoteNumber":75,"Velocity":78,"Duration":596026,"SoundDuration":596026,"Delta":292090260},{"NoteNumber":63,"Velocity":72,"Duration":198675,"SoundDuration":198675,"Delta":292686286},{"NoteNumber":75,"Velocity":72,"Duration":198675,"SoundDuration":198675,"Delta":292686286},{"NoteNumber":75,"Velocity":79,"Duration":1632654,"SoundDuration":1632654,"Delta":292884962},{"NoteNumber":63,"Velocity":79,"Duration":1632654,"SoundDuration":1632654,"Delta":292884962},{"NoteNumber":39,"Velocity":45,"Duration":612245,"SoundDuration":612245,"Delta":293701289},{"NoteNumber":27,"Velocity":39,"Duration":612245,"SoundDuration":612245,"Delta":293701289},{"NoteNumber":29,"Velocity":37,"Duration":204081,"SoundDuration":204081,"Delta":294313534},{"NoteNumber":41,"Velocity":41,"Duration":204081,"SoundDuration":204081,"Delta":294313534},{"NoteNumber":31,"Velocity":41,"Duration":816327,"SoundDuration":816327,"Delta":294517616},{"NoteNumber":43,"Velocity":47,"Duration":816327,"SoundDuration":816327,"Delta":294517616},{"NoteNumber":43,"Velocity":41,"Duration":816327,"SoundDuration":816327,"Delta":295333943},{"NoteNumber":31,"Velocity":37,"Duration":816327,"SoundDuration":816327,"Delta":295333943},{"NoteNumber":51,"Velocity":39,"Duration":816327,"SoundDuration":816327,"Delta":296150270},{"NoteNumber":55,"Velocity":39,"Duration":816327,"SoundDuration":816327,"Delta":296150270},{"NoteNumber":60,"Velocity":45,"Duration":816327,"SoundDuration":816327,"Delta":296150270},{"NoteNumber":31,"Velocity":39,"Duration":816327,"SoundDuration":816327,"Delta":296150270},{"NoteNumber":43,"Velocity":44,"Duration":816327,"SoundDuration":816327,"Delta":296150270},{"NoteNumber":57,"Velocity":41,"Duration":833332,"SoundDuration":833332,"Delta":296966597},{"NoteNumber":60,"Velocity":41,"Duration":833332,"SoundDuration":833332,"Delta":296966597},{"NoteNumber":51,"Velocity":37,"Duration":833332,"SoundDuration":833332,"Delta":296966597},{"NoteNumber":54,"Velocity":37,"Duration":833332,"SoundDuration":833332,"Delta":296966597},{"NoteNumber":43,"Velocity":41,"Duration":833332,"SoundDuration":833332,"Delta":296966597},{"NoteNumber":31,"Velocity":37,"Duration":833332,"SoundDuration":833332,"Delta":296966597},{"NoteNumber":50,"Velocity":40,"Duration":1224490,"SoundDuration":1224490,"Delta":297799930},{"NoteNumber":55,"Velocity":40,"Duration":1224490,"SoundDuration":1224490,"Delta":297799930},{"NoteNumber":59,"Velocity":46,"Duration":1224490,"SoundDuration":1224490,"Delta":297799930},{"NoteNumber":31,"Velocity":39,"Duration":2448981,"SoundDuration":2448981,"Delta":297799930},{"NoteNumber":43,"Velocity":44,"Duration":2448981,"SoundDuration":2448981,"Delta":297799930},{"NoteNumber":57,"Velocity":41,"Duration":408163,"SoundDuration":408163,"Delta":299024420},{"NoteNumber":48,"Velocity":37,"Duration":408163,"SoundDuration":408163,"Delta":299024420},{"NoteNumber":47,"Velocity":35,"Duration":816327,"SoundDuration":816327,"Delta":299432584},{"NoteNumber":55,"Velocity":39,"Duration":816327,"SoundDuration":816327,"Delta":299432584},{"NoteNumber":27,"Velocity":39,"Duration":612245,"SoundDuration":612245,"Delta":300248911},{"NoteNumber":39,"Velocity":45,"Duration":612245,"SoundDuration":612245,"Delta":300248911},{"NoteNumber":29,"Velocity":37,"Duration":204081,"SoundDuration":204081,"Delta":300861156},{"NoteNumber":41,"Velocity":41,"Duration":204081,"SoundDuration":204081,"Delta":300861156},{"NoteNumber":43,"Velocity":47,"Duration":816327,"SoundDuration":816327,"Delta":301065238},{"NoteNumber":31,"Velocity":41,"Duration":816327,"SoundDuration":816327,"Delta":301065238},{"NoteNumber":43,"Velocity":41,"Duration":816327,"SoundDuration":816327,"Delta":301881565},{"NoteNumber":31,"Velocity":37,"Duration":816327,"SoundDuration":816327,"Delta":301881565},{"NoteNumber":55,"Velocity":49,"Duration":863309,"SoundDuration":863309,"Delta":302697892},{"NoteNumber":60,"Velocity":49,"Duration":863309,"SoundDuration":863309,"Delta":302697892},{"NoteNumber":63,"Velocity":56,"Duration":863309,"SoundDuration":863309,"Delta":302697892},{"NoteNumber":51,"Velocity":49,"Duration":863309,"SoundDuration":863309,"Delta":302697892},{"NoteNumber":31,"Velocity":47,"Duration":863309,"SoundDuration":863309,"Delta":302697892},{"NoteNumber":43,"Velocity":52,"Duration":863309,"SoundDuration":863309,"Delta":302697892},{"NoteNumber":63,"Velocity":55,"Duration":923076,"SoundDuration":923076,"Delta":303561201},{"NoteNumber":54,"Velocity":49,"Duration":923076,"SoundDuration":923076,"Delta":303561201},{"NoteNumber":60,"Velocity":49,"Duration":923076,"SoundDuration":923076,"Delta":303561201},{"NoteNumber":57,"Velocity":49,"Duration":923076,"SoundDuration":923076,"Delta":303561201},{"NoteNumber":31,"Velocity":46,"Duration":923076,"SoundDuration":923076,"Delta":303561201},{"NoteNumber":43,"Velocity":51,"Duration":923076,"SoundDuration":923076,"Delta":303561201},{"NoteNumber":55,"Velocity":51,"Duration":3333331,"SoundDuration":3333331,"Delta":304484278},{"NoteNumber":59,"Velocity":51,"Duration":3333331,"SoundDuration":3333331,"Delta":304484278},{"NoteNumber":62,"Velocity":58,"Duration":3333331,"SoundDuration":3333331,"Delta":304484278},{"NoteNumber":31,"Velocity":45,"Duration":277777,"SoundDuration":277777,"Delta":304484278},{"NoteNumber":38,"Velocity":38,"Duration":277777,"SoundDuration":277777,"Delta":304762055},{"NoteNumber":43,"Velocity":38,"Duration":277777,"SoundDuration":277777,"Delta":305039833},{"NoteNumber":47,"Velocity":45,"Duration":277777,"SoundDuration":277777,"Delta":305317611},{"NoteNumber":50,"Velocity":38,"Duration":277777,"SoundDuration":277777,"Delta":305595388},{"NoteNumber":55,"Velocity":38,"Duration":277777,"SoundDuration":277777,"Delta":305873166},{"NoteNumber":43,"Velocity":47,"Duration":277777,"SoundDuration":277777,"Delta":306150944},{"NoteNumber":50,"Velocity":38,"Duration":277777,"SoundDuration":277777,"Delta":306428721},{"NoteNumber":55,"Velocity":40,"Duration":277777,"SoundDuration":277777,"Delta":306706499},{"NoteNumber":59,"Velocity":44,"Duration":277777,"SoundDuration":277777,"Delta":306984277},{"NoteNumber":62,"Velocity":36,"Duration":277777,"SoundDuration":277777,"Delta":307262054},{"NoteNumber":67,"Velocity":36,"Duration":277777,"SoundDuration":277777,"Delta":307539832},{"NoteNumber":55,"Velocity":41,"Duration":291970,"SoundDuration":291970,"Delta":307817610},{"NoteNumber":62,"Velocity":34,"Duration":291970,"SoundDuration":291970,"Delta":308109580},{"NoteNumber":67,"Velocity":34,"Duration":291970,"SoundDuration":291970,"Delta":308401551},{"NoteNumber":71,"Velocity":40,"Duration":291970,"SoundDuration":291970,"Delta":308693522},{"NoteNumber":74,"Velocity":35,"Duration":291970,"SoundDuration":291970,"Delta":308985492},{"NoteNumber":79,"Velocity":34,"Duration":291970,"SoundDuration":291970,"Delta":309277463},{"NoteNumber":67,"Velocity":37,"Duration":291449,"SoundDuration":291449,"Delta":309569434},{"NoteNumber":74,"Velocity":30,"Duration":296857,"SoundDuration":296857,"Delta":309860883},{"NoteNumber":79,"Velocity":35,"Duration":303039,"SoundDuration":303039,"Delta":310157740},{"NoteNumber":83,"Velocity":39,"Duration":309490,"SoundDuration":309490,"Delta":310460779},{"NoteNumber":86,"Velocity":31,"Duration":316230,"SoundDuration":316230,"Delta":310770270},{"NoteNumber":91,"Velocity":31,"Duration":408163,"SoundDuration":408163,"Delta":311086500},{"NoteNumber":103,"Velocity":38,"Duration":2448981,"SoundDuration":2448981,"Delta":311494664},{"NoteNumber":67,"Velocity":47,"Duration":1245840,"SoundDuration":1245840,"Delta":314606910},{"NoteNumber":72,"Velocity":47,"Duration":1171362,"SoundDuration":1171362,"Delta":314681388},{"NoteNumber":76,"Velocity":47,"Duration":1085155,"SoundDuration":1085155,"Delta":314767595},{"NoteNumber":79,"Velocity":47,"Duration":998948,"SoundDuration":998948,"Delta":314853802},{"NoteNumber":48,"Velocity":28,"Duration":315457,"SoundDuration":315457,"Delta":314853802},{"NoteNumber":36,"Velocity":28,"Duration":315457,"SoundDuration":315457,"Delta":314853802},{"NoteNumber":52,"Velocity":31,"Duration":315457,"SoundDuration":315457,"Delta":315169260},{"NoteNumber":55,"Velocity":36,"Duration":315457,"SoundDuration":315457,"Delta":315484717},{"NoteNumber":81,"Velocity":39,"Duration":368033,"SoundDuration":368033,"Delta":315800175},{"NoteNumber":69,"Velocity":39,"Duration":368033,"SoundDuration":368033,"Delta":315800175},{"NoteNumber":77,"Velocity":39,"Duration":368033,"SoundDuration":368033,"Delta":315800175},{"NoteNumber":60,"Velocity":39,"Duration":315457,"SoundDuration":315457,"Delta":315800175},{"NoteNumber":67,"Velocity":41,"Duration":630915,"SoundDuration":630915,"Delta":316115632},{"NoteNumber":76,"Velocity":41,"Duration":630915,"SoundDuration":630915,"Delta":316115632},{"NoteNumber":79,"Velocity":41,"Duration":683491,"SoundDuration":683491,"Delta":316115632},{"NoteNumber":55,"Velocity":37,"Duration":315457,"SoundDuration":315457,"Delta":316115632},{"NoteNumber":52,"Velocity":30,"Duration":315457,"SoundDuration":315457,"Delta":316431090},{"NoteNumber":72,"Velocity":42,"Duration":1618648,"SoundDuration":1618648,"Delta":316746547},{"NoteNumber":64,"Velocity":42,"Duration":1618648,"SoundDuration":1618648,"Delta":316746547},{"NoteNumber":76,"Velocity":42,"Duration":1618648,"SoundDuration":1618648,"Delta":316746547},{"NoteNumber":48,"Velocity":30,"Duration":315457,"SoundDuration":315457,"Delta":316746547},{"NoteNumber":52,"Velocity":33,"Duration":315457,"SoundDuration":315457,"Delta":317062005},{"NoteNumber":55,"Velocity":36,"Duration":315457,"SoundDuration":315457,"Delta":317377462},{"NoteNumber":60,"Velocity":31,"Duration":315457,"SoundDuration":315457,"Delta":317692920},{"NoteNumber":55,"Velocity":31,"Duration":328377,"SoundDuration":328377,"Delta":318008377},{"NoteNumber":52,"Velocity":29,"Duration":85966,"SoundDuration":85966,"Delta":318336754},{"NoteNumber":67,"Velocity":47,"Duration":1252496,"SoundDuration":1252496,"Delta":318422720},{"NoteNumber":72,"Velocity":47,"Duration":1165246,"SoundDuration":1165246,"Delta":318509970},{"NoteNumber":79,"Velocity":47,"Duration":1077996,"SoundDuration":1077996,"Delta":318597220},{"NoteNumber":76,"Velocity":47,"Duration":990747,"SoundDuration":990747,"Delta":318684470},{"NoteNumber":36,"Velocity":30,"Duration":313414,"SoundDuration":313414,"Delta":318684470},{"NoteNumber":48,"Velocity":30,"Duration":313414,"SoundDuration":313414,"Delta":318684470},{"NoteNumber":52,"Velocity":33,"Duration":313413,"SoundDuration":313413,"Delta":318997884},{"NoteNumber":55,"Velocity":35,"Duration":313414,"SoundDuration":313414,"Delta":319311298},{"NoteNumber":69,"Velocity":39,"Duration":353535,"SoundDuration":353535,"Delta":319624712},{"NoteNumber":77,"Velocity":39,"Duration":353535,"SoundDuration":353535,"Delta":319624712},{"NoteNumber":81,"Velocity":39,"Duration":353535,"SoundDuration":353535,"Delta":319624712},{"NoteNumber":60,"Velocity":36,"Duration":303030,"SoundDuration":303030,"Delta":319624712},{"NoteNumber":76,"Velocity":41,"Duration":629282,"SoundDuration":629282,"Delta":319927742},{"NoteNumber":67,"Velocity":41,"Duration":629282,"SoundDuration":629282,"Delta":319927742},{"NoteNumber":79,"Velocity":41,"Duration":682383,"SoundDuration":682383,"Delta":319927742},{"NoteNumber":55,"Velocity":35,"Duration":303030,"SoundDuration":303030,"Delta":319927742},{"NoteNumber":52,"Velocity":33,"Duration":326252,"SoundDuration":326252,"Delta":320230773},{"NoteNumber":64,"Velocity":41,"Duration":1636700,"SoundDuration":1636700,"Delta":320557025},{"NoteNumber":72,"Velocity":41,"Duration":1636700,"SoundDuration":1636700,"Delta":320557025},{"NoteNumber":76,"Velocity":41,"Duration":1636700,"SoundDuration":1636700,"Delta":320557025},{"NoteNumber":48,"Velocity":33,"Duration":318606,"SoundDuration":318606,"Delta":320557025},{"NoteNumber":52,"Velocity":35,"Duration":318606,"SoundDuration":318606,"Delta":320875632},{"NoteNumber":55,"Velocity":37,"Duration":315457,"SoundDuration":315457,"Delta":321194238},{"NoteNumber":60,"Velocity":36,"Duration":315457,"SoundDuration":315457,"Delta":321509696},{"NoteNumber":55,"Velocity":34,"Duration":338451,"SoundDuration":338451,"Delta":321825153},{"NoteNumber":52,"Velocity":33,"Duration":88368,"SoundDuration":88368,"Delta":322163605},{"NoteNumber":74,"Velocity":62,"Duration":1506806,"SoundDuration":1506806,"Delta":322251974},{"NoteNumber":77,"Velocity":62,"Duration":1422422,"SoundDuration":1422422,"Delta":322336357},{"NoteNumber":79,"Velocity":62,"Duration":1338039,"SoundDuration":1338039,"Delta":322420741},{"NoteNumber":86,"Velocity":62,"Duration":1253655,"SoundDuration":1253655,"Delta":322505124},{"NoteNumber":31,"Velocity":31,"Duration":313414,"SoundDuration":313414,"Delta":322505124},{"NoteNumber":43,"Velocity":31,"Duration":313414,"SoundDuration":313414,"Delta":322505124},{"NoteNumber":53,"Velocity":34,"Duration":313413,"SoundDuration":313413,"Delta":322818538},{"NoteNumber":55,"Velocity":35,"Duration":313414,"SoundDuration":313414,"Delta":323131952},{"NoteNumber":59,"Velocity":34,"Duration":313413,"SoundDuration":313413,"Delta":323445366},{"NoteNumber":74,"Velocity":49,"Duration":666324,"SoundDuration":666324,"Delta":323758780},{"NoteNumber":77,"Velocity":49,"Duration":666324,"SoundDuration":666324,"Delta":323758780},{"NoteNumber":86,"Velocity":60,"Duration":666324,"SoundDuration":666324,"Delta":323758780},{"NoteNumber":55,"Velocity":33,"Duration":325026,"SoundDuration":325026,"Delta":323758780},{"NoteNumber":53,"Velocity":33,"Duration":341297,"SoundDuration":341297,"Delta":324083807},{"NoteNumber":77,"Velocity":49,"Duration":1603575,"SoundDuration":1603575,"Delta":324425105},{"NoteNumber":71,"Velocity":49,"Duration":1603575,"SoundDuration":1603575,"Delta":324425105},{"NoteNumber":83,"Velocity":49,"Duration":1603575,"SoundDuration":1603575,"Delta":324425105},{"NoteNumber":43,"Velocity":29,"Duration":315457,"SoundDuration":315457,"Delta":324425105},{"NoteNumber":53,"Velocity":31,"Duration":315457,"SoundDuration":315457,"Delta":324740562},{"NoteNumber":55,"Velocity":34,"Duration":315457,"SoundDuration":315457,"Delta":325056020},{"NoteNumber":59,"Velocity":34,"Duration":315457,"SoundDuration":315457,"Delta":325371477},{"NoteNumber":55,"Velocity":33,"Duration":315457,"SoundDuration":315457,"Delta":325686935},{"NoteNumber":53,"Velocity":29,"Duration":79803,"SoundDuration":79803,"Delta":326002392},{"NoteNumber":72,"Velocity":56,"Duration":1498700,"SoundDuration":1498700,"Delta":326082196},{"NoteNumber":76,"Velocity":56,"Duration":1417019,"SoundDuration":1417019,"Delta":326163877},{"NoteNumber":79,"Velocity":56,"Duration":1335337,"SoundDuration":1335337,"Delta":326245559},{"NoteNumber":84,"Velocity":56,"Duration":1253655,"SoundDuration":1253655,"Delta":326327241},{"NoteNumber":48,"Velocity":33,"Duration":313414,"SoundDuration":313414,"Delta":326327241},{"NoteNumber":36,"Velocity":33,"Duration":313414,"SoundDuration":313414,"Delta":326327241},{"NoteNumber":52,"Velocity":34,"Duration":313413,"SoundDuration":313413,"Delta":326640655},{"NoteNumber":55,"Velocity":35,"Duration":313414,"SoundDuration":313414,"Delta":326954069},{"NoteNumber":60,"Velocity":36,"Duration":313413,"SoundDuration":313413,"Delta":327267483},{"NoteNumber":72,"Velocity":49,"Duration":662406,"SoundDuration":662406,"Delta":327580897},{"NoteNumber":76,"Velocity":49,"Duration":662406,"SoundDuration":662406,"Delta":327580897},{"NoteNumber":84,"Velocity":49,"Duration":662406,"SoundDuration":662406,"Delta":327580897},{"NoteNumber":55,"Velocity":37,"Duration":325026,"SoundDuration":325026,"Delta":327580897},{"NoteNumber":52,"Velocity":34,"Duration":337379,"SoundDuration":337379,"Delta":327905924},{"NoteNumber":76,"Velocity":45,"Duration":1620893,"SoundDuration":1620893,"Delta":328243303},{"NoteNumber":67,"Velocity":45,"Duration":1620893,"SoundDuration":1620893,"Delta":328243303},{"NoteNumber":79,"Velocity":45,"Duration":1620893,"SoundDuration":1620893,"Delta":328243303},{"NoteNumber":48,"Velocity":37,"Duration":315457,"SoundDuration":315457,"Delta":328243303},{"NoteNumber":52,"Velocity":31,"Duration":315457,"SoundDuration":315457,"Delta":328558760},{"NoteNumber":55,"Velocity":34,"Duration":315457,"SoundDuration":315457,"Delta":328874218},{"NoteNumber":60,"Velocity":31,"Duration":315457,"SoundDuration":315457,"Delta":329189675},{"NoteNumber":55,"Velocity":31,"Duration":330301,"SoundDuration":330301,"Delta":329505133},{"NoteNumber":52,"Velocity":34,"Duration":85345,"SoundDuration":85345,"Delta":329835434},{"NoteNumber":69,"Velocity":56,"Duration":1504045,"SoundDuration":1504045,"Delta":329920779},{"NoteNumber":72,"Velocity":56,"Duration":1420582,"SoundDuration":1420582,"Delta":330004243},{"NoteNumber":77,"Velocity":56,"Duration":1337119,"SoundDuration":1337119,"Delta":330087706},{"NoteNumber":81,"Velocity":56,"Duration":1253655,"SoundDuration":1253655,"Delta":330171169},{"NoteNumber":53,"Velocity":33,"Duration":313414,"SoundDuration":313414,"Delta":330171169},{"NoteNumber":41,"Velocity":33,"Duration":313414,"SoundDuration":313414,"Delta":330171169},{"NoteNumber":57,"Velocity":34,"Duration":313413,"SoundDuration":313413,"Delta":330484583},{"NoteNumber":60,"Velocity":35,"Duration":313414,"SoundDuration":313414,"Delta":330797997},{"NoteNumber":65,"Velocity":36,"Duration":313413,"SoundDuration":313413,"Delta":331111411},{"NoteNumber":81,"Velocity":61,"Duration":663423,"SoundDuration":663423,"Delta":331424825},{"NoteNumber":69,"Velocity":61,"Duration":663423,"SoundDuration":663423,"Delta":331424825},{"NoteNumber":77,"Velocity":61,"Duration":663423,"SoundDuration":663423,"Delta":331424825},{"NoteNumber":60,"Velocity":40,"Duration":331711,"SoundDuration":331711,"Delta":331424825},{"NoteNumber":57,"Velocity":34,"Duration":331711,"SoundDuration":331711,"Delta":331756537},{"NoteNumber":72,"Velocity":63,"Duration":996492,"SoundDuration":996492,"Delta":332088248},{"NoteNumber":84,"Velocity":63,"Duration":996492,"SoundDuration":996492,"Delta":332088248},{"NoteNumber":81,"Velocity":63,"Duration":996492,"SoundDuration":996492,"Delta":332088248},{"NoteNumber":53,"Velocity":37,"Duration":315457,"SoundDuration":315457,"Delta":332088248},{"NoteNumber":57,"Velocity":31,"Duration":315457,"SoundDuration":315457,"Delta":332403706},{"NoteNumber":60,"Velocity":35,"Duration":315457,"SoundDuration":315457,"Delta":332719163},{"NoteNumber":79,"Velocity":57,"Duration":355450,"SoundDuration":355450,"Delta":333034621},{"NoteNumber":71,"Velocity":57,"Duration":355450,"SoundDuration":355450,"Delta":333034621},{"NoteNumber":83,"Velocity":57,"Duration":355450,"SoundDuration":355450,"Delta":333034621},{"NoteNumber":65,"Velocity":34,"Duration":300721,"SoundDuration":300721,"Delta":333034621},{"NoteNumber":69,"Velocity":63,"Duration":454398,"SoundDuration":454398,"Delta":333335343},{"NoteNumber":77,"Velocity":63,"Duration":454398,"SoundDuration":454398,"Delta":333335343},{"NoteNumber":81,"Velocity":63,"Duration":454398,"SoundDuration":454398,"Delta":333335343},{"NoteNumber":60,"Velocity":33,"Duration":358990,"SoundDuration":358990,"Delta":333335343},{"NoteNumber":57,"Velocity":34,"Duration":95408,"SoundDuration":95408,"Delta":333694334},{"NoteNumber":67,"Velocity":62,"Duration":1273205,"SoundDuration":1273205,"Delta":333789742},{"NoteNumber":72,"Velocity":62,"Duration":1181786,"SoundDuration":1181786,"Delta":333881160},{"NoteNumber":76,"Velocity":62,"Duration":1090367,"SoundDuration":1090367,"Delta":333972579},{"NoteNumber":79,"Velocity":62,"Duration":998948,"SoundDuration":998948,"Delta":334063998},{"NoteNumber":36,"Velocity":33,"Duration":315457,"SoundDuration":315457,"Delta":334063998},{"NoteNumber":48,"Velocity":33,"Duration":315457,"SoundDuration":315457,"Delta":334063998},{"NoteNumber":52,"Velocity":34,"Duration":315457,"SoundDuration":315457,"Delta":334379456},{"NoteNumber":55,"Velocity":35,"Duration":315457,"SoundDuration":315457,"Delta":334694913},{"NoteNumber":81,"Velocity":50,"Duration":368033,"SoundDuration":368033,"Delta":335010371},{"NoteNumber":69,"Velocity":50,"Duration":368033,"SoundDuration":368033,"Delta":335010371},{"NoteNumber":77,"Velocity":50,"Duration":368033,"SoundDuration":368033,"Delta":335010371},{"NoteNumber":60,"Velocity":36,"Duration":315457,"SoundDuration":315457,"Delta":335010371},{"NoteNumber":67,"Velocity":53,"Duration":642758,"SoundDuration":642758,"Delta":335325828},{"NoteNumber":76,"Velocity":53,"Duration":642758,"SoundDuration":642758,"Delta":335325828},{"NoteNumber":79,"Velocity":53,"Duration":695335,"SoundDuration":695335,"Delta":335325828},{"NoteNumber":55,"Velocity":37,"Duration":315457,"SoundDuration":315457,"Delta":335325828},{"NoteNumber":52,"Velocity":34,"Duration":327301,"SoundDuration":327301,"Delta":335641286},{"NoteNumber":76,"Velocity":50,"Duration":1603575,"SoundDuration":1603575,"Delta":335968587},{"NoteNumber":64,"Velocity":50,"Duration":1603575,"SoundDuration":1603575,"Delta":335968587},{"NoteNumber":72,"Velocity":50,"Duration":1603575,"SoundDuration":1603575,"Delta":335968587},{"NoteNumber":48,"Velocity":37,"Duration":315457,"SoundDuration":315457,"Delta":335968587},{"NoteNumber":52,"Velocity":31,"Duration":315457,"SoundDuration":315457,"Delta":336284044},{"NoteNumber":55,"Velocity":33,"Duration":315457,"SoundDuration":315457,"Delta":336599502},{"NoteNumber":60,"Velocity":30,"Duration":315457,"SoundDuration":315457,"Delta":336914959},{"NoteNumber":55,"Velocity":30,"Duration":315457,"SoundDuration":315457,"Delta":337230417},{"NoteNumber":52,"Velocity":29,"Duration":80097,"SoundDuration":80097,"Delta":337545874},{"NoteNumber":69,"Velocity":56,"Duration":1501344,"SoundDuration":1501344,"Delta":337625972},{"NoteNumber":72,"Velocity":56,"Duration":1418781,"SoundDuration":1418781,"Delta":337708534},{"NoteNumber":77,"Velocity":56,"Duration":1336218,"SoundDuration":1336218,"Delta":337791097},{"NoteNumber":81,"Velocity":56,"Duration":1253655,"SoundDuration":1253655,"Delta":337873660},{"NoteNumber":53,"Velocity":33,"Duration":313414,"SoundDuration":313414,"Delta":337873660},{"NoteNumber":41,"Velocity":33,"Duration":313414,"SoundDuration":313414,"Delta":337873660},{"NoteNumber":57,"Velocity":34,"Duration":313413,"SoundDuration":313413,"Delta":338187074},{"NoteNumber":60,"Velocity":35,"Duration":313414,"SoundDuration":313414,"Delta":338500488},{"NoteNumber":65,"Velocity":36,"Duration":313413,"SoundDuration":313413,"Delta":338813902},{"NoteNumber":77,"Velocity":61,"Duration":663423,"SoundDuration":663423,"Delta":339127316},{"NoteNumber":69,"Velocity":61,"Duration":663423,"SoundDuration":663423,"Delta":339127316},{"NoteNumber":81,"Velocity":61,"Duration":663423,"SoundDuration":663423,"Delta":339127316},{"NoteNumber":60,"Velocity":40,"Duration":331711,"SoundDuration":331711,"Delta":339127316},{"NoteNumber":57,"Velocity":34,"Duration":331711,"SoundDuration":331711,"Delta":339459028},{"NoteNumber":72,"Velocity":63,"Duration":996492,"SoundDuration":996492,"Delta":339790739},{"NoteNumber":84,"Velocity":63,"Duration":996492,"SoundDuration":996492,"Delta":339790739},{"NoteNumber":81,"Velocity":63,"Duration":996492,"SoundDuration":996492,"Delta":339790739},{"NoteNumber":53,"Velocity":37,"Duration":315457,"SoundDuration":315457,"Delta":339790739},{"NoteNumber":57,"Velocity":31,"Duration":315457,"SoundDuration":315457,"Delta":340106197},{"NoteNumber":60,"Velocity":35,"Duration":315457,"SoundDuration":315457,"Delta":340421654},{"NoteNumber":71,"Velocity":57,"Duration":355450,"SoundDuration":355450,"Delta":340737112},{"NoteNumber":83,"Velocity":57,"Duration":355450,"SoundDuration":355450,"Delta":340737112},{"NoteNumber":79,"Velocity":57,"Duration":355450,"SoundDuration":355450,"Delta":340737112},{"NoteNumber":65,"Velocity":34,"Duration":300721,"SoundDuration":300721,"Delta":340737112},{"NoteNumber":77,"Velocity":63,"Duration":421478,"SoundDuration":421478,"Delta":341037834},{"NoteNumber":81,"Velocity":63,"Duration":421478,"SoundDuration":421478,"Delta":341037834},{"NoteNumber":69,"Velocity":63,"Duration":421478,"SoundDuration":421478,"Delta":341037834},{"NoteNumber":60,"Velocity":33,"Duration":334834,"SoundDuration":334834,"Delta":341037834},{"NoteNumber":57,"Velocity":34,"Duration":86644,"SoundDuration":86644,"Delta":341372668},{"NoteNumber":67,"Velocity":62,"Duration":1247642,"SoundDuration":1247642,"Delta":341459313},{"NoteNumber":72,"Velocity":62,"Duration":1158357,"SoundDuration":1158357,"Delta":341548598},{"NoteNumber":76,"Velocity":62,"Duration":1069071,"SoundDuration":1069071,"Delta":341637884},{"NoteNumber":79,"Velocity":62,"Duration":979785,"SoundDuration":979785,"Delta":341727170},{"NoteNumber":48,"Velocity":33,"Duration":309406,"SoundDuration":309406,"Delta":341727170},{"NoteNumber":36,"Velocity":33,"Duration":309406,"SoundDuration":309406,"Delta":341727170},{"NoteNumber":52,"Velocity":34,"Duration":309405,"SoundDuration":309405,"Delta":342036576},{"NoteNumber":55,"Velocity":35,"Duration":309406,"SoundDuration":309406,"Delta":342345982},{"NoteNumber":81,"Velocity":50,"Duration":364691,"SoundDuration":364691,"Delta":342655388},{"NoteNumber":69,"Velocity":50,"Duration":364691,"SoundDuration":364691,"Delta":342655388},{"NoteNumber":77,"Velocity":50,"Duration":364691,"SoundDuration":364691,"Delta":342655388},{"NoteNumber":60,"Velocity":36,"Duration":309405,"SoundDuration":309405,"Delta":342655388},{"NoteNumber":67,"Velocity":53,"Duration":663423,"SoundDuration":663423,"Delta":342964794},{"NoteNumber":76,"Velocity":53,"Duration":663423,"SoundDuration":663423,"Delta":342964794},{"NoteNumber":79,"Velocity":53,"Duration":715999,"SoundDuration":715999,"Delta":342964794},{"NoteNumber":55,"Velocity":37,"Duration":331711,"SoundDuration":331711,"Delta":342964794},{"NoteNumber":52,"Velocity":34,"Duration":331711,"SoundDuration":331711,"Delta":343296505},{"NoteNumber":72,"Velocity":50,"Duration":1625441,"SoundDuration":1625441,"Delta":343628217},{"NoteNumber":76,"Velocity":50,"Duration":1625441,"SoundDuration":1625441,"Delta":343628217},{"NoteNumber":64,"Velocity":50,"Duration":1625441,"SoundDuration":1625441,"Delta":343628217},{"NoteNumber":48,"Velocity":37,"Duration":315457,"SoundDuration":315457,"Delta":343628217},{"NoteNumber":52,"Velocity":31,"Duration":315457,"SoundDuration":315457,"Delta":343943675},{"NoteNumber":55,"Velocity":33,"Duration":315457,"SoundDuration":315457,"Delta":344259132},{"NoteNumber":60,"Velocity":30,"Duration":315457,"SoundDuration":315457,"Delta":344574590},{"NoteNumber":55,"Velocity":30,"Duration":334199,"SoundDuration":334199,"Delta":344890047},{"NoteNumber":52,"Velocity":29,"Duration":87264,"SoundDuration":87264,"Delta":345224246},{"NoteNumber":74,"Velocity":63,"Duration":1509628,"SoundDuration":1509628,"Delta":345311511},{"NoteNumber":77,"Velocity":63,"Duration":1424304,"SoundDuration":1424304,"Delta":345396836},{"NoteNumber":79,"Velocity":63,"Duration":1338980,"SoundDuration":1338980,"Delta":345482160},{"NoteNumber":86,"Velocity":63,"Duration":1253655,"SoundDuration":1253655,"Delta":345567484},{"NoteNumber":31,"Velocity":31,"Duration":313414,"SoundDuration":313414,"Delta":345567484},{"NoteNumber":43,"Velocity":31,"Duration":313414,"SoundDuration":313414,"Delta":345567484},{"NoteNumber":53,"Velocity":34,"Duration":313413,"SoundDuration":313413,"Delta":345880898},{"NoteNumber":55,"Velocity":35,"Duration":313414,"SoundDuration":313414,"Delta":346194312},{"NoteNumber":59,"Velocity":34,"Duration":313413,"SoundDuration":313413,"Delta":346507726},{"NoteNumber":74,"Velocity":63,"Duration":677506,"SoundDuration":677506,"Delta":346821140},{"NoteNumber":86,"Velocity":63,"Duration":677506,"SoundDuration":677506,"Delta":346821140},{"NoteNumber":77,"Velocity":63,"Duration":677506,"SoundDuration":677506,"Delta":346821140},{"NoteNumber":55,"Velocity":33,"Duration":338753,"SoundDuration":338753,"Delta":346821140},{"NoteNumber":53,"Velocity":33,"Duration":338753,"SoundDuration":338753,"Delta":347159894},{"NoteNumber":77,"Velocity":70,"Duration":1431206,"SoundDuration":1431206,"Delta":347329270},{"NoteNumber":83,"Velocity":70,"Duration":1346518,"SoundDuration":1346518,"Delta":347413959},{"NoteNumber":89,"Velocity":70,"Duration":998948,"SoundDuration":998948,"Delta":347498647},{"NoteNumber":43,"Velocity":29,"Duration":315457,"SoundDuration":315457,"Delta":347498647},{"NoteNumber":53,"Velocity":31,"Duration":315457,"SoundDuration":315457,"Delta":347814105},{"NoteNumber":55,"Velocity":34,"Duration":315457,"SoundDuration":315457,"Delta":348129562},{"NoteNumber":77,"Velocity":64,"Duration":371916,"SoundDuration":371916,"Delta":348445020},{"NoteNumber":74,"Velocity":64,"Duration":371916,"SoundDuration":371916,"Delta":348445020},{"NoteNumber":86,"Velocity":64,"Duration":371916,"SoundDuration":371916,"Delta":348445020},{"NoteNumber":59,"Velocity":37,"Duration":315457,"SoundDuration":315457,"Delta":348445020},{"NoteNumber":71,"Velocity":64,"Duration":423441,"SoundDuration":423441,"Delta":348760477},{"NoteNumber":77,"Velocity":64,"Duration":423441,"SoundDuration":423441,"Delta":348760477},{"NoteNumber":83,"Velocity":64,"Duration":423441,"SoundDuration":423441,"Delta":348760477},{"NoteNumber":55,"Velocity":34,"Duration":338753,"SoundDuration":338753,"Delta":348760477},{"NoteNumber":53,"Velocity":33,"Duration":84688,"SoundDuration":84688,"Delta":349099231},{"NoteNumber":72,"Velocity":61,"Duration":2292807,"SoundDuration":2292807,"Delta":349183919},{"NoteNumber":76,"Velocity":61,"Duration":2208119,"SoundDuration":2208119,"Delta":349268607},{"NoteNumber":79,"Velocity":61,"Duration":2123430,"SoundDuration":2123430,"Delta":349353296},{"NoteNumber":84,"Velocity":61,"Duration":2038742,"SoundDuration":2038742,"Delta":349437984},{"NoteNumber":48,"Velocity":33,"Duration":326086,"SoundDuration":326086,"Delta":349437984},{"NoteNumber":36,"Velocity":33,"Duration":326086,"SoundDuration":326086,"Delta":349437984},{"NoteNumber":52,"Velocity":34,"Duration":326087,"SoundDuration":326087,"Delta":349764071},{"NoteNumber":55,"Velocity":35,"Duration":326086,"SoundDuration":326086,"Delta":350090158},{"NoteNumber":60,"Velocity":36,"Duration":326087,"SoundDuration":326087,"Delta":350416245},{"NoteNumber":55,"Velocity":37,"Duration":340909,"SoundDuration":340909,"Delta":350742332},{"NoteNumber":52,"Velocity":34,"Duration":340909,"SoundDuration":340909,"Delta":351083241},{"NoteNumber":79,"Velocity":50,"Duration":1922777,"SoundDuration":1922777,"Delta":351424150},{"NoteNumber":88,"Velocity":50,"Duration":1922777,"SoundDuration":1922777,"Delta":351424150},{"NoteNumber":76,"Velocity":50,"Duration":1922777,"SoundDuration":1922777,"Delta":351424150},{"NoteNumber":48,"Velocity":30,"Duration":315457,"SoundDuration":315457,"Delta":351424150},{"NoteNumber":52,"Velocity":25,"Duration":315457,"SoundDuration":315457,"Delta":351739608},{"NoteNumber":55,"Velocity":29,"Duration":315457,"SoundDuration":315457,"Delta":352055065},{"NoteNumber":60,"Velocity":25,"Duration":315457,"SoundDuration":315457,"Delta":352370523},{"NoteNumber":64,"Velocity":24,"Duration":925715,"SoundDuration":925715,"Delta":352685980},{"NoteNumber":72,"Velocity":50,"Duration":1257245,"SoundDuration":1257245,"Delta":353346928},{"NoteNumber":76,"Velocity":50,"Duration":1168989,"SoundDuration":1168989,"Delta":353435184},{"NoteNumber":79,"Velocity":50,"Duration":1080733,"SoundDuration":1080733,"Delta":353523440},{"NoteNumber":84,"Velocity":50,"Duration":992477,"SoundDuration":992477,"Delta":353611696},{"NoteNumber":31,"Velocity":36,"Duration":313414,"SoundDuration":313414,"Delta":353611696},{"NoteNumber":43,"Velocity":36,"Duration":313414,"SoundDuration":313414,"Delta":353611696},{"NoteNumber":52,"Velocity":33,"Duration":313413,"SoundDuration":313413,"Delta":353925110},{"NoteNumber":55,"Velocity":33,"Duration":313414,"SoundDuration":313414,"Delta":354238524},{"NoteNumber":67,"Velocity":47,"Duration":368142,"SoundDuration":368142,"Delta":354551938},{"NoteNumber":76,"Velocity":47,"Duration":368142,"SoundDuration":368142,"Delta":354551938},{"NoteNumber":79,"Velocity":47,"Duration":368142,"SoundDuration":368142,"Delta":354551938},{"NoteNumber":60,"Velocity":33,"Duration":313413,"SoundDuration":313413,"Delta":354551938},{"NoteNumber":76,"Velocity":47,"Duration":410464,"SoundDuration":410464,"Delta":354865352},{"NoteNumber":72,"Velocity":47,"Duration":410464,"SoundDuration":410464,"Delta":354865352},{"NoteNumber":64,"Velocity":47,"Duration":410464,"SoundDuration":410464,"Delta":354865352},{"NoteNumber":55,"Velocity":29,"Duration":328371,"SoundDuration":328371,"Delta":354865352},{"NoteNumber":52,"Velocity":29,"Duration":82092,"SoundDuration":82092,"Delta":355193723},{"NoteNumber":67,"Velocity":51,"Duration":1508108,"SoundDuration":1508108,"Delta":355275816},{"NoteNumber":71,"Velocity":51,"Duration":1426015,"SoundDuration":1426015,"Delta":355357909},{"NoteNumber":74,"Velocity":51,"Duration":1028465,"SoundDuration":1028465,"Delta":355440002},{"NoteNumber":79,"Velocity":51,"Duration":998948,"SoundDuration":998948,"Delta":355522094},{"NoteNumber":31,"Velocity":36,"Duration":315457,"SoundDuration":315457,"Delta":355522094},{"NoteNumber":43,"Velocity":36,"Duration":315457,"SoundDuration":315457,"Delta":355522094},{"NoteNumber":53,"Velocity":33,"Duration":315457,"SoundDuration":315457,"Delta":355837552},{"NoteNumber":55,"Velocity":28,"Duration":315457,"SoundDuration":315457,"Delta":356153009},{"NoteNumber":77,"Velocity":46,"Duration":368033,"SoundDuration":368033,"Delta":356468467},{"NoteNumber":65,"Velocity":46,"Duration":315457,"SoundDuration":315457,"Delta":356468467},{"NoteNumber":59,"Velocity":30,"Duration":315457,"SoundDuration":315457,"Delta":356468467},{"NoteNumber":62,"Velocity":42,"Duration":617146,"SoundDuration":617146,"Delta":356783924},{"NoteNumber":71,"Velocity":42,"Duration":617146,"SoundDuration":617146,"Delta":356783924},{"NoteNumber":74,"Velocity":42,"Duration":617146,"SoundDuration":617146,"Delta":356783924},{"NoteNumber":55,"Velocity":29,"Duration":315457,"SoundDuration":315457,"Delta":356783924},{"NoteNumber":53,"Velocity":30,"Duration":402252,"SoundDuration":402252,"Delta":357099382},{"NoteNumber":67,"Velocity":42,"Duration":1860518,"SoundDuration":1860518,"Delta":357501634},{"NoteNumber":72,"Velocity":42,"Duration":1860518,"SoundDuration":1860518,"Delta":357501634},{"NoteNumber":60,"Velocity":42,"Duration":1860518,"SoundDuration":1860518,"Delta":357501634},{"NoteNumber":64,"Velocity":42,"Duration":1860518,"SoundDuration":1860518,"Delta":357501634},{"NoteNumber":48,"Velocity":33,"Duration":309406,"SoundDuration":309406,"Delta":357501634},{"NoteNumber":36,"Velocity":33,"Duration":309406,"SoundDuration":309406,"Delta":357501634},{"NoteNumber":52,"Velocity":34,"Duration":309405,"SoundDuration":309405,"Delta":357811040},{"NoteNumber":55,"Velocity":35,"Duration":309406,"SoundDuration":309406,"Delta":358120446},{"NoteNumber":60,"Velocity":36,"Duration":300721,"SoundDuration":300721,"Delta":358429852},{"NoteNumber":55,"Velocity":37,"Duration":315789,"SoundDuration":315789,"Delta":358730574},{"NoteNumber":52,"Velocity":34,"Duration":315789,"SoundDuration":315789,"Delta":359046364},{"NoteNumber":48,"Velocity":37,"Duration":315457,"SoundDuration":315457,"Delta":359362153},{"NoteNumber":52,"Velocity":35,"Duration":315457,"SoundDuration":315457,"Delta":359677611},{"NoteNumber":55,"Velocity":37,"Duration":315457,"SoundDuration":315457,"Delta":359993068},{"NoteNumber":60,"Velocity":40,"Duration":315457,"SoundDuration":315457,"Delta":360308526},{"NoteNumber":55,"Velocity":39,"Duration":315457,"SoundDuration":315457,"Delta":360623983},{"NoteNumber":52,"Velocity":37,"Duration":78864,"SoundDuration":78864,"Delta":360939441},{"NoteNumber":68,"Velocity":71,"Duration":2090532,"SoundDuration":2090532,"Delta":361018305},{"NoteNumber":72,"Velocity":71,"Duration":2011668,"SoundDuration":2011668,"Delta":361097169},{"NoteNumber":77,"Velocity":71,"Duration":1932804,"SoundDuration":1932804,"Delta":361176034},{"NoteNumber":80,"Velocity":71,"Duration":1853939,"SoundDuration":1853939,"Delta":361254898},{"NoteNumber":36,"Velocity":41,"Duration":309406,"SoundDuration":309406,"Delta":361254898},{"NoteNumber":48,"Velocity":41,"Duration":309406,"SoundDuration":309406,"Delta":361254898},{"NoteNumber":53,"Velocity":42,"Duration":309405,"SoundDuration":309405,"Delta":361564304},{"NoteNumber":56,"Velocity":45,"Duration":309406,"SoundDuration":309406,"Delta":361873710},{"NoteNumber":60,"Velocity":46,"Duration":300721,"SoundDuration":300721,"Delta":362183116},{"NoteNumber":56,"Velocity":47,"Duration":312500,"SoundDuration":312500,"Delta":362483838},{"NoteNumber":53,"Velocity":42,"Duration":312500,"SoundDuration":312500,"Delta":362796338},{"NoteNumber":68,"Velocity":67,"Duration":1261829,"SoundDuration":1261829,"Delta":363108838},{"NoteNumber":72,"Velocity":67,"Duration":1261829,"SoundDuration":1261829,"Delta":363108838},{"NoteNumber":77,"Velocity":67,"Duration":1261829,"SoundDuration":1261829,"Delta":363108838},{"NoteNumber":80,"Velocity":67,"Duration":1261829,"SoundDuration":1261829,"Delta":363108838},{"NoteNumber":48,"Velocity":47,"Duration":315457,"SoundDuration":315457,"Delta":363108838},{"NoteNumber":53,"Velocity":45,"Duration":315457,"SoundDuration":315457,"Delta":363424295},{"NoteNumber":56,"Velocity":47,"Duration":315457,"SoundDuration":315457,"Delta":363739753},{"NoteNumber":60,"Velocity":51,"Duration":315457,"SoundDuration":315457,"Delta":364055210},{"NoteNumber":77,"Velocity":67,"Duration":630915,"SoundDuration":630915,"Delta":364370668},{"NoteNumber":80,"Velocity":67,"Duration":630915,"SoundDuration":630915,"Delta":364370668},{"NoteNumber":72,"Velocity":67,"Duration":630915,"SoundDuration":630915,"Delta":364370668},{"NoteNumber":68,"Velocity":67,"Duration":630915,"SoundDuration":630915,"Delta":364370668},{"NoteNumber":56,"Velocity":50,"Duration":315457,"SoundDuration":315457,"Delta":364370668},{"NoteNumber":53,"Velocity":47,"Duration":315457,"SoundDuration":315457,"Delta":364686125},{"NoteNumber":67,"Velocity":69,"Duration":3503648,"SoundDuration":3503648,"Delta":365001583},{"NoteNumber":72,"Velocity":69,"Duration":3503648,"SoundDuration":3503648,"Delta":365001583},{"NoteNumber":79,"Velocity":69,"Duration":3503648,"SoundDuration":3503648,"Delta":365001583},{"NoteNumber":76,"Velocity":69,"Duration":3503648,"SoundDuration":3503648,"Delta":365001583},{"NoteNumber":36,"Velocity":41,"Duration":309406,"SoundDuration":309406,"Delta":365001583},{"NoteNumber":48,"Velocity":41,"Duration":309406,"SoundDuration":309406,"Delta":365001583},{"NoteNumber":52,"Velocity":42,"Duration":309405,"SoundDuration":309405,"Delta":365310989},{"NoteNumber":55,"Velocity":45,"Duration":309406,"SoundDuration":309406,"Delta":365620395},{"NoteNumber":60,"Velocity":46,"Duration":300721,"SoundDuration":300721,"Delta":365929801},{"NoteNumber":55,"Velocity":47,"Duration":309278,"SoundDuration":309278,"Delta":366230523},{"NoteNumber":52,"Velocity":42,"Duration":309278,"SoundDuration":309278,"Delta":366539801},{"NoteNumber":48,"Velocity":47,"Duration":315457,"SoundDuration":315457,"Delta":366849079},{"NoteNumber":52,"Velocity":45,"Duration":315457,"SoundDuration":315457,"Delta":367164537},{"NoteNumber":55,"Velocity":47,"Duration":315457,"SoundDuration":315457,"Delta":367479994},{"NoteNumber":60,"Velocity":51,"Duration":315457,"SoundDuration":315457,"Delta":367795452},{"NoteNumber":55,"Velocity":50,"Duration":315457,"SoundDuration":315457,"Delta":368110909},{"NoteNumber":52,"Velocity":47,"Duration":78864,"SoundDuration":78864,"Delta":368426367},{"NoteNumber":72,"Velocity":73,"Duration":2090532,"SoundDuration":2090532,"Delta":368505231},{"NoteNumber":77,"Velocity":73,"Duration":2011668,"SoundDuration":2011668,"Delta":368584095},{"NoteNumber":80,"Velocity":73,"Duration":1932804,"SoundDuration":1932804,"Delta":368662960},{"NoteNumber":84,"Velocity":73,"Duration":1853939,"SoundDuration":1853939,"Delta":368741824},{"NoteNumber":36,"Velocity":41,"Duration":309406,"SoundDuration":309406,"Delta":368741824},{"NoteNumber":48,"Velocity":41,"Duration":309406,"SoundDuration":309406,"Delta":368741824},{"NoteNumber":53,"Velocity":42,"Duration":309405,"SoundDuration":309405,"Delta":369051230},{"NoteNumber":56,"Velocity":45,"Duration":309406,"SoundDuration":309406,"Delta":369360636},{"NoteNumber":60,"Velocity":46,"Duration":300721,"SoundDuration":300721,"Delta":369670042},{"NoteNumber":56,"Velocity":47,"Duration":312500,"SoundDuration":312500,"Delta":369970764},{"NoteNumber":53,"Velocity":42,"Duration":312500,"SoundDuration":312500,"Delta":370283264},{"NoteNumber":80,"Velocity":75,"Duration":1261829,"SoundDuration":1261829,"Delta":370595764},{"NoteNumber":77,"Velocity":75,"Duration":1261829,"SoundDuration":1261829,"Delta":370595764},{"NoteNumber":72,"Velocity":75,"Duration":1261829,"SoundDuration":1261829,"Delta":370595764},{"NoteNumber":84,"Velocity":75,"Duration":1261829,"SoundDuration":1261829,"Delta":370595764},{"NoteNumber":48,"Velocity":47,"Duration":315457,"SoundDuration":315457,"Delta":370595764},{"NoteNumber":53,"Velocity":45,"Duration":315457,"SoundDuration":315457,"Delta":370911221},{"NoteNumber":56,"Velocity":47,"Duration":315457,"SoundDuration":315457,"Delta":371226679},{"NoteNumber":60,"Velocity":51,"Duration":315457,"SoundDuration":315457,"Delta":371542136},{"NoteNumber":84,"Velocity":81,"Duration":630915,"SoundDuration":630915,"Delta":371857594},{"NoteNumber":80,"Velocity":72,"Duration":630915,"SoundDuration":630915,"Delta":371857594},{"NoteNumber":72,"Velocity":81,"Duration":630915,"SoundDuration":630915,"Delta":371857594},{"NoteNumber":77,"Velocity":81,"Duration":630915,"SoundDuration":630915,"Delta":371857594},{"NoteNumber":56,"Velocity":50,"Duration":315457,"SoundDuration":315457,"Delta":371857594},{"NoteNumber":53,"Velocity":47,"Duration":315457,"SoundDuration":315457,"Delta":372173051},{"NoteNumber":84,"Velocity":91,"Duration":1847496,"SoundDuration":1847496,"Delta":372488509},{"NoteNumber":72,"Velocity":82,"Duration":1847496,"SoundDuration":1847496,"Delta":372488509},{"NoteNumber":79,"Velocity":81,"Duration":1847496,"SoundDuration":1847496,"Delta":372488509},{"NoteNumber":76,"Velocity":82,"Duration":1847496,"SoundDuration":1847496,"Delta":372488509},{"NoteNumber":36,"Velocity":50,"Duration":309406,"SoundDuration":309406,"Delta":372488509},{"NoteNumber":48,"Velocity":50,"Duration":309406,"SoundDuration":309406,"Delta":372488509},{"NoteNumber":52,"Velocity":51,"Duration":309405,"SoundDuration":309405,"Delta":372797915},{"NoteNumber":55,"Velocity":53,"Duration":309406,"SoundDuration":309406,"Delta":373107321},{"NoteNumber":60,"Velocity":56,"Duration":300721,"SoundDuration":300721,"Delta":373416727},{"NoteNumber":55,"Velocity":57,"Duration":309278,"SoundDuration":309278,"Delta":373717449},{"NoteNumber":52,"Velocity":51,"Duration":309278,"SoundDuration":309278,"Delta":374026727},{"NoteNumber":84,"Velocity":83,"Duration":1892744,"SoundDuration":1892744,"Delta":374336005},{"NoteNumber":79,"Velocity":83,"Duration":1892744,"SoundDuration":1892744,"Delta":374336005},{"NoteNumber":91,"Velocity":92,"Duration":1892744,"SoundDuration":1892744,"Delta":374336005},{"NoteNumber":88,"Velocity":82,"Duration":1892744,"SoundDuration":1892744,"Delta":374336005},{"NoteNumber":48,"Velocity":57,"Duration":315457,"SoundDuration":315457,"Delta":374336005},{"NoteNumber":52,"Velocity":53,"Duration":315457,"SoundDuration":315457,"Delta":374651463},{"NoteNumber":55,"Velocity":57,"Duration":315457,"SoundDuration":315457,"Delta":374966920},{"NoteNumber":60,"Velocity":62,"Duration":315457,"SoundDuration":315457,"Delta":375282378},{"NoteNumber":55,"Velocity":60,"Duration":315457,"SoundDuration":315457,"Delta":375597835},{"NoteNumber":52,"Velocity":57,"Duration":315457,"SoundDuration":315457,"Delta":375913293},{"NoteNumber":96,"Velocity":96,"Duration":2444795,"SoundDuration":2444795,"Delta":376228750},{"NoteNumber":84,"Velocity":89,"Duration":2444795,"SoundDuration":2444795,"Delta":376228750},{"NoteNumber":91,"Velocity":89,"Duration":2444795,"SoundDuration":2444795,"Delta":376228750},{"NoteNumber":88,"Velocity":89,"Duration":2444795,"SoundDuration":2444795,"Delta":376228750},{"NoteNumber":48,"Velocity":69,"Duration":2444795,"SoundDuration":2444795,"Delta":376228750},{"NoteNumber":36,"Velocity":69,"Duration":2444795,"SoundDuration":2444795,"Delta":376228750},{"NoteNumber":84,"Velocity":45,"Duration":1094890,"SoundDuration":1094890,"Delta":378752410},{"NoteNumber":81,"Velocity":38,"Duration":1094890,"SoundDuration":1094890,"Delta":378752410},{"NoteNumber":76,"Velocity":38,"Duration":1094890,"SoundDuration":1094890,"Delta":378752410},{"NoteNumber":69,"Velocity":34,"Duration":1094890,"SoundDuration":1094890,"Delta":378752410},{"NoteNumber":72,"Velocity":40,"Duration":1094890,"SoundDuration":1094890,"Delta":378752410},{"NoteNumber":83,"Velocity":37,"Duration":1079136,"SoundDuration":1079136,"Delta":379847300},{"NoteNumber":79,"Velocity":31,"Duration":1079136,"SoundDuration":1079136,"Delta":379847300},{"NoteNumber":76,"Velocity":31,"Duration":1079136,"SoundDuration":1079136,"Delta":379847300},{"NoteNumber":64,"Velocity":28,"Duration":1079136,"SoundDuration":1079136,"Delta":379847300},{"NoteNumber":71,"Velocity":33,"Duration":1079136,"SoundDuration":1079136,"Delta":379847300},{"NoteNumber":77,"Velocity":41,"Duration":1092100,"SoundDuration":1092100,"Delta":380926436},{"NoteNumber":72,"Velocity":41,"Duration":1092100,"SoundDuration":1092100,"Delta":380926436},{"NoteNumber":81,"Velocity":49,"Duration":1092100,"SoundDuration":1092100,"Delta":380926436},{"NoteNumber":65,"Velocity":35,"Duration":1092100,"SoundDuration":1092100,"Delta":380926436},{"NoteNumber":69,"Velocity":42,"Duration":1092100,"SoundDuration":1092100,"Delta":380926436},{"NoteNumber":76,"Velocity":53,"Duration":1087743,"SoundDuration":1087743,"Delta":382018536},{"NoteNumber":72,"Velocity":53,"Duration":1087743,"SoundDuration":1087743,"Delta":382018536},{"NoteNumber":79,"Velocity":63,"Duration":1087743,"SoundDuration":1087743,"Delta":382018536},{"NoteNumber":67,"Velocity":51,"Duration":1087743,"SoundDuration":1087743,"Delta":382018536},{"NoteNumber":60,"Velocity":43,"Duration":1087743,"SoundDuration":1087743,"Delta":382018536},{"NoteNumber":81,"Velocity":74,"Duration":1074184,"SoundDuration":1074184,"Delta":383106280},{"NoteNumber":73,"Velocity":62,"Duration":1074184,"SoundDuration":1074184,"Delta":383106280},{"NoteNumber":76,"Velocity":62,"Duration":1074184,"SoundDuration":1074184,"Delta":383106280},{"NoteNumber":69,"Velocity":62,"Duration":1074184,"SoundDuration":1074184,"Delta":383106280},{"NoteNumber":57,"Velocity":52,"Duration":1074184,"SoundDuration":1074184,"Delta":383106280},{"NoteNumber":74,"Velocity":70,"Duration":1087743,"SoundDuration":1087743,"Delta":384180464},{"NoteNumber":77,"Velocity":83,"Duration":1087743,"SoundDuration":1087743,"Delta":384180464},{"NoteNumber":69,"Velocity":68,"Duration":1087743,"SoundDuration":1087743,"Delta":384180464},{"NoteNumber":62,"Velocity":57,"Duration":1087743,"SoundDuration":1087743,"Delta":384180464},{"NoteNumber":74,"Velocity":91,"Duration":1146241,"SoundDuration":1146241,"Delta":385268208},{"NoteNumber":71,"Velocity":77,"Duration":1146241,"SoundDuration":1146241,"Delta":385268208},{"NoteNumber":67,"Velocity":74,"Duration":573121,"SoundDuration":573121,"Delta":385268208},{"NoteNumber":55,"Velocity":62,"Duration":1146241,"SoundDuration":1146241,"Delta":385268208},{"NoteNumber":65,"Velocity":83,"Duration":573120,"SoundDuration":573120,"Delta":385841329},{"NoteNumber":72,"Velocity":82,"Duration":962882,"SoundDuration":962882,"Delta":386414450},{"NoteNumber":60,"Velocity":73,"Duration":1275078,"SoundDuration":1275078,"Delta":386414450},{"NoteNumber":67,"Velocity":73,"Duration":859704,"SoundDuration":859704,"Delta":386414450},{"NoteNumber":64,"Velocity":73,"Duration":757083,"SoundDuration":757083,"Delta":386414450},{"NoteNumber":36,"Velocity":85,"Duration":111059,"SoundDuration":111059,"Delta":386414450},{"NoteNumber":43,"Velocity":60,"Duration":114631,"SoundDuration":114631,"Delta":386525510},{"NoteNumber":48,"Velocity":60,"Duration":111239,"SoundDuration":111239,"Delta":386640142},{"NoteNumber":52,"Velocity":67,"Duration":109086,"SoundDuration":109086,"Delta":386751382},{"NoteNumber":55,"Velocity":60,"Duration":106003,"SoundDuration":106003,"Delta":386860468},{"NoteNumber":60,"Velocity":60,"Duration":102811,"SoundDuration":102811,"Delta":386966472},{"NoteNumber":64,"Velocity":67,"Duration":620244,"SoundDuration":620244,"Delta":387069284},{"NoteNumber":67,"Velocity":61,"Duration":517995,"SoundDuration":517995,"Delta":387171533},{"NoteNumber":72,"Velocity":61,"Duration":310857,"SoundDuration":310857,"Delta":387274154},{"NoteNumber":76,"Velocity":67,"Duration":103556,"SoundDuration":103556,"Delta":387377332},{"NoteNumber":72,"Velocity":61,"Duration":208640,"SoundDuration":208640,"Delta":387480888},{"NoteNumber":67,"Velocity":61,"Duration":104517,"SoundDuration":104517,"Delta":387585011},{"NoteNumber":48,"Velocity":67,"Duration":99502,"SoundDuration":99502,"Delta":387689529},{"NoteNumber":55,"Velocity":60,"Duration":98291,"SoundDuration":98291,"Delta":387789031},{"NoteNumber":60,"Velocity":62,"Duration":97187,"SoundDuration":97187,"Delta":387887323},{"NoteNumber":64,"Velocity":71,"Duration":96349,"SoundDuration":96349,"Delta":387984510},{"NoteNumber":67,"Velocity":66,"Duration":94968,"SoundDuration":94968,"Delta":388080860},{"NoteNumber":72,"Velocity":67,"Duration":93949,"SoundDuration":93949,"Delta":388175828},{"NoteNumber":76,"Velocity":75,"Duration":94253,"SoundDuration":94253,"Delta":388269777},{"NoteNumber":79,"Velocity":69,"Duration":95614,"SoundDuration":95614,"Delta":388364031},{"NoteNumber":84,"Velocity":70,"Duration":96685,"SoundDuration":96685,"Delta":388459646},{"NoteNumber":88,"Velocity":82,"Duration":98117,"SoundDuration":98117,"Delta":388556331},{"NoteNumber":84,"Velocity":73,"Duration":99243,"SoundDuration":99243,"Delta":388654449},{"NoteNumber":79,"Velocity":73,"Duration":100779,"SoundDuration":100779,"Delta":388753693},{"NoteNumber":60,"Velocity":77,"Duration":95292,"SoundDuration":95292,"Delta":388854473},{"NoteNumber":67,"Velocity":70,"Duration":94177,"SoundDuration":94177,"Delta":388949765},{"NoteNumber":72,"Velocity":71,"Duration":93172,"SoundDuration":93172,"Delta":389043943},{"NoteNumber":76,"Velocity":77,"Duration":91879,"SoundDuration":91879,"Delta":389137115},{"NoteNumber":79,"Velocity":71,"Duration":90619,"SoundDuration":90619,"Delta":389228994},{"NoteNumber":84,"Velocity":71,"Duration":90474,"SoundDuration":90474,"Delta":389319614},{"NoteNumber":88,"Velocity":82,"Duration":91727,"SoundDuration":91727,"Delta":389410089},{"NoteNumber":91,"Velocity":75,"Duration":92710,"SoundDuration":92710,"Delta":389501817},{"NoteNumber":96,"Velocity":75,"Duration":94025,"SoundDuration":94025,"Delta":389594527},{"NoteNumber":100,"Velocity":82,"Duration":95049,"SoundDuration":95049,"Delta":389688553},{"NoteNumber":96,"Velocity":75,"Duration":96433,"SoundDuration":96433,"Delta":389783602},{"NoteNumber":91,"Velocity":75,"Duration":97520,"SoundDuration":97520,"Delta":389880036},{"NoteNumber":60,"Velocity":79,"Duration":94482,"SoundDuration":94482,"Delta":389977557},{"NoteNumber":67,"Velocity":74,"Duration":93407,"SoundDuration":93407,"Delta":390072039},{"NoteNumber":72,"Velocity":74,"Duration":92635,"SoundDuration":92635,"Delta":390165446},{"NoteNumber":76,"Velocity":83,"Duration":91651,"SoundDuration":91651,"Delta":390258081},{"NoteNumber":79,"Velocity":77,"Duration":89898,"SoundDuration":89898,"Delta":390349733},{"NoteNumber":84,"Velocity":77,"Duration":90176,"SoundDuration":90176,"Delta":390439631},{"NoteNumber":88,"Velocity":83,"Duration":93036,"SoundDuration":93036,"Delta":390529808},{"NoteNumber":91,"Velocity":79,"Duration":96252,"SoundDuration":96252,"Delta":390622844},{"NoteNumber":96,"Velocity":79,"Duration":99815,"SoundDuration":99815,"Delta":390719097},{"NoteNumber":100,"Velocity":86,"Duration":106994,"SoundDuration":106994,"Delta":390818913},{"NoteNumber":96,"Velocity":82,"Duration":113636,"SoundDuration":113636,"Delta":390925907},{"NoteNumber":91,"Velocity":82,"Duration":113636,"SoundDuration":113636,"Delta":391039544},{"NoteNumber":96,"Velocity":102,"Duration":1230770,"SoundDuration":1230770,"Delta":391153180},{"NoteNumber":88,"Velocity":91,"Duration":1230770,"SoundDuration":1230770,"Delta":391153180},{"NoteNumber":72,"Velocity":79,"Duration":1230770,"SoundDuration":1230770,"Delta":391153180},{"NoteNumber":76,"Velocity":79,"Duration":1230770,"SoundDuration":1230770,"Delta":391153180},{"NoteNumber":79,"Velocity":88,"Duration":1230770,"SoundDuration":1230770,"Delta":391153180},{"NoteNumber":84,"Velocity":99,"Duration":1230770,"SoundDuration":1230770,"Delta":392383950},{"NoteNumber":76,"Velocity":88,"Duration":1230770,"SoundDuration":1230770,"Delta":392383950},{"NoteNumber":79,"Velocity":89,"Duration":1230770,"SoundDuration":1230770,"Delta":392383950},{"NoteNumber":67,"Velocity":72,"Duration":1230770,"SoundDuration":1230770,"Delta":392383950},{"NoteNumber":72,"Velocity":81,"Duration":1230770,"SoundDuration":1230770,"Delta":392383950},{"NoteNumber":60,"Velocity":72,"Duration":1230770,"SoundDuration":1230770,"Delta":392383950},{"NoteNumber":64,"Velocity":88,"Duration":1230770,"SoundDuration":1230770,"Delta":393614720},{"NoteNumber":67,"Velocity":89,"Duration":1230770,"SoundDuration":1230770,"Delta":393614720},{"NoteNumber":72,"Velocity":99,"Duration":1230770,"SoundDuration":1230770,"Delta":393614720},{"NoteNumber":55,"Velocity":72,"Duration":1230770,"SoundDuration":1230770,"Delta":393614720},{"NoteNumber":60,"Velocity":81,"Duration":1230770,"SoundDuration":1230770,"Delta":393614720},{"NoteNumber":48,"Velocity":72,"Duration":1230770,"SoundDuration":1230770,"Delta":393614720},{"NoteNumber":55,"Velocity":85,"Duration":1311476,"SoundDuration":1311476,"Delta":394845490},{"NoteNumber":52,"Velocity":84,"Duration":1311476,"SoundDuration":1311476,"Delta":394845490},{"NoteNumber":60,"Velocity":95,"Duration":1311476,"SoundDuration":1311476,"Delta":394845490},{"NoteNumber":43,"Velocity":72,"Duration":1311476,"SoundDuration":1311476,"Delta":394845490},{"NoteNumber":48,"Velocity":81,"Duration":1311476,"SoundDuration":1311476,"Delta":394845490},{"NoteNumber":36,"Velocity":72,"Duration":1311476,"SoundDuration":1311476,"Delta":394845490},{"NoteNumber":48,"Velocity":104,"Duration":2622951,"SoundDuration":2622951,"Delta":396156966},{"NoteNumber":36,"Velocity":86,"Duration":2622951,"SoundDuration":2622951,"Delta":396156966},{"NoteNumber":24,"Velocity":78,"Duration":2622951,"SoundDuration":2622951,"Delta":396156966}]}