{"title":"Fantasie über \"Stille Nacht, heilige Nacht\"","artist":"Lichner","durationMs":383355,"midiSha256":"f17f2d784214bbf7444b29b3aea3ae2415c3d32e8fb1ed2ebefde40f04a8d84b","midiObject":[{"NoteNumber":53,"Velocity":39,"Duration":981363,"SoundDuration":981363,"Delta":0},{"NoteNumber":56,"Velocity":46,"Duration":981363,"SoundDuration":981363,"Delta":0},{"NoteNumber":37,"Velocity":32,"Duration":1154630,"SoundDuration":1154630,"Delta":0},{"NoteNumber":44,"Velocity":32,"Duration":1154630,"SoundDuration":1154630,"Delta":0},{"NoteNumber":49,"Velocity":38,"Duration":1154630,"SoundDuration":1154630,"Delta":0},{"NoteNumber":54,"Velocity":31,"Duration":403856,"SoundDuration":403856,"Delta":882353},{"NoteNumber":58,"Velocity":37,"Duration":403856,"SoundDuration":403856,"Delta":882353},{"NoteNumber":56,"Velocity":37,"Duration":631579,"SoundDuration":631579,"Delta":1180946},{"NoteNumber":53,"Velocity":31,"Duration":626315,"SoundDuration":626315,"Delta":1180946},{"NoteNumber":44,"Velocity":25,"Duration":631579,"SoundDuration":631579,"Delta":1180946},{"NoteNumber":37,"Velocity":25,"Duration":605263,"SoundDuration":605263,"Delta":1180946},{"NoteNumber":49,"Velocity":30,"Duration":605263,"SoundDuration":605263,"Delta":1180946},{"NoteNumber":53,"Velocity":46,"Duration":145631,"SoundDuration":145631,"Delta":1812525},{"NoteNumber":37,"Velocity":27,"Duration":1135774,"SoundDuration":1135774,"Delta":1812525},{"NoteNumber":49,"Velocity":32,"Duration":1135774,"SoundDuration":1135774,"Delta":1812525},{"NoteNumber":44,"Velocity":27,"Duration":1135774,"SoundDuration":1135774,"Delta":1812525},{"NoteNumber":56,"Velocity":39,"Duration":144464,"SoundDuration":144464,"Delta":1958156},{"NoteNumber":61,"Velocity":43,"Duration":143086,"SoundDuration":143086,"Delta":2102620},{"NoteNumber":65,"Velocity":40,"Duration":141734,"SoundDuration":141734,"Delta":2245706},{"NoteNumber":68,"Velocity":43,"Duration":140407,"SoundDuration":140407,"Delta":2387440},{"NoteNumber":73,"Velocity":43,"Duration":139105,"SoundDuration":139105,"Delta":2527847},{"NoteNumber":77,"Velocity":44,"Duration":138468,"SoundDuration":138468,"Delta":2666953},{"NoteNumber":80,"Velocity":47,"Duration":142878,"SoundDuration":142878,"Delta":2805421},{"NoteNumber":85,"Velocity":52,"Duration":604395,"SoundDuration":604395,"Delta":2948299},{"NoteNumber":61,"Velocity":30,"Duration":604395,"SoundDuration":604395,"Delta":2948299},{"NoteNumber":65,"Velocity":30,"Duration":604395,"SoundDuration":604395,"Delta":2948299},{"NoteNumber":56,"Velocity":25,"Duration":604395,"SoundDuration":604395,"Delta":2948299},{"NoteNumber":68,"Velocity":38,"Duration":970874,"SoundDuration":970874,"Delta":3607640},{"NoteNumber":65,"Velocity":38,"Duration":970874,"SoundDuration":970874,"Delta":3607640},{"NoteNumber":56,"Velocity":26,"Duration":1140777,"SoundDuration":1140777,"Delta":3607640},{"NoteNumber":49,"Velocity":26,"Duration":1140777,"SoundDuration":1140777,"Delta":3607640},{"NoteNumber":61,"Velocity":31,"Duration":1140777,"SoundDuration":1140777,"Delta":3607640},{"NoteNumber":66,"Velocity":35,"Duration":398569,"SoundDuration":398569,"Delta":4481427},{"NoteNumber":70,"Velocity":35,"Duration":398569,"SoundDuration":398569,"Delta":4481427},{"NoteNumber":65,"Velocity":36,"Duration":631579,"SoundDuration":631579,"Delta":4774733},{"NoteNumber":68,"Velocity":36,"Duration":631579,"SoundDuration":631579,"Delta":4774733},{"NoteNumber":49,"Velocity":25,"Duration":605263,"SoundDuration":605263,"Delta":4774733},{"NoteNumber":61,"Velocity":30,"Duration":605263,"SoundDuration":605263,"Delta":4774733},{"NoteNumber":56,"Velocity":25,"Duration":605263,"SoundDuration":605263,"Delta":4774733},{"NoteNumber":65,"Velocity":38,"Duration":145631,"SoundDuration":145631,"Delta":5406312},{"NoteNumber":56,"Velocity":27,"Duration":1132449,"SoundDuration":1132449,"Delta":5406312},{"NoteNumber":49,"Velocity":27,"Duration":1132449,"SoundDuration":1132449,"Delta":5406312},{"NoteNumber":61,"Velocity":32,"Duration":1132449,"SoundDuration":1132449,"Delta":5406312},{"NoteNumber":68,"Velocity":32,"Duration":144464,"SoundDuration":144464,"Delta":5551943},{"NoteNumber":73,"Velocity":36,"Duration":143086,"SoundDuration":143086,"Delta":5696407},{"NoteNumber":77,"Velocity":34,"Duration":141733,"SoundDuration":141733,"Delta":5839493},{"NoteNumber":80,"Velocity":36,"Duration":140407,"SoundDuration":140407,"Delta":5981227},{"NoteNumber":85,"Velocity":36,"Duration":139105,"SoundDuration":139105,"Delta":6121635},{"NoteNumber":89,"Velocity":37,"Duration":137827,"SoundDuration":137827,"Delta":6260740},{"NoteNumber":92,"Velocity":38,"Duration":140195,"SoundDuration":140195,"Delta":6398567},{"NoteNumber":97,"Velocity":42,"Duration":659340,"SoundDuration":659340,"Delta":6538762},{"NoteNumber":73,"Velocity":21,"Duration":659340,"SoundDuration":659340,"Delta":6538762},{"NoteNumber":68,"Velocity":21,"Duration":659340,"SoundDuration":659340,"Delta":6538762},{"NoteNumber":77,"Velocity":25,"Duration":659340,"SoundDuration":659340,"Delta":6538762},{"NoteNumber":54,"Velocity":39,"Duration":1140777,"SoundDuration":1140777,"Delta":7198102},{"NoteNumber":63,"Velocity":46,"Duration":1140777,"SoundDuration":1140777,"Delta":7198102},{"NoteNumber":48,"Velocity":40,"Duration":1140777,"SoundDuration":1140777,"Delta":7198102},{"NoteNumber":44,"Velocity":34,"Duration":1140777,"SoundDuration":1140777,"Delta":7198102},{"NoteNumber":54,"Velocity":39,"Duration":621211,"SoundDuration":621211,"Delta":8363151},{"NoteNumber":63,"Velocity":46,"Duration":454545,"SoundDuration":454545,"Delta":8363151},{"NoteNumber":44,"Velocity":39,"Duration":621211,"SoundDuration":621211,"Delta":8363151},{"NoteNumber":48,"Velocity":39,"Duration":454545,"SoundDuration":454545,"Delta":8363151},{"NoteNumber":60,"Velocity":42,"Duration":166666,"SoundDuration":166666,"Delta":8817697},{"NoteNumber":51,"Velocity":36,"Duration":166666,"SoundDuration":166666,"Delta":8817697},{"NoteNumber":54,"Velocity":35,"Duration":166666,"SoundDuration":166666,"Delta":8984363},{"NoteNumber":60,"Velocity":42,"Duration":166666,"SoundDuration":166666,"Delta":8984363},{"NoteNumber":44,"Velocity":35,"Duration":1133647,"SoundDuration":1133647,"Delta":8984363},{"NoteNumber":51,"Velocity":42,"Duration":1157232,"SoundDuration":1157232,"Delta":8984363},{"NoteNumber":80,"Velocity":46,"Duration":141509,"SoundDuration":141509,"Delta":9151030},{"NoteNumber":78,"Velocity":43,"Duration":141509,"SoundDuration":141509,"Delta":9292539},{"NoteNumber":75,"Velocity":43,"Duration":141509,"SoundDuration":141509,"Delta":9434049},{"NoteNumber":72,"Velocity":49,"Duration":141509,"SoundDuration":141509,"Delta":9575558},{"NoteNumber":68,"Velocity":48,"Duration":141509,"SoundDuration":141509,"Delta":9717067},{"NoteNumber":66,"Velocity":44,"Duration":141509,"SoundDuration":141509,"Delta":9858577},{"NoteNumber":63,"Velocity":44,"Duration":141509,"SoundDuration":141509,"Delta":10000086},{"NoteNumber":60,"Velocity":46,"Duration":141072,"SoundDuration":141072,"Delta":10141596},{"NoteNumber":48,"Velocity":35,"Duration":604785,"SoundDuration":604785,"Delta":10141596},{"NoteNumber":44,"Velocity":29,"Duration":604785,"SoundDuration":604785,"Delta":10141596},{"NoteNumber":56,"Velocity":42,"Duration":144239,"SoundDuration":144239,"Delta":10282668},{"NoteNumber":55,"Velocity":46,"Duration":147058,"SoundDuration":147058,"Delta":10426908},{"NoteNumber":54,"Velocity":42,"Duration":172413,"SoundDuration":172413,"Delta":10573967},{"NoteNumber":61,"Velocity":46,"Duration":1140777,"SoundDuration":1140777,"Delta":10746381},{"NoteNumber":53,"Velocity":39,"Duration":1140777,"SoundDuration":1140777,"Delta":10746381},{"NoteNumber":44,"Velocity":33,"Duration":1140777,"SoundDuration":1140777,"Delta":10746381},{"NoteNumber":37,"Velocity":33,"Duration":1140777,"SoundDuration":1140777,"Delta":10746381},{"NoteNumber":49,"Velocity":39,"Duration":1140777,"SoundDuration":1140777,"Delta":10746381},{"NoteNumber":53,"Velocity":37,"Duration":598958,"SoundDuration":598958,"Delta":11911430},{"NoteNumber":61,"Velocity":44,"Duration":598958,"SoundDuration":598958,"Delta":11911430},{"NoteNumber":37,"Velocity":31,"Duration":598958,"SoundDuration":598958,"Delta":11911430},{"NoteNumber":49,"Velocity":37,"Duration":598958,"SoundDuration":598958,"Delta":11911430},{"NoteNumber":44,"Velocity":31,"Duration":598958,"SoundDuration":598958,"Delta":11911430},{"NoteNumber":53,"Velocity":35,"Duration":161290,"SoundDuration":161290,"Delta":12536430},{"NoteNumber":56,"Velocity":42,"Duration":161290,"SoundDuration":161290,"Delta":12536430},{"NoteNumber":44,"Velocity":29,"Duration":1128271,"SoundDuration":1128271,"Delta":12536430},{"NoteNumber":49,"Velocity":35,"Duration":1128271,"SoundDuration":1128271,"Delta":12536430},{"NoteNumber":37,"Velocity":29,"Duration":1128271,"SoundDuration":1128271,"Delta":12536430},{"NoteNumber":77,"Velocity":49,"Duration":141509,"SoundDuration":141509,"Delta":12697720},{"NoteNumber":73,"Velocity":46,"Duration":141509,"SoundDuration":141509,"Delta":12839229},{"NoteNumber":68,"Velocity":46,"Duration":141509,"SoundDuration":141509,"Delta":12980739},{"NoteNumber":65,"Velocity":49,"Duration":141509,"SoundDuration":141509,"Delta":13122248},{"NoteNumber":61,"Velocity":43,"Duration":141509,"SoundDuration":141509,"Delta":13263757},{"NoteNumber":56,"Velocity":46,"Duration":141509,"SoundDuration":141509,"Delta":13405267},{"NoteNumber":53,"Velocity":43,"Duration":141509,"SoundDuration":141509,"Delta":13546776},{"NoteNumber":49,"Velocity":42,"Duration":142200,"SoundDuration":142200,"Delta":13688286},{"NoteNumber":44,"Velocity":38,"Duration":148786,"SoundDuration":148786,"Delta":13830486},{"NoteNumber":41,"Velocity":40,"Duration":156009,"SoundDuration":156009,"Delta":13979273},{"NoteNumber":37,"Velocity":39,"Duration":192307,"SoundDuration":192307,"Delta":14135282},{"NoteNumber":50,"Velocity":36,"Duration":1100916,"SoundDuration":1100916,"Delta":14327590},{"NoteNumber":56,"Velocity":36,"Duration":1100916,"SoundDuration":1100916,"Delta":14327590},{"NoteNumber":58,"Velocity":43,"Duration":825687,"SoundDuration":825687,"Delta":14327590},{"NoteNumber":34,"Velocity":33,"Duration":1077981,"SoundDuration":1077981,"Delta":14327590},{"NoteNumber":41,"Velocity":33,"Duration":1077981,"SoundDuration":1077981,"Delta":14327590},{"NoteNumber":46,"Velocity":39,"Duration":1077981,"SoundDuration":1077981,"Delta":14327590},{"NoteNumber":59,"Velocity":42,"Duration":275229,"SoundDuration":275229,"Delta":15153278},{"NoteNumber":58,"Velocity":39,"Duration":571428,"SoundDuration":571428,"Delta":15428507},{"NoteNumber":56,"Velocity":33,"Duration":571428,"SoundDuration":571428,"Delta":15428507},{"NoteNumber":50,"Velocity":33,"Duration":571428,"SoundDuration":571428,"Delta":15428507},{"NoteNumber":34,"Velocity":32,"Duration":571428,"SoundDuration":571428,"Delta":15428507},{"NoteNumber":46,"Velocity":38,"Duration":571428,"SoundDuration":571428,"Delta":15428507},{"NoteNumber":41,"Velocity":32,"Duration":571428,"SoundDuration":571428,"Delta":15428507},{"NoteNumber":51,"Velocity":33,"Duration":136363,"SoundDuration":136363,"Delta":15999936},{"NoteNumber":54,"Velocity":39,"Duration":136363,"SoundDuration":136363,"Delta":15999936},{"NoteNumber":39,"Velocity":30,"Duration":1090909,"SoundDuration":1090909,"Delta":15999936},{"NoteNumber":46,"Velocity":36,"Duration":1090909,"SoundDuration":1090909,"Delta":15999936},{"NoteNumber":51,"Velocity":39,"Duration":136363,"SoundDuration":136363,"Delta":16136299},{"NoteNumber":54,"Velocity":42,"Duration":136363,"SoundDuration":136363,"Delta":16272663},{"NoteNumber":58,"Velocity":42,"Duration":136363,"SoundDuration":136363,"Delta":16409026},{"NoteNumber":63,"Velocity":48,"Duration":136363,"SoundDuration":136363,"Delta":16545390},{"NoteNumber":66,"Velocity":44,"Duration":136363,"SoundDuration":136363,"Delta":16681754},{"NoteNumber":70,"Velocity":49,"Duration":136363,"SoundDuration":136363,"Delta":16818117},{"NoteNumber":66,"Velocity":50,"Duration":136363,"SoundDuration":136363,"Delta":16954481},{"NoteNumber":75,"Velocity":63,"Duration":645161,"SoundDuration":645161,"Delta":17090845},{"NoteNumber":63,"Velocity":31,"Duration":645161,"SoundDuration":645161,"Delta":17090845},{"NoteNumber":54,"Velocity":26,"Duration":645161,"SoundDuration":645161,"Delta":17090845},{"NoteNumber":58,"Velocity":26,"Duration":645161,"SoundDuration":645161,"Delta":17090845},{"NoteNumber":62,"Velocity":45,"Duration":1071680,"SoundDuration":1071680,"Delta":17736006},{"NoteNumber":68,"Velocity":45,"Duration":1071680,"SoundDuration":1071680,"Delta":17736006},{"NoteNumber":70,"Velocity":54,"Duration":810810,"SoundDuration":810810,"Delta":17736006},{"NoteNumber":53,"Velocity":33,"Duration":1049941,"SoundDuration":1049941,"Delta":17736006},{"NoteNumber":46,"Velocity":33,"Duration":1049941,"SoundDuration":1049941,"Delta":17736006},{"NoteNumber":58,"Velocity":39,"Duration":1049941,"SoundDuration":1049941,"Delta":17736006},{"NoteNumber":71,"Velocity":52,"Duration":260869,"SoundDuration":260869,"Delta":18546817},{"NoteNumber":68,"Velocity":44,"Duration":566037,"SoundDuration":566037,"Delta":18807686},{"NoteNumber":62,"Velocity":44,"Duration":566037,"SoundDuration":566037,"Delta":18807686},{"NoteNumber":70,"Velocity":52,"Duration":566037,"SoundDuration":566037,"Delta":18807686},{"NoteNumber":53,"Velocity":32,"Duration":542452,"SoundDuration":542452,"Delta":18807686},{"NoteNumber":58,"Velocity":38,"Duration":542452,"SoundDuration":542452,"Delta":18807686},{"NoteNumber":46,"Velocity":32,"Duration":542452,"SoundDuration":542452,"Delta":18807686},{"NoteNumber":63,"Velocity":57,"Duration":133928,"SoundDuration":133928,"Delta":19373724},{"NoteNumber":66,"Velocity":57,"Duration":133928,"SoundDuration":133928,"Delta":19373724},{"NoteNumber":58,"Velocity":49,"Duration":1049107,"SoundDuration":1049107,"Delta":19373724},{"NoteNumber":51,"Velocity":41,"Duration":1049107,"SoundDuration":1049107,"Delta":19373724},{"NoteNumber":63,"Velocity":49,"Duration":133928,"SoundDuration":133928,"Delta":19507652},{"NoteNumber":66,"Velocity":57,"Duration":133928,"SoundDuration":133928,"Delta":19641581},{"NoteNumber":70,"Velocity":51,"Duration":133928,"SoundDuration":133928,"Delta":19775510},{"NoteNumber":75,"Velocity":55,"Duration":133928,"SoundDuration":133928,"Delta":19909438},{"NoteNumber":78,"Velocity":59,"Duration":133928,"SoundDuration":133928,"Delta":20043367},{"NoteNumber":82,"Velocity":64,"Duration":133928,"SoundDuration":133928,"Delta":20177296},{"NoteNumber":78,"Velocity":69,"Duration":133928,"SoundDuration":133928,"Delta":20311224},{"NoteNumber":87,"Velocity":75,"Duration":416666,"SoundDuration":416666,"Delta":20445153},{"NoteNumber":58,"Velocity":45,"Duration":576241,"SoundDuration":576241,"Delta":20445153},{"NoteNumber":54,"Velocity":45,"Duration":576241,"SoundDuration":576241,"Delta":20445153},{"NoteNumber":63,"Velocity":53,"Duration":576241,"SoundDuration":576241,"Delta":20445153},{"NoteNumber":85,"Velocity":65,"Duration":159574,"SoundDuration":159574,"Delta":20861819},{"NoteNumber":84,"Velocity":71,"Duration":137614,"SoundDuration":137614,"Delta":21021394},{"NoteNumber":32,"Velocity":54,"Duration":1060679,"SoundDuration":1060679,"Delta":21021394},{"NoteNumber":44,"Velocity":64,"Duration":1060679,"SoundDuration":1060679,"Delta":21021394},{"NoteNumber":92,"Velocity":76,"Duration":133590,"SoundDuration":133590,"Delta":21159009},{"NoteNumber":90,"Velocity":72,"Duration":131579,"SoundDuration":131579,"Delta":21292599},{"NoteNumber":87,"Velocity":72,"Duration":131578,"SoundDuration":131578,"Delta":21424178},{"NoteNumber":84,"Velocity":77,"Duration":131578,"SoundDuration":131578,"Delta":21555757},{"NoteNumber":80,"Velocity":72,"Duration":131579,"SoundDuration":131579,"Delta":21687336},{"NoteNumber":78,"Velocity":72,"Duration":131578,"SoundDuration":131578,"Delta":21818915},{"NoteNumber":75,"Velocity":72,"Duration":131579,"SoundDuration":131579,"Delta":21950494},{"NoteNumber":72,"Velocity":74,"Duration":131578,"SoundDuration":131578,"Delta":22082073},{"NoteNumber":60,"Velocity":51,"Duration":515351,"SoundDuration":515351,"Delta":22082073},{"NoteNumber":56,"Velocity":51,"Duration":526315,"SoundDuration":526315,"Delta":22082073},{"NoteNumber":66,"Velocity":60,"Duration":526315,"SoundDuration":526315,"Delta":22082073},{"NoteNumber":68,"Velocity":72,"Duration":131578,"SoundDuration":131578,"Delta":22213652},{"NoteNumber":66,"Velocity":72,"Duration":131579,"SoundDuration":131579,"Delta":22345231},{"NoteNumber":63,"Velocity":72,"Duration":131578,"SoundDuration":131578,"Delta":22476810},{"NoteNumber":60,"Velocity":71,"Duration":137614,"SoundDuration":137614,"Delta":22608389},{"NoteNumber":44,"Velocity":65,"Duration":1111402,"SoundDuration":1111402,"Delta":22608389},{"NoteNumber":32,"Velocity":55,"Duration":1111402,"SoundDuration":1111402,"Delta":22608389},{"NoteNumber":56,"Velocity":67,"Duration":137614,"SoundDuration":137614,"Delta":22746004},{"NoteNumber":55,"Velocity":71,"Duration":137614,"SoundDuration":137614,"Delta":22883619},{"NoteNumber":56,"Velocity":67,"Duration":137614,"SoundDuration":137614,"Delta":23021233},{"NoteNumber":58,"Velocity":66,"Duration":137614,"SoundDuration":137614,"Delta":23158848},{"NoteNumber":56,"Velocity":59,"Duration":137614,"SoundDuration":137614,"Delta":23296463},{"NoteNumber":55,"Velocity":66,"Duration":142857,"SoundDuration":142857,"Delta":23434077},{"NoteNumber":56,"Velocity":59,"Duration":588401,"SoundDuration":588401,"Delta":23576934},{"NoteNumber":65,"Velocity":65,"Duration":445544,"SoundDuration":445544,"Delta":23719791},{"NoteNumber":44,"Velocity":51,"Duration":594059,"SoundDuration":594059,"Delta":23719791},{"NoteNumber":48,"Velocity":60,"Duration":594059,"SoundDuration":594059,"Delta":23719791},{"NoteNumber":54,"Velocity":51,"Duration":148514,"SoundDuration":148514,"Delta":24165336},{"NoteNumber":63,"Velocity":61,"Duration":148514,"SoundDuration":148514,"Delta":24165336},{"NoteNumber":61,"Velocity":65,"Duration":141509,"SoundDuration":141509,"Delta":24313851},{"NoteNumber":53,"Velocity":55,"Duration":141509,"SoundDuration":141509,"Delta":24313851},{"NoteNumber":37,"Velocity":51,"Duration":1078404,"SoundDuration":1078404,"Delta":24313851},{"NoteNumber":49,"Velocity":60,"Duration":1078404,"SoundDuration":1078404,"Delta":24313851},{"NoteNumber":44,"Velocity":51,"Duration":1078404,"SoundDuration":1078404,"Delta":24313851},{"NoteNumber":53,"Velocity":64,"Duration":135665,"SoundDuration":135665,"Delta":24455360},{"NoteNumber":56,"Velocity":64,"Duration":132743,"SoundDuration":132743,"Delta":24591026},{"NoteNumber":61,"Velocity":64,"Duration":132743,"SoundDuration":132743,"Delta":24723769},{"NoteNumber":65,"Velocity":64,"Duration":132743,"SoundDuration":132743,"Delta":24856512},{"NoteNumber":68,"Velocity":63,"Duration":133533,"SoundDuration":133533,"Delta":24989256},{"NoteNumber":73,"Velocity":61,"Duration":134330,"SoundDuration":134330,"Delta":25122789},{"NoteNumber":77,"Velocity":61,"Duration":135135,"SoundDuration":135135,"Delta":25257120},{"NoteNumber":80,"Velocity":61,"Duration":135954,"SoundDuration":135954,"Delta":25392255},{"NoteNumber":61,"Velocity":36,"Duration":592701,"SoundDuration":592701,"Delta":25392255},{"NoteNumber":56,"Velocity":36,"Duration":592701,"SoundDuration":592701,"Delta":25392255},{"NoteNumber":65,"Velocity":43,"Duration":592701,"SoundDuration":592701,"Delta":25392255},{"NoteNumber":85,"Velocity":63,"Duration":140644,"SoundDuration":140644,"Delta":25528209},{"NoteNumber":89,"Velocity":64,"Duration":147563,"SoundDuration":147563,"Delta":25668854},{"NoteNumber":92,"Velocity":65,"Duration":168539,"SoundDuration":168539,"Delta":25816417},{"NoteNumber":97,"Velocity":77,"Duration":674157,"SoundDuration":674157,"Delta":25984956},{"NoteNumber":65,"Velocity":43,"Duration":674157,"SoundDuration":674157,"Delta":25984956},{"NoteNumber":56,"Velocity":36,"Duration":674157,"SoundDuration":674157,"Delta":25984956},{"NoteNumber":61,"Velocity":36,"Duration":674157,"SoundDuration":674157,"Delta":25984956},{"NoteNumber":61,"Velocity":61,"Duration":468750,"SoundDuration":468750,"Delta":27284114},{"NoteNumber":65,"Velocity":54,"Duration":156250,"SoundDuration":156250,"Delta":27752864},{"NoteNumber":65,"Velocity":63,"Duration":851939,"SoundDuration":851939,"Delta":27909114},{"NoteNumber":39,"Velocity":45,"Duration":284738,"SoundDuration":284738,"Delta":27909114},{"NoteNumber":51,"Velocity":54,"Duration":284738,"SoundDuration":284738,"Delta":27909114},{"NoteNumber":51,"Velocity":49,"Duration":284282,"SoundDuration":284282,"Delta":28193852},{"NoteNumber":61,"Velocity":49,"Duration":282918,"SoundDuration":282918,"Delta":28478135},{"NoteNumber":55,"Velocity":41,"Duration":282918,"SoundDuration":282918,"Delta":28478135},{"NoteNumber":63,"Velocity":57,"Duration":142842,"SoundDuration":142842,"Delta":28761053},{"NoteNumber":51,"Velocity":49,"Duration":286630,"SoundDuration":286630,"Delta":28761053},{"NoteNumber":65,"Velocity":58,"Duration":143788,"SoundDuration":143788,"Delta":28903895},{"NoteNumber":67,"Velocity":59,"Duration":145208,"SoundDuration":145208,"Delta":29047683},{"NoteNumber":55,"Velocity":41,"Duration":291381,"SoundDuration":291381,"Delta":29047683},{"NoteNumber":61,"Velocity":49,"Duration":291381,"SoundDuration":291381,"Delta":29047683},{"NoteNumber":68,"Velocity":61,"Duration":146173,"SoundDuration":146173,"Delta":29192892},{"NoteNumber":70,"Velocity":63,"Duration":147148,"SoundDuration":147148,"Delta":29339065},{"NoteNumber":51,"Velocity":49,"Duration":295282,"SoundDuration":295282,"Delta":29339065},{"NoteNumber":72,"Velocity":64,"Duration":148133,"SoundDuration":148133,"Delta":29486214},{"NoteNumber":73,"Velocity":66,"Duration":711389,"SoundDuration":711389,"Delta":29634347},{"NoteNumber":39,"Velocity":45,"Duration":284738,"SoundDuration":284738,"Delta":29634347},{"NoteNumber":51,"Velocity":54,"Duration":284738,"SoundDuration":284738,"Delta":29634347},{"NoteNumber":51,"Velocity":47,"Duration":284738,"SoundDuration":284738,"Delta":29919085},{"NoteNumber":61,"Velocity":47,"Duration":283372,"SoundDuration":283372,"Delta":30203823},{"NoteNumber":55,"Velocity":39,"Duration":283372,"SoundDuration":283372,"Delta":30203823},{"NoteNumber":75,"Velocity":64,"Duration":47001,"SoundDuration":47001,"Delta":30345737},{"NoteNumber":77,"Velocity":64,"Duration":47001,"SoundDuration":47001,"Delta":30392739},{"NoteNumber":75,"Velocity":64,"Duration":47456,"SoundDuration":47456,"Delta":30439740},{"NoteNumber":74,"Velocity":64,"Duration":143315,"SoundDuration":143315,"Delta":30487196},{"NoteNumber":51,"Velocity":47,"Duration":289006,"SoundDuration":289006,"Delta":30487196},{"NoteNumber":75,"Velocity":66,"Duration":145690,"SoundDuration":145690,"Delta":30630511},{"NoteNumber":77,"Velocity":70,"Duration":147641,"SoundDuration":147641,"Delta":30776202},{"NoteNumber":61,"Velocity":47,"Duration":296779,"SoundDuration":296779,"Delta":30776202},{"NoteNumber":55,"Velocity":39,"Duration":296779,"SoundDuration":296779,"Delta":30776202},{"NoteNumber":79,"Velocity":73,"Duration":149138,"SoundDuration":149138,"Delta":30923843},{"NoteNumber":80,"Velocity":76,"Duration":151702,"SoundDuration":151702,"Delta":31072982},{"NoteNumber":51,"Velocity":47,"Duration":318369,"SoundDuration":318369,"Delta":31072982},{"NoteNumber":82,"Velocity":80,"Duration":166666,"SoundDuration":166666,"Delta":31224684},{"NoteNumber":84,"Velocity":84,"Duration":899860,"SoundDuration":899860,"Delta":31391351},{"NoteNumber":44,"Velocity":54,"Duration":319027,"SoundDuration":319027,"Delta":31391351},{"NoteNumber":32,"Velocity":45,"Duration":319027,"SoundDuration":319027,"Delta":31391351},{"NoteNumber":51,"Velocity":48,"Duration":290416,"SoundDuration":290416,"Delta":31710379},{"NoteNumber":60,"Velocity":48,"Duration":290416,"SoundDuration":290416,"Delta":32000795},{"NoteNumber":56,"Velocity":40,"Duration":290416,"SoundDuration":290416,"Delta":32000795},{"NoteNumber":82,"Velocity":64,"Duration":145208,"SoundDuration":145208,"Delta":32291211},{"NoteNumber":51,"Velocity":42,"Duration":290416,"SoundDuration":290416,"Delta":32291211},{"NoteNumber":80,"Velocity":64,"Duration":145208,"SoundDuration":145208,"Delta":32436419},{"NoteNumber":79,"Velocity":70,"Duration":154384,"SoundDuration":154384,"Delta":32581627},{"NoteNumber":56,"Velocity":35,"Duration":308768,"SoundDuration":308768,"Delta":32581627},{"NoteNumber":60,"Velocity":42,"Duration":308768,"SoundDuration":308768,"Delta":32581627},{"NoteNumber":82,"Velocity":63,"Duration":154384,"SoundDuration":154384,"Delta":32736012},{"NoteNumber":80,"Velocity":65,"Duration":147058,"SoundDuration":147058,"Delta":32890396},{"NoteNumber":51,"Velocity":42,"Duration":294117,"SoundDuration":294117,"Delta":32890396},{"NoteNumber":77,"Velocity":60,"Duration":147058,"SoundDuration":147058,"Delta":33037455},{"NoteNumber":75,"Velocity":60,"Duration":1182918,"SoundDuration":1182918,"Delta":33184514},{"NoteNumber":32,"Velocity":45,"Duration":294117,"SoundDuration":294117,"Delta":33184514},{"NoteNumber":44,"Velocity":54,"Duration":294117,"SoundDuration":294117,"Delta":33184514},{"NoteNumber":51,"Velocity":37,"Duration":296267,"SoundDuration":296267,"Delta":33478632},{"NoteNumber":60,"Velocity":37,"Duration":296267,"SoundDuration":296267,"Delta":33774899},{"NoteNumber":56,"Velocity":31,"Duration":296267,"SoundDuration":296267,"Delta":33774899},{"NoteNumber":51,"Velocity":37,"Duration":296267,"SoundDuration":296267,"Delta":34071166},{"NoteNumber":72,"Velocity":51,"Duration":439968,"SoundDuration":439968,"Delta":34367433},{"NoteNumber":75,"Velocity":60,"Duration":439968,"SoundDuration":439968,"Delta":34367433},{"NoteNumber":56,"Velocity":31,"Duration":293312,"SoundDuration":293312,"Delta":34367433},{"NoteNumber":60,"Velocity":37,"Duration":293312,"SoundDuration":293312,"Delta":34367433},{"NoteNumber":51,"Velocity":37,"Duration":307808,"SoundDuration":307808,"Delta":34660745},{"NoteNumber":73,"Velocity":48,"Duration":161151,"SoundDuration":161151,"Delta":34807402},{"NoteNumber":77,"Velocity":57,"Duration":161151,"SoundDuration":161151,"Delta":34807402},{"NoteNumber":73,"Velocity":51,"Duration":287576,"SoundDuration":287576,"Delta":34968553},{"NoteNumber":77,"Velocity":60,"Duration":287576,"SoundDuration":287576,"Delta":34968553},{"NoteNumber":51,"Velocity":54,"Duration":287576,"SoundDuration":287576,"Delta":34968553},{"NoteNumber":39,"Velocity":45,"Duration":287576,"SoundDuration":287576,"Delta":34968553},{"NoteNumber":67,"Velocity":57,"Duration":293312,"SoundDuration":293312,"Delta":35256130},{"NoteNumber":51,"Velocity":37,"Duration":293312,"SoundDuration":293312,"Delta":35256130},{"NoteNumber":55,"Velocity":31,"Duration":293312,"SoundDuration":293312,"Delta":35549443},{"NoteNumber":61,"Velocity":37,"Duration":293312,"SoundDuration":293312,"Delta":35549443},{"NoteNumber":73,"Velocity":49,"Duration":283018,"SoundDuration":283018,"Delta":35842755},{"NoteNumber":77,"Velocity":58,"Duration":283018,"SoundDuration":283018,"Delta":35842755},{"NoteNumber":51,"Velocity":37,"Duration":283018,"SoundDuration":283018,"Delta":35842755},{"NoteNumber":67,"Velocity":53,"Duration":283018,"SoundDuration":283018,"Delta":36125774},{"NoteNumber":55,"Velocity":31,"Duration":283018,"SoundDuration":283018,"Delta":36125774},{"NoteNumber":61,"Velocity":37,"Duration":283018,"SoundDuration":283018,"Delta":36125774},{"NoteNumber":77,"Velocity":58,"Duration":302358,"SoundDuration":302358,"Delta":36408793},{"NoteNumber":73,"Velocity":49,"Duration":302358,"SoundDuration":302358,"Delta":36408793},{"NoteNumber":51,"Velocity":37,"Duration":302358,"SoundDuration":302358,"Delta":36408793},{"NoteNumber":73,"Velocity":51,"Duration":287576,"SoundDuration":287576,"Delta":36711151},{"NoteNumber":77,"Velocity":60,"Duration":287576,"SoundDuration":287576,"Delta":36711151},{"NoteNumber":51,"Velocity":54,"Duration":287576,"SoundDuration":287576,"Delta":36711151},{"NoteNumber":39,"Velocity":45,"Duration":287576,"SoundDuration":287576,"Delta":36711151},{"NoteNumber":67,"Velocity":58,"Duration":293312,"SoundDuration":293312,"Delta":36998728},{"NoteNumber":51,"Velocity":37,"Duration":293312,"SoundDuration":293312,"Delta":36998728},{"NoteNumber":55,"Velocity":31,"Duration":293312,"SoundDuration":293312,"Delta":37292040},{"NoteNumber":61,"Velocity":37,"Duration":293312,"SoundDuration":293312,"Delta":37292040},{"NoteNumber":65,"Velocity":51,"Duration":293312,"SoundDuration":293312,"Delta":37585353},{"NoteNumber":73,"Velocity":60,"Duration":293312,"SoundDuration":293312,"Delta":37585353},{"NoteNumber":51,"Velocity":37,"Duration":293312,"SoundDuration":293312,"Delta":37585353},{"NoteNumber":63,"Velocity":51,"Duration":293312,"SoundDuration":293312,"Delta":37878665},{"NoteNumber":72,"Velocity":60,"Duration":293312,"SoundDuration":293312,"Delta":37878665},{"NoteNumber":55,"Velocity":37,"Duration":293312,"SoundDuration":293312,"Delta":37878665},{"NoteNumber":61,"Velocity":48,"Duration":302358,"SoundDuration":302358,"Delta":38171978},{"NoteNumber":70,"Velocity":57,"Duration":302358,"SoundDuration":302358,"Delta":38171978},{"NoteNumber":51,"Velocity":37,"Duration":302358,"SoundDuration":302358,"Delta":38171978},{"NoteNumber":60,"Velocity":54,"Duration":151179,"SoundDuration":151179,"Delta":38474336},{"NoteNumber":44,"Velocity":54,"Duration":296387,"SoundDuration":296387,"Delta":38474336},{"NoteNumber":32,"Velocity":45,"Duration":296387,"SoundDuration":296387,"Delta":38474336},{"NoteNumber":72,"Velocity":60,"Duration":726040,"SoundDuration":726040,"Delta":38625516},{"NoteNumber":51,"Velocity":37,"Duration":290416,"SoundDuration":290416,"Delta":38770724},{"NoteNumber":60,"Velocity":37,"Duration":290416,"SoundDuration":290416,"Delta":39061140},{"NoteNumber":56,"Velocity":31,"Duration":290416,"SoundDuration":290416,"Delta":39061140},{"NoteNumber":70,"Velocity":59,"Duration":141004,"SoundDuration":141004,"Delta":39351556},{"NoteNumber":51,"Velocity":37,"Duration":281561,"SoundDuration":281561,"Delta":39351556},{"NoteNumber":68,"Velocity":57,"Duration":140557,"SoundDuration":140557,"Delta":39492560},{"NoteNumber":67,"Velocity":57,"Duration":139664,"SoundDuration":139664,"Delta":39633118},{"NoteNumber":60,"Velocity":37,"Duration":280668,"SoundDuration":280668,"Delta":39633118},{"NoteNumber":56,"Velocity":31,"Duration":280668,"SoundDuration":280668,"Delta":39633118},{"NoteNumber":70,"Velocity":59,"Duration":141004,"SoundDuration":141004,"Delta":39772783},{"NoteNumber":68,"Velocity":58,"Duration":142369,"SoundDuration":142369,"Delta":39913787},{"NoteNumber":51,"Velocity":37,"Duration":286157,"SoundDuration":286157,"Delta":39913787},{"NoteNumber":65,"Velocity":54,"Duration":143788,"SoundDuration":143788,"Delta":40056156},{"NoteNumber":63,"Velocity":53,"Duration":1161664,"SoundDuration":1161664,"Delta":40199944},{"NoteNumber":44,"Velocity":54,"Duration":290416,"SoundDuration":290416,"Delta":40199944},{"NoteNumber":32,"Velocity":45,"Duration":290416,"SoundDuration":290416,"Delta":40199944},{"NoteNumber":51,"Velocity":37,"Duration":290416,"SoundDuration":290416,"Delta":40490360},{"NoteNumber":56,"Velocity":31,"Duration":290416,"SoundDuration":290416,"Delta":40780777},{"NoteNumber":60,"Velocity":37,"Duration":290416,"SoundDuration":290416,"Delta":40780777},{"NoteNumber":51,"Velocity":37,"Duration":290416,"SoundDuration":290416,"Delta":41071193},{"NoteNumber":63,"Velocity":64,"Duration":453537,"SoundDuration":453537,"Delta":41361609},{"NoteNumber":56,"Velocity":31,"Duration":302358,"SoundDuration":302358,"Delta":41361609},{"NoteNumber":60,"Velocity":37,"Duration":302358,"SoundDuration":302358,"Delta":41361609},{"NoteNumber":51,"Velocity":37,"Duration":317845,"SoundDuration":317845,"Delta":41663968},{"NoteNumber":65,"Velocity":59,"Duration":166666,"SoundDuration":166666,"Delta":41815147},{"NoteNumber":65,"Velocity":63,"Duration":851939,"SoundDuration":851939,"Delta":41981813},{"NoteNumber":51,"Velocity":54,"Duration":284737,"SoundDuration":284737,"Delta":41981813},{"NoteNumber":39,"Velocity":45,"Duration":284737,"SoundDuration":284737,"Delta":41981813},{"NoteNumber":51,"Velocity":49,"Duration":284283,"SoundDuration":284283,"Delta":42266551},{"NoteNumber":61,"Velocity":49,"Duration":282917,"SoundDuration":282917,"Delta":42550834},{"NoteNumber":55,"Velocity":41,"Duration":282917,"SoundDuration":282917,"Delta":42550834},{"NoteNumber":63,"Velocity":57,"Duration":142842,"SoundDuration":142842,"Delta":42833752},{"NoteNumber":51,"Velocity":49,"Duration":286630,"SoundDuration":286630,"Delta":42833752},{"NoteNumber":65,"Velocity":58,"Duration":143788,"SoundDuration":143788,"Delta":42976595},{"NoteNumber":67,"Velocity":59,"Duration":145208,"SoundDuration":145208,"Delta":43120383},{"NoteNumber":61,"Velocity":49,"Duration":291381,"SoundDuration":291381,"Delta":43120383},{"NoteNumber":55,"Velocity":41,"Duration":291381,"SoundDuration":291381,"Delta":43120383},{"NoteNumber":68,"Velocity":61,"Duration":146173,"SoundDuration":146173,"Delta":43265591},{"NoteNumber":70,"Velocity":63,"Duration":147148,"SoundDuration":147148,"Delta":43411765},{"NoteNumber":51,"Velocity":49,"Duration":295282,"SoundDuration":295282,"Delta":43411765},{"NoteNumber":72,"Velocity":64,"Duration":148133,"SoundDuration":148133,"Delta":43558913},{"NoteNumber":73,"Velocity":66,"Duration":711390,"SoundDuration":711390,"Delta":43707047},{"NoteNumber":39,"Velocity":45,"Duration":284737,"SoundDuration":284737,"Delta":43707047},{"NoteNumber":51,"Velocity":54,"Duration":284737,"SoundDuration":284737,"Delta":43707047},{"NoteNumber":51,"Velocity":47,"Duration":284738,"SoundDuration":284738,"Delta":43991785},{"NoteNumber":55,"Velocity":39,"Duration":283373,"SoundDuration":283373,"Delta":44276523},{"NoteNumber":61,"Velocity":47,"Duration":283373,"SoundDuration":283373,"Delta":44276523},{"NoteNumber":75,"Velocity":64,"Duration":47001,"SoundDuration":47001,"Delta":44418437},{"NoteNumber":77,"Velocity":64,"Duration":47001,"SoundDuration":47001,"Delta":44465438},{"NoteNumber":75,"Velocity":64,"Duration":47456,"SoundDuration":47456,"Delta":44512439},{"NoteNumber":74,"Velocity":64,"Duration":143315,"SoundDuration":143315,"Delta":44559896},{"NoteNumber":51,"Velocity":47,"Duration":289006,"SoundDuration":289006,"Delta":44559896},{"NoteNumber":75,"Velocity":66,"Duration":145690,"SoundDuration":145690,"Delta":44703211},{"NoteNumber":77,"Velocity":70,"Duration":147641,"SoundDuration":147641,"Delta":44848902},{"NoteNumber":61,"Velocity":47,"Duration":296779,"SoundDuration":296779,"Delta":44848902},{"NoteNumber":55,"Velocity":39,"Duration":296779,"SoundDuration":296779,"Delta":44848902},{"NoteNumber":79,"Velocity":73,"Duration":149138,"SoundDuration":149138,"Delta":44996543},{"NoteNumber":80,"Velocity":76,"Duration":151702,"SoundDuration":151702,"Delta":45145681},{"NoteNumber":51,"Velocity":47,"Duration":318369,"SoundDuration":318369,"Delta":45145681},{"NoteNumber":82,"Velocity":80,"Duration":166666,"SoundDuration":166666,"Delta":45297384},{"NoteNumber":84,"Velocity":84,"Duration":899860,"SoundDuration":899860,"Delta":45464051},{"NoteNumber":44,"Velocity":54,"Duration":319027,"SoundDuration":319027,"Delta":45464051},{"NoteNumber":32,"Velocity":45,"Duration":319027,"SoundDuration":319027,"Delta":45464051},{"NoteNumber":51,"Velocity":48,"Duration":290416,"SoundDuration":290416,"Delta":45783078},{"NoteNumber":60,"Velocity":48,"Duration":290416,"SoundDuration":290416,"Delta":46073494},{"NoteNumber":56,"Velocity":40,"Duration":290416,"SoundDuration":290416,"Delta":46073494},{"NoteNumber":82,"Velocity":64,"Duration":145208,"SoundDuration":145208,"Delta":46363911},{"NoteNumber":51,"Velocity":42,"Duration":290416,"SoundDuration":290416,"Delta":46363911},{"NoteNumber":80,"Velocity":64,"Duration":145208,"SoundDuration":145208,"Delta":46509119},{"NoteNumber":79,"Velocity":70,"Duration":154384,"SoundDuration":154384,"Delta":46654327},{"NoteNumber":56,"Velocity":35,"Duration":308768,"SoundDuration":308768,"Delta":46654327},{"NoteNumber":60,"Velocity":42,"Duration":308768,"SoundDuration":308768,"Delta":46654327},{"NoteNumber":82,"Velocity":63,"Duration":154384,"SoundDuration":154384,"Delta":46808711},{"NoteNumber":80,"Velocity":65,"Duration":154384,"SoundDuration":154384,"Delta":46963096},{"NoteNumber":51,"Velocity":42,"Duration":308769,"SoundDuration":308769,"Delta":46963096},{"NoteNumber":77,"Velocity":60,"Duration":154384,"SoundDuration":154384,"Delta":47117480},{"NoteNumber":75,"Velocity":60,"Duration":1197569,"SoundDuration":1197569,"Delta":47271865},{"NoteNumber":44,"Velocity":54,"Duration":308768,"SoundDuration":308768,"Delta":47271865},{"NoteNumber":32,"Velocity":45,"Duration":308768,"SoundDuration":308768,"Delta":47271865},{"NoteNumber":51,"Velocity":37,"Duration":296267,"SoundDuration":296267,"Delta":47580634},{"NoteNumber":56,"Velocity":31,"Duration":296267,"SoundDuration":296267,"Delta":47876901},{"NoteNumber":60,"Velocity":37,"Duration":296267,"SoundDuration":296267,"Delta":47876901},{"NoteNumber":51,"Velocity":37,"Duration":296267,"SoundDuration":296267,"Delta":48173168},{"NoteNumber":72,"Velocity":51,"Duration":439968,"SoundDuration":439968,"Delta":48469435},{"NoteNumber":75,"Velocity":60,"Duration":439968,"SoundDuration":439968,"Delta":48469435},{"NoteNumber":56,"Velocity":31,"Duration":293312,"SoundDuration":293312,"Delta":48469435},{"NoteNumber":60,"Velocity":37,"Duration":293312,"SoundDuration":293312,"Delta":48469435},{"NoteNumber":51,"Velocity":37,"Duration":307808,"SoundDuration":307808,"Delta":48762747},{"NoteNumber":73,"Velocity":48,"Duration":134293,"SoundDuration":134293,"Delta":48909404},{"NoteNumber":77,"Velocity":57,"Duration":134293,"SoundDuration":134293,"Delta":48909404},{"NoteNumber":73,"Velocity":51,"Duration":287576,"SoundDuration":287576,"Delta":49070555},{"NoteNumber":77,"Velocity":60,"Duration":287576,"SoundDuration":287576,"Delta":49070555},{"NoteNumber":51,"Velocity":54,"Duration":287576,"SoundDuration":287576,"Delta":49070555},{"NoteNumber":39,"Velocity":45,"Duration":287576,"SoundDuration":287576,"Delta":49070555},{"NoteNumber":67,"Velocity":57,"Duration":293312,"SoundDuration":293312,"Delta":49358132},{"NoteNumber":51,"Velocity":37,"Duration":293312,"SoundDuration":293312,"Delta":49358132},{"NoteNumber":55,"Velocity":31,"Duration":293312,"SoundDuration":293312,"Delta":49651445},{"NoteNumber":61,"Velocity":37,"Duration":293312,"SoundDuration":293312,"Delta":49651445},{"NoteNumber":77,"Velocity":58,"Duration":283018,"SoundDuration":283018,"Delta":49944757},{"NoteNumber":73,"Velocity":49,"Duration":283018,"SoundDuration":283018,"Delta":49944757},{"NoteNumber":51,"Velocity":37,"Duration":283018,"SoundDuration":283018,"Delta":49944757},{"NoteNumber":67,"Velocity":53,"Duration":283018,"SoundDuration":283018,"Delta":50227776},{"NoteNumber":55,"Velocity":31,"Duration":283018,"SoundDuration":283018,"Delta":50227776},{"NoteNumber":61,"Velocity":37,"Duration":283018,"SoundDuration":283018,"Delta":50227776},{"NoteNumber":73,"Velocity":49,"Duration":277161,"SoundDuration":277161,"Delta":50510795},{"NoteNumber":77,"Velocity":58,"Duration":277161,"SoundDuration":277161,"Delta":50510795},{"NoteNumber":51,"Velocity":37,"Duration":302358,"SoundDuration":302358,"Delta":50510795},{"NoteNumber":77,"Velocity":60,"Duration":287576,"SoundDuration":287576,"Delta":50813153},{"NoteNumber":73,"Velocity":51,"Duration":287576,"SoundDuration":287576,"Delta":50813153},{"NoteNumber":51,"Velocity":54,"Duration":287576,"SoundDuration":287576,"Delta":50813153},{"NoteNumber":39,"Velocity":45,"Duration":287576,"SoundDuration":287576,"Delta":50813153},{"NoteNumber":67,"Velocity":58,"Duration":293312,"SoundDuration":293312,"Delta":51100730},{"NoteNumber":51,"Velocity":37,"Duration":293312,"SoundDuration":293312,"Delta":51100730},{"NoteNumber":61,"Velocity":37,"Duration":293312,"SoundDuration":293312,"Delta":51394042},{"NoteNumber":55,"Velocity":31,"Duration":293312,"SoundDuration":293312,"Delta":51394042},{"NoteNumber":65,"Velocity":51,"Duration":146656,"SoundDuration":146656,"Delta":51687355},{"NoteNumber":73,"Velocity":60,"Duration":146656,"SoundDuration":146656,"Delta":51687355},{"NoteNumber":51,"Velocity":37,"Duration":293312,"SoundDuration":293312,"Delta":51687355},{"NoteNumber":63,"Velocity":51,"Duration":146656,"SoundDuration":146656,"Delta":51980667},{"NoteNumber":72,"Velocity":60,"Duration":146656,"SoundDuration":146656,"Delta":51980667},{"NoteNumber":55,"Velocity":37,"Duration":293312,"SoundDuration":293312,"Delta":51980667},{"NoteNumber":70,"Velocity":57,"Duration":151179,"SoundDuration":151179,"Delta":52273980},{"NoteNumber":61,"Velocity":48,"Duration":151179,"SoundDuration":151179,"Delta":52273980},{"NoteNumber":51,"Velocity":37,"Duration":302358,"SoundDuration":302358,"Delta":52273980},{"NoteNumber":60,"Velocity":48,"Duration":750454,"SoundDuration":750454,"Delta":52576338},{"NoteNumber":68,"Velocity":57,"Duration":750454,"SoundDuration":750454,"Delta":52576338},{"NoteNumber":56,"Velocity":37,"Duration":154639,"SoundDuration":154639,"Delta":52576338},{"NoteNumber":44,"Velocity":31,"Duration":154639,"SoundDuration":154639,"Delta":52576338},{"NoteNumber":51,"Velocity":37,"Duration":294117,"SoundDuration":294117,"Delta":52885617},{"NoteNumber":56,"Velocity":31,"Duration":294117,"SoundDuration":294117,"Delta":53179734},{"NoteNumber":60,"Velocity":37,"Duration":294117,"SoundDuration":294117,"Delta":53179734},{"NoteNumber":63,"Velocity":57,"Duration":147058,"SoundDuration":147058,"Delta":53326793},{"NoteNumber":68,"Velocity":52,"Duration":147058,"SoundDuration":147058,"Delta":53473852},{"NoteNumber":51,"Velocity":37,"Duration":294117,"SoundDuration":294117,"Delta":53473852},{"NoteNumber":72,"Velocity":51,"Duration":147058,"SoundDuration":147058,"Delta":53620911},{"NoteNumber":75,"Velocity":49,"Duration":147058,"SoundDuration":147058,"Delta":53767970},{"NoteNumber":60,"Velocity":37,"Duration":294117,"SoundDuration":294117,"Delta":53767970},{"NoteNumber":56,"Velocity":31,"Duration":294117,"SoundDuration":294117,"Delta":53767970},{"NoteNumber":80,"Velocity":47,"Duration":147058,"SoundDuration":147058,"Delta":53915029},{"NoteNumber":84,"Velocity":44,"Duration":147058,"SoundDuration":147058,"Delta":54062088},{"NoteNumber":51,"Velocity":37,"Duration":294117,"SoundDuration":294117,"Delta":54062088},{"NoteNumber":87,"Velocity":42,"Duration":147058,"SoundDuration":147058,"Delta":54209147},{"NoteNumber":92,"Velocity":44,"Duration":147058,"SoundDuration":147058,"Delta":54351303},{"NoteNumber":60,"Velocity":37,"Duration":588235,"SoundDuration":588235,"Delta":54356205},{"NoteNumber":56,"Velocity":31,"Duration":588235,"SoundDuration":588235,"Delta":54356205},{"NoteNumber":80,"Velocity":37,"Duration":110294,"SoundDuration":110294,"Delta":54505715},{"NoteNumber":80,"Velocity":37,"Duration":147058,"SoundDuration":147058,"Delta":54647872},{"NoteNumber":92,"Velocity":37,"Duration":110294,"SoundDuration":110294,"Delta":54802284},{"NoteNumber":92,"Velocity":44,"Duration":147058,"SoundDuration":147058,"Delta":54946892},{"NoteNumber":80,"Velocity":37,"Duration":110294,"SoundDuration":110294,"Delta":55091500},{"NoteNumber":80,"Velocity":37,"Duration":147058,"SoundDuration":147058,"Delta":55238559},{"NoteNumber":92,"Velocity":37,"Duration":110294,"SoundDuration":110294,"Delta":55392971},{"NoteNumber":92,"Velocity":43,"Duration":147058,"SoundDuration":147058,"Delta":55537578},{"NoteNumber":80,"Velocity":37,"Duration":110294,"SoundDuration":110294,"Delta":55684637},{"NoteNumber":80,"Velocity":37,"Duration":147058,"SoundDuration":147058,"Delta":55824343},{"NoteNumber":61,"Velocity":46,"Duration":1060520,"SoundDuration":1060520,"Delta":55973853},{"NoteNumber":92,"Velocity":37,"Duration":110294,"SoundDuration":110294,"Delta":55981206},{"NoteNumber":65,"Velocity":39,"Duration":986990,"SoundDuration":986990,"Delta":56047383},{"NoteNumber":68,"Velocity":52,"Duration":913461,"SoundDuration":913461,"Delta":56120912},{"NoteNumber":92,"Velocity":44,"Duration":144230,"SoundDuration":144230,"Delta":56125720},{"NoteNumber":80,"Velocity":37,"Duration":108173,"SoundDuration":108173,"Delta":56267547},{"NoteNumber":80,"Velocity":37,"Duration":144230,"SoundDuration":144230,"Delta":56406970},{"NoteNumber":92,"Velocity":37,"Duration":108173,"SoundDuration":108173,"Delta":56548796},{"NoteNumber":92,"Velocity":44,"Duration":144230,"SoundDuration":144230,"Delta":56693027},{"NoteNumber":80,"Velocity":37,"Duration":108173,"SoundDuration":108173,"Delta":56842066},{"NoteNumber":80,"Velocity":37,"Duration":144230,"SoundDuration":144230,"Delta":56981489},{"NoteNumber":70,"Velocity":52,"Duration":340007,"SoundDuration":340007,"Delta":56986296},{"NoteNumber":92,"Velocity":37,"Duration":108173,"SoundDuration":108173,"Delta":57125719},{"NoteNumber":65,"Velocity":35,"Duration":463917,"SoundDuration":463917,"Delta":57274758},{"NoteNumber":61,"Velocity":35,"Duration":463917,"SoundDuration":463917,"Delta":57274758},{"NoteNumber":68,"Velocity":42,"Duration":463917,"SoundDuration":463917,"Delta":57274758},{"NoteNumber":92,"Velocity":40,"Duration":154639,"SoundDuration":154639,"Delta":57282490},{"NoteNumber":80,"Velocity":35,"Duration":115979,"SoundDuration":115979,"Delta":57429397},{"NoteNumber":80,"Velocity":35,"Duration":154639,"SoundDuration":154639,"Delta":57578882},{"NoteNumber":92,"Velocity":35,"Duration":127313,"SoundDuration":127313,"Delta":57733521},{"NoteNumber":56,"Velocity":38,"Duration":1756992,"SoundDuration":1756992,"Delta":57738675},{"NoteNumber":61,"Velocity":32,"Duration":1671765,"SoundDuration":1671765,"Delta":57823903},{"NoteNumber":92,"Velocity":34,"Duration":145104,"SoundDuration":145104,"Delta":57903448},{"NoteNumber":65,"Velocity":46,"Duration":1586538,"SoundDuration":1586538,"Delta":57909130},{"NoteNumber":80,"Velocity":28,"Duration":108173,"SoundDuration":108173,"Delta":58053361},{"NoteNumber":80,"Velocity":28,"Duration":144230,"SoundDuration":144230,"Delta":58199995},{"NoteNumber":92,"Velocity":28,"Duration":108173,"SoundDuration":108173,"Delta":58344226},{"NoteNumber":92,"Velocity":32,"Duration":144230,"SoundDuration":144230,"Delta":58488457},{"NoteNumber":80,"Velocity":27,"Duration":108173,"SoundDuration":108173,"Delta":58632687},{"NoteNumber":80,"Velocity":27,"Duration":144230,"SoundDuration":144230,"Delta":58769707},{"NoteNumber":92,"Velocity":27,"Duration":108173,"SoundDuration":108173,"Delta":58921149},{"NoteNumber":92,"Velocity":34,"Duration":144230,"SoundDuration":144230,"Delta":59062976},{"NoteNumber":80,"Velocity":28,"Duration":108173,"SoundDuration":108173,"Delta":59207207},{"NoteNumber":80,"Velocity":27,"Duration":144230,"SoundDuration":144230,"Delta":59346630},{"NoteNumber":61,"Velocity":46,"Duration":1076504,"SoundDuration":1076504,"Delta":59495668},{"NoteNumber":92,"Velocity":27,"Duration":122282,"SoundDuration":122282,"Delta":59498385},{"NoteNumber":65,"Velocity":39,"Duration":994983,"SoundDuration":994983,"Delta":59577190},{"NoteNumber":68,"Velocity":52,"Duration":913461,"SoundDuration":913461,"Delta":59658712},{"NoteNumber":92,"Velocity":48,"Duration":144230,"SoundDuration":144230,"Delta":59663519},{"NoteNumber":80,"Velocity":37,"Duration":108173,"SoundDuration":108173,"Delta":59807750},{"NoteNumber":80,"Velocity":37,"Duration":144230,"SoundDuration":144230,"Delta":59949577},{"NoteNumber":92,"Velocity":37,"Duration":108173,"SoundDuration":108173,"Delta":60089000},{"NoteNumber":92,"Velocity":44,"Duration":144230,"SoundDuration":144230,"Delta":60242846},{"NoteNumber":80,"Velocity":37,"Duration":108173,"SoundDuration":108173,"Delta":60384673},{"NoteNumber":70,"Velocity":53,"Duration":288461,"SoundDuration":288461,"Delta":60524096},{"NoteNumber":80,"Velocity":37,"Duration":144230,"SoundDuration":144230,"Delta":60531308},{"NoteNumber":92,"Velocity":37,"Duration":108173,"SoundDuration":108173,"Delta":60675538},{"NoteNumber":65,"Velocity":36,"Duration":459183,"SoundDuration":459183,"Delta":60812558},{"NoteNumber":68,"Velocity":43,"Duration":459183,"SoundDuration":459183,"Delta":60812558},{"NoteNumber":61,"Velocity":36,"Duration":459183,"SoundDuration":459183,"Delta":60812558},{"NoteNumber":92,"Velocity":39,"Duration":153061,"SoundDuration":153061,"Delta":60815109},{"NoteNumber":80,"Velocity":35,"Duration":114795,"SoundDuration":114795,"Delta":60960517},{"NoteNumber":80,"Velocity":35,"Duration":153061,"SoundDuration":153061,"Delta":61118680},{"NoteNumber":92,"Velocity":35,"Duration":124773,"SoundDuration":124773,"Delta":61269190},{"NoteNumber":56,"Velocity":40,"Duration":1909742,"SoundDuration":1909742,"Delta":61271741},{"NoteNumber":61,"Velocity":34,"Duration":1826409,"SoundDuration":1826409,"Delta":61355075},{"NoteNumber":65,"Velocity":47,"Duration":1743075,"SoundDuration":1743075,"Delta":61438408},{"NoteNumber":92,"Velocity":32,"Duration":144230,"SoundDuration":144230,"Delta":61445619},{"NoteNumber":80,"Velocity":26,"Duration":108173,"SoundDuration":108173,"Delta":61580235},{"NoteNumber":80,"Velocity":26,"Duration":144230,"SoundDuration":144230,"Delta":61731677},{"NoteNumber":92,"Velocity":27,"Duration":108173,"SoundDuration":108173,"Delta":61878312},{"NoteNumber":92,"Velocity":35,"Duration":144230,"SoundDuration":144230,"Delta":62022542},{"NoteNumber":80,"Velocity":28,"Duration":108173,"SoundDuration":108173,"Delta":62166773},{"NoteNumber":80,"Velocity":28,"Duration":144230,"SoundDuration":144230,"Delta":62306196},{"NoteNumber":92,"Velocity":28,"Duration":108173,"SoundDuration":108173,"Delta":62448023},{"NoteNumber":92,"Velocity":36,"Duration":144230,"SoundDuration":144230,"Delta":62589850},{"NoteNumber":80,"Velocity":28,"Duration":108173,"SoundDuration":108173,"Delta":62734081},{"NoteNumber":80,"Velocity":28,"Duration":148220,"SoundDuration":148220,"Delta":62887927},{"NoteNumber":66,"Velocity":51,"Duration":1125826,"SoundDuration":1125826,"Delta":62952831},{"NoteNumber":92,"Velocity":28,"Duration":115979,"SoundDuration":115979,"Delta":63023261},{"NoteNumber":68,"Velocity":51,"Duration":1050241,"SoundDuration":1050241,"Delta":63028416},{"NoteNumber":72,"Velocity":43,"Duration":972922,"SoundDuration":972922,"Delta":63105735},{"NoteNumber":82,"Velocity":37,"Duration":92305,"SoundDuration":92305,"Delta":63176722},{"NoteNumber":75,"Velocity":63,"Duration":897173,"SoundDuration":897173,"Delta":63181484},{"NoteNumber":80,"Velocity":31,"Duration":91430,"SoundDuration":91430,"Delta":63253098},{"NoteNumber":82,"Velocity":37,"Duration":90019,"SoundDuration":90019,"Delta":63317151},{"NoteNumber":80,"Velocity":30,"Duration":90941,"SoundDuration":90941,"Delta":63391604},{"NoteNumber":82,"Velocity":37,"Duration":90320,"SoundDuration":90320,"Delta":63457083},{"NoteNumber":80,"Velocity":32,"Duration":89296,"SoundDuration":89296,"Delta":63523262},{"NoteNumber":82,"Velocity":38,"Duration":91339,"SoundDuration":91339,"Delta":63589495},{"NoteNumber":80,"Velocity":32,"Duration":88931,"SoundDuration":88931,"Delta":63665150},{"NoteNumber":82,"Velocity":39,"Duration":89132,"SoundDuration":89132,"Delta":63729745},{"NoteNumber":80,"Velocity":34,"Duration":92633,"SoundDuration":92633,"Delta":63796432},{"NoteNumber":82,"Velocity":39,"Duration":94841,"SoundDuration":94841,"Delta":63858581},{"NoteNumber":80,"Velocity":34,"Duration":96886,"SoundDuration":96886,"Delta":63939000},{"NoteNumber":82,"Velocity":40,"Duration":100724,"SoundDuration":100724,"Delta":64009754},{"NoteNumber":66,"Velocity":49,"Duration":644224,"SoundDuration":644224,"Delta":64078658},{"NoteNumber":80,"Velocity":35,"Duration":111159,"SoundDuration":111159,"Delta":64081289},{"NoteNumber":82,"Velocity":42,"Duration":117702,"SoundDuration":117702,"Delta":64157275},{"NoteNumber":68,"Velocity":49,"Duration":562854,"SoundDuration":562854,"Delta":64160027},{"NoteNumber":80,"Velocity":35,"Duration":114648,"SoundDuration":114648,"Delta":64242555},{"NoteNumber":72,"Velocity":41,"Duration":474431,"SoundDuration":474431,"Delta":64248450},{"NoteNumber":82,"Velocity":42,"Duration":103482,"SoundDuration":103482,"Delta":64330978},{"NoteNumber":75,"Velocity":61,"Duration":386009,"SoundDuration":386009,"Delta":64336873},{"NoteNumber":80,"Velocity":34,"Duration":103007,"SoundDuration":103007,"Delta":64413858},{"NoteNumber":82,"Velocity":40,"Duration":103007,"SoundDuration":103007,"Delta":64485964},{"NoteNumber":80,"Velocity":34,"Duration":103007,"SoundDuration":103007,"Delta":64563220},{"NoteNumber":82,"Velocity":39,"Duration":103355,"SoundDuration":103355,"Delta":64653352},{"NoteNumber":80,"Velocity":34,"Duration":108428,"SoundDuration":108428,"Delta":64722882},{"NoteNumber":63,"Velocity":39,"Duration":1724640,"SoundDuration":1724640,"Delta":64722882},{"NoteNumber":82,"Velocity":38,"Duration":115031,"SoundDuration":115031,"Delta":64797073},{"NoteNumber":66,"Velocity":47,"Duration":1645067,"SoundDuration":1645067,"Delta":64802455},{"NoteNumber":80,"Velocity":31,"Duration":111204,"SoundDuration":111204,"Delta":64883249},{"NoteNumber":68,"Velocity":39,"Duration":1558501,"SoundDuration":1558501,"Delta":64889020},{"NoteNumber":82,"Velocity":37,"Duration":93491,"SoundDuration":93491,"Delta":64969814},{"NoteNumber":72,"Velocity":58,"Duration":1471936,"SoundDuration":1471936,"Delta":64975585},{"NoteNumber":80,"Velocity":32,"Duration":91540,"SoundDuration":91540,"Delta":65045082},{"NoteNumber":82,"Velocity":35,"Duration":90985,"SoundDuration":90985,"Delta":65115789},{"NoteNumber":80,"Velocity":30,"Duration":89559,"SoundDuration":89559,"Delta":65184648},{"NoteNumber":82,"Velocity":35,"Duration":92364,"SoundDuration":92364,"Delta":65251208},{"NoteNumber":80,"Velocity":31,"Duration":88980,"SoundDuration":88980,"Delta":65320677},{"NoteNumber":82,"Velocity":35,"Duration":88366,"SoundDuration":88366,"Delta":65381283},{"NoteNumber":80,"Velocity":35,"Duration":89914,"SoundDuration":89914,"Delta":65453741},{"NoteNumber":82,"Velocity":35,"Duration":89294,"SoundDuration":89294,"Delta":65519161},{"NoteNumber":80,"Velocity":30,"Duration":92184,"SoundDuration":92184,"Delta":65585809},{"NoteNumber":82,"Velocity":38,"Duration":91801,"SoundDuration":91801,"Delta":65650468},{"NoteNumber":80,"Velocity":35,"Duration":92407,"SoundDuration":92407,"Delta":65725915},{"NoteNumber":82,"Velocity":39,"Duration":90665,"SoundDuration":90665,"Delta":65797743},{"NoteNumber":80,"Velocity":35,"Duration":91434,"SoundDuration":91434,"Delta":65865886},{"NoteNumber":82,"Velocity":40,"Duration":95277,"SoundDuration":95277,"Delta":65931572},{"NoteNumber":80,"Velocity":36,"Duration":97019,"SoundDuration":97019,"Delta":65998003},{"NoteNumber":82,"Velocity":43,"Duration":100000,"SoundDuration":100000,"Delta":66080022},{"NoteNumber":80,"Velocity":38,"Duration":100000,"SoundDuration":100000,"Delta":66152522},{"NoteNumber":82,"Velocity":43,"Duration":99999,"SoundDuration":99999,"Delta":66230022},{"NoteNumber":80,"Velocity":38,"Duration":99999,"SoundDuration":99999,"Delta":66305022},{"NoteNumber":82,"Velocity":43,"Duration":100000,"SoundDuration":100000,"Delta":66375022},{"NoteNumber":80,"Velocity":37,"Duration":103255,"SoundDuration":103255,"Delta":66442522},{"NoteNumber":82,"Velocity":42,"Duration":116279,"SoundDuration":116279,"Delta":66522522},{"NoteNumber":65,"Velocity":52,"Duration":1150565,"SoundDuration":1150565,"Delta":66522522},{"NoteNumber":80,"Velocity":36,"Duration":113347,"SoundDuration":113347,"Delta":66606824},{"NoteNumber":68,"Velocity":44,"Duration":1063356,"SoundDuration":1063356,"Delta":66609731},{"NoteNumber":73,"Velocity":66,"Duration":973370,"SoundDuration":973370,"Delta":66699717},{"NoteNumber":82,"Velocity":43,"Duration":90356,"SoundDuration":90356,"Delta":66706536},{"NoteNumber":80,"Velocity":38,"Duration":90903,"SoundDuration":90903,"Delta":66765360},{"NoteNumber":82,"Velocity":43,"Duration":91710,"SoundDuration":91710,"Delta":66840060},{"NoteNumber":80,"Velocity":37,"Duration":90697,"SoundDuration":90697,"Delta":66911439},{"NoteNumber":82,"Velocity":43,"Duration":90836,"SoundDuration":90836,"Delta":66979095},{"NoteNumber":80,"Velocity":37,"Duration":91323,"SoundDuration":91323,"Delta":67047469},{"NoteNumber":82,"Velocity":42,"Duration":91773,"SoundDuration":91773,"Delta":67111015},{"NoteNumber":80,"Velocity":36,"Duration":90928,"SoundDuration":90928,"Delta":67177891},{"NoteNumber":82,"Velocity":43,"Duration":93750,"SoundDuration":93750,"Delta":67243311},{"NoteNumber":80,"Velocity":38,"Duration":92179,"SoundDuration":92179,"Delta":67313631},{"NoteNumber":82,"Velocity":44,"Duration":94801,"SoundDuration":94801,"Delta":67392174},{"NoteNumber":80,"Velocity":37,"Duration":98046,"SoundDuration":98046,"Delta":67450041},{"NoteNumber":82,"Velocity":42,"Duration":96340,"SoundDuration":96340,"Delta":67528670},{"NoteNumber":80,"Velocity":37,"Duration":100205,"SoundDuration":100205,"Delta":67596165},{"NoteNumber":65,"Velocity":50,"Duration":653979,"SoundDuration":653979,"Delta":67673088},{"NoteNumber":82,"Velocity":42,"Duration":116414,"SoundDuration":116414,"Delta":67678909},{"NoteNumber":80,"Velocity":36,"Duration":115042,"SoundDuration":115042,"Delta":67754578},{"NoteNumber":68,"Velocity":42,"Duration":566668,"SoundDuration":566668,"Delta":67760399},{"NoteNumber":82,"Velocity":42,"Duration":107518,"SoundDuration":107518,"Delta":67841889},{"NoteNumber":73,"Velocity":64,"Duration":479357,"SoundDuration":479357,"Delta":67847710},{"NoteNumber":80,"Velocity":39,"Duration":106382,"SoundDuration":106382,"Delta":67936110},{"NoteNumber":82,"Velocity":42,"Duration":106382,"SoundDuration":106382,"Delta":68005259},{"NoteNumber":80,"Velocity":36,"Duration":106383,"SoundDuration":106383,"Delta":68085046},{"NoteNumber":82,"Velocity":42,"Duration":106382,"SoundDuration":106382,"Delta":68170152},{"NoteNumber":80,"Velocity":37,"Duration":107076,"SoundDuration":107076,"Delta":68252599},{"NoteNumber":61,"Velocity":46,"Duration":1655273,"SoundDuration":1655273,"Delta":68327067},{"NoteNumber":82,"Velocity":39,"Duration":108695,"SoundDuration":108695,"Delta":68335220},{"NoteNumber":65,"Velocity":46,"Duration":1573752,"SoundDuration":1573752,"Delta":68408589},{"NoteNumber":80,"Velocity":37,"Duration":101522,"SoundDuration":101522,"Delta":68414024},{"NoteNumber":82,"Velocity":37,"Duration":92098,"SoundDuration":92098,"Delta":68487419},{"NoteNumber":68,"Velocity":45,"Duration":1494921,"SoundDuration":1494921,"Delta":68487419},{"NoteNumber":80,"Velocity":31,"Duration":90958,"SoundDuration":90958,"Delta":68554518},{"NoteNumber":82,"Velocity":34,"Duration":91717,"SoundDuration":91717,"Delta":68629316},{"NoteNumber":80,"Velocity":30,"Duration":88821,"SoundDuration":88821,"Delta":68694004},{"NoteNumber":82,"Velocity":34,"Duration":89493,"SoundDuration":89493,"Delta":68760895},{"NoteNumber":80,"Velocity":34,"Duration":92164,"SoundDuration":92164,"Delta":68834034},{"NoteNumber":82,"Velocity":34,"Duration":88707,"SoundDuration":88707,"Delta":68901361},{"NoteNumber":80,"Velocity":30,"Duration":88980,"SoundDuration":88980,"Delta":68959367},{"NoteNumber":82,"Velocity":34,"Duration":88611,"SoundDuration":88611,"Delta":69032582},{"NoteNumber":80,"Velocity":34,"Duration":88870,"SoundDuration":88870,"Delta":69097223},{"NoteNumber":82,"Velocity":34,"Duration":88162,"SoundDuration":88162,"Delta":69168075},{"NoteNumber":80,"Velocity":30,"Duration":89452,"SoundDuration":89452,"Delta":69232210},{"NoteNumber":82,"Velocity":34,"Duration":89228,"SoundDuration":89228,"Delta":69298935},{"NoteNumber":80,"Velocity":30,"Duration":88267,"SoundDuration":88267,"Delta":69364041},{"NoteNumber":82,"Velocity":34,"Duration":90095,"SoundDuration":90095,"Delta":69425523},{"NoteNumber":80,"Velocity":30,"Duration":89434,"SoundDuration":89434,"Delta":69495246},{"NoteNumber":82,"Velocity":35,"Duration":91251,"SoundDuration":91251,"Delta":69564410},{"NoteNumber":80,"Velocity":30,"Duration":96199,"SoundDuration":96199,"Delta":69637143},{"NoteNumber":82,"Velocity":35,"Duration":97252,"SoundDuration":97252,"Delta":69706382},{"NoteNumber":80,"Velocity":29,"Duration":91610,"SoundDuration":91610,"Delta":69784813},{"NoteNumber":82,"Velocity":35,"Duration":90376,"SoundDuration":90376,"Delta":69851424},{"NoteNumber":80,"Velocity":29,"Duration":90090,"SoundDuration":90090,"Delta":69914774},{"NoteNumber":82,"Velocity":35,"Duration":90441,"SoundDuration":90441,"Delta":69980089},{"NoteNumber":61,"Velocity":46,"Duration":1050261,"SoundDuration":1050261,"Delta":69982341},{"NoteNumber":80,"Velocity":30,"Duration":93230,"SoundDuration":93230,"Delta":70049950},{"NoteNumber":65,"Velocity":39,"Duration":982653,"SoundDuration":982653,"Delta":70049950},{"NoteNumber":68,"Velocity":52,"Duration":913461,"SoundDuration":913461,"Delta":70119142},{"NoteNumber":92,"Velocity":44,"Duration":144230,"SoundDuration":144230,"Delta":70123949},{"NoteNumber":80,"Velocity":37,"Duration":108173,"SoundDuration":108173,"Delta":70265776},{"NoteNumber":80,"Velocity":37,"Duration":144230,"SoundDuration":144230,"Delta":70405199},{"NoteNumber":92,"Velocity":37,"Duration":108173,"SoundDuration":108173,"Delta":70547026},{"NoteNumber":92,"Velocity":44,"Duration":144230,"SoundDuration":144230,"Delta":70691257},{"NoteNumber":80,"Velocity":37,"Duration":108173,"SoundDuration":108173,"Delta":70840295},{"NoteNumber":80,"Velocity":37,"Duration":144230,"SoundDuration":144230,"Delta":70979718},{"NoteNumber":70,"Velocity":52,"Duration":340007,"SoundDuration":340007,"Delta":70984526},{"NoteNumber":92,"Velocity":37,"Duration":108173,"SoundDuration":108173,"Delta":71123949},{"NoteNumber":65,"Velocity":35,"Duration":463917,"SoundDuration":463917,"Delta":71272988},{"NoteNumber":68,"Velocity":42,"Duration":463917,"SoundDuration":463917,"Delta":71272988},{"NoteNumber":61,"Velocity":35,"Duration":463917,"SoundDuration":463917,"Delta":71272988},{"NoteNumber":92,"Velocity":40,"Duration":154639,"SoundDuration":154639,"Delta":71280720},{"NoteNumber":80,"Velocity":35,"Duration":115979,"SoundDuration":115979,"Delta":71427627},{"NoteNumber":80,"Velocity":35,"Duration":154639,"SoundDuration":154639,"Delta":71577111},{"NoteNumber":92,"Velocity":35,"Duration":127313,"SoundDuration":127313,"Delta":71731750},{"NoteNumber":56,"Velocity":38,"Duration":1756992,"SoundDuration":1756992,"Delta":71736905},{"NoteNumber":61,"Velocity":32,"Duration":1671765,"SoundDuration":1671765,"Delta":71822132},{"NoteNumber":92,"Velocity":34,"Duration":145104,"SoundDuration":145104,"Delta":71901678},{"NoteNumber":65,"Velocity":46,"Duration":1586538,"SoundDuration":1586538,"Delta":71907360},{"NoteNumber":80,"Velocity":28,"Duration":108173,"SoundDuration":108173,"Delta":72051590},{"NoteNumber":80,"Velocity":28,"Duration":144230,"SoundDuration":144230,"Delta":72198225},{"NoteNumber":92,"Velocity":28,"Duration":108173,"SoundDuration":108173,"Delta":72342456},{"NoteNumber":92,"Velocity":32,"Duration":144230,"SoundDuration":144230,"Delta":72486686},{"NoteNumber":80,"Velocity":27,"Duration":108173,"SoundDuration":108173,"Delta":72630917},{"NoteNumber":80,"Velocity":27,"Duration":144230,"SoundDuration":144230,"Delta":72767936},{"NoteNumber":92,"Velocity":27,"Duration":108173,"SoundDuration":108173,"Delta":72919379},{"NoteNumber":92,"Velocity":34,"Duration":144230,"SoundDuration":144230,"Delta":73061206},{"NoteNumber":80,"Velocity":28,"Duration":108173,"SoundDuration":108173,"Delta":73205436},{"NoteNumber":80,"Velocity":27,"Duration":144230,"SoundDuration":144230,"Delta":73344859},{"NoteNumber":61,"Velocity":46,"Duration":1076504,"SoundDuration":1076504,"Delta":73493898},{"NoteNumber":92,"Velocity":27,"Duration":122282,"SoundDuration":122282,"Delta":73496615},{"NoteNumber":65,"Velocity":39,"Duration":994983,"SoundDuration":994983,"Delta":73575420},{"NoteNumber":68,"Velocity":52,"Duration":913461,"SoundDuration":913461,"Delta":73656941},{"NoteNumber":92,"Velocity":48,"Duration":144230,"SoundDuration":144230,"Delta":73661749},{"NoteNumber":80,"Velocity":37,"Duration":108173,"SoundDuration":108173,"Delta":73805980},{"NoteNumber":80,"Velocity":37,"Duration":144230,"SoundDuration":144230,"Delta":73947807},{"NoteNumber":92,"Velocity":37,"Duration":108173,"SoundDuration":108173,"Delta":74087230},{"NoteNumber":92,"Velocity":44,"Duration":144230,"SoundDuration":144230,"Delta":74241076},{"NoteNumber":80,"Velocity":37,"Duration":108173,"SoundDuration":108173,"Delta":74382903},{"NoteNumber":70,"Velocity":53,"Duration":288461,"SoundDuration":288461,"Delta":74522326},{"NoteNumber":80,"Velocity":37,"Duration":144230,"SoundDuration":144230,"Delta":74529537},{"NoteNumber":92,"Velocity":37,"Duration":108173,"SoundDuration":108173,"Delta":74673768},{"NoteNumber":65,"Velocity":36,"Duration":459183,"SoundDuration":459183,"Delta":74810787},{"NoteNumber":68,"Velocity":43,"Duration":459183,"SoundDuration":459183,"Delta":74810787},{"NoteNumber":61,"Velocity":36,"Duration":459183,"SoundDuration":459183,"Delta":74810787},{"NoteNumber":92,"Velocity":39,"Duration":153061,"SoundDuration":153061,"Delta":74813338},{"NoteNumber":80,"Velocity":35,"Duration":114795,"SoundDuration":114795,"Delta":74958746},{"NoteNumber":80,"Velocity":35,"Duration":153061,"SoundDuration":153061,"Delta":75116910},{"NoteNumber":92,"Velocity":35,"Duration":124773,"SoundDuration":124773,"Delta":75267420},{"NoteNumber":56,"Velocity":40,"Duration":1681089,"SoundDuration":1681089,"Delta":75269971},{"NoteNumber":61,"Velocity":34,"Duration":1597756,"SoundDuration":1597756,"Delta":75353304},{"NoteNumber":65,"Velocity":47,"Duration":1514422,"SoundDuration":1514422,"Delta":75436638},{"NoteNumber":92,"Velocity":32,"Duration":144230,"SoundDuration":144230,"Delta":75443849},{"NoteNumber":80,"Velocity":26,"Duration":108173,"SoundDuration":108173,"Delta":75578465},{"NoteNumber":80,"Velocity":26,"Duration":144230,"SoundDuration":144230,"Delta":75729907},{"NoteNumber":92,"Velocity":27,"Duration":108173,"SoundDuration":108173,"Delta":75876541},{"NoteNumber":92,"Velocity":35,"Duration":144230,"SoundDuration":144230,"Delta":76020772},{"NoteNumber":80,"Velocity":28,"Duration":108173,"SoundDuration":108173,"Delta":76165003},{"NoteNumber":80,"Velocity":28,"Duration":144230,"SoundDuration":144230,"Delta":76304426},{"NoteNumber":92,"Velocity":28,"Duration":108173,"SoundDuration":108173,"Delta":76446253},{"NoteNumber":92,"Velocity":36,"Duration":144230,"SoundDuration":144230,"Delta":76588080},{"NoteNumber":80,"Velocity":28,"Duration":108173,"SoundDuration":108173,"Delta":76732311},{"NoteNumber":80,"Velocity":28,"Duration":148220,"SoundDuration":148220,"Delta":76886157},{"NoteNumber":56,"Velocity":50,"Duration":1154513,"SoundDuration":1154513,"Delta":76951061},{"NoteNumber":92,"Velocity":28,"Duration":115979,"SoundDuration":115979,"Delta":77021491},{"NoteNumber":60,"Velocity":50,"Duration":1078928,"SoundDuration":1078928,"Delta":77026645},{"NoteNumber":63,"Velocity":42,"Duration":1001609,"SoundDuration":1001609,"Delta":77103965},{"NoteNumber":66,"Velocity":58,"Duration":928431,"SoundDuration":928431,"Delta":77177142},{"NoteNumber":82,"Velocity":37,"Duration":87473,"SoundDuration":87473,"Delta":77179355},{"NoteNumber":80,"Velocity":30,"Duration":88839,"SoundDuration":88839,"Delta":77242896},{"NoteNumber":82,"Velocity":38,"Duration":87053,"SoundDuration":87053,"Delta":77304702},{"NoteNumber":80,"Velocity":32,"Duration":86457,"SoundDuration":86457,"Delta":77379044},{"NoteNumber":82,"Velocity":39,"Duration":88189,"SoundDuration":88189,"Delta":77441222},{"NoteNumber":80,"Velocity":35,"Duration":87719,"SoundDuration":87719,"Delta":77500902},{"NoteNumber":82,"Velocity":40,"Duration":86999,"SoundDuration":86999,"Delta":77577657},{"NoteNumber":80,"Velocity":37,"Duration":86059,"SoundDuration":86059,"Delta":77632329},{"NoteNumber":82,"Velocity":42,"Duration":85859,"SoundDuration":85859,"Delta":77707705},{"NoteNumber":80,"Velocity":38,"Duration":88042,"SoundDuration":88042,"Delta":77769744},{"NoteNumber":82,"Velocity":44,"Duration":87551,"SoundDuration":87551,"Delta":77829083},{"NoteNumber":80,"Velocity":38,"Duration":90634,"SoundDuration":90634,"Delta":77897069},{"NoteNumber":82,"Velocity":46,"Duration":92175,"SoundDuration":92175,"Delta":77960138},{"NoteNumber":80,"Velocity":39,"Duration":99627,"SoundDuration":99627,"Delta":78040521},{"NoteNumber":56,"Velocity":54,"Duration":605119,"SoundDuration":605119,"Delta":78105574},{"NoteNumber":82,"Velocity":47,"Duration":106382,"SoundDuration":106382,"Delta":78110893},{"NoteNumber":80,"Velocity":40,"Duration":104908,"SoundDuration":104908,"Delta":78180042},{"NoteNumber":61,"Velocity":54,"Duration":525331,"SoundDuration":525331,"Delta":78185361},{"NoteNumber":65,"Velocity":51,"Duration":445544,"SoundDuration":445544,"Delta":78265149},{"NoteNumber":82,"Velocity":47,"Duration":99009,"SoundDuration":99009,"Delta":78272574},{"NoteNumber":80,"Velocity":40,"Duration":99009,"SoundDuration":99009,"Delta":78344356},{"NoteNumber":82,"Velocity":49,"Duration":99009,"SoundDuration":99009,"Delta":78416139},{"NoteNumber":80,"Velocity":49,"Duration":99009,"SoundDuration":99009,"Delta":78485446},{"NoteNumber":82,"Velocity":50,"Duration":99009,"SoundDuration":99009,"Delta":78559703},{"NoteNumber":80,"Velocity":44,"Duration":100885,"SoundDuration":100885,"Delta":78641386},{"NoteNumber":82,"Velocity":53,"Duration":103586,"SoundDuration":103586,"Delta":78710693},{"NoteNumber":56,"Velocity":57,"Duration":1001685,"SoundDuration":1001685,"Delta":78710693},{"NoteNumber":80,"Velocity":47,"Duration":91007,"SoundDuration":91007,"Delta":78784377},{"NoteNumber":60,"Velocity":48,"Duration":922738,"SoundDuration":922738,"Delta":78789641},{"NoteNumber":63,"Velocity":65,"Duration":854235,"SoundDuration":854235,"Delta":78858143},{"NoteNumber":82,"Velocity":55,"Duration":86825,"SoundDuration":86825,"Delta":78860298},{"NoteNumber":80,"Velocity":47,"Duration":85209,"SoundDuration":85209,"Delta":78927559},{"NoteNumber":82,"Velocity":49,"Duration":84480,"SoundDuration":84480,"Delta":78987768},{"NoteNumber":80,"Velocity":44,"Duration":86306,"SoundDuration":86306,"Delta":79048467},{"NoteNumber":82,"Velocity":49,"Duration":83196,"SoundDuration":83196,"Delta":79117715},{"NoteNumber":80,"Velocity":49,"Duration":83207,"SoundDuration":83207,"Delta":79182469},{"NoteNumber":82,"Velocity":49,"Duration":83797,"SoundDuration":83797,"Delta":79244668},{"NoteNumber":80,"Velocity":44,"Duration":87075,"SoundDuration":87075,"Delta":79307413},{"NoteNumber":82,"Velocity":49,"Duration":87719,"SoundDuration":87719,"Delta":79368172},{"NoteNumber":80,"Velocity":42,"Duration":90705,"SoundDuration":90705,"Delta":79429576},{"NoteNumber":82,"Velocity":47,"Duration":91743,"SoundDuration":91743,"Delta":79501933},{"NoteNumber":80,"Velocity":39,"Duration":94884,"SoundDuration":94884,"Delta":79577621},{"NoteNumber":82,"Velocity":44,"Duration":94167,"SoundDuration":94167,"Delta":79636903},{"NoteNumber":53,"Velocity":53,"Duration":601308,"SoundDuration":601308,"Delta":79712379},{"NoteNumber":80,"Velocity":39,"Duration":96894,"SoundDuration":96894,"Delta":79714716},{"NoteNumber":59,"Velocity":53,"Duration":531648,"SoundDuration":531648,"Delta":79782040},{"NoteNumber":82,"Velocity":42,"Duration":107526,"SoundDuration":107526,"Delta":79784728},{"NoteNumber":80,"Velocity":38,"Duration":105499,"SoundDuration":105499,"Delta":79862685},{"NoteNumber":62,"Velocity":45,"Duration":451003,"SoundDuration":451003,"Delta":79862685},{"NoteNumber":82,"Velocity":42,"Duration":97958,"SoundDuration":97958,"Delta":79937954},{"NoteNumber":65,"Velocity":61,"Duration":370357,"SoundDuration":370357,"Delta":79943330},{"NoteNumber":80,"Velocity":39,"Duration":96947,"SoundDuration":96947,"Delta":80023893},{"NoteNumber":82,"Velocity":42,"Duration":101112,"SoundDuration":101112,"Delta":80096079},{"NoteNumber":80,"Velocity":39,"Duration":100825,"SoundDuration":100825,"Delta":80166579},{"NoteNumber":82,"Velocity":42,"Duration":97477,"SoundDuration":97477,"Delta":80240249},{"NoteNumber":80,"Velocity":39,"Duration":97724,"SoundDuration":97724,"Delta":80313688},{"NoteNumber":56,"Velocity":51,"Duration":1906388,"SoundDuration":1906388,"Delta":80313688},{"NoteNumber":82,"Velocity":42,"Duration":99009,"SoundDuration":99009,"Delta":80386660},{"NoteNumber":60,"Velocity":60,"Duration":1833415,"SoundDuration":1833415,"Delta":80386660},{"NoteNumber":63,"Velocity":51,"Duration":1759158,"SoundDuration":1759158,"Delta":80460918},{"NoteNumber":80,"Velocity":38,"Duration":96653,"SoundDuration":96653,"Delta":80468343},{"NoteNumber":80,"Velocity":52,"Duration":144230,"SoundDuration":144230,"Delta":80533747},{"NoteNumber":66,"Velocity":69,"Duration":1686328,"SoundDuration":1686328,"Delta":80533747},{"NoteNumber":82,"Velocity":54,"Duration":144230,"SoundDuration":144230,"Delta":80677978},{"NoteNumber":84,"Velocity":57,"Duration":142857,"SoundDuration":142857,"Delta":80822209},{"NoteNumber":85,"Velocity":59,"Duration":142857,"SoundDuration":142857,"Delta":80965066},{"NoteNumber":87,"Velocity":63,"Duration":142407,"SoundDuration":142407,"Delta":81107923},{"NoteNumber":89,"Velocity":65,"Duration":141068,"SoundDuration":141068,"Delta":81250331},{"NoteNumber":90,"Velocity":67,"Duration":139754,"SoundDuration":139754,"Delta":81391399},{"NoteNumber":92,"Velocity":70,"Duration":138464,"SoundDuration":138464,"Delta":81531153},{"NoteNumber":94,"Velocity":71,"Duration":137614,"SoundDuration":137614,"Delta":81669618},{"NoteNumber":92,"Velocity":71,"Duration":137614,"SoundDuration":137614,"Delta":81807232},{"NoteNumber":90,"Velocity":70,"Duration":137614,"SoundDuration":137614,"Delta":81944847},{"NoteNumber":89,"Velocity":69,"Duration":137614,"SoundDuration":137614,"Delta":82082461},{"NoteNumber":87,"Velocity":69,"Duration":137614,"SoundDuration":137614,"Delta":82220076},{"NoteNumber":85,"Velocity":67,"Duration":137614,"SoundDuration":137614,"Delta":82357691},{"NoteNumber":84,"Velocity":66,"Duration":137614,"SoundDuration":137614,"Delta":82495305},{"NoteNumber":82,"Velocity":66,"Duration":137614,"SoundDuration":137614,"Delta":82632920},{"NoteNumber":80,"Velocity":66,"Duration":136363,"SoundDuration":136363,"Delta":82770535},{"NoteNumber":78,"Velocity":66,"Duration":136363,"SoundDuration":136363,"Delta":82906898},{"NoteNumber":77,"Velocity":65,"Duration":136363,"SoundDuration":136363,"Delta":83043262},{"NoteNumber":75,"Velocity":64,"Duration":135544,"SoundDuration":135544,"Delta":83179625},{"NoteNumber":73,"Velocity":63,"Duration":135135,"SoundDuration":135135,"Delta":83315170},{"NoteNumber":72,"Velocity":63,"Duration":135135,"SoundDuration":135135,"Delta":83450305},{"NoteNumber":70,"Velocity":61,"Duration":134330,"SoundDuration":134330,"Delta":83585440},{"NoteNumber":68,"Velocity":60,"Duration":133928,"SoundDuration":133928,"Delta":83719771},{"NoteNumber":66,"Velocity":60,"Duration":133928,"SoundDuration":133928,"Delta":83853700},{"NoteNumber":65,"Velocity":58,"Duration":133533,"SoundDuration":133533,"Delta":83987628},{"NoteNumber":63,"Velocity":60,"Duration":132743,"SoundDuration":132743,"Delta":84121162},{"NoteNumber":61,"Velocity":63,"Duration":132743,"SoundDuration":132743,"Delta":84253905},{"NoteNumber":60,"Velocity":59,"Duration":132355,"SoundDuration":132355,"Delta":84386649},{"NoteNumber":58,"Velocity":60,"Duration":131579,"SoundDuration":131579,"Delta":84519004},{"NoteNumber":56,"Velocity":63,"Duration":131579,"SoundDuration":131579,"Delta":84650583},{"NoteNumber":54,"Velocity":64,"Duration":131197,"SoundDuration":131197,"Delta":84782162},{"NoteNumber":53,"Velocity":66,"Duration":105195,"SoundDuration":105195,"Delta":84913359},{"NoteNumber":51,"Velocity":67,"Duration":108528,"SoundDuration":108528,"Delta":85018555},{"NoteNumber":49,"Velocity":69,"Duration":112164,"SoundDuration":112164,"Delta":85127083},{"NoteNumber":48,"Velocity":70,"Duration":116050,"SoundDuration":116050,"Delta":85239247},{"NoteNumber":46,"Velocity":72,"Duration":120112,"SoundDuration":120112,"Delta":85355297},{"NoteNumber":32,"Velocity":84,"Duration":1237112,"SoundDuration":1237112,"Delta":85475410},{"NoteNumber":44,"Velocity":84,"Duration":1237112,"SoundDuration":1237112,"Delta":85475410},{"NoteNumber":68,"Velocity":46,"Duration":940594,"SoundDuration":940594,"Delta":87331080},{"NoteNumber":70,"Velocity":43,"Duration":351377,"SoundDuration":351377,"Delta":88222169},{"NoteNumber":68,"Velocity":43,"Duration":2382942,"SoundDuration":2382942,"Delta":88519199},{"NoteNumber":60,"Velocity":28,"Duration":1730768,"SoundDuration":1730768,"Delta":89171373},{"NoteNumber":54,"Velocity":31,"Duration":1730768,"SoundDuration":1730768,"Delta":89171373},{"NoteNumber":51,"Velocity":26,"Duration":1730768,"SoundDuration":1730768,"Delta":89171373},{"NoteNumber":44,"Velocity":26,"Duration":1730768,"SoundDuration":1730768,"Delta":89171373},{"NoteNumber":68,"Velocity":46,"Duration":931372,"SoundDuration":931372,"Delta":90902142},{"NoteNumber":70,"Velocity":43,"Duration":345664,"SoundDuration":345664,"Delta":91784495},{"NoteNumber":68,"Velocity":43,"Duration":2349325,"SoundDuration":2349325,"Delta":92078613},{"NoteNumber":61,"Velocity":28,"Duration":1730768,"SoundDuration":1730768,"Delta":92697169},{"NoteNumber":53,"Velocity":32,"Duration":1730768,"SoundDuration":1730768,"Delta":92697169},{"NoteNumber":44,"Velocity":27,"Duration":1730768,"SoundDuration":1730768,"Delta":92697169},{"NoteNumber":68,"Velocity":46,"Duration":931372,"SoundDuration":931372,"Delta":94427938},{"NoteNumber":70,"Velocity":40,"Duration":345138,"SoundDuration":345138,"Delta":95310292},{"NoteNumber":68,"Velocity":40,"Duration":2648334,"SoundDuration":2648334,"Delta":95604409},{"NoteNumber":62,"Velocity":35,"Duration":1276595,"SoundDuration":1276595,"Delta":96216654},{"NoteNumber":47,"Velocity":25,"Duration":1276595,"SoundDuration":1276595,"Delta":96216654},{"NoteNumber":53,"Velocity":30,"Duration":1276595,"SoundDuration":1276595,"Delta":96216654},{"NoteNumber":44,"Velocity":25,"Duration":1276595,"SoundDuration":1276595,"Delta":96216654},{"NoteNumber":63,"Velocity":38,"Duration":759493,"SoundDuration":759493,"Delta":97493250},{"NoteNumber":48,"Velocity":25,"Duration":759493,"SoundDuration":759493,"Delta":97493250},{"NoteNumber":54,"Velocity":30,"Duration":759493,"SoundDuration":759493,"Delta":97493250},{"NoteNumber":44,"Velocity":25,"Duration":759493,"SoundDuration":759493,"Delta":97493250},{"NoteNumber":60,"Velocity":34,"Duration":3368189,"SoundDuration":3368189,"Delta":98252744},{"NoteNumber":66,"Velocity":34,"Duration":3368189,"SoundDuration":3368189,"Delta":98252744},{"NoteNumber":68,"Velocity":40,"Duration":3368189,"SoundDuration":3368189,"Delta":98252744},{"NoteNumber":56,"Velocity":29,"Duration":3368189,"SoundDuration":3368189,"Delta":98252744},{"NoteNumber":51,"Velocity":24,"Duration":3368189,"SoundDuration":3368189,"Delta":98252744},{"NoteNumber":44,"Velocity":24,"Duration":3368189,"SoundDuration":3368189,"Delta":98252744},{"NoteNumber":68,"Velocity":40,"Duration":931372,"SoundDuration":931372,"Delta":102273107},{"NoteNumber":65,"Velocity":34,"Duration":931372,"SoundDuration":931372,"Delta":102273107},{"NoteNumber":56,"Velocity":27,"Duration":1151961,"SoundDuration":1151961,"Delta":102273107},{"NoteNumber":61,"Velocity":32,"Duration":1151961,"SoundDuration":1151961,"Delta":102273107},{"NoteNumber":49,"Velocity":27,"Duration":1151961,"SoundDuration":1151961,"Delta":102273107},{"NoteNumber":70,"Velocity":38,"Duration":347309,"SoundDuration":347309,"Delta":103155461},{"NoteNumber":66,"Velocity":38,"Duration":347309,"SoundDuration":347309,"Delta":103155461},{"NoteNumber":68,"Velocity":36,"Duration":687317,"SoundDuration":687317,"Delta":103449578},{"NoteNumber":65,"Velocity":30,"Duration":611702,"SoundDuration":611702,"Delta":103449578},{"NoteNumber":61,"Velocity":28,"Duration":632978,"SoundDuration":632978,"Delta":103449578},{"NoteNumber":56,"Velocity":23,"Duration":611702,"SoundDuration":611702,"Delta":103449578},{"NoteNumber":49,"Velocity":23,"Duration":611702,"SoundDuration":611702,"Delta":103449578},{"NoteNumber":61,"Velocity":31,"Duration":1715686,"SoundDuration":1715686,"Delta":104087876},{"NoteNumber":65,"Velocity":37,"Duration":1715686,"SoundDuration":1715686,"Delta":104087876},{"NoteNumber":56,"Velocity":28,"Duration":1715686,"SoundDuration":1715686,"Delta":104087876},{"NoteNumber":49,"Velocity":23,"Duration":1715686,"SoundDuration":1715686,"Delta":104087876},{"NoteNumber":68,"Velocity":40,"Duration":931372,"SoundDuration":931372,"Delta":105852583},{"NoteNumber":65,"Velocity":34,"Duration":931372,"SoundDuration":931372,"Delta":105852583},{"NoteNumber":61,"Velocity":32,"Duration":1151961,"SoundDuration":1151961,"Delta":105852583},{"NoteNumber":56,"Velocity":27,"Duration":1151961,"SoundDuration":1151961,"Delta":105852583},{"NoteNumber":49,"Velocity":27,"Duration":1151961,"SoundDuration":1151961,"Delta":105852583},{"NoteNumber":66,"Velocity":32,"Duration":346749,"SoundDuration":346749,"Delta":106734936},{"NoteNumber":70,"Velocity":38,"Duration":346749,"SoundDuration":346749,"Delta":106734936},{"NoteNumber":65,"Velocity":30,"Duration":605263,"SoundDuration":605263,"Delta":107029054},{"NoteNumber":68,"Velocity":36,"Duration":684210,"SoundDuration":684210,"Delta":107029054},{"NoteNumber":49,"Velocity":24,"Duration":605263,"SoundDuration":605263,"Delta":107029054},{"NoteNumber":61,"Velocity":29,"Duration":626315,"SoundDuration":626315,"Delta":107029054},{"NoteNumber":56,"Velocity":24,"Duration":605263,"SoundDuration":605263,"Delta":107029054},{"NoteNumber":61,"Velocity":30,"Duration":1759030,"SoundDuration":1759030,"Delta":107660633},{"NoteNumber":65,"Velocity":36,"Duration":1759030,"SoundDuration":1759030,"Delta":107660633},{"NoteNumber":56,"Velocity":29,"Duration":1759030,"SoundDuration":1759030,"Delta":107660633},{"NoteNumber":49,"Velocity":24,"Duration":1759030,"SoundDuration":1759030,"Delta":107660633},{"NoteNumber":75,"Velocity":53,"Duration":1151961,"SoundDuration":1151961,"Delta":109468683},{"NoteNumber":66,"Velocity":45,"Duration":1151961,"SoundDuration":1151961,"Delta":109468683},{"NoteNumber":60,"Velocity":43,"Duration":1151961,"SoundDuration":1151961,"Delta":109468683},{"NoteNumber":56,"Velocity":36,"Duration":1151961,"SoundDuration":1151961,"Delta":109468683},{"NoteNumber":66,"Velocity":35,"Duration":621211,"SoundDuration":621211,"Delta":110645154},{"NoteNumber":75,"Velocity":51,"Duration":404040,"SoundDuration":404040,"Delta":110645154},{"NoteNumber":60,"Velocity":42,"Duration":404040,"SoundDuration":404040,"Delta":110645154},{"NoteNumber":56,"Velocity":35,"Duration":621211,"SoundDuration":621211,"Delta":110645154},{"NoteNumber":72,"Velocity":42,"Duration":138888,"SoundDuration":138888,"Delta":111099699},{"NoteNumber":63,"Velocity":35,"Duration":138888,"SoundDuration":138888,"Delta":111099699},{"NoteNumber":66,"Velocity":35,"Duration":1715686,"SoundDuration":1715686,"Delta":111266366},{"NoteNumber":72,"Velocity":42,"Duration":1715686,"SoundDuration":1715686,"Delta":111266366},{"NoteNumber":56,"Velocity":29,"Duration":1715686,"SoundDuration":1715686,"Delta":111266366},{"NoteNumber":63,"Velocity":35,"Duration":1715686,"SoundDuration":1715686,"Delta":111266366},{"NoteNumber":65,"Velocity":40,"Duration":1151961,"SoundDuration":1151961,"Delta":113031072},{"NoteNumber":73,"Velocity":48,"Duration":1151961,"SoundDuration":1151961,"Delta":113031072},{"NoteNumber":61,"Velocity":37,"Duration":1151961,"SoundDuration":1151961,"Delta":113031072},{"NoteNumber":49,"Velocity":31,"Duration":1151961,"SoundDuration":1151961,"Delta":113031072},{"NoteNumber":65,"Velocity":35,"Duration":590414,"SoundDuration":590414,"Delta":114207543},{"NoteNumber":73,"Velocity":42,"Duration":404040,"SoundDuration":404040,"Delta":114207543},{"NoteNumber":61,"Velocity":35,"Duration":590414,"SoundDuration":590414,"Delta":114207543},{"NoteNumber":49,"Velocity":29,"Duration":590414,"SoundDuration":590414,"Delta":114207543},{"NoteNumber":68,"Velocity":38,"Duration":135869,"SoundDuration":135869,"Delta":114662089},{"NoteNumber":68,"Velocity":38,"Duration":1715686,"SoundDuration":1715686,"Delta":114825132},{"NoteNumber":65,"Velocity":32,"Duration":1715686,"SoundDuration":1715686,"Delta":114825132},{"NoteNumber":61,"Velocity":32,"Duration":1715686,"SoundDuration":1715686,"Delta":114825132},{"NoteNumber":49,"Velocity":27,"Duration":1715686,"SoundDuration":1715686,"Delta":114825132},{"NoteNumber":66,"Velocity":40,"Duration":1151961,"SoundDuration":1151961,"Delta":116589839},{"NoteNumber":70,"Velocity":48,"Duration":1151961,"SoundDuration":1151961,"Delta":116589839},{"NoteNumber":54,"Velocity":35,"Duration":1151961,"SoundDuration":1151961,"Delta":116589839},{"NoteNumber":61,"Velocity":42,"Duration":1151961,"SoundDuration":1151961,"Delta":116589839},{"NoteNumber":70,"Velocity":52,"Duration":592783,"SoundDuration":592783,"Delta":117766310},{"NoteNumber":66,"Velocity":44,"Duration":618556,"SoundDuration":618556,"Delta":117766310},{"NoteNumber":54,"Velocity":36,"Duration":618556,"SoundDuration":618556,"Delta":117766310},{"NoteNumber":61,"Velocity":43,"Duration":592783,"SoundDuration":592783,"Delta":117766310},{"NoteNumber":73,"Velocity":54,"Duration":929082,"SoundDuration":929082,"Delta":118384866},{"NoteNumber":70,"Velocity":45,"Duration":929082,"SoundDuration":929082,"Delta":118384866},{"NoteNumber":54,"Velocity":40,"Duration":1139362,"SoundDuration":1139362,"Delta":118384866},{"NoteNumber":61,"Velocity":48,"Duration":1139362,"SoundDuration":1139362,"Delta":118384866},{"NoteNumber":68,"Velocity":41,"Duration":331394,"SoundDuration":331394,"Delta":119267219},{"NoteNumber":72,"Velocity":49,"Duration":331394,"SoundDuration":331394,"Delta":119267219},{"NoteNumber":66,"Velocity":45,"Duration":612245,"SoundDuration":612245,"Delta":119547593},{"NoteNumber":70,"Velocity":54,"Duration":612245,"SoundDuration":612245,"Delta":119547593},{"NoteNumber":61,"Velocity":44,"Duration":586734,"SoundDuration":586734,"Delta":119547593},{"NoteNumber":54,"Velocity":37,"Duration":612245,"SoundDuration":612245,"Delta":119547593},{"NoteNumber":68,"Velocity":53,"Duration":929082,"SoundDuration":929082,"Delta":120159838},{"NoteNumber":65,"Velocity":45,"Duration":929082,"SoundDuration":929082,"Delta":120159838},{"NoteNumber":61,"Velocity":39,"Duration":1139362,"SoundDuration":1139362,"Delta":120159838},{"NoteNumber":49,"Velocity":33,"Duration":1139362,"SoundDuration":1139362,"Delta":120159838},{"NoteNumber":66,"Velocity":36,"Duration":331920,"SoundDuration":331920,"Delta":121042191},{"NoteNumber":70,"Velocity":43,"Duration":331920,"SoundDuration":331920,"Delta":121042191},{"NoteNumber":68,"Velocity":46,"Duration":667576,"SoundDuration":667576,"Delta":121322565},{"NoteNumber":65,"Velocity":39,"Duration":618556,"SoundDuration":618556,"Delta":121322565},{"NoteNumber":49,"Velocity":32,"Duration":592783,"SoundDuration":592783,"Delta":121322565},{"NoteNumber":61,"Velocity":38,"Duration":592783,"SoundDuration":592783,"Delta":121322565},{"NoteNumber":61,"Velocity":36,"Duration":1715686,"SoundDuration":1715686,"Delta":121941122},{"NoteNumber":65,"Velocity":43,"Duration":1715686,"SoundDuration":1715686,"Delta":121941122},{"NoteNumber":56,"Velocity":36,"Duration":1715686,"SoundDuration":1715686,"Delta":121941122},{"NoteNumber":49,"Velocity":30,"Duration":1715686,"SoundDuration":1715686,"Delta":121941122},{"NoteNumber":70,"Velocity":48,"Duration":1151961,"SoundDuration":1151961,"Delta":123705828},{"NoteNumber":66,"Velocity":40,"Duration":1151961,"SoundDuration":1151961,"Delta":123705828},{"NoteNumber":61,"Velocity":42,"Duration":1151961,"SoundDuration":1151961,"Delta":123705828},{"NoteNumber":54,"Velocity":35,"Duration":1151961,"SoundDuration":1151961,"Delta":123705828},{"NoteNumber":66,"Velocity":44,"Duration":618556,"SoundDuration":618556,"Delta":124882299},{"NoteNumber":70,"Velocity":52,"Duration":592783,"SoundDuration":592783,"Delta":124882299},{"NoteNumber":54,"Velocity":36,"Duration":592783,"SoundDuration":592783,"Delta":124882299},{"NoteNumber":61,"Velocity":43,"Duration":592783,"SoundDuration":592783,"Delta":124882299},{"NoteNumber":70,"Velocity":45,"Duration":929082,"SoundDuration":929082,"Delta":125500856},{"NoteNumber":73,"Velocity":54,"Duration":929082,"SoundDuration":929082,"Delta":125500856},{"NoteNumber":54,"Velocity":40,"Duration":1139362,"SoundDuration":1139362,"Delta":125500856},{"NoteNumber":61,"Velocity":48,"Duration":1139362,"SoundDuration":1139362,"Delta":125500856},{"NoteNumber":72,"Velocity":49,"Duration":331394,"SoundDuration":331394,"Delta":126383209},{"NoteNumber":68,"Velocity":41,"Duration":331394,"SoundDuration":331394,"Delta":126383209},{"NoteNumber":66,"Velocity":45,"Duration":612245,"SoundDuration":612245,"Delta":126663583},{"NoteNumber":70,"Velocity":54,"Duration":612245,"SoundDuration":612245,"Delta":126663583},{"NoteNumber":61,"Velocity":44,"Duration":586734,"SoundDuration":586734,"Delta":126663583},{"NoteNumber":54,"Velocity":37,"Duration":586734,"SoundDuration":586734,"Delta":126663583},{"NoteNumber":68,"Velocity":53,"Duration":912113,"SoundDuration":912113,"Delta":127275828},{"NoteNumber":65,"Velocity":45,"Duration":912113,"SoundDuration":912113,"Delta":127275828},{"NoteNumber":61,"Velocity":40,"Duration":1122393,"SoundDuration":1122393,"Delta":127275828},{"NoteNumber":49,"Velocity":34,"Duration":1122393,"SoundDuration":1122393,"Delta":127275828},{"NoteNumber":70,"Velocity":43,"Duration":331920,"SoundDuration":331920,"Delta":128141212},{"NoteNumber":66,"Velocity":36,"Duration":331920,"SoundDuration":331920,"Delta":128141212},{"NoteNumber":68,"Velocity":46,"Duration":667576,"SoundDuration":667576,"Delta":128421586},{"NoteNumber":65,"Velocity":39,"Duration":592783,"SoundDuration":592783,"Delta":128421586},{"NoteNumber":61,"Velocity":39,"Duration":613401,"SoundDuration":613401,"Delta":128421586},{"NoteNumber":49,"Velocity":33,"Duration":592783,"SoundDuration":592783,"Delta":128421586},{"NoteNumber":65,"Velocity":43,"Duration":1715686,"SoundDuration":1715686,"Delta":129040142},{"NoteNumber":61,"Velocity":36,"Duration":1715686,"SoundDuration":1715686,"Delta":129040142},{"NoteNumber":56,"Velocity":36,"Duration":1715686,"SoundDuration":1715686,"Delta":129040142},{"NoteNumber":49,"Velocity":30,"Duration":1715686,"SoundDuration":1715686,"Delta":129040142},{"NoteNumber":66,"Velocity":45,"Duration":1151961,"SoundDuration":1151961,"Delta":130804849},{"NoteNumber":75,"Velocity":54,"Duration":1151961,"SoundDuration":1151961,"Delta":130804849},{"NoteNumber":56,"Velocity":36,"Duration":1151961,"SoundDuration":1151961,"Delta":130804849},{"NoteNumber":60,"Velocity":43,"Duration":1151961,"SoundDuration":1151961,"Delta":130804849},{"NoteNumber":75,"Velocity":54,"Duration":605263,"SoundDuration":605263,"Delta":131981320},{"NoteNumber":66,"Velocity":45,"Duration":605263,"SoundDuration":605263,"Delta":131981320},{"NoteNumber":60,"Velocity":44,"Duration":605263,"SoundDuration":605263,"Delta":131981320},{"NoteNumber":56,"Velocity":37,"Duration":605263,"SoundDuration":605263,"Delta":131981320},{"NoteNumber":66,"Velocity":51,"Duration":1176470,"SoundDuration":1176470,"Delta":132612899},{"NoteNumber":78,"Velocity":60,"Duration":931372,"SoundDuration":931372,"Delta":132612899},{"NoteNumber":60,"Velocity":51,"Duration":1151961,"SoundDuration":1151961,"Delta":132612899},{"NoteNumber":56,"Velocity":43,"Duration":1151961,"SoundDuration":1151961,"Delta":132612899},{"NoteNumber":75,"Velocity":55,"Duration":346749,"SoundDuration":346749,"Delta":133495252},{"NoteNumber":66,"Velocity":46,"Duration":631578,"SoundDuration":631578,"Delta":133789370},{"NoteNumber":72,"Velocity":55,"Duration":631578,"SoundDuration":631578,"Delta":133789370},{"NoteNumber":56,"Velocity":42,"Duration":605263,"SoundDuration":605263,"Delta":133789370},{"NoteNumber":63,"Velocity":50,"Duration":631578,"SoundDuration":631578,"Delta":133789370},{"NoteNumber":65,"Velocity":44,"Duration":3098969,"SoundDuration":3098969,"Delta":134420949},{"NoteNumber":73,"Velocity":52,"Duration":1971518,"SoundDuration":1971518,"Delta":134420949},{"NoteNumber":56,"Velocity":36,"Duration":3098969,"SoundDuration":3098969,"Delta":134420949},{"NoteNumber":61,"Velocity":36,"Duration":3098969,"SoundDuration":3098969,"Delta":134420949},{"NoteNumber":49,"Velocity":30,"Duration":3098969,"SoundDuration":3098969,"Delta":134420949},{"NoteNumber":68,"Velocity":32,"Duration":1176470,"SoundDuration":1176470,"Delta":136343447},{"NoteNumber":77,"Velocity":38,"Duration":1176470,"SoundDuration":1176470,"Delta":136343447},{"NoteNumber":73,"Velocity":43,"Duration":931372,"SoundDuration":931372,"Delta":138108154},{"NoteNumber":65,"Velocity":36,"Duration":1151961,"SoundDuration":1151961,"Delta":138108154},{"NoteNumber":49,"Velocity":29,"Duration":1151961,"SoundDuration":1151961,"Delta":138108154},{"NoteNumber":61,"Velocity":35,"Duration":1176471,"SoundDuration":1176471,"Delta":138108154},{"NoteNumber":56,"Velocity":29,"Duration":1151961,"SoundDuration":1151961,"Delta":138108154},{"NoteNumber":68,"Velocity":40,"Duration":345138,"SoundDuration":345138,"Delta":138990507},{"NoteNumber":65,"Velocity":40,"Duration":612245,"SoundDuration":612245,"Delta":139284625},{"NoteNumber":61,"Velocity":34,"Duration":612245,"SoundDuration":612245,"Delta":139284625},{"NoteNumber":56,"Velocity":31,"Duration":612245,"SoundDuration":612245,"Delta":139284625},{"NoteNumber":49,"Velocity":26,"Duration":612245,"SoundDuration":612245,"Delta":139284625},{"NoteNumber":65,"Velocity":37,"Duration":882353,"SoundDuration":882353,"Delta":139896870},{"NoteNumber":60,"Velocity":37,"Duration":1151961,"SoundDuration":1151961,"Delta":139896870},{"NoteNumber":68,"Velocity":44,"Duration":931372,"SoundDuration":931372,"Delta":139896870},{"NoteNumber":44,"Velocity":30,"Duration":1151961,"SoundDuration":1151961,"Delta":139896870},{"NoteNumber":56,"Velocity":36,"Duration":1151961,"SoundDuration":1151961,"Delta":139896870},{"NoteNumber":63,"Velocity":33,"Duration":269607,"SoundDuration":269607,"Delta":140779223},{"NoteNumber":66,"Velocity":39,"Duration":348465,"SoundDuration":348465,"Delta":140779223},{"NoteNumber":63,"Velocity":37,"Duration":669837,"SoundDuration":669837,"Delta":141073341},{"NoteNumber":60,"Velocity":31,"Duration":669837,"SoundDuration":669837,"Delta":141073341},{"NoteNumber":54,"Velocity":31,"Duration":669837,"SoundDuration":669837,"Delta":141073341},{"NoteNumber":44,"Velocity":26,"Duration":669837,"SoundDuration":669837,"Delta":141073341},{"NoteNumber":68,"Velocity":26,"Duration":1151961,"SoundDuration":1151961,"Delta":141774428},{"NoteNumber":65,"Velocity":26,"Duration":1151961,"SoundDuration":1151961,"Delta":141774428},{"NoteNumber":77,"Velocity":31,"Duration":931372,"SoundDuration":931372,"Delta":141774428},{"NoteNumber":61,"Velocity":21,"Duration":1151961,"SoundDuration":1151961,"Delta":141774428},{"NoteNumber":56,"Velocity":17,"Duration":1151961,"SoundDuration":1151961,"Delta":141774428},{"NoteNumber":49,"Velocity":17,"Duration":1151961,"SoundDuration":1151961,"Delta":141774428},{"NoteNumber":73,"Velocity":28,"Duration":343137,"SoundDuration":343137,"Delta":142656781},{"NoteNumber":65,"Velocity":23,"Duration":613266,"SoundDuration":613266,"Delta":142950899},{"NoteNumber":68,"Velocity":28,"Duration":347309,"SoundDuration":347309,"Delta":142950899},{"NoteNumber":61,"Velocity":19,"Duration":613266,"SoundDuration":613266,"Delta":142950899},{"NoteNumber":56,"Velocity":16,"Duration":613266,"SoundDuration":613266,"Delta":142950899},{"NoteNumber":49,"Velocity":16,"Duration":613266,"SoundDuration":613266,"Delta":142950899},{"NoteNumber":65,"Velocity":28,"Duration":319149,"SoundDuration":319149,"Delta":143245017},{"NoteNumber":60,"Velocity":25,"Duration":1140777,"SoundDuration":1140777,"Delta":143564166},{"NoteNumber":70,"Velocity":30,"Duration":922330,"SoundDuration":922330,"Delta":143564166},{"NoteNumber":66,"Velocity":30,"Duration":1165049,"SoundDuration":1165049,"Delta":143564166},{"NoteNumber":44,"Velocity":19,"Duration":1140777,"SoundDuration":1140777,"Delta":143564166},{"NoteNumber":56,"Velocity":23,"Duration":1140777,"SoundDuration":1140777,"Delta":143564166},{"NoteNumber":51,"Velocity":19,"Duration":1140777,"SoundDuration":1140777,"Delta":143564166},{"NoteNumber":68,"Velocity":29,"Duration":339805,"SoundDuration":339805,"Delta":144437952},{"NoteNumber":60,"Velocity":24,"Duration":600540,"SoundDuration":600540,"Delta":144729215},{"NoteNumber":63,"Velocity":29,"Duration":342808,"SoundDuration":342808,"Delta":144729215},{"NoteNumber":44,"Velocity":17,"Duration":600540,"SoundDuration":600540,"Delta":144729215},{"NoteNumber":54,"Velocity":21,"Duration":600540,"SoundDuration":600540,"Delta":144729215},{"NoteNumber":65,"Velocity":29,"Duration":309278,"SoundDuration":309278,"Delta":145020477},{"NoteNumber":61,"Velocity":27,"Duration":3092782,"SoundDuration":3092782,"Delta":145329755},{"NoteNumber":49,"Velocity":21,"Duration":592783,"SoundDuration":592783,"Delta":145329755},{"NoteNumber":53,"Velocity":21,"Duration":618556,"SoundDuration":618556,"Delta":145329755},{"NoteNumber":53,"Velocity":14,"Duration":618556,"SoundDuration":618556,"Delta":145948312},{"NoteNumber":44,"Velocity":12,"Duration":592783,"SoundDuration":592783,"Delta":145948312},{"NoteNumber":49,"Velocity":15,"Duration":592783,"SoundDuration":592783,"Delta":145948312},{"NoteNumber":37,"Velocity":12,"Duration":592783,"SoundDuration":592783,"Delta":145948312},{"NoteNumber":53,"Velocity":14,"Duration":618556,"SoundDuration":618556,"Delta":146566868},{"NoteNumber":49,"Velocity":15,"Duration":592783,"SoundDuration":592783,"Delta":146566868},{"NoteNumber":44,"Velocity":12,"Duration":592783,"SoundDuration":592783,"Delta":146566868},{"NoteNumber":37,"Velocity":12,"Duration":592783,"SoundDuration":592783,"Delta":146566868},{"NoteNumber":53,"Velocity":14,"Duration":1237112,"SoundDuration":1237112,"Delta":147185425},{"NoteNumber":44,"Velocity":12,"Duration":1237112,"SoundDuration":1237112,"Delta":147185425},{"NoteNumber":37,"Velocity":12,"Duration":1237112,"SoundDuration":1237112,"Delta":147185425},{"NoteNumber":49,"Velocity":15,"Duration":1237112,"SoundDuration":1237112,"Delta":147185425},{"NoteNumber":56,"Velocity":39,"Duration":882353,"SoundDuration":882353,"Delta":149041094},{"NoteNumber":49,"Velocity":27,"Duration":294117,"SoundDuration":294117,"Delta":149041094},{"NoteNumber":37,"Velocity":22,"Duration":294117,"SoundDuration":294117,"Delta":149041094},{"NoteNumber":68,"Velocity":23,"Duration":558823,"SoundDuration":558823,"Delta":149335212},{"NoteNumber":61,"Velocity":19,"Duration":558823,"SoundDuration":558823,"Delta":149335212},{"NoteNumber":65,"Velocity":19,"Duration":558823,"SoundDuration":558823,"Delta":149335212},{"NoteNumber":58,"Velocity":36,"Duration":294117,"SoundDuration":294117,"Delta":149923447},{"NoteNumber":61,"Velocity":16,"Duration":558823,"SoundDuration":558823,"Delta":149923447},{"NoteNumber":68,"Velocity":19,"Duration":558823,"SoundDuration":558823,"Delta":149923447},{"NoteNumber":65,"Velocity":16,"Duration":558823,"SoundDuration":558823,"Delta":149923447},{"NoteNumber":56,"Velocity":37,"Duration":616698,"SoundDuration":616698,"Delta":150217565},{"NoteNumber":65,"Velocity":19,"Duration":306451,"SoundDuration":306451,"Delta":150511683},{"NoteNumber":61,"Velocity":19,"Duration":306451,"SoundDuration":306451,"Delta":150511683},{"NoteNumber":68,"Velocity":23,"Duration":306451,"SoundDuration":306451,"Delta":150511683},{"NoteNumber":53,"Velocity":34,"Duration":1789737,"SoundDuration":1789737,"Delta":150834264},{"NoteNumber":37,"Velocity":22,"Duration":294117,"SoundDuration":294117,"Delta":150834264},{"NoteNumber":49,"Velocity":27,"Duration":294117,"SoundDuration":294117,"Delta":150834264},{"NoteNumber":61,"Velocity":16,"Duration":558823,"SoundDuration":558823,"Delta":151128381},{"NoteNumber":68,"Velocity":19,"Duration":558823,"SoundDuration":558823,"Delta":151128381},{"NoteNumber":65,"Velocity":16,"Duration":558823,"SoundDuration":558823,"Delta":151128381},{"NoteNumber":61,"Velocity":16,"Duration":558823,"SoundDuration":558823,"Delta":151716617},{"NoteNumber":65,"Velocity":16,"Duration":558823,"SoundDuration":558823,"Delta":151716617},{"NoteNumber":68,"Velocity":19,"Duration":558823,"SoundDuration":558823,"Delta":151716617},{"NoteNumber":68,"Velocity":19,"Duration":303191,"SoundDuration":303191,"Delta":152304852},{"NoteNumber":65,"Velocity":16,"Duration":303191,"SoundDuration":303191,"Delta":152304852},{"NoteNumber":61,"Velocity":16,"Duration":303191,"SoundDuration":303191,"Delta":152304852},{"NoteNumber":56,"Velocity":38,"Duration":882353,"SoundDuration":882353,"Delta":152624001},{"NoteNumber":49,"Velocity":27,"Duration":294117,"SoundDuration":294117,"Delta":152624001},{"NoteNumber":37,"Velocity":22,"Duration":294117,"SoundDuration":294117,"Delta":152624001},{"NoteNumber":61,"Velocity":19,"Duration":558823,"SoundDuration":558823,"Delta":152918119},{"NoteNumber":65,"Velocity":19,"Duration":558823,"SoundDuration":558823,"Delta":152918119},{"NoteNumber":68,"Velocity":23,"Duration":558823,"SoundDuration":558823,"Delta":152918119},{"NoteNumber":58,"Velocity":36,"Duration":294117,"SoundDuration":294117,"Delta":153506355},{"NoteNumber":68,"Velocity":19,"Duration":558823,"SoundDuration":558823,"Delta":153506355},{"NoteNumber":65,"Velocity":16,"Duration":558823,"SoundDuration":558823,"Delta":153506355},{"NoteNumber":61,"Velocity":16,"Duration":558823,"SoundDuration":558823,"Delta":153506355},{"NoteNumber":56,"Velocity":39,"Duration":609907,"SoundDuration":609907,"Delta":153800472},{"NoteNumber":65,"Velocity":19,"Duration":300000,"SoundDuration":300000,"Delta":154094590},{"NoteNumber":68,"Velocity":23,"Duration":300000,"SoundDuration":300000,"Delta":154094590},{"NoteNumber":61,"Velocity":19,"Duration":300000,"SoundDuration":300000,"Delta":154094590},{"NoteNumber":53,"Velocity":37,"Duration":1783088,"SoundDuration":1783088,"Delta":154410380},{"NoteNumber":37,"Velocity":22,"Duration":294117,"SoundDuration":294117,"Delta":154410380},{"NoteNumber":49,"Velocity":27,"Duration":294117,"SoundDuration":294117,"Delta":154410380},{"NoteNumber":68,"Velocity":19,"Duration":558823,"SoundDuration":558823,"Delta":154704497},{"NoteNumber":65,"Velocity":16,"Duration":558823,"SoundDuration":558823,"Delta":154704497},{"NoteNumber":61,"Velocity":16,"Duration":558823,"SoundDuration":558823,"Delta":154704497},{"NoteNumber":65,"Velocity":16,"Duration":558823,"SoundDuration":558823,"Delta":155292733},{"NoteNumber":68,"Velocity":19,"Duration":558823,"SoundDuration":558823,"Delta":155292733},{"NoteNumber":61,"Velocity":16,"Duration":558823,"SoundDuration":558823,"Delta":155292733},{"NoteNumber":65,"Velocity":16,"Duration":296875,"SoundDuration":296875,"Delta":155880968},{"NoteNumber":61,"Velocity":16,"Duration":296875,"SoundDuration":296875,"Delta":155880968},{"NoteNumber":68,"Velocity":19,"Duration":296875,"SoundDuration":296875,"Delta":155880968},{"NoteNumber":63,"Velocity":46,"Duration":1176470,"SoundDuration":1176470,"Delta":156193468},{"NoteNumber":44,"Velocity":30,"Duration":294117,"SoundDuration":294117,"Delta":156193468},{"NoteNumber":32,"Velocity":25,"Duration":294117,"SoundDuration":294117,"Delta":156193468},{"NoteNumber":66,"Velocity":21,"Duration":558823,"SoundDuration":558823,"Delta":156487586},{"NoteNumber":68,"Velocity":25,"Duration":558823,"SoundDuration":558823,"Delta":156487586},{"NoteNumber":68,"Velocity":21,"Duration":558823,"SoundDuration":558823,"Delta":157075822},{"NoteNumber":66,"Velocity":17,"Duration":558823,"SoundDuration":558823,"Delta":157075822},{"NoteNumber":63,"Velocity":43,"Duration":452012,"SoundDuration":452012,"Delta":157369939},{"NoteNumber":66,"Velocity":19,"Duration":300000,"SoundDuration":300000,"Delta":157664057},{"NoteNumber":68,"Velocity":23,"Duration":300000,"SoundDuration":300000,"Delta":157664057},{"NoteNumber":60,"Velocity":38,"Duration":131578,"SoundDuration":131578,"Delta":157821952},{"NoteNumber":60,"Velocity":38,"Duration":1786378,"SoundDuration":1786378,"Delta":157979847},{"NoteNumber":32,"Velocity":26,"Duration":294117,"SoundDuration":294117,"Delta":157979847},{"NoteNumber":44,"Velocity":31,"Duration":294117,"SoundDuration":294117,"Delta":157979847},{"NoteNumber":68,"Velocity":26,"Duration":558823,"SoundDuration":558823,"Delta":158273964},{"NoteNumber":66,"Velocity":22,"Duration":558823,"SoundDuration":558823,"Delta":158273964},{"NoteNumber":66,"Velocity":20,"Duration":558823,"SoundDuration":558823,"Delta":158862200},{"NoteNumber":68,"Velocity":24,"Duration":558823,"SoundDuration":558823,"Delta":158862200},{"NoteNumber":68,"Velocity":27,"Duration":315789,"SoundDuration":315789,"Delta":159450435},{"NoteNumber":66,"Velocity":22,"Duration":315789,"SoundDuration":315789,"Delta":159450435},{"NoteNumber":61,"Velocity":52,"Duration":1176470,"SoundDuration":1176470,"Delta":159766225},{"NoteNumber":49,"Velocity":32,"Duration":294117,"SoundDuration":294117,"Delta":159766225},{"NoteNumber":37,"Velocity":27,"Duration":294117,"SoundDuration":294117,"Delta":159766225},{"NoteNumber":68,"Velocity":28,"Duration":558823,"SoundDuration":558823,"Delta":160060343},{"NoteNumber":65,"Velocity":23,"Duration":558823,"SoundDuration":558823,"Delta":160060343},{"NoteNumber":65,"Velocity":20,"Duration":558823,"SoundDuration":558823,"Delta":160648578},{"NoteNumber":68,"Velocity":24,"Duration":558823,"SoundDuration":558823,"Delta":160648578},{"NoteNumber":61,"Velocity":50,"Duration":452012,"SoundDuration":452012,"Delta":160942696},{"NoteNumber":65,"Velocity":23,"Duration":315789,"SoundDuration":315789,"Delta":161236814},{"NoteNumber":68,"Velocity":28,"Duration":315789,"SoundDuration":315789,"Delta":161236814},{"NoteNumber":56,"Velocity":42,"Duration":131578,"SoundDuration":131578,"Delta":161394708},{"NoteNumber":56,"Velocity":42,"Duration":1783088,"SoundDuration":1783088,"Delta":161552603},{"NoteNumber":37,"Velocity":26,"Duration":294117,"SoundDuration":294117,"Delta":161552603},{"NoteNumber":49,"Velocity":31,"Duration":294117,"SoundDuration":294117,"Delta":161552603},{"NoteNumber":68,"Velocity":27,"Duration":558823,"SoundDuration":558823,"Delta":161846721},{"NoteNumber":65,"Velocity":22,"Duration":558823,"SoundDuration":558823,"Delta":161846721},{"NoteNumber":68,"Velocity":28,"Duration":558823,"SoundDuration":558823,"Delta":162434956},{"NoteNumber":65,"Velocity":23,"Duration":558823,"SoundDuration":558823,"Delta":162434956},{"NoteNumber":65,"Velocity":23,"Duration":312500,"SoundDuration":312500,"Delta":163023192},{"NoteNumber":68,"Velocity":28,"Duration":312500,"SoundDuration":312500,"Delta":163023192},{"NoteNumber":58,"Velocity":60,"Duration":1151961,"SoundDuration":1151961,"Delta":163335692},{"NoteNumber":30,"Velocity":31,"Duration":294117,"SoundDuration":294117,"Delta":163335692},{"NoteNumber":42,"Velocity":37,"Duration":294117,"SoundDuration":294117,"Delta":163335692},{"NoteNumber":61,"Velocity":24,"Duration":558823,"SoundDuration":558823,"Delta":163629810},{"NoteNumber":70,"Velocity":29,"Duration":558823,"SoundDuration":558823,"Delta":163629810},{"NoteNumber":66,"Velocity":24,"Duration":558823,"SoundDuration":558823,"Delta":163629810},{"NoteNumber":70,"Velocity":29,"Duration":558823,"SoundDuration":558823,"Delta":164218045},{"NoteNumber":61,"Velocity":24,"Duration":558823,"SoundDuration":558823,"Delta":164218045},{"NoteNumber":66,"Velocity":24,"Duration":558823,"SoundDuration":558823,"Delta":164218045},{"NoteNumber":58,"Velocity":58,"Duration":613266,"SoundDuration":613266,"Delta":164512163},{"NoteNumber":66,"Velocity":24,"Duration":303191,"SoundDuration":303191,"Delta":164806281},{"NoteNumber":70,"Velocity":29,"Duration":303191,"SoundDuration":303191,"Delta":164806281},{"NoteNumber":61,"Velocity":24,"Duration":297872,"SoundDuration":297872,"Delta":164806281},{"NoteNumber":61,"Velocity":63,"Duration":882353,"SoundDuration":882353,"Delta":165125430},{"NoteNumber":42,"Velocity":42,"Duration":294117,"SoundDuration":294117,"Delta":165125430},{"NoteNumber":30,"Velocity":35,"Duration":294117,"SoundDuration":294117,"Delta":165125430},{"NoteNumber":66,"Velocity":30,"Duration":558823,"SoundDuration":558823,"Delta":165419547},{"NoteNumber":70,"Velocity":36,"Duration":558823,"SoundDuration":558823,"Delta":165419547},{"NoteNumber":60,"Velocity":53,"Duration":294117,"SoundDuration":294117,"Delta":166007783},{"NoteNumber":66,"Velocity":30,"Duration":558823,"SoundDuration":558823,"Delta":166007783},{"NoteNumber":70,"Velocity":36,"Duration":558823,"SoundDuration":558823,"Delta":166007783},{"NoteNumber":58,"Velocity":58,"Duration":609907,"SoundDuration":609907,"Delta":166301901},{"NoteNumber":66,"Velocity":30,"Duration":300000,"SoundDuration":300000,"Delta":166596018},{"NoteNumber":70,"Velocity":36,"Duration":300000,"SoundDuration":300000,"Delta":166596018},{"NoteNumber":56,"Velocity":61,"Duration":882353,"SoundDuration":882353,"Delta":166911808},{"NoteNumber":37,"Velocity":29,"Duration":294117,"SoundDuration":294117,"Delta":166911808},{"NoteNumber":49,"Velocity":35,"Duration":294117,"SoundDuration":294117,"Delta":166911808},{"NoteNumber":61,"Velocity":24,"Duration":558823,"SoundDuration":558823,"Delta":167205926},{"NoteNumber":68,"Velocity":29,"Duration":558823,"SoundDuration":558823,"Delta":167205926},{"NoteNumber":65,"Velocity":24,"Duration":558823,"SoundDuration":558823,"Delta":167205926},{"NoteNumber":58,"Velocity":55,"Duration":294117,"SoundDuration":294117,"Delta":167794161},{"NoteNumber":68,"Velocity":29,"Duration":558823,"SoundDuration":558823,"Delta":167794161},{"NoteNumber":61,"Velocity":24,"Duration":558823,"SoundDuration":558823,"Delta":167794161},{"NoteNumber":65,"Velocity":24,"Duration":558823,"SoundDuration":558823,"Delta":167794161},{"NoteNumber":56,"Velocity":59,"Duration":606617,"SoundDuration":606617,"Delta":168088279},{"NoteNumber":61,"Velocity":24,"Duration":296875,"SoundDuration":296875,"Delta":168382397},{"NoteNumber":65,"Velocity":24,"Duration":296875,"SoundDuration":296875,"Delta":168382397},{"NoteNumber":68,"Velocity":29,"Duration":296875,"SoundDuration":296875,"Delta":168382397},{"NoteNumber":53,"Velocity":53,"Duration":1783088,"SoundDuration":1783088,"Delta":168694897},{"NoteNumber":37,"Velocity":28,"Duration":294117,"SoundDuration":294117,"Delta":168694897},{"NoteNumber":49,"Velocity":34,"Duration":294117,"SoundDuration":294117,"Delta":168694897},{"NoteNumber":61,"Velocity":24,"Duration":558823,"SoundDuration":558823,"Delta":168989014},{"NoteNumber":68,"Velocity":29,"Duration":558823,"SoundDuration":558823,"Delta":168989014},{"NoteNumber":65,"Velocity":24,"Duration":558823,"SoundDuration":558823,"Delta":168989014},{"NoteNumber":65,"Velocity":24,"Duration":558823,"SoundDuration":558823,"Delta":169577250},{"NoteNumber":61,"Velocity":24,"Duration":558823,"SoundDuration":558823,"Delta":169577250},{"NoteNumber":68,"Velocity":29,"Duration":558823,"SoundDuration":558823,"Delta":169577250},{"NoteNumber":65,"Velocity":24,"Duration":296875,"SoundDuration":296875,"Delta":170165485},{"NoteNumber":61,"Velocity":24,"Duration":296875,"SoundDuration":296875,"Delta":170165485},{"NoteNumber":68,"Velocity":29,"Duration":296875,"SoundDuration":296875,"Delta":170165485},{"NoteNumber":58,"Velocity":60,"Duration":1151961,"SoundDuration":1151961,"Delta":170477985},{"NoteNumber":30,"Velocity":31,"Duration":294117,"SoundDuration":294117,"Delta":170477985},{"NoteNumber":42,"Velocity":37,"Duration":294117,"SoundDuration":294117,"Delta":170477985},{"NoteNumber":66,"Velocity":24,"Duration":558823,"SoundDuration":558823,"Delta":170772103},{"NoteNumber":70,"Velocity":29,"Duration":558823,"SoundDuration":558823,"Delta":170772103},{"NoteNumber":61,"Velocity":24,"Duration":558823,"SoundDuration":558823,"Delta":170772103},{"NoteNumber":61,"Velocity":24,"Duration":558823,"SoundDuration":558823,"Delta":171360339},{"NoteNumber":66,"Velocity":24,"Duration":558823,"SoundDuration":558823,"Delta":171360339},{"NoteNumber":70,"Velocity":29,"Duration":558823,"SoundDuration":558823,"Delta":171360339},{"NoteNumber":58,"Velocity":58,"Duration":613266,"SoundDuration":613266,"Delta":171654456},{"NoteNumber":61,"Velocity":24,"Duration":297872,"SoundDuration":297872,"Delta":171948574},{"NoteNumber":66,"Velocity":24,"Duration":303191,"SoundDuration":303191,"Delta":171948574},{"NoteNumber":70,"Velocity":29,"Duration":303191,"SoundDuration":303191,"Delta":171948574},{"NoteNumber":61,"Velocity":63,"Duration":882353,"SoundDuration":882353,"Delta":172267723},{"NoteNumber":42,"Velocity":43,"Duration":294117,"SoundDuration":294117,"Delta":172267723},{"NoteNumber":30,"Velocity":36,"Duration":294117,"SoundDuration":294117,"Delta":172267723},{"NoteNumber":66,"Velocity":32,"Duration":558823,"SoundDuration":558823,"Delta":172561841},{"NoteNumber":70,"Velocity":38,"Duration":558823,"SoundDuration":558823,"Delta":172561841},{"NoteNumber":60,"Velocity":53,"Duration":294117,"SoundDuration":294117,"Delta":173150076},{"NoteNumber":66,"Velocity":32,"Duration":558823,"SoundDuration":558823,"Delta":173150076},{"NoteNumber":70,"Velocity":38,"Duration":558823,"SoundDuration":558823,"Delta":173150076},{"NoteNumber":58,"Velocity":58,"Duration":609907,"SoundDuration":609907,"Delta":173444194},{"NoteNumber":66,"Velocity":32,"Duration":300000,"SoundDuration":300000,"Delta":173738312},{"NoteNumber":70,"Velocity":38,"Duration":300000,"SoundDuration":300000,"Delta":173738312},{"NoteNumber":56,"Velocity":61,"Duration":882353,"SoundDuration":882353,"Delta":174054101},{"NoteNumber":37,"Velocity":29,"Duration":294117,"SoundDuration":294117,"Delta":174054101},{"NoteNumber":49,"Velocity":35,"Duration":294117,"SoundDuration":294117,"Delta":174054101},{"NoteNumber":61,"Velocity":24,"Duration":558823,"SoundDuration":558823,"Delta":174348219},{"NoteNumber":68,"Velocity":29,"Duration":558823,"SoundDuration":558823,"Delta":174348219},{"NoteNumber":65,"Velocity":24,"Duration":558823,"SoundDuration":558823,"Delta":174348219},{"NoteNumber":58,"Velocity":55,"Duration":294117,"SoundDuration":294117,"Delta":174936455},{"NoteNumber":65,"Velocity":24,"Duration":558823,"SoundDuration":558823,"Delta":174936455},{"NoteNumber":61,"Velocity":24,"Duration":558823,"SoundDuration":558823,"Delta":174936455},{"NoteNumber":68,"Velocity":29,"Duration":558823,"SoundDuration":558823,"Delta":174936455},{"NoteNumber":56,"Velocity":59,"Duration":606617,"SoundDuration":606617,"Delta":175230572},{"NoteNumber":65,"Velocity":24,"Duration":296875,"SoundDuration":296875,"Delta":175524690},{"NoteNumber":61,"Velocity":24,"Duration":296875,"SoundDuration":296875,"Delta":175524690},{"NoteNumber":68,"Velocity":29,"Duration":296875,"SoundDuration":296875,"Delta":175524690},{"NoteNumber":53,"Velocity":53,"Duration":1783088,"SoundDuration":1783088,"Delta":175837190},{"NoteNumber":37,"Velocity":28,"Duration":294117,"SoundDuration":294117,"Delta":175837190},{"NoteNumber":49,"Velocity":34,"Duration":294117,"SoundDuration":294117,"Delta":175837190},{"NoteNumber":61,"Velocity":24,"Duration":558823,"SoundDuration":558823,"Delta":176131308},{"NoteNumber":68,"Velocity":29,"Duration":558823,"SoundDuration":558823,"Delta":176131308},{"NoteNumber":65,"Velocity":24,"Duration":558823,"SoundDuration":558823,"Delta":176131308},{"NoteNumber":68,"Velocity":29,"Duration":558823,"SoundDuration":558823,"Delta":176719543},{"NoteNumber":61,"Velocity":24,"Duration":558823,"SoundDuration":558823,"Delta":176719543},{"NoteNumber":65,"Velocity":24,"Duration":558823,"SoundDuration":558823,"Delta":176719543},{"NoteNumber":65,"Velocity":24,"Duration":296875,"SoundDuration":296875,"Delta":177307779},{"NoteNumber":68,"Velocity":29,"Duration":296875,"SoundDuration":296875,"Delta":177307779},{"NoteNumber":61,"Velocity":24,"Duration":296875,"SoundDuration":296875,"Delta":177307779},{"NoteNumber":63,"Velocity":66,"Duration":1151961,"SoundDuration":1151961,"Delta":177620279},{"NoteNumber":44,"Velocity":38,"Duration":294117,"SoundDuration":294117,"Delta":177620279},{"NoteNumber":32,"Velocity":32,"Duration":294117,"SoundDuration":294117,"Delta":177620279},{"NoteNumber":72,"Velocity":34,"Duration":558823,"SoundDuration":558823,"Delta":177914397},{"NoteNumber":66,"Velocity":28,"Duration":558823,"SoundDuration":558823,"Delta":177914397},{"NoteNumber":68,"Velocity":28,"Duration":558823,"SoundDuration":558823,"Delta":177914397},{"NoteNumber":72,"Velocity":34,"Duration":558823,"SoundDuration":558823,"Delta":178502632},{"NoteNumber":68,"Velocity":28,"Duration":558823,"SoundDuration":558823,"Delta":178502632},{"NoteNumber":66,"Velocity":28,"Duration":558823,"SoundDuration":558823,"Delta":178502632},{"NoteNumber":63,"Velocity":64,"Duration":609907,"SoundDuration":609907,"Delta":178796750},{"NoteNumber":66,"Velocity":28,"Duration":273684,"SoundDuration":273684,"Delta":179090868},{"NoteNumber":68,"Velocity":28,"Duration":286842,"SoundDuration":286842,"Delta":179090868},{"NoteNumber":72,"Velocity":34,"Duration":300000,"SoundDuration":300000,"Delta":179090868},{"NoteNumber":66,"Velocity":71,"Duration":882353,"SoundDuration":882353,"Delta":179406657},{"NoteNumber":32,"Velocity":33,"Duration":294117,"SoundDuration":294117,"Delta":179406657},{"NoteNumber":44,"Velocity":39,"Duration":294117,"SoundDuration":294117,"Delta":179406657},{"NoteNumber":72,"Velocity":35,"Duration":558823,"SoundDuration":558823,"Delta":179700775},{"NoteNumber":68,"Velocity":29,"Duration":558823,"SoundDuration":558823,"Delta":179700775},{"NoteNumber":63,"Velocity":65,"Duration":294117,"SoundDuration":294117,"Delta":180289010},{"NoteNumber":68,"Velocity":29,"Duration":558823,"SoundDuration":558823,"Delta":180289010},{"NoteNumber":72,"Velocity":35,"Duration":558823,"SoundDuration":558823,"Delta":180289010},{"NoteNumber":60,"Velocity":64,"Duration":609907,"SoundDuration":609907,"Delta":180583128},{"NoteNumber":66,"Velocity":29,"Duration":300000,"SoundDuration":300000,"Delta":180877246},{"NoteNumber":72,"Velocity":35,"Duration":300000,"SoundDuration":300000,"Delta":180877246},{"NoteNumber":68,"Velocity":29,"Duration":300000,"SoundDuration":300000,"Delta":180877246},{"NoteNumber":61,"Velocity":71,"Duration":1804297,"SoundDuration":1804297,"Delta":181193035},{"NoteNumber":37,"Velocity":36,"Duration":297029,"SoundDuration":297029,"Delta":181193035},{"NoteNumber":49,"Velocity":43,"Duration":297029,"SoundDuration":297029,"Delta":181193035},{"NoteNumber":65,"Velocity":29,"Duration":564356,"SoundDuration":564356,"Delta":181490065},{"NoteNumber":68,"Velocity":29,"Duration":564356,"SoundDuration":564356,"Delta":181490065},{"NoteNumber":73,"Velocity":35,"Duration":564356,"SoundDuration":564356,"Delta":181490065},{"NoteNumber":68,"Velocity":29,"Duration":564356,"SoundDuration":564356,"Delta":182084125},{"NoteNumber":73,"Velocity":35,"Duration":564356,"SoundDuration":564356,"Delta":182084125},{"NoteNumber":65,"Velocity":29,"Duration":564356,"SoundDuration":564356,"Delta":182084125},{"NoteNumber":73,"Velocity":35,"Duration":303191,"SoundDuration":303191,"Delta":182678184},{"NoteNumber":65,"Velocity":29,"Duration":297872,"SoundDuration":297872,"Delta":182678184},{"NoteNumber":68,"Velocity":29,"Duration":303191,"SoundDuration":303191,"Delta":182678184},{"NoteNumber":65,"Velocity":61,"Duration":1199999,"SoundDuration":1199999,"Delta":182997333},{"NoteNumber":49,"Velocity":38,"Duration":300000,"SoundDuration":300000,"Delta":182997333},{"NoteNumber":37,"Velocity":32,"Duration":300000,"SoundDuration":300000,"Delta":182997333},{"NoteNumber":73,"Velocity":24,"Duration":569999,"SoundDuration":569999,"Delta":183297333},{"NoteNumber":77,"Velocity":29,"Duration":569999,"SoundDuration":569999,"Delta":183297333},{"NoteNumber":68,"Velocity":24,"Duration":569999,"SoundDuration":569999,"Delta":183297333},{"NoteNumber":77,"Velocity":29,"Duration":569999,"SoundDuration":569999,"Delta":183897333},{"NoteNumber":73,"Velocity":24,"Duration":569999,"SoundDuration":569999,"Delta":183897333},{"NoteNumber":68,"Velocity":24,"Duration":569999,"SoundDuration":569999,"Delta":183897333},{"NoteNumber":68,"Velocity":24,"Duration":300000,"SoundDuration":300000,"Delta":184497333},{"NoteNumber":77,"Velocity":29,"Duration":300000,"SoundDuration":300000,"Delta":184497333},{"NoteNumber":73,"Velocity":24,"Duration":300000,"SoundDuration":300000,"Delta":184497333},{"NoteNumber":61,"Velocity":71,"Duration":882353,"SoundDuration":882353,"Delta":184813123},{"NoteNumber":37,"Velocity":36,"Duration":294117,"SoundDuration":294117,"Delta":184813123},{"NoteNumber":49,"Velocity":43,"Duration":294117,"SoundDuration":294117,"Delta":184813123},{"NoteNumber":68,"Velocity":35,"Duration":558823,"SoundDuration":558823,"Delta":185107240},{"NoteNumber":65,"Velocity":29,"Duration":558823,"SoundDuration":558823,"Delta":185107240},{"NoteNumber":56,"Velocity":65,"Duration":294117,"SoundDuration":294117,"Delta":185695476},{"NoteNumber":61,"Velocity":29,"Duration":558823,"SoundDuration":558823,"Delta":185695476},{"NoteNumber":65,"Velocity":29,"Duration":558823,"SoundDuration":558823,"Delta":185695476},{"NoteNumber":68,"Velocity":35,"Duration":558823,"SoundDuration":558823,"Delta":185695476},{"NoteNumber":53,"Velocity":60,"Duration":613266,"SoundDuration":613266,"Delta":185989594},{"NoteNumber":68,"Velocity":35,"Duration":303191,"SoundDuration":303191,"Delta":186283711},{"NoteNumber":61,"Velocity":29,"Duration":303191,"SoundDuration":303191,"Delta":186283711},{"NoteNumber":65,"Velocity":29,"Duration":303191,"SoundDuration":303191,"Delta":186283711},{"NoteNumber":56,"Velocity":66,"Duration":900000,"SoundDuration":900000,"Delta":186602860},{"NoteNumber":44,"Velocity":38,"Duration":300000,"SoundDuration":300000,"Delta":186602860},{"NoteNumber":32,"Velocity":32,"Duration":300000,"SoundDuration":300000,"Delta":186602860},{"NoteNumber":68,"Velocity":29,"Duration":569999,"SoundDuration":569999,"Delta":186902860},{"NoteNumber":60,"Velocity":24,"Duration":569999,"SoundDuration":569999,"Delta":186902860},{"NoteNumber":65,"Velocity":24,"Duration":569999,"SoundDuration":569999,"Delta":186902860},{"NoteNumber":54,"Velocity":58,"Duration":299999,"SoundDuration":299999,"Delta":187502860},{"NoteNumber":60,"Velocity":24,"Duration":569999,"SoundDuration":569999,"Delta":187502860},{"NoteNumber":63,"Velocity":24,"Duration":569999,"SoundDuration":569999,"Delta":187502860},{"NoteNumber":68,"Velocity":29,"Duration":569999,"SoundDuration":569999,"Delta":187502860},{"NoteNumber":51,"Velocity":54,"Duration":619149,"SoundDuration":619149,"Delta":187802860},{"NoteNumber":66,"Velocity":29,"Duration":303191,"SoundDuration":303191,"Delta":188102860},{"NoteNumber":60,"Velocity":24,"Duration":303191,"SoundDuration":303191,"Delta":188102860},{"NoteNumber":56,"Velocity":29,"Duration":319149,"SoundDuration":319149,"Delta":188102860},{"NoteNumber":49,"Velocity":53,"Duration":3191489,"SoundDuration":3191489,"Delta":188422009},{"NoteNumber":37,"Velocity":32,"Duration":319148,"SoundDuration":319148,"Delta":188422009},{"NoteNumber":65,"Velocity":28,"Duration":606383,"SoundDuration":606383,"Delta":188741158},{"NoteNumber":61,"Velocity":23,"Duration":606383,"SoundDuration":606383,"Delta":188741158},{"NoteNumber":56,"Velocity":28,"Duration":638298,"SoundDuration":638298,"Delta":188741158},{"NoteNumber":56,"Velocity":28,"Duration":638297,"SoundDuration":638297,"Delta":189379456},{"NoteNumber":61,"Velocity":23,"Duration":606383,"SoundDuration":606383,"Delta":189379456},{"NoteNumber":65,"Velocity":28,"Duration":606383,"SoundDuration":606383,"Delta":189379456},{"NoteNumber":65,"Velocity":28,"Duration":303191,"SoundDuration":303191,"Delta":190017754},{"NoteNumber":56,"Velocity":28,"Duration":319149,"SoundDuration":319149,"Delta":190017754},{"NoteNumber":61,"Velocity":23,"Duration":303191,"SoundDuration":303191,"Delta":190017754},{"NoteNumber":37,"Velocity":34,"Duration":1276595,"SoundDuration":1276595,"Delta":190336903},{"NoteNumber":65,"Velocity":64,"Duration":579242,"SoundDuration":579242,"Delta":191613499},{"NoteNumber":61,"Velocity":37,"Duration":72674,"SoundDuration":72674,"Delta":192120067},{"NoteNumber":65,"Velocity":75,"Duration":864055,"SoundDuration":864055,"Delta":192192742},{"NoteNumber":46,"Velocity":39,"Duration":288018,"SoundDuration":288018,"Delta":192192742},{"NoteNumber":34,"Velocity":33,"Duration":288018,"SoundDuration":288018,"Delta":192192742},{"NoteNumber":53,"Velocity":32,"Duration":288018,"SoundDuration":288018,"Delta":192480760},{"NoteNumber":58,"Velocity":32,"Duration":288018,"SoundDuration":288018,"Delta":192768779},{"NoteNumber":66,"Velocity":64,"Duration":288018,"SoundDuration":288018,"Delta":193056797},{"NoteNumber":61,"Velocity":32,"Duration":288018,"SoundDuration":288018,"Delta":193056797},{"NoteNumber":65,"Velocity":64,"Duration":597967,"SoundDuration":597967,"Delta":193344816},{"NoteNumber":58,"Velocity":32,"Duration":298983,"SoundDuration":298983,"Delta":193344816},{"NoteNumber":53,"Velocity":32,"Duration":298983,"SoundDuration":298983,"Delta":193643799},{"NoteNumber":61,"Velocity":75,"Duration":275532,"SoundDuration":275532,"Delta":193942783},{"NoteNumber":73,"Velocity":75,"Duration":551065,"SoundDuration":551065,"Delta":193942783},{"NoteNumber":46,"Velocity":31,"Duration":275532,"SoundDuration":275532,"Delta":193942783},{"NoteNumber":58,"Velocity":37,"Duration":275532,"SoundDuration":275532,"Delta":193942783},{"NoteNumber":65,"Velocity":53,"Duration":275532,"SoundDuration":275532,"Delta":194218315},{"NoteNumber":72,"Velocity":72,"Duration":551065,"SoundDuration":551065,"Delta":194493848},{"NoteNumber":63,"Velocity":72,"Duration":275532,"SoundDuration":275532,"Delta":194493848},{"NoteNumber":48,"Velocity":29,"Duration":275532,"SoundDuration":275532,"Delta":194493848},{"NoteNumber":57,"Velocity":35,"Duration":275532,"SoundDuration":275532,"Delta":194493848},{"NoteNumber":65,"Velocity":53,"Duration":275532,"SoundDuration":275532,"Delta":194769381},{"NoteNumber":61,"Velocity":72,"Duration":286423,"SoundDuration":286423,"Delta":195044914},{"NoteNumber":70,"Velocity":72,"Duration":572846,"SoundDuration":572846,"Delta":195044914},{"NoteNumber":49,"Velocity":31,"Duration":286423,"SoundDuration":286423,"Delta":195044914},{"NoteNumber":58,"Velocity":37,"Duration":286423,"SoundDuration":286423,"Delta":195044914},{"NoteNumber":65,"Velocity":54,"Duration":286423,"SoundDuration":286423,"Delta":195331337},{"NoteNumber":63,"Velocity":57,"Duration":71605,"SoundDuration":71605,"Delta":195546155},{"NoteNumber":70,"Velocity":74,"Duration":842854,"SoundDuration":842854,"Delta":195617761},{"NoteNumber":41,"Velocity":34,"Duration":280951,"SoundDuration":280951,"Delta":195617761},{"NoteNumber":53,"Velocity":40,"Duration":280951,"SoundDuration":280951,"Delta":195617761},{"NoteNumber":53,"Velocity":32,"Duration":280951,"SoundDuration":280951,"Delta":195898712},{"NoteNumber":57,"Velocity":32,"Duration":280951,"SoundDuration":280951,"Delta":196179664},{"NoteNumber":69,"Velocity":60,"Duration":136487,"SoundDuration":136487,"Delta":196460615},{"NoteNumber":63,"Velocity":32,"Duration":272975,"SoundDuration":272975,"Delta":196460615},{"NoteNumber":69,"Velocity":64,"Duration":272975,"SoundDuration":272975,"Delta":196733591},{"NoteNumber":57,"Velocity":32,"Duration":272975,"SoundDuration":272975,"Delta":196733591},{"NoteNumber":72,"Velocity":57,"Duration":272975,"SoundDuration":272975,"Delta":197006566},{"NoteNumber":53,"Velocity":32,"Duration":272975,"SoundDuration":272975,"Delta":197006566},{"NoteNumber":63,"Velocity":31,"Duration":68243,"SoundDuration":68243,"Delta":197211298},{"NoteNumber":65,"Velocity":70,"Duration":1163861,"SoundDuration":1163861,"Delta":197279542},{"NoteNumber":29,"Velocity":33,"Duration":283660,"SoundDuration":283660,"Delta":197279542},{"NoteNumber":41,"Velocity":39,"Duration":283660,"SoundDuration":283660,"Delta":197279542},{"NoteNumber":53,"Velocity":32,"Duration":283660,"SoundDuration":283660,"Delta":197563203},{"NoteNumber":57,"Velocity":32,"Duration":298270,"SoundDuration":298270,"Delta":197846864},{"NoteNumber":63,"Velocity":32,"Duration":298270,"SoundDuration":298270,"Delta":198145134},{"NoteNumber":65,"Velocity":64,"Duration":567321,"SoundDuration":567321,"Delta":198443404},{"NoteNumber":57,"Velocity":32,"Duration":283660,"SoundDuration":283660,"Delta":198443404},{"NoteNumber":53,"Velocity":32,"Duration":283660,"SoundDuration":283660,"Delta":198727065},{"NoteNumber":61,"Velocity":32,"Duration":70915,"SoundDuration":70915,"Delta":198939810},{"NoteNumber":65,"Velocity":75,"Duration":850983,"SoundDuration":850983,"Delta":199010726},{"NoteNumber":34,"Velocity":33,"Duration":283660,"SoundDuration":283660,"Delta":199010726},{"NoteNumber":46,"Velocity":39,"Duration":283660,"SoundDuration":283660,"Delta":199010726},{"NoteNumber":53,"Velocity":32,"Duration":283660,"SoundDuration":283660,"Delta":199294387},{"NoteNumber":58,"Velocity":32,"Duration":283661,"SoundDuration":283661,"Delta":199578048},{"NoteNumber":66,"Velocity":64,"Duration":283660,"SoundDuration":283660,"Delta":199861709},{"NoteNumber":61,"Velocity":32,"Duration":283660,"SoundDuration":283660,"Delta":199861709},{"NoteNumber":65,"Velocity":64,"Duration":584567,"SoundDuration":584567,"Delta":200145370},{"NoteNumber":58,"Velocity":32,"Duration":292283,"SoundDuration":292283,"Delta":200145370},{"NoteNumber":53,"Velocity":32,"Duration":292283,"SoundDuration":292283,"Delta":200437653},{"NoteNumber":61,"Velocity":75,"Duration":275532,"SoundDuration":275532,"Delta":200729937},{"NoteNumber":73,"Velocity":75,"Duration":551065,"SoundDuration":551065,"Delta":200729937},{"NoteNumber":58,"Velocity":37,"Duration":275532,"SoundDuration":275532,"Delta":200729937},{"NoteNumber":46,"Velocity":31,"Duration":275532,"SoundDuration":275532,"Delta":200729937},{"NoteNumber":65,"Velocity":52,"Duration":275532,"SoundDuration":275532,"Delta":201005470},{"NoteNumber":63,"Velocity":72,"Duration":275532,"SoundDuration":275532,"Delta":201281003},{"NoteNumber":72,"Velocity":72,"Duration":551065,"SoundDuration":551065,"Delta":201281003},{"NoteNumber":57,"Velocity":35,"Duration":275532,"SoundDuration":275532,"Delta":201281003},{"NoteNumber":48,"Velocity":29,"Duration":275532,"SoundDuration":275532,"Delta":201281003},{"NoteNumber":65,"Velocity":52,"Duration":275532,"SoundDuration":275532,"Delta":201556535},{"NoteNumber":61,"Velocity":72,"Duration":286423,"SoundDuration":286423,"Delta":201832068},{"NoteNumber":70,"Velocity":72,"Duration":572846,"SoundDuration":572846,"Delta":201832068},{"NoteNumber":58,"Velocity":37,"Duration":286423,"SoundDuration":286423,"Delta":201832068},{"NoteNumber":49,"Velocity":37,"Duration":286423,"SoundDuration":286423,"Delta":201832068},{"NoteNumber":65,"Velocity":53,"Duration":286423,"SoundDuration":286423,"Delta":202118492},{"NoteNumber":63,"Velocity":60,"Duration":71605,"SoundDuration":71605,"Delta":202333309},{"NoteNumber":70,"Velocity":74,"Duration":842854,"SoundDuration":842854,"Delta":202404915},{"NoteNumber":41,"Velocity":34,"Duration":280951,"SoundDuration":280951,"Delta":202404915},{"NoteNumber":53,"Velocity":40,"Duration":280951,"SoundDuration":280951,"Delta":202404915},{"NoteNumber":53,"Velocity":32,"Duration":280951,"SoundDuration":280951,"Delta":202685867},{"NoteNumber":57,"Velocity":32,"Duration":280951,"SoundDuration":280951,"Delta":202966818},{"NoteNumber":69,"Velocity":60,"Duration":136487,"SoundDuration":136487,"Delta":203247770},{"NoteNumber":63,"Velocity":32,"Duration":272975,"SoundDuration":272975,"Delta":203247770},{"NoteNumber":69,"Velocity":64,"Duration":272975,"SoundDuration":272975,"Delta":203520745},{"NoteNumber":57,"Velocity":32,"Duration":272975,"SoundDuration":272975,"Delta":203520745},{"NoteNumber":72,"Velocity":57,"Duration":272975,"SoundDuration":272975,"Delta":203793721},{"NoteNumber":53,"Velocity":32,"Duration":272975,"SoundDuration":272975,"Delta":203793721},{"NoteNumber":63,"Velocity":39,"Duration":68243,"SoundDuration":68243,"Delta":203998452},{"NoteNumber":65,"Velocity":70,"Duration":1163861,"SoundDuration":1163861,"Delta":204066696},{"NoteNumber":41,"Velocity":33,"Duration":283660,"SoundDuration":283660,"Delta":204066696},{"NoteNumber":53,"Velocity":39,"Duration":283660,"SoundDuration":283660,"Delta":204066696},{"NoteNumber":53,"Velocity":32,"Duration":283660,"SoundDuration":283660,"Delta":204350357},{"NoteNumber":57,"Velocity":32,"Duration":298270,"SoundDuration":298270,"Delta":204634018},{"NoteNumber":63,"Velocity":32,"Duration":298270,"SoundDuration":298270,"Delta":204932288},{"NoteNumber":65,"Velocity":73,"Duration":567321,"SoundDuration":567321,"Delta":205230558},{"NoteNumber":57,"Velocity":32,"Duration":283660,"SoundDuration":283660,"Delta":205230558},{"NoteNumber":53,"Velocity":32,"Duration":283660,"SoundDuration":283660,"Delta":205514219},{"NoteNumber":61,"Velocity":35,"Duration":70915,"SoundDuration":70915,"Delta":205726965},{"NoteNumber":65,"Velocity":80,"Duration":850983,"SoundDuration":850983,"Delta":205797880},{"NoteNumber":46,"Velocity":52,"Duration":283660,"SoundDuration":283660,"Delta":205797880},{"NoteNumber":34,"Velocity":44,"Duration":283660,"SoundDuration":283660,"Delta":205797880},{"NoteNumber":53,"Velocity":38,"Duration":283660,"SoundDuration":283660,"Delta":206081541},{"NoteNumber":58,"Velocity":38,"Duration":283661,"SoundDuration":283661,"Delta":206365202},{"NoteNumber":66,"Velocity":67,"Duration":283660,"SoundDuration":283660,"Delta":206648863},{"NoteNumber":61,"Velocity":38,"Duration":283660,"SoundDuration":283660,"Delta":206648863},{"NoteNumber":65,"Velocity":67,"Duration":584567,"SoundDuration":584567,"Delta":206932524},{"NoteNumber":58,"Velocity":38,"Duration":292283,"SoundDuration":292283,"Delta":206932524},{"NoteNumber":53,"Velocity":38,"Duration":292283,"SoundDuration":292283,"Delta":207224808},{"NoteNumber":77,"Velocity":82,"Duration":551065,"SoundDuration":551065,"Delta":207517092},{"NoteNumber":65,"Velocity":56,"Duration":551065,"SoundDuration":551065,"Delta":207517092},{"NoteNumber":37,"Velocity":39,"Duration":551065,"SoundDuration":551065,"Delta":207517092},{"NoteNumber":49,"Velocity":46,"Duration":551065,"SoundDuration":551065,"Delta":207517092},{"NoteNumber":70,"Velocity":57,"Duration":275532,"SoundDuration":275532,"Delta":207792624},{"NoteNumber":73,"Velocity":57,"Duration":275532,"SoundDuration":275532,"Delta":207792624},{"NoteNumber":75,"Velocity":80,"Duration":551065,"SoundDuration":551065,"Delta":208068157},{"NoteNumber":63,"Velocity":49,"Duration":551065,"SoundDuration":551065,"Delta":208068157},{"NoteNumber":48,"Velocity":35,"Duration":551065,"SoundDuration":551065,"Delta":208068157},{"NoteNumber":36,"Velocity":29,"Duration":551065,"SoundDuration":551065,"Delta":208068157},{"NoteNumber":72,"Velocity":57,"Duration":275532,"SoundDuration":275532,"Delta":208343690},{"NoteNumber":69,"Velocity":57,"Duration":275532,"SoundDuration":275532,"Delta":208343690},{"NoteNumber":73,"Velocity":77,"Duration":572846,"SoundDuration":572846,"Delta":208619223},{"NoteNumber":61,"Velocity":48,"Duration":572846,"SoundDuration":572846,"Delta":208619223},{"NoteNumber":46,"Velocity":37,"Duration":572846,"SoundDuration":572846,"Delta":208619223},{"NoteNumber":34,"Velocity":31,"Duration":572846,"SoundDuration":572846,"Delta":208619223},{"NoteNumber":70,"Velocity":57,"Duration":143211,"SoundDuration":143211,"Delta":208905646},{"NoteNumber":65,"Velocity":57,"Duration":143211,"SoundDuration":143211,"Delta":208905646},{"NoteNumber":63,"Velocity":59,"Duration":994194,"SoundDuration":994194,"Delta":209048858},{"NoteNumber":66,"Velocity":50,"Duration":922588,"SoundDuration":922588,"Delta":209120464},{"NoteNumber":72,"Velocity":75,"Duration":850983,"SoundDuration":850983,"Delta":209192070},{"NoteNumber":51,"Velocity":52,"Duration":283660,"SoundDuration":283660,"Delta":209192070},{"NoteNumber":39,"Velocity":44,"Duration":283660,"SoundDuration":283660,"Delta":209192070},{"NoteNumber":51,"Velocity":36,"Duration":283660,"SoundDuration":283660,"Delta":209475731},{"NoteNumber":54,"Velocity":36,"Duration":283661,"SoundDuration":283661,"Delta":209759392},{"NoteNumber":73,"Velocity":69,"Duration":283660,"SoundDuration":283660,"Delta":210043053},{"NoteNumber":60,"Velocity":37,"Duration":283660,"SoundDuration":283660,"Delta":210043053},{"NoteNumber":72,"Velocity":69,"Duration":584567,"SoundDuration":584567,"Delta":210326714},{"NoteNumber":54,"Velocity":37,"Duration":292283,"SoundDuration":292283,"Delta":210326714},{"NoteNumber":51,"Velocity":37,"Duration":292283,"SoundDuration":292283,"Delta":210618997},{"NoteNumber":75,"Velocity":84,"Duration":551065,"SoundDuration":551065,"Delta":210911281},{"NoteNumber":63,"Velocity":51,"Duration":551065,"SoundDuration":551065,"Delta":210911281},{"NoteNumber":48,"Velocity":47,"Duration":551065,"SoundDuration":551065,"Delta":210911281},{"NoteNumber":36,"Velocity":39,"Duration":551065,"SoundDuration":551065,"Delta":210911281},{"NoteNumber":66,"Velocity":60,"Duration":275532,"SoundDuration":275532,"Delta":211186814},{"NoteNumber":72,"Velocity":60,"Duration":275532,"SoundDuration":275532,"Delta":211186814},{"NoteNumber":61,"Velocity":50,"Duration":551065,"SoundDuration":551065,"Delta":211462347},{"NoteNumber":73,"Velocity":82,"Duration":551065,"SoundDuration":551065,"Delta":211462347},{"NoteNumber":49,"Velocity":40,"Duration":551065,"SoundDuration":551065,"Delta":211462347},{"NoteNumber":37,"Velocity":34,"Duration":551065,"SoundDuration":551065,"Delta":211462347},{"NoteNumber":65,"Velocity":58,"Duration":275532,"SoundDuration":275532,"Delta":211737879},{"NoteNumber":70,"Velocity":58,"Duration":275532,"SoundDuration":275532,"Delta":211737879},{"NoteNumber":72,"Velocity":78,"Duration":611521,"SoundDuration":611521,"Delta":212013412},{"NoteNumber":60,"Velocity":46,"Duration":611521,"SoundDuration":611521,"Delta":212013412},{"NoteNumber":51,"Velocity":40,"Duration":367697,"SoundDuration":367697,"Delta":212013412},{"NoteNumber":39,"Velocity":34,"Duration":367697,"SoundDuration":367697,"Delta":212013412},{"NoteNumber":63,"Velocity":52,"Duration":162548,"SoundDuration":162548,"Delta":212299836},{"NoteNumber":66,"Velocity":55,"Duration":81274,"SoundDuration":81274,"Delta":212299836},{"NoteNumber":58,"Velocity":41,"Duration":81274,"SoundDuration":81274,"Delta":212381110},{"NoteNumber":61,"Velocity":47,"Duration":81274,"SoundDuration":81274,"Delta":212462384},{"NoteNumber":65,"Velocity":47,"Duration":81274,"SoundDuration":81274,"Delta":212543659},{"NoteNumber":70,"Velocity":82,"Duration":1112760,"SoundDuration":1112760,"Delta":212624933},{"NoteNumber":53,"Velocity":52,"Duration":139094,"SoundDuration":139094,"Delta":212624933},{"NoteNumber":41,"Velocity":44,"Duration":139094,"SoundDuration":139094,"Delta":212624933},{"NoteNumber":53,"Velocity":36,"Duration":278189,"SoundDuration":278189,"Delta":212903123},{"NoteNumber":58,"Velocity":36,"Duration":278190,"SoundDuration":278190,"Delta":213181313},{"NoteNumber":61,"Velocity":36,"Duration":278189,"SoundDuration":278189,"Delta":213459503},{"NoteNumber":70,"Velocity":82,"Duration":602773,"SoundDuration":602773,"Delta":213737693},{"NoteNumber":58,"Velocity":36,"Duration":301386,"SoundDuration":301386,"Delta":213737693},{"NoteNumber":53,"Velocity":36,"Duration":301386,"SoundDuration":301386,"Delta":214039080},{"NoteNumber":58,"Velocity":46,"Duration":75346,"SoundDuration":75346,"Delta":214189773},{"NoteNumber":64,"Velocity":46,"Duration":75346,"SoundDuration":75346,"Delta":214265120},{"NoteNumber":70,"Velocity":82,"Duration":859270,"SoundDuration":859270,"Delta":214340466},{"NoteNumber":54,"Velocity":52,"Duration":143211,"SoundDuration":143211,"Delta":214340466},{"NoteNumber":42,"Velocity":44,"Duration":143211,"SoundDuration":143211,"Delta":214340466},{"NoteNumber":54,"Velocity":36,"Duration":286423,"SoundDuration":286423,"Delta":214626890},{"NoteNumber":60,"Velocity":36,"Duration":286423,"SoundDuration":286423,"Delta":214913313},{"NoteNumber":72,"Velocity":78,"Duration":143211,"SoundDuration":143211,"Delta":215199737},{"NoteNumber":64,"Velocity":36,"Duration":286423,"SoundDuration":286423,"Delta":215199737},{"NoteNumber":70,"Velocity":78,"Duration":143211,"SoundDuration":143211,"Delta":215342948},{"NoteNumber":69,"Velocity":78,"Duration":286423,"SoundDuration":286423,"Delta":215486160},{"NoteNumber":58,"Velocity":36,"Duration":286423,"SoundDuration":286423,"Delta":215486160},{"NoteNumber":70,"Velocity":75,"Duration":286423,"SoundDuration":286423,"Delta":215772584},{"NoteNumber":54,"Velocity":36,"Duration":286423,"SoundDuration":286423,"Delta":215772584},{"NoteNumber":72,"Velocity":86,"Duration":1718541,"SoundDuration":1718541,"Delta":216059007},{"NoteNumber":41,"Velocity":44,"Duration":143211,"SoundDuration":143211,"Delta":216059007},{"NoteNumber":53,"Velocity":52,"Duration":143211,"SoundDuration":143211,"Delta":216059007},{"NoteNumber":53,"Velocity":38,"Duration":286423,"SoundDuration":286423,"Delta":216345431},{"NoteNumber":65,"Velocity":74,"Duration":572846,"SoundDuration":572846,"Delta":216631854},{"NoteNumber":57,"Velocity":38,"Duration":286423,"SoundDuration":286423,"Delta":216631854},{"NoteNumber":60,"Velocity":38,"Duration":286423,"SoundDuration":286423,"Delta":216918278},{"NoteNumber":65,"Velocity":74,"Duration":572846,"SoundDuration":572846,"Delta":217204701},{"NoteNumber":57,"Velocity":38,"Duration":286423,"SoundDuration":286423,"Delta":217204701},{"NoteNumber":53,"Velocity":38,"Duration":286423,"SoundDuration":286423,"Delta":217491125},{"NoteNumber":65,"Velocity":74,"Duration":287859,"SoundDuration":287859,"Delta":217777548},{"NoteNumber":41,"Velocity":46,"Duration":287859,"SoundDuration":287859,"Delta":217777548},{"NoteNumber":53,"Velocity":34,"Duration":293779,"SoundDuration":293779,"Delta":218065408},{"NoteNumber":65,"Velocity":60,"Duration":299828,"SoundDuration":299828,"Delta":218359188},{"NoteNumber":60,"Velocity":51,"Duration":299828,"SoundDuration":299828,"Delta":218359188},{"NoteNumber":63,"Velocity":51,"Duration":299828,"SoundDuration":299828,"Delta":218359188},{"NoteNumber":41,"Velocity":46,"Duration":299828,"SoundDuration":299828,"Delta":218359188},{"NoteNumber":53,"Velocity":34,"Duration":306225,"SoundDuration":306225,"Delta":218659016},{"NoteNumber":57,"Velocity":50,"Duration":312769,"SoundDuration":312769,"Delta":218965241},{"NoteNumber":65,"Velocity":59,"Duration":312769,"SoundDuration":312769,"Delta":218965241},{"NoteNumber":60,"Velocity":50,"Duration":312769,"SoundDuration":312769,"Delta":218965241},{"NoteNumber":41,"Velocity":46,"Duration":312769,"SoundDuration":312769,"Delta":218965241},{"NoteNumber":53,"Velocity":34,"Duration":319771,"SoundDuration":319771,"Delta":219278011},{"NoteNumber":61,"Velocity":30,"Duration":80385,"SoundDuration":80385,"Delta":219517396},{"NoteNumber":65,"Velocity":75,"Duration":850983,"SoundDuration":850983,"Delta":219597782},{"NoteNumber":46,"Velocity":39,"Duration":283660,"SoundDuration":283660,"Delta":219597782},{"NoteNumber":34,"Velocity":33,"Duration":283660,"SoundDuration":283660,"Delta":219597782},{"NoteNumber":53,"Velocity":32,"Duration":283660,"SoundDuration":283660,"Delta":219881443},{"NoteNumber":58,"Velocity":32,"Duration":283661,"SoundDuration":283661,"Delta":220165104},{"NoteNumber":66,"Velocity":64,"Duration":283660,"SoundDuration":283660,"Delta":220448765},{"NoteNumber":61,"Velocity":32,"Duration":283660,"SoundDuration":283660,"Delta":220448765},{"NoteNumber":65,"Velocity":64,"Duration":584567,"SoundDuration":584567,"Delta":220732426},{"NoteNumber":58,"Velocity":32,"Duration":292283,"SoundDuration":292283,"Delta":220732426},{"NoteNumber":53,"Velocity":32,"Duration":292283,"SoundDuration":292283,"Delta":221024710},{"NoteNumber":61,"Velocity":75,"Duration":275532,"SoundDuration":275532,"Delta":221316993},{"NoteNumber":73,"Velocity":75,"Duration":551065,"SoundDuration":551065,"Delta":221316993},{"NoteNumber":58,"Velocity":37,"Duration":275532,"SoundDuration":275532,"Delta":221316993},{"NoteNumber":46,"Velocity":31,"Duration":275532,"SoundDuration":275532,"Delta":221316993},{"NoteNumber":65,"Velocity":57,"Duration":275532,"SoundDuration":275532,"Delta":221592526},{"NoteNumber":72,"Velocity":72,"Duration":551065,"SoundDuration":551065,"Delta":221868059},{"NoteNumber":63,"Velocity":72,"Duration":275532,"SoundDuration":275532,"Delta":221868059},{"NoteNumber":48,"Velocity":29,"Duration":275532,"SoundDuration":275532,"Delta":221868059},{"NoteNumber":57,"Velocity":35,"Duration":275532,"SoundDuration":275532,"Delta":221868059},{"NoteNumber":65,"Velocity":57,"Duration":275532,"SoundDuration":275532,"Delta":222143592},{"NoteNumber":70,"Velocity":72,"Duration":572846,"SoundDuration":572846,"Delta":222419124},{"NoteNumber":61,"Velocity":72,"Duration":286423,"SoundDuration":286423,"Delta":222419124},{"NoteNumber":58,"Velocity":37,"Duration":286423,"SoundDuration":286423,"Delta":222419124},{"NoteNumber":49,"Velocity":31,"Duration":286423,"SoundDuration":286423,"Delta":222419124},{"NoteNumber":65,"Velocity":57,"Duration":286423,"SoundDuration":286423,"Delta":222705548},{"NoteNumber":63,"Velocity":57,"Duration":71605,"SoundDuration":71605,"Delta":222920366},{"NoteNumber":70,"Velocity":74,"Duration":842854,"SoundDuration":842854,"Delta":222991971},{"NoteNumber":53,"Velocity":40,"Duration":280951,"SoundDuration":280951,"Delta":222991971},{"NoteNumber":41,"Velocity":34,"Duration":280951,"SoundDuration":280951,"Delta":222991971},{"NoteNumber":53,"Velocity":32,"Duration":280951,"SoundDuration":280951,"Delta":223272923},{"NoteNumber":57,"Velocity":32,"Duration":280951,"SoundDuration":280951,"Delta":223553874},{"NoteNumber":69,"Velocity":60,"Duration":136487,"SoundDuration":136487,"Delta":223834826},{"NoteNumber":63,"Velocity":32,"Duration":272975,"SoundDuration":272975,"Delta":223834826},{"NoteNumber":69,"Velocity":64,"Duration":272975,"SoundDuration":272975,"Delta":224107801},{"NoteNumber":57,"Velocity":32,"Duration":272975,"SoundDuration":272975,"Delta":224107801},{"NoteNumber":72,"Velocity":57,"Duration":272975,"SoundDuration":272975,"Delta":224380777},{"NoteNumber":53,"Velocity":32,"Duration":272975,"SoundDuration":272975,"Delta":224380777},{"NoteNumber":61,"Velocity":36,"Duration":68243,"SoundDuration":68243,"Delta":224585509},{"NoteNumber":65,"Velocity":70,"Duration":1163861,"SoundDuration":1163861,"Delta":224653752},{"NoteNumber":41,"Velocity":39,"Duration":283660,"SoundDuration":283660,"Delta":224653752},{"NoteNumber":29,"Velocity":33,"Duration":283660,"SoundDuration":283660,"Delta":224653752},{"NoteNumber":53,"Velocity":32,"Duration":283660,"SoundDuration":283660,"Delta":224937413},{"NoteNumber":57,"Velocity":32,"Duration":298270,"SoundDuration":298270,"Delta":225221074},{"NoteNumber":63,"Velocity":32,"Duration":298270,"SoundDuration":298270,"Delta":225519344},{"NoteNumber":65,"Velocity":64,"Duration":496406,"SoundDuration":496406,"Delta":225817614},{"NoteNumber":57,"Velocity":32,"Duration":283660,"SoundDuration":283660,"Delta":225817614},{"NoteNumber":53,"Velocity":32,"Duration":283660,"SoundDuration":283660,"Delta":226101275},{"NoteNumber":61,"Velocity":30,"Duration":70915,"SoundDuration":70915,"Delta":226314021},{"NoteNumber":65,"Velocity":75,"Duration":850983,"SoundDuration":850983,"Delta":226384936},{"NoteNumber":46,"Velocity":39,"Duration":283660,"SoundDuration":283660,"Delta":226384936},{"NoteNumber":34,"Velocity":33,"Duration":283660,"SoundDuration":283660,"Delta":226384936},{"NoteNumber":53,"Velocity":32,"Duration":283660,"SoundDuration":283660,"Delta":226668597},{"NoteNumber":58,"Velocity":32,"Duration":283661,"SoundDuration":283661,"Delta":226952258},{"NoteNumber":66,"Velocity":64,"Duration":283660,"SoundDuration":283660,"Delta":227235919},{"NoteNumber":61,"Velocity":32,"Duration":283660,"SoundDuration":283660,"Delta":227235919},{"NoteNumber":65,"Velocity":64,"Duration":584567,"SoundDuration":584567,"Delta":227519580},{"NoteNumber":58,"Velocity":32,"Duration":292283,"SoundDuration":292283,"Delta":227519580},{"NoteNumber":53,"Velocity":32,"Duration":292283,"SoundDuration":292283,"Delta":227811864},{"NoteNumber":73,"Velocity":75,"Duration":551065,"SoundDuration":551065,"Delta":228104148},{"NoteNumber":61,"Velocity":75,"Duration":275532,"SoundDuration":275532,"Delta":228104148},{"NoteNumber":58,"Velocity":37,"Duration":275532,"SoundDuration":275532,"Delta":228104148},{"NoteNumber":46,"Velocity":31,"Duration":275532,"SoundDuration":275532,"Delta":228104148},{"NoteNumber":65,"Velocity":55,"Duration":275532,"SoundDuration":275532,"Delta":228379681},{"NoteNumber":72,"Velocity":72,"Duration":551065,"SoundDuration":551065,"Delta":228655213},{"NoteNumber":63,"Velocity":72,"Duration":275532,"SoundDuration":275532,"Delta":228655213},{"NoteNumber":57,"Velocity":35,"Duration":275532,"SoundDuration":275532,"Delta":228655213},{"NoteNumber":48,"Velocity":29,"Duration":275532,"SoundDuration":275532,"Delta":228655213},{"NoteNumber":65,"Velocity":55,"Duration":275532,"SoundDuration":275532,"Delta":228930746},{"NoteNumber":61,"Velocity":72,"Duration":286423,"SoundDuration":286423,"Delta":229206279},{"NoteNumber":70,"Velocity":72,"Duration":572846,"SoundDuration":572846,"Delta":229206279},{"NoteNumber":58,"Velocity":37,"Duration":286423,"SoundDuration":286423,"Delta":229206279},{"NoteNumber":49,"Velocity":31,"Duration":286423,"SoundDuration":286423,"Delta":229206279},{"NoteNumber":65,"Velocity":55,"Duration":286423,"SoundDuration":286423,"Delta":229492702},{"NoteNumber":61,"Velocity":52,"Duration":71605,"SoundDuration":71605,"Delta":229707520},{"NoteNumber":68,"Velocity":74,"Duration":842854,"SoundDuration":842854,"Delta":229779126},{"NoteNumber":51,"Velocity":40,"Duration":280951,"SoundDuration":280951,"Delta":229779126},{"NoteNumber":39,"Velocity":34,"Duration":280951,"SoundDuration":280951,"Delta":229779126},{"NoteNumber":51,"Velocity":32,"Duration":280951,"SoundDuration":280951,"Delta":230060077},{"NoteNumber":55,"Velocity":32,"Duration":280951,"SoundDuration":280951,"Delta":230341029},{"NoteNumber":67,"Velocity":60,"Duration":204731,"SoundDuration":204731,"Delta":230621980},{"NoteNumber":61,"Velocity":32,"Duration":272975,"SoundDuration":272975,"Delta":230621980},{"NoteNumber":67,"Velocity":64,"Duration":272975,"SoundDuration":272975,"Delta":230894956},{"NoteNumber":55,"Velocity":32,"Duration":272975,"SoundDuration":272975,"Delta":230894956},{"NoteNumber":70,"Velocity":57,"Duration":272975,"SoundDuration":272975,"Delta":231167931},{"NoteNumber":51,"Velocity":32,"Duration":272975,"SoundDuration":272975,"Delta":231167931},{"NoteNumber":61,"Velocity":44,"Duration":68243,"SoundDuration":68243,"Delta":231372663},{"NoteNumber":63,"Velocity":70,"Duration":1163861,"SoundDuration":1163861,"Delta":231440907},{"NoteNumber":39,"Velocity":33,"Duration":283660,"SoundDuration":283660,"Delta":231440907},{"NoteNumber":51,"Velocity":39,"Duration":283660,"SoundDuration":283660,"Delta":231440907},{"NoteNumber":51,"Velocity":32,"Duration":283660,"SoundDuration":283660,"Delta":231724568},{"NoteNumber":55,"Velocity":32,"Duration":298270,"SoundDuration":298270,"Delta":232008229},{"NoteNumber":61,"Velocity":32,"Duration":298270,"SoundDuration":298270,"Delta":232306499},{"NoteNumber":75,"Velocity":66,"Duration":567321,"SoundDuration":567321,"Delta":232604769},{"NoteNumber":73,"Velocity":56,"Duration":567321,"SoundDuration":567321,"Delta":232604769},{"NoteNumber":55,"Velocity":32,"Duration":283660,"SoundDuration":283660,"Delta":232604769},{"NoteNumber":51,"Velocity":32,"Duration":283660,"SoundDuration":283660,"Delta":232888430},{"NoteNumber":75,"Velocity":74,"Duration":850983,"SoundDuration":850983,"Delta":233172091},{"NoteNumber":72,"Velocity":62,"Duration":850983,"SoundDuration":850983,"Delta":233172091},{"NoteNumber":44,"Velocity":40,"Duration":283661,"SoundDuration":283661,"Delta":233172091},{"NoteNumber":51,"Velocity":32,"Duration":283660,"SoundDuration":283660,"Delta":233455752},{"NoteNumber":56,"Velocity":32,"Duration":283660,"SoundDuration":283660,"Delta":233739413},{"NoteNumber":77,"Velocity":64,"Duration":267905,"SoundDuration":267905,"Delta":234023074},{"NoteNumber":60,"Velocity":32,"Duration":267905,"SoundDuration":267905,"Delta":234023074},{"NoteNumber":75,"Velocity":64,"Duration":511496,"SoundDuration":511496,"Delta":234290979},{"NoteNumber":63,"Velocity":32,"Duration":292283,"SoundDuration":292283,"Delta":234290979},{"NoteNumber":68,"Velocity":32,"Duration":292283,"SoundDuration":292283,"Delta":234583263},{"NoteNumber":75,"Velocity":53,"Duration":73070,"SoundDuration":73070,"Delta":234802475},{"NoteNumber":80,"Velocity":77,"Duration":1091902,"SoundDuration":1091902,"Delta":234875546},{"NoteNumber":72,"Velocity":38,"Duration":1091902,"SoundDuration":1091902,"Delta":234875546},{"NoteNumber":79,"Velocity":71,"Duration":572846,"SoundDuration":572846,"Delta":235967448},{"NoteNumber":77,"Velocity":74,"Duration":850983,"SoundDuration":850983,"Delta":236540295},{"NoteNumber":73,"Velocity":62,"Duration":850983,"SoundDuration":850983,"Delta":236540295},{"NoteNumber":49,"Velocity":40,"Duration":283660,"SoundDuration":283660,"Delta":236540295},{"NoteNumber":53,"Velocity":32,"Duration":283660,"SoundDuration":283660,"Delta":236823956},{"NoteNumber":58,"Velocity":32,"Duration":283661,"SoundDuration":283661,"Delta":237107617},{"NoteNumber":79,"Velocity":64,"Duration":265439,"SoundDuration":265439,"Delta":237391278},{"NoteNumber":61,"Velocity":32,"Duration":265439,"SoundDuration":265439,"Delta":237391278},{"NoteNumber":77,"Velocity":64,"Duration":584567,"SoundDuration":584567,"Delta":237656718},{"NoteNumber":65,"Velocity":32,"Duration":292283,"SoundDuration":292283,"Delta":237656718},{"NoteNumber":70,"Velocity":32,"Duration":292283,"SoundDuration":292283,"Delta":237949002},{"NoteNumber":77,"Velocity":53,"Duration":73070,"SoundDuration":73070,"Delta":238168215},{"NoteNumber":82,"Velocity":77,"Duration":1091902,"SoundDuration":1091902,"Delta":238241286},{"NoteNumber":73,"Velocity":38,"Duration":1091902,"SoundDuration":1091902,"Delta":238241286},{"NoteNumber":80,"Velocity":71,"Duration":572846,"SoundDuration":572846,"Delta":239333188},{"NoteNumber":70,"Velocity":59,"Duration":71605,"SoundDuration":71605,"Delta":239762823},{"NoteNumber":73,"Velocity":59,"Duration":71605,"SoundDuration":71605,"Delta":239834429},{"NoteNumber":79,"Velocity":74,"Duration":850983,"SoundDuration":850983,"Delta":239906035},{"NoteNumber":51,"Velocity":40,"Duration":283660,"SoundDuration":283660,"Delta":239906035},{"NoteNumber":39,"Velocity":34,"Duration":283660,"SoundDuration":283660,"Delta":239906035},{"NoteNumber":51,"Velocity":32,"Duration":283660,"SoundDuration":283660,"Delta":240189696},{"NoteNumber":55,"Velocity":32,"Duration":283661,"SoundDuration":283661,"Delta":240473357},{"NoteNumber":77,"Velocity":64,"Duration":283660,"SoundDuration":283660,"Delta":240757018},{"NoteNumber":61,"Velocity":32,"Duration":283660,"SoundDuration":283660,"Delta":240757018},{"NoteNumber":75,"Velocity":64,"Duration":567321,"SoundDuration":567321,"Delta":241040679},{"NoteNumber":55,"Velocity":32,"Duration":283660,"SoundDuration":283660,"Delta":241040679},{"NoteNumber":51,"Velocity":32,"Duration":283660,"SoundDuration":283660,"Delta":241324340},{"NoteNumber":63,"Velocity":43,"Duration":70915,"SoundDuration":70915,"Delta":241466170},{"NoteNumber":67,"Velocity":51,"Duration":70915,"SoundDuration":70915,"Delta":241537085},{"NoteNumber":73,"Velocity":74,"Duration":850983,"SoundDuration":850983,"Delta":241608001},{"NoteNumber":39,"Velocity":33,"Duration":283660,"SoundDuration":283660,"Delta":241608001},{"NoteNumber":51,"Velocity":39,"Duration":283660,"SoundDuration":283660,"Delta":241608001},{"NoteNumber":51,"Velocity":32,"Duration":283660,"SoundDuration":283660,"Delta":241891662},{"NoteNumber":55,"Velocity":32,"Duration":283661,"SoundDuration":283661,"Delta":242175323},{"NoteNumber":72,"Velocity":64,"Duration":283660,"SoundDuration":283660,"Delta":242458984},{"NoteNumber":61,"Velocity":32,"Duration":283660,"SoundDuration":283660,"Delta":242458984},{"NoteNumber":70,"Velocity":64,"Duration":630045,"SoundDuration":630045,"Delta":242742645},{"NoteNumber":55,"Velocity":32,"Duration":301386,"SoundDuration":301386,"Delta":242742645},{"NoteNumber":51,"Velocity":32,"Duration":328658,"SoundDuration":328658,"Delta":243044031},{"NoteNumber":68,"Velocity":50,"Duration":82164,"SoundDuration":82164,"Delta":243208361},{"NoteNumber":71,"Velocity":51,"Duration":82164,"SoundDuration":82164,"Delta":243290525},{"NoteNumber":77,"Velocity":60,"Duration":1701965,"SoundDuration":1701965,"Delta":243372690},{"NoteNumber":44,"Velocity":33,"Duration":283660,"SoundDuration":283660,"Delta":243372690},{"NoteNumber":56,"Velocity":39,"Duration":283660,"SoundDuration":283660,"Delta":243372690},{"NoteNumber":59,"Velocity":29,"Duration":283660,"SoundDuration":283660,"Delta":243656351},{"NoteNumber":62,"Velocity":29,"Duration":283661,"SoundDuration":283661,"Delta":243940012},{"NoteNumber":65,"Velocity":29,"Duration":283660,"SoundDuration":283660,"Delta":244223673},{"NoteNumber":62,"Velocity":29,"Duration":283660,"SoundDuration":283660,"Delta":244507334},{"NoteNumber":59,"Velocity":29,"Duration":283660,"SoundDuration":283660,"Delta":244790995},{"NoteNumber":75,"Velocity":61,"Duration":1141219,"SoundDuration":1141219,"Delta":245074656},{"NoteNumber":56,"Velocity":36,"Duration":283660,"SoundDuration":283660,"Delta":245074656},{"NoteNumber":60,"Velocity":32,"Duration":283660,"SoundDuration":283660,"Delta":245358317},{"NoteNumber":63,"Velocity":32,"Duration":284581,"SoundDuration":284581,"Delta":245641978},{"NoteNumber":68,"Velocity":32,"Duration":289315,"SoundDuration":289315,"Delta":245926560},{"NoteNumber":73,"Velocity":56,"Duration":594106,"SoundDuration":594106,"Delta":246215875},{"NoteNumber":75,"Velocity":66,"Duration":594106,"SoundDuration":594106,"Delta":246215875},{"NoteNumber":67,"Velocity":32,"Duration":594106,"SoundDuration":594106,"Delta":246215875},{"NoteNumber":63,"Velocity":32,"Duration":299828,"SoundDuration":299828,"Delta":246510153},{"NoteNumber":72,"Velocity":62,"Duration":850983,"SoundDuration":850983,"Delta":246809982},{"NoteNumber":75,"Velocity":74,"Duration":850983,"SoundDuration":850983,"Delta":246809982},{"NoteNumber":44,"Velocity":40,"Duration":283660,"SoundDuration":283660,"Delta":246809982},{"NoteNumber":51,"Velocity":32,"Duration":283660,"SoundDuration":283660,"Delta":247093643},{"NoteNumber":56,"Velocity":32,"Duration":283661,"SoundDuration":283661,"Delta":247377304},{"NoteNumber":77,"Velocity":64,"Duration":267905,"SoundDuration":267905,"Delta":247660965},{"NoteNumber":60,"Velocity":32,"Duration":267905,"SoundDuration":267905,"Delta":247660965},{"NoteNumber":75,"Velocity":64,"Duration":511496,"SoundDuration":511496,"Delta":247928870},{"NoteNumber":63,"Velocity":32,"Duration":292283,"SoundDuration":292283,"Delta":247928870},{"NoteNumber":68,"Velocity":32,"Duration":292283,"SoundDuration":292283,"Delta":248221153},{"NoteNumber":75,"Velocity":55,"Duration":73070,"SoundDuration":73070,"Delta":248440366},{"NoteNumber":80,"Velocity":77,"Duration":1091902,"SoundDuration":1091902,"Delta":248513437},{"NoteNumber":72,"Velocity":38,"Duration":1091902,"SoundDuration":1091902,"Delta":248513437},{"NoteNumber":79,"Velocity":70,"Duration":572846,"SoundDuration":572846,"Delta":249605339},{"NoteNumber":73,"Velocity":62,"Duration":850983,"SoundDuration":850983,"Delta":250178186},{"NoteNumber":77,"Velocity":74,"Duration":850983,"SoundDuration":850983,"Delta":250178186},{"NoteNumber":49,"Velocity":40,"Duration":283660,"SoundDuration":283660,"Delta":250178186},{"NoteNumber":53,"Velocity":32,"Duration":283660,"SoundDuration":283660,"Delta":250461847},{"NoteNumber":58,"Velocity":32,"Duration":283661,"SoundDuration":283661,"Delta":250745508},{"NoteNumber":79,"Velocity":64,"Duration":265439,"SoundDuration":265439,"Delta":251029169},{"NoteNumber":61,"Velocity":32,"Duration":265439,"SoundDuration":265439,"Delta":251029169},{"NoteNumber":77,"Velocity":64,"Duration":511496,"SoundDuration":511496,"Delta":251294609},{"NoteNumber":65,"Velocity":32,"Duration":292283,"SoundDuration":292283,"Delta":251294609},{"NoteNumber":70,"Velocity":32,"Duration":292283,"SoundDuration":292283,"Delta":251586893},{"NoteNumber":77,"Velocity":55,"Duration":73070,"SoundDuration":73070,"Delta":251806106},{"NoteNumber":82,"Velocity":77,"Duration":1091902,"SoundDuration":1091902,"Delta":251879176},{"NoteNumber":73,"Velocity":38,"Duration":1091902,"SoundDuration":1091902,"Delta":251879176},{"NoteNumber":80,"Velocity":67,"Duration":572846,"SoundDuration":572846,"Delta":252971078},{"NoteNumber":70,"Velocity":57,"Duration":71605,"SoundDuration":71605,"Delta":253400714},{"NoteNumber":73,"Velocity":57,"Duration":71605,"SoundDuration":71605,"Delta":253472320},{"NoteNumber":79,"Velocity":74,"Duration":850983,"SoundDuration":850983,"Delta":253543925},{"NoteNumber":51,"Velocity":40,"Duration":283660,"SoundDuration":283660,"Delta":253543925},{"NoteNumber":39,"Velocity":34,"Duration":283660,"SoundDuration":283660,"Delta":253543925},{"NoteNumber":51,"Velocity":32,"Duration":283660,"SoundDuration":283660,"Delta":253827586},{"NoteNumber":55,"Velocity":32,"Duration":283661,"SoundDuration":283661,"Delta":254111247},{"NoteNumber":77,"Velocity":64,"Duration":283660,"SoundDuration":283660,"Delta":254394908},{"NoteNumber":61,"Velocity":32,"Duration":283660,"SoundDuration":283660,"Delta":254394908},{"NoteNumber":75,"Velocity":64,"Duration":567321,"SoundDuration":567321,"Delta":254678569},{"NoteNumber":55,"Velocity":32,"Duration":283660,"SoundDuration":283660,"Delta":254678569},{"NoteNumber":51,"Velocity":32,"Duration":283660,"SoundDuration":283660,"Delta":254962230},{"NoteNumber":63,"Velocity":42,"Duration":70915,"SoundDuration":70915,"Delta":255104061},{"NoteNumber":67,"Velocity":51,"Duration":70915,"SoundDuration":70915,"Delta":255174976},{"NoteNumber":73,"Velocity":66,"Duration":850983,"SoundDuration":850983,"Delta":255245891},{"NoteNumber":51,"Velocity":39,"Duration":283660,"SoundDuration":283660,"Delta":255245891},{"NoteNumber":39,"Velocity":33,"Duration":283660,"SoundDuration":283660,"Delta":255245891},{"NoteNumber":51,"Velocity":32,"Duration":283660,"SoundDuration":283660,"Delta":255529552},{"NoteNumber":55,"Velocity":32,"Duration":283661,"SoundDuration":283661,"Delta":255813213},{"NoteNumber":72,"Velocity":64,"Duration":283660,"SoundDuration":283660,"Delta":256096874},{"NoteNumber":61,"Velocity":32,"Duration":283660,"SoundDuration":283660,"Delta":256096874},{"NoteNumber":70,"Velocity":60,"Duration":602773,"SoundDuration":602773,"Delta":256380535},{"NoteNumber":55,"Velocity":32,"Duration":301386,"SoundDuration":301386,"Delta":256380535},{"NoteNumber":51,"Velocity":32,"Duration":301386,"SoundDuration":301386,"Delta":256681922},{"NoteNumber":68,"Velocity":65,"Duration":283660,"SoundDuration":283660,"Delta":256983308},{"NoteNumber":56,"Velocity":36,"Duration":283660,"SoundDuration":283660,"Delta":256983308},{"NoteNumber":60,"Velocity":43,"Duration":283660,"SoundDuration":283660,"Delta":256983308},{"NoteNumber":72,"Velocity":55,"Duration":283660,"SoundDuration":283660,"Delta":257266969},{"NoteNumber":63,"Velocity":37,"Duration":283660,"SoundDuration":283660,"Delta":257266969},{"NoteNumber":75,"Velocity":54,"Duration":283678,"SoundDuration":283678,"Delta":257550630},{"NoteNumber":68,"Velocity":36,"Duration":283678,"SoundDuration":283678,"Delta":257550630},{"NoteNumber":80,"Velocity":53,"Duration":293282,"SoundDuration":293282,"Delta":257834309},{"NoteNumber":72,"Velocity":36,"Duration":293282,"SoundDuration":293282,"Delta":257834309},{"NoteNumber":84,"Velocity":52,"Duration":303562,"SoundDuration":303562,"Delta":258127592},{"NoteNumber":75,"Velocity":35,"Duration":303562,"SoundDuration":303562,"Delta":258127592},{"NoteNumber":87,"Velocity":51,"Duration":312830,"SoundDuration":312830,"Delta":258431154},{"NoteNumber":80,"Velocity":34,"Duration":312830,"SoundDuration":312830,"Delta":258431154},{"NoteNumber":92,"Velocity":50,"Duration":1228752,"SoundDuration":1228752,"Delta":258743985},{"NoteNumber":84,"Velocity":32,"Duration":614376,"SoundDuration":614376,"Delta":258743985},{"NoteNumber":68,"Velocity":46,"Duration":940594,"SoundDuration":940594,"Delta":260639405},{"NoteNumber":70,"Velocity":43,"Duration":351377,"SoundDuration":351377,"Delta":261530494},{"NoteNumber":68,"Velocity":43,"Duration":2382943,"SoundDuration":2382943,"Delta":261827524},{"NoteNumber":60,"Velocity":28,"Duration":1730769,"SoundDuration":1730769,"Delta":262479698},{"NoteNumber":54,"Velocity":31,"Duration":1730769,"SoundDuration":1730769,"Delta":262479698},{"NoteNumber":44,"Velocity":26,"Duration":1730769,"SoundDuration":1730769,"Delta":262479698},{"NoteNumber":51,"Velocity":26,"Duration":1730769,"SoundDuration":1730769,"Delta":262479698},{"NoteNumber":68,"Velocity":46,"Duration":931372,"SoundDuration":931372,"Delta":264210467},{"NoteNumber":70,"Velocity":43,"Duration":345664,"SoundDuration":345664,"Delta":265092820},{"NoteNumber":68,"Velocity":43,"Duration":2349325,"SoundDuration":2349325,"Delta":265386938},{"NoteNumber":61,"Velocity":28,"Duration":1730769,"SoundDuration":1730769,"Delta":266005494},{"NoteNumber":44,"Velocity":27,"Duration":1730769,"SoundDuration":1730769,"Delta":266005494},{"NoteNumber":53,"Velocity":32,"Duration":1730769,"SoundDuration":1730769,"Delta":266005494},{"NoteNumber":68,"Velocity":46,"Duration":931372,"SoundDuration":931372,"Delta":267736263},{"NoteNumber":70,"Velocity":40,"Duration":345138,"SoundDuration":345138,"Delta":268618616},{"NoteNumber":68,"Velocity":40,"Duration":2648334,"SoundDuration":2648334,"Delta":268912734},{"NoteNumber":62,"Velocity":35,"Duration":1276595,"SoundDuration":1276595,"Delta":269524979},{"NoteNumber":44,"Velocity":25,"Duration":1276595,"SoundDuration":1276595,"Delta":269524979},{"NoteNumber":47,"Velocity":25,"Duration":1276595,"SoundDuration":1276595,"Delta":269524979},{"NoteNumber":53,"Velocity":30,"Duration":1276595,"SoundDuration":1276595,"Delta":269524979},{"NoteNumber":63,"Velocity":38,"Duration":759493,"SoundDuration":759493,"Delta":270801575},{"NoteNumber":54,"Velocity":30,"Duration":759493,"SoundDuration":759493,"Delta":270801575},{"NoteNumber":48,"Velocity":25,"Duration":759493,"SoundDuration":759493,"Delta":270801575},{"NoteNumber":44,"Velocity":25,"Duration":759493,"SoundDuration":759493,"Delta":270801575},{"NoteNumber":68,"Velocity":40,"Duration":3518113,"SoundDuration":3518113,"Delta":271561069},{"NoteNumber":60,"Velocity":34,"Duration":3518113,"SoundDuration":3518113,"Delta":271561069},{"NoteNumber":66,"Velocity":34,"Duration":3518113,"SoundDuration":3518113,"Delta":271561069},{"NoteNumber":44,"Velocity":24,"Duration":3518113,"SoundDuration":3518113,"Delta":271561069},{"NoteNumber":51,"Velocity":24,"Duration":3518113,"SoundDuration":3518113,"Delta":271561069},{"NoteNumber":56,"Velocity":29,"Duration":3518113,"SoundDuration":3518113,"Delta":271561069},{"NoteNumber":65,"Velocity":34,"Duration":86206,"SoundDuration":86206,"Delta":275682630},{"NoteNumber":68,"Velocity":46,"Duration":882353,"SoundDuration":882353,"Delta":275768837},{"NoteNumber":37,"Velocity":31,"Duration":147058,"SoundDuration":147058,"Delta":275768837},{"NoteNumber":49,"Velocity":37,"Duration":147058,"SoundDuration":147058,"Delta":275768837},{"NoteNumber":53,"Velocity":30,"Duration":294117,"SoundDuration":294117,"Delta":276062955},{"NoteNumber":56,"Velocity":30,"Duration":294117,"SoundDuration":294117,"Delta":276357073},{"NoteNumber":67,"Velocity":43,"Duration":147058,"SoundDuration":147058,"Delta":276651190},{"NoteNumber":61,"Velocity":30,"Duration":294117,"SoundDuration":294117,"Delta":276651190},{"NoteNumber":68,"Velocity":40,"Duration":147058,"SoundDuration":147058,"Delta":276798249},{"NoteNumber":67,"Velocity":44,"Duration":153061,"SoundDuration":153061,"Delta":276945308},{"NoteNumber":56,"Velocity":30,"Duration":306122,"SoundDuration":306122,"Delta":276945308},{"NoteNumber":68,"Velocity":40,"Duration":153061,"SoundDuration":153061,"Delta":277098369},{"NoteNumber":70,"Velocity":44,"Duration":153061,"SoundDuration":153061,"Delta":277251431},{"NoteNumber":53,"Velocity":30,"Duration":325474,"SoundDuration":325474,"Delta":277251431},{"NoteNumber":68,"Velocity":40,"Duration":172413,"SoundDuration":172413,"Delta":277404492},{"NoteNumber":65,"Velocity":46,"Duration":1791764,"SoundDuration":1791764,"Delta":277576906},{"NoteNumber":49,"Velocity":35,"Duration":285714,"SoundDuration":285714,"Delta":277576906},{"NoteNumber":53,"Velocity":19,"Duration":285714,"SoundDuration":285714,"Delta":277862620},{"NoteNumber":89,"Velocity":35,"Duration":95238,"SoundDuration":95238,"Delta":278148334},{"NoteNumber":56,"Velocity":19,"Duration":288479,"SoundDuration":288479,"Delta":278148334},{"NoteNumber":87,"Velocity":35,"Duration":96153,"SoundDuration":96153,"Delta":278243572},{"NoteNumber":85,"Velocity":36,"Duration":97087,"SoundDuration":97087,"Delta":278339726},{"NoteNumber":84,"Velocity":36,"Duration":98039,"SoundDuration":98039,"Delta":278436813},{"NoteNumber":61,"Velocity":19,"Duration":297049,"SoundDuration":297049,"Delta":278436813},{"NoteNumber":82,"Velocity":37,"Duration":99009,"SoundDuration":99009,"Delta":278534853},{"NoteNumber":80,"Velocity":37,"Duration":100000,"SoundDuration":100000,"Delta":278633863},{"NoteNumber":78,"Velocity":38,"Duration":101010,"SoundDuration":101010,"Delta":278733863},{"NoteNumber":56,"Velocity":19,"Duration":306143,"SoundDuration":306143,"Delta":278733863},{"NoteNumber":77,"Velocity":38,"Duration":102040,"SoundDuration":102040,"Delta":278834873},{"NoteNumber":75,"Velocity":39,"Duration":103092,"SoundDuration":103092,"Delta":278936914},{"NoteNumber":73,"Velocity":39,"Duration":104166,"SoundDuration":104166,"Delta":279040006},{"NoteNumber":53,"Velocity":19,"Duration":328663,"SoundDuration":328663,"Delta":279040006},{"NoteNumber":72,"Velocity":40,"Duration":109554,"SoundDuration":109554,"Delta":279144173},{"NoteNumber":70,"Velocity":40,"Duration":114942,"SoundDuration":114942,"Delta":279253728},{"NoteNumber":65,"Velocity":35,"Duration":57471,"SoundDuration":57471,"Delta":279311199},{"NoteNumber":68,"Velocity":46,"Duration":882353,"SoundDuration":882353,"Delta":279368670},{"NoteNumber":37,"Velocity":31,"Duration":147058,"SoundDuration":147058,"Delta":279368670},{"NoteNumber":49,"Velocity":37,"Duration":147058,"SoundDuration":147058,"Delta":279368670},{"NoteNumber":53,"Velocity":30,"Duration":294117,"SoundDuration":294117,"Delta":279662788},{"NoteNumber":56,"Velocity":30,"Duration":294117,"SoundDuration":294117,"Delta":279956906},{"NoteNumber":67,"Velocity":43,"Duration":147058,"SoundDuration":147058,"Delta":280251023},{"NoteNumber":61,"Velocity":30,"Duration":294117,"SoundDuration":294117,"Delta":280251023},{"NoteNumber":68,"Velocity":40,"Duration":147058,"SoundDuration":147058,"Delta":280398082},{"NoteNumber":67,"Velocity":44,"Duration":153061,"SoundDuration":153061,"Delta":280545141},{"NoteNumber":56,"Velocity":30,"Duration":306122,"SoundDuration":306122,"Delta":280545141},{"NoteNumber":68,"Velocity":40,"Duration":153061,"SoundDuration":153061,"Delta":280698202},{"NoteNumber":70,"Velocity":43,"Duration":153061,"SoundDuration":153061,"Delta":280851264},{"NoteNumber":53,"Velocity":30,"Duration":325474,"SoundDuration":325474,"Delta":280851264},{"NoteNumber":68,"Velocity":40,"Duration":172413,"SoundDuration":172413,"Delta":281004325},{"NoteNumber":65,"Velocity":46,"Duration":1789805,"SoundDuration":1789805,"Delta":281176739},{"NoteNumber":49,"Velocity":35,"Duration":285714,"SoundDuration":285714,"Delta":281176739},{"NoteNumber":53,"Velocity":19,"Duration":285714,"SoundDuration":285714,"Delta":281462453},{"NoteNumber":89,"Velocity":34,"Duration":95238,"SoundDuration":95238,"Delta":281748167},{"NoteNumber":56,"Velocity":19,"Duration":288479,"SoundDuration":288479,"Delta":281748167},{"NoteNumber":87,"Velocity":34,"Duration":96153,"SoundDuration":96153,"Delta":281843405},{"NoteNumber":85,"Velocity":34,"Duration":97087,"SoundDuration":97087,"Delta":281939559},{"NoteNumber":84,"Velocity":35,"Duration":98039,"SoundDuration":98039,"Delta":282036646},{"NoteNumber":61,"Velocity":19,"Duration":297049,"SoundDuration":297049,"Delta":282036646},{"NoteNumber":82,"Velocity":35,"Duration":99009,"SoundDuration":99009,"Delta":282134686},{"NoteNumber":80,"Velocity":36,"Duration":100000,"SoundDuration":100000,"Delta":282233696},{"NoteNumber":78,"Velocity":36,"Duration":101010,"SoundDuration":101010,"Delta":282333696},{"NoteNumber":56,"Velocity":19,"Duration":306143,"SoundDuration":306143,"Delta":282333696},{"NoteNumber":77,"Velocity":37,"Duration":102040,"SoundDuration":102040,"Delta":282434706},{"NoteNumber":75,"Velocity":37,"Duration":103092,"SoundDuration":103092,"Delta":282536746},{"NoteNumber":73,"Velocity":38,"Duration":104166,"SoundDuration":104166,"Delta":282639839},{"NoteNumber":53,"Velocity":19,"Duration":326704,"SoundDuration":326704,"Delta":282639839},{"NoteNumber":72,"Velocity":38,"Duration":108901,"SoundDuration":108901,"Delta":282744006},{"NoteNumber":73,"Velocity":38,"Duration":113636,"SoundDuration":113636,"Delta":282852907},{"NoteNumber":75,"Velocity":46,"Duration":882353,"SoundDuration":882353,"Delta":282966544},{"NoteNumber":44,"Velocity":31,"Duration":147058,"SoundDuration":147058,"Delta":282966544},{"NoteNumber":56,"Velocity":37,"Duration":147058,"SoundDuration":147058,"Delta":282966544},{"NoteNumber":56,"Velocity":30,"Duration":294117,"SoundDuration":294117,"Delta":283260661},{"NoteNumber":60,"Velocity":30,"Duration":294117,"SoundDuration":294117,"Delta":283554779},{"NoteNumber":74,"Velocity":42,"Duration":147058,"SoundDuration":147058,"Delta":283848897},{"NoteNumber":66,"Velocity":30,"Duration":294117,"SoundDuration":294117,"Delta":283848897},{"NoteNumber":75,"Velocity":40,"Duration":147058,"SoundDuration":147058,"Delta":283995956},{"NoteNumber":78,"Velocity":43,"Duration":153061,"SoundDuration":153061,"Delta":284143015},{"NoteNumber":60,"Velocity":30,"Duration":306122,"SoundDuration":306122,"Delta":284143015},{"NoteNumber":77,"Velocity":40,"Duration":153061,"SoundDuration":153061,"Delta":284296076},{"NoteNumber":75,"Velocity":40,"Duration":153061,"SoundDuration":153061,"Delta":284449137},{"NoteNumber":56,"Velocity":30,"Duration":325474,"SoundDuration":325474,"Delta":284449137},{"NoteNumber":73,"Velocity":40,"Duration":172413,"SoundDuration":172413,"Delta":284602198},{"NoteNumber":72,"Velocity":46,"Duration":1789805,"SoundDuration":1789805,"Delta":284774612},{"NoteNumber":56,"Velocity":37,"Duration":142857,"SoundDuration":142857,"Delta":284774612},{"NoteNumber":44,"Velocity":37,"Duration":142857,"SoundDuration":142857,"Delta":284774612},{"NoteNumber":56,"Velocity":19,"Duration":285714,"SoundDuration":285714,"Delta":285060326},{"NoteNumber":90,"Velocity":35,"Duration":95238,"SoundDuration":95238,"Delta":285346041},{"NoteNumber":60,"Velocity":19,"Duration":288479,"SoundDuration":288479,"Delta":285346041},{"NoteNumber":89,"Velocity":35,"Duration":96153,"SoundDuration":96153,"Delta":285441279},{"NoteNumber":87,"Velocity":35,"Duration":97087,"SoundDuration":97087,"Delta":285537433},{"NoteNumber":85,"Velocity":36,"Duration":98039,"SoundDuration":98039,"Delta":285634520},{"NoteNumber":66,"Velocity":19,"Duration":297049,"SoundDuration":297049,"Delta":285634520},{"NoteNumber":84,"Velocity":36,"Duration":99009,"SoundDuration":99009,"Delta":285732559},{"NoteNumber":82,"Velocity":36,"Duration":100000,"SoundDuration":100000,"Delta":285831569},{"NoteNumber":80,"Velocity":37,"Duration":101010,"SoundDuration":101010,"Delta":285931569},{"NoteNumber":60,"Velocity":19,"Duration":306143,"SoundDuration":306143,"Delta":285931569},{"NoteNumber":78,"Velocity":37,"Duration":102040,"SoundDuration":102040,"Delta":286032579},{"NoteNumber":77,"Velocity":37,"Duration":103092,"SoundDuration":103092,"Delta":286134620},{"NoteNumber":75,"Velocity":38,"Duration":104166,"SoundDuration":104166,"Delta":286237713},{"NoteNumber":56,"Velocity":19,"Duration":326704,"SoundDuration":326704,"Delta":286237713},{"NoteNumber":73,"Velocity":38,"Duration":80492,"SoundDuration":80492,"Delta":286341880},{"NoteNumber":73,"Velocity":38,"Duration":113636,"SoundDuration":113636,"Delta":286450781},{"NoteNumber":65,"Velocity":34,"Duration":56818,"SoundDuration":56818,"Delta":286507599},{"NoteNumber":73,"Velocity":46,"Duration":882353,"SoundDuration":882353,"Delta":286564417},{"NoteNumber":49,"Velocity":37,"Duration":147058,"SoundDuration":147058,"Delta":286564417},{"NoteNumber":37,"Velocity":31,"Duration":147058,"SoundDuration":147058,"Delta":286564417},{"NoteNumber":53,"Velocity":30,"Duration":294117,"SoundDuration":294117,"Delta":286858535},{"NoteNumber":56,"Velocity":30,"Duration":294117,"SoundDuration":294117,"Delta":287152653},{"NoteNumber":72,"Velocity":42,"Duration":147058,"SoundDuration":147058,"Delta":287446771},{"NoteNumber":61,"Velocity":30,"Duration":294117,"SoundDuration":294117,"Delta":287446771},{"NoteNumber":73,"Velocity":40,"Duration":147058,"SoundDuration":147058,"Delta":287593829},{"NoteNumber":72,"Velocity":40,"Duration":153061,"SoundDuration":153061,"Delta":287740888},{"NoteNumber":56,"Velocity":30,"Duration":306122,"SoundDuration":306122,"Delta":287740888},{"NoteNumber":73,"Velocity":40,"Duration":153061,"SoundDuration":153061,"Delta":287893950},{"NoteNumber":77,"Velocity":43,"Duration":153061,"SoundDuration":153061,"Delta":288047011},{"NoteNumber":53,"Velocity":30,"Duration":325474,"SoundDuration":325474,"Delta":288047011},{"NoteNumber":73,"Velocity":40,"Duration":172413,"SoundDuration":172413,"Delta":288200072},{"NoteNumber":68,"Velocity":46,"Duration":1789805,"SoundDuration":1789805,"Delta":288372486},{"NoteNumber":49,"Velocity":35,"Duration":285714,"SoundDuration":285714,"Delta":288372486},{"NoteNumber":53,"Velocity":19,"Duration":285714,"SoundDuration":285714,"Delta":288658200},{"NoteNumber":89,"Velocity":35,"Duration":95238,"SoundDuration":95238,"Delta":288943914},{"NoteNumber":56,"Velocity":19,"Duration":288479,"SoundDuration":288479,"Delta":288943914},{"NoteNumber":87,"Velocity":35,"Duration":96153,"SoundDuration":96153,"Delta":289039152},{"NoteNumber":85,"Velocity":35,"Duration":97087,"SoundDuration":97087,"Delta":289135306},{"NoteNumber":84,"Velocity":36,"Duration":98039,"SoundDuration":98039,"Delta":289232394},{"NoteNumber":61,"Velocity":19,"Duration":297049,"SoundDuration":297049,"Delta":289232394},{"NoteNumber":82,"Velocity":36,"Duration":99009,"SoundDuration":99009,"Delta":289330433},{"NoteNumber":80,"Velocity":37,"Duration":100000,"SoundDuration":100000,"Delta":289429443},{"NoteNumber":78,"Velocity":37,"Duration":101010,"SoundDuration":101010,"Delta":289529443},{"NoteNumber":56,"Velocity":19,"Duration":306143,"SoundDuration":306143,"Delta":289529443},{"NoteNumber":77,"Velocity":38,"Duration":102040,"SoundDuration":102040,"Delta":289630453},{"NoteNumber":75,"Velocity":38,"Duration":103092,"SoundDuration":103092,"Delta":289732494},{"NoteNumber":73,"Velocity":39,"Duration":104166,"SoundDuration":104166,"Delta":289835587},{"NoteNumber":53,"Velocity":19,"Duration":326704,"SoundDuration":326704,"Delta":289835587},{"NoteNumber":72,"Velocity":39,"Duration":108901,"SoundDuration":108901,"Delta":289939753},{"NoteNumber":73,"Velocity":39,"Duration":113636,"SoundDuration":113636,"Delta":290048655},{"NoteNumber":66,"Velocity":34,"Duration":56818,"SoundDuration":56818,"Delta":290105473},{"NoteNumber":70,"Velocity":46,"Duration":882353,"SoundDuration":882353,"Delta":290162291},{"NoteNumber":42,"Velocity":31,"Duration":147058,"SoundDuration":147058,"Delta":290162291},{"NoteNumber":54,"Velocity":37,"Duration":147058,"SoundDuration":147058,"Delta":290162291},{"NoteNumber":58,"Velocity":30,"Duration":294117,"SoundDuration":294117,"Delta":290456409},{"NoteNumber":60,"Velocity":30,"Duration":294117,"SoundDuration":294117,"Delta":290750527},{"NoteNumber":69,"Velocity":43,"Duration":147058,"SoundDuration":147058,"Delta":291044644},{"NoteNumber":66,"Velocity":30,"Duration":294117,"SoundDuration":294117,"Delta":291044644},{"NoteNumber":70,"Velocity":40,"Duration":147058,"SoundDuration":147058,"Delta":291191703},{"NoteNumber":72,"Velocity":44,"Duration":153061,"SoundDuration":153061,"Delta":291338762},{"NoteNumber":61,"Velocity":30,"Duration":306122,"SoundDuration":306122,"Delta":291338762},{"NoteNumber":70,"Velocity":40,"Duration":153061,"SoundDuration":153061,"Delta":291491823},{"NoteNumber":69,"Velocity":43,"Duration":153061,"SoundDuration":153061,"Delta":291644885},{"NoteNumber":58,"Velocity":30,"Duration":325474,"SoundDuration":325474,"Delta":291644885},{"NoteNumber":70,"Velocity":40,"Duration":172413,"SoundDuration":172413,"Delta":291797946},{"NoteNumber":73,"Velocity":46,"Duration":285714,"SoundDuration":285714,"Delta":291970360},{"NoteNumber":42,"Velocity":31,"Duration":142857,"SoundDuration":142857,"Delta":291970360},{"NoteNumber":54,"Velocity":37,"Duration":142857,"SoundDuration":142857,"Delta":291970360},{"NoteNumber":94,"Velocity":35,"Duration":95238,"SoundDuration":95238,"Delta":292256074},{"NoteNumber":58,"Velocity":19,"Duration":285714,"SoundDuration":285714,"Delta":292256074},{"NoteNumber":92,"Velocity":35,"Duration":95238,"SoundDuration":95238,"Delta":292351312},{"NoteNumber":90,"Velocity":35,"Duration":95238,"SoundDuration":95238,"Delta":292446550},{"NoteNumber":89,"Velocity":36,"Duration":95238,"SoundDuration":95238,"Delta":292541788},{"NoteNumber":61,"Velocity":19,"Duration":288479,"SoundDuration":288479,"Delta":292541788},{"NoteNumber":87,"Velocity":36,"Duration":96153,"SoundDuration":96153,"Delta":292637026},{"NoteNumber":85,"Velocity":37,"Duration":97087,"SoundDuration":97087,"Delta":292733180},{"NoteNumber":84,"Velocity":37,"Duration":98039,"SoundDuration":98039,"Delta":292830267},{"NoteNumber":66,"Velocity":19,"Duration":297049,"SoundDuration":297049,"Delta":292830267},{"NoteNumber":82,"Velocity":38,"Duration":99009,"SoundDuration":99009,"Delta":292928307},{"NoteNumber":80,"Velocity":38,"Duration":100000,"SoundDuration":100000,"Delta":293027317},{"NoteNumber":78,"Velocity":38,"Duration":101010,"SoundDuration":101010,"Delta":293127317},{"NoteNumber":61,"Velocity":19,"Duration":306143,"SoundDuration":306143,"Delta":293127317},{"NoteNumber":77,"Velocity":39,"Duration":102040,"SoundDuration":102040,"Delta":293228327},{"NoteNumber":75,"Velocity":39,"Duration":103092,"SoundDuration":103092,"Delta":293330367},{"NoteNumber":73,"Velocity":40,"Duration":104166,"SoundDuration":104166,"Delta":293433460},{"NoteNumber":58,"Velocity":19,"Duration":328663,"SoundDuration":328663,"Delta":293433460},{"NoteNumber":72,"Velocity":40,"Duration":109554,"SoundDuration":109554,"Delta":293537627},{"NoteNumber":70,"Velocity":42,"Duration":114942,"SoundDuration":114942,"Delta":293647181},{"NoteNumber":65,"Velocity":34,"Duration":57471,"SoundDuration":57471,"Delta":293704653},{"NoteNumber":68,"Velocity":46,"Duration":882353,"SoundDuration":882353,"Delta":293762124},{"NoteNumber":49,"Velocity":37,"Duration":147058,"SoundDuration":147058,"Delta":293762124},{"NoteNumber":37,"Velocity":31,"Duration":147058,"SoundDuration":147058,"Delta":293762124},{"NoteNumber":56,"Velocity":30,"Duration":294117,"SoundDuration":294117,"Delta":294056242},{"NoteNumber":61,"Velocity":30,"Duration":294117,"SoundDuration":294117,"Delta":294350359},{"NoteNumber":67,"Velocity":43,"Duration":147058,"SoundDuration":147058,"Delta":294644477},{"NoteNumber":65,"Velocity":30,"Duration":294117,"SoundDuration":294117,"Delta":294644477},{"NoteNumber":68,"Velocity":40,"Duration":147058,"SoundDuration":147058,"Delta":294791536},{"NoteNumber":67,"Velocity":44,"Duration":153061,"SoundDuration":153061,"Delta":294938595},{"NoteNumber":61,"Velocity":30,"Duration":306122,"SoundDuration":306122,"Delta":294938595},{"NoteNumber":68,"Velocity":40,"Duration":153061,"SoundDuration":153061,"Delta":295091656},{"NoteNumber":70,"Velocity":44,"Duration":153061,"SoundDuration":153061,"Delta":295244717},{"NoteNumber":56,"Velocity":30,"Duration":325474,"SoundDuration":325474,"Delta":295244717},{"NoteNumber":68,"Velocity":40,"Duration":172413,"SoundDuration":172413,"Delta":295397779},{"NoteNumber":65,"Velocity":46,"Duration":1791764,"SoundDuration":1791764,"Delta":295570192},{"NoteNumber":49,"Velocity":37,"Duration":142857,"SoundDuration":142857,"Delta":295570192},{"NoteNumber":37,"Velocity":31,"Duration":142857,"SoundDuration":142857,"Delta":295570192},{"NoteNumber":89,"Velocity":35,"Duration":95238,"SoundDuration":95238,"Delta":295855907},{"NoteNumber":56,"Velocity":19,"Duration":285714,"SoundDuration":285714,"Delta":295855907},{"NoteNumber":87,"Velocity":35,"Duration":95238,"SoundDuration":95238,"Delta":295951145},{"NoteNumber":85,"Velocity":35,"Duration":95238,"SoundDuration":95238,"Delta":296046383},{"NoteNumber":84,"Velocity":36,"Duration":95238,"SoundDuration":95238,"Delta":296141621},{"NoteNumber":61,"Velocity":19,"Duration":288479,"SoundDuration":288479,"Delta":296141621},{"NoteNumber":82,"Velocity":36,"Duration":96153,"SoundDuration":96153,"Delta":296236859},{"NoteNumber":80,"Velocity":37,"Duration":97087,"SoundDuration":97087,"Delta":296333013},{"NoteNumber":78,"Velocity":37,"Duration":98039,"SoundDuration":98039,"Delta":296430100},{"NoteNumber":65,"Velocity":19,"Duration":297049,"SoundDuration":297049,"Delta":296430100},{"NoteNumber":77,"Velocity":38,"Duration":99009,"SoundDuration":99009,"Delta":296528140},{"NoteNumber":75,"Velocity":38,"Duration":100000,"SoundDuration":100000,"Delta":296627149},{"NoteNumber":73,"Velocity":38,"Duration":101010,"SoundDuration":101010,"Delta":296727149},{"NoteNumber":61,"Velocity":19,"Duration":306143,"SoundDuration":306143,"Delta":296727149},{"NoteNumber":72,"Velocity":39,"Duration":102040,"SoundDuration":102040,"Delta":296828160},{"NoteNumber":70,"Velocity":39,"Duration":103092,"SoundDuration":103092,"Delta":296930200},{"NoteNumber":68,"Velocity":40,"Duration":104166,"SoundDuration":104166,"Delta":297033293},{"NoteNumber":56,"Velocity":19,"Duration":328663,"SoundDuration":328663,"Delta":297033293},{"NoteNumber":66,"Velocity":40,"Duration":109554,"SoundDuration":109554,"Delta":297137460},{"NoteNumber":65,"Velocity":42,"Duration":114942,"SoundDuration":114942,"Delta":297247014},{"NoteNumber":66,"Velocity":34,"Duration":57471,"SoundDuration":57471,"Delta":297304486},{"NoteNumber":70,"Velocity":46,"Duration":882353,"SoundDuration":882353,"Delta":297361957},{"NoteNumber":54,"Velocity":37,"Duration":147058,"SoundDuration":147058,"Delta":297361957},{"NoteNumber":42,"Velocity":31,"Duration":147058,"SoundDuration":147058,"Delta":297361957},{"NoteNumber":58,"Velocity":30,"Duration":294117,"SoundDuration":294117,"Delta":297656075},{"NoteNumber":60,"Velocity":30,"Duration":294117,"SoundDuration":294117,"Delta":297950192},{"NoteNumber":69,"Velocity":43,"Duration":147058,"SoundDuration":147058,"Delta":298244310},{"NoteNumber":66,"Velocity":30,"Duration":294117,"SoundDuration":294117,"Delta":298244310},{"NoteNumber":70,"Velocity":40,"Duration":147058,"SoundDuration":147058,"Delta":298391369},{"NoteNumber":72,"Velocity":43,"Duration":153061,"SoundDuration":153061,"Delta":298538428},{"NoteNumber":61,"Velocity":30,"Duration":306122,"SoundDuration":306122,"Delta":298538428},{"NoteNumber":70,"Velocity":40,"Duration":153061,"SoundDuration":153061,"Delta":298691489},{"NoteNumber":69,"Velocity":43,"Duration":153061,"SoundDuration":153061,"Delta":298844550},{"NoteNumber":58,"Velocity":30,"Duration":325474,"SoundDuration":325474,"Delta":298844550},{"NoteNumber":70,"Velocity":40,"Duration":172413,"SoundDuration":172413,"Delta":298997612},{"NoteNumber":73,"Velocity":46,"Duration":285714,"SoundDuration":285714,"Delta":299170025},{"NoteNumber":54,"Velocity":37,"Duration":142857,"SoundDuration":142857,"Delta":299170025},{"NoteNumber":42,"Velocity":31,"Duration":142857,"SoundDuration":142857,"Delta":299170025},{"NoteNumber":94,"Velocity":43,"Duration":95238,"SoundDuration":95238,"Delta":299455740},{"NoteNumber":58,"Velocity":19,"Duration":285714,"SoundDuration":285714,"Delta":299455740},{"NoteNumber":92,"Velocity":43,"Duration":95238,"SoundDuration":95238,"Delta":299550978},{"NoteNumber":90,"Velocity":43,"Duration":95238,"SoundDuration":95238,"Delta":299646216},{"NoteNumber":89,"Velocity":43,"Duration":95238,"SoundDuration":95238,"Delta":299741454},{"NoteNumber":61,"Velocity":19,"Duration":288479,"SoundDuration":288479,"Delta":299741454},{"NoteNumber":87,"Velocity":43,"Duration":96153,"SoundDuration":96153,"Delta":299836692},{"NoteNumber":85,"Velocity":42,"Duration":97087,"SoundDuration":97087,"Delta":299932846},{"NoteNumber":84,"Velocity":42,"Duration":98039,"SoundDuration":98039,"Delta":300029933},{"NoteNumber":66,"Velocity":19,"Duration":297049,"SoundDuration":297049,"Delta":300029933},{"NoteNumber":82,"Velocity":42,"Duration":99009,"SoundDuration":99009,"Delta":300127972},{"NoteNumber":80,"Velocity":42,"Duration":100000,"SoundDuration":100000,"Delta":300226982},{"NoteNumber":78,"Velocity":42,"Duration":101010,"SoundDuration":101010,"Delta":300326982},{"NoteNumber":61,"Velocity":19,"Duration":306143,"SoundDuration":306143,"Delta":300326982},{"NoteNumber":77,"Velocity":40,"Duration":102040,"SoundDuration":102040,"Delta":300427992},{"NoteNumber":75,"Velocity":40,"Duration":103092,"SoundDuration":103092,"Delta":300530033},{"NoteNumber":73,"Velocity":40,"Duration":104166,"SoundDuration":104166,"Delta":300633126},{"NoteNumber":58,"Velocity":19,"Duration":328663,"SoundDuration":328663,"Delta":300633126},{"NoteNumber":72,"Velocity":40,"Duration":109554,"SoundDuration":109554,"Delta":300737293},{"NoteNumber":70,"Velocity":40,"Duration":114942,"SoundDuration":114942,"Delta":300846847},{"NoteNumber":65,"Velocity":34,"Duration":57471,"SoundDuration":57471,"Delta":300904319},{"NoteNumber":68,"Velocity":46,"Duration":882353,"SoundDuration":882353,"Delta":300961790},{"NoteNumber":37,"Velocity":31,"Duration":147058,"SoundDuration":147058,"Delta":300961790},{"NoteNumber":49,"Velocity":37,"Duration":147058,"SoundDuration":147058,"Delta":300961790},{"NoteNumber":56,"Velocity":30,"Duration":294117,"SoundDuration":294117,"Delta":301255908},{"NoteNumber":61,"Velocity":30,"Duration":294117,"SoundDuration":294117,"Delta":301550025},{"NoteNumber":67,"Velocity":43,"Duration":147058,"SoundDuration":147058,"Delta":301844143},{"NoteNumber":65,"Velocity":30,"Duration":294117,"SoundDuration":294117,"Delta":301844143},{"NoteNumber":68,"Velocity":40,"Duration":147058,"SoundDuration":147058,"Delta":301991202},{"NoteNumber":67,"Velocity":43,"Duration":153061,"SoundDuration":153061,"Delta":302138261},{"NoteNumber":61,"Velocity":30,"Duration":306122,"SoundDuration":306122,"Delta":302138261},{"NoteNumber":68,"Velocity":40,"Duration":153061,"SoundDuration":153061,"Delta":302291322},{"NoteNumber":70,"Velocity":43,"Duration":153061,"SoundDuration":153061,"Delta":302444383},{"NoteNumber":56,"Velocity":30,"Duration":325474,"SoundDuration":325474,"Delta":302444383},{"NoteNumber":68,"Velocity":40,"Duration":172413,"SoundDuration":172413,"Delta":302597445},{"NoteNumber":65,"Velocity":46,"Duration":1791764,"SoundDuration":1791764,"Delta":302769858},{"NoteNumber":37,"Velocity":31,"Duration":142857,"SoundDuration":142857,"Delta":302769858},{"NoteNumber":49,"Velocity":37,"Duration":142857,"SoundDuration":142857,"Delta":302769858},{"NoteNumber":56,"Velocity":19,"Duration":285714,"SoundDuration":285714,"Delta":303055573},{"NoteNumber":89,"Velocity":36,"Duration":95238,"SoundDuration":95238,"Delta":303341287},{"NoteNumber":61,"Velocity":19,"Duration":288479,"SoundDuration":288479,"Delta":303341287},{"NoteNumber":87,"Velocity":36,"Duration":96153,"SoundDuration":96153,"Delta":303436525},{"NoteNumber":85,"Velocity":37,"Duration":97087,"SoundDuration":97087,"Delta":303532679},{"NoteNumber":84,"Velocity":37,"Duration":98039,"SoundDuration":98039,"Delta":303629766},{"NoteNumber":65,"Velocity":19,"Duration":297049,"SoundDuration":297049,"Delta":303629766},{"NoteNumber":82,"Velocity":38,"Duration":99009,"SoundDuration":99009,"Delta":303727805},{"NoteNumber":80,"Velocity":39,"Duration":99999,"SoundDuration":99999,"Delta":303826815},{"NoteNumber":78,"Velocity":39,"Duration":101010,"SoundDuration":101010,"Delta":303926815},{"NoteNumber":61,"Velocity":19,"Duration":306143,"SoundDuration":306143,"Delta":303926815},{"NoteNumber":77,"Velocity":40,"Duration":102040,"SoundDuration":102040,"Delta":304027825},{"NoteNumber":75,"Velocity":42,"Duration":103092,"SoundDuration":103092,"Delta":304129866},{"NoteNumber":73,"Velocity":42,"Duration":104166,"SoundDuration":104166,"Delta":304232959},{"NoteNumber":56,"Velocity":19,"Duration":328663,"SoundDuration":328663,"Delta":304232959},{"NoteNumber":72,"Velocity":43,"Duration":109554,"SoundDuration":109554,"Delta":304337126},{"NoteNumber":73,"Velocity":43,"Duration":114942,"SoundDuration":114942,"Delta":304446680},{"NoteNumber":66,"Velocity":34,"Duration":28735,"SoundDuration":28735,"Delta":304504151},{"NoteNumber":72,"Velocity":34,"Duration":28735,"SoundDuration":28735,"Delta":304532887},{"NoteNumber":75,"Velocity":46,"Duration":882353,"SoundDuration":882353,"Delta":304561623},{"NoteNumber":32,"Velocity":31,"Duration":147058,"SoundDuration":147058,"Delta":304561623},{"NoteNumber":44,"Velocity":37,"Duration":147058,"SoundDuration":147058,"Delta":304561623},{"NoteNumber":56,"Velocity":30,"Duration":294117,"SoundDuration":294117,"Delta":304855740},{"NoteNumber":60,"Velocity":30,"Duration":294117,"SoundDuration":294117,"Delta":305149858},{"NoteNumber":74,"Velocity":44,"Duration":147058,"SoundDuration":147058,"Delta":305443976},{"NoteNumber":66,"Velocity":30,"Duration":294117,"SoundDuration":294117,"Delta":305443976},{"NoteNumber":75,"Velocity":40,"Duration":147058,"SoundDuration":147058,"Delta":305591035},{"NoteNumber":77,"Velocity":44,"Duration":153061,"SoundDuration":153061,"Delta":305738094},{"NoteNumber":60,"Velocity":30,"Duration":306122,"SoundDuration":306122,"Delta":305738094},{"NoteNumber":75,"Velocity":40,"Duration":153061,"SoundDuration":153061,"Delta":305891155},{"NoteNumber":74,"Velocity":43,"Duration":153061,"SoundDuration":153061,"Delta":306044216},{"NoteNumber":56,"Velocity":30,"Duration":325474,"SoundDuration":325474,"Delta":306044216},{"NoteNumber":75,"Velocity":40,"Duration":172413,"SoundDuration":172413,"Delta":306197277},{"NoteNumber":66,"Velocity":34,"Duration":28735,"SoundDuration":28735,"Delta":306312220},{"NoteNumber":73,"Velocity":34,"Duration":28735,"SoundDuration":28735,"Delta":306340956},{"NoteNumber":78,"Velocity":46,"Duration":285714,"SoundDuration":285714,"Delta":306369691},{"NoteNumber":32,"Velocity":31,"Duration":142857,"SoundDuration":142857,"Delta":306369691},{"NoteNumber":44,"Velocity":37,"Duration":142857,"SoundDuration":142857,"Delta":306369691},{"NoteNumber":90,"Velocity":35,"Duration":95238,"SoundDuration":95238,"Delta":306655405},{"NoteNumber":56,"Velocity":19,"Duration":285714,"SoundDuration":285714,"Delta":306655405},{"NoteNumber":89,"Velocity":35,"Duration":95238,"SoundDuration":95238,"Delta":306750644},{"NoteNumber":87,"Velocity":35,"Duration":95238,"SoundDuration":95238,"Delta":306845882},{"NoteNumber":85,"Velocity":36,"Duration":95238,"SoundDuration":95238,"Delta":306941120},{"NoteNumber":60,"Velocity":19,"Duration":288479,"SoundDuration":288479,"Delta":306941120},{"NoteNumber":84,"Velocity":36,"Duration":96153,"SoundDuration":96153,"Delta":307036358},{"NoteNumber":82,"Velocity":37,"Duration":97087,"SoundDuration":97087,"Delta":307132512},{"NoteNumber":80,"Velocity":37,"Duration":98039,"SoundDuration":98039,"Delta":307229599},{"NoteNumber":66,"Velocity":19,"Duration":297049,"SoundDuration":297049,"Delta":307229599},{"NoteNumber":78,"Velocity":38,"Duration":99009,"SoundDuration":99009,"Delta":307327638},{"NoteNumber":77,"Velocity":38,"Duration":99999,"SoundDuration":99999,"Delta":307426648},{"NoteNumber":75,"Velocity":39,"Duration":101010,"SoundDuration":101010,"Delta":307526648},{"NoteNumber":60,"Velocity":19,"Duration":306143,"SoundDuration":306143,"Delta":307526648},{"NoteNumber":73,"Velocity":39,"Duration":102040,"SoundDuration":102040,"Delta":307627658},{"NoteNumber":72,"Velocity":40,"Duration":103092,"SoundDuration":103092,"Delta":307729699},{"NoteNumber":70,"Velocity":40,"Duration":104166,"SoundDuration":104166,"Delta":307832792},{"NoteNumber":56,"Velocity":19,"Duration":328663,"SoundDuration":328663,"Delta":307832792},{"NoteNumber":68,"Velocity":42,"Duration":109554,"SoundDuration":109554,"Delta":307936959},{"NoteNumber":66,"Velocity":42,"Duration":114942,"SoundDuration":114942,"Delta":308046513},{"NoteNumber":65,"Velocity":39,"Duration":882353,"SoundDuration":882353,"Delta":308161456},{"NoteNumber":73,"Velocity":46,"Duration":882353,"SoundDuration":882353,"Delta":308161456},{"NoteNumber":37,"Velocity":31,"Duration":147058,"SoundDuration":147058,"Delta":308161456},{"NoteNumber":49,"Velocity":37,"Duration":147058,"SoundDuration":147058,"Delta":308161456},{"NoteNumber":56,"Velocity":30,"Duration":294117,"SoundDuration":294117,"Delta":308455573},{"NoteNumber":61,"Velocity":30,"Duration":294117,"SoundDuration":294117,"Delta":308749691},{"NoteNumber":72,"Velocity":44,"Duration":147058,"SoundDuration":147058,"Delta":309043809},{"NoteNumber":65,"Velocity":30,"Duration":294117,"SoundDuration":294117,"Delta":309043809},{"NoteNumber":73,"Velocity":40,"Duration":147058,"SoundDuration":147058,"Delta":309190868},{"NoteNumber":75,"Velocity":44,"Duration":153061,"SoundDuration":153061,"Delta":309337927},{"NoteNumber":61,"Velocity":30,"Duration":306122,"SoundDuration":306122,"Delta":309337927},{"NoteNumber":73,"Velocity":40,"Duration":153061,"SoundDuration":153061,"Delta":309490988},{"NoteNumber":72,"Velocity":44,"Duration":153061,"SoundDuration":153061,"Delta":309644049},{"NoteNumber":56,"Velocity":30,"Duration":325474,"SoundDuration":325474,"Delta":309644049},{"NoteNumber":73,"Velocity":40,"Duration":172413,"SoundDuration":172413,"Delta":309797110},{"NoteNumber":65,"Velocity":46,"Duration":285714,"SoundDuration":285714,"Delta":309969524},{"NoteNumber":77,"Velocity":46,"Duration":285714,"SoundDuration":285714,"Delta":309969524},{"NoteNumber":37,"Velocity":31,"Duration":142857,"SoundDuration":142857,"Delta":309969524},{"NoteNumber":49,"Velocity":37,"Duration":142857,"SoundDuration":142857,"Delta":309969524},{"NoteNumber":90,"Velocity":40,"Duration":95238,"SoundDuration":95238,"Delta":310255238},{"NoteNumber":56,"Velocity":19,"Duration":285714,"SoundDuration":285714,"Delta":310255238},{"NoteNumber":89,"Velocity":40,"Duration":95238,"SoundDuration":95238,"Delta":310350476},{"NoteNumber":87,"Velocity":40,"Duration":95238,"SoundDuration":95238,"Delta":310445715},{"NoteNumber":85,"Velocity":40,"Duration":95238,"SoundDuration":95238,"Delta":310540953},{"NoteNumber":61,"Velocity":19,"Duration":288479,"SoundDuration":288479,"Delta":310540953},{"NoteNumber":84,"Velocity":40,"Duration":96153,"SoundDuration":96153,"Delta":310636191},{"NoteNumber":82,"Velocity":39,"Duration":97087,"SoundDuration":97087,"Delta":310732345},{"NoteNumber":80,"Velocity":39,"Duration":98039,"SoundDuration":98039,"Delta":310829432},{"NoteNumber":65,"Velocity":19,"Duration":297049,"SoundDuration":297049,"Delta":310829432},{"NoteNumber":78,"Velocity":39,"Duration":99009,"SoundDuration":99009,"Delta":310927471},{"NoteNumber":77,"Velocity":39,"Duration":99999,"SoundDuration":99999,"Delta":311026481},{"NoteNumber":75,"Velocity":38,"Duration":101010,"SoundDuration":101010,"Delta":311126481},{"NoteNumber":61,"Velocity":19,"Duration":306143,"SoundDuration":306143,"Delta":311126481},{"NoteNumber":73,"Velocity":38,"Duration":102040,"SoundDuration":102040,"Delta":311227491},{"NoteNumber":72,"Velocity":38,"Duration":103092,"SoundDuration":103092,"Delta":311329532},{"NoteNumber":70,"Velocity":38,"Duration":104166,"SoundDuration":104166,"Delta":311432625},{"NoteNumber":56,"Velocity":19,"Duration":328663,"SoundDuration":328663,"Delta":311432625},{"NoteNumber":68,"Velocity":38,"Duration":109554,"SoundDuration":109554,"Delta":311536791},{"NoteNumber":66,"Velocity":39,"Duration":114942,"SoundDuration":114942,"Delta":311646346},{"NoteNumber":65,"Velocity":34,"Duration":57471,"SoundDuration":57471,"Delta":311703817},{"NoteNumber":73,"Velocity":46,"Duration":937500,"SoundDuration":937500,"Delta":311761289},{"NoteNumber":49,"Velocity":34,"Duration":156250,"SoundDuration":156250,"Delta":311761289},{"NoteNumber":37,"Velocity":28,"Duration":156250,"SoundDuration":156250,"Delta":311761289},{"NoteNumber":53,"Velocity":23,"Duration":312500,"SoundDuration":312500,"Delta":312073789},{"NoteNumber":56,"Velocity":23,"Duration":312500,"SoundDuration":312500,"Delta":312386289},{"NoteNumber":68,"Velocity":39,"Duration":288461,"SoundDuration":288461,"Delta":312698789},{"NoteNumber":61,"Velocity":23,"Duration":288461,"SoundDuration":288461,"Delta":312698789},{"NoteNumber":65,"Velocity":39,"Duration":638298,"SoundDuration":638298,"Delta":312987250},{"NoteNumber":56,"Velocity":23,"Duration":319148,"SoundDuration":319148,"Delta":312987250},{"NoteNumber":53,"Velocity":23,"Duration":319149,"SoundDuration":319149,"Delta":313306399},{"NoteNumber":68,"Velocity":43,"Duration":937500,"SoundDuration":937500,"Delta":313625548},{"NoteNumber":60,"Velocity":36,"Duration":937500,"SoundDuration":937500,"Delta":313625548},{"NoteNumber":32,"Velocity":27,"Duration":156250,"SoundDuration":156250,"Delta":313625548},{"NoteNumber":44,"Velocity":32,"Duration":156250,"SoundDuration":156250,"Delta":313625548},{"NoteNumber":44,"Velocity":24,"Duration":312500,"SoundDuration":312500,"Delta":313938048},{"NoteNumber":48,"Velocity":24,"Duration":312500,"SoundDuration":312500,"Delta":314250548},{"NoteNumber":66,"Velocity":40,"Duration":312500,"SoundDuration":312500,"Delta":314563048},{"NoteNumber":51,"Velocity":24,"Duration":312500,"SoundDuration":312500,"Delta":314563048},{"NoteNumber":63,"Velocity":40,"Duration":658623,"SoundDuration":658623,"Delta":314875548},{"NoteNumber":54,"Velocity":24,"Duration":312500,"SoundDuration":312500,"Delta":314875548},{"NoteNumber":56,"Velocity":24,"Duration":346123,"SoundDuration":346123,"Delta":315188048},{"NoteNumber":77,"Velocity":25,"Duration":31645,"SoundDuration":31645,"Delta":315470880},{"NoteNumber":80,"Velocity":25,"Duration":31645,"SoundDuration":31645,"Delta":315502526},{"NoteNumber":89,"Velocity":40,"Duration":903507,"SoundDuration":903507,"Delta":315534171},{"NoteNumber":49,"Velocity":29,"Duration":153061,"SoundDuration":153061,"Delta":315534171},{"NoteNumber":37,"Velocity":24,"Duration":153061,"SoundDuration":153061,"Delta":315534171},{"NoteNumber":56,"Velocity":18,"Duration":306122,"SoundDuration":306122,"Delta":315840294},{"NoteNumber":61,"Velocity":18,"Duration":291262,"SoundDuration":291262,"Delta":316146416},{"NoteNumber":85,"Velocity":36,"Duration":72815,"SoundDuration":72815,"Delta":316292048},{"NoteNumber":80,"Velocity":36,"Duration":72815,"SoundDuration":72815,"Delta":316437679},{"NoteNumber":65,"Velocity":18,"Duration":291262,"SoundDuration":291262,"Delta":316437679},{"NoteNumber":77,"Velocity":36,"Duration":72815,"SoundDuration":72815,"Delta":316583310},{"NoteNumber":73,"Velocity":36,"Duration":72815,"SoundDuration":72815,"Delta":316728941},{"NoteNumber":61,"Velocity":18,"Duration":291262,"SoundDuration":291262,"Delta":316728941},{"NoteNumber":68,"Velocity":36,"Duration":72815,"SoundDuration":72815,"Delta":316874572},{"NoteNumber":65,"Velocity":36,"Duration":80645,"SoundDuration":80645,"Delta":317020203},{"NoteNumber":56,"Velocity":18,"Duration":322580,"SoundDuration":322580,"Delta":317020203},{"NoteNumber":61,"Velocity":36,"Duration":80645,"SoundDuration":80645,"Delta":317181494},{"NoteNumber":60,"Velocity":25,"Duration":26881,"SoundDuration":26881,"Delta":317289020},{"NoteNumber":66,"Velocity":25,"Duration":26881,"SoundDuration":26881,"Delta":317315902},{"NoteNumber":70,"Velocity":39,"Duration":918367,"SoundDuration":918367,"Delta":317342784},{"NoteNumber":32,"Velocity":22,"Duration":153061,"SoundDuration":153061,"Delta":317342784},{"NoteNumber":44,"Velocity":27,"Duration":153061,"SoundDuration":153061,"Delta":317342784},{"NoteNumber":44,"Velocity":17,"Duration":612244,"SoundDuration":612244,"Delta":317648906},{"NoteNumber":48,"Velocity":17,"Duration":306122,"SoundDuration":306122,"Delta":317955029},{"NoteNumber":68,"Velocity":35,"Duration":306122,"SoundDuration":306122,"Delta":318261151},{"NoteNumber":51,"Velocity":17,"Duration":306122,"SoundDuration":306122,"Delta":318261151},{"NoteNumber":63,"Velocity":35,"Duration":306122,"SoundDuration":306122,"Delta":318567274},{"NoteNumber":54,"Velocity":17,"Duration":306122,"SoundDuration":306122,"Delta":318567274},{"NoteNumber":65,"Velocity":35,"Duration":306122,"SoundDuration":306122,"Delta":318873396},{"NoteNumber":56,"Velocity":17,"Duration":306122,"SoundDuration":306122,"Delta":318873396},{"NoteNumber":61,"Velocity":35,"Duration":153061,"SoundDuration":153061,"Delta":319179519},{"NoteNumber":49,"Velocity":14,"Duration":612245,"SoundDuration":612245,"Delta":319179519},{"NoteNumber":53,"Velocity":17,"Duration":612245,"SoundDuration":612245,"Delta":319179519},{"NoteNumber":65,"Velocity":32,"Duration":153061,"SoundDuration":153061,"Delta":319332580},{"NoteNumber":56,"Velocity":32,"Duration":153061,"SoundDuration":153061,"Delta":319485641},{"NoteNumber":61,"Velocity":32,"Duration":153061,"SoundDuration":153061,"Delta":319638703},{"NoteNumber":65,"Velocity":36,"Duration":149999,"SoundDuration":149999,"Delta":319791764},{"NoteNumber":49,"Velocity":14,"Duration":611330,"SoundDuration":611330,"Delta":319791764},{"NoteNumber":53,"Velocity":14,"Duration":611330,"SoundDuration":611330,"Delta":319791764},{"NoteNumber":56,"Velocity":17,"Duration":611330,"SoundDuration":611330,"Delta":319791764},{"NoteNumber":68,"Velocity":35,"Duration":152030,"SoundDuration":152030,"Delta":319941764},{"NoteNumber":73,"Velocity":35,"Duration":153587,"SoundDuration":153587,"Delta":320093794},{"NoteNumber":77,"Velocity":35,"Duration":155713,"SoundDuration":155713,"Delta":320247382},{"NoteNumber":80,"Velocity":34,"Duration":157894,"SoundDuration":157894,"Delta":320403095},{"NoteNumber":61,"Velocity":14,"Duration":644153,"SoundDuration":644153,"Delta":320403095},{"NoteNumber":65,"Velocity":17,"Duration":644153,"SoundDuration":644153,"Delta":320403095},{"NoteNumber":56,"Velocity":14,"Duration":644153,"SoundDuration":644153,"Delta":320403095},{"NoteNumber":85,"Velocity":34,"Duration":160146,"SoundDuration":160146,"Delta":320560989},{"NoteNumber":89,"Velocity":34,"Duration":161874,"SoundDuration":161874,"Delta":320721136},{"NoteNumber":92,"Velocity":34,"Duration":164237,"SoundDuration":164237,"Delta":320883011},{"NoteNumber":97,"Velocity":38,"Duration":611110,"SoundDuration":611110,"Delta":321047249},{"NoteNumber":61,"Velocity":14,"Duration":666666,"SoundDuration":666666,"Delta":321047249},{"NoteNumber":65,"Velocity":17,"Duration":666666,"SoundDuration":666666,"Delta":321047249},{"NoteNumber":56,"Velocity":14,"Duration":666666,"SoundDuration":666666,"Delta":321047249},{"NoteNumber":68,"Velocity":53,"Duration":499999,"SoundDuration":499999,"Delta":321713915},{"NoteNumber":68,"Velocity":53,"Duration":496023,"SoundDuration":496023,"Delta":322380582},{"NoteNumber":60,"Velocity":35,"Duration":31079,"SoundDuration":31079,"Delta":323000921},{"NoteNumber":63,"Velocity":36,"Duration":31079,"SoundDuration":31079,"Delta":323032000},{"NoteNumber":68,"Velocity":53,"Duration":912865,"SoundDuration":912865,"Delta":323063079},{"NoteNumber":44,"Velocity":38,"Duration":304592,"SoundDuration":304592,"Delta":323063079},{"NoteNumber":32,"Velocity":32,"Duration":304592,"SoundDuration":304592,"Delta":323063079},{"NoteNumber":56,"Velocity":31,"Duration":304136,"SoundDuration":304136,"Delta":323367672},{"NoteNumber":60,"Velocity":31,"Duration":304136,"SoundDuration":304136,"Delta":323671808},{"NoteNumber":70,"Velocity":48,"Duration":304136,"SoundDuration":304136,"Delta":323975944},{"NoteNumber":66,"Velocity":31,"Duration":304136,"SoundDuration":304136,"Delta":323975944},{"NoteNumber":68,"Velocity":48,"Duration":608339,"SoundDuration":608339,"Delta":324280080},{"NoteNumber":60,"Velocity":31,"Duration":304136,"SoundDuration":304136,"Delta":324280080},{"NoteNumber":56,"Velocity":31,"Duration":331858,"SoundDuration":331858,"Delta":324584216},{"NoteNumber":68,"Velocity":39,"Duration":55309,"SoundDuration":55309,"Delta":324860765},{"NoteNumber":72,"Velocity":39,"Duration":27654,"SoundDuration":27654,"Delta":324888420},{"NoteNumber":78,"Velocity":63,"Duration":760340,"SoundDuration":760340,"Delta":324916075},{"NoteNumber":32,"Velocity":32,"Duration":304136,"SoundDuration":304136,"Delta":324916075},{"NoteNumber":44,"Velocity":38,"Duration":304136,"SoundDuration":304136,"Delta":324916075},{"NoteNumber":56,"Velocity":38,"Duration":304136,"SoundDuration":304136,"Delta":325220211},{"NoteNumber":60,"Velocity":30,"Duration":304136,"SoundDuration":304136,"Delta":325524348},{"NoteNumber":68,"Velocity":46,"Duration":152068,"SoundDuration":152068,"Delta":325676416},{"NoteNumber":67,"Velocity":46,"Duration":145999,"SoundDuration":145999,"Delta":325828484},{"NoteNumber":66,"Velocity":30,"Duration":291999,"SoundDuration":291999,"Delta":325828484},{"NoteNumber":68,"Velocity":46,"Duration":145999,"SoundDuration":145999,"Delta":325974483},{"NoteNumber":70,"Velocity":46,"Duration":145999,"SoundDuration":145999,"Delta":326120483},{"NoteNumber":60,"Velocity":30,"Duration":291999,"SoundDuration":291999,"Delta":326120483},{"NoteNumber":68,"Velocity":46,"Duration":145999,"SoundDuration":145999,"Delta":326266483},{"NoteNumber":67,"Velocity":46,"Duration":145999,"SoundDuration":145999,"Delta":326412482},{"NoteNumber":56,"Velocity":30,"Duration":308231,"SoundDuration":308231,"Delta":326412482},{"NoteNumber":68,"Velocity":46,"Duration":162232,"SoundDuration":162232,"Delta":326558482},{"NoteNumber":65,"Velocity":39,"Duration":27038,"SoundDuration":27038,"Delta":326693676},{"NoteNumber":68,"Velocity":53,"Duration":893743,"SoundDuration":893743,"Delta":326720714},{"NoteNumber":37,"Velocity":32,"Duration":297914,"SoundDuration":297914,"Delta":326720714},{"NoteNumber":49,"Velocity":38,"Duration":297914,"SoundDuration":297914,"Delta":326720714},{"NoteNumber":56,"Velocity":31,"Duration":297914,"SoundDuration":297914,"Delta":327018629},{"NoteNumber":61,"Velocity":31,"Duration":297914,"SoundDuration":297914,"Delta":327316543},{"NoteNumber":70,"Velocity":48,"Duration":285714,"SoundDuration":285714,"Delta":327614458},{"NoteNumber":65,"Velocity":31,"Duration":285714,"SoundDuration":285714,"Delta":327614458},{"NoteNumber":68,"Velocity":48,"Duration":603107,"SoundDuration":603107,"Delta":327900172},{"NoteNumber":61,"Velocity":31,"Duration":285714,"SoundDuration":285714,"Delta":327900172},{"NoteNumber":56,"Velocity":31,"Duration":317393,"SoundDuration":317393,"Delta":328185886},{"NoteNumber":65,"Velocity":39,"Duration":26449,"SoundDuration":26449,"Delta":328450381},{"NoteNumber":68,"Velocity":39,"Duration":26449,"SoundDuration":26449,"Delta":328476830},{"NoteNumber":77,"Velocity":63,"Duration":760340,"SoundDuration":760340,"Delta":328503280},{"NoteNumber":49,"Velocity":38,"Duration":304136,"SoundDuration":304136,"Delta":328503280},{"NoteNumber":37,"Velocity":32,"Duration":304136,"SoundDuration":304136,"Delta":328503280},{"NoteNumber":56,"Velocity":38,"Duration":304136,"SoundDuration":304136,"Delta":328807416},{"NoteNumber":61,"Velocity":30,"Duration":304136,"SoundDuration":304136,"Delta":329111552},{"NoteNumber":77,"Velocity":46,"Duration":152068,"SoundDuration":152068,"Delta":329263620},{"NoteNumber":75,"Velocity":46,"Duration":145999,"SoundDuration":145999,"Delta":329415688},{"NoteNumber":65,"Velocity":30,"Duration":291999,"SoundDuration":291999,"Delta":329415688},{"NoteNumber":73,"Velocity":46,"Duration":145999,"SoundDuration":145999,"Delta":329561688},{"NoteNumber":72,"Velocity":46,"Duration":145999,"SoundDuration":145999,"Delta":329707688},{"NoteNumber":61,"Velocity":30,"Duration":291999,"SoundDuration":291999,"Delta":329707688},{"NoteNumber":73,"Velocity":46,"Duration":145999,"SoundDuration":145999,"Delta":329853687},{"NoteNumber":75,"Velocity":46,"Duration":145999,"SoundDuration":145999,"Delta":329999687},{"NoteNumber":56,"Velocity":30,"Duration":308231,"SoundDuration":308231,"Delta":329999687},{"NoteNumber":73,"Velocity":46,"Duration":162232,"SoundDuration":162232,"Delta":330145686},{"NoteNumber":72,"Velocity":39,"Duration":27038,"SoundDuration":27038,"Delta":330280880},{"NoteNumber":78,"Velocity":65,"Duration":144564,"SoundDuration":144564,"Delta":330307919},{"NoteNumber":32,"Velocity":32,"Duration":289128,"SoundDuration":289128,"Delta":330307919},{"NoteNumber":44,"Velocity":38,"Duration":289128,"SoundDuration":289128,"Delta":330307919},{"NoteNumber":80,"Velocity":47,"Duration":96376,"SoundDuration":96376,"Delta":330597048},{"NoteNumber":56,"Velocity":31,"Duration":289128,"SoundDuration":289128,"Delta":330597048},{"NoteNumber":78,"Velocity":47,"Duration":96376,"SoundDuration":96376,"Delta":330693424},{"NoteNumber":77,"Velocity":47,"Duration":96376,"SoundDuration":96376,"Delta":330789800},{"NoteNumber":78,"Velocity":59,"Duration":300963,"SoundDuration":300963,"Delta":330886176},{"NoteNumber":60,"Velocity":31,"Duration":300963,"SoundDuration":300963,"Delta":330886176},{"NoteNumber":80,"Velocity":54,"Duration":294927,"SoundDuration":294927,"Delta":331187139},{"NoteNumber":66,"Velocity":31,"Duration":294927,"SoundDuration":294927,"Delta":331187139},{"NoteNumber":82,"Velocity":59,"Duration":291999,"SoundDuration":291999,"Delta":331482067},{"NoteNumber":60,"Velocity":31,"Duration":291999,"SoundDuration":291999,"Delta":331482067},{"NoteNumber":78,"Velocity":50,"Duration":302969,"SoundDuration":302969,"Delta":331774066},{"NoteNumber":56,"Velocity":31,"Duration":302969,"SoundDuration":302969,"Delta":331774066},{"NoteNumber":66,"Velocity":39,"Duration":26161,"SoundDuration":26161,"Delta":332024712},{"NoteNumber":72,"Velocity":39,"Duration":26161,"SoundDuration":26161,"Delta":332050873},{"NoteNumber":75,"Velocity":65,"Duration":144564,"SoundDuration":144564,"Delta":332077035},{"NoteNumber":44,"Velocity":38,"Duration":289128,"SoundDuration":289128,"Delta":332077035},{"NoteNumber":32,"Velocity":32,"Duration":289128,"SoundDuration":289128,"Delta":332077035},{"NoteNumber":77,"Velocity":47,"Duration":96376,"SoundDuration":96376,"Delta":332366164},{"NoteNumber":56,"Velocity":38,"Duration":289128,"SoundDuration":289128,"Delta":332366164},{"NoteNumber":75,"Velocity":47,"Duration":96376,"SoundDuration":96376,"Delta":332462540},{"NoteNumber":74,"Velocity":47,"Duration":96376,"SoundDuration":96376,"Delta":332558916},{"NoteNumber":75,"Velocity":59,"Duration":300963,"SoundDuration":300963,"Delta":332655292},{"NoteNumber":60,"Velocity":30,"Duration":300963,"SoundDuration":300963,"Delta":332655292},{"NoteNumber":77,"Velocity":54,"Duration":289128,"SoundDuration":289128,"Delta":332956255},{"NoteNumber":66,"Velocity":31,"Duration":289128,"SoundDuration":289128,"Delta":332956255},{"NoteNumber":78,"Velocity":59,"Duration":300963,"SoundDuration":300963,"Delta":333245384},{"NoteNumber":60,"Velocity":30,"Duration":300963,"SoundDuration":300963,"Delta":333245384},{"NoteNumber":72,"Velocity":50,"Duration":305793,"SoundDuration":305793,"Delta":333546347},{"NoteNumber":56,"Velocity":30,"Duration":305793,"SoundDuration":305793,"Delta":333546347},{"NoteNumber":65,"Velocity":39,"Duration":25885,"SoundDuration":25885,"Delta":333800370},{"NoteNumber":68,"Velocity":39,"Duration":25885,"SoundDuration":25885,"Delta":333826255},{"NoteNumber":75,"Velocity":65,"Duration":728739,"SoundDuration":728739,"Delta":333852140},{"NoteNumber":49,"Velocity":38,"Duration":289128,"SoundDuration":289128,"Delta":333852140},{"NoteNumber":37,"Velocity":32,"Duration":289128,"SoundDuration":289128,"Delta":333852140},{"NoteNumber":56,"Velocity":38,"Duration":289128,"SoundDuration":289128,"Delta":334141269},{"NoteNumber":61,"Velocity":30,"Duration":300963,"SoundDuration":300963,"Delta":334430398},{"NoteNumber":73,"Velocity":47,"Duration":100321,"SoundDuration":100321,"Delta":334580879},{"NoteNumber":72,"Velocity":47,"Duration":96376,"SoundDuration":96376,"Delta":334731361},{"NoteNumber":65,"Velocity":31,"Duration":289128,"SoundDuration":289128,"Delta":334731361},{"NoteNumber":73,"Velocity":47,"Duration":96376,"SoundDuration":96376,"Delta":334875925},{"NoteNumber":72,"Velocity":47,"Duration":96376,"SoundDuration":96376,"Delta":335020490},{"NoteNumber":61,"Velocity":30,"Duration":289128,"SoundDuration":289128,"Delta":335020490},{"NoteNumber":73,"Velocity":47,"Duration":96376,"SoundDuration":96376,"Delta":335165054},{"NoteNumber":77,"Velocity":47,"Duration":96376,"SoundDuration":96376,"Delta":335309618},{"NoteNumber":56,"Velocity":30,"Duration":297398,"SoundDuration":297398,"Delta":335309618},{"NoteNumber":73,"Velocity":47,"Duration":104646,"SoundDuration":104646,"Delta":335454183},{"NoteNumber":68,"Velocity":47,"Duration":1191658,"SoundDuration":1191658,"Delta":335607017},{"NoteNumber":37,"Velocity":32,"Duration":297914,"SoundDuration":297914,"Delta":335607017},{"NoteNumber":49,"Velocity":38,"Duration":297914,"SoundDuration":297914,"Delta":335607017},{"NoteNumber":56,"Velocity":38,"Duration":297914,"SoundDuration":297914,"Delta":335904932},{"NoteNumber":61,"Velocity":30,"Duration":297914,"SoundDuration":297914,"Delta":336202846},{"NoteNumber":65,"Velocity":31,"Duration":297914,"SoundDuration":297914,"Delta":336500761},{"NoteNumber":73,"Velocity":47,"Duration":610913,"SoundDuration":610913,"Delta":336798675},{"NoteNumber":61,"Velocity":30,"Duration":297914,"SoundDuration":297914,"Delta":336798675},{"NoteNumber":56,"Velocity":30,"Duration":312999,"SoundDuration":312999,"Delta":337096590},{"NoteNumber":65,"Velocity":36,"Duration":27340,"SoundDuration":27340,"Delta":337354908},{"NoteNumber":71,"Velocity":38,"Duration":27340,"SoundDuration":27340,"Delta":337382249},{"NoteNumber":73,"Velocity":53,"Duration":912408,"SoundDuration":912408,"Delta":337409589},{"NoteNumber":37,"Velocity":32,"Duration":304136,"SoundDuration":304136,"Delta":337409589},{"NoteNumber":49,"Velocity":38,"Duration":304136,"SoundDuration":304136,"Delta":337409589},{"NoteNumber":56,"Velocity":31,"Duration":304136,"SoundDuration":304136,"Delta":337713725},{"NoteNumber":61,"Velocity":31,"Duration":304136,"SoundDuration":304136,"Delta":338017861},{"NoteNumber":75,"Velocity":48,"Duration":294927,"SoundDuration":294927,"Delta":338321998},{"NoteNumber":65,"Velocity":31,"Duration":294927,"SoundDuration":294927,"Delta":338321998},{"NoteNumber":73,"Velocity":48,"Duration":605550,"SoundDuration":605550,"Delta":338616925},{"NoteNumber":61,"Velocity":31,"Duration":294927,"SoundDuration":294927,"Delta":338616925},{"NoteNumber":56,"Velocity":31,"Duration":310623,"SoundDuration":310623,"Delta":338911852},{"NoteNumber":71,"Velocity":39,"Duration":25885,"SoundDuration":25885,"Delta":339170705},{"NoteNumber":73,"Velocity":39,"Duration":25885,"SoundDuration":25885,"Delta":339196590},{"NoteNumber":80,"Velocity":63,"Duration":1191658,"SoundDuration":1191658,"Delta":339222475},{"NoteNumber":37,"Velocity":32,"Duration":297914,"SoundDuration":297914,"Delta":339222475},{"NoteNumber":49,"Velocity":38,"Duration":297914,"SoundDuration":297914,"Delta":339222475},{"NoteNumber":56,"Velocity":38,"Duration":297914,"SoundDuration":297914,"Delta":339520390},{"NoteNumber":61,"Velocity":30,"Duration":297914,"SoundDuration":297914,"Delta":339818304},{"NoteNumber":65,"Velocity":30,"Duration":297914,"SoundDuration":297914,"Delta":340116219},{"NoteNumber":73,"Velocity":63,"Duration":609104,"SoundDuration":609104,"Delta":340414133},{"NoteNumber":61,"Velocity":30,"Duration":297914,"SoundDuration":297914,"Delta":340414133},{"NoteNumber":56,"Velocity":30,"Duration":311189,"SoundDuration":311189,"Delta":340712048},{"NoteNumber":66,"Velocity":39,"Duration":27038,"SoundDuration":27038,"Delta":340969160},{"NoteNumber":70,"Velocity":39,"Duration":27038,"SoundDuration":27038,"Delta":340996199},{"NoteNumber":73,"Velocity":53,"Duration":912408,"SoundDuration":912408,"Delta":341023237},{"NoteNumber":37,"Velocity":32,"Duration":304136,"SoundDuration":304136,"Delta":341023237},{"NoteNumber":49,"Velocity":38,"Duration":304136,"SoundDuration":304136,"Delta":341023237},{"NoteNumber":58,"Velocity":31,"Duration":304136,"SoundDuration":304136,"Delta":341327374},{"NoteNumber":61,"Velocity":31,"Duration":304136,"SoundDuration":304136,"Delta":341631510},{"NoteNumber":75,"Velocity":48,"Duration":294927,"SoundDuration":294927,"Delta":341935646},{"NoteNumber":66,"Velocity":31,"Duration":294927,"SoundDuration":294927,"Delta":341935646},{"NoteNumber":73,"Velocity":48,"Duration":605550,"SoundDuration":605550,"Delta":342230573},{"NoteNumber":61,"Velocity":31,"Duration":294927,"SoundDuration":294927,"Delta":342230573},{"NoteNumber":58,"Velocity":31,"Duration":310623,"SoundDuration":310623,"Delta":342525501},{"NoteNumber":69,"Velocity":35,"Duration":25885,"SoundDuration":25885,"Delta":342784353},{"NoteNumber":73,"Velocity":35,"Duration":25885,"SoundDuration":25885,"Delta":342810239},{"NoteNumber":78,"Velocity":54,"Duration":1191658,"SoundDuration":1191658,"Delta":342836124},{"NoteNumber":49,"Velocity":38,"Duration":297914,"SoundDuration":297914,"Delta":342836124},{"NoteNumber":37,"Velocity":32,"Duration":297914,"SoundDuration":297914,"Delta":342836124},{"NoteNumber":57,"Velocity":38,"Duration":297914,"SoundDuration":297914,"Delta":343134038},{"NoteNumber":61,"Velocity":30,"Duration":297914,"SoundDuration":297914,"Delta":343431953},{"NoteNumber":66,"Velocity":30,"Duration":297914,"SoundDuration":297914,"Delta":343729867},{"NoteNumber":77,"Velocity":54,"Duration":609104,"SoundDuration":609104,"Delta":344027782},{"NoteNumber":61,"Velocity":30,"Duration":297914,"SoundDuration":297914,"Delta":344027782},{"NoteNumber":56,"Velocity":30,"Duration":311189,"SoundDuration":311189,"Delta":344325696},{"NoteNumber":72,"Velocity":35,"Duration":27038,"SoundDuration":27038,"Delta":344609847},{"NoteNumber":75,"Velocity":54,"Duration":143129,"SoundDuration":143129,"Delta":344636886},{"NoteNumber":37,"Velocity":32,"Duration":572518,"SoundDuration":572518,"Delta":344636886},{"NoteNumber":49,"Velocity":38,"Duration":572518,"SoundDuration":572518,"Delta":344636886},{"NoteNumber":78,"Velocity":55,"Duration":143129,"SoundDuration":143129,"Delta":344780016},{"NoteNumber":81,"Velocity":57,"Duration":143129,"SoundDuration":143129,"Delta":344923146},{"NoteNumber":84,"Velocity":58,"Duration":143129,"SoundDuration":143129,"Delta":345066275},{"NoteNumber":87,"Velocity":59,"Duration":143129,"SoundDuration":143129,"Delta":345209405},{"NoteNumber":60,"Velocity":25,"Duration":1145037,"SoundDuration":1145037,"Delta":345209405},{"NoteNumber":63,"Velocity":25,"Duration":1145037,"SoundDuration":1145037,"Delta":345209405},{"NoteNumber":57,"Velocity":25,"Duration":1145037,"SoundDuration":1145037,"Delta":345209405},{"NoteNumber":66,"Velocity":30,"Duration":1145037,"SoundDuration":1145037,"Delta":345209405},{"NoteNumber":90,"Velocity":59,"Duration":143129,"SoundDuration":143129,"Delta":345352535},{"NoteNumber":93,"Velocity":60,"Duration":143129,"SoundDuration":143129,"Delta":345495665},{"NoteNumber":96,"Velocity":61,"Duration":143129,"SoundDuration":143129,"Delta":345638794},{"NoteNumber":99,"Velocity":63,"Duration":143129,"SoundDuration":143129,"Delta":345781924},{"NoteNumber":102,"Velocity":64,"Duration":143129,"SoundDuration":143129,"Delta":345925054},{"NoteNumber":99,"Velocity":64,"Duration":143129,"SoundDuration":143129,"Delta":346068184},{"NoteNumber":96,"Velocity":65,"Duration":143129,"SoundDuration":143129,"Delta":346211313},{"NoteNumber":93,"Velocity":66,"Duration":143129,"SoundDuration":143129,"Delta":346354443},{"NoteNumber":25,"Velocity":29,"Duration":572518,"SoundDuration":572518,"Delta":346354443},{"NoteNumber":37,"Velocity":35,"Duration":572518,"SoundDuration":572518,"Delta":346354443},{"NoteNumber":90,"Velocity":65,"Duration":143129,"SoundDuration":143129,"Delta":346497573},{"NoteNumber":87,"Velocity":65,"Duration":143129,"SoundDuration":143129,"Delta":346640703},{"NoteNumber":84,"Velocity":65,"Duration":143129,"SoundDuration":143129,"Delta":346783832},{"NoteNumber":81,"Velocity":64,"Duration":143129,"SoundDuration":143129,"Delta":346926962},{"NoteNumber":49,"Velocity":24,"Duration":1145037,"SoundDuration":1145037,"Delta":346926962},{"NoteNumber":56,"Velocity":29,"Duration":1145037,"SoundDuration":1145037,"Delta":346926962},{"NoteNumber":54,"Velocity":24,"Duration":1145037,"SoundDuration":1145037,"Delta":346926962},{"NoteNumber":51,"Velocity":24,"Duration":1145037,"SoundDuration":1145037,"Delta":346926962},{"NoteNumber":78,"Velocity":64,"Duration":143129,"SoundDuration":143129,"Delta":347070092},{"NoteNumber":75,"Velocity":65,"Duration":143129,"SoundDuration":143129,"Delta":347213222},{"NoteNumber":72,"Velocity":66,"Duration":143129,"SoundDuration":143129,"Delta":347356351},{"NoteNumber":69,"Velocity":67,"Duration":143129,"SoundDuration":143129,"Delta":347499481},{"NoteNumber":66,"Velocity":69,"Duration":143129,"SoundDuration":143129,"Delta":347642611},{"NoteNumber":63,"Velocity":69,"Duration":143129,"SoundDuration":143129,"Delta":347785741},{"NoteNumber":60,"Velocity":70,"Duration":143129,"SoundDuration":143129,"Delta":347928870},{"NoteNumber":61,"Velocity":69,"Duration":143129,"SoundDuration":143129,"Delta":348072000},{"NoteNumber":65,"Velocity":70,"Duration":143129,"SoundDuration":143129,"Delta":348215130},{"NoteNumber":56,"Velocity":69,"Duration":143129,"SoundDuration":143129,"Delta":348358260},{"NoteNumber":61,"Velocity":72,"Duration":143129,"SoundDuration":143129,"Delta":348501389},{"NoteNumber":53,"Velocity":70,"Duration":141750,"SoundDuration":141750,"Delta":348644519},{"NoteNumber":56,"Velocity":73,"Duration":143607,"SoundDuration":143607,"Delta":348786269},{"NoteNumber":49,"Velocity":72,"Duration":146359,"SoundDuration":146359,"Delta":348929877},{"NoteNumber":53,"Velocity":75,"Duration":148283,"SoundDuration":148283,"Delta":349076237},{"NoteNumber":44,"Velocity":73,"Duration":150817,"SoundDuration":150817,"Delta":349224520},{"NoteNumber":49,"Velocity":77,"Duration":152908,"SoundDuration":152908,"Delta":349375338},{"NoteNumber":41,"Velocity":75,"Duration":154515,"SoundDuration":154515,"Delta":349528247},{"NoteNumber":44,"Velocity":80,"Duration":157269,"SoundDuration":157269,"Delta":349682763},{"NoteNumber":37,"Velocity":86,"Duration":559843,"SoundDuration":559843,"Delta":349840032},{"NoteNumber":68,"Velocity":67,"Duration":326087,"SoundDuration":326087,"Delta":350480861},{"NoteNumber":68,"Velocity":67,"Duration":326087,"SoundDuration":326087,"Delta":351133035},{"NoteNumber":68,"Velocity":59,"Duration":938708,"SoundDuration":938708,"Delta":351785209},{"NoteNumber":65,"Velocity":50,"Duration":938708,"SoundDuration":938708,"Delta":351785209},{"NoteNumber":56,"Velocity":55,"Duration":1152993,"SoundDuration":1152993,"Delta":351785209},{"NoteNumber":61,"Velocity":55,"Duration":1152993,"SoundDuration":1152993,"Delta":351785209},{"NoteNumber":49,"Velocity":46,"Duration":1152993,"SoundDuration":1152993,"Delta":351785209},{"NoteNumber":70,"Velocity":57,"Duration":341269,"SoundDuration":341269,"Delta":352676299},{"NoteNumber":68,"Velocity":57,"Duration":666666,"SoundDuration":666666,"Delta":352962013},{"NoteNumber":65,"Velocity":48,"Duration":666666,"SoundDuration":666666,"Delta":352962013},{"NoteNumber":61,"Velocity":50,"Duration":666666,"SoundDuration":666666,"Delta":352962013},{"NoteNumber":49,"Velocity":42,"Duration":638888,"SoundDuration":638888,"Delta":352962013},{"NoteNumber":56,"Velocity":50,"Duration":638888,"SoundDuration":638888,"Delta":352962013},{"NoteNumber":61,"Velocity":45,"Duration":1837109,"SoundDuration":1837109,"Delta":353628679},{"NoteNumber":65,"Velocity":53,"Duration":1664695,"SoundDuration":1664695,"Delta":353628679},{"NoteNumber":56,"Velocity":46,"Duration":1837109,"SoundDuration":1837109,"Delta":353628679},{"NoteNumber":49,"Velocity":39,"Duration":1837109,"SoundDuration":1837109,"Delta":353628679},{"NoteNumber":89,"Velocity":32,"Duration":148514,"SoundDuration":148514,"Delta":353944469},{"NoteNumber":80,"Velocity":27,"Duration":148514,"SoundDuration":148514,"Delta":353944469},{"NoteNumber":85,"Velocity":32,"Duration":148514,"SoundDuration":148514,"Delta":353944469},{"NoteNumber":85,"Velocity":32,"Duration":148514,"SoundDuration":148514,"Delta":354241499},{"NoteNumber":77,"Velocity":27,"Duration":148514,"SoundDuration":148514,"Delta":354241499},{"NoteNumber":80,"Velocity":32,"Duration":148514,"SoundDuration":148514,"Delta":354241499},{"NoteNumber":80,"Velocity":32,"Duration":148514,"SoundDuration":148514,"Delta":354538528},{"NoteNumber":77,"Velocity":32,"Duration":148514,"SoundDuration":148514,"Delta":354538528},{"NoteNumber":73,"Velocity":27,"Duration":148514,"SoundDuration":148514,"Delta":354538528},{"NoteNumber":77,"Velocity":32,"Duration":149009,"SoundDuration":149009,"Delta":354835558},{"NoteNumber":73,"Velocity":32,"Duration":149009,"SoundDuration":149009,"Delta":354835558},{"NoteNumber":68,"Velocity":27,"Duration":149009,"SoundDuration":149009,"Delta":354835558},{"NoteNumber":68,"Velocity":32,"Duration":156261,"SoundDuration":156261,"Delta":355137114},{"NoteNumber":73,"Velocity":32,"Duration":156261,"SoundDuration":156261,"Delta":355137114},{"NoteNumber":65,"Velocity":27,"Duration":328675,"SoundDuration":328675,"Delta":355137114},{"NoteNumber":65,"Velocity":51,"Duration":938708,"SoundDuration":938708,"Delta":355465789},{"NoteNumber":68,"Velocity":60,"Duration":938708,"SoundDuration":938708,"Delta":355465789},{"NoteNumber":61,"Velocity":55,"Duration":1152993,"SoundDuration":1152993,"Delta":355465789},{"NoteNumber":56,"Velocity":46,"Duration":1152993,"SoundDuration":1152993,"Delta":355465789},{"NoteNumber":49,"Velocity":46,"Duration":1152993,"SoundDuration":1152993,"Delta":355465789},{"NoteNumber":70,"Velocity":58,"Duration":337797,"SoundDuration":337797,"Delta":356356878},{"NoteNumber":65,"Velocity":49,"Duration":625000,"SoundDuration":625000,"Delta":356642592},{"NoteNumber":68,"Velocity":58,"Duration":625000,"SoundDuration":625000,"Delta":356642592},{"NoteNumber":61,"Velocity":50,"Duration":625000,"SoundDuration":625000,"Delta":356642592},{"NoteNumber":56,"Velocity":42,"Duration":598958,"SoundDuration":598958,"Delta":356642592},{"NoteNumber":49,"Velocity":42,"Duration":598958,"SoundDuration":598958,"Delta":356642592},{"NoteNumber":61,"Velocity":46,"Duration":1825881,"SoundDuration":1825881,"Delta":357267592},{"NoteNumber":65,"Velocity":55,"Duration":1659214,"SoundDuration":1659214,"Delta":357267592},{"NoteNumber":56,"Velocity":46,"Duration":1798103,"SoundDuration":1798103,"Delta":357267592},{"NoteNumber":49,"Velocity":46,"Duration":1798103,"SoundDuration":1798103,"Delta":357267592},{"NoteNumber":85,"Velocity":32,"Duration":148514,"SoundDuration":148514,"Delta":357590173},{"NoteNumber":89,"Velocity":32,"Duration":148514,"SoundDuration":148514,"Delta":357590173},{"NoteNumber":80,"Velocity":27,"Duration":148514,"SoundDuration":148514,"Delta":357590173},{"NoteNumber":80,"Velocity":32,"Duration":148514,"SoundDuration":148514,"Delta":357887203},{"NoteNumber":85,"Velocity":32,"Duration":148514,"SoundDuration":148514,"Delta":357887203},{"NoteNumber":77,"Velocity":27,"Duration":148514,"SoundDuration":148514,"Delta":357887203},{"NoteNumber":73,"Velocity":27,"Duration":148514,"SoundDuration":148514,"Delta":358184233},{"NoteNumber":80,"Velocity":32,"Duration":148514,"SoundDuration":148514,"Delta":358184233},{"NoteNumber":77,"Velocity":32,"Duration":148514,"SoundDuration":148514,"Delta":358184233},{"NoteNumber":73,"Velocity":32,"Duration":148514,"SoundDuration":148514,"Delta":358481262},{"NoteNumber":77,"Velocity":32,"Duration":148514,"SoundDuration":148514,"Delta":358481262},{"NoteNumber":68,"Velocity":27,"Duration":148514,"SoundDuration":148514,"Delta":358481262},{"NoteNumber":73,"Velocity":32,"Duration":148514,"SoundDuration":148514,"Delta":358778292},{"NoteNumber":68,"Velocity":32,"Duration":148514,"SoundDuration":148514,"Delta":358778292},{"NoteNumber":65,"Velocity":27,"Duration":315181,"SoundDuration":315181,"Delta":358778292},{"NoteNumber":65,"Velocity":51,"Duration":938708,"SoundDuration":938708,"Delta":359093474},{"NoteNumber":68,"Velocity":61,"Duration":938708,"SoundDuration":938708,"Delta":359093474},{"NoteNumber":61,"Velocity":55,"Duration":1152993,"SoundDuration":1152993,"Delta":359093474},{"NoteNumber":49,"Velocity":46,"Duration":1152993,"SoundDuration":1152993,"Delta":359093474},{"NoteNumber":56,"Velocity":46,"Duration":1176803,"SoundDuration":1176803,"Delta":359093474},{"NoteNumber":70,"Velocity":58,"Duration":337797,"SoundDuration":337797,"Delta":359984563},{"NoteNumber":65,"Velocity":49,"Duration":598958,"SoundDuration":598958,"Delta":360270277},{"NoteNumber":68,"Velocity":58,"Duration":625000,"SoundDuration":625000,"Delta":360270277},{"NoteNumber":56,"Velocity":42,"Duration":598958,"SoundDuration":598958,"Delta":360270277},{"NoteNumber":61,"Velocity":50,"Duration":619791,"SoundDuration":619791,"Delta":360270277},{"NoteNumber":49,"Velocity":42,"Duration":598958,"SoundDuration":598958,"Delta":360270277},{"NoteNumber":65,"Velocity":63,"Duration":939166,"SoundDuration":939166,"Delta":360895277},{"NoteNumber":61,"Velocity":53,"Duration":939166,"SoundDuration":939166,"Delta":360895277},{"NoteNumber":56,"Velocity":54,"Duration":1155512,"SoundDuration":1155512,"Delta":360895277},{"NoteNumber":49,"Velocity":45,"Duration":1155512,"SoundDuration":1155512,"Delta":360895277},{"NoteNumber":66,"Velocity":57,"Duration":341653,"SoundDuration":341653,"Delta":361786366},{"NoteNumber":61,"Velocity":48,"Duration":611702,"SoundDuration":611702,"Delta":362074828},{"NoteNumber":65,"Velocity":57,"Duration":611702,"SoundDuration":611702,"Delta":362074828},{"NoteNumber":49,"Velocity":40,"Duration":611702,"SoundDuration":611702,"Delta":362074828},{"NoteNumber":56,"Velocity":48,"Duration":611702,"SoundDuration":611702,"Delta":362074828},{"NoteNumber":65,"Velocity":50,"Duration":294117,"SoundDuration":294117,"Delta":362713126},{"NoteNumber":61,"Velocity":42,"Duration":294117,"SoundDuration":294117,"Delta":362713126},{"NoteNumber":56,"Velocity":48,"Duration":294117,"SoundDuration":294117,"Delta":362713126},{"NoteNumber":49,"Velocity":40,"Duration":294117,"SoundDuration":294117,"Delta":362713126},{"NoteNumber":32,"Velocity":23,"Duration":147058,"SoundDuration":147058,"Delta":363007244},{"NoteNumber":41,"Velocity":28,"Duration":147058,"SoundDuration":147058,"Delta":363007244},{"NoteNumber":37,"Velocity":23,"Duration":147058,"SoundDuration":147058,"Delta":363007244},{"NoteNumber":41,"Velocity":23,"Duration":147058,"SoundDuration":147058,"Delta":363301361},{"NoteNumber":44,"Velocity":28,"Duration":147058,"SoundDuration":147058,"Delta":363301361},{"NoteNumber":37,"Velocity":23,"Duration":147058,"SoundDuration":147058,"Delta":363301361},{"NoteNumber":44,"Velocity":23,"Duration":147058,"SoundDuration":147058,"Delta":363595479},{"NoteNumber":49,"Velocity":28,"Duration":147058,"SoundDuration":147058,"Delta":363595479},{"NoteNumber":41,"Velocity":23,"Duration":147058,"SoundDuration":147058,"Delta":363595479},{"NoteNumber":53,"Velocity":28,"Duration":147058,"SoundDuration":147058,"Delta":363889597},{"NoteNumber":49,"Velocity":23,"Duration":147058,"SoundDuration":147058,"Delta":363889597},{"NoteNumber":44,"Velocity":23,"Duration":147058,"SoundDuration":147058,"Delta":363889597},{"NoteNumber":49,"Velocity":23,"Duration":147058,"SoundDuration":147058,"Delta":364183715},{"NoteNumber":53,"Velocity":23,"Duration":147058,"SoundDuration":147058,"Delta":364183715},{"NoteNumber":56,"Velocity":28,"Duration":147058,"SoundDuration":147058,"Delta":364183715},{"NoteNumber":61,"Velocity":28,"Duration":147058,"SoundDuration":147058,"Delta":364477832},{"NoteNumber":56,"Velocity":23,"Duration":147058,"SoundDuration":147058,"Delta":364477832},{"NoteNumber":53,"Velocity":23,"Duration":147058,"SoundDuration":147058,"Delta":364477832},{"NoteNumber":49,"Velocity":23,"Duration":147058,"SoundDuration":147058,"Delta":364771950},{"NoteNumber":44,"Velocity":23,"Duration":147058,"SoundDuration":147058,"Delta":364771950},{"NoteNumber":53,"Velocity":28,"Duration":147058,"SoundDuration":147058,"Delta":364771950},{"NoteNumber":53,"Velocity":23,"Duration":147058,"SoundDuration":147058,"Delta":365066068},{"NoteNumber":56,"Velocity":28,"Duration":147058,"SoundDuration":147058,"Delta":365066068},{"NoteNumber":49,"Velocity":23,"Duration":147058,"SoundDuration":147058,"Delta":365066068},{"NoteNumber":56,"Velocity":23,"Duration":147058,"SoundDuration":147058,"Delta":365360186},{"NoteNumber":61,"Velocity":28,"Duration":147058,"SoundDuration":147058,"Delta":365360186},{"NoteNumber":53,"Velocity":23,"Duration":147058,"SoundDuration":147058,"Delta":365360186},{"NoteNumber":65,"Velocity":28,"Duration":147058,"SoundDuration":147058,"Delta":365654303},{"NoteNumber":61,"Velocity":23,"Duration":147058,"SoundDuration":147058,"Delta":365654303},{"NoteNumber":56,"Velocity":23,"Duration":147058,"SoundDuration":147058,"Delta":365654303},{"NoteNumber":68,"Velocity":28,"Duration":147058,"SoundDuration":147058,"Delta":365948421},{"NoteNumber":61,"Velocity":23,"Duration":147058,"SoundDuration":147058,"Delta":365948421},{"NoteNumber":65,"Velocity":23,"Duration":147058,"SoundDuration":147058,"Delta":365948421},{"NoteNumber":73,"Velocity":28,"Duration":147058,"SoundDuration":147058,"Delta":366242539},{"NoteNumber":65,"Velocity":23,"Duration":147058,"SoundDuration":147058,"Delta":366242539},{"NoteNumber":68,"Velocity":23,"Duration":147058,"SoundDuration":147058,"Delta":366242539},{"NoteNumber":61,"Velocity":23,"Duration":147058,"SoundDuration":147058,"Delta":366536657},{"NoteNumber":56,"Velocity":23,"Duration":147058,"SoundDuration":147058,"Delta":366536657},{"NoteNumber":65,"Velocity":28,"Duration":147058,"SoundDuration":147058,"Delta":366536657},{"NoteNumber":68,"Velocity":23,"Duration":153061,"SoundDuration":153061,"Delta":366830774},{"NoteNumber":61,"Velocity":23,"Duration":153061,"SoundDuration":153061,"Delta":366830774},{"NoteNumber":65,"Velocity":28,"Duration":153061,"SoundDuration":153061,"Delta":366830774},{"NoteNumber":65,"Velocity":23,"Duration":153061,"SoundDuration":153061,"Delta":367136897},{"NoteNumber":68,"Velocity":23,"Duration":153061,"SoundDuration":153061,"Delta":367136897},{"NoteNumber":73,"Velocity":28,"Duration":153061,"SoundDuration":153061,"Delta":367136897},{"NoteNumber":73,"Velocity":28,"Duration":153061,"SoundDuration":153061,"Delta":367443019},{"NoteNumber":68,"Velocity":23,"Duration":153061,"SoundDuration":153061,"Delta":367443019},{"NoteNumber":77,"Velocity":28,"Duration":153061,"SoundDuration":153061,"Delta":367443019},{"NoteNumber":73,"Velocity":23,"Duration":153061,"SoundDuration":153061,"Delta":367749142},{"NoteNumber":80,"Velocity":28,"Duration":153061,"SoundDuration":153061,"Delta":367749142},{"NoteNumber":77,"Velocity":28,"Duration":153061,"SoundDuration":153061,"Delta":367749142},{"NoteNumber":85,"Velocity":28,"Duration":150505,"SoundDuration":150505,"Delta":368055264},{"NoteNumber":77,"Velocity":23,"Duration":150505,"SoundDuration":150505,"Delta":368055264},{"NoteNumber":80,"Velocity":28,"Duration":150505,"SoundDuration":150505,"Delta":368055264},{"NoteNumber":77,"Velocity":28,"Duration":156261,"SoundDuration":156261,"Delta":368358841},{"NoteNumber":73,"Velocity":28,"Duration":156261,"SoundDuration":156261,"Delta":368358841},{"NoteNumber":68,"Velocity":23,"Duration":156261,"SoundDuration":156261,"Delta":368358841},{"NoteNumber":80,"Velocity":28,"Duration":162459,"SoundDuration":162459,"Delta":368674117},{"NoteNumber":73,"Velocity":23,"Duration":162459,"SoundDuration":162459,"Delta":368674117},{"NoteNumber":77,"Velocity":28,"Duration":162459,"SoundDuration":162459,"Delta":368674117},{"NoteNumber":85,"Velocity":28,"Duration":169177,"SoundDuration":169177,"Delta":369002632},{"NoteNumber":77,"Velocity":23,"Duration":169177,"SoundDuration":169177,"Delta":369002632},{"NoteNumber":80,"Velocity":28,"Duration":169177,"SoundDuration":169177,"Delta":369002632},{"NoteNumber":85,"Velocity":28,"Duration":177170,"SoundDuration":177170,"Delta":369344892},{"NoteNumber":80,"Velocity":23,"Duration":177170,"SoundDuration":177170,"Delta":369344892},{"NoteNumber":89,"Velocity":28,"Duration":177170,"SoundDuration":177170,"Delta":369344892},{"NoteNumber":89,"Velocity":28,"Duration":185203,"SoundDuration":185203,"Delta":369702803},{"NoteNumber":92,"Velocity":28,"Duration":185203,"SoundDuration":185203,"Delta":369702803},{"NoteNumber":85,"Velocity":23,"Duration":185203,"SoundDuration":185203,"Delta":369702803},{"NoteNumber":89,"Velocity":26,"Duration":2941177,"SoundDuration":2941177,"Delta":370214094},{"NoteNumber":92,"Velocity":31,"Duration":2941177,"SoundDuration":2941177,"Delta":370214094},{"NoteNumber":97,"Velocity":31,"Duration":2941177,"SoundDuration":2941177,"Delta":370214094},{"NoteNumber":56,"Velocity":19,"Duration":1236842,"SoundDuration":1236842,"Delta":373743507},{"NoteNumber":65,"Velocity":23,"Duration":1236842,"SoundDuration":1236842,"Delta":373743507},{"NoteNumber":61,"Velocity":19,"Duration":1236842,"SoundDuration":1236842,"Delta":373743507},{"NoteNumber":44,"Velocity":28,"Duration":973684,"SoundDuration":973684,"Delta":373743507},{"NoteNumber":32,"Velocity":23,"Duration":973684,"SoundDuration":973684,"Delta":373743507},{"NoteNumber":34,"Velocity":19,"Duration":315789,"SoundDuration":315789,"Delta":374690876},{"NoteNumber":46,"Velocity":23,"Duration":315789,"SoundDuration":315789,"Delta":374690876},{"NoteNumber":56,"Velocity":19,"Duration":668604,"SoundDuration":668604,"Delta":375006665},{"NoteNumber":65,"Velocity":23,"Duration":668604,"SoundDuration":668604,"Delta":375006665},{"NoteNumber":61,"Velocity":19,"Duration":668604,"SoundDuration":668604,"Delta":375006665},{"NoteNumber":44,"Velocity":23,"Duration":697674,"SoundDuration":697674,"Delta":375006665},{"NoteNumber":32,"Velocity":19,"Duration":697674,"SoundDuration":697674,"Delta":375006665},{"NoteNumber":56,"Velocity":19,"Duration":1352111,"SoundDuration":1352111,"Delta":375704340},{"NoteNumber":61,"Velocity":19,"Duration":1352111,"SoundDuration":1352111,"Delta":375704340},{"NoteNumber":65,"Velocity":23,"Duration":1352111,"SoundDuration":1352111,"Delta":375704340},{"NoteNumber":41,"Velocity":28,"Duration":1050906,"SoundDuration":1050906,"Delta":375704340},{"NoteNumber":29,"Velocity":23,"Duration":1050906,"SoundDuration":1050906,"Delta":375704340},{"NoteNumber":42,"Velocity":23,"Duration":361445,"SoundDuration":361445,"Delta":376725126},{"NoteNumber":30,"Velocity":19,"Duration":361445,"SoundDuration":361445,"Delta":376725126},{"NoteNumber":56,"Velocity":19,"Duration":858209,"SoundDuration":858209,"Delta":377086572},{"NoteNumber":61,"Velocity":19,"Duration":858209,"SoundDuration":858209,"Delta":377086572},{"NoteNumber":65,"Velocity":23,"Duration":858209,"SoundDuration":858209,"Delta":377086572},{"NoteNumber":29,"Velocity":19,"Duration":895522,"SoundDuration":895522,"Delta":377086572},{"NoteNumber":41,"Velocity":23,"Duration":895522,"SoundDuration":895522,"Delta":377086572},{"NoteNumber":56,"Velocity":19,"Duration":5373134,"SoundDuration":5373134,"Delta":377982094},{"NoteNumber":61,"Velocity":19,"Duration":5373134,"SoundDuration":5373134,"Delta":377982094},{"NoteNumber":65,"Velocity":23,"Duration":5373134,"SoundDuration":5373134,"Delta":377982094},{"NoteNumber":25,"Velocity":23,"Duration":5373134,"SoundDuration":5373134,"Delta":377982094},{"NoteNumber":37,"Velocity":28,"Duration":5373134,"SoundDuration":5373134,"Delta":377982094}],"license":{"name":"Creative Commons Attribution-ShareAlike 3.0 Germany","url":"http://creativecommons.org/licenses/by-sa/3.0/de/deed.en","text":"The MIDI files in this folder were downloaded from http://www.piano-midi.de and are licensed under the Creative Commons Attribution-ShareAlike 3.0 Germany license by Bernd Krueger.\n\nThe MIDI, audio(MP3, OGG) and video files of Bernd Krueger are licensed under the cc-by-sa Germany License . This means, that you can use and adapt the files, as long as you attribute to the copyright holder Name: Bernd Krueger Source: http://www.piano-midi.de The distribution or public playback of the files is only allowed under identical license conditions . The scores are open source.","attribution":"Bernd Krueger","attributionUrl":"http://www.piano-midi.de"}}