{
  "title": "CHIQUITITA",
  "artist": "ABBA",
  "durationMs": 127998.67511041668,
  "midiSha256": "0167596df23ea303f902c3107c009df5e4626f585a40da1dbbe29caca2ba7f47",
  "midiObject": [
    {
      "NoteNumber": 69,
      "Velocity": 80,
      "Duration": 315277,
      "SoundDuration": 315277,
      "Delta": 0
    },
    {
      "NoteNumber": 73,
      "Velocity": 80,
      "Duration": 315277,
      "SoundDuration": 315277,
      "Delta": 0
    },
    {
      "NoteNumber": 71,
      "Velocity": 80,
      "Duration": 315277,
      "SoundDuration": 315277,
      "Delta": 333333
    },
    {
      "NoteNumber": 74,
      "Velocity": 80,
      "Duration": 315277,
      "SoundDuration": 315277,
      "Delta": 333333
    },
    {
      "NoteNumber": 73,
      "Velocity": 80,
      "Duration": 315277,
      "SoundDuration": 315277,
      "Delta": 666667
    },
    {
      "NoteNumber": 76,
      "Velocity": 80,
      "Duration": 315277,
      "SoundDuration": 315277,
      "Delta": 666667
    },
    {
      "NoteNumber": 74,
      "Velocity": 80,
      "Duration": 315277,
      "SoundDuration": 315277,
      "Delta": 1000000
    },
    {
      "NoteNumber": 78,
      "Velocity": 80,
      "Duration": 315277,
      "SoundDuration": 315277,
      "Delta": 1000000
    },
    {
      "NoteNumber": 76,
      "Velocity": 80,
      "Duration": 315277,
      "SoundDuration": 315277,
      "Delta": 1333334
    },
    {
      "NoteNumber": 80,
      "Velocity": 80,
      "Duration": 315277,
      "SoundDuration": 315277,
      "Delta": 1333334
    },
    {
      "NoteNumber": 78,
      "Velocity": 80,
      "Duration": 315277,
      "SoundDuration": 315277,
      "Delta": 1666667
    },
    {
      "NoteNumber": 81,
      "Velocity": 80,
      "Duration": 315277,
      "SoundDuration": 315277,
      "Delta": 1666667
    },
    {
      "NoteNumber": 80,
      "Velocity": 80,
      "Duration": 948611,
      "SoundDuration": 948611,
      "Delta": 2000001
    },
    {
      "NoteNumber": 83,
      "Velocity": 80,
      "Duration": 948611,
      "SoundDuration": 948611,
      "Delta": 2000001
    },
    {
      "NoteNumber": 78,
      "Velocity": 80,
      "Duration": 315277,
      "SoundDuration": 315277,
      "Delta": 3000001
    },
    {
      "NoteNumber": 81,
      "Velocity": 80,
      "Duration": 315277,
      "SoundDuration": 315277,
      "Delta": 3000001
    },
    {
      "NoteNumber": 76,
      "Velocity": 80,
      "Duration": 948611,
      "SoundDuration": 948611,
      "Delta": 3333335
    },
    {
      "NoteNumber": 80,
      "Velocity": 80,
      "Duration": 948611,
      "SoundDuration": 948611,
      "Delta": 3333335
    },
    {
      "NoteNumber": 74,
      "Velocity": 80,
      "Duration": 156944,
      "SoundDuration": 156944,
      "Delta": 4333335
    },
    {
      "NoteNumber": 78,
      "Velocity": 80,
      "Duration": 156944,
      "SoundDuration": 156944,
      "Delta": 4333335
    },
    {
      "NoteNumber": 76,
      "Velocity": 80,
      "Duration": 156944,
      "SoundDuration": 156944,
      "Delta": 4500002
    },
    {
      "NoteNumber": 80,
      "Velocity": 80,
      "Duration": 156944,
      "SoundDuration": 156944,
      "Delta": 4500002
    },
    {
      "NoteNumber": 78,
      "Velocity": 80,
      "Duration": 948611,
      "SoundDuration": 948611,
      "Delta": 4666669
    },
    {
      "NoteNumber": 81,
      "Velocity": 80,
      "Duration": 948611,
      "SoundDuration": 948611,
      "Delta": 4666669
    },
    {
      "NoteNumber": 74,
      "Velocity": 80,
      "Duration": 315277,
      "SoundDuration": 315277,
      "Delta": 5666669
    },
    {
      "NoteNumber": 78,
      "Velocity": 80,
      "Duration": 315277,
      "SoundDuration": 315277,
      "Delta": 5666669
    },
    {
      "NoteNumber": 76,
      "Velocity": 80,
      "Duration": 948611,
      "SoundDuration": 948611,
      "Delta": 6000003
    },
    {
      "NoteNumber": 68,
      "Velocity": 80,
      "Duration": 948611,
      "SoundDuration": 948611,
      "Delta": 6000003
    },
    {
      "NoteNumber": 71,
      "Velocity": 80,
      "Duration": 156944,
      "SoundDuration": 156944,
      "Delta": 7000003
    },
    {
      "NoteNumber": 68,
      "Velocity": 80,
      "Duration": 156944,
      "SoundDuration": 156944,
      "Delta": 7000003
    },
    {
      "NoteNumber": 69,
      "Velocity": 80,
      "Duration": 156944,
      "SoundDuration": 156944,
      "Delta": 7166670
    },
    {
      "NoteNumber": 73,
      "Velocity": 80,
      "Duration": 156944,
      "SoundDuration": 156944,
      "Delta": 7166670
    },
    {
      "NoteNumber": 71,
      "Velocity": 80,
      "Duration": 616667,
      "SoundDuration": 616667,
      "Delta": 7333337
    },
    {
      "NoteNumber": 74,
      "Velocity": 80,
      "Duration": 616667,
      "SoundDuration": 616667,
      "Delta": 7333337
    },
    {
      "NoteNumber": 71,
      "Velocity": 80,
      "Duration": 631944,
      "SoundDuration": 631944,
      "Delta": 8000004
    },
    {
      "NoteNumber": 74,
      "Velocity": 80,
      "Duration": 616667,
      "SoundDuration": 616667,
      "Delta": 8000004
    },
    {
      "NoteNumber": 74,
      "Velocity": 80,
      "Duration": 315277,
      "SoundDuration": 315277,
      "Delta": 8666671
    },
    {
      "NoteNumber": 66,
      "Velocity": 80,
      "Duration": 315277,
      "SoundDuration": 315277,
      "Delta": 8666671
    },
    {
      "NoteNumber": 73,
      "Velocity": 80,
      "Duration": 315277,
      "SoundDuration": 315277,
      "Delta": 9000004
    },
    {
      "NoteNumber": 64,
      "Velocity": 80,
      "Duration": 315277,
      "SoundDuration": 315277,
      "Delta": 9000004
    },
    {
      "NoteNumber": 71,
      "Velocity": 80,
      "Duration": 315277,
      "SoundDuration": 315277,
      "Delta": 9333338
    },
    {
      "NoteNumber": 62,
      "Velocity": 80,
      "Duration": 315277,
      "SoundDuration": 315277,
      "Delta": 9333338
    },
    {
      "NoteNumber": 69,
      "Velocity": 80,
      "Duration": 1581945,
      "SoundDuration": 1581945,
      "Delta": 9666671
    },
    {
      "NoteNumber": 61,
      "Velocity": 80,
      "Duration": 1581945,
      "SoundDuration": 1581945,
      "Delta": 9666671
    },
    {
      "NoteNumber": 57,
      "Velocity": 80,
      "Duration": 156944,
      "SoundDuration": 156944,
      "Delta": 11333339
    },
    {
      "NoteNumber": 61,
      "Velocity": 80,
      "Duration": 156944,
      "SoundDuration": 156944,
      "Delta": 11500005
    },
    {
      "NoteNumber": 64,
      "Velocity": 80,
      "Duration": 156944,
      "SoundDuration": 156944,
      "Delta": 11666672
    },
    {
      "NoteNumber": 61,
      "Velocity": 80,
      "Duration": 156944,
      "SoundDuration": 156944,
      "Delta": 11833339
    },
    {
      "NoteNumber": 57,
      "Velocity": 80,
      "Duration": 156944,
      "SoundDuration": 156944,
      "Delta": 12000006
    },
    {
      "NoteNumber": 61,
      "Velocity": 80,
      "Duration": 156944,
      "SoundDuration": 156944,
      "Delta": 12166672
    },
    {
      "NoteNumber": 73,
      "Velocity": 80,
      "Duration": 156944,
      "SoundDuration": 156944,
      "Delta": 12333339
    },
    {
      "NoteNumber": 64,
      "Velocity": 80,
      "Duration": 156944,
      "SoundDuration": 156944,
      "Delta": 12333339
    },
    {
      "NoteNumber": 74,
      "Velocity": 80,
      "Duration": 156944,
      "SoundDuration": 156944,
      "Delta": 12500006
    },
    {
      "NoteNumber": 61,
      "Velocity": 80,
      "Duration": 156944,
      "SoundDuration": 156944,
      "Delta": 12500006
    },
    {
      "NoteNumber": 76,
      "Velocity": 80,
      "Duration": 315277,
      "SoundDuration": 315277,
      "Delta": 12666673
    },
    {
      "NoteNumber": 57,
      "Velocity": 80,
      "Duration": 156944,
      "SoundDuration": 156944,
      "Delta": 12666673
    },
    {
      "NoteNumber": 62,
      "Velocity": 80,
      "Duration": 156944,
      "SoundDuration": 156944,
      "Delta": 12833339
    },
    {
      "NoteNumber": 78,
      "Velocity": 80,
      "Duration": 315277,
      "SoundDuration": 315277,
      "Delta": 13000006
    },
    {
      "NoteNumber": 66,
      "Velocity": 80,
      "Duration": 156944,
      "SoundDuration": 156944,
      "Delta": 13000006
    },
    {
      "NoteNumber": 62,
      "Velocity": 80,
      "Duration": 156944,
      "SoundDuration": 156944,
      "Delta": 13166673
    },
    {
      "NoteNumber": 76,
      "Velocity": 80,
      "Duration": 156944,
      "SoundDuration": 156944,
      "Delta": 13333340
    },
    {
      "NoteNumber": 57,
      "Velocity": 80,
      "Duration": 156944,
      "SoundDuration": 156944,
      "Delta": 13333340
    },
    {
      "NoteNumber": 74,
      "Velocity": 80,
      "Duration": 156944,
      "SoundDuration": 156944,
      "Delta": 13500006
    },
    {
      "NoteNumber": 62,
      "Velocity": 80,
      "Duration": 156944,
      "SoundDuration": 156944,
      "Delta": 13500006
    },
    {
      "NoteNumber": 73,
      "Velocity": 80,
      "Duration": 283334,
      "SoundDuration": 283334,
      "Delta": 13666673
    },
    {
      "NoteNumber": 66,
      "Velocity": 80,
      "Duration": 156944,
      "SoundDuration": 156944,
      "Delta": 13666673
    },
    {
      "NoteNumber": 62,
      "Velocity": 80,
      "Duration": 156944,
      "SoundDuration": 156944,
      "Delta": 13833340
    },
    {
      "NoteNumber": 73,
      "Velocity": 80,
      "Duration": 1265278,
      "SoundDuration": 1265278,
      "Delta": 14000007
    },
    {
      "NoteNumber": 76,
      "Velocity": 80,
      "Duration": 1265278,
      "SoundDuration": 1265278,
      "Delta": 14000007
    },
    {
      "NoteNumber": 57,
      "Velocity": 80,
      "Duration": 156944,
      "SoundDuration": 156944,
      "Delta": 14000007
    },
    {
      "NoteNumber": 61,
      "Velocity": 80,
      "Duration": 156944,
      "SoundDuration": 156944,
      "Delta": 14166673
    },
    {
      "NoteNumber": 64,
      "Velocity": 80,
      "Duration": 156944,
      "SoundDuration": 156944,
      "Delta": 14333340
    },
    {
      "NoteNumber": 61,
      "Velocity": 80,
      "Duration": 156944,
      "SoundDuration": 156944,
      "Delta": 14500007
    },
    {
      "NoteNumber": 57,
      "Velocity": 80,
      "Duration": 156944,
      "SoundDuration": 156944,
      "Delta": 14666674
    },
    {
      "NoteNumber": 61,
      "Velocity": 80,
      "Duration": 156944,
      "SoundDuration": 156944,
      "Delta": 14833340
    },
    {
      "NoteNumber": 64,
      "Velocity": 80,
      "Duration": 156944,
      "SoundDuration": 156944,
      "Delta": 15000007
    },
    {
      "NoteNumber": 61,
      "Velocity": 80,
      "Duration": 156944,
      "SoundDuration": 156944,
      "Delta": 15166674
    },
    {
      "NoteNumber": 57,
      "Velocity": 80,
      "Duration": 156944,
      "SoundDuration": 156944,
      "Delta": 15333341
    },
    {
      "NoteNumber": 62,
      "Velocity": 80,
      "Duration": 156944,
      "SoundDuration": 156944,
      "Delta": 15500007
    },
    {
      "NoteNumber": 66,
      "Velocity": 80,
      "Duration": 156944,
      "SoundDuration": 156944,
      "Delta": 15666674
    },
    {
      "NoteNumber": 62,
      "Velocity": 80,
      "Duration": 156944,
      "SoundDuration": 156944,
      "Delta": 15833341
    },
    {
      "NoteNumber": 57,
      "Velocity": 80,
      "Duration": 156944,
      "SoundDuration": 156944,
      "Delta": 16000008
    },
    {
      "NoteNumber": 62,
      "Velocity": 80,
      "Duration": 156944,
      "SoundDuration": 156944,
      "Delta": 16166674
    },
    {
      "NoteNumber": 66,
      "Velocity": 80,
      "Duration": 156944,
      "SoundDuration": 156944,
      "Delta": 16333341
    },
    {
      "NoteNumber": 62,
      "Velocity": 80,
      "Duration": 156944,
      "SoundDuration": 156944,
      "Delta": 16500008
    },
    {
      "NoteNumber": 57,
      "Velocity": 80,
      "Duration": 156944,
      "SoundDuration": 156944,
      "Delta": 16666675
    },
    {
      "NoteNumber": 61,
      "Velocity": 80,
      "Duration": 156944,
      "SoundDuration": 156944,
      "Delta": 16833341
    },
    {
      "NoteNumber": 64,
      "Velocity": 80,
      "Duration": 156944,
      "SoundDuration": 156944,
      "Delta": 17000008
    },
    {
      "NoteNumber": 61,
      "Velocity": 80,
      "Duration": 156944,
      "SoundDuration": 156944,
      "Delta": 17166675
    },
    {
      "NoteNumber": 57,
      "Velocity": 80,
      "Duration": 156944,
      "SoundDuration": 156944,
      "Delta": 17333342
    },
    {
      "NoteNumber": 61,
      "Velocity": 80,
      "Duration": 156944,
      "SoundDuration": 156944,
      "Delta": 17500008
    },
    {
      "NoteNumber": 73,
      "Velocity": 80,
      "Duration": 156944,
      "SoundDuration": 156944,
      "Delta": 17666675
    },
    {
      "NoteNumber": 64,
      "Velocity": 80,
      "Duration": 156944,
      "SoundDuration": 156944,
      "Delta": 17666675
    },
    {
      "NoteNumber": 74,
      "Velocity": 80,
      "Duration": 156944,
      "SoundDuration": 156944,
      "Delta": 17833342
    },
    {
      "NoteNumber": 61,
      "Velocity": 80,
      "Duration": 156944,
      "SoundDuration": 156944,
      "Delta": 17833342
    },
    {
      "NoteNumber": 76,
      "Velocity": 80,
      "Duration": 631944,
      "SoundDuration": 631944,
      "Delta": 18000009
    },
    {
      "NoteNumber": 57,
      "Velocity": 80,
      "Duration": 156944,
      "SoundDuration": 156944,
      "Delta": 18000009
    },
    {
      "NoteNumber": 61,
      "Velocity": 80,
      "Duration": 156944,
      "SoundDuration": 156944,
      "Delta": 18166675
    },
    {
      "NoteNumber": 64,
      "Velocity": 80,
      "Duration": 156944,
      "SoundDuration": 156944,
      "Delta": 18333342
    },
    {
      "NoteNumber": 61,
      "Velocity": 80,
      "Duration": 156944,
      "SoundDuration": 156944,
      "Delta": 18500009
    },
    {
      "NoteNumber": 78,
      "Velocity": 80,
      "Duration": 631944,
      "SoundDuration": 631944,
      "Delta": 18666676
    },
    {
      "NoteNumber": 57,
      "Velocity": 80,
      "Duration": 156944,
      "SoundDuration": 156944,
      "Delta": 18666676
    },
    {
      "NoteNumber": 62,
      "Velocity": 80,
      "Duration": 156944,
      "SoundDuration": 156944,
      "Delta": 18833342
    },
    {
      "NoteNumber": 66,
      "Velocity": 80,
      "Duration": 156944,
      "SoundDuration": 156944,
      "Delta": 19000009
    },
    {
      "NoteNumber": 62,
      "Velocity": 80,
      "Duration": 156944,
      "SoundDuration": 156944,
      "Delta": 19166676
    },
    {
      "NoteNumber": 76,
      "Velocity": 80,
      "Duration": 315277,
      "SoundDuration": 315277,
      "Delta": 19333343
    },
    {
      "NoteNumber": 61,
      "Velocity": 80,
      "Duration": 315277,
      "SoundDuration": 315277,
      "Delta": 19333343
    },
    {
      "NoteNumber": 74,
      "Velocity": 80,
      "Duration": 315277,
      "SoundDuration": 315277,
      "Delta": 19666676
    },
    {
      "NoteNumber": 59,
      "Velocity": 80,
      "Duration": 315277,
      "SoundDuration": 315277,
      "Delta": 19666676
    },
    {
      "NoteNumber": 73,
      "Velocity": 80,
      "Duration": 315277,
      "SoundDuration": 315277,
      "Delta": 20000010
    },
    {
      "NoteNumber": 57,
      "Velocity": 80,
      "Duration": 315277,
      "SoundDuration": 315277,
      "Delta": 20000010
    },
    {
      "NoteNumber": 71,
      "Velocity": 80,
      "Duration": 1581945,
      "SoundDuration": 1581945,
      "Delta": 20333343
    },
    {
      "NoteNumber": 56,
      "Velocity": 80,
      "Duration": 315277,
      "SoundDuration": 315277,
      "Delta": 20333343
    },
    {
      "NoteNumber": 54,
      "Velocity": 80,
      "Duration": 315277,
      "SoundDuration": 315277,
      "Delta": 20666677
    },
    {
      "NoteNumber": 52,
      "Velocity": 80,
      "Duration": 315277,
      "SoundDuration": 315277,
      "Delta": 21000010
    },
    {
      "NoteNumber": 51,
      "Velocity": 80,
      "Duration": 315277,
      "SoundDuration": 315277,
      "Delta": 21333344
    },
    {
      "NoteNumber": 47,
      "Velocity": 80,
      "Duration": 315277,
      "SoundDuration": 315277,
      "Delta": 21666677
    },
    {
      "NoteNumber": 71,
      "Velocity": 80,
      "Duration": 156944,
      "SoundDuration": 156944,
      "Delta": 22000011
    },
    {
      "NoteNumber": 52,
      "Velocity": 80,
      "Duration": 1265278,
      "SoundDuration": 1265278,
      "Delta": 22000011
    },
    {
      "NoteNumber": 64,
      "Velocity": 80,
      "Duration": 156944,
      "SoundDuration": 156944,
      "Delta": 22166677
    },
    {
      "NoteNumber": 68,
      "Velocity": 80,
      "Duration": 156944,
      "SoundDuration": 156944,
      "Delta": 22333344
    },
    {
      "NoteNumber": 69,
      "Velocity": 80,
      "Duration": 156944,
      "SoundDuration": 156944,
      "Delta": 22500011
    },
    {
      "NoteNumber": 68,
      "Velocity": 80,
      "Duration": 156944,
      "SoundDuration": 156944,
      "Delta": 22666678
    },
    {
      "NoteNumber": 64,
      "Velocity": 80,
      "Duration": 156944,
      "SoundDuration": 156944,
      "Delta": 22833344
    },
    {
      "NoteNumber": 68,
      "Velocity": 80,
      "Duration": 156944,
      "SoundDuration": 156944,
      "Delta": 23000011
    },
    {
      "NoteNumber": 71,
      "Velocity": 80,
      "Duration": 156944,
      "SoundDuration": 156944,
      "Delta": 23166678
    },
    {
      "NoteNumber": 76,
      "Velocity": 80,
      "Duration": 156944,
      "SoundDuration": 156944,
      "Delta": 23333345
    },
    {
      "NoteNumber": 52,
      "Velocity": 80,
      "Duration": 1265278,
      "SoundDuration": 1265278,
      "Delta": 23333345
    },
    {
      "NoteNumber": 71,
      "Velocity": 80,
      "Duration": 156944,
      "SoundDuration": 156944,
      "Delta": 23500011
    },
    {
      "NoteNumber": 76,
      "Velocity": 80,
      "Duration": 156944,
      "SoundDuration": 156944,
      "Delta": 23666678
    },
    {
      "NoteNumber": 80,
      "Velocity": 80,
      "Duration": 156944,
      "SoundDuration": 156944,
      "Delta": 23833345
    },
    {
      "NoteNumber": 76,
      "Velocity": 80,
      "Duration": 156944,
      "SoundDuration": 156944,
      "Delta": 24000012
    },
    {
      "NoteNumber": 68,
      "Velocity": 80,
      "Duration": 156944,
      "SoundDuration": 156944,
      "Delta": 24166678
    },
    {
      "NoteNumber": 80,
      "Velocity": 80,
      "Duration": 156944,
      "SoundDuration": 156944,
      "Delta": 24333345
    },
    {
      "NoteNumber": 76,
      "Velocity": 80,
      "Duration": 156944,
      "SoundDuration": 156944,
      "Delta": 24500012
    },
    {
      "NoteNumber": 80,
      "Velocity": 80,
      "Duration": 948611,
      "SoundDuration": 948611,
      "Delta": 24666679
    },
    {
      "NoteNumber": 52,
      "Velocity": 80,
      "Duration": 156944,
      "SoundDuration": 156944,
      "Delta": 24666679
    },
    {
      "NoteNumber": 56,
      "Velocity": 80,
      "Duration": 156944,
      "SoundDuration": 156944,
      "Delta": 24833345
    },
    {
      "NoteNumber": 59,
      "Velocity": 80,
      "Duration": 156944,
      "SoundDuration": 156944,
      "Delta": 25000012
    },
    {
      "NoteNumber": 64,
      "Velocity": 80,
      "Duration": 156944,
      "SoundDuration": 156944,
      "Delta": 25166679
    },
    {
      "NoteNumber": 59,
      "Velocity": 80,
      "Duration": 156944,
      "SoundDuration": 156944,
      "Delta": 25333346
    },
    {
      "NoteNumber": 56,
      "Velocity": 80,
      "Duration": 156944,
      "SoundDuration": 156944,
      "Delta": 25500012
    },
    {
      "NoteNumber": 78,
      "Velocity": 80,
      "Duration": 156944,
      "SoundDuration": 156944,
      "Delta": 25666679
    },
    {
      "NoteNumber": 59,
      "Velocity": 80,
      "Duration": 156944,
      "SoundDuration": 156944,
      "Delta": 25666679
    },
    {
      "NoteNumber": 80,
      "Velocity": 80,
      "Duration": 156944,
      "SoundDuration": 156944,
      "Delta": 25833346
    },
    {
      "NoteNumber": 56,
      "Velocity": 80,
      "Duration": 156944,
      "SoundDuration": 156944,
      "Delta": 25833346
    },
    {
      "NoteNumber": 81,
      "Velocity": 80,
      "Duration": 948611,
      "SoundDuration": 948611,
      "Delta": 26000013
    },
    {
      "NoteNumber": 50,
      "Velocity": 80,
      "Duration": 156944,
      "SoundDuration": 156944,
      "Delta": 26000013
    },
    {
      "NoteNumber": 54,
      "Velocity": 80,
      "Duration": 156944,
      "SoundDuration": 156944,
      "Delta": 26166679
    },
    {
      "NoteNumber": 56,
      "Velocity": 80,
      "Duration": 156944,
      "SoundDuration": 156944,
      "Delta": 26333346
    },
    {
      "NoteNumber": 62,
      "Velocity": 80,
      "Duration": 156944,
      "SoundDuration": 156944,
      "Delta": 26500013
    },
    {
      "NoteNumber": 57,
      "Velocity": 80,
      "Duration": 156944,
      "SoundDuration": 156944,
      "Delta": 26666680
    },
    {
      "NoteNumber": 54,
      "Velocity": 80,
      "Duration": 156944,
      "SoundDuration": 156944,
      "Delta": 26833346
    },
    {
      "NoteNumber": 78,
      "Velocity": 80,
      "Duration": 315277,
      "SoundDuration": 315277,
      "Delta": 27000013
    },
    {
      "NoteNumber": 57,
      "Velocity": 80,
      "Duration": 156944,
      "SoundDuration": 156944,
      "Delta": 27000013
    },
    {
      "NoteNumber": 56,
      "Velocity": 80,
      "Duration": 156944,
      "SoundDuration": 156944,
      "Delta": 27166680
    },
    {
      "NoteNumber": 76,
      "Velocity": 80,
      "Duration": 948611,
      "SoundDuration": 948611,
      "Delta": 27333347
    },
    {
      "NoteNumber": 52,
      "Velocity": 80,
      "Duration": 156944,
      "SoundDuration": 156944,
      "Delta": 27333347
    },
    {
      "NoteNumber": 56,
      "Velocity": 80,
      "Duration": 156944,
      "SoundDuration": 156944,
      "Delta": 27500013
    },
    {
      "NoteNumber": 59,
      "Velocity": 80,
      "Duration": 156944,
      "SoundDuration": 156944,
      "Delta": 27666680
    },
    {
      "NoteNumber": 64,
      "Velocity": 80,
      "Duration": 156944,
      "SoundDuration": 156944,
      "Delta": 27833347
    },
    {
      "NoteNumber": 59,
      "Velocity": 80,
      "Duration": 156944,
      "SoundDuration": 156944,
      "Delta": 28000014
    },
    {
      "NoteNumber": 56,
      "Velocity": 80,
      "Duration": 156944,
      "SoundDuration": 156944,
      "Delta": 28166680
    },
    {
      "NoteNumber": 71,
      "Velocity": 80,
      "Duration": 156944,
      "SoundDuration": 156944,
      "Delta": 28333347
    },
    {
      "NoteNumber": 59,
      "Velocity": 80,
      "Duration": 156944,
      "SoundDuration": 156944,
      "Delta": 28333347
    },
    {
      "NoteNumber": 73,
      "Velocity": 80,
      "Duration": 156944,
      "SoundDuration": 156944,
      "Delta": 28500014
    },
    {
      "NoteNumber": 56,
      "Velocity": 80,
      "Duration": 156944,
      "SoundDuration": 156944,
      "Delta": 28500014
    },
    {
      "NoteNumber": 74,
      "Velocity": 80,
      "Duration": 616667,
      "SoundDuration": 616667,
      "Delta": 28666681
    },
    {
      "NoteNumber": 52,
      "Velocity": 80,
      "Duration": 156944,
      "SoundDuration": 156944,
      "Delta": 28666681
    },
    {
      "NoteNumber": 56,
      "Velocity": 80,
      "Duration": 156944,
      "SoundDuration": 156944,
      "Delta": 28833347
    },
    {
      "NoteNumber": 59,
      "Velocity": 80,
      "Duration": 156944,
      "SoundDuration": 156944,
      "Delta": 29000014
    },
    {
      "NoteNumber": 64,
      "Velocity": 80,
      "Duration": 156944,
      "SoundDuration": 156944,
      "Delta": 29166681
    },
    {
      "NoteNumber": 74,
      "Velocity": 80,
      "Duration": 616667,
      "SoundDuration": 616667,
      "Delta": 29333348
    },
    {
      "NoteNumber": 59,
      "Velocity": 80,
      "Duration": 156944,
      "SoundDuration": 156944,
      "Delta": 29333348
    },
    {
      "NoteNumber": 56,
      "Velocity": 80,
      "Duration": 156944,
      "SoundDuration": 156944,
      "Delta": 29500014
    },
    {
      "NoteNumber": 59,
      "Velocity": 80,
      "Duration": 156944,
      "SoundDuration": 156944,
      "Delta": 29666681
    },
    {
      "NoteNumber": 56,
      "Velocity": 80,
      "Duration": 156944,
      "SoundDuration": 156944,
      "Delta": 29833348
    },
    {
      "NoteNumber": 74,
      "Velocity": 80,
      "Duration": 315277,
      "SoundDuration": 315277,
      "Delta": 30000015
    },
    {
      "NoteNumber": 57,
      "Velocity": 80,
      "Duration": 156944,
      "SoundDuration": 156944,
      "Delta": 30000015
    },
    {
      "NoteNumber": 61,
      "Velocity": 80,
      "Duration": 156944,
      "SoundDuration": 156944,
      "Delta": 30166681
    },
    {
      "NoteNumber": 73,
      "Velocity": 80,
      "Duration": 315277,
      "SoundDuration": 315277,
      "Delta": 30333348
    },
    {
      "NoteNumber": 64,
      "Velocity": 80,
      "Duration": 156944,
      "SoundDuration": 156944,
      "Delta": 30333348
    },
    {
      "NoteNumber": 61,
      "Velocity": 80,
      "Duration": 156944,
      "SoundDuration": 156944,
      "Delta": 30500015
    },
    {
      "NoteNumber": 71,
      "Velocity": 80,
      "Duration": 315277,
      "SoundDuration": 315277,
      "Delta": 30666682
    },
    {
      "NoteNumber": 59,
      "Velocity": 80,
      "Duration": 156944,
      "SoundDuration": 156944,
      "Delta": 30666682
    },
    {
      "NoteNumber": 61,
      "Velocity": 80,
      "Duration": 156944,
      "SoundDuration": 156944,
      "Delta": 30833348
    },
    {
      "NoteNumber": 73,
      "Velocity": 80,
      "Duration": 1581945,
      "SoundDuration": 1581945,
      "Delta": 31000015
    },
    {
      "NoteNumber": 64,
      "Velocity": 80,
      "Duration": 156944,
      "SoundDuration": 156944,
      "Delta": 31000015
    },
    {
      "NoteNumber": 61,
      "Velocity": 80,
      "Duration": 156944,
      "SoundDuration": 156944,
      "Delta": 31166682
    },
    {
      "NoteNumber": 57,
      "Velocity": 80,
      "Duration": 156944,
      "SoundDuration": 156944,
      "Delta": 31333349
    },
    {
      "NoteNumber": 62,
      "Velocity": 80,
      "Duration": 156944,
      "SoundDuration": 156944,
      "Delta": 31500015
    },
    {
      "NoteNumber": 66,
      "Velocity": 80,
      "Duration": 156944,
      "SoundDuration": 156944,
      "Delta": 31666682
    },
    {
      "NoteNumber": 62,
      "Velocity": 80,
      "Duration": 156944,
      "SoundDuration": 156944,
      "Delta": 31833349
    },
    {
      "NoteNumber": 57,
      "Velocity": 80,
      "Duration": 156944,
      "SoundDuration": 156944,
      "Delta": 32000016
    },
    {
      "NoteNumber": 62,
      "Velocity": 80,
      "Duration": 156944,
      "SoundDuration": 156944,
      "Delta": 32166682
    },
    {
      "NoteNumber": 66,
      "Velocity": 80,
      "Duration": 156944,
      "SoundDuration": 156944,
      "Delta": 32333349
    },
    {
      "NoteNumber": 62,
      "Velocity": 80,
      "Duration": 156944,
      "SoundDuration": 156944,
      "Delta": 32500016
    },
    {
      "NoteNumber": 57,
      "Velocity": 80,
      "Duration": 156944,
      "SoundDuration": 156944,
      "Delta": 32666683
    },
    {
      "NoteNumber": 61,
      "Velocity": 80,
      "Duration": 156944,
      "SoundDuration": 156944,
      "Delta": 32833349
    },
    {
      "NoteNumber": 64,
      "Velocity": 80,
      "Duration": 156944,
      "SoundDuration": 156944,
      "Delta": 33000016
    },
    {
      "NoteNumber": 61,
      "Velocity": 80,
      "Duration": 156944,
      "SoundDuration": 156944,
      "Delta": 33166683
    },
    {
      "NoteNumber": 59,
      "Velocity": 80,
      "Duration": 156944,
      "SoundDuration": 156944,
      "Delta": 33333350
    },
    {
      "NoteNumber": 61,
      "Velocity": 80,
      "Duration": 156944,
      "SoundDuration": 156944,
      "Delta": 33500016
    },
    {
      "NoteNumber": 73,
      "Velocity": 80,
      "Duration": 156944,
      "SoundDuration": 156944,
      "Delta": 33666683
    },
    {
      "NoteNumber": 64,
      "Velocity": 80,
      "Duration": 156944,
      "SoundDuration": 156944,
      "Delta": 33666683
    },
    {
      "NoteNumber": 74,
      "Velocity": 80,
      "Duration": 156944,
      "SoundDuration": 156944,
      "Delta": 33833350
    },
    {
      "NoteNumber": 61,
      "Velocity": 80,
      "Duration": 156944,
      "SoundDuration": 156944,
      "Delta": 33833350
    },
    {
      "NoteNumber": 76,
      "Velocity": 80,
      "Duration": 315277,
      "SoundDuration": 315277,
      "Delta": 34000017
    },
    {
      "NoteNumber": 57,
      "Velocity": 80,
      "Duration": 156944,
      "SoundDuration": 156944,
      "Delta": 34000017
    },
    {
      "NoteNumber": 62,
      "Velocity": 80,
      "Duration": 156944,
      "SoundDuration": 156944,
      "Delta": 34166683
    },
    {
      "NoteNumber": 78,
      "Velocity": 80,
      "Duration": 315277,
      "SoundDuration": 315277,
      "Delta": 34333350
    },
    {
      "NoteNumber": 66,
      "Velocity": 80,
      "Duration": 156944,
      "SoundDuration": 156944,
      "Delta": 34333350
    },
    {
      "NoteNumber": 62,
      "Velocity": 80,
      "Duration": 156944,
      "SoundDuration": 156944,
      "Delta": 34500017
    },
    {
      "NoteNumber": 76,
      "Velocity": 80,
      "Duration": 156944,
      "SoundDuration": 156944,
      "Delta": 34666684
    },
    {
      "NoteNumber": 57,
      "Velocity": 80,
      "Duration": 156944,
      "SoundDuration": 156944,
      "Delta": 34666684
    },
    {
      "NoteNumber": 74,
      "Velocity": 80,
      "Duration": 156944,
      "SoundDuration": 156944,
      "Delta": 34833350
    },
    {
      "NoteNumber": 62,
      "Velocity": 80,
      "Duration": 156944,
      "SoundDuration": 156944,
      "Delta": 34833350
    },
    {
      "NoteNumber": 73,
      "Velocity": 80,
      "Duration": 283334,
      "SoundDuration": 283334,
      "Delta": 35000017
    },
    {
      "NoteNumber": 66,
      "Velocity": 80,
      "Duration": 156944,
      "SoundDuration": 156944,
      "Delta": 35000017
    },
    {
      "NoteNumber": 62,
      "Velocity": 80,
      "Duration": 156944,
      "SoundDuration": 156944,
      "Delta": 35166684
    },
    {
      "NoteNumber": 73,
      "Velocity": 80,
      "Duration": 1265278,
      "SoundDuration": 1265278,
      "Delta": 35333351
    },
    {
      "NoteNumber": 76,
      "Velocity": 80,
      "Duration": 1265278,
      "SoundDuration": 1265278,
      "Delta": 35333351
    },
    {
      "NoteNumber": 57,
      "Velocity": 80,
      "Duration": 156944,
      "SoundDuration": 156944,
      "Delta": 35333351
    },
    {
      "NoteNumber": 61,
      "Velocity": 80,
      "Duration": 156944,
      "SoundDuration": 156944,
      "Delta": 35500017
    },
    {
      "NoteNumber": 64,
      "Velocity": 80,
      "Duration": 156944,
      "SoundDuration": 156944,
      "Delta": 35666684
    },
    {
      "NoteNumber": 61,
      "Velocity": 80,
      "Duration": 156944,
      "SoundDuration": 156944,
      "Delta": 35833351
    },
    {
      "NoteNumber": 57,
      "Velocity": 80,
      "Duration": 156944,
      "SoundDuration": 156944,
      "Delta": 36000018
    },
    {
      "NoteNumber": 61,
      "Velocity": 80,
      "Duration": 156944,
      "SoundDuration": 156944,
      "Delta": 36166684
    },
    {
      "NoteNumber": 64,
      "Velocity": 80,
      "Duration": 156944,
      "SoundDuration": 156944,
      "Delta": 36333351
    },
    {
      "NoteNumber": 61,
      "Velocity": 80,
      "Duration": 156944,
      "SoundDuration": 156944,
      "Delta": 36500018
    },
    {
      "NoteNumber": 57,
      "Velocity": 80,
      "Duration": 156944,
      "SoundDuration": 156944,
      "Delta": 36666685
    },
    {
      "NoteNumber": 62,
      "Velocity": 80,
      "Duration": 156944,
      "SoundDuration": 156944,
      "Delta": 36833351
    },
    {
      "NoteNumber": 66,
      "Velocity": 80,
      "Duration": 156944,
      "SoundDuration": 156944,
      "Delta": 37000018
    },
    {
      "NoteNumber": 62,
      "Velocity": 80,
      "Duration": 156944,
      "SoundDuration": 156944,
      "Delta": 37166685
    },
    {
      "NoteNumber": 57,
      "Velocity": 80,
      "Duration": 156944,
      "SoundDuration": 156944,
      "Delta": 37333352
    },
    {
      "NoteNumber": 62,
      "Velocity": 80,
      "Duration": 156944,
      "SoundDuration": 156944,
      "Delta": 37500018
    },
    {
      "NoteNumber": 66,
      "Velocity": 80,
      "Duration": 156944,
      "SoundDuration": 156944,
      "Delta": 37666685
    },
    {
      "NoteNumber": 62,
      "Velocity": 80,
      "Duration": 156944,
      "SoundDuration": 156944,
      "Delta": 37833352
    },
    {
      "NoteNumber": 57,
      "Velocity": 80,
      "Duration": 156944,
      "SoundDuration": 156944,
      "Delta": 38000019
    },
    {
      "NoteNumber": 61,
      "Velocity": 80,
      "Duration": 156944,
      "SoundDuration": 156944,
      "Delta": 38166685
    },
    {
      "NoteNumber": 64,
      "Velocity": 80,
      "Duration": 156944,
      "SoundDuration": 156944,
      "Delta": 38333352
    },
    {
      "NoteNumber": 61,
      "Velocity": 80,
      "Duration": 156944,
      "SoundDuration": 156944,
      "Delta": 38500019
    },
    {
      "NoteNumber": 57,
      "Velocity": 80,
      "Duration": 156944,
      "SoundDuration": 156944,
      "Delta": 38666686
    },
    {
      "NoteNumber": 61,
      "Velocity": 80,
      "Duration": 156944,
      "SoundDuration": 156944,
      "Delta": 38833352
    },
    {
      "NoteNumber": 73,
      "Velocity": 80,
      "Duration": 156944,
      "SoundDuration": 156944,
      "Delta": 39000019
    },
    {
      "NoteNumber": 64,
      "Velocity": 80,
      "Duration": 156944,
      "SoundDuration": 156944,
      "Delta": 39000019
    },
    {
      "NoteNumber": 74,
      "Velocity": 80,
      "Duration": 156944,
      "SoundDuration": 156944,
      "Delta": 39166686
    },
    {
      "NoteNumber": 61,
      "Velocity": 80,
      "Duration": 156944,
      "SoundDuration": 156944,
      "Delta": 39166686
    },
    {
      "NoteNumber": 76,
      "Velocity": 80,
      "Duration": 631944,
      "SoundDuration": 631944,
      "Delta": 39333353
    },
    {
      "NoteNumber": 57,
      "Velocity": 80,
      "Duration": 156944,
      "SoundDuration": 156944,
      "Delta": 39333353
    },
    {
      "NoteNumber": 61,
      "Velocity": 80,
      "Duration": 156944,
      "SoundDuration": 156944,
      "Delta": 39500019
    },
    {
      "NoteNumber": 64,
      "Velocity": 80,
      "Duration": 156944,
      "SoundDuration": 156944,
      "Delta": 39666686
    },
    {
      "NoteNumber": 61,
      "Velocity": 80,
      "Duration": 156944,
      "SoundDuration": 156944,
      "Delta": 39833353
    },
    {
      "NoteNumber": 78,
      "Velocity": 80,
      "Duration": 631944,
      "SoundDuration": 631944,
      "Delta": 40000020
    },
    {
      "NoteNumber": 57,
      "Velocity": 80,
      "Duration": 156944,
      "SoundDuration": 156944,
      "Delta": 40000020
    },
    {
      "NoteNumber": 62,
      "Velocity": 80,
      "Duration": 156944,
      "SoundDuration": 156944,
      "Delta": 40166686
    },
    {
      "NoteNumber": 66,
      "Velocity": 80,
      "Duration": 156944,
      "SoundDuration": 156944,
      "Delta": 40333353
    },
    {
      "NoteNumber": 62,
      "Velocity": 80,
      "Duration": 156944,
      "SoundDuration": 156944,
      "Delta": 40500020
    },
    {
      "NoteNumber": 80,
      "Velocity": 80,
      "Duration": 315277,
      "SoundDuration": 315277,
      "Delta": 40666687
    },
    {
      "NoteNumber": 49,
      "Velocity": 80,
      "Duration": 156944,
      "SoundDuration": 156944,
      "Delta": 40666687
    },
    {
      "NoteNumber": 56,
      "Velocity": 80,
      "Duration": 156944,
      "SoundDuration": 156944,
      "Delta": 40833353
    },
    {
      "NoteNumber": 78,
      "Velocity": 80,
      "Duration": 156944,
      "SoundDuration": 156944,
      "Delta": 41000020
    },
    {
      "NoteNumber": 61,
      "Velocity": 80,
      "Duration": 156944,
      "SoundDuration": 156944,
      "Delta": 41000020
    },
    {
      "NoteNumber": 76,
      "Velocity": 80,
      "Duration": 156944,
      "SoundDuration": 156944,
      "Delta": 41166687
    },
    {
      "NoteNumber": 56,
      "Velocity": 80,
      "Duration": 156944,
      "SoundDuration": 156944,
      "Delta": 41166687
    },
    {
      "NoteNumber": 80,
      "Velocity": 80,
      "Duration": 315277,
      "SoundDuration": 315277,
      "Delta": 41333354
    },
    {
      "NoteNumber": 61,
      "Velocity": 80,
      "Duration": 156944,
      "SoundDuration": 156944,
      "Delta": 41333354
    },
    {
      "NoteNumber": 56,
      "Velocity": 80,
      "Duration": 156944,
      "SoundDuration": 156944,
      "Delta": 41500020
    },
    {
      "NoteNumber": 76,
      "Velocity": 80,
      "Duration": 1581945,
      "SoundDuration": 1581945,
      "Delta": 41666687
    },
    {
      "NoteNumber": 61,
      "Velocity": 80,
      "Duration": 156944,
      "SoundDuration": 156944,
      "Delta": 41666687
    },
    {
      "NoteNumber": 56,
      "Velocity": 80,
      "Duration": 156944,
      "SoundDuration": 156944,
      "Delta": 41833354
    },
    {
      "NoteNumber": 49,
      "Velocity": 80,
      "Duration": 156944,
      "SoundDuration": 156944,
      "Delta": 42000021
    },
    {
      "NoteNumber": 56,
      "Velocity": 80,
      "Duration": 156944,
      "SoundDuration": 156944,
      "Delta": 42166687
    },
    {
      "NoteNumber": 63,
      "Velocity": 80,
      "Duration": 156944,
      "SoundDuration": 156944,
      "Delta": 42333354
    },
    {
      "NoteNumber": 56,
      "Velocity": 80,
      "Duration": 156944,
      "SoundDuration": 156944,
      "Delta": 42500021
    },
    {
      "NoteNumber": 63,
      "Velocity": 80,
      "Duration": 156944,
      "SoundDuration": 156944,
      "Delta": 42666688
    },
    {
      "NoteNumber": 56,
      "Velocity": 80,
      "Duration": 156944,
      "SoundDuration": 156944,
      "Delta": 42833354
    },
    {
      "NoteNumber": 63,
      "Velocity": 80,
      "Duration": 156944,
      "SoundDuration": 156944,
      "Delta": 43000021
    },
    {
      "NoteNumber": 56,
      "Velocity": 80,
      "Duration": 156944,
      "SoundDuration": 156944,
      "Delta": 43166688
    },
    {
      "NoteNumber": 49,
      "Velocity": 80,
      "Duration": 156944,
      "SoundDuration": 156944,
      "Delta": 43333355
    },
    {
      "NoteNumber": 56,
      "Velocity": 80,
      "Duration": 156944,
      "SoundDuration": 156944,
      "Delta": 43500021
    },
    {
      "NoteNumber": 61,
      "Velocity": 80,
      "Duration": 156944,
      "SoundDuration": 156944,
      "Delta": 43666688
    },
    {
      "NoteNumber": 56,
      "Velocity": 80,
      "Duration": 156944,
      "SoundDuration": 156944,
      "Delta": 43833355
    },
    {
      "NoteNumber": 61,
      "Velocity": 80,
      "Duration": 156944,
      "SoundDuration": 156944,
      "Delta": 44000022
    },
    {
      "NoteNumber": 56,
      "Velocity": 80,
      "Duration": 156944,
      "SoundDuration": 156944,
      "Delta": 44166688
    },
    {
      "NoteNumber": 61,
      "Velocity": 80,
      "Duration": 156944,
      "SoundDuration": 156944,
      "Delta": 44333355
    },
    {
      "NoteNumber": 56,
      "Velocity": 80,
      "Duration": 156944,
      "SoundDuration": 156944,
      "Delta": 44500022
    },
    {
      "NoteNumber": 49,
      "Velocity": 80,
      "Duration": 156944,
      "SoundDuration": 156944,
      "Delta": 44666689
    },
    {
      "NoteNumber": 56,
      "Velocity": 80,
      "Duration": 156944,
      "SoundDuration": 156944,
      "Delta": 44833355
    },
    {
      "NoteNumber": 63,
      "Velocity": 80,
      "Duration": 156944,
      "SoundDuration": 156944,
      "Delta": 45000022
    },
    {
      "NoteNumber": 56,
      "Velocity": 80,
      "Duration": 156944,
      "SoundDuration": 156944,
      "Delta": 45166689
    },
    {
      "NoteNumber": 63,
      "Velocity": 80,
      "Duration": 156944,
      "SoundDuration": 156944,
      "Delta": 45333356
    },
    {
      "NoteNumber": 56,
      "Velocity": 80,
      "Duration": 156944,
      "SoundDuration": 156944,
      "Delta": 45500022
    },
    {
      "NoteNumber": 63,
      "Velocity": 80,
      "Duration": 156944,
      "SoundDuration": 156944,
      "Delta": 45666689
    },
    {
      "NoteNumber": 56,
      "Velocity": 80,
      "Duration": 156944,
      "SoundDuration": 156944,
      "Delta": 45833356
    },
    {
      "NoteNumber": 80,
      "Velocity": 80,
      "Duration": 948611,
      "SoundDuration": 948611,
      "Delta": 46000023
    },
    {
      "NoteNumber": 52,
      "Velocity": 80,
      "Duration": 156944,
      "SoundDuration": 156944,
      "Delta": 46000023
    },
    {
      "NoteNumber": 56,
      "Velocity": 80,
      "Duration": 156944,
      "SoundDuration": 156944,
      "Delta": 46166689
    },
    {
      "NoteNumber": 59,
      "Velocity": 80,
      "Duration": 156944,
      "SoundDuration": 156944,
      "Delta": 46333356
    },
    {
      "NoteNumber": 64,
      "Velocity": 80,
      "Duration": 156944,
      "SoundDuration": 156944,
      "Delta": 46500023
    },
    {
      "NoteNumber": 59,
      "Velocity": 80,
      "Duration": 156944,
      "SoundDuration": 156944,
      "Delta": 46666690
    },
    {
      "NoteNumber": 56,
      "Velocity": 80,
      "Duration": 156944,
      "SoundDuration": 156944,
      "Delta": 46833356
    },
    {
      "NoteNumber": 78,
      "Velocity": 80,
      "Duration": 156944,
      "SoundDuration": 156944,
      "Delta": 47000023
    },
    {
      "NoteNumber": 59,
      "Velocity": 80,
      "Duration": 156944,
      "SoundDuration": 156944,
      "Delta": 47000023
    },
    {
      "NoteNumber": 80,
      "Velocity": 80,
      "Duration": 156944,
      "SoundDuration": 156944,
      "Delta": 47166690
    },
    {
      "NoteNumber": 56,
      "Velocity": 80,
      "Duration": 156944,
      "SoundDuration": 156944,
      "Delta": 47166690
    },
    {
      "NoteNumber": 81,
      "Velocity": 80,
      "Duration": 948611,
      "SoundDuration": 948611,
      "Delta": 47333357
    },
    {
      "NoteNumber": 50,
      "Velocity": 80,
      "Duration": 156944,
      "SoundDuration": 156944,
      "Delta": 47333357
    },
    {
      "NoteNumber": 54,
      "Velocity": 80,
      "Duration": 156944,
      "SoundDuration": 156944,
      "Delta": 47500023
    },
    {
      "NoteNumber": 57,
      "Velocity": 80,
      "Duration": 156944,
      "SoundDuration": 156944,
      "Delta": 47666690
    },
    {
      "NoteNumber": 62,
      "Velocity": 80,
      "Duration": 156944,
      "SoundDuration": 156944,
      "Delta": 47833357
    },
    {
      "NoteNumber": 57,
      "Velocity": 80,
      "Duration": 156944,
      "SoundDuration": 156944,
      "Delta": 48000024
    },
    {
      "NoteNumber": 54,
      "Velocity": 80,
      "Duration": 156944,
      "SoundDuration": 156944,
      "Delta": 48166690
    },
    {
      "NoteNumber": 78,
      "Velocity": 80,
      "Duration": 315277,
      "SoundDuration": 315277,
      "Delta": 48333357
    },
    {
      "NoteNumber": 57,
      "Velocity": 80,
      "Duration": 156944,
      "SoundDuration": 156944,
      "Delta": 48333357
    },
    {
      "NoteNumber": 56,
      "Velocity": 80,
      "Duration": 156944,
      "SoundDuration": 156944,
      "Delta": 48500024
    },
    {
      "NoteNumber": 76,
      "Velocity": 80,
      "Duration": 948611,
      "SoundDuration": 948611,
      "Delta": 48666691
    },
    {
      "NoteNumber": 52,
      "Velocity": 80,
      "Duration": 156944,
      "SoundDuration": 156944,
      "Delta": 48666691
    },
    {
      "NoteNumber": 56,
      "Velocity": 80,
      "Duration": 156944,
      "SoundDuration": 156944,
      "Delta": 48833357
    },
    {
      "NoteNumber": 59,
      "Velocity": 80,
      "Duration": 156944,
      "SoundDuration": 156944,
      "Delta": 49000024
    },
    {
      "NoteNumber": 64,
      "Velocity": 80,
      "Duration": 156944,
      "SoundDuration": 156944,
      "Delta": 49166691
    },
    {
      "NoteNumber": 59,
      "Velocity": 80,
      "Duration": 156944,
      "SoundDuration": 156944,
      "Delta": 49333358
    },
    {
      "NoteNumber": 56,
      "Velocity": 80,
      "Duration": 156944,
      "SoundDuration": 156944,
      "Delta": 49500024
    },
    {
      "NoteNumber": 71,
      "Velocity": 80,
      "Duration": 156944,
      "SoundDuration": 156944,
      "Delta": 49666691
    },
    {
      "NoteNumber": 59,
      "Velocity": 80,
      "Duration": 156944,
      "SoundDuration": 156944,
      "Delta": 49666691
    },
    {
      "NoteNumber": 73,
      "Velocity": 80,
      "Duration": 156944,
      "SoundDuration": 156944,
      "Delta": 49833358
    },
    {
      "NoteNumber": 56,
      "Velocity": 80,
      "Duration": 156944,
      "SoundDuration": 156944,
      "Delta": 49833358
    },
    {
      "NoteNumber": 74,
      "Velocity": 80,
      "Duration": 616667,
      "SoundDuration": 616667,
      "Delta": 50000025
    },
    {
      "NoteNumber": 52,
      "Velocity": 80,
      "Duration": 156944,
      "SoundDuration": 156944,
      "Delta": 50000025
    },
    {
      "NoteNumber": 56,
      "Velocity": 80,
      "Duration": 156944,
      "SoundDuration": 156944,
      "Delta": 50166691
    },
    {
      "NoteNumber": 59,
      "Velocity": 80,
      "Duration": 156944,
      "SoundDuration": 156944,
      "Delta": 50333358
    },
    {
      "NoteNumber": 64,
      "Velocity": 80,
      "Duration": 156944,
      "SoundDuration": 156944,
      "Delta": 50500025
    },
    {
      "NoteNumber": 74,
      "Velocity": 80,
      "Duration": 616667,
      "SoundDuration": 616667,
      "Delta": 50666692
    },
    {
      "NoteNumber": 59,
      "Velocity": 80,
      "Duration": 156944,
      "SoundDuration": 156944,
      "Delta": 50666692
    },
    {
      "NoteNumber": 56,
      "Velocity": 80,
      "Duration": 156944,
      "SoundDuration": 156944,
      "Delta": 50833358
    },
    {
      "NoteNumber": 59,
      "Velocity": 80,
      "Duration": 156944,
      "SoundDuration": 156944,
      "Delta": 51000025
    },
    {
      "NoteNumber": 56,
      "Velocity": 80,
      "Duration": 156944,
      "SoundDuration": 156944,
      "Delta": 51166692
    },
    {
      "NoteNumber": 74,
      "Velocity": 80,
      "Duration": 315277,
      "SoundDuration": 315277,
      "Delta": 51333359
    },
    {
      "NoteNumber": 57,
      "Velocity": 80,
      "Duration": 156944,
      "SoundDuration": 156944,
      "Delta": 51333359
    },
    {
      "NoteNumber": 61,
      "Velocity": 80,
      "Duration": 156944,
      "SoundDuration": 156944,
      "Delta": 51500025
    },
    {
      "NoteNumber": 73,
      "Velocity": 80,
      "Duration": 315277,
      "SoundDuration": 315277,
      "Delta": 51666692
    },
    {
      "NoteNumber": 64,
      "Velocity": 80,
      "Duration": 156944,
      "SoundDuration": 156944,
      "Delta": 51666692
    },
    {
      "NoteNumber": 61,
      "Velocity": 80,
      "Duration": 156944,
      "SoundDuration": 156944,
      "Delta": 51833359
    },
    {
      "NoteNumber": 71,
      "Velocity": 80,
      "Duration": 315277,
      "SoundDuration": 315277,
      "Delta": 52000026
    },
    {
      "NoteNumber": 59,
      "Velocity": 80,
      "Duration": 156944,
      "SoundDuration": 156944,
      "Delta": 52000026
    },
    {
      "NoteNumber": 61,
      "Velocity": 80,
      "Duration": 156944,
      "SoundDuration": 156944,
      "Delta": 52166692
    },
    {
      "NoteNumber": 69,
      "Velocity": 80,
      "Duration": 1581945,
      "SoundDuration": 1581945,
      "Delta": 52333359
    },
    {
      "NoteNumber": 64,
      "Velocity": 80,
      "Duration": 156944,
      "SoundDuration": 156944,
      "Delta": 52333359
    },
    {
      "NoteNumber": 61,
      "Velocity": 80,
      "Duration": 156944,
      "SoundDuration": 156944,
      "Delta": 52500026
    },
    {
      "NoteNumber": 57,
      "Velocity": 80,
      "Duration": 156944,
      "SoundDuration": 156944,
      "Delta": 52666693
    },
    {
      "NoteNumber": 62,
      "Velocity": 80,
      "Duration": 156944,
      "SoundDuration": 156944,
      "Delta": 52833359
    },
    {
      "NoteNumber": 66,
      "Velocity": 80,
      "Duration": 156944,
      "SoundDuration": 156944,
      "Delta": 53000026
    },
    {
      "NoteNumber": 62,
      "Velocity": 80,
      "Duration": 156944,
      "SoundDuration": 156944,
      "Delta": 53166693
    },
    {
      "NoteNumber": 57,
      "Velocity": 80,
      "Duration": 156944,
      "SoundDuration": 156944,
      "Delta": 53333360
    },
    {
      "NoteNumber": 62,
      "Velocity": 80,
      "Duration": 156944,
      "SoundDuration": 156944,
      "Delta": 53500026
    },
    {
      "NoteNumber": 66,
      "Velocity": 80,
      "Duration": 156944,
      "SoundDuration": 156944,
      "Delta": 53666693
    },
    {
      "NoteNumber": 62,
      "Velocity": 80,
      "Duration": 156944,
      "SoundDuration": 156944,
      "Delta": 53833360
    },
    {
      "NoteNumber": 57,
      "Velocity": 80,
      "Duration": 1265278,
      "SoundDuration": 1265278,
      "Delta": 54000027
    },
    {
      "NoteNumber": 78,
      "Velocity": 80,
      "Duration": 156944,
      "SoundDuration": 156944,
      "Delta": 55000027
    },
    {
      "NoteNumber": 80,
      "Velocity": 80,
      "Duration": 156944,
      "SoundDuration": 156944,
      "Delta": 55166694
    },
    {
      "NoteNumber": 81,
      "Velocity": 80,
      "Duration": 315277,
      "SoundDuration": 315277,
      "Delta": 55333361
    },
    {
      "NoteNumber": 83,
      "Velocity": 80,
      "Duration": 315277,
      "SoundDuration": 315277,
      "Delta": 55666694
    },
    {
      "NoteNumber": 81,
      "Velocity": 80,
      "Duration": 156944,
      "SoundDuration": 156944,
      "Delta": 56000028
    },
    {
      "NoteNumber": 80,
      "Velocity": 80,
      "Duration": 156944,
      "SoundDuration": 156944,
      "Delta": 56166694
    },
    {
      "NoteNumber": 78,
      "Velocity": 80,
      "Duration": 156944,
      "SoundDuration": 156944,
      "Delta": 56333361
    },
    {
      "NoteNumber": 80,
      "Velocity": 80,
      "Duration": 156944,
      "SoundDuration": 156944,
      "Delta": 56500028
    },
    {
      "NoteNumber": 74,
      "Velocity": 80,
      "Duration": 283333,
      "SoundDuration": 283333,
      "Delta": 56666695
    },
    {
      "NoteNumber": 78,
      "Velocity": 80,
      "Duration": 283333,
      "SoundDuration": 283333,
      "Delta": 56666695
    },
    {
      "NoteNumber": 81,
      "Velocity": 80,
      "Duration": 315277,
      "SoundDuration": 315277,
      "Delta": 56666695
    },
    {
      "NoteNumber": 50,
      "Velocity": 80,
      "Duration": 631944,
      "SoundDuration": 631944,
      "Delta": 56666695
    },
    {
      "NoteNumber": 38,
      "Velocity": 80,
      "Duration": 631944,
      "SoundDuration": 631944,
      "Delta": 56666695
    },
    {
      "NoteNumber": 74,
      "Velocity": 80,
      "Duration": 283334,
      "SoundDuration": 283334,
      "Delta": 57000028
    },
    {
      "NoteNumber": 78,
      "Velocity": 80,
      "Duration": 283334,
      "SoundDuration": 283334,
      "Delta": 57000028
    },
    {
      "NoteNumber": 74,
      "Velocity": 80,
      "Duration": 283333,
      "SoundDuration": 283333,
      "Delta": 57333362
    },
    {
      "NoteNumber": 78,
      "Velocity": 80,
      "Duration": 283333,
      "SoundDuration": 283333,
      "Delta": 57333362
    },
    {
      "NoteNumber": 33,
      "Velocity": 80,
      "Duration": 631944,
      "SoundDuration": 631944,
      "Delta": 57333362
    },
    {
      "NoteNumber": 45,
      "Velocity": 80,
      "Duration": 631944,
      "SoundDuration": 631944,
      "Delta": 57333362
    },
    {
      "NoteNumber": 74,
      "Velocity": 80,
      "Duration": 283334,
      "SoundDuration": 283334,
      "Delta": 57666695
    },
    {
      "NoteNumber": 78,
      "Velocity": 80,
      "Duration": 283334,
      "SoundDuration": 283334,
      "Delta": 57666695
    },
    {
      "NoteNumber": 74,
      "Velocity": 80,
      "Duration": 283333,
      "SoundDuration": 283333,
      "Delta": 58000029
    },
    {
      "NoteNumber": 78,
      "Velocity": 80,
      "Duration": 283333,
      "SoundDuration": 283333,
      "Delta": 58000029
    },
    {
      "NoteNumber": 50,
      "Velocity": 80,
      "Duration": 631944,
      "SoundDuration": 631944,
      "Delta": 58000029
    },
    {
      "NoteNumber": 38,
      "Velocity": 80,
      "Duration": 631944,
      "SoundDuration": 631944,
      "Delta": 58000029
    },
    {
      "NoteNumber": 74,
      "Velocity": 80,
      "Duration": 283334,
      "SoundDuration": 283334,
      "Delta": 58333362
    },
    {
      "NoteNumber": 78,
      "Velocity": 80,
      "Duration": 283334,
      "SoundDuration": 283334,
      "Delta": 58333362
    },
    {
      "NoteNumber": 74,
      "Velocity": 80,
      "Duration": 283333,
      "SoundDuration": 283333,
      "Delta": 58666696
    },
    {
      "NoteNumber": 78,
      "Velocity": 80,
      "Duration": 283333,
      "SoundDuration": 283333,
      "Delta": 58666696
    },
    {
      "NoteNumber": 33,
      "Velocity": 80,
      "Duration": 631944,
      "SoundDuration": 631944,
      "Delta": 58666696
    },
    {
      "NoteNumber": 45,
      "Velocity": 80,
      "Duration": 631944,
      "SoundDuration": 631944,
      "Delta": 58666696
    },
    {
      "NoteNumber": 74,
      "Velocity": 80,
      "Duration": 283334,
      "SoundDuration": 283334,
      "Delta": 59000029
    },
    {
      "NoteNumber": 78,
      "Velocity": 80,
      "Duration": 283334,
      "SoundDuration": 283334,
      "Delta": 59000029
    },
    {
      "NoteNumber": 74,
      "Velocity": 80,
      "Duration": 283333,
      "SoundDuration": 283333,
      "Delta": 59333363
    },
    {
      "NoteNumber": 78,
      "Velocity": 80,
      "Duration": 283333,
      "SoundDuration": 283333,
      "Delta": 59333363
    },
    {
      "NoteNumber": 81,
      "Velocity": 80,
      "Duration": 283333,
      "SoundDuration": 283333,
      "Delta": 59333363
    },
    {
      "NoteNumber": 50,
      "Velocity": 80,
      "Duration": 631944,
      "SoundDuration": 631944,
      "Delta": 59333363
    },
    {
      "NoteNumber": 38,
      "Velocity": 80,
      "Duration": 631944,
      "SoundDuration": 631944,
      "Delta": 59333363
    },
    {
      "NoteNumber": 74,
      "Velocity": 80,
      "Duration": 283334,
      "SoundDuration": 283334,
      "Delta": 59666696
    },
    {
      "NoteNumber": 78,
      "Velocity": 80,
      "Duration": 283334,
      "SoundDuration": 283334,
      "Delta": 59666696
    },
    {
      "NoteNumber": 81,
      "Velocity": 80,
      "Duration": 283334,
      "SoundDuration": 283334,
      "Delta": 59666696
    },
    {
      "NoteNumber": 74,
      "Velocity": 80,
      "Duration": 616667,
      "SoundDuration": 616667,
      "Delta": 60000030
    },
    {
      "NoteNumber": 78,
      "Velocity": 80,
      "Duration": 283333,
      "SoundDuration": 283333,
      "Delta": 60000030
    },
    {
      "NoteNumber": 81,
      "Velocity": 80,
      "Duration": 315277,
      "SoundDuration": 315277,
      "Delta": 60000030
    },
    {
      "NoteNumber": 33,
      "Velocity": 80,
      "Duration": 631944,
      "SoundDuration": 631944,
      "Delta": 60000030
    },
    {
      "NoteNumber": 45,
      "Velocity": 80,
      "Duration": 631944,
      "SoundDuration": 631944,
      "Delta": 60000030
    },
    {
      "NoteNumber": 78,
      "Velocity": 80,
      "Duration": 283334,
      "SoundDuration": 283334,
      "Delta": 60333363
    },
    {
      "NoteNumber": 80,
      "Velocity": 80,
      "Duration": 156944,
      "SoundDuration": 156944,
      "Delta": 60500030
    },
    {
      "NoteNumber": 74,
      "Velocity": 80,
      "Duration": 616667,
      "SoundDuration": 616667,
      "Delta": 60666697
    },
    {
      "NoteNumber": 78,
      "Velocity": 80,
      "Duration": 616667,
      "SoundDuration": 616667,
      "Delta": 60666697
    },
    {
      "NoteNumber": 81,
      "Velocity": 80,
      "Duration": 315277,
      "SoundDuration": 315277,
      "Delta": 60666697
    },
    {
      "NoteNumber": 50,
      "Velocity": 80,
      "Duration": 631944,
      "SoundDuration": 631944,
      "Delta": 60666697
    },
    {
      "NoteNumber": 38,
      "Velocity": 80,
      "Duration": 631944,
      "SoundDuration": 631944,
      "Delta": 60666697
    },
    {
      "NoteNumber": 83,
      "Velocity": 80,
      "Duration": 315277,
      "SoundDuration": 315277,
      "Delta": 61000030
    },
    {
      "NoteNumber": 74,
      "Velocity": 80,
      "Duration": 616667,
      "SoundDuration": 616667,
      "Delta": 61333364
    },
    {
      "NoteNumber": 78,
      "Velocity": 80,
      "Duration": 283333,
      "SoundDuration": 283333,
      "Delta": 61333364
    },
    {
      "NoteNumber": 81,
      "Velocity": 80,
      "Duration": 156944,
      "SoundDuration": 156944,
      "Delta": 61333364
    },
    {
      "NoteNumber": 33,
      "Velocity": 80,
      "Duration": 631944,
      "SoundDuration": 631944,
      "Delta": 61333364
    },
    {
      "NoteNumber": 45,
      "Velocity": 80,
      "Duration": 631944,
      "SoundDuration": 631944,
      "Delta": 61333364
    },
    {
      "NoteNumber": 80,
      "Velocity": 80,
      "Duration": 156944,
      "SoundDuration": 156944,
      "Delta": 61500030
    },
    {
      "NoteNumber": 78,
      "Velocity": 80,
      "Duration": 283334,
      "SoundDuration": 283334,
      "Delta": 61666697
    },
    {
      "NoteNumber": 74,
      "Velocity": 80,
      "Duration": 631944,
      "SoundDuration": 631944,
      "Delta": 62000031
    },
    {
      "NoteNumber": 78,
      "Velocity": 80,
      "Duration": 283333,
      "SoundDuration": 283333,
      "Delta": 62000031
    },
    {
      "NoteNumber": 81,
      "Velocity": 80,
      "Duration": 315277,
      "SoundDuration": 315277,
      "Delta": 62000031
    },
    {
      "NoteNumber": 50,
      "Velocity": 80,
      "Duration": 631944,
      "SoundDuration": 631944,
      "Delta": 62000031
    },
    {
      "NoteNumber": 38,
      "Velocity": 80,
      "Duration": 631944,
      "SoundDuration": 631944,
      "Delta": 62000031
    },
    {
      "NoteNumber": 78,
      "Velocity": 80,
      "Duration": 298611,
      "SoundDuration": 298611,
      "Delta": 62333364
    },
    {
      "NoteNumber": 80,
      "Velocity": 80,
      "Duration": 156944,
      "SoundDuration": 156944,
      "Delta": 62500031
    },
    {
      "NoteNumber": 73,
      "Velocity": 80,
      "Duration": 315277,
      "SoundDuration": 315277,
      "Delta": 62666698
    },
    {
      "NoteNumber": 76,
      "Velocity": 80,
      "Duration": 283333,
      "SoundDuration": 283333,
      "Delta": 62666698
    },
    {
      "NoteNumber": 81,
      "Velocity": 80,
      "Duration": 315277,
      "SoundDuration": 315277,
      "Delta": 62666698
    },
    {
      "NoteNumber": 33,
      "Velocity": 80,
      "Duration": 631944,
      "SoundDuration": 631944,
      "Delta": 62666698
    },
    {
      "NoteNumber": 45,
      "Velocity": 80,
      "Duration": 631944,
      "SoundDuration": 631944,
      "Delta": 62666698
    },
    {
      "NoteNumber": 76,
      "Velocity": 80,
      "Duration": 315277,
      "SoundDuration": 315277,
      "Delta": 63000031
    },
    {
      "NoteNumber": 69,
      "Velocity": 80,
      "Duration": 283333,
      "SoundDuration": 283333,
      "Delta": 63333365
    },
    {
      "NoteNumber": 74,
      "Velocity": 80,
      "Duration": 315277,
      "SoundDuration": 315277,
      "Delta": 63333365
    },
    {
      "NoteNumber": 52,
      "Velocity": 80,
      "Duration": 631944,
      "SoundDuration": 631944,
      "Delta": 63333365
    },
    {
      "NoteNumber": 40,
      "Velocity": 80,
      "Duration": 631944,
      "SoundDuration": 631944,
      "Delta": 63333365
    },
    {
      "NoteNumber": 69,
      "Velocity": 80,
      "Duration": 616667,
      "SoundDuration": 616667,
      "Delta": 63666698
    },
    {
      "NoteNumber": 73,
      "Velocity": 80,
      "Duration": 616667,
      "SoundDuration": 616667,
      "Delta": 63666698
    },
    {
      "NoteNumber": 33,
      "Velocity": 80,
      "Duration": 631944,
      "SoundDuration": 631944,
      "Delta": 64000031
    },
    {
      "NoteNumber": 45,
      "Velocity": 80,
      "Duration": 631944,
      "SoundDuration": 631944,
      "Delta": 64000031
    },
    {
      "NoteNumber": 69,
      "Velocity": 80,
      "Duration": 283334,
      "SoundDuration": 283334,
      "Delta": 64333365
    },
    {
      "NoteNumber": 73,
      "Velocity": 80,
      "Duration": 283334,
      "SoundDuration": 283334,
      "Delta": 64333365
    },
    {
      "NoteNumber": 76,
      "Velocity": 80,
      "Duration": 283334,
      "SoundDuration": 283334,
      "Delta": 64333365
    },
    {
      "NoteNumber": 69,
      "Velocity": 80,
      "Duration": 283333,
      "SoundDuration": 283333,
      "Delta": 64666699
    },
    {
      "NoteNumber": 73,
      "Velocity": 80,
      "Duration": 283333,
      "SoundDuration": 283333,
      "Delta": 64666699
    },
    {
      "NoteNumber": 76,
      "Velocity": 80,
      "Duration": 283333,
      "SoundDuration": 283333,
      "Delta": 64666699
    },
    {
      "NoteNumber": 52,
      "Velocity": 80,
      "Duration": 616667,
      "SoundDuration": 616667,
      "Delta": 64666699
    },
    {
      "NoteNumber": 40,
      "Velocity": 80,
      "Duration": 616667,
      "SoundDuration": 616667,
      "Delta": 64666699
    },
    {
      "NoteNumber": 69,
      "Velocity": 80,
      "Duration": 283334,
      "SoundDuration": 283334,
      "Delta": 65000032
    },
    {
      "NoteNumber": 73,
      "Velocity": 80,
      "Duration": 283334,
      "SoundDuration": 283334,
      "Delta": 65000032
    },
    {
      "NoteNumber": 76,
      "Velocity": 80,
      "Duration": 283334,
      "SoundDuration": 283334,
      "Delta": 65000032
    },
    {
      "NoteNumber": 69,
      "Velocity": 80,
      "Duration": 283333,
      "SoundDuration": 283333,
      "Delta": 65333366
    },
    {
      "NoteNumber": 73,
      "Velocity": 80,
      "Duration": 283333,
      "SoundDuration": 283333,
      "Delta": 65333366
    },
    {
      "NoteNumber": 76,
      "Velocity": 80,
      "Duration": 283333,
      "SoundDuration": 283333,
      "Delta": 65333366
    },
    {
      "NoteNumber": 52,
      "Velocity": 80,
      "Duration": 631944,
      "SoundDuration": 631944,
      "Delta": 65333366
    },
    {
      "NoteNumber": 40,
      "Velocity": 80,
      "Duration": 631944,
      "SoundDuration": 631944,
      "Delta": 65333366
    },
    {
      "NoteNumber": 69,
      "Velocity": 80,
      "Duration": 283334,
      "SoundDuration": 283334,
      "Delta": 65666699
    },
    {
      "NoteNumber": 73,
      "Velocity": 80,
      "Duration": 283334,
      "SoundDuration": 283334,
      "Delta": 65666699
    },
    {
      "NoteNumber": 76,
      "Velocity": 80,
      "Duration": 315277,
      "SoundDuration": 315277,
      "Delta": 65666699
    },
    {
      "NoteNumber": 69,
      "Velocity": 80,
      "Duration": 315277,
      "SoundDuration": 315277,
      "Delta": 66000033
    },
    {
      "NoteNumber": 73,
      "Velocity": 80,
      "Duration": 315277,
      "SoundDuration": 315277,
      "Delta": 66000033
    },
    {
      "NoteNumber": 47,
      "Velocity": 80,
      "Duration": 631944,
      "SoundDuration": 631944,
      "Delta": 66000033
    },
    {
      "NoteNumber": 35,
      "Velocity": 80,
      "Duration": 631944,
      "SoundDuration": 631944,
      "Delta": 66000033
    },
    {
      "NoteNumber": 74,
      "Velocity": 80,
      "Duration": 156944,
      "SoundDuration": 156944,
      "Delta": 66333366
    },
    {
      "NoteNumber": 69,
      "Velocity": 80,
      "Duration": 473611,
      "SoundDuration": 473611,
      "Delta": 66500033
    },
    {
      "NoteNumber": 73,
      "Velocity": 80,
      "Duration": 473611,
      "SoundDuration": 473611,
      "Delta": 66500033
    },
    {
      "NoteNumber": 76,
      "Velocity": 80,
      "Duration": 473611,
      "SoundDuration": 473611,
      "Delta": 66500033
    },
    {
      "NoteNumber": 52,
      "Velocity": 80,
      "Duration": 631944,
      "SoundDuration": 631944,
      "Delta": 66666700
    },
    {
      "NoteNumber": 40,
      "Velocity": 80,
      "Duration": 631944,
      "SoundDuration": 631944,
      "Delta": 66666700
    },
    {
      "NoteNumber": 78,
      "Velocity": 80,
      "Duration": 315277,
      "SoundDuration": 315277,
      "Delta": 67000033
    },
    {
      "NoteNumber": 73,
      "Velocity": 80,
      "Duration": 315277,
      "SoundDuration": 315277,
      "Delta": 67333367
    },
    {
      "NoteNumber": 76,
      "Velocity": 80,
      "Duration": 315277,
      "SoundDuration": 315277,
      "Delta": 67333367
    },
    {
      "NoteNumber": 80,
      "Velocity": 80,
      "Duration": 315277,
      "SoundDuration": 315277,
      "Delta": 67333367
    },
    {
      "NoteNumber": 47,
      "Velocity": 80,
      "Duration": 631944,
      "SoundDuration": 631944,
      "Delta": 67333367
    },
    {
      "NoteNumber": 35,
      "Velocity": 80,
      "Duration": 631944,
      "SoundDuration": 631944,
      "Delta": 67333367
    },
    {
      "NoteNumber": 81,
      "Velocity": 80,
      "Duration": 156944,
      "SoundDuration": 156944,
      "Delta": 67666700
    },
    {
      "NoteNumber": 71,
      "Velocity": 80,
      "Duration": 450000,
      "SoundDuration": 450000,
      "Delta": 67833367
    },
    {
      "NoteNumber": 76,
      "Velocity": 80,
      "Duration": 450000,
      "SoundDuration": 450000,
      "Delta": 67833367
    },
    {
      "NoteNumber": 80,
      "Velocity": 80,
      "Duration": 473611,
      "SoundDuration": 473611,
      "Delta": 67833367
    },
    {
      "NoteNumber": 52,
      "Velocity": 80,
      "Duration": 631944,
      "SoundDuration": 631944,
      "Delta": 68000034
    },
    {
      "NoteNumber": 40,
      "Velocity": 80,
      "Duration": 631944,
      "SoundDuration": 631944,
      "Delta": 68000034
    },
    {
      "NoteNumber": 71,
      "Velocity": 80,
      "Duration": 283334,
      "SoundDuration": 283334,
      "Delta": 68333367
    },
    {
      "NoteNumber": 76,
      "Velocity": 80,
      "Duration": 283334,
      "SoundDuration": 283334,
      "Delta": 68333367
    },
    {
      "NoteNumber": 71,
      "Velocity": 80,
      "Duration": 315277,
      "SoundDuration": 315277,
      "Delta": 68666701
    },
    {
      "NoteNumber": 76,
      "Velocity": 80,
      "Duration": 283333,
      "SoundDuration": 283333,
      "Delta": 68666701
    },
    {
      "NoteNumber": 47,
      "Velocity": 80,
      "Duration": 631944,
      "SoundDuration": 631944,
      "Delta": 68666701
    },
    {
      "NoteNumber": 35,
      "Velocity": 80,
      "Duration": 631944,
      "SoundDuration": 631944,
      "Delta": 68666701
    },
    {
      "NoteNumber": 76,
      "Velocity": 80,
      "Duration": 156944,
      "SoundDuration": 156944,
      "Delta": 69000034
    },
    {
      "NoteNumber": 80,
      "Velocity": 80,
      "Duration": 156944,
      "SoundDuration": 156944,
      "Delta": 69166701
    },
    {
      "NoteNumber": 76,
      "Velocity": 80,
      "Duration": 948611,
      "SoundDuration": 948611,
      "Delta": 69333368
    },
    {
      "NoteNumber": 81,
      "Velocity": 80,
      "Duration": 283333,
      "SoundDuration": 283333,
      "Delta": 69333368
    },
    {
      "NoteNumber": 50,
      "Velocity": 80,
      "Duration": 631944,
      "SoundDuration": 631944,
      "Delta": 69333368
    },
    {
      "NoteNumber": 38,
      "Velocity": 80,
      "Duration": 631944,
      "SoundDuration": 631944,
      "Delta": 69333368
    },
    {
      "NoteNumber": 81,
      "Velocity": 80,
      "Duration": 283334,
      "SoundDuration": 283334,
      "Delta": 69666701
    },
    {
      "NoteNumber": 81,
      "Velocity": 80,
      "Duration": 315277,
      "SoundDuration": 315277,
      "Delta": 70000035
    },
    {
      "NoteNumber": 33,
      "Velocity": 80,
      "Duration": 631944,
      "SoundDuration": 631944,
      "Delta": 70000035
    },
    {
      "NoteNumber": 45,
      "Velocity": 80,
      "Duration": 631944,
      "SoundDuration": 631944,
      "Delta": 70000035
    },
    {
      "NoteNumber": 69,
      "Velocity": 80,
      "Duration": 315277,
      "SoundDuration": 315277,
      "Delta": 70333368
    },
    {
      "NoteNumber": 74,
      "Velocity": 80,
      "Duration": 315277,
      "SoundDuration": 315277,
      "Delta": 70333368
    },
    {
      "NoteNumber": 78,
      "Velocity": 80,
      "Duration": 315277,
      "SoundDuration": 315277,
      "Delta": 70333368
    },
    {
      "NoteNumber": 71,
      "Velocity": 80,
      "Duration": 283333,
      "SoundDuration": 283333,
      "Delta": 70666702
    },
    {
      "NoteNumber": 76,
      "Velocity": 80,
      "Duration": 948611,
      "SoundDuration": 948611,
      "Delta": 70666702
    },
    {
      "NoteNumber": 68,
      "Velocity": 80,
      "Duration": 283333,
      "SoundDuration": 283333,
      "Delta": 70666702
    },
    {
      "NoteNumber": 52,
      "Velocity": 80,
      "Duration": 631944,
      "SoundDuration": 631944,
      "Delta": 70666702
    },
    {
      "NoteNumber": 40,
      "Velocity": 80,
      "Duration": 631944,
      "SoundDuration": 631944,
      "Delta": 70666702
    },
    {
      "NoteNumber": 71,
      "Velocity": 80,
      "Duration": 283334,
      "SoundDuration": 283334,
      "Delta": 71000035
    },
    {
      "NoteNumber": 68,
      "Velocity": 80,
      "Duration": 283334,
      "SoundDuration": 283334,
      "Delta": 71000035
    },
    {
      "NoteNumber": 71,
      "Velocity": 80,
      "Duration": 283333,
      "SoundDuration": 283333,
      "Delta": 71333369
    },
    {
      "NoteNumber": 68,
      "Velocity": 80,
      "Duration": 283333,
      "SoundDuration": 283333,
      "Delta": 71333369
    },
    {
      "NoteNumber": 47,
      "Velocity": 80,
      "Duration": 631944,
      "SoundDuration": 631944,
      "Delta": 71333369
    },
    {
      "NoteNumber": 35,
      "Velocity": 80,
      "Duration": 631944,
      "SoundDuration": 631944,
      "Delta": 71333369
    },
    {
      "NoteNumber": 71,
      "Velocity": 80,
      "Duration": 156944,
      "SoundDuration": 156944,
      "Delta": 71666702
    },
    {
      "NoteNumber": 68,
      "Velocity": 80,
      "Duration": 283334,
      "SoundDuration": 283334,
      "Delta": 71666702
    },
    {
      "NoteNumber": 73,
      "Velocity": 80,
      "Duration": 156944,
      "SoundDuration": 156944,
      "Delta": 71833369
    },
    {
      "NoteNumber": 71,
      "Velocity": 80,
      "Duration": 283333,
      "SoundDuration": 283333,
      "Delta": 72000036
    },
    {
      "NoteNumber": 74,
      "Velocity": 80,
      "Duration": 616667,
      "SoundDuration": 616667,
      "Delta": 72000036
    },
    {
      "NoteNumber": 68,
      "Velocity": 80,
      "Duration": 283333,
      "SoundDuration": 283333,
      "Delta": 72000036
    },
    {
      "NoteNumber": 52,
      "Velocity": 80,
      "Duration": 631944,
      "SoundDuration": 631944,
      "Delta": 72000036
    },
    {
      "NoteNumber": 40,
      "Velocity": 80,
      "Duration": 631944,
      "SoundDuration": 631944,
      "Delta": 72000036
    },
    {
      "NoteNumber": 71,
      "Velocity": 80,
      "Duration": 283334,
      "SoundDuration": 283334,
      "Delta": 72333369
    },
    {
      "NoteNumber": 68,
      "Velocity": 80,
      "Duration": 283334,
      "SoundDuration": 283334,
      "Delta": 72333369
    },
    {
      "NoteNumber": 71,
      "Velocity": 80,
      "Duration": 283333,
      "SoundDuration": 283333,
      "Delta": 72666703
    },
    {
      "NoteNumber": 74,
      "Velocity": 80,
      "Duration": 616667,
      "SoundDuration": 616667,
      "Delta": 72666703
    },
    {
      "NoteNumber": 68,
      "Velocity": 80,
      "Duration": 283333,
      "SoundDuration": 283333,
      "Delta": 72666703
    },
    {
      "NoteNumber": 47,
      "Velocity": 80,
      "Duration": 631944,
      "SoundDuration": 631944,
      "Delta": 72666703
    },
    {
      "NoteNumber": 35,
      "Velocity": 80,
      "Duration": 616667,
      "SoundDuration": 616667,
      "Delta": 72666703
    },
    {
      "NoteNumber": 71,
      "Velocity": 80,
      "Duration": 315277,
      "SoundDuration": 315277,
      "Delta": 73000036
    },
    {
      "NoteNumber": 68,
      "Velocity": 80,
      "Duration": 315277,
      "SoundDuration": 315277,
      "Delta": 73000036
    },
    {
      "NoteNumber": 69,
      "Velocity": 80,
      "Duration": 283333,
      "SoundDuration": 283333,
      "Delta": 73333370
    },
    {
      "NoteNumber": 74,
      "Velocity": 80,
      "Duration": 315277,
      "SoundDuration": 315277,
      "Delta": 73333370
    },
    {
      "NoteNumber": 64,
      "Velocity": 80,
      "Duration": 283333,
      "SoundDuration": 283333,
      "Delta": 73333370
    },
    {
      "NoteNumber": 45,
      "Velocity": 80,
      "Duration": 631944,
      "SoundDuration": 631944,
      "Delta": 73333370
    },
    {
      "NoteNumber": 35,
      "Velocity": 80,
      "Duration": 631944,
      "SoundDuration": 631944,
      "Delta": 73333370
    },
    {
      "NoteNumber": 69,
      "Velocity": 80,
      "Duration": 283334,
      "SoundDuration": 283334,
      "Delta": 73666703
    },
    {
      "NoteNumber": 73,
      "Velocity": 80,
      "Duration": 315277,
      "SoundDuration": 315277,
      "Delta": 73666703
    },
    {
      "NoteNumber": 64,
      "Velocity": 80,
      "Duration": 283334,
      "SoundDuration": 283334,
      "Delta": 73666703
    },
    {
      "NoteNumber": 69,
      "Velocity": 80,
      "Duration": 283333,
      "SoundDuration": 283333,
      "Delta": 74000037
    },
    {
      "NoteNumber": 71,
      "Velocity": 80,
      "Duration": 315277,
      "SoundDuration": 315277,
      "Delta": 74000037
    },
    {
      "NoteNumber": 64,
      "Velocity": 80,
      "Duration": 283333,
      "SoundDuration": 283333,
      "Delta": 74000037
    },
    {
      "NoteNumber": 52,
      "Velocity": 80,
      "Duration": 631944,
      "SoundDuration": 631944,
      "Delta": 74000037
    },
    {
      "NoteNumber": 40,
      "Velocity": 80,
      "Duration": 631944,
      "SoundDuration": 631944,
      "Delta": 74000037
    },
    {
      "NoteNumber": 69,
      "Velocity": 80,
      "Duration": 616667,
      "SoundDuration": 616667,
      "Delta": 74333370
    },
    {
      "NoteNumber": 73,
      "Velocity": 80,
      "Duration": 616667,
      "SoundDuration": 616667,
      "Delta": 74333370
    },
    {
      "NoteNumber": 64,
      "Velocity": 80,
      "Duration": 616667,
      "SoundDuration": 616667,
      "Delta": 74333370
    },
    {
      "NoteNumber": 33,
      "Velocity": 80,
      "Duration": 631944,
      "SoundDuration": 631944,
      "Delta": 74666704
    },
    {
      "NoteNumber": 45,
      "Velocity": 80,
      "Duration": 631944,
      "SoundDuration": 631944,
      "Delta": 74666704
    },
    {
      "NoteNumber": 69,
      "Velocity": 80,
      "Duration": 283334,
      "SoundDuration": 283334,
      "Delta": 75000037
    },
    {
      "NoteNumber": 73,
      "Velocity": 80,
      "Duration": 283334,
      "SoundDuration": 283334,
      "Delta": 75000037
    },
    {
      "NoteNumber": 64,
      "Velocity": 80,
      "Duration": 283334,
      "SoundDuration": 283334,
      "Delta": 75000037
    },
    {
      "NoteNumber": 69,
      "Velocity": 80,
      "Duration": 283333,
      "SoundDuration": 283333,
      "Delta": 75333371
    },
    {
      "NoteNumber": 73,
      "Velocity": 80,
      "Duration": 283333,
      "SoundDuration": 283333,
      "Delta": 75333371
    },
    {
      "NoteNumber": 64,
      "Velocity": 80,
      "Duration": 283333,
      "SoundDuration": 283333,
      "Delta": 75333371
    },
    {
      "NoteNumber": 52,
      "Velocity": 80,
      "Duration": 631944,
      "SoundDuration": 631944,
      "Delta": 75333371
    },
    {
      "NoteNumber": 40,
      "Velocity": 80,
      "Duration": 631944,
      "SoundDuration": 631944,
      "Delta": 75333371
    },
    {
      "NoteNumber": 69,
      "Velocity": 80,
      "Duration": 283334,
      "SoundDuration": 283334,
      "Delta": 75666704
    },
    {
      "NoteNumber": 73,
      "Velocity": 80,
      "Duration": 283334,
      "SoundDuration": 283334,
      "Delta": 75666704
    },
    {
      "NoteNumber": 64,
      "Velocity": 80,
      "Duration": 315277,
      "SoundDuration": 315277,
      "Delta": 75666704
    },
    {
      "NoteNumber": 69,
      "Velocity": 80,
      "Duration": 283333,
      "SoundDuration": 283333,
      "Delta": 76000038
    },
    {
      "NoteNumber": 73,
      "Velocity": 80,
      "Duration": 283333,
      "SoundDuration": 283333,
      "Delta": 76000038
    },
    {
      "NoteNumber": 76,
      "Velocity": 80,
      "Duration": 283333,
      "SoundDuration": 283333,
      "Delta": 76000038
    },
    {
      "NoteNumber": 45,
      "Velocity": 80,
      "Duration": 631944,
      "SoundDuration": 631944,
      "Delta": 76000038
    },
    {
      "NoteNumber": 35,
      "Velocity": 80,
      "Duration": 631944,
      "SoundDuration": 631944,
      "Delta": 76000038
    },
    {
      "NoteNumber": 69,
      "Velocity": 80,
      "Duration": 283334,
      "SoundDuration": 283334,
      "Delta": 76333371
    },
    {
      "NoteNumber": 73,
      "Velocity": 80,
      "Duration": 283334,
      "SoundDuration": 283334,
      "Delta": 76333371
    },
    {
      "NoteNumber": 76,
      "Velocity": 80,
      "Duration": 283334,
      "SoundDuration": 283334,
      "Delta": 76333371
    },
    {
      "NoteNumber": 69,
      "Velocity": 80,
      "Duration": 315277,
      "SoundDuration": 315277,
      "Delta": 76666705
    },
    {
      "NoteNumber": 73,
      "Velocity": 80,
      "Duration": 315277,
      "SoundDuration": 315277,
      "Delta": 76666705
    },
    {
      "NoteNumber": 76,
      "Velocity": 80,
      "Duration": 315277,
      "SoundDuration": 315277,
      "Delta": 76666705
    },
    {
      "NoteNumber": 52,
      "Velocity": 80,
      "Duration": 631944,
      "SoundDuration": 631944,
      "Delta": 76666705
    },
    {
      "NoteNumber": 40,
      "Velocity": 80,
      "Duration": 631944,
      "SoundDuration": 631944,
      "Delta": 76666705
    },
    {
      "NoteNumber": 78,
      "Velocity": 80,
      "Duration": 156944,
      "SoundDuration": 156944,
      "Delta": 77000038
    },
    {
      "NoteNumber": 80,
      "Velocity": 80,
      "Duration": 156944,
      "SoundDuration": 156944,
      "Delta": 77166705
    },
    {
      "NoteNumber": 81,
      "Velocity": 80,
      "Duration": 315277,
      "SoundDuration": 315277,
      "Delta": 77333372
    },
    {
      "NoteNumber": 33,
      "Velocity": 80,
      "Duration": 631944,
      "SoundDuration": 631944,
      "Delta": 77333372
    },
    {
      "NoteNumber": 45,
      "Velocity": 80,
      "Duration": 631944,
      "SoundDuration": 631944,
      "Delta": 77333372
    },
    {
      "NoteNumber": 83,
      "Velocity": 80,
      "Duration": 315277,
      "SoundDuration": 315277,
      "Delta": 77666705
    },
    {
      "NoteNumber": 81,
      "Velocity": 80,
      "Duration": 156944,
      "SoundDuration": 156944,
      "Delta": 78000039
    },
    {
      "NoteNumber": 52,
      "Velocity": 80,
      "Duration": 631944,
      "SoundDuration": 631944,
      "Delta": 78000039
    },
    {
      "NoteNumber": 40,
      "Velocity": 80,
      "Duration": 631944,
      "SoundDuration": 631944,
      "Delta": 78000039
    },
    {
      "NoteNumber": 80,
      "Velocity": 80,
      "Duration": 156944,
      "SoundDuration": 156944,
      "Delta": 78166705
    },
    {
      "NoteNumber": 78,
      "Velocity": 80,
      "Duration": 156944,
      "SoundDuration": 156944,
      "Delta": 78333372
    },
    {
      "NoteNumber": 80,
      "Velocity": 80,
      "Duration": 156944,
      "SoundDuration": 156944,
      "Delta": 78500039
    },
    {
      "NoteNumber": 74,
      "Velocity": 80,
      "Duration": 283333,
      "SoundDuration": 283333,
      "Delta": 78666706
    },
    {
      "NoteNumber": 78,
      "Velocity": 80,
      "Duration": 283333,
      "SoundDuration": 283333,
      "Delta": 78666706
    },
    {
      "NoteNumber": 81,
      "Velocity": 80,
      "Duration": 315277,
      "SoundDuration": 315277,
      "Delta": 78666706
    },
    {
      "NoteNumber": 50,
      "Velocity": 80,
      "Duration": 631944,
      "SoundDuration": 631944,
      "Delta": 78666706
    },
    {
      "NoteNumber": 38,
      "Velocity": 80,
      "Duration": 631944,
      "SoundDuration": 631944,
      "Delta": 78666706
    },
    {
      "NoteNumber": 74,
      "Velocity": 80,
      "Duration": 283334,
      "SoundDuration": 283334,
      "Delta": 79000039
    },
    {
      "NoteNumber": 78,
      "Velocity": 80,
      "Duration": 283334,
      "SoundDuration": 283334,
      "Delta": 79000039
    },
    {
      "NoteNumber": 74,
      "Velocity": 80,
      "Duration": 283333,
      "SoundDuration": 283333,
      "Delta": 79333373
    },
    {
      "NoteNumber": 78,
      "Velocity": 80,
      "Duration": 283333,
      "SoundDuration": 283333,
      "Delta": 79333373
    },
    {
      "NoteNumber": 33,
      "Velocity": 80,
      "Duration": 631944,
      "SoundDuration": 631944,
      "Delta": 79333373
    },
    {
      "NoteNumber": 45,
      "Velocity": 80,
      "Duration": 631944,
      "SoundDuration": 631944,
      "Delta": 79333373
    },
    {
      "NoteNumber": 74,
      "Velocity": 80,
      "Duration": 283334,
      "SoundDuration": 283334,
      "Delta": 79666706
    },
    {
      "NoteNumber": 78,
      "Velocity": 80,
      "Duration": 283334,
      "SoundDuration": 283334,
      "Delta": 79666706
    },
    {
      "NoteNumber": 74,
      "Velocity": 80,
      "Duration": 283333,
      "SoundDuration": 283333,
      "Delta": 80000040
    },
    {
      "NoteNumber": 78,
      "Velocity": 80,
      "Duration": 283333,
      "SoundDuration": 283333,
      "Delta": 80000040
    },
    {
      "NoteNumber": 50,
      "Velocity": 80,
      "Duration": 631944,
      "SoundDuration": 631944,
      "Delta": 80000040
    },
    {
      "NoteNumber": 38,
      "Velocity": 80,
      "Duration": 631944,
      "SoundDuration": 631944,
      "Delta": 80000040
    },
    {
      "NoteNumber": 74,
      "Velocity": 80,
      "Duration": 283334,
      "SoundDuration": 283334,
      "Delta": 80333373
    },
    {
      "NoteNumber": 78,
      "Velocity": 80,
      "Duration": 283334,
      "SoundDuration": 283334,
      "Delta": 80333373
    },
    {
      "NoteNumber": 74,
      "Velocity": 80,
      "Duration": 283333,
      "SoundDuration": 283333,
      "Delta": 80666707
    },
    {
      "NoteNumber": 78,
      "Velocity": 80,
      "Duration": 283333,
      "SoundDuration": 283333,
      "Delta": 80666707
    },
    {
      "NoteNumber": 33,
      "Velocity": 80,
      "Duration": 631944,
      "SoundDuration": 631944,
      "Delta": 80666707
    },
    {
      "NoteNumber": 45,
      "Velocity": 80,
      "Duration": 631944,
      "SoundDuration": 631944,
      "Delta": 80666707
    },
    {
      "NoteNumber": 74,
      "Velocity": 80,
      "Duration": 283334,
      "SoundDuration": 283334,
      "Delta": 81000040
    },
    {
      "NoteNumber": 78,
      "Velocity": 80,
      "Duration": 283334,
      "SoundDuration": 283334,
      "Delta": 81000040
    },
    {
      "NoteNumber": 74,
      "Velocity": 80,
      "Duration": 283333,
      "SoundDuration": 283333,
      "Delta": 81333374
    },
    {
      "NoteNumber": 78,
      "Velocity": 80,
      "Duration": 283333,
      "SoundDuration": 283333,
      "Delta": 81333374
    },
    {
      "NoteNumber": 81,
      "Velocity": 80,
      "Duration": 283333,
      "SoundDuration": 283333,
      "Delta": 81333374
    },
    {
      "NoteNumber": 50,
      "Velocity": 80,
      "Duration": 631944,
      "SoundDuration": 631944,
      "Delta": 81333374
    },
    {
      "NoteNumber": 38,
      "Velocity": 80,
      "Duration": 631944,
      "SoundDuration": 631944,
      "Delta": 81333374
    },
    {
      "NoteNumber": 74,
      "Velocity": 80,
      "Duration": 283334,
      "SoundDuration": 283334,
      "Delta": 81666707
    },
    {
      "NoteNumber": 78,
      "Velocity": 80,
      "Duration": 283334,
      "SoundDuration": 283334,
      "Delta": 81666707
    },
    {
      "NoteNumber": 81,
      "Velocity": 80,
      "Duration": 283334,
      "SoundDuration": 283334,
      "Delta": 81666707
    },
    {
      "NoteNumber": 74,
      "Velocity": 80,
      "Duration": 616667,
      "SoundDuration": 616667,
      "Delta": 82000041
    },
    {
      "NoteNumber": 78,
      "Velocity": 80,
      "Duration": 283333,
      "SoundDuration": 283333,
      "Delta": 82000041
    },
    {
      "NoteNumber": 81,
      "Velocity": 80,
      "Duration": 315277,
      "SoundDuration": 315277,
      "Delta": 82000041
    },
    {
      "NoteNumber": 33,
      "Velocity": 80,
      "Duration": 631944,
      "SoundDuration": 631944,
      "Delta": 82000041
    },
    {
      "NoteNumber": 45,
      "Velocity": 80,
      "Duration": 631944,
      "SoundDuration": 631944,
      "Delta": 82000041
    },
    {
      "NoteNumber": 78,
      "Velocity": 80,
      "Duration": 283334,
      "SoundDuration": 283334,
      "Delta": 82333374
    },
    {
      "NoteNumber": 80,
      "Velocity": 80,
      "Duration": 156944,
      "SoundDuration": 156944,
      "Delta": 82500041
    },
    {
      "NoteNumber": 74,
      "Velocity": 80,
      "Duration": 616667,
      "SoundDuration": 616667,
      "Delta": 82666708
    },
    {
      "NoteNumber": 78,
      "Velocity": 80,
      "Duration": 631944,
      "SoundDuration": 631944,
      "Delta": 82666708
    },
    {
      "NoteNumber": 81,
      "Velocity": 80,
      "Duration": 315277,
      "SoundDuration": 315277,
      "Delta": 82666708
    },
    {
      "NoteNumber": 50,
      "Velocity": 80,
      "Duration": 631944,
      "SoundDuration": 631944,
      "Delta": 82666708
    },
    {
      "NoteNumber": 38,
      "Velocity": 80,
      "Duration": 631944,
      "SoundDuration": 631944,
      "Delta": 82666708
    },
    {
      "NoteNumber": 83,
      "Velocity": 80,
      "Duration": 315277,
      "SoundDuration": 315277,
      "Delta": 83000041
    },
    {
      "NoteNumber": 74,
      "Velocity": 80,
      "Duration": 631944,
      "SoundDuration": 631944,
      "Delta": 83333375
    },
    {
      "NoteNumber": 81,
      "Velocity": 80,
      "Duration": 315277,
      "SoundDuration": 315277,
      "Delta": 83333375
    },
    {
      "NoteNumber": 33,
      "Velocity": 80,
      "Duration": 631944,
      "SoundDuration": 631944,
      "Delta": 83333375
    },
    {
      "NoteNumber": 45,
      "Velocity": 80,
      "Duration": 631944,
      "SoundDuration": 631944,
      "Delta": 83333375
    },
    {
      "NoteNumber": 80,
      "Velocity": 80,
      "Duration": 156944,
      "SoundDuration": 156944,
      "Delta": 83666708
    },
    {
      "NoteNumber": 78,
      "Velocity": 80,
      "Duration": 116667,
      "SoundDuration": 116667,
      "Delta": 83833375
    },
    {
      "NoteNumber": 73,
      "Velocity": 80,
      "Duration": 283333,
      "SoundDuration": 283333,
      "Delta": 84000042
    },
    {
      "NoteNumber": 78,
      "Velocity": 80,
      "Duration": 283333,
      "SoundDuration": 283333,
      "Delta": 84000042
    },
    {
      "NoteNumber": 81,
      "Velocity": 80,
      "Duration": 315277,
      "SoundDuration": 315277,
      "Delta": 84000042
    },
    {
      "NoteNumber": 50,
      "Velocity": 80,
      "Duration": 631944,
      "SoundDuration": 631944,
      "Delta": 84000042
    },
    {
      "NoteNumber": 38,
      "Velocity": 80,
      "Duration": 631944,
      "SoundDuration": 631944,
      "Delta": 84000042
    },
    {
      "NoteNumber": 73,
      "Velocity": 80,
      "Duration": 315277,
      "SoundDuration": 315277,
      "Delta": 84333375
    },
    {
      "NoteNumber": 78,
      "Velocity": 80,
      "Duration": 315277,
      "SoundDuration": 315277,
      "Delta": 84333375
    },
    {
      "NoteNumber": 83,
      "Velocity": 80,
      "Duration": 315277,
      "SoundDuration": 315277,
      "Delta": 84333375
    },
    {
      "NoteNumber": 76,
      "Velocity": 80,
      "Duration": 616667,
      "SoundDuration": 616667,
      "Delta": 84666709
    },
    {
      "NoteNumber": 81,
      "Velocity": 80,
      "Duration": 315277,
      "SoundDuration": 315277,
      "Delta": 84666709
    },
    {
      "NoteNumber": 33,
      "Velocity": 80,
      "Duration": 631944,
      "SoundDuration": 631944,
      "Delta": 84666709
    },
    {
      "NoteNumber": 45,
      "Velocity": 80,
      "Duration": 631944,
      "SoundDuration": 631944,
      "Delta": 84666709
    },
    {
      "NoteNumber": 85,
      "Velocity": 80,
      "Duration": 315277,
      "SoundDuration": 315277,
      "Delta": 84666709
    },
    {
      "NoteNumber": 83,
      "Velocity": 80,
      "Duration": 156944,
      "SoundDuration": 156944,
      "Delta": 85000042
    },
    {
      "NoteNumber": 81,
      "Velocity": 80,
      "Duration": 116667,
      "SoundDuration": 116667,
      "Delta": 85166709
    },
    {
      "NoteNumber": 76,
      "Velocity": 80,
      "Duration": 283333,
      "SoundDuration": 283333,
      "Delta": 85333376
    },
    {
      "NoteNumber": 81,
      "Velocity": 80,
      "Duration": 283333,
      "SoundDuration": 283333,
      "Delta": 85333376
    },
    {
      "NoteNumber": 52,
      "Velocity": 80,
      "Duration": 631944,
      "SoundDuration": 631944,
      "Delta": 85333376
    },
    {
      "NoteNumber": 40,
      "Velocity": 80,
      "Duration": 631944,
      "SoundDuration": 631944,
      "Delta": 85333376
    },
    {
      "NoteNumber": 85,
      "Velocity": 80,
      "Duration": 315277,
      "SoundDuration": 315277,
      "Delta": 85333376
    },
    {
      "NoteNumber": 73,
      "Velocity": 80,
      "Duration": 283334,
      "SoundDuration": 283334,
      "Delta": 85666709
    },
    {
      "NoteNumber": 76,
      "Velocity": 80,
      "Duration": 283334,
      "SoundDuration": 283334,
      "Delta": 85666709
    },
    {
      "NoteNumber": 81,
      "Velocity": 80,
      "Duration": 1581945,
      "SoundDuration": 1581945,
      "Delta": 85666709
    },
    {
      "NoteNumber": 73,
      "Velocity": 80,
      "Duration": 283333,
      "SoundDuration": 283333,
      "Delta": 86000043
    },
    {
      "NoteNumber": 76,
      "Velocity": 80,
      "Duration": 283333,
      "SoundDuration": 283333,
      "Delta": 86000043
    },
    {
      "NoteNumber": 33,
      "Velocity": 80,
      "Duration": 631944,
      "SoundDuration": 631944,
      "Delta": 86000043
    },
    {
      "NoteNumber": 45,
      "Velocity": 80,
      "Duration": 631944,
      "SoundDuration": 631944,
      "Delta": 86000043
    },
    {
      "NoteNumber": 73,
      "Velocity": 80,
      "Duration": 283334,
      "SoundDuration": 283334,
      "Delta": 86333376
    },
    {
      "NoteNumber": 76,
      "Velocity": 80,
      "Duration": 283334,
      "SoundDuration": 283334,
      "Delta": 86333376
    },
    {
      "NoteNumber": 73,
      "Velocity": 80,
      "Duration": 283333,
      "SoundDuration": 283333,
      "Delta": 86666710
    },
    {
      "NoteNumber": 76,
      "Velocity": 80,
      "Duration": 283333,
      "SoundDuration": 283333,
      "Delta": 86666710
    },
    {
      "NoteNumber": 52,
      "Velocity": 80,
      "Duration": 631944,
      "SoundDuration": 631944,
      "Delta": 86666710
    },
    {
      "NoteNumber": 40,
      "Velocity": 80,
      "Duration": 631944,
      "SoundDuration": 631944,
      "Delta": 86666710
    },
    {
      "NoteNumber": 73,
      "Velocity": 80,
      "Duration": 283334,
      "SoundDuration": 283334,
      "Delta": 87000043
    },
    {
      "NoteNumber": 76,
      "Velocity": 80,
      "Duration": 283334,
      "SoundDuration": 283334,
      "Delta": 87000043
    },
    {
      "NoteNumber": 69,
      "Velocity": 80,
      "Duration": 283333,
      "SoundDuration": 283333,
      "Delta": 87333377
    },
    {
      "NoteNumber": 73,
      "Velocity": 80,
      "Duration": 283333,
      "SoundDuration": 283333,
      "Delta": 87333377
    },
    {
      "NoteNumber": 76,
      "Velocity": 80,
      "Duration": 283333,
      "SoundDuration": 283333,
      "Delta": 87333377
    },
    {
      "NoteNumber": 33,
      "Velocity": 80,
      "Duration": 631944,
      "SoundDuration": 631944,
      "Delta": 87333377
    },
    {
      "NoteNumber": 45,
      "Velocity": 80,
      "Duration": 631944,
      "SoundDuration": 631944,
      "Delta": 87333377
    },
    {
      "NoteNumber": 69,
      "Velocity": 80,
      "Duration": 283334,
      "SoundDuration": 283334,
      "Delta": 87666710
    },
    {
      "NoteNumber": 73,
      "Velocity": 80,
      "Duration": 283334,
      "SoundDuration": 283334,
      "Delta": 87666710
    },
    {
      "NoteNumber": 76,
      "Velocity": 80,
      "Duration": 315277,
      "SoundDuration": 315277,
      "Delta": 87666710
    },
    {
      "NoteNumber": 69,
      "Velocity": 80,
      "Duration": 315277,
      "SoundDuration": 315277,
      "Delta": 88000044
    },
    {
      "NoteNumber": 73,
      "Velocity": 80,
      "Duration": 315277,
      "SoundDuration": 315277,
      "Delta": 88000044
    },
    {
      "NoteNumber": 52,
      "Velocity": 80,
      "Duration": 631944,
      "SoundDuration": 631944,
      "Delta": 88000044
    },
    {
      "NoteNumber": 40,
      "Velocity": 80,
      "Duration": 631944,
      "SoundDuration": 631944,
      "Delta": 88000044
    },
    {
      "NoteNumber": 74,
      "Velocity": 80,
      "Duration": 156944,
      "SoundDuration": 156944,
      "Delta": 88333377
    },
    {
      "NoteNumber": 69,
      "Velocity": 80,
      "Duration": 116667,
      "SoundDuration": 116667,
      "Delta": 88500044
    },
    {
      "NoteNumber": 73,
      "Velocity": 80,
      "Duration": 116667,
      "SoundDuration": 116667,
      "Delta": 88500044
    },
    {
      "NoteNumber": 76,
      "Velocity": 80,
      "Duration": 116667,
      "SoundDuration": 116667,
      "Delta": 88500044
    },
    {
      "NoteNumber": 69,
      "Velocity": 80,
      "Duration": 315277,
      "SoundDuration": 315277,
      "Delta": 88666711
    },
    {
      "NoteNumber": 73,
      "Velocity": 80,
      "Duration": 315277,
      "SoundDuration": 315277,
      "Delta": 88666711
    },
    {
      "NoteNumber": 76,
      "Velocity": 80,
      "Duration": 315277,
      "SoundDuration": 315277,
      "Delta": 88666711
    },
    {
      "NoteNumber": 33,
      "Velocity": 80,
      "Duration": 631944,
      "SoundDuration": 631944,
      "Delta": 88666711
    },
    {
      "NoteNumber": 45,
      "Velocity": 80,
      "Duration": 631944,
      "SoundDuration": 631944,
      "Delta": 88666711
    },
    {
      "NoteNumber": 78,
      "Velocity": 80,
      "Duration": 315277,
      "SoundDuration": 315277,
      "Delta": 89000044
    },
    {
      "NoteNumber": 73,
      "Velocity": 80,
      "Duration": 283333,
      "SoundDuration": 283333,
      "Delta": 89333378
    },
    {
      "NoteNumber": 76,
      "Velocity": 80,
      "Duration": 283333,
      "SoundDuration": 283333,
      "Delta": 89333378
    },
    {
      "NoteNumber": 80,
      "Velocity": 80,
      "Duration": 315277,
      "SoundDuration": 315277,
      "Delta": 89333378
    },
    {
      "NoteNumber": 52,
      "Velocity": 80,
      "Duration": 616667,
      "SoundDuration": 616667,
      "Delta": 89333378
    },
    {
      "NoteNumber": 40,
      "Velocity": 80,
      "Duration": 616667,
      "SoundDuration": 616667,
      "Delta": 89333378
    },
    {
      "NoteNumber": 73,
      "Velocity": 80,
      "Duration": 315277,
      "SoundDuration": 315277,
      "Delta": 89666711
    },
    {
      "NoteNumber": 76,
      "Velocity": 80,
      "Duration": 283334,
      "SoundDuration": 283334,
      "Delta": 89666711
    },
    {
      "NoteNumber": 81,
      "Velocity": 80,
      "Duration": 315277,
      "SoundDuration": 315277,
      "Delta": 89666711
    },
    {
      "NoteNumber": 71,
      "Velocity": 80,
      "Duration": 283333,
      "SoundDuration": 283333,
      "Delta": 90000045
    },
    {
      "NoteNumber": 76,
      "Velocity": 80,
      "Duration": 283333,
      "SoundDuration": 283333,
      "Delta": 90000045
    },
    {
      "NoteNumber": 80,
      "Velocity": 80,
      "Duration": 948611,
      "SoundDuration": 948611,
      "Delta": 90000045
    },
    {
      "NoteNumber": 52,
      "Velocity": 80,
      "Duration": 631944,
      "SoundDuration": 631944,
      "Delta": 90000045
    },
    {
      "NoteNumber": 40,
      "Velocity": 80,
      "Duration": 631944,
      "SoundDuration": 631944,
      "Delta": 90000045
    },
    {
      "NoteNumber": 71,
      "Velocity": 80,
      "Duration": 283334,
      "SoundDuration": 283334,
      "Delta": 90333378
    },
    {
      "NoteNumber": 76,
      "Velocity": 80,
      "Duration": 283334,
      "SoundDuration": 283334,
      "Delta": 90333378
    },
    {
      "NoteNumber": 71,
      "Velocity": 80,
      "Duration": 631944,
      "SoundDuration": 631944,
      "Delta": 90666712
    },
    {
      "NoteNumber": 76,
      "Velocity": 80,
      "Duration": 631944,
      "SoundDuration": 631944,
      "Delta": 90666712
    },
    {
      "NoteNumber": 47,
      "Velocity": 80,
      "Duration": 631944,
      "SoundDuration": 631944,
      "Delta": 90666712
    },
    {
      "NoteNumber": 35,
      "Velocity": 80,
      "Duration": 631944,
      "SoundDuration": 631944,
      "Delta": 90666712
    },
    {
      "NoteNumber": 78,
      "Velocity": 80,
      "Duration": 156944,
      "SoundDuration": 156944,
      "Delta": 91000045
    },
    {
      "NoteNumber": 80,
      "Velocity": 80,
      "Duration": 156944,
      "SoundDuration": 156944,
      "Delta": 91166712
    },
    {
      "NoteNumber": 74,
      "Velocity": 80,
      "Duration": 283333,
      "SoundDuration": 283333,
      "Delta": 91333379
    },
    {
      "NoteNumber": 78,
      "Velocity": 80,
      "Duration": 283333,
      "SoundDuration": 283333,
      "Delta": 91333379
    },
    {
      "NoteNumber": 81,
      "Velocity": 80,
      "Duration": 948611,
      "SoundDuration": 948611,
      "Delta": 91333379
    },
    {
      "NoteNumber": 50,
      "Velocity": 80,
      "Duration": 631944,
      "SoundDuration": 631944,
      "Delta": 91333379
    },
    {
      "NoteNumber": 38,
      "Velocity": 80,
      "Duration": 631944,
      "SoundDuration": 631944,
      "Delta": 91333379
    },
    {
      "NoteNumber": 74,
      "Velocity": 80,
      "Duration": 283334,
      "SoundDuration": 283334,
      "Delta": 91666712
    },
    {
      "NoteNumber": 78,
      "Velocity": 80,
      "Duration": 283334,
      "SoundDuration": 283334,
      "Delta": 91666712
    },
    {
      "NoteNumber": 74,
      "Velocity": 80,
      "Duration": 283333,
      "SoundDuration": 283333,
      "Delta": 92000046
    },
    {
      "NoteNumber": 78,
      "Velocity": 80,
      "Duration": 283333,
      "SoundDuration": 283333,
      "Delta": 92000046
    },
    {
      "NoteNumber": 33,
      "Velocity": 80,
      "Duration": 631944,
      "SoundDuration": 631944,
      "Delta": 92000046
    },
    {
      "NoteNumber": 45,
      "Velocity": 80,
      "Duration": 631944,
      "SoundDuration": 631944,
      "Delta": 92000046
    },
    {
      "NoteNumber": 69,
      "Velocity": 80,
      "Duration": 315277,
      "SoundDuration": 315277,
      "Delta": 92333379
    },
    {
      "NoteNumber": 74,
      "Velocity": 80,
      "Duration": 315277,
      "SoundDuration": 315277,
      "Delta": 92333379
    },
    {
      "NoteNumber": 78,
      "Velocity": 80,
      "Duration": 315277,
      "SoundDuration": 315277,
      "Delta": 92333379
    },
    {
      "NoteNumber": 71,
      "Velocity": 80,
      "Duration": 283333,
      "SoundDuration": 283333,
      "Delta": 92666713
    },
    {
      "NoteNumber": 76,
      "Velocity": 80,
      "Duration": 948611,
      "SoundDuration": 948611,
      "Delta": 92666713
    },
    {
      "NoteNumber": 68,
      "Velocity": 80,
      "Duration": 283333,
      "SoundDuration": 283333,
      "Delta": 92666713
    },
    {
      "NoteNumber": 52,
      "Velocity": 80,
      "Duration": 631944,
      "SoundDuration": 631944,
      "Delta": 92666713
    },
    {
      "NoteNumber": 40,
      "Velocity": 80,
      "Duration": 631944,
      "SoundDuration": 631944,
      "Delta": 92666713
    },
    {
      "NoteNumber": 71,
      "Velocity": 80,
      "Duration": 283334,
      "SoundDuration": 283334,
      "Delta": 93000046
    },
    {
      "NoteNumber": 68,
      "Velocity": 80,
      "Duration": 283334,
      "SoundDuration": 283334,
      "Delta": 93000046
    },
    {
      "NoteNumber": 71,
      "Velocity": 80,
      "Duration": 283333,
      "SoundDuration": 283333,
      "Delta": 93333380
    },
    {
      "NoteNumber": 68,
      "Velocity": 80,
      "Duration": 283333,
      "SoundDuration": 283333,
      "Delta": 93333380
    },
    {
      "NoteNumber": 47,
      "Velocity": 80,
      "Duration": 631944,
      "SoundDuration": 631944,
      "Delta": 93333380
    },
    {
      "NoteNumber": 35,
      "Velocity": 80,
      "Duration": 631944,
      "SoundDuration": 631944,
      "Delta": 93333380
    },
    {
      "NoteNumber": 71,
      "Velocity": 80,
      "Duration": 156944,
      "SoundDuration": 156944,
      "Delta": 93666713
    },
    {
      "NoteNumber": 68,
      "Velocity": 80,
      "Duration": 283334,
      "SoundDuration": 283334,
      "Delta": 93666713
    },
    {
      "NoteNumber": 73,
      "Velocity": 80,
      "Duration": 156944,
      "SoundDuration": 156944,
      "Delta": 93833380
    },
    {
      "NoteNumber": 71,
      "Velocity": 80,
      "Duration": 283333,
      "SoundDuration": 283333,
      "Delta": 94000047
    },
    {
      "NoteNumber": 74,
      "Velocity": 80,
      "Duration": 616667,
      "SoundDuration": 616667,
      "Delta": 94000047
    },
    {
      "NoteNumber": 68,
      "Velocity": 80,
      "Duration": 283333,
      "SoundDuration": 283333,
      "Delta": 94000047
    },
    {
      "NoteNumber": 52,
      "Velocity": 80,
      "Duration": 631944,
      "SoundDuration": 631944,
      "Delta": 94000047
    },
    {
      "NoteNumber": 40,
      "Velocity": 80,
      "Duration": 631944,
      "SoundDuration": 631944,
      "Delta": 94000047
    },
    {
      "NoteNumber": 71,
      "Velocity": 80,
      "Duration": 283334,
      "SoundDuration": 283334,
      "Delta": 94333380
    },
    {
      "NoteNumber": 68,
      "Velocity": 80,
      "Duration": 283334,
      "SoundDuration": 283334,
      "Delta": 94333380
    },
    {
      "NoteNumber": 71,
      "Velocity": 80,
      "Duration": 283333,
      "SoundDuration": 283333,
      "Delta": 94666714
    },
    {
      "NoteNumber": 74,
      "Velocity": 80,
      "Duration": 616667,
      "SoundDuration": 616667,
      "Delta": 94666714
    },
    {
      "NoteNumber": 68,
      "Velocity": 80,
      "Duration": 283333,
      "SoundDuration": 283333,
      "Delta": 94666714
    },
    {
      "NoteNumber": 47,
      "Velocity": 80,
      "Duration": 631944,
      "SoundDuration": 631944,
      "Delta": 94666714
    },
    {
      "NoteNumber": 35,
      "Velocity": 80,
      "Duration": 631944,
      "SoundDuration": 631944,
      "Delta": 94666714
    },
    {
      "NoteNumber": 71,
      "Velocity": 80,
      "Duration": 315277,
      "SoundDuration": 315277,
      "Delta": 95000047
    },
    {
      "NoteNumber": 68,
      "Velocity": 80,
      "Duration": 315277,
      "SoundDuration": 315277,
      "Delta": 95000047
    },
    {
      "NoteNumber": 74,
      "Velocity": 80,
      "Duration": 315277,
      "SoundDuration": 315277,
      "Delta": 95333381
    },
    {
      "NoteNumber": 66,
      "Velocity": 80,
      "Duration": 315277,
      "SoundDuration": 315277,
      "Delta": 95333381
    },
    {
      "NoteNumber": 33,
      "Velocity": 80,
      "Duration": 631944,
      "SoundDuration": 631944,
      "Delta": 95333381
    },
    {
      "NoteNumber": 45,
      "Velocity": 80,
      "Duration": 631944,
      "SoundDuration": 631944,
      "Delta": 95333381
    },
    {
      "NoteNumber": 73,
      "Velocity": 80,
      "Duration": 315277,
      "SoundDuration": 315277,
      "Delta": 95666714
    },
    {
      "NoteNumber": 64,
      "Velocity": 80,
      "Duration": 315277,
      "SoundDuration": 315277,
      "Delta": 95666714
    },
    {
      "NoteNumber": 71,
      "Velocity": 80,
      "Duration": 315277,
      "SoundDuration": 315277,
      "Delta": 96000048
    },
    {
      "NoteNumber": 62,
      "Velocity": 80,
      "Duration": 315277,
      "SoundDuration": 315277,
      "Delta": 96000048
    },
    {
      "NoteNumber": 52,
      "Velocity": 80,
      "Duration": 631944,
      "SoundDuration": 631944,
      "Delta": 96000048
    },
    {
      "NoteNumber": 40,
      "Velocity": 80,
      "Duration": 631944,
      "SoundDuration": 631944,
      "Delta": 96000048
    },
    {
      "NoteNumber": 69,
      "Velocity": 80,
      "Duration": 948611,
      "SoundDuration": 948611,
      "Delta": 96333381
    },
    {
      "NoteNumber": 61,
      "Velocity": 80,
      "Duration": 948611,
      "SoundDuration": 948611,
      "Delta": 96333381
    },
    {
      "NoteNumber": 33,
      "Velocity": 80,
      "Duration": 631944,
      "SoundDuration": 631944,
      "Delta": 96666715
    },
    {
      "NoteNumber": 45,
      "Velocity": 80,
      "Duration": 616667,
      "SoundDuration": 616667,
      "Delta": 96666715
    },
    {
      "NoteNumber": 69,
      "Velocity": 80,
      "Duration": 315277,
      "SoundDuration": 315277,
      "Delta": 97333382
    },
    {
      "NoteNumber": 61,
      "Velocity": 80,
      "Duration": 315277,
      "SoundDuration": 315277,
      "Delta": 97333382
    },
    {
      "NoteNumber": 45,
      "Velocity": 80,
      "Duration": 315277,
      "SoundDuration": 315277,
      "Delta": 97333382
    },
    {
      "NoteNumber": 71,
      "Velocity": 80,
      "Duration": 315277,
      "SoundDuration": 315277,
      "Delta": 97666715
    },
    {
      "NoteNumber": 62,
      "Velocity": 80,
      "Duration": 315277,
      "SoundDuration": 315277,
      "Delta": 97666715
    },
    {
      "NoteNumber": 47,
      "Velocity": 80,
      "Duration": 315277,
      "SoundDuration": 315277,
      "Delta": 97666715
    },
    {
      "NoteNumber": 76,
      "Velocity": 80,
      "Duration": 315277,
      "SoundDuration": 315277,
      "Delta": 98000049
    },
    {
      "NoteNumber": 64,
      "Velocity": 80,
      "Duration": 315277,
      "SoundDuration": 315277,
      "Delta": 98000049
    },
    {
      "NoteNumber": 49,
      "Velocity": 80,
      "Duration": 315277,
      "SoundDuration": 315277,
      "Delta": 98000049
    },
    {
      "NoteNumber": 78,
      "Velocity": 80,
      "Duration": 315277,
      "SoundDuration": 315277,
      "Delta": 98333382
    },
    {
      "NoteNumber": 66,
      "Velocity": 80,
      "Duration": 315277,
      "SoundDuration": 315277,
      "Delta": 98333382
    },
    {
      "NoteNumber": 50,
      "Velocity": 80,
      "Duration": 315277,
      "SoundDuration": 315277,
      "Delta": 98333382
    },
    {
      "NoteNumber": 80,
      "Velocity": 80,
      "Duration": 315277,
      "SoundDuration": 315277,
      "Delta": 98666716
    },
    {
      "NoteNumber": 68,
      "Velocity": 80,
      "Duration": 315277,
      "SoundDuration": 315277,
      "Delta": 98666716
    },
    {
      "NoteNumber": 52,
      "Velocity": 80,
      "Duration": 315277,
      "SoundDuration": 315277,
      "Delta": 98666716
    },
    {
      "NoteNumber": 69,
      "Velocity": 80,
      "Duration": 315277,
      "SoundDuration": 315277,
      "Delta": 99000049
    },
    {
      "NoteNumber": 81,
      "Velocity": 80,
      "Duration": 315277,
      "SoundDuration": 315277,
      "Delta": 99000049
    },
    {
      "NoteNumber": 54,
      "Velocity": 80,
      "Duration": 315277,
      "SoundDuration": 315277,
      "Delta": 99000049
    },
    {
      "NoteNumber": 71,
      "Velocity": 80,
      "Duration": 948611,
      "SoundDuration": 948611,
      "Delta": 99333383
    },
    {
      "NoteNumber": 83,
      "Velocity": 80,
      "Duration": 948611,
      "SoundDuration": 948611,
      "Delta": 99333383
    },
    {
      "NoteNumber": 56,
      "Velocity": 80,
      "Duration": 948611,
      "SoundDuration": 948611,
      "Delta": 99333383
    },
    {
      "NoteNumber": 69,
      "Velocity": 80,
      "Duration": 315277,
      "SoundDuration": 315277,
      "Delta": 100333383
    },
    {
      "NoteNumber": 81,
      "Velocity": 80,
      "Duration": 315277,
      "SoundDuration": 315277,
      "Delta": 100333383
    },
    {
      "NoteNumber": 54,
      "Velocity": 80,
      "Duration": 315277,
      "SoundDuration": 315277,
      "Delta": 100333383
    },
    {
      "NoteNumber": 71,
      "Velocity": 80,
      "Duration": 283333,
      "SoundDuration": 283333,
      "Delta": 100666717
    },
    {
      "NoteNumber": 76,
      "Velocity": 80,
      "Duration": 283333,
      "SoundDuration": 283333,
      "Delta": 100666717
    },
    {
      "NoteNumber": 80,
      "Velocity": 80,
      "Duration": 948611,
      "SoundDuration": 948611,
      "Delta": 100666717
    },
    {
      "NoteNumber": 52,
      "Velocity": 80,
      "Duration": 631944,
      "SoundDuration": 631944,
      "Delta": 100666717
    },
    {
      "NoteNumber": 40,
      "Velocity": 80,
      "Duration": 631944,
      "SoundDuration": 631944,
      "Delta": 100666717
    },
    {
      "NoteNumber": 71,
      "Velocity": 80,
      "Duration": 283334,
      "SoundDuration": 283334,
      "Delta": 101000050
    },
    {
      "NoteNumber": 76,
      "Velocity": 80,
      "Duration": 283334,
      "SoundDuration": 283334,
      "Delta": 101000050
    },
    {
      "NoteNumber": 71,
      "Velocity": 80,
      "Duration": 631944,
      "SoundDuration": 631944,
      "Delta": 101333384
    },
    {
      "NoteNumber": 76,
      "Velocity": 80,
      "Duration": 631944,
      "SoundDuration": 631944,
      "Delta": 101333384
    },
    {
      "NoteNumber": 33,
      "Velocity": 80,
      "Duration": 631944,
      "SoundDuration": 631944,
      "Delta": 101333384
    },
    {
      "NoteNumber": 45,
      "Velocity": 80,
      "Duration": 631944,
      "SoundDuration": 631944,
      "Delta": 101333384
    },
    {
      "NoteNumber": 78,
      "Velocity": 80,
      "Duration": 156944,
      "SoundDuration": 156944,
      "Delta": 101666717
    },
    {
      "NoteNumber": 80,
      "Velocity": 80,
      "Duration": 156944,
      "SoundDuration": 156944,
      "Delta": 101833384
    },
    {
      "NoteNumber": 74,
      "Velocity": 80,
      "Duration": 283333,
      "SoundDuration": 283333,
      "Delta": 102000051
    },
    {
      "NoteNumber": 78,
      "Velocity": 80,
      "Duration": 283333,
      "SoundDuration": 283333,
      "Delta": 102000051
    },
    {
      "NoteNumber": 81,
      "Velocity": 80,
      "Duration": 948611,
      "SoundDuration": 948611,
      "Delta": 102000051
    },
    {
      "NoteNumber": 50,
      "Velocity": 80,
      "Duration": 631944,
      "SoundDuration": 631944,
      "Delta": 102000051
    },
    {
      "NoteNumber": 38,
      "Velocity": 80,
      "Duration": 631944,
      "SoundDuration": 631944,
      "Delta": 102000051
    },
    {
      "NoteNumber": 74,
      "Velocity": 80,
      "Duration": 283334,
      "SoundDuration": 283334,
      "Delta": 102333384
    },
    {
      "NoteNumber": 78,
      "Velocity": 80,
      "Duration": 283334,
      "SoundDuration": 283334,
      "Delta": 102333384
    },
    {
      "NoteNumber": 74,
      "Velocity": 80,
      "Duration": 283333,
      "SoundDuration": 283333,
      "Delta": 102666718
    },
    {
      "NoteNumber": 78,
      "Velocity": 80,
      "Duration": 315277,
      "SoundDuration": 315277,
      "Delta": 102666718
    },
    {
      "NoteNumber": 33,
      "Velocity": 80,
      "Duration": 631944,
      "SoundDuration": 631944,
      "Delta": 102666718
    },
    {
      "NoteNumber": 45,
      "Velocity": 80,
      "Duration": 631944,
      "SoundDuration": 631944,
      "Delta": 102666718
    },
    {
      "NoteNumber": 69,
      "Velocity": 80,
      "Duration": 315277,
      "SoundDuration": 315277,
      "Delta": 103000051
    },
    {
      "NoteNumber": 74,
      "Velocity": 80,
      "Duration": 315277,
      "SoundDuration": 315277,
      "Delta": 103000051
    },
    {
      "NoteNumber": 71,
      "Velocity": 80,
      "Duration": 283333,
      "SoundDuration": 283333,
      "Delta": 103333385
    },
    {
      "NoteNumber": 76,
      "Velocity": 80,
      "Duration": 948611,
      "SoundDuration": 948611,
      "Delta": 103333385
    },
    {
      "NoteNumber": 68,
      "Velocity": 80,
      "Duration": 283333,
      "SoundDuration": 283333,
      "Delta": 103333385
    },
    {
      "NoteNumber": 52,
      "Velocity": 80,
      "Duration": 631944,
      "SoundDuration": 631944,
      "Delta": 103333385
    },
    {
      "NoteNumber": 40,
      "Velocity": 80,
      "Duration": 631944,
      "SoundDuration": 631944,
      "Delta": 103333385
    },
    {
      "NoteNumber": 71,
      "Velocity": 80,
      "Duration": 283334,
      "SoundDuration": 283334,
      "Delta": 103666718
    },
    {
      "NoteNumber": 68,
      "Velocity": 80,
      "Duration": 283334,
      "SoundDuration": 283334,
      "Delta": 103666718
    },
    {
      "NoteNumber": 71,
      "Velocity": 80,
      "Duration": 283333,
      "SoundDuration": 283333,
      "Delta": 104000052
    },
    {
      "NoteNumber": 68,
      "Velocity": 80,
      "Duration": 283333,
      "SoundDuration": 283333,
      "Delta": 104000052
    },
    {
      "NoteNumber": 47,
      "Velocity": 80,
      "Duration": 631944,
      "SoundDuration": 631944,
      "Delta": 104000052
    },
    {
      "NoteNumber": 35,
      "Velocity": 80,
      "Duration": 631944,
      "SoundDuration": 631944,
      "Delta": 104000052
    },
    {
      "NoteNumber": 71,
      "Velocity": 80,
      "Duration": 156944,
      "SoundDuration": 156944,
      "Delta": 104333385
    },
    {
      "NoteNumber": 68,
      "Velocity": 80,
      "Duration": 283334,
      "SoundDuration": 283334,
      "Delta": 104333385
    },
    {
      "NoteNumber": 73,
      "Velocity": 80,
      "Duration": 156944,
      "SoundDuration": 156944,
      "Delta": 104500052
    },
    {
      "NoteNumber": 71,
      "Velocity": 80,
      "Duration": 283333,
      "SoundDuration": 283333,
      "Delta": 104666719
    },
    {
      "NoteNumber": 74,
      "Velocity": 80,
      "Duration": 616667,
      "SoundDuration": 616667,
      "Delta": 104666719
    },
    {
      "NoteNumber": 68,
      "Velocity": 80,
      "Duration": 283333,
      "SoundDuration": 283333,
      "Delta": 104666719
    },
    {
      "NoteNumber": 52,
      "Velocity": 80,
      "Duration": 1265278,
      "SoundDuration": 1265278,
      "Delta": 104666719
    },
    {
      "NoteNumber": 40,
      "Velocity": 80,
      "Duration": 1265278,
      "SoundDuration": 1265278,
      "Delta": 104666719
    },
    {
      "NoteNumber": 71,
      "Velocity": 80,
      "Duration": 283334,
      "SoundDuration": 283334,
      "Delta": 105000052
    },
    {
      "NoteNumber": 68,
      "Velocity": 80,
      "Duration": 283334,
      "SoundDuration": 283334,
      "Delta": 105000052
    },
    {
      "NoteNumber": 71,
      "Velocity": 80,
      "Duration": 283333,
      "SoundDuration": 283333,
      "Delta": 105333386
    },
    {
      "NoteNumber": 74,
      "Velocity": 80,
      "Duration": 616667,
      "SoundDuration": 616667,
      "Delta": 105333386
    },
    {
      "NoteNumber": 68,
      "Velocity": 80,
      "Duration": 283333,
      "SoundDuration": 283333,
      "Delta": 105333386
    },
    {
      "NoteNumber": 71,
      "Velocity": 80,
      "Duration": 315277,
      "SoundDuration": 315277,
      "Delta": 105666719
    },
    {
      "NoteNumber": 68,
      "Velocity": 80,
      "Duration": 315277,
      "SoundDuration": 315277,
      "Delta": 105666719
    },
    {
      "NoteNumber": 74,
      "Velocity": 80,
      "Duration": 315277,
      "SoundDuration": 315277,
      "Delta": 106000053
    },
    {
      "NoteNumber": 57,
      "Velocity": 80,
      "Duration": 156944,
      "SoundDuration": 156944,
      "Delta": 106000053
    },
    {
      "NoteNumber": 61,
      "Velocity": 80,
      "Duration": 156944,
      "SoundDuration": 156944,
      "Delta": 106166719
    },
    {
      "NoteNumber": 73,
      "Velocity": 80,
      "Duration": 315277,
      "SoundDuration": 315277,
      "Delta": 106333386
    },
    {
      "NoteNumber": 64,
      "Velocity": 80,
      "Duration": 156944,
      "SoundDuration": 156944,
      "Delta": 106333386
    },
    {
      "NoteNumber": 61,
      "Velocity": 80,
      "Duration": 156944,
      "SoundDuration": 156944,
      "Delta": 106500053
    },
    {
      "NoteNumber": 71,
      "Velocity": 80,
      "Duration": 315277,
      "SoundDuration": 315277,
      "Delta": 106666720
    },
    {
      "NoteNumber": 57,
      "Velocity": 80,
      "Duration": 156944,
      "SoundDuration": 156944,
      "Delta": 106666720
    },
    {
      "NoteNumber": 61,
      "Velocity": 80,
      "Duration": 156944,
      "SoundDuration": 156944,
      "Delta": 106833386
    },
    {
      "NoteNumber": 69,
      "Velocity": 80,
      "Duration": 1581945,
      "SoundDuration": 1581945,
      "Delta": 107000053
    },
    {
      "NoteNumber": 64,
      "Velocity": 80,
      "Duration": 156944,
      "SoundDuration": 156944,
      "Delta": 107000053
    },
    {
      "NoteNumber": 61,
      "Velocity": 80,
      "Duration": 156944,
      "SoundDuration": 156944,
      "Delta": 107166720
    },
    {
      "NoteNumber": 57,
      "Velocity": 80,
      "Duration": 156944,
      "SoundDuration": 156944,
      "Delta": 107333387
    },
    {
      "NoteNumber": 62,
      "Velocity": 80,
      "Duration": 156944,
      "SoundDuration": 156944,
      "Delta": 107500053
    },
    {
      "NoteNumber": 66,
      "Velocity": 80,
      "Duration": 156944,
      "SoundDuration": 156944,
      "Delta": 107666720
    },
    {
      "NoteNumber": 62,
      "Velocity": 80,
      "Duration": 156944,
      "SoundDuration": 156944,
      "Delta": 107833387
    },
    {
      "NoteNumber": 57,
      "Velocity": 80,
      "Duration": 156944,
      "SoundDuration": 156944,
      "Delta": 108000054
    },
    {
      "NoteNumber": 62,
      "Velocity": 80,
      "Duration": 156944,
      "SoundDuration": 156944,
      "Delta": 108166720
    },
    {
      "NoteNumber": 66,
      "Velocity": 80,
      "Duration": 156944,
      "SoundDuration": 156944,
      "Delta": 108333387
    },
    {
      "NoteNumber": 62,
      "Velocity": 80,
      "Duration": 156944,
      "SoundDuration": 156944,
      "Delta": 108500054
    },
    {
      "NoteNumber": 57,
      "Velocity": 80,
      "Duration": 156944,
      "SoundDuration": 156944,
      "Delta": 108666721
    },
    {
      "NoteNumber": 61,
      "Velocity": 80,
      "Duration": 156944,
      "SoundDuration": 156944,
      "Delta": 108833387
    },
    {
      "NoteNumber": 64,
      "Velocity": 80,
      "Duration": 156944,
      "SoundDuration": 156944,
      "Delta": 109000054
    },
    {
      "NoteNumber": 61,
      "Velocity": 80,
      "Duration": 156944,
      "SoundDuration": 156944,
      "Delta": 109166721
    },
    {
      "NoteNumber": 57,
      "Velocity": 80,
      "Duration": 156944,
      "SoundDuration": 156944,
      "Delta": 109333388
    },
    {
      "NoteNumber": 61,
      "Velocity": 80,
      "Duration": 156944,
      "SoundDuration": 156944,
      "Delta": 109500054
    },
    {
      "NoteNumber": 73,
      "Velocity": 80,
      "Duration": 156944,
      "SoundDuration": 156944,
      "Delta": 109666721
    },
    {
      "NoteNumber": 64,
      "Velocity": 80,
      "Duration": 156944,
      "SoundDuration": 156944,
      "Delta": 109666721
    },
    {
      "NoteNumber": 74,
      "Velocity": 80,
      "Duration": 156944,
      "SoundDuration": 156944,
      "Delta": 109833388
    },
    {
      "NoteNumber": 61,
      "Velocity": 80,
      "Duration": 156944,
      "SoundDuration": 156944,
      "Delta": 109833388
    },
    {
      "NoteNumber": 76,
      "Velocity": 80,
      "Duration": 315277,
      "SoundDuration": 315277,
      "Delta": 110000055
    },
    {
      "NoteNumber": 57,
      "Velocity": 80,
      "Duration": 156944,
      "SoundDuration": 156944,
      "Delta": 110000055
    },
    {
      "NoteNumber": 62,
      "Velocity": 80,
      "Duration": 156944,
      "SoundDuration": 156944,
      "Delta": 110166721
    },
    {
      "NoteNumber": 78,
      "Velocity": 80,
      "Duration": 315277,
      "SoundDuration": 315277,
      "Delta": 110333388
    },
    {
      "NoteNumber": 66,
      "Velocity": 80,
      "Duration": 156944,
      "SoundDuration": 156944,
      "Delta": 110333388
    },
    {
      "NoteNumber": 62,
      "Velocity": 80,
      "Duration": 156944,
      "SoundDuration": 156944,
      "Delta": 110500055
    },
    {
      "NoteNumber": 76,
      "Velocity": 80,
      "Duration": 156944,
      "SoundDuration": 156944,
      "Delta": 110666722
    },
    {
      "NoteNumber": 57,
      "Velocity": 80,
      "Duration": 156944,
      "SoundDuration": 156944,
      "Delta": 110666722
    },
    {
      "NoteNumber": 74,
      "Velocity": 80,
      "Duration": 156944,
      "SoundDuration": 156944,
      "Delta": 110833388
    },
    {
      "NoteNumber": 62,
      "Velocity": 80,
      "Duration": 156944,
      "SoundDuration": 156944,
      "Delta": 110833388
    },
    {
      "NoteNumber": 73,
      "Velocity": 80,
      "Duration": 156944,
      "SoundDuration": 156944,
      "Delta": 111000055
    },
    {
      "NoteNumber": 66,
      "Velocity": 80,
      "Duration": 156944,
      "SoundDuration": 156944,
      "Delta": 111000055
    },
    {
      "NoteNumber": 74,
      "Velocity": 80,
      "Duration": 116667,
      "SoundDuration": 116667,
      "Delta": 111166722
    },
    {
      "NoteNumber": 62,
      "Velocity": 80,
      "Duration": 156944,
      "SoundDuration": 156944,
      "Delta": 111166722
    },
    {
      "NoteNumber": 74,
      "Velocity": 80,
      "Duration": 315277,
      "SoundDuration": 315277,
      "Delta": 111333389
    },
    {
      "NoteNumber": 66,
      "Velocity": 80,
      "Duration": 315277,
      "SoundDuration": 315277,
      "Delta": 111333389
    },
    {
      "NoteNumber": 33,
      "Velocity": 80,
      "Duration": 631944,
      "SoundDuration": 631944,
      "Delta": 111333389
    },
    {
      "NoteNumber": 45,
      "Velocity": 80,
      "Duration": 631944,
      "SoundDuration": 631944,
      "Delta": 111333389
    },
    {
      "NoteNumber": 73,
      "Velocity": 80,
      "Duration": 315277,
      "SoundDuration": 315277,
      "Delta": 111666722
    },
    {
      "NoteNumber": 64,
      "Velocity": 80,
      "Duration": 315277,
      "SoundDuration": 315277,
      "Delta": 111666722
    },
    {
      "NoteNumber": 71,
      "Velocity": 80,
      "Duration": 315277,
      "SoundDuration": 315277,
      "Delta": 112000056
    },
    {
      "NoteNumber": 62,
      "Velocity": 80,
      "Duration": 315277,
      "SoundDuration": 315277,
      "Delta": 112000056
    },
    {
      "NoteNumber": 52,
      "Velocity": 80,
      "Duration": 631944,
      "SoundDuration": 631944,
      "Delta": 112000056
    },
    {
      "NoteNumber": 40,
      "Velocity": 80,
      "Duration": 631944,
      "SoundDuration": 631944,
      "Delta": 112000056
    },
    {
      "NoteNumber": 69,
      "Velocity": 80,
      "Duration": 948611,
      "SoundDuration": 948611,
      "Delta": 112333389
    },
    {
      "NoteNumber": 61,
      "Velocity": 80,
      "Duration": 948611,
      "SoundDuration": 948611,
      "Delta": 112333389
    },
    {
      "NoteNumber": 33,
      "Velocity": 80,
      "Duration": 631944,
      "SoundDuration": 631944,
      "Delta": 112666723
    },
    {
      "NoteNumber": 45,
      "Velocity": 80,
      "Duration": 616667,
      "SoundDuration": 616667,
      "Delta": 112666723
    },
    {
      "NoteNumber": 73,
      "Velocity": 80,
      "Duration": 315277,
      "SoundDuration": 315277,
      "Delta": 113333390
    },
    {
      "NoteNumber": 61,
      "Velocity": 80,
      "Duration": 315277,
      "SoundDuration": 315277,
      "Delta": 113333390
    },
    {
      "NoteNumber": 45,
      "Velocity": 80,
      "Duration": 315277,
      "SoundDuration": 315277,
      "Delta": 113333390
    },
    {
      "NoteNumber": 74,
      "Velocity": 80,
      "Duration": 315277,
      "SoundDuration": 315277,
      "Delta": 113666723
    },
    {
      "NoteNumber": 62,
      "Velocity": 80,
      "Duration": 315277,
      "SoundDuration": 315277,
      "Delta": 113666723
    },
    {
      "NoteNumber": 47,
      "Velocity": 80,
      "Duration": 315277,
      "SoundDuration": 315277,
      "Delta": 113666723
    },
    {
      "NoteNumber": 76,
      "Velocity": 80,
      "Duration": 315277,
      "SoundDuration": 315277,
      "Delta": 114000057
    },
    {
      "NoteNumber": 64,
      "Velocity": 80,
      "Duration": 315277,
      "SoundDuration": 315277,
      "Delta": 114000057
    },
    {
      "NoteNumber": 49,
      "Velocity": 80,
      "Duration": 315277,
      "SoundDuration": 315277,
      "Delta": 114000057
    },
    {
      "NoteNumber": 78,
      "Velocity": 80,
      "Duration": 315277,
      "SoundDuration": 315277,
      "Delta": 114333390
    },
    {
      "NoteNumber": 66,
      "Velocity": 80,
      "Duration": 315277,
      "SoundDuration": 315277,
      "Delta": 114333390
    },
    {
      "NoteNumber": 50,
      "Velocity": 80,
      "Duration": 315277,
      "SoundDuration": 315277,
      "Delta": 114333390
    },
    {
      "NoteNumber": 80,
      "Velocity": 80,
      "Duration": 315277,
      "SoundDuration": 315277,
      "Delta": 114666724
    },
    {
      "NoteNumber": 68,
      "Velocity": 80,
      "Duration": 315277,
      "SoundDuration": 315277,
      "Delta": 114666724
    },
    {
      "NoteNumber": 52,
      "Velocity": 80,
      "Duration": 315277,
      "SoundDuration": 315277,
      "Delta": 114666724
    },
    {
      "NoteNumber": 69,
      "Velocity": 80,
      "Duration": 315277,
      "SoundDuration": 315277,
      "Delta": 115000057
    },
    {
      "NoteNumber": 81,
      "Velocity": 80,
      "Duration": 315277,
      "SoundDuration": 315277,
      "Delta": 115000057
    },
    {
      "NoteNumber": 54,
      "Velocity": 80,
      "Duration": 315277,
      "SoundDuration": 315277,
      "Delta": 115000057
    },
    {
      "NoteNumber": 71,
      "Velocity": 80,
      "Duration": 948611,
      "SoundDuration": 948611,
      "Delta": 115333391
    },
    {
      "NoteNumber": 83,
      "Velocity": 80,
      "Duration": 948611,
      "SoundDuration": 948611,
      "Delta": 115333391
    },
    {
      "NoteNumber": 56,
      "Velocity": 80,
      "Duration": 948611,
      "SoundDuration": 948611,
      "Delta": 115333391
    },
    {
      "NoteNumber": 69,
      "Velocity": 80,
      "Duration": 315277,
      "SoundDuration": 315277,
      "Delta": 116333391
    },
    {
      "NoteNumber": 81,
      "Velocity": 80,
      "Duration": 315277,
      "SoundDuration": 315277,
      "Delta": 116333391
    },
    {
      "NoteNumber": 54,
      "Velocity": 80,
      "Duration": 315277,
      "SoundDuration": 315277,
      "Delta": 116333391
    },
    {
      "NoteNumber": 71,
      "Velocity": 80,
      "Duration": 1265278,
      "SoundDuration": 1265278,
      "Delta": 116666725
    },
    {
      "NoteNumber": 80,
      "Velocity": 80,
      "Duration": 948611,
      "SoundDuration": 948611,
      "Delta": 116666725
    },
    {
      "NoteNumber": 52,
      "Velocity": 80,
      "Duration": 156944,
      "SoundDuration": 156944,
      "Delta": 116666725
    },
    {
      "NoteNumber": 56,
      "Velocity": 80,
      "Duration": 156944,
      "SoundDuration": 156944,
      "Delta": 116833391
    },
    {
      "NoteNumber": 59,
      "Velocity": 80,
      "Duration": 156944,
      "SoundDuration": 156944,
      "Delta": 117000058
    },
    {
      "NoteNumber": 64,
      "Velocity": 80,
      "Duration": 156944,
      "SoundDuration": 156944,
      "Delta": 117166725
    },
    {
      "NoteNumber": 68,
      "Velocity": 80,
      "Duration": 631944,
      "SoundDuration": 631944,
      "Delta": 117333392
    },
    {
      "NoteNumber": 78,
      "Velocity": 80,
      "Duration": 156944,
      "SoundDuration": 156944,
      "Delta": 117666725
    },
    {
      "NoteNumber": 80,
      "Velocity": 80,
      "Duration": 156944,
      "SoundDuration": 156944,
      "Delta": 117833392
    },
    {
      "NoteNumber": 74,
      "Velocity": 80,
      "Duration": 1265278,
      "SoundDuration": 1265278,
      "Delta": 118000059
    },
    {
      "NoteNumber": 81,
      "Velocity": 80,
      "Duration": 948611,
      "SoundDuration": 948611,
      "Delta": 118000059
    },
    {
      "NoteNumber": 50,
      "Velocity": 80,
      "Duration": 156944,
      "SoundDuration": 156944,
      "Delta": 118000059
    },
    {
      "NoteNumber": 54,
      "Velocity": 80,
      "Duration": 156944,
      "SoundDuration": 156944,
      "Delta": 118166725
    },
    {
      "NoteNumber": 57,
      "Velocity": 80,
      "Duration": 156944,
      "SoundDuration": 156944,
      "Delta": 118333392
    },
    {
      "NoteNumber": 62,
      "Velocity": 80,
      "Duration": 156944,
      "SoundDuration": 156944,
      "Delta": 118500059
    },
    {
      "NoteNumber": 66,
      "Velocity": 80,
      "Duration": 631944,
      "SoundDuration": 631944,
      "Delta": 118666726
    },
    {
      "NoteNumber": 78,
      "Velocity": 80,
      "Duration": 315277,
      "SoundDuration": 315277,
      "Delta": 119000059
    },
    {
      "NoteNumber": 76,
      "Velocity": 80,
      "Duration": 948611,
      "SoundDuration": 948611,
      "Delta": 119333393
    },
    {
      "NoteNumber": 68,
      "Velocity": 80,
      "Duration": 616667,
      "SoundDuration": 616667,
      "Delta": 119333393
    },
    {
      "NoteNumber": 52,
      "Velocity": 80,
      "Duration": 156944,
      "SoundDuration": 156944,
      "Delta": 119333393
    },
    {
      "NoteNumber": 56,
      "Velocity": 80,
      "Duration": 156944,
      "SoundDuration": 156944,
      "Delta": 119500059
    },
    {
      "NoteNumber": 59,
      "Velocity": 80,
      "Duration": 156944,
      "SoundDuration": 156944,
      "Delta": 119666726
    },
    {
      "NoteNumber": 64,
      "Velocity": 80,
      "Duration": 156944,
      "SoundDuration": 156944,
      "Delta": 119833393
    },
    {
      "NoteNumber": 68,
      "Velocity": 80,
      "Duration": 631944,
      "SoundDuration": 631944,
      "Delta": 120000060
    },
    {
      "NoteNumber": 71,
      "Velocity": 80,
      "Duration": 156944,
      "SoundDuration": 156944,
      "Delta": 120333393
    },
    {
      "NoteNumber": 73,
      "Velocity": 80,
      "Duration": 156944,
      "SoundDuration": 156944,
      "Delta": 120500060
    },
    {
      "NoteNumber": 74,
      "Velocity": 80,
      "Duration": 616667,
      "SoundDuration": 616667,
      "Delta": 120666727
    },
    {
      "NoteNumber": 66,
      "Velocity": 80,
      "Duration": 616667,
      "SoundDuration": 616667,
      "Delta": 120666727
    },
    {
      "NoteNumber": 59,
      "Velocity": 80,
      "Duration": 1265278,
      "SoundDuration": 1265278,
      "Delta": 120666727
    },
    {
      "NoteNumber": 52,
      "Velocity": 80,
      "Duration": 1265278,
      "SoundDuration": 1265278,
      "Delta": 120666727
    },
    {
      "NoteNumber": 74,
      "Velocity": 80,
      "Duration": 616667,
      "SoundDuration": 616667,
      "Delta": 121333394
    },
    {
      "NoteNumber": 66,
      "Velocity": 80,
      "Duration": 616667,
      "SoundDuration": 616667,
      "Delta": 121333394
    },
    {
      "NoteNumber": 74,
      "Velocity": 80,
      "Duration": 315277,
      "SoundDuration": 315277,
      "Delta": 122000061
    },
    {
      "NoteNumber": 66,
      "Velocity": 80,
      "Duration": 315277,
      "SoundDuration": 315277,
      "Delta": 122000061
    },
    {
      "NoteNumber": 45,
      "Velocity": 80,
      "Duration": 156944,
      "SoundDuration": 156944,
      "Delta": 122000061
    },
    {
      "NoteNumber": 52,
      "Velocity": 80,
      "Duration": 156944,
      "SoundDuration": 156944,
      "Delta": 122166727
    },
    {
      "NoteNumber": 73,
      "Velocity": 80,
      "Duration": 283334,
      "SoundDuration": 283334,
      "Delta": 122333394
    },
    {
      "NoteNumber": 64,
      "Velocity": 80,
      "Duration": 315277,
      "SoundDuration": 315277,
      "Delta": 122333394
    },
    {
      "NoteNumber": 57,
      "Velocity": 80,
      "Duration": 156944,
      "SoundDuration": 156944,
      "Delta": 122333394
    },
    {
      "NoteNumber": 52,
      "Velocity": 80,
      "Duration": 156944,
      "SoundDuration": 156944,
      "Delta": 122500061
    },
    {
      "NoteNumber": 73,
      "Velocity": 80,
      "Duration": 315277,
      "SoundDuration": 315277,
      "Delta": 122666728
    },
    {
      "NoteNumber": 62,
      "Velocity": 80,
      "Duration": 315277,
      "SoundDuration": 315277,
      "Delta": 122666728
    },
    {
      "NoteNumber": 57,
      "Velocity": 80,
      "Duration": 156944,
      "SoundDuration": 156944,
      "Delta": 122666728
    },
    {
      "NoteNumber": 52,
      "Velocity": 80,
      "Duration": 156944,
      "SoundDuration": 156944,
      "Delta": 122833394
    },
    {
      "NoteNumber": 69,
      "Velocity": 80,
      "Duration": 283334,
      "SoundDuration": 283334,
      "Delta": 123000061
    },
    {
      "NoteNumber": 61,
      "Velocity": 80,
      "Duration": 315277,
      "SoundDuration": 315277,
      "Delta": 123000061
    },
    {
      "NoteNumber": 57,
      "Velocity": 80,
      "Duration": 156944,
      "SoundDuration": 156944,
      "Delta": 123000061
    },
    {
      "NoteNumber": 52,
      "Velocity": 80,
      "Duration": 156944,
      "SoundDuration": 156944,
      "Delta": 123166728
    },
    {
      "NoteNumber": 69,
      "Velocity": 80,
      "Duration": 156944,
      "SoundDuration": 156944,
      "Delta": 123333395
    },
    {
      "NoteNumber": 66,
      "Velocity": 80,
      "Duration": 156944,
      "SoundDuration": 156944,
      "Delta": 123333395
    },
    {
      "NoteNumber": 62,
      "Velocity": 80,
      "Duration": 156944,
      "SoundDuration": 156944,
      "Delta": 123333395
    },
    {
      "NoteNumber": 64,
      "Velocity": 80,
      "Duration": 156944,
      "SoundDuration": 156944,
      "Delta": 123500061
    },
    {
      "NoteNumber": 66,
      "Velocity": 80,
      "Duration": 156944,
      "SoundDuration": 156944,
      "Delta": 123666728
    },
    {
      "NoteNumber": 69,
      "Velocity": 80,
      "Duration": 156944,
      "SoundDuration": 156944,
      "Delta": 123833395
    },
    {
      "NoteNumber": 74,
      "Velocity": 80,
      "Duration": 156944,
      "SoundDuration": 156944,
      "Delta": 124000062
    },
    {
      "NoteNumber": 76,
      "Velocity": 80,
      "Duration": 156944,
      "SoundDuration": 156944,
      "Delta": 124166728
    },
    {
      "NoteNumber": 78,
      "Velocity": 80,
      "Duration": 156944,
      "SoundDuration": 156944,
      "Delta": 124333395
    },
    {
      "NoteNumber": 81,
      "Velocity": 80,
      "Duration": 156944,
      "SoundDuration": 156944,
      "Delta": 124500062
    },
    {
      "NoteNumber": 76,
      "Velocity": 80,
      "Duration": 2665279,
      "SoundDuration": 2665279,
      "Delta": 124666729
    },
    {
      "NoteNumber": 33,
      "Velocity": 80,
      "Duration": 2531945,
      "SoundDuration": 2531945,
      "Delta": 124666729
    },
    {
      "NoteNumber": 45,
      "Velocity": 80,
      "Duration": 2531945,
      "SoundDuration": 2531945,
      "Delta": 124666729
    },
    {
      "NoteNumber": 81,
      "Velocity": 80,
      "Duration": 2576390,
      "SoundDuration": 2576390,
      "Delta": 124754229
    },
    {
      "NoteNumber": 85,
      "Velocity": 80,
      "Duration": 2488890,
      "SoundDuration": 2488890,
      "Delta": 124841729
    },
    {
      "NoteNumber": 88,
      "Velocity": 80,
      "Duration": 2398612,
      "SoundDuration": 2398612,
      "Delta": 124933395
    }
  ]
}