{"title":"Baba-Yaga - Das große Tor von Kiew","artist":"Mussorgsky","durationMs":433572,"midiSha256":"a7bdd0479e1a9d0d22e7fa526e3b66ea0094d3a90f18c1fc6684152e03d22ce4","midiObject":[{"NoteNumber":54,"Velocity":76,"Duration":178358,"SoundDuration":178358,"Delta":0},{"NoteNumber":66,"Velocity":90,"Duration":178358,"SoundDuration":178358,"Delta":0},{"NoteNumber":42,"Velocity":74,"Duration":178358,"SoundDuration":178358,"Delta":0},{"NoteNumber":55,"Velocity":96,"Duration":352941,"SoundDuration":352941,"Delta":357463},{"NoteNumber":43,"Velocity":77,"Duration":352941,"SoundDuration":352941,"Delta":357463},{"NoteNumber":31,"Velocity":65,"Duration":352941,"SoundDuration":352941,"Delta":357463},{"NoteNumber":66,"Velocity":86,"Duration":88235,"SoundDuration":88235,"Delta":1416286},{"NoteNumber":54,"Velocity":73,"Duration":88235,"SoundDuration":88235,"Delta":1416286},{"NoteNumber":42,"Velocity":69,"Duration":88235,"SoundDuration":88235,"Delta":1416286},{"NoteNumber":54,"Velocity":69,"Duration":90361,"SoundDuration":90361,"Delta":1592756},{"NoteNumber":66,"Velocity":82,"Duration":90361,"SoundDuration":90361,"Delta":1592756},{"NoteNumber":42,"Velocity":66,"Duration":90361,"SoundDuration":90361,"Delta":1592756},{"NoteNumber":55,"Velocity":91,"Duration":352940,"SoundDuration":352940,"Delta":1773479},{"NoteNumber":31,"Velocity":63,"Duration":352940,"SoundDuration":352940,"Delta":1773479},{"NoteNumber":43,"Velocity":74,"Duration":352940,"SoundDuration":352940,"Delta":1773479},{"NoteNumber":53,"Velocity":76,"Duration":176470,"SoundDuration":176470,"Delta":2832302},{"NoteNumber":65,"Velocity":90,"Duration":176470,"SoundDuration":176470,"Delta":2832302},{"NoteNumber":41,"Velocity":72,"Duration":176470,"SoundDuration":176470,"Delta":2832302},{"NoteNumber":56,"Velocity":93,"Duration":168539,"SoundDuration":168539,"Delta":3185243},{"NoteNumber":32,"Velocity":63,"Duration":168539,"SoundDuration":168539,"Delta":3185243},{"NoteNumber":44,"Velocity":75,"Duration":168539,"SoundDuration":168539,"Delta":3185243},{"NoteNumber":55,"Velocity":87,"Duration":176470,"SoundDuration":176470,"Delta":3353783},{"NoteNumber":43,"Velocity":70,"Duration":176470,"SoundDuration":176470,"Delta":3353783},{"NoteNumber":31,"Velocity":59,"Duration":176470,"SoundDuration":176470,"Delta":3353783},{"NoteNumber":65,"Velocity":86,"Duration":88235,"SoundDuration":88235,"Delta":4236135},{"NoteNumber":53,"Velocity":73,"Duration":88235,"SoundDuration":88235,"Delta":4236135},{"NoteNumber":41,"Velocity":68,"Duration":88235,"SoundDuration":88235,"Delta":4236135},{"NoteNumber":53,"Velocity":69,"Duration":89552,"SoundDuration":89552,"Delta":4412606},{"NoteNumber":65,"Velocity":82,"Duration":89552,"SoundDuration":89552,"Delta":4412606},{"NoteNumber":41,"Velocity":65,"Duration":89552,"SoundDuration":89552,"Delta":4412606},{"NoteNumber":56,"Velocity":90,"Duration":169971,"SoundDuration":169971,"Delta":4591710},{"NoteNumber":32,"Velocity":60,"Duration":169971,"SoundDuration":169971,"Delta":4591710},{"NoteNumber":44,"Velocity":71,"Duration":169971,"SoundDuration":169971,"Delta":4591710},{"NoteNumber":55,"Velocity":85,"Duration":133928,"SoundDuration":133928,"Delta":4761682},{"NoteNumber":43,"Velocity":68,"Duration":133928,"SoundDuration":133928,"Delta":4761682},{"NoteNumber":31,"Velocity":57,"Duration":133928,"SoundDuration":133928,"Delta":4761682},{"NoteNumber":56,"Velocity":90,"Duration":172413,"SoundDuration":172413,"Delta":4940253},{"NoteNumber":44,"Velocity":72,"Duration":172413,"SoundDuration":172413,"Delta":4940253},{"NoteNumber":32,"Velocity":61,"Duration":172413,"SoundDuration":172413,"Delta":4940253},{"NoteNumber":55,"Velocity":87,"Duration":129310,"SoundDuration":129310,"Delta":5112667},{"NoteNumber":31,"Velocity":56,"Duration":129310,"SoundDuration":129310,"Delta":5112667},{"NoteNumber":43,"Velocity":67,"Duration":129310,"SoundDuration":129310,"Delta":5112667},{"NoteNumber":55,"Velocity":86,"Duration":352940,"SoundDuration":352940,"Delta":5638022},{"NoteNumber":31,"Velocity":68,"Duration":352940,"SoundDuration":352940,"Delta":5638022},{"NoteNumber":43,"Velocity":68,"Duration":352940,"SoundDuration":352940,"Delta":5638022},{"NoteNumber":55,"Velocity":82,"Duration":352941,"SoundDuration":352941,"Delta":5990963},{"NoteNumber":43,"Velocity":65,"Duration":352941,"SoundDuration":352941,"Delta":5990963},{"NoteNumber":31,"Velocity":65,"Duration":352941,"SoundDuration":352941,"Delta":5990963},{"NoteNumber":55,"Velocity":95,"Duration":327524,"SoundDuration":327524,"Delta":6343904},{"NoteNumber":31,"Velocity":75,"Duration":83333,"SoundDuration":83333,"Delta":6343904},{"NoteNumber":43,"Velocity":75,"Duration":83333,"SoundDuration":83333,"Delta":6343904},{"NoteNumber":56,"Velocity":85,"Duration":80428,"SoundDuration":80428,"Delta":6510571},{"NoteNumber":44,"Velocity":68,"Duration":80428,"SoundDuration":80428,"Delta":6510571},{"NoteNumber":55,"Velocity":83,"Duration":348179,"SoundDuration":348179,"Delta":6671429},{"NoteNumber":43,"Velocity":66,"Duration":348179,"SoundDuration":348179,"Delta":6671429},{"NoteNumber":65,"Velocity":77,"Duration":89820,"SoundDuration":89820,"Delta":6839968},{"NoteNumber":53,"Velocity":61,"Duration":89820,"SoundDuration":89820,"Delta":6839968},{"NoteNumber":55,"Velocity":85,"Duration":352941,"SoundDuration":352941,"Delta":7019608},{"NoteNumber":43,"Velocity":68,"Duration":352941,"SoundDuration":352941,"Delta":7019608},{"NoteNumber":31,"Velocity":57,"Duration":352941,"SoundDuration":352941,"Delta":7019608},{"NoteNumber":55,"Velocity":83,"Duration":352940,"SoundDuration":352940,"Delta":7372550},{"NoteNumber":43,"Velocity":66,"Duration":352940,"SoundDuration":352940,"Delta":7372550},{"NoteNumber":31,"Velocity":55,"Duration":352940,"SoundDuration":352940,"Delta":7372550},{"NoteNumber":55,"Velocity":94,"Duration":327989,"SoundDuration":327989,"Delta":7725490},{"NoteNumber":31,"Velocity":63,"Duration":167131,"SoundDuration":167131,"Delta":7725490},{"NoteNumber":43,"Velocity":75,"Duration":167131,"SoundDuration":167131,"Delta":7725490},{"NoteNumber":56,"Velocity":84,"Duration":160858,"SoundDuration":160858,"Delta":7892622},{"NoteNumber":44,"Velocity":66,"Duration":160858,"SoundDuration":160858,"Delta":7892622},{"NoteNumber":55,"Velocity":83,"Duration":332978,"SoundDuration":332978,"Delta":8053480},{"NoteNumber":43,"Velocity":66,"Duration":332978,"SoundDuration":332978,"Delta":8053480},{"NoteNumber":61,"Velocity":77,"Duration":81743,"SoundDuration":81743,"Delta":8222971},{"NoteNumber":49,"Velocity":61,"Duration":81743,"SoundDuration":81743,"Delta":8222971},{"NoteNumber":55,"Velocity":88,"Duration":327062,"SoundDuration":327062,"Delta":8386459},{"NoteNumber":43,"Velocity":71,"Duration":166204,"SoundDuration":166204,"Delta":8386459},{"NoteNumber":31,"Velocity":60,"Duration":166204,"SoundDuration":166204,"Delta":8386459},{"NoteNumber":56,"Velocity":82,"Duration":160857,"SoundDuration":160857,"Delta":8552664},{"NoteNumber":44,"Velocity":64,"Duration":160857,"SoundDuration":160857,"Delta":8552664},{"NoteNumber":55,"Velocity":84,"Duration":339942,"SoundDuration":339942,"Delta":8713521},{"NoteNumber":43,"Velocity":67,"Duration":339942,"SoundDuration":339942,"Delta":8713521},{"NoteNumber":65,"Velocity":75,"Duration":84985,"SoundDuration":84985,"Delta":8883493},{"NoteNumber":53,"Velocity":60,"Duration":84985,"SoundDuration":84985,"Delta":8883493},{"NoteNumber":55,"Velocity":83,"Duration":325289,"SoundDuration":325289,"Delta":9053464},{"NoteNumber":31,"Velocity":55,"Duration":165289,"SoundDuration":165289,"Delta":9053464},{"NoteNumber":43,"Velocity":66,"Duration":165289,"SoundDuration":165289,"Delta":9053464},{"NoteNumber":56,"Velocity":76,"Duration":160000,"SoundDuration":160000,"Delta":9218754},{"NoteNumber":44,"Velocity":61,"Duration":160000,"SoundDuration":160000,"Delta":9218754},{"NoteNumber":55,"Velocity":82,"Duration":346702,"SoundDuration":346702,"Delta":9378754},{"NoteNumber":43,"Velocity":66,"Duration":346702,"SoundDuration":346702,"Delta":9378754},{"NoteNumber":61,"Velocity":77,"Duration":179104,"SoundDuration":179104,"Delta":9546352},{"NoteNumber":49,"Velocity":61,"Duration":179104,"SoundDuration":179104,"Delta":9546352},{"NoteNumber":55,"Velocity":84,"Duration":353982,"SoundDuration":353982,"Delta":9725456},{"NoteNumber":31,"Velocity":56,"Duration":353982,"SoundDuration":353982,"Delta":9725456},{"NoteNumber":43,"Velocity":67,"Duration":353982,"SoundDuration":353982,"Delta":9725456},{"NoteNumber":55,"Velocity":82,"Duration":353982,"SoundDuration":353982,"Delta":10079438},{"NoteNumber":43,"Velocity":65,"Duration":353982,"SoundDuration":353982,"Delta":10079438},{"NoteNumber":31,"Velocity":55,"Duration":353982,"SoundDuration":353982,"Delta":10079438},{"NoteNumber":55,"Velocity":85,"Duration":353981,"SoundDuration":353981,"Delta":10433420},{"NoteNumber":31,"Velocity":56,"Duration":353981,"SoundDuration":353981,"Delta":10433420},{"NoteNumber":43,"Velocity":67,"Duration":353981,"SoundDuration":353981,"Delta":10433420},{"NoteNumber":55,"Velocity":84,"Duration":353982,"SoundDuration":353982,"Delta":10787402},{"NoteNumber":43,"Velocity":63,"Duration":353982,"SoundDuration":353982,"Delta":10787402},{"NoteNumber":31,"Velocity":54,"Duration":353982,"SoundDuration":353982,"Delta":10787402},{"NoteNumber":55,"Velocity":71,"Duration":84269,"SoundDuration":84269,"Delta":11141384},{"NoteNumber":31,"Velocity":47,"Duration":84269,"SoundDuration":84269,"Delta":11141384},{"NoteNumber":43,"Velocity":56,"Duration":84269,"SoundDuration":84269,"Delta":11141384},{"NoteNumber":60,"Velocity":65,"Duration":80213,"SoundDuration":80213,"Delta":11309924},{"NoteNumber":36,"Velocity":44,"Duration":80213,"SoundDuration":80213,"Delta":11309924},{"NoteNumber":48,"Velocity":52,"Duration":80213,"SoundDuration":80213,"Delta":11309924},{"NoteNumber":56,"Velocity":84,"Duration":83102,"SoundDuration":83102,"Delta":11470352},{"NoteNumber":44,"Velocity":67,"Duration":83102,"SoundDuration":83102,"Delta":11470352},{"NoteNumber":32,"Velocity":56,"Duration":83102,"SoundDuration":83102,"Delta":11470352},{"NoteNumber":61,"Velocity":73,"Duration":81080,"SoundDuration":81080,"Delta":11636557},{"NoteNumber":49,"Velocity":58,"Duration":81080,"SoundDuration":81080,"Delta":11636557},{"NoteNumber":37,"Velocity":49,"Duration":81080,"SoundDuration":81080,"Delta":11636557},{"NoteNumber":57,"Velocity":72,"Duration":81967,"SoundDuration":81967,"Delta":11798719},{"NoteNumber":33,"Velocity":48,"Duration":81967,"SoundDuration":81967,"Delta":11798719},{"NoteNumber":45,"Velocity":57,"Duration":81967,"SoundDuration":81967,"Delta":11798719},{"NoteNumber":62,"Velocity":71,"Duration":80645,"SoundDuration":80645,"Delta":11962653},{"NoteNumber":50,"Velocity":56,"Duration":80645,"SoundDuration":80645,"Delta":11962653},{"NoteNumber":38,"Velocity":47,"Duration":80645,"SoundDuration":80645,"Delta":11962653},{"NoteNumber":58,"Velocity":81,"Duration":84745,"SoundDuration":84745,"Delta":12123944},{"NoteNumber":34,"Velocity":53,"Duration":84745,"SoundDuration":84745,"Delta":12123944},{"NoteNumber":46,"Velocity":63,"Duration":84745,"SoundDuration":84745,"Delta":12123944},{"NoteNumber":63,"Velocity":70,"Duration":82417,"SoundDuration":82417,"Delta":12293435},{"NoteNumber":51,"Velocity":55,"Duration":82417,"SoundDuration":82417,"Delta":12293435},{"NoteNumber":39,"Velocity":46,"Duration":82417,"SoundDuration":82417,"Delta":12293435},{"NoteNumber":55,"Velocity":73,"Duration":84269,"SoundDuration":84269,"Delta":12458270},{"NoteNumber":31,"Velocity":50,"Duration":84269,"SoundDuration":84269,"Delta":12458270},{"NoteNumber":43,"Velocity":59,"Duration":84269,"SoundDuration":84269,"Delta":12458270},{"NoteNumber":60,"Velocity":68,"Duration":80429,"SoundDuration":80429,"Delta":12626810},{"NoteNumber":36,"Velocity":45,"Duration":80429,"SoundDuration":80429,"Delta":12626810},{"NoteNumber":48,"Velocity":54,"Duration":80429,"SoundDuration":80429,"Delta":12626810},{"NoteNumber":56,"Velocity":88,"Duration":83565,"SoundDuration":83565,"Delta":12787668},{"NoteNumber":44,"Velocity":70,"Duration":83565,"SoundDuration":83565,"Delta":12787668},{"NoteNumber":32,"Velocity":59,"Duration":83565,"SoundDuration":83565,"Delta":12787668},{"NoteNumber":61,"Velocity":77,"Duration":82191,"SoundDuration":82191,"Delta":12954799},{"NoteNumber":49,"Velocity":61,"Duration":82191,"SoundDuration":82191,"Delta":12954799},{"NoteNumber":37,"Velocity":51,"Duration":82191,"SoundDuration":82191,"Delta":12954799},{"NoteNumber":57,"Velocity":75,"Duration":83333,"SoundDuration":83333,"Delta":13119182},{"NoteNumber":33,"Velocity":50,"Duration":83333,"SoundDuration":83333,"Delta":13119182},{"NoteNumber":45,"Velocity":60,"Duration":83333,"SoundDuration":83333,"Delta":13119182},{"NoteNumber":62,"Velocity":74,"Duration":80645,"SoundDuration":80645,"Delta":13285849},{"NoteNumber":38,"Velocity":50,"Duration":80645,"SoundDuration":80645,"Delta":13285849},{"NoteNumber":50,"Velocity":59,"Duration":80645,"SoundDuration":80645,"Delta":13285849},{"NoteNumber":58,"Velocity":87,"Duration":84269,"SoundDuration":84269,"Delta":13447139},{"NoteNumber":46,"Velocity":68,"Duration":84269,"SoundDuration":84269,"Delta":13447139},{"NoteNumber":34,"Velocity":58,"Duration":84269,"SoundDuration":84269,"Delta":13447139},{"NoteNumber":63,"Velocity":74,"Duration":81080,"SoundDuration":81080,"Delta":13615679},{"NoteNumber":39,"Velocity":59,"Duration":81080,"SoundDuration":81080,"Delta":13615679},{"NoteNumber":51,"Velocity":59,"Duration":81080,"SoundDuration":81080,"Delta":13615679},{"NoteNumber":55,"Velocity":76,"Duration":83799,"SoundDuration":83799,"Delta":13777841},{"NoteNumber":43,"Velocity":61,"Duration":83799,"SoundDuration":83799,"Delta":13777841},{"NoteNumber":31,"Velocity":51,"Duration":83799,"SoundDuration":83799,"Delta":13777841},{"NoteNumber":60,"Velocity":70,"Duration":80873,"SoundDuration":80873,"Delta":13945439},{"NoteNumber":36,"Velocity":46,"Duration":80873,"SoundDuration":80873,"Delta":13945439},{"NoteNumber":48,"Velocity":55,"Duration":80873,"SoundDuration":80873,"Delta":13945439},{"NoteNumber":56,"Velocity":90,"Duration":83333,"SoundDuration":83333,"Delta":14106526},{"NoteNumber":44,"Velocity":72,"Duration":83333,"SoundDuration":83333,"Delta":14106526},{"NoteNumber":32,"Velocity":61,"Duration":83333,"SoundDuration":83333,"Delta":14106526},{"NoteNumber":61,"Velocity":80,"Duration":81743,"SoundDuration":81743,"Delta":14273193},{"NoteNumber":49,"Velocity":63,"Duration":81743,"SoundDuration":81743,"Delta":14273193},{"NoteNumber":37,"Velocity":53,"Duration":81743,"SoundDuration":81743,"Delta":14273193},{"NoteNumber":57,"Velocity":78,"Duration":83799,"SoundDuration":83799,"Delta":14436680},{"NoteNumber":33,"Velocity":52,"Duration":83799,"SoundDuration":83799,"Delta":14436680},{"NoteNumber":45,"Velocity":62,"Duration":83799,"SoundDuration":83799,"Delta":14436680},{"NoteNumber":62,"Velocity":77,"Duration":79575,"SoundDuration":79575,"Delta":14604278},{"NoteNumber":38,"Velocity":52,"Duration":79575,"SoundDuration":79575,"Delta":14604278},{"NoteNumber":50,"Velocity":62,"Duration":79575,"SoundDuration":79575,"Delta":14604278},{"NoteNumber":58,"Velocity":89,"Duration":84269,"SoundDuration":84269,"Delta":14763429},{"NoteNumber":46,"Velocity":70,"Duration":84269,"SoundDuration":84269,"Delta":14763429},{"NoteNumber":34,"Velocity":59,"Duration":84269,"SoundDuration":84269,"Delta":14763429},{"NoteNumber":63,"Velocity":76,"Duration":81080,"SoundDuration":81080,"Delta":14931969},{"NoteNumber":39,"Velocity":61,"Duration":81080,"SoundDuration":81080,"Delta":14931969},{"NoteNumber":51,"Velocity":61,"Duration":81080,"SoundDuration":81080,"Delta":14931969},{"NoteNumber":55,"Velocity":81,"Duration":83102,"SoundDuration":83102,"Delta":15094131},{"NoteNumber":43,"Velocity":65,"Duration":83102,"SoundDuration":83102,"Delta":15094131},{"NoteNumber":31,"Velocity":55,"Duration":83102,"SoundDuration":83102,"Delta":15094131},{"NoteNumber":60,"Velocity":75,"Duration":79575,"SoundDuration":79575,"Delta":15260336},{"NoteNumber":36,"Velocity":50,"Duration":79575,"SoundDuration":79575,"Delta":15260336},{"NoteNumber":48,"Velocity":59,"Duration":79575,"SoundDuration":79575,"Delta":15260336},{"NoteNumber":56,"Velocity":99,"Duration":83565,"SoundDuration":83565,"Delta":15419487},{"NoteNumber":44,"Velocity":79,"Duration":83565,"SoundDuration":83565,"Delta":15419487},{"NoteNumber":32,"Velocity":66,"Duration":83565,"SoundDuration":83565,"Delta":15419487},{"NoteNumber":61,"Velocity":86,"Duration":81743,"SoundDuration":81743,"Delta":15586618},{"NoteNumber":37,"Velocity":57,"Duration":81743,"SoundDuration":81743,"Delta":15586618},{"NoteNumber":49,"Velocity":68,"Duration":81743,"SoundDuration":81743,"Delta":15586618},{"NoteNumber":57,"Velocity":88,"Duration":83102,"SoundDuration":83102,"Delta":15750105},{"NoteNumber":45,"Velocity":70,"Duration":83102,"SoundDuration":83102,"Delta":15750105},{"NoteNumber":33,"Velocity":59,"Duration":83102,"SoundDuration":83102,"Delta":15750105},{"NoteNumber":62,"Velocity":83,"Duration":78740,"SoundDuration":78740,"Delta":15916310},{"NoteNumber":38,"Velocity":55,"Duration":78740,"SoundDuration":78740,"Delta":15916310},{"NoteNumber":50,"Velocity":66,"Duration":78740,"SoundDuration":78740,"Delta":15916310},{"NoteNumber":58,"Velocity":99,"Duration":84985,"SoundDuration":84985,"Delta":16073791},{"NoteNumber":46,"Velocity":77,"Duration":84985,"SoundDuration":84985,"Delta":16073791},{"NoteNumber":34,"Velocity":64,"Duration":84985,"SoundDuration":84985,"Delta":16073791},{"NoteNumber":63,"Velocity":84,"Duration":82872,"SoundDuration":82872,"Delta":16243762},{"NoteNumber":39,"Velocity":56,"Duration":82872,"SoundDuration":82872,"Delta":16243762},{"NoteNumber":51,"Velocity":67,"Duration":82872,"SoundDuration":82872,"Delta":16243762},{"NoteNumber":89,"Velocity":62,"Duration":41436,"SoundDuration":41436,"Delta":16368072},{"NoteNumber":76,"Velocity":64,"Duration":80645,"SoundDuration":80645,"Delta":16409508},{"NoteNumber":84,"Velocity":76,"Duration":80645,"SoundDuration":80645,"Delta":16409508},{"NoteNumber":88,"Velocity":76,"Duration":80645,"SoundDuration":80645,"Delta":16409508},{"NoteNumber":31,"Velocity":61,"Duration":80645,"SoundDuration":80645,"Delta":16409508},{"NoteNumber":43,"Velocity":72,"Duration":80645,"SoundDuration":80645,"Delta":16409508},{"NoteNumber":48,"Velocity":66,"Duration":78534,"SoundDuration":78534,"Delta":16570799},{"NoteNumber":36,"Velocity":55,"Duration":78534,"SoundDuration":78534,"Delta":16570799},{"NoteNumber":87,"Velocity":60,"Duration":39266,"SoundDuration":39266,"Delta":16688600},{"NoteNumber":80,"Velocity":72,"Duration":80862,"SoundDuration":80862,"Delta":16727867},{"NoteNumber":85,"Velocity":72,"Duration":80862,"SoundDuration":80862,"Delta":16727867},{"NoteNumber":77,"Velocity":61,"Duration":80862,"SoundDuration":80862,"Delta":16727867},{"NoteNumber":44,"Velocity":69,"Duration":80862,"SoundDuration":80862,"Delta":16727867},{"NoteNumber":32,"Velocity":58,"Duration":80862,"SoundDuration":80862,"Delta":16727867},{"NoteNumber":49,"Velocity":63,"Duration":78947,"SoundDuration":78947,"Delta":16889592},{"NoteNumber":37,"Velocity":54,"Duration":78947,"SoundDuration":78947,"Delta":16889592},{"NoteNumber":86,"Velocity":58,"Duration":39473,"SoundDuration":39473,"Delta":17008013},{"NoteNumber":74,"Velocity":61,"Duration":80862,"SoundDuration":80862,"Delta":17047486},{"NoteNumber":78,"Velocity":72,"Duration":80862,"SoundDuration":80862,"Delta":17047486},{"NoteNumber":84,"Velocity":72,"Duration":80862,"SoundDuration":80862,"Delta":17047486},{"NoteNumber":33,"Velocity":61,"Duration":80862,"SoundDuration":80862,"Delta":17047486},{"NoteNumber":45,"Velocity":72,"Duration":80862,"SoundDuration":80862,"Delta":17047486},{"NoteNumber":38,"Velocity":55,"Duration":78534,"SoundDuration":78534,"Delta":17209211},{"NoteNumber":50,"Velocity":65,"Duration":78534,"SoundDuration":78534,"Delta":17209211},{"NoteNumber":84,"Velocity":55,"Duration":39266,"SoundDuration":39266,"Delta":17327012},{"NoteNumber":70,"Velocity":58,"Duration":80428,"SoundDuration":80428,"Delta":17366279},{"NoteNumber":82,"Velocity":69,"Duration":80428,"SoundDuration":80428,"Delta":17366279},{"NoteNumber":79,"Velocity":69,"Duration":80428,"SoundDuration":80428,"Delta":17366279},{"NoteNumber":46,"Velocity":70,"Duration":80428,"SoundDuration":80428,"Delta":17366279},{"NoteNumber":34,"Velocity":59,"Duration":80428,"SoundDuration":80428,"Delta":17366279},{"NoteNumber":39,"Velocity":54,"Duration":78947,"SoundDuration":78947,"Delta":17527137},{"NoteNumber":51,"Velocity":63,"Duration":78947,"SoundDuration":78947,"Delta":17527137},{"NoteNumber":77,"Velocity":58,"Duration":39473,"SoundDuration":39473,"Delta":17645558},{"NoteNumber":76,"Velocity":72,"Duration":80645,"SoundDuration":80645,"Delta":17685032},{"NoteNumber":72,"Velocity":72,"Duration":80645,"SoundDuration":80645,"Delta":17685032},{"NoteNumber":64,"Velocity":61,"Duration":80645,"SoundDuration":80645,"Delta":17685032},{"NoteNumber":43,"Velocity":61,"Duration":80645,"SoundDuration":80645,"Delta":17685032},{"NoteNumber":31,"Velocity":61,"Duration":80645,"SoundDuration":80645,"Delta":17685032},{"NoteNumber":36,"Velocity":55,"Duration":78534,"SoundDuration":78534,"Delta":17846322},{"NoteNumber":48,"Velocity":66,"Duration":78534,"SoundDuration":78534,"Delta":17846322},{"NoteNumber":75,"Velocity":56,"Duration":39266,"SoundDuration":39266,"Delta":17964123},{"NoteNumber":73,"Velocity":68,"Duration":80862,"SoundDuration":80862,"Delta":18003390},{"NoteNumber":65,"Velocity":57,"Duration":80862,"SoundDuration":80862,"Delta":18003390},{"NoteNumber":68,"Velocity":68,"Duration":80862,"SoundDuration":80862,"Delta":18003390},{"NoteNumber":44,"Velocity":69,"Duration":80862,"SoundDuration":80862,"Delta":18003390},{"NoteNumber":32,"Velocity":58,"Duration":80862,"SoundDuration":80862,"Delta":18003390},{"NoteNumber":37,"Velocity":54,"Duration":78947,"SoundDuration":78947,"Delta":18165115},{"NoteNumber":49,"Velocity":63,"Duration":78947,"SoundDuration":78947,"Delta":18165115},{"NoteNumber":74,"Velocity":54,"Duration":39473,"SoundDuration":39473,"Delta":18283536},{"NoteNumber":66,"Velocity":68,"Duration":80862,"SoundDuration":80862,"Delta":18323010},{"NoteNumber":62,"Velocity":57,"Duration":80862,"SoundDuration":80862,"Delta":18323010},{"NoteNumber":72,"Velocity":68,"Duration":80862,"SoundDuration":80862,"Delta":18323010},{"NoteNumber":45,"Velocity":72,"Duration":80862,"SoundDuration":80862,"Delta":18323010},{"NoteNumber":33,"Velocity":61,"Duration":80862,"SoundDuration":80862,"Delta":18323010},{"NoteNumber":38,"Velocity":55,"Duration":77922,"SoundDuration":77922,"Delta":18484735},{"NoteNumber":50,"Velocity":65,"Duration":77922,"SoundDuration":77922,"Delta":18484735},{"NoteNumber":72,"Velocity":52,"Duration":38960,"SoundDuration":38960,"Delta":18601618},{"NoteNumber":70,"Velocity":65,"Duration":80428,"SoundDuration":80428,"Delta":18640579},{"NoteNumber":67,"Velocity":65,"Duration":80428,"SoundDuration":80428,"Delta":18640579},{"NoteNumber":58,"Velocity":55,"Duration":80428,"SoundDuration":80428,"Delta":18640579},{"NoteNumber":46,"Velocity":70,"Duration":80428,"SoundDuration":80428,"Delta":18640579},{"NoteNumber":34,"Velocity":59,"Duration":80428,"SoundDuration":80428,"Delta":18640579},{"NoteNumber":39,"Velocity":54,"Duration":78947,"SoundDuration":78947,"Delta":18801437},{"NoteNumber":51,"Velocity":63,"Duration":78947,"SoundDuration":78947,"Delta":18801437},{"NoteNumber":65,"Velocity":55,"Duration":39473,"SoundDuration":39473,"Delta":18919858},{"NoteNumber":55,"Velocity":57,"Duration":81300,"SoundDuration":81300,"Delta":18959331},{"NoteNumber":60,"Velocity":68,"Duration":81300,"SoundDuration":81300,"Delta":18959331},{"NoteNumber":64,"Velocity":68,"Duration":81300,"SoundDuration":81300,"Delta":18959331},{"NoteNumber":31,"Velocity":61,"Duration":81300,"SoundDuration":81300,"Delta":18959331},{"NoteNumber":43,"Velocity":72,"Duration":81300,"SoundDuration":81300,"Delta":18959331},{"NoteNumber":48,"Velocity":66,"Duration":79999,"SoundDuration":79999,"Delta":19121933},{"NoteNumber":36,"Velocity":55,"Duration":79999,"SoundDuration":79999,"Delta":19121933},{"NoteNumber":63,"Velocity":54,"Duration":39999,"SoundDuration":39999,"Delta":19241933},{"NoteNumber":56,"Velocity":64,"Duration":81967,"SoundDuration":81967,"Delta":19281933},{"NoteNumber":61,"Velocity":64,"Duration":81967,"SoundDuration":81967,"Delta":19281933},{"NoteNumber":53,"Velocity":54,"Duration":81967,"SoundDuration":81967,"Delta":19281933},{"NoteNumber":44,"Velocity":69,"Duration":81967,"SoundDuration":81967,"Delta":19281933},{"NoteNumber":32,"Velocity":58,"Duration":81967,"SoundDuration":81967,"Delta":19281933},{"NoteNumber":37,"Velocity":54,"Duration":80645,"SoundDuration":80645,"Delta":19445867},{"NoteNumber":49,"Velocity":63,"Duration":80645,"SoundDuration":80645,"Delta":19445867},{"NoteNumber":62,"Velocity":52,"Duration":40322,"SoundDuration":40322,"Delta":19566835},{"NoteNumber":50,"Velocity":54,"Duration":82417,"SoundDuration":82417,"Delta":19607158},{"NoteNumber":54,"Velocity":64,"Duration":82417,"SoundDuration":82417,"Delta":19607158},{"NoteNumber":60,"Velocity":64,"Duration":82417,"SoundDuration":82417,"Delta":19607158},{"NoteNumber":45,"Velocity":72,"Duration":82417,"SoundDuration":82417,"Delta":19607158},{"NoteNumber":33,"Velocity":61,"Duration":82417,"SoundDuration":82417,"Delta":19607158},{"NoteNumber":38,"Velocity":55,"Duration":81081,"SoundDuration":81081,"Delta":19771993},{"NoteNumber":50,"Velocity":65,"Duration":81081,"SoundDuration":81081,"Delta":19771993},{"NoteNumber":60,"Velocity":49,"Duration":40540,"SoundDuration":40540,"Delta":19893614},{"NoteNumber":51,"Velocity":52,"Duration":82417,"SoundDuration":82417,"Delta":19934155},{"NoteNumber":58,"Velocity":62,"Duration":82417,"SoundDuration":82417,"Delta":19934155},{"NoteNumber":55,"Velocity":62,"Duration":82417,"SoundDuration":82417,"Delta":19934155},{"NoteNumber":46,"Velocity":70,"Duration":82417,"SoundDuration":82417,"Delta":19934155},{"NoteNumber":34,"Velocity":59,"Duration":82417,"SoundDuration":82417,"Delta":19934155},{"NoteNumber":39,"Velocity":54,"Duration":80428,"SoundDuration":80428,"Delta":20098990},{"NoteNumber":51,"Velocity":63,"Duration":80428,"SoundDuration":80428,"Delta":20098990},{"NoteNumber":55,"Velocity":88,"Duration":83333,"SoundDuration":83333,"Delta":20259848},{"NoteNumber":31,"Velocity":63,"Duration":83333,"SoundDuration":83333,"Delta":20259848},{"NoteNumber":43,"Velocity":76,"Duration":83333,"SoundDuration":83333,"Delta":20259848},{"NoteNumber":60,"Velocity":73,"Duration":79999,"SoundDuration":79999,"Delta":20426514},{"NoteNumber":48,"Velocity":66,"Duration":79999,"SoundDuration":79999,"Delta":20426514},{"NoteNumber":36,"Velocity":55,"Duration":79999,"SoundDuration":79999,"Delta":20426514},{"NoteNumber":56,"Velocity":85,"Duration":82872,"SoundDuration":82872,"Delta":20586514},{"NoteNumber":44,"Velocity":72,"Duration":82872,"SoundDuration":82872,"Delta":20586514},{"NoteNumber":32,"Velocity":61,"Duration":82872,"SoundDuration":82872,"Delta":20586514},{"NoteNumber":61,"Velocity":71,"Duration":81743,"SoundDuration":81743,"Delta":20752260},{"NoteNumber":37,"Velocity":54,"Duration":81743,"SoundDuration":81743,"Delta":20752260},{"NoteNumber":49,"Velocity":63,"Duration":81743,"SoundDuration":81743,"Delta":20752260},{"NoteNumber":57,"Velocity":87,"Duration":82417,"SoundDuration":82417,"Delta":20915748},{"NoteNumber":33,"Velocity":63,"Duration":82417,"SoundDuration":82417,"Delta":20915748},{"NoteNumber":45,"Velocity":75,"Duration":82417,"SoundDuration":82417,"Delta":20915748},{"NoteNumber":62,"Velocity":72,"Duration":79787,"SoundDuration":79787,"Delta":21080583},{"NoteNumber":50,"Velocity":65,"Duration":79787,"SoundDuration":79787,"Delta":21080583},{"NoteNumber":38,"Velocity":55,"Duration":79787,"SoundDuration":79787,"Delta":21080583},{"NoteNumber":58,"Velocity":87,"Duration":82417,"SoundDuration":82417,"Delta":21240157},{"NoteNumber":34,"Velocity":62,"Duration":82417,"SoundDuration":82417,"Delta":21240157},{"NoteNumber":46,"Velocity":72,"Duration":82417,"SoundDuration":82417,"Delta":21240157},{"NoteNumber":63,"Velocity":72,"Duration":80428,"SoundDuration":80428,"Delta":21404992},{"NoteNumber":51,"Velocity":63,"Duration":80428,"SoundDuration":80428,"Delta":21404992},{"NoteNumber":39,"Velocity":54,"Duration":80428,"SoundDuration":80428,"Delta":21404992},{"NoteNumber":64,"Velocity":67,"Duration":167131,"SoundDuration":167131,"Delta":21573917},{"NoteNumber":72,"Velocity":79,"Duration":167131,"SoundDuration":167131,"Delta":21573917},{"NoteNumber":67,"Velocity":67,"Duration":167131,"SoundDuration":167131,"Delta":21573917},{"NoteNumber":60,"Velocity":67,"Duration":167131,"SoundDuration":167131,"Delta":21573917},{"NoteNumber":31,"Velocity":59,"Duration":167131,"SoundDuration":167131,"Delta":21573917},{"NoteNumber":43,"Velocity":70,"Duration":167131,"SoundDuration":167131,"Delta":21573917},{"NoteNumber":42,"Velocity":65,"Duration":167130,"SoundDuration":167130,"Delta":21741048},{"NoteNumber":67,"Velocity":61,"Duration":329670,"SoundDuration":329670,"Delta":21908179},{"NoteNumber":79,"Velocity":72,"Duration":329670,"SoundDuration":329670,"Delta":21908179},{"NoteNumber":72,"Velocity":61,"Duration":329670,"SoundDuration":329670,"Delta":21908179},{"NoteNumber":76,"Velocity":61,"Duration":329670,"SoundDuration":329670,"Delta":21908179},{"NoteNumber":31,"Velocity":59,"Duration":164835,"SoundDuration":164835,"Delta":21908179},{"NoteNumber":43,"Velocity":70,"Duration":164835,"SoundDuration":164835,"Delta":21908179},{"NoteNumber":42,"Velocity":65,"Duration":164835,"SoundDuration":164835,"Delta":22073014},{"NoteNumber":76,"Velocity":63,"Duration":329670,"SoundDuration":329670,"Delta":22237849},{"NoteNumber":67,"Velocity":63,"Duration":329670,"SoundDuration":329670,"Delta":22237849},{"NoteNumber":72,"Velocity":63,"Duration":329670,"SoundDuration":329670,"Delta":22237849},{"NoteNumber":79,"Velocity":75,"Duration":329670,"SoundDuration":329670,"Delta":22237849},{"NoteNumber":43,"Velocity":70,"Duration":164835,"SoundDuration":164835,"Delta":22237849},{"NoteNumber":31,"Velocity":59,"Duration":164835,"SoundDuration":164835,"Delta":22237849},{"NoteNumber":42,"Velocity":65,"Duration":164835,"SoundDuration":164835,"Delta":22402684},{"NoteNumber":72,"Velocity":61,"Duration":288461,"SoundDuration":288461,"Delta":22567519},{"NoteNumber":79,"Velocity":72,"Duration":288461,"SoundDuration":288461,"Delta":22567519},{"NoteNumber":76,"Velocity":61,"Duration":288461,"SoundDuration":288461,"Delta":22567519},{"NoteNumber":67,"Velocity":61,"Duration":288461,"SoundDuration":288461,"Delta":22567519},{"NoteNumber":31,"Velocity":59,"Duration":164835,"SoundDuration":164835,"Delta":22567519},{"NoteNumber":43,"Velocity":70,"Duration":164835,"SoundDuration":164835,"Delta":22567519},{"NoteNumber":42,"Velocity":65,"Duration":168136,"SoundDuration":168136,"Delta":22732354},{"NoteNumber":68,"Velocity":54,"Duration":44510,"SoundDuration":44510,"Delta":22855980},{"NoteNumber":80,"Velocity":64,"Duration":44510,"SoundDuration":44510,"Delta":22855980},{"NoteNumber":79,"Velocity":72,"Duration":168067,"SoundDuration":168067,"Delta":22900490},{"NoteNumber":67,"Velocity":61,"Duration":168067,"SoundDuration":168067,"Delta":22900490},{"NoteNumber":31,"Velocity":59,"Duration":168067,"SoundDuration":168067,"Delta":22900490},{"NoteNumber":43,"Velocity":70,"Duration":168067,"SoundDuration":168067,"Delta":22900490},{"NoteNumber":42,"Velocity":67,"Duration":168067,"SoundDuration":168067,"Delta":23068557},{"NoteNumber":60,"Velocity":58,"Duration":340908,"SoundDuration":340908,"Delta":23236624},{"NoteNumber":72,"Velocity":69,"Duration":340908,"SoundDuration":340908,"Delta":23236624},{"NoteNumber":64,"Velocity":58,"Duration":340908,"SoundDuration":340908,"Delta":23236624},{"NoteNumber":67,"Velocity":58,"Duration":340908,"SoundDuration":340908,"Delta":23236624},{"NoteNumber":43,"Velocity":70,"Duration":170454,"SoundDuration":170454,"Delta":23236624},{"NoteNumber":31,"Velocity":59,"Duration":170454,"SoundDuration":170454,"Delta":23236624},{"NoteNumber":42,"Velocity":67,"Duration":170454,"SoundDuration":170454,"Delta":23407079},{"NoteNumber":68,"Velocity":62,"Duration":507041,"SoundDuration":507041,"Delta":23577533},{"NoteNumber":74,"Velocity":73,"Duration":507041,"SoundDuration":507041,"Delta":23577533},{"NoteNumber":65,"Velocity":62,"Duration":507041,"SoundDuration":507041,"Delta":23577533},{"NoteNumber":62,"Velocity":62,"Duration":507041,"SoundDuration":507041,"Delta":23577533},{"NoteNumber":36,"Velocity":61,"Duration":169014,"SoundDuration":169014,"Delta":23577533},{"NoteNumber":48,"Velocity":72,"Duration":169014,"SoundDuration":169014,"Delta":23577533},{"NoteNumber":46,"Velocity":71,"Duration":169014,"SoundDuration":169014,"Delta":23746547},{"NoteNumber":34,"Velocity":60,"Duration":169014,"SoundDuration":169014,"Delta":23746547},{"NoteNumber":33,"Velocity":59,"Duration":169013,"SoundDuration":169013,"Delta":23915561},{"NoteNumber":45,"Velocity":70,"Duration":169013,"SoundDuration":169013,"Delta":23915561},{"NoteNumber":32,"Velocity":58,"Duration":172226,"SoundDuration":172226,"Delta":24084575},{"NoteNumber":44,"Velocity":69,"Duration":172226,"SoundDuration":172226,"Delta":24084575},{"NoteNumber":64,"Velocity":67,"Duration":167598,"SoundDuration":167598,"Delta":24256802},{"NoteNumber":60,"Velocity":67,"Duration":167598,"SoundDuration":167598,"Delta":24256802},{"NoteNumber":67,"Velocity":67,"Duration":167598,"SoundDuration":167598,"Delta":24256802},{"NoteNumber":72,"Velocity":79,"Duration":167598,"SoundDuration":167598,"Delta":24256802},{"NoteNumber":43,"Velocity":70,"Duration":167598,"SoundDuration":167598,"Delta":24256802},{"NoteNumber":31,"Velocity":59,"Duration":167598,"SoundDuration":167598,"Delta":24256802},{"NoteNumber":42,"Velocity":65,"Duration":167597,"SoundDuration":167597,"Delta":24424400},{"NoteNumber":67,"Velocity":61,"Duration":329670,"SoundDuration":329670,"Delta":24591998},{"NoteNumber":79,"Velocity":72,"Duration":329670,"SoundDuration":329670,"Delta":24591998},{"NoteNumber":72,"Velocity":61,"Duration":329670,"SoundDuration":329670,"Delta":24591998},{"NoteNumber":76,"Velocity":61,"Duration":329670,"SoundDuration":329670,"Delta":24591998},{"NoteNumber":31,"Velocity":59,"Duration":164835,"SoundDuration":164835,"Delta":24591998},{"NoteNumber":43,"Velocity":70,"Duration":164835,"SoundDuration":164835,"Delta":24591998},{"NoteNumber":42,"Velocity":65,"Duration":164835,"SoundDuration":164835,"Delta":24756833},{"NoteNumber":76,"Velocity":63,"Duration":329670,"SoundDuration":329670,"Delta":24921668},{"NoteNumber":79,"Velocity":75,"Duration":329670,"SoundDuration":329670,"Delta":24921668},{"NoteNumber":72,"Velocity":63,"Duration":329670,"SoundDuration":329670,"Delta":24921668},{"NoteNumber":67,"Velocity":63,"Duration":329670,"SoundDuration":329670,"Delta":24921668},{"NoteNumber":31,"Velocity":59,"Duration":164835,"SoundDuration":164835,"Delta":24921668},{"NoteNumber":43,"Velocity":70,"Duration":164835,"SoundDuration":164835,"Delta":24921668},{"NoteNumber":42,"Velocity":65,"Duration":164835,"SoundDuration":164835,"Delta":25086503},{"NoteNumber":72,"Velocity":61,"Duration":288461,"SoundDuration":288461,"Delta":25251338},{"NoteNumber":67,"Velocity":61,"Duration":288461,"SoundDuration":288461,"Delta":25251338},{"NoteNumber":79,"Velocity":72,"Duration":288461,"SoundDuration":288461,"Delta":25251338},{"NoteNumber":76,"Velocity":61,"Duration":288461,"SoundDuration":288461,"Delta":25251338},{"NoteNumber":43,"Velocity":70,"Duration":164835,"SoundDuration":164835,"Delta":25251338},{"NoteNumber":31,"Velocity":59,"Duration":164835,"SoundDuration":164835,"Delta":25251338},{"NoteNumber":42,"Velocity":65,"Duration":168005,"SoundDuration":168005,"Delta":25416173},{"NoteNumber":81,"Velocity":64,"Duration":44378,"SoundDuration":44378,"Delta":25539799},{"NoteNumber":69,"Velocity":54,"Duration":44378,"SoundDuration":44378,"Delta":25539799},{"NoteNumber":67,"Velocity":61,"Duration":168067,"SoundDuration":168067,"Delta":25584178},{"NoteNumber":79,"Velocity":72,"Duration":168067,"SoundDuration":168067,"Delta":25584178},{"NoteNumber":43,"Velocity":70,"Duration":168067,"SoundDuration":168067,"Delta":25584178},{"NoteNumber":31,"Velocity":59,"Duration":168067,"SoundDuration":168067,"Delta":25584178},{"NoteNumber":42,"Velocity":67,"Duration":168067,"SoundDuration":168067,"Delta":25752245},{"NoteNumber":60,"Velocity":58,"Duration":340908,"SoundDuration":340908,"Delta":25920312},{"NoteNumber":72,"Velocity":69,"Duration":340908,"SoundDuration":340908,"Delta":25920312},{"NoteNumber":64,"Velocity":58,"Duration":340908,"SoundDuration":340908,"Delta":25920312},{"NoteNumber":67,"Velocity":58,"Duration":340908,"SoundDuration":340908,"Delta":25920312},{"NoteNumber":43,"Velocity":70,"Duration":170454,"SoundDuration":170454,"Delta":25920312},{"NoteNumber":31,"Velocity":59,"Duration":170454,"SoundDuration":170454,"Delta":25920312},{"NoteNumber":42,"Velocity":67,"Duration":170454,"SoundDuration":170454,"Delta":26090766},{"NoteNumber":69,"Velocity":62,"Duration":507041,"SoundDuration":507041,"Delta":26261221},{"NoteNumber":62,"Velocity":62,"Duration":507041,"SoundDuration":507041,"Delta":26261221},{"NoteNumber":66,"Velocity":62,"Duration":507041,"SoundDuration":507041,"Delta":26261221},{"NoteNumber":74,"Velocity":73,"Duration":507041,"SoundDuration":507041,"Delta":26261221},{"NoteNumber":36,"Velocity":61,"Duration":169014,"SoundDuration":169014,"Delta":26261221},{"NoteNumber":48,"Velocity":72,"Duration":169014,"SoundDuration":169014,"Delta":26261221},{"NoteNumber":47,"Velocity":71,"Duration":169014,"SoundDuration":169014,"Delta":26430235},{"NoteNumber":35,"Velocity":60,"Duration":169014,"SoundDuration":169014,"Delta":26430235},{"NoteNumber":46,"Velocity":70,"Duration":169013,"SoundDuration":169013,"Delta":26599249},{"NoteNumber":34,"Velocity":59,"Duration":169013,"SoundDuration":169013,"Delta":26599249},{"NoteNumber":45,"Velocity":69,"Duration":173527,"SoundDuration":173527,"Delta":26768263},{"NoteNumber":33,"Velocity":58,"Duration":173527,"SoundDuration":173527,"Delta":26768263},{"NoteNumber":75,"Velocity":83,"Duration":168539,"SoundDuration":168539,"Delta":26941790},{"NoteNumber":69,"Velocity":70,"Duration":168539,"SoundDuration":168539,"Delta":26941790},{"NoteNumber":78,"Velocity":83,"Duration":168539,"SoundDuration":168539,"Delta":26941790},{"NoteNumber":66,"Velocity":70,"Duration":1339864,"SoundDuration":1339864,"Delta":26941790},{"NoteNumber":75,"Velocity":61,"Duration":334261,"SoundDuration":334261,"Delta":27278869},{"NoteNumber":69,"Velocity":61,"Duration":334261,"SoundDuration":334261,"Delta":27278869},{"NoteNumber":78,"Velocity":72,"Duration":334261,"SoundDuration":334261,"Delta":27278869},{"NoteNumber":81,"Velocity":72,"Duration":334261,"SoundDuration":334261,"Delta":27278869},{"NoteNumber":48,"Velocity":50,"Duration":334261,"SoundDuration":334261,"Delta":27278869},{"NoteNumber":60,"Velocity":59,"Duration":334261,"SoundDuration":334261,"Delta":27278869},{"NoteNumber":69,"Velocity":63,"Duration":334262,"SoundDuration":334262,"Delta":27613131},{"NoteNumber":81,"Velocity":75,"Duration":334262,"SoundDuration":334262,"Delta":27613131},{"NoteNumber":75,"Velocity":63,"Duration":334262,"SoundDuration":334262,"Delta":27613131},{"NoteNumber":78,"Velocity":75,"Duration":334262,"SoundDuration":334262,"Delta":27613131},{"NoteNumber":48,"Velocity":63,"Duration":334262,"SoundDuration":334262,"Delta":27613131},{"NoteNumber":36,"Velocity":54,"Duration":334262,"SoundDuration":334262,"Delta":27613131},{"NoteNumber":78,"Velocity":72,"Duration":334261,"SoundDuration":334261,"Delta":27947393},{"NoteNumber":81,"Velocity":72,"Duration":334261,"SoundDuration":334261,"Delta":27947393},{"NoteNumber":75,"Velocity":61,"Duration":334261,"SoundDuration":334261,"Delta":27947393},{"NoteNumber":69,"Velocity":61,"Duration":334261,"SoundDuration":334261,"Delta":27947393},{"NoteNumber":60,"Velocity":60,"Duration":334261,"SoundDuration":334261,"Delta":27947393},{"NoteNumber":48,"Velocity":50,"Duration":334261,"SoundDuration":334261,"Delta":27947393},{"NoteNumber":87,"Velocity":82,"Duration":163043,"SoundDuration":163043,"Delta":28281655},{"NoteNumber":79,"Velocity":69,"Duration":163043,"SoundDuration":163043,"Delta":28281655},{"NoteNumber":82,"Velocity":69,"Duration":163043,"SoundDuration":163043,"Delta":28281655},{"NoteNumber":91,"Velocity":82,"Duration":163043,"SoundDuration":163043,"Delta":28281655},{"NoteNumber":70,"Velocity":70,"Duration":659402,"SoundDuration":659402,"Delta":28281655},{"NoteNumber":74,"Velocity":61,"Duration":166205,"SoundDuration":166205,"Delta":28444699},{"NoteNumber":86,"Velocity":72,"Duration":166205,"SoundDuration":166205,"Delta":28444699},{"NoteNumber":75,"Velocity":65,"Duration":163487,"SoundDuration":163487,"Delta":28610904},{"NoteNumber":87,"Velocity":77,"Duration":163487,"SoundDuration":163487,"Delta":28610904},{"NoteNumber":55,"Velocity":59,"Duration":330154,"SoundDuration":330154,"Delta":28610904},{"NoteNumber":43,"Velocity":50,"Duration":330154,"SoundDuration":330154,"Delta":28610904},{"NoteNumber":70,"Velocity":61,"Duration":830600,"SoundDuration":830600,"Delta":28774391},{"NoteNumber":82,"Velocity":72,"Duration":166666,"SoundDuration":166666,"Delta":28774391},{"NoteNumber":91,"Velocity":80,"Duration":163934,"SoundDuration":163934,"Delta":28941058},{"NoteNumber":79,"Velocity":68,"Duration":163934,"SoundDuration":163934,"Delta":28941058},{"NoteNumber":87,"Velocity":80,"Duration":163934,"SoundDuration":163934,"Delta":28941058},{"NoteNumber":82,"Velocity":68,"Duration":163934,"SoundDuration":163934,"Delta":28941058},{"NoteNumber":43,"Velocity":54,"Duration":330601,"SoundDuration":330601,"Delta":28941058},{"NoteNumber":31,"Velocity":54,"Duration":330601,"SoundDuration":330601,"Delta":28941058},{"NoteNumber":74,"Velocity":61,"Duration":166666,"SoundDuration":166666,"Delta":29104992},{"NoteNumber":86,"Velocity":72,"Duration":166666,"SoundDuration":166666,"Delta":29104992},{"NoteNumber":87,"Velocity":77,"Duration":166666,"SoundDuration":166666,"Delta":29271659},{"NoteNumber":75,"Velocity":65,"Duration":166666,"SoundDuration":166666,"Delta":29271659},{"NoteNumber":55,"Velocity":60,"Duration":333332,"SoundDuration":333332,"Delta":29271659},{"NoteNumber":43,"Velocity":50,"Duration":333332,"SoundDuration":333332,"Delta":29271659},{"NoteNumber":82,"Velocity":72,"Duration":166666,"SoundDuration":166666,"Delta":29438325},{"NoteNumber":70,"Velocity":61,"Duration":166666,"SoundDuration":166666,"Delta":29438325},{"NoteNumber":78,"Velocity":83,"Duration":168539,"SoundDuration":168539,"Delta":29604992},{"NoteNumber":69,"Velocity":70,"Duration":168539,"SoundDuration":168539,"Delta":29604992},{"NoteNumber":75,"Velocity":83,"Duration":168539,"SoundDuration":168539,"Delta":29604992},{"NoteNumber":66,"Velocity":70,"Duration":1339864,"SoundDuration":1339864,"Delta":29604992},{"NoteNumber":78,"Velocity":72,"Duration":334261,"SoundDuration":334261,"Delta":29942071},{"NoteNumber":81,"Velocity":72,"Duration":334261,"SoundDuration":334261,"Delta":29942071},{"NoteNumber":69,"Velocity":61,"Duration":334261,"SoundDuration":334261,"Delta":29942071},{"NoteNumber":75,"Velocity":61,"Duration":334261,"SoundDuration":334261,"Delta":29942071},{"NoteNumber":60,"Velocity":59,"Duration":334261,"SoundDuration":334261,"Delta":29942071},{"NoteNumber":48,"Velocity":50,"Duration":334261,"SoundDuration":334261,"Delta":29942071},{"NoteNumber":78,"Velocity":75,"Duration":334262,"SoundDuration":334262,"Delta":30276333},{"NoteNumber":69,"Velocity":63,"Duration":334262,"SoundDuration":334262,"Delta":30276333},{"NoteNumber":75,"Velocity":63,"Duration":334262,"SoundDuration":334262,"Delta":30276333},{"NoteNumber":81,"Velocity":75,"Duration":334262,"SoundDuration":334262,"Delta":30276333},{"NoteNumber":36,"Velocity":54,"Duration":334262,"SoundDuration":334262,"Delta":30276333},{"NoteNumber":48,"Velocity":63,"Duration":334262,"SoundDuration":334262,"Delta":30276333},{"NoteNumber":75,"Velocity":61,"Duration":334261,"SoundDuration":334261,"Delta":30610595},{"NoteNumber":81,"Velocity":72,"Duration":334261,"SoundDuration":334261,"Delta":30610595},{"NoteNumber":78,"Velocity":72,"Duration":334261,"SoundDuration":334261,"Delta":30610595},{"NoteNumber":69,"Velocity":61,"Duration":334261,"SoundDuration":334261,"Delta":30610595},{"NoteNumber":60,"Velocity":60,"Duration":334261,"SoundDuration":334261,"Delta":30610595},{"NoteNumber":48,"Velocity":50,"Duration":334261,"SoundDuration":334261,"Delta":30610595},{"NoteNumber":91,"Velocity":82,"Duration":167131,"SoundDuration":167131,"Delta":30944857},{"NoteNumber":94,"Velocity":82,"Duration":167131,"SoundDuration":167131,"Delta":30944857},{"NoteNumber":87,"Velocity":69,"Duration":167131,"SoundDuration":167131,"Delta":30944857},{"NoteNumber":82,"Velocity":69,"Duration":167131,"SoundDuration":167131,"Delta":30944857},{"NoteNumber":70,"Velocity":70,"Duration":1320175,"SoundDuration":1320175,"Delta":30944857},{"NoteNumber":94,"Velocity":80,"Duration":162601,"SoundDuration":162601,"Delta":31279119},{"NoteNumber":82,"Velocity":68,"Duration":162601,"SoundDuration":162601,"Delta":31279119},{"NoteNumber":55,"Velocity":59,"Duration":328347,"SoundDuration":328347,"Delta":31279119},{"NoteNumber":43,"Velocity":50,"Duration":328347,"SoundDuration":328347,"Delta":31279119},{"NoteNumber":77,"Velocity":61,"Duration":165745,"SoundDuration":165745,"Delta":31441720},{"NoteNumber":89,"Velocity":72,"Duration":165745,"SoundDuration":165745,"Delta":31441720},{"NoteNumber":87,"Velocity":73,"Duration":163487,"SoundDuration":163487,"Delta":31607466},{"NoteNumber":79,"Velocity":62,"Duration":163487,"SoundDuration":163487,"Delta":31607466},{"NoteNumber":82,"Velocity":62,"Duration":163487,"SoundDuration":163487,"Delta":31607466},{"NoteNumber":91,"Velocity":73,"Duration":163487,"SoundDuration":163487,"Delta":31607466},{"NoteNumber":43,"Velocity":63,"Duration":328776,"SoundDuration":328776,"Delta":31607466},{"NoteNumber":31,"Velocity":54,"Duration":328776,"SoundDuration":328776,"Delta":31607466},{"NoteNumber":75,"Velocity":58,"Duration":165289,"SoundDuration":165289,"Delta":31770954},{"NoteNumber":87,"Velocity":69,"Duration":165289,"SoundDuration":165289,"Delta":31770954},{"NoteNumber":74,"Velocity":65,"Duration":163043,"SoundDuration":163043,"Delta":31936243},{"NoteNumber":86,"Velocity":77,"Duration":163043,"SoundDuration":163043,"Delta":31936243},{"NoteNumber":43,"Velocity":50,"Duration":328789,"SoundDuration":328789,"Delta":31936243},{"NoteNumber":55,"Velocity":60,"Duration":328789,"SoundDuration":328789,"Delta":31936243},{"NoteNumber":70,"Velocity":61,"Duration":165745,"SoundDuration":165745,"Delta":32099287},{"NoteNumber":82,"Velocity":72,"Duration":165745,"SoundDuration":165745,"Delta":32099287},{"NoteNumber":75,"Velocity":70,"Duration":168539,"SoundDuration":168539,"Delta":32265033},{"NoteNumber":71,"Velocity":70,"Duration":168539,"SoundDuration":168539,"Delta":32265033},{"NoteNumber":81,"Velocity":83,"Duration":168539,"SoundDuration":168539,"Delta":32265033},{"NoteNumber":83,"Velocity":83,"Duration":168539,"SoundDuration":168539,"Delta":32265033},{"NoteNumber":66,"Velocity":70,"Duration":1339865,"SoundDuration":1339865,"Delta":32265033},{"NoteNumber":75,"Velocity":61,"Duration":334262,"SoundDuration":334262,"Delta":32602112},{"NoteNumber":87,"Velocity":72,"Duration":334262,"SoundDuration":334262,"Delta":32602112},{"NoteNumber":78,"Velocity":72,"Duration":334262,"SoundDuration":334262,"Delta":32602112},{"NoteNumber":83,"Velocity":72,"Duration":334262,"SoundDuration":334262,"Delta":32602112},{"NoteNumber":45,"Velocity":50,"Duration":334262,"SoundDuration":334262,"Delta":32602112},{"NoteNumber":57,"Velocity":59,"Duration":334262,"SoundDuration":334262,"Delta":32602112},{"NoteNumber":83,"Velocity":75,"Duration":334261,"SoundDuration":334261,"Delta":32936374},{"NoteNumber":87,"Velocity":75,"Duration":334261,"SoundDuration":334261,"Delta":32936374},{"NoteNumber":78,"Velocity":75,"Duration":334261,"SoundDuration":334261,"Delta":32936374},{"NoteNumber":75,"Velocity":63,"Duration":334261,"SoundDuration":334261,"Delta":32936374},{"NoteNumber":33,"Velocity":54,"Duration":334261,"SoundDuration":334261,"Delta":32936374},{"NoteNumber":45,"Velocity":63,"Duration":334261,"SoundDuration":334261,"Delta":32936374},{"NoteNumber":78,"Velocity":72,"Duration":334262,"SoundDuration":334262,"Delta":33270636},{"NoteNumber":75,"Velocity":61,"Duration":334262,"SoundDuration":334262,"Delta":33270636},{"NoteNumber":83,"Velocity":72,"Duration":334262,"SoundDuration":334262,"Delta":33270636},{"NoteNumber":87,"Velocity":72,"Duration":334262,"SoundDuration":334262,"Delta":33270636},{"NoteNumber":45,"Velocity":50,"Duration":334262,"SoundDuration":334262,"Delta":33270636},{"NoteNumber":57,"Velocity":60,"Duration":334262,"SoundDuration":334262,"Delta":33270636},{"NoteNumber":91,"Velocity":78,"Duration":163487,"SoundDuration":163487,"Delta":33604898},{"NoteNumber":79,"Velocity":66,"Duration":163487,"SoundDuration":163487,"Delta":33604898},{"NoteNumber":88,"Velocity":78,"Duration":163487,"SoundDuration":163487,"Delta":33604898},{"NoteNumber":84,"Velocity":66,"Duration":163487,"SoundDuration":163487,"Delta":33604898},{"NoteNumber":70,"Velocity":70,"Duration":1318748,"SoundDuration":1318748,"Delta":33604898},{"NoteNumber":86,"Velocity":72,"Duration":165745,"SoundDuration":165745,"Delta":33768385},{"NoteNumber":74,"Velocity":61,"Duration":165745,"SoundDuration":165745,"Delta":33768385},{"NoteNumber":76,"Velocity":64,"Duration":163043,"SoundDuration":163043,"Delta":33934131},{"NoteNumber":88,"Velocity":76,"Duration":163043,"SoundDuration":163043,"Delta":33934131},{"NoteNumber":40,"Velocity":50,"Duration":328789,"SoundDuration":328789,"Delta":33934131},{"NoteNumber":52,"Velocity":59,"Duration":328789,"SoundDuration":328789,"Delta":33934131},{"NoteNumber":72,"Velocity":56,"Duration":165745,"SoundDuration":165745,"Delta":34097175},{"NoteNumber":84,"Velocity":67,"Duration":165745,"SoundDuration":165745,"Delta":34097175},{"NoteNumber":91,"Velocity":78,"Duration":163487,"SoundDuration":163487,"Delta":34262921},{"NoteNumber":79,"Velocity":66,"Duration":163487,"SoundDuration":163487,"Delta":34262921},{"NoteNumber":88,"Velocity":78,"Duration":163487,"SoundDuration":163487,"Delta":34262921},{"NoteNumber":84,"Velocity":66,"Duration":163487,"SoundDuration":163487,"Delta":34262921},{"NoteNumber":28,"Velocity":54,"Duration":329233,"SoundDuration":329233,"Delta":34262921},{"NoteNumber":40,"Velocity":63,"Duration":329233,"SoundDuration":329233,"Delta":34262921},{"NoteNumber":74,"Velocity":57,"Duration":165745,"SoundDuration":165745,"Delta":34426408},{"NoteNumber":86,"Velocity":68,"Duration":165745,"SoundDuration":165745,"Delta":34426408},{"NoteNumber":88,"Velocity":73,"Duration":165745,"SoundDuration":165745,"Delta":34592154},{"NoteNumber":76,"Velocity":62,"Duration":165745,"SoundDuration":165745,"Delta":34592154},{"NoteNumber":52,"Velocity":60,"Duration":331492,"SoundDuration":331492,"Delta":34592154},{"NoteNumber":40,"Velocity":50,"Duration":331492,"SoundDuration":331492,"Delta":34592154},{"NoteNumber":84,"Velocity":66,"Duration":165746,"SoundDuration":165746,"Delta":34757900},{"NoteNumber":72,"Velocity":56,"Duration":165746,"SoundDuration":165746,"Delta":34757900},{"NoteNumber":81,"Velocity":83,"Duration":168539,"SoundDuration":168539,"Delta":34923646},{"NoteNumber":71,"Velocity":70,"Duration":168539,"SoundDuration":168539,"Delta":34923646},{"NoteNumber":75,"Velocity":70,"Duration":168539,"SoundDuration":168539,"Delta":34923646},{"NoteNumber":83,"Velocity":83,"Duration":168539,"SoundDuration":168539,"Delta":34923646},{"NoteNumber":66,"Velocity":70,"Duration":1339865,"SoundDuration":1339865,"Delta":34923646},{"NoteNumber":78,"Velocity":61,"Duration":334262,"SoundDuration":334262,"Delta":35260725},{"NoteNumber":87,"Velocity":72,"Duration":334262,"SoundDuration":334262,"Delta":35260725},{"NoteNumber":83,"Velocity":72,"Duration":334262,"SoundDuration":334262,"Delta":35260725},{"NoteNumber":75,"Velocity":61,"Duration":334262,"SoundDuration":334262,"Delta":35260725},{"NoteNumber":45,"Velocity":50,"Duration":334262,"SoundDuration":334262,"Delta":35260725},{"NoteNumber":57,"Velocity":59,"Duration":334262,"SoundDuration":334262,"Delta":35260725},{"NoteNumber":75,"Velocity":63,"Duration":334261,"SoundDuration":334261,"Delta":35594987},{"NoteNumber":87,"Velocity":75,"Duration":334261,"SoundDuration":334261,"Delta":35594987},{"NoteNumber":83,"Velocity":75,"Duration":334261,"SoundDuration":334261,"Delta":35594987},{"NoteNumber":78,"Velocity":63,"Duration":334261,"SoundDuration":334261,"Delta":35594987},{"NoteNumber":45,"Velocity":63,"Duration":334261,"SoundDuration":334261,"Delta":35594987},{"NoteNumber":33,"Velocity":54,"Duration":334261,"SoundDuration":334261,"Delta":35594987},{"NoteNumber":78,"Velocity":61,"Duration":334262,"SoundDuration":334262,"Delta":35929249},{"NoteNumber":87,"Velocity":72,"Duration":334262,"SoundDuration":334262,"Delta":35929249},{"NoteNumber":83,"Velocity":72,"Duration":334262,"SoundDuration":334262,"Delta":35929249},{"NoteNumber":75,"Velocity":61,"Duration":334262,"SoundDuration":334262,"Delta":35929249},{"NoteNumber":57,"Velocity":60,"Duration":334262,"SoundDuration":334262,"Delta":35929249},{"NoteNumber":45,"Velocity":50,"Duration":334262,"SoundDuration":334262,"Delta":35929249},{"NoteNumber":91,"Velocity":78,"Duration":165745,"SoundDuration":165745,"Delta":36263511},{"NoteNumber":96,"Velocity":78,"Duration":165745,"SoundDuration":165745,"Delta":36263511},{"NoteNumber":88,"Velocity":66,"Duration":165745,"SoundDuration":165745,"Delta":36263511},{"NoteNumber":84,"Velocity":66,"Duration":165745,"SoundDuration":165745,"Delta":36263511},{"NoteNumber":72,"Velocity":70,"Duration":1327604,"SoundDuration":1327604,"Delta":36263511},{"NoteNumber":96,"Velocity":76,"Duration":161724,"SoundDuration":161724,"Delta":36595003},{"NoteNumber":84,"Velocity":64,"Duration":161724,"SoundDuration":161724,"Delta":36595003},{"NoteNumber":52,"Velocity":59,"Duration":325659,"SoundDuration":325659,"Delta":36595003},{"NoteNumber":40,"Velocity":50,"Duration":325659,"SoundDuration":325659,"Delta":36595003},{"NoteNumber":79,"Velocity":56,"Duration":163934,"SoundDuration":163934,"Delta":36756728},{"NoteNumber":91,"Velocity":67,"Duration":163934,"SoundDuration":163934,"Delta":36756728},{"NoteNumber":88,"Velocity":68,"Duration":164834,"SoundDuration":164834,"Delta":36920663},{"NoteNumber":81,"Velocity":57,"Duration":164834,"SoundDuration":164834,"Delta":36920663},{"NoteNumber":84,"Velocity":57,"Duration":164834,"SoundDuration":164834,"Delta":36920663},{"NoteNumber":93,"Velocity":68,"Duration":164834,"SoundDuration":164834,"Delta":36920663},{"NoteNumber":28,"Velocity":54,"Duration":333374,"SoundDuration":333374,"Delta":36920663},{"NoteNumber":40,"Velocity":63,"Duration":333374,"SoundDuration":333374,"Delta":36920663},{"NoteNumber":77,"Velocity":54,"Duration":168539,"SoundDuration":168539,"Delta":37085498},{"NoteNumber":89,"Velocity":64,"Duration":168539,"SoundDuration":168539,"Delta":37085498},{"NoteNumber":76,"Velocity":62,"Duration":168539,"SoundDuration":168539,"Delta":37254037},{"NoteNumber":88,"Velocity":73,"Duration":168539,"SoundDuration":168539,"Delta":37254037},{"NoteNumber":40,"Velocity":50,"Duration":337078,"SoundDuration":337078,"Delta":37254037},{"NoteNumber":52,"Velocity":60,"Duration":337078,"SoundDuration":337078,"Delta":37254037},{"NoteNumber":72,"Velocity":56,"Duration":168539,"SoundDuration":168539,"Delta":37422577},{"NoteNumber":84,"Velocity":66,"Duration":168539,"SoundDuration":168539,"Delta":37422577},{"NoteNumber":55,"Velocity":66,"Duration":169971,"SoundDuration":169971,"Delta":37591116},{"NoteNumber":67,"Velocity":78,"Duration":169971,"SoundDuration":169971,"Delta":37591116},{"NoteNumber":31,"Velocity":57,"Duration":169971,"SoundDuration":169971,"Delta":37591116},{"NoteNumber":43,"Velocity":68,"Duration":169971,"SoundDuration":169971,"Delta":37591116},{"NoteNumber":91,"Velocity":62,"Duration":164383,"SoundDuration":164383,"Delta":37931059},{"NoteNumber":103,"Velocity":73,"Duration":164383,"SoundDuration":164383,"Delta":37931059},{"NoteNumber":79,"Velocity":66,"Duration":164383,"SoundDuration":164383,"Delta":37931059},{"NoteNumber":98,"Velocity":67,"Duration":167130,"SoundDuration":167130,"Delta":38095443},{"NoteNumber":86,"Velocity":56,"Duration":167130,"SoundDuration":167130,"Delta":38095443},{"NoteNumber":74,"Velocity":60,"Duration":167130,"SoundDuration":167130,"Delta":38095443},{"NoteNumber":87,"Velocity":59,"Duration":164834,"SoundDuration":164834,"Delta":38262574},{"NoteNumber":99,"Velocity":70,"Duration":164834,"SoundDuration":164834,"Delta":38262574},{"NoteNumber":75,"Velocity":65,"Duration":164834,"SoundDuration":164834,"Delta":38262574},{"NoteNumber":98,"Velocity":65,"Duration":167597,"SoundDuration":167597,"Delta":38427409},{"NoteNumber":86,"Velocity":55,"Duration":167597,"SoundDuration":167597,"Delta":38427409},{"NoteNumber":74,"Velocity":60,"Duration":167597,"SoundDuration":167597,"Delta":38427409},{"NoteNumber":82,"Velocity":59,"Duration":164834,"SoundDuration":164834,"Delta":38595007},{"NoteNumber":94,"Velocity":70,"Duration":164834,"SoundDuration":164834,"Delta":38595007},{"NoteNumber":70,"Velocity":65,"Duration":164834,"SoundDuration":164834,"Delta":38595007},{"NoteNumber":91,"Velocity":67,"Duration":167597,"SoundDuration":167597,"Delta":38759842},{"NoteNumber":79,"Velocity":56,"Duration":167597,"SoundDuration":167597,"Delta":38759842},{"NoteNumber":67,"Velocity":60,"Duration":167597,"SoundDuration":167597,"Delta":38759842},{"NoteNumber":80,"Velocity":59,"Duration":164834,"SoundDuration":164834,"Delta":38927440},{"NoteNumber":92,"Velocity":70,"Duration":164834,"SoundDuration":164834,"Delta":38927440},{"NoteNumber":68,"Velocity":64,"Duration":164834,"SoundDuration":164834,"Delta":38927440},{"NoteNumber":99,"Velocity":64,"Duration":167597,"SoundDuration":167597,"Delta":39092275},{"NoteNumber":87,"Velocity":54,"Duration":167597,"SoundDuration":167597,"Delta":39092275},{"NoteNumber":75,"Velocity":58,"Duration":167597,"SoundDuration":167597,"Delta":39092275},{"NoteNumber":83,"Velocity":56,"Duration":165289,"SoundDuration":165289,"Delta":39259873},{"NoteNumber":95,"Velocity":67,"Duration":165289,"SoundDuration":165289,"Delta":39259873},{"NoteNumber":71,"Velocity":62,"Duration":165289,"SoundDuration":165289,"Delta":39259873},{"NoteNumber":99,"Velocity":59,"Duration":170940,"SoundDuration":170940,"Delta":39425162},{"NoteNumber":87,"Velocity":50,"Duration":170940,"SoundDuration":170940,"Delta":39425162},{"NoteNumber":75,"Velocity":58,"Duration":170940,"SoundDuration":170940,"Delta":39425162},{"NoteNumber":86,"Velocity":62,"Duration":177514,"SoundDuration":177514,"Delta":39596102},{"NoteNumber":98,"Velocity":74,"Duration":177514,"SoundDuration":177514,"Delta":39596102},{"NoteNumber":74,"Velocity":63,"Duration":177514,"SoundDuration":177514,"Delta":39596102},{"NoteNumber":91,"Velocity":68,"Duration":177514,"SoundDuration":177514,"Delta":39951132},{"NoteNumber":79,"Velocity":57,"Duration":177514,"SoundDuration":177514,"Delta":39951132},{"NoteNumber":67,"Velocity":61,"Duration":177514,"SoundDuration":177514,"Delta":39951132},{"NoteNumber":91,"Velocity":78,"Duration":339942,"SoundDuration":339942,"Delta":40306162},{"NoteNumber":79,"Velocity":66,"Duration":339942,"SoundDuration":339942,"Delta":40306162},{"NoteNumber":67,"Velocity":68,"Duration":339942,"SoundDuration":339942,"Delta":40306162},{"NoteNumber":55,"Velocity":57,"Duration":339942,"SoundDuration":339942,"Delta":40306162},{"NoteNumber":79,"Velocity":62,"Duration":164383,"SoundDuration":164383,"Delta":40646105},{"NoteNumber":91,"Velocity":73,"Duration":164383,"SoundDuration":164383,"Delta":40646105},{"NoteNumber":55,"Velocity":55,"Duration":164383,"SoundDuration":164383,"Delta":40646105},{"NoteNumber":67,"Velocity":66,"Duration":164383,"SoundDuration":164383,"Delta":40646105},{"NoteNumber":86,"Velocity":67,"Duration":167130,"SoundDuration":167130,"Delta":40810489},{"NoteNumber":74,"Velocity":56,"Duration":167130,"SoundDuration":167130,"Delta":40810489},{"NoteNumber":50,"Velocity":50,"Duration":167130,"SoundDuration":167130,"Delta":40810489},{"NoteNumber":62,"Velocity":60,"Duration":167130,"SoundDuration":167130,"Delta":40810489},{"NoteNumber":87,"Velocity":70,"Duration":164834,"SoundDuration":164834,"Delta":40977620},{"NoteNumber":75,"Velocity":59,"Duration":164834,"SoundDuration":164834,"Delta":40977620},{"NoteNumber":63,"Velocity":65,"Duration":164834,"SoundDuration":164834,"Delta":40977620},{"NoteNumber":51,"Velocity":55,"Duration":164834,"SoundDuration":164834,"Delta":40977620},{"NoteNumber":74,"Velocity":55,"Duration":167597,"SoundDuration":167597,"Delta":41142455},{"NoteNumber":86,"Velocity":65,"Duration":167597,"SoundDuration":167597,"Delta":41142455},{"NoteNumber":50,"Velocity":50,"Duration":167597,"SoundDuration":167597,"Delta":41142455},{"NoteNumber":62,"Velocity":60,"Duration":167597,"SoundDuration":167597,"Delta":41142455},{"NoteNumber":70,"Velocity":59,"Duration":164834,"SoundDuration":164834,"Delta":41310053},{"NoteNumber":82,"Velocity":70,"Duration":164834,"SoundDuration":164834,"Delta":41310053},{"NoteNumber":46,"Velocity":55,"Duration":164834,"SoundDuration":164834,"Delta":41310053},{"NoteNumber":58,"Velocity":65,"Duration":164834,"SoundDuration":164834,"Delta":41310053},{"NoteNumber":67,"Velocity":56,"Duration":167597,"SoundDuration":167597,"Delta":41474888},{"NoteNumber":79,"Velocity":67,"Duration":167597,"SoundDuration":167597,"Delta":41474888},{"NoteNumber":55,"Velocity":60,"Duration":167597,"SoundDuration":167597,"Delta":41474888},{"NoteNumber":43,"Velocity":50,"Duration":167597,"SoundDuration":167597,"Delta":41474888},{"NoteNumber":80,"Velocity":70,"Duration":164834,"SoundDuration":164834,"Delta":41642486},{"NoteNumber":68,"Velocity":59,"Duration":164834,"SoundDuration":164834,"Delta":41642486},{"NoteNumber":56,"Velocity":64,"Duration":164834,"SoundDuration":164834,"Delta":41642486},{"NoteNumber":44,"Velocity":54,"Duration":164834,"SoundDuration":164834,"Delta":41642486},{"NoteNumber":87,"Velocity":64,"Duration":167597,"SoundDuration":167597,"Delta":41807321},{"NoteNumber":75,"Velocity":54,"Duration":167597,"SoundDuration":167597,"Delta":41807321},{"NoteNumber":63,"Velocity":58,"Duration":167597,"SoundDuration":167597,"Delta":41807321},{"NoteNumber":51,"Velocity":49,"Duration":167597,"SoundDuration":167597,"Delta":41807321},{"NoteNumber":83,"Velocity":67,"Duration":165289,"SoundDuration":165289,"Delta":41974919},{"NoteNumber":71,"Velocity":56,"Duration":165289,"SoundDuration":165289,"Delta":41974919},{"NoteNumber":47,"Velocity":52,"Duration":165289,"SoundDuration":165289,"Delta":41974919},{"NoteNumber":59,"Velocity":62,"Duration":165289,"SoundDuration":165289,"Delta":41974919},{"NoteNumber":75,"Velocity":50,"Duration":170940,"SoundDuration":170940,"Delta":42140208},{"NoteNumber":87,"Velocity":59,"Duration":170940,"SoundDuration":170940,"Delta":42140208},{"NoteNumber":51,"Velocity":49,"Duration":170940,"SoundDuration":170940,"Delta":42140208},{"NoteNumber":63,"Velocity":58,"Duration":170940,"SoundDuration":170940,"Delta":42140208},{"NoteNumber":74,"Velocity":67,"Duration":179104,"SoundDuration":179104,"Delta":42311148},{"NoteNumber":86,"Velocity":79,"Duration":179104,"SoundDuration":179104,"Delta":42311148},{"NoteNumber":62,"Velocity":63,"Duration":179104,"SoundDuration":179104,"Delta":42311148},{"NoteNumber":50,"Velocity":54,"Duration":179104,"SoundDuration":179104,"Delta":42311148},{"NoteNumber":67,"Velocity":56,"Duration":179104,"SoundDuration":179104,"Delta":42669357},{"NoteNumber":79,"Velocity":67,"Duration":179104,"SoundDuration":179104,"Delta":42669357},{"NoteNumber":43,"Velocity":51,"Duration":179104,"SoundDuration":179104,"Delta":42669357},{"NoteNumber":55,"Velocity":61,"Duration":179104,"SoundDuration":179104,"Delta":42669357},{"NoteNumber":79,"Velocity":78,"Duration":339942,"SoundDuration":339942,"Delta":43027566},{"NoteNumber":67,"Velocity":66,"Duration":339942,"SoundDuration":339942,"Delta":43027566},{"NoteNumber":55,"Velocity":68,"Duration":339942,"SoundDuration":339942,"Delta":43027566},{"NoteNumber":43,"Velocity":57,"Duration":339942,"SoundDuration":339942,"Delta":43027566},{"NoteNumber":79,"Velocity":73,"Duration":164383,"SoundDuration":164383,"Delta":43367509},{"NoteNumber":67,"Velocity":62,"Duration":164383,"SoundDuration":164383,"Delta":43367509},{"NoteNumber":55,"Velocity":66,"Duration":164383,"SoundDuration":164383,"Delta":43367509},{"NoteNumber":43,"Velocity":55,"Duration":164383,"SoundDuration":164383,"Delta":43367509},{"NoteNumber":62,"Velocity":56,"Duration":167130,"SoundDuration":167130,"Delta":43531893},{"NoteNumber":74,"Velocity":67,"Duration":167130,"SoundDuration":167130,"Delta":43531893},{"NoteNumber":38,"Velocity":50,"Duration":167130,"SoundDuration":167130,"Delta":43531893},{"NoteNumber":50,"Velocity":60,"Duration":167130,"SoundDuration":167130,"Delta":43531893},{"NoteNumber":75,"Velocity":70,"Duration":164834,"SoundDuration":164834,"Delta":43699024},{"NoteNumber":63,"Velocity":59,"Duration":164834,"SoundDuration":164834,"Delta":43699024},{"NoteNumber":39,"Velocity":55,"Duration":164834,"SoundDuration":164834,"Delta":43699024},{"NoteNumber":51,"Velocity":65,"Duration":164834,"SoundDuration":164834,"Delta":43699024},{"NoteNumber":74,"Velocity":65,"Duration":167597,"SoundDuration":167597,"Delta":43863859},{"NoteNumber":62,"Velocity":55,"Duration":167597,"SoundDuration":167597,"Delta":43863859},{"NoteNumber":38,"Velocity":50,"Duration":167597,"SoundDuration":167597,"Delta":43863859},{"NoteNumber":50,"Velocity":60,"Duration":167597,"SoundDuration":167597,"Delta":43863859},{"NoteNumber":70,"Velocity":70,"Duration":164834,"SoundDuration":164834,"Delta":44031457},{"NoteNumber":58,"Velocity":59,"Duration":164834,"SoundDuration":164834,"Delta":44031457},{"NoteNumber":34,"Velocity":55,"Duration":164834,"SoundDuration":164834,"Delta":44031457},{"NoteNumber":46,"Velocity":65,"Duration":164834,"SoundDuration":164834,"Delta":44031457},{"NoteNumber":55,"Velocity":56,"Duration":167597,"SoundDuration":167597,"Delta":44196292},{"NoteNumber":67,"Velocity":67,"Duration":167597,"SoundDuration":167597,"Delta":44196292},{"NoteNumber":43,"Velocity":60,"Duration":167597,"SoundDuration":167597,"Delta":44196292},{"NoteNumber":31,"Velocity":50,"Duration":167597,"SoundDuration":167597,"Delta":44196292},{"NoteNumber":54,"Velocity":87,"Duration":519413,"SoundDuration":519413,"Delta":44363890},{"NoteNumber":30,"Velocity":59,"Duration":519413,"SoundDuration":519413,"Delta":44363890},{"NoteNumber":42,"Velocity":70,"Duration":519413,"SoundDuration":519413,"Delta":44363890},{"NoteNumber":79,"Velocity":73,"Duration":164383,"SoundDuration":164383,"Delta":44718920},{"NoteNumber":67,"Velocity":62,"Duration":164383,"SoundDuration":164383,"Delta":44718920},{"NoteNumber":55,"Velocity":66,"Duration":164383,"SoundDuration":164383,"Delta":44718920},{"NoteNumber":43,"Velocity":55,"Duration":164383,"SoundDuration":164383,"Delta":44718920},{"NoteNumber":74,"Velocity":67,"Duration":167130,"SoundDuration":167130,"Delta":44883303},{"NoteNumber":62,"Velocity":56,"Duration":167130,"SoundDuration":167130,"Delta":44883303},{"NoteNumber":38,"Velocity":50,"Duration":167130,"SoundDuration":167130,"Delta":44883303},{"NoteNumber":50,"Velocity":60,"Duration":167130,"SoundDuration":167130,"Delta":44883303},{"NoteNumber":63,"Velocity":59,"Duration":164834,"SoundDuration":164834,"Delta":45050434},{"NoteNumber":75,"Velocity":70,"Duration":164834,"SoundDuration":164834,"Delta":45050434},{"NoteNumber":39,"Velocity":55,"Duration":164834,"SoundDuration":164834,"Delta":45050434},{"NoteNumber":51,"Velocity":65,"Duration":164834,"SoundDuration":164834,"Delta":45050434},{"NoteNumber":74,"Velocity":65,"Duration":167597,"SoundDuration":167597,"Delta":45215269},{"NoteNumber":62,"Velocity":55,"Duration":167597,"SoundDuration":167597,"Delta":45215269},{"NoteNumber":50,"Velocity":60,"Duration":167597,"SoundDuration":167597,"Delta":45215269},{"NoteNumber":38,"Velocity":50,"Duration":167597,"SoundDuration":167597,"Delta":45215269},{"NoteNumber":58,"Velocity":59,"Duration":167130,"SoundDuration":167130,"Delta":45382867},{"NoteNumber":70,"Velocity":70,"Duration":167130,"SoundDuration":167130,"Delta":45382867},{"NoteNumber":34,"Velocity":55,"Duration":167130,"SoundDuration":167130,"Delta":45382867},{"NoteNumber":46,"Velocity":65,"Duration":167130,"SoundDuration":167130,"Delta":45382867},{"NoteNumber":55,"Velocity":56,"Duration":171428,"SoundDuration":171428,"Delta":45549998},{"NoteNumber":67,"Velocity":67,"Duration":171428,"SoundDuration":171428,"Delta":45549998},{"NoteNumber":31,"Velocity":50,"Duration":171428,"SoundDuration":171428,"Delta":45549998},{"NoteNumber":43,"Velocity":60,"Duration":171428,"SoundDuration":171428,"Delta":45549998},{"NoteNumber":53,"Velocity":87,"Duration":516289,"SoundDuration":516289,"Delta":45721427},{"NoteNumber":29,"Velocity":59,"Duration":516289,"SoundDuration":516289,"Delta":45721427},{"NoteNumber":41,"Velocity":70,"Duration":516289,"SoundDuration":516289,"Delta":45721427},{"NoteNumber":67,"Velocity":62,"Duration":164383,"SoundDuration":164383,"Delta":46073333},{"NoteNumber":79,"Velocity":73,"Duration":164383,"SoundDuration":164383,"Delta":46073333},{"NoteNumber":43,"Velocity":55,"Duration":164383,"SoundDuration":164383,"Delta":46073333},{"NoteNumber":55,"Velocity":66,"Duration":164383,"SoundDuration":164383,"Delta":46073333},{"NoteNumber":74,"Velocity":67,"Duration":167130,"SoundDuration":167130,"Delta":46237716},{"NoteNumber":62,"Velocity":56,"Duration":167130,"SoundDuration":167130,"Delta":46237716},{"NoteNumber":50,"Velocity":60,"Duration":167130,"SoundDuration":167130,"Delta":46237716},{"NoteNumber":38,"Velocity":50,"Duration":167130,"SoundDuration":167130,"Delta":46237716},{"NoteNumber":75,"Velocity":70,"Duration":164834,"SoundDuration":164834,"Delta":46404847},{"NoteNumber":63,"Velocity":59,"Duration":164834,"SoundDuration":164834,"Delta":46404847},{"NoteNumber":51,"Velocity":65,"Duration":164834,"SoundDuration":164834,"Delta":46404847},{"NoteNumber":39,"Velocity":55,"Duration":164834,"SoundDuration":164834,"Delta":46404847},{"NoteNumber":62,"Velocity":55,"Duration":167597,"SoundDuration":167597,"Delta":46569682},{"NoteNumber":74,"Velocity":65,"Duration":167597,"SoundDuration":167597,"Delta":46569682},{"NoteNumber":50,"Velocity":60,"Duration":167597,"SoundDuration":167597,"Delta":46569682},{"NoteNumber":38,"Velocity":50,"Duration":167597,"SoundDuration":167597,"Delta":46569682},{"NoteNumber":58,"Velocity":59,"Duration":168067,"SoundDuration":168067,"Delta":46737280},{"NoteNumber":70,"Velocity":70,"Duration":168067,"SoundDuration":168067,"Delta":46737280},{"NoteNumber":34,"Velocity":55,"Duration":168067,"SoundDuration":168067,"Delta":46737280},{"NoteNumber":46,"Velocity":65,"Duration":168067,"SoundDuration":168067,"Delta":46737280},{"NoteNumber":55,"Velocity":56,"Duration":172414,"SoundDuration":172414,"Delta":46905347},{"NoteNumber":67,"Velocity":67,"Duration":172414,"SoundDuration":172414,"Delta":46905347},{"NoteNumber":31,"Velocity":50,"Duration":172414,"SoundDuration":172414,"Delta":46905347},{"NoteNumber":43,"Velocity":60,"Duration":172414,"SoundDuration":172414,"Delta":46905347},{"NoteNumber":52,"Velocity":87,"Duration":518365,"SoundDuration":518365,"Delta":47077761},{"NoteNumber":40,"Velocity":70,"Duration":518365,"SoundDuration":518365,"Delta":47077761},{"NoteNumber":28,"Velocity":59,"Duration":518365,"SoundDuration":518365,"Delta":47077761},{"NoteNumber":79,"Velocity":73,"Duration":164383,"SoundDuration":164383,"Delta":47431743},{"NoteNumber":67,"Velocity":62,"Duration":164383,"SoundDuration":164383,"Delta":47431743},{"NoteNumber":43,"Velocity":55,"Duration":164383,"SoundDuration":164383,"Delta":47431743},{"NoteNumber":55,"Velocity":66,"Duration":164383,"SoundDuration":164383,"Delta":47431743},{"NoteNumber":62,"Velocity":56,"Duration":167130,"SoundDuration":167130,"Delta":47596127},{"NoteNumber":74,"Velocity":67,"Duration":167130,"SoundDuration":167130,"Delta":47596127},{"NoteNumber":38,"Velocity":50,"Duration":167130,"SoundDuration":167130,"Delta":47596127},{"NoteNumber":50,"Velocity":60,"Duration":167130,"SoundDuration":167130,"Delta":47596127},{"NoteNumber":75,"Velocity":70,"Duration":164834,"SoundDuration":164834,"Delta":47763258},{"NoteNumber":63,"Velocity":59,"Duration":164834,"SoundDuration":164834,"Delta":47763258},{"NoteNumber":51,"Velocity":65,"Duration":164834,"SoundDuration":164834,"Delta":47763258},{"NoteNumber":39,"Velocity":55,"Duration":164834,"SoundDuration":164834,"Delta":47763258},{"NoteNumber":74,"Velocity":65,"Duration":167597,"SoundDuration":167597,"Delta":47928093},{"NoteNumber":62,"Velocity":55,"Duration":167597,"SoundDuration":167597,"Delta":47928093},{"NoteNumber":50,"Velocity":60,"Duration":167597,"SoundDuration":167597,"Delta":47928093},{"NoteNumber":38,"Velocity":50,"Duration":167597,"SoundDuration":167597,"Delta":47928093},{"NoteNumber":70,"Velocity":70,"Duration":168067,"SoundDuration":168067,"Delta":48095691},{"NoteNumber":58,"Velocity":59,"Duration":168067,"SoundDuration":168067,"Delta":48095691},{"NoteNumber":46,"Velocity":65,"Duration":168067,"SoundDuration":168067,"Delta":48095691},{"NoteNumber":34,"Velocity":55,"Duration":168067,"SoundDuration":168067,"Delta":48095691},{"NoteNumber":67,"Velocity":67,"Duration":172414,"SoundDuration":172414,"Delta":48263758},{"NoteNumber":55,"Velocity":56,"Duration":172414,"SoundDuration":172414,"Delta":48263758},{"NoteNumber":31,"Velocity":50,"Duration":172414,"SoundDuration":172414,"Delta":48263758},{"NoteNumber":43,"Velocity":60,"Duration":172414,"SoundDuration":172414,"Delta":48263758},{"NoteNumber":51,"Velocity":87,"Duration":358209,"SoundDuration":358209,"Delta":48436172},{"NoteNumber":27,"Velocity":59,"Duration":358209,"SoundDuration":358209,"Delta":48436172},{"NoteNumber":39,"Velocity":70,"Duration":358209,"SoundDuration":358209,"Delta":48436172},{"NoteNumber":50,"Velocity":87,"Duration":169971,"SoundDuration":169971,"Delta":48794381},{"NoteNumber":26,"Velocity":59,"Duration":339942,"SoundDuration":339942,"Delta":48794381},{"NoteNumber":38,"Velocity":70,"Duration":339942,"SoundDuration":339942,"Delta":48794381},{"NoteNumber":59,"Velocity":73,"Duration":509914,"SoundDuration":509914,"Delta":49134324},{"NoteNumber":71,"Velocity":87,"Duration":509914,"SoundDuration":509914,"Delta":49134324},{"NoteNumber":47,"Velocity":70,"Duration":509914,"SoundDuration":509914,"Delta":49134324},{"NoteNumber":35,"Velocity":59,"Duration":509914,"SoundDuration":509914,"Delta":49134324},{"NoteNumber":92,"Velocity":83,"Duration":169971,"SoundDuration":169971,"Delta":49474267},{"NoteNumber":80,"Velocity":70,"Duration":169971,"SoundDuration":169971,"Delta":49474267},{"NoteNumber":68,"Velocity":72,"Duration":169971,"SoundDuration":169971,"Delta":49474267},{"NoteNumber":56,"Velocity":72,"Duration":169971,"SoundDuration":169971,"Delta":49474267},{"NoteNumber":91,"Velocity":76,"Duration":84745,"SoundDuration":84745,"Delta":49814150},{"NoteNumber":103,"Velocity":72,"Duration":84745,"SoundDuration":84745,"Delta":49898896},{"NoteNumber":86,"Velocity":69,"Duration":84745,"SoundDuration":84745,"Delta":49983641},{"NoteNumber":98,"Velocity":65,"Duration":84745,"SoundDuration":84745,"Delta":50068387},{"NoteNumber":87,"Velocity":73,"Duration":84745,"SoundDuration":84745,"Delta":50153133},{"NoteNumber":99,"Velocity":69,"Duration":84526,"SoundDuration":84526,"Delta":50237879},{"NoteNumber":83,"Velocity":70,"Duration":84507,"SoundDuration":84507,"Delta":50322406},{"NoteNumber":95,"Velocity":66,"Duration":84507,"SoundDuration":84507,"Delta":50406913},{"NoteNumber":84,"Velocity":73,"Duration":84506,"SoundDuration":84506,"Delta":50491420},{"NoteNumber":96,"Velocity":69,"Duration":84507,"SoundDuration":84507,"Delta":50575927},{"NoteNumber":79,"Velocity":69,"Duration":84289,"SoundDuration":84289,"Delta":50660434},{"NoteNumber":91,"Velocity":65,"Duration":84269,"SoundDuration":84269,"Delta":50744723},{"NoteNumber":80,"Velocity":72,"Duration":84269,"SoundDuration":84269,"Delta":50828993},{"NoteNumber":92,"Velocity":69,"Duration":84269,"SoundDuration":84269,"Delta":50913263},{"NoteNumber":74,"Velocity":70,"Duration":84269,"SoundDuration":84269,"Delta":50997532},{"NoteNumber":86,"Velocity":65,"Duration":84053,"SoundDuration":84053,"Delta":51081802},{"NoteNumber":75,"Velocity":76,"Duration":83798,"SoundDuration":83798,"Delta":51165855},{"NoteNumber":87,"Velocity":72,"Duration":83798,"SoundDuration":83798,"Delta":51249654},{"NoteNumber":71,"Velocity":66,"Duration":83798,"SoundDuration":83798,"Delta":51333453},{"NoteNumber":83,"Velocity":65,"Duration":83799,"SoundDuration":83799,"Delta":51417252},{"NoteNumber":72,"Velocity":72,"Duration":83798,"SoundDuration":83798,"Delta":51501051},{"NoteNumber":84,"Velocity":69,"Duration":83798,"SoundDuration":83798,"Delta":51584850},{"NoteNumber":67,"Velocity":66,"Duration":83798,"SoundDuration":83798,"Delta":51668649},{"NoteNumber":79,"Velocity":65,"Duration":83798,"SoundDuration":83798,"Delta":51752448},{"NoteNumber":68,"Velocity":72,"Duration":83798,"SoundDuration":83798,"Delta":51836247},{"NoteNumber":80,"Velocity":68,"Duration":83798,"SoundDuration":83798,"Delta":51920046},{"NoteNumber":62,"Velocity":67,"Duration":83798,"SoundDuration":83798,"Delta":52003845},{"NoteNumber":74,"Velocity":63,"Duration":83799,"SoundDuration":83799,"Delta":52087644},{"NoteNumber":63,"Velocity":72,"Duration":83798,"SoundDuration":83798,"Delta":52171443},{"NoteNumber":75,"Velocity":69,"Duration":83798,"SoundDuration":83798,"Delta":52255242},{"NoteNumber":59,"Velocity":67,"Duration":83798,"SoundDuration":83798,"Delta":52339041},{"NoteNumber":71,"Velocity":66,"Duration":83798,"SoundDuration":83798,"Delta":52422840},{"NoteNumber":60,"Velocity":76,"Duration":83333,"SoundDuration":83333,"Delta":52506639},{"NoteNumber":72,"Velocity":72,"Duration":83333,"SoundDuration":83333,"Delta":52589972},{"NoteNumber":55,"Velocity":67,"Duration":83333,"SoundDuration":83333,"Delta":52673306},{"NoteNumber":67,"Velocity":63,"Duration":83333,"SoundDuration":83333,"Delta":52756639},{"NoteNumber":56,"Velocity":73,"Duration":83333,"SoundDuration":83333,"Delta":52839972},{"NoteNumber":68,"Velocity":69,"Duration":83179,"SoundDuration":83179,"Delta":52923305},{"NoteNumber":50,"Velocity":67,"Duration":83102,"SoundDuration":83102,"Delta":53006485},{"NoteNumber":62,"Velocity":66,"Duration":83102,"SoundDuration":83102,"Delta":53089587},{"NoteNumber":51,"Velocity":73,"Duration":83102,"SoundDuration":83102,"Delta":53172690},{"NoteNumber":63,"Velocity":69,"Duration":83102,"SoundDuration":83102,"Delta":53255792},{"NoteNumber":47,"Velocity":70,"Duration":83025,"SoundDuration":83025,"Delta":53338895},{"NoteNumber":59,"Velocity":66,"Duration":82872,"SoundDuration":82872,"Delta":53421921},{"NoteNumber":48,"Velocity":74,"Duration":82872,"SoundDuration":82872,"Delta":53504794},{"NoteNumber":60,"Velocity":75,"Duration":82872,"SoundDuration":82872,"Delta":53587667},{"NoteNumber":43,"Velocity":72,"Duration":82872,"SoundDuration":82872,"Delta":53670540},{"NoteNumber":55,"Velocity":69,"Duration":82873,"SoundDuration":82873,"Delta":53753413},{"NoteNumber":44,"Velocity":76,"Duration":82644,"SoundDuration":82644,"Delta":53836286},{"NoteNumber":56,"Velocity":78,"Duration":82644,"SoundDuration":82644,"Delta":53918931},{"NoteNumber":38,"Velocity":71,"Duration":82644,"SoundDuration":82644,"Delta":54001575},{"NoteNumber":50,"Velocity":71,"Duration":82644,"SoundDuration":82644,"Delta":54084220},{"NoteNumber":39,"Velocity":76,"Duration":82644,"SoundDuration":82644,"Delta":54166865},{"NoteNumber":51,"Velocity":81,"Duration":82644,"SoundDuration":82644,"Delta":54249510},{"NoteNumber":35,"Velocity":72,"Duration":82644,"SoundDuration":82644,"Delta":54332154},{"NoteNumber":47,"Velocity":74,"Duration":82644,"SoundDuration":82644,"Delta":54414799},{"NoteNumber":36,"Velocity":76,"Duration":82644,"SoundDuration":82644,"Delta":54497444},{"NoteNumber":48,"Velocity":82,"Duration":82644,"SoundDuration":82644,"Delta":54580089},{"NoteNumber":31,"Velocity":71,"Duration":82644,"SoundDuration":82644,"Delta":54662733},{"NoteNumber":43,"Velocity":77,"Duration":82644,"SoundDuration":82644,"Delta":54745378},{"NoteNumber":32,"Velocity":77,"Duration":82644,"SoundDuration":82644,"Delta":54828023},{"NoteNumber":44,"Velocity":82,"Duration":82644,"SoundDuration":82644,"Delta":54910668},{"NoteNumber":31,"Velocity":72,"Duration":82644,"SoundDuration":82644,"Delta":54993312},{"NoteNumber":43,"Velocity":77,"Duration":82874,"SoundDuration":82874,"Delta":55075957},{"NoteNumber":32,"Velocity":76,"Duration":83333,"SoundDuration":83333,"Delta":55158831},{"NoteNumber":44,"Velocity":82,"Duration":83488,"SoundDuration":83488,"Delta":55242165},{"NoteNumber":31,"Velocity":71,"Duration":83643,"SoundDuration":83643,"Delta":55325653},{"NoteNumber":43,"Velocity":76,"Duration":83799,"SoundDuration":83799,"Delta":55409296},{"NoteNumber":35,"Velocity":76,"Duration":83955,"SoundDuration":83955,"Delta":55493095},{"NoteNumber":47,"Velocity":82,"Duration":84112,"SoundDuration":84112,"Delta":55577050},{"NoteNumber":31,"Velocity":69,"Duration":84269,"SoundDuration":84269,"Delta":55661163},{"NoteNumber":43,"Velocity":79,"Duration":84507,"SoundDuration":84507,"Delta":55745432},{"NoteNumber":44,"Velocity":74,"Duration":84586,"SoundDuration":84586,"Delta":55829939},{"NoteNumber":32,"Velocity":63,"Duration":84586,"SoundDuration":84586,"Delta":55829939},{"NoteNumber":56,"Velocity":82,"Duration":84745,"SoundDuration":84745,"Delta":55914526},{"NoteNumber":31,"Velocity":60,"Duration":84985,"SoundDuration":84985,"Delta":55999272},{"NoteNumber":43,"Velocity":71,"Duration":84985,"SoundDuration":84985,"Delta":55999272},{"NoteNumber":55,"Velocity":76,"Duration":85146,"SoundDuration":85146,"Delta":56084257},{"NoteNumber":47,"Velocity":73,"Duration":85227,"SoundDuration":85227,"Delta":56169404},{"NoteNumber":35,"Velocity":62,"Duration":85227,"SoundDuration":85227,"Delta":56169404},{"NoteNumber":59,"Velocity":82,"Duration":85470,"SoundDuration":85470,"Delta":56254631},{"NoteNumber":31,"Velocity":60,"Duration":85632,"SoundDuration":85632,"Delta":56340101},{"NoteNumber":43,"Velocity":71,"Duration":85632,"SoundDuration":85632,"Delta":56340101},{"NoteNumber":55,"Velocity":79,"Duration":85796,"SoundDuration":85796,"Delta":56425734},{"NoteNumber":56,"Velocity":85,"Duration":176991,"SoundDuration":176991,"Delta":56511530},{"NoteNumber":44,"Velocity":76,"Duration":176991,"SoundDuration":176991,"Delta":56511530},{"NoteNumber":32,"Velocity":64,"Duration":176991,"SoundDuration":176991,"Delta":56511530},{"NoteNumber":56,"Velocity":84,"Duration":176991,"SoundDuration":176991,"Delta":56865512},{"NoteNumber":32,"Velocity":61,"Duration":176991,"SoundDuration":176991,"Delta":56865512},{"NoteNumber":44,"Velocity":72,"Duration":176991,"SoundDuration":176991,"Delta":56865512},{"NoteNumber":67,"Velocity":73,"Duration":176991,"SoundDuration":176991,"Delta":57219494},{"NoteNumber":79,"Velocity":86,"Duration":176991,"SoundDuration":176991,"Delta":57219494},{"NoteNumber":55,"Velocity":76,"Duration":176991,"SoundDuration":176991,"Delta":57219494},{"NoteNumber":43,"Velocity":64,"Duration":176991,"SoundDuration":176991,"Delta":57219494},{"NoteNumber":79,"Velocity":83,"Duration":176991,"SoundDuration":176991,"Delta":57573476},{"NoteNumber":67,"Velocity":70,"Duration":176991,"SoundDuration":176991,"Delta":57573476},{"NoteNumber":43,"Velocity":61,"Duration":176991,"SoundDuration":176991,"Delta":57573476},{"NoteNumber":55,"Velocity":72,"Duration":176991,"SoundDuration":176991,"Delta":57573476},{"NoteNumber":56,"Velocity":85,"Duration":176991,"SoundDuration":176991,"Delta":57927458},{"NoteNumber":44,"Velocity":76,"Duration":176991,"SoundDuration":176991,"Delta":57927458},{"NoteNumber":32,"Velocity":64,"Duration":176991,"SoundDuration":176991,"Delta":57927458},{"NoteNumber":56,"Velocity":84,"Duration":176991,"SoundDuration":176991,"Delta":58281440},{"NoteNumber":32,"Velocity":61,"Duration":176991,"SoundDuration":176991,"Delta":58281440},{"NoteNumber":44,"Velocity":72,"Duration":176991,"SoundDuration":176991,"Delta":58281440},{"NoteNumber":79,"Velocity":86,"Duration":176991,"SoundDuration":176991,"Delta":58635422},{"NoteNumber":67,"Velocity":73,"Duration":176991,"SoundDuration":176991,"Delta":58635422},{"NoteNumber":43,"Velocity":64,"Duration":176991,"SoundDuration":176991,"Delta":58635422},{"NoteNumber":55,"Velocity":76,"Duration":176991,"SoundDuration":176991,"Delta":58635422},{"NoteNumber":79,"Velocity":83,"Duration":176991,"SoundDuration":176991,"Delta":58989404},{"NoteNumber":67,"Velocity":70,"Duration":176991,"SoundDuration":176991,"Delta":58989404},{"NoteNumber":55,"Velocity":72,"Duration":176991,"SoundDuration":176991,"Delta":58989404},{"NoteNumber":43,"Velocity":61,"Duration":176991,"SoundDuration":176991,"Delta":58989404},{"NoteNumber":56,"Velocity":85,"Duration":707963,"SoundDuration":707963,"Delta":59343386},{"NoteNumber":44,"Velocity":76,"Duration":707963,"SoundDuration":707963,"Delta":59343386},{"NoteNumber":79,"Velocity":84,"Duration":707964,"SoundDuration":707964,"Delta":60051350},{"NoteNumber":67,"Velocity":71,"Duration":707964,"SoundDuration":707964,"Delta":60051350},{"NoteNumber":55,"Velocity":70,"Duration":707964,"SoundDuration":707964,"Delta":60051350},{"NoteNumber":56,"Velocity":85,"Duration":707963,"SoundDuration":707963,"Delta":60759314},{"NoteNumber":44,"Velocity":76,"Duration":707963,"SoundDuration":707963,"Delta":60759314},{"NoteNumber":79,"Velocity":83,"Duration":799999,"SoundDuration":799999,"Delta":61467278},{"NoteNumber":67,"Velocity":70,"Duration":799999,"SoundDuration":799999,"Delta":61467278},{"NoteNumber":55,"Velocity":71,"Duration":799999,"SoundDuration":799999,"Delta":61467278},{"NoteNumber":67,"Velocity":61,"Duration":402023,"SoundDuration":402023,"Delta":62267278},{"NoteNumber":67,"Velocity":54,"Duration":410625,"SoundDuration":410625,"Delta":62669302},{"NoteNumber":67,"Velocity":51,"Duration":419596,"SoundDuration":419596,"Delta":63079927},{"NoteNumber":67,"Velocity":47,"Duration":435579,"SoundDuration":435579,"Delta":63499524},{"NoteNumber":67,"Velocity":36,"Duration":117153,"SoundDuration":117153,"Delta":63935103},{"NoteNumber":64,"Velocity":31,"Duration":117467,"SoundDuration":117467,"Delta":64039335},{"NoteNumber":67,"Velocity":36,"Duration":116175,"SoundDuration":116175,"Delta":64143880},{"NoteNumber":64,"Velocity":31,"Duration":117831,"SoundDuration":117831,"Delta":64246842},{"NoteNumber":67,"Velocity":36,"Duration":116963,"SoundDuration":116963,"Delta":64351822},{"NoteNumber":64,"Velocity":31,"Duration":118562,"SoundDuration":118562,"Delta":64455644},{"NoteNumber":67,"Velocity":36,"Duration":116693,"SoundDuration":116693,"Delta":64560916},{"NoteNumber":64,"Velocity":31,"Duration":114836,"SoundDuration":114836,"Delta":64664898},{"NoteNumber":67,"Velocity":36,"Duration":117391,"SoundDuration":117391,"Delta":64766883},{"NoteNumber":64,"Velocity":32,"Duration":117382,"SoundDuration":117382,"Delta":64871133},{"NoteNumber":67,"Velocity":36,"Duration":116663,"SoundDuration":116663,"Delta":64975663},{"NoteNumber":64,"Velocity":31,"Duration":115970,"SoundDuration":115970,"Delta":65079332},{"NoteNumber":67,"Velocity":36,"Duration":118632,"SoundDuration":118632,"Delta":65182162},{"NoteNumber":64,"Velocity":31,"Duration":117833,"SoundDuration":117833,"Delta":65287581},{"NoteNumber":67,"Velocity":36,"Duration":116536,"SoundDuration":116536,"Delta":65392563},{"NoteNumber":64,"Velocity":31,"Duration":117545,"SoundDuration":117545,"Delta":65495958},{"NoteNumber":67,"Velocity":36,"Duration":115538,"SoundDuration":115538,"Delta":65600651},{"NoteNumber":64,"Velocity":30,"Duration":117440,"SoundDuration":117440,"Delta":65703195},{"NoteNumber":67,"Velocity":36,"Duration":116661,"SoundDuration":116661,"Delta":65807571},{"NoteNumber":64,"Velocity":30,"Duration":115608,"SoundDuration":115608,"Delta":65911380},{"NoteNumber":67,"Velocity":36,"Duration":117606,"SoundDuration":117606,"Delta":66013924},{"NoteNumber":64,"Velocity":32,"Duration":115679,"SoundDuration":115679,"Delta":66118608},{"NoteNumber":67,"Velocity":36,"Duration":117825,"SoundDuration":117825,"Delta":66221293},{"NoteNumber":64,"Velocity":31,"Duration":104668,"SoundDuration":104668,"Delta":66325977},{"NoteNumber":67,"Velocity":37,"Duration":165431,"SoundDuration":165431,"Delta":66430646},{"NoteNumber":58,"Velocity":48,"Duration":340616,"SoundDuration":340616,"Delta":66430646},{"NoteNumber":46,"Velocity":40,"Duration":340616,"SoundDuration":340616,"Delta":66430646},{"NoteNumber":64,"Velocity":32,"Duration":166089,"SoundDuration":166089,"Delta":66543423},{"NoteNumber":67,"Velocity":36,"Duration":167462,"SoundDuration":167462,"Delta":66657060},{"NoteNumber":64,"Velocity":32,"Duration":168897,"SoundDuration":168897,"Delta":66771262},{"NoteNumber":67,"Velocity":37,"Duration":167539,"SoundDuration":167539,"Delta":66886908},{"NoteNumber":64,"Velocity":31,"Duration":127070,"SoundDuration":127070,"Delta":67001598},{"NoteNumber":67,"Velocity":36,"Duration":116394,"SoundDuration":116394,"Delta":67115527},{"NoteNumber":40,"Velocity":35,"Duration":1256842,"SoundDuration":1256842,"Delta":67115527},{"NoteNumber":52,"Velocity":42,"Duration":1256842,"SoundDuration":1256842,"Delta":67115527},{"NoteNumber":64,"Velocity":31,"Duration":117669,"SoundDuration":117669,"Delta":67218927},{"NoteNumber":67,"Velocity":36,"Duration":118414,"SoundDuration":118414,"Delta":67323602},{"NoteNumber":64,"Velocity":32,"Duration":116968,"SoundDuration":116968,"Delta":67428727},{"NoteNumber":67,"Velocity":36,"Duration":117040,"SoundDuration":117040,"Delta":67532843},{"NoteNumber":64,"Velocity":31,"Duration":117841,"SoundDuration":117841,"Delta":67636961},{"NoteNumber":67,"Velocity":36,"Duration":117559,"SoundDuration":117559,"Delta":67741512},{"NoteNumber":64,"Velocity":31,"Duration":119030,"SoundDuration":119030,"Delta":67846219},{"NoteNumber":67,"Velocity":36,"Duration":118719,"SoundDuration":118719,"Delta":67951810},{"NoteNumber":64,"Velocity":31,"Duration":118414,"SoundDuration":118414,"Delta":68057535},{"NoteNumber":67,"Velocity":36,"Duration":116970,"SoundDuration":116970,"Delta":68162659},{"NoteNumber":64,"Velocity":30,"Duration":118955,"SoundDuration":118955,"Delta":68266778},{"NoteNumber":67,"Velocity":36,"Duration":118050,"SoundDuration":118050,"Delta":68372370},{"NoteNumber":64,"Velocity":30,"Duration":117102,"SoundDuration":117102,"Delta":68477498},{"NoteNumber":67,"Velocity":36,"Duration":118125,"SoundDuration":118125,"Delta":68581459},{"NoteNumber":64,"Velocity":32,"Duration":116448,"SoundDuration":116448,"Delta":68686589},{"NoteNumber":67,"Velocity":36,"Duration":117830,"SoundDuration":117830,"Delta":68790115},{"NoteNumber":64,"Velocity":31,"Duration":106376,"SoundDuration":106376,"Delta":68894804},{"NoteNumber":67,"Velocity":39,"Duration":130228,"SoundDuration":130228,"Delta":69001181},{"NoteNumber":58,"Velocity":47,"Duration":174088,"SoundDuration":174088,"Delta":69001181},{"NoteNumber":46,"Velocity":40,"Duration":174088,"SoundDuration":174088,"Delta":69001181},{"NoteNumber":64,"Velocity":33,"Duration":131666,"SoundDuration":131666,"Delta":69116790},{"NoteNumber":67,"Velocity":38,"Duration":131841,"SoundDuration":131841,"Delta":69233751},{"NoteNumber":64,"Velocity":33,"Duration":131877,"SoundDuration":131877,"Delta":69350712},{"NoteNumber":46,"Velocity":38,"Duration":176238,"SoundDuration":176238,"Delta":69350712},{"NoteNumber":58,"Velocity":45,"Duration":176238,"SoundDuration":176238,"Delta":69350712},{"NoteNumber":67,"Velocity":38,"Duration":131796,"SoundDuration":131796,"Delta":69467883},{"NoteNumber":64,"Velocity":34,"Duration":129786,"SoundDuration":129786,"Delta":69585060},{"NoteNumber":67,"Velocity":36,"Duration":116597,"SoundDuration":116597,"Delta":69701782},{"NoteNumber":52,"Velocity":40,"Duration":1245657,"SoundDuration":1245657,"Delta":69701782},{"NoteNumber":40,"Velocity":34,"Duration":1245657,"SoundDuration":1245657,"Delta":69701782},{"NoteNumber":64,"Velocity":31,"Duration":117037,"SoundDuration":117037,"Delta":69805595},{"NoteNumber":67,"Velocity":36,"Duration":118347,"SoundDuration":118347,"Delta":69909419},{"NoteNumber":64,"Velocity":32,"Duration":115326,"SoundDuration":115326,"Delta":70014983},{"NoteNumber":67,"Velocity":36,"Duration":116454,"SoundDuration":116454,"Delta":70117245},{"NoteNumber":64,"Velocity":31,"Duration":116835,"SoundDuration":116835,"Delta":70220915},{"NoteNumber":67,"Velocity":36,"Duration":116202,"SoundDuration":116202,"Delta":70324462},{"NoteNumber":64,"Velocity":31,"Duration":117248,"SoundDuration":117248,"Delta":70427880},{"NoteNumber":67,"Velocity":36,"Duration":116179,"SoundDuration":116179,"Delta":70531988},{"NoteNumber":64,"Velocity":31,"Duration":116956,"SoundDuration":116956,"Delta":70635383},{"NoteNumber":67,"Velocity":36,"Duration":116973,"SoundDuration":116973,"Delta":70739198},{"NoteNumber":64,"Velocity":30,"Duration":117121,"SoundDuration":117121,"Delta":70843460},{"NoteNumber":67,"Velocity":36,"Duration":116603,"SoundDuration":116603,"Delta":70947440},{"NoteNumber":64,"Velocity":30,"Duration":117897,"SoundDuration":117897,"Delta":71051121},{"NoteNumber":67,"Velocity":36,"Duration":116264,"SoundDuration":116264,"Delta":71155805},{"NoteNumber":64,"Velocity":32,"Duration":116529,"SoundDuration":116529,"Delta":71259357},{"NoteNumber":67,"Velocity":36,"Duration":118414,"SoundDuration":118414,"Delta":71362746},{"NoteNumber":64,"Velocity":31,"Duration":105162,"SoundDuration":105162,"Delta":71468165},{"NoteNumber":67,"Velocity":36,"Duration":122224,"SoundDuration":122224,"Delta":71573327},{"NoteNumber":46,"Velocity":41,"Duration":162547,"SoundDuration":162547,"Delta":71573327},{"NoteNumber":58,"Velocity":49,"Duration":162547,"SoundDuration":162547,"Delta":71573327},{"NoteNumber":64,"Velocity":31,"Duration":120971,"SoundDuration":120971,"Delta":71681956},{"NoteNumber":67,"Velocity":36,"Duration":121674,"SoundDuration":121674,"Delta":71789332},{"NoteNumber":64,"Velocity":31,"Duration":117829,"SoundDuration":117829,"Delta":71897793},{"NoteNumber":50,"Velocity":45,"Duration":157251,"SoundDuration":157251,"Delta":71897793},{"NoteNumber":62,"Velocity":45,"Duration":157251,"SoundDuration":157251,"Delta":71897793},{"NoteNumber":67,"Velocity":36,"Duration":119233,"SoundDuration":119233,"Delta":72002628},{"NoteNumber":64,"Velocity":31,"Duration":118276,"SoundDuration":118276,"Delta":72108498},{"NoteNumber":67,"Velocity":36,"Duration":116246,"SoundDuration":116246,"Delta":72213922},{"NoteNumber":60,"Velocity":45,"Duration":155670,"SoundDuration":155670,"Delta":72213922},{"NoteNumber":48,"Velocity":38,"Duration":155670,"SoundDuration":155670,"Delta":72213922},{"NoteNumber":64,"Velocity":31,"Duration":117606,"SoundDuration":117606,"Delta":72317027},{"NoteNumber":67,"Velocity":36,"Duration":118719,"SoundDuration":118719,"Delta":72421711},{"NoteNumber":64,"Velocity":32,"Duration":118491,"SoundDuration":118491,"Delta":72527141},{"NoteNumber":62,"Velocity":45,"Duration":157696,"SoundDuration":157696,"Delta":72527141},{"NoteNumber":50,"Velocity":45,"Duration":157696,"SoundDuration":157696,"Delta":72527141},{"NoteNumber":67,"Velocity":36,"Duration":118572,"SoundDuration":118572,"Delta":72632710},{"NoteNumber":64,"Velocity":31,"Duration":119614,"SoundDuration":119614,"Delta":72737843},{"NoteNumber":67,"Velocity":36,"Duration":117029,"SoundDuration":117029,"Delta":72844462},{"NoteNumber":46,"Velocity":39,"Duration":629919,"SoundDuration":629919,"Delta":72844462},{"NoteNumber":58,"Velocity":46,"Duration":629919,"SoundDuration":629919,"Delta":72844462},{"NoteNumber":64,"Velocity":31,"Duration":119076,"SoundDuration":119076,"Delta":72948278},{"NoteNumber":67,"Velocity":36,"Duration":116731,"SoundDuration":116731,"Delta":73054290},{"NoteNumber":64,"Velocity":31,"Duration":118719,"SoundDuration":118719,"Delta":73158099},{"NoteNumber":67,"Velocity":36,"Duration":119158,"SoundDuration":119158,"Delta":73263529},{"NoteNumber":64,"Velocity":30,"Duration":104690,"SoundDuration":104690,"Delta":73369692},{"NoteNumber":67,"Velocity":38,"Duration":155394,"SoundDuration":155394,"Delta":73474382},{"NoteNumber":48,"Velocity":39,"Duration":159314,"SoundDuration":159314,"Delta":73474382},{"NoteNumber":60,"Velocity":46,"Duration":159314,"SoundDuration":159314,"Delta":73474382},{"NoteNumber":64,"Velocity":35,"Duration":153436,"SoundDuration":153436,"Delta":73581141},{"NoteNumber":67,"Velocity":38,"Duration":157581,"SoundDuration":157581,"Delta":73685954},{"NoteNumber":64,"Velocity":32,"Duration":162827,"SoundDuration":162827,"Delta":73792638},{"NoteNumber":58,"Velocity":44,"Duration":167027,"SoundDuration":167027,"Delta":73792638},{"NoteNumber":46,"Velocity":36,"Duration":167027,"SoundDuration":167027,"Delta":73792638},{"NoteNumber":67,"Velocity":36,"Duration":162847,"SoundDuration":162847,"Delta":73903498},{"NoteNumber":64,"Velocity":31,"Duration":165729,"SoundDuration":165729,"Delta":74014848},{"NoteNumber":67,"Velocity":40,"Duration":121511,"SoundDuration":121511,"Delta":74126194},{"NoteNumber":50,"Velocity":41,"Duration":649248,"SoundDuration":649248,"Delta":74126194},{"NoteNumber":62,"Velocity":49,"Duration":649248,"SoundDuration":649248,"Delta":74126194},{"NoteNumber":64,"Velocity":36,"Duration":121594,"SoundDuration":121594,"Delta":74234342},{"NoteNumber":67,"Velocity":39,"Duration":121930,"SoundDuration":121930,"Delta":74342180},{"NoteNumber":64,"Velocity":34,"Duration":121215,"SoundDuration":121215,"Delta":74450822},{"NoteNumber":67,"Velocity":39,"Duration":122442,"SoundDuration":122442,"Delta":74558364},{"NoteNumber":64,"Velocity":33,"Duration":121594,"SoundDuration":121594,"Delta":74667287},{"NoteNumber":67,"Velocity":38,"Duration":156082,"SoundDuration":156082,"Delta":74775442},{"NoteNumber":60,"Velocity":45,"Duration":160068,"SoundDuration":160068,"Delta":74775442},{"NoteNumber":48,"Velocity":37,"Duration":160068,"SoundDuration":160068,"Delta":74775442},{"NoteNumber":64,"Velocity":32,"Duration":156254,"SoundDuration":156254,"Delta":74882505},{"NoteNumber":67,"Velocity":36,"Duration":156644,"SoundDuration":156644,"Delta":74989588},{"NoteNumber":64,"Velocity":32,"Duration":157036,"SoundDuration":157036,"Delta":75096212},{"NoteNumber":58,"Velocity":43,"Duration":161000,"SoundDuration":161000,"Delta":75096212},{"NoteNumber":46,"Velocity":36,"Duration":161000,"SoundDuration":161000,"Delta":75096212},{"NoteNumber":67,"Velocity":36,"Duration":155893,"SoundDuration":155893,"Delta":75204207},{"NoteNumber":64,"Velocity":31,"Duration":141677,"SoundDuration":141677,"Delta":75310374},{"NoteNumber":66,"Velocity":37,"Duration":160589,"SoundDuration":160589,"Delta":75418847},{"NoteNumber":47,"Velocity":37,"Duration":330457,"SoundDuration":330457,"Delta":75418847},{"NoteNumber":59,"Velocity":45,"Duration":330457,"SoundDuration":330457,"Delta":75418847},{"NoteNumber":63,"Velocity":32,"Duration":161891,"SoundDuration":161891,"Delta":75528725},{"NoteNumber":66,"Velocity":36,"Duration":161375,"SoundDuration":161375,"Delta":75639260},{"NoteNumber":63,"Velocity":32,"Duration":160827,"SoundDuration":160827,"Delta":75749305},{"NoteNumber":66,"Velocity":37,"Duration":160303,"SoundDuration":160303,"Delta":75859828},{"NoteNumber":63,"Velocity":31,"Duration":121882,"SoundDuration":121882,"Delta":75969235},{"NoteNumber":66,"Velocity":34,"Duration":117015,"SoundDuration":117015,"Delta":76078053},{"NoteNumber":40,"Velocity":35,"Duration":1257573,"SoundDuration":1257573,"Delta":76078053},{"NoteNumber":52,"Velocity":42,"Duration":1257573,"SoundDuration":1257573,"Delta":76078053},{"NoteNumber":63,"Velocity":29,"Duration":117315,"SoundDuration":117315,"Delta":76182146},{"NoteNumber":66,"Velocity":34,"Duration":117751,"SoundDuration":117751,"Delta":76286248},{"NoteNumber":63,"Velocity":30,"Duration":117834,"SoundDuration":117834,"Delta":76391076},{"NoteNumber":66,"Velocity":33,"Duration":118717,"SoundDuration":118717,"Delta":76495621},{"NoteNumber":63,"Velocity":28,"Duration":117102,"SoundDuration":117102,"Delta":76601486},{"NoteNumber":66,"Velocity":33,"Duration":118777,"SoundDuration":118777,"Delta":76705447},{"NoteNumber":63,"Velocity":28,"Duration":117677,"SoundDuration":117677,"Delta":76811011},{"NoteNumber":66,"Velocity":33,"Duration":119308,"SoundDuration":119308,"Delta":76915547},{"NoteNumber":63,"Velocity":28,"Duration":117465,"SoundDuration":117465,"Delta":77021566},{"NoteNumber":66,"Velocity":33,"Duration":118195,"SoundDuration":118195,"Delta":77126109},{"NoteNumber":63,"Velocity":27,"Duration":117458,"SoundDuration":117458,"Delta":77231091},{"NoteNumber":66,"Velocity":32,"Duration":117328,"SoundDuration":117328,"Delta":77335627},{"NoteNumber":63,"Velocity":27,"Duration":118703,"SoundDuration":118703,"Delta":77439741},{"NoteNumber":66,"Velocity":32,"Duration":115891,"SoundDuration":115891,"Delta":77545450},{"NoteNumber":63,"Velocity":28,"Duration":117993,"SoundDuration":117993,"Delta":77648557},{"NoteNumber":66,"Velocity":32,"Duration":119152,"SoundDuration":119152,"Delta":77753261},{"NoteNumber":63,"Velocity":27,"Duration":105130,"SoundDuration":105130,"Delta":77859273},{"NoteNumber":66,"Velocity":39,"Duration":162617,"SoundDuration":162617,"Delta":77964403},{"NoteNumber":59,"Velocity":45,"Duration":166868,"SoundDuration":166868,"Delta":77964403},{"NoteNumber":47,"Velocity":37,"Duration":166868,"SoundDuration":166868,"Delta":77964403},{"NoteNumber":63,"Velocity":33,"Duration":164702,"SoundDuration":164702,"Delta":78074767},{"NoteNumber":66,"Velocity":38,"Duration":161561,"SoundDuration":161561,"Delta":78187948},{"NoteNumber":63,"Velocity":33,"Duration":162569,"SoundDuration":162569,"Delta":78298643},{"NoteNumber":47,"Velocity":36,"Duration":166696,"SoundDuration":166696,"Delta":78298643},{"NoteNumber":59,"Velocity":43,"Duration":166696,"SoundDuration":166696,"Delta":78298643},{"NoteNumber":66,"Velocity":38,"Duration":161869,"SoundDuration":161869,"Delta":78409991},{"NoteNumber":63,"Velocity":34,"Duration":124341,"SoundDuration":124341,"Delta":78520363},{"NoteNumber":66,"Velocity":34,"Duration":116102,"SoundDuration":116102,"Delta":78631710},{"NoteNumber":52,"Velocity":40,"Duration":1248698,"SoundDuration":1248698,"Delta":78631710},{"NoteNumber":40,"Velocity":34,"Duration":1248698,"SoundDuration":1248698,"Delta":78631710},{"NoteNumber":63,"Velocity":29,"Duration":118186,"SoundDuration":118186,"Delta":78734817},{"NoteNumber":66,"Velocity":34,"Duration":117680,"SoundDuration":117680,"Delta":78839790},{"NoteNumber":63,"Velocity":30,"Duration":115894,"SoundDuration":115894,"Delta":78944618},{"NoteNumber":66,"Velocity":33,"Duration":118708,"SoundDuration":118708,"Delta":79047448},{"NoteNumber":63,"Velocity":28,"Duration":116385,"SoundDuration":116385,"Delta":79153161},{"NoteNumber":66,"Velocity":33,"Duration":118187,"SoundDuration":118187,"Delta":79256405},{"NoteNumber":63,"Velocity":28,"Duration":115253,"SoundDuration":115253,"Delta":79361671},{"NoteNumber":66,"Velocity":33,"Duration":116036,"SoundDuration":116036,"Delta":79464212},{"NoteNumber":63,"Velocity":28,"Duration":118055,"SoundDuration":118055,"Delta":79567036},{"NoteNumber":66,"Velocity":33,"Duration":116404,"SoundDuration":116404,"Delta":79672307},{"NoteNumber":63,"Velocity":27,"Duration":117690,"SoundDuration":117690,"Delta":79775570},{"NoteNumber":66,"Velocity":32,"Duration":115329,"SoundDuration":115329,"Delta":79880408},{"NoteNumber":63,"Velocity":27,"Duration":117234,"SoundDuration":117234,"Delta":79982815},{"NoteNumber":66,"Velocity":32,"Duration":117536,"SoundDuration":117536,"Delta":80086908},{"NoteNumber":63,"Velocity":28,"Duration":117102,"SoundDuration":117102,"Delta":80191592},{"NoteNumber":66,"Velocity":32,"Duration":117679,"SoundDuration":117679,"Delta":80295553},{"NoteNumber":63,"Velocity":27,"Duration":103960,"SoundDuration":103960,"Delta":80400237},{"NoteNumber":65,"Velocity":36,"Duration":158917,"SoundDuration":158917,"Delta":80504198},{"NoteNumber":44,"Velocity":37,"Duration":162995,"SoundDuration":162995,"Delta":80504198},{"NoteNumber":56,"Velocity":45,"Duration":162995,"SoundDuration":162995,"Delta":80504198},{"NoteNumber":62,"Velocity":31,"Duration":158783,"SoundDuration":158783,"Delta":80612656},{"NoteNumber":65,"Velocity":36,"Duration":156043,"SoundDuration":156043,"Delta":80721264},{"NoteNumber":62,"Velocity":31,"Duration":152559,"SoundDuration":152559,"Delta":80828816},{"NoteNumber":48,"Velocity":35,"Duration":156523,"SoundDuration":156523,"Delta":80828816},{"NoteNumber":60,"Velocity":42,"Duration":156523,"SoundDuration":156523,"Delta":80828816},{"NoteNumber":65,"Velocity":36,"Duration":153206,"SoundDuration":153206,"Delta":80932922},{"NoteNumber":62,"Velocity":31,"Duration":152693,"SoundDuration":152693,"Delta":81038046},{"NoteNumber":65,"Velocity":36,"Duration":153116,"SoundDuration":153116,"Delta":81141721},{"NoteNumber":59,"Velocity":45,"Duration":156972,"SoundDuration":156972,"Delta":81141721},{"NoteNumber":47,"Velocity":38,"Duration":156972,"SoundDuration":156972,"Delta":81141721},{"NoteNumber":62,"Velocity":31,"Duration":153265,"SoundDuration":153265,"Delta":81247144},{"NoteNumber":65,"Velocity":36,"Duration":152870,"SoundDuration":152870,"Delta":81350966},{"NoteNumber":62,"Velocity":32,"Duration":151713,"SoundDuration":151713,"Delta":81456399},{"NoteNumber":48,"Velocity":37,"Duration":155677,"SoundDuration":155677,"Delta":81456399},{"NoteNumber":60,"Velocity":45,"Duration":155677,"SoundDuration":155677,"Delta":81456399},{"NoteNumber":65,"Velocity":36,"Duration":154200,"SoundDuration":154200,"Delta":81559368},{"NoteNumber":62,"Velocity":31,"Duration":116822,"SoundDuration":116822,"Delta":81664931},{"NoteNumber":65,"Velocity":36,"Duration":118484,"SoundDuration":118484,"Delta":81768759},{"NoteNumber":56,"Velocity":46,"Duration":628736,"SoundDuration":628736,"Delta":81768759},{"NoteNumber":44,"Velocity":39,"Duration":628736,"SoundDuration":628736,"Delta":81768759},{"NoteNumber":62,"Velocity":31,"Duration":118042,"SoundDuration":118042,"Delta":81874030},{"NoteNumber":65,"Velocity":36,"Duration":118339,"SoundDuration":118339,"Delta":81978859},{"NoteNumber":62,"Velocity":31,"Duration":115957,"SoundDuration":115957,"Delta":82084276},{"NoteNumber":65,"Velocity":36,"Duration":118268,"SoundDuration":118268,"Delta":82187238},{"NoteNumber":62,"Velocity":30,"Duration":105130,"SoundDuration":105130,"Delta":82292365},{"NoteNumber":65,"Velocity":38,"Duration":147627,"SoundDuration":147627,"Delta":82397495},{"NoteNumber":57,"Velocity":46,"Duration":151483,"SoundDuration":151483,"Delta":82397495},{"NoteNumber":45,"Velocity":39,"Duration":151483,"SoundDuration":151483,"Delta":82397495},{"NoteNumber":62,"Velocity":35,"Duration":149436,"SoundDuration":149436,"Delta":82497850},{"NoteNumber":65,"Velocity":38,"Duration":152157,"SoundDuration":152157,"Delta":82600251},{"NoteNumber":62,"Velocity":32,"Duration":160731,"SoundDuration":160731,"Delta":82701949},{"NoteNumber":44,"Velocity":36,"Duration":164906,"SoundDuration":164906,"Delta":82701949},{"NoteNumber":56,"Velocity":43,"Duration":164906,"SoundDuration":164906,"Delta":82701949},{"NoteNumber":65,"Velocity":36,"Duration":161585,"SoundDuration":161585,"Delta":82811349},{"NoteNumber":62,"Velocity":31,"Duration":123566,"SoundDuration":123566,"Delta":82922038},{"NoteNumber":65,"Velocity":40,"Duration":120662,"SoundDuration":120662,"Delta":83032085},{"NoteNumber":60,"Velocity":47,"Duration":648457,"SoundDuration":648457,"Delta":83032085},{"NoteNumber":48,"Velocity":40,"Duration":648457,"SoundDuration":648457,"Delta":83032085},{"NoteNumber":62,"Velocity":36,"Duration":121740,"SoundDuration":121740,"Delta":83139308},{"NoteNumber":65,"Velocity":39,"Duration":121279,"SoundDuration":121279,"Delta":83247609},{"NoteNumber":62,"Velocity":34,"Duration":123171,"SoundDuration":123171,"Delta":83355132},{"NoteNumber":65,"Velocity":39,"Duration":121042,"SoundDuration":121042,"Delta":83464865},{"NoteNumber":62,"Velocity":33,"Duration":108154,"SoundDuration":108154,"Delta":83572388},{"NoteNumber":65,"Velocity":38,"Duration":156233,"SoundDuration":156233,"Delta":83680543},{"NoteNumber":47,"Velocity":37,"Duration":160220,"SoundDuration":160220,"Delta":83680543},{"NoteNumber":59,"Velocity":45,"Duration":160220,"SoundDuration":160220,"Delta":83680543},{"NoteNumber":62,"Velocity":32,"Duration":156116,"SoundDuration":156116,"Delta":83787606},{"NoteNumber":65,"Velocity":36,"Duration":155441,"SoundDuration":155441,"Delta":83894681},{"NoteNumber":62,"Velocity":32,"Duration":157892,"SoundDuration":157892,"Delta":84000396},{"NoteNumber":56,"Velocity":43,"Duration":161901,"SoundDuration":161901,"Delta":84000396},{"NoteNumber":44,"Velocity":36,"Duration":161901,"SoundDuration":161901,"Delta":84000396},{"NoteNumber":65,"Velocity":36,"Duration":155501,"SoundDuration":155501,"Delta":84108692},{"NoteNumber":62,"Velocity":31,"Duration":120548,"SoundDuration":120548,"Delta":84215303},{"NoteNumber":64,"Velocity":37,"Duration":123146,"SoundDuration":123146,"Delta":84322096},{"NoteNumber":45,"Velocity":37,"Duration":328701,"SoundDuration":328701,"Delta":84322096},{"NoteNumber":57,"Velocity":45,"Duration":328701,"SoundDuration":328701,"Delta":84322096},{"NoteNumber":61,"Velocity":32,"Duration":123808,"SoundDuration":123808,"Delta":84431647},{"NoteNumber":64,"Velocity":36,"Duration":122779,"SoundDuration":122779,"Delta":84541537},{"NoteNumber":61,"Velocity":32,"Duration":122849,"SoundDuration":122849,"Delta":84650797},{"NoteNumber":64,"Velocity":37,"Duration":124690,"SoundDuration":124690,"Delta":84759891},{"NoteNumber":61,"Velocity":31,"Duration":110680,"SoundDuration":110680,"Delta":84870746},{"NoteNumber":63,"Velocity":36,"Duration":116732,"SoundDuration":116732,"Delta":84981427},{"NoteNumber":52,"Velocity":42,"Duration":313179,"SoundDuration":313179,"Delta":84981427},{"NoteNumber":40,"Velocity":35,"Duration":313179,"SoundDuration":313179,"Delta":84981427},{"NoteNumber":59,"Velocity":31,"Duration":118551,"SoundDuration":118551,"Delta":85085095},{"NoteNumber":63,"Velocity":36,"Duration":117165,"SoundDuration":117165,"Delta":85190505},{"NoteNumber":59,"Velocity":32,"Duration":118777,"SoundDuration":118777,"Delta":85294607},{"NoteNumber":63,"Velocity":36,"Duration":117671,"SoundDuration":117671,"Delta":85400320},{"NoteNumber":59,"Velocity":31,"Duration":105130,"SoundDuration":105130,"Delta":85504850},{"NoteNumber":81,"Velocity":54,"Duration":642420,"SoundDuration":642420,"Delta":85609981},{"NoteNumber":69,"Velocity":49,"Duration":642420,"SoundDuration":642420,"Delta":85609981},{"NoteNumber":62,"Velocity":40,"Duration":120426,"SoundDuration":120426,"Delta":85609981},{"NoteNumber":58,"Velocity":32,"Duration":121664,"SoundDuration":121664,"Delta":85717044},{"NoteNumber":62,"Velocity":38,"Duration":119678,"SoundDuration":119678,"Delta":85825346},{"NoteNumber":58,"Velocity":31,"Duration":120896,"SoundDuration":120896,"Delta":85931505},{"NoteNumber":62,"Velocity":37,"Duration":119670,"SoundDuration":119670,"Delta":86039188},{"NoteNumber":58,"Velocity":32,"Duration":106906,"SoundDuration":106906,"Delta":86145495},{"NoteNumber":76,"Velocity":53,"Duration":311305,"SoundDuration":311305,"Delta":86252401},{"NoteNumber":88,"Velocity":57,"Duration":311305,"SoundDuration":311305,"Delta":86252401},{"NoteNumber":60,"Velocity":36,"Duration":116735,"SoundDuration":116735,"Delta":86252401},{"NoteNumber":57,"Velocity":30,"Duration":116747,"SoundDuration":116747,"Delta":86356353},{"NoteNumber":60,"Velocity":36,"Duration":116592,"SoundDuration":116592,"Delta":86460037},{"NoteNumber":57,"Velocity":31,"Duration":117024,"SoundDuration":117024,"Delta":86563707},{"NoteNumber":60,"Velocity":36,"Duration":117018,"SoundDuration":117018,"Delta":86667808},{"NoteNumber":57,"Velocity":31,"Duration":118110,"SoundDuration":118110,"Delta":86771763},{"NoteNumber":59,"Velocity":37,"Duration":124870,"SoundDuration":124870,"Delta":86876278},{"NoteNumber":45,"Velocity":49,"Duration":330837,"SoundDuration":330837,"Delta":86876278},{"NoteNumber":56,"Velocity":32,"Duration":123570,"SoundDuration":123570,"Delta":86987147},{"NoteNumber":59,"Velocity":36,"Duration":123998,"SoundDuration":123998,"Delta":87097199},{"NoteNumber":56,"Velocity":32,"Duration":124310,"SoundDuration":124310,"Delta":87207115},{"NoteNumber":59,"Velocity":37,"Duration":122701,"SoundDuration":122701,"Delta":87317986},{"NoteNumber":56,"Velocity":31,"Duration":110047,"SoundDuration":110047,"Delta":87426932},{"NoteNumber":58,"Velocity":36,"Duration":116453,"SoundDuration":116453,"Delta":87536979},{"NoteNumber":40,"Velocity":45,"Duration":310872,"SoundDuration":310872,"Delta":87536979},{"NoteNumber":55,"Velocity":31,"Duration":117579,"SoundDuration":117579,"Delta":87640368},{"NoteNumber":58,"Velocity":36,"Duration":116181,"SoundDuration":116181,"Delta":87744883},{"NoteNumber":55,"Velocity":32,"Duration":119010,"SoundDuration":119010,"Delta":87847851},{"NoteNumber":58,"Velocity":36,"Duration":117979,"SoundDuration":117979,"Delta":87953866},{"NoteNumber":55,"Velocity":31,"Duration":105130,"SoundDuration":105130,"Delta":88058704},{"NoteNumber":69,"Velocity":49,"Duration":648918,"SoundDuration":648918,"Delta":88163834},{"NoteNumber":81,"Velocity":54,"Duration":648918,"SoundDuration":648918,"Delta":88163834},{"NoteNumber":57,"Velocity":40,"Duration":121431,"SoundDuration":121431,"Delta":88163834},{"NoteNumber":53,"Velocity":32,"Duration":120750,"SoundDuration":120750,"Delta":88271670},{"NoteNumber":57,"Velocity":38,"Duration":121762,"SoundDuration":121762,"Delta":88379207},{"NoteNumber":53,"Velocity":31,"Duration":121764,"SoundDuration":121764,"Delta":88487051},{"NoteNumber":57,"Velocity":37,"Duration":122362,"SoundDuration":122362,"Delta":88595219},{"NoteNumber":53,"Velocity":32,"Duration":108766,"SoundDuration":108766,"Delta":88703986},{"NoteNumber":88,"Velocity":57,"Duration":311051,"SoundDuration":311051,"Delta":88812753},{"NoteNumber":76,"Velocity":53,"Duration":311051,"SoundDuration":311051,"Delta":88812753},{"NoteNumber":56,"Velocity":36,"Duration":115892,"SoundDuration":115892,"Delta":88812753},{"NoteNumber":52,"Velocity":30,"Duration":116383,"SoundDuration":116383,"Delta":88915862},{"NoteNumber":56,"Velocity":36,"Duration":117624,"SoundDuration":117624,"Delta":89019393},{"NoteNumber":52,"Velocity":31,"Duration":116830,"SoundDuration":116830,"Delta":89123804},{"NoteNumber":56,"Velocity":36,"Duration":117461,"SoundDuration":117461,"Delta":89227493},{"NoteNumber":52,"Velocity":31,"Duration":118767,"SoundDuration":118767,"Delta":89332032},{"NoteNumber":55,"Velocity":37,"Duration":123649,"SoundDuration":123649,"Delta":89437204},{"NoteNumber":45,"Velocity":49,"Duration":330159,"SoundDuration":330159,"Delta":89437204},{"NoteNumber":51,"Velocity":32,"Duration":124137,"SoundDuration":124137,"Delta":89546936},{"NoteNumber":55,"Velocity":36,"Duration":123559,"SoundDuration":123559,"Delta":89657478},{"NoteNumber":51,"Velocity":32,"Duration":123236,"SoundDuration":123236,"Delta":89767364},{"NoteNumber":55,"Velocity":37,"Duration":123547,"SoundDuration":123547,"Delta":89876766},{"NoteNumber":51,"Velocity":31,"Duration":108321,"SoundDuration":108321,"Delta":89986640},{"NoteNumber":54,"Velocity":36,"Duration":116825,"SoundDuration":116825,"Delta":90094962},{"NoteNumber":40,"Velocity":42,"Duration":314541,"SoundDuration":314541,"Delta":90094962},{"NoteNumber":50,"Velocity":31,"Duration":119899,"SoundDuration":119899,"Delta":90198498},{"NoteNumber":54,"Velocity":36,"Duration":117536,"SoundDuration":117536,"Delta":90305257},{"NoteNumber":50,"Velocity":32,"Duration":119822,"SoundDuration":119822,"Delta":90409503},{"NoteNumber":54,"Velocity":36,"Duration":116949,"SoundDuration":116949,"Delta":90516262},{"NoteNumber":50,"Velocity":31,"Duration":105640,"SoundDuration":105640,"Delta":90620216},{"NoteNumber":69,"Velocity":49,"Duration":664687,"SoundDuration":664687,"Delta":90725857},{"NoteNumber":81,"Velocity":54,"Duration":664687,"SoundDuration":664687,"Delta":90725857},{"NoteNumber":53,"Velocity":33,"Duration":124206,"SoundDuration":124206,"Delta":90725857},{"NoteNumber":49,"Velocity":26,"Duration":125844,"SoundDuration":125844,"Delta":90836063},{"NoteNumber":53,"Velocity":32,"Duration":123720,"SoundDuration":123720,"Delta":90948234},{"NoteNumber":49,"Velocity":27,"Duration":124381,"SoundDuration":124381,"Delta":91057954},{"NoteNumber":53,"Velocity":32,"Duration":124300,"SoundDuration":124300,"Delta":91168816},{"NoteNumber":49,"Velocity":26,"Duration":111346,"SoundDuration":111346,"Delta":91279198},{"NoteNumber":88,"Velocity":57,"Duration":311634,"SoundDuration":311634,"Delta":91390544},{"NoteNumber":76,"Velocity":53,"Duration":311634,"SoundDuration":311634,"Delta":91390544},{"NoteNumber":52,"Velocity":32,"Duration":116671,"SoundDuration":116671,"Delta":91390544},{"NoteNumber":48,"Velocity":27,"Duration":118352,"SoundDuration":118352,"Delta":91493926},{"NoteNumber":52,"Velocity":32,"Duration":116184,"SoundDuration":116184,"Delta":91599357},{"NoteNumber":48,"Velocity":27,"Duration":119237,"SoundDuration":119237,"Delta":91702178},{"NoteNumber":52,"Velocity":33,"Duration":116171,"SoundDuration":116171,"Delta":91808492},{"NoteNumber":48,"Velocity":27,"Duration":105708,"SoundDuration":105708,"Delta":91911450},{"NoteNumber":51,"Velocity":32,"Duration":120204,"SoundDuration":120204,"Delta":92017159},{"NoteNumber":47,"Velocity":26,"Duration":120442,"SoundDuration":120442,"Delta":92124074},{"NoteNumber":51,"Velocity":31,"Duration":119271,"SoundDuration":119271,"Delta":92230997},{"NoteNumber":47,"Velocity":27,"Duration":120822,"SoundDuration":120822,"Delta":92337055},{"NoteNumber":51,"Velocity":30,"Duration":120954,"SoundDuration":120954,"Delta":92444438},{"NoteNumber":47,"Velocity":26,"Duration":107515,"SoundDuration":107515,"Delta":92551953},{"NoteNumber":67,"Velocity":32,"Duration":115953,"SoundDuration":115953,"Delta":92659468},{"NoteNumber":63,"Velocity":27,"Duration":118191,"SoundDuration":118191,"Delta":92762426},{"NoteNumber":67,"Velocity":32,"Duration":116452,"SoundDuration":116452,"Delta":92867553},{"NoteNumber":63,"Velocity":27,"Duration":117189,"SoundDuration":117189,"Delta":92971222},{"NoteNumber":67,"Velocity":33,"Duration":117834,"SoundDuration":117834,"Delta":93075489},{"NoteNumber":63,"Velocity":27,"Duration":105130,"SoundDuration":105130,"Delta":93180181},{"NoteNumber":67,"Velocity":36,"Duration":110047,"SoundDuration":110047,"Delta":93285312},{"NoteNumber":46,"Velocity":40,"Duration":328716,"SoundDuration":328716,"Delta":93285312},{"NoteNumber":58,"Velocity":47,"Duration":328716,"SoundDuration":328716,"Delta":93285312},{"NoteNumber":64,"Velocity":31,"Duration":109716,"SoundDuration":109716,"Delta":93367847},{"NoteNumber":67,"Velocity":36,"Duration":109898,"SoundDuration":109898,"Delta":93450052},{"NoteNumber":64,"Velocity":32,"Duration":108952,"SoundDuration":108952,"Delta":93532912},{"NoteNumber":67,"Velocity":36,"Duration":110210,"SoundDuration":110210,"Delta":93614028},{"NoteNumber":64,"Velocity":31,"Duration":110056,"SoundDuration":110056,"Delta":93697047},{"NoteNumber":67,"Velocity":36,"Duration":111346,"SoundDuration":111346,"Delta":93779266},{"NoteNumber":64,"Velocity":31,"Duration":83509,"SoundDuration":83509,"Delta":93862776},{"NoteNumber":67,"Velocity":34,"Duration":103390,"SoundDuration":103390,"Delta":93946286},{"NoteNumber":52,"Velocity":42,"Duration":1257576,"SoundDuration":1257576,"Delta":93946286},{"NoteNumber":40,"Velocity":35,"Duration":1257576,"SoundDuration":1257576,"Delta":93946286},{"NoteNumber":64,"Velocity":29,"Duration":103281,"SoundDuration":103281,"Delta":94024109},{"NoteNumber":67,"Velocity":34,"Duration":105430,"SoundDuration":105430,"Delta":94100812},{"NoteNumber":64,"Velocity":29,"Duration":103670,"SoundDuration":103670,"Delta":94180252},{"NoteNumber":67,"Velocity":33,"Duration":105127,"SoundDuration":105127,"Delta":94258077},{"NoteNumber":64,"Velocity":29,"Duration":106012,"SoundDuration":106012,"Delta":94336478},{"NoteNumber":67,"Velocity":34,"Duration":103527,"SoundDuration":103527,"Delta":94416362},{"NoteNumber":64,"Velocity":29,"Duration":77691,"SoundDuration":77691,"Delta":94494186},{"NoteNumber":67,"Velocity":33,"Duration":106610,"SoundDuration":106610,"Delta":94571877},{"NoteNumber":64,"Velocity":28,"Duration":104694,"SoundDuration":104694,"Delta":94651909},{"NoteNumber":67,"Velocity":33,"Duration":103382,"SoundDuration":103382,"Delta":94730899},{"NoteNumber":64,"Velocity":29,"Duration":107547,"SoundDuration":107547,"Delta":94808153},{"NoteNumber":79,"Velocity":60,"Duration":315508,"SoundDuration":315508,"Delta":94888354},{"NoteNumber":67,"Velocity":33,"Duration":108158,"SoundDuration":108158,"Delta":94888354},{"NoteNumber":76,"Velocity":60,"Duration":315508,"SoundDuration":315508,"Delta":94888354},{"NoteNumber":70,"Velocity":50,"Duration":315508,"SoundDuration":315508,"Delta":94888354},{"NoteNumber":64,"Velocity":31,"Duration":104828,"SoundDuration":104828,"Delta":94970086},{"NoteNumber":67,"Velocity":34,"Duration":103103,"SoundDuration":103103,"Delta":95048924},{"NoteNumber":64,"Velocity":30,"Duration":77539,"SoundDuration":77539,"Delta":95126323},{"NoteNumber":88,"Velocity":65,"Duration":314791,"SoundDuration":314791,"Delta":95203862},{"NoteNumber":67,"Velocity":65,"Duration":106008,"SoundDuration":106008,"Delta":95203862},{"NoteNumber":82,"Velocity":55,"Duration":314791,"SoundDuration":314791,"Delta":95203862},{"NoteNumber":91,"Velocity":65,"Duration":314791,"SoundDuration":314791,"Delta":95203862},{"NoteNumber":64,"Velocity":31,"Duration":105709,"SoundDuration":105709,"Delta":95283145},{"NoteNumber":67,"Velocity":34,"Duration":103954,"SoundDuration":103954,"Delta":95362725},{"NoteNumber":64,"Velocity":32,"Duration":104246,"SoundDuration":104246,"Delta":95440835},{"NoteNumber":67,"Velocity":35,"Duration":106159,"SoundDuration":106159,"Delta":95518654},{"NoteNumber":64,"Velocity":31,"Duration":104828,"SoundDuration":104828,"Delta":95598386},{"NoteNumber":67,"Velocity":34,"Duration":103525,"SoundDuration":103525,"Delta":95677224},{"NoteNumber":64,"Velocity":30,"Duration":77535,"SoundDuration":77535,"Delta":95754905},{"NoteNumber":67,"Velocity":36,"Duration":110198,"SoundDuration":110198,"Delta":95832440},{"NoteNumber":46,"Velocity":40,"Duration":166200,"SoundDuration":166200,"Delta":95832440},{"NoteNumber":58,"Velocity":48,"Duration":166200,"SoundDuration":166200,"Delta":95832440},{"NoteNumber":64,"Velocity":31,"Duration":111018,"SoundDuration":111018,"Delta":95915292},{"NoteNumber":67,"Velocity":36,"Duration":112234,"SoundDuration":112234,"Delta":95998641},{"NoteNumber":64,"Velocity":32,"Duration":115271,"SoundDuration":115271,"Delta":96082189},{"NoteNumber":67,"Velocity":36,"Duration":113061,"SoundDuration":113061,"Delta":96168599},{"NoteNumber":58,"Velocity":45,"Duration":167444,"SoundDuration":167444,"Delta":96168599},{"NoteNumber":46,"Velocity":38,"Duration":167444,"SoundDuration":167444,"Delta":96168599},{"NoteNumber":64,"Velocity":31,"Duration":109731,"SoundDuration":109731,"Delta":96254148},{"NoteNumber":67,"Velocity":36,"Duration":111841,"SoundDuration":111841,"Delta":96336043},{"NoteNumber":64,"Velocity":31,"Duration":110134,"SoundDuration":110134,"Delta":96419884},{"NoteNumber":67,"Velocity":34,"Duration":103109,"SoundDuration":103109,"Delta":96503889},{"NoteNumber":52,"Velocity":40,"Duration":1243989,"SoundDuration":1243989,"Delta":96503889},{"NoteNumber":40,"Velocity":34,"Duration":1243989,"SoundDuration":1243989,"Delta":96503889},{"NoteNumber":64,"Velocity":29,"Duration":104092,"SoundDuration":104092,"Delta":96581153},{"NoteNumber":67,"Velocity":34,"Duration":102964,"SoundDuration":102964,"Delta":96659255},{"NoteNumber":64,"Velocity":29,"Duration":102976,"SoundDuration":102976,"Delta":96736795},{"NoteNumber":67,"Velocity":33,"Duration":104684,"SoundDuration":104684,"Delta":96813489},{"NoteNumber":64,"Velocity":29,"Duration":102684,"SoundDuration":102684,"Delta":96892183},{"NoteNumber":67,"Velocity":34,"Duration":103853,"SoundDuration":103853,"Delta":96969443},{"NoteNumber":64,"Velocity":29,"Duration":79584,"SoundDuration":79584,"Delta":97046718},{"NoteNumber":67,"Velocity":33,"Duration":102968,"SoundDuration":102968,"Delta":97126303},{"NoteNumber":64,"Velocity":28,"Duration":104266,"SoundDuration":104266,"Delta":97203703},{"NoteNumber":67,"Velocity":33,"Duration":104548,"SoundDuration":104548,"Delta":97281543},{"NoteNumber":64,"Velocity":29,"Duration":102543,"SoundDuration":102543,"Delta":97360387},{"NoteNumber":76,"Velocity":62,"Duration":310514,"SoundDuration":310514,"Delta":97437363},{"NoteNumber":67,"Velocity":33,"Duration":104405,"SoundDuration":104405,"Delta":97437363},{"NoteNumber":79,"Velocity":62,"Duration":310514,"SoundDuration":310514,"Delta":97437363},{"NoteNumber":70,"Velocity":52,"Duration":310514,"SoundDuration":310514,"Delta":97437363},{"NoteNumber":64,"Velocity":31,"Duration":103409,"SoundDuration":103409,"Delta":97515342},{"NoteNumber":67,"Velocity":34,"Duration":101841,"SoundDuration":101841,"Delta":97593327},{"NoteNumber":64,"Velocity":30,"Duration":78277,"SoundDuration":78277,"Delta":97669601},{"NoteNumber":91,"Velocity":66,"Duration":312205,"SoundDuration":312205,"Delta":97747878},{"NoteNumber":88,"Velocity":66,"Duration":312205,"SoundDuration":312205,"Delta":97747878},{"NoteNumber":82,"Velocity":55,"Duration":312205,"SoundDuration":312205,"Delta":97747878},{"NoteNumber":67,"Velocity":66,"Duration":104689,"SoundDuration":104689,"Delta":97747878},{"NoteNumber":64,"Velocity":31,"Duration":102404,"SoundDuration":102404,"Delta":97826722},{"NoteNumber":67,"Velocity":36,"Duration":104266,"SoundDuration":104266,"Delta":97903560},{"NoteNumber":64,"Velocity":32,"Duration":104252,"SoundDuration":104252,"Delta":97981399},{"NoteNumber":67,"Velocity":38,"Duration":102549,"SoundDuration":102549,"Delta":98060084},{"NoteNumber":64,"Velocity":31,"Duration":104684,"SoundDuration":104684,"Delta":98136644},{"NoteNumber":67,"Velocity":38,"Duration":104092,"SoundDuration":104092,"Delta":98215199},{"NoteNumber":64,"Velocity":33,"Duration":77535,"SoundDuration":77535,"Delta":98293447},{"NoteNumber":67,"Velocity":40,"Duration":107375,"SoundDuration":107375,"Delta":98370982},{"NoteNumber":46,"Velocity":40,"Duration":161913,"SoundDuration":161913,"Delta":98370982},{"NoteNumber":58,"Velocity":48,"Duration":161913,"SoundDuration":161913,"Delta":98370982},{"NoteNumber":64,"Velocity":31,"Duration":108768,"SoundDuration":108768,"Delta":98451166},{"NoteNumber":67,"Velocity":36,"Duration":107675,"SoundDuration":107675,"Delta":98532896},{"NoteNumber":64,"Velocity":32,"Duration":106919,"SoundDuration":106919,"Delta":98613692},{"NoteNumber":67,"Velocity":38,"Duration":104976,"SoundDuration":104976,"Delta":98694329},{"NoteNumber":50,"Velocity":36,"Duration":157233,"SoundDuration":157233,"Delta":98694329},{"NoteNumber":62,"Velocity":44,"Duration":157233,"SoundDuration":157233,"Delta":98694329},{"NoteNumber":64,"Velocity":31,"Duration":104231,"SoundDuration":104231,"Delta":98773177},{"NoteNumber":67,"Velocity":36,"Duration":104706,"SoundDuration":104706,"Delta":98851563},{"NoteNumber":64,"Velocity":30,"Duration":106166,"SoundDuration":106166,"Delta":98929691},{"NoteNumber":67,"Velocity":34,"Duration":104101,"SoundDuration":104101,"Delta":99009575},{"NoteNumber":48,"Velocity":38,"Duration":156657,"SoundDuration":156657,"Delta":99009575},{"NoteNumber":60,"Velocity":45,"Duration":156657,"SoundDuration":156657,"Delta":99009575},{"NoteNumber":64,"Velocity":29,"Duration":105111,"SoundDuration":105111,"Delta":99087548},{"NoteNumber":67,"Velocity":34,"Duration":104246,"SoundDuration":104246,"Delta":99166233},{"NoteNumber":64,"Velocity":29,"Duration":104246,"SoundDuration":104246,"Delta":99244634},{"NoteNumber":67,"Velocity":33,"Duration":104404,"SoundDuration":104404,"Delta":99322598},{"NoteNumber":50,"Velocity":37,"Duration":156098,"SoundDuration":156098,"Delta":99322598},{"NoteNumber":62,"Velocity":45,"Duration":156098,"SoundDuration":156098,"Delta":99322598},{"NoteNumber":64,"Velocity":29,"Duration":103527,"SoundDuration":103527,"Delta":99401297},{"NoteNumber":67,"Velocity":34,"Duration":104515,"SoundDuration":104515,"Delta":99478696},{"NoteNumber":64,"Velocity":29,"Duration":103810,"SoundDuration":103810,"Delta":99557082},{"NoteNumber":67,"Velocity":36,"Duration":102548,"SoundDuration":102548,"Delta":99635469},{"NoteNumber":46,"Velocity":39,"Duration":620629,"SoundDuration":620629,"Delta":99635469},{"NoteNumber":58,"Velocity":46,"Duration":620629,"SoundDuration":620629,"Delta":99635469},{"NoteNumber":64,"Velocity":31,"Duration":102836,"SoundDuration":102836,"Delta":99712027},{"NoteNumber":67,"Velocity":36,"Duration":102827,"SoundDuration":102827,"Delta":99789575},{"NoteNumber":64,"Velocity":32,"Duration":103809,"SoundDuration":103809,"Delta":99866412},{"NoteNumber":67,"Velocity":36,"Duration":104376,"SoundDuration":104376,"Delta":99944093},{"NoteNumber":64,"Velocity":31,"Duration":103529,"SoundDuration":103529,"Delta":100022479},{"NoteNumber":67,"Velocity":36,"Duration":103382,"SoundDuration":103382,"Delta":100100305},{"NoteNumber":64,"Velocity":31,"Duration":78540,"SoundDuration":78540,"Delta":100177558},{"NoteNumber":67,"Velocity":34,"Duration":103107,"SoundDuration":103107,"Delta":100256098},{"NoteNumber":60,"Velocity":46,"Duration":155379,"SoundDuration":155379,"Delta":100256098},{"NoteNumber":48,"Velocity":39,"Duration":155379,"SoundDuration":155379,"Delta":100256098},{"NoteNumber":64,"Velocity":29,"Duration":104259,"SoundDuration":104259,"Delta":100333501},{"NoteNumber":67,"Velocity":34,"Duration":104246,"SoundDuration":104246,"Delta":100411478},{"NoteNumber":64,"Velocity":29,"Duration":105371,"SoundDuration":105371,"Delta":100489880},{"NoteNumber":67,"Velocity":33,"Duration":110689,"SoundDuration":110689,"Delta":100567415},{"NoteNumber":58,"Velocity":43,"Duration":166857,"SoundDuration":166857,"Delta":100567415},{"NoteNumber":46,"Velocity":36,"Duration":166857,"SoundDuration":166857,"Delta":100567415},{"NoteNumber":64,"Velocity":29,"Duration":111349,"SoundDuration":111349,"Delta":100650435},{"NoteNumber":67,"Velocity":34,"Duration":110047,"SoundDuration":110047,"Delta":100734273},{"NoteNumber":64,"Velocity":29,"Duration":109254,"SoundDuration":109254,"Delta":100816808},{"NoteNumber":67,"Velocity":37,"Duration":107835,"SoundDuration":107835,"Delta":100899023},{"NoteNumber":50,"Velocity":40,"Duration":648164,"SoundDuration":648164,"Delta":100899023},{"NoteNumber":62,"Velocity":47,"Duration":648164,"SoundDuration":648164,"Delta":100899023},{"NoteNumber":64,"Velocity":32,"Duration":109719,"SoundDuration":109719,"Delta":100979668},{"NoteNumber":67,"Velocity":37,"Duration":108308,"SoundDuration":108308,"Delta":101061876},{"NoteNumber":64,"Velocity":32,"Duration":106311,"SoundDuration":106311,"Delta":101143458},{"NoteNumber":67,"Velocity":37,"Duration":107842,"SoundDuration":107842,"Delta":101223190},{"NoteNumber":64,"Velocity":31,"Duration":107075,"SoundDuration":107075,"Delta":101304154},{"NoteNumber":67,"Velocity":38,"Duration":108613,"SoundDuration":108613,"Delta":101384191},{"NoteNumber":64,"Velocity":31,"Duration":81575,"SoundDuration":81575,"Delta":101465613},{"NoteNumber":67,"Velocity":39,"Duration":106307,"SoundDuration":106307,"Delta":101547188},{"NoteNumber":48,"Velocity":37,"Duration":159312,"SoundDuration":159312,"Delta":101547188},{"NoteNumber":60,"Velocity":45,"Duration":159312,"SoundDuration":159312,"Delta":101547188},{"NoteNumber":64,"Velocity":31,"Duration":106471,"SoundDuration":106471,"Delta":101627068},{"NoteNumber":67,"Velocity":37,"Duration":107847,"SoundDuration":107847,"Delta":101706501},{"NoteNumber":64,"Velocity":32,"Duration":106014,"SoundDuration":106014,"Delta":101787770},{"NoteNumber":67,"Velocity":36,"Duration":107070,"SoundDuration":107070,"Delta":101867058},{"NoteNumber":46,"Velocity":36,"Duration":160841,"SoundDuration":160841,"Delta":101867058},{"NoteNumber":58,"Velocity":43,"Duration":160841,"SoundDuration":160841,"Delta":101867058},{"NoteNumber":64,"Velocity":31,"Duration":107228,"SoundDuration":107228,"Delta":101947550},{"NoteNumber":67,"Velocity":34,"Duration":106615,"SoundDuration":106615,"Delta":102027899},{"NoteNumber":64,"Velocity":29,"Duration":107406,"SoundDuration":107406,"Delta":102107936},{"NoteNumber":66,"Velocity":38,"Duration":109874,"SoundDuration":109874,"Delta":102187672},{"NoteNumber":59,"Velocity":45,"Duration":329178,"SoundDuration":329178,"Delta":102187672},{"NoteNumber":47,"Velocity":37,"Duration":329178,"SoundDuration":329178,"Delta":102187672},{"NoteNumber":63,"Velocity":31,"Duration":109874,"SoundDuration":109874,"Delta":102270200},{"NoteNumber":66,"Velocity":38,"Duration":108780,"SoundDuration":108780,"Delta":102352563},{"NoteNumber":63,"Velocity":32,"Duration":110381,"SoundDuration":110381,"Delta":102434305},{"NoteNumber":66,"Velocity":38,"Duration":110696,"SoundDuration":110696,"Delta":102516851},{"NoteNumber":63,"Velocity":31,"Duration":110047,"SoundDuration":110047,"Delta":102600035},{"NoteNumber":66,"Velocity":38,"Duration":109716,"SoundDuration":109716,"Delta":102682571},{"NoteNumber":63,"Velocity":31,"Duration":82038,"SoundDuration":82038,"Delta":102764941},{"NoteNumber":66,"Velocity":34,"Duration":104092,"SoundDuration":104092,"Delta":102846980},{"NoteNumber":40,"Velocity":35,"Duration":1256486,"SoundDuration":1256486,"Delta":102846980},{"NoteNumber":52,"Velocity":42,"Duration":1256486,"SoundDuration":1256486,"Delta":102846980},{"NoteNumber":63,"Velocity":29,"Duration":103822,"SoundDuration":103822,"Delta":102925228},{"NoteNumber":66,"Velocity":34,"Duration":104982,"SoundDuration":104982,"Delta":103002767},{"NoteNumber":63,"Velocity":29,"Duration":103103,"SoundDuration":103103,"Delta":103081760},{"NoteNumber":66,"Velocity":33,"Duration":104250,"SoundDuration":104250,"Delta":103159158},{"NoteNumber":63,"Velocity":29,"Duration":105409,"SoundDuration":105409,"Delta":103236982},{"NoteNumber":66,"Velocity":34,"Duration":106311,"SoundDuration":106311,"Delta":103315964},{"NoteNumber":63,"Velocity":29,"Duration":106610,"SoundDuration":106610,"Delta":103395549},{"NoteNumber":66,"Velocity":33,"Duration":104696,"SoundDuration":104696,"Delta":103475581},{"NoteNumber":63,"Velocity":28,"Duration":103098,"SoundDuration":103098,"Delta":103554432},{"NoteNumber":66,"Velocity":33,"Duration":103822,"SoundDuration":103822,"Delta":103631827},{"NoteNumber":63,"Velocity":29,"Duration":79440,"SoundDuration":79440,"Delta":103709367},{"NoteNumber":79,"Velocity":63,"Duration":314659,"SoundDuration":314659,"Delta":103788807},{"NoteNumber":70,"Velocity":53,"Duration":314659,"SoundDuration":314659,"Delta":103788807},{"NoteNumber":76,"Velocity":63,"Duration":314659,"SoundDuration":314659,"Delta":103788807},{"NoteNumber":67,"Velocity":33,"Duration":104246,"SoundDuration":104246,"Delta":103788807},{"NoteNumber":64,"Velocity":31,"Duration":105272,"SoundDuration":105272,"Delta":103866925},{"NoteNumber":67,"Velocity":34,"Duration":105867,"SoundDuration":105867,"Delta":103945619},{"NoteNumber":64,"Velocity":30,"Duration":78262,"SoundDuration":78262,"Delta":104025203},{"NoteNumber":88,"Velocity":66,"Duration":313195,"SoundDuration":313195,"Delta":104103466},{"NoteNumber":91,"Velocity":66,"Duration":313195,"SoundDuration":313195,"Delta":104103466},{"NoteNumber":67,"Velocity":66,"Duration":103523,"SoundDuration":103523,"Delta":104103466},{"NoteNumber":82,"Velocity":55,"Duration":313195,"SoundDuration":313195,"Delta":104103466},{"NoteNumber":64,"Velocity":31,"Duration":105417,"SoundDuration":105417,"Delta":104180861},{"NoteNumber":67,"Velocity":34,"Duration":104683,"SoundDuration":104683,"Delta":104259851},{"NoteNumber":64,"Velocity":32,"Duration":104399,"SoundDuration":104399,"Delta":104338689},{"NoteNumber":67,"Velocity":35,"Duration":106159,"SoundDuration":106159,"Delta":104416662},{"NoteNumber":64,"Velocity":31,"Duration":105274,"SoundDuration":105274,"Delta":104496395},{"NoteNumber":67,"Velocity":34,"Duration":105130,"SoundDuration":105130,"Delta":104575387},{"NoteNumber":64,"Velocity":30,"Duration":106849,"SoundDuration":106849,"Delta":104654234},{"NoteNumber":66,"Velocity":36,"Duration":110854,"SoundDuration":110854,"Delta":104733082},{"NoteNumber":47,"Velocity":37,"Duration":167186,"SoundDuration":167186,"Delta":104733082},{"NoteNumber":59,"Velocity":45,"Duration":167186,"SoundDuration":167186,"Delta":104733082},{"NoteNumber":63,"Velocity":31,"Duration":112167,"SoundDuration":112167,"Delta":104816267},{"NoteNumber":66,"Velocity":36,"Duration":111184,"SoundDuration":111184,"Delta":104900269},{"NoteNumber":63,"Velocity":32,"Duration":111024,"SoundDuration":111024,"Delta":104984107},{"NoteNumber":66,"Velocity":36,"Duration":111674,"SoundDuration":111674,"Delta":105066965},{"NoteNumber":47,"Velocity":36,"Duration":166212,"SoundDuration":166212,"Delta":105066965},{"NoteNumber":59,"Velocity":43,"Duration":166212,"SoundDuration":166212,"Delta":105066965},{"NoteNumber":63,"Velocity":31,"Duration":109878,"SoundDuration":109878,"Delta":105150969},{"NoteNumber":66,"Velocity":36,"Duration":111179,"SoundDuration":111179,"Delta":105233177},{"NoteNumber":63,"Velocity":31,"Duration":109638,"SoundDuration":109638,"Delta":105316521},{"NoteNumber":66,"Velocity":34,"Duration":103668,"SoundDuration":103668,"Delta":105400030},{"NoteNumber":52,"Velocity":40,"Duration":1249548,"SoundDuration":1249548,"Delta":105400030},{"NoteNumber":40,"Velocity":34,"Duration":1249548,"SoundDuration":1249548,"Delta":105400030},{"NoteNumber":63,"Velocity":29,"Duration":103395,"SoundDuration":103395,"Delta":105477994},{"NoteNumber":66,"Velocity":34,"Duration":105274,"SoundDuration":105274,"Delta":105555107},{"NoteNumber":63,"Velocity":29,"Duration":103960,"SoundDuration":103960,"Delta":105634099},{"NoteNumber":66,"Velocity":33,"Duration":103418,"SoundDuration":103418,"Delta":105712356},{"NoteNumber":63,"Velocity":29,"Duration":106163,"SoundDuration":106163,"Delta":105789195},{"NoteNumber":66,"Velocity":34,"Duration":104536,"SoundDuration":104536,"Delta":105868932},{"NoteNumber":63,"Velocity":29,"Duration":103393,"SoundDuration":103393,"Delta":105947478},{"NoteNumber":66,"Velocity":33,"Duration":105725,"SoundDuration":105725,"Delta":106024881},{"NoteNumber":63,"Velocity":28,"Duration":105426,"SoundDuration":105426,"Delta":106103880},{"NoteNumber":66,"Velocity":33,"Duration":103107,"SoundDuration":103107,"Delta":106183316},{"NoteNumber":63,"Velocity":29,"Duration":77964,"SoundDuration":77964,"Delta":106260578},{"NoteNumber":79,"Velocity":64,"Duration":311036,"SoundDuration":311036,"Delta":106338542},{"NoteNumber":70,"Velocity":54,"Duration":311036,"SoundDuration":311036,"Delta":106338542},{"NoteNumber":76,"Velocity":64,"Duration":311036,"SoundDuration":311036,"Delta":106338542},{"NoteNumber":67,"Velocity":33,"Duration":103951,"SoundDuration":103951,"Delta":106338542},{"NoteNumber":64,"Velocity":31,"Duration":102400,"SoundDuration":102400,"Delta":106416790},{"NoteNumber":67,"Velocity":34,"Duration":104105,"SoundDuration":104105,"Delta":106493486},{"NoteNumber":64,"Velocity":30,"Duration":78269,"SoundDuration":78269,"Delta":106571310},{"NoteNumber":67,"Velocity":67,"Duration":104837,"SoundDuration":104837,"Delta":106649579},{"NoteNumber":88,"Velocity":67,"Duration":312501,"SoundDuration":312501,"Delta":106649579},{"NoteNumber":91,"Velocity":67,"Duration":312501,"SoundDuration":312501,"Delta":106649579},{"NoteNumber":82,"Velocity":56,"Duration":312501,"SoundDuration":312501,"Delta":106649579},{"NoteNumber":64,"Velocity":31,"Duration":105130,"SoundDuration":105130,"Delta":106728135},{"NoteNumber":67,"Velocity":34,"Duration":103262,"SoundDuration":103262,"Delta":106806982},{"NoteNumber":64,"Velocity":32,"Duration":103393,"SoundDuration":103393,"Delta":106884678},{"NoteNumber":67,"Velocity":35,"Duration":104376,"SoundDuration":104376,"Delta":106962080},{"NoteNumber":64,"Velocity":31,"Duration":104515,"SoundDuration":104515,"Delta":107040328},{"NoteNumber":67,"Velocity":34,"Duration":104514,"SoundDuration":104514,"Delta":107118714},{"NoteNumber":64,"Velocity":30,"Duration":79296,"SoundDuration":79296,"Delta":107197101},{"NoteNumber":65,"Velocity":40,"Duration":108150,"SoundDuration":108150,"Delta":107276397},{"NoteNumber":56,"Velocity":45,"Duration":162535,"SoundDuration":162535,"Delta":107276397},{"NoteNumber":44,"Velocity":37,"Duration":162535,"SoundDuration":162535,"Delta":107276397},{"NoteNumber":62,"Velocity":31,"Duration":108457,"SoundDuration":108457,"Delta":107357201},{"NoteNumber":65,"Velocity":36,"Duration":108301,"SoundDuration":108301,"Delta":107438932},{"NoteNumber":62,"Velocity":32,"Duration":108002,"SoundDuration":108002,"Delta":107520042},{"NoteNumber":65,"Velocity":38,"Duration":105708,"SoundDuration":105708,"Delta":107601617},{"NoteNumber":60,"Velocity":42,"Duration":158562,"SoundDuration":158562,"Delta":107601617},{"NoteNumber":48,"Velocity":35,"Duration":158562,"SoundDuration":158562,"Delta":107601617},{"NoteNumber":62,"Velocity":31,"Duration":105708,"SoundDuration":105708,"Delta":107680898},{"NoteNumber":65,"Velocity":36,"Duration":104391,"SoundDuration":104391,"Delta":107760179},{"NoteNumber":62,"Velocity":30,"Duration":106029,"SoundDuration":106029,"Delta":107838725},{"NoteNumber":65,"Velocity":34,"Duration":107063,"SoundDuration":107063,"Delta":107917876},{"NoteNumber":47,"Velocity":38,"Duration":159773,"SoundDuration":159773,"Delta":107917876},{"NoteNumber":59,"Velocity":45,"Duration":159773,"SoundDuration":159773,"Delta":107917876},{"NoteNumber":62,"Velocity":29,"Duration":105265,"SoundDuration":105265,"Delta":107998513},{"NoteNumber":65,"Velocity":34,"Duration":103809,"SoundDuration":103809,"Delta":108077650},{"NoteNumber":62,"Velocity":29,"Duration":105874,"SoundDuration":105874,"Delta":108155469},{"NoteNumber":65,"Velocity":33,"Duration":104841,"SoundDuration":104841,"Delta":108234764},{"NoteNumber":48,"Velocity":37,"Duration":156113,"SoundDuration":156113,"Delta":108234764},{"NoteNumber":60,"Velocity":45,"Duration":156113,"SoundDuration":156113,"Delta":108234764},{"NoteNumber":62,"Velocity":29,"Duration":102821,"SoundDuration":102821,"Delta":108313760},{"NoteNumber":65,"Velocity":34,"Duration":104548,"SoundDuration":104548,"Delta":108390877},{"NoteNumber":62,"Velocity":29,"Duration":105708,"SoundDuration":105708,"Delta":108468999},{"NoteNumber":65,"Velocity":36,"Duration":104544,"SoundDuration":104544,"Delta":108548280},{"NoteNumber":44,"Velocity":39,"Duration":627002,"SoundDuration":627002,"Delta":108548280},{"NoteNumber":56,"Velocity":46,"Duration":627002,"SoundDuration":627002,"Delta":108548280},{"NoteNumber":62,"Velocity":31,"Duration":104683,"SoundDuration":104683,"Delta":108626980},{"NoteNumber":65,"Velocity":36,"Duration":105708,"SoundDuration":105708,"Delta":108705236},{"NoteNumber":62,"Velocity":32,"Duration":104544,"SoundDuration":104544,"Delta":108784517},{"NoteNumber":65,"Velocity":36,"Duration":104683,"SoundDuration":104683,"Delta":108863217},{"NoteNumber":62,"Velocity":31,"Duration":106606,"SoundDuration":106606,"Delta":108941473},{"NoteNumber":65,"Velocity":36,"Duration":103749,"SoundDuration":103749,"Delta":109021354},{"NoteNumber":62,"Velocity":31,"Duration":75334,"SoundDuration":75334,"Delta":109099947},{"NoteNumber":65,"Velocity":34,"Duration":104539,"SoundDuration":104539,"Delta":109175282},{"NoteNumber":45,"Velocity":39,"Duration":157104,"SoundDuration":157104,"Delta":109175282},{"NoteNumber":57,"Velocity":46,"Duration":157104,"SoundDuration":157104,"Delta":109175282},{"NoteNumber":62,"Velocity":29,"Duration":105130,"SoundDuration":105130,"Delta":109253538},{"NoteNumber":65,"Velocity":34,"Duration":105130,"SoundDuration":105130,"Delta":109332386},{"NoteNumber":62,"Velocity":29,"Duration":107423,"SoundDuration":107423,"Delta":109411234},{"NoteNumber":65,"Velocity":33,"Duration":109731,"SoundDuration":109731,"Delta":109491311},{"NoteNumber":44,"Velocity":36,"Duration":166063,"SoundDuration":166063,"Delta":109491311},{"NoteNumber":56,"Velocity":43,"Duration":166063,"SoundDuration":166063,"Delta":109491311},{"NoteNumber":62,"Velocity":29,"Duration":112170,"SoundDuration":112170,"Delta":109573041},{"NoteNumber":65,"Velocity":34,"Duration":110372,"SoundDuration":110372,"Delta":109657374},{"NoteNumber":62,"Velocity":29,"Duration":109727,"SoundDuration":109727,"Delta":109740234},{"NoteNumber":65,"Velocity":36,"Duration":107523,"SoundDuration":107523,"Delta":109822770},{"NoteNumber":48,"Velocity":40,"Duration":645817,"SoundDuration":645817,"Delta":109822770},{"NoteNumber":60,"Velocity":47,"Duration":645817,"SoundDuration":645817,"Delta":109822770},{"NoteNumber":62,"Velocity":31,"Duration":106311,"SoundDuration":106311,"Delta":109903567},{"NoteNumber":65,"Velocity":36,"Duration":108463,"SoundDuration":108463,"Delta":109983299},{"NoteNumber":62,"Velocity":32,"Duration":107538,"SoundDuration":107538,"Delta":110064416},{"NoteNumber":65,"Velocity":36,"Duration":106619,"SoundDuration":106619,"Delta":110145528},{"NoteNumber":62,"Velocity":31,"Duration":109077,"SoundDuration":109077,"Delta":110225108},{"NoteNumber":65,"Velocity":36,"Duration":108142,"SoundDuration":108142,"Delta":110306840},{"NoteNumber":62,"Velocity":31,"Duration":80484,"SoundDuration":80484,"Delta":110388103},{"NoteNumber":65,"Velocity":34,"Duration":106014,"SoundDuration":106014,"Delta":110468588},{"NoteNumber":59,"Velocity":45,"Duration":159620,"SoundDuration":159620,"Delta":110468588},{"NoteNumber":47,"Velocity":37,"Duration":159620,"SoundDuration":159620,"Delta":110468588},{"NoteNumber":62,"Velocity":29,"Duration":107079,"SoundDuration":107079,"Delta":110548320},{"NoteNumber":65,"Velocity":34,"Duration":107835,"SoundDuration":107835,"Delta":110628208},{"NoteNumber":62,"Velocity":29,"Duration":105863,"SoundDuration":105863,"Delta":110709317},{"NoteNumber":65,"Velocity":33,"Duration":106911,"SoundDuration":106911,"Delta":110788753},{"NoteNumber":44,"Velocity":36,"Duration":160828,"SoundDuration":160828,"Delta":110788753},{"NoteNumber":56,"Velocity":43,"Duration":160828,"SoundDuration":160828,"Delta":110788753},{"NoteNumber":62,"Velocity":29,"Duration":107835,"SoundDuration":107835,"Delta":110868786},{"NoteNumber":65,"Velocity":34,"Duration":107835,"SoundDuration":107835,"Delta":110949582},{"NoteNumber":62,"Velocity":29,"Duration":106611,"SoundDuration":106611,"Delta":111030538},{"NoteNumber":64,"Velocity":36,"Duration":106771,"SoundDuration":106771,"Delta":111110723},{"NoteNumber":45,"Velocity":52,"Duration":1269610,"SoundDuration":1269610,"Delta":111110723},{"NoteNumber":61,"Velocity":32,"Duration":106474,"SoundDuration":106474,"Delta":111190455},{"NoteNumber":64,"Velocity":37,"Duration":105868,"SoundDuration":105868,"Delta":111270648},{"NoteNumber":61,"Velocity":32,"Duration":107835,"SoundDuration":107835,"Delta":111349638},{"NoteNumber":64,"Velocity":36,"Duration":106165,"SoundDuration":106165,"Delta":111430594},{"NoteNumber":61,"Velocity":33,"Duration":105417,"SoundDuration":105417,"Delta":111510631},{"NoteNumber":64,"Velocity":38,"Duration":106610,"SoundDuration":106610,"Delta":111589469},{"NoteNumber":61,"Velocity":33,"Duration":80031,"SoundDuration":80031,"Delta":111669353},{"NoteNumber":63,"Velocity":39,"Duration":104397,"SoundDuration":104397,"Delta":111749385},{"NoteNumber":59,"Velocity":34,"Duration":106611,"SoundDuration":106611,"Delta":111827356},{"NoteNumber":63,"Velocity":39,"Duration":106611,"SoundDuration":106611,"Delta":111907088},{"NoteNumber":59,"Velocity":34,"Duration":104544,"SoundDuration":104544,"Delta":111987272},{"NoteNumber":63,"Velocity":39,"Duration":103963,"SoundDuration":103963,"Delta":112065972},{"NoteNumber":59,"Velocity":35,"Duration":105563,"SoundDuration":105563,"Delta":112143652},{"NoteNumber":63,"Velocity":40,"Duration":105563,"SoundDuration":105563,"Delta":112222789},{"NoteNumber":59,"Velocity":35,"Duration":78262,"SoundDuration":78262,"Delta":112302070},{"NoteNumber":62,"Velocity":41,"Duration":103960,"SoundDuration":103960,"Delta":112380333},{"NoteNumber":40,"Velocity":61,"Duration":1260668,"SoundDuration":1260668,"Delta":112380333},{"NoteNumber":58,"Velocity":36,"Duration":103525,"SoundDuration":103525,"Delta":112458304},{"NoteNumber":62,"Velocity":41,"Duration":104399,"SoundDuration":104399,"Delta":112535984},{"NoteNumber":58,"Velocity":36,"Duration":105409,"SoundDuration":105409,"Delta":112613957},{"NoteNumber":62,"Velocity":41,"Duration":103806,"SoundDuration":103806,"Delta":112693238},{"NoteNumber":58,"Velocity":36,"Duration":103382,"SoundDuration":103382,"Delta":112771341},{"NoteNumber":62,"Velocity":42,"Duration":105861,"SoundDuration":105861,"Delta":112848595},{"NoteNumber":58,"Velocity":36,"Duration":79434,"SoundDuration":79434,"Delta":112927729},{"NoteNumber":60,"Velocity":43,"Duration":103809,"SoundDuration":103809,"Delta":113007163},{"NoteNumber":57,"Velocity":37,"Duration":103963,"SoundDuration":103963,"Delta":113085127},{"NoteNumber":60,"Velocity":44,"Duration":106318,"SoundDuration":106318,"Delta":113162808},{"NoteNumber":57,"Velocity":37,"Duration":107063,"SoundDuration":107063,"Delta":113242248},{"NoteNumber":60,"Velocity":43,"Duration":105124,"SoundDuration":105124,"Delta":113322732},{"NoteNumber":57,"Velocity":38,"Duration":104253,"SoundDuration":104253,"Delta":113401867},{"NoteNumber":60,"Velocity":45,"Duration":107086,"SoundDuration":107086,"Delta":113479837},{"NoteNumber":57,"Velocity":38,"Duration":81116,"SoundDuration":81116,"Delta":113559885},{"NoteNumber":59,"Velocity":45,"Duration":106615,"SoundDuration":106615,"Delta":113641001},{"NoteNumber":33,"Velocity":69,"Duration":2531371,"SoundDuration":2531371,"Delta":113641001},{"NoteNumber":56,"Velocity":39,"Duration":107075,"SoundDuration":107075,"Delta":113721038},{"NoteNumber":59,"Velocity":45,"Duration":107694,"SoundDuration":107694,"Delta":113801074},{"NoteNumber":56,"Velocity":39,"Duration":105571,"SoundDuration":105571,"Delta":113882190},{"NoteNumber":59,"Velocity":45,"Duration":106314,"SoundDuration":106314,"Delta":113961479},{"NoteNumber":56,"Velocity":40,"Duration":107522,"SoundDuration":107522,"Delta":114041067},{"NoteNumber":59,"Velocity":46,"Duration":106466,"SoundDuration":106466,"Delta":114121711},{"NoteNumber":56,"Velocity":41,"Duration":78540,"SoundDuration":78540,"Delta":114201895},{"NoteNumber":58,"Velocity":47,"Duration":106022,"SoundDuration":106022,"Delta":114280435},{"NoteNumber":55,"Velocity":41,"Duration":107515,"SoundDuration":107515,"Delta":114359579},{"NoteNumber":58,"Velocity":47,"Duration":106611,"SoundDuration":106611,"Delta":114440215},{"NoteNumber":55,"Velocity":42,"Duration":104828,"SoundDuration":104828,"Delta":114520399},{"NoteNumber":58,"Velocity":46,"Duration":104237,"SoundDuration":104237,"Delta":114599238},{"NoteNumber":55,"Velocity":42,"Duration":106465,"SoundDuration":106465,"Delta":114677347},{"NoteNumber":58,"Velocity":49,"Duration":106611,"SoundDuration":106611,"Delta":114756933},{"NoteNumber":55,"Velocity":43,"Duration":78684,"SoundDuration":78684,"Delta":114837117},{"NoteNumber":57,"Velocity":49,"Duration":103525,"SoundDuration":103525,"Delta":114915802},{"NoteNumber":53,"Velocity":43,"Duration":104400,"SoundDuration":104400,"Delta":114993482},{"NoteNumber":57,"Velocity":50,"Duration":105867,"SoundDuration":105867,"Delta":115071600},{"NoteNumber":53,"Velocity":44,"Duration":105865,"SoundDuration":105865,"Delta":115150889},{"NoteNumber":57,"Velocity":49,"Duration":104099,"SoundDuration":104099,"Delta":115230625},{"NoteNumber":53,"Velocity":44,"Duration":104246,"SoundDuration":104246,"Delta":115308734},{"NoteNumber":57,"Velocity":51,"Duration":105130,"SoundDuration":105130,"Delta":115386698},{"NoteNumber":53,"Velocity":45,"Duration":78540,"SoundDuration":78540,"Delta":115465546},{"NoteNumber":56,"Velocity":52,"Duration":104822,"SoundDuration":104822,"Delta":115544086},{"NoteNumber":52,"Velocity":45,"Duration":105265,"SoundDuration":105265,"Delta":115622780},{"NoteNumber":56,"Velocity":52,"Duration":103399,"SoundDuration":103399,"Delta":115701763},{"NoteNumber":52,"Velocity":45,"Duration":104702,"SoundDuration":104702,"Delta":115779595},{"NoteNumber":56,"Velocity":51,"Duration":104542,"SoundDuration":104542,"Delta":115857870},{"NoteNumber":52,"Velocity":45,"Duration":104852,"SoundDuration":104852,"Delta":115936709},{"NoteNumber":56,"Velocity":53,"Duration":105417,"SoundDuration":105417,"Delta":116014982},{"NoteNumber":52,"Velocity":46,"Duration":78102,"SoundDuration":78102,"Delta":116094270},{"NoteNumber":55,"Velocity":51,"Duration":103104,"SoundDuration":103104,"Delta":116172373},{"NoteNumber":31,"Velocity":71,"Duration":2518290,"SoundDuration":2518290,"Delta":116172373},{"NoteNumber":51,"Velocity":45,"Duration":105417,"SoundDuration":105417,"Delta":116249349},{"NoteNumber":55,"Velocity":49,"Duration":103536,"SoundDuration":103536,"Delta":116328484},{"NoteNumber":51,"Velocity":44,"Duration":104231,"SoundDuration":104231,"Delta":116406175},{"NoteNumber":55,"Velocity":47,"Duration":104822,"SoundDuration":104822,"Delta":116484277},{"NoteNumber":51,"Velocity":43,"Duration":105130,"SoundDuration":105130,"Delta":116562817},{"NoteNumber":55,"Velocity":46,"Duration":105130,"SoundDuration":105130,"Delta":116641665},{"NoteNumber":51,"Velocity":42,"Duration":78540,"SoundDuration":78540,"Delta":116720513},{"NoteNumber":54,"Velocity":47,"Duration":104099,"SoundDuration":104099,"Delta":116799053},{"NoteNumber":50,"Velocity":41,"Duration":104530,"SoundDuration":104530,"Delta":116877162},{"NoteNumber":54,"Velocity":45,"Duration":104101,"SoundDuration":104101,"Delta":116955410},{"NoteNumber":50,"Velocity":40,"Duration":104988,"SoundDuration":104988,"Delta":117033666},{"NoteNumber":54,"Velocity":43,"Duration":104703,"SoundDuration":104703,"Delta":117111929},{"NoteNumber":50,"Velocity":39,"Duration":103822,"SoundDuration":103822,"Delta":117190928},{"NoteNumber":54,"Velocity":42,"Duration":104976,"SoundDuration":104976,"Delta":117268468},{"NoteNumber":50,"Velocity":38,"Duration":78693,"SoundDuration":78693,"Delta":117347315},{"NoteNumber":53,"Velocity":43,"Duration":105130,"SoundDuration":105130,"Delta":117426009},{"NoteNumber":49,"Velocity":37,"Duration":104976,"SoundDuration":104976,"Delta":117504857},{"NoteNumber":53,"Velocity":41,"Duration":103954,"SoundDuration":103954,"Delta":117583705},{"NoteNumber":49,"Velocity":36,"Duration":104835,"SoundDuration":104835,"Delta":117661814},{"NoteNumber":53,"Velocity":39,"Duration":105867,"SoundDuration":105867,"Delta":117740071},{"NoteNumber":49,"Velocity":36,"Duration":105118,"SoundDuration":105118,"Delta":117819655},{"NoteNumber":53,"Velocity":38,"Duration":106315,"SoundDuration":106315,"Delta":117898195},{"NoteNumber":49,"Velocity":35,"Duration":79432,"SoundDuration":79432,"Delta":117977932},{"NoteNumber":52,"Velocity":38,"Duration":105120,"SoundDuration":105120,"Delta":118057364},{"NoteNumber":48,"Velocity":34,"Duration":104237,"SoundDuration":104237,"Delta":118136357},{"NoteNumber":52,"Velocity":37,"Duration":105281,"SoundDuration":105281,"Delta":118214604},{"NoteNumber":48,"Velocity":33,"Duration":106906,"SoundDuration":106906,"Delta":118293160},{"NoteNumber":52,"Velocity":36,"Duration":105578,"SoundDuration":105578,"Delta":118373339},{"NoteNumber":48,"Velocity":32,"Duration":104841,"SoundDuration":104841,"Delta":118452927},{"NoteNumber":52,"Velocity":35,"Duration":106315,"SoundDuration":106315,"Delta":118531190},{"NoteNumber":48,"Velocity":31,"Duration":79736,"SoundDuration":79736,"Delta":118610927},{"NoteNumber":56,"Velocity":32,"Duration":107522,"SoundDuration":107522,"Delta":118690663},{"NoteNumber":52,"Velocity":27,"Duration":107522,"SoundDuration":107522,"Delta":118690663},{"NoteNumber":60,"Velocity":28,"Duration":107371,"SoundDuration":107371,"Delta":118771459},{"NoteNumber":52,"Velocity":27,"Duration":108608,"SoundDuration":108608,"Delta":118851639},{"NoteNumber":56,"Velocity":32,"Duration":108608,"SoundDuration":108608,"Delta":118851639},{"NoteNumber":60,"Velocity":28,"Duration":106022,"SoundDuration":106022,"Delta":118933369},{"NoteNumber":56,"Velocity":33,"Duration":106170,"SoundDuration":106170,"Delta":119013109},{"NoteNumber":52,"Velocity":27,"Duration":106170,"SoundDuration":106170,"Delta":119013109},{"NoteNumber":60,"Velocity":28,"Duration":107363,"SoundDuration":107363,"Delta":119092401},{"NoteNumber":56,"Velocity":34,"Duration":105279,"SoundDuration":105279,"Delta":119173037},{"NoteNumber":52,"Velocity":28,"Duration":105279,"SoundDuration":105279,"Delta":119173037},{"NoteNumber":60,"Velocity":29,"Duration":78552,"SoundDuration":78552,"Delta":119252471},{"NoteNumber":55,"Velocity":36,"Duration":107058,"SoundDuration":107058,"Delta":119331024},{"NoteNumber":51,"Velocity":30,"Duration":107058,"SoundDuration":107058,"Delta":119331024},{"NoteNumber":59,"Velocity":32,"Duration":104842,"SoundDuration":104842,"Delta":119411356},{"NoteNumber":51,"Velocity":30,"Duration":103960,"SoundDuration":103960,"Delta":119490494},{"NoteNumber":55,"Velocity":36,"Duration":103960,"SoundDuration":103960,"Delta":119490494},{"NoteNumber":59,"Velocity":32,"Duration":105120,"SoundDuration":105120,"Delta":119568172},{"NoteNumber":51,"Velocity":33,"Duration":103245,"SoundDuration":103245,"Delta":119647164},{"NoteNumber":55,"Velocity":39,"Duration":103245,"SoundDuration":103245,"Delta":119647164},{"NoteNumber":59,"Velocity":34,"Duration":102829,"SoundDuration":102829,"Delta":119724842},{"NoteNumber":55,"Velocity":40,"Duration":103670,"SoundDuration":103670,"Delta":119801682},{"NoteNumber":51,"Velocity":34,"Duration":103670,"SoundDuration":103670,"Delta":119801682},{"NoteNumber":59,"Velocity":34,"Duration":77535,"SoundDuration":77535,"Delta":119879507},{"NoteNumber":50,"Velocity":34,"Duration":103239,"SoundDuration":103239,"Delta":119957043},{"NoteNumber":53,"Velocity":40,"Duration":103239,"SoundDuration":103239,"Delta":119957043},{"NoteNumber":58,"Velocity":36,"Duration":101848,"SoundDuration":101848,"Delta":120034578},{"NoteNumber":53,"Velocity":39,"Duration":102426,"SoundDuration":102426,"Delta":120111138},{"NoteNumber":50,"Velocity":33,"Duration":102426,"SoundDuration":102426,"Delta":120111138},{"NoteNumber":58,"Velocity":34,"Duration":105867,"SoundDuration":105867,"Delta":120187282},{"NoteNumber":50,"Velocity":33,"Duration":104246,"SoundDuration":104246,"Delta":120266722},{"NoteNumber":53,"Velocity":39,"Duration":104246,"SoundDuration":104246,"Delta":120266722},{"NoteNumber":58,"Velocity":33,"Duration":104847,"SoundDuration":104847,"Delta":120345123},{"NoteNumber":50,"Velocity":30,"Duration":106315,"SoundDuration":106315,"Delta":120423392},{"NoteNumber":53,"Velocity":36,"Duration":106315,"SoundDuration":106315,"Delta":120423392},{"NoteNumber":58,"Velocity":32,"Duration":79736,"SoundDuration":79736,"Delta":120503129},{"NoteNumber":52,"Velocity":36,"Duration":105715,"SoundDuration":105715,"Delta":120582865},{"NoteNumber":48,"Velocity":30,"Duration":105715,"SoundDuration":105715,"Delta":120582865},{"NoteNumber":57,"Velocity":31,"Duration":104530,"SoundDuration":104530,"Delta":120662298},{"NoteNumber":52,"Velocity":36,"Duration":105865,"SoundDuration":105865,"Delta":120740700},{"NoteNumber":48,"Velocity":30,"Duration":105865,"SoundDuration":105865,"Delta":120740700},{"NoteNumber":57,"Velocity":31,"Duration":106315,"SoundDuration":106315,"Delta":120819986},{"NoteNumber":48,"Velocity":28,"Duration":105867,"SoundDuration":105867,"Delta":120899722},{"NoteNumber":52,"Velocity":34,"Duration":105867,"SoundDuration":105867,"Delta":120899722},{"NoteNumber":57,"Velocity":30,"Duration":107533,"SoundDuration":107533,"Delta":120979307},{"NoteNumber":76,"Velocity":65,"Duration":172117,"SoundDuration":172117,"Delta":121058155},{"NoteNumber":64,"Velocity":65,"Duration":172117,"SoundDuration":172117,"Delta":121058155},{"NoteNumber":48,"Velocity":27,"Duration":114744,"SoundDuration":114744,"Delta":121058155},{"NoteNumber":52,"Velocity":33,"Duration":114744,"SoundDuration":114744,"Delta":121058155},{"NoteNumber":57,"Velocity":28,"Duration":86058,"SoundDuration":86058,"Delta":121144213},{"NoteNumber":88,"Velocity":72,"Duration":957958,"SoundDuration":957958,"Delta":121230272},{"NoteNumber":76,"Velocity":72,"Duration":957958,"SoundDuration":957958,"Delta":121230272},{"NoteNumber":52,"Velocity":27,"Duration":106611,"SoundDuration":106611,"Delta":121230272},{"NoteNumber":56,"Velocity":32,"Duration":106611,"SoundDuration":106611,"Delta":121230272},{"NoteNumber":60,"Velocity":28,"Duration":106619,"SoundDuration":106619,"Delta":121310456},{"NoteNumber":52,"Velocity":27,"Duration":107536,"SoundDuration":107536,"Delta":121390036},{"NoteNumber":56,"Velocity":32,"Duration":107536,"SoundDuration":107536,"Delta":121390036},{"NoteNumber":60,"Velocity":28,"Duration":105419,"SoundDuration":105419,"Delta":121471146},{"NoteNumber":56,"Velocity":33,"Duration":106780,"SoundDuration":106780,"Delta":121550282},{"NoteNumber":52,"Velocity":27,"Duration":106780,"SoundDuration":106780,"Delta":121550282},{"NoteNumber":60,"Velocity":28,"Duration":105563,"SoundDuration":105563,"Delta":121630635},{"NoteNumber":52,"Velocity":28,"Duration":107383,"SoundDuration":107383,"Delta":121709772},{"NoteNumber":56,"Velocity":34,"Duration":107383,"SoundDuration":107383,"Delta":121709772},{"NoteNumber":60,"Velocity":29,"Duration":80644,"SoundDuration":80644,"Delta":121790117},{"NoteNumber":51,"Velocity":30,"Duration":105417,"SoundDuration":105417,"Delta":121870761},{"NoteNumber":55,"Velocity":36,"Duration":105417,"SoundDuration":105417,"Delta":121870761},{"NoteNumber":59,"Velocity":32,"Duration":104687,"SoundDuration":104687,"Delta":121950049},{"NoteNumber":51,"Velocity":30,"Duration":107063,"SoundDuration":107063,"Delta":122028158},{"NoteNumber":55,"Velocity":36,"Duration":107063,"SoundDuration":107063,"Delta":122028158},{"NoteNumber":59,"Velocity":32,"Duration":105878,"SoundDuration":105878,"Delta":122108343},{"NoteNumber":55,"Velocity":39,"Duration":103527,"SoundDuration":103527,"Delta":122188230},{"NoteNumber":51,"Velocity":33,"Duration":103527,"SoundDuration":103527,"Delta":122188230},{"NoteNumber":59,"Velocity":34,"Duration":105568,"SoundDuration":105568,"Delta":122265629},{"NoteNumber":51,"Velocity":34,"Duration":105134,"SoundDuration":105134,"Delta":122344619},{"NoteNumber":55,"Velocity":40,"Duration":105134,"SoundDuration":105134,"Delta":122344619},{"NoteNumber":59,"Velocity":34,"Duration":77539,"SoundDuration":77539,"Delta":122423763},{"NoteNumber":50,"Velocity":34,"Duration":105440,"SoundDuration":105440,"Delta":122501303},{"NoteNumber":53,"Velocity":40,"Duration":105440,"SoundDuration":105440,"Delta":122501303},{"NoteNumber":58,"Velocity":36,"Duration":105867,"SoundDuration":105867,"Delta":122580165},{"NoteNumber":53,"Velocity":39,"Duration":104385,"SoundDuration":104385,"Delta":122659749},{"NoteNumber":50,"Velocity":33,"Duration":104385,"SoundDuration":104385,"Delta":122659749},{"NoteNumber":58,"Velocity":34,"Duration":104696,"SoundDuration":104696,"Delta":122738290},{"NoteNumber":50,"Velocity":33,"Duration":106011,"SoundDuration":106011,"Delta":122816407},{"NoteNumber":53,"Velocity":39,"Duration":106011,"SoundDuration":106011,"Delta":122816407},{"NoteNumber":58,"Velocity":33,"Duration":104828,"SoundDuration":104828,"Delta":122895992},{"NoteNumber":53,"Velocity":36,"Duration":104259,"SoundDuration":104259,"Delta":122974830},{"NoteNumber":50,"Velocity":30,"Duration":104259,"SoundDuration":104259,"Delta":122974830},{"NoteNumber":58,"Velocity":32,"Duration":79736,"SoundDuration":79736,"Delta":123052511},{"NoteNumber":48,"Velocity":30,"Duration":104246,"SoundDuration":104246,"Delta":123132247},{"NoteNumber":52,"Velocity":36,"Duration":104246,"SoundDuration":104246,"Delta":123132247},{"NoteNumber":57,"Velocity":31,"Duration":105143,"SoundDuration":105143,"Delta":123210649},{"NoteNumber":48,"Velocity":30,"Duration":105863,"SoundDuration":105863,"Delta":123289066},{"NoteNumber":52,"Velocity":36,"Duration":105863,"SoundDuration":105863,"Delta":123289066},{"NoteNumber":57,"Velocity":31,"Duration":105715,"SoundDuration":105715,"Delta":123368646},{"NoteNumber":48,"Velocity":34,"Duration":106315,"SoundDuration":106315,"Delta":123447783},{"NoteNumber":52,"Velocity":34,"Duration":106315,"SoundDuration":106315,"Delta":123447783},{"NoteNumber":57,"Velocity":30,"Duration":108769,"SoundDuration":108769,"Delta":123527519},{"NoteNumber":76,"Velocity":65,"Duration":174195,"SoundDuration":174195,"Delta":123607256},{"NoteNumber":64,"Velocity":65,"Duration":174195,"SoundDuration":174195,"Delta":123607256},{"NoteNumber":52,"Velocity":33,"Duration":116130,"SoundDuration":116130,"Delta":123607256},{"NoteNumber":48,"Velocity":27,"Duration":116130,"SoundDuration":116130,"Delta":123607256},{"NoteNumber":57,"Velocity":28,"Duration":87097,"SoundDuration":87097,"Delta":123694354},{"NoteNumber":88,"Velocity":72,"Duration":954167,"SoundDuration":954167,"Delta":123781451},{"NoteNumber":76,"Velocity":72,"Duration":954167,"SoundDuration":954167,"Delta":123781451},{"NoteNumber":40,"Velocity":30,"Duration":105867,"SoundDuration":105867,"Delta":123781451},{"NoteNumber":44,"Velocity":36,"Duration":105867,"SoundDuration":105867,"Delta":123781451},{"NoteNumber":48,"Velocity":29,"Duration":104822,"SoundDuration":104822,"Delta":123861036},{"NoteNumber":40,"Velocity":30,"Duration":106766,"SoundDuration":106766,"Delta":123939576},{"NoteNumber":44,"Velocity":36,"Duration":106766,"SoundDuration":106766,"Delta":123939576},{"NoteNumber":48,"Velocity":30,"Duration":105562,"SoundDuration":105562,"Delta":124019616},{"NoteNumber":44,"Velocity":36,"Duration":105875,"SoundDuration":105875,"Delta":124099050},{"NoteNumber":40,"Velocity":30,"Duration":105875,"SoundDuration":105875,"Delta":124099050},{"NoteNumber":48,"Velocity":30,"Duration":106923,"SoundDuration":106923,"Delta":124177887},{"NoteNumber":40,"Velocity":30,"Duration":105578,"SoundDuration":105578,"Delta":124258383},{"NoteNumber":44,"Velocity":36,"Duration":105578,"SoundDuration":105578,"Delta":124258383},{"NoteNumber":48,"Velocity":30,"Duration":80636,"SoundDuration":80636,"Delta":124337083},{"NoteNumber":43,"Velocity":34,"Duration":105411,"SoundDuration":105411,"Delta":124417719},{"NoteNumber":39,"Velocity":28,"Duration":105411,"SoundDuration":105411,"Delta":124417719},{"NoteNumber":47,"Velocity":28,"Duration":105868,"SoundDuration":105868,"Delta":124497002},{"NoteNumber":39,"Velocity":28,"Duration":107215,"SoundDuration":107215,"Delta":124575992},{"NoteNumber":43,"Velocity":34,"Duration":107215,"SoundDuration":107215,"Delta":124575992},{"NoteNumber":47,"Velocity":28,"Duration":105568,"SoundDuration":105568,"Delta":124656628},{"NoteNumber":39,"Velocity":28,"Duration":107382,"SoundDuration":107382,"Delta":124735619},{"NoteNumber":43,"Velocity":34,"Duration":107382,"SoundDuration":107382,"Delta":124735619},{"NoteNumber":47,"Velocity":27,"Duration":107694,"SoundDuration":107694,"Delta":124815963},{"NoteNumber":39,"Velocity":28,"Duration":105426,"SoundDuration":105426,"Delta":124897079},{"NoteNumber":43,"Velocity":34,"Duration":105426,"SoundDuration":105426,"Delta":124897079},{"NoteNumber":47,"Velocity":27,"Duration":78992,"SoundDuration":78992,"Delta":124976223},{"NoteNumber":41,"Velocity":30,"Duration":105708,"SoundDuration":105708,"Delta":125055215},{"NoteNumber":38,"Velocity":25,"Duration":105708,"SoundDuration":105708,"Delta":125055215},{"NoteNumber":46,"Velocity":21,"Duration":105563,"SoundDuration":105563,"Delta":125134496},{"NoteNumber":41,"Velocity":30,"Duration":106169,"SoundDuration":106169,"Delta":125213777},{"NoteNumber":38,"Velocity":25,"Duration":106169,"SoundDuration":106169,"Delta":125213777},{"NoteNumber":46,"Velocity":19,"Duration":106161,"SoundDuration":106161,"Delta":125293067},{"NoteNumber":38,"Velocity":25,"Duration":106334,"SoundDuration":106334,"Delta":125373100},{"NoteNumber":41,"Velocity":29,"Duration":106334,"SoundDuration":106334,"Delta":125373100},{"NoteNumber":46,"Velocity":18,"Duration":108154,"SoundDuration":108154,"Delta":125452396},{"NoteNumber":41,"Velocity":29,"Duration":106771,"SoundDuration":106771,"Delta":125533512},{"NoteNumber":38,"Velocity":25,"Duration":106771,"SoundDuration":106771,"Delta":125533512},{"NoteNumber":46,"Velocity":17,"Duration":79901,"SoundDuration":79901,"Delta":125613856},{"NoteNumber":36,"Velocity":24,"Duration":108300,"SoundDuration":108300,"Delta":125693757},{"NoteNumber":40,"Velocity":28,"Duration":108300,"SoundDuration":108300,"Delta":125693757},{"NoteNumber":45,"Velocity":16,"Duration":106762,"SoundDuration":106762,"Delta":125775179},{"NoteNumber":40,"Velocity":27,"Duration":108310,"SoundDuration":108310,"Delta":125855364},{"NoteNumber":36,"Velocity":23,"Duration":108310,"SoundDuration":108310,"Delta":125855364},{"NoteNumber":45,"Velocity":16,"Duration":109716,"SoundDuration":109716,"Delta":125936327},{"NoteNumber":40,"Velocity":27,"Duration":108455,"SoundDuration":108455,"Delta":126018697},{"NoteNumber":36,"Velocity":23,"Duration":108455,"SoundDuration":108455,"Delta":126018697},{"NoteNumber":45,"Velocity":16,"Duration":109094,"SoundDuration":109094,"Delta":126100274},{"NoteNumber":36,"Velocity":22,"Duration":110047,"SoundDuration":110047,"Delta":126181856},{"NoteNumber":40,"Velocity":27,"Duration":110047,"SoundDuration":110047,"Delta":126181856},{"NoteNumber":45,"Velocity":16,"Duration":82535,"SoundDuration":82535,"Delta":126264392},{"NoteNumber":35,"Velocity":23,"Duration":107675,"SoundDuration":107675,"Delta":126346927},{"NoteNumber":39,"Velocity":27,"Duration":107675,"SoundDuration":107675,"Delta":126346927},{"NoteNumber":43,"Velocity":15,"Duration":109410,"SoundDuration":109410,"Delta":126427724},{"NoteNumber":35,"Velocity":22,"Duration":109885,"SoundDuration":109885,"Delta":126509465},{"NoteNumber":39,"Velocity":27,"Duration":109885,"SoundDuration":109885,"Delta":126509465},{"NoteNumber":43,"Velocity":15,"Duration":81582,"SoundDuration":81582,"Delta":126592159},{"NoteNumber":35,"Velocity":22,"Duration":108947,"SoundDuration":108947,"Delta":126673741},{"NoteNumber":39,"Velocity":27,"Duration":108947,"SoundDuration":108947,"Delta":126673741},{"NoteNumber":43,"Velocity":15,"Duration":109130,"SoundDuration":109130,"Delta":126755962},{"NoteNumber":39,"Velocity":27,"Duration":112170,"SoundDuration":112170,"Delta":126836927},{"NoteNumber":35,"Velocity":22,"Duration":112170,"SoundDuration":112170,"Delta":126836927},{"NoteNumber":43,"Velocity":14,"Duration":81601,"SoundDuration":81601,"Delta":126921260},{"NoteNumber":39,"Velocity":26,"Duration":108490,"SoundDuration":108490,"Delta":127002862},{"NoteNumber":35,"Velocity":21,"Duration":108490,"SoundDuration":108490,"Delta":127002862},{"NoteNumber":43,"Velocity":15,"Duration":109449,"SoundDuration":109449,"Delta":127084208},{"NoteNumber":35,"Velocity":21,"Duration":109058,"SoundDuration":109058,"Delta":127166484},{"NoteNumber":39,"Velocity":26,"Duration":109058,"SoundDuration":109058,"Delta":127166484},{"NoteNumber":43,"Velocity":15,"Duration":109447,"SoundDuration":109447,"Delta":127247948},{"NoteNumber":39,"Velocity":26,"Duration":110088,"SoundDuration":110088,"Delta":127330339},{"NoteNumber":35,"Velocity":21,"Duration":110088,"SoundDuration":110088,"Delta":127330339},{"NoteNumber":43,"Velocity":15,"Duration":110029,"SoundDuration":110029,"Delta":127412463},{"NoteNumber":39,"Velocity":26,"Duration":110033,"SoundDuration":110033,"Delta":127495436},{"NoteNumber":35,"Velocity":21,"Duration":110033,"SoundDuration":110033,"Delta":127495436},{"NoteNumber":43,"Velocity":14,"Duration":83493,"SoundDuration":83493,"Delta":127577380},{"NoteNumber":39,"Velocity":26,"Duration":110171,"SoundDuration":110171,"Delta":127660874},{"NoteNumber":35,"Velocity":21,"Duration":110171,"SoundDuration":110171,"Delta":127660874},{"NoteNumber":43,"Velocity":15,"Duration":111611,"SoundDuration":111611,"Delta":127743112},{"NoteNumber":35,"Velocity":20,"Duration":109593,"SoundDuration":109593,"Delta":127827069},{"NoteNumber":39,"Velocity":25,"Duration":109593,"SoundDuration":109593,"Delta":127827069},{"NoteNumber":43,"Velocity":15,"Duration":111090,"SoundDuration":111090,"Delta":127909280},{"NoteNumber":35,"Velocity":20,"Duration":110996,"SoundDuration":110996,"Delta":127992312},{"NoteNumber":39,"Velocity":25,"Duration":110996,"SoundDuration":110996,"Delta":127992312},{"NoteNumber":43,"Velocity":15,"Duration":110448,"SoundDuration":110448,"Delta":128075896},{"NoteNumber":35,"Velocity":19,"Duration":111770,"SoundDuration":111770,"Delta":128158317},{"NoteNumber":39,"Velocity":24,"Duration":111770,"SoundDuration":111770,"Delta":128158317},{"NoteNumber":43,"Velocity":14,"Duration":82479,"SoundDuration":82479,"Delta":128242524},{"NoteNumber":35,"Velocity":21,"Duration":2000000,"SoundDuration":2000000,"Delta":128325003},{"NoteNumber":39,"Velocity":26,"Duration":2000000,"SoundDuration":2000000,"Delta":128325003},{"NoteNumber":55,"Velocity":86,"Duration":352940,"SoundDuration":352940,"Delta":130325003},{"NoteNumber":43,"Velocity":68,"Duration":352940,"SoundDuration":352940,"Delta":130325003},{"NoteNumber":31,"Velocity":57,"Duration":352940,"SoundDuration":352940,"Delta":130325003},{"NoteNumber":55,"Velocity":86,"Duration":352940,"SoundDuration":352940,"Delta":131736767},{"NoteNumber":31,"Velocity":57,"Duration":352940,"SoundDuration":352940,"Delta":131736767},{"NoteNumber":43,"Velocity":68,"Duration":352940,"SoundDuration":352940,"Delta":131736767},{"NoteNumber":55,"Velocity":82,"Duration":352941,"SoundDuration":352941,"Delta":132089708},{"NoteNumber":43,"Velocity":65,"Duration":352941,"SoundDuration":352941,"Delta":132089708},{"NoteNumber":31,"Velocity":55,"Duration":352941,"SoundDuration":352941,"Delta":132089708},{"NoteNumber":55,"Velocity":86,"Duration":352940,"SoundDuration":352940,"Delta":133148531},{"NoteNumber":43,"Velocity":68,"Duration":352940,"SoundDuration":352940,"Delta":133148531},{"NoteNumber":31,"Velocity":57,"Duration":352940,"SoundDuration":352940,"Delta":133148531},{"NoteNumber":55,"Velocity":82,"Duration":352941,"SoundDuration":352941,"Delta":133501472},{"NoteNumber":31,"Velocity":55,"Duration":352941,"SoundDuration":352941,"Delta":133501472},{"NoteNumber":43,"Velocity":65,"Duration":352941,"SoundDuration":352941,"Delta":133501472},{"NoteNumber":55,"Velocity":95,"Duration":327524,"SoundDuration":327524,"Delta":133854413},{"NoteNumber":31,"Velocity":63,"Duration":327524,"SoundDuration":327524,"Delta":133854413},{"NoteNumber":43,"Velocity":75,"Duration":83333,"SoundDuration":83333,"Delta":133854413},{"NoteNumber":56,"Velocity":85,"Duration":80429,"SoundDuration":80429,"Delta":134021080},{"NoteNumber":44,"Velocity":68,"Duration":80429,"SoundDuration":80429,"Delta":134021080},{"NoteNumber":55,"Velocity":83,"Duration":348180,"SoundDuration":348180,"Delta":134181938},{"NoteNumber":43,"Velocity":66,"Duration":348180,"SoundDuration":348180,"Delta":134181938},{"NoteNumber":65,"Velocity":77,"Duration":89820,"SoundDuration":89820,"Delta":134350477},{"NoteNumber":53,"Velocity":61,"Duration":89820,"SoundDuration":89820,"Delta":134350477},{"NoteNumber":55,"Velocity":85,"Duration":352940,"SoundDuration":352940,"Delta":134530118},{"NoteNumber":31,"Velocity":57,"Duration":352940,"SoundDuration":352940,"Delta":134530118},{"NoteNumber":43,"Velocity":68,"Duration":352940,"SoundDuration":352940,"Delta":134530118},{"NoteNumber":55,"Velocity":83,"Duration":352941,"SoundDuration":352941,"Delta":134883059},{"NoteNumber":31,"Velocity":55,"Duration":352941,"SoundDuration":352941,"Delta":134883059},{"NoteNumber":43,"Velocity":66,"Duration":352941,"SoundDuration":352941,"Delta":134883059},{"NoteNumber":55,"Velocity":94,"Duration":327989,"SoundDuration":327989,"Delta":135236000},{"NoteNumber":31,"Velocity":63,"Duration":327989,"SoundDuration":327989,"Delta":135236000},{"NoteNumber":43,"Velocity":75,"Duration":167131,"SoundDuration":167131,"Delta":135236000},{"NoteNumber":56,"Velocity":84,"Duration":160857,"SoundDuration":160857,"Delta":135403131},{"NoteNumber":44,"Velocity":66,"Duration":160857,"SoundDuration":160857,"Delta":135403131},{"NoteNumber":55,"Velocity":83,"Duration":332978,"SoundDuration":332978,"Delta":135563989},{"NoteNumber":43,"Velocity":66,"Duration":332978,"SoundDuration":332978,"Delta":135563989},{"NoteNumber":61,"Velocity":77,"Duration":81743,"SoundDuration":81743,"Delta":135733480},{"NoteNumber":49,"Velocity":61,"Duration":81743,"SoundDuration":81743,"Delta":135733480},{"NoteNumber":55,"Velocity":80,"Duration":353982,"SoundDuration":353982,"Delta":135896968},{"NoteNumber":43,"Velocity":57,"Duration":353982,"SoundDuration":353982,"Delta":135896968},{"NoteNumber":31,"Velocity":48,"Duration":353982,"SoundDuration":353982,"Delta":135896968},{"NoteNumber":55,"Velocity":78,"Duration":353982,"SoundDuration":353982,"Delta":136250950},{"NoteNumber":43,"Velocity":54,"Duration":353982,"SoundDuration":353982,"Delta":136250950},{"NoteNumber":31,"Velocity":45,"Duration":353982,"SoundDuration":353982,"Delta":136250950},{"NoteNumber":55,"Velocity":81,"Duration":353982,"SoundDuration":353982,"Delta":136604932},{"NoteNumber":43,"Velocity":58,"Duration":353982,"SoundDuration":353982,"Delta":136604932},{"NoteNumber":31,"Velocity":49,"Duration":353982,"SoundDuration":353982,"Delta":136604932},{"NoteNumber":55,"Velocity":85,"Duration":353982,"SoundDuration":353982,"Delta":136958914},{"NoteNumber":43,"Velocity":64,"Duration":353982,"SoundDuration":353982,"Delta":136958914},{"NoteNumber":31,"Velocity":54,"Duration":353982,"SoundDuration":353982,"Delta":136958914},{"NoteNumber":55,"Velocity":71,"Duration":84269,"SoundDuration":84269,"Delta":137312896},{"NoteNumber":43,"Velocity":56,"Duration":84269,"SoundDuration":84269,"Delta":137312896},{"NoteNumber":31,"Velocity":47,"Duration":84269,"SoundDuration":84269,"Delta":137312896},{"NoteNumber":60,"Velocity":65,"Duration":80214,"SoundDuration":80214,"Delta":137481435},{"NoteNumber":36,"Velocity":44,"Duration":80214,"SoundDuration":80214,"Delta":137481435},{"NoteNumber":48,"Velocity":52,"Duration":80214,"SoundDuration":80214,"Delta":137481435},{"NoteNumber":56,"Velocity":84,"Duration":83102,"SoundDuration":83102,"Delta":137641863},{"NoteNumber":32,"Velocity":57,"Duration":83102,"SoundDuration":83102,"Delta":137641863},{"NoteNumber":44,"Velocity":67,"Duration":83102,"SoundDuration":83102,"Delta":137641863},{"NoteNumber":61,"Velocity":73,"Duration":81081,"SoundDuration":81081,"Delta":137808068},{"NoteNumber":37,"Velocity":49,"Duration":81081,"SoundDuration":81081,"Delta":137808068},{"NoteNumber":49,"Velocity":58,"Duration":81081,"SoundDuration":81081,"Delta":137808068},{"NoteNumber":57,"Velocity":72,"Duration":81967,"SoundDuration":81967,"Delta":137970230},{"NoteNumber":45,"Velocity":57,"Duration":81967,"SoundDuration":81967,"Delta":137970230},{"NoteNumber":33,"Velocity":48,"Duration":81967,"SoundDuration":81967,"Delta":137970230},{"NoteNumber":62,"Velocity":71,"Duration":80357,"SoundDuration":80357,"Delta":138134165},{"NoteNumber":50,"Velocity":56,"Duration":80357,"SoundDuration":80357,"Delta":138134165},{"NoteNumber":38,"Velocity":47,"Duration":80357,"SoundDuration":80357,"Delta":138134165},{"NoteNumber":58,"Velocity":81,"Duration":84745,"SoundDuration":84745,"Delta":138294737},{"NoteNumber":46,"Velocity":64,"Duration":84745,"SoundDuration":84745,"Delta":138294737},{"NoteNumber":34,"Velocity":54,"Duration":84745,"SoundDuration":84745,"Delta":138294737},{"NoteNumber":63,"Velocity":70,"Duration":82417,"SoundDuration":82417,"Delta":138464228},{"NoteNumber":39,"Velocity":46,"Duration":82417,"SoundDuration":82417,"Delta":138464228},{"NoteNumber":51,"Velocity":55,"Duration":82417,"SoundDuration":82417,"Delta":138464228},{"NoteNumber":55,"Velocity":73,"Duration":84269,"SoundDuration":84269,"Delta":138629063},{"NoteNumber":31,"Velocity":50,"Duration":84269,"SoundDuration":84269,"Delta":138629063},{"NoteNumber":43,"Velocity":59,"Duration":84269,"SoundDuration":84269,"Delta":138629063},{"NoteNumber":60,"Velocity":68,"Duration":80429,"SoundDuration":80429,"Delta":138797603},{"NoteNumber":36,"Velocity":45,"Duration":80429,"SoundDuration":80429,"Delta":138797603},{"NoteNumber":48,"Velocity":54,"Duration":80429,"SoundDuration":80429,"Delta":138797603},{"NoteNumber":56,"Velocity":88,"Duration":83565,"SoundDuration":83565,"Delta":138958461},{"NoteNumber":44,"Velocity":70,"Duration":83565,"SoundDuration":83565,"Delta":138958461},{"NoteNumber":32,"Velocity":59,"Duration":83565,"SoundDuration":83565,"Delta":138958461},{"NoteNumber":61,"Velocity":77,"Duration":82191,"SoundDuration":82191,"Delta":139125592},{"NoteNumber":37,"Velocity":51,"Duration":82191,"SoundDuration":82191,"Delta":139125592},{"NoteNumber":49,"Velocity":61,"Duration":82191,"SoundDuration":82191,"Delta":139125592},{"NoteNumber":57,"Velocity":79,"Duration":83333,"SoundDuration":83333,"Delta":139289975},{"NoteNumber":33,"Velocity":52,"Duration":83333,"SoundDuration":83333,"Delta":139289975},{"NoteNumber":45,"Velocity":63,"Duration":83333,"SoundDuration":83333,"Delta":139289975},{"NoteNumber":62,"Velocity":74,"Duration":80645,"SoundDuration":80645,"Delta":139456642},{"NoteNumber":38,"Velocity":50,"Duration":80645,"SoundDuration":80645,"Delta":139456642},{"NoteNumber":50,"Velocity":59,"Duration":80645,"SoundDuration":80645,"Delta":139456642},{"NoteNumber":58,"Velocity":87,"Duration":84269,"SoundDuration":84269,"Delta":139617932},{"NoteNumber":46,"Velocity":68,"Duration":84269,"SoundDuration":84269,"Delta":139617932},{"NoteNumber":34,"Velocity":58,"Duration":84269,"SoundDuration":84269,"Delta":139617932},{"NoteNumber":63,"Velocity":74,"Duration":81521,"SoundDuration":81521,"Delta":139786472},{"NoteNumber":51,"Velocity":59,"Duration":81521,"SoundDuration":81521,"Delta":139786472},{"NoteNumber":39,"Velocity":50,"Duration":81521,"SoundDuration":81521,"Delta":139786472},{"NoteNumber":89,"Velocity":62,"Duration":40760,"SoundDuration":40760,"Delta":139908754},{"NoteNumber":76,"Velocity":64,"Duration":80645,"SoundDuration":80645,"Delta":139949515},{"NoteNumber":84,"Velocity":76,"Duration":80645,"SoundDuration":80645,"Delta":139949515},{"NoteNumber":88,"Velocity":76,"Duration":80645,"SoundDuration":80645,"Delta":139949515},{"NoteNumber":31,"Velocity":61,"Duration":80645,"SoundDuration":80645,"Delta":139949515},{"NoteNumber":43,"Velocity":72,"Duration":80645,"SoundDuration":80645,"Delta":139949515},{"NoteNumber":48,"Velocity":66,"Duration":77720,"SoundDuration":77720,"Delta":140110806},{"NoteNumber":36,"Velocity":55,"Duration":77720,"SoundDuration":77720,"Delta":140110806},{"NoteNumber":87,"Velocity":60,"Duration":38860,"SoundDuration":38860,"Delta":140227386},{"NoteNumber":80,"Velocity":72,"Duration":80862,"SoundDuration":80862,"Delta":140266246},{"NoteNumber":85,"Velocity":72,"Duration":80862,"SoundDuration":80862,"Delta":140266246},{"NoteNumber":77,"Velocity":61,"Duration":80862,"SoundDuration":80862,"Delta":140266246},{"NoteNumber":44,"Velocity":69,"Duration":80862,"SoundDuration":80862,"Delta":140266246},{"NoteNumber":32,"Velocity":58,"Duration":80862,"SoundDuration":80862,"Delta":140266246},{"NoteNumber":49,"Velocity":63,"Duration":78947,"SoundDuration":78947,"Delta":140427971},{"NoteNumber":37,"Velocity":54,"Duration":78947,"SoundDuration":78947,"Delta":140427971},{"NoteNumber":86,"Velocity":58,"Duration":39473,"SoundDuration":39473,"Delta":140546392},{"NoteNumber":78,"Velocity":72,"Duration":80862,"SoundDuration":80862,"Delta":140585866},{"NoteNumber":74,"Velocity":61,"Duration":80862,"SoundDuration":80862,"Delta":140585866},{"NoteNumber":84,"Velocity":72,"Duration":80862,"SoundDuration":80862,"Delta":140585866},{"NoteNumber":33,"Velocity":61,"Duration":80862,"SoundDuration":80862,"Delta":140585866},{"NoteNumber":45,"Velocity":72,"Duration":80862,"SoundDuration":80862,"Delta":140585866},{"NoteNumber":50,"Velocity":65,"Duration":77922,"SoundDuration":77922,"Delta":140747591},{"NoteNumber":38,"Velocity":55,"Duration":77922,"SoundDuration":77922,"Delta":140747591},{"NoteNumber":84,"Velocity":55,"Duration":38961,"SoundDuration":38961,"Delta":140864474},{"NoteNumber":82,"Velocity":69,"Duration":80429,"SoundDuration":80429,"Delta":140903435},{"NoteNumber":79,"Velocity":69,"Duration":80429,"SoundDuration":80429,"Delta":140903435},{"NoteNumber":70,"Velocity":58,"Duration":80429,"SoundDuration":80429,"Delta":140903435},{"NoteNumber":46,"Velocity":70,"Duration":80429,"SoundDuration":80429,"Delta":140903435},{"NoteNumber":34,"Velocity":59,"Duration":80429,"SoundDuration":80429,"Delta":140903435},{"NoteNumber":51,"Velocity":63,"Duration":78947,"SoundDuration":78947,"Delta":141064293},{"NoteNumber":39,"Velocity":54,"Duration":78947,"SoundDuration":78947,"Delta":141064293},{"NoteNumber":77,"Velocity":58,"Duration":39473,"SoundDuration":39473,"Delta":141182713},{"NoteNumber":64,"Velocity":61,"Duration":80645,"SoundDuration":80645,"Delta":141222187},{"NoteNumber":72,"Velocity":72,"Duration":80645,"SoundDuration":80645,"Delta":141222187},{"NoteNumber":76,"Velocity":72,"Duration":80645,"SoundDuration":80645,"Delta":141222187},{"NoteNumber":43,"Velocity":72,"Duration":80645,"SoundDuration":80645,"Delta":141222187},{"NoteNumber":31,"Velocity":61,"Duration":80645,"SoundDuration":80645,"Delta":141222187},{"NoteNumber":36,"Velocity":55,"Duration":77720,"SoundDuration":77720,"Delta":141383478},{"NoteNumber":48,"Velocity":66,"Duration":77720,"SoundDuration":77720,"Delta":141383478},{"NoteNumber":75,"Velocity":56,"Duration":38860,"SoundDuration":38860,"Delta":141500058},{"NoteNumber":68,"Velocity":68,"Duration":80862,"SoundDuration":80862,"Delta":141538918},{"NoteNumber":73,"Velocity":68,"Duration":80862,"SoundDuration":80862,"Delta":141538918},{"NoteNumber":65,"Velocity":57,"Duration":80862,"SoundDuration":80862,"Delta":141538918},{"NoteNumber":44,"Velocity":69,"Duration":80862,"SoundDuration":80862,"Delta":141538918},{"NoteNumber":32,"Velocity":58,"Duration":80862,"SoundDuration":80862,"Delta":141538918},{"NoteNumber":37,"Velocity":54,"Duration":78947,"SoundDuration":78947,"Delta":141700643},{"NoteNumber":49,"Velocity":63,"Duration":78947,"SoundDuration":78947,"Delta":141700643},{"NoteNumber":74,"Velocity":54,"Duration":39473,"SoundDuration":39473,"Delta":141819064},{"NoteNumber":62,"Velocity":57,"Duration":80862,"SoundDuration":80862,"Delta":141858538},{"NoteNumber":66,"Velocity":68,"Duration":80862,"SoundDuration":80862,"Delta":141858538},{"NoteNumber":72,"Velocity":68,"Duration":80862,"SoundDuration":80862,"Delta":141858538},{"NoteNumber":45,"Velocity":72,"Duration":80862,"SoundDuration":80862,"Delta":141858538},{"NoteNumber":33,"Velocity":61,"Duration":80862,"SoundDuration":80862,"Delta":141858538},{"NoteNumber":50,"Velocity":65,"Duration":77922,"SoundDuration":77922,"Delta":142020263},{"NoteNumber":38,"Velocity":55,"Duration":77922,"SoundDuration":77922,"Delta":142020263},{"NoteNumber":72,"Velocity":52,"Duration":38961,"SoundDuration":38961,"Delta":142137146},{"NoteNumber":58,"Velocity":55,"Duration":80429,"SoundDuration":80429,"Delta":142176107},{"NoteNumber":70,"Velocity":65,"Duration":80429,"SoundDuration":80429,"Delta":142176107},{"NoteNumber":67,"Velocity":65,"Duration":80429,"SoundDuration":80429,"Delta":142176107},{"NoteNumber":46,"Velocity":70,"Duration":80429,"SoundDuration":80429,"Delta":142176107},{"NoteNumber":34,"Velocity":59,"Duration":80429,"SoundDuration":80429,"Delta":142176107},{"NoteNumber":51,"Velocity":63,"Duration":79441,"SoundDuration":79441,"Delta":142336965},{"NoteNumber":39,"Velocity":54,"Duration":79441,"SoundDuration":79441,"Delta":142336965},{"NoteNumber":55,"Velocity":76,"Duration":83798,"SoundDuration":83798,"Delta":142495353},{"NoteNumber":31,"Velocity":51,"Duration":83798,"SoundDuration":83798,"Delta":142495353},{"NoteNumber":43,"Velocity":61,"Duration":83798,"SoundDuration":83798,"Delta":142495353},{"NoteNumber":60,"Velocity":70,"Duration":80873,"SoundDuration":80873,"Delta":142662951},{"NoteNumber":36,"Velocity":46,"Duration":80873,"SoundDuration":80873,"Delta":142662951},{"NoteNumber":48,"Velocity":55,"Duration":80873,"SoundDuration":80873,"Delta":142662951},{"NoteNumber":56,"Velocity":90,"Duration":83333,"SoundDuration":83333,"Delta":142824038},{"NoteNumber":44,"Velocity":72,"Duration":83333,"SoundDuration":83333,"Delta":142824038},{"NoteNumber":32,"Velocity":61,"Duration":83333,"SoundDuration":83333,"Delta":142824038},{"NoteNumber":61,"Velocity":80,"Duration":81743,"SoundDuration":81743,"Delta":142990705},{"NoteNumber":37,"Velocity":53,"Duration":81743,"SoundDuration":81743,"Delta":142990705},{"NoteNumber":49,"Velocity":63,"Duration":81743,"SoundDuration":81743,"Delta":142990705},{"NoteNumber":57,"Velocity":78,"Duration":83798,"SoundDuration":83798,"Delta":143154192},{"NoteNumber":45,"Velocity":62,"Duration":83798,"SoundDuration":83798,"Delta":143154192},{"NoteNumber":33,"Velocity":52,"Duration":83798,"SoundDuration":83798,"Delta":143154192},{"NoteNumber":62,"Velocity":77,"Duration":79575,"SoundDuration":79575,"Delta":143321790},{"NoteNumber":50,"Velocity":62,"Duration":79575,"SoundDuration":79575,"Delta":143321790},{"NoteNumber":38,"Velocity":52,"Duration":79575,"SoundDuration":79575,"Delta":143321790},{"NoteNumber":58,"Velocity":89,"Duration":84269,"SoundDuration":84269,"Delta":143480941},{"NoteNumber":46,"Velocity":70,"Duration":84269,"SoundDuration":84269,"Delta":143480941},{"NoteNumber":34,"Velocity":59,"Duration":84269,"SoundDuration":84269,"Delta":143480941},{"NoteNumber":63,"Velocity":76,"Duration":81081,"SoundDuration":81081,"Delta":143649481},{"NoteNumber":39,"Velocity":51,"Duration":81081,"SoundDuration":81081,"Delta":143649481},{"NoteNumber":51,"Velocity":61,"Duration":81081,"SoundDuration":81081,"Delta":143649481},{"NoteNumber":55,"Velocity":81,"Duration":83102,"SoundDuration":83102,"Delta":143811643},{"NoteNumber":31,"Velocity":55,"Duration":83102,"SoundDuration":83102,"Delta":143811643},{"NoteNumber":43,"Velocity":65,"Duration":83102,"SoundDuration":83102,"Delta":143811643},{"NoteNumber":60,"Velocity":75,"Duration":79575,"SoundDuration":79575,"Delta":143977848},{"NoteNumber":48,"Velocity":59,"Duration":79575,"SoundDuration":79575,"Delta":143977848},{"NoteNumber":36,"Velocity":50,"Duration":79575,"SoundDuration":79575,"Delta":143977848},{"NoteNumber":56,"Velocity":99,"Duration":83565,"SoundDuration":83565,"Delta":144136999},{"NoteNumber":44,"Velocity":79,"Duration":83565,"SoundDuration":83565,"Delta":144136999},{"NoteNumber":32,"Velocity":66,"Duration":83565,"SoundDuration":83565,"Delta":144136999},{"NoteNumber":61,"Velocity":86,"Duration":81743,"SoundDuration":81743,"Delta":144304130},{"NoteNumber":37,"Velocity":57,"Duration":81743,"SoundDuration":81743,"Delta":144304130},{"NoteNumber":49,"Velocity":68,"Duration":81743,"SoundDuration":81743,"Delta":144304130},{"NoteNumber":57,"Velocity":88,"Duration":83102,"SoundDuration":83102,"Delta":144467617},{"NoteNumber":45,"Velocity":70,"Duration":83102,"SoundDuration":83102,"Delta":144467617},{"NoteNumber":33,"Velocity":59,"Duration":83102,"SoundDuration":83102,"Delta":144467617},{"NoteNumber":62,"Velocity":83,"Duration":78740,"SoundDuration":78740,"Delta":144633822},{"NoteNumber":50,"Velocity":66,"Duration":78740,"SoundDuration":78740,"Delta":144633822},{"NoteNumber":38,"Velocity":55,"Duration":78740,"SoundDuration":78740,"Delta":144633822},{"NoteNumber":58,"Velocity":99,"Duration":84985,"SoundDuration":84985,"Delta":144791303},{"NoteNumber":46,"Velocity":77,"Duration":84985,"SoundDuration":84985,"Delta":144791303},{"NoteNumber":34,"Velocity":64,"Duration":84985,"SoundDuration":84985,"Delta":144791303},{"NoteNumber":63,"Velocity":84,"Duration":82873,"SoundDuration":82873,"Delta":144961274},{"NoteNumber":51,"Velocity":67,"Duration":82873,"SoundDuration":82873,"Delta":144961274},{"NoteNumber":39,"Velocity":56,"Duration":82873,"SoundDuration":82873,"Delta":144961274},{"NoteNumber":67,"Velocity":79,"Duration":167131,"SoundDuration":167131,"Delta":145127020},{"NoteNumber":60,"Velocity":67,"Duration":167131,"SoundDuration":167131,"Delta":145127020},{"NoteNumber":64,"Velocity":67,"Duration":167131,"SoundDuration":167131,"Delta":145127020},{"NoteNumber":72,"Velocity":79,"Duration":167131,"SoundDuration":167131,"Delta":145127020},{"NoteNumber":43,"Velocity":70,"Duration":167131,"SoundDuration":167131,"Delta":145127020},{"NoteNumber":31,"Velocity":59,"Duration":167131,"SoundDuration":167131,"Delta":145127020},{"NoteNumber":42,"Velocity":65,"Duration":167130,"SoundDuration":167130,"Delta":145294151},{"NoteNumber":72,"Velocity":61,"Duration":329669,"SoundDuration":329669,"Delta":145461282},{"NoteNumber":79,"Velocity":72,"Duration":329669,"SoundDuration":329669,"Delta":145461282},{"NoteNumber":76,"Velocity":72,"Duration":329669,"SoundDuration":329669,"Delta":145461282},{"NoteNumber":67,"Velocity":61,"Duration":329669,"SoundDuration":329669,"Delta":145461282},{"NoteNumber":31,"Velocity":59,"Duration":164835,"SoundDuration":164835,"Delta":145461282},{"NoteNumber":43,"Velocity":70,"Duration":164835,"SoundDuration":164835,"Delta":145461282},{"NoteNumber":42,"Velocity":65,"Duration":164834,"SoundDuration":164834,"Delta":145626117},{"NoteNumber":67,"Velocity":63,"Duration":329669,"SoundDuration":329669,"Delta":145790952},{"NoteNumber":79,"Velocity":75,"Duration":329669,"SoundDuration":329669,"Delta":145790952},{"NoteNumber":72,"Velocity":63,"Duration":329669,"SoundDuration":329669,"Delta":145790952},{"NoteNumber":76,"Velocity":75,"Duration":329669,"SoundDuration":329669,"Delta":145790952},{"NoteNumber":43,"Velocity":70,"Duration":164835,"SoundDuration":164835,"Delta":145790952},{"NoteNumber":31,"Velocity":59,"Duration":164835,"SoundDuration":164835,"Delta":145790952},{"NoteNumber":42,"Velocity":65,"Duration":164834,"SoundDuration":164834,"Delta":145955787},{"NoteNumber":67,"Velocity":61,"Duration":288461,"SoundDuration":288461,"Delta":146120622},{"NoteNumber":79,"Velocity":72,"Duration":288461,"SoundDuration":288461,"Delta":146120622},{"NoteNumber":72,"Velocity":61,"Duration":288461,"SoundDuration":288461,"Delta":146120622},{"NoteNumber":76,"Velocity":72,"Duration":288461,"SoundDuration":288461,"Delta":146120622},{"NoteNumber":31,"Velocity":59,"Duration":164835,"SoundDuration":164835,"Delta":146120622},{"NoteNumber":43,"Velocity":70,"Duration":164835,"SoundDuration":164835,"Delta":146120622},{"NoteNumber":42,"Velocity":65,"Duration":167743,"SoundDuration":167743,"Delta":146285457},{"NoteNumber":68,"Velocity":54,"Duration":44117,"SoundDuration":44117,"Delta":146409083},{"NoteNumber":80,"Velocity":64,"Duration":44117,"SoundDuration":44117,"Delta":146409083},{"NoteNumber":67,"Velocity":61,"Duration":168067,"SoundDuration":168067,"Delta":146453201},{"NoteNumber":79,"Velocity":72,"Duration":168067,"SoundDuration":168067,"Delta":146453201},{"NoteNumber":31,"Velocity":59,"Duration":168067,"SoundDuration":168067,"Delta":146453201},{"NoteNumber":43,"Velocity":70,"Duration":168067,"SoundDuration":168067,"Delta":146453201},{"NoteNumber":42,"Velocity":67,"Duration":168066,"SoundDuration":168066,"Delta":146621268},{"NoteNumber":64,"Velocity":58,"Duration":340909,"SoundDuration":340909,"Delta":146789335},{"NoteNumber":60,"Velocity":58,"Duration":340909,"SoundDuration":340909,"Delta":146789335},{"NoteNumber":67,"Velocity":69,"Duration":340909,"SoundDuration":340909,"Delta":146789335},{"NoteNumber":72,"Velocity":69,"Duration":340909,"SoundDuration":340909,"Delta":146789335},{"NoteNumber":43,"Velocity":70,"Duration":170454,"SoundDuration":170454,"Delta":146789335},{"NoteNumber":31,"Velocity":59,"Duration":170454,"SoundDuration":170454,"Delta":146789335},{"NoteNumber":42,"Velocity":67,"Duration":170454,"SoundDuration":170454,"Delta":146959790},{"NoteNumber":62,"Velocity":62,"Duration":503275,"SoundDuration":503275,"Delta":147130244},{"NoteNumber":74,"Velocity":73,"Duration":503275,"SoundDuration":503275,"Delta":147130244},{"NoteNumber":65,"Velocity":62,"Duration":503275,"SoundDuration":503275,"Delta":147130244},{"NoteNumber":68,"Velocity":73,"Duration":503275,"SoundDuration":503275,"Delta":147130244},{"NoteNumber":36,"Velocity":61,"Duration":169014,"SoundDuration":169014,"Delta":147130244},{"NoteNumber":48,"Velocity":72,"Duration":169014,"SoundDuration":169014,"Delta":147130244},{"NoteNumber":46,"Velocity":71,"Duration":167131,"SoundDuration":167131,"Delta":147299258},{"NoteNumber":34,"Velocity":60,"Duration":167131,"SoundDuration":167131,"Delta":147299258},{"NoteNumber":33,"Velocity":59,"Duration":167130,"SoundDuration":167130,"Delta":147466389},{"NoteNumber":45,"Velocity":70,"Duration":167130,"SoundDuration":167130,"Delta":147466389},{"NoteNumber":44,"Velocity":69,"Duration":171284,"SoundDuration":171284,"Delta":147633520},{"NoteNumber":32,"Velocity":58,"Duration":171284,"SoundDuration":171284,"Delta":147633520},{"NoteNumber":67,"Velocity":79,"Duration":167597,"SoundDuration":167597,"Delta":147804805},{"NoteNumber":72,"Velocity":79,"Duration":167597,"SoundDuration":167597,"Delta":147804805},{"NoteNumber":64,"Velocity":67,"Duration":167597,"SoundDuration":167597,"Delta":147804805},{"NoteNumber":60,"Velocity":67,"Duration":167597,"SoundDuration":167597,"Delta":147804805},{"NoteNumber":43,"Velocity":70,"Duration":167597,"SoundDuration":167597,"Delta":147804805},{"NoteNumber":31,"Velocity":59,"Duration":167597,"SoundDuration":167597,"Delta":147804805},{"NoteNumber":42,"Velocity":65,"Duration":167597,"SoundDuration":167597,"Delta":147972403},{"NoteNumber":72,"Velocity":61,"Duration":329669,"SoundDuration":329669,"Delta":148140001},{"NoteNumber":67,"Velocity":61,"Duration":329669,"SoundDuration":329669,"Delta":148140001},{"NoteNumber":79,"Velocity":72,"Duration":329669,"SoundDuration":329669,"Delta":148140001},{"NoteNumber":76,"Velocity":72,"Duration":329669,"SoundDuration":329669,"Delta":148140001},{"NoteNumber":31,"Velocity":59,"Duration":164835,"SoundDuration":164835,"Delta":148140001},{"NoteNumber":43,"Velocity":70,"Duration":164835,"SoundDuration":164835,"Delta":148140001},{"NoteNumber":42,"Velocity":65,"Duration":164834,"SoundDuration":164834,"Delta":148304836},{"NoteNumber":76,"Velocity":75,"Duration":329669,"SoundDuration":329669,"Delta":148469671},{"NoteNumber":79,"Velocity":75,"Duration":329669,"SoundDuration":329669,"Delta":148469671},{"NoteNumber":72,"Velocity":63,"Duration":329669,"SoundDuration":329669,"Delta":148469671},{"NoteNumber":67,"Velocity":63,"Duration":329669,"SoundDuration":329669,"Delta":148469671},{"NoteNumber":31,"Velocity":59,"Duration":164835,"SoundDuration":164835,"Delta":148469671},{"NoteNumber":43,"Velocity":70,"Duration":164835,"SoundDuration":164835,"Delta":148469671},{"NoteNumber":42,"Velocity":65,"Duration":164834,"SoundDuration":164834,"Delta":148634506},{"NoteNumber":76,"Velocity":72,"Duration":288461,"SoundDuration":288461,"Delta":148799341},{"NoteNumber":67,"Velocity":61,"Duration":288461,"SoundDuration":288461,"Delta":148799341},{"NoteNumber":72,"Velocity":61,"Duration":288461,"SoundDuration":288461,"Delta":148799341},{"NoteNumber":79,"Velocity":72,"Duration":288461,"SoundDuration":288461,"Delta":148799341},{"NoteNumber":43,"Velocity":70,"Duration":164835,"SoundDuration":164835,"Delta":148799341},{"NoteNumber":31,"Velocity":59,"Duration":164835,"SoundDuration":164835,"Delta":148799341},{"NoteNumber":42,"Velocity":65,"Duration":167874,"SoundDuration":167874,"Delta":148964176},{"NoteNumber":81,"Velocity":64,"Duration":44247,"SoundDuration":44247,"Delta":149087802},{"NoteNumber":69,"Velocity":54,"Duration":44247,"SoundDuration":44247,"Delta":149087802},{"NoteNumber":67,"Velocity":61,"Duration":168067,"SoundDuration":168067,"Delta":149132050},{"NoteNumber":79,"Velocity":72,"Duration":168067,"SoundDuration":168067,"Delta":149132050},{"NoteNumber":43,"Velocity":70,"Duration":168067,"SoundDuration":168067,"Delta":149132050},{"NoteNumber":31,"Velocity":59,"Duration":168067,"SoundDuration":168067,"Delta":149132050},{"NoteNumber":42,"Velocity":67,"Duration":168066,"SoundDuration":168066,"Delta":149300117},{"NoteNumber":60,"Velocity":58,"Duration":340909,"SoundDuration":340909,"Delta":149468184},{"NoteNumber":72,"Velocity":69,"Duration":340909,"SoundDuration":340909,"Delta":149468184},{"NoteNumber":64,"Velocity":58,"Duration":340909,"SoundDuration":340909,"Delta":149468184},{"NoteNumber":67,"Velocity":69,"Duration":340909,"SoundDuration":340909,"Delta":149468184},{"NoteNumber":43,"Velocity":70,"Duration":170454,"SoundDuration":170454,"Delta":149468184},{"NoteNumber":31,"Velocity":59,"Duration":170454,"SoundDuration":170454,"Delta":149468184},{"NoteNumber":42,"Velocity":67,"Duration":170454,"SoundDuration":170454,"Delta":149638638},{"NoteNumber":69,"Velocity":73,"Duration":505147,"SoundDuration":505147,"Delta":149809093},{"NoteNumber":62,"Velocity":62,"Duration":505147,"SoundDuration":505147,"Delta":149809093},{"NoteNumber":66,"Velocity":62,"Duration":505147,"SoundDuration":505147,"Delta":149809093},{"NoteNumber":74,"Velocity":73,"Duration":505147,"SoundDuration":505147,"Delta":149809093},{"NoteNumber":36,"Velocity":61,"Duration":169014,"SoundDuration":169014,"Delta":149809093},{"NoteNumber":48,"Velocity":72,"Duration":169014,"SoundDuration":169014,"Delta":149809093},{"NoteNumber":47,"Velocity":71,"Duration":168067,"SoundDuration":168067,"Delta":149978107},{"NoteNumber":35,"Velocity":60,"Duration":168067,"SoundDuration":168067,"Delta":149978107},{"NoteNumber":46,"Velocity":70,"Duration":168066,"SoundDuration":168066,"Delta":150146174},{"NoteNumber":34,"Velocity":59,"Duration":168066,"SoundDuration":168066,"Delta":150146174},{"NoteNumber":45,"Velocity":69,"Duration":173054,"SoundDuration":173054,"Delta":150314241},{"NoteNumber":33,"Velocity":58,"Duration":173054,"SoundDuration":173054,"Delta":150314241},{"NoteNumber":75,"Velocity":83,"Duration":168539,"SoundDuration":168539,"Delta":150487295},{"NoteNumber":69,"Velocity":70,"Duration":168539,"SoundDuration":168539,"Delta":150487295},{"NoteNumber":78,"Velocity":83,"Duration":168539,"SoundDuration":168539,"Delta":150487295},{"NoteNumber":66,"Velocity":70,"Duration":1339864,"SoundDuration":1339864,"Delta":150487295},{"NoteNumber":75,"Velocity":61,"Duration":334261,"SoundDuration":334261,"Delta":150824374},{"NoteNumber":69,"Velocity":61,"Duration":334261,"SoundDuration":334261,"Delta":150824374},{"NoteNumber":81,"Velocity":72,"Duration":334261,"SoundDuration":334261,"Delta":150824374},{"NoteNumber":78,"Velocity":72,"Duration":334261,"SoundDuration":334261,"Delta":150824374},{"NoteNumber":48,"Velocity":50,"Duration":334261,"SoundDuration":334261,"Delta":150824374},{"NoteNumber":60,"Velocity":59,"Duration":334261,"SoundDuration":334261,"Delta":150824374},{"NoteNumber":75,"Velocity":63,"Duration":334261,"SoundDuration":334261,"Delta":151158636},{"NoteNumber":81,"Velocity":75,"Duration":334261,"SoundDuration":334261,"Delta":151158636},{"NoteNumber":78,"Velocity":75,"Duration":334261,"SoundDuration":334261,"Delta":151158636},{"NoteNumber":69,"Velocity":63,"Duration":334261,"SoundDuration":334261,"Delta":151158636},{"NoteNumber":48,"Velocity":63,"Duration":334261,"SoundDuration":334261,"Delta":151158636},{"NoteNumber":36,"Velocity":54,"Duration":334261,"SoundDuration":334261,"Delta":151158636},{"NoteNumber":69,"Velocity":61,"Duration":334261,"SoundDuration":334261,"Delta":151492898},{"NoteNumber":81,"Velocity":72,"Duration":334261,"SoundDuration":334261,"Delta":151492898},{"NoteNumber":75,"Velocity":61,"Duration":334261,"SoundDuration":334261,"Delta":151492898},{"NoteNumber":78,"Velocity":72,"Duration":334261,"SoundDuration":334261,"Delta":151492898},{"NoteNumber":60,"Velocity":60,"Duration":334261,"SoundDuration":334261,"Delta":151492898},{"NoteNumber":48,"Velocity":50,"Duration":334261,"SoundDuration":334261,"Delta":151492898},{"NoteNumber":82,"Velocity":69,"Duration":163043,"SoundDuration":163043,"Delta":151827160},{"NoteNumber":91,"Velocity":82,"Duration":163043,"SoundDuration":163043,"Delta":151827160},{"NoteNumber":87,"Velocity":82,"Duration":163043,"SoundDuration":163043,"Delta":151827160},{"NoteNumber":79,"Velocity":69,"Duration":163043,"SoundDuration":163043,"Delta":151827160},{"NoteNumber":70,"Velocity":70,"Duration":656204,"SoundDuration":656204,"Delta":151827160},{"NoteNumber":86,"Velocity":72,"Duration":164383,"SoundDuration":164383,"Delta":151990204},{"NoteNumber":74,"Velocity":61,"Duration":164383,"SoundDuration":164383,"Delta":151990204},{"NoteNumber":87,"Velocity":77,"Duration":163487,"SoundDuration":163487,"Delta":152154587},{"NoteNumber":75,"Velocity":65,"Duration":163487,"SoundDuration":163487,"Delta":152154587},{"NoteNumber":55,"Velocity":59,"Duration":328777,"SoundDuration":328777,"Delta":152154587},{"NoteNumber":43,"Velocity":50,"Duration":328777,"SoundDuration":328777,"Delta":152154587},{"NoteNumber":70,"Velocity":61,"Duration":829223,"SoundDuration":829223,"Delta":152318075},{"NoteNumber":82,"Velocity":72,"Duration":165289,"SoundDuration":165289,"Delta":152318075},{"NoteNumber":87,"Velocity":80,"Duration":163934,"SoundDuration":163934,"Delta":152483364},{"NoteNumber":79,"Velocity":68,"Duration":163934,"SoundDuration":163934,"Delta":152483364},{"NoteNumber":82,"Velocity":68,"Duration":163934,"SoundDuration":163934,"Delta":152483364},{"NoteNumber":91,"Velocity":80,"Duration":163934,"SoundDuration":163934,"Delta":152483364},{"NoteNumber":43,"Velocity":63,"Duration":330601,"SoundDuration":330601,"Delta":152483364},{"NoteNumber":31,"Velocity":54,"Duration":330601,"SoundDuration":330601,"Delta":152483364},{"NoteNumber":74,"Velocity":61,"Duration":166666,"SoundDuration":166666,"Delta":152647299},{"NoteNumber":86,"Velocity":72,"Duration":166666,"SoundDuration":166666,"Delta":152647299},{"NoteNumber":75,"Velocity":65,"Duration":166666,"SoundDuration":166666,"Delta":152813965},{"NoteNumber":87,"Velocity":77,"Duration":166666,"SoundDuration":166666,"Delta":152813965},{"NoteNumber":55,"Velocity":60,"Duration":333333,"SoundDuration":333333,"Delta":152813965},{"NoteNumber":43,"Velocity":50,"Duration":333333,"SoundDuration":333333,"Delta":152813965},{"NoteNumber":70,"Velocity":61,"Duration":166666,"SoundDuration":166666,"Delta":152980632},{"NoteNumber":82,"Velocity":72,"Duration":166666,"SoundDuration":166666,"Delta":152980632},{"NoteNumber":75,"Velocity":83,"Duration":168539,"SoundDuration":168539,"Delta":153147298},{"NoteNumber":69,"Velocity":70,"Duration":168539,"SoundDuration":168539,"Delta":153147298},{"NoteNumber":78,"Velocity":83,"Duration":168539,"SoundDuration":168539,"Delta":153147298},{"NoteNumber":66,"Velocity":70,"Duration":1339864,"SoundDuration":1339864,"Delta":153147298},{"NoteNumber":75,"Velocity":61,"Duration":334261,"SoundDuration":334261,"Delta":153484377},{"NoteNumber":81,"Velocity":72,"Duration":334261,"SoundDuration":334261,"Delta":153484377},{"NoteNumber":78,"Velocity":72,"Duration":334261,"SoundDuration":334261,"Delta":153484377},{"NoteNumber":69,"Velocity":61,"Duration":334261,"SoundDuration":334261,"Delta":153484377},{"NoteNumber":60,"Velocity":59,"Duration":334261,"SoundDuration":334261,"Delta":153484377},{"NoteNumber":48,"Velocity":50,"Duration":334261,"SoundDuration":334261,"Delta":153484377},{"NoteNumber":69,"Velocity":63,"Duration":334261,"SoundDuration":334261,"Delta":153818639},{"NoteNumber":81,"Velocity":75,"Duration":334261,"SoundDuration":334261,"Delta":153818639},{"NoteNumber":75,"Velocity":63,"Duration":334261,"SoundDuration":334261,"Delta":153818639},{"NoteNumber":78,"Velocity":75,"Duration":334261,"SoundDuration":334261,"Delta":153818639},{"NoteNumber":36,"Velocity":54,"Duration":334261,"SoundDuration":334261,"Delta":153818639},{"NoteNumber":48,"Velocity":63,"Duration":334261,"SoundDuration":334261,"Delta":153818639},{"NoteNumber":78,"Velocity":72,"Duration":334261,"SoundDuration":334261,"Delta":154152901},{"NoteNumber":69,"Velocity":61,"Duration":334261,"SoundDuration":334261,"Delta":154152901},{"NoteNumber":75,"Velocity":61,"Duration":334261,"SoundDuration":334261,"Delta":154152901},{"NoteNumber":81,"Velocity":72,"Duration":334261,"SoundDuration":334261,"Delta":154152901},{"NoteNumber":60,"Velocity":60,"Duration":334261,"SoundDuration":334261,"Delta":154152901},{"NoteNumber":48,"Velocity":50,"Duration":334261,"SoundDuration":334261,"Delta":154152901},{"NoteNumber":87,"Velocity":69,"Duration":167131,"SoundDuration":167131,"Delta":154487163},{"NoteNumber":94,"Velocity":82,"Duration":167131,"SoundDuration":167131,"Delta":154487163},{"NoteNumber":82,"Velocity":69,"Duration":167131,"SoundDuration":167131,"Delta":154487163},{"NoteNumber":91,"Velocity":82,"Duration":167131,"SoundDuration":167131,"Delta":154487163},{"NoteNumber":70,"Velocity":70,"Duration":1318865,"SoundDuration":1318865,"Delta":154487163},{"NoteNumber":94,"Velocity":80,"Duration":161290,"SoundDuration":161290,"Delta":154821425},{"NoteNumber":82,"Velocity":68,"Duration":161290,"SoundDuration":161290,"Delta":154821425},{"NoteNumber":43,"Velocity":50,"Duration":327036,"SoundDuration":327036,"Delta":154821425},{"NoteNumber":55,"Velocity":59,"Duration":327036,"SoundDuration":327036,"Delta":154821425},{"NoteNumber":89,"Velocity":72,"Duration":165746,"SoundDuration":165746,"Delta":154982716},{"NoteNumber":77,"Velocity":61,"Duration":165746,"SoundDuration":165746,"Delta":154982716},{"NoteNumber":91,"Velocity":73,"Duration":163487,"SoundDuration":163487,"Delta":155148462},{"NoteNumber":79,"Velocity":62,"Duration":163487,"SoundDuration":163487,"Delta":155148462},{"NoteNumber":87,"Velocity":73,"Duration":163487,"SoundDuration":163487,"Delta":155148462},{"NoteNumber":82,"Velocity":62,"Duration":163487,"SoundDuration":163487,"Delta":155148462},{"NoteNumber":43,"Velocity":63,"Duration":328777,"SoundDuration":328777,"Delta":155148462},{"NoteNumber":31,"Velocity":54,"Duration":328777,"SoundDuration":328777,"Delta":155148462},{"NoteNumber":75,"Velocity":58,"Duration":165289,"SoundDuration":165289,"Delta":155311949},{"NoteNumber":87,"Velocity":69,"Duration":165289,"SoundDuration":165289,"Delta":155311949},{"NoteNumber":86,"Velocity":77,"Duration":163043,"SoundDuration":163043,"Delta":155477239},{"NoteNumber":74,"Velocity":65,"Duration":163043,"SoundDuration":163043,"Delta":155477239},{"NoteNumber":43,"Velocity":50,"Duration":328789,"SoundDuration":328789,"Delta":155477239},{"NoteNumber":55,"Velocity":60,"Duration":328789,"SoundDuration":328789,"Delta":155477239},{"NoteNumber":82,"Velocity":72,"Duration":165746,"SoundDuration":165746,"Delta":155640282},{"NoteNumber":70,"Velocity":61,"Duration":165746,"SoundDuration":165746,"Delta":155640282},{"NoteNumber":81,"Velocity":83,"Duration":168539,"SoundDuration":168539,"Delta":155806028},{"NoteNumber":83,"Velocity":83,"Duration":168539,"SoundDuration":168539,"Delta":155806028},{"NoteNumber":75,"Velocity":70,"Duration":168539,"SoundDuration":168539,"Delta":155806028},{"NoteNumber":71,"Velocity":70,"Duration":168539,"SoundDuration":168539,"Delta":155806028},{"NoteNumber":66,"Velocity":70,"Duration":1339864,"SoundDuration":1339864,"Delta":155806028},{"NoteNumber":78,"Velocity":72,"Duration":334261,"SoundDuration":334261,"Delta":156143107},{"NoteNumber":75,"Velocity":61,"Duration":334261,"SoundDuration":334261,"Delta":156143107},{"NoteNumber":83,"Velocity":72,"Duration":334261,"SoundDuration":334261,"Delta":156143107},{"NoteNumber":87,"Velocity":72,"Duration":334261,"SoundDuration":334261,"Delta":156143107},{"NoteNumber":57,"Velocity":59,"Duration":334261,"SoundDuration":334261,"Delta":156143107},{"NoteNumber":45,"Velocity":50,"Duration":334261,"SoundDuration":334261,"Delta":156143107},{"NoteNumber":75,"Velocity":63,"Duration":334261,"SoundDuration":334261,"Delta":156477369},{"NoteNumber":87,"Velocity":75,"Duration":334261,"SoundDuration":334261,"Delta":156477369},{"NoteNumber":78,"Velocity":75,"Duration":334261,"SoundDuration":334261,"Delta":156477369},{"NoteNumber":83,"Velocity":75,"Duration":334261,"SoundDuration":334261,"Delta":156477369},{"NoteNumber":33,"Velocity":54,"Duration":334261,"SoundDuration":334261,"Delta":156477369},{"NoteNumber":45,"Velocity":63,"Duration":334261,"SoundDuration":334261,"Delta":156477369},{"NoteNumber":83,"Velocity":72,"Duration":334261,"SoundDuration":334261,"Delta":156811631},{"NoteNumber":87,"Velocity":72,"Duration":334261,"SoundDuration":334261,"Delta":156811631},{"NoteNumber":75,"Velocity":61,"Duration":334261,"SoundDuration":334261,"Delta":156811631},{"NoteNumber":78,"Velocity":72,"Duration":334261,"SoundDuration":334261,"Delta":156811631},{"NoteNumber":45,"Velocity":50,"Duration":334261,"SoundDuration":334261,"Delta":156811631},{"NoteNumber":57,"Velocity":60,"Duration":334261,"SoundDuration":334261,"Delta":156811631},{"NoteNumber":91,"Velocity":78,"Duration":163487,"SoundDuration":163487,"Delta":157145893},{"NoteNumber":79,"Velocity":66,"Duration":163487,"SoundDuration":163487,"Delta":157145893},{"NoteNumber":88,"Velocity":78,"Duration":163487,"SoundDuration":163487,"Delta":157145893},{"NoteNumber":84,"Velocity":66,"Duration":163487,"SoundDuration":163487,"Delta":157145893},{"NoteNumber":70,"Velocity":70,"Duration":1317423,"SoundDuration":1317423,"Delta":157145893},{"NoteNumber":74,"Velocity":61,"Duration":165746,"SoundDuration":165746,"Delta":157309381},{"NoteNumber":86,"Velocity":72,"Duration":165746,"SoundDuration":165746,"Delta":157309381},{"NoteNumber":88,"Velocity":76,"Duration":163043,"SoundDuration":163043,"Delta":157475127},{"NoteNumber":76,"Velocity":64,"Duration":163043,"SoundDuration":163043,"Delta":157475127},{"NoteNumber":52,"Velocity":59,"Duration":328789,"SoundDuration":328789,"Delta":157475127},{"NoteNumber":40,"Velocity":50,"Duration":328789,"SoundDuration":328789,"Delta":157475127},{"NoteNumber":84,"Velocity":67,"Duration":165746,"SoundDuration":165746,"Delta":157638170},{"NoteNumber":72,"Velocity":56,"Duration":165746,"SoundDuration":165746,"Delta":157638170},{"NoteNumber":84,"Velocity":78,"Duration":162161,"SoundDuration":162161,"Delta":157803916},{"NoteNumber":79,"Velocity":66,"Duration":162161,"SoundDuration":162161,"Delta":157803916},{"NoteNumber":88,"Velocity":78,"Duration":162161,"SoundDuration":162161,"Delta":157803916},{"NoteNumber":91,"Velocity":78,"Duration":162161,"SoundDuration":162161,"Delta":157803916},{"NoteNumber":28,"Velocity":54,"Duration":327908,"SoundDuration":327908,"Delta":157803916},{"NoteNumber":40,"Velocity":63,"Duration":327908,"SoundDuration":327908,"Delta":157803916},{"NoteNumber":86,"Velocity":68,"Duration":165746,"SoundDuration":165746,"Delta":157966078},{"NoteNumber":74,"Velocity":57,"Duration":165746,"SoundDuration":165746,"Delta":157966078},{"NoteNumber":88,"Velocity":73,"Duration":165745,"SoundDuration":165745,"Delta":158131824},{"NoteNumber":76,"Velocity":62,"Duration":165745,"SoundDuration":165745,"Delta":158131824},{"NoteNumber":40,"Velocity":50,"Duration":331491,"SoundDuration":331491,"Delta":158131824},{"NoteNumber":52,"Velocity":60,"Duration":331491,"SoundDuration":331491,"Delta":158131824},{"NoteNumber":72,"Velocity":56,"Duration":165746,"SoundDuration":165746,"Delta":158297570},{"NoteNumber":84,"Velocity":66,"Duration":165746,"SoundDuration":165746,"Delta":158297570},{"NoteNumber":75,"Velocity":70,"Duration":168539,"SoundDuration":168539,"Delta":158463316},{"NoteNumber":71,"Velocity":70,"Duration":168539,"SoundDuration":168539,"Delta":158463316},{"NoteNumber":83,"Velocity":83,"Duration":168539,"SoundDuration":168539,"Delta":158463316},{"NoteNumber":81,"Velocity":83,"Duration":168539,"SoundDuration":168539,"Delta":158463316},{"NoteNumber":66,"Velocity":70,"Duration":1339864,"SoundDuration":1339864,"Delta":158463316},{"NoteNumber":78,"Velocity":61,"Duration":334261,"SoundDuration":334261,"Delta":158800395},{"NoteNumber":87,"Velocity":72,"Duration":334261,"SoundDuration":334261,"Delta":158800395},{"NoteNumber":83,"Velocity":72,"Duration":334261,"SoundDuration":334261,"Delta":158800395},{"NoteNumber":75,"Velocity":61,"Duration":334261,"SoundDuration":334261,"Delta":158800395},{"NoteNumber":45,"Velocity":50,"Duration":334261,"SoundDuration":334261,"Delta":158800395},{"NoteNumber":57,"Velocity":59,"Duration":334261,"SoundDuration":334261,"Delta":158800395},{"NoteNumber":75,"Velocity":63,"Duration":334261,"SoundDuration":334261,"Delta":159134657},{"NoteNumber":87,"Velocity":75,"Duration":334261,"SoundDuration":334261,"Delta":159134657},{"NoteNumber":78,"Velocity":63,"Duration":334261,"SoundDuration":334261,"Delta":159134657},{"NoteNumber":83,"Velocity":75,"Duration":334261,"SoundDuration":334261,"Delta":159134657},{"NoteNumber":45,"Velocity":63,"Duration":334261,"SoundDuration":334261,"Delta":159134657},{"NoteNumber":33,"Velocity":54,"Duration":334261,"SoundDuration":334261,"Delta":159134657},{"NoteNumber":83,"Velocity":72,"Duration":334261,"SoundDuration":334261,"Delta":159468919},{"NoteNumber":75,"Velocity":61,"Duration":334261,"SoundDuration":334261,"Delta":159468919},{"NoteNumber":78,"Velocity":61,"Duration":334261,"SoundDuration":334261,"Delta":159468919},{"NoteNumber":87,"Velocity":72,"Duration":334261,"SoundDuration":334261,"Delta":159468919},{"NoteNumber":45,"Velocity":50,"Duration":334261,"SoundDuration":334261,"Delta":159468919},{"NoteNumber":57,"Velocity":60,"Duration":334261,"SoundDuration":334261,"Delta":159468919},{"NoteNumber":88,"Velocity":66,"Duration":165746,"SoundDuration":165746,"Delta":159803181},{"NoteNumber":96,"Velocity":78,"Duration":165746,"SoundDuration":165746,"Delta":159803181},{"NoteNumber":84,"Velocity":66,"Duration":165746,"SoundDuration":165746,"Delta":159803181},{"NoteNumber":91,"Velocity":78,"Duration":165746,"SoundDuration":165746,"Delta":159803181},{"NoteNumber":72,"Velocity":70,"Duration":1330312,"SoundDuration":1330312,"Delta":159803181},{"NoteNumber":96,"Velocity":76,"Duration":162601,"SoundDuration":162601,"Delta":160134673},{"NoteNumber":84,"Velocity":64,"Duration":162601,"SoundDuration":162601,"Delta":160134673},{"NoteNumber":40,"Velocity":50,"Duration":326536,"SoundDuration":326536,"Delta":160134673},{"NoteNumber":52,"Velocity":59,"Duration":326536,"SoundDuration":326536,"Delta":160134673},{"NoteNumber":91,"Velocity":67,"Duration":163934,"SoundDuration":163934,"Delta":160297275},{"NoteNumber":79,"Velocity":56,"Duration":163934,"SoundDuration":163934,"Delta":160297275},{"NoteNumber":84,"Velocity":57,"Duration":166666,"SoundDuration":166666,"Delta":160461209},{"NoteNumber":93,"Velocity":68,"Duration":166666,"SoundDuration":166666,"Delta":160461209},{"NoteNumber":88,"Velocity":68,"Duration":166666,"SoundDuration":166666,"Delta":160461209},{"NoteNumber":81,"Velocity":57,"Duration":166666,"SoundDuration":166666,"Delta":160461209},{"NoteNumber":28,"Velocity":54,"Duration":335205,"SoundDuration":335205,"Delta":160461209},{"NoteNumber":40,"Velocity":63,"Duration":335205,"SoundDuration":335205,"Delta":160461209},{"NoteNumber":89,"Velocity":64,"Duration":168539,"SoundDuration":168539,"Delta":160627876},{"NoteNumber":77,"Velocity":54,"Duration":168539,"SoundDuration":168539,"Delta":160627876},{"NoteNumber":88,"Velocity":73,"Duration":168539,"SoundDuration":168539,"Delta":160796415},{"NoteNumber":76,"Velocity":62,"Duration":168539,"SoundDuration":168539,"Delta":160796415},{"NoteNumber":40,"Velocity":50,"Duration":337078,"SoundDuration":337078,"Delta":160796415},{"NoteNumber":52,"Velocity":60,"Duration":337078,"SoundDuration":337078,"Delta":160796415},{"NoteNumber":84,"Velocity":66,"Duration":168539,"SoundDuration":168539,"Delta":160964955},{"NoteNumber":72,"Velocity":56,"Duration":168539,"SoundDuration":168539,"Delta":160964955},{"NoteNumber":55,"Velocity":66,"Duration":169971,"SoundDuration":169971,"Delta":161133494},{"NoteNumber":67,"Velocity":78,"Duration":169971,"SoundDuration":169971,"Delta":161133494},{"NoteNumber":31,"Velocity":57,"Duration":169971,"SoundDuration":169971,"Delta":161133494},{"NoteNumber":43,"Velocity":68,"Duration":169971,"SoundDuration":169971,"Delta":161133494},{"NoteNumber":103,"Velocity":73,"Duration":164383,"SoundDuration":164383,"Delta":161473437},{"NoteNumber":91,"Velocity":73,"Duration":164383,"SoundDuration":164383,"Delta":161473437},{"NoteNumber":79,"Velocity":66,"Duration":164383,"SoundDuration":164383,"Delta":161473437},{"NoteNumber":86,"Velocity":56,"Duration":167131,"SoundDuration":167131,"Delta":161637821},{"NoteNumber":98,"Velocity":67,"Duration":167131,"SoundDuration":167131,"Delta":161637821},{"NoteNumber":74,"Velocity":60,"Duration":167131,"SoundDuration":167131,"Delta":161637821},{"NoteNumber":99,"Velocity":70,"Duration":164835,"SoundDuration":164835,"Delta":161804952},{"NoteNumber":87,"Velocity":59,"Duration":164835,"SoundDuration":164835,"Delta":161804952},{"NoteNumber":75,"Velocity":65,"Duration":164835,"SoundDuration":164835,"Delta":161804952},{"NoteNumber":98,"Velocity":65,"Duration":167597,"SoundDuration":167597,"Delta":161969787},{"NoteNumber":86,"Velocity":55,"Duration":167597,"SoundDuration":167597,"Delta":161969787},{"NoteNumber":74,"Velocity":60,"Duration":167597,"SoundDuration":167597,"Delta":161969787},{"NoteNumber":94,"Velocity":70,"Duration":164835,"SoundDuration":164835,"Delta":162137385},{"NoteNumber":82,"Velocity":59,"Duration":164835,"SoundDuration":164835,"Delta":162137385},{"NoteNumber":70,"Velocity":65,"Duration":164835,"SoundDuration":164835,"Delta":162137385},{"NoteNumber":79,"Velocity":56,"Duration":167597,"SoundDuration":167597,"Delta":162302220},{"NoteNumber":91,"Velocity":67,"Duration":167597,"SoundDuration":167597,"Delta":162302220},{"NoteNumber":67,"Velocity":60,"Duration":167597,"SoundDuration":167597,"Delta":162302220},{"NoteNumber":80,"Velocity":59,"Duration":163487,"SoundDuration":163487,"Delta":162469818},{"NoteNumber":92,"Velocity":70,"Duration":163487,"SoundDuration":163487,"Delta":162469818},{"NoteNumber":68,"Velocity":64,"Duration":163487,"SoundDuration":163487,"Delta":162469818},{"NoteNumber":87,"Velocity":54,"Duration":167597,"SoundDuration":167597,"Delta":162633305},{"NoteNumber":99,"Velocity":64,"Duration":167597,"SoundDuration":167597,"Delta":162633305},{"NoteNumber":75,"Velocity":58,"Duration":167597,"SoundDuration":167597,"Delta":162633305},{"NoteNumber":83,"Velocity":56,"Duration":165289,"SoundDuration":165289,"Delta":162800903},{"NoteNumber":95,"Velocity":67,"Duration":165289,"SoundDuration":165289,"Delta":162800903},{"NoteNumber":71,"Velocity":62,"Duration":165289,"SoundDuration":165289,"Delta":162800903},{"NoteNumber":87,"Velocity":50,"Duration":170940,"SoundDuration":170940,"Delta":162966193},{"NoteNumber":99,"Velocity":59,"Duration":170940,"SoundDuration":170940,"Delta":162966193},{"NoteNumber":75,"Velocity":58,"Duration":170940,"SoundDuration":170940,"Delta":162966193},{"NoteNumber":86,"Velocity":74,"Duration":177514,"SoundDuration":177514,"Delta":163137133},{"NoteNumber":98,"Velocity":74,"Duration":177514,"SoundDuration":177514,"Delta":163137133},{"NoteNumber":74,"Velocity":63,"Duration":177514,"SoundDuration":177514,"Delta":163137133},{"NoteNumber":79,"Velocity":57,"Duration":177514,"SoundDuration":177514,"Delta":163492163},{"NoteNumber":91,"Velocity":68,"Duration":177514,"SoundDuration":177514,"Delta":163492163},{"NoteNumber":67,"Velocity":61,"Duration":177514,"SoundDuration":177514,"Delta":163492163},{"NoteNumber":91,"Velocity":78,"Duration":339943,"SoundDuration":339943,"Delta":163847193},{"NoteNumber":79,"Velocity":66,"Duration":339943,"SoundDuration":339943,"Delta":163847193},{"NoteNumber":67,"Velocity":68,"Duration":339943,"SoundDuration":339943,"Delta":163847193},{"NoteNumber":55,"Velocity":57,"Duration":339943,"SoundDuration":339943,"Delta":163847193},{"NoteNumber":91,"Velocity":73,"Duration":162161,"SoundDuration":162161,"Delta":164187136},{"NoteNumber":79,"Velocity":62,"Duration":162161,"SoundDuration":162161,"Delta":164187136},{"NoteNumber":67,"Velocity":66,"Duration":162161,"SoundDuration":162161,"Delta":164187136},{"NoteNumber":55,"Velocity":55,"Duration":162161,"SoundDuration":162161,"Delta":164187136},{"NoteNumber":86,"Velocity":67,"Duration":167131,"SoundDuration":167131,"Delta":164349298},{"NoteNumber":74,"Velocity":56,"Duration":167131,"SoundDuration":167131,"Delta":164349298},{"NoteNumber":50,"Velocity":50,"Duration":167131,"SoundDuration":167131,"Delta":164349298},{"NoteNumber":62,"Velocity":60,"Duration":167131,"SoundDuration":167131,"Delta":164349298},{"NoteNumber":75,"Velocity":59,"Duration":164835,"SoundDuration":164835,"Delta":164516429},{"NoteNumber":87,"Velocity":70,"Duration":164835,"SoundDuration":164835,"Delta":164516429},{"NoteNumber":51,"Velocity":55,"Duration":164835,"SoundDuration":164835,"Delta":164516429},{"NoteNumber":63,"Velocity":65,"Duration":164835,"SoundDuration":164835,"Delta":164516429},{"NoteNumber":86,"Velocity":65,"Duration":167597,"SoundDuration":167597,"Delta":164681264},{"NoteNumber":74,"Velocity":55,"Duration":167597,"SoundDuration":167597,"Delta":164681264},{"NoteNumber":50,"Velocity":50,"Duration":167597,"SoundDuration":167597,"Delta":164681264},{"NoteNumber":62,"Velocity":60,"Duration":167597,"SoundDuration":167597,"Delta":164681264},{"NoteNumber":70,"Velocity":59,"Duration":164835,"SoundDuration":164835,"Delta":164848862},{"NoteNumber":82,"Velocity":70,"Duration":164835,"SoundDuration":164835,"Delta":164848862},{"NoteNumber":58,"Velocity":65,"Duration":164835,"SoundDuration":164835,"Delta":164848862},{"NoteNumber":46,"Velocity":55,"Duration":164835,"SoundDuration":164835,"Delta":164848862},{"NoteNumber":79,"Velocity":67,"Duration":167597,"SoundDuration":167597,"Delta":165013697},{"NoteNumber":67,"Velocity":56,"Duration":167597,"SoundDuration":167597,"Delta":165013697},{"NoteNumber":55,"Velocity":60,"Duration":167597,"SoundDuration":167597,"Delta":165013697},{"NoteNumber":43,"Velocity":50,"Duration":167597,"SoundDuration":167597,"Delta":165013697},{"NoteNumber":68,"Velocity":59,"Duration":163487,"SoundDuration":163487,"Delta":165181295},{"NoteNumber":80,"Velocity":70,"Duration":163487,"SoundDuration":163487,"Delta":165181295},{"NoteNumber":56,"Velocity":64,"Duration":163487,"SoundDuration":163487,"Delta":165181295},{"NoteNumber":44,"Velocity":54,"Duration":163487,"SoundDuration":163487,"Delta":165181295},{"NoteNumber":87,"Velocity":64,"Duration":167597,"SoundDuration":167597,"Delta":165344782},{"NoteNumber":75,"Velocity":54,"Duration":167597,"SoundDuration":167597,"Delta":165344782},{"NoteNumber":51,"Velocity":49,"Duration":167597,"SoundDuration":167597,"Delta":165344782},{"NoteNumber":63,"Velocity":58,"Duration":167597,"SoundDuration":167597,"Delta":165344782},{"NoteNumber":83,"Velocity":67,"Duration":165289,"SoundDuration":165289,"Delta":165512380},{"NoteNumber":71,"Velocity":56,"Duration":165289,"SoundDuration":165289,"Delta":165512380},{"NoteNumber":47,"Velocity":52,"Duration":165289,"SoundDuration":165289,"Delta":165512380},{"NoteNumber":59,"Velocity":62,"Duration":165289,"SoundDuration":165289,"Delta":165512380},{"NoteNumber":75,"Velocity":50,"Duration":170940,"SoundDuration":170940,"Delta":165677670},{"NoteNumber":87,"Velocity":59,"Duration":170940,"SoundDuration":170940,"Delta":165677670},{"NoteNumber":63,"Velocity":58,"Duration":170940,"SoundDuration":170940,"Delta":165677670},{"NoteNumber":51,"Velocity":58,"Duration":170940,"SoundDuration":170940,"Delta":165677670},{"NoteNumber":74,"Velocity":67,"Duration":179104,"SoundDuration":179104,"Delta":165848610},{"NoteNumber":86,"Velocity":79,"Duration":179104,"SoundDuration":179104,"Delta":165848610},{"NoteNumber":62,"Velocity":63,"Duration":179104,"SoundDuration":179104,"Delta":165848610},{"NoteNumber":50,"Velocity":54,"Duration":179104,"SoundDuration":179104,"Delta":165848610},{"NoteNumber":79,"Velocity":67,"Duration":179104,"SoundDuration":179104,"Delta":166206819},{"NoteNumber":67,"Velocity":56,"Duration":179104,"SoundDuration":179104,"Delta":166206819},{"NoteNumber":43,"Velocity":51,"Duration":179104,"SoundDuration":179104,"Delta":166206819},{"NoteNumber":55,"Velocity":61,"Duration":179104,"SoundDuration":179104,"Delta":166206819},{"NoteNumber":67,"Velocity":66,"Duration":339943,"SoundDuration":339943,"Delta":166565028},{"NoteNumber":79,"Velocity":78,"Duration":339943,"SoundDuration":339943,"Delta":166565028},{"NoteNumber":55,"Velocity":68,"Duration":339943,"SoundDuration":339943,"Delta":166565028},{"NoteNumber":43,"Velocity":57,"Duration":339943,"SoundDuration":339943,"Delta":166565028},{"NoteNumber":79,"Velocity":73,"Duration":164383,"SoundDuration":164383,"Delta":166904971},{"NoteNumber":67,"Velocity":62,"Duration":164383,"SoundDuration":164383,"Delta":166904971},{"NoteNumber":55,"Velocity":66,"Duration":164383,"SoundDuration":164383,"Delta":166904971},{"NoteNumber":43,"Velocity":55,"Duration":164383,"SoundDuration":164383,"Delta":166904971},{"NoteNumber":62,"Velocity":56,"Duration":167131,"SoundDuration":167131,"Delta":167069354},{"NoteNumber":74,"Velocity":67,"Duration":167131,"SoundDuration":167131,"Delta":167069354},{"NoteNumber":38,"Velocity":50,"Duration":167131,"SoundDuration":167131,"Delta":167069354},{"NoteNumber":50,"Velocity":60,"Duration":167131,"SoundDuration":167131,"Delta":167069354},{"NoteNumber":75,"Velocity":70,"Duration":163934,"SoundDuration":163934,"Delta":167236485},{"NoteNumber":63,"Velocity":59,"Duration":163934,"SoundDuration":163934,"Delta":167236485},{"NoteNumber":39,"Velocity":55,"Duration":163934,"SoundDuration":163934,"Delta":167236485},{"NoteNumber":51,"Velocity":65,"Duration":163934,"SoundDuration":163934,"Delta":167236485},{"NoteNumber":74,"Velocity":65,"Duration":167597,"SoundDuration":167597,"Delta":167400420},{"NoteNumber":62,"Velocity":55,"Duration":167597,"SoundDuration":167597,"Delta":167400420},{"NoteNumber":50,"Velocity":60,"Duration":167597,"SoundDuration":167597,"Delta":167400420},{"NoteNumber":38,"Velocity":50,"Duration":167597,"SoundDuration":167597,"Delta":167400420},{"NoteNumber":70,"Velocity":70,"Duration":164835,"SoundDuration":164835,"Delta":167568018},{"NoteNumber":58,"Velocity":59,"Duration":164835,"SoundDuration":164835,"Delta":167568018},{"NoteNumber":46,"Velocity":65,"Duration":164835,"SoundDuration":164835,"Delta":167568018},{"NoteNumber":34,"Velocity":55,"Duration":164835,"SoundDuration":164835,"Delta":167568018},{"NoteNumber":55,"Velocity":56,"Duration":167597,"SoundDuration":167597,"Delta":167732853},{"NoteNumber":67,"Velocity":67,"Duration":167597,"SoundDuration":167597,"Delta":167732853},{"NoteNumber":43,"Velocity":60,"Duration":167597,"SoundDuration":167597,"Delta":167732853},{"NoteNumber":31,"Velocity":50,"Duration":167597,"SoundDuration":167597,"Delta":167732853},{"NoteNumber":54,"Velocity":87,"Duration":519413,"SoundDuration":519413,"Delta":167900451},{"NoteNumber":30,"Velocity":59,"Duration":519413,"SoundDuration":519413,"Delta":167900451},{"NoteNumber":42,"Velocity":70,"Duration":519413,"SoundDuration":519413,"Delta":167900451},{"NoteNumber":79,"Velocity":73,"Duration":164383,"SoundDuration":164383,"Delta":168255481},{"NoteNumber":67,"Velocity":62,"Duration":164383,"SoundDuration":164383,"Delta":168255481},{"NoteNumber":55,"Velocity":66,"Duration":164383,"SoundDuration":164383,"Delta":168255481},{"NoteNumber":43,"Velocity":55,"Duration":164383,"SoundDuration":164383,"Delta":168255481},{"NoteNumber":74,"Velocity":67,"Duration":167131,"SoundDuration":167131,"Delta":168419864},{"NoteNumber":62,"Velocity":56,"Duration":167131,"SoundDuration":167131,"Delta":168419864},{"NoteNumber":38,"Velocity":50,"Duration":167131,"SoundDuration":167131,"Delta":168419864},{"NoteNumber":50,"Velocity":60,"Duration":167131,"SoundDuration":167131,"Delta":168419864},{"NoteNumber":63,"Velocity":59,"Duration":164835,"SoundDuration":164835,"Delta":168586995},{"NoteNumber":75,"Velocity":70,"Duration":164835,"SoundDuration":164835,"Delta":168586995},{"NoteNumber":51,"Velocity":65,"Duration":164835,"SoundDuration":164835,"Delta":168586995},{"NoteNumber":39,"Velocity":55,"Duration":164835,"SoundDuration":164835,"Delta":168586995},{"NoteNumber":74,"Velocity":65,"Duration":167597,"SoundDuration":167597,"Delta":168751830},{"NoteNumber":62,"Velocity":55,"Duration":167597,"SoundDuration":167597,"Delta":168751830},{"NoteNumber":50,"Velocity":60,"Duration":167597,"SoundDuration":167597,"Delta":168751830},{"NoteNumber":38,"Velocity":50,"Duration":167597,"SoundDuration":167597,"Delta":168751830},{"NoteNumber":70,"Velocity":70,"Duration":167131,"SoundDuration":167131,"Delta":168919428},{"NoteNumber":58,"Velocity":59,"Duration":167131,"SoundDuration":167131,"Delta":168919428},{"NoteNumber":34,"Velocity":55,"Duration":167131,"SoundDuration":167131,"Delta":168919428},{"NoteNumber":46,"Velocity":65,"Duration":167131,"SoundDuration":167131,"Delta":168919428},{"NoteNumber":55,"Velocity":56,"Duration":171428,"SoundDuration":171428,"Delta":169086559},{"NoteNumber":67,"Velocity":67,"Duration":171428,"SoundDuration":171428,"Delta":169086559},{"NoteNumber":31,"Velocity":50,"Duration":171428,"SoundDuration":171428,"Delta":169086559},{"NoteNumber":43,"Velocity":60,"Duration":171428,"SoundDuration":171428,"Delta":169086559},{"NoteNumber":53,"Velocity":87,"Duration":516289,"SoundDuration":516289,"Delta":169257988},{"NoteNumber":41,"Velocity":70,"Duration":516289,"SoundDuration":516289,"Delta":169257988},{"NoteNumber":29,"Velocity":59,"Duration":516289,"SoundDuration":516289,"Delta":169257988},{"NoteNumber":79,"Velocity":73,"Duration":164383,"SoundDuration":164383,"Delta":169609894},{"NoteNumber":67,"Velocity":62,"Duration":164383,"SoundDuration":164383,"Delta":169609894},{"NoteNumber":55,"Velocity":66,"Duration":164383,"SoundDuration":164383,"Delta":169609894},{"NoteNumber":43,"Velocity":55,"Duration":164383,"SoundDuration":164383,"Delta":169609894},{"NoteNumber":74,"Velocity":67,"Duration":167131,"SoundDuration":167131,"Delta":169774277},{"NoteNumber":62,"Velocity":56,"Duration":167131,"SoundDuration":167131,"Delta":169774277},{"NoteNumber":50,"Velocity":60,"Duration":167131,"SoundDuration":167131,"Delta":169774277},{"NoteNumber":38,"Velocity":50,"Duration":167131,"SoundDuration":167131,"Delta":169774277},{"NoteNumber":63,"Velocity":59,"Duration":164835,"SoundDuration":164835,"Delta":169941408},{"NoteNumber":75,"Velocity":70,"Duration":164835,"SoundDuration":164835,"Delta":169941408},{"NoteNumber":39,"Velocity":55,"Duration":164835,"SoundDuration":164835,"Delta":169941408},{"NoteNumber":51,"Velocity":65,"Duration":164835,"SoundDuration":164835,"Delta":169941408},{"NoteNumber":74,"Velocity":65,"Duration":167597,"SoundDuration":167597,"Delta":170106243},{"NoteNumber":62,"Velocity":55,"Duration":167597,"SoundDuration":167597,"Delta":170106243},{"NoteNumber":50,"Velocity":60,"Duration":167597,"SoundDuration":167597,"Delta":170106243},{"NoteNumber":38,"Velocity":50,"Duration":167597,"SoundDuration":167597,"Delta":170106243},{"NoteNumber":58,"Velocity":59,"Duration":168067,"SoundDuration":168067,"Delta":170273841},{"NoteNumber":70,"Velocity":70,"Duration":168067,"SoundDuration":168067,"Delta":170273841},{"NoteNumber":34,"Velocity":55,"Duration":168067,"SoundDuration":168067,"Delta":170273841},{"NoteNumber":46,"Velocity":65,"Duration":168067,"SoundDuration":168067,"Delta":170273841},{"NoteNumber":67,"Velocity":67,"Duration":172414,"SoundDuration":172414,"Delta":170441908},{"NoteNumber":55,"Velocity":56,"Duration":172414,"SoundDuration":172414,"Delta":170441908},{"NoteNumber":31,"Velocity":50,"Duration":172414,"SoundDuration":172414,"Delta":170441908},{"NoteNumber":43,"Velocity":60,"Duration":172414,"SoundDuration":172414,"Delta":170441908},{"NoteNumber":52,"Velocity":87,"Duration":518365,"SoundDuration":518365,"Delta":170614322},{"NoteNumber":28,"Velocity":59,"Duration":518365,"SoundDuration":518365,"Delta":170614322},{"NoteNumber":40,"Velocity":70,"Duration":518365,"SoundDuration":518365,"Delta":170614322},{"NoteNumber":67,"Velocity":62,"Duration":164383,"SoundDuration":164383,"Delta":170968304},{"NoteNumber":79,"Velocity":73,"Duration":164383,"SoundDuration":164383,"Delta":170968304},{"NoteNumber":55,"Velocity":66,"Duration":164383,"SoundDuration":164383,"Delta":170968304},{"NoteNumber":43,"Velocity":55,"Duration":164383,"SoundDuration":164383,"Delta":170968304},{"NoteNumber":62,"Velocity":56,"Duration":167131,"SoundDuration":167131,"Delta":171132688},{"NoteNumber":74,"Velocity":67,"Duration":167131,"SoundDuration":167131,"Delta":171132688},{"NoteNumber":38,"Velocity":50,"Duration":167131,"SoundDuration":167131,"Delta":171132688},{"NoteNumber":50,"Velocity":60,"Duration":167131,"SoundDuration":167131,"Delta":171132688},{"NoteNumber":63,"Velocity":59,"Duration":164835,"SoundDuration":164835,"Delta":171299819},{"NoteNumber":75,"Velocity":70,"Duration":164835,"SoundDuration":164835,"Delta":171299819},{"NoteNumber":39,"Velocity":55,"Duration":164835,"SoundDuration":164835,"Delta":171299819},{"NoteNumber":51,"Velocity":65,"Duration":164835,"SoundDuration":164835,"Delta":171299819},{"NoteNumber":74,"Velocity":65,"Duration":167597,"SoundDuration":167597,"Delta":171464654},{"NoteNumber":62,"Velocity":55,"Duration":167597,"SoundDuration":167597,"Delta":171464654},{"NoteNumber":38,"Velocity":50,"Duration":167597,"SoundDuration":167597,"Delta":171464654},{"NoteNumber":50,"Velocity":60,"Duration":167597,"SoundDuration":167597,"Delta":171464654},{"NoteNumber":58,"Velocity":59,"Duration":168067,"SoundDuration":168067,"Delta":171632252},{"NoteNumber":70,"Velocity":70,"Duration":168067,"SoundDuration":168067,"Delta":171632252},{"NoteNumber":46,"Velocity":65,"Duration":168067,"SoundDuration":168067,"Delta":171632252},{"NoteNumber":34,"Velocity":55,"Duration":168067,"SoundDuration":168067,"Delta":171632252},{"NoteNumber":67,"Velocity":67,"Duration":172414,"SoundDuration":172414,"Delta":171800319},{"NoteNumber":55,"Velocity":56,"Duration":172414,"SoundDuration":172414,"Delta":171800319},{"NoteNumber":43,"Velocity":60,"Duration":172414,"SoundDuration":172414,"Delta":171800319},{"NoteNumber":31,"Velocity":50,"Duration":172414,"SoundDuration":172414,"Delta":171800319},{"NoteNumber":51,"Velocity":87,"Duration":358208,"SoundDuration":358208,"Delta":171972733},{"NoteNumber":27,"Velocity":59,"Duration":358208,"SoundDuration":358208,"Delta":171972733},{"NoteNumber":39,"Velocity":70,"Duration":358208,"SoundDuration":358208,"Delta":171972733},{"NoteNumber":50,"Velocity":87,"Duration":169971,"SoundDuration":169971,"Delta":172330942},{"NoteNumber":38,"Velocity":70,"Duration":169971,"SoundDuration":169971,"Delta":172330942},{"NoteNumber":26,"Velocity":59,"Duration":169971,"SoundDuration":169971,"Delta":172330942},{"NoteNumber":59,"Velocity":73,"Duration":509914,"SoundDuration":509914,"Delta":172670885},{"NoteNumber":71,"Velocity":87,"Duration":509914,"SoundDuration":509914,"Delta":172670885},{"NoteNumber":35,"Velocity":59,"Duration":509914,"SoundDuration":509914,"Delta":172670885},{"NoteNumber":47,"Velocity":70,"Duration":509914,"SoundDuration":509914,"Delta":172670885},{"NoteNumber":80,"Velocity":70,"Duration":169971,"SoundDuration":169971,"Delta":173010828},{"NoteNumber":92,"Velocity":83,"Duration":169971,"SoundDuration":169971,"Delta":173010828},{"NoteNumber":68,"Velocity":72,"Duration":169971,"SoundDuration":169971,"Delta":173010828},{"NoteNumber":56,"Velocity":61,"Duration":169971,"SoundDuration":169971,"Delta":173010828},{"NoteNumber":91,"Velocity":76,"Duration":84985,"SoundDuration":84985,"Delta":173350771},{"NoteNumber":103,"Velocity":72,"Duration":84985,"SoundDuration":84985,"Delta":173435756},{"NoteNumber":86,"Velocity":69,"Duration":84985,"SoundDuration":84985,"Delta":173520742},{"NoteNumber":98,"Velocity":65,"Duration":84985,"SoundDuration":84985,"Delta":173605728},{"NoteNumber":87,"Velocity":73,"Duration":84985,"SoundDuration":84985,"Delta":173690714},{"NoteNumber":99,"Velocity":69,"Duration":84546,"SoundDuration":84546,"Delta":173775699},{"NoteNumber":83,"Velocity":70,"Duration":84507,"SoundDuration":84507,"Delta":173860246},{"NoteNumber":95,"Velocity":66,"Duration":84507,"SoundDuration":84507,"Delta":173944753},{"NoteNumber":84,"Velocity":73,"Duration":84507,"SoundDuration":84507,"Delta":174029260},{"NoteNumber":96,"Velocity":69,"Duration":84507,"SoundDuration":84507,"Delta":174113767},{"NoteNumber":79,"Velocity":69,"Duration":84289,"SoundDuration":84289,"Delta":174198274},{"NoteNumber":91,"Velocity":65,"Duration":84269,"SoundDuration":84269,"Delta":174282564},{"NoteNumber":80,"Velocity":72,"Duration":84269,"SoundDuration":84269,"Delta":174366834},{"NoteNumber":92,"Velocity":69,"Duration":84269,"SoundDuration":84269,"Delta":174451103},{"NoteNumber":74,"Velocity":70,"Duration":84269,"SoundDuration":84269,"Delta":174535373},{"NoteNumber":86,"Velocity":65,"Duration":84053,"SoundDuration":84053,"Delta":174619643},{"NoteNumber":75,"Velocity":76,"Duration":83798,"SoundDuration":83798,"Delta":174703696},{"NoteNumber":87,"Velocity":72,"Duration":83798,"SoundDuration":83798,"Delta":174787495},{"NoteNumber":71,"Velocity":66,"Duration":83798,"SoundDuration":83798,"Delta":174871294},{"NoteNumber":83,"Velocity":65,"Duration":83798,"SoundDuration":83798,"Delta":174955093},{"NoteNumber":72,"Velocity":72,"Duration":83798,"SoundDuration":83798,"Delta":175038892},{"NoteNumber":84,"Velocity":69,"Duration":83798,"SoundDuration":83798,"Delta":175122691},{"NoteNumber":67,"Velocity":66,"Duration":83798,"SoundDuration":83798,"Delta":175206490},{"NoteNumber":79,"Velocity":65,"Duration":83798,"SoundDuration":83798,"Delta":175290289},{"NoteNumber":68,"Velocity":72,"Duration":83798,"SoundDuration":83798,"Delta":175374088},{"NoteNumber":80,"Velocity":68,"Duration":83798,"SoundDuration":83798,"Delta":175457887},{"NoteNumber":62,"Velocity":67,"Duration":83798,"SoundDuration":83798,"Delta":175541686},{"NoteNumber":74,"Velocity":63,"Duration":83798,"SoundDuration":83798,"Delta":175625485},{"NoteNumber":63,"Velocity":72,"Duration":83798,"SoundDuration":83798,"Delta":175709284},{"NoteNumber":75,"Velocity":69,"Duration":83798,"SoundDuration":83798,"Delta":175793083},{"NoteNumber":59,"Velocity":67,"Duration":83798,"SoundDuration":83798,"Delta":175876882},{"NoteNumber":71,"Velocity":66,"Duration":83799,"SoundDuration":83799,"Delta":175960681},{"NoteNumber":60,"Velocity":76,"Duration":83333,"SoundDuration":83333,"Delta":176044480},{"NoteNumber":72,"Velocity":72,"Duration":83333,"SoundDuration":83333,"Delta":176127813},{"NoteNumber":55,"Velocity":67,"Duration":83333,"SoundDuration":83333,"Delta":176211146},{"NoteNumber":67,"Velocity":63,"Duration":83333,"SoundDuration":83333,"Delta":176294480},{"NoteNumber":56,"Velocity":73,"Duration":83333,"SoundDuration":83333,"Delta":176377813},{"NoteNumber":68,"Velocity":69,"Duration":83179,"SoundDuration":83179,"Delta":176461146},{"NoteNumber":50,"Velocity":67,"Duration":83102,"SoundDuration":83102,"Delta":176544326},{"NoteNumber":62,"Velocity":66,"Duration":83102,"SoundDuration":83102,"Delta":176627428},{"NoteNumber":51,"Velocity":73,"Duration":83102,"SoundDuration":83102,"Delta":176710531},{"NoteNumber":63,"Velocity":69,"Duration":83102,"SoundDuration":83102,"Delta":176793633},{"NoteNumber":47,"Velocity":70,"Duration":83026,"SoundDuration":83026,"Delta":176876736},{"NoteNumber":59,"Velocity":66,"Duration":82873,"SoundDuration":82873,"Delta":176959762},{"NoteNumber":48,"Velocity":74,"Duration":82872,"SoundDuration":82872,"Delta":177042635},{"NoteNumber":60,"Velocity":75,"Duration":82873,"SoundDuration":82873,"Delta":177125508},{"NoteNumber":43,"Velocity":68,"Duration":82873,"SoundDuration":82873,"Delta":177208381},{"NoteNumber":55,"Velocity":69,"Duration":82873,"SoundDuration":82873,"Delta":177291254},{"NoteNumber":44,"Velocity":72,"Duration":82644,"SoundDuration":82644,"Delta":177374127},{"NoteNumber":56,"Velocity":77,"Duration":82644,"SoundDuration":82644,"Delta":177456771},{"NoteNumber":38,"Velocity":66,"Duration":82644,"SoundDuration":82644,"Delta":177539416},{"NoteNumber":50,"Velocity":71,"Duration":82644,"SoundDuration":82644,"Delta":177622061},{"NoteNumber":39,"Velocity":71,"Duration":82644,"SoundDuration":82644,"Delta":177704706},{"NoteNumber":51,"Velocity":76,"Duration":82644,"SoundDuration":82644,"Delta":177787350},{"NoteNumber":35,"Velocity":64,"Duration":82644,"SoundDuration":82644,"Delta":177869995},{"NoteNumber":47,"Velocity":68,"Duration":82644,"SoundDuration":82644,"Delta":177952640},{"NoteNumber":36,"Velocity":66,"Duration":82644,"SoundDuration":82644,"Delta":178035285},{"NoteNumber":48,"Velocity":72,"Duration":82644,"SoundDuration":82644,"Delta":178117929},{"NoteNumber":31,"Velocity":60,"Duration":82644,"SoundDuration":82644,"Delta":178200574},{"NoteNumber":43,"Velocity":63,"Duration":82644,"SoundDuration":82644,"Delta":178283219},{"NoteNumber":32,"Velocity":67,"Duration":82644,"SoundDuration":82644,"Delta":178365864},{"NoteNumber":44,"Velocity":72,"Duration":82644,"SoundDuration":82644,"Delta":178448508},{"NoteNumber":31,"Velocity":61,"Duration":82644,"SoundDuration":82644,"Delta":178531153},{"NoteNumber":43,"Velocity":63,"Duration":82874,"SoundDuration":82874,"Delta":178613798},{"NoteNumber":32,"Velocity":66,"Duration":83333,"SoundDuration":83333,"Delta":178696672},{"NoteNumber":44,"Velocity":70,"Duration":83488,"SoundDuration":83488,"Delta":178780005},{"NoteNumber":31,"Velocity":63,"Duration":83643,"SoundDuration":83643,"Delta":178863493},{"NoteNumber":43,"Velocity":63,"Duration":83798,"SoundDuration":83798,"Delta":178947137},{"NoteNumber":35,"Velocity":71,"Duration":83955,"SoundDuration":83955,"Delta":179030936},{"NoteNumber":47,"Velocity":75,"Duration":84112,"SoundDuration":84112,"Delta":179114891},{"NoteNumber":31,"Velocity":60,"Duration":84269,"SoundDuration":84269,"Delta":179199003},{"NoteNumber":43,"Velocity":63,"Duration":84507,"SoundDuration":84507,"Delta":179283273},{"NoteNumber":32,"Velocity":67,"Duration":84507,"SoundDuration":84507,"Delta":179367780},{"NoteNumber":44,"Velocity":69,"Duration":83879,"SoundDuration":83879,"Delta":179452287},{"NoteNumber":31,"Velocity":61,"Duration":83643,"SoundDuration":83643,"Delta":179536166},{"NoteNumber":43,"Velocity":63,"Duration":83798,"SoundDuration":83798,"Delta":179619810},{"NoteNumber":35,"Velocity":73,"Duration":83955,"SoundDuration":83955,"Delta":179703609},{"NoteNumber":47,"Velocity":73,"Duration":84112,"SoundDuration":84112,"Delta":179787564},{"NoteNumber":31,"Velocity":63,"Duration":84269,"SoundDuration":84269,"Delta":179871676},{"NoteNumber":43,"Velocity":61,"Duration":84586,"SoundDuration":84586,"Delta":179955946},{"NoteNumber":32,"Velocity":72,"Duration":84586,"SoundDuration":84586,"Delta":180040533},{"NoteNumber":44,"Velocity":68,"Duration":84507,"SoundDuration":84507,"Delta":180125119},{"NoteNumber":31,"Velocity":67,"Duration":84506,"SoundDuration":84506,"Delta":180209626},{"NoteNumber":43,"Velocity":62,"Duration":84507,"SoundDuration":84507,"Delta":180294133},{"NoteNumber":32,"Velocity":70,"Duration":84348,"SoundDuration":84348,"Delta":180378640},{"NoteNumber":44,"Velocity":67,"Duration":84269,"SoundDuration":84269,"Delta":180462989},{"NoteNumber":34,"Velocity":66,"Duration":84269,"SoundDuration":84269,"Delta":180547259},{"NoteNumber":46,"Velocity":63,"Duration":84269,"SoundDuration":84269,"Delta":180631529},{"NoteNumber":35,"Velocity":72,"Duration":84112,"SoundDuration":84112,"Delta":180715798},{"NoteNumber":47,"Velocity":64,"Duration":84033,"SoundDuration":84033,"Delta":180799911},{"NoteNumber":38,"Velocity":66,"Duration":84033,"SoundDuration":84033,"Delta":180883944},{"NoteNumber":50,"Velocity":62,"Duration":84033,"SoundDuration":84033,"Delta":180967978},{"NoteNumber":39,"Velocity":69,"Duration":83877,"SoundDuration":83877,"Delta":181052011},{"NoteNumber":51,"Velocity":64,"Duration":83798,"SoundDuration":83798,"Delta":181135888},{"NoteNumber":41,"Velocity":73,"Duration":83798,"SoundDuration":83798,"Delta":181219687},{"NoteNumber":53,"Velocity":68,"Duration":83798,"SoundDuration":83798,"Delta":181303486},{"NoteNumber":31,"Velocity":61,"Duration":83643,"SoundDuration":83643,"Delta":181387285},{"NoteNumber":43,"Velocity":72,"Duration":83643,"SoundDuration":83643,"Delta":181387285},{"NoteNumber":55,"Velocity":68,"Duration":83565,"SoundDuration":83565,"Delta":181470929},{"NoteNumber":44,"Velocity":68,"Duration":83565,"SoundDuration":83565,"Delta":181554494},{"NoteNumber":32,"Velocity":57,"Duration":83565,"SoundDuration":83565,"Delta":181554494},{"NoteNumber":56,"Velocity":64,"Duration":83565,"SoundDuration":83565,"Delta":181638060},{"NoteNumber":46,"Velocity":69,"Duration":83410,"SoundDuration":83410,"Delta":181721625},{"NoteNumber":34,"Velocity":58,"Duration":83410,"SoundDuration":83410,"Delta":181721625},{"NoteNumber":58,"Velocity":65,"Duration":83333,"SoundDuration":83333,"Delta":181805036},{"NoteNumber":47,"Velocity":70,"Duration":83333,"SoundDuration":83333,"Delta":181888369},{"NoteNumber":35,"Velocity":59,"Duration":83333,"SoundDuration":83333,"Delta":181888369},{"NoteNumber":59,"Velocity":65,"Duration":83333,"SoundDuration":83333,"Delta":181971702},{"NoteNumber":38,"Velocity":64,"Duration":83179,"SoundDuration":83179,"Delta":182055036},{"NoteNumber":50,"Velocity":76,"Duration":83179,"SoundDuration":83179,"Delta":182055036},{"NoteNumber":62,"Velocity":76,"Duration":83102,"SoundDuration":83102,"Delta":182138215},{"NoteNumber":39,"Velocity":59,"Duration":83102,"SoundDuration":83102,"Delta":182221317},{"NoteNumber":51,"Velocity":70,"Duration":83102,"SoundDuration":83102,"Delta":182221317},{"NoteNumber":63,"Velocity":69,"Duration":83102,"SoundDuration":83102,"Delta":182304420},{"NoteNumber":41,"Velocity":59,"Duration":82949,"SoundDuration":82949,"Delta":182387522},{"NoteNumber":53,"Velocity":70,"Duration":82949,"SoundDuration":82949,"Delta":182387522},{"NoteNumber":65,"Velocity":69,"Duration":82873,"SoundDuration":82873,"Delta":182470472},{"NoteNumber":55,"Velocity":70,"Duration":82872,"SoundDuration":82872,"Delta":182553345},{"NoteNumber":43,"Velocity":59,"Duration":82872,"SoundDuration":82872,"Delta":182553345},{"NoteNumber":67,"Velocity":69,"Duration":82873,"SoundDuration":82873,"Delta":182636218},{"NoteNumber":44,"Velocity":64,"Duration":82720,"SoundDuration":82720,"Delta":182719091},{"NoteNumber":56,"Velocity":76,"Duration":82720,"SoundDuration":82720,"Delta":182719091},{"NoteNumber":68,"Velocity":76,"Duration":82644,"SoundDuration":82644,"Delta":182801812},{"NoteNumber":58,"Velocity":70,"Duration":82644,"SoundDuration":82644,"Delta":182884457},{"NoteNumber":46,"Velocity":59,"Duration":82644,"SoundDuration":82644,"Delta":182884457},{"NoteNumber":70,"Velocity":70,"Duration":82644,"SoundDuration":82644,"Delta":182967101},{"NoteNumber":47,"Velocity":59,"Duration":82493,"SoundDuration":82493,"Delta":183049746},{"NoteNumber":59,"Velocity":70,"Duration":82493,"SoundDuration":82493,"Delta":183049746},{"NoteNumber":71,"Velocity":70,"Duration":82417,"SoundDuration":82417,"Delta":183132239},{"NoteNumber":62,"Velocity":70,"Duration":82417,"SoundDuration":82417,"Delta":183214657},{"NoteNumber":50,"Velocity":59,"Duration":82417,"SoundDuration":82417,"Delta":183214657},{"NoteNumber":74,"Velocity":72,"Duration":82417,"SoundDuration":82417,"Delta":183297074},{"NoteNumber":51,"Velocity":65,"Duration":82191,"SoundDuration":82191,"Delta":183379492},{"NoteNumber":63,"Velocity":78,"Duration":82191,"SoundDuration":82191,"Delta":183379492},{"NoteNumber":75,"Velocity":78,"Duration":82191,"SoundDuration":82191,"Delta":183461684},{"NoteNumber":53,"Velocity":60,"Duration":82191,"SoundDuration":82191,"Delta":183543875},{"NoteNumber":65,"Velocity":71,"Duration":82191,"SoundDuration":82191,"Delta":183543875},{"NoteNumber":77,"Velocity":72,"Duration":82191,"SoundDuration":82191,"Delta":183626067},{"NoteNumber":55,"Velocity":61,"Duration":82191,"SoundDuration":82191,"Delta":183708259},{"NoteNumber":67,"Velocity":72,"Duration":82191,"SoundDuration":82191,"Delta":183708259},{"NoteNumber":79,"Velocity":72,"Duration":82191,"SoundDuration":82191,"Delta":183790451},{"NoteNumber":68,"Velocity":72,"Duration":82191,"SoundDuration":82191,"Delta":183872642},{"NoteNumber":56,"Velocity":61,"Duration":82191,"SoundDuration":82191,"Delta":183872642},{"NoteNumber":80,"Velocity":72,"Duration":82191,"SoundDuration":82191,"Delta":183954834},{"NoteNumber":71,"Velocity":80,"Duration":82191,"SoundDuration":82191,"Delta":184037026},{"NoteNumber":59,"Velocity":67,"Duration":82191,"SoundDuration":82191,"Delta":184037026},{"NoteNumber":83,"Velocity":80,"Duration":82191,"SoundDuration":82191,"Delta":184119218},{"NoteNumber":62,"Velocity":72,"Duration":82191,"SoundDuration":82191,"Delta":184201409},{"NoteNumber":74,"Velocity":63,"Duration":82191,"SoundDuration":82191,"Delta":184283601},{"NoteNumber":86,"Velocity":71,"Duration":82191,"SoundDuration":82191,"Delta":184283601},{"NoteNumber":63,"Velocity":72,"Duration":82191,"SoundDuration":82191,"Delta":184365793},{"NoteNumber":87,"Velocity":71,"Duration":82191,"SoundDuration":82191,"Delta":184447985},{"NoteNumber":75,"Velocity":63,"Duration":82191,"SoundDuration":82191,"Delta":184447985},{"NoteNumber":65,"Velocity":72,"Duration":82191,"SoundDuration":82191,"Delta":184530176},{"NoteNumber":89,"Velocity":72,"Duration":82191,"SoundDuration":82191,"Delta":184612368},{"NoteNumber":77,"Velocity":64,"Duration":82191,"SoundDuration":82191,"Delta":184612368},{"NoteNumber":67,"Velocity":81,"Duration":82191,"SoundDuration":82191,"Delta":184694560},{"NoteNumber":79,"Velocity":64,"Duration":82191,"SoundDuration":82191,"Delta":184776752},{"NoteNumber":91,"Velocity":72,"Duration":82191,"SoundDuration":82191,"Delta":184776752},{"NoteNumber":68,"Velocity":74,"Duration":82191,"SoundDuration":82191,"Delta":184858943},{"NoteNumber":92,"Velocity":70,"Duration":82191,"SoundDuration":82191,"Delta":184941135},{"NoteNumber":80,"Velocity":63,"Duration":82191,"SoundDuration":82191,"Delta":184941135},{"NoteNumber":70,"Velocity":74,"Duration":82191,"SoundDuration":82191,"Delta":185023327},{"NoteNumber":94,"Velocity":70,"Duration":82191,"SoundDuration":82191,"Delta":185105519},{"NoteNumber":82,"Velocity":63,"Duration":82191,"SoundDuration":82191,"Delta":185105519},{"NoteNumber":71,"Velocity":74,"Duration":82191,"SoundDuration":82191,"Delta":185187710},{"NoteNumber":83,"Velocity":63,"Duration":82116,"SoundDuration":82116,"Delta":185269902},{"NoteNumber":95,"Velocity":71,"Duration":82116,"SoundDuration":82116,"Delta":185269902},{"NoteNumber":74,"Velocity":81,"Duration":81967,"SoundDuration":81967,"Delta":185352019},{"NoteNumber":98,"Velocity":77,"Duration":82191,"SoundDuration":82191,"Delta":185433986},{"NoteNumber":86,"Velocity":69,"Duration":82191,"SoundDuration":82191,"Delta":185433986},{"NoteNumber":75,"Velocity":75,"Duration":82417,"SoundDuration":82417,"Delta":185516178},{"NoteNumber":99,"Velocity":71,"Duration":82569,"SoundDuration":82569,"Delta":185598595},{"NoteNumber":87,"Velocity":63,"Duration":82569,"SoundDuration":82569,"Delta":185598595},{"NoteNumber":77,"Velocity":76,"Duration":82796,"SoundDuration":82796,"Delta":185681164},{"NoteNumber":89,"Velocity":64,"Duration":82949,"SoundDuration":82949,"Delta":185763961},{"NoteNumber":101,"Velocity":72,"Duration":82949,"SoundDuration":82949,"Delta":185763961},{"NoteNumber":79,"Velocity":77,"Duration":83179,"SoundDuration":83179,"Delta":185846911},{"NoteNumber":91,"Velocity":64,"Duration":83410,"SoundDuration":83410,"Delta":185930090},{"NoteNumber":103,"Velocity":72,"Duration":83410,"SoundDuration":83410,"Delta":185930090},{"NoteNumber":75,"Velocity":85,"Duration":83798,"SoundDuration":83798,"Delta":186013501},{"NoteNumber":99,"Velocity":74,"Duration":83798,"SoundDuration":83798,"Delta":186097300},{"NoteNumber":87,"Velocity":66,"Duration":83798,"SoundDuration":83798,"Delta":186097300},{"NoteNumber":77,"Velocity":75,"Duration":83798,"SoundDuration":83798,"Delta":186181099},{"NoteNumber":101,"Velocity":67,"Duration":83798,"SoundDuration":83798,"Delta":186264898},{"NoteNumber":89,"Velocity":60,"Duration":83798,"SoundDuration":83798,"Delta":186264898},{"NoteNumber":71,"Velocity":81,"Duration":83798,"SoundDuration":83798,"Delta":186348697},{"NoteNumber":95,"Velocity":72,"Duration":83798,"SoundDuration":83798,"Delta":186432496},{"NoteNumber":83,"Velocity":64,"Duration":83798,"SoundDuration":83798,"Delta":186432496},{"NoteNumber":74,"Velocity":74,"Duration":83798,"SoundDuration":83798,"Delta":186516295},{"NoteNumber":86,"Velocity":61,"Duration":83798,"SoundDuration":83798,"Delta":186600094},{"NoteNumber":98,"Velocity":68,"Duration":83798,"SoundDuration":83798,"Delta":186600094},{"NoteNumber":75,"Velocity":83,"Duration":83798,"SoundDuration":83798,"Delta":186683893},{"NoteNumber":87,"Velocity":67,"Duration":83798,"SoundDuration":83798,"Delta":186767692},{"NoteNumber":99,"Velocity":75,"Duration":83798,"SoundDuration":83798,"Delta":186767692},{"NoteNumber":77,"Velocity":74,"Duration":83798,"SoundDuration":83798,"Delta":186851491},{"NoteNumber":101,"Velocity":68,"Duration":83798,"SoundDuration":83798,"Delta":186935290},{"NoteNumber":89,"Velocity":61,"Duration":83798,"SoundDuration":83798,"Delta":186935290},{"NoteNumber":71,"Velocity":79,"Duration":83798,"SoundDuration":83798,"Delta":187019089},{"NoteNumber":83,"Velocity":64,"Duration":83798,"SoundDuration":83798,"Delta":187102888},{"NoteNumber":95,"Velocity":72,"Duration":83798,"SoundDuration":83798,"Delta":187102888},{"NoteNumber":74,"Velocity":75,"Duration":83798,"SoundDuration":83798,"Delta":187186687},{"NoteNumber":98,"Velocity":68,"Duration":83799,"SoundDuration":83799,"Delta":187270486},{"NoteNumber":86,"Velocity":61,"Duration":83799,"SoundDuration":83799,"Delta":187270486},{"NoteNumber":63,"Velocity":74,"Duration":83798,"SoundDuration":83798,"Delta":187354285},{"NoteNumber":75,"Velocity":79,"Duration":83798,"SoundDuration":83798,"Delta":187354285},{"NoteNumber":99,"Velocity":72,"Duration":83798,"SoundDuration":83798,"Delta":187438084},{"NoteNumber":87,"Velocity":64,"Duration":83798,"SoundDuration":83798,"Delta":187438084},{"NoteNumber":77,"Velocity":73,"Duration":83798,"SoundDuration":83798,"Delta":187521883},{"NoteNumber":65,"Velocity":69,"Duration":83798,"SoundDuration":83798,"Delta":187521883},{"NoteNumber":89,"Velocity":62,"Duration":83798,"SoundDuration":83798,"Delta":187605682},{"NoteNumber":101,"Velocity":69,"Duration":83798,"SoundDuration":83798,"Delta":187605682},{"NoteNumber":65,"Velocity":67,"Duration":83102,"SoundDuration":83102,"Delta":187689481},{"NoteNumber":53,"Velocity":53,"Duration":83102,"SoundDuration":83102,"Delta":187689481},{"NoteNumber":89,"Velocity":63,"Duration":83256,"SoundDuration":83256,"Delta":187772583},{"NoteNumber":77,"Velocity":56,"Duration":83256,"SoundDuration":83256,"Delta":187772583},{"NoteNumber":54,"Velocity":52,"Duration":83410,"SoundDuration":83410,"Delta":187855840},{"NoteNumber":66,"Velocity":65,"Duration":83410,"SoundDuration":83410,"Delta":187855840},{"NoteNumber":90,"Velocity":62,"Duration":83565,"SoundDuration":83565,"Delta":187939250},{"NoteNumber":78,"Velocity":55,"Duration":83565,"SoundDuration":83565,"Delta":187939250},{"NoteNumber":55,"Velocity":54,"Duration":83798,"SoundDuration":83798,"Delta":188022816},{"NoteNumber":67,"Velocity":69,"Duration":83798,"SoundDuration":83798,"Delta":188022816},{"NoteNumber":79,"Velocity":56,"Duration":83955,"SoundDuration":83955,"Delta":188106615},{"NoteNumber":91,"Velocity":63,"Duration":83955,"SoundDuration":83955,"Delta":188106615},{"NoteNumber":56,"Velocity":63,"Duration":84112,"SoundDuration":84112,"Delta":188190570},{"NoteNumber":68,"Velocity":67,"Duration":84112,"SoundDuration":84112,"Delta":188190570},{"NoteNumber":92,"Velocity":64,"Duration":84348,"SoundDuration":84348,"Delta":188274683},{"NoteNumber":80,"Velocity":57,"Duration":84348,"SoundDuration":84348,"Delta":188274683},{"NoteNumber":57,"Velocity":64,"Duration":84507,"SoundDuration":84507,"Delta":188359031},{"NoteNumber":69,"Velocity":68,"Duration":84507,"SoundDuration":84507,"Delta":188359031},{"NoteNumber":81,"Velocity":58,"Duration":84745,"SoundDuration":84745,"Delta":188443538},{"NoteNumber":93,"Velocity":65,"Duration":84745,"SoundDuration":84745,"Delta":188443538},{"NoteNumber":70,"Velocity":69,"Duration":84905,"SoundDuration":84905,"Delta":188528284},{"NoteNumber":58,"Velocity":65,"Duration":84905,"SoundDuration":84905,"Delta":188528284},{"NoteNumber":94,"Velocity":66,"Duration":85066,"SoundDuration":85066,"Delta":188613190},{"NoteNumber":82,"Velocity":59,"Duration":85066,"SoundDuration":85066,"Delta":188613190},{"NoteNumber":59,"Velocity":65,"Duration":85227,"SoundDuration":85227,"Delta":188698256},{"NoteNumber":71,"Velocity":69,"Duration":85227,"SoundDuration":85227,"Delta":188698256},{"NoteNumber":95,"Velocity":67,"Duration":85469,"SoundDuration":85469,"Delta":188783483},{"NoteNumber":83,"Velocity":60,"Duration":85469,"SoundDuration":85469,"Delta":188783483},{"NoteNumber":60,"Velocity":66,"Duration":85714,"SoundDuration":85714,"Delta":188868953},{"NoteNumber":72,"Velocity":70,"Duration":85714,"SoundDuration":85714,"Delta":188868953},{"NoteNumber":84,"Velocity":61,"Duration":85878,"SoundDuration":85878,"Delta":188954668},{"NoteNumber":96,"Velocity":68,"Duration":85878,"SoundDuration":85878,"Delta":188954668},{"NoteNumber":73,"Velocity":71,"Duration":86042,"SoundDuration":86042,"Delta":189040546},{"NoteNumber":61,"Velocity":67,"Duration":86042,"SoundDuration":86042,"Delta":189040546},{"NoteNumber":97,"Velocity":68,"Duration":86206,"SoundDuration":86206,"Delta":189126588},{"NoteNumber":85,"Velocity":61,"Duration":86206,"SoundDuration":86206,"Delta":189126588},{"NoteNumber":74,"Velocity":71,"Duration":86455,"SoundDuration":86455,"Delta":189212795},{"NoteNumber":62,"Velocity":67,"Duration":86455,"SoundDuration":86455,"Delta":189212795},{"NoteNumber":98,"Velocity":69,"Duration":86621,"SoundDuration":86621,"Delta":189299250},{"NoteNumber":86,"Velocity":62,"Duration":86621,"SoundDuration":86621,"Delta":189299250},{"NoteNumber":63,"Velocity":68,"Duration":86789,"SoundDuration":86789,"Delta":189385872},{"NoteNumber":75,"Velocity":72,"Duration":86789,"SoundDuration":86789,"Delta":189385872},{"NoteNumber":87,"Velocity":63,"Duration":87040,"SoundDuration":87040,"Delta":189472661},{"NoteNumber":99,"Velocity":70,"Duration":87040,"SoundDuration":87040,"Delta":189472661},{"NoteNumber":77,"Velocity":72,"Duration":87209,"SoundDuration":87209,"Delta":189559702},{"NoteNumber":65,"Velocity":68,"Duration":87209,"SoundDuration":87209,"Delta":189559702},{"NoteNumber":101,"Velocity":71,"Duration":87463,"SoundDuration":87463,"Delta":189646911},{"NoteNumber":89,"Velocity":63,"Duration":87463,"SoundDuration":87463,"Delta":189646911},{"NoteNumber":66,"Velocity":69,"Duration":87633,"SoundDuration":87633,"Delta":189734375},{"NoteNumber":78,"Velocity":73,"Duration":87633,"SoundDuration":87633,"Delta":189734375},{"NoteNumber":102,"Velocity":72,"Duration":87805,"SoundDuration":87805,"Delta":189822009},{"NoteNumber":90,"Velocity":64,"Duration":87805,"SoundDuration":87805,"Delta":189822009},{"NoteNumber":67,"Velocity":69,"Duration":87976,"SoundDuration":87976,"Delta":189909814},{"NoteNumber":79,"Velocity":73,"Duration":87976,"SoundDuration":87976,"Delta":189909814},{"NoteNumber":91,"Velocity":65,"Duration":169117,"SoundDuration":169117,"Delta":189997790},{"NoteNumber":103,"Velocity":73,"Duration":169117,"SoundDuration":169117,"Delta":189997790},{"NoteNumber":43,"Velocity":96,"Duration":1627339,"SoundDuration":1627339,"Delta":190166908},{"NoteNumber":63,"Velocity":75,"Duration":1421125,"SoundDuration":1421125,"Delta":190373122},{"NoteNumber":67,"Velocity":75,"Duration":1421125,"SoundDuration":1421125,"Delta":190373122},{"NoteNumber":70,"Velocity":90,"Duration":1421125,"SoundDuration":1421125,"Delta":190373122},{"NoteNumber":75,"Velocity":90,"Duration":1421125,"SoundDuration":1421125,"Delta":190373122},{"NoteNumber":46,"Velocity":62,"Duration":1421125,"SoundDuration":1421125,"Delta":190373122},{"NoteNumber":51,"Velocity":62,"Duration":1421125,"SoundDuration":1421125,"Delta":190373122},{"NoteNumber":55,"Velocity":72,"Duration":1421125,"SoundDuration":1421125,"Delta":190373122},{"NoteNumber":41,"Velocity":87,"Duration":1700297,"SoundDuration":1700297,"Delta":191794248},{"NoteNumber":65,"Velocity":71,"Duration":1518014,"SoundDuration":1518014,"Delta":191976530},{"NoteNumber":70,"Velocity":71,"Duration":1518014,"SoundDuration":1518014,"Delta":191976530},{"NoteNumber":74,"Velocity":85,"Duration":1518014,"SoundDuration":1518014,"Delta":191976530},{"NoteNumber":77,"Velocity":85,"Duration":1518014,"SoundDuration":1518014,"Delta":191976530},{"NoteNumber":46,"Velocity":57,"Duration":1518014,"SoundDuration":1518014,"Delta":191976530},{"NoteNumber":50,"Velocity":57,"Duration":1518014,"SoundDuration":1518014,"Delta":191976530},{"NoteNumber":53,"Velocity":68,"Duration":1518014,"SoundDuration":1518014,"Delta":191976530},{"NoteNumber":39,"Velocity":87,"Duration":1019024,"SoundDuration":1019024,"Delta":193494545},{"NoteNumber":67,"Velocity":75,"Duration":699812,"SoundDuration":699812,"Delta":193663109},{"NoteNumber":70,"Velocity":75,"Duration":699812,"SoundDuration":699812,"Delta":193663109},{"NoteNumber":75,"Velocity":90,"Duration":699812,"SoundDuration":699812,"Delta":193663109},{"NoteNumber":79,"Velocity":90,"Duration":699812,"SoundDuration":699812,"Delta":193663109},{"NoteNumber":43,"Velocity":62,"Duration":850460,"SoundDuration":850460,"Delta":193663109},{"NoteNumber":46,"Velocity":62,"Duration":850460,"SoundDuration":850460,"Delta":193663109},{"NoteNumber":51,"Velocity":72,"Duration":850460,"SoundDuration":850460,"Delta":193663109},{"NoteNumber":36,"Velocity":81,"Duration":847918,"SoundDuration":847918,"Delta":194362922},{"NoteNumber":63,"Velocity":72,"Duration":397350,"SoundDuration":397350,"Delta":194513570},{"NoteNumber":67,"Velocity":72,"Duration":397350,"SoundDuration":397350,"Delta":194513570},{"NoteNumber":72,"Velocity":86,"Duration":397350,"SoundDuration":397350,"Delta":194513570},{"NoteNumber":75,"Velocity":86,"Duration":397350,"SoundDuration":397350,"Delta":194513570},{"NoteNumber":39,"Velocity":57,"Duration":697270,"SoundDuration":697270,"Delta":194513570},{"NoteNumber":43,"Velocity":57,"Duration":697270,"SoundDuration":697270,"Delta":194513570},{"NoteNumber":48,"Velocity":68,"Duration":697270,"SoundDuration":697270,"Delta":194513570},{"NoteNumber":67,"Velocity":79,"Duration":299919,"SoundDuration":299919,"Delta":194910921},{"NoteNumber":79,"Velocity":79,"Duration":299919,"SoundDuration":299919,"Delta":194910921},{"NoteNumber":38,"Velocity":82,"Duration":928712,"SoundDuration":928712,"Delta":195210840},{"NoteNumber":65,"Velocity":69,"Duration":809607,"SoundDuration":809607,"Delta":195329945},{"NoteNumber":70,"Velocity":69,"Duration":809607,"SoundDuration":809607,"Delta":195329945},{"NoteNumber":74,"Velocity":82,"Duration":809607,"SoundDuration":809607,"Delta":195329945},{"NoteNumber":77,"Velocity":82,"Duration":809607,"SoundDuration":809607,"Delta":195329945},{"NoteNumber":41,"Velocity":54,"Duration":809607,"SoundDuration":809607,"Delta":195329945},{"NoteNumber":46,"Velocity":54,"Duration":809607,"SoundDuration":809607,"Delta":195329945},{"NoteNumber":50,"Velocity":65,"Duration":809607,"SoundDuration":809607,"Delta":195329945},{"NoteNumber":58,"Velocity":71,"Duration":708406,"SoundDuration":708406,"Delta":196139553},{"NoteNumber":70,"Velocity":71,"Duration":708406,"SoundDuration":708406,"Delta":196139553},{"NoteNumber":46,"Velocity":66,"Duration":708406,"SoundDuration":708406,"Delta":196139553},{"NoteNumber":39,"Velocity":87,"Duration":941914,"SoundDuration":941914,"Delta":196847960},{"NoteNumber":67,"Velocity":72,"Duration":393933,"SoundDuration":393933,"Delta":196997243},{"NoteNumber":70,"Velocity":72,"Duration":393933,"SoundDuration":393933,"Delta":196997243},{"NoteNumber":79,"Velocity":86,"Duration":393933,"SoundDuration":393933,"Delta":196997243},{"NoteNumber":75,"Velocity":86,"Duration":393933,"SoundDuration":393933,"Delta":196997243},{"NoteNumber":46,"Velocity":57,"Duration":792631,"SoundDuration":792631,"Delta":196997243},{"NoteNumber":51,"Velocity":68,"Duration":792631,"SoundDuration":792631,"Delta":196997243},{"NoteNumber":70,"Velocity":80,"Duration":398697,"SoundDuration":398697,"Delta":197391176},{"NoteNumber":82,"Velocity":80,"Duration":398697,"SoundDuration":398697,"Delta":197391176},{"NoteNumber":70,"Velocity":85,"Duration":793407,"SoundDuration":793407,"Delta":197789874},{"NoteNumber":65,"Velocity":71,"Duration":394736,"SoundDuration":394736,"Delta":197789874},{"NoteNumber":77,"Velocity":85,"Duration":394736,"SoundDuration":394736,"Delta":197789874},{"NoteNumber":38,"Velocity":62,"Duration":394736,"SoundDuration":394736,"Delta":197789874},{"NoteNumber":50,"Velocity":72,"Duration":394736,"SoundDuration":394736,"Delta":197789874},{"NoteNumber":46,"Velocity":72,"Duration":793407,"SoundDuration":793407,"Delta":197789874},{"NoteNumber":63,"Velocity":69,"Duration":398671,"SoundDuration":398671,"Delta":198184611},{"NoteNumber":75,"Velocity":83,"Duration":398671,"SoundDuration":398671,"Delta":198184611},{"NoteNumber":36,"Velocity":62,"Duration":398671,"SoundDuration":398671,"Delta":198184611},{"NoteNumber":48,"Velocity":72,"Duration":398671,"SoundDuration":398671,"Delta":198184611},{"NoteNumber":62,"Velocity":69,"Duration":797341,"SoundDuration":797341,"Delta":198583282},{"NoteNumber":70,"Velocity":82,"Duration":797341,"SoundDuration":797341,"Delta":198583282},{"NoteNumber":74,"Velocity":82,"Duration":797341,"SoundDuration":797341,"Delta":198583282},{"NoteNumber":34,"Velocity":54,"Duration":797341,"SoundDuration":797341,"Delta":198583282},{"NoteNumber":41,"Velocity":54,"Duration":797341,"SoundDuration":797341,"Delta":198583282},{"NoteNumber":46,"Velocity":65,"Duration":797341,"SoundDuration":797341,"Delta":198583282},{"NoteNumber":58,"Velocity":57,"Duration":697674,"SoundDuration":697674,"Delta":199380624},{"NoteNumber":67,"Velocity":68,"Duration":697674,"SoundDuration":697674,"Delta":199380624},{"NoteNumber":70,"Velocity":68,"Duration":697674,"SoundDuration":697674,"Delta":199380624},{"NoteNumber":31,"Velocity":41,"Duration":697674,"SoundDuration":697674,"Delta":199380624},{"NoteNumber":39,"Velocity":48,"Duration":697674,"SoundDuration":697674,"Delta":199380624},{"NoteNumber":43,"Velocity":48,"Duration":697674,"SoundDuration":697674,"Delta":199380624},{"NoteNumber":39,"Velocity":87,"Duration":942600,"SoundDuration":942600,"Delta":200078298},{"NoteNumber":67,"Velocity":72,"Duration":393933,"SoundDuration":393933,"Delta":200228268},{"NoteNumber":70,"Velocity":72,"Duration":393933,"SoundDuration":393933,"Delta":200228268},{"NoteNumber":79,"Velocity":86,"Duration":393933,"SoundDuration":393933,"Delta":200228268},{"NoteNumber":75,"Velocity":86,"Duration":393933,"SoundDuration":393933,"Delta":200228268},{"NoteNumber":46,"Velocity":57,"Duration":792631,"SoundDuration":792631,"Delta":200228268},{"NoteNumber":51,"Velocity":68,"Duration":792631,"SoundDuration":792631,"Delta":200228268},{"NoteNumber":70,"Velocity":67,"Duration":398697,"SoundDuration":398697,"Delta":200622201},{"NoteNumber":82,"Velocity":80,"Duration":398697,"SoundDuration":398697,"Delta":200622201},{"NoteNumber":70,"Velocity":69,"Duration":793407,"SoundDuration":793407,"Delta":201020899},{"NoteNumber":65,"Velocity":83,"Duration":394736,"SoundDuration":394736,"Delta":201020899},{"NoteNumber":77,"Velocity":83,"Duration":394736,"SoundDuration":394736,"Delta":201020899},{"NoteNumber":38,"Velocity":62,"Duration":394736,"SoundDuration":394736,"Delta":201020899},{"NoteNumber":50,"Velocity":72,"Duration":394736,"SoundDuration":394736,"Delta":201020899},{"NoteNumber":46,"Velocity":72,"Duration":793407,"SoundDuration":793407,"Delta":201020899},{"NoteNumber":63,"Velocity":81,"Duration":398671,"SoundDuration":398671,"Delta":201415636},{"NoteNumber":75,"Velocity":81,"Duration":398671,"SoundDuration":398671,"Delta":201415636},{"NoteNumber":36,"Velocity":62,"Duration":398671,"SoundDuration":398671,"Delta":201415636},{"NoteNumber":48,"Velocity":72,"Duration":398671,"SoundDuration":398671,"Delta":201415636},{"NoteNumber":62,"Velocity":64,"Duration":797341,"SoundDuration":797341,"Delta":201814307},{"NoteNumber":70,"Velocity":76,"Duration":797341,"SoundDuration":797341,"Delta":201814307},{"NoteNumber":74,"Velocity":76,"Duration":797341,"SoundDuration":797341,"Delta":201814307},{"NoteNumber":34,"Velocity":54,"Duration":797341,"SoundDuration":797341,"Delta":201814307},{"NoteNumber":41,"Velocity":54,"Duration":797341,"SoundDuration":797341,"Delta":201814307},{"NoteNumber":46,"Velocity":65,"Duration":797341,"SoundDuration":797341,"Delta":201814307},{"NoteNumber":58,"Velocity":57,"Duration":797342,"SoundDuration":797342,"Delta":202611649},{"NoteNumber":67,"Velocity":69,"Duration":797342,"SoundDuration":797342,"Delta":202611649},{"NoteNumber":70,"Velocity":69,"Duration":797342,"SoundDuration":797342,"Delta":202611649},{"NoteNumber":31,"Velocity":42,"Duration":797342,"SoundDuration":797342,"Delta":202611649},{"NoteNumber":39,"Velocity":48,"Duration":797342,"SoundDuration":797342,"Delta":202611649},{"NoteNumber":43,"Velocity":48,"Duration":797342,"SoundDuration":797342,"Delta":202611649},{"NoteNumber":43,"Velocity":86,"Duration":1588723,"SoundDuration":1588723,"Delta":203408991},{"NoteNumber":63,"Velocity":75,"Duration":1421125,"SoundDuration":1421125,"Delta":203576589},{"NoteNumber":67,"Velocity":75,"Duration":1421125,"SoundDuration":1421125,"Delta":203576589},{"NoteNumber":70,"Velocity":90,"Duration":1421125,"SoundDuration":1421125,"Delta":203576589},{"NoteNumber":75,"Velocity":90,"Duration":1421125,"SoundDuration":1421125,"Delta":203576589},{"NoteNumber":46,"Velocity":62,"Duration":1421125,"SoundDuration":1421125,"Delta":203576589},{"NoteNumber":51,"Velocity":62,"Duration":1421125,"SoundDuration":1421125,"Delta":203576589},{"NoteNumber":55,"Velocity":72,"Duration":1421125,"SoundDuration":1421125,"Delta":203576589},{"NoteNumber":41,"Velocity":87,"Duration":1684681,"SoundDuration":1684681,"Delta":204997715},{"NoteNumber":65,"Velocity":71,"Duration":1518014,"SoundDuration":1518014,"Delta":205164382},{"NoteNumber":70,"Velocity":85,"Duration":1518014,"SoundDuration":1518014,"Delta":205164382},{"NoteNumber":74,"Velocity":85,"Duration":1518014,"SoundDuration":1518014,"Delta":205164382},{"NoteNumber":77,"Velocity":85,"Duration":1518014,"SoundDuration":1518014,"Delta":205164382},{"NoteNumber":46,"Velocity":57,"Duration":1518014,"SoundDuration":1518014,"Delta":205164382},{"NoteNumber":50,"Velocity":57,"Duration":1518014,"SoundDuration":1518014,"Delta":205164382},{"NoteNumber":53,"Velocity":68,"Duration":1518014,"SoundDuration":1518014,"Delta":205164382},{"NoteNumber":39,"Velocity":87,"Duration":1019024,"SoundDuration":1019024,"Delta":206682397},{"NoteNumber":67,"Velocity":75,"Duration":699812,"SoundDuration":699812,"Delta":206850961},{"NoteNumber":70,"Velocity":75,"Duration":699812,"SoundDuration":699812,"Delta":206850961},{"NoteNumber":75,"Velocity":90,"Duration":699812,"SoundDuration":699812,"Delta":206850961},{"NoteNumber":79,"Velocity":90,"Duration":699812,"SoundDuration":699812,"Delta":206850961},{"NoteNumber":43,"Velocity":62,"Duration":850460,"SoundDuration":850460,"Delta":206850961},{"NoteNumber":46,"Velocity":62,"Duration":850460,"SoundDuration":850460,"Delta":206850961},{"NoteNumber":51,"Velocity":72,"Duration":850460,"SoundDuration":850460,"Delta":206850961},{"NoteNumber":36,"Velocity":81,"Duration":847918,"SoundDuration":847918,"Delta":207550774},{"NoteNumber":63,"Velocity":72,"Duration":397350,"SoundDuration":397350,"Delta":207701421},{"NoteNumber":67,"Velocity":72,"Duration":397350,"SoundDuration":397350,"Delta":207701421},{"NoteNumber":72,"Velocity":86,"Duration":397350,"SoundDuration":397350,"Delta":207701421},{"NoteNumber":75,"Velocity":86,"Duration":397350,"SoundDuration":397350,"Delta":207701421},{"NoteNumber":39,"Velocity":57,"Duration":697270,"SoundDuration":697270,"Delta":207701421},{"NoteNumber":43,"Velocity":57,"Duration":697270,"SoundDuration":697270,"Delta":207701421},{"NoteNumber":48,"Velocity":68,"Duration":697270,"SoundDuration":697270,"Delta":207701421},{"NoteNumber":67,"Velocity":66,"Duration":299919,"SoundDuration":299919,"Delta":208098772},{"NoteNumber":79,"Velocity":79,"Duration":299919,"SoundDuration":299919,"Delta":208098772},{"NoteNumber":38,"Velocity":82,"Duration":928712,"SoundDuration":928712,"Delta":208398692},{"NoteNumber":65,"Velocity":69,"Duration":809607,"SoundDuration":809607,"Delta":208517796},{"NoteNumber":70,"Velocity":69,"Duration":809607,"SoundDuration":809607,"Delta":208517796},{"NoteNumber":74,"Velocity":82,"Duration":809607,"SoundDuration":809607,"Delta":208517796},{"NoteNumber":77,"Velocity":82,"Duration":809607,"SoundDuration":809607,"Delta":208517796},{"NoteNumber":41,"Velocity":54,"Duration":809607,"SoundDuration":809607,"Delta":208517796},{"NoteNumber":46,"Velocity":54,"Duration":809607,"SoundDuration":809607,"Delta":208517796},{"NoteNumber":50,"Velocity":54,"Duration":809607,"SoundDuration":809607,"Delta":208517796},{"NoteNumber":58,"Velocity":63,"Duration":820028,"SoundDuration":820028,"Delta":209327404},{"NoteNumber":70,"Velocity":75,"Duration":820028,"SoundDuration":820028,"Delta":209327404},{"NoteNumber":46,"Velocity":70,"Duration":820028,"SoundDuration":820028,"Delta":209327404},{"NoteNumber":80,"Velocity":73,"Duration":816326,"SoundDuration":816326,"Delta":210147433},{"NoteNumber":87,"Velocity":73,"Duration":408163,"SoundDuration":408163,"Delta":210147433},{"NoteNumber":75,"Velocity":63,"Duration":408163,"SoundDuration":408163,"Delta":210147433},{"NoteNumber":56,"Velocity":63,"Duration":816326,"SoundDuration":816326,"Delta":210147433},{"NoteNumber":60,"Velocity":63,"Duration":408163,"SoundDuration":408163,"Delta":210147433},{"NoteNumber":48,"Velocity":51,"Duration":408163,"SoundDuration":408163,"Delta":210147433},{"NoteNumber":87,"Velocity":70,"Duration":408163,"SoundDuration":408163,"Delta":210555596},{"NoteNumber":75,"Velocity":59,"Duration":408163,"SoundDuration":408163,"Delta":210555596},{"NoteNumber":60,"Velocity":59,"Duration":408163,"SoundDuration":408163,"Delta":210555596},{"NoteNumber":48,"Velocity":49,"Duration":408163,"SoundDuration":408163,"Delta":210555596},{"NoteNumber":80,"Velocity":73,"Duration":799889,"SoundDuration":799889,"Delta":210963759},{"NoteNumber":86,"Velocity":65,"Duration":399889,"SoundDuration":399889,"Delta":210963759},{"NoteNumber":74,"Velocity":54,"Duration":399889,"SoundDuration":399889,"Delta":210963759},{"NoteNumber":51,"Velocity":63,"Duration":799889,"SoundDuration":799889,"Delta":210963759},{"NoteNumber":58,"Velocity":54,"Duration":399889,"SoundDuration":399889,"Delta":210963759},{"NoteNumber":46,"Velocity":46,"Duration":399889,"SoundDuration":399889,"Delta":210963759},{"NoteNumber":82,"Velocity":63,"Duration":400000,"SoundDuration":400000,"Delta":211363649},{"NoteNumber":70,"Velocity":52,"Duration":400000,"SoundDuration":400000,"Delta":211363649},{"NoteNumber":55,"Velocity":51,"Duration":400000,"SoundDuration":400000,"Delta":211363649},{"NoteNumber":43,"Velocity":44,"Duration":400000,"SoundDuration":400000,"Delta":211363649},{"NoteNumber":75,"Velocity":68,"Duration":1616214,"SoundDuration":1616214,"Delta":211763649},{"NoteNumber":72,"Velocity":56,"Duration":399999,"SoundDuration":399999,"Delta":211763649},{"NoteNumber":84,"Velocity":68,"Duration":399999,"SoundDuration":399999,"Delta":211763649},{"NoteNumber":51,"Velocity":51,"Duration":1616214,"SoundDuration":1616214,"Delta":211763649},{"NoteNumber":44,"Velocity":52,"Duration":399999,"SoundDuration":399999,"Delta":211763649},{"NoteNumber":56,"Velocity":59,"Duration":399999,"SoundDuration":399999,"Delta":211763649},{"NoteNumber":84,"Velocity":62,"Duration":405405,"SoundDuration":405405,"Delta":212163649},{"NoteNumber":72,"Velocity":51,"Duration":405405,"SoundDuration":405405,"Delta":212163649},{"NoteNumber":56,"Velocity":51,"Duration":405405,"SoundDuration":405405,"Delta":212163649},{"NoteNumber":44,"Velocity":39,"Duration":405405,"SoundDuration":405405,"Delta":212163649},{"NoteNumber":80,"Velocity":65,"Duration":405405,"SoundDuration":405405,"Delta":212569054},{"NoteNumber":68,"Velocity":53,"Duration":405405,"SoundDuration":405405,"Delta":212569054},{"NoteNumber":53,"Velocity":53,"Duration":405405,"SoundDuration":405405,"Delta":212569054},{"NoteNumber":41,"Velocity":41,"Duration":405405,"SoundDuration":405405,"Delta":212569054},{"NoteNumber":72,"Velocity":52,"Duration":405405,"SoundDuration":405405,"Delta":212974459},{"NoteNumber":84,"Velocity":63,"Duration":405405,"SoundDuration":405405,"Delta":212974459},{"NoteNumber":44,"Velocity":39,"Duration":405405,"SoundDuration":405405,"Delta":212974459},{"NoteNumber":56,"Velocity":51,"Duration":405405,"SoundDuration":405405,"Delta":212974459},{"NoteNumber":75,"Velocity":66,"Duration":1220366,"SoundDuration":1220366,"Delta":213379864},{"NoteNumber":70,"Velocity":64,"Duration":810810,"SoundDuration":810810,"Delta":213379864},{"NoteNumber":82,"Velocity":76,"Duration":810810,"SoundDuration":810810,"Delta":213379864},{"NoteNumber":51,"Velocity":56,"Duration":1220366,"SoundDuration":1220366,"Delta":213379864},{"NoteNumber":43,"Velocity":54,"Duration":810810,"SoundDuration":810810,"Delta":213379864},{"NoteNumber":55,"Velocity":65,"Duration":810810,"SoundDuration":810810,"Delta":213379864},{"NoteNumber":68,"Velocity":63,"Duration":409556,"SoundDuration":409556,"Delta":214190674},{"NoteNumber":80,"Velocity":72,"Duration":409556,"SoundDuration":409556,"Delta":214190674},{"NoteNumber":41,"Velocity":50,"Duration":409556,"SoundDuration":409556,"Delta":214190674},{"NoteNumber":53,"Velocity":60,"Duration":409556,"SoundDuration":409556,"Delta":214190674},{"NoteNumber":67,"Velocity":67,"Duration":419579,"SoundDuration":419579,"Delta":214600230},{"NoteNumber":79,"Velocity":80,"Duration":419579,"SoundDuration":419579,"Delta":214600230},{"NoteNumber":39,"Velocity":51,"Duration":419579,"SoundDuration":419579,"Delta":214600230},{"NoteNumber":51,"Velocity":62,"Duration":419579,"SoundDuration":419579,"Delta":214600230},{"NoteNumber":65,"Velocity":69,"Duration":1678320,"SoundDuration":1678320,"Delta":215019810},{"NoteNumber":68,"Velocity":69,"Duration":1678320,"SoundDuration":1678320,"Delta":215019810},{"NoteNumber":72,"Velocity":83,"Duration":1678320,"SoundDuration":1678320,"Delta":215019810},{"NoteNumber":77,"Velocity":83,"Duration":1678320,"SoundDuration":1678320,"Delta":215019810},{"NoteNumber":53,"Velocity":51,"Duration":1678320,"SoundDuration":1678320,"Delta":215019810},{"NoteNumber":56,"Velocity":51,"Duration":1678320,"SoundDuration":1678320,"Delta":215019810},{"NoteNumber":60,"Velocity":62,"Duration":1678320,"SoundDuration":1678320,"Delta":215019810},{"NoteNumber":70,"Velocity":70,"Duration":839159,"SoundDuration":839159,"Delta":216698130},{"NoteNumber":74,"Velocity":70,"Duration":839159,"SoundDuration":839159,"Delta":216698130},{"NoteNumber":77,"Velocity":83,"Duration":839159,"SoundDuration":839159,"Delta":216698130},{"NoteNumber":82,"Velocity":83,"Duration":839159,"SoundDuration":839159,"Delta":216698130},{"NoteNumber":50,"Velocity":53,"Duration":839159,"SoundDuration":839159,"Delta":216698130},{"NoteNumber":53,"Velocity":53,"Duration":839159,"SoundDuration":839159,"Delta":216698130},{"NoteNumber":62,"Velocity":64,"Duration":839159,"SoundDuration":839159,"Delta":216698130},{"NoteNumber":58,"Velocity":64,"Duration":839159,"SoundDuration":839159,"Delta":216698130},{"NoteNumber":84,"Velocity":81,"Duration":884264,"SoundDuration":884264,"Delta":217537290},{"NoteNumber":79,"Velocity":81,"Duration":884264,"SoundDuration":884264,"Delta":217537290},{"NoteNumber":75,"Velocity":67,"Duration":884264,"SoundDuration":884264,"Delta":217537290},{"NoteNumber":72,"Velocity":67,"Duration":884264,"SoundDuration":884264,"Delta":217537290},{"NoteNumber":63,"Velocity":59,"Duration":734264,"SoundDuration":734264,"Delta":217537290},{"NoteNumber":55,"Velocity":49,"Duration":734264,"SoundDuration":734264,"Delta":217537290},{"NoteNumber":48,"Velocity":49,"Duration":734264,"SoundDuration":734264,"Delta":217537290},{"NoteNumber":32,"Velocity":72,"Duration":150000,"SoundDuration":150000,"Delta":218271555},{"NoteNumber":75,"Velocity":83,"Duration":412371,"SoundDuration":412371,"Delta":218421555},{"NoteNumber":63,"Velocity":69,"Duration":412371,"SoundDuration":412371,"Delta":218421555},{"NoteNumber":60,"Velocity":67,"Duration":412371,"SoundDuration":412371,"Delta":218421555},{"NoteNumber":48,"Velocity":56,"Duration":412371,"SoundDuration":412371,"Delta":218421555},{"NoteNumber":75,"Velocity":76,"Duration":412370,"SoundDuration":412370,"Delta":218833926},{"NoteNumber":63,"Velocity":64,"Duration":412370,"SoundDuration":412370,"Delta":218833926},{"NoteNumber":60,"Velocity":63,"Duration":412370,"SoundDuration":412370,"Delta":218833926},{"NoteNumber":48,"Velocity":51,"Duration":412370,"SoundDuration":412370,"Delta":218833926},{"NoteNumber":68,"Velocity":66,"Duration":829315,"SoundDuration":829315,"Delta":219246297},{"NoteNumber":74,"Velocity":76,"Duration":406779,"SoundDuration":406779,"Delta":219246297},{"NoteNumber":62,"Velocity":64,"Duration":406779,"SoundDuration":406779,"Delta":219246297},{"NoteNumber":51,"Velocity":45,"Duration":829315,"SoundDuration":829315,"Delta":219246297},{"NoteNumber":58,"Velocity":60,"Duration":406779,"SoundDuration":406779,"Delta":219246297},{"NoteNumber":46,"Velocity":50,"Duration":406779,"SoundDuration":406779,"Delta":219246297},{"NoteNumber":72,"Velocity":75,"Duration":422535,"SoundDuration":422535,"Delta":219653077},{"NoteNumber":60,"Velocity":63,"Duration":422535,"SoundDuration":422535,"Delta":219653077},{"NoteNumber":56,"Velocity":57,"Duration":422535,"SoundDuration":422535,"Delta":219653077},{"NoteNumber":44,"Velocity":48,"Duration":422535,"SoundDuration":422535,"Delta":219653077},{"NoteNumber":63,"Velocity":69,"Duration":1234336,"SoundDuration":1234336,"Delta":220075612},{"NoteNumber":58,"Velocity":69,"Duration":819111,"SoundDuration":819111,"Delta":220075612},{"NoteNumber":70,"Velocity":82,"Duration":819111,"SoundDuration":819111,"Delta":220075612},{"NoteNumber":51,"Velocity":54,"Duration":1234336,"SoundDuration":1234336,"Delta":220075612},{"NoteNumber":43,"Velocity":52,"Duration":819111,"SoundDuration":819111,"Delta":220075612},{"NoteNumber":55,"Velocity":63,"Duration":819111,"SoundDuration":819111,"Delta":220075612},{"NoteNumber":56,"Velocity":69,"Duration":415224,"SoundDuration":415224,"Delta":220894724},{"NoteNumber":68,"Velocity":83,"Duration":415224,"SoundDuration":415224,"Delta":220894724},{"NoteNumber":41,"Velocity":52,"Duration":415224,"SoundDuration":415224,"Delta":220894724},{"NoteNumber":53,"Velocity":63,"Duration":415224,"SoundDuration":415224,"Delta":220894724},{"NoteNumber":55,"Velocity":67,"Duration":419579,"SoundDuration":419579,"Delta":221309949},{"NoteNumber":67,"Velocity":80,"Duration":419579,"SoundDuration":419579,"Delta":221309949},{"NoteNumber":39,"Velocity":54,"Duration":419579,"SoundDuration":419579,"Delta":221309949},{"NoteNumber":51,"Velocity":65,"Duration":419579,"SoundDuration":419579,"Delta":221309949},{"NoteNumber":53,"Velocity":70,"Duration":1678320,"SoundDuration":1678320,"Delta":221729529},{"NoteNumber":60,"Velocity":70,"Duration":1678320,"SoundDuration":1678320,"Delta":221729529},{"NoteNumber":65,"Velocity":84,"Duration":1678320,"SoundDuration":1678320,"Delta":221729529},{"NoteNumber":63,"Velocity":84,"Duration":1678320,"SoundDuration":1678320,"Delta":221729529},{"NoteNumber":44,"Velocity":56,"Duration":1678320,"SoundDuration":1678320,"Delta":221729529},{"NoteNumber":56,"Velocity":68,"Duration":1678320,"SoundDuration":1678320,"Delta":221729529},{"NoteNumber":58,"Velocity":72,"Duration":1678319,"SoundDuration":1678319,"Delta":223407849},{"NoteNumber":62,"Velocity":72,"Duration":1678319,"SoundDuration":1678319,"Delta":223407849},{"NoteNumber":67,"Velocity":87,"Duration":1678319,"SoundDuration":1678319,"Delta":223407849},{"NoteNumber":70,"Velocity":87,"Duration":1678319,"SoundDuration":1678319,"Delta":223407849},{"NoteNumber":43,"Velocity":60,"Duration":1678319,"SoundDuration":1678319,"Delta":223407849},{"NoteNumber":55,"Velocity":71,"Duration":1678319,"SoundDuration":1678319,"Delta":223407849},{"NoteNumber":51,"Velocity":100,"Duration":1635411,"SoundDuration":1635411,"Delta":225086169},{"NoteNumber":27,"Velocity":85,"Duration":1635411,"SoundDuration":1635411,"Delta":225086169},{"NoteNumber":39,"Velocity":90,"Duration":1635411,"SoundDuration":1635411,"Delta":225086169},{"NoteNumber":63,"Velocity":80,"Duration":1421125,"SoundDuration":1421125,"Delta":225300454},{"NoteNumber":67,"Velocity":80,"Duration":1421125,"SoundDuration":1421125,"Delta":225300454},{"NoteNumber":70,"Velocity":94,"Duration":1421125,"SoundDuration":1421125,"Delta":225300454},{"NoteNumber":75,"Velocity":94,"Duration":1421125,"SoundDuration":1421125,"Delta":225300454},{"NoteNumber":43,"Velocity":63,"Duration":1421125,"SoundDuration":1421125,"Delta":225300454},{"NoteNumber":46,"Velocity":63,"Duration":1421125,"SoundDuration":1421125,"Delta":225300454},{"NoteNumber":51,"Velocity":76,"Duration":1421125,"SoundDuration":1421125,"Delta":225300454},{"NoteNumber":55,"Velocity":76,"Duration":1421125,"SoundDuration":1421125,"Delta":225300454},{"NoteNumber":51,"Velocity":90,"Duration":1718014,"SoundDuration":1718014,"Delta":226721580},{"NoteNumber":27,"Velocity":76,"Duration":1718014,"SoundDuration":1718014,"Delta":226721580},{"NoteNumber":39,"Velocity":90,"Duration":1718014,"SoundDuration":1718014,"Delta":226721580},{"NoteNumber":65,"Velocity":73,"Duration":1518014,"SoundDuration":1518014,"Delta":226921580},{"NoteNumber":70,"Velocity":73,"Duration":1518014,"SoundDuration":1518014,"Delta":226921580},{"NoteNumber":74,"Velocity":89,"Duration":1518014,"SoundDuration":1518014,"Delta":226921580},{"NoteNumber":77,"Velocity":89,"Duration":1518014,"SoundDuration":1518014,"Delta":226921580},{"NoteNumber":41,"Velocity":62,"Duration":1518014,"SoundDuration":1518014,"Delta":226921580},{"NoteNumber":46,"Velocity":62,"Duration":1518014,"SoundDuration":1518014,"Delta":226921580},{"NoteNumber":50,"Velocity":62,"Duration":1518014,"SoundDuration":1518014,"Delta":226921580},{"NoteNumber":53,"Velocity":71,"Duration":1518014,"SoundDuration":1518014,"Delta":226921580},{"NoteNumber":51,"Velocity":90,"Duration":1019024,"SoundDuration":1019024,"Delta":228439595},{"NoteNumber":29,"Velocity":84,"Duration":1019024,"SoundDuration":1019024,"Delta":228439595},{"NoteNumber":67,"Velocity":80,"Duration":850460,"SoundDuration":850460,"Delta":228608160},{"NoteNumber":70,"Velocity":80,"Duration":850460,"SoundDuration":850460,"Delta":228608160},{"NoteNumber":75,"Velocity":94,"Duration":850460,"SoundDuration":850460,"Delta":228608160},{"NoteNumber":79,"Velocity":94,"Duration":850460,"SoundDuration":850460,"Delta":228608160},{"NoteNumber":39,"Velocity":63,"Duration":850460,"SoundDuration":850460,"Delta":228608160},{"NoteNumber":43,"Velocity":63,"Duration":850460,"SoundDuration":850460,"Delta":228608160},{"NoteNumber":46,"Velocity":76,"Duration":850460,"SoundDuration":850460,"Delta":228608160},{"NoteNumber":51,"Velocity":76,"Duration":1669658,"SoundDuration":1669658,"Delta":228608160},{"NoteNumber":63,"Velocity":75,"Duration":405405,"SoundDuration":405405,"Delta":229458620},{"NoteNumber":67,"Velocity":75,"Duration":405405,"SoundDuration":405405,"Delta":229458620},{"NoteNumber":72,"Velocity":90,"Duration":405405,"SoundDuration":405405,"Delta":229458620},{"NoteNumber":75,"Velocity":90,"Duration":405405,"SoundDuration":405405,"Delta":229458620},{"NoteNumber":36,"Velocity":62,"Duration":819198,"SoundDuration":819198,"Delta":229458620},{"NoteNumber":39,"Velocity":62,"Duration":819198,"SoundDuration":819198,"Delta":229458620},{"NoteNumber":43,"Velocity":71,"Duration":819198,"SoundDuration":819198,"Delta":229458620},{"NoteNumber":48,"Velocity":71,"Duration":819198,"SoundDuration":819198,"Delta":229458620},{"NoteNumber":67,"Velocity":69,"Duration":413792,"SoundDuration":413792,"Delta":229864025},{"NoteNumber":79,"Velocity":82,"Duration":413792,"SoundDuration":413792,"Delta":229864025},{"NoteNumber":65,"Velocity":71,"Duration":809607,"SoundDuration":809607,"Delta":230277818},{"NoteNumber":70,"Velocity":71,"Duration":809607,"SoundDuration":809607,"Delta":230277818},{"NoteNumber":74,"Velocity":85,"Duration":809607,"SoundDuration":809607,"Delta":230277818},{"NoteNumber":77,"Velocity":85,"Duration":809607,"SoundDuration":809607,"Delta":230277818},{"NoteNumber":38,"Velocity":57,"Duration":809607,"SoundDuration":809607,"Delta":230277818},{"NoteNumber":41,"Velocity":57,"Duration":809607,"SoundDuration":809607,"Delta":230277818},{"NoteNumber":46,"Velocity":68,"Duration":809607,"SoundDuration":809607,"Delta":230277818},{"NoteNumber":50,"Velocity":68,"Duration":809607,"SoundDuration":809607,"Delta":230277818},{"NoteNumber":58,"Velocity":67,"Duration":708406,"SoundDuration":708406,"Delta":231087426},{"NoteNumber":70,"Velocity":80,"Duration":708406,"SoundDuration":708406,"Delta":231087426},{"NoteNumber":34,"Velocity":63,"Duration":708406,"SoundDuration":708406,"Delta":231087426},{"NoteNumber":46,"Velocity":72,"Duration":708406,"SoundDuration":708406,"Delta":231087426},{"NoteNumber":51,"Velocity":90,"Duration":3247721,"SoundDuration":3247721,"Delta":231795833},{"NoteNumber":27,"Velocity":76,"Duration":3247721,"SoundDuration":3247721,"Delta":231795833},{"NoteNumber":39,"Velocity":90,"Duration":3247721,"SoundDuration":3247721,"Delta":231795833},{"NoteNumber":67,"Velocity":75,"Duration":393933,"SoundDuration":393933,"Delta":231962500},{"NoteNumber":70,"Velocity":75,"Duration":393933,"SoundDuration":393933,"Delta":231962500},{"NoteNumber":79,"Velocity":90,"Duration":393933,"SoundDuration":393933,"Delta":231962500},{"NoteNumber":75,"Velocity":90,"Duration":393933,"SoundDuration":393933,"Delta":231962500},{"NoteNumber":43,"Velocity":71,"Duration":792631,"SoundDuration":792631,"Delta":231962500},{"NoteNumber":55,"Velocity":71,"Duration":792631,"SoundDuration":792631,"Delta":231962500},{"NoteNumber":46,"Velocity":71,"Duration":792631,"SoundDuration":792631,"Delta":231962500},{"NoteNumber":70,"Velocity":69,"Duration":398697,"SoundDuration":398697,"Delta":232356433},{"NoteNumber":82,"Velocity":83,"Duration":398697,"SoundDuration":398697,"Delta":232356433},{"NoteNumber":70,"Velocity":89,"Duration":793407,"SoundDuration":793407,"Delta":232755131},{"NoteNumber":65,"Velocity":73,"Duration":394736,"SoundDuration":394736,"Delta":232755131},{"NoteNumber":77,"Velocity":89,"Duration":394736,"SoundDuration":394736,"Delta":232755131},{"NoteNumber":38,"Velocity":63,"Duration":394736,"SoundDuration":394736,"Delta":232755131},{"NoteNumber":50,"Velocity":75,"Duration":394736,"SoundDuration":394736,"Delta":232755131},{"NoteNumber":46,"Velocity":75,"Duration":793407,"SoundDuration":793407,"Delta":232755131},{"NoteNumber":63,"Velocity":72,"Duration":398671,"SoundDuration":398671,"Delta":233149868},{"NoteNumber":75,"Velocity":87,"Duration":398671,"SoundDuration":398671,"Delta":233149868},{"NoteNumber":36,"Velocity":63,"Duration":398671,"SoundDuration":398671,"Delta":233149868},{"NoteNumber":48,"Velocity":75,"Duration":398671,"SoundDuration":398671,"Delta":233149868},{"NoteNumber":62,"Velocity":71,"Duration":797341,"SoundDuration":797341,"Delta":233548539},{"NoteNumber":70,"Velocity":85,"Duration":797341,"SoundDuration":797341,"Delta":233548539},{"NoteNumber":74,"Velocity":85,"Duration":797341,"SoundDuration":797341,"Delta":233548539},{"NoteNumber":34,"Velocity":50,"Duration":797341,"SoundDuration":797341,"Delta":233548539},{"NoteNumber":43,"Velocity":62,"Duration":797341,"SoundDuration":797341,"Delta":233548539},{"NoteNumber":46,"Velocity":62,"Duration":797341,"SoundDuration":797341,"Delta":233548539},{"NoteNumber":58,"Velocity":63,"Duration":697674,"SoundDuration":697674,"Delta":234345881},{"NoteNumber":67,"Velocity":75,"Duration":697674,"SoundDuration":697674,"Delta":234345881},{"NoteNumber":70,"Velocity":75,"Duration":697674,"SoundDuration":697674,"Delta":234345881},{"NoteNumber":38,"Velocity":45,"Duration":697674,"SoundDuration":697674,"Delta":234345881},{"NoteNumber":46,"Velocity":54,"Duration":697674,"SoundDuration":697674,"Delta":234345881},{"NoteNumber":50,"Velocity":54,"Duration":697674,"SoundDuration":697674,"Delta":234345881},{"NoteNumber":51,"Velocity":90,"Duration":978966,"SoundDuration":978966,"Delta":235043555},{"NoteNumber":27,"Velocity":76,"Duration":3386042,"SoundDuration":3386042,"Delta":235043555},{"NoteNumber":39,"Velocity":81,"Duration":3386042,"SoundDuration":3386042,"Delta":235043555},{"NoteNumber":67,"Velocity":75,"Duration":393933,"SoundDuration":393933,"Delta":235229891},{"NoteNumber":70,"Velocity":90,"Duration":393933,"SoundDuration":393933,"Delta":235229891},{"NoteNumber":79,"Velocity":90,"Duration":393933,"SoundDuration":393933,"Delta":235229891},{"NoteNumber":75,"Velocity":90,"Duration":393933,"SoundDuration":393933,"Delta":235229891},{"NoteNumber":46,"Velocity":71,"Duration":792631,"SoundDuration":792631,"Delta":235229891},{"NoteNumber":51,"Velocity":71,"Duration":3199706,"SoundDuration":3199706,"Delta":235229891},{"NoteNumber":70,"Velocity":69,"Duration":398697,"SoundDuration":398697,"Delta":235623824},{"NoteNumber":82,"Velocity":83,"Duration":398697,"SoundDuration":398697,"Delta":235623824},{"NoteNumber":70,"Velocity":87,"Duration":793407,"SoundDuration":793407,"Delta":236022522},{"NoteNumber":65,"Velocity":72,"Duration":394736,"SoundDuration":394736,"Delta":236022522},{"NoteNumber":77,"Velocity":87,"Duration":394736,"SoundDuration":394736,"Delta":236022522},{"NoteNumber":38,"Velocity":63,"Duration":394736,"SoundDuration":394736,"Delta":236022522},{"NoteNumber":50,"Velocity":75,"Duration":394736,"SoundDuration":394736,"Delta":236022522},{"NoteNumber":46,"Velocity":75,"Duration":793407,"SoundDuration":793407,"Delta":236022522},{"NoteNumber":63,"Velocity":70,"Duration":398671,"SoundDuration":398671,"Delta":236417259},{"NoteNumber":75,"Velocity":84,"Duration":398671,"SoundDuration":398671,"Delta":236417259},{"NoteNumber":36,"Velocity":63,"Duration":398671,"SoundDuration":398671,"Delta":236417259},{"NoteNumber":48,"Velocity":75,"Duration":398671,"SoundDuration":398671,"Delta":236417259},{"NoteNumber":62,"Velocity":81,"Duration":797341,"SoundDuration":797341,"Delta":236815930},{"NoteNumber":70,"Velocity":81,"Duration":797341,"SoundDuration":797341,"Delta":236815930},{"NoteNumber":74,"Velocity":81,"Duration":797341,"SoundDuration":797341,"Delta":236815930},{"NoteNumber":34,"Velocity":56,"Duration":797341,"SoundDuration":797341,"Delta":236815930},{"NoteNumber":43,"Velocity":68,"Duration":797341,"SoundDuration":797341,"Delta":236815930},{"NoteNumber":46,"Velocity":68,"Duration":797341,"SoundDuration":797341,"Delta":236815930},{"NoteNumber":58,"Velocity":63,"Duration":816326,"SoundDuration":816326,"Delta":237613272},{"NoteNumber":67,"Velocity":73,"Duration":816326,"SoundDuration":816326,"Delta":237613272},{"NoteNumber":70,"Velocity":73,"Duration":816326,"SoundDuration":816326,"Delta":237613272},{"NoteNumber":38,"Velocity":45,"Duration":816326,"SoundDuration":816326,"Delta":237613272},{"NoteNumber":46,"Velocity":52,"Duration":816326,"SoundDuration":816326,"Delta":237613272},{"NoteNumber":50,"Velocity":52,"Duration":816326,"SoundDuration":816326,"Delta":237613272},{"NoteNumber":59,"Velocity":50,"Duration":1573213,"SoundDuration":1573213,"Delta":238429598},{"NoteNumber":63,"Velocity":50,"Duration":1573213,"SoundDuration":1573213,"Delta":238429598},{"NoteNumber":68,"Velocity":50,"Duration":1573213,"SoundDuration":1573213,"Delta":238429598},{"NoteNumber":51,"Velocity":50,"Duration":1573213,"SoundDuration":1573213,"Delta":238429598},{"NoteNumber":44,"Velocity":50,"Duration":1573213,"SoundDuration":1573213,"Delta":238429598},{"NoteNumber":59,"Velocity":49,"Duration":747478,"SoundDuration":747478,"Delta":240002811},{"NoteNumber":63,"Velocity":49,"Duration":747478,"SoundDuration":747478,"Delta":240002811},{"NoteNumber":44,"Velocity":42,"Duration":747478,"SoundDuration":747478,"Delta":240002811},{"NoteNumber":51,"Velocity":42,"Duration":747478,"SoundDuration":747478,"Delta":240002811},{"NoteNumber":59,"Velocity":47,"Duration":732689,"SoundDuration":732689,"Delta":240750289},{"NoteNumber":63,"Velocity":47,"Duration":732689,"SoundDuration":732689,"Delta":240750289},{"NoteNumber":47,"Velocity":41,"Duration":732689,"SoundDuration":732689,"Delta":240750289},{"NoteNumber":56,"Velocity":41,"Duration":732689,"SoundDuration":732689,"Delta":240750289},{"NoteNumber":61,"Velocity":50,"Duration":732690,"SoundDuration":732690,"Delta":241482979},{"NoteNumber":64,"Velocity":50,"Duration":732690,"SoundDuration":732690,"Delta":241482979},{"NoteNumber":49,"Velocity":43,"Duration":732690,"SoundDuration":732690,"Delta":241482979},{"NoteNumber":56,"Velocity":43,"Duration":732690,"SoundDuration":732690,"Delta":241482979},{"NoteNumber":63,"Velocity":50,"Duration":725514,"SoundDuration":725514,"Delta":242215669},{"NoteNumber":66,"Velocity":50,"Duration":725514,"SoundDuration":725514,"Delta":242215669},{"NoteNumber":47,"Velocity":43,"Duration":725514,"SoundDuration":725514,"Delta":242215669},{"NoteNumber":59,"Velocity":43,"Duration":725514,"SoundDuration":725514,"Delta":242215669},{"NoteNumber":64,"Velocity":53,"Duration":1475108,"SoundDuration":1475108,"Delta":242941183},{"NoteNumber":68,"Velocity":53,"Duration":1475108,"SoundDuration":1475108,"Delta":242941183},{"NoteNumber":52,"Velocity":45,"Duration":1475108,"SoundDuration":1475108,"Delta":242941183},{"NoteNumber":59,"Velocity":45,"Duration":1475108,"SoundDuration":1475108,"Delta":242941183},{"NoteNumber":63,"Velocity":50,"Duration":1475108,"SoundDuration":1475108,"Delta":244416291},{"NoteNumber":66,"Velocity":50,"Duration":1475108,"SoundDuration":1475108,"Delta":244416291},{"NoteNumber":59,"Velocity":43,"Duration":1475108,"SoundDuration":1475108,"Delta":244416291},{"NoteNumber":64,"Velocity":51,"Duration":723151,"SoundDuration":723151,"Delta":245891399},{"NoteNumber":68,"Velocity":51,"Duration":723151,"SoundDuration":723151,"Delta":245891399},{"NoteNumber":59,"Velocity":43,"Duration":723151,"SoundDuration":723151,"Delta":245891399},{"NoteNumber":56,"Velocity":43,"Duration":723151,"SoundDuration":723151,"Delta":245891399},{"NoteNumber":66,"Velocity":52,"Duration":723151,"SoundDuration":723151,"Delta":246614551},{"NoteNumber":69,"Velocity":52,"Duration":723151,"SoundDuration":723151,"Delta":246614551},{"NoteNumber":61,"Velocity":44,"Duration":723151,"SoundDuration":723151,"Delta":246614551},{"NoteNumber":54,"Velocity":44,"Duration":723151,"SoundDuration":723151,"Delta":246614551},{"NoteNumber":68,"Velocity":53,"Duration":720808,"SoundDuration":720808,"Delta":247337703},{"NoteNumber":71,"Velocity":53,"Duration":720808,"SoundDuration":720808,"Delta":247337703},{"NoteNumber":52,"Velocity":46,"Duration":720808,"SoundDuration":720808,"Delta":247337703},{"NoteNumber":64,"Velocity":46,"Duration":720808,"SoundDuration":720808,"Delta":247337703},{"NoteNumber":68,"Velocity":50,"Duration":730281,"SoundDuration":730281,"Delta":248058511},{"NoteNumber":71,"Velocity":50,"Duration":730281,"SoundDuration":730281,"Delta":248058511},{"NoteNumber":52,"Velocity":43,"Duration":730281,"SoundDuration":730281,"Delta":248058511},{"NoteNumber":64,"Velocity":43,"Duration":730281,"SoundDuration":730281,"Delta":248058511},{"NoteNumber":66,"Velocity":53,"Duration":716161,"SoundDuration":716161,"Delta":248788793},{"NoteNumber":69,"Velocity":53,"Duration":716161,"SoundDuration":716161,"Delta":248788793},{"NoteNumber":57,"Velocity":45,"Duration":716161,"SoundDuration":716161,"Delta":248788793},{"NoteNumber":64,"Velocity":45,"Duration":716161,"SoundDuration":716161,"Delta":248788793},{"NoteNumber":68,"Velocity":54,"Duration":725514,"SoundDuration":725514,"Delta":249504955},{"NoteNumber":71,"Velocity":54,"Duration":725514,"SoundDuration":725514,"Delta":249504955},{"NoteNumber":52,"Velocity":46,"Duration":725514,"SoundDuration":725514,"Delta":249504955},{"NoteNumber":64,"Velocity":46,"Duration":725514,"SoundDuration":725514,"Delta":249504955},{"NoteNumber":69,"Velocity":56,"Duration":1441676,"SoundDuration":1441676,"Delta":250230469},{"NoteNumber":73,"Velocity":56,"Duration":1441676,"SoundDuration":1441676,"Delta":250230469},{"NoteNumber":64,"Velocity":47,"Duration":1441676,"SoundDuration":1441676,"Delta":250230469},{"NoteNumber":57,"Velocity":47,"Duration":1441676,"SoundDuration":1441676,"Delta":250230469},{"NoteNumber":66,"Velocity":63,"Duration":709304,"SoundDuration":709304,"Delta":251672145},{"NoteNumber":74,"Velocity":63,"Duration":709304,"SoundDuration":709304,"Delta":251672145},{"NoteNumber":62,"Velocity":52,"Duration":709304,"SoundDuration":709304,"Delta":251672145},{"NoteNumber":59,"Velocity":52,"Duration":709304,"SoundDuration":709304,"Delta":251672145},{"NoteNumber":69,"Velocity":56,"Duration":718476,"SoundDuration":718476,"Delta":252381449},{"NoteNumber":73,"Velocity":56,"Duration":718476,"SoundDuration":718476,"Delta":252381449},{"NoteNumber":64,"Velocity":49,"Duration":718476,"SoundDuration":718476,"Delta":252381449},{"NoteNumber":57,"Velocity":49,"Duration":718476,"SoundDuration":718476,"Delta":252381449},{"NoteNumber":68,"Velocity":53,"Duration":1436951,"SoundDuration":1436951,"Delta":253099925},{"NoteNumber":71,"Velocity":53,"Duration":1436951,"SoundDuration":1436951,"Delta":253099925},{"NoteNumber":52,"Velocity":47,"Duration":1436951,"SoundDuration":1436951,"Delta":253099925},{"NoteNumber":64,"Velocity":47,"Duration":1436951,"SoundDuration":1436951,"Delta":253099925},{"NoteNumber":64,"Velocity":54,"Duration":718476,"SoundDuration":718476,"Delta":254536877},{"NoteNumber":73,"Velocity":54,"Duration":718476,"SoundDuration":718476,"Delta":254536877},{"NoteNumber":57,"Velocity":48,"Duration":718476,"SoundDuration":718476,"Delta":254536877},{"NoteNumber":61,"Velocity":48,"Duration":718476,"SoundDuration":718476,"Delta":254536877},{"NoteNumber":71,"Velocity":52,"Duration":723151,"SoundDuration":723151,"Delta":255255353},{"NoteNumber":68,"Velocity":52,"Duration":723151,"SoundDuration":723151,"Delta":255255353},{"NoteNumber":52,"Velocity":47,"Duration":723151,"SoundDuration":723151,"Delta":255255353},{"NoteNumber":59,"Velocity":47,"Duration":723151,"SoundDuration":723151,"Delta":255255353},{"NoteNumber":61,"Velocity":51,"Duration":723152,"SoundDuration":723152,"Delta":255978505},{"NoteNumber":69,"Velocity":51,"Duration":723152,"SoundDuration":723152,"Delta":255978505},{"NoteNumber":57,"Velocity":45,"Duration":723152,"SoundDuration":723152,"Delta":255978505},{"NoteNumber":54,"Velocity":45,"Duration":723152,"SoundDuration":723152,"Delta":255978505},{"NoteNumber":64,"Velocity":49,"Duration":723151,"SoundDuration":723151,"Delta":256701657},{"NoteNumber":68,"Velocity":49,"Duration":723151,"SoundDuration":723151,"Delta":256701657},{"NoteNumber":49,"Velocity":41,"Duration":723151,"SoundDuration":723151,"Delta":256701657},{"NoteNumber":56,"Velocity":41,"Duration":723151,"SoundDuration":723151,"Delta":256701657},{"NoteNumber":63,"Velocity":52,"Duration":1455780,"SoundDuration":1455780,"Delta":257424809},{"NoteNumber":66,"Velocity":52,"Duration":1455780,"SoundDuration":1455780,"Delta":257424809},{"NoteNumber":51,"Velocity":47,"Duration":1455780,"SoundDuration":1455780,"Delta":257424809},{"NoteNumber":54,"Velocity":47,"Duration":1455780,"SoundDuration":1455780,"Delta":257424809},{"NoteNumber":61,"Velocity":50,"Duration":1509152,"SoundDuration":1509152,"Delta":258880589},{"NoteNumber":64,"Velocity":50,"Duration":1509152,"SoundDuration":1509152,"Delta":258880589},{"NoteNumber":52,"Velocity":43,"Duration":1509152,"SoundDuration":1509152,"Delta":258880589},{"NoteNumber":56,"Velocity":43,"Duration":1509152,"SoundDuration":1509152,"Delta":258880589},{"NoteNumber":56,"Velocity":46,"Duration":1536391,"SoundDuration":1536391,"Delta":260389741},{"NoteNumber":63,"Velocity":46,"Duration":1536391,"SoundDuration":1536391,"Delta":260389741},{"NoteNumber":51,"Velocity":39,"Duration":1536391,"SoundDuration":1536391,"Delta":260389741},{"NoteNumber":44,"Velocity":39,"Duration":1536391,"SoundDuration":1536391,"Delta":260389741},{"NoteNumber":56,"Velocity":37,"Duration":786885,"SoundDuration":786885,"Delta":261926133},{"NoteNumber":63,"Velocity":37,"Duration":786885,"SoundDuration":786885,"Delta":261926133},{"NoteNumber":44,"Velocity":36,"Duration":786885,"SoundDuration":786885,"Delta":261926133},{"NoteNumber":51,"Velocity":36,"Duration":786885,"SoundDuration":786885,"Delta":261926133},{"NoteNumber":56,"Velocity":35,"Duration":688525,"SoundDuration":688525,"Delta":262713019},{"NoteNumber":63,"Velocity":35,"Duration":688525,"SoundDuration":688525,"Delta":262713019},{"NoteNumber":44,"Velocity":34,"Duration":688525,"SoundDuration":688525,"Delta":262713019},{"NoteNumber":51,"Velocity":34,"Duration":688525,"SoundDuration":688525,"Delta":262713019},{"NoteNumber":39,"Velocity":81,"Duration":1488417,"SoundDuration":1488417,"Delta":263401544},{"NoteNumber":91,"Velocity":71,"Duration":179246,"SoundDuration":179246,"Delta":263531682},{"NoteNumber":103,"Velocity":90,"Duration":179264,"SoundDuration":179264,"Delta":263533175},{"NoteNumber":43,"Velocity":72,"Duration":1356787,"SoundDuration":1356787,"Delta":263533175},{"NoteNumber":46,"Velocity":72,"Duration":1356787,"SoundDuration":1356787,"Delta":263533175},{"NoteNumber":51,"Velocity":88,"Duration":1356787,"SoundDuration":1356787,"Delta":263533175},{"NoteNumber":101,"Velocity":83,"Duration":180132,"SoundDuration":180132,"Delta":263712439},{"NoteNumber":89,"Velocity":65,"Duration":180127,"SoundDuration":180127,"Delta":263713194},{"NoteNumber":87,"Velocity":71,"Duration":180382,"SoundDuration":180382,"Delta":263891821},{"NoteNumber":99,"Velocity":90,"Duration":180389,"SoundDuration":180389,"Delta":263892571},{"NoteNumber":98,"Velocity":82,"Duration":180930,"SoundDuration":180930,"Delta":264072961},{"NoteNumber":86,"Velocity":64,"Duration":180930,"SoundDuration":180930,"Delta":264074476},{"NoteNumber":96,"Velocity":88,"Duration":180889,"SoundDuration":180889,"Delta":264253891},{"NoteNumber":84,"Velocity":70,"Duration":180880,"SoundDuration":180880,"Delta":264254649},{"NoteNumber":82,"Velocity":64,"Duration":181320,"SoundDuration":181320,"Delta":264434781},{"NoteNumber":94,"Velocity":82,"Duration":181320,"SoundDuration":181320,"Delta":264434781},{"NoteNumber":92,"Velocity":88,"Duration":182396,"SoundDuration":182396,"Delta":264616102},{"NoteNumber":80,"Velocity":70,"Duration":182396,"SoundDuration":182396,"Delta":264616102},{"NoteNumber":91,"Velocity":82,"Duration":197620,"SoundDuration":197620,"Delta":264798499},{"NoteNumber":79,"Velocity":64,"Duration":197606,"SoundDuration":197606,"Delta":264800785},{"NoteNumber":41,"Velocity":75,"Duration":1470471,"SoundDuration":1470471,"Delta":264889962},{"NoteNumber":89,"Velocity":87,"Duration":181012,"SoundDuration":181012,"Delta":264996119},{"NoteNumber":46,"Velocity":70,"Duration":1364314,"SoundDuration":1364314,"Delta":264996119},{"NoteNumber":50,"Velocity":70,"Duration":1364314,"SoundDuration":1364314,"Delta":264996119},{"NoteNumber":53,"Velocity":86,"Duration":1364314,"SoundDuration":1364314,"Delta":264996119},{"NoteNumber":77,"Velocity":70,"Duration":181021,"SoundDuration":181021,"Delta":264997634},{"NoteNumber":87,"Velocity":81,"Duration":182095,"SoundDuration":182095,"Delta":265177131},{"NoteNumber":75,"Velocity":63,"Duration":182082,"SoundDuration":182082,"Delta":265178656},{"NoteNumber":74,"Velocity":68,"Duration":181922,"SoundDuration":181922,"Delta":265358472},{"NoteNumber":86,"Velocity":86,"Duration":181927,"SoundDuration":181927,"Delta":265359227},{"NoteNumber":84,"Velocity":80,"Duration":181459,"SoundDuration":181459,"Delta":265541154},{"NoteNumber":72,"Velocity":63,"Duration":181439,"SoundDuration":181439,"Delta":265543434},{"NoteNumber":82,"Velocity":86,"Duration":181488,"SoundDuration":181488,"Delta":265722614},{"NoteNumber":70,"Velocity":68,"Duration":181506,"SoundDuration":181506,"Delta":265724120},{"NoteNumber":80,"Velocity":80,"Duration":181940,"SoundDuration":181940,"Delta":265904102},{"NoteNumber":68,"Velocity":63,"Duration":181945,"SoundDuration":181945,"Delta":265904865},{"NoteNumber":67,"Velocity":68,"Duration":182840,"SoundDuration":182840,"Delta":266085276},{"NoteNumber":79,"Velocity":86,"Duration":182833,"SoundDuration":182833,"Delta":266086043},{"NoteNumber":65,"Velocity":63,"Duration":195775,"SoundDuration":195775,"Delta":266267357},{"NoteNumber":77,"Velocity":80,"Duration":195799,"SoundDuration":195799,"Delta":266268877},{"NoteNumber":43,"Velocity":80,"Duration":750397,"SoundDuration":750397,"Delta":266360434},{"NoteNumber":63,"Velocity":66,"Duration":184621,"SoundDuration":184621,"Delta":266463132},{"NoteNumber":75,"Velocity":84,"Duration":184615,"SoundDuration":184615,"Delta":266464677},{"NoteNumber":46,"Velocity":70,"Duration":646154,"SoundDuration":646154,"Delta":266464677},{"NoteNumber":51,"Velocity":70,"Duration":646154,"SoundDuration":646154,"Delta":266464677},{"NoteNumber":55,"Velocity":87,"Duration":646154,"SoundDuration":646154,"Delta":266464677},{"NoteNumber":62,"Velocity":63,"Duration":184615,"SoundDuration":184615,"Delta":266649292},{"NoteNumber":74,"Velocity":79,"Duration":184615,"SoundDuration":184615,"Delta":266649292},{"NoteNumber":60,"Velocity":66,"Duration":184615,"SoundDuration":184615,"Delta":266832369},{"NoteNumber":72,"Velocity":84,"Duration":184615,"SoundDuration":184615,"Delta":266833908},{"NoteNumber":58,"Velocity":62,"Duration":192932,"SoundDuration":192932,"Delta":267016985},{"NoteNumber":70,"Velocity":76,"Duration":193073,"SoundDuration":193073,"Delta":267018523},{"NoteNumber":39,"Velocity":66,"Duration":377026,"SoundDuration":377026,"Delta":267110831},{"NoteNumber":68,"Velocity":83,"Duration":184173,"SoundDuration":184173,"Delta":267211597},{"NoteNumber":46,"Velocity":67,"Duration":276260,"SoundDuration":276260,"Delta":267211597},{"NoteNumber":51,"Velocity":82,"Duration":276260,"SoundDuration":276260,"Delta":267211597},{"NoteNumber":56,"Velocity":65,"Duration":184173,"SoundDuration":184173,"Delta":267213899},{"NoteNumber":55,"Velocity":61,"Duration":184173,"SoundDuration":184173,"Delta":267395770},{"NoteNumber":67,"Velocity":73,"Duration":184173,"SoundDuration":184173,"Delta":267395770},{"NoteNumber":43,"Velocity":63,"Duration":370104,"SoundDuration":370104,"Delta":267487857},{"NoteNumber":53,"Velocity":64,"Duration":185335,"SoundDuration":185335,"Delta":267578409},{"NoteNumber":65,"Velocity":82,"Duration":185345,"SoundDuration":185345,"Delta":267579944},{"NoteNumber":46,"Velocity":64,"Duration":278018,"SoundDuration":278018,"Delta":267579944},{"NoteNumber":55,"Velocity":80,"Duration":278018,"SoundDuration":278018,"Delta":267579944},{"NoteNumber":51,"Velocity":61,"Duration":190509,"SoundDuration":190509,"Delta":267763744},{"NoteNumber":63,"Velocity":73,"Duration":190596,"SoundDuration":190596,"Delta":267765289},{"NoteNumber":41,"Velocity":63,"Duration":754625,"SoundDuration":754625,"Delta":267857962},{"NoteNumber":50,"Velocity":63,"Duration":187697,"SoundDuration":187697,"Delta":267954254},{"NoteNumber":62,"Velocity":80,"Duration":187629,"SoundDuration":187629,"Delta":267955886},{"NoteNumber":46,"Velocity":63,"Duration":563668,"SoundDuration":563668,"Delta":267955886},{"NoteNumber":53,"Velocity":79,"Duration":656701,"SoundDuration":656701,"Delta":267955886},{"NoteNumber":48,"Velocity":59,"Duration":187628,"SoundDuration":187628,"Delta":268143515},{"NoteNumber":60,"Velocity":72,"Duration":187628,"SoundDuration":187628,"Delta":268143515},{"NoteNumber":58,"Velocity":80,"Duration":187629,"SoundDuration":187629,"Delta":268331144},{"NoteNumber":46,"Velocity":63,"Duration":280661,"SoundDuration":280661,"Delta":268331926},{"NoteNumber":56,"Velocity":71,"Duration":193132,"SoundDuration":193132,"Delta":268518773},{"NoteNumber":44,"Velocity":57,"Duration":193178,"SoundDuration":193178,"Delta":268519555},{"NoteNumber":34,"Velocity":54,"Duration":851668,"SoundDuration":851668,"Delta":268612587},{"NoteNumber":55,"Velocity":79,"Duration":189463,"SoundDuration":189463,"Delta":268711905},{"NoteNumber":38,"Velocity":59,"Duration":752350,"SoundDuration":752350,"Delta":268711905},{"NoteNumber":46,"Velocity":71,"Duration":752350,"SoundDuration":752350,"Delta":268711905},{"NoteNumber":43,"Velocity":62,"Duration":189417,"SoundDuration":189417,"Delta":268712733},{"NoteNumber":53,"Velocity":69,"Duration":187629,"SoundDuration":187629,"Delta":268901369},{"NoteNumber":41,"Velocity":54,"Duration":187629,"SoundDuration":187629,"Delta":268902151},{"NoteNumber":39,"Velocity":62,"Duration":187629,"SoundDuration":187629,"Delta":269087434},{"NoteNumber":51,"Velocity":79,"Duration":187628,"SoundDuration":187628,"Delta":269088998},{"NoteNumber":50,"Velocity":68,"Duration":187629,"SoundDuration":187629,"Delta":269276627},{"NoteNumber":38,"Velocity":54,"Duration":187608,"SoundDuration":187608,"Delta":269277409},{"NoteNumber":51,"Velocity":76,"Duration":182592,"SoundDuration":182592,"Delta":269464256},{"NoteNumber":43,"Velocity":67,"Duration":365185,"SoundDuration":365185,"Delta":269464256},{"NoteNumber":46,"Velocity":67,"Duration":365185,"SoundDuration":365185,"Delta":269464256},{"NoteNumber":55,"Velocity":82,"Duration":365185,"SoundDuration":365185,"Delta":269464256},{"NoteNumber":53,"Velocity":67,"Duration":182592,"SoundDuration":182592,"Delta":269646849},{"NoteNumber":55,"Velocity":76,"Duration":184808,"SoundDuration":184808,"Delta":269829442},{"NoteNumber":51,"Velocity":63,"Duration":369617,"SoundDuration":369617,"Delta":269829442},{"NoteNumber":46,"Velocity":63,"Duration":369617,"SoundDuration":369617,"Delta":269829442},{"NoteNumber":58,"Velocity":76,"Duration":369617,"SoundDuration":369617,"Delta":269829442},{"NoteNumber":56,"Velocity":68,"Duration":184808,"SoundDuration":184808,"Delta":270014250},{"NoteNumber":58,"Velocity":79,"Duration":182960,"SoundDuration":182960,"Delta":270199059},{"NoteNumber":46,"Velocity":65,"Duration":643117,"SoundDuration":643117,"Delta":270199059},{"NoteNumber":41,"Velocity":65,"Duration":365921,"SoundDuration":365921,"Delta":270199059},{"NoteNumber":53,"Velocity":81,"Duration":365921,"SoundDuration":365921,"Delta":270199059},{"NoteNumber":60,"Velocity":68,"Duration":182960,"SoundDuration":182960,"Delta":270382019},{"NoteNumber":62,"Velocity":80,"Duration":184797,"SoundDuration":184797,"Delta":270564980},{"NoteNumber":39,"Velocity":63,"Duration":277196,"SoundDuration":277196,"Delta":270564980},{"NoteNumber":51,"Velocity":79,"Duration":277196,"SoundDuration":277196,"Delta":270564980},{"NoteNumber":63,"Velocity":69,"Duration":199358,"SoundDuration":199358,"Delta":270749777},{"NoteNumber":38,"Velocity":63,"Duration":747204,"SoundDuration":747204,"Delta":270842176},{"NoteNumber":53,"Velocity":65,"Duration":182927,"SoundDuration":182927,"Delta":270949136},{"NoteNumber":65,"Velocity":72,"Duration":182927,"SoundDuration":182927,"Delta":270949136},{"NoteNumber":46,"Velocity":63,"Duration":640244,"SoundDuration":640244,"Delta":270949136},{"NoteNumber":50,"Velocity":79,"Duration":640244,"SoundDuration":640244,"Delta":270949136},{"NoteNumber":55,"Velocity":60,"Duration":182927,"SoundDuration":182927,"Delta":271132063},{"NoteNumber":67,"Velocity":67,"Duration":182927,"SoundDuration":182927,"Delta":271132063},{"NoteNumber":56,"Velocity":70,"Duration":182927,"SoundDuration":182927,"Delta":271313465},{"NoteNumber":68,"Velocity":79,"Duration":182927,"SoundDuration":182927,"Delta":271314990},{"NoteNumber":70,"Velocity":70,"Duration":198422,"SoundDuration":198422,"Delta":271497917},{"NoteNumber":58,"Velocity":63,"Duration":198427,"SoundDuration":198427,"Delta":271498679},{"NoteNumber":34,"Velocity":54,"Duration":843155,"SoundDuration":843155,"Delta":271589380},{"NoteNumber":72,"Velocity":83,"Duration":184049,"SoundDuration":184049,"Delta":271696340},{"NoteNumber":43,"Velocity":54,"Duration":736196,"SoundDuration":736196,"Delta":271696340},{"NoteNumber":46,"Velocity":68,"Duration":736196,"SoundDuration":736196,"Delta":271696340},{"NoteNumber":60,"Velocity":72,"Duration":184049,"SoundDuration":184049,"Delta":271697873},{"NoteNumber":74,"Velocity":73,"Duration":184048,"SoundDuration":184048,"Delta":271880389},{"NoteNumber":62,"Velocity":67,"Duration":184049,"SoundDuration":184049,"Delta":271881922},{"NoteNumber":75,"Velocity":85,"Duration":184049,"SoundDuration":184049,"Delta":272064438},{"NoteNumber":63,"Velocity":75,"Duration":184049,"SoundDuration":184049,"Delta":272065204},{"NoteNumber":65,"Velocity":68,"Duration":184049,"SoundDuration":184049,"Delta":272247720},{"NoteNumber":77,"Velocity":75,"Duration":184049,"SoundDuration":184049,"Delta":272248487},{"NoteNumber":79,"Velocity":88,"Duration":180723,"SoundDuration":180723,"Delta":272432536},{"NoteNumber":43,"Velocity":67,"Duration":361446,"SoundDuration":361446,"Delta":272432536},{"NoteNumber":55,"Velocity":82,"Duration":361446,"SoundDuration":361446,"Delta":272432536},{"NoteNumber":51,"Velocity":67,"Duration":729543,"SoundDuration":729543,"Delta":272432536},{"NoteNumber":67,"Velocity":80,"Duration":180723,"SoundDuration":180723,"Delta":272434795},{"NoteNumber":80,"Velocity":80,"Duration":180723,"SoundDuration":180723,"Delta":272613259},{"NoteNumber":68,"Velocity":70,"Duration":180750,"SoundDuration":180750,"Delta":272614765},{"NoteNumber":82,"Velocity":90,"Duration":184049,"SoundDuration":184049,"Delta":272793982},{"NoteNumber":46,"Velocity":63,"Duration":368097,"SoundDuration":368097,"Delta":272793982},{"NoteNumber":58,"Velocity":76,"Duration":368097,"SoundDuration":368097,"Delta":272793982},{"NoteNumber":70,"Velocity":81,"Duration":184049,"SoundDuration":184049,"Delta":272796282},{"NoteNumber":84,"Velocity":81,"Duration":184048,"SoundDuration":184048,"Delta":272978031},{"NoteNumber":72,"Velocity":71,"Duration":184014,"SoundDuration":184014,"Delta":272980331},{"NoteNumber":86,"Velocity":91,"Duration":181268,"SoundDuration":181268,"Delta":273162080},{"NoteNumber":46,"Velocity":65,"Duration":639734,"SoundDuration":639734,"Delta":273162080},{"NoteNumber":41,"Velocity":65,"Duration":362537,"SoundDuration":362537,"Delta":273162080},{"NoteNumber":53,"Velocity":81,"Duration":362537,"SoundDuration":362537,"Delta":273162080},{"NoteNumber":74,"Velocity":82,"Duration":181268,"SoundDuration":181268,"Delta":273162835},{"NoteNumber":75,"Velocity":70,"Duration":181268,"SoundDuration":181268,"Delta":273341838},{"NoteNumber":87,"Velocity":80,"Duration":181268,"SoundDuration":181268,"Delta":273343349},{"NoteNumber":89,"Velocity":92,"Duration":184797,"SoundDuration":184797,"Delta":273524618},{"NoteNumber":77,"Velocity":83,"Duration":184797,"SoundDuration":184797,"Delta":273524618},{"NoteNumber":39,"Velocity":63,"Duration":277196,"SoundDuration":277196,"Delta":273524618},{"NoteNumber":51,"Velocity":79,"Duration":277196,"SoundDuration":277196,"Delta":273524618},{"NoteNumber":79,"Velocity":73,"Duration":197635,"SoundDuration":197635,"Delta":273708645},{"NoteNumber":91,"Velocity":84,"Duration":197743,"SoundDuration":197743,"Delta":273709415},{"NoteNumber":38,"Velocity":64,"Duration":752135,"SoundDuration":752135,"Delta":273801814},{"NoteNumber":89,"Velocity":92,"Duration":184797,"SoundDuration":184797,"Delta":273907158},{"NoteNumber":46,"Velocity":63,"Duration":646791,"SoundDuration":646791,"Delta":273907158},{"NoteNumber":50,"Velocity":79,"Duration":646791,"SoundDuration":646791,"Delta":273907158},{"NoteNumber":77,"Velocity":83,"Duration":184797,"SoundDuration":184797,"Delta":273909468},{"NoteNumber":75,"Velocity":80,"Duration":184797,"SoundDuration":184797,"Delta":274091186},{"NoteNumber":87,"Velocity":88,"Duration":184797,"SoundDuration":184797,"Delta":274091956},{"NoteNumber":86,"Velocity":92,"Duration":184797,"SoundDuration":184797,"Delta":274276753},{"NoteNumber":74,"Velocity":83,"Duration":184797,"SoundDuration":184797,"Delta":274278293},{"NoteNumber":84,"Velocity":87,"Duration":198955,"SoundDuration":198955,"Delta":274461551},{"NoteNumber":72,"Velocity":79,"Duration":198963,"SoundDuration":198963,"Delta":274463861},{"NoteNumber":34,"Velocity":54,"Duration":853122,"SoundDuration":853122,"Delta":274553950},{"NoteNumber":82,"Velocity":91,"Duration":185402,"SoundDuration":185402,"Delta":274660506},{"NoteNumber":43,"Velocity":54,"Duration":746565,"SoundDuration":746565,"Delta":274660506},{"NoteNumber":46,"Velocity":68,"Duration":746565,"SoundDuration":746565,"Delta":274660506},{"NoteNumber":70,"Velocity":82,"Duration":185402,"SoundDuration":185402,"Delta":274662824},{"NoteNumber":80,"Velocity":84,"Duration":185402,"SoundDuration":185402,"Delta":274845909},{"NoteNumber":68,"Velocity":73,"Duration":185402,"SoundDuration":185402,"Delta":274848226},{"NoteNumber":79,"Velocity":90,"Duration":185402,"SoundDuration":185402,"Delta":275031311},{"NoteNumber":67,"Velocity":81,"Duration":185402,"SoundDuration":185402,"Delta":275032084},{"NoteNumber":77,"Velocity":84,"Duration":190358,"SoundDuration":190358,"Delta":275216714},{"NoteNumber":65,"Velocity":73,"Duration":190358,"SoundDuration":190358,"Delta":275216714},{"NoteNumber":63,"Velocity":72,"Duration":184711,"SoundDuration":184711,"Delta":275406303},{"NoteNumber":63,"Velocity":85,"Duration":1483359,"SoundDuration":1483359,"Delta":275407072},{"NoteNumber":67,"Velocity":85,"Duration":1109382,"SoundDuration":1109382,"Delta":275407072},{"NoteNumber":70,"Velocity":85,"Duration":739574,"SoundDuration":739574,"Delta":275407072},{"NoteNumber":75,"Velocity":96,"Duration":184716,"SoundDuration":184716,"Delta":275407072},{"NoteNumber":75,"Velocity":82,"Duration":1483359,"SoundDuration":1483359,"Delta":275407072},{"NoteNumber":62,"Velocity":68,"Duration":184893,"SoundDuration":184893,"Delta":275591014},{"NoteNumber":74,"Velocity":75,"Duration":184893,"SoundDuration":184893,"Delta":275591788},{"NoteNumber":72,"Velocity":82,"Duration":185228,"SoundDuration":185228,"Delta":275776682},{"NoteNumber":60,"Velocity":72,"Duration":185207,"SoundDuration":185207,"Delta":275779004},{"NoteNumber":58,"Velocity":67,"Duration":184740,"SoundDuration":184740,"Delta":275960377},{"NoteNumber":70,"Velocity":73,"Duration":928520,"SoundDuration":928520,"Delta":275961911},{"NoteNumber":56,"Velocity":72,"Duration":184989,"SoundDuration":184989,"Delta":276146646},{"NoteNumber":68,"Velocity":82,"Duration":184989,"SoundDuration":184989,"Delta":276146646},{"NoteNumber":55,"Velocity":67,"Duration":184791,"SoundDuration":184791,"Delta":276330111},{"NoteNumber":67,"Velocity":73,"Duration":558795,"SoundDuration":558795,"Delta":276331635},{"NoteNumber":65,"Velocity":82,"Duration":185238,"SoundDuration":185238,"Delta":276516455},{"NoteNumber":53,"Velocity":82,"Duration":185233,"SoundDuration":185233,"Delta":276518008},{"NoteNumber":51,"Velocity":66,"Duration":188733,"SoundDuration":188733,"Delta":276700145},{"NoteNumber":63,"Velocity":72,"Duration":188737,"SoundDuration":188737,"Delta":276701693},{"NoteNumber":50,"Velocity":72,"Duration":185930,"SoundDuration":185930,"Delta":276888879},{"NoteNumber":65,"Velocity":81,"Duration":1489358,"SoundDuration":1489358,"Delta":276890431},{"NoteNumber":70,"Velocity":90,"Duration":1489358,"SoundDuration":1489358,"Delta":276890431},{"NoteNumber":74,"Velocity":90,"Duration":1489358,"SoundDuration":1489358,"Delta":276890431},{"NoteNumber":77,"Velocity":90,"Duration":1489358,"SoundDuration":1489358,"Delta":276890431},{"NoteNumber":62,"Velocity":82,"Duration":185926,"SoundDuration":185926,"Delta":276890431},{"NoteNumber":60,"Velocity":72,"Duration":186006,"SoundDuration":186006,"Delta":277076357},{"NoteNumber":48,"Velocity":65,"Duration":186006,"SoundDuration":186006,"Delta":277078679},{"NoteNumber":46,"Velocity":72,"Duration":185290,"SoundDuration":185290,"Delta":277261590},{"NoteNumber":58,"Velocity":82,"Duration":185286,"SoundDuration":185286,"Delta":277262364},{"NoteNumber":44,"Velocity":68,"Duration":185717,"SoundDuration":185717,"Delta":277446881},{"NoteNumber":56,"Velocity":75,"Duration":185724,"SoundDuration":185724,"Delta":277447650},{"NoteNumber":55,"Velocity":82,"Duration":185541,"SoundDuration":185541,"Delta":277633375},{"NoteNumber":43,"Velocity":72,"Duration":185534,"SoundDuration":185534,"Delta":277634151},{"NoteNumber":53,"Velocity":73,"Duration":186102,"SoundDuration":186102,"Delta":277818916},{"NoteNumber":41,"Velocity":67,"Duration":186107,"SoundDuration":186107,"Delta":277820455},{"NoteNumber":51,"Velocity":82,"Duration":185813,"SoundDuration":185813,"Delta":278005019},{"NoteNumber":39,"Velocity":72,"Duration":185842,"SoundDuration":185842,"Delta":278007334},{"NoteNumber":50,"Velocity":72,"Duration":188957,"SoundDuration":188957,"Delta":278190832},{"NoteNumber":38,"Velocity":66,"Duration":188933,"SoundDuration":188933,"Delta":278192395},{"NoteNumber":67,"Velocity":85,"Duration":735353,"SoundDuration":735353,"Delta":278379790},{"NoteNumber":70,"Velocity":85,"Duration":735353,"SoundDuration":735353,"Delta":278379790},{"NoteNumber":75,"Velocity":85,"Duration":735353,"SoundDuration":735353,"Delta":278379790},{"NoteNumber":79,"Velocity":96,"Duration":735353,"SoundDuration":735353,"Delta":278379790},{"NoteNumber":36,"Velocity":82,"Duration":183697,"SoundDuration":183697,"Delta":278379790},{"NoteNumber":48,"Velocity":82,"Duration":183697,"SoundDuration":183697,"Delta":278379790},{"NoteNumber":34,"Velocity":65,"Duration":183833,"SoundDuration":183833,"Delta":278562716},{"NoteNumber":46,"Velocity":72,"Duration":183833,"SoundDuration":183833,"Delta":278563487},{"NoteNumber":44,"Velocity":76,"Duration":183903,"SoundDuration":183903,"Delta":278747321},{"NoteNumber":32,"Velocity":68,"Duration":183898,"SoundDuration":183898,"Delta":278748864},{"NoteNumber":31,"Velocity":60,"Duration":183918,"SoundDuration":183918,"Delta":278931225},{"NoteNumber":43,"Velocity":68,"Duration":183918,"SoundDuration":183918,"Delta":278931225},{"NoteNumber":63,"Velocity":82,"Duration":367263,"SoundDuration":367263,"Delta":279115143},{"NoteNumber":67,"Velocity":82,"Duration":367263,"SoundDuration":367263,"Delta":279115143},{"NoteNumber":72,"Velocity":82,"Duration":367263,"SoundDuration":367263,"Delta":279115143},{"NoteNumber":75,"Velocity":91,"Duration":367263,"SoundDuration":367263,"Delta":279115143},{"NoteNumber":29,"Velocity":67,"Duration":183631,"SoundDuration":183631,"Delta":279115143},{"NoteNumber":41,"Velocity":73,"Duration":183631,"SoundDuration":183631,"Delta":279115143},{"NoteNumber":39,"Velocity":65,"Duration":183631,"SoundDuration":183631,"Delta":279298775},{"NoteNumber":27,"Velocity":57,"Duration":183646,"SoundDuration":183646,"Delta":279301071},{"NoteNumber":70,"Velocity":73,"Duration":372149,"SoundDuration":372149,"Delta":279482407},{"NoteNumber":75,"Velocity":73,"Duration":372149,"SoundDuration":372149,"Delta":279482407},{"NoteNumber":67,"Velocity":73,"Duration":372149,"SoundDuration":372149,"Delta":279482407},{"NoteNumber":79,"Velocity":84,"Duration":372149,"SoundDuration":372149,"Delta":279482407},{"NoteNumber":38,"Velocity":72,"Duration":184808,"SoundDuration":184808,"Delta":279482407},{"NoteNumber":26,"Velocity":66,"Duration":184808,"SoundDuration":184808,"Delta":279483947},{"NoteNumber":24,"Velocity":56,"Duration":187298,"SoundDuration":187298,"Delta":279665676},{"NoteNumber":36,"Velocity":63,"Duration":187341,"SoundDuration":187341,"Delta":279667216},{"NoteNumber":65,"Velocity":79,"Duration":748269,"SoundDuration":748269,"Delta":279854557},{"NoteNumber":70,"Velocity":79,"Duration":748269,"SoundDuration":748269,"Delta":279854557},{"NoteNumber":74,"Velocity":79,"Duration":748269,"SoundDuration":748269,"Delta":279854557},{"NoteNumber":77,"Velocity":88,"Duration":748269,"SoundDuration":748269,"Delta":279854557},{"NoteNumber":38,"Velocity":66,"Duration":187067,"SoundDuration":187067,"Delta":279854557},{"NoteNumber":26,"Velocity":57,"Duration":187067,"SoundDuration":187067,"Delta":279855336},{"NoteNumber":27,"Velocity":51,"Duration":187067,"SoundDuration":187067,"Delta":280041624},{"NoteNumber":39,"Velocity":59,"Duration":187067,"SoundDuration":187067,"Delta":280041624},{"NoteNumber":41,"Velocity":67,"Duration":187067,"SoundDuration":187067,"Delta":280228692},{"NoteNumber":29,"Velocity":59,"Duration":187067,"SoundDuration":187067,"Delta":280230251},{"NoteNumber":43,"Velocity":62,"Duration":187067,"SoundDuration":187067,"Delta":280415759},{"NoteNumber":31,"Velocity":54,"Duration":187067,"SoundDuration":187067,"Delta":280416539},{"NoteNumber":58,"Velocity":72,"Duration":757914,"SoundDuration":757914,"Delta":280602827},{"NoteNumber":70,"Velocity":81,"Duration":757914,"SoundDuration":757914,"Delta":280602827},{"NoteNumber":45,"Velocity":68,"Duration":187067,"SoundDuration":187067,"Delta":280602827},{"NoteNumber":33,"Velocity":60,"Duration":187067,"SoundDuration":187067,"Delta":280603606},{"NoteNumber":34,"Velocity":56,"Duration":187067,"SoundDuration":187067,"Delta":280789894},{"NoteNumber":46,"Velocity":63,"Duration":187067,"SoundDuration":187067,"Delta":280789894},{"NoteNumber":36,"Velocity":62,"Duration":191849,"SoundDuration":191849,"Delta":280975403},{"NoteNumber":48,"Velocity":70,"Duration":191889,"SoundDuration":191889,"Delta":280976962},{"NoteNumber":38,"Velocity":57,"Duration":191889,"SoundDuration":191889,"Delta":281168052},{"NoteNumber":50,"Velocity":66,"Duration":191889,"SoundDuration":191889,"Delta":281168851},{"NoteNumber":84,"Velocity":72,"Duration":754527,"SoundDuration":754527,"Delta":281360741},{"NoteNumber":80,"Velocity":72,"Duration":754527,"SoundDuration":754527,"Delta":281360741},{"NoteNumber":87,"Velocity":81,"Duration":377264,"SoundDuration":377264,"Delta":281360741},{"NoteNumber":75,"Velocity":72,"Duration":377264,"SoundDuration":377264,"Delta":281360741},{"NoteNumber":39,"Velocity":62,"Duration":188631,"SoundDuration":188631,"Delta":281360741},{"NoteNumber":51,"Velocity":70,"Duration":188631,"SoundDuration":188631,"Delta":281360741},{"NoteNumber":53,"Velocity":67,"Duration":188632,"SoundDuration":188632,"Delta":281549373},{"NoteNumber":41,"Velocity":59,"Duration":188631,"SoundDuration":188631,"Delta":281550945},{"NoteNumber":87,"Velocity":81,"Duration":377263,"SoundDuration":377263,"Delta":281738005},{"NoteNumber":75,"Velocity":72,"Duration":377263,"SoundDuration":377263,"Delta":281738005},{"NoteNumber":55,"Velocity":72,"Duration":188631,"SoundDuration":188631,"Delta":281738005},{"NoteNumber":43,"Velocity":66,"Duration":188632,"SoundDuration":188632,"Delta":281738791},{"NoteNumber":56,"Velocity":67,"Duration":188631,"SoundDuration":188631,"Delta":281926637},{"NoteNumber":44,"Velocity":59,"Duration":188577,"SoundDuration":188577,"Delta":281928995},{"NoteNumber":79,"Velocity":72,"Duration":739315,"SoundDuration":739315,"Delta":282115269},{"NoteNumber":82,"Velocity":72,"Duration":739315,"SoundDuration":739315,"Delta":282115269},{"NoteNumber":86,"Velocity":81,"Duration":369606,"SoundDuration":369606,"Delta":282115269},{"NoteNumber":74,"Velocity":72,"Duration":369606,"SoundDuration":369606,"Delta":282115269},{"NoteNumber":58,"Velocity":76,"Duration":184752,"SoundDuration":184752,"Delta":282115269},{"NoteNumber":46,"Velocity":68,"Duration":184757,"SoundDuration":184757,"Delta":282116804},{"NoteNumber":48,"Velocity":70,"Duration":184854,"SoundDuration":184854,"Delta":282300021},{"NoteNumber":60,"Velocity":70,"Duration":184854,"SoundDuration":184854,"Delta":282300021},{"NoteNumber":50,"Velocity":72,"Duration":184854,"SoundDuration":184854,"Delta":282484105},{"NoteNumber":82,"Velocity":76,"Duration":369709,"SoundDuration":369709,"Delta":282484875},{"NoteNumber":70,"Velocity":68,"Duration":369709,"SoundDuration":369709,"Delta":282484875},{"NoteNumber":62,"Velocity":81,"Duration":184854,"SoundDuration":184854,"Delta":282484875},{"NoteNumber":58,"Velocity":76,"Duration":184854,"SoundDuration":184854,"Delta":282669730},{"NoteNumber":46,"Velocity":68,"Duration":184854,"SoundDuration":184854,"Delta":282670500},{"NoteNumber":80,"Velocity":79,"Duration":1119101,"SoundDuration":1119101,"Delta":282854584},{"NoteNumber":77,"Velocity":70,"Duration":1493796,"SoundDuration":1493796,"Delta":282854584},{"NoteNumber":72,"Velocity":70,"Duration":369709,"SoundDuration":369709,"Delta":282854584},{"NoteNumber":84,"Velocity":79,"Duration":369709,"SoundDuration":369709,"Delta":282854584},{"NoteNumber":44,"Velocity":71,"Duration":184854,"SoundDuration":184854,"Delta":282854584},{"NoteNumber":56,"Velocity":80,"Duration":184854,"SoundDuration":184854,"Delta":282854584},{"NoteNumber":43,"Velocity":68,"Duration":184854,"SoundDuration":184854,"Delta":283037898},{"NoteNumber":55,"Velocity":75,"Duration":184854,"SoundDuration":184854,"Delta":283039439},{"NoteNumber":84,"Velocity":75,"Duration":374695,"SoundDuration":374695,"Delta":283224293},{"NoteNumber":72,"Velocity":68,"Duration":374695,"SoundDuration":374695,"Delta":283224293},{"NoteNumber":53,"Velocity":75,"Duration":187347,"SoundDuration":187347,"Delta":283224293},{"NoteNumber":41,"Velocity":68,"Duration":187347,"SoundDuration":187347,"Delta":283225855},{"NoteNumber":51,"Velocity":72,"Duration":187347,"SoundDuration":187347,"Delta":283411641},{"NoteNumber":39,"Velocity":63,"Duration":187347,"SoundDuration":187347,"Delta":283412422},{"NoteNumber":38,"Velocity":67,"Duration":187347,"SoundDuration":187347,"Delta":283597428},{"NoteNumber":80,"Velocity":73,"Duration":749392,"SoundDuration":749392,"Delta":283598989},{"NoteNumber":68,"Velocity":67,"Duration":374696,"SoundDuration":374696,"Delta":283598989},{"NoteNumber":50,"Velocity":73,"Duration":187348,"SoundDuration":187348,"Delta":283598989},{"NoteNumber":48,"Velocity":68,"Duration":187347,"SoundDuration":187347,"Delta":283786337},{"NoteNumber":36,"Velocity":60,"Duration":187347,"SoundDuration":187347,"Delta":283788679},{"NoteNumber":34,"Velocity":66,"Duration":187348,"SoundDuration":187348,"Delta":283972124},{"NoteNumber":72,"Velocity":63,"Duration":374695,"SoundDuration":374695,"Delta":283973685},{"NoteNumber":84,"Velocity":71,"Duration":374695,"SoundDuration":374695,"Delta":283973685},{"NoteNumber":46,"Velocity":72,"Duration":187347,"SoundDuration":187347,"Delta":283973685},{"NoteNumber":44,"Velocity":59,"Duration":187347,"SoundDuration":187347,"Delta":284161033},{"NoteNumber":32,"Velocity":59,"Duration":187348,"SoundDuration":187348,"Delta":284163375},{"NoteNumber":74,"Velocity":82,"Duration":749392,"SoundDuration":749392,"Delta":284348381},{"NoteNumber":79,"Velocity":82,"Duration":749392,"SoundDuration":749392,"Delta":284348381},{"NoteNumber":70,"Velocity":72,"Duration":749392,"SoundDuration":749392,"Delta":284348381},{"NoteNumber":82,"Velocity":82,"Duration":749392,"SoundDuration":749392,"Delta":284348381},{"NoteNumber":43,"Velocity":72,"Duration":187348,"SoundDuration":187348,"Delta":284348381},{"NoteNumber":31,"Velocity":65,"Duration":187347,"SoundDuration":187347,"Delta":284349943},{"NoteNumber":29,"Velocity":57,"Duration":187348,"SoundDuration":187348,"Delta":284534949},{"NoteNumber":41,"Velocity":65,"Duration":187347,"SoundDuration":187347,"Delta":284535729},{"NoteNumber":27,"Velocity":65,"Duration":187347,"SoundDuration":187347,"Delta":284723077},{"NoteNumber":39,"Velocity":72,"Duration":187347,"SoundDuration":187347,"Delta":284723077},{"NoteNumber":26,"Velocity":57,"Duration":187348,"SoundDuration":187348,"Delta":284908864},{"NoteNumber":38,"Velocity":66,"Duration":187347,"SoundDuration":187347,"Delta":284910425},{"NoteNumber":72,"Velocity":70,"Duration":763969,"SoundDuration":763969,"Delta":285097773},{"NoteNumber":68,"Velocity":70,"Duration":378549,"SoundDuration":378549,"Delta":285097773},{"NoteNumber":80,"Velocity":79,"Duration":378549,"SoundDuration":378549,"Delta":285097773},{"NoteNumber":39,"Velocity":72,"Duration":189274,"SoundDuration":189274,"Delta":285097773},{"NoteNumber":27,"Velocity":63,"Duration":189274,"SoundDuration":189274,"Delta":285100139},{"NoteNumber":40,"Velocity":66,"Duration":189274,"SoundDuration":189274,"Delta":285287048},{"NoteNumber":28,"Velocity":57,"Duration":189313,"SoundDuration":189313,"Delta":285288625},{"NoteNumber":29,"Velocity":62,"Duration":193859,"SoundDuration":193859,"Delta":285474745},{"NoteNumber":67,"Velocity":75,"Duration":385420,"SoundDuration":385420,"Delta":285476322},{"NoteNumber":79,"Velocity":84,"Duration":385420,"SoundDuration":385420,"Delta":285476322},{"NoteNumber":41,"Velocity":70,"Duration":193898,"SoundDuration":193898,"Delta":285476322},{"NoteNumber":43,"Velocity":65,"Duration":191522,"SoundDuration":191522,"Delta":285670221},{"NoteNumber":31,"Velocity":57,"Duration":191343,"SoundDuration":191343,"Delta":285672645},{"NoteNumber":65,"Velocity":79,"Duration":1462403,"SoundDuration":1462403,"Delta":285861743},{"NoteNumber":75,"Velocity":79,"Duration":1462403,"SoundDuration":1462403,"Delta":285861743},{"NoteNumber":72,"Velocity":79,"Duration":1462403,"SoundDuration":1462403,"Delta":285861743},{"NoteNumber":77,"Velocity":89,"Duration":1462403,"SoundDuration":1462403,"Delta":285861743},{"NoteNumber":44,"Velocity":67,"Duration":179910,"SoundDuration":179910,"Delta":285861743},{"NoteNumber":32,"Velocity":59,"Duration":179919,"SoundDuration":179919,"Delta":285863240},{"NoteNumber":46,"Velocity":63,"Duration":180995,"SoundDuration":180995,"Delta":286041653},{"NoteNumber":34,"Velocity":56,"Duration":181000,"SoundDuration":181000,"Delta":286042406},{"NoteNumber":36,"Velocity":70,"Duration":182089,"SoundDuration":182089,"Delta":286221894},{"NoteNumber":48,"Velocity":70,"Duration":182094,"SoundDuration":182094,"Delta":286222649},{"NoteNumber":38,"Velocity":65,"Duration":183201,"SoundDuration":183201,"Delta":286403984},{"NoteNumber":50,"Velocity":65,"Duration":183206,"SoundDuration":183206,"Delta":286404744},{"NoteNumber":51,"Velocity":72,"Duration":184049,"SoundDuration":184049,"Delta":286587950},{"NoteNumber":39,"Velocity":65,"Duration":184049,"SoundDuration":184049,"Delta":286589484},{"NoteNumber":41,"Velocity":57,"Duration":184048,"SoundDuration":184048,"Delta":286771999},{"NoteNumber":53,"Velocity":66,"Duration":184048,"SoundDuration":184048,"Delta":286771999},{"NoteNumber":43,"Velocity":68,"Duration":184049,"SoundDuration":184049,"Delta":286954515},{"NoteNumber":55,"Velocity":75,"Duration":184049,"SoundDuration":184049,"Delta":286956048},{"NoteNumber":56,"Velocity":68,"Duration":184049,"SoundDuration":184049,"Delta":287140097},{"NoteNumber":44,"Velocity":60,"Duration":184049,"SoundDuration":184049,"Delta":287140864},{"NoteNumber":70,"Velocity":84,"Duration":552146,"SoundDuration":552146,"Delta":287324146},{"NoteNumber":74,"Velocity":84,"Duration":552146,"SoundDuration":552146,"Delta":287324146},{"NoteNumber":77,"Velocity":84,"Duration":552146,"SoundDuration":552146,"Delta":287324146},{"NoteNumber":82,"Velocity":95,"Duration":552146,"SoundDuration":552146,"Delta":287324146},{"NoteNumber":58,"Velocity":79,"Duration":184049,"SoundDuration":184049,"Delta":287324146},{"NoteNumber":46,"Velocity":70,"Duration":184049,"SoundDuration":184049,"Delta":287325680},{"NoteNumber":48,"Velocity":63,"Duration":184048,"SoundDuration":184048,"Delta":287508195},{"NoteNumber":60,"Velocity":72,"Duration":184048,"SoundDuration":184048,"Delta":287508195},{"NoteNumber":50,"Velocity":72,"Duration":184049,"SoundDuration":184049,"Delta":287691477},{"NoteNumber":62,"Velocity":81,"Duration":184049,"SoundDuration":184049,"Delta":287692244},{"NoteNumber":63,"Velocity":72,"Duration":184049,"SoundDuration":184049,"Delta":287876293},{"NoteNumber":51,"Velocity":66,"Duration":184049,"SoundDuration":184049,"Delta":287877060},{"NoteNumber":65,"Velocity":84,"Duration":184048,"SoundDuration":184048,"Delta":288060342},{"NoteNumber":53,"Velocity":73,"Duration":184049,"SoundDuration":184049,"Delta":288061876},{"NoteNumber":67,"Velocity":75,"Duration":184049,"SoundDuration":184049,"Delta":288244391},{"NoteNumber":55,"Velocity":68,"Duration":184048,"SoundDuration":184048,"Delta":288245925},{"NoteNumber":68,"Velocity":88,"Duration":184049,"SoundDuration":184049,"Delta":288428440},{"NoteNumber":56,"Velocity":79,"Duration":184049,"SoundDuration":184049,"Delta":288429974},{"NoteNumber":58,"Velocity":72,"Duration":242778,"SoundDuration":242778,"Delta":288612489},{"NoteNumber":70,"Velocity":81,"Duration":242778,"SoundDuration":242778,"Delta":288612489},{"NoteNumber":66,"Velocity":67,"Duration":1493187,"SoundDuration":1493187,"Delta":288855268},{"NoteNumber":70,"Velocity":67,"Duration":1493187,"SoundDuration":1493187,"Delta":288855268},{"NoteNumber":58,"Velocity":59,"Duration":1493187,"SoundDuration":1493187,"Delta":288855268},{"NoteNumber":51,"Velocity":59,"Duration":1493187,"SoundDuration":1493187,"Delta":288855268},{"NoteNumber":66,"Velocity":65,"Duration":739462,"SoundDuration":739462,"Delta":290348456},{"NoteNumber":70,"Velocity":65,"Duration":739462,"SoundDuration":739462,"Delta":290348456},{"NoteNumber":51,"Velocity":54,"Duration":739462,"SoundDuration":739462,"Delta":290348456},{"NoteNumber":58,"Velocity":54,"Duration":739462,"SoundDuration":739462,"Delta":290348456},{"NoteNumber":66,"Velocity":63,"Duration":724811,"SoundDuration":724811,"Delta":291087918},{"NoteNumber":70,"Velocity":63,"Duration":724811,"SoundDuration":724811,"Delta":291087918},{"NoteNumber":54,"Velocity":52,"Duration":724811,"SoundDuration":724811,"Delta":291087918},{"NoteNumber":63,"Velocity":52,"Duration":724811,"SoundDuration":724811,"Delta":291087918},{"NoteNumber":68,"Velocity":66,"Duration":724811,"SoundDuration":724811,"Delta":291812730},{"NoteNumber":71,"Velocity":66,"Duration":724811,"SoundDuration":724811,"Delta":291812730},{"NoteNumber":56,"Velocity":54,"Duration":724811,"SoundDuration":724811,"Delta":291812730},{"NoteNumber":63,"Velocity":54,"Duration":724811,"SoundDuration":724811,"Delta":291812730},{"NoteNumber":70,"Velocity":66,"Duration":717704,"SoundDuration":717704,"Delta":292537542},{"NoteNumber":73,"Velocity":66,"Duration":717704,"SoundDuration":717704,"Delta":292537542},{"NoteNumber":54,"Velocity":54,"Duration":717704,"SoundDuration":717704,"Delta":292537542},{"NoteNumber":66,"Velocity":54,"Duration":717704,"SoundDuration":717704,"Delta":292537542},{"NoteNumber":71,"Velocity":66,"Duration":1459231,"SoundDuration":1459231,"Delta":293255246},{"NoteNumber":75,"Velocity":66,"Duration":1459231,"SoundDuration":1459231,"Delta":293255246},{"NoteNumber":59,"Velocity":54,"Duration":1459231,"SoundDuration":1459231,"Delta":293255246},{"NoteNumber":66,"Velocity":54,"Duration":1459231,"SoundDuration":1459231,"Delta":293255246},{"NoteNumber":70,"Velocity":66,"Duration":1459231,"SoundDuration":1459231,"Delta":294714478},{"NoteNumber":73,"Velocity":66,"Duration":1459231,"SoundDuration":1459231,"Delta":294714478},{"NoteNumber":66,"Velocity":54,"Duration":1459231,"SoundDuration":1459231,"Delta":294714478},{"NoteNumber":71,"Velocity":65,"Duration":715350,"SoundDuration":715350,"Delta":296173710},{"NoteNumber":75,"Velocity":65,"Duration":715350,"SoundDuration":715350,"Delta":296173710},{"NoteNumber":66,"Velocity":52,"Duration":715350,"SoundDuration":715350,"Delta":296173710},{"NoteNumber":63,"Velocity":52,"Duration":715350,"SoundDuration":715350,"Delta":296173710},{"NoteNumber":73,"Velocity":66,"Duration":715350,"SoundDuration":715350,"Delta":296889060},{"NoteNumber":76,"Velocity":66,"Duration":715350,"SoundDuration":715350,"Delta":296889060},{"NoteNumber":68,"Velocity":54,"Duration":715350,"SoundDuration":715350,"Delta":296889060},{"NoteNumber":61,"Velocity":54,"Duration":715350,"SoundDuration":715350,"Delta":296889060},{"NoteNumber":75,"Velocity":67,"Duration":713011,"SoundDuration":713011,"Delta":297604410},{"NoteNumber":78,"Velocity":67,"Duration":713011,"SoundDuration":713011,"Delta":297604410},{"NoteNumber":59,"Velocity":57,"Duration":713011,"SoundDuration":713011,"Delta":297604410},{"NoteNumber":71,"Velocity":57,"Duration":713011,"SoundDuration":713011,"Delta":297604410},{"NoteNumber":75,"Velocity":64,"Duration":722456,"SoundDuration":722456,"Delta":298317422},{"NoteNumber":78,"Velocity":64,"Duration":722456,"SoundDuration":722456,"Delta":298317422},{"NoteNumber":59,"Velocity":52,"Duration":722456,"SoundDuration":722456,"Delta":298317422},{"NoteNumber":71,"Velocity":52,"Duration":722456,"SoundDuration":722456,"Delta":298317422},{"NoteNumber":73,"Velocity":67,"Duration":708423,"SoundDuration":708423,"Delta":299039878},{"NoteNumber":76,"Velocity":67,"Duration":708423,"SoundDuration":708423,"Delta":299039878},{"NoteNumber":64,"Velocity":54,"Duration":708423,"SoundDuration":708423,"Delta":299039878},{"NoteNumber":71,"Velocity":54,"Duration":708423,"SoundDuration":708423,"Delta":299039878},{"NoteNumber":75,"Velocity":68,"Duration":717704,"SoundDuration":717704,"Delta":299748302},{"NoteNumber":78,"Velocity":68,"Duration":717704,"SoundDuration":717704,"Delta":299748302},{"NoteNumber":59,"Velocity":57,"Duration":717704,"SoundDuration":717704,"Delta":299748302},{"NoteNumber":71,"Velocity":57,"Duration":717704,"SoundDuration":717704,"Delta":299748302},{"NoteNumber":76,"Velocity":71,"Duration":1426127,"SoundDuration":1426127,"Delta":300466006},{"NoteNumber":80,"Velocity":71,"Duration":1426127,"SoundDuration":1426127,"Delta":300466006},{"NoteNumber":71,"Velocity":59,"Duration":1426127,"SoundDuration":1426127,"Delta":300466006},{"NoteNumber":64,"Velocity":59,"Duration":1426127,"SoundDuration":1426127,"Delta":300466006},{"NoteNumber":73,"Velocity":75,"Duration":701671,"SoundDuration":701671,"Delta":301892134},{"NoteNumber":81,"Velocity":75,"Duration":701671,"SoundDuration":701671,"Delta":301892134},{"NoteNumber":69,"Velocity":63,"Duration":701671,"SoundDuration":701671,"Delta":301892134},{"NoteNumber":66,"Velocity":63,"Duration":701671,"SoundDuration":701671,"Delta":301892134},{"NoteNumber":76,"Velocity":67,"Duration":710732,"SoundDuration":710732,"Delta":302593806},{"NoteNumber":80,"Velocity":67,"Duration":710732,"SoundDuration":710732,"Delta":302593806},{"NoteNumber":71,"Velocity":59,"Duration":710732,"SoundDuration":710732,"Delta":302593806},{"NoteNumber":64,"Velocity":59,"Duration":710732,"SoundDuration":710732,"Delta":302593806},{"NoteNumber":75,"Velocity":64,"Duration":1421464,"SoundDuration":1421464,"Delta":303304538},{"NoteNumber":78,"Velocity":64,"Duration":1421464,"SoundDuration":1421464,"Delta":303304538},{"NoteNumber":59,"Velocity":56,"Duration":1421464,"SoundDuration":1421464,"Delta":303304538},{"NoteNumber":71,"Velocity":56,"Duration":1421464,"SoundDuration":1421464,"Delta":303304538},{"NoteNumber":71,"Velocity":64,"Duration":710732,"SoundDuration":710732,"Delta":304726002},{"NoteNumber":80,"Velocity":64,"Duration":710732,"SoundDuration":710732,"Delta":304726002},{"NoteNumber":64,"Velocity":54,"Duration":710732,"SoundDuration":710732,"Delta":304726002},{"NoteNumber":68,"Velocity":54,"Duration":710732,"SoundDuration":710732,"Delta":304726002},{"NoteNumber":78,"Velocity":60,"Duration":715350,"SoundDuration":715350,"Delta":305436734},{"NoteNumber":75,"Velocity":60,"Duration":715350,"SoundDuration":715350,"Delta":305436734},{"NoteNumber":59,"Velocity":53,"Duration":715350,"SoundDuration":715350,"Delta":305436734},{"NoteNumber":66,"Velocity":53,"Duration":715350,"SoundDuration":715350,"Delta":305436734},{"NoteNumber":68,"Velocity":57,"Duration":715350,"SoundDuration":715350,"Delta":306152084},{"NoteNumber":76,"Velocity":57,"Duration":715350,"SoundDuration":715350,"Delta":306152084},{"NoteNumber":64,"Velocity":50,"Duration":715350,"SoundDuration":715350,"Delta":306152084},{"NoteNumber":61,"Velocity":50,"Duration":715350,"SoundDuration":715350,"Delta":306152084},{"NoteNumber":71,"Velocity":54,"Duration":715350,"SoundDuration":715350,"Delta":306867434},{"NoteNumber":75,"Velocity":54,"Duration":715350,"SoundDuration":715350,"Delta":306867434},{"NoteNumber":56,"Velocity":45,"Duration":715350,"SoundDuration":715350,"Delta":306867434},{"NoteNumber":63,"Velocity":45,"Duration":715350,"SoundDuration":715350,"Delta":306867434},{"NoteNumber":70,"Velocity":57,"Duration":1440056,"SoundDuration":1440056,"Delta":307582784},{"NoteNumber":73,"Velocity":57,"Duration":1440056,"SoundDuration":1440056,"Delta":307582784},{"NoteNumber":58,"Velocity":51,"Duration":1440056,"SoundDuration":1440056,"Delta":307582784},{"NoteNumber":61,"Velocity":51,"Duration":1440056,"SoundDuration":1440056,"Delta":307582784},{"NoteNumber":68,"Velocity":54,"Duration":1492899,"SoundDuration":1492899,"Delta":309022840},{"NoteNumber":71,"Velocity":54,"Duration":1492899,"SoundDuration":1492899,"Delta":309022840},{"NoteNumber":59,"Velocity":45,"Duration":1492899,"SoundDuration":1492899,"Delta":309022840},{"NoteNumber":63,"Velocity":45,"Duration":1492899,"SoundDuration":1492899,"Delta":309022840},{"NoteNumber":63,"Velocity":48,"Duration":1519852,"SoundDuration":1519852,"Delta":310515739},{"NoteNumber":70,"Velocity":48,"Duration":1519852,"SoundDuration":1519852,"Delta":310515739},{"NoteNumber":58,"Velocity":41,"Duration":1519852,"SoundDuration":1519852,"Delta":310515739},{"NoteNumber":51,"Velocity":41,"Duration":1519852,"SoundDuration":1519852,"Delta":310515739},{"NoteNumber":63,"Velocity":39,"Duration":778412,"SoundDuration":778412,"Delta":312035591},{"NoteNumber":70,"Velocity":39,"Duration":778412,"SoundDuration":778412,"Delta":312035591},{"NoteNumber":51,"Velocity":37,"Duration":778412,"SoundDuration":778412,"Delta":312035591},{"NoteNumber":58,"Velocity":37,"Duration":778412,"SoundDuration":778412,"Delta":312035591},{"NoteNumber":63,"Velocity":35,"Duration":778412,"SoundDuration":778412,"Delta":312814003},{"NoteNumber":70,"Velocity":35,"Duration":778412,"SoundDuration":778412,"Delta":312814003},{"NoteNumber":51,"Velocity":34,"Duration":778412,"SoundDuration":778412,"Delta":312814003},{"NoteNumber":58,"Velocity":34,"Duration":778412,"SoundDuration":778412,"Delta":312814003},{"NoteNumber":53,"Velocity":85,"Duration":1553543,"SoundDuration":1553543,"Delta":313592415},{"NoteNumber":63,"Velocity":85,"Duration":1553543,"SoundDuration":1553543,"Delta":313592415},{"NoteNumber":59,"Velocity":71,"Duration":1553543,"SoundDuration":1553543,"Delta":313592415},{"NoteNumber":44,"Velocity":79,"Duration":769229,"SoundDuration":769229,"Delta":314376729},{"NoteNumber":52,"Velocity":84,"Duration":1548450,"SoundDuration":1548450,"Delta":315145959},{"NoteNumber":63,"Velocity":84,"Duration":1548450,"SoundDuration":1548450,"Delta":315145959},{"NoteNumber":56,"Velocity":71,"Duration":1548450,"SoundDuration":1548450,"Delta":315145959},{"NoteNumber":35,"Velocity":79,"Duration":769229,"SoundDuration":769229,"Delta":315925179},{"NoteNumber":53,"Velocity":85,"Duration":1548450,"SoundDuration":1548450,"Delta":316694409},{"NoteNumber":63,"Velocity":85,"Duration":1548450,"SoundDuration":1548450,"Delta":316694409},{"NoteNumber":59,"Velocity":71,"Duration":1548450,"SoundDuration":1548450,"Delta":316694409},{"NoteNumber":44,"Velocity":77,"Duration":769229,"SoundDuration":769229,"Delta":317473629},{"NoteNumber":52,"Velocity":84,"Duration":1543424,"SoundDuration":1543424,"Delta":318242859},{"NoteNumber":63,"Velocity":84,"Duration":1543424,"SoundDuration":1543424,"Delta":318242859},{"NoteNumber":56,"Velocity":71,"Duration":1543424,"SoundDuration":1543424,"Delta":318242859},{"NoteNumber":35,"Velocity":79,"Duration":769229,"SoundDuration":769229,"Delta":319017053},{"NoteNumber":68,"Velocity":84,"Duration":242424,"SoundDuration":242424,"Delta":319786283},{"NoteNumber":75,"Velocity":84,"Duration":242424,"SoundDuration":242424,"Delta":319786283},{"NoteNumber":77,"Velocity":84,"Duration":242424,"SoundDuration":242424,"Delta":319786283},{"NoteNumber":63,"Velocity":71,"Duration":1454543,"SoundDuration":1454543,"Delta":319786283},{"NoteNumber":59,"Velocity":71,"Duration":1454543,"SoundDuration":1454543,"Delta":319786283},{"NoteNumber":53,"Velocity":71,"Duration":1454543,"SoundDuration":1454543,"Delta":319786283},{"NoteNumber":65,"Velocity":60,"Duration":242423,"SoundDuration":242423,"Delta":320028707},{"NoteNumber":68,"Velocity":50,"Duration":242424,"SoundDuration":242424,"Delta":320271131},{"NoteNumber":75,"Velocity":50,"Duration":242424,"SoundDuration":242424,"Delta":320271131},{"NoteNumber":77,"Velocity":50,"Duration":242424,"SoundDuration":242424,"Delta":320271131},{"NoteNumber":65,"Velocity":62,"Duration":242423,"SoundDuration":242423,"Delta":320513555},{"NoteNumber":44,"Velocity":80,"Duration":727271,"SoundDuration":727271,"Delta":320513555},{"NoteNumber":68,"Velocity":48,"Duration":242424,"SoundDuration":242424,"Delta":320755979},{"NoteNumber":75,"Velocity":48,"Duration":242424,"SoundDuration":242424,"Delta":320755979},{"NoteNumber":77,"Velocity":48,"Duration":242424,"SoundDuration":242424,"Delta":320755979},{"NoteNumber":65,"Velocity":54,"Duration":242423,"SoundDuration":242423,"Delta":320998403},{"NoteNumber":68,"Velocity":77,"Duration":242424,"SoundDuration":242424,"Delta":321240827},{"NoteNumber":75,"Velocity":77,"Duration":242424,"SoundDuration":242424,"Delta":321240827},{"NoteNumber":71,"Velocity":77,"Duration":242424,"SoundDuration":242424,"Delta":321240827},{"NoteNumber":52,"Velocity":71,"Duration":1454543,"SoundDuration":1454543,"Delta":321240827},{"NoteNumber":63,"Velocity":71,"Duration":1454543,"SoundDuration":1454543,"Delta":321240827},{"NoteNumber":56,"Velocity":71,"Duration":1454543,"SoundDuration":1454543,"Delta":321240827},{"NoteNumber":64,"Velocity":60,"Duration":242423,"SoundDuration":242423,"Delta":321483251},{"NoteNumber":68,"Velocity":48,"Duration":242424,"SoundDuration":242424,"Delta":321725675},{"NoteNumber":75,"Velocity":48,"Duration":242424,"SoundDuration":242424,"Delta":321725675},{"NoteNumber":71,"Velocity":48,"Duration":242424,"SoundDuration":242424,"Delta":321725675},{"NoteNumber":64,"Velocity":62,"Duration":242423,"SoundDuration":242423,"Delta":321968099},{"NoteNumber":35,"Velocity":71,"Duration":727271,"SoundDuration":727271,"Delta":321968099},{"NoteNumber":68,"Velocity":45,"Duration":242424,"SoundDuration":242424,"Delta":322210523},{"NoteNumber":75,"Velocity":45,"Duration":242424,"SoundDuration":242424,"Delta":322210523},{"NoteNumber":71,"Velocity":45,"Duration":242424,"SoundDuration":242424,"Delta":322210523},{"NoteNumber":64,"Velocity":50,"Duration":242423,"SoundDuration":242423,"Delta":322452947},{"NoteNumber":68,"Velocity":79,"Duration":242424,"SoundDuration":242424,"Delta":322695371},{"NoteNumber":75,"Velocity":79,"Duration":242424,"SoundDuration":242424,"Delta":322695371},{"NoteNumber":77,"Velocity":79,"Duration":242424,"SoundDuration":242424,"Delta":322695371},{"NoteNumber":53,"Velocity":71,"Duration":1454543,"SoundDuration":1454543,"Delta":322695371},{"NoteNumber":59,"Velocity":71,"Duration":1454543,"SoundDuration":1454543,"Delta":322695371},{"NoteNumber":63,"Velocity":71,"Duration":1454543,"SoundDuration":1454543,"Delta":322695371},{"NoteNumber":65,"Velocity":60,"Duration":242423,"SoundDuration":242423,"Delta":322937795},{"NoteNumber":68,"Velocity":48,"Duration":242424,"SoundDuration":242424,"Delta":323180219},{"NoteNumber":75,"Velocity":48,"Duration":242424,"SoundDuration":242424,"Delta":323180219},{"NoteNumber":77,"Velocity":48,"Duration":242424,"SoundDuration":242424,"Delta":323180219},{"NoteNumber":65,"Velocity":63,"Duration":242423,"SoundDuration":242423,"Delta":323422643},{"NoteNumber":44,"Velocity":84,"Duration":727271,"SoundDuration":727271,"Delta":323422643},{"NoteNumber":68,"Velocity":47,"Duration":242424,"SoundDuration":242424,"Delta":323665067},{"NoteNumber":75,"Velocity":47,"Duration":242424,"SoundDuration":242424,"Delta":323665067},{"NoteNumber":77,"Velocity":47,"Duration":242424,"SoundDuration":242424,"Delta":323665067},{"NoteNumber":65,"Velocity":54,"Duration":242423,"SoundDuration":242423,"Delta":323907491},{"NoteNumber":68,"Velocity":77,"Duration":242424,"SoundDuration":242424,"Delta":324149915},{"NoteNumber":75,"Velocity":77,"Duration":242424,"SoundDuration":242424,"Delta":324149915},{"NoteNumber":71,"Velocity":77,"Duration":242424,"SoundDuration":242424,"Delta":324149915},{"NoteNumber":52,"Velocity":71,"Duration":1454543,"SoundDuration":1454543,"Delta":324149915},{"NoteNumber":63,"Velocity":71,"Duration":1454543,"SoundDuration":1454543,"Delta":324149915},{"NoteNumber":56,"Velocity":71,"Duration":1454543,"SoundDuration":1454543,"Delta":324149915},{"NoteNumber":64,"Velocity":60,"Duration":242423,"SoundDuration":242423,"Delta":324392339},{"NoteNumber":68,"Velocity":47,"Duration":242424,"SoundDuration":242424,"Delta":324634763},{"NoteNumber":75,"Velocity":47,"Duration":242424,"SoundDuration":242424,"Delta":324634763},{"NoteNumber":71,"Velocity":47,"Duration":242424,"SoundDuration":242424,"Delta":324634763},{"NoteNumber":64,"Velocity":62,"Duration":242423,"SoundDuration":242423,"Delta":324877187},{"NoteNumber":35,"Velocity":73,"Duration":727271,"SoundDuration":727271,"Delta":324877187},{"NoteNumber":68,"Velocity":45,"Duration":242424,"SoundDuration":242424,"Delta":325119611},{"NoteNumber":75,"Velocity":45,"Duration":242424,"SoundDuration":242424,"Delta":325119611},{"NoteNumber":71,"Velocity":45,"Duration":242424,"SoundDuration":242424,"Delta":325119611},{"NoteNumber":64,"Velocity":51,"Duration":242423,"SoundDuration":242423,"Delta":325362035},{"NoteNumber":101,"Velocity":77,"Duration":181818,"SoundDuration":181818,"Delta":325604459},{"NoteNumber":99,"Velocity":77,"Duration":181818,"SoundDuration":181818,"Delta":325604459},{"NoteNumber":53,"Velocity":71,"Duration":1438282,"SoundDuration":1438282,"Delta":325604459},{"NoteNumber":59,"Velocity":71,"Duration":1438282,"SoundDuration":1438282,"Delta":325604459},{"NoteNumber":63,"Velocity":71,"Duration":1438282,"SoundDuration":1438282,"Delta":325604459},{"NoteNumber":89,"Velocity":59,"Duration":181817,"SoundDuration":181817,"Delta":325786277},{"NoteNumber":87,"Velocity":63,"Duration":180180,"SoundDuration":180180,"Delta":325968095},{"NoteNumber":89,"Velocity":63,"Duration":180180,"SoundDuration":180180,"Delta":325968095},{"NoteNumber":77,"Velocity":57,"Duration":180180,"SoundDuration":180180,"Delta":326148275},{"NoteNumber":89,"Velocity":64,"Duration":178571,"SoundDuration":178571,"Delta":326328455},{"NoteNumber":87,"Velocity":64,"Duration":178571,"SoundDuration":178571,"Delta":326328455},{"NoteNumber":44,"Velocity":82,"Duration":714286,"SoundDuration":714286,"Delta":326328455},{"NoteNumber":89,"Velocity":54,"Duration":178571,"SoundDuration":178571,"Delta":326507027},{"NoteNumber":99,"Velocity":69,"Duration":178571,"SoundDuration":178571,"Delta":326685598},{"NoteNumber":101,"Velocity":69,"Duration":178571,"SoundDuration":178571,"Delta":326685598},{"NoteNumber":89,"Velocity":64,"Duration":178571,"SoundDuration":178571,"Delta":326864170},{"NoteNumber":95,"Velocity":77,"Duration":181818,"SoundDuration":181818,"Delta":327042741},{"NoteNumber":99,"Velocity":77,"Duration":181818,"SoundDuration":181818,"Delta":327042741},{"NoteNumber":52,"Velocity":71,"Duration":1438282,"SoundDuration":1438282,"Delta":327042741},{"NoteNumber":63,"Velocity":71,"Duration":1438282,"SoundDuration":1438282,"Delta":327042741},{"NoteNumber":56,"Velocity":71,"Duration":1438282,"SoundDuration":1438282,"Delta":327042741},{"NoteNumber":88,"Velocity":57,"Duration":181817,"SoundDuration":181817,"Delta":327224559},{"NoteNumber":87,"Velocity":63,"Duration":180180,"SoundDuration":180180,"Delta":327406377},{"NoteNumber":83,"Velocity":63,"Duration":180180,"SoundDuration":180180,"Delta":327406377},{"NoteNumber":76,"Velocity":57,"Duration":180180,"SoundDuration":180180,"Delta":327586557},{"NoteNumber":83,"Velocity":65,"Duration":178571,"SoundDuration":178571,"Delta":327766737},{"NoteNumber":87,"Velocity":65,"Duration":178571,"SoundDuration":178571,"Delta":327766737},{"NoteNumber":35,"Velocity":75,"Duration":714286,"SoundDuration":714286,"Delta":327766737},{"NoteNumber":88,"Velocity":59,"Duration":178571,"SoundDuration":178571,"Delta":327945309},{"NoteNumber":99,"Velocity":71,"Duration":178571,"SoundDuration":178571,"Delta":328123880},{"NoteNumber":95,"Velocity":71,"Duration":178571,"SoundDuration":178571,"Delta":328123880},{"NoteNumber":88,"Velocity":63,"Duration":178571,"SoundDuration":178571,"Delta":328302452},{"NoteNumber":101,"Velocity":80,"Duration":181818,"SoundDuration":181818,"Delta":328481023},{"NoteNumber":99,"Velocity":80,"Duration":181818,"SoundDuration":181818,"Delta":328481023},{"NoteNumber":53,"Velocity":72,"Duration":1437203,"SoundDuration":1437203,"Delta":328481023},{"NoteNumber":59,"Velocity":72,"Duration":1437203,"SoundDuration":1437203,"Delta":328481023},{"NoteNumber":63,"Velocity":72,"Duration":1437203,"SoundDuration":1437203,"Delta":328481023},{"NoteNumber":89,"Velocity":59,"Duration":181817,"SoundDuration":181817,"Delta":328662841},{"NoteNumber":87,"Velocity":66,"Duration":179640,"SoundDuration":179640,"Delta":328844659},{"NoteNumber":89,"Velocity":66,"Duration":179640,"SoundDuration":179640,"Delta":328844659},{"NoteNumber":77,"Velocity":59,"Duration":179640,"SoundDuration":179640,"Delta":329024300},{"NoteNumber":89,"Velocity":65,"Duration":178571,"SoundDuration":178571,"Delta":329203940},{"NoteNumber":87,"Velocity":65,"Duration":178571,"SoundDuration":178571,"Delta":329203940},{"NoteNumber":44,"Velocity":82,"Duration":714286,"SoundDuration":714286,"Delta":329203940},{"NoteNumber":89,"Velocity":57,"Duration":178571,"SoundDuration":178571,"Delta":329382512},{"NoteNumber":99,"Velocity":70,"Duration":178571,"SoundDuration":178571,"Delta":329561083},{"NoteNumber":101,"Velocity":70,"Duration":178571,"SoundDuration":178571,"Delta":329561083},{"NoteNumber":89,"Velocity":63,"Duration":178571,"SoundDuration":178571,"Delta":329739655},{"NoteNumber":95,"Velocity":81,"Duration":181818,"SoundDuration":181818,"Delta":329918226},{"NoteNumber":99,"Velocity":81,"Duration":181818,"SoundDuration":181818,"Delta":329918226},{"NoteNumber":52,"Velocity":73,"Duration":1435083,"SoundDuration":1435083,"Delta":329918226},{"NoteNumber":63,"Velocity":73,"Duration":1435083,"SoundDuration":1435083,"Delta":329918226},{"NoteNumber":56,"Velocity":73,"Duration":1435083,"SoundDuration":1435083,"Delta":329918226},{"NoteNumber":88,"Velocity":60,"Duration":181817,"SoundDuration":181817,"Delta":330100044},{"NoteNumber":87,"Velocity":65,"Duration":179640,"SoundDuration":179640,"Delta":330281862},{"NoteNumber":83,"Velocity":65,"Duration":179640,"SoundDuration":179640,"Delta":330281862},{"NoteNumber":76,"Velocity":59,"Duration":179640,"SoundDuration":179640,"Delta":330461503},{"NoteNumber":83,"Velocity":65,"Duration":178041,"SoundDuration":178041,"Delta":330641143},{"NoteNumber":87,"Velocity":65,"Duration":178041,"SoundDuration":178041,"Delta":330641143},{"NoteNumber":35,"Velocity":75,"Duration":712166,"SoundDuration":712166,"Delta":330641143},{"NoteNumber":88,"Velocity":59,"Duration":178041,"SoundDuration":178041,"Delta":330819185},{"NoteNumber":99,"Velocity":72,"Duration":178041,"SoundDuration":178041,"Delta":330997226},{"NoteNumber":95,"Velocity":72,"Duration":178041,"SoundDuration":178041,"Delta":330997226},{"NoteNumber":88,"Velocity":64,"Duration":178041,"SoundDuration":178041,"Delta":331175268},{"NoteNumber":92,"Velocity":83,"Duration":181818,"SoundDuration":181818,"Delta":331353309},{"NoteNumber":96,"Velocity":83,"Duration":181818,"SoundDuration":181818,"Delta":331353309},{"NoteNumber":99,"Velocity":83,"Duration":181818,"SoundDuration":181818,"Delta":331353309},{"NoteNumber":63,"Velocity":80,"Duration":1437203,"SoundDuration":1437203,"Delta":331353309},{"NoteNumber":89,"Velocity":63,"Duration":181817,"SoundDuration":181817,"Delta":331535127},{"NoteNumber":80,"Velocity":60,"Duration":179640,"SoundDuration":179640,"Delta":331716945},{"NoteNumber":87,"Velocity":60,"Duration":179640,"SoundDuration":179640,"Delta":331716945},{"NoteNumber":84,"Velocity":60,"Duration":179640,"SoundDuration":179640,"Delta":331716945},{"NoteNumber":77,"Velocity":62,"Duration":179640,"SoundDuration":179640,"Delta":331896586},{"NoteNumber":80,"Velocity":57,"Duration":178571,"SoundDuration":178571,"Delta":332076226},{"NoteNumber":84,"Velocity":57,"Duration":178571,"SoundDuration":178571,"Delta":332076226},{"NoteNumber":87,"Velocity":57,"Duration":178571,"SoundDuration":178571,"Delta":332076226},{"NoteNumber":34,"Velocity":77,"Duration":714286,"SoundDuration":714286,"Delta":332076226},{"NoteNumber":89,"Velocity":60,"Duration":178571,"SoundDuration":178571,"Delta":332254798},{"NoteNumber":92,"Velocity":67,"Duration":178571,"SoundDuration":178571,"Delta":332433369},{"NoteNumber":99,"Velocity":67,"Duration":178571,"SoundDuration":178571,"Delta":332433369},{"NoteNumber":96,"Velocity":67,"Duration":178571,"SoundDuration":178571,"Delta":332433369},{"NoteNumber":89,"Velocity":64,"Duration":178571,"SoundDuration":178571,"Delta":332611941},{"NoteNumber":91,"Velocity":84,"Duration":181818,"SoundDuration":181818,"Delta":332790512},{"NoteNumber":94,"Velocity":84,"Duration":181818,"SoundDuration":181818,"Delta":332790512},{"NoteNumber":98,"Velocity":84,"Duration":181818,"SoundDuration":181818,"Delta":332790512},{"NoteNumber":63,"Velocity":77,"Duration":1437203,"SoundDuration":1437203,"Delta":332790512},{"NoteNumber":87,"Velocity":63,"Duration":181817,"SoundDuration":181817,"Delta":332972330},{"NoteNumber":79,"Velocity":54,"Duration":179640,"SoundDuration":179640,"Delta":333154148},{"NoteNumber":86,"Velocity":54,"Duration":179640,"SoundDuration":179640,"Delta":333154148},{"NoteNumber":82,"Velocity":54,"Duration":179640,"SoundDuration":179640,"Delta":333154148},{"NoteNumber":75,"Velocity":62,"Duration":179640,"SoundDuration":179640,"Delta":333333789},{"NoteNumber":79,"Velocity":56,"Duration":178571,"SoundDuration":178571,"Delta":333513429},{"NoteNumber":82,"Velocity":56,"Duration":178571,"SoundDuration":178571,"Delta":333513429},{"NoteNumber":86,"Velocity":56,"Duration":178571,"SoundDuration":178571,"Delta":333513429},{"NoteNumber":34,"Velocity":76,"Duration":714286,"SoundDuration":714286,"Delta":333513429},{"NoteNumber":87,"Velocity":62,"Duration":178571,"SoundDuration":178571,"Delta":333692001},{"NoteNumber":91,"Velocity":71,"Duration":178571,"SoundDuration":178571,"Delta":333870572},{"NoteNumber":98,"Velocity":71,"Duration":178571,"SoundDuration":178571,"Delta":333870572},{"NoteNumber":94,"Velocity":71,"Duration":178571,"SoundDuration":178571,"Delta":333870572},{"NoteNumber":87,"Velocity":65,"Duration":178571,"SoundDuration":178571,"Delta":334049144},{"NoteNumber":87,"Velocity":81,"Duration":181818,"SoundDuration":181818,"Delta":334227715},{"NoteNumber":94,"Velocity":81,"Duration":181818,"SoundDuration":181818,"Delta":334227715},{"NoteNumber":92,"Velocity":81,"Duration":181818,"SoundDuration":181818,"Delta":334227715},{"NoteNumber":63,"Velocity":79,"Duration":1435083,"SoundDuration":1435083,"Delta":334227715},{"NoteNumber":83,"Velocity":64,"Duration":181817,"SoundDuration":181817,"Delta":334409533},{"NoteNumber":75,"Velocity":68,"Duration":179640,"SoundDuration":179640,"Delta":334591351},{"NoteNumber":80,"Velocity":68,"Duration":179640,"SoundDuration":179640,"Delta":334591351},{"NoteNumber":82,"Velocity":68,"Duration":179640,"SoundDuration":179640,"Delta":334591351},{"NoteNumber":71,"Velocity":63,"Duration":179640,"SoundDuration":179640,"Delta":334770992},{"NoteNumber":75,"Velocity":68,"Duration":178041,"SoundDuration":178041,"Delta":334950632},{"NoteNumber":82,"Velocity":68,"Duration":178041,"SoundDuration":178041,"Delta":334950632},{"NoteNumber":80,"Velocity":68,"Duration":178041,"SoundDuration":178041,"Delta":334950632},{"NoteNumber":34,"Velocity":77,"Duration":712166,"SoundDuration":712166,"Delta":334950632},{"NoteNumber":83,"Velocity":61,"Duration":178041,"SoundDuration":178041,"Delta":335128674},{"NoteNumber":87,"Velocity":73,"Duration":178041,"SoundDuration":178041,"Delta":335306715},{"NoteNumber":92,"Velocity":73,"Duration":178041,"SoundDuration":178041,"Delta":335306715},{"NoteNumber":94,"Velocity":73,"Duration":178041,"SoundDuration":178041,"Delta":335306715},{"NoteNumber":83,"Velocity":64,"Duration":178041,"SoundDuration":178041,"Delta":335484757},{"NoteNumber":86,"Velocity":84,"Duration":181818,"SoundDuration":181818,"Delta":335662798},{"NoteNumber":91,"Velocity":84,"Duration":181818,"SoundDuration":181818,"Delta":335662798},{"NoteNumber":63,"Velocity":81,"Duration":1439334,"SoundDuration":1439334,"Delta":335662798},{"NoteNumber":82,"Velocity":65,"Duration":181817,"SoundDuration":181817,"Delta":335844616},{"NoteNumber":74,"Velocity":69,"Duration":179640,"SoundDuration":179640,"Delta":336026434},{"NoteNumber":79,"Velocity":69,"Duration":179640,"SoundDuration":179640,"Delta":336026434},{"NoteNumber":70,"Velocity":63,"Duration":179640,"SoundDuration":179640,"Delta":336206075},{"NoteNumber":74,"Velocity":72,"Duration":179104,"SoundDuration":179104,"Delta":336385715},{"NoteNumber":79,"Velocity":72,"Duration":179104,"SoundDuration":179104,"Delta":336385715},{"NoteNumber":34,"Velocity":77,"Duration":716417,"SoundDuration":716417,"Delta":336385715},{"NoteNumber":82,"Velocity":65,"Duration":179104,"SoundDuration":179104,"Delta":336564820},{"NoteNumber":86,"Velocity":80,"Duration":179104,"SoundDuration":179104,"Delta":336743924},{"NoteNumber":91,"Velocity":80,"Duration":179104,"SoundDuration":179104,"Delta":336743924},{"NoteNumber":82,"Velocity":69,"Duration":179104,"SoundDuration":179104,"Delta":336923029},{"NoteNumber":79,"Velocity":85,"Duration":181818,"SoundDuration":181818,"Delta":337102133},{"NoteNumber":84,"Velocity":92,"Duration":181818,"SoundDuration":181818,"Delta":337102133},{"NoteNumber":63,"Velocity":82,"Duration":722916,"SoundDuration":722916,"Delta":337102133},{"NoteNumber":75,"Velocity":66,"Duration":181817,"SoundDuration":181817,"Delta":337283951},{"NoteNumber":67,"Velocity":64,"Duration":179640,"SoundDuration":179640,"Delta":337465769},{"NoteNumber":72,"Velocity":71,"Duration":179640,"SoundDuration":179640,"Delta":337465769},{"NoteNumber":63,"Velocity":64,"Duration":898202,"SoundDuration":898202,"Delta":337645410},{"NoteNumber":77,"Velocity":73,"Duration":179640,"SoundDuration":179640,"Delta":337825050},{"NoteNumber":82,"Velocity":73,"Duration":179640,"SoundDuration":179640,"Delta":337825050},{"NoteNumber":34,"Velocity":80,"Duration":718561,"SoundDuration":718561,"Delta":337825050},{"NoteNumber":74,"Velocity":66,"Duration":179640,"SoundDuration":179640,"Delta":338004691},{"NoteNumber":65,"Velocity":63,"Duration":179640,"SoundDuration":179640,"Delta":338184331},{"NoteNumber":70,"Velocity":71,"Duration":179640,"SoundDuration":179640,"Delta":338184331},{"NoteNumber":62,"Velocity":70,"Duration":179640,"SoundDuration":179640,"Delta":338363972},{"NoteNumber":79,"Velocity":84,"Duration":181818,"SoundDuration":181818,"Delta":338543612},{"NoteNumber":84,"Velocity":91,"Duration":181818,"SoundDuration":181818,"Delta":338543612},{"NoteNumber":63,"Velocity":82,"Duration":727272,"SoundDuration":727272,"Delta":338543612},{"NoteNumber":75,"Velocity":66,"Duration":181817,"SoundDuration":181817,"Delta":338725430},{"NoteNumber":67,"Velocity":71,"Duration":181818,"SoundDuration":181818,"Delta":338907248},{"NoteNumber":72,"Velocity":71,"Duration":181818,"SoundDuration":181818,"Delta":338907248},{"NoteNumber":63,"Velocity":64,"Duration":903662,"SoundDuration":903662,"Delta":339089066},{"NoteNumber":89,"Velocity":84,"Duration":179104,"SoundDuration":179104,"Delta":339270884},{"NoteNumber":82,"Velocity":62,"Duration":179104,"SoundDuration":179104,"Delta":339270884},{"NoteNumber":86,"Velocity":62,"Duration":179104,"SoundDuration":179104,"Delta":339270884},{"NoteNumber":34,"Velocity":79,"Duration":721844,"SoundDuration":721844,"Delta":339270884},{"NoteNumber":77,"Velocity":66,"Duration":179104,"SoundDuration":179104,"Delta":339449989},{"NoteNumber":86,"Velocity":63,"Duration":181818,"SoundDuration":181818,"Delta":339629093},{"NoteNumber":89,"Velocity":63,"Duration":181818,"SoundDuration":181818,"Delta":339629093},{"NoteNumber":94,"Velocity":87,"Duration":181818,"SoundDuration":181818,"Delta":339629093},{"NoteNumber":82,"Velocity":70,"Duration":181817,"SoundDuration":181817,"Delta":339810911},{"NoteNumber":91,"Velocity":96,"Duration":181818,"SoundDuration":181818,"Delta":339992729},{"NoteNumber":87,"Velocity":66,"Duration":181818,"SoundDuration":181818,"Delta":339992729},{"NoteNumber":84,"Velocity":66,"Duration":181818,"SoundDuration":181818,"Delta":339992729},{"NoteNumber":63,"Velocity":82,"Duration":1445834,"SoundDuration":1445834,"Delta":339992729},{"NoteNumber":82,"Velocity":66,"Duration":181818,"SoundDuration":181818,"Delta":340174547},{"NoteNumber":72,"Velocity":61,"Duration":181817,"SoundDuration":181817,"Delta":340356365},{"NoteNumber":75,"Velocity":63,"Duration":181817,"SoundDuration":181817,"Delta":340356365},{"NoteNumber":79,"Velocity":71,"Duration":181817,"SoundDuration":181817,"Delta":340356365},{"NoteNumber":70,"Velocity":64,"Duration":181818,"SoundDuration":181818,"Delta":340538183},{"NoteNumber":89,"Velocity":82,"Duration":179640,"SoundDuration":179640,"Delta":340720001},{"NoteNumber":82,"Velocity":59,"Duration":179640,"SoundDuration":179640,"Delta":340720001},{"NoteNumber":86,"Velocity":59,"Duration":179640,"SoundDuration":179640,"Delta":340720001},{"NoteNumber":34,"Velocity":80,"Duration":718562,"SoundDuration":718562,"Delta":340720001},{"NoteNumber":77,"Velocity":66,"Duration":179640,"SoundDuration":179640,"Delta":340899642},{"NoteNumber":86,"Velocity":64,"Duration":179640,"SoundDuration":179640,"Delta":341079282},{"NoteNumber":89,"Velocity":64,"Duration":179640,"SoundDuration":179640,"Delta":341079282},{"NoteNumber":94,"Velocity":88,"Duration":179640,"SoundDuration":179640,"Delta":341079282},{"NoteNumber":82,"Velocity":70,"Duration":179640,"SoundDuration":179640,"Delta":341258923},{"NoteNumber":91,"Velocity":95,"Duration":181818,"SoundDuration":181818,"Delta":341438563},{"NoteNumber":87,"Velocity":45,"Duration":181818,"SoundDuration":181818,"Delta":341438563},{"NoteNumber":86,"Velocity":45,"Duration":181818,"SoundDuration":181818,"Delta":341438563},{"NoteNumber":63,"Velocity":82,"Duration":1459005,"SoundDuration":1459005,"Delta":341438563},{"NoteNumber":84,"Velocity":66,"Duration":181817,"SoundDuration":181817,"Delta":341620381},{"NoteNumber":74,"Velocity":61,"Duration":181818,"SoundDuration":181818,"Delta":341802199},{"NoteNumber":75,"Velocity":61,"Duration":181818,"SoundDuration":181818,"Delta":341802199},{"NoteNumber":79,"Velocity":71,"Duration":181818,"SoundDuration":181818,"Delta":341802199},{"NoteNumber":72,"Velocity":64,"Duration":181818,"SoundDuration":181818,"Delta":341984017},{"NoteNumber":87,"Velocity":92,"Duration":181817,"SoundDuration":181817,"Delta":342165835},{"NoteNumber":84,"Velocity":44,"Duration":181817,"SoundDuration":181817,"Delta":342165835},{"NoteNumber":82,"Velocity":44,"Duration":181817,"SoundDuration":181817,"Delta":342165835},{"NoteNumber":34,"Velocity":80,"Duration":731733,"SoundDuration":731733,"Delta":342165835},{"NoteNumber":79,"Velocity":62,"Duration":181818,"SoundDuration":181818,"Delta":342347653},{"NoteNumber":70,"Velocity":56,"Duration":184049,"SoundDuration":184049,"Delta":342529471},{"NoteNumber":72,"Velocity":56,"Duration":184049,"SoundDuration":184049,"Delta":342529471},{"NoteNumber":75,"Velocity":67,"Duration":184049,"SoundDuration":184049,"Delta":342529471},{"NoteNumber":67,"Velocity":64,"Duration":184048,"SoundDuration":184048,"Delta":342713520},{"NoteNumber":89,"Velocity":90,"Duration":182927,"SoundDuration":182927,"Delta":342897569},{"NoteNumber":87,"Velocity":65,"Duration":182927,"SoundDuration":182927,"Delta":342897569},{"NoteNumber":84,"Velocity":65,"Duration":182927,"SoundDuration":182927,"Delta":342897569},{"NoteNumber":63,"Velocity":82,"Duration":1463415,"SoundDuration":1463415,"Delta":342897569},{"NoteNumber":80,"Velocity":66,"Duration":182927,"SoundDuration":182927,"Delta":343080496},{"NoteNumber":72,"Velocity":61,"Duration":182927,"SoundDuration":182927,"Delta":343263423},{"NoteNumber":75,"Velocity":61,"Duration":182927,"SoundDuration":182927,"Delta":343263423},{"NoteNumber":77,"Velocity":71,"Duration":182927,"SoundDuration":182927,"Delta":343263423},{"NoteNumber":68,"Velocity":64,"Duration":182927,"SoundDuration":182927,"Delta":343446350},{"NoteNumber":84,"Velocity":90,"Duration":182926,"SoundDuration":182926,"Delta":343629277},{"NoteNumber":80,"Velocity":64,"Duration":182926,"SoundDuration":182926,"Delta":343629277},{"NoteNumber":77,"Velocity":64,"Duration":182926,"SoundDuration":182926,"Delta":343629277},{"NoteNumber":75,"Velocity":66,"Duration":182927,"SoundDuration":182927,"Delta":343812204},{"NoteNumber":65,"Velocity":61,"Duration":182927,"SoundDuration":182927,"Delta":343995131},{"NoteNumber":68,"Velocity":61,"Duration":182927,"SoundDuration":182927,"Delta":343995131},{"NoteNumber":72,"Velocity":71,"Duration":182927,"SoundDuration":182927,"Delta":343995131},{"NoteNumber":63,"Velocity":64,"Duration":182927,"SoundDuration":182927,"Delta":344178058},{"NoteNumber":70,"Velocity":87,"Duration":181818,"SoundDuration":181818,"Delta":344360985},{"NoteNumber":68,"Velocity":49,"Duration":181818,"SoundDuration":181818,"Delta":344360985},{"NoteNumber":65,"Velocity":49,"Duration":181818,"SoundDuration":181818,"Delta":344360985},{"NoteNumber":34,"Velocity":85,"Duration":1447890,"SoundDuration":1447890,"Delta":344360985},{"NoteNumber":62,"Velocity":66,"Duration":181817,"SoundDuration":181817,"Delta":344542803},{"NoteNumber":68,"Velocity":45,"Duration":181268,"SoundDuration":181268,"Delta":344724621},{"NoteNumber":70,"Velocity":45,"Duration":181268,"SoundDuration":181268,"Delta":344724621},{"NoteNumber":74,"Velocity":79,"Duration":181268,"SoundDuration":181268,"Delta":344724621},{"NoteNumber":65,"Velocity":64,"Duration":181268,"SoundDuration":181268,"Delta":344905890},{"NoteNumber":77,"Velocity":86,"Duration":180723,"SoundDuration":180723,"Delta":345087159},{"NoteNumber":74,"Velocity":48,"Duration":180723,"SoundDuration":180723,"Delta":345087159},{"NoteNumber":70,"Velocity":48,"Duration":180723,"SoundDuration":180723,"Delta":345087159},{"NoteNumber":68,"Velocity":66,"Duration":180723,"SoundDuration":180723,"Delta":345267882},{"NoteNumber":74,"Velocity":51,"Duration":180180,"SoundDuration":180180,"Delta":345448605},{"NoteNumber":77,"Velocity":51,"Duration":180180,"SoundDuration":180180,"Delta":345448605},{"NoteNumber":82,"Velocity":90,"Duration":180180,"SoundDuration":180180,"Delta":345448605},{"NoteNumber":70,"Velocity":72,"Duration":180090,"SoundDuration":180090,"Delta":345628785},{"NoteNumber":79,"Velocity":54,"Duration":179640,"SoundDuration":179640,"Delta":345808875},{"NoteNumber":84,"Velocity":95,"Duration":179640,"SoundDuration":179640,"Delta":345808875},{"NoteNumber":63,"Velocity":89,"Duration":718562,"SoundDuration":718562,"Delta":345808875},{"NoteNumber":75,"Velocity":66,"Duration":179640,"SoundDuration":179640,"Delta":345988516},{"NoteNumber":67,"Velocity":62,"Duration":179640,"SoundDuration":179640,"Delta":346168156},{"NoteNumber":72,"Velocity":71,"Duration":179640,"SoundDuration":179640,"Delta":346168156},{"NoteNumber":63,"Velocity":64,"Duration":903663,"SoundDuration":903663,"Delta":346347797},{"NoteNumber":89,"Velocity":82,"Duration":179640,"SoundDuration":179640,"Delta":346527437},{"NoteNumber":82,"Velocity":46,"Duration":179640,"SoundDuration":179640,"Delta":346527437},{"NoteNumber":86,"Velocity":46,"Duration":179640,"SoundDuration":179640,"Delta":346527437},{"NoteNumber":34,"Velocity":83,"Duration":724022,"SoundDuration":724022,"Delta":346527437},{"NoteNumber":77,"Velocity":66,"Duration":179640,"SoundDuration":179640,"Delta":346707078},{"NoteNumber":86,"Velocity":50,"Duration":182370,"SoundDuration":182370,"Delta":346886718},{"NoteNumber":89,"Velocity":50,"Duration":182370,"SoundDuration":182370,"Delta":346886718},{"NoteNumber":94,"Velocity":88,"Duration":182370,"SoundDuration":182370,"Delta":346886718},{"NoteNumber":82,"Velocity":70,"Duration":182370,"SoundDuration":182370,"Delta":347069089},{"NoteNumber":91,"Velocity":97,"Duration":181818,"SoundDuration":181818,"Delta":347251460},{"NoteNumber":87,"Velocity":54,"Duration":181818,"SoundDuration":181818,"Delta":347251460},{"NoteNumber":84,"Velocity":54,"Duration":181818,"SoundDuration":181818,"Delta":347251460},{"NoteNumber":63,"Velocity":89,"Duration":1452008,"SoundDuration":1452008,"Delta":347251460},{"NoteNumber":82,"Velocity":66,"Duration":181817,"SoundDuration":181817,"Delta":347433278},{"NoteNumber":72,"Velocity":60,"Duration":181818,"SoundDuration":181818,"Delta":347615096},{"NoteNumber":75,"Velocity":64,"Duration":181818,"SoundDuration":181818,"Delta":347615096},{"NoteNumber":79,"Velocity":71,"Duration":181818,"SoundDuration":181818,"Delta":347615096},{"NoteNumber":70,"Velocity":64,"Duration":181818,"SoundDuration":181818,"Delta":347796914},{"NoteNumber":89,"Velocity":82,"Duration":180180,"SoundDuration":180180,"Delta":347978732},{"NoteNumber":82,"Velocity":46,"Duration":180180,"SoundDuration":180180,"Delta":347978732},{"NoteNumber":86,"Velocity":46,"Duration":180180,"SoundDuration":180180,"Delta":347978732},{"NoteNumber":34,"Velocity":83,"Duration":724736,"SoundDuration":724736,"Delta":347978732},{"NoteNumber":77,"Velocity":66,"Duration":180180,"SoundDuration":180180,"Delta":348158912},{"NoteNumber":86,"Velocity":50,"Duration":182005,"SoundDuration":182005,"Delta":348339092},{"NoteNumber":89,"Velocity":50,"Duration":182005,"SoundDuration":182005,"Delta":348339092},{"NoteNumber":94,"Velocity":88,"Duration":182005,"SoundDuration":182005,"Delta":348339092},{"NoteNumber":82,"Velocity":70,"Duration":182370,"SoundDuration":182370,"Delta":348521098},{"NoteNumber":68,"Velocity":60,"Duration":180723,"SoundDuration":180723,"Delta":348703469},{"NoteNumber":72,"Velocity":83,"Duration":180723,"SoundDuration":180723,"Delta":348703469},{"NoteNumber":67,"Velocity":60,"Duration":180723,"SoundDuration":180723,"Delta":348703469},{"NoteNumber":63,"Velocity":87,"Duration":722077,"SoundDuration":722077,"Delta":348703469},{"NoteNumber":65,"Velocity":65,"Duration":180723,"SoundDuration":180723,"Delta":348884192},{"NoteNumber":70,"Velocity":57,"Duration":180451,"SoundDuration":180451,"Delta":349064915},{"NoteNumber":74,"Velocity":57,"Duration":180451,"SoundDuration":180451,"Delta":349064915},{"NoteNumber":75,"Velocity":81,"Duration":180451,"SoundDuration":180451,"Delta":349064915},{"NoteNumber":67,"Velocity":64,"Duration":180180,"SoundDuration":180180,"Delta":349245367},{"NoteNumber":77,"Velocity":83,"Duration":180180,"SoundDuration":180180,"Delta":349425547},{"NoteNumber":75,"Velocity":60,"Duration":180180,"SoundDuration":180180,"Delta":349425547},{"NoteNumber":72,"Velocity":60,"Duration":180180,"SoundDuration":180180,"Delta":349425547},{"NoteNumber":34,"Velocity":83,"Duration":718744,"SoundDuration":718744,"Delta":349425547},{"NoteNumber":68,"Velocity":66,"Duration":179640,"SoundDuration":179640,"Delta":349605727},{"NoteNumber":74,"Velocity":63,"Duration":179640,"SoundDuration":179640,"Delta":349785367},{"NoteNumber":77,"Velocity":63,"Duration":179640,"SoundDuration":179640,"Delta":349785367},{"NoteNumber":80,"Velocity":87,"Duration":179640,"SoundDuration":179640,"Delta":349785367},{"NoteNumber":72,"Velocity":71,"Duration":179283,"SoundDuration":179283,"Delta":349965008},{"NoteNumber":75,"Velocity":81,"Duration":178571,"SoundDuration":178571,"Delta":350144291},{"NoteNumber":79,"Velocity":88,"Duration":178571,"SoundDuration":178571,"Delta":350144291},{"NoteNumber":74,"Velocity":64,"Duration":178571,"SoundDuration":178571,"Delta":350144291},{"NoteNumber":63,"Velocity":90,"Duration":711381,"SoundDuration":711381,"Delta":350144291},{"NoteNumber":71,"Velocity":66,"Duration":178041,"SoundDuration":178041,"Delta":350322863},{"NoteNumber":75,"Velocity":60,"Duration":177602,"SoundDuration":177602,"Delta":350500904},{"NoteNumber":79,"Velocity":60,"Duration":177602,"SoundDuration":177602,"Delta":350500904},{"NoteNumber":80,"Velocity":83,"Duration":177602,"SoundDuration":177602,"Delta":350500904},{"NoteNumber":72,"Velocity":64,"Duration":177165,"SoundDuration":177165,"Delta":350678507},{"NoteNumber":84,"Velocity":87,"Duration":176730,"SoundDuration":176730,"Delta":350855673},{"NoteNumber":80,"Velocity":63,"Duration":176730,"SoundDuration":176730,"Delta":350855673},{"NoteNumber":79,"Velocity":63,"Duration":176730,"SoundDuration":176730,"Delta":350855673},{"NoteNumber":34,"Velocity":83,"Duration":704672,"SoundDuration":704672,"Delta":350855673},{"NoteNumber":77,"Velocity":66,"Duration":176297,"SoundDuration":176297,"Delta":351032403},{"NoteNumber":84,"Velocity":63,"Duration":175867,"SoundDuration":175867,"Delta":351208701},{"NoteNumber":86,"Velocity":63,"Duration":175867,"SoundDuration":175867,"Delta":351208701},{"NoteNumber":89,"Velocity":87,"Duration":175867,"SoundDuration":175867,"Delta":351208701},{"NoteNumber":80,"Velocity":72,"Duration":175776,"SoundDuration":175776,"Delta":351384569},{"NoteNumber":92,"Velocity":90,"Duration":180346,"SoundDuration":180346,"Delta":351560345},{"NoteNumber":87,"Velocity":59,"Duration":180346,"SoundDuration":180346,"Delta":351560345},{"NoteNumber":58,"Velocity":59,"Duration":1263476,"SoundDuration":1263476,"Delta":351560345},{"NoteNumber":65,"Velocity":59,"Duration":1263476,"SoundDuration":1263476,"Delta":351560345},{"NoteNumber":63,"Velocity":59,"Duration":1263476,"SoundDuration":1263476,"Delta":351560345},{"NoteNumber":70,"Velocity":82,"Duration":1263476,"SoundDuration":1263476,"Delta":351560345},{"NoteNumber":80,"Velocity":35,"Duration":180497,"SoundDuration":180497,"Delta":351740692},{"NoteNumber":94,"Velocity":66,"Duration":180497,"SoundDuration":180497,"Delta":351740692},{"NoteNumber":87,"Velocity":57,"Duration":180709,"SoundDuration":180709,"Delta":351921189},{"NoteNumber":92,"Velocity":89,"Duration":180709,"SoundDuration":180709,"Delta":351921189},{"NoteNumber":80,"Velocity":35,"Duration":180948,"SoundDuration":180948,"Delta":352101898},{"NoteNumber":94,"Velocity":66,"Duration":180948,"SoundDuration":180948,"Delta":352101898},{"NoteNumber":92,"Velocity":90,"Duration":180584,"SoundDuration":180584,"Delta":352282847},{"NoteNumber":87,"Velocity":59,"Duration":180584,"SoundDuration":180584,"Delta":352282847},{"NoteNumber":27,"Velocity":65,"Duration":721318,"SoundDuration":721318,"Delta":352282847},{"NoteNumber":39,"Velocity":82,"Duration":721318,"SoundDuration":721318,"Delta":352282847},{"NoteNumber":80,"Velocity":35,"Duration":180284,"SoundDuration":180284,"Delta":352463432},{"NoteNumber":94,"Velocity":66,"Duration":180284,"SoundDuration":180284,"Delta":352463432},{"NoteNumber":87,"Velocity":56,"Duration":180105,"SoundDuration":180105,"Delta":352643716},{"NoteNumber":92,"Velocity":87,"Duration":180105,"SoundDuration":180105,"Delta":352643716},{"NoteNumber":80,"Velocity":35,"Duration":180344,"SoundDuration":180344,"Delta":352823821},{"NoteNumber":94,"Velocity":66,"Duration":180344,"SoundDuration":180344,"Delta":352823821},{"NoteNumber":92,"Velocity":92,"Duration":179699,"SoundDuration":179699,"Delta":353004166},{"NoteNumber":87,"Velocity":60,"Duration":179699,"SoundDuration":179699,"Delta":353004166},{"NoteNumber":58,"Velocity":60,"Duration":1263789,"SoundDuration":1263789,"Delta":353004166},{"NoteNumber":63,"Velocity":60,"Duration":1263789,"SoundDuration":1263789,"Delta":353004166},{"NoteNumber":65,"Velocity":60,"Duration":1263789,"SoundDuration":1263789,"Delta":353004166},{"NoteNumber":70,"Velocity":84,"Duration":1263789,"SoundDuration":1263789,"Delta":353004166},{"NoteNumber":80,"Velocity":37,"Duration":180376,"SoundDuration":180376,"Delta":353183865},{"NoteNumber":94,"Velocity":70,"Duration":180376,"SoundDuration":180376,"Delta":353183865},{"NoteNumber":87,"Velocity":60,"Duration":181816,"SoundDuration":181816,"Delta":353364241},{"NoteNumber":92,"Velocity":91,"Duration":181816,"SoundDuration":181816,"Delta":353364241},{"NoteNumber":80,"Velocity":36,"Duration":180301,"SoundDuration":180301,"Delta":353546058},{"NoteNumber":94,"Velocity":69,"Duration":180301,"SoundDuration":180301,"Delta":353546058},{"NoteNumber":92,"Velocity":95,"Duration":180388,"SoundDuration":180388,"Delta":353726359},{"NoteNumber":87,"Velocity":63,"Duration":180388,"SoundDuration":180388,"Delta":353726359},{"NoteNumber":27,"Velocity":68,"Duration":722093,"SoundDuration":722093,"Delta":353726359},{"NoteNumber":39,"Velocity":86,"Duration":722093,"SoundDuration":722093,"Delta":353726359},{"NoteNumber":80,"Velocity":37,"Duration":180430,"SoundDuration":180430,"Delta":353906748},{"NoteNumber":94,"Velocity":70,"Duration":180430,"SoundDuration":180430,"Delta":353906748},{"NoteNumber":87,"Velocity":59,"Duration":180777,"SoundDuration":180777,"Delta":354087178},{"NoteNumber":92,"Velocity":90,"Duration":180777,"SoundDuration":180777,"Delta":354087178},{"NoteNumber":80,"Velocity":36,"Duration":180497,"SoundDuration":180497,"Delta":354267955},{"NoteNumber":94,"Velocity":69,"Duration":180497,"SoundDuration":180497,"Delta":354267955},{"NoteNumber":89,"Velocity":96,"Duration":180723,"SoundDuration":180723,"Delta":354448453},{"NoteNumber":87,"Velocity":64,"Duration":180723,"SoundDuration":180723,"Delta":354448453},{"NoteNumber":58,"Velocity":62,"Duration":1274879,"SoundDuration":1274879,"Delta":354448453},{"NoteNumber":63,"Velocity":62,"Duration":1274879,"SoundDuration":1274879,"Delta":354448453},{"NoteNumber":65,"Velocity":62,"Duration":1274879,"SoundDuration":1274879,"Delta":354448453},{"NoteNumber":70,"Velocity":87,"Duration":1274879,"SoundDuration":1274879,"Delta":354448453},{"NoteNumber":80,"Velocity":37,"Duration":181177,"SoundDuration":181177,"Delta":354629176},{"NoteNumber":94,"Velocity":72,"Duration":181177,"SoundDuration":181177,"Delta":354629176},{"NoteNumber":87,"Velocity":63,"Duration":181635,"SoundDuration":181635,"Delta":354810354},{"NoteNumber":89,"Velocity":95,"Duration":181635,"SoundDuration":181635,"Delta":354810354},{"NoteNumber":80,"Velocity":37,"Duration":182094,"SoundDuration":182094,"Delta":354991989},{"NoteNumber":94,"Velocity":71,"Duration":182094,"SoundDuration":182094,"Delta":354991989},{"NoteNumber":89,"Velocity":99,"Duration":182556,"SoundDuration":182556,"Delta":355174083},{"NoteNumber":87,"Velocity":65,"Duration":182556,"SoundDuration":182556,"Delta":355174083},{"NoteNumber":27,"Velocity":70,"Duration":733298,"SoundDuration":733298,"Delta":355174083},{"NoteNumber":39,"Velocity":89,"Duration":733298,"SoundDuration":733298,"Delta":355174083},{"NoteNumber":80,"Velocity":37,"Duration":183113,"SoundDuration":183113,"Delta":355356640},{"NoteNumber":94,"Velocity":72,"Duration":183113,"SoundDuration":183113,"Delta":355356640},{"NoteNumber":87,"Velocity":84,"Duration":183579,"SoundDuration":183579,"Delta":355539753},{"NoteNumber":89,"Velocity":94,"Duration":183579,"SoundDuration":183579,"Delta":355539753},{"NoteNumber":80,"Velocity":37,"Duration":184049,"SoundDuration":184049,"Delta":355723333},{"NoteNumber":94,"Velocity":71,"Duration":184049,"SoundDuration":184049,"Delta":355723333},{"NoteNumber":89,"Velocity":100,"Duration":184615,"SoundDuration":184615,"Delta":355907382},{"NoteNumber":87,"Velocity":66,"Duration":184615,"SoundDuration":184615,"Delta":355907382},{"NoteNumber":58,"Velocity":64,"Duration":1302750,"SoundDuration":1302750,"Delta":355907382},{"NoteNumber":63,"Velocity":64,"Duration":1302750,"SoundDuration":1302750,"Delta":355907382},{"NoteNumber":65,"Velocity":64,"Duration":1302750,"SoundDuration":1302750,"Delta":355907382},{"NoteNumber":70,"Velocity":90,"Duration":1302750,"SoundDuration":1302750,"Delta":355907382},{"NoteNumber":80,"Velocity":40,"Duration":185090,"SoundDuration":185090,"Delta":356091997},{"NoteNumber":94,"Velocity":75,"Duration":185090,"SoundDuration":185090,"Delta":356091997},{"NoteNumber":87,"Velocity":66,"Duration":185567,"SoundDuration":185567,"Delta":356277087},{"NoteNumber":89,"Velocity":99,"Duration":185567,"SoundDuration":185567,"Delta":356277087},{"NoteNumber":80,"Velocity":39,"Duration":186143,"SoundDuration":186143,"Delta":356462655},{"NoteNumber":94,"Velocity":73,"Duration":186143,"SoundDuration":186143,"Delta":356462655},{"NoteNumber":89,"Velocity":103,"Duration":186625,"SoundDuration":186625,"Delta":356648798},{"NoteNumber":87,"Velocity":67,"Duration":186625,"SoundDuration":186625,"Delta":356648798},{"NoteNumber":27,"Velocity":72,"Duration":769037,"SoundDuration":769037,"Delta":356648798},{"NoteNumber":39,"Velocity":91,"Duration":769037,"SoundDuration":769037,"Delta":356648798},{"NoteNumber":80,"Velocity":40,"Duration":187110,"SoundDuration":187110,"Delta":356835424},{"NoteNumber":94,"Velocity":75,"Duration":187110,"SoundDuration":187110,"Delta":356835424},{"NoteNumber":87,"Velocity":65,"Duration":187597,"SoundDuration":187597,"Delta":357022534},{"NoteNumber":89,"Velocity":97,"Duration":187597,"SoundDuration":187597,"Delta":357022534},{"NoteNumber":80,"Velocity":39,"Duration":207702,"SoundDuration":207702,"Delta":357210132},{"NoteNumber":94,"Velocity":73,"Duration":207702,"SoundDuration":207702,"Delta":357210132},{"NoteNumber":92,"Velocity":68,"Duration":90643,"SoundDuration":90643,"Delta":357416320},{"NoteNumber":104,"Velocity":85,"Duration":90639,"SoundDuration":90639,"Delta":357417835},{"NoteNumber":103,"Velocity":80,"Duration":90745,"SoundDuration":90745,"Delta":357508474},{"NoteNumber":91,"Velocity":60,"Duration":90745,"SoundDuration":90745,"Delta":357508474},{"NoteNumber":101,"Velocity":85,"Duration":91047,"SoundDuration":91047,"Delta":357599220},{"NoteNumber":89,"Velocity":64,"Duration":91082,"SoundDuration":91082,"Delta":357601470},{"NoteNumber":87,"Velocity":59,"Duration":90302,"SoundDuration":90302,"Delta":357688744},{"NoteNumber":99,"Velocity":78,"Duration":90293,"SoundDuration":90293,"Delta":357690268},{"NoteNumber":98,"Velocity":83,"Duration":90185,"SoundDuration":90185,"Delta":357780561},{"NoteNumber":86,"Velocity":63,"Duration":90171,"SoundDuration":90171,"Delta":357781319},{"NoteNumber":96,"Velocity":77,"Duration":90452,"SoundDuration":90452,"Delta":357870747},{"NoteNumber":84,"Velocity":57,"Duration":90454,"SoundDuration":90454,"Delta":357871491},{"NoteNumber":94,"Velocity":83,"Duration":90315,"SoundDuration":90315,"Delta":357961199},{"NoteNumber":82,"Velocity":63,"Duration":90315,"SoundDuration":90315,"Delta":357961199},{"NoteNumber":80,"Velocity":57,"Duration":89674,"SoundDuration":89674,"Delta":358049999},{"NoteNumber":92,"Velocity":76,"Duration":89634,"SoundDuration":89634,"Delta":358051514},{"NoteNumber":91,"Velocity":82,"Duration":89296,"SoundDuration":89296,"Delta":358141149},{"NoteNumber":79,"Velocity":63,"Duration":89325,"SoundDuration":89325,"Delta":358143359},{"NoteNumber":89,"Velocity":79,"Duration":88729,"SoundDuration":88729,"Delta":358230446},{"NoteNumber":77,"Velocity":57,"Duration":88700,"SoundDuration":88700,"Delta":358232684},{"NoteNumber":87,"Velocity":81,"Duration":89727,"SoundDuration":89727,"Delta":358319175},{"NoteNumber":75,"Velocity":63,"Duration":89735,"SoundDuration":89735,"Delta":358319910},{"NoteNumber":86,"Velocity":76,"Duration":88340,"SoundDuration":88340,"Delta":358408902},{"NoteNumber":74,"Velocity":56,"Duration":88340,"SoundDuration":88340,"Delta":358408902},{"NoteNumber":84,"Velocity":81,"Duration":88964,"SoundDuration":88964,"Delta":358497243},{"NoteNumber":72,"Velocity":62,"Duration":88964,"SoundDuration":88964,"Delta":358497243},{"NoteNumber":82,"Velocity":76,"Duration":88246,"SoundDuration":88246,"Delta":358586207},{"NoteNumber":70,"Velocity":54,"Duration":88246,"SoundDuration":88246,"Delta":358586207},{"NoteNumber":80,"Velocity":80,"Duration":88331,"SoundDuration":88331,"Delta":358674454},{"NoteNumber":68,"Velocity":62,"Duration":88283,"SoundDuration":88283,"Delta":358676679},{"NoteNumber":67,"Velocity":54,"Duration":87606,"SoundDuration":87606,"Delta":358762058},{"NoteNumber":79,"Velocity":75,"Duration":87616,"SoundDuration":87616,"Delta":358762785},{"NoteNumber":77,"Velocity":79,"Duration":87972,"SoundDuration":87972,"Delta":358850402},{"NoteNumber":65,"Velocity":61,"Duration":87972,"SoundDuration":87972,"Delta":358850402},{"NoteNumber":63,"Velocity":54,"Duration":87690,"SoundDuration":87690,"Delta":358937649},{"NoteNumber":75,"Velocity":73,"Duration":87700,"SoundDuration":87700,"Delta":358938374},{"NoteNumber":74,"Velocity":79,"Duration":87240,"SoundDuration":87240,"Delta":359026075},{"NoteNumber":62,"Velocity":61,"Duration":87223,"SoundDuration":87223,"Delta":359028279},{"NoteNumber":60,"Velocity":54,"Duration":86778,"SoundDuration":86778,"Delta":359112587},{"NoteNumber":72,"Velocity":75,"Duration":86763,"SoundDuration":86763,"Delta":359113315},{"NoteNumber":70,"Velocity":79,"Duration":86434,"SoundDuration":86434,"Delta":359200079},{"NoteNumber":58,"Velocity":61,"Duration":86459,"SoundDuration":86459,"Delta":359201508},{"NoteNumber":68,"Velocity":73,"Duration":86646,"SoundDuration":86646,"Delta":359286514},{"NoteNumber":56,"Velocity":54,"Duration":86635,"SoundDuration":86635,"Delta":359287241},{"NoteNumber":55,"Velocity":61,"Duration":86470,"SoundDuration":86470,"Delta":359372444},{"NoteNumber":67,"Velocity":79,"Duration":86477,"SoundDuration":86477,"Delta":359373160},{"NoteNumber":65,"Velocity":72,"Duration":85667,"SoundDuration":85667,"Delta":359459637},{"NoteNumber":53,"Velocity":54,"Duration":85651,"SoundDuration":85651,"Delta":359461083},{"NoteNumber":63,"Velocity":79,"Duration":86610,"SoundDuration":86610,"Delta":359545305},{"NoteNumber":51,"Velocity":61,"Duration":86622,"SoundDuration":86622,"Delta":359547452},{"NoteNumber":62,"Velocity":73,"Duration":85736,"SoundDuration":85736,"Delta":359631916},{"NoteNumber":50,"Velocity":54,"Duration":85736,"SoundDuration":85736,"Delta":359631916},{"NoteNumber":60,"Velocity":78,"Duration":86002,"SoundDuration":86002,"Delta":359717652},{"NoteNumber":48,"Velocity":61,"Duration":86010,"SoundDuration":86010,"Delta":359718362},{"NoteNumber":58,"Velocity":73,"Duration":85297,"SoundDuration":85297,"Delta":359803654},{"NoteNumber":46,"Velocity":54,"Duration":85267,"SoundDuration":85267,"Delta":359805810},{"NoteNumber":44,"Velocity":57,"Duration":85203,"SoundDuration":85203,"Delta":359887536},{"NoteNumber":56,"Velocity":77,"Duration":85215,"SoundDuration":85215,"Delta":359888952},{"NoteNumber":55,"Velocity":72,"Duration":85221,"SoundDuration":85221,"Delta":359974168},{"NoteNumber":43,"Velocity":53,"Duration":85203,"SoundDuration":85203,"Delta":359976311},{"NoteNumber":53,"Velocity":79,"Duration":85105,"SoundDuration":85105,"Delta":360059389},{"NoteNumber":41,"Velocity":59,"Duration":85099,"SoundDuration":85099,"Delta":360060096},{"NoteNumber":39,"Velocity":59,"Duration":84573,"SoundDuration":84573,"Delta":360143095},{"NoteNumber":51,"Velocity":73,"Duration":84593,"SoundDuration":84593,"Delta":360144495},{"NoteNumber":50,"Velocity":78,"Duration":84509,"SoundDuration":84509,"Delta":360229088},{"NoteNumber":38,"Velocity":61,"Duration":84497,"SoundDuration":84497,"Delta":360229799},{"NoteNumber":48,"Velocity":73,"Duration":83967,"SoundDuration":83967,"Delta":360313598},{"NoteNumber":36,"Velocity":54,"Duration":83973,"SoundDuration":83973,"Delta":360314296},{"NoteNumber":46,"Velocity":79,"Duration":84263,"SoundDuration":84263,"Delta":360397566},{"NoteNumber":34,"Velocity":62,"Duration":84256,"SoundDuration":84256,"Delta":360398270},{"NoteNumber":32,"Velocity":57,"Duration":82849,"SoundDuration":82849,"Delta":360481133},{"NoteNumber":44,"Velocity":75,"Duration":82839,"SoundDuration":82839,"Delta":360481830},{"NoteNumber":43,"Velocity":80,"Duration":83028,"SoundDuration":83028,"Delta":360564669},{"NoteNumber":31,"Velocity":63,"Duration":83066,"SoundDuration":83066,"Delta":360566730},{"NoteNumber":29,"Velocity":54,"Duration":83396,"SoundDuration":83396,"Delta":360646297},{"NoteNumber":41,"Velocity":76,"Duration":83380,"SoundDuration":83380,"Delta":360647697},{"NoteNumber":27,"Velocity":63,"Duration":84743,"SoundDuration":84743,"Delta":360729693},{"NoteNumber":39,"Velocity":82,"Duration":84766,"SoundDuration":84766,"Delta":360731078},{"NoteNumber":38,"Velocity":76,"Duration":83949,"SoundDuration":83949,"Delta":360815845},{"NoteNumber":26,"Velocity":63,"Duration":83957,"SoundDuration":83957,"Delta":360817253},{"NoteNumber":24,"Velocity":57,"Duration":85452,"SoundDuration":85452,"Delta":360899087},{"NoteNumber":36,"Velocity":83,"Duration":85450,"SoundDuration":85450,"Delta":360899795},{"NoteNumber":34,"Velocity":78,"Duration":84804,"SoundDuration":84804,"Delta":360985246},{"NoteNumber":32,"Velocity":85,"Duration":85911,"SoundDuration":85911,"Delta":361070050},{"NoteNumber":31,"Velocity":78,"Duration":86294,"SoundDuration":86294,"Delta":361155961},{"NoteNumber":29,"Velocity":86,"Duration":86630,"SoundDuration":86630,"Delta":361242255},{"NoteNumber":27,"Velocity":81,"Duration":87655,"SoundDuration":87655,"Delta":361328885},{"NoteNumber":26,"Velocity":87,"Duration":87976,"SoundDuration":87976,"Delta":361416541},{"NoteNumber":24,"Velocity":83,"Duration":1428571,"SoundDuration":1428571,"Delta":361504518},{"NoteNumber":87,"Velocity":102,"Duration":356179,"SoundDuration":356179,"Delta":363361661},{"NoteNumber":82,"Velocity":100,"Duration":356179,"SoundDuration":356179,"Delta":363361661},{"NoteNumber":79,"Velocity":85,"Duration":356179,"SoundDuration":356179,"Delta":363361661},{"NoteNumber":75,"Velocity":85,"Duration":356179,"SoundDuration":356179,"Delta":363361661},{"NoteNumber":31,"Velocity":65,"Duration":356179,"SoundDuration":356179,"Delta":363361661},{"NoteNumber":34,"Velocity":65,"Duration":356179,"SoundDuration":356179,"Delta":363361661},{"NoteNumber":39,"Velocity":80,"Duration":356179,"SoundDuration":356179,"Delta":363361661},{"NoteNumber":43,"Velocity":80,"Duration":356179,"SoundDuration":356179,"Delta":363361661},{"NoteNumber":63,"Velocity":79,"Duration":322832,"SoundDuration":322832,"Delta":363721212},{"NoteNumber":58,"Velocity":66,"Duration":322832,"SoundDuration":322832,"Delta":363721212},{"NoteNumber":51,"Velocity":64,"Duration":322832,"SoundDuration":322832,"Delta":363721212},{"NoteNumber":55,"Velocity":73,"Duration":322832,"SoundDuration":322832,"Delta":363721212},{"NoteNumber":87,"Velocity":89,"Duration":314508,"SoundDuration":314508,"Delta":364047105},{"NoteNumber":82,"Velocity":89,"Duration":314508,"SoundDuration":314508,"Delta":364047105},{"NoteNumber":79,"Velocity":73,"Duration":314508,"SoundDuration":314508,"Delta":364047105},{"NoteNumber":75,"Velocity":73,"Duration":314508,"SoundDuration":314508,"Delta":364047105},{"NoteNumber":31,"Velocity":69,"Duration":314508,"SoundDuration":314508,"Delta":364047105},{"NoteNumber":43,"Velocity":82,"Duration":314508,"SoundDuration":314508,"Delta":364047105},{"NoteNumber":63,"Velocity":71,"Duration":321555,"SoundDuration":321555,"Delta":364364591},{"NoteNumber":58,"Velocity":59,"Duration":321555,"SoundDuration":321555,"Delta":364364591},{"NoteNumber":51,"Velocity":53,"Duration":321555,"SoundDuration":321555,"Delta":364364591},{"NoteNumber":55,"Velocity":65,"Duration":321555,"SoundDuration":321555,"Delta":364364591},{"NoteNumber":87,"Velocity":90,"Duration":317636,"SoundDuration":317636,"Delta":364689233},{"NoteNumber":82,"Velocity":90,"Duration":317636,"SoundDuration":317636,"Delta":364689233},{"NoteNumber":79,"Velocity":73,"Duration":317636,"SoundDuration":317636,"Delta":364689233},{"NoteNumber":75,"Velocity":73,"Duration":317636,"SoundDuration":317636,"Delta":364689233},{"NoteNumber":31,"Velocity":66,"Duration":317636,"SoundDuration":317636,"Delta":364689233},{"NoteNumber":34,"Velocity":66,"Duration":317636,"SoundDuration":317636,"Delta":364689233},{"NoteNumber":39,"Velocity":79,"Duration":317636,"SoundDuration":317636,"Delta":364689233},{"NoteNumber":43,"Velocity":79,"Duration":317636,"SoundDuration":317636,"Delta":364689233},{"NoteNumber":63,"Velocity":70,"Duration":353455,"SoundDuration":353455,"Delta":365009906},{"NoteNumber":58,"Velocity":57,"Duration":353455,"SoundDuration":353455,"Delta":365009906},{"NoteNumber":51,"Velocity":54,"Duration":353455,"SoundDuration":353455,"Delta":365009906},{"NoteNumber":55,"Velocity":67,"Duration":353455,"SoundDuration":353455,"Delta":365009906},{"NoteNumber":89,"Velocity":98,"Duration":316647,"SoundDuration":316647,"Delta":365366694},{"NoteNumber":86,"Velocity":98,"Duration":316647,"SoundDuration":316647,"Delta":365366694},{"NoteNumber":82,"Velocity":84,"Duration":316647,"SoundDuration":316647,"Delta":365366694},{"NoteNumber":77,"Velocity":84,"Duration":316647,"SoundDuration":316647,"Delta":365366694},{"NoteNumber":29,"Velocity":63,"Duration":316647,"SoundDuration":316647,"Delta":365366694},{"NoteNumber":34,"Velocity":63,"Duration":316647,"SoundDuration":316647,"Delta":365366694},{"NoteNumber":38,"Velocity":63,"Duration":316647,"SoundDuration":316647,"Delta":365366694},{"NoteNumber":41,"Velocity":78,"Duration":316647,"SoundDuration":316647,"Delta":365366694},{"NoteNumber":65,"Velocity":72,"Duration":318298,"SoundDuration":318298,"Delta":365686403},{"NoteNumber":62,"Velocity":62,"Duration":318298,"SoundDuration":318298,"Delta":365686403},{"NoteNumber":58,"Velocity":63,"Duration":318298,"SoundDuration":318298,"Delta":365686403},{"NoteNumber":50,"Velocity":50,"Duration":318298,"SoundDuration":318298,"Delta":365686403},{"NoteNumber":53,"Velocity":50,"Duration":318298,"SoundDuration":318298,"Delta":365686403},{"NoteNumber":89,"Velocity":89,"Duration":304831,"SoundDuration":304831,"Delta":366007714},{"NoteNumber":86,"Velocity":89,"Duration":304831,"SoundDuration":304831,"Delta":366007714},{"NoteNumber":82,"Velocity":72,"Duration":304831,"SoundDuration":304831,"Delta":366007714},{"NoteNumber":77,"Velocity":72,"Duration":304831,"SoundDuration":304831,"Delta":366007714},{"NoteNumber":29,"Velocity":61,"Duration":304831,"SoundDuration":304831,"Delta":366007714},{"NoteNumber":41,"Velocity":72,"Duration":304831,"SoundDuration":304831,"Delta":366007714},{"NoteNumber":65,"Velocity":71,"Duration":315762,"SoundDuration":315762,"Delta":366315430},{"NoteNumber":62,"Velocity":59,"Duration":315762,"SoundDuration":315762,"Delta":366315430},{"NoteNumber":58,"Velocity":65,"Duration":315762,"SoundDuration":315762,"Delta":366315430},{"NoteNumber":50,"Velocity":52,"Duration":315762,"SoundDuration":315762,"Delta":366315430},{"NoteNumber":53,"Velocity":65,"Duration":315762,"SoundDuration":315762,"Delta":366315430},{"NoteNumber":89,"Velocity":88,"Duration":310784,"SoundDuration":310784,"Delta":366634181},{"NoteNumber":86,"Velocity":88,"Duration":310784,"SoundDuration":310784,"Delta":366634181},{"NoteNumber":82,"Velocity":72,"Duration":310784,"SoundDuration":310784,"Delta":366634181},{"NoteNumber":77,"Velocity":72,"Duration":310784,"SoundDuration":310784,"Delta":366634181},{"NoteNumber":29,"Velocity":59,"Duration":310784,"SoundDuration":310784,"Delta":366634181},{"NoteNumber":34,"Velocity":59,"Duration":310784,"SoundDuration":310784,"Delta":366634181},{"NoteNumber":38,"Velocity":70,"Duration":310784,"SoundDuration":310784,"Delta":366634181},{"NoteNumber":41,"Velocity":70,"Duration":310784,"SoundDuration":310784,"Delta":366634181},{"NoteNumber":65,"Velocity":70,"Duration":346099,"SoundDuration":346099,"Delta":366947906},{"NoteNumber":62,"Velocity":58,"Duration":346099,"SoundDuration":346099,"Delta":366947906},{"NoteNumber":58,"Velocity":65,"Duration":346099,"SoundDuration":346099,"Delta":366947906},{"NoteNumber":50,"Velocity":54,"Duration":346099,"SoundDuration":346099,"Delta":366947906},{"NoteNumber":53,"Velocity":54,"Duration":346099,"SoundDuration":346099,"Delta":366947906},{"NoteNumber":91,"Velocity":99,"Duration":337435,"SoundDuration":337435,"Delta":367297281},{"NoteNumber":87,"Velocity":99,"Duration":337435,"SoundDuration":337435,"Delta":367297281},{"NoteNumber":82,"Velocity":84,"Duration":337435,"SoundDuration":337435,"Delta":367297281},{"NoteNumber":79,"Velocity":84,"Duration":337435,"SoundDuration":337435,"Delta":367297281},{"NoteNumber":27,"Velocity":63,"Duration":337435,"SoundDuration":337435,"Delta":367297281},{"NoteNumber":31,"Velocity":63,"Duration":337435,"SoundDuration":337435,"Delta":367297281},{"NoteNumber":34,"Velocity":77,"Duration":337435,"SoundDuration":337435,"Delta":367297281},{"NoteNumber":39,"Velocity":77,"Duration":337435,"SoundDuration":337435,"Delta":367297281},{"NoteNumber":67,"Velocity":68,"Duration":324290,"SoundDuration":324290,"Delta":367637910},{"NoteNumber":75,"Velocity":80,"Duration":324290,"SoundDuration":324290,"Delta":367637910},{"NoteNumber":70,"Velocity":80,"Duration":324290,"SoundDuration":324290,"Delta":367637910},{"NoteNumber":63,"Velocity":69,"Duration":324290,"SoundDuration":324290,"Delta":367637910},{"NoteNumber":55,"Velocity":56,"Duration":324290,"SoundDuration":324290,"Delta":367637910},{"NoteNumber":58,"Velocity":56,"Duration":324290,"SoundDuration":324290,"Delta":367637910},{"NoteNumber":91,"Velocity":92,"Duration":316898,"SoundDuration":316898,"Delta":367965269},{"NoteNumber":87,"Velocity":92,"Duration":316898,"SoundDuration":316898,"Delta":367965269},{"NoteNumber":82,"Velocity":77,"Duration":316898,"SoundDuration":316898,"Delta":367965269},{"NoteNumber":79,"Velocity":77,"Duration":316898,"SoundDuration":316898,"Delta":367965269},{"NoteNumber":27,"Velocity":72,"Duration":316898,"SoundDuration":316898,"Delta":367965269},{"NoteNumber":39,"Velocity":86,"Duration":316898,"SoundDuration":316898,"Delta":367965269},{"NoteNumber":87,"Velocity":91,"Duration":325568,"SoundDuration":325568,"Delta":368285167},{"NoteNumber":84,"Velocity":91,"Duration":325568,"SoundDuration":325568,"Delta":368285167},{"NoteNumber":79,"Velocity":76,"Duration":325568,"SoundDuration":325568,"Delta":368285167},{"NoteNumber":75,"Velocity":76,"Duration":325568,"SoundDuration":325568,"Delta":368285167},{"NoteNumber":48,"Velocity":81,"Duration":325568,"SoundDuration":325568,"Delta":368285167},{"NoteNumber":43,"Velocity":81,"Duration":325568,"SoundDuration":325568,"Delta":368285167},{"NoteNumber":36,"Velocity":69,"Duration":325568,"SoundDuration":325568,"Delta":368285167},{"NoteNumber":39,"Velocity":69,"Duration":325568,"SoundDuration":325568,"Delta":368285167},{"NoteNumber":72,"Velocity":80,"Duration":325568,"SoundDuration":325568,"Delta":368613817},{"NoteNumber":67,"Velocity":68,"Duration":325568,"SoundDuration":325568,"Delta":368613817},{"NoteNumber":63,"Velocity":68,"Duration":325568,"SoundDuration":325568,"Delta":368613817},{"NoteNumber":60,"Velocity":69,"Duration":325568,"SoundDuration":325568,"Delta":368613817},{"NoteNumber":51,"Velocity":56,"Duration":325568,"SoundDuration":325568,"Delta":368613817},{"NoteNumber":55,"Velocity":56,"Duration":325568,"SoundDuration":325568,"Delta":368613817},{"NoteNumber":87,"Velocity":87,"Duration":325568,"SoundDuration":325568,"Delta":368942467},{"NoteNumber":84,"Velocity":72,"Duration":325568,"SoundDuration":325568,"Delta":368942467},{"NoteNumber":91,"Velocity":87,"Duration":325568,"SoundDuration":325568,"Delta":368942467},{"NoteNumber":79,"Velocity":72,"Duration":325568,"SoundDuration":325568,"Delta":368942467},{"NoteNumber":39,"Velocity":56,"Duration":325568,"SoundDuration":325568,"Delta":368942467},{"NoteNumber":51,"Velocity":71,"Duration":325568,"SoundDuration":325568,"Delta":368942467},{"NoteNumber":89,"Velocity":87,"Duration":325568,"SoundDuration":325568,"Delta":369271117},{"NoteNumber":86,"Velocity":87,"Duration":325568,"SoundDuration":325568,"Delta":369271117},{"NoteNumber":82,"Velocity":72,"Duration":325568,"SoundDuration":325568,"Delta":369271117},{"NoteNumber":77,"Velocity":72,"Duration":325568,"SoundDuration":325568,"Delta":369271117},{"NoteNumber":50,"Velocity":76,"Duration":325568,"SoundDuration":325568,"Delta":369271117},{"NoteNumber":46,"Velocity":76,"Duration":325568,"SoundDuration":325568,"Delta":369271117},{"NoteNumber":38,"Velocity":65,"Duration":325568,"SoundDuration":325568,"Delta":369271117},{"NoteNumber":41,"Velocity":65,"Duration":325568,"SoundDuration":325568,"Delta":369271117},{"NoteNumber":58,"Velocity":79,"Duration":315109,"SoundDuration":315109,"Delta":369599767},{"NoteNumber":62,"Velocity":79,"Duration":315109,"SoundDuration":315109,"Delta":369599767},{"NoteNumber":50,"Velocity":63,"Duration":315109,"SoundDuration":315109,"Delta":369599767},{"NoteNumber":53,"Velocity":63,"Duration":315109,"SoundDuration":315109,"Delta":369599767},{"NoteNumber":65,"Velocity":81,"Duration":313899,"SoundDuration":313899,"Delta":369920897},{"NoteNumber":62,"Velocity":81,"Duration":313899,"SoundDuration":313899,"Delta":369920897},{"NoteNumber":53,"Velocity":64,"Duration":313899,"SoundDuration":313899,"Delta":369920897},{"NoteNumber":58,"Velocity":64,"Duration":313899,"SoundDuration":313899,"Delta":369920897},{"NoteNumber":65,"Velocity":83,"Duration":312724,"SoundDuration":312724,"Delta":370240795},{"NoteNumber":70,"Velocity":83,"Duration":312724,"SoundDuration":312724,"Delta":370240795},{"NoteNumber":58,"Velocity":67,"Duration":312724,"SoundDuration":312724,"Delta":370240795},{"NoteNumber":62,"Velocity":67,"Duration":312724,"SoundDuration":312724,"Delta":370240795},{"NoteNumber":74,"Velocity":87,"Duration":311532,"SoundDuration":311532,"Delta":370559495},{"NoteNumber":70,"Velocity":87,"Duration":311532,"SoundDuration":311532,"Delta":370559495},{"NoteNumber":65,"Velocity":68,"Duration":311532,"SoundDuration":311532,"Delta":370559495},{"NoteNumber":62,"Velocity":68,"Duration":311532,"SoundDuration":311532,"Delta":370559495},{"NoteNumber":74,"Velocity":90,"Duration":310247,"SoundDuration":310247,"Delta":370876980},{"NoteNumber":77,"Velocity":90,"Duration":310247,"SoundDuration":310247,"Delta":370876980},{"NoteNumber":65,"Velocity":70,"Duration":310247,"SoundDuration":310247,"Delta":370876980},{"NoteNumber":70,"Velocity":70,"Duration":310247,"SoundDuration":310247,"Delta":370876980},{"NoteNumber":67,"Velocity":80,"Duration":495576,"SoundDuration":495576,"Delta":371193136},{"NoteNumber":75,"Velocity":95,"Duration":495576,"SoundDuration":495576,"Delta":371193136},{"NoteNumber":79,"Velocity":95,"Duration":495576,"SoundDuration":495576,"Delta":371193136},{"NoteNumber":39,"Velocity":65,"Duration":495576,"SoundDuration":495576,"Delta":371193136},{"NoteNumber":46,"Velocity":77,"Duration":495576,"SoundDuration":495576,"Delta":371193136},{"NoteNumber":51,"Velocity":77,"Duration":495576,"SoundDuration":495576,"Delta":371193136},{"NoteNumber":70,"Velocity":75,"Duration":495576,"SoundDuration":495576,"Delta":371693929},{"NoteNumber":75,"Velocity":90,"Duration":495576,"SoundDuration":495576,"Delta":371693929},{"NoteNumber":82,"Velocity":90,"Duration":495576,"SoundDuration":495576,"Delta":371693929},{"NoteNumber":43,"Velocity":57,"Duration":495576,"SoundDuration":495576,"Delta":371693929},{"NoteNumber":51,"Velocity":70,"Duration":495576,"SoundDuration":495576,"Delta":371693929},{"NoteNumber":55,"Velocity":70,"Duration":495576,"SoundDuration":495576,"Delta":371693929},{"NoteNumber":65,"Velocity":73,"Duration":487839,"SoundDuration":487839,"Delta":372194722},{"NoteNumber":70,"Velocity":89,"Duration":487839,"SoundDuration":487839,"Delta":372194722},{"NoteNumber":77,"Velocity":89,"Duration":487839,"SoundDuration":487839,"Delta":372194722},{"NoteNumber":38,"Velocity":54,"Duration":487839,"SoundDuration":487839,"Delta":372194722},{"NoteNumber":50,"Velocity":66,"Duration":487839,"SoundDuration":487839,"Delta":372194722},{"NoteNumber":43,"Velocity":66,"Duration":487839,"SoundDuration":487839,"Delta":372194722},{"NoteNumber":63,"Velocity":72,"Duration":495576,"SoundDuration":495576,"Delta":372687697},{"NoteNumber":70,"Velocity":85,"Duration":495576,"SoundDuration":495576,"Delta":372687697},{"NoteNumber":75,"Velocity":85,"Duration":495576,"SoundDuration":495576,"Delta":372687697},{"NoteNumber":36,"Velocity":51,"Duration":495576,"SoundDuration":495576,"Delta":372687697},{"NoteNumber":43,"Velocity":72,"Duration":495576,"SoundDuration":495576,"Delta":372687697},{"NoteNumber":48,"Velocity":72,"Duration":495576,"SoundDuration":495576,"Delta":372687697},{"NoteNumber":74,"Velocity":87,"Duration":330732,"SoundDuration":330732,"Delta":373188490},{"NoteNumber":70,"Velocity":87,"Duration":330732,"SoundDuration":330732,"Delta":373188490},{"NoteNumber":62,"Velocity":72,"Duration":330732,"SoundDuration":330732,"Delta":373188490},{"NoteNumber":46,"Velocity":75,"Duration":330732,"SoundDuration":330732,"Delta":373188490},{"NoteNumber":34,"Velocity":65,"Duration":330732,"SoundDuration":330732,"Delta":373188490},{"NoteNumber":43,"Velocity":75,"Duration":330732,"SoundDuration":330732,"Delta":373188490},{"NoteNumber":58,"Velocity":79,"Duration":318120,"SoundDuration":318120,"Delta":373522352},{"NoteNumber":62,"Velocity":79,"Duration":318120,"SoundDuration":318120,"Delta":373522352},{"NoteNumber":50,"Velocity":63,"Duration":318120,"SoundDuration":318120,"Delta":373522352},{"NoteNumber":53,"Velocity":63,"Duration":318120,"SoundDuration":318120,"Delta":373522352},{"NoteNumber":65,"Velocity":81,"Duration":313899,"SoundDuration":313899,"Delta":373843483},{"NoteNumber":62,"Velocity":81,"Duration":313899,"SoundDuration":313899,"Delta":373843483},{"NoteNumber":53,"Velocity":64,"Duration":313899,"SoundDuration":313899,"Delta":373843483},{"NoteNumber":58,"Velocity":64,"Duration":313899,"SoundDuration":313899,"Delta":373843483},{"NoteNumber":65,"Velocity":83,"Duration":312724,"SoundDuration":312724,"Delta":374163380},{"NoteNumber":70,"Velocity":83,"Duration":312724,"SoundDuration":312724,"Delta":374163380},{"NoteNumber":58,"Velocity":67,"Duration":312724,"SoundDuration":312724,"Delta":374163380},{"NoteNumber":62,"Velocity":67,"Duration":312724,"SoundDuration":312724,"Delta":374163380},{"NoteNumber":74,"Velocity":87,"Duration":311532,"SoundDuration":311532,"Delta":374482080},{"NoteNumber":70,"Velocity":87,"Duration":311532,"SoundDuration":311532,"Delta":374482080},{"NoteNumber":65,"Velocity":68,"Duration":311532,"SoundDuration":311532,"Delta":374482080},{"NoteNumber":62,"Velocity":68,"Duration":311532,"SoundDuration":311532,"Delta":374482080},{"NoteNumber":74,"Velocity":90,"Duration":310247,"SoundDuration":310247,"Delta":374799565},{"NoteNumber":77,"Velocity":90,"Duration":310247,"SoundDuration":310247,"Delta":374799565},{"NoteNumber":65,"Velocity":70,"Duration":310247,"SoundDuration":310247,"Delta":374799565},{"NoteNumber":70,"Velocity":70,"Duration":310247,"SoundDuration":310247,"Delta":374799565},{"NoteNumber":67,"Velocity":80,"Duration":495576,"SoundDuration":495576,"Delta":375115721},{"NoteNumber":75,"Velocity":95,"Duration":495576,"SoundDuration":495576,"Delta":375115721},{"NoteNumber":79,"Velocity":95,"Duration":495576,"SoundDuration":495576,"Delta":375115721},{"NoteNumber":39,"Velocity":65,"Duration":495576,"SoundDuration":495576,"Delta":375115721},{"NoteNumber":46,"Velocity":77,"Duration":495576,"SoundDuration":495576,"Delta":375115721},{"NoteNumber":51,"Velocity":77,"Duration":495576,"SoundDuration":495576,"Delta":375115721},{"NoteNumber":70,"Velocity":75,"Duration":495576,"SoundDuration":495576,"Delta":375616514},{"NoteNumber":75,"Velocity":90,"Duration":495576,"SoundDuration":495576,"Delta":375616514},{"NoteNumber":82,"Velocity":90,"Duration":495576,"SoundDuration":495576,"Delta":375616514},{"NoteNumber":43,"Velocity":57,"Duration":495576,"SoundDuration":495576,"Delta":375616514},{"NoteNumber":51,"Velocity":70,"Duration":495576,"SoundDuration":495576,"Delta":375616514},{"NoteNumber":55,"Velocity":70,"Duration":495576,"SoundDuration":495576,"Delta":375616514},{"NoteNumber":65,"Velocity":73,"Duration":487839,"SoundDuration":487839,"Delta":376117307},{"NoteNumber":70,"Velocity":89,"Duration":487839,"SoundDuration":487839,"Delta":376117307},{"NoteNumber":77,"Velocity":89,"Duration":487839,"SoundDuration":487839,"Delta":376117307},{"NoteNumber":38,"Velocity":54,"Duration":487839,"SoundDuration":487839,"Delta":376117307},{"NoteNumber":50,"Velocity":66,"Duration":487839,"SoundDuration":487839,"Delta":376117307},{"NoteNumber":43,"Velocity":66,"Duration":487839,"SoundDuration":487839,"Delta":376117307},{"NoteNumber":63,"Velocity":61,"Duration":495576,"SoundDuration":495576,"Delta":376610282},{"NoteNumber":70,"Velocity":85,"Duration":495576,"SoundDuration":495576,"Delta":376610282},{"NoteNumber":75,"Velocity":85,"Duration":495576,"SoundDuration":495576,"Delta":376610282},{"NoteNumber":36,"Velocity":51,"Duration":495576,"SoundDuration":495576,"Delta":376610282},{"NoteNumber":43,"Velocity":72,"Duration":495576,"SoundDuration":495576,"Delta":376610282},{"NoteNumber":48,"Velocity":72,"Duration":495576,"SoundDuration":495576,"Delta":376610282},{"NoteNumber":74,"Velocity":87,"Duration":330732,"SoundDuration":330732,"Delta":377111075},{"NoteNumber":70,"Velocity":87,"Duration":330732,"SoundDuration":330732,"Delta":377111075},{"NoteNumber":62,"Velocity":72,"Duration":330732,"SoundDuration":330732,"Delta":377111075},{"NoteNumber":46,"Velocity":75,"Duration":330732,"SoundDuration":330732,"Delta":377111075},{"NoteNumber":34,"Velocity":65,"Duration":330732,"SoundDuration":330732,"Delta":377111075},{"NoteNumber":43,"Velocity":75,"Duration":330732,"SoundDuration":330732,"Delta":377111075},{"NoteNumber":58,"Velocity":79,"Duration":315109,"SoundDuration":315109,"Delta":377444937},{"NoteNumber":62,"Velocity":79,"Duration":315109,"SoundDuration":315109,"Delta":377444937},{"NoteNumber":50,"Velocity":63,"Duration":315109,"SoundDuration":315109,"Delta":377444937},{"NoteNumber":55,"Velocity":63,"Duration":315109,"SoundDuration":315109,"Delta":377444937},{"NoteNumber":67,"Velocity":81,"Duration":313899,"SoundDuration":313899,"Delta":377766068},{"NoteNumber":62,"Velocity":81,"Duration":313899,"SoundDuration":313899,"Delta":377766068},{"NoteNumber":55,"Velocity":64,"Duration":313899,"SoundDuration":313899,"Delta":377766068},{"NoteNumber":58,"Velocity":64,"Duration":313899,"SoundDuration":313899,"Delta":377766068},{"NoteNumber":68,"Velocity":83,"Duration":312724,"SoundDuration":312724,"Delta":378085965},{"NoteNumber":65,"Velocity":70,"Duration":312724,"SoundDuration":312724,"Delta":378085965},{"NoteNumber":70,"Velocity":83,"Duration":312724,"SoundDuration":312724,"Delta":378085965},{"NoteNumber":56,"Velocity":54,"Duration":312724,"SoundDuration":312724,"Delta":378085965},{"NoteNumber":58,"Velocity":67,"Duration":312724,"SoundDuration":312724,"Delta":378085965},{"NoteNumber":62,"Velocity":67,"Duration":312724,"SoundDuration":312724,"Delta":378085965},{"NoteNumber":68,"Velocity":83,"Duration":311532,"SoundDuration":311532,"Delta":378404665},{"NoteNumber":74,"Velocity":87,"Duration":311532,"SoundDuration":311532,"Delta":378404665},{"NoteNumber":70,"Velocity":87,"Duration":311532,"SoundDuration":311532,"Delta":378404665},{"NoteNumber":58,"Velocity":54,"Duration":311532,"SoundDuration":311532,"Delta":378404665},{"NoteNumber":65,"Velocity":68,"Duration":311532,"SoundDuration":311532,"Delta":378404665},{"NoteNumber":62,"Velocity":68,"Duration":311532,"SoundDuration":311532,"Delta":378404665},{"NoteNumber":70,"Velocity":83,"Duration":310247,"SoundDuration":310247,"Delta":378722150},{"NoteNumber":74,"Velocity":90,"Duration":310247,"SoundDuration":310247,"Delta":378722150},{"NoteNumber":77,"Velocity":90,"Duration":310247,"SoundDuration":310247,"Delta":378722150},{"NoteNumber":62,"Velocity":54,"Duration":310247,"SoundDuration":310247,"Delta":378722150},{"NoteNumber":65,"Velocity":70,"Duration":310247,"SoundDuration":310247,"Delta":378722150},{"NoteNumber":68,"Velocity":70,"Duration":310247,"SoundDuration":310247,"Delta":378722150},{"NoteNumber":87,"Velocity":91,"Duration":319324,"SoundDuration":319324,"Delta":379038306},{"NoteNumber":80,"Velocity":91,"Duration":319324,"SoundDuration":319324,"Delta":379038306},{"NoteNumber":75,"Velocity":76,"Duration":319324,"SoundDuration":319324,"Delta":379038306},{"NoteNumber":72,"Velocity":81,"Duration":319324,"SoundDuration":319324,"Delta":379038306},{"NoteNumber":68,"Velocity":81,"Duration":319324,"SoundDuration":319324,"Delta":379038306},{"NoteNumber":60,"Velocity":69,"Duration":319324,"SoundDuration":319324,"Delta":379038306},{"NoteNumber":63,"Velocity":72,"Duration":319324,"SoundDuration":319324,"Delta":379360653},{"NoteNumber":56,"Velocity":72,"Duration":319324,"SoundDuration":319324,"Delta":379360653},{"NoteNumber":51,"Velocity":62,"Duration":319324,"SoundDuration":319324,"Delta":379360653},{"NoteNumber":48,"Velocity":57,"Duration":319324,"SoundDuration":319324,"Delta":379360653},{"NoteNumber":36,"Velocity":48,"Duration":319324,"SoundDuration":319324,"Delta":379360653},{"NoteNumber":44,"Velocity":57,"Duration":319324,"SoundDuration":319324,"Delta":379360653},{"NoteNumber":87,"Velocity":86,"Duration":330732,"SoundDuration":330732,"Delta":379683000},{"NoteNumber":80,"Velocity":86,"Duration":330732,"SoundDuration":330732,"Delta":379683000},{"NoteNumber":75,"Velocity":72,"Duration":330732,"SoundDuration":330732,"Delta":379683000},{"NoteNumber":56,"Velocity":70,"Duration":330732,"SoundDuration":330732,"Delta":379683000},{"NoteNumber":48,"Velocity":57,"Duration":330732,"SoundDuration":330732,"Delta":379683000},{"NoteNumber":60,"Velocity":70,"Duration":330732,"SoundDuration":330732,"Delta":379683000},{"NoteNumber":86,"Velocity":91,"Duration":487839,"SoundDuration":487839,"Delta":380016862},{"NoteNumber":80,"Velocity":91,"Duration":487839,"SoundDuration":487839,"Delta":380016862},{"NoteNumber":74,"Velocity":76,"Duration":487839,"SoundDuration":487839,"Delta":380016862},{"NoteNumber":46,"Velocity":65,"Duration":487839,"SoundDuration":487839,"Delta":380016862},{"NoteNumber":51,"Velocity":77,"Duration":487839,"SoundDuration":487839,"Delta":380016862},{"NoteNumber":58,"Velocity":77,"Duration":487839,"SoundDuration":487839,"Delta":380016862},{"NoteNumber":70,"Velocity":72,"Duration":487839,"SoundDuration":487839,"Delta":380509837},{"NoteNumber":75,"Velocity":86,"Duration":487839,"SoundDuration":487839,"Delta":380509837},{"NoteNumber":82,"Velocity":86,"Duration":487839,"SoundDuration":487839,"Delta":380509837},{"NoteNumber":43,"Velocity":57,"Duration":487839,"SoundDuration":487839,"Delta":380509837},{"NoteNumber":51,"Velocity":70,"Duration":487839,"SoundDuration":487839,"Delta":380509837},{"NoteNumber":55,"Velocity":70,"Duration":487839,"SoundDuration":487839,"Delta":380509837},{"NoteNumber":84,"Velocity":90,"Duration":319324,"SoundDuration":319324,"Delta":381002812},{"NoteNumber":75,"Velocity":90,"Duration":319324,"SoundDuration":319324,"Delta":381002812},{"NoteNumber":72,"Velocity":75,"Duration":319324,"SoundDuration":319324,"Delta":381002812},{"NoteNumber":56,"Velocity":72,"Duration":319324,"SoundDuration":319324,"Delta":381002812},{"NoteNumber":51,"Velocity":72,"Duration":319324,"SoundDuration":319324,"Delta":381002812},{"NoteNumber":44,"Velocity":62,"Duration":319324,"SoundDuration":319324,"Delta":381002812},{"NoteNumber":63,"Velocity":72,"Duration":319324,"SoundDuration":319324,"Delta":381325158},{"NoteNumber":56,"Velocity":72,"Duration":319324,"SoundDuration":319324,"Delta":381325158},{"NoteNumber":51,"Velocity":62,"Duration":319324,"SoundDuration":319324,"Delta":381325158},{"NoteNumber":48,"Velocity":57,"Duration":319324,"SoundDuration":319324,"Delta":381325158},{"NoteNumber":36,"Velocity":48,"Duration":319324,"SoundDuration":319324,"Delta":381325158},{"NoteNumber":44,"Velocity":57,"Duration":319324,"SoundDuration":319324,"Delta":381325158},{"NoteNumber":84,"Velocity":86,"Duration":319324,"SoundDuration":319324,"Delta":381647505},{"NoteNumber":75,"Velocity":86,"Duration":319324,"SoundDuration":319324,"Delta":381647505},{"NoteNumber":72,"Velocity":72,"Duration":319324,"SoundDuration":319324,"Delta":381647505},{"NoteNumber":51,"Velocity":70,"Duration":319324,"SoundDuration":319324,"Delta":381647505},{"NoteNumber":44,"Velocity":57,"Duration":319324,"SoundDuration":319324,"Delta":381647505},{"NoteNumber":56,"Velocity":70,"Duration":319324,"SoundDuration":319324,"Delta":381647505},{"NoteNumber":80,"Velocity":90,"Duration":487839,"SoundDuration":487839,"Delta":381969852},{"NoteNumber":75,"Velocity":90,"Duration":487839,"SoundDuration":487839,"Delta":381969852},{"NoteNumber":68,"Velocity":75,"Duration":487839,"SoundDuration":487839,"Delta":381969852},{"NoteNumber":41,"Velocity":57,"Duration":487839,"SoundDuration":487839,"Delta":381969852},{"NoteNumber":48,"Velocity":70,"Duration":487839,"SoundDuration":487839,"Delta":381969852},{"NoteNumber":53,"Velocity":70,"Duration":487839,"SoundDuration":487839,"Delta":381969852},{"NoteNumber":72,"Velocity":69,"Duration":487839,"SoundDuration":487839,"Delta":382462827},{"NoteNumber":75,"Velocity":82,"Duration":487839,"SoundDuration":487839,"Delta":382462827},{"NoteNumber":84,"Velocity":82,"Duration":487839,"SoundDuration":487839,"Delta":382462827},{"NoteNumber":44,"Velocity":54,"Duration":487839,"SoundDuration":487839,"Delta":382462827},{"NoteNumber":48,"Velocity":67,"Duration":487839,"SoundDuration":487839,"Delta":382462827},{"NoteNumber":56,"Velocity":67,"Duration":487839,"SoundDuration":487839,"Delta":382462827},{"NoteNumber":70,"Velocity":75,"Duration":487839,"SoundDuration":487839,"Delta":382955802},{"NoteNumber":75,"Velocity":90,"Duration":487839,"SoundDuration":487839,"Delta":382955802},{"NoteNumber":82,"Velocity":90,"Duration":487839,"SoundDuration":487839,"Delta":382955802},{"NoteNumber":43,"Velocity":57,"Duration":487839,"SoundDuration":487839,"Delta":382955802},{"NoteNumber":51,"Velocity":70,"Duration":487839,"SoundDuration":487839,"Delta":382955802},{"NoteNumber":55,"Velocity":70,"Duration":487839,"SoundDuration":487839,"Delta":382955802},{"NoteNumber":58,"Velocity":64,"Duration":487839,"SoundDuration":487839,"Delta":383448777},{"NoteNumber":63,"Velocity":76,"Duration":487839,"SoundDuration":487839,"Delta":383448777},{"NoteNumber":70,"Velocity":76,"Duration":487839,"SoundDuration":487839,"Delta":383448777},{"NoteNumber":31,"Velocity":46,"Duration":487839,"SoundDuration":487839,"Delta":383448777},{"NoteNumber":39,"Velocity":54,"Duration":487839,"SoundDuration":487839,"Delta":383448777},{"NoteNumber":43,"Velocity":54,"Duration":487839,"SoundDuration":487839,"Delta":383448777},{"NoteNumber":68,"Velocity":73,"Duration":487839,"SoundDuration":487839,"Delta":383941752},{"NoteNumber":70,"Velocity":88,"Duration":487839,"SoundDuration":487839,"Delta":383941752},{"NoteNumber":80,"Velocity":88,"Duration":487839,"SoundDuration":487839,"Delta":383941752},{"NoteNumber":41,"Velocity":54,"Duration":487839,"SoundDuration":487839,"Delta":383941752},{"NoteNumber":46,"Velocity":68,"Duration":487839,"SoundDuration":487839,"Delta":383941752},{"NoteNumber":53,"Velocity":68,"Duration":487839,"SoundDuration":487839,"Delta":383941752},{"NoteNumber":67,"Velocity":70,"Duration":463867,"SoundDuration":463867,"Delta":384434727},{"NoteNumber":70,"Velocity":70,"Duration":463867,"SoundDuration":463867,"Delta":384434727},{"NoteNumber":79,"Velocity":83,"Duration":463867,"SoundDuration":463867,"Delta":384434727},{"NoteNumber":39,"Velocity":53,"Duration":463867,"SoundDuration":463867,"Delta":384434727},{"NoteNumber":46,"Velocity":64,"Duration":463867,"SoundDuration":463867,"Delta":384434727},{"NoteNumber":51,"Velocity":64,"Duration":463867,"SoundDuration":463867,"Delta":384434727},{"NoteNumber":65,"Velocity":47,"Duration":312007,"SoundDuration":312007,"Delta":384903477},{"NoteNumber":72,"Velocity":47,"Duration":312007,"SoundDuration":312007,"Delta":384903477},{"NoteNumber":75,"Velocity":53,"Duration":312007,"SoundDuration":312007,"Delta":384903477},{"NoteNumber":77,"Velocity":53,"Duration":312007,"SoundDuration":312007,"Delta":384903477},{"NoteNumber":32,"Velocity":35,"Duration":312007,"SoundDuration":312007,"Delta":384903477},{"NoteNumber":44,"Velocity":39,"Duration":312007,"SoundDuration":312007,"Delta":384903477},{"NoteNumber":65,"Velocity":44,"Duration":298101,"SoundDuration":298101,"Delta":385218437},{"NoteNumber":72,"Velocity":44,"Duration":298101,"SoundDuration":298101,"Delta":385218437},{"NoteNumber":75,"Velocity":49,"Duration":298101,"SoundDuration":298101,"Delta":385218437},{"NoteNumber":77,"Velocity":49,"Duration":298101,"SoundDuration":298101,"Delta":385218437},{"NoteNumber":56,"Velocity":35,"Duration":298101,"SoundDuration":298101,"Delta":385218437},{"NoteNumber":44,"Velocity":32,"Duration":298101,"SoundDuration":298101,"Delta":385218437},{"NoteNumber":65,"Velocity":44,"Duration":292456,"SoundDuration":292456,"Delta":385519306},{"NoteNumber":72,"Velocity":44,"Duration":292456,"SoundDuration":292456,"Delta":385519306},{"NoteNumber":75,"Velocity":49,"Duration":292456,"SoundDuration":292456,"Delta":385519306},{"NoteNumber":77,"Velocity":49,"Duration":292456,"SoundDuration":292456,"Delta":385519306},{"NoteNumber":32,"Velocity":32,"Duration":292456,"SoundDuration":292456,"Delta":385519306},{"NoteNumber":44,"Velocity":36,"Duration":292456,"SoundDuration":292456,"Delta":385519306},{"NoteNumber":65,"Velocity":43,"Duration":288202,"SoundDuration":288202,"Delta":385814531},{"NoteNumber":72,"Velocity":43,"Duration":288202,"SoundDuration":288202,"Delta":385814531},{"NoteNumber":75,"Velocity":48,"Duration":288202,"SoundDuration":288202,"Delta":385814531},{"NoteNumber":77,"Velocity":48,"Duration":288202,"SoundDuration":288202,"Delta":385814531},{"NoteNumber":44,"Velocity":30,"Duration":288202,"SoundDuration":288202,"Delta":385814531},{"NoteNumber":56,"Velocity":34,"Duration":288202,"SoundDuration":288202,"Delta":385814531},{"NoteNumber":65,"Velocity":43,"Duration":288202,"SoundDuration":288202,"Delta":386105461},{"NoteNumber":72,"Velocity":43,"Duration":288202,"SoundDuration":288202,"Delta":386105461},{"NoteNumber":75,"Velocity":48,"Duration":288202,"SoundDuration":288202,"Delta":386105461},{"NoteNumber":77,"Velocity":48,"Duration":288202,"SoundDuration":288202,"Delta":386105461},{"NoteNumber":44,"Velocity":35,"Duration":288202,"SoundDuration":288202,"Delta":386105461},{"NoteNumber":32,"Velocity":30,"Duration":288202,"SoundDuration":288202,"Delta":386105461},{"NoteNumber":65,"Velocity":43,"Duration":304948,"SoundDuration":304948,"Delta":386396391},{"NoteNumber":72,"Velocity":43,"Duration":304948,"SoundDuration":304948,"Delta":386396391},{"NoteNumber":75,"Velocity":48,"Duration":304948,"SoundDuration":304948,"Delta":386396391},{"NoteNumber":77,"Velocity":48,"Duration":304948,"SoundDuration":304948,"Delta":386396391},{"NoteNumber":44,"Velocity":27,"Duration":304948,"SoundDuration":304948,"Delta":386396391},{"NoteNumber":56,"Velocity":33,"Duration":304948,"SoundDuration":304948,"Delta":386396391},{"NoteNumber":67,"Velocity":53,"Duration":285092,"SoundDuration":285092,"Delta":386704226},{"NoteNumber":70,"Velocity":53,"Duration":285092,"SoundDuration":285092,"Delta":386704226},{"NoteNumber":74,"Velocity":53,"Duration":285092,"SoundDuration":285092,"Delta":386704226},{"NoteNumber":79,"Velocity":60,"Duration":285092,"SoundDuration":285092,"Delta":386704226},{"NoteNumber":34,"Velocity":40,"Duration":285092,"SoundDuration":285092,"Delta":386704226},{"NoteNumber":46,"Velocity":46,"Duration":285092,"SoundDuration":285092,"Delta":386704226},{"NoteNumber":67,"Velocity":48,"Duration":285092,"SoundDuration":285092,"Delta":386992016},{"NoteNumber":70,"Velocity":48,"Duration":285092,"SoundDuration":285092,"Delta":386992016},{"NoteNumber":74,"Velocity":48,"Duration":285092,"SoundDuration":285092,"Delta":386992016},{"NoteNumber":79,"Velocity":54,"Duration":285092,"SoundDuration":285092,"Delta":386992016},{"NoteNumber":58,"Velocity":36,"Duration":285092,"SoundDuration":285092,"Delta":386992016},{"NoteNumber":46,"Velocity":33,"Duration":285092,"SoundDuration":285092,"Delta":386992016},{"NoteNumber":67,"Velocity":49,"Duration":286622,"SoundDuration":286622,"Delta":387279807},{"NoteNumber":70,"Velocity":49,"Duration":286622,"SoundDuration":286622,"Delta":387279807},{"NoteNumber":74,"Velocity":49,"Duration":286622,"SoundDuration":286622,"Delta":387279807},{"NoteNumber":79,"Velocity":54,"Duration":286622,"SoundDuration":286622,"Delta":387279807},{"NoteNumber":34,"Velocity":34,"Duration":286622,"SoundDuration":286622,"Delta":387279807},{"NoteNumber":46,"Velocity":38,"Duration":286622,"SoundDuration":286622,"Delta":387279807},{"NoteNumber":67,"Velocity":49,"Duration":281048,"SoundDuration":281048,"Delta":387569157},{"NoteNumber":70,"Velocity":49,"Duration":281048,"SoundDuration":281048,"Delta":387569157},{"NoteNumber":75,"Velocity":54,"Duration":281048,"SoundDuration":281048,"Delta":387569157},{"NoteNumber":79,"Velocity":54,"Duration":281048,"SoundDuration":281048,"Delta":387569157},{"NoteNumber":46,"Velocity":34,"Duration":281048,"SoundDuration":281048,"Delta":387569157},{"NoteNumber":58,"Velocity":38,"Duration":281048,"SoundDuration":281048,"Delta":387569157},{"NoteNumber":67,"Velocity":49,"Duration":281048,"SoundDuration":281048,"Delta":387852865},{"NoteNumber":70,"Velocity":49,"Duration":281048,"SoundDuration":281048,"Delta":387852865},{"NoteNumber":75,"Velocity":55,"Duration":281048,"SoundDuration":281048,"Delta":387852865},{"NoteNumber":79,"Velocity":55,"Duration":281048,"SoundDuration":281048,"Delta":387852865},{"NoteNumber":46,"Velocity":39,"Duration":281048,"SoundDuration":281048,"Delta":387852865},{"NoteNumber":34,"Velocity":35,"Duration":281048,"SoundDuration":281048,"Delta":387852865},{"NoteNumber":67,"Velocity":49,"Duration":299056,"SoundDuration":299056,"Delta":388136573},{"NoteNumber":70,"Velocity":49,"Duration":299056,"SoundDuration":299056,"Delta":388136573},{"NoteNumber":75,"Velocity":55,"Duration":299056,"SoundDuration":299056,"Delta":388136573},{"NoteNumber":79,"Velocity":55,"Duration":299056,"SoundDuration":299056,"Delta":388136573},{"NoteNumber":46,"Velocity":35,"Duration":299056,"SoundDuration":299056,"Delta":388136573},{"NoteNumber":58,"Velocity":39,"Duration":299056,"SoundDuration":299056,"Delta":388136573},{"NoteNumber":82,"Velocity":61,"Duration":279068,"SoundDuration":279068,"Delta":388438460},{"NoteNumber":70,"Velocity":55,"Duration":279068,"SoundDuration":279068,"Delta":388438460},{"NoteNumber":73,"Velocity":55,"Duration":279068,"SoundDuration":279068,"Delta":388438460},{"NoteNumber":79,"Velocity":61,"Duration":279068,"SoundDuration":279068,"Delta":388438460},{"NoteNumber":34,"Velocity":41,"Duration":279068,"SoundDuration":279068,"Delta":388438460},{"NoteNumber":46,"Velocity":47,"Duration":279068,"SoundDuration":279068,"Delta":388438460},{"NoteNumber":82,"Velocity":56,"Duration":279068,"SoundDuration":279068,"Delta":388720170},{"NoteNumber":70,"Velocity":51,"Duration":279068,"SoundDuration":279068,"Delta":388720170},{"NoteNumber":73,"Velocity":51,"Duration":279068,"SoundDuration":279068,"Delta":388720170},{"NoteNumber":79,"Velocity":56,"Duration":279068,"SoundDuration":279068,"Delta":388720170},{"NoteNumber":58,"Velocity":42,"Duration":279068,"SoundDuration":279068,"Delta":388720170},{"NoteNumber":46,"Velocity":37,"Duration":279068,"SoundDuration":279068,"Delta":388720170},{"NoteNumber":82,"Velocity":57,"Duration":286225,"SoundDuration":286225,"Delta":389001880},{"NoteNumber":70,"Velocity":51,"Duration":286225,"SoundDuration":286225,"Delta":389001880},{"NoteNumber":73,"Velocity":51,"Duration":286225,"SoundDuration":286225,"Delta":389001880},{"NoteNumber":79,"Velocity":57,"Duration":286225,"SoundDuration":286225,"Delta":389001880},{"NoteNumber":34,"Velocity":38,"Duration":286225,"SoundDuration":286225,"Delta":389001880},{"NoteNumber":46,"Velocity":42,"Duration":286225,"SoundDuration":286225,"Delta":389001880},{"NoteNumber":68,"Velocity":56,"Duration":293518,"SoundDuration":293518,"Delta":389290883},{"NoteNumber":71,"Velocity":56,"Duration":293518,"SoundDuration":293518,"Delta":389290883},{"NoteNumber":75,"Velocity":56,"Duration":293518,"SoundDuration":293518,"Delta":389290883},{"NoteNumber":80,"Velocity":63,"Duration":293518,"SoundDuration":293518,"Delta":389290883},{"NoteNumber":47,"Velocity":41,"Duration":293518,"SoundDuration":293518,"Delta":389290883},{"NoteNumber":59,"Velocity":46,"Duration":293518,"SoundDuration":293518,"Delta":389290883},{"NoteNumber":68,"Velocity":52,"Duration":280057,"SoundDuration":280057,"Delta":389587179},{"NoteNumber":71,"Velocity":52,"Duration":280057,"SoundDuration":280057,"Delta":389587179},{"NoteNumber":75,"Velocity":52,"Duration":280057,"SoundDuration":280057,"Delta":389587179},{"NoteNumber":80,"Velocity":58,"Duration":280057,"SoundDuration":280057,"Delta":389587179},{"NoteNumber":47,"Velocity":38,"Duration":280057,"SoundDuration":280057,"Delta":389587179},{"NoteNumber":35,"Velocity":34,"Duration":280057,"SoundDuration":280057,"Delta":389587179},{"NoteNumber":68,"Velocity":52,"Duration":279068,"SoundDuration":279068,"Delta":389869878},{"NoteNumber":71,"Velocity":52,"Duration":279068,"SoundDuration":279068,"Delta":389869878},{"NoteNumber":75,"Velocity":52,"Duration":279068,"SoundDuration":279068,"Delta":389869878},{"NoteNumber":80,"Velocity":59,"Duration":279068,"SoundDuration":279068,"Delta":389869878},{"NoteNumber":47,"Velocity":34,"Duration":279068,"SoundDuration":279068,"Delta":389869878},{"NoteNumber":59,"Velocity":38,"Duration":279068,"SoundDuration":279068,"Delta":389869878},{"NoteNumber":68,"Velocity":58,"Duration":273294,"SoundDuration":273294,"Delta":390151588},{"NoteNumber":75,"Velocity":58,"Duration":273294,"SoundDuration":273294,"Delta":390151588},{"NoteNumber":80,"Velocity":67,"Duration":273294,"SoundDuration":273294,"Delta":390151588},{"NoteNumber":35,"Velocity":38,"Duration":273294,"SoundDuration":273294,"Delta":390151588},{"NoteNumber":47,"Velocity":38,"Duration":273294,"SoundDuration":273294,"Delta":390151588},{"NoteNumber":68,"Velocity":58,"Duration":273294,"SoundDuration":273294,"Delta":390427469},{"NoteNumber":75,"Velocity":58,"Duration":273294,"SoundDuration":273294,"Delta":390427469},{"NoteNumber":80,"Velocity":67,"Duration":273294,"SoundDuration":273294,"Delta":390427469},{"NoteNumber":59,"Velocity":38,"Duration":273294,"SoundDuration":273294,"Delta":390427469},{"NoteNumber":47,"Velocity":38,"Duration":273294,"SoundDuration":273294,"Delta":390427469},{"NoteNumber":68,"Velocity":59,"Duration":280759,"SoundDuration":280759,"Delta":390703350},{"NoteNumber":75,"Velocity":59,"Duration":280759,"SoundDuration":280759,"Delta":390703350},{"NoteNumber":80,"Velocity":67,"Duration":280759,"SoundDuration":280759,"Delta":390703350},{"NoteNumber":35,"Velocity":38,"Duration":280759,"SoundDuration":280759,"Delta":390703350},{"NoteNumber":47,"Velocity":38,"Duration":280759,"SoundDuration":280759,"Delta":390703350},{"NoteNumber":68,"Velocity":58,"Duration":275192,"SoundDuration":275192,"Delta":390986887},{"NoteNumber":74,"Velocity":58,"Duration":275192,"SoundDuration":275192,"Delta":390986887},{"NoteNumber":80,"Velocity":63,"Duration":275192,"SoundDuration":275192,"Delta":390986887},{"NoteNumber":46,"Velocity":38,"Duration":275192,"SoundDuration":275192,"Delta":390986887},{"NoteNumber":58,"Velocity":41,"Duration":275192,"SoundDuration":275192,"Delta":390986887},{"NoteNumber":68,"Velocity":58,"Duration":275192,"SoundDuration":275192,"Delta":391264684},{"NoteNumber":74,"Velocity":58,"Duration":275192,"SoundDuration":275192,"Delta":391264684},{"NoteNumber":80,"Velocity":64,"Duration":275192,"SoundDuration":275192,"Delta":391264684},{"NoteNumber":46,"Velocity":42,"Duration":275192,"SoundDuration":275192,"Delta":391264684},{"NoteNumber":34,"Velocity":38,"Duration":275192,"SoundDuration":275192,"Delta":391264684},{"NoteNumber":68,"Velocity":59,"Duration":281478,"SoundDuration":281478,"Delta":391542482},{"NoteNumber":74,"Velocity":59,"Duration":281478,"SoundDuration":281478,"Delta":391542482},{"NoteNumber":80,"Velocity":64,"Duration":281478,"SoundDuration":281478,"Delta":391542482},{"NoteNumber":46,"Velocity":39,"Duration":281478,"SoundDuration":281478,"Delta":391542482},{"NoteNumber":58,"Velocity":42,"Duration":281478,"SoundDuration":281478,"Delta":391542482},{"NoteNumber":68,"Velocity":64,"Duration":280035,"SoundDuration":280035,"Delta":391826738},{"NoteNumber":73,"Velocity":64,"Duration":280035,"SoundDuration":280035,"Delta":391826738},{"NoteNumber":80,"Velocity":64,"Duration":280035,"SoundDuration":280035,"Delta":391826738},{"NoteNumber":33,"Velocity":38,"Duration":280035,"SoundDuration":280035,"Delta":391826738},{"NoteNumber":45,"Velocity":42,"Duration":280035,"SoundDuration":280035,"Delta":391826738},{"NoteNumber":68,"Velocity":64,"Duration":280035,"SoundDuration":280035,"Delta":392109423},{"NoteNumber":73,"Velocity":64,"Duration":280035,"SoundDuration":280035,"Delta":392109423},{"NoteNumber":80,"Velocity":64,"Duration":280035,"SoundDuration":280035,"Delta":392109423},{"NoteNumber":57,"Velocity":43,"Duration":280035,"SoundDuration":280035,"Delta":392109423},{"NoteNumber":45,"Velocity":39,"Duration":280035,"SoundDuration":280035,"Delta":392109423},{"NoteNumber":68,"Velocity":61,"Duration":285648,"SoundDuration":285648,"Delta":392392109},{"NoteNumber":73,"Velocity":61,"Duration":285648,"SoundDuration":285648,"Delta":392392109},{"NoteNumber":80,"Velocity":61,"Duration":285648,"SoundDuration":285648,"Delta":392392109},{"NoteNumber":33,"Velocity":42,"Duration":285648,"SoundDuration":285648,"Delta":392392109},{"NoteNumber":45,"Velocity":42,"Duration":285648,"SoundDuration":285648,"Delta":392392109},{"NoteNumber":67,"Velocity":69,"Duration":282553,"SoundDuration":282553,"Delta":392680482},{"NoteNumber":73,"Velocity":69,"Duration":282553,"SoundDuration":282553,"Delta":392680482},{"NoteNumber":79,"Velocity":69,"Duration":282553,"SoundDuration":282553,"Delta":392680482},{"NoteNumber":45,"Velocity":48,"Duration":282553,"SoundDuration":282553,"Delta":392680482},{"NoteNumber":57,"Velocity":48,"Duration":282553,"SoundDuration":282553,"Delta":392680482},{"NoteNumber":67,"Velocity":65,"Duration":281028,"SoundDuration":281028,"Delta":392965695},{"NoteNumber":73,"Velocity":65,"Duration":281028,"SoundDuration":281028,"Delta":392965695},{"NoteNumber":79,"Velocity":65,"Duration":281028,"SoundDuration":281028,"Delta":392965695},{"NoteNumber":45,"Velocity":43,"Duration":281028,"SoundDuration":281028,"Delta":392965695},{"NoteNumber":33,"Velocity":43,"Duration":281028,"SoundDuration":281028,"Delta":392965695},{"NoteNumber":67,"Velocity":64,"Duration":281028,"SoundDuration":281028,"Delta":393249383},{"NoteNumber":73,"Velocity":64,"Duration":281028,"SoundDuration":281028,"Delta":393249383},{"NoteNumber":79,"Velocity":64,"Duration":281028,"SoundDuration":281028,"Delta":393249383},{"NoteNumber":45,"Velocity":42,"Duration":281028,"SoundDuration":281028,"Delta":393249383},{"NoteNumber":57,"Velocity":42,"Duration":281028,"SoundDuration":281028,"Delta":393249383},{"NoteNumber":66,"Velocity":68,"Duration":284571,"SoundDuration":284571,"Delta":393533071},{"NoteNumber":73,"Velocity":68,"Duration":284571,"SoundDuration":284571,"Delta":393533071},{"NoteNumber":78,"Velocity":76,"Duration":284571,"SoundDuration":284571,"Delta":393533071},{"NoteNumber":33,"Velocity":49,"Duration":284571,"SoundDuration":284571,"Delta":393533071},{"NoteNumber":45,"Velocity":56,"Duration":284571,"SoundDuration":284571,"Delta":393533071},{"NoteNumber":66,"Velocity":61,"Duration":288182,"SoundDuration":288182,"Delta":393820370},{"NoteNumber":73,"Velocity":61,"Duration":288182,"SoundDuration":288182,"Delta":393820370},{"NoteNumber":78,"Velocity":68,"Duration":288182,"SoundDuration":288182,"Delta":393820370},{"NoteNumber":57,"Velocity":47,"Duration":288182,"SoundDuration":288182,"Delta":393820370},{"NoteNumber":45,"Velocity":42,"Duration":288182,"SoundDuration":288182,"Delta":393820370},{"NoteNumber":66,"Velocity":62,"Duration":289227,"SoundDuration":289227,"Delta":394111279},{"NoteNumber":73,"Velocity":62,"Duration":289227,"SoundDuration":289227,"Delta":394111279},{"NoteNumber":78,"Velocity":69,"Duration":289227,"SoundDuration":289227,"Delta":394111279},{"NoteNumber":33,"Velocity":43,"Duration":289227,"SoundDuration":289227,"Delta":394111279},{"NoteNumber":45,"Velocity":48,"Duration":289227,"SoundDuration":289227,"Delta":394111279},{"NoteNumber":65,"Velocity":70,"Duration":290292,"SoundDuration":290292,"Delta":394403254},{"NoteNumber":72,"Velocity":80,"Duration":290292,"SoundDuration":290292,"Delta":394403254},{"NoteNumber":77,"Velocity":80,"Duration":290292,"SoundDuration":290292,"Delta":394403254},{"NoteNumber":45,"Velocity":52,"Duration":290292,"SoundDuration":290292,"Delta":394403254},{"NoteNumber":57,"Velocity":60,"Duration":290292,"SoundDuration":290292,"Delta":394403254},{"NoteNumber":65,"Velocity":65,"Duration":290292,"SoundDuration":290292,"Delta":394696294},{"NoteNumber":72,"Velocity":73,"Duration":290292,"SoundDuration":290292,"Delta":394696294},{"NoteNumber":77,"Velocity":73,"Duration":290292,"SoundDuration":290292,"Delta":394696294},{"NoteNumber":45,"Velocity":50,"Duration":290292,"SoundDuration":290292,"Delta":394696294},{"NoteNumber":33,"Velocity":46,"Duration":290292,"SoundDuration":290292,"Delta":394696294},{"NoteNumber":65,"Velocity":66,"Duration":290292,"SoundDuration":290292,"Delta":394989334},{"NoteNumber":75,"Velocity":74,"Duration":290292,"SoundDuration":290292,"Delta":394989334},{"NoteNumber":77,"Velocity":74,"Duration":290292,"SoundDuration":290292,"Delta":394989334},{"NoteNumber":57,"Velocity":51,"Duration":290292,"SoundDuration":290292,"Delta":394989334},{"NoteNumber":45,"Velocity":46,"Duration":290292,"SoundDuration":290292,"Delta":394989334},{"NoteNumber":89,"Velocity":83,"Duration":296816,"SoundDuration":296816,"Delta":395282374},{"NoteNumber":87,"Velocity":83,"Duration":296816,"SoundDuration":296816,"Delta":395282374},{"NoteNumber":82,"Velocity":73,"Duration":296816,"SoundDuration":296816,"Delta":395282374},{"NoteNumber":77,"Velocity":73,"Duration":296816,"SoundDuration":296816,"Delta":395282374},{"NoteNumber":34,"Velocity":60,"Duration":296816,"SoundDuration":296816,"Delta":395282374},{"NoteNumber":46,"Velocity":68,"Duration":296816,"SoundDuration":296816,"Delta":395282374},{"NoteNumber":77,"Velocity":72,"Duration":296816,"SoundDuration":296816,"Delta":395581999},{"NoteNumber":75,"Velocity":72,"Duration":296816,"SoundDuration":296816,"Delta":395581999},{"NoteNumber":70,"Velocity":65,"Duration":296816,"SoundDuration":296816,"Delta":395581999},{"NoteNumber":65,"Velocity":65,"Duration":296816,"SoundDuration":296816,"Delta":395581999},{"NoteNumber":58,"Velocity":52,"Duration":296816,"SoundDuration":296816,"Delta":395581999},{"NoteNumber":46,"Velocity":47,"Duration":296816,"SoundDuration":296816,"Delta":395581999},{"NoteNumber":89,"Velocity":77,"Duration":292435,"SoundDuration":292435,"Delta":395881624},{"NoteNumber":87,"Velocity":77,"Duration":292435,"SoundDuration":292435,"Delta":395881624},{"NoteNumber":82,"Velocity":69,"Duration":292435,"SoundDuration":292435,"Delta":395881624},{"NoteNumber":77,"Velocity":69,"Duration":292435,"SoundDuration":292435,"Delta":395881624},{"NoteNumber":34,"Velocity":51,"Duration":292435,"SoundDuration":292435,"Delta":395881624},{"NoteNumber":46,"Velocity":57,"Duration":292435,"SoundDuration":292435,"Delta":395881624},{"NoteNumber":65,"Velocity":65,"Duration":292435,"SoundDuration":292435,"Delta":396176827},{"NoteNumber":68,"Velocity":65,"Duration":292435,"SoundDuration":292435,"Delta":396176827},{"NoteNumber":75,"Velocity":72,"Duration":292435,"SoundDuration":292435,"Delta":396176827},{"NoteNumber":77,"Velocity":72,"Duration":292435,"SoundDuration":292435,"Delta":396176827},{"NoteNumber":47,"Velocity":64,"Duration":292435,"SoundDuration":292435,"Delta":396176827},{"NoteNumber":59,"Velocity":71,"Duration":292435,"SoundDuration":292435,"Delta":396176827},{"NoteNumber":77,"Velocity":69,"Duration":289672,"SoundDuration":289672,"Delta":396472030},{"NoteNumber":80,"Velocity":69,"Duration":289672,"SoundDuration":289672,"Delta":396472030},{"NoteNumber":87,"Velocity":77,"Duration":289672,"SoundDuration":289672,"Delta":396472030},{"NoteNumber":89,"Velocity":77,"Duration":289672,"SoundDuration":289672,"Delta":396472030},{"NoteNumber":47,"Velocity":54,"Duration":289672,"SoundDuration":289672,"Delta":396472030},{"NoteNumber":35,"Velocity":48,"Duration":289672,"SoundDuration":289672,"Delta":396472030},{"NoteNumber":65,"Velocity":65,"Duration":289233,"SoundDuration":289233,"Delta":396764440},{"NoteNumber":68,"Velocity":65,"Duration":289233,"SoundDuration":289233,"Delta":396764440},{"NoteNumber":75,"Velocity":72,"Duration":289233,"SoundDuration":289233,"Delta":396764440},{"NoteNumber":77,"Velocity":72,"Duration":289233,"SoundDuration":289233,"Delta":396764440},{"NoteNumber":47,"Velocity":45,"Duration":289233,"SoundDuration":289233,"Delta":396764440},{"NoteNumber":59,"Velocity":50,"Duration":289233,"SoundDuration":289233,"Delta":396764440},{"NoteNumber":89,"Velocity":83,"Duration":294609,"SoundDuration":294609,"Delta":397056410},{"NoteNumber":87,"Velocity":83,"Duration":294609,"SoundDuration":294609,"Delta":397056410},{"NoteNumber":82,"Velocity":73,"Duration":294609,"SoundDuration":294609,"Delta":397056410},{"NoteNumber":77,"Velocity":73,"Duration":294609,"SoundDuration":294609,"Delta":397056410},{"NoteNumber":34,"Velocity":54,"Duration":294609,"SoundDuration":294609,"Delta":397056410},{"NoteNumber":46,"Velocity":62,"Duration":294609,"SoundDuration":294609,"Delta":397056410},{"NoteNumber":77,"Velocity":72,"Duration":294609,"SoundDuration":294609,"Delta":397353808},{"NoteNumber":75,"Velocity":72,"Duration":294609,"SoundDuration":294609,"Delta":397353808},{"NoteNumber":70,"Velocity":65,"Duration":294609,"SoundDuration":294609,"Delta":397353808},{"NoteNumber":65,"Velocity":65,"Duration":294609,"SoundDuration":294609,"Delta":397353808},{"NoteNumber":58,"Velocity":52,"Duration":294609,"SoundDuration":294609,"Delta":397353808},{"NoteNumber":46,"Velocity":47,"Duration":294609,"SoundDuration":294609,"Delta":397353808},{"NoteNumber":89,"Velocity":77,"Duration":290292,"SoundDuration":290292,"Delta":397651206},{"NoteNumber":87,"Velocity":77,"Duration":290292,"SoundDuration":290292,"Delta":397651206},{"NoteNumber":82,"Velocity":69,"Duration":290292,"SoundDuration":290292,"Delta":397651206},{"NoteNumber":77,"Velocity":69,"Duration":290292,"SoundDuration":290292,"Delta":397651206},{"NoteNumber":34,"Velocity":51,"Duration":290292,"SoundDuration":290292,"Delta":397651206},{"NoteNumber":46,"Velocity":57,"Duration":290292,"SoundDuration":290292,"Delta":397651206},{"NoteNumber":65,"Velocity":65,"Duration":290292,"SoundDuration":290292,"Delta":397944246},{"NoteNumber":71,"Velocity":65,"Duration":290292,"SoundDuration":290292,"Delta":397944246},{"NoteNumber":75,"Velocity":72,"Duration":290292,"SoundDuration":290292,"Delta":397944246},{"NoteNumber":77,"Velocity":72,"Duration":290292,"SoundDuration":290292,"Delta":397944246},{"NoteNumber":44,"Velocity":65,"Duration":290292,"SoundDuration":290292,"Delta":397944246},{"NoteNumber":56,"Velocity":72,"Duration":290292,"SoundDuration":290292,"Delta":397944246},{"NoteNumber":77,"Velocity":69,"Duration":290292,"SoundDuration":290292,"Delta":398237286},{"NoteNumber":83,"Velocity":69,"Duration":290292,"SoundDuration":290292,"Delta":398237286},{"NoteNumber":87,"Velocity":77,"Duration":290292,"SoundDuration":290292,"Delta":398237286},{"NoteNumber":89,"Velocity":77,"Duration":290292,"SoundDuration":290292,"Delta":398237286},{"NoteNumber":44,"Velocity":54,"Duration":290292,"SoundDuration":290292,"Delta":398237286},{"NoteNumber":32,"Velocity":48,"Duration":290292,"SoundDuration":290292,"Delta":398237286},{"NoteNumber":65,"Velocity":65,"Duration":290292,"SoundDuration":290292,"Delta":398530326},{"NoteNumber":71,"Velocity":65,"Duration":290292,"SoundDuration":290292,"Delta":398530326},{"NoteNumber":75,"Velocity":72,"Duration":290292,"SoundDuration":290292,"Delta":398530326},{"NoteNumber":77,"Velocity":72,"Duration":290292,"SoundDuration":290292,"Delta":398530326},{"NoteNumber":44,"Velocity":45,"Duration":290292,"SoundDuration":290292,"Delta":398530326},{"NoteNumber":56,"Velocity":50,"Duration":290292,"SoundDuration":290292,"Delta":398530326},{"NoteNumber":89,"Velocity":83,"Duration":298178,"SoundDuration":298178,"Delta":398823366},{"NoteNumber":87,"Velocity":83,"Duration":298178,"SoundDuration":298178,"Delta":398823366},{"NoteNumber":82,"Velocity":73,"Duration":298178,"SoundDuration":298178,"Delta":398823366},{"NoteNumber":77,"Velocity":73,"Duration":298178,"SoundDuration":298178,"Delta":398823366},{"NoteNumber":34,"Velocity":54,"Duration":298178,"SoundDuration":298178,"Delta":398823366},{"NoteNumber":46,"Velocity":62,"Duration":298178,"SoundDuration":298178,"Delta":398823366},{"NoteNumber":77,"Velocity":72,"Duration":298178,"SoundDuration":298178,"Delta":399124367},{"NoteNumber":75,"Velocity":72,"Duration":298178,"SoundDuration":298178,"Delta":399124367},{"NoteNumber":70,"Velocity":65,"Duration":298178,"SoundDuration":298178,"Delta":399124367},{"NoteNumber":65,"Velocity":65,"Duration":298178,"SoundDuration":298178,"Delta":399124367},{"NoteNumber":58,"Velocity":52,"Duration":298178,"SoundDuration":298178,"Delta":399124367},{"NoteNumber":46,"Velocity":47,"Duration":298178,"SoundDuration":298178,"Delta":399124367},{"NoteNumber":89,"Velocity":77,"Duration":291660,"SoundDuration":291660,"Delta":399425368},{"NoteNumber":87,"Velocity":77,"Duration":291660,"SoundDuration":291660,"Delta":399425368},{"NoteNumber":82,"Velocity":69,"Duration":291660,"SoundDuration":291660,"Delta":399425368},{"NoteNumber":77,"Velocity":69,"Duration":291660,"SoundDuration":291660,"Delta":399425368},{"NoteNumber":34,"Velocity":51,"Duration":291660,"SoundDuration":291660,"Delta":399425368},{"NoteNumber":46,"Velocity":57,"Duration":291660,"SoundDuration":291660,"Delta":399425368},{"NoteNumber":65,"Velocity":67,"Duration":291660,"SoundDuration":291660,"Delta":399719788},{"NoteNumber":69,"Velocity":67,"Duration":291660,"SoundDuration":291660,"Delta":399719788},{"NoteNumber":75,"Velocity":73,"Duration":291660,"SoundDuration":291660,"Delta":399719788},{"NoteNumber":77,"Velocity":73,"Duration":291660,"SoundDuration":291660,"Delta":399719788},{"NoteNumber":48,"Velocity":65,"Duration":291660,"SoundDuration":291660,"Delta":399719788},{"NoteNumber":60,"Velocity":72,"Duration":291660,"SoundDuration":291660,"Delta":399719788},{"NoteNumber":77,"Velocity":72,"Duration":291660,"SoundDuration":291660,"Delta":400014209},{"NoteNumber":81,"Velocity":72,"Duration":291660,"SoundDuration":291660,"Delta":400014209},{"NoteNumber":87,"Velocity":82,"Duration":291660,"SoundDuration":291660,"Delta":400014209},{"NoteNumber":89,"Velocity":82,"Duration":291660,"SoundDuration":291660,"Delta":400014209},{"NoteNumber":48,"Velocity":56,"Duration":291660,"SoundDuration":291660,"Delta":400014209},{"NoteNumber":36,"Velocity":50,"Duration":291660,"SoundDuration":291660,"Delta":400014209},{"NoteNumber":65,"Velocity":69,"Duration":291660,"SoundDuration":291660,"Delta":400308630},{"NoteNumber":69,"Velocity":69,"Duration":291660,"SoundDuration":291660,"Delta":400308630},{"NoteNumber":75,"Velocity":76,"Duration":291660,"SoundDuration":291660,"Delta":400308630},{"NoteNumber":77,"Velocity":76,"Duration":291660,"SoundDuration":291660,"Delta":400308630},{"NoteNumber":48,"Velocity":47,"Duration":291660,"SoundDuration":291660,"Delta":400308630},{"NoteNumber":60,"Velocity":53,"Duration":291660,"SoundDuration":291660,"Delta":400308630},{"NoteNumber":89,"Velocity":90,"Duration":295974,"SoundDuration":295974,"Delta":400603050},{"NoteNumber":87,"Velocity":90,"Duration":295974,"SoundDuration":295974,"Delta":400603050},{"NoteNumber":82,"Velocity":80,"Duration":295974,"SoundDuration":295974,"Delta":400603050},{"NoteNumber":77,"Velocity":80,"Duration":295974,"SoundDuration":295974,"Delta":400603050},{"NoteNumber":34,"Velocity":59,"Duration":295974,"SoundDuration":295974,"Delta":400603050},{"NoteNumber":46,"Velocity":67,"Duration":295974,"SoundDuration":295974,"Delta":400603050},{"NoteNumber":77,"Velocity":80,"Duration":295974,"SoundDuration":295974,"Delta":400901826},{"NoteNumber":75,"Velocity":80,"Duration":295974,"SoundDuration":295974,"Delta":400901826},{"NoteNumber":70,"Velocity":70,"Duration":295974,"SoundDuration":295974,"Delta":400901826},{"NoteNumber":65,"Velocity":70,"Duration":295974,"SoundDuration":295974,"Delta":400901826},{"NoteNumber":58,"Velocity":57,"Duration":295974,"SoundDuration":295974,"Delta":400901826},{"NoteNumber":46,"Velocity":50,"Duration":295974,"SoundDuration":295974,"Delta":400901826},{"NoteNumber":89,"Velocity":86,"Duration":292204,"SoundDuration":292204,"Delta":401200601},{"NoteNumber":87,"Velocity":86,"Duration":292204,"SoundDuration":292204,"Delta":401200601},{"NoteNumber":82,"Velocity":77,"Duration":292204,"SoundDuration":292204,"Delta":401200601},{"NoteNumber":77,"Velocity":77,"Duration":292204,"SoundDuration":292204,"Delta":401200601},{"NoteNumber":34,"Velocity":57,"Duration":292204,"SoundDuration":292204,"Delta":401200601},{"NoteNumber":46,"Velocity":64,"Duration":292204,"SoundDuration":292204,"Delta":401200601},{"NoteNumber":65,"Velocity":72,"Duration":291660,"SoundDuration":291660,"Delta":401495566},{"NoteNumber":72,"Velocity":72,"Duration":291660,"SoundDuration":291660,"Delta":401495566},{"NoteNumber":75,"Velocity":82,"Duration":291660,"SoundDuration":291660,"Delta":401495566},{"NoteNumber":77,"Velocity":82,"Duration":291660,"SoundDuration":291660,"Delta":401495566},{"NoteNumber":45,"Velocity":72,"Duration":291660,"SoundDuration":291660,"Delta":401495566},{"NoteNumber":57,"Velocity":82,"Duration":291660,"SoundDuration":291660,"Delta":401495566},{"NoteNumber":77,"Velocity":80,"Duration":291660,"SoundDuration":291660,"Delta":401789987},{"NoteNumber":84,"Velocity":80,"Duration":291660,"SoundDuration":291660,"Delta":401789987},{"NoteNumber":87,"Velocity":89,"Duration":291660,"SoundDuration":291660,"Delta":401789987},{"NoteNumber":89,"Velocity":89,"Duration":291660,"SoundDuration":291660,"Delta":401789987},{"NoteNumber":45,"Velocity":63,"Duration":291660,"SoundDuration":291660,"Delta":401789987},{"NoteNumber":33,"Velocity":56,"Duration":291660,"SoundDuration":291660,"Delta":401789987},{"NoteNumber":65,"Velocity":75,"Duration":386623,"SoundDuration":386623,"Delta":402084407},{"NoteNumber":72,"Velocity":75,"Duration":386623,"SoundDuration":386623,"Delta":402084407},{"NoteNumber":75,"Velocity":84,"Duration":386623,"SoundDuration":386623,"Delta":402084407},{"NoteNumber":77,"Velocity":84,"Duration":386623,"SoundDuration":386623,"Delta":402084407},{"NoteNumber":45,"Velocity":52,"Duration":386623,"SoundDuration":386623,"Delta":402084407},{"NoteNumber":57,"Velocity":59,"Duration":386623,"SoundDuration":386623,"Delta":402084407},{"NoteNumber":91,"Velocity":106,"Duration":616379,"SoundDuration":616379,"Delta":402474689},{"NoteNumber":87,"Velocity":106,"Duration":616379,"SoundDuration":616379,"Delta":402474689},{"NoteNumber":79,"Velocity":95,"Duration":616379,"SoundDuration":616379,"Delta":402474689},{"NoteNumber":34,"Velocity":76,"Duration":308190,"SoundDuration":308190,"Delta":402474689},{"NoteNumber":46,"Velocity":86,"Duration":308190,"SoundDuration":308190,"Delta":402474689},{"NoteNumber":50,"Velocity":64,"Duration":308189,"SoundDuration":308189,"Delta":402782879},{"NoteNumber":62,"Velocity":72,"Duration":308189,"SoundDuration":308189,"Delta":402782879},{"NoteNumber":79,"Velocity":97,"Duration":616379,"SoundDuration":616379,"Delta":403091069},{"NoteNumber":75,"Velocity":97,"Duration":616379,"SoundDuration":616379,"Delta":403091069},{"NoteNumber":67,"Velocity":87,"Duration":616379,"SoundDuration":616379,"Delta":403091069},{"NoteNumber":51,"Velocity":71,"Duration":308190,"SoundDuration":308190,"Delta":403091069},{"NoteNumber":63,"Velocity":80,"Duration":308190,"SoundDuration":308190,"Delta":403091069},{"NoteNumber":38,"Velocity":67,"Duration":308189,"SoundDuration":308189,"Delta":403399259},{"NoteNumber":50,"Velocity":73,"Duration":308189,"SoundDuration":308189,"Delta":403399259},{"NoteNumber":55,"Velocity":80,"Duration":662536,"SoundDuration":662536,"Delta":403707449},{"NoteNumber":63,"Velocity":90,"Duration":662536,"SoundDuration":662536,"Delta":403707449},{"NoteNumber":67,"Velocity":90,"Duration":662536,"SoundDuration":662536,"Delta":403707449},{"NoteNumber":39,"Velocity":70,"Duration":316305,"SoundDuration":316305,"Delta":403707449},{"NoteNumber":51,"Velocity":79,"Duration":316305,"SoundDuration":316305,"Delta":403707449},{"NoteNumber":34,"Velocity":65,"Duration":346230,"SoundDuration":346230,"Delta":404023755},{"NoteNumber":46,"Velocity":72,"Duration":346230,"SoundDuration":346230,"Delta":404023755},{"NoteNumber":59,"Velocity":81,"Duration":571048,"SoundDuration":571048,"Delta":404369985},{"NoteNumber":63,"Velocity":81,"Duration":571048,"SoundDuration":571048,"Delta":404369985},{"NoteNumber":66,"Velocity":88,"Duration":571048,"SoundDuration":571048,"Delta":404369985},{"NoteNumber":71,"Velocity":88,"Duration":571048,"SoundDuration":571048,"Delta":404369985},{"NoteNumber":47,"Velocity":62,"Duration":571048,"SoundDuration":571048,"Delta":404369985},{"NoteNumber":51,"Velocity":67,"Duration":571048,"SoundDuration":571048,"Delta":404369985},{"NoteNumber":54,"Velocity":67,"Duration":571048,"SoundDuration":571048,"Delta":404369985},{"NoteNumber":61,"Velocity":75,"Duration":609693,"SoundDuration":609693,"Delta":404941033},{"NoteNumber":66,"Velocity":75,"Duration":609693,"SoundDuration":609693,"Delta":404941033},{"NoteNumber":70,"Velocity":85,"Duration":609693,"SoundDuration":609693,"Delta":404941033},{"NoteNumber":73,"Velocity":85,"Duration":609693,"SoundDuration":609693,"Delta":404941033},{"NoteNumber":42,"Velocity":54,"Duration":609693,"SoundDuration":609693,"Delta":404941033},{"NoteNumber":49,"Velocity":54,"Duration":609693,"SoundDuration":609693,"Delta":404941033},{"NoteNumber":54,"Velocity":63,"Duration":609693,"SoundDuration":609693,"Delta":404941033},{"NoteNumber":91,"Velocity":106,"Duration":625537,"SoundDuration":625537,"Delta":405550727},{"NoteNumber":87,"Velocity":106,"Duration":625537,"SoundDuration":625537,"Delta":405550727},{"NoteNumber":79,"Velocity":95,"Duration":625537,"SoundDuration":625537,"Delta":405550727},{"NoteNumber":34,"Velocity":76,"Duration":312768,"SoundDuration":312768,"Delta":405550727},{"NoteNumber":46,"Velocity":86,"Duration":312768,"SoundDuration":312768,"Delta":405550727},{"NoteNumber":50,"Velocity":64,"Duration":312768,"SoundDuration":312768,"Delta":405863496},{"NoteNumber":62,"Velocity":72,"Duration":312768,"SoundDuration":312768,"Delta":405863496},{"NoteNumber":79,"Velocity":97,"Duration":625537,"SoundDuration":625537,"Delta":406176265},{"NoteNumber":75,"Velocity":97,"Duration":625537,"SoundDuration":625537,"Delta":406176265},{"NoteNumber":67,"Velocity":87,"Duration":625537,"SoundDuration":625537,"Delta":406176265},{"NoteNumber":51,"Velocity":71,"Duration":312768,"SoundDuration":312768,"Delta":406176265},{"NoteNumber":63,"Velocity":80,"Duration":312768,"SoundDuration":312768,"Delta":406176265},{"NoteNumber":38,"Velocity":67,"Duration":312768,"SoundDuration":312768,"Delta":406489033},{"NoteNumber":50,"Velocity":73,"Duration":312768,"SoundDuration":312768,"Delta":406489033},{"NoteNumber":55,"Velocity":80,"Duration":678346,"SoundDuration":678346,"Delta":406801802},{"NoteNumber":63,"Velocity":90,"Duration":678346,"SoundDuration":678346,"Delta":406801802},{"NoteNumber":67,"Velocity":90,"Duration":678346,"SoundDuration":678346,"Delta":406801802},{"NoteNumber":39,"Velocity":70,"Duration":324833,"SoundDuration":324833,"Delta":406801802},{"NoteNumber":51,"Velocity":79,"Duration":324833,"SoundDuration":324833,"Delta":406801802},{"NoteNumber":34,"Velocity":65,"Duration":353513,"SoundDuration":353513,"Delta":407126635},{"NoteNumber":46,"Velocity":72,"Duration":353513,"SoundDuration":353513,"Delta":407126635},{"NoteNumber":60,"Velocity":81,"Duration":637415,"SoundDuration":637415,"Delta":407480149},{"NoteNumber":63,"Velocity":81,"Duration":637415,"SoundDuration":637415,"Delta":407480149},{"NoteNumber":67,"Velocity":88,"Duration":637415,"SoundDuration":637415,"Delta":407480149},{"NoteNumber":72,"Velocity":88,"Duration":637415,"SoundDuration":637415,"Delta":407480149},{"NoteNumber":48,"Velocity":62,"Duration":637415,"SoundDuration":637415,"Delta":407480149},{"NoteNumber":51,"Velocity":67,"Duration":637415,"SoundDuration":637415,"Delta":407480149},{"NoteNumber":55,"Velocity":67,"Duration":637415,"SoundDuration":637415,"Delta":407480149},{"NoteNumber":62,"Velocity":75,"Duration":769526,"SoundDuration":769526,"Delta":408117565},{"NoteNumber":65,"Velocity":75,"Duration":769526,"SoundDuration":769526,"Delta":408117565},{"NoteNumber":70,"Velocity":85,"Duration":769526,"SoundDuration":769526,"Delta":408117565},{"NoteNumber":74,"Velocity":85,"Duration":769526,"SoundDuration":769526,"Delta":408117565},{"NoteNumber":46,"Velocity":54,"Duration":769526,"SoundDuration":769526,"Delta":408117565},{"NoteNumber":53,"Velocity":63,"Duration":769526,"SoundDuration":769526,"Delta":408117565},{"NoteNumber":58,"Velocity":63,"Duration":769526,"SoundDuration":769526,"Delta":408117565},{"NoteNumber":51,"Velocity":105,"Duration":2421376,"SoundDuration":2421376,"Delta":408887092},{"NoteNumber":27,"Velocity":89,"Duration":2421376,"SoundDuration":2421376,"Delta":408887092},{"NoteNumber":39,"Velocity":92,"Duration":2421376,"SoundDuration":2421376,"Delta":408887092},{"NoteNumber":63,"Velocity":83,"Duration":2119929,"SoundDuration":2119929,"Delta":409188539},{"NoteNumber":67,"Velocity":83,"Duration":2119929,"SoundDuration":2119929,"Delta":409188539},{"NoteNumber":70,"Velocity":99,"Duration":2119929,"SoundDuration":2119929,"Delta":409188539},{"NoteNumber":75,"Velocity":99,"Duration":2119929,"SoundDuration":2119929,"Delta":409188539},{"NoteNumber":43,"Velocity":66,"Duration":2119929,"SoundDuration":2119929,"Delta":409188539},{"NoteNumber":46,"Velocity":66,"Duration":2119929,"SoundDuration":2119929,"Delta":409188539},{"NoteNumber":51,"Velocity":80,"Duration":2119929,"SoundDuration":2119929,"Delta":409188539},{"NoteNumber":55,"Velocity":80,"Duration":2119929,"SoundDuration":2119929,"Delta":409188539},{"NoteNumber":51,"Velocity":95,"Duration":2598293,"SoundDuration":2598293,"Delta":411308468},{"NoteNumber":27,"Velocity":80,"Duration":2598293,"SoundDuration":2598293,"Delta":411308468},{"NoteNumber":39,"Velocity":91,"Duration":2598293,"SoundDuration":2598293,"Delta":411308468},{"NoteNumber":65,"Velocity":77,"Duration":2294280,"SoundDuration":2294280,"Delta":411612481},{"NoteNumber":70,"Velocity":77,"Duration":2294280,"SoundDuration":2294280,"Delta":411612481},{"NoteNumber":74,"Velocity":92,"Duration":2294280,"SoundDuration":2294280,"Delta":411612481},{"NoteNumber":77,"Velocity":92,"Duration":2294280,"SoundDuration":2294280,"Delta":411612481},{"NoteNumber":41,"Velocity":63,"Duration":2294280,"SoundDuration":2294280,"Delta":411612481},{"NoteNumber":46,"Velocity":63,"Duration":2294280,"SoundDuration":2294280,"Delta":411612481},{"NoteNumber":50,"Velocity":63,"Duration":2294280,"SoundDuration":2294280,"Delta":411612481},{"NoteNumber":53,"Velocity":75,"Duration":2294280,"SoundDuration":2294280,"Delta":411612481},{"NoteNumber":51,"Velocity":95,"Duration":1913185,"SoundDuration":1913185,"Delta":413906761},{"NoteNumber":39,"Velocity":90,"Duration":1913185,"SoundDuration":1913185,"Delta":413906761},{"NoteNumber":27,"Velocity":89,"Duration":1913185,"SoundDuration":1913185,"Delta":413906761},{"NoteNumber":67,"Velocity":83,"Duration":1645076,"SoundDuration":1645076,"Delta":414174870},{"NoteNumber":70,"Velocity":83,"Duration":1645076,"SoundDuration":1645076,"Delta":414174870},{"NoteNumber":75,"Velocity":99,"Duration":1645076,"SoundDuration":1645076,"Delta":414174870},{"NoteNumber":79,"Velocity":99,"Duration":1645076,"SoundDuration":1645076,"Delta":414174870},{"NoteNumber":43,"Velocity":66,"Duration":1645076,"SoundDuration":1645076,"Delta":414174870},{"NoteNumber":46,"Velocity":80,"Duration":1645076,"SoundDuration":1645076,"Delta":414174870},{"NoteNumber":51,"Velocity":80,"Duration":1645076,"SoundDuration":1645076,"Delta":414174870},{"NoteNumber":63,"Velocity":79,"Duration":803536,"SoundDuration":803536,"Delta":415819946},{"NoteNumber":67,"Velocity":79,"Duration":803536,"SoundDuration":803536,"Delta":415819946},{"NoteNumber":72,"Velocity":94,"Duration":803536,"SoundDuration":803536,"Delta":415819946},{"NoteNumber":75,"Velocity":94,"Duration":803536,"SoundDuration":803536,"Delta":415819946},{"NoteNumber":36,"Velocity":63,"Duration":803536,"SoundDuration":803536,"Delta":415819946},{"NoteNumber":39,"Velocity":63,"Duration":803536,"SoundDuration":803536,"Delta":415819946},{"NoteNumber":43,"Velocity":75,"Duration":803536,"SoundDuration":803536,"Delta":415819946},{"NoteNumber":48,"Velocity":75,"Duration":803536,"SoundDuration":803536,"Delta":415819946},{"NoteNumber":72,"Velocity":72,"Duration":820559,"SoundDuration":820559,"Delta":416623482},{"NoteNumber":75,"Velocity":86,"Duration":820559,"SoundDuration":820559,"Delta":416623482},{"NoteNumber":67,"Velocity":72,"Duration":820559,"SoundDuration":820559,"Delta":416623482},{"NoteNumber":79,"Velocity":86,"Duration":820559,"SoundDuration":820559,"Delta":416623482},{"NoteNumber":39,"Velocity":61,"Duration":820559,"SoundDuration":820559,"Delta":416623482},{"NoteNumber":43,"Velocity":61,"Duration":820559,"SoundDuration":820559,"Delta":416623482},{"NoteNumber":48,"Velocity":70,"Duration":820559,"SoundDuration":820559,"Delta":416623482},{"NoteNumber":51,"Velocity":70,"Duration":820559,"SoundDuration":820559,"Delta":416623482},{"NoteNumber":65,"Velocity":73,"Duration":1642600,"SoundDuration":1642600,"Delta":417444042},{"NoteNumber":70,"Velocity":73,"Duration":1642600,"SoundDuration":1642600,"Delta":417444042},{"NoteNumber":74,"Velocity":89,"Duration":1642600,"SoundDuration":1642600,"Delta":417444042},{"NoteNumber":77,"Velocity":89,"Duration":1642600,"SoundDuration":1642600,"Delta":417444042},{"NoteNumber":38,"Velocity":61,"Duration":1642600,"SoundDuration":1642600,"Delta":417444042},{"NoteNumber":41,"Velocity":61,"Duration":1642600,"SoundDuration":1642600,"Delta":417444042},{"NoteNumber":46,"Velocity":70,"Duration":1642600,"SoundDuration":1642600,"Delta":417444042},{"NoteNumber":50,"Velocity":70,"Duration":1642600,"SoundDuration":1642600,"Delta":417444042},{"NoteNumber":58,"Velocity":81,"Duration":1539937,"SoundDuration":1539937,"Delta":419086642},{"NoteNumber":70,"Velocity":95,"Duration":1539937,"SoundDuration":1539937,"Delta":419086642},{"NoteNumber":34,"Velocity":80,"Duration":1539937,"SoundDuration":1539937,"Delta":419086642},{"NoteNumber":46,"Velocity":80,"Duration":1539937,"SoundDuration":1539937,"Delta":419086642},{"NoteNumber":63,"Velocity":99,"Duration":251635,"SoundDuration":251635,"Delta":420626579},{"NoteNumber":60,"Velocity":99,"Duration":251635,"SoundDuration":251635,"Delta":420626579},{"NoteNumber":53,"Velocity":82,"Duration":251635,"SoundDuration":251635,"Delta":420626579},{"NoteNumber":56,"Velocity":82,"Duration":251635,"SoundDuration":251635,"Delta":420626579},{"NoteNumber":68,"Velocity":81,"Duration":1902266,"SoundDuration":1902266,"Delta":420878215},{"NoteNumber":72,"Velocity":81,"Duration":1902266,"SoundDuration":1902266,"Delta":420878215},{"NoteNumber":75,"Velocity":97,"Duration":1902266,"SoundDuration":1902266,"Delta":420878215},{"NoteNumber":80,"Velocity":97,"Duration":1902266,"SoundDuration":1902266,"Delta":420878215},{"NoteNumber":29,"Velocity":77,"Duration":1902266,"SoundDuration":1902266,"Delta":420878215},{"NoteNumber":41,"Velocity":77,"Duration":1902266,"SoundDuration":1902266,"Delta":420878215},{"NoteNumber":67,"Velocity":92,"Duration":251635,"SoundDuration":251635,"Delta":422780481},{"NoteNumber":62,"Velocity":92,"Duration":251635,"SoundDuration":251635,"Delta":422780481},{"NoteNumber":55,"Velocity":73,"Duration":251635,"SoundDuration":251635,"Delta":422780481},{"NoteNumber":58,"Velocity":73,"Duration":251635,"SoundDuration":251635,"Delta":422780481},{"NoteNumber":70,"Velocity":81,"Duration":1902266,"SoundDuration":1902266,"Delta":423032117},{"NoteNumber":74,"Velocity":81,"Duration":1902266,"SoundDuration":1902266,"Delta":423032117},{"NoteNumber":79,"Velocity":97,"Duration":1902266,"SoundDuration":1902266,"Delta":423032117},{"NoteNumber":82,"Velocity":97,"Duration":1902266,"SoundDuration":1902266,"Delta":423032117},{"NoteNumber":31,"Velocity":77,"Duration":1902266,"SoundDuration":1902266,"Delta":423032117},{"NoteNumber":43,"Velocity":77,"Duration":1902266,"SoundDuration":1902266,"Delta":423032117},{"NoteNumber":63,"Velocity":92,"Duration":247933,"SoundDuration":247933,"Delta":424934383},{"NoteNumber":67,"Velocity":92,"Duration":247933,"SoundDuration":247933,"Delta":424934383},{"NoteNumber":51,"Velocity":73,"Duration":247933,"SoundDuration":247933,"Delta":424934383},{"NoteNumber":58,"Velocity":73,"Duration":247933,"SoundDuration":247933,"Delta":424934383},{"NoteNumber":79,"Velocity":89,"Duration":977915,"SoundDuration":977915,"Delta":425182317},{"NoteNumber":82,"Velocity":89,"Duration":977915,"SoundDuration":977915,"Delta":425182317},{"NoteNumber":87,"Velocity":108,"Duration":977915,"SoundDuration":977915,"Delta":425182317},{"NoteNumber":91,"Velocity":108,"Duration":977915,"SoundDuration":977915,"Delta":425182317},{"NoteNumber":27,"Velocity":77,"Duration":977915,"SoundDuration":977915,"Delta":425182317},{"NoteNumber":39,"Velocity":86,"Duration":977915,"SoundDuration":977915,"Delta":425182317},{"NoteNumber":63,"Velocity":84,"Duration":977915,"SoundDuration":977915,"Delta":426160233},{"NoteNumber":67,"Velocity":84,"Duration":977915,"SoundDuration":977915,"Delta":426160233},{"NoteNumber":70,"Velocity":99,"Duration":977915,"SoundDuration":977915,"Delta":426160233},{"NoteNumber":55,"Velocity":67,"Duration":977915,"SoundDuration":977915,"Delta":426160233},{"NoteNumber":58,"Velocity":67,"Duration":977915,"SoundDuration":977915,"Delta":426160233},{"NoteNumber":79,"Velocity":89,"Duration":977915,"SoundDuration":977915,"Delta":427138149},{"NoteNumber":82,"Velocity":89,"Duration":977915,"SoundDuration":977915,"Delta":427138149},{"NoteNumber":87,"Velocity":108,"Duration":977915,"SoundDuration":977915,"Delta":427138149},{"NoteNumber":91,"Velocity":108,"Duration":977915,"SoundDuration":977915,"Delta":427138149},{"NoteNumber":27,"Velocity":77,"Duration":977915,"SoundDuration":977915,"Delta":427138149},{"NoteNumber":39,"Velocity":86,"Duration":977915,"SoundDuration":977915,"Delta":427138149},{"NoteNumber":63,"Velocity":84,"Duration":974624,"SoundDuration":974624,"Delta":428116065},{"NoteNumber":67,"Velocity":85,"Duration":974624,"SoundDuration":974624,"Delta":428116065},{"NoteNumber":70,"Velocity":99,"Duration":974624,"SoundDuration":974624,"Delta":428116065},{"NoteNumber":55,"Velocity":67,"Duration":974624,"SoundDuration":974624,"Delta":428116065},{"NoteNumber":58,"Velocity":67,"Duration":974624,"SoundDuration":974624,"Delta":428116065},{"NoteNumber":51,"Velocity":95,"Duration":3292678,"SoundDuration":3292678,"Delta":429090690},{"NoteNumber":63,"Velocity":108,"Duration":3292678,"SoundDuration":3292678,"Delta":429090690},{"NoteNumber":27,"Velocity":70,"Duration":105946,"SoundDuration":105946,"Delta":429090690},{"NoteNumber":39,"Velocity":62,"Duration":106889,"SoundDuration":106889,"Delta":429196636},{"NoteNumber":27,"Velocity":70,"Duration":105826,"SoundDuration":105826,"Delta":429303526},{"NoteNumber":39,"Velocity":59,"Duration":106011,"SoundDuration":106011,"Delta":429409353},{"NoteNumber":27,"Velocity":70,"Duration":105332,"SoundDuration":105332,"Delta":429515364},{"NoteNumber":39,"Velocity":63,"Duration":105512,"SoundDuration":105512,"Delta":429620697},{"NoteNumber":27,"Velocity":71,"Duration":104721,"SoundDuration":104721,"Delta":429726209},{"NoteNumber":39,"Velocity":62,"Duration":104774,"SoundDuration":104774,"Delta":429830931},{"NoteNumber":27,"Velocity":70,"Duration":104415,"SoundDuration":104415,"Delta":429935705},{"NoteNumber":39,"Velocity":62,"Duration":104536,"SoundDuration":104536,"Delta":430040120},{"NoteNumber":27,"Velocity":71,"Duration":104595,"SoundDuration":104595,"Delta":430144656},{"NoteNumber":39,"Velocity":64,"Duration":103507,"SoundDuration":103507,"Delta":430249252},{"NoteNumber":27,"Velocity":73,"Duration":104714,"SoundDuration":104714,"Delta":430352760},{"NoteNumber":39,"Velocity":65,"Duration":103044,"SoundDuration":103044,"Delta":430457474},{"NoteNumber":27,"Velocity":76,"Duration":102858,"SoundDuration":102858,"Delta":430560519},{"NoteNumber":39,"Velocity":66,"Duration":103332,"SoundDuration":103332,"Delta":430663377},{"NoteNumber":27,"Velocity":79,"Duration":102156,"SoundDuration":102156,"Delta":430766710},{"NoteNumber":39,"Velocity":70,"Duration":103449,"SoundDuration":103449,"Delta":430868867},{"NoteNumber":27,"Velocity":81,"Duration":103096,"SoundDuration":103096,"Delta":430972316},{"NoteNumber":39,"Velocity":72,"Duration":101351,"SoundDuration":101351,"Delta":431075413},{"NoteNumber":27,"Velocity":83,"Duration":102041,"SoundDuration":102041,"Delta":431176764},{"NoteNumber":39,"Velocity":77,"Duration":101812,"SoundDuration":101812,"Delta":431278806},{"NoteNumber":27,"Velocity":86,"Duration":100784,"SoundDuration":100784,"Delta":431380618},{"NoteNumber":39,"Velocity":80,"Duration":101239,"SoundDuration":101239,"Delta":431481403},{"NoteNumber":27,"Velocity":88,"Duration":99834,"SoundDuration":99834,"Delta":431582642},{"NoteNumber":39,"Velocity":80,"Duration":100787,"SoundDuration":100787,"Delta":431682476},{"NoteNumber":27,"Velocity":91,"Duration":101467,"SoundDuration":101467,"Delta":431783264},{"NoteNumber":39,"Velocity":84,"Duration":99616,"SoundDuration":99616,"Delta":431884731},{"NoteNumber":27,"Velocity":99,"Duration":99176,"SoundDuration":99176,"Delta":431984348},{"NoteNumber":39,"Velocity":89,"Duration":100671,"SoundDuration":100671,"Delta":432083524},{"NoteNumber":27,"Velocity":103,"Duration":99834,"SoundDuration":99834,"Delta":432184196},{"NoteNumber":39,"Velocity":92,"Duration":99337,"SoundDuration":99337,"Delta":432284031},{"NoteNumber":51,"Velocity":110,"Duration":1189611,"SoundDuration":1189611,"Delta":432383369},{"NoteNumber":27,"Velocity":96,"Duration":1189611,"SoundDuration":1189611,"Delta":432383369},{"NoteNumber":39,"Velocity":104,"Duration":1189611,"SoundDuration":1189611,"Delta":432383369}],"license":{"name":"Creative Commons Attribution-ShareAlike 3.0 Germany","url":"http://creativecommons.org/licenses/by-sa/3.0/de/deed.en","text":"The MIDI, audio (MP3, OGG) and video files of Bernd Krueger are licensed under the cc-by-sa Germany License. This means that you can use and adapt the files, as long as you attribute the copyright holder.\n\nName: Bernd Krueger\nSource: http://www.piano-midi.de\n\nThe distribution or public playback of the files is only allowed under identical license conditions.\n\nThe scores are open source.","attribution":"MIDI files by Bernd Krueger (piano-midi.de)","attributionUrl":"http://www.piano-midi.de"}}