{"title":"Bydlo","artist":"Mussorgsky","durationMs":168250,"midiSha256":"b09fc3d614913c66fc1ed6c2722e1a1f564ee46bb8906433922fe1f43d578380","midiObject":[{"NoteNumber":32,"Velocity":32,"Duration":666667,"SoundDuration":666667,"Delta":0},{"NoteNumber":39,"Velocity":32,"Duration":666667,"SoundDuration":666667,"Delta":0},{"NoteNumber":44,"Velocity":38,"Duration":666667,"SoundDuration":666667,"Delta":0},{"NoteNumber":39,"Velocity":29,"Duration":666667,"SoundDuration":666667,"Delta":666667},{"NoteNumber":35,"Velocity":29,"Duration":666667,"SoundDuration":666667,"Delta":666667},{"NoteNumber":47,"Velocity":35,"Duration":666667,"SoundDuration":666667,"Delta":666667},{"NoteNumber":51,"Velocity":57,"Duration":1978143,"SoundDuration":1978143,"Delta":1333334},{"NoteNumber":32,"Velocity":32,"Duration":666667,"SoundDuration":666667,"Delta":1333334},{"NoteNumber":44,"Velocity":38,"Duration":666667,"SoundDuration":666667,"Delta":1333334},{"NoteNumber":39,"Velocity":32,"Duration":666667,"SoundDuration":666667,"Delta":1333334},{"NoteNumber":39,"Velocity":29,"Duration":655737,"SoundDuration":655737,"Delta":2000001},{"NoteNumber":47,"Velocity":35,"Duration":655737,"SoundDuration":655737,"Delta":2000001},{"NoteNumber":35,"Velocity":29,"Duration":655737,"SoundDuration":655737,"Delta":2000001},{"NoteNumber":32,"Velocity":32,"Duration":655737,"SoundDuration":655737,"Delta":2655739},{"NoteNumber":44,"Velocity":38,"Duration":655737,"SoundDuration":655737,"Delta":2655739},{"NoteNumber":39,"Velocity":32,"Duration":655737,"SoundDuration":655737,"Delta":2655739},{"NoteNumber":54,"Velocity":59,"Duration":326086,"SoundDuration":326086,"Delta":3311477},{"NoteNumber":35,"Velocity":29,"Duration":652174,"SoundDuration":652174,"Delta":3311477},{"NoteNumber":47,"Velocity":35,"Duration":652174,"SoundDuration":652174,"Delta":3311477},{"NoteNumber":39,"Velocity":29,"Duration":652174,"SoundDuration":652174,"Delta":3311477},{"NoteNumber":52,"Velocity":55,"Duration":326087,"SoundDuration":326087,"Delta":3637564},{"NoteNumber":51,"Velocity":59,"Duration":659341,"SoundDuration":659341,"Delta":3963651},{"NoteNumber":39,"Velocity":32,"Duration":659341,"SoundDuration":659341,"Delta":3963651},{"NoteNumber":32,"Velocity":32,"Duration":659341,"SoundDuration":659341,"Delta":3963651},{"NoteNumber":44,"Velocity":38,"Duration":659341,"SoundDuration":659341,"Delta":3963651},{"NoteNumber":52,"Velocity":56,"Duration":655738,"SoundDuration":655738,"Delta":4622992},{"NoteNumber":39,"Velocity":29,"Duration":655738,"SoundDuration":655738,"Delta":4622992},{"NoteNumber":35,"Velocity":29,"Duration":655738,"SoundDuration":655738,"Delta":4622992},{"NoteNumber":47,"Velocity":35,"Duration":655738,"SoundDuration":655738,"Delta":4622992},{"NoteNumber":51,"Velocity":59,"Duration":666667,"SoundDuration":666667,"Delta":5278730},{"NoteNumber":39,"Velocity":32,"Duration":666667,"SoundDuration":666667,"Delta":5278730},{"NoteNumber":32,"Velocity":32,"Duration":666667,"SoundDuration":666667,"Delta":5278730},{"NoteNumber":44,"Velocity":38,"Duration":666667,"SoundDuration":666667,"Delta":5278730},{"NoteNumber":56,"Velocity":69,"Duration":645160,"SoundDuration":645160,"Delta":5945397},{"NoteNumber":39,"Velocity":29,"Duration":645160,"SoundDuration":645160,"Delta":5945397},{"NoteNumber":47,"Velocity":35,"Duration":645160,"SoundDuration":645160,"Delta":5945397},{"NoteNumber":35,"Velocity":29,"Duration":645160,"SoundDuration":645160,"Delta":5945397},{"NoteNumber":58,"Velocity":70,"Duration":645160,"SoundDuration":645160,"Delta":6590558},{"NoteNumber":39,"Velocity":35,"Duration":645160,"SoundDuration":645160,"Delta":6590558},{"NoteNumber":44,"Velocity":42,"Duration":645160,"SoundDuration":645160,"Delta":6590558},{"NoteNumber":32,"Velocity":35,"Duration":645160,"SoundDuration":645160,"Delta":6590558},{"NoteNumber":59,"Velocity":70,"Duration":655738,"SoundDuration":655738,"Delta":7235719},{"NoteNumber":39,"Velocity":31,"Duration":655738,"SoundDuration":655738,"Delta":7235719},{"NoteNumber":35,"Velocity":31,"Duration":655738,"SoundDuration":655738,"Delta":7235719},{"NoteNumber":47,"Velocity":37,"Duration":655738,"SoundDuration":655738,"Delta":7235719},{"NoteNumber":58,"Velocity":73,"Duration":1326007,"SoundDuration":1326007,"Delta":7891457},{"NoteNumber":39,"Velocity":36,"Duration":666667,"SoundDuration":666667,"Delta":7891457},{"NoteNumber":32,"Velocity":36,"Duration":666667,"SoundDuration":666667,"Delta":7891457},{"NoteNumber":44,"Velocity":43,"Duration":666667,"SoundDuration":666667,"Delta":7891457},{"NoteNumber":39,"Velocity":32,"Duration":659340,"SoundDuration":659340,"Delta":8558124},{"NoteNumber":35,"Velocity":32,"Duration":659340,"SoundDuration":659340,"Delta":8558124},{"NoteNumber":47,"Velocity":38,"Duration":659340,"SoundDuration":659340,"Delta":8558124},{"NoteNumber":56,"Velocity":67,"Duration":666667,"SoundDuration":666667,"Delta":9217465},{"NoteNumber":39,"Velocity":32,"Duration":666667,"SoundDuration":666667,"Delta":9217465},{"NoteNumber":44,"Velocity":38,"Duration":666667,"SoundDuration":666667,"Delta":9217465},{"NoteNumber":32,"Velocity":32,"Duration":666667,"SoundDuration":666667,"Delta":9217465},{"NoteNumber":39,"Velocity":29,"Duration":666667,"SoundDuration":666667,"Delta":9884132},{"NoteNumber":47,"Velocity":35,"Duration":666667,"SoundDuration":666667,"Delta":9884132},{"NoteNumber":35,"Velocity":29,"Duration":666667,"SoundDuration":666667,"Delta":9884132},{"NoteNumber":61,"Velocity":73,"Duration":1322404,"SoundDuration":1322404,"Delta":10550799},{"NoteNumber":33,"Velocity":38,"Duration":666667,"SoundDuration":666667,"Delta":10550799},{"NoteNumber":37,"Velocity":38,"Duration":666667,"SoundDuration":666667,"Delta":10550799},{"NoteNumber":45,"Velocity":45,"Duration":666667,"SoundDuration":666667,"Delta":10550799},{"NoteNumber":37,"Velocity":34,"Duration":655737,"SoundDuration":655737,"Delta":11217466},{"NoteNumber":49,"Velocity":41,"Duration":655737,"SoundDuration":655737,"Delta":11217466},{"NoteNumber":40,"Velocity":34,"Duration":655737,"SoundDuration":655737,"Delta":11217466},{"NoteNumber":68,"Velocity":69,"Duration":666667,"SoundDuration":666667,"Delta":11873204},{"NoteNumber":32,"Velocity":37,"Duration":666667,"SoundDuration":666667,"Delta":11873204},{"NoteNumber":40,"Velocity":44,"Duration":666667,"SoundDuration":666667,"Delta":11873204},{"NoteNumber":28,"Velocity":37,"Duration":666667,"SoundDuration":666667,"Delta":11873204},{"NoteNumber":35,"Velocity":33,"Duration":655737,"SoundDuration":655737,"Delta":12539871},{"NoteNumber":44,"Velocity":39,"Duration":655737,"SoundDuration":655737,"Delta":12539871},{"NoteNumber":32,"Velocity":33,"Duration":655737,"SoundDuration":655737,"Delta":12539871},{"NoteNumber":61,"Velocity":74,"Duration":1333334,"SoundDuration":1333334,"Delta":13195609},{"NoteNumber":37,"Velocity":38,"Duration":666667,"SoundDuration":666667,"Delta":13195609},{"NoteNumber":33,"Velocity":38,"Duration":666667,"SoundDuration":666667,"Delta":13195609},{"NoteNumber":45,"Velocity":45,"Duration":666667,"SoundDuration":666667,"Delta":13195609},{"NoteNumber":37,"Velocity":33,"Duration":666667,"SoundDuration":666667,"Delta":13862276},{"NoteNumber":40,"Velocity":33,"Duration":666667,"SoundDuration":666667,"Delta":13862276},{"NoteNumber":49,"Velocity":39,"Duration":666667,"SoundDuration":666667,"Delta":13862276},{"NoteNumber":68,"Velocity":69,"Duration":648649,"SoundDuration":648649,"Delta":14528943},{"NoteNumber":28,"Velocity":38,"Duration":648649,"SoundDuration":648649,"Delta":14528943},{"NoteNumber":32,"Velocity":38,"Duration":648649,"SoundDuration":648649,"Delta":14528943},{"NoteNumber":40,"Velocity":45,"Duration":648649,"SoundDuration":648649,"Delta":14528943},{"NoteNumber":68,"Velocity":67,"Duration":655737,"SoundDuration":655737,"Delta":15177592},{"NoteNumber":32,"Velocity":34,"Duration":655737,"SoundDuration":655737,"Delta":15177592},{"NoteNumber":35,"Velocity":34,"Duration":655737,"SoundDuration":655737,"Delta":15177592},{"NoteNumber":44,"Velocity":40,"Duration":655737,"SoundDuration":655737,"Delta":15177592},{"NoteNumber":63,"Velocity":70,"Duration":1318840,"SoundDuration":1318840,"Delta":15833330},{"NoteNumber":34,"Velocity":38,"Duration":666666,"SoundDuration":666666,"Delta":15833330},{"NoteNumber":31,"Velocity":38,"Duration":666666,"SoundDuration":666666,"Delta":15833330},{"NoteNumber":43,"Velocity":45,"Duration":666666,"SoundDuration":666666,"Delta":15833330},{"NoteNumber":34,"Velocity":29,"Duration":652173,"SoundDuration":652173,"Delta":16499997},{"NoteNumber":39,"Velocity":29,"Duration":652173,"SoundDuration":652173,"Delta":16499997},{"NoteNumber":46,"Velocity":35,"Duration":652173,"SoundDuration":652173,"Delta":16499997},{"NoteNumber":61,"Velocity":68,"Duration":1322404,"SoundDuration":1322404,"Delta":17152171},{"NoteNumber":31,"Velocity":32,"Duration":666667,"SoundDuration":666667,"Delta":17152171},{"NoteNumber":34,"Velocity":32,"Duration":666667,"SoundDuration":666667,"Delta":17152171},{"NoteNumber":43,"Velocity":38,"Duration":666667,"SoundDuration":666667,"Delta":17152171},{"NoteNumber":34,"Velocity":29,"Duration":655737,"SoundDuration":655737,"Delta":17818838},{"NoteNumber":39,"Velocity":29,"Duration":655737,"SoundDuration":655737,"Delta":17818838},{"NoteNumber":46,"Velocity":35,"Duration":655737,"SoundDuration":655737,"Delta":17818838},{"NoteNumber":59,"Velocity":66,"Duration":648648,"SoundDuration":648648,"Delta":18474576},{"NoteNumber":32,"Velocity":35,"Duration":648648,"SoundDuration":648648,"Delta":18474576},{"NoteNumber":39,"Velocity":35,"Duration":648648,"SoundDuration":648648,"Delta":18474576},{"NoteNumber":44,"Velocity":42,"Duration":648648,"SoundDuration":648648,"Delta":18474576},{"NoteNumber":63,"Velocity":62,"Duration":655737,"SoundDuration":655737,"Delta":19123224},{"NoteNumber":35,"Velocity":29,"Duration":655737,"SoundDuration":655737,"Delta":19123224},{"NoteNumber":39,"Velocity":29,"Duration":655737,"SoundDuration":655737,"Delta":19123224},{"NoteNumber":47,"Velocity":35,"Duration":655737,"SoundDuration":655737,"Delta":19123224},{"NoteNumber":58,"Velocity":66,"Duration":655737,"SoundDuration":655737,"Delta":19778962},{"NoteNumber":31,"Velocity":32,"Duration":655737,"SoundDuration":655737,"Delta":19778962},{"NoteNumber":34,"Velocity":32,"Duration":655737,"SoundDuration":655737,"Delta":19778962},{"NoteNumber":43,"Velocity":38,"Duration":655737,"SoundDuration":655737,"Delta":19778962},{"NoteNumber":34,"Velocity":29,"Duration":666667,"SoundDuration":666667,"Delta":20434700},{"NoteNumber":39,"Velocity":29,"Duration":666667,"SoundDuration":666667,"Delta":20434700},{"NoteNumber":46,"Velocity":35,"Duration":666667,"SoundDuration":666667,"Delta":20434700},{"NoteNumber":56,"Velocity":69,"Duration":1333334,"SoundDuration":1333334,"Delta":21101367},{"NoteNumber":32,"Velocity":34,"Duration":666667,"SoundDuration":666667,"Delta":21101367},{"NoteNumber":35,"Velocity":34,"Duration":666667,"SoundDuration":666667,"Delta":21101367},{"NoteNumber":44,"Velocity":40,"Duration":666667,"SoundDuration":666667,"Delta":21101367},{"NoteNumber":35,"Velocity":29,"Duration":666667,"SoundDuration":666667,"Delta":21768034},{"NoteNumber":39,"Velocity":29,"Duration":666667,"SoundDuration":666667,"Delta":21768034},{"NoteNumber":47,"Velocity":35,"Duration":666667,"SoundDuration":666667,"Delta":21768034},{"NoteNumber":54,"Velocity":57,"Duration":655737,"SoundDuration":655737,"Delta":22434701},{"NoteNumber":33,"Velocity":32,"Duration":655737,"SoundDuration":655737,"Delta":22434701},{"NoteNumber":37,"Velocity":32,"Duration":655737,"SoundDuration":655737,"Delta":22434701},{"NoteNumber":45,"Velocity":38,"Duration":655737,"SoundDuration":655737,"Delta":22434701},{"NoteNumber":52,"Velocity":53,"Duration":674157,"SoundDuration":674157,"Delta":23090439},{"NoteNumber":37,"Velocity":28,"Duration":674157,"SoundDuration":674157,"Delta":23090439},{"NoteNumber":40,"Velocity":28,"Duration":674157,"SoundDuration":674157,"Delta":23090439},{"NoteNumber":49,"Velocity":33,"Duration":674157,"SoundDuration":674157,"Delta":23090439},{"NoteNumber":51,"Velocity":55,"Duration":666667,"SoundDuration":666667,"Delta":23764597},{"NoteNumber":32,"Velocity":30,"Duration":666667,"SoundDuration":666667,"Delta":23764597},{"NoteNumber":39,"Velocity":30,"Duration":666667,"SoundDuration":666667,"Delta":23764597},{"NoteNumber":44,"Velocity":36,"Duration":666667,"SoundDuration":666667,"Delta":23764597},{"NoteNumber":35,"Velocity":26,"Duration":677966,"SoundDuration":677966,"Delta":24431264},{"NoteNumber":39,"Velocity":26,"Duration":677966,"SoundDuration":677966,"Delta":24431264},{"NoteNumber":47,"Velocity":31,"Duration":677966,"SoundDuration":677966,"Delta":24431264},{"NoteNumber":51,"Velocity":67,"Duration":1985408,"SoundDuration":1985408,"Delta":25109230},{"NoteNumber":32,"Velocity":38,"Duration":666667,"SoundDuration":666667,"Delta":25109230},{"NoteNumber":39,"Velocity":38,"Duration":666667,"SoundDuration":666667,"Delta":25109230},{"NoteNumber":44,"Velocity":45,"Duration":666667,"SoundDuration":666667,"Delta":25109230},{"NoteNumber":35,"Velocity":32,"Duration":655737,"SoundDuration":655737,"Delta":25775897},{"NoteNumber":39,"Velocity":32,"Duration":655737,"SoundDuration":655737,"Delta":25775897},{"NoteNumber":47,"Velocity":38,"Duration":655737,"SoundDuration":655737,"Delta":25775897},{"NoteNumber":32,"Velocity":34,"Duration":663003,"SoundDuration":663003,"Delta":26431635},{"NoteNumber":39,"Velocity":34,"Duration":663003,"SoundDuration":663003,"Delta":26431635},{"NoteNumber":44,"Velocity":41,"Duration":663003,"SoundDuration":663003,"Delta":26431635},{"NoteNumber":54,"Velocity":64,"Duration":324324,"SoundDuration":324324,"Delta":27094638},{"NoteNumber":35,"Velocity":32,"Duration":648648,"SoundDuration":648648,"Delta":27094638},{"NoteNumber":39,"Velocity":32,"Duration":648648,"SoundDuration":648648,"Delta":27094638},{"NoteNumber":47,"Velocity":38,"Duration":648648,"SoundDuration":648648,"Delta":27094638},{"NoteNumber":52,"Velocity":60,"Duration":324324,"SoundDuration":324324,"Delta":27418963},{"NoteNumber":51,"Velocity":64,"Duration":662983,"SoundDuration":662983,"Delta":27743287},{"NoteNumber":32,"Velocity":34,"Duration":662983,"SoundDuration":662983,"Delta":27743287},{"NoteNumber":39,"Velocity":34,"Duration":662983,"SoundDuration":662983,"Delta":27743287},{"NoteNumber":44,"Velocity":41,"Duration":662983,"SoundDuration":662983,"Delta":27743287},{"NoteNumber":52,"Velocity":61,"Duration":652173,"SoundDuration":652173,"Delta":28406270},{"NoteNumber":35,"Velocity":32,"Duration":652173,"SoundDuration":652173,"Delta":28406270},{"NoteNumber":39,"Velocity":32,"Duration":652173,"SoundDuration":652173,"Delta":28406270},{"NoteNumber":47,"Velocity":38,"Duration":652173,"SoundDuration":652173,"Delta":28406270},{"NoteNumber":51,"Velocity":64,"Duration":655737,"SoundDuration":655737,"Delta":29058444},{"NoteNumber":32,"Velocity":34,"Duration":655737,"SoundDuration":655737,"Delta":29058444},{"NoteNumber":39,"Velocity":34,"Duration":655737,"SoundDuration":655737,"Delta":29058444},{"NoteNumber":44,"Velocity":41,"Duration":655737,"SoundDuration":655737,"Delta":29058444},{"NoteNumber":56,"Velocity":75,"Duration":645161,"SoundDuration":645161,"Delta":29714182},{"NoteNumber":35,"Velocity":32,"Duration":645161,"SoundDuration":645161,"Delta":29714182},{"NoteNumber":39,"Velocity":32,"Duration":645161,"SoundDuration":645161,"Delta":29714182},{"NoteNumber":47,"Velocity":38,"Duration":645161,"SoundDuration":645161,"Delta":29714182},{"NoteNumber":58,"Velocity":77,"Duration":634920,"SoundDuration":634920,"Delta":30359343},{"NoteNumber":32,"Velocity":39,"Duration":634920,"SoundDuration":634920,"Delta":30359343},{"NoteNumber":39,"Velocity":39,"Duration":634920,"SoundDuration":634920,"Delta":30359343},{"NoteNumber":44,"Velocity":46,"Duration":634920,"SoundDuration":634920,"Delta":30359343},{"NoteNumber":59,"Velocity":77,"Duration":655737,"SoundDuration":655737,"Delta":30994264},{"NoteNumber":35,"Velocity":34,"Duration":655737,"SoundDuration":655737,"Delta":30994264},{"NoteNumber":39,"Velocity":34,"Duration":655737,"SoundDuration":655737,"Delta":30994264},{"NoteNumber":47,"Velocity":40,"Duration":655737,"SoundDuration":655737,"Delta":30994264},{"NoteNumber":58,"Velocity":80,"Duration":1318841,"SoundDuration":1318841,"Delta":31650002},{"NoteNumber":32,"Velocity":39,"Duration":666667,"SoundDuration":666667,"Delta":31650002},{"NoteNumber":39,"Velocity":39,"Duration":666667,"SoundDuration":666667,"Delta":31650002},{"NoteNumber":44,"Velocity":47,"Duration":666667,"SoundDuration":666667,"Delta":31650002},{"NoteNumber":35,"Velocity":34,"Duration":652174,"SoundDuration":652174,"Delta":32316669},{"NoteNumber":39,"Velocity":34,"Duration":652174,"SoundDuration":652174,"Delta":32316669},{"NoteNumber":47,"Velocity":41,"Duration":652174,"SoundDuration":652174,"Delta":32316669},{"NoteNumber":56,"Velocity":77,"Duration":666666,"SoundDuration":666666,"Delta":32968843},{"NoteNumber":32,"Velocity":34,"Duration":666666,"SoundDuration":666666,"Delta":32968843},{"NoteNumber":39,"Velocity":34,"Duration":666666,"SoundDuration":666666,"Delta":32968843},{"NoteNumber":44,"Velocity":41,"Duration":666666,"SoundDuration":666666,"Delta":32968843},{"NoteNumber":35,"Velocity":32,"Duration":666667,"SoundDuration":666667,"Delta":33635510},{"NoteNumber":39,"Velocity":32,"Duration":666667,"SoundDuration":666667,"Delta":33635510},{"NoteNumber":47,"Velocity":38,"Duration":666667,"SoundDuration":666667,"Delta":33635510},{"NoteNumber":61,"Velocity":80,"Duration":1322404,"SoundDuration":1322404,"Delta":34302178},{"NoteNumber":37,"Velocity":46,"Duration":666666,"SoundDuration":666666,"Delta":34302178},{"NoteNumber":33,"Velocity":46,"Duration":666666,"SoundDuration":666666,"Delta":34302178},{"NoteNumber":45,"Velocity":55,"Duration":666666,"SoundDuration":666666,"Delta":34302178},{"NoteNumber":37,"Velocity":41,"Duration":655737,"SoundDuration":655737,"Delta":34968844},{"NoteNumber":40,"Velocity":41,"Duration":655737,"SoundDuration":655737,"Delta":34968844},{"NoteNumber":49,"Velocity":49,"Duration":655737,"SoundDuration":655737,"Delta":34968844},{"NoteNumber":64,"Velocity":75,"Duration":666666,"SoundDuration":666666,"Delta":35624582},{"NoteNumber":28,"Velocity":45,"Duration":666666,"SoundDuration":666666,"Delta":35624582},{"NoteNumber":32,"Velocity":45,"Duration":666666,"SoundDuration":666666,"Delta":35624582},{"NoteNumber":40,"Velocity":53,"Duration":666666,"SoundDuration":666666,"Delta":35624582},{"NoteNumber":32,"Velocity":41,"Duration":666667,"SoundDuration":666667,"Delta":36291249},{"NoteNumber":35,"Velocity":41,"Duration":666667,"SoundDuration":666667,"Delta":36291249},{"NoteNumber":44,"Velocity":49,"Duration":666667,"SoundDuration":666667,"Delta":36291249},{"NoteNumber":64,"Velocity":81,"Duration":1326007,"SoundDuration":1326007,"Delta":36957916},{"NoteNumber":37,"Velocity":48,"Duration":666666,"SoundDuration":666666,"Delta":36957916},{"NoteNumber":33,"Velocity":48,"Duration":666666,"SoundDuration":666666,"Delta":36957916},{"NoteNumber":45,"Velocity":57,"Duration":666666,"SoundDuration":666666,"Delta":36957916},{"NoteNumber":37,"Velocity":43,"Duration":659340,"SoundDuration":659340,"Delta":37624583},{"NoteNumber":40,"Velocity":43,"Duration":659340,"SoundDuration":659340,"Delta":37624583},{"NoteNumber":49,"Velocity":51,"Duration":659340,"SoundDuration":659340,"Delta":37624583},{"NoteNumber":64,"Velocity":78,"Duration":1315315,"SoundDuration":1315315,"Delta":38283924},{"NoteNumber":28,"Velocity":49,"Duration":648648,"SoundDuration":648648,"Delta":38283924},{"NoteNumber":32,"Velocity":49,"Duration":648648,"SoundDuration":648648,"Delta":38283924},{"NoteNumber":40,"Velocity":58,"Duration":648648,"SoundDuration":648648,"Delta":38283924},{"NoteNumber":32,"Velocity":44,"Duration":666666,"SoundDuration":666666,"Delta":38932573},{"NoteNumber":35,"Velocity":44,"Duration":666666,"SoundDuration":666666,"Delta":38932573},{"NoteNumber":44,"Velocity":52,"Duration":666666,"SoundDuration":666666,"Delta":38932573},{"NoteNumber":62,"Velocity":80,"Duration":3989073,"SoundDuration":3989073,"Delta":39599240},{"NoteNumber":30,"Velocity":48,"Duration":666667,"SoundDuration":666667,"Delta":39599240},{"NoteNumber":33,"Velocity":48,"Duration":666667,"SoundDuration":666667,"Delta":39599240},{"NoteNumber":42,"Velocity":57,"Duration":666667,"SoundDuration":666667,"Delta":39599240},{"NoteNumber":33,"Velocity":44,"Duration":666666,"SoundDuration":666666,"Delta":40265907},{"NoteNumber":38,"Velocity":44,"Duration":666666,"SoundDuration":666666,"Delta":40265907},{"NoteNumber":45,"Velocity":52,"Duration":666666,"SoundDuration":666666,"Delta":40265907},{"NoteNumber":30,"Velocity":49,"Duration":666667,"SoundDuration":666667,"Delta":40932574},{"NoteNumber":38,"Velocity":49,"Duration":666667,"SoundDuration":666667,"Delta":40932574},{"NoteNumber":42,"Velocity":58,"Duration":666667,"SoundDuration":666667,"Delta":40932574},{"NoteNumber":33,"Velocity":45,"Duration":655737,"SoundDuration":655737,"Delta":41599241},{"NoteNumber":38,"Velocity":45,"Duration":655737,"SoundDuration":655737,"Delta":41599241},{"NoteNumber":45,"Velocity":53,"Duration":655737,"SoundDuration":655737,"Delta":41599241},{"NoteNumber":30,"Velocity":50,"Duration":666666,"SoundDuration":666666,"Delta":42254979},{"NoteNumber":38,"Velocity":50,"Duration":666666,"SoundDuration":666666,"Delta":42254979},{"NoteNumber":42,"Velocity":59,"Duration":666666,"SoundDuration":666666,"Delta":42254979},{"NoteNumber":33,"Velocity":42,"Duration":666667,"SoundDuration":666667,"Delta":42921646},{"NoteNumber":38,"Velocity":42,"Duration":666667,"SoundDuration":666667,"Delta":42921646},{"NoteNumber":45,"Velocity":50,"Duration":666667,"SoundDuration":666667,"Delta":42921646},{"NoteNumber":60,"Velocity":75,"Duration":666666,"SoundDuration":666666,"Delta":43588313},{"NoteNumber":32,"Velocity":50,"Duration":666666,"SoundDuration":666666,"Delta":43588313},{"NoteNumber":39,"Velocity":50,"Duration":666666,"SoundDuration":666666,"Delta":43588313},{"NoteNumber":44,"Velocity":59,"Duration":666666,"SoundDuration":666666,"Delta":43588313},{"NoteNumber":36,"Velocity":44,"Duration":655737,"SoundDuration":655737,"Delta":44254980},{"NoteNumber":39,"Velocity":44,"Duration":655737,"SoundDuration":655737,"Delta":44254980},{"NoteNumber":48,"Velocity":52,"Duration":655737,"SoundDuration":655737,"Delta":44254980},{"NoteNumber":61,"Velocity":86,"Duration":1326007,"SoundDuration":1326007,"Delta":44910718},{"NoteNumber":37,"Velocity":49,"Duration":666666,"SoundDuration":666666,"Delta":44910718},{"NoteNumber":33,"Velocity":49,"Duration":666666,"SoundDuration":666666,"Delta":44910718},{"NoteNumber":45,"Velocity":58,"Duration":666666,"SoundDuration":666666,"Delta":44910718},{"NoteNumber":37,"Velocity":43,"Duration":659340,"SoundDuration":659340,"Delta":45577385},{"NoteNumber":40,"Velocity":43,"Duration":659340,"SoundDuration":659340,"Delta":45577385},{"NoteNumber":49,"Velocity":51,"Duration":659340,"SoundDuration":659340,"Delta":45577385},{"NoteNumber":68,"Velocity":76,"Duration":648648,"SoundDuration":648648,"Delta":46236726},{"NoteNumber":28,"Velocity":46,"Duration":648648,"SoundDuration":648648,"Delta":46236726},{"NoteNumber":32,"Velocity":46,"Duration":648648,"SoundDuration":648648,"Delta":46236726},{"NoteNumber":40,"Velocity":55,"Duration":648648,"SoundDuration":648648,"Delta":46236726},{"NoteNumber":68,"Velocity":71,"Duration":655737,"SoundDuration":655737,"Delta":46885375},{"NoteNumber":32,"Velocity":42,"Duration":655737,"SoundDuration":655737,"Delta":46885375},{"NoteNumber":35,"Velocity":42,"Duration":655737,"SoundDuration":655737,"Delta":46885375},{"NoteNumber":44,"Velocity":50,"Duration":655737,"SoundDuration":655737,"Delta":46885375},{"NoteNumber":63,"Velocity":77,"Duration":666666,"SoundDuration":666666,"Delta":47541113},{"NoteNumber":42,"Velocity":45,"Duration":666666,"SoundDuration":666666,"Delta":47541113},{"NoteNumber":35,"Velocity":45,"Duration":666666,"SoundDuration":666666,"Delta":47541113},{"NoteNumber":47,"Velocity":54,"Duration":666666,"SoundDuration":666666,"Delta":47541113},{"NoteNumber":59,"Velocity":68,"Duration":652174,"SoundDuration":652174,"Delta":48207780},{"NoteNumber":39,"Velocity":32,"Duration":652174,"SoundDuration":652174,"Delta":48207780},{"NoteNumber":42,"Velocity":32,"Duration":652174,"SoundDuration":652174,"Delta":48207780},{"NoteNumber":51,"Velocity":38,"Duration":652174,"SoundDuration":652174,"Delta":48207780},{"NoteNumber":58,"Velocity":73,"Duration":1322404,"SoundDuration":1322404,"Delta":48859954},{"NoteNumber":31,"Velocity":45,"Duration":666666,"SoundDuration":666666,"Delta":48859954},{"NoteNumber":39,"Velocity":45,"Duration":666666,"SoundDuration":666666,"Delta":48859954},{"NoteNumber":43,"Velocity":54,"Duration":666666,"SoundDuration":666666,"Delta":48859954},{"NoteNumber":34,"Velocity":35,"Duration":655737,"SoundDuration":655737,"Delta":49526621},{"NoteNumber":39,"Velocity":35,"Duration":655737,"SoundDuration":655737,"Delta":49526621},{"NoteNumber":46,"Velocity":42,"Duration":655737,"SoundDuration":655737,"Delta":49526621},{"NoteNumber":56,"Velocity":70,"Duration":2011172,"SoundDuration":2011172,"Delta":50182359},{"NoteNumber":32,"Velocity":39,"Duration":670391,"SoundDuration":670391,"Delta":50182359},{"NoteNumber":39,"Velocity":39,"Duration":670391,"SoundDuration":670391,"Delta":50182359},{"NoteNumber":44,"Velocity":46,"Duration":670391,"SoundDuration":670391,"Delta":50182359},{"NoteNumber":35,"Velocity":30,"Duration":670390,"SoundDuration":670390,"Delta":50852750},{"NoteNumber":39,"Velocity":30,"Duration":670390,"SoundDuration":670390,"Delta":50852750},{"NoteNumber":47,"Velocity":36,"Duration":670390,"SoundDuration":670390,"Delta":50852750},{"NoteNumber":32,"Velocity":37,"Duration":670391,"SoundDuration":670391,"Delta":51523141},{"NoteNumber":39,"Velocity":37,"Duration":670391,"SoundDuration":670391,"Delta":51523141},{"NoteNumber":44,"Velocity":44,"Duration":670391,"SoundDuration":670391,"Delta":51523141},{"NoteNumber":35,"Velocity":31,"Duration":701754,"SoundDuration":701754,"Delta":52193532},{"NoteNumber":39,"Velocity":31,"Duration":701754,"SoundDuration":701754,"Delta":52193532},{"NoteNumber":47,"Velocity":37,"Duration":701754,"SoundDuration":701754,"Delta":52193532},{"NoteNumber":88,"Velocity":70,"Duration":652174,"SoundDuration":652174,"Delta":52895286},{"NoteNumber":85,"Velocity":70,"Duration":652174,"SoundDuration":652174,"Delta":52895286},{"NoteNumber":76,"Velocity":64,"Duration":652174,"SoundDuration":652174,"Delta":52895286},{"NoteNumber":81,"Velocity":64,"Duration":652174,"SoundDuration":652174,"Delta":52895286},{"NoteNumber":33,"Velocity":44,"Duration":1290472,"SoundDuration":1290472,"Delta":52895286},{"NoteNumber":37,"Velocity":44,"Duration":652174,"SoundDuration":652174,"Delta":52895286},{"NoteNumber":45,"Velocity":52,"Duration":652174,"SoundDuration":652174,"Delta":52895286},{"NoteNumber":85,"Velocity":72,"Duration":638297,"SoundDuration":638297,"Delta":53547460},{"NoteNumber":73,"Velocity":66,"Duration":638297,"SoundDuration":638297,"Delta":53547460},{"NoteNumber":37,"Velocity":41,"Duration":638297,"SoundDuration":638297,"Delta":53547460},{"NoteNumber":45,"Velocity":49,"Duration":638297,"SoundDuration":638297,"Delta":53547460},{"NoteNumber":87,"Velocity":72,"Duration":652174,"SoundDuration":652174,"Delta":54185758},{"NoteNumber":75,"Velocity":66,"Duration":652174,"SoundDuration":652174,"Delta":54185758},{"NoteNumber":78,"Velocity":66,"Duration":652174,"SoundDuration":652174,"Delta":54185758},{"NoteNumber":83,"Velocity":72,"Duration":652174,"SoundDuration":652174,"Delta":54185758},{"NoteNumber":35,"Velocity":44,"Duration":1293885,"SoundDuration":1293885,"Delta":54185758},{"NoteNumber":39,"Velocity":44,"Duration":652174,"SoundDuration":652174,"Delta":54185758},{"NoteNumber":47,"Velocity":52,"Duration":652174,"SoundDuration":652174,"Delta":54185758},{"NoteNumber":71,"Velocity":60,"Duration":641711,"SoundDuration":641711,"Delta":54837932},{"NoteNumber":83,"Velocity":66,"Duration":641711,"SoundDuration":641711,"Delta":54837932},{"NoteNumber":39,"Velocity":48,"Duration":641711,"SoundDuration":641711,"Delta":54837932},{"NoteNumber":47,"Velocity":48,"Duration":641711,"SoundDuration":641711,"Delta":54837932},{"NoteNumber":76,"Velocity":66,"Duration":641711,"SoundDuration":641711,"Delta":55479643},{"NoteNumber":81,"Velocity":72,"Duration":641711,"SoundDuration":641711,"Delta":55479643},{"NoteNumber":85,"Velocity":72,"Duration":641711,"SoundDuration":641711,"Delta":55479643},{"NoteNumber":73,"Velocity":66,"Duration":641711,"SoundDuration":641711,"Delta":55479643},{"NoteNumber":37,"Velocity":44,"Duration":1283422,"SoundDuration":1283422,"Delta":55479643},{"NoteNumber":40,"Velocity":44,"Duration":641711,"SoundDuration":641711,"Delta":55479643},{"NoteNumber":49,"Velocity":52,"Duration":641711,"SoundDuration":641711,"Delta":55479643},{"NoteNumber":69,"Velocity":63,"Duration":641711,"SoundDuration":641711,"Delta":56121354},{"NoteNumber":81,"Velocity":69,"Duration":641711,"SoundDuration":641711,"Delta":56121354},{"NoteNumber":40,"Velocity":42,"Duration":641711,"SoundDuration":641711,"Delta":56121354},{"NoteNumber":49,"Velocity":50,"Duration":641711,"SoundDuration":641711,"Delta":56121354},{"NoteNumber":78,"Velocity":69,"Duration":1304386,"SoundDuration":1304386,"Delta":56763065},{"NoteNumber":66,"Velocity":63,"Duration":1304386,"SoundDuration":1304386,"Delta":56763065},{"NoteNumber":69,"Velocity":63,"Duration":1304386,"SoundDuration":1304386,"Delta":56763065},{"NoteNumber":74,"Velocity":69,"Duration":1304386,"SoundDuration":1304386,"Delta":56763065},{"NoteNumber":38,"Velocity":45,"Duration":1304386,"SoundDuration":1304386,"Delta":56763065},{"NoteNumber":42,"Velocity":45,"Duration":655737,"SoundDuration":655737,"Delta":56763065},{"NoteNumber":50,"Velocity":53,"Duration":655737,"SoundDuration":655737,"Delta":56763065},{"NoteNumber":42,"Velocity":42,"Duration":648648,"SoundDuration":648648,"Delta":57418803},{"NoteNumber":50,"Velocity":50,"Duration":648648,"SoundDuration":648648,"Delta":57418803},{"NoteNumber":81,"Velocity":70,"Duration":645161,"SoundDuration":645161,"Delta":58067452},{"NoteNumber":85,"Velocity":77,"Duration":645161,"SoundDuration":645161,"Delta":58067452},{"NoteNumber":88,"Velocity":77,"Duration":645161,"SoundDuration":645161,"Delta":58067452},{"NoteNumber":76,"Velocity":70,"Duration":645161,"SoundDuration":645161,"Delta":58067452},{"NoteNumber":33,"Velocity":45,"Duration":1283459,"SoundDuration":1283459,"Delta":58067452},{"NoteNumber":37,"Velocity":45,"Duration":645161,"SoundDuration":645161,"Delta":58067452},{"NoteNumber":45,"Velocity":53,"Duration":645161,"SoundDuration":645161,"Delta":58067452},{"NoteNumber":85,"Velocity":79,"Duration":638297,"SoundDuration":638297,"Delta":58712613},{"NoteNumber":73,"Velocity":72,"Duration":638297,"SoundDuration":638297,"Delta":58712613},{"NoteNumber":37,"Velocity":39,"Duration":638297,"SoundDuration":638297,"Delta":58712613},{"NoteNumber":45,"Velocity":47,"Duration":638297,"SoundDuration":638297,"Delta":58712613},{"NoteNumber":87,"Velocity":80,"Duration":631579,"SoundDuration":631579,"Delta":59350911},{"NoteNumber":75,"Velocity":73,"Duration":631579,"SoundDuration":631579,"Delta":59350911},{"NoteNumber":78,"Velocity":73,"Duration":631579,"SoundDuration":631579,"Delta":59350911},{"NoteNumber":83,"Velocity":80,"Duration":631579,"SoundDuration":631579,"Delta":59350911},{"NoteNumber":35,"Velocity":44,"Duration":1273290,"SoundDuration":1273290,"Delta":59350911},{"NoteNumber":39,"Velocity":44,"Duration":631579,"SoundDuration":631579,"Delta":59350911},{"NoteNumber":47,"Velocity":52,"Duration":631579,"SoundDuration":631579,"Delta":59350911},{"NoteNumber":71,"Velocity":66,"Duration":641711,"SoundDuration":641711,"Delta":59982490},{"NoteNumber":83,"Velocity":72,"Duration":641711,"SoundDuration":641711,"Delta":59982490},{"NoteNumber":39,"Velocity":38,"Duration":641711,"SoundDuration":641711,"Delta":59982490},{"NoteNumber":47,"Velocity":45,"Duration":641711,"SoundDuration":641711,"Delta":59982490},{"NoteNumber":76,"Velocity":73,"Duration":1283422,"SoundDuration":1283422,"Delta":60624201},{"NoteNumber":81,"Velocity":80,"Duration":1283422,"SoundDuration":1283422,"Delta":60624201},{"NoteNumber":85,"Velocity":80,"Duration":1283422,"SoundDuration":1283422,"Delta":60624201},{"NoteNumber":73,"Velocity":73,"Duration":1283422,"SoundDuration":1283422,"Delta":60624201},{"NoteNumber":37,"Velocity":44,"Duration":1283422,"SoundDuration":1283422,"Delta":60624201},{"NoteNumber":40,"Velocity":44,"Duration":641711,"SoundDuration":641711,"Delta":60624201},{"NoteNumber":49,"Velocity":52,"Duration":641711,"SoundDuration":641711,"Delta":60624201},{"NoteNumber":40,"Velocity":42,"Duration":641711,"SoundDuration":641711,"Delta":61265912},{"NoteNumber":49,"Velocity":50,"Duration":641711,"SoundDuration":641711,"Delta":61265912},{"NoteNumber":74,"Velocity":77,"Duration":1300899,"SoundDuration":1300899,"Delta":61907623},{"NoteNumber":66,"Velocity":70,"Duration":1300899,"SoundDuration":1300899,"Delta":61907623},{"NoteNumber":69,"Velocity":70,"Duration":1300899,"SoundDuration":1300899,"Delta":61907623},{"NoteNumber":78,"Velocity":77,"Duration":1300899,"SoundDuration":1300899,"Delta":61907623},{"NoteNumber":38,"Velocity":44,"Duration":1300899,"SoundDuration":1300899,"Delta":61907623},{"NoteNumber":42,"Velocity":44,"Duration":655737,"SoundDuration":655737,"Delta":61907623},{"NoteNumber":50,"Velocity":52,"Duration":655737,"SoundDuration":655737,"Delta":61907623},{"NoteNumber":42,"Velocity":40,"Duration":645161,"SoundDuration":645161,"Delta":62563361},{"NoteNumber":50,"Velocity":48,"Duration":645161,"SoundDuration":645161,"Delta":62563361},{"NoteNumber":81,"Velocity":77,"Duration":638297,"SoundDuration":638297,"Delta":63208522},{"NoteNumber":76,"Velocity":77,"Duration":638297,"SoundDuration":638297,"Delta":63208522},{"NoteNumber":88,"Velocity":84,"Duration":638297,"SoundDuration":638297,"Delta":63208522},{"NoteNumber":85,"Velocity":84,"Duration":638297,"SoundDuration":638297,"Delta":63208522},{"NoteNumber":33,"Velocity":47,"Duration":1263297,"SoundDuration":1263297,"Delta":63208522},{"NoteNumber":37,"Velocity":47,"Duration":638297,"SoundDuration":638297,"Delta":63208522},{"NoteNumber":45,"Velocity":56,"Duration":638297,"SoundDuration":638297,"Delta":63208522},{"NoteNumber":85,"Velocity":86,"Duration":624999,"SoundDuration":624999,"Delta":63846820},{"NoteNumber":73,"Velocity":79,"Duration":624999,"SoundDuration":624999,"Delta":63846820},{"NoteNumber":37,"Velocity":42,"Duration":624999,"SoundDuration":624999,"Delta":63846820},{"NoteNumber":45,"Velocity":50,"Duration":624999,"SoundDuration":624999,"Delta":63846820},{"NoteNumber":87,"Velocity":86,"Duration":641711,"SoundDuration":641711,"Delta":64471820},{"NoteNumber":83,"Velocity":86,"Duration":641711,"SoundDuration":641711,"Delta":64471820},{"NoteNumber":78,"Velocity":79,"Duration":641711,"SoundDuration":641711,"Delta":64471820},{"NoteNumber":75,"Velocity":79,"Duration":641711,"SoundDuration":641711,"Delta":64471820},{"NoteNumber":35,"Velocity":47,"Duration":1269982,"SoundDuration":1269982,"Delta":64471820},{"NoteNumber":39,"Velocity":47,"Duration":641711,"SoundDuration":641711,"Delta":64471820},{"NoteNumber":47,"Velocity":56,"Duration":641711,"SoundDuration":641711,"Delta":64471820},{"NoteNumber":71,"Velocity":72,"Duration":628271,"SoundDuration":628271,"Delta":65113531},{"NoteNumber":83,"Velocity":79,"Duration":628271,"SoundDuration":628271,"Delta":65113531},{"NoteNumber":39,"Velocity":41,"Duration":628271,"SoundDuration":628271,"Delta":65113531},{"NoteNumber":47,"Velocity":49,"Duration":628271,"SoundDuration":628271,"Delta":65113531},{"NoteNumber":76,"Velocity":79,"Duration":628272,"SoundDuration":628272,"Delta":65741803},{"NoteNumber":73,"Velocity":79,"Duration":628272,"SoundDuration":628272,"Delta":65741803},{"NoteNumber":85,"Velocity":86,"Duration":628272,"SoundDuration":628272,"Delta":65741803},{"NoteNumber":81,"Velocity":86,"Duration":628272,"SoundDuration":628272,"Delta":65741803},{"NoteNumber":37,"Velocity":47,"Duration":1256544,"SoundDuration":1256544,"Delta":65741803},{"NoteNumber":40,"Velocity":47,"Duration":628272,"SoundDuration":628272,"Delta":65741803},{"NoteNumber":49,"Velocity":56,"Duration":628272,"SoundDuration":628272,"Delta":65741803},{"NoteNumber":69,"Velocity":75,"Duration":628271,"SoundDuration":628271,"Delta":66370075},{"NoteNumber":81,"Velocity":82,"Duration":628271,"SoundDuration":628271,"Delta":66370075},{"NoteNumber":40,"Velocity":43,"Duration":628271,"SoundDuration":628271,"Delta":66370075},{"NoteNumber":49,"Velocity":51,"Duration":628271,"SoundDuration":628271,"Delta":66370075},{"NoteNumber":69,"Velocity":75,"Duration":1276595,"SoundDuration":1276595,"Delta":66998347},{"NoteNumber":66,"Velocity":75,"Duration":1276595,"SoundDuration":1276595,"Delta":66998347},{"NoteNumber":78,"Velocity":82,"Duration":1276595,"SoundDuration":1276595,"Delta":66998347},{"NoteNumber":74,"Velocity":82,"Duration":1276595,"SoundDuration":1276595,"Delta":66998347},{"NoteNumber":38,"Velocity":46,"Duration":1276595,"SoundDuration":1276595,"Delta":66998347},{"NoteNumber":42,"Velocity":46,"Duration":638298,"SoundDuration":638298,"Delta":66998347},{"NoteNumber":50,"Velocity":55,"Duration":638298,"SoundDuration":638298,"Delta":66998347},{"NoteNumber":42,"Velocity":42,"Duration":638297,"SoundDuration":638297,"Delta":67636645},{"NoteNumber":50,"Velocity":50,"Duration":638297,"SoundDuration":638297,"Delta":67636645},{"NoteNumber":78,"Velocity":81,"Duration":1256579,"SoundDuration":1256579,"Delta":68274943},{"NoteNumber":73,"Velocity":81,"Duration":1256579,"SoundDuration":1256579,"Delta":68274943},{"NoteNumber":85,"Velocity":89,"Duration":1256579,"SoundDuration":1256579,"Delta":68274943},{"NoteNumber":81,"Velocity":89,"Duration":1256579,"SoundDuration":1256579,"Delta":68274943},{"NoteNumber":33,"Velocity":48,"Duration":1256579,"SoundDuration":1256579,"Delta":68274943},{"NoteNumber":37,"Velocity":48,"Duration":631579,"SoundDuration":631579,"Delta":68274943},{"NoteNumber":45,"Velocity":57,"Duration":631579,"SoundDuration":631579,"Delta":68274943},{"NoteNumber":37,"Velocity":42,"Duration":625000,"SoundDuration":625000,"Delta":68906522},{"NoteNumber":45,"Velocity":50,"Duration":625000,"SoundDuration":625000,"Delta":68906522},{"NoteNumber":74,"Velocity":85,"Duration":1246828,"SoundDuration":1246828,"Delta":69531522},{"NoteNumber":69,"Velocity":78,"Duration":1246828,"SoundDuration":1246828,"Delta":69531522},{"NoteNumber":66,"Velocity":78,"Duration":1246828,"SoundDuration":1246828,"Delta":69531522},{"NoteNumber":78,"Velocity":85,"Duration":1246828,"SoundDuration":1246828,"Delta":69531522},{"NoteNumber":38,"Velocity":47,"Duration":1246828,"SoundDuration":1246828,"Delta":69531522},{"NoteNumber":42,"Velocity":47,"Duration":618556,"SoundDuration":618556,"Delta":69531522},{"NoteNumber":50,"Velocity":56,"Duration":618556,"SoundDuration":618556,"Delta":69531522},{"NoteNumber":42,"Velocity":45,"Duration":628271,"SoundDuration":628271,"Delta":70150079},{"NoteNumber":50,"Velocity":53,"Duration":628271,"SoundDuration":628271,"Delta":70150079},{"NoteNumber":78,"Velocity":82,"Duration":1237114,"SoundDuration":1237114,"Delta":70778351},{"NoteNumber":73,"Velocity":82,"Duration":1237114,"SoundDuration":1237114,"Delta":70778351},{"NoteNumber":81,"Velocity":90,"Duration":1237114,"SoundDuration":1237114,"Delta":70778351},{"NoteNumber":85,"Velocity":90,"Duration":1237114,"SoundDuration":1237114,"Delta":70778351},{"NoteNumber":37,"Velocity":48,"Duration":618556,"SoundDuration":618556,"Delta":70778351},{"NoteNumber":45,"Velocity":57,"Duration":618556,"SoundDuration":618556,"Delta":70778351},{"NoteNumber":33,"Velocity":48,"Duration":1237114,"SoundDuration":1237114,"Delta":70778351},{"NoteNumber":37,"Velocity":44,"Duration":618557,"SoundDuration":618557,"Delta":71396908},{"NoteNumber":45,"Velocity":52,"Duration":618557,"SoundDuration":618557,"Delta":71396908},{"NoteNumber":74,"Velocity":74,"Duration":618556,"SoundDuration":618556,"Delta":72015465},{"NoteNumber":80,"Velocity":81,"Duration":618556,"SoundDuration":618556,"Delta":72015465},{"NoteNumber":68,"Velocity":74,"Duration":618556,"SoundDuration":618556,"Delta":72015465},{"NoteNumber":71,"Velocity":74,"Duration":618556,"SoundDuration":618556,"Delta":72015465},{"NoteNumber":35,"Velocity":48,"Duration":1253478,"SoundDuration":1253478,"Delta":72015465},{"NoteNumber":38,"Velocity":48,"Duration":618556,"SoundDuration":618556,"Delta":72015465},{"NoteNumber":47,"Velocity":57,"Duration":618556,"SoundDuration":618556,"Delta":72015465},{"NoteNumber":66,"Velocity":75,"Duration":634921,"SoundDuration":634921,"Delta":72634022},{"NoteNumber":78,"Velocity":82,"Duration":634921,"SoundDuration":634921,"Delta":72634022},{"NoteNumber":38,"Velocity":44,"Duration":634921,"SoundDuration":634921,"Delta":72634022},{"NoteNumber":47,"Velocity":52,"Duration":634921,"SoundDuration":634921,"Delta":72634022},{"NoteNumber":81,"Velocity":88,"Duration":1250000,"SoundDuration":1250000,"Delta":73268943},{"NoteNumber":85,"Velocity":88,"Duration":1250000,"SoundDuration":1250000,"Delta":73268943},{"NoteNumber":73,"Velocity":80,"Duration":1250000,"SoundDuration":1250000,"Delta":73268943},{"NoteNumber":76,"Velocity":80,"Duration":1250000,"SoundDuration":1250000,"Delta":73268943},{"NoteNumber":37,"Velocity":49,"Duration":625000,"SoundDuration":625000,"Delta":73268943},{"NoteNumber":33,"Velocity":49,"Duration":1250000,"SoundDuration":1250000,"Delta":73268943},{"NoteNumber":45,"Velocity":58,"Duration":625000,"SoundDuration":625000,"Delta":73268943},{"NoteNumber":37,"Velocity":45,"Duration":625000,"SoundDuration":625000,"Delta":73893943},{"NoteNumber":45,"Velocity":53,"Duration":625000,"SoundDuration":625000,"Delta":73893943},{"NoteNumber":69,"Velocity":77,"Duration":1276595,"SoundDuration":1276595,"Delta":74518943},{"NoteNumber":74,"Velocity":84,"Duration":1276595,"SoundDuration":1276595,"Delta":74518943},{"NoteNumber":78,"Velocity":84,"Duration":1276595,"SoundDuration":1276595,"Delta":74518943},{"NoteNumber":66,"Velocity":77,"Duration":1276595,"SoundDuration":1276595,"Delta":74518943},{"NoteNumber":38,"Velocity":50,"Duration":1276595,"SoundDuration":1276595,"Delta":74518943},{"NoteNumber":42,"Velocity":50,"Duration":638298,"SoundDuration":638298,"Delta":74518943},{"NoteNumber":50,"Velocity":59,"Duration":638298,"SoundDuration":638298,"Delta":74518943},{"NoteNumber":42,"Velocity":46,"Duration":638297,"SoundDuration":638297,"Delta":75157241},{"NoteNumber":50,"Velocity":55,"Duration":638297,"SoundDuration":638297,"Delta":75157241},{"NoteNumber":78,"Velocity":80,"Duration":1266570,"SoundDuration":1266570,"Delta":75795539},{"NoteNumber":73,"Velocity":80,"Duration":1266570,"SoundDuration":1266570,"Delta":75795539},{"NoteNumber":85,"Velocity":88,"Duration":1266570,"SoundDuration":1266570,"Delta":75795539},{"NoteNumber":81,"Velocity":88,"Duration":1266570,"SoundDuration":1266570,"Delta":75795539},{"NoteNumber":49,"Velocity":59,"Duration":638298,"SoundDuration":638298,"Delta":75795539},{"NoteNumber":42,"Velocity":50,"Duration":638298,"SoundDuration":638298,"Delta":75795539},{"NoteNumber":37,"Velocity":50,"Duration":1266570,"SoundDuration":1266570,"Delta":75795539},{"NoteNumber":42,"Velocity":46,"Duration":628271,"SoundDuration":628271,"Delta":76433837},{"NoteNumber":49,"Velocity":55,"Duration":628271,"SoundDuration":628271,"Delta":76433837},{"NoteNumber":75,"Velocity":79,"Duration":1276595,"SoundDuration":1276595,"Delta":77062109},{"NoteNumber":78,"Velocity":79,"Duration":1276595,"SoundDuration":1276595,"Delta":77062109},{"NoteNumber":87,"Velocity":86,"Duration":1276595,"SoundDuration":1276595,"Delta":77062109},{"NoteNumber":84,"Velocity":86,"Duration":1276595,"SoundDuration":1276595,"Delta":77062109},{"NoteNumber":44,"Velocity":52,"Duration":638298,"SoundDuration":638298,"Delta":77062109},{"NoteNumber":48,"Velocity":62,"Duration":638298,"SoundDuration":638298,"Delta":77062109},{"NoteNumber":36,"Velocity":52,"Duration":1276595,"SoundDuration":1276595,"Delta":77062109},{"NoteNumber":44,"Velocity":47,"Duration":638297,"SoundDuration":638297,"Delta":77700407},{"NoteNumber":48,"Velocity":56,"Duration":638297,"SoundDuration":638297,"Delta":77700407},{"NoteNumber":88,"Velocity":77,"Duration":625000,"SoundDuration":625000,"Delta":78338705},{"NoteNumber":80,"Velocity":70,"Duration":625000,"SoundDuration":625000,"Delta":78338705},{"NoteNumber":85,"Velocity":77,"Duration":625000,"SoundDuration":625000,"Delta":78338705},{"NoteNumber":76,"Velocity":70,"Duration":625000,"SoundDuration":625000,"Delta":78338705},{"NoteNumber":49,"Velocity":53,"Duration":625000,"SoundDuration":625000,"Delta":78338705},{"NoteNumber":44,"Velocity":45,"Duration":625000,"SoundDuration":625000,"Delta":78338705},{"NoteNumber":37,"Velocity":45,"Duration":1250000,"SoundDuration":1250000,"Delta":78338705},{"NoteNumber":80,"Velocity":68,"Duration":625000,"SoundDuration":625000,"Delta":78963705},{"NoteNumber":92,"Velocity":75,"Duration":625000,"SoundDuration":625000,"Delta":78963705},{"NoteNumber":44,"Velocity":40,"Duration":625000,"SoundDuration":625000,"Delta":78963705},{"NoteNumber":49,"Velocity":48,"Duration":625000,"SoundDuration":625000,"Delta":78963705},{"NoteNumber":74,"Velocity":71,"Duration":1283422,"SoundDuration":1283422,"Delta":79588705},{"NoteNumber":78,"Velocity":71,"Duration":1283422,"SoundDuration":1283422,"Delta":79588705},{"NoteNumber":81,"Velocity":71,"Duration":1283422,"SoundDuration":1283422,"Delta":79588705},{"NoteNumber":86,"Velocity":78,"Duration":1283422,"SoundDuration":1283422,"Delta":79588705},{"NoteNumber":42,"Velocity":44,"Duration":641711,"SoundDuration":641711,"Delta":79588705},{"NoteNumber":50,"Velocity":52,"Duration":641711,"SoundDuration":641711,"Delta":79588705},{"NoteNumber":38,"Velocity":44,"Duration":1283422,"SoundDuration":1283422,"Delta":79588705},{"NoteNumber":42,"Velocity":38,"Duration":641711,"SoundDuration":641711,"Delta":80230416},{"NoteNumber":50,"Velocity":45,"Duration":641711,"SoundDuration":641711,"Delta":80230416},{"NoteNumber":72,"Velocity":61,"Duration":1273290,"SoundDuration":1273290,"Delta":80872127},{"NoteNumber":78,"Velocity":61,"Duration":1273290,"SoundDuration":1273290,"Delta":80872127},{"NoteNumber":84,"Velocity":61,"Duration":1273290,"SoundDuration":1273290,"Delta":80872127},{"NoteNumber":80,"Velocity":61,"Duration":1273290,"SoundDuration":1273290,"Delta":80872127},{"NoteNumber":44,"Velocity":37,"Duration":641711,"SoundDuration":641711,"Delta":80872127},{"NoteNumber":51,"Velocity":45,"Duration":641711,"SoundDuration":641711,"Delta":80872127},{"NoteNumber":39,"Velocity":37,"Duration":1273290,"SoundDuration":1273290,"Delta":80872127},{"NoteNumber":44,"Velocity":34,"Duration":631579,"SoundDuration":631579,"Delta":81513838},{"NoteNumber":51,"Velocity":41,"Duration":631579,"SoundDuration":631579,"Delta":81513838},{"NoteNumber":76,"Velocity":55,"Duration":631579,"SoundDuration":631579,"Delta":82145417},{"NoteNumber":73,"Velocity":55,"Duration":631579,"SoundDuration":631579,"Delta":82145417},{"NoteNumber":80,"Velocity":55,"Duration":631579,"SoundDuration":631579,"Delta":82145417},{"NoteNumber":85,"Velocity":55,"Duration":631579,"SoundDuration":631579,"Delta":82145417},{"NoteNumber":49,"Velocity":35,"Duration":631579,"SoundDuration":631579,"Delta":82145417},{"NoteNumber":52,"Velocity":41,"Duration":631579,"SoundDuration":631579,"Delta":82145417},{"NoteNumber":40,"Velocity":35,"Duration":1273290,"SoundDuration":1273290,"Delta":82145417},{"NoteNumber":68,"Velocity":44,"Duration":641711,"SoundDuration":641711,"Delta":82776996},{"NoteNumber":80,"Velocity":44,"Duration":641711,"SoundDuration":641711,"Delta":82776996},{"NoteNumber":49,"Velocity":31,"Duration":641711,"SoundDuration":641711,"Delta":82776996},{"NoteNumber":52,"Velocity":37,"Duration":641711,"SoundDuration":641711,"Delta":82776996},{"NoteNumber":75,"Velocity":44,"Duration":1283422,"SoundDuration":1283422,"Delta":83418707},{"NoteNumber":81,"Velocity":44,"Duration":1283422,"SoundDuration":1283422,"Delta":83418707},{"NoteNumber":73,"Velocity":44,"Duration":1283422,"SoundDuration":1283422,"Delta":83418707},{"NoteNumber":69,"Velocity":44,"Duration":1283422,"SoundDuration":1283422,"Delta":83418707},{"NoteNumber":49,"Velocity":27,"Duration":641711,"SoundDuration":641711,"Delta":83418707},{"NoteNumber":54,"Velocity":32,"Duration":641711,"SoundDuration":641711,"Delta":83418707},{"NoteNumber":42,"Velocity":27,"Duration":1283422,"SoundDuration":1283422,"Delta":83418707},{"NoteNumber":49,"Velocity":20,"Duration":641711,"SoundDuration":641711,"Delta":84060418},{"NoteNumber":54,"Velocity":24,"Duration":641711,"SoundDuration":641711,"Delta":84060418},{"NoteNumber":76,"Velocity":38,"Duration":1283422,"SoundDuration":1283422,"Delta":84702129},{"NoteNumber":80,"Velocity":38,"Duration":1283422,"SoundDuration":1283422,"Delta":84702129},{"NoteNumber":68,"Velocity":38,"Duration":1283422,"SoundDuration":1283422,"Delta":84702129},{"NoteNumber":73,"Velocity":38,"Duration":1283422,"SoundDuration":1283422,"Delta":84702129},{"NoteNumber":49,"Velocity":23,"Duration":641711,"SoundDuration":641711,"Delta":84702129},{"NoteNumber":56,"Velocity":27,"Duration":641711,"SoundDuration":641711,"Delta":84702129},{"NoteNumber":44,"Velocity":23,"Duration":1283422,"SoundDuration":1283422,"Delta":84702129},{"NoteNumber":49,"Velocity":19,"Duration":641711,"SoundDuration":641711,"Delta":85343840},{"NoteNumber":56,"Velocity":22,"Duration":641711,"SoundDuration":641711,"Delta":85343840},{"NoteNumber":66,"Velocity":47,"Duration":1273290,"SoundDuration":1273290,"Delta":85985551},{"NoteNumber":73,"Velocity":47,"Duration":1273290,"SoundDuration":1273290,"Delta":85985551},{"NoteNumber":75,"Velocity":47,"Duration":1273290,"SoundDuration":1273290,"Delta":85985551},{"NoteNumber":78,"Velocity":47,"Duration":1273290,"SoundDuration":1273290,"Delta":85985551},{"NoteNumber":49,"Velocity":28,"Duration":641711,"SoundDuration":641711,"Delta":85985551},{"NoteNumber":57,"Velocity":34,"Duration":641711,"SoundDuration":641711,"Delta":85985551},{"NoteNumber":45,"Velocity":28,"Duration":1273290,"SoundDuration":1273290,"Delta":85985551},{"NoteNumber":49,"Velocity":28,"Duration":631579,"SoundDuration":631579,"Delta":86627262},{"NoteNumber":57,"Velocity":34,"Duration":631579,"SoundDuration":631579,"Delta":86627262},{"NoteNumber":73,"Velocity":52,"Duration":315789,"SoundDuration":315789,"Delta":87258841},{"NoteNumber":85,"Velocity":52,"Duration":315789,"SoundDuration":315789,"Delta":87258841},{"NoteNumber":51,"Velocity":28,"Duration":631579,"SoundDuration":631579,"Delta":87258841},{"NoteNumber":54,"Velocity":33,"Duration":631579,"SoundDuration":631579,"Delta":87258841},{"NoteNumber":42,"Velocity":28,"Duration":1273290,"SoundDuration":1273290,"Delta":87258841},{"NoteNumber":51,"Velocity":36,"Duration":641711,"SoundDuration":641711,"Delta":87890420},{"NoteNumber":54,"Velocity":43,"Duration":641711,"SoundDuration":641711,"Delta":87890420},{"NoteNumber":73,"Velocity":84,"Duration":2566844,"SoundDuration":2566844,"Delta":88532131},{"NoteNumber":79,"Velocity":84,"Duration":2566844,"SoundDuration":2566844,"Delta":88532131},{"NoteNumber":82,"Velocity":84,"Duration":2566844,"SoundDuration":2566844,"Delta":88532131},{"NoteNumber":70,"Velocity":84,"Duration":2566844,"SoundDuration":2566844,"Delta":88532131},{"NoteNumber":55,"Velocity":67,"Duration":641711,"SoundDuration":641711,"Delta":88532131},{"NoteNumber":51,"Velocity":56,"Duration":641711,"SoundDuration":641711,"Delta":88532131},{"NoteNumber":43,"Velocity":56,"Duration":1283422,"SoundDuration":1283422,"Delta":88532131},{"NoteNumber":51,"Velocity":50,"Duration":641711,"SoundDuration":641711,"Delta":89173842},{"NoteNumber":55,"Velocity":59,"Duration":641711,"SoundDuration":641711,"Delta":89173842},{"NoteNumber":46,"Velocity":56,"Duration":641711,"SoundDuration":641711,"Delta":89815553},{"NoteNumber":51,"Velocity":67,"Duration":641711,"SoundDuration":641711,"Delta":89815553},{"NoteNumber":39,"Velocity":56,"Duration":1283422,"SoundDuration":1283422,"Delta":89815553},{"NoteNumber":46,"Velocity":51,"Duration":641711,"SoundDuration":641711,"Delta":90457264},{"NoteNumber":51,"Velocity":60,"Duration":641711,"SoundDuration":641711,"Delta":90457264},{"NoteNumber":75,"Velocity":96,"Duration":655737,"SoundDuration":655737,"Delta":91098976},{"NoteNumber":80,"Velocity":96,"Duration":655737,"SoundDuration":655737,"Delta":91098976},{"NoteNumber":83,"Velocity":96,"Duration":655737,"SoundDuration":655737,"Delta":91098976},{"NoteNumber":71,"Velocity":96,"Duration":655737,"SoundDuration":655737,"Delta":91098976},{"NoteNumber":51,"Velocity":65,"Duration":655737,"SoundDuration":655737,"Delta":91098976},{"NoteNumber":56,"Velocity":77,"Duration":655737,"SoundDuration":655737,"Delta":91098976},{"NoteNumber":44,"Velocity":65,"Duration":1287317,"SoundDuration":1287317,"Delta":91098976},{"NoteNumber":51,"Velocity":60,"Duration":631579,"SoundDuration":631579,"Delta":91754714},{"NoteNumber":56,"Velocity":71,"Duration":631579,"SoundDuration":631579,"Delta":91754714},{"NoteNumber":92,"Velocity":104,"Duration":641711,"SoundDuration":641711,"Delta":92386293},{"NoteNumber":80,"Velocity":104,"Duration":641711,"SoundDuration":641711,"Delta":92386293},{"NoteNumber":47,"Velocity":77,"Duration":641711,"SoundDuration":641711,"Delta":92386293},{"NoteNumber":39,"Velocity":65,"Duration":641711,"SoundDuration":641711,"Delta":92386293},{"NoteNumber":35,"Velocity":65,"Duration":1293885,"SoundDuration":1293885,"Delta":92386293},{"NoteNumber":39,"Velocity":62,"Duration":652174,"SoundDuration":652174,"Delta":93028004},{"NoteNumber":47,"Velocity":73,"Duration":652174,"SoundDuration":652174,"Delta":93028004},{"NoteNumber":88,"Velocity":99,"Duration":652174,"SoundDuration":652174,"Delta":93680178},{"NoteNumber":76,"Velocity":99,"Duration":652174,"SoundDuration":652174,"Delta":93680178},{"NoteNumber":85,"Velocity":99,"Duration":652174,"SoundDuration":652174,"Delta":93680178},{"NoteNumber":80,"Velocity":99,"Duration":652174,"SoundDuration":652174,"Delta":93680178},{"NoteNumber":49,"Velocity":77,"Duration":652174,"SoundDuration":652174,"Delta":93680178},{"NoteNumber":44,"Velocity":65,"Duration":652174,"SoundDuration":652174,"Delta":93680178},{"NoteNumber":37,"Velocity":65,"Duration":1280445,"SoundDuration":1280445,"Delta":93680178},{"NoteNumber":44,"Velocity":56,"Duration":628271,"SoundDuration":628271,"Delta":94332352},{"NoteNumber":49,"Velocity":67,"Duration":628271,"SoundDuration":628271,"Delta":94332352},{"NoteNumber":87,"Velocity":95,"Duration":645161,"SoundDuration":645161,"Delta":94960624},{"NoteNumber":83,"Velocity":95,"Duration":645161,"SoundDuration":645161,"Delta":94960624},{"NoteNumber":79,"Velocity":95,"Duration":645161,"SoundDuration":645161,"Delta":94960624},{"NoteNumber":75,"Velocity":95,"Duration":645161,"SoundDuration":645161,"Delta":94960624},{"NoteNumber":51,"Velocity":74,"Duration":645161,"SoundDuration":645161,"Delta":94960624},{"NoteNumber":43,"Velocity":62,"Duration":645161,"SoundDuration":645161,"Delta":94960624},{"NoteNumber":39,"Velocity":62,"Duration":1304501,"SoundDuration":1304501,"Delta":94960624},{"NoteNumber":71,"Velocity":94,"Duration":659340,"SoundDuration":659340,"Delta":95605785},{"NoteNumber":83,"Velocity":94,"Duration":659340,"SoundDuration":659340,"Delta":95605785},{"NoteNumber":43,"Velocity":57,"Duration":659340,"SoundDuration":659340,"Delta":95605785},{"NoteNumber":51,"Velocity":68,"Duration":659340,"SoundDuration":659340,"Delta":95605785},{"NoteNumber":68,"Velocity":90,"Duration":659340,"SoundDuration":659340,"Delta":96265126},{"NoteNumber":80,"Velocity":100,"Duration":659340,"SoundDuration":659340,"Delta":96265126},{"NoteNumber":32,"Velocity":57,"Duration":659340,"SoundDuration":659340,"Delta":96265126},{"NoteNumber":39,"Velocity":64,"Duration":659340,"SoundDuration":659340,"Delta":96265126},{"NoteNumber":44,"Velocity":76,"Duration":659340,"SoundDuration":659340,"Delta":96265126},{"NoteNumber":35,"Velocity":52,"Duration":659340,"SoundDuration":659340,"Delta":96924467},{"NoteNumber":39,"Velocity":58,"Duration":659340,"SoundDuration":659340,"Delta":96924467},{"NoteNumber":47,"Velocity":69,"Duration":659340,"SoundDuration":659340,"Delta":96924467},{"NoteNumber":75,"Velocity":102,"Duration":1946059,"SoundDuration":1946059,"Delta":97583807},{"NoteNumber":63,"Velocity":86,"Duration":1946059,"SoundDuration":1946059,"Delta":97583807},{"NoteNumber":32,"Velocity":57,"Duration":652174,"SoundDuration":652174,"Delta":97583807},{"NoteNumber":39,"Velocity":64,"Duration":652174,"SoundDuration":652174,"Delta":97583807},{"NoteNumber":44,"Velocity":76,"Duration":652174,"SoundDuration":652174,"Delta":97583807},{"NoteNumber":35,"Velocity":47,"Duration":641711,"SoundDuration":641711,"Delta":98235982},{"NoteNumber":39,"Velocity":53,"Duration":641711,"SoundDuration":641711,"Delta":98235982},{"NoteNumber":47,"Velocity":63,"Duration":641711,"SoundDuration":641711,"Delta":98235982},{"NoteNumber":32,"Velocity":58,"Duration":652174,"SoundDuration":652174,"Delta":98877693},{"NoteNumber":39,"Velocity":65,"Duration":652174,"SoundDuration":652174,"Delta":98877693},{"NoteNumber":44,"Velocity":77,"Duration":652174,"SoundDuration":652174,"Delta":98877693},{"NoteNumber":78,"Velocity":100,"Duration":315789,"SoundDuration":315789,"Delta":99529867},{"NoteNumber":66,"Velocity":90,"Duration":315789,"SoundDuration":315789,"Delta":99529867},{"NoteNumber":35,"Velocity":53,"Duration":636644,"SoundDuration":636644,"Delta":99529867},{"NoteNumber":39,"Velocity":59,"Duration":636644,"SoundDuration":636644,"Delta":99529867},{"NoteNumber":47,"Velocity":70,"Duration":636644,"SoundDuration":636644,"Delta":99529867},{"NoteNumber":76,"Velocity":92,"Duration":320855,"SoundDuration":320855,"Delta":99845656},{"NoteNumber":64,"Velocity":82,"Duration":320855,"SoundDuration":320855,"Delta":99845656},{"NoteNumber":63,"Velocity":88,"Duration":634921,"SoundDuration":634921,"Delta":100166511},{"NoteNumber":75,"Velocity":98,"Duration":634921,"SoundDuration":634921,"Delta":100166511},{"NoteNumber":32,"Velocity":58,"Duration":634921,"SoundDuration":634921,"Delta":100166511},{"NoteNumber":39,"Velocity":65,"Duration":634921,"SoundDuration":634921,"Delta":100166511},{"NoteNumber":44,"Velocity":77,"Duration":634921,"SoundDuration":634921,"Delta":100166511},{"NoteNumber":64,"Velocity":82,"Duration":638298,"SoundDuration":638298,"Delta":100801432},{"NoteNumber":76,"Velocity":92,"Duration":638298,"SoundDuration":638298,"Delta":100801432},{"NoteNumber":35,"Velocity":52,"Duration":638298,"SoundDuration":638298,"Delta":100801432},{"NoteNumber":39,"Velocity":58,"Duration":638298,"SoundDuration":638298,"Delta":100801432},{"NoteNumber":47,"Velocity":69,"Duration":638298,"SoundDuration":638298,"Delta":100801432},{"NoteNumber":75,"Velocity":96,"Duration":645161,"SoundDuration":645161,"Delta":101439731},{"NoteNumber":63,"Velocity":86,"Duration":645161,"SoundDuration":645161,"Delta":101439731},{"NoteNumber":32,"Velocity":56,"Duration":645161,"SoundDuration":645161,"Delta":101439731},{"NoteNumber":39,"Velocity":62,"Duration":645161,"SoundDuration":645161,"Delta":101439731},{"NoteNumber":44,"Velocity":74,"Duration":645161,"SoundDuration":645161,"Delta":101439731},{"NoteNumber":80,"Velocity":106,"Duration":638298,"SoundDuration":638298,"Delta":102084892},{"NoteNumber":68,"Velocity":95,"Duration":638298,"SoundDuration":638298,"Delta":102084892},{"NoteNumber":35,"Velocity":51,"Duration":638298,"SoundDuration":638298,"Delta":102084892},{"NoteNumber":39,"Velocity":57,"Duration":638298,"SoundDuration":638298,"Delta":102084892},{"NoteNumber":47,"Velocity":68,"Duration":638298,"SoundDuration":638298,"Delta":102084892},{"NoteNumber":82,"Velocity":110,"Duration":641711,"SoundDuration":641711,"Delta":102723190},{"NoteNumber":70,"Velocity":99,"Duration":641711,"SoundDuration":641711,"Delta":102723190},{"NoteNumber":32,"Velocity":58,"Duration":641711,"SoundDuration":641711,"Delta":102723190},{"NoteNumber":39,"Velocity":65,"Duration":641711,"SoundDuration":641711,"Delta":102723190},{"NoteNumber":44,"Velocity":77,"Duration":641711,"SoundDuration":641711,"Delta":102723190},{"NoteNumber":83,"Velocity":110,"Duration":652174,"SoundDuration":652174,"Delta":103364901},{"NoteNumber":71,"Velocity":99,"Duration":652174,"SoundDuration":652174,"Delta":103364901},{"NoteNumber":35,"Velocity":51,"Duration":652174,"SoundDuration":652174,"Delta":103364901},{"NoteNumber":39,"Velocity":57,"Duration":652174,"SoundDuration":652174,"Delta":103364901},{"NoteNumber":47,"Velocity":68,"Duration":652174,"SoundDuration":652174,"Delta":103364901},{"NoteNumber":82,"Velocity":113,"Duration":1318841,"SoundDuration":1318841,"Delta":104017075},{"NoteNumber":70,"Velocity":101,"Duration":1318841,"SoundDuration":1318841,"Delta":104017075},{"NoteNumber":32,"Velocity":60,"Duration":666667,"SoundDuration":666667,"Delta":104017075},{"NoteNumber":39,"Velocity":67,"Duration":666667,"SoundDuration":666667,"Delta":104017075},{"NoteNumber":44,"Velocity":79,"Duration":666667,"SoundDuration":666667,"Delta":104017075},{"NoteNumber":35,"Velocity":52,"Duration":652174,"SoundDuration":652174,"Delta":104683742},{"NoteNumber":39,"Velocity":58,"Duration":652174,"SoundDuration":652174,"Delta":104683742},{"NoteNumber":47,"Velocity":69,"Duration":652174,"SoundDuration":652174,"Delta":104683742},{"NoteNumber":80,"Velocity":110,"Duration":662982,"SoundDuration":662982,"Delta":105335916},{"NoteNumber":68,"Velocity":99,"Duration":662982,"SoundDuration":662982,"Delta":105335916},{"NoteNumber":32,"Velocity":56,"Duration":662982,"SoundDuration":662982,"Delta":105335916},{"NoteNumber":39,"Velocity":62,"Duration":662982,"SoundDuration":662982,"Delta":105335916},{"NoteNumber":44,"Velocity":74,"Duration":662982,"SoundDuration":662982,"Delta":105335916},{"NoteNumber":35,"Velocity":53,"Duration":652174,"SoundDuration":652174,"Delta":105998899},{"NoteNumber":39,"Velocity":59,"Duration":652174,"SoundDuration":652174,"Delta":105998899},{"NoteNumber":47,"Velocity":70,"Duration":652174,"SoundDuration":652174,"Delta":105998899},{"NoteNumber":85,"Velocity":113,"Duration":1322405,"SoundDuration":1322405,"Delta":106651073},{"NoteNumber":73,"Velocity":101,"Duration":1322405,"SoundDuration":1322405,"Delta":106651073},{"NoteNumber":37,"Velocity":69,"Duration":666667,"SoundDuration":666667,"Delta":106651073},{"NoteNumber":33,"Velocity":62,"Duration":666667,"SoundDuration":666667,"Delta":106651073},{"NoteNumber":45,"Velocity":82,"Duration":666667,"SoundDuration":666667,"Delta":106651073},{"NoteNumber":37,"Velocity":48,"Duration":655737,"SoundDuration":655737,"Delta":107317740},{"NoteNumber":40,"Velocity":54,"Duration":655737,"SoundDuration":655737,"Delta":107317740},{"NoteNumber":49,"Velocity":64,"Duration":655737,"SoundDuration":655737,"Delta":107317740},{"NoteNumber":80,"Velocity":95,"Duration":662982,"SoundDuration":662982,"Delta":107973478},{"NoteNumber":92,"Velocity":106,"Duration":662982,"SoundDuration":662982,"Delta":107973478},{"NoteNumber":52,"Velocity":70,"Duration":662982,"SoundDuration":662982,"Delta":107973478},{"NoteNumber":44,"Velocity":59,"Duration":662982,"SoundDuration":662982,"Delta":107973478},{"NoteNumber":40,"Velocity":59,"Duration":662982,"SoundDuration":662982,"Delta":107973478},{"NoteNumber":56,"Velocity":66,"Duration":652174,"SoundDuration":652174,"Delta":108636461},{"NoteNumber":47,"Velocity":56,"Duration":652174,"SoundDuration":652174,"Delta":108636461},{"NoteNumber":44,"Velocity":50,"Duration":652174,"SoundDuration":652174,"Delta":108636461},{"NoteNumber":85,"Velocity":115,"Duration":1325965,"SoundDuration":1325965,"Delta":109288635},{"NoteNumber":73,"Velocity":103,"Duration":1325965,"SoundDuration":1325965,"Delta":109288635},{"NoteNumber":37,"Velocity":69,"Duration":662982,"SoundDuration":662982,"Delta":109288635},{"NoteNumber":33,"Velocity":62,"Duration":662982,"SoundDuration":662982,"Delta":109288635},{"NoteNumber":45,"Velocity":82,"Duration":662982,"SoundDuration":662982,"Delta":109288635},{"NoteNumber":37,"Velocity":51,"Duration":662982,"SoundDuration":662982,"Delta":109951618},{"NoteNumber":40,"Velocity":56,"Duration":662982,"SoundDuration":662982,"Delta":109951618},{"NoteNumber":49,"Velocity":67,"Duration":662982,"SoundDuration":662982,"Delta":109951618},{"NoteNumber":92,"Velocity":106,"Duration":648649,"SoundDuration":648649,"Delta":110614601},{"NoteNumber":80,"Velocity":95,"Duration":648649,"SoundDuration":648649,"Delta":110614601},{"NoteNumber":52,"Velocity":75,"Duration":648649,"SoundDuration":648649,"Delta":110614601},{"NoteNumber":44,"Velocity":63,"Duration":648649,"SoundDuration":648649,"Delta":110614601},{"NoteNumber":40,"Velocity":56,"Duration":648649,"SoundDuration":648649,"Delta":110614601},{"NoteNumber":92,"Velocity":104,"Duration":655737,"SoundDuration":655737,"Delta":111263250},{"NoteNumber":80,"Velocity":93,"Duration":655737,"SoundDuration":655737,"Delta":111263250},{"NoteNumber":56,"Velocity":65,"Duration":655737,"SoundDuration":655737,"Delta":111263250},{"NoteNumber":47,"Velocity":55,"Duration":655737,"SoundDuration":655737,"Delta":111263250},{"NoteNumber":44,"Velocity":49,"Duration":655737,"SoundDuration":655737,"Delta":111263250},{"NoteNumber":87,"Velocity":110,"Duration":1318841,"SoundDuration":1318841,"Delta":111918988},{"NoteNumber":75,"Velocity":99,"Duration":1318841,"SoundDuration":1318841,"Delta":111918988},{"NoteNumber":34,"Velocity":69,"Duration":666667,"SoundDuration":666667,"Delta":111918988},{"NoteNumber":31,"Velocity":62,"Duration":666667,"SoundDuration":666667,"Delta":111918988},{"NoteNumber":43,"Velocity":82,"Duration":666667,"SoundDuration":666667,"Delta":111918988},{"NoteNumber":34,"Velocity":47,"Duration":652174,"SoundDuration":652174,"Delta":112585655},{"NoteNumber":39,"Velocity":53,"Duration":652174,"SoundDuration":652174,"Delta":112585655},{"NoteNumber":46,"Velocity":63,"Duration":652174,"SoundDuration":652174,"Delta":112585655},{"NoteNumber":85,"Velocity":105,"Duration":1322405,"SoundDuration":1322405,"Delta":113237829},{"NoteNumber":73,"Velocity":94,"Duration":1322405,"SoundDuration":1322405,"Delta":113237829},{"NoteNumber":31,"Velocity":52,"Duration":666667,"SoundDuration":666667,"Delta":113237829},{"NoteNumber":34,"Velocity":58,"Duration":666667,"SoundDuration":666667,"Delta":113237829},{"NoteNumber":43,"Velocity":69,"Duration":666667,"SoundDuration":666667,"Delta":113237829},{"NoteNumber":34,"Velocity":40,"Duration":655737,"SoundDuration":655737,"Delta":113904496},{"NoteNumber":39,"Velocity":45,"Duration":655737,"SoundDuration":655737,"Delta":113904496},{"NoteNumber":46,"Velocity":54,"Duration":655737,"SoundDuration":655737,"Delta":113904496},{"NoteNumber":83,"Velocity":102,"Duration":648649,"SoundDuration":648649,"Delta":114560234},{"NoteNumber":71,"Velocity":91,"Duration":648649,"SoundDuration":648649,"Delta":114560234},{"NoteNumber":32,"Velocity":58,"Duration":648649,"SoundDuration":648649,"Delta":114560234},{"NoteNumber":39,"Velocity":65,"Duration":648649,"SoundDuration":648649,"Delta":114560234},{"NoteNumber":44,"Velocity":77,"Duration":648649,"SoundDuration":648649,"Delta":114560234},{"NoteNumber":87,"Velocity":96,"Duration":655737,"SoundDuration":655737,"Delta":115208883},{"NoteNumber":75,"Velocity":86,"Duration":655737,"SoundDuration":655737,"Delta":115208883},{"NoteNumber":35,"Velocity":47,"Duration":655737,"SoundDuration":655737,"Delta":115208883},{"NoteNumber":39,"Velocity":53,"Duration":655737,"SoundDuration":655737,"Delta":115208883},{"NoteNumber":47,"Velocity":63,"Duration":655737,"SoundDuration":655737,"Delta":115208883},{"NoteNumber":82,"Velocity":102,"Duration":655737,"SoundDuration":655737,"Delta":115864621},{"NoteNumber":70,"Velocity":91,"Duration":655737,"SoundDuration":655737,"Delta":115864621},{"NoteNumber":27,"Velocity":49,"Duration":655737,"SoundDuration":655737,"Delta":115864621},{"NoteNumber":34,"Velocity":55,"Duration":655737,"SoundDuration":655737,"Delta":115864621},{"NoteNumber":39,"Velocity":65,"Duration":655737,"SoundDuration":655737,"Delta":115864621},{"NoteNumber":31,"Velocity":39,"Duration":666667,"SoundDuration":666667,"Delta":116520359},{"NoteNumber":39,"Velocity":45,"Duration":666667,"SoundDuration":666667,"Delta":116520359},{"NoteNumber":43,"Velocity":53,"Duration":666667,"SoundDuration":666667,"Delta":116520359},{"NoteNumber":80,"Velocity":96,"Duration":1333333,"SoundDuration":1333333,"Delta":117187026},{"NoteNumber":68,"Velocity":86,"Duration":1333333,"SoundDuration":1333333,"Delta":117187026},{"NoteNumber":32,"Velocity":53,"Duration":666667,"SoundDuration":666667,"Delta":117187026},{"NoteNumber":35,"Velocity":60,"Duration":666667,"SoundDuration":666667,"Delta":117187026},{"NoteNumber":44,"Velocity":71,"Duration":666667,"SoundDuration":666667,"Delta":117187026},{"NoteNumber":35,"Velocity":40,"Duration":666666,"SoundDuration":666666,"Delta":117853693},{"NoteNumber":39,"Velocity":45,"Duration":666666,"SoundDuration":666666,"Delta":117853693},{"NoteNumber":47,"Velocity":54,"Duration":666666,"SoundDuration":666666,"Delta":117853693},{"NoteNumber":78,"Velocity":89,"Duration":655737,"SoundDuration":655737,"Delta":118520360},{"NoteNumber":66,"Velocity":80,"Duration":655737,"SoundDuration":655737,"Delta":118520360},{"NoteNumber":33,"Velocity":44,"Duration":655737,"SoundDuration":655737,"Delta":118520360},{"NoteNumber":37,"Velocity":49,"Duration":655737,"SoundDuration":655737,"Delta":118520360},{"NoteNumber":45,"Velocity":58,"Duration":655737,"SoundDuration":655737,"Delta":118520360},{"NoteNumber":76,"Velocity":81,"Duration":674156,"SoundDuration":674156,"Delta":119176098},{"NoteNumber":64,"Velocity":72,"Duration":674156,"SoundDuration":674156,"Delta":119176098},{"NoteNumber":37,"Velocity":38,"Duration":674156,"SoundDuration":674156,"Delta":119176098},{"NoteNumber":40,"Velocity":42,"Duration":674156,"SoundDuration":674156,"Delta":119176098},{"NoteNumber":49,"Velocity":50,"Duration":674156,"SoundDuration":674156,"Delta":119176098},{"NoteNumber":75,"Velocity":85,"Duration":666667,"SoundDuration":666667,"Delta":119850255},{"NoteNumber":63,"Velocity":76,"Duration":666667,"SoundDuration":666667,"Delta":119850255},{"NoteNumber":32,"Velocity":40,"Duration":666667,"SoundDuration":666667,"Delta":119850255},{"NoteNumber":39,"Velocity":45,"Duration":666667,"SoundDuration":666667,"Delta":119850255},{"NoteNumber":44,"Velocity":54,"Duration":666667,"SoundDuration":666667,"Delta":119850255},{"NoteNumber":35,"Velocity":28,"Duration":689655,"SoundDuration":689655,"Delta":120516922},{"NoteNumber":39,"Velocity":31,"Duration":689655,"SoundDuration":689655,"Delta":120516922},{"NoteNumber":47,"Velocity":37,"Duration":689655,"SoundDuration":689655,"Delta":120516922},{"NoteNumber":51,"Velocity":57,"Duration":1989072,"SoundDuration":1989072,"Delta":121206577},{"NoteNumber":32,"Velocity":25,"Duration":666667,"SoundDuration":666667,"Delta":121206577},{"NoteNumber":39,"Velocity":28,"Duration":666667,"SoundDuration":666667,"Delta":121206577},{"NoteNumber":44,"Velocity":34,"Duration":666667,"SoundDuration":666667,"Delta":121206577},{"NoteNumber":35,"Velocity":23,"Duration":655737,"SoundDuration":655737,"Delta":121873244},{"NoteNumber":39,"Velocity":27,"Duration":655737,"SoundDuration":655737,"Delta":121873244},{"NoteNumber":47,"Velocity":32,"Duration":655737,"SoundDuration":655737,"Delta":121873244},{"NoteNumber":32,"Velocity":25,"Duration":666667,"SoundDuration":666667,"Delta":122528982},{"NoteNumber":39,"Velocity":28,"Duration":666667,"SoundDuration":666667,"Delta":122528982},{"NoteNumber":44,"Velocity":34,"Duration":666667,"SoundDuration":666667,"Delta":122528982},{"NoteNumber":54,"Velocity":59,"Duration":326087,"SoundDuration":326087,"Delta":123195649},{"NoteNumber":35,"Velocity":23,"Duration":652174,"SoundDuration":652174,"Delta":123195649},{"NoteNumber":39,"Velocity":27,"Duration":652174,"SoundDuration":652174,"Delta":123195649},{"NoteNumber":47,"Velocity":32,"Duration":652174,"SoundDuration":652174,"Delta":123195649},{"NoteNumber":52,"Velocity":56,"Duration":326087,"SoundDuration":326087,"Delta":123521736},{"NoteNumber":51,"Velocity":59,"Duration":666667,"SoundDuration":666667,"Delta":123847823},{"NoteNumber":32,"Velocity":25,"Duration":666667,"SoundDuration":666667,"Delta":123847823},{"NoteNumber":39,"Velocity":28,"Duration":666667,"SoundDuration":666667,"Delta":123847823},{"NoteNumber":44,"Velocity":34,"Duration":666667,"SoundDuration":666667,"Delta":123847823},{"NoteNumber":52,"Velocity":56,"Duration":655737,"SoundDuration":655737,"Delta":124514490},{"NoteNumber":35,"Velocity":23,"Duration":655737,"SoundDuration":655737,"Delta":124514490},{"NoteNumber":39,"Velocity":27,"Duration":655737,"SoundDuration":655737,"Delta":124514490},{"NoteNumber":47,"Velocity":32,"Duration":655737,"SoundDuration":655737,"Delta":124514490},{"NoteNumber":51,"Velocity":59,"Duration":659340,"SoundDuration":659340,"Delta":125170228},{"NoteNumber":32,"Velocity":25,"Duration":659340,"SoundDuration":659340,"Delta":125170228},{"NoteNumber":39,"Velocity":28,"Duration":659340,"SoundDuration":659340,"Delta":125170228},{"NoteNumber":44,"Velocity":34,"Duration":659340,"SoundDuration":659340,"Delta":125170228},{"NoteNumber":56,"Velocity":58,"Duration":645161,"SoundDuration":645161,"Delta":125829569},{"NoteNumber":35,"Velocity":22,"Duration":645161,"SoundDuration":645161,"Delta":125829569},{"NoteNumber":39,"Velocity":24,"Duration":645161,"SoundDuration":645161,"Delta":125829569},{"NoteNumber":47,"Velocity":29,"Duration":645161,"SoundDuration":645161,"Delta":125829569},{"NoteNumber":58,"Velocity":59,"Duration":645161,"SoundDuration":645161,"Delta":126474730},{"NoteNumber":32,"Velocity":26,"Duration":645161,"SoundDuration":645161,"Delta":126474730},{"NoteNumber":39,"Velocity":29,"Duration":645161,"SoundDuration":645161,"Delta":126474730},{"NoteNumber":44,"Velocity":35,"Duration":645161,"SoundDuration":645161,"Delta":126474730},{"NoteNumber":59,"Velocity":59,"Duration":655737,"SoundDuration":655737,"Delta":127119891},{"NoteNumber":35,"Velocity":23,"Duration":655737,"SoundDuration":655737,"Delta":127119891},{"NoteNumber":39,"Velocity":26,"Duration":655737,"SoundDuration":655737,"Delta":127119891},{"NoteNumber":47,"Velocity":31,"Duration":655737,"SoundDuration":655737,"Delta":127119891},{"NoteNumber":58,"Velocity":62,"Duration":1333334,"SoundDuration":1333334,"Delta":127775629},{"NoteNumber":32,"Velocity":27,"Duration":666666,"SoundDuration":666666,"Delta":127775629},{"NoteNumber":39,"Velocity":30,"Duration":666666,"SoundDuration":666666,"Delta":127775629},{"NoteNumber":44,"Velocity":36,"Duration":666666,"SoundDuration":666666,"Delta":127775629},{"NoteNumber":35,"Velocity":23,"Duration":666667,"SoundDuration":666667,"Delta":128442296},{"NoteNumber":39,"Velocity":27,"Duration":666667,"SoundDuration":666667,"Delta":128442296},{"NoteNumber":47,"Velocity":32,"Duration":666667,"SoundDuration":666667,"Delta":128442296},{"NoteNumber":56,"Velocity":59,"Duration":666666,"SoundDuration":666666,"Delta":129108963},{"NoteNumber":32,"Velocity":23,"Duration":666666,"SoundDuration":666666,"Delta":129108963},{"NoteNumber":39,"Velocity":27,"Duration":666666,"SoundDuration":666666,"Delta":129108963},{"NoteNumber":44,"Velocity":32,"Duration":666666,"SoundDuration":666666,"Delta":129108963},{"NoteNumber":35,"Velocity":22,"Duration":666666,"SoundDuration":666666,"Delta":129775630},{"NoteNumber":39,"Velocity":24,"Duration":666666,"SoundDuration":666666,"Delta":129775630},{"NoteNumber":47,"Velocity":29,"Duration":666666,"SoundDuration":666666,"Delta":129775630},{"NoteNumber":61,"Velocity":68,"Duration":1318721,"SoundDuration":1318721,"Delta":130442297},{"NoteNumber":37,"Velocity":36,"Duration":662982,"SoundDuration":662982,"Delta":130442297},{"NoteNumber":33,"Velocity":32,"Duration":662982,"SoundDuration":662982,"Delta":130442297},{"NoteNumber":45,"Velocity":43,"Duration":662982,"SoundDuration":662982,"Delta":130442297},{"NoteNumber":37,"Velocity":29,"Duration":655738,"SoundDuration":655738,"Delta":131105280},{"NoteNumber":40,"Velocity":33,"Duration":655738,"SoundDuration":655738,"Delta":131105280},{"NoteNumber":49,"Velocity":39,"Duration":655738,"SoundDuration":655738,"Delta":131105280},{"NoteNumber":64,"Velocity":63,"Duration":666666,"SoundDuration":666666,"Delta":131761018},{"NoteNumber":28,"Velocity":32,"Duration":666666,"SoundDuration":666666,"Delta":131761018},{"NoteNumber":32,"Velocity":36,"Duration":666666,"SoundDuration":666666,"Delta":131761018},{"NoteNumber":40,"Velocity":43,"Duration":666666,"SoundDuration":666666,"Delta":131761018},{"NoteNumber":32,"Velocity":29,"Duration":666667,"SoundDuration":666667,"Delta":132427685},{"NoteNumber":35,"Velocity":33,"Duration":666667,"SoundDuration":666667,"Delta":132427685},{"NoteNumber":44,"Velocity":39,"Duration":666667,"SoundDuration":666667,"Delta":132427685},{"NoteNumber":64,"Velocity":68,"Duration":1333334,"SoundDuration":1333334,"Delta":133094352},{"NoteNumber":37,"Velocity":38,"Duration":666666,"SoundDuration":666666,"Delta":133094352},{"NoteNumber":33,"Velocity":34,"Duration":666666,"SoundDuration":666666,"Delta":133094352},{"NoteNumber":45,"Velocity":45,"Duration":666666,"SoundDuration":666666,"Delta":133094352},{"NoteNumber":37,"Velocity":28,"Duration":666667,"SoundDuration":666667,"Delta":133761019},{"NoteNumber":40,"Velocity":33,"Duration":666667,"SoundDuration":666667,"Delta":133761019},{"NoteNumber":49,"Velocity":39,"Duration":666667,"SoundDuration":666667,"Delta":133761019},{"NoteNumber":64,"Velocity":66,"Duration":1315315,"SoundDuration":1315315,"Delta":134427686},{"NoteNumber":28,"Velocity":34,"Duration":648649,"SoundDuration":648649,"Delta":134427686},{"NoteNumber":32,"Velocity":39,"Duration":648649,"SoundDuration":648649,"Delta":134427686},{"NoteNumber":40,"Velocity":46,"Duration":648649,"SoundDuration":648649,"Delta":134427686},{"NoteNumber":32,"Velocity":30,"Duration":666666,"SoundDuration":666666,"Delta":135076335},{"NoteNumber":35,"Velocity":34,"Duration":666666,"SoundDuration":666666,"Delta":135076335},{"NoteNumber":44,"Velocity":40,"Duration":666666,"SoundDuration":666666,"Delta":135076335},{"NoteNumber":37,"Velocity":39,"Duration":666666,"SoundDuration":666666,"Delta":135743002},{"NoteNumber":33,"Velocity":34,"Duration":666666,"SoundDuration":666666,"Delta":135743002},{"NoteNumber":45,"Velocity":46,"Duration":666666,"SoundDuration":666666,"Delta":135743002},{"NoteNumber":37,"Velocity":24,"Duration":666667,"SoundDuration":666667,"Delta":136409669},{"NoteNumber":40,"Velocity":28,"Duration":666667,"SoundDuration":666667,"Delta":136409669},{"NoteNumber":49,"Velocity":33,"Duration":666667,"SoundDuration":666667,"Delta":136409669},{"NoteNumber":68,"Velocity":64,"Duration":1304387,"SoundDuration":1304387,"Delta":137076336},{"NoteNumber":28,"Velocity":34,"Duration":648649,"SoundDuration":648649,"Delta":137076336},{"NoteNumber":32,"Velocity":39,"Duration":648649,"SoundDuration":648649,"Delta":137076336},{"NoteNumber":40,"Velocity":46,"Duration":648649,"SoundDuration":648649,"Delta":137076336},{"NoteNumber":32,"Velocity":24,"Duration":655738,"SoundDuration":655738,"Delta":137724985},{"NoteNumber":35,"Velocity":28,"Duration":655738,"SoundDuration":655738,"Delta":137724985},{"NoteNumber":44,"Velocity":33,"Duration":655738,"SoundDuration":655738,"Delta":137724985},{"NoteNumber":63,"Velocity":65,"Duration":666666,"SoundDuration":666666,"Delta":138380723},{"NoteNumber":42,"Velocity":38,"Duration":666666,"SoundDuration":666666,"Delta":138380723},{"NoteNumber":35,"Velocity":34,"Duration":666666,"SoundDuration":666666,"Delta":138380723},{"NoteNumber":47,"Velocity":45,"Duration":666666,"SoundDuration":666666,"Delta":138380723},{"NoteNumber":59,"Velocity":57,"Duration":652174,"SoundDuration":652174,"Delta":139047390},{"NoteNumber":39,"Velocity":23,"Duration":652174,"SoundDuration":652174,"Delta":139047390},{"NoteNumber":42,"Velocity":27,"Duration":652174,"SoundDuration":652174,"Delta":139047390},{"NoteNumber":51,"Velocity":32,"Duration":652174,"SoundDuration":652174,"Delta":139047390},{"NoteNumber":58,"Velocity":62,"Duration":1322405,"SoundDuration":1322405,"Delta":139699564},{"NoteNumber":39,"Velocity":37,"Duration":1322405,"SoundDuration":1322405,"Delta":139699564},{"NoteNumber":43,"Velocity":37,"Duration":666666,"SoundDuration":666666,"Delta":139699564},{"NoteNumber":51,"Velocity":44,"Duration":666666,"SoundDuration":666666,"Delta":139699564},{"NoteNumber":43,"Velocity":29,"Duration":655738,"SoundDuration":655738,"Delta":140366231},{"NoteNumber":51,"Velocity":35,"Duration":655738,"SoundDuration":655738,"Delta":140366231},{"NoteNumber":56,"Velocity":54,"Duration":670390,"SoundDuration":670390,"Delta":141021969},{"NoteNumber":32,"Velocity":28,"Duration":1326129,"SoundDuration":1326129,"Delta":141021969},{"NoteNumber":39,"Velocity":33,"Duration":670390,"SoundDuration":670390,"Delta":141021969},{"NoteNumber":44,"Velocity":39,"Duration":670390,"SoundDuration":670390,"Delta":141021969},{"NoteNumber":39,"Velocity":23,"Duration":655738,"SoundDuration":655738,"Delta":141692360},{"NoteNumber":44,"Velocity":28,"Duration":655738,"SoundDuration":655738,"Delta":141692360},{"NoteNumber":33,"Velocity":22,"Duration":1318720,"SoundDuration":1318720,"Delta":142348098},{"NoteNumber":37,"Velocity":25,"Duration":655737,"SoundDuration":655737,"Delta":142348098},{"NoteNumber":45,"Velocity":30,"Duration":655737,"SoundDuration":655737,"Delta":142348098},{"NoteNumber":37,"Velocity":23,"Duration":662982,"SoundDuration":662982,"Delta":143003836},{"NoteNumber":45,"Velocity":28,"Duration":662982,"SoundDuration":662982,"Delta":143003836},{"NoteNumber":50,"Velocity":30,"Duration":666666,"SoundDuration":666666,"Delta":143666819},{"NoteNumber":42,"Velocity":25,"Duration":666666,"SoundDuration":666666,"Delta":143666819},{"NoteNumber":38,"Velocity":22,"Duration":1333334,"SoundDuration":1333334,"Delta":143666819},{"NoteNumber":50,"Velocity":28,"Duration":666667,"SoundDuration":666667,"Delta":144333486},{"NoteNumber":42,"Velocity":23,"Duration":666667,"SoundDuration":666667,"Delta":144333486},{"NoteNumber":49,"Velocity":30,"Duration":666666,"SoundDuration":666666,"Delta":145000153},{"NoteNumber":40,"Velocity":25,"Duration":666666,"SoundDuration":666666,"Delta":145000153},{"NoteNumber":37,"Velocity":22,"Duration":1333333,"SoundDuration":1333333,"Delta":145000153},{"NoteNumber":40,"Velocity":23,"Duration":666666,"SoundDuration":666666,"Delta":145666820},{"NoteNumber":49,"Velocity":28,"Duration":666666,"SoundDuration":666666,"Delta":145666820},{"NoteNumber":32,"Velocity":22,"Duration":666666,"SoundDuration":666666,"Delta":146333487},{"NoteNumber":39,"Velocity":25,"Duration":666666,"SoundDuration":666666,"Delta":146333487},{"NoteNumber":44,"Velocity":30,"Duration":666666,"SoundDuration":666666,"Delta":146333487},{"NoteNumber":35,"Velocity":18,"Duration":659341,"SoundDuration":659341,"Delta":147000154},{"NoteNumber":39,"Velocity":22,"Duration":659341,"SoundDuration":659341,"Delta":147000154},{"NoteNumber":47,"Velocity":26,"Duration":659341,"SoundDuration":659341,"Delta":147000154},{"NoteNumber":51,"Velocity":35,"Duration":1985388,"SoundDuration":1985388,"Delta":147659495},{"NoteNumber":32,"Velocity":22,"Duration":662982,"SoundDuration":662982,"Delta":147659495},{"NoteNumber":39,"Velocity":24,"Duration":662982,"SoundDuration":662982,"Delta":147659495},{"NoteNumber":44,"Velocity":29,"Duration":662982,"SoundDuration":662982,"Delta":147659495},{"NoteNumber":35,"Velocity":19,"Duration":655738,"SoundDuration":655738,"Delta":148322478},{"NoteNumber":39,"Velocity":22,"Duration":655738,"SoundDuration":655738,"Delta":148322478},{"NoteNumber":47,"Velocity":27,"Duration":655738,"SoundDuration":655738,"Delta":148322478},{"NoteNumber":32,"Velocity":22,"Duration":666666,"SoundDuration":666666,"Delta":148978216},{"NoteNumber":39,"Velocity":25,"Duration":666666,"SoundDuration":666666,"Delta":148978216},{"NoteNumber":44,"Velocity":30,"Duration":666666,"SoundDuration":666666,"Delta":148978216},{"NoteNumber":54,"Velocity":33,"Duration":326087,"SoundDuration":326087,"Delta":149644883},{"NoteNumber":35,"Velocity":20,"Duration":655757,"SoundDuration":655757,"Delta":149644883},{"NoteNumber":39,"Velocity":23,"Duration":655757,"SoundDuration":655757,"Delta":149644883},{"NoteNumber":47,"Velocity":28,"Duration":655757,"SoundDuration":655757,"Delta":149644883},{"NoteNumber":52,"Velocity":30,"Duration":329670,"SoundDuration":329670,"Delta":149970970},{"NoteNumber":51,"Velocity":34,"Duration":652174,"SoundDuration":652174,"Delta":150300640},{"NoteNumber":32,"Velocity":22,"Duration":652174,"SoundDuration":652174,"Delta":150300640},{"NoteNumber":39,"Velocity":24,"Duration":652174,"SoundDuration":652174,"Delta":150300640},{"NoteNumber":44,"Velocity":29,"Duration":652174,"SoundDuration":652174,"Delta":150300640},{"NoteNumber":52,"Velocity":32,"Duration":662982,"SoundDuration":662982,"Delta":150952814},{"NoteNumber":35,"Velocity":19,"Duration":662982,"SoundDuration":662982,"Delta":150952814},{"NoteNumber":39,"Velocity":22,"Duration":662982,"SoundDuration":662982,"Delta":150952814},{"NoteNumber":47,"Velocity":27,"Duration":662982,"SoundDuration":662982,"Delta":150952814},{"NoteNumber":39,"Velocity":23,"Duration":669974,"SoundDuration":669974,"Delta":151615797},{"NoteNumber":44,"Velocity":28,"Duration":669974,"SoundDuration":669974,"Delta":151615797},{"NoteNumber":32,"Velocity":21,"Duration":1351792,"SoundDuration":1351792,"Delta":151615797},{"NoteNumber":39,"Velocity":21,"Duration":681817,"SoundDuration":681817,"Delta":152285771},{"NoteNumber":44,"Velocity":25,"Duration":681817,"SoundDuration":681817,"Delta":152285771},{"NoteNumber":33,"Velocity":21,"Duration":1379492,"SoundDuration":1379492,"Delta":152967589},{"NoteNumber":37,"Velocity":23,"Duration":681818,"SoundDuration":681818,"Delta":152967589},{"NoteNumber":45,"Velocity":28,"Duration":681818,"SoundDuration":681818,"Delta":152967589},{"NoteNumber":37,"Velocity":21,"Duration":697674,"SoundDuration":697674,"Delta":153649407},{"NoteNumber":45,"Velocity":25,"Duration":697674,"SoundDuration":697674,"Delta":153649407},{"NoteNumber":40,"Velocity":28,"Duration":677965,"SoundDuration":677965,"Delta":154347081},{"NoteNumber":32,"Velocity":23,"Duration":677965,"SoundDuration":677965,"Delta":154347081},{"NoteNumber":28,"Velocity":21,"Duration":1348356,"SoundDuration":1348356,"Delta":154347081},{"NoteNumber":40,"Velocity":25,"Duration":670390,"SoundDuration":670390,"Delta":155025047},{"NoteNumber":32,"Velocity":21,"Duration":670390,"SoundDuration":670390,"Delta":155025047},{"NoteNumber":42,"Velocity":28,"Duration":685713,"SoundDuration":685713,"Delta":155695438},{"NoteNumber":33,"Velocity":23,"Duration":685713,"SoundDuration":685713,"Delta":155695438},{"NoteNumber":30,"Velocity":21,"Duration":1349975,"SoundDuration":1349975,"Delta":155695438},{"NoteNumber":42,"Velocity":23,"Duration":664261,"SoundDuration":664261,"Delta":156381152},{"NoteNumber":33,"Velocity":19,"Duration":664261,"SoundDuration":664261,"Delta":156381152},{"NoteNumber":51,"Velocity":29,"Duration":2045584,"SoundDuration":2045584,"Delta":157045414},{"NoteNumber":32,"Velocity":18,"Duration":685713,"SoundDuration":685713,"Delta":157045414},{"NoteNumber":39,"Velocity":21,"Duration":685713,"SoundDuration":685713,"Delta":157045414},{"NoteNumber":44,"Velocity":25,"Duration":685713,"SoundDuration":685713,"Delta":157045414},{"NoteNumber":35,"Velocity":12,"Duration":674157,"SoundDuration":674157,"Delta":157731128},{"NoteNumber":39,"Velocity":14,"Duration":674157,"SoundDuration":674157,"Delta":157731128},{"NoteNumber":47,"Velocity":17,"Duration":674157,"SoundDuration":674157,"Delta":157731128},{"NoteNumber":32,"Velocity":18,"Duration":685713,"SoundDuration":685713,"Delta":158405285},{"NoteNumber":39,"Velocity":20,"Duration":685713,"SoundDuration":685713,"Delta":158405285},{"NoteNumber":44,"Velocity":24,"Duration":685713,"SoundDuration":685713,"Delta":158405285},{"NoteNumber":35,"Velocity":14,"Duration":662982,"SoundDuration":662982,"Delta":159090999},{"NoteNumber":39,"Velocity":16,"Duration":662982,"SoundDuration":662982,"Delta":159090999},{"NoteNumber":47,"Velocity":19,"Duration":662982,"SoundDuration":662982,"Delta":159090999},{"NoteNumber":35,"Velocity":22,"Duration":681817,"SoundDuration":681817,"Delta":159753982},{"NoteNumber":32,"Velocity":18,"Duration":681817,"SoundDuration":681817,"Delta":159753982},{"NoteNumber":39,"Velocity":17,"Duration":681818,"SoundDuration":681818,"Delta":160435800},{"NoteNumber":35,"Velocity":14,"Duration":681818,"SoundDuration":681818,"Delta":160435800},{"NoteNumber":35,"Velocity":23,"Duration":681817,"SoundDuration":681817,"Delta":161117618},{"NoteNumber":32,"Velocity":19,"Duration":681817,"SoundDuration":681817,"Delta":161117618},{"NoteNumber":39,"Velocity":17,"Duration":681817,"SoundDuration":681817,"Delta":161799436},{"NoteNumber":35,"Velocity":14,"Duration":681817,"SoundDuration":681817,"Delta":161799436},{"NoteNumber":32,"Velocity":24,"Duration":1387283,"SoundDuration":1387283,"Delta":162481254},{"NoteNumber":35,"Velocity":19,"Duration":1437126,"SoundDuration":1437126,"Delta":163868538},{"NoteNumber":32,"Velocity":21,"Duration":1472392,"SoundDuration":1472392,"Delta":165305664},{"NoteNumber":35,"Velocity":17,"Duration":1472391,"SoundDuration":1472391,"Delta":166778056}],"license":{"name":"Creative Commons Attribution-ShareAlike 3.0 Germany","url":"http://creativecommons.org/licenses/by-sa/3.0/de/deed.en","text":"The MIDI, audio (MP3, OGG) and video files of Bernd Krueger are licensed under the cc-by-sa Germany License. This means that you can use and adapt the files, as long as you attribute the copyright holder.\n\nName: Bernd Krueger\nSource: http://www.piano-midi.de\n\nThe distribution or public playback of the files is only allowed under identical license conditions.\n\nThe scores are open source.","attribution":"MIDI files by Bernd Krueger (piano-midi.de)","attributionUrl":"http://www.piano-midi.de"}}