{"title":"Promenade - Die Tuilerien (3)","artist":"Mussorgsky","durationMs":86398,"midiSha256":"f84b596e23dece76010f9e04a5085caa86ade8955ed8bd9637245e45ef027562","midiObject":[{"NoteNumber":56,"Velocity":65,"Duration":643225,"SoundDuration":643225,"Delta":0},{"NoteNumber":68,"Velocity":77,"Duration":643225,"SoundDuration":643225,"Delta":0},{"NoteNumber":54,"Velocity":64,"Duration":643224,"SoundDuration":643224,"Delta":641884},{"NoteNumber":66,"Velocity":76,"Duration":643224,"SoundDuration":643224,"Delta":641884},{"NoteNumber":59,"Velocity":65,"Duration":630583,"SoundDuration":630583,"Delta":1285109},{"NoteNumber":71,"Velocity":77,"Duration":630583,"SoundDuration":630583,"Delta":1285109},{"NoteNumber":39,"Velocity":67,"Duration":630583,"SoundDuration":630583,"Delta":1285109},{"NoteNumber":27,"Velocity":56,"Duration":630583,"SoundDuration":630583,"Delta":1285109},{"NoteNumber":61,"Velocity":66,"Duration":309214,"SoundDuration":309214,"Delta":1915693},{"NoteNumber":73,"Velocity":78,"Duration":309214,"SoundDuration":309214,"Delta":1915693},{"NoteNumber":46,"Velocity":65,"Duration":621454,"SoundDuration":621454,"Delta":1915693},{"NoteNumber":34,"Velocity":55,"Duration":621454,"SoundDuration":621454,"Delta":1915693},{"NoteNumber":66,"Velocity":56,"Duration":312240,"SoundDuration":312240,"Delta":2224907},{"NoteNumber":78,"Velocity":67,"Duration":312240,"SoundDuration":312240,"Delta":2224907},{"NoteNumber":63,"Velocity":63,"Duration":630583,"SoundDuration":630583,"Delta":2537147},{"NoteNumber":75,"Velocity":75,"Duration":630583,"SoundDuration":630583,"Delta":2537147},{"NoteNumber":47,"Velocity":62,"Duration":630583,"SoundDuration":630583,"Delta":2537147},{"NoteNumber":35,"Velocity":52,"Duration":630583,"SoundDuration":630583,"Delta":2537147},{"NoteNumber":61,"Velocity":66,"Duration":312240,"SoundDuration":312240,"Delta":3167730},{"NoteNumber":73,"Velocity":78,"Duration":312240,"SoundDuration":312240,"Delta":3167730},{"NoteNumber":34,"Velocity":56,"Duration":627531,"SoundDuration":627531,"Delta":3167730},{"NoteNumber":46,"Velocity":67,"Duration":627531,"SoundDuration":627531,"Delta":3167730},{"NoteNumber":66,"Velocity":68,"Duration":315291,"SoundDuration":315291,"Delta":3479970},{"NoteNumber":78,"Velocity":68,"Duration":315291,"SoundDuration":315291,"Delta":3479970},{"NoteNumber":63,"Velocity":64,"Duration":643225,"SoundDuration":643225,"Delta":3795262},{"NoteNumber":75,"Velocity":76,"Duration":643225,"SoundDuration":643225,"Delta":3795262},{"NoteNumber":47,"Velocity":64,"Duration":643225,"SoundDuration":643225,"Delta":3795262},{"NoteNumber":35,"Velocity":54,"Duration":643225,"SoundDuration":643225,"Delta":3795262},{"NoteNumber":59,"Velocity":64,"Duration":633714,"SoundDuration":633714,"Delta":4438487},{"NoteNumber":71,"Velocity":76,"Duration":633714,"SoundDuration":633714,"Delta":4438487},{"NoteNumber":39,"Velocity":61,"Duration":633714,"SoundDuration":633714,"Delta":4438487},{"NoteNumber":27,"Velocity":51,"Duration":633714,"SoundDuration":633714,"Delta":4438487},{"NoteNumber":61,"Velocity":77,"Duration":643225,"SoundDuration":643225,"Delta":5072201},{"NoteNumber":73,"Velocity":77,"Duration":643225,"SoundDuration":643225,"Delta":5072201},{"NoteNumber":40,"Velocity":62,"Duration":643225,"SoundDuration":643225,"Delta":5072201},{"NoteNumber":28,"Velocity":52,"Duration":643225,"SoundDuration":643225,"Delta":5072201},{"NoteNumber":56,"Velocity":59,"Duration":643225,"SoundDuration":643225,"Delta":5715426},{"NoteNumber":68,"Velocity":70,"Duration":643225,"SoundDuration":643225,"Delta":5715426},{"NoteNumber":29,"Velocity":46,"Duration":643225,"SoundDuration":643225,"Delta":5715426},{"NoteNumber":41,"Velocity":55,"Duration":643225,"SoundDuration":643225,"Delta":5715426},{"NoteNumber":54,"Velocity":59,"Duration":634732,"SoundDuration":634732,"Delta":6358651},{"NoteNumber":66,"Velocity":70,"Duration":634732,"SoundDuration":634732,"Delta":6358651},{"NoteNumber":30,"Velocity":45,"Duration":634732,"SoundDuration":634732,"Delta":6358651},{"NoteNumber":42,"Velocity":54,"Duration":634732,"SoundDuration":634732,"Delta":6358651},{"NoteNumber":44,"Velocity":76,"Duration":652985,"SoundDuration":652985,"Delta":7037059},{"NoteNumber":32,"Velocity":64,"Duration":652985,"SoundDuration":652985,"Delta":7037059},{"NoteNumber":42,"Velocity":75,"Duration":633713,"SoundDuration":633713,"Delta":7688725},{"NoteNumber":30,"Velocity":63,"Duration":633713,"SoundDuration":633713,"Delta":7688725},{"NoteNumber":75,"Velocity":59,"Duration":621439,"SoundDuration":621439,"Delta":8322439},{"NoteNumber":78,"Velocity":70,"Duration":621439,"SoundDuration":621439,"Delta":8322439},{"NoteNumber":66,"Velocity":59,"Duration":621439,"SoundDuration":621439,"Delta":8322439},{"NoteNumber":71,"Velocity":59,"Duration":621439,"SoundDuration":621439,"Delta":8322439},{"NoteNumber":47,"Velocity":76,"Duration":621439,"SoundDuration":621439,"Delta":8322439},{"NoteNumber":35,"Velocity":64,"Duration":621439,"SoundDuration":621439,"Delta":8322439},{"NoteNumber":70,"Velocity":54,"Duration":625016,"SoundDuration":625016,"Delta":8943879},{"NoteNumber":73,"Velocity":64,"Duration":625016,"SoundDuration":625016,"Delta":8943879},{"NoteNumber":61,"Velocity":54,"Duration":625016,"SoundDuration":625016,"Delta":8943879},{"NoteNumber":66,"Velocity":54,"Duration":625016,"SoundDuration":625016,"Delta":8943879},{"NoteNumber":37,"Velocity":65,"Duration":310881,"SoundDuration":310881,"Delta":8943879},{"NoteNumber":49,"Velocity":77,"Duration":310881,"SoundDuration":310881,"Delta":8943879},{"NoteNumber":54,"Velocity":66,"Duration":314135,"SoundDuration":314135,"Delta":9254760},{"NoteNumber":42,"Velocity":66,"Duration":314135,"SoundDuration":314135,"Delta":9254760},{"NoteNumber":75,"Velocity":56,"Duration":624480,"SoundDuration":624480,"Delta":9568896},{"NoteNumber":78,"Velocity":67,"Duration":624480,"SoundDuration":624480,"Delta":9568896},{"NoteNumber":66,"Velocity":56,"Duration":624480,"SoundDuration":624480,"Delta":9568896},{"NoteNumber":71,"Velocity":56,"Duration":624480,"SoundDuration":624480,"Delta":9568896},{"NoteNumber":51,"Velocity":74,"Duration":624480,"SoundDuration":624480,"Delta":9568896},{"NoteNumber":39,"Velocity":62,"Duration":624480,"SoundDuration":624480,"Delta":9568896},{"NoteNumber":78,"Velocity":59,"Duration":627531,"SoundDuration":627531,"Delta":10193376},{"NoteNumber":82,"Velocity":70,"Duration":627531,"SoundDuration":627531,"Delta":10193376},{"NoteNumber":70,"Velocity":59,"Duration":627531,"SoundDuration":627531,"Delta":10193376},{"NoteNumber":73,"Velocity":59,"Duration":627531,"SoundDuration":627531,"Delta":10193376},{"NoteNumber":49,"Velocity":77,"Duration":312239,"SoundDuration":312239,"Delta":10193376},{"NoteNumber":37,"Velocity":65,"Duration":312239,"SoundDuration":312239,"Delta":10193376},{"NoteNumber":42,"Velocity":56,"Duration":315291,"SoundDuration":315291,"Delta":10505615},{"NoteNumber":54,"Velocity":67,"Duration":315291,"SoundDuration":315291,"Delta":10505615},{"NoteNumber":78,"Velocity":58,"Duration":612557,"SoundDuration":612557,"Delta":10820907},{"NoteNumber":83,"Velocity":69,"Duration":612557,"SoundDuration":612557,"Delta":10820907},{"NoteNumber":71,"Velocity":58,"Duration":612557,"SoundDuration":612557,"Delta":10820907},{"NoteNumber":75,"Velocity":58,"Duration":612557,"SoundDuration":612557,"Delta":10820907},{"NoteNumber":39,"Velocity":63,"Duration":612557,"SoundDuration":612557,"Delta":10820907},{"NoteNumber":51,"Velocity":75,"Duration":612557,"SoundDuration":612557,"Delta":10820907},{"NoteNumber":83,"Velocity":59,"Duration":627484,"SoundDuration":627484,"Delta":11433464},{"NoteNumber":87,"Velocity":70,"Duration":627484,"SoundDuration":627484,"Delta":11433464},{"NoteNumber":75,"Velocity":59,"Duration":627484,"SoundDuration":627484,"Delta":11433464},{"NoteNumber":78,"Velocity":59,"Duration":627484,"SoundDuration":627484,"Delta":11433464},{"NoteNumber":47,"Velocity":75,"Duration":627484,"SoundDuration":627484,"Delta":11433464},{"NoteNumber":35,"Velocity":63,"Duration":627484,"SoundDuration":627484,"Delta":11433464},{"NoteNumber":77,"Velocity":59,"Duration":636806,"SoundDuration":636806,"Delta":12060948},{"NoteNumber":73,"Velocity":59,"Duration":636806,"SoundDuration":636806,"Delta":12060948},{"NoteNumber":85,"Velocity":70,"Duration":636806,"SoundDuration":636806,"Delta":12060948},{"NoteNumber":80,"Velocity":59,"Duration":636806,"SoundDuration":636806,"Delta":12060948},{"NoteNumber":49,"Velocity":76,"Duration":636806,"SoundDuration":636806,"Delta":12060948},{"NoteNumber":37,"Velocity":64,"Duration":636806,"SoundDuration":636806,"Delta":12060948},{"NoteNumber":80,"Velocity":59,"Duration":643224,"SoundDuration":643224,"Delta":12697755},{"NoteNumber":77,"Velocity":59,"Duration":643224,"SoundDuration":643224,"Delta":12697755},{"NoteNumber":89,"Velocity":70,"Duration":643224,"SoundDuration":643224,"Delta":12697755},{"NoteNumber":85,"Velocity":70,"Duration":643224,"SoundDuration":643224,"Delta":12697755},{"NoteNumber":44,"Velocity":69,"Duration":643224,"SoundDuration":643224,"Delta":12697755},{"NoteNumber":32,"Velocity":58,"Duration":643224,"SoundDuration":643224,"Delta":12697755},{"NoteNumber":82,"Velocity":56,"Duration":634732,"SoundDuration":634732,"Delta":13340980},{"NoteNumber":78,"Velocity":56,"Duration":634732,"SoundDuration":634732,"Delta":13340980},{"NoteNumber":90,"Velocity":67,"Duration":634732,"SoundDuration":634732,"Delta":13340980},{"NoteNumber":85,"Velocity":56,"Duration":634732,"SoundDuration":634732,"Delta":13340980},{"NoteNumber":42,"Velocity":69,"Duration":634732,"SoundDuration":634732,"Delta":13340980},{"NoteNumber":30,"Velocity":58,"Duration":634732,"SoundDuration":634732,"Delta":13340980},{"NoteNumber":66,"Velocity":59,"Duration":643224,"SoundDuration":643224,"Delta":14018028},{"NoteNumber":78,"Velocity":70,"Duration":643224,"SoundDuration":643224,"Delta":14018028},{"NoteNumber":68,"Velocity":57,"Duration":636806,"SoundDuration":636806,"Delta":14661253},{"NoteNumber":80,"Velocity":68,"Duration":636806,"SoundDuration":636806,"Delta":14661253},{"NoteNumber":61,"Velocity":59,"Duration":633713,"SoundDuration":633713,"Delta":15298060},{"NoteNumber":73,"Velocity":70,"Duration":633713,"SoundDuration":633713,"Delta":15298060},{"NoteNumber":41,"Velocity":60,"Duration":1259696,"SoundDuration":1259696,"Delta":15298060},{"NoteNumber":53,"Velocity":71,"Duration":1259696,"SoundDuration":1259696,"Delta":15298060},{"NoteNumber":66,"Velocity":58,"Duration":312240,"SoundDuration":312240,"Delta":15931774},{"NoteNumber":78,"Velocity":69,"Duration":312240,"SoundDuration":312240,"Delta":15931774},{"NoteNumber":68,"Velocity":55,"Duration":313742,"SoundDuration":313742,"Delta":16244014},{"NoteNumber":80,"Velocity":65,"Duration":313742,"SoundDuration":313742,"Delta":16244014},{"NoteNumber":61,"Velocity":58,"Duration":633714,"SoundDuration":633714,"Delta":16557756},{"NoteNumber":73,"Velocity":69,"Duration":633714,"SoundDuration":633714,"Delta":16557756},{"NoteNumber":52,"Velocity":70,"Duration":1256849,"SoundDuration":1256849,"Delta":16557756},{"NoteNumber":40,"Velocity":59,"Duration":1256849,"SoundDuration":1256849,"Delta":16557756},{"NoteNumber":68,"Velocity":59,"Duration":306278,"SoundDuration":306278,"Delta":17191470},{"NoteNumber":80,"Velocity":70,"Duration":306278,"SoundDuration":306278,"Delta":17191470},{"NoteNumber":70,"Velocity":55,"Duration":316856,"SoundDuration":316856,"Delta":17497749},{"NoteNumber":82,"Velocity":65,"Duration":316856,"SoundDuration":316856,"Delta":17497749},{"NoteNumber":66,"Velocity":59,"Duration":594106,"SoundDuration":594106,"Delta":17814606},{"NoteNumber":78,"Velocity":70,"Duration":594106,"SoundDuration":594106,"Delta":17814606},{"NoteNumber":51,"Velocity":68,"Duration":1920164,"SoundDuration":1920164,"Delta":17814606},{"NoteNumber":39,"Velocity":57,"Duration":1920164,"SoundDuration":1920164,"Delta":17814606},{"NoteNumber":90,"Velocity":73,"Duration":643225,"SoundDuration":643225,"Delta":18448320},{"NoteNumber":78,"Velocity":62,"Duration":643225,"SoundDuration":643225,"Delta":18448320},{"NoteNumber":87,"Velocity":71,"Duration":643225,"SoundDuration":643225,"Delta":19091545},{"NoteNumber":75,"Velocity":60,"Duration":643225,"SoundDuration":643225,"Delta":19091545},{"NoteNumber":73,"Velocity":57,"Duration":316856,"SoundDuration":316856,"Delta":19734770},{"NoteNumber":85,"Velocity":68,"Duration":316856,"SoundDuration":316856,"Delta":19734770},{"NoteNumber":41,"Velocity":47,"Duration":633714,"SoundDuration":633714,"Delta":19734770},{"NoteNumber":53,"Velocity":56,"Duration":633714,"SoundDuration":633714,"Delta":19734770},{"NoteNumber":83,"Velocity":65,"Duration":316857,"SoundDuration":316857,"Delta":20051627},{"NoteNumber":71,"Velocity":55,"Duration":316857,"SoundDuration":316857,"Delta":20051627},{"NoteNumber":66,"Velocity":55,"Duration":634732,"SoundDuration":634732,"Delta":20368484},{"NoteNumber":78,"Velocity":65,"Duration":634732,"SoundDuration":634732,"Delta":20368484},{"NoteNumber":42,"Velocity":45,"Duration":634732,"SoundDuration":634732,"Delta":20368484},{"NoteNumber":54,"Velocity":53,"Duration":634732,"SoundDuration":634732,"Delta":20368484},{"NoteNumber":66,"Velocity":59,"Duration":643225,"SoundDuration":643225,"Delta":21045532},{"NoteNumber":54,"Velocity":53,"Duration":643225,"SoundDuration":643225,"Delta":21045532},{"NoteNumber":68,"Velocity":57,"Duration":636807,"SoundDuration":636807,"Delta":21688757},{"NoteNumber":56,"Velocity":52,"Duration":636807,"SoundDuration":636807,"Delta":21688757},{"NoteNumber":61,"Velocity":54,"Duration":670017,"SoundDuration":670017,"Delta":22325564},{"NoteNumber":49,"Velocity":51,"Duration":670017,"SoundDuration":670017,"Delta":22325564},{"NoteNumber":66,"Velocity":47,"Duration":326512,"SoundDuration":326512,"Delta":22995581},{"NoteNumber":54,"Velocity":41,"Duration":326512,"SoundDuration":326512,"Delta":22995581},{"NoteNumber":68,"Velocity":43,"Duration":338523,"SoundDuration":338523,"Delta":23322094},{"NoteNumber":56,"Velocity":36,"Duration":338523,"SoundDuration":338523,"Delta":23322094},{"NoteNumber":61,"Velocity":47,"Duration":663056,"SoundDuration":663056,"Delta":23660618},{"NoteNumber":49,"Velocity":41,"Duration":663056,"SoundDuration":663056,"Delta":23660618},{"NoteNumber":66,"Velocity":39,"Duration":340329,"SoundDuration":340329,"Delta":25649789},{"NoteNumber":68,"Velocity":36,"Duration":357313,"SoundDuration":357313,"Delta":25990118},{"NoteNumber":61,"Velocity":39,"Duration":357312,"SoundDuration":357312,"Delta":26347431},{"NoteNumber":78,"Velocity":50,"Duration":521376,"SoundDuration":521376,"Delta":27815855},{"NoteNumber":71,"Velocity":45,"Duration":521376,"SoundDuration":521376,"Delta":27815855},{"NoteNumber":66,"Velocity":45,"Duration":521376,"SoundDuration":521376,"Delta":27815855},{"NoteNumber":63,"Velocity":37,"Duration":521376,"SoundDuration":521376,"Delta":27815855},{"NoteNumber":59,"Velocity":37,"Duration":521376,"SoundDuration":521376,"Delta":27815855},{"NoteNumber":75,"Velocity":39,"Duration":124481,"SoundDuration":124481,"Delta":28337231},{"NoteNumber":71,"Velocity":35,"Duration":124481,"SoundDuration":124481,"Delta":28337231},{"NoteNumber":65,"Velocity":35,"Duration":124481,"SoundDuration":124481,"Delta":28337231},{"NoteNumber":56,"Velocity":28,"Duration":124481,"SoundDuration":124481,"Delta":28337231},{"NoteNumber":63,"Velocity":28,"Duration":124481,"SoundDuration":124481,"Delta":28337231},{"NoteNumber":66,"Velocity":45,"Duration":508475,"SoundDuration":508475,"Delta":28835156},{"NoteNumber":71,"Velocity":45,"Duration":508475,"SoundDuration":508475,"Delta":28835156},{"NoteNumber":78,"Velocity":50,"Duration":508475,"SoundDuration":508475,"Delta":28835156},{"NoteNumber":63,"Velocity":37,"Duration":508475,"SoundDuration":508475,"Delta":28835156},{"NoteNumber":59,"Velocity":37,"Duration":508475,"SoundDuration":508475,"Delta":28835156},{"NoteNumber":65,"Velocity":34,"Duration":124481,"SoundDuration":124481,"Delta":29343631},{"NoteNumber":71,"Velocity":34,"Duration":124481,"SoundDuration":124481,"Delta":29343631},{"NoteNumber":75,"Velocity":38,"Duration":124481,"SoundDuration":124481,"Delta":29343631},{"NoteNumber":63,"Velocity":27,"Duration":124481,"SoundDuration":124481,"Delta":29343631},{"NoteNumber":56,"Velocity":27,"Duration":124481,"SoundDuration":124481,"Delta":29343631},{"NoteNumber":78,"Velocity":50,"Duration":258531,"SoundDuration":258531,"Delta":29841556},{"NoteNumber":66,"Velocity":37,"Duration":492540,"SoundDuration":492540,"Delta":29841556},{"NoteNumber":71,"Velocity":37,"Duration":492540,"SoundDuration":492540,"Delta":29841556},{"NoteNumber":59,"Velocity":37,"Duration":492540,"SoundDuration":492540,"Delta":29841556},{"NoteNumber":63,"Velocity":37,"Duration":492540,"SoundDuration":492540,"Delta":29841556},{"NoteNumber":80,"Velocity":56,"Duration":117004,"SoundDuration":117004,"Delta":30100087},{"NoteNumber":78,"Velocity":54,"Duration":117004,"SoundDuration":117004,"Delta":30217092},{"NoteNumber":65,"Velocity":27,"Duration":234009,"SoundDuration":234009,"Delta":30334097},{"NoteNumber":71,"Velocity":27,"Duration":234009,"SoundDuration":234009,"Delta":30334097},{"NoteNumber":77,"Velocity":54,"Duration":58502,"SoundDuration":58502,"Delta":30334097},{"NoteNumber":56,"Velocity":27,"Duration":234009,"SoundDuration":234009,"Delta":30334097},{"NoteNumber":63,"Velocity":27,"Duration":234009,"SoundDuration":234009,"Delta":30334097},{"NoteNumber":75,"Velocity":53,"Duration":58502,"SoundDuration":58502,"Delta":30451101},{"NoteNumber":74,"Velocity":52,"Duration":58502,"SoundDuration":58502,"Delta":30568106},{"NoteNumber":75,"Velocity":52,"Duration":58502,"SoundDuration":58502,"Delta":30685111},{"NoteNumber":77,"Velocity":51,"Duration":58502,"SoundDuration":58502,"Delta":30802116},{"NoteNumber":71,"Velocity":37,"Duration":469017,"SoundDuration":469017,"Delta":30802116},{"NoteNumber":66,"Velocity":37,"Duration":469017,"SoundDuration":469017,"Delta":30802116},{"NoteNumber":63,"Velocity":37,"Duration":469017,"SoundDuration":469017,"Delta":30802116},{"NoteNumber":59,"Velocity":37,"Duration":469017,"SoundDuration":469017,"Delta":30802116},{"NoteNumber":75,"Velocity":50,"Duration":58502,"SoundDuration":58502,"Delta":30919120},{"NoteNumber":78,"Velocity":52,"Duration":58502,"SoundDuration":58502,"Delta":31036125},{"NoteNumber":77,"Velocity":50,"Duration":58502,"SoundDuration":58502,"Delta":31153130},{"NoteNumber":80,"Velocity":54,"Duration":60080,"SoundDuration":60080,"Delta":31271133},{"NoteNumber":71,"Velocity":27,"Duration":241942,"SoundDuration":241942,"Delta":31271133},{"NoteNumber":65,"Velocity":27,"Duration":241942,"SoundDuration":241942,"Delta":31271133},{"NoteNumber":63,"Velocity":27,"Duration":241942,"SoundDuration":241942,"Delta":31271133},{"NoteNumber":56,"Velocity":27,"Duration":241942,"SoundDuration":241942,"Delta":31271133},{"NoteNumber":78,"Velocity":50,"Duration":60565,"SoundDuration":60565,"Delta":31391616},{"NoteNumber":77,"Velocity":52,"Duration":61058,"SoundDuration":61058,"Delta":31513075},{"NoteNumber":75,"Velocity":50,"Duration":83611,"SoundDuration":83611,"Delta":31635525},{"NoteNumber":66,"Velocity":45,"Duration":508474,"SoundDuration":508474,"Delta":31802749},{"NoteNumber":71,"Velocity":45,"Duration":508474,"SoundDuration":508474,"Delta":31802749},{"NoteNumber":78,"Velocity":50,"Duration":508474,"SoundDuration":508474,"Delta":31802749},{"NoteNumber":63,"Velocity":37,"Duration":508474,"SoundDuration":508474,"Delta":31802749},{"NoteNumber":59,"Velocity":37,"Duration":508474,"SoundDuration":508474,"Delta":31802749},{"NoteNumber":65,"Velocity":35,"Duration":124481,"SoundDuration":124481,"Delta":32311224},{"NoteNumber":71,"Velocity":35,"Duration":124481,"SoundDuration":124481,"Delta":32311224},{"NoteNumber":75,"Velocity":39,"Duration":124481,"SoundDuration":124481,"Delta":32311224},{"NoteNumber":56,"Velocity":28,"Duration":124481,"SoundDuration":124481,"Delta":32311224},{"NoteNumber":63,"Velocity":28,"Duration":124481,"SoundDuration":124481,"Delta":32311224},{"NoteNumber":78,"Velocity":50,"Duration":500000,"SoundDuration":500000,"Delta":32809149},{"NoteNumber":71,"Velocity":45,"Duration":500000,"SoundDuration":500000,"Delta":32809149},{"NoteNumber":66,"Velocity":45,"Duration":500000,"SoundDuration":500000,"Delta":32809149},{"NoteNumber":59,"Velocity":37,"Duration":500000,"SoundDuration":500000,"Delta":32809149},{"NoteNumber":63,"Velocity":37,"Duration":500000,"SoundDuration":500000,"Delta":32809149},{"NoteNumber":75,"Velocity":38,"Duration":122449,"SoundDuration":122449,"Delta":33309149},{"NoteNumber":71,"Velocity":34,"Duration":122449,"SoundDuration":122449,"Delta":33309149},{"NoteNumber":65,"Velocity":34,"Duration":122449,"SoundDuration":122449,"Delta":33309149},{"NoteNumber":63,"Velocity":27,"Duration":122449,"SoundDuration":122449,"Delta":33309149},{"NoteNumber":56,"Velocity":27,"Duration":122449,"SoundDuration":122449,"Delta":33309149},{"NoteNumber":66,"Velocity":37,"Duration":495269,"SoundDuration":495269,"Delta":33798945},{"NoteNumber":71,"Velocity":37,"Duration":495269,"SoundDuration":495269,"Delta":33798945},{"NoteNumber":78,"Velocity":50,"Duration":259605,"SoundDuration":259605,"Delta":33798945},{"NoteNumber":59,"Velocity":37,"Duration":495269,"SoundDuration":495269,"Delta":33798945},{"NoteNumber":63,"Velocity":37,"Duration":495269,"SoundDuration":495269,"Delta":33798945},{"NoteNumber":80,"Velocity":56,"Duration":117831,"SoundDuration":117831,"Delta":34058551},{"NoteNumber":78,"Velocity":54,"Duration":117831,"SoundDuration":117831,"Delta":34176383},{"NoteNumber":77,"Velocity":54,"Duration":58916,"SoundDuration":58916,"Delta":34294215},{"NoteNumber":71,"Velocity":27,"Duration":235663,"SoundDuration":235663,"Delta":34294215},{"NoteNumber":65,"Velocity":27,"Duration":235663,"SoundDuration":235663,"Delta":34294215},{"NoteNumber":63,"Velocity":27,"Duration":235663,"SoundDuration":235663,"Delta":34294215},{"NoteNumber":56,"Velocity":27,"Duration":235663,"SoundDuration":235663,"Delta":34294215},{"NoteNumber":75,"Velocity":53,"Duration":58916,"SoundDuration":58916,"Delta":34412047},{"NoteNumber":74,"Velocity":52,"Duration":58916,"SoundDuration":58916,"Delta":34529879},{"NoteNumber":75,"Velocity":52,"Duration":58916,"SoundDuration":58916,"Delta":34647711},{"NoteNumber":66,"Velocity":37,"Duration":470364,"SoundDuration":470364,"Delta":34765543},{"NoteNumber":71,"Velocity":37,"Duration":470364,"SoundDuration":470364,"Delta":34765543},{"NoteNumber":77,"Velocity":51,"Duration":58916,"SoundDuration":58916,"Delta":34765543},{"NoteNumber":63,"Velocity":37,"Duration":470364,"SoundDuration":470364,"Delta":34765543},{"NoteNumber":59,"Velocity":37,"Duration":470364,"SoundDuration":470364,"Delta":34765543},{"NoteNumber":75,"Velocity":50,"Duration":58916,"SoundDuration":58916,"Delta":34883375},{"NoteNumber":78,"Velocity":52,"Duration":58916,"SoundDuration":58916,"Delta":35001207},{"NoteNumber":77,"Velocity":50,"Duration":58916,"SoundDuration":58916,"Delta":35119039},{"NoteNumber":80,"Velocity":54,"Duration":59288,"SoundDuration":59288,"Delta":35235908},{"NoteNumber":71,"Velocity":27,"Duration":238574,"SoundDuration":238574,"Delta":35235908},{"NoteNumber":65,"Velocity":27,"Duration":238574,"SoundDuration":238574,"Delta":35235908},{"NoteNumber":56,"Velocity":27,"Duration":238574,"SoundDuration":238574,"Delta":35235908},{"NoteNumber":63,"Velocity":27,"Duration":238574,"SoundDuration":238574,"Delta":35235908},{"NoteNumber":78,"Velocity":50,"Duration":59840,"SoundDuration":59840,"Delta":35354642},{"NoteNumber":77,"Velocity":52,"Duration":60321,"SoundDuration":60321,"Delta":35474482},{"NoteNumber":75,"Velocity":50,"Duration":95177,"SoundDuration":95177,"Delta":35595451},{"NoteNumber":68,"Velocity":45,"Duration":491802,"SoundDuration":491802,"Delta":35785807},{"NoteNumber":71,"Velocity":45,"Duration":491802,"SoundDuration":491802,"Delta":35785807},{"NoteNumber":80,"Velocity":50,"Duration":491802,"SoundDuration":491802,"Delta":35785807},{"NoteNumber":49,"Velocity":37,"Duration":491802,"SoundDuration":491802,"Delta":35785807},{"NoteNumber":65,"Velocity":37,"Duration":491802,"SoundDuration":491802,"Delta":35785807},{"NoteNumber":75,"Velocity":39,"Duration":121951,"SoundDuration":121951,"Delta":36277610},{"NoteNumber":71,"Velocity":35,"Duration":121951,"SoundDuration":121951,"Delta":36277610},{"NoteNumber":66,"Velocity":35,"Duration":121951,"SoundDuration":121951,"Delta":36277610},{"NoteNumber":63,"Velocity":28,"Duration":121951,"SoundDuration":121951,"Delta":36277610},{"NoteNumber":56,"Velocity":28,"Duration":121951,"SoundDuration":121951,"Delta":36277610},{"NoteNumber":80,"Velocity":50,"Duration":491802,"SoundDuration":491802,"Delta":36765415},{"NoteNumber":71,"Velocity":45,"Duration":491802,"SoundDuration":491802,"Delta":36765415},{"NoteNumber":68,"Velocity":45,"Duration":491802,"SoundDuration":491802,"Delta":36765415},{"NoteNumber":49,"Velocity":37,"Duration":491802,"SoundDuration":491802,"Delta":36765415},{"NoteNumber":65,"Velocity":37,"Duration":491802,"SoundDuration":491802,"Delta":36765415},{"NoteNumber":66,"Velocity":34,"Duration":120967,"SoundDuration":120967,"Delta":37257218},{"NoteNumber":71,"Velocity":34,"Duration":120967,"SoundDuration":120967,"Delta":37257218},{"NoteNumber":75,"Velocity":38,"Duration":120967,"SoundDuration":120967,"Delta":37257218},{"NoteNumber":56,"Velocity":27,"Duration":120967,"SoundDuration":120967,"Delta":37257218},{"NoteNumber":63,"Velocity":27,"Duration":120967,"SoundDuration":120967,"Delta":37257218},{"NoteNumber":68,"Velocity":42,"Duration":710810,"SoundDuration":710810,"Delta":37741089},{"NoteNumber":71,"Velocity":42,"Duration":710810,"SoundDuration":710810,"Delta":37741089},{"NoteNumber":80,"Velocity":50,"Duration":249273,"SoundDuration":249273,"Delta":37741089},{"NoteNumber":65,"Velocity":37,"Duration":480042,"SoundDuration":480042,"Delta":37741089},{"NoteNumber":49,"Velocity":37,"Duration":480042,"SoundDuration":480042,"Delta":37741089},{"NoteNumber":83,"Velocity":56,"Duration":115384,"SoundDuration":115384,"Delta":37990362},{"NoteNumber":82,"Velocity":54,"Duration":115384,"SoundDuration":115384,"Delta":38105746},{"NoteNumber":80,"Velocity":54,"Duration":57692,"SoundDuration":57692,"Delta":38221131},{"NoteNumber":63,"Velocity":27,"Duration":230768,"SoundDuration":230768,"Delta":38221131},{"NoteNumber":56,"Velocity":27,"Duration":230768,"SoundDuration":230768,"Delta":38221131},{"NoteNumber":78,"Velocity":53,"Duration":57692,"SoundDuration":57692,"Delta":38336515},{"NoteNumber":77,"Velocity":52,"Duration":57692,"SoundDuration":57692,"Delta":38451900},{"NoteNumber":75,"Velocity":52,"Duration":57692,"SoundDuration":57692,"Delta":38567284},{"NoteNumber":71,"Velocity":42,"Duration":696810,"SoundDuration":696810,"Delta":38682669},{"NoteNumber":68,"Velocity":42,"Duration":696810,"SoundDuration":696810,"Delta":38682669},{"NoteNumber":74,"Velocity":51,"Duration":57471,"SoundDuration":57471,"Delta":38682669},{"NoteNumber":49,"Velocity":37,"Duration":462586,"SoundDuration":462586,"Delta":38682669},{"NoteNumber":65,"Velocity":37,"Duration":462586,"SoundDuration":462586,"Delta":38682669},{"NoteNumber":75,"Velocity":50,"Duration":57692,"SoundDuration":57692,"Delta":38797611},{"NoteNumber":77,"Velocity":52,"Duration":57915,"SoundDuration":57915,"Delta":38912996},{"NoteNumber":75,"Velocity":50,"Duration":58139,"SoundDuration":58139,"Delta":39028826},{"NoteNumber":80,"Velocity":54,"Duration":58365,"SoundDuration":58365,"Delta":39145255},{"NoteNumber":63,"Velocity":27,"Duration":234224,"SoundDuration":234224,"Delta":39145255},{"NoteNumber":56,"Velocity":27,"Duration":234224,"SoundDuration":234224,"Delta":39145255},{"NoteNumber":78,"Velocity":50,"Duration":58593,"SoundDuration":58593,"Delta":39262139},{"NoteNumber":77,"Velocity":52,"Duration":58900,"SoundDuration":58900,"Delta":39379480},{"NoteNumber":75,"Velocity":50,"Duration":80385,"SoundDuration":80385,"Delta":39497435},{"NoteNumber":80,"Velocity":50,"Duration":487805,"SoundDuration":487805,"Delta":39658207},{"NoteNumber":71,"Velocity":45,"Duration":487805,"SoundDuration":487805,"Delta":39658207},{"NoteNumber":68,"Velocity":45,"Duration":487805,"SoundDuration":487805,"Delta":39658207},{"NoteNumber":65,"Velocity":37,"Duration":487805,"SoundDuration":487805,"Delta":39658207},{"NoteNumber":49,"Velocity":37,"Duration":487805,"SoundDuration":487805,"Delta":39658207},{"NoteNumber":75,"Velocity":39,"Duration":120482,"SoundDuration":120482,"Delta":40146012},{"NoteNumber":71,"Velocity":35,"Duration":120482,"SoundDuration":120482,"Delta":40146012},{"NoteNumber":66,"Velocity":35,"Duration":120482,"SoundDuration":120482,"Delta":40146012},{"NoteNumber":63,"Velocity":28,"Duration":120482,"SoundDuration":120482,"Delta":40146012},{"NoteNumber":56,"Velocity":28,"Duration":120482,"SoundDuration":120482,"Delta":40146012},{"NoteNumber":68,"Velocity":45,"Duration":487805,"SoundDuration":487805,"Delta":40627940},{"NoteNumber":71,"Velocity":45,"Duration":487805,"SoundDuration":487805,"Delta":40627940},{"NoteNumber":80,"Velocity":50,"Duration":487805,"SoundDuration":487805,"Delta":40627940},{"NoteNumber":49,"Velocity":37,"Duration":487805,"SoundDuration":487805,"Delta":40627940},{"NoteNumber":65,"Velocity":37,"Duration":487805,"SoundDuration":487805,"Delta":40627940},{"NoteNumber":66,"Velocity":34,"Duration":119999,"SoundDuration":119999,"Delta":41115745},{"NoteNumber":71,"Velocity":34,"Duration":119999,"SoundDuration":119999,"Delta":41115745},{"NoteNumber":75,"Velocity":38,"Duration":119999,"SoundDuration":119999,"Delta":41115745},{"NoteNumber":63,"Velocity":27,"Duration":119999,"SoundDuration":119999,"Delta":41115745},{"NoteNumber":56,"Velocity":27,"Duration":119999,"SoundDuration":119999,"Delta":41115745},{"NoteNumber":81,"Velocity":58,"Duration":489795,"SoundDuration":489795,"Delta":41595745},{"NoteNumber":73,"Velocity":52,"Duration":489795,"SoundDuration":489795,"Delta":41595745},{"NoteNumber":67,"Velocity":52,"Duration":489795,"SoundDuration":489795,"Delta":41595745},{"NoteNumber":49,"Velocity":41,"Duration":608843,"SoundDuration":608843,"Delta":41595745},{"NoteNumber":64,"Velocity":41,"Duration":489795,"SoundDuration":489795,"Delta":41595745},{"NoteNumber":57,"Velocity":41,"Duration":608843,"SoundDuration":608843,"Delta":41595745},{"NoteNumber":75,"Velocity":54,"Duration":119047,"SoundDuration":119047,"Delta":42085541},{"NoteNumber":73,"Velocity":48,"Duration":119047,"SoundDuration":119047,"Delta":42085541},{"NoteNumber":66,"Velocity":48,"Duration":119047,"SoundDuration":119047,"Delta":42085541},{"NoteNumber":63,"Velocity":33,"Duration":119047,"SoundDuration":119047,"Delta":42085541},{"NoteNumber":67,"Velocity":41,"Duration":472474,"SoundDuration":472474,"Delta":42561731},{"NoteNumber":73,"Velocity":41,"Duration":472474,"SoundDuration":472474,"Delta":42561731},{"NoteNumber":81,"Velocity":55,"Duration":243902,"SoundDuration":243902,"Delta":42561731},{"NoteNumber":49,"Velocity":46,"Duration":702801,"SoundDuration":702801,"Delta":42561731},{"NoteNumber":57,"Velocity":46,"Duration":702801,"SoundDuration":702801,"Delta":42561731},{"NoteNumber":64,"Velocity":46,"Duration":472474,"SoundDuration":472474,"Delta":42561731},{"NoteNumber":85,"Velocity":61,"Duration":114068,"SoundDuration":114068,"Delta":42805634},{"NoteNumber":83,"Velocity":55,"Duration":114503,"SoundDuration":114503,"Delta":42919702},{"NoteNumber":66,"Velocity":34,"Duration":230326,"SoundDuration":230326,"Delta":43034206},{"NoteNumber":81,"Velocity":59,"Duration":57471,"SoundDuration":57471,"Delta":43034206},{"NoteNumber":75,"Velocity":34,"Duration":230326,"SoundDuration":230326,"Delta":43034206},{"NoteNumber":73,"Velocity":34,"Duration":230326,"SoundDuration":230326,"Delta":43034206},{"NoteNumber":63,"Velocity":31,"Duration":230326,"SoundDuration":230326,"Delta":43034206},{"NoteNumber":79,"Velocity":55,"Duration":57692,"SoundDuration":57692,"Delta":43149148},{"NoteNumber":78,"Velocity":57,"Duration":57915,"SoundDuration":57915,"Delta":43264533},{"NoteNumber":76,"Velocity":53,"Duration":72080,"SoundDuration":72080,"Delta":43380513},{"NoteNumber":67,"Velocity":52,"Duration":479999,"SoundDuration":479999,"Delta":43524674},{"NoteNumber":73,"Velocity":52,"Duration":479999,"SoundDuration":479999,"Delta":43524674},{"NoteNumber":81,"Velocity":58,"Duration":479999,"SoundDuration":479999,"Delta":43524674},{"NoteNumber":57,"Velocity":46,"Duration":599047,"SoundDuration":599047,"Delta":43524674},{"NoteNumber":64,"Velocity":46,"Duration":479999,"SoundDuration":479999,"Delta":43524674},{"NoteNumber":49,"Velocity":46,"Duration":599047,"SoundDuration":599047,"Delta":43524674},{"NoteNumber":66,"Velocity":48,"Duration":119047,"SoundDuration":119047,"Delta":44004674},{"NoteNumber":73,"Velocity":48,"Duration":119047,"SoundDuration":119047,"Delta":44004674},{"NoteNumber":75,"Velocity":54,"Duration":119047,"SoundDuration":119047,"Delta":44004674},{"NoteNumber":63,"Velocity":37,"Duration":119047,"SoundDuration":119047,"Delta":44004674},{"NoteNumber":81,"Velocity":55,"Duration":245901,"SoundDuration":245901,"Delta":44480864},{"NoteNumber":73,"Velocity":41,"Duration":481339,"SoundDuration":481339,"Delta":44480864},{"NoteNumber":67,"Velocity":41,"Duration":481339,"SoundDuration":481339,"Delta":44480864},{"NoteNumber":49,"Velocity":46,"Duration":717963,"SoundDuration":717963,"Delta":44480864},{"NoteNumber":64,"Velocity":46,"Duration":481339,"SoundDuration":481339,"Delta":44480864},{"NoteNumber":57,"Velocity":46,"Duration":717963,"SoundDuration":717963,"Delta":44480864},{"NoteNumber":85,"Velocity":61,"Duration":117610,"SoundDuration":117610,"Delta":44726766},{"NoteNumber":83,"Velocity":55,"Duration":117827,"SoundDuration":117827,"Delta":44844376},{"NoteNumber":75,"Velocity":34,"Duration":236623,"SoundDuration":236623,"Delta":44962204},{"NoteNumber":73,"Velocity":34,"Duration":236623,"SoundDuration":236623,"Delta":44962204},{"NoteNumber":66,"Velocity":34,"Duration":236623,"SoundDuration":236623,"Delta":44962204},{"NoteNumber":81,"Velocity":59,"Duration":59022,"SoundDuration":59022,"Delta":44962204},{"NoteNumber":63,"Velocity":31,"Duration":236623,"SoundDuration":236623,"Delta":44962204},{"NoteNumber":79,"Velocity":55,"Duration":59251,"SoundDuration":59251,"Delta":45080325},{"NoteNumber":78,"Velocity":57,"Duration":59324,"SoundDuration":59324,"Delta":45198827},{"NoteNumber":76,"Velocity":53,"Duration":59471,"SoundDuration":59471,"Delta":45317624},{"NoteNumber":88,"Velocity":58,"Duration":58805,"SoundDuration":58805,"Delta":45436719},{"NoteNumber":87,"Velocity":58,"Duration":59022,"SoundDuration":59022,"Delta":45554329},{"NoteNumber":85,"Velocity":57,"Duration":59251,"SoundDuration":59251,"Delta":45672527},{"NoteNumber":83,"Velocity":57,"Duration":59547,"SoundDuration":59547,"Delta":45791176},{"NoteNumber":81,"Velocity":56,"Duration":59775,"SoundDuration":59775,"Delta":45910423},{"NoteNumber":80,"Velocity":56,"Duration":60153,"SoundDuration":60153,"Delta":46030127},{"NoteNumber":78,"Velocity":55,"Duration":60391,"SoundDuration":60391,"Delta":46150435},{"NoteNumber":76,"Velocity":54,"Duration":67714,"SoundDuration":67714,"Delta":46271370},{"NoteNumber":77,"Velocity":61,"Duration":248962,"SoundDuration":248962,"Delta":46406798},{"NoteNumber":56,"Velocity":51,"Duration":124481,"SoundDuration":124481,"Delta":46406798},{"NoteNumber":57,"Velocity":51,"Duration":124481,"SoundDuration":124481,"Delta":46531280},{"NoteNumber":78,"Velocity":59,"Duration":246700,"SoundDuration":246700,"Delta":46655761},{"NoteNumber":58,"Velocity":50,"Duration":121951,"SoundDuration":121951,"Delta":46655761},{"NoteNumber":59,"Velocity":49,"Duration":124748,"SoundDuration":124748,"Delta":46777712},{"NoteNumber":80,"Velocity":64,"Duration":262705,"SoundDuration":262705,"Delta":46902461},{"NoteNumber":60,"Velocity":48,"Duration":127329,"SoundDuration":127329,"Delta":46902461},{"NoteNumber":61,"Velocity":47,"Duration":135375,"SoundDuration":135375,"Delta":47029791},{"NoteNumber":73,"Velocity":59,"Duration":342397,"SoundDuration":342397,"Delta":47165166},{"NoteNumber":64,"Velocity":47,"Duration":144507,"SoundDuration":144507,"Delta":47165166},{"NoteNumber":65,"Velocity":46,"Duration":197889,"SoundDuration":197889,"Delta":47309674},{"NoteNumber":78,"Velocity":50,"Duration":512821,"SoundDuration":512821,"Delta":47507563},{"NoteNumber":71,"Velocity":45,"Duration":512821,"SoundDuration":512821,"Delta":47507563},{"NoteNumber":66,"Velocity":45,"Duration":512821,"SoundDuration":512821,"Delta":47507563},{"NoteNumber":59,"Velocity":37,"Duration":512821,"SoundDuration":512821,"Delta":47507563},{"NoteNumber":63,"Velocity":37,"Duration":512821,"SoundDuration":512821,"Delta":47507563},{"NoteNumber":65,"Velocity":35,"Duration":124481,"SoundDuration":124481,"Delta":48020384},{"NoteNumber":71,"Velocity":35,"Duration":124481,"SoundDuration":124481,"Delta":48020384},{"NoteNumber":75,"Velocity":39,"Duration":124481,"SoundDuration":124481,"Delta":48020384},{"NoteNumber":63,"Velocity":28,"Duration":124481,"SoundDuration":124481,"Delta":48020384},{"NoteNumber":56,"Velocity":28,"Duration":124481,"SoundDuration":124481,"Delta":48020384},{"NoteNumber":66,"Velocity":45,"Duration":508474,"SoundDuration":508474,"Delta":48518309},{"NoteNumber":71,"Velocity":45,"Duration":508474,"SoundDuration":508474,"Delta":48518309},{"NoteNumber":78,"Velocity":50,"Duration":508474,"SoundDuration":508474,"Delta":48518309},{"NoteNumber":59,"Velocity":37,"Duration":508474,"SoundDuration":508474,"Delta":48518309},{"NoteNumber":63,"Velocity":37,"Duration":508474,"SoundDuration":508474,"Delta":48518309},{"NoteNumber":75,"Velocity":38,"Duration":125000,"SoundDuration":125000,"Delta":49026784},{"NoteNumber":71,"Velocity":34,"Duration":125000,"SoundDuration":125000,"Delta":49026784},{"NoteNumber":65,"Velocity":34,"Duration":125000,"SoundDuration":125000,"Delta":49026784},{"NoteNumber":63,"Velocity":27,"Duration":125000,"SoundDuration":125000,"Delta":49026784},{"NoteNumber":56,"Velocity":27,"Duration":125000,"SoundDuration":125000,"Delta":49026784},{"NoteNumber":78,"Velocity":50,"Duration":249273,"SoundDuration":249273,"Delta":49526784},{"NoteNumber":71,"Velocity":37,"Duration":486271,"SoundDuration":486271,"Delta":49526784},{"NoteNumber":66,"Velocity":37,"Duration":486271,"SoundDuration":486271,"Delta":49526784},{"NoteNumber":63,"Velocity":37,"Duration":486271,"SoundDuration":486271,"Delta":49526784},{"NoteNumber":59,"Velocity":37,"Duration":486271,"SoundDuration":486271,"Delta":49526784},{"NoteNumber":80,"Velocity":56,"Duration":118577,"SoundDuration":118577,"Delta":49776057},{"NoteNumber":78,"Velocity":54,"Duration":118421,"SoundDuration":118421,"Delta":49894634},{"NoteNumber":77,"Velocity":54,"Duration":59055,"SoundDuration":59055,"Delta":50013056},{"NoteNumber":71,"Velocity":27,"Duration":236531,"SoundDuration":236531,"Delta":50013056},{"NoteNumber":65,"Velocity":27,"Duration":236531,"SoundDuration":236531,"Delta":50013056},{"NoteNumber":63,"Velocity":27,"Duration":236531,"SoundDuration":236531,"Delta":50013056},{"NoteNumber":56,"Velocity":27,"Duration":236531,"SoundDuration":236531,"Delta":50013056},{"NoteNumber":75,"Velocity":53,"Duration":59132,"SoundDuration":59132,"Delta":50131166},{"NoteNumber":74,"Velocity":52,"Duration":59288,"SoundDuration":59288,"Delta":50249587},{"NoteNumber":75,"Velocity":52,"Duration":59523,"SoundDuration":59523,"Delta":50368321},{"NoteNumber":66,"Velocity":37,"Duration":480005,"SoundDuration":480005,"Delta":50487369},{"NoteNumber":71,"Velocity":37,"Duration":480005,"SoundDuration":480005,"Delta":50487369},{"NoteNumber":77,"Velocity":51,"Duration":59761,"SoundDuration":59761,"Delta":50487369},{"NoteNumber":59,"Velocity":37,"Duration":480005,"SoundDuration":480005,"Delta":50487369},{"NoteNumber":63,"Velocity":37,"Duration":480005,"SoundDuration":480005,"Delta":50487369},{"NoteNumber":75,"Velocity":50,"Duration":59840,"SoundDuration":59840,"Delta":50606891},{"NoteNumber":78,"Velocity":52,"Duration":60000,"SoundDuration":60000,"Delta":50726731},{"NoteNumber":77,"Velocity":50,"Duration":60241,"SoundDuration":60241,"Delta":50846892},{"NoteNumber":80,"Velocity":54,"Duration":60483,"SoundDuration":60483,"Delta":50967374},{"NoteNumber":71,"Velocity":27,"Duration":242261,"SoundDuration":242261,"Delta":50967374},{"NoteNumber":65,"Velocity":27,"Duration":242261,"SoundDuration":242261,"Delta":50967374},{"NoteNumber":56,"Velocity":27,"Duration":242261,"SoundDuration":242261,"Delta":50967374},{"NoteNumber":63,"Velocity":27,"Duration":242261,"SoundDuration":242261,"Delta":50967374},{"NoteNumber":78,"Velocity":50,"Duration":60565,"SoundDuration":60565,"Delta":51088342},{"NoteNumber":77,"Velocity":52,"Duration":60728,"SoundDuration":60728,"Delta":51209636},{"NoteNumber":75,"Velocity":50,"Duration":71749,"SoundDuration":71749,"Delta":51331258},{"NoteNumber":82,"Velocity":50,"Duration":499390,"SoundDuration":499390,"Delta":51474758},{"NoteNumber":90,"Velocity":50,"Duration":499390,"SoundDuration":499390,"Delta":51474758},{"NoteNumber":75,"Velocity":50,"Duration":499390,"SoundDuration":499390,"Delta":51474758},{"NoteNumber":58,"Velocity":50,"Duration":123318,"SoundDuration":123318,"Delta":51474758},{"NoteNumber":59,"Velocity":50,"Duration":124299,"SoundDuration":124299,"Delta":51598076},{"NoteNumber":62,"Velocity":50,"Duration":125296,"SoundDuration":125296,"Delta":51722376},{"NoteNumber":63,"Velocity":50,"Duration":126476,"SoundDuration":126476,"Delta":51847672},{"NoteNumber":87,"Velocity":50,"Duration":253536,"SoundDuration":253536,"Delta":51974148},{"NoteNumber":83,"Velocity":50,"Duration":253536,"SoundDuration":253536,"Delta":51974148},{"NoteNumber":78,"Velocity":50,"Duration":253536,"SoundDuration":253536,"Delta":51974148},{"NoteNumber":65,"Velocity":43,"Duration":126775,"SoundDuration":126775,"Delta":51974148},{"NoteNumber":66,"Velocity":42,"Duration":126761,"SoundDuration":126761,"Delta":52100924},{"NoteNumber":70,"Velocity":40,"Duration":127299,"SoundDuration":127299,"Delta":52227685},{"NoteNumber":71,"Velocity":39,"Duration":127841,"SoundDuration":127841,"Delta":52354984},{"NoteNumber":74,"Velocity":37,"Duration":128388,"SoundDuration":128388,"Delta":52482825},{"NoteNumber":75,"Velocity":35,"Duration":128940,"SoundDuration":128940,"Delta":52611214},{"NoteNumber":77,"Velocity":34,"Duration":129496,"SoundDuration":129496,"Delta":52740154},{"NoteNumber":78,"Velocity":32,"Duration":130058,"SoundDuration":130058,"Delta":52869651},{"NoteNumber":70,"Velocity":52,"Duration":795264,"SoundDuration":795264,"Delta":53541323},{"NoteNumber":66,"Velocity":47,"Duration":795264,"SoundDuration":795264,"Delta":53541323},{"NoteNumber":63,"Velocity":47,"Duration":795264,"SoundDuration":795264,"Delta":53541323},{"NoteNumber":71,"Velocity":54,"Duration":258531,"SoundDuration":258531,"Delta":54336587},{"NoteNumber":63,"Velocity":44,"Duration":258531,"SoundDuration":258531,"Delta":54336587},{"NoteNumber":66,"Velocity":44,"Duration":258531,"SoundDuration":258531,"Delta":54336587},{"NoteNumber":72,"Velocity":52,"Duration":258531,"SoundDuration":258531,"Delta":54595119},{"NoteNumber":66,"Velocity":48,"Duration":517063,"SoundDuration":517063,"Delta":54595119},{"NoteNumber":62,"Velocity":48,"Duration":517063,"SoundDuration":517063,"Delta":54595119},{"NoteNumber":78,"Velocity":56,"Duration":258531,"SoundDuration":258531,"Delta":54853650},{"NoteNumber":72,"Velocity":52,"Duration":262881,"SoundDuration":262881,"Delta":55112182},{"NoteNumber":62,"Velocity":44,"Duration":262881,"SoundDuration":262881,"Delta":55112182},{"NoteNumber":66,"Velocity":44,"Duration":262881,"SoundDuration":262881,"Delta":55112182},{"NoteNumber":71,"Velocity":52,"Duration":262881,"SoundDuration":262881,"Delta":55375063},{"NoteNumber":66,"Velocity":44,"Duration":262881,"SoundDuration":262881,"Delta":55375063},{"NoteNumber":62,"Velocity":44,"Duration":262881,"SoundDuration":262881,"Delta":55375063},{"NoteNumber":70,"Velocity":54,"Duration":769231,"SoundDuration":769231,"Delta":55637944},{"NoteNumber":63,"Velocity":48,"Duration":1025641,"SoundDuration":1025641,"Delta":55637944},{"NoteNumber":66,"Velocity":48,"Duration":1025641,"SoundDuration":1025641,"Delta":55637944},{"NoteNumber":71,"Velocity":52,"Duration":128205,"SoundDuration":128205,"Delta":56407175},{"NoteNumber":73,"Velocity":52,"Duration":128205,"SoundDuration":128205,"Delta":56535381},{"NoteNumber":71,"Velocity":51,"Duration":256410,"SoundDuration":256410,"Delta":56663586},{"NoteNumber":66,"Velocity":44,"Duration":730718,"SoundDuration":730718,"Delta":56663586},{"NoteNumber":62,"Velocity":44,"Duration":730718,"SoundDuration":730718,"Delta":56663586},{"NoteNumber":83,"Velocity":51,"Duration":59288,"SoundDuration":59288,"Delta":56919996},{"NoteNumber":80,"Velocity":47,"Duration":59288,"SoundDuration":59288,"Delta":57038573},{"NoteNumber":78,"Velocity":49,"Duration":59288,"SoundDuration":59288,"Delta":57157150},{"NoteNumber":74,"Velocity":44,"Duration":59288,"SoundDuration":59288,"Delta":57275727},{"NoteNumber":71,"Velocity":47,"Duration":59288,"SoundDuration":59288,"Delta":57394304},{"NoteNumber":66,"Velocity":42,"Duration":59288,"SoundDuration":59288,"Delta":57512881},{"NoteNumber":70,"Velocity":52,"Duration":791974,"SoundDuration":791974,"Delta":57631458},{"NoteNumber":66,"Velocity":47,"Duration":1050505,"SoundDuration":1050505,"Delta":57631458},{"NoteNumber":63,"Velocity":47,"Duration":1050505,"SoundDuration":1050505,"Delta":57631458},{"NoteNumber":71,"Velocity":54,"Duration":258531,"SoundDuration":258531,"Delta":58423433},{"NoteNumber":72,"Velocity":52,"Duration":252101,"SoundDuration":252101,"Delta":58681964},{"NoteNumber":66,"Velocity":47,"Duration":1034273,"SoundDuration":1034273,"Delta":58681964},{"NoteNumber":56,"Velocity":47,"Duration":1034273,"SoundDuration":1034273,"Delta":58681964},{"NoteNumber":77,"Velocity":56,"Duration":256410,"SoundDuration":256410,"Delta":58934065},{"NoteNumber":75,"Velocity":52,"Duration":262881,"SoundDuration":262881,"Delta":59190476},{"NoteNumber":77,"Velocity":52,"Duration":262881,"SoundDuration":262881,"Delta":59453357},{"NoteNumber":70,"Velocity":50,"Duration":517063,"SoundDuration":517063,"Delta":59716238},{"NoteNumber":68,"Velocity":37,"Duration":517063,"SoundDuration":517063,"Delta":59716238},{"NoteNumber":65,"Velocity":36,"Duration":517063,"SoundDuration":517063,"Delta":59716238},{"NoteNumber":61,"Velocity":36,"Duration":517063,"SoundDuration":517063,"Delta":59716238},{"NoteNumber":72,"Velocity":46,"Duration":252101,"SoundDuration":252101,"Delta":60233301},{"NoteNumber":68,"Velocity":38,"Duration":506338,"SoundDuration":506338,"Delta":60233301},{"NoteNumber":66,"Velocity":33,"Duration":252101,"SoundDuration":252101,"Delta":60233301},{"NoteNumber":56,"Velocity":33,"Duration":252101,"SoundDuration":252101,"Delta":60233301},{"NoteNumber":77,"Velocity":46,"Duration":254237,"SoundDuration":254237,"Delta":60485402},{"NoteNumber":70,"Velocity":51,"Duration":514932,"SoundDuration":514932,"Delta":60739639},{"NoteNumber":68,"Velocity":38,"Duration":514932,"SoundDuration":514932,"Delta":60739639},{"NoteNumber":65,"Velocity":37,"Duration":514932,"SoundDuration":514932,"Delta":60739639},{"NoteNumber":61,"Velocity":37,"Duration":514932,"SoundDuration":514932,"Delta":60739639},{"NoteNumber":72,"Velocity":47,"Duration":252101,"SoundDuration":252101,"Delta":61254572},{"NoteNumber":68,"Velocity":37,"Duration":541760,"SoundDuration":541760,"Delta":61254572},{"NoteNumber":66,"Velocity":34,"Duration":252101,"SoundDuration":252101,"Delta":61254572},{"NoteNumber":56,"Velocity":34,"Duration":252101,"SoundDuration":252101,"Delta":61254572},{"NoteNumber":77,"Velocity":46,"Duration":289659,"SoundDuration":289659,"Delta":61506673},{"NoteNumber":70,"Velocity":52,"Duration":795264,"SoundDuration":795264,"Delta":61796332},{"NoteNumber":63,"Velocity":47,"Duration":795264,"SoundDuration":795264,"Delta":61796332},{"NoteNumber":66,"Velocity":47,"Duration":795264,"SoundDuration":795264,"Delta":61796332},{"NoteNumber":71,"Velocity":54,"Duration":257466,"SoundDuration":257466,"Delta":62591596},{"NoteNumber":66,"Velocity":44,"Duration":257466,"SoundDuration":257466,"Delta":62591596},{"NoteNumber":63,"Velocity":44,"Duration":257466,"SoundDuration":257466,"Delta":62591596},{"NoteNumber":72,"Velocity":52,"Duration":257466,"SoundDuration":257466,"Delta":62849063},{"NoteNumber":66,"Velocity":48,"Duration":514932,"SoundDuration":514932,"Delta":62849063},{"NoteNumber":62,"Velocity":48,"Duration":514932,"SoundDuration":514932,"Delta":62849063},{"NoteNumber":78,"Velocity":56,"Duration":257466,"SoundDuration":257466,"Delta":63106529},{"NoteNumber":72,"Velocity":52,"Duration":262881,"SoundDuration":262881,"Delta":63363996},{"NoteNumber":66,"Velocity":44,"Duration":262881,"SoundDuration":262881,"Delta":63363996},{"NoteNumber":62,"Velocity":44,"Duration":262881,"SoundDuration":262881,"Delta":63363996},{"NoteNumber":71,"Velocity":52,"Duration":262881,"SoundDuration":262881,"Delta":63626877},{"NoteNumber":62,"Velocity":44,"Duration":262881,"SoundDuration":262881,"Delta":63626877},{"NoteNumber":66,"Velocity":44,"Duration":262881,"SoundDuration":262881,"Delta":63626877},{"NoteNumber":70,"Velocity":54,"Duration":772399,"SoundDuration":772399,"Delta":63889758},{"NoteNumber":66,"Velocity":48,"Duration":1029865,"SoundDuration":1029865,"Delta":63889758},{"NoteNumber":63,"Velocity":48,"Duration":1029865,"SoundDuration":1029865,"Delta":63889758},{"NoteNumber":71,"Velocity":52,"Duration":128733,"SoundDuration":128733,"Delta":64662157},{"NoteNumber":73,"Velocity":48,"Duration":128733,"SoundDuration":128733,"Delta":64790891},{"NoteNumber":71,"Velocity":51,"Duration":514932,"SoundDuration":514932,"Delta":64919624},{"NoteNumber":66,"Velocity":44,"Duration":753028,"SoundDuration":753028,"Delta":64919624},{"NoteNumber":62,"Velocity":44,"Duration":753028,"SoundDuration":753028,"Delta":64919624},{"NoteNumber":70,"Velocity":54,"Duration":119047,"SoundDuration":119047,"Delta":65434557},{"NoteNumber":71,"Velocity":57,"Duration":119047,"SoundDuration":119047,"Delta":65553604},{"NoteNumber":73,"Velocity":60,"Duration":119047,"SoundDuration":119047,"Delta":65672652},{"NoteNumber":74,"Velocity":63,"Duration":119047,"SoundDuration":119047,"Delta":65791699},{"NoteNumber":79,"Velocity":66,"Duration":651719,"SoundDuration":651719,"Delta":65910747},{"NoteNumber":67,"Velocity":56,"Duration":1011719,"SoundDuration":1011719,"Delta":65910747},{"NoteNumber":71,"Velocity":56,"Duration":1011719,"SoundDuration":1011719,"Delta":65910747},{"NoteNumber":50,"Velocity":50,"Duration":1011719,"SoundDuration":1011719,"Delta":65910747},{"NoteNumber":62,"Velocity":50,"Duration":521376,"SoundDuration":521376,"Delta":65910747},{"NoteNumber":59,"Velocity":45,"Duration":490343,"SoundDuration":490343,"Delta":66432123},{"NoteNumber":78,"Velocity":70,"Duration":120000,"SoundDuration":120000,"Delta":66562467},{"NoteNumber":81,"Velocity":66,"Duration":119999,"SoundDuration":119999,"Delta":66682467},{"NoteNumber":79,"Velocity":66,"Duration":120000,"SoundDuration":120000,"Delta":66802467},{"NoteNumber":73,"Velocity":70,"Duration":122950,"SoundDuration":122950,"Delta":66922467},{"NoteNumber":71,"Velocity":50,"Duration":491803,"SoundDuration":491803,"Delta":66922467},{"NoteNumber":67,"Velocity":50,"Duration":491803,"SoundDuration":491803,"Delta":66922467},{"NoteNumber":50,"Velocity":45,"Duration":1016139,"SoundDuration":1016139,"Delta":66922467},{"NoteNumber":64,"Velocity":45,"Duration":491803,"SoundDuration":491803,"Delta":66922467},{"NoteNumber":74,"Velocity":67,"Duration":122950,"SoundDuration":122950,"Delta":67045418},{"NoteNumber":75,"Velocity":67,"Duration":122950,"SoundDuration":122950,"Delta":67168368},{"NoteNumber":76,"Velocity":67,"Duration":122950,"SoundDuration":122950,"Delta":67291319},{"NoteNumber":70,"Velocity":50,"Duration":524336,"SoundDuration":524336,"Delta":67414270},{"NoteNumber":67,"Velocity":50,"Duration":524336,"SoundDuration":524336,"Delta":67414270},{"NoteNumber":78,"Velocity":69,"Duration":126050,"SoundDuration":126050,"Delta":67414270},{"NoteNumber":61,"Velocity":42,"Duration":524336,"SoundDuration":524336,"Delta":67414270},{"NoteNumber":76,"Velocity":66,"Duration":126050,"SoundDuration":126050,"Delta":67540320},{"NoteNumber":81,"Velocity":68,"Duration":126050,"SoundDuration":126050,"Delta":67666371},{"NoteNumber":79,"Velocity":65,"Duration":146184,"SoundDuration":146184,"Delta":67792421},{"NoteNumber":71,"Velocity":56,"Duration":1010139,"SoundDuration":1010139,"Delta":67938606},{"NoteNumber":67,"Velocity":56,"Duration":1010139,"SoundDuration":1010139,"Delta":67938606},{"NoteNumber":79,"Velocity":66,"Duration":649013,"SoundDuration":649013,"Delta":67938606},{"NoteNumber":50,"Velocity":50,"Duration":1010139,"SoundDuration":1010139,"Delta":67938606},{"NoteNumber":62,"Velocity":50,"Duration":519210,"SoundDuration":519210,"Delta":67938606},{"NoteNumber":59,"Velocity":45,"Duration":490928,"SoundDuration":490928,"Delta":68457817},{"NoteNumber":78,"Velocity":70,"Duration":120481,"SoundDuration":120481,"Delta":68587620},{"NoteNumber":81,"Velocity":66,"Duration":120482,"SoundDuration":120482,"Delta":68708102},{"NoteNumber":79,"Velocity":66,"Duration":120161,"SoundDuration":120161,"Delta":68828584},{"NoteNumber":67,"Velocity":45,"Duration":481942,"SoundDuration":481942,"Delta":68948746},{"NoteNumber":71,"Velocity":45,"Duration":481942,"SoundDuration":481942,"Delta":68948746},{"NoteNumber":73,"Velocity":65,"Duration":119681,"SoundDuration":119681,"Delta":68948746},{"NoteNumber":64,"Velocity":48,"Duration":481942,"SoundDuration":481942,"Delta":68948746},{"NoteNumber":50,"Velocity":48,"Duration":725844,"SoundDuration":725844,"Delta":68948746},{"NoteNumber":74,"Velocity":60,"Duration":120160,"SoundDuration":120160,"Delta":69068427},{"NoteNumber":75,"Velocity":61,"Duration":120805,"SoundDuration":120805,"Delta":69188588},{"NoteNumber":76,"Velocity":57,"Duration":121294,"SoundDuration":121294,"Delta":69309393},{"NoteNumber":78,"Velocity":59,"Duration":121951,"SoundDuration":121951,"Delta":69430688},{"NoteNumber":70,"Velocity":40,"Duration":507505,"SoundDuration":507505,"Delta":69430688},{"NoteNumber":67,"Velocity":40,"Duration":507505,"SoundDuration":507505,"Delta":69430688},{"NoteNumber":61,"Velocity":42,"Duration":243902,"SoundDuration":243902,"Delta":69430688},{"NoteNumber":76,"Velocity":56,"Duration":121951,"SoundDuration":121951,"Delta":69552639},{"NoteNumber":78,"Velocity":54,"Duration":127297,"SoundDuration":127297,"Delta":69674590},{"NoteNumber":79,"Velocity":52,"Duration":136305,"SoundDuration":136305,"Delta":69801888},{"NoteNumber":66,"Velocity":52,"Duration":514932,"SoundDuration":514932,"Delta":69938193},{"NoteNumber":78,"Velocity":52,"Duration":514932,"SoundDuration":514932,"Delta":69938193},{"NoteNumber":72,"Velocity":52,"Duration":514932,"SoundDuration":514932,"Delta":69938193},{"NoteNumber":51,"Velocity":39,"Duration":514932,"SoundDuration":514932,"Delta":69938193},{"NoteNumber":60,"Velocity":39,"Duration":514932,"SoundDuration":514932,"Delta":69938193},{"NoteNumber":71,"Velocity":52,"Duration":120967,"SoundDuration":120967,"Delta":70453126},{"NoteNumber":64,"Velocity":30,"Duration":242425,"SoundDuration":242425,"Delta":70453126},{"NoteNumber":68,"Velocity":30,"Duration":242425,"SoundDuration":242425,"Delta":70453126},{"NoteNumber":62,"Velocity":27,"Duration":242425,"SoundDuration":242425,"Delta":70453126},{"NoteNumber":56,"Velocity":27,"Duration":242425,"SoundDuration":242425,"Delta":70453126},{"NoteNumber":72,"Velocity":52,"Duration":121457,"SoundDuration":121457,"Delta":70574094},{"NoteNumber":73,"Velocity":52,"Duration":121951,"SoundDuration":121951,"Delta":70695552},{"NoteNumber":74,"Velocity":52,"Duration":122616,"SoundDuration":122616,"Delta":70817503},{"NoteNumber":66,"Velocity":52,"Duration":504202,"SoundDuration":504202,"Delta":70940119},{"NoteNumber":72,"Velocity":52,"Duration":504202,"SoundDuration":504202,"Delta":70940119},{"NoteNumber":78,"Velocity":52,"Duration":504202,"SoundDuration":504202,"Delta":70940119},{"NoteNumber":51,"Velocity":38,"Duration":504202,"SoundDuration":504202,"Delta":70940119},{"NoteNumber":60,"Velocity":38,"Duration":504202,"SoundDuration":504202,"Delta":70940119},{"NoteNumber":64,"Velocity":30,"Duration":243408,"SoundDuration":243408,"Delta":71444321},{"NoteNumber":68,"Velocity":30,"Duration":243408,"SoundDuration":243408,"Delta":71444321},{"NoteNumber":71,"Velocity":52,"Duration":121457,"SoundDuration":121457,"Delta":71444321},{"NoteNumber":56,"Velocity":27,"Duration":243408,"SoundDuration":243408,"Delta":71444321},{"NoteNumber":62,"Velocity":27,"Duration":243408,"SoundDuration":243408,"Delta":71444321},{"NoteNumber":72,"Velocity":52,"Duration":121951,"SoundDuration":121951,"Delta":71565779},{"NoteNumber":73,"Velocity":52,"Duration":122449,"SoundDuration":122449,"Delta":71687730},{"NoteNumber":74,"Velocity":52,"Duration":123119,"SoundDuration":123119,"Delta":71810179},{"NoteNumber":81,"Velocity":63,"Duration":493826,"SoundDuration":493826,"Delta":71933298},{"NoteNumber":73,"Velocity":63,"Duration":493826,"SoundDuration":493826,"Delta":71933298},{"NoteNumber":67,"Velocity":63,"Duration":493826,"SoundDuration":493826,"Delta":71933298},{"NoteNumber":49,"Velocity":45,"Duration":621486,"SoundDuration":621486,"Delta":71933298},{"NoteNumber":64,"Velocity":45,"Duration":493826,"SoundDuration":493826,"Delta":71933298},{"NoteNumber":57,"Velocity":45,"Duration":621486,"SoundDuration":621486,"Delta":71933298},{"NoteNumber":66,"Velocity":56,"Duration":191489,"SoundDuration":191489,"Delta":72427125},{"NoteNumber":73,"Velocity":56,"Duration":191489,"SoundDuration":191489,"Delta":72427125},{"NoteNumber":75,"Velocity":56,"Duration":191489,"SoundDuration":191489,"Delta":72427125},{"NoteNumber":63,"Velocity":34,"Duration":191489,"SoundDuration":191489,"Delta":72427125},{"NoteNumber":85,"Velocity":64,"Duration":118577,"SoundDuration":118577,"Delta":72682444},{"NoteNumber":83,"Velocity":63,"Duration":118890,"SoundDuration":118890,"Delta":72801021},{"NoteNumber":81,"Velocity":62,"Duration":59523,"SoundDuration":59523,"Delta":72919912},{"NoteNumber":73,"Velocity":52,"Duration":480335,"SoundDuration":480335,"Delta":72919912},{"NoteNumber":67,"Velocity":52,"Duration":480335,"SoundDuration":480335,"Delta":72919912},{"NoteNumber":49,"Velocity":43,"Duration":722760,"SoundDuration":722760,"Delta":72919912},{"NoteNumber":64,"Velocity":43,"Duration":480335,"SoundDuration":480335,"Delta":72919912},{"NoteNumber":57,"Velocity":43,"Duration":722760,"SoundDuration":722760,"Delta":72919912},{"NoteNumber":79,"Velocity":60,"Duration":59761,"SoundDuration":59761,"Delta":73039118},{"NoteNumber":78,"Velocity":59,"Duration":60241,"SoundDuration":60241,"Delta":73158960},{"NoteNumber":76,"Velocity":58,"Duration":60321,"SoundDuration":60321,"Delta":73279442},{"NoteNumber":66,"Velocity":48,"Duration":242425,"SoundDuration":242425,"Delta":73400247},{"NoteNumber":75,"Velocity":57,"Duration":60483,"SoundDuration":60483,"Delta":73400247},{"NoteNumber":63,"Velocity":28,"Duration":242425,"SoundDuration":242425,"Delta":73400247},{"NoteNumber":73,"Velocity":55,"Duration":60728,"SoundDuration":60728,"Delta":73521215},{"NoteNumber":71,"Velocity":54,"Duration":60728,"SoundDuration":60728,"Delta":73642673},{"NoteNumber":69,"Velocity":53,"Duration":65217,"SoundDuration":65217,"Delta":73764295},{"NoteNumber":67,"Velocity":63,"Duration":491803,"SoundDuration":491803,"Delta":73894730},{"NoteNumber":73,"Velocity":63,"Duration":491803,"SoundDuration":491803,"Delta":73894730},{"NoteNumber":81,"Velocity":63,"Duration":491803,"SoundDuration":491803,"Delta":73894730},{"NoteNumber":57,"Velocity":45,"Duration":618385,"SoundDuration":618385,"Delta":73894730},{"NoteNumber":64,"Velocity":45,"Duration":491803,"SoundDuration":491803,"Delta":73894730},{"NoteNumber":49,"Velocity":45,"Duration":618385,"SoundDuration":618385,"Delta":73894730},{"NoteNumber":66,"Velocity":56,"Duration":189873,"SoundDuration":189873,"Delta":74386533},{"NoteNumber":73,"Velocity":56,"Duration":189873,"SoundDuration":189873,"Delta":74386533},{"NoteNumber":75,"Velocity":56,"Duration":189873,"SoundDuration":189873,"Delta":74386533},{"NoteNumber":63,"Velocity":34,"Duration":189873,"SoundDuration":189873,"Delta":74386533},{"NoteNumber":88,"Velocity":62,"Duration":118577,"SoundDuration":118577,"Delta":74639697},{"NoteNumber":87,"Velocity":58,"Duration":118733,"SoundDuration":118733,"Delta":74758274},{"NoteNumber":67,"Velocity":48,"Duration":477933,"SoundDuration":477933,"Delta":74877008},{"NoteNumber":73,"Velocity":48,"Duration":477933,"SoundDuration":477933,"Delta":74877008},{"NoteNumber":85,"Velocity":57,"Duration":59523,"SoundDuration":59523,"Delta":74877008},{"NoteNumber":49,"Velocity":43,"Duration":718743,"SoundDuration":718743,"Delta":74877008},{"NoteNumber":57,"Velocity":43,"Duration":718743,"SoundDuration":718743,"Delta":74877008},{"NoteNumber":64,"Velocity":43,"Duration":477933,"SoundDuration":477933,"Delta":74877008},{"NoteNumber":83,"Velocity":55,"Duration":59602,"SoundDuration":59602,"Delta":74996055},{"NoteNumber":81,"Velocity":58,"Duration":59760,"SoundDuration":59760,"Delta":75115419},{"NoteNumber":79,"Velocity":54,"Duration":60000,"SoundDuration":60000,"Delta":75234941},{"NoteNumber":78,"Velocity":57,"Duration":60080,"SoundDuration":60080,"Delta":75354941},{"NoteNumber":63,"Velocity":28,"Duration":240809,"SoundDuration":240809,"Delta":75354941},{"NoteNumber":76,"Velocity":52,"Duration":60161,"SoundDuration":60161,"Delta":75474943},{"NoteNumber":75,"Velocity":55,"Duration":61308,"SoundDuration":61308,"Delta":75595751},{"NoteNumber":73,"Velocity":50,"Duration":84090,"SoundDuration":84090,"Delta":75718873},{"NoteNumber":80,"Velocity":50,"Duration":510638,"SoundDuration":510638,"Delta":75887053},{"NoteNumber":71,"Velocity":45,"Duration":510638,"SoundDuration":510638,"Delta":75887053},{"NoteNumber":68,"Velocity":45,"Duration":510638,"SoundDuration":510638,"Delta":75887053},{"NoteNumber":65,"Velocity":37,"Duration":510638,"SoundDuration":510638,"Delta":75887053},{"NoteNumber":49,"Velocity":37,"Duration":510638,"SoundDuration":510638,"Delta":75887053},{"NoteNumber":75,"Velocity":39,"Duration":124481,"SoundDuration":124481,"Delta":76397691},{"NoteNumber":71,"Velocity":35,"Duration":124481,"SoundDuration":124481,"Delta":76397691},{"NoteNumber":66,"Velocity":35,"Duration":124481,"SoundDuration":124481,"Delta":76397691},{"NoteNumber":56,"Velocity":28,"Duration":124481,"SoundDuration":124481,"Delta":76397691},{"NoteNumber":63,"Velocity":28,"Duration":124481,"SoundDuration":124481,"Delta":76397691},{"NoteNumber":68,"Velocity":45,"Duration":508475,"SoundDuration":508475,"Delta":76895616},{"NoteNumber":71,"Velocity":45,"Duration":508475,"SoundDuration":508475,"Delta":76895616},{"NoteNumber":80,"Velocity":50,"Duration":508475,"SoundDuration":508475,"Delta":76895616},{"NoteNumber":49,"Velocity":37,"Duration":508475,"SoundDuration":508475,"Delta":76895616},{"NoteNumber":65,"Velocity":37,"Duration":508475,"SoundDuration":508475,"Delta":76895616},{"NoteNumber":66,"Velocity":34,"Duration":124481,"SoundDuration":124481,"Delta":77404091},{"NoteNumber":71,"Velocity":34,"Duration":124481,"SoundDuration":124481,"Delta":77404091},{"NoteNumber":75,"Velocity":38,"Duration":124481,"SoundDuration":124481,"Delta":77404091},{"NoteNumber":63,"Velocity":27,"Duration":124481,"SoundDuration":124481,"Delta":77404091},{"NoteNumber":56,"Velocity":27,"Duration":124481,"SoundDuration":124481,"Delta":77404091},{"NoteNumber":88,"Velocity":63,"Duration":506585,"SoundDuration":506585,"Delta":77902016},{"NoteNumber":76,"Velocity":63,"Duration":506585,"SoundDuration":506585,"Delta":77902016},{"NoteNumber":54,"Velocity":57,"Duration":126646,"SoundDuration":126646,"Delta":77902016},{"NoteNumber":55,"Velocity":56,"Duration":126646,"SoundDuration":126646,"Delta":78028663},{"NoteNumber":56,"Velocity":55,"Duration":126646,"SoundDuration":126646,"Delta":78155309},{"NoteNumber":57,"Velocity":53,"Duration":126646,"SoundDuration":126646,"Delta":78281956},{"NoteNumber":75,"Velocity":62,"Duration":253292,"SoundDuration":253292,"Delta":78408602},{"NoteNumber":87,"Velocity":62,"Duration":253292,"SoundDuration":253292,"Delta":78408602},{"NoteNumber":58,"Velocity":52,"Duration":126646,"SoundDuration":126646,"Delta":78408602},{"NoteNumber":59,"Velocity":50,"Duration":126646,"SoundDuration":126646,"Delta":78535249},{"NoteNumber":73,"Velocity":55,"Duration":255362,"SoundDuration":255362,"Delta":78661895},{"NoteNumber":85,"Velocity":55,"Duration":255362,"SoundDuration":255362,"Delta":78661895},{"NoteNumber":61,"Velocity":48,"Duration":127681,"SoundDuration":127681,"Delta":78661895},{"NoteNumber":63,"Velocity":46,"Duration":127681,"SoundDuration":127681,"Delta":78789577},{"NoteNumber":67,"Velocity":60,"Duration":254243,"SoundDuration":254243,"Delta":78917258},{"NoteNumber":79,"Velocity":60,"Duration":254243,"SoundDuration":254243,"Delta":78917258},{"NoteNumber":64,"Velocity":46,"Duration":126582,"SoundDuration":126582,"Delta":78917258},{"NoteNumber":59,"Velocity":45,"Duration":127661,"SoundDuration":127661,"Delta":79043840},{"NoteNumber":68,"Velocity":52,"Duration":259561,"SoundDuration":259561,"Delta":79171501},{"NoteNumber":80,"Velocity":52,"Duration":259561,"SoundDuration":259561,"Delta":79171501},{"NoteNumber":60,"Velocity":44,"Duration":129125,"SoundDuration":129125,"Delta":79171501},{"NoteNumber":61,"Velocity":42,"Duration":130436,"SoundDuration":130436,"Delta":79300627},{"NoteNumber":73,"Velocity":58,"Duration":265300,"SoundDuration":265300,"Delta":79431063},{"NoteNumber":85,"Velocity":58,"Duration":265300,"SoundDuration":265300,"Delta":79431063},{"NoteNumber":64,"Velocity":41,"Duration":131965,"SoundDuration":131965,"Delta":79431063},{"NoteNumber":65,"Velocity":40,"Duration":133335,"SoundDuration":133335,"Delta":79563028},{"NoteNumber":75,"Velocity":50,"Duration":368056,"SoundDuration":368056,"Delta":79696363},{"NoteNumber":87,"Velocity":50,"Duration":368056,"SoundDuration":368056,"Delta":79696363},{"NoteNumber":66,"Velocity":38,"Duration":135136,"SoundDuration":135136,"Delta":79696363},{"NoteNumber":67,"Velocity":37,"Duration":232919,"SoundDuration":232919,"Delta":79831500},{"NoteNumber":66,"Velocity":40,"Duration":521376,"SoundDuration":521376,"Delta":80064420},{"NoteNumber":71,"Velocity":40,"Duration":521376,"SoundDuration":521376,"Delta":80064420},{"NoteNumber":78,"Velocity":45,"Duration":521376,"SoundDuration":521376,"Delta":80064420},{"NoteNumber":59,"Velocity":33,"Duration":521376,"SoundDuration":521376,"Delta":80064420},{"NoteNumber":63,"Velocity":33,"Duration":521376,"SoundDuration":521376,"Delta":80064420},{"NoteNumber":65,"Velocity":31,"Duration":128733,"SoundDuration":128733,"Delta":80585796},{"NoteNumber":71,"Velocity":31,"Duration":128733,"SoundDuration":128733,"Delta":80585796},{"NoteNumber":75,"Velocity":35,"Duration":128733,"SoundDuration":128733,"Delta":80585796},{"NoteNumber":63,"Velocity":25,"Duration":128733,"SoundDuration":128733,"Delta":80585796},{"NoteNumber":56,"Velocity":25,"Duration":128733,"SoundDuration":128733,"Delta":80585796},{"NoteNumber":78,"Velocity":45,"Duration":521376,"SoundDuration":521376,"Delta":81100729},{"NoteNumber":71,"Velocity":45,"Duration":521376,"SoundDuration":521376,"Delta":81100729},{"NoteNumber":66,"Velocity":40,"Duration":521376,"SoundDuration":521376,"Delta":81100729},{"NoteNumber":59,"Velocity":33,"Duration":521376,"SoundDuration":521376,"Delta":81100729},{"NoteNumber":63,"Velocity":33,"Duration":521376,"SoundDuration":521376,"Delta":81100729},{"NoteNumber":75,"Velocity":34,"Duration":128733,"SoundDuration":128733,"Delta":81622105},{"NoteNumber":71,"Velocity":30,"Duration":128733,"SoundDuration":128733,"Delta":81622105},{"NoteNumber":65,"Velocity":30,"Duration":128733,"SoundDuration":128733,"Delta":81622105},{"NoteNumber":56,"Velocity":24,"Duration":128733,"SoundDuration":128733,"Delta":81622105},{"NoteNumber":63,"Velocity":24,"Duration":128733,"SoundDuration":128733,"Delta":81622105},{"NoteNumber":66,"Velocity":33,"Duration":484566,"SoundDuration":484566,"Delta":82137038},{"NoteNumber":71,"Velocity":33,"Duration":484566,"SoundDuration":484566,"Delta":82137038},{"NoteNumber":78,"Velocity":45,"Duration":249273,"SoundDuration":249273,"Delta":82137038},{"NoteNumber":63,"Velocity":33,"Duration":484566,"SoundDuration":484566,"Delta":82137038},{"NoteNumber":59,"Velocity":33,"Duration":484566,"SoundDuration":484566,"Delta":82137038},{"NoteNumber":80,"Velocity":50,"Duration":117647,"SoundDuration":117647,"Delta":82386311},{"NoteNumber":78,"Velocity":48,"Duration":117646,"SoundDuration":117646,"Delta":82503958},{"NoteNumber":77,"Velocity":48,"Duration":59055,"SoundDuration":59055,"Delta":82621605},{"NoteNumber":71,"Velocity":27,"Duration":236376,"SoundDuration":236376,"Delta":82621605},{"NoteNumber":65,"Velocity":27,"Duration":236376,"SoundDuration":236376,"Delta":82621605},{"NoteNumber":63,"Velocity":24,"Duration":236376,"SoundDuration":236376,"Delta":82621605},{"NoteNumber":56,"Velocity":24,"Duration":236376,"SoundDuration":236376,"Delta":82621605},{"NoteNumber":75,"Velocity":47,"Duration":59055,"SoundDuration":59055,"Delta":82739715},{"NoteNumber":74,"Velocity":46,"Duration":59288,"SoundDuration":59288,"Delta":82857981},{"NoteNumber":75,"Velocity":46,"Duration":59288,"SoundDuration":59288,"Delta":82976558},{"NoteNumber":66,"Velocity":37,"Duration":477774,"SoundDuration":477774,"Delta":83095292},{"NoteNumber":71,"Velocity":37,"Duration":477774,"SoundDuration":477774,"Delta":83095292},{"NoteNumber":77,"Velocity":45,"Duration":59523,"SoundDuration":59523,"Delta":83095292},{"NoteNumber":59,"Velocity":33,"Duration":477774,"SoundDuration":477774,"Delta":83095292},{"NoteNumber":63,"Velocity":33,"Duration":477774,"SoundDuration":477774,"Delta":83095292},{"NoteNumber":75,"Velocity":45,"Duration":59602,"SoundDuration":59602,"Delta":83214339},{"NoteNumber":78,"Velocity":46,"Duration":59760,"SoundDuration":59760,"Delta":83333703},{"NoteNumber":77,"Velocity":45,"Duration":59840,"SoundDuration":59840,"Delta":83453225},{"NoteNumber":80,"Velocity":48,"Duration":60000,"SoundDuration":60000,"Delta":83573066},{"NoteNumber":71,"Velocity":27,"Duration":240481,"SoundDuration":240481,"Delta":83573066},{"NoteNumber":65,"Velocity":27,"Duration":240481,"SoundDuration":240481,"Delta":83573066},{"NoteNumber":56,"Velocity":24,"Duration":240481,"SoundDuration":240481,"Delta":83573066},{"NoteNumber":63,"Velocity":24,"Duration":240481,"SoundDuration":240481,"Delta":83573066},{"NoteNumber":78,"Velocity":45,"Duration":60241,"SoundDuration":60241,"Delta":83693066},{"NoteNumber":77,"Velocity":46,"Duration":60241,"SoundDuration":60241,"Delta":83813548},{"NoteNumber":75,"Velocity":45,"Duration":71749,"SoundDuration":71749,"Delta":83934191},{"NoteNumber":70,"Velocity":45,"Duration":498452,"SoundDuration":498452,"Delta":84077691},{"NoteNumber":78,"Velocity":45,"Duration":498452,"SoundDuration":498452,"Delta":84077691},{"NoteNumber":66,"Velocity":45,"Duration":750732,"SoundDuration":750732,"Delta":84077691},{"NoteNumber":58,"Velocity":45,"Duration":123966,"SoundDuration":123966,"Delta":84077691},{"NoteNumber":59,"Velocity":45,"Duration":124309,"SoundDuration":124309,"Delta":84201658},{"NoteNumber":62,"Velocity":45,"Duration":124827,"SoundDuration":124827,"Delta":84325968},{"NoteNumber":63,"Velocity":45,"Duration":125348,"SoundDuration":125348,"Delta":84450795},{"NoteNumber":75,"Velocity":45,"Duration":252279,"SoundDuration":252279,"Delta":84576144},{"NoteNumber":71,"Velocity":45,"Duration":252279,"SoundDuration":252279,"Delta":84576144},{"NoteNumber":65,"Velocity":41,"Duration":125874,"SoundDuration":125874,"Delta":84576144},{"NoteNumber":66,"Velocity":40,"Duration":126405,"SoundDuration":126405,"Delta":84702018},{"NoteNumber":70,"Velocity":39,"Duration":126761,"SoundDuration":126761,"Delta":84828423},{"NoteNumber":71,"Velocity":38,"Duration":127298,"SoundDuration":127298,"Delta":84955184},{"NoteNumber":74,"Velocity":37,"Duration":127841,"SoundDuration":127841,"Delta":85082483},{"NoteNumber":75,"Velocity":36,"Duration":128388,"SoundDuration":128388,"Delta":85210325},{"NoteNumber":74,"Velocity":36,"Duration":128940,"SoundDuration":128940,"Delta":85338713},{"NoteNumber":71,"Velocity":32,"Duration":128940,"SoundDuration":128940,"Delta":85338713},{"NoteNumber":75,"Velocity":36,"Duration":129496,"SoundDuration":129496,"Delta":85467654},{"NoteNumber":77,"Velocity":35,"Duration":136210,"SoundDuration":136210,"Delta":85597150},{"NoteNumber":66,"Velocity":32,"Duration":136210,"SoundDuration":136210,"Delta":85597150},{"NoteNumber":78,"Velocity":35,"Duration":138833,"SoundDuration":138833,"Delta":85733361},{"NoteNumber":82,"Velocity":34,"Duration":141768,"SoundDuration":141768,"Delta":85872194},{"NoteNumber":63,"Velocity":31,"Duration":141768,"SoundDuration":141768,"Delta":85872194},{"NoteNumber":83,"Velocity":33,"Duration":181818,"SoundDuration":181818,"Delta":86013962},{"NoteNumber":78,"Velocity":30,"Duration":202702,"SoundDuration":202702,"Delta":86195781},{"NoteNumber":83,"Velocity":30,"Duration":202702,"SoundDuration":202702,"Delta":86195781},{"NoteNumber":90,"Velocity":30,"Duration":202702,"SoundDuration":202702,"Delta":86195781},{"NoteNumber":66,"Velocity":25,"Duration":202702,"SoundDuration":202702,"Delta":86195781},{"NoteNumber":75,"Velocity":25,"Duration":202702,"SoundDuration":202702,"Delta":86195781},{"NoteNumber":71,"Velocity":25,"Duration":202702,"SoundDuration":202702,"Delta":86195781}],"license":{"name":"Creative Commons Attribution-ShareAlike 3.0 Germany","url":"http://creativecommons.org/licenses/by-sa/3.0/de/deed.en","text":"The MIDI, audio (MP3, OGG) and video files of Bernd Krueger are licensed under the cc-by-sa Germany License. This means that you can use and adapt the files, as long as you attribute the copyright holder.\n\nName: Bernd Krueger\nSource: http://www.piano-midi.de\n\nThe distribution or public playback of the files is only allowed under identical license conditions.\n\nThe scores are open source.","attribution":"MIDI files by Bernd Krueger (piano-midi.de)","attributionUrl":"http://www.piano-midi.de"}}