{"title":"Promenade - Gnomus (1)","artist":"Mussorgsky","durationMs":209426,"midiSha256":"e5980100986bdb4cc24a9c95736fef388a299824254f006ba0902ad56ad10e10","midiObject":[{"NoteNumber":67,"Velocity":90,"Duration":625000,"SoundDuration":625000,"Delta":0},{"NoteNumber":65,"Velocity":85,"Duration":624509,"SoundDuration":624509,"Delta":598750},{"NoteNumber":70,"Velocity":89,"Duration":612273,"SoundDuration":612273,"Delta":1198750},{"NoteNumber":72,"Velocity":91,"Duration":312733,"SoundDuration":312733,"Delta":1786985},{"NoteNumber":77,"Velocity":81,"Duration":315771,"SoundDuration":315771,"Delta":2075446},{"NoteNumber":74,"Velocity":86,"Duration":612158,"SoundDuration":612158,"Delta":2366708},{"NoteNumber":72,"Velocity":85,"Duration":311591,"SoundDuration":311591,"Delta":2954943},{"NoteNumber":77,"Velocity":81,"Duration":319117,"SoundDuration":319117,"Delta":3242025},{"NoteNumber":74,"Velocity":85,"Duration":625000,"SoundDuration":625000,"Delta":3536142},{"NoteNumber":70,"Velocity":86,"Duration":625000,"SoundDuration":625000,"Delta":4136142},{"NoteNumber":72,"Velocity":86,"Duration":625000,"SoundDuration":625000,"Delta":4736142},{"NoteNumber":67,"Velocity":82,"Duration":626315,"SoundDuration":626315,"Delta":5336142},{"NoteNumber":65,"Velocity":81,"Duration":592105,"SoundDuration":592105,"Delta":5936142},{"NoteNumber":58,"Velocity":69,"Duration":599999,"SoundDuration":599999,"Delta":6567721},{"NoteNumber":67,"Velocity":82,"Duration":599999,"SoundDuration":599999,"Delta":6567721},{"NoteNumber":62,"Velocity":69,"Duration":599999,"SoundDuration":599999,"Delta":6567721},{"NoteNumber":43,"Velocity":62,"Duration":599999,"SoundDuration":599999,"Delta":6567721},{"NoteNumber":55,"Velocity":74,"Duration":599999,"SoundDuration":599999,"Delta":6567721},{"NoteNumber":60,"Velocity":68,"Duration":600000,"SoundDuration":600000,"Delta":7167721},{"NoteNumber":57,"Velocity":68,"Duration":600000,"SoundDuration":600000,"Delta":7167721},{"NoteNumber":65,"Velocity":80,"Duration":600000,"SoundDuration":600000,"Delta":7167721},{"NoteNumber":45,"Velocity":58,"Duration":600000,"SoundDuration":600000,"Delta":7167721},{"NoteNumber":53,"Velocity":69,"Duration":600000,"SoundDuration":600000,"Delta":7167721},{"NoteNumber":62,"Velocity":68,"Duration":585366,"SoundDuration":585366,"Delta":7767721},{"NoteNumber":58,"Velocity":68,"Duration":585366,"SoundDuration":585366,"Delta":7767721},{"NoteNumber":70,"Velocity":80,"Duration":585366,"SoundDuration":585366,"Delta":7767721},{"NoteNumber":43,"Velocity":58,"Duration":585366,"SoundDuration":585366,"Delta":7767721},{"NoteNumber":55,"Velocity":69,"Duration":585366,"SoundDuration":585366,"Delta":7767721},{"NoteNumber":60,"Velocity":69,"Duration":597029,"SoundDuration":597029,"Delta":8353087},{"NoteNumber":72,"Velocity":82,"Duration":297029,"SoundDuration":297029,"Delta":8353087},{"NoteNumber":69,"Velocity":69,"Duration":597029,"SoundDuration":597029,"Delta":8353087},{"NoteNumber":41,"Velocity":56,"Duration":597029,"SoundDuration":597029,"Delta":8353087},{"NoteNumber":53,"Velocity":66,"Duration":597029,"SoundDuration":597029,"Delta":8353087},{"NoteNumber":77,"Velocity":78,"Duration":300000,"SoundDuration":300000,"Delta":8650117},{"NoteNumber":69,"Velocity":68,"Duration":591132,"SoundDuration":591132,"Delta":8950117},{"NoteNumber":74,"Velocity":81,"Duration":591132,"SoundDuration":591132,"Delta":8950117},{"NoteNumber":65,"Velocity":68,"Duration":591132,"SoundDuration":591132,"Delta":8950117},{"NoteNumber":38,"Velocity":51,"Duration":591132,"SoundDuration":591132,"Delta":8950117},{"NoteNumber":50,"Velocity":60,"Duration":591132,"SoundDuration":591132,"Delta":8950117},{"NoteNumber":60,"Velocity":68,"Duration":594058,"SoundDuration":594058,"Delta":9541250},{"NoteNumber":69,"Velocity":68,"Duration":594058,"SoundDuration":594058,"Delta":9541250},{"NoteNumber":72,"Velocity":81,"Duration":297029,"SoundDuration":297029,"Delta":9541250},{"NoteNumber":41,"Velocity":58,"Duration":594058,"SoundDuration":594058,"Delta":9541250},{"NoteNumber":53,"Velocity":69,"Duration":594058,"SoundDuration":594058,"Delta":9541250},{"NoteNumber":77,"Velocity":77,"Duration":297029,"SoundDuration":297029,"Delta":9838279},{"NoteNumber":70,"Velocity":71,"Duration":562004,"SoundDuration":562004,"Delta":10135309},{"NoteNumber":65,"Velocity":71,"Duration":562004,"SoundDuration":562004,"Delta":10135309},{"NoteNumber":74,"Velocity":84,"Duration":562004,"SoundDuration":562004,"Delta":10135309},{"NoteNumber":46,"Velocity":56,"Duration":599504,"SoundDuration":599504,"Delta":10135309},{"NoteNumber":58,"Velocity":67,"Duration":599504,"SoundDuration":599504,"Delta":10135309},{"NoteNumber":67,"Velocity":66,"Duration":599999,"SoundDuration":599999,"Delta":10734813},{"NoteNumber":62,"Velocity":66,"Duration":599999,"SoundDuration":599999,"Delta":10734813},{"NoteNumber":70,"Velocity":78,"Duration":599999,"SoundDuration":599999,"Delta":10734813},{"NoteNumber":43,"Velocity":53,"Duration":599999,"SoundDuration":599999,"Delta":10734813},{"NoteNumber":55,"Velocity":63,"Duration":599999,"SoundDuration":599999,"Delta":10734813},{"NoteNumber":67,"Velocity":65,"Duration":599999,"SoundDuration":599999,"Delta":11334813},{"NoteNumber":64,"Velocity":65,"Duration":599999,"SoundDuration":599999,"Delta":11334813},{"NoteNumber":72,"Velocity":77,"Duration":599999,"SoundDuration":599999,"Delta":11334813},{"NoteNumber":36,"Velocity":56,"Duration":599999,"SoundDuration":599999,"Delta":11334813},{"NoteNumber":48,"Velocity":56,"Duration":599999,"SoundDuration":599999,"Delta":11334813},{"NoteNumber":60,"Velocity":59,"Duration":600000,"SoundDuration":600000,"Delta":11934813},{"NoteNumber":67,"Velocity":70,"Duration":600000,"SoundDuration":600000,"Delta":11934813},{"NoteNumber":55,"Velocity":59,"Duration":600000,"SoundDuration":600000,"Delta":11934813},{"NoteNumber":40,"Velocity":49,"Duration":600000,"SoundDuration":600000,"Delta":11934813},{"NoteNumber":52,"Velocity":58,"Duration":600000,"SoundDuration":600000,"Delta":11934813},{"NoteNumber":65,"Velocity":66,"Duration":608108,"SoundDuration":608108,"Delta":12534813},{"NoteNumber":57,"Velocity":56,"Duration":608108,"SoundDuration":608108,"Delta":12534813},{"NoteNumber":60,"Velocity":56,"Duration":608108,"SoundDuration":608108,"Delta":12534813},{"NoteNumber":41,"Velocity":47,"Duration":608108,"SoundDuration":608108,"Delta":12534813},{"NoteNumber":53,"Velocity":56,"Duration":608108,"SoundDuration":608108,"Delta":12534813},{"NoteNumber":65,"Velocity":92,"Duration":625000,"SoundDuration":625000,"Delta":13183462},{"NoteNumber":67,"Velocity":88,"Duration":625000,"SoundDuration":625000,"Delta":13783462},{"NoteNumber":62,"Velocity":83,"Duration":616143,"SoundDuration":616143,"Delta":14383462},{"NoteNumber":65,"Velocity":86,"Duration":315892,"SoundDuration":315892,"Delta":14975334},{"NoteNumber":67,"Velocity":74,"Duration":320197,"SoundDuration":320197,"Delta":15266596},{"NoteNumber":60,"Velocity":80,"Duration":615287,"SoundDuration":615287,"Delta":15562163},{"NoteNumber":67,"Velocity":85,"Duration":314245,"SoundDuration":314245,"Delta":16153296},{"NoteNumber":69,"Velocity":77,"Duration":317808,"SoundDuration":317808,"Delta":16443151},{"NoteNumber":65,"Velocity":83,"Duration":565326,"SoundDuration":565326,"Delta":16735834},{"NoteNumber":77,"Velocity":84,"Duration":600000,"SoundDuration":600000,"Delta":17338849},{"NoteNumber":65,"Velocity":71,"Duration":600000,"SoundDuration":600000,"Delta":17338849},{"NoteNumber":53,"Velocity":73,"Duration":600000,"SoundDuration":600000,"Delta":17338849},{"NoteNumber":41,"Velocity":62,"Duration":600000,"SoundDuration":600000,"Delta":17338849},{"NoteNumber":65,"Velocity":69,"Duration":588235,"SoundDuration":588235,"Delta":17938849},{"NoteNumber":74,"Velocity":82,"Duration":588235,"SoundDuration":588235,"Delta":17938849},{"NoteNumber":58,"Velocity":69,"Duration":588235,"SoundDuration":588235,"Delta":17938849},{"NoteNumber":46,"Velocity":58,"Duration":588235,"SoundDuration":588235,"Delta":17938849},{"NoteNumber":65,"Velocity":68,"Duration":585379,"SoundDuration":585379,"Delta":18527084},{"NoteNumber":72,"Velocity":80,"Duration":291261,"SoundDuration":291261,"Delta":18527084},{"NoteNumber":55,"Velocity":67,"Duration":585379,"SoundDuration":585379,"Delta":18527084},{"NoteNumber":43,"Velocity":56,"Duration":585379,"SoundDuration":585379,"Delta":18527084},{"NoteNumber":70,"Velocity":74,"Duration":294117,"SoundDuration":294117,"Delta":18818346},{"NoteNumber":65,"Velocity":79,"Duration":576923,"SoundDuration":576923,"Delta":19112463},{"NoteNumber":53,"Velocity":61,"Duration":576923,"SoundDuration":576923,"Delta":19112463},{"NoteNumber":41,"Velocity":51,"Duration":576923,"SoundDuration":576923,"Delta":19112463},{"NoteNumber":65,"Velocity":92,"Duration":625000,"SoundDuration":625000,"Delta":19727848},{"NoteNumber":67,"Velocity":88,"Duration":624630,"SoundDuration":624630,"Delta":20327848},{"NoteNumber":62,"Velocity":85,"Duration":615404,"SoundDuration":615404,"Delta":20927848},{"NoteNumber":65,"Velocity":86,"Duration":315652,"SoundDuration":315652,"Delta":21518981},{"NoteNumber":67,"Velocity":77,"Duration":317313,"SoundDuration":317313,"Delta":21810243},{"NoteNumber":63,"Velocity":85,"Duration":615404,"SoundDuration":615404,"Delta":22102926},{"NoteNumber":70,"Velocity":92,"Duration":315892,"SoundDuration":315892,"Delta":22694059},{"NoteNumber":72,"Velocity":74,"Duration":320197,"SoundDuration":320197,"Delta":22985321},{"NoteNumber":68,"Velocity":78,"Duration":554187,"SoundDuration":554187,"Delta":23280888},{"NoteNumber":80,"Velocity":84,"Duration":600000,"SoundDuration":600000,"Delta":23872021},{"NoteNumber":68,"Velocity":71,"Duration":600000,"SoundDuration":600000,"Delta":23872021},{"NoteNumber":56,"Velocity":73,"Duration":600000,"SoundDuration":600000,"Delta":23872021},{"NoteNumber":44,"Velocity":62,"Duration":600000,"SoundDuration":600000,"Delta":23872021},{"NoteNumber":68,"Velocity":68,"Duration":599999,"SoundDuration":599999,"Delta":24472021},{"NoteNumber":77,"Velocity":80,"Duration":599999,"SoundDuration":599999,"Delta":24472021},{"NoteNumber":61,"Velocity":68,"Duration":599999,"SoundDuration":599999,"Delta":24472021},{"NoteNumber":49,"Velocity":57,"Duration":599999,"SoundDuration":599999,"Delta":24472021},{"NoteNumber":75,"Velocity":78,"Duration":295566,"SoundDuration":295566,"Delta":25072021},{"NoteNumber":68,"Velocity":66,"Duration":591132,"SoundDuration":591132,"Delta":25072021},{"NoteNumber":58,"Velocity":67,"Duration":591132,"SoundDuration":591132,"Delta":25072021},{"NoteNumber":46,"Velocity":56,"Duration":591132,"SoundDuration":591132,"Delta":25072021},{"NoteNumber":73,"Velocity":78,"Duration":295566,"SoundDuration":295566,"Delta":25367587},{"NoteNumber":68,"Velocity":74,"Duration":592105,"SoundDuration":592105,"Delta":25663154},{"NoteNumber":56,"Velocity":64,"Duration":592105,"SoundDuration":592105,"Delta":25663154},{"NoteNumber":44,"Velocity":54,"Duration":592105,"SoundDuration":592105,"Delta":25663154},{"NoteNumber":68,"Velocity":48,"Duration":600000,"SoundDuration":600000,"Delta":26294733},{"NoteNumber":56,"Velocity":40,"Duration":600000,"SoundDuration":600000,"Delta":26294733},{"NoteNumber":63,"Velocity":40,"Duration":1800000,"SoundDuration":1800000,"Delta":26294733},{"NoteNumber":42,"Velocity":37,"Duration":1199999,"SoundDuration":1199999,"Delta":26294733},{"NoteNumber":30,"Velocity":31,"Duration":1199999,"SoundDuration":1199999,"Delta":26294733},{"NoteNumber":70,"Velocity":49,"Duration":599999,"SoundDuration":599999,"Delta":26894733},{"NoteNumber":58,"Velocity":41,"Duration":599999,"SoundDuration":599999,"Delta":26894733},{"NoteNumber":56,"Velocity":41,"Duration":600000,"SoundDuration":600000,"Delta":27494733},{"NoteNumber":68,"Velocity":49,"Duration":600000,"SoundDuration":600000,"Delta":27494733},{"NoteNumber":29,"Velocity":28,"Duration":600000,"SoundDuration":600000,"Delta":27494733},{"NoteNumber":41,"Velocity":34,"Duration":600000,"SoundDuration":600000,"Delta":27494733},{"NoteNumber":63,"Velocity":49,"Duration":866778,"SoundDuration":866778,"Delta":28094733},{"NoteNumber":58,"Velocity":41,"Duration":289854,"SoundDuration":289854,"Delta":28094733},{"NoteNumber":70,"Velocity":49,"Duration":289854,"SoundDuration":289854,"Delta":28094733},{"NoteNumber":30,"Velocity":31,"Duration":578316,"SoundDuration":578316,"Delta":28094733},{"NoteNumber":42,"Velocity":37,"Duration":578316,"SoundDuration":578316,"Delta":28094733},{"NoteNumber":60,"Velocity":41,"Duration":288461,"SoundDuration":288461,"Delta":28384588},{"NoteNumber":72,"Velocity":49,"Duration":288461,"SoundDuration":288461,"Delta":28384588},{"NoteNumber":75,"Velocity":53,"Duration":288461,"SoundDuration":288461,"Delta":28673049},{"NoteNumber":63,"Velocity":45,"Duration":1182738,"SoundDuration":1182738,"Delta":28673049},{"NoteNumber":30,"Velocity":28,"Duration":579723,"SoundDuration":579723,"Delta":28673049},{"NoteNumber":42,"Velocity":34,"Duration":579723,"SoundDuration":579723,"Delta":28673049},{"NoteNumber":70,"Velocity":49,"Duration":291261,"SoundDuration":291261,"Delta":28961511},{"NoteNumber":58,"Velocity":41,"Duration":291261,"SoundDuration":291261,"Delta":28961511},{"NoteNumber":68,"Velocity":46,"Duration":565326,"SoundDuration":565326,"Delta":29252773},{"NoteNumber":56,"Velocity":39,"Duration":565326,"SoundDuration":565326,"Delta":29252773},{"NoteNumber":42,"Velocity":28,"Duration":565326,"SoundDuration":565326,"Delta":29252773},{"NoteNumber":54,"Velocity":33,"Duration":565326,"SoundDuration":565326,"Delta":29252773},{"NoteNumber":73,"Velocity":73,"Duration":288461,"SoundDuration":288461,"Delta":29855788},{"NoteNumber":61,"Velocity":62,"Duration":288461,"SoundDuration":288461,"Delta":29855788},{"NoteNumber":65,"Velocity":62,"Duration":288461,"SoundDuration":288461,"Delta":29855788},{"NoteNumber":68,"Velocity":62,"Duration":288461,"SoundDuration":288461,"Delta":29855788},{"NoteNumber":41,"Velocity":46,"Duration":288461,"SoundDuration":288461,"Delta":29855788},{"NoteNumber":53,"Velocity":55,"Duration":288461,"SoundDuration":288461,"Delta":29855788},{"NoteNumber":72,"Velocity":58,"Duration":292683,"SoundDuration":292683,"Delta":30144249},{"NoteNumber":75,"Velocity":69,"Duration":292683,"SoundDuration":292683,"Delta":30144249},{"NoteNumber":68,"Velocity":58,"Duration":292683,"SoundDuration":292683,"Delta":30144249},{"NoteNumber":63,"Velocity":58,"Duration":292683,"SoundDuration":292683,"Delta":30144249},{"NoteNumber":51,"Velocity":50,"Duration":292683,"SoundDuration":292683,"Delta":30144249},{"NoteNumber":39,"Velocity":42,"Duration":292683,"SoundDuration":292683,"Delta":30144249},{"NoteNumber":65,"Velocity":62,"Duration":288461,"SoundDuration":288461,"Delta":30436932},{"NoteNumber":77,"Velocity":73,"Duration":288461,"SoundDuration":288461,"Delta":30436932},{"NoteNumber":73,"Velocity":62,"Duration":288461,"SoundDuration":288461,"Delta":30436932},{"NoteNumber":68,"Velocity":62,"Duration":288461,"SoundDuration":288461,"Delta":30436932},{"NoteNumber":37,"Velocity":46,"Duration":576923,"SoundDuration":576923,"Delta":30436932},{"NoteNumber":49,"Velocity":55,"Duration":576923,"SoundDuration":576923,"Delta":30436932},{"NoteNumber":80,"Velocity":75,"Duration":288461,"SoundDuration":288461,"Delta":30725394},{"NoteNumber":70,"Velocity":61,"Duration":287081,"SoundDuration":287081,"Delta":31013855},{"NoteNumber":75,"Velocity":61,"Duration":287081,"SoundDuration":287081,"Delta":31013855},{"NoteNumber":66,"Velocity":61,"Duration":287081,"SoundDuration":287081,"Delta":31013855},{"NoteNumber":78,"Velocity":72,"Duration":287081,"SoundDuration":287081,"Delta":31013855},{"NoteNumber":39,"Velocity":47,"Duration":287081,"SoundDuration":287081,"Delta":31013855},{"NoteNumber":51,"Velocity":56,"Duration":287081,"SoundDuration":287081,"Delta":31013855},{"NoteNumber":68,"Velocity":57,"Duration":287081,"SoundDuration":287081,"Delta":31300937},{"NoteNumber":65,"Velocity":57,"Duration":287081,"SoundDuration":287081,"Delta":31300937},{"NoteNumber":73,"Velocity":57,"Duration":287081,"SoundDuration":287081,"Delta":31300937},{"NoteNumber":77,"Velocity":68,"Duration":287081,"SoundDuration":287081,"Delta":31300937},{"NoteNumber":41,"Velocity":43,"Duration":287081,"SoundDuration":287081,"Delta":31300937},{"NoteNumber":53,"Velocity":51,"Duration":287081,"SoundDuration":287081,"Delta":31300937},{"NoteNumber":63,"Velocity":63,"Duration":292683,"SoundDuration":292683,"Delta":31588018},{"NoteNumber":75,"Velocity":75,"Duration":292683,"SoundDuration":292683,"Delta":31588018},{"NoteNumber":68,"Velocity":63,"Duration":292683,"SoundDuration":292683,"Delta":31588018},{"NoteNumber":72,"Velocity":63,"Duration":292683,"SoundDuration":292683,"Delta":31588018},{"NoteNumber":56,"Velocity":56,"Duration":585366,"SoundDuration":585366,"Delta":31588018},{"NoteNumber":44,"Velocity":47,"Duration":585366,"SoundDuration":585366,"Delta":31588018},{"NoteNumber":78,"Velocity":69,"Duration":292683,"SoundDuration":292683,"Delta":31880701},{"NoteNumber":66,"Velocity":58,"Duration":292683,"SoundDuration":292683,"Delta":31880701},{"NoteNumber":70,"Velocity":58,"Duration":292682,"SoundDuration":292682,"Delta":32173384},{"NoteNumber":77,"Velocity":69,"Duration":292682,"SoundDuration":292682,"Delta":32173384},{"NoteNumber":73,"Velocity":58,"Duration":292682,"SoundDuration":292682,"Delta":32173384},{"NoteNumber":65,"Velocity":58,"Duration":292682,"SoundDuration":292682,"Delta":32173384},{"NoteNumber":58,"Velocity":46,"Duration":585366,"SoundDuration":585366,"Delta":32173384},{"NoteNumber":46,"Velocity":39,"Duration":585366,"SoundDuration":585366,"Delta":32173384},{"NoteNumber":61,"Velocity":57,"Duration":292683,"SoundDuration":292683,"Delta":32466067},{"NoteNumber":73,"Velocity":68,"Duration":292683,"SoundDuration":292683,"Delta":32466067},{"NoteNumber":68,"Velocity":54,"Duration":560540,"SoundDuration":560540,"Delta":32758750},{"NoteNumber":75,"Velocity":64,"Duration":560540,"SoundDuration":560540,"Delta":32758750},{"NoteNumber":72,"Velocity":54,"Duration":560540,"SoundDuration":560540,"Delta":32758750},{"NoteNumber":63,"Velocity":54,"Duration":560540,"SoundDuration":560540,"Delta":32758750},{"NoteNumber":44,"Velocity":37,"Duration":560540,"SoundDuration":560540,"Delta":32758750},{"NoteNumber":56,"Velocity":44,"Duration":560540,"SoundDuration":560540,"Delta":32758750},{"NoteNumber":63,"Velocity":43,"Duration":1799999,"SoundDuration":1799999,"Delta":33357556},{"NoteNumber":68,"Velocity":51,"Duration":600000,"SoundDuration":600000,"Delta":33357556},{"NoteNumber":56,"Velocity":43,"Duration":600000,"SoundDuration":600000,"Delta":33357556},{"NoteNumber":30,"Velocity":29,"Duration":1200000,"SoundDuration":1200000,"Delta":33357556},{"NoteNumber":42,"Velocity":35,"Duration":1200000,"SoundDuration":1200000,"Delta":33357556},{"NoteNumber":70,"Velocity":51,"Duration":600000,"SoundDuration":600000,"Delta":33957556},{"NoteNumber":58,"Velocity":43,"Duration":600000,"SoundDuration":600000,"Delta":33957556},{"NoteNumber":56,"Velocity":43,"Duration":599999,"SoundDuration":599999,"Delta":34557556},{"NoteNumber":68,"Velocity":51,"Duration":599999,"SoundDuration":599999,"Delta":34557556},{"NoteNumber":29,"Velocity":31,"Duration":599999,"SoundDuration":599999,"Delta":34557556},{"NoteNumber":41,"Velocity":37,"Duration":599999,"SoundDuration":599999,"Delta":34557556},{"NoteNumber":58,"Velocity":45,"Duration":291262,"SoundDuration":291262,"Delta":35157556},{"NoteNumber":63,"Velocity":45,"Duration":581117,"SoundDuration":581117,"Delta":35157556},{"NoteNumber":70,"Velocity":53,"Duration":291262,"SoundDuration":291262,"Delta":35157556},{"NoteNumber":30,"Velocity":31,"Duration":581117,"SoundDuration":581117,"Delta":35157556},{"NoteNumber":42,"Velocity":38,"Duration":581117,"SoundDuration":581117,"Delta":35157556},{"NoteNumber":72,"Velocity":55,"Duration":289855,"SoundDuration":289855,"Delta":35448818},{"NoteNumber":60,"Velocity":46,"Duration":289855,"SoundDuration":289855,"Delta":35448818},{"NoteNumber":63,"Velocity":52,"Duration":289854,"SoundDuration":289854,"Delta":35738673},{"NoteNumber":75,"Velocity":62,"Duration":289854,"SoundDuration":289854,"Delta":35738673},{"NoteNumber":42,"Velocity":37,"Duration":289854,"SoundDuration":289854,"Delta":35738673},{"NoteNumber":54,"Velocity":44,"Duration":289854,"SoundDuration":289854,"Delta":35738673},{"NoteNumber":58,"Velocity":49,"Duration":309278,"SoundDuration":309278,"Delta":36028528},{"NoteNumber":70,"Velocity":59,"Duration":309278,"SoundDuration":309278,"Delta":36028528},{"NoteNumber":60,"Velocity":52,"Duration":600000,"SoundDuration":600000,"Delta":36337806},{"NoteNumber":72,"Velocity":62,"Duration":600000,"SoundDuration":600000,"Delta":36337806},{"NoteNumber":67,"Velocity":52,"Duration":1791133,"SoundDuration":1791133,"Delta":36337806},{"NoteNumber":46,"Velocity":41,"Duration":1200000,"SoundDuration":1200000,"Delta":36337806},{"NoteNumber":34,"Velocity":34,"Duration":1200000,"SoundDuration":1200000,"Delta":36337806},{"NoteNumber":62,"Velocity":54,"Duration":600000,"SoundDuration":600000,"Delta":36937806},{"NoteNumber":74,"Velocity":64,"Duration":600000,"SoundDuration":600000,"Delta":36937806},{"NoteNumber":60,"Velocity":53,"Duration":591132,"SoundDuration":591132,"Delta":37537806},{"NoteNumber":72,"Velocity":63,"Duration":591132,"SoundDuration":591132,"Delta":37537806},{"NoteNumber":45,"Velocity":40,"Duration":591132,"SoundDuration":591132,"Delta":37537806},{"NoteNumber":33,"Velocity":34,"Duration":591132,"SoundDuration":591132,"Delta":37537806},{"NoteNumber":62,"Velocity":52,"Duration":292682,"SoundDuration":292682,"Delta":38128939},{"NoteNumber":67,"Velocity":52,"Duration":585366,"SoundDuration":585366,"Delta":38128939},{"NoteNumber":74,"Velocity":62,"Duration":292682,"SoundDuration":292682,"Delta":38128939},{"NoteNumber":46,"Velocity":42,"Duration":585366,"SoundDuration":585366,"Delta":38128939},{"NoteNumber":34,"Velocity":35,"Duration":585366,"SoundDuration":585366,"Delta":38128939},{"NoteNumber":77,"Velocity":62,"Duration":292683,"SoundDuration":292683,"Delta":38421622},{"NoteNumber":65,"Velocity":52,"Duration":292683,"SoundDuration":292683,"Delta":38421622},{"NoteNumber":79,"Velocity":64,"Duration":292682,"SoundDuration":292682,"Delta":38714305},{"NoteNumber":67,"Velocity":54,"Duration":1170732,"SoundDuration":1170732,"Delta":38714305},{"NoteNumber":46,"Velocity":41,"Duration":585366,"SoundDuration":585366,"Delta":38714305},{"NoteNumber":34,"Velocity":34,"Duration":585366,"SoundDuration":585366,"Delta":38714305},{"NoteNumber":62,"Velocity":53,"Duration":292683,"SoundDuration":292683,"Delta":39006988},{"NoteNumber":74,"Velocity":63,"Duration":292683,"SoundDuration":292683,"Delta":39006988},{"NoteNumber":72,"Velocity":61,"Duration":548780,"SoundDuration":548780,"Delta":39299671},{"NoteNumber":60,"Velocity":51,"Duration":548780,"SoundDuration":548780,"Delta":39299671},{"NoteNumber":58,"Velocity":41,"Duration":548780,"SoundDuration":548780,"Delta":39299671},{"NoteNumber":46,"Velocity":34,"Duration":548780,"SoundDuration":548780,"Delta":39299671},{"NoteNumber":72,"Velocity":67,"Duration":287081,"SoundDuration":287081,"Delta":39885037},{"NoteNumber":65,"Velocity":67,"Duration":287081,"SoundDuration":287081,"Delta":39885037},{"NoteNumber":69,"Velocity":67,"Duration":287081,"SoundDuration":287081,"Delta":39885037},{"NoteNumber":77,"Velocity":79,"Duration":287081,"SoundDuration":287081,"Delta":39885037},{"NoteNumber":57,"Velocity":62,"Duration":287081,"SoundDuration":287081,"Delta":39885037},{"NoteNumber":45,"Velocity":52,"Duration":287081,"SoundDuration":287081,"Delta":39885037},{"NoteNumber":72,"Velocity":61,"Duration":292682,"SoundDuration":292682,"Delta":40172119},{"NoteNumber":79,"Velocity":72,"Duration":292682,"SoundDuration":292682,"Delta":40172119},{"NoteNumber":76,"Velocity":61,"Duration":292682,"SoundDuration":292682,"Delta":40172119},{"NoteNumber":67,"Velocity":61,"Duration":292682,"SoundDuration":292682,"Delta":40172119},{"NoteNumber":55,"Velocity":56,"Duration":292682,"SoundDuration":292682,"Delta":40172119},{"NoteNumber":43,"Velocity":47,"Duration":292682,"SoundDuration":292682,"Delta":40172119},{"NoteNumber":69,"Velocity":69,"Duration":288461,"SoundDuration":288461,"Delta":40464802},{"NoteNumber":81,"Velocity":82,"Duration":288461,"SoundDuration":288461,"Delta":40464802},{"NoteNumber":72,"Velocity":69,"Duration":288461,"SoundDuration":288461,"Delta":40464802},{"NoteNumber":77,"Velocity":69,"Duration":288461,"SoundDuration":288461,"Delta":40464802},{"NoteNumber":41,"Velocity":51,"Duration":572821,"SoundDuration":572821,"Delta":40464802},{"NoteNumber":53,"Velocity":61,"Duration":572821,"SoundDuration":572821,"Delta":40464802},{"NoteNumber":72,"Velocity":61,"Duration":284359,"SoundDuration":284359,"Delta":40753263},{"NoteNumber":84,"Velocity":72,"Duration":284359,"SoundDuration":284359,"Delta":40753263},{"NoteNumber":74,"Velocity":68,"Duration":288461,"SoundDuration":288461,"Delta":41037623},{"NoteNumber":70,"Velocity":68,"Duration":288461,"SoundDuration":288461,"Delta":41037623},{"NoteNumber":79,"Velocity":68,"Duration":288461,"SoundDuration":288461,"Delta":41037623},{"NoteNumber":82,"Velocity":81,"Duration":288461,"SoundDuration":288461,"Delta":41037623},{"NoteNumber":55,"Velocity":61,"Duration":288461,"SoundDuration":288461,"Delta":41037623},{"NoteNumber":43,"Velocity":51,"Duration":288461,"SoundDuration":288461,"Delta":41037623},{"NoteNumber":69,"Velocity":63,"Duration":291262,"SoundDuration":291262,"Delta":41326085},{"NoteNumber":81,"Velocity":75,"Duration":291262,"SoundDuration":291262,"Delta":41326085},{"NoteNumber":72,"Velocity":63,"Duration":291262,"SoundDuration":291262,"Delta":41326085},{"NoteNumber":77,"Velocity":63,"Duration":291262,"SoundDuration":291262,"Delta":41326085},{"NoteNumber":45,"Velocity":47,"Duration":291262,"SoundDuration":291262,"Delta":41326085},{"NoteNumber":57,"Velocity":56,"Duration":291262,"SoundDuration":291262,"Delta":41326085},{"NoteNumber":76,"Velocity":81,"Duration":289855,"SoundDuration":289855,"Delta":41617347},{"NoteNumber":79,"Velocity":81,"Duration":289855,"SoundDuration":289855,"Delta":41617347},{"NoteNumber":67,"Velocity":68,"Duration":289855,"SoundDuration":289855,"Delta":41617347},{"NoteNumber":72,"Velocity":68,"Duration":289855,"SoundDuration":289855,"Delta":41617347},{"NoteNumber":60,"Velocity":62,"Duration":582537,"SoundDuration":582537,"Delta":41617347},{"NoteNumber":48,"Velocity":52,"Duration":582537,"SoundDuration":582537,"Delta":41617347},{"NoteNumber":70,"Velocity":63,"Duration":292682,"SoundDuration":292682,"Delta":41907202},{"NoteNumber":82,"Velocity":75,"Duration":292682,"SoundDuration":292682,"Delta":41907202},{"NoteNumber":74,"Velocity":67,"Duration":301507,"SoundDuration":301507,"Delta":42199885},{"NoteNumber":69,"Velocity":67,"Duration":301507,"SoundDuration":301507,"Delta":42199885},{"NoteNumber":77,"Velocity":67,"Duration":301507,"SoundDuration":301507,"Delta":42199885},{"NoteNumber":81,"Velocity":79,"Duration":301507,"SoundDuration":301507,"Delta":42199885},{"NoteNumber":50,"Velocity":51,"Duration":603014,"SoundDuration":603014,"Delta":42199885},{"NoteNumber":62,"Velocity":60,"Duration":603014,"SoundDuration":603014,"Delta":42199885},{"NoteNumber":65,"Velocity":62,"Duration":301507,"SoundDuration":301507,"Delta":42501392},{"NoteNumber":77,"Velocity":74,"Duration":301507,"SoundDuration":301507,"Delta":42501392},{"NoteNumber":72,"Velocity":58,"Duration":571065,"SoundDuration":571065,"Delta":42802900},{"NoteNumber":67,"Velocity":58,"Duration":571065,"SoundDuration":571065,"Delta":42802900},{"NoteNumber":79,"Velocity":69,"Duration":571065,"SoundDuration":571065,"Delta":42802900},{"NoteNumber":76,"Velocity":58,"Duration":571065,"SoundDuration":571065,"Delta":42802900},{"NoteNumber":48,"Velocity":49,"Duration":571065,"SoundDuration":571065,"Delta":42802900},{"NoteNumber":60,"Velocity":58,"Duration":571065,"SoundDuration":571065,"Delta":42802900},{"NoteNumber":69,"Velocity":47,"Duration":585366,"SoundDuration":585366,"Delta":43412037},{"NoteNumber":81,"Velocity":56,"Duration":292682,"SoundDuration":292682,"Delta":43412037},{"NoteNumber":72,"Velocity":47,"Duration":585366,"SoundDuration":585366,"Delta":43412037},{"NoteNumber":57,"Velocity":43,"Duration":585366,"SoundDuration":585366,"Delta":43412037},{"NoteNumber":45,"Velocity":36,"Duration":585366,"SoundDuration":585366,"Delta":43412037},{"NoteNumber":76,"Velocity":51,"Duration":292683,"SoundDuration":292683,"Delta":43704720},{"NoteNumber":65,"Velocity":45,"Duration":591132,"SoundDuration":591132,"Delta":43997403},{"NoteNumber":74,"Velocity":45,"Duration":591132,"SoundDuration":591132,"Delta":43997403},{"NoteNumber":77,"Velocity":54,"Duration":591132,"SoundDuration":591132,"Delta":43997403},{"NoteNumber":46,"Velocity":33,"Duration":591132,"SoundDuration":591132,"Delta":43997403},{"NoteNumber":58,"Velocity":39,"Duration":591132,"SoundDuration":591132,"Delta":43997403},{"NoteNumber":69,"Velocity":43,"Duration":588234,"SoundDuration":588234,"Delta":44588536},{"NoteNumber":72,"Velocity":43,"Duration":588234,"SoundDuration":588234,"Delta":44588536},{"NoteNumber":81,"Velocity":51,"Duration":588234,"SoundDuration":588234,"Delta":44588536},{"NoteNumber":53,"Velocity":43,"Duration":588234,"SoundDuration":588234,"Delta":44588536},{"NoteNumber":41,"Velocity":36,"Duration":588234,"SoundDuration":588234,"Delta":44588536},{"NoteNumber":64,"Velocity":39,"Duration":600000,"SoundDuration":600000,"Delta":45176771},{"NoteNumber":74,"Velocity":47,"Duration":600000,"SoundDuration":600000,"Delta":45176771},{"NoteNumber":70,"Velocity":39,"Duration":600000,"SoundDuration":600000,"Delta":45176771},{"NoteNumber":55,"Velocity":37,"Duration":600000,"SoundDuration":600000,"Delta":45176771},{"NoteNumber":43,"Velocity":31,"Duration":600000,"SoundDuration":600000,"Delta":45176771},{"NoteNumber":81,"Velocity":51,"Duration":585366,"SoundDuration":585366,"Delta":45776771},{"NoteNumber":69,"Velocity":43,"Duration":585366,"SoundDuration":585366,"Delta":45776771},{"NoteNumber":72,"Velocity":43,"Duration":585366,"SoundDuration":585366,"Delta":45776771},{"NoteNumber":53,"Velocity":42,"Duration":585366,"SoundDuration":585366,"Delta":45776771},{"NoteNumber":41,"Velocity":35,"Duration":585366,"SoundDuration":585366,"Delta":45776771},{"NoteNumber":70,"Velocity":39,"Duration":600000,"SoundDuration":600000,"Delta":46362137},{"NoteNumber":74,"Velocity":47,"Duration":600000,"SoundDuration":600000,"Delta":46362137},{"NoteNumber":64,"Velocity":39,"Duration":600000,"SoundDuration":600000,"Delta":46362137},{"NoteNumber":55,"Velocity":37,"Duration":600000,"SoundDuration":600000,"Delta":46362137},{"NoteNumber":43,"Velocity":31,"Duration":600000,"SoundDuration":600000,"Delta":46362137},{"NoteNumber":69,"Velocity":47,"Duration":591132,"SoundDuration":591132,"Delta":46962137},{"NoteNumber":77,"Velocity":56,"Duration":295566,"SoundDuration":295566,"Delta":46962137},{"NoteNumber":65,"Velocity":47,"Duration":591132,"SoundDuration":591132,"Delta":46962137},{"NoteNumber":50,"Velocity":44,"Duration":591132,"SoundDuration":591132,"Delta":46962137},{"NoteNumber":38,"Velocity":37,"Duration":591132,"SoundDuration":591132,"Delta":46962137},{"NoteNumber":72,"Velocity":51,"Duration":295566,"SoundDuration":295566,"Delta":47257703},{"NoteNumber":70,"Velocity":45,"Duration":591132,"SoundDuration":591132,"Delta":47553270},{"NoteNumber":65,"Velocity":45,"Duration":591132,"SoundDuration":591132,"Delta":47553270},{"NoteNumber":74,"Velocity":54,"Duration":591132,"SoundDuration":591132,"Delta":47553270},{"NoteNumber":55,"Velocity":41,"Duration":591132,"SoundDuration":591132,"Delta":47553270},{"NoteNumber":43,"Velocity":34,"Duration":591132,"SoundDuration":591132,"Delta":47553270},{"NoteNumber":69,"Velocity":44,"Duration":594305,"SoundDuration":594305,"Delta":48144403},{"NoteNumber":65,"Velocity":44,"Duration":594305,"SoundDuration":594305,"Delta":48144403},{"NoteNumber":77,"Velocity":52,"Duration":594305,"SoundDuration":594305,"Delta":48144403},{"NoteNumber":50,"Velocity":44,"Duration":594305,"SoundDuration":594305,"Delta":48144403},{"NoteNumber":38,"Velocity":37,"Duration":594305,"SoundDuration":594305,"Delta":48144403},{"NoteNumber":70,"Velocity":39,"Duration":603014,"SoundDuration":603014,"Delta":48738708},{"NoteNumber":74,"Velocity":47,"Duration":603014,"SoundDuration":603014,"Delta":48738708},{"NoteNumber":65,"Velocity":39,"Duration":603014,"SoundDuration":603014,"Delta":48738708},{"NoteNumber":55,"Velocity":35,"Duration":603014,"SoundDuration":603014,"Delta":48738708},{"NoteNumber":43,"Velocity":29,"Duration":603014,"SoundDuration":603014,"Delta":48738708},{"NoteNumber":69,"Velocity":45,"Duration":586828,"SoundDuration":586828,"Delta":49341723},{"NoteNumber":77,"Velocity":54,"Duration":291262,"SoundDuration":291262,"Delta":49341723},{"NoteNumber":65,"Velocity":45,"Duration":586828,"SoundDuration":586828,"Delta":49341723},{"NoteNumber":50,"Velocity":44,"Duration":586828,"SoundDuration":586828,"Delta":49341723},{"NoteNumber":38,"Velocity":37,"Duration":586828,"SoundDuration":586828,"Delta":49341723},{"NoteNumber":72,"Velocity":51,"Duration":295566,"SoundDuration":295566,"Delta":49632985},{"NoteNumber":70,"Velocity":44,"Duration":565326,"SoundDuration":565326,"Delta":49928552},{"NoteNumber":65,"Velocity":44,"Duration":565326,"SoundDuration":565326,"Delta":49928552},{"NoteNumber":74,"Velocity":52,"Duration":565326,"SoundDuration":565326,"Delta":49928552},{"NoteNumber":55,"Velocity":40,"Duration":565326,"SoundDuration":565326,"Delta":49928552},{"NoteNumber":43,"Velocity":34,"Duration":565326,"SoundDuration":565326,"Delta":49928552},{"NoteNumber":67,"Velocity":45,"Duration":594059,"SoundDuration":594059,"Delta":50531567},{"NoteNumber":63,"Velocity":45,"Duration":297029,"SoundDuration":297029,"Delta":50531567},{"NoteNumber":72,"Velocity":53,"Duration":594059,"SoundDuration":594059,"Delta":50531567},{"NoteNumber":48,"Velocity":43,"Duration":594059,"SoundDuration":594059,"Delta":50531567},{"NoteNumber":36,"Velocity":36,"Duration":594059,"SoundDuration":594059,"Delta":50531567},{"NoteNumber":64,"Velocity":46,"Duration":297029,"SoundDuration":297029,"Delta":50828596},{"NoteNumber":65,"Velocity":41,"Duration":600000,"SoundDuration":600000,"Delta":51125626},{"NoteNumber":69,"Velocity":49,"Duration":600000,"SoundDuration":600000,"Delta":51125626},{"NoteNumber":60,"Velocity":41,"Duration":600000,"SoundDuration":600000,"Delta":51125626},{"NoteNumber":41,"Velocity":34,"Duration":600000,"SoundDuration":600000,"Delta":51125626},{"NoteNumber":53,"Velocity":41,"Duration":600000,"SoundDuration":600000,"Delta":51125626},{"NoteNumber":70,"Velocity":46,"Duration":600000,"SoundDuration":600000,"Delta":51725626},{"NoteNumber":62,"Velocity":39,"Duration":600000,"SoundDuration":600000,"Delta":51725626},{"NoteNumber":65,"Velocity":39,"Duration":600000,"SoundDuration":600000,"Delta":51725626},{"NoteNumber":43,"Velocity":29,"Duration":600000,"SoundDuration":600000,"Delta":51725626},{"NoteNumber":55,"Velocity":35,"Duration":600000,"SoundDuration":600000,"Delta":51725626},{"NoteNumber":72,"Velocity":54,"Duration":591132,"SoundDuration":591132,"Delta":52325626},{"NoteNumber":63,"Velocity":45,"Duration":295566,"SoundDuration":295566,"Delta":52325626},{"NoteNumber":67,"Velocity":45,"Duration":591132,"SoundDuration":591132,"Delta":52325626},{"NoteNumber":48,"Velocity":42,"Duration":591132,"SoundDuration":591132,"Delta":52325626},{"NoteNumber":36,"Velocity":35,"Duration":591132,"SoundDuration":591132,"Delta":52325626},{"NoteNumber":64,"Velocity":47,"Duration":295566,"SoundDuration":295566,"Delta":52621192},{"NoteNumber":65,"Velocity":41,"Duration":603014,"SoundDuration":603014,"Delta":52916759},{"NoteNumber":60,"Velocity":41,"Duration":603014,"SoundDuration":603014,"Delta":52916759},{"NoteNumber":69,"Velocity":49,"Duration":603014,"SoundDuration":603014,"Delta":52916759},{"NoteNumber":41,"Velocity":34,"Duration":603014,"SoundDuration":603014,"Delta":52916759},{"NoteNumber":53,"Velocity":40,"Duration":603014,"SoundDuration":603014,"Delta":52916759},{"NoteNumber":62,"Velocity":47,"Duration":584027,"SoundDuration":584027,"Delta":53519774},{"NoteNumber":65,"Velocity":47,"Duration":584027,"SoundDuration":584027,"Delta":53519774},{"NoteNumber":70,"Velocity":56,"Duration":295566,"SoundDuration":295566,"Delta":53519774},{"NoteNumber":55,"Velocity":41,"Duration":584027,"SoundDuration":584027,"Delta":53519774},{"NoteNumber":43,"Velocity":34,"Duration":584027,"SoundDuration":584027,"Delta":53519774},{"NoteNumber":74,"Velocity":52,"Duration":288461,"SoundDuration":288461,"Delta":53815340},{"NoteNumber":67,"Velocity":47,"Duration":591132,"SoundDuration":591132,"Delta":54103802},{"NoteNumber":64,"Velocity":47,"Duration":591132,"SoundDuration":591132,"Delta":54103802},{"NoteNumber":72,"Velocity":56,"Duration":591132,"SoundDuration":591132,"Delta":54103802},{"NoteNumber":48,"Velocity":42,"Duration":591132,"SoundDuration":591132,"Delta":54103802},{"NoteNumber":36,"Velocity":35,"Duration":591132,"SoundDuration":591132,"Delta":54103802},{"NoteNumber":62,"Velocity":39,"Duration":591132,"SoundDuration":591132,"Delta":54694935},{"NoteNumber":69,"Velocity":46,"Duration":591132,"SoundDuration":591132,"Delta":54694935},{"NoteNumber":65,"Velocity":39,"Duration":591132,"SoundDuration":591132,"Delta":54694935},{"NoteNumber":60,"Velocity":39,"Duration":591132,"SoundDuration":591132,"Delta":54694935},{"NoteNumber":41,"Velocity":35,"Duration":591132,"SoundDuration":591132,"Delta":54694935},{"NoteNumber":64,"Velocity":43,"Duration":573979,"SoundDuration":573979,"Delta":55286068},{"NoteNumber":72,"Velocity":51,"Duration":573979,"SoundDuration":573979,"Delta":55286068},{"NoteNumber":67,"Velocity":43,"Duration":573979,"SoundDuration":573979,"Delta":55286068},{"NoteNumber":48,"Velocity":39,"Duration":573979,"SoundDuration":573979,"Delta":55286068},{"NoteNumber":36,"Velocity":33,"Duration":573979,"SoundDuration":573979,"Delta":55286068},{"NoteNumber":65,"Velocity":74,"Duration":591132,"SoundDuration":591132,"Delta":55898313},{"NoteNumber":77,"Velocity":88,"Duration":591132,"SoundDuration":591132,"Delta":55898313},{"NoteNumber":41,"Velocity":67,"Duration":591132,"SoundDuration":591132,"Delta":55898313},{"NoteNumber":29,"Velocity":56,"Duration":591132,"SoundDuration":591132,"Delta":55898313},{"NoteNumber":67,"Velocity":69,"Duration":289855,"SoundDuration":289855,"Delta":56489446},{"NoteNumber":75,"Velocity":82,"Duration":289855,"SoundDuration":289855,"Delta":56489446},{"NoteNumber":70,"Velocity":69,"Duration":289855,"SoundDuration":289855,"Delta":56489446},{"NoteNumber":63,"Velocity":69,"Duration":289855,"SoundDuration":289855,"Delta":56489446},{"NoteNumber":43,"Velocity":67,"Duration":586884,"SoundDuration":586884,"Delta":56489446},{"NoteNumber":31,"Velocity":56,"Duration":586884,"SoundDuration":586884,"Delta":56489446},{"NoteNumber":62,"Velocity":66,"Duration":297029,"SoundDuration":297029,"Delta":56779301},{"NoteNumber":74,"Velocity":78,"Duration":297029,"SoundDuration":297029,"Delta":56779301},{"NoteNumber":65,"Velocity":63,"Duration":292682,"SoundDuration":292682,"Delta":57076330},{"NoteNumber":72,"Velocity":75,"Duration":292682,"SoundDuration":292682,"Delta":57076330},{"NoteNumber":69,"Velocity":63,"Duration":292682,"SoundDuration":292682,"Delta":57076330},{"NoteNumber":60,"Velocity":63,"Duration":292682,"SoundDuration":292682,"Delta":57076330},{"NoteNumber":45,"Velocity":62,"Duration":292682,"SoundDuration":292682,"Delta":57076330},{"NoteNumber":33,"Velocity":52,"Duration":292682,"SoundDuration":292682,"Delta":57076330},{"NoteNumber":62,"Velocity":60,"Duration":297029,"SoundDuration":297029,"Delta":57369013},{"NoteNumber":70,"Velocity":71,"Duration":297029,"SoundDuration":297029,"Delta":57369013},{"NoteNumber":65,"Velocity":60,"Duration":297029,"SoundDuration":297029,"Delta":57369013},{"NoteNumber":46,"Velocity":56,"Duration":297029,"SoundDuration":297029,"Delta":57369013},{"NoteNumber":34,"Velocity":47,"Duration":297029,"SoundDuration":297029,"Delta":57369013},{"NoteNumber":65,"Velocity":69,"Duration":594059,"SoundDuration":594059,"Delta":57666043},{"NoteNumber":60,"Velocity":69,"Duration":594059,"SoundDuration":594059,"Delta":57666043},{"NoteNumber":72,"Velocity":82,"Duration":594059,"SoundDuration":594059,"Delta":57666043},{"NoteNumber":45,"Velocity":64,"Duration":594059,"SoundDuration":594059,"Delta":57666043},{"NoteNumber":33,"Velocity":54,"Duration":594059,"SoundDuration":594059,"Delta":57666043},{"NoteNumber":65,"Velocity":71,"Duration":594059,"SoundDuration":594059,"Delta":58260102},{"NoteNumber":62,"Velocity":71,"Duration":594059,"SoundDuration":594059,"Delta":58260102},{"NoteNumber":74,"Velocity":84,"Duration":594059,"SoundDuration":594059,"Delta":58260102},{"NoteNumber":34,"Velocity":56,"Duration":594059,"SoundDuration":594059,"Delta":58260102},{"NoteNumber":46,"Velocity":66,"Duration":594059,"SoundDuration":594059,"Delta":58260102},{"NoteNumber":69,"Velocity":73,"Duration":594059,"SoundDuration":594059,"Delta":58854161},{"NoteNumber":77,"Velocity":86,"Duration":594059,"SoundDuration":594059,"Delta":58854161},{"NoteNumber":72,"Velocity":73,"Duration":594059,"SoundDuration":594059,"Delta":58854161},{"NoteNumber":65,"Velocity":73,"Duration":594059,"SoundDuration":594059,"Delta":58854161},{"NoteNumber":45,"Velocity":66,"Duration":594059,"SoundDuration":594059,"Delta":58854161},{"NoteNumber":33,"Velocity":56,"Duration":594059,"SoundDuration":594059,"Delta":58854161},{"NoteNumber":67,"Velocity":76,"Duration":299999,"SoundDuration":299999,"Delta":59448220},{"NoteNumber":79,"Velocity":90,"Duration":299999,"SoundDuration":299999,"Delta":59448220},{"NoteNumber":75,"Velocity":76,"Duration":299999,"SoundDuration":299999,"Delta":59448220},{"NoteNumber":70,"Velocity":76,"Duration":299999,"SoundDuration":299999,"Delta":59448220},{"NoteNumber":43,"Velocity":63,"Duration":600000,"SoundDuration":600000,"Delta":59448220},{"NoteNumber":31,"Velocity":53,"Duration":600000,"SoundDuration":600000,"Delta":59448220},{"NoteNumber":82,"Velocity":82,"Duration":300000,"SoundDuration":300000,"Delta":59748220},{"NoteNumber":70,"Velocity":69,"Duration":300000,"SoundDuration":300000,"Delta":59748220},{"NoteNumber":65,"Velocity":74,"Duration":562500,"SoundDuration":562500,"Delta":60048220},{"NoteNumber":77,"Velocity":88,"Duration":562500,"SoundDuration":562500,"Delta":60048220},{"NoteNumber":29,"Velocity":56,"Duration":562500,"SoundDuration":562500,"Delta":60048220},{"NoteNumber":41,"Velocity":66,"Duration":562500,"SoundDuration":562500,"Delta":60048220},{"NoteNumber":67,"Velocity":78,"Duration":599999,"SoundDuration":599999,"Delta":60648220},{"NoteNumber":79,"Velocity":92,"Duration":599999,"SoundDuration":599999,"Delta":60648220},{"NoteNumber":43,"Velocity":67,"Duration":599999,"SoundDuration":599999,"Delta":60648220},{"NoteNumber":31,"Velocity":56,"Duration":599999,"SoundDuration":599999,"Delta":60648220},{"NoteNumber":77,"Velocity":89,"Duration":600000,"SoundDuration":600000,"Delta":61248220},{"NoteNumber":65,"Velocity":75,"Duration":600000,"SoundDuration":600000,"Delta":61248220},{"NoteNumber":41,"Velocity":67,"Duration":600000,"SoundDuration":600000,"Delta":61248220},{"NoteNumber":29,"Velocity":56,"Duration":600000,"SoundDuration":600000,"Delta":61248220},{"NoteNumber":70,"Velocity":68,"Duration":285714,"SoundDuration":285714,"Delta":61848220},{"NoteNumber":63,"Velocity":68,"Duration":285714,"SoundDuration":285714,"Delta":61848220},{"NoteNumber":67,"Velocity":68,"Duration":285714,"SoundDuration":285714,"Delta":61848220},{"NoteNumber":75,"Velocity":81,"Duration":285714,"SoundDuration":285714,"Delta":61848220},{"NoteNumber":31,"Velocity":53,"Duration":575569,"SoundDuration":575569,"Delta":61848220},{"NoteNumber":43,"Velocity":63,"Duration":575569,"SoundDuration":575569,"Delta":61848220},{"NoteNumber":74,"Velocity":71,"Duration":289855,"SoundDuration":289855,"Delta":62133934},{"NoteNumber":62,"Velocity":60,"Duration":289855,"SoundDuration":289855,"Delta":62133934},{"NoteNumber":60,"Velocity":62,"Duration":285714,"SoundDuration":285714,"Delta":62423789},{"NoteNumber":72,"Velocity":73,"Duration":285714,"SoundDuration":285714,"Delta":62423789},{"NoteNumber":65,"Velocity":62,"Duration":285714,"SoundDuration":285714,"Delta":62423789},{"NoteNumber":69,"Velocity":62,"Duration":285714,"SoundDuration":285714,"Delta":62423789},{"NoteNumber":45,"Velocity":62,"Duration":285714,"SoundDuration":285714,"Delta":62423789},{"NoteNumber":33,"Velocity":52,"Duration":285714,"SoundDuration":285714,"Delta":62423789},{"NoteNumber":70,"Velocity":71,"Duration":292682,"SoundDuration":292682,"Delta":62709504},{"NoteNumber":62,"Velocity":60,"Duration":292682,"SoundDuration":292682,"Delta":62709504},{"NoteNumber":65,"Velocity":60,"Duration":292682,"SoundDuration":292682,"Delta":62709504},{"NoteNumber":46,"Velocity":55,"Duration":292682,"SoundDuration":292682,"Delta":62709504},{"NoteNumber":34,"Velocity":46,"Duration":292682,"SoundDuration":292682,"Delta":62709504},{"NoteNumber":72,"Velocity":75,"Duration":585366,"SoundDuration":585366,"Delta":63002187},{"NoteNumber":60,"Velocity":63,"Duration":585366,"SoundDuration":585366,"Delta":63002187},{"NoteNumber":65,"Velocity":63,"Duration":585366,"SoundDuration":585366,"Delta":63002187},{"NoteNumber":45,"Velocity":62,"Duration":585366,"SoundDuration":585366,"Delta":63002187},{"NoteNumber":33,"Velocity":52,"Duration":585366,"SoundDuration":585366,"Delta":63002187},{"NoteNumber":74,"Velocity":90,"Duration":603014,"SoundDuration":603014,"Delta":63587553},{"NoteNumber":65,"Velocity":76,"Duration":603014,"SoundDuration":603014,"Delta":63587553},{"NoteNumber":62,"Velocity":76,"Duration":603014,"SoundDuration":603014,"Delta":63587553},{"NoteNumber":34,"Velocity":57,"Duration":603014,"SoundDuration":603014,"Delta":63587553},{"NoteNumber":46,"Velocity":68,"Duration":603014,"SoundDuration":603014,"Delta":63587553},{"NoteNumber":72,"Velocity":74,"Duration":603014,"SoundDuration":603014,"Delta":64190568},{"NoteNumber":77,"Velocity":88,"Duration":603014,"SoundDuration":603014,"Delta":64190568},{"NoteNumber":69,"Velocity":74,"Duration":603014,"SoundDuration":603014,"Delta":64190568},{"NoteNumber":65,"Velocity":74,"Duration":603014,"SoundDuration":603014,"Delta":64190568},{"NoteNumber":33,"Velocity":57,"Duration":603014,"SoundDuration":603014,"Delta":64190568},{"NoteNumber":45,"Velocity":68,"Duration":603014,"SoundDuration":603014,"Delta":64190568},{"NoteNumber":75,"Velocity":77,"Duration":297029,"SoundDuration":297029,"Delta":64793583},{"NoteNumber":67,"Velocity":77,"Duration":297029,"SoundDuration":297029,"Delta":64793583},{"NoteNumber":70,"Velocity":77,"Duration":297029,"SoundDuration":297029,"Delta":64793583},{"NoteNumber":79,"Velocity":91,"Duration":297029,"SoundDuration":297029,"Delta":64793583},{"NoteNumber":31,"Velocity":58,"Duration":596534,"SoundDuration":596534,"Delta":64793583},{"NoteNumber":43,"Velocity":69,"Duration":596534,"SoundDuration":596534,"Delta":64793583},{"NoteNumber":82,"Velocity":82,"Duration":299504,"SoundDuration":299504,"Delta":65090612},{"NoteNumber":70,"Velocity":69,"Duration":299504,"SoundDuration":299504,"Delta":65090612},{"NoteNumber":65,"Velocity":74,"Duration":562500,"SoundDuration":562500,"Delta":65390117},{"NoteNumber":77,"Velocity":88,"Duration":562500,"SoundDuration":562500,"Delta":65390117},{"NoteNumber":29,"Velocity":56,"Duration":562500,"SoundDuration":562500,"Delta":65390117},{"NoteNumber":41,"Velocity":66,"Duration":562500,"SoundDuration":562500,"Delta":65390117},{"NoteNumber":67,"Velocity":77,"Duration":599999,"SoundDuration":599999,"Delta":65990117},{"NoteNumber":79,"Velocity":91,"Duration":599999,"SoundDuration":599999,"Delta":65990117},{"NoteNumber":43,"Velocity":69,"Duration":599999,"SoundDuration":599999,"Delta":65990117},{"NoteNumber":31,"Velocity":58,"Duration":599999,"SoundDuration":599999,"Delta":65990117},{"NoteNumber":77,"Velocity":88,"Duration":587500,"SoundDuration":587500,"Delta":66590117},{"NoteNumber":65,"Velocity":74,"Duration":587500,"SoundDuration":587500,"Delta":66590117},{"NoteNumber":29,"Velocity":56,"Duration":587500,"SoundDuration":587500,"Delta":66590117},{"NoteNumber":41,"Velocity":66,"Duration":587500,"SoundDuration":587500,"Delta":66590117},{"NoteNumber":67,"Velocity":93,"Duration":599999,"SoundDuration":599999,"Delta":67190117},{"NoteNumber":55,"Velocity":69,"Duration":599999,"SoundDuration":599999,"Delta":67190117},{"NoteNumber":65,"Velocity":90,"Duration":588234,"SoundDuration":588234,"Delta":67790117},{"NoteNumber":53,"Velocity":68,"Duration":588234,"SoundDuration":588234,"Delta":67790117},{"NoteNumber":72,"Velocity":77,"Duration":297029,"SoundDuration":297029,"Delta":68378352},{"NoteNumber":67,"Velocity":77,"Duration":297029,"SoundDuration":297029,"Delta":68378352},{"NoteNumber":76,"Velocity":77,"Duration":297029,"SoundDuration":297029,"Delta":68378352},{"NoteNumber":79,"Velocity":91,"Duration":297029,"SoundDuration":297029,"Delta":68378352},{"NoteNumber":36,"Velocity":56,"Duration":598536,"SoundDuration":598536,"Delta":68378352},{"NoteNumber":48,"Velocity":67,"Duration":598536,"SoundDuration":598536,"Delta":68378352},{"NoteNumber":70,"Velocity":65,"Duration":301507,"SoundDuration":301507,"Delta":68675382},{"NoteNumber":82,"Velocity":77,"Duration":301507,"SoundDuration":301507,"Delta":68675382},{"NoteNumber":77,"Velocity":85,"Duration":571065,"SoundDuration":571065,"Delta":68976889},{"NoteNumber":65,"Velocity":72,"Duration":571065,"SoundDuration":571065,"Delta":68976889},{"NoteNumber":29,"Velocity":51,"Duration":571065,"SoundDuration":571065,"Delta":68976889},{"NoteNumber":41,"Velocity":61,"Duration":571065,"SoundDuration":571065,"Delta":68976889},{"NoteNumber":79,"Velocity":92,"Duration":599999,"SoundDuration":599999,"Delta":69586026},{"NoteNumber":67,"Velocity":78,"Duration":599999,"SoundDuration":599999,"Delta":69586026},{"NoteNumber":31,"Velocity":52,"Duration":599999,"SoundDuration":599999,"Delta":69586026},{"NoteNumber":43,"Velocity":62,"Duration":599999,"SoundDuration":599999,"Delta":69586026},{"NoteNumber":77,"Velocity":90,"Duration":585937,"SoundDuration":585937,"Delta":70186026},{"NoteNumber":65,"Velocity":76,"Duration":585937,"SoundDuration":585937,"Delta":70186026},{"NoteNumber":29,"Velocity":56,"Duration":585937,"SoundDuration":585937,"Delta":70186026},{"NoteNumber":41,"Velocity":67,"Duration":585937,"SoundDuration":585937,"Delta":70186026},{"NoteNumber":58,"Velocity":74,"Duration":609137,"SoundDuration":609137,"Delta":70811026},{"NoteNumber":63,"Velocity":74,"Duration":609137,"SoundDuration":609137,"Delta":70811026},{"NoteNumber":67,"Velocity":88,"Duration":609137,"SoundDuration":609137,"Delta":70811026},{"NoteNumber":39,"Velocity":56,"Duration":609137,"SoundDuration":609137,"Delta":70811026},{"NoteNumber":51,"Velocity":67,"Duration":609137,"SoundDuration":609137,"Delta":70811026},{"NoteNumber":57,"Velocity":74,"Duration":609136,"SoundDuration":609136,"Delta":71420163},{"NoteNumber":60,"Velocity":74,"Duration":609136,"SoundDuration":609136,"Delta":71420163},{"NoteNumber":65,"Velocity":88,"Duration":609136,"SoundDuration":609136,"Delta":71420163},{"NoteNumber":41,"Velocity":56,"Duration":609136,"SoundDuration":609136,"Delta":71420163},{"NoteNumber":53,"Velocity":67,"Duration":609136,"SoundDuration":609136,"Delta":71420163},{"NoteNumber":58,"Velocity":78,"Duration":599999,"SoundDuration":599999,"Delta":72029300},{"NoteNumber":65,"Velocity":78,"Duration":599999,"SoundDuration":599999,"Delta":72029300},{"NoteNumber":70,"Velocity":92,"Duration":599999,"SoundDuration":599999,"Delta":72029300},{"NoteNumber":38,"Velocity":56,"Duration":599999,"SoundDuration":599999,"Delta":72029300},{"NoteNumber":50,"Velocity":66,"Duration":599999,"SoundDuration":599999,"Delta":72029300},{"NoteNumber":60,"Velocity":72,"Duration":292682,"SoundDuration":292682,"Delta":72629300},{"NoteNumber":72,"Velocity":85,"Duration":292682,"SoundDuration":292682,"Delta":72629300},{"NoteNumber":65,"Velocity":72,"Duration":292682,"SoundDuration":292682,"Delta":72629300},{"NoteNumber":69,"Velocity":72,"Duration":292682,"SoundDuration":292682,"Delta":72629300},{"NoteNumber":36,"Velocity":57,"Duration":601961,"SoundDuration":601961,"Delta":72629300},{"NoteNumber":48,"Velocity":68,"Duration":601961,"SoundDuration":601961,"Delta":72629300},{"NoteNumber":65,"Velocity":68,"Duration":309278,"SoundDuration":309278,"Delta":72921983},{"NoteNumber":77,"Velocity":80,"Duration":309278,"SoundDuration":309278,"Delta":72921983},{"NoteNumber":65,"Velocity":73,"Duration":609137,"SoundDuration":609137,"Delta":73231262},{"NoteNumber":62,"Velocity":73,"Duration":609137,"SoundDuration":609137,"Delta":73231262},{"NoteNumber":70,"Velocity":73,"Duration":609137,"SoundDuration":609137,"Delta":73231262},{"NoteNumber":74,"Velocity":86,"Duration":609137,"SoundDuration":609137,"Delta":73231262},{"NoteNumber":46,"Velocity":62,"Duration":609137,"SoundDuration":609137,"Delta":73231262},{"NoteNumber":34,"Velocity":52,"Duration":609137,"SoundDuration":609137,"Delta":73231262},{"NoteNumber":60,"Velocity":72,"Duration":299999,"SoundDuration":299999,"Delta":73840399},{"NoteNumber":72,"Velocity":85,"Duration":299999,"SoundDuration":299999,"Delta":73840399},{"NoteNumber":65,"Velocity":72,"Duration":299999,"SoundDuration":299999,"Delta":73840399},{"NoteNumber":69,"Velocity":72,"Duration":299999,"SoundDuration":299999,"Delta":73840399},{"NoteNumber":45,"Velocity":68,"Duration":599999,"SoundDuration":599999,"Delta":73840399},{"NoteNumber":33,"Velocity":57,"Duration":599999,"SoundDuration":599999,"Delta":73840399},{"NoteNumber":77,"Velocity":78,"Duration":299999,"SoundDuration":299999,"Delta":74140399},{"NoteNumber":65,"Velocity":66,"Duration":299999,"SoundDuration":299999,"Delta":74140399},{"NoteNumber":70,"Velocity":72,"Duration":609137,"SoundDuration":609137,"Delta":74440399},{"NoteNumber":74,"Velocity":85,"Duration":609137,"SoundDuration":609137,"Delta":74440399},{"NoteNumber":65,"Velocity":72,"Duration":609137,"SoundDuration":609137,"Delta":74440399},{"NoteNumber":62,"Velocity":72,"Duration":609137,"SoundDuration":609137,"Delta":74440399},{"NoteNumber":43,"Velocity":62,"Duration":609137,"SoundDuration":609137,"Delta":74440399},{"NoteNumber":31,"Velocity":52,"Duration":609137,"SoundDuration":609137,"Delta":74440399},{"NoteNumber":65,"Velocity":72,"Duration":609136,"SoundDuration":609136,"Delta":75049536},{"NoteNumber":58,"Velocity":72,"Duration":609136,"SoundDuration":609136,"Delta":75049536},{"NoteNumber":62,"Velocity":72,"Duration":609136,"SoundDuration":609136,"Delta":75049536},{"NoteNumber":70,"Velocity":85,"Duration":609136,"SoundDuration":609136,"Delta":75049536},{"NoteNumber":55,"Velocity":62,"Duration":609136,"SoundDuration":609136,"Delta":75049536},{"NoteNumber":43,"Velocity":52,"Duration":609136,"SoundDuration":609136,"Delta":75049536},{"NoteNumber":63,"Velocity":71,"Duration":609137,"SoundDuration":609137,"Delta":75658673},{"NoteNumber":72,"Velocity":84,"Duration":609137,"SoundDuration":609137,"Delta":75658673},{"NoteNumber":67,"Velocity":71,"Duration":609137,"SoundDuration":609137,"Delta":75658673},{"NoteNumber":60,"Velocity":71,"Duration":609137,"SoundDuration":609137,"Delta":75658673},{"NoteNumber":48,"Velocity":64,"Duration":609137,"SoundDuration":609137,"Delta":75658673},{"NoteNumber":36,"Velocity":54,"Duration":609137,"SoundDuration":609137,"Delta":75658673},{"NoteNumber":55,"Velocity":66,"Duration":609137,"SoundDuration":609137,"Delta":76267810},{"NoteNumber":67,"Velocity":78,"Duration":609137,"SoundDuration":609137,"Delta":76267810},{"NoteNumber":60,"Velocity":66,"Duration":609137,"SoundDuration":609137,"Delta":76267810},{"NoteNumber":64,"Velocity":66,"Duration":609137,"SoundDuration":609137,"Delta":76267810},{"NoteNumber":40,"Velocity":49,"Duration":609137,"SoundDuration":609137,"Delta":76267810},{"NoteNumber":52,"Velocity":58,"Duration":609137,"SoundDuration":609137,"Delta":76267810},{"NoteNumber":57,"Velocity":66,"Duration":582901,"SoundDuration":582901,"Delta":76876947},{"NoteNumber":60,"Velocity":66,"Duration":582901,"SoundDuration":582901,"Delta":76876947},{"NoteNumber":65,"Velocity":78,"Duration":582901,"SoundDuration":582901,"Delta":76876947},{"NoteNumber":53,"Velocity":57,"Duration":582901,"SoundDuration":582901,"Delta":76876947},{"NoteNumber":41,"Velocity":48,"Duration":582901,"SoundDuration":582901,"Delta":76876947},{"NoteNumber":55,"Velocity":78,"Duration":609137,"SoundDuration":609137,"Delta":77498709},{"NoteNumber":62,"Velocity":78,"Duration":609137,"SoundDuration":609137,"Delta":77498709},{"NoteNumber":67,"Velocity":92,"Duration":609137,"SoundDuration":609137,"Delta":77498709},{"NoteNumber":46,"Velocity":69,"Duration":609137,"SoundDuration":609137,"Delta":77498709},{"NoteNumber":34,"Velocity":58,"Duration":609137,"SoundDuration":609137,"Delta":77498709},{"NoteNumber":57,"Velocity":77,"Duration":609136,"SoundDuration":609136,"Delta":78107846},{"NoteNumber":60,"Velocity":77,"Duration":609136,"SoundDuration":609136,"Delta":78107846},{"NoteNumber":65,"Velocity":91,"Duration":609136,"SoundDuration":609136,"Delta":78107846},{"NoteNumber":45,"Velocity":66,"Duration":609136,"SoundDuration":609136,"Delta":78107846},{"NoteNumber":33,"Velocity":56,"Duration":609136,"SoundDuration":609136,"Delta":78107846},{"NoteNumber":58,"Velocity":77,"Duration":609137,"SoundDuration":609137,"Delta":78716983},{"NoteNumber":70,"Velocity":91,"Duration":609137,"SoundDuration":609137,"Delta":78716983},{"NoteNumber":65,"Velocity":77,"Duration":609137,"SoundDuration":609137,"Delta":78716983},{"NoteNumber":43,"Velocity":67,"Duration":609137,"SoundDuration":609137,"Delta":78716983},{"NoteNumber":31,"Velocity":56,"Duration":609137,"SoundDuration":609137,"Delta":78716983},{"NoteNumber":65,"Velocity":72,"Duration":310880,"SoundDuration":310880,"Delta":79326120},{"NoteNumber":69,"Velocity":72,"Duration":310880,"SoundDuration":310880,"Delta":79326120},{"NoteNumber":60,"Velocity":72,"Duration":310880,"SoundDuration":310880,"Delta":79326120},{"NoteNumber":72,"Velocity":85,"Duration":310880,"SoundDuration":310880,"Delta":79326120},{"NoteNumber":41,"Velocity":68,"Duration":621762,"SoundDuration":621762,"Delta":79326120},{"NoteNumber":29,"Velocity":57,"Duration":621762,"SoundDuration":621762,"Delta":79326120},{"NoteNumber":77,"Velocity":78,"Duration":310881,"SoundDuration":310881,"Delta":79637001},{"NoteNumber":65,"Velocity":66,"Duration":310881,"SoundDuration":310881,"Delta":79637001},{"NoteNumber":70,"Velocity":72,"Duration":609137,"SoundDuration":609137,"Delta":79947882},{"NoteNumber":74,"Velocity":85,"Duration":609137,"SoundDuration":609137,"Delta":79947882},{"NoteNumber":65,"Velocity":72,"Duration":609137,"SoundDuration":609137,"Delta":79947882},{"NoteNumber":62,"Velocity":72,"Duration":609137,"SoundDuration":609137,"Delta":79947882},{"NoteNumber":46,"Velocity":64,"Duration":609137,"SoundDuration":609137,"Delta":79947882},{"NoteNumber":34,"Velocity":54,"Duration":609137,"SoundDuration":609137,"Delta":79947882},{"NoteNumber":62,"Velocity":76,"Duration":625000,"SoundDuration":625000,"Delta":80557019},{"NoteNumber":58,"Velocity":76,"Duration":625000,"SoundDuration":625000,"Delta":80557019},{"NoteNumber":70,"Velocity":90,"Duration":625000,"SoundDuration":625000,"Delta":80557019},{"NoteNumber":67,"Velocity":76,"Duration":625000,"SoundDuration":625000,"Delta":80557019},{"NoteNumber":55,"Velocity":68,"Duration":625000,"SoundDuration":625000,"Delta":80557019},{"NoteNumber":43,"Velocity":57,"Duration":625000,"SoundDuration":625000,"Delta":80557019},{"NoteNumber":67,"Velocity":78,"Duration":674156,"SoundDuration":674156,"Delta":81182019},{"NoteNumber":75,"Velocity":92,"Duration":674156,"SoundDuration":674156,"Delta":81182019},{"NoteNumber":72,"Velocity":78,"Duration":674156,"SoundDuration":674156,"Delta":81182019},{"NoteNumber":63,"Velocity":78,"Duration":674156,"SoundDuration":674156,"Delta":81182019},{"NoteNumber":48,"Velocity":64,"Duration":674156,"SoundDuration":674156,"Delta":81182019},{"NoteNumber":36,"Velocity":54,"Duration":674156,"SoundDuration":674156,"Delta":81182019},{"NoteNumber":60,"Velocity":72,"Duration":718563,"SoundDuration":718563,"Delta":81856176},{"NoteNumber":72,"Velocity":85,"Duration":718563,"SoundDuration":718563,"Delta":81856176},{"NoteNumber":65,"Velocity":72,"Duration":718563,"SoundDuration":718563,"Delta":81856176},{"NoteNumber":69,"Velocity":72,"Duration":718563,"SoundDuration":718563,"Delta":81856176},{"NoteNumber":53,"Velocity":60,"Duration":718563,"SoundDuration":718563,"Delta":81856176},{"NoteNumber":41,"Velocity":51,"Duration":718563,"SoundDuration":718563,"Delta":81856176},{"NoteNumber":70,"Velocity":86,"Duration":1153846,"SoundDuration":1153846,"Delta":82574739},{"NoteNumber":62,"Velocity":73,"Duration":1153846,"SoundDuration":1153846,"Delta":82574739},{"NoteNumber":65,"Velocity":73,"Duration":1153846,"SoundDuration":1153846,"Delta":82574739},{"NoteNumber":58,"Velocity":62,"Duration":1153846,"SoundDuration":1153846,"Delta":82574739},{"NoteNumber":46,"Velocity":52,"Duration":1153846,"SoundDuration":1153846,"Delta":82574739},{"NoteNumber":59,"Velocity":92,"Duration":116666,"SoundDuration":116666,"Delta":83728585},{"NoteNumber":47,"Velocity":80,"Duration":116666,"SoundDuration":116666,"Delta":83728585},{"NoteNumber":51,"Velocity":83,"Duration":116393,"SoundDuration":116393,"Delta":83828585},{"NoteNumber":39,"Velocity":75,"Duration":116393,"SoundDuration":116393,"Delta":83828585},{"NoteNumber":50,"Velocity":74,"Duration":115027,"SoundDuration":115027,"Delta":83928585},{"NoteNumber":38,"Velocity":70,"Duration":115027,"SoundDuration":115027,"Delta":83928585},{"NoteNumber":59,"Velocity":87,"Duration":116891,"SoundDuration":116891,"Delta":84026945},{"NoteNumber":47,"Velocity":76,"Duration":116891,"SoundDuration":116891,"Delta":84026945},{"NoteNumber":58,"Velocity":85,"Duration":118772,"SoundDuration":118772,"Delta":84126945},{"NoteNumber":46,"Velocity":74,"Duration":118772,"SoundDuration":118772,"Delta":84126945},{"NoteNumber":50,"Velocity":81,"Duration":121196,"SoundDuration":121196,"Delta":84228297},{"NoteNumber":38,"Velocity":70,"Duration":121196,"SoundDuration":121196,"Delta":84228297},{"NoteNumber":54,"Velocity":91,"Duration":1482352,"SoundDuration":1482352,"Delta":84332826},{"NoteNumber":42,"Velocity":80,"Duration":1482352,"SoundDuration":1482352,"Delta":84332826},{"NoteNumber":59,"Velocity":55,"Duration":140000,"SoundDuration":140000,"Delta":85991649},{"NoteNumber":47,"Velocity":48,"Duration":140000,"SoundDuration":140000,"Delta":85991649},{"NoteNumber":51,"Velocity":49,"Duration":139607,"SoundDuration":139607,"Delta":86111649},{"NoteNumber":39,"Velocity":45,"Duration":139607,"SoundDuration":139607,"Delta":86111649},{"NoteNumber":50,"Velocity":44,"Duration":139386,"SoundDuration":139386,"Delta":86231649},{"NoteNumber":38,"Velocity":37,"Duration":139386,"SoundDuration":139386,"Delta":86231649},{"NoteNumber":59,"Velocity":52,"Duration":152856,"SoundDuration":152856,"Delta":86349296},{"NoteNumber":47,"Velocity":45,"Duration":152856,"SoundDuration":152856,"Delta":86349296},{"NoteNumber":58,"Velocity":50,"Duration":159039,"SoundDuration":159039,"Delta":86479731},{"NoteNumber":46,"Velocity":44,"Duration":159039,"SoundDuration":159039,"Delta":86479731},{"NoteNumber":50,"Velocity":44,"Duration":164480,"SoundDuration":164480,"Delta":86614260},{"NoteNumber":38,"Velocity":37,"Duration":164480,"SoundDuration":164480,"Delta":86614260},{"NoteNumber":54,"Velocity":50,"Duration":1201889,"SoundDuration":1201889,"Delta":86761319},{"NoteNumber":42,"Velocity":43,"Duration":1201889,"SoundDuration":1201889,"Delta":86761319},{"NoteNumber":59,"Velocity":92,"Duration":116666,"SoundDuration":116666,"Delta":88078151},{"NoteNumber":47,"Velocity":80,"Duration":116666,"SoundDuration":116666,"Delta":88078151},{"NoteNumber":51,"Velocity":83,"Duration":116447,"SoundDuration":116447,"Delta":88178151},{"NoteNumber":39,"Velocity":75,"Duration":116447,"SoundDuration":116447,"Delta":88178151},{"NoteNumber":50,"Velocity":73,"Duration":115295,"SoundDuration":115295,"Delta":88278151},{"NoteNumber":38,"Velocity":65,"Duration":115295,"SoundDuration":115295,"Delta":88278151},{"NoteNumber":59,"Velocity":87,"Duration":116334,"SoundDuration":116334,"Delta":88376835},{"NoteNumber":47,"Velocity":76,"Duration":116334,"SoundDuration":116334,"Delta":88376835},{"NoteNumber":58,"Velocity":80,"Duration":117006,"SoundDuration":117006,"Delta":88476503},{"NoteNumber":46,"Velocity":72,"Duration":117006,"SoundDuration":117006,"Delta":88476503},{"NoteNumber":49,"Velocity":74,"Duration":119164,"SoundDuration":119164,"Delta":88576503},{"NoteNumber":37,"Velocity":63,"Duration":119164,"SoundDuration":119164,"Delta":88576503},{"NoteNumber":52,"Velocity":88,"Duration":102739,"SoundDuration":102739,"Delta":88678544},{"NoteNumber":40,"Velocity":80,"Duration":102739,"SoundDuration":102739,"Delta":88678544},{"NoteNumber":58,"Velocity":77,"Duration":99999,"SoundDuration":99999,"Delta":88884023},{"NoteNumber":46,"Velocity":69,"Duration":99999,"SoundDuration":99999,"Delta":88884023},{"NoteNumber":47,"Velocity":74,"Duration":100000,"SoundDuration":100000,"Delta":88984023},{"NoteNumber":35,"Velocity":63,"Duration":100000,"SoundDuration":100000,"Delta":88984023},{"NoteNumber":51,"Velocity":80,"Duration":102389,"SoundDuration":102389,"Delta":89084023},{"NoteNumber":39,"Velocity":69,"Duration":102389,"SoundDuration":102389,"Delta":89084023},{"NoteNumber":58,"Velocity":78,"Duration":98360,"SoundDuration":98360,"Delta":89288801},{"NoteNumber":46,"Velocity":70,"Duration":98360,"SoundDuration":98360,"Delta":89288801},{"NoteNumber":46,"Velocity":75,"Duration":98360,"SoundDuration":98360,"Delta":89387162},{"NoteNumber":34,"Velocity":67,"Duration":98360,"SoundDuration":98360,"Delta":89387162},{"NoteNumber":50,"Velocity":89,"Duration":151515,"SoundDuration":151515,"Delta":89485523},{"NoteNumber":38,"Velocity":72,"Duration":151515,"SoundDuration":151515,"Delta":89485523},{"NoteNumber":46,"Velocity":85,"Duration":105263,"SoundDuration":105263,"Delta":89687543},{"NoteNumber":34,"Velocity":73,"Duration":105263,"SoundDuration":105263,"Delta":89687543},{"NoteNumber":58,"Velocity":95,"Duration":199312,"SoundDuration":199312,"Delta":89898069},{"NoteNumber":70,"Velocity":95,"Duration":199312,"SoundDuration":199312,"Delta":89898069},{"NoteNumber":46,"Velocity":91,"Duration":199312,"SoundDuration":199312,"Delta":89898069},{"NoteNumber":94,"Velocity":102,"Duration":265486,"SoundDuration":265486,"Delta":90163753},{"NoteNumber":82,"Velocity":102,"Duration":265486,"SoundDuration":265486,"Delta":90163753},{"NoteNumber":70,"Velocity":94,"Duration":265486,"SoundDuration":265486,"Delta":90163753},{"NoteNumber":59,"Velocity":92,"Duration":116666,"SoundDuration":116666,"Delta":91446189},{"NoteNumber":47,"Velocity":80,"Duration":116666,"SoundDuration":116666,"Delta":91446189},{"NoteNumber":51,"Velocity":83,"Duration":116447,"SoundDuration":116447,"Delta":91546189},{"NoteNumber":39,"Velocity":75,"Duration":116447,"SoundDuration":116447,"Delta":91546189},{"NoteNumber":50,"Velocity":76,"Duration":115462,"SoundDuration":115462,"Delta":91646189},{"NoteNumber":38,"Velocity":66,"Duration":115462,"SoundDuration":115462,"Delta":91646189},{"NoteNumber":59,"Velocity":87,"Duration":117393,"SoundDuration":117393,"Delta":91744873},{"NoteNumber":47,"Velocity":76,"Duration":117393,"SoundDuration":117393,"Delta":91744873},{"NoteNumber":58,"Velocity":81,"Duration":117399,"SoundDuration":117399,"Delta":91845544},{"NoteNumber":46,"Velocity":73,"Duration":117399,"SoundDuration":117399,"Delta":91845544},{"NoteNumber":50,"Velocity":78,"Duration":119055,"SoundDuration":119055,"Delta":91945879},{"NoteNumber":38,"Velocity":70,"Duration":119055,"SoundDuration":119055,"Delta":91945879},{"NoteNumber":54,"Velocity":91,"Duration":1482352,"SoundDuration":1482352,"Delta":92048268},{"NoteNumber":42,"Velocity":80,"Duration":1482352,"SoundDuration":1482352,"Delta":92048268},{"NoteNumber":59,"Velocity":92,"Duration":116501,"SoundDuration":116501,"Delta":93707091},{"NoteNumber":47,"Velocity":80,"Duration":116501,"SoundDuration":116501,"Delta":93707091},{"NoteNumber":51,"Velocity":83,"Duration":115511,"SoundDuration":115511,"Delta":93807091},{"NoteNumber":39,"Velocity":75,"Duration":115511,"SoundDuration":115511,"Delta":93807091},{"NoteNumber":50,"Velocity":75,"Duration":115732,"SoundDuration":115732,"Delta":93906101},{"NoteNumber":38,"Velocity":67,"Duration":115732,"SoundDuration":115732,"Delta":93906101},{"NoteNumber":59,"Velocity":85,"Duration":117056,"SoundDuration":117056,"Delta":94005111},{"NoteNumber":47,"Velocity":76,"Duration":117056,"SoundDuration":117056,"Delta":94005111},{"NoteNumber":58,"Velocity":83,"Duration":117056,"SoundDuration":117056,"Delta":94105445},{"NoteNumber":46,"Velocity":74,"Duration":117056,"SoundDuration":117056,"Delta":94105445},{"NoteNumber":49,"Velocity":75,"Duration":119169,"SoundDuration":119169,"Delta":94205780},{"NoteNumber":37,"Velocity":66,"Duration":119169,"SoundDuration":119169,"Delta":94205780},{"NoteNumber":52,"Velocity":88,"Duration":102739,"SoundDuration":102739,"Delta":94307826},{"NoteNumber":40,"Velocity":80,"Duration":102739,"SoundDuration":102739,"Delta":94307826},{"NoteNumber":58,"Velocity":77,"Duration":99999,"SoundDuration":99999,"Delta":94513306},{"NoteNumber":46,"Velocity":69,"Duration":99999,"SoundDuration":99999,"Delta":94513306},{"NoteNumber":47,"Velocity":74,"Duration":100000,"SoundDuration":100000,"Delta":94613306},{"NoteNumber":35,"Velocity":63,"Duration":100000,"SoundDuration":100000,"Delta":94613306},{"NoteNumber":51,"Velocity":80,"Duration":102389,"SoundDuration":102389,"Delta":94713306},{"NoteNumber":39,"Velocity":69,"Duration":102389,"SoundDuration":102389,"Delta":94713306},{"NoteNumber":58,"Velocity":78,"Duration":99010,"SoundDuration":99010,"Delta":94918084},{"NoteNumber":46,"Velocity":70,"Duration":99010,"SoundDuration":99010,"Delta":94918084},{"NoteNumber":46,"Velocity":75,"Duration":99009,"SoundDuration":99009,"Delta":95017094},{"NoteNumber":34,"Velocity":67,"Duration":99009,"SoundDuration":99009,"Delta":95017094},{"NoteNumber":50,"Velocity":87,"Duration":152542,"SoundDuration":152542,"Delta":95116104},{"NoteNumber":38,"Velocity":76,"Duration":152542,"SoundDuration":152542,"Delta":95116104},{"NoteNumber":46,"Velocity":85,"Duration":105633,"SoundDuration":105633,"Delta":95319494},{"NoteNumber":34,"Velocity":73,"Duration":105633,"SoundDuration":105633,"Delta":95319494},{"NoteNumber":58,"Velocity":99,"Duration":184426,"SoundDuration":184426,"Delta":95530761},{"NoteNumber":70,"Velocity":99,"Duration":184426,"SoundDuration":184426,"Delta":95530761},{"NoteNumber":46,"Velocity":86,"Duration":184426,"SoundDuration":184426,"Delta":95530761},{"NoteNumber":82,"Velocity":94,"Duration":199114,"SoundDuration":199114,"Delta":95776663},{"NoteNumber":70,"Velocity":94,"Duration":199114,"SoundDuration":199114,"Delta":95776663},{"NoteNumber":58,"Velocity":81,"Duration":199114,"SoundDuration":199114,"Delta":95776663},{"NoteNumber":94,"Velocity":102,"Duration":265486,"SoundDuration":265486,"Delta":96042149},{"NoteNumber":82,"Velocity":102,"Duration":265486,"SoundDuration":265486,"Delta":96042149},{"NoteNumber":70,"Velocity":89,"Duration":265486,"SoundDuration":265486,"Delta":96042149},{"NoteNumber":27,"Velocity":60,"Duration":179640,"SoundDuration":179640,"Delta":97205839},{"NoteNumber":89,"Velocity":79,"Duration":170454,"SoundDuration":170454,"Delta":97385480},{"NoteNumber":82,"Velocity":67,"Duration":170454,"SoundDuration":170454,"Delta":97385480},{"NoteNumber":78,"Velocity":67,"Duration":170454,"SoundDuration":170454,"Delta":97385480},{"NoteNumber":39,"Velocity":60,"Duration":170454,"SoundDuration":170454,"Delta":97385480},{"NoteNumber":87,"Velocity":72,"Duration":823528,"SoundDuration":823528,"Delta":97612753},{"NoteNumber":82,"Velocity":61,"Duration":823528,"SoundDuration":823528,"Delta":97612753},{"NoteNumber":78,"Velocity":61,"Duration":823528,"SoundDuration":823528,"Delta":97612753},{"NoteNumber":39,"Velocity":57,"Duration":1176469,"SoundDuration":1176469,"Delta":97612753},{"NoteNumber":85,"Velocity":75,"Duration":172413,"SoundDuration":172413,"Delta":98789223},{"NoteNumber":78,"Velocity":63,"Duration":172413,"SoundDuration":172413,"Delta":98789223},{"NoteNumber":75,"Velocity":63,"Duration":172413,"SoundDuration":172413,"Delta":98789223},{"NoteNumber":45,"Velocity":61,"Duration":737309,"SoundDuration":737309,"Delta":98789223},{"NoteNumber":75,"Velocity":60,"Duration":372289,"SoundDuration":372289,"Delta":99019108},{"NoteNumber":78,"Velocity":60,"Duration":372289,"SoundDuration":372289,"Delta":99019108},{"NoteNumber":84,"Velocity":71,"Duration":372289,"SoundDuration":372289,"Delta":99019108},{"NoteNumber":71,"Velocity":62,"Duration":175097,"SoundDuration":175097,"Delta":99526532},{"NoteNumber":75,"Velocity":62,"Duration":175097,"SoundDuration":175097,"Delta":99526532},{"NoteNumber":80,"Velocity":74,"Duration":175097,"SoundDuration":175097,"Delta":99526532},{"NoteNumber":54,"Velocity":55,"Duration":629114,"SoundDuration":629114,"Delta":99526532},{"NoteNumber":71,"Velocity":59,"Duration":395651,"SoundDuration":395651,"Delta":99759995},{"NoteNumber":75,"Velocity":59,"Duration":395651,"SoundDuration":395651,"Delta":99759995},{"NoteNumber":78,"Velocity":70,"Duration":395651,"SoundDuration":395651,"Delta":99759995},{"NoteNumber":27,"Velocity":49,"Duration":164835,"SoundDuration":164835,"Delta":100155647},{"NoteNumber":66,"Velocity":58,"Duration":179282,"SoundDuration":179282,"Delta":100320482},{"NoteNumber":70,"Velocity":58,"Duration":179282,"SoundDuration":179282,"Delta":100320482},{"NoteNumber":77,"Velocity":69,"Duration":179282,"SoundDuration":179282,"Delta":100320482},{"NoteNumber":39,"Velocity":55,"Duration":179282,"SoundDuration":179282,"Delta":100320482},{"NoteNumber":66,"Velocity":56,"Duration":867768,"SoundDuration":867768,"Delta":100559526},{"NoteNumber":70,"Velocity":56,"Duration":867768,"SoundDuration":867768,"Delta":100559526},{"NoteNumber":75,"Velocity":67,"Duration":867768,"SoundDuration":867768,"Delta":100559526},{"NoteNumber":39,"Velocity":53,"Duration":867768,"SoundDuration":867768,"Delta":100559526},{"NoteNumber":63,"Velocity":56,"Duration":180723,"SoundDuration":180723,"Delta":101799196},{"NoteNumber":66,"Velocity":56,"Duration":180723,"SoundDuration":180723,"Delta":101799196},{"NoteNumber":73,"Velocity":66,"Duration":180723,"SoundDuration":180723,"Delta":101799196},{"NoteNumber":45,"Velocity":56,"Duration":758589,"SoundDuration":758589,"Delta":101799196},{"NoteNumber":63,"Velocity":51,"Duration":381261,"SoundDuration":381261,"Delta":102040160},{"NoteNumber":66,"Velocity":51,"Duration":381261,"SoundDuration":381261,"Delta":102040160},{"NoteNumber":72,"Velocity":60,"Duration":381261,"SoundDuration":381261,"Delta":102040160},{"NoteNumber":59,"Velocity":51,"Duration":185185,"SoundDuration":185185,"Delta":102557786},{"NoteNumber":63,"Velocity":51,"Duration":185185,"SoundDuration":185185,"Delta":102557786},{"NoteNumber":68,"Velocity":61,"Duration":185185,"SoundDuration":185185,"Delta":102557786},{"NoteNumber":54,"Velocity":53,"Duration":696351,"SoundDuration":696351,"Delta":102557786},{"NoteNumber":59,"Velocity":46,"Duration":337078,"SoundDuration":337078,"Delta":102804699},{"NoteNumber":63,"Velocity":46,"Duration":337078,"SoundDuration":337078,"Delta":102804699},{"NoteNumber":66,"Velocity":55,"Duration":337078,"SoundDuration":337078,"Delta":102804699},{"NoteNumber":59,"Velocity":72,"Duration":68493,"SoundDuration":68493,"Delta":103395203},{"NoteNumber":47,"Velocity":59,"Duration":68493,"SoundDuration":68493,"Delta":103395203},{"NoteNumber":58,"Velocity":100,"Duration":111524,"SoundDuration":111524,"Delta":103463696},{"NoteNumber":46,"Velocity":88,"Duration":111524,"SoundDuration":111524,"Delta":103463696},{"NoteNumber":47,"Velocity":69,"Duration":68181,"SoundDuration":68181,"Delta":103630983},{"NoteNumber":35,"Velocity":53,"Duration":68181,"SoundDuration":68181,"Delta":103630983},{"NoteNumber":46,"Velocity":94,"Duration":144230,"SoundDuration":144230,"Delta":103699165},{"NoteNumber":34,"Velocity":84,"Duration":144230,"SoundDuration":144230,"Delta":103699165},{"NoteNumber":27,"Velocity":49,"Duration":179640,"SoundDuration":179640,"Delta":104951581},{"NoteNumber":89,"Velocity":64,"Duration":171755,"SoundDuration":171755,"Delta":105131222},{"NoteNumber":82,"Velocity":54,"Duration":171755,"SoundDuration":171755,"Delta":105131222},{"NoteNumber":78,"Velocity":54,"Duration":171755,"SoundDuration":171755,"Delta":105131222},{"NoteNumber":39,"Velocity":49,"Duration":171755,"SoundDuration":171755,"Delta":105131222},{"NoteNumber":87,"Velocity":59,"Duration":823528,"SoundDuration":823528,"Delta":105360229},{"NoteNumber":82,"Velocity":50,"Duration":823528,"SoundDuration":823528,"Delta":105360229},{"NoteNumber":78,"Velocity":50,"Duration":823528,"SoundDuration":823528,"Delta":105360229},{"NoteNumber":39,"Velocity":46,"Duration":1176469,"SoundDuration":1176469,"Delta":105360229},{"NoteNumber":85,"Velocity":62,"Duration":173744,"SoundDuration":173744,"Delta":106536699},{"NoteNumber":78,"Velocity":52,"Duration":173744,"SoundDuration":173744,"Delta":106536699},{"NoteNumber":75,"Velocity":52,"Duration":173744,"SoundDuration":173744,"Delta":106536699},{"NoteNumber":45,"Velocity":50,"Duration":739373,"SoundDuration":739373,"Delta":106536699},{"NoteNumber":75,"Velocity":49,"Duration":371966,"SoundDuration":371966,"Delta":106768359},{"NoteNumber":78,"Velocity":49,"Duration":371966,"SoundDuration":371966,"Delta":106768359},{"NoteNumber":84,"Velocity":58,"Duration":371966,"SoundDuration":371966,"Delta":106768359},{"NoteNumber":71,"Velocity":51,"Duration":182186,"SoundDuration":182186,"Delta":107276073},{"NoteNumber":75,"Velocity":51,"Duration":182186,"SoundDuration":182186,"Delta":107276073},{"NoteNumber":80,"Velocity":61,"Duration":182186,"SoundDuration":182186,"Delta":107276073},{"NoteNumber":54,"Velocity":45,"Duration":642631,"SoundDuration":642631,"Delta":107276073},{"NoteNumber":71,"Velocity":48,"Duration":399716,"SoundDuration":399716,"Delta":107518988},{"NoteNumber":75,"Velocity":48,"Duration":399716,"SoundDuration":399716,"Delta":107518988},{"NoteNumber":78,"Velocity":57,"Duration":399716,"SoundDuration":399716,"Delta":107518988},{"NoteNumber":27,"Velocity":40,"Duration":164835,"SoundDuration":164835,"Delta":107918704},{"NoteNumber":66,"Velocity":47,"Duration":182186,"SoundDuration":182186,"Delta":108083539},{"NoteNumber":70,"Velocity":47,"Duration":182186,"SoundDuration":182186,"Delta":108083539},{"NoteNumber":77,"Velocity":56,"Duration":182186,"SoundDuration":182186,"Delta":108083539},{"NoteNumber":39,"Velocity":45,"Duration":182186,"SoundDuration":182186,"Delta":108083539},{"NoteNumber":66,"Velocity":45,"Duration":864197,"SoundDuration":864197,"Delta":108326454},{"NoteNumber":70,"Velocity":45,"Duration":864197,"SoundDuration":864197,"Delta":108326454},{"NoteNumber":75,"Velocity":54,"Duration":864197,"SoundDuration":864197,"Delta":108326454},{"NoteNumber":39,"Velocity":44,"Duration":864197,"SoundDuration":864197,"Delta":108326454},{"NoteNumber":63,"Velocity":45,"Duration":180723,"SoundDuration":180723,"Delta":109561022},{"NoteNumber":66,"Velocity":45,"Duration":180723,"SoundDuration":180723,"Delta":109561022},{"NoteNumber":73,"Velocity":54,"Duration":180723,"SoundDuration":180723,"Delta":109561022},{"NoteNumber":45,"Velocity":45,"Duration":759593,"SoundDuration":759593,"Delta":109561022},{"NoteNumber":63,"Velocity":41,"Duration":382265,"SoundDuration":382265,"Delta":109801986},{"NoteNumber":66,"Velocity":41,"Duration":382265,"SoundDuration":382265,"Delta":109801986},{"NoteNumber":72,"Velocity":49,"Duration":382265,"SoundDuration":382265,"Delta":109801986},{"NoteNumber":59,"Velocity":42,"Duration":183673,"SoundDuration":183673,"Delta":110320615},{"NoteNumber":63,"Velocity":42,"Duration":183673,"SoundDuration":183673,"Delta":110320615},{"NoteNumber":68,"Velocity":50,"Duration":183673,"SoundDuration":183673,"Delta":110320615},{"NoteNumber":54,"Velocity":44,"Duration":702913,"SoundDuration":702913,"Delta":110320615},{"NoteNumber":59,"Velocity":38,"Duration":343511,"SoundDuration":343511,"Delta":110565513},{"NoteNumber":63,"Velocity":38,"Duration":343511,"SoundDuration":343511,"Delta":110565513},{"NoteNumber":66,"Velocity":45,"Duration":343511,"SoundDuration":343511,"Delta":110565513},{"NoteNumber":59,"Velocity":66,"Duration":68181,"SoundDuration":68181,"Delta":111164594},{"NoteNumber":47,"Velocity":54,"Duration":68181,"SoundDuration":68181,"Delta":111164594},{"NoteNumber":58,"Velocity":90,"Duration":110293,"SoundDuration":110293,"Delta":111232775},{"NoteNumber":46,"Velocity":76,"Duration":110293,"SoundDuration":110293,"Delta":111232775},{"NoteNumber":47,"Velocity":63,"Duration":68181,"SoundDuration":68181,"Delta":111398216},{"NoteNumber":35,"Velocity":49,"Duration":68181,"SoundDuration":68181,"Delta":111398216},{"NoteNumber":46,"Velocity":84,"Duration":144230,"SoundDuration":144230,"Delta":111466398},{"NoteNumber":34,"Velocity":68,"Duration":144230,"SoundDuration":144230,"Delta":111466398},{"NoteNumber":59,"Velocity":92,"Duration":116666,"SoundDuration":116666,"Delta":112620244},{"NoteNumber":47,"Velocity":80,"Duration":116666,"SoundDuration":116666,"Delta":112620244},{"NoteNumber":51,"Velocity":83,"Duration":116393,"SoundDuration":116393,"Delta":112720244},{"NoteNumber":39,"Velocity":75,"Duration":116393,"SoundDuration":116393,"Delta":112720244},{"NoteNumber":50,"Velocity":75,"Duration":115027,"SoundDuration":115027,"Delta":112820244},{"NoteNumber":38,"Velocity":67,"Duration":115027,"SoundDuration":115027,"Delta":112820244},{"NoteNumber":59,"Velocity":86,"Duration":116666,"SoundDuration":116666,"Delta":112918605},{"NoteNumber":47,"Velocity":75,"Duration":116666,"SoundDuration":116666,"Delta":112918605},{"NoteNumber":58,"Velocity":82,"Duration":117123,"SoundDuration":117123,"Delta":113018605},{"NoteNumber":46,"Velocity":72,"Duration":117123,"SoundDuration":117123,"Delta":113018605},{"NoteNumber":50,"Velocity":76,"Duration":124478,"SoundDuration":124478,"Delta":113118605},{"NoteNumber":38,"Velocity":69,"Duration":124478,"SoundDuration":124478,"Delta":113118605},{"NoteNumber":54,"Velocity":91,"Duration":449153,"SoundDuration":449153,"Delta":113221345},{"NoteNumber":42,"Velocity":80,"Duration":449153,"SoundDuration":449153,"Delta":113221345},{"NoteNumber":47,"Velocity":80,"Duration":62761,"SoundDuration":62761,"Delta":113670499},{"NoteNumber":35,"Velocity":69,"Duration":62761,"SoundDuration":62761,"Delta":113670499},{"NoteNumber":46,"Velocity":105,"Duration":173076,"SoundDuration":173076,"Delta":113733260},{"NoteNumber":34,"Velocity":91,"Duration":173076,"SoundDuration":173076,"Delta":113733260},{"NoteNumber":59,"Velocity":92,"Duration":116666,"SoundDuration":116666,"Delta":114704770},{"NoteNumber":47,"Velocity":80,"Duration":116666,"SoundDuration":116666,"Delta":114704770},{"NoteNumber":51,"Velocity":83,"Duration":116393,"SoundDuration":116393,"Delta":114804770},{"NoteNumber":39,"Velocity":75,"Duration":116393,"SoundDuration":116393,"Delta":114804770},{"NoteNumber":50,"Velocity":76,"Duration":114754,"SoundDuration":114754,"Delta":114904770},{"NoteNumber":38,"Velocity":69,"Duration":114754,"SoundDuration":114754,"Delta":114904770},{"NoteNumber":59,"Velocity":84,"Duration":115027,"SoundDuration":115027,"Delta":115003131},{"NoteNumber":47,"Velocity":74,"Duration":115027,"SoundDuration":115027,"Delta":115003131},{"NoteNumber":58,"Velocity":82,"Duration":116949,"SoundDuration":116949,"Delta":115101491},{"NoteNumber":46,"Velocity":70,"Duration":116949,"SoundDuration":116949,"Delta":115101491},{"NoteNumber":49,"Velocity":73,"Duration":118818,"SoundDuration":118818,"Delta":115201491},{"NoteNumber":37,"Velocity":67,"Duration":118818,"SoundDuration":118818,"Delta":115201491},{"NoteNumber":52,"Velocity":88,"Duration":102739,"SoundDuration":102739,"Delta":115303186},{"NoteNumber":40,"Velocity":80,"Duration":102739,"SoundDuration":102739,"Delta":115303186},{"NoteNumber":58,"Velocity":77,"Duration":99999,"SoundDuration":99999,"Delta":115508666},{"NoteNumber":46,"Velocity":69,"Duration":99999,"SoundDuration":99999,"Delta":115508666},{"NoteNumber":47,"Velocity":74,"Duration":100000,"SoundDuration":100000,"Delta":115608666},{"NoteNumber":35,"Velocity":63,"Duration":100000,"SoundDuration":100000,"Delta":115608666},{"NoteNumber":51,"Velocity":80,"Duration":102389,"SoundDuration":102389,"Delta":115708666},{"NoteNumber":39,"Velocity":69,"Duration":102389,"SoundDuration":102389,"Delta":115708666},{"NoteNumber":58,"Velocity":78,"Duration":99999,"SoundDuration":99999,"Delta":115913444},{"NoteNumber":46,"Velocity":70,"Duration":99999,"SoundDuration":99999,"Delta":115913444},{"NoteNumber":46,"Velocity":75,"Duration":100000,"SoundDuration":100000,"Delta":116013444},{"NoteNumber":34,"Velocity":67,"Duration":100000,"SoundDuration":100000,"Delta":116013444},{"NoteNumber":50,"Velocity":81,"Duration":204778,"SoundDuration":204778,"Delta":116113444},{"NoteNumber":38,"Velocity":72,"Duration":204778,"SoundDuration":204778,"Delta":116113444},{"NoteNumber":46,"Velocity":85,"Duration":106761,"SoundDuration":106761,"Delta":116318222},{"NoteNumber":34,"Velocity":73,"Duration":106761,"SoundDuration":106761,"Delta":116318222},{"NoteNumber":59,"Velocity":78,"Duration":68181,"SoundDuration":68181,"Delta":116706163},{"NoteNumber":47,"Velocity":58,"Duration":68181,"SoundDuration":68181,"Delta":116706163},{"NoteNumber":58,"Velocity":102,"Duration":126582,"SoundDuration":126582,"Delta":116774345},{"NoteNumber":46,"Velocity":83,"Duration":126582,"SoundDuration":126582,"Delta":116774345},{"NoteNumber":47,"Velocity":84,"Duration":67873,"SoundDuration":67873,"Delta":116964219},{"NoteNumber":35,"Velocity":59,"Duration":67873,"SoundDuration":67873,"Delta":116964219},{"NoteNumber":46,"Velocity":104,"Duration":142179,"SoundDuration":142179,"Delta":117032092},{"NoteNumber":34,"Velocity":82,"Duration":142179,"SoundDuration":142179,"Delta":117032092},{"NoteNumber":47,"Velocity":109,"Duration":1799999,"SoundDuration":1799999,"Delta":117316452},{"NoteNumber":35,"Velocity":92,"Duration":1799999,"SoundDuration":1799999,"Delta":117316452},{"NoteNumber":46,"Velocity":94,"Duration":495868,"SoundDuration":495868,"Delta":119116452},{"NoteNumber":34,"Velocity":72,"Duration":495868,"SoundDuration":495868,"Delta":119116452},{"NoteNumber":51,"Velocity":58,"Duration":1224863,"SoundDuration":1224863,"Delta":120604056},{"NoteNumber":27,"Velocity":49,"Duration":1224863,"SoundDuration":1224863,"Delta":120604056},{"NoteNumber":39,"Velocity":58,"Duration":1224863,"SoundDuration":1224863,"Delta":120604056},{"NoteNumber":57,"Velocity":47,"Duration":1188118,"SoundDuration":1188118,"Delta":121828920},{"NoteNumber":69,"Velocity":56,"Duration":1188118,"SoundDuration":1188118,"Delta":121828920},{"NoteNumber":33,"Velocity":44,"Duration":1188118,"SoundDuration":1188118,"Delta":121828920},{"NoteNumber":45,"Velocity":52,"Duration":1188118,"SoundDuration":1188118,"Delta":121828920},{"NoteNumber":51,"Velocity":58,"Duration":1224490,"SoundDuration":1224490,"Delta":123017038},{"NoteNumber":27,"Velocity":44,"Duration":1224490,"SoundDuration":1224490,"Delta":123017038},{"NoteNumber":39,"Velocity":52,"Duration":1224490,"SoundDuration":1224490,"Delta":123017038},{"NoteNumber":58,"Velocity":47,"Duration":1224490,"SoundDuration":1224490,"Delta":124241528},{"NoteNumber":70,"Velocity":56,"Duration":1224490,"SoundDuration":1224490,"Delta":124241528},{"NoteNumber":34,"Velocity":45,"Duration":1224490,"SoundDuration":1224490,"Delta":124241528},{"NoteNumber":46,"Velocity":54,"Duration":1224490,"SoundDuration":1224490,"Delta":124241528},{"NoteNumber":51,"Velocity":58,"Duration":1188118,"SoundDuration":1188118,"Delta":125466018},{"NoteNumber":27,"Velocity":43,"Duration":1188118,"SoundDuration":1188118,"Delta":125466018},{"NoteNumber":39,"Velocity":51,"Duration":1188118,"SoundDuration":1188118,"Delta":125466018},{"NoteNumber":63,"Velocity":51,"Duration":560748,"SoundDuration":560748,"Delta":126654136},{"NoteNumber":75,"Velocity":60,"Duration":560748,"SoundDuration":560748,"Delta":126654136},{"NoteNumber":36,"Velocity":44,"Duration":560748,"SoundDuration":560748,"Delta":126654136},{"NoteNumber":48,"Velocity":52,"Duration":560748,"SoundDuration":560748,"Delta":126654136},{"NoteNumber":62,"Velocity":50,"Duration":583770,"SoundDuration":583770,"Delta":127214884},{"NoteNumber":74,"Velocity":59,"Duration":583770,"SoundDuration":583770,"Delta":127214884},{"NoteNumber":35,"Velocity":41,"Duration":583770,"SoundDuration":583770,"Delta":127214884},{"NoteNumber":47,"Velocity":49,"Duration":583770,"SoundDuration":583770,"Delta":127214884},{"NoteNumber":64,"Velocity":51,"Duration":1187648,"SoundDuration":1187648,"Delta":127798655},{"NoteNumber":76,"Velocity":61,"Duration":1187648,"SoundDuration":1187648,"Delta":127798655},{"NoteNumber":37,"Velocity":45,"Duration":1187648,"SoundDuration":1187648,"Delta":127798655},{"NoteNumber":49,"Velocity":53,"Duration":1187648,"SoundDuration":1187648,"Delta":127798655},{"NoteNumber":63,"Velocity":47,"Duration":1187647,"SoundDuration":1187647,"Delta":128986303},{"NoteNumber":75,"Velocity":56,"Duration":1187647,"SoundDuration":1187647,"Delta":128986303},{"NoteNumber":36,"Velocity":39,"Duration":1187647,"SoundDuration":1187647,"Delta":128986303},{"NoteNumber":48,"Velocity":47,"Duration":1187647,"SoundDuration":1187647,"Delta":128986303},{"NoteNumber":51,"Velocity":58,"Duration":579710,"SoundDuration":579710,"Delta":130173951},{"NoteNumber":27,"Velocity":43,"Duration":579710,"SoundDuration":579710,"Delta":130173951},{"NoteNumber":39,"Velocity":51,"Duration":579710,"SoundDuration":579710,"Delta":130173951},{"NoteNumber":63,"Velocity":51,"Duration":538116,"SoundDuration":538116,"Delta":130753661},{"NoteNumber":75,"Velocity":60,"Duration":538116,"SoundDuration":538116,"Delta":130753661},{"NoteNumber":36,"Velocity":44,"Duration":538116,"SoundDuration":538116,"Delta":130753661},{"NoteNumber":48,"Velocity":52,"Duration":538116,"SoundDuration":538116,"Delta":130753661},{"NoteNumber":62,"Velocity":47,"Duration":542986,"SoundDuration":542986,"Delta":131291778},{"NoteNumber":74,"Velocity":56,"Duration":542986,"SoundDuration":542986,"Delta":131291778},{"NoteNumber":35,"Velocity":34,"Duration":542986,"SoundDuration":542986,"Delta":131291778},{"NoteNumber":47,"Velocity":40,"Duration":542986,"SoundDuration":542986,"Delta":131291778},{"NoteNumber":66,"Velocity":51,"Duration":538116,"SoundDuration":538116,"Delta":131834764},{"NoteNumber":78,"Velocity":60,"Duration":538116,"SoundDuration":538116,"Delta":131834764},{"NoteNumber":39,"Velocity":40,"Duration":538116,"SoundDuration":538116,"Delta":131834764},{"NoteNumber":51,"Velocity":48,"Duration":538116,"SoundDuration":538116,"Delta":131834764},{"NoteNumber":65,"Velocity":48,"Duration":545455,"SoundDuration":545455,"Delta":132372881},{"NoteNumber":77,"Velocity":57,"Duration":545455,"SoundDuration":545455,"Delta":132372881},{"NoteNumber":38,"Velocity":37,"Duration":545455,"SoundDuration":545455,"Delta":132372881},{"NoteNumber":50,"Velocity":44,"Duration":545455,"SoundDuration":545455,"Delta":132372881},{"NoteNumber":58,"Velocity":44,"Duration":553097,"SoundDuration":553097,"Delta":132918336},{"NoteNumber":70,"Velocity":52,"Duration":553097,"SoundDuration":553097,"Delta":132918336},{"NoteNumber":30,"Velocity":34,"Duration":553097,"SoundDuration":553097,"Delta":132918336},{"NoteNumber":42,"Velocity":41,"Duration":553097,"SoundDuration":553097,"Delta":132918336},{"NoteNumber":65,"Velocity":47,"Duration":1144462,"SoundDuration":1144462,"Delta":133471433},{"NoteNumber":77,"Velocity":56,"Duration":1144462,"SoundDuration":1144462,"Delta":133471433},{"NoteNumber":38,"Velocity":38,"Duration":1144462,"SoundDuration":1144462,"Delta":133471433},{"NoteNumber":50,"Velocity":45,"Duration":1144462,"SoundDuration":1144462,"Delta":133471433},{"NoteNumber":66,"Velocity":50,"Duration":550914,"SoundDuration":550914,"Delta":134615896},{"NoteNumber":78,"Velocity":59,"Duration":550914,"SoundDuration":550914,"Delta":134615896},{"NoteNumber":39,"Velocity":38,"Duration":550914,"SoundDuration":550914,"Delta":134615896},{"NoteNumber":51,"Velocity":45,"Duration":550914,"SoundDuration":550914,"Delta":134615896},{"NoteNumber":65,"Velocity":42,"Duration":557672,"SoundDuration":557672,"Delta":135166810},{"NoteNumber":77,"Velocity":50,"Duration":557672,"SoundDuration":557672,"Delta":135166810},{"NoteNumber":38,"Velocity":28,"Duration":557672,"SoundDuration":557672,"Delta":135166810},{"NoteNumber":50,"Velocity":34,"Duration":557672,"SoundDuration":557672,"Delta":135166810},{"NoteNumber":58,"Velocity":45,"Duration":557672,"SoundDuration":557672,"Delta":135724483},{"NoteNumber":70,"Velocity":54,"Duration":557672,"SoundDuration":557672,"Delta":135724483},{"NoteNumber":30,"Velocity":32,"Duration":557672,"SoundDuration":557672,"Delta":135724483},{"NoteNumber":42,"Velocity":38,"Duration":557672,"SoundDuration":557672,"Delta":135724483},{"NoteNumber":66,"Velocity":38,"Duration":578258,"SoundDuration":578258,"Delta":136282156},{"NoteNumber":78,"Velocity":45,"Duration":578258,"SoundDuration":578258,"Delta":136282156},{"NoteNumber":38,"Velocity":26,"Duration":578258,"SoundDuration":578258,"Delta":136282156},{"NoteNumber":50,"Velocity":31,"Duration":578258,"SoundDuration":578258,"Delta":136282156},{"NoteNumber":59,"Velocity":92,"Duration":116666,"SoundDuration":116666,"Delta":136860414},{"NoteNumber":47,"Velocity":80,"Duration":116666,"SoundDuration":116666,"Delta":136860414},{"NoteNumber":51,"Velocity":83,"Duration":116393,"SoundDuration":116393,"Delta":136960414},{"NoteNumber":39,"Velocity":75,"Duration":116393,"SoundDuration":116393,"Delta":136960414},{"NoteNumber":50,"Velocity":76,"Duration":115027,"SoundDuration":115027,"Delta":137060414},{"NoteNumber":38,"Velocity":69,"Duration":115027,"SoundDuration":115027,"Delta":137060414},{"NoteNumber":59,"Velocity":87,"Duration":116666,"SoundDuration":116666,"Delta":137158775},{"NoteNumber":47,"Velocity":76,"Duration":116666,"SoundDuration":116666,"Delta":137158775},{"NoteNumber":58,"Velocity":85,"Duration":117123,"SoundDuration":117123,"Delta":137258775},{"NoteNumber":46,"Velocity":74,"Duration":117123,"SoundDuration":117123,"Delta":137258775},{"NoteNumber":50,"Velocity":81,"Duration":119406,"SoundDuration":119406,"Delta":137358775},{"NoteNumber":38,"Velocity":70,"Duration":119406,"SoundDuration":119406,"Delta":137358775},{"NoteNumber":54,"Velocity":91,"Duration":199999,"SoundDuration":199999,"Delta":137461514},{"NoteNumber":42,"Velocity":80,"Duration":199999,"SoundDuration":199999,"Delta":137461514},{"NoteNumber":51,"Velocity":58,"Duration":1223989,"SoundDuration":1223989,"Delta":138513688},{"NoteNumber":27,"Velocity":49,"Duration":1223989,"SoundDuration":1223989,"Delta":138513688},{"NoteNumber":39,"Velocity":58,"Duration":1223989,"SoundDuration":1223989,"Delta":138513688},{"NoteNumber":57,"Velocity":47,"Duration":1182265,"SoundDuration":1182265,"Delta":139737678},{"NoteNumber":69,"Velocity":56,"Duration":1182265,"SoundDuration":1182265,"Delta":139737678},{"NoteNumber":33,"Velocity":44,"Duration":1182265,"SoundDuration":1182265,"Delta":139737678},{"NoteNumber":45,"Velocity":52,"Duration":1182265,"SoundDuration":1182265,"Delta":139737678},{"NoteNumber":51,"Velocity":58,"Duration":1224490,"SoundDuration":1224490,"Delta":140919944},{"NoteNumber":27,"Velocity":44,"Duration":1224490,"SoundDuration":1224490,"Delta":140919944},{"NoteNumber":39,"Velocity":52,"Duration":1224490,"SoundDuration":1224490,"Delta":140919944},{"NoteNumber":58,"Velocity":47,"Duration":1199999,"SoundDuration":1199999,"Delta":142144434},{"NoteNumber":70,"Velocity":56,"Duration":1199999,"SoundDuration":1199999,"Delta":142144434},{"NoteNumber":34,"Velocity":45,"Duration":1199999,"SoundDuration":1199999,"Delta":142144434},{"NoteNumber":46,"Velocity":54,"Duration":1199999,"SoundDuration":1199999,"Delta":142144434},{"NoteNumber":51,"Velocity":58,"Duration":1188118,"SoundDuration":1188118,"Delta":143344434},{"NoteNumber":27,"Velocity":43,"Duration":1188118,"SoundDuration":1188118,"Delta":143344434},{"NoteNumber":39,"Velocity":51,"Duration":1188118,"SoundDuration":1188118,"Delta":143344434},{"NoteNumber":65,"Velocity":51,"Duration":558140,"SoundDuration":558140,"Delta":144532552},{"NoteNumber":77,"Velocity":60,"Duration":558140,"SoundDuration":558140,"Delta":144532552},{"NoteNumber":37,"Velocity":44,"Duration":558140,"SoundDuration":558140,"Delta":144532552},{"NoteNumber":49,"Velocity":52,"Duration":558140,"SoundDuration":558140,"Delta":144532552},{"NoteNumber":64,"Velocity":50,"Duration":571428,"SoundDuration":571428,"Delta":145090692},{"NoteNumber":76,"Velocity":59,"Duration":571428,"SoundDuration":571428,"Delta":145090692},{"NoteNumber":36,"Velocity":41,"Duration":571428,"SoundDuration":571428,"Delta":145090692},{"NoteNumber":48,"Velocity":49,"Duration":571428,"SoundDuration":571428,"Delta":145090692},{"NoteNumber":68,"Velocity":51,"Duration":1186825,"SoundDuration":1186825,"Delta":145662121},{"NoteNumber":80,"Velocity":61,"Duration":1186825,"SoundDuration":1186825,"Delta":145662121},{"NoteNumber":40,"Velocity":45,"Duration":1186825,"SoundDuration":1186825,"Delta":145662121},{"NoteNumber":52,"Velocity":53,"Duration":1186825,"SoundDuration":1186825,"Delta":145662121},{"NoteNumber":67,"Velocity":45,"Duration":1186825,"SoundDuration":1186825,"Delta":146848947},{"NoteNumber":79,"Velocity":54,"Duration":1186825,"SoundDuration":1186825,"Delta":146848947},{"NoteNumber":39,"Velocity":38,"Duration":1186825,"SoundDuration":1186825,"Delta":146848947},{"NoteNumber":51,"Velocity":45,"Duration":1186825,"SoundDuration":1186825,"Delta":146848947},{"NoteNumber":51,"Velocity":58,"Duration":582524,"SoundDuration":582524,"Delta":148035773},{"NoteNumber":27,"Velocity":43,"Duration":582524,"SoundDuration":582524,"Delta":148035773},{"NoteNumber":39,"Velocity":51,"Duration":582524,"SoundDuration":582524,"Delta":148035773},{"NoteNumber":65,"Velocity":51,"Duration":535714,"SoundDuration":535714,"Delta":148618297},{"NoteNumber":77,"Velocity":60,"Duration":535714,"SoundDuration":535714,"Delta":148618297},{"NoteNumber":37,"Velocity":44,"Duration":535714,"SoundDuration":535714,"Delta":148618297},{"NoteNumber":49,"Velocity":52,"Duration":535714,"SoundDuration":535714,"Delta":148618297},{"NoteNumber":64,"Velocity":47,"Duration":528634,"SoundDuration":528634,"Delta":149154011},{"NoteNumber":76,"Velocity":70,"Duration":528634,"SoundDuration":528634,"Delta":149154011},{"NoteNumber":36,"Velocity":34,"Duration":528634,"SoundDuration":528634,"Delta":149154011},{"NoteNumber":48,"Velocity":40,"Duration":528634,"SoundDuration":528634,"Delta":149154011},{"NoteNumber":68,"Velocity":51,"Duration":535714,"SoundDuration":535714,"Delta":149682645},{"NoteNumber":80,"Velocity":60,"Duration":535714,"SoundDuration":535714,"Delta":149682645},{"NoteNumber":40,"Velocity":40,"Duration":535714,"SoundDuration":535714,"Delta":149682645},{"NoteNumber":52,"Velocity":48,"Duration":535714,"SoundDuration":535714,"Delta":149682645},{"NoteNumber":67,"Velocity":48,"Duration":550307,"SoundDuration":550307,"Delta":150218359},{"NoteNumber":79,"Velocity":57,"Duration":550307,"SoundDuration":550307,"Delta":150218359},{"NoteNumber":39,"Velocity":37,"Duration":550307,"SoundDuration":550307,"Delta":150218359},{"NoteNumber":51,"Velocity":44,"Duration":550307,"SoundDuration":550307,"Delta":150218359},{"NoteNumber":61,"Velocity":44,"Duration":552690,"SoundDuration":552690,"Delta":150768666},{"NoteNumber":73,"Velocity":52,"Duration":552690,"SoundDuration":552690,"Delta":150768666},{"NoteNumber":33,"Velocity":32,"Duration":552690,"SoundDuration":552690,"Delta":150768666},{"NoteNumber":45,"Velocity":38,"Duration":552690,"SoundDuration":552690,"Delta":150768666},{"NoteNumber":67,"Velocity":47,"Duration":1143647,"SoundDuration":1143647,"Delta":151321356},{"NoteNumber":79,"Velocity":56,"Duration":1143647,"SoundDuration":1143647,"Delta":151321356},{"NoteNumber":39,"Velocity":38,"Duration":1143647,"SoundDuration":1143647,"Delta":151321356},{"NoteNumber":51,"Velocity":45,"Duration":1143647,"SoundDuration":1143647,"Delta":151321356},{"NoteNumber":68,"Velocity":50,"Duration":550559,"SoundDuration":550559,"Delta":152465004},{"NoteNumber":80,"Velocity":59,"Duration":550559,"SoundDuration":550559,"Delta":152465004},{"NoteNumber":40,"Velocity":38,"Duration":550559,"SoundDuration":550559,"Delta":152465004},{"NoteNumber":52,"Velocity":45,"Duration":550559,"SoundDuration":550559,"Delta":152465004},{"NoteNumber":67,"Velocity":42,"Duration":557257,"SoundDuration":557257,"Delta":153015564},{"NoteNumber":79,"Velocity":50,"Duration":557257,"SoundDuration":557257,"Delta":153015564},{"NoteNumber":39,"Velocity":28,"Duration":557257,"SoundDuration":557257,"Delta":153015564},{"NoteNumber":51,"Velocity":34,"Duration":557257,"SoundDuration":557257,"Delta":153015564},{"NoteNumber":61,"Velocity":45,"Duration":557258,"SoundDuration":557258,"Delta":153572822},{"NoteNumber":73,"Velocity":54,"Duration":557258,"SoundDuration":557258,"Delta":153572822},{"NoteNumber":33,"Velocity":32,"Duration":557258,"SoundDuration":557258,"Delta":153572822},{"NoteNumber":45,"Velocity":38,"Duration":557258,"SoundDuration":557258,"Delta":153572822},{"NoteNumber":67,"Velocity":38,"Duration":577811,"SoundDuration":577811,"Delta":154130080},{"NoteNumber":79,"Velocity":45,"Duration":577811,"SoundDuration":577811,"Delta":154130080},{"NoteNumber":39,"Velocity":26,"Duration":577811,"SoundDuration":577811,"Delta":154130080},{"NoteNumber":51,"Velocity":31,"Duration":577811,"SoundDuration":577811,"Delta":154130080},{"NoteNumber":64,"Velocity":92,"Duration":116666,"SoundDuration":116666,"Delta":154707892},{"NoteNumber":52,"Velocity":80,"Duration":116666,"SoundDuration":116666,"Delta":154707892},{"NoteNumber":56,"Velocity":83,"Duration":116393,"SoundDuration":116393,"Delta":154807892},{"NoteNumber":44,"Velocity":75,"Duration":116393,"SoundDuration":116393,"Delta":154807892},{"NoteNumber":55,"Velocity":79,"Duration":114754,"SoundDuration":114754,"Delta":154907892},{"NoteNumber":43,"Velocity":71,"Duration":114754,"SoundDuration":114754,"Delta":154907892},{"NoteNumber":64,"Velocity":87,"Duration":114972,"SoundDuration":114972,"Delta":155006253},{"NoteNumber":52,"Velocity":76,"Duration":114972,"SoundDuration":114972,"Delta":155006253},{"NoteNumber":63,"Velocity":85,"Duration":116849,"SoundDuration":116849,"Delta":155104614},{"NoteNumber":51,"Velocity":74,"Duration":116849,"SoundDuration":116849,"Delta":155104614},{"NoteNumber":55,"Velocity":81,"Duration":119759,"SoundDuration":119759,"Delta":155204282},{"NoteNumber":43,"Velocity":70,"Duration":119759,"SoundDuration":119759,"Delta":155204282},{"NoteNumber":59,"Velocity":91,"Duration":199999,"SoundDuration":199999,"Delta":155307374},{"NoteNumber":47,"Velocity":80,"Duration":199999,"SoundDuration":199999,"Delta":155307374},{"NoteNumber":56,"Velocity":58,"Duration":1224490,"SoundDuration":1224490,"Delta":157384038},{"NoteNumber":32,"Velocity":49,"Duration":1224490,"SoundDuration":1224490,"Delta":157384038},{"NoteNumber":44,"Velocity":58,"Duration":1224490,"SoundDuration":1224490,"Delta":157384038},{"NoteNumber":62,"Velocity":47,"Duration":1188118,"SoundDuration":1188118,"Delta":158608528},{"NoteNumber":74,"Velocity":56,"Duration":1188118,"SoundDuration":1188118,"Delta":158608528},{"NoteNumber":38,"Velocity":44,"Duration":1188118,"SoundDuration":1188118,"Delta":158608528},{"NoteNumber":50,"Velocity":52,"Duration":1188118,"SoundDuration":1188118,"Delta":158608528},{"NoteNumber":56,"Velocity":58,"Duration":1224490,"SoundDuration":1224490,"Delta":159796646},{"NoteNumber":32,"Velocity":44,"Duration":1224490,"SoundDuration":1224490,"Delta":159796646},{"NoteNumber":44,"Velocity":52,"Duration":1224490,"SoundDuration":1224490,"Delta":159796646},{"NoteNumber":63,"Velocity":47,"Duration":1264419,"SoundDuration":1264419,"Delta":161021136},{"NoteNumber":75,"Velocity":56,"Duration":1264419,"SoundDuration":1264419,"Delta":161021136},{"NoteNumber":39,"Velocity":45,"Duration":1264419,"SoundDuration":1264419,"Delta":161021136},{"NoteNumber":51,"Velocity":54,"Duration":1264419,"SoundDuration":1264419,"Delta":161021136},{"NoteNumber":71,"Velocity":87,"Duration":116666,"SoundDuration":116666,"Delta":162285555},{"NoteNumber":59,"Velocity":76,"Duration":116666,"SoundDuration":116666,"Delta":162285555},{"NoteNumber":63,"Velocity":78,"Duration":116393,"SoundDuration":116393,"Delta":162385555},{"NoteNumber":51,"Velocity":71,"Duration":116393,"SoundDuration":116393,"Delta":162385555},{"NoteNumber":62,"Velocity":75,"Duration":115027,"SoundDuration":115027,"Delta":162485555},{"NoteNumber":50,"Velocity":67,"Duration":115027,"SoundDuration":115027,"Delta":162485555},{"NoteNumber":71,"Velocity":82,"Duration":116666,"SoundDuration":116666,"Delta":162583916},{"NoteNumber":59,"Velocity":72,"Duration":116666,"SoundDuration":116666,"Delta":162583916},{"NoteNumber":70,"Velocity":80,"Duration":117006,"SoundDuration":117006,"Delta":162683916},{"NoteNumber":58,"Velocity":70,"Duration":117006,"SoundDuration":117006,"Delta":162683916},{"NoteNumber":63,"Velocity":76,"Duration":118707,"SoundDuration":118707,"Delta":162783916},{"NoteNumber":51,"Velocity":66,"Duration":118707,"SoundDuration":118707,"Delta":162783916},{"NoteNumber":66,"Velocity":86,"Duration":199999,"SoundDuration":199999,"Delta":162885957},{"NoteNumber":54,"Velocity":76,"Duration":199999,"SoundDuration":199999,"Delta":162885957},{"NoteNumber":63,"Velocity":72,"Duration":156250,"SoundDuration":156250,"Delta":163775087},{"NoteNumber":75,"Velocity":85,"Duration":156250,"SoundDuration":156250,"Delta":163775087},{"NoteNumber":39,"Velocity":60,"Duration":156250,"SoundDuration":156250,"Delta":163775087},{"NoteNumber":51,"Velocity":71,"Duration":156250,"SoundDuration":156250,"Delta":163775087},{"NoteNumber":75,"Velocity":84,"Duration":1162337,"SoundDuration":1162337,"Delta":163931337},{"NoteNumber":87,"Velocity":99,"Duration":1162337,"SoundDuration":1162337,"Delta":163931337},{"NoteNumber":27,"Velocity":70,"Duration":624220,"SoundDuration":624220,"Delta":163931337},{"NoteNumber":39,"Velocity":83,"Duration":624220,"SoundDuration":624220,"Delta":163931337},{"NoteNumber":74,"Velocity":75,"Duration":528634,"SoundDuration":528634,"Delta":165093674},{"NoteNumber":86,"Velocity":89,"Duration":528634,"SoundDuration":528634,"Delta":165093674},{"NoteNumber":63,"Velocity":82,"Duration":1041455,"SoundDuration":1041455,"Delta":165093674},{"NoteNumber":51,"Velocity":69,"Duration":1041455,"SoundDuration":1041455,"Delta":165093674},{"NoteNumber":78,"Velocity":68,"Duration":512821,"SoundDuration":512821,"Delta":165622308},{"NoteNumber":90,"Velocity":80,"Duration":512821,"SoundDuration":512821,"Delta":165622308},{"NoteNumber":77,"Velocity":79,"Duration":524016,"SoundDuration":524016,"Delta":166135129},{"NoteNumber":89,"Velocity":93,"Duration":524016,"SoundDuration":524016,"Delta":166135129},{"NoteNumber":50,"Velocity":65,"Duration":1039037,"SoundDuration":1039037,"Delta":166135129},{"NoteNumber":62,"Velocity":77,"Duration":1039037,"SoundDuration":1039037,"Delta":166135129},{"NoteNumber":70,"Velocity":67,"Duration":515020,"SoundDuration":515020,"Delta":166659146},{"NoteNumber":82,"Velocity":79,"Duration":515020,"SoundDuration":515020,"Delta":166659146},{"NoteNumber":76,"Velocity":74,"Duration":1114960,"SoundDuration":1114960,"Delta":167174167},{"NoteNumber":88,"Velocity":88,"Duration":1114960,"SoundDuration":1114960,"Delta":167174167},{"NoteNumber":49,"Velocity":63,"Duration":1114960,"SoundDuration":1114960,"Delta":167174167},{"NoteNumber":61,"Velocity":75,"Duration":1114960,"SoundDuration":1114960,"Delta":167174167},{"NoteNumber":75,"Velocity":79,"Duration":1117827,"SoundDuration":1117827,"Delta":168289128},{"NoteNumber":87,"Velocity":94,"Duration":1117827,"SoundDuration":1117827,"Delta":168289128},{"NoteNumber":48,"Velocity":65,"Duration":1117827,"SoundDuration":1117827,"Delta":168289128},{"NoteNumber":60,"Velocity":77,"Duration":1117827,"SoundDuration":1117827,"Delta":168289128},{"NoteNumber":74,"Velocity":78,"Duration":526316,"SoundDuration":526316,"Delta":169406955},{"NoteNumber":86,"Velocity":92,"Duration":526316,"SoundDuration":526316,"Delta":169406955},{"NoteNumber":59,"Velocity":75,"Duration":1045797,"SoundDuration":1045797,"Delta":169406955},{"NoteNumber":47,"Velocity":63,"Duration":1045797,"SoundDuration":1045797,"Delta":169406955},{"NoteNumber":68,"Velocity":66,"Duration":519481,"SoundDuration":519481,"Delta":169933271},{"NoteNumber":80,"Velocity":78,"Duration":519481,"SoundDuration":519481,"Delta":169933271},{"NoteNumber":73,"Velocity":78,"Duration":524016,"SoundDuration":524016,"Delta":170452752},{"NoteNumber":85,"Velocity":92,"Duration":524016,"SoundDuration":524016,"Delta":170452752},{"NoteNumber":46,"Velocity":63,"Duration":1045755,"SoundDuration":1045755,"Delta":170452752},{"NoteNumber":58,"Velocity":75,"Duration":1045755,"SoundDuration":1045755,"Delta":170452752},{"NoteNumber":66,"Velocity":65,"Duration":521738,"SoundDuration":521738,"Delta":170976769},{"NoteNumber":78,"Velocity":77,"Duration":521738,"SoundDuration":521738,"Delta":170976769},{"NoteNumber":72,"Velocity":71,"Duration":1123117,"SoundDuration":1123117,"Delta":171498508},{"NoteNumber":84,"Velocity":84,"Duration":1123117,"SoundDuration":1123117,"Delta":171498508},{"NoteNumber":45,"Velocity":62,"Duration":1123117,"SoundDuration":1123117,"Delta":171498508},{"NoteNumber":57,"Velocity":74,"Duration":1123117,"SoundDuration":1123117,"Delta":171498508},{"NoteNumber":71,"Velocity":76,"Duration":1095427,"SoundDuration":1095427,"Delta":172621625},{"NoteNumber":83,"Velocity":90,"Duration":1095427,"SoundDuration":1095427,"Delta":172621625},{"NoteNumber":44,"Velocity":62,"Duration":1095427,"SoundDuration":1095427,"Delta":172621625},{"NoteNumber":56,"Velocity":73,"Duration":1095427,"SoundDuration":1095427,"Delta":172621625},{"NoteNumber":70,"Velocity":70,"Duration":547545,"SoundDuration":547545,"Delta":173717052},{"NoteNumber":82,"Velocity":87,"Duration":547545,"SoundDuration":547545,"Delta":173717052},{"NoteNumber":55,"Velocity":62,"Duration":1083355,"SoundDuration":1083355,"Delta":173717052},{"NoteNumber":43,"Velocity":52,"Duration":1083355,"SoundDuration":1083355,"Delta":173717052},{"NoteNumber":63,"Velocity":60,"Duration":535809,"SoundDuration":535809,"Delta":174264597},{"NoteNumber":75,"Velocity":71,"Duration":535809,"SoundDuration":535809,"Delta":174264597},{"NoteNumber":69,"Velocity":67,"Duration":1118781,"SoundDuration":1118781,"Delta":174800407},{"NoteNumber":81,"Velocity":79,"Duration":1118781,"SoundDuration":1118781,"Delta":174800407},{"NoteNumber":42,"Velocity":57,"Duration":1118781,"SoundDuration":1118781,"Delta":174800407},{"NoteNumber":54,"Velocity":68,"Duration":1118781,"SoundDuration":1118781,"Delta":174800407},{"NoteNumber":68,"Velocity":66,"Duration":547545,"SoundDuration":547545,"Delta":175919188},{"NoteNumber":80,"Velocity":78,"Duration":547545,"SoundDuration":547545,"Delta":175919188},{"NoteNumber":53,"Velocity":61,"Duration":1044046,"SoundDuration":1044046,"Delta":175919188},{"NoteNumber":41,"Velocity":51,"Duration":1044046,"SoundDuration":1044046,"Delta":175919188},{"NoteNumber":62,"Velocity":58,"Duration":496501,"SoundDuration":496501,"Delta":176466733},{"NoteNumber":74,"Velocity":69,"Duration":496501,"SoundDuration":496501,"Delta":176466733},{"NoteNumber":63,"Velocity":66,"Duration":162548,"SoundDuration":162548,"Delta":176963234},{"NoteNumber":75,"Velocity":78,"Duration":162548,"SoundDuration":162548,"Delta":176963234},{"NoteNumber":39,"Velocity":65,"Duration":162548,"SoundDuration":162548,"Delta":176963234},{"NoteNumber":51,"Velocity":77,"Duration":162548,"SoundDuration":162548,"Delta":176963234},{"NoteNumber":75,"Velocity":76,"Duration":1132076,"SoundDuration":1132076,"Delta":177125783},{"NoteNumber":87,"Velocity":90,"Duration":1132076,"SoundDuration":1132076,"Delta":177125783},{"NoteNumber":27,"Velocity":75,"Duration":1132076,"SoundDuration":1132076,"Delta":177125783},{"NoteNumber":39,"Velocity":89,"Duration":1132076,"SoundDuration":1132076,"Delta":177125783},{"NoteNumber":74,"Velocity":71,"Duration":1036759,"SoundDuration":1036759,"Delta":178257859},{"NoteNumber":86,"Velocity":84,"Duration":1036759,"SoundDuration":1036759,"Delta":178257859},{"NoteNumber":40,"Velocity":69,"Duration":515020,"SoundDuration":515020,"Delta":178257859},{"NoteNumber":52,"Velocity":82,"Duration":515020,"SoundDuration":515020,"Delta":178257859},{"NoteNumber":47,"Velocity":61,"Duration":521738,"SoundDuration":521738,"Delta":178772880},{"NoteNumber":59,"Velocity":72,"Duration":521738,"SoundDuration":521738,"Delta":178772880},{"NoteNumber":73,"Velocity":72,"Duration":1038980,"SoundDuration":1038980,"Delta":179294619},{"NoteNumber":85,"Velocity":85,"Duration":1038980,"SoundDuration":1038980,"Delta":179294619},{"NoteNumber":46,"Velocity":66,"Duration":517241,"SoundDuration":517241,"Delta":179294619},{"NoteNumber":58,"Velocity":78,"Duration":517241,"SoundDuration":517241,"Delta":179294619},{"NoteNumber":51,"Velocity":59,"Duration":521738,"SoundDuration":521738,"Delta":179811860},{"NoteNumber":39,"Velocity":59,"Duration":521738,"SoundDuration":521738,"Delta":179811860},{"NoteNumber":58,"Velocity":70,"Duration":521738,"SoundDuration":521738,"Delta":179811860},{"NoteNumber":72,"Velocity":67,"Duration":1123117,"SoundDuration":1123117,"Delta":180333599},{"NoteNumber":84,"Velocity":82,"Duration":1123117,"SoundDuration":1123117,"Delta":180333599},{"NoteNumber":45,"Velocity":64,"Duration":1123117,"SoundDuration":1123117,"Delta":180333599},{"NoteNumber":57,"Velocity":76,"Duration":1123117,"SoundDuration":1123117,"Delta":180333599},{"NoteNumber":71,"Velocity":68,"Duration":1132587,"SoundDuration":1132587,"Delta":181456716},{"NoteNumber":83,"Velocity":81,"Duration":1132587,"SoundDuration":1132587,"Delta":181456716},{"NoteNumber":44,"Velocity":71,"Duration":1132587,"SoundDuration":1132587,"Delta":181456716},{"NoteNumber":56,"Velocity":84,"Duration":1132587,"SoundDuration":1132587,"Delta":181456716},{"NoteNumber":70,"Velocity":62,"Duration":1062484,"SoundDuration":1062484,"Delta":182589304},{"NoteNumber":82,"Velocity":74,"Duration":1062484,"SoundDuration":1062484,"Delta":182589304},{"NoteNumber":43,"Velocity":65,"Duration":533523,"SoundDuration":533523,"Delta":182589304},{"NoteNumber":55,"Velocity":77,"Duration":533523,"SoundDuration":533523,"Delta":182589304},{"NoteNumber":37,"Velocity":60,"Duration":528961,"SoundDuration":528961,"Delta":183122827},{"NoteNumber":49,"Velocity":71,"Duration":528961,"SoundDuration":528961,"Delta":183122827},{"NoteNumber":69,"Velocity":63,"Duration":1043497,"SoundDuration":1043497,"Delta":183651788},{"NoteNumber":81,"Velocity":75,"Duration":1043497,"SoundDuration":1043497,"Delta":183651788},{"NoteNumber":36,"Velocity":61,"Duration":519481,"SoundDuration":519481,"Delta":183651788},{"NoteNumber":48,"Velocity":72,"Duration":519481,"SoundDuration":519481,"Delta":183651788},{"NoteNumber":42,"Velocity":56,"Duration":524016,"SoundDuration":524016,"Delta":184171269},{"NoteNumber":54,"Velocity":66,"Duration":524016,"SoundDuration":524016,"Delta":184171269},{"NoteNumber":68,"Velocity":59,"Duration":1123117,"SoundDuration":1123117,"Delta":184695286},{"NoteNumber":80,"Velocity":70,"Duration":1123117,"SoundDuration":1123117,"Delta":184695286},{"NoteNumber":41,"Velocity":60,"Duration":1123117,"SoundDuration":1123117,"Delta":184695286},{"NoteNumber":53,"Velocity":71,"Duration":1123117,"SoundDuration":1123117,"Delta":184695286},{"NoteNumber":67,"Velocity":59,"Duration":1095615,"SoundDuration":1095615,"Delta":185818403},{"NoteNumber":79,"Velocity":70,"Duration":1095615,"SoundDuration":1095615,"Delta":185818403},{"NoteNumber":40,"Velocity":56,"Duration":545156,"SoundDuration":545156,"Delta":185818403},{"NoteNumber":52,"Velocity":67,"Duration":545156,"SoundDuration":545156,"Delta":185818403},{"NoteNumber":35,"Velocity":48,"Duration":550458,"SoundDuration":550458,"Delta":186363560},{"NoteNumber":47,"Velocity":57,"Duration":550458,"SoundDuration":550458,"Delta":186363560},{"NoteNumber":66,"Velocity":56,"Duration":1083355,"SoundDuration":1083355,"Delta":186914019},{"NoteNumber":78,"Velocity":67,"Duration":1083355,"SoundDuration":1083355,"Delta":186914019},{"NoteNumber":39,"Velocity":52,"Duration":1083355,"SoundDuration":1083355,"Delta":186914019},{"NoteNumber":51,"Velocity":62,"Duration":1083355,"SoundDuration":1083355,"Delta":186914019},{"NoteNumber":65,"Velocity":54,"Duration":1100540,"SoundDuration":1100540,"Delta":187997374},{"NoteNumber":77,"Velocity":64,"Duration":1100540,"SoundDuration":1100540,"Delta":187997374},{"NoteNumber":38,"Velocity":51,"Duration":547545,"SoundDuration":547545,"Delta":187997374},{"NoteNumber":50,"Velocity":60,"Duration":547545,"SoundDuration":547545,"Delta":187997374},{"NoteNumber":34,"Velocity":44,"Duration":552995,"SoundDuration":552995,"Delta":188544919},{"NoteNumber":46,"Velocity":52,"Duration":552995,"SoundDuration":552995,"Delta":188544919},{"NoteNumber":64,"Velocity":51,"Duration":559806,"SoundDuration":559806,"Delta":189097914},{"NoteNumber":76,"Velocity":60,"Duration":559806,"SoundDuration":559806,"Delta":189097914},{"NoteNumber":37,"Velocity":46,"Duration":559806,"SoundDuration":559806,"Delta":189097914},{"NoteNumber":49,"Velocity":55,"Duration":559806,"SoundDuration":559806,"Delta":189097914},{"NoteNumber":39,"Velocity":36,"Duration":87059,"SoundDuration":87059,"Delta":190243548},{"NoteNumber":41,"Velocity":35,"Duration":86733,"SoundDuration":86733,"Delta":190309055},{"NoteNumber":39,"Velocity":39,"Duration":86067,"SoundDuration":86067,"Delta":190373974},{"NoteNumber":41,"Velocity":35,"Duration":86660,"SoundDuration":86660,"Delta":190438562},{"NoteNumber":39,"Velocity":36,"Duration":106787,"SoundDuration":106787,"Delta":190503408},{"NoteNumber":41,"Velocity":33,"Duration":105077,"SoundDuration":105077,"Delta":190568143},{"NoteNumber":39,"Velocity":36,"Duration":105614,"SoundDuration":105614,"Delta":190631204},{"NoteNumber":41,"Velocity":33,"Duration":106116,"SoundDuration":106116,"Delta":190694265},{"NoteNumber":39,"Velocity":35,"Duration":126894,"SoundDuration":126894,"Delta":190758186},{"NoteNumber":41,"Velocity":31,"Duration":127431,"SoundDuration":127431,"Delta":190821390},{"NoteNumber":39,"Velocity":35,"Duration":127825,"SoundDuration":127825,"Delta":190885080},{"NoteNumber":41,"Velocity":31,"Duration":129666,"SoundDuration":129666,"Delta":190948821},{"NoteNumber":39,"Velocity":36,"Duration":131124,"SoundDuration":131124,"Delta":191012905},{"NoteNumber":41,"Velocity":31,"Duration":130971,"SoundDuration":130971,"Delta":191078488},{"NoteNumber":39,"Velocity":38,"Duration":131124,"SoundDuration":131124,"Delta":191144030},{"NoteNumber":41,"Velocity":35,"Duration":132443,"SoundDuration":132443,"Delta":191209459},{"NoteNumber":39,"Velocity":41,"Duration":134900,"SoundDuration":134900,"Delta":191275155},{"NoteNumber":41,"Velocity":36,"Duration":135884,"SoundDuration":135884,"Delta":191341902},{"NoteNumber":39,"Velocity":42,"Duration":134763,"SoundDuration":134763,"Delta":191410055},{"NoteNumber":41,"Velocity":37,"Duration":132956,"SoundDuration":132956,"Delta":191477787},{"NoteNumber":39,"Velocity":37,"Duration":65924,"SoundDuration":65924,"Delta":191544819},{"NoteNumber":40,"Velocity":39,"Duration":65636,"SoundDuration":65636,"Delta":191588814},{"NoteNumber":41,"Velocity":41,"Duration":65350,"SoundDuration":65350,"Delta":191632616},{"NoteNumber":42,"Velocity":43,"Duration":65066,"SoundDuration":65066,"Delta":191676227},{"NoteNumber":43,"Velocity":45,"Duration":64785,"SoundDuration":64785,"Delta":191719649},{"NoteNumber":44,"Velocity":47,"Duration":63441,"SoundDuration":63441,"Delta":191762883},{"NoteNumber":45,"Velocity":55,"Duration":125430,"SoundDuration":125430,"Delta":191805646},{"NoteNumber":46,"Velocity":49,"Duration":126058,"SoundDuration":126058,"Delta":191867785},{"NoteNumber":45,"Velocity":55,"Duration":124499,"SoundDuration":124499,"Delta":191931076},{"NoteNumber":46,"Velocity":51,"Duration":124757,"SoundDuration":124757,"Delta":191993844},{"NoteNumber":45,"Velocity":55,"Duration":125371,"SoundDuration":125371,"Delta":192055576},{"NoteNumber":46,"Velocity":51,"Duration":125889,"SoundDuration":125889,"Delta":192118601},{"NoteNumber":45,"Velocity":55,"Duration":126541,"SoundDuration":126541,"Delta":192180948},{"NoteNumber":46,"Velocity":50,"Duration":126498,"SoundDuration":126498,"Delta":192244491},{"NoteNumber":45,"Velocity":53,"Duration":127752,"SoundDuration":127752,"Delta":192307489},{"NoteNumber":46,"Velocity":47,"Duration":129412,"SoundDuration":129412,"Delta":192370990},{"NoteNumber":45,"Velocity":51,"Duration":129506,"SoundDuration":129506,"Delta":192435241},{"NoteNumber":46,"Velocity":47,"Duration":129283,"SoundDuration":129283,"Delta":192500402},{"NoteNumber":45,"Velocity":52,"Duration":129393,"SoundDuration":129393,"Delta":192564747},{"NoteNumber":46,"Velocity":45,"Duration":128687,"SoundDuration":128687,"Delta":192629685},{"NoteNumber":45,"Velocity":50,"Duration":127991,"SoundDuration":127991,"Delta":192694141},{"NoteNumber":46,"Velocity":44,"Duration":128142,"SoundDuration":128142,"Delta":192758373},{"NoteNumber":45,"Velocity":47,"Duration":128855,"SoundDuration":128855,"Delta":192822133},{"NoteNumber":46,"Velocity":42,"Duration":128653,"SoundDuration":128653,"Delta":192886515},{"NoteNumber":45,"Velocity":46,"Duration":127231,"SoundDuration":127231,"Delta":192950989},{"NoteNumber":46,"Velocity":44,"Duration":127599,"SoundDuration":127599,"Delta":193015169},{"NoteNumber":45,"Velocity":43,"Duration":64548,"SoundDuration":64548,"Delta":193078220},{"NoteNumber":44,"Velocity":43,"Duration":65834,"SoundDuration":65834,"Delta":193121048},{"NoteNumber":43,"Velocity":43,"Duration":67269,"SoundDuration":67269,"Delta":193164679},{"NoteNumber":42,"Velocity":42,"Duration":68750,"SoundDuration":68750,"Delta":193209284},{"NoteNumber":41,"Velocity":42,"Duration":70296,"SoundDuration":70296,"Delta":193254843},{"NoteNumber":40,"Velocity":42,"Duration":65847,"SoundDuration":65847,"Delta":193301465},{"NoteNumber":89,"Velocity":60,"Duration":240901,"SoundDuration":240901,"Delta":193347407},{"NoteNumber":82,"Velocity":51,"Duration":240901,"SoundDuration":240901,"Delta":193347407},{"NoteNumber":78,"Velocity":51,"Duration":240901,"SoundDuration":240901,"Delta":193347407},{"NoteNumber":39,"Velocity":42,"Duration":79477,"SoundDuration":79477,"Delta":193347407},{"NoteNumber":41,"Velocity":38,"Duration":80788,"SoundDuration":80788,"Delta":193407027},{"NoteNumber":39,"Velocity":41,"Duration":80934,"SoundDuration":80934,"Delta":193467324},{"NoteNumber":41,"Velocity":35,"Duration":80213,"SoundDuration":80213,"Delta":193528338},{"NoteNumber":87,"Velocity":60,"Duration":487082,"SoundDuration":487082,"Delta":193588309},{"NoteNumber":78,"Velocity":51,"Duration":487082,"SoundDuration":487082,"Delta":193588309},{"NoteNumber":82,"Velocity":51,"Duration":487082,"SoundDuration":487082,"Delta":193588309},{"NoteNumber":39,"Velocity":39,"Duration":90743,"SoundDuration":90743,"Delta":193588309},{"NoteNumber":41,"Velocity":35,"Duration":90638,"SoundDuration":90638,"Delta":193648956},{"NoteNumber":39,"Velocity":39,"Duration":90428,"SoundDuration":90428,"Delta":193709392},{"NoteNumber":41,"Velocity":35,"Duration":91679,"SoundDuration":91679,"Delta":193769602},{"NoteNumber":39,"Velocity":37,"Duration":102644,"SoundDuration":102644,"Delta":193830417},{"NoteNumber":41,"Velocity":31,"Duration":102012,"SoundDuration":102012,"Delta":193892078},{"NoteNumber":39,"Velocity":36,"Duration":101512,"SoundDuration":101512,"Delta":193953554},{"NoteNumber":41,"Velocity":31,"Duration":102316,"SoundDuration":102316,"Delta":194014416},{"NoteNumber":39,"Velocity":36,"Duration":124473,"SoundDuration":124473,"Delta":194075391},{"NoteNumber":41,"Velocity":31,"Duration":124396,"SoundDuration":124396,"Delta":194137652},{"NoteNumber":39,"Velocity":36,"Duration":124070,"SoundDuration":124070,"Delta":194199865},{"NoteNumber":41,"Velocity":31,"Duration":124387,"SoundDuration":124387,"Delta":194262049},{"NoteNumber":39,"Velocity":37,"Duration":124061,"SoundDuration":124061,"Delta":194323935},{"NoteNumber":41,"Velocity":36,"Duration":124341,"SoundDuration":124341,"Delta":194386436},{"NoteNumber":39,"Velocity":39,"Duration":125490,"SoundDuration":125490,"Delta":194447996},{"NoteNumber":41,"Velocity":37,"Duration":125436,"SoundDuration":125436,"Delta":194510777},{"NoteNumber":39,"Velocity":36,"Duration":62727,"SoundDuration":62727,"Delta":194573487},{"NoteNumber":40,"Velocity":38,"Duration":63167,"SoundDuration":63167,"Delta":194615223},{"NoteNumber":41,"Velocity":39,"Duration":63595,"SoundDuration":63595,"Delta":194657258},{"NoteNumber":42,"Velocity":40,"Duration":64084,"SoundDuration":64084,"Delta":194699577},{"NoteNumber":43,"Velocity":41,"Duration":64563,"SoundDuration":64563,"Delta":194742221},{"NoteNumber":44,"Velocity":42,"Duration":64341,"SoundDuration":64341,"Delta":194785195},{"NoteNumber":85,"Velocity":60,"Duration":239731,"SoundDuration":239731,"Delta":194828467},{"NoteNumber":75,"Velocity":60,"Duration":239731,"SoundDuration":239731,"Delta":194828467},{"NoteNumber":78,"Velocity":60,"Duration":239731,"SoundDuration":239731,"Delta":194828467},{"NoteNumber":45,"Velocity":45,"Duration":121130,"SoundDuration":121130,"Delta":194828467},{"NoteNumber":46,"Velocity":38,"Duration":118818,"SoundDuration":118818,"Delta":194889495},{"NoteNumber":45,"Velocity":45,"Duration":118601,"SoundDuration":118601,"Delta":194949597},{"NoteNumber":46,"Velocity":42,"Duration":119234,"SoundDuration":119234,"Delta":195008314},{"NoteNumber":84,"Velocity":60,"Duration":357173,"SoundDuration":357173,"Delta":195068198},{"NoteNumber":78,"Velocity":60,"Duration":357173,"SoundDuration":357173,"Delta":195068198},{"NoteNumber":75,"Velocity":60,"Duration":357173,"SoundDuration":357173,"Delta":195068198},{"NoteNumber":45,"Velocity":45,"Duration":118106,"SoundDuration":118106,"Delta":195068198},{"NoteNumber":46,"Velocity":37,"Duration":119071,"SoundDuration":119071,"Delta":195127548},{"NoteNumber":45,"Velocity":44,"Duration":120325,"SoundDuration":120325,"Delta":195186305},{"NoteNumber":46,"Velocity":37,"Duration":119151,"SoundDuration":119151,"Delta":195246619},{"NoteNumber":45,"Velocity":45,"Duration":118741,"SoundDuration":118741,"Delta":195306630},{"NoteNumber":46,"Velocity":41,"Duration":120485,"SoundDuration":120485,"Delta":195365771},{"NoteNumber":45,"Velocity":45,"Duration":121116,"SoundDuration":121116,"Delta":195425372},{"NoteNumber":46,"Velocity":42,"Duration":119971,"SoundDuration":119971,"Delta":195486257},{"NoteNumber":71,"Velocity":51,"Duration":241231,"SoundDuration":241231,"Delta":195546488},{"NoteNumber":75,"Velocity":51,"Duration":241231,"SoundDuration":241231,"Delta":195546488},{"NoteNumber":80,"Velocity":60,"Duration":241231,"SoundDuration":241231,"Delta":195546488},{"NoteNumber":45,"Velocity":48,"Duration":120452,"SoundDuration":120452,"Delta":195546488},{"NoteNumber":46,"Velocity":40,"Duration":121441,"SoundDuration":121441,"Delta":195606229},{"NoteNumber":45,"Velocity":47,"Duration":120778,"SoundDuration":120778,"Delta":195666941},{"NoteNumber":46,"Velocity":39,"Duration":120577,"SoundDuration":120577,"Delta":195727670},{"NoteNumber":71,"Velocity":51,"Duration":369065,"SoundDuration":369065,"Delta":195787719},{"NoteNumber":75,"Velocity":51,"Duration":369065,"SoundDuration":369065,"Delta":195787719},{"NoteNumber":78,"Velocity":60,"Duration":369065,"SoundDuration":369065,"Delta":195787719},{"NoteNumber":45,"Velocity":46,"Duration":121404,"SoundDuration":121404,"Delta":195787719},{"NoteNumber":46,"Velocity":37,"Duration":121062,"SoundDuration":121062,"Delta":195848247},{"NoteNumber":45,"Velocity":46,"Duration":120876,"SoundDuration":120876,"Delta":195909124},{"NoteNumber":46,"Velocity":43,"Duration":123091,"SoundDuration":123091,"Delta":195969310},{"NoteNumber":45,"Velocity":46,"Duration":62400,"SoundDuration":62400,"Delta":196030001},{"NoteNumber":44,"Velocity":45,"Duration":63673,"SoundDuration":63673,"Delta":196071410},{"NoteNumber":43,"Velocity":44,"Duration":65053,"SoundDuration":65053,"Delta":196113641},{"NoteNumber":42,"Velocity":43,"Duration":66417,"SoundDuration":66417,"Delta":196156784},{"NoteNumber":41,"Velocity":43,"Duration":67921,"SoundDuration":67921,"Delta":196200800},{"NoteNumber":40,"Velocity":42,"Duration":64065,"SoundDuration":64065,"Delta":196245806},{"NoteNumber":66,"Velocity":51,"Duration":237525,"SoundDuration":237525,"Delta":196290401},{"NoteNumber":70,"Velocity":51,"Duration":237525,"SoundDuration":237525,"Delta":196290401},{"NoteNumber":77,"Velocity":60,"Duration":237525,"SoundDuration":237525,"Delta":196290401},{"NoteNumber":39,"Velocity":41,"Duration":79505,"SoundDuration":79505,"Delta":196290401},{"NoteNumber":41,"Velocity":38,"Duration":78902,"SoundDuration":78902,"Delta":196350032},{"NoteNumber":39,"Velocity":41,"Duration":79445,"SoundDuration":79445,"Delta":196409061},{"NoteNumber":41,"Velocity":35,"Duration":79362,"SoundDuration":79362,"Delta":196468775},{"NoteNumber":66,"Velocity":51,"Duration":486783,"SoundDuration":486783,"Delta":196527927},{"NoteNumber":70,"Velocity":51,"Duration":486783,"SoundDuration":486783,"Delta":196527927},{"NoteNumber":75,"Velocity":60,"Duration":486783,"SoundDuration":486783,"Delta":196527927},{"NoteNumber":39,"Velocity":39,"Duration":90262,"SoundDuration":90262,"Delta":196527927},{"NoteNumber":41,"Velocity":35,"Duration":90730,"SoundDuration":90730,"Delta":196588380},{"NoteNumber":39,"Velocity":39,"Duration":91140,"SoundDuration":91140,"Delta":196648498},{"NoteNumber":41,"Velocity":35,"Duration":91213,"SoundDuration":91213,"Delta":196709590},{"NoteNumber":39,"Velocity":37,"Duration":101587,"SoundDuration":101587,"Delta":196769981},{"NoteNumber":41,"Velocity":31,"Duration":101584,"SoundDuration":101584,"Delta":196831359},{"NoteNumber":39,"Velocity":36,"Duration":102341,"SoundDuration":102341,"Delta":196891960},{"NoteNumber":41,"Velocity":31,"Duration":102615,"SoundDuration":102615,"Delta":196953435},{"NoteNumber":39,"Velocity":36,"Duration":124473,"SoundDuration":124473,"Delta":197014710},{"NoteNumber":41,"Velocity":31,"Duration":124396,"SoundDuration":124396,"Delta":197076971},{"NoteNumber":39,"Velocity":36,"Duration":124070,"SoundDuration":124070,"Delta":197139183},{"NoteNumber":41,"Velocity":31,"Duration":124387,"SoundDuration":124387,"Delta":197201368},{"NoteNumber":39,"Velocity":37,"Duration":124061,"SoundDuration":124061,"Delta":197263254},{"NoteNumber":41,"Velocity":36,"Duration":124341,"SoundDuration":124341,"Delta":197325755},{"NoteNumber":39,"Velocity":39,"Duration":125806,"SoundDuration":125806,"Delta":197387315},{"NoteNumber":41,"Velocity":37,"Duration":127256,"SoundDuration":127256,"Delta":197450096},{"NoteNumber":39,"Velocity":36,"Duration":64230,"SoundDuration":64230,"Delta":197513121},{"NoteNumber":40,"Velocity":36,"Duration":63866,"SoundDuration":63866,"Delta":197555985},{"NoteNumber":41,"Velocity":37,"Duration":63506,"SoundDuration":63506,"Delta":197598629},{"NoteNumber":42,"Velocity":38,"Duration":63149,"SoundDuration":63149,"Delta":197641038},{"NoteNumber":43,"Velocity":39,"Duration":62797,"SoundDuration":62797,"Delta":197683179},{"NoteNumber":44,"Velocity":39,"Duration":61312,"SoundDuration":61312,"Delta":197725108},{"NoteNumber":66,"Velocity":51,"Duration":234406,"SoundDuration":234406,"Delta":197766757},{"NoteNumber":63,"Velocity":51,"Duration":234406,"SoundDuration":234406,"Delta":197766757},{"NoteNumber":73,"Velocity":60,"Duration":234406,"SoundDuration":234406,"Delta":197766757},{"NoteNumber":45,"Velocity":43,"Duration":116914,"SoundDuration":116914,"Delta":197766757},{"NoteNumber":46,"Velocity":36,"Duration":117518,"SoundDuration":117518,"Delta":197825430},{"NoteNumber":45,"Velocity":43,"Duration":117492,"SoundDuration":117492,"Delta":197883672},{"NoteNumber":46,"Velocity":36,"Duration":118121,"SoundDuration":118121,"Delta":197942949},{"NoteNumber":63,"Velocity":51,"Duration":362854,"SoundDuration":362854,"Delta":198001164},{"NoteNumber":66,"Velocity":51,"Duration":362854,"SoundDuration":362854,"Delta":198001164},{"NoteNumber":72,"Velocity":60,"Duration":362854,"SoundDuration":362854,"Delta":198001164},{"NoteNumber":45,"Velocity":42,"Duration":119530,"SoundDuration":119530,"Delta":198001164},{"NoteNumber":46,"Velocity":37,"Duration":119988,"SoundDuration":119988,"Delta":198061071},{"NoteNumber":45,"Velocity":42,"Duration":121839,"SoundDuration":121839,"Delta":198120695},{"NoteNumber":46,"Velocity":37,"Duration":122677,"SoundDuration":122677,"Delta":198181059},{"NoteNumber":45,"Velocity":42,"Duration":121484,"SoundDuration":121484,"Delta":198242534},{"NoteNumber":46,"Velocity":38,"Duration":121917,"SoundDuration":121917,"Delta":198303737},{"NoteNumber":45,"Velocity":41,"Duration":122342,"SoundDuration":122342,"Delta":198364019},{"NoteNumber":46,"Velocity":36,"Duration":119088,"SoundDuration":119088,"Delta":198425655},{"NoteNumber":59,"Velocity":51,"Duration":231712,"SoundDuration":231712,"Delta":198486361},{"NoteNumber":63,"Velocity":51,"Duration":231712,"SoundDuration":231712,"Delta":198486361},{"NoteNumber":68,"Velocity":60,"Duration":231712,"SoundDuration":231712,"Delta":198486361},{"NoteNumber":45,"Velocity":38,"Duration":116233,"SoundDuration":116233,"Delta":198486361},{"NoteNumber":46,"Velocity":33,"Duration":115443,"SoundDuration":115443,"Delta":198544743},{"NoteNumber":45,"Velocity":40,"Duration":115478,"SoundDuration":115478,"Delta":198602594},{"NoteNumber":46,"Velocity":35,"Duration":115642,"SoundDuration":115642,"Delta":198660186},{"NoteNumber":59,"Velocity":51,"Duration":360589,"SoundDuration":360589,"Delta":198718073},{"NoteNumber":63,"Velocity":51,"Duration":360589,"SoundDuration":360589,"Delta":198718073},{"NoteNumber":66,"Velocity":60,"Duration":360589,"SoundDuration":360589,"Delta":198718073},{"NoteNumber":45,"Velocity":42,"Duration":116710,"SoundDuration":116710,"Delta":198718073},{"NoteNumber":46,"Velocity":35,"Duration":117088,"SoundDuration":117088,"Delta":198775828},{"NoteNumber":45,"Velocity":44,"Duration":117985,"SoundDuration":117985,"Delta":198834783},{"NoteNumber":46,"Velocity":38,"Duration":122129,"SoundDuration":122129,"Delta":198892917},{"NoteNumber":45,"Velocity":44,"Duration":62277,"SoundDuration":62277,"Delta":198952769},{"NoteNumber":44,"Velocity":44,"Duration":63169,"SoundDuration":63169,"Delta":198994143},{"NoteNumber":43,"Velocity":43,"Duration":64087,"SoundDuration":64087,"Delta":199036108},{"NoteNumber":42,"Velocity":42,"Duration":65088,"SoundDuration":65088,"Delta":199078662},{"NoteNumber":41,"Velocity":41,"Duration":66023,"SoundDuration":66023,"Delta":199121897},{"NoteNumber":40,"Velocity":41,"Duration":64319,"SoundDuration":64319,"Delta":199165758},{"NoteNumber":54,"Velocity":51,"Duration":235008,"SoundDuration":235008,"Delta":199210302},{"NoteNumber":58,"Velocity":51,"Duration":235008,"SoundDuration":235008,"Delta":199210302},{"NoteNumber":65,"Velocity":60,"Duration":235008,"SoundDuration":235008,"Delta":199210302},{"NoteNumber":39,"Velocity":40,"Duration":77751,"SoundDuration":77751,"Delta":199210302},{"NoteNumber":41,"Velocity":38,"Duration":78683,"SoundDuration":78683,"Delta":199268635},{"NoteNumber":39,"Velocity":41,"Duration":79012,"SoundDuration":79012,"Delta":199327556},{"NoteNumber":41,"Velocity":35,"Duration":77623,"SoundDuration":77623,"Delta":199386845},{"NoteNumber":54,"Velocity":51,"Duration":347978,"SoundDuration":347978,"Delta":199445311},{"NoteNumber":58,"Velocity":51,"Duration":347978,"SoundDuration":347978,"Delta":199445311},{"NoteNumber":63,"Velocity":60,"Duration":347978,"SoundDuration":347978,"Delta":199445311},{"NoteNumber":39,"Velocity":39,"Duration":87058,"SoundDuration":87058,"Delta":199445311},{"NoteNumber":41,"Velocity":35,"Duration":87468,"SoundDuration":87468,"Delta":199503073},{"NoteNumber":39,"Velocity":39,"Duration":86158,"SoundDuration":86158,"Delta":199561591},{"NoteNumber":41,"Velocity":35,"Duration":86502,"SoundDuration":86502,"Delta":199619167},{"NoteNumber":39,"Velocity":37,"Duration":97535,"SoundDuration":97535,"Delta":199676449},{"NoteNumber":41,"Velocity":31,"Duration":96783,"SoundDuration":96783,"Delta":199734967},{"NoteNumber":39,"Velocity":36,"Duration":96979,"SoundDuration":96979,"Delta":199793289},{"NoteNumber":41,"Velocity":31,"Duration":97466,"SoundDuration":97466,"Delta":199851206},{"NoteNumber":39,"Velocity":36,"Duration":118535,"SoundDuration":118535,"Delta":199909762},{"NoteNumber":41,"Velocity":31,"Duration":119963,"SoundDuration":119963,"Delta":199968312},{"NoteNumber":39,"Velocity":36,"Duration":119384,"SoundDuration":119384,"Delta":200028298},{"NoteNumber":41,"Velocity":31,"Duration":120053,"SoundDuration":120053,"Delta":200088276},{"NoteNumber":39,"Velocity":37,"Duration":121294,"SoundDuration":121294,"Delta":200147682},{"NoteNumber":41,"Velocity":36,"Duration":120703,"SoundDuration":120703,"Delta":200208330},{"NoteNumber":39,"Velocity":39,"Duration":120499,"SoundDuration":120499,"Delta":200268977},{"NoteNumber":41,"Velocity":37,"Duration":120356,"SoundDuration":120356,"Delta":200329033},{"NoteNumber":39,"Velocity":55,"Duration":59913,"SoundDuration":59913,"Delta":200389477},{"NoteNumber":40,"Velocity":56,"Duration":59391,"SoundDuration":59391,"Delta":200429493},{"NoteNumber":41,"Velocity":57,"Duration":58878,"SoundDuration":58878,"Delta":200469192},{"NoteNumber":42,"Velocity":58,"Duration":58397,"SoundDuration":58397,"Delta":200508531},{"NoteNumber":43,"Velocity":59,"Duration":57885,"SoundDuration":57885,"Delta":200547563},{"NoteNumber":44,"Velocity":60,"Duration":57139,"SoundDuration":57139,"Delta":200586233},{"NoteNumber":51,"Velocity":62,"Duration":226983,"SoundDuration":226983,"Delta":200624498},{"NoteNumber":54,"Velocity":62,"Duration":226983,"SoundDuration":226983,"Delta":200624498},{"NoteNumber":61,"Velocity":74,"Duration":226983,"SoundDuration":226983,"Delta":200624498},{"NoteNumber":45,"Velocity":63,"Duration":76121,"SoundDuration":76121,"Delta":200624498},{"NoteNumber":46,"Velocity":55,"Duration":75175,"SoundDuration":75175,"Delta":200681498},{"NoteNumber":45,"Velocity":63,"Duration":75625,"SoundDuration":75625,"Delta":200737975},{"NoteNumber":46,"Velocity":54,"Duration":75555,"SoundDuration":75555,"Delta":200794589},{"NoteNumber":51,"Velocity":62,"Duration":340776,"SoundDuration":340776,"Delta":200851481},{"NoteNumber":54,"Velocity":62,"Duration":340776,"SoundDuration":340776,"Delta":200851481},{"NoteNumber":60,"Velocity":74,"Duration":340776,"SoundDuration":340776,"Delta":200851481},{"NoteNumber":45,"Velocity":62,"Duration":75221,"SoundDuration":75221,"Delta":200851481},{"NoteNumber":46,"Velocity":56,"Duration":76024,"SoundDuration":76024,"Delta":200907691},{"NoteNumber":45,"Velocity":65,"Duration":75074,"SoundDuration":75074,"Delta":200964726},{"NoteNumber":46,"Velocity":57,"Duration":75871,"SoundDuration":75871,"Delta":201021108},{"NoteNumber":45,"Velocity":67,"Duration":76068,"SoundDuration":76068,"Delta":201077896},{"NoteNumber":46,"Velocity":60,"Duration":76428,"SoundDuration":76428,"Delta":201135061},{"NoteNumber":45,"Velocity":67,"Duration":76687,"SoundDuration":76687,"Delta":201192258},{"NoteNumber":46,"Velocity":58,"Duration":74911,"SoundDuration":74911,"Delta":201249862},{"NoteNumber":45,"Velocity":61,"Duration":68910,"SoundDuration":68910,"Delta":201307412},{"NoteNumber":46,"Velocity":62,"Duration":67912,"SoundDuration":67912,"Delta":201359258},{"NoteNumber":47,"Velocity":64,"Duration":67397,"SoundDuration":67397,"Delta":201410279},{"NoteNumber":48,"Velocity":66,"Duration":66778,"SoundDuration":66778,"Delta":201460897},{"NoteNumber":49,"Velocity":67,"Duration":66280,"SoundDuration":66280,"Delta":201511065},{"NoteNumber":50,"Velocity":69,"Duration":65682,"SoundDuration":65682,"Delta":201560844},{"NoteNumber":51,"Velocity":71,"Duration":65146,"SoundDuration":65146,"Delta":201610186},{"NoteNumber":53,"Velocity":73,"Duration":64621,"SoundDuration":64621,"Delta":201659099},{"NoteNumber":54,"Velocity":74,"Duration":64102,"SoundDuration":64102,"Delta":201707644},{"NoteNumber":55,"Velocity":76,"Duration":63593,"SoundDuration":63593,"Delta":201755772},{"NoteNumber":56,"Velocity":78,"Duration":67002,"SoundDuration":67002,"Delta":201803543},{"NoteNumber":63,"Velocity":71,"Duration":224594,"SoundDuration":224594,"Delta":201851784},{"NoteNumber":66,"Velocity":71,"Duration":224594,"SoundDuration":224594,"Delta":201851784},{"NoteNumber":73,"Velocity":94,"Duration":224594,"SoundDuration":224594,"Delta":201851784},{"NoteNumber":57,"Velocity":75,"Duration":74594,"SoundDuration":74594,"Delta":201851784},{"NoteNumber":58,"Velocity":71,"Duration":74615,"SoundDuration":74615,"Delta":201907839},{"NoteNumber":57,"Velocity":73,"Duration":74925,"SoundDuration":74925,"Delta":201964005},{"NoteNumber":58,"Velocity":70,"Duration":75058,"SoundDuration":75058,"Delta":202019991},{"NoteNumber":63,"Velocity":68,"Duration":338119,"SoundDuration":338119,"Delta":202076378},{"NoteNumber":66,"Velocity":68,"Duration":338119,"SoundDuration":338119,"Delta":202076378},{"NoteNumber":72,"Velocity":91,"Duration":338119,"SoundDuration":338119,"Delta":202076378},{"NoteNumber":57,"Velocity":75,"Duration":75115,"SoundDuration":75115,"Delta":202076378},{"NoteNumber":58,"Velocity":71,"Duration":75896,"SoundDuration":75896,"Delta":202132823},{"NoteNumber":57,"Velocity":76,"Duration":75672,"SoundDuration":75672,"Delta":202189570},{"NoteNumber":58,"Velocity":71,"Duration":75020,"SoundDuration":75020,"Delta":202246515},{"NoteNumber":57,"Velocity":77,"Duration":74068,"SoundDuration":74068,"Delta":202302836},{"NoteNumber":58,"Velocity":72,"Duration":75034,"SoundDuration":75034,"Delta":202358247},{"NoteNumber":57,"Velocity":79,"Duration":74415,"SoundDuration":74415,"Delta":202414498},{"NoteNumber":58,"Velocity":75,"Duration":74811,"SoundDuration":74811,"Delta":202470326},{"NoteNumber":57,"Velocity":76,"Duration":74716,"SoundDuration":74716,"Delta":202526270},{"NoteNumber":58,"Velocity":69,"Duration":75154,"SoundDuration":75154,"Delta":202582536},{"NoteNumber":57,"Velocity":81,"Duration":76163,"SoundDuration":76163,"Delta":202638607},{"NoteNumber":58,"Velocity":74,"Duration":76824,"SoundDuration":76824,"Delta":202695751},{"NoteNumber":57,"Velocity":82,"Duration":75511,"SoundDuration":75511,"Delta":202753314},{"NoteNumber":58,"Velocity":75,"Duration":74047,"SoundDuration":74047,"Delta":202810099},{"NoteNumber":57,"Velocity":83,"Duration":74160,"SoundDuration":74160,"Delta":202865811},{"NoteNumber":58,"Velocity":75,"Duration":73440,"SoundDuration":73440,"Delta":202921390},{"NoteNumber":57,"Velocity":85,"Duration":73167,"SoundDuration":73167,"Delta":202976629},{"NoteNumber":58,"Velocity":77,"Duration":73452,"SoundDuration":73452,"Delta":203031555},{"NoteNumber":57,"Velocity":86,"Duration":73979,"SoundDuration":73979,"Delta":203086448},{"NoteNumber":58,"Velocity":78,"Duration":73556,"SoundDuration":73556,"Delta":203142246},{"NoteNumber":68,"Velocity":91,"Duration":228137,"SoundDuration":228137,"Delta":203196792},{"NoteNumber":71,"Velocity":91,"Duration":228137,"SoundDuration":228137,"Delta":203196792},{"NoteNumber":75,"Velocity":102,"Duration":228137,"SoundDuration":228137,"Delta":203196792},{"NoteNumber":59,"Velocity":82,"Duration":228137,"SoundDuration":228137,"Delta":203196792},{"NoteNumber":63,"Velocity":92,"Duration":228137,"SoundDuration":228137,"Delta":203196792},{"NoteNumber":56,"Velocity":82,"Duration":228137,"SoundDuration":228137,"Delta":203196792},{"NoteNumber":68,"Velocity":86,"Duration":352940,"SoundDuration":352940,"Delta":203424929},{"NoteNumber":71,"Velocity":86,"Duration":352940,"SoundDuration":352940,"Delta":203424929},{"NoteNumber":76,"Velocity":96,"Duration":352940,"SoundDuration":352940,"Delta":203424929},{"NoteNumber":75,"Velocity":96,"Duration":352940,"SoundDuration":352940,"Delta":203424929},{"NoteNumber":59,"Velocity":80,"Duration":352940,"SoundDuration":352940,"Delta":203424929},{"NoteNumber":63,"Velocity":89,"Duration":352940,"SoundDuration":352940,"Delta":203424929},{"NoteNumber":56,"Velocity":80,"Duration":352940,"SoundDuration":352940,"Delta":203424929},{"NoteNumber":64,"Velocity":89,"Duration":352940,"SoundDuration":352940,"Delta":203424929},{"NoteNumber":68,"Velocity":97,"Duration":456274,"SoundDuration":456274,"Delta":204601399},{"NoteNumber":71,"Velocity":97,"Duration":456274,"SoundDuration":456274,"Delta":204601399},{"NoteNumber":75,"Velocity":108,"Duration":456274,"SoundDuration":456274,"Delta":204601399},{"NoteNumber":56,"Velocity":86,"Duration":456274,"SoundDuration":456274,"Delta":204601399},{"NoteNumber":59,"Velocity":86,"Duration":456274,"SoundDuration":456274,"Delta":204601399},{"NoteNumber":63,"Velocity":96,"Duration":456274,"SoundDuration":456274,"Delta":204601399},{"NoteNumber":68,"Velocity":90,"Duration":684410,"SoundDuration":684410,"Delta":205057673},{"NoteNumber":71,"Velocity":90,"Duration":684410,"SoundDuration":684410,"Delta":205057673},{"NoteNumber":76,"Velocity":100,"Duration":684410,"SoundDuration":684410,"Delta":205057673},{"NoteNumber":75,"Velocity":100,"Duration":684410,"SoundDuration":684410,"Delta":205057673},{"NoteNumber":56,"Velocity":81,"Duration":684410,"SoundDuration":684410,"Delta":205057673},{"NoteNumber":63,"Velocity":90,"Duration":684410,"SoundDuration":684410,"Delta":205057673},{"NoteNumber":59,"Velocity":81,"Duration":684410,"SoundDuration":684410,"Delta":205057673},{"NoteNumber":64,"Velocity":90,"Duration":684410,"SoundDuration":684410,"Delta":205057673},{"NoteNumber":71,"Velocity":95,"Duration":198020,"SoundDuration":198020,"Delta":206544384},{"NoteNumber":70,"Velocity":97,"Duration":96515,"SoundDuration":96515,"Delta":206742404},{"NoteNumber":66,"Velocity":81,"Duration":96515,"SoundDuration":96515,"Delta":206742404},{"NoteNumber":65,"Velocity":83,"Duration":95694,"SoundDuration":95694,"Delta":206838919},{"NoteNumber":62,"Velocity":63,"Duration":95694,"SoundDuration":95694,"Delta":206838919},{"NoteNumber":66,"Velocity":85,"Duration":94862,"SoundDuration":94862,"Delta":206934614},{"NoteNumber":63,"Velocity":66,"Duration":94862,"SoundDuration":94862,"Delta":206934614},{"NoteNumber":69,"Velocity":87,"Duration":94044,"SoundDuration":94044,"Delta":207029476},{"NoteNumber":59,"Velocity":69,"Duration":94044,"SoundDuration":94044,"Delta":207029476},{"NoteNumber":70,"Velocity":90,"Duration":93240,"SoundDuration":93240,"Delta":207123521},{"NoteNumber":58,"Velocity":73,"Duration":93240,"SoundDuration":93240,"Delta":207123521},{"NoteNumber":71,"Velocity":87,"Duration":92450,"SoundDuration":92450,"Delta":207216762},{"NoteNumber":62,"Velocity":71,"Duration":92450,"SoundDuration":92450,"Delta":207216762},{"NoteNumber":69,"Velocity":92,"Duration":95062,"SoundDuration":95062,"Delta":207309213},{"NoteNumber":63,"Velocity":74,"Duration":95062,"SoundDuration":95062,"Delta":207309213},{"NoteNumber":70,"Velocity":87,"Duration":94364,"SoundDuration":94364,"Delta":207404275},{"NoteNumber":62,"Velocity":70,"Duration":94364,"SoundDuration":94364,"Delta":207404275},{"NoteNumber":74,"Velocity":89,"Duration":93677,"SoundDuration":93677,"Delta":207498640},{"NoteNumber":59,"Velocity":73,"Duration":93677,"SoundDuration":93677,"Delta":207498640},{"NoteNumber":75,"Velocity":91,"Duration":92999,"SoundDuration":92999,"Delta":207592317},{"NoteNumber":58,"Velocity":76,"Duration":92999,"SoundDuration":92999,"Delta":207592317},{"NoteNumber":77,"Velocity":93,"Duration":92331,"SoundDuration":92331,"Delta":207685317},{"NoteNumber":57,"Velocity":80,"Duration":92331,"SoundDuration":92331,"Delta":207685317},{"NoteNumber":78,"Velocity":95,"Duration":91673,"SoundDuration":91673,"Delta":207777649},{"NoteNumber":58,"Velocity":83,"Duration":91673,"SoundDuration":91673,"Delta":207777649},{"NoteNumber":77,"Velocity":104,"Duration":94524,"SoundDuration":94524,"Delta":207869322},{"NoteNumber":57,"Velocity":86,"Duration":94524,"SoundDuration":94524,"Delta":207869322},{"NoteNumber":74,"Velocity":89,"Duration":94315,"SoundDuration":94315,"Delta":207963846},{"NoteNumber":53,"Velocity":67,"Duration":94315,"SoundDuration":94315,"Delta":207963846},{"NoteNumber":75,"Velocity":92,"Duration":93774,"SoundDuration":93774,"Delta":208058162},{"NoteNumber":54,"Velocity":69,"Duration":93774,"SoundDuration":93774,"Delta":208058162},{"NoteNumber":77,"Velocity":95,"Duration":93240,"SoundDuration":93240,"Delta":208151937},{"NoteNumber":50,"Velocity":72,"Duration":93240,"SoundDuration":93240,"Delta":208151937},{"NoteNumber":78,"Velocity":97,"Duration":92711,"SoundDuration":92711,"Delta":208245177},{"NoteNumber":51,"Velocity":75,"Duration":92711,"SoundDuration":92711,"Delta":208245177},{"NoteNumber":81,"Velocity":99,"Duration":92408,"SoundDuration":92408,"Delta":208337889},{"NoteNumber":47,"Velocity":78,"Duration":92408,"SoundDuration":92408,"Delta":208337889},{"NoteNumber":82,"Velocity":105,"Duration":94712,"SoundDuration":94712,"Delta":208430298},{"NoteNumber":46,"Velocity":84,"Duration":94712,"SoundDuration":94712,"Delta":208430298},{"NoteNumber":83,"Velocity":99,"Duration":94019,"SoundDuration":94019,"Delta":208525010},{"NoteNumber":45,"Velocity":85,"Duration":94019,"SoundDuration":94019,"Delta":208525010},{"NoteNumber":81,"Velocity":91,"Duration":93385,"SoundDuration":93385,"Delta":208619030},{"NoteNumber":47,"Velocity":73,"Duration":93385,"SoundDuration":93385,"Delta":208619030},{"NoteNumber":82,"Velocity":94,"Duration":92664,"SoundDuration":92664,"Delta":208712416},{"NoteNumber":46,"Velocity":75,"Duration":92664,"SoundDuration":92664,"Delta":208712416},{"NoteNumber":86,"Velocity":97,"Duration":92048,"SoundDuration":92048,"Delta":208805080},{"NoteNumber":41,"Velocity":78,"Duration":92048,"SoundDuration":92048,"Delta":208805080},{"NoteNumber":87,"Velocity":100,"Duration":91394,"SoundDuration":91394,"Delta":208897129},{"NoteNumber":42,"Velocity":72,"Duration":91394,"SoundDuration":91394,"Delta":208897129},{"NoteNumber":39,"Velocity":70,"Duration":404404,"SoundDuration":404404,"Delta":208988523},{"NoteNumber":46,"Velocity":83,"Duration":378843,"SoundDuration":378843,"Delta":209014085},{"NoteNumber":54,"Velocity":89,"Duration":351234,"SoundDuration":351234,"Delta":209041694},{"NoteNumber":75,"Velocity":88,"Duration":322894,"SoundDuration":322894,"Delta":209070033},{"NoteNumber":82,"Velocity":100,"Duration":293748,"SoundDuration":293748,"Delta":209099180},{"NoteNumber":90,"Velocity":113,"Duration":266470,"SoundDuration":266470,"Delta":209160090}],"license":{"name":"Creative Commons Attribution-ShareAlike 3.0 Germany","url":"http://creativecommons.org/licenses/by-sa/3.0/de/deed.en","text":"The MIDI, audio (MP3, OGG) and video files of Bernd Krueger are licensed under the cc-by-sa Germany License. This means that you can use and adapt the files, as long as you attribute the copyright holder.\n\nName: Bernd Krueger\nSource: http://www.piano-midi.de\n\nThe distribution or public playback of the files is only allowed under identical license conditions.\n\nThe scores are open source.","attribution":"MIDI files by Bernd Krueger (piano-midi.de)","attributionUrl":"http://www.piano-midi.de"}}