{"title":"Agitato","artist":"Sinding","durationMs":146999,"midiSha256":"50cb8f34d2d971abdcd6b57372b1d72c61081c034979cda388eac2a04971550a","midiObject":[{"NoteNumber":70,"Velocity":37,"Duration":85957,"SoundDuration":85957,"Delta":0},{"NoteNumber":70,"Velocity":22,"Duration":86419,"SoundDuration":86419,"Delta":88870},{"NoteNumber":73,"Velocity":24,"Duration":84088,"SoundDuration":84088,"Delta":175290},{"NoteNumber":77,"Velocity":25,"Duration":81898,"SoundDuration":81898,"Delta":259379},{"NoteNumber":82,"Velocity":27,"Duration":82135,"SoundDuration":82135,"Delta":341277},{"NoteNumber":77,"Velocity":26,"Duration":82486,"SoundDuration":82486,"Delta":423413},{"NoteNumber":73,"Velocity":24,"Duration":82779,"SoundDuration":82779,"Delta":505899},{"NoteNumber":70,"Velocity":22,"Duration":83210,"SoundDuration":83210,"Delta":588679},{"NoteNumber":65,"Velocity":34,"Duration":575672,"SoundDuration":575672,"Delta":671889},{"NoteNumber":70,"Velocity":21,"Duration":82499,"SoundDuration":82499,"Delta":755072},{"NoteNumber":73,"Velocity":23,"Duration":81892,"SoundDuration":81892,"Delta":837572},{"NoteNumber":77,"Velocity":25,"Duration":81208,"SoundDuration":81208,"Delta":919465},{"NoteNumber":82,"Velocity":28,"Duration":81668,"SoundDuration":81668,"Delta":1000674},{"NoteNumber":77,"Velocity":26,"Duration":82309,"SoundDuration":82309,"Delta":1082342},{"NoteNumber":73,"Velocity":23,"Duration":82910,"SoundDuration":82910,"Delta":1164652},{"NoteNumber":70,"Velocity":39,"Duration":118184,"SoundDuration":118184,"Delta":1247562},{"NoteNumber":68,"Velocity":42,"Duration":80692,"SoundDuration":80692,"Delta":1365746},{"NoteNumber":68,"Velocity":22,"Duration":83040,"SoundDuration":83040,"Delta":1449208},{"NoteNumber":73,"Velocity":23,"Duration":82479,"SoundDuration":82479,"Delta":1532248},{"NoteNumber":77,"Velocity":25,"Duration":82059,"SoundDuration":82059,"Delta":1614728},{"NoteNumber":80,"Velocity":27,"Duration":81596,"SoundDuration":81596,"Delta":1696787},{"NoteNumber":77,"Velocity":27,"Duration":82079,"SoundDuration":82079,"Delta":1778384},{"NoteNumber":73,"Velocity":24,"Duration":82752,"SoundDuration":82752,"Delta":1860464},{"NoteNumber":68,"Velocity":22,"Duration":83339,"SoundDuration":83339,"Delta":1943216},{"NoteNumber":61,"Velocity":34,"Duration":578103,"SoundDuration":578103,"Delta":2026556},{"NoteNumber":68,"Velocity":22,"Duration":82330,"SoundDuration":82330,"Delta":2109479},{"NoteNumber":73,"Velocity":23,"Duration":81674,"SoundDuration":81674,"Delta":2191809},{"NoteNumber":77,"Velocity":25,"Duration":81839,"SoundDuration":81839,"Delta":2273484},{"NoteNumber":80,"Velocity":26,"Duration":82472,"SoundDuration":82472,"Delta":2355324},{"NoteNumber":77,"Velocity":27,"Duration":83128,"SoundDuration":83128,"Delta":2437797},{"NoteNumber":73,"Velocity":24,"Duration":83733,"SoundDuration":83733,"Delta":2520925},{"NoteNumber":68,"Velocity":22,"Duration":119009,"SoundDuration":119009,"Delta":2604659},{"NoteNumber":63,"Velocity":31,"Duration":119009,"SoundDuration":119009,"Delta":2604659},{"NoteNumber":65,"Velocity":39,"Duration":656305,"SoundDuration":656305,"Delta":2723669},{"NoteNumber":68,"Velocity":23,"Duration":82499,"SoundDuration":82499,"Delta":2806723},{"NoteNumber":73,"Velocity":26,"Duration":82073,"SoundDuration":82073,"Delta":2889223},{"NoteNumber":77,"Velocity":27,"Duration":81406,"SoundDuration":81406,"Delta":2971296},{"NoteNumber":80,"Velocity":28,"Duration":80880,"SoundDuration":80880,"Delta":3052703},{"NoteNumber":77,"Velocity":27,"Duration":81511,"SoundDuration":81511,"Delta":3133583},{"NoteNumber":73,"Velocity":25,"Duration":82093,"SoundDuration":82093,"Delta":3215094},{"NoteNumber":68,"Velocity":23,"Duration":80017,"SoundDuration":80017,"Delta":3297187},{"NoteNumber":68,"Velocity":37,"Duration":80692,"SoundDuration":80692,"Delta":3379974},{"NoteNumber":68,"Velocity":21,"Duration":82910,"SoundDuration":82910,"Delta":3463436},{"NoteNumber":73,"Velocity":22,"Duration":82296,"SoundDuration":82296,"Delta":3546346},{"NoteNumber":77,"Velocity":24,"Duration":81603,"SoundDuration":81603,"Delta":3628642},{"NoteNumber":80,"Velocity":27,"Duration":82066,"SoundDuration":82066,"Delta":3710245},{"NoteNumber":77,"Velocity":25,"Duration":82718,"SoundDuration":82718,"Delta":3792311},{"NoteNumber":73,"Velocity":24,"Duration":83454,"SoundDuration":83454,"Delta":3875030},{"NoteNumber":68,"Velocity":22,"Duration":118184,"SoundDuration":118184,"Delta":3958484},{"NoteNumber":37,"Velocity":35,"Duration":347637,"SoundDuration":347637,"Delta":4076669},{"NoteNumber":68,"Velocity":23,"Duration":86946,"SoundDuration":86946,"Delta":4163615},{"NoteNumber":73,"Velocity":26,"Duration":86946,"SoundDuration":86946,"Delta":4250562},{"NoteNumber":77,"Velocity":27,"Duration":86798,"SoundDuration":86798,"Delta":4337508},{"NoteNumber":80,"Velocity":28,"Duration":86058,"SoundDuration":86058,"Delta":4424307},{"NoteNumber":41,"Velocity":32,"Duration":171717,"SoundDuration":171717,"Delta":4424307},{"NoteNumber":77,"Velocity":27,"Duration":85659,"SoundDuration":85659,"Delta":4510365},{"NoteNumber":73,"Velocity":25,"Duration":85207,"SoundDuration":85207,"Delta":4596025},{"NoteNumber":44,"Velocity":32,"Duration":169967,"SoundDuration":169967,"Delta":4596025},{"NoteNumber":68,"Velocity":23,"Duration":84760,"SoundDuration":84760,"Delta":4681232},{"NoteNumber":53,"Velocity":37,"Duration":167745,"SoundDuration":167745,"Delta":4765992},{"NoteNumber":68,"Velocity":21,"Duration":83440,"SoundDuration":83440,"Delta":4850298},{"NoteNumber":73,"Velocity":22,"Duration":83822,"SoundDuration":83822,"Delta":4933738},{"NoteNumber":56,"Velocity":31,"Duration":169548,"SoundDuration":169548,"Delta":4933738},{"NoteNumber":77,"Velocity":24,"Duration":85725,"SoundDuration":85725,"Delta":5017561},{"NoteNumber":80,"Velocity":27,"Duration":87693,"SoundDuration":87693,"Delta":5103287},{"NoteNumber":61,"Velocity":31,"Duration":177407,"SoundDuration":177407,"Delta":5103287},{"NoteNumber":77,"Velocity":25,"Duration":89713,"SoundDuration":89713,"Delta":5190981},{"NoteNumber":73,"Velocity":24,"Duration":91768,"SoundDuration":91768,"Delta":5280694},{"NoteNumber":65,"Velocity":31,"Duration":206819,"SoundDuration":206819,"Delta":5280694},{"NoteNumber":68,"Velocity":22,"Duration":115050,"SoundDuration":115050,"Delta":5372463},{"NoteNumber":70,"Velocity":37,"Duration":85762,"SoundDuration":85762,"Delta":5487514},{"NoteNumber":70,"Velocity":22,"Duration":86227,"SoundDuration":86227,"Delta":5576190},{"NoteNumber":73,"Velocity":24,"Duration":83836,"SoundDuration":83836,"Delta":5662417},{"NoteNumber":77,"Velocity":25,"Duration":81619,"SoundDuration":81619,"Delta":5746254},{"NoteNumber":82,"Velocity":27,"Duration":82076,"SoundDuration":82076,"Delta":5827873},{"NoteNumber":77,"Velocity":26,"Duration":82486,"SoundDuration":82486,"Delta":5909950},{"NoteNumber":73,"Velocity":24,"Duration":82779,"SoundDuration":82779,"Delta":5992436},{"NoteNumber":70,"Velocity":22,"Duration":83210,"SoundDuration":83210,"Delta":6075215},{"NoteNumber":65,"Velocity":34,"Duration":575672,"SoundDuration":575672,"Delta":6158426},{"NoteNumber":70,"Velocity":21,"Duration":82499,"SoundDuration":82499,"Delta":6241609},{"NoteNumber":73,"Velocity":23,"Duration":81892,"SoundDuration":81892,"Delta":6324109},{"NoteNumber":77,"Velocity":25,"Duration":81208,"SoundDuration":81208,"Delta":6406001},{"NoteNumber":82,"Velocity":28,"Duration":81668,"SoundDuration":81668,"Delta":6487210},{"NoteNumber":77,"Velocity":26,"Duration":82309,"SoundDuration":82309,"Delta":6568879},{"NoteNumber":73,"Velocity":23,"Duration":82910,"SoundDuration":82910,"Delta":6651188},{"NoteNumber":70,"Velocity":39,"Duration":118184,"SoundDuration":118184,"Delta":6734098},{"NoteNumber":68,"Velocity":42,"Duration":80692,"SoundDuration":80692,"Delta":6852283},{"NoteNumber":68,"Velocity":22,"Duration":83040,"SoundDuration":83040,"Delta":6935744},{"NoteNumber":73,"Velocity":23,"Duration":82479,"SoundDuration":82479,"Delta":7018785},{"NoteNumber":77,"Velocity":25,"Duration":82059,"SoundDuration":82059,"Delta":7101264},{"NoteNumber":80,"Velocity":27,"Duration":81596,"SoundDuration":81596,"Delta":7183324},{"NoteNumber":77,"Velocity":27,"Duration":82079,"SoundDuration":82079,"Delta":7264921},{"NoteNumber":73,"Velocity":24,"Duration":82752,"SoundDuration":82752,"Delta":7347000},{"NoteNumber":68,"Velocity":22,"Duration":83339,"SoundDuration":83339,"Delta":7429753},{"NoteNumber":61,"Velocity":34,"Duration":578103,"SoundDuration":578103,"Delta":7513092},{"NoteNumber":68,"Velocity":22,"Duration":82330,"SoundDuration":82330,"Delta":7596016},{"NoteNumber":73,"Velocity":23,"Duration":81674,"SoundDuration":81674,"Delta":7678346},{"NoteNumber":77,"Velocity":25,"Duration":81839,"SoundDuration":81839,"Delta":7760021},{"NoteNumber":80,"Velocity":26,"Duration":82472,"SoundDuration":82472,"Delta":7841861},{"NoteNumber":77,"Velocity":27,"Duration":83128,"SoundDuration":83128,"Delta":7924333},{"NoteNumber":73,"Velocity":24,"Duration":83733,"SoundDuration":83733,"Delta":8007462},{"NoteNumber":68,"Velocity":22,"Duration":119009,"SoundDuration":119009,"Delta":8091196},{"NoteNumber":63,"Velocity":31,"Duration":119009,"SoundDuration":119009,"Delta":8091196},{"NoteNumber":65,"Velocity":39,"Duration":656305,"SoundDuration":656305,"Delta":8210206},{"NoteNumber":68,"Velocity":23,"Duration":82499,"SoundDuration":82499,"Delta":8293260},{"NoteNumber":72,"Velocity":26,"Duration":82073,"SoundDuration":82073,"Delta":8375760},{"NoteNumber":77,"Velocity":27,"Duration":81406,"SoundDuration":81406,"Delta":8457833},{"NoteNumber":80,"Velocity":28,"Duration":80880,"SoundDuration":80880,"Delta":8539239},{"NoteNumber":77,"Velocity":27,"Duration":81511,"SoundDuration":81511,"Delta":8620120},{"NoteNumber":72,"Velocity":25,"Duration":82093,"SoundDuration":82093,"Delta":8701631},{"NoteNumber":68,"Velocity":23,"Duration":80017,"SoundDuration":80017,"Delta":8783724},{"NoteNumber":68,"Velocity":37,"Duration":80692,"SoundDuration":80692,"Delta":8866511},{"NoteNumber":68,"Velocity":21,"Duration":82910,"SoundDuration":82910,"Delta":8949972},{"NoteNumber":72,"Velocity":22,"Duration":82296,"SoundDuration":82296,"Delta":9032882},{"NoteNumber":77,"Velocity":24,"Duration":81603,"SoundDuration":81603,"Delta":9115178},{"NoteNumber":80,"Velocity":27,"Duration":82066,"SoundDuration":82066,"Delta":9196782},{"NoteNumber":77,"Velocity":25,"Duration":82718,"SoundDuration":82718,"Delta":9278848},{"NoteNumber":72,"Velocity":24,"Duration":83454,"SoundDuration":83454,"Delta":9361566},{"NoteNumber":68,"Velocity":22,"Duration":118184,"SoundDuration":118184,"Delta":9445021},{"NoteNumber":41,"Velocity":35,"Duration":347637,"SoundDuration":347637,"Delta":9563205},{"NoteNumber":68,"Velocity":23,"Duration":86946,"SoundDuration":86946,"Delta":9650152},{"NoteNumber":72,"Velocity":26,"Duration":86946,"SoundDuration":86946,"Delta":9737098},{"NoteNumber":77,"Velocity":27,"Duration":86798,"SoundDuration":86798,"Delta":9824045},{"NoteNumber":80,"Velocity":28,"Duration":86058,"SoundDuration":86058,"Delta":9910843},{"NoteNumber":48,"Velocity":32,"Duration":171717,"SoundDuration":171717,"Delta":9910843},{"NoteNumber":77,"Velocity":27,"Duration":85659,"SoundDuration":85659,"Delta":9996902},{"NoteNumber":72,"Velocity":25,"Duration":85207,"SoundDuration":85207,"Delta":10082561},{"NoteNumber":53,"Velocity":32,"Duration":169967,"SoundDuration":169967,"Delta":10082561},{"NoteNumber":68,"Velocity":23,"Duration":84760,"SoundDuration":84760,"Delta":10167769},{"NoteNumber":56,"Velocity":37,"Duration":168172,"SoundDuration":168172,"Delta":10252529},{"NoteNumber":72,"Velocity":21,"Duration":83866,"SoundDuration":83866,"Delta":10336834},{"NoteNumber":77,"Velocity":22,"Duration":83481,"SoundDuration":83481,"Delta":10420701},{"NoteNumber":60,"Velocity":31,"Duration":166963,"SoundDuration":166963,"Delta":10420701},{"NoteNumber":80,"Velocity":24,"Duration":83481,"SoundDuration":83481,"Delta":10504183},{"NoteNumber":84,"Velocity":27,"Duration":83481,"SoundDuration":83481,"Delta":10587665},{"NoteNumber":65,"Velocity":31,"Duration":166963,"SoundDuration":166963,"Delta":10587665},{"NoteNumber":80,"Velocity":25,"Duration":83481,"SoundDuration":83481,"Delta":10671146},{"NoteNumber":77,"Velocity":24,"Duration":83481,"SoundDuration":83481,"Delta":10754628},{"NoteNumber":68,"Velocity":31,"Duration":200834,"SoundDuration":200834,"Delta":10754628},{"NoteNumber":72,"Velocity":22,"Duration":113440,"SoundDuration":113440,"Delta":10838110},{"NoteNumber":72,"Velocity":37,"Duration":85762,"SoundDuration":85762,"Delta":10955462},{"NoteNumber":72,"Velocity":22,"Duration":86227,"SoundDuration":86227,"Delta":11044138},{"NoteNumber":77,"Velocity":24,"Duration":83836,"SoundDuration":83836,"Delta":11130366},{"NoteNumber":80,"Velocity":25,"Duration":81619,"SoundDuration":81619,"Delta":11214202},{"NoteNumber":84,"Velocity":27,"Duration":82076,"SoundDuration":82076,"Delta":11295822},{"NoteNumber":80,"Velocity":26,"Duration":82486,"SoundDuration":82486,"Delta":11377898},{"NoteNumber":77,"Velocity":24,"Duration":82779,"SoundDuration":82779,"Delta":11460384},{"NoteNumber":72,"Velocity":22,"Duration":83210,"SoundDuration":83210,"Delta":11543164},{"NoteNumber":68,"Velocity":34,"Duration":575672,"SoundDuration":575672,"Delta":11626374},{"NoteNumber":72,"Velocity":21,"Duration":82499,"SoundDuration":82499,"Delta":11709557},{"NoteNumber":77,"Velocity":23,"Duration":81892,"SoundDuration":81892,"Delta":11792057},{"NoteNumber":80,"Velocity":25,"Duration":81208,"SoundDuration":81208,"Delta":11873950},{"NoteNumber":84,"Velocity":28,"Duration":81668,"SoundDuration":81668,"Delta":11955159},{"NoteNumber":80,"Velocity":26,"Duration":82309,"SoundDuration":82309,"Delta":12036827},{"NoteNumber":77,"Velocity":23,"Duration":82910,"SoundDuration":82910,"Delta":12119137},{"NoteNumber":72,"Velocity":22,"Duration":114245,"SoundDuration":114245,"Delta":12202047},{"NoteNumber":70,"Velocity":39,"Duration":118184,"SoundDuration":118184,"Delta":12202047},{"NoteNumber":72,"Velocity":42,"Duration":80692,"SoundDuration":80692,"Delta":12320232},{"NoteNumber":72,"Velocity":22,"Duration":83040,"SoundDuration":83040,"Delta":12403693},{"NoteNumber":76,"Velocity":23,"Duration":82479,"SoundDuration":82479,"Delta":12486734},{"NoteNumber":80,"Velocity":25,"Duration":82059,"SoundDuration":82059,"Delta":12569213},{"NoteNumber":84,"Velocity":27,"Duration":81596,"SoundDuration":81596,"Delta":12651272},{"NoteNumber":80,"Velocity":27,"Duration":82079,"SoundDuration":82079,"Delta":12732869},{"NoteNumber":76,"Velocity":24,"Duration":82752,"SoundDuration":82752,"Delta":12814949},{"NoteNumber":72,"Velocity":22,"Duration":82953,"SoundDuration":82953,"Delta":12897701},{"NoteNumber":60,"Velocity":27,"Duration":93679,"SoundDuration":93679,"Delta":12980655},{"NoteNumber":72,"Velocity":22,"Duration":83622,"SoundDuration":83622,"Delta":13063268},{"NoteNumber":62,"Velocity":28,"Duration":96455,"SoundDuration":96455,"Delta":13074335},{"NoteNumber":76,"Velocity":23,"Duration":84653,"SoundDuration":84653,"Delta":13146890},{"NoteNumber":64,"Velocity":29,"Duration":96374,"SoundDuration":96374,"Delta":13170790},{"NoteNumber":80,"Velocity":25,"Duration":85778,"SoundDuration":85778,"Delta":13231544},{"NoteNumber":65,"Velocity":30,"Duration":97752,"SoundDuration":97752,"Delta":13267165},{"NoteNumber":84,"Velocity":26,"Duration":86770,"SoundDuration":86770,"Delta":13317322},{"NoteNumber":67,"Velocity":32,"Duration":100664,"SoundDuration":100664,"Delta":13364918},{"NoteNumber":80,"Velocity":27,"Duration":87961,"SoundDuration":87961,"Delta":13404093},{"NoteNumber":68,"Velocity":33,"Duration":100620,"SoundDuration":100620,"Delta":13465582},{"NoteNumber":76,"Velocity":24,"Duration":89100,"SoundDuration":89100,"Delta":13492054},{"NoteNumber":70,"Velocity":34,"Duration":133962,"SoundDuration":133962,"Delta":13566203},{"NoteNumber":72,"Velocity":22,"Duration":115042,"SoundDuration":115042,"Delta":13581155},{"NoteNumber":72,"Velocity":37,"Duration":85762,"SoundDuration":85762,"Delta":13700165},{"NoteNumber":72,"Velocity":22,"Duration":86227,"SoundDuration":86227,"Delta":13788841},{"NoteNumber":77,"Velocity":24,"Duration":83836,"SoundDuration":83836,"Delta":13875068},{"NoteNumber":80,"Velocity":25,"Duration":81619,"SoundDuration":81619,"Delta":13958905},{"NoteNumber":84,"Velocity":27,"Duration":82076,"SoundDuration":82076,"Delta":14040524},{"NoteNumber":80,"Velocity":26,"Duration":82486,"SoundDuration":82486,"Delta":14122600},{"NoteNumber":77,"Velocity":24,"Duration":82779,"SoundDuration":82779,"Delta":14205087},{"NoteNumber":72,"Velocity":22,"Duration":83210,"SoundDuration":83210,"Delta":14287866},{"NoteNumber":68,"Velocity":34,"Duration":575672,"SoundDuration":575672,"Delta":14371077},{"NoteNumber":72,"Velocity":21,"Duration":82499,"SoundDuration":82499,"Delta":14454260},{"NoteNumber":77,"Velocity":23,"Duration":81892,"SoundDuration":81892,"Delta":14536759},{"NoteNumber":80,"Velocity":25,"Duration":81208,"SoundDuration":81208,"Delta":14618652},{"NoteNumber":84,"Velocity":28,"Duration":81668,"SoundDuration":81668,"Delta":14699861},{"NoteNumber":80,"Velocity":26,"Duration":82309,"SoundDuration":82309,"Delta":14781530},{"NoteNumber":77,"Velocity":23,"Duration":82910,"SoundDuration":82910,"Delta":14863839},{"NoteNumber":72,"Velocity":22,"Duration":114245,"SoundDuration":114245,"Delta":14946749},{"NoteNumber":70,"Velocity":39,"Duration":118184,"SoundDuration":118184,"Delta":14946749},{"NoteNumber":72,"Velocity":42,"Duration":80692,"SoundDuration":80692,"Delta":15064934},{"NoteNumber":72,"Velocity":22,"Duration":83040,"SoundDuration":83040,"Delta":15148395},{"NoteNumber":76,"Velocity":23,"Duration":82479,"SoundDuration":82479,"Delta":15231436},{"NoteNumber":80,"Velocity":25,"Duration":82059,"SoundDuration":82059,"Delta":15313915},{"NoteNumber":84,"Velocity":27,"Duration":81596,"SoundDuration":81596,"Delta":15395975},{"NoteNumber":80,"Velocity":27,"Duration":82079,"SoundDuration":82079,"Delta":15477571},{"NoteNumber":76,"Velocity":24,"Duration":82752,"SoundDuration":82752,"Delta":15559651},{"NoteNumber":72,"Velocity":22,"Duration":82563,"SoundDuration":82563,"Delta":15642404},{"NoteNumber":60,"Velocity":27,"Duration":93459,"SoundDuration":93459,"Delta":15724967},{"NoteNumber":72,"Velocity":22,"Duration":83395,"SoundDuration":83395,"Delta":15807359},{"NoteNumber":62,"Velocity":28,"Duration":96176,"SoundDuration":96176,"Delta":15818426},{"NoteNumber":76,"Velocity":23,"Duration":84485,"SoundDuration":84485,"Delta":15890755},{"NoteNumber":64,"Velocity":29,"Duration":96141,"SoundDuration":96141,"Delta":15914603},{"NoteNumber":80,"Velocity":25,"Duration":85582,"SoundDuration":85582,"Delta":15975241},{"NoteNumber":65,"Velocity":30,"Duration":97592,"SoundDuration":97592,"Delta":16010745},{"NoteNumber":84,"Velocity":26,"Duration":86689,"SoundDuration":86689,"Delta":16060823},{"NoteNumber":67,"Velocity":32,"Duration":100508,"SoundDuration":100508,"Delta":16108337},{"NoteNumber":80,"Velocity":27,"Duration":87805,"SoundDuration":87805,"Delta":16147512},{"NoteNumber":68,"Velocity":33,"Duration":100620,"SoundDuration":100620,"Delta":16208845},{"NoteNumber":76,"Velocity":24,"Duration":89100,"SoundDuration":89100,"Delta":16235317},{"NoteNumber":70,"Velocity":34,"Duration":133962,"SoundDuration":133962,"Delta":16309466},{"NoteNumber":72,"Velocity":22,"Duration":115042,"SoundDuration":115042,"Delta":16324418},{"NoteNumber":72,"Velocity":42,"Duration":80692,"SoundDuration":80692,"Delta":16443428},{"NoteNumber":72,"Velocity":22,"Duration":83040,"SoundDuration":83040,"Delta":16526889},{"NoteNumber":77,"Velocity":23,"Duration":82479,"SoundDuration":82479,"Delta":16609930},{"NoteNumber":80,"Velocity":25,"Duration":82059,"SoundDuration":82059,"Delta":16692409},{"NoteNumber":84,"Velocity":27,"Duration":81596,"SoundDuration":81596,"Delta":16774469},{"NoteNumber":80,"Velocity":27,"Duration":82079,"SoundDuration":82079,"Delta":16856066},{"NoteNumber":77,"Velocity":26,"Duration":82752,"SoundDuration":82752,"Delta":16938145},{"NoteNumber":72,"Velocity":24,"Duration":83339,"SoundDuration":83339,"Delta":17020898},{"NoteNumber":70,"Velocity":36,"Duration":578103,"SoundDuration":578103,"Delta":17104237},{"NoteNumber":72,"Velocity":24,"Duration":82330,"SoundDuration":82330,"Delta":17187161},{"NoteNumber":77,"Velocity":25,"Duration":81674,"SoundDuration":81674,"Delta":17269491},{"NoteNumber":80,"Velocity":28,"Duration":81839,"SoundDuration":81839,"Delta":17351166},{"NoteNumber":84,"Velocity":29,"Duration":82472,"SoundDuration":82472,"Delta":17433006},{"NoteNumber":80,"Velocity":31,"Duration":83128,"SoundDuration":83128,"Delta":17515478},{"NoteNumber":77,"Velocity":28,"Duration":83733,"SoundDuration":83733,"Delta":17598607},{"NoteNumber":72,"Velocity":26,"Duration":119009,"SoundDuration":119009,"Delta":17682341},{"NoteNumber":68,"Velocity":37,"Duration":119009,"SoundDuration":119009,"Delta":17682341},{"NoteNumber":75,"Velocity":52,"Duration":80298,"SoundDuration":80298,"Delta":17801351},{"NoteNumber":75,"Velocity":28,"Duration":82499,"SoundDuration":82499,"Delta":17884405},{"NoteNumber":80,"Velocity":30,"Duration":82073,"SoundDuration":82073,"Delta":17966905},{"NoteNumber":84,"Velocity":31,"Duration":81406,"SoundDuration":81406,"Delta":18048978},{"NoteNumber":87,"Velocity":32,"Duration":80880,"SoundDuration":80880,"Delta":18130384},{"NoteNumber":84,"Velocity":33,"Duration":81511,"SoundDuration":81511,"Delta":18211265},{"NoteNumber":80,"Velocity":32,"Duration":82093,"SoundDuration":82093,"Delta":18292776},{"NoteNumber":75,"Velocity":31,"Duration":82786,"SoundDuration":82786,"Delta":18374869},{"NoteNumber":63,"Velocity":45,"Duration":696694,"SoundDuration":696694,"Delta":18457656},{"NoteNumber":75,"Velocity":27,"Duration":82910,"SoundDuration":82910,"Delta":18541117},{"NoteNumber":79,"Velocity":31,"Duration":82296,"SoundDuration":82296,"Delta":18624027},{"NoteNumber":82,"Velocity":33,"Duration":81603,"SoundDuration":81603,"Delta":18706323},{"NoteNumber":87,"Velocity":37,"Duration":82066,"SoundDuration":82066,"Delta":18787927},{"NoteNumber":82,"Velocity":35,"Duration":82718,"SoundDuration":82718,"Delta":18869993},{"NoteNumber":79,"Velocity":34,"Duration":83454,"SoundDuration":83454,"Delta":18952711},{"NoteNumber":75,"Velocity":32,"Duration":118184,"SoundDuration":118184,"Delta":19036166},{"NoteNumber":68,"Velocity":58,"Duration":579107,"SoundDuration":579107,"Delta":19154350},{"NoteNumber":75,"Velocity":32,"Duration":83040,"SoundDuration":83040,"Delta":19237812},{"NoteNumber":80,"Velocity":34,"Duration":82479,"SoundDuration":82479,"Delta":19320852},{"NoteNumber":84,"Velocity":36,"Duration":82059,"SoundDuration":82059,"Delta":19403332},{"NoteNumber":87,"Velocity":39,"Duration":81596,"SoundDuration":81596,"Delta":19485391},{"NoteNumber":84,"Velocity":39,"Duration":81978,"SoundDuration":81978,"Delta":19566988},{"NoteNumber":80,"Velocity":35,"Duration":84491,"SoundDuration":84491,"Delta":19648967},{"NoteNumber":75,"Velocity":32,"Duration":89493,"SoundDuration":89493,"Delta":19733458},{"NoteNumber":63,"Velocity":44,"Duration":89493,"SoundDuration":89493,"Delta":19733458},{"NoteNumber":65,"Velocity":47,"Duration":578103,"SoundDuration":578103,"Delta":19822952},{"NoteNumber":72,"Velocity":30,"Duration":82330,"SoundDuration":82330,"Delta":19905876},{"NoteNumber":77,"Velocity":33,"Duration":81674,"SoundDuration":81674,"Delta":19988206},{"NoteNumber":80,"Velocity":35,"Duration":81839,"SoundDuration":81839,"Delta":20069881},{"NoteNumber":84,"Velocity":35,"Duration":82472,"SoundDuration":82472,"Delta":20151721},{"NoteNumber":80,"Velocity":36,"Duration":83128,"SoundDuration":83128,"Delta":20234193},{"NoteNumber":77,"Velocity":33,"Duration":83733,"SoundDuration":83733,"Delta":20317322},{"NoteNumber":72,"Velocity":30,"Duration":119009,"SoundDuration":119009,"Delta":20401056},{"NoteNumber":60,"Velocity":42,"Duration":119009,"SoundDuration":119009,"Delta":20401056},{"NoteNumber":63,"Velocity":56,"Duration":586857,"SoundDuration":586857,"Delta":20520065},{"NoteNumber":68,"Velocity":29,"Duration":84251,"SoundDuration":84251,"Delta":20604912},{"NoteNumber":72,"Velocity":31,"Duration":83663,"SoundDuration":83663,"Delta":20689164},{"NoteNumber":75,"Velocity":33,"Duration":82969,"SoundDuration":82969,"Delta":20772828},{"NoteNumber":80,"Velocity":35,"Duration":82855,"SoundDuration":82855,"Delta":20855797},{"NoteNumber":75,"Velocity":34,"Duration":83780,"SoundDuration":83780,"Delta":20938653},{"NoteNumber":72,"Velocity":31,"Duration":84489,"SoundDuration":84489,"Delta":21022433},{"NoteNumber":68,"Velocity":28,"Duration":85164,"SoundDuration":85164,"Delta":21106923},{"NoteNumber":56,"Velocity":39,"Duration":85164,"SoundDuration":85164,"Delta":21106923},{"NoteNumber":60,"Velocity":42,"Duration":654368,"SoundDuration":654368,"Delta":21192087},{"NoteNumber":64,"Velocity":27,"Duration":89802,"SoundDuration":89802,"Delta":21279790},{"NoteNumber":70,"Velocity":29,"Duration":91583,"SoundDuration":91583,"Delta":21369593},{"NoteNumber":72,"Velocity":31,"Duration":93731,"SoundDuration":93731,"Delta":21461176},{"NoteNumber":76,"Velocity":31,"Duration":95824,"SoundDuration":95824,"Delta":21554907},{"NoteNumber":72,"Velocity":32,"Duration":98018,"SoundDuration":98018,"Delta":21650731},{"NoteNumber":70,"Velocity":29,"Duration":97705,"SoundDuration":97705,"Delta":21748750},{"NoteNumber":64,"Velocity":27,"Duration":119009,"SoundDuration":119009,"Delta":21846456},{"NoteNumber":52,"Velocity":32,"Duration":119009,"SoundDuration":119009,"Delta":21846456},{"NoteNumber":53,"Velocity":43,"Duration":679220,"SoundDuration":679220,"Delta":21965466},{"NoteNumber":60,"Velocity":27,"Duration":88218,"SoundDuration":88218,"Delta":22055672},{"NoteNumber":65,"Velocity":29,"Duration":86190,"SoundDuration":86190,"Delta":22143890},{"NoteNumber":68,"Velocity":31,"Duration":84254,"SoundDuration":84254,"Delta":22230081},{"NoteNumber":72,"Velocity":32,"Duration":82349,"SoundDuration":82349,"Delta":22314335},{"NoteNumber":68,"Velocity":32,"Duration":81910,"SoundDuration":81910,"Delta":22396684},{"NoteNumber":65,"Velocity":29,"Duration":82752,"SoundDuration":82752,"Delta":22478594},{"NoteNumber":60,"Velocity":27,"Duration":83339,"SoundDuration":83339,"Delta":22561347},{"NoteNumber":55,"Velocity":40,"Duration":578103,"SoundDuration":578103,"Delta":22644686},{"NoteNumber":60,"Velocity":26,"Duration":82330,"SoundDuration":82330,"Delta":22727610},{"NoteNumber":65,"Velocity":28,"Duration":81674,"SoundDuration":81674,"Delta":22809940},{"NoteNumber":68,"Velocity":30,"Duration":81839,"SoundDuration":81839,"Delta":22891615},{"NoteNumber":72,"Velocity":31,"Duration":82472,"SoundDuration":82472,"Delta":22973455},{"NoteNumber":68,"Velocity":32,"Duration":83128,"SoundDuration":83128,"Delta":23055927},{"NoteNumber":65,"Velocity":29,"Duration":83733,"SoundDuration":83733,"Delta":23139056},{"NoteNumber":60,"Velocity":27,"Duration":115042,"SoundDuration":115042,"Delta":23222790},{"NoteNumber":56,"Velocity":37,"Duration":119009,"SoundDuration":119009,"Delta":23222790},{"NoteNumber":60,"Velocity":47,"Duration":80298,"SoundDuration":80298,"Delta":23341799},{"NoteNumber":60,"Velocity":28,"Duration":82499,"SoundDuration":82499,"Delta":23424854},{"NoteNumber":65,"Velocity":31,"Duration":82073,"SoundDuration":82073,"Delta":23507353},{"NoteNumber":68,"Velocity":32,"Duration":81406,"SoundDuration":81406,"Delta":23589426},{"NoteNumber":72,"Velocity":33,"Duration":80880,"SoundDuration":80880,"Delta":23670833},{"NoteNumber":68,"Velocity":32,"Duration":81511,"SoundDuration":81511,"Delta":23751713},{"NoteNumber":65,"Velocity":30,"Duration":82093,"SoundDuration":82093,"Delta":23833225},{"NoteNumber":60,"Velocity":28,"Duration":82786,"SoundDuration":82786,"Delta":23915318},{"NoteNumber":53,"Velocity":40,"Duration":412337,"SoundDuration":412337,"Delta":23998105},{"NoteNumber":60,"Velocity":25,"Duration":82910,"SoundDuration":82910,"Delta":24081566},{"NoteNumber":65,"Velocity":27,"Duration":82296,"SoundDuration":82296,"Delta":24164476},{"NoteNumber":68,"Velocity":29,"Duration":81603,"SoundDuration":81603,"Delta":24246772},{"NoteNumber":72,"Velocity":32,"Duration":82066,"SoundDuration":82066,"Delta":24328375},{"NoteNumber":68,"Velocity":30,"Duration":82718,"SoundDuration":82718,"Delta":24410442},{"NoteNumber":55,"Velocity":34,"Duration":82718,"SoundDuration":82718,"Delta":24410442},{"NoteNumber":65,"Velocity":29,"Duration":83454,"SoundDuration":83454,"Delta":24493160},{"NoteNumber":56,"Velocity":38,"Duration":83454,"SoundDuration":83454,"Delta":24493160},{"NoteNumber":60,"Velocity":27,"Duration":118184,"SoundDuration":118184,"Delta":24576615},{"NoteNumber":58,"Velocity":42,"Duration":118184,"SoundDuration":118184,"Delta":24576615},{"NoteNumber":59,"Velocity":46,"Duration":495055,"SoundDuration":495055,"Delta":24694799},{"NoteNumber":62,"Velocity":25,"Duration":82910,"SoundDuration":82910,"Delta":24778261},{"NoteNumber":65,"Velocity":27,"Duration":82296,"SoundDuration":82296,"Delta":24861171},{"NoteNumber":68,"Velocity":29,"Duration":81603,"SoundDuration":81603,"Delta":24943467},{"NoteNumber":74,"Velocity":32,"Duration":82066,"SoundDuration":82066,"Delta":25025070},{"NoteNumber":68,"Velocity":30,"Duration":82718,"SoundDuration":82718,"Delta":25107137},{"NoteNumber":65,"Velocity":29,"Duration":83454,"SoundDuration":83454,"Delta":25189855},{"NoteNumber":58,"Velocity":41,"Duration":83454,"SoundDuration":83454,"Delta":25189855},{"NoteNumber":62,"Velocity":27,"Duration":118184,"SoundDuration":118184,"Delta":25273309},{"NoteNumber":56,"Velocity":46,"Duration":118184,"SoundDuration":118184,"Delta":25273309},{"NoteNumber":65,"Velocity":51,"Duration":1327218,"SoundDuration":1327218,"Delta":25391494},{"NoteNumber":62,"Velocity":25,"Duration":82910,"SoundDuration":82910,"Delta":25474955},{"NoteNumber":68,"Velocity":27,"Duration":82296,"SoundDuration":82296,"Delta":25557866},{"NoteNumber":71,"Velocity":29,"Duration":81603,"SoundDuration":81603,"Delta":25640162},{"NoteNumber":74,"Velocity":32,"Duration":82066,"SoundDuration":82066,"Delta":25721765},{"NoteNumber":71,"Velocity":32,"Duration":82718,"SoundDuration":82718,"Delta":25803831},{"NoteNumber":68,"Velocity":31,"Duration":83454,"SoundDuration":83454,"Delta":25886550},{"NoteNumber":62,"Velocity":30,"Duration":84071,"SoundDuration":84071,"Delta":25970004},{"NoteNumber":62,"Velocity":30,"Duration":82909,"SoundDuration":82909,"Delta":26138400},{"NoteNumber":68,"Velocity":31,"Duration":82296,"SoundDuration":82296,"Delta":26221309},{"NoteNumber":71,"Velocity":32,"Duration":81603,"SoundDuration":81603,"Delta":26303606},{"NoteNumber":74,"Velocity":33,"Duration":82066,"SoundDuration":82066,"Delta":26385209},{"NoteNumber":71,"Velocity":31,"Duration":82718,"SoundDuration":82718,"Delta":26467275},{"NoteNumber":68,"Velocity":30,"Duration":83454,"SoundDuration":83454,"Delta":26549993},{"NoteNumber":62,"Velocity":29,"Duration":85264,"SoundDuration":85264,"Delta":26633448},{"NoteNumber":66,"Velocity":56,"Duration":697313,"SoundDuration":697313,"Delta":26718712},{"NoteNumber":62,"Velocity":27,"Duration":82662,"SoundDuration":82662,"Delta":26803039},{"NoteNumber":69,"Velocity":30,"Duration":82296,"SoundDuration":82296,"Delta":26885702},{"NoteNumber":72,"Velocity":32,"Duration":81603,"SoundDuration":81603,"Delta":26967998},{"NoteNumber":74,"Velocity":36,"Duration":82066,"SoundDuration":82066,"Delta":27049602},{"NoteNumber":72,"Velocity":34,"Duration":82718,"SoundDuration":82718,"Delta":27131668},{"NoteNumber":69,"Velocity":33,"Duration":83454,"SoundDuration":83454,"Delta":27214386},{"NoteNumber":62,"Velocity":31,"Duration":118184,"SoundDuration":118184,"Delta":27297841},{"NoteNumber":55,"Velocity":43,"Duration":672779,"SoundDuration":672779,"Delta":27416026},{"NoteNumber":62,"Velocity":26,"Duration":86848,"SoundDuration":86848,"Delta":27502622},{"NoteNumber":67,"Velocity":28,"Duration":85268,"SoundDuration":85268,"Delta":27589470},{"NoteNumber":70,"Velocity":30,"Duration":83715,"SoundDuration":83715,"Delta":27674739},{"NoteNumber":74,"Velocity":32,"Duration":82348,"SoundDuration":82348,"Delta":27758455},{"NoteNumber":70,"Velocity":32,"Duration":81910,"SoundDuration":81910,"Delta":27840803},{"NoteNumber":67,"Velocity":29,"Duration":82752,"SoundDuration":82752,"Delta":27922713},{"NoteNumber":62,"Velocity":27,"Duration":83339,"SoundDuration":83339,"Delta":28005466},{"NoteNumber":57,"Velocity":40,"Duration":578103,"SoundDuration":578103,"Delta":28088805},{"NoteNumber":62,"Velocity":26,"Duration":82330,"SoundDuration":82330,"Delta":28171729},{"NoteNumber":67,"Velocity":28,"Duration":81674,"SoundDuration":81674,"Delta":28254059},{"NoteNumber":70,"Velocity":30,"Duration":81839,"SoundDuration":81839,"Delta":28335734},{"NoteNumber":74,"Velocity":31,"Duration":82472,"SoundDuration":82472,"Delta":28417574},{"NoteNumber":70,"Velocity":32,"Duration":83128,"SoundDuration":83128,"Delta":28500046},{"NoteNumber":67,"Velocity":29,"Duration":83733,"SoundDuration":83733,"Delta":28583175},{"NoteNumber":62,"Velocity":27,"Duration":115042,"SoundDuration":115042,"Delta":28666909},{"NoteNumber":58,"Velocity":37,"Duration":119009,"SoundDuration":119009,"Delta":28666909},{"NoteNumber":62,"Velocity":47,"Duration":80298,"SoundDuration":80298,"Delta":28785919},{"NoteNumber":62,"Velocity":28,"Duration":82499,"SoundDuration":82499,"Delta":28868973},{"NoteNumber":67,"Velocity":31,"Duration":82073,"SoundDuration":82073,"Delta":28951473},{"NoteNumber":70,"Velocity":32,"Duration":81406,"SoundDuration":81406,"Delta":29033546},{"NoteNumber":74,"Velocity":33,"Duration":80880,"SoundDuration":80880,"Delta":29114952},{"NoteNumber":70,"Velocity":32,"Duration":81511,"SoundDuration":81511,"Delta":29195833},{"NoteNumber":67,"Velocity":30,"Duration":82093,"SoundDuration":82093,"Delta":29277344},{"NoteNumber":62,"Velocity":28,"Duration":82786,"SoundDuration":82786,"Delta":29359437},{"NoteNumber":55,"Velocity":40,"Duration":412337,"SoundDuration":412337,"Delta":29442224},{"NoteNumber":62,"Velocity":25,"Duration":82910,"SoundDuration":82910,"Delta":29525685},{"NoteNumber":67,"Velocity":27,"Duration":82296,"SoundDuration":82296,"Delta":29608595},{"NoteNumber":70,"Velocity":29,"Duration":81603,"SoundDuration":81603,"Delta":29690891},{"NoteNumber":74,"Velocity":32,"Duration":82066,"SoundDuration":82066,"Delta":29772495},{"NoteNumber":70,"Velocity":30,"Duration":82718,"SoundDuration":82718,"Delta":29854561},{"NoteNumber":57,"Velocity":34,"Duration":82718,"SoundDuration":82718,"Delta":29854561},{"NoteNumber":67,"Velocity":29,"Duration":83454,"SoundDuration":83454,"Delta":29937279},{"NoteNumber":58,"Velocity":38,"Duration":83454,"SoundDuration":83454,"Delta":29937279},{"NoteNumber":62,"Velocity":27,"Duration":118184,"SoundDuration":118184,"Delta":30020734},{"NoteNumber":60,"Velocity":42,"Duration":118184,"SoundDuration":118184,"Delta":30020734},{"NoteNumber":61,"Velocity":46,"Duration":495055,"SoundDuration":495055,"Delta":30138918},{"NoteNumber":64,"Velocity":25,"Duration":82910,"SoundDuration":82910,"Delta":30222380},{"NoteNumber":67,"Velocity":27,"Duration":82296,"SoundDuration":82296,"Delta":30305290},{"NoteNumber":70,"Velocity":29,"Duration":81603,"SoundDuration":81603,"Delta":30387586},{"NoteNumber":76,"Velocity":32,"Duration":82066,"SoundDuration":82066,"Delta":30469189},{"NoteNumber":70,"Velocity":30,"Duration":82718,"SoundDuration":82718,"Delta":30551256},{"NoteNumber":67,"Velocity":29,"Duration":83454,"SoundDuration":83454,"Delta":30633974},{"NoteNumber":60,"Velocity":41,"Duration":83454,"SoundDuration":83454,"Delta":30633974},{"NoteNumber":64,"Velocity":27,"Duration":98141,"SoundDuration":98141,"Delta":30717429},{"NoteNumber":58,"Velocity":46,"Duration":98141,"SoundDuration":98141,"Delta":30717429},{"NoteNumber":67,"Velocity":51,"Duration":1327560,"SoundDuration":1327560,"Delta":30815570},{"NoteNumber":64,"Velocity":25,"Duration":82910,"SoundDuration":82910,"Delta":30899032},{"NoteNumber":70,"Velocity":27,"Duration":82296,"SoundDuration":82296,"Delta":30981942},{"NoteNumber":73,"Velocity":29,"Duration":81603,"SoundDuration":81603,"Delta":31064238},{"NoteNumber":76,"Velocity":32,"Duration":82066,"SoundDuration":82066,"Delta":31145841},{"NoteNumber":73,"Velocity":32,"Duration":82718,"SoundDuration":82718,"Delta":31227908},{"NoteNumber":70,"Velocity":31,"Duration":83454,"SoundDuration":83454,"Delta":31310626},{"NoteNumber":64,"Velocity":27,"Duration":84071,"SoundDuration":84071,"Delta":31394081},{"NoteNumber":64,"Velocity":31,"Duration":82909,"SoundDuration":82909,"Delta":31562477},{"NoteNumber":70,"Velocity":31,"Duration":82296,"SoundDuration":82296,"Delta":31645386},{"NoteNumber":73,"Velocity":32,"Duration":81603,"SoundDuration":81603,"Delta":31727682},{"NoteNumber":76,"Velocity":33,"Duration":82066,"SoundDuration":82066,"Delta":31809285},{"NoteNumber":73,"Velocity":31,"Duration":82718,"SoundDuration":82718,"Delta":31891351},{"NoteNumber":70,"Velocity":30,"Duration":83454,"SoundDuration":83454,"Delta":31974070},{"NoteNumber":64,"Velocity":29,"Duration":85606,"SoundDuration":85606,"Delta":32057524},{"NoteNumber":68,"Velocity":56,"Duration":697313,"SoundDuration":697313,"Delta":32143131},{"NoteNumber":64,"Velocity":27,"Duration":82662,"SoundDuration":82662,"Delta":32227458},{"NoteNumber":71,"Velocity":30,"Duration":82296,"SoundDuration":82296,"Delta":32310121},{"NoteNumber":74,"Velocity":32,"Duration":81603,"SoundDuration":81603,"Delta":32392417},{"NoteNumber":76,"Velocity":36,"Duration":82066,"SoundDuration":82066,"Delta":32474020},{"NoteNumber":74,"Velocity":34,"Duration":82718,"SoundDuration":82718,"Delta":32556087},{"NoteNumber":71,"Velocity":33,"Duration":83454,"SoundDuration":83454,"Delta":32638805},{"NoteNumber":64,"Velocity":31,"Duration":118184,"SoundDuration":118184,"Delta":32722259},{"NoteNumber":57,"Velocity":53,"Duration":672779,"SoundDuration":672779,"Delta":32840444},{"NoteNumber":64,"Velocity":32,"Duration":86848,"SoundDuration":86848,"Delta":32927040},{"NoteNumber":69,"Velocity":35,"Duration":85268,"SoundDuration":85268,"Delta":33013889},{"NoteNumber":73,"Velocity":37,"Duration":83715,"SoundDuration":83715,"Delta":33099158},{"NoteNumber":76,"Velocity":40,"Duration":82348,"SoundDuration":82348,"Delta":33182874},{"NoteNumber":73,"Velocity":40,"Duration":81910,"SoundDuration":81910,"Delta":33265222},{"NoteNumber":69,"Velocity":36,"Duration":82752,"SoundDuration":82752,"Delta":33347132},{"NoteNumber":64,"Velocity":33,"Duration":83339,"SoundDuration":83339,"Delta":33429884},{"NoteNumber":59,"Velocity":50,"Duration":578103,"SoundDuration":578103,"Delta":33513224},{"NoteNumber":64,"Velocity":32,"Duration":82330,"SoundDuration":82330,"Delta":33596148},{"NoteNumber":69,"Velocity":35,"Duration":81674,"SoundDuration":81674,"Delta":33678478},{"NoteNumber":73,"Velocity":37,"Duration":81839,"SoundDuration":81839,"Delta":33760152},{"NoteNumber":76,"Velocity":38,"Duration":82472,"SoundDuration":82472,"Delta":33841992},{"NoteNumber":73,"Velocity":40,"Duration":83128,"SoundDuration":83128,"Delta":33924465},{"NoteNumber":69,"Velocity":36,"Duration":83733,"SoundDuration":83733,"Delta":34007593},{"NoteNumber":64,"Velocity":33,"Duration":115042,"SoundDuration":115042,"Delta":34091327},{"NoteNumber":61,"Velocity":46,"Duration":119009,"SoundDuration":119009,"Delta":34091327},{"NoteNumber":64,"Velocity":53,"Duration":83683,"SoundDuration":83683,"Delta":34210337},{"NoteNumber":64,"Velocity":32,"Duration":86848,"SoundDuration":86848,"Delta":34296933},{"NoteNumber":69,"Velocity":35,"Duration":85268,"SoundDuration":85268,"Delta":34383782},{"NoteNumber":73,"Velocity":37,"Duration":83715,"SoundDuration":83715,"Delta":34469051},{"NoteNumber":76,"Velocity":40,"Duration":82348,"SoundDuration":82348,"Delta":34552767},{"NoteNumber":73,"Velocity":40,"Duration":81910,"SoundDuration":81910,"Delta":34635115},{"NoteNumber":69,"Velocity":36,"Duration":82752,"SoundDuration":82752,"Delta":34717025},{"NoteNumber":64,"Velocity":33,"Duration":83339,"SoundDuration":83339,"Delta":34799777},{"NoteNumber":57,"Velocity":50,"Duration":697113,"SoundDuration":697113,"Delta":34883117},{"NoteNumber":64,"Velocity":32,"Duration":82330,"SoundDuration":82330,"Delta":34966041},{"NoteNumber":69,"Velocity":35,"Duration":81674,"SoundDuration":81674,"Delta":35048371},{"NoteNumber":73,"Velocity":37,"Duration":81839,"SoundDuration":81839,"Delta":35130045},{"NoteNumber":76,"Velocity":38,"Duration":82472,"SoundDuration":82472,"Delta":35211885},{"NoteNumber":73,"Velocity":40,"Duration":83128,"SoundDuration":83128,"Delta":35294358},{"NoteNumber":69,"Velocity":36,"Duration":83733,"SoundDuration":83733,"Delta":35377486},{"NoteNumber":64,"Velocity":33,"Duration":115042,"SoundDuration":115042,"Delta":35461220},{"NoteNumber":65,"Velocity":53,"Duration":83683,"SoundDuration":83683,"Delta":35580230},{"NoteNumber":65,"Velocity":32,"Duration":86848,"SoundDuration":86848,"Delta":35666827},{"NoteNumber":68,"Velocity":35,"Duration":85268,"SoundDuration":85268,"Delta":35753675},{"NoteNumber":73,"Velocity":37,"Duration":83715,"SoundDuration":83715,"Delta":35838944},{"NoteNumber":77,"Velocity":41,"Duration":82348,"SoundDuration":82348,"Delta":35922660},{"NoteNumber":73,"Velocity":41,"Duration":81910,"SoundDuration":81910,"Delta":36005008},{"NoteNumber":68,"Velocity":37,"Duration":82752,"SoundDuration":82752,"Delta":36086918},{"NoteNumber":65,"Velocity":34,"Duration":83339,"SoundDuration":83339,"Delta":36169671},{"NoteNumber":63,"Velocity":53,"Duration":670309,"SoundDuration":670309,"Delta":36253010},{"NoteNumber":65,"Velocity":34,"Duration":82330,"SoundDuration":82330,"Delta":36335934},{"NoteNumber":68,"Velocity":37,"Duration":81674,"SoundDuration":81674,"Delta":36418264},{"NoteNumber":73,"Velocity":39,"Duration":81839,"SoundDuration":81839,"Delta":36499939},{"NoteNumber":77,"Velocity":41,"Duration":82472,"SoundDuration":82472,"Delta":36581779},{"NoteNumber":73,"Velocity":44,"Duration":83128,"SoundDuration":83128,"Delta":36664251},{"NoteNumber":68,"Velocity":39,"Duration":83733,"SoundDuration":83733,"Delta":36747380},{"NoteNumber":65,"Velocity":36,"Duration":89131,"SoundDuration":89131,"Delta":36831113},{"NoteNumber":61,"Velocity":59,"Duration":672779,"SoundDuration":672779,"Delta":36923319},{"NoteNumber":65,"Velocity":36,"Duration":86848,"SoundDuration":86848,"Delta":37009915},{"NoteNumber":68,"Velocity":39,"Duration":85268,"SoundDuration":85268,"Delta":37096764},{"NoteNumber":73,"Velocity":42,"Duration":83715,"SoundDuration":83715,"Delta":37182033},{"NoteNumber":77,"Velocity":46,"Duration":82348,"SoundDuration":82348,"Delta":37265748},{"NoteNumber":73,"Velocity":46,"Duration":81910,"SoundDuration":81910,"Delta":37348097},{"NoteNumber":68,"Velocity":42,"Duration":82752,"SoundDuration":82752,"Delta":37430007},{"NoteNumber":65,"Velocity":38,"Duration":83339,"SoundDuration":83339,"Delta":37512759},{"NoteNumber":60,"Velocity":59,"Duration":578103,"SoundDuration":578103,"Delta":37596099},{"NoteNumber":65,"Velocity":38,"Duration":82330,"SoundDuration":82330,"Delta":37679022},{"NoteNumber":68,"Velocity":42,"Duration":81674,"SoundDuration":81674,"Delta":37761352},{"NoteNumber":73,"Velocity":44,"Duration":81839,"SoundDuration":81839,"Delta":37843027},{"NoteNumber":77,"Velocity":45,"Duration":82472,"SoundDuration":82472,"Delta":37924867},{"NoteNumber":73,"Velocity":48,"Duration":83128,"SoundDuration":83128,"Delta":38007340},{"NoteNumber":68,"Velocity":44,"Duration":83733,"SoundDuration":83733,"Delta":38090468},{"NoteNumber":65,"Velocity":40,"Duration":115042,"SoundDuration":115042,"Delta":38174202},{"NoteNumber":58,"Velocity":57,"Duration":119009,"SoundDuration":119009,"Delta":38174202},{"NoteNumber":44,"Velocity":56,"Duration":672779,"SoundDuration":672779,"Delta":38293212},{"NoteNumber":56,"Velocity":66,"Duration":672779,"SoundDuration":672779,"Delta":38293212},{"NoteNumber":66,"Velocity":40,"Duration":86848,"SoundDuration":86848,"Delta":38379808},{"NoteNumber":72,"Velocity":44,"Duration":85268,"SoundDuration":85268,"Delta":38466657},{"NoteNumber":75,"Velocity":47,"Duration":83715,"SoundDuration":83715,"Delta":38551926},{"NoteNumber":80,"Velocity":51,"Duration":82348,"SoundDuration":82348,"Delta":38635642},{"NoteNumber":75,"Velocity":52,"Duration":81910,"SoundDuration":81910,"Delta":38717990},{"NoteNumber":72,"Velocity":47,"Duration":82752,"SoundDuration":82752,"Delta":38799900},{"NoteNumber":66,"Velocity":43,"Duration":83339,"SoundDuration":83339,"Delta":38882652},{"NoteNumber":43,"Velocity":58,"Duration":689610,"SoundDuration":689610,"Delta":38965992},{"NoteNumber":55,"Velocity":68,"Duration":689610,"SoundDuration":689610,"Delta":38965992},{"NoteNumber":66,"Velocity":42,"Duration":82330,"SoundDuration":82330,"Delta":39048915},{"NoteNumber":72,"Velocity":47,"Duration":81674,"SoundDuration":81674,"Delta":39131245},{"NoteNumber":75,"Velocity":50,"Duration":81839,"SoundDuration":81839,"Delta":39212920},{"NoteNumber":80,"Velocity":52,"Duration":82472,"SoundDuration":82472,"Delta":39294760},{"NoteNumber":75,"Velocity":55,"Duration":83128,"SoundDuration":83128,"Delta":39377233},{"NoteNumber":72,"Velocity":50,"Duration":83733,"SoundDuration":83733,"Delta":39460361},{"NoteNumber":66,"Velocity":46,"Duration":108540,"SoundDuration":108540,"Delta":39544095},{"NoteNumber":42,"Velocity":59,"Duration":704157,"SoundDuration":704157,"Delta":39655603},{"NoteNumber":54,"Velocity":71,"Duration":704157,"SoundDuration":704157,"Delta":39655603},{"NoteNumber":66,"Velocity":45,"Duration":87699,"SoundDuration":87699,"Delta":39744340},{"NoteNumber":72,"Velocity":50,"Duration":86685,"SoundDuration":86685,"Delta":39832039},{"NoteNumber":75,"Velocity":53,"Duration":85695,"SoundDuration":85695,"Delta":39918725},{"NoteNumber":80,"Velocity":58,"Duration":84846,"SoundDuration":84846,"Delta":40004421},{"NoteNumber":75,"Velocity":58,"Duration":87198,"SoundDuration":87198,"Delta":40089267},{"NoteNumber":72,"Velocity":53,"Duration":90761,"SoundDuration":90761,"Delta":40176466},{"NoteNumber":66,"Velocity":49,"Duration":92531,"SoundDuration":92531,"Delta":40267228},{"NoteNumber":41,"Velocity":63,"Duration":669070,"SoundDuration":669070,"Delta":40359760},{"NoteNumber":53,"Velocity":75,"Duration":669070,"SoundDuration":669070,"Delta":40359760},{"NoteNumber":66,"Velocity":48,"Duration":92145,"SoundDuration":92145,"Delta":40453343},{"NoteNumber":72,"Velocity":53,"Duration":90614,"SoundDuration":90614,"Delta":40545488},{"NoteNumber":75,"Velocity":56,"Duration":92581,"SoundDuration":92581,"Delta":40636102},{"NoteNumber":80,"Velocity":58,"Duration":96142,"SoundDuration":96142,"Delta":40728684},{"NoteNumber":75,"Velocity":62,"Duration":99987,"SoundDuration":99987,"Delta":40824826},{"NoteNumber":72,"Velocity":56,"Duration":104017,"SoundDuration":104017,"Delta":40924813},{"NoteNumber":66,"Velocity":51,"Duration":97358,"SoundDuration":97358,"Delta":41028831},{"NoteNumber":39,"Velocity":61,"Duration":100253,"SoundDuration":100253,"Delta":41028831},{"NoteNumber":51,"Velocity":72,"Duration":100253,"SoundDuration":100253,"Delta":41028831},{"NoteNumber":82,"Velocity":77,"Duration":668082,"SoundDuration":668082,"Delta":41129084},{"NoteNumber":77,"Velocity":64,"Duration":668082,"SoundDuration":668082,"Delta":41129084},{"NoteNumber":73,"Velocity":55,"Duration":668082,"SoundDuration":668082,"Delta":41129084},{"NoteNumber":70,"Velocity":55,"Duration":668082,"SoundDuration":668082,"Delta":41129084},{"NoteNumber":37,"Velocity":63,"Duration":137579,"SoundDuration":137579,"Delta":41129084},{"NoteNumber":44,"Velocity":48,"Duration":135094,"SoundDuration":135094,"Delta":41266663},{"NoteNumber":49,"Velocity":50,"Duration":132682,"SoundDuration":132682,"Delta":41401758},{"NoteNumber":53,"Velocity":52,"Duration":131362,"SoundDuration":131362,"Delta":41534441},{"NoteNumber":58,"Velocity":54,"Duration":131362,"SoundDuration":131362,"Delta":41665804},{"NoteNumber":53,"Velocity":57,"Duration":503859,"SoundDuration":503859,"Delta":41797166},{"NoteNumber":61,"Velocity":57,"Duration":503859,"SoundDuration":503859,"Delta":41797166},{"NoteNumber":65,"Velocity":66,"Duration":503859,"SoundDuration":503859,"Delta":41797166},{"NoteNumber":58,"Velocity":50,"Duration":195755,"SoundDuration":195755,"Delta":42301025},{"NoteNumber":70,"Velocity":59,"Duration":195755,"SoundDuration":195755,"Delta":42301025},{"NoteNumber":56,"Velocity":50,"Duration":339424,"SoundDuration":339424,"Delta":42496781},{"NoteNumber":61,"Velocity":50,"Duration":674211,"SoundDuration":674211,"Delta":42496781},{"NoteNumber":65,"Velocity":56,"Duration":674211,"SoundDuration":674211,"Delta":42496781},{"NoteNumber":68,"Velocity":66,"Duration":674211,"SoundDuration":674211,"Delta":42496781},{"NoteNumber":41,"Velocity":63,"Duration":136369,"SoundDuration":136369,"Delta":42496781},{"NoteNumber":44,"Velocity":49,"Duration":135570,"SoundDuration":135570,"Delta":42633151},{"NoteNumber":49,"Velocity":52,"Duration":134794,"SoundDuration":134794,"Delta":42768722},{"NoteNumber":53,"Velocity":54,"Duration":134022,"SoundDuration":134022,"Delta":42903516},{"NoteNumber":56,"Velocity":57,"Duration":133454,"SoundDuration":133454,"Delta":43037538},{"NoteNumber":49,"Velocity":55,"Duration":530437,"SoundDuration":530437,"Delta":43170992},{"NoteNumber":61,"Velocity":64,"Duration":530437,"SoundDuration":530437,"Delta":43170992},{"NoteNumber":51,"Velocity":45,"Duration":200705,"SoundDuration":200705,"Delta":43701430},{"NoteNumber":63,"Velocity":54,"Duration":200705,"SoundDuration":200705,"Delta":43701430},{"NoteNumber":53,"Velocity":57,"Duration":674764,"SoundDuration":674764,"Delta":43902136},{"NoteNumber":60,"Velocity":57,"Duration":674764,"SoundDuration":674764,"Delta":43902136},{"NoteNumber":65,"Velocity":68,"Duration":674764,"SoundDuration":674764,"Delta":43902136},{"NoteNumber":32,"Velocity":63,"Duration":171315,"SoundDuration":171315,"Delta":43902136},{"NoteNumber":44,"Velocity":53,"Duration":169581,"SoundDuration":169581,"Delta":44073452},{"NoteNumber":56,"Velocity":53,"Duration":167920,"SoundDuration":167920,"Delta":44243033},{"NoteNumber":55,"Velocity":53,"Duration":165946,"SoundDuration":165946,"Delta":44410953},{"NoteNumber":56,"Velocity":42,"Duration":1270125,"SoundDuration":1270125,"Delta":44576900},{"NoteNumber":65,"Velocity":51,"Duration":1270125,"SoundDuration":1270125,"Delta":44576900},{"NoteNumber":60,"Velocity":42,"Duration":1270125,"SoundDuration":1270125,"Delta":44576900},{"NoteNumber":68,"Velocity":60,"Duration":1270125,"SoundDuration":1270125,"Delta":44576900},{"NoteNumber":54,"Velocity":51,"Duration":163647,"SoundDuration":163647,"Delta":44576900},{"NoteNumber":53,"Velocity":44,"Duration":161336,"SoundDuration":161336,"Delta":44740547},{"NoteNumber":52,"Velocity":44,"Duration":159020,"SoundDuration":159020,"Delta":44901884},{"NoteNumber":51,"Velocity":44,"Duration":156804,"SoundDuration":156804,"Delta":45060905},{"NoteNumber":50,"Velocity":51,"Duration":155682,"SoundDuration":155682,"Delta":45217709},{"NoteNumber":49,"Velocity":48,"Duration":155682,"SoundDuration":155682,"Delta":45373392},{"NoteNumber":48,"Velocity":44,"Duration":157151,"SoundDuration":157151,"Delta":45529074},{"NoteNumber":47,"Velocity":44,"Duration":160799,"SoundDuration":160799,"Delta":45686226},{"NoteNumber":60,"Velocity":54,"Duration":710486,"SoundDuration":710486,"Delta":45847025},{"NoteNumber":54,"Velocity":50,"Duration":710486,"SoundDuration":710486,"Delta":45847025},{"NoteNumber":64,"Velocity":64,"Duration":710486,"SoundDuration":710486,"Delta":45847025},{"NoteNumber":46,"Velocity":48,"Duration":163346,"SoundDuration":163346,"Delta":45847025},{"NoteNumber":44,"Velocity":40,"Duration":166999,"SoundDuration":166999,"Delta":46010372},{"NoteNumber":43,"Velocity":44,"Duration":179100,"SoundDuration":179100,"Delta":46177371},{"NoteNumber":44,"Velocity":48,"Duration":201039,"SoundDuration":201039,"Delta":46356472},{"NoteNumber":70,"Velocity":69,"Duration":665747,"SoundDuration":665747,"Delta":46557512},{"NoteNumber":65,"Velocity":58,"Duration":665747,"SoundDuration":665747,"Delta":46557512},{"NoteNumber":61,"Velocity":49,"Duration":665747,"SoundDuration":665747,"Delta":46557512},{"NoteNumber":58,"Velocity":49,"Duration":333741,"SoundDuration":333741,"Delta":46557512},{"NoteNumber":37,"Velocity":63,"Duration":133511,"SoundDuration":133511,"Delta":46557512},{"NoteNumber":44,"Velocity":48,"Duration":133511,"SoundDuration":133511,"Delta":46691023},{"NoteNumber":49,"Velocity":50,"Duration":133119,"SoundDuration":133119,"Delta":46824535},{"NoteNumber":53,"Velocity":52,"Duration":132802,"SoundDuration":132802,"Delta":46957654},{"NoteNumber":58,"Velocity":54,"Duration":132802,"SoundDuration":132802,"Delta":47090457},{"NoteNumber":53,"Velocity":57,"Duration":501274,"SoundDuration":501274,"Delta":47223259},{"NoteNumber":61,"Velocity":57,"Duration":501274,"SoundDuration":501274,"Delta":47223259},{"NoteNumber":65,"Velocity":66,"Duration":501274,"SoundDuration":501274,"Delta":47223259},{"NoteNumber":58,"Velocity":50,"Duration":189948,"SoundDuration":189948,"Delta":47724533},{"NoteNumber":70,"Velocity":59,"Duration":189948,"SoundDuration":189948,"Delta":47724533},{"NoteNumber":56,"Velocity":45,"Duration":339424,"SoundDuration":339424,"Delta":47914482},{"NoteNumber":61,"Velocity":44,"Duration":674211,"SoundDuration":674211,"Delta":47914482},{"NoteNumber":65,"Velocity":59,"Duration":674211,"SoundDuration":674211,"Delta":47914482},{"NoteNumber":68,"Velocity":70,"Duration":674211,"SoundDuration":674211,"Delta":47914482},{"NoteNumber":34,"Velocity":63,"Duration":136369,"SoundDuration":136369,"Delta":47914482},{"NoteNumber":46,"Velocity":49,"Duration":135570,"SoundDuration":135570,"Delta":48050852},{"NoteNumber":49,"Velocity":52,"Duration":134794,"SoundDuration":134794,"Delta":48186423},{"NoteNumber":53,"Velocity":54,"Duration":134022,"SoundDuration":134022,"Delta":48321217},{"NoteNumber":56,"Velocity":57,"Duration":133454,"SoundDuration":133454,"Delta":48455239},{"NoteNumber":49,"Velocity":55,"Duration":498550,"SoundDuration":498550,"Delta":48588694},{"NoteNumber":61,"Velocity":64,"Duration":498550,"SoundDuration":498550,"Delta":48588694},{"NoteNumber":51,"Velocity":45,"Duration":169913,"SoundDuration":169913,"Delta":49087245},{"NoteNumber":63,"Velocity":54,"Duration":169913,"SoundDuration":169913,"Delta":49087245},{"NoteNumber":53,"Velocity":51,"Duration":647979,"SoundDuration":647979,"Delta":49257159},{"NoteNumber":59,"Velocity":57,"Duration":647979,"SoundDuration":647979,"Delta":49257159},{"NoteNumber":65,"Velocity":68,"Duration":647979,"SoundDuration":647979,"Delta":49257159},{"NoteNumber":37,"Velocity":63,"Duration":165553,"SoundDuration":165553,"Delta":49257159},{"NoteNumber":44,"Velocity":58,"Duration":163479,"SoundDuration":163479,"Delta":49422713},{"NoteNumber":49,"Velocity":58,"Duration":159501,"SoundDuration":159501,"Delta":49586192},{"NoteNumber":53,"Velocity":57,"Duration":159444,"SoundDuration":159444,"Delta":49745693},{"NoteNumber":63,"Velocity":54,"Duration":1946149,"SoundDuration":1946149,"Delta":49905138},{"NoteNumber":59,"Velocity":54,"Duration":1946149,"SoundDuration":1946149,"Delta":49905138},{"NoteNumber":68,"Velocity":64,"Duration":1946149,"SoundDuration":1946149,"Delta":49905138},{"NoteNumber":56,"Velocity":57,"Duration":161101,"SoundDuration":161101,"Delta":49905138},{"NoteNumber":54,"Velocity":52,"Duration":159760,"SoundDuration":159760,"Delta":50066239},{"NoteNumber":53,"Velocity":51,"Duration":158077,"SoundDuration":158077,"Delta":50226000},{"NoteNumber":51,"Velocity":49,"Duration":156428,"SoundDuration":156428,"Delta":50384077},{"NoteNumber":49,"Velocity":51,"Duration":155046,"SoundDuration":155046,"Delta":50540506},{"NoteNumber":47,"Velocity":48,"Duration":154878,"SoundDuration":154878,"Delta":50695552},{"NoteNumber":46,"Velocity":48,"Duration":155515,"SoundDuration":155515,"Delta":50850431},{"NoteNumber":44,"Velocity":46,"Duration":155682,"SoundDuration":155682,"Delta":51005946},{"NoteNumber":42,"Velocity":51,"Duration":158915,"SoundDuration":158915,"Delta":51161628},{"NoteNumber":41,"Velocity":48,"Duration":164550,"SoundDuration":164550,"Delta":51320544},{"NoteNumber":39,"Velocity":50,"Duration":173444,"SoundDuration":173444,"Delta":51485095},{"NoteNumber":37,"Velocity":52,"Duration":192748,"SoundDuration":192748,"Delta":51658539},{"NoteNumber":72,"Velocity":70,"Duration":671406,"SoundDuration":671406,"Delta":51851287},{"NoteNumber":68,"Velocity":59,"Duration":671406,"SoundDuration":671406,"Delta":51851287},{"NoteNumber":60,"Velocity":59,"Duration":339401,"SoundDuration":339401,"Delta":51851287},{"NoteNumber":36,"Velocity":59,"Duration":135823,"SoundDuration":135823,"Delta":51851287},{"NoteNumber":48,"Velocity":45,"Duration":135823,"SoundDuration":135823,"Delta":51987111},{"NoteNumber":53,"Velocity":47,"Duration":134155,"SoundDuration":134155,"Delta":52122934},{"NoteNumber":56,"Velocity":49,"Duration":132802,"SoundDuration":132802,"Delta":52257090},{"NoteNumber":60,"Velocity":51,"Duration":132802,"SoundDuration":132802,"Delta":52389892},{"NoteNumber":56,"Velocity":52,"Duration":511838,"SoundDuration":511838,"Delta":52522694},{"NoteNumber":65,"Velocity":52,"Duration":511838,"SoundDuration":511838,"Delta":52522694},{"NoteNumber":68,"Velocity":60,"Duration":511838,"SoundDuration":511838,"Delta":52522694},{"NoteNumber":58,"Velocity":50,"Duration":193174,"SoundDuration":193174,"Delta":53034533},{"NoteNumber":70,"Velocity":59,"Duration":193174,"SoundDuration":193174,"Delta":53034533},{"NoteNumber":60,"Velocity":45,"Duration":679475,"SoundDuration":679475,"Delta":53227707},{"NoteNumber":64,"Velocity":44,"Duration":679475,"SoundDuration":679475,"Delta":53227707},{"NoteNumber":68,"Velocity":59,"Duration":679475,"SoundDuration":679475,"Delta":53227707},{"NoteNumber":72,"Velocity":70,"Duration":679475,"SoundDuration":679475,"Delta":53227707},{"NoteNumber":48,"Velocity":39,"Duration":103088,"SoundDuration":103088,"Delta":53227707},{"NoteNumber":50,"Velocity":40,"Duration":98915,"SoundDuration":98915,"Delta":53330795},{"NoteNumber":52,"Velocity":40,"Duration":98155,"SoundDuration":98155,"Delta":53431157},{"NoteNumber":53,"Velocity":41,"Duration":94913,"SoundDuration":94913,"Delta":53529312},{"NoteNumber":55,"Velocity":43,"Duration":95269,"SoundDuration":95269,"Delta":53624225},{"NoteNumber":56,"Velocity":44,"Duration":92986,"SoundDuration":92986,"Delta":53719495},{"NoteNumber":58,"Velocity":45,"Duration":93354,"SoundDuration":93354,"Delta":53812481},{"NoteNumber":60,"Velocity":46,"Duration":91034,"SoundDuration":91034,"Delta":53905836},{"NoteNumber":62,"Velocity":47,"Duration":90195,"SoundDuration":90195,"Delta":53996870},{"NoteNumber":64,"Velocity":48,"Duration":89274,"SoundDuration":89274,"Delta":54087065},{"NoteNumber":65,"Velocity":50,"Duration":88356,"SoundDuration":88356,"Delta":54177646},{"NoteNumber":67,"Velocity":51,"Duration":88850,"SoundDuration":88850,"Delta":54266002},{"NoteNumber":68,"Velocity":53,"Duration":87511,"SoundDuration":87511,"Delta":54354853},{"NoteNumber":70,"Velocity":54,"Duration":134483,"SoundDuration":134483,"Delta":54442365},{"NoteNumber":72,"Velocity":61,"Duration":673884,"SoundDuration":673884,"Delta":54576848},{"NoteNumber":68,"Velocity":51,"Duration":673884,"SoundDuration":673884,"Delta":54576848},{"NoteNumber":60,"Velocity":51,"Duration":341878,"SoundDuration":341878,"Delta":54576848},{"NoteNumber":41,"Velocity":45,"Duration":137378,"SoundDuration":137378,"Delta":54576848},{"NoteNumber":48,"Velocity":35,"Duration":137088,"SoundDuration":137088,"Delta":54714226},{"NoteNumber":53,"Velocity":37,"Duration":133813,"SoundDuration":133813,"Delta":54851315},{"NoteNumber":56,"Velocity":39,"Duration":132802,"SoundDuration":132802,"Delta":54985128},{"NoteNumber":60,"Velocity":42,"Duration":132802,"SoundDuration":132802,"Delta":55117930},{"NoteNumber":56,"Velocity":46,"Duration":514369,"SoundDuration":514369,"Delta":55250732},{"NoteNumber":65,"Velocity":46,"Duration":514369,"SoundDuration":514369,"Delta":55250732},{"NoteNumber":68,"Velocity":54,"Duration":514369,"SoundDuration":514369,"Delta":55250732},{"NoteNumber":58,"Velocity":49,"Duration":195592,"SoundDuration":195592,"Delta":55765102},{"NoteNumber":70,"Velocity":57,"Duration":195592,"SoundDuration":195592,"Delta":55765102},{"NoteNumber":60,"Velocity":42,"Duration":690374,"SoundDuration":690374,"Delta":55960695},{"NoteNumber":64,"Velocity":41,"Duration":690374,"SoundDuration":690374,"Delta":55960695},{"NoteNumber":68,"Velocity":56,"Duration":690374,"SoundDuration":690374,"Delta":55960695},{"NoteNumber":72,"Velocity":66,"Duration":690374,"SoundDuration":690374,"Delta":55960695},{"NoteNumber":48,"Velocity":36,"Duration":103591,"SoundDuration":103591,"Delta":55960695},{"NoteNumber":50,"Velocity":37,"Duration":98915,"SoundDuration":98915,"Delta":56064286},{"NoteNumber":52,"Velocity":37,"Duration":98155,"SoundDuration":98155,"Delta":56164648},{"NoteNumber":53,"Velocity":38,"Duration":97542,"SoundDuration":97542,"Delta":56262803},{"NoteNumber":55,"Velocity":40,"Duration":98115,"SoundDuration":98115,"Delta":56360345},{"NoteNumber":56,"Velocity":41,"Duration":95512,"SoundDuration":95512,"Delta":56458461},{"NoteNumber":58,"Velocity":42,"Duration":95719,"SoundDuration":95719,"Delta":56553974},{"NoteNumber":60,"Velocity":45,"Duration":93175,"SoundDuration":93175,"Delta":56649693},{"NoteNumber":62,"Velocity":46,"Duration":92085,"SoundDuration":92085,"Delta":56742868},{"NoteNumber":64,"Velocity":48,"Duration":92353,"SoundDuration":92353,"Delta":56834953},{"NoteNumber":65,"Velocity":50,"Duration":89916,"SoundDuration":89916,"Delta":56927307},{"NoteNumber":67,"Velocity":52,"Duration":90194,"SoundDuration":90194,"Delta":57017223},{"NoteNumber":68,"Velocity":53,"Duration":87832,"SoundDuration":87832,"Delta":57107418},{"NoteNumber":70,"Velocity":54,"Duration":136296,"SoundDuration":136296,"Delta":57195250},{"NoteNumber":72,"Velocity":61,"Duration":665747,"SoundDuration":665747,"Delta":57331546},{"NoteNumber":68,"Velocity":51,"Duration":665747,"SoundDuration":665747,"Delta":57331546},{"NoteNumber":60,"Velocity":51,"Duration":665747,"SoundDuration":665747,"Delta":57331546},{"NoteNumber":41,"Velocity":45,"Duration":133511,"SoundDuration":133511,"Delta":57331546},{"NoteNumber":48,"Velocity":35,"Duration":133511,"SoundDuration":133511,"Delta":57465058},{"NoteNumber":53,"Velocity":37,"Duration":133119,"SoundDuration":133119,"Delta":57598569},{"NoteNumber":56,"Velocity":39,"Duration":132802,"SoundDuration":132802,"Delta":57731689},{"NoteNumber":60,"Velocity":42,"Duration":132802,"SoundDuration":132802,"Delta":57864491},{"NoteNumber":65,"Velocity":50,"Duration":514369,"SoundDuration":514369,"Delta":57997293},{"NoteNumber":68,"Velocity":59,"Duration":514369,"SoundDuration":514369,"Delta":57997293},{"NoteNumber":68,"Velocity":49,"Duration":191448,"SoundDuration":191448,"Delta":58511663},{"NoteNumber":72,"Velocity":57,"Duration":191448,"SoundDuration":191448,"Delta":58511663},{"NoteNumber":63,"Velocity":55,"Duration":659460,"SoundDuration":659460,"Delta":58703111},{"NoteNumber":67,"Velocity":53,"Duration":659460,"SoundDuration":659460,"Delta":58703111},{"NoteNumber":70,"Velocity":61,"Duration":659460,"SoundDuration":659460,"Delta":58703111},{"NoteNumber":75,"Velocity":72,"Duration":659460,"SoundDuration":659460,"Delta":58703111},{"NoteNumber":39,"Velocity":46,"Duration":114597,"SoundDuration":114597,"Delta":58703111},{"NoteNumber":46,"Velocity":47,"Duration":111564,"SoundDuration":111564,"Delta":58817709},{"NoteNumber":51,"Velocity":48,"Duration":110155,"SoundDuration":110155,"Delta":58929273},{"NoteNumber":55,"Velocity":49,"Duration":108922,"SoundDuration":108922,"Delta":59039428},{"NoteNumber":58,"Velocity":50,"Duration":107716,"SoundDuration":107716,"Delta":59148351},{"NoteNumber":61,"Velocity":51,"Duration":106504,"SoundDuration":106504,"Delta":59256067},{"NoteNumber":63,"Velocity":66,"Duration":648483,"SoundDuration":648483,"Delta":59362572},{"NoteNumber":61,"Velocity":53,"Duration":106642,"SoundDuration":106642,"Delta":59468326},{"NoteNumber":58,"Velocity":51,"Duration":107609,"SoundDuration":107609,"Delta":59574968},{"NoteNumber":55,"Velocity":50,"Duration":108531,"SoundDuration":108531,"Delta":59682578},{"NoteNumber":51,"Velocity":49,"Duration":109460,"SoundDuration":109460,"Delta":59791109},{"NoteNumber":46,"Velocity":48,"Duration":110486,"SoundDuration":110486,"Delta":59900569},{"NoteNumber":68,"Velocity":66,"Duration":497533,"SoundDuration":497533,"Delta":60011056},{"NoteNumber":44,"Velocity":46,"Duration":112857,"SoundDuration":112857,"Delta":60011056},{"NoteNumber":51,"Velocity":47,"Duration":111564,"SoundDuration":111564,"Delta":60123913},{"NoteNumber":56,"Velocity":48,"Duration":110155,"SoundDuration":110155,"Delta":60235477},{"NoteNumber":60,"Velocity":49,"Duration":108922,"SoundDuration":108922,"Delta":60345632},{"NoteNumber":63,"Velocity":50,"Duration":107716,"SoundDuration":107716,"Delta":60454555},{"NoteNumber":68,"Velocity":51,"Duration":106504,"SoundDuration":106504,"Delta":60562272},{"NoteNumber":72,"Velocity":51,"Duration":105585,"SoundDuration":105585,"Delta":60668776},{"NoteNumber":70,"Velocity":46,"Duration":105585,"SoundDuration":105585,"Delta":60774362},{"NoteNumber":68,"Velocity":46,"Duration":105585,"SoundDuration":105585,"Delta":60879947},{"NoteNumber":65,"Velocity":51,"Duration":105585,"SoundDuration":105585,"Delta":60985533},{"NoteNumber":63,"Velocity":47,"Duration":105585,"SoundDuration":105585,"Delta":61091118},{"NoteNumber":65,"Velocity":47,"Duration":105585,"SoundDuration":105585,"Delta":61196704},{"NoteNumber":63,"Velocity":52,"Duration":105585,"SoundDuration":105585,"Delta":61302289},{"NoteNumber":60,"Velocity":51,"Duration":105585,"SoundDuration":105585,"Delta":61407875},{"NoteNumber":56,"Velocity":50,"Duration":105585,"SoundDuration":105585,"Delta":61513460},{"NoteNumber":58,"Velocity":48,"Duration":105585,"SoundDuration":105585,"Delta":61619046},{"NoteNumber":56,"Velocity":47,"Duration":105585,"SoundDuration":105585,"Delta":61724631},{"NoteNumber":53,"Velocity":46,"Duration":105452,"SoundDuration":105452,"Delta":61830217},{"NoteNumber":51,"Velocity":44,"Duration":105857,"SoundDuration":105857,"Delta":61935669},{"NoteNumber":53,"Velocity":43,"Duration":107297,"SoundDuration":107297,"Delta":62041526},{"NoteNumber":51,"Velocity":42,"Duration":108851,"SoundDuration":108851,"Delta":62148824},{"NoteNumber":48,"Velocity":40,"Duration":110376,"SoundDuration":110376,"Delta":62257676},{"NoteNumber":44,"Velocity":39,"Duration":116627,"SoundDuration":116627,"Delta":62368052},{"NoteNumber":43,"Velocity":38,"Duration":128348,"SoundDuration":128348,"Delta":62484679},{"NoteNumber":68,"Velocity":47,"Duration":665747,"SoundDuration":665747,"Delta":62613028},{"NoteNumber":77,"Velocity":56,"Duration":665747,"SoundDuration":665747,"Delta":62613028},{"NoteNumber":72,"Velocity":47,"Duration":665747,"SoundDuration":665747,"Delta":62613028},{"NoteNumber":65,"Velocity":47,"Duration":333741,"SoundDuration":333741,"Delta":62613028},{"NoteNumber":41,"Velocity":46,"Duration":111259,"SoundDuration":111259,"Delta":62613028},{"NoteNumber":48,"Velocity":47,"Duration":111259,"SoundDuration":111259,"Delta":62724287},{"NoteNumber":53,"Velocity":48,"Duration":111222,"SoundDuration":111222,"Delta":62835547},{"NoteNumber":56,"Velocity":49,"Duration":110668,"SoundDuration":110668,"Delta":62946769},{"NoteNumber":60,"Velocity":50,"Duration":110668,"SoundDuration":110668,"Delta":63057438},{"NoteNumber":65,"Velocity":51,"Duration":110668,"SoundDuration":110668,"Delta":63168106},{"NoteNumber":72,"Velocity":46,"Duration":522878,"SoundDuration":522878,"Delta":63278775},{"NoteNumber":67,"Velocity":46,"Duration":522878,"SoundDuration":522878,"Delta":63278775},{"NoteNumber":79,"Velocity":54,"Duration":522878,"SoundDuration":522878,"Delta":63278775},{"NoteNumber":65,"Velocity":53,"Duration":116455,"SoundDuration":116455,"Delta":63395230},{"NoteNumber":60,"Velocity":51,"Duration":116455,"SoundDuration":116455,"Delta":63511685},{"NoteNumber":56,"Velocity":50,"Duration":116455,"SoundDuration":116455,"Delta":63628140},{"NoteNumber":53,"Velocity":49,"Duration":122674,"SoundDuration":122674,"Delta":63744595},{"NoteNumber":68,"Velocity":49,"Duration":189185,"SoundDuration":189185,"Delta":63801653},{"NoteNumber":80,"Velocity":57,"Duration":189185,"SoundDuration":189185,"Delta":63801653},{"NoteNumber":48,"Velocity":48,"Duration":123568,"SoundDuration":123568,"Delta":63867270},{"NoteNumber":72,"Velocity":50,"Duration":657720,"SoundDuration":657720,"Delta":63990839},{"NoteNumber":77,"Velocity":49,"Duration":657720,"SoundDuration":657720,"Delta":63990839},{"NoteNumber":80,"Velocity":56,"Duration":657720,"SoundDuration":657720,"Delta":63990839},{"NoteNumber":84,"Velocity":66,"Duration":657720,"SoundDuration":657720,"Delta":63990839},{"NoteNumber":41,"Velocity":46,"Duration":112857,"SoundDuration":112857,"Delta":63990839},{"NoteNumber":48,"Velocity":47,"Duration":111564,"SoundDuration":111564,"Delta":64103696},{"NoteNumber":53,"Velocity":48,"Duration":110155,"SoundDuration":110155,"Delta":64215260},{"NoteNumber":55,"Velocity":49,"Duration":108922,"SoundDuration":108922,"Delta":64325416},{"NoteNumber":56,"Velocity":50,"Duration":107716,"SoundDuration":107716,"Delta":64434338},{"NoteNumber":60,"Velocity":51,"Duration":106504,"SoundDuration":106504,"Delta":64542055},{"NoteNumber":65,"Velocity":47,"Duration":320005,"SoundDuration":320005,"Delta":64648560},{"NoteNumber":77,"Velocity":56,"Duration":320005,"SoundDuration":320005,"Delta":64648560},{"NoteNumber":60,"Velocity":47,"Duration":106642,"SoundDuration":106642,"Delta":64754313},{"NoteNumber":56,"Velocity":49,"Duration":107609,"SoundDuration":107609,"Delta":64860956},{"NoteNumber":67,"Velocity":55,"Duration":108531,"SoundDuration":108531,"Delta":64968565},{"NoteNumber":53,"Velocity":43,"Duration":108531,"SoundDuration":108531,"Delta":64968565},{"NoteNumber":68,"Velocity":57,"Duration":109460,"SoundDuration":109460,"Delta":65077096},{"NoteNumber":48,"Velocity":45,"Duration":109460,"SoundDuration":109460,"Delta":65077096},{"NoteNumber":70,"Velocity":59,"Duration":110486,"SoundDuration":110486,"Delta":65186557},{"NoteNumber":41,"Velocity":46,"Duration":110486,"SoundDuration":110486,"Delta":65186557},{"NoteNumber":63,"Velocity":56,"Duration":488661,"SoundDuration":488661,"Delta":65297043},{"NoteNumber":68,"Velocity":56,"Duration":488661,"SoundDuration":488661,"Delta":65297043},{"NoteNumber":71,"Velocity":67,"Duration":488661,"SoundDuration":488661,"Delta":65297043},{"NoteNumber":53,"Velocity":28,"Duration":326487,"SoundDuration":326487,"Delta":65297043},{"NoteNumber":56,"Velocity":28,"Duration":326487,"SoundDuration":326487,"Delta":65297043},{"NoteNumber":59,"Velocity":34,"Duration":326487,"SoundDuration":326487,"Delta":65297043},{"NoteNumber":70,"Velocity":50,"Duration":80836,"SoundDuration":80836,"Delta":65776274},{"NoteNumber":68,"Velocity":50,"Duration":80676,"SoundDuration":80676,"Delta":65870583},{"NoteNumber":77,"Velocity":59,"Duration":1286588,"SoundDuration":1286588,"Delta":65947239},{"NoteNumber":51,"Velocity":34,"Duration":107227,"SoundDuration":107227,"Delta":65947239},{"NoteNumber":56,"Velocity":35,"Duration":107227,"SoundDuration":107227,"Delta":66054466},{"NoteNumber":59,"Velocity":37,"Duration":107227,"SoundDuration":107227,"Delta":66161693},{"NoteNumber":63,"Velocity":38,"Duration":107227,"SoundDuration":107227,"Delta":66268920},{"NoteNumber":65,"Velocity":39,"Duration":107227,"SoundDuration":107227,"Delta":66376147},{"NoteNumber":68,"Velocity":41,"Duration":107227,"SoundDuration":107227,"Delta":66483375},{"NoteNumber":71,"Velocity":43,"Duration":107227,"SoundDuration":107227,"Delta":66590602},{"NoteNumber":68,"Velocity":42,"Duration":107227,"SoundDuration":107227,"Delta":66697829},{"NoteNumber":65,"Velocity":41,"Duration":107227,"SoundDuration":107227,"Delta":66805056},{"NoteNumber":63,"Velocity":39,"Duration":107227,"SoundDuration":107227,"Delta":66912283},{"NoteNumber":59,"Velocity":38,"Duration":107227,"SoundDuration":107227,"Delta":67019510},{"NoteNumber":56,"Velocity":37,"Duration":107089,"SoundDuration":107089,"Delta":67126738},{"NoteNumber":78,"Velocity":66,"Duration":678400,"SoundDuration":678400,"Delta":67233827},{"NoteNumber":50,"Velocity":41,"Duration":107124,"SoundDuration":107124,"Delta":67233827},{"NoteNumber":57,"Velocity":43,"Duration":108309,"SoundDuration":108309,"Delta":67340952},{"NoteNumber":60,"Velocity":46,"Duration":109903,"SoundDuration":109903,"Delta":67449262},{"NoteNumber":62,"Velocity":49,"Duration":114352,"SoundDuration":114352,"Delta":67559165},{"NoteNumber":66,"Velocity":51,"Duration":119439,"SoundDuration":119439,"Delta":67673517},{"NoteNumber":74,"Velocity":54,"Duration":116412,"SoundDuration":116412,"Delta":67792957},{"NoteNumber":70,"Velocity":47,"Duration":665747,"SoundDuration":665747,"Delta":67912228},{"NoteNumber":79,"Velocity":56,"Duration":665747,"SoundDuration":665747,"Delta":67912228},{"NoteNumber":74,"Velocity":47,"Duration":665747,"SoundDuration":665747,"Delta":67912228},{"NoteNumber":67,"Velocity":47,"Duration":499744,"SoundDuration":499744,"Delta":67912228},{"NoteNumber":43,"Velocity":46,"Duration":111259,"SoundDuration":111259,"Delta":67912228},{"NoteNumber":50,"Velocity":41,"Duration":111259,"SoundDuration":111259,"Delta":68023487},{"NoteNumber":55,"Velocity":42,"Duration":111222,"SoundDuration":111222,"Delta":68134747},{"NoteNumber":58,"Velocity":44,"Duration":110668,"SoundDuration":110668,"Delta":68245969},{"NoteNumber":62,"Velocity":46,"Duration":110668,"SoundDuration":110668,"Delta":68356638},{"NoteNumber":67,"Velocity":49,"Duration":110668,"SoundDuration":110668,"Delta":68467306},{"NoteNumber":74,"Velocity":46,"Duration":517325,"SoundDuration":517325,"Delta":68577975},{"NoteNumber":69,"Velocity":46,"Duration":517325,"SoundDuration":517325,"Delta":68577975},{"NoteNumber":81,"Velocity":54,"Duration":517325,"SoundDuration":517325,"Delta":68577975},{"NoteNumber":67,"Velocity":52,"Duration":115167,"SoundDuration":115167,"Delta":68693142},{"NoteNumber":62,"Velocity":50,"Duration":115167,"SoundDuration":115167,"Delta":68808310},{"NoteNumber":58,"Velocity":48,"Duration":115167,"SoundDuration":115167,"Delta":68923477},{"NoteNumber":55,"Velocity":46,"Duration":121447,"SoundDuration":121447,"Delta":69038645},{"NoteNumber":70,"Velocity":49,"Duration":187432,"SoundDuration":187432,"Delta":69095300},{"NoteNumber":82,"Velocity":57,"Duration":187432,"SoundDuration":187432,"Delta":69095300},{"NoteNumber":50,"Velocity":43,"Duration":122640,"SoundDuration":122640,"Delta":69160092},{"NoteNumber":74,"Velocity":50,"Duration":657720,"SoundDuration":657720,"Delta":69282733},{"NoteNumber":79,"Velocity":49,"Duration":657720,"SoundDuration":657720,"Delta":69282733},{"NoteNumber":82,"Velocity":56,"Duration":657720,"SoundDuration":657720,"Delta":69282733},{"NoteNumber":86,"Velocity":66,"Duration":657720,"SoundDuration":657720,"Delta":69282733},{"NoteNumber":43,"Velocity":46,"Duration":112857,"SoundDuration":112857,"Delta":69282733},{"NoteNumber":50,"Velocity":47,"Duration":111564,"SoundDuration":111564,"Delta":69395590},{"NoteNumber":55,"Velocity":48,"Duration":110155,"SoundDuration":110155,"Delta":69507155},{"NoteNumber":57,"Velocity":49,"Duration":108922,"SoundDuration":108922,"Delta":69617310},{"NoteNumber":58,"Velocity":50,"Duration":107716,"SoundDuration":107716,"Delta":69726232},{"NoteNumber":62,"Velocity":51,"Duration":106504,"SoundDuration":106504,"Delta":69833949},{"NoteNumber":67,"Velocity":47,"Duration":320005,"SoundDuration":320005,"Delta":69940454},{"NoteNumber":79,"Velocity":56,"Duration":320005,"SoundDuration":320005,"Delta":69940454},{"NoteNumber":62,"Velocity":47,"Duration":106642,"SoundDuration":106642,"Delta":70046208},{"NoteNumber":58,"Velocity":49,"Duration":107609,"SoundDuration":107609,"Delta":70152850},{"NoteNumber":69,"Velocity":55,"Duration":108531,"SoundDuration":108531,"Delta":70260459},{"NoteNumber":55,"Velocity":43,"Duration":108531,"SoundDuration":108531,"Delta":70260459},{"NoteNumber":70,"Velocity":57,"Duration":109460,"SoundDuration":109460,"Delta":70368991},{"NoteNumber":50,"Velocity":45,"Duration":109460,"SoundDuration":109460,"Delta":70368991},{"NoteNumber":72,"Velocity":59,"Duration":110486,"SoundDuration":110486,"Delta":70478451},{"NoteNumber":43,"Velocity":46,"Duration":110486,"SoundDuration":110486,"Delta":70478451},{"NoteNumber":65,"Velocity":49,"Duration":488661,"SoundDuration":488661,"Delta":70588937},{"NoteNumber":70,"Velocity":56,"Duration":488661,"SoundDuration":488661,"Delta":70588937},{"NoteNumber":73,"Velocity":67,"Duration":488661,"SoundDuration":488661,"Delta":70588937},{"NoteNumber":55,"Velocity":28,"Duration":326487,"SoundDuration":326487,"Delta":70588937},{"NoteNumber":58,"Velocity":28,"Duration":326487,"SoundDuration":326487,"Delta":70588937},{"NoteNumber":61,"Velocity":34,"Duration":326487,"SoundDuration":326487,"Delta":70588937},{"NoteNumber":72,"Velocity":50,"Duration":80836,"SoundDuration":80836,"Delta":71068168},{"NoteNumber":70,"Velocity":50,"Duration":80676,"SoundDuration":80676,"Delta":71162477},{"NoteNumber":79,"Velocity":59,"Duration":1286588,"SoundDuration":1286588,"Delta":71239133},{"NoteNumber":53,"Velocity":37,"Duration":107227,"SoundDuration":107227,"Delta":71239133},{"NoteNumber":58,"Velocity":39,"Duration":107227,"SoundDuration":107227,"Delta":71346360},{"NoteNumber":61,"Velocity":40,"Duration":107227,"SoundDuration":107227,"Delta":71453587},{"NoteNumber":65,"Velocity":41,"Duration":107227,"SoundDuration":107227,"Delta":71560814},{"NoteNumber":67,"Velocity":43,"Duration":107227,"SoundDuration":107227,"Delta":71668042},{"NoteNumber":70,"Velocity":44,"Duration":107227,"SoundDuration":107227,"Delta":71775269},{"NoteNumber":73,"Velocity":45,"Duration":92483,"SoundDuration":92483,"Delta":71882496},{"NoteNumber":70,"Velocity":46,"Duration":92483,"SoundDuration":92483,"Delta":71974979},{"NoteNumber":67,"Velocity":45,"Duration":92483,"SoundDuration":92483,"Delta":72066122},{"NoteNumber":65,"Velocity":44,"Duration":92483,"SoundDuration":92483,"Delta":72158606},{"NoteNumber":61,"Velocity":43,"Duration":92483,"SoundDuration":92483,"Delta":72251089},{"NoteNumber":58,"Velocity":42,"Duration":92483,"SoundDuration":92483,"Delta":72343573},{"NoteNumber":53,"Velocity":41,"Duration":89665,"SoundDuration":89665,"Delta":72436056},{"NoteNumber":80,"Velocity":68,"Duration":661211,"SoundDuration":661211,"Delta":72525722},{"NoteNumber":52,"Velocity":43,"Duration":107124,"SoundDuration":107124,"Delta":72525722},{"NoteNumber":59,"Velocity":45,"Duration":108317,"SoundDuration":108317,"Delta":72632846},{"NoteNumber":62,"Velocity":46,"Duration":109533,"SoundDuration":109533,"Delta":72741164},{"NoteNumber":64,"Velocity":48,"Duration":110780,"SoundDuration":110780,"Delta":72850697},{"NoteNumber":68,"Velocity":50,"Duration":112057,"SoundDuration":112057,"Delta":72961477},{"NoteNumber":76,"Velocity":52,"Duration":110540,"SoundDuration":110540,"Delta":73073535},{"NoteNumber":73,"Velocity":51,"Duration":665747,"SoundDuration":665747,"Delta":73186933},{"NoteNumber":81,"Velocity":70,"Duration":665747,"SoundDuration":665747,"Delta":73186933},{"NoteNumber":76,"Velocity":60,"Duration":665747,"SoundDuration":665747,"Delta":73186933},{"NoteNumber":69,"Velocity":51,"Duration":499744,"SoundDuration":499744,"Delta":73186933},{"NoteNumber":45,"Velocity":52,"Duration":111259,"SoundDuration":111259,"Delta":73186933},{"NoteNumber":52,"Velocity":54,"Duration":111259,"SoundDuration":111259,"Delta":73298193},{"NoteNumber":57,"Velocity":55,"Duration":111222,"SoundDuration":111222,"Delta":73409452},{"NoteNumber":61,"Velocity":56,"Duration":110668,"SoundDuration":110668,"Delta":73520675},{"NoteNumber":64,"Velocity":57,"Duration":110668,"SoundDuration":110668,"Delta":73631343},{"NoteNumber":69,"Velocity":58,"Duration":110668,"SoundDuration":110668,"Delta":73742012},{"NoteNumber":76,"Velocity":52,"Duration":494586,"SoundDuration":494586,"Delta":73852680},{"NoteNumber":71,"Velocity":52,"Duration":494586,"SoundDuration":494586,"Delta":73852680},{"NoteNumber":83,"Velocity":62,"Duration":494586,"SoundDuration":494586,"Delta":73852680},{"NoteNumber":69,"Velocity":60,"Duration":109781,"SoundDuration":109781,"Delta":73963200},{"NoteNumber":64,"Velocity":58,"Duration":109673,"SoundDuration":109673,"Delta":74072982},{"NoteNumber":61,"Velocity":57,"Duration":109673,"SoundDuration":109673,"Delta":74182655},{"NoteNumber":57,"Velocity":56,"Duration":115802,"SoundDuration":115802,"Delta":74292328},{"NoteNumber":73,"Velocity":56,"Duration":179086,"SoundDuration":179086,"Delta":74347267},{"NoteNumber":85,"Velocity":65,"Duration":179086,"SoundDuration":179086,"Delta":74347267},{"NoteNumber":52,"Velocity":55,"Duration":118222,"SoundDuration":118222,"Delta":74408131},{"NoteNumber":76,"Velocity":57,"Duration":657720,"SoundDuration":657720,"Delta":74526353},{"NoteNumber":81,"Velocity":56,"Duration":657720,"SoundDuration":657720,"Delta":74526353},{"NoteNumber":85,"Velocity":64,"Duration":657720,"SoundDuration":657720,"Delta":74526353},{"NoteNumber":88,"Velocity":75,"Duration":657720,"SoundDuration":657720,"Delta":74526353},{"NoteNumber":43,"Velocity":52,"Duration":112857,"SoundDuration":112857,"Delta":74526353},{"NoteNumber":49,"Velocity":54,"Duration":111564,"SoundDuration":111564,"Delta":74639211},{"NoteNumber":52,"Velocity":55,"Duration":110155,"SoundDuration":110155,"Delta":74750775},{"NoteNumber":57,"Velocity":56,"Duration":108922,"SoundDuration":108922,"Delta":74860930},{"NoteNumber":61,"Velocity":57,"Duration":107716,"SoundDuration":107716,"Delta":74969852},{"NoteNumber":64,"Velocity":58,"Duration":106504,"SoundDuration":106504,"Delta":75077569},{"NoteNumber":69,"Velocity":62,"Duration":648483,"SoundDuration":648483,"Delta":75184074},{"NoteNumber":81,"Velocity":73,"Duration":648483,"SoundDuration":648483,"Delta":75184074},{"NoteNumber":64,"Velocity":54,"Duration":106642,"SoundDuration":106642,"Delta":75289828},{"NoteNumber":61,"Velocity":56,"Duration":107609,"SoundDuration":107609,"Delta":75396470},{"NoteNumber":57,"Velocity":58,"Duration":108531,"SoundDuration":108531,"Delta":75504079},{"NoteNumber":52,"Velocity":60,"Duration":109460,"SoundDuration":109460,"Delta":75612611},{"NoteNumber":43,"Velocity":63,"Duration":110486,"SoundDuration":110486,"Delta":75722071},{"NoteNumber":77,"Velocity":58,"Duration":664921,"SoundDuration":664921,"Delta":75832557},{"NoteNumber":80,"Velocity":58,"Duration":664921,"SoundDuration":664921,"Delta":75832557},{"NoteNumber":85,"Velocity":69,"Duration":664921,"SoundDuration":664921,"Delta":75832557},{"NoteNumber":89,"Velocity":82,"Duration":664921,"SoundDuration":664921,"Delta":75832557},{"NoteNumber":44,"Velocity":66,"Duration":111259,"SoundDuration":111259,"Delta":75832557},{"NoteNumber":45,"Velocity":41,"Duration":111259,"SoundDuration":111259,"Delta":75943817},{"NoteNumber":46,"Velocity":41,"Duration":111259,"SoundDuration":111259,"Delta":76055076},{"NoteNumber":47,"Velocity":42,"Duration":110675,"SoundDuration":110675,"Delta":76166336},{"NoteNumber":48,"Velocity":43,"Duration":110383,"SoundDuration":110383,"Delta":76277012},{"NoteNumber":49,"Velocity":43,"Duration":110083,"SoundDuration":110083,"Delta":76387395},{"NoteNumber":75,"Velocity":67,"Duration":653663,"SoundDuration":653663,"Delta":76497479},{"NoteNumber":80,"Velocity":67,"Duration":653663,"SoundDuration":653663,"Delta":76497479},{"NoteNumber":77,"Velocity":67,"Duration":653663,"SoundDuration":653663,"Delta":76497479},{"NoteNumber":87,"Velocity":79,"Duration":653663,"SoundDuration":653663,"Delta":76497479},{"NoteNumber":50,"Velocity":44,"Duration":109500,"SoundDuration":109500,"Delta":76497479},{"NoteNumber":51,"Velocity":45,"Duration":109493,"SoundDuration":109493,"Delta":76606979},{"NoteNumber":52,"Velocity":45,"Duration":108963,"SoundDuration":108963,"Delta":76716472},{"NoteNumber":53,"Velocity":45,"Duration":108920,"SoundDuration":108920,"Delta":76825436},{"NoteNumber":54,"Velocity":46,"Duration":108432,"SoundDuration":108432,"Delta":76934357},{"NoteNumber":55,"Velocity":46,"Duration":108354,"SoundDuration":108354,"Delta":77042789},{"NoteNumber":73,"Velocity":58,"Duration":646805,"SoundDuration":646805,"Delta":77151143},{"NoteNumber":77,"Velocity":58,"Duration":646805,"SoundDuration":646805,"Delta":77151143},{"NoteNumber":80,"Velocity":69,"Duration":646805,"SoundDuration":646805,"Delta":77151143},{"NoteNumber":85,"Velocity":82,"Duration":646805,"SoundDuration":646805,"Delta":77151143},{"NoteNumber":56,"Velocity":47,"Duration":107896,"SoundDuration":107896,"Delta":77151143},{"NoteNumber":57,"Velocity":47,"Duration":107781,"SoundDuration":107781,"Delta":77259039},{"NoteNumber":58,"Velocity":48,"Duration":107781,"SoundDuration":107781,"Delta":77366821},{"NoteNumber":59,"Velocity":49,"Duration":107781,"SoundDuration":107781,"Delta":77474603},{"NoteNumber":60,"Velocity":49,"Duration":107781,"SoundDuration":107781,"Delta":77582385},{"NoteNumber":61,"Velocity":50,"Duration":107781,"SoundDuration":107781,"Delta":77690166},{"NoteNumber":72,"Velocity":56,"Duration":490137,"SoundDuration":490137,"Delta":77797948},{"NoteNumber":77,"Velocity":56,"Duration":490137,"SoundDuration":490137,"Delta":77797948},{"NoteNumber":80,"Velocity":67,"Duration":490137,"SoundDuration":490137,"Delta":77797948},{"NoteNumber":84,"Velocity":79,"Duration":490137,"SoundDuration":490137,"Delta":77797948},{"NoteNumber":62,"Velocity":51,"Duration":107917,"SoundDuration":107917,"Delta":77797948},{"NoteNumber":63,"Velocity":51,"Duration":108524,"SoundDuration":108524,"Delta":77905866},{"NoteNumber":64,"Velocity":52,"Duration":109020,"SoundDuration":109020,"Delta":78014390},{"NoteNumber":65,"Velocity":53,"Duration":109633,"SoundDuration":109633,"Delta":78123411},{"NoteNumber":66,"Velocity":53,"Duration":110149,"SoundDuration":110149,"Delta":78233044},{"NoteNumber":70,"Velocity":61,"Duration":165879,"SoundDuration":165879,"Delta":78288086},{"NoteNumber":82,"Velocity":72,"Duration":165879,"SoundDuration":165879,"Delta":78288086},{"NoteNumber":67,"Velocity":54,"Duration":110771,"SoundDuration":110771,"Delta":78343194},{"NoteNumber":80,"Velocity":78,"Duration":111259,"SoundDuration":111259,"Delta":78453966},{"NoteNumber":68,"Velocity":77,"Duration":664921,"SoundDuration":664921,"Delta":78453966},{"NoteNumber":69,"Velocity":53,"Duration":111259,"SoundDuration":111259,"Delta":78565225},{"NoteNumber":70,"Velocity":53,"Duration":111259,"SoundDuration":111259,"Delta":78676485},{"NoteNumber":71,"Velocity":54,"Duration":110675,"SoundDuration":110675,"Delta":78787744},{"NoteNumber":72,"Velocity":54,"Duration":110383,"SoundDuration":110383,"Delta":78898420},{"NoteNumber":73,"Velocity":54,"Duration":110083,"SoundDuration":110083,"Delta":79008803},{"NoteNumber":74,"Velocity":55,"Duration":109500,"SoundDuration":109500,"Delta":79118887},{"NoteNumber":55,"Velocity":63,"Duration":653663,"SoundDuration":653663,"Delta":79118887},{"NoteNumber":56,"Velocity":63,"Duration":653663,"SoundDuration":653663,"Delta":79118887},{"NoteNumber":67,"Velocity":75,"Duration":653663,"SoundDuration":653663,"Delta":79118887},{"NoteNumber":75,"Velocity":55,"Duration":109493,"SoundDuration":109493,"Delta":79228387},{"NoteNumber":76,"Velocity":56,"Duration":108963,"SoundDuration":108963,"Delta":79337880},{"NoteNumber":77,"Velocity":56,"Duration":108920,"SoundDuration":108920,"Delta":79446844},{"NoteNumber":78,"Velocity":57,"Duration":108432,"SoundDuration":108432,"Delta":79555765},{"NoteNumber":79,"Velocity":57,"Duration":108354,"SoundDuration":108354,"Delta":79664197},{"NoteNumber":80,"Velocity":68,"Duration":107896,"SoundDuration":107896,"Delta":79772551},{"NoteNumber":54,"Velocity":65,"Duration":646977,"SoundDuration":646977,"Delta":79772551},{"NoteNumber":56,"Velocity":65,"Duration":646977,"SoundDuration":646977,"Delta":79772551},{"NoteNumber":66,"Velocity":77,"Duration":646977,"SoundDuration":646977,"Delta":79772551},{"NoteNumber":74,"Velocity":56,"Duration":107781,"SoundDuration":107781,"Delta":79880447},{"NoteNumber":75,"Velocity":63,"Duration":107781,"SoundDuration":107781,"Delta":79988229},{"NoteNumber":76,"Velocity":59,"Duration":107781,"SoundDuration":107781,"Delta":80096011},{"NoteNumber":77,"Velocity":59,"Duration":107781,"SoundDuration":107781,"Delta":80203793},{"NoteNumber":78,"Velocity":59,"Duration":107953,"SoundDuration":107953,"Delta":80311575},{"NoteNumber":79,"Velocity":57,"Duration":108979,"SoundDuration":108979,"Delta":80419528},{"NoteNumber":53,"Velocity":58,"Duration":503027,"SoundDuration":503027,"Delta":80419528},{"NoteNumber":56,"Velocity":58,"Duration":503027,"SoundDuration":503027,"Delta":80419528},{"NoteNumber":65,"Velocity":71,"Duration":503027,"SoundDuration":503027,"Delta":80419528},{"NoteNumber":80,"Velocity":58,"Duration":110574,"SoundDuration":110574,"Delta":80528508},{"NoteNumber":81,"Velocity":59,"Duration":112148,"SoundDuration":112148,"Delta":80639082},{"NoteNumber":82,"Velocity":60,"Duration":113774,"SoundDuration":113774,"Delta":80751231},{"NoteNumber":83,"Velocity":62,"Duration":141682,"SoundDuration":141682,"Delta":80865006},{"NoteNumber":51,"Velocity":52,"Duration":242421,"SoundDuration":242421,"Delta":80922556},{"NoteNumber":63,"Velocity":62,"Duration":242421,"SoundDuration":242421,"Delta":80922556},{"NoteNumber":84,"Velocity":63,"Duration":158289,"SoundDuration":158289,"Delta":81006688},{"NoteNumber":82,"Velocity":71,"Duration":646805,"SoundDuration":646805,"Delta":81164977},{"NoteNumber":85,"Velocity":84,"Duration":646805,"SoundDuration":646805,"Delta":81164977},{"NoteNumber":37,"Velocity":67,"Duration":107896,"SoundDuration":107896,"Delta":81164977},{"NoteNumber":44,"Velocity":47,"Duration":107781,"SoundDuration":107781,"Delta":81272874},{"NoteNumber":49,"Velocity":47,"Duration":107781,"SoundDuration":107781,"Delta":81380655},{"NoteNumber":53,"Velocity":47,"Duration":107781,"SoundDuration":107781,"Delta":81488437},{"NoteNumber":56,"Velocity":47,"Duration":107781,"SoundDuration":107781,"Delta":81596219},{"NoteNumber":61,"Velocity":45,"Duration":107781,"SoundDuration":107781,"Delta":81704001},{"NoteNumber":77,"Velocity":77,"Duration":490137,"SoundDuration":490137,"Delta":81811783},{"NoteNumber":65,"Velocity":48,"Duration":107917,"SoundDuration":107917,"Delta":81811783},{"NoteNumber":68,"Velocity":41,"Duration":108524,"SoundDuration":108524,"Delta":81919701},{"NoteNumber":73,"Velocity":41,"Duration":109020,"SoundDuration":109020,"Delta":82028225},{"NoteNumber":68,"Velocity":41,"Duration":109633,"SoundDuration":109633,"Delta":82137246},{"NoteNumber":65,"Velocity":41,"Duration":110149,"SoundDuration":110149,"Delta":82246879},{"NoteNumber":82,"Velocity":65,"Duration":165879,"SoundDuration":165879,"Delta":82301921},{"NoteNumber":61,"Velocity":41,"Duration":110771,"SoundDuration":110771,"Delta":82357028},{"NoteNumber":80,"Velocity":76,"Duration":646805,"SoundDuration":646805,"Delta":82467800},{"NoteNumber":56,"Velocity":49,"Duration":107896,"SoundDuration":107896,"Delta":82467800},{"NoteNumber":53,"Velocity":35,"Duration":107781,"SoundDuration":107781,"Delta":82575696},{"NoteNumber":49,"Velocity":35,"Duration":107781,"SoundDuration":107781,"Delta":82683478},{"NoteNumber":44,"Velocity":36,"Duration":107781,"SoundDuration":107781,"Delta":82791260},{"NoteNumber":37,"Velocity":36,"Duration":107781,"SoundDuration":107781,"Delta":82899042},{"NoteNumber":44,"Velocity":36,"Duration":107781,"SoundDuration":107781,"Delta":83006824},{"NoteNumber":73,"Velocity":66,"Duration":490137,"SoundDuration":490137,"Delta":83114606},{"NoteNumber":49,"Velocity":45,"Duration":107917,"SoundDuration":107917,"Delta":83114606},{"NoteNumber":53,"Velocity":38,"Duration":108524,"SoundDuration":108524,"Delta":83222523},{"NoteNumber":56,"Velocity":38,"Duration":109020,"SoundDuration":109020,"Delta":83331048},{"NoteNumber":61,"Velocity":34,"Duration":109633,"SoundDuration":109633,"Delta":83440068},{"NoteNumber":65,"Velocity":34,"Duration":110149,"SoundDuration":110149,"Delta":83549702},{"NoteNumber":75,"Velocity":62,"Duration":165629,"SoundDuration":165629,"Delta":83604743},{"NoteNumber":68,"Velocity":33,"Duration":110522,"SoundDuration":110522,"Delta":83659851},{"NoteNumber":77,"Velocity":57,"Duration":673166,"SoundDuration":673166,"Delta":83770373},{"NoteNumber":73,"Velocity":37,"Duration":107722,"SoundDuration":107722,"Delta":83770373},{"NoteNumber":68,"Velocity":32,"Duration":109268,"SoundDuration":109268,"Delta":83878096},{"NoteNumber":65,"Velocity":32,"Duration":111204,"SoundDuration":111204,"Delta":83987364},{"NoteNumber":61,"Velocity":32,"Duration":112851,"SoundDuration":112851,"Delta":84098569},{"NoteNumber":56,"Velocity":31,"Duration":114918,"SoundDuration":114918,"Delta":84211421},{"NoteNumber":53,"Velocity":30,"Duration":117200,"SoundDuration":117200,"Delta":84326340},{"NoteNumber":80,"Velocity":56,"Duration":1401487,"SoundDuration":1401487,"Delta":84443540},{"NoteNumber":49,"Velocity":35,"Duration":118491,"SoundDuration":118491,"Delta":84443540},{"NoteNumber":44,"Velocity":30,"Duration":117750,"SoundDuration":117750,"Delta":84562031},{"NoteNumber":37,"Velocity":30,"Duration":117018,"SoundDuration":117018,"Delta":84679781},{"NoteNumber":44,"Velocity":30,"Duration":116421,"SoundDuration":116421,"Delta":84796800},{"NoteNumber":49,"Velocity":29,"Duration":115706,"SoundDuration":115706,"Delta":84913221},{"NoteNumber":53,"Velocity":29,"Duration":115839,"SoundDuration":115839,"Delta":85028928},{"NoteNumber":56,"Velocity":34,"Duration":117397,"SoundDuration":117397,"Delta":85144768},{"NoteNumber":53,"Velocity":29,"Duration":116797,"SoundDuration":116797,"Delta":85262165},{"NoteNumber":49,"Velocity":29,"Duration":116144,"SoundDuration":116144,"Delta":85378962},{"NoteNumber":53,"Velocity":28,"Duration":115532,"SoundDuration":115532,"Delta":85495106},{"NoteNumber":56,"Velocity":28,"Duration":115679,"SoundDuration":115679,"Delta":85610638},{"NoteNumber":61,"Velocity":28,"Duration":118709,"SoundDuration":118709,"Delta":85726318},{"NoteNumber":65,"Velocity":32,"Duration":121920,"SoundDuration":121920,"Delta":85845027},{"NoteNumber":61,"Velocity":27,"Duration":124548,"SoundDuration":124548,"Delta":85966947},{"NoteNumber":56,"Velocity":27,"Duration":126852,"SoundDuration":126852,"Delta":86091495},{"NoteNumber":61,"Velocity":27,"Duration":130368,"SoundDuration":130368,"Delta":86218348},{"NoteNumber":65,"Velocity":27,"Duration":134118,"SoundDuration":134118,"Delta":86348717},{"NoteNumber":68,"Velocity":27,"Duration":144806,"SoundDuration":144806,"Delta":86482835},{"NoteNumber":70,"Velocity":37,"Duration":90056,"SoundDuration":90056,"Delta":86627642},{"NoteNumber":70,"Velocity":22,"Duration":88639,"SoundDuration":88639,"Delta":86720689},{"NoteNumber":73,"Velocity":24,"Duration":86592,"SoundDuration":86592,"Delta":86809328},{"NoteNumber":77,"Velocity":25,"Duration":84700,"SoundDuration":84700,"Delta":86895921},{"NoteNumber":82,"Velocity":27,"Duration":84357,"SoundDuration":84357,"Delta":86980622},{"NoteNumber":77,"Velocity":26,"Duration":84954,"SoundDuration":84954,"Delta":87064979},{"NoteNumber":73,"Velocity":24,"Duration":85438,"SoundDuration":85438,"Delta":87149934},{"NoteNumber":70,"Velocity":22,"Duration":86050,"SoundDuration":86050,"Delta":87235372},{"NoteNumber":65,"Velocity":34,"Duration":585737,"SoundDuration":585737,"Delta":87321422},{"NoteNumber":70,"Velocity":21,"Duration":84342,"SoundDuration":84342,"Delta":87406910},{"NoteNumber":73,"Velocity":23,"Duration":83349,"SoundDuration":83349,"Delta":87491253},{"NoteNumber":77,"Velocity":25,"Duration":82155,"SoundDuration":82155,"Delta":87574603},{"NoteNumber":82,"Velocity":28,"Duration":82904,"SoundDuration":82904,"Delta":87656758},{"NoteNumber":77,"Velocity":26,"Duration":83831,"SoundDuration":83831,"Delta":87739663},{"NoteNumber":73,"Velocity":23,"Duration":83665,"SoundDuration":83665,"Delta":87823494},{"NoteNumber":70,"Velocity":39,"Duration":118184,"SoundDuration":118184,"Delta":87907159},{"NoteNumber":68,"Velocity":42,"Duration":80692,"SoundDuration":80692,"Delta":88025344},{"NoteNumber":68,"Velocity":22,"Duration":83040,"SoundDuration":83040,"Delta":88108805},{"NoteNumber":73,"Velocity":23,"Duration":82479,"SoundDuration":82479,"Delta":88191846},{"NoteNumber":77,"Velocity":25,"Duration":82059,"SoundDuration":82059,"Delta":88274325},{"NoteNumber":80,"Velocity":27,"Duration":81596,"SoundDuration":81596,"Delta":88356385},{"NoteNumber":77,"Velocity":27,"Duration":82079,"SoundDuration":82079,"Delta":88437982},{"NoteNumber":73,"Velocity":24,"Duration":82752,"SoundDuration":82752,"Delta":88520061},{"NoteNumber":68,"Velocity":22,"Duration":83339,"SoundDuration":83339,"Delta":88602814},{"NoteNumber":61,"Velocity":34,"Duration":578103,"SoundDuration":578103,"Delta":88686153},{"NoteNumber":68,"Velocity":22,"Duration":82330,"SoundDuration":82330,"Delta":88769077},{"NoteNumber":73,"Velocity":23,"Duration":81674,"SoundDuration":81674,"Delta":88851407},{"NoteNumber":77,"Velocity":25,"Duration":81839,"SoundDuration":81839,"Delta":88933082},{"NoteNumber":80,"Velocity":26,"Duration":82472,"SoundDuration":82472,"Delta":89014922},{"NoteNumber":77,"Velocity":27,"Duration":83128,"SoundDuration":83128,"Delta":89097394},{"NoteNumber":73,"Velocity":24,"Duration":83733,"SoundDuration":83733,"Delta":89180523},{"NoteNumber":68,"Velocity":22,"Duration":119009,"SoundDuration":119009,"Delta":89264257},{"NoteNumber":63,"Velocity":31,"Duration":119009,"SoundDuration":119009,"Delta":89264257},{"NoteNumber":65,"Velocity":39,"Duration":656305,"SoundDuration":656305,"Delta":89383267},{"NoteNumber":68,"Velocity":23,"Duration":82499,"SoundDuration":82499,"Delta":89466321},{"NoteNumber":72,"Velocity":26,"Duration":82073,"SoundDuration":82073,"Delta":89548821},{"NoteNumber":77,"Velocity":27,"Duration":81406,"SoundDuration":81406,"Delta":89630894},{"NoteNumber":80,"Velocity":28,"Duration":80880,"SoundDuration":80880,"Delta":89712300},{"NoteNumber":77,"Velocity":27,"Duration":81511,"SoundDuration":81511,"Delta":89793181},{"NoteNumber":72,"Velocity":25,"Duration":82093,"SoundDuration":82093,"Delta":89874692},{"NoteNumber":68,"Velocity":23,"Duration":80017,"SoundDuration":80017,"Delta":89956785},{"NoteNumber":68,"Velocity":43,"Duration":696694,"SoundDuration":696694,"Delta":90039572},{"NoteNumber":72,"Velocity":21,"Duration":82910,"SoundDuration":82910,"Delta":90123033},{"NoteNumber":77,"Velocity":22,"Duration":82296,"SoundDuration":82296,"Delta":90205943},{"NoteNumber":80,"Velocity":24,"Duration":81603,"SoundDuration":81603,"Delta":90288239},{"NoteNumber":84,"Velocity":27,"Duration":82066,"SoundDuration":82066,"Delta":90369843},{"NoteNumber":80,"Velocity":25,"Duration":82718,"SoundDuration":82718,"Delta":90451909},{"NoteNumber":77,"Velocity":24,"Duration":83454,"SoundDuration":83454,"Delta":90534627},{"NoteNumber":72,"Velocity":22,"Duration":118184,"SoundDuration":118184,"Delta":90618082},{"NoteNumber":41,"Velocity":35,"Duration":347637,"SoundDuration":347637,"Delta":90736266},{"NoteNumber":72,"Velocity":23,"Duration":86946,"SoundDuration":86946,"Delta":90823213},{"NoteNumber":77,"Velocity":26,"Duration":86946,"SoundDuration":86946,"Delta":90910159},{"NoteNumber":80,"Velocity":27,"Duration":86798,"SoundDuration":86798,"Delta":90997106},{"NoteNumber":84,"Velocity":28,"Duration":86058,"SoundDuration":86058,"Delta":91083904},{"NoteNumber":48,"Velocity":32,"Duration":171717,"SoundDuration":171717,"Delta":91083904},{"NoteNumber":80,"Velocity":27,"Duration":85659,"SoundDuration":85659,"Delta":91169963},{"NoteNumber":77,"Velocity":25,"Duration":85207,"SoundDuration":85207,"Delta":91255622},{"NoteNumber":53,"Velocity":32,"Duration":169967,"SoundDuration":169967,"Delta":91255622},{"NoteNumber":72,"Velocity":23,"Duration":84760,"SoundDuration":84760,"Delta":91340830},{"NoteNumber":56,"Velocity":37,"Duration":168172,"SoundDuration":168172,"Delta":91425590},{"NoteNumber":72,"Velocity":21,"Duration":83866,"SoundDuration":83866,"Delta":91509895},{"NoteNumber":77,"Velocity":22,"Duration":83481,"SoundDuration":83481,"Delta":91593762},{"NoteNumber":60,"Velocity":31,"Duration":166963,"SoundDuration":166963,"Delta":91593762},{"NoteNumber":80,"Velocity":24,"Duration":83481,"SoundDuration":83481,"Delta":91677244},{"NoteNumber":84,"Velocity":27,"Duration":83481,"SoundDuration":83481,"Delta":91760726},{"NoteNumber":65,"Velocity":31,"Duration":166963,"SoundDuration":166963,"Delta":91760726},{"NoteNumber":80,"Velocity":25,"Duration":83481,"SoundDuration":83481,"Delta":91844207},{"NoteNumber":77,"Velocity":24,"Duration":83481,"SoundDuration":83481,"Delta":91927689},{"NoteNumber":68,"Velocity":31,"Duration":200834,"SoundDuration":200834,"Delta":91927689},{"NoteNumber":72,"Velocity":22,"Duration":113440,"SoundDuration":113440,"Delta":92011171},{"NoteNumber":72,"Velocity":37,"Duration":85762,"SoundDuration":85762,"Delta":92128523},{"NoteNumber":72,"Velocity":22,"Duration":86227,"SoundDuration":86227,"Delta":92217199},{"NoteNumber":77,"Velocity":24,"Duration":83836,"SoundDuration":83836,"Delta":92303427},{"NoteNumber":80,"Velocity":25,"Duration":81619,"SoundDuration":81619,"Delta":92387263},{"NoteNumber":84,"Velocity":27,"Duration":82076,"SoundDuration":82076,"Delta":92468883},{"NoteNumber":80,"Velocity":26,"Duration":82486,"SoundDuration":82486,"Delta":92550959},{"NoteNumber":77,"Velocity":24,"Duration":82779,"SoundDuration":82779,"Delta":92633445},{"NoteNumber":72,"Velocity":22,"Duration":83210,"SoundDuration":83210,"Delta":92716225},{"NoteNumber":68,"Velocity":34,"Duration":575672,"SoundDuration":575672,"Delta":92799435},{"NoteNumber":72,"Velocity":21,"Duration":82499,"SoundDuration":82499,"Delta":92882618},{"NoteNumber":77,"Velocity":23,"Duration":81892,"SoundDuration":81892,"Delta":92965118},{"NoteNumber":80,"Velocity":25,"Duration":81208,"SoundDuration":81208,"Delta":93047011},{"NoteNumber":84,"Velocity":28,"Duration":81668,"SoundDuration":81668,"Delta":93128220},{"NoteNumber":80,"Velocity":26,"Duration":82309,"SoundDuration":82309,"Delta":93209888},{"NoteNumber":77,"Velocity":23,"Duration":82910,"SoundDuration":82910,"Delta":93292198},{"NoteNumber":72,"Velocity":23,"Duration":114245,"SoundDuration":114245,"Delta":93375108},{"NoteNumber":70,"Velocity":39,"Duration":118184,"SoundDuration":118184,"Delta":93375108},{"NoteNumber":72,"Velocity":42,"Duration":80692,"SoundDuration":80692,"Delta":93493293},{"NoteNumber":72,"Velocity":22,"Duration":83040,"SoundDuration":83040,"Delta":93576754},{"NoteNumber":76,"Velocity":23,"Duration":82479,"SoundDuration":82479,"Delta":93659795},{"NoteNumber":80,"Velocity":25,"Duration":82059,"SoundDuration":82059,"Delta":93742274},{"NoteNumber":84,"Velocity":27,"Duration":81596,"SoundDuration":81596,"Delta":93824333},{"NoteNumber":80,"Velocity":27,"Duration":82079,"SoundDuration":82079,"Delta":93905930},{"NoteNumber":76,"Velocity":24,"Duration":82752,"SoundDuration":82752,"Delta":93988010},{"NoteNumber":72,"Velocity":22,"Duration":82953,"SoundDuration":82953,"Delta":94070762},{"NoteNumber":60,"Velocity":27,"Duration":93679,"SoundDuration":93679,"Delta":94153716},{"NoteNumber":72,"Velocity":22,"Duration":83622,"SoundDuration":83622,"Delta":94236329},{"NoteNumber":62,"Velocity":28,"Duration":96455,"SoundDuration":96455,"Delta":94247396},{"NoteNumber":76,"Velocity":23,"Duration":84653,"SoundDuration":84653,"Delta":94319951},{"NoteNumber":64,"Velocity":29,"Duration":96374,"SoundDuration":96374,"Delta":94343851},{"NoteNumber":80,"Velocity":25,"Duration":85778,"SoundDuration":85778,"Delta":94404605},{"NoteNumber":65,"Velocity":30,"Duration":97752,"SoundDuration":97752,"Delta":94440226},{"NoteNumber":84,"Velocity":26,"Duration":86770,"SoundDuration":86770,"Delta":94490383},{"NoteNumber":67,"Velocity":32,"Duration":100664,"SoundDuration":100664,"Delta":94537979},{"NoteNumber":80,"Velocity":27,"Duration":87961,"SoundDuration":87961,"Delta":94577154},{"NoteNumber":68,"Velocity":33,"Duration":100620,"SoundDuration":100620,"Delta":94638643},{"NoteNumber":76,"Velocity":24,"Duration":89100,"SoundDuration":89100,"Delta":94665115},{"NoteNumber":70,"Velocity":34,"Duration":133962,"SoundDuration":133962,"Delta":94739264},{"NoteNumber":72,"Velocity":22,"Duration":115042,"SoundDuration":115042,"Delta":94754216},{"NoteNumber":72,"Velocity":37,"Duration":85762,"SoundDuration":85762,"Delta":94873226},{"NoteNumber":72,"Velocity":22,"Duration":86227,"SoundDuration":86227,"Delta":94961902},{"NoteNumber":77,"Velocity":24,"Duration":83836,"SoundDuration":83836,"Delta":95048129},{"NoteNumber":80,"Velocity":25,"Duration":81619,"SoundDuration":81619,"Delta":95131966},{"NoteNumber":84,"Velocity":27,"Duration":82076,"SoundDuration":82076,"Delta":95213585},{"NoteNumber":80,"Velocity":26,"Duration":82486,"SoundDuration":82486,"Delta":95295661},{"NoteNumber":77,"Velocity":24,"Duration":82779,"SoundDuration":82779,"Delta":95378148},{"NoteNumber":72,"Velocity":22,"Duration":83210,"SoundDuration":83210,"Delta":95460927},{"NoteNumber":68,"Velocity":34,"Duration":575672,"SoundDuration":575672,"Delta":95544138},{"NoteNumber":72,"Velocity":21,"Duration":82499,"SoundDuration":82499,"Delta":95627321},{"NoteNumber":77,"Velocity":23,"Duration":81892,"SoundDuration":81892,"Delta":95709820},{"NoteNumber":80,"Velocity":25,"Duration":81208,"SoundDuration":81208,"Delta":95791713},{"NoteNumber":84,"Velocity":28,"Duration":81668,"SoundDuration":81668,"Delta":95872922},{"NoteNumber":80,"Velocity":26,"Duration":82309,"SoundDuration":82309,"Delta":95954591},{"NoteNumber":77,"Velocity":23,"Duration":82910,"SoundDuration":82910,"Delta":96036900},{"NoteNumber":72,"Velocity":23,"Duration":114245,"SoundDuration":114245,"Delta":96119810},{"NoteNumber":70,"Velocity":39,"Duration":118184,"SoundDuration":118184,"Delta":96119810},{"NoteNumber":72,"Velocity":42,"Duration":80692,"SoundDuration":80692,"Delta":96237995},{"NoteNumber":72,"Velocity":22,"Duration":83040,"SoundDuration":83040,"Delta":96321456},{"NoteNumber":76,"Velocity":23,"Duration":82479,"SoundDuration":82479,"Delta":96404497},{"NoteNumber":80,"Velocity":25,"Duration":82059,"SoundDuration":82059,"Delta":96486976},{"NoteNumber":84,"Velocity":27,"Duration":81596,"SoundDuration":81596,"Delta":96569036},{"NoteNumber":80,"Velocity":27,"Duration":82079,"SoundDuration":82079,"Delta":96650632},{"NoteNumber":76,"Velocity":24,"Duration":82752,"SoundDuration":82752,"Delta":96732712},{"NoteNumber":72,"Velocity":22,"Duration":82563,"SoundDuration":82563,"Delta":96815465},{"NoteNumber":60,"Velocity":27,"Duration":93459,"SoundDuration":93459,"Delta":96898028},{"NoteNumber":72,"Velocity":22,"Duration":83395,"SoundDuration":83395,"Delta":96980420},{"NoteNumber":62,"Velocity":28,"Duration":96176,"SoundDuration":96176,"Delta":96991487},{"NoteNumber":76,"Velocity":23,"Duration":84485,"SoundDuration":84485,"Delta":97063816},{"NoteNumber":64,"Velocity":29,"Duration":96141,"SoundDuration":96141,"Delta":97087664},{"NoteNumber":80,"Velocity":25,"Duration":85582,"SoundDuration":85582,"Delta":97148302},{"NoteNumber":65,"Velocity":30,"Duration":97592,"SoundDuration":97592,"Delta":97183806},{"NoteNumber":84,"Velocity":26,"Duration":86689,"SoundDuration":86689,"Delta":97233884},{"NoteNumber":67,"Velocity":32,"Duration":100508,"SoundDuration":100508,"Delta":97281398},{"NoteNumber":80,"Velocity":27,"Duration":87805,"SoundDuration":87805,"Delta":97320573},{"NoteNumber":68,"Velocity":33,"Duration":100620,"SoundDuration":100620,"Delta":97381906},{"NoteNumber":76,"Velocity":24,"Duration":89100,"SoundDuration":89100,"Delta":97408378},{"NoteNumber":70,"Velocity":34,"Duration":133962,"SoundDuration":133962,"Delta":97482527},{"NoteNumber":72,"Velocity":22,"Duration":115042,"SoundDuration":115042,"Delta":97497479},{"NoteNumber":72,"Velocity":42,"Duration":80692,"SoundDuration":80692,"Delta":97616489},{"NoteNumber":72,"Velocity":22,"Duration":83040,"SoundDuration":83040,"Delta":97699950},{"NoteNumber":77,"Velocity":23,"Duration":82479,"SoundDuration":82479,"Delta":97782991},{"NoteNumber":80,"Velocity":25,"Duration":82059,"SoundDuration":82059,"Delta":97865470},{"NoteNumber":84,"Velocity":27,"Duration":81596,"SoundDuration":81596,"Delta":97947530},{"NoteNumber":80,"Velocity":27,"Duration":82079,"SoundDuration":82079,"Delta":98029127},{"NoteNumber":77,"Velocity":26,"Duration":82752,"SoundDuration":82752,"Delta":98111206},{"NoteNumber":72,"Velocity":24,"Duration":83339,"SoundDuration":83339,"Delta":98193959},{"NoteNumber":70,"Velocity":36,"Duration":578103,"SoundDuration":578103,"Delta":98277298},{"NoteNumber":72,"Velocity":24,"Duration":82330,"SoundDuration":82330,"Delta":98360222},{"NoteNumber":77,"Velocity":25,"Duration":81674,"SoundDuration":81674,"Delta":98442552},{"NoteNumber":80,"Velocity":28,"Duration":81839,"SoundDuration":81839,"Delta":98524227},{"NoteNumber":84,"Velocity":29,"Duration":82472,"SoundDuration":82472,"Delta":98606067},{"NoteNumber":80,"Velocity":31,"Duration":83128,"SoundDuration":83128,"Delta":98688539},{"NoteNumber":77,"Velocity":28,"Duration":83733,"SoundDuration":83733,"Delta":98771668},{"NoteNumber":72,"Velocity":26,"Duration":119009,"SoundDuration":119009,"Delta":98855402},{"NoteNumber":68,"Velocity":37,"Duration":119009,"SoundDuration":119009,"Delta":98855402},{"NoteNumber":75,"Velocity":52,"Duration":80298,"SoundDuration":80298,"Delta":98974412},{"NoteNumber":75,"Velocity":28,"Duration":82499,"SoundDuration":82499,"Delta":99057466},{"NoteNumber":80,"Velocity":32,"Duration":82073,"SoundDuration":82073,"Delta":99139966},{"NoteNumber":84,"Velocity":33,"Duration":81406,"SoundDuration":81406,"Delta":99222039},{"NoteNumber":87,"Velocity":34,"Duration":80880,"SoundDuration":80880,"Delta":99303445},{"NoteNumber":84,"Velocity":34,"Duration":81511,"SoundDuration":81511,"Delta":99384326},{"NoteNumber":80,"Velocity":33,"Duration":82093,"SoundDuration":82093,"Delta":99465837},{"NoteNumber":75,"Velocity":30,"Duration":82786,"SoundDuration":82786,"Delta":99547930},{"NoteNumber":63,"Velocity":45,"Duration":696694,"SoundDuration":696694,"Delta":99630717},{"NoteNumber":75,"Velocity":27,"Duration":82910,"SoundDuration":82910,"Delta":99714178},{"NoteNumber":79,"Velocity":31,"Duration":82296,"SoundDuration":82296,"Delta":99797088},{"NoteNumber":82,"Velocity":33,"Duration":81603,"SoundDuration":81603,"Delta":99879384},{"NoteNumber":87,"Velocity":37,"Duration":82066,"SoundDuration":82066,"Delta":99960988},{"NoteNumber":82,"Velocity":35,"Duration":82718,"SoundDuration":82718,"Delta":100043054},{"NoteNumber":79,"Velocity":34,"Duration":83454,"SoundDuration":83454,"Delta":100125772},{"NoteNumber":75,"Velocity":32,"Duration":118184,"SoundDuration":118184,"Delta":100209227},{"NoteNumber":68,"Velocity":58,"Duration":579107,"SoundDuration":579107,"Delta":100327411},{"NoteNumber":75,"Velocity":32,"Duration":83040,"SoundDuration":83040,"Delta":100410873},{"NoteNumber":80,"Velocity":34,"Duration":82479,"SoundDuration":82479,"Delta":100493913},{"NoteNumber":84,"Velocity":36,"Duration":82059,"SoundDuration":82059,"Delta":100576393},{"NoteNumber":87,"Velocity":39,"Duration":81596,"SoundDuration":81596,"Delta":100658452},{"NoteNumber":84,"Velocity":39,"Duration":81978,"SoundDuration":81978,"Delta":100740049},{"NoteNumber":80,"Velocity":35,"Duration":84491,"SoundDuration":84491,"Delta":100822028},{"NoteNumber":75,"Velocity":32,"Duration":89493,"SoundDuration":89493,"Delta":100906519},{"NoteNumber":63,"Velocity":44,"Duration":89493,"SoundDuration":89493,"Delta":100906519},{"NoteNumber":65,"Velocity":47,"Duration":578103,"SoundDuration":578103,"Delta":100996013},{"NoteNumber":72,"Velocity":30,"Duration":82330,"SoundDuration":82330,"Delta":101078937},{"NoteNumber":77,"Velocity":33,"Duration":81674,"SoundDuration":81674,"Delta":101161267},{"NoteNumber":80,"Velocity":35,"Duration":81839,"SoundDuration":81839,"Delta":101242942},{"NoteNumber":84,"Velocity":35,"Duration":82472,"SoundDuration":82472,"Delta":101324782},{"NoteNumber":80,"Velocity":36,"Duration":83128,"SoundDuration":83128,"Delta":101407254},{"NoteNumber":77,"Velocity":33,"Duration":83733,"SoundDuration":83733,"Delta":101490383},{"NoteNumber":72,"Velocity":30,"Duration":119009,"SoundDuration":119009,"Delta":101574117},{"NoteNumber":60,"Velocity":42,"Duration":119009,"SoundDuration":119009,"Delta":101574117},{"NoteNumber":63,"Velocity":56,"Duration":601781,"SoundDuration":601781,"Delta":101693126},{"NoteNumber":68,"Velocity":29,"Duration":86937,"SoundDuration":86937,"Delta":101779836},{"NoteNumber":72,"Velocity":31,"Duration":85941,"SoundDuration":85941,"Delta":101866773},{"NoteNumber":75,"Velocity":33,"Duration":84848,"SoundDuration":84848,"Delta":101952715},{"NoteNumber":80,"Velocity":35,"Duration":84967,"SoundDuration":84967,"Delta":102037563},{"NoteNumber":75,"Velocity":34,"Duration":85941,"SoundDuration":85941,"Delta":102122531},{"NoteNumber":72,"Velocity":31,"Duration":86435,"SoundDuration":86435,"Delta":102208473},{"NoteNumber":68,"Velocity":28,"Duration":98239,"SoundDuration":98239,"Delta":102294908},{"NoteNumber":56,"Velocity":39,"Duration":98239,"SoundDuration":98239,"Delta":102294908},{"NoteNumber":60,"Velocity":42,"Duration":643620,"SoundDuration":643620,"Delta":102393148},{"NoteNumber":64,"Velocity":27,"Duration":89532,"SoundDuration":89532,"Delta":102481624},{"NoteNumber":70,"Velocity":29,"Duration":90614,"SoundDuration":90614,"Delta":102571156},{"NoteNumber":72,"Velocity":31,"Duration":91863,"SoundDuration":91863,"Delta":102661771},{"NoteNumber":76,"Velocity":31,"Duration":93145,"SoundDuration":93145,"Delta":102753634},{"NoteNumber":72,"Velocity":32,"Duration":94316,"SoundDuration":94316,"Delta":102846779},{"NoteNumber":70,"Velocity":29,"Duration":95672,"SoundDuration":95672,"Delta":102941096},{"NoteNumber":64,"Velocity":27,"Duration":119009,"SoundDuration":119009,"Delta":103036768},{"NoteNumber":52,"Velocity":32,"Duration":119009,"SoundDuration":119009,"Delta":103036768},{"NoteNumber":53,"Velocity":43,"Duration":672779,"SoundDuration":672779,"Delta":103155778},{"NoteNumber":60,"Velocity":26,"Duration":86848,"SoundDuration":86848,"Delta":103242374},{"NoteNumber":65,"Velocity":28,"Duration":85268,"SoundDuration":85268,"Delta":103329223},{"NoteNumber":68,"Velocity":30,"Duration":83715,"SoundDuration":83715,"Delta":103414492},{"NoteNumber":72,"Velocity":32,"Duration":82348,"SoundDuration":82348,"Delta":103498208},{"NoteNumber":68,"Velocity":32,"Duration":81910,"SoundDuration":81910,"Delta":103580556},{"NoteNumber":65,"Velocity":29,"Duration":82752,"SoundDuration":82752,"Delta":103662466},{"NoteNumber":60,"Velocity":27,"Duration":83339,"SoundDuration":83339,"Delta":103745218},{"NoteNumber":55,"Velocity":40,"Duration":578103,"SoundDuration":578103,"Delta":103828558},{"NoteNumber":60,"Velocity":26,"Duration":82330,"SoundDuration":82330,"Delta":103911482},{"NoteNumber":65,"Velocity":28,"Duration":81674,"SoundDuration":81674,"Delta":103993812},{"NoteNumber":68,"Velocity":30,"Duration":81839,"SoundDuration":81839,"Delta":104075486},{"NoteNumber":72,"Velocity":31,"Duration":82472,"SoundDuration":82472,"Delta":104157326},{"NoteNumber":68,"Velocity":32,"Duration":83128,"SoundDuration":83128,"Delta":104239799},{"NoteNumber":65,"Velocity":29,"Duration":83733,"SoundDuration":83733,"Delta":104322927},{"NoteNumber":60,"Velocity":27,"Duration":115042,"SoundDuration":115042,"Delta":104406661},{"NoteNumber":56,"Velocity":37,"Duration":119009,"SoundDuration":119009,"Delta":104406661},{"NoteNumber":60,"Velocity":47,"Duration":80298,"SoundDuration":80298,"Delta":104525671},{"NoteNumber":60,"Velocity":28,"Duration":82499,"SoundDuration":82499,"Delta":104608726},{"NoteNumber":65,"Velocity":31,"Duration":82073,"SoundDuration":82073,"Delta":104691225},{"NoteNumber":68,"Velocity":32,"Duration":81406,"SoundDuration":81406,"Delta":104773298},{"NoteNumber":72,"Velocity":33,"Duration":80880,"SoundDuration":80880,"Delta":104854705},{"NoteNumber":68,"Velocity":32,"Duration":81511,"SoundDuration":81511,"Delta":104935585},{"NoteNumber":65,"Velocity":30,"Duration":82093,"SoundDuration":82093,"Delta":105017097},{"NoteNumber":60,"Velocity":28,"Duration":82786,"SoundDuration":82786,"Delta":105099190},{"NoteNumber":53,"Velocity":40,"Duration":412337,"SoundDuration":412337,"Delta":105181976},{"NoteNumber":60,"Velocity":25,"Duration":82910,"SoundDuration":82910,"Delta":105265438},{"NoteNumber":65,"Velocity":27,"Duration":82296,"SoundDuration":82296,"Delta":105348348},{"NoteNumber":68,"Velocity":29,"Duration":81603,"SoundDuration":81603,"Delta":105430644},{"NoteNumber":72,"Velocity":32,"Duration":82066,"SoundDuration":82066,"Delta":105512247},{"NoteNumber":68,"Velocity":30,"Duration":82718,"SoundDuration":82718,"Delta":105594314},{"NoteNumber":55,"Velocity":34,"Duration":82718,"SoundDuration":82718,"Delta":105594314},{"NoteNumber":65,"Velocity":29,"Duration":83454,"SoundDuration":83454,"Delta":105677032},{"NoteNumber":56,"Velocity":38,"Duration":83454,"SoundDuration":83454,"Delta":105677032},{"NoteNumber":60,"Velocity":27,"Duration":118184,"SoundDuration":118184,"Delta":105760486},{"NoteNumber":58,"Velocity":42,"Duration":118184,"SoundDuration":118184,"Delta":105760486},{"NoteNumber":59,"Velocity":46,"Duration":495055,"SoundDuration":495055,"Delta":105878671},{"NoteNumber":62,"Velocity":25,"Duration":82910,"SoundDuration":82910,"Delta":105962133},{"NoteNumber":65,"Velocity":27,"Duration":82296,"SoundDuration":82296,"Delta":106045043},{"NoteNumber":68,"Velocity":29,"Duration":81603,"SoundDuration":81603,"Delta":106127339},{"NoteNumber":74,"Velocity":32,"Duration":82066,"SoundDuration":82066,"Delta":106208942},{"NoteNumber":68,"Velocity":30,"Duration":82718,"SoundDuration":82718,"Delta":106291008},{"NoteNumber":65,"Velocity":29,"Duration":83454,"SoundDuration":83454,"Delta":106373727},{"NoteNumber":58,"Velocity":41,"Duration":83454,"SoundDuration":83454,"Delta":106373727},{"NoteNumber":62,"Velocity":27,"Duration":118184,"SoundDuration":118184,"Delta":106457181},{"NoteNumber":56,"Velocity":46,"Duration":118184,"SoundDuration":118184,"Delta":106457181},{"NoteNumber":65,"Velocity":51,"Duration":1327218,"SoundDuration":1327218,"Delta":106575366},{"NoteNumber":62,"Velocity":25,"Duration":82910,"SoundDuration":82910,"Delta":106658827},{"NoteNumber":68,"Velocity":27,"Duration":82296,"SoundDuration":82296,"Delta":106741737},{"NoteNumber":71,"Velocity":29,"Duration":81603,"SoundDuration":81603,"Delta":106824034},{"NoteNumber":74,"Velocity":32,"Duration":82066,"SoundDuration":82066,"Delta":106905637},{"NoteNumber":71,"Velocity":33,"Duration":82718,"SoundDuration":82718,"Delta":106987703},{"NoteNumber":68,"Velocity":32,"Duration":83454,"SoundDuration":83454,"Delta":107070421},{"NoteNumber":62,"Velocity":30,"Duration":84071,"SoundDuration":84071,"Delta":107153876},{"NoteNumber":62,"Velocity":30,"Duration":82909,"SoundDuration":82909,"Delta":107322272},{"NoteNumber":68,"Velocity":31,"Duration":82296,"SoundDuration":82296,"Delta":107405181},{"NoteNumber":71,"Velocity":31,"Duration":81603,"SoundDuration":81603,"Delta":107487477},{"NoteNumber":74,"Velocity":33,"Duration":82066,"SoundDuration":82066,"Delta":107569081},{"NoteNumber":71,"Velocity":31,"Duration":82718,"SoundDuration":82718,"Delta":107651147},{"NoteNumber":68,"Velocity":30,"Duration":83454,"SoundDuration":83454,"Delta":107733865},{"NoteNumber":62,"Velocity":29,"Duration":85264,"SoundDuration":85264,"Delta":107817320},{"NoteNumber":66,"Velocity":56,"Duration":697313,"SoundDuration":697313,"Delta":107902584},{"NoteNumber":62,"Velocity":27,"Duration":82662,"SoundDuration":82662,"Delta":107986911},{"NoteNumber":69,"Velocity":30,"Duration":82296,"SoundDuration":82296,"Delta":108069574},{"NoteNumber":72,"Velocity":32,"Duration":81603,"SoundDuration":81603,"Delta":108151870},{"NoteNumber":74,"Velocity":36,"Duration":82066,"SoundDuration":82066,"Delta":108233473},{"NoteNumber":72,"Velocity":34,"Duration":82718,"SoundDuration":82718,"Delta":108315540},{"NoteNumber":69,"Velocity":33,"Duration":83454,"SoundDuration":83454,"Delta":108398258},{"NoteNumber":62,"Velocity":31,"Duration":118184,"SoundDuration":118184,"Delta":108481713},{"NoteNumber":55,"Velocity":43,"Duration":672779,"SoundDuration":672779,"Delta":108599897},{"NoteNumber":62,"Velocity":26,"Duration":86848,"SoundDuration":86848,"Delta":108686494},{"NoteNumber":67,"Velocity":28,"Duration":85268,"SoundDuration":85268,"Delta":108773342},{"NoteNumber":70,"Velocity":30,"Duration":83715,"SoundDuration":83715,"Delta":108858611},{"NoteNumber":74,"Velocity":32,"Duration":82348,"SoundDuration":82348,"Delta":108942327},{"NoteNumber":70,"Velocity":32,"Duration":81910,"SoundDuration":81910,"Delta":109024675},{"NoteNumber":67,"Velocity":29,"Duration":82752,"SoundDuration":82752,"Delta":109106585},{"NoteNumber":62,"Velocity":27,"Duration":83339,"SoundDuration":83339,"Delta":109189338},{"NoteNumber":57,"Velocity":40,"Duration":578103,"SoundDuration":578103,"Delta":109272677},{"NoteNumber":62,"Velocity":26,"Duration":82330,"SoundDuration":82330,"Delta":109355601},{"NoteNumber":67,"Velocity":28,"Duration":81674,"SoundDuration":81674,"Delta":109437931},{"NoteNumber":70,"Velocity":30,"Duration":81839,"SoundDuration":81839,"Delta":109519606},{"NoteNumber":74,"Velocity":31,"Duration":82472,"SoundDuration":82472,"Delta":109601446},{"NoteNumber":70,"Velocity":32,"Duration":83128,"SoundDuration":83128,"Delta":109683918},{"NoteNumber":67,"Velocity":29,"Duration":83733,"SoundDuration":83733,"Delta":109767047},{"NoteNumber":62,"Velocity":27,"Duration":115042,"SoundDuration":115042,"Delta":109850781},{"NoteNumber":58,"Velocity":37,"Duration":119009,"SoundDuration":119009,"Delta":109850781},{"NoteNumber":62,"Velocity":47,"Duration":80298,"SoundDuration":80298,"Delta":109969790},{"NoteNumber":62,"Velocity":28,"Duration":82499,"SoundDuration":82499,"Delta":110052845},{"NoteNumber":67,"Velocity":31,"Duration":82073,"SoundDuration":82073,"Delta":110135344},{"NoteNumber":70,"Velocity":32,"Duration":81406,"SoundDuration":81406,"Delta":110217417},{"NoteNumber":74,"Velocity":33,"Duration":80880,"SoundDuration":80880,"Delta":110298824},{"NoteNumber":70,"Velocity":32,"Duration":81511,"SoundDuration":81511,"Delta":110379704},{"NoteNumber":67,"Velocity":30,"Duration":82093,"SoundDuration":82093,"Delta":110461216},{"NoteNumber":62,"Velocity":28,"Duration":82786,"SoundDuration":82786,"Delta":110543309},{"NoteNumber":55,"Velocity":40,"Duration":412337,"SoundDuration":412337,"Delta":110626096},{"NoteNumber":62,"Velocity":25,"Duration":82910,"SoundDuration":82910,"Delta":110709557},{"NoteNumber":67,"Velocity":27,"Duration":82296,"SoundDuration":82296,"Delta":110792467},{"NoteNumber":70,"Velocity":29,"Duration":81603,"SoundDuration":81603,"Delta":110874763},{"NoteNumber":74,"Velocity":32,"Duration":82066,"SoundDuration":82066,"Delta":110956366},{"NoteNumber":70,"Velocity":30,"Duration":82718,"SoundDuration":82718,"Delta":111038433},{"NoteNumber":57,"Velocity":34,"Duration":82718,"SoundDuration":82718,"Delta":111038433},{"NoteNumber":67,"Velocity":29,"Duration":83454,"SoundDuration":83454,"Delta":111121151},{"NoteNumber":58,"Velocity":38,"Duration":83454,"SoundDuration":83454,"Delta":111121151},{"NoteNumber":62,"Velocity":27,"Duration":118184,"SoundDuration":118184,"Delta":111204606},{"NoteNumber":60,"Velocity":42,"Duration":118184,"SoundDuration":118184,"Delta":111204606},{"NoteNumber":61,"Velocity":46,"Duration":495055,"SoundDuration":495055,"Delta":111322790},{"NoteNumber":64,"Velocity":25,"Duration":82910,"SoundDuration":82910,"Delta":111406252},{"NoteNumber":67,"Velocity":27,"Duration":82296,"SoundDuration":82296,"Delta":111489162},{"NoteNumber":70,"Velocity":29,"Duration":81603,"SoundDuration":81603,"Delta":111571458},{"NoteNumber":76,"Velocity":32,"Duration":82066,"SoundDuration":82066,"Delta":111653061},{"NoteNumber":70,"Velocity":30,"Duration":82718,"SoundDuration":82718,"Delta":111735127},{"NoteNumber":67,"Velocity":29,"Duration":83454,"SoundDuration":83454,"Delta":111817846},{"NoteNumber":60,"Velocity":41,"Duration":83454,"SoundDuration":83454,"Delta":111817846},{"NoteNumber":64,"Velocity":27,"Duration":98141,"SoundDuration":98141,"Delta":111901300},{"NoteNumber":58,"Velocity":46,"Duration":98141,"SoundDuration":98141,"Delta":111901300},{"NoteNumber":67,"Velocity":51,"Duration":1327560,"SoundDuration":1327560,"Delta":111999442},{"NoteNumber":64,"Velocity":25,"Duration":82910,"SoundDuration":82910,"Delta":112082904},{"NoteNumber":70,"Velocity":27,"Duration":82296,"SoundDuration":82296,"Delta":112165814},{"NoteNumber":73,"Velocity":29,"Duration":81603,"SoundDuration":81603,"Delta":112248110},{"NoteNumber":76,"Velocity":32,"Duration":82066,"SoundDuration":82066,"Delta":112329713},{"NoteNumber":73,"Velocity":32,"Duration":82718,"SoundDuration":82718,"Delta":112411779},{"NoteNumber":70,"Velocity":31,"Duration":83454,"SoundDuration":83454,"Delta":112494498},{"NoteNumber":64,"Velocity":29,"Duration":84071,"SoundDuration":84071,"Delta":112577952},{"NoteNumber":64,"Velocity":30,"Duration":82909,"SoundDuration":82909,"Delta":112746349},{"NoteNumber":70,"Velocity":31,"Duration":82296,"SoundDuration":82296,"Delta":112829258},{"NoteNumber":73,"Velocity":32,"Duration":81603,"SoundDuration":81603,"Delta":112911554},{"NoteNumber":76,"Velocity":33,"Duration":82066,"SoundDuration":82066,"Delta":112993157},{"NoteNumber":73,"Velocity":31,"Duration":82718,"SoundDuration":82718,"Delta":113075223},{"NoteNumber":70,"Velocity":30,"Duration":83454,"SoundDuration":83454,"Delta":113157942},{"NoteNumber":64,"Velocity":29,"Duration":85606,"SoundDuration":85606,"Delta":113241396},{"NoteNumber":68,"Velocity":56,"Duration":697313,"SoundDuration":697313,"Delta":113327003},{"NoteNumber":64,"Velocity":27,"Duration":82662,"SoundDuration":82662,"Delta":113411330},{"NoteNumber":71,"Velocity":30,"Duration":82296,"SoundDuration":82296,"Delta":113493993},{"NoteNumber":74,"Velocity":32,"Duration":81603,"SoundDuration":81603,"Delta":113576289},{"NoteNumber":76,"Velocity":36,"Duration":82066,"SoundDuration":82066,"Delta":113657892},{"NoteNumber":74,"Velocity":34,"Duration":82718,"SoundDuration":82718,"Delta":113739958},{"NoteNumber":71,"Velocity":33,"Duration":83454,"SoundDuration":83454,"Delta":113822677},{"NoteNumber":64,"Velocity":31,"Duration":118184,"SoundDuration":118184,"Delta":113906131},{"NoteNumber":57,"Velocity":53,"Duration":672779,"SoundDuration":672779,"Delta":114024316},{"NoteNumber":64,"Velocity":32,"Duration":86848,"SoundDuration":86848,"Delta":114110912},{"NoteNumber":69,"Velocity":35,"Duration":85268,"SoundDuration":85268,"Delta":114197761},{"NoteNumber":73,"Velocity":37,"Duration":83715,"SoundDuration":83715,"Delta":114283029},{"NoteNumber":76,"Velocity":40,"Duration":82348,"SoundDuration":82348,"Delta":114366745},{"NoteNumber":73,"Velocity":40,"Duration":81910,"SoundDuration":81910,"Delta":114449093},{"NoteNumber":69,"Velocity":36,"Duration":82752,"SoundDuration":82752,"Delta":114531004},{"NoteNumber":64,"Velocity":33,"Duration":83339,"SoundDuration":83339,"Delta":114613756},{"NoteNumber":59,"Velocity":50,"Duration":578103,"SoundDuration":578103,"Delta":114697096},{"NoteNumber":64,"Velocity":32,"Duration":82330,"SoundDuration":82330,"Delta":114780019},{"NoteNumber":69,"Velocity":35,"Duration":81674,"SoundDuration":81674,"Delta":114862349},{"NoteNumber":73,"Velocity":37,"Duration":81839,"SoundDuration":81839,"Delta":114944024},{"NoteNumber":76,"Velocity":38,"Duration":82472,"SoundDuration":82472,"Delta":115025864},{"NoteNumber":73,"Velocity":40,"Duration":83128,"SoundDuration":83128,"Delta":115108337},{"NoteNumber":69,"Velocity":36,"Duration":83733,"SoundDuration":83733,"Delta":115191465},{"NoteNumber":64,"Velocity":33,"Duration":115042,"SoundDuration":115042,"Delta":115275199},{"NoteNumber":61,"Velocity":46,"Duration":119009,"SoundDuration":119009,"Delta":115275199},{"NoteNumber":64,"Velocity":53,"Duration":83683,"SoundDuration":83683,"Delta":115394209},{"NoteNumber":64,"Velocity":32,"Duration":86848,"SoundDuration":86848,"Delta":115480805},{"NoteNumber":69,"Velocity":35,"Duration":85268,"SoundDuration":85268,"Delta":115567654},{"NoteNumber":73,"Velocity":37,"Duration":83715,"SoundDuration":83715,"Delta":115652923},{"NoteNumber":76,"Velocity":40,"Duration":82348,"SoundDuration":82348,"Delta":115736638},{"NoteNumber":73,"Velocity":40,"Duration":81910,"SoundDuration":81910,"Delta":115818987},{"NoteNumber":69,"Velocity":36,"Duration":82752,"SoundDuration":82752,"Delta":115900897},{"NoteNumber":64,"Velocity":33,"Duration":83339,"SoundDuration":83339,"Delta":115983649},{"NoteNumber":57,"Velocity":50,"Duration":697113,"SoundDuration":697113,"Delta":116066989},{"NoteNumber":64,"Velocity":32,"Duration":82330,"SoundDuration":82330,"Delta":116149912},{"NoteNumber":69,"Velocity":35,"Duration":81674,"SoundDuration":81674,"Delta":116232242},{"NoteNumber":73,"Velocity":37,"Duration":81839,"SoundDuration":81839,"Delta":116313917},{"NoteNumber":76,"Velocity":38,"Duration":82472,"SoundDuration":82472,"Delta":116395757},{"NoteNumber":73,"Velocity":40,"Duration":83128,"SoundDuration":83128,"Delta":116478230},{"NoteNumber":69,"Velocity":36,"Duration":83733,"SoundDuration":83733,"Delta":116561358},{"NoteNumber":64,"Velocity":33,"Duration":115042,"SoundDuration":115042,"Delta":116645092},{"NoteNumber":65,"Velocity":53,"Duration":83683,"SoundDuration":83683,"Delta":116764102},{"NoteNumber":65,"Velocity":32,"Duration":86848,"SoundDuration":86848,"Delta":116850698},{"NoteNumber":68,"Velocity":35,"Duration":85268,"SoundDuration":85268,"Delta":116937547},{"NoteNumber":73,"Velocity":37,"Duration":83715,"SoundDuration":83715,"Delta":117022816},{"NoteNumber":77,"Velocity":41,"Duration":82348,"SoundDuration":82348,"Delta":117106532},{"NoteNumber":73,"Velocity":41,"Duration":81910,"SoundDuration":81910,"Delta":117188880},{"NoteNumber":68,"Velocity":37,"Duration":82752,"SoundDuration":82752,"Delta":117270790},{"NoteNumber":65,"Velocity":34,"Duration":83339,"SoundDuration":83339,"Delta":117353542},{"NoteNumber":63,"Velocity":53,"Duration":670309,"SoundDuration":670309,"Delta":117436882},{"NoteNumber":65,"Velocity":34,"Duration":82330,"SoundDuration":82330,"Delta":117519805},{"NoteNumber":68,"Velocity":37,"Duration":81674,"SoundDuration":81674,"Delta":117602135},{"NoteNumber":73,"Velocity":39,"Duration":81839,"SoundDuration":81839,"Delta":117683810},{"NoteNumber":77,"Velocity":41,"Duration":82472,"SoundDuration":82472,"Delta":117765650},{"NoteNumber":73,"Velocity":44,"Duration":83128,"SoundDuration":83128,"Delta":117848123},{"NoteNumber":68,"Velocity":39,"Duration":83733,"SoundDuration":83733,"Delta":117931251},{"NoteNumber":65,"Velocity":36,"Duration":89131,"SoundDuration":89131,"Delta":118014985},{"NoteNumber":61,"Velocity":59,"Duration":672779,"SoundDuration":672779,"Delta":118107191},{"NoteNumber":65,"Velocity":36,"Duration":86848,"SoundDuration":86848,"Delta":118193787},{"NoteNumber":68,"Velocity":39,"Duration":85268,"SoundDuration":85268,"Delta":118280636},{"NoteNumber":73,"Velocity":42,"Duration":83715,"SoundDuration":83715,"Delta":118365904},{"NoteNumber":77,"Velocity":46,"Duration":82348,"SoundDuration":82348,"Delta":118449620},{"NoteNumber":73,"Velocity":46,"Duration":81910,"SoundDuration":81910,"Delta":118531968},{"NoteNumber":68,"Velocity":42,"Duration":82752,"SoundDuration":82752,"Delta":118613879},{"NoteNumber":65,"Velocity":38,"Duration":83339,"SoundDuration":83339,"Delta":118696631},{"NoteNumber":60,"Velocity":59,"Duration":578103,"SoundDuration":578103,"Delta":118779970},{"NoteNumber":65,"Velocity":38,"Duration":82330,"SoundDuration":82330,"Delta":118862894},{"NoteNumber":68,"Velocity":42,"Duration":81674,"SoundDuration":81674,"Delta":118945224},{"NoteNumber":73,"Velocity":44,"Duration":81839,"SoundDuration":81839,"Delta":119026899},{"NoteNumber":77,"Velocity":45,"Duration":82472,"SoundDuration":82472,"Delta":119108739},{"NoteNumber":73,"Velocity":48,"Duration":83128,"SoundDuration":83128,"Delta":119191212},{"NoteNumber":68,"Velocity":44,"Duration":83733,"SoundDuration":83733,"Delta":119274340},{"NoteNumber":65,"Velocity":40,"Duration":115042,"SoundDuration":115042,"Delta":119358074},{"NoteNumber":58,"Velocity":57,"Duration":119009,"SoundDuration":119009,"Delta":119358074},{"NoteNumber":44,"Velocity":56,"Duration":672779,"SoundDuration":672779,"Delta":119477084},{"NoteNumber":56,"Velocity":66,"Duration":672779,"SoundDuration":672779,"Delta":119477084},{"NoteNumber":66,"Velocity":40,"Duration":86848,"SoundDuration":86848,"Delta":119563680},{"NoteNumber":72,"Velocity":44,"Duration":85268,"SoundDuration":85268,"Delta":119650529},{"NoteNumber":75,"Velocity":47,"Duration":83715,"SoundDuration":83715,"Delta":119735797},{"NoteNumber":80,"Velocity":51,"Duration":82348,"SoundDuration":82348,"Delta":119819513},{"NoteNumber":75,"Velocity":52,"Duration":81910,"SoundDuration":81910,"Delta":119901861},{"NoteNumber":72,"Velocity":47,"Duration":82752,"SoundDuration":82752,"Delta":119983772},{"NoteNumber":66,"Velocity":43,"Duration":83339,"SoundDuration":83339,"Delta":120066524},{"NoteNumber":43,"Velocity":58,"Duration":697113,"SoundDuration":697113,"Delta":120149863},{"NoteNumber":55,"Velocity":68,"Duration":697113,"SoundDuration":697113,"Delta":120149863},{"NoteNumber":66,"Velocity":42,"Duration":82330,"SoundDuration":82330,"Delta":120232787},{"NoteNumber":72,"Velocity":47,"Duration":81674,"SoundDuration":81674,"Delta":120315117},{"NoteNumber":75,"Velocity":50,"Duration":81839,"SoundDuration":81839,"Delta":120396792},{"NoteNumber":80,"Velocity":52,"Duration":82472,"SoundDuration":82472,"Delta":120478632},{"NoteNumber":75,"Velocity":55,"Duration":83128,"SoundDuration":83128,"Delta":120561105},{"NoteNumber":72,"Velocity":50,"Duration":83733,"SoundDuration":83733,"Delta":120644233},{"NoteNumber":66,"Velocity":46,"Duration":115042,"SoundDuration":115042,"Delta":120727967},{"NoteNumber":42,"Velocity":59,"Duration":679909,"SoundDuration":679909,"Delta":120846977},{"NoteNumber":54,"Velocity":71,"Duration":679909,"SoundDuration":679909,"Delta":120846977},{"NoteNumber":66,"Velocity":45,"Duration":86848,"SoundDuration":86848,"Delta":120933573},{"NoteNumber":72,"Velocity":50,"Duration":85268,"SoundDuration":85268,"Delta":121020422},{"NoteNumber":75,"Velocity":53,"Duration":83715,"SoundDuration":83715,"Delta":121105690},{"NoteNumber":80,"Velocity":58,"Duration":82348,"SoundDuration":82348,"Delta":121189406},{"NoteNumber":75,"Velocity":58,"Duration":81711,"SoundDuration":81711,"Delta":121271754},{"NoteNumber":72,"Velocity":53,"Duration":84363,"SoundDuration":84363,"Delta":121353466},{"NoteNumber":66,"Velocity":49,"Duration":89057,"SoundDuration":89057,"Delta":121437829},{"NoteNumber":41,"Velocity":63,"Duration":658455,"SoundDuration":658455,"Delta":121526887},{"NoteNumber":53,"Velocity":75,"Duration":658455,"SoundDuration":658455,"Delta":121526887},{"NoteNumber":66,"Velocity":48,"Duration":89871,"SoundDuration":89871,"Delta":121617884},{"NoteNumber":72,"Velocity":53,"Duration":88075,"SoundDuration":88075,"Delta":121707756},{"NoteNumber":75,"Velocity":56,"Duration":91613,"SoundDuration":91613,"Delta":121795831},{"NoteNumber":80,"Velocity":58,"Duration":95441,"SoundDuration":95441,"Delta":121887445},{"NoteNumber":75,"Velocity":62,"Duration":99680,"SoundDuration":99680,"Delta":121982887},{"NoteNumber":72,"Velocity":56,"Duration":102775,"SoundDuration":102775,"Delta":122082567},{"NoteNumber":66,"Velocity":51,"Duration":94744,"SoundDuration":94744,"Delta":122185343},{"NoteNumber":39,"Velocity":61,"Duration":97676,"SoundDuration":97676,"Delta":122185343},{"NoteNumber":51,"Velocity":72,"Duration":97676,"SoundDuration":97676,"Delta":122185343},{"NoteNumber":82,"Velocity":73,"Duration":668910,"SoundDuration":668910,"Delta":122283019},{"NoteNumber":77,"Velocity":61,"Duration":668910,"SoundDuration":668910,"Delta":122283019},{"NoteNumber":73,"Velocity":61,"Duration":668910,"SoundDuration":668910,"Delta":122283019},{"NoteNumber":70,"Velocity":52,"Duration":668910,"SoundDuration":668910,"Delta":122283019},{"NoteNumber":37,"Velocity":63,"Duration":115331,"SoundDuration":115331,"Delta":122283019},{"NoteNumber":44,"Velocity":48,"Duration":111871,"SoundDuration":111871,"Delta":122398350},{"NoteNumber":49,"Velocity":50,"Duration":109701,"SoundDuration":109701,"Delta":122510222},{"NoteNumber":53,"Velocity":56,"Duration":110668,"SoundDuration":110668,"Delta":122619924},{"NoteNumber":56,"Velocity":52,"Duration":110668,"SoundDuration":110668,"Delta":122730592},{"NoteNumber":61,"Velocity":52,"Duration":110668,"SoundDuration":110668,"Delta":122841261},{"NoteNumber":65,"Velocity":57,"Duration":494586,"SoundDuration":494586,"Delta":122951929},{"NoteNumber":73,"Velocity":57,"Duration":494586,"SoundDuration":494586,"Delta":122951929},{"NoteNumber":77,"Velocity":66,"Duration":494586,"SoundDuration":494586,"Delta":122951929},{"NoteNumber":70,"Velocity":50,"Duration":182091,"SoundDuration":182091,"Delta":123446515},{"NoteNumber":82,"Velocity":59,"Duration":182091,"SoundDuration":182091,"Delta":123446515},{"NoteNumber":68,"Velocity":53,"Duration":674211,"SoundDuration":674211,"Delta":123628607},{"NoteNumber":73,"Velocity":53,"Duration":674211,"SoundDuration":674211,"Delta":123628607},{"NoteNumber":80,"Velocity":70,"Duration":674211,"SoundDuration":674211,"Delta":123628607},{"NoteNumber":37,"Velocity":63,"Duration":113713,"SoundDuration":113713,"Delta":123628607},{"NoteNumber":44,"Velocity":48,"Duration":113123,"SoundDuration":113123,"Delta":123742321},{"NoteNumber":49,"Velocity":50,"Duration":112587,"SoundDuration":112587,"Delta":123855444},{"NoteNumber":53,"Velocity":56,"Duration":112058,"SoundDuration":112058,"Delta":123968032},{"NoteNumber":56,"Velocity":52,"Duration":111526,"SoundDuration":111526,"Delta":124080090},{"NoteNumber":61,"Velocity":52,"Duration":108419,"SoundDuration":108419,"Delta":124191617},{"NoteNumber":61,"Velocity":55,"Duration":498550,"SoundDuration":498550,"Delta":124302819},{"NoteNumber":73,"Velocity":64,"Duration":498550,"SoundDuration":498550,"Delta":124302819},{"NoteNumber":63,"Velocity":45,"Duration":180483,"SoundDuration":180483,"Delta":124801370},{"NoteNumber":75,"Velocity":54,"Duration":180483,"SoundDuration":180483,"Delta":124801370},{"NoteNumber":65,"Velocity":57,"Duration":648846,"SoundDuration":648846,"Delta":124981854},{"NoteNumber":72,"Velocity":57,"Duration":648846,"SoundDuration":648846,"Delta":124981854},{"NoteNumber":77,"Velocity":68,"Duration":648846,"SoundDuration":648846,"Delta":124981854},{"NoteNumber":32,"Velocity":63,"Duration":165553,"SoundDuration":165553,"Delta":124981854},{"NoteNumber":44,"Velocity":58,"Duration":163479,"SoundDuration":163479,"Delta":125147408},{"NoteNumber":56,"Velocity":52,"Duration":159501,"SoundDuration":159501,"Delta":125310887},{"NoteNumber":55,"Velocity":51,"Duration":160312,"SoundDuration":160312,"Delta":125470388},{"NoteNumber":68,"Velocity":45,"Duration":1227705,"SoundDuration":1227705,"Delta":125630700},{"NoteNumber":77,"Velocity":54,"Duration":1227705,"SoundDuration":1227705,"Delta":125630700},{"NoteNumber":72,"Velocity":45,"Duration":1227705,"SoundDuration":1227705,"Delta":125630700},{"NoteNumber":80,"Velocity":64,"Duration":1227705,"SoundDuration":1227705,"Delta":125630700},{"NoteNumber":54,"Velocity":57,"Duration":158421,"SoundDuration":158421,"Delta":125630700},{"NoteNumber":53,"Velocity":52,"Duration":155849,"SoundDuration":155849,"Delta":125789122},{"NoteNumber":52,"Velocity":51,"Duration":153429,"SoundDuration":153429,"Delta":125944972},{"NoteNumber":51,"Velocity":49,"Duration":151002,"SoundDuration":151002,"Delta":126098402},{"NoteNumber":50,"Velocity":56,"Duration":149955,"SoundDuration":149955,"Delta":126249404},{"NoteNumber":49,"Velocity":52,"Duration":152821,"SoundDuration":152821,"Delta":126399359},{"NoteNumber":48,"Velocity":48,"Duration":152920,"SoundDuration":152920,"Delta":126552181},{"NoteNumber":47,"Velocity":46,"Duration":153303,"SoundDuration":153303,"Delta":126705102},{"NoteNumber":72,"Velocity":54,"Duration":672352,"SoundDuration":672352,"Delta":126858406},{"NoteNumber":66,"Velocity":54,"Duration":672352,"SoundDuration":672352,"Delta":126858406},{"NoteNumber":76,"Velocity":64,"Duration":672352,"SoundDuration":672352,"Delta":126858406},{"NoteNumber":46,"Velocity":51,"Duration":159339,"SoundDuration":159339,"Delta":126858406},{"NoteNumber":44,"Velocity":48,"Duration":164550,"SoundDuration":164550,"Delta":127017745},{"NoteNumber":43,"Velocity":50,"Duration":168548,"SoundDuration":168548,"Delta":127182296},{"NoteNumber":44,"Velocity":52,"Duration":179912,"SoundDuration":179912,"Delta":127350845},{"NoteNumber":82,"Velocity":70,"Duration":665747,"SoundDuration":665747,"Delta":127530758},{"NoteNumber":77,"Velocity":59,"Duration":665747,"SoundDuration":665747,"Delta":127530758},{"NoteNumber":73,"Velocity":50,"Duration":665747,"SoundDuration":665747,"Delta":127530758},{"NoteNumber":70,"Velocity":50,"Duration":665747,"SoundDuration":665747,"Delta":127530758},{"NoteNumber":37,"Velocity":56,"Duration":133511,"SoundDuration":133511,"Delta":127530758},{"NoteNumber":44,"Velocity":43,"Duration":133511,"SoundDuration":133511,"Delta":127664269},{"NoteNumber":49,"Velocity":45,"Duration":133119,"SoundDuration":133119,"Delta":127797781},{"NoteNumber":53,"Velocity":46,"Duration":132802,"SoundDuration":132802,"Delta":127930901},{"NoteNumber":58,"Velocity":48,"Duration":132802,"SoundDuration":132802,"Delta":128063703},{"NoteNumber":53,"Velocity":52,"Duration":494586,"SoundDuration":494586,"Delta":128196505},{"NoteNumber":61,"Velocity":52,"Duration":494586,"SoundDuration":494586,"Delta":128196505},{"NoteNumber":65,"Velocity":60,"Duration":494586,"SoundDuration":494586,"Delta":128196505},{"NoteNumber":58,"Velocity":50,"Duration":182091,"SoundDuration":182091,"Delta":128691091},{"NoteNumber":70,"Velocity":59,"Duration":182091,"SoundDuration":182091,"Delta":128691091},{"NoteNumber":56,"Velocity":42,"Duration":674211,"SoundDuration":674211,"Delta":128873183},{"NoteNumber":61,"Velocity":41,"Duration":674211,"SoundDuration":674211,"Delta":128873183},{"NoteNumber":65,"Velocity":56,"Duration":674211,"SoundDuration":674211,"Delta":128873183},{"NoteNumber":68,"Velocity":66,"Duration":674211,"SoundDuration":674211,"Delta":128873183},{"NoteNumber":41,"Velocity":56,"Duration":136369,"SoundDuration":136369,"Delta":128873183},{"NoteNumber":44,"Velocity":44,"Duration":135570,"SoundDuration":135570,"Delta":129009553},{"NoteNumber":49,"Velocity":46,"Duration":134794,"SoundDuration":134794,"Delta":129145124},{"NoteNumber":53,"Velocity":48,"Duration":134022,"SoundDuration":134022,"Delta":129279918},{"NoteNumber":56,"Velocity":51,"Duration":133454,"SoundDuration":133454,"Delta":129413941},{"NoteNumber":49,"Velocity":49,"Duration":498550,"SoundDuration":498550,"Delta":129547395},{"NoteNumber":61,"Velocity":64,"Duration":498550,"SoundDuration":498550,"Delta":129547395},{"NoteNumber":51,"Velocity":45,"Duration":180483,"SoundDuration":180483,"Delta":130045946},{"NoteNumber":63,"Velocity":54,"Duration":180483,"SoundDuration":180483,"Delta":130045946},{"NoteNumber":53,"Velocity":57,"Duration":647979,"SoundDuration":647979,"Delta":130226430},{"NoteNumber":60,"Velocity":57,"Duration":647979,"SoundDuration":647979,"Delta":130226430},{"NoteNumber":65,"Velocity":68,"Duration":647979,"SoundDuration":647979,"Delta":130226430},{"NoteNumber":32,"Velocity":63,"Duration":165553,"SoundDuration":165553,"Delta":130226430},{"NoteNumber":44,"Velocity":58,"Duration":163479,"SoundDuration":163479,"Delta":130391983},{"NoteNumber":56,"Velocity":52,"Duration":159501,"SoundDuration":159501,"Delta":130555463},{"NoteNumber":55,"Velocity":51,"Duration":159444,"SoundDuration":159444,"Delta":130714964},{"NoteNumber":56,"Velocity":38,"Duration":1232768,"SoundDuration":1232768,"Delta":130874409},{"NoteNumber":65,"Velocity":54,"Duration":1232768,"SoundDuration":1232768,"Delta":130874409},{"NoteNumber":60,"Velocity":45,"Duration":1232768,"SoundDuration":1232768,"Delta":130874409},{"NoteNumber":68,"Velocity":64,"Duration":1232768,"SoundDuration":1232768,"Delta":130874409},{"NoteNumber":54,"Velocity":57,"Duration":158407,"SoundDuration":158407,"Delta":130874409},{"NoteNumber":53,"Velocity":52,"Duration":156805,"SoundDuration":156805,"Delta":131032816},{"NoteNumber":52,"Velocity":51,"Duration":155044,"SoundDuration":155044,"Delta":131189621},{"NoteNumber":51,"Velocity":49,"Duration":153510,"SoundDuration":153510,"Delta":131344665},{"NoteNumber":50,"Velocity":51,"Duration":152173,"SoundDuration":152173,"Delta":131498176},{"NoteNumber":49,"Velocity":46,"Duration":152160,"SoundDuration":152160,"Delta":131650350},{"NoteNumber":48,"Velocity":46,"Duration":152160,"SoundDuration":152160,"Delta":131802510},{"NoteNumber":47,"Velocity":44,"Duration":152506,"SoundDuration":152506,"Delta":131954671},{"NoteNumber":54,"Velocity":48,"Duration":672352,"SoundDuration":672352,"Delta":132107178},{"NoteNumber":60,"Velocity":54,"Duration":672352,"SoundDuration":672352,"Delta":132107178},{"NoteNumber":64,"Velocity":64,"Duration":672352,"SoundDuration":672352,"Delta":132107178},{"NoteNumber":46,"Velocity":51,"Duration":159339,"SoundDuration":159339,"Delta":132107178},{"NoteNumber":44,"Velocity":47,"Duration":164550,"SoundDuration":164550,"Delta":132266518},{"NoteNumber":43,"Velocity":42,"Duration":168548,"SoundDuration":168548,"Delta":132431069},{"NoteNumber":44,"Velocity":36,"Duration":179912,"SoundDuration":179912,"Delta":132599617},{"NoteNumber":65,"Velocity":56,"Duration":665747,"SoundDuration":665747,"Delta":132779530},{"NoteNumber":61,"Velocity":40,"Duration":665747,"SoundDuration":665747,"Delta":132779530},{"NoteNumber":53,"Velocity":40,"Duration":330974,"SoundDuration":330974,"Delta":132779530},{"NoteNumber":37,"Velocity":50,"Duration":111259,"SoundDuration":111259,"Delta":132779530},{"NoteNumber":44,"Velocity":33,"Duration":111259,"SoundDuration":111259,"Delta":132890790},{"NoteNumber":49,"Velocity":34,"Duration":111222,"SoundDuration":111222,"Delta":133002049},{"NoteNumber":53,"Velocity":35,"Duration":110668,"SoundDuration":110668,"Delta":133113272},{"NoteNumber":56,"Velocity":36,"Duration":110668,"SoundDuration":110668,"Delta":133223940},{"NoteNumber":54,"Velocity":37,"Duration":110668,"SoundDuration":110668,"Delta":133334609},{"NoteNumber":61,"Velocity":60,"Duration":494586,"SoundDuration":494586,"Delta":133445277},{"NoteNumber":53,"Velocity":38,"Duration":110519,"SoundDuration":110519,"Delta":133445277},{"NoteNumber":51,"Velocity":39,"Duration":109781,"SoundDuration":109781,"Delta":133555797},{"NoteNumber":49,"Velocity":40,"Duration":109673,"SoundDuration":109673,"Delta":133665579},{"NoteNumber":48,"Velocity":41,"Duration":109673,"SoundDuration":109673,"Delta":133775252},{"NoteNumber":46,"Velocity":42,"Duration":115802,"SoundDuration":115802,"Delta":133884925},{"NoteNumber":65,"Velocity":55,"Duration":182091,"SoundDuration":182091,"Delta":133939864},{"NoteNumber":45,"Velocity":43,"Duration":121227,"SoundDuration":121227,"Delta":134000728},{"NoteNumber":60,"Velocity":41,"Duration":343846,"SoundDuration":343846,"Delta":134121955},{"NoteNumber":63,"Velocity":41,"Duration":343846,"SoundDuration":343846,"Delta":134121955},{"NoteNumber":66,"Velocity":49,"Duration":343846,"SoundDuration":343846,"Delta":134121955},{"NoteNumber":68,"Velocity":58,"Duration":343846,"SoundDuration":343846,"Delta":134121955},{"NoteNumber":44,"Velocity":36,"Duration":85285,"SoundDuration":85285,"Delta":134121955},{"NoteNumber":46,"Velocity":26,"Duration":85285,"SoundDuration":85285,"Delta":134207241},{"NoteNumber":48,"Velocity":28,"Duration":85285,"SoundDuration":85285,"Delta":134292526},{"NoteNumber":49,"Velocity":30,"Duration":87990,"SoundDuration":87990,"Delta":134377812},{"NoteNumber":51,"Velocity":33,"Duration":87845,"SoundDuration":87845,"Delta":134465802},{"NoteNumber":53,"Velocity":35,"Duration":87354,"SoundDuration":87354,"Delta":134553647},{"NoteNumber":54,"Velocity":37,"Duration":86989,"SoundDuration":86989,"Delta":134641001},{"NoteNumber":55,"Velocity":40,"Duration":86503,"SoundDuration":86503,"Delta":134727990},{"NoteNumber":56,"Velocity":41,"Duration":86139,"SoundDuration":86139,"Delta":134814494},{"NoteNumber":57,"Velocity":43,"Duration":85667,"SoundDuration":85667,"Delta":134900634},{"NoteNumber":58,"Velocity":44,"Duration":85285,"SoundDuration":85285,"Delta":134986302},{"NoteNumber":59,"Velocity":45,"Duration":84844,"SoundDuration":84844,"Delta":135071587},{"NoteNumber":60,"Velocity":46,"Duration":84385,"SoundDuration":84385,"Delta":135156431},{"NoteNumber":61,"Velocity":47,"Duration":84045,"SoundDuration":84045,"Delta":135240817},{"NoteNumber":62,"Velocity":49,"Duration":83589,"SoundDuration":83589,"Delta":135324862},{"NoteNumber":63,"Velocity":51,"Duration":125166,"SoundDuration":125166,"Delta":135408452},{"NoteNumber":65,"Velocity":56,"Duration":665747,"SoundDuration":665747,"Delta":135533619},{"NoteNumber":37,"Velocity":43,"Duration":111259,"SoundDuration":111259,"Delta":135533619},{"NoteNumber":44,"Velocity":34,"Duration":111259,"SoundDuration":111259,"Delta":135644878},{"NoteNumber":49,"Velocity":35,"Duration":111222,"SoundDuration":111222,"Delta":135756138},{"NoteNumber":53,"Velocity":37,"Duration":110668,"SoundDuration":110668,"Delta":135867360},{"NoteNumber":56,"Velocity":38,"Duration":110668,"SoundDuration":110668,"Delta":135978029},{"NoteNumber":54,"Velocity":40,"Duration":110668,"SoundDuration":110668,"Delta":136088697},{"NoteNumber":61,"Velocity":59,"Duration":494586,"SoundDuration":494586,"Delta":136199366},{"NoteNumber":53,"Velocity":42,"Duration":110519,"SoundDuration":110519,"Delta":136199366},{"NoteNumber":51,"Velocity":43,"Duration":109781,"SoundDuration":109781,"Delta":136309885},{"NoteNumber":49,"Velocity":45,"Duration":109673,"SoundDuration":109673,"Delta":136419667},{"NoteNumber":48,"Velocity":46,"Duration":109673,"SoundDuration":109673,"Delta":136529340},{"NoteNumber":46,"Velocity":48,"Duration":115802,"SoundDuration":115802,"Delta":136639014},{"NoteNumber":65,"Velocity":58,"Duration":182091,"SoundDuration":182091,"Delta":136693952},{"NoteNumber":45,"Velocity":50,"Duration":121227,"SoundDuration":121227,"Delta":136754816},{"NoteNumber":60,"Velocity":41,"Duration":343846,"SoundDuration":343846,"Delta":136876044},{"NoteNumber":63,"Velocity":41,"Duration":343846,"SoundDuration":343846,"Delta":136876044},{"NoteNumber":66,"Velocity":49,"Duration":343846,"SoundDuration":343846,"Delta":136876044},{"NoteNumber":68,"Velocity":58,"Duration":343846,"SoundDuration":343846,"Delta":136876044},{"NoteNumber":44,"Velocity":32,"Duration":85285,"SoundDuration":85285,"Delta":136876044},{"NoteNumber":46,"Velocity":34,"Duration":85285,"SoundDuration":85285,"Delta":136961329},{"NoteNumber":48,"Velocity":36,"Duration":85285,"SoundDuration":85285,"Delta":137046615},{"NoteNumber":49,"Velocity":38,"Duration":87990,"SoundDuration":87990,"Delta":137131900},{"NoteNumber":51,"Velocity":40,"Duration":87845,"SoundDuration":87845,"Delta":137219890},{"NoteNumber":53,"Velocity":42,"Duration":87354,"SoundDuration":87354,"Delta":137307736},{"NoteNumber":54,"Velocity":45,"Duration":86989,"SoundDuration":86989,"Delta":137395090},{"NoteNumber":55,"Velocity":47,"Duration":86503,"SoundDuration":86503,"Delta":137482079},{"NoteNumber":56,"Velocity":53,"Duration":86139,"SoundDuration":86139,"Delta":137568583},{"NoteNumber":57,"Velocity":54,"Duration":85667,"SoundDuration":85667,"Delta":137654723},{"NoteNumber":58,"Velocity":56,"Duration":85285,"SoundDuration":85285,"Delta":137740390},{"NoteNumber":59,"Velocity":57,"Duration":84844,"SoundDuration":84844,"Delta":137825676},{"NoteNumber":60,"Velocity":59,"Duration":84385,"SoundDuration":84385,"Delta":137910520},{"NoteNumber":61,"Velocity":60,"Duration":84045,"SoundDuration":84045,"Delta":137994906},{"NoteNumber":62,"Velocity":62,"Duration":83589,"SoundDuration":83589,"Delta":138078951},{"NoteNumber":63,"Velocity":63,"Duration":122127,"SoundDuration":122127,"Delta":138162540},{"NoteNumber":65,"Velocity":71,"Duration":349806,"SoundDuration":349806,"Delta":138284668},{"NoteNumber":37,"Velocity":63,"Duration":88524,"SoundDuration":88524,"Delta":138284668},{"NoteNumber":53,"Velocity":48,"Duration":87853,"SoundDuration":87853,"Delta":138373192},{"NoteNumber":49,"Velocity":48,"Duration":87037,"SoundDuration":87037,"Delta":138461046},{"NoteNumber":44,"Velocity":48,"Duration":86390,"SoundDuration":86390,"Delta":138548084},{"NoteNumber":53,"Velocity":57,"Duration":85597,"SoundDuration":85597,"Delta":138634475},{"NoteNumber":56,"Velocity":46,"Duration":84971,"SoundDuration":84971,"Delta":138720072},{"NoteNumber":61,"Velocity":46,"Duration":84203,"SoundDuration":84203,"Delta":138805044},{"NoteNumber":65,"Velocity":46,"Duration":84886,"SoundDuration":84886,"Delta":138889248},{"NoteNumber":56,"Velocity":62,"Duration":87037,"SoundDuration":87037,"Delta":138974134},{"NoteNumber":53,"Velocity":45,"Duration":86552,"SoundDuration":86552,"Delta":139061172},{"NoteNumber":49,"Velocity":45,"Duration":85950,"SoundDuration":85950,"Delta":139147725},{"NoteNumber":44,"Velocity":45,"Duration":85480,"SoundDuration":85480,"Delta":139233675},{"NoteNumber":56,"Velocity":56,"Duration":84891,"SoundDuration":84891,"Delta":139319156},{"NoteNumber":61,"Velocity":47,"Duration":84393,"SoundDuration":84393,"Delta":139404047},{"NoteNumber":65,"Velocity":47,"Duration":83863,"SoundDuration":83863,"Delta":139488441},{"NoteNumber":68,"Velocity":47,"Duration":83296,"SoundDuration":83296,"Delta":139572305},{"NoteNumber":61,"Velocity":64,"Duration":86096,"SoundDuration":86096,"Delta":139655602},{"NoteNumber":56,"Velocity":46,"Duration":86268,"SoundDuration":86268,"Delta":139741698},{"NoteNumber":53,"Velocity":46,"Duration":85597,"SoundDuration":85597,"Delta":139827967},{"NoteNumber":49,"Velocity":46,"Duration":85009,"SoundDuration":85009,"Delta":139913564},{"NoteNumber":61,"Velocity":56,"Duration":84393,"SoundDuration":84393,"Delta":139998574},{"NoteNumber":65,"Velocity":46,"Duration":83749,"SoundDuration":83749,"Delta":140082967},{"NoteNumber":68,"Velocity":46,"Duration":83186,"SoundDuration":83186,"Delta":140166717},{"NoteNumber":73,"Velocity":47,"Duration":82901,"SoundDuration":82901,"Delta":140249903},{"NoteNumber":65,"Velocity":63,"Duration":85714,"SoundDuration":85714,"Delta":140332805},{"NoteNumber":61,"Velocity":47,"Duration":85127,"SoundDuration":85127,"Delta":140418519},{"NoteNumber":56,"Velocity":47,"Duration":84545,"SoundDuration":84545,"Delta":140503647},{"NoteNumber":53,"Velocity":47,"Duration":84090,"SoundDuration":84090,"Delta":140588193},{"NoteNumber":65,"Velocity":56,"Duration":83483,"SoundDuration":83483,"Delta":140672284},{"NoteNumber":68,"Velocity":47,"Duration":82964,"SoundDuration":82964,"Delta":140755768},{"NoteNumber":73,"Velocity":47,"Duration":82415,"SoundDuration":82415,"Delta":140838732},{"NoteNumber":77,"Velocity":47,"Duration":81869,"SoundDuration":81869,"Delta":140921148},{"NoteNumber":68,"Velocity":64,"Duration":83533,"SoundDuration":83533,"Delta":141003017},{"NoteNumber":65,"Velocity":48,"Duration":83520,"SoundDuration":83520,"Delta":141086550},{"NoteNumber":61,"Velocity":48,"Duration":83075,"SoundDuration":83075,"Delta":141170071},{"NoteNumber":56,"Velocity":48,"Duration":82635,"SoundDuration":82635,"Delta":141253146},{"NoteNumber":68,"Velocity":56,"Duration":82193,"SoundDuration":82193,"Delta":141335782},{"NoteNumber":73,"Velocity":49,"Duration":81762,"SoundDuration":81762,"Delta":141417976},{"NoteNumber":77,"Velocity":49,"Duration":81336,"SoundDuration":81336,"Delta":141499738},{"NoteNumber":80,"Velocity":49,"Duration":81777,"SoundDuration":81777,"Delta":141581074},{"NoteNumber":73,"Velocity":65,"Duration":83296,"SoundDuration":83296,"Delta":141662852},{"NoteNumber":68,"Velocity":48,"Duration":82745,"SoundDuration":82745,"Delta":141746149},{"NoteNumber":65,"Velocity":48,"Duration":82304,"SoundDuration":82304,"Delta":141828894},{"NoteNumber":61,"Velocity":48,"Duration":81726,"SoundDuration":81726,"Delta":141911198},{"NoteNumber":73,"Velocity":60,"Duration":81229,"SoundDuration":81229,"Delta":141992925},{"NoteNumber":77,"Velocity":50,"Duration":80697,"SoundDuration":80697,"Delta":142074155},{"NoteNumber":80,"Velocity":50,"Duration":80283,"SoundDuration":80283,"Delta":142154853},{"NoteNumber":85,"Velocity":50,"Duration":79765,"SoundDuration":79765,"Delta":142235136},{"NoteNumber":77,"Velocity":66,"Duration":81340,"SoundDuration":81340,"Delta":142314901},{"NoteNumber":73,"Velocity":50,"Duration":81548,"SoundDuration":81548,"Delta":142396242},{"NoteNumber":68,"Velocity":50,"Duration":81229,"SoundDuration":81229,"Delta":142477791},{"NoteNumber":65,"Velocity":50,"Duration":80836,"SoundDuration":80836,"Delta":142559021},{"NoteNumber":77,"Velocity":61,"Duration":80489,"SoundDuration":80489,"Delta":142639857},{"NoteNumber":80,"Velocity":50,"Duration":80283,"SoundDuration":80283,"Delta":142720347},{"NoteNumber":85,"Velocity":50,"Duration":79973,"SoundDuration":79973,"Delta":142800630},{"NoteNumber":89,"Velocity":50,"Duration":79731,"SoundDuration":79731,"Delta":142880604},{"NoteNumber":80,"Velocity":69,"Duration":81265,"SoundDuration":81265,"Delta":142960336},{"NoteNumber":77,"Velocity":51,"Duration":80907,"SoundDuration":80907,"Delta":143041602},{"NoteNumber":73,"Velocity":52,"Duration":80489,"SoundDuration":80489,"Delta":143122510},{"NoteNumber":68,"Velocity":52,"Duration":80077,"SoundDuration":80077,"Delta":143202999},{"NoteNumber":80,"Velocity":62,"Duration":79661,"SoundDuration":79661,"Delta":143283076},{"NoteNumber":85,"Velocity":50,"Duration":79256,"SoundDuration":79256,"Delta":143362738},{"NoteNumber":89,"Velocity":50,"Duration":78856,"SoundDuration":78856,"Delta":143441995},{"NoteNumber":92,"Velocity":51,"Duration":78453,"SoundDuration":78453,"Delta":143520851},{"NoteNumber":85,"Velocity":78,"Duration":593475,"SoundDuration":593475,"Delta":143599304},{"NoteNumber":97,"Velocity":85,"Duration":593475,"SoundDuration":593475,"Delta":143599304},{"NoteNumber":73,"Velocity":56,"Duration":593475,"SoundDuration":593475,"Delta":143599304},{"NoteNumber":77,"Velocity":56,"Duration":593475,"SoundDuration":593475,"Delta":143599304},{"NoteNumber":80,"Velocity":67,"Duration":593475,"SoundDuration":593475,"Delta":143599304},{"NoteNumber":85,"Velocity":80,"Duration":598384,"SoundDuration":598384,"Delta":144192779},{"NoteNumber":80,"Velocity":68,"Duration":598384,"SoundDuration":598384,"Delta":144192779},{"NoteNumber":73,"Velocity":57,"Duration":598384,"SoundDuration":598384,"Delta":144192779},{"NoteNumber":77,"Velocity":57,"Duration":598384,"SoundDuration":598384,"Delta":144192779},{"NoteNumber":61,"Velocity":45,"Duration":598384,"SoundDuration":598384,"Delta":144192779},{"NoteNumber":65,"Velocity":53,"Duration":598384,"SoundDuration":598384,"Delta":144192779},{"NoteNumber":68,"Velocity":63,"Duration":598384,"SoundDuration":598384,"Delta":144192779},{"NoteNumber":65,"Velocity":68,"Duration":653524,"SoundDuration":653524,"Delta":144791163},{"NoteNumber":68,"Velocity":68,"Duration":653524,"SoundDuration":653524,"Delta":144791163},{"NoteNumber":73,"Velocity":81,"Duration":653524,"SoundDuration":653524,"Delta":144791163},{"NoteNumber":61,"Velocity":67,"Duration":653524,"SoundDuration":653524,"Delta":144791163},{"NoteNumber":56,"Velocity":56,"Duration":653524,"SoundDuration":653524,"Delta":144791163},{"NoteNumber":65,"Velocity":78,"Duration":777503,"SoundDuration":777503,"Delta":145444687},{"NoteNumber":61,"Velocity":66,"Duration":777503,"SoundDuration":777503,"Delta":145444687},{"NoteNumber":53,"Velocity":66,"Duration":777503,"SoundDuration":777503,"Delta":145444687},{"NoteNumber":49,"Velocity":53,"Duration":777503,"SoundDuration":777503,"Delta":145444687},{"NoteNumber":44,"Velocity":53,"Duration":777503,"SoundDuration":777503,"Delta":145444687},{"NoteNumber":56,"Velocity":63,"Duration":777503,"SoundDuration":777503,"Delta":145444687},{"NoteNumber":49,"Velocity":87,"Duration":777503,"SoundDuration":777503,"Delta":146222191},{"NoteNumber":25,"Velocity":63,"Duration":777503,"SoundDuration":777503,"Delta":146222191},{"NoteNumber":37,"Velocity":75,"Duration":777503,"SoundDuration":777503,"Delta":146222191}],"license":{"name":"Creative Commons Attribution-ShareAlike 3.0 Germany","url":"http://creativecommons.org/licenses/by-sa/3.0/de/deed.en","text":"The MIDI, audio (MP3, OGG) and video files of Bernd Krueger are licensed under the cc-by-sa Germany License. This means that you can use and adapt the files, as long as you attribute the copyright holder.\n\nName: Bernd Krueger\nSource: http://www.piano-midi.de\n\nThe distribution or public playback of the files is only allowed under identical license conditions.\n\nThe scores are open source.","attribution":"MIDI files by Bernd Krueger (piano-midi.de)","attributionUrl":"http://www.piano-midi.de"}}