{"title":"Die Quelle, Op. 109","artist":"Burgmüller","durationMs":106933,"midiSha256":"9b446becaf670c65f7c9a1614c03d7472f8aab1ef7944cdb39fa3bfc2763101a","midiObject":[{"NoteNumber":71,"Velocity":49,"Duration":503807,"SoundDuration":503807,"Delta":0},{"NoteNumber":43,"Velocity":39,"Duration":253454,"SoundDuration":253454,"Delta":0},{"NoteNumber":74,"Velocity":37,"Duration":126335,"SoundDuration":126335,"Delta":127118},{"NoteNumber":62,"Velocity":31,"Duration":125560,"SoundDuration":125560,"Delta":253454},{"NoteNumber":74,"Velocity":38,"Duration":124792,"SoundDuration":124792,"Delta":379014},{"NoteNumber":71,"Velocity":44,"Duration":490328,"SoundDuration":490328,"Delta":503807},{"NoteNumber":50,"Velocity":36,"Duration":490328,"SoundDuration":490328,"Delta":503807},{"NoteNumber":74,"Velocity":37,"Duration":122939,"SoundDuration":122939,"Delta":627487},{"NoteNumber":62,"Velocity":31,"Duration":122211,"SoundDuration":122211,"Delta":750427},{"NoteNumber":74,"Velocity":37,"Duration":121496,"SoundDuration":121496,"Delta":872638},{"NoteNumber":69,"Velocity":44,"Duration":485986,"SoundDuration":485986,"Delta":994135},{"NoteNumber":60,"Velocity":37,"Duration":485986,"SoundDuration":485986,"Delta":994135},{"NoteNumber":74,"Velocity":36,"Duration":121496,"SoundDuration":121496,"Delta":1114917},{"NoteNumber":62,"Velocity":30,"Duration":121496,"SoundDuration":121496,"Delta":1236414},{"NoteNumber":74,"Velocity":36,"Duration":122211,"SoundDuration":122211,"Delta":1357911},{"NoteNumber":67,"Velocity":44,"Duration":493981,"SoundDuration":493981,"Delta":1480122},{"NoteNumber":59,"Velocity":34,"Duration":493981,"SoundDuration":493981,"Delta":1480122},{"NoteNumber":74,"Velocity":37,"Duration":123310,"SoundDuration":123310,"Delta":1602691},{"NoteNumber":62,"Velocity":33,"Duration":123680,"SoundDuration":123680,"Delta":1726001},{"NoteNumber":74,"Velocity":37,"Duration":124421,"SoundDuration":124421,"Delta":1849682},{"NoteNumber":66,"Velocity":48,"Duration":490328,"SoundDuration":490328,"Delta":1974104},{"NoteNumber":43,"Velocity":38,"Duration":246620,"SoundDuration":246620,"Delta":1974104},{"NoteNumber":74,"Velocity":37,"Duration":122939,"SoundDuration":122939,"Delta":2097785},{"NoteNumber":62,"Velocity":33,"Duration":122211,"SoundDuration":122211,"Delta":2220724},{"NoteNumber":74,"Velocity":37,"Duration":121496,"SoundDuration":121496,"Delta":2342936},{"NoteNumber":67,"Velocity":47,"Duration":477553,"SoundDuration":477553,"Delta":2464433},{"NoteNumber":50,"Velocity":39,"Duration":477553,"SoundDuration":477553,"Delta":2464433},{"NoteNumber":74,"Velocity":37,"Duration":119733,"SoundDuration":119733,"Delta":2584856},{"NoteNumber":62,"Velocity":30,"Duration":119043,"SoundDuration":119043,"Delta":2704590},{"NoteNumber":74,"Velocity":37,"Duration":118352,"SoundDuration":118352,"Delta":2823634},{"NoteNumber":72,"Velocity":51,"Duration":470694,"SoundDuration":470694,"Delta":2941986},{"NoteNumber":57,"Velocity":40,"Duration":470694,"SoundDuration":470694,"Delta":2941986},{"NoteNumber":74,"Velocity":38,"Duration":117334,"SoundDuration":117334,"Delta":3059320},{"NoteNumber":62,"Velocity":34,"Duration":117673,"SoundDuration":117673,"Delta":3176654},{"NoteNumber":74,"Velocity":38,"Duration":118352,"SoundDuration":118352,"Delta":3294328},{"NoteNumber":71,"Velocity":47,"Duration":476863,"SoundDuration":476863,"Delta":3412680},{"NoteNumber":55,"Velocity":36,"Duration":476863,"SoundDuration":476863,"Delta":3412680},{"NoteNumber":74,"Velocity":36,"Duration":119043,"SoundDuration":119043,"Delta":3531033},{"NoteNumber":62,"Velocity":31,"Duration":119388,"SoundDuration":119388,"Delta":3650076},{"NoteNumber":74,"Velocity":36,"Duration":120078,"SoundDuration":120078,"Delta":3769465},{"NoteNumber":71,"Velocity":49,"Duration":478933,"SoundDuration":478933,"Delta":3889544},{"NoteNumber":38,"Velocity":41,"Duration":240847,"SoundDuration":240847,"Delta":3889544},{"NoteNumber":74,"Velocity":37,"Duration":120423,"SoundDuration":120423,"Delta":4009968},{"NoteNumber":62,"Velocity":33,"Duration":119733,"SoundDuration":119733,"Delta":4130392},{"NoteNumber":74,"Velocity":38,"Duration":118352,"SoundDuration":118352,"Delta":4250125},{"NoteNumber":69,"Velocity":53,"Duration":470694,"SoundDuration":470694,"Delta":4368478},{"NoteNumber":54,"Velocity":38,"Duration":470694,"SoundDuration":470694,"Delta":4368478},{"NoteNumber":74,"Velocity":39,"Duration":117673,"SoundDuration":117673,"Delta":4486830},{"NoteNumber":62,"Velocity":36,"Duration":117334,"SoundDuration":117334,"Delta":4604504},{"NoteNumber":74,"Velocity":41,"Duration":117334,"SoundDuration":117334,"Delta":4721838},{"NoteNumber":67,"Velocity":55,"Duration":470729,"SoundDuration":470729,"Delta":4839172},{"NoteNumber":52,"Velocity":41,"Duration":470729,"SoundDuration":470729,"Delta":4839172},{"NoteNumber":74,"Velocity":42,"Duration":117000,"SoundDuration":117000,"Delta":4955505},{"NoteNumber":62,"Velocity":38,"Duration":118352,"SoundDuration":118352,"Delta":5072505},{"NoteNumber":74,"Velocity":45,"Duration":119043,"SoundDuration":119043,"Delta":5190858},{"NoteNumber":69,"Velocity":57,"Duration":484631,"SoundDuration":484631,"Delta":5309901},{"NoteNumber":54,"Velocity":44,"Duration":484631,"SoundDuration":484631,"Delta":5309901},{"NoteNumber":74,"Velocity":47,"Duration":121139,"SoundDuration":121139,"Delta":5430325},{"NoteNumber":62,"Velocity":42,"Duration":122939,"SoundDuration":122939,"Delta":5551464},{"NoteNumber":74,"Velocity":50,"Duration":120128,"SoundDuration":120128,"Delta":5674404},{"NoteNumber":71,"Velocity":66,"Duration":245137,"SoundDuration":245137,"Delta":5794532},{"NoteNumber":43,"Velocity":41,"Duration":245137,"SoundDuration":245137,"Delta":5794532},{"NoteNumber":74,"Velocity":52,"Duration":122569,"SoundDuration":122569,"Delta":5917101},{"NoteNumber":62,"Velocity":58,"Duration":245137,"SoundDuration":245137,"Delta":6039670},{"NoteNumber":74,"Velocity":49,"Duration":122569,"SoundDuration":122569,"Delta":6162239},{"NoteNumber":63,"Velocity":57,"Duration":243708,"SoundDuration":243708,"Delta":6284808},{"NoteNumber":50,"Velocity":36,"Duration":486702,"SoundDuration":486702,"Delta":6284808},{"NoteNumber":74,"Velocity":47,"Duration":121496,"SoundDuration":121496,"Delta":6407020},{"NoteNumber":64,"Velocity":57,"Duration":242993,"SoundDuration":242993,"Delta":6528517},{"NoteNumber":74,"Velocity":47,"Duration":121496,"SoundDuration":121496,"Delta":6650014},{"NoteNumber":65,"Velocity":56,"Duration":238777,"SoundDuration":238777,"Delta":6771511},{"NoteNumber":55,"Velocity":39,"Duration":479625,"SoundDuration":479625,"Delta":6771511},{"NoteNumber":59,"Velocity":39,"Duration":479625,"SoundDuration":479625,"Delta":6771511},{"NoteNumber":74,"Velocity":47,"Duration":119388,"SoundDuration":119388,"Delta":6890899},{"NoteNumber":66,"Velocity":55,"Duration":240847,"SoundDuration":240847,"Delta":7010288},{"NoteNumber":74,"Velocity":47,"Duration":120423,"SoundDuration":120423,"Delta":7130712},{"NoteNumber":67,"Velocity":53,"Duration":242993,"SoundDuration":242993,"Delta":7251136},{"NoteNumber":50,"Velocity":37,"Duration":488131,"SoundDuration":488131,"Delta":7251136},{"NoteNumber":74,"Velocity":45,"Duration":121496,"SoundDuration":121496,"Delta":7372633},{"NoteNumber":69,"Velocity":53,"Duration":245137,"SoundDuration":245137,"Delta":7494130},{"NoteNumber":74,"Velocity":42,"Duration":122568,"SoundDuration":122568,"Delta":7616699},{"NoteNumber":71,"Velocity":53,"Duration":483866,"SoundDuration":483866,"Delta":7739268},{"NoteNumber":43,"Velocity":51,"Duration":243708,"SoundDuration":243708,"Delta":7739268},{"NoteNumber":74,"Velocity":39,"Duration":121496,"SoundDuration":121496,"Delta":7861479},{"NoteNumber":76,"Velocity":46,"Duration":120423,"SoundDuration":120423,"Delta":7982976},{"NoteNumber":74,"Velocity":38,"Duration":119733,"SoundDuration":119733,"Delta":8103400},{"NoteNumber":71,"Velocity":55,"Duration":468048,"SoundDuration":468048,"Delta":8223134},{"NoteNumber":55,"Velocity":49,"Duration":1385240,"SoundDuration":1385240,"Delta":8223134},{"NoteNumber":67,"Velocity":49,"Duration":468048,"SoundDuration":468048,"Delta":8223134},{"NoteNumber":74,"Velocity":40,"Duration":117673,"SoundDuration":117673,"Delta":8341486},{"NoteNumber":76,"Velocity":48,"Duration":116333,"SoundDuration":116333,"Delta":8459160},{"NoteNumber":74,"Velocity":39,"Duration":115688,"SoundDuration":115688,"Delta":8575493},{"NoteNumber":69,"Velocity":60,"Duration":455726,"SoundDuration":455726,"Delta":8691182},{"NoteNumber":66,"Velocity":52,"Duration":455726,"SoundDuration":455726,"Delta":8691182},{"NoteNumber":74,"Velocity":46,"Duration":113775,"SoundDuration":113775,"Delta":8805581},{"NoteNumber":76,"Velocity":53,"Duration":113464,"SoundDuration":113464,"Delta":8919357},{"NoteNumber":74,"Velocity":47,"Duration":114087,"SoundDuration":114087,"Delta":9032822},{"NoteNumber":71,"Velocity":63,"Duration":461465,"SoundDuration":461465,"Delta":9146909},{"NoteNumber":65,"Velocity":56,"Duration":461465,"SoundDuration":461465,"Delta":9146909},{"NoteNumber":79,"Velocity":50,"Duration":115044,"SoundDuration":115044,"Delta":9261308},{"NoteNumber":81,"Velocity":59,"Duration":115688,"SoundDuration":115688,"Delta":9376352},{"NoteNumber":79,"Velocity":52,"Duration":116333,"SoundDuration":116333,"Delta":9492041},{"NoteNumber":74,"Velocity":69,"Duration":473409,"SoundDuration":473409,"Delta":9608374},{"NoteNumber":55,"Velocity":49,"Duration":1915146,"SoundDuration":1915146,"Delta":9608374},{"NoteNumber":64,"Velocity":56,"Duration":473409,"SoundDuration":473409,"Delta":9608374},{"NoteNumber":79,"Velocity":52,"Duration":118352,"SoundDuration":118352,"Delta":9726727},{"NoteNumber":81,"Velocity":58,"Duration":118352,"SoundDuration":118352,"Delta":9845079},{"NoteNumber":79,"Velocity":51,"Duration":118352,"SoundDuration":118352,"Delta":9963432},{"NoteNumber":72,"Velocity":62,"Duration":476864,"SoundDuration":476864,"Delta":10081784},{"NoteNumber":63,"Velocity":49,"Duration":476864,"SoundDuration":476864,"Delta":10081784},{"NoteNumber":79,"Velocity":48,"Duration":119388,"SoundDuration":119388,"Delta":10200482},{"NoteNumber":81,"Velocity":52,"Duration":119388,"SoundDuration":119388,"Delta":10319871},{"NoteNumber":79,"Velocity":46,"Duration":119388,"SoundDuration":119388,"Delta":10439260},{"NoteNumber":71,"Velocity":61,"Duration":480315,"SoundDuration":480315,"Delta":10558649},{"NoteNumber":62,"Velocity":48,"Duration":480315,"SoundDuration":480315,"Delta":10558649},{"NoteNumber":79,"Velocity":49,"Duration":120078,"SoundDuration":120078,"Delta":10678037},{"NoteNumber":81,"Velocity":53,"Duration":120423,"SoundDuration":120423,"Delta":10798116},{"NoteNumber":79,"Velocity":48,"Duration":120423,"SoundDuration":120423,"Delta":10918540},{"NoteNumber":70,"Velocity":60,"Duration":484556,"SoundDuration":484556,"Delta":11038964},{"NoteNumber":61,"Velocity":48,"Duration":484556,"SoundDuration":484556,"Delta":11038964},{"NoteNumber":79,"Velocity":49,"Duration":121139,"SoundDuration":121139,"Delta":11159388},{"NoteNumber":78,"Velocity":51,"Duration":121496,"SoundDuration":121496,"Delta":11280527},{"NoteNumber":76,"Velocity":49,"Duration":121496,"SoundDuration":121496,"Delta":11402024},{"NoteNumber":71,"Velocity":51,"Duration":485272,"SoundDuration":485272,"Delta":11523521},{"NoteNumber":50,"Velocity":49,"Duration":1461406,"SoundDuration":1461406,"Delta":11523521},{"NoteNumber":62,"Velocity":49,"Duration":485272,"SoundDuration":485272,"Delta":11523521},{"NoteNumber":74,"Velocity":40,"Duration":121496,"SoundDuration":121496,"Delta":11645018},{"NoteNumber":76,"Velocity":44,"Duration":121496,"SoundDuration":121496,"Delta":11766514},{"NoteNumber":74,"Velocity":38,"Duration":120781,"SoundDuration":120781,"Delta":11888011},{"NoteNumber":67,"Velocity":47,"Duration":492872,"SoundDuration":492872,"Delta":12008793},{"NoteNumber":59,"Velocity":38,"Duration":492872,"SoundDuration":492872,"Delta":12008793},{"NoteNumber":74,"Velocity":37,"Duration":121496,"SoundDuration":121496,"Delta":12129574},{"NoteNumber":76,"Velocity":41,"Duration":122569,"SoundDuration":122569,"Delta":12251071},{"NoteNumber":74,"Velocity":34,"Duration":128025,"SoundDuration":128025,"Delta":12373640},{"NoteNumber":66,"Velocity":50,"Duration":245164,"SoundDuration":245164,"Delta":12501665},{"NoteNumber":57,"Velocity":42,"Duration":245164,"SoundDuration":245164,"Delta":12501665},{"NoteNumber":74,"Velocity":44,"Duration":121854,"SoundDuration":121854,"Delta":12624976},{"NoteNumber":69,"Velocity":48,"Duration":238097,"SoundDuration":238097,"Delta":12746830},{"NoteNumber":60,"Velocity":39,"Duration":238097,"SoundDuration":238097,"Delta":12746830},{"NoteNumber":74,"Velocity":41,"Duration":118018,"SoundDuration":118018,"Delta":12866909},{"NoteNumber":72,"Velocity":51,"Duration":240884,"SoundDuration":240884,"Delta":12984928},{"NoteNumber":64,"Velocity":42,"Duration":240884,"SoundDuration":240884,"Delta":12984928},{"NoteNumber":74,"Velocity":40,"Duration":121496,"SoundDuration":121496,"Delta":13104316},{"NoteNumber":71,"Velocity":50,"Duration":251177,"SoundDuration":251177,"Delta":13225813},{"NoteNumber":62,"Velocity":42,"Duration":251177,"SoundDuration":251177,"Delta":13225813},{"NoteNumber":74,"Velocity":39,"Duration":127126,"SoundDuration":127126,"Delta":13349864},{"NoteNumber":69,"Velocity":49,"Duration":1034556,"SoundDuration":1034556,"Delta":13476990},{"NoteNumber":60,"Velocity":40,"Duration":1034556,"SoundDuration":1034556,"Delta":13476990},{"NoteNumber":55,"Velocity":40,"Duration":1303760,"SoundDuration":1303760,"Delta":13476990},{"NoteNumber":74,"Velocity":39,"Duration":134577,"SoundDuration":134577,"Delta":13611567},{"NoteNumber":73,"Velocity":42,"Duration":123370,"SoundDuration":123370,"Delta":13746145},{"NoteNumber":74,"Velocity":37,"Duration":123310,"SoundDuration":123310,"Delta":13869515},{"NoteNumber":76,"Velocity":42,"Duration":125951,"SoundDuration":125951,"Delta":13992826},{"NoteNumber":74,"Velocity":36,"Duration":128314,"SoundDuration":128314,"Delta":14118777},{"NoteNumber":73,"Velocity":41,"Duration":131167,"SoundDuration":131167,"Delta":14247092},{"NoteNumber":74,"Velocity":36,"Duration":133286,"SoundDuration":133286,"Delta":14378259},{"NoteNumber":67,"Velocity":52,"Duration":269204,"SoundDuration":269204,"Delta":14511546},{"NoteNumber":79,"Velocity":52,"Duration":269204,"SoundDuration":269204,"Delta":14511546},{"NoteNumber":59,"Velocity":36,"Duration":269204,"SoundDuration":269204,"Delta":14511546},{"NoteNumber":66,"Velocity":36,"Duration":131581,"SoundDuration":131581,"Delta":14780750},{"NoteNumber":67,"Velocity":39,"Duration":129526,"SoundDuration":129526,"Delta":14912332},{"NoteNumber":69,"Velocity":42,"Duration":128314,"SoundDuration":128314,"Delta":15041858},{"NoteNumber":67,"Velocity":38,"Duration":129511,"SoundDuration":129511,"Delta":15170173},{"NoteNumber":66,"Velocity":41,"Duration":130339,"SoundDuration":130339,"Delta":15299684},{"NoteNumber":67,"Velocity":37,"Duration":126038,"SoundDuration":126038,"Delta":15430023},{"NoteNumber":71,"Velocity":44,"Duration":508504,"SoundDuration":508504,"Delta":15556062},{"NoteNumber":43,"Velocity":39,"Duration":255832,"SoundDuration":255832,"Delta":15556062},{"NoteNumber":74,"Velocity":37,"Duration":127517,"SoundDuration":127517,"Delta":15684376},{"NoteNumber":62,"Velocity":31,"Duration":126727,"SoundDuration":126727,"Delta":15811894},{"NoteNumber":74,"Velocity":38,"Duration":125944,"SoundDuration":125944,"Delta":15938621},{"NoteNumber":71,"Velocity":44,"Duration":494722,"SoundDuration":494722,"Delta":16064566},{"NoteNumber":50,"Velocity":36,"Duration":494722,"SoundDuration":494722,"Delta":16064566},{"NoteNumber":74,"Velocity":37,"Duration":124051,"SoundDuration":124051,"Delta":16189358},{"NoteNumber":62,"Velocity":31,"Duration":123310,"SoundDuration":123310,"Delta":16313409},{"NoteNumber":74,"Velocity":37,"Duration":122569,"SoundDuration":122569,"Delta":16436719},{"NoteNumber":69,"Velocity":44,"Duration":482410,"SoundDuration":482410,"Delta":16559288},{"NoteNumber":60,"Velocity":37,"Duration":482410,"SoundDuration":482410,"Delta":16559288},{"NoteNumber":74,"Velocity":36,"Duration":120423,"SoundDuration":120423,"Delta":16680427},{"NoteNumber":62,"Velocity":30,"Duration":120423,"SoundDuration":120423,"Delta":16800851},{"NoteNumber":74,"Velocity":36,"Duration":120423,"SoundDuration":120423,"Delta":16921275},{"NoteNumber":67,"Velocity":44,"Duration":486702,"SoundDuration":486702,"Delta":17041699},{"NoteNumber":59,"Velocity":34,"Duration":486702,"SoundDuration":486702,"Delta":17041699},{"NoteNumber":74,"Velocity":37,"Duration":121496,"SoundDuration":121496,"Delta":17163196},{"NoteNumber":62,"Velocity":33,"Duration":121496,"SoundDuration":121496,"Delta":17284693},{"NoteNumber":74,"Velocity":37,"Duration":122211,"SoundDuration":122211,"Delta":17406189},{"NoteNumber":66,"Velocity":48,"Duration":484556,"SoundDuration":484556,"Delta":17528401},{"NoteNumber":43,"Velocity":38,"Duration":242993,"SoundDuration":242993,"Delta":17528401},{"NoteNumber":74,"Velocity":37,"Duration":121496,"SoundDuration":121496,"Delta":17649898},{"NoteNumber":62,"Velocity":33,"Duration":121139,"SoundDuration":121139,"Delta":17771395},{"NoteNumber":74,"Velocity":37,"Duration":120423,"SoundDuration":120423,"Delta":17892534},{"NoteNumber":67,"Velocity":47,"Duration":478935,"SoundDuration":478935,"Delta":18012958},{"NoteNumber":50,"Velocity":39,"Duration":478935,"SoundDuration":478935,"Delta":18012958},{"NoteNumber":74,"Velocity":37,"Duration":119733,"SoundDuration":119733,"Delta":18133382},{"NoteNumber":62,"Velocity":30,"Duration":119388,"SoundDuration":119388,"Delta":18253116},{"NoteNumber":74,"Velocity":37,"Duration":119388,"SoundDuration":119388,"Delta":18372504},{"NoteNumber":72,"Velocity":51,"Duration":475482,"SoundDuration":475482,"Delta":18491893},{"NoteNumber":57,"Velocity":40,"Duration":475482,"SoundDuration":475482,"Delta":18491893},{"NoteNumber":74,"Velocity":38,"Duration":118352,"SoundDuration":118352,"Delta":18610246},{"NoteNumber":62,"Velocity":34,"Duration":119388,"SoundDuration":119388,"Delta":18728598},{"NoteNumber":74,"Velocity":38,"Duration":119388,"SoundDuration":119388,"Delta":18847987},{"NoteNumber":71,"Velocity":47,"Duration":483841,"SoundDuration":483841,"Delta":18967376},{"NoteNumber":55,"Velocity":36,"Duration":483841,"SoundDuration":483841,"Delta":18967376},{"NoteNumber":74,"Velocity":36,"Duration":120423,"SoundDuration":120423,"Delta":19087799},{"NoteNumber":62,"Velocity":31,"Duration":121496,"SoundDuration":121496,"Delta":19208223},{"NoteNumber":74,"Velocity":36,"Duration":121496,"SoundDuration":121496,"Delta":19329720},{"NoteNumber":71,"Velocity":49,"Duration":487416,"SoundDuration":487416,"Delta":19451217},{"NoteNumber":38,"Velocity":41,"Duration":245138,"SoundDuration":245138,"Delta":19451217},{"NoteNumber":74,"Velocity":37,"Duration":122569,"SoundDuration":122569,"Delta":19573786},{"NoteNumber":62,"Velocity":33,"Duration":121496,"SoundDuration":121496,"Delta":19696355},{"NoteNumber":74,"Velocity":38,"Duration":120781,"SoundDuration":120781,"Delta":19817852},{"NoteNumber":69,"Velocity":53,"Duration":477553,"SoundDuration":477553,"Delta":19938634},{"NoteNumber":54,"Velocity":38,"Duration":477553,"SoundDuration":477553,"Delta":19938634},{"NoteNumber":74,"Velocity":39,"Duration":119733,"SoundDuration":119733,"Delta":20059057},{"NoteNumber":62,"Velocity":36,"Duration":119043,"SoundDuration":119043,"Delta":20178791},{"NoteNumber":74,"Velocity":41,"Duration":118352,"SoundDuration":118352,"Delta":20297835},{"NoteNumber":67,"Velocity":55,"Duration":471373,"SoundDuration":471373,"Delta":20416187},{"NoteNumber":52,"Velocity":41,"Duration":471373,"SoundDuration":471373,"Delta":20416187},{"NoteNumber":74,"Velocity":42,"Duration":117334,"SoundDuration":117334,"Delta":20533521},{"NoteNumber":62,"Velocity":38,"Duration":118352,"SoundDuration":118352,"Delta":20650855},{"NoteNumber":74,"Velocity":45,"Duration":118352,"SoundDuration":118352,"Delta":20769208},{"NoteNumber":69,"Velocity":57,"Duration":480340,"SoundDuration":480340,"Delta":20887560},{"NoteNumber":54,"Velocity":44,"Duration":480340,"SoundDuration":480340,"Delta":20887560},{"NoteNumber":74,"Velocity":47,"Duration":119388,"SoundDuration":119388,"Delta":21006949},{"NoteNumber":62,"Velocity":42,"Duration":120423,"SoundDuration":120423,"Delta":21126338},{"NoteNumber":74,"Velocity":50,"Duration":121139,"SoundDuration":121139,"Delta":21246762},{"NoteNumber":71,"Velocity":66,"Duration":245138,"SoundDuration":245138,"Delta":21367901},{"NoteNumber":43,"Velocity":41,"Duration":245138,"SoundDuration":245138,"Delta":21367901},{"NoteNumber":74,"Velocity":52,"Duration":122569,"SoundDuration":122569,"Delta":21490470},{"NoteNumber":62,"Velocity":58,"Duration":243708,"SoundDuration":243708,"Delta":21613039},{"NoteNumber":74,"Velocity":49,"Duration":121496,"SoundDuration":121496,"Delta":21735250},{"NoteNumber":63,"Velocity":57,"Duration":242278,"SoundDuration":242278,"Delta":21856747},{"NoteNumber":50,"Velocity":36,"Duration":483126,"SoundDuration":483126,"Delta":21856747},{"NoteNumber":74,"Velocity":47,"Duration":120781,"SoundDuration":120781,"Delta":21978244},{"NoteNumber":64,"Velocity":57,"Duration":240847,"SoundDuration":240847,"Delta":22099026},{"NoteNumber":74,"Velocity":47,"Duration":120423,"SoundDuration":120423,"Delta":22219450},{"NoteNumber":65,"Velocity":56,"Duration":238777,"SoundDuration":238777,"Delta":22339874},{"NoteNumber":55,"Velocity":39,"Duration":479625,"SoundDuration":479625,"Delta":22339874},{"NoteNumber":59,"Velocity":39,"Duration":479625,"SoundDuration":479625,"Delta":22339874},{"NoteNumber":74,"Velocity":47,"Duration":119388,"SoundDuration":119388,"Delta":22459262},{"NoteNumber":66,"Velocity":55,"Duration":240847,"SoundDuration":240847,"Delta":22578651},{"NoteNumber":74,"Velocity":47,"Duration":120423,"SoundDuration":120423,"Delta":22699075},{"NoteNumber":67,"Velocity":53,"Duration":242993,"SoundDuration":242993,"Delta":22819499},{"NoteNumber":50,"Velocity":37,"Duration":488872,"SoundDuration":488872,"Delta":22819499},{"NoteNumber":74,"Velocity":45,"Duration":121496,"SoundDuration":121496,"Delta":22940996},{"NoteNumber":69,"Velocity":53,"Duration":245879,"SoundDuration":245879,"Delta":23062493},{"NoteNumber":74,"Velocity":42,"Duration":123310,"SoundDuration":123310,"Delta":23185062},{"NoteNumber":71,"Velocity":53,"Duration":485986,"SoundDuration":485986,"Delta":23308372},{"NoteNumber":43,"Velocity":51,"Duration":244423,"SoundDuration":244423,"Delta":23308372},{"NoteNumber":74,"Velocity":39,"Duration":121854,"SoundDuration":121854,"Delta":23430941},{"NoteNumber":76,"Velocity":46,"Duration":121139,"SoundDuration":121139,"Delta":23552795},{"NoteNumber":74,"Velocity":38,"Duration":120423,"SoundDuration":120423,"Delta":23673934},{"NoteNumber":71,"Velocity":55,"Duration":473433,"SoundDuration":473433,"Delta":23794358},{"NoteNumber":55,"Velocity":49,"Duration":1412994,"SoundDuration":1412994,"Delta":23794358},{"NoteNumber":67,"Velocity":49,"Duration":473433,"SoundDuration":473433,"Delta":23794358},{"NoteNumber":74,"Velocity":40,"Duration":118697,"SoundDuration":118697,"Delta":23913747},{"NoteNumber":76,"Velocity":48,"Duration":118013,"SoundDuration":118013,"Delta":24032445},{"NoteNumber":74,"Velocity":39,"Duration":117334,"SoundDuration":117334,"Delta":24150458},{"NoteNumber":69,"Velocity":60,"Duration":464067,"SoundDuration":464067,"Delta":24267792},{"NoteNumber":66,"Velocity":52,"Duration":464067,"SoundDuration":464067,"Delta":24267792},{"NoteNumber":74,"Velocity":46,"Duration":115366,"SoundDuration":115366,"Delta":24383159},{"NoteNumber":76,"Velocity":53,"Duration":116333,"SoundDuration":116333,"Delta":24498526},{"NoteNumber":74,"Velocity":47,"Duration":117000,"SoundDuration":117000,"Delta":24614859},{"NoteNumber":71,"Velocity":63,"Duration":475493,"SoundDuration":475493,"Delta":24731859},{"NoteNumber":65,"Velocity":56,"Duration":475493,"SoundDuration":475493,"Delta":24731859},{"NoteNumber":79,"Velocity":50,"Duration":118352,"SoundDuration":118352,"Delta":24849533},{"NoteNumber":81,"Velocity":59,"Duration":119388,"SoundDuration":119388,"Delta":24967885},{"NoteNumber":79,"Velocity":52,"Duration":120078,"SoundDuration":120078,"Delta":25087274},{"NoteNumber":74,"Velocity":69,"Duration":469336,"SoundDuration":469336,"Delta":25207353},{"NoteNumber":55,"Velocity":49,"Duration":1910393,"SoundDuration":1910393,"Delta":25207353},{"NoteNumber":64,"Velocity":56,"Duration":469336,"SoundDuration":469336,"Delta":25207353},{"NoteNumber":79,"Velocity":52,"Duration":117334,"SoundDuration":117334,"Delta":25324687},{"NoteNumber":81,"Velocity":58,"Duration":117334,"SoundDuration":117334,"Delta":25442021},{"NoteNumber":79,"Velocity":51,"Duration":117334,"SoundDuration":117334,"Delta":25559355},{"NoteNumber":72,"Velocity":62,"Duration":476185,"SoundDuration":476185,"Delta":25676689},{"NoteNumber":63,"Velocity":49,"Duration":476185,"SoundDuration":476185,"Delta":25676689},{"NoteNumber":79,"Velocity":48,"Duration":119388,"SoundDuration":119388,"Delta":25794708},{"NoteNumber":81,"Velocity":52,"Duration":119388,"SoundDuration":119388,"Delta":25914097},{"NoteNumber":79,"Velocity":46,"Duration":119388,"SoundDuration":119388,"Delta":26033486},{"NoteNumber":71,"Velocity":61,"Duration":480315,"SoundDuration":480315,"Delta":26152875},{"NoteNumber":62,"Velocity":48,"Duration":480315,"SoundDuration":480315,"Delta":26152875},{"NoteNumber":79,"Velocity":49,"Duration":120078,"SoundDuration":120078,"Delta":26272263},{"NoteNumber":81,"Velocity":53,"Duration":120423,"SoundDuration":120423,"Delta":26392342},{"NoteNumber":79,"Velocity":48,"Duration":120423,"SoundDuration":120423,"Delta":26512766},{"NoteNumber":70,"Velocity":60,"Duration":484556,"SoundDuration":484556,"Delta":26633190},{"NoteNumber":61,"Velocity":48,"Duration":484556,"SoundDuration":484556,"Delta":26633190},{"NoteNumber":79,"Velocity":49,"Duration":121139,"SoundDuration":121139,"Delta":26753614},{"NoteNumber":78,"Velocity":51,"Duration":121496,"SoundDuration":121496,"Delta":26874753},{"NoteNumber":76,"Velocity":49,"Duration":121496,"SoundDuration":121496,"Delta":26996250},{"NoteNumber":71,"Velocity":51,"Duration":485272,"SoundDuration":485272,"Delta":27117747},{"NoteNumber":50,"Velocity":49,"Duration":1474854,"SoundDuration":1474854,"Delta":27117747},{"NoteNumber":62,"Velocity":49,"Duration":485272,"SoundDuration":485272,"Delta":27117747},{"NoteNumber":74,"Velocity":40,"Duration":121496,"SoundDuration":121496,"Delta":27239244},{"NoteNumber":76,"Velocity":44,"Duration":121496,"SoundDuration":121496,"Delta":27360741},{"NoteNumber":74,"Velocity":38,"Duration":120781,"SoundDuration":120781,"Delta":27482237},{"NoteNumber":67,"Velocity":47,"Duration":492872,"SoundDuration":492872,"Delta":27603019},{"NoteNumber":59,"Velocity":38,"Duration":492872,"SoundDuration":492872,"Delta":27603019},{"NoteNumber":74,"Velocity":37,"Duration":121496,"SoundDuration":121496,"Delta":27723801},{"NoteNumber":76,"Velocity":41,"Duration":122568,"SoundDuration":122568,"Delta":27845297},{"NoteNumber":74,"Velocity":34,"Duration":128025,"SoundDuration":128025,"Delta":27967866},{"NoteNumber":66,"Velocity":50,"Duration":251903,"SoundDuration":251903,"Delta":28095891},{"NoteNumber":57,"Velocity":42,"Duration":251903,"SoundDuration":251903,"Delta":28095891},{"NoteNumber":74,"Velocity":44,"Duration":125176,"SoundDuration":125176,"Delta":28222619},{"NoteNumber":69,"Velocity":48,"Duration":244806,"SoundDuration":244806,"Delta":28347795},{"NoteNumber":60,"Velocity":39,"Duration":244806,"SoundDuration":244806,"Delta":28347795},{"NoteNumber":74,"Velocity":41,"Duration":121496,"SoundDuration":121496,"Delta":28471105},{"NoteNumber":72,"Velocity":51,"Duration":251120,"SoundDuration":251120,"Delta":28592602},{"NoteNumber":64,"Velocity":42,"Duration":251120,"SoundDuration":251120,"Delta":28592602},{"NoteNumber":74,"Velocity":40,"Duration":125560,"SoundDuration":125560,"Delta":28718162},{"NoteNumber":71,"Velocity":50,"Duration":259881,"SoundDuration":259881,"Delta":28843723},{"NoteNumber":62,"Velocity":42,"Duration":259881,"SoundDuration":259881,"Delta":28843723},{"NoteNumber":74,"Velocity":39,"Duration":131167,"SoundDuration":131167,"Delta":28972436},{"NoteNumber":69,"Velocity":49,"Duration":1072375,"SoundDuration":1072375,"Delta":29103604},{"NoteNumber":60,"Velocity":40,"Duration":1072375,"SoundDuration":1072375,"Delta":29103604},{"NoteNumber":55,"Velocity":40,"Duration":1346053,"SoundDuration":1346053,"Delta":29103604},{"NoteNumber":74,"Velocity":39,"Duration":134577,"SoundDuration":134577,"Delta":29238181},{"NoteNumber":73,"Velocity":42,"Duration":127517,"SoundDuration":127517,"Delta":29372758},{"NoteNumber":74,"Velocity":37,"Duration":129925,"SoundDuration":129925,"Delta":29500276},{"NoteNumber":76,"Velocity":42,"Duration":132425,"SoundDuration":132425,"Delta":29630201},{"NoteNumber":74,"Velocity":36,"Duration":135032,"SoundDuration":135032,"Delta":29762627},{"NoteNumber":73,"Velocity":41,"Duration":137752,"SoundDuration":137752,"Delta":29897660},{"NoteNumber":74,"Velocity":36,"Duration":140566,"SoundDuration":140566,"Delta":30035412},{"NoteNumber":79,"Velocity":52,"Duration":273678,"SoundDuration":273678,"Delta":30175979},{"NoteNumber":67,"Velocity":52,"Duration":273678,"SoundDuration":273678,"Delta":30175979},{"NoteNumber":59,"Velocity":36,"Duration":273678,"SoundDuration":273678,"Delta":30175979},{"NoteNumber":66,"Velocity":45,"Duration":130339,"SoundDuration":130339,"Delta":30449658},{"NoteNumber":67,"Velocity":49,"Duration":128713,"SoundDuration":128713,"Delta":30579997},{"NoteNumber":69,"Velocity":53,"Duration":126335,"SoundDuration":126335,"Delta":30708710},{"NoteNumber":67,"Velocity":49,"Duration":126727,"SoundDuration":126727,"Delta":30835046},{"NoteNumber":66,"Velocity":56,"Duration":128713,"SoundDuration":128713,"Delta":30961774},{"NoteNumber":67,"Velocity":50,"Duration":130339,"SoundDuration":130339,"Delta":31090487},{"NoteNumber":79,"Velocity":75,"Duration":490328,"SoundDuration":490328,"Delta":31220826},{"NoteNumber":36,"Velocity":57,"Duration":490328,"SoundDuration":490328,"Delta":31220826},{"NoteNumber":48,"Velocity":57,"Duration":490328,"SoundDuration":490328,"Delta":31220826},{"NoteNumber":67,"Velocity":51,"Duration":122939,"SoundDuration":122939,"Delta":31344507},{"NoteNumber":72,"Velocity":57,"Duration":122211,"SoundDuration":122211,"Delta":31467447},{"NoteNumber":67,"Velocity":51,"Duration":121496,"SoundDuration":121496,"Delta":31589658},{"NoteNumber":76,"Velocity":68,"Duration":477553,"SoundDuration":477553,"Delta":31711155},{"NoteNumber":60,"Velocity":51,"Duration":477553,"SoundDuration":477553,"Delta":31711155},{"NoteNumber":67,"Velocity":51,"Duration":119733,"SoundDuration":119733,"Delta":31831579},{"NoteNumber":72,"Velocity":55,"Duration":119043,"SoundDuration":119043,"Delta":31951313},{"NoteNumber":67,"Velocity":50,"Duration":118352,"SoundDuration":118352,"Delta":32070356},{"NoteNumber":79,"Velocity":73,"Duration":472076,"SoundDuration":472076,"Delta":32188709},{"NoteNumber":64,"Velocity":56,"Duration":472076,"SoundDuration":472076,"Delta":32188709},{"NoteNumber":67,"Velocity":51,"Duration":117334,"SoundDuration":117334,"Delta":32306043},{"NoteNumber":72,"Velocity":57,"Duration":118019,"SoundDuration":118019,"Delta":32423377},{"NoteNumber":67,"Velocity":52,"Duration":119388,"SoundDuration":119388,"Delta":32541396},{"NoteNumber":76,"Velocity":67,"Duration":481388,"SoundDuration":481388,"Delta":32660785},{"NoteNumber":60,"Velocity":50,"Duration":481388,"SoundDuration":481388,"Delta":32660785},{"NoteNumber":67,"Velocity":50,"Duration":120078,"SoundDuration":120078,"Delta":32780173},{"NoteNumber":72,"Velocity":53,"Duration":120423,"SoundDuration":120423,"Delta":32900252},{"NoteNumber":67,"Velocity":50,"Duration":121496,"SoundDuration":121496,"Delta":33020676},{"NoteNumber":76,"Velocity":70,"Duration":488131,"SoundDuration":488131,"Delta":33142173},{"NoteNumber":55,"Velocity":51,"Duration":1444965,"SoundDuration":1444965,"Delta":33142173},{"NoteNumber":60,"Velocity":51,"Duration":488131,"SoundDuration":488131,"Delta":33142173},{"NoteNumber":67,"Velocity":51,"Duration":122568,"SoundDuration":122568,"Delta":33264742},{"NoteNumber":66,"Velocity":56,"Duration":121496,"SoundDuration":121496,"Delta":33387311},{"NoteNumber":67,"Velocity":51,"Duration":121496,"SoundDuration":121496,"Delta":33508808},{"NoteNumber":74,"Velocity":68,"Duration":479279,"SoundDuration":479279,"Delta":33630305},{"NoteNumber":59,"Velocity":45,"Duration":479279,"SoundDuration":479279,"Delta":33630305},{"NoteNumber":62,"Velocity":45,"Duration":120423,"SoundDuration":120423,"Delta":33750728},{"NoteNumber":67,"Velocity":48,"Duration":119388,"SoundDuration":119388,"Delta":33871152},{"NoteNumber":62,"Velocity":45,"Duration":119043,"SoundDuration":119043,"Delta":33990541},{"NoteNumber":72,"Velocity":67,"Duration":477553,"SoundDuration":477553,"Delta":34109584},{"NoteNumber":57,"Velocity":52,"Duration":477553,"SoundDuration":477553,"Delta":34109584},{"NoteNumber":62,"Velocity":40,"Duration":119043,"SoundDuration":119043,"Delta":34227937},{"NoteNumber":66,"Velocity":48,"Duration":119733,"SoundDuration":119733,"Delta":34346980},{"NoteNumber":62,"Velocity":40,"Duration":120423,"SoundDuration":120423,"Delta":34466714},{"NoteNumber":71,"Velocity":66,"Duration":503426,"SoundDuration":503426,"Delta":34587138},{"NoteNumber":55,"Velocity":44,"Duration":503426,"SoundDuration":503426,"Delta":34587138},{"NoteNumber":62,"Velocity":39,"Duration":122508,"SoundDuration":122508,"Delta":34708635},{"NoteNumber":67,"Velocity":45,"Duration":126976,"SoundDuration":126976,"Delta":34831143},{"NoteNumber":62,"Velocity":39,"Duration":132445,"SoundDuration":132445,"Delta":34958120},{"NoteNumber":71,"Velocity":64,"Duration":499593,"SoundDuration":499593,"Delta":35090565},{"NoteNumber":50,"Velocity":46,"Duration":1984068,"SoundDuration":1984068,"Delta":35090565},{"NoteNumber":56,"Velocity":46,"Duration":499593,"SoundDuration":499593,"Delta":35090565},{"NoteNumber":62,"Velocity":40,"Duration":125560,"SoundDuration":125560,"Delta":35216125},{"NoteNumber":65,"Velocity":45,"Duration":124791,"SoundDuration":124791,"Delta":35341686},{"NoteNumber":62,"Velocity":40,"Duration":123680,"SoundDuration":123680,"Delta":35466478},{"NoteNumber":72,"Velocity":66,"Duration":485641,"SoundDuration":485641,"Delta":35590158},{"NoteNumber":57,"Velocity":38,"Duration":485641,"SoundDuration":485641,"Delta":35590158},{"NoteNumber":62,"Velocity":41,"Duration":121854,"SoundDuration":121854,"Delta":35712727},{"NoteNumber":66,"Velocity":45,"Duration":121139,"SoundDuration":121139,"Delta":35834582},{"NoteNumber":62,"Velocity":39,"Duration":120078,"SoundDuration":120078,"Delta":35955721},{"NoteNumber":76,"Velocity":67,"Duration":487493,"SoundDuration":487493,"Delta":36075800},{"NoteNumber":60,"Velocity":46,"Duration":487493,"SoundDuration":487493,"Delta":36075800},{"NoteNumber":62,"Velocity":44,"Duration":121139,"SoundDuration":121139,"Delta":36195533},{"NoteNumber":66,"Velocity":48,"Duration":122568,"SoundDuration":122568,"Delta":36316673},{"NoteNumber":62,"Velocity":42,"Duration":124051,"SoundDuration":124051,"Delta":36439242},{"NoteNumber":72,"Velocity":62,"Duration":511340,"SoundDuration":511340,"Delta":36563293},{"NoteNumber":57,"Velocity":39,"Duration":511340,"SoundDuration":511340,"Delta":36563293},{"NoteNumber":62,"Velocity":39,"Duration":126727,"SoundDuration":126727,"Delta":36688853},{"NoteNumber":66,"Velocity":45,"Duration":128713,"SoundDuration":128713,"Delta":36815581},{"NoteNumber":62,"Velocity":39,"Duration":130339,"SoundDuration":130339,"Delta":36944294},{"NoteNumber":71,"Velocity":57,"Duration":523012,"SoundDuration":523012,"Delta":37074633},{"NoteNumber":43,"Velocity":41,"Duration":523012,"SoundDuration":523012,"Delta":37074633},{"NoteNumber":55,"Velocity":41,"Duration":523012,"SoundDuration":523012,"Delta":37074633},{"NoteNumber":62,"Velocity":39,"Duration":130753,"SoundDuration":130753,"Delta":37205386},{"NoteNumber":67,"Velocity":45,"Duration":130753,"SoundDuration":130753,"Delta":37336140},{"NoteNumber":62,"Velocity":39,"Duration":130753,"SoundDuration":130753,"Delta":37466893},{"NoteNumber":59,"Velocity":53,"Duration":507735,"SoundDuration":507735,"Delta":37597646},{"NoteNumber":55,"Velocity":53,"Duration":507735,"SoundDuration":507735,"Delta":37597646},{"NoteNumber":67,"Velocity":42,"Duration":127517,"SoundDuration":127517,"Delta":37725961},{"NoteNumber":66,"Velocity":47,"Duration":126727,"SoundDuration":126727,"Delta":37853478},{"NoteNumber":67,"Velocity":41,"Duration":125176,"SoundDuration":125176,"Delta":37980205},{"NoteNumber":79,"Velocity":70,"Duration":124421,"SoundDuration":124421,"Delta":38105381},{"NoteNumber":60,"Velocity":59,"Duration":495463,"SoundDuration":495463,"Delta":38105381},{"NoteNumber":57,"Velocity":59,"Duration":495463,"SoundDuration":495463,"Delta":38105381},{"NoteNumber":67,"Velocity":47,"Duration":122939,"SoundDuration":122939,"Delta":38229803},{"NoteNumber":66,"Velocity":53,"Duration":123680,"SoundDuration":123680,"Delta":38352743},{"NoteNumber":67,"Velocity":50,"Duration":124421,"SoundDuration":124421,"Delta":38476423},{"NoteNumber":79,"Velocity":75,"Duration":124792,"SoundDuration":124792,"Delta":38600845},{"NoteNumber":62,"Velocity":63,"Duration":514248,"SoundDuration":514248,"Delta":38600845},{"NoteNumber":59,"Velocity":63,"Duration":514248,"SoundDuration":514248,"Delta":38600845},{"NoteNumber":67,"Velocity":55,"Duration":125944,"SoundDuration":125944,"Delta":38725637},{"NoteNumber":66,"Velocity":59,"Duration":128165,"SoundDuration":128165,"Delta":38851582},{"NoteNumber":67,"Velocity":53,"Duration":135346,"SoundDuration":135346,"Delta":38979747},{"NoteNumber":79,"Velocity":81,"Duration":490328,"SoundDuration":490328,"Delta":39115094},{"NoteNumber":39,"Velocity":78,"Duration":246620,"SoundDuration":246620,"Delta":39115094},{"NoteNumber":51,"Velocity":78,"Duration":246620,"SoundDuration":246620,"Delta":39115094},{"NoteNumber":67,"Velocity":56,"Duration":122939,"SoundDuration":122939,"Delta":39238774},{"NoteNumber":70,"Velocity":60,"Duration":122211,"SoundDuration":122211,"Delta":39361714},{"NoteNumber":67,"Velocity":55,"Duration":121496,"SoundDuration":121496,"Delta":39483926},{"NoteNumber":75,"Velocity":82,"Duration":477553,"SoundDuration":477553,"Delta":39605422},{"NoteNumber":58,"Velocity":72,"Duration":1431017,"SoundDuration":1431017,"Delta":39605422},{"NoteNumber":63,"Velocity":72,"Duration":477553,"SoundDuration":477553,"Delta":39605422},{"NoteNumber":67,"Velocity":59,"Duration":119733,"SoundDuration":119733,"Delta":39725846},{"NoteNumber":70,"Velocity":63,"Duration":119043,"SoundDuration":119043,"Delta":39845580},{"NoteNumber":67,"Velocity":58,"Duration":118352,"SoundDuration":118352,"Delta":39964623},{"NoteNumber":74,"Velocity":80,"Duration":472076,"SoundDuration":472076,"Delta":40082976},{"NoteNumber":62,"Velocity":74,"Duration":472076,"SoundDuration":472076,"Delta":40082976},{"NoteNumber":67,"Velocity":58,"Duration":117334,"SoundDuration":117334,"Delta":40200310},{"NoteNumber":70,"Velocity":61,"Duration":118019,"SoundDuration":118019,"Delta":40317644},{"NoteNumber":67,"Velocity":56,"Duration":119388,"SoundDuration":119388,"Delta":40435663},{"NoteNumber":73,"Velocity":80,"Duration":481388,"SoundDuration":481388,"Delta":40555052},{"NoteNumber":61,"Velocity":69,"Duration":481388,"SoundDuration":481388,"Delta":40555052},{"NoteNumber":67,"Velocity":56,"Duration":120078,"SoundDuration":120078,"Delta":40674441},{"NoteNumber":70,"Velocity":59,"Duration":120423,"SoundDuration":120423,"Delta":40794520},{"NoteNumber":67,"Velocity":55,"Duration":121496,"SoundDuration":121496,"Delta":40914943},{"NoteNumber":76,"Velocity":79,"Duration":490328,"SoundDuration":490328,"Delta":41036440},{"NoteNumber":38,"Velocity":69,"Duration":246620,"SoundDuration":246620,"Delta":41036440},{"NoteNumber":50,"Velocity":69,"Duration":246620,"SoundDuration":246620,"Delta":41036440},{"NoteNumber":67,"Velocity":56,"Duration":122939,"SoundDuration":122939,"Delta":41160121},{"NoteNumber":71,"Velocity":60,"Duration":122211,"SoundDuration":122211,"Delta":41283060},{"NoteNumber":67,"Velocity":55,"Duration":121496,"SoundDuration":121496,"Delta":41405272},{"NoteNumber":74,"Velocity":78,"Duration":477553,"SoundDuration":477553,"Delta":41526769},{"NoteNumber":50,"Velocity":59,"Duration":1431017,"SoundDuration":1431017,"Delta":41526769},{"NoteNumber":59,"Velocity":59,"Duration":477553,"SoundDuration":477553,"Delta":41526769},{"NoteNumber":62,"Velocity":56,"Duration":119733,"SoundDuration":119733,"Delta":41647193},{"NoteNumber":67,"Velocity":60,"Duration":119043,"SoundDuration":119043,"Delta":41766927},{"NoteNumber":62,"Velocity":58,"Duration":118352,"SoundDuration":118352,"Delta":41885970},{"NoteNumber":72,"Velocity":75,"Duration":472076,"SoundDuration":472076,"Delta":42004322},{"NoteNumber":57,"Velocity":62,"Duration":472076,"SoundDuration":472076,"Delta":42004322},{"NoteNumber":62,"Velocity":53,"Duration":117334,"SoundDuration":117334,"Delta":42121656},{"NoteNumber":66,"Velocity":58,"Duration":118019,"SoundDuration":118019,"Delta":42238991},{"NoteNumber":62,"Velocity":53,"Duration":119388,"SoundDuration":119388,"Delta":42357010},{"NoteNumber":71,"Velocity":73,"Duration":481388,"SoundDuration":481388,"Delta":42476398},{"NoteNumber":55,"Velocity":53,"Duration":481388,"SoundDuration":481388,"Delta":42476398},{"NoteNumber":62,"Velocity":56,"Duration":120078,"SoundDuration":120078,"Delta":42595787},{"NoteNumber":67,"Velocity":59,"Duration":120423,"SoundDuration":120423,"Delta":42715866},{"NoteNumber":62,"Velocity":55,"Duration":121496,"SoundDuration":121496,"Delta":42836290},{"NoteNumber":71,"Velocity":72,"Duration":490328,"SoundDuration":490328,"Delta":42957786},{"NoteNumber":50,"Velocity":59,"Duration":967882,"SoundDuration":967882,"Delta":42957786},{"NoteNumber":52,"Velocity":59,"Duration":490328,"SoundDuration":490328,"Delta":42957786},{"NoteNumber":61,"Velocity":47,"Duration":122939,"SoundDuration":122939,"Delta":43081467},{"NoteNumber":67,"Velocity":51,"Duration":122211,"SoundDuration":122211,"Delta":43204407},{"NoteNumber":61,"Velocity":46,"Duration":121496,"SoundDuration":121496,"Delta":43326618},{"NoteNumber":69,"Velocity":59,"Duration":477553,"SoundDuration":477553,"Delta":43448115},{"NoteNumber":57,"Velocity":50,"Duration":477553,"SoundDuration":477553,"Delta":43448115},{"NoteNumber":61,"Velocity":42,"Duration":119733,"SoundDuration":119733,"Delta":43568539},{"NoteNumber":67,"Velocity":49,"Duration":119043,"SoundDuration":119043,"Delta":43688273},{"NoteNumber":61,"Velocity":41,"Duration":118352,"SoundDuration":118352,"Delta":43807316},{"NoteNumber":71,"Velocity":64,"Duration":472076,"SoundDuration":472076,"Delta":43925669},{"NoteNumber":38,"Velocity":55,"Duration":472076,"SoundDuration":472076,"Delta":43925669},{"NoteNumber":60,"Velocity":41,"Duration":117334,"SoundDuration":117334,"Delta":44043003},{"NoteNumber":66,"Velocity":47,"Duration":118019,"SoundDuration":118019,"Delta":44160337},{"NoteNumber":60,"Velocity":40,"Duration":119388,"SoundDuration":119388,"Delta":44278356},{"NoteNumber":69,"Velocity":61,"Duration":481388,"SoundDuration":481388,"Delta":44397745},{"NoteNumber":50,"Velocity":47,"Duration":481388,"SoundDuration":481388,"Delta":44397745},{"NoteNumber":60,"Velocity":40,"Duration":120078,"SoundDuration":120078,"Delta":44517133},{"NoteNumber":66,"Velocity":47,"Duration":120423,"SoundDuration":120423,"Delta":44637212},{"NoteNumber":60,"Velocity":40,"Duration":121496,"SoundDuration":121496,"Delta":44757636},{"NoteNumber":71,"Velocity":61,"Duration":490276,"SoundDuration":490276,"Delta":44879133},{"NoteNumber":43,"Velocity":50,"Duration":2007577,"SoundDuration":2007577,"Delta":44879133},{"NoteNumber":59,"Velocity":36,"Duration":122568,"SoundDuration":122568,"Delta":45001702},{"NoteNumber":62,"Velocity":40,"Duration":122569,"SoundDuration":122569,"Delta":45124271},{"NoteNumber":69,"Velocity":36,"Duration":122568,"SoundDuration":122568,"Delta":45246840},{"NoteNumber":67,"Velocity":53,"Duration":122939,"SoundDuration":122939,"Delta":45369409},{"NoteNumber":50,"Velocity":35,"Duration":1517301,"SoundDuration":1517301,"Delta":45369409},{"NoteNumber":59,"Velocity":35,"Duration":123680,"SoundDuration":123680,"Delta":45492348},{"NoteNumber":62,"Velocity":40,"Duration":123680,"SoundDuration":123680,"Delta":45616029},{"NoteNumber":69,"Velocity":35,"Duration":123680,"SoundDuration":123680,"Delta":45739710},{"NoteNumber":67,"Velocity":49,"Duration":123680,"SoundDuration":123680,"Delta":45863391},{"NoteNumber":59,"Velocity":31,"Duration":124421,"SoundDuration":124421,"Delta":45987071},{"NoteNumber":62,"Velocity":36,"Duration":126335,"SoundDuration":126335,"Delta":46111493},{"NoteNumber":69,"Velocity":30,"Duration":127916,"SoundDuration":127916,"Delta":46237829},{"NoteNumber":67,"Velocity":46,"Duration":129925,"SoundDuration":129925,"Delta":46365745},{"NoteNumber":62,"Velocity":31,"Duration":130753,"SoundDuration":130753,"Delta":46495670},{"NoteNumber":67,"Velocity":34,"Duration":130753,"SoundDuration":130753,"Delta":46626423},{"NoteNumber":69,"Velocity":33,"Duration":129533,"SoundDuration":129533,"Delta":46757176},{"NoteNumber":71,"Velocity":49,"Duration":508899,"SoundDuration":508899,"Delta":46886710},{"NoteNumber":43,"Velocity":39,"Duration":256031,"SoundDuration":256031,"Delta":46886710},{"NoteNumber":74,"Velocity":37,"Duration":127716,"SoundDuration":127716,"Delta":47015025},{"NoteNumber":62,"Velocity":31,"Duration":126922,"SoundDuration":126922,"Delta":47142742},{"NoteNumber":74,"Velocity":38,"Duration":125944,"SoundDuration":125944,"Delta":47269665},{"NoteNumber":71,"Velocity":44,"Duration":497535,"SoundDuration":497535,"Delta":47395609},{"NoteNumber":50,"Velocity":36,"Duration":497535,"SoundDuration":497535,"Delta":47395609},{"NoteNumber":74,"Velocity":37,"Duration":124791,"SoundDuration":124791,"Delta":47521362},{"NoteNumber":62,"Velocity":31,"Duration":123865,"SoundDuration":123865,"Delta":47646154},{"NoteNumber":74,"Velocity":37,"Duration":123124,"SoundDuration":123124,"Delta":47770020},{"NoteNumber":69,"Velocity":44,"Duration":490831,"SoundDuration":490831,"Delta":47893145},{"NoteNumber":60,"Velocity":37,"Duration":490831,"SoundDuration":490831,"Delta":47893145},{"NoteNumber":74,"Velocity":36,"Duration":122568,"SoundDuration":122568,"Delta":48015714},{"NoteNumber":62,"Velocity":30,"Duration":122569,"SoundDuration":122569,"Delta":48138283},{"NoteNumber":74,"Velocity":36,"Duration":123124,"SoundDuration":123124,"Delta":48260852},{"NoteNumber":67,"Velocity":44,"Duration":495278,"SoundDuration":495278,"Delta":48383977},{"NoteNumber":59,"Velocity":34,"Duration":495278,"SoundDuration":495278,"Delta":48383977},{"NoteNumber":74,"Velocity":37,"Duration":123680,"SoundDuration":123680,"Delta":48507657},{"NoteNumber":62,"Velocity":33,"Duration":123680,"SoundDuration":123680,"Delta":48631338},{"NoteNumber":74,"Velocity":37,"Duration":124236,"SoundDuration":124236,"Delta":48755019},{"NoteNumber":66,"Velocity":48,"Duration":493074,"SoundDuration":493074,"Delta":48879255},{"NoteNumber":43,"Velocity":38,"Duration":248287,"SoundDuration":248287,"Delta":48879255},{"NoteNumber":74,"Velocity":37,"Duration":123680,"SoundDuration":123680,"Delta":49003862},{"NoteNumber":62,"Velocity":33,"Duration":122754,"SoundDuration":122754,"Delta":49127543},{"NoteNumber":74,"Velocity":37,"Duration":122032,"SoundDuration":122032,"Delta":49250297},{"NoteNumber":67,"Velocity":47,"Duration":478294,"SoundDuration":478294,"Delta":49372330},{"NoteNumber":50,"Velocity":39,"Duration":478294,"SoundDuration":478294,"Delta":49372330},{"NoteNumber":74,"Velocity":37,"Duration":120423,"SoundDuration":120423,"Delta":49493648},{"NoteNumber":62,"Velocity":30,"Duration":119218,"SoundDuration":119218,"Delta":49614072},{"NoteNumber":74,"Velocity":37,"Duration":117334,"SoundDuration":117334,"Delta":49733291},{"NoteNumber":72,"Velocity":51,"Duration":472400,"SoundDuration":472400,"Delta":49850625},{"NoteNumber":57,"Velocity":40,"Duration":472400,"SoundDuration":472400,"Delta":49850625},{"NoteNumber":74,"Velocity":38,"Duration":117843,"SoundDuration":117843,"Delta":49967959},{"NoteNumber":62,"Velocity":34,"Duration":118352,"SoundDuration":118352,"Delta":50085802},{"NoteNumber":74,"Velocity":38,"Duration":118870,"SoundDuration":118870,"Delta":50204155},{"NoteNumber":71,"Velocity":47,"Duration":480679,"SoundDuration":480679,"Delta":50323025},{"NoteNumber":55,"Velocity":36,"Duration":480679,"SoundDuration":480679,"Delta":50323025},{"NoteNumber":74,"Velocity":36,"Duration":119906,"SoundDuration":119906,"Delta":50442414},{"NoteNumber":62,"Velocity":31,"Duration":120423,"SoundDuration":120423,"Delta":50562320},{"NoteNumber":74,"Velocity":36,"Duration":120960,"SoundDuration":120960,"Delta":50682744},{"NoteNumber":71,"Velocity":49,"Duration":481794,"SoundDuration":481794,"Delta":50803705},{"NoteNumber":38,"Velocity":41,"Duration":242993,"SoundDuration":242993,"Delta":50803705},{"NoteNumber":74,"Velocity":37,"Duration":121496,"SoundDuration":121496,"Delta":50925202},{"NoteNumber":62,"Velocity":33,"Duration":120448,"SoundDuration":120448,"Delta":51046698},{"NoteNumber":74,"Velocity":38,"Duration":118352,"SoundDuration":118352,"Delta":51167147},{"NoteNumber":69,"Velocity":53,"Duration":470694,"SoundDuration":470694,"Delta":51285500},{"NoteNumber":54,"Velocity":38,"Duration":470694,"SoundDuration":470694,"Delta":51285500},{"NoteNumber":74,"Velocity":39,"Duration":117673,"SoundDuration":117673,"Delta":51403852},{"NoteNumber":62,"Velocity":36,"Duration":117334,"SoundDuration":117334,"Delta":51521526},{"NoteNumber":74,"Velocity":41,"Duration":117334,"SoundDuration":117334,"Delta":51638860},{"NoteNumber":67,"Velocity":55,"Duration":470729,"SoundDuration":470729,"Delta":51756194},{"NoteNumber":52,"Velocity":41,"Duration":470729,"SoundDuration":470729,"Delta":51756194},{"NoteNumber":74,"Velocity":42,"Duration":117000,"SoundDuration":117000,"Delta":51872527},{"NoteNumber":62,"Velocity":38,"Duration":118352,"SoundDuration":118352,"Delta":51989528},{"NoteNumber":74,"Velocity":45,"Duration":119043,"SoundDuration":119043,"Delta":52107880},{"NoteNumber":69,"Velocity":57,"Duration":484631,"SoundDuration":484631,"Delta":52226923},{"NoteNumber":54,"Velocity":44,"Duration":484631,"SoundDuration":484631,"Delta":52226923},{"NoteNumber":74,"Velocity":47,"Duration":121139,"SoundDuration":121139,"Delta":52347347},{"NoteNumber":62,"Velocity":42,"Duration":122939,"SoundDuration":122939,"Delta":52468487},{"NoteNumber":74,"Velocity":50,"Duration":120128,"SoundDuration":120128,"Delta":52591426},{"NoteNumber":71,"Velocity":66,"Duration":245138,"SoundDuration":245138,"Delta":52711555},{"NoteNumber":43,"Velocity":41,"Duration":245138,"SoundDuration":245138,"Delta":52711555},{"NoteNumber":74,"Velocity":52,"Duration":122569,"SoundDuration":122569,"Delta":52834124},{"NoteNumber":62,"Velocity":58,"Duration":245137,"SoundDuration":245137,"Delta":52956693},{"NoteNumber":74,"Velocity":49,"Duration":122568,"SoundDuration":122568,"Delta":53079262},{"NoteNumber":63,"Velocity":57,"Duration":243708,"SoundDuration":243708,"Delta":53201831},{"NoteNumber":50,"Velocity":36,"Duration":486702,"SoundDuration":486702,"Delta":53201831},{"NoteNumber":74,"Velocity":47,"Duration":121496,"SoundDuration":121496,"Delta":53324042},{"NoteNumber":64,"Velocity":57,"Duration":242993,"SoundDuration":242993,"Delta":53445539},{"NoteNumber":74,"Velocity":47,"Duration":121496,"SoundDuration":121496,"Delta":53567036},{"NoteNumber":65,"Velocity":56,"Duration":238777,"SoundDuration":238777,"Delta":53688533},{"NoteNumber":55,"Velocity":39,"Duration":479625,"SoundDuration":479625,"Delta":53688533},{"NoteNumber":59,"Velocity":39,"Duration":479625,"SoundDuration":479625,"Delta":53688533},{"NoteNumber":74,"Velocity":47,"Duration":119388,"SoundDuration":119388,"Delta":53807922},{"NoteNumber":66,"Velocity":55,"Duration":240847,"SoundDuration":240847,"Delta":53927310},{"NoteNumber":74,"Velocity":47,"Duration":120423,"SoundDuration":120423,"Delta":54047734},{"NoteNumber":67,"Velocity":53,"Duration":242993,"SoundDuration":242993,"Delta":54168158},{"NoteNumber":50,"Velocity":37,"Duration":488131,"SoundDuration":488131,"Delta":54168158},{"NoteNumber":74,"Velocity":45,"Duration":121496,"SoundDuration":121496,"Delta":54289655},{"NoteNumber":69,"Velocity":53,"Duration":245137,"SoundDuration":245137,"Delta":54411152},{"NoteNumber":74,"Velocity":42,"Duration":122568,"SoundDuration":122568,"Delta":54533721},{"NoteNumber":71,"Velocity":53,"Duration":483866,"SoundDuration":483866,"Delta":54656290},{"NoteNumber":43,"Velocity":51,"Duration":243708,"SoundDuration":243708,"Delta":54656290},{"NoteNumber":74,"Velocity":39,"Duration":121496,"SoundDuration":121496,"Delta":54778502},{"NoteNumber":76,"Velocity":46,"Duration":120423,"SoundDuration":120423,"Delta":54899998},{"NoteNumber":74,"Velocity":38,"Duration":119733,"SoundDuration":119733,"Delta":55020422},{"NoteNumber":71,"Velocity":55,"Duration":468048,"SoundDuration":468048,"Delta":55140156},{"NoteNumber":55,"Velocity":49,"Duration":1385240,"SoundDuration":1385240,"Delta":55140156},{"NoteNumber":67,"Velocity":49,"Duration":468048,"SoundDuration":468048,"Delta":55140156},{"NoteNumber":74,"Velocity":40,"Duration":117673,"SoundDuration":117673,"Delta":55258509},{"NoteNumber":76,"Velocity":48,"Duration":116333,"SoundDuration":116333,"Delta":55376182},{"NoteNumber":74,"Velocity":39,"Duration":115688,"SoundDuration":115688,"Delta":55492515},{"NoteNumber":69,"Velocity":60,"Duration":455726,"SoundDuration":455726,"Delta":55608204},{"NoteNumber":66,"Velocity":52,"Duration":455726,"SoundDuration":455726,"Delta":55608204},{"NoteNumber":74,"Velocity":46,"Duration":113776,"SoundDuration":113776,"Delta":55722603},{"NoteNumber":76,"Velocity":53,"Duration":113464,"SoundDuration":113464,"Delta":55836379},{"NoteNumber":74,"Velocity":47,"Duration":114087,"SoundDuration":114087,"Delta":55949844},{"NoteNumber":71,"Velocity":63,"Duration":461465,"SoundDuration":461465,"Delta":56063931},{"NoteNumber":65,"Velocity":56,"Duration":461465,"SoundDuration":461465,"Delta":56063931},{"NoteNumber":79,"Velocity":50,"Duration":115044,"SoundDuration":115044,"Delta":56178330},{"NoteNumber":81,"Velocity":59,"Duration":115688,"SoundDuration":115688,"Delta":56293375},{"NoteNumber":79,"Velocity":52,"Duration":116333,"SoundDuration":116333,"Delta":56409064},{"NoteNumber":74,"Velocity":69,"Duration":473410,"SoundDuration":473410,"Delta":56525397},{"NoteNumber":55,"Velocity":49,"Duration":1915146,"SoundDuration":1915146,"Delta":56525397},{"NoteNumber":64,"Velocity":56,"Duration":473410,"SoundDuration":473410,"Delta":56525397},{"NoteNumber":79,"Velocity":52,"Duration":118352,"SoundDuration":118352,"Delta":56643749},{"NoteNumber":81,"Velocity":58,"Duration":118352,"SoundDuration":118352,"Delta":56762102},{"NoteNumber":79,"Velocity":51,"Duration":118352,"SoundDuration":118352,"Delta":56880454},{"NoteNumber":72,"Velocity":62,"Duration":476864,"SoundDuration":476864,"Delta":56998807},{"NoteNumber":63,"Velocity":49,"Duration":476864,"SoundDuration":476864,"Delta":56998807},{"NoteNumber":79,"Velocity":48,"Duration":119388,"SoundDuration":119388,"Delta":57117505},{"NoteNumber":81,"Velocity":52,"Duration":119388,"SoundDuration":119388,"Delta":57236893},{"NoteNumber":79,"Velocity":46,"Duration":119388,"SoundDuration":119388,"Delta":57356282},{"NoteNumber":71,"Velocity":61,"Duration":480315,"SoundDuration":480315,"Delta":57475671},{"NoteNumber":62,"Velocity":48,"Duration":480315,"SoundDuration":480315,"Delta":57475671},{"NoteNumber":79,"Velocity":49,"Duration":120078,"SoundDuration":120078,"Delta":57595060},{"NoteNumber":81,"Velocity":53,"Duration":120423,"SoundDuration":120423,"Delta":57715138},{"NoteNumber":79,"Velocity":48,"Duration":120423,"SoundDuration":120423,"Delta":57835562},{"NoteNumber":70,"Velocity":60,"Duration":484556,"SoundDuration":484556,"Delta":57955986},{"NoteNumber":61,"Velocity":48,"Duration":484556,"SoundDuration":484556,"Delta":57955986},{"NoteNumber":79,"Velocity":49,"Duration":121139,"SoundDuration":121139,"Delta":58076410},{"NoteNumber":78,"Velocity":51,"Duration":121496,"SoundDuration":121496,"Delta":58197549},{"NoteNumber":76,"Velocity":49,"Duration":121496,"SoundDuration":121496,"Delta":58319046},{"NoteNumber":71,"Velocity":51,"Duration":485272,"SoundDuration":485272,"Delta":58440543},{"NoteNumber":50,"Velocity":49,"Duration":1461406,"SoundDuration":1461406,"Delta":58440543},{"NoteNumber":62,"Velocity":49,"Duration":485272,"SoundDuration":485272,"Delta":58440543},{"NoteNumber":74,"Velocity":40,"Duration":121496,"SoundDuration":121496,"Delta":58562040},{"NoteNumber":76,"Velocity":44,"Duration":121496,"SoundDuration":121496,"Delta":58683537},{"NoteNumber":74,"Velocity":38,"Duration":120781,"SoundDuration":120781,"Delta":58805034},{"NoteNumber":67,"Velocity":47,"Duration":492872,"SoundDuration":492872,"Delta":58925815},{"NoteNumber":59,"Velocity":38,"Duration":492872,"SoundDuration":492872,"Delta":58925815},{"NoteNumber":74,"Velocity":37,"Duration":121496,"SoundDuration":121496,"Delta":59046597},{"NoteNumber":76,"Velocity":41,"Duration":122568,"SoundDuration":122568,"Delta":59168094},{"NoteNumber":74,"Velocity":34,"Duration":128025,"SoundDuration":128025,"Delta":59290663},{"NoteNumber":66,"Velocity":50,"Duration":245164,"SoundDuration":245164,"Delta":59418688},{"NoteNumber":57,"Velocity":42,"Duration":245164,"SoundDuration":245164,"Delta":59418688},{"NoteNumber":74,"Velocity":44,"Duration":121854,"SoundDuration":121854,"Delta":59541998},{"NoteNumber":69,"Velocity":48,"Duration":238097,"SoundDuration":238097,"Delta":59663852},{"NoteNumber":60,"Velocity":39,"Duration":238097,"SoundDuration":238097,"Delta":59663852},{"NoteNumber":74,"Velocity":41,"Duration":118018,"SoundDuration":118018,"Delta":59783931},{"NoteNumber":72,"Velocity":51,"Duration":240884,"SoundDuration":240884,"Delta":59901950},{"NoteNumber":64,"Velocity":42,"Duration":240884,"SoundDuration":240884,"Delta":59901950},{"NoteNumber":74,"Velocity":40,"Duration":121496,"SoundDuration":121496,"Delta":60021338},{"NoteNumber":71,"Velocity":50,"Duration":251177,"SoundDuration":251177,"Delta":60142835},{"NoteNumber":62,"Velocity":42,"Duration":251177,"SoundDuration":251177,"Delta":60142835},{"NoteNumber":74,"Velocity":39,"Duration":127126,"SoundDuration":127126,"Delta":60266886},{"NoteNumber":69,"Velocity":49,"Duration":1072375,"SoundDuration":1072375,"Delta":60394012},{"NoteNumber":60,"Velocity":40,"Duration":1072375,"SoundDuration":1072375,"Delta":60394012},{"NoteNumber":55,"Velocity":40,"Duration":1346053,"SoundDuration":1346053,"Delta":60394012},{"NoteNumber":74,"Velocity":39,"Duration":134577,"SoundDuration":134577,"Delta":60528589},{"NoteNumber":73,"Velocity":42,"Duration":127517,"SoundDuration":127517,"Delta":60663167},{"NoteNumber":74,"Velocity":37,"Duration":129925,"SoundDuration":129925,"Delta":60790684},{"NoteNumber":76,"Velocity":42,"Duration":132425,"SoundDuration":132425,"Delta":60920609},{"NoteNumber":74,"Velocity":36,"Duration":135032,"SoundDuration":135032,"Delta":61053035},{"NoteNumber":73,"Velocity":41,"Duration":137752,"SoundDuration":137752,"Delta":61188068},{"NoteNumber":74,"Velocity":36,"Duration":140566,"SoundDuration":140566,"Delta":61325821},{"NoteNumber":67,"Velocity":52,"Duration":273678,"SoundDuration":273678,"Delta":61466387},{"NoteNumber":79,"Velocity":52,"Duration":273678,"SoundDuration":273678,"Delta":61466387},{"NoteNumber":59,"Velocity":36,"Duration":273678,"SoundDuration":273678,"Delta":61466387},{"NoteNumber":66,"Velocity":45,"Duration":130339,"SoundDuration":130339,"Delta":61740066},{"NoteNumber":67,"Velocity":49,"Duration":128713,"SoundDuration":128713,"Delta":61870405},{"NoteNumber":69,"Velocity":53,"Duration":126335,"SoundDuration":126335,"Delta":61999119},{"NoteNumber":67,"Velocity":49,"Duration":126727,"SoundDuration":126727,"Delta":62125455},{"NoteNumber":66,"Velocity":56,"Duration":128713,"SoundDuration":128713,"Delta":62252182},{"NoteNumber":67,"Velocity":50,"Duration":130339,"SoundDuration":130339,"Delta":62380896},{"NoteNumber":79,"Velocity":75,"Duration":499758,"SoundDuration":499758,"Delta":62511235},{"NoteNumber":48,"Velocity":57,"Duration":499758,"SoundDuration":499758,"Delta":62511235},{"NoteNumber":36,"Velocity":57,"Duration":499758,"SoundDuration":499758,"Delta":62511235},{"NoteNumber":67,"Velocity":51,"Duration":125297,"SoundDuration":125297,"Delta":62641988},{"NoteNumber":72,"Velocity":57,"Duration":122211,"SoundDuration":122211,"Delta":62767285},{"NoteNumber":67,"Velocity":51,"Duration":121496,"SoundDuration":121496,"Delta":62889497},{"NoteNumber":76,"Velocity":68,"Duration":477553,"SoundDuration":477553,"Delta":63010993},{"NoteNumber":60,"Velocity":51,"Duration":477553,"SoundDuration":477553,"Delta":63010993},{"NoteNumber":67,"Velocity":51,"Duration":119733,"SoundDuration":119733,"Delta":63131417},{"NoteNumber":72,"Velocity":55,"Duration":119043,"SoundDuration":119043,"Delta":63251151},{"NoteNumber":67,"Velocity":50,"Duration":118352,"SoundDuration":118352,"Delta":63370194},{"NoteNumber":79,"Velocity":73,"Duration":472075,"SoundDuration":472075,"Delta":63488547},{"NoteNumber":64,"Velocity":56,"Duration":472075,"SoundDuration":472075,"Delta":63488547},{"NoteNumber":67,"Velocity":51,"Duration":117334,"SoundDuration":117334,"Delta":63605881},{"NoteNumber":72,"Velocity":57,"Duration":118018,"SoundDuration":118018,"Delta":63723215},{"NoteNumber":67,"Velocity":52,"Duration":119388,"SoundDuration":119388,"Delta":63841234},{"NoteNumber":76,"Velocity":67,"Duration":481388,"SoundDuration":481388,"Delta":63960623},{"NoteNumber":60,"Velocity":50,"Duration":481388,"SoundDuration":481388,"Delta":63960623},{"NoteNumber":67,"Velocity":50,"Duration":120078,"SoundDuration":120078,"Delta":64080012},{"NoteNumber":72,"Velocity":53,"Duration":120423,"SoundDuration":120423,"Delta":64200090},{"NoteNumber":67,"Velocity":50,"Duration":121496,"SoundDuration":121496,"Delta":64320514},{"NoteNumber":76,"Velocity":70,"Duration":488131,"SoundDuration":488131,"Delta":64442011},{"NoteNumber":55,"Velocity":51,"Duration":1444965,"SoundDuration":1444965,"Delta":64442011},{"NoteNumber":60,"Velocity":51,"Duration":488131,"SoundDuration":488131,"Delta":64442011},{"NoteNumber":67,"Velocity":51,"Duration":122568,"SoundDuration":122568,"Delta":64564580},{"NoteNumber":66,"Velocity":56,"Duration":121496,"SoundDuration":121496,"Delta":64687149},{"NoteNumber":67,"Velocity":51,"Duration":121496,"SoundDuration":121496,"Delta":64808646},{"NoteNumber":74,"Velocity":68,"Duration":479279,"SoundDuration":479279,"Delta":64930143},{"NoteNumber":59,"Velocity":45,"Duration":479279,"SoundDuration":479279,"Delta":64930143},{"NoteNumber":62,"Velocity":45,"Duration":120423,"SoundDuration":120423,"Delta":65050567},{"NoteNumber":67,"Velocity":48,"Duration":119388,"SoundDuration":119388,"Delta":65170990},{"NoteNumber":62,"Velocity":45,"Duration":119043,"SoundDuration":119043,"Delta":65290379},{"NoteNumber":72,"Velocity":67,"Duration":477553,"SoundDuration":477553,"Delta":65409423},{"NoteNumber":57,"Velocity":52,"Duration":477553,"SoundDuration":477553,"Delta":65409423},{"NoteNumber":62,"Velocity":40,"Duration":119043,"SoundDuration":119043,"Delta":65527775},{"NoteNumber":66,"Velocity":48,"Duration":119733,"SoundDuration":119733,"Delta":65646818},{"NoteNumber":62,"Velocity":40,"Duration":120423,"SoundDuration":120423,"Delta":65766552},{"NoteNumber":71,"Velocity":66,"Duration":503426,"SoundDuration":503426,"Delta":65886976},{"NoteNumber":55,"Velocity":44,"Duration":503426,"SoundDuration":503426,"Delta":65886976},{"NoteNumber":62,"Velocity":39,"Duration":122508,"SoundDuration":122508,"Delta":66008473},{"NoteNumber":67,"Velocity":45,"Duration":126976,"SoundDuration":126976,"Delta":66130981},{"NoteNumber":62,"Velocity":39,"Duration":132445,"SoundDuration":132445,"Delta":66257958},{"NoteNumber":71,"Velocity":64,"Duration":499593,"SoundDuration":499593,"Delta":66390403},{"NoteNumber":56,"Velocity":46,"Duration":499593,"SoundDuration":499593,"Delta":66390403},{"NoteNumber":50,"Velocity":46,"Duration":1984068,"SoundDuration":1984068,"Delta":66390403},{"NoteNumber":62,"Velocity":40,"Duration":125560,"SoundDuration":125560,"Delta":66515963},{"NoteNumber":65,"Velocity":45,"Duration":124792,"SoundDuration":124792,"Delta":66641524},{"NoteNumber":62,"Velocity":40,"Duration":123680,"SoundDuration":123680,"Delta":66766316},{"NoteNumber":72,"Velocity":66,"Duration":485641,"SoundDuration":485641,"Delta":66889997},{"NoteNumber":57,"Velocity":38,"Duration":485641,"SoundDuration":485641,"Delta":66889997},{"NoteNumber":62,"Velocity":41,"Duration":121854,"SoundDuration":121854,"Delta":67012566},{"NoteNumber":66,"Velocity":45,"Duration":121139,"SoundDuration":121139,"Delta":67134420},{"NoteNumber":62,"Velocity":39,"Duration":120078,"SoundDuration":120078,"Delta":67255559},{"NoteNumber":76,"Velocity":67,"Duration":487493,"SoundDuration":487493,"Delta":67375638},{"NoteNumber":60,"Velocity":46,"Duration":487493,"SoundDuration":487493,"Delta":67375638},{"NoteNumber":62,"Velocity":44,"Duration":121139,"SoundDuration":121139,"Delta":67495372},{"NoteNumber":66,"Velocity":48,"Duration":122568,"SoundDuration":122568,"Delta":67616511},{"NoteNumber":62,"Velocity":42,"Duration":124051,"SoundDuration":124051,"Delta":67739080},{"NoteNumber":72,"Velocity":62,"Duration":511340,"SoundDuration":511340,"Delta":67863131},{"NoteNumber":57,"Velocity":39,"Duration":511340,"SoundDuration":511340,"Delta":67863131},{"NoteNumber":62,"Velocity":39,"Duration":126727,"SoundDuration":126727,"Delta":67988691},{"NoteNumber":66,"Velocity":45,"Duration":128713,"SoundDuration":128713,"Delta":68115419},{"NoteNumber":62,"Velocity":39,"Duration":130339,"SoundDuration":130339,"Delta":68244132},{"NoteNumber":71,"Velocity":57,"Duration":523012,"SoundDuration":523012,"Delta":68374471},{"NoteNumber":55,"Velocity":41,"Duration":523012,"SoundDuration":523012,"Delta":68374471},{"NoteNumber":43,"Velocity":41,"Duration":523012,"SoundDuration":523012,"Delta":68374471},{"NoteNumber":62,"Velocity":39,"Duration":130753,"SoundDuration":130753,"Delta":68505225},{"NoteNumber":67,"Velocity":45,"Duration":130753,"SoundDuration":130753,"Delta":68635978},{"NoteNumber":62,"Velocity":39,"Duration":130753,"SoundDuration":130753,"Delta":68766731},{"NoteNumber":59,"Velocity":53,"Duration":507735,"SoundDuration":507735,"Delta":68897484},{"NoteNumber":55,"Velocity":53,"Duration":507735,"SoundDuration":507735,"Delta":68897484},{"NoteNumber":67,"Velocity":42,"Duration":127517,"SoundDuration":127517,"Delta":69025799},{"NoteNumber":66,"Velocity":47,"Duration":126727,"SoundDuration":126727,"Delta":69153316},{"NoteNumber":67,"Velocity":41,"Duration":125176,"SoundDuration":125176,"Delta":69280043},{"NoteNumber":79,"Velocity":70,"Duration":124421,"SoundDuration":124421,"Delta":69405220},{"NoteNumber":57,"Velocity":59,"Duration":495463,"SoundDuration":495463,"Delta":69405220},{"NoteNumber":60,"Velocity":59,"Duration":495463,"SoundDuration":495463,"Delta":69405220},{"NoteNumber":67,"Velocity":47,"Duration":122939,"SoundDuration":122939,"Delta":69529641},{"NoteNumber":66,"Velocity":53,"Duration":123680,"SoundDuration":123680,"Delta":69652581},{"NoteNumber":67,"Velocity":50,"Duration":124421,"SoundDuration":124421,"Delta":69776261},{"NoteNumber":79,"Velocity":75,"Duration":124791,"SoundDuration":124791,"Delta":69900683},{"NoteNumber":62,"Velocity":63,"Duration":514248,"SoundDuration":514248,"Delta":69900683},{"NoteNumber":59,"Velocity":63,"Duration":514248,"SoundDuration":514248,"Delta":69900683},{"NoteNumber":67,"Velocity":55,"Duration":125944,"SoundDuration":125944,"Delta":70025475},{"NoteNumber":66,"Velocity":59,"Duration":128165,"SoundDuration":128165,"Delta":70151420},{"NoteNumber":67,"Velocity":53,"Duration":135346,"SoundDuration":135346,"Delta":70279586},{"NoteNumber":79,"Velocity":81,"Duration":490328,"SoundDuration":490328,"Delta":70414932},{"NoteNumber":51,"Velocity":78,"Duration":246620,"SoundDuration":246620,"Delta":70414932},{"NoteNumber":39,"Velocity":78,"Duration":246620,"SoundDuration":246620,"Delta":70414932},{"NoteNumber":67,"Velocity":56,"Duration":122939,"SoundDuration":122939,"Delta":70538613},{"NoteNumber":70,"Velocity":60,"Duration":122211,"SoundDuration":122211,"Delta":70661552},{"NoteNumber":67,"Velocity":55,"Duration":121496,"SoundDuration":121496,"Delta":70783764},{"NoteNumber":75,"Velocity":82,"Duration":477553,"SoundDuration":477553,"Delta":70905261},{"NoteNumber":58,"Velocity":72,"Duration":1431017,"SoundDuration":1431017,"Delta":70905261},{"NoteNumber":63,"Velocity":72,"Duration":477553,"SoundDuration":477553,"Delta":70905261},{"NoteNumber":67,"Velocity":59,"Duration":119733,"SoundDuration":119733,"Delta":71025685},{"NoteNumber":70,"Velocity":63,"Duration":119043,"SoundDuration":119043,"Delta":71145418},{"NoteNumber":67,"Velocity":58,"Duration":118352,"SoundDuration":118352,"Delta":71264462},{"NoteNumber":74,"Velocity":80,"Duration":472075,"SoundDuration":472075,"Delta":71382814},{"NoteNumber":62,"Velocity":74,"Duration":472075,"SoundDuration":472075,"Delta":71382814},{"NoteNumber":67,"Velocity":58,"Duration":117334,"SoundDuration":117334,"Delta":71500148},{"NoteNumber":70,"Velocity":61,"Duration":118018,"SoundDuration":118018,"Delta":71617482},{"NoteNumber":67,"Velocity":56,"Duration":119388,"SoundDuration":119388,"Delta":71735501},{"NoteNumber":73,"Velocity":80,"Duration":481388,"SoundDuration":481388,"Delta":71854890},{"NoteNumber":61,"Velocity":69,"Duration":481388,"SoundDuration":481388,"Delta":71854890},{"NoteNumber":67,"Velocity":56,"Duration":120078,"SoundDuration":120078,"Delta":71974279},{"NoteNumber":70,"Velocity":59,"Duration":120423,"SoundDuration":120423,"Delta":72094358},{"NoteNumber":67,"Velocity":55,"Duration":121496,"SoundDuration":121496,"Delta":72214782},{"NoteNumber":76,"Velocity":79,"Duration":490328,"SoundDuration":490328,"Delta":72336278},{"NoteNumber":38,"Velocity":69,"Duration":246620,"SoundDuration":246620,"Delta":72336278},{"NoteNumber":50,"Velocity":69,"Duration":246620,"SoundDuration":246620,"Delta":72336278},{"NoteNumber":67,"Velocity":56,"Duration":122939,"SoundDuration":122939,"Delta":72459959},{"NoteNumber":71,"Velocity":60,"Duration":122211,"SoundDuration":122211,"Delta":72582899},{"NoteNumber":67,"Velocity":55,"Duration":121496,"SoundDuration":121496,"Delta":72705110},{"NoteNumber":74,"Velocity":78,"Duration":477553,"SoundDuration":477553,"Delta":72826607},{"NoteNumber":59,"Velocity":59,"Duration":477553,"SoundDuration":477553,"Delta":72826607},{"NoteNumber":50,"Velocity":59,"Duration":1431017,"SoundDuration":1431017,"Delta":72826607},{"NoteNumber":62,"Velocity":56,"Duration":119733,"SoundDuration":119733,"Delta":72947031},{"NoteNumber":67,"Velocity":60,"Duration":119043,"SoundDuration":119043,"Delta":73066765},{"NoteNumber":62,"Velocity":58,"Duration":118352,"SoundDuration":118352,"Delta":73185808},{"NoteNumber":72,"Velocity":75,"Duration":472075,"SoundDuration":472075,"Delta":73304161},{"NoteNumber":57,"Velocity":62,"Duration":472075,"SoundDuration":472075,"Delta":73304161},{"NoteNumber":62,"Velocity":53,"Duration":117334,"SoundDuration":117334,"Delta":73421495},{"NoteNumber":66,"Velocity":58,"Duration":118018,"SoundDuration":118018,"Delta":73538829},{"NoteNumber":62,"Velocity":53,"Duration":119388,"SoundDuration":119388,"Delta":73656848},{"NoteNumber":71,"Velocity":73,"Duration":481388,"SoundDuration":481388,"Delta":73776237},{"NoteNumber":55,"Velocity":53,"Duration":481388,"SoundDuration":481388,"Delta":73776237},{"NoteNumber":62,"Velocity":56,"Duration":120078,"SoundDuration":120078,"Delta":73895625},{"NoteNumber":67,"Velocity":59,"Duration":120423,"SoundDuration":120423,"Delta":74015704},{"NoteNumber":62,"Velocity":55,"Duration":121496,"SoundDuration":121496,"Delta":74136128},{"NoteNumber":71,"Velocity":72,"Duration":490328,"SoundDuration":490328,"Delta":74257625},{"NoteNumber":50,"Velocity":59,"Duration":967882,"SoundDuration":967882,"Delta":74257625},{"NoteNumber":52,"Velocity":59,"Duration":490328,"SoundDuration":490328,"Delta":74257625},{"NoteNumber":61,"Velocity":47,"Duration":122939,"SoundDuration":122939,"Delta":74381305},{"NoteNumber":67,"Velocity":51,"Duration":122211,"SoundDuration":122211,"Delta":74504245},{"NoteNumber":61,"Velocity":46,"Duration":121496,"SoundDuration":121496,"Delta":74626457},{"NoteNumber":69,"Velocity":59,"Duration":477553,"SoundDuration":477553,"Delta":74747953},{"NoteNumber":57,"Velocity":50,"Duration":477553,"SoundDuration":477553,"Delta":74747953},{"NoteNumber":61,"Velocity":42,"Duration":119733,"SoundDuration":119733,"Delta":74868377},{"NoteNumber":67,"Velocity":49,"Duration":119043,"SoundDuration":119043,"Delta":74988111},{"NoteNumber":61,"Velocity":41,"Duration":118352,"SoundDuration":118352,"Delta":75107154},{"NoteNumber":71,"Velocity":64,"Duration":472075,"SoundDuration":472075,"Delta":75225507},{"NoteNumber":38,"Velocity":55,"Duration":472075,"SoundDuration":472075,"Delta":75225507},{"NoteNumber":60,"Velocity":41,"Duration":117334,"SoundDuration":117334,"Delta":75342841},{"NoteNumber":66,"Velocity":47,"Duration":118018,"SoundDuration":118018,"Delta":75460175},{"NoteNumber":60,"Velocity":40,"Duration":119388,"SoundDuration":119388,"Delta":75578194},{"NoteNumber":69,"Velocity":61,"Duration":481388,"SoundDuration":481388,"Delta":75697583},{"NoteNumber":50,"Velocity":47,"Duration":481388,"SoundDuration":481388,"Delta":75697583},{"NoteNumber":60,"Velocity":40,"Duration":120078,"SoundDuration":120078,"Delta":75816972},{"NoteNumber":66,"Velocity":47,"Duration":120423,"SoundDuration":120423,"Delta":75937050},{"NoteNumber":60,"Velocity":40,"Duration":121496,"SoundDuration":121496,"Delta":76057474},{"NoteNumber":71,"Velocity":61,"Duration":490275,"SoundDuration":490275,"Delta":76178971},{"NoteNumber":43,"Velocity":50,"Duration":2007577,"SoundDuration":2007577,"Delta":76178971},{"NoteNumber":59,"Velocity":36,"Duration":122568,"SoundDuration":122568,"Delta":76301540},{"NoteNumber":62,"Velocity":40,"Duration":122568,"SoundDuration":122568,"Delta":76424109},{"NoteNumber":69,"Velocity":36,"Duration":122568,"SoundDuration":122568,"Delta":76546678},{"NoteNumber":67,"Velocity":53,"Duration":122939,"SoundDuration":122939,"Delta":76669247},{"NoteNumber":50,"Velocity":35,"Duration":1517301,"SoundDuration":1517301,"Delta":76669247},{"NoteNumber":59,"Velocity":35,"Duration":123680,"SoundDuration":123680,"Delta":76792187},{"NoteNumber":62,"Velocity":39,"Duration":123680,"SoundDuration":123680,"Delta":76915867},{"NoteNumber":69,"Velocity":35,"Duration":123680,"SoundDuration":123680,"Delta":77039548},{"NoteNumber":67,"Velocity":50,"Duration":123680,"SoundDuration":123680,"Delta":77163229},{"NoteNumber":59,"Velocity":31,"Duration":124421,"SoundDuration":124421,"Delta":77286910},{"NoteNumber":62,"Velocity":36,"Duration":126335,"SoundDuration":126335,"Delta":77411331},{"NoteNumber":69,"Velocity":30,"Duration":127916,"SoundDuration":127916,"Delta":77537667},{"NoteNumber":67,"Velocity":48,"Duration":129925,"SoundDuration":129925,"Delta":77665583},{"NoteNumber":62,"Velocity":34,"Duration":130753,"SoundDuration":130753,"Delta":77795508},{"NoteNumber":67,"Velocity":36,"Duration":130753,"SoundDuration":130753,"Delta":77926261},{"NoteNumber":69,"Velocity":33,"Duration":129533,"SoundDuration":129533,"Delta":78057015},{"NoteNumber":71,"Velocity":49,"Duration":508899,"SoundDuration":508899,"Delta":78186549},{"NoteNumber":43,"Velocity":39,"Duration":256031,"SoundDuration":256031,"Delta":78186549},{"NoteNumber":74,"Velocity":37,"Duration":127716,"SoundDuration":127716,"Delta":78314863},{"NoteNumber":62,"Velocity":31,"Duration":126922,"SoundDuration":126922,"Delta":78442580},{"NoteNumber":74,"Velocity":38,"Duration":125944,"SoundDuration":125944,"Delta":78569503},{"NoteNumber":71,"Velocity":44,"Duration":497535,"SoundDuration":497535,"Delta":78695448},{"NoteNumber":50,"Velocity":36,"Duration":497535,"SoundDuration":497535,"Delta":78695448},{"NoteNumber":74,"Velocity":37,"Duration":124791,"SoundDuration":124791,"Delta":78821200},{"NoteNumber":62,"Velocity":31,"Duration":123865,"SoundDuration":123865,"Delta":78945992},{"NoteNumber":74,"Velocity":37,"Duration":123124,"SoundDuration":123124,"Delta":79069858},{"NoteNumber":69,"Velocity":44,"Duration":490831,"SoundDuration":490831,"Delta":79192983},{"NoteNumber":60,"Velocity":37,"Duration":490831,"SoundDuration":490831,"Delta":79192983},{"NoteNumber":74,"Velocity":36,"Duration":122568,"SoundDuration":122568,"Delta":79315552},{"NoteNumber":62,"Velocity":30,"Duration":122568,"SoundDuration":122568,"Delta":79438121},{"NoteNumber":74,"Velocity":36,"Duration":123124,"SoundDuration":123124,"Delta":79560690},{"NoteNumber":67,"Velocity":44,"Duration":495278,"SoundDuration":495278,"Delta":79683815},{"NoteNumber":59,"Velocity":34,"Duration":495278,"SoundDuration":495278,"Delta":79683815},{"NoteNumber":74,"Velocity":37,"Duration":123680,"SoundDuration":123680,"Delta":79807496},{"NoteNumber":62,"Velocity":33,"Duration":123680,"SoundDuration":123680,"Delta":79931176},{"NoteNumber":74,"Velocity":37,"Duration":124236,"SoundDuration":124236,"Delta":80054857},{"NoteNumber":66,"Velocity":48,"Duration":493074,"SoundDuration":493074,"Delta":80179093},{"NoteNumber":43,"Velocity":38,"Duration":248287,"SoundDuration":248287,"Delta":80179093},{"NoteNumber":74,"Velocity":37,"Duration":123680,"SoundDuration":123680,"Delta":80303700},{"NoteNumber":62,"Velocity":33,"Duration":122754,"SoundDuration":122754,"Delta":80427381},{"NoteNumber":74,"Velocity":37,"Duration":122032,"SoundDuration":122032,"Delta":80550135},{"NoteNumber":67,"Velocity":47,"Duration":478294,"SoundDuration":478294,"Delta":80672168},{"NoteNumber":50,"Velocity":39,"Duration":478294,"SoundDuration":478294,"Delta":80672168},{"NoteNumber":74,"Velocity":37,"Duration":120423,"SoundDuration":120423,"Delta":80793486},{"NoteNumber":62,"Velocity":30,"Duration":119218,"SoundDuration":119218,"Delta":80913910},{"NoteNumber":74,"Velocity":37,"Duration":117334,"SoundDuration":117334,"Delta":81033129},{"NoteNumber":72,"Velocity":51,"Duration":472400,"SoundDuration":472400,"Delta":81150463},{"NoteNumber":57,"Velocity":40,"Duration":472400,"SoundDuration":472400,"Delta":81150463},{"NoteNumber":74,"Velocity":38,"Duration":117843,"SoundDuration":117843,"Delta":81267797},{"NoteNumber":62,"Velocity":34,"Duration":118352,"SoundDuration":118352,"Delta":81385640},{"NoteNumber":74,"Velocity":38,"Duration":118870,"SoundDuration":118870,"Delta":81503993},{"NoteNumber":71,"Velocity":47,"Duration":480679,"SoundDuration":480679,"Delta":81622864},{"NoteNumber":55,"Velocity":36,"Duration":480679,"SoundDuration":480679,"Delta":81622864},{"NoteNumber":74,"Velocity":36,"Duration":119906,"SoundDuration":119906,"Delta":81742252},{"NoteNumber":62,"Velocity":31,"Duration":120423,"SoundDuration":120423,"Delta":81862159},{"NoteNumber":74,"Velocity":36,"Duration":120960,"SoundDuration":120960,"Delta":81982583},{"NoteNumber":71,"Velocity":49,"Duration":481795,"SoundDuration":481795,"Delta":82103543},{"NoteNumber":38,"Velocity":41,"Duration":242993,"SoundDuration":242993,"Delta":82103543},{"NoteNumber":74,"Velocity":37,"Duration":121496,"SoundDuration":121496,"Delta":82225040},{"NoteNumber":62,"Velocity":33,"Duration":120448,"SoundDuration":120448,"Delta":82346537},{"NoteNumber":74,"Velocity":38,"Duration":118352,"SoundDuration":118352,"Delta":82466985},{"NoteNumber":69,"Velocity":53,"Duration":470694,"SoundDuration":470694,"Delta":82585338},{"NoteNumber":54,"Velocity":38,"Duration":470694,"SoundDuration":470694,"Delta":82585338},{"NoteNumber":74,"Velocity":39,"Duration":117673,"SoundDuration":117673,"Delta":82703690},{"NoteNumber":62,"Velocity":36,"Duration":117334,"SoundDuration":117334,"Delta":82821364},{"NoteNumber":74,"Velocity":41,"Duration":117334,"SoundDuration":117334,"Delta":82938698},{"NoteNumber":67,"Velocity":55,"Duration":470729,"SoundDuration":470729,"Delta":83056032},{"NoteNumber":52,"Velocity":41,"Duration":470729,"SoundDuration":470729,"Delta":83056032},{"NoteNumber":74,"Velocity":42,"Duration":117000,"SoundDuration":117000,"Delta":83172365},{"NoteNumber":62,"Velocity":38,"Duration":118352,"SoundDuration":118352,"Delta":83289366},{"NoteNumber":74,"Velocity":45,"Duration":119043,"SoundDuration":119043,"Delta":83407718},{"NoteNumber":69,"Velocity":57,"Duration":484631,"SoundDuration":484631,"Delta":83526762},{"NoteNumber":54,"Velocity":44,"Duration":484631,"SoundDuration":484631,"Delta":83526762},{"NoteNumber":74,"Velocity":47,"Duration":121139,"SoundDuration":121139,"Delta":83647186},{"NoteNumber":62,"Velocity":42,"Duration":122939,"SoundDuration":122939,"Delta":83768325},{"NoteNumber":74,"Velocity":50,"Duration":120128,"SoundDuration":120128,"Delta":83891264},{"NoteNumber":71,"Velocity":66,"Duration":245137,"SoundDuration":245137,"Delta":84011393},{"NoteNumber":43,"Velocity":41,"Duration":245137,"SoundDuration":245137,"Delta":84011393},{"NoteNumber":74,"Velocity":52,"Duration":122568,"SoundDuration":122568,"Delta":84133962},{"NoteNumber":62,"Velocity":58,"Duration":245137,"SoundDuration":245137,"Delta":84256531},{"NoteNumber":74,"Velocity":49,"Duration":122568,"SoundDuration":122568,"Delta":84379100},{"NoteNumber":63,"Velocity":57,"Duration":243708,"SoundDuration":243708,"Delta":84501669},{"NoteNumber":50,"Velocity":36,"Duration":486702,"SoundDuration":486702,"Delta":84501669},{"NoteNumber":74,"Velocity":47,"Duration":121496,"SoundDuration":121496,"Delta":84623881},{"NoteNumber":64,"Velocity":57,"Duration":242993,"SoundDuration":242993,"Delta":84745377},{"NoteNumber":74,"Velocity":47,"Duration":121496,"SoundDuration":121496,"Delta":84866874},{"NoteNumber":65,"Velocity":56,"Duration":238777,"SoundDuration":238777,"Delta":84988371},{"NoteNumber":55,"Velocity":39,"Duration":479625,"SoundDuration":479625,"Delta":84988371},{"NoteNumber":59,"Velocity":39,"Duration":479625,"SoundDuration":479625,"Delta":84988371},{"NoteNumber":74,"Velocity":47,"Duration":119388,"SoundDuration":119388,"Delta":85107760},{"NoteNumber":66,"Velocity":55,"Duration":240847,"SoundDuration":240847,"Delta":85227149},{"NoteNumber":74,"Velocity":47,"Duration":120423,"SoundDuration":120423,"Delta":85347573},{"NoteNumber":67,"Velocity":53,"Duration":242993,"SoundDuration":242993,"Delta":85467996},{"NoteNumber":50,"Velocity":37,"Duration":488131,"SoundDuration":488131,"Delta":85467996},{"NoteNumber":74,"Velocity":45,"Duration":121496,"SoundDuration":121496,"Delta":85589493},{"NoteNumber":69,"Velocity":53,"Duration":245137,"SoundDuration":245137,"Delta":85710990},{"NoteNumber":74,"Velocity":42,"Duration":122568,"SoundDuration":122568,"Delta":85833559},{"NoteNumber":71,"Velocity":53,"Duration":483866,"SoundDuration":483866,"Delta":85956128},{"NoteNumber":43,"Velocity":51,"Duration":243708,"SoundDuration":243708,"Delta":85956128},{"NoteNumber":74,"Velocity":39,"Duration":121496,"SoundDuration":121496,"Delta":86078340},{"NoteNumber":76,"Velocity":46,"Duration":120423,"SoundDuration":120423,"Delta":86199837},{"NoteNumber":74,"Velocity":38,"Duration":119733,"SoundDuration":119733,"Delta":86320261},{"NoteNumber":71,"Velocity":55,"Duration":468048,"SoundDuration":468048,"Delta":86439994},{"NoteNumber":55,"Velocity":49,"Duration":1385240,"SoundDuration":1385240,"Delta":86439994},{"NoteNumber":67,"Velocity":49,"Duration":468048,"SoundDuration":468048,"Delta":86439994},{"NoteNumber":74,"Velocity":40,"Duration":117673,"SoundDuration":117673,"Delta":86558347},{"NoteNumber":76,"Velocity":48,"Duration":116333,"SoundDuration":116333,"Delta":86676020},{"NoteNumber":74,"Velocity":39,"Duration":115688,"SoundDuration":115688,"Delta":86792354},{"NoteNumber":69,"Velocity":60,"Duration":455727,"SoundDuration":455727,"Delta":86908042},{"NoteNumber":66,"Velocity":52,"Duration":455727,"SoundDuration":455727,"Delta":86908042},{"NoteNumber":74,"Velocity":46,"Duration":113776,"SoundDuration":113776,"Delta":87022441},{"NoteNumber":76,"Velocity":53,"Duration":113464,"SoundDuration":113464,"Delta":87136217},{"NoteNumber":74,"Velocity":47,"Duration":114087,"SoundDuration":114087,"Delta":87249682},{"NoteNumber":71,"Velocity":63,"Duration":461465,"SoundDuration":461465,"Delta":87363769},{"NoteNumber":65,"Velocity":56,"Duration":461465,"SoundDuration":461465,"Delta":87363769},{"NoteNumber":79,"Velocity":50,"Duration":115044,"SoundDuration":115044,"Delta":87478168},{"NoteNumber":81,"Velocity":59,"Duration":115688,"SoundDuration":115688,"Delta":87593213},{"NoteNumber":79,"Velocity":52,"Duration":116333,"SoundDuration":116333,"Delta":87708902},{"NoteNumber":74,"Velocity":69,"Duration":473410,"SoundDuration":473410,"Delta":87825235},{"NoteNumber":55,"Velocity":49,"Duration":1915146,"SoundDuration":1915146,"Delta":87825235},{"NoteNumber":64,"Velocity":56,"Duration":473410,"SoundDuration":473410,"Delta":87825235},{"NoteNumber":79,"Velocity":52,"Duration":118352,"SoundDuration":118352,"Delta":87943587},{"NoteNumber":81,"Velocity":58,"Duration":118352,"SoundDuration":118352,"Delta":88061940},{"NoteNumber":79,"Velocity":51,"Duration":118352,"SoundDuration":118352,"Delta":88180292},{"NoteNumber":72,"Velocity":62,"Duration":476864,"SoundDuration":476864,"Delta":88298645},{"NoteNumber":63,"Velocity":49,"Duration":476864,"SoundDuration":476864,"Delta":88298645},{"NoteNumber":79,"Velocity":48,"Duration":119388,"SoundDuration":119388,"Delta":88417343},{"NoteNumber":81,"Velocity":52,"Duration":119388,"SoundDuration":119388,"Delta":88536731},{"NoteNumber":79,"Velocity":46,"Duration":119388,"SoundDuration":119388,"Delta":88656120},{"NoteNumber":71,"Velocity":61,"Duration":480315,"SoundDuration":480315,"Delta":88775509},{"NoteNumber":62,"Velocity":48,"Duration":480315,"SoundDuration":480315,"Delta":88775509},{"NoteNumber":79,"Velocity":49,"Duration":120078,"SoundDuration":120078,"Delta":88894898},{"NoteNumber":81,"Velocity":53,"Duration":120423,"SoundDuration":120423,"Delta":89014977},{"NoteNumber":79,"Velocity":48,"Duration":120423,"SoundDuration":120423,"Delta":89135400},{"NoteNumber":70,"Velocity":60,"Duration":484556,"SoundDuration":484556,"Delta":89255824},{"NoteNumber":61,"Velocity":48,"Duration":484556,"SoundDuration":484556,"Delta":89255824},{"NoteNumber":79,"Velocity":49,"Duration":121139,"SoundDuration":121139,"Delta":89376248},{"NoteNumber":78,"Velocity":51,"Duration":121496,"SoundDuration":121496,"Delta":89497387},{"NoteNumber":76,"Velocity":49,"Duration":121496,"SoundDuration":121496,"Delta":89618884},{"NoteNumber":71,"Velocity":51,"Duration":528873,"SoundDuration":528873,"Delta":89740381},{"NoteNumber":62,"Velocity":49,"Duration":528873,"SoundDuration":528873,"Delta":89740381},{"NoteNumber":50,"Velocity":49,"Duration":1505008,"SoundDuration":1505008,"Delta":89740381},{"NoteNumber":74,"Velocity":40,"Duration":134577,"SoundDuration":134577,"Delta":89874959},{"NoteNumber":76,"Velocity":44,"Duration":134577,"SoundDuration":134577,"Delta":90009536},{"NoteNumber":74,"Velocity":38,"Duration":125141,"SoundDuration":125141,"Delta":90144113},{"NoteNumber":67,"Velocity":47,"Duration":492872,"SoundDuration":492872,"Delta":90269255},{"NoteNumber":59,"Velocity":38,"Duration":492872,"SoundDuration":492872,"Delta":90269255},{"NoteNumber":74,"Velocity":37,"Duration":121496,"SoundDuration":121496,"Delta":90390037},{"NoteNumber":76,"Velocity":41,"Duration":122568,"SoundDuration":122568,"Delta":90511533},{"NoteNumber":74,"Velocity":34,"Duration":128025,"SoundDuration":128025,"Delta":90634102},{"NoteNumber":66,"Velocity":50,"Duration":245164,"SoundDuration":245164,"Delta":90762127},{"NoteNumber":57,"Velocity":42,"Duration":245164,"SoundDuration":245164,"Delta":90762127},{"NoteNumber":74,"Velocity":44,"Duration":121854,"SoundDuration":121854,"Delta":90885438},{"NoteNumber":69,"Velocity":48,"Duration":238097,"SoundDuration":238097,"Delta":91007292},{"NoteNumber":60,"Velocity":39,"Duration":238097,"SoundDuration":238097,"Delta":91007292},{"NoteNumber":74,"Velocity":41,"Duration":118019,"SoundDuration":118019,"Delta":91127371},{"NoteNumber":72,"Velocity":51,"Duration":240884,"SoundDuration":240884,"Delta":91245390},{"NoteNumber":64,"Velocity":42,"Duration":240884,"SoundDuration":240884,"Delta":91245390},{"NoteNumber":74,"Velocity":40,"Duration":121496,"SoundDuration":121496,"Delta":91364778},{"NoteNumber":71,"Velocity":50,"Duration":251177,"SoundDuration":251177,"Delta":91486275},{"NoteNumber":62,"Velocity":42,"Duration":251177,"SoundDuration":251177,"Delta":91486275},{"NoteNumber":74,"Velocity":39,"Duration":127125,"SoundDuration":127125,"Delta":91610326},{"NoteNumber":71,"Velocity":51,"Duration":508498,"SoundDuration":508498,"Delta":91737452},{"NoteNumber":55,"Velocity":42,"Duration":255685,"SoundDuration":255685,"Delta":91737452},{"NoteNumber":59,"Velocity":42,"Duration":255685,"SoundDuration":255685,"Delta":91737452},{"NoteNumber":74,"Velocity":40,"Duration":127480,"SoundDuration":127480,"Delta":91865657},{"NoteNumber":62,"Velocity":34,"Duration":126762,"SoundDuration":126762,"Delta":91993138},{"NoteNumber":74,"Velocity":41,"Duration":126050,"SoundDuration":126050,"Delta":92119900},{"NoteNumber":71,"Velocity":48,"Duration":492874,"SoundDuration":492874,"Delta":92245951},{"NoteNumber":55,"Velocity":39,"Duration":492874,"SoundDuration":492874,"Delta":92245951},{"NoteNumber":74,"Velocity":40,"Duration":123633,"SoundDuration":123633,"Delta":92370951},{"NoteNumber":62,"Velocity":34,"Duration":122617,"SoundDuration":122617,"Delta":92494585},{"NoteNumber":74,"Velocity":40,"Duration":121623,"SoundDuration":121623,"Delta":92617202},{"NoteNumber":72,"Velocity":53,"Duration":485182,"SoundDuration":485182,"Delta":92738826},{"NoteNumber":43,"Velocity":48,"Duration":485182,"SoundDuration":485182,"Delta":92738826},{"NoteNumber":76,"Velocity":41,"Duration":120967,"SoundDuration":120967,"Delta":92860449},{"NoteNumber":64,"Velocity":36,"Duration":120967,"SoundDuration":120967,"Delta":92981417},{"NoteNumber":76,"Velocity":41,"Duration":121623,"SoundDuration":121623,"Delta":93102385},{"NoteNumber":71,"Velocity":48,"Duration":491800,"SoundDuration":491800,"Delta":93224008},{"NoteNumber":55,"Velocity":37,"Duration":491800,"SoundDuration":491800,"Delta":93224008},{"NoteNumber":74,"Velocity":40,"Duration":121951,"SoundDuration":121951,"Delta":93345959},{"NoteNumber":62,"Velocity":36,"Duration":122950,"SoundDuration":122950,"Delta":93467911},{"NoteNumber":74,"Velocity":40,"Duration":124946,"SoundDuration":124946,"Delta":93590861},{"NoteNumber":71,"Velocity":53,"Duration":496972,"SoundDuration":496972,"Delta":93715808},{"NoteNumber":38,"Velocity":42,"Duration":250352,"SoundDuration":250352,"Delta":93715808},{"NoteNumber":74,"Velocity":40,"Duration":124792,"SoundDuration":124792,"Delta":93841369},{"NoteNumber":62,"Velocity":34,"Duration":123680,"SoundDuration":123680,"Delta":93966161},{"NoteNumber":74,"Velocity":41,"Duration":122939,"SoundDuration":122939,"Delta":94089841},{"NoteNumber":70,"Velocity":51,"Duration":483866,"SoundDuration":483866,"Delta":94212781},{"NoteNumber":50,"Velocity":35,"Duration":364132,"SoundDuration":364132,"Delta":94212781},{"NoteNumber":61,"Velocity":35,"Duration":364132,"SoundDuration":364132,"Delta":94212781},{"NoteNumber":74,"Velocity":40,"Duration":121496,"SoundDuration":121496,"Delta":94334992},{"NoteNumber":62,"Velocity":34,"Duration":120423,"SoundDuration":120423,"Delta":94456489},{"NoteNumber":74,"Velocity":39,"Duration":119733,"SoundDuration":119733,"Delta":94576913},{"NoteNumber":69,"Velocity":49,"Duration":481043,"SoundDuration":481043,"Delta":94696647},{"NoteNumber":50,"Velocity":35,"Duration":359546,"SoundDuration":359546,"Delta":94696647},{"NoteNumber":60,"Velocity":35,"Duration":359546,"SoundDuration":359546,"Delta":94696647},{"NoteNumber":74,"Velocity":39,"Duration":119733,"SoundDuration":119733,"Delta":94816036},{"NoteNumber":62,"Velocity":35,"Duration":120423,"SoundDuration":120423,"Delta":94935770},{"NoteNumber":74,"Velocity":39,"Duration":121496,"SoundDuration":121496,"Delta":95056193},{"NoteNumber":66,"Velocity":48,"Duration":493623,"SoundDuration":493623,"Delta":95177690},{"NoteNumber":50,"Velocity":34,"Duration":368831,"SoundDuration":368831,"Delta":95177690},{"NoteNumber":57,"Velocity":34,"Duration":368831,"SoundDuration":368831,"Delta":95177690},{"NoteNumber":74,"Velocity":40,"Duration":122939,"SoundDuration":122939,"Delta":95299902},{"NoteNumber":62,"Velocity":33,"Duration":123680,"SoundDuration":123680,"Delta":95422842},{"NoteNumber":74,"Velocity":38,"Duration":124791,"SoundDuration":124791,"Delta":95546522},{"NoteNumber":71,"Velocity":51,"Duration":492909,"SoundDuration":492909,"Delta":95671314},{"NoteNumber":55,"Velocity":42,"Duration":248486,"SoundDuration":248486,"Delta":95671314},{"NoteNumber":59,"Velocity":42,"Duration":248486,"SoundDuration":248486,"Delta":95671314},{"NoteNumber":74,"Velocity":40,"Duration":123680,"SoundDuration":123680,"Delta":95796120},{"NoteNumber":62,"Velocity":34,"Duration":122568,"SoundDuration":122568,"Delta":95919801},{"NoteNumber":74,"Velocity":41,"Duration":121854,"SoundDuration":121854,"Delta":96042370},{"NoteNumber":71,"Velocity":48,"Duration":491404,"SoundDuration":491404,"Delta":96164224},{"NoteNumber":55,"Velocity":39,"Duration":491404,"SoundDuration":491404,"Delta":96164224},{"NoteNumber":74,"Velocity":40,"Duration":120423,"SoundDuration":120423,"Delta":96285363},{"NoteNumber":62,"Velocity":34,"Duration":128205,"SoundDuration":128205,"Delta":96405787},{"NoteNumber":74,"Velocity":40,"Duration":121636,"SoundDuration":121636,"Delta":96533992},{"NoteNumber":72,"Velocity":53,"Duration":473433,"SoundDuration":473433,"Delta":96655629},{"NoteNumber":43,"Velocity":48,"Duration":473433,"SoundDuration":473433,"Delta":96655629},{"NoteNumber":76,"Velocity":41,"Duration":117334,"SoundDuration":117334,"Delta":96773642},{"NoteNumber":64,"Velocity":36,"Duration":118697,"SoundDuration":118697,"Delta":96890976},{"NoteNumber":76,"Velocity":41,"Duration":119388,"SoundDuration":119388,"Delta":97009674},{"NoteNumber":71,"Velocity":48,"Duration":489983,"SoundDuration":489983,"Delta":97129063},{"NoteNumber":55,"Velocity":37,"Duration":489983,"SoundDuration":489983,"Delta":97129063},{"NoteNumber":74,"Velocity":40,"Duration":122211,"SoundDuration":122211,"Delta":97249844},{"NoteNumber":62,"Velocity":36,"Duration":122939,"SoundDuration":122939,"Delta":97372056},{"NoteNumber":74,"Velocity":40,"Duration":124051,"SoundDuration":124051,"Delta":97494996},{"NoteNumber":71,"Velocity":53,"Duration":490686,"SoundDuration":490686,"Delta":97619047},{"NoteNumber":38,"Velocity":42,"Duration":246620,"SoundDuration":246620,"Delta":97619047},{"NoteNumber":74,"Velocity":40,"Duration":122939,"SoundDuration":122939,"Delta":97742727},{"NoteNumber":62,"Velocity":34,"Duration":122568,"SoundDuration":122568,"Delta":97865667},{"NoteNumber":74,"Velocity":41,"Duration":121496,"SoundDuration":121496,"Delta":97988236},{"NoteNumber":70,"Velocity":51,"Duration":480340,"SoundDuration":480340,"Delta":98109733},{"NoteNumber":61,"Velocity":35,"Duration":361296,"SoundDuration":361296,"Delta":98109733},{"NoteNumber":50,"Velocity":35,"Duration":361296,"SoundDuration":361296,"Delta":98109733},{"NoteNumber":74,"Velocity":40,"Duration":120423,"SoundDuration":120423,"Delta":98230872},{"NoteNumber":62,"Velocity":34,"Duration":119733,"SoundDuration":119733,"Delta":98351296},{"NoteNumber":74,"Velocity":39,"Duration":119043,"SoundDuration":119043,"Delta":98471030},{"NoteNumber":69,"Velocity":49,"Duration":476517,"SoundDuration":476517,"Delta":98590073},{"NoteNumber":50,"Velocity":35,"Duration":356439,"SoundDuration":356439,"Delta":98590073},{"NoteNumber":60,"Velocity":35,"Duration":356439,"SoundDuration":356439,"Delta":98590073},{"NoteNumber":74,"Velocity":39,"Duration":118697,"SoundDuration":118697,"Delta":98708426},{"NoteNumber":62,"Velocity":35,"Duration":119388,"SoundDuration":119388,"Delta":98827124},{"NoteNumber":74,"Velocity":39,"Duration":120078,"SoundDuration":120078,"Delta":98946512},{"NoteNumber":66,"Velocity":48,"Duration":487429,"SoundDuration":487429,"Delta":99066591},{"NoteNumber":50,"Velocity":34,"Duration":364490,"SoundDuration":364490,"Delta":99066591},{"NoteNumber":57,"Velocity":34,"Duration":364490,"SoundDuration":364490,"Delta":99066591},{"NoteNumber":74,"Velocity":40,"Duration":121496,"SoundDuration":121496,"Delta":99187373},{"NoteNumber":62,"Velocity":33,"Duration":122211,"SoundDuration":122211,"Delta":99308870},{"NoteNumber":74,"Velocity":38,"Duration":122939,"SoundDuration":122939,"Delta":99431081},{"NoteNumber":71,"Velocity":51,"Duration":499223,"SoundDuration":499223,"Delta":99554021},{"NoteNumber":55,"Velocity":42,"Duration":251120,"SoundDuration":251120,"Delta":99554021},{"NoteNumber":59,"Velocity":42,"Duration":251120,"SoundDuration":251120,"Delta":99554021},{"NoteNumber":74,"Velocity":40,"Duration":125176,"SoundDuration":125176,"Delta":99679965},{"NoteNumber":62,"Velocity":34,"Duration":124421,"SoundDuration":124421,"Delta":99805142},{"NoteNumber":74,"Velocity":41,"Duration":123680,"SoundDuration":123680,"Delta":99929563},{"NoteNumber":59,"Velocity":48,"Duration":122568,"SoundDuration":122568,"Delta":100053244},{"NoteNumber":67,"Velocity":37,"Duration":121854,"SoundDuration":121854,"Delta":100175813},{"NoteNumber":62,"Velocity":31,"Duration":121139,"SoundDuration":121139,"Delta":100297667},{"NoteNumber":67,"Velocity":37,"Duration":120781,"SoundDuration":120781,"Delta":100418806},{"NoteNumber":62,"Velocity":47,"Duration":121496,"SoundDuration":121496,"Delta":100539588},{"NoteNumber":71,"Velocity":35,"Duration":120423,"SoundDuration":120423,"Delta":100661085},{"NoteNumber":67,"Velocity":33,"Duration":119733,"SoundDuration":119733,"Delta":100781509},{"NoteNumber":71,"Velocity":35,"Duration":119043,"SoundDuration":119043,"Delta":100901242},{"NoteNumber":67,"Velocity":47,"Duration":118352,"SoundDuration":118352,"Delta":101020286},{"NoteNumber":74,"Velocity":33,"Duration":117334,"SoundDuration":117334,"Delta":101138638},{"NoteNumber":71,"Velocity":28,"Duration":116666,"SoundDuration":116666,"Delta":101255972},{"NoteNumber":74,"Velocity":33,"Duration":116011,"SoundDuration":116011,"Delta":101372639},{"NoteNumber":71,"Velocity":46,"Duration":119388,"SoundDuration":119388,"Delta":101488650},{"NoteNumber":79,"Velocity":31,"Duration":119733,"SoundDuration":119733,"Delta":101608039},{"NoteNumber":74,"Velocity":29,"Duration":120423,"SoundDuration":120423,"Delta":101727773},{"NoteNumber":79,"Velocity":33,"Duration":121496,"SoundDuration":121496,"Delta":101848197},{"NoteNumber":74,"Velocity":44,"Duration":122211,"SoundDuration":122211,"Delta":101969694},{"NoteNumber":83,"Velocity":30,"Duration":122939,"SoundDuration":122939,"Delta":102091905},{"NoteNumber":79,"Velocity":27,"Duration":123680,"SoundDuration":123680,"Delta":102214845},{"NoteNumber":83,"Velocity":30,"Duration":124791,"SoundDuration":124791,"Delta":102338526},{"NoteNumber":79,"Velocity":41,"Duration":125176,"SoundDuration":125176,"Delta":102463318},{"NoteNumber":86,"Velocity":30,"Duration":125944,"SoundDuration":125944,"Delta":102588494},{"NoteNumber":83,"Velocity":26,"Duration":127118,"SoundDuration":127118,"Delta":102714438},{"NoteNumber":86,"Velocity":30,"Duration":127916,"SoundDuration":127916,"Delta":102841557},{"NoteNumber":83,"Velocity":41,"Duration":128713,"SoundDuration":128713,"Delta":102969473},{"NoteNumber":91,"Velocity":30,"Duration":129511,"SoundDuration":129511,"Delta":103098187},{"NoteNumber":86,"Velocity":26,"Duration":130753,"SoundDuration":130753,"Delta":103227698},{"NoteNumber":91,"Velocity":30,"Duration":131581,"SoundDuration":131581,"Delta":103358451},{"NoteNumber":86,"Velocity":41,"Duration":376128,"SoundDuration":376128,"Delta":103490033},{"NoteNumber":79,"Velocity":41,"Duration":376128,"SoundDuration":376128,"Delta":103490033},{"NoteNumber":95,"Velocity":41,"Duration":376128,"SoundDuration":376128,"Delta":103490033},{"NoteNumber":55,"Velocity":31,"Duration":686025,"SoundDuration":686025,"Delta":104417407},{"NoteNumber":62,"Velocity":31,"Duration":611941,"SoundDuration":611941,"Delta":104491491},{"NoteNumber":67,"Velocity":31,"Duration":538913,"SoundDuration":538913,"Delta":104564519},{"NoteNumber":71,"Velocity":38,"Duration":468145,"SoundDuration":468145,"Delta":104635287},{"NoteNumber":74,"Velocity":38,"Duration":398793,"SoundDuration":398793,"Delta":104704639},{"NoteNumber":79,"Velocity":38,"Duration":330149,"SoundDuration":330149,"Delta":104773283},{"NoteNumber":83,"Velocity":38,"Duration":261506,"SoundDuration":261506,"Delta":104841926},{"NoteNumber":59,"Velocity":32,"Duration":1046025,"SoundDuration":1046025,"Delta":105887951},{"NoteNumber":67,"Velocity":38,"Duration":1046025,"SoundDuration":1046025,"Delta":105887951},{"NoteNumber":43,"Velocity":26,"Duration":1046025,"SoundDuration":1046025,"Delta":105887951},{"NoteNumber":50,"Velocity":31,"Duration":1046025,"SoundDuration":1046025,"Delta":105887951}],"license":{"name":"Creative Commons Attribution-ShareAlike 3.0 Germany","url":"http://creativecommons.org/licenses/by-sa/3.0/de/deed.en","text":"The MIDI files in this folder were downloaded from http://www.piano-midi.de and are licensed under the Creative Commons Attribution-ShareAlike 3.0 Germany license by Bernd Krueger.\n\nThe MIDI, audio(MP3, OGG) and video files of Bernd Krueger are licensed under the cc-by-sa Germany License . This means, that you can use and adapt the files, as long as you attribute to the copyright holder Name: Bernd Krueger Source: http://www.piano-midi.de The distribution or public playback of the files is only allowed under identical license conditions . The scores are open source.","attribution":"Bernd Krueger","attributionUrl":"http://www.piano-midi.de"}}