{"title":"Gewitter","artist":"Burgmueller","durationMs":77265,"midiSha256":"4c43a2b1087d25c21fd271d1488c386455c4eb39c9eb09220b68407625e12162","midiObject":[{"NoteNumber":38,"Velocity":42,"Duration":425669,"SoundDuration":425669,"Delta":0},{"NoteNumber":50,"Velocity":37,"Duration":118644,"SoundDuration":118644,"Delta":101695},{"NoteNumber":49,"Velocity":32,"Duration":118996,"SoundDuration":118996,"Delta":203390},{"NoteNumber":50,"Velocity":37,"Duration":120584,"SoundDuration":120584,"Delta":305085},{"NoteNumber":41,"Velocity":37,"Duration":422598,"SoundDuration":422598,"Delta":408891},{"NoteNumber":53,"Velocity":37,"Duration":117449,"SoundDuration":117449,"Delta":509562},{"NoteNumber":52,"Velocity":33,"Duration":117972,"SoundDuration":117972,"Delta":610233},{"NoteNumber":53,"Velocity":37,"Duration":120584,"SoundDuration":120584,"Delta":710905},{"NoteNumber":38,"Velocity":43,"Duration":422826,"SoundDuration":422826,"Delta":814711},{"NoteNumber":50,"Velocity":37,"Duration":117449,"SoundDuration":117449,"Delta":915382},{"NoteNumber":49,"Velocity":33,"Duration":117972,"SoundDuration":117972,"Delta":1016053},{"NoteNumber":50,"Velocity":37,"Duration":120813,"SoundDuration":120813,"Delta":1116725},{"NoteNumber":41,"Velocity":37,"Duration":409928,"SoundDuration":409928,"Delta":1220531},{"NoteNumber":53,"Velocity":37,"Duration":119047,"SoundDuration":119047,"Delta":1322572},{"NoteNumber":52,"Velocity":32,"Duration":119341,"SoundDuration":119341,"Delta":1424612},{"NoteNumber":53,"Velocity":34,"Duration":120988,"SoundDuration":120988,"Delta":1526653},{"NoteNumber":38,"Velocity":47,"Duration":822198,"SoundDuration":822198,"Delta":1630459},{"NoteNumber":50,"Velocity":36,"Duration":102975,"SoundDuration":102975,"Delta":1733552},{"NoteNumber":62,"Velocity":47,"Duration":102739,"SoundDuration":102739,"Delta":1836527},{"NoteNumber":50,"Velocity":40,"Duration":102505,"SoundDuration":102505,"Delta":1939267},{"NoteNumber":62,"Velocity":52,"Duration":102389,"SoundDuration":102389,"Delta":2041773},{"NoteNumber":50,"Velocity":42,"Duration":102040,"SoundDuration":102040,"Delta":2144162},{"NoteNumber":62,"Velocity":54,"Duration":101925,"SoundDuration":101925,"Delta":2246203},{"NoteNumber":50,"Velocity":46,"Duration":104529,"SoundDuration":104529,"Delta":2348128},{"NoteNumber":62,"Velocity":61,"Duration":101694,"SoundDuration":101694,"Delta":2452658},{"NoteNumber":36,"Velocity":58,"Duration":822299,"SoundDuration":822299,"Delta":2452658},{"NoteNumber":48,"Velocity":58,"Duration":822299,"SoundDuration":822299,"Delta":2452658},{"NoteNumber":50,"Velocity":49,"Duration":101695,"SoundDuration":101695,"Delta":2554353},{"NoteNumber":62,"Velocity":59,"Duration":101925,"SoundDuration":101925,"Delta":2656048},{"NoteNumber":50,"Velocity":43,"Duration":102040,"SoundDuration":102040,"Delta":2757973},{"NoteNumber":62,"Velocity":54,"Duration":102214,"SoundDuration":102214,"Delta":2860014},{"NoteNumber":50,"Velocity":40,"Duration":102389,"SoundDuration":102389,"Delta":2962229},{"NoteNumber":62,"Velocity":50,"Duration":102505,"SoundDuration":102505,"Delta":3064618},{"NoteNumber":50,"Velocity":45,"Duration":107833,"SoundDuration":107833,"Delta":3167124},{"NoteNumber":34,"Velocity":38,"Duration":1630459,"SoundDuration":1630459,"Delta":3274957},{"NoteNumber":46,"Velocity":45,"Duration":1630459,"SoundDuration":1630459,"Delta":3274957},{"NoteNumber":50,"Velocity":37,"Duration":118644,"SoundDuration":118644,"Delta":3376652},{"NoteNumber":49,"Velocity":34,"Duration":118996,"SoundDuration":118996,"Delta":3478347},{"NoteNumber":50,"Velocity":37,"Duration":120584,"SoundDuration":120584,"Delta":3580042},{"NoteNumber":41,"Velocity":37,"Duration":422598,"SoundDuration":422598,"Delta":3683848},{"NoteNumber":53,"Velocity":37,"Duration":117449,"SoundDuration":117449,"Delta":3784519},{"NoteNumber":52,"Velocity":35,"Duration":117972,"SoundDuration":117972,"Delta":3885190},{"NoteNumber":53,"Velocity":37,"Duration":120584,"SoundDuration":120584,"Delta":3985862},{"NoteNumber":38,"Velocity":45,"Duration":422826,"SoundDuration":422826,"Delta":4089668},{"NoteNumber":50,"Velocity":37,"Duration":117449,"SoundDuration":117449,"Delta":4190339},{"NoteNumber":49,"Velocity":34,"Duration":117972,"SoundDuration":117972,"Delta":4291010},{"NoteNumber":50,"Velocity":37,"Duration":120813,"SoundDuration":120813,"Delta":4391682},{"NoteNumber":41,"Velocity":38,"Duration":427229,"SoundDuration":427229,"Delta":4495488},{"NoteNumber":53,"Velocity":37,"Duration":119047,"SoundDuration":119047,"Delta":4597529},{"NoteNumber":52,"Velocity":33,"Duration":119341,"SoundDuration":119341,"Delta":4699569},{"NoteNumber":53,"Velocity":37,"Duration":121107,"SoundDuration":121107,"Delta":4801610},{"NoteNumber":46,"Velocity":50,"Duration":827140,"SoundDuration":827140,"Delta":4905416},{"NoteNumber":34,"Velocity":50,"Duration":827140,"SoundDuration":827140,"Delta":4905416},{"NoteNumber":50,"Velocity":36,"Duration":103507,"SoundDuration":103507,"Delta":5009223},{"NoteNumber":62,"Velocity":47,"Duration":103211,"SoundDuration":103211,"Delta":5112731},{"NoteNumber":50,"Velocity":40,"Duration":102916,"SoundDuration":102916,"Delta":5215942},{"NoteNumber":62,"Velocity":52,"Duration":102622,"SoundDuration":102622,"Delta":5318858},{"NoteNumber":50,"Velocity":42,"Duration":102330,"SoundDuration":102330,"Delta":5421481},{"NoteNumber":62,"Velocity":54,"Duration":101983,"SoundDuration":101983,"Delta":5523812},{"NoteNumber":50,"Velocity":46,"Duration":106761,"SoundDuration":106761,"Delta":5625795},{"NoteNumber":62,"Velocity":61,"Duration":101695,"SoundDuration":101695,"Delta":5732557},{"NoteNumber":33,"Velocity":59,"Duration":823631,"SoundDuration":823631,"Delta":5732557},{"NoteNumber":45,"Velocity":59,"Duration":823631,"SoundDuration":823631,"Delta":5732557},{"NoteNumber":50,"Velocity":49,"Duration":101694,"SoundDuration":101694,"Delta":5834252},{"NoteNumber":62,"Velocity":59,"Duration":101983,"SoundDuration":101983,"Delta":5935947},{"NoteNumber":50,"Velocity":43,"Duration":102040,"SoundDuration":102040,"Delta":6037930},{"NoteNumber":62,"Velocity":54,"Duration":102272,"SoundDuration":102272,"Delta":6139970},{"NoteNumber":50,"Velocity":40,"Duration":102388,"SoundDuration":102388,"Delta":6242243},{"NoteNumber":62,"Velocity":50,"Duration":102564,"SoundDuration":102564,"Delta":6344632},{"NoteNumber":50,"Velocity":45,"Duration":108991,"SoundDuration":108991,"Delta":6447197},{"NoteNumber":31,"Velocity":40,"Duration":408177,"SoundDuration":408177,"Delta":6556188},{"NoteNumber":43,"Velocity":40,"Duration":408177,"SoundDuration":408177,"Delta":6556188},{"NoteNumber":58,"Velocity":40,"Duration":118644,"SoundDuration":118644,"Delta":6659281},{"NoteNumber":60,"Velocity":41,"Duration":118644,"SoundDuration":118644,"Delta":6760976},{"NoteNumber":58,"Velocity":42,"Duration":118818,"SoundDuration":118818,"Delta":6862671},{"NoteNumber":33,"Velocity":43,"Duration":406793,"SoundDuration":406793,"Delta":6964366},{"NoteNumber":45,"Velocity":43,"Duration":406793,"SoundDuration":406793,"Delta":6964366},{"NoteNumber":57,"Velocity":45,"Duration":118243,"SoundDuration":118243,"Delta":7067105},{"NoteNumber":58,"Velocity":47,"Duration":118243,"SoundDuration":118243,"Delta":7168457},{"NoteNumber":57,"Velocity":48,"Duration":118533,"SoundDuration":118533,"Delta":7269808},{"NoteNumber":34,"Velocity":46,"Duration":409214,"SoundDuration":409214,"Delta":7371159},{"NoteNumber":46,"Velocity":46,"Duration":409214,"SoundDuration":409214,"Delta":7371159},{"NoteNumber":55,"Velocity":51,"Duration":119047,"SoundDuration":119047,"Delta":7474252},{"NoteNumber":57,"Velocity":52,"Duration":119047,"SoundDuration":119047,"Delta":7576293},{"NoteNumber":55,"Velocity":54,"Duration":119282,"SoundDuration":119282,"Delta":7678333},{"NoteNumber":38,"Velocity":48,"Duration":407501,"SoundDuration":407501,"Delta":7780374},{"NoteNumber":50,"Velocity":48,"Duration":407501,"SoundDuration":407501,"Delta":7780374},{"NoteNumber":53,"Velocity":57,"Duration":118243,"SoundDuration":118243,"Delta":7883822},{"NoteNumber":55,"Velocity":58,"Duration":118243,"SoundDuration":118243,"Delta":7985174},{"NoteNumber":53,"Velocity":59,"Duration":118416,"SoundDuration":118416,"Delta":8086525},{"NoteNumber":38,"Velocity":51,"Duration":814901,"SoundDuration":814901,"Delta":8187876},{"NoteNumber":50,"Velocity":51,"Duration":814901,"SoundDuration":814901,"Delta":8187876},{"NoteNumber":52,"Velocity":58,"Duration":119105,"SoundDuration":119105,"Delta":8290265},{"NoteNumber":55,"Velocity":61,"Duration":118701,"SoundDuration":118701,"Delta":8392364},{"NoteNumber":57,"Velocity":64,"Duration":118186,"SoundDuration":118186,"Delta":8494116},{"NoteNumber":58,"Velocity":67,"Duration":118015,"SoundDuration":118015,"Delta":8595468},{"NoteNumber":57,"Velocity":63,"Duration":118529,"SoundDuration":118529,"Delta":8696592},{"NoteNumber":55,"Velocity":63,"Duration":119106,"SoundDuration":119106,"Delta":8798172},{"NoteNumber":52,"Velocity":64,"Duration":102564,"SoundDuration":102564,"Delta":8900213},{"NoteNumber":64,"Velocity":68,"Duration":822030,"SoundDuration":822030,"Delta":9002778},{"NoteNumber":37,"Velocity":50,"Duration":822030,"SoundDuration":822030,"Delta":9002778},{"NoteNumber":49,"Velocity":50,"Duration":822030,"SoundDuration":822030,"Delta":9002778},{"NoteNumber":55,"Velocity":61,"Duration":118644,"SoundDuration":118644,"Delta":9106945},{"NoteNumber":57,"Velocity":61,"Duration":118817,"SoundDuration":118817,"Delta":9208640},{"NoteNumber":58,"Velocity":61,"Duration":119221,"SoundDuration":119221,"Delta":9310450},{"NoteNumber":57,"Velocity":55,"Duration":119687,"SoundDuration":119687,"Delta":9412607},{"NoteNumber":58,"Velocity":54,"Duration":120098,"SoundDuration":120098,"Delta":9515171},{"NoteNumber":57,"Velocity":52,"Duration":120511,"SoundDuration":120511,"Delta":9618087},{"NoteNumber":55,"Velocity":51,"Duration":103450,"SoundDuration":103450,"Delta":9721358},{"NoteNumber":38,"Velocity":50,"Duration":414167,"SoundDuration":414167,"Delta":9824809},{"NoteNumber":50,"Velocity":50,"Duration":414167,"SoundDuration":414167,"Delta":9824809},{"NoteNumber":53,"Velocity":58,"Duration":102739,"SoundDuration":102739,"Delta":9927490},{"NoteNumber":62,"Velocity":55,"Duration":102739,"SoundDuration":102739,"Delta":10030230},{"NoteNumber":53,"Velocity":49,"Duration":106006,"SoundDuration":106006,"Delta":10132969},{"NoteNumber":48,"Velocity":54,"Duration":412747,"SoundDuration":412747,"Delta":10238976},{"NoteNumber":50,"Velocity":54,"Duration":412747,"SoundDuration":412747,"Delta":10238976},{"NoteNumber":54,"Velocity":65,"Duration":102389,"SoundDuration":102389,"Delta":10341968},{"NoteNumber":62,"Velocity":59,"Duration":102388,"SoundDuration":102388,"Delta":10444357},{"NoteNumber":54,"Velocity":57,"Duration":104977,"SoundDuration":104977,"Delta":10546746},{"NoteNumber":47,"Velocity":58,"Duration":415661,"SoundDuration":415661,"Delta":10651724},{"NoteNumber":50,"Velocity":58,"Duration":415661,"SoundDuration":415661,"Delta":10651724},{"NoteNumber":55,"Velocity":70,"Duration":103092,"SoundDuration":103092,"Delta":10754816},{"NoteNumber":62,"Velocity":66,"Duration":103092,"SoundDuration":103092,"Delta":10857909},{"NoteNumber":55,"Velocity":60,"Duration":106382,"SoundDuration":106382,"Delta":10961002},{"NoteNumber":46,"Velocity":63,"Duration":423724,"SoundDuration":423724,"Delta":11067385},{"NoteNumber":50,"Velocity":63,"Duration":423724,"SoundDuration":423724,"Delta":11067385},{"NoteNumber":56,"Velocity":74,"Duration":104348,"SoundDuration":104348,"Delta":11172280},{"NoteNumber":62,"Velocity":66,"Duration":104590,"SoundDuration":104590,"Delta":11276628},{"NoteNumber":56,"Velocity":61,"Duration":109890,"SoundDuration":109890,"Delta":11381219},{"NoteNumber":45,"Velocity":64,"Duration":1248310,"SoundDuration":1248310,"Delta":11491109},{"NoteNumber":50,"Velocity":64,"Duration":836274,"SoundDuration":836274,"Delta":11491109},{"NoteNumber":53,"Velocity":64,"Duration":836274,"SoundDuration":836274,"Delta":11491109},{"NoteNumber":57,"Velocity":62,"Duration":102975,"SoundDuration":102975,"Delta":11598616},{"NoteNumber":62,"Velocity":65,"Duration":103567,"SoundDuration":103567,"Delta":11701591},{"NoteNumber":65,"Velocity":67,"Duration":104107,"SoundDuration":104107,"Delta":11805159},{"NoteNumber":69,"Velocity":70,"Duration":104529,"SoundDuration":104529,"Delta":11909266},{"NoteNumber":65,"Velocity":68,"Duration":104529,"SoundDuration":104529,"Delta":12013795},{"NoteNumber":64,"Velocity":66,"Duration":104529,"SoundDuration":104529,"Delta":12118325},{"NoteNumber":62,"Velocity":64,"Duration":104529,"SoundDuration":104529,"Delta":12222854},{"NoteNumber":61,"Velocity":60,"Duration":119578,"SoundDuration":119578,"Delta":12327384},{"NoteNumber":52,"Velocity":54,"Duration":412036,"SoundDuration":412036,"Delta":12327384},{"NoteNumber":55,"Velocity":54,"Duration":412036,"SoundDuration":412036,"Delta":12327384},{"NoteNumber":58,"Velocity":59,"Duration":119746,"SoundDuration":119746,"Delta":12429897},{"NoteNumber":57,"Velocity":56,"Duration":120452,"SoundDuration":120452,"Delta":12532462},{"NoteNumber":58,"Velocity":55,"Duration":121108,"SoundDuration":121108,"Delta":12635673},{"NoteNumber":57,"Velocity":54,"Duration":121527,"SoundDuration":121527,"Delta":12739420},{"NoteNumber":55,"Velocity":49,"Duration":121527,"SoundDuration":121527,"Delta":12843587},{"NoteNumber":53,"Velocity":49,"Duration":121527,"SoundDuration":121527,"Delta":12947753},{"NoteNumber":52,"Velocity":48,"Duration":121115,"SoundDuration":121115,"Delta":13051920},{"NoteNumber":38,"Velocity":42,"Duration":425669,"SoundDuration":425669,"Delta":13156087},{"NoteNumber":50,"Velocity":37,"Duration":118644,"SoundDuration":118644,"Delta":13257782},{"NoteNumber":49,"Velocity":32,"Duration":118996,"SoundDuration":118996,"Delta":13359477},{"NoteNumber":50,"Velocity":37,"Duration":120584,"SoundDuration":120584,"Delta":13461172},{"NoteNumber":41,"Velocity":37,"Duration":422598,"SoundDuration":422598,"Delta":13564978},{"NoteNumber":53,"Velocity":37,"Duration":117449,"SoundDuration":117449,"Delta":13665649},{"NoteNumber":52,"Velocity":33,"Duration":117972,"SoundDuration":117972,"Delta":13766321},{"NoteNumber":53,"Velocity":37,"Duration":120584,"SoundDuration":120584,"Delta":13866992},{"NoteNumber":38,"Velocity":43,"Duration":422826,"SoundDuration":422826,"Delta":13970798},{"NoteNumber":50,"Velocity":37,"Duration":117449,"SoundDuration":117449,"Delta":14071469},{"NoteNumber":49,"Velocity":33,"Duration":117972,"SoundDuration":117972,"Delta":14172141},{"NoteNumber":50,"Velocity":37,"Duration":120813,"SoundDuration":120813,"Delta":14272812},{"NoteNumber":41,"Velocity":37,"Duration":409928,"SoundDuration":409928,"Delta":14376618},{"NoteNumber":53,"Velocity":37,"Duration":119047,"SoundDuration":119047,"Delta":14478659},{"NoteNumber":52,"Velocity":32,"Duration":119341,"SoundDuration":119341,"Delta":14580700},{"NoteNumber":53,"Velocity":34,"Duration":120988,"SoundDuration":120988,"Delta":14682740},{"NoteNumber":38,"Velocity":47,"Duration":822198,"SoundDuration":822198,"Delta":14786547},{"NoteNumber":50,"Velocity":36,"Duration":102975,"SoundDuration":102975,"Delta":14889639},{"NoteNumber":62,"Velocity":47,"Duration":102739,"SoundDuration":102739,"Delta":14992614},{"NoteNumber":50,"Velocity":40,"Duration":102505,"SoundDuration":102505,"Delta":15095354},{"NoteNumber":62,"Velocity":52,"Duration":102388,"SoundDuration":102388,"Delta":15197860},{"NoteNumber":50,"Velocity":42,"Duration":102040,"SoundDuration":102040,"Delta":15300249},{"NoteNumber":62,"Velocity":54,"Duration":101925,"SoundDuration":101925,"Delta":15402290},{"NoteNumber":50,"Velocity":46,"Duration":104529,"SoundDuration":104529,"Delta":15504215},{"NoteNumber":62,"Velocity":61,"Duration":101694,"SoundDuration":101694,"Delta":15608745},{"NoteNumber":36,"Velocity":58,"Duration":822299,"SoundDuration":822299,"Delta":15608745},{"NoteNumber":48,"Velocity":58,"Duration":822299,"SoundDuration":822299,"Delta":15608745},{"NoteNumber":50,"Velocity":49,"Duration":101695,"SoundDuration":101695,"Delta":15710440},{"NoteNumber":62,"Velocity":59,"Duration":101925,"SoundDuration":101925,"Delta":15812135},{"NoteNumber":50,"Velocity":43,"Duration":102040,"SoundDuration":102040,"Delta":15914060},{"NoteNumber":62,"Velocity":54,"Duration":102214,"SoundDuration":102214,"Delta":16016101},{"NoteNumber":50,"Velocity":40,"Duration":102388,"SoundDuration":102388,"Delta":16118316},{"NoteNumber":62,"Velocity":50,"Duration":102505,"SoundDuration":102505,"Delta":16220705},{"NoteNumber":50,"Velocity":45,"Duration":107833,"SoundDuration":107833,"Delta":16323211},{"NoteNumber":34,"Velocity":38,"Duration":1630459,"SoundDuration":1630459,"Delta":16431044},{"NoteNumber":46,"Velocity":45,"Duration":1630459,"SoundDuration":1630459,"Delta":16431044},{"NoteNumber":50,"Velocity":37,"Duration":118644,"SoundDuration":118644,"Delta":16532739},{"NoteNumber":49,"Velocity":34,"Duration":118996,"SoundDuration":118996,"Delta":16634434},{"NoteNumber":50,"Velocity":37,"Duration":120584,"SoundDuration":120584,"Delta":16736129},{"NoteNumber":41,"Velocity":37,"Duration":422598,"SoundDuration":422598,"Delta":16839935},{"NoteNumber":53,"Velocity":37,"Duration":117449,"SoundDuration":117449,"Delta":16940607},{"NoteNumber":52,"Velocity":35,"Duration":117972,"SoundDuration":117972,"Delta":17041278},{"NoteNumber":53,"Velocity":37,"Duration":120584,"SoundDuration":120584,"Delta":17141949},{"NoteNumber":38,"Velocity":45,"Duration":422826,"SoundDuration":422826,"Delta":17245755},{"NoteNumber":50,"Velocity":37,"Duration":117449,"SoundDuration":117449,"Delta":17346427},{"NoteNumber":49,"Velocity":34,"Duration":117972,"SoundDuration":117972,"Delta":17447098},{"NoteNumber":50,"Velocity":37,"Duration":120813,"SoundDuration":120813,"Delta":17547769},{"NoteNumber":41,"Velocity":38,"Duration":427229,"SoundDuration":427229,"Delta":17651575},{"NoteNumber":53,"Velocity":37,"Duration":119047,"SoundDuration":119047,"Delta":17753616},{"NoteNumber":52,"Velocity":33,"Duration":119341,"SoundDuration":119341,"Delta":17855657},{"NoteNumber":53,"Velocity":37,"Duration":121107,"SoundDuration":121107,"Delta":17957698},{"NoteNumber":46,"Velocity":50,"Duration":827140,"SoundDuration":827140,"Delta":18061504},{"NoteNumber":34,"Velocity":50,"Duration":827140,"SoundDuration":827140,"Delta":18061504},{"NoteNumber":50,"Velocity":36,"Duration":103507,"SoundDuration":103507,"Delta":18165310},{"NoteNumber":62,"Velocity":47,"Duration":103211,"SoundDuration":103211,"Delta":18268818},{"NoteNumber":50,"Velocity":40,"Duration":102916,"SoundDuration":102916,"Delta":18372029},{"NoteNumber":62,"Velocity":52,"Duration":102622,"SoundDuration":102622,"Delta":18474945},{"NoteNumber":50,"Velocity":42,"Duration":102330,"SoundDuration":102330,"Delta":18577568},{"NoteNumber":62,"Velocity":54,"Duration":101983,"SoundDuration":101983,"Delta":18679899},{"NoteNumber":50,"Velocity":46,"Duration":106761,"SoundDuration":106761,"Delta":18781882},{"NoteNumber":62,"Velocity":61,"Duration":101694,"SoundDuration":101694,"Delta":18888644},{"NoteNumber":33,"Velocity":59,"Duration":823631,"SoundDuration":823631,"Delta":18888644},{"NoteNumber":45,"Velocity":59,"Duration":823631,"SoundDuration":823631,"Delta":18888644},{"NoteNumber":50,"Velocity":49,"Duration":101694,"SoundDuration":101694,"Delta":18990339},{"NoteNumber":62,"Velocity":59,"Duration":101983,"SoundDuration":101983,"Delta":19092034},{"NoteNumber":50,"Velocity":43,"Duration":102040,"SoundDuration":102040,"Delta":19194017},{"NoteNumber":62,"Velocity":54,"Duration":102272,"SoundDuration":102272,"Delta":19296058},{"NoteNumber":50,"Velocity":40,"Duration":102388,"SoundDuration":102388,"Delta":19398331},{"NoteNumber":62,"Velocity":50,"Duration":102564,"SoundDuration":102564,"Delta":19500720},{"NoteNumber":50,"Velocity":45,"Duration":108991,"SoundDuration":108991,"Delta":19603284},{"NoteNumber":31,"Velocity":40,"Duration":408177,"SoundDuration":408177,"Delta":19712275},{"NoteNumber":43,"Velocity":40,"Duration":408177,"SoundDuration":408177,"Delta":19712275},{"NoteNumber":58,"Velocity":40,"Duration":118644,"SoundDuration":118644,"Delta":19815368},{"NoteNumber":60,"Velocity":41,"Duration":118644,"SoundDuration":118644,"Delta":19917063},{"NoteNumber":58,"Velocity":42,"Duration":118818,"SoundDuration":118818,"Delta":20018758},{"NoteNumber":33,"Velocity":43,"Duration":406793,"SoundDuration":406793,"Delta":20120453},{"NoteNumber":45,"Velocity":43,"Duration":406793,"SoundDuration":406793,"Delta":20120453},{"NoteNumber":57,"Velocity":45,"Duration":118243,"SoundDuration":118243,"Delta":20223193},{"NoteNumber":58,"Velocity":47,"Duration":118243,"SoundDuration":118243,"Delta":20324544},{"NoteNumber":57,"Velocity":48,"Duration":118533,"SoundDuration":118533,"Delta":20425895},{"NoteNumber":34,"Velocity":46,"Duration":409214,"SoundDuration":409214,"Delta":20527246},{"NoteNumber":46,"Velocity":46,"Duration":409214,"SoundDuration":409214,"Delta":20527246},{"NoteNumber":55,"Velocity":51,"Duration":119047,"SoundDuration":119047,"Delta":20630339},{"NoteNumber":57,"Velocity":52,"Duration":119047,"SoundDuration":119047,"Delta":20732380},{"NoteNumber":55,"Velocity":54,"Duration":119282,"SoundDuration":119282,"Delta":20834421},{"NoteNumber":38,"Velocity":48,"Duration":407502,"SoundDuration":407502,"Delta":20936461},{"NoteNumber":50,"Velocity":48,"Duration":407502,"SoundDuration":407502,"Delta":20936461},{"NoteNumber":53,"Velocity":57,"Duration":118243,"SoundDuration":118243,"Delta":21039910},{"NoteNumber":55,"Velocity":58,"Duration":118243,"SoundDuration":118243,"Delta":21141261},{"NoteNumber":53,"Velocity":59,"Duration":118416,"SoundDuration":118416,"Delta":21242612},{"NoteNumber":38,"Velocity":51,"Duration":814901,"SoundDuration":814901,"Delta":21343963},{"NoteNumber":50,"Velocity":51,"Duration":814901,"SoundDuration":814901,"Delta":21343963},{"NoteNumber":52,"Velocity":58,"Duration":119105,"SoundDuration":119105,"Delta":21446352},{"NoteNumber":55,"Velocity":61,"Duration":118701,"SoundDuration":118701,"Delta":21548451},{"NoteNumber":57,"Velocity":64,"Duration":118186,"SoundDuration":118186,"Delta":21650204},{"NoteNumber":58,"Velocity":67,"Duration":118015,"SoundDuration":118015,"Delta":21751555},{"NoteNumber":57,"Velocity":63,"Duration":118529,"SoundDuration":118529,"Delta":21852679},{"NoteNumber":55,"Velocity":63,"Duration":119105,"SoundDuration":119105,"Delta":21954260},{"NoteNumber":52,"Velocity":64,"Duration":102564,"SoundDuration":102564,"Delta":22056301},{"NoteNumber":64,"Velocity":68,"Duration":822030,"SoundDuration":822030,"Delta":22158865},{"NoteNumber":37,"Velocity":50,"Duration":822030,"SoundDuration":822030,"Delta":22158865},{"NoteNumber":49,"Velocity":50,"Duration":822030,"SoundDuration":822030,"Delta":22158865},{"NoteNumber":55,"Velocity":61,"Duration":118644,"SoundDuration":118644,"Delta":22263032},{"NoteNumber":57,"Velocity":61,"Duration":118817,"SoundDuration":118817,"Delta":22364727},{"NoteNumber":58,"Velocity":61,"Duration":119221,"SoundDuration":119221,"Delta":22466537},{"NoteNumber":57,"Velocity":55,"Duration":119687,"SoundDuration":119687,"Delta":22568694},{"NoteNumber":58,"Velocity":54,"Duration":120098,"SoundDuration":120098,"Delta":22671258},{"NoteNumber":57,"Velocity":52,"Duration":120511,"SoundDuration":120511,"Delta":22774175},{"NoteNumber":55,"Velocity":51,"Duration":103450,"SoundDuration":103450,"Delta":22877445},{"NoteNumber":38,"Velocity":50,"Duration":414167,"SoundDuration":414167,"Delta":22980896},{"NoteNumber":50,"Velocity":50,"Duration":414167,"SoundDuration":414167,"Delta":22980896},{"NoteNumber":53,"Velocity":58,"Duration":102739,"SoundDuration":102739,"Delta":23083577},{"NoteNumber":62,"Velocity":55,"Duration":102739,"SoundDuration":102739,"Delta":23186317},{"NoteNumber":53,"Velocity":49,"Duration":106007,"SoundDuration":106007,"Delta":23289057},{"NoteNumber":48,"Velocity":54,"Duration":412747,"SoundDuration":412747,"Delta":23395064},{"NoteNumber":50,"Velocity":54,"Duration":412747,"SoundDuration":412747,"Delta":23395064},{"NoteNumber":54,"Velocity":65,"Duration":102388,"SoundDuration":102388,"Delta":23498056},{"NoteNumber":62,"Velocity":59,"Duration":102389,"SoundDuration":102389,"Delta":23600445},{"NoteNumber":54,"Velocity":57,"Duration":104977,"SoundDuration":104977,"Delta":23702834},{"NoteNumber":47,"Velocity":58,"Duration":415661,"SoundDuration":415661,"Delta":23807811},{"NoteNumber":50,"Velocity":58,"Duration":415661,"SoundDuration":415661,"Delta":23807811},{"NoteNumber":55,"Velocity":70,"Duration":103092,"SoundDuration":103092,"Delta":23910904},{"NoteNumber":62,"Velocity":66,"Duration":103092,"SoundDuration":103092,"Delta":24013996},{"NoteNumber":55,"Velocity":60,"Duration":106383,"SoundDuration":106383,"Delta":24117089},{"NoteNumber":46,"Velocity":63,"Duration":418302,"SoundDuration":418302,"Delta":24223472},{"NoteNumber":50,"Velocity":63,"Duration":418302,"SoundDuration":418302,"Delta":24223472},{"NoteNumber":56,"Velocity":74,"Duration":104348,"SoundDuration":104348,"Delta":24328367},{"NoteNumber":62,"Velocity":66,"Duration":104529,"SoundDuration":104529,"Delta":24432716},{"NoteNumber":56,"Velocity":61,"Duration":104529,"SoundDuration":104529,"Delta":24537245},{"NoteNumber":45,"Velocity":64,"Duration":1267526,"SoundDuration":1267526,"Delta":24641775},{"NoteNumber":50,"Velocity":64,"Duration":846001,"SoundDuration":846001,"Delta":24641775},{"NoteNumber":53,"Velocity":64,"Duration":846001,"SoundDuration":846001,"Delta":24641775},{"NoteNumber":57,"Velocity":62,"Duration":102975,"SoundDuration":102975,"Delta":24759009},{"NoteNumber":62,"Velocity":65,"Duration":103567,"SoundDuration":103567,"Delta":24861984},{"NoteNumber":65,"Velocity":67,"Duration":104107,"SoundDuration":104107,"Delta":24965551},{"NoteNumber":69,"Velocity":70,"Duration":104529,"SoundDuration":104529,"Delta":25069659},{"NoteNumber":65,"Velocity":68,"Duration":104529,"SoundDuration":104529,"Delta":25174188},{"NoteNumber":62,"Velocity":66,"Duration":104529,"SoundDuration":104529,"Delta":25278718},{"NoteNumber":57,"Velocity":64,"Duration":104529,"SoundDuration":104529,"Delta":25383247},{"NoteNumber":49,"Velocity":60,"Duration":421524,"SoundDuration":421524,"Delta":25487777},{"NoteNumber":52,"Velocity":60,"Duration":421524,"SoundDuration":421524,"Delta":25487777},{"NoteNumber":57,"Velocity":62,"Duration":102975,"SoundDuration":102975,"Delta":25598651},{"NoteNumber":61,"Velocity":65,"Duration":103567,"SoundDuration":103567,"Delta":25701627},{"NoteNumber":64,"Velocity":68,"Duration":104107,"SoundDuration":104107,"Delta":25805194},{"NoteNumber":69,"Velocity":71,"Duration":104529,"SoundDuration":104529,"Delta":25909301},{"NoteNumber":64,"Velocity":68,"Duration":104529,"SoundDuration":104529,"Delta":26013831},{"NoteNumber":61,"Velocity":67,"Duration":104529,"SoundDuration":104529,"Delta":26118360},{"NoteNumber":57,"Velocity":65,"Duration":104529,"SoundDuration":104529,"Delta":26222890},{"NoteNumber":41,"Velocity":70,"Duration":542209,"SoundDuration":542209,"Delta":26327419},{"NoteNumber":57,"Velocity":72,"Duration":104166,"SoundDuration":104166,"Delta":26441923},{"NoteNumber":60,"Velocity":75,"Duration":104166,"SoundDuration":104166,"Delta":26546090},{"NoteNumber":57,"Velocity":73,"Duration":103987,"SoundDuration":103987,"Delta":26650256},{"NoteNumber":69,"Velocity":76,"Duration":426803,"SoundDuration":426803,"Delta":26754244},{"NoteNumber":41,"Velocity":63,"Duration":103806,"SoundDuration":103806,"Delta":26869629},{"NoteNumber":40,"Velocity":68,"Duration":103806,"SoundDuration":103806,"Delta":26973435},{"NoteNumber":41,"Velocity":63,"Duration":103806,"SoundDuration":103806,"Delta":27077241},{"NoteNumber":45,"Velocity":76,"Duration":536926,"SoundDuration":536926,"Delta":27181047},{"NoteNumber":60,"Velocity":70,"Duration":103806,"SoundDuration":103806,"Delta":27294255},{"NoteNumber":65,"Velocity":74,"Duration":103806,"SoundDuration":103806,"Delta":27398061},{"NoteNumber":60,"Velocity":73,"Duration":103746,"SoundDuration":103746,"Delta":27501867},{"NoteNumber":72,"Velocity":77,"Duration":422704,"SoundDuration":422704,"Delta":27605614},{"NoteNumber":45,"Velocity":63,"Duration":103448,"SoundDuration":103448,"Delta":27717973},{"NoteNumber":44,"Velocity":68,"Duration":103448,"SoundDuration":103448,"Delta":27821422},{"NoteNumber":45,"Velocity":63,"Duration":103448,"SoundDuration":103448,"Delta":27924870},{"NoteNumber":48,"Velocity":75,"Duration":846347,"SoundDuration":846347,"Delta":28028318},{"NoteNumber":57,"Velocity":68,"Duration":102975,"SoundDuration":102975,"Delta":28145898},{"NoteNumber":60,"Velocity":71,"Duration":103567,"SoundDuration":103567,"Delta":28248873},{"NoteNumber":65,"Velocity":73,"Duration":104107,"SoundDuration":104107,"Delta":28352441},{"NoteNumber":69,"Velocity":76,"Duration":418117,"SoundDuration":418117,"Delta":28456548},{"NoteNumber":65,"Velocity":74,"Duration":104529,"SoundDuration":104529,"Delta":28561077},{"NoteNumber":60,"Velocity":72,"Duration":104529,"SoundDuration":104529,"Delta":28665607},{"NoteNumber":57,"Velocity":70,"Duration":104529,"SoundDuration":104529,"Delta":28770136},{"NoteNumber":36,"Velocity":66,"Duration":839642,"SoundDuration":839642,"Delta":28874666},{"NoteNumber":55,"Velocity":63,"Duration":102975,"SoundDuration":102975,"Delta":28985541},{"NoteNumber":60,"Velocity":67,"Duration":103567,"SoundDuration":103567,"Delta":29088516},{"NoteNumber":64,"Velocity":69,"Duration":104107,"SoundDuration":104107,"Delta":29192083},{"NoteNumber":67,"Velocity":72,"Duration":418117,"SoundDuration":418117,"Delta":29296190},{"NoteNumber":64,"Velocity":70,"Duration":104529,"SoundDuration":104529,"Delta":29400720},{"NoteNumber":60,"Velocity":68,"Duration":104529,"SoundDuration":104529,"Delta":29505249},{"NoteNumber":55,"Velocity":66,"Duration":104529,"SoundDuration":104529,"Delta":29609779},{"NoteNumber":43,"Velocity":70,"Duration":542209,"SoundDuration":542209,"Delta":29714308},{"NoteNumber":58,"Velocity":72,"Duration":104166,"SoundDuration":104166,"Delta":29828812},{"NoteNumber":62,"Velocity":75,"Duration":104166,"SoundDuration":104166,"Delta":29932979},{"NoteNumber":58,"Velocity":73,"Duration":103987,"SoundDuration":103987,"Delta":30037146},{"NoteNumber":70,"Velocity":76,"Duration":426803,"SoundDuration":426803,"Delta":30141133},{"NoteNumber":43,"Velocity":63,"Duration":103806,"SoundDuration":103806,"Delta":30256518},{"NoteNumber":42,"Velocity":68,"Duration":103806,"SoundDuration":103806,"Delta":30360324},{"NoteNumber":43,"Velocity":63,"Duration":103806,"SoundDuration":103806,"Delta":30464130},{"NoteNumber":37,"Velocity":75,"Duration":536926,"SoundDuration":536926,"Delta":30567937},{"NoteNumber":57,"Velocity":70,"Duration":103806,"SoundDuration":103806,"Delta":30681144},{"NoteNumber":64,"Velocity":74,"Duration":103806,"SoundDuration":103806,"Delta":30784950},{"NoteNumber":57,"Velocity":73,"Duration":103746,"SoundDuration":103746,"Delta":30888757},{"NoteNumber":69,"Velocity":77,"Duration":422704,"SoundDuration":422704,"Delta":30992503},{"NoteNumber":37,"Velocity":63,"Duration":103448,"SoundDuration":103448,"Delta":31104863},{"NoteNumber":36,"Velocity":68,"Duration":103448,"SoundDuration":103448,"Delta":31208311},{"NoteNumber":37,"Velocity":63,"Duration":103448,"SoundDuration":103448,"Delta":31311759},{"NoteNumber":40,"Velocity":72,"Duration":846876,"SoundDuration":846876,"Delta":31415208},{"NoteNumber":57,"Velocity":72,"Duration":104166,"SoundDuration":104166,"Delta":31529711},{"NoteNumber":61,"Velocity":75,"Duration":104166,"SoundDuration":104166,"Delta":31633878},{"NoteNumber":57,"Velocity":73,"Duration":108091,"SoundDuration":108091,"Delta":31738045},{"NoteNumber":67,"Velocity":80,"Duration":840574,"SoundDuration":840574,"Delta":31846136},{"NoteNumber":57,"Velocity":63,"Duration":103806,"SoundDuration":103806,"Delta":31950666},{"NoteNumber":61,"Velocity":68,"Duration":103806,"SoundDuration":103806,"Delta":32054472},{"NoteNumber":57,"Velocity":63,"Duration":103806,"SoundDuration":103806,"Delta":32158278},{"NoteNumber":38,"Velocity":72,"Duration":838777,"SoundDuration":838777,"Delta":32262084},{"NoteNumber":57,"Velocity":73,"Duration":103806,"SoundDuration":103806,"Delta":32375292},{"NoteNumber":62,"Velocity":77,"Duration":103806,"SoundDuration":103806,"Delta":32479098},{"NoteNumber":57,"Velocity":76,"Duration":103806,"SoundDuration":103806,"Delta":32582904},{"NoteNumber":65,"Velocity":80,"Duration":414150,"SoundDuration":414150,"Delta":32686711},{"NoteNumber":57,"Velocity":66,"Duration":103448,"SoundDuration":103448,"Delta":32790517},{"NoteNumber":62,"Velocity":71,"Duration":103448,"SoundDuration":103448,"Delta":32893965},{"NoteNumber":57,"Velocity":66,"Duration":103448,"SoundDuration":103448,"Delta":32997413},{"NoteNumber":32,"Velocity":82,"Duration":650905,"SoundDuration":650905,"Delta":33100862},{"NoteNumber":44,"Velocity":82,"Duration":650905,"SoundDuration":650905,"Delta":33100862},{"NoteNumber":62,"Velocity":86,"Duration":104166,"SoundDuration":104166,"Delta":33215365},{"NoteNumber":65,"Velocity":91,"Duration":104166,"SoundDuration":104166,"Delta":33319532},{"NoteNumber":62,"Velocity":84,"Duration":103987,"SoundDuration":103987,"Delta":33423699},{"NoteNumber":74,"Velocity":96,"Duration":441471,"SoundDuration":441471,"Delta":33527687},{"NoteNumber":33,"Velocity":81,"Duration":108695,"SoundDuration":108695,"Delta":33751767},{"NoteNumber":45,"Velocity":81,"Duration":108695,"SoundDuration":108695,"Delta":33751767},{"NoteNumber":34,"Velocity":86,"Duration":680356,"SoundDuration":680356,"Delta":33969158},{"NoteNumber":46,"Velocity":86,"Duration":680356,"SoundDuration":680356,"Delta":33969158},{"NoteNumber":74,"Velocity":87,"Duration":107913,"SoundDuration":107913,"Delta":34083662},{"NoteNumber":77,"Velocity":95,"Duration":107913,"SoundDuration":107913,"Delta":34191576},{"NoteNumber":74,"Velocity":89,"Duration":107110,"SoundDuration":107110,"Delta":34299490},{"NoteNumber":86,"Velocity":101,"Duration":410956,"SoundDuration":410956,"Delta":34406600},{"NoteNumber":33,"Velocity":82,"Duration":121457,"SoundDuration":121457,"Delta":34649515},{"NoteNumber":45,"Velocity":82,"Duration":121457,"SoundDuration":121457,"Delta":34649515},{"NoteNumber":77,"Velocity":77,"Duration":264751,"SoundDuration":264751,"Delta":34817556},{"NoteNumber":83,"Velocity":85,"Duration":218167,"SoundDuration":218167,"Delta":34864140},{"NoteNumber":86,"Velocity":93,"Duration":171583,"SoundDuration":171583,"Delta":34910724},{"NoteNumber":89,"Velocity":106,"Duration":125000,"SoundDuration":125000,"Delta":34957308},{"NoteNumber":32,"Velocity":86,"Duration":125000,"SoundDuration":125000,"Delta":34957308},{"NoteNumber":44,"Velocity":86,"Duration":125000,"SoundDuration":125000,"Delta":34957308},{"NoteNumber":53,"Velocity":80,"Duration":120334,"SoundDuration":120334,"Delta":35457308},{"NoteNumber":41,"Velocity":68,"Duration":120334,"SoundDuration":120334,"Delta":35457308},{"NoteNumber":52,"Velocity":79,"Duration":120868,"SoundDuration":120868,"Delta":35560401},{"NoteNumber":40,"Velocity":67,"Duration":120868,"SoundDuration":120868,"Delta":35560401},{"NoteNumber":51,"Velocity":77,"Duration":121468,"SoundDuration":121468,"Delta":35663968},{"NoteNumber":39,"Velocity":65,"Duration":121468,"SoundDuration":121468,"Delta":35663968},{"NoteNumber":50,"Velocity":75,"Duration":104651,"SoundDuration":104651,"Delta":35768015},{"NoteNumber":38,"Velocity":64,"Duration":104651,"SoundDuration":104651,"Delta":35768015},{"NoteNumber":53,"Velocity":75,"Duration":120512,"SoundDuration":120512,"Delta":35872666},{"NoteNumber":41,"Velocity":64,"Duration":120512,"SoundDuration":120512,"Delta":35872666},{"NoteNumber":52,"Velocity":72,"Duration":121649,"SoundDuration":121649,"Delta":35975877},{"NoteNumber":40,"Velocity":60,"Duration":121649,"SoundDuration":121649,"Delta":35975877},{"NoteNumber":51,"Velocity":69,"Duration":122746,"SoundDuration":122746,"Delta":36080045},{"NoteNumber":39,"Velocity":57,"Duration":122746,"SoundDuration":122746,"Delta":36080045},{"NoteNumber":50,"Velocity":65,"Duration":106195,"SoundDuration":106195,"Delta":36185186},{"NoteNumber":38,"Velocity":55,"Duration":106195,"SoundDuration":106195,"Delta":36185186},{"NoteNumber":53,"Velocity":69,"Duration":121468,"SoundDuration":121468,"Delta":36291382},{"NoteNumber":41,"Velocity":58,"Duration":121468,"SoundDuration":121468,"Delta":36291382},{"NoteNumber":52,"Velocity":67,"Duration":122685,"SoundDuration":122685,"Delta":36395429},{"NoteNumber":40,"Velocity":57,"Duration":122685,"SoundDuration":122685,"Delta":36395429},{"NoteNumber":51,"Velocity":63,"Duration":123989,"SoundDuration":123989,"Delta":36500509},{"NoteNumber":39,"Velocity":53,"Duration":123989,"SoundDuration":123989,"Delta":36500509},{"NoteNumber":50,"Velocity":61,"Duration":546895,"SoundDuration":546895,"Delta":36606704},{"NoteNumber":38,"Velocity":51,"Duration":107335,"SoundDuration":107335,"Delta":36606704},{"NoteNumber":57,"Velocity":56,"Duration":439560,"SoundDuration":439560,"Delta":36714040},{"NoteNumber":53,"Velocity":47,"Duration":439560,"SoundDuration":439560,"Delta":36714040},{"NoteNumber":33,"Velocity":48,"Duration":109890,"SoundDuration":109890,"Delta":36714040},{"NoteNumber":45,"Velocity":45,"Duration":109890,"SoundDuration":109890,"Delta":36823930},{"NoteNumber":44,"Velocity":45,"Duration":109890,"SoundDuration":109890,"Delta":36933820},{"NoteNumber":45,"Velocity":45,"Duration":109890,"SoundDuration":109890,"Delta":37043710},{"NoteNumber":53,"Velocity":51,"Duration":360762,"SoundDuration":360762,"Delta":37153600},{"NoteNumber":57,"Velocity":51,"Duration":360762,"SoundDuration":360762,"Delta":37153600},{"NoteNumber":62,"Velocity":60,"Duration":360762,"SoundDuration":360762,"Delta":37153600},{"NoteNumber":33,"Velocity":50,"Duration":110294,"SoundDuration":110294,"Delta":37153600},{"NoteNumber":45,"Velocity":48,"Duration":110293,"SoundDuration":110293,"Delta":37263894},{"NoteNumber":44,"Velocity":48,"Duration":110294,"SoundDuration":110294,"Delta":37374188},{"NoteNumber":45,"Velocity":48,"Duration":49800,"SoundDuration":49800,"Delta":37484482},{"NoteNumber":52,"Velocity":49,"Duration":979076,"SoundDuration":979076,"Delta":37514363},{"NoteNumber":55,"Velocity":52,"Duration":949195,"SoundDuration":949195,"Delta":37544243},{"NoteNumber":58,"Velocity":55,"Duration":466244,"SoundDuration":466244,"Delta":37574124},{"NoteNumber":62,"Velocity":65,"Duration":436363,"SoundDuration":436363,"Delta":37604004},{"NoteNumber":33,"Velocity":53,"Duration":109090,"SoundDuration":109090,"Delta":37604004},{"NoteNumber":45,"Velocity":50,"Duration":109090,"SoundDuration":109090,"Delta":37713095},{"NoteNumber":44,"Velocity":47,"Duration":109090,"SoundDuration":109090,"Delta":37822186},{"NoteNumber":45,"Velocity":45,"Duration":109090,"SoundDuration":109090,"Delta":37931277},{"NoteNumber":57,"Velocity":48,"Duration":453070,"SoundDuration":453070,"Delta":38040368},{"NoteNumber":61,"Velocity":57,"Duration":453070,"SoundDuration":453070,"Delta":38040368},{"NoteNumber":33,"Velocity":48,"Duration":110700,"SoundDuration":110700,"Delta":38040368},{"NoteNumber":45,"Velocity":45,"Duration":110700,"SoundDuration":110700,"Delta":38151069},{"NoteNumber":44,"Velocity":45,"Duration":110701,"SoundDuration":110701,"Delta":38261770},{"NoteNumber":45,"Velocity":45,"Duration":120967,"SoundDuration":120967,"Delta":38372471},{"NoteNumber":53,"Velocity":53,"Duration":450918,"SoundDuration":450918,"Delta":38493439},{"NoteNumber":62,"Velocity":59,"Duration":450918,"SoundDuration":450918,"Delta":38493439},{"NoteNumber":57,"Velocity":53,"Duration":450918,"SoundDuration":450918,"Delta":38493439},{"NoteNumber":38,"Velocity":52,"Duration":131369,"SoundDuration":131369,"Delta":38493439},{"NoteNumber":45,"Velocity":46,"Duration":131578,"SoundDuration":131578,"Delta":38606011},{"NoteNumber":44,"Velocity":46,"Duration":131579,"SoundDuration":131579,"Delta":38718793},{"NoteNumber":45,"Velocity":47,"Duration":131508,"SoundDuration":131508,"Delta":38831575},{"NoteNumber":64,"Velocity":62,"Duration":452271,"SoundDuration":452271,"Delta":38944357},{"NoteNumber":61,"Velocity":55,"Duration":452271,"SoundDuration":452271,"Delta":38944357},{"NoteNumber":57,"Velocity":55,"Duration":452271,"SoundDuration":452271,"Delta":38944357},{"NoteNumber":33,"Velocity":54,"Duration":131156,"SoundDuration":131156,"Delta":38944357},{"NoteNumber":45,"Velocity":50,"Duration":131720,"SoundDuration":131720,"Delta":39056717},{"NoteNumber":44,"Velocity":50,"Duration":132218,"SoundDuration":132218,"Delta":39169570},{"NoteNumber":45,"Velocity":51,"Duration":132791,"SoundDuration":132791,"Delta":39282849},{"NoteNumber":57,"Velocity":60,"Duration":459781,"SoundDuration":459781,"Delta":39396629},{"NoteNumber":62,"Velocity":60,"Duration":459781,"SoundDuration":459781,"Delta":39396629},{"NoteNumber":65,"Velocity":67,"Duration":459781,"SoundDuration":459781,"Delta":39396629},{"NoteNumber":38,"Velocity":64,"Duration":133297,"SoundDuration":133297,"Delta":39396629},{"NoteNumber":45,"Velocity":57,"Duration":133880,"SoundDuration":133880,"Delta":39510843},{"NoteNumber":44,"Velocity":57,"Duration":134394,"SoundDuration":134394,"Delta":39625566},{"NoteNumber":45,"Velocity":57,"Duration":134986,"SoundDuration":134986,"Delta":39740729},{"NoteNumber":67,"Velocity":70,"Duration":476419,"SoundDuration":476419,"Delta":39856411},{"NoteNumber":60,"Velocity":62,"Duration":476419,"SoundDuration":476419,"Delta":39856411},{"NoteNumber":64,"Velocity":62,"Duration":476419,"SoundDuration":476419,"Delta":39856411},{"NoteNumber":36,"Velocity":74,"Duration":135509,"SoundDuration":135509,"Delta":39856411},{"NoteNumber":48,"Velocity":65,"Duration":136111,"SoundDuration":136111,"Delta":39972540},{"NoteNumber":47,"Velocity":65,"Duration":138479,"SoundDuration":138479,"Delta":40089196},{"NoteNumber":48,"Velocity":65,"Duration":145606,"SoundDuration":145606,"Delta":40206308},{"NoteNumber":41,"Velocity":70,"Duration":542209,"SoundDuration":542209,"Delta":40332830},{"NoteNumber":57,"Velocity":72,"Duration":104166,"SoundDuration":104166,"Delta":40447334},{"NoteNumber":60,"Velocity":75,"Duration":104166,"SoundDuration":104166,"Delta":40551501},{"NoteNumber":57,"Velocity":73,"Duration":103987,"SoundDuration":103987,"Delta":40655668},{"NoteNumber":69,"Velocity":76,"Duration":426803,"SoundDuration":426803,"Delta":40759655},{"NoteNumber":41,"Velocity":63,"Duration":103806,"SoundDuration":103806,"Delta":40875040},{"NoteNumber":40,"Velocity":68,"Duration":103806,"SoundDuration":103806,"Delta":40978846},{"NoteNumber":41,"Velocity":63,"Duration":103806,"SoundDuration":103806,"Delta":41082652},{"NoteNumber":45,"Velocity":74,"Duration":536926,"SoundDuration":536926,"Delta":41186459},{"NoteNumber":60,"Velocity":70,"Duration":103806,"SoundDuration":103806,"Delta":41299666},{"NoteNumber":65,"Velocity":74,"Duration":103806,"SoundDuration":103806,"Delta":41403472},{"NoteNumber":60,"Velocity":73,"Duration":103746,"SoundDuration":103746,"Delta":41507279},{"NoteNumber":72,"Velocity":77,"Duration":422704,"SoundDuration":422704,"Delta":41611025},{"NoteNumber":45,"Velocity":63,"Duration":103448,"SoundDuration":103448,"Delta":41723385},{"NoteNumber":44,"Velocity":68,"Duration":103448,"SoundDuration":103448,"Delta":41826833},{"NoteNumber":45,"Velocity":63,"Duration":103448,"SoundDuration":103448,"Delta":41930281},{"NoteNumber":48,"Velocity":74,"Duration":846001,"SoundDuration":846001,"Delta":42033729},{"NoteNumber":57,"Velocity":68,"Duration":102975,"SoundDuration":102975,"Delta":42150964},{"NoteNumber":60,"Velocity":71,"Duration":103567,"SoundDuration":103567,"Delta":42253939},{"NoteNumber":65,"Velocity":73,"Duration":104107,"SoundDuration":104107,"Delta":42357506},{"NoteNumber":69,"Velocity":76,"Duration":418118,"SoundDuration":418118,"Delta":42461613},{"NoteNumber":65,"Velocity":74,"Duration":104529,"SoundDuration":104529,"Delta":42566143},{"NoteNumber":60,"Velocity":72,"Duration":104529,"SoundDuration":104529,"Delta":42670672},{"NoteNumber":57,"Velocity":70,"Duration":104529,"SoundDuration":104529,"Delta":42775202},{"NoteNumber":36,"Velocity":66,"Duration":839642,"SoundDuration":839642,"Delta":42879731},{"NoteNumber":55,"Velocity":63,"Duration":102975,"SoundDuration":102975,"Delta":42990606},{"NoteNumber":60,"Velocity":67,"Duration":103567,"SoundDuration":103567,"Delta":43093581},{"NoteNumber":64,"Velocity":69,"Duration":104107,"SoundDuration":104107,"Delta":43197149},{"NoteNumber":67,"Velocity":72,"Duration":418118,"SoundDuration":418118,"Delta":43301256},{"NoteNumber":64,"Velocity":70,"Duration":104529,"SoundDuration":104529,"Delta":43405785},{"NoteNumber":60,"Velocity":68,"Duration":104529,"SoundDuration":104529,"Delta":43510315},{"NoteNumber":55,"Velocity":66,"Duration":104529,"SoundDuration":104529,"Delta":43614844},{"NoteNumber":43,"Velocity":70,"Duration":542209,"SoundDuration":542209,"Delta":43719374},{"NoteNumber":58,"Velocity":72,"Duration":104166,"SoundDuration":104166,"Delta":43833878},{"NoteNumber":62,"Velocity":75,"Duration":104166,"SoundDuration":104166,"Delta":43938044},{"NoteNumber":58,"Velocity":73,"Duration":103987,"SoundDuration":103987,"Delta":44042211},{"NoteNumber":70,"Velocity":76,"Duration":426803,"SoundDuration":426803,"Delta":44146199},{"NoteNumber":43,"Velocity":63,"Duration":103806,"SoundDuration":103806,"Delta":44261583},{"NoteNumber":42,"Velocity":68,"Duration":103806,"SoundDuration":103806,"Delta":44365390},{"NoteNumber":43,"Velocity":63,"Duration":103806,"SoundDuration":103806,"Delta":44469196},{"NoteNumber":37,"Velocity":76,"Duration":536926,"SoundDuration":536926,"Delta":44573002},{"NoteNumber":57,"Velocity":70,"Duration":103806,"SoundDuration":103806,"Delta":44686210},{"NoteNumber":64,"Velocity":74,"Duration":103806,"SoundDuration":103806,"Delta":44790016},{"NoteNumber":57,"Velocity":73,"Duration":103746,"SoundDuration":103746,"Delta":44893822},{"NoteNumber":69,"Velocity":77,"Duration":422704,"SoundDuration":422704,"Delta":44997569},{"NoteNumber":37,"Velocity":63,"Duration":103448,"SoundDuration":103448,"Delta":45109928},{"NoteNumber":36,"Velocity":68,"Duration":103448,"SoundDuration":103448,"Delta":45213376},{"NoteNumber":37,"Velocity":63,"Duration":103448,"SoundDuration":103448,"Delta":45316825},{"NoteNumber":40,"Velocity":74,"Duration":846876,"SoundDuration":846876,"Delta":45420273},{"NoteNumber":57,"Velocity":72,"Duration":104166,"SoundDuration":104166,"Delta":45534777},{"NoteNumber":61,"Velocity":75,"Duration":104166,"SoundDuration":104166,"Delta":45638943},{"NoteNumber":57,"Velocity":73,"Duration":108091,"SoundDuration":108091,"Delta":45743110},{"NoteNumber":67,"Velocity":80,"Duration":840574,"SoundDuration":840574,"Delta":45851202},{"NoteNumber":57,"Velocity":63,"Duration":103806,"SoundDuration":103806,"Delta":45955731},{"NoteNumber":61,"Velocity":68,"Duration":103806,"SoundDuration":103806,"Delta":46059537},{"NoteNumber":57,"Velocity":63,"Duration":103806,"SoundDuration":103806,"Delta":46163344},{"NoteNumber":38,"Velocity":72,"Duration":838777,"SoundDuration":838777,"Delta":46267150},{"NoteNumber":57,"Velocity":73,"Duration":103806,"SoundDuration":103806,"Delta":46380357},{"NoteNumber":62,"Velocity":77,"Duration":103806,"SoundDuration":103806,"Delta":46484164},{"NoteNumber":57,"Velocity":76,"Duration":103806,"SoundDuration":103806,"Delta":46587970},{"NoteNumber":65,"Velocity":80,"Duration":414150,"SoundDuration":414150,"Delta":46691776},{"NoteNumber":57,"Velocity":66,"Duration":103448,"SoundDuration":103448,"Delta":46795582},{"NoteNumber":62,"Velocity":71,"Duration":103448,"SoundDuration":103448,"Delta":46899031},{"NoteNumber":57,"Velocity":66,"Duration":103448,"SoundDuration":103448,"Delta":47002479},{"NoteNumber":32,"Velocity":82,"Duration":650905,"SoundDuration":650905,"Delta":47105927},{"NoteNumber":44,"Velocity":82,"Duration":650905,"SoundDuration":650905,"Delta":47105927},{"NoteNumber":62,"Velocity":86,"Duration":104166,"SoundDuration":104166,"Delta":47220431},{"NoteNumber":65,"Velocity":91,"Duration":104166,"SoundDuration":104166,"Delta":47324598},{"NoteNumber":62,"Velocity":84,"Duration":103987,"SoundDuration":103987,"Delta":47428764},{"NoteNumber":74,"Velocity":96,"Duration":441471,"SoundDuration":441471,"Delta":47532752},{"NoteNumber":33,"Velocity":81,"Duration":108695,"SoundDuration":108695,"Delta":47756832},{"NoteNumber":45,"Velocity":81,"Duration":108695,"SoundDuration":108695,"Delta":47756832},{"NoteNumber":34,"Velocity":86,"Duration":681460,"SoundDuration":681460,"Delta":47974224},{"NoteNumber":46,"Velocity":86,"Duration":681460,"SoundDuration":681460,"Delta":47974224},{"NoteNumber":74,"Velocity":87,"Duration":108303,"SoundDuration":108303,"Delta":48088728},{"NoteNumber":77,"Velocity":95,"Duration":108303,"SoundDuration":108303,"Delta":48197031},{"NoteNumber":74,"Velocity":89,"Duration":107434,"SoundDuration":107434,"Delta":48305334},{"NoteNumber":86,"Velocity":101,"Duration":411247,"SoundDuration":411247,"Delta":48412769},{"NoteNumber":33,"Velocity":82,"Duration":121457,"SoundDuration":121457,"Delta":48655684},{"NoteNumber":45,"Velocity":82,"Duration":121457,"SoundDuration":121457,"Delta":48655684},{"NoteNumber":77,"Velocity":77,"Duration":265625,"SoundDuration":265625,"Delta":48824016},{"NoteNumber":83,"Velocity":85,"Duration":218750,"SoundDuration":218750,"Delta":48870891},{"NoteNumber":86,"Velocity":93,"Duration":171875,"SoundDuration":171875,"Delta":48917766},{"NoteNumber":89,"Velocity":106,"Duration":125000,"SoundDuration":125000,"Delta":48964641},{"NoteNumber":32,"Velocity":86,"Duration":125000,"SoundDuration":125000,"Delta":48964641},{"NoteNumber":44,"Velocity":86,"Duration":125000,"SoundDuration":125000,"Delta":48964641},{"NoteNumber":53,"Velocity":80,"Duration":120334,"SoundDuration":120334,"Delta":49464641},{"NoteNumber":41,"Velocity":68,"Duration":120334,"SoundDuration":120334,"Delta":49464641},{"NoteNumber":52,"Velocity":79,"Duration":120868,"SoundDuration":120868,"Delta":49567734},{"NoteNumber":40,"Velocity":67,"Duration":120868,"SoundDuration":120868,"Delta":49567734},{"NoteNumber":51,"Velocity":77,"Duration":121468,"SoundDuration":121468,"Delta":49671302},{"NoteNumber":39,"Velocity":65,"Duration":121468,"SoundDuration":121468,"Delta":49671302},{"NoteNumber":50,"Velocity":75,"Duration":104651,"SoundDuration":104651,"Delta":49775348},{"NoteNumber":38,"Velocity":64,"Duration":104651,"SoundDuration":104651,"Delta":49775348},{"NoteNumber":53,"Velocity":75,"Duration":120512,"SoundDuration":120512,"Delta":49880000},{"NoteNumber":41,"Velocity":64,"Duration":120512,"SoundDuration":120512,"Delta":49880000},{"NoteNumber":52,"Velocity":72,"Duration":121649,"SoundDuration":121649,"Delta":49983211},{"NoteNumber":40,"Velocity":60,"Duration":121649,"SoundDuration":121649,"Delta":49983211},{"NoteNumber":51,"Velocity":69,"Duration":122746,"SoundDuration":122746,"Delta":50087378},{"NoteNumber":39,"Velocity":57,"Duration":122746,"SoundDuration":122746,"Delta":50087378},{"NoteNumber":50,"Velocity":65,"Duration":106195,"SoundDuration":106195,"Delta":50192519},{"NoteNumber":38,"Velocity":55,"Duration":106195,"SoundDuration":106195,"Delta":50192519},{"NoteNumber":53,"Velocity":69,"Duration":121468,"SoundDuration":121468,"Delta":50298715},{"NoteNumber":41,"Velocity":58,"Duration":121468,"SoundDuration":121468,"Delta":50298715},{"NoteNumber":52,"Velocity":67,"Duration":122685,"SoundDuration":122685,"Delta":50402762},{"NoteNumber":40,"Velocity":57,"Duration":122685,"SoundDuration":122685,"Delta":50402762},{"NoteNumber":51,"Velocity":63,"Duration":123989,"SoundDuration":123989,"Delta":50507842},{"NoteNumber":39,"Velocity":53,"Duration":123989,"SoundDuration":123989,"Delta":50507842},{"NoteNumber":50,"Velocity":61,"Duration":546895,"SoundDuration":546895,"Delta":50614038},{"NoteNumber":38,"Velocity":51,"Duration":107335,"SoundDuration":107335,"Delta":50614038},{"NoteNumber":57,"Velocity":56,"Duration":439560,"SoundDuration":439560,"Delta":50721374},{"NoteNumber":53,"Velocity":47,"Duration":439560,"SoundDuration":439560,"Delta":50721374},{"NoteNumber":33,"Velocity":48,"Duration":109890,"SoundDuration":109890,"Delta":50721374},{"NoteNumber":45,"Velocity":45,"Duration":109890,"SoundDuration":109890,"Delta":50831264},{"NoteNumber":44,"Velocity":45,"Duration":109890,"SoundDuration":109890,"Delta":50941154},{"NoteNumber":45,"Velocity":45,"Duration":109890,"SoundDuration":109890,"Delta":51051044},{"NoteNumber":62,"Velocity":60,"Duration":360762,"SoundDuration":360762,"Delta":51160934},{"NoteNumber":57,"Velocity":51,"Duration":360762,"SoundDuration":360762,"Delta":51160934},{"NoteNumber":53,"Velocity":51,"Duration":360762,"SoundDuration":360762,"Delta":51160934},{"NoteNumber":33,"Velocity":50,"Duration":110294,"SoundDuration":110294,"Delta":51160934},{"NoteNumber":45,"Velocity":48,"Duration":110293,"SoundDuration":110293,"Delta":51271228},{"NoteNumber":44,"Velocity":48,"Duration":110294,"SoundDuration":110294,"Delta":51381522},{"NoteNumber":45,"Velocity":48,"Duration":49800,"SoundDuration":49800,"Delta":51491816},{"NoteNumber":52,"Velocity":49,"Duration":979076,"SoundDuration":979076,"Delta":51521696},{"NoteNumber":55,"Velocity":52,"Duration":949195,"SoundDuration":949195,"Delta":51551577},{"NoteNumber":58,"Velocity":55,"Duration":466244,"SoundDuration":466244,"Delta":51581457},{"NoteNumber":62,"Velocity":65,"Duration":436363,"SoundDuration":436363,"Delta":51611338},{"NoteNumber":33,"Velocity":53,"Duration":109090,"SoundDuration":109090,"Delta":51611338},{"NoteNumber":45,"Velocity":50,"Duration":109090,"SoundDuration":109090,"Delta":51720429},{"NoteNumber":44,"Velocity":47,"Duration":109090,"SoundDuration":109090,"Delta":51829520},{"NoteNumber":45,"Velocity":45,"Duration":109090,"SoundDuration":109090,"Delta":51938611},{"NoteNumber":61,"Velocity":57,"Duration":453070,"SoundDuration":453070,"Delta":52047702},{"NoteNumber":57,"Velocity":48,"Duration":453070,"SoundDuration":453070,"Delta":52047702},{"NoteNumber":33,"Velocity":48,"Duration":110700,"SoundDuration":110700,"Delta":52047702},{"NoteNumber":45,"Velocity":45,"Duration":110700,"SoundDuration":110700,"Delta":52158403},{"NoteNumber":44,"Velocity":45,"Duration":110700,"SoundDuration":110700,"Delta":52269104},{"NoteNumber":45,"Velocity":45,"Duration":120967,"SoundDuration":120967,"Delta":52379805},{"NoteNumber":53,"Velocity":52,"Duration":76271,"SoundDuration":76271,"Delta":52500772},{"NoteNumber":57,"Velocity":52,"Duration":76271,"SoundDuration":76271,"Delta":52500772},{"NoteNumber":62,"Velocity":59,"Duration":76271,"SoundDuration":76271,"Delta":52500772},{"NoteNumber":38,"Velocity":49,"Duration":425669,"SoundDuration":425669,"Delta":52500772},{"NoteNumber":50,"Velocity":44,"Duration":118644,"SoundDuration":118644,"Delta":52602467},{"NoteNumber":49,"Velocity":38,"Duration":118996,"SoundDuration":118996,"Delta":52704162},{"NoteNumber":50,"Velocity":44,"Duration":120584,"SoundDuration":120584,"Delta":52805857},{"NoteNumber":41,"Velocity":44,"Duration":422598,"SoundDuration":422598,"Delta":52909664},{"NoteNumber":53,"Velocity":44,"Duration":117449,"SoundDuration":117449,"Delta":53010335},{"NoteNumber":52,"Velocity":39,"Duration":117972,"SoundDuration":117972,"Delta":53111006},{"NoteNumber":53,"Velocity":44,"Duration":120584,"SoundDuration":120584,"Delta":53211677},{"NoteNumber":38,"Velocity":50,"Duration":422826,"SoundDuration":422826,"Delta":53315484},{"NoteNumber":50,"Velocity":44,"Duration":117449,"SoundDuration":117449,"Delta":53416155},{"NoteNumber":49,"Velocity":39,"Duration":117972,"SoundDuration":117972,"Delta":53516826},{"NoteNumber":50,"Velocity":44,"Duration":120813,"SoundDuration":120813,"Delta":53617497},{"NoteNumber":41,"Velocity":44,"Duration":409928,"SoundDuration":409928,"Delta":53721304},{"NoteNumber":53,"Velocity":44,"Duration":119047,"SoundDuration":119047,"Delta":53823344},{"NoteNumber":52,"Velocity":38,"Duration":119341,"SoundDuration":119341,"Delta":53925385},{"NoteNumber":53,"Velocity":40,"Duration":120988,"SoundDuration":120988,"Delta":54027426},{"NoteNumber":38,"Velocity":51,"Duration":822198,"SoundDuration":822198,"Delta":54131232},{"NoteNumber":50,"Velocity":39,"Duration":102975,"SoundDuration":102975,"Delta":54234325},{"NoteNumber":62,"Velocity":51,"Duration":102739,"SoundDuration":102739,"Delta":54337300},{"NoteNumber":50,"Velocity":44,"Duration":102505,"SoundDuration":102505,"Delta":54440040},{"NoteNumber":62,"Velocity":57,"Duration":102389,"SoundDuration":102389,"Delta":54542546},{"NoteNumber":50,"Velocity":46,"Duration":102040,"SoundDuration":102040,"Delta":54644935},{"NoteNumber":62,"Velocity":59,"Duration":101925,"SoundDuration":101925,"Delta":54746975},{"NoteNumber":50,"Velocity":50,"Duration":104529,"SoundDuration":104529,"Delta":54848901},{"NoteNumber":62,"Velocity":67,"Duration":101694,"SoundDuration":101694,"Delta":54953430},{"NoteNumber":34,"Velocity":63,"Duration":822299,"SoundDuration":822299,"Delta":54953430},{"NoteNumber":46,"Velocity":63,"Duration":822299,"SoundDuration":822299,"Delta":54953430},{"NoteNumber":50,"Velocity":53,"Duration":101694,"SoundDuration":101694,"Delta":55055125},{"NoteNumber":62,"Velocity":64,"Duration":101925,"SoundDuration":101925,"Delta":55156820},{"NoteNumber":50,"Velocity":47,"Duration":102040,"SoundDuration":102040,"Delta":55258746},{"NoteNumber":62,"Velocity":59,"Duration":102214,"SoundDuration":102214,"Delta":55360787},{"NoteNumber":50,"Velocity":44,"Duration":102389,"SoundDuration":102389,"Delta":55463002},{"NoteNumber":62,"Velocity":55,"Duration":102505,"SoundDuration":102505,"Delta":55565391},{"NoteNumber":50,"Velocity":49,"Duration":107833,"SoundDuration":107833,"Delta":55667896},{"NoteNumber":38,"Velocity":52,"Duration":425669,"SoundDuration":425669,"Delta":55775730},{"NoteNumber":50,"Velocity":44,"Duration":118644,"SoundDuration":118644,"Delta":55877425},{"NoteNumber":49,"Velocity":40,"Duration":118996,"SoundDuration":118996,"Delta":55979120},{"NoteNumber":50,"Velocity":44,"Duration":120584,"SoundDuration":120584,"Delta":56080815},{"NoteNumber":41,"Velocity":44,"Duration":422598,"SoundDuration":422598,"Delta":56184621},{"NoteNumber":53,"Velocity":44,"Duration":117449,"SoundDuration":117449,"Delta":56285292},{"NoteNumber":52,"Velocity":41,"Duration":117972,"SoundDuration":117972,"Delta":56385963},{"NoteNumber":53,"Velocity":44,"Duration":120584,"SoundDuration":120584,"Delta":56486635},{"NoteNumber":38,"Velocity":52,"Duration":422826,"SoundDuration":422826,"Delta":56590441},{"NoteNumber":50,"Velocity":44,"Duration":117449,"SoundDuration":117449,"Delta":56691112},{"NoteNumber":49,"Velocity":40,"Duration":117972,"SoundDuration":117972,"Delta":56791783},{"NoteNumber":50,"Velocity":44,"Duration":120813,"SoundDuration":120813,"Delta":56892455},{"NoteNumber":41,"Velocity":46,"Duration":427229,"SoundDuration":427229,"Delta":56996261},{"NoteNumber":53,"Velocity":44,"Duration":119047,"SoundDuration":119047,"Delta":57098302},{"NoteNumber":52,"Velocity":39,"Duration":119341,"SoundDuration":119341,"Delta":57200342},{"NoteNumber":53,"Velocity":44,"Duration":121107,"SoundDuration":121107,"Delta":57302383},{"NoteNumber":38,"Velocity":55,"Duration":827140,"SoundDuration":827140,"Delta":57406189},{"NoteNumber":50,"Velocity":39,"Duration":103507,"SoundDuration":103507,"Delta":57509996},{"NoteNumber":62,"Velocity":51,"Duration":103211,"SoundDuration":103211,"Delta":57613504},{"NoteNumber":50,"Velocity":44,"Duration":102916,"SoundDuration":102916,"Delta":57716715},{"NoteNumber":62,"Velocity":57,"Duration":102622,"SoundDuration":102622,"Delta":57819631},{"NoteNumber":50,"Velocity":46,"Duration":102330,"SoundDuration":102330,"Delta":57922254},{"NoteNumber":62,"Velocity":59,"Duration":101983,"SoundDuration":101983,"Delta":58024585},{"NoteNumber":50,"Velocity":50,"Duration":106761,"SoundDuration":106761,"Delta":58126568},{"NoteNumber":55,"Velocity":64,"Duration":823631,"SoundDuration":823631,"Delta":58233330},{"NoteNumber":58,"Velocity":66,"Duration":823631,"SoundDuration":823631,"Delta":58233330},{"NoteNumber":31,"Velocity":55,"Duration":823631,"SoundDuration":823631,"Delta":58233330},{"NoteNumber":43,"Velocity":58,"Duration":823631,"SoundDuration":823631,"Delta":58233330},{"NoteNumber":50,"Velocity":53,"Duration":101694,"SoundDuration":101694,"Delta":58335025},{"NoteNumber":62,"Velocity":64,"Duration":101983,"SoundDuration":101983,"Delta":58436720},{"NoteNumber":50,"Velocity":47,"Duration":102040,"SoundDuration":102040,"Delta":58538703},{"NoteNumber":62,"Velocity":59,"Duration":102272,"SoundDuration":102272,"Delta":58640743},{"NoteNumber":50,"Velocity":44,"Duration":102389,"SoundDuration":102389,"Delta":58743016},{"NoteNumber":62,"Velocity":55,"Duration":102564,"SoundDuration":102564,"Delta":58845405},{"NoteNumber":50,"Velocity":49,"Duration":533559,"SoundDuration":533559,"Delta":58947970},{"NoteNumber":54,"Velocity":49,"Duration":424568,"SoundDuration":424568,"Delta":59056961},{"NoteNumber":57,"Velocity":49,"Duration":424568,"SoundDuration":424568,"Delta":59056961},{"NoteNumber":26,"Velocity":56,"Duration":106141,"SoundDuration":106141,"Delta":59056961},{"NoteNumber":38,"Velocity":29,"Duration":106141,"SoundDuration":106141,"Delta":59163103},{"NoteNumber":26,"Velocity":39,"Duration":106142,"SoundDuration":106142,"Delta":59269245},{"NoteNumber":38,"Velocity":29,"Duration":106141,"SoundDuration":106141,"Delta":59375387},{"NoteNumber":26,"Velocity":40,"Duration":107242,"SoundDuration":107242,"Delta":59481529},{"NoteNumber":38,"Velocity":28,"Duration":107242,"SoundDuration":107242,"Delta":59588771},{"NoteNumber":26,"Velocity":39,"Duration":107242,"SoundDuration":107242,"Delta":59696014},{"NoteNumber":38,"Velocity":29,"Duration":107242,"SoundDuration":107242,"Delta":59803256},{"NoteNumber":57,"Velocity":41,"Duration":845146,"SoundDuration":845146,"Delta":59910499},{"NoteNumber":62,"Velocity":41,"Duration":845146,"SoundDuration":845146,"Delta":59910499},{"NoteNumber":66,"Velocity":49,"Duration":845146,"SoundDuration":845146,"Delta":59910499},{"NoteNumber":26,"Velocity":47,"Duration":106141,"SoundDuration":106141,"Delta":59910499},{"NoteNumber":38,"Velocity":28,"Duration":106142,"SoundDuration":106142,"Delta":60016641},{"NoteNumber":26,"Velocity":39,"Duration":105897,"SoundDuration":105897,"Delta":60122783},{"NoteNumber":38,"Velocity":29,"Duration":105775,"SoundDuration":105775,"Delta":60228680},{"NoteNumber":26,"Velocity":43,"Duration":105537,"SoundDuration":105537,"Delta":60334456},{"NoteNumber":38,"Velocity":29,"Duration":105418,"SoundDuration":105418,"Delta":60439993},{"NoteNumber":26,"Velocity":42,"Duration":105177,"SoundDuration":105177,"Delta":60545411},{"NoteNumber":38,"Velocity":31,"Duration":105056,"SoundDuration":105056,"Delta":60650589},{"NoteNumber":57,"Velocity":47,"Duration":837637,"SoundDuration":837637,"Delta":60755646},{"NoteNumber":55,"Velocity":47,"Duration":837637,"SoundDuration":837637,"Delta":60755646},{"NoteNumber":64,"Velocity":56,"Duration":837637,"SoundDuration":837637,"Delta":60755646},{"NoteNumber":26,"Velocity":57,"Duration":104704,"SoundDuration":104704,"Delta":60755646},{"NoteNumber":38,"Velocity":33,"Duration":104704,"SoundDuration":104704,"Delta":60860350},{"NoteNumber":26,"Velocity":45,"Duration":104704,"SoundDuration":104704,"Delta":60965055},{"NoteNumber":38,"Velocity":36,"Duration":104704,"SoundDuration":104704,"Delta":61069760},{"NoteNumber":26,"Velocity":46,"Duration":104704,"SoundDuration":104704,"Delta":61174465},{"NoteNumber":38,"Velocity":35,"Duration":104704,"SoundDuration":104704,"Delta":61279169},{"NoteNumber":26,"Velocity":45,"Duration":104704,"SoundDuration":104704,"Delta":61383874},{"NoteNumber":38,"Velocity":36,"Duration":104704,"SoundDuration":104704,"Delta":61488579},{"NoteNumber":54,"Velocity":49,"Duration":841920,"SoundDuration":841920,"Delta":61593284},{"NoteNumber":57,"Velocity":49,"Duration":841920,"SoundDuration":841920,"Delta":61593284},{"NoteNumber":62,"Velocity":58,"Duration":841920,"SoundDuration":841920,"Delta":61593284},{"NoteNumber":26,"Velocity":56,"Duration":104704,"SoundDuration":104704,"Delta":61593284},{"NoteNumber":38,"Velocity":36,"Duration":104704,"SoundDuration":104704,"Delta":61697988},{"NoteNumber":26,"Velocity":47,"Duration":104704,"SoundDuration":104704,"Delta":61802693},{"NoteNumber":38,"Velocity":38,"Duration":104704,"SoundDuration":104704,"Delta":61907398},{"NoteNumber":26,"Velocity":55,"Duration":105775,"SoundDuration":105775,"Delta":62012103},{"NoteNumber":38,"Velocity":42,"Duration":105775,"SoundDuration":105775,"Delta":62117878},{"NoteNumber":26,"Velocity":64,"Duration":105775,"SoundDuration":105775,"Delta":62223653},{"NoteNumber":38,"Velocity":42,"Duration":105775,"SoundDuration":105775,"Delta":62329428},{"NoteNumber":69,"Velocity":68,"Duration":838005,"SoundDuration":838005,"Delta":62435204},{"NoteNumber":62,"Velocity":57,"Duration":838005,"SoundDuration":838005,"Delta":62435204},{"NoteNumber":60,"Velocity":57,"Duration":838005,"SoundDuration":838005,"Delta":62435204},{"NoteNumber":31,"Velocity":73,"Duration":105418,"SoundDuration":105418,"Delta":62435204},{"NoteNumber":38,"Velocity":50,"Duration":105418,"SoundDuration":105418,"Delta":62540622},{"NoteNumber":31,"Velocity":57,"Duration":105177,"SoundDuration":105177,"Delta":62646041},{"NoteNumber":38,"Velocity":47,"Duration":104939,"SoundDuration":104939,"Delta":62751218},{"NoteNumber":31,"Velocity":63,"Duration":104704,"SoundDuration":104704,"Delta":62856157},{"NoteNumber":38,"Velocity":38,"Duration":104347,"SoundDuration":104347,"Delta":62960862},{"NoteNumber":31,"Velocity":49,"Duration":104116,"SoundDuration":104116,"Delta":63065210},{"NoteNumber":38,"Velocity":39,"Duration":103883,"SoundDuration":103883,"Delta":63169326},{"NoteNumber":59,"Velocity":57,"Duration":418812,"SoundDuration":418812,"Delta":63273209},{"NoteNumber":62,"Velocity":54,"Duration":842047,"SoundDuration":842047,"Delta":63273209},{"NoteNumber":67,"Velocity":64,"Duration":842047,"SoundDuration":842047,"Delta":63273209},{"NoteNumber":31,"Velocity":55,"Duration":104347,"SoundDuration":104347,"Delta":63273209},{"NoteNumber":38,"Velocity":35,"Duration":104585,"SoundDuration":104585,"Delta":63377557},{"NoteNumber":31,"Velocity":46,"Duration":104822,"SoundDuration":104822,"Delta":63482143},{"NoteNumber":38,"Velocity":33,"Duration":105056,"SoundDuration":105056,"Delta":63586965},{"NoteNumber":58,"Velocity":57,"Duration":423234,"SoundDuration":423234,"Delta":63692022},{"NoteNumber":31,"Velocity":47,"Duration":105418,"SoundDuration":105418,"Delta":63692022},{"NoteNumber":38,"Velocity":30,"Duration":105656,"SoundDuration":105656,"Delta":63797440},{"NoteNumber":31,"Velocity":43,"Duration":105897,"SoundDuration":105897,"Delta":63903096},{"NoteNumber":38,"Velocity":31,"Duration":106262,"SoundDuration":106262,"Delta":64008994},{"NoteNumber":66,"Velocity":59,"Duration":855503,"SoundDuration":855503,"Delta":64115256},{"NoteNumber":57,"Velocity":50,"Duration":855503,"SoundDuration":855503,"Delta":64115256},{"NoteNumber":62,"Velocity":50,"Duration":855503,"SoundDuration":855503,"Delta":64115256},{"NoteNumber":33,"Velocity":45,"Duration":107527,"SoundDuration":107527,"Delta":64115256},{"NoteNumber":38,"Velocity":30,"Duration":107526,"SoundDuration":107526,"Delta":64222783},{"NoteNumber":33,"Velocity":45,"Duration":107142,"SoundDuration":107142,"Delta":64330310},{"NoteNumber":38,"Velocity":34,"Duration":107142,"SoundDuration":107142,"Delta":64437453},{"NoteNumber":33,"Velocity":47,"Duration":106761,"SoundDuration":106761,"Delta":64544596},{"NoteNumber":38,"Velocity":36,"Duration":106761,"SoundDuration":106761,"Delta":64651357},{"NoteNumber":33,"Velocity":50,"Duration":106382,"SoundDuration":106382,"Delta":64758119},{"NoteNumber":38,"Velocity":38,"Duration":106257,"SoundDuration":106257,"Delta":64864502},{"NoteNumber":55,"Velocity":57,"Duration":862629,"SoundDuration":862629,"Delta":64970760},{"NoteNumber":62,"Velocity":57,"Duration":862629,"SoundDuration":862629,"Delta":64970760},{"NoteNumber":64,"Velocity":67,"Duration":862629,"SoundDuration":862629,"Delta":64970760},{"NoteNumber":34,"Velocity":57,"Duration":106132,"SoundDuration":106132,"Delta":64970760},{"NoteNumber":38,"Velocity":40,"Duration":106635,"SoundDuration":106635,"Delta":65076892},{"NoteNumber":34,"Velocity":50,"Duration":107015,"SoundDuration":107015,"Delta":65183527},{"NoteNumber":38,"Velocity":36,"Duration":107655,"SoundDuration":107655,"Delta":65290543},{"NoteNumber":34,"Velocity":48,"Duration":108043,"SoundDuration":108043,"Delta":65398199},{"NoteNumber":38,"Velocity":35,"Duration":108564,"SoundDuration":108564,"Delta":65506242},{"NoteNumber":34,"Velocity":39,"Duration":108959,"SoundDuration":108959,"Delta":65614807},{"NoteNumber":38,"Velocity":32,"Duration":109622,"SoundDuration":109622,"Delta":65723767},{"NoteNumber":57,"Velocity":52,"Duration":275229,"SoundDuration":275229,"Delta":65833389},{"NoteNumber":66,"Velocity":62,"Duration":275229,"SoundDuration":275229,"Delta":65833389},{"NoteNumber":62,"Velocity":52,"Duration":275229,"SoundDuration":275229,"Delta":65833389},{"NoteNumber":33,"Velocity":46,"Duration":275229,"SoundDuration":275229,"Delta":65833389},{"NoteNumber":45,"Velocity":63,"Duration":391304,"SoundDuration":391304,"Delta":66383848},{"NoteNumber":47,"Velocity":60,"Duration":61475,"SoundDuration":61475,"Delta":66775153},{"NoteNumber":45,"Velocity":61,"Duration":61475,"SoundDuration":61475,"Delta":66836628},{"NoteNumber":44,"Velocity":64,"Duration":250000,"SoundDuration":250000,"Delta":66898103},{"NoteNumber":45,"Velocity":58,"Duration":250000,"SoundDuration":250000,"Delta":67148103},{"NoteNumber":49,"Velocity":64,"Duration":250000,"SoundDuration":250000,"Delta":67398103},{"NoteNumber":50,"Velocity":57,"Duration":250000,"SoundDuration":250000,"Delta":67648103},{"NoteNumber":55,"Velocity":65,"Duration":256410,"SoundDuration":256410,"Delta":67898103},{"NoteNumber":54,"Velocity":59,"Duration":180995,"SoundDuration":180995,"Delta":68154514},{"NoteNumber":54,"Velocity":56,"Duration":67873,"SoundDuration":67873,"Delta":68358134},{"NoteNumber":59,"Velocity":64,"Duration":407239,"SoundDuration":407239,"Delta":68426007},{"NoteNumber":57,"Velocity":59,"Duration":141509,"SoundDuration":141509,"Delta":68833246},{"NoteNumber":57,"Velocity":58,"Duration":566038,"SoundDuration":566038,"Delta":68974756},{"NoteNumber":54,"Velocity":58,"Duration":478087,"SoundDuration":478087,"Delta":69540794},{"NoteNumber":62,"Velocity":58,"Duration":478087,"SoundDuration":478087,"Delta":69540794},{"NoteNumber":57,"Velocity":52,"Duration":478087,"SoundDuration":478087,"Delta":69540794},{"NoteNumber":33,"Velocity":43,"Duration":478087,"SoundDuration":478087,"Delta":69540794},{"NoteNumber":45,"Velocity":48,"Duration":478087,"SoundDuration":478087,"Delta":69540794},{"NoteNumber":58,"Velocity":58,"Duration":1915512,"SoundDuration":1915512,"Delta":70018882},{"NoteNumber":55,"Velocity":52,"Duration":3859076,"SoundDuration":3859076,"Delta":70018882},{"NoteNumber":52,"Velocity":52,"Duration":3859076,"SoundDuration":3859076,"Delta":70018882},{"NoteNumber":62,"Velocity":58,"Duration":1915512,"SoundDuration":1915512,"Delta":70018882},{"NoteNumber":33,"Velocity":43,"Duration":119522,"SoundDuration":119522,"Delta":70018882},{"NoteNumber":45,"Velocity":48,"Duration":119522,"SoundDuration":119522,"Delta":70018882},{"NoteNumber":33,"Velocity":42,"Duration":119521,"SoundDuration":119521,"Delta":70257926},{"NoteNumber":45,"Velocity":47,"Duration":119521,"SoundDuration":119521,"Delta":70257926},{"NoteNumber":33,"Velocity":43,"Duration":119047,"SoundDuration":119047,"Delta":70741868},{"NoteNumber":45,"Velocity":48,"Duration":119047,"SoundDuration":119047,"Delta":70741868},{"NoteNumber":33,"Velocity":43,"Duration":118577,"SoundDuration":118577,"Delta":70979963},{"NoteNumber":45,"Velocity":48,"Duration":118577,"SoundDuration":118577,"Delta":70979963},{"NoteNumber":33,"Velocity":43,"Duration":118577,"SoundDuration":118577,"Delta":71217117},{"NoteNumber":45,"Velocity":48,"Duration":118577,"SoundDuration":118577,"Delta":71217117},{"NoteNumber":33,"Velocity":43,"Duration":118110,"SoundDuration":118110,"Delta":71698173},{"NoteNumber":45,"Velocity":48,"Duration":118110,"SoundDuration":118110,"Delta":71698173},{"NoteNumber":57,"Velocity":58,"Duration":2460805,"SoundDuration":2460805,"Delta":71934394},{"NoteNumber":61,"Velocity":58,"Duration":1943564,"SoundDuration":1943564,"Delta":71934394},{"NoteNumber":33,"Velocity":43,"Duration":118110,"SoundDuration":118110,"Delta":71934394},{"NoteNumber":45,"Velocity":48,"Duration":118110,"SoundDuration":118110,"Delta":71934394},{"NoteNumber":33,"Velocity":41,"Duration":118110,"SoundDuration":118110,"Delta":72170614},{"NoteNumber":45,"Velocity":46,"Duration":118110,"SoundDuration":118110,"Delta":72170614},{"NoteNumber":33,"Velocity":38,"Duration":119522,"SoundDuration":119522,"Delta":72653748},{"NoteNumber":45,"Velocity":43,"Duration":119522,"SoundDuration":119522,"Delta":72653748},{"NoteNumber":33,"Velocity":37,"Duration":120481,"SoundDuration":120481,"Delta":72892792},{"NoteNumber":45,"Velocity":42,"Duration":120481,"SoundDuration":120481,"Delta":72892792},{"NoteNumber":33,"Velocity":36,"Duration":120000,"SoundDuration":120000,"Delta":73133756},{"NoteNumber":45,"Velocity":40,"Duration":120000,"SoundDuration":120000,"Delta":73133756},{"NoteNumber":33,"Velocity":33,"Duration":126050,"SoundDuration":126050,"Delta":73625857},{"NoteNumber":45,"Velocity":37,"Duration":126050,"SoundDuration":126050,"Delta":73625857},{"NoteNumber":62,"Velocity":44,"Duration":517240,"SoundDuration":517240,"Delta":73877958},{"NoteNumber":50,"Velocity":39,"Duration":517240,"SoundDuration":517240,"Delta":73877958},{"NoteNumber":54,"Velocity":39,"Duration":517240,"SoundDuration":517240,"Delta":73877958},{"NoteNumber":26,"Velocity":29,"Duration":517240,"SoundDuration":517240,"Delta":73877958},{"NoteNumber":38,"Velocity":33,"Duration":517240,"SoundDuration":517240,"Delta":73877958},{"NoteNumber":45,"Velocity":37,"Duration":588234,"SoundDuration":588234,"Delta":74912440},{"NoteNumber":50,"Velocity":33,"Duration":588234,"SoundDuration":588234,"Delta":74912440},{"NoteNumber":54,"Velocity":37,"Duration":588234,"SoundDuration":588234,"Delta":74912440},{"NoteNumber":26,"Velocity":27,"Duration":588234,"SoundDuration":588234,"Delta":74912440},{"NoteNumber":38,"Velocity":31,"Duration":588234,"SoundDuration":588234,"Delta":74912440},{"NoteNumber":50,"Velocity":33,"Duration":1176470,"SoundDuration":1176470,"Delta":76088910},{"NoteNumber":26,"Velocity":22,"Duration":1176470,"SoundDuration":1176470,"Delta":76088910},{"NoteNumber":38,"Velocity":25,"Duration":1176470,"SoundDuration":1176470,"Delta":76088910}],"license":{"name":"Creative Commons Attribution-ShareAlike 3.0 Germany","url":"http://creativecommons.org/licenses/by-sa/3.0/de/deed.en","text":"The MIDI, audio (MP3, OGG) and video files of Bernd Krueger are licensed under the cc-by-sa Germany License. This means that you can use and adapt the files, as long as you attribute the copyright holder.\n\nName: Bernd Krueger\nSource: http://www.piano-midi.de\n\nThe distribution or public playback of the files is only allowed under identical license conditions.\n\nThe scores are open source.","attribution":"MIDI files by Bernd Krueger (piano-midi.de)","attributionUrl":"http://www.piano-midi.de"}}