{"title":"1. Satz","artist":"Mozart","durationMs":627936,"midiSha256":"be896517cc8852630f08249b8cdbc5b314be8fb4d6e527118b8e65b186c4f1a8","midiObject":[{"NoteNumber":79,"Velocity":57,"Duration":116531,"SoundDuration":116531,"Delta":0},{"NoteNumber":77,"Velocity":56,"Duration":116532,"SoundDuration":116532,"Delta":116532},{"NoteNumber":75,"Velocity":54,"Duration":116531,"SoundDuration":116531,"Delta":233064},{"NoteNumber":74,"Velocity":52,"Duration":116532,"SoundDuration":116532,"Delta":349595},{"NoteNumber":72,"Velocity":60,"Duration":236090,"SoundDuration":236090,"Delta":466128},{"NoteNumber":70,"Velocity":54,"Duration":226253,"SoundDuration":226253,"Delta":702218},{"NoteNumber":58,"Velocity":37,"Duration":236090,"SoundDuration":236090,"Delta":702218},{"NoteNumber":70,"Velocity":51,"Duration":708271,"SoundDuration":708271,"Delta":938309},{"NoteNumber":62,"Velocity":37,"Duration":236090,"SoundDuration":236090,"Delta":938309},{"NoteNumber":65,"Velocity":33,"Duration":236090,"SoundDuration":236090,"Delta":1174399},{"NoteNumber":62,"Velocity":36,"Duration":236090,"SoundDuration":236090,"Delta":1410490},{"NoteNumber":74,"Velocity":57,"Duration":233064,"SoundDuration":233064,"Delta":1646580},{"NoteNumber":58,"Velocity":33,"Duration":233064,"SoundDuration":233064,"Delta":1646580},{"NoteNumber":79,"Velocity":60,"Duration":233063,"SoundDuration":233063,"Delta":1879644},{"NoteNumber":62,"Velocity":41,"Duration":233063,"SoundDuration":233063,"Delta":1879644},{"NoteNumber":74,"Velocity":55,"Duration":241312,"SoundDuration":241312,"Delta":2112708},{"NoteNumber":67,"Velocity":38,"Duration":241312,"SoundDuration":241312,"Delta":2112708},{"NoteNumber":77,"Velocity":60,"Duration":472180,"SoundDuration":472180,"Delta":2354020},{"NoteNumber":60,"Velocity":34,"Duration":236090,"SoundDuration":236090,"Delta":2590111},{"NoteNumber":75,"Velocity":56,"Duration":708271,"SoundDuration":708271,"Delta":2826201},{"NoteNumber":63,"Velocity":39,"Duration":236090,"SoundDuration":236090,"Delta":2826201},{"NoteNumber":67,"Velocity":36,"Duration":236090,"SoundDuration":236090,"Delta":3062292},{"NoteNumber":63,"Velocity":44,"Duration":236090,"SoundDuration":236090,"Delta":3298382},{"NoteNumber":77,"Velocity":60,"Duration":116532,"SoundDuration":116532,"Delta":3534473},{"NoteNumber":60,"Velocity":37,"Duration":233063,"SoundDuration":233063,"Delta":3534473},{"NoteNumber":79,"Velocity":56,"Duration":116531,"SoundDuration":116531,"Delta":3651005},{"NoteNumber":77,"Velocity":61,"Duration":116532,"SoundDuration":116532,"Delta":3767537},{"NoteNumber":63,"Velocity":38,"Duration":233064,"SoundDuration":233064,"Delta":3767537},{"NoteNumber":75,"Velocity":54,"Duration":116532,"SoundDuration":116532,"Delta":3884069},{"NoteNumber":74,"Velocity":58,"Duration":116531,"SoundDuration":116531,"Delta":4000601},{"NoteNumber":67,"Velocity":34,"Duration":233063,"SoundDuration":233063,"Delta":4000601},{"NoteNumber":72,"Velocity":53,"Duration":116532,"SoundDuration":116532,"Delta":4117133},{"NoteNumber":70,"Velocity":66,"Duration":473313,"SoundDuration":473313,"Delta":4233665},{"NoteNumber":53,"Velocity":35,"Duration":240249,"SoundDuration":240249,"Delta":4466729},{"NoteNumber":69,"Velocity":57,"Duration":692394,"SoundDuration":692394,"Delta":4706979},{"NoteNumber":60,"Velocity":35,"Duration":233063,"SoundDuration":233063,"Delta":4706979},{"NoteNumber":63,"Velocity":34,"Duration":233064,"SoundDuration":233064,"Delta":4940043},{"NoteNumber":60,"Velocity":47,"Duration":233063,"SoundDuration":233063,"Delta":5173107},{"NoteNumber":69,"Velocity":62,"Duration":233063,"SoundDuration":233063,"Delta":5406171},{"NoteNumber":53,"Velocity":36,"Duration":233063,"SoundDuration":233063,"Delta":5406171},{"NoteNumber":70,"Velocity":65,"Duration":233063,"SoundDuration":233063,"Delta":5639235},{"NoteNumber":60,"Velocity":43,"Duration":233063,"SoundDuration":233063,"Delta":5639235},{"NoteNumber":72,"Velocity":61,"Duration":235424,"SoundDuration":235424,"Delta":5872299},{"NoteNumber":63,"Velocity":36,"Duration":245660,"SoundDuration":245660,"Delta":5872299},{"NoteNumber":69,"Velocity":52,"Duration":476303,"SoundDuration":476303,"Delta":6117959},{"NoteNumber":72,"Velocity":61,"Duration":476303,"SoundDuration":476303,"Delta":6117959},{"NoteNumber":58,"Velocity":42,"Duration":238151,"SoundDuration":238151,"Delta":6356111},{"NoteNumber":70,"Velocity":49,"Duration":476304,"SoundDuration":476304,"Delta":6594263},{"NoteNumber":74,"Velocity":58,"Duration":476304,"SoundDuration":476304,"Delta":6594263},{"NoteNumber":62,"Velocity":42,"Duration":238151,"SoundDuration":238151,"Delta":6594263},{"NoteNumber":65,"Velocity":36,"Duration":238152,"SoundDuration":238152,"Delta":6832415},{"NoteNumber":62,"Velocity":45,"Duration":238151,"SoundDuration":238151,"Delta":7070567},{"NoteNumber":77,"Velocity":64,"Duration":115544,"SoundDuration":115544,"Delta":7308719},{"NoteNumber":58,"Velocity":42,"Duration":231089,"SoundDuration":231089,"Delta":7308719},{"NoteNumber":76,"Velocity":63,"Duration":115544,"SoundDuration":115544,"Delta":7424264},{"NoteNumber":79,"Velocity":66,"Duration":115544,"SoundDuration":115544,"Delta":7539808},{"NoteNumber":62,"Velocity":42,"Duration":231088,"SoundDuration":231088,"Delta":7539808},{"NoteNumber":77,"Velocity":63,"Duration":115544,"SoundDuration":115544,"Delta":7655352},{"NoteNumber":75,"Velocity":63,"Duration":115544,"SoundDuration":115544,"Delta":7770897},{"NoteNumber":65,"Velocity":39,"Duration":231089,"SoundDuration":231089,"Delta":7770897},{"NoteNumber":74,"Velocity":61,"Duration":105915,"SoundDuration":105915,"Delta":7886441},{"NoteNumber":74,"Velocity":68,"Duration":237116,"SoundDuration":237116,"Delta":8001986},{"NoteNumber":63,"Velocity":45,"Duration":237116,"SoundDuration":237116,"Delta":8001986},{"NoteNumber":72,"Velocity":61,"Duration":474232,"SoundDuration":474232,"Delta":8239103},{"NoteNumber":67,"Velocity":37,"Duration":237116,"SoundDuration":237116,"Delta":8239103},{"NoteNumber":62,"Velocity":40,"Duration":237116,"SoundDuration":237116,"Delta":8476219},{"NoteNumber":70,"Velocity":61,"Duration":233064,"SoundDuration":233064,"Delta":8713336},{"NoteNumber":65,"Velocity":35,"Duration":233064,"SoundDuration":233064,"Delta":8713336},{"NoteNumber":74,"Velocity":67,"Duration":237116,"SoundDuration":237116,"Delta":8946400},{"NoteNumber":63,"Velocity":45,"Duration":237116,"SoundDuration":237116,"Delta":8946400},{"NoteNumber":72,"Velocity":62,"Duration":474232,"SoundDuration":474232,"Delta":9183516},{"NoteNumber":67,"Velocity":35,"Duration":237116,"SoundDuration":237116,"Delta":9183516},{"NoteNumber":60,"Velocity":38,"Duration":237116,"SoundDuration":237116,"Delta":9420633},{"NoteNumber":69,"Velocity":64,"Duration":233064,"SoundDuration":233064,"Delta":9657749},{"NoteNumber":63,"Velocity":32,"Duration":233064,"SoundDuration":233064,"Delta":9657749},{"NoteNumber":70,"Velocity":68,"Duration":116036,"SoundDuration":116036,"Delta":9890813},{"NoteNumber":62,"Velocity":42,"Duration":464145,"SoundDuration":464145,"Delta":9890813},{"NoteNumber":65,"Velocity":42,"Duration":464145,"SoundDuration":464145,"Delta":9890813},{"NoteNumber":72,"Velocity":59,"Duration":116036,"SoundDuration":116036,"Delta":10006849},{"NoteNumber":70,"Velocity":62,"Duration":116036,"SoundDuration":116036,"Delta":10122886},{"NoteNumber":69,"Velocity":58,"Duration":116036,"SoundDuration":116036,"Delta":10238922},{"NoteNumber":70,"Velocity":66,"Duration":116036,"SoundDuration":116036,"Delta":10354958},{"NoteNumber":72,"Velocity":60,"Duration":116036,"SoundDuration":116036,"Delta":10470994},{"NoteNumber":74,"Velocity":63,"Duration":116036,"SoundDuration":116036,"Delta":10587031},{"NoteNumber":75,"Velocity":61,"Duration":115708,"SoundDuration":115708,"Delta":10703067},{"NoteNumber":76,"Velocity":69,"Duration":115544,"SoundDuration":115544,"Delta":10818775},{"NoteNumber":77,"Velocity":65,"Duration":115544,"SoundDuration":115544,"Delta":10934320},{"NoteNumber":76,"Velocity":69,"Duration":115382,"SoundDuration":115382,"Delta":11049864},{"NoteNumber":77,"Velocity":65,"Duration":121192,"SoundDuration":121192,"Delta":11165246},{"NoteNumber":79,"Velocity":69,"Duration":114573,"SoundDuration":114573,"Delta":11286439},{"NoteNumber":77,"Velocity":67,"Duration":114573,"SoundDuration":114573,"Delta":11401013},{"NoteNumber":75,"Velocity":66,"Duration":114573,"SoundDuration":114573,"Delta":11515586},{"NoteNumber":74,"Velocity":65,"Duration":111589,"SoundDuration":111589,"Delta":11630160},{"NoteNumber":74,"Velocity":72,"Duration":232072,"SoundDuration":232072,"Delta":11751894},{"NoteNumber":63,"Velocity":47,"Duration":232072,"SoundDuration":232072,"Delta":11751894},{"NoteNumber":72,"Velocity":54,"Duration":222402,"SoundDuration":222402,"Delta":11983966},{"NoteNumber":67,"Velocity":36,"Duration":232072,"SoundDuration":232072,"Delta":11983966},{"NoteNumber":72,"Velocity":56,"Duration":232072,"SoundDuration":232072,"Delta":12216039},{"NoteNumber":62,"Velocity":40,"Duration":232072,"SoundDuration":232072,"Delta":12216039},{"NoteNumber":70,"Velocity":54,"Duration":232072,"SoundDuration":232072,"Delta":12448111},{"NoteNumber":65,"Velocity":33,"Duration":232072,"SoundDuration":232072,"Delta":12448111},{"NoteNumber":74,"Velocity":65,"Duration":232072,"SoundDuration":232072,"Delta":12680184},{"NoteNumber":63,"Velocity":47,"Duration":232072,"SoundDuration":232072,"Delta":12680184},{"NoteNumber":72,"Velocity":54,"Duration":222402,"SoundDuration":222402,"Delta":12912256},{"NoteNumber":67,"Velocity":37,"Duration":232072,"SoundDuration":232072,"Delta":12912256},{"NoteNumber":72,"Velocity":57,"Duration":232072,"SoundDuration":232072,"Delta":13144329},{"NoteNumber":60,"Velocity":39,"Duration":232072,"SoundDuration":232072,"Delta":13144329},{"NoteNumber":69,"Velocity":53,"Duration":232072,"SoundDuration":232072,"Delta":13376401},{"NoteNumber":63,"Velocity":32,"Duration":232072,"SoundDuration":232072,"Delta":13376401},{"NoteNumber":70,"Velocity":66,"Duration":232072,"SoundDuration":232072,"Delta":13608474},{"NoteNumber":65,"Velocity":47,"Duration":464144,"SoundDuration":464144,"Delta":13608474},{"NoteNumber":62,"Velocity":47,"Duration":464144,"SoundDuration":464144,"Delta":13608474},{"NoteNumber":72,"Velocity":57,"Duration":116036,"SoundDuration":116036,"Delta":13840546},{"NoteNumber":74,"Velocity":58,"Duration":116036,"SoundDuration":116036,"Delta":13956582},{"NoteNumber":75,"Velocity":59,"Duration":116036,"SoundDuration":116036,"Delta":14072619},{"NoteNumber":77,"Velocity":60,"Duration":116036,"SoundDuration":116036,"Delta":14188655},{"NoteNumber":79,"Velocity":61,"Duration":116036,"SoundDuration":116036,"Delta":14304691},{"NoteNumber":81,"Velocity":64,"Duration":116036,"SoundDuration":116036,"Delta":14420727},{"NoteNumber":82,"Velocity":66,"Duration":116036,"SoundDuration":116036,"Delta":14536764},{"NoteNumber":84,"Velocity":67,"Duration":116036,"SoundDuration":116036,"Delta":14652800},{"NoteNumber":86,"Velocity":68,"Duration":115872,"SoundDuration":115872,"Delta":14768836},{"NoteNumber":87,"Velocity":69,"Duration":115544,"SoundDuration":115544,"Delta":14884708},{"NoteNumber":89,"Velocity":76,"Duration":115544,"SoundDuration":115544,"Delta":15000253},{"NoteNumber":89,"Velocity":75,"Duration":115057,"SoundDuration":115057,"Delta":15231017},{"NoteNumber":77,"Velocity":76,"Duration":1175364,"SoundDuration":1175364,"Delta":15461132},{"NoteNumber":89,"Velocity":76,"Duration":235072,"SoundDuration":235072,"Delta":15461132},{"NoteNumber":57,"Velocity":61,"Duration":470145,"SoundDuration":470145,"Delta":15461132},{"NoteNumber":87,"Velocity":74,"Duration":470145,"SoundDuration":470145,"Delta":15696205},{"NoteNumber":58,"Velocity":55,"Duration":470145,"SoundDuration":470145,"Delta":15931278},{"NoteNumber":86,"Velocity":73,"Duration":235072,"SoundDuration":235072,"Delta":16166351},{"NoteNumber":86,"Velocity":75,"Duration":235072,"SoundDuration":235072,"Delta":16401424},{"NoteNumber":51,"Velocity":63,"Duration":467145,"SoundDuration":467145,"Delta":16401424},{"NoteNumber":75,"Velocity":64,"Duration":116036,"SoundDuration":116036,"Delta":16636497},{"NoteNumber":84,"Velocity":64,"Duration":116036,"SoundDuration":116036,"Delta":16636497},{"NoteNumber":74,"Velocity":72,"Duration":116284,"SoundDuration":116284,"Delta":16868569},{"NoteNumber":82,"Velocity":72,"Duration":116284,"SoundDuration":116284,"Delta":16868569},{"NoteNumber":53,"Velocity":57,"Duration":487225,"SoundDuration":487225,"Delta":16868569},{"NoteNumber":72,"Velocity":64,"Duration":126828,"SoundDuration":126828,"Delta":17102137},{"NoteNumber":81,"Velocity":64,"Duration":126828,"SoundDuration":126828,"Delta":17102137},{"NoteNumber":82,"Velocity":76,"Duration":238151,"SoundDuration":238151,"Delta":17355794},{"NoteNumber":74,"Velocity":76,"Duration":238151,"SoundDuration":238151,"Delta":17355794},{"NoteNumber":46,"Velocity":52,"Duration":118903,"SoundDuration":118903,"Delta":17593946},{"NoteNumber":70,"Velocity":72,"Duration":246421,"SoundDuration":246421,"Delta":17833154},{"NoteNumber":50,"Velocity":55,"Duration":122190,"SoundDuration":122190,"Delta":17833154},{"NoteNumber":53,"Velocity":50,"Duration":126147,"SoundDuration":126147,"Delta":18079576},{"NoteNumber":58,"Velocity":61,"Duration":519390,"SoundDuration":519390,"Delta":18334046},{"NoteNumber":67,"Velocity":52,"Duration":116531,"SoundDuration":116531,"Delta":18853437},{"NoteNumber":65,"Velocity":49,"Duration":116531,"SoundDuration":116531,"Delta":18969969},{"NoteNumber":63,"Velocity":52,"Duration":116531,"SoundDuration":116531,"Delta":19086501},{"NoteNumber":62,"Velocity":50,"Duration":116532,"SoundDuration":116532,"Delta":19203033},{"NoteNumber":60,"Velocity":56,"Duration":237116,"SoundDuration":237116,"Delta":19319565},{"NoteNumber":58,"Velocity":53,"Duration":227236,"SoundDuration":227236,"Delta":19556682},{"NoteNumber":46,"Velocity":34,"Duration":237116,"SoundDuration":237116,"Delta":19556682},{"NoteNumber":58,"Velocity":53,"Duration":711349,"SoundDuration":711349,"Delta":19793798},{"NoteNumber":50,"Velocity":37,"Duration":237116,"SoundDuration":237116,"Delta":19793798},{"NoteNumber":53,"Velocity":35,"Duration":237116,"SoundDuration":237116,"Delta":20030915},{"NoteNumber":50,"Velocity":43,"Duration":237116,"SoundDuration":237116,"Delta":20268031},{"NoteNumber":70,"Velocity":63,"Duration":240249,"SoundDuration":240249,"Delta":20505148},{"NoteNumber":46,"Velocity":39,"Duration":240249,"SoundDuration":240249,"Delta":20505148},{"NoteNumber":69,"Velocity":58,"Duration":240249,"SoundDuration":240249,"Delta":20745398},{"NoteNumber":50,"Velocity":39,"Duration":240249,"SoundDuration":240249,"Delta":20745398},{"NoteNumber":67,"Velocity":56,"Duration":252482,"SoundDuration":252482,"Delta":20985648},{"NoteNumber":55,"Velocity":35,"Duration":252482,"SoundDuration":252482,"Delta":20985648},{"NoteNumber":65,"Velocity":64,"Duration":480499,"SoundDuration":480499,"Delta":21238130},{"NoteNumber":48,"Velocity":36,"Duration":240249,"SoundDuration":240249,"Delta":21478380},{"NoteNumber":64,"Velocity":51,"Duration":597031,"SoundDuration":597031,"Delta":21718630},{"NoteNumber":55,"Velocity":39,"Duration":240249,"SoundDuration":240249,"Delta":21718630},{"NoteNumber":58,"Velocity":35,"Duration":240249,"SoundDuration":240249,"Delta":21958880},{"NoteNumber":55,"Velocity":42,"Duration":233063,"SoundDuration":233063,"Delta":22199130},{"NoteNumber":67,"Velocity":52,"Duration":116531,"SoundDuration":116531,"Delta":22315662},{"NoteNumber":65,"Velocity":56,"Duration":116531,"SoundDuration":116531,"Delta":22432194},{"NoteNumber":48,"Velocity":34,"Duration":233064,"SoundDuration":233064,"Delta":22432194},{"NoteNumber":69,"Velocity":52,"Duration":116532,"SoundDuration":116532,"Delta":22548726},{"NoteNumber":67,"Velocity":56,"Duration":116531,"SoundDuration":116531,"Delta":22665258},{"NoteNumber":55,"Velocity":38,"Duration":233063,"SoundDuration":233063,"Delta":22665258},{"NoteNumber":70,"Velocity":53,"Duration":116531,"SoundDuration":116531,"Delta":22781790},{"NoteNumber":69,"Velocity":56,"Duration":116531,"SoundDuration":116531,"Delta":22898322},{"NoteNumber":58,"Velocity":34,"Duration":233063,"SoundDuration":233063,"Delta":22898322},{"NoteNumber":72,"Velocity":53,"Duration":116531,"SoundDuration":116531,"Delta":23014854},{"NoteNumber":70,"Velocity":56,"Duration":116036,"SoundDuration":116036,"Delta":23131386},{"NoteNumber":67,"Velocity":58,"Duration":116036,"SoundDuration":116036,"Delta":23247422},{"NoteNumber":76,"Velocity":61,"Duration":115544,"SoundDuration":115544,"Delta":23363459},{"NoteNumber":52,"Velocity":39,"Duration":231089,"SoundDuration":231089,"Delta":23363459},{"NoteNumber":72,"Velocity":62,"Duration":115544,"SoundDuration":115544,"Delta":23479003},{"NoteNumber":79,"Velocity":64,"Duration":115057,"SoundDuration":115057,"Delta":23594548},{"NoteNumber":55,"Velocity":43,"Duration":230114,"SoundDuration":230114,"Delta":23594548},{"NoteNumber":76,"Velocity":67,"Duration":115057,"SoundDuration":115057,"Delta":23709605},{"NoteNumber":82,"Velocity":70,"Duration":114573,"SoundDuration":114573,"Delta":23824662},{"NoteNumber":60,"Velocity":46,"Duration":229147,"SoundDuration":229147,"Delta":23824662},{"NoteNumber":81,"Velocity":69,"Duration":114573,"SoundDuration":114573,"Delta":23939236},{"NoteNumber":82,"Velocity":71,"Duration":114094,"SoundDuration":114094,"Delta":24053810},{"NoteNumber":55,"Velocity":49,"Duration":228348,"SoundDuration":228348,"Delta":24053810},{"NoteNumber":81,"Velocity":67,"Duration":114254,"SoundDuration":114254,"Delta":24167904},{"NoteNumber":79,"Velocity":69,"Duration":114573,"SoundDuration":114573,"Delta":24282158},{"NoteNumber":52,"Velocity":47,"Duration":229469,"SoundDuration":229469,"Delta":24282158},{"NoteNumber":77,"Velocity":65,"Duration":114896,"SoundDuration":114896,"Delta":24396732},{"NoteNumber":76,"Velocity":66,"Duration":115138,"SoundDuration":115138,"Delta":24511628},{"NoteNumber":55,"Velocity":50,"Duration":230682,"SoundDuration":230682,"Delta":24511628},{"NoteNumber":74,"Velocity":65,"Duration":115544,"SoundDuration":115544,"Delta":24626767},{"NoteNumber":72,"Velocity":64,"Duration":115790,"SoundDuration":115790,"Delta":24742311},{"NoteNumber":60,"Velocity":54,"Duration":231826,"SoundDuration":231826,"Delta":24742311},{"NoteNumber":70,"Velocity":63,"Duration":106366,"SoundDuration":106366,"Delta":24858101},{"NoteNumber":70,"Velocity":69,"Duration":119598,"SoundDuration":119598,"Delta":24974138},{"NoteNumber":69,"Velocity":56,"Duration":123385,"SoundDuration":123385,"Delta":25093736},{"NoteNumber":74,"Velocity":64,"Duration":120125,"SoundDuration":120125,"Delta":25217122},{"NoteNumber":53,"Velocity":42,"Duration":240249,"SoundDuration":240249,"Delta":25217122},{"NoteNumber":72,"Velocity":54,"Duration":110114,"SoundDuration":110114,"Delta":25337247},{"NoteNumber":72,"Velocity":54,"Duration":480499,"SoundDuration":480499,"Delta":25457372},{"NoteNumber":57,"Velocity":41,"Duration":240249,"SoundDuration":240249,"Delta":25457372},{"NoteNumber":60,"Velocity":34,"Duration":240249,"SoundDuration":240249,"Delta":25697622},{"NoteNumber":57,"Velocity":37,"Duration":240249,"SoundDuration":240249,"Delta":25937872},{"NoteNumber":53,"Velocity":34,"Duration":240250,"SoundDuration":240250,"Delta":26178122},{"NoteNumber":86,"Velocity":69,"Duration":116531,"SoundDuration":116531,"Delta":26418372},{"NoteNumber":57,"Velocity":36,"Duration":233063,"SoundDuration":233063,"Delta":26418372},{"NoteNumber":84,"Velocity":66,"Duration":116531,"SoundDuration":116531,"Delta":26534904},{"NoteNumber":82,"Velocity":69,"Duration":116531,"SoundDuration":116531,"Delta":26651436},{"NoteNumber":60,"Velocity":32,"Duration":233064,"SoundDuration":233064,"Delta":26651436},{"NoteNumber":81,"Velocity":66,"Duration":116532,"SoundDuration":116532,"Delta":26767968},{"NoteNumber":79,"Velocity":72,"Duration":708271,"SoundDuration":708271,"Delta":26884500},{"NoteNumber":58,"Velocity":47,"Duration":236090,"SoundDuration":236090,"Delta":26884500},{"NoteNumber":60,"Velocity":32,"Duration":236090,"SoundDuration":236090,"Delta":27120590},{"NoteNumber":58,"Velocity":37,"Duration":236090,"SoundDuration":236090,"Delta":27356681},{"NoteNumber":76,"Velocity":63,"Duration":236090,"SoundDuration":236090,"Delta":27592771},{"NoteNumber":60,"Velocity":31,"Duration":236090,"SoundDuration":236090,"Delta":27592771},{"NoteNumber":77,"Velocity":66,"Duration":59022,"SoundDuration":59022,"Delta":27828862},{"NoteNumber":57,"Velocity":50,"Duration":234081,"SoundDuration":234081,"Delta":27828862},{"NoteNumber":84,"Velocity":70,"Duration":139243,"SoundDuration":139243,"Delta":27946907},{"NoteNumber":83,"Velocity":70,"Duration":139243,"SoundDuration":139243,"Delta":28062943},{"NoteNumber":60,"Velocity":41,"Duration":232072,"SoundDuration":232072,"Delta":28062943},{"NoteNumber":84,"Velocity":67,"Duration":139243,"SoundDuration":139243,"Delta":28178980},{"NoteNumber":86,"Velocity":73,"Duration":139243,"SoundDuration":139243,"Delta":28295016},{"NoteNumber":57,"Velocity":44,"Duration":232072,"SoundDuration":232072,"Delta":28295016},{"NoteNumber":84,"Velocity":68,"Duration":139243,"SoundDuration":139243,"Delta":28411052},{"NoteNumber":82,"Velocity":71,"Duration":139243,"SoundDuration":139243,"Delta":28527088},{"NoteNumber":60,"Velocity":41,"Duration":232072,"SoundDuration":232072,"Delta":28527088},{"NoteNumber":81,"Velocity":68,"Duration":140061,"SoundDuration":140061,"Delta":28643124},{"NoteNumber":79,"Velocity":81,"Duration":120125,"SoundDuration":120125,"Delta":28759161},{"NoteNumber":58,"Velocity":49,"Duration":240249,"SoundDuration":240249,"Delta":28759161},{"NoteNumber":79,"Velocity":75,"Duration":474233,"SoundDuration":474233,"Delta":28999411},{"NoteNumber":60,"Velocity":36,"Duration":237116,"SoundDuration":237116,"Delta":28999411},{"NoteNumber":58,"Velocity":42,"Duration":237116,"SoundDuration":237116,"Delta":29236527},{"NoteNumber":76,"Velocity":64,"Duration":237116,"SoundDuration":237116,"Delta":29473644},{"NoteNumber":60,"Velocity":36,"Duration":237116,"SoundDuration":237116,"Delta":29473644},{"NoteNumber":77,"Velocity":63,"Duration":59279,"SoundDuration":59279,"Delta":29710760},{"NoteNumber":57,"Velocity":53,"Duration":234594,"SoundDuration":234594,"Delta":29710760},{"NoteNumber":84,"Velocity":70,"Duration":139243,"SoundDuration":139243,"Delta":29829319},{"NoteNumber":83,"Velocity":69,"Duration":139243,"SoundDuration":139243,"Delta":29945355},{"NoteNumber":60,"Velocity":45,"Duration":232072,"SoundDuration":232072,"Delta":29945355},{"NoteNumber":84,"Velocity":68,"Duration":139243,"SoundDuration":139243,"Delta":30061391},{"NoteNumber":86,"Velocity":75,"Duration":139243,"SoundDuration":139243,"Delta":30177427},{"NoteNumber":57,"Velocity":46,"Duration":232072,"SoundDuration":232072,"Delta":30177427},{"NoteNumber":84,"Velocity":69,"Duration":139243,"SoundDuration":139243,"Delta":30293463},{"NoteNumber":82,"Velocity":71,"Duration":127639,"SoundDuration":127639,"Delta":30409500},{"NoteNumber":60,"Velocity":44,"Duration":232072,"SoundDuration":232072,"Delta":30409500},{"NoteNumber":81,"Velocity":67,"Duration":116036,"SoundDuration":116036,"Delta":30525536},{"NoteNumber":81,"Velocity":73,"Duration":237116,"SoundDuration":237116,"Delta":30641572},{"NoteNumber":58,"Velocity":51,"Duration":237116,"SoundDuration":237116,"Delta":30641572},{"NoteNumber":79,"Velocity":70,"Duration":237116,"SoundDuration":237116,"Delta":30878689},{"NoteNumber":62,"Velocity":46,"Duration":237116,"SoundDuration":237116,"Delta":30878689},{"NoteNumber":58,"Velocity":51,"Duration":237116,"SoundDuration":237116,"Delta":31115805},{"NoteNumber":79,"Velocity":72,"Duration":227236,"SoundDuration":227236,"Delta":31352922},{"NoteNumber":62,"Velocity":46,"Duration":237116,"SoundDuration":237116,"Delta":31352922},{"NoteNumber":79,"Velocity":78,"Duration":237116,"SoundDuration":237116,"Delta":31590038},{"NoteNumber":59,"Velocity":50,"Duration":237116,"SoundDuration":237116,"Delta":31590038},{"NoteNumber":77,"Velocity":72,"Duration":237116,"SoundDuration":237116,"Delta":31827155},{"NoteNumber":62,"Velocity":46,"Duration":237116,"SoundDuration":237116,"Delta":31827155},{"NoteNumber":59,"Velocity":52,"Duration":237116,"SoundDuration":237116,"Delta":32064271},{"NoteNumber":77,"Velocity":72,"Duration":231088,"SoundDuration":231088,"Delta":32301388},{"NoteNumber":62,"Velocity":48,"Duration":231088,"SoundDuration":231088,"Delta":32301388},{"NoteNumber":76,"Velocity":73,"Duration":115544,"SoundDuration":115544,"Delta":32532477},{"NoteNumber":60,"Velocity":59,"Duration":462178,"SoundDuration":462178,"Delta":32532477},{"NoteNumber":77,"Velocity":66,"Duration":115544,"SoundDuration":115544,"Delta":32648021},{"NoteNumber":76,"Velocity":68,"Duration":115544,"SoundDuration":115544,"Delta":32763566},{"NoteNumber":72,"Velocity":65,"Duration":115544,"SoundDuration":115544,"Delta":32879110},{"NoteNumber":77,"Velocity":75,"Duration":115544,"SoundDuration":115544,"Delta":32994655},{"NoteNumber":62,"Velocity":61,"Duration":462178,"SoundDuration":462178,"Delta":32994655},{"NoteNumber":79,"Velocity":68,"Duration":115544,"SoundDuration":115544,"Delta":33110199},{"NoteNumber":77,"Velocity":68,"Duration":115544,"SoundDuration":115544,"Delta":33225744},{"NoteNumber":72,"Velocity":65,"Duration":115544,"SoundDuration":115544,"Delta":33341288},{"NoteNumber":79,"Velocity":80,"Duration":115544,"SoundDuration":115544,"Delta":33456833},{"NoteNumber":64,"Velocity":63,"Duration":462178,"SoundDuration":462178,"Delta":33456833},{"NoteNumber":81,"Velocity":68,"Duration":115544,"SoundDuration":115544,"Delta":33572377},{"NoteNumber":79,"Velocity":72,"Duration":115544,"SoundDuration":115544,"Delta":33687922},{"NoteNumber":72,"Velocity":67,"Duration":115544,"SoundDuration":115544,"Delta":33803466},{"NoteNumber":81,"Velocity":81,"Duration":115544,"SoundDuration":115544,"Delta":33919011},{"NoteNumber":65,"Velocity":65,"Duration":462178,"SoundDuration":462178,"Delta":33919011},{"NoteNumber":82,"Velocity":74,"Duration":115544,"SoundDuration":115544,"Delta":34034555},{"NoteNumber":81,"Velocity":76,"Duration":115544,"SoundDuration":115544,"Delta":34150100},{"NoteNumber":72,"Velocity":69,"Duration":115544,"SoundDuration":115544,"Delta":34265644},{"NoteNumber":82,"Velocity":85,"Duration":118045,"SoundDuration":118045,"Delta":34381189},{"NoteNumber":67,"Velocity":65,"Duration":236090,"SoundDuration":236090,"Delta":34381189},{"NoteNumber":82,"Velocity":83,"Duration":118045,"SoundDuration":118045,"Delta":34617279},{"NoteNumber":72,"Velocity":53,"Duration":236090,"SoundDuration":236090,"Delta":34617279},{"NoteNumber":64,"Velocity":60,"Duration":236090,"SoundDuration":236090,"Delta":34853370},{"NoteNumber":79,"Velocity":77,"Duration":117032,"SoundDuration":117032,"Delta":35089460},{"NoteNumber":72,"Velocity":53,"Duration":234063,"SoundDuration":234063,"Delta":35089460},{"NoteNumber":82,"Velocity":81,"Duration":234064,"SoundDuration":234064,"Delta":35323524},{"NoteNumber":65,"Velocity":59,"Duration":234064,"SoundDuration":234064,"Delta":35323524},{"NoteNumber":81,"Velocity":71,"Duration":117032,"SoundDuration":117032,"Delta":35557588},{"NoteNumber":72,"Velocity":50,"Duration":234063,"SoundDuration":234063,"Delta":35557588},{"NoteNumber":79,"Velocity":76,"Duration":117032,"SoundDuration":117032,"Delta":35791652},{"NoteNumber":62,"Velocity":56,"Duration":234064,"SoundDuration":234064,"Delta":35791652},{"NoteNumber":77,"Velocity":73,"Duration":117032,"SoundDuration":117032,"Delta":36025716},{"NoteNumber":72,"Velocity":52,"Duration":234063,"SoundDuration":234063,"Delta":36025716},{"NoteNumber":76,"Velocity":78,"Duration":115544,"SoundDuration":115544,"Delta":36259780},{"NoteNumber":60,"Velocity":60,"Duration":462178,"SoundDuration":462178,"Delta":36259780},{"NoteNumber":72,"Velocity":72,"Duration":115544,"SoundDuration":115544,"Delta":36375325},{"NoteNumber":83,"Velocity":72,"Duration":115544,"SoundDuration":115544,"Delta":36490869},{"NoteNumber":84,"Velocity":68,"Duration":115544,"SoundDuration":115544,"Delta":36606414},{"NoteNumber":77,"Velocity":80,"Duration":115544,"SoundDuration":115544,"Delta":36721958},{"NoteNumber":62,"Velocity":62,"Duration":462178,"SoundDuration":462178,"Delta":36721958},{"NoteNumber":72,"Velocity":73,"Duration":115544,"SoundDuration":115544,"Delta":36837503},{"NoteNumber":83,"Velocity":73,"Duration":115544,"SoundDuration":115544,"Delta":36953047},{"NoteNumber":84,"Velocity":69,"Duration":115544,"SoundDuration":115544,"Delta":37068592},{"NoteNumber":79,"Velocity":81,"Duration":115544,"SoundDuration":115544,"Delta":37184136},{"NoteNumber":64,"Velocity":65,"Duration":462177,"SoundDuration":462177,"Delta":37184136},{"NoteNumber":72,"Velocity":76,"Duration":115544,"SoundDuration":115544,"Delta":37299681},{"NoteNumber":83,"Velocity":76,"Duration":115544,"SoundDuration":115544,"Delta":37415225},{"NoteNumber":84,"Velocity":73,"Duration":115544,"SoundDuration":115544,"Delta":37530770},{"NoteNumber":81,"Velocity":84,"Duration":115544,"SoundDuration":115544,"Delta":37646314},{"NoteNumber":65,"Velocity":68,"Duration":462178,"SoundDuration":462178,"Delta":37646314},{"NoteNumber":72,"Velocity":76,"Duration":115544,"SoundDuration":115544,"Delta":37761859},{"NoteNumber":83,"Velocity":76,"Duration":115544,"SoundDuration":115544,"Delta":37877403},{"NoteNumber":84,"Velocity":75,"Duration":115544,"SoundDuration":115544,"Delta":37992948},{"NoteNumber":82,"Velocity":89,"Duration":118558,"SoundDuration":118558,"Delta":38108492},{"NoteNumber":67,"Velocity":66,"Duration":118558,"SoundDuration":118558,"Delta":38108492},{"NoteNumber":72,"Velocity":44,"Duration":118558,"SoundDuration":118558,"Delta":38227051},{"NoteNumber":82,"Velocity":84,"Duration":118558,"SoundDuration":118558,"Delta":38345609},{"NoteNumber":71,"Velocity":47,"Duration":118558,"SoundDuration":118558,"Delta":38345609},{"NoteNumber":72,"Velocity":44,"Duration":118558,"SoundDuration":118558,"Delta":38464167},{"NoteNumber":64,"Velocity":57,"Duration":118558,"SoundDuration":118558,"Delta":38582725},{"NoteNumber":72,"Velocity":45,"Duration":118558,"SoundDuration":118558,"Delta":38701284},{"NoteNumber":79,"Velocity":69,"Duration":59279,"SoundDuration":59279,"Delta":38819842},{"NoteNumber":71,"Velocity":48,"Duration":118558,"SoundDuration":118558,"Delta":38819842},{"NoteNumber":81,"Velocity":66,"Duration":59279,"SoundDuration":59279,"Delta":38879121},{"NoteNumber":79,"Velocity":69,"Duration":59279,"SoundDuration":59279,"Delta":38938400},{"NoteNumber":72,"Velocity":44,"Duration":118558,"SoundDuration":118558,"Delta":38938400},{"NoteNumber":81,"Velocity":67,"Duration":59279,"SoundDuration":59279,"Delta":38997679},{"NoteNumber":82,"Velocity":79,"Duration":237116,"SoundDuration":237116,"Delta":39056958},{"NoteNumber":65,"Velocity":57,"Duration":118558,"SoundDuration":118558,"Delta":39056958},{"NoteNumber":72,"Velocity":44,"Duration":118558,"SoundDuration":118558,"Delta":39175517},{"NoteNumber":81,"Velocity":76,"Duration":118558,"SoundDuration":118558,"Delta":39294075},{"NoteNumber":71,"Velocity":46,"Duration":118558,"SoundDuration":118558,"Delta":39294075},{"NoteNumber":72,"Velocity":44,"Duration":118558,"SoundDuration":118558,"Delta":39412633},{"NoteNumber":79,"Velocity":76,"Duration":118558,"SoundDuration":118558,"Delta":39531191},{"NoteNumber":62,"Velocity":56,"Duration":118558,"SoundDuration":118558,"Delta":39531191},{"NoteNumber":71,"Velocity":45,"Duration":118558,"SoundDuration":118558,"Delta":39649750},{"NoteNumber":77,"Velocity":75,"Duration":118558,"SoundDuration":118558,"Delta":39768308},{"NoteNumber":69,"Velocity":45,"Duration":118558,"SoundDuration":118558,"Delta":39768308},{"NoteNumber":71,"Velocity":43,"Duration":118558,"SoundDuration":118558,"Delta":39886866},{"NoteNumber":76,"Velocity":79,"Duration":114573,"SoundDuration":114573,"Delta":40005424},{"NoteNumber":72,"Velocity":56,"Duration":453521,"SoundDuration":453521,"Delta":40005424},{"NoteNumber":60,"Velocity":56,"Duration":453521,"SoundDuration":453521,"Delta":40005424},{"NoteNumber":84,"Velocity":71,"Duration":114573,"SoundDuration":114573,"Delta":40119998},{"NoteNumber":79,"Velocity":72,"Duration":114573,"SoundDuration":114573,"Delta":40234572},{"NoteNumber":76,"Velocity":70,"Duration":114573,"SoundDuration":114573,"Delta":40349146},{"NoteNumber":72,"Velocity":76,"Duration":114573,"SoundDuration":114573,"Delta":40463719},{"NoteNumber":67,"Velocity":69,"Duration":114573,"SoundDuration":114573,"Delta":40578293},{"NoteNumber":64,"Velocity":71,"Duration":115795,"SoundDuration":115795,"Delta":40692867},{"NoteNumber":60,"Velocity":70,"Duration":118911,"SoundDuration":118911,"Delta":40808663},{"NoteNumber":48,"Velocity":73,"Duration":241312,"SoundDuration":241312,"Delta":40927574},{"NoteNumber":36,"Velocity":73,"Duration":241312,"SoundDuration":241312,"Delta":40927574},{"NoteNumber":69,"Velocity":70,"Duration":699192,"SoundDuration":699192,"Delta":41892824},{"NoteNumber":65,"Velocity":70,"Duration":699192,"SoundDuration":699192,"Delta":41892824},{"NoteNumber":60,"Velocity":70,"Duration":699192,"SoundDuration":699192,"Delta":41892824},{"NoteNumber":72,"Velocity":70,"Duration":699192,"SoundDuration":699192,"Delta":41892824},{"NoteNumber":41,"Velocity":66,"Duration":932256,"SoundDuration":932256,"Delta":41892824},{"NoteNumber":53,"Velocity":66,"Duration":932256,"SoundDuration":932256,"Delta":41892824},{"NoteNumber":74,"Velocity":48,"Duration":116531,"SoundDuration":116531,"Delta":42592016},{"NoteNumber":72,"Velocity":48,"Duration":116531,"SoundDuration":116531,"Delta":42708548},{"NoteNumber":70,"Velocity":52,"Duration":116531,"SoundDuration":116531,"Delta":42825080},{"NoteNumber":69,"Velocity":48,"Duration":116531,"SoundDuration":116531,"Delta":43058144},{"NoteNumber":67,"Velocity":48,"Duration":116531,"SoundDuration":116531,"Delta":43291208},{"NoteNumber":65,"Velocity":48,"Duration":116531,"SoundDuration":116531,"Delta":43524272},{"NoteNumber":65,"Velocity":54,"Duration":237116,"SoundDuration":237116,"Delta":43757336},{"NoteNumber":74,"Velocity":50,"Duration":251842,"SoundDuration":251842,"Delta":43984573},{"NoteNumber":65,"Velocity":72,"Duration":712630,"SoundDuration":712630,"Delta":44246935},{"NoteNumber":74,"Velocity":72,"Duration":712630,"SoundDuration":712630,"Delta":44246935},{"NoteNumber":58,"Velocity":68,"Duration":945694,"SoundDuration":945694,"Delta":44246935},{"NoteNumber":46,"Velocity":68,"Duration":945694,"SoundDuration":945694,"Delta":44246935},{"NoteNumber":72,"Velocity":53,"Duration":233063,"SoundDuration":233063,"Delta":44959565},{"NoteNumber":76,"Velocity":56,"Duration":233063,"SoundDuration":233063,"Delta":45192629},{"NoteNumber":57,"Velocity":44,"Duration":466127,"SoundDuration":466127,"Delta":45192629},{"NoteNumber":77,"Velocity":53,"Duration":233063,"SoundDuration":233063,"Delta":45425693},{"NoteNumber":77,"Velocity":61,"Duration":229147,"SoundDuration":229147,"Delta":45658757},{"NoteNumber":59,"Velocity":38,"Duration":462211,"SoundDuration":462211,"Delta":45658757},{"NoteNumber":62,"Velocity":38,"Duration":462211,"SoundDuration":462211,"Delta":45658757},{"NoteNumber":67,"Velocity":53,"Duration":466127,"SoundDuration":466127,"Delta":45887905},{"NoteNumber":60,"Velocity":38,"Duration":466128,"SoundDuration":466128,"Delta":46120969},{"NoteNumber":69,"Velocity":53,"Duration":233064,"SoundDuration":233064,"Delta":46354033},{"NoteNumber":77,"Velocity":61,"Duration":229147,"SoundDuration":229147,"Delta":46587097},{"NoteNumber":62,"Velocity":38,"Duration":462211,"SoundDuration":462211,"Delta":46587097},{"NoteNumber":59,"Velocity":38,"Duration":462211,"SoundDuration":462211,"Delta":46587097},{"NoteNumber":67,"Velocity":53,"Duration":466127,"SoundDuration":466127,"Delta":46816244},{"NoteNumber":60,"Velocity":40,"Duration":466128,"SoundDuration":466128,"Delta":47049308},{"NoteNumber":69,"Velocity":53,"Duration":233064,"SoundDuration":233064,"Delta":47282372},{"NoteNumber":72,"Velocity":58,"Duration":472260,"SoundDuration":472260,"Delta":47515436},{"NoteNumber":62,"Velocity":39,"Duration":472260,"SoundDuration":472260,"Delta":47515436},{"NoteNumber":70,"Velocity":52,"Duration":58768,"SoundDuration":58768,"Delta":47987697},{"NoteNumber":64,"Velocity":35,"Duration":470145,"SoundDuration":470145,"Delta":47987697},{"NoteNumber":72,"Velocity":48,"Duration":58768,"SoundDuration":58768,"Delta":48046465},{"NoteNumber":70,"Velocity":52,"Duration":58768,"SoundDuration":58768,"Delta":48105233},{"NoteNumber":72,"Velocity":48,"Duration":58768,"SoundDuration":58768,"Delta":48164002},{"NoteNumber":70,"Velocity":52,"Duration":39178,"SoundDuration":39178,"Delta":48222770},{"NoteNumber":72,"Velocity":48,"Duration":39178,"SoundDuration":39178,"Delta":48261949},{"NoteNumber":70,"Velocity":48,"Duration":39178,"SoundDuration":39178,"Delta":48301128},{"NoteNumber":69,"Velocity":52,"Duration":58768,"SoundDuration":58768,"Delta":48340306},{"NoteNumber":70,"Velocity":49,"Duration":58768,"SoundDuration":58768,"Delta":48399075},{"NoteNumber":69,"Velocity":57,"Duration":117536,"SoundDuration":117536,"Delta":48457843},{"NoteNumber":65,"Velocity":35,"Duration":468136,"SoundDuration":468136,"Delta":48457843},{"NoteNumber":69,"Velocity":53,"Duration":233063,"SoundDuration":233063,"Delta":48692916},{"NoteNumber":70,"Velocity":56,"Duration":233063,"SoundDuration":233063,"Delta":48925980},{"NoteNumber":72,"Velocity":53,"Duration":233064,"SoundDuration":233064,"Delta":49159044},{"NoteNumber":73,"Velocity":65,"Duration":237116,"SoundDuration":237116,"Delta":49392108},{"NoteNumber":74,"Velocity":54,"Duration":466127,"SoundDuration":466127,"Delta":49629224},{"NoteNumber":46,"Velocity":45,"Duration":233063,"SoundDuration":233063,"Delta":49629224},{"NoteNumber":50,"Velocity":46,"Duration":233063,"SoundDuration":233063,"Delta":49862288},{"NoteNumber":72,"Velocity":54,"Duration":115057,"SoundDuration":115057,"Delta":50095352},{"NoteNumber":55,"Velocity":45,"Duration":230114,"SoundDuration":230114,"Delta":50095352},{"NoteNumber":70,"Velocity":50,"Duration":115057,"SoundDuration":115057,"Delta":50210410},{"NoteNumber":69,"Velocity":54,"Duration":233063,"SoundDuration":233063,"Delta":50325467},{"NoteNumber":58,"Velocity":52,"Duration":466127,"SoundDuration":466127,"Delta":50325467},{"NoteNumber":67,"Velocity":53,"Duration":233063,"SoundDuration":233063,"Delta":50558531},{"NoteNumber":69,"Velocity":54,"Duration":233063,"SoundDuration":233063,"Delta":50791595},{"NoteNumber":70,"Velocity":52,"Duration":233064,"SoundDuration":233064,"Delta":51024659},{"NoteNumber":74,"Velocity":63,"Duration":238151,"SoundDuration":238151,"Delta":51257723},{"NoteNumber":72,"Velocity":53,"Duration":466127,"SoundDuration":466127,"Delta":51495875},{"NoteNumber":45,"Velocity":44,"Duration":233063,"SoundDuration":233063,"Delta":51495875},{"NoteNumber":48,"Velocity":44,"Duration":233063,"SoundDuration":233063,"Delta":51728939},{"NoteNumber":70,"Velocity":54,"Duration":115544,"SoundDuration":115544,"Delta":51962003},{"NoteNumber":53,"Velocity":42,"Duration":231088,"SoundDuration":231088,"Delta":51962003},{"NoteNumber":69,"Velocity":52,"Duration":115544,"SoundDuration":115544,"Delta":52077547},{"NoteNumber":67,"Velocity":56,"Duration":233063,"SoundDuration":233063,"Delta":52193092},{"NoteNumber":57,"Velocity":52,"Duration":466127,"SoundDuration":466127,"Delta":52193092},{"NoteNumber":65,"Velocity":54,"Duration":233063,"SoundDuration":233063,"Delta":52426156},{"NoteNumber":67,"Velocity":54,"Duration":233064,"SoundDuration":233064,"Delta":52659220},{"NoteNumber":69,"Velocity":54,"Duration":233063,"SoundDuration":233063,"Delta":52892284},{"NoteNumber":72,"Velocity":63,"Duration":238151,"SoundDuration":238151,"Delta":53125348},{"NoteNumber":55,"Velocity":44,"Duration":471215,"SoundDuration":471215,"Delta":53125348},{"NoteNumber":70,"Velocity":51,"Duration":466127,"SoundDuration":466127,"Delta":53363500},{"NoteNumber":52,"Velocity":41,"Duration":466127,"SoundDuration":466127,"Delta":53596564},{"NoteNumber":67,"Velocity":51,"Duration":233063,"SoundDuration":233063,"Delta":53829628},{"NoteNumber":70,"Velocity":62,"Duration":238151,"SoundDuration":238151,"Delta":54062692},{"NoteNumber":53,"Velocity":43,"Duration":470224,"SoundDuration":470224,"Delta":54062692},{"NoteNumber":69,"Velocity":52,"Duration":464145,"SoundDuration":464145,"Delta":54300844},{"NoteNumber":50,"Velocity":42,"Duration":464145,"SoundDuration":464145,"Delta":54532916},{"NoteNumber":65,"Velocity":52,"Duration":232072,"SoundDuration":232072,"Delta":54764989},{"NoteNumber":64,"Velocity":61,"Duration":117032,"SoundDuration":117032,"Delta":54997061},{"NoteNumber":48,"Velocity":44,"Duration":468128,"SoundDuration":468128,"Delta":54997061},{"NoteNumber":65,"Velocity":53,"Duration":117031,"SoundDuration":117031,"Delta":55114093},{"NoteNumber":67,"Velocity":53,"Duration":117032,"SoundDuration":117032,"Delta":55231125},{"NoteNumber":69,"Velocity":50,"Duration":117032,"SoundDuration":117032,"Delta":55348157},{"NoteNumber":71,"Velocity":59,"Duration":116036,"SoundDuration":116036,"Delta":55465189},{"NoteNumber":72,"Velocity":54,"Duration":116036,"SoundDuration":116036,"Delta":55581226},{"NoteNumber":71,"Velocity":54,"Duration":116036,"SoundDuration":116036,"Delta":55697262},{"NoteNumber":72,"Velocity":51,"Duration":116036,"SoundDuration":116036,"Delta":55813298},{"NoteNumber":60,"Velocity":56,"Duration":464144,"SoundDuration":464144,"Delta":55929334},{"NoteNumber":48,"Velocity":53,"Duration":116036,"SoundDuration":116036,"Delta":55929334},{"NoteNumber":50,"Velocity":49,"Duration":116036,"SoundDuration":116036,"Delta":56045371},{"NoteNumber":46,"Velocity":54,"Duration":116036,"SoundDuration":116036,"Delta":56161407},{"NoteNumber":48,"Velocity":49,"Duration":116036,"SoundDuration":116036,"Delta":56277443},{"NoteNumber":45,"Velocity":54,"Duration":116037,"SoundDuration":116037,"Delta":56393479},{"NoteNumber":46,"Velocity":49,"Duration":117537,"SoundDuration":117537,"Delta":56509517},{"NoteNumber":43,"Velocity":56,"Duration":119077,"SoundDuration":119077,"Delta":56627055},{"NoteNumber":45,"Velocity":49,"Duration":120657,"SoundDuration":120657,"Delta":56746132},{"NoteNumber":72,"Velocity":71,"Duration":699192,"SoundDuration":699192,"Delta":56866790},{"NoteNumber":69,"Velocity":71,"Duration":699192,"SoundDuration":699192,"Delta":56866790},{"NoteNumber":41,"Velocity":66,"Duration":466127,"SoundDuration":466127,"Delta":56866790},{"NoteNumber":53,"Velocity":46,"Duration":466128,"SoundDuration":466128,"Delta":57332918},{"NoteNumber":74,"Velocity":51,"Duration":116531,"SoundDuration":116531,"Delta":57565982},{"NoteNumber":72,"Velocity":51,"Duration":116531,"SoundDuration":116531,"Delta":57682514},{"NoteNumber":70,"Velocity":57,"Duration":116531,"SoundDuration":116531,"Delta":57799046},{"NoteNumber":69,"Velocity":50,"Duration":116531,"SoundDuration":116531,"Delta":58032110},{"NoteNumber":67,"Velocity":50,"Duration":116531,"SoundDuration":116531,"Delta":58265174},{"NoteNumber":65,"Velocity":50,"Duration":116531,"SoundDuration":116531,"Delta":58498238},{"NoteNumber":65,"Velocity":54,"Duration":237116,"SoundDuration":237116,"Delta":58731302},{"NoteNumber":74,"Velocity":50,"Duration":237564,"SoundDuration":237564,"Delta":58968419},{"NoteNumber":74,"Velocity":71,"Duration":711349,"SoundDuration":711349,"Delta":59216312},{"NoteNumber":65,"Velocity":71,"Duration":711349,"SoundDuration":711349,"Delta":59216312},{"NoteNumber":46,"Velocity":59,"Duration":944413,"SoundDuration":944413,"Delta":59216312},{"NoteNumber":58,"Velocity":59,"Duration":944413,"SoundDuration":944413,"Delta":59216312},{"NoteNumber":72,"Velocity":53,"Duration":233063,"SoundDuration":233063,"Delta":59927661},{"NoteNumber":76,"Velocity":66,"Duration":233063,"SoundDuration":233063,"Delta":60160725},{"NoteNumber":57,"Velocity":43,"Duration":462211,"SoundDuration":462211,"Delta":60160725},{"NoteNumber":77,"Velocity":63,"Duration":458295,"SoundDuration":458295,"Delta":60393789},{"NoteNumber":59,"Velocity":43,"Duration":462211,"SoundDuration":462211,"Delta":60622937},{"NoteNumber":62,"Velocity":43,"Duration":462211,"SoundDuration":462211,"Delta":60622937},{"NoteNumber":67,"Velocity":53,"Duration":233063,"SoundDuration":233063,"Delta":60852084},{"NoteNumber":69,"Velocity":53,"Duration":233063,"SoundDuration":233063,"Delta":61085148},{"NoteNumber":60,"Velocity":43,"Duration":462211,"SoundDuration":462211,"Delta":61085148},{"NoteNumber":77,"Velocity":69,"Duration":458295,"SoundDuration":458295,"Delta":61318212},{"NoteNumber":62,"Velocity":43,"Duration":462211,"SoundDuration":462211,"Delta":61547360},{"NoteNumber":59,"Velocity":43,"Duration":462211,"SoundDuration":462211,"Delta":61547360},{"NoteNumber":67,"Velocity":53,"Duration":233063,"SoundDuration":233063,"Delta":61776507},{"NoteNumber":69,"Velocity":53,"Duration":233063,"SoundDuration":233063,"Delta":62009571},{"NoteNumber":60,"Velocity":43,"Duration":466128,"SoundDuration":466128,"Delta":62009571},{"NoteNumber":77,"Velocity":69,"Duration":116531,"SoundDuration":116531,"Delta":62242635},{"NoteNumber":72,"Velocity":54,"Duration":474232,"SoundDuration":474232,"Delta":62475699},{"NoteNumber":65,"Velocity":43,"Duration":474232,"SoundDuration":474232,"Delta":62475699},{"NoteNumber":62,"Velocity":43,"Duration":474232,"SoundDuration":474232,"Delta":62475699},{"NoteNumber":71,"Velocity":53,"Duration":237116,"SoundDuration":237116,"Delta":62949932},{"NoteNumber":67,"Velocity":43,"Duration":474232,"SoundDuration":474232,"Delta":62949932},{"NoteNumber":64,"Velocity":43,"Duration":474232,"SoundDuration":474232,"Delta":62949932},{"NoteNumber":70,"Velocity":53,"Duration":237116,"SoundDuration":237116,"Delta":63187049},{"NoteNumber":69,"Velocity":48,"Duration":118558,"SoundDuration":118558,"Delta":63424165},{"NoteNumber":65,"Velocity":46,"Duration":469189,"SoundDuration":469189,"Delta":63424165},{"NoteNumber":69,"Velocity":54,"Duration":232072,"SoundDuration":232072,"Delta":63661282},{"NoteNumber":70,"Velocity":60,"Duration":232072,"SoundDuration":232072,"Delta":63893354},{"NoteNumber":72,"Velocity":64,"Duration":232072,"SoundDuration":232072,"Delta":64125427},{"NoteNumber":73,"Velocity":75,"Duration":58018,"SoundDuration":58018,"Delta":64357499},{"NoteNumber":74,"Velocity":70,"Duration":638199,"SoundDuration":638199,"Delta":64415518},{"NoteNumber":50,"Velocity":54,"Duration":232072,"SoundDuration":232072,"Delta":64589572},{"NoteNumber":62,"Velocity":61,"Duration":116036,"SoundDuration":116036,"Delta":64821644},{"NoteNumber":76,"Velocity":70,"Duration":116036,"SoundDuration":116036,"Delta":65053717},{"NoteNumber":60,"Velocity":53,"Duration":116036,"SoundDuration":116036,"Delta":65053717},{"NoteNumber":78,"Velocity":67,"Duration":115057,"SoundDuration":115057,"Delta":65169753},{"NoteNumber":79,"Velocity":70,"Duration":115057,"SoundDuration":115057,"Delta":65284810},{"NoteNumber":58,"Velocity":60,"Duration":115057,"SoundDuration":115057,"Delta":65284810},{"NoteNumber":81,"Velocity":67,"Duration":115057,"SoundDuration":115057,"Delta":65399868},{"NoteNumber":82,"Velocity":70,"Duration":115057,"SoundDuration":115057,"Delta":65514925},{"NoteNumber":46,"Velocity":53,"Duration":230114,"SoundDuration":230114,"Delta":65514925},{"NoteNumber":81,"Velocity":67,"Duration":115057,"SoundDuration":115057,"Delta":65629982},{"NoteNumber":79,"Velocity":70,"Duration":115057,"SoundDuration":115057,"Delta":65745039},{"NoteNumber":58,"Velocity":61,"Duration":115057,"SoundDuration":115057,"Delta":65745039},{"NoteNumber":81,"Velocity":67,"Duration":115057,"SoundDuration":115057,"Delta":65860097},{"NoteNumber":77,"Velocity":70,"Duration":115057,"SoundDuration":115057,"Delta":65975154},{"NoteNumber":57,"Velocity":53,"Duration":115057,"SoundDuration":115057,"Delta":65975154},{"NoteNumber":79,"Velocity":67,"Duration":115057,"SoundDuration":115057,"Delta":66090211},{"NoteNumber":76,"Velocity":71,"Duration":114573,"SoundDuration":114573,"Delta":66205268},{"NoteNumber":55,"Velocity":57,"Duration":229147,"SoundDuration":229147,"Delta":66205268},{"NoteNumber":77,"Velocity":66,"Duration":114573,"SoundDuration":114573,"Delta":66319842},{"NoteNumber":74,"Velocity":71,"Duration":115057,"SoundDuration":115057,"Delta":66434416},{"NoteNumber":53,"Velocity":53,"Duration":230114,"SoundDuration":230114,"Delta":66434416},{"NoteNumber":76,"Velocity":67,"Duration":115057,"SoundDuration":115057,"Delta":66549473},{"NoteNumber":72,"Velocity":70,"Duration":115544,"SoundDuration":115544,"Delta":66664530},{"NoteNumber":52,"Velocity":53,"Duration":231088,"SoundDuration":231088,"Delta":66664530},{"NoteNumber":74,"Velocity":65,"Duration":115544,"SoundDuration":115544,"Delta":66780075},{"NoteNumber":70,"Velocity":68,"Duration":116036,"SoundDuration":116036,"Delta":66895619},{"NoteNumber":48,"Velocity":53,"Duration":232072,"SoundDuration":232072,"Delta":66895619},{"NoteNumber":72,"Velocity":61,"Duration":116036,"SoundDuration":116036,"Delta":67011656},{"NoteNumber":69,"Velocity":66,"Duration":116036,"SoundDuration":116036,"Delta":67127692},{"NoteNumber":53,"Velocity":60,"Duration":463489,"SoundDuration":463489,"Delta":67127692},{"NoteNumber":70,"Velocity":64,"Duration":116036,"SoundDuration":116036,"Delta":67243728},{"NoteNumber":72,"Velocity":68,"Duration":115872,"SoundDuration":115872,"Delta":67359764},{"NoteNumber":74,"Velocity":64,"Duration":115544,"SoundDuration":115544,"Delta":67475637},{"NoteNumber":76,"Velocity":71,"Duration":115544,"SoundDuration":115544,"Delta":67591181},{"NoteNumber":45,"Velocity":56,"Duration":464897,"SoundDuration":464897,"Delta":67591181},{"NoteNumber":77,"Velocity":68,"Duration":115219,"SoundDuration":115219,"Delta":67706726},{"NoteNumber":76,"Velocity":71,"Duration":115057,"SoundDuration":115057,"Delta":67821945},{"NoteNumber":77,"Velocity":68,"Duration":119076,"SoundDuration":119076,"Delta":67937003},{"NoteNumber":79,"Velocity":72,"Duration":114573,"SoundDuration":114573,"Delta":68056079},{"NoteNumber":46,"Velocity":59,"Duration":461766,"SoundDuration":461766,"Delta":68056079},{"NoteNumber":77,"Velocity":70,"Duration":114573,"SoundDuration":114573,"Delta":68170652},{"NoteNumber":76,"Velocity":69,"Duration":114573,"SoundDuration":114573,"Delta":68285226},{"NoteNumber":74,"Velocity":67,"Duration":118045,"SoundDuration":118045,"Delta":68399800},{"NoteNumber":76,"Velocity":72,"Duration":115057,"SoundDuration":115057,"Delta":68517845},{"NoteNumber":58,"Velocity":53,"Duration":460228,"SoundDuration":460228,"Delta":68517845},{"NoteNumber":74,"Velocity":70,"Duration":115057,"SoundDuration":115057,"Delta":68632902},{"NoteNumber":72,"Velocity":69,"Duration":115057,"SoundDuration":115057,"Delta":68747960},{"NoteNumber":70,"Velocity":67,"Duration":115057,"SoundDuration":115057,"Delta":68863017},{"NoteNumber":69,"Velocity":71,"Duration":470145,"SoundDuration":470145,"Delta":68978074},{"NoteNumber":60,"Velocity":54,"Duration":470145,"SoundDuration":470145,"Delta":68978074},{"NoteNumber":67,"Velocity":58,"Duration":60062,"SoundDuration":60062,"Delta":69448220},{"NoteNumber":64,"Velocity":58,"Duration":480500,"SoundDuration":480500,"Delta":69448220},{"NoteNumber":48,"Velocity":53,"Duration":480500,"SoundDuration":480500,"Delta":69448220},{"NoteNumber":69,"Velocity":51,"Duration":60062,"SoundDuration":60062,"Delta":69508283},{"NoteNumber":67,"Velocity":58,"Duration":60062,"SoundDuration":60062,"Delta":69568345},{"NoteNumber":69,"Velocity":52,"Duration":60062,"SoundDuration":60062,"Delta":69628408},{"NoteNumber":67,"Velocity":58,"Duration":40041,"SoundDuration":40041,"Delta":69688470},{"NoteNumber":69,"Velocity":53,"Duration":40041,"SoundDuration":40041,"Delta":69728512},{"NoteNumber":67,"Velocity":53,"Duration":40041,"SoundDuration":40041,"Delta":69768553},{"NoteNumber":65,"Velocity":66,"Duration":60062,"SoundDuration":60062,"Delta":69808595},{"NoteNumber":67,"Velocity":62,"Duration":60062,"SoundDuration":60062,"Delta":69868658},{"NoteNumber":65,"Velocity":75,"Duration":480499,"SoundDuration":480499,"Delta":69928720},{"NoteNumber":53,"Velocity":53,"Duration":120124,"SoundDuration":120124,"Delta":69928720},{"NoteNumber":60,"Velocity":46,"Duration":120125,"SoundDuration":120125,"Delta":70048845},{"NoteNumber":59,"Velocity":49,"Duration":120125,"SoundDuration":120125,"Delta":70168970},{"NoteNumber":60,"Velocity":46,"Duration":120125,"SoundDuration":120125,"Delta":70289095},{"NoteNumber":62,"Velocity":53,"Duration":120125,"SoundDuration":120125,"Delta":70409220},{"NoteNumber":60,"Velocity":46,"Duration":120125,"SoundDuration":120125,"Delta":70529345},{"NoteNumber":59,"Velocity":49,"Duration":120125,"SoundDuration":120125,"Delta":70649470},{"NoteNumber":60,"Velocity":46,"Duration":120125,"SoundDuration":120125,"Delta":70769595},{"NoteNumber":58,"Velocity":53,"Duration":120125,"SoundDuration":120125,"Delta":70889720},{"NoteNumber":60,"Velocity":50,"Duration":120124,"SoundDuration":120124,"Delta":71009845},{"NoteNumber":57,"Velocity":53,"Duration":120125,"SoundDuration":120125,"Delta":71129970},{"NoteNumber":60,"Velocity":49,"Duration":120125,"SoundDuration":120125,"Delta":71250095},{"NoteNumber":55,"Velocity":53,"Duration":120125,"SoundDuration":120125,"Delta":71370220},{"NoteNumber":60,"Velocity":50,"Duration":120125,"SoundDuration":120125,"Delta":71490345},{"NoteNumber":53,"Velocity":53,"Duration":120125,"SoundDuration":120125,"Delta":71610470},{"NoteNumber":60,"Velocity":50,"Duration":120125,"SoundDuration":120125,"Delta":71730595},{"NoteNumber":82,"Velocity":96,"Duration":237116,"SoundDuration":237116,"Delta":71850720},{"NoteNumber":52,"Velocity":48,"Duration":118558,"SoundDuration":118558,"Delta":71850720},{"NoteNumber":60,"Velocity":42,"Duration":118558,"SoundDuration":118558,"Delta":71969278},{"NoteNumber":79,"Velocity":62,"Duration":118558,"SoundDuration":118558,"Delta":72087837},{"NoteNumber":55,"Velocity":42,"Duration":118558,"SoundDuration":118558,"Delta":72087837},{"NoteNumber":60,"Velocity":40,"Duration":118558,"SoundDuration":118558,"Delta":72206395},{"NoteNumber":76,"Velocity":66,"Duration":118558,"SoundDuration":118558,"Delta":72324953},{"NoteNumber":58,"Velocity":48,"Duration":118558,"SoundDuration":118558,"Delta":72324953},{"NoteNumber":60,"Velocity":42,"Duration":118558,"SoundDuration":118558,"Delta":72443511},{"NoteNumber":76,"Velocity":62,"Duration":118558,"SoundDuration":118558,"Delta":72562070},{"NoteNumber":58,"Velocity":42,"Duration":118558,"SoundDuration":118558,"Delta":72562070},{"NoteNumber":60,"Velocity":41,"Duration":118558,"SoundDuration":118558,"Delta":72680628},{"NoteNumber":82,"Velocity":96,"Duration":237116,"SoundDuration":237116,"Delta":72799186},{"NoteNumber":52,"Velocity":47,"Duration":118558,"SoundDuration":118558,"Delta":72799186},{"NoteNumber":60,"Velocity":43,"Duration":118558,"SoundDuration":118558,"Delta":72917744},{"NoteNumber":79,"Velocity":59,"Duration":118558,"SoundDuration":118558,"Delta":73036303},{"NoteNumber":55,"Velocity":43,"Duration":118558,"SoundDuration":118558,"Delta":73036303},{"NoteNumber":60,"Velocity":42,"Duration":118558,"SoundDuration":118558,"Delta":73154861},{"NoteNumber":76,"Velocity":63,"Duration":118558,"SoundDuration":118558,"Delta":73273419},{"NoteNumber":58,"Velocity":48,"Duration":118558,"SoundDuration":118558,"Delta":73273419},{"NoteNumber":60,"Velocity":42,"Duration":118558,"SoundDuration":118558,"Delta":73391977},{"NoteNumber":76,"Velocity":60,"Duration":118558,"SoundDuration":118558,"Delta":73510536},{"NoteNumber":58,"Velocity":42,"Duration":118558,"SoundDuration":118558,"Delta":73510536},{"NoteNumber":60,"Velocity":42,"Duration":118558,"SoundDuration":118558,"Delta":73629094},{"NoteNumber":77,"Velocity":62,"Duration":116532,"SoundDuration":116532,"Delta":73747652},{"NoteNumber":57,"Velocity":44,"Duration":116532,"SoundDuration":116532,"Delta":73747652},{"NoteNumber":60,"Velocity":45,"Duration":116531,"SoundDuration":116531,"Delta":73864184},{"NoteNumber":79,"Velocity":63,"Duration":116532,"SoundDuration":116532,"Delta":73980716},{"NoteNumber":52,"Velocity":45,"Duration":116532,"SoundDuration":116532,"Delta":73980716},{"NoteNumber":60,"Velocity":45,"Duration":116531,"SoundDuration":116531,"Delta":74097248},{"NoteNumber":81,"Velocity":64,"Duration":116532,"SoundDuration":116532,"Delta":74213780},{"NoteNumber":53,"Velocity":46,"Duration":116532,"SoundDuration":116532,"Delta":74213780},{"NoteNumber":60,"Velocity":47,"Duration":116531,"SoundDuration":116531,"Delta":74330312},{"NoteNumber":82,"Velocity":66,"Duration":116532,"SoundDuration":116532,"Delta":74446844},{"NoteNumber":55,"Velocity":48,"Duration":116532,"SoundDuration":116532,"Delta":74446844},{"NoteNumber":60,"Velocity":49,"Duration":121192,"SoundDuration":121192,"Delta":74563376},{"NoteNumber":83,"Velocity":93,"Duration":235072,"SoundDuration":235072,"Delta":74684569},{"NoteNumber":56,"Velocity":53,"Duration":117536,"SoundDuration":117536,"Delta":74684569},{"NoteNumber":60,"Velocity":48,"Duration":117536,"SoundDuration":117536,"Delta":74802105},{"NoteNumber":84,"Velocity":75,"Duration":235072,"SoundDuration":235072,"Delta":74919642},{"NoteNumber":57,"Velocity":53,"Duration":117536,"SoundDuration":117536,"Delta":74919642},{"NoteNumber":60,"Velocity":46,"Duration":117536,"SoundDuration":117536,"Delta":75037178},{"NoteNumber":83,"Velocity":93,"Duration":235072,"SoundDuration":235072,"Delta":75154715},{"NoteNumber":56,"Velocity":53,"Duration":117536,"SoundDuration":117536,"Delta":75154715},{"NoteNumber":60,"Velocity":46,"Duration":117536,"SoundDuration":117536,"Delta":75272251},{"NoteNumber":84,"Velocity":75,"Duration":235072,"SoundDuration":235072,"Delta":75389788},{"NoteNumber":57,"Velocity":53,"Duration":117536,"SoundDuration":117536,"Delta":75389788},{"NoteNumber":60,"Velocity":47,"Duration":117536,"SoundDuration":117536,"Delta":75507324},{"NoteNumber":82,"Velocity":95,"Duration":237116,"SoundDuration":237116,"Delta":75624861},{"NoteNumber":52,"Velocity":48,"Duration":118558,"SoundDuration":118558,"Delta":75624861},{"NoteNumber":60,"Velocity":38,"Duration":118558,"SoundDuration":118558,"Delta":75743419},{"NoteNumber":79,"Velocity":62,"Duration":118558,"SoundDuration":118558,"Delta":75861977},{"NoteNumber":55,"Velocity":42,"Duration":118558,"SoundDuration":118558,"Delta":75861977},{"NoteNumber":60,"Velocity":39,"Duration":118558,"SoundDuration":118558,"Delta":75980535},{"NoteNumber":76,"Velocity":67,"Duration":118558,"SoundDuration":118558,"Delta":76099094},{"NoteNumber":58,"Velocity":48,"Duration":118558,"SoundDuration":118558,"Delta":76099094},{"NoteNumber":60,"Velocity":39,"Duration":118558,"SoundDuration":118558,"Delta":76217652},{"NoteNumber":76,"Velocity":62,"Duration":118558,"SoundDuration":118558,"Delta":76336210},{"NoteNumber":58,"Velocity":42,"Duration":118558,"SoundDuration":118558,"Delta":76336210},{"NoteNumber":60,"Velocity":40,"Duration":118558,"SoundDuration":118558,"Delta":76454768},{"NoteNumber":82,"Velocity":97,"Duration":237116,"SoundDuration":237116,"Delta":76573327},{"NoteNumber":52,"Velocity":47,"Duration":118558,"SoundDuration":118558,"Delta":76573327},{"NoteNumber":60,"Velocity":41,"Duration":118558,"SoundDuration":118558,"Delta":76691885},{"NoteNumber":79,"Velocity":59,"Duration":118558,"SoundDuration":118558,"Delta":76810443},{"NoteNumber":55,"Velocity":43,"Duration":118558,"SoundDuration":118558,"Delta":76810443},{"NoteNumber":60,"Velocity":40,"Duration":118558,"SoundDuration":118558,"Delta":76929001},{"NoteNumber":76,"Velocity":65,"Duration":118558,"SoundDuration":118558,"Delta":77047560},{"NoteNumber":58,"Velocity":48,"Duration":118558,"SoundDuration":118558,"Delta":77047560},{"NoteNumber":60,"Velocity":38,"Duration":118558,"SoundDuration":118558,"Delta":77166118},{"NoteNumber":76,"Velocity":60,"Duration":118558,"SoundDuration":118558,"Delta":77284676},{"NoteNumber":58,"Velocity":42,"Duration":118558,"SoundDuration":118558,"Delta":77284676},{"NoteNumber":60,"Velocity":40,"Duration":118558,"SoundDuration":118558,"Delta":77403234},{"NoteNumber":77,"Velocity":62,"Duration":116532,"SoundDuration":116532,"Delta":77521793},{"NoteNumber":57,"Velocity":44,"Duration":116532,"SoundDuration":116532,"Delta":77521793},{"NoteNumber":60,"Velocity":43,"Duration":116531,"SoundDuration":116531,"Delta":77638325},{"NoteNumber":79,"Velocity":63,"Duration":116532,"SoundDuration":116532,"Delta":77754857},{"NoteNumber":52,"Velocity":45,"Duration":116532,"SoundDuration":116532,"Delta":77754857},{"NoteNumber":60,"Velocity":45,"Duration":116531,"SoundDuration":116531,"Delta":77871389},{"NoteNumber":81,"Velocity":64,"Duration":116532,"SoundDuration":116532,"Delta":77987921},{"NoteNumber":53,"Velocity":46,"Duration":116532,"SoundDuration":116532,"Delta":77987921},{"NoteNumber":60,"Velocity":45,"Duration":116531,"SoundDuration":116531,"Delta":78104453},{"NoteNumber":82,"Velocity":66,"Duration":116532,"SoundDuration":116532,"Delta":78220985},{"NoteNumber":55,"Velocity":48,"Duration":116532,"SoundDuration":116532,"Delta":78220985},{"NoteNumber":60,"Velocity":47,"Duration":120656,"SoundDuration":120656,"Delta":78337517},{"NoteNumber":83,"Velocity":93,"Duration":236090,"SoundDuration":236090,"Delta":78458173},{"NoteNumber":56,"Velocity":53,"Duration":118045,"SoundDuration":118045,"Delta":78458173},{"NoteNumber":60,"Velocity":48,"Duration":118045,"SoundDuration":118045,"Delta":78576218},{"NoteNumber":84,"Velocity":75,"Duration":236090,"SoundDuration":236090,"Delta":78694263},{"NoteNumber":57,"Velocity":53,"Duration":118045,"SoundDuration":118045,"Delta":78694263},{"NoteNumber":60,"Velocity":46,"Duration":118045,"SoundDuration":118045,"Delta":78812309},{"NoteNumber":83,"Velocity":93,"Duration":236090,"SoundDuration":236090,"Delta":78930354},{"NoteNumber":56,"Velocity":53,"Duration":118045,"SoundDuration":118045,"Delta":78930354},{"NoteNumber":60,"Velocity":46,"Duration":118045,"SoundDuration":118045,"Delta":79048399},{"NoteNumber":84,"Velocity":75,"Duration":261558,"SoundDuration":261558,"Delta":79166444},{"NoteNumber":57,"Velocity":53,"Duration":118045,"SoundDuration":118045,"Delta":79166444},{"NoteNumber":60,"Velocity":47,"Duration":143513,"SoundDuration":143513,"Delta":79284490},{"NoteNumber":74,"Velocity":78,"Duration":944361,"SoundDuration":944361,"Delta":79428003},{"NoteNumber":86,"Velocity":78,"Duration":944361,"SoundDuration":944361,"Delta":79428003},{"NoteNumber":58,"Velocity":36,"Duration":236090,"SoundDuration":236090,"Delta":79664093},{"NoteNumber":57,"Velocity":38,"Duration":236090,"SoundDuration":236090,"Delta":79900184},{"NoteNumber":58,"Velocity":36,"Duration":236090,"SoundDuration":236090,"Delta":80136274},{"NoteNumber":76,"Velocity":64,"Duration":944361,"SoundDuration":944361,"Delta":80372365},{"NoteNumber":64,"Velocity":64,"Duration":944361,"SoundDuration":944361,"Delta":80372365},{"NoteNumber":60,"Velocity":34,"Duration":236090,"SoundDuration":236090,"Delta":80608455},{"NoteNumber":59,"Velocity":38,"Duration":236090,"SoundDuration":236090,"Delta":80844546},{"NoteNumber":60,"Velocity":33,"Duration":236090,"SoundDuration":236090,"Delta":81080636},{"NoteNumber":70,"Velocity":71,"Duration":944361,"SoundDuration":944361,"Delta":81316727},{"NoteNumber":82,"Velocity":71,"Duration":944361,"SoundDuration":944361,"Delta":81316727},{"NoteNumber":61,"Velocity":34,"Duration":236090,"SoundDuration":236090,"Delta":81552817},{"NoteNumber":59,"Velocity":36,"Duration":236090,"SoundDuration":236090,"Delta":81788908},{"NoteNumber":61,"Velocity":34,"Duration":236090,"SoundDuration":236090,"Delta":82024998},{"NoteNumber":69,"Velocity":66,"Duration":944362,"SoundDuration":944362,"Delta":82261089},{"NoteNumber":81,"Velocity":66,"Duration":944362,"SoundDuration":944362,"Delta":82261089},{"NoteNumber":62,"Velocity":38,"Duration":236090,"SoundDuration":236090,"Delta":82497179},{"NoteNumber":61,"Velocity":40,"Duration":236090,"SoundDuration":236090,"Delta":82733270},{"NoteNumber":62,"Velocity":38,"Duration":236090,"SoundDuration":236090,"Delta":82969360},{"NoteNumber":81,"Velocity":75,"Duration":116036,"SoundDuration":116036,"Delta":83205451},{"NoteNumber":79,"Velocity":68,"Duration":116036,"SoundDuration":116036,"Delta":83321487},{"NoteNumber":82,"Velocity":72,"Duration":116036,"SoundDuration":116036,"Delta":83437523},{"NoteNumber":81,"Velocity":68,"Duration":116036,"SoundDuration":116036,"Delta":83553560},{"NoteNumber":84,"Velocity":72,"Duration":116036,"SoundDuration":116036,"Delta":83669596},{"NoteNumber":58,"Velocity":54,"Duration":464145,"SoundDuration":464145,"Delta":83669596},{"NoteNumber":67,"Velocity":54,"Duration":464145,"SoundDuration":464145,"Delta":83669596},{"NoteNumber":82,"Velocity":71,"Duration":116036,"SoundDuration":116036,"Delta":83785632},{"NoteNumber":81,"Velocity":71,"Duration":116036,"SoundDuration":116036,"Delta":83901668},{"NoteNumber":79,"Velocity":69,"Duration":116036,"SoundDuration":116036,"Delta":84017705},{"NoteNumber":77,"Velocity":72,"Duration":484769,"SoundDuration":484769,"Delta":84133741},{"NoteNumber":60,"Velocity":54,"Duration":987408,"SoundDuration":987408,"Delta":84133741},{"NoteNumber":69,"Velocity":54,"Duration":484769,"SoundDuration":484769,"Delta":84133741},{"NoteNumber":76,"Velocity":63,"Duration":502639,"SoundDuration":502639,"Delta":84618511},{"NoteNumber":70,"Velocity":45,"Duration":502639,"SoundDuration":502639,"Delta":84618511},{"NoteNumber":69,"Velocity":40,"Duration":938388,"SoundDuration":938388,"Delta":85121150},{"NoteNumber":65,"Velocity":34,"Duration":938388,"SoundDuration":938388,"Delta":85121150},{"NoteNumber":77,"Velocity":45,"Duration":233063,"SoundDuration":233063,"Delta":85360346},{"NoteNumber":76,"Velocity":49,"Duration":233063,"SoundDuration":233063,"Delta":85593410},{"NoteNumber":77,"Velocity":45,"Duration":233063,"SoundDuration":233063,"Delta":85826474},{"NoteNumber":69,"Velocity":36,"Duration":936308,"SoundDuration":936308,"Delta":86059538},{"NoteNumber":65,"Velocity":30,"Duration":936308,"SoundDuration":936308,"Delta":86059538},{"NoteNumber":75,"Velocity":45,"Duration":233063,"SoundDuration":233063,"Delta":86296655},{"NoteNumber":74,"Velocity":50,"Duration":233063,"SoundDuration":233063,"Delta":86529719},{"NoteNumber":75,"Velocity":46,"Duration":233063,"SoundDuration":233063,"Delta":86762783},{"NoteNumber":54,"Velocity":30,"Duration":964271,"SoundDuration":964271,"Delta":86995847},{"NoteNumber":57,"Velocity":30,"Duration":964271,"SoundDuration":964271,"Delta":86995847},{"NoteNumber":60,"Velocity":36,"Duration":964271,"SoundDuration":964271,"Delta":86995847},{"NoteNumber":74,"Velocity":54,"Duration":242384,"SoundDuration":242384,"Delta":87232963},{"NoteNumber":86,"Velocity":67,"Duration":242384,"SoundDuration":242384,"Delta":87475348},{"NoteNumber":86,"Velocity":63,"Duration":121192,"SoundDuration":121192,"Delta":87717733},{"NoteNumber":55,"Velocity":30,"Duration":944576,"SoundDuration":944576,"Delta":87960118},{"NoteNumber":58,"Velocity":36,"Duration":944576,"SoundDuration":944576,"Delta":87960118},{"NoteNumber":86,"Velocity":61,"Duration":234064,"SoundDuration":234064,"Delta":88202503},{"NoteNumber":74,"Velocity":51,"Duration":234063,"SoundDuration":234063,"Delta":88436567},{"NoteNumber":74,"Velocity":47,"Duration":117032,"SoundDuration":117032,"Delta":88670631},{"NoteNumber":52,"Velocity":29,"Duration":948465,"SoundDuration":948465,"Delta":88904695},{"NoteNumber":58,"Velocity":35,"Duration":948465,"SoundDuration":948465,"Delta":88904695},{"NoteNumber":55,"Velocity":29,"Duration":948465,"SoundDuration":948465,"Delta":88904695},{"NoteNumber":72,"Velocity":49,"Duration":237116,"SoundDuration":237116,"Delta":89141812},{"NoteNumber":84,"Velocity":62,"Duration":237116,"SoundDuration":237116,"Delta":89378928},{"NoteNumber":84,"Velocity":57,"Duration":118558,"SoundDuration":118558,"Delta":89616045},{"NoteNumber":57,"Velocity":35,"Duration":942335,"SoundDuration":942335,"Delta":89853161},{"NoteNumber":53,"Velocity":29,"Duration":942335,"SoundDuration":942335,"Delta":89853161},{"NoteNumber":84,"Velocity":56,"Duration":235072,"SoundDuration":235072,"Delta":90090278},{"NoteNumber":72,"Velocity":48,"Duration":235072,"SoundDuration":235072,"Delta":90325351},{"NoteNumber":72,"Velocity":45,"Duration":117536,"SoundDuration":117536,"Delta":90560424},{"NoteNumber":73,"Velocity":46,"Duration":235072,"SoundDuration":235072,"Delta":90795497},{"NoteNumber":74,"Velocity":50,"Duration":235072,"SoundDuration":235072,"Delta":91030570},{"NoteNumber":76,"Velocity":54,"Duration":233063,"SoundDuration":233063,"Delta":91265643},{"NoteNumber":55,"Velocity":32,"Duration":466127,"SoundDuration":466127,"Delta":91265643},{"NoteNumber":47,"Velocity":32,"Duration":466127,"SoundDuration":466127,"Delta":91265643},{"NoteNumber":77,"Velocity":49,"Duration":233063,"SoundDuration":233063,"Delta":91498707},{"NoteNumber":65,"Velocity":45,"Duration":478392,"SoundDuration":478392,"Delta":91731771},{"NoteNumber":57,"Velocity":36,"Duration":478392,"SoundDuration":478392,"Delta":91731771},{"NoteNumber":48,"Velocity":36,"Duration":988076,"SoundDuration":988076,"Delta":91731771},{"NoteNumber":64,"Velocity":42,"Duration":509683,"SoundDuration":509683,"Delta":92210164},{"NoteNumber":69,"Velocity":42,"Duration":254841,"SoundDuration":254841,"Delta":92210164},{"NoteNumber":58,"Velocity":35,"Duration":509683,"SoundDuration":509683,"Delta":92210164},{"NoteNumber":67,"Velocity":42,"Duration":254841,"SoundDuration":254841,"Delta":92465006},{"NoteNumber":65,"Velocity":45,"Duration":127421,"SoundDuration":127421,"Delta":92719848},{"NoteNumber":57,"Velocity":43,"Duration":127421,"SoundDuration":127421,"Delta":92719848},{"NoteNumber":53,"Velocity":43,"Duration":127421,"SoundDuration":127421,"Delta":92719848},{"NoteNumber":65,"Velocity":47,"Duration":116532,"SoundDuration":116532,"Delta":92974690},{"NoteNumber":69,"Velocity":45,"Duration":116531,"SoundDuration":116531,"Delta":93091222},{"NoteNumber":67,"Velocity":47,"Duration":116532,"SoundDuration":116532,"Delta":93207754},{"NoteNumber":64,"Velocity":35,"Duration":233063,"SoundDuration":233063,"Delta":93207754},{"NoteNumber":70,"Velocity":45,"Duration":116531,"SoundDuration":116531,"Delta":93324286},{"NoteNumber":69,"Velocity":47,"Duration":116532,"SoundDuration":116532,"Delta":93440818},{"NoteNumber":63,"Velocity":35,"Duration":233063,"SoundDuration":233063,"Delta":93440818},{"NoteNumber":72,"Velocity":45,"Duration":116531,"SoundDuration":116531,"Delta":93557350},{"NoteNumber":70,"Velocity":48,"Duration":120125,"SoundDuration":120125,"Delta":93673882},{"NoteNumber":62,"Velocity":43,"Duration":120125,"SoundDuration":120125,"Delta":93673882},{"NoteNumber":53,"Velocity":43,"Duration":120125,"SoundDuration":120125,"Delta":93673882},{"NoteNumber":65,"Velocity":52,"Duration":116532,"SoundDuration":116532,"Delta":93914132},{"NoteNumber":69,"Velocity":48,"Duration":116531,"SoundDuration":116531,"Delta":94030664},{"NoteNumber":67,"Velocity":52,"Duration":116532,"SoundDuration":116532,"Delta":94147196},{"NoteNumber":64,"Velocity":35,"Duration":233063,"SoundDuration":233063,"Delta":94147196},{"NoteNumber":70,"Velocity":48,"Duration":116531,"SoundDuration":116531,"Delta":94263728},{"NoteNumber":69,"Velocity":52,"Duration":116532,"SoundDuration":116532,"Delta":94380260},{"NoteNumber":63,"Velocity":35,"Duration":233063,"SoundDuration":233063,"Delta":94380260},{"NoteNumber":72,"Velocity":48,"Duration":116531,"SoundDuration":116531,"Delta":94496792},{"NoteNumber":70,"Velocity":52,"Duration":118558,"SoundDuration":118558,"Delta":94613324},{"NoteNumber":62,"Velocity":42,"Duration":118558,"SoundDuration":118558,"Delta":94613324},{"NoteNumber":53,"Velocity":42,"Duration":118558,"SoundDuration":118558,"Delta":94613324},{"NoteNumber":65,"Velocity":48,"Duration":116532,"SoundDuration":116532,"Delta":94850440},{"NoteNumber":69,"Velocity":50,"Duration":116531,"SoundDuration":116531,"Delta":94966972},{"NoteNumber":67,"Velocity":52,"Duration":116532,"SoundDuration":116532,"Delta":95083504},{"NoteNumber":64,"Velocity":43,"Duration":233063,"SoundDuration":233063,"Delta":95083504},{"NoteNumber":70,"Velocity":53,"Duration":116531,"SoundDuration":116531,"Delta":95200036},{"NoteNumber":69,"Velocity":54,"Duration":116532,"SoundDuration":116532,"Delta":95316568},{"NoteNumber":63,"Velocity":43,"Duration":233063,"SoundDuration":233063,"Delta":95316568},{"NoteNumber":72,"Velocity":57,"Duration":116531,"SoundDuration":116531,"Delta":95433100},{"NoteNumber":70,"Velocity":58,"Duration":116532,"SoundDuration":116532,"Delta":95549632},{"NoteNumber":62,"Velocity":47,"Duration":233063,"SoundDuration":233063,"Delta":95549632},{"NoteNumber":74,"Velocity":60,"Duration":116531,"SoundDuration":116531,"Delta":95666164},{"NoteNumber":72,"Velocity":61,"Duration":116532,"SoundDuration":116532,"Delta":95782696},{"NoteNumber":57,"Velocity":44,"Duration":233063,"SoundDuration":233063,"Delta":95782696},{"NoteNumber":75,"Velocity":63,"Duration":116531,"SoundDuration":116531,"Delta":95899228},{"NoteNumber":74,"Velocity":64,"Duration":116532,"SoundDuration":116532,"Delta":96015760},{"NoteNumber":58,"Velocity":46,"Duration":233063,"SoundDuration":233063,"Delta":96015760},{"NoteNumber":77,"Velocity":65,"Duration":116531,"SoundDuration":116531,"Delta":96132292},{"NoteNumber":76,"Velocity":67,"Duration":118558,"SoundDuration":118558,"Delta":96248824},{"NoteNumber":55,"Velocity":44,"Duration":237116,"SoundDuration":237116,"Delta":96248824},{"NoteNumber":79,"Velocity":69,"Duration":118558,"SoundDuration":118558,"Delta":96367383},{"NoteNumber":77,"Velocity":70,"Duration":116532,"SoundDuration":116532,"Delta":96485941},{"NoteNumber":57,"Velocity":52,"Duration":466127,"SoundDuration":466127,"Delta":96485941},{"NoteNumber":79,"Velocity":72,"Duration":116531,"SoundDuration":116531,"Delta":96602473},{"NoteNumber":81,"Velocity":75,"Duration":116532,"SoundDuration":116532,"Delta":96719005},{"NoteNumber":79,"Velocity":75,"Duration":116531,"SoundDuration":116531,"Delta":96835537},{"NoteNumber":77,"Velocity":73,"Duration":116532,"SoundDuration":116532,"Delta":96952069},{"NoteNumber":75,"Velocity":72,"Duration":116531,"SoundDuration":116531,"Delta":97068601},{"NoteNumber":74,"Velocity":71,"Duration":118558,"SoundDuration":118558,"Delta":97185133},{"NoteNumber":73,"Velocity":70,"Duration":118558,"SoundDuration":118558,"Delta":97303691},{"NoteNumber":74,"Velocity":72,"Duration":116532,"SoundDuration":116532,"Delta":97422249},{"NoteNumber":58,"Velocity":49,"Duration":466127,"SoundDuration":466127,"Delta":97422249},{"NoteNumber":72,"Velocity":69,"Duration":116531,"SoundDuration":116531,"Delta":97538781},{"NoteNumber":70,"Velocity":71,"Duration":116532,"SoundDuration":116532,"Delta":97655313},{"NoteNumber":69,"Velocity":68,"Duration":116531,"SoundDuration":116531,"Delta":97771845},{"NoteNumber":67,"Velocity":70,"Duration":116532,"SoundDuration":116532,"Delta":97888377},{"NoteNumber":65,"Velocity":67,"Duration":116531,"SoundDuration":116531,"Delta":98004909},{"NoteNumber":64,"Velocity":69,"Duration":116532,"SoundDuration":116532,"Delta":98121441},{"NoteNumber":62,"Velocity":65,"Duration":116531,"SoundDuration":116531,"Delta":98237973},{"NoteNumber":60,"Velocity":68,"Duration":118045,"SoundDuration":118045,"Delta":98354505},{"NoteNumber":48,"Velocity":48,"Duration":236090,"SoundDuration":236090,"Delta":98354505},{"NoteNumber":65,"Velocity":65,"Duration":118045,"SoundDuration":118045,"Delta":98472551},{"NoteNumber":69,"Velocity":68,"Duration":118045,"SoundDuration":118045,"Delta":98590596},{"NoteNumber":53,"Velocity":44,"Duration":236090,"SoundDuration":236090,"Delta":98590596},{"NoteNumber":72,"Velocity":65,"Duration":118045,"SoundDuration":118045,"Delta":98708641},{"NoteNumber":77,"Velocity":72,"Duration":121192,"SoundDuration":121192,"Delta":98826686},{"NoteNumber":57,"Velocity":44,"Duration":121192,"SoundDuration":121192,"Delta":98826686},{"NoteNumber":65,"Velocity":59,"Duration":118045,"SoundDuration":118045,"Delta":99069071},{"NoteNumber":69,"Velocity":59,"Duration":118045,"SoundDuration":118045,"Delta":99069071},{"NoteNumber":53,"Velocity":41,"Duration":236090,"SoundDuration":236090,"Delta":99069071},{"NoteNumber":69,"Velocity":64,"Duration":242384,"SoundDuration":242384,"Delta":99305162},{"NoteNumber":72,"Velocity":64,"Duration":242384,"SoundDuration":242384,"Delta":99305162},{"NoteNumber":48,"Velocity":49,"Duration":242384,"SoundDuration":242384,"Delta":99305162},{"NoteNumber":70,"Velocity":60,"Duration":121192,"SoundDuration":121192,"Delta":99547547},{"NoteNumber":67,"Velocity":60,"Duration":121192,"SoundDuration":121192,"Delta":99547547},{"NoteNumber":55,"Velocity":43,"Duration":121192,"SoundDuration":121192,"Delta":99547547},{"NoteNumber":69,"Velocity":61,"Duration":125083,"SoundDuration":125083,"Delta":99789932},{"NoteNumber":65,"Velocity":61,"Duration":125083,"SoundDuration":125083,"Delta":99789932},{"NoteNumber":58,"Velocity":45,"Duration":125083,"SoundDuration":125083,"Delta":99789932},{"NoteNumber":64,"Velocity":58,"Duration":125083,"SoundDuration":125083,"Delta":100040099},{"NoteNumber":67,"Velocity":58,"Duration":125083,"SoundDuration":125083,"Delta":100040099},{"NoteNumber":55,"Velocity":43,"Duration":125083,"SoundDuration":125083,"Delta":100040099},{"NoteNumber":65,"Velocity":61,"Duration":125083,"SoundDuration":125083,"Delta":100290266},{"NoteNumber":57,"Velocity":51,"Duration":125083,"SoundDuration":125083,"Delta":100290266},{"NoteNumber":53,"Velocity":51,"Duration":125083,"SoundDuration":125083,"Delta":100290266},{"NoteNumber":77,"Velocity":47,"Duration":116532,"SoundDuration":116532,"Delta":100540433},{"NoteNumber":65,"Velocity":35,"Duration":233063,"SoundDuration":233063,"Delta":100540433},{"NoteNumber":81,"Velocity":45,"Duration":116531,"SoundDuration":116531,"Delta":100656965},{"NoteNumber":79,"Velocity":47,"Duration":116532,"SoundDuration":116532,"Delta":100773497},{"NoteNumber":64,"Velocity":35,"Duration":233063,"SoundDuration":233063,"Delta":100773497},{"NoteNumber":82,"Velocity":45,"Duration":116531,"SoundDuration":116531,"Delta":100890029},{"NoteNumber":81,"Velocity":47,"Duration":116532,"SoundDuration":116532,"Delta":101006561},{"NoteNumber":63,"Velocity":32,"Duration":233063,"SoundDuration":233063,"Delta":101006561},{"NoteNumber":84,"Velocity":45,"Duration":116531,"SoundDuration":116531,"Delta":101123093},{"NoteNumber":82,"Velocity":48,"Duration":120125,"SoundDuration":120125,"Delta":101239625},{"NoteNumber":53,"Velocity":43,"Duration":120125,"SoundDuration":120125,"Delta":101239625},{"NoteNumber":62,"Velocity":43,"Duration":120125,"SoundDuration":120125,"Delta":101239625},{"NoteNumber":77,"Velocity":54,"Duration":116532,"SoundDuration":116532,"Delta":101479875},{"NoteNumber":65,"Velocity":32,"Duration":233063,"SoundDuration":233063,"Delta":101479875},{"NoteNumber":81,"Velocity":50,"Duration":116531,"SoundDuration":116531,"Delta":101596407},{"NoteNumber":79,"Velocity":54,"Duration":116532,"SoundDuration":116532,"Delta":101712939},{"NoteNumber":64,"Velocity":35,"Duration":233063,"SoundDuration":233063,"Delta":101712939},{"NoteNumber":82,"Velocity":51,"Duration":116531,"SoundDuration":116531,"Delta":101829471},{"NoteNumber":81,"Velocity":54,"Duration":116532,"SoundDuration":116532,"Delta":101946003},{"NoteNumber":63,"Velocity":33,"Duration":233063,"SoundDuration":233063,"Delta":101946003},{"NoteNumber":84,"Velocity":50,"Duration":116531,"SoundDuration":116531,"Delta":102062535},{"NoteNumber":82,"Velocity":54,"Duration":118558,"SoundDuration":118558,"Delta":102179067},{"NoteNumber":53,"Velocity":42,"Duration":118558,"SoundDuration":118558,"Delta":102179067},{"NoteNumber":62,"Velocity":42,"Duration":118558,"SoundDuration":118558,"Delta":102179067},{"NoteNumber":77,"Velocity":55,"Duration":116532,"SoundDuration":116532,"Delta":102416183},{"NoteNumber":65,"Velocity":35,"Duration":233063,"SoundDuration":233063,"Delta":102416183},{"NoteNumber":81,"Velocity":56,"Duration":116531,"SoundDuration":116531,"Delta":102532715},{"NoteNumber":79,"Velocity":58,"Duration":116532,"SoundDuration":116532,"Delta":102649247},{"NoteNumber":64,"Velocity":43,"Duration":233063,"SoundDuration":233063,"Delta":102649247},{"NoteNumber":82,"Velocity":59,"Duration":116531,"SoundDuration":116531,"Delta":102765779},{"NoteNumber":81,"Velocity":61,"Duration":116532,"SoundDuration":116532,"Delta":102882311},{"NoteNumber":63,"Velocity":43,"Duration":233063,"SoundDuration":233063,"Delta":102882311},{"NoteNumber":84,"Velocity":63,"Duration":116531,"SoundDuration":116531,"Delta":102998843},{"NoteNumber":82,"Velocity":64,"Duration":116532,"SoundDuration":116532,"Delta":103115375},{"NoteNumber":62,"Velocity":47,"Duration":233063,"SoundDuration":233063,"Delta":103115375},{"NoteNumber":77,"Velocity":67,"Duration":116531,"SoundDuration":116531,"Delta":103231907},{"NoteNumber":84,"Velocity":68,"Duration":116532,"SoundDuration":116532,"Delta":103348439},{"NoteNumber":57,"Velocity":44,"Duration":233063,"SoundDuration":233063,"Delta":103348439},{"NoteNumber":77,"Velocity":69,"Duration":116531,"SoundDuration":116531,"Delta":103464971},{"NoteNumber":86,"Velocity":70,"Duration":116615,"SoundDuration":116615,"Delta":103581503},{"NoteNumber":58,"Velocity":46,"Duration":233815,"SoundDuration":233815,"Delta":103581503},{"NoteNumber":77,"Velocity":72,"Duration":117200,"SoundDuration":117200,"Delta":103698119},{"NoteNumber":88,"Velocity":74,"Duration":117875,"SoundDuration":117875,"Delta":103815319},{"NoteNumber":55,"Velocity":44,"Duration":238715,"SoundDuration":238715,"Delta":103815319},{"NoteNumber":77,"Velocity":75,"Duration":120839,"SoundDuration":120839,"Delta":103933195},{"NoteNumber":89,"Velocity":78,"Duration":116532,"SoundDuration":116532,"Delta":104054034},{"NoteNumber":57,"Velocity":62,"Duration":466127,"SoundDuration":466127,"Delta":104054034},{"NoteNumber":45,"Velocity":62,"Duration":466127,"SoundDuration":466127,"Delta":104054034},{"NoteNumber":88,"Velocity":78,"Duration":116531,"SoundDuration":116531,"Delta":104170566},{"NoteNumber":86,"Velocity":77,"Duration":116532,"SoundDuration":116532,"Delta":104287098},{"NoteNumber":84,"Velocity":75,"Duration":116531,"SoundDuration":116531,"Delta":104403630},{"NoteNumber":82,"Velocity":74,"Duration":116532,"SoundDuration":116532,"Delta":104520162},{"NoteNumber":81,"Velocity":73,"Duration":116531,"SoundDuration":116531,"Delta":104636694},{"NoteNumber":79,"Velocity":72,"Duration":116532,"SoundDuration":116532,"Delta":104753226},{"NoteNumber":77,"Velocity":71,"Duration":122829,"SoundDuration":122829,"Delta":104869758},{"NoteNumber":86,"Velocity":79,"Duration":116532,"SoundDuration":116532,"Delta":104992588},{"NoteNumber":46,"Velocity":63,"Duration":466127,"SoundDuration":466127,"Delta":104992588},{"NoteNumber":58,"Velocity":63,"Duration":466127,"SoundDuration":466127,"Delta":104992588},{"NoteNumber":84,"Velocity":75,"Duration":116531,"SoundDuration":116531,"Delta":105109120},{"NoteNumber":82,"Velocity":78,"Duration":116532,"SoundDuration":116532,"Delta":105225652},{"NoteNumber":81,"Velocity":77,"Duration":116531,"SoundDuration":116531,"Delta":105342184},{"NoteNumber":79,"Velocity":75,"Duration":116532,"SoundDuration":116532,"Delta":105458716},{"NoteNumber":77,"Velocity":71,"Duration":116531,"SoundDuration":116531,"Delta":105575248},{"NoteNumber":76,"Velocity":73,"Duration":116532,"SoundDuration":116532,"Delta":105691780},{"NoteNumber":74,"Velocity":70,"Duration":116531,"SoundDuration":116531,"Delta":105808312},{"NoteNumber":72,"Velocity":78,"Duration":233063,"SoundDuration":233063,"Delta":105924844},{"NoteNumber":48,"Velocity":48,"Duration":116532,"SoundDuration":116532,"Delta":105924844},{"NoteNumber":57,"Velocity":40,"Duration":116531,"SoundDuration":116531,"Delta":106041376},{"NoteNumber":84,"Velocity":75,"Duration":118045,"SoundDuration":118045,"Delta":106157908},{"NoteNumber":53,"Velocity":44,"Duration":118045,"SoundDuration":118045,"Delta":106157908},{"NoteNumber":57,"Velocity":41,"Duration":118045,"SoundDuration":118045,"Delta":106275954},{"NoteNumber":84,"Velocity":78,"Duration":118045,"SoundDuration":118045,"Delta":106393999},{"NoteNumber":48,"Velocity":48,"Duration":118045,"SoundDuration":118045,"Delta":106393999},{"NoteNumber":57,"Velocity":40,"Duration":118045,"SoundDuration":118045,"Delta":106512044},{"NoteNumber":84,"Velocity":77,"Duration":118045,"SoundDuration":118045,"Delta":106630089},{"NoteNumber":53,"Velocity":44,"Duration":118045,"SoundDuration":118045,"Delta":106630089},{"NoteNumber":57,"Velocity":40,"Duration":118045,"SoundDuration":118045,"Delta":106748135},{"NoteNumber":84,"Velocity":75,"Duration":116532,"SoundDuration":116532,"Delta":106866180},{"NoteNumber":48,"Velocity":48,"Duration":116532,"SoundDuration":116532,"Delta":106866180},{"NoteNumber":81,"Velocity":72,"Duration":116531,"SoundDuration":116531,"Delta":106982712},{"NoteNumber":57,"Velocity":42,"Duration":116531,"SoundDuration":116531,"Delta":106982712},{"NoteNumber":77,"Velocity":70,"Duration":116532,"SoundDuration":116532,"Delta":107099244},{"NoteNumber":53,"Velocity":46,"Duration":116532,"SoundDuration":116532,"Delta":107099244},{"NoteNumber":72,"Velocity":70,"Duration":116531,"SoundDuration":116531,"Delta":107215776},{"NoteNumber":57,"Velocity":42,"Duration":116531,"SoundDuration":116531,"Delta":107215776},{"NoteNumber":77,"Velocity":75,"Duration":116532,"SoundDuration":116532,"Delta":107332308},{"NoteNumber":48,"Velocity":48,"Duration":116532,"SoundDuration":116532,"Delta":107332308},{"NoteNumber":72,"Velocity":73,"Duration":116531,"SoundDuration":116531,"Delta":107448840},{"NoteNumber":57,"Velocity":43,"Duration":116531,"SoundDuration":116531,"Delta":107448840},{"NoteNumber":69,"Velocity":70,"Duration":116532,"SoundDuration":116532,"Delta":107565372},{"NoteNumber":53,"Velocity":46,"Duration":116532,"SoundDuration":116532,"Delta":107565372},{"NoteNumber":65,"Velocity":70,"Duration":116531,"SoundDuration":116531,"Delta":107681904},{"NoteNumber":57,"Velocity":43,"Duration":116531,"SoundDuration":116531,"Delta":107681904},{"NoteNumber":67,"Velocity":51,"Duration":77267,"SoundDuration":77267,"Delta":107798436},{"NoteNumber":48,"Velocity":48,"Duration":116250,"SoundDuration":116250,"Delta":107798436},{"NoteNumber":69,"Velocity":46,"Duration":76972,"SoundDuration":76972,"Delta":107875703},{"NoteNumber":58,"Velocity":40,"Duration":110603,"SoundDuration":110603,"Delta":107914686},{"NoteNumber":67,"Velocity":51,"Duration":72614,"SoundDuration":72614,"Delta":107952675},{"NoteNumber":69,"Velocity":46,"Duration":71230,"SoundDuration":71230,"Delta":108025290},{"NoteNumber":52,"Velocity":43,"Duration":106637,"SoundDuration":106637,"Delta":108025290},{"NoteNumber":67,"Velocity":51,"Duration":71050,"SoundDuration":71050,"Delta":108096520},{"NoteNumber":58,"Velocity":40,"Duration":106928,"SoundDuration":106928,"Delta":108131927},{"NoteNumber":69,"Velocity":46,"Duration":71286,"SoundDuration":71286,"Delta":108167570},{"NoteNumber":67,"Velocity":51,"Duration":71147,"SoundDuration":71147,"Delta":108238856},{"NoteNumber":48,"Velocity":48,"Duration":106693,"SoundDuration":106693,"Delta":108238856},{"NoteNumber":69,"Velocity":46,"Duration":70911,"SoundDuration":70911,"Delta":108310004},{"NoteNumber":58,"Velocity":42,"Duration":106731,"SoundDuration":106731,"Delta":108345549},{"NoteNumber":67,"Velocity":51,"Duration":71365,"SoundDuration":71365,"Delta":108380915},{"NoteNumber":69,"Velocity":46,"Duration":71503,"SoundDuration":71503,"Delta":108452281},{"NoteNumber":52,"Velocity":43,"Duration":107376,"SoundDuration":107376,"Delta":108452281},{"NoteNumber":67,"Velocity":51,"Duration":72086,"SoundDuration":72086,"Delta":108523784},{"NoteNumber":58,"Velocity":42,"Duration":108009,"SoundDuration":108009,"Delta":108559657},{"NoteNumber":69,"Velocity":46,"Duration":71796,"SoundDuration":71796,"Delta":108595871},{"NoteNumber":67,"Velocity":51,"Duration":72437,"SoundDuration":72437,"Delta":108667667},{"NoteNumber":48,"Velocity":48,"Duration":109492,"SoundDuration":109492,"Delta":108667667},{"NoteNumber":69,"Velocity":46,"Duration":73810,"SoundDuration":73810,"Delta":108740104},{"NoteNumber":58,"Velocity":41,"Duration":110978,"SoundDuration":110978,"Delta":108777159},{"NoteNumber":67,"Velocity":51,"Duration":74222,"SoundDuration":74222,"Delta":108813915},{"NoteNumber":69,"Velocity":48,"Duration":73452,"SoundDuration":73452,"Delta":108888138},{"NoteNumber":52,"Velocity":43,"Duration":110951,"SoundDuration":110951,"Delta":108888138},{"NoteNumber":67,"Velocity":51,"Duration":75122,"SoundDuration":75122,"Delta":108961590},{"NoteNumber":58,"Velocity":41,"Duration":111718,"SoundDuration":111718,"Delta":108999089},{"NoteNumber":69,"Velocity":47,"Duration":74095,"SoundDuration":74095,"Delta":109036712},{"NoteNumber":67,"Velocity":51,"Duration":57098,"SoundDuration":57098,"Delta":109110808},{"NoteNumber":48,"Velocity":48,"Duration":114993,"SoundDuration":114993,"Delta":109110808},{"NoteNumber":69,"Velocity":48,"Duration":57894,"SoundDuration":57894,"Delta":109167906},{"NoteNumber":67,"Velocity":51,"Duration":57449,"SoundDuration":57449,"Delta":109225801},{"NoteNumber":58,"Velocity":42,"Duration":115566,"SoundDuration":115566,"Delta":109225801},{"NoteNumber":69,"Velocity":47,"Duration":58117,"SoundDuration":58117,"Delta":109283250},{"NoteNumber":67,"Velocity":51,"Duration":38794,"SoundDuration":38794,"Delta":109341368},{"NoteNumber":52,"Velocity":45,"Duration":116501,"SoundDuration":116501,"Delta":109341368},{"NoteNumber":69,"Velocity":48,"Duration":38678,"SoundDuration":38678,"Delta":109380162},{"NoteNumber":67,"Velocity":48,"Duration":39028,"SoundDuration":39028,"Delta":109418841},{"NoteNumber":65,"Velocity":62,"Duration":59799,"SoundDuration":59799,"Delta":109457870},{"NoteNumber":58,"Velocity":42,"Duration":119598,"SoundDuration":119598,"Delta":109457870},{"NoteNumber":67,"Velocity":58,"Duration":59799,"SoundDuration":59799,"Delta":109517669},{"NoteNumber":65,"Velocity":71,"Duration":230239,"SoundDuration":230239,"Delta":109577468},{"NoteNumber":53,"Velocity":51,"Duration":240250,"SoundDuration":240250,"Delta":109577468},{"NoteNumber":77,"Velocity":54,"Duration":240250,"SoundDuration":240250,"Delta":109817718},{"NoteNumber":65,"Velocity":44,"Duration":240250,"SoundDuration":240250,"Delta":109817718},{"NoteNumber":64,"Velocity":44,"Duration":240249,"SoundDuration":240249,"Delta":110057968},{"NoteNumber":77,"Velocity":53,"Duration":233899,"SoundDuration":233899,"Delta":110298218},{"NoteNumber":65,"Velocity":44,"Duration":233899,"SoundDuration":233899,"Delta":110298218},{"NoteNumber":76,"Velocity":51,"Duration":236863,"SoundDuration":236863,"Delta":110532117},{"NoteNumber":67,"Velocity":45,"Duration":236863,"SoundDuration":236863,"Delta":110532117},{"NoteNumber":77,"Velocity":58,"Duration":239989,"SoundDuration":239989,"Delta":110768980},{"NoteNumber":65,"Velocity":48,"Duration":239989,"SoundDuration":239989,"Delta":110768980},{"NoteNumber":79,"Velocity":60,"Duration":243199,"SoundDuration":243199,"Delta":111008970},{"NoteNumber":64,"Velocity":51,"Duration":243199,"SoundDuration":243199,"Delta":111008970},{"NoteNumber":81,"Velocity":66,"Duration":246496,"SoundDuration":246496,"Delta":111252170},{"NoteNumber":63,"Velocity":54,"Duration":246496,"SoundDuration":246496,"Delta":111252170},{"NoteNumber":82,"Velocity":70,"Duration":116532,"SoundDuration":116532,"Delta":111498667},{"NoteNumber":62,"Velocity":59,"Duration":233063,"SoundDuration":233063,"Delta":111498667},{"NoteNumber":84,"Velocity":68,"Duration":116531,"SoundDuration":116531,"Delta":111615199},{"NoteNumber":86,"Velocity":72,"Duration":116532,"SoundDuration":116532,"Delta":111731731},{"NoteNumber":53,"Velocity":45,"Duration":233063,"SoundDuration":233063,"Delta":111731731},{"NoteNumber":84,"Velocity":67,"Duration":116531,"SoundDuration":116531,"Delta":111848263},{"NoteNumber":82,"Velocity":70,"Duration":116532,"SoundDuration":116532,"Delta":111964795},{"NoteNumber":61,"Velocity":53,"Duration":233063,"SoundDuration":233063,"Delta":111964795},{"NoteNumber":80,"Velocity":67,"Duration":116531,"SoundDuration":116531,"Delta":112081327},{"NoteNumber":79,"Velocity":68,"Duration":116532,"SoundDuration":116532,"Delta":112197859},{"NoteNumber":53,"Velocity":45,"Duration":236130,"SoundDuration":236130,"Delta":112197859},{"NoteNumber":77,"Velocity":65,"Duration":119598,"SoundDuration":119598,"Delta":112314391},{"NoteNumber":76,"Velocity":67,"Duration":116532,"SoundDuration":116532,"Delta":112433989},{"NoteNumber":60,"Velocity":52,"Duration":233564,"SoundDuration":233564,"Delta":112433989},{"NoteNumber":77,"Velocity":68,"Duration":117031,"SoundDuration":117031,"Delta":112550521},{"NoteNumber":79,"Velocity":69,"Duration":117536,"SoundDuration":117536,"Delta":112667553},{"NoteNumber":53,"Velocity":44,"Duration":235581,"SoundDuration":235581,"Delta":112667553},{"NoteNumber":77,"Velocity":68,"Duration":118045,"SoundDuration":118045,"Delta":112785089},{"NoteNumber":76,"Velocity":67,"Duration":118558,"SoundDuration":118558,"Delta":112903135},{"NoteNumber":64,"Velocity":50,"Duration":237634,"SoundDuration":237634,"Delta":112903135},{"NoteNumber":74,"Velocity":65,"Duration":119076,"SoundDuration":119076,"Delta":113021693},{"NoteNumber":72,"Velocity":64,"Duration":119598,"SoundDuration":119598,"Delta":113140769},{"NoteNumber":53,"Velocity":44,"Duration":239723,"SoundDuration":239723,"Delta":113140769},{"NoteNumber":70,"Velocity":63,"Duration":120125,"SoundDuration":120125,"Delta":113260367},{"NoteNumber":69,"Velocity":62,"Duration":120656,"SoundDuration":120656,"Delta":113380492},{"NoteNumber":65,"Velocity":53,"Duration":120656,"SoundDuration":120656,"Delta":113380492},{"NoteNumber":69,"Velocity":49,"Duration":120656,"SoundDuration":120656,"Delta":113621805},{"NoteNumber":53,"Velocity":41,"Duration":241312,"SoundDuration":241312,"Delta":113621805},{"NoteNumber":52,"Velocity":41,"Duration":241312,"SoundDuration":241312,"Delta":113863117},{"NoteNumber":65,"Velocity":53,"Duration":241312,"SoundDuration":241312,"Delta":114104430},{"NoteNumber":53,"Velocity":41,"Duration":241312,"SoundDuration":241312,"Delta":114104430},{"NoteNumber":64,"Velocity":49,"Duration":242569,"SoundDuration":242569,"Delta":114345742},{"NoteNumber":55,"Velocity":45,"Duration":242569,"SoundDuration":242569,"Delta":114345742},{"NoteNumber":65,"Velocity":49,"Duration":246312,"SoundDuration":246312,"Delta":114588312},{"NoteNumber":53,"Velocity":43,"Duration":246312,"SoundDuration":246312,"Delta":114588312},{"NoteNumber":67,"Velocity":49,"Duration":250363,"SoundDuration":250363,"Delta":114834624},{"NoteNumber":52,"Velocity":43,"Duration":250363,"SoundDuration":250363,"Delta":114834624},{"NoteNumber":69,"Velocity":49,"Duration":254352,"SoundDuration":254352,"Delta":115084987},{"NoteNumber":51,"Velocity":43,"Duration":254352,"SoundDuration":254352,"Delta":115084987},{"NoteNumber":70,"Velocity":52,"Duration":128623,"SoundDuration":128623,"Delta":115339340},{"NoteNumber":50,"Velocity":45,"Duration":514492,"SoundDuration":514492,"Delta":115339340},{"NoteNumber":72,"Velocity":52,"Duration":64311,"SoundDuration":64311,"Delta":115596586},{"NoteNumber":70,"Velocity":49,"Duration":64311,"SoundDuration":64311,"Delta":115660898},{"NoteNumber":69,"Velocity":52,"Duration":64311,"SoundDuration":64311,"Delta":115725209},{"NoteNumber":70,"Velocity":49,"Duration":64311,"SoundDuration":64311,"Delta":115789521},{"NoteNumber":72,"Velocity":58,"Duration":257245,"SoundDuration":257245,"Delta":115853832},{"NoteNumber":46,"Velocity":35,"Duration":538355,"SoundDuration":538355,"Delta":115853832},{"NoteNumber":74,"Velocity":59,"Duration":269396,"SoundDuration":269396,"Delta":116111078},{"NoteNumber":70,"Velocity":50,"Duration":269978,"SoundDuration":269978,"Delta":116392188},{"NoteNumber":74,"Velocity":50,"Duration":269978,"SoundDuration":269978,"Delta":116392188},{"NoteNumber":48,"Velocity":35,"Duration":539957,"SoundDuration":539957,"Delta":116392188},{"NoteNumber":72,"Velocity":46,"Duration":269978,"SoundDuration":269978,"Delta":116662166},{"NoteNumber":69,"Velocity":46,"Duration":269978,"SoundDuration":269978,"Delta":116662166},{"NoteNumber":48,"Velocity":35,"Duration":541859,"SoundDuration":541859,"Delta":116932145},{"NoteNumber":58,"Velocity":33,"Duration":279668,"SoundDuration":279668,"Delta":117194337},{"NoteNumber":64,"Velocity":33,"Duration":279668,"SoundDuration":279668,"Delta":117194337},{"NoteNumber":58,"Velocity":45,"Duration":1253852,"SoundDuration":1253852,"Delta":117474005},{"NoteNumber":67,"Velocity":45,"Duration":1253852,"SoundDuration":1253852,"Delta":117474005},{"NoteNumber":53,"Velocity":37,"Duration":592768,"SoundDuration":592768,"Delta":117474005},{"NoteNumber":48,"Velocity":28,"Duration":661084,"SoundDuration":661084,"Delta":118066773},{"NoteNumber":57,"Velocity":34,"Duration":495812,"SoundDuration":495812,"Delta":118727857},{"NoteNumber":65,"Velocity":34,"Duration":495812,"SoundDuration":495812,"Delta":118727857},{"NoteNumber":41,"Velocity":28,"Duration":495812,"SoundDuration":495812,"Delta":118727857},{"NoteNumber":79,"Velocity":57,"Duration":116532,"SoundDuration":116532,"Delta":119670497},{"NoteNumber":77,"Velocity":56,"Duration":116531,"SoundDuration":116531,"Delta":119787029},{"NoteNumber":75,"Velocity":54,"Duration":116532,"SoundDuration":116532,"Delta":119903561},{"NoteNumber":74,"Velocity":52,"Duration":116531,"SoundDuration":116531,"Delta":120020093},{"NoteNumber":72,"Velocity":60,"Duration":236090,"SoundDuration":236090,"Delta":120136625},{"NoteNumber":70,"Velocity":54,"Duration":226253,"SoundDuration":226253,"Delta":120372716},{"NoteNumber":58,"Velocity":37,"Duration":236090,"SoundDuration":236090,"Delta":120372716},{"NoteNumber":70,"Velocity":51,"Duration":708271,"SoundDuration":708271,"Delta":120608806},{"NoteNumber":62,"Velocity":37,"Duration":236090,"SoundDuration":236090,"Delta":120608806},{"NoteNumber":65,"Velocity":33,"Duration":236090,"SoundDuration":236090,"Delta":120844897},{"NoteNumber":62,"Velocity":36,"Duration":236090,"SoundDuration":236090,"Delta":121080987},{"NoteNumber":74,"Velocity":57,"Duration":233063,"SoundDuration":233063,"Delta":121317078},{"NoteNumber":58,"Velocity":33,"Duration":233063,"SoundDuration":233063,"Delta":121317078},{"NoteNumber":79,"Velocity":60,"Duration":233063,"SoundDuration":233063,"Delta":121550142},{"NoteNumber":62,"Velocity":41,"Duration":233063,"SoundDuration":233063,"Delta":121550142},{"NoteNumber":74,"Velocity":55,"Duration":241312,"SoundDuration":241312,"Delta":121783206},{"NoteNumber":67,"Velocity":38,"Duration":241312,"SoundDuration":241312,"Delta":121783206},{"NoteNumber":77,"Velocity":60,"Duration":472181,"SoundDuration":472181,"Delta":122024518},{"NoteNumber":60,"Velocity":34,"Duration":236090,"SoundDuration":236090,"Delta":122260609},{"NoteNumber":75,"Velocity":56,"Duration":708271,"SoundDuration":708271,"Delta":122496699},{"NoteNumber":63,"Velocity":39,"Duration":236090,"SoundDuration":236090,"Delta":122496699},{"NoteNumber":67,"Velocity":36,"Duration":236090,"SoundDuration":236090,"Delta":122732790},{"NoteNumber":63,"Velocity":44,"Duration":236090,"SoundDuration":236090,"Delta":122968880},{"NoteNumber":77,"Velocity":60,"Duration":116532,"SoundDuration":116532,"Delta":123204971},{"NoteNumber":60,"Velocity":37,"Duration":233063,"SoundDuration":233063,"Delta":123204971},{"NoteNumber":79,"Velocity":56,"Duration":116531,"SoundDuration":116531,"Delta":123321503},{"NoteNumber":77,"Velocity":61,"Duration":116532,"SoundDuration":116532,"Delta":123438035},{"NoteNumber":63,"Velocity":38,"Duration":233063,"SoundDuration":233063,"Delta":123438035},{"NoteNumber":75,"Velocity":54,"Duration":116531,"SoundDuration":116531,"Delta":123554567},{"NoteNumber":74,"Velocity":58,"Duration":116532,"SoundDuration":116532,"Delta":123671099},{"NoteNumber":67,"Velocity":34,"Duration":233063,"SoundDuration":233063,"Delta":123671099},{"NoteNumber":72,"Velocity":53,"Duration":116531,"SoundDuration":116531,"Delta":123787631},{"NoteNumber":70,"Velocity":66,"Duration":473314,"SoundDuration":473314,"Delta":123904163},{"NoteNumber":53,"Velocity":35,"Duration":240250,"SoundDuration":240250,"Delta":124137227},{"NoteNumber":69,"Velocity":57,"Duration":692394,"SoundDuration":692394,"Delta":124377477},{"NoteNumber":60,"Velocity":35,"Duration":233063,"SoundDuration":233063,"Delta":124377477},{"NoteNumber":63,"Velocity":34,"Duration":233063,"SoundDuration":233063,"Delta":124610541},{"NoteNumber":60,"Velocity":47,"Duration":233063,"SoundDuration":233063,"Delta":124843605},{"NoteNumber":69,"Velocity":62,"Duration":233063,"SoundDuration":233063,"Delta":125076669},{"NoteNumber":53,"Velocity":36,"Duration":233063,"SoundDuration":233063,"Delta":125076669},{"NoteNumber":70,"Velocity":65,"Duration":233063,"SoundDuration":233063,"Delta":125309733},{"NoteNumber":60,"Velocity":43,"Duration":233063,"SoundDuration":233063,"Delta":125309733},{"NoteNumber":72,"Velocity":61,"Duration":238036,"SoundDuration":238036,"Delta":125542797},{"NoteNumber":63,"Velocity":36,"Duration":248385,"SoundDuration":248385,"Delta":125542797},{"NoteNumber":69,"Velocity":52,"Duration":476303,"SoundDuration":476303,"Delta":125791182},{"NoteNumber":72,"Velocity":61,"Duration":476303,"SoundDuration":476303,"Delta":125791182},{"NoteNumber":58,"Velocity":42,"Duration":238151,"SoundDuration":238151,"Delta":126029334},{"NoteNumber":70,"Velocity":49,"Duration":476304,"SoundDuration":476304,"Delta":126267486},{"NoteNumber":74,"Velocity":58,"Duration":476304,"SoundDuration":476304,"Delta":126267486},{"NoteNumber":62,"Velocity":42,"Duration":238151,"SoundDuration":238151,"Delta":126267486},{"NoteNumber":65,"Velocity":36,"Duration":238152,"SoundDuration":238152,"Delta":126505638},{"NoteNumber":62,"Velocity":45,"Duration":238151,"SoundDuration":238151,"Delta":126743790},{"NoteNumber":77,"Velocity":64,"Duration":115544,"SoundDuration":115544,"Delta":126981942},{"NoteNumber":58,"Velocity":42,"Duration":231088,"SoundDuration":231088,"Delta":126981942},{"NoteNumber":76,"Velocity":63,"Duration":115544,"SoundDuration":115544,"Delta":127097487},{"NoteNumber":79,"Velocity":66,"Duration":115544,"SoundDuration":115544,"Delta":127213031},{"NoteNumber":62,"Velocity":42,"Duration":231088,"SoundDuration":231088,"Delta":127213031},{"NoteNumber":77,"Velocity":63,"Duration":115544,"SoundDuration":115544,"Delta":127328576},{"NoteNumber":75,"Velocity":63,"Duration":115544,"SoundDuration":115544,"Delta":127444120},{"NoteNumber":65,"Velocity":39,"Duration":231088,"SoundDuration":231088,"Delta":127444120},{"NoteNumber":74,"Velocity":61,"Duration":105915,"SoundDuration":105915,"Delta":127559665},{"NoteNumber":74,"Velocity":68,"Duration":228522,"SoundDuration":228522,"Delta":127675209},{"NoteNumber":63,"Velocity":45,"Duration":228522,"SoundDuration":228522,"Delta":127675209},{"NoteNumber":72,"Velocity":61,"Duration":469557,"SoundDuration":469557,"Delta":127903732},{"NoteNumber":67,"Velocity":37,"Duration":234778,"SoundDuration":234778,"Delta":127903732},{"NoteNumber":62,"Velocity":40,"Duration":234778,"SoundDuration":234778,"Delta":128138510},{"NoteNumber":70,"Velocity":61,"Duration":233064,"SoundDuration":233064,"Delta":128373289},{"NoteNumber":65,"Velocity":35,"Duration":233064,"SoundDuration":233064,"Delta":128373289},{"NoteNumber":74,"Velocity":67,"Duration":237116,"SoundDuration":237116,"Delta":128606353},{"NoteNumber":63,"Velocity":45,"Duration":237116,"SoundDuration":237116,"Delta":128606353},{"NoteNumber":72,"Velocity":62,"Duration":474232,"SoundDuration":474232,"Delta":128843469},{"NoteNumber":67,"Velocity":35,"Duration":237116,"SoundDuration":237116,"Delta":128843469},{"NoteNumber":60,"Velocity":38,"Duration":237116,"SoundDuration":237116,"Delta":129080586},{"NoteNumber":69,"Velocity":64,"Duration":233064,"SoundDuration":233064,"Delta":129317702},{"NoteNumber":63,"Velocity":32,"Duration":233064,"SoundDuration":233064,"Delta":129317702},{"NoteNumber":70,"Velocity":68,"Duration":116036,"SoundDuration":116036,"Delta":129550766},{"NoteNumber":62,"Velocity":42,"Duration":464145,"SoundDuration":464145,"Delta":129550766},{"NoteNumber":65,"Velocity":42,"Duration":464145,"SoundDuration":464145,"Delta":129550766},{"NoteNumber":72,"Velocity":59,"Duration":116036,"SoundDuration":116036,"Delta":129666802},{"NoteNumber":70,"Velocity":62,"Duration":116036,"SoundDuration":116036,"Delta":129782839},{"NoteNumber":69,"Velocity":58,"Duration":116036,"SoundDuration":116036,"Delta":129898875},{"NoteNumber":70,"Velocity":66,"Duration":116036,"SoundDuration":116036,"Delta":130014911},{"NoteNumber":72,"Velocity":60,"Duration":116036,"SoundDuration":116036,"Delta":130130947},{"NoteNumber":74,"Velocity":63,"Duration":116036,"SoundDuration":116036,"Delta":130246984},{"NoteNumber":75,"Velocity":61,"Duration":115708,"SoundDuration":115708,"Delta":130363020},{"NoteNumber":76,"Velocity":69,"Duration":115544,"SoundDuration":115544,"Delta":130478728},{"NoteNumber":77,"Velocity":65,"Duration":115544,"SoundDuration":115544,"Delta":130594273},{"NoteNumber":76,"Velocity":69,"Duration":115382,"SoundDuration":115382,"Delta":130709817},{"NoteNumber":77,"Velocity":65,"Duration":121192,"SoundDuration":121192,"Delta":130825199},{"NoteNumber":79,"Velocity":69,"Duration":114573,"SoundDuration":114573,"Delta":130946392},{"NoteNumber":77,"Velocity":67,"Duration":114573,"SoundDuration":114573,"Delta":131060966},{"NoteNumber":75,"Velocity":66,"Duration":114573,"SoundDuration":114573,"Delta":131175539},{"NoteNumber":74,"Velocity":65,"Duration":114793,"SoundDuration":114793,"Delta":131290113},{"NoteNumber":74,"Velocity":72,"Duration":232072,"SoundDuration":232072,"Delta":131415343},{"NoteNumber":63,"Velocity":47,"Duration":232072,"SoundDuration":232072,"Delta":131415343},{"NoteNumber":72,"Velocity":54,"Duration":222402,"SoundDuration":222402,"Delta":131647415},{"NoteNumber":67,"Velocity":36,"Duration":232072,"SoundDuration":232072,"Delta":131647415},{"NoteNumber":72,"Velocity":56,"Duration":232072,"SoundDuration":232072,"Delta":131879488},{"NoteNumber":62,"Velocity":40,"Duration":232072,"SoundDuration":232072,"Delta":131879488},{"NoteNumber":70,"Velocity":54,"Duration":232072,"SoundDuration":232072,"Delta":132111560},{"NoteNumber":65,"Velocity":33,"Duration":232072,"SoundDuration":232072,"Delta":132111560},{"NoteNumber":74,"Velocity":65,"Duration":232072,"SoundDuration":232072,"Delta":132343633},{"NoteNumber":63,"Velocity":47,"Duration":232072,"SoundDuration":232072,"Delta":132343633},{"NoteNumber":72,"Velocity":54,"Duration":222402,"SoundDuration":222402,"Delta":132575705},{"NoteNumber":67,"Velocity":37,"Duration":232072,"SoundDuration":232072,"Delta":132575705},{"NoteNumber":72,"Velocity":57,"Duration":232072,"SoundDuration":232072,"Delta":132807778},{"NoteNumber":60,"Velocity":39,"Duration":232072,"SoundDuration":232072,"Delta":132807778},{"NoteNumber":69,"Velocity":53,"Duration":242365,"SoundDuration":242365,"Delta":133039850},{"NoteNumber":63,"Velocity":32,"Duration":242365,"SoundDuration":242365,"Delta":133039850},{"NoteNumber":70,"Velocity":66,"Duration":231160,"SoundDuration":231160,"Delta":133282216},{"NoteNumber":65,"Velocity":47,"Duration":462321,"SoundDuration":462321,"Delta":133282216},{"NoteNumber":62,"Velocity":47,"Duration":462321,"SoundDuration":462321,"Delta":133282216},{"NoteNumber":72,"Velocity":57,"Duration":115580,"SoundDuration":115580,"Delta":133513376},{"NoteNumber":74,"Velocity":58,"Duration":115580,"SoundDuration":115580,"Delta":133628956},{"NoteNumber":75,"Velocity":59,"Duration":115580,"SoundDuration":115580,"Delta":133744537},{"NoteNumber":77,"Velocity":60,"Duration":115580,"SoundDuration":115580,"Delta":133860117},{"NoteNumber":79,"Velocity":61,"Duration":115580,"SoundDuration":115580,"Delta":133975697},{"NoteNumber":81,"Velocity":64,"Duration":115580,"SoundDuration":115580,"Delta":134091277},{"NoteNumber":82,"Velocity":66,"Duration":116036,"SoundDuration":116036,"Delta":134206858},{"NoteNumber":84,"Velocity":67,"Duration":116036,"SoundDuration":116036,"Delta":134322894},{"NoteNumber":86,"Velocity":68,"Duration":115872,"SoundDuration":115872,"Delta":134438930},{"NoteNumber":87,"Velocity":69,"Duration":115544,"SoundDuration":115544,"Delta":134554802},{"NoteNumber":89,"Velocity":76,"Duration":115544,"SoundDuration":115544,"Delta":134670347},{"NoteNumber":89,"Velocity":75,"Duration":115057,"SoundDuration":115057,"Delta":134901111},{"NoteNumber":77,"Velocity":76,"Duration":1175364,"SoundDuration":1175364,"Delta":135131226},{"NoteNumber":89,"Velocity":76,"Duration":235072,"SoundDuration":235072,"Delta":135131226},{"NoteNumber":57,"Velocity":61,"Duration":470145,"SoundDuration":470145,"Delta":135131226},{"NoteNumber":87,"Velocity":74,"Duration":470145,"SoundDuration":470145,"Delta":135366299},{"NoteNumber":58,"Velocity":55,"Duration":470145,"SoundDuration":470145,"Delta":135601372},{"NoteNumber":86,"Velocity":73,"Duration":235072,"SoundDuration":235072,"Delta":135836445},{"NoteNumber":86,"Velocity":75,"Duration":235072,"SoundDuration":235072,"Delta":136071518},{"NoteNumber":51,"Velocity":63,"Duration":467145,"SoundDuration":467145,"Delta":136071518},{"NoteNumber":75,"Velocity":64,"Duration":116036,"SoundDuration":116036,"Delta":136306591},{"NoteNumber":84,"Velocity":64,"Duration":116036,"SoundDuration":116036,"Delta":136306591},{"NoteNumber":74,"Velocity":72,"Duration":116284,"SoundDuration":116284,"Delta":136538663},{"NoteNumber":82,"Velocity":72,"Duration":116284,"SoundDuration":116284,"Delta":136538663},{"NoteNumber":53,"Velocity":57,"Duration":494937,"SoundDuration":494937,"Delta":136538663},{"NoteNumber":72,"Velocity":64,"Duration":130684,"SoundDuration":130684,"Delta":136772231},{"NoteNumber":81,"Velocity":64,"Duration":130684,"SoundDuration":130684,"Delta":136772231},{"NoteNumber":82,"Velocity":76,"Duration":238152,"SoundDuration":238152,"Delta":137033601},{"NoteNumber":74,"Velocity":76,"Duration":238152,"SoundDuration":238152,"Delta":137033601},{"NoteNumber":46,"Velocity":52,"Duration":118903,"SoundDuration":118903,"Delta":137271753},{"NoteNumber":70,"Velocity":72,"Duration":246421,"SoundDuration":246421,"Delta":137510961},{"NoteNumber":50,"Velocity":55,"Duration":122190,"SoundDuration":122190,"Delta":137510961},{"NoteNumber":53,"Velocity":50,"Duration":126147,"SoundDuration":126147,"Delta":137757383},{"NoteNumber":58,"Velocity":61,"Duration":519391,"SoundDuration":519391,"Delta":138011853},{"NoteNumber":67,"Velocity":52,"Duration":116532,"SoundDuration":116532,"Delta":138531244},{"NoteNumber":65,"Velocity":49,"Duration":116532,"SoundDuration":116532,"Delta":138647776},{"NoteNumber":63,"Velocity":52,"Duration":116531,"SoundDuration":116531,"Delta":138764308},{"NoteNumber":62,"Velocity":50,"Duration":116532,"SoundDuration":116532,"Delta":138880840},{"NoteNumber":60,"Velocity":56,"Duration":237116,"SoundDuration":237116,"Delta":138997372},{"NoteNumber":58,"Velocity":53,"Duration":227236,"SoundDuration":227236,"Delta":139234488},{"NoteNumber":46,"Velocity":34,"Duration":237116,"SoundDuration":237116,"Delta":139234488},{"NoteNumber":58,"Velocity":53,"Duration":711349,"SoundDuration":711349,"Delta":139471605},{"NoteNumber":50,"Velocity":37,"Duration":237116,"SoundDuration":237116,"Delta":139471605},{"NoteNumber":53,"Velocity":35,"Duration":237116,"SoundDuration":237116,"Delta":139708721},{"NoteNumber":50,"Velocity":43,"Duration":237116,"SoundDuration":237116,"Delta":139945838},{"NoteNumber":70,"Velocity":63,"Duration":240250,"SoundDuration":240250,"Delta":140182954},{"NoteNumber":46,"Velocity":39,"Duration":240250,"SoundDuration":240250,"Delta":140182954},{"NoteNumber":69,"Velocity":58,"Duration":240250,"SoundDuration":240250,"Delta":140423204},{"NoteNumber":50,"Velocity":39,"Duration":240250,"SoundDuration":240250,"Delta":140423204},{"NoteNumber":67,"Velocity":56,"Duration":252482,"SoundDuration":252482,"Delta":140663454},{"NoteNumber":55,"Velocity":35,"Duration":252482,"SoundDuration":252482,"Delta":140663454},{"NoteNumber":65,"Velocity":64,"Duration":480500,"SoundDuration":480500,"Delta":140915937},{"NoteNumber":48,"Velocity":36,"Duration":240250,"SoundDuration":240250,"Delta":141156187},{"NoteNumber":64,"Velocity":51,"Duration":597032,"SoundDuration":597032,"Delta":141396437},{"NoteNumber":55,"Velocity":39,"Duration":240250,"SoundDuration":240250,"Delta":141396437},{"NoteNumber":58,"Velocity":35,"Duration":240250,"SoundDuration":240250,"Delta":141636687},{"NoteNumber":55,"Velocity":42,"Duration":233064,"SoundDuration":233064,"Delta":141876937},{"NoteNumber":67,"Velocity":52,"Duration":116532,"SoundDuration":116532,"Delta":141993469},{"NoteNumber":65,"Velocity":56,"Duration":116531,"SoundDuration":116531,"Delta":142110001},{"NoteNumber":48,"Velocity":34,"Duration":233063,"SoundDuration":233063,"Delta":142110001},{"NoteNumber":69,"Velocity":52,"Duration":116532,"SoundDuration":116532,"Delta":142226533},{"NoteNumber":67,"Velocity":56,"Duration":116532,"SoundDuration":116532,"Delta":142343065},{"NoteNumber":55,"Velocity":38,"Duration":233064,"SoundDuration":233064,"Delta":142343065},{"NoteNumber":70,"Velocity":53,"Duration":116532,"SoundDuration":116532,"Delta":142459597},{"NoteNumber":69,"Velocity":56,"Duration":116531,"SoundDuration":116531,"Delta":142576129},{"NoteNumber":58,"Velocity":34,"Duration":233063,"SoundDuration":233063,"Delta":142576129},{"NoteNumber":72,"Velocity":53,"Duration":116532,"SoundDuration":116532,"Delta":142692661},{"NoteNumber":70,"Velocity":56,"Duration":116036,"SoundDuration":116036,"Delta":142809193},{"NoteNumber":67,"Velocity":58,"Duration":116036,"SoundDuration":116036,"Delta":142925229},{"NoteNumber":76,"Velocity":61,"Duration":115544,"SoundDuration":115544,"Delta":143041265},{"NoteNumber":52,"Velocity":39,"Duration":231088,"SoundDuration":231088,"Delta":143041265},{"NoteNumber":72,"Velocity":62,"Duration":115544,"SoundDuration":115544,"Delta":143156810},{"NoteNumber":79,"Velocity":64,"Duration":115057,"SoundDuration":115057,"Delta":143272354},{"NoteNumber":55,"Velocity":43,"Duration":230114,"SoundDuration":230114,"Delta":143272354},{"NoteNumber":76,"Velocity":67,"Duration":115057,"SoundDuration":115057,"Delta":143387411},{"NoteNumber":82,"Velocity":70,"Duration":114573,"SoundDuration":114573,"Delta":143502469},{"NoteNumber":60,"Velocity":46,"Duration":229147,"SoundDuration":229147,"Delta":143502469},{"NoteNumber":81,"Velocity":69,"Duration":114573,"SoundDuration":114573,"Delta":143617042},{"NoteNumber":82,"Velocity":71,"Duration":114094,"SoundDuration":114094,"Delta":143731616},{"NoteNumber":55,"Velocity":49,"Duration":228348,"SoundDuration":228348,"Delta":143731616},{"NoteNumber":81,"Velocity":67,"Duration":114254,"SoundDuration":114254,"Delta":143845711},{"NoteNumber":79,"Velocity":69,"Duration":114573,"SoundDuration":114573,"Delta":143959965},{"NoteNumber":52,"Velocity":47,"Duration":229469,"SoundDuration":229469,"Delta":143959965},{"NoteNumber":77,"Velocity":65,"Duration":114896,"SoundDuration":114896,"Delta":144074539},{"NoteNumber":76,"Velocity":66,"Duration":115138,"SoundDuration":115138,"Delta":144189435},{"NoteNumber":55,"Velocity":50,"Duration":230682,"SoundDuration":230682,"Delta":144189435},{"NoteNumber":74,"Velocity":65,"Duration":115544,"SoundDuration":115544,"Delta":144304573},{"NoteNumber":72,"Velocity":64,"Duration":115790,"SoundDuration":115790,"Delta":144420118},{"NoteNumber":60,"Velocity":54,"Duration":231826,"SoundDuration":231826,"Delta":144420118},{"NoteNumber":70,"Velocity":63,"Duration":106366,"SoundDuration":106366,"Delta":144535908},{"NoteNumber":70,"Velocity":69,"Duration":119598,"SoundDuration":119598,"Delta":144651944},{"NoteNumber":69,"Velocity":56,"Duration":123385,"SoundDuration":123385,"Delta":144771543},{"NoteNumber":74,"Velocity":64,"Duration":120125,"SoundDuration":120125,"Delta":144894928},{"NoteNumber":53,"Velocity":42,"Duration":240250,"SoundDuration":240250,"Delta":144894928},{"NoteNumber":72,"Velocity":54,"Duration":110114,"SoundDuration":110114,"Delta":145015053},{"NoteNumber":72,"Velocity":54,"Duration":480500,"SoundDuration":480500,"Delta":145135178},{"NoteNumber":57,"Velocity":41,"Duration":240250,"SoundDuration":240250,"Delta":145135178},{"NoteNumber":60,"Velocity":34,"Duration":240250,"SoundDuration":240250,"Delta":145375428},{"NoteNumber":57,"Velocity":37,"Duration":240250,"SoundDuration":240250,"Delta":145615678},{"NoteNumber":53,"Velocity":34,"Duration":240249,"SoundDuration":240249,"Delta":145855928},{"NoteNumber":86,"Velocity":69,"Duration":116532,"SoundDuration":116532,"Delta":146096178},{"NoteNumber":57,"Velocity":36,"Duration":233064,"SoundDuration":233064,"Delta":146096178},{"NoteNumber":84,"Velocity":66,"Duration":116532,"SoundDuration":116532,"Delta":146212710},{"NoteNumber":82,"Velocity":69,"Duration":116531,"SoundDuration":116531,"Delta":146329242},{"NoteNumber":60,"Velocity":32,"Duration":233063,"SoundDuration":233063,"Delta":146329242},{"NoteNumber":81,"Velocity":66,"Duration":116532,"SoundDuration":116532,"Delta":146445774},{"NoteNumber":79,"Velocity":72,"Duration":708271,"SoundDuration":708271,"Delta":146562306},{"NoteNumber":58,"Velocity":47,"Duration":236090,"SoundDuration":236090,"Delta":146562306},{"NoteNumber":60,"Velocity":32,"Duration":236090,"SoundDuration":236090,"Delta":146798397},{"NoteNumber":58,"Velocity":37,"Duration":236090,"SoundDuration":236090,"Delta":147034487},{"NoteNumber":76,"Velocity":63,"Duration":236090,"SoundDuration":236090,"Delta":147270578},{"NoteNumber":60,"Velocity":31,"Duration":236090,"SoundDuration":236090,"Delta":147270578},{"NoteNumber":77,"Velocity":66,"Duration":59022,"SoundDuration":59022,"Delta":147506668},{"NoteNumber":57,"Velocity":50,"Duration":234081,"SoundDuration":234081,"Delta":147506668},{"NoteNumber":84,"Velocity":70,"Duration":139243,"SoundDuration":139243,"Delta":147624714},{"NoteNumber":83,"Velocity":70,"Duration":139243,"SoundDuration":139243,"Delta":147740750},{"NoteNumber":60,"Velocity":41,"Duration":232072,"SoundDuration":232072,"Delta":147740750},{"NoteNumber":84,"Velocity":67,"Duration":139243,"SoundDuration":139243,"Delta":147856786},{"NoteNumber":86,"Velocity":73,"Duration":139243,"SoundDuration":139243,"Delta":147972822},{"NoteNumber":57,"Velocity":44,"Duration":232072,"SoundDuration":232072,"Delta":147972822},{"NoteNumber":84,"Velocity":68,"Duration":139243,"SoundDuration":139243,"Delta":148088859},{"NoteNumber":82,"Velocity":71,"Duration":139243,"SoundDuration":139243,"Delta":148204895},{"NoteNumber":60,"Velocity":41,"Duration":232072,"SoundDuration":232072,"Delta":148204895},{"NoteNumber":81,"Velocity":68,"Duration":140061,"SoundDuration":140061,"Delta":148320931},{"NoteNumber":79,"Velocity":81,"Duration":120125,"SoundDuration":120125,"Delta":148436967},{"NoteNumber":58,"Velocity":49,"Duration":240250,"SoundDuration":240250,"Delta":148436967},{"NoteNumber":79,"Velocity":75,"Duration":474232,"SoundDuration":474232,"Delta":148677217},{"NoteNumber":60,"Velocity":36,"Duration":237116,"SoundDuration":237116,"Delta":148677217},{"NoteNumber":58,"Velocity":42,"Duration":237116,"SoundDuration":237116,"Delta":148914334},{"NoteNumber":76,"Velocity":64,"Duration":237116,"SoundDuration":237116,"Delta":149151450},{"NoteNumber":60,"Velocity":36,"Duration":237116,"SoundDuration":237116,"Delta":149151450},{"NoteNumber":77,"Velocity":63,"Duration":59279,"SoundDuration":59279,"Delta":149388567},{"NoteNumber":57,"Velocity":53,"Duration":234594,"SoundDuration":234594,"Delta":149388567},{"NoteNumber":84,"Velocity":70,"Duration":139243,"SoundDuration":139243,"Delta":149507125},{"NoteNumber":83,"Velocity":69,"Duration":139243,"SoundDuration":139243,"Delta":149623161},{"NoteNumber":60,"Velocity":45,"Duration":232072,"SoundDuration":232072,"Delta":149623161},{"NoteNumber":84,"Velocity":68,"Duration":139243,"SoundDuration":139243,"Delta":149739198},{"NoteNumber":86,"Velocity":75,"Duration":139243,"SoundDuration":139243,"Delta":149855234},{"NoteNumber":57,"Velocity":46,"Duration":232072,"SoundDuration":232072,"Delta":149855234},{"NoteNumber":84,"Velocity":69,"Duration":139243,"SoundDuration":139243,"Delta":149971270},{"NoteNumber":82,"Velocity":71,"Duration":127639,"SoundDuration":127639,"Delta":150087306},{"NoteNumber":60,"Velocity":44,"Duration":232072,"SoundDuration":232072,"Delta":150087306},{"NoteNumber":81,"Velocity":67,"Duration":106366,"SoundDuration":106366,"Delta":150203343},{"NoteNumber":81,"Velocity":73,"Duration":229392,"SoundDuration":229392,"Delta":150319379},{"NoteNumber":58,"Velocity":51,"Duration":229392,"SoundDuration":229392,"Delta":150319379},{"NoteNumber":79,"Velocity":70,"Duration":232955,"SoundDuration":232955,"Delta":150548772},{"NoteNumber":62,"Velocity":46,"Duration":232955,"SoundDuration":232955,"Delta":150548772},{"NoteNumber":58,"Velocity":51,"Duration":232955,"SoundDuration":232955,"Delta":150781727},{"NoteNumber":79,"Velocity":72,"Duration":223249,"SoundDuration":223249,"Delta":151014683},{"NoteNumber":62,"Velocity":46,"Duration":232955,"SoundDuration":232955,"Delta":151014683},{"NoteNumber":79,"Velocity":78,"Duration":232955,"SoundDuration":232955,"Delta":151247638},{"NoteNumber":59,"Velocity":50,"Duration":232955,"SoundDuration":232955,"Delta":151247638},{"NoteNumber":77,"Velocity":72,"Duration":232955,"SoundDuration":232955,"Delta":151480594},{"NoteNumber":62,"Velocity":46,"Duration":232955,"SoundDuration":232955,"Delta":151480594},{"NoteNumber":59,"Velocity":52,"Duration":232955,"SoundDuration":232955,"Delta":151713549},{"NoteNumber":77,"Velocity":72,"Duration":231088,"SoundDuration":231088,"Delta":151946505},{"NoteNumber":62,"Velocity":48,"Duration":231088,"SoundDuration":231088,"Delta":151946505},{"NoteNumber":76,"Velocity":73,"Duration":115544,"SoundDuration":115544,"Delta":152177594},{"NoteNumber":60,"Velocity":59,"Duration":462177,"SoundDuration":462177,"Delta":152177594},{"NoteNumber":77,"Velocity":66,"Duration":115544,"SoundDuration":115544,"Delta":152293138},{"NoteNumber":76,"Velocity":68,"Duration":115544,"SoundDuration":115544,"Delta":152408683},{"NoteNumber":72,"Velocity":65,"Duration":115544,"SoundDuration":115544,"Delta":152524227},{"NoteNumber":77,"Velocity":75,"Duration":115544,"SoundDuration":115544,"Delta":152639772},{"NoteNumber":62,"Velocity":61,"Duration":462177,"SoundDuration":462177,"Delta":152639772},{"NoteNumber":79,"Velocity":68,"Duration":115544,"SoundDuration":115544,"Delta":152755316},{"NoteNumber":77,"Velocity":68,"Duration":115544,"SoundDuration":115544,"Delta":152870861},{"NoteNumber":72,"Velocity":65,"Duration":115544,"SoundDuration":115544,"Delta":152986405},{"NoteNumber":79,"Velocity":80,"Duration":115544,"SoundDuration":115544,"Delta":153101950},{"NoteNumber":64,"Velocity":63,"Duration":462178,"SoundDuration":462178,"Delta":153101950},{"NoteNumber":81,"Velocity":68,"Duration":115544,"SoundDuration":115544,"Delta":153217494},{"NoteNumber":79,"Velocity":72,"Duration":115544,"SoundDuration":115544,"Delta":153333039},{"NoteNumber":72,"Velocity":67,"Duration":115544,"SoundDuration":115544,"Delta":153448583},{"NoteNumber":81,"Velocity":81,"Duration":115544,"SoundDuration":115544,"Delta":153564128},{"NoteNumber":65,"Velocity":65,"Duration":462177,"SoundDuration":462177,"Delta":153564128},{"NoteNumber":82,"Velocity":74,"Duration":115544,"SoundDuration":115544,"Delta":153679672},{"NoteNumber":81,"Velocity":76,"Duration":115544,"SoundDuration":115544,"Delta":153795217},{"NoteNumber":72,"Velocity":69,"Duration":115544,"SoundDuration":115544,"Delta":153910761},{"NoteNumber":82,"Velocity":85,"Duration":118045,"SoundDuration":118045,"Delta":154026306},{"NoteNumber":67,"Velocity":65,"Duration":236090,"SoundDuration":236090,"Delta":154026306},{"NoteNumber":82,"Velocity":83,"Duration":118045,"SoundDuration":118045,"Delta":154262396},{"NoteNumber":72,"Velocity":53,"Duration":236090,"SoundDuration":236090,"Delta":154262396},{"NoteNumber":64,"Velocity":60,"Duration":236090,"SoundDuration":236090,"Delta":154498487},{"NoteNumber":79,"Velocity":77,"Duration":117031,"SoundDuration":117031,"Delta":154734577},{"NoteNumber":72,"Velocity":53,"Duration":234063,"SoundDuration":234063,"Delta":154734577},{"NoteNumber":82,"Velocity":81,"Duration":234064,"SoundDuration":234064,"Delta":154968641},{"NoteNumber":65,"Velocity":59,"Duration":234064,"SoundDuration":234064,"Delta":154968641},{"NoteNumber":81,"Velocity":71,"Duration":117031,"SoundDuration":117031,"Delta":155202705},{"NoteNumber":72,"Velocity":50,"Duration":234063,"SoundDuration":234063,"Delta":155202705},{"NoteNumber":79,"Velocity":76,"Duration":117031,"SoundDuration":117031,"Delta":155436769},{"NoteNumber":62,"Velocity":56,"Duration":234063,"SoundDuration":234063,"Delta":155436769},{"NoteNumber":77,"Velocity":73,"Duration":117032,"SoundDuration":117032,"Delta":155670833},{"NoteNumber":72,"Velocity":52,"Duration":234064,"SoundDuration":234064,"Delta":155670833},{"NoteNumber":76,"Velocity":78,"Duration":115544,"SoundDuration":115544,"Delta":155904897},{"NoteNumber":60,"Velocity":60,"Duration":462177,"SoundDuration":462177,"Delta":155904897},{"NoteNumber":72,"Velocity":72,"Duration":115544,"SoundDuration":115544,"Delta":156020442},{"NoteNumber":83,"Velocity":72,"Duration":115544,"SoundDuration":115544,"Delta":156135986},{"NoteNumber":84,"Velocity":68,"Duration":115544,"SoundDuration":115544,"Delta":156251531},{"NoteNumber":77,"Velocity":80,"Duration":115544,"SoundDuration":115544,"Delta":156367075},{"NoteNumber":62,"Velocity":62,"Duration":462177,"SoundDuration":462177,"Delta":156367075},{"NoteNumber":72,"Velocity":73,"Duration":115544,"SoundDuration":115544,"Delta":156482620},{"NoteNumber":83,"Velocity":73,"Duration":115544,"SoundDuration":115544,"Delta":156598164},{"NoteNumber":84,"Velocity":69,"Duration":115544,"SoundDuration":115544,"Delta":156713709},{"NoteNumber":79,"Velocity":81,"Duration":115544,"SoundDuration":115544,"Delta":156829253},{"NoteNumber":64,"Velocity":65,"Duration":462178,"SoundDuration":462178,"Delta":156829253},{"NoteNumber":72,"Velocity":76,"Duration":115544,"SoundDuration":115544,"Delta":156944798},{"NoteNumber":83,"Velocity":76,"Duration":115544,"SoundDuration":115544,"Delta":157060342},{"NoteNumber":84,"Velocity":73,"Duration":115544,"SoundDuration":115544,"Delta":157175887},{"NoteNumber":81,"Velocity":84,"Duration":115544,"SoundDuration":115544,"Delta":157291431},{"NoteNumber":65,"Velocity":68,"Duration":462177,"SoundDuration":462177,"Delta":157291431},{"NoteNumber":72,"Velocity":76,"Duration":115544,"SoundDuration":115544,"Delta":157406976},{"NoteNumber":83,"Velocity":76,"Duration":115544,"SoundDuration":115544,"Delta":157522520},{"NoteNumber":84,"Velocity":75,"Duration":115544,"SoundDuration":115544,"Delta":157638065},{"NoteNumber":82,"Velocity":89,"Duration":118558,"SoundDuration":118558,"Delta":157753609},{"NoteNumber":67,"Velocity":66,"Duration":118558,"SoundDuration":118558,"Delta":157753609},{"NoteNumber":72,"Velocity":44,"Duration":118558,"SoundDuration":118558,"Delta":157872168},{"NoteNumber":82,"Velocity":84,"Duration":118558,"SoundDuration":118558,"Delta":157990726},{"NoteNumber":71,"Velocity":47,"Duration":118558,"SoundDuration":118558,"Delta":157990726},{"NoteNumber":72,"Velocity":44,"Duration":118558,"SoundDuration":118558,"Delta":158109284},{"NoteNumber":64,"Velocity":57,"Duration":118558,"SoundDuration":118558,"Delta":158227842},{"NoteNumber":72,"Velocity":45,"Duration":118558,"SoundDuration":118558,"Delta":158346401},{"NoteNumber":79,"Velocity":69,"Duration":59279,"SoundDuration":59279,"Delta":158464959},{"NoteNumber":71,"Velocity":48,"Duration":118558,"SoundDuration":118558,"Delta":158464959},{"NoteNumber":81,"Velocity":66,"Duration":59279,"SoundDuration":59279,"Delta":158524238},{"NoteNumber":79,"Velocity":69,"Duration":59279,"SoundDuration":59279,"Delta":158583517},{"NoteNumber":72,"Velocity":44,"Duration":118558,"SoundDuration":118558,"Delta":158583517},{"NoteNumber":81,"Velocity":67,"Duration":59279,"SoundDuration":59279,"Delta":158642796},{"NoteNumber":82,"Velocity":79,"Duration":237116,"SoundDuration":237116,"Delta":158702075},{"NoteNumber":65,"Velocity":57,"Duration":118558,"SoundDuration":118558,"Delta":158702075},{"NoteNumber":72,"Velocity":44,"Duration":118558,"SoundDuration":118558,"Delta":158820634},{"NoteNumber":81,"Velocity":76,"Duration":118558,"SoundDuration":118558,"Delta":158939192},{"NoteNumber":71,"Velocity":46,"Duration":118558,"SoundDuration":118558,"Delta":158939192},{"NoteNumber":72,"Velocity":44,"Duration":118558,"SoundDuration":118558,"Delta":159057750},{"NoteNumber":79,"Velocity":76,"Duration":118558,"SoundDuration":118558,"Delta":159176308},{"NoteNumber":62,"Velocity":56,"Duration":118558,"SoundDuration":118558,"Delta":159176308},{"NoteNumber":71,"Velocity":45,"Duration":118558,"SoundDuration":118558,"Delta":159294867},{"NoteNumber":77,"Velocity":75,"Duration":120211,"SoundDuration":120211,"Delta":159413425},{"NoteNumber":69,"Velocity":45,"Duration":120211,"SoundDuration":120211,"Delta":159413425},{"NoteNumber":71,"Velocity":43,"Duration":120211,"SoundDuration":120211,"Delta":159533636},{"NoteNumber":76,"Velocity":79,"Duration":114573,"SoundDuration":114573,"Delta":159653848},{"NoteNumber":72,"Velocity":56,"Duration":453521,"SoundDuration":453521,"Delta":159653848},{"NoteNumber":60,"Velocity":56,"Duration":453521,"SoundDuration":453521,"Delta":159653848},{"NoteNumber":84,"Velocity":71,"Duration":114573,"SoundDuration":114573,"Delta":159768422},{"NoteNumber":79,"Velocity":72,"Duration":114573,"SoundDuration":114573,"Delta":159882995},{"NoteNumber":76,"Velocity":70,"Duration":114573,"SoundDuration":114573,"Delta":159997569},{"NoteNumber":72,"Velocity":76,"Duration":114573,"SoundDuration":114573,"Delta":160112143},{"NoteNumber":67,"Velocity":69,"Duration":114573,"SoundDuration":114573,"Delta":160226717},{"NoteNumber":64,"Velocity":71,"Duration":115795,"SoundDuration":115795,"Delta":160341290},{"NoteNumber":60,"Velocity":70,"Duration":118911,"SoundDuration":118911,"Delta":160457086},{"NoteNumber":48,"Velocity":73,"Duration":241312,"SoundDuration":241312,"Delta":160575998},{"NoteNumber":36,"Velocity":73,"Duration":241312,"SoundDuration":241312,"Delta":160575998},{"NoteNumber":69,"Velocity":70,"Duration":699192,"SoundDuration":699192,"Delta":161541248},{"NoteNumber":65,"Velocity":70,"Duration":699192,"SoundDuration":699192,"Delta":161541248},{"NoteNumber":60,"Velocity":70,"Duration":699192,"SoundDuration":699192,"Delta":161541248},{"NoteNumber":72,"Velocity":70,"Duration":699192,"SoundDuration":699192,"Delta":161541248},{"NoteNumber":41,"Velocity":66,"Duration":932255,"SoundDuration":932255,"Delta":161541248},{"NoteNumber":53,"Velocity":66,"Duration":932255,"SoundDuration":932255,"Delta":161541248},{"NoteNumber":74,"Velocity":48,"Duration":116531,"SoundDuration":116531,"Delta":162240440},{"NoteNumber":72,"Velocity":48,"Duration":116532,"SoundDuration":116532,"Delta":162356972},{"NoteNumber":70,"Velocity":52,"Duration":116532,"SoundDuration":116532,"Delta":162473504},{"NoteNumber":69,"Velocity":48,"Duration":116531,"SoundDuration":116531,"Delta":162706568},{"NoteNumber":67,"Velocity":48,"Duration":116532,"SoundDuration":116532,"Delta":162939632},{"NoteNumber":65,"Velocity":48,"Duration":116532,"SoundDuration":116532,"Delta":163172696},{"NoteNumber":65,"Velocity":54,"Duration":237116,"SoundDuration":237116,"Delta":163405760},{"NoteNumber":74,"Velocity":50,"Duration":251842,"SoundDuration":251842,"Delta":163632997},{"NoteNumber":65,"Velocity":72,"Duration":712629,"SoundDuration":712629,"Delta":163895359},{"NoteNumber":74,"Velocity":72,"Duration":712629,"SoundDuration":712629,"Delta":163895359},{"NoteNumber":58,"Velocity":68,"Duration":945693,"SoundDuration":945693,"Delta":163895359},{"NoteNumber":46,"Velocity":68,"Duration":945693,"SoundDuration":945693,"Delta":163895359},{"NoteNumber":72,"Velocity":53,"Duration":233064,"SoundDuration":233064,"Delta":164607989},{"NoteNumber":76,"Velocity":56,"Duration":233063,"SoundDuration":233063,"Delta":164841053},{"NoteNumber":57,"Velocity":44,"Duration":466127,"SoundDuration":466127,"Delta":164841053},{"NoteNumber":77,"Velocity":53,"Duration":233064,"SoundDuration":233064,"Delta":165074117},{"NoteNumber":77,"Velocity":61,"Duration":229147,"SoundDuration":229147,"Delta":165307181},{"NoteNumber":59,"Velocity":38,"Duration":462211,"SoundDuration":462211,"Delta":165307181},{"NoteNumber":62,"Velocity":38,"Duration":462211,"SoundDuration":462211,"Delta":165307181},{"NoteNumber":67,"Velocity":53,"Duration":466127,"SoundDuration":466127,"Delta":165536329},{"NoteNumber":60,"Velocity":38,"Duration":466127,"SoundDuration":466127,"Delta":165769393},{"NoteNumber":69,"Velocity":53,"Duration":233064,"SoundDuration":233064,"Delta":166002457},{"NoteNumber":77,"Velocity":61,"Duration":229147,"SoundDuration":229147,"Delta":166235521},{"NoteNumber":62,"Velocity":38,"Duration":462211,"SoundDuration":462211,"Delta":166235521},{"NoteNumber":59,"Velocity":38,"Duration":462211,"SoundDuration":462211,"Delta":166235521},{"NoteNumber":67,"Velocity":53,"Duration":466127,"SoundDuration":466127,"Delta":166464668},{"NoteNumber":60,"Velocity":40,"Duration":466127,"SoundDuration":466127,"Delta":166697732},{"NoteNumber":69,"Velocity":53,"Duration":233064,"SoundDuration":233064,"Delta":166930796},{"NoteNumber":72,"Velocity":58,"Duration":472260,"SoundDuration":472260,"Delta":167163860},{"NoteNumber":62,"Velocity":39,"Duration":472260,"SoundDuration":472260,"Delta":167163860},{"NoteNumber":70,"Velocity":52,"Duration":58768,"SoundDuration":58768,"Delta":167636121},{"NoteNumber":64,"Velocity":35,"Duration":470145,"SoundDuration":470145,"Delta":167636121},{"NoteNumber":72,"Velocity":48,"Duration":58768,"SoundDuration":58768,"Delta":167694889},{"NoteNumber":70,"Velocity":52,"Duration":58768,"SoundDuration":58768,"Delta":167753657},{"NoteNumber":72,"Velocity":48,"Duration":58768,"SoundDuration":58768,"Delta":167812425},{"NoteNumber":70,"Velocity":52,"Duration":39178,"SoundDuration":39178,"Delta":167871194},{"NoteNumber":72,"Velocity":48,"Duration":39178,"SoundDuration":39178,"Delta":167910372},{"NoteNumber":70,"Velocity":48,"Duration":39178,"SoundDuration":39178,"Delta":167949551},{"NoteNumber":69,"Velocity":52,"Duration":58768,"SoundDuration":58768,"Delta":167988730},{"NoteNumber":70,"Velocity":49,"Duration":58768,"SoundDuration":58768,"Delta":168047498},{"NoteNumber":69,"Velocity":57,"Duration":117536,"SoundDuration":117536,"Delta":168106267},{"NoteNumber":65,"Velocity":35,"Duration":468137,"SoundDuration":468137,"Delta":168106267},{"NoteNumber":69,"Velocity":53,"Duration":233064,"SoundDuration":233064,"Delta":168341340},{"NoteNumber":70,"Velocity":56,"Duration":233063,"SoundDuration":233063,"Delta":168574404},{"NoteNumber":72,"Velocity":53,"Duration":233064,"SoundDuration":233064,"Delta":168807468},{"NoteNumber":73,"Velocity":65,"Duration":237116,"SoundDuration":237116,"Delta":169040532},{"NoteNumber":74,"Velocity":54,"Duration":466127,"SoundDuration":466127,"Delta":169277648},{"NoteNumber":46,"Velocity":45,"Duration":233064,"SoundDuration":233064,"Delta":169277648},{"NoteNumber":50,"Velocity":46,"Duration":233063,"SoundDuration":233063,"Delta":169510712},{"NoteNumber":72,"Velocity":54,"Duration":115057,"SoundDuration":115057,"Delta":169743776},{"NoteNumber":55,"Velocity":45,"Duration":230114,"SoundDuration":230114,"Delta":169743776},{"NoteNumber":70,"Velocity":50,"Duration":115057,"SoundDuration":115057,"Delta":169858833},{"NoteNumber":69,"Velocity":54,"Duration":233064,"SoundDuration":233064,"Delta":169973891},{"NoteNumber":58,"Velocity":52,"Duration":466127,"SoundDuration":466127,"Delta":169973891},{"NoteNumber":67,"Velocity":53,"Duration":233063,"SoundDuration":233063,"Delta":170206955},{"NoteNumber":69,"Velocity":54,"Duration":233064,"SoundDuration":233064,"Delta":170440019},{"NoteNumber":70,"Velocity":52,"Duration":233063,"SoundDuration":233063,"Delta":170673083},{"NoteNumber":74,"Velocity":63,"Duration":238152,"SoundDuration":238152,"Delta":170906147},{"NoteNumber":72,"Velocity":53,"Duration":466127,"SoundDuration":466127,"Delta":171144299},{"NoteNumber":45,"Velocity":44,"Duration":233064,"SoundDuration":233064,"Delta":171144299},{"NoteNumber":48,"Velocity":44,"Duration":233063,"SoundDuration":233063,"Delta":171377363},{"NoteNumber":70,"Velocity":54,"Duration":115544,"SoundDuration":115544,"Delta":171610427},{"NoteNumber":53,"Velocity":42,"Duration":231088,"SoundDuration":231088,"Delta":171610427},{"NoteNumber":69,"Velocity":52,"Duration":115544,"SoundDuration":115544,"Delta":171725971},{"NoteNumber":67,"Velocity":56,"Duration":233064,"SoundDuration":233064,"Delta":171841516},{"NoteNumber":57,"Velocity":52,"Duration":466127,"SoundDuration":466127,"Delta":171841516},{"NoteNumber":65,"Velocity":54,"Duration":233063,"SoundDuration":233063,"Delta":172074580},{"NoteNumber":67,"Velocity":54,"Duration":233064,"SoundDuration":233064,"Delta":172307644},{"NoteNumber":69,"Velocity":54,"Duration":233063,"SoundDuration":233063,"Delta":172540708},{"NoteNumber":72,"Velocity":63,"Duration":238152,"SoundDuration":238152,"Delta":172773772},{"NoteNumber":55,"Velocity":44,"Duration":471216,"SoundDuration":471216,"Delta":172773772},{"NoteNumber":70,"Velocity":51,"Duration":466127,"SoundDuration":466127,"Delta":173011924},{"NoteNumber":52,"Velocity":41,"Duration":466127,"SoundDuration":466127,"Delta":173244988},{"NoteNumber":67,"Velocity":51,"Duration":233064,"SoundDuration":233064,"Delta":173478052},{"NoteNumber":70,"Velocity":62,"Duration":238152,"SoundDuration":238152,"Delta":173711116},{"NoteNumber":53,"Velocity":43,"Duration":470224,"SoundDuration":470224,"Delta":173711116},{"NoteNumber":69,"Velocity":52,"Duration":464145,"SoundDuration":464145,"Delta":173949268},{"NoteNumber":50,"Velocity":42,"Duration":464145,"SoundDuration":464145,"Delta":174181340},{"NoteNumber":65,"Velocity":52,"Duration":232072,"SoundDuration":232072,"Delta":174413413},{"NoteNumber":64,"Velocity":61,"Duration":117031,"SoundDuration":117031,"Delta":174645485},{"NoteNumber":48,"Velocity":44,"Duration":468128,"SoundDuration":468128,"Delta":174645485},{"NoteNumber":65,"Velocity":53,"Duration":117031,"SoundDuration":117031,"Delta":174762517},{"NoteNumber":67,"Velocity":53,"Duration":117032,"SoundDuration":117032,"Delta":174879549},{"NoteNumber":69,"Velocity":50,"Duration":117031,"SoundDuration":117031,"Delta":174996581},{"NoteNumber":71,"Velocity":59,"Duration":116036,"SoundDuration":116036,"Delta":175113613},{"NoteNumber":72,"Velocity":54,"Duration":116036,"SoundDuration":116036,"Delta":175229649},{"NoteNumber":71,"Velocity":54,"Duration":116036,"SoundDuration":116036,"Delta":175345686},{"NoteNumber":72,"Velocity":51,"Duration":116036,"SoundDuration":116036,"Delta":175461722},{"NoteNumber":60,"Velocity":56,"Duration":464145,"SoundDuration":464145,"Delta":175577758},{"NoteNumber":48,"Velocity":53,"Duration":116036,"SoundDuration":116036,"Delta":175577758},{"NoteNumber":50,"Velocity":49,"Duration":116036,"SoundDuration":116036,"Delta":175693794},{"NoteNumber":46,"Velocity":54,"Duration":116036,"SoundDuration":116036,"Delta":175809831},{"NoteNumber":48,"Velocity":49,"Duration":116036,"SoundDuration":116036,"Delta":175925867},{"NoteNumber":45,"Velocity":54,"Duration":116037,"SoundDuration":116037,"Delta":176041903},{"NoteNumber":46,"Velocity":49,"Duration":117537,"SoundDuration":117537,"Delta":176157941},{"NoteNumber":43,"Velocity":56,"Duration":119077,"SoundDuration":119077,"Delta":176275479},{"NoteNumber":45,"Velocity":49,"Duration":120657,"SoundDuration":120657,"Delta":176394556},{"NoteNumber":72,"Velocity":71,"Duration":699192,"SoundDuration":699192,"Delta":176515214},{"NoteNumber":69,"Velocity":71,"Duration":699192,"SoundDuration":699192,"Delta":176515214},{"NoteNumber":41,"Velocity":66,"Duration":466127,"SoundDuration":466127,"Delta":176515214},{"NoteNumber":53,"Velocity":46,"Duration":466127,"SoundDuration":466127,"Delta":176981342},{"NoteNumber":74,"Velocity":51,"Duration":116531,"SoundDuration":116531,"Delta":177214406},{"NoteNumber":72,"Velocity":51,"Duration":116532,"SoundDuration":116532,"Delta":177330938},{"NoteNumber":70,"Velocity":57,"Duration":118315,"SoundDuration":118315,"Delta":177447470},{"NoteNumber":69,"Velocity":50,"Duration":118315,"SoundDuration":118315,"Delta":177684100},{"NoteNumber":67,"Velocity":50,"Duration":118315,"SoundDuration":118315,"Delta":177920731},{"NoteNumber":65,"Velocity":50,"Duration":118315,"SoundDuration":118315,"Delta":178157361},{"NoteNumber":65,"Velocity":54,"Duration":237116,"SoundDuration":237116,"Delta":178393992},{"NoteNumber":74,"Velocity":50,"Duration":237564,"SoundDuration":237564,"Delta":178631108},{"NoteNumber":74,"Velocity":71,"Duration":711349,"SoundDuration":711349,"Delta":178879001},{"NoteNumber":65,"Velocity":71,"Duration":711349,"SoundDuration":711349,"Delta":178879001},{"NoteNumber":46,"Velocity":59,"Duration":944413,"SoundDuration":944413,"Delta":178879001},{"NoteNumber":58,"Velocity":59,"Duration":944413,"SoundDuration":944413,"Delta":178879001},{"NoteNumber":72,"Velocity":53,"Duration":233064,"SoundDuration":233064,"Delta":179590351},{"NoteNumber":76,"Velocity":66,"Duration":233063,"SoundDuration":233063,"Delta":179823415},{"NoteNumber":57,"Velocity":43,"Duration":462211,"SoundDuration":462211,"Delta":179823415},{"NoteNumber":77,"Velocity":63,"Duration":458295,"SoundDuration":458295,"Delta":180056479},{"NoteNumber":59,"Velocity":43,"Duration":462211,"SoundDuration":462211,"Delta":180285626},{"NoteNumber":62,"Velocity":43,"Duration":462211,"SoundDuration":462211,"Delta":180285626},{"NoteNumber":67,"Velocity":53,"Duration":233064,"SoundDuration":233064,"Delta":180514774},{"NoteNumber":69,"Velocity":53,"Duration":233063,"SoundDuration":233063,"Delta":180747838},{"NoteNumber":60,"Velocity":43,"Duration":462211,"SoundDuration":462211,"Delta":180747838},{"NoteNumber":77,"Velocity":69,"Duration":458295,"SoundDuration":458295,"Delta":180980902},{"NoteNumber":62,"Velocity":43,"Duration":462211,"SoundDuration":462211,"Delta":181210049},{"NoteNumber":59,"Velocity":43,"Duration":462211,"SoundDuration":462211,"Delta":181210049},{"NoteNumber":67,"Velocity":53,"Duration":233064,"SoundDuration":233064,"Delta":181439197},{"NoteNumber":69,"Velocity":53,"Duration":233063,"SoundDuration":233063,"Delta":181672261},{"NoteNumber":60,"Velocity":43,"Duration":466127,"SoundDuration":466127,"Delta":181672261},{"NoteNumber":77,"Velocity":69,"Duration":116532,"SoundDuration":116532,"Delta":181905325},{"NoteNumber":72,"Velocity":54,"Duration":474232,"SoundDuration":474232,"Delta":182138389},{"NoteNumber":65,"Velocity":43,"Duration":474232,"SoundDuration":474232,"Delta":182138389},{"NoteNumber":62,"Velocity":43,"Duration":474232,"SoundDuration":474232,"Delta":182138389},{"NoteNumber":71,"Velocity":53,"Duration":237116,"SoundDuration":237116,"Delta":182612622},{"NoteNumber":67,"Velocity":43,"Duration":474232,"SoundDuration":474232,"Delta":182612622},{"NoteNumber":64,"Velocity":43,"Duration":474232,"SoundDuration":474232,"Delta":182612622},{"NoteNumber":70,"Velocity":53,"Duration":237116,"SoundDuration":237116,"Delta":182849738},{"NoteNumber":69,"Velocity":48,"Duration":118558,"SoundDuration":118558,"Delta":183086855},{"NoteNumber":65,"Velocity":46,"Duration":469189,"SoundDuration":469189,"Delta":183086855},{"NoteNumber":69,"Velocity":54,"Duration":232072,"SoundDuration":232072,"Delta":183323971},{"NoteNumber":70,"Velocity":60,"Duration":232072,"SoundDuration":232072,"Delta":183556044},{"NoteNumber":72,"Velocity":64,"Duration":232072,"SoundDuration":232072,"Delta":183788116},{"NoteNumber":73,"Velocity":75,"Duration":55646,"SoundDuration":55646,"Delta":184020189},{"NoteNumber":74,"Velocity":70,"Duration":625724,"SoundDuration":625724,"Delta":184075835},{"NoteNumber":50,"Velocity":54,"Duration":229392,"SoundDuration":229392,"Delta":184242774},{"NoteNumber":62,"Velocity":61,"Duration":114696,"SoundDuration":114696,"Delta":184472167},{"NoteNumber":76,"Velocity":70,"Duration":114696,"SoundDuration":114696,"Delta":184701560},{"NoteNumber":60,"Velocity":53,"Duration":114696,"SoundDuration":114696,"Delta":184701560},{"NoteNumber":78,"Velocity":67,"Duration":115057,"SoundDuration":115057,"Delta":184816256},{"NoteNumber":79,"Velocity":70,"Duration":115057,"SoundDuration":115057,"Delta":184931314},{"NoteNumber":58,"Velocity":60,"Duration":115057,"SoundDuration":115057,"Delta":184931314},{"NoteNumber":81,"Velocity":67,"Duration":115057,"SoundDuration":115057,"Delta":185046371},{"NoteNumber":82,"Velocity":70,"Duration":115057,"SoundDuration":115057,"Delta":185161428},{"NoteNumber":46,"Velocity":53,"Duration":230114,"SoundDuration":230114,"Delta":185161428},{"NoteNumber":81,"Velocity":67,"Duration":115057,"SoundDuration":115057,"Delta":185276485},{"NoteNumber":79,"Velocity":70,"Duration":115057,"SoundDuration":115057,"Delta":185391543},{"NoteNumber":58,"Velocity":61,"Duration":115057,"SoundDuration":115057,"Delta":185391543},{"NoteNumber":81,"Velocity":67,"Duration":115057,"SoundDuration":115057,"Delta":185506600},{"NoteNumber":77,"Velocity":70,"Duration":115057,"SoundDuration":115057,"Delta":185621657},{"NoteNumber":57,"Velocity":53,"Duration":115057,"SoundDuration":115057,"Delta":185621657},{"NoteNumber":79,"Velocity":67,"Duration":115057,"SoundDuration":115057,"Delta":185736714},{"NoteNumber":76,"Velocity":71,"Duration":114573,"SoundDuration":114573,"Delta":185851772},{"NoteNumber":55,"Velocity":57,"Duration":229147,"SoundDuration":229147,"Delta":185851772},{"NoteNumber":77,"Velocity":66,"Duration":114573,"SoundDuration":114573,"Delta":185966345},{"NoteNumber":74,"Velocity":71,"Duration":115057,"SoundDuration":115057,"Delta":186080919},{"NoteNumber":53,"Velocity":53,"Duration":230114,"SoundDuration":230114,"Delta":186080919},{"NoteNumber":76,"Velocity":67,"Duration":115057,"SoundDuration":115057,"Delta":186195976},{"NoteNumber":72,"Velocity":70,"Duration":115544,"SoundDuration":115544,"Delta":186311034},{"NoteNumber":52,"Velocity":53,"Duration":231088,"SoundDuration":231088,"Delta":186311034},{"NoteNumber":74,"Velocity":65,"Duration":115544,"SoundDuration":115544,"Delta":186426578},{"NoteNumber":70,"Velocity":68,"Duration":116036,"SoundDuration":116036,"Delta":186542123},{"NoteNumber":48,"Velocity":53,"Duration":232072,"SoundDuration":232072,"Delta":186542123},{"NoteNumber":72,"Velocity":61,"Duration":116036,"SoundDuration":116036,"Delta":186658159},{"NoteNumber":69,"Velocity":66,"Duration":116036,"SoundDuration":116036,"Delta":186774195},{"NoteNumber":53,"Velocity":60,"Duration":463489,"SoundDuration":463489,"Delta":186774195},{"NoteNumber":70,"Velocity":64,"Duration":116036,"SoundDuration":116036,"Delta":186890231},{"NoteNumber":72,"Velocity":68,"Duration":115872,"SoundDuration":115872,"Delta":187006268},{"NoteNumber":74,"Velocity":64,"Duration":115544,"SoundDuration":115544,"Delta":187122140},{"NoteNumber":76,"Velocity":71,"Duration":115544,"SoundDuration":115544,"Delta":187237685},{"NoteNumber":45,"Velocity":56,"Duration":464897,"SoundDuration":464897,"Delta":187237685},{"NoteNumber":77,"Velocity":68,"Duration":115219,"SoundDuration":115219,"Delta":187353229},{"NoteNumber":76,"Velocity":71,"Duration":115057,"SoundDuration":115057,"Delta":187468449},{"NoteNumber":77,"Velocity":68,"Duration":119076,"SoundDuration":119076,"Delta":187583506},{"NoteNumber":79,"Velocity":72,"Duration":114573,"SoundDuration":114573,"Delta":187702582},{"NoteNumber":46,"Velocity":59,"Duration":461766,"SoundDuration":461766,"Delta":187702582},{"NoteNumber":77,"Velocity":70,"Duration":114573,"SoundDuration":114573,"Delta":187817156},{"NoteNumber":76,"Velocity":69,"Duration":114573,"SoundDuration":114573,"Delta":187931729},{"NoteNumber":74,"Velocity":67,"Duration":118045,"SoundDuration":118045,"Delta":188046303},{"NoteNumber":76,"Velocity":72,"Duration":115057,"SoundDuration":115057,"Delta":188164348},{"NoteNumber":58,"Velocity":53,"Duration":460228,"SoundDuration":460228,"Delta":188164348},{"NoteNumber":74,"Velocity":70,"Duration":115057,"SoundDuration":115057,"Delta":188279406},{"NoteNumber":72,"Velocity":69,"Duration":115057,"SoundDuration":115057,"Delta":188394463},{"NoteNumber":70,"Velocity":67,"Duration":115057,"SoundDuration":115057,"Delta":188509520},{"NoteNumber":69,"Velocity":71,"Duration":470145,"SoundDuration":470145,"Delta":188624577},{"NoteNumber":60,"Velocity":54,"Duration":470145,"SoundDuration":470145,"Delta":188624577},{"NoteNumber":67,"Velocity":58,"Duration":60062,"SoundDuration":60062,"Delta":189094723},{"NoteNumber":64,"Velocity":58,"Duration":480500,"SoundDuration":480500,"Delta":189094723},{"NoteNumber":48,"Velocity":53,"Duration":480500,"SoundDuration":480500,"Delta":189094723},{"NoteNumber":69,"Velocity":51,"Duration":60062,"SoundDuration":60062,"Delta":189154786},{"NoteNumber":67,"Velocity":58,"Duration":60062,"SoundDuration":60062,"Delta":189214848},{"NoteNumber":69,"Velocity":52,"Duration":60062,"SoundDuration":60062,"Delta":189274911},{"NoteNumber":67,"Velocity":58,"Duration":40041,"SoundDuration":40041,"Delta":189334973},{"NoteNumber":69,"Velocity":53,"Duration":40041,"SoundDuration":40041,"Delta":189375015},{"NoteNumber":67,"Velocity":53,"Duration":40041,"SoundDuration":40041,"Delta":189415057},{"NoteNumber":65,"Velocity":66,"Duration":60062,"SoundDuration":60062,"Delta":189455098},{"NoteNumber":67,"Velocity":62,"Duration":60062,"SoundDuration":60062,"Delta":189515161},{"NoteNumber":65,"Velocity":75,"Duration":480500,"SoundDuration":480500,"Delta":189575223},{"NoteNumber":53,"Velocity":53,"Duration":120125,"SoundDuration":120125,"Delta":189575223},{"NoteNumber":60,"Velocity":46,"Duration":120125,"SoundDuration":120125,"Delta":189695348},{"NoteNumber":59,"Velocity":49,"Duration":120125,"SoundDuration":120125,"Delta":189815473},{"NoteNumber":60,"Velocity":46,"Duration":120125,"SoundDuration":120125,"Delta":189935598},{"NoteNumber":62,"Velocity":53,"Duration":120124,"SoundDuration":120124,"Delta":190055723},{"NoteNumber":60,"Velocity":46,"Duration":120125,"SoundDuration":120125,"Delta":190175848},{"NoteNumber":59,"Velocity":49,"Duration":120125,"SoundDuration":120125,"Delta":190295973},{"NoteNumber":60,"Velocity":46,"Duration":120125,"SoundDuration":120125,"Delta":190416098},{"NoteNumber":58,"Velocity":53,"Duration":120125,"SoundDuration":120125,"Delta":190536223},{"NoteNumber":60,"Velocity":50,"Duration":120125,"SoundDuration":120125,"Delta":190656348},{"NoteNumber":57,"Velocity":53,"Duration":120125,"SoundDuration":120125,"Delta":190776473},{"NoteNumber":60,"Velocity":49,"Duration":120125,"SoundDuration":120125,"Delta":190896598},{"NoteNumber":55,"Velocity":53,"Duration":120125,"SoundDuration":120125,"Delta":191016723},{"NoteNumber":60,"Velocity":50,"Duration":120125,"SoundDuration":120125,"Delta":191136848},{"NoteNumber":53,"Velocity":53,"Duration":120125,"SoundDuration":120125,"Delta":191256973},{"NoteNumber":60,"Velocity":50,"Duration":120125,"SoundDuration":120125,"Delta":191377098},{"NoteNumber":82,"Velocity":96,"Duration":237116,"SoundDuration":237116,"Delta":191497223},{"NoteNumber":52,"Velocity":48,"Duration":118558,"SoundDuration":118558,"Delta":191497223},{"NoteNumber":60,"Velocity":42,"Duration":118558,"SoundDuration":118558,"Delta":191615782},{"NoteNumber":79,"Velocity":62,"Duration":118558,"SoundDuration":118558,"Delta":191734340},{"NoteNumber":55,"Velocity":42,"Duration":118558,"SoundDuration":118558,"Delta":191734340},{"NoteNumber":60,"Velocity":40,"Duration":118558,"SoundDuration":118558,"Delta":191852898},{"NoteNumber":76,"Velocity":66,"Duration":118558,"SoundDuration":118558,"Delta":191971456},{"NoteNumber":58,"Velocity":48,"Duration":118558,"SoundDuration":118558,"Delta":191971456},{"NoteNumber":60,"Velocity":42,"Duration":118558,"SoundDuration":118558,"Delta":192090015},{"NoteNumber":76,"Velocity":62,"Duration":118558,"SoundDuration":118558,"Delta":192208573},{"NoteNumber":58,"Velocity":42,"Duration":118558,"SoundDuration":118558,"Delta":192208573},{"NoteNumber":60,"Velocity":41,"Duration":118558,"SoundDuration":118558,"Delta":192327131},{"NoteNumber":82,"Velocity":96,"Duration":237116,"SoundDuration":237116,"Delta":192445689},{"NoteNumber":52,"Velocity":47,"Duration":118558,"SoundDuration":118558,"Delta":192445689},{"NoteNumber":60,"Velocity":43,"Duration":118558,"SoundDuration":118558,"Delta":192564248},{"NoteNumber":79,"Velocity":59,"Duration":118558,"SoundDuration":118558,"Delta":192682806},{"NoteNumber":55,"Velocity":43,"Duration":118558,"SoundDuration":118558,"Delta":192682806},{"NoteNumber":60,"Velocity":42,"Duration":118558,"SoundDuration":118558,"Delta":192801364},{"NoteNumber":76,"Velocity":63,"Duration":118558,"SoundDuration":118558,"Delta":192919922},{"NoteNumber":58,"Velocity":48,"Duration":118558,"SoundDuration":118558,"Delta":192919922},{"NoteNumber":60,"Velocity":42,"Duration":118558,"SoundDuration":118558,"Delta":193038481},{"NoteNumber":76,"Velocity":60,"Duration":118558,"SoundDuration":118558,"Delta":193157039},{"NoteNumber":58,"Velocity":42,"Duration":118558,"SoundDuration":118558,"Delta":193157039},{"NoteNumber":60,"Velocity":42,"Duration":118558,"SoundDuration":118558,"Delta":193275597},{"NoteNumber":77,"Velocity":62,"Duration":116532,"SoundDuration":116532,"Delta":193394155},{"NoteNumber":57,"Velocity":44,"Duration":116532,"SoundDuration":116532,"Delta":193394155},{"NoteNumber":60,"Velocity":45,"Duration":116532,"SoundDuration":116532,"Delta":193510687},{"NoteNumber":79,"Velocity":63,"Duration":116531,"SoundDuration":116531,"Delta":193627219},{"NoteNumber":52,"Velocity":45,"Duration":116531,"SoundDuration":116531,"Delta":193627219},{"NoteNumber":60,"Velocity":45,"Duration":116532,"SoundDuration":116532,"Delta":193743751},{"NoteNumber":81,"Velocity":64,"Duration":116532,"SoundDuration":116532,"Delta":193860283},{"NoteNumber":53,"Velocity":46,"Duration":116532,"SoundDuration":116532,"Delta":193860283},{"NoteNumber":60,"Velocity":47,"Duration":116532,"SoundDuration":116532,"Delta":193976815},{"NoteNumber":82,"Velocity":66,"Duration":116531,"SoundDuration":116531,"Delta":194093347},{"NoteNumber":55,"Velocity":48,"Duration":116531,"SoundDuration":116531,"Delta":194093347},{"NoteNumber":60,"Velocity":49,"Duration":121192,"SoundDuration":121192,"Delta":194209879},{"NoteNumber":83,"Velocity":93,"Duration":235072,"SoundDuration":235072,"Delta":194331072},{"NoteNumber":56,"Velocity":53,"Duration":117536,"SoundDuration":117536,"Delta":194331072},{"NoteNumber":60,"Velocity":48,"Duration":117536,"SoundDuration":117536,"Delta":194448608},{"NoteNumber":84,"Velocity":75,"Duration":235072,"SoundDuration":235072,"Delta":194566145},{"NoteNumber":57,"Velocity":53,"Duration":117536,"SoundDuration":117536,"Delta":194566145},{"NoteNumber":60,"Velocity":46,"Duration":117536,"SoundDuration":117536,"Delta":194683681},{"NoteNumber":83,"Velocity":93,"Duration":235072,"SoundDuration":235072,"Delta":194801218},{"NoteNumber":56,"Velocity":53,"Duration":117536,"SoundDuration":117536,"Delta":194801218},{"NoteNumber":60,"Velocity":46,"Duration":117536,"SoundDuration":117536,"Delta":194918754},{"NoteNumber":84,"Velocity":75,"Duration":235072,"SoundDuration":235072,"Delta":195036291},{"NoteNumber":57,"Velocity":53,"Duration":117536,"SoundDuration":117536,"Delta":195036291},{"NoteNumber":60,"Velocity":47,"Duration":117536,"SoundDuration":117536,"Delta":195153827},{"NoteNumber":82,"Velocity":95,"Duration":227652,"SoundDuration":227652,"Delta":195271364},{"NoteNumber":52,"Velocity":48,"Duration":113825,"SoundDuration":113825,"Delta":195271364},{"NoteNumber":60,"Velocity":38,"Duration":113826,"SoundDuration":113826,"Delta":195385190},{"NoteNumber":79,"Velocity":62,"Duration":113825,"SoundDuration":113825,"Delta":195499016},{"NoteNumber":55,"Velocity":42,"Duration":113825,"SoundDuration":113825,"Delta":195499016},{"NoteNumber":60,"Velocity":39,"Duration":118315,"SoundDuration":118315,"Delta":195612842},{"NoteNumber":76,"Velocity":67,"Duration":118315,"SoundDuration":118315,"Delta":195731157},{"NoteNumber":58,"Velocity":48,"Duration":118315,"SoundDuration":118315,"Delta":195731157},{"NoteNumber":60,"Velocity":39,"Duration":118315,"SoundDuration":118315,"Delta":195849472},{"NoteNumber":76,"Velocity":62,"Duration":118315,"SoundDuration":118315,"Delta":195967788},{"NoteNumber":58,"Velocity":42,"Duration":118315,"SoundDuration":118315,"Delta":195967788},{"NoteNumber":60,"Velocity":40,"Duration":118315,"SoundDuration":118315,"Delta":196086103},{"NoteNumber":82,"Velocity":97,"Duration":232141,"SoundDuration":232141,"Delta":196204418},{"NoteNumber":52,"Velocity":47,"Duration":118315,"SoundDuration":118315,"Delta":196204418},{"NoteNumber":60,"Velocity":41,"Duration":113825,"SoundDuration":113825,"Delta":196322733},{"NoteNumber":79,"Velocity":59,"Duration":117389,"SoundDuration":117389,"Delta":196436559},{"NoteNumber":55,"Velocity":43,"Duration":117389,"SoundDuration":117389,"Delta":196436559},{"NoteNumber":60,"Velocity":40,"Duration":117389,"SoundDuration":117389,"Delta":196553949},{"NoteNumber":76,"Velocity":65,"Duration":117389,"SoundDuration":117389,"Delta":196671338},{"NoteNumber":58,"Velocity":48,"Duration":117389,"SoundDuration":117389,"Delta":196671338},{"NoteNumber":60,"Velocity":38,"Duration":117389,"SoundDuration":117389,"Delta":196788727},{"NoteNumber":76,"Velocity":60,"Duration":117389,"SoundDuration":117389,"Delta":196906116},{"NoteNumber":58,"Velocity":42,"Duration":117389,"SoundDuration":117389,"Delta":196906116},{"NoteNumber":60,"Velocity":40,"Duration":117389,"SoundDuration":117389,"Delta":197023506},{"NoteNumber":77,"Velocity":62,"Duration":116532,"SoundDuration":116532,"Delta":197140895},{"NoteNumber":57,"Velocity":44,"Duration":116532,"SoundDuration":116532,"Delta":197140895},{"NoteNumber":60,"Velocity":43,"Duration":116532,"SoundDuration":116532,"Delta":197257427},{"NoteNumber":79,"Velocity":63,"Duration":116531,"SoundDuration":116531,"Delta":197373959},{"NoteNumber":52,"Velocity":45,"Duration":116531,"SoundDuration":116531,"Delta":197373959},{"NoteNumber":60,"Velocity":45,"Duration":116532,"SoundDuration":116532,"Delta":197490491},{"NoteNumber":81,"Velocity":64,"Duration":116532,"SoundDuration":116532,"Delta":197607023},{"NoteNumber":53,"Velocity":46,"Duration":116532,"SoundDuration":116532,"Delta":197607023},{"NoteNumber":60,"Velocity":45,"Duration":116532,"SoundDuration":116532,"Delta":197723555},{"NoteNumber":82,"Velocity":66,"Duration":116531,"SoundDuration":116531,"Delta":197840087},{"NoteNumber":55,"Velocity":48,"Duration":116531,"SoundDuration":116531,"Delta":197840087},{"NoteNumber":60,"Velocity":47,"Duration":120656,"SoundDuration":120656,"Delta":197956619},{"NoteNumber":83,"Velocity":93,"Duration":236090,"SoundDuration":236090,"Delta":198077275},{"NoteNumber":56,"Velocity":53,"Duration":118045,"SoundDuration":118045,"Delta":198077275},{"NoteNumber":60,"Velocity":48,"Duration":118045,"SoundDuration":118045,"Delta":198195320},{"NoteNumber":84,"Velocity":75,"Duration":236090,"SoundDuration":236090,"Delta":198313366},{"NoteNumber":57,"Velocity":53,"Duration":118045,"SoundDuration":118045,"Delta":198313366},{"NoteNumber":60,"Velocity":46,"Duration":118045,"SoundDuration":118045,"Delta":198431411},{"NoteNumber":83,"Velocity":93,"Duration":236090,"SoundDuration":236090,"Delta":198549456},{"NoteNumber":56,"Velocity":53,"Duration":118045,"SoundDuration":118045,"Delta":198549456},{"NoteNumber":60,"Velocity":46,"Duration":118045,"SoundDuration":118045,"Delta":198667501},{"NoteNumber":84,"Velocity":75,"Duration":263987,"SoundDuration":263987,"Delta":198785547},{"NoteNumber":57,"Velocity":53,"Duration":118045,"SoundDuration":118045,"Delta":198785547},{"NoteNumber":60,"Velocity":47,"Duration":145942,"SoundDuration":145942,"Delta":198903592},{"NoteNumber":74,"Velocity":78,"Duration":944362,"SoundDuration":944362,"Delta":199049535},{"NoteNumber":86,"Velocity":78,"Duration":944362,"SoundDuration":944362,"Delta":199049535},{"NoteNumber":58,"Velocity":36,"Duration":236090,"SoundDuration":236090,"Delta":199285625},{"NoteNumber":57,"Velocity":38,"Duration":236090,"SoundDuration":236090,"Delta":199521716},{"NoteNumber":58,"Velocity":36,"Duration":236090,"SoundDuration":236090,"Delta":199757806},{"NoteNumber":76,"Velocity":64,"Duration":944361,"SoundDuration":944361,"Delta":199993897},{"NoteNumber":64,"Velocity":64,"Duration":944361,"SoundDuration":944361,"Delta":199993897},{"NoteNumber":60,"Velocity":34,"Duration":236090,"SoundDuration":236090,"Delta":200229987},{"NoteNumber":59,"Velocity":38,"Duration":236090,"SoundDuration":236090,"Delta":200466078},{"NoteNumber":60,"Velocity":33,"Duration":236090,"SoundDuration":236090,"Delta":200702168},{"NoteNumber":70,"Velocity":71,"Duration":944362,"SoundDuration":944362,"Delta":200938259},{"NoteNumber":82,"Velocity":71,"Duration":944362,"SoundDuration":944362,"Delta":200938259},{"NoteNumber":61,"Velocity":34,"Duration":236090,"SoundDuration":236090,"Delta":201174349},{"NoteNumber":59,"Velocity":36,"Duration":236090,"SoundDuration":236090,"Delta":201410440},{"NoteNumber":61,"Velocity":34,"Duration":236090,"SoundDuration":236090,"Delta":201646530},{"NoteNumber":69,"Velocity":66,"Duration":944361,"SoundDuration":944361,"Delta":201882621},{"NoteNumber":81,"Velocity":66,"Duration":944361,"SoundDuration":944361,"Delta":201882621},{"NoteNumber":62,"Velocity":38,"Duration":236090,"SoundDuration":236090,"Delta":202118711},{"NoteNumber":61,"Velocity":40,"Duration":236090,"SoundDuration":236090,"Delta":202354802},{"NoteNumber":62,"Velocity":38,"Duration":236090,"SoundDuration":236090,"Delta":202590892},{"NoteNumber":81,"Velocity":75,"Duration":116036,"SoundDuration":116036,"Delta":202826983},{"NoteNumber":79,"Velocity":68,"Duration":116036,"SoundDuration":116036,"Delta":202943019},{"NoteNumber":82,"Velocity":72,"Duration":116036,"SoundDuration":116036,"Delta":203059055},{"NoteNumber":81,"Velocity":68,"Duration":116036,"SoundDuration":116036,"Delta":203175091},{"NoteNumber":84,"Velocity":72,"Duration":116036,"SoundDuration":116036,"Delta":203291128},{"NoteNumber":58,"Velocity":54,"Duration":464145,"SoundDuration":464145,"Delta":203291128},{"NoteNumber":67,"Velocity":54,"Duration":464145,"SoundDuration":464145,"Delta":203291128},{"NoteNumber":82,"Velocity":71,"Duration":116036,"SoundDuration":116036,"Delta":203407164},{"NoteNumber":81,"Velocity":71,"Duration":116036,"SoundDuration":116036,"Delta":203523200},{"NoteNumber":79,"Velocity":69,"Duration":116036,"SoundDuration":116036,"Delta":203639236},{"NoteNumber":77,"Velocity":72,"Duration":484769,"SoundDuration":484769,"Delta":203755273},{"NoteNumber":60,"Velocity":54,"Duration":987408,"SoundDuration":987408,"Delta":203755273},{"NoteNumber":69,"Velocity":54,"Duration":484769,"SoundDuration":484769,"Delta":203755273},{"NoteNumber":76,"Velocity":63,"Duration":502638,"SoundDuration":502638,"Delta":204240043},{"NoteNumber":70,"Velocity":45,"Duration":502638,"SoundDuration":502638,"Delta":204240043},{"NoteNumber":69,"Velocity":40,"Duration":938388,"SoundDuration":938388,"Delta":204742682},{"NoteNumber":65,"Velocity":34,"Duration":938388,"SoundDuration":938388,"Delta":204742682},{"NoteNumber":77,"Velocity":45,"Duration":233064,"SoundDuration":233064,"Delta":204981878},{"NoteNumber":76,"Velocity":49,"Duration":233063,"SoundDuration":233063,"Delta":205214942},{"NoteNumber":77,"Velocity":45,"Duration":233064,"SoundDuration":233064,"Delta":205448006},{"NoteNumber":69,"Velocity":36,"Duration":936308,"SoundDuration":936308,"Delta":205681070},{"NoteNumber":65,"Velocity":30,"Duration":936308,"SoundDuration":936308,"Delta":205681070},{"NoteNumber":75,"Velocity":45,"Duration":233064,"SoundDuration":233064,"Delta":205918187},{"NoteNumber":74,"Velocity":50,"Duration":233063,"SoundDuration":233063,"Delta":206151251},{"NoteNumber":75,"Velocity":46,"Duration":233064,"SoundDuration":233064,"Delta":206384315},{"NoteNumber":54,"Velocity":30,"Duration":964271,"SoundDuration":964271,"Delta":206617379},{"NoteNumber":57,"Velocity":30,"Duration":964271,"SoundDuration":964271,"Delta":206617379},{"NoteNumber":60,"Velocity":36,"Duration":964271,"SoundDuration":964271,"Delta":206617379},{"NoteNumber":74,"Velocity":54,"Duration":242385,"SoundDuration":242385,"Delta":206854495},{"NoteNumber":86,"Velocity":67,"Duration":242384,"SoundDuration":242384,"Delta":207096880},{"NoteNumber":86,"Velocity":63,"Duration":121192,"SoundDuration":121192,"Delta":207339265},{"NoteNumber":55,"Velocity":30,"Duration":944576,"SoundDuration":944576,"Delta":207581650},{"NoteNumber":58,"Velocity":36,"Duration":944576,"SoundDuration":944576,"Delta":207581650},{"NoteNumber":86,"Velocity":61,"Duration":234063,"SoundDuration":234063,"Delta":207824035},{"NoteNumber":74,"Velocity":51,"Duration":234064,"SoundDuration":234064,"Delta":208058099},{"NoteNumber":74,"Velocity":47,"Duration":117031,"SoundDuration":117031,"Delta":208292163},{"NoteNumber":52,"Velocity":29,"Duration":948465,"SoundDuration":948465,"Delta":208526227},{"NoteNumber":58,"Velocity":35,"Duration":948465,"SoundDuration":948465,"Delta":208526227},{"NoteNumber":55,"Velocity":29,"Duration":948465,"SoundDuration":948465,"Delta":208526227},{"NoteNumber":72,"Velocity":49,"Duration":237116,"SoundDuration":237116,"Delta":208763344},{"NoteNumber":84,"Velocity":62,"Duration":237116,"SoundDuration":237116,"Delta":209000460},{"NoteNumber":84,"Velocity":57,"Duration":118558,"SoundDuration":118558,"Delta":209237577},{"NoteNumber":57,"Velocity":35,"Duration":942335,"SoundDuration":942335,"Delta":209474693},{"NoteNumber":53,"Velocity":29,"Duration":942335,"SoundDuration":942335,"Delta":209474693},{"NoteNumber":84,"Velocity":56,"Duration":235072,"SoundDuration":235072,"Delta":209711810},{"NoteNumber":72,"Velocity":48,"Duration":235072,"SoundDuration":235072,"Delta":209946883},{"NoteNumber":72,"Velocity":45,"Duration":117536,"SoundDuration":117536,"Delta":210181956},{"NoteNumber":73,"Velocity":46,"Duration":235072,"SoundDuration":235072,"Delta":210417029},{"NoteNumber":74,"Velocity":50,"Duration":235072,"SoundDuration":235072,"Delta":210652102},{"NoteNumber":76,"Velocity":54,"Duration":233064,"SoundDuration":233064,"Delta":210887175},{"NoteNumber":55,"Velocity":32,"Duration":466127,"SoundDuration":466127,"Delta":210887175},{"NoteNumber":47,"Velocity":32,"Duration":466127,"SoundDuration":466127,"Delta":210887175},{"NoteNumber":77,"Velocity":49,"Duration":233063,"SoundDuration":233063,"Delta":211120239},{"NoteNumber":65,"Velocity":45,"Duration":478393,"SoundDuration":478393,"Delta":211353303},{"NoteNumber":57,"Velocity":36,"Duration":478393,"SoundDuration":478393,"Delta":211353303},{"NoteNumber":48,"Velocity":36,"Duration":988077,"SoundDuration":988077,"Delta":211353303},{"NoteNumber":64,"Velocity":42,"Duration":509683,"SoundDuration":509683,"Delta":211831696},{"NoteNumber":69,"Velocity":42,"Duration":254841,"SoundDuration":254841,"Delta":211831696},{"NoteNumber":58,"Velocity":35,"Duration":509683,"SoundDuration":509683,"Delta":211831696},{"NoteNumber":67,"Velocity":42,"Duration":254841,"SoundDuration":254841,"Delta":212086538},{"NoteNumber":65,"Velocity":45,"Duration":127420,"SoundDuration":127420,"Delta":212341380},{"NoteNumber":57,"Velocity":43,"Duration":127420,"SoundDuration":127420,"Delta":212341380},{"NoteNumber":53,"Velocity":43,"Duration":127420,"SoundDuration":127420,"Delta":212341380},{"NoteNumber":65,"Velocity":47,"Duration":116532,"SoundDuration":116532,"Delta":212596222},{"NoteNumber":69,"Velocity":45,"Duration":116532,"SoundDuration":116532,"Delta":212712754},{"NoteNumber":67,"Velocity":47,"Duration":116531,"SoundDuration":116531,"Delta":212829286},{"NoteNumber":64,"Velocity":35,"Duration":233063,"SoundDuration":233063,"Delta":212829286},{"NoteNumber":70,"Velocity":45,"Duration":116532,"SoundDuration":116532,"Delta":212945818},{"NoteNumber":69,"Velocity":47,"Duration":116532,"SoundDuration":116532,"Delta":213062350},{"NoteNumber":63,"Velocity":35,"Duration":233064,"SoundDuration":233064,"Delta":213062350},{"NoteNumber":72,"Velocity":45,"Duration":116532,"SoundDuration":116532,"Delta":213178882},{"NoteNumber":70,"Velocity":48,"Duration":120125,"SoundDuration":120125,"Delta":213295414},{"NoteNumber":62,"Velocity":43,"Duration":120125,"SoundDuration":120125,"Delta":213295414},{"NoteNumber":53,"Velocity":43,"Duration":120125,"SoundDuration":120125,"Delta":213295414},{"NoteNumber":65,"Velocity":52,"Duration":116532,"SoundDuration":116532,"Delta":213535664},{"NoteNumber":69,"Velocity":48,"Duration":116532,"SoundDuration":116532,"Delta":213652196},{"NoteNumber":67,"Velocity":52,"Duration":116531,"SoundDuration":116531,"Delta":213768728},{"NoteNumber":64,"Velocity":35,"Duration":233063,"SoundDuration":233063,"Delta":213768728},{"NoteNumber":70,"Velocity":48,"Duration":116532,"SoundDuration":116532,"Delta":213885260},{"NoteNumber":69,"Velocity":52,"Duration":116532,"SoundDuration":116532,"Delta":214001792},{"NoteNumber":63,"Velocity":35,"Duration":233064,"SoundDuration":233064,"Delta":214001792},{"NoteNumber":72,"Velocity":48,"Duration":116532,"SoundDuration":116532,"Delta":214118324},{"NoteNumber":70,"Velocity":52,"Duration":118558,"SoundDuration":118558,"Delta":214234856},{"NoteNumber":62,"Velocity":42,"Duration":118558,"SoundDuration":118558,"Delta":214234856},{"NoteNumber":53,"Velocity":42,"Duration":118558,"SoundDuration":118558,"Delta":214234856},{"NoteNumber":65,"Velocity":48,"Duration":116532,"SoundDuration":116532,"Delta":214471972},{"NoteNumber":69,"Velocity":50,"Duration":116532,"SoundDuration":116532,"Delta":214588504},{"NoteNumber":67,"Velocity":52,"Duration":116531,"SoundDuration":116531,"Delta":214705036},{"NoteNumber":64,"Velocity":43,"Duration":233063,"SoundDuration":233063,"Delta":214705036},{"NoteNumber":70,"Velocity":53,"Duration":116532,"SoundDuration":116532,"Delta":214821568},{"NoteNumber":69,"Velocity":54,"Duration":116532,"SoundDuration":116532,"Delta":214938100},{"NoteNumber":63,"Velocity":43,"Duration":233064,"SoundDuration":233064,"Delta":214938100},{"NoteNumber":72,"Velocity":57,"Duration":116532,"SoundDuration":116532,"Delta":215054632},{"NoteNumber":70,"Velocity":58,"Duration":116531,"SoundDuration":116531,"Delta":215171164},{"NoteNumber":62,"Velocity":47,"Duration":233063,"SoundDuration":233063,"Delta":215171164},{"NoteNumber":74,"Velocity":60,"Duration":116532,"SoundDuration":116532,"Delta":215287696},{"NoteNumber":72,"Velocity":61,"Duration":116532,"SoundDuration":116532,"Delta":215404228},{"NoteNumber":57,"Velocity":44,"Duration":233064,"SoundDuration":233064,"Delta":215404228},{"NoteNumber":75,"Velocity":63,"Duration":116532,"SoundDuration":116532,"Delta":215520760},{"NoteNumber":74,"Velocity":64,"Duration":116531,"SoundDuration":116531,"Delta":215637292},{"NoteNumber":58,"Velocity":46,"Duration":233063,"SoundDuration":233063,"Delta":215637292},{"NoteNumber":77,"Velocity":65,"Duration":116532,"SoundDuration":116532,"Delta":215753824},{"NoteNumber":76,"Velocity":67,"Duration":118558,"SoundDuration":118558,"Delta":215870356},{"NoteNumber":55,"Velocity":44,"Duration":237116,"SoundDuration":237116,"Delta":215870356},{"NoteNumber":79,"Velocity":69,"Duration":118558,"SoundDuration":118558,"Delta":215988914},{"NoteNumber":77,"Velocity":70,"Duration":116532,"SoundDuration":116532,"Delta":216107473},{"NoteNumber":57,"Velocity":52,"Duration":466128,"SoundDuration":466128,"Delta":216107473},{"NoteNumber":79,"Velocity":72,"Duration":116532,"SoundDuration":116532,"Delta":216224005},{"NoteNumber":81,"Velocity":75,"Duration":116532,"SoundDuration":116532,"Delta":216340537},{"NoteNumber":79,"Velocity":75,"Duration":116532,"SoundDuration":116532,"Delta":216457069},{"NoteNumber":77,"Velocity":73,"Duration":116531,"SoundDuration":116531,"Delta":216573601},{"NoteNumber":75,"Velocity":72,"Duration":116532,"SoundDuration":116532,"Delta":216690133},{"NoteNumber":74,"Velocity":71,"Duration":118558,"SoundDuration":118558,"Delta":216806665},{"NoteNumber":73,"Velocity":70,"Duration":118558,"SoundDuration":118558,"Delta":216925223},{"NoteNumber":74,"Velocity":72,"Duration":116532,"SoundDuration":116532,"Delta":217043781},{"NoteNumber":58,"Velocity":49,"Duration":466127,"SoundDuration":466127,"Delta":217043781},{"NoteNumber":72,"Velocity":69,"Duration":116532,"SoundDuration":116532,"Delta":217160313},{"NoteNumber":70,"Velocity":71,"Duration":116531,"SoundDuration":116531,"Delta":217276845},{"NoteNumber":69,"Velocity":68,"Duration":116532,"SoundDuration":116532,"Delta":217393377},{"NoteNumber":67,"Velocity":70,"Duration":116532,"SoundDuration":116532,"Delta":217509909},{"NoteNumber":65,"Velocity":67,"Duration":116532,"SoundDuration":116532,"Delta":217626441},{"NoteNumber":64,"Velocity":69,"Duration":116531,"SoundDuration":116531,"Delta":217742973},{"NoteNumber":62,"Velocity":65,"Duration":116532,"SoundDuration":116532,"Delta":217859505},{"NoteNumber":60,"Velocity":68,"Duration":114696,"SoundDuration":114696,"Delta":217976037},{"NoteNumber":48,"Velocity":48,"Duration":229392,"SoundDuration":229392,"Delta":217976037},{"NoteNumber":65,"Velocity":65,"Duration":114696,"SoundDuration":114696,"Delta":218090734},{"NoteNumber":69,"Velocity":68,"Duration":113825,"SoundDuration":113825,"Delta":218205430},{"NoteNumber":53,"Velocity":44,"Duration":227652,"SoundDuration":227652,"Delta":218205430},{"NoteNumber":72,"Velocity":65,"Duration":113826,"SoundDuration":113826,"Delta":218319256},{"NoteNumber":77,"Velocity":72,"Duration":122169,"SoundDuration":122169,"Delta":218433082},{"NoteNumber":57,"Velocity":44,"Duration":122169,"SoundDuration":122169,"Delta":218433082},{"NoteNumber":65,"Velocity":59,"Duration":118045,"SoundDuration":118045,"Delta":218677422},{"NoteNumber":69,"Velocity":59,"Duration":118045,"SoundDuration":118045,"Delta":218677422},{"NoteNumber":53,"Velocity":41,"Duration":236090,"SoundDuration":236090,"Delta":218677422},{"NoteNumber":69,"Velocity":64,"Duration":242385,"SoundDuration":242385,"Delta":218913512},{"NoteNumber":72,"Velocity":64,"Duration":242385,"SoundDuration":242385,"Delta":218913512},{"NoteNumber":48,"Velocity":49,"Duration":242385,"SoundDuration":242385,"Delta":218913512},{"NoteNumber":70,"Velocity":60,"Duration":121192,"SoundDuration":121192,"Delta":219155897},{"NoteNumber":67,"Velocity":60,"Duration":121192,"SoundDuration":121192,"Delta":219155897},{"NoteNumber":55,"Velocity":43,"Duration":121192,"SoundDuration":121192,"Delta":219155897},{"NoteNumber":69,"Velocity":61,"Duration":125083,"SoundDuration":125083,"Delta":219398282},{"NoteNumber":65,"Velocity":61,"Duration":125083,"SoundDuration":125083,"Delta":219398282},{"NoteNumber":58,"Velocity":45,"Duration":125083,"SoundDuration":125083,"Delta":219398282},{"NoteNumber":64,"Velocity":58,"Duration":125083,"SoundDuration":125083,"Delta":219648449},{"NoteNumber":67,"Velocity":58,"Duration":125083,"SoundDuration":125083,"Delta":219648449},{"NoteNumber":55,"Velocity":43,"Duration":125083,"SoundDuration":125083,"Delta":219648449},{"NoteNumber":65,"Velocity":61,"Duration":125083,"SoundDuration":125083,"Delta":219898616},{"NoteNumber":57,"Velocity":51,"Duration":125083,"SoundDuration":125083,"Delta":219898616},{"NoteNumber":53,"Velocity":51,"Duration":125083,"SoundDuration":125083,"Delta":219898616},{"NoteNumber":77,"Velocity":47,"Duration":116532,"SoundDuration":116532,"Delta":220148783},{"NoteNumber":65,"Velocity":35,"Duration":233064,"SoundDuration":233064,"Delta":220148783},{"NoteNumber":81,"Velocity":45,"Duration":116532,"SoundDuration":116532,"Delta":220265315},{"NoteNumber":79,"Velocity":47,"Duration":116531,"SoundDuration":116531,"Delta":220381847},{"NoteNumber":64,"Velocity":35,"Duration":233063,"SoundDuration":233063,"Delta":220381847},{"NoteNumber":82,"Velocity":45,"Duration":116532,"SoundDuration":116532,"Delta":220498379},{"NoteNumber":81,"Velocity":47,"Duration":116532,"SoundDuration":116532,"Delta":220614911},{"NoteNumber":63,"Velocity":32,"Duration":233064,"SoundDuration":233064,"Delta":220614911},{"NoteNumber":84,"Velocity":45,"Duration":116532,"SoundDuration":116532,"Delta":220731443},{"NoteNumber":82,"Velocity":48,"Duration":120125,"SoundDuration":120125,"Delta":220847975},{"NoteNumber":53,"Velocity":43,"Duration":120125,"SoundDuration":120125,"Delta":220847975},{"NoteNumber":62,"Velocity":43,"Duration":120125,"SoundDuration":120125,"Delta":220847975},{"NoteNumber":77,"Velocity":54,"Duration":116532,"SoundDuration":116532,"Delta":221088225},{"NoteNumber":65,"Velocity":32,"Duration":233064,"SoundDuration":233064,"Delta":221088225},{"NoteNumber":81,"Velocity":50,"Duration":116532,"SoundDuration":116532,"Delta":221204757},{"NoteNumber":79,"Velocity":54,"Duration":116531,"SoundDuration":116531,"Delta":221321289},{"NoteNumber":64,"Velocity":35,"Duration":233063,"SoundDuration":233063,"Delta":221321289},{"NoteNumber":82,"Velocity":51,"Duration":116532,"SoundDuration":116532,"Delta":221437821},{"NoteNumber":81,"Velocity":54,"Duration":116532,"SoundDuration":116532,"Delta":221554353},{"NoteNumber":63,"Velocity":33,"Duration":233064,"SoundDuration":233064,"Delta":221554353},{"NoteNumber":84,"Velocity":50,"Duration":116532,"SoundDuration":116532,"Delta":221670885},{"NoteNumber":82,"Velocity":54,"Duration":118558,"SoundDuration":118558,"Delta":221787417},{"NoteNumber":53,"Velocity":42,"Duration":118558,"SoundDuration":118558,"Delta":221787417},{"NoteNumber":62,"Velocity":42,"Duration":118558,"SoundDuration":118558,"Delta":221787417},{"NoteNumber":77,"Velocity":55,"Duration":116532,"SoundDuration":116532,"Delta":222024534},{"NoteNumber":65,"Velocity":35,"Duration":233064,"SoundDuration":233064,"Delta":222024534},{"NoteNumber":81,"Velocity":56,"Duration":116532,"SoundDuration":116532,"Delta":222141066},{"NoteNumber":79,"Velocity":58,"Duration":116531,"SoundDuration":116531,"Delta":222257598},{"NoteNumber":64,"Velocity":43,"Duration":233063,"SoundDuration":233063,"Delta":222257598},{"NoteNumber":82,"Velocity":59,"Duration":116532,"SoundDuration":116532,"Delta":222374130},{"NoteNumber":81,"Velocity":61,"Duration":116532,"SoundDuration":116532,"Delta":222490662},{"NoteNumber":63,"Velocity":43,"Duration":233064,"SoundDuration":233064,"Delta":222490662},{"NoteNumber":84,"Velocity":63,"Duration":116532,"SoundDuration":116532,"Delta":222607194},{"NoteNumber":82,"Velocity":64,"Duration":116531,"SoundDuration":116531,"Delta":222723726},{"NoteNumber":62,"Velocity":47,"Duration":233063,"SoundDuration":233063,"Delta":222723726},{"NoteNumber":77,"Velocity":67,"Duration":116532,"SoundDuration":116532,"Delta":222840258},{"NoteNumber":84,"Velocity":68,"Duration":116532,"SoundDuration":116532,"Delta":222956790},{"NoteNumber":57,"Velocity":44,"Duration":233064,"SoundDuration":233064,"Delta":222956790},{"NoteNumber":77,"Velocity":69,"Duration":116532,"SoundDuration":116532,"Delta":223073322},{"NoteNumber":86,"Velocity":70,"Duration":116615,"SoundDuration":116615,"Delta":223189854},{"NoteNumber":58,"Velocity":46,"Duration":233815,"SoundDuration":233815,"Delta":223189854},{"NoteNumber":77,"Velocity":72,"Duration":117200,"SoundDuration":117200,"Delta":223306469},{"NoteNumber":88,"Velocity":74,"Duration":117875,"SoundDuration":117875,"Delta":223423669},{"NoteNumber":55,"Velocity":44,"Duration":238715,"SoundDuration":238715,"Delta":223423669},{"NoteNumber":77,"Velocity":75,"Duration":120839,"SoundDuration":120839,"Delta":223541545},{"NoteNumber":89,"Velocity":78,"Duration":116532,"SoundDuration":116532,"Delta":223662385},{"NoteNumber":57,"Velocity":62,"Duration":466127,"SoundDuration":466127,"Delta":223662385},{"NoteNumber":45,"Velocity":62,"Duration":466127,"SoundDuration":466127,"Delta":223662385},{"NoteNumber":88,"Velocity":78,"Duration":116532,"SoundDuration":116532,"Delta":223778917},{"NoteNumber":86,"Velocity":77,"Duration":116531,"SoundDuration":116531,"Delta":223895449},{"NoteNumber":84,"Velocity":75,"Duration":116532,"SoundDuration":116532,"Delta":224011981},{"NoteNumber":82,"Velocity":74,"Duration":116532,"SoundDuration":116532,"Delta":224128513},{"NoteNumber":81,"Velocity":73,"Duration":116532,"SoundDuration":116532,"Delta":224245045},{"NoteNumber":79,"Velocity":72,"Duration":116531,"SoundDuration":116531,"Delta":224361577},{"NoteNumber":77,"Velocity":71,"Duration":122829,"SoundDuration":122829,"Delta":224478109},{"NoteNumber":86,"Velocity":79,"Duration":116532,"SoundDuration":116532,"Delta":224600939},{"NoteNumber":46,"Velocity":63,"Duration":466127,"SoundDuration":466127,"Delta":224600939},{"NoteNumber":58,"Velocity":63,"Duration":466127,"SoundDuration":466127,"Delta":224600939},{"NoteNumber":84,"Velocity":75,"Duration":116532,"SoundDuration":116532,"Delta":224717471},{"NoteNumber":82,"Velocity":78,"Duration":116531,"SoundDuration":116531,"Delta":224834003},{"NoteNumber":81,"Velocity":77,"Duration":116532,"SoundDuration":116532,"Delta":224950535},{"NoteNumber":79,"Velocity":75,"Duration":116532,"SoundDuration":116532,"Delta":225067067},{"NoteNumber":77,"Velocity":71,"Duration":116532,"SoundDuration":116532,"Delta":225183599},{"NoteNumber":76,"Velocity":73,"Duration":116531,"SoundDuration":116531,"Delta":225300131},{"NoteNumber":74,"Velocity":70,"Duration":116532,"SoundDuration":116532,"Delta":225416663},{"NoteNumber":72,"Velocity":78,"Duration":233064,"SoundDuration":233064,"Delta":225533195},{"NoteNumber":48,"Velocity":48,"Duration":116532,"SoundDuration":116532,"Delta":225533195},{"NoteNumber":57,"Velocity":40,"Duration":116532,"SoundDuration":116532,"Delta":225649727},{"NoteNumber":84,"Velocity":75,"Duration":118045,"SoundDuration":118045,"Delta":225766259},{"NoteNumber":53,"Velocity":44,"Duration":118045,"SoundDuration":118045,"Delta":225766259},{"NoteNumber":57,"Velocity":41,"Duration":118045,"SoundDuration":118045,"Delta":225884304},{"NoteNumber":84,"Velocity":78,"Duration":118045,"SoundDuration":118045,"Delta":226002349},{"NoteNumber":48,"Velocity":48,"Duration":118045,"SoundDuration":118045,"Delta":226002349},{"NoteNumber":57,"Velocity":40,"Duration":118045,"SoundDuration":118045,"Delta":226120394},{"NoteNumber":84,"Velocity":77,"Duration":118045,"SoundDuration":118045,"Delta":226238440},{"NoteNumber":53,"Velocity":44,"Duration":118045,"SoundDuration":118045,"Delta":226238440},{"NoteNumber":57,"Velocity":40,"Duration":118045,"SoundDuration":118045,"Delta":226356485},{"NoteNumber":84,"Velocity":75,"Duration":116532,"SoundDuration":116532,"Delta":226474530},{"NoteNumber":48,"Velocity":48,"Duration":116532,"SoundDuration":116532,"Delta":226474530},{"NoteNumber":81,"Velocity":72,"Duration":116532,"SoundDuration":116532,"Delta":226591062},{"NoteNumber":57,"Velocity":42,"Duration":116532,"SoundDuration":116532,"Delta":226591062},{"NoteNumber":77,"Velocity":70,"Duration":116531,"SoundDuration":116531,"Delta":226707594},{"NoteNumber":53,"Velocity":46,"Duration":116531,"SoundDuration":116531,"Delta":226707594},{"NoteNumber":72,"Velocity":70,"Duration":116532,"SoundDuration":116532,"Delta":226824126},{"NoteNumber":57,"Velocity":42,"Duration":116532,"SoundDuration":116532,"Delta":226824126},{"NoteNumber":77,"Velocity":75,"Duration":116532,"SoundDuration":116532,"Delta":226940658},{"NoteNumber":48,"Velocity":48,"Duration":116532,"SoundDuration":116532,"Delta":226940658},{"NoteNumber":72,"Velocity":73,"Duration":116532,"SoundDuration":116532,"Delta":227057190},{"NoteNumber":57,"Velocity":43,"Duration":116532,"SoundDuration":116532,"Delta":227057190},{"NoteNumber":69,"Velocity":70,"Duration":116531,"SoundDuration":116531,"Delta":227173722},{"NoteNumber":53,"Velocity":46,"Duration":116531,"SoundDuration":116531,"Delta":227173722},{"NoteNumber":65,"Velocity":70,"Duration":117030,"SoundDuration":117030,"Delta":227290254},{"NoteNumber":57,"Velocity":43,"Duration":117030,"SoundDuration":117030,"Delta":227290254},{"NoteNumber":67,"Velocity":51,"Duration":81230,"SoundDuration":81230,"Delta":227407284},{"NoteNumber":48,"Velocity":48,"Duration":120764,"SoundDuration":120764,"Delta":227407284},{"NoteNumber":69,"Velocity":46,"Duration":78226,"SoundDuration":78226,"Delta":227488515},{"NoteNumber":58,"Velocity":40,"Duration":112029,"SoundDuration":112029,"Delta":227528049},{"NoteNumber":67,"Velocity":51,"Duration":73337,"SoundDuration":73337,"Delta":227566741},{"NoteNumber":69,"Velocity":46,"Duration":71230,"SoundDuration":71230,"Delta":227640079},{"NoteNumber":52,"Velocity":43,"Duration":106637,"SoundDuration":106637,"Delta":227640079},{"NoteNumber":67,"Velocity":51,"Duration":71050,"SoundDuration":71050,"Delta":227711309},{"NoteNumber":58,"Velocity":40,"Duration":106929,"SoundDuration":106929,"Delta":227746716},{"NoteNumber":69,"Velocity":46,"Duration":71286,"SoundDuration":71286,"Delta":227782359},{"NoteNumber":67,"Velocity":51,"Duration":71147,"SoundDuration":71147,"Delta":227853645},{"NoteNumber":48,"Velocity":48,"Duration":106693,"SoundDuration":106693,"Delta":227853645},{"NoteNumber":69,"Velocity":46,"Duration":70911,"SoundDuration":70911,"Delta":227924793},{"NoteNumber":58,"Velocity":42,"Duration":106731,"SoundDuration":106731,"Delta":227960338},{"NoteNumber":67,"Velocity":51,"Duration":71365,"SoundDuration":71365,"Delta":227995704},{"NoteNumber":69,"Velocity":46,"Duration":71503,"SoundDuration":71503,"Delta":228067070},{"NoteNumber":52,"Velocity":43,"Duration":107376,"SoundDuration":107376,"Delta":228067070},{"NoteNumber":67,"Velocity":51,"Duration":72086,"SoundDuration":72086,"Delta":228138573},{"NoteNumber":58,"Velocity":42,"Duration":108009,"SoundDuration":108009,"Delta":228174446},{"NoteNumber":69,"Velocity":46,"Duration":71796,"SoundDuration":71796,"Delta":228210659},{"NoteNumber":67,"Velocity":51,"Duration":72437,"SoundDuration":72437,"Delta":228282456},{"NoteNumber":48,"Velocity":48,"Duration":109492,"SoundDuration":109492,"Delta":228282456},{"NoteNumber":69,"Velocity":46,"Duration":73810,"SoundDuration":73810,"Delta":228354893},{"NoteNumber":58,"Velocity":41,"Duration":110978,"SoundDuration":110978,"Delta":228391948},{"NoteNumber":67,"Velocity":51,"Duration":74222,"SoundDuration":74222,"Delta":228428704},{"NoteNumber":69,"Velocity":48,"Duration":73452,"SoundDuration":73452,"Delta":228502926},{"NoteNumber":52,"Velocity":43,"Duration":110951,"SoundDuration":110951,"Delta":228502926},{"NoteNumber":67,"Velocity":51,"Duration":75121,"SoundDuration":75121,"Delta":228576379},{"NoteNumber":58,"Velocity":41,"Duration":111718,"SoundDuration":111718,"Delta":228613878},{"NoteNumber":69,"Velocity":47,"Duration":74095,"SoundDuration":74095,"Delta":228651501},{"NoteNumber":67,"Velocity":51,"Duration":57098,"SoundDuration":57098,"Delta":228725596},{"NoteNumber":48,"Velocity":48,"Duration":114993,"SoundDuration":114993,"Delta":228725596},{"NoteNumber":69,"Velocity":48,"Duration":57894,"SoundDuration":57894,"Delta":228782695},{"NoteNumber":67,"Velocity":51,"Duration":57449,"SoundDuration":57449,"Delta":228840590},{"NoteNumber":58,"Velocity":42,"Duration":115566,"SoundDuration":115566,"Delta":228840590},{"NoteNumber":69,"Velocity":47,"Duration":58117,"SoundDuration":58117,"Delta":228898039},{"NoteNumber":67,"Velocity":51,"Duration":38794,"SoundDuration":38794,"Delta":228956157},{"NoteNumber":52,"Velocity":45,"Duration":116501,"SoundDuration":116501,"Delta":228956157},{"NoteNumber":69,"Velocity":48,"Duration":38678,"SoundDuration":38678,"Delta":228994951},{"NoteNumber":67,"Velocity":48,"Duration":39028,"SoundDuration":39028,"Delta":229033630},{"NoteNumber":65,"Velocity":62,"Duration":59799,"SoundDuration":59799,"Delta":229072658},{"NoteNumber":58,"Velocity":42,"Duration":119598,"SoundDuration":119598,"Delta":229072658},{"NoteNumber":67,"Velocity":58,"Duration":59799,"SoundDuration":59799,"Delta":229132457},{"NoteNumber":65,"Velocity":71,"Duration":230239,"SoundDuration":230239,"Delta":229192257},{"NoteNumber":53,"Velocity":51,"Duration":240250,"SoundDuration":240250,"Delta":229192257},{"NoteNumber":77,"Velocity":54,"Duration":240250,"SoundDuration":240250,"Delta":229432507},{"NoteNumber":65,"Velocity":44,"Duration":240250,"SoundDuration":240250,"Delta":229432507},{"NoteNumber":64,"Velocity":44,"Duration":240250,"SoundDuration":240250,"Delta":229672757},{"NoteNumber":77,"Velocity":53,"Duration":233899,"SoundDuration":233899,"Delta":229913007},{"NoteNumber":65,"Velocity":44,"Duration":233899,"SoundDuration":233899,"Delta":229913007},{"NoteNumber":76,"Velocity":51,"Duration":236863,"SoundDuration":236863,"Delta":230146906},{"NoteNumber":67,"Velocity":45,"Duration":236863,"SoundDuration":236863,"Delta":230146906},{"NoteNumber":77,"Velocity":58,"Duration":239989,"SoundDuration":239989,"Delta":230383769},{"NoteNumber":65,"Velocity":48,"Duration":239989,"SoundDuration":239989,"Delta":230383769},{"NoteNumber":79,"Velocity":60,"Duration":243199,"SoundDuration":243199,"Delta":230623759},{"NoteNumber":64,"Velocity":51,"Duration":243199,"SoundDuration":243199,"Delta":230623759},{"NoteNumber":81,"Velocity":66,"Duration":246496,"SoundDuration":246496,"Delta":230866959},{"NoteNumber":63,"Velocity":54,"Duration":246496,"SoundDuration":246496,"Delta":230866959},{"NoteNumber":82,"Velocity":70,"Duration":116532,"SoundDuration":116532,"Delta":231113455},{"NoteNumber":62,"Velocity":59,"Duration":233064,"SoundDuration":233064,"Delta":231113455},{"NoteNumber":84,"Velocity":68,"Duration":116532,"SoundDuration":116532,"Delta":231229987},{"NoteNumber":86,"Velocity":72,"Duration":116531,"SoundDuration":116531,"Delta":231346519},{"NoteNumber":53,"Velocity":45,"Duration":233063,"SoundDuration":233063,"Delta":231346519},{"NoteNumber":84,"Velocity":67,"Duration":116532,"SoundDuration":116532,"Delta":231463051},{"NoteNumber":82,"Velocity":70,"Duration":116532,"SoundDuration":116532,"Delta":231579583},{"NoteNumber":61,"Velocity":53,"Duration":233064,"SoundDuration":233064,"Delta":231579583},{"NoteNumber":80,"Velocity":67,"Duration":116532,"SoundDuration":116532,"Delta":231696115},{"NoteNumber":79,"Velocity":68,"Duration":116531,"SoundDuration":116531,"Delta":231812647},{"NoteNumber":53,"Velocity":45,"Duration":236130,"SoundDuration":236130,"Delta":231812647},{"NoteNumber":77,"Velocity":65,"Duration":119598,"SoundDuration":119598,"Delta":231929179},{"NoteNumber":76,"Velocity":67,"Duration":116532,"SoundDuration":116532,"Delta":232048778},{"NoteNumber":60,"Velocity":52,"Duration":233564,"SoundDuration":233564,"Delta":232048778},{"NoteNumber":77,"Velocity":68,"Duration":117031,"SoundDuration":117031,"Delta":232165310},{"NoteNumber":79,"Velocity":69,"Duration":117536,"SoundDuration":117536,"Delta":232282342},{"NoteNumber":53,"Velocity":44,"Duration":235581,"SoundDuration":235581,"Delta":232282342},{"NoteNumber":77,"Velocity":68,"Duration":118045,"SoundDuration":118045,"Delta":232399878},{"NoteNumber":76,"Velocity":67,"Duration":118558,"SoundDuration":118558,"Delta":232517923},{"NoteNumber":64,"Velocity":50,"Duration":237634,"SoundDuration":237634,"Delta":232517923},{"NoteNumber":74,"Velocity":65,"Duration":119076,"SoundDuration":119076,"Delta":232636482},{"NoteNumber":72,"Velocity":64,"Duration":119598,"SoundDuration":119598,"Delta":232755558},{"NoteNumber":53,"Velocity":44,"Duration":239723,"SoundDuration":239723,"Delta":232755558},{"NoteNumber":70,"Velocity":63,"Duration":120125,"SoundDuration":120125,"Delta":232875156},{"NoteNumber":69,"Velocity":62,"Duration":120656,"SoundDuration":120656,"Delta":232995281},{"NoteNumber":65,"Velocity":53,"Duration":120656,"SoundDuration":120656,"Delta":232995281},{"NoteNumber":69,"Velocity":49,"Duration":120656,"SoundDuration":120656,"Delta":233236593},{"NoteNumber":53,"Velocity":41,"Duration":241312,"SoundDuration":241312,"Delta":233236593},{"NoteNumber":52,"Velocity":41,"Duration":241312,"SoundDuration":241312,"Delta":233477906},{"NoteNumber":65,"Velocity":53,"Duration":241312,"SoundDuration":241312,"Delta":233719218},{"NoteNumber":53,"Velocity":41,"Duration":241312,"SoundDuration":241312,"Delta":233719218},{"NoteNumber":64,"Velocity":49,"Duration":242569,"SoundDuration":242569,"Delta":233960531},{"NoteNumber":55,"Velocity":45,"Duration":242569,"SoundDuration":242569,"Delta":233960531},{"NoteNumber":65,"Velocity":49,"Duration":246312,"SoundDuration":246312,"Delta":234203100},{"NoteNumber":53,"Velocity":43,"Duration":246312,"SoundDuration":246312,"Delta":234203100},{"NoteNumber":67,"Velocity":49,"Duration":250363,"SoundDuration":250363,"Delta":234449413},{"NoteNumber":52,"Velocity":43,"Duration":250363,"SoundDuration":250363,"Delta":234449413},{"NoteNumber":69,"Velocity":49,"Duration":254352,"SoundDuration":254352,"Delta":234699776},{"NoteNumber":51,"Velocity":43,"Duration":254352,"SoundDuration":254352,"Delta":234699776},{"NoteNumber":70,"Velocity":52,"Duration":128623,"SoundDuration":128623,"Delta":234954129},{"NoteNumber":50,"Velocity":45,"Duration":514491,"SoundDuration":514491,"Delta":234954129},{"NoteNumber":72,"Velocity":52,"Duration":64311,"SoundDuration":64311,"Delta":235211375},{"NoteNumber":70,"Velocity":49,"Duration":64311,"SoundDuration":64311,"Delta":235275686},{"NoteNumber":69,"Velocity":52,"Duration":64311,"SoundDuration":64311,"Delta":235339998},{"NoteNumber":70,"Velocity":49,"Duration":64311,"SoundDuration":64311,"Delta":235404309},{"NoteNumber":72,"Velocity":58,"Duration":257246,"SoundDuration":257246,"Delta":235468621},{"NoteNumber":46,"Velocity":35,"Duration":538355,"SoundDuration":538355,"Delta":235468621},{"NoteNumber":74,"Velocity":59,"Duration":269396,"SoundDuration":269396,"Delta":235725867},{"NoteNumber":70,"Velocity":50,"Duration":269978,"SoundDuration":269978,"Delta":236006976},{"NoteNumber":74,"Velocity":50,"Duration":269978,"SoundDuration":269978,"Delta":236006976},{"NoteNumber":48,"Velocity":35,"Duration":539956,"SoundDuration":539956,"Delta":236006976},{"NoteNumber":72,"Velocity":46,"Duration":269978,"SoundDuration":269978,"Delta":236276955},{"NoteNumber":69,"Velocity":46,"Duration":269978,"SoundDuration":269978,"Delta":236276955},{"NoteNumber":48,"Velocity":35,"Duration":541859,"SoundDuration":541859,"Delta":236546933},{"NoteNumber":58,"Velocity":33,"Duration":279667,"SoundDuration":279667,"Delta":236809125},{"NoteNumber":64,"Velocity":33,"Duration":279667,"SoundDuration":279667,"Delta":236809125},{"NoteNumber":58,"Velocity":45,"Duration":1253851,"SoundDuration":1253851,"Delta":237088793},{"NoteNumber":67,"Velocity":45,"Duration":1253851,"SoundDuration":1253851,"Delta":237088793},{"NoteNumber":53,"Velocity":37,"Duration":592768,"SoundDuration":592768,"Delta":237088793},{"NoteNumber":48,"Velocity":28,"Duration":661083,"SoundDuration":661083,"Delta":237681561},{"NoteNumber":57,"Velocity":34,"Duration":495812,"SoundDuration":495812,"Delta":238342645},{"NoteNumber":65,"Velocity":34,"Duration":495812,"SoundDuration":495812,"Delta":238342645},{"NoteNumber":41,"Velocity":28,"Duration":495812,"SoundDuration":495812,"Delta":238342645},{"NoteNumber":74,"Velocity":57,"Duration":116532,"SoundDuration":116532,"Delta":239285286},{"NoteNumber":72,"Velocity":56,"Duration":116532,"SoundDuration":116532,"Delta":239401818},{"NoteNumber":70,"Velocity":54,"Duration":116531,"SoundDuration":116531,"Delta":239518350},{"NoteNumber":69,"Velocity":52,"Duration":116532,"SoundDuration":116532,"Delta":239634882},{"NoteNumber":67,"Velocity":60,"Duration":236090,"SoundDuration":236090,"Delta":239751414},{"NoteNumber":65,"Velocity":47,"Duration":226253,"SoundDuration":226253,"Delta":239987504},{"NoteNumber":41,"Velocity":33,"Duration":236090,"SoundDuration":236090,"Delta":239987504},{"NoteNumber":65,"Velocity":47,"Duration":708271,"SoundDuration":708271,"Delta":240223595},{"NoteNumber":45,"Velocity":35,"Duration":236090,"SoundDuration":236090,"Delta":240223595},{"NoteNumber":48,"Velocity":33,"Duration":236090,"SoundDuration":236090,"Delta":240459685},{"NoteNumber":45,"Velocity":38,"Duration":236090,"SoundDuration":236090,"Delta":240695776},{"NoteNumber":77,"Velocity":52,"Duration":233064,"SoundDuration":233064,"Delta":240931866},{"NoteNumber":41,"Velocity":32,"Duration":233064,"SoundDuration":233064,"Delta":240931866},{"NoteNumber":79,"Velocity":57,"Duration":233063,"SoundDuration":233063,"Delta":241164930},{"NoteNumber":45,"Velocity":34,"Duration":233063,"SoundDuration":233063,"Delta":241164930},{"NoteNumber":81,"Velocity":61,"Duration":233064,"SoundDuration":233064,"Delta":241397994},{"NoteNumber":48,"Velocity":32,"Duration":233064,"SoundDuration":233064,"Delta":241397994},{"NoteNumber":76,"Velocity":55,"Duration":58266,"SoundDuration":58266,"Delta":241572792},{"NoteNumber":82,"Velocity":69,"Duration":354135,"SoundDuration":354135,"Delta":241631058},{"NoteNumber":55,"Velocity":32,"Duration":236090,"SoundDuration":236090,"Delta":241867149},{"NoteNumber":79,"Velocity":64,"Duration":118045,"SoundDuration":118045,"Delta":241985194},{"NoteNumber":76,"Velocity":56,"Duration":472181,"SoundDuration":472181,"Delta":242103239},{"NoteNumber":58,"Velocity":35,"Duration":236090,"SoundDuration":236090,"Delta":242103239},{"NoteNumber":64,"Velocity":33,"Duration":236090,"SoundDuration":236090,"Delta":242339330},{"NoteNumber":58,"Velocity":34,"Duration":236090,"SoundDuration":236090,"Delta":242575420},{"NoteNumber":55,"Velocity":30,"Duration":236090,"SoundDuration":236090,"Delta":242811511},{"NoteNumber":72,"Velocity":48,"Duration":116532,"SoundDuration":116532,"Delta":243047601},{"NoteNumber":58,"Velocity":34,"Duration":233064,"SoundDuration":233064,"Delta":243047601},{"NoteNumber":70,"Velocity":48,"Duration":116532,"SoundDuration":116532,"Delta":243164133},{"NoteNumber":69,"Velocity":48,"Duration":116531,"SoundDuration":116531,"Delta":243280665},{"NoteNumber":64,"Velocity":30,"Duration":233063,"SoundDuration":233063,"Delta":243280665},{"NoteNumber":67,"Velocity":46,"Duration":116532,"SoundDuration":116532,"Delta":243397197},{"NoteNumber":65,"Velocity":53,"Duration":237116,"SoundDuration":237116,"Delta":243513729},{"NoteNumber":64,"Velocity":47,"Duration":227236,"SoundDuration":227236,"Delta":243750846},{"NoteNumber":43,"Velocity":32,"Duration":237116,"SoundDuration":237116,"Delta":243750846},{"NoteNumber":64,"Velocity":47,"Duration":711349,"SoundDuration":711349,"Delta":243987962},{"NoteNumber":46,"Velocity":35,"Duration":237116,"SoundDuration":237116,"Delta":243987962},{"NoteNumber":52,"Velocity":32,"Duration":237116,"SoundDuration":237116,"Delta":244225079},{"NoteNumber":46,"Velocity":39,"Duration":237116,"SoundDuration":237116,"Delta":244462195},{"NoteNumber":79,"Velocity":53,"Duration":234063,"SoundDuration":234063,"Delta":244699312},{"NoteNumber":43,"Velocity":33,"Duration":234063,"SoundDuration":234063,"Delta":244699312},{"NoteNumber":81,"Velocity":58,"Duration":234064,"SoundDuration":234064,"Delta":244933376},{"NoteNumber":46,"Velocity":35,"Duration":234064,"SoundDuration":234064,"Delta":244933376},{"NoteNumber":82,"Velocity":63,"Duration":234063,"SoundDuration":234063,"Delta":245167440},{"NoteNumber":52,"Velocity":33,"Duration":234063,"SoundDuration":234063,"Delta":245167440},{"NoteNumber":78,"Velocity":52,"Duration":58515,"SoundDuration":58515,"Delta":245342988},{"NoteNumber":84,"Velocity":68,"Duration":355674,"SoundDuration":355674,"Delta":245401504},{"NoteNumber":57,"Velocity":33,"Duration":237116,"SoundDuration":237116,"Delta":245638620},{"NoteNumber":81,"Velocity":65,"Duration":118558,"SoundDuration":118558,"Delta":245757179},{"NoteNumber":78,"Velocity":57,"Duration":474232,"SoundDuration":474232,"Delta":245875737},{"NoteNumber":60,"Velocity":35,"Duration":237116,"SoundDuration":237116,"Delta":245875737},{"NoteNumber":63,"Velocity":34,"Duration":237116,"SoundDuration":237116,"Delta":246112853},{"NoteNumber":60,"Velocity":37,"Duration":237116,"SoundDuration":237116,"Delta":246349970},{"NoteNumber":81,"Velocity":60,"Duration":233064,"SoundDuration":233064,"Delta":246587086},{"NoteNumber":57,"Velocity":32,"Duration":233064,"SoundDuration":233064,"Delta":246587086},{"NoteNumber":82,"Velocity":64,"Duration":233063,"SoundDuration":233063,"Delta":246820150},{"NoteNumber":60,"Velocity":34,"Duration":233063,"SoundDuration":233063,"Delta":246820150},{"NoteNumber":84,"Velocity":69,"Duration":243467,"SoundDuration":243467,"Delta":247053214},{"NoteNumber":63,"Velocity":34,"Duration":243467,"SoundDuration":243467,"Delta":247053214},{"NoteNumber":79,"Velocity":66,"Duration":60866,"SoundDuration":60866,"Delta":247235815},{"NoteNumber":86,"Velocity":84,"Duration":355674,"SoundDuration":355674,"Delta":247296681},{"NoteNumber":46,"Velocity":41,"Duration":237116,"SoundDuration":237116,"Delta":247533798},{"NoteNumber":82,"Velocity":77,"Duration":118558,"SoundDuration":118558,"Delta":247652356},{"NoteNumber":79,"Velocity":72,"Duration":237116,"SoundDuration":237116,"Delta":247770914},{"NoteNumber":50,"Velocity":47,"Duration":237116,"SoundDuration":237116,"Delta":247770914},{"NoteNumber":55,"Velocity":44,"Duration":245659,"SoundDuration":245659,"Delta":248008031},{"NoteNumber":76,"Velocity":71,"Duration":61414,"SoundDuration":61414,"Delta":248192276},{"NoteNumber":82,"Velocity":85,"Duration":355674,"SoundDuration":355674,"Delta":248253691},{"NoteNumber":48,"Velocity":46,"Duration":237116,"SoundDuration":237116,"Delta":248490807},{"NoteNumber":79,"Velocity":76,"Duration":118558,"SoundDuration":118558,"Delta":248609366},{"NoteNumber":76,"Velocity":72,"Duration":237116,"SoundDuration":237116,"Delta":248727924},{"NoteNumber":55,"Velocity":49,"Duration":237116,"SoundDuration":237116,"Delta":248727924},{"NoteNumber":58,"Velocity":46,"Duration":243467,"SoundDuration":243467,"Delta":248965040},{"NoteNumber":71,"Velocity":68,"Duration":60866,"SoundDuration":60866,"Delta":249147641},{"NoteNumber":77,"Velocity":79,"Duration":355674,"SoundDuration":355674,"Delta":249208507},{"NoteNumber":50,"Velocity":48,"Duration":237116,"SoundDuration":237116,"Delta":249445624},{"NoteNumber":74,"Velocity":73,"Duration":118558,"SoundDuration":118558,"Delta":249564182},{"NoteNumber":71,"Velocity":69,"Duration":474232,"SoundDuration":474232,"Delta":249682740},{"NoteNumber":53,"Velocity":50,"Duration":237116,"SoundDuration":237116,"Delta":249682740},{"NoteNumber":56,"Velocity":45,"Duration":237116,"SoundDuration":237116,"Delta":249919857},{"NoteNumber":53,"Velocity":52,"Duration":245659,"SoundDuration":245659,"Delta":250156973},{"NoteNumber":71,"Velocity":68,"Duration":227236,"SoundDuration":227236,"Delta":250402633},{"NoteNumber":50,"Velocity":49,"Duration":237116,"SoundDuration":237116,"Delta":250402633},{"NoteNumber":71,"Velocity":69,"Duration":227236,"SoundDuration":227236,"Delta":250639750},{"NoteNumber":53,"Velocity":53,"Duration":237116,"SoundDuration":237116,"Delta":250639750},{"NoteNumber":71,"Velocity":67,"Duration":227236,"SoundDuration":227236,"Delta":250876866},{"NoteNumber":56,"Velocity":50,"Duration":237116,"SoundDuration":237116,"Delta":250876866},{"NoteNumber":72,"Velocity":76,"Duration":116532,"SoundDuration":116532,"Delta":251113983},{"NoteNumber":48,"Velocity":63,"Duration":932255,"SoundDuration":932255,"Delta":251113983},{"NoteNumber":57,"Velocity":63,"Duration":932255,"SoundDuration":932255,"Delta":251113983},{"NoteNumber":81,"Velocity":69,"Duration":116532,"SoundDuration":116532,"Delta":251230515},{"NoteNumber":77,"Velocity":72,"Duration":116531,"SoundDuration":116531,"Delta":251347047},{"NoteNumber":72,"Velocity":70,"Duration":116532,"SoundDuration":116532,"Delta":251463579},{"NoteNumber":69,"Velocity":76,"Duration":116532,"SoundDuration":116532,"Delta":251580111},{"NoteNumber":77,"Velocity":70,"Duration":116532,"SoundDuration":116532,"Delta":251696643},{"NoteNumber":72,"Velocity":72,"Duration":116531,"SoundDuration":116531,"Delta":251813175},{"NoteNumber":69,"Velocity":67,"Duration":109734,"SoundDuration":109734,"Delta":251929707},{"NoteNumber":69,"Velocity":61,"Duration":249024,"SoundDuration":249024,"Delta":252046239},{"NoteNumber":72,"Velocity":72,"Duration":249024,"SoundDuration":249024,"Delta":252046239},{"NoteNumber":60,"Velocity":48,"Duration":498049,"SoundDuration":498049,"Delta":252046239},{"NoteNumber":67,"Velocity":53,"Duration":249024,"SoundDuration":249024,"Delta":252295263},{"NoteNumber":70,"Velocity":63,"Duration":249024,"SoundDuration":249024,"Delta":252295263},{"NoteNumber":65,"Velocity":51,"Duration":127420,"SoundDuration":127420,"Delta":252544288},{"NoteNumber":69,"Velocity":61,"Duration":127420,"SoundDuration":127420,"Delta":252544288},{"NoteNumber":48,"Velocity":45,"Duration":509683,"SoundDuration":509683,"Delta":252544288},{"NoteNumber":64,"Velocity":49,"Duration":127420,"SoundDuration":127420,"Delta":252799130},{"NoteNumber":67,"Velocity":58,"Duration":127420,"SoundDuration":127420,"Delta":252799130},{"NoteNumber":65,"Velocity":54,"Duration":474232,"SoundDuration":474232,"Delta":253053972},{"NoteNumber":53,"Velocity":41,"Duration":118558,"SoundDuration":118558,"Delta":253053972},{"NoteNumber":60,"Velocity":34,"Duration":118558,"SoundDuration":118558,"Delta":253172530},{"NoteNumber":56,"Velocity":37,"Duration":118558,"SoundDuration":118558,"Delta":253291088},{"NoteNumber":60,"Velocity":34,"Duration":118558,"SoundDuration":118558,"Delta":253409647},{"NoteNumber":53,"Velocity":41,"Duration":142269,"SoundDuration":142269,"Delta":253528205},{"NoteNumber":60,"Velocity":34,"Duration":142269,"SoundDuration":142269,"Delta":253646763},{"NoteNumber":56,"Velocity":37,"Duration":142269,"SoundDuration":142269,"Delta":253765321},{"NoteNumber":60,"Velocity":34,"Duration":142269,"SoundDuration":142269,"Delta":253883880},{"NoteNumber":53,"Velocity":46,"Duration":142269,"SoundDuration":142269,"Delta":254002438},{"NoteNumber":65,"Velocity":54,"Duration":118558,"SoundDuration":118558,"Delta":254120996},{"NoteNumber":60,"Velocity":36,"Duration":142269,"SoundDuration":142269,"Delta":254120996},{"NoteNumber":67,"Velocity":58,"Duration":118558,"SoundDuration":118558,"Delta":254239554},{"NoteNumber":56,"Velocity":41,"Duration":142269,"SoundDuration":142269,"Delta":254239554},{"NoteNumber":68,"Velocity":61,"Duration":118558,"SoundDuration":118558,"Delta":254358113},{"NoteNumber":60,"Velocity":37,"Duration":142269,"SoundDuration":142269,"Delta":254358113},{"NoteNumber":70,"Velocity":63,"Duration":118558,"SoundDuration":118558,"Delta":254476671},{"NoteNumber":53,"Velocity":49,"Duration":142269,"SoundDuration":142269,"Delta":254476671},{"NoteNumber":72,"Velocity":65,"Duration":118558,"SoundDuration":118558,"Delta":254595229},{"NoteNumber":60,"Velocity":39,"Duration":142269,"SoundDuration":142269,"Delta":254595229},{"NoteNumber":74,"Velocity":68,"Duration":118558,"SoundDuration":118558,"Delta":254713787},{"NoteNumber":56,"Velocity":44,"Duration":142269,"SoundDuration":142269,"Delta":254713787},{"NoteNumber":76,"Velocity":71,"Duration":118558,"SoundDuration":118558,"Delta":254832346},{"NoteNumber":60,"Velocity":39,"Duration":142269,"SoundDuration":142269,"Delta":254832346},{"NoteNumber":77,"Velocity":75,"Duration":118558,"SoundDuration":118558,"Delta":254950904},{"NoteNumber":53,"Velocity":49,"Duration":143806,"SoundDuration":143806,"Delta":254950904},{"NoteNumber":72,"Velocity":71,"Duration":126241,"SoundDuration":126241,"Delta":255069462},{"NoteNumber":60,"Velocity":43,"Duration":149952,"SoundDuration":149952,"Delta":255069462},{"NoteNumber":80,"Velocity":75,"Duration":118558,"SoundDuration":118558,"Delta":255195703},{"NoteNumber":56,"Velocity":45,"Duration":142269,"SoundDuration":142269,"Delta":255195703},{"NoteNumber":79,"Velocity":72,"Duration":118558,"SoundDuration":118558,"Delta":255314262},{"NoteNumber":60,"Velocity":43,"Duration":142269,"SoundDuration":142269,"Delta":255314262},{"NoteNumber":77,"Velocity":75,"Duration":118558,"SoundDuration":118558,"Delta":255432820},{"NoteNumber":53,"Velocity":49,"Duration":143014,"SoundDuration":143014,"Delta":255432820},{"NoteNumber":72,"Velocity":71,"Duration":122279,"SoundDuration":122279,"Delta":255551378},{"NoteNumber":60,"Velocity":43,"Duration":145990,"SoundDuration":145990,"Delta":255551378},{"NoteNumber":80,"Velocity":72,"Duration":118558,"SoundDuration":118558,"Delta":255673657},{"NoteNumber":56,"Velocity":45,"Duration":142269,"SoundDuration":142269,"Delta":255673657},{"NoteNumber":79,"Velocity":70,"Duration":118558,"SoundDuration":118558,"Delta":255792216},{"NoteNumber":60,"Velocity":43,"Duration":142269,"SoundDuration":142269,"Delta":255792216},{"NoteNumber":77,"Velocity":72,"Duration":142269,"SoundDuration":142269,"Delta":255910774},{"NoteNumber":53,"Velocity":48,"Duration":142269,"SoundDuration":142269,"Delta":255910774},{"NoteNumber":79,"Velocity":67,"Duration":142269,"SoundDuration":142269,"Delta":256029332},{"NoteNumber":62,"Velocity":39,"Duration":142269,"SoundDuration":142269,"Delta":256029332},{"NoteNumber":75,"Velocity":71,"Duration":142269,"SoundDuration":142269,"Delta":256147890},{"NoteNumber":56,"Velocity":45,"Duration":142269,"SoundDuration":142269,"Delta":256147890},{"NoteNumber":77,"Velocity":64,"Duration":142269,"SoundDuration":142269,"Delta":256266449},{"NoteNumber":62,"Velocity":40,"Duration":142269,"SoundDuration":142269,"Delta":256266449},{"NoteNumber":74,"Velocity":70,"Duration":142269,"SoundDuration":142269,"Delta":256385007},{"NoteNumber":53,"Velocity":47,"Duration":142269,"SoundDuration":142269,"Delta":256385007},{"NoteNumber":75,"Velocity":63,"Duration":142269,"SoundDuration":142269,"Delta":256503565},{"NoteNumber":62,"Velocity":40,"Duration":142269,"SoundDuration":142269,"Delta":256503565},{"NoteNumber":72,"Velocity":68,"Duration":142269,"SoundDuration":142269,"Delta":256622123},{"NoteNumber":56,"Velocity":45,"Duration":142269,"SoundDuration":142269,"Delta":256622123},{"NoteNumber":74,"Velocity":64,"Duration":143347,"SoundDuration":143347,"Delta":256740682},{"NoteNumber":62,"Velocity":40,"Duration":143347,"SoundDuration":143347,"Delta":256740682},{"NoteNumber":71,"Velocity":67,"Duration":247892,"SoundDuration":247892,"Delta":256859240},{"NoteNumber":55,"Velocity":54,"Duration":123946,"SoundDuration":123946,"Delta":256859240},{"NoteNumber":65,"Velocity":46,"Duration":123946,"SoundDuration":123946,"Delta":256983186},{"NoteNumber":89,"Velocity":90,"Duration":470145,"SoundDuration":470145,"Delta":257107133},{"NoteNumber":62,"Velocity":48,"Duration":117536,"SoundDuration":117536,"Delta":257107133},{"NoteNumber":65,"Velocity":45,"Duration":117536,"SoundDuration":117536,"Delta":257224669},{"NoteNumber":55,"Velocity":54,"Duration":117536,"SoundDuration":117536,"Delta":257342206},{"NoteNumber":65,"Velocity":45,"Duration":117536,"SoundDuration":117536,"Delta":257459742},{"NoteNumber":87,"Velocity":89,"Duration":470145,"SoundDuration":470145,"Delta":257577279},{"NoteNumber":62,"Velocity":48,"Duration":117536,"SoundDuration":117536,"Delta":257577279},{"NoteNumber":65,"Velocity":45,"Duration":117536,"SoundDuration":117536,"Delta":257694815},{"NoteNumber":55,"Velocity":54,"Duration":117536,"SoundDuration":117536,"Delta":257812352},{"NoteNumber":65,"Velocity":46,"Duration":117536,"SoundDuration":117536,"Delta":257929888},{"NoteNumber":86,"Velocity":88,"Duration":470145,"SoundDuration":470145,"Delta":258047425},{"NoteNumber":62,"Velocity":48,"Duration":117536,"SoundDuration":117536,"Delta":258047425},{"NoteNumber":65,"Velocity":45,"Duration":117536,"SoundDuration":117536,"Delta":258164961},{"NoteNumber":55,"Velocity":52,"Duration":117536,"SoundDuration":117536,"Delta":258282498},{"NoteNumber":65,"Velocity":45,"Duration":117536,"SoundDuration":117536,"Delta":258400034},{"NoteNumber":84,"Velocity":87,"Duration":470145,"SoundDuration":470145,"Delta":258517571},{"NoteNumber":62,"Velocity":48,"Duration":117536,"SoundDuration":117536,"Delta":258517571},{"NoteNumber":65,"Velocity":45,"Duration":117536,"SoundDuration":117536,"Delta":258635107},{"NoteNumber":55,"Velocity":53,"Duration":117536,"SoundDuration":117536,"Delta":258752644},{"NoteNumber":65,"Velocity":45,"Duration":117536,"SoundDuration":117536,"Delta":258870180},{"NoteNumber":83,"Velocity":84,"Duration":470145,"SoundDuration":470145,"Delta":258987717},{"NoteNumber":62,"Velocity":48,"Duration":117536,"SoundDuration":117536,"Delta":258987717},{"NoteNumber":65,"Velocity":45,"Duration":117536,"SoundDuration":117536,"Delta":259105253},{"NoteNumber":55,"Velocity":53,"Duration":117536,"SoundDuration":117536,"Delta":259222790},{"NoteNumber":65,"Velocity":45,"Duration":117536,"SoundDuration":117536,"Delta":259340326},{"NoteNumber":80,"Velocity":78,"Duration":470145,"SoundDuration":470145,"Delta":259457863},{"NoteNumber":62,"Velocity":48,"Duration":117536,"SoundDuration":117536,"Delta":259457863},{"NoteNumber":65,"Velocity":45,"Duration":117536,"SoundDuration":117536,"Delta":259575399},{"NoteNumber":55,"Velocity":53,"Duration":117536,"SoundDuration":117536,"Delta":259692936},{"NoteNumber":62,"Velocity":46,"Duration":117536,"SoundDuration":117536,"Delta":259810472},{"NoteNumber":79,"Velocity":83,"Duration":470145,"SoundDuration":470145,"Delta":259928009},{"NoteNumber":59,"Velocity":48,"Duration":117536,"SoundDuration":117536,"Delta":259928009},{"NoteNumber":62,"Velocity":45,"Duration":117536,"SoundDuration":117536,"Delta":260045545},{"NoteNumber":55,"Velocity":53,"Duration":117536,"SoundDuration":117536,"Delta":260163082},{"NoteNumber":62,"Velocity":45,"Duration":117536,"SoundDuration":117536,"Delta":260280618},{"NoteNumber":77,"Velocity":78,"Duration":230239,"SoundDuration":230239,"Delta":260398155},{"NoteNumber":59,"Velocity":48,"Duration":120124,"SoundDuration":120124,"Delta":260398155},{"NoteNumber":62,"Velocity":45,"Duration":120125,"SoundDuration":120125,"Delta":260518280},{"NoteNumber":77,"Velocity":80,"Duration":240250,"SoundDuration":240250,"Delta":260638405},{"NoteNumber":55,"Velocity":48,"Duration":120124,"SoundDuration":120124,"Delta":260638405},{"NoteNumber":64,"Velocity":39,"Duration":120125,"SoundDuration":120125,"Delta":260758530},{"NoteNumber":76,"Velocity":77,"Duration":240250,"SoundDuration":240250,"Delta":260878655},{"NoteNumber":60,"Velocity":44,"Duration":120124,"SoundDuration":120124,"Delta":260878655},{"NoteNumber":64,"Velocity":39,"Duration":120125,"SoundDuration":120125,"Delta":260998780},{"NoteNumber":75,"Velocity":67,"Duration":480500,"SoundDuration":480500,"Delta":261118905},{"NoteNumber":55,"Velocity":48,"Duration":120124,"SoundDuration":120124,"Delta":261118905},{"NoteNumber":63,"Velocity":41,"Duration":120125,"SoundDuration":120125,"Delta":261239030},{"NoteNumber":60,"Velocity":44,"Duration":120124,"SoundDuration":120124,"Delta":261359155},{"NoteNumber":63,"Velocity":41,"Duration":120125,"SoundDuration":120125,"Delta":261479280},{"NoteNumber":55,"Velocity":48,"Duration":143531,"SoundDuration":143531,"Delta":261599405},{"NoteNumber":75,"Velocity":65,"Duration":140438,"SoundDuration":140438,"Delta":261719530},{"NoteNumber":63,"Velocity":40,"Duration":140438,"SoundDuration":140438,"Delta":261719530},{"NoteNumber":74,"Velocity":68,"Duration":140438,"SoundDuration":140438,"Delta":261836562},{"NoteNumber":60,"Velocity":44,"Duration":140438,"SoundDuration":140438,"Delta":261836562},{"NoteNumber":75,"Velocity":66,"Duration":140438,"SoundDuration":140438,"Delta":261953594},{"NoteNumber":63,"Velocity":38,"Duration":140438,"SoundDuration":140438,"Delta":261953594},{"NoteNumber":77,"Velocity":68,"Duration":140438,"SoundDuration":140438,"Delta":262070626},{"NoteNumber":55,"Velocity":48,"Duration":140438,"SoundDuration":140438,"Delta":262070626},{"NoteNumber":75,"Velocity":66,"Duration":140438,"SoundDuration":140438,"Delta":262187658},{"NoteNumber":63,"Velocity":40,"Duration":140438,"SoundDuration":140438,"Delta":262187658},{"NoteNumber":74,"Velocity":68,"Duration":140438,"SoundDuration":140438,"Delta":262304690},{"NoteNumber":60,"Velocity":45,"Duration":140438,"SoundDuration":140438,"Delta":262304690},{"NoteNumber":75,"Velocity":65,"Duration":140847,"SoundDuration":140847,"Delta":262421722},{"NoteNumber":63,"Velocity":40,"Duration":140847,"SoundDuration":140847,"Delta":262421722},{"NoteNumber":78,"Velocity":77,"Duration":357228,"SoundDuration":357228,"Delta":262538754},{"NoteNumber":54,"Velocity":54,"Duration":119076,"SoundDuration":119076,"Delta":262538754},{"NoteNumber":63,"Velocity":40,"Duration":119076,"SoundDuration":119076,"Delta":262657830},{"NoteNumber":58,"Velocity":44,"Duration":119076,"SoundDuration":119076,"Delta":262776906},{"NoteNumber":75,"Velocity":69,"Duration":106821,"SoundDuration":106821,"Delta":262895982},{"NoteNumber":63,"Velocity":41,"Duration":116532,"SoundDuration":116532,"Delta":262895982},{"NoteNumber":75,"Velocity":65,"Duration":58266,"SoundDuration":58266,"Delta":263012514},{"NoteNumber":54,"Velocity":49,"Duration":116532,"SoundDuration":116532,"Delta":263012514},{"NoteNumber":77,"Velocity":62,"Duration":58266,"SoundDuration":58266,"Delta":263070780},{"NoteNumber":75,"Velocity":65,"Duration":58266,"SoundDuration":58266,"Delta":263129046},{"NoteNumber":63,"Velocity":42,"Duration":116532,"SoundDuration":116532,"Delta":263129046},{"NoteNumber":77,"Velocity":63,"Duration":58266,"SoundDuration":58266,"Delta":263187312},{"NoteNumber":75,"Velocity":66,"Duration":38843,"SoundDuration":38843,"Delta":263245578},{"NoteNumber":58,"Velocity":45,"Duration":116532,"SoundDuration":116532,"Delta":263245578},{"NoteNumber":77,"Velocity":64,"Duration":38843,"SoundDuration":38843,"Delta":263284422},{"NoteNumber":75,"Velocity":64,"Duration":38844,"SoundDuration":38844,"Delta":263323266},{"NoteNumber":74,"Velocity":71,"Duration":58265,"SoundDuration":58265,"Delta":263362110},{"NoteNumber":63,"Velocity":40,"Duration":116531,"SoundDuration":116531,"Delta":263362110},{"NoteNumber":75,"Velocity":69,"Duration":58266,"SoundDuration":58266,"Delta":263420376},{"NoteNumber":82,"Velocity":78,"Duration":357228,"SoundDuration":357228,"Delta":263478642},{"NoteNumber":54,"Velocity":54,"Duration":119076,"SoundDuration":119076,"Delta":263478642},{"NoteNumber":63,"Velocity":42,"Duration":119076,"SoundDuration":119076,"Delta":263597718},{"NoteNumber":58,"Velocity":45,"Duration":119076,"SoundDuration":119076,"Delta":263716794},{"NoteNumber":75,"Velocity":68,"Duration":106821,"SoundDuration":106821,"Delta":263835870},{"NoteNumber":63,"Velocity":42,"Duration":116532,"SoundDuration":116532,"Delta":263835870},{"NoteNumber":75,"Velocity":64,"Duration":58266,"SoundDuration":58266,"Delta":263952402},{"NoteNumber":54,"Velocity":48,"Duration":116532,"SoundDuration":116532,"Delta":263952402},{"NoteNumber":77,"Velocity":62,"Duration":58266,"SoundDuration":58266,"Delta":264010668},{"NoteNumber":75,"Velocity":64,"Duration":58266,"SoundDuration":58266,"Delta":264068934},{"NoteNumber":63,"Velocity":40,"Duration":116532,"SoundDuration":116532,"Delta":264068934},{"NoteNumber":77,"Velocity":62,"Duration":58266,"SoundDuration":58266,"Delta":264127200},{"NoteNumber":75,"Velocity":64,"Duration":38843,"SoundDuration":38843,"Delta":264185466},{"NoteNumber":58,"Velocity":45,"Duration":116532,"SoundDuration":116532,"Delta":264185466},{"NoteNumber":77,"Velocity":63,"Duration":38843,"SoundDuration":38843,"Delta":264224310},{"NoteNumber":75,"Velocity":63,"Duration":38844,"SoundDuration":38844,"Delta":264263154},{"NoteNumber":74,"Velocity":71,"Duration":58265,"SoundDuration":58265,"Delta":264301998},{"NoteNumber":63,"Velocity":40,"Duration":116531,"SoundDuration":116531,"Delta":264301998},{"NoteNumber":75,"Velocity":68,"Duration":58266,"SoundDuration":58266,"Delta":264360264},{"NoteNumber":81,"Velocity":81,"Duration":118045,"SoundDuration":118045,"Delta":264418530},{"NoteNumber":53,"Velocity":49,"Duration":118045,"SoundDuration":118045,"Delta":264418530},{"NoteNumber":63,"Velocity":40,"Duration":118045,"SoundDuration":118045,"Delta":264536575},{"NoteNumber":84,"Velocity":85,"Duration":118045,"SoundDuration":118045,"Delta":264654620},{"NoteNumber":60,"Velocity":45,"Duration":118045,"SoundDuration":118045,"Delta":264654620},{"NoteNumber":63,"Velocity":41,"Duration":118045,"SoundDuration":118045,"Delta":264772666},{"NoteNumber":87,"Velocity":89,"Duration":588713,"SoundDuration":588713,"Delta":264890711},{"NoteNumber":53,"Velocity":50,"Duration":118045,"SoundDuration":118045,"Delta":264890711},{"NoteNumber":63,"Velocity":42,"Duration":118045,"SoundDuration":118045,"Delta":265008756},{"NoteNumber":60,"Velocity":45,"Duration":118045,"SoundDuration":118045,"Delta":265126801},{"NoteNumber":63,"Velocity":40,"Duration":118045,"SoundDuration":118045,"Delta":265244847},{"NoteNumber":53,"Velocity":50,"Duration":139838,"SoundDuration":139838,"Delta":265362892},{"NoteNumber":89,"Velocity":71,"Duration":139838,"SoundDuration":139838,"Delta":265479424},{"NoteNumber":63,"Velocity":43,"Duration":139838,"SoundDuration":139838,"Delta":265479424},{"NoteNumber":86,"Velocity":77,"Duration":139838,"SoundDuration":139838,"Delta":265595956},{"NoteNumber":60,"Velocity":48,"Duration":139838,"SoundDuration":139838,"Delta":265595956},{"NoteNumber":87,"Velocity":71,"Duration":139838,"SoundDuration":139838,"Delta":265712488},{"NoteNumber":63,"Velocity":43,"Duration":139838,"SoundDuration":139838,"Delta":265712488},{"NoteNumber":84,"Velocity":77,"Duration":139838,"SoundDuration":139838,"Delta":265829020},{"NoteNumber":53,"Velocity":54,"Duration":139838,"SoundDuration":139838,"Delta":265829020},{"NoteNumber":86,"Velocity":71,"Duration":139838,"SoundDuration":139838,"Delta":265945552},{"NoteNumber":63,"Velocity":45,"Duration":139838,"SoundDuration":139838,"Delta":265945552},{"NoteNumber":82,"Velocity":77,"Duration":139838,"SoundDuration":139838,"Delta":266062084},{"NoteNumber":60,"Velocity":48,"Duration":139838,"SoundDuration":139838,"Delta":266062084},{"NoteNumber":84,"Velocity":71,"Duration":139838,"SoundDuration":139838,"Delta":266178616},{"NoteNumber":63,"Velocity":45,"Duration":139838,"SoundDuration":139838,"Delta":266178616},{"NoteNumber":81,"Velocity":72,"Duration":139838,"SoundDuration":139838,"Delta":266295148},{"NoteNumber":53,"Velocity":54,"Duration":139838,"SoundDuration":139838,"Delta":266295148},{"NoteNumber":82,"Velocity":73,"Duration":139838,"SoundDuration":139838,"Delta":266411680},{"NoteNumber":63,"Velocity":45,"Duration":139838,"SoundDuration":139838,"Delta":266411680},{"NoteNumber":84,"Velocity":77,"Duration":139838,"SoundDuration":139838,"Delta":266528212},{"NoteNumber":60,"Velocity":48,"Duration":139838,"SoundDuration":139838,"Delta":266528212},{"NoteNumber":82,"Velocity":72,"Duration":139739,"SoundDuration":139739,"Delta":266644744},{"NoteNumber":63,"Velocity":44,"Duration":139739,"SoundDuration":139739,"Delta":266644744},{"NoteNumber":81,"Velocity":71,"Duration":139524,"SoundDuration":139524,"Delta":266761276},{"NoteNumber":53,"Velocity":54,"Duration":139524,"SoundDuration":139524,"Delta":266761276},{"NoteNumber":82,"Velocity":72,"Duration":140540,"SoundDuration":140540,"Delta":266877477},{"NoteNumber":63,"Velocity":45,"Duration":140540,"SoundDuration":140540,"Delta":266877477},{"NoteNumber":84,"Velocity":73,"Duration":141587,"SoundDuration":141587,"Delta":266994510},{"NoteNumber":60,"Velocity":48,"Duration":141587,"SoundDuration":141587,"Delta":266994510},{"NoteNumber":86,"Velocity":70,"Duration":142736,"SoundDuration":142736,"Delta":267112386},{"NoteNumber":63,"Velocity":44,"Duration":142736,"SoundDuration":142736,"Delta":267112386},{"NoteNumber":87,"Velocity":75,"Duration":143517,"SoundDuration":143517,"Delta":267231203},{"NoteNumber":53,"Velocity":52,"Duration":143517,"SoundDuration":143517,"Delta":267231203},{"NoteNumber":86,"Velocity":70,"Duration":143065,"SoundDuration":143065,"Delta":267350801},{"NoteNumber":60,"Velocity":44,"Duration":143065,"SoundDuration":143065,"Delta":267350801},{"NoteNumber":84,"Velocity":72,"Duration":142615,"SoundDuration":142615,"Delta":267470051},{"NoteNumber":57,"Velocity":48,"Duration":142615,"SoundDuration":142615,"Delta":267470051},{"NoteNumber":82,"Velocity":72,"Duration":142167,"SoundDuration":142167,"Delta":267588955},{"NoteNumber":60,"Velocity":44,"Duration":142167,"SoundDuration":142167,"Delta":267588955},{"NoteNumber":81,"Velocity":71,"Duration":141654,"SoundDuration":141654,"Delta":267707513},{"NoteNumber":53,"Velocity":53,"Duration":141654,"SoundDuration":141654,"Delta":267707513},{"NoteNumber":79,"Velocity":70,"Duration":141213,"SoundDuration":141213,"Delta":267825558},{"NoteNumber":60,"Velocity":44,"Duration":141213,"SoundDuration":141213,"Delta":267825558},{"NoteNumber":77,"Velocity":69,"Duration":140774,"SoundDuration":140774,"Delta":267943264},{"NoteNumber":57,"Velocity":47,"Duration":140774,"SoundDuration":140774,"Delta":267943264},{"NoteNumber":75,"Velocity":68,"Duration":106304,"SoundDuration":106304,"Delta":268060633},{"NoteNumber":60,"Velocity":44,"Duration":141378,"SoundDuration":141378,"Delta":268060633},{"NoteNumber":75,"Velocity":68,"Duration":60866,"SoundDuration":60866,"Delta":268177665},{"NoteNumber":54,"Velocity":44,"Duration":121733,"SoundDuration":121733,"Delta":268177665},{"NoteNumber":77,"Velocity":64,"Duration":60866,"SoundDuration":60866,"Delta":268238531},{"NoteNumber":75,"Velocity":65,"Duration":40577,"SoundDuration":40577,"Delta":268299398},{"NoteNumber":60,"Velocity":39,"Duration":121733,"SoundDuration":121733,"Delta":268299398},{"NoteNumber":77,"Velocity":63,"Duration":40577,"SoundDuration":40577,"Delta":268339976},{"NoteNumber":75,"Velocity":63,"Duration":40577,"SoundDuration":40577,"Delta":268380554},{"NoteNumber":74,"Velocity":68,"Duration":239196,"SoundDuration":239196,"Delta":268421132},{"NoteNumber":57,"Velocity":40,"Duration":143517,"SoundDuration":143517,"Delta":268421132},{"NoteNumber":60,"Velocity":35,"Duration":143517,"SoundDuration":143517,"Delta":268540730},{"NoteNumber":74,"Velocity":68,"Duration":717589,"SoundDuration":717589,"Delta":268660328},{"NoteNumber":54,"Velocity":44,"Duration":119598,"SoundDuration":119598,"Delta":268660328},{"NoteNumber":60,"Velocity":33,"Duration":119598,"SoundDuration":119598,"Delta":268779926},{"NoteNumber":57,"Velocity":39,"Duration":119598,"SoundDuration":119598,"Delta":268899525},{"NoteNumber":60,"Velocity":34,"Duration":119598,"SoundDuration":119598,"Delta":269019123},{"NoteNumber":54,"Velocity":44,"Duration":119598,"SoundDuration":119598,"Delta":269138721},{"NoteNumber":60,"Velocity":33,"Duration":119598,"SoundDuration":119598,"Delta":269258319},{"NoteNumber":74,"Velocity":72,"Duration":239196,"SoundDuration":239196,"Delta":269377918},{"NoteNumber":57,"Velocity":39,"Duration":119598,"SoundDuration":119598,"Delta":269377918},{"NoteNumber":60,"Velocity":33,"Duration":119598,"SoundDuration":119598,"Delta":269497516},{"NoteNumber":86,"Velocity":81,"Duration":239196,"SoundDuration":239196,"Delta":269617114},{"NoteNumber":54,"Velocity":44,"Duration":119598,"SoundDuration":119598,"Delta":269617114},{"NoteNumber":62,"Velocity":35,"Duration":119598,"SoundDuration":119598,"Delta":269736712},{"NoteNumber":84,"Velocity":77,"Duration":478392,"SoundDuration":478392,"Delta":269856311},{"NoteNumber":57,"Velocity":39,"Duration":119598,"SoundDuration":119598,"Delta":269856311},{"NoteNumber":62,"Velocity":34,"Duration":119598,"SoundDuration":119598,"Delta":269975909},{"NoteNumber":55,"Velocity":48,"Duration":119598,"SoundDuration":119598,"Delta":270095507},{"NoteNumber":62,"Velocity":39,"Duration":119598,"SoundDuration":119598,"Delta":270215105},{"NoteNumber":82,"Velocity":78,"Duration":478393,"SoundDuration":478393,"Delta":270334704},{"NoteNumber":58,"Velocity":44,"Duration":119598,"SoundDuration":119598,"Delta":270334704},{"NoteNumber":62,"Velocity":39,"Duration":119598,"SoundDuration":119598,"Delta":270454302},{"NoteNumber":53,"Velocity":48,"Duration":119598,"SoundDuration":119598,"Delta":270573900},{"NoteNumber":62,"Velocity":38,"Duration":119598,"SoundDuration":119598,"Delta":270693498},{"NoteNumber":81,"Velocity":77,"Duration":355728,"SoundDuration":355728,"Delta":270813097},{"NoteNumber":57,"Velocity":44,"Duration":119598,"SoundDuration":119598,"Delta":270813097},{"NoteNumber":62,"Velocity":38,"Duration":119598,"SoundDuration":119598,"Delta":270932695},{"NoteNumber":52,"Velocity":48,"Duration":139838,"SoundDuration":139838,"Delta":271052293},{"NoteNumber":79,"Velocity":70,"Duration":139838,"SoundDuration":139838,"Delta":271168825},{"NoteNumber":62,"Velocity":38,"Duration":139838,"SoundDuration":139838,"Delta":271168825},{"NoteNumber":82,"Velocity":73,"Duration":139838,"SoundDuration":139838,"Delta":271285357},{"NoteNumber":55,"Velocity":44,"Duration":139838,"SoundDuration":139838,"Delta":271285357},{"NoteNumber":81,"Velocity":70,"Duration":139838,"SoundDuration":139838,"Delta":271401889},{"NoteNumber":62,"Velocity":37,"Duration":139838,"SoundDuration":139838,"Delta":271401889},{"NoteNumber":84,"Velocity":73,"Duration":139838,"SoundDuration":139838,"Delta":271518421},{"NoteNumber":51,"Velocity":48,"Duration":139838,"SoundDuration":139838,"Delta":271518421},{"NoteNumber":82,"Velocity":69,"Duration":139838,"SoundDuration":139838,"Delta":271634953},{"NoteNumber":61,"Velocity":38,"Duration":139838,"SoundDuration":139838,"Delta":271634953},{"NoteNumber":81,"Velocity":73,"Duration":139838,"SoundDuration":139838,"Delta":271751485},{"NoteNumber":55,"Velocity":44,"Duration":139838,"SoundDuration":139838,"Delta":271751485},{"NoteNumber":79,"Velocity":67,"Duration":139838,"SoundDuration":139838,"Delta":271868017},{"NoteNumber":61,"Velocity":39,"Duration":139838,"SoundDuration":139838,"Delta":271868017},{"NoteNumber":78,"Velocity":71,"Duration":58266,"SoundDuration":58266,"Delta":271984549},{"NoteNumber":50,"Velocity":38,"Duration":475326,"SoundDuration":475326,"Delta":271984549},{"NoteNumber":62,"Velocity":38,"Duration":475326,"SoundDuration":475326,"Delta":271984549},{"NoteNumber":74,"Velocity":58,"Duration":119598,"SoundDuration":119598,"Delta":272101081},{"NoteNumber":86,"Velocity":57,"Duration":119598,"SoundDuration":119598,"Delta":272220679},{"NoteNumber":85,"Velocity":57,"Duration":119598,"SoundDuration":119598,"Delta":272340278},{"NoteNumber":86,"Velocity":56,"Duration":119598,"SoundDuration":119598,"Delta":272459876},{"NoteNumber":85,"Velocity":56,"Duration":119598,"SoundDuration":119598,"Delta":272579474},{"NoteNumber":86,"Velocity":57,"Duration":119598,"SoundDuration":119598,"Delta":272699072},{"NoteNumber":85,"Velocity":58,"Duration":119598,"SoundDuration":119598,"Delta":272818671},{"NoteNumber":86,"Velocity":59,"Duration":116532,"SoundDuration":116532,"Delta":272938269},{"NoteNumber":87,"Velocity":59,"Duration":116532,"SoundDuration":116532,"Delta":273054801},{"NoteNumber":84,"Velocity":60,"Duration":116532,"SoundDuration":116532,"Delta":273171333},{"NoteNumber":86,"Velocity":58,"Duration":116532,"SoundDuration":116532,"Delta":273287865},{"NoteNumber":82,"Velocity":62,"Duration":116531,"SoundDuration":116531,"Delta":273404397},{"NoteNumber":62,"Velocity":45,"Duration":466127,"SoundDuration":466127,"Delta":273404397},{"NoteNumber":66,"Velocity":45,"Duration":466127,"SoundDuration":466127,"Delta":273404397},{"NoteNumber":84,"Velocity":60,"Duration":116532,"SoundDuration":116532,"Delta":273520929},{"NoteNumber":81,"Velocity":63,"Duration":116532,"SoundDuration":116532,"Delta":273637461},{"NoteNumber":82,"Velocity":61,"Duration":116532,"SoundDuration":116532,"Delta":273753993},{"NoteNumber":79,"Velocity":64,"Duration":139838,"SoundDuration":139838,"Delta":273870525},{"NoteNumber":63,"Velocity":45,"Duration":467128,"SoundDuration":467128,"Delta":273870525},{"NoteNumber":67,"Velocity":45,"Duration":467128,"SoundDuration":467128,"Delta":273870525},{"NoteNumber":81,"Velocity":63,"Duration":139938,"SoundDuration":139938,"Delta":273987057},{"NoteNumber":77,"Velocity":66,"Duration":140438,"SoundDuration":140438,"Delta":274103589},{"NoteNumber":79,"Velocity":63,"Duration":140539,"SoundDuration":140539,"Delta":274220621},{"NoteNumber":75,"Velocity":67,"Duration":141043,"SoundDuration":141043,"Delta":274337653},{"NoteNumber":77,"Velocity":62,"Duration":141145,"SoundDuration":141145,"Delta":274455189},{"NoteNumber":74,"Velocity":69,"Duration":141654,"SoundDuration":141654,"Delta":274572726},{"NoteNumber":75,"Velocity":64,"Duration":141756,"SoundDuration":141756,"Delta":274690771},{"NoteNumber":73,"Velocity":70,"Duration":118558,"SoundDuration":118558,"Delta":274808816},{"NoteNumber":82,"Velocity":69,"Duration":242385,"SoundDuration":242385,"Delta":275045933},{"NoteNumber":81,"Velocity":70,"Duration":242385,"SoundDuration":242385,"Delta":275288318},{"NoteNumber":51,"Velocity":54,"Duration":484769,"SoundDuration":484769,"Delta":275288318},{"NoteNumber":61,"Velocity":54,"Duration":484769,"SoundDuration":484769,"Delta":275288318},{"NoteNumber":79,"Velocity":68,"Duration":242384,"SoundDuration":242384,"Delta":275530703},{"NoteNumber":78,"Velocity":71,"Duration":60596,"SoundDuration":60596,"Delta":275773088},{"NoteNumber":50,"Velocity":49,"Duration":481567,"SoundDuration":481567,"Delta":275773088},{"NoteNumber":62,"Velocity":49,"Duration":481567,"SoundDuration":481567,"Delta":275773088},{"NoteNumber":73,"Velocity":52,"Duration":120124,"SoundDuration":120124,"Delta":275894280},{"NoteNumber":74,"Velocity":57,"Duration":120125,"SoundDuration":120125,"Delta":276014405},{"NoteNumber":73,"Velocity":52,"Duration":120124,"SoundDuration":120124,"Delta":276134530},{"NoteNumber":74,"Velocity":57,"Duration":120125,"SoundDuration":120125,"Delta":276254655},{"NoteNumber":73,"Velocity":53,"Duration":120124,"SoundDuration":120124,"Delta":276374780},{"NoteNumber":74,"Velocity":57,"Duration":120125,"SoundDuration":120125,"Delta":276494905},{"NoteNumber":73,"Velocity":53,"Duration":120124,"SoundDuration":120124,"Delta":276615030},{"NoteNumber":74,"Velocity":54,"Duration":116532,"SoundDuration":116532,"Delta":276735155},{"NoteNumber":75,"Velocity":51,"Duration":116532,"SoundDuration":116532,"Delta":276851687},{"NoteNumber":72,"Velocity":53,"Duration":116532,"SoundDuration":116532,"Delta":276968219},{"NoteNumber":74,"Velocity":49,"Duration":116532,"SoundDuration":116532,"Delta":277084751},{"NoteNumber":70,"Velocity":52,"Duration":116531,"SoundDuration":116531,"Delta":277201283},{"NoteNumber":50,"Velocity":45,"Duration":466127,"SoundDuration":466127,"Delta":277201283},{"NoteNumber":60,"Velocity":45,"Duration":466127,"SoundDuration":466127,"Delta":277201283},{"NoteNumber":72,"Velocity":49,"Duration":116532,"SoundDuration":116532,"Delta":277317815},{"NoteNumber":69,"Velocity":50,"Duration":116532,"SoundDuration":116532,"Delta":277434347},{"NoteNumber":70,"Velocity":46,"Duration":116532,"SoundDuration":116532,"Delta":277550879},{"NoteNumber":67,"Velocity":48,"Duration":139342,"SoundDuration":139342,"Delta":277667411},{"NoteNumber":51,"Velocity":42,"Duration":467390,"SoundDuration":467390,"Delta":277667411},{"NoteNumber":58,"Velocity":42,"Duration":467390,"SoundDuration":467390,"Delta":277667411},{"NoteNumber":69,"Velocity":46,"Duration":139855,"SoundDuration":139855,"Delta":277783530},{"NoteNumber":65,"Velocity":46,"Duration":140623,"SoundDuration":140623,"Delta":277899980},{"NoteNumber":67,"Velocity":45,"Duration":141315,"SoundDuration":141315,"Delta":278017096},{"NoteNumber":63,"Velocity":45,"Duration":141927,"SoundDuration":141927,"Delta":278134802},{"NoteNumber":65,"Velocity":44,"Duration":142632,"SoundDuration":142632,"Delta":278253018},{"NoteNumber":62,"Velocity":43,"Duration":143361,"SoundDuration":143361,"Delta":278371835},{"NoteNumber":63,"Velocity":42,"Duration":144168,"SoundDuration":144168,"Delta":278491259},{"NoteNumber":61,"Velocity":41,"Duration":120656,"SoundDuration":120656,"Delta":278611296},{"NoteNumber":67,"Velocity":41,"Duration":241312,"SoundDuration":241312,"Delta":278852609},{"NoteNumber":70,"Velocity":45,"Duration":241312,"SoundDuration":241312,"Delta":279093921},{"NoteNumber":51,"Velocity":32,"Duration":482625,"SoundDuration":482625,"Delta":279093921},{"NoteNumber":55,"Velocity":32,"Duration":482625,"SoundDuration":482625,"Delta":279093921},{"NoteNumber":61,"Velocity":42,"Duration":241312,"SoundDuration":241312,"Delta":279335234},{"NoteNumber":62,"Velocity":39,"Duration":118558,"SoundDuration":118558,"Delta":279576546},{"NoteNumber":50,"Velocity":24,"Duration":237116,"SoundDuration":237116,"Delta":279576546},{"NoteNumber":54,"Velocity":24,"Duration":237116,"SoundDuration":237116,"Delta":279576546},{"NoteNumber":74,"Velocity":46,"Duration":123385,"SoundDuration":123385,"Delta":279813663},{"NoteNumber":50,"Velocity":27,"Duration":246771,"SoundDuration":246771,"Delta":280060434},{"NoteNumber":55,"Velocity":27,"Duration":246771,"SoundDuration":246771,"Delta":280060434},{"NoteNumber":58,"Velocity":27,"Duration":246771,"SoundDuration":246771,"Delta":280060434},{"NoteNumber":74,"Velocity":49,"Duration":237116,"SoundDuration":237116,"Delta":280307206},{"NoteNumber":50,"Velocity":28,"Duration":237116,"SoundDuration":237116,"Delta":280544322},{"NoteNumber":54,"Velocity":28,"Duration":237116,"SoundDuration":237116,"Delta":280544322},{"NoteNumber":57,"Velocity":28,"Duration":237116,"SoundDuration":237116,"Delta":280544322},{"NoteNumber":74,"Velocity":46,"Duration":238152,"SoundDuration":238152,"Delta":280781439},{"NoteNumber":50,"Velocity":32,"Duration":238152,"SoundDuration":238152,"Delta":281019591},{"NoteNumber":55,"Velocity":32,"Duration":238152,"SoundDuration":238152,"Delta":281019591},{"NoteNumber":58,"Velocity":32,"Duration":238152,"SoundDuration":238152,"Delta":281019591},{"NoteNumber":74,"Velocity":48,"Duration":238151,"SoundDuration":238151,"Delta":281257743},{"NoteNumber":50,"Velocity":34,"Duration":474242,"SoundDuration":474242,"Delta":281495895},{"NoteNumber":54,"Velocity":34,"Duration":474242,"SoundDuration":474242,"Delta":281495895},{"NoteNumber":57,"Velocity":34,"Duration":474242,"SoundDuration":474242,"Delta":281495895},{"NoteNumber":74,"Velocity":43,"Duration":236090,"SoundDuration":236090,"Delta":281734047},{"NoteNumber":73,"Velocity":46,"Duration":237116,"SoundDuration":237116,"Delta":281970137},{"NoteNumber":74,"Velocity":49,"Duration":238152,"SoundDuration":238152,"Delta":282207254},{"NoteNumber":73,"Velocity":53,"Duration":239196,"SoundDuration":239196,"Delta":282445406},{"NoteNumber":74,"Velocity":56,"Duration":240250,"SoundDuration":240250,"Delta":282684602},{"NoteNumber":73,"Velocity":60,"Duration":241312,"SoundDuration":241312,"Delta":282924852},{"NoteNumber":74,"Velocity":63,"Duration":242475,"SoundDuration":242475,"Delta":283166165},{"NoteNumber":77,"Velocity":66,"Duration":486933,"SoundDuration":486933,"Delta":283408640},{"NoteNumber":60,"Velocity":30,"Duration":243467,"SoundDuration":243467,"Delta":283652107},{"NoteNumber":65,"Velocity":30,"Duration":243467,"SoundDuration":243467,"Delta":283652107},{"NoteNumber":69,"Velocity":34,"Duration":243467,"SoundDuration":243467,"Delta":283652107},{"NoteNumber":75,"Velocity":64,"Duration":486934,"SoundDuration":486934,"Delta":283895574},{"NoteNumber":60,"Velocity":33,"Duration":243467,"SoundDuration":243467,"Delta":283895574},{"NoteNumber":65,"Velocity":33,"Duration":243467,"SoundDuration":243467,"Delta":283895574},{"NoteNumber":69,"Velocity":37,"Duration":243467,"SoundDuration":243467,"Delta":283895574},{"NoteNumber":60,"Velocity":36,"Duration":243467,"SoundDuration":243467,"Delta":284139041},{"NoteNumber":65,"Velocity":36,"Duration":243467,"SoundDuration":243467,"Delta":284139041},{"NoteNumber":69,"Velocity":40,"Duration":243467,"SoundDuration":243467,"Delta":284139041},{"NoteNumber":60,"Velocity":39,"Duration":482817,"SoundDuration":482817,"Delta":284382508},{"NoteNumber":65,"Velocity":39,"Duration":482817,"SoundDuration":482817,"Delta":284382508},{"NoteNumber":69,"Velocity":44,"Duration":482817,"SoundDuration":482817,"Delta":284382508},{"NoteNumber":75,"Velocity":53,"Duration":120656,"SoundDuration":120656,"Delta":284504242},{"NoteNumber":74,"Velocity":56,"Duration":120390,"SoundDuration":120390,"Delta":284624898},{"NoteNumber":75,"Velocity":53,"Duration":120037,"SoundDuration":120037,"Delta":284745289},{"NoteNumber":77,"Velocity":56,"Duration":119598,"SoundDuration":119598,"Delta":284865326},{"NoteNumber":75,"Velocity":54,"Duration":119250,"SoundDuration":119250,"Delta":284984924},{"NoteNumber":74,"Velocity":56,"Duration":119075,"SoundDuration":119075,"Delta":285104174},{"NoteNumber":75,"Velocity":53,"Duration":128018,"SoundDuration":128018,"Delta":285223250},{"NoteNumber":82,"Velocity":70,"Duration":484770,"SoundDuration":484770,"Delta":285351269},{"NoteNumber":65,"Velocity":32,"Duration":242385,"SoundDuration":242385,"Delta":285593654},{"NoteNumber":72,"Velocity":32,"Duration":242385,"SoundDuration":242385,"Delta":285593654},{"NoteNumber":75,"Velocity":36,"Duration":242385,"SoundDuration":242385,"Delta":285593654},{"NoteNumber":81,"Velocity":66,"Duration":484769,"SoundDuration":484769,"Delta":285836039},{"NoteNumber":65,"Velocity":36,"Duration":242384,"SoundDuration":242384,"Delta":285836039},{"NoteNumber":72,"Velocity":36,"Duration":242384,"SoundDuration":242384,"Delta":285836039},{"NoteNumber":75,"Velocity":40,"Duration":242384,"SoundDuration":242384,"Delta":285836039},{"NoteNumber":65,"Velocity":39,"Duration":242385,"SoundDuration":242385,"Delta":286078424},{"NoteNumber":72,"Velocity":39,"Duration":242385,"SoundDuration":242385,"Delta":286078424},{"NoteNumber":75,"Velocity":44,"Duration":242385,"SoundDuration":242385,"Delta":286078424},{"NoteNumber":65,"Velocity":42,"Duration":478420,"SoundDuration":478420,"Delta":286320809},{"NoteNumber":72,"Velocity":42,"Duration":478420,"SoundDuration":478420,"Delta":286320809},{"NoteNumber":75,"Velocity":47,"Duration":478420,"SoundDuration":478420,"Delta":286320809},{"NoteNumber":81,"Velocity":61,"Duration":119076,"SoundDuration":119076,"Delta":286442002},{"NoteNumber":79,"Velocity":63,"Duration":119076,"SoundDuration":119076,"Delta":286561078},{"NoteNumber":81,"Velocity":61,"Duration":119076,"SoundDuration":119076,"Delta":286680154},{"NoteNumber":82,"Velocity":63,"Duration":119076,"SoundDuration":119076,"Delta":286799230},{"NoteNumber":81,"Velocity":61,"Duration":119075,"SoundDuration":119075,"Delta":286918306},{"NoteNumber":79,"Velocity":63,"Duration":119076,"SoundDuration":119076,"Delta":287037382},{"NoteNumber":81,"Velocity":61,"Duration":128623,"SoundDuration":128623,"Delta":287156458},{"NoteNumber":89,"Velocity":77,"Duration":484770,"SoundDuration":484770,"Delta":287285081},{"NoteNumber":65,"Velocity":47,"Duration":242385,"SoundDuration":242385,"Delta":287527466},{"NoteNumber":87,"Velocity":75,"Duration":484769,"SoundDuration":484769,"Delta":287769851},{"NoteNumber":72,"Velocity":45,"Duration":242384,"SoundDuration":242384,"Delta":287769851},{"NoteNumber":75,"Velocity":45,"Duration":242385,"SoundDuration":242385,"Delta":288012236},{"NoteNumber":66,"Velocity":47,"Duration":965986,"SoundDuration":965986,"Delta":288254621},{"NoteNumber":87,"Velocity":66,"Duration":122830,"SoundDuration":122830,"Delta":288375813},{"NoteNumber":86,"Velocity":68,"Duration":122829,"SoundDuration":122829,"Delta":288498643},{"NoteNumber":87,"Velocity":65,"Duration":122830,"SoundDuration":122830,"Delta":288621473},{"NoteNumber":89,"Velocity":68,"Duration":119076,"SoundDuration":119076,"Delta":288744303},{"NoteNumber":87,"Velocity":65,"Duration":119076,"SoundDuration":119076,"Delta":288863379},{"NoteNumber":85,"Velocity":68,"Duration":119076,"SoundDuration":119076,"Delta":288982455},{"NoteNumber":84,"Velocity":65,"Duration":119076,"SoundDuration":119076,"Delta":289101531},{"NoteNumber":82,"Velocity":77,"Duration":484770,"SoundDuration":484770,"Delta":289220607},{"NoteNumber":65,"Velocity":38,"Duration":242385,"SoundDuration":242385,"Delta":289462992},{"NoteNumber":81,"Velocity":69,"Duration":484769,"SoundDuration":484769,"Delta":289705377},{"NoteNumber":72,"Velocity":41,"Duration":242384,"SoundDuration":242384,"Delta":289705377},{"NoteNumber":75,"Velocity":37,"Duration":242385,"SoundDuration":242385,"Delta":289947762},{"NoteNumber":66,"Velocity":49,"Duration":954724,"SoundDuration":954724,"Delta":290190147},{"NoteNumber":87,"Velocity":67,"Duration":142891,"SoundDuration":142891,"Delta":290311340},{"NoteNumber":86,"Velocity":69,"Duration":142891,"SoundDuration":142891,"Delta":290430416},{"NoteNumber":87,"Velocity":66,"Duration":142891,"SoundDuration":142891,"Delta":290549492},{"NoteNumber":89,"Velocity":70,"Duration":142891,"SoundDuration":142891,"Delta":290668568},{"NoteNumber":87,"Velocity":67,"Duration":142891,"SoundDuration":142891,"Delta":290787644},{"NoteNumber":85,"Velocity":68,"Duration":142891,"SoundDuration":142891,"Delta":290906720},{"NoteNumber":84,"Velocity":67,"Duration":119076,"SoundDuration":119076,"Delta":291025796},{"NoteNumber":82,"Velocity":66,"Duration":143641,"SoundDuration":143641,"Delta":291144872},{"NoteNumber":65,"Velocity":46,"Duration":241906,"SoundDuration":241906,"Delta":291144872},{"NoteNumber":81,"Velocity":65,"Duration":146541,"SoundDuration":146541,"Delta":291263948},{"NoteNumber":87,"Velocity":69,"Duration":142269,"SoundDuration":142269,"Delta":291386778},{"NoteNumber":86,"Velocity":66,"Duration":142269,"SoundDuration":142269,"Delta":291505336},{"NoteNumber":89,"Velocity":71,"Duration":142269,"SoundDuration":142269,"Delta":291623894},{"NoteNumber":66,"Velocity":52,"Duration":474232,"SoundDuration":474232,"Delta":291623894},{"NoteNumber":72,"Velocity":52,"Duration":952187,"SoundDuration":952187,"Delta":291623894},{"NoteNumber":75,"Velocity":52,"Duration":952187,"SoundDuration":952187,"Delta":291623894},{"NoteNumber":87,"Velocity":68,"Duration":142269,"SoundDuration":142269,"Delta":291742452},{"NoteNumber":85,"Velocity":69,"Duration":142269,"SoundDuration":142269,"Delta":291861011},{"NoteNumber":84,"Velocity":67,"Duration":142269,"SoundDuration":142269,"Delta":291979569},{"NoteNumber":82,"Velocity":66,"Duration":143014,"SoundDuration":143014,"Delta":292098127},{"NoteNumber":65,"Velocity":49,"Duration":477954,"SoundDuration":477954,"Delta":292098127},{"NoteNumber":81,"Velocity":65,"Duration":145990,"SoundDuration":145990,"Delta":292216685},{"NoteNumber":87,"Velocity":70,"Duration":142269,"SoundDuration":142269,"Delta":292338965},{"NoteNumber":86,"Velocity":67,"Duration":142269,"SoundDuration":142269,"Delta":292457523},{"NoteNumber":89,"Velocity":71,"Duration":142269,"SoundDuration":142269,"Delta":292576081},{"NoteNumber":72,"Velocity":53,"Duration":951641,"SoundDuration":951641,"Delta":292576081},{"NoteNumber":75,"Velocity":53,"Duration":951641,"SoundDuration":951641,"Delta":292576081},{"NoteNumber":66,"Velocity":53,"Duration":474232,"SoundDuration":474232,"Delta":292576081},{"NoteNumber":87,"Velocity":68,"Duration":142269,"SoundDuration":142269,"Delta":292694639},{"NoteNumber":85,"Velocity":70,"Duration":142269,"SoundDuration":142269,"Delta":292813198},{"NoteNumber":84,"Velocity":69,"Duration":118558,"SoundDuration":118558,"Delta":292931756},{"NoteNumber":82,"Velocity":68,"Duration":142904,"SoundDuration":142904,"Delta":293050314},{"NoteNumber":65,"Velocity":50,"Duration":477408,"SoundDuration":477408,"Delta":293050314},{"NoteNumber":81,"Velocity":67,"Duration":145445,"SoundDuration":145445,"Delta":293168872},{"NoteNumber":84,"Velocity":68,"Duration":142269,"SoundDuration":142269,"Delta":293290606},{"NoteNumber":83,"Velocity":64,"Duration":142583,"SoundDuration":142583,"Delta":293409164},{"NoteNumber":86,"Velocity":68,"Duration":144150,"SoundDuration":144150,"Delta":293527722},{"NoteNumber":84,"Velocity":67,"Duration":144150,"SoundDuration":144150,"Delta":293647847},{"NoteNumber":82,"Velocity":65,"Duration":144150,"SoundDuration":144150,"Delta":293767972},{"NoteNumber":81,"Velocity":63,"Duration":144150,"SoundDuration":144150,"Delta":293888097},{"NoteNumber":79,"Velocity":63,"Duration":145027,"SoundDuration":145027,"Delta":294008222},{"NoteNumber":77,"Velocity":61,"Duration":148858,"SoundDuration":148858,"Delta":294128347},{"NoteNumber":79,"Velocity":59,"Duration":146080,"SoundDuration":146080,"Delta":294252860},{"NoteNumber":78,"Velocity":58,"Duration":146080,"SoundDuration":146080,"Delta":294374593},{"NoteNumber":81,"Velocity":59,"Duration":146080,"SoundDuration":146080,"Delta":294496327},{"NoteNumber":79,"Velocity":57,"Duration":145653,"SoundDuration":145653,"Delta":294618060},{"NoteNumber":77,"Velocity":56,"Duration":143517,"SoundDuration":143517,"Delta":294739794},{"NoteNumber":75,"Velocity":54,"Duration":119598,"SoundDuration":119598,"Delta":294859392},{"NoteNumber":74,"Velocity":52,"Duration":244558,"SoundDuration":244558,"Delta":294978990},{"NoteNumber":72,"Velocity":52,"Duration":250166,"SoundDuration":250166,"Delta":295223549},{"NoteNumber":74,"Velocity":54,"Duration":125083,"SoundDuration":125083,"Delta":295473716},{"NoteNumber":75,"Velocity":56,"Duration":125083,"SoundDuration":125083,"Delta":295723883},{"NoteNumber":76,"Velocity":58,"Duration":136338,"SoundDuration":136338,"Delta":295974050},{"NoteNumber":77,"Velocity":61,"Duration":150647,"SoundDuration":150647,"Delta":296246727},{"NoteNumber":79,"Velocity":57,"Duration":116532,"SoundDuration":116532,"Delta":296548023},{"NoteNumber":77,"Velocity":56,"Duration":116532,"SoundDuration":116532,"Delta":296664555},{"NoteNumber":75,"Velocity":54,"Duration":116532,"SoundDuration":116532,"Delta":296781087},{"NoteNumber":74,"Velocity":52,"Duration":116532,"SoundDuration":116532,"Delta":296897619},{"NoteNumber":72,"Velocity":60,"Duration":236090,"SoundDuration":236090,"Delta":297014151},{"NoteNumber":70,"Velocity":54,"Duration":226253,"SoundDuration":226253,"Delta":297250241},{"NoteNumber":58,"Velocity":37,"Duration":236090,"SoundDuration":236090,"Delta":297250241},{"NoteNumber":70,"Velocity":51,"Duration":708271,"SoundDuration":708271,"Delta":297486332},{"NoteNumber":62,"Velocity":37,"Duration":236090,"SoundDuration":236090,"Delta":297486332},{"NoteNumber":65,"Velocity":33,"Duration":236090,"SoundDuration":236090,"Delta":297722422},{"NoteNumber":62,"Velocity":36,"Duration":236090,"SoundDuration":236090,"Delta":297958513},{"NoteNumber":74,"Velocity":57,"Duration":233064,"SoundDuration":233064,"Delta":298194603},{"NoteNumber":58,"Velocity":33,"Duration":233064,"SoundDuration":233064,"Delta":298194603},{"NoteNumber":79,"Velocity":60,"Duration":233064,"SoundDuration":233064,"Delta":298427667},{"NoteNumber":62,"Velocity":41,"Duration":233064,"SoundDuration":233064,"Delta":298427667},{"NoteNumber":74,"Velocity":55,"Duration":241312,"SoundDuration":241312,"Delta":298660731},{"NoteNumber":67,"Velocity":38,"Duration":241312,"SoundDuration":241312,"Delta":298660731},{"NoteNumber":77,"Velocity":60,"Duration":472180,"SoundDuration":472180,"Delta":298902044},{"NoteNumber":60,"Velocity":34,"Duration":236090,"SoundDuration":236090,"Delta":299138134},{"NoteNumber":75,"Velocity":56,"Duration":708271,"SoundDuration":708271,"Delta":299374225},{"NoteNumber":63,"Velocity":39,"Duration":236090,"SoundDuration":236090,"Delta":299374225},{"NoteNumber":67,"Velocity":36,"Duration":236090,"SoundDuration":236090,"Delta":299610315},{"NoteNumber":63,"Velocity":44,"Duration":236090,"SoundDuration":236090,"Delta":299846406},{"NoteNumber":77,"Velocity":60,"Duration":116532,"SoundDuration":116532,"Delta":300082496},{"NoteNumber":60,"Velocity":37,"Duration":233064,"SoundDuration":233064,"Delta":300082496},{"NoteNumber":79,"Velocity":56,"Duration":116532,"SoundDuration":116532,"Delta":300199028},{"NoteNumber":77,"Velocity":61,"Duration":116532,"SoundDuration":116532,"Delta":300315560},{"NoteNumber":63,"Velocity":38,"Duration":233064,"SoundDuration":233064,"Delta":300315560},{"NoteNumber":75,"Velocity":54,"Duration":116532,"SoundDuration":116532,"Delta":300432092},{"NoteNumber":74,"Velocity":58,"Duration":116531,"SoundDuration":116531,"Delta":300548624},{"NoteNumber":67,"Velocity":34,"Duration":233063,"SoundDuration":233063,"Delta":300548624},{"NoteNumber":72,"Velocity":53,"Duration":116532,"SoundDuration":116532,"Delta":300665156},{"NoteNumber":70,"Velocity":66,"Duration":473314,"SoundDuration":473314,"Delta":300781688},{"NoteNumber":53,"Velocity":35,"Duration":240250,"SoundDuration":240250,"Delta":301014752},{"NoteNumber":69,"Velocity":57,"Duration":692394,"SoundDuration":692394,"Delta":301255002},{"NoteNumber":60,"Velocity":35,"Duration":233064,"SoundDuration":233064,"Delta":301255002},{"NoteNumber":63,"Velocity":34,"Duration":233064,"SoundDuration":233064,"Delta":301488066},{"NoteNumber":60,"Velocity":47,"Duration":233063,"SoundDuration":233063,"Delta":301721130},{"NoteNumber":69,"Velocity":62,"Duration":233064,"SoundDuration":233064,"Delta":301954194},{"NoteNumber":53,"Velocity":36,"Duration":233064,"SoundDuration":233064,"Delta":301954194},{"NoteNumber":70,"Velocity":65,"Duration":233064,"SoundDuration":233064,"Delta":302187258},{"NoteNumber":60,"Velocity":43,"Duration":233064,"SoundDuration":233064,"Delta":302187258},{"NoteNumber":72,"Velocity":61,"Duration":235424,"SoundDuration":235424,"Delta":302420322},{"NoteNumber":63,"Velocity":36,"Duration":245659,"SoundDuration":245659,"Delta":302420322},{"NoteNumber":69,"Velocity":52,"Duration":476304,"SoundDuration":476304,"Delta":302665982},{"NoteNumber":72,"Velocity":61,"Duration":476304,"SoundDuration":476304,"Delta":302665982},{"NoteNumber":58,"Velocity":42,"Duration":238152,"SoundDuration":238152,"Delta":302904134},{"NoteNumber":70,"Velocity":49,"Duration":476303,"SoundDuration":476303,"Delta":303142286},{"NoteNumber":74,"Velocity":58,"Duration":476303,"SoundDuration":476303,"Delta":303142286},{"NoteNumber":62,"Velocity":42,"Duration":238151,"SoundDuration":238151,"Delta":303142286},{"NoteNumber":65,"Velocity":36,"Duration":238152,"SoundDuration":238152,"Delta":303380438},{"NoteNumber":62,"Velocity":45,"Duration":238152,"SoundDuration":238152,"Delta":303618590},{"NoteNumber":77,"Velocity":64,"Duration":115544,"SoundDuration":115544,"Delta":303856742},{"NoteNumber":58,"Velocity":42,"Duration":231088,"SoundDuration":231088,"Delta":303856742},{"NoteNumber":76,"Velocity":63,"Duration":115544,"SoundDuration":115544,"Delta":303972287},{"NoteNumber":79,"Velocity":66,"Duration":115544,"SoundDuration":115544,"Delta":304087831},{"NoteNumber":62,"Velocity":42,"Duration":231088,"SoundDuration":231088,"Delta":304087831},{"NoteNumber":77,"Velocity":63,"Duration":115544,"SoundDuration":115544,"Delta":304203376},{"NoteNumber":75,"Velocity":63,"Duration":115544,"SoundDuration":115544,"Delta":304318920},{"NoteNumber":65,"Velocity":39,"Duration":231088,"SoundDuration":231088,"Delta":304318920},{"NoteNumber":74,"Velocity":61,"Duration":105915,"SoundDuration":105915,"Delta":304434465},{"NoteNumber":74,"Velocity":68,"Duration":237116,"SoundDuration":237116,"Delta":304550009},{"NoteNumber":63,"Velocity":45,"Duration":237116,"SoundDuration":237116,"Delta":304550009},{"NoteNumber":72,"Velocity":61,"Duration":474232,"SoundDuration":474232,"Delta":304787126},{"NoteNumber":67,"Velocity":37,"Duration":237116,"SoundDuration":237116,"Delta":304787126},{"NoteNumber":62,"Velocity":40,"Duration":237116,"SoundDuration":237116,"Delta":305024242},{"NoteNumber":70,"Velocity":61,"Duration":233064,"SoundDuration":233064,"Delta":305261359},{"NoteNumber":65,"Velocity":35,"Duration":233064,"SoundDuration":233064,"Delta":305261359},{"NoteNumber":74,"Velocity":67,"Duration":237116,"SoundDuration":237116,"Delta":305494423},{"NoteNumber":63,"Velocity":45,"Duration":237116,"SoundDuration":237116,"Delta":305494423},{"NoteNumber":72,"Velocity":62,"Duration":474232,"SoundDuration":474232,"Delta":305731539},{"NoteNumber":67,"Velocity":35,"Duration":237116,"SoundDuration":237116,"Delta":305731539},{"NoteNumber":60,"Velocity":38,"Duration":237116,"SoundDuration":237116,"Delta":305968656},{"NoteNumber":69,"Velocity":64,"Duration":233064,"SoundDuration":233064,"Delta":306205772},{"NoteNumber":63,"Velocity":32,"Duration":233064,"SoundDuration":233064,"Delta":306205772},{"NoteNumber":70,"Velocity":68,"Duration":116036,"SoundDuration":116036,"Delta":306438836},{"NoteNumber":62,"Velocity":42,"Duration":464144,"SoundDuration":464144,"Delta":306438836},{"NoteNumber":65,"Velocity":42,"Duration":464144,"SoundDuration":464144,"Delta":306438836},{"NoteNumber":72,"Velocity":59,"Duration":116036,"SoundDuration":116036,"Delta":306554872},{"NoteNumber":70,"Velocity":62,"Duration":116036,"SoundDuration":116036,"Delta":306670909},{"NoteNumber":69,"Velocity":58,"Duration":116036,"SoundDuration":116036,"Delta":306786945},{"NoteNumber":70,"Velocity":66,"Duration":116036,"SoundDuration":116036,"Delta":306902981},{"NoteNumber":72,"Velocity":60,"Duration":116036,"SoundDuration":116036,"Delta":307019017},{"NoteNumber":74,"Velocity":63,"Duration":116036,"SoundDuration":116036,"Delta":307135054},{"NoteNumber":75,"Velocity":61,"Duration":115708,"SoundDuration":115708,"Delta":307251090},{"NoteNumber":76,"Velocity":69,"Duration":115544,"SoundDuration":115544,"Delta":307366798},{"NoteNumber":77,"Velocity":65,"Duration":115544,"SoundDuration":115544,"Delta":307482343},{"NoteNumber":76,"Velocity":69,"Duration":115382,"SoundDuration":115382,"Delta":307597887},{"NoteNumber":77,"Velocity":65,"Duration":121192,"SoundDuration":121192,"Delta":307713269},{"NoteNumber":79,"Velocity":69,"Duration":114573,"SoundDuration":114573,"Delta":307834462},{"NoteNumber":77,"Velocity":67,"Duration":114573,"SoundDuration":114573,"Delta":307949036},{"NoteNumber":75,"Velocity":66,"Duration":114573,"SoundDuration":114573,"Delta":308063609},{"NoteNumber":74,"Velocity":65,"Duration":111589,"SoundDuration":111589,"Delta":308178183},{"NoteNumber":74,"Velocity":72,"Duration":232072,"SoundDuration":232072,"Delta":308299917},{"NoteNumber":63,"Velocity":47,"Duration":232072,"SoundDuration":232072,"Delta":308299917},{"NoteNumber":72,"Velocity":54,"Duration":222402,"SoundDuration":222402,"Delta":308531989},{"NoteNumber":67,"Velocity":36,"Duration":232072,"SoundDuration":232072,"Delta":308531989},{"NoteNumber":72,"Velocity":56,"Duration":232072,"SoundDuration":232072,"Delta":308764062},{"NoteNumber":62,"Velocity":40,"Duration":232072,"SoundDuration":232072,"Delta":308764062},{"NoteNumber":70,"Velocity":54,"Duration":232072,"SoundDuration":232072,"Delta":308996134},{"NoteNumber":65,"Velocity":33,"Duration":232072,"SoundDuration":232072,"Delta":308996134},{"NoteNumber":74,"Velocity":65,"Duration":232072,"SoundDuration":232072,"Delta":309228207},{"NoteNumber":63,"Velocity":47,"Duration":232072,"SoundDuration":232072,"Delta":309228207},{"NoteNumber":72,"Velocity":54,"Duration":222402,"SoundDuration":222402,"Delta":309460279},{"NoteNumber":67,"Velocity":37,"Duration":232072,"SoundDuration":232072,"Delta":309460279},{"NoteNumber":72,"Velocity":57,"Duration":232072,"SoundDuration":232072,"Delta":309692352},{"NoteNumber":60,"Velocity":39,"Duration":232072,"SoundDuration":232072,"Delta":309692352},{"NoteNumber":69,"Velocity":53,"Duration":232072,"SoundDuration":232072,"Delta":309924424},{"NoteNumber":63,"Velocity":32,"Duration":232072,"SoundDuration":232072,"Delta":309924424},{"NoteNumber":70,"Velocity":66,"Duration":232072,"SoundDuration":232072,"Delta":310156497},{"NoteNumber":65,"Velocity":47,"Duration":464144,"SoundDuration":464144,"Delta":310156497},{"NoteNumber":62,"Velocity":47,"Duration":464144,"SoundDuration":464144,"Delta":310156497},{"NoteNumber":72,"Velocity":57,"Duration":116036,"SoundDuration":116036,"Delta":310388569},{"NoteNumber":74,"Velocity":58,"Duration":116036,"SoundDuration":116036,"Delta":310504605},{"NoteNumber":75,"Velocity":59,"Duration":116036,"SoundDuration":116036,"Delta":310620642},{"NoteNumber":77,"Velocity":60,"Duration":116036,"SoundDuration":116036,"Delta":310736678},{"NoteNumber":79,"Velocity":61,"Duration":116036,"SoundDuration":116036,"Delta":310852714},{"NoteNumber":81,"Velocity":64,"Duration":116036,"SoundDuration":116036,"Delta":310968750},{"NoteNumber":82,"Velocity":66,"Duration":116036,"SoundDuration":116036,"Delta":311084787},{"NoteNumber":84,"Velocity":67,"Duration":116036,"SoundDuration":116036,"Delta":311200823},{"NoteNumber":86,"Velocity":68,"Duration":115872,"SoundDuration":115872,"Delta":311316859},{"NoteNumber":87,"Velocity":69,"Duration":115544,"SoundDuration":115544,"Delta":311432731},{"NoteNumber":89,"Velocity":76,"Duration":115544,"SoundDuration":115544,"Delta":311548276},{"NoteNumber":89,"Velocity":75,"Duration":115057,"SoundDuration":115057,"Delta":311779040},{"NoteNumber":77,"Velocity":76,"Duration":1175364,"SoundDuration":1175364,"Delta":312009155},{"NoteNumber":89,"Velocity":76,"Duration":235072,"SoundDuration":235072,"Delta":312009155},{"NoteNumber":57,"Velocity":61,"Duration":470145,"SoundDuration":470145,"Delta":312009155},{"NoteNumber":87,"Velocity":74,"Duration":470145,"SoundDuration":470145,"Delta":312244228},{"NoteNumber":58,"Velocity":55,"Duration":470145,"SoundDuration":470145,"Delta":312479301},{"NoteNumber":86,"Velocity":73,"Duration":235072,"SoundDuration":235072,"Delta":312714374},{"NoteNumber":86,"Velocity":75,"Duration":235072,"SoundDuration":235072,"Delta":312949447},{"NoteNumber":51,"Velocity":63,"Duration":467145,"SoundDuration":467145,"Delta":312949447},{"NoteNumber":75,"Velocity":64,"Duration":116036,"SoundDuration":116036,"Delta":313184520},{"NoteNumber":84,"Velocity":64,"Duration":116036,"SoundDuration":116036,"Delta":313184520},{"NoteNumber":74,"Velocity":72,"Duration":116284,"SoundDuration":116284,"Delta":313416592},{"NoteNumber":82,"Velocity":72,"Duration":116284,"SoundDuration":116284,"Delta":313416592},{"NoteNumber":53,"Velocity":57,"Duration":487225,"SoundDuration":487225,"Delta":313416592},{"NoteNumber":72,"Velocity":64,"Duration":126828,"SoundDuration":126828,"Delta":313650160},{"NoteNumber":81,"Velocity":64,"Duration":126828,"SoundDuration":126828,"Delta":313650160},{"NoteNumber":82,"Velocity":76,"Duration":238152,"SoundDuration":238152,"Delta":313903817},{"NoteNumber":74,"Velocity":76,"Duration":238152,"SoundDuration":238152,"Delta":313903817},{"NoteNumber":46,"Velocity":52,"Duration":118903,"SoundDuration":118903,"Delta":314141969},{"NoteNumber":70,"Velocity":72,"Duration":246421,"SoundDuration":246421,"Delta":314381177},{"NoteNumber":50,"Velocity":55,"Duration":122190,"SoundDuration":122190,"Delta":314381177},{"NoteNumber":53,"Velocity":50,"Duration":126147,"SoundDuration":126147,"Delta":314627599},{"NoteNumber":58,"Velocity":61,"Duration":519390,"SoundDuration":519390,"Delta":314882069},{"NoteNumber":67,"Velocity":52,"Duration":129847,"SoundDuration":129847,"Delta":315401460},{"NoteNumber":65,"Velocity":48,"Duration":129847,"SoundDuration":129847,"Delta":315531308},{"NoteNumber":63,"Velocity":52,"Duration":129847,"SoundDuration":129847,"Delta":315661156},{"NoteNumber":62,"Velocity":48,"Duration":129847,"SoundDuration":129847,"Delta":315791003},{"NoteNumber":60,"Velocity":56,"Duration":237116,"SoundDuration":237116,"Delta":315920851},{"NoteNumber":58,"Velocity":53,"Duration":237116,"SoundDuration":237116,"Delta":316157968},{"NoteNumber":46,"Velocity":34,"Duration":237116,"SoundDuration":237116,"Delta":316157968},{"NoteNumber":58,"Velocity":53,"Duration":711349,"SoundDuration":711349,"Delta":316395084},{"NoteNumber":50,"Velocity":37,"Duration":237116,"SoundDuration":237116,"Delta":316395084},{"NoteNumber":53,"Velocity":34,"Duration":237116,"SoundDuration":237116,"Delta":316632201},{"NoteNumber":50,"Velocity":43,"Duration":237116,"SoundDuration":237116,"Delta":316869317},{"NoteNumber":70,"Velocity":54,"Duration":120124,"SoundDuration":120124,"Delta":317106434},{"NoteNumber":46,"Velocity":35,"Duration":240250,"SoundDuration":240250,"Delta":317106434},{"NoteNumber":70,"Velocity":54,"Duration":240250,"SoundDuration":240250,"Delta":317346684},{"NoteNumber":50,"Velocity":39,"Duration":240250,"SoundDuration":240250,"Delta":317346684},{"NoteNumber":72,"Velocity":51,"Duration":240250,"SoundDuration":240250,"Delta":317586934},{"NoteNumber":53,"Velocity":39,"Duration":240250,"SoundDuration":240250,"Delta":317586934},{"NoteNumber":70,"Velocity":61,"Duration":243467,"SoundDuration":243467,"Delta":317827184},{"NoteNumber":69,"Velocity":53,"Duration":243467,"SoundDuration":243467,"Delta":318070651},{"NoteNumber":46,"Velocity":37,"Duration":243467,"SoundDuration":243467,"Delta":318070651},{"NoteNumber":68,"Velocity":51,"Duration":720256,"SoundDuration":720256,"Delta":318314118},{"NoteNumber":50,"Velocity":41,"Duration":243466,"SoundDuration":243466,"Delta":318314118},{"NoteNumber":53,"Velocity":37,"Duration":243467,"SoundDuration":243467,"Delta":318557585},{"NoteNumber":50,"Velocity":43,"Duration":243467,"SoundDuration":243467,"Delta":318801052},{"NoteNumber":68,"Velocity":58,"Duration":226253,"SoundDuration":226253,"Delta":319044519},{"NoteNumber":46,"Velocity":38,"Duration":236090,"SoundDuration":236090,"Delta":319044519},{"NoteNumber":68,"Velocity":65,"Duration":226253,"SoundDuration":226253,"Delta":319280609},{"NoteNumber":50,"Velocity":38,"Duration":236090,"SoundDuration":236090,"Delta":319280609},{"NoteNumber":68,"Velocity":72,"Duration":236090,"SoundDuration":236090,"Delta":319516700},{"NoteNumber":53,"Velocity":34,"Duration":236090,"SoundDuration":236090,"Delta":319516700},{"NoteNumber":80,"Velocity":78,"Duration":116532,"SoundDuration":116532,"Delta":319752790},{"NoteNumber":82,"Velocity":71,"Duration":116532,"SoundDuration":116532,"Delta":319869322},{"NoteNumber":79,"Velocity":78,"Duration":116532,"SoundDuration":116532,"Delta":319985854},{"NoteNumber":46,"Velocity":47,"Duration":233064,"SoundDuration":233064,"Delta":319985854},{"NoteNumber":80,"Velocity":70,"Duration":116532,"SoundDuration":116532,"Delta":320102386},{"NoteNumber":77,"Velocity":79,"Duration":116531,"SoundDuration":116531,"Delta":320218918},{"NoteNumber":50,"Velocity":47,"Duration":233063,"SoundDuration":233063,"Delta":320218918},{"NoteNumber":79,"Velocity":69,"Duration":116532,"SoundDuration":116532,"Delta":320335450},{"NoteNumber":75,"Velocity":77,"Duration":116532,"SoundDuration":116532,"Delta":320451982},{"NoteNumber":53,"Velocity":45,"Duration":233064,"SoundDuration":233064,"Delta":320451982},{"NoteNumber":77,"Velocity":70,"Duration":116532,"SoundDuration":116532,"Delta":320568514},{"NoteNumber":74,"Velocity":79,"Duration":116532,"SoundDuration":116532,"Delta":320685046},{"NoteNumber":56,"Velocity":53,"Duration":233064,"SoundDuration":233064,"Delta":320685046},{"NoteNumber":75,"Velocity":70,"Duration":116532,"SoundDuration":116532,"Delta":320801578},{"NoteNumber":72,"Velocity":75,"Duration":116532,"SoundDuration":116532,"Delta":320918110},{"NoteNumber":53,"Velocity":45,"Duration":233064,"SoundDuration":233064,"Delta":320918110},{"NoteNumber":74,"Velocity":69,"Duration":116532,"SoundDuration":116532,"Delta":321034642},{"NoteNumber":70,"Velocity":76,"Duration":116532,"SoundDuration":116532,"Delta":321151174},{"NoteNumber":50,"Velocity":48,"Duration":233063,"SoundDuration":233063,"Delta":321151174},{"NoteNumber":72,"Velocity":70,"Duration":116531,"SoundDuration":116531,"Delta":321267706},{"NoteNumber":68,"Velocity":72,"Duration":116532,"SoundDuration":116532,"Delta":321384238},{"NoteNumber":46,"Velocity":45,"Duration":239917,"SoundDuration":239917,"Delta":321384238},{"NoteNumber":70,"Velocity":67,"Duration":123385,"SoundDuration":123385,"Delta":321500770},{"NoteNumber":68,"Velocity":72,"Duration":243467,"SoundDuration":243467,"Delta":321624156},{"NoteNumber":67,"Velocity":67,"Duration":233322,"SoundDuration":233322,"Delta":321867623},{"NoteNumber":47,"Velocity":36,"Duration":243467,"SoundDuration":243467,"Delta":321867623},{"NoteNumber":67,"Velocity":59,"Duration":730400,"SoundDuration":730400,"Delta":322111090},{"NoteNumber":50,"Velocity":36,"Duration":243466,"SoundDuration":243466,"Delta":322111090},{"NoteNumber":53,"Velocity":36,"Duration":243467,"SoundDuration":243467,"Delta":322354557},{"NoteNumber":55,"Velocity":41,"Duration":243467,"SoundDuration":243467,"Delta":322598024},{"NoteNumber":79,"Velocity":54,"Duration":121733,"SoundDuration":121733,"Delta":322841491},{"NoteNumber":53,"Velocity":33,"Duration":243467,"SoundDuration":243467,"Delta":322841491},{"NoteNumber":79,"Velocity":60,"Duration":235072,"SoundDuration":235072,"Delta":323084958},{"NoteNumber":50,"Velocity":34,"Duration":235072,"SoundDuration":235072,"Delta":323084958},{"NoteNumber":77,"Velocity":54,"Duration":225278,"SoundDuration":225278,"Delta":323320031},{"NoteNumber":47,"Velocity":32,"Duration":235072,"SoundDuration":235072,"Delta":323320031},{"NoteNumber":77,"Velocity":63,"Duration":242385,"SoundDuration":242385,"Delta":323555104},{"NoteNumber":76,"Velocity":54,"Duration":232285,"SoundDuration":232285,"Delta":323797489},{"NoteNumber":58,"Velocity":33,"Duration":242385,"SoundDuration":242385,"Delta":323797489},{"NoteNumber":76,"Velocity":54,"Duration":734936,"SoundDuration":734936,"Delta":324039874},{"NoteNumber":61,"Velocity":36,"Duration":242384,"SoundDuration":242384,"Delta":324039874},{"NoteNumber":64,"Velocity":32,"Duration":242385,"SoundDuration":242385,"Delta":324282259},{"NoteNumber":67,"Velocity":40,"Duration":492551,"SoundDuration":492551,"Delta":324524644},{"NoteNumber":85,"Velocity":59,"Duration":121192,"SoundDuration":121192,"Delta":324774811},{"NoteNumber":85,"Velocity":61,"Duration":242385,"SoundDuration":242385,"Delta":325017196},{"NoteNumber":76,"Velocity":56,"Duration":242384,"SoundDuration":242384,"Delta":325259581},{"NoteNumber":79,"Velocity":61,"Duration":242385,"SoundDuration":242385,"Delta":325501966},{"NoteNumber":77,"Velocity":54,"Duration":232285,"SoundDuration":232285,"Delta":325744351},{"NoteNumber":57,"Velocity":34,"Duration":242385,"SoundDuration":242385,"Delta":325744351},{"NoteNumber":77,"Velocity":54,"Duration":727154,"SoundDuration":727154,"Delta":325986736},{"NoteNumber":60,"Velocity":34,"Duration":242385,"SoundDuration":242385,"Delta":325986736},{"NoteNumber":65,"Velocity":32,"Duration":242384,"SoundDuration":242384,"Delta":326229121},{"NoteNumber":69,"Velocity":39,"Duration":479501,"SoundDuration":479501,"Delta":326471506},{"NoteNumber":78,"Velocity":52,"Duration":237116,"SoundDuration":237116,"Delta":326713891},{"NoteNumber":79,"Velocity":54,"Duration":237116,"SoundDuration":237116,"Delta":326951007},{"NoteNumber":75,"Velocity":52,"Duration":245979,"SoundDuration":245979,"Delta":327188124},{"NoteNumber":73,"Velocity":57,"Duration":244558,"SoundDuration":244558,"Delta":327434103},{"NoteNumber":74,"Velocity":52,"Duration":234368,"SoundDuration":234368,"Delta":327678662},{"NoteNumber":58,"Velocity":32,"Duration":244558,"SoundDuration":244558,"Delta":327678662},{"NoteNumber":74,"Velocity":52,"Duration":489116,"SoundDuration":489116,"Delta":327923220},{"NoteNumber":62,"Velocity":34,"Duration":244558,"SoundDuration":244558,"Delta":327923220},{"NoteNumber":65,"Velocity":30,"Duration":244558,"SoundDuration":244558,"Delta":328167779},{"NoteNumber":70,"Velocity":38,"Duration":480649,"SoundDuration":480649,"Delta":328412337},{"NoteNumber":77,"Velocity":54,"Duration":236090,"SoundDuration":236090,"Delta":328656896},{"NoteNumber":79,"Velocity":61,"Duration":118045,"SoundDuration":118045,"Delta":328892986},{"NoteNumber":77,"Velocity":57,"Duration":118045,"SoundDuration":118045,"Delta":329011031},{"NoteNumber":75,"Velocity":61,"Duration":118045,"SoundDuration":118045,"Delta":329129077},{"NoteNumber":74,"Velocity":56,"Duration":118045,"SoundDuration":118045,"Delta":329247122},{"NoteNumber":72,"Velocity":61,"Duration":708271,"SoundDuration":708271,"Delta":329365167},{"NoteNumber":63,"Velocity":42,"Duration":236090,"SoundDuration":236090,"Delta":329365167},{"NoteNumber":67,"Velocity":38,"Duration":236090,"SoundDuration":236090,"Delta":329601258},{"NoteNumber":63,"Velocity":42,"Duration":236090,"SoundDuration":236090,"Delta":329837348},{"NoteNumber":69,"Velocity":52,"Duration":236090,"SoundDuration":236090,"Delta":330073439},{"NoteNumber":65,"Velocity":38,"Duration":236090,"SoundDuration":236090,"Delta":330073439},{"NoteNumber":70,"Velocity":52,"Duration":59022,"SoundDuration":59022,"Delta":330309529},{"NoteNumber":62,"Velocity":41,"Duration":234577,"SoundDuration":234577,"Delta":330309529},{"NoteNumber":77,"Velocity":56,"Duration":139838,"SoundDuration":139838,"Delta":330427574},{"NoteNumber":76,"Velocity":56,"Duration":139838,"SoundDuration":139838,"Delta":330544106},{"NoteNumber":65,"Velocity":38,"Duration":233064,"SoundDuration":233064,"Delta":330544106},{"NoteNumber":77,"Velocity":52,"Duration":139838,"SoundDuration":139838,"Delta":330660638},{"NoteNumber":79,"Velocity":63,"Duration":139838,"SoundDuration":139838,"Delta":330777170},{"NoteNumber":62,"Velocity":41,"Duration":233063,"SoundDuration":233063,"Delta":330777170},{"NoteNumber":77,"Velocity":54,"Duration":139838,"SoundDuration":139838,"Delta":330893702},{"NoteNumber":75,"Velocity":59,"Duration":139838,"SoundDuration":139838,"Delta":331010234},{"NoteNumber":65,"Velocity":38,"Duration":233064,"SoundDuration":233064,"Delta":331010234},{"NoteNumber":74,"Velocity":53,"Duration":140663,"SoundDuration":140663,"Delta":331126766},{"NoteNumber":72,"Velocity":63,"Duration":120656,"SoundDuration":120656,"Delta":331243298},{"NoteNumber":63,"Velocity":41,"Duration":241312,"SoundDuration":241312,"Delta":331243298},{"NoteNumber":72,"Velocity":63,"Duration":474233,"SoundDuration":474233,"Delta":331484611},{"NoteNumber":65,"Velocity":38,"Duration":237116,"SoundDuration":237116,"Delta":331484611},{"NoteNumber":63,"Velocity":41,"Duration":237116,"SoundDuration":237116,"Delta":331721727},{"NoteNumber":69,"Velocity":54,"Duration":237116,"SoundDuration":237116,"Delta":331958844},{"NoteNumber":65,"Velocity":38,"Duration":237116,"SoundDuration":237116,"Delta":331958844},{"NoteNumber":70,"Velocity":54,"Duration":59279,"SoundDuration":59279,"Delta":332195960},{"NoteNumber":62,"Velocity":41,"Duration":235090,"SoundDuration":235090,"Delta":332195960},{"NoteNumber":77,"Velocity":51,"Duration":139838,"SoundDuration":139838,"Delta":332314519},{"NoteNumber":76,"Velocity":56,"Duration":139838,"SoundDuration":139838,"Delta":332431051},{"NoteNumber":65,"Velocity":38,"Duration":233064,"SoundDuration":233064,"Delta":332431051},{"NoteNumber":77,"Velocity":53,"Duration":139838,"SoundDuration":139838,"Delta":332547583},{"NoteNumber":79,"Velocity":62,"Duration":139838,"SoundDuration":139838,"Delta":332664115},{"NoteNumber":62,"Velocity":41,"Duration":233063,"SoundDuration":233063,"Delta":332664115},{"NoteNumber":77,"Velocity":53,"Duration":139838,"SoundDuration":139838,"Delta":332780647},{"NoteNumber":75,"Velocity":57,"Duration":139838,"SoundDuration":139838,"Delta":332897179},{"NoteNumber":65,"Velocity":38,"Duration":233064,"SoundDuration":233064,"Delta":332897179},{"NoteNumber":74,"Velocity":54,"Duration":106821,"SoundDuration":106821,"Delta":333013711},{"NoteNumber":74,"Velocity":63,"Duration":237116,"SoundDuration":237116,"Delta":333130243},{"NoteNumber":63,"Velocity":41,"Duration":237116,"SoundDuration":237116,"Delta":333130243},{"NoteNumber":72,"Velocity":60,"Duration":237116,"SoundDuration":237116,"Delta":333367359},{"NoteNumber":67,"Velocity":38,"Duration":237116,"SoundDuration":237116,"Delta":333367359},{"NoteNumber":63,"Velocity":41,"Duration":237116,"SoundDuration":237116,"Delta":333604476},{"NoteNumber":72,"Velocity":59,"Duration":233064,"SoundDuration":233064,"Delta":333841592},{"NoteNumber":67,"Velocity":38,"Duration":233064,"SoundDuration":233064,"Delta":333841592},{"NoteNumber":72,"Velocity":63,"Duration":237116,"SoundDuration":237116,"Delta":334074656},{"NoteNumber":64,"Velocity":41,"Duration":237116,"SoundDuration":237116,"Delta":334074656},{"NoteNumber":70,"Velocity":59,"Duration":237116,"SoundDuration":237116,"Delta":334311773},{"NoteNumber":67,"Velocity":38,"Duration":237116,"SoundDuration":237116,"Delta":334311773},{"NoteNumber":64,"Velocity":41,"Duration":237116,"SoundDuration":237116,"Delta":334548889},{"NoteNumber":70,"Velocity":52,"Duration":231088,"SoundDuration":231088,"Delta":334786006},{"NoteNumber":67,"Velocity":38,"Duration":231088,"SoundDuration":231088,"Delta":334786006},{"NoteNumber":69,"Velocity":64,"Duration":115544,"SoundDuration":115544,"Delta":335017095},{"NoteNumber":53,"Velocity":41,"Duration":462177,"SoundDuration":462177,"Delta":335017095},{"NoteNumber":70,"Velocity":58,"Duration":115544,"SoundDuration":115544,"Delta":335132639},{"NoteNumber":69,"Velocity":62,"Duration":115544,"SoundDuration":115544,"Delta":335248184},{"NoteNumber":65,"Velocity":58,"Duration":115544,"SoundDuration":115544,"Delta":335363728},{"NoteNumber":70,"Velocity":69,"Duration":115544,"SoundDuration":115544,"Delta":335479273},{"NoteNumber":55,"Velocity":47,"Duration":462177,"SoundDuration":462177,"Delta":335479273},{"NoteNumber":72,"Velocity":62,"Duration":115544,"SoundDuration":115544,"Delta":335594817},{"NoteNumber":70,"Velocity":67,"Duration":115544,"SoundDuration":115544,"Delta":335710362},{"NoteNumber":65,"Velocity":59,"Duration":115544,"SoundDuration":115544,"Delta":335825906},{"NoteNumber":72,"Velocity":70,"Duration":115544,"SoundDuration":115544,"Delta":335941451},{"NoteNumber":57,"Velocity":52,"Duration":462177,"SoundDuration":462177,"Delta":335941451},{"NoteNumber":74,"Velocity":64,"Duration":115544,"SoundDuration":115544,"Delta":336056995},{"NoteNumber":72,"Velocity":69,"Duration":115544,"SoundDuration":115544,"Delta":336172540},{"NoteNumber":65,"Velocity":63,"Duration":115544,"SoundDuration":115544,"Delta":336288084},{"NoteNumber":74,"Velocity":77,"Duration":115544,"SoundDuration":115544,"Delta":336403629},{"NoteNumber":58,"Velocity":58,"Duration":462177,"SoundDuration":462177,"Delta":336403629},{"NoteNumber":75,"Velocity":67,"Duration":115544,"SoundDuration":115544,"Delta":336519173},{"NoteNumber":74,"Velocity":72,"Duration":115544,"SoundDuration":115544,"Delta":336634718},{"NoteNumber":65,"Velocity":67,"Duration":115544,"SoundDuration":115544,"Delta":336750262},{"NoteNumber":75,"Velocity":78,"Duration":118045,"SoundDuration":118045,"Delta":336865807},{"NoteNumber":60,"Velocity":64,"Duration":236090,"SoundDuration":236090,"Delta":336865807},{"NoteNumber":75,"Velocity":78,"Duration":118045,"SoundDuration":118045,"Delta":337101897},{"NoteNumber":65,"Velocity":45,"Duration":236090,"SoundDuration":236090,"Delta":337101897},{"NoteNumber":57,"Velocity":51,"Duration":236090,"SoundDuration":236090,"Delta":337337988},{"NoteNumber":72,"Velocity":73,"Duration":117031,"SoundDuration":117031,"Delta":337574078},{"NoteNumber":65,"Velocity":46,"Duration":234063,"SoundDuration":234063,"Delta":337574078},{"NoteNumber":75,"Velocity":79,"Duration":234063,"SoundDuration":234063,"Delta":337808142},{"NoteNumber":58,"Velocity":52,"Duration":234063,"SoundDuration":234063,"Delta":337808142},{"NoteNumber":74,"Velocity":72,"Duration":117031,"SoundDuration":117031,"Delta":338042206},{"NoteNumber":65,"Velocity":46,"Duration":234064,"SoundDuration":234064,"Delta":338042206},{"NoteNumber":72,"Velocity":74,"Duration":117031,"SoundDuration":117031,"Delta":338276270},{"NoteNumber":55,"Velocity":52,"Duration":234063,"SoundDuration":234063,"Delta":338276270},{"NoteNumber":70,"Velocity":71,"Duration":117031,"SoundDuration":117031,"Delta":338510334},{"NoteNumber":65,"Velocity":46,"Duration":234063,"SoundDuration":234063,"Delta":338510334},{"NoteNumber":69,"Velocity":67,"Duration":115544,"SoundDuration":115544,"Delta":338744398},{"NoteNumber":53,"Velocity":40,"Duration":462177,"SoundDuration":462177,"Delta":338744398},{"NoteNumber":65,"Velocity":59,"Duration":115544,"SoundDuration":115544,"Delta":338859943},{"NoteNumber":76,"Velocity":61,"Duration":115544,"SoundDuration":115544,"Delta":338975487},{"NoteNumber":77,"Velocity":59,"Duration":115544,"SoundDuration":115544,"Delta":339091032},{"NoteNumber":70,"Velocity":70,"Duration":115544,"SoundDuration":115544,"Delta":339206576},{"NoteNumber":55,"Velocity":46,"Duration":462177,"SoundDuration":462177,"Delta":339206576},{"NoteNumber":65,"Velocity":59,"Duration":115544,"SoundDuration":115544,"Delta":339322121},{"NoteNumber":76,"Velocity":66,"Duration":115544,"SoundDuration":115544,"Delta":339437665},{"NoteNumber":77,"Velocity":61,"Duration":115544,"SoundDuration":115544,"Delta":339553210},{"NoteNumber":72,"Velocity":74,"Duration":115544,"SoundDuration":115544,"Delta":339668754},{"NoteNumber":57,"Velocity":51,"Duration":462177,"SoundDuration":462177,"Delta":339668754},{"NoteNumber":65,"Velocity":64,"Duration":115544,"SoundDuration":115544,"Delta":339784299},{"NoteNumber":76,"Velocity":69,"Duration":115544,"SoundDuration":115544,"Delta":339899843},{"NoteNumber":77,"Velocity":62,"Duration":115544,"SoundDuration":115544,"Delta":340015388},{"NoteNumber":74,"Velocity":79,"Duration":115544,"SoundDuration":115544,"Delta":340130932},{"NoteNumber":58,"Velocity":58,"Duration":462177,"SoundDuration":462177,"Delta":340130932},{"NoteNumber":65,"Velocity":69,"Duration":115544,"SoundDuration":115544,"Delta":340246477},{"NoteNumber":76,"Velocity":73,"Duration":115544,"SoundDuration":115544,"Delta":340362021},{"NoteNumber":77,"Velocity":69,"Duration":115544,"SoundDuration":115544,"Delta":340477566},{"NoteNumber":75,"Velocity":79,"Duration":118558,"SoundDuration":118558,"Delta":340593110},{"NoteNumber":60,"Velocity":64,"Duration":118558,"SoundDuration":118558,"Delta":340593110},{"NoteNumber":65,"Velocity":45,"Duration":118558,"SoundDuration":118558,"Delta":340711668},{"NoteNumber":75,"Velocity":79,"Duration":118558,"SoundDuration":118558,"Delta":340830227},{"NoteNumber":64,"Velocity":49,"Duration":118558,"SoundDuration":118558,"Delta":340830227},{"NoteNumber":65,"Velocity":45,"Duration":118558,"SoundDuration":118558,"Delta":340948785},{"NoteNumber":57,"Velocity":56,"Duration":118558,"SoundDuration":118558,"Delta":341067343},{"NoteNumber":65,"Velocity":46,"Duration":118558,"SoundDuration":118558,"Delta":341185901},{"NoteNumber":72,"Velocity":57,"Duration":59279,"SoundDuration":59279,"Delta":341304460},{"NoteNumber":64,"Velocity":49,"Duration":118558,"SoundDuration":118558,"Delta":341304460},{"NoteNumber":74,"Velocity":52,"Duration":59279,"SoundDuration":59279,"Delta":341360775},{"NoteNumber":72,"Velocity":57,"Duration":59279,"SoundDuration":59279,"Delta":341423018},{"NoteNumber":65,"Velocity":46,"Duration":118558,"SoundDuration":118558,"Delta":341423018},{"NoteNumber":74,"Velocity":52,"Duration":59279,"SoundDuration":59279,"Delta":341482297},{"NoteNumber":75,"Velocity":72,"Duration":237116,"SoundDuration":237116,"Delta":341541576},{"NoteNumber":58,"Velocity":56,"Duration":118558,"SoundDuration":118558,"Delta":341541576},{"NoteNumber":65,"Velocity":46,"Duration":118558,"SoundDuration":118558,"Delta":341660134},{"NoteNumber":74,"Velocity":71,"Duration":118558,"SoundDuration":118558,"Delta":341778693},{"NoteNumber":64,"Velocity":49,"Duration":118558,"SoundDuration":118558,"Delta":341778693},{"NoteNumber":65,"Velocity":47,"Duration":118558,"SoundDuration":118558,"Delta":341897251},{"NoteNumber":72,"Velocity":71,"Duration":118558,"SoundDuration":118558,"Delta":342015809},{"NoteNumber":55,"Velocity":57,"Duration":118558,"SoundDuration":118558,"Delta":342015809},{"NoteNumber":64,"Velocity":45,"Duration":118558,"SoundDuration":118558,"Delta":342134367},{"NoteNumber":70,"Velocity":68,"Duration":118558,"SoundDuration":118558,"Delta":342252926},{"NoteNumber":62,"Velocity":49,"Duration":118558,"SoundDuration":118558,"Delta":342252926},{"NoteNumber":64,"Velocity":46,"Duration":118558,"SoundDuration":118558,"Delta":342371484},{"NoteNumber":69,"Velocity":78,"Duration":116036,"SoundDuration":116036,"Delta":342490042},{"NoteNumber":53,"Velocity":59,"Duration":459310,"SoundDuration":459310,"Delta":342490042},{"NoteNumber":65,"Velocity":59,"Duration":459310,"SoundDuration":459310,"Delta":342490042},{"NoteNumber":77,"Velocity":69,"Duration":116036,"SoundDuration":116036,"Delta":342606078},{"NoteNumber":72,"Velocity":73,"Duration":116036,"SoundDuration":116036,"Delta":342722115},{"NoteNumber":69,"Velocity":70,"Duration":116036,"SoundDuration":116036,"Delta":342838151},{"NoteNumber":65,"Velocity":77,"Duration":116037,"SoundDuration":116037,"Delta":342954187},{"NoteNumber":60,"Velocity":69,"Duration":117708,"SoundDuration":117708,"Delta":343070225},{"NoteNumber":57,"Velocity":70,"Duration":119426,"SoundDuration":119426,"Delta":343187933},{"NoteNumber":53,"Velocity":67,"Duration":121285,"SoundDuration":121285,"Delta":343307359},{"NoteNumber":29,"Velocity":75,"Duration":244558,"SoundDuration":244558,"Delta":343428644},{"NoteNumber":41,"Velocity":75,"Duration":244558,"SoundDuration":244558,"Delta":343428644},{"NoteNumber":53,"Velocity":72,"Duration":699191,"SoundDuration":699191,"Delta":344406878},{"NoteNumber":58,"Velocity":72,"Duration":699191,"SoundDuration":699191,"Delta":344406878},{"NoteNumber":62,"Velocity":72,"Duration":699191,"SoundDuration":699191,"Delta":344406878},{"NoteNumber":65,"Velocity":72,"Duration":699191,"SoundDuration":699191,"Delta":344406878},{"NoteNumber":34,"Velocity":58,"Duration":932255,"SoundDuration":932255,"Delta":344406878},{"NoteNumber":46,"Velocity":58,"Duration":932255,"SoundDuration":932255,"Delta":344406878},{"NoteNumber":67,"Velocity":48,"Duration":116532,"SoundDuration":116532,"Delta":345106070},{"NoteNumber":65,"Velocity":45,"Duration":116532,"SoundDuration":116532,"Delta":345222602},{"NoteNumber":63,"Velocity":52,"Duration":116532,"SoundDuration":116532,"Delta":345339134},{"NoteNumber":62,"Velocity":48,"Duration":116532,"SoundDuration":116532,"Delta":345572198},{"NoteNumber":60,"Velocity":52,"Duration":116532,"SoundDuration":116532,"Delta":345805262},{"NoteNumber":58,"Velocity":48,"Duration":116532,"SoundDuration":116532,"Delta":346038326},{"NoteNumber":58,"Velocity":54,"Duration":237116,"SoundDuration":237116,"Delta":346271390},{"NoteNumber":67,"Velocity":49,"Duration":241962,"SoundDuration":241962,"Delta":346508507},{"NoteNumber":58,"Velocity":72,"Duration":712629,"SoundDuration":712629,"Delta":346760989},{"NoteNumber":67,"Velocity":72,"Duration":712629,"SoundDuration":712629,"Delta":346760989},{"NoteNumber":39,"Velocity":57,"Duration":945694,"SoundDuration":945694,"Delta":346760989},{"NoteNumber":51,"Velocity":57,"Duration":945694,"SoundDuration":945694,"Delta":346760989},{"NoteNumber":65,"Velocity":53,"Duration":233064,"SoundDuration":233064,"Delta":347473619},{"NoteNumber":69,"Velocity":53,"Duration":233064,"SoundDuration":233064,"Delta":347706683},{"NoteNumber":50,"Velocity":44,"Duration":466127,"SoundDuration":466127,"Delta":347706683},{"NoteNumber":70,"Velocity":52,"Duration":223352,"SoundDuration":223352,"Delta":347939747},{"NoteNumber":70,"Velocity":61,"Duration":229147,"SoundDuration":229147,"Delta":348172811},{"NoteNumber":52,"Velocity":38,"Duration":462211,"SoundDuration":462211,"Delta":348172811},{"NoteNumber":55,"Velocity":38,"Duration":462211,"SoundDuration":462211,"Delta":348172811},{"NoteNumber":60,"Velocity":53,"Duration":466128,"SoundDuration":466128,"Delta":348401959},{"NoteNumber":53,"Velocity":38,"Duration":466127,"SoundDuration":466127,"Delta":348635023},{"NoteNumber":62,"Velocity":53,"Duration":233063,"SoundDuration":233063,"Delta":348868087},{"NoteNumber":70,"Velocity":61,"Duration":229147,"SoundDuration":229147,"Delta":349101151},{"NoteNumber":55,"Velocity":38,"Duration":462211,"SoundDuration":462211,"Delta":349101151},{"NoteNumber":52,"Velocity":38,"Duration":462211,"SoundDuration":462211,"Delta":349101151},{"NoteNumber":60,"Velocity":51,"Duration":466128,"SoundDuration":466128,"Delta":349330298},{"NoteNumber":53,"Velocity":40,"Duration":466127,"SoundDuration":466127,"Delta":349563362},{"NoteNumber":62,"Velocity":53,"Duration":233063,"SoundDuration":233063,"Delta":349796426},{"NoteNumber":65,"Velocity":58,"Duration":472260,"SoundDuration":472260,"Delta":350029490},{"NoteNumber":55,"Velocity":39,"Duration":472260,"SoundDuration":472260,"Delta":350029490},{"NoteNumber":63,"Velocity":52,"Duration":58768,"SoundDuration":58768,"Delta":350501751},{"NoteNumber":57,"Velocity":35,"Duration":470145,"SoundDuration":470145,"Delta":350501751},{"NoteNumber":65,"Velocity":47,"Duration":58768,"SoundDuration":58768,"Delta":350560519},{"NoteNumber":63,"Velocity":52,"Duration":58768,"SoundDuration":58768,"Delta":350619287},{"NoteNumber":65,"Velocity":49,"Duration":58768,"SoundDuration":58768,"Delta":350678056},{"NoteNumber":63,"Velocity":52,"Duration":39178,"SoundDuration":39178,"Delta":350736824},{"NoteNumber":65,"Velocity":49,"Duration":39178,"SoundDuration":39178,"Delta":350776003},{"NoteNumber":63,"Velocity":49,"Duration":39178,"SoundDuration":39178,"Delta":350815182},{"NoteNumber":62,"Velocity":52,"Duration":58768,"SoundDuration":58768,"Delta":350854360},{"NoteNumber":63,"Velocity":48,"Duration":58768,"SoundDuration":58768,"Delta":350913129},{"NoteNumber":62,"Velocity":57,"Duration":117536,"SoundDuration":117536,"Delta":350971897},{"NoteNumber":58,"Velocity":35,"Duration":468137,"SoundDuration":468137,"Delta":350971897},{"NoteNumber":62,"Velocity":51,"Duration":233064,"SoundDuration":233064,"Delta":351206970},{"NoteNumber":63,"Velocity":53,"Duration":233064,"SoundDuration":233064,"Delta":351440034},{"NoteNumber":65,"Velocity":51,"Duration":233063,"SoundDuration":233063,"Delta":351673098},{"NoteNumber":66,"Velocity":65,"Duration":237116,"SoundDuration":237116,"Delta":351906162},{"NoteNumber":67,"Velocity":54,"Duration":466128,"SoundDuration":466128,"Delta":352143278},{"NoteNumber":39,"Velocity":46,"Duration":233064,"SoundDuration":233064,"Delta":352143278},{"NoteNumber":43,"Velocity":46,"Duration":233064,"SoundDuration":233064,"Delta":352376342},{"NoteNumber":65,"Velocity":53,"Duration":115057,"SoundDuration":115057,"Delta":352609406},{"NoteNumber":48,"Velocity":45,"Duration":230114,"SoundDuration":230114,"Delta":352609406},{"NoteNumber":63,"Velocity":50,"Duration":115057,"SoundDuration":115057,"Delta":352724464},{"NoteNumber":62,"Velocity":54,"Duration":233064,"SoundDuration":233064,"Delta":352839521},{"NoteNumber":51,"Velocity":52,"Duration":466128,"SoundDuration":466128,"Delta":352839521},{"NoteNumber":60,"Velocity":51,"Duration":233064,"SoundDuration":233064,"Delta":353072585},{"NoteNumber":62,"Velocity":52,"Duration":233063,"SoundDuration":233063,"Delta":353305649},{"NoteNumber":63,"Velocity":51,"Duration":233064,"SoundDuration":233064,"Delta":353538713},{"NoteNumber":67,"Velocity":63,"Duration":238152,"SoundDuration":238152,"Delta":353771777},{"NoteNumber":65,"Velocity":53,"Duration":466128,"SoundDuration":466128,"Delta":354009929},{"NoteNumber":38,"Velocity":44,"Duration":233064,"SoundDuration":233064,"Delta":354009929},{"NoteNumber":41,"Velocity":44,"Duration":233064,"SoundDuration":233064,"Delta":354242993},{"NoteNumber":63,"Velocity":54,"Duration":115544,"SoundDuration":115544,"Delta":354476057},{"NoteNumber":46,"Velocity":43,"Duration":231088,"SoundDuration":231088,"Delta":354476057},{"NoteNumber":62,"Velocity":49,"Duration":115544,"SoundDuration":115544,"Delta":354591601},{"NoteNumber":60,"Velocity":56,"Duration":233064,"SoundDuration":233064,"Delta":354707146},{"NoteNumber":50,"Velocity":52,"Duration":466128,"SoundDuration":466128,"Delta":354707146},{"NoteNumber":58,"Velocity":52,"Duration":233064,"SoundDuration":233064,"Delta":354940210},{"NoteNumber":60,"Velocity":54,"Duration":233063,"SoundDuration":233063,"Delta":355173274},{"NoteNumber":62,"Velocity":50,"Duration":233064,"SoundDuration":233064,"Delta":355406338},{"NoteNumber":65,"Velocity":63,"Duration":238152,"SoundDuration":238152,"Delta":355639402},{"NoteNumber":48,"Velocity":44,"Duration":471216,"SoundDuration":471216,"Delta":355639402},{"NoteNumber":63,"Velocity":51,"Duration":466128,"SoundDuration":466128,"Delta":355877554},{"NoteNumber":45,"Velocity":41,"Duration":466127,"SoundDuration":466127,"Delta":356110618},{"NoteNumber":60,"Velocity":51,"Duration":233063,"SoundDuration":233063,"Delta":356343682},{"NoteNumber":63,"Velocity":62,"Duration":238152,"SoundDuration":238152,"Delta":356576746},{"NoteNumber":46,"Velocity":43,"Duration":470224,"SoundDuration":470224,"Delta":356576746},{"NoteNumber":62,"Velocity":52,"Duration":464144,"SoundDuration":464144,"Delta":356814898},{"NoteNumber":43,"Velocity":42,"Duration":464144,"SoundDuration":464144,"Delta":357046970},{"NoteNumber":58,"Velocity":52,"Duration":232072,"SoundDuration":232072,"Delta":357279043},{"NoteNumber":57,"Velocity":48,"Duration":140438,"SoundDuration":140438,"Delta":357511115},{"NoteNumber":41,"Velocity":44,"Duration":468127,"SoundDuration":468127,"Delta":357511115},{"NoteNumber":58,"Velocity":49,"Duration":140438,"SoundDuration":140438,"Delta":357628147},{"NoteNumber":59,"Velocity":50,"Duration":140438,"SoundDuration":140438,"Delta":357745179},{"NoteNumber":60,"Velocity":51,"Duration":140239,"SoundDuration":140239,"Delta":357862211},{"NoteNumber":61,"Velocity":52,"Duration":139243,"SoundDuration":139243,"Delta":357979243},{"NoteNumber":62,"Velocity":53,"Duration":139243,"SoundDuration":139243,"Delta":358095280},{"NoteNumber":63,"Velocity":54,"Duration":139243,"SoundDuration":139243,"Delta":358211316},{"NoteNumber":64,"Velocity":54,"Duration":139243,"SoundDuration":139243,"Delta":358327352},{"NoteNumber":65,"Velocity":56,"Duration":464145,"SoundDuration":464145,"Delta":358443388},{"NoteNumber":53,"Velocity":53,"Duration":116036,"SoundDuration":116036,"Delta":358443388},{"NoteNumber":55,"Velocity":49,"Duration":116036,"SoundDuration":116036,"Delta":358559425},{"NoteNumber":51,"Velocity":54,"Duration":116036,"SoundDuration":116036,"Delta":358675461},{"NoteNumber":53,"Velocity":49,"Duration":116036,"SoundDuration":116036,"Delta":358791497},{"NoteNumber":50,"Velocity":54,"Duration":116037,"SoundDuration":116037,"Delta":358907533},{"NoteNumber":51,"Velocity":49,"Duration":117537,"SoundDuration":117537,"Delta":359023571},{"NoteNumber":48,"Velocity":56,"Duration":119077,"SoundDuration":119077,"Delta":359141109},{"NoteNumber":50,"Velocity":49,"Duration":120657,"SoundDuration":120657,"Delta":359260186},{"NoteNumber":65,"Velocity":73,"Duration":699191,"SoundDuration":699191,"Delta":359380844},{"NoteNumber":70,"Velocity":73,"Duration":699191,"SoundDuration":699191,"Delta":359380844},{"NoteNumber":74,"Velocity":73,"Duration":699191,"SoundDuration":699191,"Delta":359380844},{"NoteNumber":77,"Velocity":73,"Duration":699191,"SoundDuration":699191,"Delta":359380844},{"NoteNumber":46,"Velocity":69,"Duration":466128,"SoundDuration":466128,"Delta":359380844},{"NoteNumber":58,"Velocity":58,"Duration":466127,"SoundDuration":466127,"Delta":359846972},{"NoteNumber":79,"Velocity":51,"Duration":116532,"SoundDuration":116532,"Delta":360080036},{"NoteNumber":77,"Velocity":49,"Duration":116532,"SoundDuration":116532,"Delta":360196568},{"NoteNumber":75,"Velocity":57,"Duration":116532,"SoundDuration":116532,"Delta":360313100},{"NoteNumber":74,"Velocity":50,"Duration":116532,"SoundDuration":116532,"Delta":360546164},{"NoteNumber":72,"Velocity":50,"Duration":116532,"SoundDuration":116532,"Delta":360779228},{"NoteNumber":70,"Velocity":47,"Duration":116532,"SoundDuration":116532,"Delta":361012292},{"NoteNumber":70,"Velocity":53,"Duration":237116,"SoundDuration":237116,"Delta":361245356},{"NoteNumber":79,"Velocity":50,"Duration":237564,"SoundDuration":237564,"Delta":361482473},{"NoteNumber":70,"Velocity":64,"Duration":711349,"SoundDuration":711349,"Delta":361730366},{"NoteNumber":79,"Velocity":71,"Duration":711349,"SoundDuration":711349,"Delta":361730366},{"NoteNumber":51,"Velocity":59,"Duration":944413,"SoundDuration":944413,"Delta":361730366},{"NoteNumber":63,"Velocity":59,"Duration":944413,"SoundDuration":944413,"Delta":361730366},{"NoteNumber":77,"Velocity":53,"Duration":233064,"SoundDuration":233064,"Delta":362441715},{"NoteNumber":81,"Velocity":66,"Duration":233064,"SoundDuration":233064,"Delta":362674779},{"NoteNumber":62,"Velocity":43,"Duration":462211,"SoundDuration":462211,"Delta":362674779},{"NoteNumber":82,"Velocity":63,"Duration":458295,"SoundDuration":458295,"Delta":362907843},{"NoteNumber":64,"Velocity":43,"Duration":462211,"SoundDuration":462211,"Delta":363136991},{"NoteNumber":67,"Velocity":43,"Duration":462211,"SoundDuration":462211,"Delta":363136991},{"NoteNumber":72,"Velocity":53,"Duration":233064,"SoundDuration":233064,"Delta":363366138},{"NoteNumber":74,"Velocity":53,"Duration":233064,"SoundDuration":233064,"Delta":363599202},{"NoteNumber":65,"Velocity":43,"Duration":462211,"SoundDuration":462211,"Delta":363599202},{"NoteNumber":82,"Velocity":68,"Duration":458295,"SoundDuration":458295,"Delta":363832266},{"NoteNumber":64,"Velocity":43,"Duration":462211,"SoundDuration":462211,"Delta":364061414},{"NoteNumber":67,"Velocity":43,"Duration":462211,"SoundDuration":462211,"Delta":364061414},{"NoteNumber":72,"Velocity":53,"Duration":233064,"SoundDuration":233064,"Delta":364290561},{"NoteNumber":74,"Velocity":53,"Duration":233064,"SoundDuration":233064,"Delta":364523625},{"NoteNumber":65,"Velocity":41,"Duration":466127,"SoundDuration":466127,"Delta":364523625},{"NoteNumber":82,"Velocity":67,"Duration":116531,"SoundDuration":116531,"Delta":364756689},{"NoteNumber":77,"Velocity":54,"Duration":474233,"SoundDuration":474233,"Delta":364989753},{"NoteNumber":67,"Velocity":43,"Duration":474233,"SoundDuration":474233,"Delta":364989753},{"NoteNumber":70,"Velocity":43,"Duration":474233,"SoundDuration":474233,"Delta":364989753},{"NoteNumber":76,"Velocity":53,"Duration":237116,"SoundDuration":237116,"Delta":365463986},{"NoteNumber":69,"Velocity":43,"Duration":474233,"SoundDuration":474233,"Delta":365463986},{"NoteNumber":72,"Velocity":43,"Duration":474233,"SoundDuration":474233,"Delta":365463986},{"NoteNumber":75,"Velocity":53,"Duration":237116,"SoundDuration":237116,"Delta":365701103},{"NoteNumber":74,"Velocity":48,"Duration":118558,"SoundDuration":118558,"Delta":365938219},{"NoteNumber":70,"Velocity":46,"Duration":469188,"SoundDuration":469188,"Delta":365938219},{"NoteNumber":74,"Velocity":54,"Duration":232072,"SoundDuration":232072,"Delta":366175336},{"NoteNumber":75,"Velocity":60,"Duration":232072,"SoundDuration":232072,"Delta":366407408},{"NoteNumber":77,"Velocity":64,"Duration":232072,"SoundDuration":232072,"Delta":366639481},{"NoteNumber":79,"Velocity":70,"Duration":696217,"SoundDuration":696217,"Delta":366871553},{"NoteNumber":55,"Velocity":54,"Duration":232072,"SoundDuration":232072,"Delta":367103626},{"NoteNumber":67,"Velocity":61,"Duration":116036,"SoundDuration":116036,"Delta":367335698},{"NoteNumber":81,"Velocity":70,"Duration":116036,"SoundDuration":116036,"Delta":367567771},{"NoteNumber":65,"Velocity":53,"Duration":116036,"SoundDuration":116036,"Delta":367567771},{"NoteNumber":83,"Velocity":67,"Duration":115057,"SoundDuration":115057,"Delta":367683807},{"NoteNumber":84,"Velocity":70,"Duration":115057,"SoundDuration":115057,"Delta":367798864},{"NoteNumber":63,"Velocity":60,"Duration":115057,"SoundDuration":115057,"Delta":367798864},{"NoteNumber":86,"Velocity":67,"Duration":115057,"SoundDuration":115057,"Delta":367913922},{"NoteNumber":87,"Velocity":70,"Duration":115057,"SoundDuration":115057,"Delta":368028979},{"NoteNumber":51,"Velocity":53,"Duration":230114,"SoundDuration":230114,"Delta":368028979},{"NoteNumber":86,"Velocity":66,"Duration":115057,"SoundDuration":115057,"Delta":368144036},{"NoteNumber":84,"Velocity":70,"Duration":115057,"SoundDuration":115057,"Delta":368259093},{"NoteNumber":63,"Velocity":61,"Duration":115057,"SoundDuration":115057,"Delta":368259093},{"NoteNumber":86,"Velocity":67,"Duration":115057,"SoundDuration":115057,"Delta":368374151},{"NoteNumber":82,"Velocity":70,"Duration":115057,"SoundDuration":115057,"Delta":368489208},{"NoteNumber":62,"Velocity":53,"Duration":115057,"SoundDuration":115057,"Delta":368489208},{"NoteNumber":84,"Velocity":67,"Duration":115057,"SoundDuration":115057,"Delta":368604265},{"NoteNumber":81,"Velocity":69,"Duration":114573,"SoundDuration":114573,"Delta":368719322},{"NoteNumber":60,"Velocity":57,"Duration":229147,"SoundDuration":229147,"Delta":368719322},{"NoteNumber":82,"Velocity":66,"Duration":114573,"SoundDuration":114573,"Delta":368833896},{"NoteNumber":79,"Velocity":69,"Duration":115057,"SoundDuration":115057,"Delta":368948470},{"NoteNumber":58,"Velocity":53,"Duration":230114,"SoundDuration":230114,"Delta":368948470},{"NoteNumber":81,"Velocity":64,"Duration":115057,"SoundDuration":115057,"Delta":369063527},{"NoteNumber":77,"Velocity":71,"Duration":115544,"SoundDuration":115544,"Delta":369178584},{"NoteNumber":57,"Velocity":53,"Duration":231088,"SoundDuration":231088,"Delta":369178584},{"NoteNumber":79,"Velocity":67,"Duration":115544,"SoundDuration":115544,"Delta":369294129},{"NoteNumber":75,"Velocity":71,"Duration":116036,"SoundDuration":116036,"Delta":369409673},{"NoteNumber":53,"Velocity":53,"Duration":232072,"SoundDuration":232072,"Delta":369409673},{"NoteNumber":77,"Velocity":67,"Duration":116036,"SoundDuration":116036,"Delta":369525710},{"NoteNumber":74,"Velocity":68,"Duration":116036,"SoundDuration":116036,"Delta":369641746},{"NoteNumber":58,"Velocity":60,"Duration":463489,"SoundDuration":463489,"Delta":369641746},{"NoteNumber":75,"Velocity":64,"Duration":116036,"SoundDuration":116036,"Delta":369757782},{"NoteNumber":77,"Velocity":68,"Duration":115872,"SoundDuration":115872,"Delta":369873818},{"NoteNumber":79,"Velocity":65,"Duration":115544,"SoundDuration":115544,"Delta":369989691},{"NoteNumber":81,"Velocity":70,"Duration":115544,"SoundDuration":115544,"Delta":370105235},{"NoteNumber":50,"Velocity":54,"Duration":464897,"SoundDuration":464897,"Delta":370105235},{"NoteNumber":82,"Velocity":66,"Duration":115219,"SoundDuration":115219,"Delta":370220780},{"NoteNumber":81,"Velocity":69,"Duration":115057,"SoundDuration":115057,"Delta":370335999},{"NoteNumber":82,"Velocity":65,"Duration":119076,"SoundDuration":119076,"Delta":370451057},{"NoteNumber":84,"Velocity":72,"Duration":114573,"SoundDuration":114573,"Delta":370570133},{"NoteNumber":51,"Velocity":59,"Duration":461766,"SoundDuration":461766,"Delta":370570133},{"NoteNumber":82,"Velocity":70,"Duration":114573,"SoundDuration":114573,"Delta":370684706},{"NoteNumber":81,"Velocity":69,"Duration":114573,"SoundDuration":114573,"Delta":370799280},{"NoteNumber":79,"Velocity":67,"Duration":118045,"SoundDuration":118045,"Delta":370913854},{"NoteNumber":81,"Velocity":72,"Duration":115057,"SoundDuration":115057,"Delta":371031899},{"NoteNumber":63,"Velocity":53,"Duration":460229,"SoundDuration":460229,"Delta":371031899},{"NoteNumber":79,"Velocity":70,"Duration":115057,"SoundDuration":115057,"Delta":371146956},{"NoteNumber":77,"Velocity":69,"Duration":115057,"SoundDuration":115057,"Delta":371262014},{"NoteNumber":75,"Velocity":67,"Duration":115057,"SoundDuration":115057,"Delta":371377071},{"NoteNumber":74,"Velocity":71,"Duration":470145,"SoundDuration":470145,"Delta":371492128},{"NoteNumber":65,"Velocity":54,"Duration":470145,"SoundDuration":470145,"Delta":371492128},{"NoteNumber":72,"Velocity":58,"Duration":60062,"SoundDuration":60062,"Delta":371962274},{"NoteNumber":69,"Velocity":58,"Duration":480500,"SoundDuration":480500,"Delta":371962274},{"NoteNumber":53,"Velocity":53,"Duration":480500,"SoundDuration":480500,"Delta":371962274},{"NoteNumber":74,"Velocity":54,"Duration":60062,"SoundDuration":60062,"Delta":372022337},{"NoteNumber":72,"Velocity":58,"Duration":60062,"SoundDuration":60062,"Delta":372082399},{"NoteNumber":74,"Velocity":53,"Duration":60062,"SoundDuration":60062,"Delta":372142462},{"NoteNumber":72,"Velocity":58,"Duration":40041,"SoundDuration":40041,"Delta":372202524},{"NoteNumber":74,"Velocity":54,"Duration":40041,"SoundDuration":40041,"Delta":372242566},{"NoteNumber":72,"Velocity":54,"Duration":40041,"SoundDuration":40041,"Delta":372282607},{"NoteNumber":70,"Velocity":66,"Duration":60062,"SoundDuration":60062,"Delta":372322649},{"NoteNumber":72,"Velocity":62,"Duration":60062,"SoundDuration":60062,"Delta":372382712},{"NoteNumber":70,"Velocity":75,"Duration":480500,"SoundDuration":480500,"Delta":372442774},{"NoteNumber":58,"Velocity":53,"Duration":120124,"SoundDuration":120124,"Delta":372442774},{"NoteNumber":65,"Velocity":46,"Duration":120125,"SoundDuration":120125,"Delta":372562899},{"NoteNumber":64,"Velocity":49,"Duration":120124,"SoundDuration":120124,"Delta":372683024},{"NoteNumber":65,"Velocity":46,"Duration":120125,"SoundDuration":120125,"Delta":372803149},{"NoteNumber":67,"Velocity":53,"Duration":120124,"SoundDuration":120124,"Delta":372923274},{"NoteNumber":65,"Velocity":47,"Duration":120125,"SoundDuration":120125,"Delta":373043399},{"NoteNumber":64,"Velocity":49,"Duration":120124,"SoundDuration":120124,"Delta":373163524},{"NoteNumber":65,"Velocity":46,"Duration":120125,"SoundDuration":120125,"Delta":373283649},{"NoteNumber":63,"Velocity":53,"Duration":120124,"SoundDuration":120124,"Delta":373403774},{"NoteNumber":65,"Velocity":51,"Duration":120125,"SoundDuration":120125,"Delta":373523899},{"NoteNumber":62,"Velocity":53,"Duration":120124,"SoundDuration":120124,"Delta":373644024},{"NoteNumber":65,"Velocity":49,"Duration":120125,"SoundDuration":120125,"Delta":373764149},{"NoteNumber":60,"Velocity":53,"Duration":120124,"SoundDuration":120124,"Delta":373884274},{"NoteNumber":65,"Velocity":50,"Duration":120124,"SoundDuration":120124,"Delta":374004399},{"NoteNumber":58,"Velocity":53,"Duration":120125,"SoundDuration":120125,"Delta":374124524},{"NoteNumber":65,"Velocity":50,"Duration":120124,"SoundDuration":120124,"Delta":374244649},{"NoteNumber":75,"Velocity":85,"Duration":237116,"SoundDuration":237116,"Delta":374364774},{"NoteNumber":57,"Velocity":48,"Duration":118558,"SoundDuration":118558,"Delta":374364774},{"NoteNumber":65,"Velocity":40,"Duration":118558,"SoundDuration":118558,"Delta":374483332},{"NoteNumber":72,"Velocity":56,"Duration":118558,"SoundDuration":118558,"Delta":374601891},{"NoteNumber":60,"Velocity":42,"Duration":118558,"SoundDuration":118558,"Delta":374601891},{"NoteNumber":65,"Velocity":38,"Duration":118558,"SoundDuration":118558,"Delta":374720449},{"NoteNumber":69,"Velocity":62,"Duration":118558,"SoundDuration":118558,"Delta":374839007},{"NoteNumber":63,"Velocity":48,"Duration":118558,"SoundDuration":118558,"Delta":374839007},{"NoteNumber":65,"Velocity":40,"Duration":118558,"SoundDuration":118558,"Delta":374957565},{"NoteNumber":69,"Velocity":56,"Duration":118558,"SoundDuration":118558,"Delta":375076124},{"NoteNumber":63,"Velocity":42,"Duration":118558,"SoundDuration":118558,"Delta":375076124},{"NoteNumber":65,"Velocity":39,"Duration":118558,"SoundDuration":118558,"Delta":375194682},{"NoteNumber":75,"Velocity":85,"Duration":237116,"SoundDuration":237116,"Delta":375313240},{"NoteNumber":57,"Velocity":47,"Duration":118558,"SoundDuration":118558,"Delta":375313240},{"NoteNumber":65,"Velocity":40,"Duration":118558,"SoundDuration":118558,"Delta":375431798},{"NoteNumber":72,"Velocity":54,"Duration":118558,"SoundDuration":118558,"Delta":375550357},{"NoteNumber":60,"Velocity":43,"Duration":118558,"SoundDuration":118558,"Delta":375550357},{"NoteNumber":65,"Velocity":40,"Duration":118558,"SoundDuration":118558,"Delta":375668915},{"NoteNumber":69,"Velocity":60,"Duration":118558,"SoundDuration":118558,"Delta":375787473},{"NoteNumber":63,"Velocity":48,"Duration":118558,"SoundDuration":118558,"Delta":375787473},{"NoteNumber":65,"Velocity":42,"Duration":118558,"SoundDuration":118558,"Delta":375906031},{"NoteNumber":69,"Velocity":54,"Duration":118558,"SoundDuration":118558,"Delta":376024590},{"NoteNumber":63,"Velocity":42,"Duration":118558,"SoundDuration":118558,"Delta":376024590},{"NoteNumber":65,"Velocity":42,"Duration":118558,"SoundDuration":118558,"Delta":376143148},{"NoteNumber":70,"Velocity":62,"Duration":116532,"SoundDuration":116532,"Delta":376261706},{"NoteNumber":62,"Velocity":44,"Duration":116532,"SoundDuration":116532,"Delta":376261706},{"NoteNumber":65,"Velocity":45,"Duration":116532,"SoundDuration":116532,"Delta":376378238},{"NoteNumber":72,"Velocity":63,"Duration":116532,"SoundDuration":116532,"Delta":376494770},{"NoteNumber":57,"Velocity":45,"Duration":116532,"SoundDuration":116532,"Delta":376494770},{"NoteNumber":65,"Velocity":45,"Duration":116532,"SoundDuration":116532,"Delta":376611302},{"NoteNumber":74,"Velocity":64,"Duration":116531,"SoundDuration":116531,"Delta":376727834},{"NoteNumber":58,"Velocity":46,"Duration":116531,"SoundDuration":116531,"Delta":376727834},{"NoteNumber":65,"Velocity":47,"Duration":116532,"SoundDuration":116532,"Delta":376844366},{"NoteNumber":75,"Velocity":66,"Duration":116532,"SoundDuration":116532,"Delta":376960898},{"NoteNumber":60,"Velocity":48,"Duration":116532,"SoundDuration":116532,"Delta":376960898},{"NoteNumber":65,"Velocity":49,"Duration":121192,"SoundDuration":121192,"Delta":377077430},{"NoteNumber":76,"Velocity":88,"Duration":235072,"SoundDuration":235072,"Delta":377198623},{"NoteNumber":61,"Velocity":53,"Duration":117536,"SoundDuration":117536,"Delta":377198623},{"NoteNumber":65,"Velocity":48,"Duration":117536,"SoundDuration":117536,"Delta":377316159},{"NoteNumber":77,"Velocity":75,"Duration":235072,"SoundDuration":235072,"Delta":377433696},{"NoteNumber":62,"Velocity":53,"Duration":117536,"SoundDuration":117536,"Delta":377433696},{"NoteNumber":65,"Velocity":46,"Duration":117536,"SoundDuration":117536,"Delta":377551232},{"NoteNumber":76,"Velocity":87,"Duration":235072,"SoundDuration":235072,"Delta":377668769},{"NoteNumber":61,"Velocity":53,"Duration":117536,"SoundDuration":117536,"Delta":377668769},{"NoteNumber":65,"Velocity":46,"Duration":117536,"SoundDuration":117536,"Delta":377786305},{"NoteNumber":77,"Velocity":75,"Duration":235072,"SoundDuration":235072,"Delta":377903842},{"NoteNumber":62,"Velocity":53,"Duration":117536,"SoundDuration":117536,"Delta":377903842},{"NoteNumber":65,"Velocity":47,"Duration":117536,"SoundDuration":117536,"Delta":378021378},{"NoteNumber":87,"Velocity":97,"Duration":237116,"SoundDuration":237116,"Delta":378138915},{"NoteNumber":75,"Velocity":82,"Duration":237116,"SoundDuration":237116,"Delta":378138915},{"NoteNumber":57,"Velocity":48,"Duration":118558,"SoundDuration":118558,"Delta":378138915},{"NoteNumber":65,"Velocity":39,"Duration":118558,"SoundDuration":118558,"Delta":378257473},{"NoteNumber":84,"Velocity":57,"Duration":118558,"SoundDuration":118558,"Delta":378376031},{"NoteNumber":72,"Velocity":48,"Duration":118558,"SoundDuration":118558,"Delta":378376031},{"NoteNumber":60,"Velocity":42,"Duration":118558,"SoundDuration":118558,"Delta":378376031},{"NoteNumber":65,"Velocity":39,"Duration":118558,"SoundDuration":118558,"Delta":378494589},{"NoteNumber":81,"Velocity":62,"Duration":118558,"SoundDuration":118558,"Delta":378613148},{"NoteNumber":69,"Velocity":52,"Duration":118558,"SoundDuration":118558,"Delta":378613148},{"NoteNumber":63,"Velocity":48,"Duration":118558,"SoundDuration":118558,"Delta":378613148},{"NoteNumber":65,"Velocity":40,"Duration":118558,"SoundDuration":118558,"Delta":378731706},{"NoteNumber":81,"Velocity":56,"Duration":118558,"SoundDuration":118558,"Delta":378850264},{"NoteNumber":69,"Velocity":47,"Duration":118558,"SoundDuration":118558,"Delta":378850264},{"NoteNumber":63,"Velocity":42,"Duration":118558,"SoundDuration":118558,"Delta":378850264},{"NoteNumber":65,"Velocity":39,"Duration":118558,"SoundDuration":118558,"Delta":378968822},{"NoteNumber":87,"Velocity":97,"Duration":237116,"SoundDuration":237116,"Delta":379087381},{"NoteNumber":75,"Velocity":82,"Duration":237116,"SoundDuration":237116,"Delta":379087381},{"NoteNumber":57,"Velocity":47,"Duration":118558,"SoundDuration":118558,"Delta":379087381},{"NoteNumber":65,"Velocity":39,"Duration":118558,"SoundDuration":118558,"Delta":379205939},{"NoteNumber":84,"Velocity":54,"Duration":118558,"SoundDuration":118558,"Delta":379324497},{"NoteNumber":72,"Velocity":45,"Duration":118558,"SoundDuration":118558,"Delta":379324497},{"NoteNumber":60,"Velocity":43,"Duration":118558,"SoundDuration":118558,"Delta":379324497},{"NoteNumber":65,"Velocity":39,"Duration":118558,"SoundDuration":118558,"Delta":379443055},{"NoteNumber":81,"Velocity":60,"Duration":118558,"SoundDuration":118558,"Delta":379561614},{"NoteNumber":69,"Velocity":51,"Duration":118558,"SoundDuration":118558,"Delta":379561614},{"NoteNumber":63,"Velocity":48,"Duration":118558,"SoundDuration":118558,"Delta":379561614},{"NoteNumber":65,"Velocity":42,"Duration":118558,"SoundDuration":118558,"Delta":379680172},{"NoteNumber":81,"Velocity":54,"Duration":118558,"SoundDuration":118558,"Delta":379798730},{"NoteNumber":69,"Velocity":45,"Duration":118558,"SoundDuration":118558,"Delta":379798730},{"NoteNumber":63,"Velocity":42,"Duration":118558,"SoundDuration":118558,"Delta":379798730},{"NoteNumber":65,"Velocity":42,"Duration":118558,"SoundDuration":118558,"Delta":379917288},{"NoteNumber":82,"Velocity":62,"Duration":116532,"SoundDuration":116532,"Delta":380035847},{"NoteNumber":70,"Velocity":52,"Duration":116532,"SoundDuration":116532,"Delta":380035847},{"NoteNumber":62,"Velocity":44,"Duration":116532,"SoundDuration":116532,"Delta":380035847},{"NoteNumber":65,"Velocity":45,"Duration":116532,"SoundDuration":116532,"Delta":380152379},{"NoteNumber":84,"Velocity":63,"Duration":116532,"SoundDuration":116532,"Delta":380268911},{"NoteNumber":72,"Velocity":53,"Duration":116532,"SoundDuration":116532,"Delta":380268911},{"NoteNumber":57,"Velocity":45,"Duration":116532,"SoundDuration":116532,"Delta":380268911},{"NoteNumber":65,"Velocity":45,"Duration":116532,"SoundDuration":116532,"Delta":380385443},{"NoteNumber":86,"Velocity":64,"Duration":116531,"SoundDuration":116531,"Delta":380501975},{"NoteNumber":74,"Velocity":54,"Duration":116531,"SoundDuration":116531,"Delta":380501975},{"NoteNumber":58,"Velocity":46,"Duration":116531,"SoundDuration":116531,"Delta":380501975},{"NoteNumber":65,"Velocity":47,"Duration":116532,"SoundDuration":116532,"Delta":380618507},{"NoteNumber":87,"Velocity":66,"Duration":116532,"SoundDuration":116532,"Delta":380735039},{"NoteNumber":75,"Velocity":56,"Duration":116532,"SoundDuration":116532,"Delta":380735039},{"NoteNumber":60,"Velocity":48,"Duration":116532,"SoundDuration":116532,"Delta":380735039},{"NoteNumber":65,"Velocity":49,"Duration":120656,"SoundDuration":120656,"Delta":380851571},{"NoteNumber":88,"Velocity":90,"Duration":236090,"SoundDuration":236090,"Delta":380972227},{"NoteNumber":76,"Velocity":76,"Duration":236090,"SoundDuration":236090,"Delta":380972227},{"NoteNumber":61,"Velocity":53,"Duration":118045,"SoundDuration":118045,"Delta":380972227},{"NoteNumber":65,"Velocity":48,"Duration":118045,"SoundDuration":118045,"Delta":381090272},{"NoteNumber":89,"Velocity":75,"Duration":236090,"SoundDuration":236090,"Delta":381208317},{"NoteNumber":77,"Velocity":63,"Duration":236090,"SoundDuration":236090,"Delta":381208317},{"NoteNumber":62,"Velocity":53,"Duration":118045,"SoundDuration":118045,"Delta":381208317},{"NoteNumber":65,"Velocity":46,"Duration":118045,"SoundDuration":118045,"Delta":381326363},{"NoteNumber":88,"Velocity":91,"Duration":236090,"SoundDuration":236090,"Delta":381444408},{"NoteNumber":76,"Velocity":77,"Duration":236090,"SoundDuration":236090,"Delta":381444408},{"NoteNumber":61,"Velocity":53,"Duration":118045,"SoundDuration":118045,"Delta":381444408},{"NoteNumber":65,"Velocity":46,"Duration":118045,"SoundDuration":118045,"Delta":381562453},{"NoteNumber":89,"Velocity":75,"Duration":261558,"SoundDuration":261558,"Delta":381680498},{"NoteNumber":77,"Velocity":63,"Duration":261558,"SoundDuration":261558,"Delta":381680498},{"NoteNumber":62,"Velocity":53,"Duration":118045,"SoundDuration":118045,"Delta":381680498},{"NoteNumber":65,"Velocity":47,"Duration":143513,"SoundDuration":143513,"Delta":381798544},{"NoteNumber":67,"Velocity":56,"Duration":944362,"SoundDuration":944362,"Delta":381942057},{"NoteNumber":79,"Velocity":66,"Duration":944362,"SoundDuration":944362,"Delta":381942057},{"NoteNumber":51,"Velocity":38,"Duration":236090,"SoundDuration":236090,"Delta":382178147},{"NoteNumber":50,"Velocity":40,"Duration":236090,"SoundDuration":236090,"Delta":382414238},{"NoteNumber":51,"Velocity":38,"Duration":236090,"SoundDuration":236090,"Delta":382650328},{"NoteNumber":57,"Velocity":45,"Duration":944362,"SoundDuration":944362,"Delta":382886419},{"NoteNumber":69,"Velocity":54,"Duration":944362,"SoundDuration":944362,"Delta":382886419},{"NoteNumber":53,"Velocity":38,"Duration":236090,"SoundDuration":236090,"Delta":383122509},{"NoteNumber":52,"Velocity":40,"Duration":236090,"SoundDuration":236090,"Delta":383358600},{"NoteNumber":53,"Velocity":38,"Duration":236090,"SoundDuration":236090,"Delta":383594690},{"NoteNumber":75,"Velocity":65,"Duration":944361,"SoundDuration":944361,"Delta":383830781},{"NoteNumber":87,"Velocity":77,"Duration":944361,"SoundDuration":944361,"Delta":383830781},{"NoteNumber":54,"Velocity":38,"Duration":236090,"SoundDuration":236090,"Delta":384066871},{"NoteNumber":52,"Velocity":42,"Duration":236090,"SoundDuration":236090,"Delta":384302962},{"NoteNumber":54,"Velocity":38,"Duration":236090,"SoundDuration":236090,"Delta":384539052},{"NoteNumber":74,"Velocity":57,"Duration":944362,"SoundDuration":944362,"Delta":384775143},{"NoteNumber":86,"Velocity":68,"Duration":944362,"SoundDuration":944362,"Delta":384775143},{"NoteNumber":55,"Velocity":40,"Duration":236090,"SoundDuration":236090,"Delta":385011233},{"NoteNumber":54,"Velocity":42,"Duration":236090,"SoundDuration":236090,"Delta":385247324},{"NoteNumber":55,"Velocity":39,"Duration":236090,"SoundDuration":236090,"Delta":385483414},{"NoteNumber":86,"Velocity":75,"Duration":139243,"SoundDuration":139243,"Delta":385719505},{"NoteNumber":84,"Velocity":68,"Duration":139243,"SoundDuration":139243,"Delta":385835541},{"NoteNumber":87,"Velocity":72,"Duration":139243,"SoundDuration":139243,"Delta":385951577},{"NoteNumber":86,"Velocity":67,"Duration":139243,"SoundDuration":139243,"Delta":386067614},{"NoteNumber":89,"Velocity":75,"Duration":139243,"SoundDuration":139243,"Delta":386183650},{"NoteNumber":63,"Velocity":54,"Duration":464145,"SoundDuration":464145,"Delta":386183650},{"NoteNumber":72,"Velocity":54,"Duration":464145,"SoundDuration":464145,"Delta":386183650},{"NoteNumber":87,"Velocity":71,"Duration":139243,"SoundDuration":139243,"Delta":386299686},{"NoteNumber":86,"Velocity":72,"Duration":139243,"SoundDuration":139243,"Delta":386415722},{"NoteNumber":84,"Velocity":68,"Duration":140274,"SoundDuration":140274,"Delta":386531759},{"NoteNumber":82,"Velocity":75,"Duration":484770,"SoundDuration":484770,"Delta":386647795},{"NoteNumber":65,"Velocity":54,"Duration":987409,"SoundDuration":987409,"Delta":386647795},{"NoteNumber":74,"Velocity":54,"Duration":484770,"SoundDuration":484770,"Delta":386647795},{"NoteNumber":81,"Velocity":63,"Duration":502638,"SoundDuration":502638,"Delta":387132565},{"NoteNumber":75,"Velocity":45,"Duration":502638,"SoundDuration":502638,"Delta":387132565},{"NoteNumber":70,"Velocity":34,"Duration":938388,"SoundDuration":938388,"Delta":387635204},{"NoteNumber":74,"Velocity":41,"Duration":938388,"SoundDuration":938388,"Delta":387635204},{"NoteNumber":82,"Velocity":47,"Duration":233064,"SoundDuration":233064,"Delta":387874400},{"NoteNumber":81,"Velocity":50,"Duration":233064,"SoundDuration":233064,"Delta":388107464},{"NoteNumber":82,"Velocity":47,"Duration":233063,"SoundDuration":233063,"Delta":388340528},{"NoteNumber":70,"Velocity":28,"Duration":936308,"SoundDuration":936308,"Delta":388573592},{"NoteNumber":74,"Velocity":34,"Duration":936308,"SoundDuration":936308,"Delta":388573592},{"NoteNumber":80,"Velocity":46,"Duration":233064,"SoundDuration":233064,"Delta":388810709},{"NoteNumber":79,"Velocity":51,"Duration":233064,"SoundDuration":233064,"Delta":389043773},{"NoteNumber":80,"Velocity":46,"Duration":233063,"SoundDuration":233063,"Delta":389276837},{"NoteNumber":71,"Velocity":29,"Duration":937343,"SoundDuration":937343,"Delta":389509901},{"NoteNumber":74,"Velocity":29,"Duration":937343,"SoundDuration":937343,"Delta":389509901},{"NoteNumber":77,"Velocity":35,"Duration":937343,"SoundDuration":937343,"Delta":389509901},{"NoteNumber":79,"Velocity":44,"Duration":233064,"SoundDuration":233064,"Delta":389748053},{"NoteNumber":78,"Velocity":48,"Duration":233064,"SoundDuration":233064,"Delta":389981117},{"NoteNumber":79,"Velocity":45,"Duration":233063,"SoundDuration":233063,"Delta":390214181},{"NoteNumber":72,"Velocity":28,"Duration":957866,"SoundDuration":957866,"Delta":390447245},{"NoteNumber":75,"Velocity":34,"Duration":957866,"SoundDuration":957866,"Delta":390447245},{"NoteNumber":79,"Velocity":44,"Duration":240250,"SoundDuration":240250,"Delta":390684361},{"NoteNumber":91,"Velocity":51,"Duration":240250,"SoundDuration":240250,"Delta":390924611},{"NoteNumber":91,"Velocity":48,"Duration":120124,"SoundDuration":120124,"Delta":391164861},{"NoteNumber":69,"Velocity":29,"Duration":936308,"SoundDuration":936308,"Delta":391405111},{"NoteNumber":72,"Velocity":29,"Duration":936308,"SoundDuration":936308,"Delta":391405111},{"NoteNumber":75,"Velocity":35,"Duration":936308,"SoundDuration":936308,"Delta":391405111},{"NoteNumber":91,"Velocity":50,"Duration":233064,"SoundDuration":233064,"Delta":391642228},{"NoteNumber":77,"Velocity":44,"Duration":233064,"SoundDuration":233064,"Delta":391875292},{"NoteNumber":77,"Velocity":44,"Duration":116531,"SoundDuration":116531,"Delta":392108356},{"NoteNumber":70,"Velocity":28,"Duration":947468,"SoundDuration":947468,"Delta":392341420},{"NoteNumber":74,"Velocity":33,"Duration":947468,"SoundDuration":947468,"Delta":392341420},{"NoteNumber":77,"Velocity":46,"Duration":236090,"SoundDuration":236090,"Delta":392580616},{"NoteNumber":86,"Velocity":51,"Duration":236090,"SoundDuration":236090,"Delta":392816707},{"NoteNumber":86,"Velocity":48,"Duration":118045,"SoundDuration":118045,"Delta":393052797},{"NoteNumber":67,"Velocity":29,"Duration":941388,"SoundDuration":941388,"Delta":393288888},{"NoteNumber":70,"Velocity":29,"Duration":941388,"SoundDuration":941388,"Delta":393288888},{"NoteNumber":74,"Velocity":35,"Duration":941388,"SoundDuration":941388,"Delta":393288888},{"NoteNumber":86,"Velocity":49,"Duration":234063,"SoundDuration":234063,"Delta":393528084},{"NoteNumber":75,"Velocity":45,"Duration":234063,"SoundDuration":234063,"Delta":393762148},{"NoteNumber":75,"Velocity":45,"Duration":117031,"SoundDuration":117031,"Delta":393996212},{"NoteNumber":69,"Velocity":28,"Duration":934369,"SoundDuration":934369,"Delta":394230276},{"NoteNumber":72,"Velocity":33,"Duration":934369,"SoundDuration":934369,"Delta":394230276},{"NoteNumber":75,"Velocity":44,"Duration":232072,"SoundDuration":232072,"Delta":394468428},{"NoteNumber":84,"Velocity":50,"Duration":232072,"SoundDuration":232072,"Delta":394700501},{"NoteNumber":84,"Velocity":47,"Duration":116036,"SoundDuration":116036,"Delta":394932573},{"NoteNumber":66,"Velocity":28,"Duration":937343,"SoundDuration":937343,"Delta":395164646},{"NoteNumber":69,"Velocity":28,"Duration":937343,"SoundDuration":937343,"Delta":395164646},{"NoteNumber":72,"Velocity":33,"Duration":937343,"SoundDuration":937343,"Delta":395164646},{"NoteNumber":84,"Velocity":48,"Duration":233064,"SoundDuration":233064,"Delta":395402798},{"NoteNumber":74,"Velocity":44,"Duration":233064,"SoundDuration":233064,"Delta":395635862},{"NoteNumber":74,"Velocity":44,"Duration":116531,"SoundDuration":116531,"Delta":395868926},{"NoteNumber":67,"Velocity":28,"Duration":965306,"SoundDuration":965306,"Delta":396101990},{"NoteNumber":70,"Velocity":34,"Duration":965306,"SoundDuration":965306,"Delta":396101990},{"NoteNumber":74,"Velocity":44,"Duration":242385,"SoundDuration":242385,"Delta":396340142},{"NoteNumber":82,"Velocity":49,"Duration":242385,"SoundDuration":242385,"Delta":396582527},{"NoteNumber":82,"Velocity":46,"Duration":121192,"SoundDuration":121192,"Delta":396824912},{"NoteNumber":82,"Velocity":54,"Duration":244558,"SoundDuration":244558,"Delta":397067297},{"NoteNumber":72,"Velocity":44,"Duration":122279,"SoundDuration":122279,"Delta":397311855},{"NoteNumber":64,"Velocity":30,"Duration":243539,"SoundDuration":243539,"Delta":397311855},{"NoteNumber":70,"Velocity":36,"Duration":243539,"SoundDuration":243539,"Delta":397311855},{"NoteNumber":64,"Velocity":35,"Duration":244558,"SoundDuration":244558,"Delta":397556414},{"NoteNumber":70,"Velocity":42,"Duration":243539,"SoundDuration":243539,"Delta":397556414},{"NoteNumber":64,"Velocity":32,"Duration":244558,"SoundDuration":244558,"Delta":397800972},{"NoteNumber":70,"Velocity":38,"Duration":244558,"SoundDuration":244558,"Delta":397800972},{"NoteNumber":82,"Velocity":63,"Duration":241312,"SoundDuration":241312,"Delta":398045531},{"NoteNumber":74,"Velocity":52,"Duration":120656,"SoundDuration":120656,"Delta":398286843},{"NoteNumber":65,"Velocity":34,"Duration":241312,"SoundDuration":241312,"Delta":398286843},{"NoteNumber":70,"Velocity":41,"Duration":241312,"SoundDuration":241312,"Delta":398286843},{"NoteNumber":65,"Velocity":39,"Duration":241312,"SoundDuration":241312,"Delta":398528156},{"NoteNumber":70,"Velocity":46,"Duration":241312,"SoundDuration":241312,"Delta":398528156},{"NoteNumber":65,"Velocity":37,"Duration":241312,"SoundDuration":241312,"Delta":398769468},{"NoteNumber":70,"Velocity":44,"Duration":241312,"SoundDuration":241312,"Delta":398769468},{"NoteNumber":82,"Velocity":69,"Duration":239196,"SoundDuration":239196,"Delta":399010781},{"NoteNumber":75,"Velocity":54,"Duration":119598,"SoundDuration":119598,"Delta":399249977},{"NoteNumber":67,"Velocity":39,"Duration":239196,"SoundDuration":239196,"Delta":399249977},{"NoteNumber":70,"Velocity":46,"Duration":239196,"SoundDuration":239196,"Delta":399249977},{"NoteNumber":67,"Velocity":45,"Duration":239196,"SoundDuration":239196,"Delta":399489174},{"NoteNumber":70,"Velocity":53,"Duration":239196,"SoundDuration":239196,"Delta":399489174},{"NoteNumber":67,"Velocity":42,"Duration":239196,"SoundDuration":239196,"Delta":399728370},{"NoteNumber":70,"Velocity":50,"Duration":239196,"SoundDuration":239196,"Delta":399728370},{"NoteNumber":82,"Velocity":81,"Duration":238152,"SoundDuration":238152,"Delta":399967567},{"NoteNumber":76,"Velocity":67,"Duration":119076,"SoundDuration":119076,"Delta":400205719},{"NoteNumber":66,"Velocity":53,"Duration":238152,"SoundDuration":238152,"Delta":400205719},{"NoteNumber":70,"Velocity":63,"Duration":238152,"SoundDuration":238152,"Delta":400205719},{"NoteNumber":66,"Velocity":58,"Duration":238151,"SoundDuration":238151,"Delta":400443871},{"NoteNumber":70,"Velocity":69,"Duration":238151,"SoundDuration":238151,"Delta":400443871},{"NoteNumber":66,"Velocity":54,"Duration":238152,"SoundDuration":238152,"Delta":400682023},{"NoteNumber":70,"Velocity":64,"Duration":238152,"SoundDuration":238152,"Delta":400682023},{"NoteNumber":82,"Velocity":89,"Duration":237116,"SoundDuration":237116,"Delta":400920175},{"NoteNumber":65,"Velocity":53,"Duration":474233,"SoundDuration":474233,"Delta":400920175},{"NoteNumber":70,"Velocity":63,"Duration":474233,"SoundDuration":474233,"Delta":400920175},{"NoteNumber":77,"Velocity":83,"Duration":118558,"SoundDuration":118558,"Delta":401157291},{"NoteNumber":82,"Velocity":89,"Duration":235072,"SoundDuration":235072,"Delta":401394408},{"NoteNumber":62,"Velocity":53,"Duration":470145,"SoundDuration":470145,"Delta":401394408},{"NoteNumber":70,"Velocity":63,"Duration":470145,"SoundDuration":470145,"Delta":401394408},{"NoteNumber":78,"Velocity":83,"Duration":117536,"SoundDuration":117536,"Delta":401629481},{"NoteNumber":82,"Velocity":89,"Duration":231088,"SoundDuration":231088,"Delta":401864554},{"NoteNumber":63,"Velocity":53,"Duration":462177,"SoundDuration":462177,"Delta":401864554},{"NoteNumber":70,"Velocity":63,"Duration":462177,"SoundDuration":462177,"Delta":401864554},{"NoteNumber":79,"Velocity":85,"Duration":231088,"SoundDuration":231088,"Delta":402095643},{"NoteNumber":87,"Velocity":89,"Duration":227238,"SoundDuration":227238,"Delta":402326732},{"NoteNumber":60,"Velocity":53,"Duration":454476,"SoundDuration":454476,"Delta":402326732},{"NoteNumber":65,"Velocity":63,"Duration":454476,"SoundDuration":454476,"Delta":402326732},{"NoteNumber":81,"Velocity":85,"Duration":227238,"SoundDuration":227238,"Delta":402553970},{"NoteNumber":86,"Velocity":82,"Duration":45447,"SoundDuration":45447,"Delta":402781209},{"NoteNumber":58,"Velocity":51,"Duration":462040,"SoundDuration":462040,"Delta":402781209},{"NoteNumber":65,"Velocity":60,"Duration":462040,"SoundDuration":462040,"Delta":402781209},{"NoteNumber":87,"Velocity":81,"Duration":45447,"SoundDuration":45447,"Delta":402826657},{"NoteNumber":86,"Velocity":85,"Duration":45447,"SoundDuration":45447,"Delta":402872104},{"NoteNumber":87,"Velocity":78,"Duration":45447,"SoundDuration":45447,"Delta":402917552},{"NoteNumber":86,"Velocity":78,"Duration":45447,"SoundDuration":45447,"Delta":402963000},{"NoteNumber":89,"Velocity":94,"Duration":234802,"SoundDuration":234802,"Delta":403008447},{"NoteNumber":82,"Velocity":81,"Duration":45447,"SoundDuration":45447,"Delta":403243249},{"NoteNumber":50,"Velocity":43,"Duration":460113,"SoundDuration":460113,"Delta":403243249},{"NoteNumber":53,"Velocity":51,"Duration":460113,"SoundDuration":460113,"Delta":403243249},{"NoteNumber":84,"Velocity":76,"Duration":45447,"SoundDuration":45447,"Delta":403288697},{"NoteNumber":82,"Velocity":81,"Duration":45447,"SoundDuration":45447,"Delta":403334145},{"NoteNumber":84,"Velocity":75,"Duration":45447,"SoundDuration":45447,"Delta":403379592},{"NoteNumber":82,"Velocity":75,"Duration":45447,"SoundDuration":45447,"Delta":403425040},{"NoteNumber":86,"Velocity":92,"Duration":232874,"SoundDuration":232874,"Delta":403470488},{"NoteNumber":79,"Velocity":75,"Duration":45447,"SoundDuration":45447,"Delta":403703363},{"NoteNumber":51,"Velocity":42,"Duration":461069,"SoundDuration":461069,"Delta":403703363},{"NoteNumber":58,"Velocity":50,"Duration":461069,"SoundDuration":461069,"Delta":403703363},{"NoteNumber":81,"Velocity":69,"Duration":45447,"SoundDuration":45447,"Delta":403748811},{"NoteNumber":79,"Velocity":75,"Duration":45447,"SoundDuration":45447,"Delta":403794258},{"NoteNumber":81,"Velocity":71,"Duration":45447,"SoundDuration":45447,"Delta":403839706},{"NoteNumber":79,"Velocity":71,"Duration":41660,"SoundDuration":41660,"Delta":403888941},{"NoteNumber":82,"Velocity":88,"Duration":233830,"SoundDuration":233830,"Delta":403930601},{"NoteNumber":72,"Velocity":71,"Duration":45447,"SoundDuration":45447,"Delta":404164432},{"NoteNumber":51,"Velocity":39,"Duration":454476,"SoundDuration":454476,"Delta":404164432},{"NoteNumber":55,"Velocity":46,"Duration":454476,"SoundDuration":454476,"Delta":404164432},{"NoteNumber":74,"Velocity":66,"Duration":45447,"SoundDuration":45447,"Delta":404209880},{"NoteNumber":72,"Velocity":71,"Duration":45447,"SoundDuration":45447,"Delta":404255327},{"NoteNumber":74,"Velocity":67,"Duration":45447,"SoundDuration":45447,"Delta":404300775},{"NoteNumber":72,"Velocity":67,"Duration":45447,"SoundDuration":45447,"Delta":404346223},{"NoteNumber":75,"Velocity":79,"Duration":227238,"SoundDuration":227238,"Delta":404391671},{"NoteNumber":65,"Velocity":74,"Duration":60062,"SoundDuration":60062,"Delta":404618909},{"NoteNumber":77,"Velocity":76,"Duration":139838,"SoundDuration":139838,"Delta":404739034},{"NoteNumber":79,"Velocity":78,"Duration":139838,"SoundDuration":139838,"Delta":404855566},{"NoteNumber":77,"Velocity":76,"Duration":139838,"SoundDuration":139838,"Delta":404972098},{"NoteNumber":75,"Velocity":76,"Duration":139838,"SoundDuration":139838,"Delta":405088630},{"NoteNumber":58,"Velocity":46,"Duration":942431,"SoundDuration":942431,"Delta":405088630},{"NoteNumber":50,"Velocity":46,"Duration":466127,"SoundDuration":466127,"Delta":405088630},{"NoteNumber":74,"Velocity":71,"Duration":139838,"SoundDuration":139838,"Delta":405205162},{"NoteNumber":72,"Velocity":72,"Duration":139838,"SoundDuration":139838,"Delta":405321694},{"NoteNumber":70,"Velocity":70,"Duration":140347,"SoundDuration":140347,"Delta":405438226},{"NoteNumber":72,"Velocity":54,"Duration":59537,"SoundDuration":59537,"Delta":405554758},{"NoteNumber":51,"Velocity":46,"Duration":476304,"SoundDuration":476304,"Delta":405554758},{"NoteNumber":74,"Velocity":50,"Duration":59538,"SoundDuration":59538,"Delta":405614296},{"NoteNumber":72,"Velocity":54,"Duration":59537,"SoundDuration":59537,"Delta":405673834},{"NoteNumber":74,"Velocity":49,"Duration":59538,"SoundDuration":59538,"Delta":405733372},{"NoteNumber":72,"Velocity":54,"Duration":59537,"SoundDuration":59537,"Delta":405792910},{"NoteNumber":74,"Velocity":49,"Duration":59538,"SoundDuration":59538,"Delta":405852448},{"NoteNumber":72,"Velocity":54,"Duration":59537,"SoundDuration":59537,"Delta":405911986},{"NoteNumber":74,"Velocity":49,"Duration":59538,"SoundDuration":59538,"Delta":405971524},{"NoteNumber":72,"Velocity":54,"Duration":59537,"SoundDuration":59537,"Delta":406031062},{"NoteNumber":57,"Velocity":46,"Duration":476303,"SoundDuration":476303,"Delta":406031062},{"NoteNumber":53,"Velocity":46,"Duration":476303,"SoundDuration":476303,"Delta":406031062},{"NoteNumber":74,"Velocity":49,"Duration":59537,"SoundDuration":59537,"Delta":406090600},{"NoteNumber":72,"Velocity":54,"Duration":59538,"SoundDuration":59538,"Delta":406150138},{"NoteNumber":74,"Velocity":51,"Duration":59537,"SoundDuration":59537,"Delta":406209676},{"NoteNumber":72,"Velocity":54,"Duration":39692,"SoundDuration":39692,"Delta":406269214},{"NoteNumber":74,"Velocity":50,"Duration":39692,"SoundDuration":39692,"Delta":406308906},{"NoteNumber":72,"Velocity":50,"Duration":39692,"SoundDuration":39692,"Delta":406348598},{"NoteNumber":70,"Velocity":66,"Duration":59538,"SoundDuration":59538,"Delta":406388290},{"NoteNumber":72,"Velocity":62,"Duration":59537,"SoundDuration":59537,"Delta":406447828},{"NoteNumber":70,"Velocity":70,"Duration":119076,"SoundDuration":119076,"Delta":406507366},{"NoteNumber":46,"Velocity":52,"Duration":119076,"SoundDuration":119076,"Delta":406507366},{"NoteNumber":58,"Velocity":52,"Duration":119076,"SoundDuration":119076,"Delta":406507366},{"NoteNumber":58,"Velocity":47,"Duration":116532,"SoundDuration":116532,"Delta":406745518},{"NoteNumber":62,"Velocity":45,"Duration":116532,"SoundDuration":116532,"Delta":406862050},{"NoteNumber":60,"Velocity":47,"Duration":116532,"SoundDuration":116532,"Delta":406978582},{"NoteNumber":57,"Velocity":35,"Duration":233064,"SoundDuration":233064,"Delta":406978582},{"NoteNumber":63,"Velocity":45,"Duration":116532,"SoundDuration":116532,"Delta":407095114},{"NoteNumber":62,"Velocity":47,"Duration":116531,"SoundDuration":116531,"Delta":407211646},{"NoteNumber":56,"Velocity":33,"Duration":233063,"SoundDuration":233063,"Delta":407211646},{"NoteNumber":65,"Velocity":45,"Duration":116532,"SoundDuration":116532,"Delta":407328178},{"NoteNumber":63,"Velocity":48,"Duration":120124,"SoundDuration":120124,"Delta":407444710},{"NoteNumber":46,"Velocity":43,"Duration":120124,"SoundDuration":120124,"Delta":407444710},{"NoteNumber":55,"Velocity":43,"Duration":120124,"SoundDuration":120124,"Delta":407444710},{"NoteNumber":58,"Velocity":52,"Duration":116532,"SoundDuration":116532,"Delta":407684960},{"NoteNumber":62,"Velocity":48,"Duration":116532,"SoundDuration":116532,"Delta":407801492},{"NoteNumber":60,"Velocity":52,"Duration":116532,"SoundDuration":116532,"Delta":407918024},{"NoteNumber":57,"Velocity":35,"Duration":233064,"SoundDuration":233064,"Delta":407918024},{"NoteNumber":63,"Velocity":48,"Duration":116532,"SoundDuration":116532,"Delta":408034556},{"NoteNumber":62,"Velocity":52,"Duration":116531,"SoundDuration":116531,"Delta":408151088},{"NoteNumber":56,"Velocity":33,"Duration":233063,"SoundDuration":233063,"Delta":408151088},{"NoteNumber":65,"Velocity":48,"Duration":116532,"SoundDuration":116532,"Delta":408267620},{"NoteNumber":63,"Velocity":52,"Duration":118558,"SoundDuration":118558,"Delta":408384152},{"NoteNumber":46,"Velocity":42,"Duration":118558,"SoundDuration":118558,"Delta":408384152},{"NoteNumber":55,"Velocity":42,"Duration":118558,"SoundDuration":118558,"Delta":408384152},{"NoteNumber":58,"Velocity":52,"Duration":116532,"SoundDuration":116532,"Delta":408621269},{"NoteNumber":62,"Velocity":55,"Duration":116532,"SoundDuration":116532,"Delta":408737801},{"NoteNumber":60,"Velocity":57,"Duration":116532,"SoundDuration":116532,"Delta":408854333},{"NoteNumber":57,"Velocity":47,"Duration":233064,"SoundDuration":233064,"Delta":408854333},{"NoteNumber":63,"Velocity":58,"Duration":116532,"SoundDuration":116532,"Delta":408970865},{"NoteNumber":62,"Velocity":59,"Duration":116531,"SoundDuration":116531,"Delta":409087397},{"NoteNumber":56,"Velocity":47,"Duration":233063,"SoundDuration":233063,"Delta":409087397},{"NoteNumber":65,"Velocity":62,"Duration":116532,"SoundDuration":116532,"Delta":409203929},{"NoteNumber":63,"Velocity":63,"Duration":116532,"SoundDuration":116532,"Delta":409320461},{"NoteNumber":55,"Velocity":51,"Duration":233064,"SoundDuration":233064,"Delta":409320461},{"NoteNumber":67,"Velocity":66,"Duration":116532,"SoundDuration":116532,"Delta":409436993},{"NoteNumber":65,"Velocity":67,"Duration":116532,"SoundDuration":116532,"Delta":409553525},{"NoteNumber":50,"Velocity":50,"Duration":233064,"SoundDuration":233064,"Delta":409553525},{"NoteNumber":68,"Velocity":69,"Duration":116532,"SoundDuration":116532,"Delta":409670057},{"NoteNumber":67,"Velocity":70,"Duration":116532,"SoundDuration":116532,"Delta":409786589},{"NoteNumber":51,"Velocity":50,"Duration":233064,"SoundDuration":233064,"Delta":409786589},{"NoteNumber":70,"Velocity":71,"Duration":116532,"SoundDuration":116532,"Delta":409903121},{"NoteNumber":69,"Velocity":73,"Duration":118558,"SoundDuration":118558,"Delta":410019653},{"NoteNumber":48,"Velocity":50,"Duration":237116,"SoundDuration":237116,"Delta":410019653},{"NoteNumber":72,"Velocity":75,"Duration":118558,"SoundDuration":118558,"Delta":410138211},{"NoteNumber":70,"Velocity":77,"Duration":116532,"SoundDuration":116532,"Delta":410256769},{"NoteNumber":50,"Velocity":57,"Duration":466128,"SoundDuration":466128,"Delta":410256769},{"NoteNumber":72,"Velocity":79,"Duration":116532,"SoundDuration":116532,"Delta":410373301},{"NoteNumber":74,"Velocity":82,"Duration":116532,"SoundDuration":116532,"Delta":410489833},{"NoteNumber":72,"Velocity":82,"Duration":116532,"SoundDuration":116532,"Delta":410606365},{"NoteNumber":70,"Velocity":80,"Duration":116532,"SoundDuration":116532,"Delta":410722897},{"NoteNumber":68,"Velocity":79,"Duration":116532,"SoundDuration":116532,"Delta":410839429},{"NoteNumber":67,"Velocity":78,"Duration":118558,"SoundDuration":118558,"Delta":410955961},{"NoteNumber":66,"Velocity":77,"Duration":118558,"SoundDuration":118558,"Delta":411074519},{"NoteNumber":67,"Velocity":78,"Duration":116532,"SoundDuration":116532,"Delta":411193078},{"NoteNumber":51,"Velocity":53,"Duration":466128,"SoundDuration":466128,"Delta":411193078},{"NoteNumber":72,"Velocity":79,"Duration":116532,"SoundDuration":116532,"Delta":411309610},{"NoteNumber":75,"Velocity":80,"Duration":116532,"SoundDuration":116532,"Delta":411426142},{"NoteNumber":74,"Velocity":79,"Duration":116532,"SoundDuration":116532,"Delta":411542674},{"NoteNumber":72,"Velocity":79,"Duration":116531,"SoundDuration":116531,"Delta":411659206},{"NoteNumber":70,"Velocity":78,"Duration":116532,"SoundDuration":116532,"Delta":411775738},{"NoteNumber":69,"Velocity":75,"Duration":116532,"SoundDuration":116532,"Delta":411892270},{"NoteNumber":67,"Velocity":74,"Duration":116532,"SoundDuration":116532,"Delta":412008802},{"NoteNumber":65,"Velocity":75,"Duration":118045,"SoundDuration":118045,"Delta":412125334},{"NoteNumber":53,"Velocity":52,"Duration":236090,"SoundDuration":236090,"Delta":412125334},{"NoteNumber":70,"Velocity":79,"Duration":118045,"SoundDuration":118045,"Delta":412243379},{"NoteNumber":74,"Velocity":82,"Duration":118045,"SoundDuration":118045,"Delta":412361424},{"NoteNumber":58,"Velocity":48,"Duration":236090,"SoundDuration":236090,"Delta":412361424},{"NoteNumber":77,"Velocity":88,"Duration":118045,"SoundDuration":118045,"Delta":412479469},{"NoteNumber":82,"Velocity":94,"Duration":121192,"SoundDuration":121192,"Delta":412597515},{"NoteNumber":62,"Velocity":48,"Duration":242385,"SoundDuration":242385,"Delta":412597515},{"NoteNumber":70,"Velocity":64,"Duration":118045,"SoundDuration":118045,"Delta":412839900},{"NoteNumber":74,"Velocity":64,"Duration":118045,"SoundDuration":118045,"Delta":412839900},{"NoteNumber":58,"Velocity":48,"Duration":236090,"SoundDuration":236090,"Delta":412839900},{"NoteNumber":74,"Velocity":70,"Duration":242385,"SoundDuration":242385,"Delta":413075990},{"NoteNumber":77,"Velocity":70,"Duration":242385,"SoundDuration":242385,"Delta":413075990},{"NoteNumber":53,"Velocity":53,"Duration":242385,"SoundDuration":242385,"Delta":413075990},{"NoteNumber":72,"Velocity":66,"Duration":121192,"SoundDuration":121192,"Delta":413318375},{"NoteNumber":75,"Velocity":66,"Duration":121192,"SoundDuration":121192,"Delta":413318375},{"NoteNumber":60,"Velocity":49,"Duration":242385,"SoundDuration":242385,"Delta":413318375},{"NoteNumber":70,"Velocity":67,"Duration":125083,"SoundDuration":125083,"Delta":413560760},{"NoteNumber":74,"Velocity":67,"Duration":125083,"SoundDuration":125083,"Delta":413560760},{"NoteNumber":63,"Velocity":49,"Duration":250166,"SoundDuration":250166,"Delta":413560760},{"NoteNumber":69,"Velocity":67,"Duration":125083,"SoundDuration":125083,"Delta":413810927},{"NoteNumber":72,"Velocity":67,"Duration":125083,"SoundDuration":125083,"Delta":413810927},{"NoteNumber":60,"Velocity":48,"Duration":250167,"SoundDuration":250167,"Delta":413810927},{"NoteNumber":70,"Velocity":67,"Duration":125083,"SoundDuration":125083,"Delta":414061094},{"NoteNumber":58,"Velocity":56,"Duration":125083,"SoundDuration":125083,"Delta":414061094},{"NoteNumber":62,"Velocity":56,"Duration":125083,"SoundDuration":125083,"Delta":414061094},{"NoteNumber":70,"Velocity":47,"Duration":116532,"SoundDuration":116532,"Delta":414311261},{"NoteNumber":74,"Velocity":45,"Duration":116532,"SoundDuration":116532,"Delta":414427793},{"NoteNumber":72,"Velocity":47,"Duration":116532,"SoundDuration":116532,"Delta":414544325},{"NoteNumber":69,"Velocity":35,"Duration":233064,"SoundDuration":233064,"Delta":414544325},{"NoteNumber":75,"Velocity":45,"Duration":116532,"SoundDuration":116532,"Delta":414660857},{"NoteNumber":74,"Velocity":47,"Duration":116531,"SoundDuration":116531,"Delta":414777389},{"NoteNumber":68,"Velocity":35,"Duration":233063,"SoundDuration":233063,"Delta":414777389},{"NoteNumber":77,"Velocity":45,"Duration":116532,"SoundDuration":116532,"Delta":414893921},{"NoteNumber":75,"Velocity":48,"Duration":120124,"SoundDuration":120124,"Delta":415010453},{"NoteNumber":58,"Velocity":43,"Duration":120124,"SoundDuration":120124,"Delta":415010453},{"NoteNumber":67,"Velocity":43,"Duration":120124,"SoundDuration":120124,"Delta":415010453},{"NoteNumber":82,"Velocity":62,"Duration":116532,"SoundDuration":116532,"Delta":415250703},{"NoteNumber":70,"Velocity":35,"Duration":233064,"SoundDuration":233064,"Delta":415250703},{"NoteNumber":86,"Velocity":58,"Duration":116532,"SoundDuration":116532,"Delta":415367235},{"NoteNumber":84,"Velocity":62,"Duration":116532,"SoundDuration":116532,"Delta":415483767},{"NoteNumber":69,"Velocity":35,"Duration":233064,"SoundDuration":233064,"Delta":415483767},{"NoteNumber":87,"Velocity":59,"Duration":116532,"SoundDuration":116532,"Delta":415600299},{"NoteNumber":86,"Velocity":62,"Duration":116531,"SoundDuration":116531,"Delta":415716831},{"NoteNumber":68,"Velocity":35,"Duration":233063,"SoundDuration":233063,"Delta":415716831},{"NoteNumber":89,"Velocity":58,"Duration":116532,"SoundDuration":116532,"Delta":415833363},{"NoteNumber":87,"Velocity":68,"Duration":118558,"SoundDuration":118558,"Delta":415949895},{"NoteNumber":58,"Velocity":46,"Duration":118558,"SoundDuration":118558,"Delta":415949895},{"NoteNumber":67,"Velocity":46,"Duration":118558,"SoundDuration":118558,"Delta":415949895},{"NoteNumber":70,"Velocity":55,"Duration":116532,"SoundDuration":116532,"Delta":416187012},{"NoteNumber":70,"Velocity":38,"Duration":233064,"SoundDuration":233064,"Delta":416187012},{"NoteNumber":74,"Velocity":56,"Duration":116532,"SoundDuration":116532,"Delta":416303544},{"NoteNumber":72,"Velocity":58,"Duration":116532,"SoundDuration":116532,"Delta":416420076},{"NoteNumber":69,"Velocity":47,"Duration":233064,"SoundDuration":233064,"Delta":416420076},{"NoteNumber":75,"Velocity":59,"Duration":116532,"SoundDuration":116532,"Delta":416536608},{"NoteNumber":74,"Velocity":61,"Duration":116531,"SoundDuration":116531,"Delta":416653140},{"NoteNumber":68,"Velocity":47,"Duration":233063,"SoundDuration":233063,"Delta":416653140},{"NoteNumber":77,"Velocity":63,"Duration":116532,"SoundDuration":116532,"Delta":416769672},{"NoteNumber":75,"Velocity":64,"Duration":116532,"SoundDuration":116532,"Delta":416886204},{"NoteNumber":67,"Velocity":51,"Duration":233064,"SoundDuration":233064,"Delta":416886204},{"NoteNumber":70,"Velocity":67,"Duration":116532,"SoundDuration":116532,"Delta":417002736},{"NoteNumber":77,"Velocity":68,"Duration":116532,"SoundDuration":116532,"Delta":417119268},{"NoteNumber":62,"Velocity":49,"Duration":233064,"SoundDuration":233064,"Delta":417119268},{"NoteNumber":70,"Velocity":69,"Duration":116532,"SoundDuration":116532,"Delta":417235800},{"NoteNumber":79,"Velocity":70,"Duration":116615,"SoundDuration":116615,"Delta":417352332},{"NoteNumber":63,"Velocity":50,"Duration":233815,"SoundDuration":233815,"Delta":417352332},{"NoteNumber":70,"Velocity":72,"Duration":117200,"SoundDuration":117200,"Delta":417468947},{"NoteNumber":81,"Velocity":74,"Duration":117875,"SoundDuration":117875,"Delta":417586147},{"NoteNumber":60,"Velocity":50,"Duration":238715,"SoundDuration":238715,"Delta":417586147},{"NoteNumber":70,"Velocity":75,"Duration":120839,"SoundDuration":120839,"Delta":417704023},{"NoteNumber":82,"Velocity":78,"Duration":116532,"SoundDuration":116532,"Delta":417824862},{"NoteNumber":50,"Velocity":68,"Duration":466128,"SoundDuration":466128,"Delta":417824862},{"NoteNumber":62,"Velocity":68,"Duration":466128,"SoundDuration":466128,"Delta":417824862},{"NoteNumber":84,"Velocity":78,"Duration":116532,"SoundDuration":116532,"Delta":417941394},{"NoteNumber":86,"Velocity":77,"Duration":116532,"SoundDuration":116532,"Delta":418057926},{"NoteNumber":84,"Velocity":75,"Duration":116532,"SoundDuration":116532,"Delta":418174458},{"NoteNumber":82,"Velocity":74,"Duration":116531,"SoundDuration":116531,"Delta":418290990},{"NoteNumber":80,"Velocity":73,"Duration":116532,"SoundDuration":116532,"Delta":418407522},{"NoteNumber":79,"Velocity":72,"Duration":116532,"SoundDuration":116532,"Delta":418524054},{"NoteNumber":78,"Velocity":71,"Duration":122830,"SoundDuration":122830,"Delta":418640586},{"NoteNumber":79,"Velocity":79,"Duration":116532,"SoundDuration":116532,"Delta":418763416},{"NoteNumber":63,"Velocity":69,"Duration":466128,"SoundDuration":466128,"Delta":418763416},{"NoteNumber":51,"Velocity":69,"Duration":466128,"SoundDuration":466128,"Delta":418763416},{"NoteNumber":77,"Velocity":79,"Duration":116532,"SoundDuration":116532,"Delta":418879948},{"NoteNumber":75,"Velocity":78,"Duration":116532,"SoundDuration":116532,"Delta":418996480},{"NoteNumber":74,"Velocity":77,"Duration":116532,"SoundDuration":116532,"Delta":419113012},{"NoteNumber":72,"Velocity":75,"Duration":116531,"SoundDuration":116531,"Delta":419229544},{"NoteNumber":70,"Velocity":74,"Duration":116532,"SoundDuration":116532,"Delta":419346076},{"NoteNumber":69,"Velocity":73,"Duration":116532,"SoundDuration":116532,"Delta":419462608},{"NoteNumber":67,"Velocity":73,"Duration":116532,"SoundDuration":116532,"Delta":419579140},{"NoteNumber":65,"Velocity":82,"Duration":233064,"SoundDuration":233064,"Delta":419695672},{"NoteNumber":53,"Velocity":48,"Duration":116532,"SoundDuration":116532,"Delta":419695672},{"NoteNumber":62,"Velocity":41,"Duration":116532,"SoundDuration":116532,"Delta":419812204},{"NoteNumber":89,"Velocity":82,"Duration":118045,"SoundDuration":118045,"Delta":419928736},{"NoteNumber":58,"Velocity":44,"Duration":118045,"SoundDuration":118045,"Delta":419928736},{"NoteNumber":62,"Velocity":39,"Duration":118045,"SoundDuration":118045,"Delta":420046782},{"NoteNumber":89,"Velocity":82,"Duration":118045,"SoundDuration":118045,"Delta":420164827},{"NoteNumber":53,"Velocity":48,"Duration":118045,"SoundDuration":118045,"Delta":420164827},{"NoteNumber":62,"Velocity":40,"Duration":118045,"SoundDuration":118045,"Delta":420282872},{"NoteNumber":89,"Velocity":82,"Duration":118045,"SoundDuration":118045,"Delta":420400917},{"NoteNumber":58,"Velocity":44,"Duration":118045,"SoundDuration":118045,"Delta":420400917},{"NoteNumber":62,"Velocity":41,"Duration":118045,"SoundDuration":118045,"Delta":420518963},{"NoteNumber":89,"Velocity":81,"Duration":116532,"SoundDuration":116532,"Delta":420637008},{"NoteNumber":53,"Velocity":48,"Duration":116532,"SoundDuration":116532,"Delta":420637008},{"NoteNumber":86,"Velocity":76,"Duration":116532,"SoundDuration":116532,"Delta":420753540},{"NoteNumber":62,"Velocity":42,"Duration":116532,"SoundDuration":116532,"Delta":420753540},{"NoteNumber":82,"Velocity":71,"Duration":116532,"SoundDuration":116532,"Delta":420870072},{"NoteNumber":58,"Velocity":46,"Duration":116532,"SoundDuration":116532,"Delta":420870072},{"NoteNumber":77,"Velocity":69,"Duration":116449,"SoundDuration":116449,"Delta":420986604},{"NoteNumber":62,"Velocity":42,"Duration":116449,"SoundDuration":116449,"Delta":420986604},{"NoteNumber":82,"Velocity":81,"Duration":115544,"SoundDuration":115544,"Delta":421103053},{"NoteNumber":53,"Velocity":48,"Duration":115544,"SoundDuration":115544,"Delta":421103053},{"NoteNumber":77,"Velocity":75,"Duration":115544,"SoundDuration":115544,"Delta":421218598},{"NoteNumber":62,"Velocity":44,"Duration":115544,"SoundDuration":115544,"Delta":421218598},{"NoteNumber":74,"Velocity":71,"Duration":115544,"SoundDuration":115544,"Delta":421334142},{"NoteNumber":58,"Velocity":46,"Duration":115544,"SoundDuration":115544,"Delta":421334142},{"NoteNumber":70,"Velocity":69,"Duration":115792,"SoundDuration":115792,"Delta":421449687},{"NoteNumber":62,"Velocity":43,"Duration":115792,"SoundDuration":115792,"Delta":421449687},{"NoteNumber":72,"Velocity":51,"Duration":74694,"SoundDuration":74694,"Delta":421565479},{"NoteNumber":53,"Velocity":48,"Duration":111390,"SoundDuration":111390,"Delta":421565479},{"NoteNumber":74,"Velocity":46,"Duration":73677,"SoundDuration":73677,"Delta":421640174},{"NoteNumber":63,"Velocity":40,"Duration":110307,"SoundDuration":110307,"Delta":421676870},{"NoteNumber":72,"Velocity":51,"Duration":73326,"SoundDuration":73326,"Delta":421713851},{"NoteNumber":74,"Velocity":46,"Duration":72516,"SoundDuration":72516,"Delta":421787177},{"NoteNumber":57,"Velocity":43,"Duration":108443,"SoundDuration":108443,"Delta":421787177},{"NoteNumber":72,"Velocity":51,"Duration":72054,"SoundDuration":72054,"Delta":421859694},{"NoteNumber":63,"Velocity":40,"Duration":108786,"SoundDuration":108786,"Delta":421895621},{"NoteNumber":74,"Velocity":46,"Duration":72658,"SoundDuration":72658,"Delta":421931749},{"NoteNumber":72,"Velocity":51,"Duration":71655,"SoundDuration":71655,"Delta":422004407},{"NoteNumber":53,"Velocity":48,"Duration":107497,"SoundDuration":107497,"Delta":422004407},{"NoteNumber":74,"Velocity":46,"Duration":71711,"SoundDuration":71711,"Delta":422076062},{"NoteNumber":63,"Velocity":39,"Duration":107354,"SoundDuration":107354,"Delta":422111904},{"NoteNumber":72,"Velocity":51,"Duration":71484,"SoundDuration":71484,"Delta":422147774},{"NoteNumber":74,"Velocity":46,"Duration":72514,"SoundDuration":72514,"Delta":422219259},{"NoteNumber":57,"Velocity":43,"Duration":108727,"SoundDuration":108727,"Delta":422219259},{"NoteNumber":72,"Velocity":51,"Duration":72500,"SoundDuration":72500,"Delta":422291773},{"NoteNumber":63,"Velocity":39,"Duration":111115,"SoundDuration":111115,"Delta":422327987},{"NoteNumber":74,"Velocity":46,"Duration":74828,"SoundDuration":74828,"Delta":422364273},{"NoteNumber":72,"Velocity":51,"Duration":76033,"SoundDuration":76033,"Delta":422439102},{"NoteNumber":53,"Velocity":48,"Duration":114225,"SoundDuration":114225,"Delta":422439102},{"NoteNumber":74,"Velocity":46,"Duration":77035,"SoundDuration":77035,"Delta":422515136},{"NoteNumber":63,"Velocity":39,"Duration":116532,"SoundDuration":116532,"Delta":422553327},{"NoteNumber":72,"Velocity":51,"Duration":77688,"SoundDuration":77688,"Delta":422592171},{"NoteNumber":74,"Velocity":48,"Duration":78021,"SoundDuration":78021,"Delta":422669859},{"NoteNumber":57,"Velocity":43,"Duration":117031,"SoundDuration":117031,"Delta":422669859},{"NoteNumber":72,"Velocity":51,"Duration":78189,"SoundDuration":78189,"Delta":422747881},{"NoteNumber":63,"Velocity":38,"Duration":117536,"SoundDuration":117536,"Delta":422786891},{"NoteNumber":74,"Velocity":47,"Duration":78357,"SoundDuration":78357,"Delta":422826070},{"NoteNumber":72,"Velocity":51,"Duration":59022,"SoundDuration":59022,"Delta":422904428},{"NoteNumber":53,"Velocity":48,"Duration":118045,"SoundDuration":118045,"Delta":422904428},{"NoteNumber":74,"Velocity":48,"Duration":59022,"SoundDuration":59022,"Delta":422963450},{"NoteNumber":72,"Velocity":51,"Duration":59279,"SoundDuration":59279,"Delta":423022473},{"NoteNumber":63,"Velocity":42,"Duration":118558,"SoundDuration":118558,"Delta":423022473},{"NoteNumber":74,"Velocity":47,"Duration":59279,"SoundDuration":59279,"Delta":423081752},{"NoteNumber":72,"Velocity":51,"Duration":39692,"SoundDuration":39692,"Delta":423141031},{"NoteNumber":57,"Velocity":45,"Duration":119076,"SoundDuration":119076,"Delta":423141031},{"NoteNumber":74,"Velocity":48,"Duration":39692,"SoundDuration":39692,"Delta":423180723},{"NoteNumber":72,"Velocity":48,"Duration":39692,"SoundDuration":39692,"Delta":423220415},{"NoteNumber":70,"Velocity":62,"Duration":59799,"SoundDuration":59799,"Delta":423260107},{"NoteNumber":63,"Velocity":40,"Duration":119598,"SoundDuration":119598,"Delta":423260107},{"NoteNumber":72,"Velocity":58,"Duration":59799,"SoundDuration":59799,"Delta":423319906},{"NoteNumber":70,"Velocity":69,"Duration":236245,"SoundDuration":236245,"Delta":423379706},{"NoteNumber":58,"Velocity":51,"Duration":240250,"SoundDuration":240250,"Delta":423379706},{"NoteNumber":82,"Velocity":54,"Duration":240250,"SoundDuration":240250,"Delta":423619956},{"NoteNumber":70,"Velocity":44,"Duration":240250,"SoundDuration":240250,"Delta":423619956},{"NoteNumber":69,"Velocity":44,"Duration":240250,"SoundDuration":240250,"Delta":423860206},{"NoteNumber":82,"Velocity":58,"Duration":233899,"SoundDuration":233899,"Delta":424100456},{"NoteNumber":70,"Velocity":48,"Duration":233899,"SoundDuration":233899,"Delta":424100456},{"NoteNumber":81,"Velocity":56,"Duration":236863,"SoundDuration":236863,"Delta":424334355},{"NoteNumber":72,"Velocity":49,"Duration":236863,"SoundDuration":236863,"Delta":424334355},{"NoteNumber":82,"Velocity":61,"Duration":239989,"SoundDuration":239989,"Delta":424571218},{"NoteNumber":70,"Velocity":52,"Duration":239989,"SoundDuration":239989,"Delta":424571218},{"NoteNumber":84,"Velocity":68,"Duration":243199,"SoundDuration":243199,"Delta":424811208},{"NoteNumber":69,"Velocity":56,"Duration":243199,"SoundDuration":243199,"Delta":424811208},{"NoteNumber":86,"Velocity":72,"Duration":246496,"SoundDuration":246496,"Delta":425054408},{"NoteNumber":68,"Velocity":59,"Duration":246496,"SoundDuration":246496,"Delta":425054408},{"NoteNumber":87,"Velocity":79,"Duration":116532,"SoundDuration":116532,"Delta":425300905},{"NoteNumber":67,"Velocity":64,"Duration":233064,"SoundDuration":233064,"Delta":425300905},{"NoteNumber":86,"Velocity":73,"Duration":116532,"SoundDuration":116532,"Delta":425417437},{"NoteNumber":87,"Velocity":76,"Duration":116532,"SoundDuration":116532,"Delta":425533969},{"NoteNumber":58,"Velocity":49,"Duration":233064,"SoundDuration":233064,"Delta":425533969},{"NoteNumber":86,"Velocity":70,"Duration":116532,"SoundDuration":116532,"Delta":425650501},{"NoteNumber":87,"Velocity":75,"Duration":116531,"SoundDuration":116531,"Delta":425767033},{"NoteNumber":66,"Velocity":58,"Duration":233063,"SoundDuration":233063,"Delta":425767033},{"NoteNumber":85,"Velocity":67,"Duration":116532,"SoundDuration":116532,"Delta":425883565},{"NoteNumber":84,"Velocity":69,"Duration":116532,"SoundDuration":116532,"Delta":426000097},{"NoteNumber":58,"Velocity":49,"Duration":236130,"SoundDuration":236130,"Delta":426000097},{"NoteNumber":82,"Velocity":65,"Duration":119598,"SoundDuration":119598,"Delta":426116629},{"NoteNumber":81,"Velocity":67,"Duration":116532,"SoundDuration":116532,"Delta":426236227},{"NoteNumber":65,"Velocity":57,"Duration":233564,"SoundDuration":233564,"Delta":426236227},{"NoteNumber":82,"Velocity":70,"Duration":117031,"SoundDuration":117031,"Delta":426352759},{"NoteNumber":84,"Velocity":72,"Duration":117536,"SoundDuration":117536,"Delta":426469791},{"NoteNumber":58,"Velocity":48,"Duration":235581,"SoundDuration":235581,"Delta":426469791},{"NoteNumber":82,"Velocity":67,"Duration":118045,"SoundDuration":118045,"Delta":426587327},{"NoteNumber":81,"Velocity":69,"Duration":118558,"SoundDuration":118558,"Delta":426705373},{"NoteNumber":69,"Velocity":55,"Duration":237634,"SoundDuration":237634,"Delta":426705373},{"NoteNumber":79,"Velocity":66,"Duration":119076,"SoundDuration":119076,"Delta":426823931},{"NoteNumber":77,"Velocity":66,"Duration":119598,"SoundDuration":119598,"Delta":426943007},{"NoteNumber":58,"Velocity":48,"Duration":239723,"SoundDuration":239723,"Delta":426943007},{"NoteNumber":75,"Velocity":65,"Duration":120124,"SoundDuration":120124,"Delta":427062605},{"NoteNumber":74,"Velocity":63,"Duration":120656,"SoundDuration":120656,"Delta":427182730},{"NoteNumber":70,"Velocity":53,"Duration":120656,"SoundDuration":120656,"Delta":427182730},{"NoteNumber":74,"Velocity":49,"Duration":120656,"SoundDuration":120656,"Delta":427424043},{"NoteNumber":58,"Velocity":41,"Duration":241312,"SoundDuration":241312,"Delta":427424043},{"NoteNumber":57,"Velocity":41,"Duration":241312,"SoundDuration":241312,"Delta":427665355},{"NoteNumber":70,"Velocity":53,"Duration":241312,"SoundDuration":241312,"Delta":427906668},{"NoteNumber":58,"Velocity":37,"Duration":241312,"SoundDuration":241312,"Delta":427906668},{"NoteNumber":69,"Velocity":49,"Duration":242569,"SoundDuration":242569,"Delta":428147980},{"NoteNumber":60,"Velocity":45,"Duration":242569,"SoundDuration":242569,"Delta":428147980},{"NoteNumber":70,"Velocity":49,"Duration":246312,"SoundDuration":246312,"Delta":428390549},{"NoteNumber":58,"Velocity":43,"Duration":246312,"SoundDuration":246312,"Delta":428390549},{"NoteNumber":72,"Velocity":49,"Duration":250363,"SoundDuration":250363,"Delta":428636862},{"NoteNumber":57,"Velocity":43,"Duration":250363,"SoundDuration":250363,"Delta":428636862},{"NoteNumber":74,"Velocity":49,"Duration":254352,"SoundDuration":254352,"Delta":428887225},{"NoteNumber":56,"Velocity":38,"Duration":254352,"SoundDuration":254352,"Delta":428887225},{"NoteNumber":75,"Velocity":52,"Duration":128623,"SoundDuration":128623,"Delta":429141578},{"NoteNumber":55,"Velocity":45,"Duration":514492,"SoundDuration":514492,"Delta":429141578},{"NoteNumber":77,"Velocity":52,"Duration":64311,"SoundDuration":64311,"Delta":429398824},{"NoteNumber":75,"Velocity":49,"Duration":64311,"SoundDuration":64311,"Delta":429463135},{"NoteNumber":74,"Velocity":52,"Duration":64311,"SoundDuration":64311,"Delta":429527447},{"NoteNumber":75,"Velocity":48,"Duration":64311,"SoundDuration":64311,"Delta":429591758},{"NoteNumber":77,"Velocity":54,"Duration":257246,"SoundDuration":257246,"Delta":429656070},{"NoteNumber":51,"Velocity":35,"Duration":538355,"SoundDuration":538355,"Delta":429656070},{"NoteNumber":79,"Velocity":61,"Duration":269396,"SoundDuration":269396,"Delta":429913316},{"NoteNumber":75,"Velocity":49,"Duration":269978,"SoundDuration":269978,"Delta":430194425},{"NoteNumber":79,"Velocity":49,"Duration":269978,"SoundDuration":269978,"Delta":430194425},{"NoteNumber":53,"Velocity":35,"Duration":539957,"SoundDuration":539957,"Delta":430194425},{"NoteNumber":74,"Velocity":42,"Duration":269978,"SoundDuration":269978,"Delta":430464404},{"NoteNumber":77,"Velocity":42,"Duration":269978,"SoundDuration":269978,"Delta":430464404},{"NoteNumber":53,"Velocity":35,"Duration":541860,"SoundDuration":541860,"Delta":430734382},{"NoteNumber":63,"Velocity":30,"Duration":279668,"SoundDuration":279668,"Delta":430996574},{"NoteNumber":69,"Velocity":30,"Duration":279668,"SoundDuration":279668,"Delta":430996574},{"NoteNumber":63,"Velocity":45,"Duration":1253851,"SoundDuration":1253851,"Delta":431276242},{"NoteNumber":72,"Velocity":45,"Duration":1253851,"SoundDuration":1253851,"Delta":431276242},{"NoteNumber":58,"Velocity":37,"Duration":592767,"SoundDuration":592767,"Delta":431276242},{"NoteNumber":53,"Velocity":28,"Duration":661084,"SoundDuration":661084,"Delta":431869010},{"NoteNumber":62,"Velocity":32,"Duration":495812,"SoundDuration":495812,"Delta":432530094},{"NoteNumber":70,"Velocity":32,"Duration":495812,"SoundDuration":495812,"Delta":432530094},{"NoteNumber":46,"Velocity":28,"Duration":495812,"SoundDuration":495812,"Delta":432530094},{"NoteNumber":74,"Velocity":57,"Duration":116532,"SoundDuration":116532,"Delta":433472735},{"NoteNumber":72,"Velocity":56,"Duration":116532,"SoundDuration":116532,"Delta":433589267},{"NoteNumber":70,"Velocity":54,"Duration":116532,"SoundDuration":116532,"Delta":433705799},{"NoteNumber":69,"Velocity":52,"Duration":116532,"SoundDuration":116532,"Delta":433822331},{"NoteNumber":67,"Velocity":60,"Duration":236090,"SoundDuration":236090,"Delta":433938863},{"NoteNumber":65,"Velocity":47,"Duration":226253,"SoundDuration":226253,"Delta":434174953},{"NoteNumber":41,"Velocity":33,"Duration":236090,"SoundDuration":236090,"Delta":434174953},{"NoteNumber":65,"Velocity":47,"Duration":708271,"SoundDuration":708271,"Delta":434411044},{"NoteNumber":45,"Velocity":35,"Duration":236090,"SoundDuration":236090,"Delta":434411044},{"NoteNumber":48,"Velocity":33,"Duration":236090,"SoundDuration":236090,"Delta":434647134},{"NoteNumber":45,"Velocity":38,"Duration":236090,"SoundDuration":236090,"Delta":434883225},{"NoteNumber":77,"Velocity":52,"Duration":233064,"SoundDuration":233064,"Delta":435119315},{"NoteNumber":41,"Velocity":32,"Duration":233064,"SoundDuration":233064,"Delta":435119315},{"NoteNumber":79,"Velocity":57,"Duration":233064,"SoundDuration":233064,"Delta":435352379},{"NoteNumber":45,"Velocity":34,"Duration":233064,"SoundDuration":233064,"Delta":435352379},{"NoteNumber":81,"Velocity":61,"Duration":233063,"SoundDuration":233063,"Delta":435585443},{"NoteNumber":48,"Velocity":32,"Duration":233063,"SoundDuration":233063,"Delta":435585443},{"NoteNumber":76,"Velocity":55,"Duration":58266,"SoundDuration":58266,"Delta":435760241},{"NoteNumber":82,"Velocity":69,"Duration":354135,"SoundDuration":354135,"Delta":435818507},{"NoteNumber":55,"Velocity":32,"Duration":236090,"SoundDuration":236090,"Delta":436054598},{"NoteNumber":79,"Velocity":64,"Duration":118045,"SoundDuration":118045,"Delta":436172643},{"NoteNumber":76,"Velocity":56,"Duration":472181,"SoundDuration":472181,"Delta":436290688},{"NoteNumber":58,"Velocity":35,"Duration":236090,"SoundDuration":236090,"Delta":436290688},{"NoteNumber":64,"Velocity":33,"Duration":236090,"SoundDuration":236090,"Delta":436526779},{"NoteNumber":58,"Velocity":34,"Duration":236090,"SoundDuration":236090,"Delta":436762869},{"NoteNumber":55,"Velocity":30,"Duration":236090,"SoundDuration":236090,"Delta":436998960},{"NoteNumber":72,"Velocity":48,"Duration":116532,"SoundDuration":116532,"Delta":437235050},{"NoteNumber":58,"Velocity":34,"Duration":233064,"SoundDuration":233064,"Delta":437235050},{"NoteNumber":70,"Velocity":48,"Duration":116532,"SoundDuration":116532,"Delta":437351582},{"NoteNumber":69,"Velocity":48,"Duration":116532,"SoundDuration":116532,"Delta":437468114},{"NoteNumber":64,"Velocity":30,"Duration":233064,"SoundDuration":233064,"Delta":437468114},{"NoteNumber":67,"Velocity":46,"Duration":116532,"SoundDuration":116532,"Delta":437584646},{"NoteNumber":65,"Velocity":53,"Duration":237116,"SoundDuration":237116,"Delta":437701178},{"NoteNumber":64,"Velocity":47,"Duration":227236,"SoundDuration":227236,"Delta":437938295},{"NoteNumber":43,"Velocity":32,"Duration":237116,"SoundDuration":237116,"Delta":437938295},{"NoteNumber":64,"Velocity":47,"Duration":711349,"SoundDuration":711349,"Delta":438175411},{"NoteNumber":46,"Velocity":35,"Duration":237116,"SoundDuration":237116,"Delta":438175411},{"NoteNumber":52,"Velocity":32,"Duration":237116,"SoundDuration":237116,"Delta":438412528},{"NoteNumber":46,"Velocity":39,"Duration":237116,"SoundDuration":237116,"Delta":438649644},{"NoteNumber":79,"Velocity":53,"Duration":234063,"SoundDuration":234063,"Delta":438886761},{"NoteNumber":43,"Velocity":33,"Duration":234063,"SoundDuration":234063,"Delta":438886761},{"NoteNumber":81,"Velocity":58,"Duration":234063,"SoundDuration":234063,"Delta":439120825},{"NoteNumber":46,"Velocity":35,"Duration":234063,"SoundDuration":234063,"Delta":439120825},{"NoteNumber":82,"Velocity":63,"Duration":234064,"SoundDuration":234064,"Delta":439354889},{"NoteNumber":52,"Velocity":33,"Duration":234064,"SoundDuration":234064,"Delta":439354889},{"NoteNumber":78,"Velocity":52,"Duration":58515,"SoundDuration":58515,"Delta":439530437},{"NoteNumber":84,"Velocity":68,"Duration":355674,"SoundDuration":355674,"Delta":439588953},{"NoteNumber":57,"Velocity":33,"Duration":237116,"SoundDuration":237116,"Delta":439826069},{"NoteNumber":81,"Velocity":65,"Duration":118558,"SoundDuration":118558,"Delta":439944628},{"NoteNumber":78,"Velocity":57,"Duration":474232,"SoundDuration":474232,"Delta":440063186},{"NoteNumber":60,"Velocity":35,"Duration":237116,"SoundDuration":237116,"Delta":440063186},{"NoteNumber":63,"Velocity":34,"Duration":237116,"SoundDuration":237116,"Delta":440300302},{"NoteNumber":60,"Velocity":37,"Duration":237116,"SoundDuration":237116,"Delta":440537419},{"NoteNumber":81,"Velocity":60,"Duration":233064,"SoundDuration":233064,"Delta":440774535},{"NoteNumber":57,"Velocity":32,"Duration":233064,"SoundDuration":233064,"Delta":440774535},{"NoteNumber":82,"Velocity":64,"Duration":233064,"SoundDuration":233064,"Delta":441007599},{"NoteNumber":60,"Velocity":34,"Duration":233064,"SoundDuration":233064,"Delta":441007599},{"NoteNumber":84,"Velocity":69,"Duration":243467,"SoundDuration":243467,"Delta":441240663},{"NoteNumber":63,"Velocity":34,"Duration":243467,"SoundDuration":243467,"Delta":441240663},{"NoteNumber":79,"Velocity":66,"Duration":60866,"SoundDuration":60866,"Delta":441423264},{"NoteNumber":86,"Velocity":84,"Duration":355674,"SoundDuration":355674,"Delta":441484130},{"NoteNumber":46,"Velocity":41,"Duration":237116,"SoundDuration":237116,"Delta":441721247},{"NoteNumber":82,"Velocity":77,"Duration":118558,"SoundDuration":118558,"Delta":441839805},{"NoteNumber":79,"Velocity":72,"Duration":227651,"SoundDuration":227651,"Delta":441958363},{"NoteNumber":50,"Velocity":47,"Duration":227651,"SoundDuration":227651,"Delta":441958363},{"NoteNumber":55,"Velocity":44,"Duration":245659,"SoundDuration":245659,"Delta":442186015},{"NoteNumber":76,"Velocity":71,"Duration":61415,"SoundDuration":61415,"Delta":442370260},{"NoteNumber":82,"Velocity":85,"Duration":355674,"SoundDuration":355674,"Delta":442431675},{"NoteNumber":48,"Velocity":46,"Duration":237116,"SoundDuration":237116,"Delta":442668792},{"NoteNumber":79,"Velocity":76,"Duration":118558,"SoundDuration":118558,"Delta":442787350},{"NoteNumber":76,"Velocity":72,"Duration":225937,"SoundDuration":225937,"Delta":442905908},{"NoteNumber":55,"Velocity":49,"Duration":225937,"SoundDuration":225937,"Delta":442905908},{"NoteNumber":58,"Velocity":46,"Duration":243467,"SoundDuration":243467,"Delta":443131846},{"NoteNumber":71,"Velocity":68,"Duration":60866,"SoundDuration":60866,"Delta":443314446},{"NoteNumber":77,"Velocity":79,"Duration":355674,"SoundDuration":355674,"Delta":443375313},{"NoteNumber":50,"Velocity":48,"Duration":237116,"SoundDuration":237116,"Delta":443612429},{"NoteNumber":74,"Velocity":73,"Duration":118558,"SoundDuration":118558,"Delta":443730988},{"NoteNumber":71,"Velocity":69,"Duration":474232,"SoundDuration":474232,"Delta":443849546},{"NoteNumber":53,"Velocity":50,"Duration":237116,"SoundDuration":237116,"Delta":443849546},{"NoteNumber":56,"Velocity":45,"Duration":237116,"SoundDuration":237116,"Delta":444086662},{"NoteNumber":53,"Velocity":52,"Duration":245659,"SoundDuration":245659,"Delta":444323779},{"NoteNumber":71,"Velocity":68,"Duration":227236,"SoundDuration":227236,"Delta":444569439},{"NoteNumber":50,"Velocity":49,"Duration":237116,"SoundDuration":237116,"Delta":444569439},{"NoteNumber":71,"Velocity":69,"Duration":227236,"SoundDuration":227236,"Delta":444806555},{"NoteNumber":53,"Velocity":53,"Duration":237116,"SoundDuration":237116,"Delta":444806555},{"NoteNumber":71,"Velocity":67,"Duration":227236,"SoundDuration":227236,"Delta":445043672},{"NoteNumber":56,"Velocity":50,"Duration":237116,"SoundDuration":237116,"Delta":445043672},{"NoteNumber":72,"Velocity":76,"Duration":116532,"SoundDuration":116532,"Delta":445280788},{"NoteNumber":48,"Velocity":63,"Duration":932255,"SoundDuration":932255,"Delta":445280788},{"NoteNumber":57,"Velocity":63,"Duration":932255,"SoundDuration":932255,"Delta":445280788},{"NoteNumber":81,"Velocity":69,"Duration":116532,"SoundDuration":116532,"Delta":445397320},{"NoteNumber":77,"Velocity":72,"Duration":116532,"SoundDuration":116532,"Delta":445513852},{"NoteNumber":72,"Velocity":70,"Duration":116532,"SoundDuration":116532,"Delta":445630384},{"NoteNumber":69,"Velocity":76,"Duration":116531,"SoundDuration":116531,"Delta":445746916},{"NoteNumber":77,"Velocity":70,"Duration":116532,"SoundDuration":116532,"Delta":445863448},{"NoteNumber":72,"Velocity":72,"Duration":116532,"SoundDuration":116532,"Delta":445979980},{"NoteNumber":69,"Velocity":67,"Duration":109734,"SoundDuration":109734,"Delta":446096512},{"NoteNumber":69,"Velocity":61,"Duration":244339,"SoundDuration":244339,"Delta":446213044},{"NoteNumber":72,"Velocity":72,"Duration":244339,"SoundDuration":244339,"Delta":446213044},{"NoteNumber":60,"Velocity":48,"Duration":488678,"SoundDuration":488678,"Delta":446213044},{"NoteNumber":67,"Velocity":53,"Duration":244339,"SoundDuration":244339,"Delta":446457384},{"NoteNumber":70,"Velocity":63,"Duration":244339,"SoundDuration":244339,"Delta":446457384},{"NoteNumber":65,"Velocity":51,"Duration":128446,"SoundDuration":128446,"Delta":446701723},{"NoteNumber":69,"Velocity":61,"Duration":128446,"SoundDuration":128446,"Delta":446701723},{"NoteNumber":48,"Velocity":45,"Duration":513786,"SoundDuration":513786,"Delta":446701723},{"NoteNumber":64,"Velocity":49,"Duration":128446,"SoundDuration":128446,"Delta":446958617},{"NoteNumber":67,"Velocity":58,"Duration":128446,"SoundDuration":128446,"Delta":446958617},{"NoteNumber":65,"Velocity":54,"Duration":474233,"SoundDuration":474233,"Delta":447215510},{"NoteNumber":53,"Velocity":41,"Duration":118558,"SoundDuration":118558,"Delta":447215510},{"NoteNumber":60,"Velocity":34,"Duration":118558,"SoundDuration":118558,"Delta":447334069},{"NoteNumber":56,"Velocity":37,"Duration":118558,"SoundDuration":118558,"Delta":447452627},{"NoteNumber":60,"Velocity":34,"Duration":118558,"SoundDuration":118558,"Delta":447571185},{"NoteNumber":53,"Velocity":41,"Duration":142269,"SoundDuration":142269,"Delta":447689743},{"NoteNumber":60,"Velocity":34,"Duration":142269,"SoundDuration":142269,"Delta":447808302},{"NoteNumber":56,"Velocity":37,"Duration":142269,"SoundDuration":142269,"Delta":447926860},{"NoteNumber":60,"Velocity":34,"Duration":142269,"SoundDuration":142269,"Delta":448045418},{"NoteNumber":53,"Velocity":46,"Duration":142269,"SoundDuration":142269,"Delta":448163976},{"NoteNumber":65,"Velocity":54,"Duration":118558,"SoundDuration":118558,"Delta":448282535},{"NoteNumber":60,"Velocity":36,"Duration":142269,"SoundDuration":142269,"Delta":448282535},{"NoteNumber":67,"Velocity":58,"Duration":118558,"SoundDuration":118558,"Delta":448401093},{"NoteNumber":56,"Velocity":41,"Duration":142269,"SoundDuration":142269,"Delta":448401093},{"NoteNumber":68,"Velocity":61,"Duration":118558,"SoundDuration":118558,"Delta":448519651},{"NoteNumber":60,"Velocity":37,"Duration":142269,"SoundDuration":142269,"Delta":448519651},{"NoteNumber":70,"Velocity":63,"Duration":118558,"SoundDuration":118558,"Delta":448638209},{"NoteNumber":53,"Velocity":49,"Duration":142269,"SoundDuration":142269,"Delta":448638209},{"NoteNumber":72,"Velocity":65,"Duration":118558,"SoundDuration":118558,"Delta":448756768},{"NoteNumber":60,"Velocity":39,"Duration":142269,"SoundDuration":142269,"Delta":448756768},{"NoteNumber":74,"Velocity":68,"Duration":118558,"SoundDuration":118558,"Delta":448875326},{"NoteNumber":56,"Velocity":44,"Duration":142269,"SoundDuration":142269,"Delta":448875326},{"NoteNumber":76,"Velocity":71,"Duration":118558,"SoundDuration":118558,"Delta":448993884},{"NoteNumber":60,"Velocity":39,"Duration":142269,"SoundDuration":142269,"Delta":448993884},{"NoteNumber":77,"Velocity":75,"Duration":118558,"SoundDuration":118558,"Delta":449112442},{"NoteNumber":53,"Velocity":49,"Duration":143806,"SoundDuration":143806,"Delta":449112442},{"NoteNumber":72,"Velocity":71,"Duration":126241,"SoundDuration":126241,"Delta":449231001},{"NoteNumber":60,"Velocity":43,"Duration":149952,"SoundDuration":149952,"Delta":449231001},{"NoteNumber":80,"Velocity":75,"Duration":118558,"SoundDuration":118558,"Delta":449357242},{"NoteNumber":56,"Velocity":45,"Duration":142269,"SoundDuration":142269,"Delta":449357242},{"NoteNumber":79,"Velocity":72,"Duration":118558,"SoundDuration":118558,"Delta":449475800},{"NoteNumber":60,"Velocity":43,"Duration":142269,"SoundDuration":142269,"Delta":449475800},{"NoteNumber":77,"Velocity":75,"Duration":118558,"SoundDuration":118558,"Delta":449594358},{"NoteNumber":53,"Velocity":49,"Duration":143014,"SoundDuration":143014,"Delta":449594358},{"NoteNumber":72,"Velocity":71,"Duration":122279,"SoundDuration":122279,"Delta":449712917},{"NoteNumber":60,"Velocity":43,"Duration":145990,"SoundDuration":145990,"Delta":449712917},{"NoteNumber":80,"Velocity":72,"Duration":118558,"SoundDuration":118558,"Delta":449835196},{"NoteNumber":56,"Velocity":45,"Duration":142269,"SoundDuration":142269,"Delta":449835196},{"NoteNumber":79,"Velocity":70,"Duration":118558,"SoundDuration":118558,"Delta":449953754},{"NoteNumber":60,"Velocity":43,"Duration":142269,"SoundDuration":142269,"Delta":449953754},{"NoteNumber":77,"Velocity":72,"Duration":142269,"SoundDuration":142269,"Delta":450072312},{"NoteNumber":53,"Velocity":48,"Duration":142269,"SoundDuration":142269,"Delta":450072312},{"NoteNumber":79,"Velocity":67,"Duration":142269,"SoundDuration":142269,"Delta":450190871},{"NoteNumber":62,"Velocity":39,"Duration":142269,"SoundDuration":142269,"Delta":450190871},{"NoteNumber":75,"Velocity":71,"Duration":142269,"SoundDuration":142269,"Delta":450309429},{"NoteNumber":56,"Velocity":45,"Duration":142269,"SoundDuration":142269,"Delta":450309429},{"NoteNumber":77,"Velocity":64,"Duration":142269,"SoundDuration":142269,"Delta":450427987},{"NoteNumber":62,"Velocity":40,"Duration":142269,"SoundDuration":142269,"Delta":450427987},{"NoteNumber":74,"Velocity":70,"Duration":142269,"SoundDuration":142269,"Delta":450546545},{"NoteNumber":53,"Velocity":47,"Duration":142269,"SoundDuration":142269,"Delta":450546545},{"NoteNumber":75,"Velocity":63,"Duration":142269,"SoundDuration":142269,"Delta":450665104},{"NoteNumber":62,"Velocity":40,"Duration":142269,"SoundDuration":142269,"Delta":450665104},{"NoteNumber":72,"Velocity":68,"Duration":142269,"SoundDuration":142269,"Delta":450783662},{"NoteNumber":56,"Velocity":45,"Duration":142269,"SoundDuration":142269,"Delta":450783662},{"NoteNumber":74,"Velocity":64,"Duration":143347,"SoundDuration":143347,"Delta":450902220},{"NoteNumber":62,"Velocity":40,"Duration":143347,"SoundDuration":143347,"Delta":450902220},{"NoteNumber":71,"Velocity":67,"Duration":247892,"SoundDuration":247892,"Delta":451020778},{"NoteNumber":55,"Velocity":54,"Duration":123946,"SoundDuration":123946,"Delta":451020778},{"NoteNumber":65,"Velocity":46,"Duration":123946,"SoundDuration":123946,"Delta":451144725},{"NoteNumber":89,"Velocity":90,"Duration":470145,"SoundDuration":470145,"Delta":451268671},{"NoteNumber":62,"Velocity":48,"Duration":117536,"SoundDuration":117536,"Delta":451268671},{"NoteNumber":65,"Velocity":45,"Duration":117536,"SoundDuration":117536,"Delta":451386208},{"NoteNumber":55,"Velocity":54,"Duration":117536,"SoundDuration":117536,"Delta":451503744},{"NoteNumber":65,"Velocity":45,"Duration":117536,"SoundDuration":117536,"Delta":451621281},{"NoteNumber":87,"Velocity":89,"Duration":470145,"SoundDuration":470145,"Delta":451738817},{"NoteNumber":62,"Velocity":48,"Duration":117536,"SoundDuration":117536,"Delta":451738817},{"NoteNumber":65,"Velocity":45,"Duration":117536,"SoundDuration":117536,"Delta":451856354},{"NoteNumber":55,"Velocity":54,"Duration":117536,"SoundDuration":117536,"Delta":451973890},{"NoteNumber":65,"Velocity":46,"Duration":117536,"SoundDuration":117536,"Delta":452091427},{"NoteNumber":86,"Velocity":88,"Duration":470145,"SoundDuration":470145,"Delta":452208963},{"NoteNumber":62,"Velocity":48,"Duration":117536,"SoundDuration":117536,"Delta":452208963},{"NoteNumber":65,"Velocity":45,"Duration":117536,"SoundDuration":117536,"Delta":452326500},{"NoteNumber":55,"Velocity":52,"Duration":117536,"SoundDuration":117536,"Delta":452444036},{"NoteNumber":65,"Velocity":45,"Duration":117536,"SoundDuration":117536,"Delta":452561573},{"NoteNumber":84,"Velocity":87,"Duration":470145,"SoundDuration":470145,"Delta":452679109},{"NoteNumber":62,"Velocity":48,"Duration":117536,"SoundDuration":117536,"Delta":452679109},{"NoteNumber":65,"Velocity":45,"Duration":117536,"SoundDuration":117536,"Delta":452796646},{"NoteNumber":55,"Velocity":53,"Duration":117536,"SoundDuration":117536,"Delta":452914182},{"NoteNumber":65,"Velocity":45,"Duration":117536,"SoundDuration":117536,"Delta":453031719},{"NoteNumber":83,"Velocity":84,"Duration":470145,"SoundDuration":470145,"Delta":453149255},{"NoteNumber":62,"Velocity":48,"Duration":117536,"SoundDuration":117536,"Delta":453149255},{"NoteNumber":65,"Velocity":45,"Duration":117536,"SoundDuration":117536,"Delta":453266792},{"NoteNumber":55,"Velocity":53,"Duration":117536,"SoundDuration":117536,"Delta":453384328},{"NoteNumber":65,"Velocity":45,"Duration":117536,"SoundDuration":117536,"Delta":453501865},{"NoteNumber":80,"Velocity":78,"Duration":470145,"SoundDuration":470145,"Delta":453619401},{"NoteNumber":62,"Velocity":48,"Duration":117536,"SoundDuration":117536,"Delta":453619401},{"NoteNumber":65,"Velocity":45,"Duration":117536,"SoundDuration":117536,"Delta":453736938},{"NoteNumber":55,"Velocity":53,"Duration":117536,"SoundDuration":117536,"Delta":453854474},{"NoteNumber":62,"Velocity":46,"Duration":117536,"SoundDuration":117536,"Delta":453972011},{"NoteNumber":79,"Velocity":83,"Duration":470145,"SoundDuration":470145,"Delta":454089547},{"NoteNumber":59,"Velocity":48,"Duration":117536,"SoundDuration":117536,"Delta":454089547},{"NoteNumber":62,"Velocity":45,"Duration":117536,"SoundDuration":117536,"Delta":454207084},{"NoteNumber":55,"Velocity":53,"Duration":117536,"SoundDuration":117536,"Delta":454324620},{"NoteNumber":62,"Velocity":45,"Duration":117536,"SoundDuration":117536,"Delta":454442157},{"NoteNumber":77,"Velocity":78,"Duration":236081,"SoundDuration":236081,"Delta":454559693},{"NoteNumber":59,"Velocity":48,"Duration":123173,"SoundDuration":123173,"Delta":454559693},{"NoteNumber":62,"Velocity":45,"Duration":123173,"SoundDuration":123173,"Delta":454682866},{"NoteNumber":77,"Velocity":80,"Duration":237600,"SoundDuration":237600,"Delta":454806039},{"NoteNumber":55,"Velocity":48,"Duration":120211,"SoundDuration":120211,"Delta":454806039},{"NoteNumber":64,"Velocity":39,"Duration":117389,"SoundDuration":117389,"Delta":454926251},{"NoteNumber":76,"Velocity":77,"Duration":234778,"SoundDuration":234778,"Delta":455043640},{"NoteNumber":60,"Velocity":44,"Duration":117389,"SoundDuration":117389,"Delta":455043640},{"NoteNumber":64,"Velocity":39,"Duration":117389,"SoundDuration":117389,"Delta":455161029},{"NoteNumber":75,"Velocity":67,"Duration":469557,"SoundDuration":469557,"Delta":455278419},{"NoteNumber":55,"Velocity":48,"Duration":117389,"SoundDuration":117389,"Delta":455278419},{"NoteNumber":63,"Velocity":41,"Duration":117389,"SoundDuration":117389,"Delta":455395808},{"NoteNumber":60,"Velocity":44,"Duration":117389,"SoundDuration":117389,"Delta":455513197},{"NoteNumber":63,"Velocity":41,"Duration":117389,"SoundDuration":117389,"Delta":455630586},{"NoteNumber":55,"Velocity":48,"Duration":140795,"SoundDuration":140795,"Delta":455747976},{"NoteNumber":75,"Velocity":65,"Duration":140438,"SoundDuration":140438,"Delta":455865365},{"NoteNumber":63,"Velocity":40,"Duration":140438,"SoundDuration":140438,"Delta":455865365},{"NoteNumber":74,"Velocity":68,"Duration":140438,"SoundDuration":140438,"Delta":455982397},{"NoteNumber":60,"Velocity":44,"Duration":140438,"SoundDuration":140438,"Delta":455982397},{"NoteNumber":75,"Velocity":66,"Duration":140438,"SoundDuration":140438,"Delta":456099429},{"NoteNumber":63,"Velocity":38,"Duration":140438,"SoundDuration":140438,"Delta":456099429},{"NoteNumber":77,"Velocity":68,"Duration":140438,"SoundDuration":140438,"Delta":456216461},{"NoteNumber":55,"Velocity":48,"Duration":140438,"SoundDuration":140438,"Delta":456216461},{"NoteNumber":75,"Velocity":66,"Duration":140438,"SoundDuration":140438,"Delta":456333493},{"NoteNumber":63,"Velocity":40,"Duration":140438,"SoundDuration":140438,"Delta":456333493},{"NoteNumber":74,"Velocity":68,"Duration":140438,"SoundDuration":140438,"Delta":456450525},{"NoteNumber":60,"Velocity":45,"Duration":140438,"SoundDuration":140438,"Delta":456450525},{"NoteNumber":75,"Velocity":65,"Duration":140847,"SoundDuration":140847,"Delta":456567557},{"NoteNumber":63,"Velocity":40,"Duration":140847,"SoundDuration":140847,"Delta":456567557},{"NoteNumber":78,"Velocity":77,"Duration":357228,"SoundDuration":357228,"Delta":456684589},{"NoteNumber":54,"Velocity":54,"Duration":119076,"SoundDuration":119076,"Delta":456684589},{"NoteNumber":63,"Velocity":40,"Duration":119076,"SoundDuration":119076,"Delta":456803665},{"NoteNumber":58,"Velocity":44,"Duration":119076,"SoundDuration":119076,"Delta":456922741},{"NoteNumber":75,"Velocity":69,"Duration":106821,"SoundDuration":106821,"Delta":457041817},{"NoteNumber":63,"Velocity":41,"Duration":116532,"SoundDuration":116532,"Delta":457041817},{"NoteNumber":75,"Velocity":65,"Duration":58266,"SoundDuration":58266,"Delta":457158349},{"NoteNumber":54,"Velocity":49,"Duration":116532,"SoundDuration":116532,"Delta":457158349},{"NoteNumber":77,"Velocity":62,"Duration":58266,"SoundDuration":58266,"Delta":457216615},{"NoteNumber":75,"Velocity":65,"Duration":58266,"SoundDuration":58266,"Delta":457274881},{"NoteNumber":63,"Velocity":42,"Duration":116532,"SoundDuration":116532,"Delta":457274881},{"NoteNumber":77,"Velocity":63,"Duration":58266,"SoundDuration":58266,"Delta":457333147},{"NoteNumber":75,"Velocity":66,"Duration":38843,"SoundDuration":38843,"Delta":457391413},{"NoteNumber":58,"Velocity":45,"Duration":116532,"SoundDuration":116532,"Delta":457391413},{"NoteNumber":77,"Velocity":64,"Duration":38843,"SoundDuration":38843,"Delta":457430257},{"NoteNumber":75,"Velocity":64,"Duration":38844,"SoundDuration":38844,"Delta":457469101},{"NoteNumber":74,"Velocity":71,"Duration":58265,"SoundDuration":58265,"Delta":457507945},{"NoteNumber":63,"Velocity":40,"Duration":116531,"SoundDuration":116531,"Delta":457507945},{"NoteNumber":75,"Velocity":69,"Duration":58266,"SoundDuration":58266,"Delta":457566211},{"NoteNumber":82,"Velocity":78,"Duration":357228,"SoundDuration":357228,"Delta":457624477},{"NoteNumber":54,"Velocity":54,"Duration":119076,"SoundDuration":119076,"Delta":457624477},{"NoteNumber":63,"Velocity":42,"Duration":119076,"SoundDuration":119076,"Delta":457743553},{"NoteNumber":58,"Velocity":45,"Duration":119076,"SoundDuration":119076,"Delta":457862629},{"NoteNumber":75,"Velocity":68,"Duration":106821,"SoundDuration":106821,"Delta":457981705},{"NoteNumber":63,"Velocity":42,"Duration":116532,"SoundDuration":116532,"Delta":457981705},{"NoteNumber":75,"Velocity":64,"Duration":58266,"SoundDuration":58266,"Delta":458098237},{"NoteNumber":54,"Velocity":48,"Duration":116532,"SoundDuration":116532,"Delta":458098237},{"NoteNumber":77,"Velocity":62,"Duration":58266,"SoundDuration":58266,"Delta":458156503},{"NoteNumber":75,"Velocity":64,"Duration":58266,"SoundDuration":58266,"Delta":458214769},{"NoteNumber":63,"Velocity":40,"Duration":116532,"SoundDuration":116532,"Delta":458214769},{"NoteNumber":77,"Velocity":62,"Duration":58266,"SoundDuration":58266,"Delta":458273035},{"NoteNumber":75,"Velocity":64,"Duration":38843,"SoundDuration":38843,"Delta":458331301},{"NoteNumber":58,"Velocity":45,"Duration":116532,"SoundDuration":116532,"Delta":458331301},{"NoteNumber":77,"Velocity":63,"Duration":38843,"SoundDuration":38843,"Delta":458370145},{"NoteNumber":75,"Velocity":63,"Duration":38844,"SoundDuration":38844,"Delta":458408989},{"NoteNumber":74,"Velocity":71,"Duration":58265,"SoundDuration":58265,"Delta":458447833},{"NoteNumber":63,"Velocity":40,"Duration":116531,"SoundDuration":116531,"Delta":458447833},{"NoteNumber":75,"Velocity":68,"Duration":58266,"SoundDuration":58266,"Delta":458506099},{"NoteNumber":81,"Velocity":81,"Duration":118045,"SoundDuration":118045,"Delta":458564365},{"NoteNumber":53,"Velocity":49,"Duration":118045,"SoundDuration":118045,"Delta":458564365},{"NoteNumber":63,"Velocity":40,"Duration":118045,"SoundDuration":118045,"Delta":458682410},{"NoteNumber":84,"Velocity":85,"Duration":118045,"SoundDuration":118045,"Delta":458800455},{"NoteNumber":60,"Velocity":45,"Duration":118045,"SoundDuration":118045,"Delta":458800455},{"NoteNumber":63,"Velocity":41,"Duration":118045,"SoundDuration":118045,"Delta":458918501},{"NoteNumber":87,"Velocity":89,"Duration":588713,"SoundDuration":588713,"Delta":459036546},{"NoteNumber":53,"Velocity":50,"Duration":118045,"SoundDuration":118045,"Delta":459036546},{"NoteNumber":63,"Velocity":42,"Duration":118045,"SoundDuration":118045,"Delta":459154591},{"NoteNumber":60,"Velocity":45,"Duration":118045,"SoundDuration":118045,"Delta":459272636},{"NoteNumber":63,"Velocity":40,"Duration":118045,"SoundDuration":118045,"Delta":459390682},{"NoteNumber":53,"Velocity":50,"Duration":139838,"SoundDuration":139838,"Delta":459508727},{"NoteNumber":89,"Velocity":71,"Duration":139838,"SoundDuration":139838,"Delta":459625259},{"NoteNumber":63,"Velocity":43,"Duration":139838,"SoundDuration":139838,"Delta":459625259},{"NoteNumber":86,"Velocity":77,"Duration":139838,"SoundDuration":139838,"Delta":459741791},{"NoteNumber":60,"Velocity":48,"Duration":139838,"SoundDuration":139838,"Delta":459741791},{"NoteNumber":87,"Velocity":71,"Duration":139838,"SoundDuration":139838,"Delta":459858323},{"NoteNumber":63,"Velocity":43,"Duration":139838,"SoundDuration":139838,"Delta":459858323},{"NoteNumber":84,"Velocity":77,"Duration":139838,"SoundDuration":139838,"Delta":459974855},{"NoteNumber":53,"Velocity":54,"Duration":139838,"SoundDuration":139838,"Delta":459974855},{"NoteNumber":86,"Velocity":71,"Duration":139838,"SoundDuration":139838,"Delta":460091387},{"NoteNumber":63,"Velocity":45,"Duration":139838,"SoundDuration":139838,"Delta":460091387},{"NoteNumber":82,"Velocity":77,"Duration":139838,"SoundDuration":139838,"Delta":460207919},{"NoteNumber":60,"Velocity":48,"Duration":139838,"SoundDuration":139838,"Delta":460207919},{"NoteNumber":84,"Velocity":71,"Duration":139838,"SoundDuration":139838,"Delta":460324451},{"NoteNumber":63,"Velocity":45,"Duration":139838,"SoundDuration":139838,"Delta":460324451},{"NoteNumber":81,"Velocity":72,"Duration":139838,"SoundDuration":139838,"Delta":460440983},{"NoteNumber":53,"Velocity":54,"Duration":139838,"SoundDuration":139838,"Delta":460440983},{"NoteNumber":82,"Velocity":73,"Duration":139838,"SoundDuration":139838,"Delta":460557515},{"NoteNumber":63,"Velocity":45,"Duration":139838,"SoundDuration":139838,"Delta":460557515},{"NoteNumber":84,"Velocity":77,"Duration":139838,"SoundDuration":139838,"Delta":460674047},{"NoteNumber":60,"Velocity":48,"Duration":139838,"SoundDuration":139838,"Delta":460674047},{"NoteNumber":82,"Velocity":72,"Duration":139739,"SoundDuration":139739,"Delta":460790579},{"NoteNumber":63,"Velocity":44,"Duration":139739,"SoundDuration":139739,"Delta":460790579},{"NoteNumber":81,"Velocity":71,"Duration":139524,"SoundDuration":139524,"Delta":460907111},{"NoteNumber":53,"Velocity":54,"Duration":139524,"SoundDuration":139524,"Delta":460907111},{"NoteNumber":82,"Velocity":72,"Duration":140540,"SoundDuration":140540,"Delta":461023312},{"NoteNumber":63,"Velocity":45,"Duration":140540,"SoundDuration":140540,"Delta":461023312},{"NoteNumber":84,"Velocity":73,"Duration":141587,"SoundDuration":141587,"Delta":461140345},{"NoteNumber":60,"Velocity":48,"Duration":141587,"SoundDuration":141587,"Delta":461140345},{"NoteNumber":86,"Velocity":70,"Duration":142736,"SoundDuration":142736,"Delta":461258221},{"NoteNumber":63,"Velocity":44,"Duration":142736,"SoundDuration":142736,"Delta":461258221},{"NoteNumber":87,"Velocity":75,"Duration":143517,"SoundDuration":143517,"Delta":461377038},{"NoteNumber":53,"Velocity":52,"Duration":143517,"SoundDuration":143517,"Delta":461377038},{"NoteNumber":86,"Velocity":70,"Duration":143065,"SoundDuration":143065,"Delta":461496636},{"NoteNumber":60,"Velocity":44,"Duration":143065,"SoundDuration":143065,"Delta":461496636},{"NoteNumber":84,"Velocity":72,"Duration":142615,"SoundDuration":142615,"Delta":461615886},{"NoteNumber":57,"Velocity":48,"Duration":142615,"SoundDuration":142615,"Delta":461615886},{"NoteNumber":82,"Velocity":72,"Duration":142167,"SoundDuration":142167,"Delta":461734790},{"NoteNumber":60,"Velocity":44,"Duration":142167,"SoundDuration":142167,"Delta":461734790},{"NoteNumber":81,"Velocity":71,"Duration":141654,"SoundDuration":141654,"Delta":461853348},{"NoteNumber":53,"Velocity":53,"Duration":141654,"SoundDuration":141654,"Delta":461853348},{"NoteNumber":79,"Velocity":70,"Duration":141213,"SoundDuration":141213,"Delta":461971393},{"NoteNumber":60,"Velocity":44,"Duration":141213,"SoundDuration":141213,"Delta":461971393},{"NoteNumber":77,"Velocity":69,"Duration":140774,"SoundDuration":140774,"Delta":462089099},{"NoteNumber":57,"Velocity":47,"Duration":140774,"SoundDuration":140774,"Delta":462089099},{"NoteNumber":75,"Velocity":68,"Duration":106304,"SoundDuration":106304,"Delta":462206468},{"NoteNumber":60,"Velocity":44,"Duration":141378,"SoundDuration":141378,"Delta":462206468},{"NoteNumber":75,"Velocity":68,"Duration":60866,"SoundDuration":60866,"Delta":462323500},{"NoteNumber":54,"Velocity":44,"Duration":121733,"SoundDuration":121733,"Delta":462323500},{"NoteNumber":77,"Velocity":64,"Duration":60866,"SoundDuration":60866,"Delta":462384366},{"NoteNumber":75,"Velocity":65,"Duration":40577,"SoundDuration":40577,"Delta":462445233},{"NoteNumber":60,"Velocity":39,"Duration":121733,"SoundDuration":121733,"Delta":462445233},{"NoteNumber":77,"Velocity":63,"Duration":40577,"SoundDuration":40577,"Delta":462485811},{"NoteNumber":75,"Velocity":63,"Duration":40577,"SoundDuration":40577,"Delta":462526389},{"NoteNumber":74,"Velocity":68,"Duration":239196,"SoundDuration":239196,"Delta":462566967},{"NoteNumber":57,"Velocity":40,"Duration":143517,"SoundDuration":143517,"Delta":462566967},{"NoteNumber":60,"Velocity":35,"Duration":143517,"SoundDuration":143517,"Delta":462686565},{"NoteNumber":74,"Velocity":68,"Duration":717589,"SoundDuration":717589,"Delta":462806163},{"NoteNumber":54,"Velocity":44,"Duration":119598,"SoundDuration":119598,"Delta":462806163},{"NoteNumber":60,"Velocity":33,"Duration":119598,"SoundDuration":119598,"Delta":462925761},{"NoteNumber":57,"Velocity":39,"Duration":119598,"SoundDuration":119598,"Delta":463045360},{"NoteNumber":60,"Velocity":34,"Duration":119598,"SoundDuration":119598,"Delta":463164958},{"NoteNumber":54,"Velocity":44,"Duration":119598,"SoundDuration":119598,"Delta":463284556},{"NoteNumber":60,"Velocity":33,"Duration":119598,"SoundDuration":119598,"Delta":463404154},{"NoteNumber":74,"Velocity":72,"Duration":239196,"SoundDuration":239196,"Delta":463523753},{"NoteNumber":57,"Velocity":39,"Duration":119598,"SoundDuration":119598,"Delta":463523753},{"NoteNumber":60,"Velocity":33,"Duration":119598,"SoundDuration":119598,"Delta":463643351},{"NoteNumber":86,"Velocity":81,"Duration":239196,"SoundDuration":239196,"Delta":463762949},{"NoteNumber":54,"Velocity":44,"Duration":119598,"SoundDuration":119598,"Delta":463762949},{"NoteNumber":62,"Velocity":35,"Duration":119598,"SoundDuration":119598,"Delta":463882547},{"NoteNumber":84,"Velocity":77,"Duration":478392,"SoundDuration":478392,"Delta":464002146},{"NoteNumber":57,"Velocity":39,"Duration":119598,"SoundDuration":119598,"Delta":464002146},{"NoteNumber":62,"Velocity":34,"Duration":119598,"SoundDuration":119598,"Delta":464121744},{"NoteNumber":55,"Velocity":48,"Duration":119598,"SoundDuration":119598,"Delta":464241342},{"NoteNumber":62,"Velocity":39,"Duration":119598,"SoundDuration":119598,"Delta":464360940},{"NoteNumber":82,"Velocity":78,"Duration":478393,"SoundDuration":478393,"Delta":464480539},{"NoteNumber":58,"Velocity":44,"Duration":119598,"SoundDuration":119598,"Delta":464480539},{"NoteNumber":62,"Velocity":39,"Duration":119598,"SoundDuration":119598,"Delta":464600137},{"NoteNumber":53,"Velocity":48,"Duration":119598,"SoundDuration":119598,"Delta":464719735},{"NoteNumber":62,"Velocity":38,"Duration":119598,"SoundDuration":119598,"Delta":464839333},{"NoteNumber":81,"Velocity":77,"Duration":355728,"SoundDuration":355728,"Delta":464958932},{"NoteNumber":57,"Velocity":44,"Duration":119598,"SoundDuration":119598,"Delta":464958932},{"NoteNumber":62,"Velocity":38,"Duration":119598,"SoundDuration":119598,"Delta":465078530},{"NoteNumber":52,"Velocity":48,"Duration":139838,"SoundDuration":139838,"Delta":465198128},{"NoteNumber":79,"Velocity":70,"Duration":139838,"SoundDuration":139838,"Delta":465314660},{"NoteNumber":62,"Velocity":38,"Duration":139838,"SoundDuration":139838,"Delta":465314660},{"NoteNumber":82,"Velocity":73,"Duration":139838,"SoundDuration":139838,"Delta":465431192},{"NoteNumber":55,"Velocity":44,"Duration":139838,"SoundDuration":139838,"Delta":465431192},{"NoteNumber":81,"Velocity":70,"Duration":139838,"SoundDuration":139838,"Delta":465547724},{"NoteNumber":62,"Velocity":37,"Duration":139838,"SoundDuration":139838,"Delta":465547724},{"NoteNumber":84,"Velocity":73,"Duration":139838,"SoundDuration":139838,"Delta":465664256},{"NoteNumber":51,"Velocity":48,"Duration":139838,"SoundDuration":139838,"Delta":465664256},{"NoteNumber":82,"Velocity":69,"Duration":139838,"SoundDuration":139838,"Delta":465780788},{"NoteNumber":61,"Velocity":38,"Duration":139838,"SoundDuration":139838,"Delta":465780788},{"NoteNumber":81,"Velocity":73,"Duration":139838,"SoundDuration":139838,"Delta":465897320},{"NoteNumber":55,"Velocity":44,"Duration":139838,"SoundDuration":139838,"Delta":465897320},{"NoteNumber":79,"Velocity":67,"Duration":142898,"SoundDuration":142898,"Delta":466013852},{"NoteNumber":61,"Velocity":39,"Duration":142898,"SoundDuration":142898,"Delta":466013852},{"NoteNumber":78,"Velocity":71,"Duration":65916,"SoundDuration":65916,"Delta":466130384},{"NoteNumber":50,"Velocity":38,"Duration":490628,"SoundDuration":490628,"Delta":466130384},{"NoteNumber":62,"Velocity":38,"Duration":490628,"SoundDuration":490628,"Delta":466130384},{"NoteNumber":74,"Velocity":58,"Duration":119598,"SoundDuration":119598,"Delta":466262217},{"NoteNumber":86,"Velocity":57,"Duration":119598,"SoundDuration":119598,"Delta":466381816},{"NoteNumber":85,"Velocity":57,"Duration":119598,"SoundDuration":119598,"Delta":466501414},{"NoteNumber":86,"Velocity":56,"Duration":119598,"SoundDuration":119598,"Delta":466621012},{"NoteNumber":85,"Velocity":56,"Duration":119598,"SoundDuration":119598,"Delta":466740610},{"NoteNumber":86,"Velocity":57,"Duration":119598,"SoundDuration":119598,"Delta":466860209},{"NoteNumber":85,"Velocity":58,"Duration":119598,"SoundDuration":119598,"Delta":466979807},{"NoteNumber":86,"Velocity":59,"Duration":116532,"SoundDuration":116532,"Delta":467099405},{"NoteNumber":87,"Velocity":59,"Duration":116532,"SoundDuration":116532,"Delta":467215937},{"NoteNumber":84,"Velocity":60,"Duration":116532,"SoundDuration":116532,"Delta":467332469},{"NoteNumber":86,"Velocity":58,"Duration":116532,"SoundDuration":116532,"Delta":467449001},{"NoteNumber":82,"Velocity":62,"Duration":116531,"SoundDuration":116531,"Delta":467565533},{"NoteNumber":62,"Velocity":45,"Duration":466127,"SoundDuration":466127,"Delta":467565533},{"NoteNumber":66,"Velocity":45,"Duration":466127,"SoundDuration":466127,"Delta":467565533},{"NoteNumber":84,"Velocity":60,"Duration":116532,"SoundDuration":116532,"Delta":467682065},{"NoteNumber":81,"Velocity":63,"Duration":116532,"SoundDuration":116532,"Delta":467798597},{"NoteNumber":82,"Velocity":61,"Duration":116532,"SoundDuration":116532,"Delta":467915129},{"NoteNumber":79,"Velocity":64,"Duration":139838,"SoundDuration":139838,"Delta":468031661},{"NoteNumber":63,"Velocity":45,"Duration":467128,"SoundDuration":467128,"Delta":468031661},{"NoteNumber":67,"Velocity":45,"Duration":467128,"SoundDuration":467128,"Delta":468031661},{"NoteNumber":81,"Velocity":63,"Duration":139938,"SoundDuration":139938,"Delta":468148193},{"NoteNumber":77,"Velocity":66,"Duration":140438,"SoundDuration":140438,"Delta":468264725},{"NoteNumber":79,"Velocity":63,"Duration":140539,"SoundDuration":140539,"Delta":468381757},{"NoteNumber":75,"Velocity":67,"Duration":141043,"SoundDuration":141043,"Delta":468498789},{"NoteNumber":77,"Velocity":62,"Duration":141145,"SoundDuration":141145,"Delta":468616326},{"NoteNumber":74,"Velocity":69,"Duration":141654,"SoundDuration":141654,"Delta":468733862},{"NoteNumber":75,"Velocity":64,"Duration":141756,"SoundDuration":141756,"Delta":468851907},{"NoteNumber":73,"Velocity":70,"Duration":118558,"SoundDuration":118558,"Delta":468969953},{"NoteNumber":82,"Velocity":69,"Duration":242385,"SoundDuration":242385,"Delta":469207069},{"NoteNumber":81,"Velocity":70,"Duration":242385,"SoundDuration":242385,"Delta":469449454},{"NoteNumber":51,"Velocity":54,"Duration":484769,"SoundDuration":484769,"Delta":469449454},{"NoteNumber":61,"Velocity":54,"Duration":484769,"SoundDuration":484769,"Delta":469449454},{"NoteNumber":79,"Velocity":68,"Duration":242384,"SoundDuration":242384,"Delta":469691839},{"NoteNumber":78,"Velocity":71,"Duration":60596,"SoundDuration":60596,"Delta":469934224},{"NoteNumber":50,"Velocity":49,"Duration":481567,"SoundDuration":481567,"Delta":469934224},{"NoteNumber":62,"Velocity":49,"Duration":481567,"SoundDuration":481567,"Delta":469934224},{"NoteNumber":73,"Velocity":52,"Duration":120124,"SoundDuration":120124,"Delta":470055417},{"NoteNumber":74,"Velocity":57,"Duration":120125,"SoundDuration":120125,"Delta":470175542},{"NoteNumber":73,"Velocity":52,"Duration":120124,"SoundDuration":120124,"Delta":470295667},{"NoteNumber":74,"Velocity":57,"Duration":120125,"SoundDuration":120125,"Delta":470415792},{"NoteNumber":73,"Velocity":53,"Duration":120124,"SoundDuration":120124,"Delta":470535917},{"NoteNumber":74,"Velocity":57,"Duration":120125,"SoundDuration":120125,"Delta":470656042},{"NoteNumber":73,"Velocity":53,"Duration":120124,"SoundDuration":120124,"Delta":470776167},{"NoteNumber":74,"Velocity":54,"Duration":116532,"SoundDuration":116532,"Delta":470896292},{"NoteNumber":75,"Velocity":51,"Duration":116532,"SoundDuration":116532,"Delta":471012824},{"NoteNumber":72,"Velocity":53,"Duration":116532,"SoundDuration":116532,"Delta":471129356},{"NoteNumber":74,"Velocity":49,"Duration":116532,"SoundDuration":116532,"Delta":471245888},{"NoteNumber":70,"Velocity":52,"Duration":116531,"SoundDuration":116531,"Delta":471362420},{"NoteNumber":50,"Velocity":45,"Duration":466127,"SoundDuration":466127,"Delta":471362420},{"NoteNumber":60,"Velocity":45,"Duration":466127,"SoundDuration":466127,"Delta":471362420},{"NoteNumber":72,"Velocity":49,"Duration":116532,"SoundDuration":116532,"Delta":471478952},{"NoteNumber":69,"Velocity":50,"Duration":116532,"SoundDuration":116532,"Delta":471595484},{"NoteNumber":70,"Velocity":46,"Duration":116532,"SoundDuration":116532,"Delta":471712016},{"NoteNumber":67,"Velocity":48,"Duration":139342,"SoundDuration":139342,"Delta":471828548},{"NoteNumber":51,"Velocity":42,"Duration":467390,"SoundDuration":467390,"Delta":471828548},{"NoteNumber":58,"Velocity":42,"Duration":467390,"SoundDuration":467390,"Delta":471828548},{"NoteNumber":69,"Velocity":46,"Duration":139855,"SoundDuration":139855,"Delta":471944666},{"NoteNumber":65,"Velocity":46,"Duration":140623,"SoundDuration":140623,"Delta":472061116},{"NoteNumber":67,"Velocity":45,"Duration":141315,"SoundDuration":141315,"Delta":472178232},{"NoteNumber":63,"Velocity":45,"Duration":141927,"SoundDuration":141927,"Delta":472295938},{"NoteNumber":65,"Velocity":44,"Duration":142632,"SoundDuration":142632,"Delta":472414154},{"NoteNumber":62,"Velocity":43,"Duration":143361,"SoundDuration":143361,"Delta":472532971},{"NoteNumber":63,"Velocity":42,"Duration":144168,"SoundDuration":144168,"Delta":472652396},{"NoteNumber":61,"Velocity":41,"Duration":120656,"SoundDuration":120656,"Delta":472772433},{"NoteNumber":67,"Velocity":41,"Duration":241312,"SoundDuration":241312,"Delta":473013745},{"NoteNumber":70,"Velocity":45,"Duration":241312,"SoundDuration":241312,"Delta":473255058},{"NoteNumber":51,"Velocity":32,"Duration":482625,"SoundDuration":482625,"Delta":473255058},{"NoteNumber":55,"Velocity":32,"Duration":482625,"SoundDuration":482625,"Delta":473255058},{"NoteNumber":61,"Velocity":42,"Duration":241312,"SoundDuration":241312,"Delta":473496370},{"NoteNumber":62,"Velocity":39,"Duration":118558,"SoundDuration":118558,"Delta":473737683},{"NoteNumber":50,"Velocity":24,"Duration":237116,"SoundDuration":237116,"Delta":473737683},{"NoteNumber":54,"Velocity":24,"Duration":237116,"SoundDuration":237116,"Delta":473737683},{"NoteNumber":74,"Velocity":46,"Duration":123385,"SoundDuration":123385,"Delta":473974799},{"NoteNumber":50,"Velocity":27,"Duration":246771,"SoundDuration":246771,"Delta":474221571},{"NoteNumber":55,"Velocity":27,"Duration":246771,"SoundDuration":246771,"Delta":474221571},{"NoteNumber":58,"Velocity":27,"Duration":246771,"SoundDuration":246771,"Delta":474221571},{"NoteNumber":74,"Velocity":49,"Duration":237116,"SoundDuration":237116,"Delta":474468342},{"NoteNumber":50,"Velocity":28,"Duration":237116,"SoundDuration":237116,"Delta":474705459},{"NoteNumber":54,"Velocity":28,"Duration":237116,"SoundDuration":237116,"Delta":474705459},{"NoteNumber":57,"Velocity":28,"Duration":237116,"SoundDuration":237116,"Delta":474705459},{"NoteNumber":74,"Velocity":46,"Duration":238152,"SoundDuration":238152,"Delta":474942575},{"NoteNumber":50,"Velocity":32,"Duration":238152,"SoundDuration":238152,"Delta":475180727},{"NoteNumber":55,"Velocity":32,"Duration":238152,"SoundDuration":238152,"Delta":475180727},{"NoteNumber":58,"Velocity":32,"Duration":238152,"SoundDuration":238152,"Delta":475180727},{"NoteNumber":74,"Velocity":48,"Duration":238151,"SoundDuration":238151,"Delta":475418879},{"NoteNumber":50,"Velocity":34,"Duration":474242,"SoundDuration":474242,"Delta":475657031},{"NoteNumber":54,"Velocity":34,"Duration":474242,"SoundDuration":474242,"Delta":475657031},{"NoteNumber":57,"Velocity":34,"Duration":474242,"SoundDuration":474242,"Delta":475657031},{"NoteNumber":74,"Velocity":43,"Duration":236090,"SoundDuration":236090,"Delta":475895183},{"NoteNumber":73,"Velocity":46,"Duration":237116,"SoundDuration":237116,"Delta":476131274},{"NoteNumber":74,"Velocity":49,"Duration":238152,"SoundDuration":238152,"Delta":476368390},{"NoteNumber":73,"Velocity":53,"Duration":239196,"SoundDuration":239196,"Delta":476606542},{"NoteNumber":74,"Velocity":56,"Duration":240250,"SoundDuration":240250,"Delta":476845739},{"NoteNumber":73,"Velocity":60,"Duration":241312,"SoundDuration":241312,"Delta":477085989},{"NoteNumber":74,"Velocity":63,"Duration":242475,"SoundDuration":242475,"Delta":477327301},{"NoteNumber":77,"Velocity":66,"Duration":486933,"SoundDuration":486933,"Delta":477569776},{"NoteNumber":60,"Velocity":30,"Duration":243467,"SoundDuration":243467,"Delta":477813243},{"NoteNumber":65,"Velocity":30,"Duration":243467,"SoundDuration":243467,"Delta":477813243},{"NoteNumber":69,"Velocity":34,"Duration":243467,"SoundDuration":243467,"Delta":477813243},{"NoteNumber":75,"Velocity":64,"Duration":486934,"SoundDuration":486934,"Delta":478056710},{"NoteNumber":60,"Velocity":33,"Duration":243467,"SoundDuration":243467,"Delta":478056710},{"NoteNumber":65,"Velocity":33,"Duration":243467,"SoundDuration":243467,"Delta":478056710},{"NoteNumber":69,"Velocity":37,"Duration":243467,"SoundDuration":243467,"Delta":478056710},{"NoteNumber":60,"Velocity":36,"Duration":243467,"SoundDuration":243467,"Delta":478300177},{"NoteNumber":65,"Velocity":36,"Duration":243467,"SoundDuration":243467,"Delta":478300177},{"NoteNumber":69,"Velocity":40,"Duration":243467,"SoundDuration":243467,"Delta":478300177},{"NoteNumber":60,"Velocity":39,"Duration":482817,"SoundDuration":482817,"Delta":478543644},{"NoteNumber":65,"Velocity":39,"Duration":482817,"SoundDuration":482817,"Delta":478543644},{"NoteNumber":69,"Velocity":44,"Duration":482817,"SoundDuration":482817,"Delta":478543644},{"NoteNumber":75,"Velocity":53,"Duration":120656,"SoundDuration":120656,"Delta":478665378},{"NoteNumber":74,"Velocity":56,"Duration":120390,"SoundDuration":120390,"Delta":478786034},{"NoteNumber":75,"Velocity":53,"Duration":120037,"SoundDuration":120037,"Delta":478906425},{"NoteNumber":77,"Velocity":56,"Duration":119598,"SoundDuration":119598,"Delta":479026462},{"NoteNumber":75,"Velocity":54,"Duration":119250,"SoundDuration":119250,"Delta":479146060},{"NoteNumber":74,"Velocity":56,"Duration":119075,"SoundDuration":119075,"Delta":479265310},{"NoteNumber":75,"Velocity":53,"Duration":128018,"SoundDuration":128018,"Delta":479384386},{"NoteNumber":82,"Velocity":70,"Duration":484770,"SoundDuration":484770,"Delta":479512405},{"NoteNumber":65,"Velocity":32,"Duration":242385,"SoundDuration":242385,"Delta":479754790},{"NoteNumber":72,"Velocity":32,"Duration":242385,"SoundDuration":242385,"Delta":479754790},{"NoteNumber":75,"Velocity":36,"Duration":242385,"SoundDuration":242385,"Delta":479754790},{"NoteNumber":81,"Velocity":66,"Duration":484769,"SoundDuration":484769,"Delta":479997175},{"NoteNumber":65,"Velocity":36,"Duration":242384,"SoundDuration":242384,"Delta":479997175},{"NoteNumber":72,"Velocity":36,"Duration":242384,"SoundDuration":242384,"Delta":479997175},{"NoteNumber":75,"Velocity":40,"Duration":242384,"SoundDuration":242384,"Delta":479997175},{"NoteNumber":65,"Velocity":39,"Duration":242385,"SoundDuration":242385,"Delta":480239560},{"NoteNumber":72,"Velocity":39,"Duration":242385,"SoundDuration":242385,"Delta":480239560},{"NoteNumber":75,"Velocity":44,"Duration":242385,"SoundDuration":242385,"Delta":480239560},{"NoteNumber":65,"Velocity":42,"Duration":478420,"SoundDuration":478420,"Delta":480481945},{"NoteNumber":72,"Velocity":42,"Duration":478420,"SoundDuration":478420,"Delta":480481945},{"NoteNumber":75,"Velocity":47,"Duration":478420,"SoundDuration":478420,"Delta":480481945},{"NoteNumber":81,"Velocity":61,"Duration":119076,"SoundDuration":119076,"Delta":480603138},{"NoteNumber":79,"Velocity":63,"Duration":119076,"SoundDuration":119076,"Delta":480722214},{"NoteNumber":81,"Velocity":61,"Duration":119076,"SoundDuration":119076,"Delta":480841290},{"NoteNumber":82,"Velocity":63,"Duration":119076,"SoundDuration":119076,"Delta":480960366},{"NoteNumber":81,"Velocity":61,"Duration":119075,"SoundDuration":119075,"Delta":481079442},{"NoteNumber":79,"Velocity":63,"Duration":119076,"SoundDuration":119076,"Delta":481198518},{"NoteNumber":81,"Velocity":61,"Duration":128623,"SoundDuration":128623,"Delta":481317594},{"NoteNumber":89,"Velocity":77,"Duration":484770,"SoundDuration":484770,"Delta":481446217},{"NoteNumber":65,"Velocity":47,"Duration":242385,"SoundDuration":242385,"Delta":481688602},{"NoteNumber":87,"Velocity":75,"Duration":484769,"SoundDuration":484769,"Delta":481930987},{"NoteNumber":72,"Velocity":45,"Duration":242384,"SoundDuration":242384,"Delta":481930987},{"NoteNumber":75,"Velocity":45,"Duration":242385,"SoundDuration":242385,"Delta":482173372},{"NoteNumber":66,"Velocity":47,"Duration":965986,"SoundDuration":965986,"Delta":482415757},{"NoteNumber":87,"Velocity":66,"Duration":122830,"SoundDuration":122830,"Delta":482536949},{"NoteNumber":86,"Velocity":68,"Duration":122829,"SoundDuration":122829,"Delta":482659779},{"NoteNumber":87,"Velocity":65,"Duration":122830,"SoundDuration":122830,"Delta":482782609},{"NoteNumber":89,"Velocity":68,"Duration":119076,"SoundDuration":119076,"Delta":482905439},{"NoteNumber":87,"Velocity":65,"Duration":119076,"SoundDuration":119076,"Delta":483024515},{"NoteNumber":85,"Velocity":68,"Duration":119076,"SoundDuration":119076,"Delta":483143591},{"NoteNumber":84,"Velocity":65,"Duration":119076,"SoundDuration":119076,"Delta":483262667},{"NoteNumber":82,"Velocity":77,"Duration":484770,"SoundDuration":484770,"Delta":483381743},{"NoteNumber":65,"Velocity":38,"Duration":242385,"SoundDuration":242385,"Delta":483624128},{"NoteNumber":81,"Velocity":69,"Duration":484769,"SoundDuration":484769,"Delta":483866513},{"NoteNumber":72,"Velocity":41,"Duration":242384,"SoundDuration":242384,"Delta":483866513},{"NoteNumber":75,"Velocity":37,"Duration":242385,"SoundDuration":242385,"Delta":484108898},{"NoteNumber":66,"Velocity":49,"Duration":954724,"SoundDuration":954724,"Delta":484351283},{"NoteNumber":87,"Velocity":67,"Duration":142891,"SoundDuration":142891,"Delta":484472476},{"NoteNumber":86,"Velocity":69,"Duration":142891,"SoundDuration":142891,"Delta":484591552},{"NoteNumber":87,"Velocity":66,"Duration":142891,"SoundDuration":142891,"Delta":484710628},{"NoteNumber":89,"Velocity":70,"Duration":142891,"SoundDuration":142891,"Delta":484829704},{"NoteNumber":87,"Velocity":67,"Duration":142891,"SoundDuration":142891,"Delta":484948780},{"NoteNumber":85,"Velocity":68,"Duration":142891,"SoundDuration":142891,"Delta":485067856},{"NoteNumber":84,"Velocity":67,"Duration":119076,"SoundDuration":119076,"Delta":485186932},{"NoteNumber":82,"Velocity":66,"Duration":143641,"SoundDuration":143641,"Delta":485306008},{"NoteNumber":65,"Velocity":46,"Duration":241906,"SoundDuration":241906,"Delta":485306008},{"NoteNumber":81,"Velocity":65,"Duration":146541,"SoundDuration":146541,"Delta":485425084},{"NoteNumber":87,"Velocity":69,"Duration":142269,"SoundDuration":142269,"Delta":485547914},{"NoteNumber":86,"Velocity":66,"Duration":142269,"SoundDuration":142269,"Delta":485666472},{"NoteNumber":89,"Velocity":71,"Duration":142269,"SoundDuration":142269,"Delta":485785030},{"NoteNumber":66,"Velocity":52,"Duration":474232,"SoundDuration":474232,"Delta":485785030},{"NoteNumber":72,"Velocity":52,"Duration":952187,"SoundDuration":952187,"Delta":485785030},{"NoteNumber":75,"Velocity":52,"Duration":952187,"SoundDuration":952187,"Delta":485785030},{"NoteNumber":87,"Velocity":68,"Duration":142269,"SoundDuration":142269,"Delta":485903589},{"NoteNumber":85,"Velocity":69,"Duration":142269,"SoundDuration":142269,"Delta":486022147},{"NoteNumber":84,"Velocity":67,"Duration":142269,"SoundDuration":142269,"Delta":486140705},{"NoteNumber":82,"Velocity":66,"Duration":143014,"SoundDuration":143014,"Delta":486259263},{"NoteNumber":65,"Velocity":49,"Duration":477954,"SoundDuration":477954,"Delta":486259263},{"NoteNumber":81,"Velocity":65,"Duration":145990,"SoundDuration":145990,"Delta":486377822},{"NoteNumber":87,"Velocity":70,"Duration":142269,"SoundDuration":142269,"Delta":486500101},{"NoteNumber":86,"Velocity":67,"Duration":142269,"SoundDuration":142269,"Delta":486618659},{"NoteNumber":89,"Velocity":71,"Duration":142269,"SoundDuration":142269,"Delta":486737217},{"NoteNumber":72,"Velocity":53,"Duration":951641,"SoundDuration":951641,"Delta":486737217},{"NoteNumber":75,"Velocity":53,"Duration":951641,"SoundDuration":951641,"Delta":486737217},{"NoteNumber":66,"Velocity":53,"Duration":474232,"SoundDuration":474232,"Delta":486737217},{"NoteNumber":87,"Velocity":68,"Duration":142269,"SoundDuration":142269,"Delta":486855776},{"NoteNumber":85,"Velocity":70,"Duration":142269,"SoundDuration":142269,"Delta":486974334},{"NoteNumber":84,"Velocity":69,"Duration":118558,"SoundDuration":118558,"Delta":487092892},{"NoteNumber":82,"Velocity":68,"Duration":142904,"SoundDuration":142904,"Delta":487211450},{"NoteNumber":65,"Velocity":50,"Duration":477408,"SoundDuration":477408,"Delta":487211450},{"NoteNumber":81,"Velocity":67,"Duration":145445,"SoundDuration":145445,"Delta":487330009},{"NoteNumber":84,"Velocity":68,"Duration":142269,"SoundDuration":142269,"Delta":487451742},{"NoteNumber":83,"Velocity":64,"Duration":142583,"SoundDuration":142583,"Delta":487570300},{"NoteNumber":86,"Velocity":68,"Duration":144150,"SoundDuration":144150,"Delta":487688859},{"NoteNumber":84,"Velocity":67,"Duration":144150,"SoundDuration":144150,"Delta":487808984},{"NoteNumber":82,"Velocity":65,"Duration":144150,"SoundDuration":144150,"Delta":487929109},{"NoteNumber":81,"Velocity":63,"Duration":144150,"SoundDuration":144150,"Delta":488049234},{"NoteNumber":79,"Velocity":63,"Duration":145027,"SoundDuration":145027,"Delta":488169359},{"NoteNumber":77,"Velocity":61,"Duration":148858,"SoundDuration":148858,"Delta":488289484},{"NoteNumber":79,"Velocity":59,"Duration":146080,"SoundDuration":146080,"Delta":488413996},{"NoteNumber":78,"Velocity":58,"Duration":146080,"SoundDuration":146080,"Delta":488535729},{"NoteNumber":81,"Velocity":59,"Duration":146080,"SoundDuration":146080,"Delta":488657463},{"NoteNumber":79,"Velocity":57,"Duration":145653,"SoundDuration":145653,"Delta":488779196},{"NoteNumber":77,"Velocity":56,"Duration":143517,"SoundDuration":143517,"Delta":488900930},{"NoteNumber":75,"Velocity":54,"Duration":119598,"SoundDuration":119598,"Delta":489020528},{"NoteNumber":74,"Velocity":52,"Duration":244558,"SoundDuration":244558,"Delta":489140126},{"NoteNumber":72,"Velocity":52,"Duration":250166,"SoundDuration":250166,"Delta":489384685},{"NoteNumber":74,"Velocity":54,"Duration":125083,"SoundDuration":125083,"Delta":489634852},{"NoteNumber":75,"Velocity":56,"Duration":125083,"SoundDuration":125083,"Delta":489885019},{"NoteNumber":76,"Velocity":58,"Duration":137893,"SoundDuration":137893,"Delta":490135186},{"NoteNumber":77,"Velocity":61,"Duration":165234,"SoundDuration":165234,"Delta":490410972},{"NoteNumber":79,"Velocity":57,"Duration":116532,"SoundDuration":116532,"Delta":490741441},{"NoteNumber":77,"Velocity":56,"Duration":116532,"SoundDuration":116532,"Delta":490857973},{"NoteNumber":75,"Velocity":54,"Duration":116532,"SoundDuration":116532,"Delta":490974505},{"NoteNumber":74,"Velocity":52,"Duration":116532,"SoundDuration":116532,"Delta":491091037},{"NoteNumber":72,"Velocity":60,"Duration":236090,"SoundDuration":236090,"Delta":491207569},{"NoteNumber":70,"Velocity":54,"Duration":226253,"SoundDuration":226253,"Delta":491443660},{"NoteNumber":58,"Velocity":37,"Duration":236090,"SoundDuration":236090,"Delta":491443660},{"NoteNumber":70,"Velocity":51,"Duration":708271,"SoundDuration":708271,"Delta":491679750},{"NoteNumber":62,"Velocity":37,"Duration":236090,"SoundDuration":236090,"Delta":491679750},{"NoteNumber":65,"Velocity":33,"Duration":236090,"SoundDuration":236090,"Delta":491915841},{"NoteNumber":62,"Velocity":36,"Duration":236090,"SoundDuration":236090,"Delta":492151931},{"NoteNumber":74,"Velocity":57,"Duration":233064,"SoundDuration":233064,"Delta":492388022},{"NoteNumber":58,"Velocity":33,"Duration":233064,"SoundDuration":233064,"Delta":492388022},{"NoteNumber":79,"Velocity":60,"Duration":233064,"SoundDuration":233064,"Delta":492621086},{"NoteNumber":62,"Velocity":41,"Duration":233064,"SoundDuration":233064,"Delta":492621086},{"NoteNumber":74,"Velocity":55,"Duration":241312,"SoundDuration":241312,"Delta":492854150},{"NoteNumber":67,"Velocity":38,"Duration":241312,"SoundDuration":241312,"Delta":492854150},{"NoteNumber":77,"Velocity":60,"Duration":472180,"SoundDuration":472180,"Delta":493095462},{"NoteNumber":60,"Velocity":34,"Duration":236090,"SoundDuration":236090,"Delta":493331553},{"NoteNumber":75,"Velocity":56,"Duration":708271,"SoundDuration":708271,"Delta":493567643},{"NoteNumber":63,"Velocity":39,"Duration":236090,"SoundDuration":236090,"Delta":493567643},{"NoteNumber":67,"Velocity":36,"Duration":236090,"SoundDuration":236090,"Delta":493803734},{"NoteNumber":63,"Velocity":44,"Duration":236090,"SoundDuration":236090,"Delta":494039824},{"NoteNumber":77,"Velocity":60,"Duration":116532,"SoundDuration":116532,"Delta":494275915},{"NoteNumber":60,"Velocity":37,"Duration":233064,"SoundDuration":233064,"Delta":494275915},{"NoteNumber":79,"Velocity":56,"Duration":116532,"SoundDuration":116532,"Delta":494392447},{"NoteNumber":77,"Velocity":61,"Duration":116532,"SoundDuration":116532,"Delta":494508979},{"NoteNumber":63,"Velocity":38,"Duration":233064,"SoundDuration":233064,"Delta":494508979},{"NoteNumber":75,"Velocity":54,"Duration":116532,"SoundDuration":116532,"Delta":494625511},{"NoteNumber":74,"Velocity":58,"Duration":116531,"SoundDuration":116531,"Delta":494742043},{"NoteNumber":67,"Velocity":34,"Duration":233063,"SoundDuration":233063,"Delta":494742043},{"NoteNumber":72,"Velocity":53,"Duration":116532,"SoundDuration":116532,"Delta":494858575},{"NoteNumber":70,"Velocity":66,"Duration":473314,"SoundDuration":473314,"Delta":494975107},{"NoteNumber":53,"Velocity":35,"Duration":240250,"SoundDuration":240250,"Delta":495208171},{"NoteNumber":69,"Velocity":57,"Duration":692394,"SoundDuration":692394,"Delta":495448421},{"NoteNumber":60,"Velocity":35,"Duration":233064,"SoundDuration":233064,"Delta":495448421},{"NoteNumber":63,"Velocity":34,"Duration":233064,"SoundDuration":233064,"Delta":495681485},{"NoteNumber":60,"Velocity":47,"Duration":233063,"SoundDuration":233063,"Delta":495914549},{"NoteNumber":69,"Velocity":62,"Duration":233064,"SoundDuration":233064,"Delta":496147613},{"NoteNumber":53,"Velocity":36,"Duration":233064,"SoundDuration":233064,"Delta":496147613},{"NoteNumber":70,"Velocity":65,"Duration":233064,"SoundDuration":233064,"Delta":496380677},{"NoteNumber":60,"Velocity":43,"Duration":233064,"SoundDuration":233064,"Delta":496380677},{"NoteNumber":72,"Velocity":61,"Duration":235424,"SoundDuration":235424,"Delta":496613741},{"NoteNumber":63,"Velocity":36,"Duration":245659,"SoundDuration":245659,"Delta":496613741},{"NoteNumber":69,"Velocity":52,"Duration":476304,"SoundDuration":476304,"Delta":496859401},{"NoteNumber":72,"Velocity":61,"Duration":476304,"SoundDuration":476304,"Delta":496859401},{"NoteNumber":58,"Velocity":42,"Duration":238152,"SoundDuration":238152,"Delta":497097553},{"NoteNumber":70,"Velocity":49,"Duration":476303,"SoundDuration":476303,"Delta":497335705},{"NoteNumber":74,"Velocity":58,"Duration":476303,"SoundDuration":476303,"Delta":497335705},{"NoteNumber":62,"Velocity":42,"Duration":238151,"SoundDuration":238151,"Delta":497335705},{"NoteNumber":65,"Velocity":36,"Duration":238152,"SoundDuration":238152,"Delta":497573857},{"NoteNumber":62,"Velocity":45,"Duration":238152,"SoundDuration":238152,"Delta":497812009},{"NoteNumber":77,"Velocity":64,"Duration":115544,"SoundDuration":115544,"Delta":498050161},{"NoteNumber":58,"Velocity":42,"Duration":231088,"SoundDuration":231088,"Delta":498050161},{"NoteNumber":76,"Velocity":63,"Duration":115544,"SoundDuration":115544,"Delta":498165705},{"NoteNumber":79,"Velocity":66,"Duration":115544,"SoundDuration":115544,"Delta":498281250},{"NoteNumber":62,"Velocity":42,"Duration":231088,"SoundDuration":231088,"Delta":498281250},{"NoteNumber":77,"Velocity":63,"Duration":115544,"SoundDuration":115544,"Delta":498396794},{"NoteNumber":75,"Velocity":63,"Duration":115544,"SoundDuration":115544,"Delta":498512339},{"NoteNumber":65,"Velocity":39,"Duration":231088,"SoundDuration":231088,"Delta":498512339},{"NoteNumber":74,"Velocity":61,"Duration":105915,"SoundDuration":105915,"Delta":498627883},{"NoteNumber":74,"Velocity":68,"Duration":237116,"SoundDuration":237116,"Delta":498743428},{"NoteNumber":63,"Velocity":45,"Duration":237116,"SoundDuration":237116,"Delta":498743428},{"NoteNumber":72,"Velocity":61,"Duration":474232,"SoundDuration":474232,"Delta":498980544},{"NoteNumber":67,"Velocity":37,"Duration":237116,"SoundDuration":237116,"Delta":498980544},{"NoteNumber":62,"Velocity":40,"Duration":237116,"SoundDuration":237116,"Delta":499217661},{"NoteNumber":70,"Velocity":61,"Duration":233064,"SoundDuration":233064,"Delta":499454777},{"NoteNumber":65,"Velocity":35,"Duration":233064,"SoundDuration":233064,"Delta":499454777},{"NoteNumber":74,"Velocity":67,"Duration":237116,"SoundDuration":237116,"Delta":499687841},{"NoteNumber":63,"Velocity":45,"Duration":237116,"SoundDuration":237116,"Delta":499687841},{"NoteNumber":72,"Velocity":62,"Duration":474232,"SoundDuration":474232,"Delta":499924958},{"NoteNumber":67,"Velocity":35,"Duration":237116,"SoundDuration":237116,"Delta":499924958},{"NoteNumber":60,"Velocity":38,"Duration":237116,"SoundDuration":237116,"Delta":500162074},{"NoteNumber":69,"Velocity":64,"Duration":233064,"SoundDuration":233064,"Delta":500399191},{"NoteNumber":63,"Velocity":32,"Duration":233064,"SoundDuration":233064,"Delta":500399191},{"NoteNumber":70,"Velocity":68,"Duration":116036,"SoundDuration":116036,"Delta":500632255},{"NoteNumber":62,"Velocity":42,"Duration":464144,"SoundDuration":464144,"Delta":500632255},{"NoteNumber":65,"Velocity":42,"Duration":464144,"SoundDuration":464144,"Delta":500632255},{"NoteNumber":72,"Velocity":59,"Duration":116036,"SoundDuration":116036,"Delta":500748291},{"NoteNumber":70,"Velocity":62,"Duration":116036,"SoundDuration":116036,"Delta":500864327},{"NoteNumber":69,"Velocity":58,"Duration":116036,"SoundDuration":116036,"Delta":500980364},{"NoteNumber":70,"Velocity":66,"Duration":116036,"SoundDuration":116036,"Delta":501096400},{"NoteNumber":72,"Velocity":60,"Duration":116036,"SoundDuration":116036,"Delta":501212436},{"NoteNumber":74,"Velocity":63,"Duration":116036,"SoundDuration":116036,"Delta":501328472},{"NoteNumber":75,"Velocity":61,"Duration":115708,"SoundDuration":115708,"Delta":501444509},{"NoteNumber":76,"Velocity":69,"Duration":115544,"SoundDuration":115544,"Delta":501560217},{"NoteNumber":77,"Velocity":65,"Duration":115544,"SoundDuration":115544,"Delta":501675762},{"NoteNumber":76,"Velocity":69,"Duration":115382,"SoundDuration":115382,"Delta":501791306},{"NoteNumber":77,"Velocity":65,"Duration":121192,"SoundDuration":121192,"Delta":501906688},{"NoteNumber":79,"Velocity":69,"Duration":114573,"SoundDuration":114573,"Delta":502027881},{"NoteNumber":77,"Velocity":67,"Duration":114573,"SoundDuration":114573,"Delta":502142454},{"NoteNumber":75,"Velocity":66,"Duration":114573,"SoundDuration":114573,"Delta":502257028},{"NoteNumber":74,"Velocity":65,"Duration":111589,"SoundDuration":111589,"Delta":502371602},{"NoteNumber":74,"Velocity":72,"Duration":232072,"SoundDuration":232072,"Delta":502493335},{"NoteNumber":63,"Velocity":47,"Duration":232072,"SoundDuration":232072,"Delta":502493335},{"NoteNumber":72,"Velocity":54,"Duration":222402,"SoundDuration":222402,"Delta":502725408},{"NoteNumber":67,"Velocity":36,"Duration":232072,"SoundDuration":232072,"Delta":502725408},{"NoteNumber":72,"Velocity":56,"Duration":232072,"SoundDuration":232072,"Delta":502957480},{"NoteNumber":62,"Velocity":40,"Duration":232072,"SoundDuration":232072,"Delta":502957480},{"NoteNumber":70,"Velocity":54,"Duration":232072,"SoundDuration":232072,"Delta":503189553},{"NoteNumber":65,"Velocity":33,"Duration":232072,"SoundDuration":232072,"Delta":503189553},{"NoteNumber":74,"Velocity":65,"Duration":232072,"SoundDuration":232072,"Delta":503421625},{"NoteNumber":63,"Velocity":47,"Duration":232072,"SoundDuration":232072,"Delta":503421625},{"NoteNumber":72,"Velocity":54,"Duration":222402,"SoundDuration":222402,"Delta":503653698},{"NoteNumber":67,"Velocity":37,"Duration":232072,"SoundDuration":232072,"Delta":503653698},{"NoteNumber":72,"Velocity":57,"Duration":232072,"SoundDuration":232072,"Delta":503885770},{"NoteNumber":60,"Velocity":39,"Duration":232072,"SoundDuration":232072,"Delta":503885770},{"NoteNumber":69,"Velocity":53,"Duration":232072,"SoundDuration":232072,"Delta":504117843},{"NoteNumber":63,"Velocity":32,"Duration":232072,"SoundDuration":232072,"Delta":504117843},{"NoteNumber":70,"Velocity":66,"Duration":232072,"SoundDuration":232072,"Delta":504349915},{"NoteNumber":65,"Velocity":47,"Duration":464144,"SoundDuration":464144,"Delta":504349915},{"NoteNumber":62,"Velocity":47,"Duration":464144,"SoundDuration":464144,"Delta":504349915},{"NoteNumber":72,"Velocity":57,"Duration":116036,"SoundDuration":116036,"Delta":504581988},{"NoteNumber":74,"Velocity":58,"Duration":116036,"SoundDuration":116036,"Delta":504698024},{"NoteNumber":75,"Velocity":59,"Duration":116036,"SoundDuration":116036,"Delta":504814060},{"NoteNumber":77,"Velocity":60,"Duration":116036,"SoundDuration":116036,"Delta":504930097},{"NoteNumber":79,"Velocity":61,"Duration":116036,"SoundDuration":116036,"Delta":505046133},{"NoteNumber":81,"Velocity":64,"Duration":116036,"SoundDuration":116036,"Delta":505162169},{"NoteNumber":82,"Velocity":66,"Duration":116036,"SoundDuration":116036,"Delta":505278205},{"NoteNumber":84,"Velocity":67,"Duration":116036,"SoundDuration":116036,"Delta":505394242},{"NoteNumber":86,"Velocity":68,"Duration":115872,"SoundDuration":115872,"Delta":505510278},{"NoteNumber":87,"Velocity":69,"Duration":115544,"SoundDuration":115544,"Delta":505626150},{"NoteNumber":89,"Velocity":76,"Duration":115544,"SoundDuration":115544,"Delta":505741695},{"NoteNumber":89,"Velocity":75,"Duration":115057,"SoundDuration":115057,"Delta":505972459},{"NoteNumber":77,"Velocity":76,"Duration":1175364,"SoundDuration":1175364,"Delta":506202573},{"NoteNumber":89,"Velocity":76,"Duration":235072,"SoundDuration":235072,"Delta":506202573},{"NoteNumber":57,"Velocity":61,"Duration":470145,"SoundDuration":470145,"Delta":506202573},{"NoteNumber":87,"Velocity":74,"Duration":470145,"SoundDuration":470145,"Delta":506437646},{"NoteNumber":58,"Velocity":55,"Duration":470145,"SoundDuration":470145,"Delta":506672719},{"NoteNumber":86,"Velocity":73,"Duration":235072,"SoundDuration":235072,"Delta":506907792},{"NoteNumber":86,"Velocity":75,"Duration":235072,"SoundDuration":235072,"Delta":507142865},{"NoteNumber":51,"Velocity":63,"Duration":467145,"SoundDuration":467145,"Delta":507142865},{"NoteNumber":75,"Velocity":64,"Duration":116036,"SoundDuration":116036,"Delta":507377938},{"NoteNumber":84,"Velocity":64,"Duration":116036,"SoundDuration":116036,"Delta":507377938},{"NoteNumber":74,"Velocity":72,"Duration":116284,"SoundDuration":116284,"Delta":507610011},{"NoteNumber":82,"Velocity":72,"Duration":116284,"SoundDuration":116284,"Delta":507610011},{"NoteNumber":53,"Velocity":57,"Duration":487225,"SoundDuration":487225,"Delta":507610011},{"NoteNumber":72,"Velocity":64,"Duration":126828,"SoundDuration":126828,"Delta":507843579},{"NoteNumber":81,"Velocity":64,"Duration":126828,"SoundDuration":126828,"Delta":507843579},{"NoteNumber":82,"Velocity":76,"Duration":238152,"SoundDuration":238152,"Delta":508097236},{"NoteNumber":74,"Velocity":76,"Duration":238152,"SoundDuration":238152,"Delta":508097236},{"NoteNumber":46,"Velocity":52,"Duration":118903,"SoundDuration":118903,"Delta":508335388},{"NoteNumber":70,"Velocity":72,"Duration":246421,"SoundDuration":246421,"Delta":508574596},{"NoteNumber":50,"Velocity":55,"Duration":122190,"SoundDuration":122190,"Delta":508574596},{"NoteNumber":53,"Velocity":50,"Duration":126147,"SoundDuration":126147,"Delta":508821018},{"NoteNumber":58,"Velocity":61,"Duration":519390,"SoundDuration":519390,"Delta":509075488},{"NoteNumber":67,"Velocity":52,"Duration":129847,"SoundDuration":129847,"Delta":509594879},{"NoteNumber":65,"Velocity":48,"Duration":123173,"SoundDuration":123173,"Delta":509724727},{"NoteNumber":63,"Velocity":52,"Duration":123173,"SoundDuration":123173,"Delta":509847900},{"NoteNumber":62,"Velocity":48,"Duration":123173,"SoundDuration":123173,"Delta":509971073},{"NoteNumber":60,"Velocity":56,"Duration":237116,"SoundDuration":237116,"Delta":510094246},{"NoteNumber":58,"Velocity":53,"Duration":237116,"SoundDuration":237116,"Delta":510331362},{"NoteNumber":46,"Velocity":34,"Duration":237116,"SoundDuration":237116,"Delta":510331362},{"NoteNumber":58,"Velocity":53,"Duration":711349,"SoundDuration":711349,"Delta":510568479},{"NoteNumber":50,"Velocity":37,"Duration":237116,"SoundDuration":237116,"Delta":510568479},{"NoteNumber":53,"Velocity":34,"Duration":237116,"SoundDuration":237116,"Delta":510805595},{"NoteNumber":50,"Velocity":43,"Duration":237116,"SoundDuration":237116,"Delta":511042712},{"NoteNumber":70,"Velocity":54,"Duration":120125,"SoundDuration":120125,"Delta":511279828},{"NoteNumber":46,"Velocity":35,"Duration":240249,"SoundDuration":240249,"Delta":511279828},{"NoteNumber":70,"Velocity":54,"Duration":240250,"SoundDuration":240250,"Delta":511520078},{"NoteNumber":50,"Velocity":39,"Duration":240250,"SoundDuration":240250,"Delta":511520078},{"NoteNumber":72,"Velocity":51,"Duration":248385,"SoundDuration":248385,"Delta":511760328},{"NoteNumber":53,"Velocity":39,"Duration":248385,"SoundDuration":248385,"Delta":511760328},{"NoteNumber":70,"Velocity":61,"Duration":243467,"SoundDuration":243467,"Delta":512008714},{"NoteNumber":69,"Velocity":53,"Duration":243467,"SoundDuration":243467,"Delta":512252181},{"NoteNumber":46,"Velocity":37,"Duration":243467,"SoundDuration":243467,"Delta":512252181},{"NoteNumber":68,"Velocity":51,"Duration":720256,"SoundDuration":720256,"Delta":512495648},{"NoteNumber":50,"Velocity":41,"Duration":243467,"SoundDuration":243467,"Delta":512495648},{"NoteNumber":53,"Velocity":37,"Duration":243467,"SoundDuration":243467,"Delta":512739115},{"NoteNumber":50,"Velocity":43,"Duration":243467,"SoundDuration":243467,"Delta":512982582},{"NoteNumber":68,"Velocity":58,"Duration":226253,"SoundDuration":226253,"Delta":513226049},{"NoteNumber":46,"Velocity":38,"Duration":236090,"SoundDuration":236090,"Delta":513226049},{"NoteNumber":68,"Velocity":65,"Duration":226253,"SoundDuration":226253,"Delta":513462139},{"NoteNumber":50,"Velocity":38,"Duration":236090,"SoundDuration":236090,"Delta":513462139},{"NoteNumber":68,"Velocity":72,"Duration":236090,"SoundDuration":236090,"Delta":513698230},{"NoteNumber":53,"Velocity":34,"Duration":236090,"SoundDuration":236090,"Delta":513698230},{"NoteNumber":80,"Velocity":78,"Duration":116532,"SoundDuration":116532,"Delta":513934320},{"NoteNumber":82,"Velocity":71,"Duration":116532,"SoundDuration":116532,"Delta":514050852},{"NoteNumber":79,"Velocity":78,"Duration":116532,"SoundDuration":116532,"Delta":514167384},{"NoteNumber":46,"Velocity":47,"Duration":233064,"SoundDuration":233064,"Delta":514167384},{"NoteNumber":80,"Velocity":70,"Duration":116532,"SoundDuration":116532,"Delta":514283916},{"NoteNumber":77,"Velocity":79,"Duration":116532,"SoundDuration":116532,"Delta":514400448},{"NoteNumber":50,"Velocity":47,"Duration":233064,"SoundDuration":233064,"Delta":514400448},{"NoteNumber":79,"Velocity":69,"Duration":116532,"SoundDuration":116532,"Delta":514516980},{"NoteNumber":75,"Velocity":77,"Duration":116532,"SoundDuration":116532,"Delta":514633512},{"NoteNumber":53,"Velocity":45,"Duration":233064,"SoundDuration":233064,"Delta":514633512},{"NoteNumber":77,"Velocity":70,"Duration":116532,"SoundDuration":116532,"Delta":514750044},{"NoteNumber":74,"Velocity":79,"Duration":116531,"SoundDuration":116531,"Delta":514866576},{"NoteNumber":56,"Velocity":53,"Duration":233063,"SoundDuration":233063,"Delta":514866576},{"NoteNumber":75,"Velocity":70,"Duration":116532,"SoundDuration":116532,"Delta":514983108},{"NoteNumber":72,"Velocity":75,"Duration":116532,"SoundDuration":116532,"Delta":515099640},{"NoteNumber":53,"Velocity":45,"Duration":233064,"SoundDuration":233064,"Delta":515099640},{"NoteNumber":74,"Velocity":69,"Duration":116532,"SoundDuration":116532,"Delta":515216172},{"NoteNumber":70,"Velocity":76,"Duration":116532,"SoundDuration":116532,"Delta":515332704},{"NoteNumber":50,"Velocity":48,"Duration":233064,"SoundDuration":233064,"Delta":515332704},{"NoteNumber":72,"Velocity":70,"Duration":116532,"SoundDuration":116532,"Delta":515449236},{"NoteNumber":68,"Velocity":72,"Duration":116532,"SoundDuration":116532,"Delta":515565768},{"NoteNumber":46,"Velocity":45,"Duration":246087,"SoundDuration":246087,"Delta":515565768},{"NoteNumber":70,"Velocity":67,"Duration":129555,"SoundDuration":129555,"Delta":515682300},{"NoteNumber":68,"Velocity":72,"Duration":243467,"SoundDuration":243467,"Delta":515811856},{"NoteNumber":67,"Velocity":67,"Duration":233322,"SoundDuration":233322,"Delta":516055323},{"NoteNumber":47,"Velocity":36,"Duration":243467,"SoundDuration":243467,"Delta":516055323},{"NoteNumber":67,"Velocity":59,"Duration":730401,"SoundDuration":730401,"Delta":516298790},{"NoteNumber":50,"Velocity":36,"Duration":243467,"SoundDuration":243467,"Delta":516298790},{"NoteNumber":53,"Velocity":36,"Duration":243467,"SoundDuration":243467,"Delta":516542257},{"NoteNumber":55,"Velocity":41,"Duration":243467,"SoundDuration":243467,"Delta":516785724},{"NoteNumber":79,"Velocity":54,"Duration":121733,"SoundDuration":121733,"Delta":517029191},{"NoteNumber":53,"Velocity":33,"Duration":243466,"SoundDuration":243466,"Delta":517029191},{"NoteNumber":79,"Velocity":60,"Duration":235073,"SoundDuration":235073,"Delta":517272658},{"NoteNumber":50,"Velocity":34,"Duration":235073,"SoundDuration":235073,"Delta":517272658},{"NoteNumber":77,"Velocity":54,"Duration":225278,"SoundDuration":225278,"Delta":517507731},{"NoteNumber":47,"Velocity":32,"Duration":235072,"SoundDuration":235072,"Delta":517507731},{"NoteNumber":77,"Velocity":63,"Duration":242385,"SoundDuration":242385,"Delta":517742804},{"NoteNumber":76,"Velocity":54,"Duration":232285,"SoundDuration":232285,"Delta":517985189},{"NoteNumber":58,"Velocity":33,"Duration":242385,"SoundDuration":242385,"Delta":517985189},{"NoteNumber":76,"Velocity":54,"Duration":734937,"SoundDuration":734937,"Delta":518227574},{"NoteNumber":61,"Velocity":36,"Duration":242385,"SoundDuration":242385,"Delta":518227574},{"NoteNumber":64,"Velocity":32,"Duration":242385,"SoundDuration":242385,"Delta":518469959},{"NoteNumber":67,"Velocity":40,"Duration":492552,"SoundDuration":492552,"Delta":518712344},{"NoteNumber":85,"Velocity":59,"Duration":121192,"SoundDuration":121192,"Delta":518962511},{"NoteNumber":85,"Velocity":61,"Duration":242385,"SoundDuration":242385,"Delta":519204896},{"NoteNumber":76,"Velocity":56,"Duration":242385,"SoundDuration":242385,"Delta":519447281},{"NoteNumber":79,"Velocity":61,"Duration":242385,"SoundDuration":242385,"Delta":519689666},{"NoteNumber":77,"Velocity":54,"Duration":232285,"SoundDuration":232285,"Delta":519932051},{"NoteNumber":57,"Velocity":34,"Duration":242384,"SoundDuration":242384,"Delta":519932051},{"NoteNumber":77,"Velocity":54,"Duration":727155,"SoundDuration":727155,"Delta":520174436},{"NoteNumber":60,"Velocity":34,"Duration":242385,"SoundDuration":242385,"Delta":520174436},{"NoteNumber":65,"Velocity":32,"Duration":242385,"SoundDuration":242385,"Delta":520416821},{"NoteNumber":69,"Velocity":39,"Duration":479501,"SoundDuration":479501,"Delta":520659206},{"NoteNumber":78,"Velocity":52,"Duration":237116,"SoundDuration":237116,"Delta":520901591},{"NoteNumber":79,"Velocity":54,"Duration":237116,"SoundDuration":237116,"Delta":521138708},{"NoteNumber":75,"Velocity":52,"Duration":257730,"SoundDuration":257730,"Delta":521375824},{"NoteNumber":73,"Velocity":57,"Duration":244558,"SoundDuration":244558,"Delta":521633555},{"NoteNumber":74,"Velocity":52,"Duration":234368,"SoundDuration":234368,"Delta":521878113},{"NoteNumber":58,"Velocity":32,"Duration":244558,"SoundDuration":244558,"Delta":521878113},{"NoteNumber":74,"Velocity":52,"Duration":489117,"SoundDuration":489117,"Delta":522122672},{"NoteNumber":62,"Velocity":34,"Duration":244558,"SoundDuration":244558,"Delta":522122672},{"NoteNumber":65,"Velocity":30,"Duration":244558,"SoundDuration":244558,"Delta":522367230},{"NoteNumber":70,"Velocity":38,"Duration":480648,"SoundDuration":480648,"Delta":522611789},{"NoteNumber":77,"Velocity":54,"Duration":236090,"SoundDuration":236090,"Delta":522856347},{"NoteNumber":79,"Velocity":61,"Duration":118045,"SoundDuration":118045,"Delta":523092438},{"NoteNumber":77,"Velocity":57,"Duration":118045,"SoundDuration":118045,"Delta":523210483},{"NoteNumber":75,"Velocity":61,"Duration":118045,"SoundDuration":118045,"Delta":523328528},{"NoteNumber":74,"Velocity":56,"Duration":118045,"SoundDuration":118045,"Delta":523446574},{"NoteNumber":72,"Velocity":61,"Duration":708271,"SoundDuration":708271,"Delta":523564619},{"NoteNumber":63,"Velocity":42,"Duration":236090,"SoundDuration":236090,"Delta":523564619},{"NoteNumber":67,"Velocity":38,"Duration":236090,"SoundDuration":236090,"Delta":523800709},{"NoteNumber":63,"Velocity":42,"Duration":236090,"SoundDuration":236090,"Delta":524036800},{"NoteNumber":69,"Velocity":52,"Duration":236090,"SoundDuration":236090,"Delta":524272890},{"NoteNumber":65,"Velocity":38,"Duration":236090,"SoundDuration":236090,"Delta":524272890},{"NoteNumber":70,"Velocity":52,"Duration":59022,"SoundDuration":59022,"Delta":524508981},{"NoteNumber":62,"Velocity":41,"Duration":234577,"SoundDuration":234577,"Delta":524508981},{"NoteNumber":77,"Velocity":56,"Duration":139838,"SoundDuration":139838,"Delta":524627026},{"NoteNumber":76,"Velocity":56,"Duration":139838,"SoundDuration":139838,"Delta":524743558},{"NoteNumber":65,"Velocity":38,"Duration":233064,"SoundDuration":233064,"Delta":524743558},{"NoteNumber":77,"Velocity":52,"Duration":139838,"SoundDuration":139838,"Delta":524860090},{"NoteNumber":79,"Velocity":63,"Duration":139838,"SoundDuration":139838,"Delta":524976622},{"NoteNumber":62,"Velocity":41,"Duration":233064,"SoundDuration":233064,"Delta":524976622},{"NoteNumber":77,"Velocity":54,"Duration":139838,"SoundDuration":139838,"Delta":525093154},{"NoteNumber":75,"Velocity":59,"Duration":139838,"SoundDuration":139838,"Delta":525209686},{"NoteNumber":65,"Velocity":38,"Duration":233064,"SoundDuration":233064,"Delta":525209686},{"NoteNumber":74,"Velocity":53,"Duration":140663,"SoundDuration":140663,"Delta":525326218},{"NoteNumber":72,"Velocity":63,"Duration":120656,"SoundDuration":120656,"Delta":525442750},{"NoteNumber":63,"Velocity":41,"Duration":241312,"SoundDuration":241312,"Delta":525442750},{"NoteNumber":72,"Velocity":63,"Duration":474233,"SoundDuration":474233,"Delta":525684063},{"NoteNumber":65,"Velocity":38,"Duration":237116,"SoundDuration":237116,"Delta":525684063},{"NoteNumber":63,"Velocity":41,"Duration":237116,"SoundDuration":237116,"Delta":525921179},{"NoteNumber":69,"Velocity":54,"Duration":237116,"SoundDuration":237116,"Delta":526158296},{"NoteNumber":65,"Velocity":38,"Duration":237116,"SoundDuration":237116,"Delta":526158296},{"NoteNumber":70,"Velocity":54,"Duration":59279,"SoundDuration":59279,"Delta":526395412},{"NoteNumber":62,"Velocity":41,"Duration":235090,"SoundDuration":235090,"Delta":526395412},{"NoteNumber":77,"Velocity":51,"Duration":139838,"SoundDuration":139838,"Delta":526513970},{"NoteNumber":76,"Velocity":56,"Duration":139838,"SoundDuration":139838,"Delta":526630502},{"NoteNumber":65,"Velocity":38,"Duration":233064,"SoundDuration":233064,"Delta":526630502},{"NoteNumber":77,"Velocity":53,"Duration":139838,"SoundDuration":139838,"Delta":526747034},{"NoteNumber":79,"Velocity":62,"Duration":139838,"SoundDuration":139838,"Delta":526863566},{"NoteNumber":62,"Velocity":41,"Duration":233064,"SoundDuration":233064,"Delta":526863566},{"NoteNumber":77,"Velocity":53,"Duration":139838,"SoundDuration":139838,"Delta":526980098},{"NoteNumber":75,"Velocity":57,"Duration":139838,"SoundDuration":139838,"Delta":527096630},{"NoteNumber":65,"Velocity":38,"Duration":233064,"SoundDuration":233064,"Delta":527096630},{"NoteNumber":74,"Velocity":54,"Duration":106820,"SoundDuration":106820,"Delta":527213162},{"NoteNumber":74,"Velocity":63,"Duration":237116,"SoundDuration":237116,"Delta":527329694},{"NoteNumber":63,"Velocity":41,"Duration":237116,"SoundDuration":237116,"Delta":527329694},{"NoteNumber":72,"Velocity":60,"Duration":237116,"SoundDuration":237116,"Delta":527566811},{"NoteNumber":67,"Velocity":38,"Duration":237116,"SoundDuration":237116,"Delta":527566811},{"NoteNumber":63,"Velocity":41,"Duration":237116,"SoundDuration":237116,"Delta":527803927},{"NoteNumber":72,"Velocity":59,"Duration":233064,"SoundDuration":233064,"Delta":528041044},{"NoteNumber":67,"Velocity":38,"Duration":233064,"SoundDuration":233064,"Delta":528041044},{"NoteNumber":72,"Velocity":63,"Duration":237116,"SoundDuration":237116,"Delta":528274108},{"NoteNumber":64,"Velocity":41,"Duration":237116,"SoundDuration":237116,"Delta":528274108},{"NoteNumber":70,"Velocity":59,"Duration":237116,"SoundDuration":237116,"Delta":528511224},{"NoteNumber":67,"Velocity":38,"Duration":237116,"SoundDuration":237116,"Delta":528511224},{"NoteNumber":64,"Velocity":41,"Duration":237116,"SoundDuration":237116,"Delta":528748341},{"NoteNumber":70,"Velocity":52,"Duration":231088,"SoundDuration":231088,"Delta":528985457},{"NoteNumber":67,"Velocity":38,"Duration":231088,"SoundDuration":231088,"Delta":528985457},{"NoteNumber":69,"Velocity":64,"Duration":115544,"SoundDuration":115544,"Delta":529216546},{"NoteNumber":53,"Velocity":41,"Duration":462177,"SoundDuration":462177,"Delta":529216546},{"NoteNumber":70,"Velocity":58,"Duration":115544,"SoundDuration":115544,"Delta":529332091},{"NoteNumber":69,"Velocity":62,"Duration":115544,"SoundDuration":115544,"Delta":529447635},{"NoteNumber":65,"Velocity":58,"Duration":115544,"SoundDuration":115544,"Delta":529563180},{"NoteNumber":70,"Velocity":69,"Duration":115544,"SoundDuration":115544,"Delta":529678724},{"NoteNumber":55,"Velocity":47,"Duration":462177,"SoundDuration":462177,"Delta":529678724},{"NoteNumber":72,"Velocity":62,"Duration":115544,"SoundDuration":115544,"Delta":529794269},{"NoteNumber":70,"Velocity":67,"Duration":115544,"SoundDuration":115544,"Delta":529909813},{"NoteNumber":65,"Velocity":59,"Duration":115544,"SoundDuration":115544,"Delta":530025358},{"NoteNumber":72,"Velocity":70,"Duration":115544,"SoundDuration":115544,"Delta":530140902},{"NoteNumber":57,"Velocity":52,"Duration":462177,"SoundDuration":462177,"Delta":530140902},{"NoteNumber":74,"Velocity":64,"Duration":115544,"SoundDuration":115544,"Delta":530256447},{"NoteNumber":72,"Velocity":69,"Duration":115544,"SoundDuration":115544,"Delta":530371991},{"NoteNumber":65,"Velocity":63,"Duration":115544,"SoundDuration":115544,"Delta":530487536},{"NoteNumber":74,"Velocity":77,"Duration":115544,"SoundDuration":115544,"Delta":530603080},{"NoteNumber":58,"Velocity":58,"Duration":462177,"SoundDuration":462177,"Delta":530603080},{"NoteNumber":75,"Velocity":67,"Duration":115544,"SoundDuration":115544,"Delta":530718625},{"NoteNumber":74,"Velocity":72,"Duration":115544,"SoundDuration":115544,"Delta":530834169},{"NoteNumber":65,"Velocity":67,"Duration":115544,"SoundDuration":115544,"Delta":530949714},{"NoteNumber":75,"Velocity":78,"Duration":118045,"SoundDuration":118045,"Delta":531065258},{"NoteNumber":60,"Velocity":64,"Duration":236090,"SoundDuration":236090,"Delta":531065258},{"NoteNumber":75,"Velocity":78,"Duration":118045,"SoundDuration":118045,"Delta":531301349},{"NoteNumber":65,"Velocity":45,"Duration":236090,"SoundDuration":236090,"Delta":531301349},{"NoteNumber":57,"Velocity":51,"Duration":236090,"SoundDuration":236090,"Delta":531537439},{"NoteNumber":72,"Velocity":73,"Duration":117031,"SoundDuration":117031,"Delta":531773530},{"NoteNumber":65,"Velocity":46,"Duration":234063,"SoundDuration":234063,"Delta":531773530},{"NoteNumber":75,"Velocity":79,"Duration":234063,"SoundDuration":234063,"Delta":532007594},{"NoteNumber":58,"Velocity":52,"Duration":234063,"SoundDuration":234063,"Delta":532007594},{"NoteNumber":74,"Velocity":72,"Duration":117031,"SoundDuration":117031,"Delta":532241658},{"NoteNumber":65,"Velocity":46,"Duration":234063,"SoundDuration":234063,"Delta":532241658},{"NoteNumber":72,"Velocity":74,"Duration":117031,"SoundDuration":117031,"Delta":532475722},{"NoteNumber":55,"Velocity":52,"Duration":234063,"SoundDuration":234063,"Delta":532475722},{"NoteNumber":70,"Velocity":71,"Duration":117031,"SoundDuration":117031,"Delta":532709786},{"NoteNumber":65,"Velocity":46,"Duration":234063,"SoundDuration":234063,"Delta":532709786},{"NoteNumber":69,"Velocity":67,"Duration":115544,"SoundDuration":115544,"Delta":532943850},{"NoteNumber":53,"Velocity":40,"Duration":462177,"SoundDuration":462177,"Delta":532943850},{"NoteNumber":65,"Velocity":59,"Duration":115544,"SoundDuration":115544,"Delta":533059394},{"NoteNumber":76,"Velocity":61,"Duration":115544,"SoundDuration":115544,"Delta":533174939},{"NoteNumber":77,"Velocity":59,"Duration":115544,"SoundDuration":115544,"Delta":533290483},{"NoteNumber":70,"Velocity":70,"Duration":115544,"SoundDuration":115544,"Delta":533406028},{"NoteNumber":55,"Velocity":46,"Duration":462177,"SoundDuration":462177,"Delta":533406028},{"NoteNumber":65,"Velocity":59,"Duration":115544,"SoundDuration":115544,"Delta":533521572},{"NoteNumber":76,"Velocity":66,"Duration":115544,"SoundDuration":115544,"Delta":533637117},{"NoteNumber":77,"Velocity":61,"Duration":115544,"SoundDuration":115544,"Delta":533752661},{"NoteNumber":72,"Velocity":74,"Duration":115544,"SoundDuration":115544,"Delta":533868206},{"NoteNumber":57,"Velocity":51,"Duration":462177,"SoundDuration":462177,"Delta":533868206},{"NoteNumber":65,"Velocity":64,"Duration":115544,"SoundDuration":115544,"Delta":533983750},{"NoteNumber":76,"Velocity":69,"Duration":115544,"SoundDuration":115544,"Delta":534099295},{"NoteNumber":77,"Velocity":62,"Duration":115544,"SoundDuration":115544,"Delta":534214839},{"NoteNumber":74,"Velocity":79,"Duration":115544,"SoundDuration":115544,"Delta":534330384},{"NoteNumber":58,"Velocity":58,"Duration":462177,"SoundDuration":462177,"Delta":534330384},{"NoteNumber":65,"Velocity":69,"Duration":115544,"SoundDuration":115544,"Delta":534445928},{"NoteNumber":76,"Velocity":73,"Duration":115544,"SoundDuration":115544,"Delta":534561473},{"NoteNumber":77,"Velocity":69,"Duration":115544,"SoundDuration":115544,"Delta":534677017},{"NoteNumber":75,"Velocity":79,"Duration":118558,"SoundDuration":118558,"Delta":534792562},{"NoteNumber":60,"Velocity":64,"Duration":118558,"SoundDuration":118558,"Delta":534792562},{"NoteNumber":65,"Velocity":45,"Duration":118558,"SoundDuration":118558,"Delta":534911120},{"NoteNumber":75,"Velocity":79,"Duration":118558,"SoundDuration":118558,"Delta":535029678},{"NoteNumber":64,"Velocity":49,"Duration":118558,"SoundDuration":118558,"Delta":535029678},{"NoteNumber":65,"Velocity":45,"Duration":118558,"SoundDuration":118558,"Delta":535148237},{"NoteNumber":57,"Velocity":56,"Duration":118558,"SoundDuration":118558,"Delta":535266795},{"NoteNumber":65,"Velocity":46,"Duration":118558,"SoundDuration":118558,"Delta":535385353},{"NoteNumber":72,"Velocity":57,"Duration":59279,"SoundDuration":59279,"Delta":535503911},{"NoteNumber":64,"Velocity":49,"Duration":118558,"SoundDuration":118558,"Delta":535503911},{"NoteNumber":74,"Velocity":52,"Duration":59279,"SoundDuration":59279,"Delta":535560227},{"NoteNumber":72,"Velocity":57,"Duration":59279,"SoundDuration":59279,"Delta":535622470},{"NoteNumber":65,"Velocity":46,"Duration":118558,"SoundDuration":118558,"Delta":535622470},{"NoteNumber":74,"Velocity":52,"Duration":59279,"SoundDuration":59279,"Delta":535681749},{"NoteNumber":75,"Velocity":72,"Duration":237116,"SoundDuration":237116,"Delta":535741028},{"NoteNumber":58,"Velocity":56,"Duration":118558,"SoundDuration":118558,"Delta":535741028},{"NoteNumber":65,"Velocity":46,"Duration":118558,"SoundDuration":118558,"Delta":535859586},{"NoteNumber":74,"Velocity":71,"Duration":118558,"SoundDuration":118558,"Delta":535978144},{"NoteNumber":64,"Velocity":49,"Duration":118558,"SoundDuration":118558,"Delta":535978144},{"NoteNumber":65,"Velocity":47,"Duration":118558,"SoundDuration":118558,"Delta":536096703},{"NoteNumber":72,"Velocity":71,"Duration":118558,"SoundDuration":118558,"Delta":536215261},{"NoteNumber":55,"Velocity":57,"Duration":118558,"SoundDuration":118558,"Delta":536215261},{"NoteNumber":64,"Velocity":45,"Duration":118558,"SoundDuration":118558,"Delta":536333819},{"NoteNumber":70,"Velocity":68,"Duration":118558,"SoundDuration":118558,"Delta":536452377},{"NoteNumber":62,"Velocity":49,"Duration":118558,"SoundDuration":118558,"Delta":536452377},{"NoteNumber":64,"Velocity":46,"Duration":118558,"SoundDuration":118558,"Delta":536570936},{"NoteNumber":69,"Velocity":78,"Duration":116036,"SoundDuration":116036,"Delta":536689494},{"NoteNumber":53,"Velocity":59,"Duration":459310,"SoundDuration":459310,"Delta":536689494},{"NoteNumber":65,"Velocity":59,"Duration":459310,"SoundDuration":459310,"Delta":536689494},{"NoteNumber":77,"Velocity":69,"Duration":116036,"SoundDuration":116036,"Delta":536805530},{"NoteNumber":72,"Velocity":73,"Duration":116036,"SoundDuration":116036,"Delta":536921566},{"NoteNumber":69,"Velocity":70,"Duration":116036,"SoundDuration":116036,"Delta":537037603},{"NoteNumber":65,"Velocity":77,"Duration":116037,"SoundDuration":116037,"Delta":537153639},{"NoteNumber":60,"Velocity":69,"Duration":117708,"SoundDuration":117708,"Delta":537269677},{"NoteNumber":57,"Velocity":70,"Duration":119426,"SoundDuration":119426,"Delta":537387385},{"NoteNumber":53,"Velocity":67,"Duration":121285,"SoundDuration":121285,"Delta":537506811},{"NoteNumber":29,"Velocity":75,"Duration":244558,"SoundDuration":244558,"Delta":537628096},{"NoteNumber":41,"Velocity":75,"Duration":244558,"SoundDuration":244558,"Delta":537628096},{"NoteNumber":53,"Velocity":72,"Duration":699192,"SoundDuration":699192,"Delta":538606330},{"NoteNumber":58,"Velocity":72,"Duration":699192,"SoundDuration":699192,"Delta":538606330},{"NoteNumber":62,"Velocity":72,"Duration":699192,"SoundDuration":699192,"Delta":538606330},{"NoteNumber":65,"Velocity":72,"Duration":699192,"SoundDuration":699192,"Delta":538606330},{"NoteNumber":34,"Velocity":58,"Duration":932256,"SoundDuration":932256,"Delta":538606330},{"NoteNumber":46,"Velocity":58,"Duration":932256,"SoundDuration":932256,"Delta":538606330},{"NoteNumber":67,"Velocity":48,"Duration":116532,"SoundDuration":116532,"Delta":539305522},{"NoteNumber":65,"Velocity":45,"Duration":116532,"SoundDuration":116532,"Delta":539422054},{"NoteNumber":63,"Velocity":52,"Duration":116531,"SoundDuration":116531,"Delta":539538586},{"NoteNumber":62,"Velocity":48,"Duration":116532,"SoundDuration":116532,"Delta":539771650},{"NoteNumber":60,"Velocity":52,"Duration":116532,"SoundDuration":116532,"Delta":540004714},{"NoteNumber":58,"Velocity":48,"Duration":116532,"SoundDuration":116532,"Delta":540237778},{"NoteNumber":58,"Velocity":54,"Duration":244339,"SoundDuration":244339,"Delta":540470842},{"NoteNumber":67,"Velocity":49,"Duration":241962,"SoundDuration":241962,"Delta":540715182},{"NoteNumber":58,"Velocity":72,"Duration":712629,"SoundDuration":712629,"Delta":540967664},{"NoteNumber":67,"Velocity":72,"Duration":712629,"SoundDuration":712629,"Delta":540967664},{"NoteNumber":39,"Velocity":57,"Duration":945694,"SoundDuration":945694,"Delta":540967664},{"NoteNumber":51,"Velocity":57,"Duration":945694,"SoundDuration":945694,"Delta":540967664},{"NoteNumber":65,"Velocity":53,"Duration":233064,"SoundDuration":233064,"Delta":541680294},{"NoteNumber":69,"Velocity":53,"Duration":233064,"SoundDuration":233064,"Delta":541913358},{"NoteNumber":50,"Velocity":44,"Duration":466128,"SoundDuration":466128,"Delta":541913358},{"NoteNumber":70,"Velocity":52,"Duration":223352,"SoundDuration":223352,"Delta":542146422},{"NoteNumber":70,"Velocity":61,"Duration":229147,"SoundDuration":229147,"Delta":542379486},{"NoteNumber":52,"Velocity":38,"Duration":462211,"SoundDuration":462211,"Delta":542379486},{"NoteNumber":55,"Velocity":38,"Duration":462211,"SoundDuration":462211,"Delta":542379486},{"NoteNumber":60,"Velocity":53,"Duration":466128,"SoundDuration":466128,"Delta":542608634},{"NoteNumber":53,"Velocity":38,"Duration":466128,"SoundDuration":466128,"Delta":542841698},{"NoteNumber":62,"Velocity":53,"Duration":233064,"SoundDuration":233064,"Delta":543074762},{"NoteNumber":70,"Velocity":61,"Duration":229147,"SoundDuration":229147,"Delta":543307826},{"NoteNumber":55,"Velocity":38,"Duration":462211,"SoundDuration":462211,"Delta":543307826},{"NoteNumber":52,"Velocity":38,"Duration":462211,"SoundDuration":462211,"Delta":543307826},{"NoteNumber":60,"Velocity":51,"Duration":466128,"SoundDuration":466128,"Delta":543536973},{"NoteNumber":53,"Velocity":40,"Duration":466128,"SoundDuration":466128,"Delta":543770037},{"NoteNumber":62,"Velocity":53,"Duration":233064,"SoundDuration":233064,"Delta":544003101},{"NoteNumber":65,"Velocity":58,"Duration":472260,"SoundDuration":472260,"Delta":544236165},{"NoteNumber":55,"Velocity":39,"Duration":472260,"SoundDuration":472260,"Delta":544236165},{"NoteNumber":63,"Velocity":52,"Duration":58768,"SoundDuration":58768,"Delta":544708426},{"NoteNumber":57,"Velocity":35,"Duration":470145,"SoundDuration":470145,"Delta":544708426},{"NoteNumber":65,"Velocity":47,"Duration":58768,"SoundDuration":58768,"Delta":544767194},{"NoteNumber":63,"Velocity":52,"Duration":58768,"SoundDuration":58768,"Delta":544825962},{"NoteNumber":65,"Velocity":49,"Duration":58768,"SoundDuration":58768,"Delta":544884730},{"NoteNumber":63,"Velocity":52,"Duration":39178,"SoundDuration":39178,"Delta":544943499},{"NoteNumber":65,"Velocity":49,"Duration":39178,"SoundDuration":39178,"Delta":544982678},{"NoteNumber":63,"Velocity":49,"Duration":39178,"SoundDuration":39178,"Delta":545021856},{"NoteNumber":62,"Velocity":52,"Duration":58768,"SoundDuration":58768,"Delta":545061035},{"NoteNumber":63,"Velocity":48,"Duration":58768,"SoundDuration":58768,"Delta":545119803},{"NoteNumber":62,"Velocity":57,"Duration":117536,"SoundDuration":117536,"Delta":545178572},{"NoteNumber":58,"Velocity":35,"Duration":468137,"SoundDuration":468137,"Delta":545178572},{"NoteNumber":62,"Velocity":51,"Duration":233064,"SoundDuration":233064,"Delta":545413645},{"NoteNumber":63,"Velocity":53,"Duration":233064,"SoundDuration":233064,"Delta":545646709},{"NoteNumber":65,"Velocity":51,"Duration":233064,"SoundDuration":233064,"Delta":545879773},{"NoteNumber":66,"Velocity":65,"Duration":237116,"SoundDuration":237116,"Delta":546112837},{"NoteNumber":67,"Velocity":54,"Duration":466128,"SoundDuration":466128,"Delta":546349953},{"NoteNumber":39,"Velocity":46,"Duration":233064,"SoundDuration":233064,"Delta":546349953},{"NoteNumber":43,"Velocity":46,"Duration":233064,"SoundDuration":233064,"Delta":546583017},{"NoteNumber":65,"Velocity":53,"Duration":115057,"SoundDuration":115057,"Delta":546816081},{"NoteNumber":48,"Velocity":45,"Duration":230114,"SoundDuration":230114,"Delta":546816081},{"NoteNumber":63,"Velocity":50,"Duration":115057,"SoundDuration":115057,"Delta":546931138},{"NoteNumber":62,"Velocity":54,"Duration":233064,"SoundDuration":233064,"Delta":547046196},{"NoteNumber":51,"Velocity":52,"Duration":466128,"SoundDuration":466128,"Delta":547046196},{"NoteNumber":60,"Velocity":51,"Duration":233064,"SoundDuration":233064,"Delta":547279260},{"NoteNumber":62,"Velocity":52,"Duration":233064,"SoundDuration":233064,"Delta":547512324},{"NoteNumber":63,"Velocity":51,"Duration":233064,"SoundDuration":233064,"Delta":547745388},{"NoteNumber":67,"Velocity":63,"Duration":238152,"SoundDuration":238152,"Delta":547978452},{"NoteNumber":65,"Velocity":53,"Duration":466128,"SoundDuration":466128,"Delta":548216604},{"NoteNumber":38,"Velocity":44,"Duration":233064,"SoundDuration":233064,"Delta":548216604},{"NoteNumber":41,"Velocity":44,"Duration":233064,"SoundDuration":233064,"Delta":548449668},{"NoteNumber":63,"Velocity":54,"Duration":115544,"SoundDuration":115544,"Delta":548682732},{"NoteNumber":46,"Velocity":43,"Duration":231088,"SoundDuration":231088,"Delta":548682732},{"NoteNumber":62,"Velocity":49,"Duration":115544,"SoundDuration":115544,"Delta":548798276},{"NoteNumber":60,"Velocity":56,"Duration":233064,"SoundDuration":233064,"Delta":548913821},{"NoteNumber":50,"Velocity":52,"Duration":466128,"SoundDuration":466128,"Delta":548913821},{"NoteNumber":58,"Velocity":52,"Duration":233064,"SoundDuration":233064,"Delta":549146885},{"NoteNumber":60,"Velocity":54,"Duration":233064,"SoundDuration":233064,"Delta":549379949},{"NoteNumber":62,"Velocity":50,"Duration":233064,"SoundDuration":233064,"Delta":549613013},{"NoteNumber":65,"Velocity":63,"Duration":238152,"SoundDuration":238152,"Delta":549846077},{"NoteNumber":48,"Velocity":44,"Duration":471216,"SoundDuration":471216,"Delta":549846077},{"NoteNumber":63,"Velocity":51,"Duration":466128,"SoundDuration":466128,"Delta":550084229},{"NoteNumber":45,"Velocity":41,"Duration":466128,"SoundDuration":466128,"Delta":550317293},{"NoteNumber":60,"Velocity":51,"Duration":233064,"SoundDuration":233064,"Delta":550550357},{"NoteNumber":63,"Velocity":62,"Duration":238152,"SoundDuration":238152,"Delta":550783421},{"NoteNumber":46,"Velocity":43,"Duration":470224,"SoundDuration":470224,"Delta":550783421},{"NoteNumber":62,"Velocity":52,"Duration":464145,"SoundDuration":464145,"Delta":551021573},{"NoteNumber":43,"Velocity":42,"Duration":464145,"SoundDuration":464145,"Delta":551253645},{"NoteNumber":58,"Velocity":52,"Duration":232072,"SoundDuration":232072,"Delta":551485718},{"NoteNumber":57,"Velocity":48,"Duration":140438,"SoundDuration":140438,"Delta":551717790},{"NoteNumber":41,"Velocity":44,"Duration":468127,"SoundDuration":468127,"Delta":551717790},{"NoteNumber":58,"Velocity":49,"Duration":140438,"SoundDuration":140438,"Delta":551834822},{"NoteNumber":59,"Velocity":50,"Duration":140438,"SoundDuration":140438,"Delta":551951854},{"NoteNumber":60,"Velocity":51,"Duration":140239,"SoundDuration":140239,"Delta":552068886},{"NoteNumber":61,"Velocity":52,"Duration":139243,"SoundDuration":139243,"Delta":552185918},{"NoteNumber":62,"Velocity":53,"Duration":139243,"SoundDuration":139243,"Delta":552301954},{"NoteNumber":63,"Velocity":54,"Duration":139243,"SoundDuration":139243,"Delta":552417991},{"NoteNumber":64,"Velocity":54,"Duration":139243,"SoundDuration":139243,"Delta":552534027},{"NoteNumber":65,"Velocity":56,"Duration":464144,"SoundDuration":464144,"Delta":552650063},{"NoteNumber":53,"Velocity":53,"Duration":116036,"SoundDuration":116036,"Delta":552650063},{"NoteNumber":55,"Velocity":49,"Duration":116036,"SoundDuration":116036,"Delta":552766099},{"NoteNumber":51,"Velocity":54,"Duration":116036,"SoundDuration":116036,"Delta":552882136},{"NoteNumber":53,"Velocity":49,"Duration":116036,"SoundDuration":116036,"Delta":552998172},{"NoteNumber":50,"Velocity":54,"Duration":116037,"SoundDuration":116037,"Delta":553114208},{"NoteNumber":51,"Velocity":49,"Duration":117537,"SoundDuration":117537,"Delta":553230246},{"NoteNumber":48,"Velocity":56,"Duration":119077,"SoundDuration":119077,"Delta":553347784},{"NoteNumber":50,"Velocity":49,"Duration":120657,"SoundDuration":120657,"Delta":553466861},{"NoteNumber":65,"Velocity":73,"Duration":699192,"SoundDuration":699192,"Delta":553587519},{"NoteNumber":70,"Velocity":73,"Duration":699192,"SoundDuration":699192,"Delta":553587519},{"NoteNumber":74,"Velocity":73,"Duration":699192,"SoundDuration":699192,"Delta":553587519},{"NoteNumber":77,"Velocity":73,"Duration":699192,"SoundDuration":699192,"Delta":553587519},{"NoteNumber":46,"Velocity":69,"Duration":466128,"SoundDuration":466128,"Delta":553587519},{"NoteNumber":58,"Velocity":58,"Duration":466128,"SoundDuration":466128,"Delta":554053647},{"NoteNumber":79,"Velocity":51,"Duration":116532,"SoundDuration":116532,"Delta":554286711},{"NoteNumber":77,"Velocity":49,"Duration":116532,"SoundDuration":116532,"Delta":554403243},{"NoteNumber":75,"Velocity":57,"Duration":116531,"SoundDuration":116531,"Delta":554519775},{"NoteNumber":74,"Velocity":50,"Duration":116532,"SoundDuration":116532,"Delta":554752839},{"NoteNumber":72,"Velocity":50,"Duration":116532,"SoundDuration":116532,"Delta":554985903},{"NoteNumber":70,"Velocity":47,"Duration":122169,"SoundDuration":122169,"Delta":555218967},{"NoteNumber":70,"Velocity":53,"Duration":237116,"SoundDuration":237116,"Delta":555463307},{"NoteNumber":79,"Velocity":50,"Duration":237564,"SoundDuration":237564,"Delta":555700423},{"NoteNumber":70,"Velocity":64,"Duration":711349,"SoundDuration":711349,"Delta":555948316},{"NoteNumber":79,"Velocity":71,"Duration":711349,"SoundDuration":711349,"Delta":555948316},{"NoteNumber":51,"Velocity":59,"Duration":944413,"SoundDuration":944413,"Delta":555948316},{"NoteNumber":63,"Velocity":59,"Duration":944413,"SoundDuration":944413,"Delta":555948316},{"NoteNumber":77,"Velocity":53,"Duration":233064,"SoundDuration":233064,"Delta":556659666},{"NoteNumber":81,"Velocity":66,"Duration":233064,"SoundDuration":233064,"Delta":556892730},{"NoteNumber":62,"Velocity":43,"Duration":462211,"SoundDuration":462211,"Delta":556892730},{"NoteNumber":82,"Velocity":63,"Duration":458294,"SoundDuration":458294,"Delta":557125794},{"NoteNumber":64,"Velocity":43,"Duration":462211,"SoundDuration":462211,"Delta":557354941},{"NoteNumber":67,"Velocity":43,"Duration":462211,"SoundDuration":462211,"Delta":557354941},{"NoteNumber":72,"Velocity":53,"Duration":233064,"SoundDuration":233064,"Delta":557584089},{"NoteNumber":74,"Velocity":53,"Duration":233064,"SoundDuration":233064,"Delta":557817153},{"NoteNumber":65,"Velocity":43,"Duration":462211,"SoundDuration":462211,"Delta":557817153},{"NoteNumber":82,"Velocity":68,"Duration":458294,"SoundDuration":458294,"Delta":558050217},{"NoteNumber":64,"Velocity":43,"Duration":462211,"SoundDuration":462211,"Delta":558279364},{"NoteNumber":67,"Velocity":43,"Duration":462211,"SoundDuration":462211,"Delta":558279364},{"NoteNumber":72,"Velocity":53,"Duration":233064,"SoundDuration":233064,"Delta":558508512},{"NoteNumber":74,"Velocity":53,"Duration":233064,"SoundDuration":233064,"Delta":558741576},{"NoteNumber":65,"Velocity":41,"Duration":466128,"SoundDuration":466128,"Delta":558741576},{"NoteNumber":82,"Velocity":67,"Duration":116532,"SoundDuration":116532,"Delta":558974640},{"NoteNumber":77,"Velocity":54,"Duration":474233,"SoundDuration":474233,"Delta":559207704},{"NoteNumber":67,"Velocity":43,"Duration":474233,"SoundDuration":474233,"Delta":559207704},{"NoteNumber":70,"Velocity":43,"Duration":474233,"SoundDuration":474233,"Delta":559207704},{"NoteNumber":76,"Velocity":53,"Duration":237116,"SoundDuration":237116,"Delta":559681937},{"NoteNumber":69,"Velocity":43,"Duration":474233,"SoundDuration":474233,"Delta":559681937},{"NoteNumber":72,"Velocity":43,"Duration":474233,"SoundDuration":474233,"Delta":559681937},{"NoteNumber":75,"Velocity":53,"Duration":237116,"SoundDuration":237116,"Delta":559919053},{"NoteNumber":74,"Velocity":48,"Duration":118558,"SoundDuration":118558,"Delta":560156170},{"NoteNumber":70,"Velocity":46,"Duration":469188,"SoundDuration":469188,"Delta":560156170},{"NoteNumber":74,"Velocity":54,"Duration":232072,"SoundDuration":232072,"Delta":560393286},{"NoteNumber":75,"Velocity":60,"Duration":232072,"SoundDuration":232072,"Delta":560625359},{"NoteNumber":77,"Velocity":64,"Duration":232072,"SoundDuration":232072,"Delta":560857431},{"NoteNumber":79,"Velocity":70,"Duration":696217,"SoundDuration":696217,"Delta":561089504},{"NoteNumber":55,"Velocity":54,"Duration":232072,"SoundDuration":232072,"Delta":561321576},{"NoteNumber":67,"Velocity":61,"Duration":116036,"SoundDuration":116036,"Delta":561553649},{"NoteNumber":81,"Velocity":70,"Duration":116036,"SoundDuration":116036,"Delta":561785721},{"NoteNumber":65,"Velocity":53,"Duration":116036,"SoundDuration":116036,"Delta":561785721},{"NoteNumber":83,"Velocity":67,"Duration":115057,"SoundDuration":115057,"Delta":561901757},{"NoteNumber":84,"Velocity":70,"Duration":115057,"SoundDuration":115057,"Delta":562016815},{"NoteNumber":63,"Velocity":60,"Duration":115057,"SoundDuration":115057,"Delta":562016815},{"NoteNumber":86,"Velocity":67,"Duration":115057,"SoundDuration":115057,"Delta":562131872},{"NoteNumber":87,"Velocity":70,"Duration":115057,"SoundDuration":115057,"Delta":562246929},{"NoteNumber":51,"Velocity":53,"Duration":230114,"SoundDuration":230114,"Delta":562246929},{"NoteNumber":86,"Velocity":66,"Duration":115057,"SoundDuration":115057,"Delta":562361986},{"NoteNumber":84,"Velocity":70,"Duration":115057,"SoundDuration":115057,"Delta":562477044},{"NoteNumber":63,"Velocity":61,"Duration":115057,"SoundDuration":115057,"Delta":562477044},{"NoteNumber":86,"Velocity":67,"Duration":115057,"SoundDuration":115057,"Delta":562592101},{"NoteNumber":82,"Velocity":70,"Duration":115057,"SoundDuration":115057,"Delta":562707158},{"NoteNumber":62,"Velocity":53,"Duration":115057,"SoundDuration":115057,"Delta":562707158},{"NoteNumber":84,"Velocity":67,"Duration":115057,"SoundDuration":115057,"Delta":562822215},{"NoteNumber":81,"Velocity":69,"Duration":114573,"SoundDuration":114573,"Delta":562937273},{"NoteNumber":60,"Velocity":57,"Duration":229147,"SoundDuration":229147,"Delta":562937273},{"NoteNumber":82,"Velocity":66,"Duration":114573,"SoundDuration":114573,"Delta":563051846},{"NoteNumber":79,"Velocity":69,"Duration":115057,"SoundDuration":115057,"Delta":563166420},{"NoteNumber":58,"Velocity":53,"Duration":230114,"SoundDuration":230114,"Delta":563166420},{"NoteNumber":81,"Velocity":64,"Duration":115057,"SoundDuration":115057,"Delta":563281477},{"NoteNumber":77,"Velocity":71,"Duration":115544,"SoundDuration":115544,"Delta":563396535},{"NoteNumber":57,"Velocity":53,"Duration":231088,"SoundDuration":231088,"Delta":563396535},{"NoteNumber":79,"Velocity":67,"Duration":115544,"SoundDuration":115544,"Delta":563512079},{"NoteNumber":75,"Velocity":71,"Duration":116036,"SoundDuration":116036,"Delta":563627624},{"NoteNumber":53,"Velocity":53,"Duration":232072,"SoundDuration":232072,"Delta":563627624},{"NoteNumber":77,"Velocity":67,"Duration":116036,"SoundDuration":116036,"Delta":563743660},{"NoteNumber":74,"Velocity":68,"Duration":116036,"SoundDuration":116036,"Delta":563859696},{"NoteNumber":58,"Velocity":60,"Duration":463489,"SoundDuration":463489,"Delta":563859696},{"NoteNumber":75,"Velocity":64,"Duration":116036,"SoundDuration":116036,"Delta":563975732},{"NoteNumber":77,"Velocity":68,"Duration":115872,"SoundDuration":115872,"Delta":564091769},{"NoteNumber":79,"Velocity":65,"Duration":115544,"SoundDuration":115544,"Delta":564207641},{"NoteNumber":81,"Velocity":70,"Duration":115544,"SoundDuration":115544,"Delta":564323185},{"NoteNumber":50,"Velocity":54,"Duration":464897,"SoundDuration":464897,"Delta":564323185},{"NoteNumber":82,"Velocity":66,"Duration":115219,"SoundDuration":115219,"Delta":564438730},{"NoteNumber":81,"Velocity":69,"Duration":115057,"SoundDuration":115057,"Delta":564553950},{"NoteNumber":82,"Velocity":65,"Duration":119075,"SoundDuration":119075,"Delta":564669007},{"NoteNumber":84,"Velocity":72,"Duration":112968,"SoundDuration":112968,"Delta":564788083},{"NoteNumber":51,"Velocity":59,"Duration":456951,"SoundDuration":456951,"Delta":564788083},{"NoteNumber":82,"Velocity":70,"Duration":112968,"SoundDuration":112968,"Delta":564901052},{"NoteNumber":81,"Velocity":69,"Duration":112968,"SoundDuration":112968,"Delta":565014020},{"NoteNumber":79,"Velocity":67,"Duration":118045,"SoundDuration":118045,"Delta":565126989},{"NoteNumber":81,"Velocity":72,"Duration":115057,"SoundDuration":115057,"Delta":565245034},{"NoteNumber":63,"Velocity":53,"Duration":451430,"SoundDuration":451430,"Delta":565245034},{"NoteNumber":79,"Velocity":70,"Duration":112124,"SoundDuration":112124,"Delta":565360092},{"NoteNumber":77,"Velocity":69,"Duration":112124,"SoundDuration":112124,"Delta":565472216},{"NoteNumber":75,"Velocity":67,"Duration":112124,"SoundDuration":112124,"Delta":565584341},{"NoteNumber":74,"Velocity":71,"Duration":470145,"SoundDuration":470145,"Delta":565696465},{"NoteNumber":65,"Velocity":54,"Duration":470145,"SoundDuration":470145,"Delta":565696465},{"NoteNumber":72,"Velocity":58,"Duration":60062,"SoundDuration":60062,"Delta":566166611},{"NoteNumber":69,"Velocity":58,"Duration":480500,"SoundDuration":480500,"Delta":566166611},{"NoteNumber":53,"Velocity":53,"Duration":480500,"SoundDuration":480500,"Delta":566166611},{"NoteNumber":74,"Velocity":54,"Duration":60062,"SoundDuration":60062,"Delta":566226674},{"NoteNumber":72,"Velocity":58,"Duration":60062,"SoundDuration":60062,"Delta":566286736},{"NoteNumber":74,"Velocity":53,"Duration":60062,"SoundDuration":60062,"Delta":566346799},{"NoteNumber":72,"Velocity":58,"Duration":40041,"SoundDuration":40041,"Delta":566406861},{"NoteNumber":74,"Velocity":54,"Duration":40041,"SoundDuration":40041,"Delta":566446903},{"NoteNumber":72,"Velocity":54,"Duration":40041,"SoundDuration":40041,"Delta":566486944},{"NoteNumber":70,"Velocity":66,"Duration":60062,"SoundDuration":60062,"Delta":566526986},{"NoteNumber":72,"Velocity":62,"Duration":60062,"SoundDuration":60062,"Delta":566587049},{"NoteNumber":70,"Velocity":75,"Duration":480500,"SoundDuration":480500,"Delta":566647111},{"NoteNumber":58,"Velocity":53,"Duration":120125,"SoundDuration":120125,"Delta":566647111},{"NoteNumber":65,"Velocity":46,"Duration":120124,"SoundDuration":120124,"Delta":566767236},{"NoteNumber":64,"Velocity":49,"Duration":120125,"SoundDuration":120125,"Delta":566887361},{"NoteNumber":65,"Velocity":46,"Duration":120125,"SoundDuration":120125,"Delta":567007486},{"NoteNumber":67,"Velocity":53,"Duration":120125,"SoundDuration":120125,"Delta":567127611},{"NoteNumber":65,"Velocity":47,"Duration":120124,"SoundDuration":120124,"Delta":567247736},{"NoteNumber":64,"Velocity":49,"Duration":120125,"SoundDuration":120125,"Delta":567367861},{"NoteNumber":65,"Velocity":46,"Duration":120125,"SoundDuration":120125,"Delta":567487986},{"NoteNumber":63,"Velocity":53,"Duration":120125,"SoundDuration":120125,"Delta":567608111},{"NoteNumber":65,"Velocity":51,"Duration":120124,"SoundDuration":120124,"Delta":567728236},{"NoteNumber":62,"Velocity":53,"Duration":120125,"SoundDuration":120125,"Delta":567848361},{"NoteNumber":65,"Velocity":49,"Duration":120125,"SoundDuration":120125,"Delta":567968486},{"NoteNumber":60,"Velocity":53,"Duration":120125,"SoundDuration":120125,"Delta":568088611},{"NoteNumber":65,"Velocity":50,"Duration":120124,"SoundDuration":120124,"Delta":568208736},{"NoteNumber":58,"Velocity":53,"Duration":120125,"SoundDuration":120125,"Delta":568328861},{"NoteNumber":65,"Velocity":50,"Duration":120125,"SoundDuration":120125,"Delta":568448986},{"NoteNumber":75,"Velocity":85,"Duration":237116,"SoundDuration":237116,"Delta":568569111},{"NoteNumber":57,"Velocity":48,"Duration":118558,"SoundDuration":118558,"Delta":568569111},{"NoteNumber":65,"Velocity":40,"Duration":118558,"SoundDuration":118558,"Delta":568687669},{"NoteNumber":72,"Velocity":56,"Duration":118558,"SoundDuration":118558,"Delta":568806228},{"NoteNumber":60,"Velocity":42,"Duration":118558,"SoundDuration":118558,"Delta":568806228},{"NoteNumber":65,"Velocity":38,"Duration":118558,"SoundDuration":118558,"Delta":568924786},{"NoteNumber":69,"Velocity":62,"Duration":118558,"SoundDuration":118558,"Delta":569043344},{"NoteNumber":63,"Velocity":48,"Duration":118558,"SoundDuration":118558,"Delta":569043344},{"NoteNumber":65,"Velocity":40,"Duration":118558,"SoundDuration":118558,"Delta":569161902},{"NoteNumber":69,"Velocity":56,"Duration":118558,"SoundDuration":118558,"Delta":569280461},{"NoteNumber":63,"Velocity":42,"Duration":118558,"SoundDuration":118558,"Delta":569280461},{"NoteNumber":65,"Velocity":39,"Duration":118558,"SoundDuration":118558,"Delta":569399019},{"NoteNumber":75,"Velocity":85,"Duration":237116,"SoundDuration":237116,"Delta":569517577},{"NoteNumber":57,"Velocity":47,"Duration":118558,"SoundDuration":118558,"Delta":569517577},{"NoteNumber":65,"Velocity":40,"Duration":118558,"SoundDuration":118558,"Delta":569636135},{"NoteNumber":72,"Velocity":54,"Duration":118558,"SoundDuration":118558,"Delta":569754694},{"NoteNumber":60,"Velocity":43,"Duration":118558,"SoundDuration":118558,"Delta":569754694},{"NoteNumber":65,"Velocity":40,"Duration":118558,"SoundDuration":118558,"Delta":569873252},{"NoteNumber":69,"Velocity":60,"Duration":118558,"SoundDuration":118558,"Delta":569991810},{"NoteNumber":63,"Velocity":48,"Duration":118558,"SoundDuration":118558,"Delta":569991810},{"NoteNumber":65,"Velocity":42,"Duration":118558,"SoundDuration":118558,"Delta":570110368},{"NoteNumber":69,"Velocity":54,"Duration":118558,"SoundDuration":118558,"Delta":570228927},{"NoteNumber":63,"Velocity":42,"Duration":118558,"SoundDuration":118558,"Delta":570228927},{"NoteNumber":65,"Velocity":42,"Duration":118558,"SoundDuration":118558,"Delta":570347485},{"NoteNumber":70,"Velocity":62,"Duration":116532,"SoundDuration":116532,"Delta":570466043},{"NoteNumber":62,"Velocity":44,"Duration":116532,"SoundDuration":116532,"Delta":570466043},{"NoteNumber":65,"Velocity":45,"Duration":116532,"SoundDuration":116532,"Delta":570582575},{"NoteNumber":72,"Velocity":63,"Duration":116532,"SoundDuration":116532,"Delta":570699107},{"NoteNumber":57,"Velocity":45,"Duration":116532,"SoundDuration":116532,"Delta":570699107},{"NoteNumber":65,"Velocity":45,"Duration":116532,"SoundDuration":116532,"Delta":570815639},{"NoteNumber":74,"Velocity":64,"Duration":116532,"SoundDuration":116532,"Delta":570932171},{"NoteNumber":58,"Velocity":46,"Duration":116532,"SoundDuration":116532,"Delta":570932171},{"NoteNumber":65,"Velocity":47,"Duration":116532,"SoundDuration":116532,"Delta":571048703},{"NoteNumber":75,"Velocity":66,"Duration":116532,"SoundDuration":116532,"Delta":571165235},{"NoteNumber":60,"Velocity":48,"Duration":116532,"SoundDuration":116532,"Delta":571165235},{"NoteNumber":65,"Velocity":49,"Duration":121192,"SoundDuration":121192,"Delta":571281767},{"NoteNumber":76,"Velocity":88,"Duration":235073,"SoundDuration":235073,"Delta":571402960},{"NoteNumber":61,"Velocity":53,"Duration":117536,"SoundDuration":117536,"Delta":571402960},{"NoteNumber":65,"Velocity":48,"Duration":117536,"SoundDuration":117536,"Delta":571520496},{"NoteNumber":77,"Velocity":75,"Duration":235072,"SoundDuration":235072,"Delta":571638033},{"NoteNumber":62,"Velocity":53,"Duration":117536,"SoundDuration":117536,"Delta":571638033},{"NoteNumber":65,"Velocity":46,"Duration":117536,"SoundDuration":117536,"Delta":571755569},{"NoteNumber":76,"Velocity":87,"Duration":235073,"SoundDuration":235073,"Delta":571873106},{"NoteNumber":61,"Velocity":53,"Duration":117536,"SoundDuration":117536,"Delta":571873106},{"NoteNumber":65,"Velocity":46,"Duration":117536,"SoundDuration":117536,"Delta":571990642},{"NoteNumber":77,"Velocity":75,"Duration":235072,"SoundDuration":235072,"Delta":572108179},{"NoteNumber":62,"Velocity":53,"Duration":117536,"SoundDuration":117536,"Delta":572108179},{"NoteNumber":65,"Velocity":47,"Duration":117536,"SoundDuration":117536,"Delta":572225715},{"NoteNumber":87,"Velocity":97,"Duration":227652,"SoundDuration":227652,"Delta":572343252},{"NoteNumber":75,"Velocity":82,"Duration":227652,"SoundDuration":227652,"Delta":572343252},{"NoteNumber":57,"Velocity":48,"Duration":113826,"SoundDuration":113826,"Delta":572343252},{"NoteNumber":65,"Velocity":39,"Duration":113826,"SoundDuration":113826,"Delta":572457078},{"NoteNumber":84,"Velocity":57,"Duration":117389,"SoundDuration":117389,"Delta":572570904},{"NoteNumber":72,"Velocity":48,"Duration":117389,"SoundDuration":117389,"Delta":572570904},{"NoteNumber":60,"Velocity":42,"Duration":117389,"SoundDuration":117389,"Delta":572570904},{"NoteNumber":65,"Velocity":39,"Duration":117389,"SoundDuration":117389,"Delta":572688293},{"NoteNumber":81,"Velocity":62,"Duration":117389,"SoundDuration":117389,"Delta":572805682},{"NoteNumber":69,"Velocity":52,"Duration":117389,"SoundDuration":117389,"Delta":572805682},{"NoteNumber":63,"Velocity":48,"Duration":117389,"SoundDuration":117389,"Delta":572805682},{"NoteNumber":65,"Velocity":40,"Duration":117389,"SoundDuration":117389,"Delta":572923071},{"NoteNumber":81,"Velocity":56,"Duration":117389,"SoundDuration":117389,"Delta":573040461},{"NoteNumber":69,"Velocity":47,"Duration":117389,"SoundDuration":117389,"Delta":573040461},{"NoteNumber":63,"Velocity":42,"Duration":117389,"SoundDuration":117389,"Delta":573040461},{"NoteNumber":65,"Velocity":39,"Duration":117389,"SoundDuration":117389,"Delta":573157850},{"NoteNumber":87,"Velocity":97,"Duration":234778,"SoundDuration":234778,"Delta":573275239},{"NoteNumber":75,"Velocity":82,"Duration":234778,"SoundDuration":234778,"Delta":573275239},{"NoteNumber":57,"Velocity":47,"Duration":117389,"SoundDuration":117389,"Delta":573275239},{"NoteNumber":65,"Velocity":39,"Duration":117389,"SoundDuration":117389,"Delta":573392628},{"NoteNumber":84,"Velocity":54,"Duration":117389,"SoundDuration":117389,"Delta":573510018},{"NoteNumber":72,"Velocity":45,"Duration":117389,"SoundDuration":117389,"Delta":573510018},{"NoteNumber":60,"Velocity":43,"Duration":117389,"SoundDuration":117389,"Delta":573510018},{"NoteNumber":65,"Velocity":39,"Duration":117389,"SoundDuration":117389,"Delta":573627407},{"NoteNumber":81,"Velocity":60,"Duration":117389,"SoundDuration":117389,"Delta":573744796},{"NoteNumber":69,"Velocity":51,"Duration":117389,"SoundDuration":117389,"Delta":573744796},{"NoteNumber":63,"Velocity":48,"Duration":117389,"SoundDuration":117389,"Delta":573744796},{"NoteNumber":65,"Velocity":42,"Duration":117389,"SoundDuration":117389,"Delta":573862185},{"NoteNumber":81,"Velocity":54,"Duration":117389,"SoundDuration":117389,"Delta":573979575},{"NoteNumber":69,"Velocity":45,"Duration":117389,"SoundDuration":117389,"Delta":573979575},{"NoteNumber":63,"Velocity":42,"Duration":117389,"SoundDuration":117389,"Delta":573979575},{"NoteNumber":65,"Velocity":42,"Duration":117389,"SoundDuration":117389,"Delta":574096964},{"NoteNumber":82,"Velocity":62,"Duration":112124,"SoundDuration":112124,"Delta":574214353},{"NoteNumber":70,"Velocity":52,"Duration":112124,"SoundDuration":112124,"Delta":574214353},{"NoteNumber":62,"Velocity":44,"Duration":112124,"SoundDuration":112124,"Delta":574214353},{"NoteNumber":65,"Velocity":45,"Duration":112124,"SoundDuration":112124,"Delta":574326478},{"NoteNumber":84,"Velocity":63,"Duration":112124,"SoundDuration":112124,"Delta":574438602},{"NoteNumber":72,"Velocity":53,"Duration":112124,"SoundDuration":112124,"Delta":574438602},{"NoteNumber":57,"Velocity":45,"Duration":112124,"SoundDuration":112124,"Delta":574438602},{"NoteNumber":65,"Velocity":45,"Duration":115580,"SoundDuration":115580,"Delta":574550727},{"NoteNumber":86,"Velocity":64,"Duration":115580,"SoundDuration":115580,"Delta":574666307},{"NoteNumber":74,"Velocity":54,"Duration":115580,"SoundDuration":115580,"Delta":574666307},{"NoteNumber":58,"Velocity":46,"Duration":115580,"SoundDuration":115580,"Delta":574666307},{"NoteNumber":65,"Velocity":47,"Duration":115580,"SoundDuration":115580,"Delta":574781887},{"NoteNumber":87,"Velocity":66,"Duration":115580,"SoundDuration":115580,"Delta":574897467},{"NoteNumber":75,"Velocity":56,"Duration":115580,"SoundDuration":115580,"Delta":574897467},{"NoteNumber":60,"Velocity":48,"Duration":115580,"SoundDuration":115580,"Delta":574897467},{"NoteNumber":65,"Velocity":49,"Duration":120656,"SoundDuration":120656,"Delta":575013048},{"NoteNumber":88,"Velocity":90,"Duration":236090,"SoundDuration":236090,"Delta":575133704},{"NoteNumber":76,"Velocity":76,"Duration":236090,"SoundDuration":236090,"Delta":575133704},{"NoteNumber":61,"Velocity":53,"Duration":118045,"SoundDuration":118045,"Delta":575133704},{"NoteNumber":65,"Velocity":48,"Duration":118045,"SoundDuration":118045,"Delta":575251749},{"NoteNumber":89,"Velocity":75,"Duration":236090,"SoundDuration":236090,"Delta":575369794},{"NoteNumber":77,"Velocity":63,"Duration":236090,"SoundDuration":236090,"Delta":575369794},{"NoteNumber":62,"Velocity":53,"Duration":118045,"SoundDuration":118045,"Delta":575369794},{"NoteNumber":65,"Velocity":46,"Duration":118045,"SoundDuration":118045,"Delta":575487840},{"NoteNumber":88,"Velocity":91,"Duration":236090,"SoundDuration":236090,"Delta":575605885},{"NoteNumber":76,"Velocity":77,"Duration":236090,"SoundDuration":236090,"Delta":575605885},{"NoteNumber":61,"Velocity":53,"Duration":118045,"SoundDuration":118045,"Delta":575605885},{"NoteNumber":65,"Velocity":46,"Duration":118045,"SoundDuration":118045,"Delta":575723930},{"NoteNumber":89,"Velocity":75,"Duration":261558,"SoundDuration":261558,"Delta":575841975},{"NoteNumber":77,"Velocity":63,"Duration":261558,"SoundDuration":261558,"Delta":575841975},{"NoteNumber":62,"Velocity":53,"Duration":118045,"SoundDuration":118045,"Delta":575841975},{"NoteNumber":65,"Velocity":47,"Duration":143513,"SoundDuration":143513,"Delta":575960021},{"NoteNumber":67,"Velocity":56,"Duration":944361,"SoundDuration":944361,"Delta":576103534},{"NoteNumber":79,"Velocity":66,"Duration":944361,"SoundDuration":944361,"Delta":576103534},{"NoteNumber":51,"Velocity":38,"Duration":236090,"SoundDuration":236090,"Delta":576339624},{"NoteNumber":50,"Velocity":40,"Duration":236090,"SoundDuration":236090,"Delta":576575715},{"NoteNumber":51,"Velocity":38,"Duration":236090,"SoundDuration":236090,"Delta":576811805},{"NoteNumber":57,"Velocity":45,"Duration":944362,"SoundDuration":944362,"Delta":577047896},{"NoteNumber":69,"Velocity":54,"Duration":944362,"SoundDuration":944362,"Delta":577047896},{"NoteNumber":53,"Velocity":38,"Duration":236090,"SoundDuration":236090,"Delta":577283986},{"NoteNumber":52,"Velocity":40,"Duration":236090,"SoundDuration":236090,"Delta":577520077},{"NoteNumber":53,"Velocity":38,"Duration":236090,"SoundDuration":236090,"Delta":577756167},{"NoteNumber":75,"Velocity":65,"Duration":944361,"SoundDuration":944361,"Delta":577992258},{"NoteNumber":87,"Velocity":77,"Duration":944361,"SoundDuration":944361,"Delta":577992258},{"NoteNumber":54,"Velocity":38,"Duration":236090,"SoundDuration":236090,"Delta":578228348},{"NoteNumber":52,"Velocity":42,"Duration":236090,"SoundDuration":236090,"Delta":578464439},{"NoteNumber":54,"Velocity":38,"Duration":236090,"SoundDuration":236090,"Delta":578700529},{"NoteNumber":74,"Velocity":57,"Duration":944362,"SoundDuration":944362,"Delta":578936620},{"NoteNumber":86,"Velocity":68,"Duration":944362,"SoundDuration":944362,"Delta":578936620},{"NoteNumber":55,"Velocity":40,"Duration":236090,"SoundDuration":236090,"Delta":579172710},{"NoteNumber":54,"Velocity":42,"Duration":236090,"SoundDuration":236090,"Delta":579408801},{"NoteNumber":55,"Velocity":39,"Duration":236090,"SoundDuration":236090,"Delta":579644891},{"NoteNumber":86,"Velocity":75,"Duration":139243,"SoundDuration":139243,"Delta":579880982},{"NoteNumber":84,"Velocity":68,"Duration":139243,"SoundDuration":139243,"Delta":579997018},{"NoteNumber":87,"Velocity":72,"Duration":139243,"SoundDuration":139243,"Delta":580113054},{"NoteNumber":86,"Velocity":67,"Duration":139243,"SoundDuration":139243,"Delta":580229091},{"NoteNumber":89,"Velocity":75,"Duration":139243,"SoundDuration":139243,"Delta":580345127},{"NoteNumber":63,"Velocity":54,"Duration":464144,"SoundDuration":464144,"Delta":580345127},{"NoteNumber":72,"Velocity":54,"Duration":464144,"SoundDuration":464144,"Delta":580345127},{"NoteNumber":87,"Velocity":71,"Duration":139243,"SoundDuration":139243,"Delta":580461163},{"NoteNumber":86,"Velocity":72,"Duration":139243,"SoundDuration":139243,"Delta":580577199},{"NoteNumber":84,"Velocity":68,"Duration":140274,"SoundDuration":140274,"Delta":580693236},{"NoteNumber":82,"Velocity":75,"Duration":484770,"SoundDuration":484770,"Delta":580809272},{"NoteNumber":65,"Velocity":54,"Duration":987409,"SoundDuration":987409,"Delta":580809272},{"NoteNumber":74,"Velocity":54,"Duration":484770,"SoundDuration":484770,"Delta":580809272},{"NoteNumber":81,"Velocity":63,"Duration":502639,"SoundDuration":502639,"Delta":581294042},{"NoteNumber":75,"Velocity":45,"Duration":502639,"SoundDuration":502639,"Delta":581294042},{"NoteNumber":70,"Velocity":34,"Duration":938388,"SoundDuration":938388,"Delta":581796681},{"NoteNumber":74,"Velocity":41,"Duration":938388,"SoundDuration":938388,"Delta":581796681},{"NoteNumber":82,"Velocity":47,"Duration":233064,"SoundDuration":233064,"Delta":582035877},{"NoteNumber":81,"Velocity":50,"Duration":233064,"SoundDuration":233064,"Delta":582268941},{"NoteNumber":82,"Velocity":47,"Duration":233064,"SoundDuration":233064,"Delta":582502005},{"NoteNumber":70,"Velocity":28,"Duration":936308,"SoundDuration":936308,"Delta":582735069},{"NoteNumber":74,"Velocity":34,"Duration":936308,"SoundDuration":936308,"Delta":582735069},{"NoteNumber":80,"Velocity":46,"Duration":233064,"SoundDuration":233064,"Delta":582972186},{"NoteNumber":79,"Velocity":51,"Duration":233064,"SoundDuration":233064,"Delta":583205250},{"NoteNumber":80,"Velocity":46,"Duration":233064,"SoundDuration":233064,"Delta":583438314},{"NoteNumber":71,"Velocity":29,"Duration":937344,"SoundDuration":937344,"Delta":583671378},{"NoteNumber":74,"Velocity":29,"Duration":937344,"SoundDuration":937344,"Delta":583671378},{"NoteNumber":77,"Velocity":35,"Duration":937344,"SoundDuration":937344,"Delta":583671378},{"NoteNumber":79,"Velocity":44,"Duration":233064,"SoundDuration":233064,"Delta":583909530},{"NoteNumber":78,"Velocity":48,"Duration":233064,"SoundDuration":233064,"Delta":584142594},{"NoteNumber":79,"Velocity":45,"Duration":233064,"SoundDuration":233064,"Delta":584375658},{"NoteNumber":72,"Velocity":28,"Duration":957866,"SoundDuration":957866,"Delta":584608722},{"NoteNumber":75,"Velocity":34,"Duration":957866,"SoundDuration":957866,"Delta":584608722},{"NoteNumber":79,"Velocity":44,"Duration":240249,"SoundDuration":240249,"Delta":584845838},{"NoteNumber":91,"Velocity":51,"Duration":240250,"SoundDuration":240250,"Delta":585086088},{"NoteNumber":91,"Velocity":48,"Duration":120125,"SoundDuration":120125,"Delta":585326338},{"NoteNumber":69,"Velocity":29,"Duration":936308,"SoundDuration":936308,"Delta":585566588},{"NoteNumber":72,"Velocity":29,"Duration":936308,"SoundDuration":936308,"Delta":585566588},{"NoteNumber":75,"Velocity":35,"Duration":936308,"SoundDuration":936308,"Delta":585566588},{"NoteNumber":91,"Velocity":50,"Duration":233064,"SoundDuration":233064,"Delta":585803705},{"NoteNumber":77,"Velocity":44,"Duration":233064,"SoundDuration":233064,"Delta":586036769},{"NoteNumber":77,"Velocity":44,"Duration":116532,"SoundDuration":116532,"Delta":586269833},{"NoteNumber":70,"Velocity":28,"Duration":947468,"SoundDuration":947468,"Delta":586502897},{"NoteNumber":74,"Velocity":33,"Duration":947468,"SoundDuration":947468,"Delta":586502897},{"NoteNumber":77,"Velocity":46,"Duration":236090,"SoundDuration":236090,"Delta":586742093},{"NoteNumber":86,"Velocity":51,"Duration":236090,"SoundDuration":236090,"Delta":586978184},{"NoteNumber":86,"Velocity":48,"Duration":118045,"SoundDuration":118045,"Delta":587214274},{"NoteNumber":67,"Velocity":29,"Duration":941388,"SoundDuration":941388,"Delta":587450365},{"NoteNumber":70,"Velocity":29,"Duration":941388,"SoundDuration":941388,"Delta":587450365},{"NoteNumber":74,"Velocity":35,"Duration":941388,"SoundDuration":941388,"Delta":587450365},{"NoteNumber":86,"Velocity":49,"Duration":234063,"SoundDuration":234063,"Delta":587689561},{"NoteNumber":75,"Velocity":45,"Duration":234063,"SoundDuration":234063,"Delta":587923625},{"NoteNumber":75,"Velocity":45,"Duration":117031,"SoundDuration":117031,"Delta":588157689},{"NoteNumber":69,"Velocity":28,"Duration":934369,"SoundDuration":934369,"Delta":588391753},{"NoteNumber":72,"Velocity":33,"Duration":934369,"SoundDuration":934369,"Delta":588391753},{"NoteNumber":75,"Velocity":44,"Duration":232072,"SoundDuration":232072,"Delta":588629905},{"NoteNumber":84,"Velocity":50,"Duration":232072,"SoundDuration":232072,"Delta":588861978},{"NoteNumber":84,"Velocity":47,"Duration":116036,"SoundDuration":116036,"Delta":589094050},{"NoteNumber":66,"Velocity":28,"Duration":937344,"SoundDuration":937344,"Delta":589326123},{"NoteNumber":69,"Velocity":28,"Duration":937344,"SoundDuration":937344,"Delta":589326123},{"NoteNumber":72,"Velocity":33,"Duration":937344,"SoundDuration":937344,"Delta":589326123},{"NoteNumber":84,"Velocity":48,"Duration":233064,"SoundDuration":233064,"Delta":589564275},{"NoteNumber":74,"Velocity":44,"Duration":233064,"SoundDuration":233064,"Delta":589797339},{"NoteNumber":74,"Velocity":44,"Duration":116532,"SoundDuration":116532,"Delta":590030403},{"NoteNumber":67,"Velocity":28,"Duration":965307,"SoundDuration":965307,"Delta":590263467},{"NoteNumber":70,"Velocity":34,"Duration":965307,"SoundDuration":965307,"Delta":590263467},{"NoteNumber":74,"Velocity":44,"Duration":242385,"SoundDuration":242385,"Delta":590501619},{"NoteNumber":82,"Velocity":49,"Duration":242385,"SoundDuration":242385,"Delta":590744004},{"NoteNumber":82,"Velocity":46,"Duration":121192,"SoundDuration":121192,"Delta":590986389},{"NoteNumber":82,"Velocity":54,"Duration":244558,"SoundDuration":244558,"Delta":591228774},{"NoteNumber":72,"Velocity":44,"Duration":122279,"SoundDuration":122279,"Delta":591473332},{"NoteNumber":64,"Velocity":30,"Duration":243539,"SoundDuration":243539,"Delta":591473332},{"NoteNumber":70,"Velocity":36,"Duration":243539,"SoundDuration":243539,"Delta":591473332},{"NoteNumber":64,"Velocity":35,"Duration":244558,"SoundDuration":244558,"Delta":591717891},{"NoteNumber":70,"Velocity":42,"Duration":243539,"SoundDuration":243539,"Delta":591717891},{"NoteNumber":64,"Velocity":32,"Duration":244558,"SoundDuration":244558,"Delta":591962449},{"NoteNumber":70,"Velocity":38,"Duration":244558,"SoundDuration":244558,"Delta":591962449},{"NoteNumber":82,"Velocity":63,"Duration":241312,"SoundDuration":241312,"Delta":592207008},{"NoteNumber":74,"Velocity":52,"Duration":120656,"SoundDuration":120656,"Delta":592448320},{"NoteNumber":65,"Velocity":34,"Duration":241312,"SoundDuration":241312,"Delta":592448320},{"NoteNumber":70,"Velocity":41,"Duration":241312,"SoundDuration":241312,"Delta":592448320},{"NoteNumber":65,"Velocity":39,"Duration":241312,"SoundDuration":241312,"Delta":592689633},{"NoteNumber":70,"Velocity":46,"Duration":241312,"SoundDuration":241312,"Delta":592689633},{"NoteNumber":65,"Velocity":37,"Duration":241312,"SoundDuration":241312,"Delta":592930945},{"NoteNumber":70,"Velocity":44,"Duration":241312,"SoundDuration":241312,"Delta":592930945},{"NoteNumber":82,"Velocity":69,"Duration":239196,"SoundDuration":239196,"Delta":593172258},{"NoteNumber":75,"Velocity":54,"Duration":119598,"SoundDuration":119598,"Delta":593411454},{"NoteNumber":67,"Velocity":39,"Duration":239196,"SoundDuration":239196,"Delta":593411454},{"NoteNumber":70,"Velocity":46,"Duration":239196,"SoundDuration":239196,"Delta":593411454},{"NoteNumber":67,"Velocity":45,"Duration":239196,"SoundDuration":239196,"Delta":593650651},{"NoteNumber":70,"Velocity":53,"Duration":239196,"SoundDuration":239196,"Delta":593650651},{"NoteNumber":67,"Velocity":42,"Duration":239196,"SoundDuration":239196,"Delta":593889847},{"NoteNumber":70,"Velocity":50,"Duration":239196,"SoundDuration":239196,"Delta":593889847},{"NoteNumber":82,"Velocity":81,"Duration":238152,"SoundDuration":238152,"Delta":594129044},{"NoteNumber":76,"Velocity":67,"Duration":119075,"SoundDuration":119075,"Delta":594367196},{"NoteNumber":66,"Velocity":53,"Duration":238152,"SoundDuration":238152,"Delta":594367196},{"NoteNumber":70,"Velocity":63,"Duration":238152,"SoundDuration":238152,"Delta":594367196},{"NoteNumber":66,"Velocity":58,"Duration":238152,"SoundDuration":238152,"Delta":594605348},{"NoteNumber":70,"Velocity":69,"Duration":238152,"SoundDuration":238152,"Delta":594605348},{"NoteNumber":66,"Velocity":54,"Duration":238152,"SoundDuration":238152,"Delta":594843500},{"NoteNumber":70,"Velocity":64,"Duration":238152,"SoundDuration":238152,"Delta":594843500},{"NoteNumber":82,"Velocity":89,"Duration":237116,"SoundDuration":237116,"Delta":595081652},{"NoteNumber":65,"Velocity":53,"Duration":474233,"SoundDuration":474233,"Delta":595081652},{"NoteNumber":70,"Velocity":63,"Duration":474233,"SoundDuration":474233,"Delta":595081652},{"NoteNumber":77,"Velocity":83,"Duration":118558,"SoundDuration":118558,"Delta":595318768},{"NoteNumber":82,"Velocity":89,"Duration":235073,"SoundDuration":235073,"Delta":595555885},{"NoteNumber":62,"Velocity":53,"Duration":470145,"SoundDuration":470145,"Delta":595555885},{"NoteNumber":70,"Velocity":63,"Duration":470145,"SoundDuration":470145,"Delta":595555885},{"NoteNumber":78,"Velocity":83,"Duration":117536,"SoundDuration":117536,"Delta":595790958},{"NoteNumber":82,"Velocity":89,"Duration":231088,"SoundDuration":231088,"Delta":596026031},{"NoteNumber":63,"Velocity":53,"Duration":462177,"SoundDuration":462177,"Delta":596026031},{"NoteNumber":70,"Velocity":63,"Duration":462177,"SoundDuration":462177,"Delta":596026031},{"NoteNumber":79,"Velocity":85,"Duration":231088,"SoundDuration":231088,"Delta":596257120},{"NoteNumber":87,"Velocity":89,"Duration":227238,"SoundDuration":227238,"Delta":596488209},{"NoteNumber":60,"Velocity":53,"Duration":454476,"SoundDuration":454476,"Delta":596488209},{"NoteNumber":65,"Velocity":63,"Duration":454476,"SoundDuration":454476,"Delta":596488209},{"NoteNumber":81,"Velocity":85,"Duration":227238,"SoundDuration":227238,"Delta":596715447},{"NoteNumber":86,"Velocity":82,"Duration":45447,"SoundDuration":45447,"Delta":596942686},{"NoteNumber":58,"Velocity":51,"Duration":458394,"SoundDuration":458394,"Delta":596942686},{"NoteNumber":65,"Velocity":60,"Duration":458394,"SoundDuration":458394,"Delta":596942686},{"NoteNumber":87,"Velocity":81,"Duration":45447,"SoundDuration":45447,"Delta":596988134},{"NoteNumber":86,"Velocity":85,"Duration":45447,"SoundDuration":45447,"Delta":597033581},{"NoteNumber":87,"Velocity":78,"Duration":45447,"SoundDuration":45447,"Delta":597079029},{"NoteNumber":86,"Velocity":78,"Duration":45447,"SoundDuration":45447,"Delta":597124477},{"NoteNumber":89,"Velocity":94,"Duration":231155,"SoundDuration":231155,"Delta":597169924},{"NoteNumber":82,"Velocity":81,"Duration":45447,"SoundDuration":45447,"Delta":597401080},{"NoteNumber":50,"Velocity":43,"Duration":457889,"SoundDuration":457889,"Delta":597401080},{"NoteNumber":53,"Velocity":51,"Duration":457889,"SoundDuration":457889,"Delta":597401080},{"NoteNumber":84,"Velocity":76,"Duration":45447,"SoundDuration":45447,"Delta":597446528},{"NoteNumber":82,"Velocity":81,"Duration":45447,"SoundDuration":45447,"Delta":597491975},{"NoteNumber":84,"Velocity":75,"Duration":45447,"SoundDuration":45447,"Delta":597537423},{"NoteNumber":82,"Velocity":75,"Duration":45447,"SoundDuration":45447,"Delta":597582871},{"NoteNumber":86,"Velocity":92,"Duration":230651,"SoundDuration":230651,"Delta":597628319},{"NoteNumber":79,"Velocity":75,"Duration":45447,"SoundDuration":45447,"Delta":597858970},{"NoteNumber":51,"Velocity":42,"Duration":458903,"SoundDuration":458903,"Delta":597858970},{"NoteNumber":58,"Velocity":50,"Duration":458903,"SoundDuration":458903,"Delta":597858970},{"NoteNumber":81,"Velocity":69,"Duration":45447,"SoundDuration":45447,"Delta":597904418},{"NoteNumber":79,"Velocity":75,"Duration":45447,"SoundDuration":45447,"Delta":597949865},{"NoteNumber":81,"Velocity":71,"Duration":45447,"SoundDuration":45447,"Delta":597995313},{"NoteNumber":79,"Velocity":71,"Duration":41660,"SoundDuration":41660,"Delta":598044548},{"NoteNumber":82,"Velocity":88,"Duration":231664,"SoundDuration":231664,"Delta":598086208},{"NoteNumber":72,"Velocity":71,"Duration":45447,"SoundDuration":45447,"Delta":598317873},{"NoteNumber":51,"Velocity":39,"Duration":454476,"SoundDuration":454476,"Delta":598317873},{"NoteNumber":55,"Velocity":46,"Duration":454476,"SoundDuration":454476,"Delta":598317873},{"NoteNumber":74,"Velocity":66,"Duration":45447,"SoundDuration":45447,"Delta":598363321},{"NoteNumber":72,"Velocity":71,"Duration":45447,"SoundDuration":45447,"Delta":598408768},{"NoteNumber":74,"Velocity":67,"Duration":45447,"SoundDuration":45447,"Delta":598454216},{"NoteNumber":72,"Velocity":67,"Duration":45447,"SoundDuration":45447,"Delta":598499664},{"NoteNumber":75,"Velocity":79,"Duration":227238,"SoundDuration":227238,"Delta":598545111},{"NoteNumber":65,"Velocity":74,"Duration":60062,"SoundDuration":60062,"Delta":598772350},{"NoteNumber":77,"Velocity":76,"Duration":139838,"SoundDuration":139838,"Delta":598892475},{"NoteNumber":79,"Velocity":78,"Duration":139838,"SoundDuration":139838,"Delta":599009007},{"NoteNumber":77,"Velocity":76,"Duration":139838,"SoundDuration":139838,"Delta":599125539},{"NoteNumber":75,"Velocity":76,"Duration":139838,"SoundDuration":139838,"Delta":599242071},{"NoteNumber":58,"Velocity":46,"Duration":940868,"SoundDuration":940868,"Delta":599242071},{"NoteNumber":50,"Velocity":46,"Duration":466128,"SoundDuration":466128,"Delta":599242071},{"NoteNumber":74,"Velocity":71,"Duration":139838,"SoundDuration":139838,"Delta":599358603},{"NoteNumber":72,"Velocity":72,"Duration":139838,"SoundDuration":139838,"Delta":599475135},{"NoteNumber":70,"Velocity":70,"Duration":140347,"SoundDuration":140347,"Delta":599591667},{"NoteNumber":72,"Velocity":54,"Duration":60084,"SoundDuration":60084,"Delta":599708199},{"NoteNumber":51,"Velocity":46,"Duration":474740,"SoundDuration":474740,"Delta":599708199},{"NoteNumber":74,"Velocity":50,"Duration":61486,"SoundDuration":61486,"Delta":599768283},{"NoteNumber":72,"Velocity":54,"Duration":60755,"SoundDuration":60755,"Delta":599829769},{"NoteNumber":74,"Velocity":49,"Duration":60268,"SoundDuration":60268,"Delta":599890525},{"NoteNumber":72,"Velocity":54,"Duration":59627,"SoundDuration":59627,"Delta":599950793},{"NoteNumber":74,"Velocity":49,"Duration":58941,"SoundDuration":58941,"Delta":600010421},{"NoteNumber":72,"Velocity":54,"Duration":57092,"SoundDuration":57092,"Delta":600069363},{"NoteNumber":74,"Velocity":49,"Duration":56484,"SoundDuration":56484,"Delta":600126455},{"NoteNumber":72,"Velocity":54,"Duration":56598,"SoundDuration":56598,"Delta":600182940},{"NoteNumber":57,"Velocity":46,"Duration":459677,"SoundDuration":459677,"Delta":600182940},{"NoteNumber":53,"Velocity":46,"Duration":459677,"SoundDuration":459677,"Delta":600182940},{"NoteNumber":74,"Velocity":49,"Duration":57410,"SoundDuration":57410,"Delta":600239538},{"NoteNumber":72,"Velocity":54,"Duration":58422,"SoundDuration":58422,"Delta":600296949},{"NoteNumber":74,"Velocity":51,"Duration":57467,"SoundDuration":57467,"Delta":600355371},{"NoteNumber":72,"Velocity":54,"Duration":37571,"SoundDuration":37571,"Delta":600412838},{"NoteNumber":74,"Velocity":50,"Duration":37950,"SoundDuration":37950,"Delta":600450410},{"NoteNumber":72,"Velocity":50,"Duration":38526,"SoundDuration":38526,"Delta":600488361},{"NoteNumber":70,"Velocity":66,"Duration":57790,"SoundDuration":57790,"Delta":600526887},{"NoteNumber":72,"Velocity":62,"Duration":57939,"SoundDuration":57939,"Delta":600584678},{"NoteNumber":70,"Velocity":70,"Duration":116477,"SoundDuration":116477,"Delta":600642617},{"NoteNumber":46,"Velocity":52,"Duration":116477,"SoundDuration":116477,"Delta":600642617},{"NoteNumber":58,"Velocity":52,"Duration":116477,"SoundDuration":116477,"Delta":600642617},{"NoteNumber":58,"Velocity":47,"Duration":116532,"SoundDuration":116532,"Delta":600875573},{"NoteNumber":62,"Velocity":45,"Duration":116532,"SoundDuration":116532,"Delta":600992105},{"NoteNumber":60,"Velocity":47,"Duration":116532,"SoundDuration":116532,"Delta":601108637},{"NoteNumber":57,"Velocity":35,"Duration":233064,"SoundDuration":233064,"Delta":601108637},{"NoteNumber":63,"Velocity":45,"Duration":116532,"SoundDuration":116532,"Delta":601225169},{"NoteNumber":62,"Velocity":47,"Duration":116532,"SoundDuration":116532,"Delta":601341701},{"NoteNumber":56,"Velocity":33,"Duration":233064,"SoundDuration":233064,"Delta":601341701},{"NoteNumber":65,"Velocity":45,"Duration":116532,"SoundDuration":116532,"Delta":601458233},{"NoteNumber":63,"Velocity":48,"Duration":120125,"SoundDuration":120125,"Delta":601574765},{"NoteNumber":46,"Velocity":43,"Duration":120125,"SoundDuration":120125,"Delta":601574765},{"NoteNumber":55,"Velocity":43,"Duration":120125,"SoundDuration":120125,"Delta":601574765},{"NoteNumber":58,"Velocity":52,"Duration":116532,"SoundDuration":116532,"Delta":601815015},{"NoteNumber":62,"Velocity":48,"Duration":116532,"SoundDuration":116532,"Delta":601931547},{"NoteNumber":60,"Velocity":52,"Duration":116532,"SoundDuration":116532,"Delta":602048079},{"NoteNumber":57,"Velocity":35,"Duration":233064,"SoundDuration":233064,"Delta":602048079},{"NoteNumber":63,"Velocity":48,"Duration":116532,"SoundDuration":116532,"Delta":602164611},{"NoteNumber":62,"Velocity":52,"Duration":116532,"SoundDuration":116532,"Delta":602281143},{"NoteNumber":56,"Velocity":33,"Duration":233064,"SoundDuration":233064,"Delta":602281143},{"NoteNumber":65,"Velocity":48,"Duration":116532,"SoundDuration":116532,"Delta":602397675},{"NoteNumber":63,"Velocity":52,"Duration":118558,"SoundDuration":118558,"Delta":602514207},{"NoteNumber":46,"Velocity":42,"Duration":118558,"SoundDuration":118558,"Delta":602514207},{"NoteNumber":55,"Velocity":42,"Duration":118558,"SoundDuration":118558,"Delta":602514207},{"NoteNumber":58,"Velocity":52,"Duration":116532,"SoundDuration":116532,"Delta":602751323},{"NoteNumber":62,"Velocity":55,"Duration":116532,"SoundDuration":116532,"Delta":602867855},{"NoteNumber":60,"Velocity":57,"Duration":116532,"SoundDuration":116532,"Delta":602984387},{"NoteNumber":57,"Velocity":47,"Duration":233064,"SoundDuration":233064,"Delta":602984387},{"NoteNumber":63,"Velocity":58,"Duration":116532,"SoundDuration":116532,"Delta":603100919},{"NoteNumber":62,"Velocity":59,"Duration":116532,"SoundDuration":116532,"Delta":603217451},{"NoteNumber":56,"Velocity":47,"Duration":233064,"SoundDuration":233064,"Delta":603217451},{"NoteNumber":65,"Velocity":62,"Duration":116532,"SoundDuration":116532,"Delta":603333983},{"NoteNumber":63,"Velocity":63,"Duration":116532,"SoundDuration":116532,"Delta":603450515},{"NoteNumber":55,"Velocity":51,"Duration":233064,"SoundDuration":233064,"Delta":603450515},{"NoteNumber":67,"Velocity":66,"Duration":116532,"SoundDuration":116532,"Delta":603567047},{"NoteNumber":65,"Velocity":67,"Duration":116531,"SoundDuration":116531,"Delta":603683579},{"NoteNumber":50,"Velocity":50,"Duration":233063,"SoundDuration":233063,"Delta":603683579},{"NoteNumber":68,"Velocity":69,"Duration":116532,"SoundDuration":116532,"Delta":603800111},{"NoteNumber":67,"Velocity":70,"Duration":116532,"SoundDuration":116532,"Delta":603916643},{"NoteNumber":51,"Velocity":50,"Duration":233064,"SoundDuration":233064,"Delta":603916643},{"NoteNumber":70,"Velocity":71,"Duration":116532,"SoundDuration":116532,"Delta":604033175},{"NoteNumber":69,"Velocity":73,"Duration":118558,"SoundDuration":118558,"Delta":604149707},{"NoteNumber":48,"Velocity":50,"Duration":237116,"SoundDuration":237116,"Delta":604149707},{"NoteNumber":72,"Velocity":75,"Duration":118558,"SoundDuration":118558,"Delta":604268266},{"NoteNumber":70,"Velocity":77,"Duration":116532,"SoundDuration":116532,"Delta":604386824},{"NoteNumber":50,"Velocity":57,"Duration":466128,"SoundDuration":466128,"Delta":604386824},{"NoteNumber":72,"Velocity":79,"Duration":116532,"SoundDuration":116532,"Delta":604503356},{"NoteNumber":74,"Velocity":82,"Duration":116532,"SoundDuration":116532,"Delta":604619888},{"NoteNumber":72,"Velocity":82,"Duration":116532,"SoundDuration":116532,"Delta":604736420},{"NoteNumber":70,"Velocity":80,"Duration":116532,"SoundDuration":116532,"Delta":604852952},{"NoteNumber":68,"Velocity":79,"Duration":116532,"SoundDuration":116532,"Delta":604969484},{"NoteNumber":67,"Velocity":78,"Duration":118558,"SoundDuration":118558,"Delta":605086016},{"NoteNumber":66,"Velocity":77,"Duration":118558,"SoundDuration":118558,"Delta":605204574},{"NoteNumber":67,"Velocity":78,"Duration":116532,"SoundDuration":116532,"Delta":605323132},{"NoteNumber":51,"Velocity":53,"Duration":466128,"SoundDuration":466128,"Delta":605323132},{"NoteNumber":72,"Velocity":79,"Duration":116532,"SoundDuration":116532,"Delta":605439664},{"NoteNumber":75,"Velocity":80,"Duration":116532,"SoundDuration":116532,"Delta":605556196},{"NoteNumber":74,"Velocity":79,"Duration":116532,"SoundDuration":116532,"Delta":605672728},{"NoteNumber":72,"Velocity":79,"Duration":116532,"SoundDuration":116532,"Delta":605789260},{"NoteNumber":70,"Velocity":78,"Duration":116532,"SoundDuration":116532,"Delta":605905792},{"NoteNumber":69,"Velocity":75,"Duration":116532,"SoundDuration":116532,"Delta":606022324},{"NoteNumber":67,"Velocity":74,"Duration":116532,"SoundDuration":116532,"Delta":606138856},{"NoteNumber":65,"Velocity":75,"Duration":118045,"SoundDuration":118045,"Delta":606255388},{"NoteNumber":53,"Velocity":52,"Duration":236090,"SoundDuration":236090,"Delta":606255388},{"NoteNumber":70,"Velocity":79,"Duration":118045,"SoundDuration":118045,"Delta":606373434},{"NoteNumber":74,"Velocity":82,"Duration":118045,"SoundDuration":118045,"Delta":606491479},{"NoteNumber":58,"Velocity":48,"Duration":236090,"SoundDuration":236090,"Delta":606491479},{"NoteNumber":77,"Velocity":88,"Duration":118045,"SoundDuration":118045,"Delta":606609524},{"NoteNumber":82,"Velocity":94,"Duration":121192,"SoundDuration":121192,"Delta":606727569},{"NoteNumber":62,"Velocity":48,"Duration":242385,"SoundDuration":242385,"Delta":606727569},{"NoteNumber":70,"Velocity":64,"Duration":118045,"SoundDuration":118045,"Delta":606969954},{"NoteNumber":74,"Velocity":64,"Duration":118045,"SoundDuration":118045,"Delta":606969954},{"NoteNumber":58,"Velocity":48,"Duration":236090,"SoundDuration":236090,"Delta":606969954},{"NoteNumber":74,"Velocity":70,"Duration":242385,"SoundDuration":242385,"Delta":607206045},{"NoteNumber":77,"Velocity":70,"Duration":242385,"SoundDuration":242385,"Delta":607206045},{"NoteNumber":53,"Velocity":53,"Duration":242385,"SoundDuration":242385,"Delta":607206045},{"NoteNumber":72,"Velocity":66,"Duration":121192,"SoundDuration":121192,"Delta":607448430},{"NoteNumber":75,"Velocity":66,"Duration":121192,"SoundDuration":121192,"Delta":607448430},{"NoteNumber":60,"Velocity":49,"Duration":242385,"SoundDuration":242385,"Delta":607448430},{"NoteNumber":70,"Velocity":67,"Duration":125083,"SoundDuration":125083,"Delta":607690815},{"NoteNumber":74,"Velocity":67,"Duration":125083,"SoundDuration":125083,"Delta":607690815},{"NoteNumber":63,"Velocity":49,"Duration":250167,"SoundDuration":250167,"Delta":607690815},{"NoteNumber":69,"Velocity":67,"Duration":125083,"SoundDuration":125083,"Delta":607940982},{"NoteNumber":72,"Velocity":67,"Duration":125083,"SoundDuration":125083,"Delta":607940982},{"NoteNumber":60,"Velocity":48,"Duration":250166,"SoundDuration":250166,"Delta":607940982},{"NoteNumber":70,"Velocity":67,"Duration":125083,"SoundDuration":125083,"Delta":608191149},{"NoteNumber":58,"Velocity":56,"Duration":125083,"SoundDuration":125083,"Delta":608191149},{"NoteNumber":62,"Velocity":56,"Duration":125083,"SoundDuration":125083,"Delta":608191149},{"NoteNumber":70,"Velocity":47,"Duration":116532,"SoundDuration":116532,"Delta":608441316},{"NoteNumber":74,"Velocity":45,"Duration":116532,"SoundDuration":116532,"Delta":608557848},{"NoteNumber":72,"Velocity":47,"Duration":116532,"SoundDuration":116532,"Delta":608674380},{"NoteNumber":69,"Velocity":35,"Duration":233064,"SoundDuration":233064,"Delta":608674380},{"NoteNumber":75,"Velocity":45,"Duration":116532,"SoundDuration":116532,"Delta":608790912},{"NoteNumber":74,"Velocity":47,"Duration":116532,"SoundDuration":116532,"Delta":608907444},{"NoteNumber":68,"Velocity":35,"Duration":233064,"SoundDuration":233064,"Delta":608907444},{"NoteNumber":77,"Velocity":45,"Duration":116532,"SoundDuration":116532,"Delta":609023976},{"NoteNumber":75,"Velocity":48,"Duration":120125,"SoundDuration":120125,"Delta":609140508},{"NoteNumber":58,"Velocity":43,"Duration":120125,"SoundDuration":120125,"Delta":609140508},{"NoteNumber":67,"Velocity":43,"Duration":120125,"SoundDuration":120125,"Delta":609140508},{"NoteNumber":82,"Velocity":62,"Duration":116532,"SoundDuration":116532,"Delta":609380758},{"NoteNumber":70,"Velocity":35,"Duration":233064,"SoundDuration":233064,"Delta":609380758},{"NoteNumber":86,"Velocity":58,"Duration":116532,"SoundDuration":116532,"Delta":609497290},{"NoteNumber":84,"Velocity":62,"Duration":116532,"SoundDuration":116532,"Delta":609613822},{"NoteNumber":69,"Velocity":35,"Duration":233064,"SoundDuration":233064,"Delta":609613822},{"NoteNumber":87,"Velocity":59,"Duration":116532,"SoundDuration":116532,"Delta":609730354},{"NoteNumber":86,"Velocity":62,"Duration":116532,"SoundDuration":116532,"Delta":609846886},{"NoteNumber":68,"Velocity":35,"Duration":233064,"SoundDuration":233064,"Delta":609846886},{"NoteNumber":89,"Velocity":58,"Duration":116532,"SoundDuration":116532,"Delta":609963418},{"NoteNumber":87,"Velocity":68,"Duration":118558,"SoundDuration":118558,"Delta":610079950},{"NoteNumber":58,"Velocity":46,"Duration":118558,"SoundDuration":118558,"Delta":610079950},{"NoteNumber":67,"Velocity":46,"Duration":118558,"SoundDuration":118558,"Delta":610079950},{"NoteNumber":70,"Velocity":55,"Duration":116532,"SoundDuration":116532,"Delta":610317066},{"NoteNumber":70,"Velocity":38,"Duration":233064,"SoundDuration":233064,"Delta":610317066},{"NoteNumber":74,"Velocity":56,"Duration":116532,"SoundDuration":116532,"Delta":610433598},{"NoteNumber":72,"Velocity":58,"Duration":116532,"SoundDuration":116532,"Delta":610550130},{"NoteNumber":69,"Velocity":47,"Duration":233064,"SoundDuration":233064,"Delta":610550130},{"NoteNumber":75,"Velocity":59,"Duration":116532,"SoundDuration":116532,"Delta":610666662},{"NoteNumber":74,"Velocity":61,"Duration":116532,"SoundDuration":116532,"Delta":610783194},{"NoteNumber":68,"Velocity":47,"Duration":233064,"SoundDuration":233064,"Delta":610783194},{"NoteNumber":77,"Velocity":63,"Duration":116532,"SoundDuration":116532,"Delta":610899726},{"NoteNumber":75,"Velocity":64,"Duration":116532,"SoundDuration":116532,"Delta":611016258},{"NoteNumber":67,"Velocity":51,"Duration":233064,"SoundDuration":233064,"Delta":611016258},{"NoteNumber":70,"Velocity":67,"Duration":116532,"SoundDuration":116532,"Delta":611132790},{"NoteNumber":77,"Velocity":68,"Duration":116531,"SoundDuration":116531,"Delta":611249322},{"NoteNumber":62,"Velocity":49,"Duration":233063,"SoundDuration":233063,"Delta":611249322},{"NoteNumber":70,"Velocity":69,"Duration":116532,"SoundDuration":116532,"Delta":611365854},{"NoteNumber":79,"Velocity":70,"Duration":116615,"SoundDuration":116615,"Delta":611482386},{"NoteNumber":63,"Velocity":50,"Duration":233815,"SoundDuration":233815,"Delta":611482386},{"NoteNumber":70,"Velocity":72,"Duration":117200,"SoundDuration":117200,"Delta":611599002},{"NoteNumber":81,"Velocity":74,"Duration":117875,"SoundDuration":117875,"Delta":611716202},{"NoteNumber":60,"Velocity":50,"Duration":238715,"SoundDuration":238715,"Delta":611716202},{"NoteNumber":70,"Velocity":75,"Duration":120839,"SoundDuration":120839,"Delta":611834077},{"NoteNumber":82,"Velocity":78,"Duration":116532,"SoundDuration":116532,"Delta":611954917},{"NoteNumber":50,"Velocity":68,"Duration":466128,"SoundDuration":466128,"Delta":611954917},{"NoteNumber":62,"Velocity":68,"Duration":466128,"SoundDuration":466128,"Delta":611954917},{"NoteNumber":84,"Velocity":78,"Duration":116532,"SoundDuration":116532,"Delta":612071449},{"NoteNumber":86,"Velocity":77,"Duration":116532,"SoundDuration":116532,"Delta":612187981},{"NoteNumber":84,"Velocity":75,"Duration":116532,"SoundDuration":116532,"Delta":612304513},{"NoteNumber":82,"Velocity":74,"Duration":116532,"SoundDuration":116532,"Delta":612421045},{"NoteNumber":80,"Velocity":73,"Duration":116532,"SoundDuration":116532,"Delta":612537577},{"NoteNumber":79,"Velocity":72,"Duration":116532,"SoundDuration":116532,"Delta":612654109},{"NoteNumber":78,"Velocity":71,"Duration":122830,"SoundDuration":122830,"Delta":612770641},{"NoteNumber":79,"Velocity":79,"Duration":116532,"SoundDuration":116532,"Delta":612893471},{"NoteNumber":63,"Velocity":69,"Duration":466128,"SoundDuration":466128,"Delta":612893471},{"NoteNumber":51,"Velocity":69,"Duration":466128,"SoundDuration":466128,"Delta":612893471},{"NoteNumber":77,"Velocity":79,"Duration":116532,"SoundDuration":116532,"Delta":613010003},{"NoteNumber":75,"Velocity":78,"Duration":116532,"SoundDuration":116532,"Delta":613126535},{"NoteNumber":74,"Velocity":77,"Duration":116532,"SoundDuration":116532,"Delta":613243067},{"NoteNumber":72,"Velocity":75,"Duration":116532,"SoundDuration":116532,"Delta":613359599},{"NoteNumber":70,"Velocity":74,"Duration":116532,"SoundDuration":116532,"Delta":613476131},{"NoteNumber":69,"Velocity":73,"Duration":116532,"SoundDuration":116532,"Delta":613592663},{"NoteNumber":67,"Velocity":73,"Duration":116532,"SoundDuration":116532,"Delta":613709195},{"NoteNumber":65,"Velocity":82,"Duration":233063,"SoundDuration":233063,"Delta":613825727},{"NoteNumber":53,"Velocity":48,"Duration":116531,"SoundDuration":116531,"Delta":613825727},{"NoteNumber":62,"Velocity":41,"Duration":116532,"SoundDuration":116532,"Delta":613942259},{"NoteNumber":89,"Velocity":82,"Duration":118045,"SoundDuration":118045,"Delta":614058791},{"NoteNumber":58,"Velocity":44,"Duration":118045,"SoundDuration":118045,"Delta":614058791},{"NoteNumber":62,"Velocity":39,"Duration":118045,"SoundDuration":118045,"Delta":614176836},{"NoteNumber":89,"Velocity":82,"Duration":118045,"SoundDuration":118045,"Delta":614294882},{"NoteNumber":53,"Velocity":48,"Duration":118045,"SoundDuration":118045,"Delta":614294882},{"NoteNumber":62,"Velocity":40,"Duration":118045,"SoundDuration":118045,"Delta":614412927},{"NoteNumber":89,"Velocity":82,"Duration":118045,"SoundDuration":118045,"Delta":614530972},{"NoteNumber":58,"Velocity":44,"Duration":118045,"SoundDuration":118045,"Delta":614530972},{"NoteNumber":62,"Velocity":41,"Duration":118045,"SoundDuration":118045,"Delta":614649017},{"NoteNumber":89,"Velocity":81,"Duration":116532,"SoundDuration":116532,"Delta":614767063},{"NoteNumber":53,"Velocity":48,"Duration":116532,"SoundDuration":116532,"Delta":614767063},{"NoteNumber":86,"Velocity":76,"Duration":116532,"SoundDuration":116532,"Delta":614883595},{"NoteNumber":62,"Velocity":42,"Duration":116532,"SoundDuration":116532,"Delta":614883595},{"NoteNumber":82,"Velocity":71,"Duration":116532,"SoundDuration":116532,"Delta":615000127},{"NoteNumber":58,"Velocity":46,"Duration":116532,"SoundDuration":116532,"Delta":615000127},{"NoteNumber":77,"Velocity":69,"Duration":116449,"SoundDuration":116449,"Delta":615116659},{"NoteNumber":62,"Velocity":42,"Duration":116449,"SoundDuration":116449,"Delta":615116659},{"NoteNumber":82,"Velocity":81,"Duration":115544,"SoundDuration":115544,"Delta":615233108},{"NoteNumber":53,"Velocity":48,"Duration":115544,"SoundDuration":115544,"Delta":615233108},{"NoteNumber":77,"Velocity":75,"Duration":115544,"SoundDuration":115544,"Delta":615348653},{"NoteNumber":62,"Velocity":44,"Duration":115544,"SoundDuration":115544,"Delta":615348653},{"NoteNumber":74,"Velocity":71,"Duration":115544,"SoundDuration":115544,"Delta":615464197},{"NoteNumber":58,"Velocity":46,"Duration":115544,"SoundDuration":115544,"Delta":615464197},{"NoteNumber":70,"Velocity":69,"Duration":115792,"SoundDuration":115792,"Delta":615579742},{"NoteNumber":62,"Velocity":43,"Duration":115792,"SoundDuration":115792,"Delta":615579742},{"NoteNumber":72,"Velocity":51,"Duration":74694,"SoundDuration":74694,"Delta":615695534},{"NoteNumber":53,"Velocity":48,"Duration":111390,"SoundDuration":111390,"Delta":615695534},{"NoteNumber":74,"Velocity":46,"Duration":73677,"SoundDuration":73677,"Delta":615770228},{"NoteNumber":63,"Velocity":40,"Duration":110307,"SoundDuration":110307,"Delta":615806924},{"NoteNumber":72,"Velocity":51,"Duration":73326,"SoundDuration":73326,"Delta":615843905},{"NoteNumber":74,"Velocity":46,"Duration":72516,"SoundDuration":72516,"Delta":615917232},{"NoteNumber":57,"Velocity":43,"Duration":108443,"SoundDuration":108443,"Delta":615917232},{"NoteNumber":72,"Velocity":51,"Duration":72054,"SoundDuration":72054,"Delta":615989748},{"NoteNumber":63,"Velocity":40,"Duration":108786,"SoundDuration":108786,"Delta":616025676},{"NoteNumber":74,"Velocity":46,"Duration":72658,"SoundDuration":72658,"Delta":616061803},{"NoteNumber":72,"Velocity":51,"Duration":71655,"SoundDuration":71655,"Delta":616134462},{"NoteNumber":53,"Velocity":48,"Duration":107497,"SoundDuration":107497,"Delta":616134462},{"NoteNumber":74,"Velocity":46,"Duration":71711,"SoundDuration":71711,"Delta":616206117},{"NoteNumber":63,"Velocity":39,"Duration":107354,"SoundDuration":107354,"Delta":616241959},{"NoteNumber":72,"Velocity":51,"Duration":71484,"SoundDuration":71484,"Delta":616277829},{"NoteNumber":74,"Velocity":46,"Duration":72514,"SoundDuration":72514,"Delta":616349314},{"NoteNumber":57,"Velocity":43,"Duration":108727,"SoundDuration":108727,"Delta":616349314},{"NoteNumber":72,"Velocity":51,"Duration":72500,"SoundDuration":72500,"Delta":616421828},{"NoteNumber":63,"Velocity":39,"Duration":111115,"SoundDuration":111115,"Delta":616458041},{"NoteNumber":74,"Velocity":46,"Duration":74828,"SoundDuration":74828,"Delta":616494328},{"NoteNumber":72,"Velocity":51,"Duration":76033,"SoundDuration":76033,"Delta":616569157},{"NoteNumber":53,"Velocity":48,"Duration":114225,"SoundDuration":114225,"Delta":616569157},{"NoteNumber":74,"Velocity":46,"Duration":77035,"SoundDuration":77035,"Delta":616645191},{"NoteNumber":63,"Velocity":39,"Duration":116532,"SoundDuration":116532,"Delta":616683382},{"NoteNumber":72,"Velocity":51,"Duration":77687,"SoundDuration":77687,"Delta":616722226},{"NoteNumber":74,"Velocity":48,"Duration":78021,"SoundDuration":78021,"Delta":616799914},{"NoteNumber":57,"Velocity":43,"Duration":117031,"SoundDuration":117031,"Delta":616799914},{"NoteNumber":72,"Velocity":51,"Duration":78189,"SoundDuration":78189,"Delta":616877935},{"NoteNumber":63,"Velocity":38,"Duration":117536,"SoundDuration":117536,"Delta":616916946},{"NoteNumber":74,"Velocity":47,"Duration":78357,"SoundDuration":78357,"Delta":616956125},{"NoteNumber":72,"Velocity":51,"Duration":59022,"SoundDuration":59022,"Delta":617034483},{"NoteNumber":53,"Velocity":48,"Duration":118045,"SoundDuration":118045,"Delta":617034483},{"NoteNumber":74,"Velocity":48,"Duration":59022,"SoundDuration":59022,"Delta":617093505},{"NoteNumber":72,"Velocity":51,"Duration":59279,"SoundDuration":59279,"Delta":617152528},{"NoteNumber":63,"Velocity":42,"Duration":118558,"SoundDuration":118558,"Delta":617152528},{"NoteNumber":74,"Velocity":47,"Duration":59279,"SoundDuration":59279,"Delta":617211807},{"NoteNumber":72,"Velocity":51,"Duration":39691,"SoundDuration":39691,"Delta":617271086},{"NoteNumber":57,"Velocity":45,"Duration":119075,"SoundDuration":119075,"Delta":617271086},{"NoteNumber":74,"Velocity":48,"Duration":39692,"SoundDuration":39692,"Delta":617310778},{"NoteNumber":72,"Velocity":48,"Duration":39691,"SoundDuration":39691,"Delta":617350470},{"NoteNumber":70,"Velocity":62,"Duration":59799,"SoundDuration":59799,"Delta":617390162},{"NoteNumber":63,"Velocity":40,"Duration":119598,"SoundDuration":119598,"Delta":617390162},{"NoteNumber":72,"Velocity":58,"Duration":59799,"SoundDuration":59799,"Delta":617449961},{"NoteNumber":70,"Velocity":69,"Duration":236245,"SoundDuration":236245,"Delta":617509760},{"NoteNumber":58,"Velocity":51,"Duration":240249,"SoundDuration":240249,"Delta":617509760},{"NoteNumber":82,"Velocity":54,"Duration":240250,"SoundDuration":240250,"Delta":617750010},{"NoteNumber":70,"Velocity":44,"Duration":240250,"SoundDuration":240250,"Delta":617750010},{"NoteNumber":69,"Velocity":44,"Duration":240249,"SoundDuration":240249,"Delta":617990260},{"NoteNumber":82,"Velocity":58,"Duration":233899,"SoundDuration":233899,"Delta":618230510},{"NoteNumber":70,"Velocity":48,"Duration":233899,"SoundDuration":233899,"Delta":618230510},{"NoteNumber":81,"Velocity":56,"Duration":236863,"SoundDuration":236863,"Delta":618464410},{"NoteNumber":72,"Velocity":49,"Duration":236863,"SoundDuration":236863,"Delta":618464410},{"NoteNumber":82,"Velocity":61,"Duration":239989,"SoundDuration":239989,"Delta":618701273},{"NoteNumber":70,"Velocity":52,"Duration":239989,"SoundDuration":239989,"Delta":618701273},{"NoteNumber":84,"Velocity":68,"Duration":243199,"SoundDuration":243199,"Delta":618941263},{"NoteNumber":69,"Velocity":56,"Duration":243199,"SoundDuration":243199,"Delta":618941263},{"NoteNumber":86,"Velocity":72,"Duration":246496,"SoundDuration":246496,"Delta":619184462},{"NoteNumber":68,"Velocity":59,"Duration":246496,"SoundDuration":246496,"Delta":619184462},{"NoteNumber":87,"Velocity":79,"Duration":116532,"SoundDuration":116532,"Delta":619430959},{"NoteNumber":67,"Velocity":64,"Duration":233064,"SoundDuration":233064,"Delta":619430959},{"NoteNumber":86,"Velocity":73,"Duration":116532,"SoundDuration":116532,"Delta":619547491},{"NoteNumber":87,"Velocity":76,"Duration":116532,"SoundDuration":116532,"Delta":619664023},{"NoteNumber":58,"Velocity":49,"Duration":233064,"SoundDuration":233064,"Delta":619664023},{"NoteNumber":86,"Velocity":70,"Duration":116532,"SoundDuration":116532,"Delta":619780555},{"NoteNumber":87,"Velocity":75,"Duration":116532,"SoundDuration":116532,"Delta":619897087},{"NoteNumber":66,"Velocity":58,"Duration":233064,"SoundDuration":233064,"Delta":619897087},{"NoteNumber":85,"Velocity":67,"Duration":116532,"SoundDuration":116532,"Delta":620013619},{"NoteNumber":84,"Velocity":69,"Duration":116532,"SoundDuration":116532,"Delta":620130151},{"NoteNumber":58,"Velocity":49,"Duration":236130,"SoundDuration":236130,"Delta":620130151},{"NoteNumber":82,"Velocity":65,"Duration":119598,"SoundDuration":119598,"Delta":620246683},{"NoteNumber":81,"Velocity":67,"Duration":116532,"SoundDuration":116532,"Delta":620366281},{"NoteNumber":65,"Velocity":57,"Duration":233564,"SoundDuration":233564,"Delta":620366281},{"NoteNumber":82,"Velocity":70,"Duration":117031,"SoundDuration":117031,"Delta":620482813},{"NoteNumber":84,"Velocity":72,"Duration":117536,"SoundDuration":117536,"Delta":620599845},{"NoteNumber":58,"Velocity":48,"Duration":235581,"SoundDuration":235581,"Delta":620599845},{"NoteNumber":82,"Velocity":67,"Duration":118045,"SoundDuration":118045,"Delta":620717382},{"NoteNumber":81,"Velocity":69,"Duration":118558,"SoundDuration":118558,"Delta":620835427},{"NoteNumber":69,"Velocity":55,"Duration":237634,"SoundDuration":237634,"Delta":620835427},{"NoteNumber":79,"Velocity":66,"Duration":119075,"SoundDuration":119075,"Delta":620953985},{"NoteNumber":77,"Velocity":66,"Duration":119598,"SoundDuration":119598,"Delta":621073061},{"NoteNumber":58,"Velocity":48,"Duration":239723,"SoundDuration":239723,"Delta":621073061},{"NoteNumber":75,"Velocity":65,"Duration":120125,"SoundDuration":120125,"Delta":621192660},{"NoteNumber":74,"Velocity":63,"Duration":120656,"SoundDuration":120656,"Delta":621312785},{"NoteNumber":70,"Velocity":53,"Duration":120656,"SoundDuration":120656,"Delta":621312785},{"NoteNumber":74,"Velocity":49,"Duration":120656,"SoundDuration":120656,"Delta":621554097},{"NoteNumber":58,"Velocity":41,"Duration":241312,"SoundDuration":241312,"Delta":621554097},{"NoteNumber":57,"Velocity":41,"Duration":241312,"SoundDuration":241312,"Delta":621795410},{"NoteNumber":70,"Velocity":53,"Duration":241312,"SoundDuration":241312,"Delta":622036722},{"NoteNumber":58,"Velocity":37,"Duration":241312,"SoundDuration":241312,"Delta":622036722},{"NoteNumber":69,"Velocity":49,"Duration":242569,"SoundDuration":242569,"Delta":622278035},{"NoteNumber":60,"Velocity":45,"Duration":242569,"SoundDuration":242569,"Delta":622278035},{"NoteNumber":70,"Velocity":49,"Duration":246312,"SoundDuration":246312,"Delta":622520604},{"NoteNumber":58,"Velocity":43,"Duration":246312,"SoundDuration":246312,"Delta":622520604},{"NoteNumber":72,"Velocity":49,"Duration":250363,"SoundDuration":250363,"Delta":622766917},{"NoteNumber":57,"Velocity":43,"Duration":250363,"SoundDuration":250363,"Delta":622766917},{"NoteNumber":74,"Velocity":49,"Duration":254352,"SoundDuration":254352,"Delta":623017280},{"NoteNumber":56,"Velocity":38,"Duration":254352,"SoundDuration":254352,"Delta":623017280},{"NoteNumber":75,"Velocity":52,"Duration":128622,"SoundDuration":128622,"Delta":623271633},{"NoteNumber":55,"Velocity":45,"Duration":514492,"SoundDuration":514492,"Delta":623271633},{"NoteNumber":77,"Velocity":52,"Duration":64311,"SoundDuration":64311,"Delta":623528879},{"NoteNumber":75,"Velocity":49,"Duration":64311,"SoundDuration":64311,"Delta":623593190},{"NoteNumber":74,"Velocity":52,"Duration":64311,"SoundDuration":64311,"Delta":623657502},{"NoteNumber":75,"Velocity":48,"Duration":64311,"SoundDuration":64311,"Delta":623721813},{"NoteNumber":77,"Velocity":54,"Duration":257246,"SoundDuration":257246,"Delta":623786125},{"NoteNumber":51,"Velocity":35,"Duration":538355,"SoundDuration":538355,"Delta":623786125},{"NoteNumber":79,"Velocity":61,"Duration":269396,"SoundDuration":269396,"Delta":624043371},{"NoteNumber":75,"Velocity":49,"Duration":269978,"SoundDuration":269978,"Delta":624324480},{"NoteNumber":79,"Velocity":49,"Duration":269978,"SoundDuration":269978,"Delta":624324480},{"NoteNumber":53,"Velocity":35,"Duration":539956,"SoundDuration":539956,"Delta":624324480},{"NoteNumber":74,"Velocity":42,"Duration":269978,"SoundDuration":269978,"Delta":624594459},{"NoteNumber":77,"Velocity":42,"Duration":269978,"SoundDuration":269978,"Delta":624594459},{"NoteNumber":53,"Velocity":35,"Duration":542613,"SoundDuration":542613,"Delta":624864437},{"NoteNumber":63,"Velocity":30,"Duration":280421,"SoundDuration":280421,"Delta":625126629},{"NoteNumber":69,"Velocity":30,"Duration":280421,"SoundDuration":280421,"Delta":625126629},{"NoteNumber":63,"Velocity":45,"Duration":1533665,"SoundDuration":1533665,"Delta":625407051},{"NoteNumber":72,"Velocity":45,"Duration":1533665,"SoundDuration":1533665,"Delta":625407051},{"NoteNumber":58,"Velocity":37,"Duration":651052,"SoundDuration":651052,"Delta":625407051},{"NoteNumber":53,"Velocity":28,"Duration":882612,"SoundDuration":882612,"Delta":626058103},{"NoteNumber":62,"Velocity":32,"Duration":996099,"SoundDuration":996099,"Delta":626940716},{"NoteNumber":70,"Velocity":32,"Duration":996099,"SoundDuration":996099,"Delta":626940716},{"NoteNumber":46,"Velocity":28,"Duration":996099,"SoundDuration":996099,"Delta":626940716}],"license":{"name":"Creative Commons Attribution-ShareAlike 3.0 Germany","url":"http://creativecommons.org/licenses/by-sa/3.0/de/deed.en","text":"The MIDI, audio (MP3, OGG) and video files of Bernd Krueger are licensed under the cc-by-sa Germany License. This means that you can use and adapt the files, as long as you attribute the copyright holder.\n\nName: Bernd Krueger\nSource: http://www.piano-midi.de\n\nThe distribution or public playback of the files is only allowed under identical license conditions.\n\nThe scores are open source.","attribution":"MIDI files by Bernd Krueger (piano-midi.de)","attributionUrl":"http://www.piano-midi.de"}}