{"title":"2. Satz","artist":"Mozart","durationMs":522372,"midiSha256":"f85a17a3a0ea08505acbedc29675959d44c777f12ee8bd32bf8ab635516637b7","midiObject":[{"NoteNumber":70,"Velocity":59,"Duration":1054852,"SoundDuration":1054852,"Delta":0},{"NoteNumber":67,"Velocity":59,"Duration":1054852,"SoundDuration":1054852,"Delta":0},{"NoteNumber":51,"Velocity":51,"Duration":2109586,"SoundDuration":2109586,"Delta":0},{"NoteNumber":68,"Velocity":55,"Duration":571378,"SoundDuration":571378,"Delta":1052655},{"NoteNumber":65,"Velocity":55,"Duration":571378,"SoundDuration":571378,"Delta":1052655},{"NoteNumber":63,"Velocity":53,"Duration":569030,"SoundDuration":569030,"Delta":1580080},{"NoteNumber":67,"Velocity":53,"Duration":569030,"SoundDuration":569030,"Delta":1580080},{"NoteNumber":68,"Velocity":54,"Duration":544664,"SoundDuration":544664,"Delta":2107507},{"NoteNumber":72,"Velocity":54,"Duration":544664,"SoundDuration":544664,"Delta":2107507},{"NoteNumber":67,"Velocity":52,"Duration":499545,"SoundDuration":499545,"Delta":2606758},{"NoteNumber":70,"Velocity":52,"Duration":499545,"SoundDuration":499545,"Delta":2606758},{"NoteNumber":70,"Velocity":59,"Duration":1013856,"SoundDuration":1013856,"Delta":3151717},{"NoteNumber":67,"Velocity":59,"Duration":1013856,"SoundDuration":1013856,"Delta":3151717},{"NoteNumber":51,"Velocity":50,"Duration":1013856,"SoundDuration":1013856,"Delta":3151717},{"NoteNumber":65,"Velocity":53,"Duration":998502,"SoundDuration":998502,"Delta":4165573},{"NoteNumber":68,"Velocity":53,"Duration":998502,"SoundDuration":998502,"Delta":4165573},{"NoteNumber":53,"Velocity":46,"Duration":998502,"SoundDuration":998502,"Delta":4165573},{"NoteNumber":63,"Velocity":51,"Duration":1046389,"SoundDuration":1046389,"Delta":5164075},{"NoteNumber":67,"Velocity":51,"Duration":1046389,"SoundDuration":1046389,"Delta":5164075},{"NoteNumber":55,"Velocity":45,"Duration":1046389,"SoundDuration":1046389,"Delta":5164075},{"NoteNumber":64,"Velocity":65,"Duration":1029866,"SoundDuration":1029866,"Delta":6210465},{"NoteNumber":58,"Velocity":55,"Duration":1029866,"SoundDuration":1029866,"Delta":6210465},{"NoteNumber":61,"Velocity":55,"Duration":1029866,"SoundDuration":1029866,"Delta":6210465},{"NoteNumber":65,"Velocity":55,"Duration":527426,"SoundDuration":527426,"Delta":7240331},{"NoteNumber":60,"Velocity":51,"Duration":1038325,"SoundDuration":1038325,"Delta":7240331},{"NoteNumber":56,"Velocity":51,"Duration":1038325,"SoundDuration":1038325,"Delta":7240331},{"NoteNumber":72,"Velocity":55,"Duration":510899,"SoundDuration":510899,"Delta":7767757},{"NoteNumber":70,"Velocity":53,"Duration":255449,"SoundDuration":255449,"Delta":8278656},{"NoteNumber":68,"Velocity":51,"Duration":255449,"SoundDuration":255449,"Delta":8534105},{"NoteNumber":67,"Velocity":53,"Duration":255449,"SoundDuration":255449,"Delta":8789555},{"NoteNumber":65,"Velocity":52,"Duration":255449,"SoundDuration":255449,"Delta":9045004},{"NoteNumber":55,"Velocity":59,"Duration":1072003,"SoundDuration":1072003,"Delta":9300454},{"NoteNumber":63,"Velocity":59,"Duration":1072003,"SoundDuration":1072003,"Delta":9300454},{"NoteNumber":45,"Velocity":47,"Duration":268000,"SoundDuration":268000,"Delta":9300454},{"NoteNumber":46,"Velocity":50,"Duration":268000,"SoundDuration":268000,"Delta":9568454},{"NoteNumber":48,"Velocity":53,"Duration":268000,"SoundDuration":268000,"Delta":9836455},{"NoteNumber":46,"Velocity":51,"Duration":245667,"SoundDuration":245667,"Delta":10104456},{"NoteNumber":53,"Velocity":53,"Duration":263712,"SoundDuration":263712,"Delta":10372457},{"NoteNumber":62,"Velocity":53,"Duration":263712,"SoundDuration":263712,"Delta":10372457},{"NoteNumber":46,"Velocity":49,"Duration":1052031,"SoundDuration":1052031,"Delta":10372457},{"NoteNumber":58,"Velocity":47,"Duration":131856,"SoundDuration":131856,"Delta":10768026},{"NoteNumber":62,"Velocity":51,"Duration":131856,"SoundDuration":131856,"Delta":10899883},{"NoteNumber":60,"Velocity":49,"Duration":131151,"SoundDuration":131151,"Delta":11031739},{"NoteNumber":63,"Velocity":52,"Duration":130798,"SoundDuration":130798,"Delta":11162890},{"NoteNumber":62,"Velocity":51,"Duration":130798,"SoundDuration":130798,"Delta":11293689},{"NoteNumber":65,"Velocity":53,"Duration":130798,"SoundDuration":130798,"Delta":11424488},{"NoteNumber":63,"Velocity":51,"Duration":130798,"SoundDuration":130798,"Delta":11555287},{"NoteNumber":67,"Velocity":54,"Duration":130451,"SoundDuration":130451,"Delta":11686085},{"NoteNumber":65,"Velocity":54,"Duration":129757,"SoundDuration":129757,"Delta":11816537},{"NoteNumber":68,"Velocity":57,"Duration":129757,"SoundDuration":129757,"Delta":11946295},{"NoteNumber":67,"Velocity":54,"Duration":129757,"SoundDuration":129757,"Delta":12076053},{"NoteNumber":70,"Velocity":59,"Duration":129757,"SoundDuration":129757,"Delta":12205810},{"NoteNumber":68,"Velocity":56,"Duration":129074,"SoundDuration":129074,"Delta":12335568},{"NoteNumber":72,"Velocity":60,"Duration":131856,"SoundDuration":131856,"Delta":12464643},{"NoteNumber":39,"Velocity":53,"Duration":1054852,"SoundDuration":1054852,"Delta":12464643},{"NoteNumber":51,"Velocity":53,"Duration":1054852,"SoundDuration":1054852,"Delta":12464643},{"NoteNumber":67,"Velocity":61,"Duration":922995,"SoundDuration":922995,"Delta":12596499},{"NoteNumber":70,"Velocity":61,"Duration":659282,"SoundDuration":659282,"Delta":12596499},{"NoteNumber":72,"Velocity":53,"Duration":131856,"SoundDuration":131856,"Delta":13255782},{"NoteNumber":70,"Velocity":50,"Duration":131856,"SoundDuration":131856,"Delta":13387638},{"NoteNumber":68,"Velocity":53,"Duration":265863,"SoundDuration":265863,"Delta":13519495},{"NoteNumber":67,"Velocity":51,"Duration":265863,"SoundDuration":265863,"Delta":13785358},{"NoteNumber":65,"Velocity":53,"Duration":265863,"SoundDuration":265863,"Delta":14051221},{"NoteNumber":63,"Velocity":52,"Duration":274775,"SoundDuration":274775,"Delta":14317085},{"NoteNumber":79,"Velocity":62,"Duration":263712,"SoundDuration":263712,"Delta":14591860},{"NoteNumber":51,"Velocity":49,"Duration":1054852,"SoundDuration":1054852,"Delta":14591860},{"NoteNumber":60,"Velocity":49,"Duration":1054852,"SoundDuration":1054852,"Delta":14591860},{"NoteNumber":74,"Velocity":54,"Duration":263713,"SoundDuration":263713,"Delta":14855573},{"NoteNumber":75,"Velocity":58,"Duration":263712,"SoundDuration":263712,"Delta":15119286},{"NoteNumber":72,"Velocity":52,"Duration":263713,"SoundDuration":263713,"Delta":15382999},{"NoteNumber":70,"Velocity":56,"Duration":1072003,"SoundDuration":1072003,"Delta":15646712},{"NoteNumber":60,"Velocity":53,"Duration":1072003,"SoundDuration":1072003,"Delta":15646712},{"NoteNumber":53,"Velocity":53,"Duration":1072003,"SoundDuration":1072003,"Delta":15646712},{"NoteNumber":68,"Velocity":50,"Duration":113434,"SoundDuration":113434,"Delta":16718715},{"NoteNumber":58,"Velocity":50,"Duration":986288,"SoundDuration":986288,"Delta":16718715},{"NoteNumber":62,"Velocity":50,"Duration":986288,"SoundDuration":986288,"Delta":16718715},{"NoteNumber":70,"Velocity":48,"Duration":109676,"SoundDuration":109676,"Delta":16832149},{"NoteNumber":68,"Velocity":50,"Duration":109234,"SoundDuration":109234,"Delta":16941826},{"NoteNumber":70,"Velocity":48,"Duration":106249,"SoundDuration":106249,"Delta":17051061},{"NoteNumber":68,"Velocity":50,"Duration":101750,"SoundDuration":101750,"Delta":17157311},{"NoteNumber":70,"Velocity":49,"Duration":103190,"SoundDuration":103190,"Delta":17259061},{"NoteNumber":68,"Velocity":49,"Duration":100927,"SoundDuration":100927,"Delta":17362252},{"NoteNumber":67,"Velocity":57,"Duration":118582,"SoundDuration":118582,"Delta":17461226},{"NoteNumber":68,"Velocity":55,"Duration":125194,"SoundDuration":125194,"Delta":17579809},{"NoteNumber":67,"Velocity":60,"Duration":131602,"SoundDuration":131602,"Delta":17705003},{"NoteNumber":60,"Velocity":49,"Duration":529067,"SoundDuration":529067,"Delta":17705003},{"NoteNumber":63,"Velocity":49,"Duration":529067,"SoundDuration":529067,"Delta":17705003},{"NoteNumber":75,"Velocity":65,"Duration":265863,"SoundDuration":265863,"Delta":17968207},{"NoteNumber":74,"Velocity":62,"Duration":265863,"SoundDuration":265863,"Delta":18234071},{"NoteNumber":73,"Velocity":59,"Duration":265863,"SoundDuration":265863,"Delta":18499934},{"NoteNumber":71,"Velocity":57,"Duration":314399,"SoundDuration":314399,"Delta":18765797},{"NoteNumber":44,"Velocity":54,"Duration":1257049,"SoundDuration":1257049,"Delta":18765797},{"NoteNumber":56,"Velocity":54,"Duration":1257049,"SoundDuration":1257049,"Delta":18765797},{"NoteNumber":74,"Velocity":53,"Duration":78599,"SoundDuration":78599,"Delta":19001597},{"NoteNumber":72,"Velocity":61,"Duration":302785,"SoundDuration":302785,"Delta":19080197},{"NoteNumber":70,"Velocity":53,"Duration":75696,"SoundDuration":75696,"Delta":19307286},{"NoteNumber":68,"Velocity":57,"Duration":302785,"SoundDuration":302785,"Delta":19382982},{"NoteNumber":67,"Velocity":47,"Duration":75696,"SoundDuration":75696,"Delta":19610072},{"NoteNumber":65,"Velocity":55,"Duration":337078,"SoundDuration":337078,"Delta":19685768},{"NoteNumber":63,"Velocity":51,"Duration":1783591,"SoundDuration":1783591,"Delta":20022847},{"NoteNumber":46,"Velocity":50,"Duration":2394838,"SoundDuration":2394838,"Delta":20022847},{"NoteNumber":55,"Velocity":50,"Duration":1189060,"SoundDuration":1189060,"Delta":20022847},{"NoteNumber":56,"Velocity":40,"Duration":1205777,"SoundDuration":1205777,"Delta":21211908},{"NoteNumber":67,"Velocity":50,"Duration":305623,"SoundDuration":305623,"Delta":21806438},{"NoteNumber":62,"Velocity":50,"Duration":611246,"SoundDuration":611246,"Delta":21806438},{"NoteNumber":65,"Velocity":47,"Duration":305623,"SoundDuration":305623,"Delta":22112062},{"NoteNumber":63,"Velocity":46,"Duration":1054852,"SoundDuration":1054852,"Delta":22417685},{"NoteNumber":51,"Velocity":32,"Duration":263712,"SoundDuration":263712,"Delta":22417685},{"NoteNumber":55,"Velocity":32,"Duration":263712,"SoundDuration":263712,"Delta":22681398},{"NoteNumber":58,"Velocity":30,"Duration":263713,"SoundDuration":263713,"Delta":22945111},{"NoteNumber":55,"Velocity":27,"Duration":263712,"SoundDuration":263712,"Delta":23208824},{"NoteNumber":51,"Velocity":33,"Duration":263712,"SoundDuration":263712,"Delta":23472537},{"NoteNumber":55,"Velocity":29,"Duration":263712,"SoundDuration":263712,"Delta":23736250},{"NoteNumber":67,"Velocity":49,"Duration":510898,"SoundDuration":510898,"Delta":23999963},{"NoteNumber":70,"Velocity":49,"Duration":510898,"SoundDuration":510898,"Delta":23999963},{"NoteNumber":58,"Velocity":31,"Duration":255449,"SoundDuration":255449,"Delta":23999963},{"NoteNumber":55,"Velocity":29,"Duration":255449,"SoundDuration":255449,"Delta":24255413},{"NoteNumber":67,"Velocity":52,"Duration":510899,"SoundDuration":510899,"Delta":24510862},{"NoteNumber":70,"Velocity":52,"Duration":510899,"SoundDuration":510899,"Delta":24510862},{"NoteNumber":51,"Velocity":33,"Duration":255449,"SoundDuration":255449,"Delta":24510862},{"NoteNumber":55,"Velocity":29,"Duration":255449,"SoundDuration":255449,"Delta":24766312},{"NoteNumber":67,"Velocity":46,"Duration":540442,"SoundDuration":540442,"Delta":25021761},{"NoteNumber":70,"Velocity":46,"Duration":540442,"SoundDuration":540442,"Delta":25021761},{"NoteNumber":58,"Velocity":31,"Duration":270221,"SoundDuration":270221,"Delta":25021761},{"NoteNumber":55,"Velocity":29,"Duration":270221,"SoundDuration":270221,"Delta":25291983},{"NoteNumber":68,"Velocity":57,"Duration":1582277,"SoundDuration":1582277,"Delta":25562204},{"NoteNumber":75,"Velocity":57,"Duration":527425,"SoundDuration":527425,"Delta":25562204},{"NoteNumber":51,"Velocity":36,"Duration":263712,"SoundDuration":263712,"Delta":25562204},{"NoteNumber":53,"Velocity":27,"Duration":263712,"SoundDuration":263712,"Delta":25825917},{"NoteNumber":74,"Velocity":50,"Duration":1054852,"SoundDuration":1054852,"Delta":26089630},{"NoteNumber":56,"Velocity":30,"Duration":263713,"SoundDuration":263713,"Delta":26089630},{"NoteNumber":53,"Velocity":27,"Duration":263712,"SoundDuration":263712,"Delta":26353343},{"NoteNumber":51,"Velocity":32,"Duration":263712,"SoundDuration":263712,"Delta":26617056},{"NoteNumber":53,"Velocity":27,"Duration":263712,"SoundDuration":263712,"Delta":26880769},{"NoteNumber":82,"Velocity":54,"Duration":306539,"SoundDuration":306539,"Delta":27144482},{"NoteNumber":56,"Velocity":30,"Duration":255449,"SoundDuration":255449,"Delta":27144482},{"NoteNumber":80,"Velocity":51,"Duration":255449,"SoundDuration":255449,"Delta":27399932},{"NoteNumber":53,"Velocity":27,"Duration":255449,"SoundDuration":255449,"Delta":27399932},{"NoteNumber":79,"Velocity":54,"Duration":306539,"SoundDuration":306539,"Delta":27655381},{"NoteNumber":51,"Velocity":32,"Duration":255449,"SoundDuration":255449,"Delta":27655381},{"NoteNumber":77,"Velocity":52,"Duration":306539,"SoundDuration":306539,"Delta":27910831},{"NoteNumber":53,"Velocity":27,"Duration":255449,"SoundDuration":255449,"Delta":27910831},{"NoteNumber":75,"Velocity":52,"Duration":306539,"SoundDuration":306539,"Delta":28166280},{"NoteNumber":56,"Velocity":30,"Duration":255449,"SoundDuration":255449,"Delta":28166280},{"NoteNumber":74,"Velocity":49,"Duration":255449,"SoundDuration":255449,"Delta":28421730},{"NoteNumber":53,"Velocity":27,"Duration":255449,"SoundDuration":255449,"Delta":28421730},{"NoteNumber":77,"Velocity":54,"Duration":87199,"SoundDuration":87199,"Delta":28677179},{"NoteNumber":51,"Velocity":33,"Duration":261597,"SoundDuration":261597,"Delta":28677179},{"NoteNumber":75,"Velocity":52,"Duration":697593,"SoundDuration":697593,"Delta":28764379},{"NoteNumber":55,"Velocity":27,"Duration":261597,"SoundDuration":261597,"Delta":28938777},{"NoteNumber":58,"Velocity":30,"Duration":261597,"SoundDuration":261597,"Delta":29200374},{"NoteNumber":74,"Velocity":45,"Duration":130798,"SoundDuration":130798,"Delta":29461972},{"NoteNumber":55,"Velocity":27,"Duration":261597,"SoundDuration":261597,"Delta":29461972},{"NoteNumber":72,"Velocity":44,"Duration":130798,"SoundDuration":130798,"Delta":29592771},{"NoteNumber":70,"Velocity":45,"Duration":523195,"SoundDuration":523195,"Delta":29723569},{"NoteNumber":51,"Velocity":29,"Duration":261597,"SoundDuration":261597,"Delta":29723569},{"NoteNumber":55,"Velocity":27,"Duration":261597,"SoundDuration":261597,"Delta":29985167},{"NoteNumber":67,"Velocity":45,"Duration":510898,"SoundDuration":510898,"Delta":30246764},{"NoteNumber":70,"Velocity":45,"Duration":510898,"SoundDuration":510898,"Delta":30246764},{"NoteNumber":58,"Velocity":30,"Duration":255449,"SoundDuration":255449,"Delta":30246764},{"NoteNumber":55,"Velocity":27,"Duration":255449,"SoundDuration":255449,"Delta":30502214},{"NoteNumber":67,"Velocity":50,"Duration":510899,"SoundDuration":510899,"Delta":30757663},{"NoteNumber":70,"Velocity":50,"Duration":510899,"SoundDuration":510899,"Delta":30757663},{"NoteNumber":51,"Velocity":29,"Duration":255449,"SoundDuration":255449,"Delta":30757663},{"NoteNumber":55,"Velocity":27,"Duration":255449,"SoundDuration":255449,"Delta":31013113},{"NoteNumber":70,"Velocity":45,"Duration":523195,"SoundDuration":523195,"Delta":31268562},{"NoteNumber":67,"Velocity":45,"Duration":523195,"SoundDuration":523195,"Delta":31268562},{"NoteNumber":58,"Velocity":30,"Duration":261597,"SoundDuration":261597,"Delta":31268562},{"NoteNumber":55,"Velocity":27,"Duration":261597,"SoundDuration":261597,"Delta":31530160},{"NoteNumber":68,"Velocity":56,"Duration":1569585,"SoundDuration":1569585,"Delta":31791757},{"NoteNumber":75,"Velocity":56,"Duration":523195,"SoundDuration":523195,"Delta":31791757},{"NoteNumber":51,"Velocity":35,"Duration":261597,"SoundDuration":261597,"Delta":31791757},{"NoteNumber":53,"Velocity":29,"Duration":261597,"SoundDuration":261597,"Delta":32053355},{"NoteNumber":74,"Velocity":46,"Duration":1046390,"SoundDuration":1046390,"Delta":32314952},{"NoteNumber":56,"Velocity":30,"Duration":261597,"SoundDuration":261597,"Delta":32314952},{"NoteNumber":53,"Velocity":29,"Duration":261597,"SoundDuration":261597,"Delta":32576550},{"NoteNumber":51,"Velocity":32,"Duration":261597,"SoundDuration":261597,"Delta":32838147},{"NoteNumber":53,"Velocity":27,"Duration":261597,"SoundDuration":261597,"Delta":33099745},{"NoteNumber":82,"Velocity":53,"Duration":304156,"SoundDuration":304156,"Delta":33361342},{"NoteNumber":56,"Velocity":27,"Duration":253464,"SoundDuration":253464,"Delta":33361342},{"NoteNumber":80,"Velocity":50,"Duration":253464,"SoundDuration":253464,"Delta":33614806},{"NoteNumber":53,"Velocity":27,"Duration":253464,"SoundDuration":253464,"Delta":33614806},{"NoteNumber":79,"Velocity":53,"Duration":304156,"SoundDuration":304156,"Delta":33868270},{"NoteNumber":51,"Velocity":32,"Duration":253464,"SoundDuration":253464,"Delta":33868270},{"NoteNumber":77,"Velocity":50,"Duration":304156,"SoundDuration":304156,"Delta":34121734},{"NoteNumber":53,"Velocity":27,"Duration":253463,"SoundDuration":253463,"Delta":34121734},{"NoteNumber":75,"Velocity":52,"Duration":304156,"SoundDuration":304156,"Delta":34375198},{"NoteNumber":56,"Velocity":27,"Duration":253464,"SoundDuration":253464,"Delta":34375198},{"NoteNumber":74,"Velocity":50,"Duration":253464,"SoundDuration":253464,"Delta":34628662},{"NoteNumber":53,"Velocity":27,"Duration":253464,"SoundDuration":253464,"Delta":34628662},{"NoteNumber":75,"Velocity":53,"Duration":253464,"SoundDuration":253464,"Delta":34882126},{"NoteNumber":55,"Velocity":27,"Duration":1013855,"SoundDuration":1013855,"Delta":34882126},{"NoteNumber":51,"Velocity":27,"Duration":1013855,"SoundDuration":1013855,"Delta":34882126},{"NoteNumber":77,"Velocity":43,"Duration":84488,"SoundDuration":84488,"Delta":35135590},{"NoteNumber":75,"Velocity":43,"Duration":84488,"SoundDuration":84488,"Delta":35220078},{"NoteNumber":74,"Velocity":43,"Duration":84488,"SoundDuration":84488,"Delta":35304566},{"NoteNumber":75,"Velocity":43,"Duration":126731,"SoundDuration":126731,"Delta":35389054},{"NoteNumber":77,"Velocity":44,"Duration":126732,"SoundDuration":126732,"Delta":35515786},{"NoteNumber":79,"Velocity":45,"Duration":126731,"SoundDuration":126731,"Delta":35642518},{"NoteNumber":75,"Velocity":44,"Duration":126731,"SoundDuration":126731,"Delta":35769250},{"NoteNumber":70,"Velocity":43,"Duration":253464,"SoundDuration":253464,"Delta":35895982},{"NoteNumber":70,"Velocity":48,"Duration":544958,"SoundDuration":544958,"Delta":36402910},{"NoteNumber":67,"Velocity":48,"Duration":544958,"SoundDuration":544958,"Delta":36402910},{"NoteNumber":58,"Velocity":32,"Duration":544958,"SoundDuration":544958,"Delta":36402910},{"NoteNumber":55,"Velocity":32,"Duration":544958,"SoundDuration":544958,"Delta":36402910},{"NoteNumber":65,"Velocity":45,"Duration":568720,"SoundDuration":568720,"Delta":36947869},{"NoteNumber":68,"Velocity":45,"Duration":568720,"SoundDuration":568720,"Delta":36947869},{"NoteNumber":56,"Velocity":34,"Duration":568720,"SoundDuration":568720,"Delta":36947869},{"NoteNumber":60,"Velocity":34,"Duration":568720,"SoundDuration":568720,"Delta":36947869},{"NoteNumber":63,"Velocity":49,"Duration":622794,"SoundDuration":622794,"Delta":37516590},{"NoteNumber":67,"Velocity":49,"Duration":622794,"SoundDuration":622794,"Delta":37516590},{"NoteNumber":57,"Velocity":35,"Duration":622794,"SoundDuration":622794,"Delta":37516590},{"NoteNumber":60,"Velocity":35,"Duration":622794,"SoundDuration":622794,"Delta":37516590},{"NoteNumber":63,"Velocity":53,"Duration":1137441,"SoundDuration":1137441,"Delta":38139384},{"NoteNumber":70,"Velocity":53,"Duration":853080,"SoundDuration":853080,"Delta":38139384},{"NoteNumber":58,"Velocity":37,"Duration":1137441,"SoundDuration":1137441,"Delta":38139384},{"NoteNumber":67,"Velocity":39,"Duration":284360,"SoundDuration":284360,"Delta":38992465},{"NoteNumber":62,"Velocity":35,"Duration":1112926,"SoundDuration":1112926,"Delta":39276825},{"NoteNumber":65,"Velocity":35,"Duration":1112926,"SoundDuration":1112926,"Delta":39276825},{"NoteNumber":58,"Velocity":46,"Duration":544206,"SoundDuration":544206,"Delta":39845546},{"NoteNumber":53,"Velocity":46,"Duration":538222,"SoundDuration":538222,"Delta":40389752},{"NoteNumber":50,"Velocity":46,"Duration":533151,"SoundDuration":533151,"Delta":40927975},{"NoteNumber":65,"Velocity":67,"Duration":132931,"SoundDuration":132931,"Delta":41328194},{"NoteNumber":77,"Velocity":72,"Duration":1582278,"SoundDuration":1582278,"Delta":41461126},{"NoteNumber":46,"Velocity":53,"Duration":527425,"SoundDuration":527425,"Delta":41461126},{"NoteNumber":50,"Velocity":45,"Duration":527425,"SoundDuration":527425,"Delta":41988552},{"NoteNumber":53,"Velocity":47,"Duration":527426,"SoundDuration":527426,"Delta":42515978},{"NoteNumber":75,"Velocity":70,"Duration":131856,"SoundDuration":131856,"Delta":43043404},{"NoteNumber":58,"Velocity":45,"Duration":527425,"SoundDuration":527425,"Delta":43043404},{"NoteNumber":74,"Velocity":62,"Duration":131856,"SoundDuration":131856,"Delta":43175261},{"NoteNumber":72,"Velocity":65,"Duration":131856,"SoundDuration":131856,"Delta":43307117},{"NoteNumber":70,"Velocity":63,"Duration":131856,"SoundDuration":131856,"Delta":43438974},{"NoteNumber":69,"Velocity":71,"Duration":527425,"SoundDuration":527425,"Delta":43570830},{"NoteNumber":65,"Velocity":51,"Duration":1054851,"SoundDuration":1054851,"Delta":43570830},{"NoteNumber":63,"Velocity":51,"Duration":527425,"SoundDuration":527425,"Delta":43570830},{"NoteNumber":70,"Velocity":70,"Duration":527425,"SoundDuration":527425,"Delta":44098256},{"NoteNumber":62,"Velocity":47,"Duration":527425,"SoundDuration":527425,"Delta":44098256},{"NoteNumber":72,"Velocity":67,"Duration":554221,"SoundDuration":554221,"Delta":44625682},{"NoteNumber":69,"Velocity":67,"Duration":554221,"SoundDuration":554221,"Delta":44625682},{"NoteNumber":63,"Velocity":51,"Duration":554221,"SoundDuration":554221,"Delta":44625682},{"NoteNumber":60,"Velocity":51,"Duration":554221,"SoundDuration":554221,"Delta":44625682},{"NoteNumber":75,"Velocity":65,"Duration":131856,"SoundDuration":131856,"Delta":45179904},{"NoteNumber":70,"Velocity":65,"Duration":527425,"SoundDuration":527425,"Delta":45179904},{"NoteNumber":62,"Velocity":47,"Duration":527425,"SoundDuration":527425,"Delta":45179904},{"NoteNumber":58,"Velocity":47,"Duration":527425,"SoundDuration":527425,"Delta":45179904},{"NoteNumber":74,"Velocity":62,"Duration":131856,"SoundDuration":131856,"Delta":45311760},{"NoteNumber":72,"Velocity":65,"Duration":131856,"SoundDuration":131856,"Delta":45443617},{"NoteNumber":74,"Velocity":61,"Duration":131856,"SoundDuration":131856,"Delta":45575473},{"NoteNumber":72,"Velocity":65,"Duration":527425,"SoundDuration":527425,"Delta":45707330},{"NoteNumber":75,"Velocity":65,"Duration":527425,"SoundDuration":527425,"Delta":45707330},{"NoteNumber":60,"Velocity":47,"Duration":527425,"SoundDuration":527425,"Delta":45707330},{"NoteNumber":57,"Velocity":47,"Duration":527425,"SoundDuration":527425,"Delta":45707330},{"NoteNumber":65,"Velocity":49,"Duration":544958,"SoundDuration":544958,"Delta":46234756},{"NoteNumber":65,"Velocity":53,"Duration":544958,"SoundDuration":544958,"Delta":46779715},{"NoteNumber":65,"Velocity":50,"Duration":544959,"SoundDuration":544959,"Delta":47324674},{"NoteNumber":75,"Velocity":72,"Duration":1582278,"SoundDuration":1582278,"Delta":47869633},{"NoteNumber":53,"Velocity":45,"Duration":527425,"SoundDuration":527425,"Delta":48397059},{"NoteNumber":57,"Velocity":45,"Duration":527426,"SoundDuration":527426,"Delta":48924485},{"NoteNumber":77,"Velocity":69,"Duration":131856,"SoundDuration":131856,"Delta":49451911},{"NoteNumber":60,"Velocity":45,"Duration":527425,"SoundDuration":527425,"Delta":49451911},{"NoteNumber":75,"Velocity":63,"Duration":131856,"SoundDuration":131856,"Delta":49583767},{"NoteNumber":74,"Velocity":69,"Duration":131856,"SoundDuration":131856,"Delta":49715624},{"NoteNumber":72,"Velocity":63,"Duration":131856,"SoundDuration":131856,"Delta":49847480},{"NoteNumber":70,"Velocity":73,"Duration":527425,"SoundDuration":527425,"Delta":49979337},{"NoteNumber":62,"Velocity":50,"Duration":527425,"SoundDuration":527425,"Delta":49979337},{"NoteNumber":69,"Velocity":70,"Duration":527425,"SoundDuration":527425,"Delta":50506763},{"NoteNumber":72,"Velocity":70,"Duration":527425,"SoundDuration":527425,"Delta":50506763},{"NoteNumber":63,"Velocity":45,"Duration":527425,"SoundDuration":527425,"Delta":50506763},{"NoteNumber":65,"Velocity":45,"Duration":1076976,"SoundDuration":1076976,"Delta":50506763},{"NoteNumber":74,"Velocity":71,"Duration":549551,"SoundDuration":549551,"Delta":51034189},{"NoteNumber":70,"Velocity":71,"Duration":549551,"SoundDuration":549551,"Delta":51034189},{"NoteNumber":62,"Velocity":51,"Duration":549551,"SoundDuration":549551,"Delta":51034189},{"NoteNumber":77,"Velocity":67,"Duration":134000,"SoundDuration":134000,"Delta":51583740},{"NoteNumber":72,"Velocity":67,"Duration":536001,"SoundDuration":536001,"Delta":51583740},{"NoteNumber":60,"Velocity":45,"Duration":536001,"SoundDuration":536001,"Delta":51583740},{"NoteNumber":63,"Velocity":45,"Duration":536001,"SoundDuration":536001,"Delta":51583740},{"NoteNumber":75,"Velocity":67,"Duration":134000,"SoundDuration":134000,"Delta":51717740},{"NoteNumber":74,"Velocity":67,"Duration":134000,"SoundDuration":134000,"Delta":51851740},{"NoteNumber":75,"Velocity":64,"Duration":134000,"SoundDuration":134000,"Delta":51985741},{"NoteNumber":74,"Velocity":72,"Duration":268000,"SoundDuration":268000,"Delta":52119741},{"NoteNumber":77,"Velocity":72,"Duration":268000,"SoundDuration":268000,"Delta":52119741},{"NoteNumber":62,"Velocity":50,"Duration":536001,"SoundDuration":536001,"Delta":52119741},{"NoteNumber":58,"Velocity":50,"Duration":536001,"SoundDuration":536001,"Delta":52119741},{"NoteNumber":46,"Velocity":54,"Duration":490463,"SoundDuration":490463,"Delta":52655743},{"NoteNumber":46,"Velocity":57,"Duration":490463,"SoundDuration":490463,"Delta":53200702},{"NoteNumber":46,"Velocity":54,"Duration":490463,"SoundDuration":490463,"Delta":53745661},{"NoteNumber":80,"Velocity":76,"Duration":1582278,"SoundDuration":1582278,"Delta":54290620},{"NoteNumber":50,"Velocity":54,"Duration":527425,"SoundDuration":527425,"Delta":54818046},{"NoteNumber":53,"Velocity":56,"Duration":527426,"SoundDuration":527426,"Delta":55345472},{"NoteNumber":79,"Velocity":67,"Duration":131856,"SoundDuration":131856,"Delta":55872898},{"NoteNumber":56,"Velocity":52,"Duration":527425,"SoundDuration":527425,"Delta":55872898},{"NoteNumber":77,"Velocity":63,"Duration":131856,"SoundDuration":131856,"Delta":56004754},{"NoteNumber":75,"Velocity":67,"Duration":131856,"SoundDuration":131856,"Delta":56136611},{"NoteNumber":74,"Velocity":64,"Duration":131856,"SoundDuration":131856,"Delta":56268467},{"NoteNumber":75,"Velocity":72,"Duration":558971,"SoundDuration":558971,"Delta":56400324},{"NoteNumber":55,"Velocity":56,"Duration":558971,"SoundDuration":558971,"Delta":56400324},{"NoteNumber":77,"Velocity":74,"Duration":291942,"SoundDuration":291942,"Delta":56959295},{"NoteNumber":50,"Velocity":53,"Duration":291942,"SoundDuration":291942,"Delta":56959295},{"NoteNumber":78,"Velocity":80,"Duration":1608004,"SoundDuration":1608004,"Delta":57543180},{"NoteNumber":58,"Velocity":53,"Duration":536001,"SoundDuration":536001,"Delta":58079182},{"NoteNumber":51,"Velocity":53,"Duration":536001,"SoundDuration":536001,"Delta":58079182},{"NoteNumber":58,"Velocity":53,"Duration":536001,"SoundDuration":536001,"Delta":58615183},{"NoteNumber":51,"Velocity":53,"Duration":536001,"SoundDuration":536001,"Delta":58615183},{"NoteNumber":80,"Velocity":72,"Duration":252100,"SoundDuration":252100,"Delta":59151185},{"NoteNumber":59,"Velocity":55,"Duration":517587,"SoundDuration":517587,"Delta":59151185},{"NoteNumber":51,"Velocity":55,"Duration":517587,"SoundDuration":517587,"Delta":59151185},{"NoteNumber":79,"Velocity":69,"Duration":265486,"SoundDuration":265486,"Delta":59403285},{"NoteNumber":77,"Velocity":70,"Duration":254237,"SoundDuration":254237,"Delta":59668772},{"NoteNumber":51,"Velocity":55,"Duration":519724,"SoundDuration":519724,"Delta":59668772},{"NoteNumber":60,"Velocity":55,"Duration":519724,"SoundDuration":519724,"Delta":59668772},{"NoteNumber":75,"Velocity":67,"Duration":265486,"SoundDuration":265486,"Delta":59923009},{"NoteNumber":74,"Velocity":67,"Duration":254237,"SoundDuration":254237,"Delta":60188496},{"NoteNumber":57,"Velocity":53,"Duration":508474,"SoundDuration":508474,"Delta":60188496},{"NoteNumber":51,"Velocity":53,"Duration":508474,"SoundDuration":508474,"Delta":60188496},{"NoteNumber":72,"Velocity":64,"Duration":254237,"SoundDuration":254237,"Delta":60442733},{"NoteNumber":77,"Velocity":75,"Duration":171644,"SoundDuration":171644,"Delta":60696971},{"NoteNumber":58,"Velocity":54,"Duration":514932,"SoundDuration":514932,"Delta":60696971},{"NoteNumber":50,"Velocity":54,"Duration":514932,"SoundDuration":514932,"Delta":60696971},{"NoteNumber":76,"Velocity":71,"Duration":171644,"SoundDuration":171644,"Delta":60868615},{"NoteNumber":77,"Velocity":73,"Duration":171644,"SoundDuration":171644,"Delta":61040259},{"NoteNumber":79,"Velocity":75,"Duration":171644,"SoundDuration":171644,"Delta":61211904},{"NoteNumber":51,"Velocity":50,"Duration":541465,"SoundDuration":541465,"Delta":61211904},{"NoteNumber":58,"Velocity":50,"Duration":541465,"SoundDuration":541465,"Delta":61211904},{"NoteNumber":67,"Velocity":67,"Duration":171644,"SoundDuration":171644,"Delta":61383548},{"NoteNumber":75,"Velocity":69,"Duration":198176,"SoundDuration":198176,"Delta":61555192},{"NoteNumber":70,"Velocity":75,"Duration":1054851,"SoundDuration":1054851,"Delta":61753369},{"NoteNumber":53,"Velocity":50,"Duration":527425,"SoundDuration":527425,"Delta":61753369},{"NoteNumber":62,"Velocity":50,"Duration":527425,"SoundDuration":527425,"Delta":61753369},{"NoteNumber":62,"Velocity":46,"Duration":527425,"SoundDuration":527425,"Delta":62280795},{"NoteNumber":53,"Velocity":46,"Duration":527425,"SoundDuration":527425,"Delta":62280795},{"NoteNumber":69,"Velocity":62,"Duration":1071984,"SoundDuration":1071984,"Delta":62808221},{"NoteNumber":74,"Velocity":68,"Duration":260869,"SoundDuration":260869,"Delta":62808221},{"NoteNumber":63,"Velocity":42,"Duration":536098,"SoundDuration":536098,"Delta":62808221},{"NoteNumber":53,"Velocity":42,"Duration":536098,"SoundDuration":536098,"Delta":62808221},{"NoteNumber":72,"Velocity":60,"Duration":275229,"SoundDuration":275229,"Delta":63069091},{"NoteNumber":70,"Velocity":66,"Duration":263157,"SoundDuration":263157,"Delta":63344320},{"NoteNumber":63,"Velocity":42,"Duration":535885,"SoundDuration":535885,"Delta":63344320},{"NoteNumber":53,"Velocity":42,"Duration":535885,"SoundDuration":535885,"Delta":63344320},{"NoteNumber":72,"Velocity":59,"Duration":272727,"SoundDuration":272727,"Delta":63607478},{"NoteNumber":70,"Velocity":60,"Duration":1058399,"SoundDuration":1058399,"Delta":63880205},{"NoteNumber":62,"Velocity":45,"Duration":265486,"SoundDuration":265486,"Delta":63880205},{"NoteNumber":58,"Velocity":45,"Duration":265486,"SoundDuration":265486,"Delta":63880205},{"NoteNumber":58,"Velocity":50,"Duration":265486,"SoundDuration":265486,"Delta":64145692},{"NoteNumber":62,"Velocity":54,"Duration":263712,"SoundDuration":263712,"Delta":64411179},{"NoteNumber":65,"Velocity":57,"Duration":263713,"SoundDuration":263713,"Delta":64674892},{"NoteNumber":63,"Velocity":63,"Duration":263712,"SoundDuration":263712,"Delta":64938605},{"NoteNumber":65,"Velocity":54,"Duration":263712,"SoundDuration":263712,"Delta":65202318},{"NoteNumber":70,"Velocity":75,"Duration":523900,"SoundDuration":523900,"Delta":65466031},{"NoteNumber":77,"Velocity":75,"Duration":523900,"SoundDuration":523900,"Delta":65466031},{"NoteNumber":62,"Velocity":63,"Duration":261597,"SoundDuration":261597,"Delta":65466031},{"NoteNumber":65,"Velocity":54,"Duration":262302,"SoundDuration":262302,"Delta":65727628},{"NoteNumber":77,"Velocity":59,"Duration":529576,"SoundDuration":529576,"Delta":65989931},{"NoteNumber":72,"Velocity":80,"Duration":529576,"SoundDuration":529576,"Delta":65989931},{"NoteNumber":60,"Velocity":63,"Duration":263713,"SoundDuration":263713,"Delta":65989931},{"NoteNumber":65,"Velocity":56,"Duration":265863,"SoundDuration":265863,"Delta":66253644},{"NoteNumber":74,"Velocity":76,"Duration":536029,"SoundDuration":536029,"Delta":66519507},{"NoteNumber":77,"Velocity":76,"Duration":536029,"SoundDuration":536029,"Delta":66519507},{"NoteNumber":58,"Velocity":63,"Duration":267288,"SoundDuration":267288,"Delta":66519507},{"NoteNumber":65,"Velocity":55,"Duration":268740,"SoundDuration":268740,"Delta":66786795},{"NoteNumber":77,"Velocity":80,"Duration":653993,"SoundDuration":653993,"Delta":67055536},{"NoteNumber":75,"Velocity":63,"Duration":1569585,"SoundDuration":1569585,"Delta":67055536},{"NoteNumber":57,"Velocity":63,"Duration":261597,"SoundDuration":261597,"Delta":67055536},{"NoteNumber":60,"Velocity":53,"Duration":261597,"SoundDuration":261597,"Delta":67317134},{"NoteNumber":63,"Velocity":56,"Duration":261597,"SoundDuration":261597,"Delta":67578731},{"NoteNumber":79,"Velocity":69,"Duration":130798,"SoundDuration":130798,"Delta":67709530},{"NoteNumber":77,"Velocity":67,"Duration":130798,"SoundDuration":130798,"Delta":67840329},{"NoteNumber":62,"Velocity":53,"Duration":261597,"SoundDuration":261597,"Delta":67840329},{"NoteNumber":76,"Velocity":70,"Duration":130798,"SoundDuration":130798,"Delta":67971127},{"NoteNumber":77,"Velocity":76,"Duration":261597,"SoundDuration":261597,"Delta":68101926},{"NoteNumber":60,"Velocity":61,"Duration":261597,"SoundDuration":261597,"Delta":68101926},{"NoteNumber":58,"Velocity":54,"Duration":261597,"SoundDuration":261597,"Delta":68363524},{"NoteNumber":69,"Velocity":75,"Duration":531726,"SoundDuration":531726,"Delta":68625121},{"NoteNumber":77,"Velocity":75,"Duration":531726,"SoundDuration":531726,"Delta":68625121},{"NoteNumber":57,"Velocity":56,"Duration":265863,"SoundDuration":265863,"Delta":68625121},{"NoteNumber":55,"Velocity":54,"Duration":265863,"SoundDuration":265863,"Delta":68890984},{"NoteNumber":70,"Velocity":76,"Duration":527426,"SoundDuration":527426,"Delta":69156848},{"NoteNumber":79,"Velocity":76,"Duration":527426,"SoundDuration":527426,"Delta":69156848},{"NoteNumber":53,"Velocity":56,"Duration":263712,"SoundDuration":263712,"Delta":69156848},{"NoteNumber":55,"Velocity":54,"Duration":263713,"SoundDuration":263713,"Delta":69420561},{"NoteNumber":72,"Velocity":75,"Duration":523195,"SoundDuration":523195,"Delta":69684274},{"NoteNumber":81,"Velocity":75,"Duration":523195,"SoundDuration":523195,"Delta":69684274},{"NoteNumber":51,"Velocity":56,"Duration":261597,"SoundDuration":261597,"Delta":69684274},{"NoteNumber":53,"Velocity":54,"Duration":261597,"SoundDuration":261597,"Delta":69945871},{"NoteNumber":82,"Velocity":86,"Duration":644349,"SoundDuration":644349,"Delta":70207469},{"NoteNumber":70,"Velocity":86,"Duration":1545482,"SoundDuration":1545482,"Delta":70207469},{"NoteNumber":50,"Velocity":61,"Duration":258149,"SoundDuration":258149,"Delta":70207469},{"NoteNumber":53,"Velocity":52,"Duration":257466,"SoundDuration":257466,"Delta":70465618},{"NoteNumber":58,"Velocity":54,"Duration":257466,"SoundDuration":257466,"Delta":70723085},{"NoteNumber":84,"Velocity":75,"Duration":128733,"SoundDuration":128733,"Delta":70851818},{"NoteNumber":86,"Velocity":76,"Duration":128733,"SoundDuration":128733,"Delta":70980551},{"NoteNumber":53,"Velocity":51,"Duration":257466,"SoundDuration":257466,"Delta":70980551},{"NoteNumber":82,"Velocity":72,"Duration":128733,"SoundDuration":128733,"Delta":71109284},{"NoteNumber":77,"Velocity":78,"Duration":257466,"SoundDuration":257466,"Delta":71238018},{"NoteNumber":62,"Velocity":57,"Duration":257466,"SoundDuration":257466,"Delta":71238018},{"NoteNumber":74,"Velocity":54,"Duration":540442,"SoundDuration":540442,"Delta":71752951},{"NoteNumber":77,"Velocity":54,"Duration":540442,"SoundDuration":540442,"Delta":71752951},{"NoteNumber":58,"Velocity":41,"Duration":540442,"SoundDuration":540442,"Delta":71752951},{"NoteNumber":62,"Velocity":41,"Duration":540442,"SoundDuration":540442,"Delta":71752951},{"NoteNumber":72,"Velocity":54,"Duration":538990,"SoundDuration":538990,"Delta":72293394},{"NoteNumber":75,"Velocity":54,"Duration":538990,"SoundDuration":538990,"Delta":72293394},{"NoteNumber":60,"Velocity":43,"Duration":538990,"SoundDuration":538990,"Delta":72293394},{"NoteNumber":63,"Velocity":43,"Duration":538990,"SoundDuration":538990,"Delta":72293394},{"NoteNumber":70,"Velocity":54,"Duration":583884,"SoundDuration":583884,"Delta":72832384},{"NoteNumber":74,"Velocity":54,"Duration":583884,"SoundDuration":583884,"Delta":72832384},{"NoteNumber":65,"Velocity":39,"Duration":583884,"SoundDuration":583884,"Delta":72832384},{"NoteNumber":62,"Velocity":39,"Duration":583884,"SoundDuration":583884,"Delta":72832384},{"NoteNumber":72,"Velocity":57,"Duration":648788,"SoundDuration":648788,"Delta":73416269},{"NoteNumber":67,"Velocity":46,"Duration":1038061,"SoundDuration":1038061,"Delta":73416269},{"NoteNumber":63,"Velocity":46,"Duration":1038061,"SoundDuration":1038061,"Delta":73416269},{"NoteNumber":74,"Velocity":52,"Duration":129757,"SoundDuration":129757,"Delta":74065058},{"NoteNumber":75,"Velocity":54,"Duration":129757,"SoundDuration":129757,"Delta":74194815},{"NoteNumber":72,"Velocity":52,"Duration":129757,"SoundDuration":129757,"Delta":74324573},{"NoteNumber":79,"Velocity":59,"Duration":259515,"SoundDuration":259515,"Delta":74454331},{"NoteNumber":67,"Velocity":49,"Duration":531726,"SoundDuration":531726,"Delta":74973362},{"NoteNumber":75,"Velocity":49,"Duration":531726,"SoundDuration":531726,"Delta":74973362},{"NoteNumber":60,"Velocity":41,"Duration":531726,"SoundDuration":531726,"Delta":74973362},{"NoteNumber":51,"Velocity":41,"Duration":531726,"SoundDuration":531726,"Delta":74973362},{"NoteNumber":65,"Velocity":52,"Duration":531726,"SoundDuration":531726,"Delta":75505088},{"NoteNumber":70,"Velocity":52,"Duration":531726,"SoundDuration":531726,"Delta":75505088},{"NoteNumber":62,"Velocity":43,"Duration":531726,"SoundDuration":531726,"Delta":75505088},{"NoteNumber":53,"Velocity":43,"Duration":1090697,"SoundDuration":1090697,"Delta":75505088},{"NoteNumber":69,"Velocity":49,"Duration":558971,"SoundDuration":558971,"Delta":76036815},{"NoteNumber":72,"Velocity":49,"Duration":558971,"SoundDuration":558971,"Delta":76036815},{"NoteNumber":63,"Velocity":42,"Duration":558971,"SoundDuration":558971,"Delta":76036815},{"NoteNumber":72,"Velocity":54,"Duration":838457,"SoundDuration":838457,"Delta":76595786},{"NoteNumber":69,"Velocity":54,"Duration":1117942,"SoundDuration":1117942,"Delta":76595786},{"NoteNumber":63,"Velocity":45,"Duration":1117942,"SoundDuration":1117942,"Delta":76595786},{"NoteNumber":58,"Velocity":45,"Duration":1397428,"SoundDuration":1397428,"Delta":76595786},{"NoteNumber":73,"Velocity":50,"Duration":279485,"SoundDuration":279485,"Delta":77434244},{"NoteNumber":70,"Velocity":45,"Duration":558971,"SoundDuration":558971,"Delta":77713729},{"NoteNumber":74,"Velocity":45,"Duration":558971,"SoundDuration":558971,"Delta":77713729},{"NoteNumber":62,"Velocity":35,"Duration":279485,"SoundDuration":279485,"Delta":77713729},{"NoteNumber":58,"Velocity":51,"Duration":279485,"SoundDuration":279485,"Delta":77993215},{"NoteNumber":70,"Velocity":74,"Duration":536001,"SoundDuration":536001,"Delta":78272701},{"NoteNumber":77,"Velocity":74,"Duration":536001,"SoundDuration":536001,"Delta":78272701},{"NoteNumber":62,"Velocity":54,"Duration":268000,"SoundDuration":268000,"Delta":78272701},{"NoteNumber":65,"Velocity":51,"Duration":268000,"SoundDuration":268000,"Delta":78540702},{"NoteNumber":72,"Velocity":80,"Duration":536001,"SoundDuration":536001,"Delta":78808702},{"NoteNumber":77,"Velocity":59,"Duration":536001,"SoundDuration":536001,"Delta":78808702},{"NoteNumber":63,"Velocity":57,"Duration":268000,"SoundDuration":268000,"Delta":78808702},{"NoteNumber":62,"Velocity":54,"Duration":268000,"SoundDuration":268000,"Delta":79076703},{"NoteNumber":77,"Velocity":75,"Duration":536001,"SoundDuration":536001,"Delta":79344704},{"NoteNumber":74,"Velocity":75,"Duration":536001,"SoundDuration":536001,"Delta":79344704},{"NoteNumber":60,"Velocity":55,"Duration":268000,"SoundDuration":268000,"Delta":79344704},{"NoteNumber":58,"Velocity":53,"Duration":268000,"SoundDuration":268000,"Delta":79612705},{"NoteNumber":75,"Velocity":83,"Duration":1567535,"SoundDuration":1567535,"Delta":79880705},{"NoteNumber":77,"Velocity":83,"Duration":653993,"SoundDuration":653993,"Delta":79880705},{"NoteNumber":57,"Velocity":63,"Duration":261597,"SoundDuration":261597,"Delta":79880705},{"NoteNumber":60,"Velocity":54,"Duration":261597,"SoundDuration":261597,"Delta":80142303},{"NoteNumber":63,"Velocity":56,"Duration":261597,"SoundDuration":261597,"Delta":80403900},{"NoteNumber":79,"Velocity":69,"Duration":130798,"SoundDuration":130798,"Delta":80534699},{"NoteNumber":77,"Velocity":71,"Duration":130798,"SoundDuration":130798,"Delta":80665498},{"NoteNumber":62,"Velocity":54,"Duration":261597,"SoundDuration":261597,"Delta":80665498},{"NoteNumber":76,"Velocity":67,"Duration":130798,"SoundDuration":130798,"Delta":80796297},{"NoteNumber":77,"Velocity":77,"Duration":261597,"SoundDuration":261597,"Delta":80927095},{"NoteNumber":60,"Velocity":61,"Duration":261597,"SoundDuration":261597,"Delta":80927095},{"NoteNumber":58,"Velocity":54,"Duration":259548,"SoundDuration":259548,"Delta":81188693},{"NoteNumber":69,"Velocity":76,"Duration":514370,"SoundDuration":514370,"Delta":81448241},{"NoteNumber":77,"Velocity":76,"Duration":514370,"SoundDuration":514370,"Delta":81448241},{"NoteNumber":57,"Velocity":56,"Duration":255449,"SoundDuration":255449,"Delta":81448241},{"NoteNumber":55,"Velocity":54,"Duration":258920,"SoundDuration":258920,"Delta":81703691},{"NoteNumber":79,"Velocity":81,"Duration":538262,"SoundDuration":538262,"Delta":81962611},{"NoteNumber":70,"Velocity":81,"Duration":538262,"SoundDuration":538262,"Delta":81962611},{"NoteNumber":53,"Velocity":56,"Duration":267288,"SoundDuration":267288,"Delta":81962611},{"NoteNumber":55,"Velocity":54,"Duration":270974,"SoundDuration":270974,"Delta":82229900},{"NoteNumber":72,"Velocity":76,"Duration":551912,"SoundDuration":551912,"Delta":82500874},{"NoteNumber":81,"Velocity":76,"Duration":551912,"SoundDuration":551912,"Delta":82500874},{"NoteNumber":51,"Velocity":56,"Duration":274010,"SoundDuration":274010,"Delta":82500874},{"NoteNumber":53,"Velocity":54,"Duration":277902,"SoundDuration":277902,"Delta":82774884},{"NoteNumber":82,"Velocity":86,"Duration":644349,"SoundDuration":644349,"Delta":83052786},{"NoteNumber":70,"Velocity":86,"Duration":1545482,"SoundDuration":1545482,"Delta":83052786},{"NoteNumber":50,"Velocity":61,"Duration":258149,"SoundDuration":258149,"Delta":83052786},{"NoteNumber":53,"Velocity":46,"Duration":257466,"SoundDuration":257466,"Delta":83310936},{"NoteNumber":58,"Velocity":51,"Duration":257466,"SoundDuration":257466,"Delta":83568402},{"NoteNumber":84,"Velocity":67,"Duration":128733,"SoundDuration":128733,"Delta":83697136},{"NoteNumber":86,"Velocity":70,"Duration":128733,"SoundDuration":128733,"Delta":83825869},{"NoteNumber":53,"Velocity":45,"Duration":257466,"SoundDuration":257466,"Delta":83825869},{"NoteNumber":82,"Velocity":66,"Duration":128733,"SoundDuration":128733,"Delta":83954602},{"NoteNumber":77,"Velocity":63,"Duration":257466,"SoundDuration":257466,"Delta":84083335},{"NoteNumber":62,"Velocity":50,"Duration":257466,"SoundDuration":257466,"Delta":84083335},{"NoteNumber":74,"Velocity":54,"Duration":540442,"SoundDuration":540442,"Delta":84598268},{"NoteNumber":77,"Velocity":54,"Duration":540442,"SoundDuration":540442,"Delta":84598268},{"NoteNumber":58,"Velocity":41,"Duration":540442,"SoundDuration":540442,"Delta":84598268},{"NoteNumber":62,"Velocity":41,"Duration":540442,"SoundDuration":540442,"Delta":84598268},{"NoteNumber":72,"Velocity":54,"Duration":538990,"SoundDuration":538990,"Delta":85138711},{"NoteNumber":75,"Velocity":54,"Duration":538990,"SoundDuration":538990,"Delta":85138711},{"NoteNumber":60,"Velocity":43,"Duration":538990,"SoundDuration":538990,"Delta":85138711},{"NoteNumber":63,"Velocity":43,"Duration":538990,"SoundDuration":538990,"Delta":85138711},{"NoteNumber":70,"Velocity":54,"Duration":583885,"SoundDuration":583885,"Delta":85677702},{"NoteNumber":74,"Velocity":54,"Duration":583885,"SoundDuration":583885,"Delta":85677702},{"NoteNumber":65,"Velocity":42,"Duration":583885,"SoundDuration":583885,"Delta":85677702},{"NoteNumber":62,"Velocity":42,"Duration":583885,"SoundDuration":583885,"Delta":85677702},{"NoteNumber":71,"Velocity":45,"Duration":145539,"SoundDuration":145539,"Delta":86261587},{"NoteNumber":63,"Velocity":43,"Duration":1128048,"SoundDuration":1128048,"Delta":86261587},{"NoteNumber":67,"Velocity":43,"Duration":1128048,"SoundDuration":1128048,"Delta":86261587},{"NoteNumber":72,"Velocity":45,"Duration":143845,"SoundDuration":143845,"Delta":86407126},{"NoteNumber":74,"Velocity":46,"Duration":143013,"SoundDuration":143013,"Delta":86550972},{"NoteNumber":72,"Velocity":45,"Duration":141360,"SoundDuration":141360,"Delta":86693986},{"NoteNumber":75,"Velocity":50,"Duration":140548,"SoundDuration":140548,"Delta":86835347},{"NoteNumber":74,"Velocity":47,"Duration":138951,"SoundDuration":138951,"Delta":86975895},{"NoteNumber":77,"Velocity":52,"Duration":138166,"SoundDuration":138166,"Delta":87114846},{"NoteNumber":75,"Velocity":50,"Duration":136622,"SoundDuration":136622,"Delta":87253012},{"NoteNumber":79,"Velocity":60,"Duration":1054851,"SoundDuration":1054851,"Delta":87389635},{"NoteNumber":77,"Velocity":54,"Duration":527426,"SoundDuration":527426,"Delta":88444487},{"NoteNumber":57,"Velocity":43,"Duration":527426,"SoundDuration":527426,"Delta":88444487},{"NoteNumber":63,"Velocity":43,"Duration":1101149,"SoundDuration":1101149,"Delta":88444487},{"NoteNumber":53,"Velocity":43,"Duration":1101149,"SoundDuration":1101149,"Delta":88444487},{"NoteNumber":60,"Velocity":43,"Duration":573723,"SoundDuration":573723,"Delta":88971913},{"NoteNumber":69,"Velocity":50,"Duration":143430,"SoundDuration":143430,"Delta":89402205},{"NoteNumber":70,"Velocity":51,"Duration":1021798,"SoundDuration":1021798,"Delta":89545636},{"NoteNumber":58,"Velocity":43,"Duration":255449,"SoundDuration":255449,"Delta":89545636},{"NoteNumber":62,"Velocity":39,"Duration":255449,"SoundDuration":255449,"Delta":89801086},{"NoteNumber":65,"Velocity":40,"Duration":255449,"SoundDuration":255449,"Delta":90056535},{"NoteNumber":62,"Velocity":42,"Duration":255449,"SoundDuration":255449,"Delta":90311985},{"NoteNumber":58,"Velocity":46,"Duration":255449,"SoundDuration":255449,"Delta":90567434},{"NoteNumber":62,"Velocity":44,"Duration":255449,"SoundDuration":255449,"Delta":90822884},{"NoteNumber":80,"Velocity":66,"Duration":512243,"SoundDuration":512243,"Delta":91078333},{"NoteNumber":65,"Velocity":45,"Duration":255449,"SoundDuration":255449,"Delta":91078333},{"NoteNumber":62,"Velocity":46,"Duration":256794,"SoundDuration":256794,"Delta":91333783},{"NoteNumber":79,"Velocity":70,"Duration":518359,"SoundDuration":518359,"Delta":91590577},{"NoteNumber":63,"Velocity":53,"Duration":258149,"SoundDuration":258149,"Delta":91590577},{"NoteNumber":60,"Velocity":50,"Duration":260209,"SoundDuration":260209,"Delta":91848726},{"NoteNumber":81,"Velocity":73,"Duration":525310,"SoundDuration":525310,"Delta":92108936},{"NoteNumber":65,"Velocity":51,"Duration":261597,"SoundDuration":261597,"Delta":92108936},{"NoteNumber":63,"Velocity":53,"Duration":263712,"SoundDuration":263712,"Delta":92370533},{"NoteNumber":84,"Velocity":76,"Duration":531726,"SoundDuration":531726,"Delta":92634246},{"NoteNumber":62,"Velocity":56,"Duration":265863,"SoundDuration":265863,"Delta":92634246},{"NoteNumber":65,"Velocity":51,"Duration":265863,"SoundDuration":265863,"Delta":92900110},{"NoteNumber":82,"Velocity":71,"Duration":531726,"SoundDuration":531726,"Delta":93165973},{"NoteNumber":62,"Velocity":53,"Duration":265863,"SoundDuration":265863,"Delta":93165973},{"NoteNumber":60,"Velocity":50,"Duration":265863,"SoundDuration":265863,"Delta":93431836},{"NoteNumber":58,"Velocity":64,"Duration":265863,"SoundDuration":265863,"Delta":93697699},{"NoteNumber":56,"Velocity":56,"Duration":265863,"SoundDuration":265863,"Delta":93963563},{"NoteNumber":68,"Velocity":69,"Duration":545737,"SoundDuration":545737,"Delta":94229426},{"NoteNumber":53,"Velocity":59,"Duration":271726,"SoundDuration":271726,"Delta":94229426},{"NoteNumber":50,"Velocity":56,"Duration":274010,"SoundDuration":274010,"Delta":94501153},{"NoteNumber":67,"Velocity":69,"Duration":557401,"SoundDuration":557401,"Delta":94775163},{"NoteNumber":51,"Velocity":64,"Duration":277110,"SoundDuration":277110,"Delta":94775163},{"NoteNumber":48,"Velocity":59,"Duration":280291,"SoundDuration":280291,"Delta":95052274},{"NoteNumber":63,"Velocity":63,"Duration":654021,"SoundDuration":654021,"Delta":95332565},{"NoteNumber":69,"Velocity":63,"Duration":654021,"SoundDuration":654021,"Delta":95332565},{"NoteNumber":53,"Velocity":64,"Duration":327010,"SoundDuration":327010,"Delta":95332565},{"NoteNumber":41,"Velocity":54,"Duration":327010,"SoundDuration":327010,"Delta":95659576},{"NoteNumber":72,"Velocity":54,"Duration":1362397,"SoundDuration":1362397,"Delta":95986587},{"NoteNumber":63,"Velocity":54,"Duration":1362397,"SoundDuration":1362397,"Delta":95986587},{"NoteNumber":46,"Velocity":46,"Duration":2043597,"SoundDuration":2043597,"Delta":95986587},{"NoteNumber":70,"Velocity":42,"Duration":681199,"SoundDuration":681199,"Delta":97348985},{"NoteNumber":62,"Velocity":42,"Duration":681199,"SoundDuration":681199,"Delta":97348985},{"NoteNumber":62,"Velocity":47,"Duration":622794,"SoundDuration":622794,"Delta":98030184},{"NoteNumber":65,"Velocity":47,"Duration":622794,"SoundDuration":622794,"Delta":98030184},{"NoteNumber":56,"Velocity":42,"Duration":622794,"SoundDuration":622794,"Delta":98030184},{"NoteNumber":63,"Velocity":52,"Duration":583884,"SoundDuration":583884,"Delta":98652978},{"NoteNumber":67,"Velocity":52,"Duration":583884,"SoundDuration":583884,"Delta":98652978},{"NoteNumber":55,"Velocity":45,"Duration":583884,"SoundDuration":583884,"Delta":98652978},{"NoteNumber":65,"Velocity":55,"Duration":634920,"SoundDuration":634920,"Delta":99236863},{"NoteNumber":68,"Velocity":55,"Duration":634920,"SoundDuration":634920,"Delta":99236863},{"NoteNumber":53,"Velocity":49,"Duration":634920,"SoundDuration":634920,"Delta":99236863},{"NoteNumber":70,"Velocity":59,"Duration":1054851,"SoundDuration":1054851,"Delta":99873981},{"NoteNumber":67,"Velocity":59,"Duration":1054851,"SoundDuration":1054851,"Delta":99873981},{"NoteNumber":51,"Velocity":51,"Duration":2109586,"SoundDuration":2109586,"Delta":99873981},{"NoteNumber":68,"Velocity":55,"Duration":571378,"SoundDuration":571378,"Delta":100926636},{"NoteNumber":65,"Velocity":55,"Duration":571378,"SoundDuration":571378,"Delta":100926636},{"NoteNumber":63,"Velocity":53,"Duration":569030,"SoundDuration":569030,"Delta":101454062},{"NoteNumber":67,"Velocity":53,"Duration":569030,"SoundDuration":569030,"Delta":101454062},{"NoteNumber":68,"Velocity":54,"Duration":544664,"SoundDuration":544664,"Delta":101981488},{"NoteNumber":72,"Velocity":54,"Duration":544664,"SoundDuration":544664,"Delta":101981488},{"NoteNumber":67,"Velocity":52,"Duration":499545,"SoundDuration":499545,"Delta":102480739},{"NoteNumber":70,"Velocity":52,"Duration":499545,"SoundDuration":499545,"Delta":102480739},{"NoteNumber":70,"Velocity":59,"Duration":1013856,"SoundDuration":1013856,"Delta":103025698},{"NoteNumber":67,"Velocity":59,"Duration":1013856,"SoundDuration":1013856,"Delta":103025698},{"NoteNumber":51,"Velocity":50,"Duration":1013856,"SoundDuration":1013856,"Delta":103025698},{"NoteNumber":65,"Velocity":53,"Duration":998502,"SoundDuration":998502,"Delta":104039554},{"NoteNumber":68,"Velocity":53,"Duration":998502,"SoundDuration":998502,"Delta":104039554},{"NoteNumber":53,"Velocity":46,"Duration":998502,"SoundDuration":998502,"Delta":104039554},{"NoteNumber":63,"Velocity":51,"Duration":1046390,"SoundDuration":1046390,"Delta":105038056},{"NoteNumber":67,"Velocity":51,"Duration":1046390,"SoundDuration":1046390,"Delta":105038056},{"NoteNumber":55,"Velocity":45,"Duration":1046390,"SoundDuration":1046390,"Delta":105038056},{"NoteNumber":64,"Velocity":65,"Duration":1029865,"SoundDuration":1029865,"Delta":106084446},{"NoteNumber":58,"Velocity":55,"Duration":1029865,"SoundDuration":1029865,"Delta":106084446},{"NoteNumber":61,"Velocity":55,"Duration":1029865,"SoundDuration":1029865,"Delta":106084446},{"NoteNumber":65,"Velocity":55,"Duration":527426,"SoundDuration":527426,"Delta":107114312},{"NoteNumber":60,"Velocity":51,"Duration":1038325,"SoundDuration":1038325,"Delta":107114312},{"NoteNumber":56,"Velocity":51,"Duration":1038325,"SoundDuration":1038325,"Delta":107114312},{"NoteNumber":72,"Velocity":55,"Duration":510898,"SoundDuration":510898,"Delta":107641738},{"NoteNumber":70,"Velocity":53,"Duration":255449,"SoundDuration":255449,"Delta":108152637},{"NoteNumber":68,"Velocity":51,"Duration":255449,"SoundDuration":255449,"Delta":108408086},{"NoteNumber":67,"Velocity":53,"Duration":255449,"SoundDuration":255449,"Delta":108663536},{"NoteNumber":65,"Velocity":52,"Duration":255449,"SoundDuration":255449,"Delta":108918985},{"NoteNumber":55,"Velocity":59,"Duration":1072002,"SoundDuration":1072002,"Delta":109174435},{"NoteNumber":63,"Velocity":59,"Duration":1072002,"SoundDuration":1072002,"Delta":109174435},{"NoteNumber":45,"Velocity":47,"Duration":268000,"SoundDuration":268000,"Delta":109174435},{"NoteNumber":46,"Velocity":50,"Duration":268000,"SoundDuration":268000,"Delta":109442436},{"NoteNumber":48,"Velocity":53,"Duration":268000,"SoundDuration":268000,"Delta":109710436},{"NoteNumber":46,"Velocity":51,"Duration":245667,"SoundDuration":245667,"Delta":109978437},{"NoteNumber":53,"Velocity":53,"Duration":263712,"SoundDuration":263712,"Delta":110246438},{"NoteNumber":62,"Velocity":53,"Duration":263712,"SoundDuration":263712,"Delta":110246438},{"NoteNumber":46,"Velocity":49,"Duration":1052031,"SoundDuration":1052031,"Delta":110246438},{"NoteNumber":58,"Velocity":47,"Duration":131856,"SoundDuration":131856,"Delta":110642007},{"NoteNumber":62,"Velocity":51,"Duration":131856,"SoundDuration":131856,"Delta":110773864},{"NoteNumber":60,"Velocity":49,"Duration":131151,"SoundDuration":131151,"Delta":110905720},{"NoteNumber":63,"Velocity":52,"Duration":130798,"SoundDuration":130798,"Delta":111036872},{"NoteNumber":62,"Velocity":51,"Duration":130798,"SoundDuration":130798,"Delta":111167670},{"NoteNumber":65,"Velocity":53,"Duration":130798,"SoundDuration":130798,"Delta":111298469},{"NoteNumber":63,"Velocity":51,"Duration":130798,"SoundDuration":130798,"Delta":111429268},{"NoteNumber":67,"Velocity":54,"Duration":130451,"SoundDuration":130451,"Delta":111560067},{"NoteNumber":65,"Velocity":54,"Duration":129757,"SoundDuration":129757,"Delta":111690518},{"NoteNumber":68,"Velocity":57,"Duration":129757,"SoundDuration":129757,"Delta":111820276},{"NoteNumber":67,"Velocity":54,"Duration":129757,"SoundDuration":129757,"Delta":111950034},{"NoteNumber":70,"Velocity":59,"Duration":129757,"SoundDuration":129757,"Delta":112079792},{"NoteNumber":68,"Velocity":56,"Duration":129074,"SoundDuration":129074,"Delta":112209549},{"NoteNumber":72,"Velocity":60,"Duration":131856,"SoundDuration":131856,"Delta":112338624},{"NoteNumber":39,"Velocity":53,"Duration":1054851,"SoundDuration":1054851,"Delta":112338624},{"NoteNumber":51,"Velocity":53,"Duration":1054851,"SoundDuration":1054851,"Delta":112338624},{"NoteNumber":67,"Velocity":61,"Duration":922995,"SoundDuration":922995,"Delta":112470481},{"NoteNumber":70,"Velocity":61,"Duration":659282,"SoundDuration":659282,"Delta":112470481},{"NoteNumber":72,"Velocity":53,"Duration":131856,"SoundDuration":131856,"Delta":113129763},{"NoteNumber":70,"Velocity":50,"Duration":131856,"SoundDuration":131856,"Delta":113261620},{"NoteNumber":68,"Velocity":53,"Duration":265863,"SoundDuration":265863,"Delta":113393476},{"NoteNumber":67,"Velocity":51,"Duration":265863,"SoundDuration":265863,"Delta":113659339},{"NoteNumber":65,"Velocity":53,"Duration":265863,"SoundDuration":265863,"Delta":113925203},{"NoteNumber":63,"Velocity":52,"Duration":274775,"SoundDuration":274775,"Delta":114191066},{"NoteNumber":79,"Velocity":62,"Duration":263712,"SoundDuration":263712,"Delta":114465841},{"NoteNumber":51,"Velocity":49,"Duration":1054851,"SoundDuration":1054851,"Delta":114465841},{"NoteNumber":60,"Velocity":49,"Duration":1054851,"SoundDuration":1054851,"Delta":114465841},{"NoteNumber":74,"Velocity":54,"Duration":263713,"SoundDuration":263713,"Delta":114729554},{"NoteNumber":75,"Velocity":58,"Duration":263712,"SoundDuration":263712,"Delta":114993267},{"NoteNumber":72,"Velocity":52,"Duration":263712,"SoundDuration":263712,"Delta":115256980},{"NoteNumber":70,"Velocity":56,"Duration":1072002,"SoundDuration":1072002,"Delta":115520693},{"NoteNumber":60,"Velocity":53,"Duration":1072002,"SoundDuration":1072002,"Delta":115520693},{"NoteNumber":53,"Velocity":53,"Duration":1072002,"SoundDuration":1072002,"Delta":115520693},{"NoteNumber":68,"Velocity":50,"Duration":114275,"SoundDuration":114275,"Delta":116592696},{"NoteNumber":58,"Velocity":50,"Duration":1054851,"SoundDuration":1054851,"Delta":116592696},{"NoteNumber":62,"Velocity":50,"Duration":1054851,"SoundDuration":1054851,"Delta":116592696},{"NoteNumber":70,"Velocity":48,"Duration":112078,"SoundDuration":112078,"Delta":116706972},{"NoteNumber":68,"Velocity":50,"Duration":114275,"SoundDuration":114275,"Delta":116819050},{"NoteNumber":70,"Velocity":48,"Duration":114275,"SoundDuration":114275,"Delta":116933326},{"NoteNumber":68,"Velocity":50,"Duration":112078,"SoundDuration":112078,"Delta":117047601},{"NoteNumber":70,"Velocity":49,"Duration":114275,"SoundDuration":114275,"Delta":117159679},{"NoteNumber":68,"Velocity":49,"Duration":112078,"SoundDuration":112078,"Delta":117273955},{"NoteNumber":67,"Velocity":57,"Duration":131856,"SoundDuration":131856,"Delta":117383835},{"NoteNumber":68,"Velocity":55,"Duration":131856,"SoundDuration":131856,"Delta":117515692},{"NoteNumber":67,"Velocity":60,"Duration":138555,"SoundDuration":138555,"Delta":117647548},{"NoteNumber":60,"Velocity":49,"Duration":542974,"SoundDuration":542974,"Delta":117647548},{"NoteNumber":63,"Velocity":49,"Duration":542974,"SoundDuration":542974,"Delta":117647548},{"NoteNumber":75,"Velocity":65,"Duration":265863,"SoundDuration":265863,"Delta":117924659},{"NoteNumber":74,"Velocity":62,"Duration":265863,"SoundDuration":265863,"Delta":118190522},{"NoteNumber":73,"Velocity":59,"Duration":265863,"SoundDuration":265863,"Delta":118456386},{"NoteNumber":71,"Velocity":57,"Duration":314399,"SoundDuration":314399,"Delta":118722249},{"NoteNumber":44,"Velocity":54,"Duration":1255637,"SoundDuration":1255637,"Delta":118722249},{"NoteNumber":56,"Velocity":54,"Duration":1255637,"SoundDuration":1255637,"Delta":118722249},{"NoteNumber":74,"Velocity":53,"Duration":78599,"SoundDuration":78599,"Delta":118958049},{"NoteNumber":72,"Velocity":61,"Duration":283072,"SoundDuration":283072,"Delta":119036648},{"NoteNumber":70,"Velocity":53,"Duration":70768,"SoundDuration":70768,"Delta":119248953},{"NoteNumber":68,"Velocity":57,"Duration":283072,"SoundDuration":283072,"Delta":119319721},{"NoteNumber":67,"Velocity":47,"Duration":70768,"SoundDuration":70768,"Delta":119532025},{"NoteNumber":65,"Velocity":55,"Duration":375093,"SoundDuration":375093,"Delta":119602793},{"NoteNumber":63,"Velocity":51,"Duration":1766094,"SoundDuration":1766094,"Delta":119977887},{"NoteNumber":46,"Velocity":50,"Duration":2377341,"SoundDuration":2377341,"Delta":119977887},{"NoteNumber":55,"Velocity":50,"Duration":1189060,"SoundDuration":1189060,"Delta":119977887},{"NoteNumber":56,"Velocity":40,"Duration":1188281,"SoundDuration":1188281,"Delta":121166948},{"NoteNumber":67,"Velocity":50,"Duration":305623,"SoundDuration":305623,"Delta":121743982},{"NoteNumber":62,"Velocity":50,"Duration":611247,"SoundDuration":611247,"Delta":121743982},{"NoteNumber":65,"Velocity":47,"Duration":305623,"SoundDuration":305623,"Delta":122049605},{"NoteNumber":63,"Velocity":46,"Duration":1054851,"SoundDuration":1054851,"Delta":122355229},{"NoteNumber":51,"Velocity":32,"Duration":263712,"SoundDuration":263712,"Delta":122355229},{"NoteNumber":55,"Velocity":32,"Duration":263713,"SoundDuration":263713,"Delta":122618942},{"NoteNumber":58,"Velocity":30,"Duration":263712,"SoundDuration":263712,"Delta":122882655},{"NoteNumber":55,"Velocity":27,"Duration":263712,"SoundDuration":263712,"Delta":123146368},{"NoteNumber":51,"Velocity":33,"Duration":263713,"SoundDuration":263713,"Delta":123410081},{"NoteNumber":55,"Velocity":29,"Duration":263712,"SoundDuration":263712,"Delta":123673794},{"NoteNumber":67,"Velocity":49,"Duration":510898,"SoundDuration":510898,"Delta":123937507},{"NoteNumber":70,"Velocity":49,"Duration":510898,"SoundDuration":510898,"Delta":123937507},{"NoteNumber":58,"Velocity":31,"Duration":255449,"SoundDuration":255449,"Delta":123937507},{"NoteNumber":55,"Velocity":29,"Duration":255449,"SoundDuration":255449,"Delta":124192956},{"NoteNumber":67,"Velocity":52,"Duration":510899,"SoundDuration":510899,"Delta":124448406},{"NoteNumber":70,"Velocity":52,"Duration":510899,"SoundDuration":510899,"Delta":124448406},{"NoteNumber":51,"Velocity":33,"Duration":255449,"SoundDuration":255449,"Delta":124448406},{"NoteNumber":55,"Velocity":29,"Duration":255449,"SoundDuration":255449,"Delta":124703855},{"NoteNumber":67,"Velocity":46,"Duration":540442,"SoundDuration":540442,"Delta":124959305},{"NoteNumber":70,"Velocity":46,"Duration":540442,"SoundDuration":540442,"Delta":124959305},{"NoteNumber":58,"Velocity":31,"Duration":270221,"SoundDuration":270221,"Delta":124959305},{"NoteNumber":55,"Velocity":29,"Duration":270221,"SoundDuration":270221,"Delta":125229526},{"NoteNumber":68,"Velocity":57,"Duration":1582278,"SoundDuration":1582278,"Delta":125499748},{"NoteNumber":75,"Velocity":57,"Duration":527426,"SoundDuration":527426,"Delta":125499748},{"NoteNumber":51,"Velocity":36,"Duration":263712,"SoundDuration":263712,"Delta":125499748},{"NoteNumber":53,"Velocity":27,"Duration":263713,"SoundDuration":263713,"Delta":125763461},{"NoteNumber":74,"Velocity":50,"Duration":1054851,"SoundDuration":1054851,"Delta":126027174},{"NoteNumber":56,"Velocity":30,"Duration":263712,"SoundDuration":263712,"Delta":126027174},{"NoteNumber":53,"Velocity":27,"Duration":263712,"SoundDuration":263712,"Delta":126290887},{"NoteNumber":51,"Velocity":32,"Duration":263713,"SoundDuration":263713,"Delta":126554600},{"NoteNumber":53,"Velocity":27,"Duration":263712,"SoundDuration":263712,"Delta":126818313},{"NoteNumber":82,"Velocity":54,"Duration":306539,"SoundDuration":306539,"Delta":127082026},{"NoteNumber":56,"Velocity":30,"Duration":255449,"SoundDuration":255449,"Delta":127082026},{"NoteNumber":80,"Velocity":51,"Duration":255449,"SoundDuration":255449,"Delta":127337475},{"NoteNumber":53,"Velocity":27,"Duration":255449,"SoundDuration":255449,"Delta":127337475},{"NoteNumber":79,"Velocity":54,"Duration":306539,"SoundDuration":306539,"Delta":127592925},{"NoteNumber":51,"Velocity":32,"Duration":255449,"SoundDuration":255449,"Delta":127592925},{"NoteNumber":77,"Velocity":52,"Duration":306539,"SoundDuration":306539,"Delta":127848374},{"NoteNumber":53,"Velocity":27,"Duration":255449,"SoundDuration":255449,"Delta":127848374},{"NoteNumber":75,"Velocity":52,"Duration":306539,"SoundDuration":306539,"Delta":128103824},{"NoteNumber":56,"Velocity":30,"Duration":255449,"SoundDuration":255449,"Delta":128103824},{"NoteNumber":74,"Velocity":49,"Duration":255449,"SoundDuration":255449,"Delta":128359273},{"NoteNumber":53,"Velocity":27,"Duration":255449,"SoundDuration":255449,"Delta":128359273},{"NoteNumber":77,"Velocity":54,"Duration":87199,"SoundDuration":87199,"Delta":128614723},{"NoteNumber":51,"Velocity":33,"Duration":261597,"SoundDuration":261597,"Delta":128614723},{"NoteNumber":75,"Velocity":52,"Duration":697593,"SoundDuration":697593,"Delta":128701922},{"NoteNumber":55,"Velocity":27,"Duration":261597,"SoundDuration":261597,"Delta":128876320},{"NoteNumber":58,"Velocity":30,"Duration":261597,"SoundDuration":261597,"Delta":129137918},{"NoteNumber":74,"Velocity":45,"Duration":130798,"SoundDuration":130798,"Delta":129399515},{"NoteNumber":55,"Velocity":27,"Duration":261597,"SoundDuration":261597,"Delta":129399515},{"NoteNumber":72,"Velocity":44,"Duration":130798,"SoundDuration":130798,"Delta":129530314},{"NoteNumber":70,"Velocity":45,"Duration":523194,"SoundDuration":523194,"Delta":129661113},{"NoteNumber":51,"Velocity":29,"Duration":261597,"SoundDuration":261597,"Delta":129661113},{"NoteNumber":55,"Velocity":27,"Duration":261597,"SoundDuration":261597,"Delta":129922710},{"NoteNumber":67,"Velocity":45,"Duration":510898,"SoundDuration":510898,"Delta":130184308},{"NoteNumber":70,"Velocity":45,"Duration":510898,"SoundDuration":510898,"Delta":130184308},{"NoteNumber":58,"Velocity":30,"Duration":255449,"SoundDuration":255449,"Delta":130184308},{"NoteNumber":55,"Velocity":27,"Duration":255449,"SoundDuration":255449,"Delta":130439757},{"NoteNumber":67,"Velocity":50,"Duration":510898,"SoundDuration":510898,"Delta":130695207},{"NoteNumber":70,"Velocity":50,"Duration":510898,"SoundDuration":510898,"Delta":130695207},{"NoteNumber":51,"Velocity":29,"Duration":255449,"SoundDuration":255449,"Delta":130695207},{"NoteNumber":55,"Velocity":27,"Duration":255449,"SoundDuration":255449,"Delta":130950656},{"NoteNumber":70,"Velocity":45,"Duration":523194,"SoundDuration":523194,"Delta":131206106},{"NoteNumber":67,"Velocity":45,"Duration":523194,"SoundDuration":523194,"Delta":131206106},{"NoteNumber":58,"Velocity":30,"Duration":261597,"SoundDuration":261597,"Delta":131206106},{"NoteNumber":55,"Velocity":27,"Duration":261597,"SoundDuration":261597,"Delta":131467703},{"NoteNumber":68,"Velocity":56,"Duration":1569584,"SoundDuration":1569584,"Delta":131729301},{"NoteNumber":75,"Velocity":56,"Duration":523194,"SoundDuration":523194,"Delta":131729301},{"NoteNumber":51,"Velocity":35,"Duration":261597,"SoundDuration":261597,"Delta":131729301},{"NoteNumber":53,"Velocity":29,"Duration":261597,"SoundDuration":261597,"Delta":131990898},{"NoteNumber":74,"Velocity":46,"Duration":1046390,"SoundDuration":1046390,"Delta":132252496},{"NoteNumber":56,"Velocity":30,"Duration":261597,"SoundDuration":261597,"Delta":132252496},{"NoteNumber":53,"Velocity":29,"Duration":261597,"SoundDuration":261597,"Delta":132514093},{"NoteNumber":51,"Velocity":32,"Duration":261597,"SoundDuration":261597,"Delta":132775691},{"NoteNumber":53,"Velocity":27,"Duration":261597,"SoundDuration":261597,"Delta":133037288},{"NoteNumber":82,"Velocity":53,"Duration":304156,"SoundDuration":304156,"Delta":133298886},{"NoteNumber":56,"Velocity":27,"Duration":253464,"SoundDuration":253464,"Delta":133298886},{"NoteNumber":80,"Velocity":50,"Duration":253463,"SoundDuration":253463,"Delta":133552350},{"NoteNumber":53,"Velocity":27,"Duration":253463,"SoundDuration":253463,"Delta":133552350},{"NoteNumber":79,"Velocity":53,"Duration":304156,"SoundDuration":304156,"Delta":133805814},{"NoteNumber":51,"Velocity":32,"Duration":253464,"SoundDuration":253464,"Delta":133805814},{"NoteNumber":77,"Velocity":50,"Duration":304156,"SoundDuration":304156,"Delta":134059278},{"NoteNumber":53,"Velocity":27,"Duration":253464,"SoundDuration":253464,"Delta":134059278},{"NoteNumber":75,"Velocity":52,"Duration":304156,"SoundDuration":304156,"Delta":134312742},{"NoteNumber":56,"Velocity":27,"Duration":253464,"SoundDuration":253464,"Delta":134312742},{"NoteNumber":74,"Velocity":50,"Duration":253463,"SoundDuration":253463,"Delta":134566206},{"NoteNumber":53,"Velocity":27,"Duration":253463,"SoundDuration":253463,"Delta":134566206},{"NoteNumber":75,"Velocity":53,"Duration":253464,"SoundDuration":253464,"Delta":134819670},{"NoteNumber":55,"Velocity":27,"Duration":1013856,"SoundDuration":1013856,"Delta":134819670},{"NoteNumber":51,"Velocity":27,"Duration":1013856,"SoundDuration":1013856,"Delta":134819670},{"NoteNumber":77,"Velocity":43,"Duration":84487,"SoundDuration":84487,"Delta":135073134},{"NoteNumber":75,"Velocity":43,"Duration":84487,"SoundDuration":84487,"Delta":135157622},{"NoteNumber":74,"Velocity":43,"Duration":84488,"SoundDuration":84488,"Delta":135242110},{"NoteNumber":75,"Velocity":43,"Duration":126732,"SoundDuration":126732,"Delta":135326598},{"NoteNumber":77,"Velocity":44,"Duration":126731,"SoundDuration":126731,"Delta":135453330},{"NoteNumber":79,"Velocity":45,"Duration":126732,"SoundDuration":126732,"Delta":135580062},{"NoteNumber":75,"Velocity":44,"Duration":126732,"SoundDuration":126732,"Delta":135706794},{"NoteNumber":70,"Velocity":43,"Duration":253464,"SoundDuration":253464,"Delta":135833526},{"NoteNumber":70,"Velocity":48,"Duration":526408,"SoundDuration":526408,"Delta":136340454},{"NoteNumber":67,"Velocity":48,"Duration":526408,"SoundDuration":526408,"Delta":136340454},{"NoteNumber":58,"Velocity":32,"Duration":526408,"SoundDuration":526408,"Delta":136340454},{"NoteNumber":55,"Velocity":32,"Duration":526408,"SoundDuration":526408,"Delta":136340454},{"NoteNumber":65,"Velocity":45,"Duration":588350,"SoundDuration":588350,"Delta":136866862},{"NoteNumber":68,"Velocity":45,"Duration":588350,"SoundDuration":588350,"Delta":136866862},{"NoteNumber":56,"Velocity":34,"Duration":588350,"SoundDuration":588350,"Delta":136866862},{"NoteNumber":60,"Velocity":34,"Duration":588350,"SoundDuration":588350,"Delta":136866862},{"NoteNumber":63,"Velocity":49,"Duration":622794,"SoundDuration":622794,"Delta":137455212},{"NoteNumber":67,"Velocity":49,"Duration":622794,"SoundDuration":622794,"Delta":137455212},{"NoteNumber":57,"Velocity":35,"Duration":622794,"SoundDuration":622794,"Delta":137455212},{"NoteNumber":60,"Velocity":35,"Duration":622794,"SoundDuration":622794,"Delta":137455212},{"NoteNumber":63,"Velocity":53,"Duration":1137440,"SoundDuration":1137440,"Delta":138078007},{"NoteNumber":70,"Velocity":53,"Duration":853080,"SoundDuration":853080,"Delta":138078007},{"NoteNumber":58,"Velocity":37,"Duration":1137440,"SoundDuration":1137440,"Delta":138078007},{"NoteNumber":67,"Velocity":39,"Duration":284360,"SoundDuration":284360,"Delta":138931087},{"NoteNumber":62,"Velocity":35,"Duration":1112926,"SoundDuration":1112926,"Delta":139215448},{"NoteNumber":65,"Velocity":35,"Duration":1112926,"SoundDuration":1112926,"Delta":139215448},{"NoteNumber":58,"Velocity":46,"Duration":544206,"SoundDuration":544206,"Delta":139784168},{"NoteNumber":53,"Velocity":46,"Duration":538222,"SoundDuration":538222,"Delta":140328374},{"NoteNumber":50,"Velocity":46,"Duration":533151,"SoundDuration":533151,"Delta":140866597},{"NoteNumber":65,"Velocity":67,"Duration":132931,"SoundDuration":132931,"Delta":141266817},{"NoteNumber":77,"Velocity":72,"Duration":1582278,"SoundDuration":1582278,"Delta":141399748},{"NoteNumber":46,"Velocity":53,"Duration":527425,"SoundDuration":527425,"Delta":141399748},{"NoteNumber":50,"Velocity":45,"Duration":527426,"SoundDuration":527426,"Delta":141927174},{"NoteNumber":53,"Velocity":47,"Duration":527425,"SoundDuration":527425,"Delta":142454600},{"NoteNumber":75,"Velocity":70,"Duration":131856,"SoundDuration":131856,"Delta":142982026},{"NoteNumber":58,"Velocity":45,"Duration":527425,"SoundDuration":527425,"Delta":142982026},{"NoteNumber":74,"Velocity":62,"Duration":131856,"SoundDuration":131856,"Delta":143113883},{"NoteNumber":72,"Velocity":65,"Duration":131856,"SoundDuration":131856,"Delta":143245739},{"NoteNumber":70,"Velocity":63,"Duration":131856,"SoundDuration":131856,"Delta":143377596},{"NoteNumber":69,"Velocity":71,"Duration":527426,"SoundDuration":527426,"Delta":143509452},{"NoteNumber":65,"Velocity":51,"Duration":1054852,"SoundDuration":1054852,"Delta":143509452},{"NoteNumber":63,"Velocity":51,"Duration":527426,"SoundDuration":527426,"Delta":143509452},{"NoteNumber":70,"Velocity":70,"Duration":527425,"SoundDuration":527425,"Delta":144036878},{"NoteNumber":62,"Velocity":47,"Duration":527425,"SoundDuration":527425,"Delta":144036878},{"NoteNumber":72,"Velocity":67,"Duration":554221,"SoundDuration":554221,"Delta":144564304},{"NoteNumber":69,"Velocity":67,"Duration":554221,"SoundDuration":554221,"Delta":144564304},{"NoteNumber":63,"Velocity":51,"Duration":554221,"SoundDuration":554221,"Delta":144564304},{"NoteNumber":60,"Velocity":51,"Duration":554221,"SoundDuration":554221,"Delta":144564304},{"NoteNumber":75,"Velocity":65,"Duration":131856,"SoundDuration":131856,"Delta":145118526},{"NoteNumber":70,"Velocity":65,"Duration":527425,"SoundDuration":527425,"Delta":145118526},{"NoteNumber":62,"Velocity":47,"Duration":527425,"SoundDuration":527425,"Delta":145118526},{"NoteNumber":58,"Velocity":47,"Duration":527425,"SoundDuration":527425,"Delta":145118526},{"NoteNumber":74,"Velocity":62,"Duration":131856,"SoundDuration":131856,"Delta":145250382},{"NoteNumber":72,"Velocity":65,"Duration":131856,"SoundDuration":131856,"Delta":145382239},{"NoteNumber":74,"Velocity":61,"Duration":131856,"SoundDuration":131856,"Delta":145514095},{"NoteNumber":72,"Velocity":65,"Duration":527426,"SoundDuration":527426,"Delta":145645952},{"NoteNumber":75,"Velocity":65,"Duration":527426,"SoundDuration":527426,"Delta":145645952},{"NoteNumber":60,"Velocity":47,"Duration":527426,"SoundDuration":527426,"Delta":145645952},{"NoteNumber":57,"Velocity":47,"Duration":527426,"SoundDuration":527426,"Delta":145645952},{"NoteNumber":65,"Velocity":49,"Duration":544959,"SoundDuration":544959,"Delta":146173378},{"NoteNumber":65,"Velocity":53,"Duration":544959,"SoundDuration":544959,"Delta":146718337},{"NoteNumber":65,"Velocity":50,"Duration":544958,"SoundDuration":544958,"Delta":147263296},{"NoteNumber":75,"Velocity":72,"Duration":1582278,"SoundDuration":1582278,"Delta":147808255},{"NoteNumber":53,"Velocity":45,"Duration":527426,"SoundDuration":527426,"Delta":148335681},{"NoteNumber":57,"Velocity":45,"Duration":527425,"SoundDuration":527425,"Delta":148863107},{"NoteNumber":77,"Velocity":69,"Duration":131856,"SoundDuration":131856,"Delta":149390533},{"NoteNumber":60,"Velocity":45,"Duration":527425,"SoundDuration":527425,"Delta":149390533},{"NoteNumber":75,"Velocity":63,"Duration":131856,"SoundDuration":131856,"Delta":149522389},{"NoteNumber":74,"Velocity":69,"Duration":131856,"SoundDuration":131856,"Delta":149654246},{"NoteNumber":72,"Velocity":63,"Duration":131856,"SoundDuration":131856,"Delta":149786102},{"NoteNumber":70,"Velocity":73,"Duration":527426,"SoundDuration":527426,"Delta":149917959},{"NoteNumber":62,"Velocity":50,"Duration":527426,"SoundDuration":527426,"Delta":149917959},{"NoteNumber":69,"Velocity":70,"Duration":527425,"SoundDuration":527425,"Delta":150445385},{"NoteNumber":72,"Velocity":70,"Duration":527425,"SoundDuration":527425,"Delta":150445385},{"NoteNumber":63,"Velocity":45,"Duration":527425,"SoundDuration":527425,"Delta":150445385},{"NoteNumber":65,"Velocity":45,"Duration":1076976,"SoundDuration":1076976,"Delta":150445385},{"NoteNumber":74,"Velocity":71,"Duration":549551,"SoundDuration":549551,"Delta":150972811},{"NoteNumber":70,"Velocity":71,"Duration":549551,"SoundDuration":549551,"Delta":150972811},{"NoteNumber":62,"Velocity":51,"Duration":549551,"SoundDuration":549551,"Delta":150972811},{"NoteNumber":77,"Velocity":67,"Duration":134000,"SoundDuration":134000,"Delta":151522362},{"NoteNumber":72,"Velocity":67,"Duration":536001,"SoundDuration":536001,"Delta":151522362},{"NoteNumber":60,"Velocity":45,"Duration":536001,"SoundDuration":536001,"Delta":151522362},{"NoteNumber":63,"Velocity":45,"Duration":536001,"SoundDuration":536001,"Delta":151522362},{"NoteNumber":75,"Velocity":67,"Duration":134000,"SoundDuration":134000,"Delta":151656362},{"NoteNumber":74,"Velocity":67,"Duration":134000,"SoundDuration":134000,"Delta":151790362},{"NoteNumber":75,"Velocity":64,"Duration":134000,"SoundDuration":134000,"Delta":151924363},{"NoteNumber":74,"Velocity":72,"Duration":268000,"SoundDuration":268000,"Delta":152058363},{"NoteNumber":77,"Velocity":72,"Duration":268000,"SoundDuration":268000,"Delta":152058363},{"NoteNumber":62,"Velocity":50,"Duration":536001,"SoundDuration":536001,"Delta":152058363},{"NoteNumber":58,"Velocity":50,"Duration":536001,"SoundDuration":536001,"Delta":152058363},{"NoteNumber":46,"Velocity":54,"Duration":490463,"SoundDuration":490463,"Delta":152594365},{"NoteNumber":46,"Velocity":57,"Duration":490463,"SoundDuration":490463,"Delta":153139324},{"NoteNumber":46,"Velocity":54,"Duration":490463,"SoundDuration":490463,"Delta":153684283},{"NoteNumber":80,"Velocity":76,"Duration":1582278,"SoundDuration":1582278,"Delta":154229242},{"NoteNumber":50,"Velocity":54,"Duration":527426,"SoundDuration":527426,"Delta":154756668},{"NoteNumber":53,"Velocity":56,"Duration":527425,"SoundDuration":527425,"Delta":155284094},{"NoteNumber":79,"Velocity":67,"Duration":131856,"SoundDuration":131856,"Delta":155811520},{"NoteNumber":56,"Velocity":52,"Duration":527425,"SoundDuration":527425,"Delta":155811520},{"NoteNumber":77,"Velocity":63,"Duration":131856,"SoundDuration":131856,"Delta":155943376},{"NoteNumber":75,"Velocity":67,"Duration":131856,"SoundDuration":131856,"Delta":156075233},{"NoteNumber":74,"Velocity":64,"Duration":131856,"SoundDuration":131856,"Delta":156207089},{"NoteNumber":75,"Velocity":72,"Duration":558971,"SoundDuration":558971,"Delta":156338946},{"NoteNumber":55,"Velocity":56,"Duration":558971,"SoundDuration":558971,"Delta":156338946},{"NoteNumber":77,"Velocity":74,"Duration":291942,"SoundDuration":291942,"Delta":156897917},{"NoteNumber":50,"Velocity":53,"Duration":291942,"SoundDuration":291942,"Delta":156897917},{"NoteNumber":78,"Velocity":80,"Duration":1608004,"SoundDuration":1608004,"Delta":157481802},{"NoteNumber":58,"Velocity":53,"Duration":536001,"SoundDuration":536001,"Delta":158017804},{"NoteNumber":51,"Velocity":53,"Duration":536001,"SoundDuration":536001,"Delta":158017804},{"NoteNumber":58,"Velocity":53,"Duration":536001,"SoundDuration":536001,"Delta":158553805},{"NoteNumber":51,"Velocity":53,"Duration":536001,"SoundDuration":536001,"Delta":158553805},{"NoteNumber":80,"Velocity":72,"Duration":252100,"SoundDuration":252100,"Delta":159089807},{"NoteNumber":59,"Velocity":55,"Duration":517587,"SoundDuration":517587,"Delta":159089807},{"NoteNumber":51,"Velocity":55,"Duration":517587,"SoundDuration":517587,"Delta":159089807},{"NoteNumber":79,"Velocity":69,"Duration":265486,"SoundDuration":265486,"Delta":159341907},{"NoteNumber":77,"Velocity":70,"Duration":254237,"SoundDuration":254237,"Delta":159607394},{"NoteNumber":51,"Velocity":55,"Duration":519723,"SoundDuration":519723,"Delta":159607394},{"NoteNumber":60,"Velocity":55,"Duration":519723,"SoundDuration":519723,"Delta":159607394},{"NoteNumber":75,"Velocity":67,"Duration":265486,"SoundDuration":265486,"Delta":159861631},{"NoteNumber":74,"Velocity":67,"Duration":254237,"SoundDuration":254237,"Delta":160127118},{"NoteNumber":57,"Velocity":53,"Duration":508474,"SoundDuration":508474,"Delta":160127118},{"NoteNumber":51,"Velocity":53,"Duration":508474,"SoundDuration":508474,"Delta":160127118},{"NoteNumber":72,"Velocity":64,"Duration":254237,"SoundDuration":254237,"Delta":160381355},{"NoteNumber":77,"Velocity":75,"Duration":171644,"SoundDuration":171644,"Delta":160635593},{"NoteNumber":58,"Velocity":54,"Duration":514933,"SoundDuration":514933,"Delta":160635593},{"NoteNumber":50,"Velocity":54,"Duration":514933,"SoundDuration":514933,"Delta":160635593},{"NoteNumber":76,"Velocity":71,"Duration":171644,"SoundDuration":171644,"Delta":160807237},{"NoteNumber":77,"Velocity":73,"Duration":171644,"SoundDuration":171644,"Delta":160978881},{"NoteNumber":79,"Velocity":75,"Duration":171644,"SoundDuration":171644,"Delta":161150526},{"NoteNumber":51,"Velocity":50,"Duration":541465,"SoundDuration":541465,"Delta":161150526},{"NoteNumber":58,"Velocity":50,"Duration":541465,"SoundDuration":541465,"Delta":161150526},{"NoteNumber":67,"Velocity":67,"Duration":171644,"SoundDuration":171644,"Delta":161322170},{"NoteNumber":75,"Velocity":69,"Duration":198176,"SoundDuration":198176,"Delta":161493814},{"NoteNumber":70,"Velocity":75,"Duration":1054852,"SoundDuration":1054852,"Delta":161691991},{"NoteNumber":53,"Velocity":50,"Duration":527425,"SoundDuration":527425,"Delta":161691991},{"NoteNumber":62,"Velocity":50,"Duration":527425,"SoundDuration":527425,"Delta":161691991},{"NoteNumber":62,"Velocity":46,"Duration":527426,"SoundDuration":527426,"Delta":162219417},{"NoteNumber":53,"Velocity":46,"Duration":527426,"SoundDuration":527426,"Delta":162219417},{"NoteNumber":69,"Velocity":62,"Duration":1071984,"SoundDuration":1071984,"Delta":162746843},{"NoteNumber":74,"Velocity":68,"Duration":260869,"SoundDuration":260869,"Delta":162746843},{"NoteNumber":63,"Velocity":42,"Duration":536098,"SoundDuration":536098,"Delta":162746843},{"NoteNumber":53,"Velocity":42,"Duration":536098,"SoundDuration":536098,"Delta":162746843},{"NoteNumber":72,"Velocity":60,"Duration":275229,"SoundDuration":275229,"Delta":163007713},{"NoteNumber":70,"Velocity":66,"Duration":263158,"SoundDuration":263158,"Delta":163282942},{"NoteNumber":63,"Velocity":42,"Duration":535885,"SoundDuration":535885,"Delta":163282942},{"NoteNumber":53,"Velocity":42,"Duration":535885,"SoundDuration":535885,"Delta":163282942},{"NoteNumber":72,"Velocity":59,"Duration":272727,"SoundDuration":272727,"Delta":163546100},{"NoteNumber":70,"Velocity":60,"Duration":1058399,"SoundDuration":1058399,"Delta":163818827},{"NoteNumber":62,"Velocity":45,"Duration":265486,"SoundDuration":265486,"Delta":163818827},{"NoteNumber":58,"Velocity":45,"Duration":265486,"SoundDuration":265486,"Delta":163818827},{"NoteNumber":58,"Velocity":50,"Duration":265486,"SoundDuration":265486,"Delta":164084314},{"NoteNumber":62,"Velocity":54,"Duration":263712,"SoundDuration":263712,"Delta":164349801},{"NoteNumber":65,"Velocity":57,"Duration":263712,"SoundDuration":263712,"Delta":164613514},{"NoteNumber":63,"Velocity":63,"Duration":263712,"SoundDuration":263712,"Delta":164877227},{"NoteNumber":65,"Velocity":54,"Duration":263713,"SoundDuration":263713,"Delta":165140940},{"NoteNumber":70,"Velocity":75,"Duration":523900,"SoundDuration":523900,"Delta":165404653},{"NoteNumber":77,"Velocity":75,"Duration":523900,"SoundDuration":523900,"Delta":165404653},{"NoteNumber":62,"Velocity":63,"Duration":261597,"SoundDuration":261597,"Delta":165404653},{"NoteNumber":65,"Velocity":54,"Duration":262302,"SoundDuration":262302,"Delta":165666250},{"NoteNumber":77,"Velocity":59,"Duration":529576,"SoundDuration":529576,"Delta":165928553},{"NoteNumber":72,"Velocity":80,"Duration":529576,"SoundDuration":529576,"Delta":165928553},{"NoteNumber":60,"Velocity":63,"Duration":263712,"SoundDuration":263712,"Delta":165928553},{"NoteNumber":65,"Velocity":56,"Duration":265863,"SoundDuration":265863,"Delta":166192266},{"NoteNumber":74,"Velocity":76,"Duration":536029,"SoundDuration":536029,"Delta":166458129},{"NoteNumber":77,"Velocity":76,"Duration":536029,"SoundDuration":536029,"Delta":166458129},{"NoteNumber":58,"Velocity":63,"Duration":267288,"SoundDuration":267288,"Delta":166458129},{"NoteNumber":65,"Velocity":55,"Duration":268741,"SoundDuration":268741,"Delta":166725417},{"NoteNumber":77,"Velocity":80,"Duration":653993,"SoundDuration":653993,"Delta":166994158},{"NoteNumber":75,"Velocity":63,"Duration":1569584,"SoundDuration":1569584,"Delta":166994158},{"NoteNumber":57,"Velocity":63,"Duration":261597,"SoundDuration":261597,"Delta":166994158},{"NoteNumber":60,"Velocity":53,"Duration":261597,"SoundDuration":261597,"Delta":167255756},{"NoteNumber":63,"Velocity":56,"Duration":261597,"SoundDuration":261597,"Delta":167517353},{"NoteNumber":79,"Velocity":69,"Duration":130798,"SoundDuration":130798,"Delta":167648152},{"NoteNumber":77,"Velocity":67,"Duration":130798,"SoundDuration":130798,"Delta":167778951},{"NoteNumber":62,"Velocity":53,"Duration":261597,"SoundDuration":261597,"Delta":167778951},{"NoteNumber":76,"Velocity":70,"Duration":130798,"SoundDuration":130798,"Delta":167909750},{"NoteNumber":77,"Velocity":76,"Duration":261597,"SoundDuration":261597,"Delta":168040548},{"NoteNumber":60,"Velocity":61,"Duration":261597,"SoundDuration":261597,"Delta":168040548},{"NoteNumber":58,"Velocity":54,"Duration":261597,"SoundDuration":261597,"Delta":168302146},{"NoteNumber":69,"Velocity":75,"Duration":531726,"SoundDuration":531726,"Delta":168563743},{"NoteNumber":77,"Velocity":75,"Duration":531726,"SoundDuration":531726,"Delta":168563743},{"NoteNumber":57,"Velocity":56,"Duration":265863,"SoundDuration":265863,"Delta":168563743},{"NoteNumber":55,"Velocity":54,"Duration":265863,"SoundDuration":265863,"Delta":168829607},{"NoteNumber":70,"Velocity":76,"Duration":527425,"SoundDuration":527425,"Delta":169095470},{"NoteNumber":79,"Velocity":76,"Duration":527425,"SoundDuration":527425,"Delta":169095470},{"NoteNumber":53,"Velocity":56,"Duration":263712,"SoundDuration":263712,"Delta":169095470},{"NoteNumber":55,"Velocity":54,"Duration":263712,"SoundDuration":263712,"Delta":169359183},{"NoteNumber":72,"Velocity":75,"Duration":523194,"SoundDuration":523194,"Delta":169622896},{"NoteNumber":81,"Velocity":75,"Duration":523194,"SoundDuration":523194,"Delta":169622896},{"NoteNumber":51,"Velocity":56,"Duration":261597,"SoundDuration":261597,"Delta":169622896},{"NoteNumber":53,"Velocity":54,"Duration":261597,"SoundDuration":261597,"Delta":169884493},{"NoteNumber":82,"Velocity":86,"Duration":644349,"SoundDuration":644349,"Delta":170146091},{"NoteNumber":70,"Velocity":86,"Duration":1545481,"SoundDuration":1545481,"Delta":170146091},{"NoteNumber":50,"Velocity":61,"Duration":258149,"SoundDuration":258149,"Delta":170146091},{"NoteNumber":53,"Velocity":52,"Duration":257466,"SoundDuration":257466,"Delta":170404240},{"NoteNumber":58,"Velocity":54,"Duration":257466,"SoundDuration":257466,"Delta":170661707},{"NoteNumber":84,"Velocity":75,"Duration":128733,"SoundDuration":128733,"Delta":170790440},{"NoteNumber":86,"Velocity":76,"Duration":128733,"SoundDuration":128733,"Delta":170919173},{"NoteNumber":53,"Velocity":51,"Duration":257466,"SoundDuration":257466,"Delta":170919173},{"NoteNumber":82,"Velocity":72,"Duration":128733,"SoundDuration":128733,"Delta":171047907},{"NoteNumber":77,"Velocity":78,"Duration":257466,"SoundDuration":257466,"Delta":171176640},{"NoteNumber":62,"Velocity":57,"Duration":257466,"SoundDuration":257466,"Delta":171176640},{"NoteNumber":74,"Velocity":54,"Duration":540443,"SoundDuration":540443,"Delta":171691573},{"NoteNumber":77,"Velocity":54,"Duration":540443,"SoundDuration":540443,"Delta":171691573},{"NoteNumber":58,"Velocity":41,"Duration":540443,"SoundDuration":540443,"Delta":171691573},{"NoteNumber":62,"Velocity":41,"Duration":540443,"SoundDuration":540443,"Delta":171691573},{"NoteNumber":72,"Velocity":54,"Duration":538990,"SoundDuration":538990,"Delta":172232016},{"NoteNumber":75,"Velocity":54,"Duration":538990,"SoundDuration":538990,"Delta":172232016},{"NoteNumber":60,"Velocity":43,"Duration":538990,"SoundDuration":538990,"Delta":172232016},{"NoteNumber":63,"Velocity":43,"Duration":538990,"SoundDuration":538990,"Delta":172232016},{"NoteNumber":70,"Velocity":54,"Duration":583885,"SoundDuration":583885,"Delta":172771006},{"NoteNumber":74,"Velocity":54,"Duration":583885,"SoundDuration":583885,"Delta":172771006},{"NoteNumber":65,"Velocity":39,"Duration":583885,"SoundDuration":583885,"Delta":172771006},{"NoteNumber":62,"Velocity":39,"Duration":583885,"SoundDuration":583885,"Delta":172771006},{"NoteNumber":72,"Velocity":57,"Duration":648788,"SoundDuration":648788,"Delta":173354891},{"NoteNumber":67,"Velocity":46,"Duration":1038061,"SoundDuration":1038061,"Delta":173354891},{"NoteNumber":63,"Velocity":46,"Duration":1038061,"SoundDuration":1038061,"Delta":173354891},{"NoteNumber":74,"Velocity":52,"Duration":129757,"SoundDuration":129757,"Delta":174003680},{"NoteNumber":75,"Velocity":54,"Duration":129757,"SoundDuration":129757,"Delta":174133438},{"NoteNumber":72,"Velocity":52,"Duration":129757,"SoundDuration":129757,"Delta":174263195},{"NoteNumber":79,"Velocity":59,"Duration":259515,"SoundDuration":259515,"Delta":174392953},{"NoteNumber":67,"Velocity":49,"Duration":531726,"SoundDuration":531726,"Delta":174911984},{"NoteNumber":75,"Velocity":49,"Duration":531726,"SoundDuration":531726,"Delta":174911984},{"NoteNumber":60,"Velocity":41,"Duration":531726,"SoundDuration":531726,"Delta":174911984},{"NoteNumber":51,"Velocity":41,"Duration":531726,"SoundDuration":531726,"Delta":174911984},{"NoteNumber":65,"Velocity":52,"Duration":531726,"SoundDuration":531726,"Delta":175443711},{"NoteNumber":70,"Velocity":52,"Duration":531726,"SoundDuration":531726,"Delta":175443711},{"NoteNumber":62,"Velocity":43,"Duration":531726,"SoundDuration":531726,"Delta":175443711},{"NoteNumber":53,"Velocity":43,"Duration":1090698,"SoundDuration":1090698,"Delta":175443711},{"NoteNumber":69,"Velocity":49,"Duration":558971,"SoundDuration":558971,"Delta":175975437},{"NoteNumber":72,"Velocity":49,"Duration":558971,"SoundDuration":558971,"Delta":175975437},{"NoteNumber":63,"Velocity":42,"Duration":558971,"SoundDuration":558971,"Delta":175975437},{"NoteNumber":72,"Velocity":54,"Duration":838457,"SoundDuration":838457,"Delta":176534409},{"NoteNumber":69,"Velocity":54,"Duration":1117942,"SoundDuration":1117942,"Delta":176534409},{"NoteNumber":63,"Velocity":45,"Duration":1117942,"SoundDuration":1117942,"Delta":176534409},{"NoteNumber":58,"Velocity":45,"Duration":1397428,"SoundDuration":1397428,"Delta":176534409},{"NoteNumber":73,"Velocity":50,"Duration":279485,"SoundDuration":279485,"Delta":177372866},{"NoteNumber":70,"Velocity":45,"Duration":558971,"SoundDuration":558971,"Delta":177652352},{"NoteNumber":74,"Velocity":45,"Duration":558971,"SoundDuration":558971,"Delta":177652352},{"NoteNumber":62,"Velocity":35,"Duration":279485,"SoundDuration":279485,"Delta":177652352},{"NoteNumber":58,"Velocity":51,"Duration":279485,"SoundDuration":279485,"Delta":177931837},{"NoteNumber":70,"Velocity":74,"Duration":536001,"SoundDuration":536001,"Delta":178211323},{"NoteNumber":77,"Velocity":74,"Duration":536001,"SoundDuration":536001,"Delta":178211323},{"NoteNumber":62,"Velocity":54,"Duration":268000,"SoundDuration":268000,"Delta":178211323},{"NoteNumber":65,"Velocity":51,"Duration":268000,"SoundDuration":268000,"Delta":178479324},{"NoteNumber":72,"Velocity":80,"Duration":536001,"SoundDuration":536001,"Delta":178747325},{"NoteNumber":77,"Velocity":59,"Duration":536001,"SoundDuration":536001,"Delta":178747325},{"NoteNumber":63,"Velocity":57,"Duration":268000,"SoundDuration":268000,"Delta":178747325},{"NoteNumber":62,"Velocity":54,"Duration":268000,"SoundDuration":268000,"Delta":179015325},{"NoteNumber":77,"Velocity":75,"Duration":536001,"SoundDuration":536001,"Delta":179283326},{"NoteNumber":74,"Velocity":75,"Duration":536001,"SoundDuration":536001,"Delta":179283326},{"NoteNumber":60,"Velocity":55,"Duration":268000,"SoundDuration":268000,"Delta":179283326},{"NoteNumber":58,"Velocity":53,"Duration":268000,"SoundDuration":268000,"Delta":179551327},{"NoteNumber":75,"Velocity":83,"Duration":1567535,"SoundDuration":1567535,"Delta":179819328},{"NoteNumber":77,"Velocity":83,"Duration":653993,"SoundDuration":653993,"Delta":179819328},{"NoteNumber":57,"Velocity":63,"Duration":261597,"SoundDuration":261597,"Delta":179819328},{"NoteNumber":60,"Velocity":54,"Duration":261597,"SoundDuration":261597,"Delta":180080925},{"NoteNumber":63,"Velocity":56,"Duration":261597,"SoundDuration":261597,"Delta":180342523},{"NoteNumber":79,"Velocity":69,"Duration":130798,"SoundDuration":130798,"Delta":180473321},{"NoteNumber":77,"Velocity":71,"Duration":130798,"SoundDuration":130798,"Delta":180604120},{"NoteNumber":62,"Velocity":54,"Duration":261597,"SoundDuration":261597,"Delta":180604120},{"NoteNumber":76,"Velocity":67,"Duration":130798,"SoundDuration":130798,"Delta":180734919},{"NoteNumber":77,"Velocity":77,"Duration":261597,"SoundDuration":261597,"Delta":180865718},{"NoteNumber":60,"Velocity":61,"Duration":261597,"SoundDuration":261597,"Delta":180865718},{"NoteNumber":58,"Velocity":54,"Duration":259548,"SoundDuration":259548,"Delta":181127315},{"NoteNumber":69,"Velocity":76,"Duration":514370,"SoundDuration":514370,"Delta":181386863},{"NoteNumber":77,"Velocity":76,"Duration":514370,"SoundDuration":514370,"Delta":181386863},{"NoteNumber":57,"Velocity":56,"Duration":255449,"SoundDuration":255449,"Delta":181386863},{"NoteNumber":55,"Velocity":54,"Duration":258920,"SoundDuration":258920,"Delta":181642313},{"NoteNumber":79,"Velocity":81,"Duration":538262,"SoundDuration":538262,"Delta":181901234},{"NoteNumber":70,"Velocity":81,"Duration":538262,"SoundDuration":538262,"Delta":181901234},{"NoteNumber":53,"Velocity":56,"Duration":267288,"SoundDuration":267288,"Delta":181901234},{"NoteNumber":55,"Velocity":54,"Duration":270974,"SoundDuration":270974,"Delta":182168522},{"NoteNumber":72,"Velocity":76,"Duration":551912,"SoundDuration":551912,"Delta":182439496},{"NoteNumber":81,"Velocity":76,"Duration":551912,"SoundDuration":551912,"Delta":182439496},{"NoteNumber":51,"Velocity":56,"Duration":274010,"SoundDuration":274010,"Delta":182439496},{"NoteNumber":53,"Velocity":54,"Duration":277902,"SoundDuration":277902,"Delta":182713506},{"NoteNumber":82,"Velocity":86,"Duration":644349,"SoundDuration":644349,"Delta":182991409},{"NoteNumber":70,"Velocity":86,"Duration":1547025,"SoundDuration":1547025,"Delta":182991409},{"NoteNumber":50,"Velocity":61,"Duration":258149,"SoundDuration":258149,"Delta":182991409},{"NoteNumber":53,"Velocity":46,"Duration":257466,"SoundDuration":257466,"Delta":183249558},{"NoteNumber":58,"Velocity":51,"Duration":257466,"SoundDuration":257466,"Delta":183507025},{"NoteNumber":84,"Velocity":67,"Duration":128733,"SoundDuration":128733,"Delta":183635758},{"NoteNumber":86,"Velocity":70,"Duration":119066,"SoundDuration":119066,"Delta":183764491},{"NoteNumber":53,"Velocity":45,"Duration":238133,"SoundDuration":238133,"Delta":183764491},{"NoteNumber":82,"Velocity":66,"Duration":119066,"SoundDuration":119066,"Delta":183883558},{"NoteNumber":77,"Velocity":63,"Duration":267905,"SoundDuration":267905,"Delta":184002624},{"NoteNumber":62,"Velocity":50,"Duration":267905,"SoundDuration":267905,"Delta":184002624},{"NoteNumber":74,"Velocity":54,"Duration":540443,"SoundDuration":540443,"Delta":184538434},{"NoteNumber":77,"Velocity":54,"Duration":540443,"SoundDuration":540443,"Delta":184538434},{"NoteNumber":58,"Velocity":41,"Duration":540443,"SoundDuration":540443,"Delta":184538434},{"NoteNumber":62,"Velocity":41,"Duration":540443,"SoundDuration":540443,"Delta":184538434},{"NoteNumber":72,"Velocity":54,"Duration":538990,"SoundDuration":538990,"Delta":185078877},{"NoteNumber":75,"Velocity":54,"Duration":538990,"SoundDuration":538990,"Delta":185078877},{"NoteNumber":60,"Velocity":43,"Duration":538990,"SoundDuration":538990,"Delta":185078877},{"NoteNumber":63,"Velocity":43,"Duration":538990,"SoundDuration":538990,"Delta":185078877},{"NoteNumber":70,"Velocity":54,"Duration":583885,"SoundDuration":583885,"Delta":185617867},{"NoteNumber":74,"Velocity":54,"Duration":583885,"SoundDuration":583885,"Delta":185617867},{"NoteNumber":65,"Velocity":42,"Duration":583885,"SoundDuration":583885,"Delta":185617867},{"NoteNumber":62,"Velocity":42,"Duration":583885,"SoundDuration":583885,"Delta":185617867},{"NoteNumber":71,"Velocity":45,"Duration":145539,"SoundDuration":145539,"Delta":186201752},{"NoteNumber":63,"Velocity":43,"Duration":1128048,"SoundDuration":1128048,"Delta":186201752},{"NoteNumber":67,"Velocity":43,"Duration":1128048,"SoundDuration":1128048,"Delta":186201752},{"NoteNumber":72,"Velocity":45,"Duration":143845,"SoundDuration":143845,"Delta":186347292},{"NoteNumber":74,"Velocity":46,"Duration":143013,"SoundDuration":143013,"Delta":186491138},{"NoteNumber":72,"Velocity":45,"Duration":141360,"SoundDuration":141360,"Delta":186634152},{"NoteNumber":75,"Velocity":50,"Duration":140548,"SoundDuration":140548,"Delta":186775512},{"NoteNumber":74,"Velocity":47,"Duration":138951,"SoundDuration":138951,"Delta":186916061},{"NoteNumber":77,"Velocity":52,"Duration":138166,"SoundDuration":138166,"Delta":187055012},{"NoteNumber":75,"Velocity":50,"Duration":136622,"SoundDuration":136622,"Delta":187193178},{"NoteNumber":79,"Velocity":60,"Duration":1054852,"SoundDuration":1054852,"Delta":187329800},{"NoteNumber":77,"Velocity":54,"Duration":527425,"SoundDuration":527425,"Delta":188384652},{"NoteNumber":57,"Velocity":43,"Duration":527425,"SoundDuration":527425,"Delta":188384652},{"NoteNumber":63,"Velocity":43,"Duration":1101149,"SoundDuration":1101149,"Delta":188384652},{"NoteNumber":53,"Velocity":43,"Duration":1101149,"SoundDuration":1101149,"Delta":188384652},{"NoteNumber":60,"Velocity":43,"Duration":573723,"SoundDuration":573723,"Delta":188912078},{"NoteNumber":69,"Velocity":50,"Duration":143430,"SoundDuration":143430,"Delta":189342371},{"NoteNumber":70,"Velocity":51,"Duration":1021797,"SoundDuration":1021797,"Delta":189485802},{"NoteNumber":58,"Velocity":43,"Duration":255449,"SoundDuration":255449,"Delta":189485802},{"NoteNumber":62,"Velocity":39,"Duration":255449,"SoundDuration":255449,"Delta":189741251},{"NoteNumber":65,"Velocity":40,"Duration":255449,"SoundDuration":255449,"Delta":189996701},{"NoteNumber":62,"Velocity":42,"Duration":255449,"SoundDuration":255449,"Delta":190252150},{"NoteNumber":58,"Velocity":46,"Duration":255449,"SoundDuration":255449,"Delta":190507600},{"NoteNumber":62,"Velocity":44,"Duration":255449,"SoundDuration":255449,"Delta":190763049},{"NoteNumber":80,"Velocity":66,"Duration":512243,"SoundDuration":512243,"Delta":191018499},{"NoteNumber":65,"Velocity":45,"Duration":255449,"SoundDuration":255449,"Delta":191018499},{"NoteNumber":62,"Velocity":46,"Duration":256794,"SoundDuration":256794,"Delta":191273948},{"NoteNumber":79,"Velocity":70,"Duration":518358,"SoundDuration":518358,"Delta":191530743},{"NoteNumber":63,"Velocity":53,"Duration":258149,"SoundDuration":258149,"Delta":191530743},{"NoteNumber":60,"Velocity":50,"Duration":260209,"SoundDuration":260209,"Delta":191788892},{"NoteNumber":81,"Velocity":73,"Duration":525310,"SoundDuration":525310,"Delta":192049102},{"NoteNumber":65,"Velocity":51,"Duration":261597,"SoundDuration":261597,"Delta":192049102},{"NoteNumber":63,"Velocity":53,"Duration":263712,"SoundDuration":263712,"Delta":192310699},{"NoteNumber":84,"Velocity":76,"Duration":531726,"SoundDuration":531726,"Delta":192574412},{"NoteNumber":62,"Velocity":56,"Duration":265863,"SoundDuration":265863,"Delta":192574412},{"NoteNumber":65,"Velocity":51,"Duration":265863,"SoundDuration":265863,"Delta":192840275},{"NoteNumber":82,"Velocity":71,"Duration":531726,"SoundDuration":531726,"Delta":193106139},{"NoteNumber":62,"Velocity":53,"Duration":265863,"SoundDuration":265863,"Delta":193106139},{"NoteNumber":60,"Velocity":50,"Duration":265863,"SoundDuration":265863,"Delta":193372002},{"NoteNumber":58,"Velocity":64,"Duration":265863,"SoundDuration":265863,"Delta":193637865},{"NoteNumber":56,"Velocity":56,"Duration":265863,"SoundDuration":265863,"Delta":193903728},{"NoteNumber":68,"Velocity":69,"Duration":545737,"SoundDuration":545737,"Delta":194169592},{"NoteNumber":53,"Velocity":59,"Duration":271726,"SoundDuration":271726,"Delta":194169592},{"NoteNumber":50,"Velocity":56,"Duration":274010,"SoundDuration":274010,"Delta":194441318},{"NoteNumber":67,"Velocity":69,"Duration":557401,"SoundDuration":557401,"Delta":194715329},{"NoteNumber":51,"Velocity":64,"Duration":277110,"SoundDuration":277110,"Delta":194715329},{"NoteNumber":48,"Velocity":59,"Duration":280291,"SoundDuration":280291,"Delta":194992439},{"NoteNumber":63,"Velocity":63,"Duration":654021,"SoundDuration":654021,"Delta":195272730},{"NoteNumber":69,"Velocity":63,"Duration":654021,"SoundDuration":654021,"Delta":195272730},{"NoteNumber":53,"Velocity":64,"Duration":327010,"SoundDuration":327010,"Delta":195272730},{"NoteNumber":41,"Velocity":54,"Duration":327010,"SoundDuration":327010,"Delta":195599741},{"NoteNumber":72,"Velocity":54,"Duration":1362398,"SoundDuration":1362398,"Delta":195926752},{"NoteNumber":63,"Velocity":54,"Duration":1362398,"SoundDuration":1362398,"Delta":195926752},{"NoteNumber":46,"Velocity":46,"Duration":2043597,"SoundDuration":2043597,"Delta":195926752},{"NoteNumber":70,"Velocity":42,"Duration":681198,"SoundDuration":681198,"Delta":197289150},{"NoteNumber":62,"Velocity":42,"Duration":681198,"SoundDuration":681198,"Delta":197289150},{"NoteNumber":62,"Velocity":47,"Duration":622794,"SoundDuration":622794,"Delta":197970349},{"NoteNumber":65,"Velocity":47,"Duration":622794,"SoundDuration":622794,"Delta":197970349},{"NoteNumber":56,"Velocity":42,"Duration":622794,"SoundDuration":622794,"Delta":197970349},{"NoteNumber":63,"Velocity":52,"Duration":583885,"SoundDuration":583885,"Delta":198593144},{"NoteNumber":67,"Velocity":52,"Duration":583885,"SoundDuration":583885,"Delta":198593144},{"NoteNumber":55,"Velocity":45,"Duration":583885,"SoundDuration":583885,"Delta":198593144},{"NoteNumber":65,"Velocity":55,"Duration":652315,"SoundDuration":652315,"Delta":199177029},{"NoteNumber":68,"Velocity":55,"Duration":652315,"SoundDuration":652315,"Delta":199177029},{"NoteNumber":53,"Velocity":49,"Duration":652315,"SoundDuration":652315,"Delta":199177029},{"NoteNumber":66,"Velocity":67,"Duration":1250259,"SoundDuration":1250259,"Delta":199829344},{"NoteNumber":69,"Velocity":67,"Duration":1250259,"SoundDuration":1250259,"Delta":199829344},{"NoteNumber":52,"Velocity":56,"Duration":2331145,"SoundDuration":2331145,"Delta":199829344},{"NoteNumber":67,"Velocity":62,"Duration":540443,"SoundDuration":540443,"Delta":201079604},{"NoteNumber":70,"Velocity":62,"Duration":540443,"SoundDuration":540443,"Delta":201079604},{"NoteNumber":70,"Velocity":54,"Duration":540442,"SoundDuration":540442,"Delta":201620047},{"NoteNumber":73,"Velocity":54,"Duration":540442,"SoundDuration":540442,"Delta":201620047},{"NoteNumber":64,"Velocity":56,"Duration":558971,"SoundDuration":558971,"Delta":202160490},{"NoteNumber":67,"Velocity":56,"Duration":558971,"SoundDuration":558971,"Delta":202160490},{"NoteNumber":48,"Velocity":46,"Duration":1142856,"SoundDuration":1142856,"Delta":202160490},{"NoteNumber":68,"Velocity":51,"Duration":583885,"SoundDuration":583885,"Delta":202719462},{"NoteNumber":72,"Velocity":51,"Duration":583885,"SoundDuration":583885,"Delta":202719462},{"NoteNumber":67,"Velocity":55,"Duration":1127608,"SoundDuration":1127608,"Delta":203303347},{"NoteNumber":70,"Velocity":55,"Duration":1127608,"SoundDuration":1127608,"Delta":203303347},{"NoteNumber":49,"Velocity":53,"Duration":2218838,"SoundDuration":2218838,"Delta":203303347},{"NoteNumber":65,"Velocity":52,"Duration":563804,"SoundDuration":563804,"Delta":204430955},{"NoteNumber":68,"Velocity":52,"Duration":563804,"SoundDuration":563804,"Delta":204430955},{"NoteNumber":77,"Velocity":54,"Duration":474683,"SoundDuration":474683,"Delta":204994759},{"NoteNumber":77,"Velocity":54,"Duration":474683,"SoundDuration":474683,"Delta":205522185},{"NoteNumber":60,"Velocity":43,"Duration":1054852,"SoundDuration":1054852,"Delta":205522185},{"NoteNumber":56,"Velocity":43,"Duration":1054852,"SoundDuration":1054852,"Delta":205522185},{"NoteNumber":77,"Velocity":54,"Duration":474683,"SoundDuration":474683,"Delta":206049611},{"NoteNumber":78,"Velocity":62,"Duration":1063453,"SoundDuration":1063453,"Delta":206577037},{"NoteNumber":58,"Velocity":43,"Duration":1063453,"SoundDuration":1063453,"Delta":206577037},{"NoteNumber":61,"Velocity":43,"Duration":1063453,"SoundDuration":1063453,"Delta":206577037},{"NoteNumber":79,"Velocity":56,"Duration":514933,"SoundDuration":514933,"Delta":207640490},{"NoteNumber":82,"Velocity":63,"Duration":1029865,"SoundDuration":1029865,"Delta":208155423},{"NoteNumber":60,"Velocity":43,"Duration":1038128,"SoundDuration":1038128,"Delta":208670356},{"NoteNumber":70,"Velocity":43,"Duration":1038128,"SoundDuration":1038128,"Delta":208670356},{"NoteNumber":76,"Velocity":57,"Duration":523194,"SoundDuration":523194,"Delta":209185289},{"NoteNumber":79,"Velocity":64,"Duration":1054852,"SoundDuration":1054852,"Delta":209708484},{"NoteNumber":65,"Velocity":43,"Duration":1582278,"SoundDuration":1582278,"Delta":209708484},{"NoteNumber":70,"Velocity":43,"Duration":1054852,"SoundDuration":1054852,"Delta":209708484},{"NoteNumber":77,"Velocity":60,"Duration":527425,"SoundDuration":527425,"Delta":210763336},{"NoteNumber":68,"Velocity":36,"Duration":527425,"SoundDuration":527425,"Delta":210763336},{"NoteNumber":41,"Velocity":45,"Duration":486398,"SoundDuration":486398,"Delta":211290762},{"NoteNumber":41,"Velocity":46,"Duration":486398,"SoundDuration":486398,"Delta":211831205},{"NoteNumber":41,"Velocity":44,"Duration":486398,"SoundDuration":486398,"Delta":212371648},{"NoteNumber":41,"Velocity":52,"Duration":3041437,"SoundDuration":3041437,"Delta":212912091},{"NoteNumber":80,"Velocity":59,"Duration":499250,"SoundDuration":499250,"Delta":213452534},{"NoteNumber":79,"Velocity":61,"Duration":249625,"SoundDuration":249625,"Delta":213951785},{"NoteNumber":77,"Velocity":59,"Duration":249625,"SoundDuration":249625,"Delta":214201410},{"NoteNumber":75,"Velocity":57,"Duration":240000,"SoundDuration":240000,"Delta":214451036},{"NoteNumber":73,"Velocity":57,"Duration":252100,"SoundDuration":252100,"Delta":214691036},{"NoteNumber":72,"Velocity":59,"Duration":257466,"SoundDuration":257466,"Delta":214943137},{"NoteNumber":73,"Velocity":62,"Duration":257466,"SoundDuration":257466,"Delta":215200603},{"NoteNumber":77,"Velocity":66,"Duration":247729,"SoundDuration":247729,"Delta":215458070},{"NoteNumber":73,"Velocity":60,"Duration":247729,"SoundDuration":247729,"Delta":215705799},{"NoteNumber":62,"Velocity":57,"Duration":3201758,"SoundDuration":3201758,"Delta":215953528},{"NoteNumber":68,"Velocity":57,"Duration":3201758,"SoundDuration":3201758,"Delta":215953528},{"NoteNumber":72,"Velocity":57,"Duration":1046390,"SoundDuration":1046390,"Delta":215953528},{"NoteNumber":41,"Velocity":42,"Duration":1569584,"SoundDuration":1569584,"Delta":215953528},{"NoteNumber":71,"Velocity":47,"Duration":2155368,"SoundDuration":2155368,"Delta":216999918},{"NoteNumber":41,"Velocity":45,"Duration":478553,"SoundDuration":478553,"Delta":217523113},{"NoteNumber":41,"Velocity":46,"Duration":478553,"SoundDuration":478553,"Delta":218054840},{"NoteNumber":41,"Velocity":45,"Duration":511848,"SoundDuration":511848,"Delta":218586566},{"NoteNumber":42,"Velocity":54,"Duration":3103532,"SoundDuration":3103532,"Delta":219155287},{"NoteNumber":63,"Velocity":53,"Duration":1029865,"SoundDuration":1029865,"Delta":219687013},{"NoteNumber":72,"Velocity":53,"Duration":514933,"SoundDuration":514933,"Delta":219687013},{"NoteNumber":71,"Velocity":56,"Duration":257466,"SoundDuration":257466,"Delta":220201946},{"NoteNumber":72,"Velocity":58,"Duration":257466,"SoundDuration":257466,"Delta":220459413},{"NoteNumber":63,"Velocity":50,"Duration":1017951,"SoundDuration":1017951,"Delta":220716879},{"NoteNumber":74,"Velocity":59,"Duration":251508,"SoundDuration":251508,"Delta":220716879},{"NoteNumber":72,"Velocity":56,"Duration":251508,"SoundDuration":251508,"Delta":220968388},{"NoteNumber":71,"Velocity":56,"Duration":257466,"SoundDuration":257466,"Delta":221219897},{"NoteNumber":72,"Velocity":59,"Duration":257466,"SoundDuration":257466,"Delta":221477364},{"NoteNumber":63,"Velocity":61,"Duration":1578840,"SoundDuration":1578840,"Delta":221734830},{"NoteNumber":75,"Velocity":61,"Duration":251508,"SoundDuration":251508,"Delta":221734830},{"NoteNumber":74,"Velocity":60,"Duration":272479,"SoundDuration":272479,"Delta":221986339},{"NoteNumber":71,"Velocity":66,"Duration":1054852,"SoundDuration":1054852,"Delta":222258819},{"NoteNumber":43,"Velocity":49,"Duration":1582278,"SoundDuration":1582278,"Delta":222258819},{"NoteNumber":63,"Velocity":60,"Duration":2084519,"SoundDuration":2084519,"Delta":223313671},{"NoteNumber":72,"Velocity":60,"Duration":2084519,"SoundDuration":2084519,"Delta":223313671},{"NoteNumber":43,"Velocity":48,"Duration":467127,"SoundDuration":467127,"Delta":223841097},{"NoteNumber":43,"Velocity":50,"Duration":467127,"SoundDuration":467127,"Delta":224360128},{"NoteNumber":43,"Velocity":47,"Duration":467127,"SoundDuration":467127,"Delta":224879159},{"NoteNumber":44,"Velocity":55,"Duration":2054784,"SoundDuration":2054784,"Delta":225398190},{"NoteNumber":63,"Velocity":62,"Duration":463439,"SoundDuration":463439,"Delta":225917221},{"NoteNumber":72,"Velocity":62,"Duration":463439,"SoundDuration":463439,"Delta":225917221},{"NoteNumber":63,"Velocity":64,"Duration":460817,"SoundDuration":460817,"Delta":226432154},{"NoteNumber":72,"Velocity":64,"Duration":460817,"SoundDuration":460817,"Delta":226432154},{"NoteNumber":63,"Velocity":67,"Duration":458220,"SoundDuration":458220,"Delta":226944061},{"NoteNumber":72,"Velocity":67,"Duration":458220,"SoundDuration":458220,"Delta":226944061},{"NoteNumber":63,"Velocity":70,"Duration":455648,"SoundDuration":455648,"Delta":227452975},{"NoteNumber":72,"Velocity":70,"Duration":455648,"SoundDuration":455648,"Delta":227452975},{"NoteNumber":45,"Velocity":62,"Duration":1041951,"SoundDuration":1041951,"Delta":227452975},{"NoteNumber":63,"Velocity":72,"Duration":482401,"SoundDuration":482401,"Delta":227958925},{"NoteNumber":72,"Velocity":72,"Duration":482401,"SoundDuration":482401,"Delta":227958925},{"NoteNumber":73,"Velocity":74,"Duration":653993,"SoundDuration":653993,"Delta":228494927},{"NoteNumber":63,"Velocity":74,"Duration":1569584,"SoundDuration":1569584,"Delta":228494927},{"NoteNumber":46,"Velocity":62,"Duration":1046390,"SoundDuration":1046390,"Delta":228494927},{"NoteNumber":72,"Velocity":62,"Duration":130798,"SoundDuration":130798,"Delta":229148920},{"NoteNumber":70,"Velocity":57,"Duration":130798,"SoundDuration":130798,"Delta":229279719},{"NoteNumber":68,"Velocity":54,"Duration":130798,"SoundDuration":130798,"Delta":229410518},{"NoteNumber":67,"Velocity":66,"Duration":523194,"SoundDuration":523194,"Delta":229541317},{"NoteNumber":49,"Velocity":48,"Duration":1034093,"SoundDuration":1034093,"Delta":229541317},{"NoteNumber":79,"Velocity":67,"Duration":510898,"SoundDuration":510898,"Delta":230064512},{"NoteNumber":80,"Velocity":67,"Duration":510898,"SoundDuration":510898,"Delta":230575411},{"NoteNumber":48,"Velocity":54,"Duration":1038324,"SoundDuration":1038324,"Delta":230575411},{"NoteNumber":72,"Velocity":65,"Duration":782875,"SoundDuration":782875,"Delta":231086310},{"NoteNumber":49,"Velocity":44,"Duration":1063613,"SoundDuration":1063613,"Delta":231613736},{"NoteNumber":70,"Velocity":56,"Duration":255449,"SoundDuration":255449,"Delta":231869185},{"NoteNumber":73,"Velocity":60,"Duration":255449,"SoundDuration":255449,"Delta":232124635},{"NoteNumber":77,"Velocity":55,"Duration":297265,"SoundDuration":297265,"Delta":232380084},{"NoteNumber":68,"Velocity":63,"Duration":1591349,"SoundDuration":1591349,"Delta":232677349},{"NoteNumber":51,"Velocity":43,"Duration":1046390,"SoundDuration":1046390,"Delta":232677349},{"NoteNumber":60,"Velocity":43,"Duration":1046390,"SoundDuration":1046390,"Delta":232677349},{"NoteNumber":51,"Velocity":36,"Duration":1123662,"SoundDuration":1123662,"Delta":233723739},{"NoteNumber":61,"Velocity":36,"Duration":1123662,"SoundDuration":1123662,"Delta":233723739},{"NoteNumber":67,"Velocity":55,"Duration":578703,"SoundDuration":578703,"Delta":234268698},{"NoteNumber":72,"Velocity":55,"Duration":289351,"SoundDuration":289351,"Delta":234268698},{"NoteNumber":70,"Velocity":55,"Duration":289351,"SoundDuration":289351,"Delta":234558050},{"NoteNumber":68,"Velocity":46,"Duration":1029865,"SoundDuration":1029865,"Delta":234847402},{"NoteNumber":56,"Velocity":33,"Duration":257466,"SoundDuration":257466,"Delta":234847402},{"NoteNumber":60,"Velocity":26,"Duration":257466,"SoundDuration":257466,"Delta":235104868},{"NoteNumber":63,"Velocity":27,"Duration":257466,"SoundDuration":257466,"Delta":235362335},{"NoteNumber":60,"Velocity":25,"Duration":257466,"SoundDuration":257466,"Delta":235619801},{"NoteNumber":56,"Velocity":30,"Duration":257466,"SoundDuration":257466,"Delta":235877268},{"NoteNumber":60,"Velocity":26,"Duration":257466,"SoundDuration":257466,"Delta":236134734},{"NoteNumber":68,"Velocity":46,"Duration":510898,"SoundDuration":510898,"Delta":236392201},{"NoteNumber":72,"Velocity":46,"Duration":510898,"SoundDuration":510898,"Delta":236392201},{"NoteNumber":63,"Velocity":29,"Duration":255449,"SoundDuration":255449,"Delta":236392201},{"NoteNumber":60,"Velocity":26,"Duration":255449,"SoundDuration":255449,"Delta":236647650},{"NoteNumber":68,"Velocity":49,"Duration":510898,"SoundDuration":510898,"Delta":236903100},{"NoteNumber":72,"Velocity":49,"Duration":510898,"SoundDuration":510898,"Delta":236903100},{"NoteNumber":56,"Velocity":33,"Duration":255449,"SoundDuration":255449,"Delta":236903100},{"NoteNumber":60,"Velocity":27,"Duration":255449,"SoundDuration":255449,"Delta":237158549},{"NoteNumber":68,"Velocity":46,"Duration":531726,"SoundDuration":531726,"Delta":237413999},{"NoteNumber":72,"Velocity":46,"Duration":531726,"SoundDuration":531726,"Delta":237413999},{"NoteNumber":63,"Velocity":29,"Duration":265863,"SoundDuration":265863,"Delta":237413999},{"NoteNumber":60,"Velocity":27,"Duration":265863,"SoundDuration":265863,"Delta":237679862},{"NoteNumber":70,"Velocity":58,"Duration":1549223,"SoundDuration":1549223,"Delta":237945725},{"NoteNumber":72,"Velocity":58,"Duration":1549223,"SoundDuration":1549223,"Delta":237945725},{"NoteNumber":77,"Velocity":58,"Duration":527425,"SoundDuration":527425,"Delta":237945725},{"NoteNumber":55,"Velocity":36,"Duration":263712,"SoundDuration":263712,"Delta":237945725},{"NoteNumber":58,"Velocity":26,"Duration":263712,"SoundDuration":263712,"Delta":238209438},{"NoteNumber":76,"Velocity":46,"Duration":1021797,"SoundDuration":1021797,"Delta":238473151},{"NoteNumber":60,"Velocity":27,"Duration":255449,"SoundDuration":255449,"Delta":238473151},{"NoteNumber":58,"Velocity":26,"Duration":255449,"SoundDuration":255449,"Delta":238728601},{"NoteNumber":55,"Velocity":32,"Duration":255449,"SoundDuration":255449,"Delta":238984050},{"NoteNumber":58,"Velocity":26,"Duration":255449,"SoundDuration":255449,"Delta":239239500},{"NoteNumber":70,"Velocity":47,"Duration":510898,"SoundDuration":510898,"Delta":239494949},{"NoteNumber":72,"Velocity":47,"Duration":510898,"SoundDuration":510898,"Delta":239494949},{"NoteNumber":60,"Velocity":27,"Duration":255449,"SoundDuration":255449,"Delta":239494949},{"NoteNumber":58,"Velocity":25,"Duration":255449,"SoundDuration":255449,"Delta":239750399},{"NoteNumber":70,"Velocity":51,"Duration":510898,"SoundDuration":510898,"Delta":240005848},{"NoteNumber":72,"Velocity":51,"Duration":510898,"SoundDuration":510898,"Delta":240005848},{"NoteNumber":55,"Velocity":32,"Duration":255449,"SoundDuration":255449,"Delta":240005848},{"NoteNumber":58,"Velocity":27,"Duration":255449,"SoundDuration":255449,"Delta":240261298},{"NoteNumber":70,"Velocity":47,"Duration":510899,"SoundDuration":510899,"Delta":240516747},{"NoteNumber":72,"Velocity":47,"Duration":510899,"SoundDuration":510899,"Delta":240516747},{"NoteNumber":60,"Velocity":27,"Duration":255449,"SoundDuration":255449,"Delta":240516747},{"NoteNumber":58,"Velocity":25,"Duration":255449,"SoundDuration":255449,"Delta":240772197},{"NoteNumber":79,"Velocity":59,"Duration":527425,"SoundDuration":527425,"Delta":241027646},{"NoteNumber":68,"Velocity":59,"Duration":1549223,"SoundDuration":1549223,"Delta":241027646},{"NoteNumber":72,"Velocity":59,"Duration":1549223,"SoundDuration":1549223,"Delta":241027646},{"NoteNumber":53,"Velocity":36,"Duration":263712,"SoundDuration":263712,"Delta":241027646},{"NoteNumber":56,"Velocity":27,"Duration":263712,"SoundDuration":263712,"Delta":241291359},{"NoteNumber":77,"Velocity":51,"Duration":1021797,"SoundDuration":1021797,"Delta":241555072},{"NoteNumber":60,"Velocity":30,"Duration":255449,"SoundDuration":255449,"Delta":241555072},{"NoteNumber":56,"Velocity":27,"Duration":255449,"SoundDuration":255449,"Delta":241810522},{"NoteNumber":53,"Velocity":32,"Duration":255449,"SoundDuration":255449,"Delta":242065971},{"NoteNumber":56,"Velocity":26,"Duration":255449,"SoundDuration":255449,"Delta":242321421},{"NoteNumber":68,"Velocity":51,"Duration":519031,"SoundDuration":519031,"Delta":242576870},{"NoteNumber":72,"Velocity":51,"Duration":519031,"SoundDuration":519031,"Delta":242576870},{"NoteNumber":60,"Velocity":27,"Duration":259515,"SoundDuration":259515,"Delta":242576870},{"NoteNumber":56,"Velocity":26,"Duration":259515,"SoundDuration":259515,"Delta":242836386},{"NoteNumber":68,"Velocity":54,"Duration":523194,"SoundDuration":523194,"Delta":243095901},{"NoteNumber":72,"Velocity":54,"Duration":523194,"SoundDuration":523194,"Delta":243095901},{"NoteNumber":53,"Velocity":32,"Duration":261597,"SoundDuration":261597,"Delta":243095901},{"NoteNumber":56,"Velocity":27,"Duration":261597,"SoundDuration":261597,"Delta":243357499},{"NoteNumber":68,"Velocity":49,"Duration":540443,"SoundDuration":540443,"Delta":243619096},{"NoteNumber":72,"Velocity":49,"Duration":540443,"SoundDuration":540443,"Delta":243619096},{"NoteNumber":60,"Velocity":29,"Duration":270221,"SoundDuration":270221,"Delta":243619096},{"NoteNumber":56,"Velocity":27,"Duration":270221,"SoundDuration":270221,"Delta":243889318},{"NoteNumber":80,"Velocity":64,"Duration":523194,"SoundDuration":523194,"Delta":244159539},{"NoteNumber":68,"Velocity":64,"Duration":1561323,"SoundDuration":1561323,"Delta":244159539},{"NoteNumber":72,"Velocity":64,"Duration":1561323,"SoundDuration":1561323,"Delta":244159539},{"NoteNumber":51,"Velocity":36,"Duration":261597,"SoundDuration":261597,"Delta":244159539},{"NoteNumber":54,"Velocity":30,"Duration":261597,"SoundDuration":261597,"Delta":244421137},{"NoteNumber":78,"Velocity":60,"Duration":1038128,"SoundDuration":1038128,"Delta":244682734},{"NoteNumber":56,"Velocity":32,"Duration":261597,"SoundDuration":261597,"Delta":244682734},{"NoteNumber":54,"Velocity":29,"Duration":261597,"SoundDuration":261597,"Delta":244944332},{"NoteNumber":51,"Velocity":36,"Duration":257466,"SoundDuration":257466,"Delta":245205929},{"NoteNumber":54,"Velocity":29,"Duration":257466,"SoundDuration":257466,"Delta":245463396},{"NoteNumber":68,"Velocity":50,"Duration":456235,"SoundDuration":456235,"Delta":245720862},{"NoteNumber":72,"Velocity":50,"Duration":456235,"SoundDuration":456235,"Delta":245720862},{"NoteNumber":56,"Velocity":32,"Duration":253464,"SoundDuration":253464,"Delta":245720862},{"NoteNumber":54,"Velocity":29,"Duration":253463,"SoundDuration":253463,"Delta":245974326},{"NoteNumber":68,"Velocity":55,"Duration":456235,"SoundDuration":456235,"Delta":246227790},{"NoteNumber":72,"Velocity":55,"Duration":456235,"SoundDuration":456235,"Delta":246227790},{"NoteNumber":51,"Velocity":35,"Duration":253464,"SoundDuration":253464,"Delta":246227790},{"NoteNumber":54,"Velocity":29,"Duration":253464,"SoundDuration":253464,"Delta":246481254},{"NoteNumber":68,"Velocity":51,"Duration":456235,"SoundDuration":456235,"Delta":246734718},{"NoteNumber":72,"Velocity":51,"Duration":456235,"SoundDuration":456235,"Delta":246734718},{"NoteNumber":56,"Velocity":31,"Duration":253464,"SoundDuration":253464,"Delta":246734718},{"NoteNumber":54,"Velocity":27,"Duration":253463,"SoundDuration":253463,"Delta":246988182},{"NoteNumber":78,"Velocity":61,"Duration":527425,"SoundDuration":527425,"Delta":247241646},{"NoteNumber":68,"Velocity":61,"Duration":1549223,"SoundDuration":1549223,"Delta":247241646},{"NoteNumber":73,"Velocity":61,"Duration":1549223,"SoundDuration":1549223,"Delta":247241646},{"NoteNumber":49,"Velocity":40,"Duration":263712,"SoundDuration":263712,"Delta":247241646},{"NoteNumber":52,"Velocity":34,"Duration":263712,"SoundDuration":263712,"Delta":247505359},{"NoteNumber":76,"Velocity":56,"Duration":1021797,"SoundDuration":1021797,"Delta":247769072},{"NoteNumber":56,"Velocity":36,"Duration":255449,"SoundDuration":255449,"Delta":247769072},{"NoteNumber":52,"Velocity":33,"Duration":255449,"SoundDuration":255449,"Delta":248024522},{"NoteNumber":49,"Velocity":40,"Duration":255449,"SoundDuration":255449,"Delta":248279971},{"NoteNumber":52,"Velocity":33,"Duration":255449,"SoundDuration":255449,"Delta":248535421},{"NoteNumber":68,"Velocity":59,"Duration":510899,"SoundDuration":510899,"Delta":248790870},{"NoteNumber":76,"Velocity":59,"Duration":510899,"SoundDuration":510899,"Delta":248790870},{"NoteNumber":56,"Velocity":36,"Duration":255449,"SoundDuration":255449,"Delta":248790870},{"NoteNumber":52,"Velocity":33,"Duration":255449,"SoundDuration":255449,"Delta":249046320},{"NoteNumber":68,"Velocity":64,"Duration":519031,"SoundDuration":519031,"Delta":249301769},{"NoteNumber":76,"Velocity":64,"Duration":519031,"SoundDuration":519031,"Delta":249301769},{"NoteNumber":47,"Velocity":39,"Duration":259515,"SoundDuration":259515,"Delta":249301769},{"NoteNumber":51,"Velocity":34,"Duration":259515,"SoundDuration":259515,"Delta":249561285},{"NoteNumber":68,"Velocity":59,"Duration":540443,"SoundDuration":540443,"Delta":249820800},{"NoteNumber":75,"Velocity":59,"Duration":540443,"SoundDuration":540443,"Delta":249820800},{"NoteNumber":56,"Velocity":36,"Duration":270221,"SoundDuration":270221,"Delta":249820800},{"NoteNumber":51,"Velocity":33,"Duration":270221,"SoundDuration":270221,"Delta":250091022},{"NoteNumber":68,"Velocity":65,"Duration":1583064,"SoundDuration":1583064,"Delta":250361243},{"NoteNumber":75,"Velocity":65,"Duration":810664,"SoundDuration":810664,"Delta":250361243},{"NoteNumber":46,"Velocity":36,"Duration":1583064,"SoundDuration":1583064,"Delta":250361243},{"NoteNumber":53,"Velocity":36,"Duration":1583064,"SoundDuration":1583064,"Delta":250361243},{"NoteNumber":77,"Velocity":52,"Duration":128733,"SoundDuration":128733,"Delta":251171908},{"NoteNumber":75,"Velocity":49,"Duration":128733,"SoundDuration":128733,"Delta":251300641},{"NoteNumber":74,"Velocity":52,"Duration":514933,"SoundDuration":514933,"Delta":251429374},{"NoteNumber":62,"Velocity":45,"Duration":536001,"SoundDuration":536001,"Delta":251944307},{"NoteNumber":68,"Velocity":45,"Duration":536001,"SoundDuration":536001,"Delta":251944307},{"NoteNumber":46,"Velocity":29,"Duration":536001,"SoundDuration":536001,"Delta":251944307},{"NoteNumber":53,"Velocity":29,"Duration":536001,"SoundDuration":536001,"Delta":251944307},{"NoteNumber":62,"Velocity":47,"Duration":536001,"SoundDuration":536001,"Delta":252480309},{"NoteNumber":68,"Velocity":47,"Duration":536001,"SoundDuration":536001,"Delta":252480309},{"NoteNumber":46,"Velocity":32,"Duration":536001,"SoundDuration":536001,"Delta":252480309},{"NoteNumber":53,"Velocity":32,"Duration":536001,"SoundDuration":536001,"Delta":252480309},{"NoteNumber":62,"Velocity":45,"Duration":536001,"SoundDuration":536001,"Delta":253016310},{"NoteNumber":68,"Velocity":45,"Duration":536001,"SoundDuration":536001,"Delta":253016310},{"NoteNumber":46,"Velocity":29,"Duration":536001,"SoundDuration":536001,"Delta":253016310},{"NoteNumber":53,"Velocity":29,"Duration":536001,"SoundDuration":536001,"Delta":253016310},{"NoteNumber":62,"Velocity":47,"Duration":1072002,"SoundDuration":1072002,"Delta":253552312},{"NoteNumber":68,"Velocity":47,"Duration":1072002,"SoundDuration":1072002,"Delta":253552312},{"NoteNumber":46,"Velocity":32,"Duration":1072002,"SoundDuration":1072002,"Delta":253552312},{"NoteNumber":53,"Velocity":32,"Duration":1072002,"SoundDuration":1072002,"Delta":253552312},{"NoteNumber":74,"Velocity":39,"Duration":498799,"SoundDuration":498799,"Delta":255160316},{"NoteNumber":80,"Velocity":39,"Duration":498799,"SoundDuration":498799,"Delta":255160316},{"NoteNumber":65,"Velocity":27,"Duration":498799,"SoundDuration":498799,"Delta":255160316},{"NoteNumber":58,"Velocity":27,"Duration":498799,"SoundDuration":498799,"Delta":255160316},{"NoteNumber":74,"Velocity":39,"Duration":498799,"SoundDuration":498799,"Delta":255714538},{"NoteNumber":80,"Velocity":39,"Duration":498799,"SoundDuration":498799,"Delta":255714538},{"NoteNumber":65,"Velocity":27,"Duration":498799,"SoundDuration":498799,"Delta":255714538},{"NoteNumber":58,"Velocity":27,"Duration":498799,"SoundDuration":498799,"Delta":255714538},{"NoteNumber":74,"Velocity":39,"Duration":525496,"SoundDuration":525496,"Delta":256268759},{"NoteNumber":80,"Velocity":39,"Duration":525496,"SoundDuration":525496,"Delta":256268759},{"NoteNumber":65,"Velocity":27,"Duration":525496,"SoundDuration":525496,"Delta":256268759},{"NoteNumber":58,"Velocity":27,"Duration":525496,"SoundDuration":525496,"Delta":256268759},{"NoteNumber":74,"Velocity":43,"Duration":1266218,"SoundDuration":1266218,"Delta":256852644},{"NoteNumber":80,"Velocity":43,"Duration":660647,"SoundDuration":660647,"Delta":256852644},{"NoteNumber":58,"Velocity":31,"Duration":1266218,"SoundDuration":1266218,"Delta":256852644},{"NoteNumber":65,"Velocity":31,"Duration":1266218,"SoundDuration":1266218,"Delta":256852644},{"NoteNumber":82,"Velocity":34,"Duration":75696,"SoundDuration":75696,"Delta":257513292},{"NoteNumber":80,"Velocity":36,"Duration":75696,"SoundDuration":75696,"Delta":257588988},{"NoteNumber":79,"Velocity":39,"Duration":75696,"SoundDuration":75696,"Delta":257664685},{"NoteNumber":80,"Velocity":41,"Duration":75696,"SoundDuration":75696,"Delta":257740381},{"NoteNumber":82,"Velocity":40,"Duration":151392,"SoundDuration":151392,"Delta":257816078},{"NoteNumber":84,"Velocity":37,"Duration":151392,"SoundDuration":151392,"Delta":257967471},{"NoteNumber":82,"Velocity":43,"Duration":268000,"SoundDuration":268000,"Delta":258118863},{"NoteNumber":80,"Velocity":40,"Duration":268000,"SoundDuration":268000,"Delta":258386864},{"NoteNumber":79,"Velocity":44,"Duration":268000,"SoundDuration":268000,"Delta":258654865},{"NoteNumber":77,"Velocity":44,"Duration":268000,"SoundDuration":268000,"Delta":258922866},{"NoteNumber":75,"Velocity":46,"Duration":265864,"SoundDuration":265864,"Delta":259190866},{"NoteNumber":74,"Velocity":44,"Duration":271733,"SoundDuration":271733,"Delta":259456731},{"NoteNumber":72,"Velocity":44,"Duration":275579,"SoundDuration":275579,"Delta":259728464},{"NoteNumber":70,"Velocity":44,"Duration":288199,"SoundDuration":288199,"Delta":260004044},{"NoteNumber":70,"Velocity":46,"Duration":791138,"SoundDuration":791138,"Delta":260320642},{"NoteNumber":67,"Velocity":46,"Duration":1054799,"SoundDuration":1054799,"Delta":260320642},{"NoteNumber":51,"Velocity":39,"Duration":2084718,"SoundDuration":2084718,"Delta":260320642},{"NoteNumber":72,"Velocity":46,"Duration":131856,"SoundDuration":131856,"Delta":261109583},{"NoteNumber":70,"Velocity":46,"Duration":131856,"SoundDuration":131856,"Delta":261241439},{"NoteNumber":65,"Velocity":44,"Duration":514932,"SoundDuration":514932,"Delta":261373296},{"NoteNumber":68,"Velocity":44,"Duration":514932,"SoundDuration":514932,"Delta":261373296},{"NoteNumber":63,"Velocity":42,"Duration":514933,"SoundDuration":514933,"Delta":261888229},{"NoteNumber":67,"Velocity":42,"Duration":514933,"SoundDuration":514933,"Delta":261888229},{"NoteNumber":68,"Velocity":43,"Duration":527425,"SoundDuration":527425,"Delta":262403162},{"NoteNumber":72,"Velocity":43,"Duration":527425,"SoundDuration":527425,"Delta":262403162},{"NoteNumber":67,"Velocity":41,"Duration":513668,"SoundDuration":513668,"Delta":262930588},{"NoteNumber":70,"Velocity":41,"Duration":513668,"SoundDuration":513668,"Delta":262930588},{"NoteNumber":70,"Velocity":45,"Duration":760392,"SoundDuration":760392,"Delta":263466589},{"NoteNumber":67,"Velocity":45,"Duration":1013855,"SoundDuration":1013855,"Delta":263466589},{"NoteNumber":51,"Velocity":37,"Duration":253464,"SoundDuration":253464,"Delta":263466589},{"NoteNumber":55,"Velocity":33,"Duration":253464,"SoundDuration":253464,"Delta":263720053},{"NoteNumber":58,"Velocity":36,"Duration":253464,"SoundDuration":253464,"Delta":263973517},{"NoteNumber":72,"Velocity":42,"Duration":126731,"SoundDuration":126731,"Delta":264226981},{"NoteNumber":51,"Velocity":33,"Duration":253463,"SoundDuration":253463,"Delta":264226981},{"NoteNumber":70,"Velocity":42,"Duration":126732,"SoundDuration":126732,"Delta":264353713},{"NoteNumber":68,"Velocity":47,"Duration":1038062,"SoundDuration":1038062,"Delta":264480445},{"NoteNumber":53,"Velocity":40,"Duration":259515,"SoundDuration":259515,"Delta":264480445},{"NoteNumber":56,"Velocity":32,"Duration":259515,"SoundDuration":259515,"Delta":264739961},{"NoteNumber":62,"Velocity":35,"Duration":259515,"SoundDuration":259515,"Delta":264999476},{"NoteNumber":53,"Velocity":33,"Duration":259515,"SoundDuration":259515,"Delta":265258992},{"NoteNumber":67,"Velocity":47,"Duration":1297577,"SoundDuration":1297577,"Delta":265518507},{"NoteNumber":55,"Velocity":40,"Duration":259515,"SoundDuration":259515,"Delta":265518507},{"NoteNumber":58,"Velocity":32,"Duration":259515,"SoundDuration":259515,"Delta":265778023},{"NoteNumber":63,"Velocity":36,"Duration":259515,"SoundDuration":259515,"Delta":266037538},{"NoteNumber":55,"Velocity":33,"Duration":259515,"SoundDuration":259515,"Delta":266297054},{"NoteNumber":56,"Velocity":41,"Duration":3084480,"SoundDuration":3084480,"Delta":266556569},{"NoteNumber":60,"Velocity":41,"Duration":3084480,"SoundDuration":3084480,"Delta":266556569},{"NoteNumber":64,"Velocity":44,"Duration":259515,"SoundDuration":259515,"Delta":266816085},{"NoteNumber":65,"Velocity":45,"Duration":259173,"SoundDuration":259173,"Delta":267075600},{"NoteNumber":67,"Velocity":46,"Duration":257466,"SoundDuration":257466,"Delta":267334774},{"NoteNumber":68,"Velocity":49,"Duration":256458,"SoundDuration":256458,"Delta":267592241},{"NoteNumber":69,"Velocity":51,"Duration":255449,"SoundDuration":255449,"Delta":267848699},{"NoteNumber":70,"Velocity":52,"Duration":254125,"SoundDuration":254125,"Delta":268104148},{"NoteNumber":71,"Velocity":54,"Duration":253464,"SoundDuration":253464,"Delta":268358274},{"NoteNumber":74,"Velocity":56,"Duration":126732,"SoundDuration":126732,"Delta":268611738},{"NoteNumber":72,"Velocity":54,"Duration":127062,"SoundDuration":127062,"Delta":268738470},{"NoteNumber":71,"Velocity":52,"Duration":127724,"SoundDuration":127724,"Delta":268865533},{"NoteNumber":72,"Velocity":54,"Duration":128397,"SoundDuration":128397,"Delta":268993258},{"NoteNumber":70,"Velocity":52,"Duration":128733,"SoundDuration":128733,"Delta":269121655},{"NoteNumber":68,"Velocity":49,"Duration":129757,"SoundDuration":129757,"Delta":269250388},{"NoteNumber":67,"Velocity":51,"Duration":130104,"SoundDuration":130104,"Delta":269380146},{"NoteNumber":65,"Velocity":50,"Duration":130798,"SoundDuration":130798,"Delta":269510251},{"NoteNumber":55,"Velocity":54,"Duration":1054851,"SoundDuration":1054851,"Delta":269641049},{"NoteNumber":63,"Velocity":54,"Duration":1054851,"SoundDuration":1054851,"Delta":269641049},{"NoteNumber":45,"Velocity":44,"Duration":263712,"SoundDuration":263712,"Delta":269641049},{"NoteNumber":46,"Velocity":46,"Duration":263712,"SoundDuration":263712,"Delta":269904762},{"NoteNumber":48,"Velocity":49,"Duration":263712,"SoundDuration":263712,"Delta":270168475},{"NoteNumber":46,"Velocity":45,"Duration":241736,"SoundDuration":241736,"Delta":270432188},{"NoteNumber":53,"Velocity":47,"Duration":131151,"SoundDuration":131151,"Delta":270695901},{"NoteNumber":62,"Velocity":47,"Duration":131151,"SoundDuration":131151,"Delta":270695901},{"NoteNumber":46,"Velocity":45,"Duration":1042925,"SoundDuration":1042925,"Delta":270695901},{"NoteNumber":58,"Velocity":49,"Duration":130798,"SoundDuration":130798,"Delta":270827053},{"NoteNumber":57,"Velocity":50,"Duration":130798,"SoundDuration":130798,"Delta":270957852},{"NoteNumber":58,"Velocity":51,"Duration":130798,"SoundDuration":130798,"Delta":271088650},{"NoteNumber":59,"Velocity":52,"Duration":130104,"SoundDuration":130104,"Delta":271219449},{"NoteNumber":60,"Velocity":53,"Duration":129757,"SoundDuration":129757,"Delta":271349554},{"NoteNumber":61,"Velocity":54,"Duration":129757,"SoundDuration":129757,"Delta":271479312},{"NoteNumber":62,"Velocity":54,"Duration":129757,"SoundDuration":129757,"Delta":271609069},{"NoteNumber":63,"Velocity":55,"Duration":129074,"SoundDuration":129074,"Delta":271738827},{"NoteNumber":64,"Velocity":56,"Duration":128733,"SoundDuration":128733,"Delta":271867902},{"NoteNumber":65,"Velocity":57,"Duration":128733,"SoundDuration":128733,"Delta":271996635},{"NoteNumber":66,"Velocity":59,"Duration":128733,"SoundDuration":128733,"Delta":272125368},{"NoteNumber":67,"Velocity":60,"Duration":128060,"SoundDuration":128060,"Delta":272254102},{"NoteNumber":68,"Velocity":61,"Duration":127724,"SoundDuration":127724,"Delta":272382162},{"NoteNumber":69,"Velocity":62,"Duration":134000,"SoundDuration":134000,"Delta":272509887},{"NoteNumber":70,"Velocity":63,"Duration":111666,"SoundDuration":111666,"Delta":272643888},{"NoteNumber":67,"Velocity":63,"Duration":1029929,"SoundDuration":1029929,"Delta":272777888},{"NoteNumber":70,"Velocity":63,"Duration":774480,"SoundDuration":774480,"Delta":272777888},{"NoteNumber":39,"Velocity":45,"Duration":1029929,"SoundDuration":1029929,"Delta":272777888},{"NoteNumber":51,"Velocity":45,"Duration":1029929,"SoundDuration":1029929,"Delta":272777888},{"NoteNumber":72,"Velocity":57,"Duration":127724,"SoundDuration":127724,"Delta":273552368},{"NoteNumber":70,"Velocity":53,"Duration":127724,"SoundDuration":127724,"Delta":273680093},{"NoteNumber":68,"Velocity":55,"Duration":127062,"SoundDuration":127062,"Delta":273807818},{"NoteNumber":67,"Velocity":54,"Duration":127393,"SoundDuration":127393,"Delta":273934881},{"NoteNumber":72,"Velocity":56,"Duration":128397,"SoundDuration":128397,"Delta":274062275},{"NoteNumber":70,"Velocity":53,"Duration":129757,"SoundDuration":129757,"Delta":274190672},{"NoteNumber":75,"Velocity":57,"Duration":130798,"SoundDuration":130798,"Delta":274320430},{"NoteNumber":74,"Velocity":55,"Duration":130798,"SoundDuration":130798,"Delta":274451228},{"NoteNumber":77,"Velocity":61,"Duration":130798,"SoundDuration":130798,"Delta":274582027},{"NoteNumber":75,"Velocity":55,"Duration":130798,"SoundDuration":130798,"Delta":274712826},{"NoteNumber":80,"Velocity":63,"Duration":131856,"SoundDuration":131856,"Delta":274843625},{"NoteNumber":51,"Velocity":53,"Duration":1054851,"SoundDuration":1054851,"Delta":274843625},{"NoteNumber":60,"Velocity":53,"Duration":1054851,"SoundDuration":1054851,"Delta":274843625},{"NoteNumber":79,"Velocity":59,"Duration":131856,"SoundDuration":131856,"Delta":274975481},{"NoteNumber":78,"Velocity":61,"Duration":131856,"SoundDuration":131856,"Delta":275107338},{"NoteNumber":79,"Velocity":61,"Duration":131856,"SoundDuration":131856,"Delta":275239194},{"NoteNumber":77,"Velocity":61,"Duration":131856,"SoundDuration":131856,"Delta":275371051},{"NoteNumber":75,"Velocity":59,"Duration":131856,"SoundDuration":131856,"Delta":275502907},{"NoteNumber":74,"Velocity":57,"Duration":131856,"SoundDuration":131856,"Delta":275634764},{"NoteNumber":72,"Velocity":55,"Duration":131856,"SoundDuration":131856,"Delta":275766620},{"NoteNumber":70,"Velocity":60,"Duration":527425,"SoundDuration":527425,"Delta":275898477},{"NoteNumber":53,"Velocity":51,"Duration":1054852,"SoundDuration":1054852,"Delta":275898477},{"NoteNumber":60,"Velocity":51,"Duration":1054852,"SoundDuration":1054852,"Delta":275898477},{"NoteNumber":69,"Velocity":63,"Duration":1054852,"SoundDuration":1054852,"Delta":276425903},{"NoteNumber":58,"Velocity":46,"Duration":527425,"SoundDuration":527425,"Delta":276953329},{"NoteNumber":62,"Velocity":46,"Duration":1054851,"SoundDuration":1054851,"Delta":276953329},{"NoteNumber":68,"Velocity":63,"Duration":791138,"SoundDuration":791138,"Delta":277480755},{"NoteNumber":59,"Velocity":40,"Duration":527425,"SoundDuration":527425,"Delta":277480755},{"NoteNumber":63,"Velocity":47,"Duration":1563864,"SoundDuration":1563864,"Delta":278008181},{"NoteNumber":60,"Velocity":47,"Duration":519162,"SoundDuration":519162,"Delta":278008181},{"NoteNumber":67,"Velocity":66,"Duration":255449,"SoundDuration":255449,"Delta":278271894},{"NoteNumber":75,"Velocity":68,"Duration":255449,"SoundDuration":255449,"Delta":278527343},{"NoteNumber":55,"Velocity":45,"Duration":525670,"SoundDuration":525670,"Delta":278527343},{"NoteNumber":73,"Velocity":64,"Duration":270221,"SoundDuration":270221,"Delta":278782793},{"NoteNumber":71,"Velocity":67,"Duration":259515,"SoundDuration":259515,"Delta":279053014},{"NoteNumber":56,"Velocity":50,"Duration":519030,"SoundDuration":519030,"Delta":279053014},{"NoteNumber":72,"Velocity":64,"Duration":259515,"SoundDuration":259515,"Delta":279312530},{"NoteNumber":74,"Velocity":69,"Duration":251508,"SoundDuration":251508,"Delta":279572045},{"NoteNumber":75,"Velocity":64,"Duration":230549,"SoundDuration":230549,"Delta":279823554},{"NoteNumber":75,"Velocity":70,"Duration":531726,"SoundDuration":531726,"Delta":280075063},{"NoteNumber":46,"Velocity":51,"Duration":2076525,"SoundDuration":2076525,"Delta":280075063},{"NoteNumber":55,"Velocity":51,"Duration":1046659,"SoundDuration":1046659,"Delta":280075063},{"NoteNumber":70,"Velocity":66,"Duration":772399,"SoundDuration":772399,"Delta":280606790},{"NoteNumber":56,"Velocity":37,"Duration":1029866,"SoundDuration":1029866,"Delta":281121723},{"NoteNumber":72,"Velocity":54,"Duration":128733,"SoundDuration":128733,"Delta":281379189},{"NoteNumber":70,"Velocity":50,"Duration":107277,"SoundDuration":107277,"Delta":281507922},{"NoteNumber":70,"Velocity":53,"Duration":128733,"SoundDuration":128733,"Delta":281636656},{"NoteNumber":68,"Velocity":45,"Duration":128733,"SoundDuration":128733,"Delta":281765389},{"NoteNumber":67,"Velocity":51,"Duration":128733,"SoundDuration":128733,"Delta":281894122},{"NoteNumber":65,"Velocity":45,"Duration":128733,"SoundDuration":128733,"Delta":282022855},{"NoteNumber":63,"Velocity":46,"Duration":1054851,"SoundDuration":1054851,"Delta":282151589},{"NoteNumber":51,"Velocity":30,"Duration":263712,"SoundDuration":263712,"Delta":282151589},{"NoteNumber":55,"Velocity":26,"Duration":263712,"SoundDuration":263712,"Delta":282415302},{"NoteNumber":58,"Velocity":27,"Duration":263712,"SoundDuration":263712,"Delta":282679015},{"NoteNumber":55,"Velocity":27,"Duration":263712,"SoundDuration":263712,"Delta":282942728},{"NoteNumber":51,"Velocity":30,"Duration":263712,"SoundDuration":263712,"Delta":283206441},{"NoteNumber":55,"Velocity":27,"Duration":263712,"SoundDuration":263712,"Delta":283470154},{"NoteNumber":67,"Velocity":46,"Duration":510898,"SoundDuration":510898,"Delta":283733867},{"NoteNumber":70,"Velocity":46,"Duration":510898,"SoundDuration":510898,"Delta":283733867},{"NoteNumber":58,"Velocity":29,"Duration":255449,"SoundDuration":255449,"Delta":283733867},{"NoteNumber":55,"Velocity":27,"Duration":255449,"SoundDuration":255449,"Delta":283989316},{"NoteNumber":67,"Velocity":50,"Duration":510898,"SoundDuration":510898,"Delta":284244766},{"NoteNumber":70,"Velocity":50,"Duration":510898,"SoundDuration":510898,"Delta":284244766},{"NoteNumber":51,"Velocity":33,"Duration":255449,"SoundDuration":255449,"Delta":284244766},{"NoteNumber":55,"Velocity":27,"Duration":255449,"SoundDuration":255449,"Delta":284500215},{"NoteNumber":67,"Velocity":46,"Duration":540442,"SoundDuration":540442,"Delta":284755665},{"NoteNumber":70,"Velocity":46,"Duration":540442,"SoundDuration":540442,"Delta":284755665},{"NoteNumber":58,"Velocity":29,"Duration":270221,"SoundDuration":270221,"Delta":284755665},{"NoteNumber":55,"Velocity":27,"Duration":270221,"SoundDuration":270221,"Delta":285025886},{"NoteNumber":68,"Velocity":54,"Duration":1582277,"SoundDuration":1582277,"Delta":285296108},{"NoteNumber":75,"Velocity":54,"Duration":527425,"SoundDuration":527425,"Delta":285296108},{"NoteNumber":51,"Velocity":36,"Duration":263712,"SoundDuration":263712,"Delta":285296108},{"NoteNumber":53,"Velocity":27,"Duration":263712,"SoundDuration":263712,"Delta":285559821},{"NoteNumber":74,"Velocity":46,"Duration":1054851,"SoundDuration":1054851,"Delta":285823534},{"NoteNumber":56,"Velocity":30,"Duration":263712,"SoundDuration":263712,"Delta":285823534},{"NoteNumber":53,"Velocity":27,"Duration":263712,"SoundDuration":263712,"Delta":286087247},{"NoteNumber":51,"Velocity":32,"Duration":263712,"SoundDuration":263712,"Delta":286350960},{"NoteNumber":53,"Velocity":27,"Duration":263712,"SoundDuration":263712,"Delta":286614673},{"NoteNumber":82,"Velocity":50,"Duration":255449,"SoundDuration":255449,"Delta":286878386},{"NoteNumber":56,"Velocity":27,"Duration":255449,"SoundDuration":255449,"Delta":286878386},{"NoteNumber":80,"Velocity":47,"Duration":255449,"SoundDuration":255449,"Delta":287133835},{"NoteNumber":53,"Velocity":26,"Duration":255449,"SoundDuration":255449,"Delta":287133835},{"NoteNumber":79,"Velocity":52,"Duration":255449,"SoundDuration":255449,"Delta":287389285},{"NoteNumber":51,"Velocity":32,"Duration":255449,"SoundDuration":255449,"Delta":287389285},{"NoteNumber":77,"Velocity":47,"Duration":255449,"SoundDuration":255449,"Delta":287644734},{"NoteNumber":53,"Velocity":27,"Duration":255449,"SoundDuration":255449,"Delta":287644734},{"NoteNumber":75,"Velocity":49,"Duration":255449,"SoundDuration":255449,"Delta":287900184},{"NoteNumber":56,"Velocity":27,"Duration":255449,"SoundDuration":255449,"Delta":287900184},{"NoteNumber":74,"Velocity":45,"Duration":255449,"SoundDuration":255449,"Delta":288155633},{"NoteNumber":53,"Velocity":27,"Duration":255449,"SoundDuration":255449,"Delta":288155633},{"NoteNumber":77,"Velocity":54,"Duration":87199,"SoundDuration":87199,"Delta":288411083},{"NoteNumber":51,"Velocity":33,"Duration":261597,"SoundDuration":261597,"Delta":288411083},{"NoteNumber":75,"Velocity":52,"Duration":653993,"SoundDuration":653993,"Delta":288498282},{"NoteNumber":55,"Velocity":26,"Duration":261597,"SoundDuration":261597,"Delta":288672680},{"NoteNumber":58,"Velocity":27,"Duration":261597,"SoundDuration":261597,"Delta":288934278},{"NoteNumber":74,"Velocity":49,"Duration":130798,"SoundDuration":130798,"Delta":289195875},{"NoteNumber":55,"Velocity":26,"Duration":261597,"SoundDuration":261597,"Delta":289195875},{"NoteNumber":72,"Velocity":45,"Duration":130798,"SoundDuration":130798,"Delta":289326674},{"NoteNumber":70,"Velocity":50,"Duration":501395,"SoundDuration":501395,"Delta":289457473},{"NoteNumber":51,"Velocity":31,"Duration":261597,"SoundDuration":261597,"Delta":289457473},{"NoteNumber":55,"Velocity":26,"Duration":261597,"SoundDuration":261597,"Delta":289719070},{"NoteNumber":67,"Velocity":49,"Duration":459809,"SoundDuration":459809,"Delta":289980668},{"NoteNumber":70,"Velocity":49,"Duration":459809,"SoundDuration":459809,"Delta":289980668},{"NoteNumber":58,"Velocity":27,"Duration":255449,"SoundDuration":255449,"Delta":289980668},{"NoteNumber":55,"Velocity":26,"Duration":255449,"SoundDuration":255449,"Delta":290236117},{"NoteNumber":67,"Velocity":53,"Duration":459809,"SoundDuration":459809,"Delta":290491567},{"NoteNumber":70,"Velocity":53,"Duration":459809,"SoundDuration":459809,"Delta":290491567},{"NoteNumber":51,"Velocity":33,"Duration":255449,"SoundDuration":255449,"Delta":290491567},{"NoteNumber":55,"Velocity":27,"Duration":255449,"SoundDuration":255449,"Delta":290747016},{"NoteNumber":67,"Velocity":49,"Duration":470875,"SoundDuration":470875,"Delta":291002466},{"NoteNumber":70,"Velocity":49,"Duration":470875,"SoundDuration":470875,"Delta":291002466},{"NoteNumber":58,"Velocity":30,"Duration":261597,"SoundDuration":261597,"Delta":291002466},{"NoteNumber":55,"Velocity":27,"Duration":261597,"SoundDuration":261597,"Delta":291264063},{"NoteNumber":68,"Velocity":62,"Duration":523194,"SoundDuration":523194,"Delta":291525661},{"NoteNumber":75,"Velocity":62,"Duration":261597,"SoundDuration":261597,"Delta":291525661},{"NoteNumber":51,"Velocity":36,"Duration":261597,"SoundDuration":261597,"Delta":291525661},{"NoteNumber":74,"Velocity":55,"Duration":261597,"SoundDuration":261597,"Delta":291787258},{"NoteNumber":53,"Velocity":25,"Duration":261597,"SoundDuration":261597,"Delta":291787258},{"NoteNumber":84,"Velocity":60,"Duration":1046390,"SoundDuration":1046390,"Delta":292048856},{"NoteNumber":56,"Velocity":27,"Duration":261597,"SoundDuration":261597,"Delta":292048856},{"NoteNumber":53,"Velocity":24,"Duration":261597,"SoundDuration":261597,"Delta":292310453},{"NoteNumber":51,"Velocity":29,"Duration":261597,"SoundDuration":261597,"Delta":292572051},{"NoteNumber":53,"Velocity":23,"Duration":261597,"SoundDuration":261597,"Delta":292833648},{"NoteNumber":82,"Velocity":50,"Duration":126732,"SoundDuration":126732,"Delta":293095246},{"NoteNumber":56,"Velocity":27,"Duration":253464,"SoundDuration":253464,"Delta":293095246},{"NoteNumber":80,"Velocity":49,"Duration":126732,"SoundDuration":126732,"Delta":293221978},{"NoteNumber":84,"Velocity":52,"Duration":126732,"SoundDuration":126732,"Delta":293348710},{"NoteNumber":53,"Velocity":23,"Duration":253464,"SoundDuration":253464,"Delta":293348710},{"NoteNumber":80,"Velocity":49,"Duration":126732,"SoundDuration":126732,"Delta":293475442},{"NoteNumber":79,"Velocity":51,"Duration":126732,"SoundDuration":126732,"Delta":293602174},{"NoteNumber":51,"Velocity":30,"Duration":253464,"SoundDuration":253464,"Delta":293602174},{"NoteNumber":77,"Velocity":49,"Duration":126732,"SoundDuration":126732,"Delta":293728906},{"NoteNumber":80,"Velocity":51,"Duration":126731,"SoundDuration":126731,"Delta":293855638},{"NoteNumber":53,"Velocity":26,"Duration":253463,"SoundDuration":253463,"Delta":293855638},{"NoteNumber":77,"Velocity":49,"Duration":126732,"SoundDuration":126732,"Delta":293982370},{"NoteNumber":75,"Velocity":51,"Duration":126732,"SoundDuration":126732,"Delta":294109102},{"NoteNumber":56,"Velocity":26,"Duration":253464,"SoundDuration":253464,"Delta":294109102},{"NoteNumber":74,"Velocity":49,"Duration":126732,"SoundDuration":126732,"Delta":294235834},{"NoteNumber":77,"Velocity":52,"Duration":126732,"SoundDuration":126732,"Delta":294362566},{"NoteNumber":53,"Velocity":25,"Duration":253464,"SoundDuration":253464,"Delta":294362566},{"NoteNumber":74,"Velocity":49,"Duration":126732,"SoundDuration":126732,"Delta":294489298},{"NoteNumber":75,"Velocity":54,"Duration":126732,"SoundDuration":126732,"Delta":294616030},{"NoteNumber":51,"Velocity":27,"Duration":1016214,"SoundDuration":1016214,"Delta":294616030},{"NoteNumber":55,"Velocity":27,"Duration":1016214,"SoundDuration":1016214,"Delta":294616030},{"NoteNumber":77,"Velocity":52,"Duration":126732,"SoundDuration":126732,"Delta":294742762},{"NoteNumber":75,"Velocity":52,"Duration":126732,"SoundDuration":126732,"Delta":294869494},{"NoteNumber":74,"Velocity":52,"Duration":126732,"SoundDuration":126732,"Delta":294996226},{"NoteNumber":75,"Velocity":50,"Duration":83836,"SoundDuration":83836,"Delta":295122958},{"NoteNumber":76,"Velocity":47,"Duration":84162,"SoundDuration":84162,"Delta":295206794},{"NoteNumber":77,"Velocity":50,"Duration":84488,"SoundDuration":84488,"Delta":295290956},{"NoteNumber":78,"Velocity":53,"Duration":127724,"SoundDuration":127724,"Delta":295375444},{"NoteNumber":79,"Velocity":54,"Duration":129074,"SoundDuration":129074,"Delta":295503169},{"NoteNumber":70,"Velocity":50,"Duration":506928,"SoundDuration":506928,"Delta":295632244},{"NoteNumber":67,"Velocity":45,"Duration":544959,"SoundDuration":544959,"Delta":296139172},{"NoteNumber":70,"Velocity":45,"Duration":544959,"SoundDuration":544959,"Delta":296139172},{"NoteNumber":55,"Velocity":32,"Duration":544959,"SoundDuration":544959,"Delta":296139172},{"NoteNumber":65,"Velocity":47,"Duration":568720,"SoundDuration":568720,"Delta":296684131},{"NoteNumber":68,"Velocity":47,"Duration":568720,"SoundDuration":568720,"Delta":296684131},{"NoteNumber":56,"Velocity":34,"Duration":568720,"SoundDuration":568720,"Delta":296684131},{"NoteNumber":63,"Velocity":51,"Duration":569758,"SoundDuration":569758,"Delta":297252851},{"NoteNumber":67,"Velocity":51,"Duration":569758,"SoundDuration":569758,"Delta":297252851},{"NoteNumber":57,"Velocity":35,"Duration":594530,"SoundDuration":594530,"Delta":297252851},{"NoteNumber":63,"Velocity":58,"Duration":1082381,"SoundDuration":1082381,"Delta":297847382},{"NoteNumber":70,"Velocity":58,"Duration":262302,"SoundDuration":262302,"Delta":297847382},{"NoteNumber":58,"Velocity":37,"Duration":1366741,"SoundDuration":1366741,"Delta":297847382},{"NoteNumber":69,"Velocity":49,"Duration":265861,"SoundDuration":265861,"Delta":298109684},{"NoteNumber":70,"Velocity":53,"Duration":269857,"SoundDuration":269857,"Delta":298375545},{"NoteNumber":67,"Velocity":42,"Duration":284360,"SoundDuration":284360,"Delta":298645403},{"NoteNumber":62,"Velocity":38,"Duration":1075499,"SoundDuration":1075499,"Delta":298929763},{"NoteNumber":65,"Velocity":38,"Duration":1075499,"SoundDuration":1075499,"Delta":298929763},{"NoteNumber":59,"Velocity":41,"Duration":263712,"SoundDuration":263712,"Delta":299214123},{"NoteNumber":60,"Velocity":45,"Duration":263712,"SoundDuration":263712,"Delta":299477836},{"NoteNumber":58,"Velocity":43,"Duration":241736,"SoundDuration":241736,"Delta":299741549},{"NoteNumber":58,"Velocity":45,"Duration":263712,"SoundDuration":263712,"Delta":300005262},{"NoteNumber":56,"Velocity":44,"Duration":263712,"SoundDuration":263712,"Delta":300268975},{"NoteNumber":55,"Velocity":45,"Duration":264429,"SoundDuration":264429,"Delta":300532688},{"NoteNumber":53,"Velocity":45,"Duration":265863,"SoundDuration":265863,"Delta":300797118},{"NoteNumber":70,"Velocity":67,"Duration":132931,"SoundDuration":132931,"Delta":300930050},{"NoteNumber":82,"Velocity":73,"Duration":1582277,"SoundDuration":1582277,"Delta":301062981},{"NoteNumber":51,"Velocity":53,"Duration":527425,"SoundDuration":527425,"Delta":301062981},{"NoteNumber":55,"Velocity":45,"Duration":527425,"SoundDuration":527425,"Delta":301590407},{"NoteNumber":58,"Velocity":47,"Duration":527425,"SoundDuration":527425,"Delta":302117833},{"NoteNumber":80,"Velocity":70,"Duration":131856,"SoundDuration":131856,"Delta":302645259},{"NoteNumber":63,"Velocity":45,"Duration":527426,"SoundDuration":527426,"Delta":302645259},{"NoteNumber":79,"Velocity":66,"Duration":131856,"SoundDuration":131856,"Delta":302777116},{"NoteNumber":77,"Velocity":70,"Duration":131856,"SoundDuration":131856,"Delta":302908972},{"NoteNumber":75,"Velocity":64,"Duration":131856,"SoundDuration":131856,"Delta":303040829},{"NoteNumber":74,"Velocity":74,"Duration":527425,"SoundDuration":527425,"Delta":303172685},{"NoteNumber":68,"Velocity":51,"Duration":527425,"SoundDuration":527425,"Delta":303172685},{"NoteNumber":75,"Velocity":72,"Duration":527425,"SoundDuration":527425,"Delta":303700111},{"NoteNumber":67,"Velocity":47,"Duration":527425,"SoundDuration":527425,"Delta":303700111},{"NoteNumber":74,"Velocity":67,"Duration":554221,"SoundDuration":554221,"Delta":304227537},{"NoteNumber":77,"Velocity":67,"Duration":554221,"SoundDuration":554221,"Delta":304227537},{"NoteNumber":68,"Velocity":51,"Duration":554221,"SoundDuration":554221,"Delta":304227537},{"NoteNumber":65,"Velocity":51,"Duration":554221,"SoundDuration":554221,"Delta":304227537},{"NoteNumber":80,"Velocity":69,"Duration":131856,"SoundDuration":131856,"Delta":304781759},{"NoteNumber":75,"Velocity":69,"Duration":527425,"SoundDuration":527425,"Delta":304781759},{"NoteNumber":67,"Velocity":47,"Duration":527425,"SoundDuration":527425,"Delta":304781759},{"NoteNumber":63,"Velocity":47,"Duration":527425,"SoundDuration":527425,"Delta":304781759},{"NoteNumber":79,"Velocity":65,"Duration":131856,"SoundDuration":131856,"Delta":304913615},{"NoteNumber":77,"Velocity":66,"Duration":131856,"SoundDuration":131856,"Delta":305045472},{"NoteNumber":79,"Velocity":65,"Duration":131856,"SoundDuration":131856,"Delta":305177328},{"NoteNumber":77,"Velocity":70,"Duration":527425,"SoundDuration":527425,"Delta":305309185},{"NoteNumber":80,"Velocity":70,"Duration":527425,"SoundDuration":527425,"Delta":305309185},{"NoteNumber":62,"Velocity":47,"Duration":527425,"SoundDuration":527425,"Delta":305309185},{"NoteNumber":65,"Velocity":47,"Duration":527425,"SoundDuration":527425,"Delta":305309185},{"NoteNumber":70,"Velocity":57,"Duration":490463,"SoundDuration":490463,"Delta":305836611},{"NoteNumber":70,"Velocity":59,"Duration":490463,"SoundDuration":490463,"Delta":306381570},{"NoteNumber":70,"Velocity":59,"Duration":490463,"SoundDuration":490463,"Delta":306926529},{"NoteNumber":80,"Velocity":72,"Duration":1582277,"SoundDuration":1582277,"Delta":307471488},{"NoteNumber":58,"Velocity":45,"Duration":527425,"SoundDuration":527425,"Delta":307998914},{"NoteNumber":62,"Velocity":45,"Duration":527425,"SoundDuration":527425,"Delta":308526340},{"NoteNumber":82,"Velocity":69,"Duration":131856,"SoundDuration":131856,"Delta":309053766},{"NoteNumber":65,"Velocity":45,"Duration":527426,"SoundDuration":527426,"Delta":309053766},{"NoteNumber":80,"Velocity":65,"Duration":131856,"SoundDuration":131856,"Delta":309185622},{"NoteNumber":79,"Velocity":69,"Duration":131856,"SoundDuration":131856,"Delta":309317479},{"NoteNumber":77,"Velocity":64,"Duration":131856,"SoundDuration":131856,"Delta":309449335},{"NoteNumber":75,"Velocity":73,"Duration":527425,"SoundDuration":527425,"Delta":309581192},{"NoteNumber":67,"Velocity":50,"Duration":527425,"SoundDuration":527425,"Delta":309581192},{"NoteNumber":74,"Velocity":70,"Duration":527425,"SoundDuration":527425,"Delta":310108618},{"NoteNumber":77,"Velocity":70,"Duration":527425,"SoundDuration":527425,"Delta":310108618},{"NoteNumber":70,"Velocity":45,"Duration":1076976,"SoundDuration":1076976,"Delta":310108618},{"NoteNumber":68,"Velocity":45,"Duration":527425,"SoundDuration":527425,"Delta":310108618},{"NoteNumber":75,"Velocity":71,"Duration":549551,"SoundDuration":549551,"Delta":310636044},{"NoteNumber":79,"Velocity":71,"Duration":549551,"SoundDuration":549551,"Delta":310636044},{"NoteNumber":67,"Velocity":51,"Duration":549551,"SoundDuration":549551,"Delta":310636044},{"NoteNumber":82,"Velocity":67,"Duration":134000,"SoundDuration":134000,"Delta":311185595},{"NoteNumber":77,"Velocity":67,"Duration":536001,"SoundDuration":536001,"Delta":311185595},{"NoteNumber":65,"Velocity":45,"Duration":536001,"SoundDuration":536001,"Delta":311185595},{"NoteNumber":68,"Velocity":45,"Duration":536001,"SoundDuration":536001,"Delta":311185595},{"NoteNumber":80,"Velocity":63,"Duration":134000,"SoundDuration":134000,"Delta":311319595},{"NoteNumber":79,"Velocity":67,"Duration":134000,"SoundDuration":134000,"Delta":311453596},{"NoteNumber":80,"Velocity":64,"Duration":134000,"SoundDuration":134000,"Delta":311587596},{"NoteNumber":79,"Velocity":72,"Duration":268000,"SoundDuration":268000,"Delta":311721596},{"NoteNumber":82,"Velocity":72,"Duration":268000,"SoundDuration":268000,"Delta":311721596},{"NoteNumber":63,"Velocity":50,"Duration":536001,"SoundDuration":536001,"Delta":311721596},{"NoteNumber":67,"Velocity":50,"Duration":536001,"SoundDuration":536001,"Delta":311721596},{"NoteNumber":39,"Velocity":54,"Duration":490463,"SoundDuration":490463,"Delta":312257598},{"NoteNumber":51,"Velocity":54,"Duration":490463,"SoundDuration":490463,"Delta":312257598},{"NoteNumber":39,"Velocity":56,"Duration":490463,"SoundDuration":490463,"Delta":312802557},{"NoteNumber":51,"Velocity":56,"Duration":490463,"SoundDuration":490463,"Delta":312802557},{"NoteNumber":39,"Velocity":54,"Duration":490463,"SoundDuration":490463,"Delta":313347516},{"NoteNumber":51,"Velocity":54,"Duration":490463,"SoundDuration":490463,"Delta":313347516},{"NoteNumber":73,"Velocity":83,"Duration":1318564,"SoundDuration":1318564,"Delta":313892475},{"NoteNumber":63,"Velocity":47,"Duration":474683,"SoundDuration":474683,"Delta":314419901},{"NoteNumber":55,"Velocity":47,"Duration":474683,"SoundDuration":474683,"Delta":314419901},{"NoteNumber":55,"Velocity":49,"Duration":474683,"SoundDuration":474683,"Delta":314947327},{"NoteNumber":63,"Velocity":49,"Duration":474683,"SoundDuration":474683,"Delta":314947327},{"NoteNumber":75,"Velocity":62,"Duration":65928,"SoundDuration":65928,"Delta":315211040},{"NoteNumber":73,"Velocity":58,"Duration":65928,"SoundDuration":65928,"Delta":315276968},{"NoteNumber":72,"Velocity":62,"Duration":65928,"SoundDuration":65928,"Delta":315342896},{"NoteNumber":73,"Velocity":59,"Duration":65928,"SoundDuration":65928,"Delta":315408825},{"NoteNumber":75,"Velocity":67,"Duration":263713,"SoundDuration":263713,"Delta":315474753},{"NoteNumber":55,"Velocity":48,"Duration":474683,"SoundDuration":474683,"Delta":315474753},{"NoteNumber":63,"Velocity":48,"Duration":474683,"SoundDuration":474683,"Delta":315474753},{"NoteNumber":77,"Velocity":67,"Duration":263712,"SoundDuration":263712,"Delta":315738466},{"NoteNumber":75,"Velocity":67,"Duration":264788,"SoundDuration":264788,"Delta":316002179},{"NoteNumber":55,"Velocity":51,"Duration":479484,"SoundDuration":479484,"Delta":316002179},{"NoteNumber":63,"Velocity":51,"Duration":479484,"SoundDuration":479484,"Delta":316002179},{"NoteNumber":73,"Velocity":60,"Duration":268741,"SoundDuration":268741,"Delta":316266967},{"NoteNumber":72,"Velocity":67,"Duration":272103,"SoundDuration":272103,"Delta":316535708},{"NoteNumber":55,"Velocity":45,"Duration":503584,"SoundDuration":503584,"Delta":316535708},{"NoteNumber":63,"Velocity":45,"Duration":503584,"SoundDuration":503584,"Delta":316535708},{"NoteNumber":71,"Velocity":61,"Duration":264416,"SoundDuration":264416,"Delta":316807811},{"NoteNumber":71,"Velocity":70,"Duration":1340003,"SoundDuration":1340003,"Delta":317095519},{"NoteNumber":55,"Velocity":47,"Duration":536001,"SoundDuration":536001,"Delta":317631520},{"NoteNumber":63,"Velocity":47,"Duration":1072002,"SoundDuration":1072002,"Delta":317631520},{"NoteNumber":56,"Velocity":50,"Duration":536001,"SoundDuration":536001,"Delta":318167522},{"NoteNumber":72,"Velocity":67,"Duration":268000,"SoundDuration":268000,"Delta":318435522},{"NoteNumber":75,"Velocity":69,"Duration":261597,"SoundDuration":261597,"Delta":318703523},{"NoteNumber":63,"Velocity":55,"Duration":470875,"SoundDuration":470875,"Delta":318703523},{"NoteNumber":56,"Velocity":55,"Duration":470875,"SoundDuration":470875,"Delta":318703523},{"NoteNumber":74,"Velocity":69,"Duration":261597,"SoundDuration":261597,"Delta":318965121},{"NoteNumber":77,"Velocity":69,"Duration":254237,"SoundDuration":254237,"Delta":319226718},{"NoteNumber":56,"Velocity":55,"Duration":468523,"SoundDuration":468523,"Delta":319226718},{"NoteNumber":63,"Velocity":55,"Duration":468523,"SoundDuration":468523,"Delta":319226718},{"NoteNumber":75,"Velocity":64,"Duration":267857,"SoundDuration":267857,"Delta":319480955},{"NoteNumber":74,"Velocity":68,"Duration":254237,"SoundDuration":254237,"Delta":319748813},{"NoteNumber":56,"Velocity":50,"Duration":464763,"SoundDuration":464763,"Delta":319748813},{"NoteNumber":63,"Velocity":50,"Duration":464763,"SoundDuration":464763,"Delta":319748813},{"NoteNumber":72,"Velocity":61,"Duration":263157,"SoundDuration":263157,"Delta":320003050},{"NoteNumber":70,"Velocity":59,"Duration":211220,"SoundDuration":211220,"Delta":320266208},{"NoteNumber":55,"Velocity":53,"Duration":506928,"SoundDuration":506928,"Delta":320266208},{"NoteNumber":63,"Velocity":53,"Duration":506928,"SoundDuration":506928,"Delta":320266208},{"NoteNumber":71,"Velocity":60,"Duration":211220,"SoundDuration":211220,"Delta":320435184},{"NoteNumber":72,"Velocity":62,"Duration":211220,"SoundDuration":211220,"Delta":320604160},{"NoteNumber":73,"Velocity":66,"Duration":211219,"SoundDuration":211219,"Delta":320773136},{"NoteNumber":56,"Velocity":48,"Duration":506927,"SoundDuration":506927,"Delta":320773136},{"NoteNumber":63,"Velocity":48,"Duration":506927,"SoundDuration":506927,"Delta":320773136},{"NoteNumber":74,"Velocity":68,"Duration":211219,"SoundDuration":211219,"Delta":320942112},{"NoteNumber":75,"Velocity":69,"Duration":168975,"SoundDuration":168975,"Delta":321111088},{"NoteNumber":75,"Velocity":60,"Duration":131856,"SoundDuration":131856,"Delta":321280064},{"NoteNumber":46,"Velocity":50,"Duration":474683,"SoundDuration":474683,"Delta":321280064},{"NoteNumber":55,"Velocity":50,"Duration":474683,"SoundDuration":474683,"Delta":321280064},{"NoteNumber":63,"Velocity":73,"Duration":922995,"SoundDuration":922995,"Delta":321411920},{"NoteNumber":46,"Velocity":46,"Duration":474683,"SoundDuration":474683,"Delta":321807490},{"NoteNumber":55,"Velocity":46,"Duration":474683,"SoundDuration":474683,"Delta":321807490},{"NoteNumber":67,"Velocity":59,"Duration":263157,"SoundDuration":263157,"Delta":322334916},{"NoteNumber":62,"Velocity":59,"Duration":1076774,"SoundDuration":1076774,"Delta":322334916},{"NoteNumber":46,"Velocity":39,"Duration":483341,"SoundDuration":483341,"Delta":322334916},{"NoteNumber":56,"Velocity":39,"Duration":483341,"SoundDuration":483341,"Delta":322334916},{"NoteNumber":65,"Velocity":64,"Duration":275229,"SoundDuration":275229,"Delta":322598074},{"NoteNumber":63,"Velocity":64,"Duration":263157,"SoundDuration":263157,"Delta":322873303},{"NoteNumber":46,"Velocity":39,"Duration":483341,"SoundDuration":483341,"Delta":322873303},{"NoteNumber":56,"Velocity":39,"Duration":483341,"SoundDuration":483341,"Delta":322873303},{"NoteNumber":65,"Velocity":59,"Duration":275229,"SoundDuration":275229,"Delta":323136461},{"NoteNumber":63,"Velocity":55,"Duration":1067966,"SoundDuration":1067966,"Delta":323411690},{"NoteNumber":51,"Velocity":45,"Duration":270270,"SoundDuration":270270,"Delta":323411690},{"NoteNumber":55,"Velocity":45,"Duration":270270,"SoundDuration":270270,"Delta":323411690},{"NoteNumber":51,"Velocity":50,"Duration":270270,"SoundDuration":270270,"Delta":323681961},{"NoteNumber":55,"Velocity":54,"Duration":263712,"SoundDuration":263712,"Delta":323952231},{"NoteNumber":58,"Velocity":57,"Duration":263712,"SoundDuration":263712,"Delta":324215944},{"NoteNumber":56,"Velocity":63,"Duration":263712,"SoundDuration":263712,"Delta":324479657},{"NoteNumber":58,"Velocity":56,"Duration":263712,"SoundDuration":263712,"Delta":324743370},{"NoteNumber":63,"Velocity":75,"Duration":471157,"SoundDuration":471157,"Delta":325007083},{"NoteNumber":70,"Velocity":75,"Duration":471157,"SoundDuration":471157,"Delta":325007083},{"NoteNumber":55,"Velocity":63,"Duration":261597,"SoundDuration":261597,"Delta":325007083},{"NoteNumber":58,"Velocity":56,"Duration":262302,"SoundDuration":262302,"Delta":325268680},{"NoteNumber":65,"Velocity":80,"Duration":476403,"SoundDuration":476403,"Delta":325530983},{"NoteNumber":70,"Velocity":59,"Duration":476403,"SoundDuration":476403,"Delta":325530983},{"NoteNumber":53,"Velocity":63,"Duration":263712,"SoundDuration":263712,"Delta":325530983},{"NoteNumber":58,"Velocity":56,"Duration":265863,"SoundDuration":265863,"Delta":325794696},{"NoteNumber":67,"Velocity":75,"Duration":481984,"SoundDuration":481984,"Delta":326060559},{"NoteNumber":70,"Velocity":75,"Duration":481984,"SoundDuration":481984,"Delta":326060559},{"NoteNumber":51,"Velocity":63,"Duration":267288,"SoundDuration":267288,"Delta":326060559},{"NoteNumber":58,"Velocity":56,"Duration":268740,"SoundDuration":268740,"Delta":326327848},{"NoteNumber":70,"Velocity":80,"Duration":653993,"SoundDuration":653993,"Delta":326596589},{"NoteNumber":68,"Velocity":63,"Duration":1569584,"SoundDuration":1569584,"Delta":326596589},{"NoteNumber":50,"Velocity":63,"Duration":261597,"SoundDuration":261597,"Delta":326596589},{"NoteNumber":53,"Velocity":54,"Duration":261597,"SoundDuration":261597,"Delta":326858186},{"NoteNumber":56,"Velocity":56,"Duration":261597,"SoundDuration":261597,"Delta":327119784},{"NoteNumber":72,"Velocity":76,"Duration":130798,"SoundDuration":130798,"Delta":327250582},{"NoteNumber":70,"Velocity":70,"Duration":130798,"SoundDuration":130798,"Delta":327381381},{"NoteNumber":55,"Velocity":53,"Duration":261597,"SoundDuration":261597,"Delta":327381381},{"NoteNumber":69,"Velocity":69,"Duration":130798,"SoundDuration":130798,"Delta":327512180},{"NoteNumber":70,"Velocity":79,"Duration":261597,"SoundDuration":261597,"Delta":327642979},{"NoteNumber":53,"Velocity":61,"Duration":261597,"SoundDuration":261597,"Delta":327642979},{"NoteNumber":51,"Velocity":54,"Duration":261597,"SoundDuration":261597,"Delta":327904576},{"NoteNumber":62,"Velocity":74,"Duration":531726,"SoundDuration":531726,"Delta":328166174},{"NoteNumber":70,"Velocity":74,"Duration":531726,"SoundDuration":531726,"Delta":328166174},{"NoteNumber":50,"Velocity":56,"Duration":265863,"SoundDuration":265863,"Delta":328166174},{"NoteNumber":48,"Velocity":54,"Duration":265863,"SoundDuration":265863,"Delta":328432037},{"NoteNumber":63,"Velocity":76,"Duration":527425,"SoundDuration":527425,"Delta":328697900},{"NoteNumber":72,"Velocity":76,"Duration":527425,"SoundDuration":527425,"Delta":328697900},{"NoteNumber":46,"Velocity":56,"Duration":263712,"SoundDuration":263712,"Delta":328697900},{"NoteNumber":48,"Velocity":54,"Duration":263712,"SoundDuration":263712,"Delta":328961613},{"NoteNumber":65,"Velocity":72,"Duration":523194,"SoundDuration":523194,"Delta":329225326},{"NoteNumber":74,"Velocity":72,"Duration":523194,"SoundDuration":523194,"Delta":329225326},{"NoteNumber":44,"Velocity":56,"Duration":261597,"SoundDuration":261597,"Delta":329225326},{"NoteNumber":46,"Velocity":52,"Duration":261597,"SoundDuration":261597,"Delta":329486924},{"NoteNumber":75,"Velocity":81,"Duration":644349,"SoundDuration":644349,"Delta":329748521},{"NoteNumber":63,"Velocity":81,"Duration":1545481,"SoundDuration":1545481,"Delta":329748521},{"NoteNumber":43,"Velocity":61,"Duration":258149,"SoundDuration":258149,"Delta":329748521},{"NoteNumber":46,"Velocity":47,"Duration":257466,"SoundDuration":257466,"Delta":330006671},{"NoteNumber":51,"Velocity":52,"Duration":257466,"SoundDuration":257466,"Delta":330264137},{"NoteNumber":77,"Velocity":70,"Duration":128733,"SoundDuration":128733,"Delta":330392870},{"NoteNumber":79,"Velocity":72,"Duration":128733,"SoundDuration":128733,"Delta":330521604},{"NoteNumber":46,"Velocity":47,"Duration":257466,"SoundDuration":257466,"Delta":330521604},{"NoteNumber":75,"Velocity":66,"Duration":128733,"SoundDuration":128733,"Delta":330650337},{"NoteNumber":70,"Velocity":69,"Duration":257466,"SoundDuration":257466,"Delta":330779070},{"NoteNumber":55,"Velocity":52,"Duration":257466,"SoundDuration":257466,"Delta":330779070},{"NoteNumber":67,"Velocity":52,"Duration":540442,"SoundDuration":540442,"Delta":331294003},{"NoteNumber":70,"Velocity":52,"Duration":540442,"SoundDuration":540442,"Delta":331294003},{"NoteNumber":51,"Velocity":43,"Duration":540442,"SoundDuration":540442,"Delta":331294003},{"NoteNumber":55,"Velocity":43,"Duration":540442,"SoundDuration":540442,"Delta":331294003},{"NoteNumber":65,"Velocity":54,"Duration":538990,"SoundDuration":538990,"Delta":331834446},{"NoteNumber":68,"Velocity":54,"Duration":538990,"SoundDuration":538990,"Delta":331834446},{"NoteNumber":53,"Velocity":43,"Duration":538990,"SoundDuration":538990,"Delta":331834446},{"NoteNumber":56,"Velocity":43,"Duration":538990,"SoundDuration":538990,"Delta":331834446},{"NoteNumber":63,"Velocity":52,"Duration":583885,"SoundDuration":583885,"Delta":332373436},{"NoteNumber":67,"Velocity":52,"Duration":583885,"SoundDuration":583885,"Delta":332373436},{"NoteNumber":55,"Velocity":43,"Duration":583885,"SoundDuration":583885,"Delta":332373436},{"NoteNumber":58,"Velocity":43,"Duration":583885,"SoundDuration":583885,"Delta":332373436},{"NoteNumber":65,"Velocity":57,"Duration":648788,"SoundDuration":648788,"Delta":332957321},{"NoteNumber":56,"Velocity":46,"Duration":1038062,"SoundDuration":1038062,"Delta":332957321},{"NoteNumber":60,"Velocity":46,"Duration":1038062,"SoundDuration":1038062,"Delta":332957321},{"NoteNumber":67,"Velocity":50,"Duration":129757,"SoundDuration":129757,"Delta":333606110},{"NoteNumber":68,"Velocity":52,"Duration":129757,"SoundDuration":129757,"Delta":333735868},{"NoteNumber":65,"Velocity":50,"Duration":129757,"SoundDuration":129757,"Delta":333865626},{"NoteNumber":72,"Velocity":56,"Duration":259515,"SoundDuration":259515,"Delta":333995383},{"NoteNumber":60,"Velocity":46,"Duration":531726,"SoundDuration":531726,"Delta":334514414},{"NoteNumber":65,"Velocity":46,"Duration":531726,"SoundDuration":531726,"Delta":334514414},{"NoteNumber":44,"Velocity":36,"Duration":531726,"SoundDuration":531726,"Delta":334514414},{"NoteNumber":53,"Velocity":36,"Duration":531726,"SoundDuration":531726,"Delta":334514414},{"NoteNumber":58,"Velocity":49,"Duration":531726,"SoundDuration":531726,"Delta":335046141},{"NoteNumber":63,"Velocity":49,"Duration":531726,"SoundDuration":531726,"Delta":335046141},{"NoteNumber":46,"Velocity":43,"Duration":1090697,"SoundDuration":1090697,"Delta":335046141},{"NoteNumber":55,"Velocity":43,"Duration":531726,"SoundDuration":531726,"Delta":335046141},{"NoteNumber":62,"Velocity":46,"Duration":535681,"SoundDuration":535681,"Delta":335577867},{"NoteNumber":65,"Velocity":46,"Duration":535681,"SoundDuration":535681,"Delta":335577867},{"NoteNumber":56,"Velocity":36,"Duration":535681,"SoundDuration":535681,"Delta":335577867},{"NoteNumber":62,"Velocity":54,"Duration":1117943,"SoundDuration":1117943,"Delta":336136839},{"NoteNumber":65,"Velocity":54,"Duration":838457,"SoundDuration":838457,"Delta":336136839},{"NoteNumber":51,"Velocity":45,"Duration":1397428,"SoundDuration":1397428,"Delta":336136839},{"NoteNumber":56,"Velocity":45,"Duration":1117943,"SoundDuration":1117943,"Delta":336136839},{"NoteNumber":66,"Velocity":50,"Duration":279485,"SoundDuration":279485,"Delta":336975296},{"NoteNumber":63,"Velocity":45,"Duration":558971,"SoundDuration":558971,"Delta":337254782},{"NoteNumber":67,"Velocity":45,"Duration":558971,"SoundDuration":558971,"Delta":337254782},{"NoteNumber":55,"Velocity":35,"Duration":279485,"SoundDuration":279485,"Delta":337254782},{"NoteNumber":63,"Velocity":52,"Duration":279485,"SoundDuration":279485,"Delta":337534268},{"NoteNumber":75,"Velocity":76,"Duration":482401,"SoundDuration":482401,"Delta":337813753},{"NoteNumber":82,"Velocity":76,"Duration":482401,"SoundDuration":482401,"Delta":337813753},{"NoteNumber":67,"Velocity":54,"Duration":268000,"SoundDuration":268000,"Delta":337813753},{"NoteNumber":70,"Velocity":51,"Duration":268000,"SoundDuration":268000,"Delta":338081754},{"NoteNumber":77,"Velocity":77,"Duration":482401,"SoundDuration":482401,"Delta":338349755},{"NoteNumber":82,"Velocity":77,"Duration":482401,"SoundDuration":482401,"Delta":338349755},{"NoteNumber":68,"Velocity":57,"Duration":268000,"SoundDuration":268000,"Delta":338349755},{"NoteNumber":67,"Velocity":52,"Duration":268000,"SoundDuration":268000,"Delta":338617756},{"NoteNumber":79,"Velocity":76,"Duration":482401,"SoundDuration":482401,"Delta":338885756},{"NoteNumber":82,"Velocity":76,"Duration":482401,"SoundDuration":482401,"Delta":338885756},{"NoteNumber":65,"Velocity":54,"Duration":268000,"SoundDuration":268000,"Delta":338885756},{"NoteNumber":63,"Velocity":53,"Duration":268000,"SoundDuration":268000,"Delta":339153757},{"NoteNumber":82,"Velocity":81,"Duration":653993,"SoundDuration":653993,"Delta":339421758},{"NoteNumber":80,"Velocity":81,"Duration":1567535,"SoundDuration":1567535,"Delta":339421758},{"NoteNumber":62,"Velocity":63,"Duration":261597,"SoundDuration":261597,"Delta":339421758},{"NoteNumber":65,"Velocity":54,"Duration":261597,"SoundDuration":261597,"Delta":339683355},{"NoteNumber":68,"Velocity":56,"Duration":261597,"SoundDuration":261597,"Delta":339944953},{"NoteNumber":84,"Velocity":73,"Duration":130798,"SoundDuration":130798,"Delta":340075752},{"NoteNumber":82,"Velocity":69,"Duration":130798,"SoundDuration":130798,"Delta":340206550},{"NoteNumber":67,"Velocity":54,"Duration":261597,"SoundDuration":261597,"Delta":340206550},{"NoteNumber":81,"Velocity":70,"Duration":130798,"SoundDuration":130798,"Delta":340337349},{"NoteNumber":82,"Velocity":78,"Duration":261597,"SoundDuration":261597,"Delta":340468148},{"NoteNumber":65,"Velocity":61,"Duration":261597,"SoundDuration":261597,"Delta":340468148},{"NoteNumber":63,"Velocity":54,"Duration":259548,"SoundDuration":259548,"Delta":340729745},{"NoteNumber":74,"Velocity":76,"Duration":514370,"SoundDuration":514370,"Delta":340989293},{"NoteNumber":82,"Velocity":76,"Duration":514370,"SoundDuration":514370,"Delta":340989293},{"NoteNumber":62,"Velocity":56,"Duration":255449,"SoundDuration":255449,"Delta":340989293},{"NoteNumber":60,"Velocity":54,"Duration":258920,"SoundDuration":258920,"Delta":341244743},{"NoteNumber":75,"Velocity":80,"Duration":538262,"SoundDuration":538262,"Delta":341503664},{"NoteNumber":84,"Velocity":80,"Duration":538262,"SoundDuration":538262,"Delta":341503664},{"NoteNumber":58,"Velocity":56,"Duration":267288,"SoundDuration":267288,"Delta":341503664},{"NoteNumber":60,"Velocity":54,"Duration":270974,"SoundDuration":270974,"Delta":341770952},{"NoteNumber":77,"Velocity":75,"Duration":551912,"SoundDuration":551912,"Delta":342041926},{"NoteNumber":86,"Velocity":75,"Duration":551912,"SoundDuration":551912,"Delta":342041926},{"NoteNumber":56,"Velocity":56,"Duration":274010,"SoundDuration":274010,"Delta":342041926},{"NoteNumber":58,"Velocity":53,"Duration":277902,"SoundDuration":277902,"Delta":342315936},{"NoteNumber":87,"Velocity":86,"Duration":644349,"SoundDuration":644349,"Delta":342593839},{"NoteNumber":75,"Velocity":86,"Duration":1545481,"SoundDuration":1545481,"Delta":342593839},{"NoteNumber":55,"Velocity":61,"Duration":258149,"SoundDuration":258149,"Delta":342593839},{"NoteNumber":58,"Velocity":45,"Duration":257466,"SoundDuration":257466,"Delta":342851988},{"NoteNumber":60,"Velocity":49,"Duration":257466,"SoundDuration":257466,"Delta":343109455},{"NoteNumber":86,"Velocity":68,"Duration":128733,"SoundDuration":128733,"Delta":343238188},{"NoteNumber":87,"Velocity":70,"Duration":128733,"SoundDuration":128733,"Delta":343366921},{"NoteNumber":62,"Velocity":45,"Duration":257466,"SoundDuration":257466,"Delta":343366921},{"NoteNumber":82,"Velocity":66,"Duration":128733,"SoundDuration":128733,"Delta":343495654},{"NoteNumber":79,"Velocity":61,"Duration":257466,"SoundDuration":257466,"Delta":343624388},{"NoteNumber":63,"Velocity":46,"Duration":257466,"SoundDuration":257466,"Delta":343624388},{"NoteNumber":79,"Velocity":54,"Duration":540442,"SoundDuration":540442,"Delta":344139321},{"NoteNumber":82,"Velocity":54,"Duration":540442,"SoundDuration":540442,"Delta":344139321},{"NoteNumber":63,"Velocity":43,"Duration":540442,"SoundDuration":540442,"Delta":344139321},{"NoteNumber":67,"Velocity":43,"Duration":540442,"SoundDuration":540442,"Delta":344139321},{"NoteNumber":77,"Velocity":54,"Duration":538990,"SoundDuration":538990,"Delta":344679764},{"NoteNumber":80,"Velocity":54,"Duration":538990,"SoundDuration":538990,"Delta":344679764},{"NoteNumber":65,"Velocity":43,"Duration":538990,"SoundDuration":538990,"Delta":344679764},{"NoteNumber":68,"Velocity":43,"Duration":538990,"SoundDuration":538990,"Delta":344679764},{"NoteNumber":75,"Velocity":54,"Duration":583885,"SoundDuration":583885,"Delta":345218754},{"NoteNumber":79,"Velocity":54,"Duration":583885,"SoundDuration":583885,"Delta":345218754},{"NoteNumber":67,"Velocity":36,"Duration":583885,"SoundDuration":583885,"Delta":345218754},{"NoteNumber":70,"Velocity":36,"Duration":583885,"SoundDuration":583885,"Delta":345218754},{"NoteNumber":76,"Velocity":51,"Duration":145539,"SoundDuration":145539,"Delta":345802639},{"NoteNumber":68,"Velocity":43,"Duration":573759,"SoundDuration":573759,"Delta":345802639},{"NoteNumber":72,"Velocity":43,"Duration":573759,"SoundDuration":573759,"Delta":345802639},{"NoteNumber":77,"Velocity":50,"Duration":143845,"SoundDuration":143845,"Delta":345948178},{"NoteNumber":79,"Velocity":56,"Duration":143013,"SoundDuration":143013,"Delta":346092024},{"NoteNumber":77,"Velocity":55,"Duration":141360,"SoundDuration":141360,"Delta":346235038},{"NoteNumber":80,"Velocity":59,"Duration":140548,"SoundDuration":140548,"Delta":346376399},{"NoteNumber":79,"Velocity":58,"Duration":138951,"SoundDuration":138951,"Delta":346516947},{"NoteNumber":82,"Velocity":62,"Duration":138166,"SoundDuration":138166,"Delta":346655898},{"NoteNumber":80,"Velocity":60,"Duration":136622,"SoundDuration":136622,"Delta":346794065},{"NoteNumber":84,"Velocity":66,"Duration":1054851,"SoundDuration":1054851,"Delta":346930687},{"NoteNumber":82,"Velocity":59,"Duration":527425,"SoundDuration":527425,"Delta":347985539},{"NoteNumber":62,"Velocity":43,"Duration":527425,"SoundDuration":527425,"Delta":347985539},{"NoteNumber":58,"Velocity":43,"Duration":1101149,"SoundDuration":1101149,"Delta":347985539},{"NoteNumber":68,"Velocity":43,"Duration":1101149,"SoundDuration":1101149,"Delta":347985539},{"NoteNumber":65,"Velocity":43,"Duration":573723,"SoundDuration":573723,"Delta":348512965},{"NoteNumber":74,"Velocity":53,"Duration":143430,"SoundDuration":143430,"Delta":348943258},{"NoteNumber":75,"Velocity":56,"Duration":1021797,"SoundDuration":1021797,"Delta":349086689},{"NoteNumber":63,"Velocity":43,"Duration":255449,"SoundDuration":255449,"Delta":349086689},{"NoteNumber":67,"Velocity":39,"Duration":255449,"SoundDuration":255449,"Delta":349342138},{"NoteNumber":70,"Velocity":40,"Duration":255449,"SoundDuration":255449,"Delta":349597588},{"NoteNumber":67,"Velocity":42,"Duration":255449,"SoundDuration":255449,"Delta":349853037},{"NoteNumber":63,"Velocity":46,"Duration":255449,"SoundDuration":255449,"Delta":350108487},{"NoteNumber":67,"Velocity":44,"Duration":255449,"SoundDuration":255449,"Delta":350363936},{"NoteNumber":85,"Velocity":69,"Duration":512243,"SoundDuration":512243,"Delta":350619386},{"NoteNumber":70,"Velocity":49,"Duration":255449,"SoundDuration":255449,"Delta":350619386},{"NoteNumber":67,"Velocity":50,"Duration":256794,"SoundDuration":256794,"Delta":350874835},{"NoteNumber":84,"Velocity":72,"Duration":518359,"SoundDuration":518359,"Delta":351131629},{"NoteNumber":68,"Velocity":58,"Duration":258149,"SoundDuration":258149,"Delta":351131629},{"NoteNumber":65,"Velocity":55,"Duration":260209,"SoundDuration":260209,"Delta":351389779},{"NoteNumber":86,"Velocity":75,"Duration":525310,"SoundDuration":525310,"Delta":351649988},{"NoteNumber":70,"Velocity":56,"Duration":261597,"SoundDuration":261597,"Delta":351649988},{"NoteNumber":68,"Velocity":58,"Duration":263712,"SoundDuration":263712,"Delta":351911586},{"NoteNumber":89,"Velocity":81,"Duration":531726,"SoundDuration":531726,"Delta":352175299},{"NoteNumber":67,"Velocity":62,"Duration":265863,"SoundDuration":265863,"Delta":352175299},{"NoteNumber":70,"Velocity":56,"Duration":265863,"SoundDuration":265863,"Delta":352441162},{"NoteNumber":87,"Velocity":78,"Duration":531726,"SoundDuration":531726,"Delta":352707025},{"NoteNumber":67,"Velocity":53,"Duration":265863,"SoundDuration":265863,"Delta":352707025},{"NoteNumber":65,"Velocity":55,"Duration":265863,"SoundDuration":265863,"Delta":352972888},{"NoteNumber":63,"Velocity":70,"Duration":265863,"SoundDuration":265863,"Delta":353238752},{"NoteNumber":61,"Velocity":61,"Duration":265863,"SoundDuration":265863,"Delta":353504615},{"NoteNumber":73,"Velocity":72,"Duration":545736,"SoundDuration":545736,"Delta":353770478},{"NoteNumber":58,"Velocity":64,"Duration":271726,"SoundDuration":271726,"Delta":353770478},{"NoteNumber":55,"Velocity":61,"Duration":274010,"SoundDuration":274010,"Delta":354042205},{"NoteNumber":72,"Velocity":74,"Duration":557401,"SoundDuration":557401,"Delta":354316215},{"NoteNumber":56,"Velocity":70,"Duration":277110,"SoundDuration":277110,"Delta":354316215},{"NoteNumber":53,"Velocity":64,"Duration":280291,"SoundDuration":280291,"Delta":354593326},{"NoteNumber":68,"Velocity":69,"Duration":654021,"SoundDuration":654021,"Delta":354873617},{"NoteNumber":74,"Velocity":69,"Duration":654021,"SoundDuration":654021,"Delta":354873617},{"NoteNumber":58,"Velocity":70,"Duration":327011,"SoundDuration":327011,"Delta":354873617},{"NoteNumber":46,"Velocity":59,"Duration":327010,"SoundDuration":327010,"Delta":355200628},{"NoteNumber":77,"Velocity":59,"Duration":1362397,"SoundDuration":1362397,"Delta":355527639},{"NoteNumber":68,"Velocity":59,"Duration":1362397,"SoundDuration":1362397,"Delta":355527639},{"NoteNumber":51,"Velocity":50,"Duration":2043596,"SoundDuration":2043596,"Delta":355527639},{"NoteNumber":67,"Velocity":52,"Duration":681198,"SoundDuration":681198,"Delta":356890037},{"NoteNumber":75,"Velocity":52,"Duration":681198,"SoundDuration":681198,"Delta":356890037},{"NoteNumber":62,"Velocity":47,"Duration":622794,"SoundDuration":622794,"Delta":357571236},{"NoteNumber":65,"Velocity":47,"Duration":622794,"SoundDuration":622794,"Delta":357571236},{"NoteNumber":56,"Velocity":42,"Duration":622794,"SoundDuration":622794,"Delta":357571236},{"NoteNumber":63,"Velocity":52,"Duration":583885,"SoundDuration":583885,"Delta":358194031},{"NoteNumber":67,"Velocity":52,"Duration":583885,"SoundDuration":583885,"Delta":358194031},{"NoteNumber":55,"Velocity":45,"Duration":583885,"SoundDuration":583885,"Delta":358194031},{"NoteNumber":65,"Velocity":54,"Duration":625130,"SoundDuration":625130,"Delta":358777916},{"NoteNumber":68,"Velocity":54,"Duration":625130,"SoundDuration":625130,"Delta":358777916},{"NoteNumber":53,"Velocity":47,"Duration":625130,"SoundDuration":625130,"Delta":358777916},{"NoteNumber":66,"Velocity":67,"Duration":1076428,"SoundDuration":1076428,"Delta":359403046},{"NoteNumber":69,"Velocity":67,"Duration":1076428,"SoundDuration":1076428,"Delta":359403046},{"NoteNumber":52,"Velocity":56,"Duration":2157314,"SoundDuration":2157314,"Delta":359403046},{"NoteNumber":67,"Velocity":62,"Duration":540442,"SoundDuration":540442,"Delta":360479474},{"NoteNumber":70,"Velocity":62,"Duration":540442,"SoundDuration":540442,"Delta":360479474},{"NoteNumber":70,"Velocity":54,"Duration":540443,"SoundDuration":540443,"Delta":361019917},{"NoteNumber":73,"Velocity":54,"Duration":540443,"SoundDuration":540443,"Delta":361019917},{"NoteNumber":64,"Velocity":56,"Duration":558971,"SoundDuration":558971,"Delta":361560360},{"NoteNumber":67,"Velocity":56,"Duration":558971,"SoundDuration":558971,"Delta":361560360},{"NoteNumber":48,"Velocity":46,"Duration":1142856,"SoundDuration":1142856,"Delta":361560360},{"NoteNumber":68,"Velocity":51,"Duration":583885,"SoundDuration":583885,"Delta":362119331},{"NoteNumber":72,"Velocity":51,"Duration":583885,"SoundDuration":583885,"Delta":362119331},{"NoteNumber":67,"Velocity":55,"Duration":1127608,"SoundDuration":1127608,"Delta":362703216},{"NoteNumber":70,"Velocity":55,"Duration":1127608,"SoundDuration":1127608,"Delta":362703216},{"NoteNumber":49,"Velocity":53,"Duration":2218838,"SoundDuration":2218838,"Delta":362703216},{"NoteNumber":65,"Velocity":52,"Duration":563804,"SoundDuration":563804,"Delta":363830824},{"NoteNumber":68,"Velocity":52,"Duration":563804,"SoundDuration":563804,"Delta":363830824},{"NoteNumber":77,"Velocity":54,"Duration":474683,"SoundDuration":474683,"Delta":364394628},{"NoteNumber":77,"Velocity":54,"Duration":474683,"SoundDuration":474683,"Delta":364922054},{"NoteNumber":60,"Velocity":43,"Duration":1054851,"SoundDuration":1054851,"Delta":364922054},{"NoteNumber":56,"Velocity":43,"Duration":1054851,"SoundDuration":1054851,"Delta":364922054},{"NoteNumber":77,"Velocity":54,"Duration":474683,"SoundDuration":474683,"Delta":365449480},{"NoteNumber":78,"Velocity":62,"Duration":1063452,"SoundDuration":1063452,"Delta":365976906},{"NoteNumber":58,"Velocity":43,"Duration":1063452,"SoundDuration":1063452,"Delta":365976906},{"NoteNumber":61,"Velocity":43,"Duration":1063452,"SoundDuration":1063452,"Delta":365976906},{"NoteNumber":79,"Velocity":56,"Duration":514932,"SoundDuration":514932,"Delta":367040359},{"NoteNumber":82,"Velocity":63,"Duration":1029866,"SoundDuration":1029866,"Delta":367555292},{"NoteNumber":60,"Velocity":43,"Duration":1038127,"SoundDuration":1038127,"Delta":368070225},{"NoteNumber":70,"Velocity":43,"Duration":1038127,"SoundDuration":1038127,"Delta":368070225},{"NoteNumber":76,"Velocity":57,"Duration":523194,"SoundDuration":523194,"Delta":368585158},{"NoteNumber":79,"Velocity":64,"Duration":1054851,"SoundDuration":1054851,"Delta":369108353},{"NoteNumber":65,"Velocity":43,"Duration":1582277,"SoundDuration":1582277,"Delta":369108353},{"NoteNumber":70,"Velocity":43,"Duration":1054851,"SoundDuration":1054851,"Delta":369108353},{"NoteNumber":77,"Velocity":60,"Duration":527425,"SoundDuration":527425,"Delta":370163205},{"NoteNumber":68,"Velocity":36,"Duration":527425,"SoundDuration":527425,"Delta":370163205},{"NoteNumber":41,"Velocity":45,"Duration":486398,"SoundDuration":486398,"Delta":370690631},{"NoteNumber":41,"Velocity":46,"Duration":486398,"SoundDuration":486398,"Delta":371231074},{"NoteNumber":41,"Velocity":44,"Duration":486398,"SoundDuration":486398,"Delta":371771517},{"NoteNumber":41,"Velocity":52,"Duration":3041437,"SoundDuration":3041437,"Delta":372311960},{"NoteNumber":80,"Velocity":59,"Duration":499251,"SoundDuration":499251,"Delta":372852403},{"NoteNumber":79,"Velocity":61,"Duration":249625,"SoundDuration":249625,"Delta":373351654},{"NoteNumber":77,"Velocity":59,"Duration":249625,"SoundDuration":249625,"Delta":373601280},{"NoteNumber":75,"Velocity":57,"Duration":240000,"SoundDuration":240000,"Delta":373850905},{"NoteNumber":73,"Velocity":57,"Duration":252100,"SoundDuration":252100,"Delta":374090905},{"NoteNumber":72,"Velocity":59,"Duration":257466,"SoundDuration":257466,"Delta":374343006},{"NoteNumber":73,"Velocity":62,"Duration":257466,"SoundDuration":257466,"Delta":374600472},{"NoteNumber":77,"Velocity":66,"Duration":247729,"SoundDuration":247729,"Delta":374857939},{"NoteNumber":73,"Velocity":60,"Duration":247729,"SoundDuration":247729,"Delta":375105668},{"NoteNumber":62,"Velocity":57,"Duration":3192261,"SoundDuration":3192261,"Delta":375353397},{"NoteNumber":68,"Velocity":57,"Duration":3192261,"SoundDuration":3192261,"Delta":375353397},{"NoteNumber":72,"Velocity":57,"Duration":1046389,"SoundDuration":1046389,"Delta":375353397},{"NoteNumber":41,"Velocity":42,"Duration":1560088,"SoundDuration":1560088,"Delta":375353397},{"NoteNumber":71,"Velocity":47,"Duration":2145871,"SoundDuration":2145871,"Delta":376399787},{"NoteNumber":41,"Velocity":45,"Duration":478553,"SoundDuration":478553,"Delta":376913486},{"NoteNumber":41,"Velocity":46,"Duration":478553,"SoundDuration":478553,"Delta":377445212},{"NoteNumber":41,"Velocity":45,"Duration":511848,"SoundDuration":511848,"Delta":377976939},{"NoteNumber":42,"Velocity":54,"Duration":3097073,"SoundDuration":3097073,"Delta":378545659},{"NoteNumber":63,"Velocity":53,"Duration":1029866,"SoundDuration":1029866,"Delta":379077386},{"NoteNumber":72,"Velocity":53,"Duration":514932,"SoundDuration":514932,"Delta":379077386},{"NoteNumber":71,"Velocity":56,"Duration":257466,"SoundDuration":257466,"Delta":379592319},{"NoteNumber":72,"Velocity":58,"Duration":257466,"SoundDuration":257466,"Delta":379849785},{"NoteNumber":63,"Velocity":50,"Duration":1011492,"SoundDuration":1011492,"Delta":380107252},{"NoteNumber":74,"Velocity":59,"Duration":251508,"SoundDuration":251508,"Delta":380107252},{"NoteNumber":72,"Velocity":56,"Duration":251508,"SoundDuration":251508,"Delta":380358761},{"NoteNumber":71,"Velocity":56,"Duration":254237,"SoundDuration":254237,"Delta":380610270},{"NoteNumber":72,"Velocity":59,"Duration":254237,"SoundDuration":254237,"Delta":380864507},{"NoteNumber":63,"Velocity":61,"Duration":1578840,"SoundDuration":1578840,"Delta":381118744},{"NoteNumber":75,"Velocity":61,"Duration":251508,"SoundDuration":251508,"Delta":381118744},{"NoteNumber":74,"Velocity":60,"Duration":272479,"SoundDuration":272479,"Delta":381370253},{"NoteNumber":71,"Velocity":66,"Duration":1054851,"SoundDuration":1054851,"Delta":381642733},{"NoteNumber":43,"Velocity":49,"Duration":1582277,"SoundDuration":1582277,"Delta":381642733},{"NoteNumber":63,"Velocity":60,"Duration":2111041,"SoundDuration":2111041,"Delta":382697585},{"NoteNumber":72,"Velocity":60,"Duration":2111041,"SoundDuration":2111041,"Delta":382697585},{"NoteNumber":43,"Velocity":48,"Duration":467127,"SoundDuration":467127,"Delta":383225011},{"NoteNumber":43,"Velocity":50,"Duration":467127,"SoundDuration":467127,"Delta":383744042},{"NoteNumber":43,"Velocity":47,"Duration":490998,"SoundDuration":490998,"Delta":384263073},{"NoteNumber":44,"Velocity":55,"Duration":2039955,"SoundDuration":2039955,"Delta":384808626},{"NoteNumber":63,"Velocity":62,"Duration":463439,"SoundDuration":463439,"Delta":385312828},{"NoteNumber":72,"Velocity":62,"Duration":463439,"SoundDuration":463439,"Delta":385312828},{"NoteNumber":63,"Velocity":64,"Duration":460817,"SoundDuration":460817,"Delta":385827761},{"NoteNumber":72,"Velocity":64,"Duration":460817,"SoundDuration":460817,"Delta":385827761},{"NoteNumber":63,"Velocity":67,"Duration":458220,"SoundDuration":458220,"Delta":386339668},{"NoteNumber":72,"Velocity":67,"Duration":458220,"SoundDuration":458220,"Delta":386339668},{"NoteNumber":63,"Velocity":70,"Duration":444305,"SoundDuration":444305,"Delta":386848582},{"NoteNumber":72,"Velocity":70,"Duration":444305,"SoundDuration":444305,"Delta":386848582},{"NoteNumber":45,"Velocity":62,"Duration":1030608,"SoundDuration":1030608,"Delta":386848582},{"NoteNumber":63,"Velocity":72,"Duration":482401,"SoundDuration":482401,"Delta":387343189},{"NoteNumber":72,"Velocity":72,"Duration":482401,"SoundDuration":482401,"Delta":387343189},{"NoteNumber":73,"Velocity":74,"Duration":653993,"SoundDuration":653993,"Delta":387879190},{"NoteNumber":63,"Velocity":74,"Duration":1569585,"SoundDuration":1569585,"Delta":387879190},{"NoteNumber":46,"Velocity":62,"Duration":1046389,"SoundDuration":1046389,"Delta":387879190},{"NoteNumber":72,"Velocity":62,"Duration":130798,"SoundDuration":130798,"Delta":388533184},{"NoteNumber":70,"Velocity":57,"Duration":130798,"SoundDuration":130798,"Delta":388663983},{"NoteNumber":68,"Velocity":54,"Duration":130798,"SoundDuration":130798,"Delta":388794782},{"NoteNumber":67,"Velocity":66,"Duration":523195,"SoundDuration":523195,"Delta":388925580},{"NoteNumber":49,"Velocity":48,"Duration":1034094,"SoundDuration":1034094,"Delta":388925580},{"NoteNumber":79,"Velocity":67,"Duration":510898,"SoundDuration":510898,"Delta":389448775},{"NoteNumber":80,"Velocity":67,"Duration":510898,"SoundDuration":510898,"Delta":389959674},{"NoteNumber":48,"Velocity":54,"Duration":1038324,"SoundDuration":1038324,"Delta":389959674},{"NoteNumber":72,"Velocity":65,"Duration":782875,"SoundDuration":782875,"Delta":390470573},{"NoteNumber":49,"Velocity":44,"Duration":1044518,"SoundDuration":1044518,"Delta":390997999},{"NoteNumber":70,"Velocity":56,"Duration":245901,"SoundDuration":245901,"Delta":391253449},{"NoteNumber":73,"Velocity":60,"Duration":245901,"SoundDuration":245901,"Delta":391499351},{"NoteNumber":77,"Velocity":55,"Duration":297265,"SoundDuration":297265,"Delta":391745252},{"NoteNumber":68,"Velocity":63,"Duration":1581852,"SoundDuration":1581852,"Delta":392042518},{"NoteNumber":51,"Velocity":43,"Duration":1036893,"SoundDuration":1036893,"Delta":392042518},{"NoteNumber":60,"Velocity":43,"Duration":1036893,"SoundDuration":1036893,"Delta":392042518},{"NoteNumber":51,"Velocity":36,"Duration":1123662,"SoundDuration":1123662,"Delta":393079411},{"NoteNumber":61,"Velocity":36,"Duration":1123662,"SoundDuration":1123662,"Delta":393079411},{"NoteNumber":67,"Velocity":55,"Duration":578703,"SoundDuration":578703,"Delta":393624370},{"NoteNumber":72,"Velocity":55,"Duration":289351,"SoundDuration":289351,"Delta":393624370},{"NoteNumber":70,"Velocity":55,"Duration":289351,"SoundDuration":289351,"Delta":393913722},{"NoteNumber":68,"Velocity":46,"Duration":1029866,"SoundDuration":1029866,"Delta":394203073},{"NoteNumber":56,"Velocity":33,"Duration":257466,"SoundDuration":257466,"Delta":394203073},{"NoteNumber":60,"Velocity":26,"Duration":257466,"SoundDuration":257466,"Delta":394460540},{"NoteNumber":63,"Velocity":27,"Duration":257466,"SoundDuration":257466,"Delta":394718006},{"NoteNumber":60,"Velocity":25,"Duration":257466,"SoundDuration":257466,"Delta":394975473},{"NoteNumber":56,"Velocity":30,"Duration":257466,"SoundDuration":257466,"Delta":395232939},{"NoteNumber":60,"Velocity":26,"Duration":257466,"SoundDuration":257466,"Delta":395490406},{"NoteNumber":68,"Velocity":46,"Duration":510898,"SoundDuration":510898,"Delta":395747872},{"NoteNumber":72,"Velocity":46,"Duration":510898,"SoundDuration":510898,"Delta":395747872},{"NoteNumber":63,"Velocity":29,"Duration":255449,"SoundDuration":255449,"Delta":395747872},{"NoteNumber":60,"Velocity":26,"Duration":255449,"SoundDuration":255449,"Delta":396003322},{"NoteNumber":68,"Velocity":49,"Duration":510898,"SoundDuration":510898,"Delta":396258771},{"NoteNumber":72,"Velocity":49,"Duration":510898,"SoundDuration":510898,"Delta":396258771},{"NoteNumber":56,"Velocity":33,"Duration":255449,"SoundDuration":255449,"Delta":396258771},{"NoteNumber":60,"Velocity":27,"Duration":255449,"SoundDuration":255449,"Delta":396514221},{"NoteNumber":68,"Velocity":46,"Duration":531726,"SoundDuration":531726,"Delta":396769670},{"NoteNumber":72,"Velocity":46,"Duration":531726,"SoundDuration":531726,"Delta":396769670},{"NoteNumber":63,"Velocity":29,"Duration":265863,"SoundDuration":265863,"Delta":396769670},{"NoteNumber":60,"Velocity":27,"Duration":265863,"SoundDuration":265863,"Delta":397035534},{"NoteNumber":70,"Velocity":58,"Duration":1549223,"SoundDuration":1549223,"Delta":397301397},{"NoteNumber":72,"Velocity":58,"Duration":1549223,"SoundDuration":1549223,"Delta":397301397},{"NoteNumber":77,"Velocity":58,"Duration":527425,"SoundDuration":527425,"Delta":397301397},{"NoteNumber":55,"Velocity":36,"Duration":263712,"SoundDuration":263712,"Delta":397301397},{"NoteNumber":58,"Velocity":26,"Duration":263712,"SoundDuration":263712,"Delta":397565110},{"NoteNumber":76,"Velocity":46,"Duration":1021797,"SoundDuration":1021797,"Delta":397828823},{"NoteNumber":60,"Velocity":27,"Duration":255449,"SoundDuration":255449,"Delta":397828823},{"NoteNumber":58,"Velocity":26,"Duration":255449,"SoundDuration":255449,"Delta":398084272},{"NoteNumber":55,"Velocity":32,"Duration":255449,"SoundDuration":255449,"Delta":398339722},{"NoteNumber":58,"Velocity":26,"Duration":255449,"SoundDuration":255449,"Delta":398595171},{"NoteNumber":70,"Velocity":47,"Duration":510898,"SoundDuration":510898,"Delta":398850621},{"NoteNumber":72,"Velocity":47,"Duration":510898,"SoundDuration":510898,"Delta":398850621},{"NoteNumber":60,"Velocity":27,"Duration":255449,"SoundDuration":255449,"Delta":398850621},{"NoteNumber":58,"Velocity":25,"Duration":255449,"SoundDuration":255449,"Delta":399106070},{"NoteNumber":70,"Velocity":51,"Duration":510898,"SoundDuration":510898,"Delta":399361520},{"NoteNumber":72,"Velocity":51,"Duration":510898,"SoundDuration":510898,"Delta":399361520},{"NoteNumber":55,"Velocity":32,"Duration":255449,"SoundDuration":255449,"Delta":399361520},{"NoteNumber":58,"Velocity":27,"Duration":255449,"SoundDuration":255449,"Delta":399616969},{"NoteNumber":70,"Velocity":47,"Duration":545553,"SoundDuration":545553,"Delta":399872419},{"NoteNumber":72,"Velocity":47,"Duration":545553,"SoundDuration":545553,"Delta":399872419},{"NoteNumber":60,"Velocity":27,"Duration":272776,"SoundDuration":272776,"Delta":399872419},{"NoteNumber":58,"Velocity":25,"Duration":272776,"SoundDuration":272776,"Delta":400145196},{"NoteNumber":79,"Velocity":59,"Duration":527425,"SoundDuration":527425,"Delta":400417972},{"NoteNumber":68,"Velocity":59,"Duration":1549223,"SoundDuration":1549223,"Delta":400417972},{"NoteNumber":72,"Velocity":59,"Duration":1549223,"SoundDuration":1549223,"Delta":400417972},{"NoteNumber":53,"Velocity":36,"Duration":263712,"SoundDuration":263712,"Delta":400417972},{"NoteNumber":56,"Velocity":27,"Duration":263712,"SoundDuration":263712,"Delta":400681685},{"NoteNumber":77,"Velocity":51,"Duration":1021797,"SoundDuration":1021797,"Delta":400945398},{"NoteNumber":60,"Velocity":30,"Duration":255449,"SoundDuration":255449,"Delta":400945398},{"NoteNumber":56,"Velocity":27,"Duration":255449,"SoundDuration":255449,"Delta":401200848},{"NoteNumber":53,"Velocity":32,"Duration":255449,"SoundDuration":255449,"Delta":401456297},{"NoteNumber":56,"Velocity":26,"Duration":255449,"SoundDuration":255449,"Delta":401711747},{"NoteNumber":68,"Velocity":51,"Duration":519030,"SoundDuration":519030,"Delta":401967196},{"NoteNumber":72,"Velocity":51,"Duration":519030,"SoundDuration":519030,"Delta":401967196},{"NoteNumber":60,"Velocity":27,"Duration":259515,"SoundDuration":259515,"Delta":401967196},{"NoteNumber":56,"Velocity":26,"Duration":259515,"SoundDuration":259515,"Delta":402226712},{"NoteNumber":68,"Velocity":54,"Duration":523194,"SoundDuration":523194,"Delta":402486227},{"NoteNumber":72,"Velocity":54,"Duration":523194,"SoundDuration":523194,"Delta":402486227},{"NoteNumber":53,"Velocity":32,"Duration":261597,"SoundDuration":261597,"Delta":402486227},{"NoteNumber":56,"Velocity":27,"Duration":261597,"SoundDuration":261597,"Delta":402747825},{"NoteNumber":68,"Velocity":49,"Duration":555658,"SoundDuration":555658,"Delta":403009422},{"NoteNumber":72,"Velocity":49,"Duration":555658,"SoundDuration":555658,"Delta":403009422},{"NoteNumber":60,"Velocity":29,"Duration":277829,"SoundDuration":277829,"Delta":403009422},{"NoteNumber":56,"Velocity":27,"Duration":277829,"SoundDuration":277829,"Delta":403287252},{"NoteNumber":80,"Velocity":64,"Duration":523194,"SoundDuration":523194,"Delta":403565081},{"NoteNumber":68,"Velocity":64,"Duration":1561322,"SoundDuration":1561322,"Delta":403565081},{"NoteNumber":72,"Velocity":64,"Duration":1561322,"SoundDuration":1561322,"Delta":403565081},{"NoteNumber":51,"Velocity":36,"Duration":261597,"SoundDuration":261597,"Delta":403565081},{"NoteNumber":54,"Velocity":30,"Duration":261597,"SoundDuration":261597,"Delta":403826678},{"NoteNumber":78,"Velocity":60,"Duration":1038127,"SoundDuration":1038127,"Delta":404088276},{"NoteNumber":56,"Velocity":32,"Duration":261597,"SoundDuration":261597,"Delta":404088276},{"NoteNumber":54,"Velocity":29,"Duration":261597,"SoundDuration":261597,"Delta":404349873},{"NoteNumber":51,"Velocity":36,"Duration":257466,"SoundDuration":257466,"Delta":404611471},{"NoteNumber":54,"Velocity":29,"Duration":257466,"SoundDuration":257466,"Delta":404868937},{"NoteNumber":68,"Velocity":50,"Duration":456235,"SoundDuration":456235,"Delta":405126404},{"NoteNumber":72,"Velocity":50,"Duration":456235,"SoundDuration":456235,"Delta":405126404},{"NoteNumber":56,"Velocity":32,"Duration":253464,"SoundDuration":253464,"Delta":405126404},{"NoteNumber":54,"Velocity":29,"Duration":253464,"SoundDuration":253464,"Delta":405379868},{"NoteNumber":68,"Velocity":55,"Duration":456235,"SoundDuration":456235,"Delta":405633332},{"NoteNumber":72,"Velocity":55,"Duration":456235,"SoundDuration":456235,"Delta":405633332},{"NoteNumber":51,"Velocity":35,"Duration":253464,"SoundDuration":253464,"Delta":405633332},{"NoteNumber":54,"Velocity":29,"Duration":253463,"SoundDuration":253463,"Delta":405886796},{"NoteNumber":68,"Velocity":51,"Duration":456235,"SoundDuration":456235,"Delta":406140260},{"NoteNumber":72,"Velocity":51,"Duration":456235,"SoundDuration":456235,"Delta":406140260},{"NoteNumber":56,"Velocity":31,"Duration":253464,"SoundDuration":253464,"Delta":406140260},{"NoteNumber":54,"Velocity":27,"Duration":253464,"SoundDuration":253464,"Delta":406393724},{"NoteNumber":78,"Velocity":61,"Duration":527425,"SoundDuration":527425,"Delta":406647188},{"NoteNumber":68,"Velocity":61,"Duration":1549223,"SoundDuration":1549223,"Delta":406647188},{"NoteNumber":73,"Velocity":61,"Duration":1549223,"SoundDuration":1549223,"Delta":406647188},{"NoteNumber":49,"Velocity":40,"Duration":263712,"SoundDuration":263712,"Delta":406647188},{"NoteNumber":52,"Velocity":34,"Duration":263712,"SoundDuration":263712,"Delta":406910901},{"NoteNumber":76,"Velocity":56,"Duration":1021797,"SoundDuration":1021797,"Delta":407174614},{"NoteNumber":56,"Velocity":36,"Duration":255449,"SoundDuration":255449,"Delta":407174614},{"NoteNumber":52,"Velocity":33,"Duration":255449,"SoundDuration":255449,"Delta":407430063},{"NoteNumber":49,"Velocity":40,"Duration":255449,"SoundDuration":255449,"Delta":407685513},{"NoteNumber":52,"Velocity":33,"Duration":255449,"SoundDuration":255449,"Delta":407940962},{"NoteNumber":68,"Velocity":59,"Duration":510898,"SoundDuration":510898,"Delta":408196412},{"NoteNumber":76,"Velocity":59,"Duration":510898,"SoundDuration":510898,"Delta":408196412},{"NoteNumber":56,"Velocity":36,"Duration":255449,"SoundDuration":255449,"Delta":408196412},{"NoteNumber":52,"Velocity":33,"Duration":255449,"SoundDuration":255449,"Delta":408451861},{"NoteNumber":68,"Velocity":64,"Duration":519030,"SoundDuration":519030,"Delta":408707311},{"NoteNumber":76,"Velocity":64,"Duration":519030,"SoundDuration":519030,"Delta":408707311},{"NoteNumber":47,"Velocity":39,"Duration":259515,"SoundDuration":259515,"Delta":408707311},{"NoteNumber":51,"Velocity":34,"Duration":259515,"SoundDuration":259515,"Delta":408966826},{"NoteNumber":68,"Velocity":59,"Duration":540442,"SoundDuration":540442,"Delta":409226342},{"NoteNumber":75,"Velocity":59,"Duration":540442,"SoundDuration":540442,"Delta":409226342},{"NoteNumber":56,"Velocity":36,"Duration":270221,"SoundDuration":270221,"Delta":409226342},{"NoteNumber":51,"Velocity":33,"Duration":270221,"SoundDuration":270221,"Delta":409496563},{"NoteNumber":68,"Velocity":65,"Duration":1583064,"SoundDuration":1583064,"Delta":409766785},{"NoteNumber":75,"Velocity":65,"Duration":810664,"SoundDuration":810664,"Delta":409766785},{"NoteNumber":46,"Velocity":36,"Duration":1583064,"SoundDuration":1583064,"Delta":409766785},{"NoteNumber":53,"Velocity":36,"Duration":1583064,"SoundDuration":1583064,"Delta":409766785},{"NoteNumber":77,"Velocity":52,"Duration":128733,"SoundDuration":128733,"Delta":410577449},{"NoteNumber":75,"Velocity":49,"Duration":128733,"SoundDuration":128733,"Delta":410706183},{"NoteNumber":74,"Velocity":52,"Duration":514932,"SoundDuration":514932,"Delta":410834916},{"NoteNumber":62,"Velocity":45,"Duration":536001,"SoundDuration":536001,"Delta":411349849},{"NoteNumber":68,"Velocity":45,"Duration":536001,"SoundDuration":536001,"Delta":411349849},{"NoteNumber":46,"Velocity":29,"Duration":536001,"SoundDuration":536001,"Delta":411349849},{"NoteNumber":53,"Velocity":29,"Duration":536001,"SoundDuration":536001,"Delta":411349849},{"NoteNumber":62,"Velocity":47,"Duration":536001,"SoundDuration":536001,"Delta":411885850},{"NoteNumber":68,"Velocity":47,"Duration":536001,"SoundDuration":536001,"Delta":411885850},{"NoteNumber":46,"Velocity":32,"Duration":536001,"SoundDuration":536001,"Delta":411885850},{"NoteNumber":53,"Velocity":32,"Duration":536001,"SoundDuration":536001,"Delta":411885850},{"NoteNumber":62,"Velocity":45,"Duration":536001,"SoundDuration":536001,"Delta":412421852},{"NoteNumber":68,"Velocity":45,"Duration":536001,"SoundDuration":536001,"Delta":412421852},{"NoteNumber":46,"Velocity":29,"Duration":536001,"SoundDuration":536001,"Delta":412421852},{"NoteNumber":53,"Velocity":29,"Duration":536001,"SoundDuration":536001,"Delta":412421852},{"NoteNumber":62,"Velocity":47,"Duration":1072002,"SoundDuration":1072002,"Delta":412957853},{"NoteNumber":68,"Velocity":47,"Duration":1072002,"SoundDuration":1072002,"Delta":412957853},{"NoteNumber":46,"Velocity":32,"Duration":1072002,"SoundDuration":1072002,"Delta":412957853},{"NoteNumber":53,"Velocity":32,"Duration":1072002,"SoundDuration":1072002,"Delta":412957853},{"NoteNumber":74,"Velocity":39,"Duration":498799,"SoundDuration":498799,"Delta":414565858},{"NoteNumber":80,"Velocity":39,"Duration":498799,"SoundDuration":498799,"Delta":414565858},{"NoteNumber":65,"Velocity":27,"Duration":498799,"SoundDuration":498799,"Delta":414565858},{"NoteNumber":58,"Velocity":27,"Duration":498799,"SoundDuration":498799,"Delta":414565858},{"NoteNumber":74,"Velocity":39,"Duration":498799,"SoundDuration":498799,"Delta":415120079},{"NoteNumber":80,"Velocity":39,"Duration":498799,"SoundDuration":498799,"Delta":415120079},{"NoteNumber":65,"Velocity":27,"Duration":498799,"SoundDuration":498799,"Delta":415120079},{"NoteNumber":58,"Velocity":27,"Duration":498799,"SoundDuration":498799,"Delta":415120079},{"NoteNumber":74,"Velocity":39,"Duration":525496,"SoundDuration":525496,"Delta":415674301},{"NoteNumber":80,"Velocity":39,"Duration":525496,"SoundDuration":525496,"Delta":415674301},{"NoteNumber":65,"Velocity":27,"Duration":525496,"SoundDuration":525496,"Delta":415674301},{"NoteNumber":58,"Velocity":27,"Duration":525496,"SoundDuration":525496,"Delta":415674301},{"NoteNumber":74,"Velocity":43,"Duration":1314198,"SoundDuration":1314198,"Delta":416258186},{"NoteNumber":80,"Velocity":43,"Duration":660647,"SoundDuration":660647,"Delta":416258186},{"NoteNumber":58,"Velocity":31,"Duration":1314198,"SoundDuration":1314198,"Delta":416258186},{"NoteNumber":65,"Velocity":31,"Duration":1314198,"SoundDuration":1314198,"Delta":416258186},{"NoteNumber":82,"Velocity":34,"Duration":78141,"SoundDuration":78141,"Delta":416918833},{"NoteNumber":80,"Velocity":36,"Duration":78141,"SoundDuration":78141,"Delta":416996975},{"NoteNumber":79,"Velocity":39,"Duration":78141,"SoundDuration":78141,"Delta":417075116},{"NoteNumber":80,"Velocity":41,"Duration":78141,"SoundDuration":78141,"Delta":417153257},{"NoteNumber":82,"Velocity":40,"Duration":170493,"SoundDuration":170493,"Delta":417231398},{"NoteNumber":84,"Velocity":37,"Duration":170493,"SoundDuration":170493,"Delta":417401892},{"NoteNumber":82,"Velocity":43,"Duration":268000,"SoundDuration":268000,"Delta":417572385},{"NoteNumber":80,"Velocity":40,"Duration":268000,"SoundDuration":268000,"Delta":417840386},{"NoteNumber":79,"Velocity":44,"Duration":268000,"SoundDuration":268000,"Delta":418108386},{"NoteNumber":77,"Velocity":44,"Duration":268000,"SoundDuration":268000,"Delta":418376387},{"NoteNumber":75,"Velocity":46,"Duration":265864,"SoundDuration":265864,"Delta":418644388},{"NoteNumber":74,"Velocity":44,"Duration":269859,"SoundDuration":269859,"Delta":418910253},{"NoteNumber":72,"Velocity":44,"Duration":278722,"SoundDuration":278722,"Delta":419180112},{"NoteNumber":70,"Velocity":44,"Duration":288199,"SoundDuration":288199,"Delta":419458834},{"NoteNumber":70,"Velocity":46,"Duration":791078,"SoundDuration":791078,"Delta":419775431},{"NoteNumber":67,"Velocity":46,"Duration":1047497,"SoundDuration":1047497,"Delta":419775431},{"NoteNumber":51,"Velocity":39,"Duration":2069948,"SoundDuration":2069948,"Delta":419775431},{"NoteNumber":72,"Velocity":46,"Duration":128205,"SoundDuration":128205,"Delta":420564373},{"NoteNumber":70,"Velocity":46,"Duration":128205,"SoundDuration":128205,"Delta":420692578},{"NoteNumber":65,"Velocity":44,"Duration":514932,"SoundDuration":514932,"Delta":420820783},{"NoteNumber":68,"Velocity":44,"Duration":514932,"SoundDuration":514932,"Delta":420820783},{"NoteNumber":63,"Velocity":42,"Duration":507466,"SoundDuration":507466,"Delta":421335716},{"NoteNumber":67,"Velocity":42,"Duration":507466,"SoundDuration":507466,"Delta":421335716},{"NoteNumber":68,"Velocity":43,"Duration":527425,"SoundDuration":527425,"Delta":421843183},{"NoteNumber":72,"Velocity":43,"Duration":527425,"SoundDuration":527425,"Delta":421843183},{"NoteNumber":67,"Velocity":41,"Duration":513668,"SoundDuration":513668,"Delta":422370609},{"NoteNumber":70,"Velocity":41,"Duration":513668,"SoundDuration":513668,"Delta":422370609},{"NoteNumber":70,"Velocity":45,"Duration":760392,"SoundDuration":760392,"Delta":422906610},{"NoteNumber":67,"Velocity":45,"Duration":1013855,"SoundDuration":1013855,"Delta":422906610},{"NoteNumber":51,"Velocity":37,"Duration":253464,"SoundDuration":253464,"Delta":422906610},{"NoteNumber":55,"Velocity":33,"Duration":253464,"SoundDuration":253464,"Delta":423160074},{"NoteNumber":58,"Velocity":36,"Duration":253464,"SoundDuration":253464,"Delta":423413538},{"NoteNumber":72,"Velocity":42,"Duration":126731,"SoundDuration":126731,"Delta":423667002},{"NoteNumber":51,"Velocity":33,"Duration":253463,"SoundDuration":253463,"Delta":423667002},{"NoteNumber":70,"Velocity":42,"Duration":126732,"SoundDuration":126732,"Delta":423793734},{"NoteNumber":68,"Velocity":47,"Duration":1038062,"SoundDuration":1038062,"Delta":423920466},{"NoteNumber":53,"Velocity":40,"Duration":259515,"SoundDuration":259515,"Delta":423920466},{"NoteNumber":56,"Velocity":32,"Duration":259515,"SoundDuration":259515,"Delta":424179982},{"NoteNumber":62,"Velocity":35,"Duration":259515,"SoundDuration":259515,"Delta":424439497},{"NoteNumber":53,"Velocity":33,"Duration":259515,"SoundDuration":259515,"Delta":424699013},{"NoteNumber":67,"Velocity":47,"Duration":1297577,"SoundDuration":1297577,"Delta":424958528},{"NoteNumber":55,"Velocity":40,"Duration":259515,"SoundDuration":259515,"Delta":424958528},{"NoteNumber":58,"Velocity":32,"Duration":259515,"SoundDuration":259515,"Delta":425218044},{"NoteNumber":63,"Velocity":36,"Duration":259515,"SoundDuration":259515,"Delta":425477559},{"NoteNumber":55,"Velocity":33,"Duration":259515,"SoundDuration":259515,"Delta":425737075},{"NoteNumber":56,"Velocity":41,"Duration":3084480,"SoundDuration":3084480,"Delta":425996590},{"NoteNumber":60,"Velocity":41,"Duration":3084480,"SoundDuration":3084480,"Delta":425996590},{"NoteNumber":64,"Velocity":44,"Duration":259515,"SoundDuration":259515,"Delta":426256106},{"NoteNumber":65,"Velocity":45,"Duration":259173,"SoundDuration":259173,"Delta":426515621},{"NoteNumber":67,"Velocity":46,"Duration":257466,"SoundDuration":257466,"Delta":426774795},{"NoteNumber":68,"Velocity":49,"Duration":256458,"SoundDuration":256458,"Delta":427032262},{"NoteNumber":69,"Velocity":51,"Duration":255449,"SoundDuration":255449,"Delta":427288720},{"NoteNumber":70,"Velocity":52,"Duration":254125,"SoundDuration":254125,"Delta":427544169},{"NoteNumber":71,"Velocity":54,"Duration":253464,"SoundDuration":253464,"Delta":427798295},{"NoteNumber":74,"Velocity":56,"Duration":126732,"SoundDuration":126732,"Delta":428051759},{"NoteNumber":72,"Velocity":54,"Duration":127062,"SoundDuration":127062,"Delta":428178491},{"NoteNumber":71,"Velocity":52,"Duration":127724,"SoundDuration":127724,"Delta":428305554},{"NoteNumber":72,"Velocity":54,"Duration":128397,"SoundDuration":128397,"Delta":428433279},{"NoteNumber":70,"Velocity":52,"Duration":128733,"SoundDuration":128733,"Delta":428561676},{"NoteNumber":68,"Velocity":49,"Duration":129757,"SoundDuration":129757,"Delta":428690409},{"NoteNumber":67,"Velocity":51,"Duration":130104,"SoundDuration":130104,"Delta":428820167},{"NoteNumber":65,"Velocity":50,"Duration":130798,"SoundDuration":130798,"Delta":428950271},{"NoteNumber":55,"Velocity":54,"Duration":1054851,"SoundDuration":1054851,"Delta":429081070},{"NoteNumber":63,"Velocity":54,"Duration":1054851,"SoundDuration":1054851,"Delta":429081070},{"NoteNumber":45,"Velocity":44,"Duration":263712,"SoundDuration":263712,"Delta":429081070},{"NoteNumber":46,"Velocity":46,"Duration":263712,"SoundDuration":263712,"Delta":429344783},{"NoteNumber":48,"Velocity":49,"Duration":263712,"SoundDuration":263712,"Delta":429608496},{"NoteNumber":46,"Velocity":45,"Duration":241736,"SoundDuration":241736,"Delta":429872209},{"NoteNumber":53,"Velocity":47,"Duration":131151,"SoundDuration":131151,"Delta":430135922},{"NoteNumber":62,"Velocity":47,"Duration":131151,"SoundDuration":131151,"Delta":430135922},{"NoteNumber":46,"Velocity":45,"Duration":1042925,"SoundDuration":1042925,"Delta":430135922},{"NoteNumber":58,"Velocity":49,"Duration":130798,"SoundDuration":130798,"Delta":430267073},{"NoteNumber":57,"Velocity":50,"Duration":130798,"SoundDuration":130798,"Delta":430397872},{"NoteNumber":58,"Velocity":51,"Duration":130798,"SoundDuration":130798,"Delta":430528671},{"NoteNumber":59,"Velocity":52,"Duration":130104,"SoundDuration":130104,"Delta":430659470},{"NoteNumber":60,"Velocity":53,"Duration":129757,"SoundDuration":129757,"Delta":430789574},{"NoteNumber":61,"Velocity":54,"Duration":129757,"SoundDuration":129757,"Delta":430919332},{"NoteNumber":62,"Velocity":54,"Duration":129757,"SoundDuration":129757,"Delta":431049090},{"NoteNumber":63,"Velocity":55,"Duration":129074,"SoundDuration":129074,"Delta":431178848},{"NoteNumber":64,"Velocity":56,"Duration":128733,"SoundDuration":128733,"Delta":431307922},{"NoteNumber":65,"Velocity":57,"Duration":128733,"SoundDuration":128733,"Delta":431436656},{"NoteNumber":66,"Velocity":59,"Duration":128733,"SoundDuration":128733,"Delta":431565389},{"NoteNumber":67,"Velocity":60,"Duration":128060,"SoundDuration":128060,"Delta":431694122},{"NoteNumber":68,"Velocity":61,"Duration":127724,"SoundDuration":127724,"Delta":431822183},{"NoteNumber":69,"Velocity":62,"Duration":134000,"SoundDuration":134000,"Delta":431949908},{"NoteNumber":70,"Velocity":63,"Duration":111666,"SoundDuration":111666,"Delta":432083908},{"NoteNumber":67,"Velocity":63,"Duration":1029929,"SoundDuration":1029929,"Delta":432217909},{"NoteNumber":70,"Velocity":63,"Duration":774480,"SoundDuration":774480,"Delta":432217909},{"NoteNumber":39,"Velocity":45,"Duration":1029929,"SoundDuration":1029929,"Delta":432217909},{"NoteNumber":51,"Velocity":45,"Duration":1029929,"SoundDuration":1029929,"Delta":432217909},{"NoteNumber":72,"Velocity":57,"Duration":127724,"SoundDuration":127724,"Delta":432992389},{"NoteNumber":70,"Velocity":53,"Duration":127724,"SoundDuration":127724,"Delta":433120114},{"NoteNumber":68,"Velocity":55,"Duration":127062,"SoundDuration":127062,"Delta":433247839},{"NoteNumber":67,"Velocity":54,"Duration":127393,"SoundDuration":127393,"Delta":433374902},{"NoteNumber":72,"Velocity":56,"Duration":128397,"SoundDuration":128397,"Delta":433502295},{"NoteNumber":70,"Velocity":53,"Duration":129757,"SoundDuration":129757,"Delta":433630692},{"NoteNumber":75,"Velocity":57,"Duration":130798,"SoundDuration":130798,"Delta":433760450},{"NoteNumber":74,"Velocity":55,"Duration":130798,"SoundDuration":130798,"Delta":433891249},{"NoteNumber":77,"Velocity":61,"Duration":130798,"SoundDuration":130798,"Delta":434022048},{"NoteNumber":75,"Velocity":55,"Duration":130798,"SoundDuration":130798,"Delta":434152846},{"NoteNumber":80,"Velocity":63,"Duration":131856,"SoundDuration":131856,"Delta":434283645},{"NoteNumber":51,"Velocity":53,"Duration":1054851,"SoundDuration":1054851,"Delta":434283645},{"NoteNumber":60,"Velocity":53,"Duration":1054851,"SoundDuration":1054851,"Delta":434283645},{"NoteNumber":79,"Velocity":59,"Duration":131856,"SoundDuration":131856,"Delta":434415502},{"NoteNumber":78,"Velocity":61,"Duration":131856,"SoundDuration":131856,"Delta":434547358},{"NoteNumber":79,"Velocity":61,"Duration":131856,"SoundDuration":131856,"Delta":434679215},{"NoteNumber":77,"Velocity":61,"Duration":131856,"SoundDuration":131856,"Delta":434811071},{"NoteNumber":75,"Velocity":59,"Duration":131856,"SoundDuration":131856,"Delta":434942928},{"NoteNumber":74,"Velocity":57,"Duration":131856,"SoundDuration":131856,"Delta":435074784},{"NoteNumber":72,"Velocity":55,"Duration":131856,"SoundDuration":131856,"Delta":435206641},{"NoteNumber":70,"Velocity":60,"Duration":500083,"SoundDuration":500083,"Delta":435338497},{"NoteNumber":53,"Velocity":51,"Duration":1035893,"SoundDuration":1035893,"Delta":435338497},{"NoteNumber":60,"Velocity":51,"Duration":1035893,"SoundDuration":1035893,"Delta":435338497},{"NoteNumber":69,"Velocity":63,"Duration":1057995,"SoundDuration":1057995,"Delta":435838581},{"NoteNumber":58,"Velocity":46,"Duration":522185,"SoundDuration":522185,"Delta":436374391},{"NoteNumber":62,"Velocity":46,"Duration":1057995,"SoundDuration":1057995,"Delta":436374391},{"NoteNumber":68,"Velocity":63,"Duration":803715,"SoundDuration":803715,"Delta":436896576},{"NoteNumber":59,"Velocity":40,"Duration":535810,"SoundDuration":535810,"Delta":436896576},{"NoteNumber":63,"Velocity":47,"Duration":1575664,"SoundDuration":1575664,"Delta":437432386},{"NoteNumber":60,"Velocity":47,"Duration":523354,"SoundDuration":523354,"Delta":437432386},{"NoteNumber":67,"Velocity":66,"Duration":255449,"SoundDuration":255449,"Delta":437700291},{"NoteNumber":75,"Velocity":68,"Duration":255449,"SoundDuration":255449,"Delta":437955741},{"NoteNumber":55,"Velocity":45,"Duration":533278,"SoundDuration":533278,"Delta":437955741},{"NoteNumber":73,"Velocity":64,"Duration":277829,"SoundDuration":277829,"Delta":438211190},{"NoteNumber":71,"Velocity":67,"Duration":259515,"SoundDuration":259515,"Delta":438489019},{"NoteNumber":56,"Velocity":50,"Duration":519030,"SoundDuration":519030,"Delta":438489019},{"NoteNumber":72,"Velocity":64,"Duration":259515,"SoundDuration":259515,"Delta":438748535},{"NoteNumber":74,"Velocity":69,"Duration":251508,"SoundDuration":251508,"Delta":439008050},{"NoteNumber":75,"Velocity":64,"Duration":230549,"SoundDuration":230549,"Delta":439259559},{"NoteNumber":75,"Velocity":70,"Duration":531726,"SoundDuration":531726,"Delta":439511068},{"NoteNumber":46,"Velocity":51,"Duration":2076525,"SoundDuration":2076525,"Delta":439511068},{"NoteNumber":55,"Velocity":51,"Duration":1046659,"SoundDuration":1046659,"Delta":439511068},{"NoteNumber":70,"Velocity":66,"Duration":772399,"SoundDuration":772399,"Delta":440042795},{"NoteNumber":56,"Velocity":37,"Duration":1029866,"SoundDuration":1029866,"Delta":440557728},{"NoteNumber":72,"Velocity":54,"Duration":128733,"SoundDuration":128733,"Delta":440815194},{"NoteNumber":70,"Velocity":50,"Duration":107277,"SoundDuration":107277,"Delta":440943928},{"NoteNumber":70,"Velocity":53,"Duration":128733,"SoundDuration":128733,"Delta":441072661},{"NoteNumber":68,"Velocity":45,"Duration":128733,"SoundDuration":128733,"Delta":441201394},{"NoteNumber":67,"Velocity":51,"Duration":128733,"SoundDuration":128733,"Delta":441330127},{"NoteNumber":65,"Velocity":45,"Duration":128733,"SoundDuration":128733,"Delta":441458861},{"NoteNumber":63,"Velocity":46,"Duration":1054851,"SoundDuration":1054851,"Delta":441587594},{"NoteNumber":51,"Velocity":30,"Duration":263712,"SoundDuration":263712,"Delta":441587594},{"NoteNumber":55,"Velocity":26,"Duration":263712,"SoundDuration":263712,"Delta":441851307},{"NoteNumber":58,"Velocity":27,"Duration":263712,"SoundDuration":263712,"Delta":442115020},{"NoteNumber":55,"Velocity":27,"Duration":263712,"SoundDuration":263712,"Delta":442378733},{"NoteNumber":51,"Velocity":30,"Duration":263712,"SoundDuration":263712,"Delta":442642446},{"NoteNumber":55,"Velocity":27,"Duration":263712,"SoundDuration":263712,"Delta":442906159},{"NoteNumber":67,"Velocity":46,"Duration":510898,"SoundDuration":510898,"Delta":443169872},{"NoteNumber":70,"Velocity":46,"Duration":510898,"SoundDuration":510898,"Delta":443169872},{"NoteNumber":58,"Velocity":29,"Duration":255449,"SoundDuration":255449,"Delta":443169872},{"NoteNumber":55,"Velocity":27,"Duration":255449,"SoundDuration":255449,"Delta":443425321},{"NoteNumber":67,"Velocity":50,"Duration":510898,"SoundDuration":510898,"Delta":443680771},{"NoteNumber":70,"Velocity":50,"Duration":510898,"SoundDuration":510898,"Delta":443680771},{"NoteNumber":51,"Velocity":33,"Duration":255449,"SoundDuration":255449,"Delta":443680771},{"NoteNumber":55,"Velocity":27,"Duration":255449,"SoundDuration":255449,"Delta":443936220},{"NoteNumber":67,"Velocity":46,"Duration":540442,"SoundDuration":540442,"Delta":444191670},{"NoteNumber":70,"Velocity":46,"Duration":540442,"SoundDuration":540442,"Delta":444191670},{"NoteNumber":58,"Velocity":29,"Duration":270221,"SoundDuration":270221,"Delta":444191670},{"NoteNumber":55,"Velocity":27,"Duration":270221,"SoundDuration":270221,"Delta":444461891},{"NoteNumber":68,"Velocity":54,"Duration":1582277,"SoundDuration":1582277,"Delta":444732113},{"NoteNumber":75,"Velocity":54,"Duration":527425,"SoundDuration":527425,"Delta":444732113},{"NoteNumber":51,"Velocity":36,"Duration":263712,"SoundDuration":263712,"Delta":444732113},{"NoteNumber":53,"Velocity":27,"Duration":263712,"SoundDuration":263712,"Delta":444995826},{"NoteNumber":74,"Velocity":46,"Duration":1054851,"SoundDuration":1054851,"Delta":445259539},{"NoteNumber":56,"Velocity":30,"Duration":263712,"SoundDuration":263712,"Delta":445259539},{"NoteNumber":53,"Velocity":27,"Duration":263712,"SoundDuration":263712,"Delta":445523252},{"NoteNumber":51,"Velocity":32,"Duration":263712,"SoundDuration":263712,"Delta":445786965},{"NoteNumber":53,"Velocity":27,"Duration":263712,"SoundDuration":263712,"Delta":446050678},{"NoteNumber":82,"Velocity":50,"Duration":255449,"SoundDuration":255449,"Delta":446314391},{"NoteNumber":56,"Velocity":27,"Duration":255449,"SoundDuration":255449,"Delta":446314391},{"NoteNumber":80,"Velocity":47,"Duration":255449,"SoundDuration":255449,"Delta":446569840},{"NoteNumber":53,"Velocity":26,"Duration":255449,"SoundDuration":255449,"Delta":446569840},{"NoteNumber":79,"Velocity":52,"Duration":255449,"SoundDuration":255449,"Delta":446825290},{"NoteNumber":51,"Velocity":32,"Duration":255449,"SoundDuration":255449,"Delta":446825290},{"NoteNumber":77,"Velocity":47,"Duration":255449,"SoundDuration":255449,"Delta":447080739},{"NoteNumber":53,"Velocity":27,"Duration":255449,"SoundDuration":255449,"Delta":447080739},{"NoteNumber":75,"Velocity":49,"Duration":255449,"SoundDuration":255449,"Delta":447336189},{"NoteNumber":56,"Velocity":27,"Duration":255449,"SoundDuration":255449,"Delta":447336189},{"NoteNumber":74,"Velocity":45,"Duration":255449,"SoundDuration":255449,"Delta":447591638},{"NoteNumber":53,"Velocity":27,"Duration":255449,"SoundDuration":255449,"Delta":447591638},{"NoteNumber":77,"Velocity":54,"Duration":86206,"SoundDuration":86206,"Delta":447847088},{"NoteNumber":51,"Velocity":33,"Duration":258620,"SoundDuration":258620,"Delta":447847088},{"NoteNumber":75,"Velocity":52,"Duration":648425,"SoundDuration":648425,"Delta":447933295},{"NoteNumber":55,"Velocity":26,"Duration":258620,"SoundDuration":258620,"Delta":448105709},{"NoteNumber":58,"Velocity":27,"Duration":260869,"SoundDuration":260869,"Delta":448364329},{"NoteNumber":74,"Velocity":49,"Duration":130434,"SoundDuration":130434,"Delta":448625199},{"NoteNumber":55,"Velocity":26,"Duration":260869,"SoundDuration":260869,"Delta":448625199},{"NoteNumber":72,"Velocity":45,"Duration":130434,"SoundDuration":130434,"Delta":448755634},{"NoteNumber":70,"Velocity":50,"Duration":499999,"SoundDuration":499999,"Delta":448886068},{"NoteNumber":51,"Velocity":31,"Duration":260869,"SoundDuration":260869,"Delta":448886068},{"NoteNumber":55,"Velocity":26,"Duration":260869,"SoundDuration":260869,"Delta":449146938},{"NoteNumber":67,"Velocity":49,"Duration":459809,"SoundDuration":459809,"Delta":449407807},{"NoteNumber":70,"Velocity":49,"Duration":459809,"SoundDuration":459809,"Delta":449407807},{"NoteNumber":58,"Velocity":27,"Duration":255449,"SoundDuration":255449,"Delta":449407807},{"NoteNumber":55,"Velocity":26,"Duration":255449,"SoundDuration":255449,"Delta":449663257},{"NoteNumber":67,"Velocity":53,"Duration":459809,"SoundDuration":459809,"Delta":449918706},{"NoteNumber":70,"Velocity":53,"Duration":459809,"SoundDuration":459809,"Delta":449918706},{"NoteNumber":51,"Velocity":33,"Duration":255449,"SoundDuration":255449,"Delta":449918706},{"NoteNumber":55,"Velocity":27,"Duration":255449,"SoundDuration":255449,"Delta":450174156},{"NoteNumber":67,"Velocity":49,"Duration":470875,"SoundDuration":470875,"Delta":450429605},{"NoteNumber":70,"Velocity":49,"Duration":470875,"SoundDuration":470875,"Delta":450429605},{"NoteNumber":58,"Velocity":30,"Duration":261597,"SoundDuration":261597,"Delta":450429605},{"NoteNumber":55,"Velocity":27,"Duration":261597,"SoundDuration":261597,"Delta":450691203},{"NoteNumber":68,"Velocity":62,"Duration":508620,"SoundDuration":508620,"Delta":450952800},{"NoteNumber":75,"Velocity":62,"Duration":250000,"SoundDuration":250000,"Delta":450952800},{"NoteNumber":51,"Velocity":36,"Duration":250000,"SoundDuration":250000,"Delta":450952800},{"NoteNumber":74,"Velocity":55,"Duration":258620,"SoundDuration":258620,"Delta":451202800},{"NoteNumber":53,"Velocity":25,"Duration":258620,"SoundDuration":258620,"Delta":451202800},{"NoteNumber":84,"Velocity":60,"Duration":1034483,"SoundDuration":1034483,"Delta":451461421},{"NoteNumber":56,"Velocity":27,"Duration":258620,"SoundDuration":258620,"Delta":451461421},{"NoteNumber":53,"Velocity":24,"Duration":258620,"SoundDuration":258620,"Delta":451720042},{"NoteNumber":51,"Velocity":29,"Duration":258620,"SoundDuration":258620,"Delta":451978663},{"NoteNumber":53,"Velocity":23,"Duration":258620,"SoundDuration":258620,"Delta":452237283},{"NoteNumber":82,"Velocity":50,"Duration":126732,"SoundDuration":126732,"Delta":452495904},{"NoteNumber":56,"Velocity":27,"Duration":253464,"SoundDuration":253464,"Delta":452495904},{"NoteNumber":80,"Velocity":49,"Duration":126732,"SoundDuration":126732,"Delta":452622636},{"NoteNumber":84,"Velocity":52,"Duration":126732,"SoundDuration":126732,"Delta":452749368},{"NoteNumber":53,"Velocity":23,"Duration":253464,"SoundDuration":253464,"Delta":452749368},{"NoteNumber":80,"Velocity":49,"Duration":126732,"SoundDuration":126732,"Delta":452876100},{"NoteNumber":79,"Velocity":51,"Duration":126732,"SoundDuration":126732,"Delta":453002832},{"NoteNumber":51,"Velocity":30,"Duration":253464,"SoundDuration":253464,"Delta":453002832},{"NoteNumber":77,"Velocity":49,"Duration":126732,"SoundDuration":126732,"Delta":453129564},{"NoteNumber":80,"Velocity":51,"Duration":126731,"SoundDuration":126731,"Delta":453256296},{"NoteNumber":53,"Velocity":26,"Duration":253463,"SoundDuration":253463,"Delta":453256296},{"NoteNumber":77,"Velocity":49,"Duration":126732,"SoundDuration":126732,"Delta":453383028},{"NoteNumber":75,"Velocity":51,"Duration":126732,"SoundDuration":126732,"Delta":453509760},{"NoteNumber":56,"Velocity":26,"Duration":253464,"SoundDuration":253464,"Delta":453509760},{"NoteNumber":74,"Velocity":49,"Duration":126732,"SoundDuration":126732,"Delta":453636492},{"NoteNumber":77,"Velocity":52,"Duration":126732,"SoundDuration":126732,"Delta":453763224},{"NoteNumber":53,"Velocity":25,"Duration":253464,"SoundDuration":253464,"Delta":453763224},{"NoteNumber":74,"Velocity":49,"Duration":126732,"SoundDuration":126732,"Delta":453889956},{"NoteNumber":75,"Velocity":54,"Duration":126732,"SoundDuration":126732,"Delta":454016688},{"NoteNumber":51,"Velocity":27,"Duration":1016214,"SoundDuration":1016214,"Delta":454016688},{"NoteNumber":55,"Velocity":27,"Duration":1016214,"SoundDuration":1016214,"Delta":454016688},{"NoteNumber":77,"Velocity":52,"Duration":126732,"SoundDuration":126732,"Delta":454143420},{"NoteNumber":75,"Velocity":52,"Duration":126732,"SoundDuration":126732,"Delta":454270152},{"NoteNumber":74,"Velocity":52,"Duration":126732,"SoundDuration":126732,"Delta":454396884},{"NoteNumber":75,"Velocity":50,"Duration":83836,"SoundDuration":83836,"Delta":454523616},{"NoteNumber":76,"Velocity":47,"Duration":84162,"SoundDuration":84162,"Delta":454607453},{"NoteNumber":77,"Velocity":50,"Duration":84488,"SoundDuration":84488,"Delta":454691615},{"NoteNumber":78,"Velocity":53,"Duration":127724,"SoundDuration":127724,"Delta":454776103},{"NoteNumber":79,"Velocity":54,"Duration":129074,"SoundDuration":129074,"Delta":454903827},{"NoteNumber":70,"Velocity":50,"Duration":506928,"SoundDuration":506928,"Delta":455032902},{"NoteNumber":67,"Velocity":45,"Duration":544959,"SoundDuration":544959,"Delta":455539830},{"NoteNumber":70,"Velocity":45,"Duration":544959,"SoundDuration":544959,"Delta":455539830},{"NoteNumber":55,"Velocity":32,"Duration":544959,"SoundDuration":544959,"Delta":455539830},{"NoteNumber":65,"Velocity":47,"Duration":568720,"SoundDuration":568720,"Delta":456084789},{"NoteNumber":68,"Velocity":47,"Duration":568720,"SoundDuration":568720,"Delta":456084789},{"NoteNumber":56,"Velocity":34,"Duration":568720,"SoundDuration":568720,"Delta":456084789},{"NoteNumber":63,"Velocity":51,"Duration":586854,"SoundDuration":586854,"Delta":456653510},{"NoteNumber":67,"Velocity":51,"Duration":586854,"SoundDuration":586854,"Delta":456653510},{"NoteNumber":57,"Velocity":35,"Duration":612369,"SoundDuration":612369,"Delta":456653510},{"NoteNumber":63,"Velocity":58,"Duration":1082381,"SoundDuration":1082381,"Delta":457265880},{"NoteNumber":70,"Velocity":58,"Duration":262302,"SoundDuration":262302,"Delta":457265880},{"NoteNumber":58,"Velocity":37,"Duration":1366741,"SoundDuration":1366741,"Delta":457265880},{"NoteNumber":69,"Velocity":49,"Duration":265861,"SoundDuration":265861,"Delta":457528182},{"NoteNumber":70,"Velocity":53,"Duration":269857,"SoundDuration":269857,"Delta":457794043},{"NoteNumber":67,"Velocity":42,"Duration":284360,"SoundDuration":284360,"Delta":458063901},{"NoteNumber":62,"Velocity":38,"Duration":1075499,"SoundDuration":1075499,"Delta":458348261},{"NoteNumber":65,"Velocity":38,"Duration":1075499,"SoundDuration":1075499,"Delta":458348261},{"NoteNumber":59,"Velocity":41,"Duration":263712,"SoundDuration":263712,"Delta":458632622},{"NoteNumber":60,"Velocity":45,"Duration":263712,"SoundDuration":263712,"Delta":458896335},{"NoteNumber":58,"Velocity":43,"Duration":241736,"SoundDuration":241736,"Delta":459160048},{"NoteNumber":58,"Velocity":45,"Duration":263712,"SoundDuration":263712,"Delta":459423761},{"NoteNumber":56,"Velocity":44,"Duration":263712,"SoundDuration":263712,"Delta":459687474},{"NoteNumber":55,"Velocity":45,"Duration":264429,"SoundDuration":264429,"Delta":459951187},{"NoteNumber":53,"Velocity":45,"Duration":256410,"SoundDuration":256410,"Delta":460215616},{"NoteNumber":70,"Velocity":67,"Duration":128205,"SoundDuration":128205,"Delta":460343821},{"NoteNumber":82,"Velocity":73,"Duration":1582277,"SoundDuration":1582277,"Delta":460472027},{"NoteNumber":51,"Velocity":53,"Duration":527425,"SoundDuration":527425,"Delta":460472027},{"NoteNumber":55,"Velocity":45,"Duration":527425,"SoundDuration":527425,"Delta":460999453},{"NoteNumber":58,"Velocity":47,"Duration":527425,"SoundDuration":527425,"Delta":461526879},{"NoteNumber":80,"Velocity":70,"Duration":131856,"SoundDuration":131856,"Delta":462054305},{"NoteNumber":63,"Velocity":45,"Duration":527426,"SoundDuration":527426,"Delta":462054305},{"NoteNumber":79,"Velocity":66,"Duration":131856,"SoundDuration":131856,"Delta":462186161},{"NoteNumber":77,"Velocity":70,"Duration":131856,"SoundDuration":131856,"Delta":462318018},{"NoteNumber":75,"Velocity":64,"Duration":131856,"SoundDuration":131856,"Delta":462449874},{"NoteNumber":74,"Velocity":74,"Duration":527425,"SoundDuration":527425,"Delta":462581731},{"NoteNumber":68,"Velocity":51,"Duration":527425,"SoundDuration":527425,"Delta":462581731},{"NoteNumber":75,"Velocity":72,"Duration":527425,"SoundDuration":527425,"Delta":463109157},{"NoteNumber":67,"Velocity":47,"Duration":527425,"SoundDuration":527425,"Delta":463109157},{"NoteNumber":74,"Velocity":67,"Duration":542597,"SoundDuration":542597,"Delta":463636583},{"NoteNumber":77,"Velocity":67,"Duration":542597,"SoundDuration":542597,"Delta":463636583},{"NoteNumber":68,"Velocity":51,"Duration":542597,"SoundDuration":542597,"Delta":463636583},{"NoteNumber":65,"Velocity":51,"Duration":542597,"SoundDuration":542597,"Delta":463636583},{"NoteNumber":80,"Velocity":69,"Duration":131856,"SoundDuration":131856,"Delta":464179180},{"NoteNumber":75,"Velocity":69,"Duration":527425,"SoundDuration":527425,"Delta":464179180},{"NoteNumber":67,"Velocity":47,"Duration":527425,"SoundDuration":527425,"Delta":464179180},{"NoteNumber":63,"Velocity":47,"Duration":527425,"SoundDuration":527425,"Delta":464179180},{"NoteNumber":79,"Velocity":65,"Duration":131856,"SoundDuration":131856,"Delta":464311037},{"NoteNumber":77,"Velocity":66,"Duration":131856,"SoundDuration":131856,"Delta":464442893},{"NoteNumber":79,"Velocity":65,"Duration":131856,"SoundDuration":131856,"Delta":464574750},{"NoteNumber":77,"Velocity":70,"Duration":527425,"SoundDuration":527425,"Delta":464706606},{"NoteNumber":80,"Velocity":70,"Duration":527425,"SoundDuration":527425,"Delta":464706606},{"NoteNumber":62,"Velocity":47,"Duration":527425,"SoundDuration":527425,"Delta":464706606},{"NoteNumber":65,"Velocity":47,"Duration":527425,"SoundDuration":527425,"Delta":464706606},{"NoteNumber":70,"Velocity":57,"Duration":490463,"SoundDuration":490463,"Delta":465234032},{"NoteNumber":70,"Velocity":59,"Duration":490463,"SoundDuration":490463,"Delta":465778991},{"NoteNumber":70,"Velocity":59,"Duration":490463,"SoundDuration":490463,"Delta":466323950},{"NoteNumber":80,"Velocity":72,"Duration":1582277,"SoundDuration":1582277,"Delta":466868909},{"NoteNumber":58,"Velocity":45,"Duration":527425,"SoundDuration":527425,"Delta":467396335},{"NoteNumber":62,"Velocity":45,"Duration":527425,"SoundDuration":527425,"Delta":467923761},{"NoteNumber":82,"Velocity":69,"Duration":131856,"SoundDuration":131856,"Delta":468451187},{"NoteNumber":65,"Velocity":45,"Duration":527426,"SoundDuration":527426,"Delta":468451187},{"NoteNumber":80,"Velocity":65,"Duration":131856,"SoundDuration":131856,"Delta":468583044},{"NoteNumber":79,"Velocity":69,"Duration":131856,"SoundDuration":131856,"Delta":468714900},{"NoteNumber":77,"Velocity":64,"Duration":131856,"SoundDuration":131856,"Delta":468846757},{"NoteNumber":75,"Velocity":73,"Duration":527425,"SoundDuration":527425,"Delta":468978613},{"NoteNumber":67,"Velocity":50,"Duration":527425,"SoundDuration":527425,"Delta":468978613},{"NoteNumber":74,"Velocity":70,"Duration":527425,"SoundDuration":527425,"Delta":469506039},{"NoteNumber":77,"Velocity":70,"Duration":527425,"SoundDuration":527425,"Delta":469506039},{"NoteNumber":70,"Velocity":45,"Duration":1065359,"SoundDuration":1065359,"Delta":469506039},{"NoteNumber":68,"Velocity":45,"Duration":527425,"SoundDuration":527425,"Delta":469506039},{"NoteNumber":75,"Velocity":71,"Duration":537933,"SoundDuration":537933,"Delta":470033465},{"NoteNumber":79,"Velocity":71,"Duration":537933,"SoundDuration":537933,"Delta":470033465},{"NoteNumber":67,"Velocity":51,"Duration":537933,"SoundDuration":537933,"Delta":470033465},{"NoteNumber":82,"Velocity":67,"Duration":134000,"SoundDuration":134000,"Delta":470571399},{"NoteNumber":77,"Velocity":67,"Duration":536001,"SoundDuration":536001,"Delta":470571399},{"NoteNumber":65,"Velocity":45,"Duration":536001,"SoundDuration":536001,"Delta":470571399},{"NoteNumber":68,"Velocity":45,"Duration":536001,"SoundDuration":536001,"Delta":470571399},{"NoteNumber":80,"Velocity":63,"Duration":134000,"SoundDuration":134000,"Delta":470705399},{"NoteNumber":79,"Velocity":67,"Duration":134000,"SoundDuration":134000,"Delta":470839399},{"NoteNumber":80,"Velocity":64,"Duration":134000,"SoundDuration":134000,"Delta":470973400},{"NoteNumber":79,"Velocity":72,"Duration":268000,"SoundDuration":268000,"Delta":471107400},{"NoteNumber":82,"Velocity":72,"Duration":268000,"SoundDuration":268000,"Delta":471107400},{"NoteNumber":63,"Velocity":50,"Duration":536001,"SoundDuration":536001,"Delta":471107400},{"NoteNumber":67,"Velocity":50,"Duration":536001,"SoundDuration":536001,"Delta":471107400},{"NoteNumber":39,"Velocity":54,"Duration":490463,"SoundDuration":490463,"Delta":471643402},{"NoteNumber":51,"Velocity":54,"Duration":490463,"SoundDuration":490463,"Delta":471643402},{"NoteNumber":39,"Velocity":56,"Duration":490463,"SoundDuration":490463,"Delta":472188361},{"NoteNumber":51,"Velocity":56,"Duration":490463,"SoundDuration":490463,"Delta":472188361},{"NoteNumber":39,"Velocity":54,"Duration":490463,"SoundDuration":490463,"Delta":472733320},{"NoteNumber":51,"Velocity":54,"Duration":490463,"SoundDuration":490463,"Delta":472733320},{"NoteNumber":73,"Velocity":83,"Duration":1318564,"SoundDuration":1318564,"Delta":473278279},{"NoteNumber":63,"Velocity":47,"Duration":474683,"SoundDuration":474683,"Delta":473805705},{"NoteNumber":55,"Velocity":47,"Duration":474683,"SoundDuration":474683,"Delta":473805705},{"NoteNumber":55,"Velocity":49,"Duration":474683,"SoundDuration":474683,"Delta":474333131},{"NoteNumber":63,"Velocity":49,"Duration":474683,"SoundDuration":474683,"Delta":474333131},{"NoteNumber":75,"Velocity":62,"Duration":65928,"SoundDuration":65928,"Delta":474596844},{"NoteNumber":73,"Velocity":58,"Duration":65928,"SoundDuration":65928,"Delta":474662772},{"NoteNumber":72,"Velocity":62,"Duration":65928,"SoundDuration":65928,"Delta":474728700},{"NoteNumber":73,"Velocity":59,"Duration":65928,"SoundDuration":65928,"Delta":474794628},{"NoteNumber":75,"Velocity":67,"Duration":263157,"SoundDuration":263157,"Delta":474860557},{"NoteNumber":55,"Velocity":48,"Duration":473684,"SoundDuration":473684,"Delta":474860557},{"NoteNumber":63,"Velocity":48,"Duration":473684,"SoundDuration":473684,"Delta":474860557},{"NoteNumber":77,"Velocity":67,"Duration":263250,"SoundDuration":263250,"Delta":475123715},{"NoteNumber":75,"Velocity":67,"Duration":264788,"SoundDuration":264788,"Delta":475386965},{"NoteNumber":55,"Velocity":51,"Duration":479484,"SoundDuration":479484,"Delta":475386965},{"NoteNumber":63,"Velocity":51,"Duration":479484,"SoundDuration":479484,"Delta":475386965},{"NoteNumber":73,"Velocity":60,"Duration":268741,"SoundDuration":268741,"Delta":475651753},{"NoteNumber":72,"Velocity":67,"Duration":272103,"SoundDuration":272103,"Delta":475920494},{"NoteNumber":55,"Velocity":45,"Duration":503584,"SoundDuration":503584,"Delta":475920494},{"NoteNumber":63,"Velocity":45,"Duration":503584,"SoundDuration":503584,"Delta":475920494},{"NoteNumber":71,"Velocity":61,"Duration":264416,"SoundDuration":264416,"Delta":476192597},{"NoteNumber":71,"Velocity":70,"Duration":1340003,"SoundDuration":1340003,"Delta":476480305},{"NoteNumber":55,"Velocity":47,"Duration":536001,"SoundDuration":536001,"Delta":477016306},{"NoteNumber":63,"Velocity":47,"Duration":1072002,"SoundDuration":1072002,"Delta":477016306},{"NoteNumber":56,"Velocity":50,"Duration":536001,"SoundDuration":536001,"Delta":477552308},{"NoteNumber":72,"Velocity":67,"Duration":268000,"SoundDuration":268000,"Delta":477820309},{"NoteNumber":75,"Velocity":69,"Duration":261597,"SoundDuration":261597,"Delta":478088309},{"NoteNumber":63,"Velocity":55,"Duration":470875,"SoundDuration":470875,"Delta":478088309},{"NoteNumber":56,"Velocity":55,"Duration":470875,"SoundDuration":470875,"Delta":478088309},{"NoteNumber":74,"Velocity":69,"Duration":261597,"SoundDuration":261597,"Delta":478349907},{"NoteNumber":77,"Velocity":69,"Duration":256410,"SoundDuration":256410,"Delta":478611504},{"NoteNumber":56,"Velocity":55,"Duration":470696,"SoundDuration":470696,"Delta":478611504},{"NoteNumber":63,"Velocity":55,"Duration":470696,"SoundDuration":470696,"Delta":478611504},{"NoteNumber":75,"Velocity":64,"Duration":267857,"SoundDuration":267857,"Delta":478867915},{"NoteNumber":74,"Velocity":68,"Duration":258620,"SoundDuration":258620,"Delta":479135772},{"NoteNumber":56,"Velocity":50,"Duration":472906,"SoundDuration":472906,"Delta":479135772},{"NoteNumber":63,"Velocity":50,"Duration":472906,"SoundDuration":472906,"Delta":479135772},{"NoteNumber":72,"Velocity":61,"Duration":267857,"SoundDuration":267857,"Delta":479394393},{"NoteNumber":70,"Velocity":59,"Duration":211900,"SoundDuration":211900,"Delta":479662250},{"NoteNumber":55,"Velocity":53,"Duration":508560,"SoundDuration":508560,"Delta":479662250},{"NoteNumber":63,"Velocity":53,"Duration":508560,"SoundDuration":508560,"Delta":479662250},{"NoteNumber":71,"Velocity":60,"Duration":211900,"SoundDuration":211900,"Delta":479831770},{"NoteNumber":72,"Velocity":62,"Duration":209849,"SoundDuration":209849,"Delta":480001290},{"NoteNumber":73,"Velocity":66,"Duration":201645,"SoundDuration":201645,"Delta":480170811},{"NoteNumber":56,"Velocity":48,"Duration":509879,"SoundDuration":509879,"Delta":480170811},{"NoteNumber":63,"Velocity":48,"Duration":509879,"SoundDuration":509879,"Delta":480170811},{"NoteNumber":74,"Velocity":68,"Duration":214610,"SoundDuration":214610,"Delta":480332127},{"NoteNumber":75,"Velocity":69,"Duration":178603,"SoundDuration":178603,"Delta":480502087},{"NoteNumber":75,"Velocity":60,"Duration":131856,"SoundDuration":131856,"Delta":480680690},{"NoteNumber":46,"Velocity":50,"Duration":474683,"SoundDuration":474683,"Delta":480680690},{"NoteNumber":55,"Velocity":50,"Duration":474683,"SoundDuration":474683,"Delta":480680690},{"NoteNumber":63,"Velocity":73,"Duration":922995,"SoundDuration":922995,"Delta":480812547},{"NoteNumber":46,"Velocity":46,"Duration":474683,"SoundDuration":474683,"Delta":481208116},{"NoteNumber":55,"Velocity":46,"Duration":474683,"SoundDuration":474683,"Delta":481208116},{"NoteNumber":67,"Velocity":59,"Duration":254237,"SoundDuration":254237,"Delta":481735542},{"NoteNumber":62,"Velocity":59,"Duration":1060814,"SoundDuration":1060814,"Delta":481735542},{"NoteNumber":46,"Velocity":39,"Duration":472419,"SoundDuration":472419,"Delta":481735542},{"NoteNumber":56,"Velocity":39,"Duration":472419,"SoundDuration":472419,"Delta":481735542},{"NoteNumber":65,"Velocity":64,"Duration":272727,"SoundDuration":272727,"Delta":481989780},{"NoteNumber":63,"Velocity":64,"Duration":258620,"SoundDuration":258620,"Delta":482262507},{"NoteNumber":46,"Velocity":39,"Duration":478804,"SoundDuration":478804,"Delta":482262507},{"NoteNumber":56,"Velocity":39,"Duration":478804,"SoundDuration":478804,"Delta":482262507},{"NoteNumber":65,"Velocity":59,"Duration":275229,"SoundDuration":275229,"Delta":482521128},{"NoteNumber":63,"Velocity":55,"Duration":1067966,"SoundDuration":1067966,"Delta":482796357},{"NoteNumber":51,"Velocity":45,"Duration":270270,"SoundDuration":270270,"Delta":482796357},{"NoteNumber":55,"Velocity":45,"Duration":270270,"SoundDuration":270270,"Delta":482796357},{"NoteNumber":51,"Velocity":50,"Duration":270270,"SoundDuration":270270,"Delta":483066627},{"NoteNumber":55,"Velocity":54,"Duration":263712,"SoundDuration":263712,"Delta":483336897},{"NoteNumber":58,"Velocity":57,"Duration":263712,"SoundDuration":263712,"Delta":483600610},{"NoteNumber":56,"Velocity":63,"Duration":263712,"SoundDuration":263712,"Delta":483864323},{"NoteNumber":58,"Velocity":56,"Duration":263712,"SoundDuration":263712,"Delta":484128036},{"NoteNumber":63,"Velocity":75,"Duration":471157,"SoundDuration":471157,"Delta":484391749},{"NoteNumber":70,"Velocity":75,"Duration":471157,"SoundDuration":471157,"Delta":484391749},{"NoteNumber":55,"Velocity":63,"Duration":261597,"SoundDuration":261597,"Delta":484391749},{"NoteNumber":58,"Velocity":56,"Duration":262302,"SoundDuration":262302,"Delta":484653347},{"NoteNumber":65,"Velocity":80,"Duration":476403,"SoundDuration":476403,"Delta":484915649},{"NoteNumber":70,"Velocity":59,"Duration":476403,"SoundDuration":476403,"Delta":484915649},{"NoteNumber":53,"Velocity":63,"Duration":263712,"SoundDuration":263712,"Delta":484915649},{"NoteNumber":58,"Velocity":56,"Duration":265863,"SoundDuration":265863,"Delta":485179362},{"NoteNumber":67,"Velocity":75,"Duration":481984,"SoundDuration":481984,"Delta":485445226},{"NoteNumber":70,"Velocity":75,"Duration":481984,"SoundDuration":481984,"Delta":485445226},{"NoteNumber":51,"Velocity":63,"Duration":267288,"SoundDuration":267288,"Delta":485445226},{"NoteNumber":58,"Velocity":56,"Duration":268740,"SoundDuration":268740,"Delta":485712514},{"NoteNumber":70,"Velocity":80,"Duration":653993,"SoundDuration":653993,"Delta":485981255},{"NoteNumber":68,"Velocity":63,"Duration":1569584,"SoundDuration":1569584,"Delta":485981255},{"NoteNumber":50,"Velocity":63,"Duration":261597,"SoundDuration":261597,"Delta":485981255},{"NoteNumber":53,"Velocity":54,"Duration":261597,"SoundDuration":261597,"Delta":486242852},{"NoteNumber":56,"Velocity":56,"Duration":261597,"SoundDuration":261597,"Delta":486504450},{"NoteNumber":72,"Velocity":76,"Duration":130798,"SoundDuration":130798,"Delta":486635249},{"NoteNumber":70,"Velocity":70,"Duration":130798,"SoundDuration":130798,"Delta":486766047},{"NoteNumber":55,"Velocity":53,"Duration":261597,"SoundDuration":261597,"Delta":486766047},{"NoteNumber":69,"Velocity":69,"Duration":130798,"SoundDuration":130798,"Delta":486896846},{"NoteNumber":70,"Velocity":79,"Duration":261597,"SoundDuration":261597,"Delta":487027645},{"NoteNumber":53,"Velocity":61,"Duration":261597,"SoundDuration":261597,"Delta":487027645},{"NoteNumber":51,"Velocity":54,"Duration":261597,"SoundDuration":261597,"Delta":487289242},{"NoteNumber":62,"Velocity":74,"Duration":531726,"SoundDuration":531726,"Delta":487550840},{"NoteNumber":70,"Velocity":74,"Duration":531726,"SoundDuration":531726,"Delta":487550840},{"NoteNumber":50,"Velocity":56,"Duration":265863,"SoundDuration":265863,"Delta":487550840},{"NoteNumber":48,"Velocity":54,"Duration":265863,"SoundDuration":265863,"Delta":487816703},{"NoteNumber":63,"Velocity":76,"Duration":527425,"SoundDuration":527425,"Delta":488082566},{"NoteNumber":72,"Velocity":76,"Duration":527425,"SoundDuration":527425,"Delta":488082566},{"NoteNumber":46,"Velocity":56,"Duration":263712,"SoundDuration":263712,"Delta":488082566},{"NoteNumber":48,"Velocity":54,"Duration":263712,"SoundDuration":263712,"Delta":488346279},{"NoteNumber":65,"Velocity":72,"Duration":523194,"SoundDuration":523194,"Delta":488609992},{"NoteNumber":74,"Velocity":72,"Duration":523194,"SoundDuration":523194,"Delta":488609992},{"NoteNumber":44,"Velocity":56,"Duration":261597,"SoundDuration":261597,"Delta":488609992},{"NoteNumber":46,"Velocity":52,"Duration":261597,"SoundDuration":261597,"Delta":488871590},{"NoteNumber":75,"Velocity":81,"Duration":639583,"SoundDuration":639583,"Delta":489133187},{"NoteNumber":63,"Velocity":81,"Duration":1532928,"SoundDuration":1532928,"Delta":489133187},{"NoteNumber":43,"Velocity":61,"Duration":258149,"SoundDuration":258149,"Delta":489133187},{"NoteNumber":46,"Velocity":47,"Duration":257466,"SoundDuration":257466,"Delta":489391337},{"NoteNumber":51,"Velocity":52,"Duration":247933,"SoundDuration":247933,"Delta":489648803},{"NoteNumber":77,"Velocity":70,"Duration":123966,"SoundDuration":123966,"Delta":489772770},{"NoteNumber":79,"Velocity":72,"Duration":126122,"SoundDuration":126122,"Delta":489896737},{"NoteNumber":46,"Velocity":47,"Duration":256557,"SoundDuration":256557,"Delta":489896737},{"NoteNumber":75,"Velocity":66,"Duration":130434,"SoundDuration":130434,"Delta":490022860},{"NoteNumber":70,"Velocity":69,"Duration":256410,"SoundDuration":256410,"Delta":490153295},{"NoteNumber":55,"Velocity":52,"Duration":256410,"SoundDuration":256410,"Delta":490153295},{"NoteNumber":67,"Velocity":52,"Duration":540442,"SoundDuration":540442,"Delta":490666116},{"NoteNumber":70,"Velocity":52,"Duration":540442,"SoundDuration":540442,"Delta":490666116},{"NoteNumber":51,"Velocity":43,"Duration":540442,"SoundDuration":540442,"Delta":490666116},{"NoteNumber":55,"Velocity":43,"Duration":540442,"SoundDuration":540442,"Delta":490666116},{"NoteNumber":65,"Velocity":54,"Duration":538990,"SoundDuration":538990,"Delta":491206559},{"NoteNumber":68,"Velocity":54,"Duration":538990,"SoundDuration":538990,"Delta":491206559},{"NoteNumber":53,"Velocity":43,"Duration":538990,"SoundDuration":538990,"Delta":491206559},{"NoteNumber":56,"Velocity":43,"Duration":538990,"SoundDuration":538990,"Delta":491206559},{"NoteNumber":63,"Velocity":52,"Duration":583885,"SoundDuration":583885,"Delta":491745549},{"NoteNumber":67,"Velocity":52,"Duration":583885,"SoundDuration":583885,"Delta":491745549},{"NoteNumber":55,"Velocity":43,"Duration":583885,"SoundDuration":583885,"Delta":491745549},{"NoteNumber":58,"Velocity":43,"Duration":583885,"SoundDuration":583885,"Delta":491745549},{"NoteNumber":65,"Velocity":57,"Duration":648788,"SoundDuration":648788,"Delta":492329434},{"NoteNumber":56,"Velocity":46,"Duration":1038062,"SoundDuration":1038062,"Delta":492329434},{"NoteNumber":60,"Velocity":46,"Duration":1038062,"SoundDuration":1038062,"Delta":492329434},{"NoteNumber":67,"Velocity":50,"Duration":129757,"SoundDuration":129757,"Delta":492978223},{"NoteNumber":68,"Velocity":52,"Duration":129757,"SoundDuration":129757,"Delta":493107980},{"NoteNumber":65,"Velocity":50,"Duration":129757,"SoundDuration":129757,"Delta":493237738},{"NoteNumber":72,"Velocity":56,"Duration":259515,"SoundDuration":259515,"Delta":493367496},{"NoteNumber":60,"Velocity":46,"Duration":531726,"SoundDuration":531726,"Delta":493886527},{"NoteNumber":65,"Velocity":46,"Duration":531726,"SoundDuration":531726,"Delta":493886527},{"NoteNumber":44,"Velocity":36,"Duration":531726,"SoundDuration":531726,"Delta":493886527},{"NoteNumber":53,"Velocity":36,"Duration":531726,"SoundDuration":531726,"Delta":493886527},{"NoteNumber":58,"Velocity":49,"Duration":531726,"SoundDuration":531726,"Delta":494418253},{"NoteNumber":63,"Velocity":49,"Duration":531726,"SoundDuration":531726,"Delta":494418253},{"NoteNumber":46,"Velocity":43,"Duration":1090697,"SoundDuration":1090697,"Delta":494418253},{"NoteNumber":55,"Velocity":43,"Duration":531726,"SoundDuration":531726,"Delta":494418253},{"NoteNumber":62,"Velocity":46,"Duration":535681,"SoundDuration":535681,"Delta":494949980},{"NoteNumber":65,"Velocity":46,"Duration":535681,"SoundDuration":535681,"Delta":494949980},{"NoteNumber":56,"Velocity":36,"Duration":535681,"SoundDuration":535681,"Delta":494949980},{"NoteNumber":62,"Velocity":54,"Duration":1117943,"SoundDuration":1117943,"Delta":495508951},{"NoteNumber":65,"Velocity":54,"Duration":838457,"SoundDuration":838457,"Delta":495508951},{"NoteNumber":51,"Velocity":45,"Duration":1397428,"SoundDuration":1397428,"Delta":495508951},{"NoteNumber":56,"Velocity":45,"Duration":1117943,"SoundDuration":1117943,"Delta":495508951},{"NoteNumber":66,"Velocity":50,"Duration":279485,"SoundDuration":279485,"Delta":496347409},{"NoteNumber":63,"Velocity":45,"Duration":558971,"SoundDuration":558971,"Delta":496626894},{"NoteNumber":67,"Velocity":45,"Duration":558971,"SoundDuration":558971,"Delta":496626894},{"NoteNumber":55,"Velocity":35,"Duration":279485,"SoundDuration":279485,"Delta":496626894},{"NoteNumber":63,"Velocity":52,"Duration":279485,"SoundDuration":279485,"Delta":496906380},{"NoteNumber":75,"Velocity":76,"Duration":482401,"SoundDuration":482401,"Delta":497185866},{"NoteNumber":82,"Velocity":76,"Duration":482401,"SoundDuration":482401,"Delta":497185866},{"NoteNumber":67,"Velocity":54,"Duration":268000,"SoundDuration":268000,"Delta":497185866},{"NoteNumber":70,"Velocity":51,"Duration":268000,"SoundDuration":268000,"Delta":497453867},{"NoteNumber":77,"Velocity":77,"Duration":482401,"SoundDuration":482401,"Delta":497721867},{"NoteNumber":82,"Velocity":77,"Duration":482401,"SoundDuration":482401,"Delta":497721867},{"NoteNumber":68,"Velocity":57,"Duration":268000,"SoundDuration":268000,"Delta":497721867},{"NoteNumber":67,"Velocity":52,"Duration":268000,"SoundDuration":268000,"Delta":497989868},{"NoteNumber":79,"Velocity":76,"Duration":482401,"SoundDuration":482401,"Delta":498257869},{"NoteNumber":82,"Velocity":76,"Duration":482401,"SoundDuration":482401,"Delta":498257869},{"NoteNumber":65,"Velocity":54,"Duration":268000,"SoundDuration":268000,"Delta":498257869},{"NoteNumber":63,"Velocity":53,"Duration":268000,"SoundDuration":268000,"Delta":498525870},{"NoteNumber":82,"Velocity":81,"Duration":653993,"SoundDuration":653993,"Delta":498793870},{"NoteNumber":80,"Velocity":81,"Duration":1567535,"SoundDuration":1567535,"Delta":498793870},{"NoteNumber":62,"Velocity":63,"Duration":261597,"SoundDuration":261597,"Delta":498793870},{"NoteNumber":65,"Velocity":54,"Duration":261597,"SoundDuration":261597,"Delta":499055468},{"NoteNumber":68,"Velocity":56,"Duration":261597,"SoundDuration":261597,"Delta":499317065},{"NoteNumber":84,"Velocity":73,"Duration":130798,"SoundDuration":130798,"Delta":499447864},{"NoteNumber":82,"Velocity":69,"Duration":130798,"SoundDuration":130798,"Delta":499578663},{"NoteNumber":67,"Velocity":54,"Duration":261597,"SoundDuration":261597,"Delta":499578663},{"NoteNumber":81,"Velocity":70,"Duration":130798,"SoundDuration":130798,"Delta":499709462},{"NoteNumber":82,"Velocity":78,"Duration":261597,"SoundDuration":261597,"Delta":499840260},{"NoteNumber":65,"Velocity":61,"Duration":261597,"SoundDuration":261597,"Delta":499840260},{"NoteNumber":63,"Velocity":54,"Duration":259548,"SoundDuration":259548,"Delta":500101858},{"NoteNumber":74,"Velocity":76,"Duration":514370,"SoundDuration":514370,"Delta":500361406},{"NoteNumber":82,"Velocity":76,"Duration":514370,"SoundDuration":514370,"Delta":500361406},{"NoteNumber":62,"Velocity":56,"Duration":255449,"SoundDuration":255449,"Delta":500361406},{"NoteNumber":60,"Velocity":54,"Duration":258920,"SoundDuration":258920,"Delta":500616856},{"NoteNumber":75,"Velocity":80,"Duration":538262,"SoundDuration":538262,"Delta":500875776},{"NoteNumber":84,"Velocity":80,"Duration":538262,"SoundDuration":538262,"Delta":500875776},{"NoteNumber":58,"Velocity":56,"Duration":267288,"SoundDuration":267288,"Delta":500875776},{"NoteNumber":60,"Velocity":54,"Duration":270974,"SoundDuration":270974,"Delta":501143065},{"NoteNumber":77,"Velocity":75,"Duration":551912,"SoundDuration":551912,"Delta":501414039},{"NoteNumber":86,"Velocity":75,"Duration":551912,"SoundDuration":551912,"Delta":501414039},{"NoteNumber":56,"Velocity":56,"Duration":274010,"SoundDuration":274010,"Delta":501414039},{"NoteNumber":58,"Velocity":53,"Duration":277902,"SoundDuration":277902,"Delta":501688049},{"NoteNumber":87,"Velocity":86,"Duration":640616,"SoundDuration":640616,"Delta":501965951},{"NoteNumber":75,"Velocity":86,"Duration":1543923,"SoundDuration":1543923,"Delta":501965951},{"NoteNumber":55,"Velocity":61,"Duration":258149,"SoundDuration":258149,"Delta":501965951},{"NoteNumber":58,"Velocity":45,"Duration":257466,"SoundDuration":257466,"Delta":502224101},{"NoteNumber":60,"Velocity":49,"Duration":250000,"SoundDuration":250000,"Delta":502481567},{"NoteNumber":86,"Velocity":68,"Duration":125000,"SoundDuration":125000,"Delta":502606567},{"NoteNumber":87,"Velocity":70,"Duration":132743,"SoundDuration":132743,"Delta":502731567},{"NoteNumber":62,"Velocity":45,"Duration":265486,"SoundDuration":265486,"Delta":502731567},{"NoteNumber":82,"Velocity":66,"Duration":132743,"SoundDuration":132743,"Delta":502864311},{"NoteNumber":79,"Velocity":61,"Duration":256410,"SoundDuration":256410,"Delta":502997054},{"NoteNumber":63,"Velocity":46,"Duration":256410,"SoundDuration":256410,"Delta":502997054},{"NoteNumber":79,"Velocity":54,"Duration":540442,"SoundDuration":540442,"Delta":503509875},{"NoteNumber":82,"Velocity":54,"Duration":540442,"SoundDuration":540442,"Delta":503509875},{"NoteNumber":63,"Velocity":43,"Duration":540442,"SoundDuration":540442,"Delta":503509875},{"NoteNumber":67,"Velocity":43,"Duration":540442,"SoundDuration":540442,"Delta":503509875},{"NoteNumber":77,"Velocity":54,"Duration":538990,"SoundDuration":538990,"Delta":504050318},{"NoteNumber":80,"Velocity":54,"Duration":538990,"SoundDuration":538990,"Delta":504050318},{"NoteNumber":65,"Velocity":43,"Duration":538990,"SoundDuration":538990,"Delta":504050318},{"NoteNumber":68,"Velocity":43,"Duration":538990,"SoundDuration":538990,"Delta":504050318},{"NoteNumber":75,"Velocity":54,"Duration":583885,"SoundDuration":583885,"Delta":504589308},{"NoteNumber":79,"Velocity":54,"Duration":583885,"SoundDuration":583885,"Delta":504589308},{"NoteNumber":67,"Velocity":36,"Duration":583885,"SoundDuration":583885,"Delta":504589308},{"NoteNumber":70,"Velocity":36,"Duration":583885,"SoundDuration":583885,"Delta":504589308},{"NoteNumber":76,"Velocity":51,"Duration":145539,"SoundDuration":145539,"Delta":505173193},{"NoteNumber":68,"Velocity":43,"Duration":573759,"SoundDuration":573759,"Delta":505173193},{"NoteNumber":72,"Velocity":43,"Duration":573759,"SoundDuration":573759,"Delta":505173193},{"NoteNumber":77,"Velocity":50,"Duration":143845,"SoundDuration":143845,"Delta":505318732},{"NoteNumber":79,"Velocity":56,"Duration":143013,"SoundDuration":143013,"Delta":505462578},{"NoteNumber":77,"Velocity":55,"Duration":141360,"SoundDuration":141360,"Delta":505605592},{"NoteNumber":80,"Velocity":59,"Duration":140548,"SoundDuration":140548,"Delta":505746953},{"NoteNumber":79,"Velocity":58,"Duration":138951,"SoundDuration":138951,"Delta":505887501},{"NoteNumber":82,"Velocity":62,"Duration":138166,"SoundDuration":138166,"Delta":506026452},{"NoteNumber":80,"Velocity":60,"Duration":136622,"SoundDuration":136622,"Delta":506164618},{"NoteNumber":84,"Velocity":66,"Duration":1054851,"SoundDuration":1054851,"Delta":506301241},{"NoteNumber":82,"Velocity":59,"Duration":527425,"SoundDuration":527425,"Delta":507356093},{"NoteNumber":62,"Velocity":43,"Duration":527425,"SoundDuration":527425,"Delta":507356093},{"NoteNumber":58,"Velocity":43,"Duration":1101149,"SoundDuration":1101149,"Delta":507356093},{"NoteNumber":68,"Velocity":43,"Duration":1101149,"SoundDuration":1101149,"Delta":507356093},{"NoteNumber":65,"Velocity":43,"Duration":573723,"SoundDuration":573723,"Delta":507883519},{"NoteNumber":74,"Velocity":53,"Duration":143430,"SoundDuration":143430,"Delta":508313811},{"NoteNumber":75,"Velocity":56,"Duration":1021797,"SoundDuration":1021797,"Delta":508457242},{"NoteNumber":63,"Velocity":43,"Duration":255449,"SoundDuration":255449,"Delta":508457242},{"NoteNumber":67,"Velocity":39,"Duration":255449,"SoundDuration":255449,"Delta":508712692},{"NoteNumber":70,"Velocity":40,"Duration":255449,"SoundDuration":255449,"Delta":508968141},{"NoteNumber":67,"Velocity":42,"Duration":255449,"SoundDuration":255449,"Delta":509223591},{"NoteNumber":63,"Velocity":46,"Duration":255449,"SoundDuration":255449,"Delta":509479040},{"NoteNumber":67,"Velocity":44,"Duration":255449,"SoundDuration":255449,"Delta":509734490},{"NoteNumber":85,"Velocity":69,"Duration":512243,"SoundDuration":512243,"Delta":509989939},{"NoteNumber":70,"Velocity":49,"Duration":255449,"SoundDuration":255449,"Delta":509989939},{"NoteNumber":67,"Velocity":50,"Duration":256794,"SoundDuration":256794,"Delta":510245389},{"NoteNumber":84,"Velocity":72,"Duration":518359,"SoundDuration":518359,"Delta":510502183},{"NoteNumber":68,"Velocity":58,"Duration":258149,"SoundDuration":258149,"Delta":510502183},{"NoteNumber":65,"Velocity":55,"Duration":260209,"SoundDuration":260209,"Delta":510760333},{"NoteNumber":86,"Velocity":75,"Duration":525310,"SoundDuration":525310,"Delta":511020542},{"NoteNumber":70,"Velocity":56,"Duration":261597,"SoundDuration":261597,"Delta":511020542},{"NoteNumber":68,"Velocity":58,"Duration":263712,"SoundDuration":263712,"Delta":511282140},{"NoteNumber":89,"Velocity":81,"Duration":531726,"SoundDuration":531726,"Delta":511545853},{"NoteNumber":67,"Velocity":62,"Duration":265863,"SoundDuration":265863,"Delta":511545853},{"NoteNumber":70,"Velocity":56,"Duration":265863,"SoundDuration":265863,"Delta":511811716},{"NoteNumber":87,"Velocity":78,"Duration":531726,"SoundDuration":531726,"Delta":512077579},{"NoteNumber":67,"Velocity":53,"Duration":265863,"SoundDuration":265863,"Delta":512077579},{"NoteNumber":65,"Velocity":55,"Duration":265863,"SoundDuration":265863,"Delta":512343442},{"NoteNumber":63,"Velocity":70,"Duration":265863,"SoundDuration":265863,"Delta":512609306},{"NoteNumber":61,"Velocity":61,"Duration":265863,"SoundDuration":265863,"Delta":512875169},{"NoteNumber":73,"Velocity":72,"Duration":545737,"SoundDuration":545737,"Delta":513141032},{"NoteNumber":58,"Velocity":64,"Duration":271726,"SoundDuration":271726,"Delta":513141032},{"NoteNumber":55,"Velocity":61,"Duration":274010,"SoundDuration":274010,"Delta":513412759},{"NoteNumber":72,"Velocity":74,"Duration":557401,"SoundDuration":557401,"Delta":513686769},{"NoteNumber":56,"Velocity":70,"Duration":277110,"SoundDuration":277110,"Delta":513686769},{"NoteNumber":53,"Velocity":64,"Duration":280291,"SoundDuration":280291,"Delta":513963880},{"NoteNumber":68,"Velocity":69,"Duration":654022,"SoundDuration":654022,"Delta":514244171},{"NoteNumber":74,"Velocity":69,"Duration":654022,"SoundDuration":654022,"Delta":514244171},{"NoteNumber":58,"Velocity":70,"Duration":327010,"SoundDuration":327010,"Delta":514244171},{"NoteNumber":46,"Velocity":59,"Duration":327011,"SoundDuration":327011,"Delta":514571182},{"NoteNumber":77,"Velocity":54,"Duration":1308043,"SoundDuration":1308043,"Delta":514898193},{"NoteNumber":68,"Velocity":54,"Duration":1308043,"SoundDuration":1308043,"Delta":514898193},{"NoteNumber":51,"Velocity":46,"Duration":1962065,"SoundDuration":1962065,"Delta":514898193},{"NoteNumber":67,"Velocity":42,"Duration":654021,"SoundDuration":654021,"Delta":516206237},{"NoteNumber":75,"Velocity":42,"Duration":654021,"SoundDuration":654021,"Delta":516206237},{"NoteNumber":62,"Velocity":41,"Duration":681972,"SoundDuration":681972,"Delta":516860259},{"NoteNumber":65,"Velocity":41,"Duration":681972,"SoundDuration":681972,"Delta":516860259},{"NoteNumber":63,"Velocity":46,"Duration":638433,"SoundDuration":638433,"Delta":517542232},{"NoteNumber":67,"Velocity":46,"Duration":638433,"SoundDuration":638433,"Delta":517542232},{"NoteNumber":65,"Velocity":45,"Duration":857388,"SoundDuration":857388,"Delta":518180665},{"NoteNumber":68,"Velocity":45,"Duration":857388,"SoundDuration":857388,"Delta":518180665},{"NoteNumber":46,"Velocity":36,"Duration":857388,"SoundDuration":857388,"Delta":518180665},{"NoteNumber":62,"Velocity":34,"Duration":2667260,"SoundDuration":2667260,"Delta":519038053},{"NoteNumber":65,"Velocity":37,"Duration":2667260,"SoundDuration":2667260,"Delta":519038053},{"NoteNumber":68,"Velocity":37,"Duration":2667260,"SoundDuration":2667260,"Delta":519038053},{"NoteNumber":39,"Velocity":27,"Duration":3334074,"SoundDuration":3334074,"Delta":519038053},{"NoteNumber":51,"Velocity":31,"Duration":3334074,"SoundDuration":3334074,"Delta":519038053},{"NoteNumber":63,"Velocity":36,"Duration":666814,"SoundDuration":666814,"Delta":521705313},{"NoteNumber":67,"Velocity":36,"Duration":666814,"SoundDuration":666814,"Delta":521705313}],"license":{"name":"Creative Commons Attribution-ShareAlike 3.0 Germany","url":"http://creativecommons.org/licenses/by-sa/3.0/de/deed.en","text":"The MIDI, audio (MP3, OGG) and video files of Bernd Krueger are licensed under the cc-by-sa Germany License. This means that you can use and adapt the files, as long as you attribute the copyright holder.\n\nName: Bernd Krueger\nSource: http://www.piano-midi.de\n\nThe distribution or public playback of the files is only allowed under identical license conditions.\n\nThe scores are open source.","attribution":"MIDI files by Bernd Krueger (piano-midi.de)","attributionUrl":"http://www.piano-midi.de"}}