{"title":"Piano Sonata No. 11 in A major, K. 331: III. Alla turca","artist":"Mozart","durationMs":189182,"midiSha256":"2999cc1fcb6ddef5fd50ab72f781236ec9a729c417801beffa449ebb8eeedf0e","midiObject":[{"NoteNumber":71,"Velocity":66,"Duration":99337,"SoundDuration":99337,"Delta":0},{"NoteNumber":69,"Velocity":64,"Duration":99337,"SoundDuration":99337,"Delta":99337},{"NoteNumber":68,"Velocity":64,"Duration":99337,"SoundDuration":99337,"Delta":198675},{"NoteNumber":69,"Velocity":64,"Duration":112782,"SoundDuration":112782,"Delta":298013},{"NoteNumber":72,"Velocity":71,"Duration":99337,"SoundDuration":99337,"Delta":410795},{"NoteNumber":57,"Velocity":57,"Duration":99337,"SoundDuration":99337,"Delta":410795},{"NoteNumber":64,"Velocity":52,"Duration":99337,"SoundDuration":99337,"Delta":609470},{"NoteNumber":60,"Velocity":43,"Duration":99337,"SoundDuration":99337,"Delta":609470},{"NoteNumber":74,"Velocity":66,"Duration":100000,"SoundDuration":100000,"Delta":821590},{"NoteNumber":60,"Velocity":43,"Duration":100000,"SoundDuration":100000,"Delta":821590},{"NoteNumber":64,"Velocity":52,"Duration":100000,"SoundDuration":100000,"Delta":821590},{"NoteNumber":72,"Velocity":63,"Duration":99999,"SoundDuration":99999,"Delta":921590},{"NoteNumber":71,"Velocity":63,"Duration":100000,"SoundDuration":100000,"Delta":1021590},{"NoteNumber":60,"Velocity":42,"Duration":100000,"SoundDuration":100000,"Delta":1021590},{"NoteNumber":64,"Velocity":51,"Duration":100000,"SoundDuration":100000,"Delta":1021590},{"NoteNumber":72,"Velocity":63,"Duration":113636,"SoundDuration":113636,"Delta":1121590},{"NoteNumber":76,"Velocity":72,"Duration":99337,"SoundDuration":99337,"Delta":1235226},{"NoteNumber":57,"Velocity":57,"Duration":99337,"SoundDuration":99337,"Delta":1235226},{"NoteNumber":64,"Velocity":52,"Duration":99337,"SoundDuration":99337,"Delta":1433902},{"NoteNumber":60,"Velocity":43,"Duration":99337,"SoundDuration":99337,"Delta":1433902},{"NoteNumber":77,"Velocity":66,"Duration":99337,"SoundDuration":99337,"Delta":1643534},{"NoteNumber":64,"Velocity":52,"Duration":99337,"SoundDuration":99337,"Delta":1643534},{"NoteNumber":60,"Velocity":43,"Duration":99337,"SoundDuration":99337,"Delta":1643534},{"NoteNumber":76,"Velocity":63,"Duration":99337,"SoundDuration":99337,"Delta":1742871},{"NoteNumber":75,"Velocity":63,"Duration":99337,"SoundDuration":99337,"Delta":1842209},{"NoteNumber":64,"Velocity":52,"Duration":99337,"SoundDuration":99337,"Delta":1842209},{"NoteNumber":60,"Velocity":43,"Duration":99337,"SoundDuration":99337,"Delta":1842209},{"NoteNumber":76,"Velocity":63,"Duration":104166,"SoundDuration":104166,"Delta":1941547},{"NoteNumber":83,"Velocity":70,"Duration":99337,"SoundDuration":99337,"Delta":2045714},{"NoteNumber":57,"Velocity":57,"Duration":99337,"SoundDuration":99337,"Delta":2045714},{"NoteNumber":81,"Velocity":64,"Duration":99337,"SoundDuration":99337,"Delta":2145051},{"NoteNumber":80,"Velocity":64,"Duration":99337,"SoundDuration":99337,"Delta":2244389},{"NoteNumber":64,"Velocity":50,"Duration":99337,"SoundDuration":99337,"Delta":2244389},{"NoteNumber":60,"Velocity":42,"Duration":99337,"SoundDuration":99337,"Delta":2244389},{"NoteNumber":81,"Velocity":64,"Duration":99337,"SoundDuration":99337,"Delta":2343727},{"NoteNumber":83,"Velocity":69,"Duration":101351,"SoundDuration":101351,"Delta":2443065},{"NoteNumber":57,"Velocity":57,"Duration":101351,"SoundDuration":101351,"Delta":2443065},{"NoteNumber":81,"Velocity":64,"Duration":101351,"SoundDuration":101351,"Delta":2544416},{"NoteNumber":80,"Velocity":64,"Duration":101351,"SoundDuration":101351,"Delta":2645767},{"NoteNumber":64,"Velocity":52,"Duration":101351,"SoundDuration":101351,"Delta":2645767},{"NoteNumber":60,"Velocity":43,"Duration":101351,"SoundDuration":101351,"Delta":2645767},{"NoteNumber":81,"Velocity":64,"Duration":114503,"SoundDuration":114503,"Delta":2747118},{"NoteNumber":84,"Velocity":72,"Duration":426743,"SoundDuration":426743,"Delta":2861622},{"NoteNumber":57,"Velocity":57,"Duration":102040,"SoundDuration":102040,"Delta":2861622},{"NoteNumber":64,"Velocity":50,"Duration":106383,"SoundDuration":106383,"Delta":3065704},{"NoteNumber":60,"Velocity":42,"Duration":106383,"SoundDuration":106383,"Delta":3065704},{"NoteNumber":81,"Velocity":68,"Duration":99337,"SoundDuration":99337,"Delta":3288366},{"NoteNumber":64,"Velocity":50,"Duration":99337,"SoundDuration":99337,"Delta":3288366},{"NoteNumber":60,"Velocity":42,"Duration":99337,"SoundDuration":99337,"Delta":3288366},{"NoteNumber":84,"Velocity":65,"Duration":107142,"SoundDuration":107142,"Delta":3487041},{"NoteNumber":64,"Velocity":50,"Duration":107142,"SoundDuration":107142,"Delta":3487041},{"NoteNumber":60,"Velocity":42,"Duration":107142,"SoundDuration":107142,"Delta":3487041},{"NoteNumber":79,"Velocity":63,"Duration":22321,"SoundDuration":22321,"Delta":3666999},{"NoteNumber":81,"Velocity":63,"Duration":22321,"SoundDuration":22321,"Delta":3689321},{"NoteNumber":83,"Velocity":80,"Duration":101351,"SoundDuration":101351,"Delta":3711642},{"NoteNumber":52,"Velocity":65,"Duration":101351,"SoundDuration":101351,"Delta":3711642},{"NoteNumber":78,"Velocity":54,"Duration":101351,"SoundDuration":101351,"Delta":3914345},{"NoteNumber":81,"Velocity":64,"Duration":101351,"SoundDuration":101351,"Delta":3914345},{"NoteNumber":64,"Velocity":53,"Duration":101351,"SoundDuration":101351,"Delta":3914345},{"NoteNumber":59,"Velocity":44,"Duration":101351,"SoundDuration":101351,"Delta":3914345},{"NoteNumber":76,"Velocity":58,"Duration":99337,"SoundDuration":99337,"Delta":4117047},{"NoteNumber":79,"Velocity":69,"Duration":99337,"SoundDuration":99337,"Delta":4117047},{"NoteNumber":64,"Velocity":53,"Duration":99337,"SoundDuration":99337,"Delta":4117047},{"NoteNumber":59,"Velocity":44,"Duration":99337,"SoundDuration":99337,"Delta":4117047},{"NoteNumber":78,"Velocity":54,"Duration":107142,"SoundDuration":107142,"Delta":4315723},{"NoteNumber":81,"Velocity":64,"Duration":107142,"SoundDuration":107142,"Delta":4315723},{"NoteNumber":64,"Velocity":53,"Duration":107142,"SoundDuration":107142,"Delta":4315723},{"NoteNumber":59,"Velocity":44,"Duration":107142,"SoundDuration":107142,"Delta":4315723},{"NoteNumber":79,"Velocity":65,"Duration":22455,"SoundDuration":22455,"Delta":4494294},{"NoteNumber":81,"Velocity":65,"Duration":22455,"SoundDuration":22455,"Delta":4516749},{"NoteNumber":83,"Velocity":82,"Duration":101351,"SoundDuration":101351,"Delta":4539204},{"NoteNumber":52,"Velocity":66,"Duration":101351,"SoundDuration":101351,"Delta":4539204},{"NoteNumber":78,"Velocity":56,"Duration":101351,"SoundDuration":101351,"Delta":4741907},{"NoteNumber":81,"Velocity":66,"Duration":101351,"SoundDuration":101351,"Delta":4741907},{"NoteNumber":64,"Velocity":52,"Duration":101351,"SoundDuration":101351,"Delta":4741907},{"NoteNumber":59,"Velocity":43,"Duration":101351,"SoundDuration":101351,"Delta":4741907},{"NoteNumber":76,"Velocity":58,"Duration":99337,"SoundDuration":99337,"Delta":4944609},{"NoteNumber":79,"Velocity":69,"Duration":99337,"SoundDuration":99337,"Delta":4944609},{"NoteNumber":64,"Velocity":52,"Duration":99337,"SoundDuration":99337,"Delta":4944609},{"NoteNumber":59,"Velocity":43,"Duration":99337,"SoundDuration":99337,"Delta":4944609},{"NoteNumber":78,"Velocity":55,"Duration":107913,"SoundDuration":107913,"Delta":5143285},{"NoteNumber":81,"Velocity":65,"Duration":107913,"SoundDuration":107913,"Delta":5143285},{"NoteNumber":64,"Velocity":52,"Duration":107913,"SoundDuration":107913,"Delta":5143285},{"NoteNumber":59,"Velocity":43,"Duration":107913,"SoundDuration":107913,"Delta":5143285},{"NoteNumber":79,"Velocity":64,"Duration":22189,"SoundDuration":22189,"Delta":5320006},{"NoteNumber":81,"Velocity":64,"Duration":47357,"SoundDuration":47357,"Delta":5342195},{"NoteNumber":83,"Velocity":79,"Duration":100671,"SoundDuration":100671,"Delta":5364385},{"NoteNumber":52,"Velocity":67,"Duration":100671,"SoundDuration":100671,"Delta":5364385},{"NoteNumber":78,"Velocity":57,"Duration":100671,"SoundDuration":100671,"Delta":5565727},{"NoteNumber":81,"Velocity":68,"Duration":100671,"SoundDuration":100671,"Delta":5565727},{"NoteNumber":64,"Velocity":52,"Duration":100671,"SoundDuration":100671,"Delta":5565727},{"NoteNumber":59,"Velocity":43,"Duration":100671,"SoundDuration":100671,"Delta":5565727},{"NoteNumber":76,"Velocity":58,"Duration":109488,"SoundDuration":109488,"Delta":5767070},{"NoteNumber":79,"Velocity":69,"Duration":109488,"SoundDuration":109488,"Delta":5767070},{"NoteNumber":47,"Velocity":52,"Duration":109488,"SoundDuration":109488,"Delta":5767070},{"NoteNumber":75,"Velocity":56,"Duration":116278,"SoundDuration":116278,"Delta":5986048},{"NoteNumber":78,"Velocity":66,"Duration":116278,"SoundDuration":116278,"Delta":5986048},{"NoteNumber":59,"Velocity":52,"Duration":116278,"SoundDuration":116278,"Delta":5986048},{"NoteNumber":76,"Velocity":69,"Duration":457317,"SoundDuration":457317,"Delta":6218606},{"NoteNumber":52,"Velocity":57,"Duration":457317,"SoundDuration":457317,"Delta":6218606},{"NoteNumber":71,"Velocity":66,"Duration":99337,"SoundDuration":99337,"Delta":6706411},{"NoteNumber":69,"Velocity":64,"Duration":99337,"SoundDuration":99337,"Delta":6805748},{"NoteNumber":68,"Velocity":64,"Duration":99337,"SoundDuration":99337,"Delta":6905086},{"NoteNumber":69,"Velocity":64,"Duration":112782,"SoundDuration":112782,"Delta":7004424},{"NoteNumber":72,"Velocity":71,"Duration":99337,"SoundDuration":99337,"Delta":7117206},{"NoteNumber":57,"Velocity":57,"Duration":99337,"SoundDuration":99337,"Delta":7117206},{"NoteNumber":64,"Velocity":52,"Duration":99337,"SoundDuration":99337,"Delta":7315881},{"NoteNumber":60,"Velocity":43,"Duration":99337,"SoundDuration":99337,"Delta":7315881},{"NoteNumber":74,"Velocity":66,"Duration":100000,"SoundDuration":100000,"Delta":7528001},{"NoteNumber":60,"Velocity":43,"Duration":100000,"SoundDuration":100000,"Delta":7528001},{"NoteNumber":64,"Velocity":52,"Duration":100000,"SoundDuration":100000,"Delta":7528001},{"NoteNumber":72,"Velocity":63,"Duration":99999,"SoundDuration":99999,"Delta":7628001},{"NoteNumber":71,"Velocity":63,"Duration":99999,"SoundDuration":99999,"Delta":7728001},{"NoteNumber":60,"Velocity":42,"Duration":99999,"SoundDuration":99999,"Delta":7728001},{"NoteNumber":64,"Velocity":51,"Duration":99999,"SoundDuration":99999,"Delta":7728001},{"NoteNumber":72,"Velocity":63,"Duration":113636,"SoundDuration":113636,"Delta":7828001},{"NoteNumber":76,"Velocity":72,"Duration":99337,"SoundDuration":99337,"Delta":7941637},{"NoteNumber":57,"Velocity":57,"Duration":99337,"SoundDuration":99337,"Delta":7941637},{"NoteNumber":64,"Velocity":52,"Duration":99337,"SoundDuration":99337,"Delta":8140313},{"NoteNumber":60,"Velocity":43,"Duration":99337,"SoundDuration":99337,"Delta":8140313},{"NoteNumber":77,"Velocity":66,"Duration":99337,"SoundDuration":99337,"Delta":8349945},{"NoteNumber":64,"Velocity":52,"Duration":99337,"SoundDuration":99337,"Delta":8349945},{"NoteNumber":60,"Velocity":43,"Duration":99337,"SoundDuration":99337,"Delta":8349945},{"NoteNumber":76,"Velocity":63,"Duration":99337,"SoundDuration":99337,"Delta":8449282},{"NoteNumber":75,"Velocity":63,"Duration":99337,"SoundDuration":99337,"Delta":8548620},{"NoteNumber":64,"Velocity":52,"Duration":99337,"SoundDuration":99337,"Delta":8548620},{"NoteNumber":60,"Velocity":43,"Duration":99337,"SoundDuration":99337,"Delta":8548620},{"NoteNumber":76,"Velocity":63,"Duration":104166,"SoundDuration":104166,"Delta":8647958},{"NoteNumber":83,"Velocity":70,"Duration":99337,"SoundDuration":99337,"Delta":8752125},{"NoteNumber":57,"Velocity":57,"Duration":99337,"SoundDuration":99337,"Delta":8752125},{"NoteNumber":81,"Velocity":64,"Duration":99337,"SoundDuration":99337,"Delta":8851462},{"NoteNumber":80,"Velocity":64,"Duration":99337,"SoundDuration":99337,"Delta":8950800},{"NoteNumber":64,"Velocity":50,"Duration":99337,"SoundDuration":99337,"Delta":8950800},{"NoteNumber":60,"Velocity":42,"Duration":99337,"SoundDuration":99337,"Delta":8950800},{"NoteNumber":81,"Velocity":64,"Duration":99337,"SoundDuration":99337,"Delta":9050138},{"NoteNumber":83,"Velocity":69,"Duration":101351,"SoundDuration":101351,"Delta":9149476},{"NoteNumber":57,"Velocity":57,"Duration":101351,"SoundDuration":101351,"Delta":9149476},{"NoteNumber":81,"Velocity":64,"Duration":101351,"SoundDuration":101351,"Delta":9250827},{"NoteNumber":80,"Velocity":64,"Duration":101351,"SoundDuration":101351,"Delta":9352178},{"NoteNumber":64,"Velocity":52,"Duration":101351,"SoundDuration":101351,"Delta":9352178},{"NoteNumber":60,"Velocity":43,"Duration":101351,"SoundDuration":101351,"Delta":9352178},{"NoteNumber":81,"Velocity":64,"Duration":114503,"SoundDuration":114503,"Delta":9453529},{"NoteNumber":84,"Velocity":72,"Duration":426743,"SoundDuration":426743,"Delta":9568033},{"NoteNumber":57,"Velocity":57,"Duration":102040,"SoundDuration":102040,"Delta":9568033},{"NoteNumber":64,"Velocity":50,"Duration":106382,"SoundDuration":106382,"Delta":9772115},{"NoteNumber":60,"Velocity":42,"Duration":106382,"SoundDuration":106382,"Delta":9772115},{"NoteNumber":81,"Velocity":68,"Duration":99337,"SoundDuration":99337,"Delta":9994777},{"NoteNumber":64,"Velocity":50,"Duration":99337,"SoundDuration":99337,"Delta":9994777},{"NoteNumber":60,"Velocity":42,"Duration":99337,"SoundDuration":99337,"Delta":9994777},{"NoteNumber":84,"Velocity":65,"Duration":107142,"SoundDuration":107142,"Delta":10193452},{"NoteNumber":64,"Velocity":50,"Duration":107142,"SoundDuration":107142,"Delta":10193452},{"NoteNumber":60,"Velocity":42,"Duration":107142,"SoundDuration":107142,"Delta":10193452},{"NoteNumber":79,"Velocity":63,"Duration":22321,"SoundDuration":22321,"Delta":10373410},{"NoteNumber":81,"Velocity":63,"Duration":22321,"SoundDuration":22321,"Delta":10395732},{"NoteNumber":83,"Velocity":80,"Duration":101351,"SoundDuration":101351,"Delta":10418053},{"NoteNumber":52,"Velocity":65,"Duration":101351,"SoundDuration":101351,"Delta":10418053},{"NoteNumber":78,"Velocity":54,"Duration":101351,"SoundDuration":101351,"Delta":10620756},{"NoteNumber":81,"Velocity":64,"Duration":101351,"SoundDuration":101351,"Delta":10620756},{"NoteNumber":64,"Velocity":53,"Duration":101351,"SoundDuration":101351,"Delta":10620756},{"NoteNumber":59,"Velocity":44,"Duration":101351,"SoundDuration":101351,"Delta":10620756},{"NoteNumber":76,"Velocity":58,"Duration":99337,"SoundDuration":99337,"Delta":10823458},{"NoteNumber":79,"Velocity":69,"Duration":99337,"SoundDuration":99337,"Delta":10823458},{"NoteNumber":64,"Velocity":53,"Duration":99337,"SoundDuration":99337,"Delta":10823458},{"NoteNumber":59,"Velocity":44,"Duration":99337,"SoundDuration":99337,"Delta":10823458},{"NoteNumber":78,"Velocity":54,"Duration":107142,"SoundDuration":107142,"Delta":11022134},{"NoteNumber":81,"Velocity":64,"Duration":107142,"SoundDuration":107142,"Delta":11022134},{"NoteNumber":64,"Velocity":53,"Duration":107142,"SoundDuration":107142,"Delta":11022134},{"NoteNumber":59,"Velocity":44,"Duration":107142,"SoundDuration":107142,"Delta":11022134},{"NoteNumber":79,"Velocity":65,"Duration":22455,"SoundDuration":22455,"Delta":11200705},{"NoteNumber":81,"Velocity":65,"Duration":22455,"SoundDuration":22455,"Delta":11223160},{"NoteNumber":83,"Velocity":82,"Duration":101351,"SoundDuration":101351,"Delta":11245615},{"NoteNumber":52,"Velocity":66,"Duration":101351,"SoundDuration":101351,"Delta":11245615},{"NoteNumber":78,"Velocity":56,"Duration":101351,"SoundDuration":101351,"Delta":11448318},{"NoteNumber":81,"Velocity":66,"Duration":101351,"SoundDuration":101351,"Delta":11448318},{"NoteNumber":64,"Velocity":52,"Duration":101351,"SoundDuration":101351,"Delta":11448318},{"NoteNumber":59,"Velocity":43,"Duration":101351,"SoundDuration":101351,"Delta":11448318},{"NoteNumber":76,"Velocity":58,"Duration":99337,"SoundDuration":99337,"Delta":11651020},{"NoteNumber":79,"Velocity":69,"Duration":99337,"SoundDuration":99337,"Delta":11651020},{"NoteNumber":64,"Velocity":52,"Duration":99337,"SoundDuration":99337,"Delta":11651020},{"NoteNumber":59,"Velocity":43,"Duration":99337,"SoundDuration":99337,"Delta":11651020},{"NoteNumber":78,"Velocity":55,"Duration":107913,"SoundDuration":107913,"Delta":11849696},{"NoteNumber":81,"Velocity":65,"Duration":107913,"SoundDuration":107913,"Delta":11849696},{"NoteNumber":64,"Velocity":52,"Duration":107913,"SoundDuration":107913,"Delta":11849696},{"NoteNumber":59,"Velocity":43,"Duration":107913,"SoundDuration":107913,"Delta":11849696},{"NoteNumber":79,"Velocity":64,"Duration":22189,"SoundDuration":22189,"Delta":12026417},{"NoteNumber":81,"Velocity":64,"Duration":47189,"SoundDuration":47189,"Delta":12048606},{"NoteNumber":83,"Velocity":79,"Duration":99999,"SoundDuration":99999,"Delta":12070796},{"NoteNumber":52,"Velocity":67,"Duration":99999,"SoundDuration":99999,"Delta":12070796},{"NoteNumber":78,"Velocity":57,"Duration":100000,"SoundDuration":100000,"Delta":12270796},{"NoteNumber":81,"Velocity":68,"Duration":100000,"SoundDuration":100000,"Delta":12270796},{"NoteNumber":64,"Velocity":52,"Duration":100000,"SoundDuration":100000,"Delta":12270796},{"NoteNumber":59,"Velocity":43,"Duration":100000,"SoundDuration":100000,"Delta":12270796},{"NoteNumber":76,"Velocity":58,"Duration":108695,"SoundDuration":108695,"Delta":12470796},{"NoteNumber":79,"Velocity":69,"Duration":108695,"SoundDuration":108695,"Delta":12470796},{"NoteNumber":47,"Velocity":52,"Duration":108695,"SoundDuration":108695,"Delta":12470796},{"NoteNumber":75,"Velocity":56,"Duration":122950,"SoundDuration":122950,"Delta":12688187},{"NoteNumber":78,"Velocity":66,"Duration":122950,"SoundDuration":122950,"Delta":12688187},{"NoteNumber":59,"Velocity":52,"Duration":122950,"SoundDuration":122950,"Delta":12688187},{"NoteNumber":76,"Velocity":69,"Duration":432691,"SoundDuration":432691,"Delta":12934089},{"NoteNumber":52,"Velocity":57,"Duration":432691,"SoundDuration":432691,"Delta":12934089},{"NoteNumber":72,"Velocity":56,"Duration":108695,"SoundDuration":108695,"Delta":13395627},{"NoteNumber":76,"Velocity":56,"Duration":108695,"SoundDuration":108695,"Delta":13395627},{"NoteNumber":74,"Velocity":56,"Duration":106382,"SoundDuration":106382,"Delta":13613018},{"NoteNumber":77,"Velocity":56,"Duration":106382,"SoundDuration":106382,"Delta":13613018},{"NoteNumber":76,"Velocity":66,"Duration":104166,"SoundDuration":104166,"Delta":13825784},{"NoteNumber":79,"Velocity":66,"Duration":104166,"SoundDuration":104166,"Delta":13825784},{"NoteNumber":48,"Velocity":59,"Duration":104166,"SoundDuration":104166,"Delta":13825784},{"NoteNumber":76,"Velocity":57,"Duration":104166,"SoundDuration":104166,"Delta":14034118},{"NoteNumber":79,"Velocity":57,"Duration":104166,"SoundDuration":104166,"Delta":14034118},{"NoteNumber":60,"Velocity":53,"Duration":104166,"SoundDuration":104166,"Delta":14034118},{"NoteNumber":81,"Velocity":64,"Duration":102739,"SoundDuration":102739,"Delta":14242451},{"NoteNumber":52,"Velocity":59,"Duration":102739,"SoundDuration":102739,"Delta":14242451},{"NoteNumber":79,"Velocity":57,"Duration":102739,"SoundDuration":102739,"Delta":14345191},{"NoteNumber":77,"Velocity":57,"Duration":107760,"SoundDuration":107760,"Delta":14447931},{"NoteNumber":64,"Velocity":57,"Duration":107760,"SoundDuration":107760,"Delta":14447931},{"NoteNumber":76,"Velocity":57,"Duration":112782,"SoundDuration":112782,"Delta":14555691},{"NoteNumber":74,"Velocity":65,"Duration":433409,"SoundDuration":433409,"Delta":14668473},{"NoteNumber":71,"Velocity":65,"Duration":215827,"SoundDuration":215827,"Delta":14668473},{"NoteNumber":55,"Velocity":60,"Duration":433409,"SoundDuration":433409,"Delta":14668473},{"NoteNumber":67,"Velocity":59,"Duration":217581,"SoundDuration":217581,"Delta":14884301},{"NoteNumber":72,"Velocity":56,"Duration":108695,"SoundDuration":108695,"Delta":15101883},{"NoteNumber":76,"Velocity":56,"Duration":108695,"SoundDuration":108695,"Delta":15101883},{"NoteNumber":74,"Velocity":56,"Duration":106382,"SoundDuration":106382,"Delta":15319274},{"NoteNumber":77,"Velocity":56,"Duration":106382,"SoundDuration":106382,"Delta":15319274},{"NoteNumber":76,"Velocity":66,"Duration":104166,"SoundDuration":104166,"Delta":15532040},{"NoteNumber":79,"Velocity":66,"Duration":104166,"SoundDuration":104166,"Delta":15532040},{"NoteNumber":48,"Velocity":59,"Duration":104166,"SoundDuration":104166,"Delta":15532040},{"NoteNumber":76,"Velocity":57,"Duration":104166,"SoundDuration":104166,"Delta":15740374},{"NoteNumber":79,"Velocity":57,"Duration":104166,"SoundDuration":104166,"Delta":15740374},{"NoteNumber":60,"Velocity":53,"Duration":104166,"SoundDuration":104166,"Delta":15740374},{"NoteNumber":81,"Velocity":64,"Duration":102739,"SoundDuration":102739,"Delta":15948707},{"NoteNumber":52,"Velocity":59,"Duration":102739,"SoundDuration":102739,"Delta":15948707},{"NoteNumber":79,"Velocity":57,"Duration":102739,"SoundDuration":102739,"Delta":16051447},{"NoteNumber":77,"Velocity":57,"Duration":107760,"SoundDuration":107760,"Delta":16154187},{"NoteNumber":64,"Velocity":57,"Duration":107760,"SoundDuration":107760,"Delta":16154187},{"NoteNumber":76,"Velocity":57,"Duration":112781,"SoundDuration":112781,"Delta":16261948},{"NoteNumber":74,"Velocity":65,"Duration":433409,"SoundDuration":433409,"Delta":16374730},{"NoteNumber":71,"Velocity":65,"Duration":433409,"SoundDuration":433409,"Delta":16374730},{"NoteNumber":55,"Velocity":60,"Duration":433409,"SoundDuration":433409,"Delta":16374730},{"NoteNumber":69,"Velocity":56,"Duration":113636,"SoundDuration":113636,"Delta":16808139},{"NoteNumber":72,"Velocity":56,"Duration":113636,"SoundDuration":113636,"Delta":16808139},{"NoteNumber":71,"Velocity":56,"Duration":106383,"SoundDuration":106383,"Delta":17035411},{"NoteNumber":74,"Velocity":56,"Duration":106383,"SoundDuration":106383,"Delta":17035411},{"NoteNumber":72,"Velocity":66,"Duration":104166,"SoundDuration":104166,"Delta":17248177},{"NoteNumber":76,"Velocity":66,"Duration":104166,"SoundDuration":104166,"Delta":17248177},{"NoteNumber":45,"Velocity":59,"Duration":104166,"SoundDuration":104166,"Delta":17248177},{"NoteNumber":72,"Velocity":57,"Duration":104166,"SoundDuration":104166,"Delta":17456511},{"NoteNumber":76,"Velocity":57,"Duration":104166,"SoundDuration":104166,"Delta":17456511},{"NoteNumber":57,"Velocity":53,"Duration":104166,"SoundDuration":104166,"Delta":17456511},{"NoteNumber":77,"Velocity":64,"Duration":102739,"SoundDuration":102739,"Delta":17664844},{"NoteNumber":48,"Velocity":59,"Duration":102739,"SoundDuration":102739,"Delta":17664844},{"NoteNumber":76,"Velocity":57,"Duration":102739,"SoundDuration":102739,"Delta":17767584},{"NoteNumber":74,"Velocity":57,"Duration":107760,"SoundDuration":107760,"Delta":17870324},{"NoteNumber":60,"Velocity":57,"Duration":107760,"SoundDuration":107760,"Delta":17870324},{"NoteNumber":72,"Velocity":57,"Duration":112781,"SoundDuration":112781,"Delta":17978085},{"NoteNumber":71,"Velocity":65,"Duration":431654,"SoundDuration":431654,"Delta":18090867},{"NoteNumber":68,"Velocity":65,"Duration":215827,"SoundDuration":215827,"Delta":18090867},{"NoteNumber":52,"Velocity":60,"Duration":431654,"SoundDuration":431654,"Delta":18090867},{"NoteNumber":64,"Velocity":59,"Duration":215827,"SoundDuration":215827,"Delta":18306694},{"NoteNumber":69,"Velocity":56,"Duration":108695,"SoundDuration":108695,"Delta":18522522},{"NoteNumber":72,"Velocity":56,"Duration":108695,"SoundDuration":108695,"Delta":18522522},{"NoteNumber":71,"Velocity":56,"Duration":106383,"SoundDuration":106383,"Delta":18739913},{"NoteNumber":74,"Velocity":56,"Duration":106383,"SoundDuration":106383,"Delta":18739913},{"NoteNumber":72,"Velocity":66,"Duration":104166,"SoundDuration":104166,"Delta":18952679},{"NoteNumber":76,"Velocity":66,"Duration":104166,"SoundDuration":104166,"Delta":18952679},{"NoteNumber":45,"Velocity":59,"Duration":104166,"SoundDuration":104166,"Delta":18952679},{"NoteNumber":72,"Velocity":57,"Duration":104166,"SoundDuration":104166,"Delta":19161013},{"NoteNumber":76,"Velocity":57,"Duration":104166,"SoundDuration":104166,"Delta":19161013},{"NoteNumber":57,"Velocity":53,"Duration":104166,"SoundDuration":104166,"Delta":19161013},{"NoteNumber":77,"Velocity":64,"Duration":102739,"SoundDuration":102739,"Delta":19369346},{"NoteNumber":48,"Velocity":59,"Duration":102739,"SoundDuration":102739,"Delta":19369346},{"NoteNumber":76,"Velocity":57,"Duration":102739,"SoundDuration":102739,"Delta":19472086},{"NoteNumber":74,"Velocity":57,"Duration":107760,"SoundDuration":107760,"Delta":19574826},{"NoteNumber":60,"Velocity":57,"Duration":107760,"SoundDuration":107760,"Delta":19574826},{"NoteNumber":72,"Velocity":57,"Duration":112781,"SoundDuration":112781,"Delta":19682587},{"NoteNumber":71,"Velocity":65,"Duration":431654,"SoundDuration":431654,"Delta":19795369},{"NoteNumber":68,"Velocity":65,"Duration":431654,"SoundDuration":431654,"Delta":19795369},{"NoteNumber":52,"Velocity":60,"Duration":431654,"SoundDuration":431654,"Delta":19795369},{"NoteNumber":71,"Velocity":56,"Duration":99337,"SoundDuration":99337,"Delta":20227024},{"NoteNumber":69,"Velocity":56,"Duration":99337,"SoundDuration":99337,"Delta":20326361},{"NoteNumber":68,"Velocity":56,"Duration":99337,"SoundDuration":99337,"Delta":20425699},{"NoteNumber":69,"Velocity":56,"Duration":112781,"SoundDuration":112781,"Delta":20525037},{"NoteNumber":72,"Velocity":59,"Duration":99337,"SoundDuration":99337,"Delta":20637819},{"NoteNumber":57,"Velocity":53,"Duration":99337,"SoundDuration":99337,"Delta":20637819},{"NoteNumber":64,"Velocity":47,"Duration":99337,"SoundDuration":99337,"Delta":20836494},{"NoteNumber":60,"Velocity":47,"Duration":99337,"SoundDuration":99337,"Delta":20836494},{"NoteNumber":74,"Velocity":62,"Duration":100000,"SoundDuration":100000,"Delta":21048614},{"NoteNumber":60,"Velocity":47,"Duration":100000,"SoundDuration":100000,"Delta":21048614},{"NoteNumber":64,"Velocity":47,"Duration":100000,"SoundDuration":100000,"Delta":21048614},{"NoteNumber":72,"Velocity":57,"Duration":99999,"SoundDuration":99999,"Delta":21148614},{"NoteNumber":71,"Velocity":57,"Duration":100000,"SoundDuration":100000,"Delta":21248614},{"NoteNumber":60,"Velocity":47,"Duration":100000,"SoundDuration":100000,"Delta":21248614},{"NoteNumber":64,"Velocity":47,"Duration":100000,"SoundDuration":100000,"Delta":21248614},{"NoteNumber":72,"Velocity":57,"Duration":113636,"SoundDuration":113636,"Delta":21348614},{"NoteNumber":76,"Velocity":66,"Duration":99337,"SoundDuration":99337,"Delta":21462250},{"NoteNumber":57,"Velocity":54,"Duration":99337,"SoundDuration":99337,"Delta":21462250},{"NoteNumber":64,"Velocity":48,"Duration":99337,"SoundDuration":99337,"Delta":21660926},{"NoteNumber":60,"Velocity":48,"Duration":99337,"SoundDuration":99337,"Delta":21660926},{"NoteNumber":77,"Velocity":63,"Duration":99337,"SoundDuration":99337,"Delta":21870558},{"NoteNumber":64,"Velocity":48,"Duration":99337,"SoundDuration":99337,"Delta":21870558},{"NoteNumber":60,"Velocity":48,"Duration":99337,"SoundDuration":99337,"Delta":21870558},{"NoteNumber":76,"Velocity":58,"Duration":99337,"SoundDuration":99337,"Delta":21969895},{"NoteNumber":75,"Velocity":58,"Duration":99337,"SoundDuration":99337,"Delta":22069233},{"NoteNumber":64,"Velocity":48,"Duration":99337,"SoundDuration":99337,"Delta":22069233},{"NoteNumber":60,"Velocity":48,"Duration":99337,"SoundDuration":99337,"Delta":22069233},{"NoteNumber":76,"Velocity":58,"Duration":104166,"SoundDuration":104166,"Delta":22168571},{"NoteNumber":83,"Velocity":70,"Duration":100000,"SoundDuration":100000,"Delta":22272738},{"NoteNumber":57,"Velocity":56,"Duration":100000,"SoundDuration":100000,"Delta":22272738},{"NoteNumber":81,"Velocity":63,"Duration":99999,"SoundDuration":99999,"Delta":22372738},{"NoteNumber":80,"Velocity":63,"Duration":100000,"SoundDuration":100000,"Delta":22472738},{"NoteNumber":64,"Velocity":49,"Duration":100000,"SoundDuration":100000,"Delta":22472738},{"NoteNumber":60,"Velocity":49,"Duration":100000,"SoundDuration":100000,"Delta":22472738},{"NoteNumber":81,"Velocity":63,"Duration":99999,"SoundDuration":99999,"Delta":22572738},{"NoteNumber":83,"Velocity":71,"Duration":103448,"SoundDuration":103448,"Delta":22672738},{"NoteNumber":57,"Velocity":57,"Duration":103448,"SoundDuration":103448,"Delta":22672738},{"NoteNumber":81,"Velocity":64,"Duration":103448,"SoundDuration":103448,"Delta":22776186},{"NoteNumber":80,"Velocity":64,"Duration":103448,"SoundDuration":103448,"Delta":22879634},{"NoteNumber":64,"Velocity":52,"Duration":103448,"SoundDuration":103448,"Delta":22879634},{"NoteNumber":60,"Velocity":43,"Duration":103448,"SoundDuration":103448,"Delta":22879634},{"NoteNumber":81,"Velocity":64,"Duration":128205,"SoundDuration":128205,"Delta":22983082},{"NoteNumber":84,"Velocity":76,"Duration":426743,"SoundDuration":426743,"Delta":23111288},{"NoteNumber":53,"Velocity":57,"Duration":102040,"SoundDuration":102040,"Delta":23111288},{"NoteNumber":63,"Velocity":51,"Duration":106383,"SoundDuration":106383,"Delta":23315369},{"NoteNumber":57,"Velocity":51,"Duration":106383,"SoundDuration":106383,"Delta":23315369},{"NoteNumber":81,"Velocity":62,"Duration":102739,"SoundDuration":102739,"Delta":23538031},{"NoteNumber":63,"Velocity":43,"Duration":102739,"SoundDuration":102739,"Delta":23538031},{"NoteNumber":57,"Velocity":43,"Duration":102739,"SoundDuration":102739,"Delta":23538031},{"NoteNumber":83,"Velocity":62,"Duration":107142,"SoundDuration":107142,"Delta":23743511},{"NoteNumber":63,"Velocity":39,"Duration":107142,"SoundDuration":107142,"Delta":23743511},{"NoteNumber":57,"Velocity":39,"Duration":107142,"SoundDuration":107142,"Delta":23743511},{"NoteNumber":84,"Velocity":70,"Duration":101351,"SoundDuration":101351,"Delta":23957796},{"NoteNumber":52,"Velocity":46,"Duration":101351,"SoundDuration":101351,"Delta":23957796},{"NoteNumber":83,"Velocity":62,"Duration":101351,"SoundDuration":101351,"Delta":24160499},{"NoteNumber":64,"Velocity":42,"Duration":101351,"SoundDuration":101351,"Delta":24160499},{"NoteNumber":57,"Velocity":42,"Duration":101351,"SoundDuration":101351,"Delta":24160499},{"NoteNumber":81,"Velocity":62,"Duration":99337,"SoundDuration":99337,"Delta":24363201},{"NoteNumber":50,"Velocity":42,"Duration":99337,"SoundDuration":99337,"Delta":24363201},{"NoteNumber":80,"Velocity":62,"Duration":107142,"SoundDuration":107142,"Delta":24561877},{"NoteNumber":59,"Velocity":42,"Duration":107142,"SoundDuration":107142,"Delta":24561877},{"NoteNumber":53,"Velocity":42,"Duration":107142,"SoundDuration":107142,"Delta":24561877},{"NoteNumber":81,"Velocity":71,"Duration":101351,"SoundDuration":101351,"Delta":24776162},{"NoteNumber":48,"Velocity":47,"Duration":101351,"SoundDuration":101351,"Delta":24776162},{"NoteNumber":76,"Velocity":64,"Duration":101351,"SoundDuration":101351,"Delta":24978865},{"NoteNumber":57,"Velocity":39,"Duration":101351,"SoundDuration":101351,"Delta":24978865},{"NoteNumber":52,"Velocity":39,"Duration":101351,"SoundDuration":101351,"Delta":24978865},{"NoteNumber":50,"Velocity":41,"Duration":99337,"SoundDuration":99337,"Delta":25181567},{"NoteNumber":77,"Velocity":64,"Duration":99337,"SoundDuration":99337,"Delta":25184878},{"NoteNumber":74,"Velocity":64,"Duration":107913,"SoundDuration":107913,"Delta":25380243},{"NoteNumber":59,"Velocity":41,"Duration":107913,"SoundDuration":107913,"Delta":25380243},{"NoteNumber":53,"Velocity":41,"Duration":107913,"SoundDuration":107913,"Delta":25380243},{"NoteNumber":72,"Velocity":74,"Duration":410958,"SoundDuration":410958,"Delta":25596070},{"NoteNumber":52,"Velocity":48,"Duration":102739,"SoundDuration":102739,"Delta":25596070},{"NoteNumber":57,"Velocity":48,"Duration":102739,"SoundDuration":102739,"Delta":25596070},{"NoteNumber":57,"Velocity":41,"Duration":102739,"SoundDuration":102739,"Delta":25801550},{"NoteNumber":52,"Velocity":41,"Duration":102739,"SoundDuration":102739,"Delta":25801550},{"NoteNumber":52,"Velocity":41,"Duration":108447,"SoundDuration":108447,"Delta":26002748},{"NoteNumber":71,"Velocity":64,"Duration":54347,"SoundDuration":54347,"Delta":26007029},{"NoteNumber":56,"Velocity":41,"Duration":108695,"SoundDuration":108695,"Delta":26007029},{"NoteNumber":72,"Velocity":57,"Duration":54347,"SoundDuration":54347,"Delta":26061377},{"NoteNumber":71,"Velocity":57,"Duration":54347,"SoundDuration":54347,"Delta":26115725},{"NoteNumber":72,"Velocity":57,"Duration":54347,"SoundDuration":54347,"Delta":26170073},{"NoteNumber":71,"Velocity":57,"Duration":3759,"SoundDuration":3759,"Delta":26224421},{"NoteNumber":52,"Velocity":41,"Duration":114223,"SoundDuration":114223,"Delta":26224421},{"NoteNumber":56,"Velocity":41,"Duration":114223,"SoundDuration":114223,"Delta":26224421},{"NoteNumber":72,"Velocity":57,"Duration":37523,"SoundDuration":37523,"Delta":26262015},{"NoteNumber":71,"Velocity":57,"Duration":39105,"SoundDuration":39105,"Delta":26299538},{"NoteNumber":69,"Velocity":64,"Duration":67056,"SoundDuration":67056,"Delta":26338644},{"NoteNumber":71,"Velocity":57,"Duration":75797,"SoundDuration":75797,"Delta":26405701},{"NoteNumber":69,"Velocity":65,"Duration":442913,"SoundDuration":442913,"Delta":26481499},{"NoteNumber":45,"Velocity":46,"Duration":472440,"SoundDuration":472440,"Delta":26481499},{"NoteNumber":57,"Velocity":46,"Duration":442913,"SoundDuration":442913,"Delta":26481499},{"NoteNumber":72,"Velocity":56,"Duration":108695,"SoundDuration":108695,"Delta":26953940},{"NoteNumber":76,"Velocity":56,"Duration":108695,"SoundDuration":108695,"Delta":26953940},{"NoteNumber":74,"Velocity":56,"Duration":106383,"SoundDuration":106383,"Delta":27171331},{"NoteNumber":77,"Velocity":56,"Duration":106383,"SoundDuration":106383,"Delta":27171331},{"NoteNumber":76,"Velocity":66,"Duration":104166,"SoundDuration":104166,"Delta":27384097},{"NoteNumber":79,"Velocity":66,"Duration":104166,"SoundDuration":104166,"Delta":27384097},{"NoteNumber":48,"Velocity":59,"Duration":104166,"SoundDuration":104166,"Delta":27384097},{"NoteNumber":76,"Velocity":57,"Duration":104166,"SoundDuration":104166,"Delta":27592431},{"NoteNumber":79,"Velocity":57,"Duration":104166,"SoundDuration":104166,"Delta":27592431},{"NoteNumber":60,"Velocity":53,"Duration":104166,"SoundDuration":104166,"Delta":27592431},{"NoteNumber":81,"Velocity":64,"Duration":102739,"SoundDuration":102739,"Delta":27800764},{"NoteNumber":52,"Velocity":59,"Duration":102739,"SoundDuration":102739,"Delta":27800764},{"NoteNumber":79,"Velocity":57,"Duration":102739,"SoundDuration":102739,"Delta":27903504},{"NoteNumber":77,"Velocity":57,"Duration":107760,"SoundDuration":107760,"Delta":28006244},{"NoteNumber":64,"Velocity":57,"Duration":107760,"SoundDuration":107760,"Delta":28006244},{"NoteNumber":76,"Velocity":57,"Duration":112781,"SoundDuration":112781,"Delta":28114004},{"NoteNumber":74,"Velocity":65,"Duration":433409,"SoundDuration":433409,"Delta":28226786},{"NoteNumber":71,"Velocity":65,"Duration":215827,"SoundDuration":215827,"Delta":28226786},{"NoteNumber":55,"Velocity":60,"Duration":433409,"SoundDuration":433409,"Delta":28226786},{"NoteNumber":67,"Velocity":59,"Duration":217581,"SoundDuration":217581,"Delta":28442614},{"NoteNumber":72,"Velocity":56,"Duration":108695,"SoundDuration":108695,"Delta":28660196},{"NoteNumber":76,"Velocity":56,"Duration":108695,"SoundDuration":108695,"Delta":28660196},{"NoteNumber":74,"Velocity":56,"Duration":106383,"SoundDuration":106383,"Delta":28877587},{"NoteNumber":77,"Velocity":56,"Duration":106383,"SoundDuration":106383,"Delta":28877587},{"NoteNumber":76,"Velocity":66,"Duration":104166,"SoundDuration":104166,"Delta":29090353},{"NoteNumber":79,"Velocity":66,"Duration":104166,"SoundDuration":104166,"Delta":29090353},{"NoteNumber":48,"Velocity":59,"Duration":104166,"SoundDuration":104166,"Delta":29090353},{"NoteNumber":76,"Velocity":57,"Duration":104166,"SoundDuration":104166,"Delta":29298687},{"NoteNumber":79,"Velocity":57,"Duration":104166,"SoundDuration":104166,"Delta":29298687},{"NoteNumber":60,"Velocity":53,"Duration":104166,"SoundDuration":104166,"Delta":29298687},{"NoteNumber":81,"Velocity":64,"Duration":102739,"SoundDuration":102739,"Delta":29507020},{"NoteNumber":52,"Velocity":59,"Duration":102739,"SoundDuration":102739,"Delta":29507020},{"NoteNumber":79,"Velocity":57,"Duration":102739,"SoundDuration":102739,"Delta":29609760},{"NoteNumber":77,"Velocity":57,"Duration":107760,"SoundDuration":107760,"Delta":29712500},{"NoteNumber":64,"Velocity":57,"Duration":107760,"SoundDuration":107760,"Delta":29712500},{"NoteNumber":76,"Velocity":57,"Duration":112781,"SoundDuration":112781,"Delta":29820261},{"NoteNumber":74,"Velocity":65,"Duration":433409,"SoundDuration":433409,"Delta":29933043},{"NoteNumber":71,"Velocity":65,"Duration":433409,"SoundDuration":433409,"Delta":29933043},{"NoteNumber":55,"Velocity":60,"Duration":433409,"SoundDuration":433409,"Delta":29933043},{"NoteNumber":69,"Velocity":56,"Duration":113636,"SoundDuration":113636,"Delta":30366452},{"NoteNumber":72,"Velocity":56,"Duration":113636,"SoundDuration":113636,"Delta":30366452},{"NoteNumber":71,"Velocity":56,"Duration":106383,"SoundDuration":106383,"Delta":30593724},{"NoteNumber":74,"Velocity":56,"Duration":106383,"SoundDuration":106383,"Delta":30593724},{"NoteNumber":72,"Velocity":66,"Duration":104166,"SoundDuration":104166,"Delta":30806490},{"NoteNumber":76,"Velocity":66,"Duration":104166,"SoundDuration":104166,"Delta":30806490},{"NoteNumber":45,"Velocity":59,"Duration":104166,"SoundDuration":104166,"Delta":30806490},{"NoteNumber":72,"Velocity":57,"Duration":104166,"SoundDuration":104166,"Delta":31014824},{"NoteNumber":76,"Velocity":57,"Duration":104166,"SoundDuration":104166,"Delta":31014824},{"NoteNumber":57,"Velocity":53,"Duration":104166,"SoundDuration":104166,"Delta":31014824},{"NoteNumber":77,"Velocity":64,"Duration":102739,"SoundDuration":102739,"Delta":31223157},{"NoteNumber":48,"Velocity":59,"Duration":102739,"SoundDuration":102739,"Delta":31223157},{"NoteNumber":76,"Velocity":57,"Duration":102739,"SoundDuration":102739,"Delta":31325897},{"NoteNumber":74,"Velocity":57,"Duration":107760,"SoundDuration":107760,"Delta":31428637},{"NoteNumber":60,"Velocity":57,"Duration":107760,"SoundDuration":107760,"Delta":31428637},{"NoteNumber":72,"Velocity":57,"Duration":112781,"SoundDuration":112781,"Delta":31536398},{"NoteNumber":71,"Velocity":65,"Duration":431654,"SoundDuration":431654,"Delta":31649180},{"NoteNumber":68,"Velocity":65,"Duration":215827,"SoundDuration":215827,"Delta":31649180},{"NoteNumber":52,"Velocity":60,"Duration":431654,"SoundDuration":431654,"Delta":31649180},{"NoteNumber":64,"Velocity":59,"Duration":215827,"SoundDuration":215827,"Delta":31865007},{"NoteNumber":69,"Velocity":56,"Duration":108695,"SoundDuration":108695,"Delta":32080835},{"NoteNumber":72,"Velocity":56,"Duration":108695,"SoundDuration":108695,"Delta":32080835},{"NoteNumber":71,"Velocity":56,"Duration":106383,"SoundDuration":106383,"Delta":32298226},{"NoteNumber":74,"Velocity":56,"Duration":106383,"SoundDuration":106383,"Delta":32298226},{"NoteNumber":72,"Velocity":66,"Duration":104166,"SoundDuration":104166,"Delta":32510992},{"NoteNumber":76,"Velocity":66,"Duration":104166,"SoundDuration":104166,"Delta":32510992},{"NoteNumber":45,"Velocity":59,"Duration":104166,"SoundDuration":104166,"Delta":32510992},{"NoteNumber":72,"Velocity":57,"Duration":104166,"SoundDuration":104166,"Delta":32719326},{"NoteNumber":76,"Velocity":57,"Duration":104166,"SoundDuration":104166,"Delta":32719326},{"NoteNumber":57,"Velocity":53,"Duration":104166,"SoundDuration":104166,"Delta":32719326},{"NoteNumber":77,"Velocity":64,"Duration":102739,"SoundDuration":102739,"Delta":32927659},{"NoteNumber":48,"Velocity":59,"Duration":102739,"SoundDuration":102739,"Delta":32927659},{"NoteNumber":76,"Velocity":57,"Duration":102739,"SoundDuration":102739,"Delta":33030399},{"NoteNumber":74,"Velocity":57,"Duration":107760,"SoundDuration":107760,"Delta":33133139},{"NoteNumber":60,"Velocity":57,"Duration":107760,"SoundDuration":107760,"Delta":33133139},{"NoteNumber":72,"Velocity":57,"Duration":112782,"SoundDuration":112782,"Delta":33240900},{"NoteNumber":71,"Velocity":65,"Duration":431654,"SoundDuration":431654,"Delta":33353682},{"NoteNumber":68,"Velocity":65,"Duration":431654,"SoundDuration":431654,"Delta":33353682},{"NoteNumber":52,"Velocity":60,"Duration":431654,"SoundDuration":431654,"Delta":33353682},{"NoteNumber":71,"Velocity":56,"Duration":99337,"SoundDuration":99337,"Delta":33785337},{"NoteNumber":69,"Velocity":56,"Duration":99337,"SoundDuration":99337,"Delta":33884674},{"NoteNumber":68,"Velocity":56,"Duration":99337,"SoundDuration":99337,"Delta":33984012},{"NoteNumber":69,"Velocity":56,"Duration":112782,"SoundDuration":112782,"Delta":34083350},{"NoteNumber":72,"Velocity":59,"Duration":99337,"SoundDuration":99337,"Delta":34196132},{"NoteNumber":57,"Velocity":53,"Duration":99337,"SoundDuration":99337,"Delta":34196132},{"NoteNumber":64,"Velocity":47,"Duration":99337,"SoundDuration":99337,"Delta":34394807},{"NoteNumber":60,"Velocity":47,"Duration":99337,"SoundDuration":99337,"Delta":34394807},{"NoteNumber":74,"Velocity":62,"Duration":100000,"SoundDuration":100000,"Delta":34606927},{"NoteNumber":60,"Velocity":47,"Duration":100000,"SoundDuration":100000,"Delta":34606927},{"NoteNumber":64,"Velocity":47,"Duration":100000,"SoundDuration":100000,"Delta":34606927},{"NoteNumber":72,"Velocity":57,"Duration":100000,"SoundDuration":100000,"Delta":34706927},{"NoteNumber":71,"Velocity":57,"Duration":99999,"SoundDuration":99999,"Delta":34806927},{"NoteNumber":60,"Velocity":47,"Duration":99999,"SoundDuration":99999,"Delta":34806927},{"NoteNumber":64,"Velocity":47,"Duration":99999,"SoundDuration":99999,"Delta":34806927},{"NoteNumber":72,"Velocity":57,"Duration":113636,"SoundDuration":113636,"Delta":34906927},{"NoteNumber":76,"Velocity":66,"Duration":99337,"SoundDuration":99337,"Delta":35020563},{"NoteNumber":57,"Velocity":54,"Duration":99337,"SoundDuration":99337,"Delta":35020563},{"NoteNumber":64,"Velocity":48,"Duration":99337,"SoundDuration":99337,"Delta":35219239},{"NoteNumber":60,"Velocity":48,"Duration":99337,"SoundDuration":99337,"Delta":35219239},{"NoteNumber":77,"Velocity":63,"Duration":99337,"SoundDuration":99337,"Delta":35428871},{"NoteNumber":64,"Velocity":48,"Duration":99337,"SoundDuration":99337,"Delta":35428871},{"NoteNumber":60,"Velocity":48,"Duration":99337,"SoundDuration":99337,"Delta":35428871},{"NoteNumber":76,"Velocity":58,"Duration":99337,"SoundDuration":99337,"Delta":35528208},{"NoteNumber":75,"Velocity":58,"Duration":99337,"SoundDuration":99337,"Delta":35627546},{"NoteNumber":64,"Velocity":48,"Duration":99337,"SoundDuration":99337,"Delta":35627546},{"NoteNumber":60,"Velocity":48,"Duration":99337,"SoundDuration":99337,"Delta":35627546},{"NoteNumber":76,"Velocity":58,"Duration":104166,"SoundDuration":104166,"Delta":35726884},{"NoteNumber":83,"Velocity":70,"Duration":100000,"SoundDuration":100000,"Delta":35831051},{"NoteNumber":57,"Velocity":56,"Duration":100000,"SoundDuration":100000,"Delta":35831051},{"NoteNumber":81,"Velocity":63,"Duration":100000,"SoundDuration":100000,"Delta":35931051},{"NoteNumber":80,"Velocity":63,"Duration":99999,"SoundDuration":99999,"Delta":36031051},{"NoteNumber":64,"Velocity":49,"Duration":99999,"SoundDuration":99999,"Delta":36031051},{"NoteNumber":60,"Velocity":49,"Duration":99999,"SoundDuration":99999,"Delta":36031051},{"NoteNumber":81,"Velocity":63,"Duration":100000,"SoundDuration":100000,"Delta":36131051},{"NoteNumber":83,"Velocity":71,"Duration":103448,"SoundDuration":103448,"Delta":36231051},{"NoteNumber":57,"Velocity":57,"Duration":103448,"SoundDuration":103448,"Delta":36231051},{"NoteNumber":81,"Velocity":64,"Duration":103448,"SoundDuration":103448,"Delta":36334499},{"NoteNumber":80,"Velocity":64,"Duration":103448,"SoundDuration":103448,"Delta":36437947},{"NoteNumber":64,"Velocity":52,"Duration":103448,"SoundDuration":103448,"Delta":36437947},{"NoteNumber":60,"Velocity":43,"Duration":103448,"SoundDuration":103448,"Delta":36437947},{"NoteNumber":81,"Velocity":64,"Duration":128205,"SoundDuration":128205,"Delta":36541395},{"NoteNumber":84,"Velocity":76,"Duration":426743,"SoundDuration":426743,"Delta":36669601},{"NoteNumber":53,"Velocity":57,"Duration":102040,"SoundDuration":102040,"Delta":36669601},{"NoteNumber":63,"Velocity":51,"Duration":106383,"SoundDuration":106383,"Delta":36873682},{"NoteNumber":57,"Velocity":51,"Duration":106383,"SoundDuration":106383,"Delta":36873682},{"NoteNumber":81,"Velocity":62,"Duration":102739,"SoundDuration":102739,"Delta":37096344},{"NoteNumber":63,"Velocity":43,"Duration":102739,"SoundDuration":102739,"Delta":37096344},{"NoteNumber":57,"Velocity":43,"Duration":102739,"SoundDuration":102739,"Delta":37096344},{"NoteNumber":83,"Velocity":62,"Duration":107142,"SoundDuration":107142,"Delta":37301824},{"NoteNumber":63,"Velocity":39,"Duration":107142,"SoundDuration":107142,"Delta":37301824},{"NoteNumber":57,"Velocity":39,"Duration":107142,"SoundDuration":107142,"Delta":37301824},{"NoteNumber":84,"Velocity":70,"Duration":101351,"SoundDuration":101351,"Delta":37516109},{"NoteNumber":52,"Velocity":46,"Duration":101351,"SoundDuration":101351,"Delta":37516109},{"NoteNumber":83,"Velocity":62,"Duration":101351,"SoundDuration":101351,"Delta":37718812},{"NoteNumber":64,"Velocity":42,"Duration":101351,"SoundDuration":101351,"Delta":37718812},{"NoteNumber":57,"Velocity":42,"Duration":101351,"SoundDuration":101351,"Delta":37718812},{"NoteNumber":81,"Velocity":62,"Duration":99337,"SoundDuration":99337,"Delta":37921514},{"NoteNumber":50,"Velocity":42,"Duration":99337,"SoundDuration":99337,"Delta":37921514},{"NoteNumber":80,"Velocity":62,"Duration":107142,"SoundDuration":107142,"Delta":38120190},{"NoteNumber":59,"Velocity":42,"Duration":107142,"SoundDuration":107142,"Delta":38120190},{"NoteNumber":53,"Velocity":42,"Duration":107142,"SoundDuration":107142,"Delta":38120190},{"NoteNumber":81,"Velocity":71,"Duration":101351,"SoundDuration":101351,"Delta":38334475},{"NoteNumber":48,"Velocity":47,"Duration":101351,"SoundDuration":101351,"Delta":38334475},{"NoteNumber":76,"Velocity":64,"Duration":101351,"SoundDuration":101351,"Delta":38537178},{"NoteNumber":57,"Velocity":39,"Duration":101351,"SoundDuration":101351,"Delta":38537178},{"NoteNumber":52,"Velocity":39,"Duration":101351,"SoundDuration":101351,"Delta":38537178},{"NoteNumber":50,"Velocity":41,"Duration":99337,"SoundDuration":99337,"Delta":38739880},{"NoteNumber":77,"Velocity":64,"Duration":99337,"SoundDuration":99337,"Delta":38743192},{"NoteNumber":74,"Velocity":64,"Duration":107913,"SoundDuration":107913,"Delta":38938556},{"NoteNumber":59,"Velocity":41,"Duration":107913,"SoundDuration":107913,"Delta":38938556},{"NoteNumber":53,"Velocity":41,"Duration":107913,"SoundDuration":107913,"Delta":38938556},{"NoteNumber":72,"Velocity":74,"Duration":410958,"SoundDuration":410958,"Delta":39154383},{"NoteNumber":52,"Velocity":48,"Duration":102739,"SoundDuration":102739,"Delta":39154383},{"NoteNumber":57,"Velocity":48,"Duration":102739,"SoundDuration":102739,"Delta":39154383},{"NoteNumber":57,"Velocity":41,"Duration":102739,"SoundDuration":102739,"Delta":39359863},{"NoteNumber":52,"Velocity":41,"Duration":102739,"SoundDuration":102739,"Delta":39359863},{"NoteNumber":52,"Velocity":41,"Duration":108447,"SoundDuration":108447,"Delta":39561061},{"NoteNumber":71,"Velocity":64,"Duration":54347,"SoundDuration":54347,"Delta":39565342},{"NoteNumber":56,"Velocity":41,"Duration":108695,"SoundDuration":108695,"Delta":39565342},{"NoteNumber":72,"Velocity":57,"Duration":54347,"SoundDuration":54347,"Delta":39619690},{"NoteNumber":71,"Velocity":57,"Duration":54347,"SoundDuration":54347,"Delta":39674038},{"NoteNumber":72,"Velocity":57,"Duration":54347,"SoundDuration":54347,"Delta":39728386},{"NoteNumber":71,"Velocity":57,"Duration":3759,"SoundDuration":3759,"Delta":39782734},{"NoteNumber":52,"Velocity":41,"Duration":114223,"SoundDuration":114223,"Delta":39782734},{"NoteNumber":56,"Velocity":41,"Duration":114223,"SoundDuration":114223,"Delta":39782734},{"NoteNumber":72,"Velocity":57,"Duration":37523,"SoundDuration":37523,"Delta":39820328},{"NoteNumber":71,"Velocity":57,"Duration":39105,"SoundDuration":39105,"Delta":39857852},{"NoteNumber":69,"Velocity":64,"Duration":67056,"SoundDuration":67056,"Delta":39896957},{"NoteNumber":71,"Velocity":57,"Duration":75797,"SoundDuration":75797,"Delta":39964014},{"NoteNumber":69,"Velocity":65,"Duration":442913,"SoundDuration":442913,"Delta":40039812},{"NoteNumber":45,"Velocity":46,"Duration":472441,"SoundDuration":472441,"Delta":40039812},{"NoteNumber":57,"Velocity":46,"Duration":442913,"SoundDuration":442913,"Delta":40039812},{"NoteNumber":69,"Velocity":73,"Duration":105633,"SoundDuration":105633,"Delta":40512253},{"NoteNumber":81,"Velocity":84,"Duration":105633,"SoundDuration":105633,"Delta":40512253},{"NoteNumber":71,"Velocity":73,"Duration":107913,"SoundDuration":107913,"Delta":40723520},{"NoteNumber":83,"Velocity":84,"Duration":107913,"SoundDuration":107913,"Delta":40723520},{"NoteNumber":45,"Velocity":64,"Duration":35971,"SoundDuration":35971,"Delta":40831434},{"NoteNumber":49,"Velocity":64,"Duration":35971,"SoundDuration":35971,"Delta":40867405},{"NoteNumber":52,"Velocity":64,"Duration":35971,"SoundDuration":35971,"Delta":40903376},{"NoteNumber":73,"Velocity":78,"Duration":415348,"SoundDuration":415348,"Delta":40939348},{"NoteNumber":85,"Velocity":90,"Duration":415348,"SoundDuration":415348,"Delta":40939348},{"NoteNumber":57,"Velocity":73,"Duration":102040,"SoundDuration":102040,"Delta":40939348},{"NoteNumber":57,"Velocity":69,"Duration":105633,"SoundDuration":105633,"Delta":41143429},{"NoteNumber":69,"Velocity":73,"Duration":103448,"SoundDuration":103448,"Delta":41354697},{"NoteNumber":81,"Velocity":84,"Duration":103448,"SoundDuration":103448,"Delta":41354697},{"NoteNumber":57,"Velocity":69,"Duration":103448,"SoundDuration":103448,"Delta":41354697},{"NoteNumber":71,"Velocity":73,"Duration":105633,"SoundDuration":105633,"Delta":41561593},{"NoteNumber":83,"Velocity":84,"Duration":105633,"SoundDuration":105633,"Delta":41561593},{"NoteNumber":57,"Velocity":69,"Duration":105633,"SoundDuration":105633,"Delta":41561593},{"NoteNumber":45,"Velocity":60,"Duration":35211,"SoundDuration":35211,"Delta":41667227},{"NoteNumber":49,"Velocity":60,"Duration":35211,"SoundDuration":35211,"Delta":41702438},{"NoteNumber":52,"Velocity":60,"Duration":35211,"SoundDuration":35211,"Delta":41737649},{"NoteNumber":73,"Velocity":79,"Duration":102040,"SoundDuration":102040,"Delta":41772861},{"NoteNumber":85,"Velocity":91,"Duration":102040,"SoundDuration":102040,"Delta":41772861},{"NoteNumber":57,"Velocity":72,"Duration":102040,"SoundDuration":102040,"Delta":41772861},{"NoteNumber":71,"Velocity":72,"Duration":102739,"SoundDuration":102739,"Delta":41976942},{"NoteNumber":83,"Velocity":82,"Duration":102739,"SoundDuration":102739,"Delta":41976942},{"NoteNumber":57,"Velocity":64,"Duration":102739,"SoundDuration":102739,"Delta":41976942},{"NoteNumber":69,"Velocity":77,"Duration":102739,"SoundDuration":102739,"Delta":42182422},{"NoteNumber":81,"Velocity":89,"Duration":102739,"SoundDuration":102739,"Delta":42182422},{"NoteNumber":57,"Velocity":65,"Duration":102739,"SoundDuration":102739,"Delta":42182422},{"NoteNumber":68,"Velocity":73,"Duration":111940,"SoundDuration":111940,"Delta":42387901},{"NoteNumber":80,"Velocity":84,"Duration":111940,"SoundDuration":111940,"Delta":42387901},{"NoteNumber":57,"Velocity":67,"Duration":111940,"SoundDuration":111940,"Delta":42387901},{"NoteNumber":38,"Velocity":63,"Duration":37313,"SoundDuration":37313,"Delta":42499841},{"NoteNumber":42,"Velocity":63,"Duration":37313,"SoundDuration":37313,"Delta":42537155},{"NoteNumber":45,"Velocity":63,"Duration":37313,"SoundDuration":37313,"Delta":42574468},{"NoteNumber":66,"Velocity":80,"Duration":102739,"SoundDuration":102739,"Delta":42611782},{"NoteNumber":78,"Velocity":92,"Duration":102739,"SoundDuration":102739,"Delta":42611782},{"NoteNumber":50,"Velocity":73,"Duration":102739,"SoundDuration":102739,"Delta":42611782},{"NoteNumber":68,"Velocity":69,"Duration":104894,"SoundDuration":104894,"Delta":42817261},{"NoteNumber":80,"Velocity":78,"Duration":104894,"SoundDuration":104894,"Delta":42817261},{"NoteNumber":50,"Velocity":69,"Duration":104894,"SoundDuration":104894,"Delta":42817261},{"NoteNumber":39,"Velocity":63,"Duration":34964,"SoundDuration":34964,"Delta":42922156},{"NoteNumber":42,"Velocity":63,"Duration":34964,"SoundDuration":34964,"Delta":42957121},{"NoteNumber":45,"Velocity":63,"Duration":34964,"SoundDuration":34964,"Delta":42992086},{"NoteNumber":69,"Velocity":75,"Duration":102739,"SoundDuration":102739,"Delta":43027051},{"NoteNumber":81,"Velocity":86,"Duration":102739,"SoundDuration":102739,"Delta":43027051},{"NoteNumber":51,"Velocity":73,"Duration":102739,"SoundDuration":102739,"Delta":43027051},{"NoteNumber":71,"Velocity":70,"Duration":111940,"SoundDuration":111940,"Delta":43232531},{"NoteNumber":83,"Velocity":80,"Duration":111940,"SoundDuration":111940,"Delta":43232531},{"NoteNumber":51,"Velocity":71,"Duration":111940,"SoundDuration":111940,"Delta":43232531},{"NoteNumber":40,"Velocity":63,"Duration":37313,"SoundDuration":37313,"Delta":43344471},{"NoteNumber":44,"Velocity":63,"Duration":37313,"SoundDuration":37313,"Delta":43381784},{"NoteNumber":47,"Velocity":63,"Duration":37313,"SoundDuration":37313,"Delta":43419098},{"NoteNumber":68,"Velocity":78,"Duration":212766,"SoundDuration":212766,"Delta":43456411},{"NoteNumber":80,"Velocity":90,"Duration":212766,"SoundDuration":212766,"Delta":43456411},{"NoteNumber":52,"Velocity":73,"Duration":212766,"SoundDuration":212766,"Delta":43456411},{"NoteNumber":64,"Velocity":73,"Duration":113636,"SoundDuration":113636,"Delta":43669177},{"NoteNumber":76,"Velocity":84,"Duration":113636,"SoundDuration":113636,"Delta":43669177},{"NoteNumber":52,"Velocity":73,"Duration":113636,"SoundDuration":113636,"Delta":43669177},{"NoteNumber":69,"Velocity":73,"Duration":104166,"SoundDuration":104166,"Delta":43896450},{"NoteNumber":81,"Velocity":84,"Duration":104166,"SoundDuration":104166,"Delta":43896450},{"NoteNumber":71,"Velocity":73,"Duration":104894,"SoundDuration":104894,"Delta":44104783},{"NoteNumber":83,"Velocity":84,"Duration":104894,"SoundDuration":104894,"Delta":44104783},{"NoteNumber":45,"Velocity":64,"Duration":34964,"SoundDuration":34964,"Delta":44209678},{"NoteNumber":49,"Velocity":64,"Duration":34964,"SoundDuration":34964,"Delta":44244643},{"NoteNumber":52,"Velocity":64,"Duration":34964,"SoundDuration":34964,"Delta":44279608},{"NoteNumber":73,"Velocity":78,"Duration":413871,"SoundDuration":413871,"Delta":44314573},{"NoteNumber":85,"Velocity":90,"Duration":413871,"SoundDuration":413871,"Delta":44314573},{"NoteNumber":57,"Velocity":73,"Duration":102040,"SoundDuration":102040,"Delta":44314573},{"NoteNumber":57,"Velocity":69,"Duration":104894,"SoundDuration":104894,"Delta":44518655},{"NoteNumber":69,"Velocity":73,"Duration":102040,"SoundDuration":102040,"Delta":44728445},{"NoteNumber":81,"Velocity":84,"Duration":102040,"SoundDuration":102040,"Delta":44728445},{"NoteNumber":57,"Velocity":69,"Duration":102040,"SoundDuration":102040,"Delta":44728445},{"NoteNumber":71,"Velocity":73,"Duration":105633,"SoundDuration":105633,"Delta":44932526},{"NoteNumber":83,"Velocity":84,"Duration":105633,"SoundDuration":105633,"Delta":44932526},{"NoteNumber":57,"Velocity":69,"Duration":105633,"SoundDuration":105633,"Delta":44932526},{"NoteNumber":45,"Velocity":60,"Duration":35211,"SoundDuration":35211,"Delta":45038160},{"NoteNumber":49,"Velocity":60,"Duration":35211,"SoundDuration":35211,"Delta":45073371},{"NoteNumber":52,"Velocity":60,"Duration":35211,"SoundDuration":35211,"Delta":45108582},{"NoteNumber":73,"Velocity":79,"Duration":102739,"SoundDuration":102739,"Delta":45143794},{"NoteNumber":85,"Velocity":91,"Duration":102739,"SoundDuration":102739,"Delta":45143794},{"NoteNumber":57,"Velocity":72,"Duration":102739,"SoundDuration":102739,"Delta":45143794},{"NoteNumber":71,"Velocity":72,"Duration":103448,"SoundDuration":103448,"Delta":45349273},{"NoteNumber":83,"Velocity":82,"Duration":103448,"SoundDuration":103448,"Delta":45349273},{"NoteNumber":57,"Velocity":64,"Duration":103448,"SoundDuration":103448,"Delta":45349273},{"NoteNumber":69,"Velocity":77,"Duration":104166,"SoundDuration":104166,"Delta":45556170},{"NoteNumber":81,"Velocity":89,"Duration":104166,"SoundDuration":104166,"Delta":45556170},{"NoteNumber":57,"Velocity":65,"Duration":104166,"SoundDuration":104166,"Delta":45556170},{"NoteNumber":68,"Velocity":73,"Duration":108695,"SoundDuration":108695,"Delta":45764503},{"NoteNumber":80,"Velocity":84,"Duration":108695,"SoundDuration":108695,"Delta":45764503},{"NoteNumber":57,"Velocity":67,"Duration":108695,"SoundDuration":108695,"Delta":45764503},{"NoteNumber":38,"Velocity":63,"Duration":36231,"SoundDuration":36231,"Delta":45873199},{"NoteNumber":42,"Velocity":63,"Duration":36231,"SoundDuration":36231,"Delta":45909431},{"NoteNumber":45,"Velocity":63,"Duration":36231,"SoundDuration":36231,"Delta":45945663},{"NoteNumber":66,"Velocity":80,"Duration":103448,"SoundDuration":103448,"Delta":45981895},{"NoteNumber":78,"Velocity":92,"Duration":103448,"SoundDuration":103448,"Delta":45981895},{"NoteNumber":50,"Velocity":73,"Duration":103448,"SoundDuration":103448,"Delta":45981895},{"NoteNumber":71,"Velocity":69,"Duration":108695,"SoundDuration":108695,"Delta":46188791},{"NoteNumber":83,"Velocity":78,"Duration":108695,"SoundDuration":108695,"Delta":46188791},{"NoteNumber":50,"Velocity":69,"Duration":108695,"SoundDuration":108695,"Delta":46188791},{"NoteNumber":40,"Velocity":63,"Duration":36231,"SoundDuration":36231,"Delta":46297487},{"NoteNumber":44,"Velocity":63,"Duration":36231,"SoundDuration":36231,"Delta":46333719},{"NoteNumber":47,"Velocity":63,"Duration":36231,"SoundDuration":36231,"Delta":46369951},{"NoteNumber":68,"Velocity":75,"Duration":112782,"SoundDuration":112782,"Delta":46406183},{"NoteNumber":80,"Velocity":86,"Duration":112782,"SoundDuration":112782,"Delta":46406183},{"NoteNumber":52,"Velocity":73,"Duration":112782,"SoundDuration":112782,"Delta":46406183},{"NoteNumber":64,"Velocity":70,"Duration":116278,"SoundDuration":116278,"Delta":46631747},{"NoteNumber":76,"Velocity":80,"Duration":116278,"SoundDuration":116278,"Delta":46631747},{"NoteNumber":52,"Velocity":71,"Duration":116278,"SoundDuration":116278,"Delta":46631747},{"NoteNumber":69,"Velocity":78,"Duration":422932,"SoundDuration":422932,"Delta":46864305},{"NoteNumber":81,"Velocity":90,"Duration":422932,"SoundDuration":422932,"Delta":46864305},{"NoteNumber":45,"Velocity":73,"Duration":422932,"SoundDuration":422932,"Delta":46864305},{"NoteNumber":69,"Velocity":73,"Duration":105633,"SoundDuration":105633,"Delta":47315433},{"NoteNumber":81,"Velocity":84,"Duration":105633,"SoundDuration":105633,"Delta":47315433},{"NoteNumber":71,"Velocity":73,"Duration":107913,"SoundDuration":107913,"Delta":47526700},{"NoteNumber":83,"Velocity":84,"Duration":107913,"SoundDuration":107913,"Delta":47526700},{"NoteNumber":45,"Velocity":64,"Duration":35971,"SoundDuration":35971,"Delta":47634614},{"NoteNumber":49,"Velocity":64,"Duration":35971,"SoundDuration":35971,"Delta":47670585},{"NoteNumber":52,"Velocity":64,"Duration":35971,"SoundDuration":35971,"Delta":47706556},{"NoteNumber":73,"Velocity":78,"Duration":415348,"SoundDuration":415348,"Delta":47742528},{"NoteNumber":85,"Velocity":90,"Duration":415348,"SoundDuration":415348,"Delta":47742528},{"NoteNumber":57,"Velocity":73,"Duration":102040,"SoundDuration":102040,"Delta":47742528},{"NoteNumber":57,"Velocity":69,"Duration":105633,"SoundDuration":105633,"Delta":47946609},{"NoteNumber":69,"Velocity":73,"Duration":103448,"SoundDuration":103448,"Delta":48157877},{"NoteNumber":81,"Velocity":84,"Duration":103448,"SoundDuration":103448,"Delta":48157877},{"NoteNumber":57,"Velocity":69,"Duration":103448,"SoundDuration":103448,"Delta":48157877},{"NoteNumber":71,"Velocity":73,"Duration":106383,"SoundDuration":106383,"Delta":48364773},{"NoteNumber":83,"Velocity":84,"Duration":106383,"SoundDuration":106383,"Delta":48364773},{"NoteNumber":57,"Velocity":69,"Duration":106383,"SoundDuration":106383,"Delta":48364773},{"NoteNumber":45,"Velocity":60,"Duration":35460,"SoundDuration":35460,"Delta":48471156},{"NoteNumber":49,"Velocity":60,"Duration":35460,"SoundDuration":35460,"Delta":48506617},{"NoteNumber":52,"Velocity":60,"Duration":35461,"SoundDuration":35461,"Delta":48542078},{"NoteNumber":73,"Velocity":79,"Duration":102040,"SoundDuration":102040,"Delta":48577539},{"NoteNumber":85,"Velocity":91,"Duration":102040,"SoundDuration":102040,"Delta":48577539},{"NoteNumber":57,"Velocity":72,"Duration":102040,"SoundDuration":102040,"Delta":48577539},{"NoteNumber":71,"Velocity":72,"Duration":104894,"SoundDuration":104894,"Delta":48781621},{"NoteNumber":83,"Velocity":82,"Duration":104894,"SoundDuration":104894,"Delta":48781621},{"NoteNumber":57,"Velocity":64,"Duration":104894,"SoundDuration":104894,"Delta":48781621},{"NoteNumber":69,"Velocity":77,"Duration":102739,"SoundDuration":102739,"Delta":48991411},{"NoteNumber":81,"Velocity":89,"Duration":102739,"SoundDuration":102739,"Delta":48991411},{"NoteNumber":57,"Velocity":65,"Duration":102739,"SoundDuration":102739,"Delta":48991411},{"NoteNumber":68,"Velocity":73,"Duration":107142,"SoundDuration":107142,"Delta":49196890},{"NoteNumber":80,"Velocity":84,"Duration":107142,"SoundDuration":107142,"Delta":49196890},{"NoteNumber":57,"Velocity":67,"Duration":107142,"SoundDuration":107142,"Delta":49196890},{"NoteNumber":38,"Velocity":63,"Duration":35714,"SoundDuration":35714,"Delta":49304033},{"NoteNumber":42,"Velocity":63,"Duration":35714,"SoundDuration":35714,"Delta":49339747},{"NoteNumber":45,"Velocity":63,"Duration":35714,"SoundDuration":35714,"Delta":49375461},{"NoteNumber":66,"Velocity":80,"Duration":102739,"SoundDuration":102739,"Delta":49411176},{"NoteNumber":78,"Velocity":92,"Duration":102739,"SoundDuration":102739,"Delta":49411176},{"NoteNumber":50,"Velocity":73,"Duration":102739,"SoundDuration":102739,"Delta":49411176},{"NoteNumber":68,"Velocity":69,"Duration":107913,"SoundDuration":107913,"Delta":49616655},{"NoteNumber":80,"Velocity":78,"Duration":107913,"SoundDuration":107913,"Delta":49616655},{"NoteNumber":50,"Velocity":69,"Duration":107913,"SoundDuration":107913,"Delta":49616655},{"NoteNumber":39,"Velocity":63,"Duration":35971,"SoundDuration":35971,"Delta":49724569},{"NoteNumber":42,"Velocity":63,"Duration":35971,"SoundDuration":35971,"Delta":49760540},{"NoteNumber":45,"Velocity":63,"Duration":35971,"SoundDuration":35971,"Delta":49796511},{"NoteNumber":69,"Velocity":75,"Duration":104166,"SoundDuration":104166,"Delta":49832483},{"NoteNumber":81,"Velocity":86,"Duration":104166,"SoundDuration":104166,"Delta":49832483},{"NoteNumber":51,"Velocity":73,"Duration":104166,"SoundDuration":104166,"Delta":49832483},{"NoteNumber":71,"Velocity":70,"Duration":109489,"SoundDuration":109489,"Delta":50040816},{"NoteNumber":83,"Velocity":80,"Duration":109489,"SoundDuration":109489,"Delta":50040816},{"NoteNumber":51,"Velocity":71,"Duration":109489,"SoundDuration":109489,"Delta":50040816},{"NoteNumber":40,"Velocity":63,"Duration":36496,"SoundDuration":36496,"Delta":50150305},{"NoteNumber":44,"Velocity":63,"Duration":36496,"SoundDuration":36496,"Delta":50186802},{"NoteNumber":47,"Velocity":63,"Duration":36496,"SoundDuration":36496,"Delta":50223298},{"NoteNumber":68,"Velocity":78,"Duration":212766,"SoundDuration":212766,"Delta":50259794},{"NoteNumber":80,"Velocity":90,"Duration":212766,"SoundDuration":212766,"Delta":50259794},{"NoteNumber":52,"Velocity":73,"Duration":212766,"SoundDuration":212766,"Delta":50259794},{"NoteNumber":64,"Velocity":73,"Duration":110294,"SoundDuration":110294,"Delta":50472560},{"NoteNumber":76,"Velocity":84,"Duration":110294,"SoundDuration":110294,"Delta":50472560},{"NoteNumber":52,"Velocity":73,"Duration":110294,"SoundDuration":110294,"Delta":50472560},{"NoteNumber":69,"Velocity":73,"Duration":106383,"SoundDuration":106383,"Delta":50693148},{"NoteNumber":81,"Velocity":84,"Duration":106383,"SoundDuration":106383,"Delta":50693148},{"NoteNumber":71,"Velocity":73,"Duration":104894,"SoundDuration":104894,"Delta":50905914},{"NoteNumber":83,"Velocity":84,"Duration":104894,"SoundDuration":104894,"Delta":50905914},{"NoteNumber":45,"Velocity":64,"Duration":34964,"SoundDuration":34964,"Delta":51010809},{"NoteNumber":49,"Velocity":64,"Duration":34964,"SoundDuration":34964,"Delta":51045774},{"NoteNumber":52,"Velocity":64,"Duration":34964,"SoundDuration":34964,"Delta":51080739},{"NoteNumber":73,"Velocity":78,"Duration":413871,"SoundDuration":413871,"Delta":51115704},{"NoteNumber":85,"Velocity":90,"Duration":413871,"SoundDuration":413871,"Delta":51115704},{"NoteNumber":57,"Velocity":73,"Duration":102040,"SoundDuration":102040,"Delta":51115704},{"NoteNumber":57,"Velocity":69,"Duration":104894,"SoundDuration":104894,"Delta":51319786},{"NoteNumber":69,"Velocity":73,"Duration":102040,"SoundDuration":102040,"Delta":51529576},{"NoteNumber":81,"Velocity":84,"Duration":102040,"SoundDuration":102040,"Delta":51529576},{"NoteNumber":57,"Velocity":69,"Duration":102040,"SoundDuration":102040,"Delta":51529576},{"NoteNumber":71,"Velocity":73,"Duration":107913,"SoundDuration":107913,"Delta":51733657},{"NoteNumber":83,"Velocity":84,"Duration":107913,"SoundDuration":107913,"Delta":51733657},{"NoteNumber":57,"Velocity":69,"Duration":107913,"SoundDuration":107913,"Delta":51733657},{"NoteNumber":45,"Velocity":60,"Duration":35971,"SoundDuration":35971,"Delta":51841571},{"NoteNumber":49,"Velocity":60,"Duration":35971,"SoundDuration":35971,"Delta":51877542},{"NoteNumber":52,"Velocity":60,"Duration":35971,"SoundDuration":35971,"Delta":51913513},{"NoteNumber":73,"Velocity":79,"Duration":102739,"SoundDuration":102739,"Delta":51949485},{"NoteNumber":85,"Velocity":91,"Duration":102739,"SoundDuration":102739,"Delta":51949485},{"NoteNumber":57,"Velocity":72,"Duration":102739,"SoundDuration":102739,"Delta":51949485},{"NoteNumber":71,"Velocity":72,"Duration":103448,"SoundDuration":103448,"Delta":52154964},{"NoteNumber":83,"Velocity":82,"Duration":103448,"SoundDuration":103448,"Delta":52154964},{"NoteNumber":57,"Velocity":64,"Duration":103448,"SoundDuration":103448,"Delta":52154964},{"NoteNumber":69,"Velocity":77,"Duration":104166,"SoundDuration":104166,"Delta":52361861},{"NoteNumber":81,"Velocity":89,"Duration":104166,"SoundDuration":104166,"Delta":52361861},{"NoteNumber":57,"Velocity":65,"Duration":104166,"SoundDuration":104166,"Delta":52361861},{"NoteNumber":68,"Velocity":73,"Duration":108695,"SoundDuration":108695,"Delta":52570194},{"NoteNumber":80,"Velocity":84,"Duration":108695,"SoundDuration":108695,"Delta":52570194},{"NoteNumber":57,"Velocity":67,"Duration":108695,"SoundDuration":108695,"Delta":52570194},{"NoteNumber":38,"Velocity":63,"Duration":36231,"SoundDuration":36231,"Delta":52678890},{"NoteNumber":42,"Velocity":63,"Duration":36231,"SoundDuration":36231,"Delta":52715122},{"NoteNumber":45,"Velocity":63,"Duration":36231,"SoundDuration":36231,"Delta":52751354},{"NoteNumber":66,"Velocity":80,"Duration":103448,"SoundDuration":103448,"Delta":52787586},{"NoteNumber":78,"Velocity":92,"Duration":103448,"SoundDuration":103448,"Delta":52787586},{"NoteNumber":50,"Velocity":73,"Duration":103448,"SoundDuration":103448,"Delta":52787586},{"NoteNumber":71,"Velocity":69,"Duration":113636,"SoundDuration":113636,"Delta":52994482},{"NoteNumber":83,"Velocity":78,"Duration":113636,"SoundDuration":113636,"Delta":52994482},{"NoteNumber":50,"Velocity":69,"Duration":113636,"SoundDuration":113636,"Delta":52994482},{"NoteNumber":40,"Velocity":63,"Duration":37878,"SoundDuration":37878,"Delta":53108118},{"NoteNumber":44,"Velocity":63,"Duration":37878,"SoundDuration":37878,"Delta":53145997},{"NoteNumber":47,"Velocity":63,"Duration":37878,"SoundDuration":37878,"Delta":53183876},{"NoteNumber":68,"Velocity":75,"Duration":112782,"SoundDuration":112782,"Delta":53221755},{"NoteNumber":80,"Velocity":86,"Duration":112782,"SoundDuration":112782,"Delta":53221755},{"NoteNumber":52,"Velocity":73,"Duration":112782,"SoundDuration":112782,"Delta":53221755},{"NoteNumber":64,"Velocity":70,"Duration":116278,"SoundDuration":116278,"Delta":53447319},{"NoteNumber":76,"Velocity":80,"Duration":116278,"SoundDuration":116278,"Delta":53447319},{"NoteNumber":52,"Velocity":71,"Duration":116278,"SoundDuration":116278,"Delta":53447319},{"NoteNumber":69,"Velocity":78,"Duration":423165,"SoundDuration":423165,"Delta":53679877},{"NoteNumber":81,"Velocity":90,"Duration":423165,"SoundDuration":423165,"Delta":53679877},{"NoteNumber":45,"Velocity":73,"Duration":423165,"SoundDuration":423165,"Delta":53679877},{"NoteNumber":85,"Velocity":60,"Duration":117537,"SoundDuration":117537,"Delta":54131846},{"NoteNumber":86,"Velocity":52,"Duration":111195,"SoundDuration":111195,"Delta":54239281},{"NoteNumber":85,"Velocity":52,"Duration":115764,"SoundDuration":115764,"Delta":54339987},{"NoteNumber":83,"Velocity":52,"Duration":119410,"SoundDuration":119410,"Delta":54444882},{"NoteNumber":81,"Velocity":58,"Duration":117857,"SoundDuration":117857,"Delta":54553578},{"NoteNumber":54,"Velocity":50,"Duration":107142,"SoundDuration":107142,"Delta":54553578},{"NoteNumber":83,"Velocity":50,"Duration":117487,"SoundDuration":117487,"Delta":54660721},{"NoteNumber":81,"Velocity":50,"Duration":113793,"SoundDuration":113793,"Delta":54767863},{"NoteNumber":61,"Velocity":37,"Duration":103448,"SoundDuration":103448,"Delta":54767863},{"NoteNumber":57,"Velocity":31,"Duration":103448,"SoundDuration":103448,"Delta":54767863},{"NoteNumber":80,"Velocity":50,"Duration":114011,"SoundDuration":114011,"Delta":54871312},{"NoteNumber":78,"Velocity":56,"Duration":116197,"SoundDuration":116197,"Delta":54974760},{"NoteNumber":61,"Velocity":37,"Duration":105633,"SoundDuration":105633,"Delta":54974760},{"NoteNumber":57,"Velocity":31,"Duration":105633,"SoundDuration":105633,"Delta":54974760},{"NoteNumber":81,"Velocity":50,"Duration":116272,"SoundDuration":116272,"Delta":55080394},{"NoteNumber":80,"Velocity":46,"Duration":117021,"SoundDuration":117021,"Delta":55186027},{"NoteNumber":61,"Velocity":37,"Duration":106383,"SoundDuration":106383,"Delta":55186027},{"NoteNumber":57,"Velocity":31,"Duration":106383,"SoundDuration":106383,"Delta":55186027},{"NoteNumber":78,"Velocity":46,"Duration":116799,"SoundDuration":116799,"Delta":55292410},{"NoteNumber":77,"Velocity":58,"Duration":114583,"SoundDuration":114583,"Delta":55398793},{"NoteNumber":56,"Velocity":50,"Duration":104166,"SoundDuration":104166,"Delta":55398793},{"NoteNumber":78,"Velocity":47,"Duration":114656,"SoundDuration":114656,"Delta":55502960},{"NoteNumber":80,"Velocity":49,"Duration":115384,"SoundDuration":115384,"Delta":55607127},{"NoteNumber":61,"Velocity":36,"Duration":104894,"SoundDuration":104894,"Delta":55607127},{"NoteNumber":59,"Velocity":30,"Duration":104894,"SoundDuration":104894,"Delta":55607127},{"NoteNumber":77,"Velocity":46,"Duration":115384,"SoundDuration":115384,"Delta":55712022},{"NoteNumber":73,"Velocity":56,"Duration":115384,"SoundDuration":115384,"Delta":55816917},{"NoteNumber":61,"Velocity":36,"Duration":104894,"SoundDuration":104894,"Delta":55816917},{"NoteNumber":59,"Velocity":30,"Duration":104894,"SoundDuration":104894,"Delta":55816917},{"NoteNumber":75,"Velocity":47,"Duration":115458,"SoundDuration":115458,"Delta":55921812},{"NoteNumber":77,"Velocity":50,"Duration":116197,"SoundDuration":116197,"Delta":56026707},{"NoteNumber":61,"Velocity":36,"Duration":105633,"SoundDuration":105633,"Delta":56026707},{"NoteNumber":59,"Velocity":30,"Duration":105633,"SoundDuration":105633,"Delta":56026707},{"NoteNumber":73,"Velocity":47,"Duration":116197,"SoundDuration":116197,"Delta":56132341},{"NoteNumber":78,"Velocity":56,"Duration":116197,"SoundDuration":116197,"Delta":56237974},{"NoteNumber":54,"Velocity":50,"Duration":105633,"SoundDuration":105633,"Delta":56237974},{"NoteNumber":77,"Velocity":47,"Duration":116123,"SoundDuration":116123,"Delta":56343608},{"NoteNumber":78,"Velocity":51,"Duration":115384,"SoundDuration":115384,"Delta":56449242},{"NoteNumber":61,"Velocity":36,"Duration":104894,"SoundDuration":104894,"Delta":56449242},{"NoteNumber":57,"Velocity":30,"Duration":104894,"SoundDuration":104894,"Delta":56449242},{"NoteNumber":80,"Velocity":48,"Duration":115384,"SoundDuration":115384,"Delta":56554137},{"NoteNumber":81,"Velocity":58,"Duration":115384,"SoundDuration":115384,"Delta":56659032},{"NoteNumber":61,"Velocity":37,"Duration":104894,"SoundDuration":104894,"Delta":56659032},{"NoteNumber":57,"Velocity":31,"Duration":104894,"SoundDuration":104894,"Delta":56659032},{"NoteNumber":80,"Velocity":54,"Duration":115458,"SoundDuration":115458,"Delta":56763927},{"NoteNumber":81,"Velocity":56,"Duration":116197,"SoundDuration":116197,"Delta":56868822},{"NoteNumber":61,"Velocity":38,"Duration":105633,"SoundDuration":105633,"Delta":56868822},{"NoteNumber":57,"Velocity":32,"Duration":105633,"SoundDuration":105633,"Delta":56868822},{"NoteNumber":83,"Velocity":59,"Duration":116050,"SoundDuration":116050,"Delta":56974456},{"NoteNumber":85,"Velocity":68,"Duration":114583,"SoundDuration":114583,"Delta":57080089},{"NoteNumber":53,"Velocity":55,"Duration":104166,"SoundDuration":104166,"Delta":57080089},{"NoteNumber":84,"Velocity":62,"Duration":114370,"SoundDuration":114370,"Delta":57184256},{"NoteNumber":85,"Velocity":66,"Duration":112244,"SoundDuration":112244,"Delta":57288423},{"NoteNumber":61,"Velocity":38,"Duration":102040,"SoundDuration":102040,"Delta":57288423},{"NoteNumber":56,"Velocity":31,"Duration":102040,"SoundDuration":102040,"Delta":57288423},{"NoteNumber":84,"Velocity":59,"Duration":102040,"SoundDuration":102040,"Delta":57390464},{"NoteNumber":85,"Velocity":61,"Duration":114583,"SoundDuration":114583,"Delta":57492504},{"NoteNumber":61,"Velocity":38,"Duration":104166,"SoundDuration":104166,"Delta":57492504},{"NoteNumber":56,"Velocity":31,"Duration":104166,"SoundDuration":104166,"Delta":57492504},{"NoteNumber":86,"Velocity":55,"Duration":114805,"SoundDuration":114805,"Delta":57596671},{"NoteNumber":85,"Velocity":55,"Duration":117746,"SoundDuration":117746,"Delta":57700838},{"NoteNumber":61,"Velocity":38,"Duration":106383,"SoundDuration":106383,"Delta":57700838},{"NoteNumber":56,"Velocity":31,"Duration":106383,"SoundDuration":106383,"Delta":57700838},{"NoteNumber":83,"Velocity":55,"Duration":124125,"SoundDuration":124125,"Delta":57807221},{"NoteNumber":81,"Velocity":58,"Duration":115384,"SoundDuration":115384,"Delta":57920857},{"NoteNumber":54,"Velocity":50,"Duration":104894,"SoundDuration":104894,"Delta":57920857},{"NoteNumber":83,"Velocity":47,"Duration":115239,"SoundDuration":115239,"Delta":58025752},{"NoteNumber":81,"Velocity":53,"Duration":113793,"SoundDuration":113793,"Delta":58130647},{"NoteNumber":61,"Velocity":36,"Duration":103448,"SoundDuration":103448,"Delta":58130647},{"NoteNumber":57,"Velocity":30,"Duration":103448,"SoundDuration":103448,"Delta":58130647},{"NoteNumber":80,"Velocity":47,"Duration":113864,"SoundDuration":113864,"Delta":58234095},{"NoteNumber":78,"Velocity":54,"Duration":114583,"SoundDuration":114583,"Delta":58337544},{"NoteNumber":61,"Velocity":36,"Duration":104166,"SoundDuration":104166,"Delta":58337544},{"NoteNumber":57,"Velocity":30,"Duration":104166,"SoundDuration":104166,"Delta":58337544},{"NoteNumber":81,"Velocity":47,"Duration":114805,"SoundDuration":114805,"Delta":58441710},{"NoteNumber":80,"Velocity":50,"Duration":117021,"SoundDuration":117021,"Delta":58545877},{"NoteNumber":61,"Velocity":36,"Duration":106383,"SoundDuration":106383,"Delta":58545877},{"NoteNumber":57,"Velocity":30,"Duration":106383,"SoundDuration":106383,"Delta":58545877},{"NoteNumber":78,"Velocity":46,"Duration":117021,"SoundDuration":117021,"Delta":58652260},{"NoteNumber":76,"Velocity":56,"Duration":117021,"SoundDuration":117021,"Delta":58758643},{"NoteNumber":56,"Velocity":50,"Duration":106383,"SoundDuration":106383,"Delta":58758643},{"NoteNumber":78,"Velocity":47,"Duration":116799,"SoundDuration":116799,"Delta":58865026},{"NoteNumber":80,"Velocity":50,"Duration":114583,"SoundDuration":114583,"Delta":58971409},{"NoteNumber":64,"Velocity":36,"Duration":104166,"SoundDuration":104166,"Delta":58971409},{"NoteNumber":61,"Velocity":30,"Duration":104166,"SoundDuration":104166,"Delta":58971409},{"NoteNumber":76,"Velocity":47,"Duration":114656,"SoundDuration":114656,"Delta":59075576},{"NoteNumber":73,"Velocity":54,"Duration":115384,"SoundDuration":115384,"Delta":59179743},{"NoteNumber":64,"Velocity":36,"Duration":104894,"SoundDuration":104894,"Delta":59179743},{"NoteNumber":61,"Velocity":30,"Duration":104894,"SoundDuration":104894,"Delta":59179743},{"NoteNumber":75,"Velocity":47,"Duration":115609,"SoundDuration":115609,"Delta":59284638},{"NoteNumber":76,"Velocity":53,"Duration":117857,"SoundDuration":117857,"Delta":59389533},{"NoteNumber":64,"Velocity":36,"Duration":107142,"SoundDuration":107142,"Delta":59389533},{"NoteNumber":61,"Velocity":30,"Duration":107142,"SoundDuration":107142,"Delta":59389533},{"NoteNumber":73,"Velocity":47,"Duration":117632,"SoundDuration":117632,"Delta":59496675},{"NoteNumber":75,"Velocity":53,"Duration":115384,"SoundDuration":115384,"Delta":59603818},{"NoteNumber":56,"Velocity":50,"Duration":104894,"SoundDuration":104894,"Delta":59603818},{"NoteNumber":76,"Velocity":47,"Duration":115384,"SoundDuration":115384,"Delta":59708713},{"NoteNumber":78,"Velocity":51,"Duration":115384,"SoundDuration":115384,"Delta":59813608},{"NoteNumber":66,"Velocity":37,"Duration":104894,"SoundDuration":104894,"Delta":59813608},{"NoteNumber":63,"Velocity":31,"Duration":104894,"SoundDuration":104894,"Delta":59813608},{"NoteNumber":75,"Velocity":47,"Duration":115384,"SoundDuration":115384,"Delta":59918503},{"NoteNumber":72,"Velocity":50,"Duration":116624,"SoundDuration":116624,"Delta":60023398},{"NoteNumber":63,"Velocity":31,"Duration":105986,"SoundDuration":105986,"Delta":60023398},{"NoteNumber":66,"Velocity":37,"Duration":105986,"SoundDuration":105986,"Delta":60023398},{"NoteNumber":73,"Velocity":47,"Duration":117681,"SoundDuration":117681,"Delta":60129384},{"NoteNumber":75,"Velocity":50,"Duration":120088,"SoundDuration":120088,"Delta":60236275},{"NoteNumber":63,"Velocity":31,"Duration":108369,"SoundDuration":108369,"Delta":60236275},{"NoteNumber":66,"Velocity":37,"Duration":108369,"SoundDuration":108369,"Delta":60236275},{"NoteNumber":72,"Velocity":46,"Duration":128057,"SoundDuration":128057,"Delta":60344645},{"NoteNumber":73,"Velocity":52,"Duration":407609,"SoundDuration":407609,"Delta":60461832},{"NoteNumber":64,"Velocity":50,"Duration":407609,"SoundDuration":407609,"Delta":60461832},{"NoteNumber":61,"Velocity":42,"Duration":407609,"SoundDuration":407609,"Delta":60461832},{"NoteNumber":85,"Velocity":60,"Duration":121405,"SoundDuration":121405,"Delta":60898168},{"NoteNumber":86,"Velocity":52,"Duration":111575,"SoundDuration":111575,"Delta":61009263},{"NoteNumber":85,"Velocity":52,"Duration":115764,"SoundDuration":115764,"Delta":61110350},{"NoteNumber":83,"Velocity":52,"Duration":119487,"SoundDuration":119487,"Delta":61215245},{"NoteNumber":81,"Velocity":58,"Duration":118705,"SoundDuration":118705,"Delta":61323941},{"NoteNumber":54,"Velocity":50,"Duration":107913,"SoundDuration":107913,"Delta":61323941},{"NoteNumber":83,"Velocity":50,"Duration":118477,"SoundDuration":118477,"Delta":61431854},{"NoteNumber":81,"Velocity":50,"Duration":116197,"SoundDuration":116197,"Delta":61539768},{"NoteNumber":61,"Velocity":37,"Duration":105633,"SoundDuration":105633,"Delta":61539768},{"NoteNumber":57,"Velocity":31,"Duration":105633,"SoundDuration":105633,"Delta":61539768},{"NoteNumber":80,"Velocity":50,"Duration":116197,"SoundDuration":116197,"Delta":61645402},{"NoteNumber":78,"Velocity":56,"Duration":116197,"SoundDuration":116197,"Delta":61751036},{"NoteNumber":61,"Velocity":37,"Duration":105633,"SoundDuration":105633,"Delta":61751036},{"NoteNumber":57,"Velocity":31,"Duration":105633,"SoundDuration":105633,"Delta":61751036},{"NoteNumber":81,"Velocity":50,"Duration":116272,"SoundDuration":116272,"Delta":61856669},{"NoteNumber":80,"Velocity":46,"Duration":117021,"SoundDuration":117021,"Delta":61962303},{"NoteNumber":61,"Velocity":37,"Duration":106383,"SoundDuration":106383,"Delta":61962303},{"NoteNumber":57,"Velocity":31,"Duration":106383,"SoundDuration":106383,"Delta":61962303},{"NoteNumber":78,"Velocity":46,"Duration":117174,"SoundDuration":117174,"Delta":62068686},{"NoteNumber":77,"Velocity":58,"Duration":118705,"SoundDuration":118705,"Delta":62175069},{"NoteNumber":56,"Velocity":50,"Duration":107913,"SoundDuration":107913,"Delta":62175069},{"NoteNumber":78,"Velocity":47,"Duration":118403,"SoundDuration":118403,"Delta":62282983},{"NoteNumber":80,"Velocity":49,"Duration":115384,"SoundDuration":115384,"Delta":62390897},{"NoteNumber":61,"Velocity":36,"Duration":104894,"SoundDuration":104894,"Delta":62390897},{"NoteNumber":59,"Velocity":30,"Duration":104894,"SoundDuration":104894,"Delta":62390897},{"NoteNumber":77,"Velocity":46,"Duration":115384,"SoundDuration":115384,"Delta":62495792},{"NoteNumber":73,"Velocity":56,"Duration":115384,"SoundDuration":115384,"Delta":62600687},{"NoteNumber":61,"Velocity":36,"Duration":104894,"SoundDuration":104894,"Delta":62600687},{"NoteNumber":59,"Velocity":30,"Duration":104894,"SoundDuration":104894,"Delta":62600687},{"NoteNumber":75,"Velocity":47,"Duration":115458,"SoundDuration":115458,"Delta":62705582},{"NoteNumber":77,"Velocity":50,"Duration":116197,"SoundDuration":116197,"Delta":62810477},{"NoteNumber":61,"Velocity":36,"Duration":105633,"SoundDuration":105633,"Delta":62810477},{"NoteNumber":59,"Velocity":30,"Duration":105633,"SoundDuration":105633,"Delta":62810477},{"NoteNumber":73,"Velocity":47,"Duration":116197,"SoundDuration":116197,"Delta":62916110},{"NoteNumber":78,"Velocity":56,"Duration":116197,"SoundDuration":116197,"Delta":63021744},{"NoteNumber":54,"Velocity":50,"Duration":105633,"SoundDuration":105633,"Delta":63021744},{"NoteNumber":77,"Velocity":47,"Duration":116123,"SoundDuration":116123,"Delta":63127378},{"NoteNumber":78,"Velocity":51,"Duration":115384,"SoundDuration":115384,"Delta":63233012},{"NoteNumber":61,"Velocity":36,"Duration":104894,"SoundDuration":104894,"Delta":63233012},{"NoteNumber":57,"Velocity":30,"Duration":104894,"SoundDuration":104894,"Delta":63233012},{"NoteNumber":80,"Velocity":48,"Duration":115384,"SoundDuration":115384,"Delta":63337907},{"NoteNumber":81,"Velocity":58,"Duration":115384,"SoundDuration":115384,"Delta":63442802},{"NoteNumber":61,"Velocity":37,"Duration":104894,"SoundDuration":104894,"Delta":63442802},{"NoteNumber":57,"Velocity":31,"Duration":104894,"SoundDuration":104894,"Delta":63442802},{"NoteNumber":80,"Velocity":54,"Duration":115458,"SoundDuration":115458,"Delta":63547697},{"NoteNumber":81,"Velocity":56,"Duration":116197,"SoundDuration":116197,"Delta":63652592},{"NoteNumber":61,"Velocity":38,"Duration":105633,"SoundDuration":105633,"Delta":63652592},{"NoteNumber":57,"Velocity":32,"Duration":105633,"SoundDuration":105633,"Delta":63652592},{"NoteNumber":83,"Velocity":59,"Duration":116272,"SoundDuration":116272,"Delta":63758225},{"NoteNumber":85,"Velocity":68,"Duration":117021,"SoundDuration":117021,"Delta":63863859},{"NoteNumber":53,"Velocity":55,"Duration":106382,"SoundDuration":106382,"Delta":63863859},{"NoteNumber":84,"Velocity":62,"Duration":116727,"SoundDuration":116727,"Delta":63970242},{"NoteNumber":85,"Velocity":66,"Duration":113793,"SoundDuration":113793,"Delta":64076625},{"NoteNumber":61,"Velocity":38,"Duration":103448,"SoundDuration":103448,"Delta":64076625},{"NoteNumber":56,"Velocity":31,"Duration":103448,"SoundDuration":103448,"Delta":64076625},{"NoteNumber":84,"Velocity":59,"Duration":103448,"SoundDuration":103448,"Delta":64180073},{"NoteNumber":85,"Velocity":64,"Duration":113793,"SoundDuration":113793,"Delta":64283522},{"NoteNumber":61,"Velocity":38,"Duration":103448,"SoundDuration":103448,"Delta":64283522},{"NoteNumber":56,"Velocity":31,"Duration":103448,"SoundDuration":103448,"Delta":64283522},{"NoteNumber":86,"Velocity":57,"Duration":114086,"SoundDuration":114086,"Delta":64386970},{"NoteNumber":85,"Velocity":57,"Duration":117021,"SoundDuration":117021,"Delta":64490418},{"NoteNumber":61,"Velocity":38,"Duration":106382,"SoundDuration":106382,"Delta":64490418},{"NoteNumber":56,"Velocity":31,"Duration":106382,"SoundDuration":106382,"Delta":64490418},{"NoteNumber":83,"Velocity":57,"Duration":116872,"SoundDuration":116872,"Delta":64596801},{"NoteNumber":81,"Velocity":60,"Duration":115384,"SoundDuration":115384,"Delta":64703184},{"NoteNumber":54,"Velocity":50,"Duration":104894,"SoundDuration":104894,"Delta":64703184},{"NoteNumber":83,"Velocity":51,"Duration":115239,"SoundDuration":115239,"Delta":64808079},{"NoteNumber":81,"Velocity":55,"Duration":113793,"SoundDuration":113793,"Delta":64912974},{"NoteNumber":61,"Velocity":36,"Duration":103448,"SoundDuration":103448,"Delta":64912974},{"NoteNumber":57,"Velocity":30,"Duration":103448,"SoundDuration":103448,"Delta":64912974},{"NoteNumber":80,"Velocity":47,"Duration":113793,"SoundDuration":113793,"Delta":65016422},{"NoteNumber":78,"Velocity":54,"Duration":113793,"SoundDuration":113793,"Delta":65119871},{"NoteNumber":61,"Velocity":36,"Duration":103448,"SoundDuration":103448,"Delta":65119871},{"NoteNumber":57,"Velocity":30,"Duration":103448,"SoundDuration":103448,"Delta":65119871},{"NoteNumber":81,"Velocity":47,"Duration":114086,"SoundDuration":114086,"Delta":65223319},{"NoteNumber":80,"Velocity":50,"Duration":117021,"SoundDuration":117021,"Delta":65326767},{"NoteNumber":61,"Velocity":36,"Duration":106382,"SoundDuration":106382,"Delta":65326767},{"NoteNumber":57,"Velocity":30,"Duration":106382,"SoundDuration":106382,"Delta":65326767},{"NoteNumber":78,"Velocity":46,"Duration":116946,"SoundDuration":116946,"Delta":65433150},{"NoteNumber":76,"Velocity":53,"Duration":116197,"SoundDuration":116197,"Delta":65539533},{"NoteNumber":56,"Velocity":50,"Duration":105633,"SoundDuration":105633,"Delta":65539533},{"NoteNumber":78,"Velocity":47,"Duration":115907,"SoundDuration":115907,"Delta":65645167},{"NoteNumber":80,"Velocity":50,"Duration":113013,"SoundDuration":113013,"Delta":65750801},{"NoteNumber":64,"Velocity":36,"Duration":102739,"SoundDuration":102739,"Delta":65750801},{"NoteNumber":61,"Velocity":30,"Duration":102739,"SoundDuration":102739,"Delta":65750801},{"NoteNumber":76,"Velocity":47,"Duration":113156,"SoundDuration":113156,"Delta":65853540},{"NoteNumber":73,"Velocity":54,"Duration":114583,"SoundDuration":114583,"Delta":65956280},{"NoteNumber":64,"Velocity":36,"Duration":104166,"SoundDuration":104166,"Delta":65956280},{"NoteNumber":61,"Velocity":30,"Duration":104166,"SoundDuration":104166,"Delta":65956280},{"NoteNumber":75,"Velocity":47,"Duration":114881,"SoundDuration":114881,"Delta":66060447},{"NoteNumber":76,"Velocity":53,"Duration":117857,"SoundDuration":117857,"Delta":66164614},{"NoteNumber":64,"Velocity":36,"Duration":107142,"SoundDuration":107142,"Delta":66164614},{"NoteNumber":61,"Velocity":30,"Duration":107142,"SoundDuration":107142,"Delta":66164614},{"NoteNumber":73,"Velocity":47,"Duration":117857,"SoundDuration":117857,"Delta":66271756},{"NoteNumber":75,"Velocity":53,"Duration":117857,"SoundDuration":117857,"Delta":66378899},{"NoteNumber":56,"Velocity":50,"Duration":107142,"SoundDuration":107142,"Delta":66378899},{"NoteNumber":76,"Velocity":47,"Duration":117632,"SoundDuration":117632,"Delta":66486042},{"NoteNumber":78,"Velocity":51,"Duration":115384,"SoundDuration":115384,"Delta":66593185},{"NoteNumber":66,"Velocity":37,"Duration":104894,"SoundDuration":104894,"Delta":66593185},{"NoteNumber":63,"Velocity":31,"Duration":104894,"SoundDuration":104894,"Delta":66593185},{"NoteNumber":75,"Velocity":47,"Duration":115384,"SoundDuration":115384,"Delta":66698080},{"NoteNumber":72,"Velocity":50,"Duration":116624,"SoundDuration":116624,"Delta":66802975},{"NoteNumber":63,"Velocity":31,"Duration":105986,"SoundDuration":105986,"Delta":66802975},{"NoteNumber":66,"Velocity":37,"Duration":105986,"SoundDuration":105986,"Delta":66802975},{"NoteNumber":73,"Velocity":47,"Duration":117681,"SoundDuration":117681,"Delta":66908961},{"NoteNumber":75,"Velocity":50,"Duration":120088,"SoundDuration":120088,"Delta":67015851},{"NoteNumber":63,"Velocity":31,"Duration":108369,"SoundDuration":108369,"Delta":67015851},{"NoteNumber":66,"Velocity":37,"Duration":108369,"SoundDuration":108369,"Delta":67015851},{"NoteNumber":72,"Velocity":46,"Duration":128057,"SoundDuration":128057,"Delta":67124221},{"NoteNumber":73,"Velocity":52,"Duration":407609,"SoundDuration":407609,"Delta":67241408},{"NoteNumber":64,"Velocity":50,"Duration":407609,"SoundDuration":407609,"Delta":67241408},{"NoteNumber":61,"Velocity":42,"Duration":407609,"SoundDuration":407609,"Delta":67241408},{"NoteNumber":76,"Velocity":69,"Duration":114583,"SoundDuration":114583,"Delta":67676191},{"NoteNumber":74,"Velocity":59,"Duration":114656,"SoundDuration":114656,"Delta":67780358},{"NoteNumber":73,"Velocity":59,"Duration":115764,"SoundDuration":115764,"Delta":67884525},{"NoteNumber":71,"Velocity":59,"Duration":119410,"SoundDuration":119410,"Delta":67989420},{"NoteNumber":69,"Velocity":66,"Duration":117857,"SoundDuration":117857,"Delta":68098116},{"NoteNumber":57,"Velocity":57,"Duration":107142,"SoundDuration":107142,"Delta":68098116},{"NoteNumber":71,"Velocity":57,"Duration":117706,"SoundDuration":117706,"Delta":68205258},{"NoteNumber":73,"Velocity":57,"Duration":116197,"SoundDuration":116197,"Delta":68312401},{"NoteNumber":64,"Velocity":43,"Duration":105633,"SoundDuration":105633,"Delta":68312401},{"NoteNumber":61,"Velocity":36,"Duration":105633,"SoundDuration":105633,"Delta":68312401},{"NoteNumber":74,"Velocity":57,"Duration":116197,"SoundDuration":116197,"Delta":68418035},{"NoteNumber":76,"Velocity":64,"Duration":116197,"SoundDuration":116197,"Delta":68523669},{"NoteNumber":64,"Velocity":43,"Duration":105633,"SoundDuration":105633,"Delta":68523669},{"NoteNumber":61,"Velocity":36,"Duration":105633,"SoundDuration":105633,"Delta":68523669},{"NoteNumber":78,"Velocity":57,"Duration":116272,"SoundDuration":116272,"Delta":68629302},{"NoteNumber":80,"Velocity":56,"Duration":117021,"SoundDuration":117021,"Delta":68734936},{"NoteNumber":64,"Velocity":43,"Duration":106382,"SoundDuration":106382,"Delta":68734936},{"NoteNumber":61,"Velocity":36,"Duration":106382,"SoundDuration":106382,"Delta":68734936},{"NoteNumber":81,"Velocity":56,"Duration":101950,"SoundDuration":101950,"Delta":68841319},{"NoteNumber":81,"Velocity":66,"Duration":113013,"SoundDuration":113013,"Delta":68947702},{"NoteNumber":59,"Velocity":57,"Duration":102739,"SoundDuration":102739,"Delta":68947702},{"NoteNumber":80,"Velocity":60,"Duration":113229,"SoundDuration":113229,"Delta":69050442},{"NoteNumber":78,"Velocity":60,"Duration":115384,"SoundDuration":115384,"Delta":69153182},{"NoteNumber":64,"Velocity":42,"Duration":104894,"SoundDuration":104894,"Delta":69153182},{"NoteNumber":62,"Velocity":35,"Duration":104894,"SoundDuration":104894,"Delta":69153182},{"NoteNumber":76,"Velocity":57,"Duration":100524,"SoundDuration":100524,"Delta":69258077},{"NoteNumber":76,"Velocity":64,"Duration":115384,"SoundDuration":115384,"Delta":69362972},{"NoteNumber":56,"Velocity":57,"Duration":104894,"SoundDuration":104894,"Delta":69362972},{"NoteNumber":74,"Velocity":59,"Duration":115458,"SoundDuration":115458,"Delta":69467867},{"NoteNumber":73,"Velocity":59,"Duration":116197,"SoundDuration":116197,"Delta":69572762},{"NoteNumber":64,"Velocity":42,"Duration":105633,"SoundDuration":105633,"Delta":69572762},{"NoteNumber":62,"Velocity":35,"Duration":105633,"SoundDuration":105633,"Delta":69572762},{"NoteNumber":71,"Velocity":59,"Duration":115837,"SoundDuration":115837,"Delta":69678395},{"NoteNumber":69,"Velocity":64,"Duration":112244,"SoundDuration":112244,"Delta":69784029},{"NoteNumber":57,"Velocity":57,"Duration":102040,"SoundDuration":102040,"Delta":69784029},{"NoteNumber":71,"Velocity":54,"Duration":112530,"SoundDuration":112530,"Delta":69886070},{"NoteNumber":73,"Velocity":57,"Duration":115384,"SoundDuration":115384,"Delta":69988111},{"NoteNumber":64,"Velocity":41,"Duration":104894,"SoundDuration":104894,"Delta":69988111},{"NoteNumber":61,"Velocity":35,"Duration":104894,"SoundDuration":104894,"Delta":69988111},{"NoteNumber":74,"Velocity":54,"Duration":115384,"SoundDuration":115384,"Delta":70093006},{"NoteNumber":76,"Velocity":64,"Duration":115384,"SoundDuration":115384,"Delta":70197901},{"NoteNumber":64,"Velocity":41,"Duration":104894,"SoundDuration":104894,"Delta":70197901},{"NoteNumber":61,"Velocity":35,"Duration":104894,"SoundDuration":104894,"Delta":70197901},{"NoteNumber":78,"Velocity":58,"Duration":116345,"SoundDuration":116345,"Delta":70302796},{"NoteNumber":80,"Velocity":60,"Duration":126798,"SoundDuration":126798,"Delta":70407691},{"NoteNumber":64,"Velocity":41,"Duration":114503,"SoundDuration":114503,"Delta":70407691},{"NoteNumber":61,"Velocity":35,"Duration":114503,"SoundDuration":114503,"Delta":70407691},{"NoteNumber":81,"Velocity":63,"Duration":122950,"SoundDuration":122950,"Delta":70522194},{"NoteNumber":82,"Velocity":75,"Duration":227272,"SoundDuration":227272,"Delta":70645145},{"NoteNumber":52,"Velocity":57,"Duration":227272,"SoundDuration":227272,"Delta":70645145},{"NoteNumber":83,"Velocity":69,"Duration":114583,"SoundDuration":114583,"Delta":70872418},{"NoteNumber":62,"Velocity":39,"Duration":104166,"SoundDuration":104166,"Delta":70872418},{"NoteNumber":56,"Velocity":33,"Duration":104166,"SoundDuration":104166,"Delta":70872418},{"NoteNumber":76,"Velocity":69,"Duration":118222,"SoundDuration":118222,"Delta":71081262},{"NoteNumber":56,"Velocity":33,"Duration":107744,"SoundDuration":107744,"Delta":71081262},{"NoteNumber":62,"Velocity":39,"Duration":107744,"SoundDuration":107744,"Delta":71081262},{"NoteNumber":74,"Velocity":59,"Duration":113357,"SoundDuration":113357,"Delta":71189007},{"NoteNumber":73,"Velocity":59,"Duration":115764,"SoundDuration":115764,"Delta":71291874},{"NoteNumber":56,"Velocity":33,"Duration":104894,"SoundDuration":104894,"Delta":71291874},{"NoteNumber":62,"Velocity":39,"Duration":104894,"SoundDuration":104894,"Delta":71291874},{"NoteNumber":71,"Velocity":59,"Duration":119410,"SoundDuration":119410,"Delta":71396769},{"NoteNumber":69,"Velocity":66,"Duration":117857,"SoundDuration":117857,"Delta":71505465},{"NoteNumber":57,"Velocity":57,"Duration":107142,"SoundDuration":107142,"Delta":71505465},{"NoteNumber":71,"Velocity":57,"Duration":117706,"SoundDuration":117706,"Delta":71612608},{"NoteNumber":73,"Velocity":57,"Duration":116197,"SoundDuration":116197,"Delta":71719750},{"NoteNumber":64,"Velocity":43,"Duration":105633,"SoundDuration":105633,"Delta":71719750},{"NoteNumber":61,"Velocity":36,"Duration":105633,"SoundDuration":105633,"Delta":71719750},{"NoteNumber":74,"Velocity":57,"Duration":116197,"SoundDuration":116197,"Delta":71825384},{"NoteNumber":76,"Velocity":64,"Duration":116197,"SoundDuration":116197,"Delta":71931018},{"NoteNumber":64,"Velocity":43,"Duration":105633,"SoundDuration":105633,"Delta":71931018},{"NoteNumber":61,"Velocity":36,"Duration":105633,"SoundDuration":105633,"Delta":71931018},{"NoteNumber":78,"Velocity":57,"Duration":116272,"SoundDuration":116272,"Delta":72036652},{"NoteNumber":80,"Velocity":56,"Duration":117021,"SoundDuration":117021,"Delta":72142285},{"NoteNumber":64,"Velocity":43,"Duration":106382,"SoundDuration":106382,"Delta":72142285},{"NoteNumber":61,"Velocity":36,"Duration":106382,"SoundDuration":106382,"Delta":72142285},{"NoteNumber":81,"Velocity":56,"Duration":101950,"SoundDuration":101950,"Delta":72248668},{"NoteNumber":81,"Velocity":66,"Duration":113013,"SoundDuration":113013,"Delta":72355051},{"NoteNumber":59,"Velocity":57,"Duration":102739,"SoundDuration":102739,"Delta":72355051},{"NoteNumber":80,"Velocity":57,"Duration":113229,"SoundDuration":113229,"Delta":72457791},{"NoteNumber":78,"Velocity":60,"Duration":115384,"SoundDuration":115384,"Delta":72560531},{"NoteNumber":64,"Velocity":42,"Duration":104894,"SoundDuration":104894,"Delta":72560531},{"NoteNumber":62,"Velocity":35,"Duration":104894,"SoundDuration":104894,"Delta":72560531},{"NoteNumber":76,"Velocity":57,"Duration":100524,"SoundDuration":100524,"Delta":72665426},{"NoteNumber":76,"Velocity":64,"Duration":115384,"SoundDuration":115384,"Delta":72770321},{"NoteNumber":56,"Velocity":57,"Duration":104894,"SoundDuration":104894,"Delta":72770321},{"NoteNumber":74,"Velocity":59,"Duration":115458,"SoundDuration":115458,"Delta":72875216},{"NoteNumber":73,"Velocity":59,"Duration":116197,"SoundDuration":116197,"Delta":72980111},{"NoteNumber":64,"Velocity":42,"Duration":105633,"SoundDuration":105633,"Delta":72980111},{"NoteNumber":62,"Velocity":35,"Duration":105633,"SoundDuration":105633,"Delta":72980111},{"NoteNumber":71,"Velocity":59,"Duration":115837,"SoundDuration":115837,"Delta":73085745},{"NoteNumber":73,"Velocity":64,"Duration":112244,"SoundDuration":112244,"Delta":73191378},{"NoteNumber":57,"Velocity":57,"Duration":102040,"SoundDuration":102040,"Delta":73191378},{"NoteNumber":76,"Velocity":54,"Duration":112530,"SoundDuration":112530,"Delta":73293419},{"NoteNumber":69,"Velocity":57,"Duration":115384,"SoundDuration":115384,"Delta":73395460},{"NoteNumber":54,"Velocity":46,"Duration":104894,"SoundDuration":104894,"Delta":73395460},{"NoteNumber":73,"Velocity":54,"Duration":115168,"SoundDuration":115168,"Delta":73500355},{"NoteNumber":71,"Velocity":64,"Duration":113013,"SoundDuration":113013,"Delta":73605250},{"NoteNumber":50,"Velocity":46,"Duration":102739,"SoundDuration":102739,"Delta":73605250},{"NoteNumber":74,"Velocity":58,"Duration":113688,"SoundDuration":113688,"Delta":73707990},{"NoteNumber":68,"Velocity":60,"Duration":120437,"SoundDuration":120437,"Delta":73810729},{"NoteNumber":52,"Velocity":46,"Duration":109488,"SoundDuration":109488,"Delta":73810729},{"NoteNumber":71,"Velocity":55,"Duration":109489,"SoundDuration":109489,"Delta":73920218},{"NoteNumber":69,"Velocity":66,"Duration":324754,"SoundDuration":324754,"Delta":74029707},{"NoteNumber":45,"Velocity":57,"Duration":220588,"SoundDuration":220588,"Delta":74029707},{"NoteNumber":57,"Velocity":44,"Duration":104166,"SoundDuration":104166,"Delta":74250295},{"NoteNumber":85,"Velocity":60,"Duration":122393,"SoundDuration":122393,"Delta":74459791},{"NoteNumber":86,"Velocity":52,"Duration":113184,"SoundDuration":113184,"Delta":74571646},{"NoteNumber":85,"Velocity":52,"Duration":115764,"SoundDuration":115764,"Delta":74674340},{"NoteNumber":83,"Velocity":52,"Duration":119334,"SoundDuration":119334,"Delta":74779235},{"NoteNumber":81,"Velocity":58,"Duration":117021,"SoundDuration":117021,"Delta":74887931},{"NoteNumber":52,"Velocity":50,"Duration":106382,"SoundDuration":106382,"Delta":74887931},{"NoteNumber":83,"Velocity":50,"Duration":116946,"SoundDuration":116946,"Delta":74994314},{"NoteNumber":81,"Velocity":50,"Duration":116197,"SoundDuration":116197,"Delta":75100697},{"NoteNumber":61,"Velocity":42,"Duration":105633,"SoundDuration":105633,"Delta":75100697},{"NoteNumber":57,"Velocity":35,"Duration":105633,"SoundDuration":105633,"Delta":75100697},{"NoteNumber":80,"Velocity":50,"Duration":116197,"SoundDuration":116197,"Delta":75206331},{"NoteNumber":78,"Velocity":56,"Duration":116197,"SoundDuration":116197,"Delta":75311965},{"NoteNumber":61,"Velocity":42,"Duration":105633,"SoundDuration":105633,"Delta":75311965},{"NoteNumber":57,"Velocity":35,"Duration":105633,"SoundDuration":105633,"Delta":75311965},{"NoteNumber":81,"Velocity":50,"Duration":116272,"SoundDuration":116272,"Delta":75417598},{"NoteNumber":80,"Velocity":46,"Duration":117021,"SoundDuration":117021,"Delta":75523232},{"NoteNumber":61,"Velocity":42,"Duration":106382,"SoundDuration":106382,"Delta":75523232},{"NoteNumber":57,"Velocity":35,"Duration":106382,"SoundDuration":106382,"Delta":75523232},{"NoteNumber":78,"Velocity":46,"Duration":116946,"SoundDuration":116946,"Delta":75629615},{"NoteNumber":77,"Velocity":58,"Duration":116197,"SoundDuration":116197,"Delta":75735998},{"NoteNumber":56,"Velocity":50,"Duration":105633,"SoundDuration":105633,"Delta":75735998},{"NoteNumber":78,"Velocity":47,"Duration":116123,"SoundDuration":116123,"Delta":75841632},{"NoteNumber":80,"Velocity":49,"Duration":115384,"SoundDuration":115384,"Delta":75947266},{"NoteNumber":61,"Velocity":41,"Duration":104894,"SoundDuration":104894,"Delta":75947266},{"NoteNumber":59,"Velocity":34,"Duration":104894,"SoundDuration":104894,"Delta":75947266},{"NoteNumber":77,"Velocity":46,"Duration":115384,"SoundDuration":115384,"Delta":76052161},{"NoteNumber":73,"Velocity":56,"Duration":115384,"SoundDuration":115384,"Delta":76157056},{"NoteNumber":61,"Velocity":41,"Duration":104894,"SoundDuration":104894,"Delta":76157056},{"NoteNumber":59,"Velocity":34,"Duration":104894,"SoundDuration":104894,"Delta":76157056},{"NoteNumber":75,"Velocity":47,"Duration":115458,"SoundDuration":115458,"Delta":76261951},{"NoteNumber":77,"Velocity":50,"Duration":116197,"SoundDuration":116197,"Delta":76366846},{"NoteNumber":61,"Velocity":41,"Duration":105633,"SoundDuration":105633,"Delta":76366846},{"NoteNumber":59,"Velocity":34,"Duration":105633,"SoundDuration":105633,"Delta":76366846},{"NoteNumber":73,"Velocity":47,"Duration":116425,"SoundDuration":116425,"Delta":76472479},{"NoteNumber":78,"Velocity":56,"Duration":118705,"SoundDuration":118705,"Delta":76578113},{"NoteNumber":54,"Velocity":50,"Duration":107913,"SoundDuration":107913,"Delta":76578113},{"NoteNumber":77,"Velocity":47,"Duration":118403,"SoundDuration":118403,"Delta":76686027},{"NoteNumber":78,"Velocity":50,"Duration":115384,"SoundDuration":115384,"Delta":76793941},{"NoteNumber":61,"Velocity":40,"Duration":104894,"SoundDuration":104894,"Delta":76793941},{"NoteNumber":57,"Velocity":34,"Duration":104894,"SoundDuration":104894,"Delta":76793941},{"NoteNumber":80,"Velocity":47,"Duration":115384,"SoundDuration":115384,"Delta":76898836},{"NoteNumber":81,"Velocity":56,"Duration":115384,"SoundDuration":115384,"Delta":77003731},{"NoteNumber":61,"Velocity":40,"Duration":104894,"SoundDuration":104894,"Delta":77003731},{"NoteNumber":57,"Velocity":34,"Duration":104894,"SoundDuration":104894,"Delta":77003731},{"NoteNumber":80,"Velocity":51,"Duration":115458,"SoundDuration":115458,"Delta":77108626},{"NoteNumber":81,"Velocity":53,"Duration":116197,"SoundDuration":116197,"Delta":77213521},{"NoteNumber":61,"Velocity":40,"Duration":105633,"SoundDuration":105633,"Delta":77213521},{"NoteNumber":57,"Velocity":34,"Duration":105633,"SoundDuration":105633,"Delta":77213521},{"NoteNumber":83,"Velocity":55,"Duration":115907,"SoundDuration":115907,"Delta":77319154},{"NoteNumber":85,"Velocity":62,"Duration":113013,"SoundDuration":113013,"Delta":77424788},{"NoteNumber":49,"Velocity":50,"Duration":102739,"SoundDuration":102739,"Delta":77424788},{"NoteNumber":84,"Velocity":57,"Duration":113156,"SoundDuration":113156,"Delta":77527528},{"NoteNumber":85,"Velocity":60,"Duration":114583,"SoundDuration":114583,"Delta":77630268},{"NoteNumber":61,"Velocity":49,"Duration":104166,"SoundDuration":104166,"Delta":77630268},{"NoteNumber":56,"Velocity":41,"Duration":104166,"SoundDuration":104166,"Delta":77630268},{"NoteNumber":84,"Velocity":54,"Duration":104166,"SoundDuration":104166,"Delta":77734434},{"NoteNumber":85,"Velocity":62,"Duration":114583,"SoundDuration":114583,"Delta":77838601},{"NoteNumber":61,"Velocity":48,"Duration":104166,"SoundDuration":104166,"Delta":77838601},{"NoteNumber":55,"Velocity":40,"Duration":104166,"SoundDuration":104166,"Delta":77838601},{"NoteNumber":86,"Velocity":56,"Duration":114805,"SoundDuration":114805,"Delta":77942768},{"NoteNumber":85,"Velocity":65,"Duration":117021,"SoundDuration":117021,"Delta":78046935},{"NoteNumber":61,"Velocity":48,"Duration":106382,"SoundDuration":106382,"Delta":78046935},{"NoteNumber":54,"Velocity":40,"Duration":106382,"SoundDuration":106382,"Delta":78046935},{"NoteNumber":82,"Velocity":60,"Duration":117097,"SoundDuration":117097,"Delta":78153318},{"NoteNumber":86,"Velocity":69,"Duration":117857,"SoundDuration":117857,"Delta":78259701},{"NoteNumber":47,"Velocity":59,"Duration":107142,"SoundDuration":107142,"Delta":78259701},{"NoteNumber":85,"Velocity":63,"Duration":117559,"SoundDuration":117559,"Delta":78366843},{"NoteNumber":86,"Velocity":69,"Duration":114583,"SoundDuration":114583,"Delta":78473986},{"NoteNumber":59,"Velocity":53,"Duration":104166,"SoundDuration":104166,"Delta":78473986},{"NoteNumber":54,"Velocity":45,"Duration":104166,"SoundDuration":104166,"Delta":78473986},{"NoteNumber":85,"Velocity":64,"Duration":114583,"SoundDuration":114583,"Delta":78578153},{"NoteNumber":86,"Velocity":68,"Duration":114583,"SoundDuration":114583,"Delta":78682320},{"NoteNumber":59,"Velocity":56,"Duration":104166,"SoundDuration":104166,"Delta":78682320},{"NoteNumber":54,"Velocity":47,"Duration":104166,"SoundDuration":104166,"Delta":78682320},{"NoteNumber":85,"Velocity":66,"Duration":114805,"SoundDuration":114805,"Delta":78786486},{"NoteNumber":86,"Velocity":72,"Duration":117021,"SoundDuration":117021,"Delta":78890653},{"NoteNumber":59,"Velocity":54,"Duration":106382,"SoundDuration":106382,"Delta":78890653},{"NoteNumber":54,"Velocity":45,"Duration":106382,"SoundDuration":106382,"Delta":78890653},{"NoteNumber":85,"Velocity":68,"Duration":117021,"SoundDuration":117021,"Delta":78997036},{"NoteNumber":86,"Velocity":70,"Duration":117021,"SoundDuration":117021,"Delta":79103419},{"NoteNumber":47,"Velocity":65,"Duration":106382,"SoundDuration":106382,"Delta":79103419},{"NoteNumber":85,"Velocity":69,"Duration":116799,"SoundDuration":116799,"Delta":79209802},{"NoteNumber":83,"Velocity":67,"Duration":114583,"SoundDuration":114583,"Delta":79316185},{"NoteNumber":59,"Velocity":54,"Duration":104166,"SoundDuration":104166,"Delta":79316185},{"NoteNumber":56,"Velocity":45,"Duration":104166,"SoundDuration":104166,"Delta":79316185},{"NoteNumber":81,"Velocity":66,"Duration":114583,"SoundDuration":114583,"Delta":79420352},{"NoteNumber":80,"Velocity":64,"Duration":114583,"SoundDuration":114583,"Delta":79524519},{"NoteNumber":59,"Velocity":60,"Duration":104166,"SoundDuration":104166,"Delta":79524519},{"NoteNumber":56,"Velocity":51,"Duration":104166,"SoundDuration":104166,"Delta":79524519},{"NoteNumber":81,"Velocity":61,"Duration":114881,"SoundDuration":114881,"Delta":79628685},{"NoteNumber":83,"Velocity":64,"Duration":117857,"SoundDuration":117857,"Delta":79732852},{"NoteNumber":59,"Velocity":54,"Duration":107142,"SoundDuration":107142,"Delta":79732852},{"NoteNumber":56,"Velocity":45,"Duration":107142,"SoundDuration":107142,"Delta":79732852},{"NoteNumber":80,"Velocity":61,"Duration":117559,"SoundDuration":117559,"Delta":79839995},{"NoteNumber":81,"Velocity":57,"Duration":114583,"SoundDuration":114583,"Delta":79947138},{"NoteNumber":49,"Velocity":58,"Duration":104166,"SoundDuration":104166,"Delta":79947138},{"NoteNumber":83,"Velocity":49,"Duration":114656,"SoundDuration":114656,"Delta":80051304},{"NoteNumber":85,"Velocity":55,"Duration":115384,"SoundDuration":115384,"Delta":80155471},{"NoteNumber":57,"Velocity":47,"Duration":104894,"SoundDuration":104894,"Delta":80155471},{"NoteNumber":54,"Velocity":39,"Duration":104894,"SoundDuration":104894,"Delta":80155471},{"NoteNumber":78,"Velocity":50,"Duration":115384,"SoundDuration":115384,"Delta":80260366},{"NoteNumber":77,"Velocity":53,"Duration":116624,"SoundDuration":116624,"Delta":80365261},{"NoteNumber":49,"Velocity":55,"Duration":105986,"SoundDuration":105986,"Delta":80365261},{"NoteNumber":78,"Velocity":47,"Duration":117681,"SoundDuration":117681,"Delta":80471247},{"NoteNumber":80,"Velocity":54,"Duration":121190,"SoundDuration":121190,"Delta":80578138},{"NoteNumber":56,"Velocity":41,"Duration":108369,"SoundDuration":108369,"Delta":80578138},{"NoteNumber":59,"Velocity":49,"Duration":108369,"SoundDuration":108369,"Delta":80578138},{"NoteNumber":77,"Velocity":47,"Duration":139074,"SoundDuration":139074,"Delta":80686508},{"NoteNumber":78,"Velocity":54,"Duration":407609,"SoundDuration":407609,"Delta":80814713},{"NoteNumber":57,"Velocity":46,"Duration":407609,"SoundDuration":407609,"Delta":80814713},{"NoteNumber":54,"Velocity":39,"Duration":407609,"SoundDuration":407609,"Delta":80814713},{"NoteNumber":76,"Velocity":69,"Duration":114583,"SoundDuration":114583,"Delta":81249496},{"NoteNumber":74,"Velocity":59,"Duration":114656,"SoundDuration":114656,"Delta":81353663},{"NoteNumber":73,"Velocity":59,"Duration":115764,"SoundDuration":115764,"Delta":81457829},{"NoteNumber":71,"Velocity":59,"Duration":119410,"SoundDuration":119410,"Delta":81562724},{"NoteNumber":69,"Velocity":66,"Duration":117857,"SoundDuration":117857,"Delta":81671420},{"NoteNumber":57,"Velocity":57,"Duration":107142,"SoundDuration":107142,"Delta":81671420},{"NoteNumber":71,"Velocity":57,"Duration":117706,"SoundDuration":117706,"Delta":81778563},{"NoteNumber":73,"Velocity":57,"Duration":116197,"SoundDuration":116197,"Delta":81885706},{"NoteNumber":64,"Velocity":43,"Duration":105633,"SoundDuration":105633,"Delta":81885706},{"NoteNumber":61,"Velocity":36,"Duration":105633,"SoundDuration":105633,"Delta":81885706},{"NoteNumber":74,"Velocity":57,"Duration":116348,"SoundDuration":116348,"Delta":81991339},{"NoteNumber":76,"Velocity":64,"Duration":117857,"SoundDuration":117857,"Delta":82096973},{"NoteNumber":64,"Velocity":43,"Duration":107142,"SoundDuration":107142,"Delta":82096973},{"NoteNumber":61,"Velocity":36,"Duration":107142,"SoundDuration":107142,"Delta":82096973},{"NoteNumber":78,"Velocity":57,"Duration":118012,"SoundDuration":118012,"Delta":82204116},{"NoteNumber":80,"Velocity":56,"Duration":119565,"SoundDuration":119565,"Delta":82311259},{"NoteNumber":64,"Velocity":43,"Duration":108695,"SoundDuration":108695,"Delta":82311259},{"NoteNumber":61,"Velocity":36,"Duration":108695,"SoundDuration":108695,"Delta":82311259},{"NoteNumber":81,"Velocity":56,"Duration":104166,"SoundDuration":104166,"Delta":82419954},{"NoteNumber":81,"Velocity":66,"Duration":114583,"SoundDuration":114583,"Delta":82528650},{"NoteNumber":59,"Velocity":57,"Duration":104166,"SoundDuration":104166,"Delta":82528650},{"NoteNumber":80,"Velocity":60,"Duration":114656,"SoundDuration":114656,"Delta":82632817},{"NoteNumber":78,"Velocity":60,"Duration":115384,"SoundDuration":115384,"Delta":82736984},{"NoteNumber":64,"Velocity":42,"Duration":104894,"SoundDuration":104894,"Delta":82736984},{"NoteNumber":62,"Velocity":35,"Duration":104894,"SoundDuration":104894,"Delta":82736984},{"NoteNumber":76,"Velocity":57,"Duration":100524,"SoundDuration":100524,"Delta":82841879},{"NoteNumber":76,"Velocity":64,"Duration":115384,"SoundDuration":115384,"Delta":82946774},{"NoteNumber":56,"Velocity":57,"Duration":104894,"SoundDuration":104894,"Delta":82946774},{"NoteNumber":74,"Velocity":59,"Duration":115458,"SoundDuration":115458,"Delta":83051669},{"NoteNumber":73,"Velocity":59,"Duration":116197,"SoundDuration":116197,"Delta":83156564},{"NoteNumber":64,"Velocity":42,"Duration":105633,"SoundDuration":105633,"Delta":83156564},{"NoteNumber":62,"Velocity":35,"Duration":105633,"SoundDuration":105633,"Delta":83156564},{"NoteNumber":71,"Velocity":59,"Duration":115837,"SoundDuration":115837,"Delta":83262197},{"NoteNumber":69,"Velocity":64,"Duration":112244,"SoundDuration":112244,"Delta":83367831},{"NoteNumber":57,"Velocity":57,"Duration":102040,"SoundDuration":102040,"Delta":83367831},{"NoteNumber":71,"Velocity":54,"Duration":112530,"SoundDuration":112530,"Delta":83469872},{"NoteNumber":73,"Velocity":57,"Duration":115384,"SoundDuration":115384,"Delta":83571913},{"NoteNumber":64,"Velocity":41,"Duration":104894,"SoundDuration":104894,"Delta":83571913},{"NoteNumber":61,"Velocity":35,"Duration":104894,"SoundDuration":104894,"Delta":83571913},{"NoteNumber":74,"Velocity":54,"Duration":115384,"SoundDuration":115384,"Delta":83676808},{"NoteNumber":76,"Velocity":64,"Duration":115384,"SoundDuration":115384,"Delta":83781703},{"NoteNumber":64,"Velocity":41,"Duration":104894,"SoundDuration":104894,"Delta":83781703},{"NoteNumber":61,"Velocity":35,"Duration":104894,"SoundDuration":104894,"Delta":83781703},{"NoteNumber":78,"Velocity":58,"Duration":116345,"SoundDuration":116345,"Delta":83886598},{"NoteNumber":80,"Velocity":60,"Duration":127215,"SoundDuration":127215,"Delta":83991493},{"NoteNumber":64,"Velocity":41,"Duration":114503,"SoundDuration":114503,"Delta":83991493},{"NoteNumber":61,"Velocity":35,"Duration":114503,"SoundDuration":114503,"Delta":83991493},{"NoteNumber":81,"Velocity":63,"Duration":127118,"SoundDuration":127118,"Delta":84105996},{"NoteNumber":82,"Velocity":75,"Duration":234375,"SoundDuration":234375,"Delta":84233115},{"NoteNumber":52,"Velocity":57,"Duration":234375,"SoundDuration":234375,"Delta":84233115},{"NoteNumber":83,"Velocity":69,"Duration":114583,"SoundDuration":114583,"Delta":84467490},{"NoteNumber":62,"Velocity":39,"Duration":104166,"SoundDuration":104166,"Delta":84467490},{"NoteNumber":56,"Velocity":33,"Duration":104166,"SoundDuration":104166,"Delta":84467490},{"NoteNumber":76,"Velocity":69,"Duration":114583,"SoundDuration":114583,"Delta":84675824},{"NoteNumber":56,"Velocity":33,"Duration":104166,"SoundDuration":104166,"Delta":84675824},{"NoteNumber":62,"Velocity":39,"Duration":104166,"SoundDuration":104166,"Delta":84675824},{"NoteNumber":74,"Velocity":59,"Duration":114656,"SoundDuration":114656,"Delta":84779990},{"NoteNumber":73,"Velocity":59,"Duration":115764,"SoundDuration":115764,"Delta":84884157},{"NoteNumber":56,"Velocity":33,"Duration":104894,"SoundDuration":104894,"Delta":84884157},{"NoteNumber":62,"Velocity":39,"Duration":104894,"SoundDuration":104894,"Delta":84884157},{"NoteNumber":71,"Velocity":59,"Duration":119410,"SoundDuration":119410,"Delta":84989052},{"NoteNumber":69,"Velocity":66,"Duration":117857,"SoundDuration":117857,"Delta":85097748},{"NoteNumber":57,"Velocity":57,"Duration":107142,"SoundDuration":107142,"Delta":85097748},{"NoteNumber":71,"Velocity":57,"Duration":117706,"SoundDuration":117706,"Delta":85204891},{"NoteNumber":73,"Velocity":57,"Duration":116197,"SoundDuration":116197,"Delta":85312033},{"NoteNumber":64,"Velocity":43,"Duration":105633,"SoundDuration":105633,"Delta":85312033},{"NoteNumber":61,"Velocity":36,"Duration":105633,"SoundDuration":105633,"Delta":85312033},{"NoteNumber":74,"Velocity":57,"Duration":116348,"SoundDuration":116348,"Delta":85417667},{"NoteNumber":76,"Velocity":64,"Duration":117857,"SoundDuration":117857,"Delta":85523301},{"NoteNumber":64,"Velocity":43,"Duration":107142,"SoundDuration":107142,"Delta":85523301},{"NoteNumber":61,"Velocity":36,"Duration":107142,"SoundDuration":107142,"Delta":85523301},{"NoteNumber":78,"Velocity":57,"Duration":117781,"SoundDuration":117781,"Delta":85630444},{"NoteNumber":80,"Velocity":56,"Duration":117021,"SoundDuration":117021,"Delta":85737586},{"NoteNumber":64,"Velocity":43,"Duration":106382,"SoundDuration":106382,"Delta":85737586},{"NoteNumber":61,"Velocity":36,"Duration":106382,"SoundDuration":106382,"Delta":85737586},{"NoteNumber":81,"Velocity":56,"Duration":101950,"SoundDuration":101950,"Delta":85843969},{"NoteNumber":81,"Velocity":66,"Duration":114583,"SoundDuration":114583,"Delta":85950352},{"NoteNumber":59,"Velocity":57,"Duration":104166,"SoundDuration":104166,"Delta":85950352},{"NoteNumber":80,"Velocity":57,"Duration":114656,"SoundDuration":114656,"Delta":86054519},{"NoteNumber":78,"Velocity":60,"Duration":115384,"SoundDuration":115384,"Delta":86158686},{"NoteNumber":64,"Velocity":42,"Duration":104894,"SoundDuration":104894,"Delta":86158686},{"NoteNumber":62,"Velocity":35,"Duration":104894,"SoundDuration":104894,"Delta":86158686},{"NoteNumber":76,"Velocity":57,"Duration":100524,"SoundDuration":100524,"Delta":86263581},{"NoteNumber":76,"Velocity":64,"Duration":115384,"SoundDuration":115384,"Delta":86368476},{"NoteNumber":56,"Velocity":57,"Duration":104894,"SoundDuration":104894,"Delta":86368476},{"NoteNumber":74,"Velocity":59,"Duration":115458,"SoundDuration":115458,"Delta":86473371},{"NoteNumber":73,"Velocity":59,"Duration":116197,"SoundDuration":116197,"Delta":86578266},{"NoteNumber":64,"Velocity":42,"Duration":105633,"SoundDuration":105633,"Delta":86578266},{"NoteNumber":62,"Velocity":35,"Duration":105633,"SoundDuration":105633,"Delta":86578266},{"NoteNumber":71,"Velocity":59,"Duration":115837,"SoundDuration":115837,"Delta":86683900},{"NoteNumber":73,"Velocity":64,"Duration":112244,"SoundDuration":112244,"Delta":86789533},{"NoteNumber":57,"Velocity":57,"Duration":102040,"SoundDuration":102040,"Delta":86789533},{"NoteNumber":76,"Velocity":54,"Duration":112530,"SoundDuration":112530,"Delta":86891574},{"NoteNumber":69,"Velocity":57,"Duration":115384,"SoundDuration":115384,"Delta":86993615},{"NoteNumber":54,"Velocity":46,"Duration":104894,"SoundDuration":104894,"Delta":86993615},{"NoteNumber":73,"Velocity":54,"Duration":115168,"SoundDuration":115168,"Delta":87098510},{"NoteNumber":71,"Velocity":64,"Duration":113013,"SoundDuration":113013,"Delta":87203405},{"NoteNumber":50,"Velocity":46,"Duration":102739,"SoundDuration":102739,"Delta":87203405},{"NoteNumber":74,"Velocity":58,"Duration":113688,"SoundDuration":113688,"Delta":87306145},{"NoteNumber":68,"Velocity":60,"Duration":120437,"SoundDuration":120437,"Delta":87408884},{"NoteNumber":52,"Velocity":46,"Duration":109488,"SoundDuration":109488,"Delta":87408884},{"NoteNumber":71,"Velocity":55,"Duration":109489,"SoundDuration":109489,"Delta":87518373},{"NoteNumber":69,"Velocity":66,"Duration":328501,"SoundDuration":328501,"Delta":87627862},{"NoteNumber":45,"Velocity":57,"Duration":220588,"SoundDuration":220588,"Delta":87627862},{"NoteNumber":57,"Velocity":44,"Duration":107913,"SoundDuration":107913,"Delta":87848450},{"NoteNumber":85,"Velocity":60,"Duration":124252,"SoundDuration":124252,"Delta":88065616},{"NoteNumber":86,"Velocity":52,"Duration":112075,"SoundDuration":112075,"Delta":88179498},{"NoteNumber":85,"Velocity":52,"Duration":115764,"SoundDuration":115764,"Delta":88281084},{"NoteNumber":83,"Velocity":52,"Duration":119334,"SoundDuration":119334,"Delta":88385979},{"NoteNumber":81,"Velocity":58,"Duration":117021,"SoundDuration":117021,"Delta":88494675},{"NoteNumber":52,"Velocity":50,"Duration":106382,"SoundDuration":106382,"Delta":88494675},{"NoteNumber":83,"Velocity":50,"Duration":116946,"SoundDuration":116946,"Delta":88601058},{"NoteNumber":81,"Velocity":50,"Duration":116197,"SoundDuration":116197,"Delta":88707441},{"NoteNumber":61,"Velocity":42,"Duration":105633,"SoundDuration":105633,"Delta":88707441},{"NoteNumber":57,"Velocity":35,"Duration":105633,"SoundDuration":105633,"Delta":88707441},{"NoteNumber":80,"Velocity":50,"Duration":116197,"SoundDuration":116197,"Delta":88813075},{"NoteNumber":78,"Velocity":56,"Duration":116197,"SoundDuration":116197,"Delta":88918708},{"NoteNumber":61,"Velocity":42,"Duration":105633,"SoundDuration":105633,"Delta":88918708},{"NoteNumber":57,"Velocity":35,"Duration":105633,"SoundDuration":105633,"Delta":88918708},{"NoteNumber":81,"Velocity":50,"Duration":116272,"SoundDuration":116272,"Delta":89024342},{"NoteNumber":80,"Velocity":46,"Duration":117021,"SoundDuration":117021,"Delta":89129976},{"NoteNumber":61,"Velocity":42,"Duration":106382,"SoundDuration":106382,"Delta":89129976},{"NoteNumber":57,"Velocity":35,"Duration":106382,"SoundDuration":106382,"Delta":89129976},{"NoteNumber":78,"Velocity":46,"Duration":116946,"SoundDuration":116946,"Delta":89236359},{"NoteNumber":77,"Velocity":58,"Duration":116197,"SoundDuration":116197,"Delta":89342742},{"NoteNumber":56,"Velocity":50,"Duration":105633,"SoundDuration":105633,"Delta":89342742},{"NoteNumber":78,"Velocity":47,"Duration":116123,"SoundDuration":116123,"Delta":89448376},{"NoteNumber":80,"Velocity":49,"Duration":115384,"SoundDuration":115384,"Delta":89554009},{"NoteNumber":61,"Velocity":41,"Duration":104894,"SoundDuration":104894,"Delta":89554009},{"NoteNumber":59,"Velocity":34,"Duration":104894,"SoundDuration":104894,"Delta":89554009},{"NoteNumber":77,"Velocity":46,"Duration":115384,"SoundDuration":115384,"Delta":89658904},{"NoteNumber":73,"Velocity":56,"Duration":115384,"SoundDuration":115384,"Delta":89763799},{"NoteNumber":61,"Velocity":41,"Duration":104894,"SoundDuration":104894,"Delta":89763799},{"NoteNumber":59,"Velocity":34,"Duration":104894,"SoundDuration":104894,"Delta":89763799},{"NoteNumber":75,"Velocity":47,"Duration":115458,"SoundDuration":115458,"Delta":89868694},{"NoteNumber":77,"Velocity":50,"Duration":116197,"SoundDuration":116197,"Delta":89973589},{"NoteNumber":61,"Velocity":41,"Duration":105633,"SoundDuration":105633,"Delta":89973589},{"NoteNumber":59,"Velocity":34,"Duration":105633,"SoundDuration":105633,"Delta":89973589},{"NoteNumber":73,"Velocity":47,"Duration":116425,"SoundDuration":116425,"Delta":90079223},{"NoteNumber":78,"Velocity":56,"Duration":118705,"SoundDuration":118705,"Delta":90184857},{"NoteNumber":54,"Velocity":50,"Duration":107913,"SoundDuration":107913,"Delta":90184857},{"NoteNumber":77,"Velocity":47,"Duration":118403,"SoundDuration":118403,"Delta":90292771},{"NoteNumber":78,"Velocity":50,"Duration":115384,"SoundDuration":115384,"Delta":90400684},{"NoteNumber":61,"Velocity":40,"Duration":104894,"SoundDuration":104894,"Delta":90400684},{"NoteNumber":57,"Velocity":34,"Duration":104894,"SoundDuration":104894,"Delta":90400684},{"NoteNumber":80,"Velocity":47,"Duration":115384,"SoundDuration":115384,"Delta":90505579},{"NoteNumber":81,"Velocity":56,"Duration":115384,"SoundDuration":115384,"Delta":90610474},{"NoteNumber":61,"Velocity":40,"Duration":104894,"SoundDuration":104894,"Delta":90610474},{"NoteNumber":57,"Velocity":34,"Duration":104894,"SoundDuration":104894,"Delta":90610474},{"NoteNumber":80,"Velocity":51,"Duration":115458,"SoundDuration":115458,"Delta":90715369},{"NoteNumber":81,"Velocity":53,"Duration":116197,"SoundDuration":116197,"Delta":90820264},{"NoteNumber":61,"Velocity":40,"Duration":105633,"SoundDuration":105633,"Delta":90820264},{"NoteNumber":57,"Velocity":34,"Duration":105633,"SoundDuration":105633,"Delta":90820264},{"NoteNumber":83,"Velocity":55,"Duration":116050,"SoundDuration":116050,"Delta":90925898},{"NoteNumber":85,"Velocity":62,"Duration":114583,"SoundDuration":114583,"Delta":91031532},{"NoteNumber":49,"Velocity":50,"Duration":104166,"SoundDuration":104166,"Delta":91031532},{"NoteNumber":84,"Velocity":57,"Duration":114583,"SoundDuration":114583,"Delta":91135699},{"NoteNumber":85,"Velocity":60,"Duration":114583,"SoundDuration":114583,"Delta":91239865},{"NoteNumber":61,"Velocity":49,"Duration":104166,"SoundDuration":104166,"Delta":91239865},{"NoteNumber":56,"Velocity":41,"Duration":104166,"SoundDuration":104166,"Delta":91239865},{"NoteNumber":84,"Velocity":54,"Duration":104166,"SoundDuration":104166,"Delta":91344032},{"NoteNumber":85,"Velocity":62,"Duration":114583,"SoundDuration":114583,"Delta":91448199},{"NoteNumber":61,"Velocity":48,"Duration":104166,"SoundDuration":104166,"Delta":91448199},{"NoteNumber":55,"Velocity":40,"Duration":104166,"SoundDuration":104166,"Delta":91448199},{"NoteNumber":86,"Velocity":56,"Duration":114805,"SoundDuration":114805,"Delta":91552366},{"NoteNumber":85,"Velocity":65,"Duration":117021,"SoundDuration":117021,"Delta":91656532},{"NoteNumber":61,"Velocity":48,"Duration":106382,"SoundDuration":106382,"Delta":91656532},{"NoteNumber":54,"Velocity":40,"Duration":106382,"SoundDuration":106382,"Delta":91656532},{"NoteNumber":82,"Velocity":60,"Duration":117097,"SoundDuration":117097,"Delta":91762915},{"NoteNumber":86,"Velocity":69,"Duration":117857,"SoundDuration":117857,"Delta":91869298},{"NoteNumber":47,"Velocity":59,"Duration":107142,"SoundDuration":107142,"Delta":91869298},{"NoteNumber":85,"Velocity":63,"Duration":117632,"SoundDuration":117632,"Delta":91976441},{"NoteNumber":86,"Velocity":69,"Duration":115384,"SoundDuration":115384,"Delta":92083584},{"NoteNumber":59,"Velocity":53,"Duration":104894,"SoundDuration":104894,"Delta":92083584},{"NoteNumber":54,"Velocity":45,"Duration":104894,"SoundDuration":104894,"Delta":92083584},{"NoteNumber":85,"Velocity":64,"Duration":115384,"SoundDuration":115384,"Delta":92188479},{"NoteNumber":86,"Velocity":68,"Duration":115384,"SoundDuration":115384,"Delta":92293374},{"NoteNumber":59,"Velocity":56,"Duration":104894,"SoundDuration":104894,"Delta":92293374},{"NoteNumber":54,"Velocity":47,"Duration":104894,"SoundDuration":104894,"Delta":92293374},{"NoteNumber":85,"Velocity":66,"Duration":115533,"SoundDuration":115533,"Delta":92398269},{"NoteNumber":86,"Velocity":72,"Duration":117021,"SoundDuration":117021,"Delta":92503164},{"NoteNumber":59,"Velocity":54,"Duration":106382,"SoundDuration":106382,"Delta":92503164},{"NoteNumber":54,"Velocity":45,"Duration":106382,"SoundDuration":106382,"Delta":92503164},{"NoteNumber":85,"Velocity":68,"Duration":117021,"SoundDuration":117021,"Delta":92609547},{"NoteNumber":86,"Velocity":70,"Duration":117021,"SoundDuration":117021,"Delta":92715930},{"NoteNumber":47,"Velocity":65,"Duration":106382,"SoundDuration":106382,"Delta":92715930},{"NoteNumber":85,"Velocity":69,"Duration":116799,"SoundDuration":116799,"Delta":92822313},{"NoteNumber":83,"Velocity":67,"Duration":114583,"SoundDuration":114583,"Delta":92928696},{"NoteNumber":59,"Velocity":54,"Duration":104166,"SoundDuration":104166,"Delta":92928696},{"NoteNumber":56,"Velocity":45,"Duration":104166,"SoundDuration":104166,"Delta":92928696},{"NoteNumber":81,"Velocity":66,"Duration":114583,"SoundDuration":114583,"Delta":93032863},{"NoteNumber":80,"Velocity":64,"Duration":114583,"SoundDuration":114583,"Delta":93137029},{"NoteNumber":59,"Velocity":60,"Duration":104166,"SoundDuration":104166,"Delta":93137029},{"NoteNumber":56,"Velocity":51,"Duration":104166,"SoundDuration":104166,"Delta":93137029},{"NoteNumber":81,"Velocity":61,"Duration":114881,"SoundDuration":114881,"Delta":93241196},{"NoteNumber":83,"Velocity":64,"Duration":117857,"SoundDuration":117857,"Delta":93345363},{"NoteNumber":59,"Velocity":54,"Duration":107142,"SoundDuration":107142,"Delta":93345363},{"NoteNumber":56,"Velocity":45,"Duration":107142,"SoundDuration":107142,"Delta":93345363},{"NoteNumber":80,"Velocity":61,"Duration":117559,"SoundDuration":117559,"Delta":93452506},{"NoteNumber":81,"Velocity":57,"Duration":114583,"SoundDuration":114583,"Delta":93559648},{"NoteNumber":49,"Velocity":58,"Duration":104166,"SoundDuration":104166,"Delta":93559648},{"NoteNumber":83,"Velocity":49,"Duration":114656,"SoundDuration":114656,"Delta":93663815},{"NoteNumber":85,"Velocity":55,"Duration":115384,"SoundDuration":115384,"Delta":93767982},{"NoteNumber":57,"Velocity":47,"Duration":104894,"SoundDuration":104894,"Delta":93767982},{"NoteNumber":54,"Velocity":39,"Duration":104894,"SoundDuration":104894,"Delta":93767982},{"NoteNumber":78,"Velocity":50,"Duration":115384,"SoundDuration":115384,"Delta":93872877},{"NoteNumber":77,"Velocity":53,"Duration":116624,"SoundDuration":116624,"Delta":93977772},{"NoteNumber":49,"Velocity":55,"Duration":105986,"SoundDuration":105986,"Delta":93977772},{"NoteNumber":78,"Velocity":47,"Duration":117681,"SoundDuration":117681,"Delta":94083758},{"NoteNumber":80,"Velocity":54,"Duration":121190,"SoundDuration":121190,"Delta":94190648},{"NoteNumber":56,"Velocity":41,"Duration":108369,"SoundDuration":108369,"Delta":94190648},{"NoteNumber":59,"Velocity":49,"Duration":108369,"SoundDuration":108369,"Delta":94190648},{"NoteNumber":77,"Velocity":47,"Duration":140601,"SoundDuration":140601,"Delta":94299018},{"NoteNumber":78,"Velocity":54,"Duration":464876,"SoundDuration":464876,"Delta":94427223},{"NoteNumber":57,"Velocity":46,"Duration":464876,"SoundDuration":464876,"Delta":94427223},{"NoteNumber":54,"Velocity":39,"Duration":464876,"SoundDuration":464876,"Delta":94427223},{"NoteNumber":69,"Velocity":73,"Duration":107142,"SoundDuration":107142,"Delta":94923091},{"NoteNumber":81,"Velocity":84,"Duration":107142,"SoundDuration":107142,"Delta":94923091},{"NoteNumber":71,"Velocity":73,"Duration":107913,"SoundDuration":107913,"Delta":95137377},{"NoteNumber":83,"Velocity":84,"Duration":107913,"SoundDuration":107913,"Delta":95137377},{"NoteNumber":45,"Velocity":64,"Duration":35971,"SoundDuration":35971,"Delta":95245291},{"NoteNumber":49,"Velocity":64,"Duration":35971,"SoundDuration":35971,"Delta":95281262},{"NoteNumber":52,"Velocity":64,"Duration":35971,"SoundDuration":35971,"Delta":95317233},{"NoteNumber":73,"Velocity":78,"Duration":415349,"SoundDuration":415349,"Delta":95353204},{"NoteNumber":85,"Velocity":90,"Duration":415349,"SoundDuration":415349,"Delta":95353204},{"NoteNumber":57,"Velocity":73,"Duration":102040,"SoundDuration":102040,"Delta":95353204},{"NoteNumber":57,"Velocity":69,"Duration":105633,"SoundDuration":105633,"Delta":95557286},{"NoteNumber":69,"Velocity":73,"Duration":103448,"SoundDuration":103448,"Delta":95768553},{"NoteNumber":81,"Velocity":84,"Duration":103448,"SoundDuration":103448,"Delta":95768553},{"NoteNumber":57,"Velocity":69,"Duration":103448,"SoundDuration":103448,"Delta":95768553},{"NoteNumber":71,"Velocity":73,"Duration":105633,"SoundDuration":105633,"Delta":95975450},{"NoteNumber":83,"Velocity":84,"Duration":105633,"SoundDuration":105633,"Delta":95975450},{"NoteNumber":57,"Velocity":69,"Duration":105633,"SoundDuration":105633,"Delta":95975450},{"NoteNumber":45,"Velocity":60,"Duration":35211,"SoundDuration":35211,"Delta":96081084},{"NoteNumber":49,"Velocity":60,"Duration":35211,"SoundDuration":35211,"Delta":96116295},{"NoteNumber":52,"Velocity":60,"Duration":35211,"SoundDuration":35211,"Delta":96151506},{"NoteNumber":73,"Velocity":79,"Duration":102040,"SoundDuration":102040,"Delta":96186717},{"NoteNumber":85,"Velocity":91,"Duration":102040,"SoundDuration":102040,"Delta":96186717},{"NoteNumber":57,"Velocity":72,"Duration":102040,"SoundDuration":102040,"Delta":96186717},{"NoteNumber":71,"Velocity":72,"Duration":102739,"SoundDuration":102739,"Delta":96390799},{"NoteNumber":83,"Velocity":82,"Duration":102739,"SoundDuration":102739,"Delta":96390799},{"NoteNumber":57,"Velocity":64,"Duration":102739,"SoundDuration":102739,"Delta":96390799},{"NoteNumber":69,"Velocity":77,"Duration":102739,"SoundDuration":102739,"Delta":96596278},{"NoteNumber":81,"Velocity":89,"Duration":102739,"SoundDuration":102739,"Delta":96596278},{"NoteNumber":57,"Velocity":65,"Duration":102739,"SoundDuration":102739,"Delta":96596278},{"NoteNumber":68,"Velocity":73,"Duration":111940,"SoundDuration":111940,"Delta":96801758},{"NoteNumber":80,"Velocity":84,"Duration":111940,"SoundDuration":111940,"Delta":96801758},{"NoteNumber":57,"Velocity":67,"Duration":111940,"SoundDuration":111940,"Delta":96801758},{"NoteNumber":38,"Velocity":63,"Duration":37313,"SoundDuration":37313,"Delta":96913698},{"NoteNumber":42,"Velocity":63,"Duration":37313,"SoundDuration":37313,"Delta":96951012},{"NoteNumber":45,"Velocity":63,"Duration":37313,"SoundDuration":37313,"Delta":96988325},{"NoteNumber":66,"Velocity":80,"Duration":102739,"SoundDuration":102739,"Delta":97025638},{"NoteNumber":78,"Velocity":92,"Duration":102739,"SoundDuration":102739,"Delta":97025638},{"NoteNumber":50,"Velocity":73,"Duration":102739,"SoundDuration":102739,"Delta":97025638},{"NoteNumber":68,"Velocity":69,"Duration":104894,"SoundDuration":104894,"Delta":97231118},{"NoteNumber":80,"Velocity":78,"Duration":104894,"SoundDuration":104894,"Delta":97231118},{"NoteNumber":50,"Velocity":69,"Duration":104894,"SoundDuration":104894,"Delta":97231118},{"NoteNumber":39,"Velocity":63,"Duration":34964,"SoundDuration":34964,"Delta":97336013},{"NoteNumber":42,"Velocity":63,"Duration":34964,"SoundDuration":34964,"Delta":97370978},{"NoteNumber":45,"Velocity":63,"Duration":34964,"SoundDuration":34964,"Delta":97405943},{"NoteNumber":69,"Velocity":75,"Duration":106382,"SoundDuration":106382,"Delta":97440908},{"NoteNumber":81,"Velocity":86,"Duration":106382,"SoundDuration":106382,"Delta":97440908},{"NoteNumber":51,"Velocity":73,"Duration":106382,"SoundDuration":106382,"Delta":97440908},{"NoteNumber":71,"Velocity":70,"Duration":111940,"SoundDuration":111940,"Delta":97653674},{"NoteNumber":83,"Velocity":80,"Duration":111940,"SoundDuration":111940,"Delta":97653674},{"NoteNumber":51,"Velocity":71,"Duration":111940,"SoundDuration":111940,"Delta":97653674},{"NoteNumber":40,"Velocity":63,"Duration":37313,"SoundDuration":37313,"Delta":97765614},{"NoteNumber":44,"Velocity":63,"Duration":37313,"SoundDuration":37313,"Delta":97802928},{"NoteNumber":47,"Velocity":63,"Duration":37313,"SoundDuration":37313,"Delta":97840241},{"NoteNumber":68,"Velocity":78,"Duration":212766,"SoundDuration":212766,"Delta":97877554},{"NoteNumber":80,"Velocity":90,"Duration":212766,"SoundDuration":212766,"Delta":97877554},{"NoteNumber":52,"Velocity":73,"Duration":212766,"SoundDuration":212766,"Delta":97877554},{"NoteNumber":64,"Velocity":73,"Duration":113636,"SoundDuration":113636,"Delta":98090320},{"NoteNumber":76,"Velocity":84,"Duration":113636,"SoundDuration":113636,"Delta":98090320},{"NoteNumber":52,"Velocity":73,"Duration":113636,"SoundDuration":113636,"Delta":98090320},{"NoteNumber":69,"Velocity":73,"Duration":106382,"SoundDuration":106382,"Delta":98317593},{"NoteNumber":81,"Velocity":84,"Duration":106382,"SoundDuration":106382,"Delta":98317593},{"NoteNumber":71,"Velocity":73,"Duration":104894,"SoundDuration":104894,"Delta":98530359},{"NoteNumber":83,"Velocity":84,"Duration":104894,"SoundDuration":104894,"Delta":98530359},{"NoteNumber":45,"Velocity":64,"Duration":34964,"SoundDuration":34964,"Delta":98635254},{"NoteNumber":49,"Velocity":64,"Duration":34964,"SoundDuration":34964,"Delta":98670219},{"NoteNumber":52,"Velocity":64,"Duration":34964,"SoundDuration":34964,"Delta":98705184},{"NoteNumber":73,"Velocity":78,"Duration":413871,"SoundDuration":413871,"Delta":98740149},{"NoteNumber":85,"Velocity":90,"Duration":413871,"SoundDuration":413871,"Delta":98740149},{"NoteNumber":57,"Velocity":73,"Duration":102040,"SoundDuration":102040,"Delta":98740149},{"NoteNumber":57,"Velocity":69,"Duration":104894,"SoundDuration":104894,"Delta":98944230},{"NoteNumber":69,"Velocity":73,"Duration":102040,"SoundDuration":102040,"Delta":99154020},{"NoteNumber":81,"Velocity":84,"Duration":102040,"SoundDuration":102040,"Delta":99154020},{"NoteNumber":57,"Velocity":69,"Duration":102040,"SoundDuration":102040,"Delta":99154020},{"NoteNumber":71,"Velocity":73,"Duration":105633,"SoundDuration":105633,"Delta":99358102},{"NoteNumber":83,"Velocity":84,"Duration":105633,"SoundDuration":105633,"Delta":99358102},{"NoteNumber":57,"Velocity":69,"Duration":105633,"SoundDuration":105633,"Delta":99358102},{"NoteNumber":45,"Velocity":60,"Duration":35211,"SoundDuration":35211,"Delta":99463736},{"NoteNumber":49,"Velocity":60,"Duration":35211,"SoundDuration":35211,"Delta":99498947},{"NoteNumber":52,"Velocity":60,"Duration":35211,"SoundDuration":35211,"Delta":99534158},{"NoteNumber":73,"Velocity":79,"Duration":102739,"SoundDuration":102739,"Delta":99569369},{"NoteNumber":85,"Velocity":91,"Duration":102739,"SoundDuration":102739,"Delta":99569369},{"NoteNumber":57,"Velocity":72,"Duration":102739,"SoundDuration":102739,"Delta":99569369},{"NoteNumber":71,"Velocity":72,"Duration":103448,"SoundDuration":103448,"Delta":99774849},{"NoteNumber":83,"Velocity":82,"Duration":103448,"SoundDuration":103448,"Delta":99774849},{"NoteNumber":57,"Velocity":64,"Duration":103448,"SoundDuration":103448,"Delta":99774849},{"NoteNumber":69,"Velocity":77,"Duration":104166,"SoundDuration":104166,"Delta":99981745},{"NoteNumber":81,"Velocity":89,"Duration":104166,"SoundDuration":104166,"Delta":99981745},{"NoteNumber":57,"Velocity":65,"Duration":104166,"SoundDuration":104166,"Delta":99981745},{"NoteNumber":68,"Velocity":73,"Duration":108695,"SoundDuration":108695,"Delta":100190079},{"NoteNumber":80,"Velocity":84,"Duration":108695,"SoundDuration":108695,"Delta":100190079},{"NoteNumber":57,"Velocity":67,"Duration":108695,"SoundDuration":108695,"Delta":100190079},{"NoteNumber":38,"Velocity":63,"Duration":36231,"SoundDuration":36231,"Delta":100298775},{"NoteNumber":42,"Velocity":63,"Duration":36231,"SoundDuration":36231,"Delta":100335007},{"NoteNumber":45,"Velocity":63,"Duration":36231,"SoundDuration":36231,"Delta":100371238},{"NoteNumber":66,"Velocity":80,"Duration":103448,"SoundDuration":103448,"Delta":100407470},{"NoteNumber":78,"Velocity":92,"Duration":103448,"SoundDuration":103448,"Delta":100407470},{"NoteNumber":50,"Velocity":73,"Duration":103448,"SoundDuration":103448,"Delta":100407470},{"NoteNumber":71,"Velocity":69,"Duration":108695,"SoundDuration":108695,"Delta":100614367},{"NoteNumber":83,"Velocity":78,"Duration":108695,"SoundDuration":108695,"Delta":100614367},{"NoteNumber":50,"Velocity":69,"Duration":108695,"SoundDuration":108695,"Delta":100614367},{"NoteNumber":40,"Velocity":63,"Duration":36231,"SoundDuration":36231,"Delta":100723063},{"NoteNumber":44,"Velocity":63,"Duration":36231,"SoundDuration":36231,"Delta":100759295},{"NoteNumber":47,"Velocity":63,"Duration":36231,"SoundDuration":36231,"Delta":100795526},{"NoteNumber":68,"Velocity":75,"Duration":112781,"SoundDuration":112781,"Delta":100831758},{"NoteNumber":80,"Velocity":86,"Duration":112781,"SoundDuration":112781,"Delta":100831758},{"NoteNumber":52,"Velocity":73,"Duration":112781,"SoundDuration":112781,"Delta":100831758},{"NoteNumber":64,"Velocity":70,"Duration":116279,"SoundDuration":116279,"Delta":101057322},{"NoteNumber":76,"Velocity":80,"Duration":116279,"SoundDuration":116279,"Delta":101057322},{"NoteNumber":52,"Velocity":71,"Duration":116279,"SoundDuration":116279,"Delta":101057322},{"NoteNumber":69,"Velocity":78,"Duration":422932,"SoundDuration":422932,"Delta":101289880},{"NoteNumber":81,"Velocity":90,"Duration":422932,"SoundDuration":422932,"Delta":101289880},{"NoteNumber":45,"Velocity":73,"Duration":422932,"SoundDuration":422932,"Delta":101289880},{"NoteNumber":69,"Velocity":73,"Duration":104894,"SoundDuration":104894,"Delta":101741008},{"NoteNumber":81,"Velocity":84,"Duration":104894,"SoundDuration":104894,"Delta":101741008},{"NoteNumber":71,"Velocity":73,"Duration":107913,"SoundDuration":107913,"Delta":101950798},{"NoteNumber":83,"Velocity":84,"Duration":107913,"SoundDuration":107913,"Delta":101950798},{"NoteNumber":45,"Velocity":64,"Duration":35971,"SoundDuration":35971,"Delta":102058712},{"NoteNumber":49,"Velocity":64,"Duration":35971,"SoundDuration":35971,"Delta":102094683},{"NoteNumber":52,"Velocity":64,"Duration":35971,"SoundDuration":35971,"Delta":102130655},{"NoteNumber":73,"Velocity":78,"Duration":415349,"SoundDuration":415349,"Delta":102166626},{"NoteNumber":85,"Velocity":90,"Duration":415349,"SoundDuration":415349,"Delta":102166626},{"NoteNumber":57,"Velocity":73,"Duration":102040,"SoundDuration":102040,"Delta":102166626},{"NoteNumber":57,"Velocity":69,"Duration":105633,"SoundDuration":105633,"Delta":102370707},{"NoteNumber":69,"Velocity":73,"Duration":103448,"SoundDuration":103448,"Delta":102581975},{"NoteNumber":81,"Velocity":84,"Duration":103448,"SoundDuration":103448,"Delta":102581975},{"NoteNumber":57,"Velocity":69,"Duration":103448,"SoundDuration":103448,"Delta":102581975},{"NoteNumber":71,"Velocity":73,"Duration":106382,"SoundDuration":106382,"Delta":102788871},{"NoteNumber":83,"Velocity":84,"Duration":106382,"SoundDuration":106382,"Delta":102788871},{"NoteNumber":57,"Velocity":69,"Duration":106382,"SoundDuration":106382,"Delta":102788871},{"NoteNumber":45,"Velocity":60,"Duration":35461,"SoundDuration":35461,"Delta":102895254},{"NoteNumber":49,"Velocity":60,"Duration":35460,"SoundDuration":35460,"Delta":102930715},{"NoteNumber":52,"Velocity":60,"Duration":35460,"SoundDuration":35460,"Delta":102966176},{"NoteNumber":73,"Velocity":79,"Duration":102040,"SoundDuration":102040,"Delta":103001637},{"NoteNumber":85,"Velocity":91,"Duration":102040,"SoundDuration":102040,"Delta":103001637},{"NoteNumber":57,"Velocity":72,"Duration":102040,"SoundDuration":102040,"Delta":103001637},{"NoteNumber":71,"Velocity":72,"Duration":104894,"SoundDuration":104894,"Delta":103205719},{"NoteNumber":83,"Velocity":82,"Duration":104894,"SoundDuration":104894,"Delta":103205719},{"NoteNumber":57,"Velocity":64,"Duration":104894,"SoundDuration":104894,"Delta":103205719},{"NoteNumber":69,"Velocity":77,"Duration":102739,"SoundDuration":102739,"Delta":103415509},{"NoteNumber":81,"Velocity":89,"Duration":102739,"SoundDuration":102739,"Delta":103415509},{"NoteNumber":57,"Velocity":65,"Duration":102739,"SoundDuration":102739,"Delta":103415509},{"NoteNumber":68,"Velocity":73,"Duration":107142,"SoundDuration":107142,"Delta":103620988},{"NoteNumber":80,"Velocity":84,"Duration":107142,"SoundDuration":107142,"Delta":103620988},{"NoteNumber":57,"Velocity":67,"Duration":107142,"SoundDuration":107142,"Delta":103620988},{"NoteNumber":38,"Velocity":63,"Duration":35714,"SoundDuration":35714,"Delta":103728131},{"NoteNumber":42,"Velocity":63,"Duration":35714,"SoundDuration":35714,"Delta":103763845},{"NoteNumber":45,"Velocity":63,"Duration":35714,"SoundDuration":35714,"Delta":103799560},{"NoteNumber":66,"Velocity":80,"Duration":102739,"SoundDuration":102739,"Delta":103835274},{"NoteNumber":78,"Velocity":92,"Duration":102739,"SoundDuration":102739,"Delta":103835274},{"NoteNumber":50,"Velocity":73,"Duration":102739,"SoundDuration":102739,"Delta":103835274},{"NoteNumber":68,"Velocity":69,"Duration":107913,"SoundDuration":107913,"Delta":104040753},{"NoteNumber":80,"Velocity":78,"Duration":107913,"SoundDuration":107913,"Delta":104040753},{"NoteNumber":50,"Velocity":69,"Duration":107913,"SoundDuration":107913,"Delta":104040753},{"NoteNumber":39,"Velocity":63,"Duration":35971,"SoundDuration":35971,"Delta":104148667},{"NoteNumber":42,"Velocity":63,"Duration":35971,"SoundDuration":35971,"Delta":104184638},{"NoteNumber":45,"Velocity":63,"Duration":35971,"SoundDuration":35971,"Delta":104220610},{"NoteNumber":69,"Velocity":75,"Duration":107913,"SoundDuration":107913,"Delta":104256581},{"NoteNumber":81,"Velocity":86,"Duration":107913,"SoundDuration":107913,"Delta":104256581},{"NoteNumber":51,"Velocity":73,"Duration":107913,"SoundDuration":107913,"Delta":104256581},{"NoteNumber":71,"Velocity":70,"Duration":111940,"SoundDuration":111940,"Delta":104472408},{"NoteNumber":83,"Velocity":80,"Duration":111940,"SoundDuration":111940,"Delta":104472408},{"NoteNumber":51,"Velocity":71,"Duration":111940,"SoundDuration":111940,"Delta":104472408},{"NoteNumber":40,"Velocity":63,"Duration":37313,"SoundDuration":37313,"Delta":104584349},{"NoteNumber":44,"Velocity":63,"Duration":37313,"SoundDuration":37313,"Delta":104621662},{"NoteNumber":47,"Velocity":63,"Duration":37313,"SoundDuration":37313,"Delta":104658975},{"NoteNumber":68,"Velocity":78,"Duration":212766,"SoundDuration":212766,"Delta":104696289},{"NoteNumber":80,"Velocity":90,"Duration":212766,"SoundDuration":212766,"Delta":104696289},{"NoteNumber":52,"Velocity":73,"Duration":212766,"SoundDuration":212766,"Delta":104696289},{"NoteNumber":64,"Velocity":73,"Duration":113636,"SoundDuration":113636,"Delta":104909055},{"NoteNumber":76,"Velocity":84,"Duration":113636,"SoundDuration":113636,"Delta":104909055},{"NoteNumber":52,"Velocity":73,"Duration":113636,"SoundDuration":113636,"Delta":104909055},{"NoteNumber":69,"Velocity":73,"Duration":104166,"SoundDuration":104166,"Delta":105136327},{"NoteNumber":81,"Velocity":84,"Duration":104166,"SoundDuration":104166,"Delta":105136327},{"NoteNumber":71,"Velocity":73,"Duration":104894,"SoundDuration":104894,"Delta":105344661},{"NoteNumber":83,"Velocity":84,"Duration":104894,"SoundDuration":104894,"Delta":105344661},{"NoteNumber":45,"Velocity":64,"Duration":34964,"SoundDuration":34964,"Delta":105449556},{"NoteNumber":49,"Velocity":64,"Duration":34964,"SoundDuration":34964,"Delta":105484521},{"NoteNumber":52,"Velocity":64,"Duration":34964,"SoundDuration":34964,"Delta":105519486},{"NoteNumber":73,"Velocity":78,"Duration":413871,"SoundDuration":413871,"Delta":105554451},{"NoteNumber":85,"Velocity":90,"Duration":413871,"SoundDuration":413871,"Delta":105554451},{"NoteNumber":57,"Velocity":73,"Duration":102040,"SoundDuration":102040,"Delta":105554451},{"NoteNumber":57,"Velocity":69,"Duration":104894,"SoundDuration":104894,"Delta":105758532},{"NoteNumber":69,"Velocity":73,"Duration":102040,"SoundDuration":102040,"Delta":105968322},{"NoteNumber":81,"Velocity":84,"Duration":102040,"SoundDuration":102040,"Delta":105968322},{"NoteNumber":57,"Velocity":69,"Duration":102040,"SoundDuration":102040,"Delta":105968322},{"NoteNumber":71,"Velocity":73,"Duration":107913,"SoundDuration":107913,"Delta":106172404},{"NoteNumber":83,"Velocity":84,"Duration":107913,"SoundDuration":107913,"Delta":106172404},{"NoteNumber":57,"Velocity":69,"Duration":107913,"SoundDuration":107913,"Delta":106172404},{"NoteNumber":45,"Velocity":60,"Duration":35971,"SoundDuration":35971,"Delta":106280318},{"NoteNumber":49,"Velocity":60,"Duration":35971,"SoundDuration":35971,"Delta":106316289},{"NoteNumber":52,"Velocity":60,"Duration":35971,"SoundDuration":35971,"Delta":106352260},{"NoteNumber":73,"Velocity":79,"Duration":102739,"SoundDuration":102739,"Delta":106388231},{"NoteNumber":85,"Velocity":91,"Duration":102739,"SoundDuration":102739,"Delta":106388231},{"NoteNumber":57,"Velocity":72,"Duration":102739,"SoundDuration":102739,"Delta":106388231},{"NoteNumber":71,"Velocity":72,"Duration":103448,"SoundDuration":103448,"Delta":106593711},{"NoteNumber":83,"Velocity":82,"Duration":103448,"SoundDuration":103448,"Delta":106593711},{"NoteNumber":57,"Velocity":64,"Duration":103448,"SoundDuration":103448,"Delta":106593711},{"NoteNumber":69,"Velocity":77,"Duration":104166,"SoundDuration":104166,"Delta":106800607},{"NoteNumber":81,"Velocity":89,"Duration":104166,"SoundDuration":104166,"Delta":106800607},{"NoteNumber":57,"Velocity":65,"Duration":104166,"SoundDuration":104166,"Delta":106800607},{"NoteNumber":68,"Velocity":73,"Duration":108695,"SoundDuration":108695,"Delta":107008941},{"NoteNumber":80,"Velocity":84,"Duration":108695,"SoundDuration":108695,"Delta":107008941},{"NoteNumber":57,"Velocity":67,"Duration":108695,"SoundDuration":108695,"Delta":107008941},{"NoteNumber":38,"Velocity":63,"Duration":36231,"SoundDuration":36231,"Delta":107117637},{"NoteNumber":42,"Velocity":63,"Duration":36231,"SoundDuration":36231,"Delta":107153869},{"NoteNumber":45,"Velocity":63,"Duration":36231,"SoundDuration":36231,"Delta":107190100},{"NoteNumber":66,"Velocity":80,"Duration":103448,"SoundDuration":103448,"Delta":107226332},{"NoteNumber":78,"Velocity":92,"Duration":103448,"SoundDuration":103448,"Delta":107226332},{"NoteNumber":50,"Velocity":73,"Duration":103448,"SoundDuration":103448,"Delta":107226332},{"NoteNumber":71,"Velocity":69,"Duration":113636,"SoundDuration":113636,"Delta":107433229},{"NoteNumber":83,"Velocity":78,"Duration":113636,"SoundDuration":113636,"Delta":107433229},{"NoteNumber":50,"Velocity":69,"Duration":113636,"SoundDuration":113636,"Delta":107433229},{"NoteNumber":40,"Velocity":63,"Duration":37878,"SoundDuration":37878,"Delta":107546865},{"NoteNumber":44,"Velocity":63,"Duration":37878,"SoundDuration":37878,"Delta":107584744},{"NoteNumber":47,"Velocity":63,"Duration":37878,"SoundDuration":37878,"Delta":107622623},{"NoteNumber":68,"Velocity":75,"Duration":112781,"SoundDuration":112781,"Delta":107660501},{"NoteNumber":80,"Velocity":86,"Duration":112781,"SoundDuration":112781,"Delta":107660501},{"NoteNumber":52,"Velocity":73,"Duration":112781,"SoundDuration":112781,"Delta":107660501},{"NoteNumber":64,"Velocity":70,"Duration":116279,"SoundDuration":116279,"Delta":107886065},{"NoteNumber":76,"Velocity":80,"Duration":116279,"SoundDuration":116279,"Delta":107886065},{"NoteNumber":52,"Velocity":71,"Duration":116279,"SoundDuration":116279,"Delta":107886065},{"NoteNumber":69,"Velocity":78,"Duration":556930,"SoundDuration":556930,"Delta":108118623},{"NoteNumber":81,"Velocity":90,"Duration":556930,"SoundDuration":556930,"Delta":108118623},{"NoteNumber":45,"Velocity":73,"Duration":556930,"SoundDuration":556930,"Delta":108118623},{"NoteNumber":71,"Velocity":66,"Duration":99337,"SoundDuration":99337,"Delta":108712682},{"NoteNumber":69,"Velocity":64,"Duration":99337,"SoundDuration":99337,"Delta":108812020},{"NoteNumber":68,"Velocity":64,"Duration":99337,"SoundDuration":99337,"Delta":108911358},{"NoteNumber":69,"Velocity":64,"Duration":112781,"SoundDuration":112781,"Delta":109010696},{"NoteNumber":72,"Velocity":71,"Duration":99337,"SoundDuration":99337,"Delta":109123478},{"NoteNumber":57,"Velocity":57,"Duration":99337,"SoundDuration":99337,"Delta":109123478},{"NoteNumber":64,"Velocity":52,"Duration":99337,"SoundDuration":99337,"Delta":109322153},{"NoteNumber":60,"Velocity":43,"Duration":99337,"SoundDuration":99337,"Delta":109322153},{"NoteNumber":74,"Velocity":66,"Duration":99999,"SoundDuration":99999,"Delta":109534273},{"NoteNumber":60,"Velocity":43,"Duration":99999,"SoundDuration":99999,"Delta":109534273},{"NoteNumber":64,"Velocity":52,"Duration":99999,"SoundDuration":99999,"Delta":109534273},{"NoteNumber":72,"Velocity":63,"Duration":100000,"SoundDuration":100000,"Delta":109634273},{"NoteNumber":71,"Velocity":63,"Duration":99999,"SoundDuration":99999,"Delta":109734273},{"NoteNumber":60,"Velocity":42,"Duration":99999,"SoundDuration":99999,"Delta":109734273},{"NoteNumber":64,"Velocity":51,"Duration":99999,"SoundDuration":99999,"Delta":109734273},{"NoteNumber":72,"Velocity":63,"Duration":113636,"SoundDuration":113636,"Delta":109834273},{"NoteNumber":76,"Velocity":72,"Duration":99337,"SoundDuration":99337,"Delta":109947909},{"NoteNumber":57,"Velocity":57,"Duration":99337,"SoundDuration":99337,"Delta":109947909},{"NoteNumber":64,"Velocity":52,"Duration":99337,"SoundDuration":99337,"Delta":110146585},{"NoteNumber":60,"Velocity":43,"Duration":99337,"SoundDuration":99337,"Delta":110146585},{"NoteNumber":77,"Velocity":66,"Duration":99337,"SoundDuration":99337,"Delta":110356216},{"NoteNumber":64,"Velocity":52,"Duration":99337,"SoundDuration":99337,"Delta":110356216},{"NoteNumber":60,"Velocity":43,"Duration":99337,"SoundDuration":99337,"Delta":110356216},{"NoteNumber":76,"Velocity":63,"Duration":99337,"SoundDuration":99337,"Delta":110455554},{"NoteNumber":75,"Velocity":63,"Duration":99337,"SoundDuration":99337,"Delta":110554892},{"NoteNumber":64,"Velocity":52,"Duration":99337,"SoundDuration":99337,"Delta":110554892},{"NoteNumber":60,"Velocity":43,"Duration":99337,"SoundDuration":99337,"Delta":110554892},{"NoteNumber":76,"Velocity":63,"Duration":104166,"SoundDuration":104166,"Delta":110654230},{"NoteNumber":83,"Velocity":70,"Duration":99337,"SoundDuration":99337,"Delta":110758396},{"NoteNumber":57,"Velocity":57,"Duration":99337,"SoundDuration":99337,"Delta":110758396},{"NoteNumber":81,"Velocity":64,"Duration":99337,"SoundDuration":99337,"Delta":110857734},{"NoteNumber":80,"Velocity":64,"Duration":99337,"SoundDuration":99337,"Delta":110957072},{"NoteNumber":64,"Velocity":50,"Duration":99337,"SoundDuration":99337,"Delta":110957072},{"NoteNumber":60,"Velocity":42,"Duration":99337,"SoundDuration":99337,"Delta":110957072},{"NoteNumber":81,"Velocity":64,"Duration":99337,"SoundDuration":99337,"Delta":111056410},{"NoteNumber":83,"Velocity":69,"Duration":101351,"SoundDuration":101351,"Delta":111155747},{"NoteNumber":57,"Velocity":57,"Duration":101351,"SoundDuration":101351,"Delta":111155747},{"NoteNumber":81,"Velocity":64,"Duration":101351,"SoundDuration":101351,"Delta":111257099},{"NoteNumber":80,"Velocity":64,"Duration":101351,"SoundDuration":101351,"Delta":111358450},{"NoteNumber":64,"Velocity":52,"Duration":101351,"SoundDuration":101351,"Delta":111358450},{"NoteNumber":60,"Velocity":43,"Duration":101351,"SoundDuration":101351,"Delta":111358450},{"NoteNumber":81,"Velocity":64,"Duration":114503,"SoundDuration":114503,"Delta":111459801},{"NoteNumber":84,"Velocity":72,"Duration":426743,"SoundDuration":426743,"Delta":111574305},{"NoteNumber":57,"Velocity":57,"Duration":102040,"SoundDuration":102040,"Delta":111574305},{"NoteNumber":64,"Velocity":50,"Duration":106382,"SoundDuration":106382,"Delta":111778386},{"NoteNumber":60,"Velocity":42,"Duration":106382,"SoundDuration":106382,"Delta":111778386},{"NoteNumber":81,"Velocity":68,"Duration":99337,"SoundDuration":99337,"Delta":112001048},{"NoteNumber":64,"Velocity":50,"Duration":99337,"SoundDuration":99337,"Delta":112001048},{"NoteNumber":60,"Velocity":42,"Duration":99337,"SoundDuration":99337,"Delta":112001048},{"NoteNumber":84,"Velocity":65,"Duration":107142,"SoundDuration":107142,"Delta":112199724},{"NoteNumber":64,"Velocity":50,"Duration":107142,"SoundDuration":107142,"Delta":112199724},{"NoteNumber":60,"Velocity":42,"Duration":107142,"SoundDuration":107142,"Delta":112199724},{"NoteNumber":79,"Velocity":63,"Duration":22321,"SoundDuration":22321,"Delta":112379682},{"NoteNumber":81,"Velocity":63,"Duration":22321,"SoundDuration":22321,"Delta":112402004},{"NoteNumber":83,"Velocity":80,"Duration":101351,"SoundDuration":101351,"Delta":112424325},{"NoteNumber":52,"Velocity":65,"Duration":101351,"SoundDuration":101351,"Delta":112424325},{"NoteNumber":78,"Velocity":54,"Duration":101351,"SoundDuration":101351,"Delta":112627028},{"NoteNumber":81,"Velocity":64,"Duration":101351,"SoundDuration":101351,"Delta":112627028},{"NoteNumber":64,"Velocity":53,"Duration":101351,"SoundDuration":101351,"Delta":112627028},{"NoteNumber":59,"Velocity":44,"Duration":101351,"SoundDuration":101351,"Delta":112627028},{"NoteNumber":76,"Velocity":58,"Duration":99337,"SoundDuration":99337,"Delta":112829730},{"NoteNumber":79,"Velocity":69,"Duration":99337,"SoundDuration":99337,"Delta":112829730},{"NoteNumber":64,"Velocity":53,"Duration":99337,"SoundDuration":99337,"Delta":112829730},{"NoteNumber":59,"Velocity":44,"Duration":99337,"SoundDuration":99337,"Delta":112829730},{"NoteNumber":78,"Velocity":54,"Duration":107142,"SoundDuration":107142,"Delta":113028406},{"NoteNumber":81,"Velocity":64,"Duration":107142,"SoundDuration":107142,"Delta":113028406},{"NoteNumber":64,"Velocity":53,"Duration":107142,"SoundDuration":107142,"Delta":113028406},{"NoteNumber":59,"Velocity":44,"Duration":107142,"SoundDuration":107142,"Delta":113028406},{"NoteNumber":79,"Velocity":65,"Duration":22455,"SoundDuration":22455,"Delta":113206977},{"NoteNumber":81,"Velocity":65,"Duration":22455,"SoundDuration":22455,"Delta":113229432},{"NoteNumber":83,"Velocity":82,"Duration":101351,"SoundDuration":101351,"Delta":113251887},{"NoteNumber":52,"Velocity":66,"Duration":101351,"SoundDuration":101351,"Delta":113251887},{"NoteNumber":78,"Velocity":56,"Duration":101351,"SoundDuration":101351,"Delta":113454590},{"NoteNumber":81,"Velocity":66,"Duration":101351,"SoundDuration":101351,"Delta":113454590},{"NoteNumber":64,"Velocity":52,"Duration":101351,"SoundDuration":101351,"Delta":113454590},{"NoteNumber":59,"Velocity":43,"Duration":101351,"SoundDuration":101351,"Delta":113454590},{"NoteNumber":76,"Velocity":58,"Duration":99337,"SoundDuration":99337,"Delta":113657292},{"NoteNumber":79,"Velocity":69,"Duration":99337,"SoundDuration":99337,"Delta":113657292},{"NoteNumber":64,"Velocity":52,"Duration":99337,"SoundDuration":99337,"Delta":113657292},{"NoteNumber":59,"Velocity":43,"Duration":99337,"SoundDuration":99337,"Delta":113657292},{"NoteNumber":78,"Velocity":55,"Duration":107913,"SoundDuration":107913,"Delta":113855968},{"NoteNumber":81,"Velocity":65,"Duration":107913,"SoundDuration":107913,"Delta":113855968},{"NoteNumber":64,"Velocity":52,"Duration":107913,"SoundDuration":107913,"Delta":113855968},{"NoteNumber":59,"Velocity":43,"Duration":107913,"SoundDuration":107913,"Delta":113855968},{"NoteNumber":79,"Velocity":64,"Duration":22189,"SoundDuration":22189,"Delta":114032689},{"NoteNumber":81,"Velocity":64,"Duration":47357,"SoundDuration":47357,"Delta":114054878},{"NoteNumber":83,"Velocity":79,"Duration":100671,"SoundDuration":100671,"Delta":114077067},{"NoteNumber":52,"Velocity":67,"Duration":100671,"SoundDuration":100671,"Delta":114077067},{"NoteNumber":78,"Velocity":57,"Duration":100671,"SoundDuration":100671,"Delta":114278410},{"NoteNumber":81,"Velocity":68,"Duration":100671,"SoundDuration":100671,"Delta":114278410},{"NoteNumber":64,"Velocity":52,"Duration":100671,"SoundDuration":100671,"Delta":114278410},{"NoteNumber":59,"Velocity":43,"Duration":100671,"SoundDuration":100671,"Delta":114278410},{"NoteNumber":76,"Velocity":58,"Duration":109488,"SoundDuration":109488,"Delta":114479752},{"NoteNumber":79,"Velocity":69,"Duration":109488,"SoundDuration":109488,"Delta":114479752},{"NoteNumber":47,"Velocity":52,"Duration":109488,"SoundDuration":109488,"Delta":114479752},{"NoteNumber":75,"Velocity":56,"Duration":116279,"SoundDuration":116279,"Delta":114698730},{"NoteNumber":78,"Velocity":66,"Duration":116279,"SoundDuration":116279,"Delta":114698730},{"NoteNumber":59,"Velocity":52,"Duration":116279,"SoundDuration":116279,"Delta":114698730},{"NoteNumber":76,"Velocity":69,"Duration":457317,"SoundDuration":457317,"Delta":114931288},{"NoteNumber":52,"Velocity":57,"Duration":457317,"SoundDuration":457317,"Delta":114931288},{"NoteNumber":71,"Velocity":66,"Duration":99337,"SoundDuration":99337,"Delta":115419093},{"NoteNumber":69,"Velocity":64,"Duration":99337,"SoundDuration":99337,"Delta":115518431},{"NoteNumber":68,"Velocity":64,"Duration":99337,"SoundDuration":99337,"Delta":115617769},{"NoteNumber":69,"Velocity":64,"Duration":112781,"SoundDuration":112781,"Delta":115717107},{"NoteNumber":72,"Velocity":71,"Duration":99337,"SoundDuration":99337,"Delta":115829889},{"NoteNumber":57,"Velocity":57,"Duration":99337,"SoundDuration":99337,"Delta":115829889},{"NoteNumber":64,"Velocity":52,"Duration":99337,"SoundDuration":99337,"Delta":116028564},{"NoteNumber":60,"Velocity":43,"Duration":99337,"SoundDuration":99337,"Delta":116028564},{"NoteNumber":74,"Velocity":66,"Duration":99999,"SoundDuration":99999,"Delta":116240684},{"NoteNumber":60,"Velocity":43,"Duration":99999,"SoundDuration":99999,"Delta":116240684},{"NoteNumber":64,"Velocity":52,"Duration":99999,"SoundDuration":99999,"Delta":116240684},{"NoteNumber":72,"Velocity":63,"Duration":100000,"SoundDuration":100000,"Delta":116340684},{"NoteNumber":71,"Velocity":63,"Duration":99999,"SoundDuration":99999,"Delta":116440684},{"NoteNumber":60,"Velocity":42,"Duration":99999,"SoundDuration":99999,"Delta":116440684},{"NoteNumber":64,"Velocity":51,"Duration":99999,"SoundDuration":99999,"Delta":116440684},{"NoteNumber":72,"Velocity":63,"Duration":113636,"SoundDuration":113636,"Delta":116540684},{"NoteNumber":76,"Velocity":72,"Duration":99337,"SoundDuration":99337,"Delta":116654320},{"NoteNumber":57,"Velocity":57,"Duration":99337,"SoundDuration":99337,"Delta":116654320},{"NoteNumber":64,"Velocity":52,"Duration":99337,"SoundDuration":99337,"Delta":116852996},{"NoteNumber":60,"Velocity":43,"Duration":99337,"SoundDuration":99337,"Delta":116852996},{"NoteNumber":77,"Velocity":66,"Duration":99337,"SoundDuration":99337,"Delta":117062627},{"NoteNumber":64,"Velocity":52,"Duration":99337,"SoundDuration":99337,"Delta":117062627},{"NoteNumber":60,"Velocity":43,"Duration":99337,"SoundDuration":99337,"Delta":117062627},{"NoteNumber":76,"Velocity":63,"Duration":99337,"SoundDuration":99337,"Delta":117161965},{"NoteNumber":75,"Velocity":63,"Duration":99337,"SoundDuration":99337,"Delta":117261303},{"NoteNumber":64,"Velocity":52,"Duration":99337,"SoundDuration":99337,"Delta":117261303},{"NoteNumber":60,"Velocity":43,"Duration":99337,"SoundDuration":99337,"Delta":117261303},{"NoteNumber":76,"Velocity":63,"Duration":104166,"SoundDuration":104166,"Delta":117360641},{"NoteNumber":83,"Velocity":70,"Duration":99337,"SoundDuration":99337,"Delta":117464807},{"NoteNumber":57,"Velocity":57,"Duration":99337,"SoundDuration":99337,"Delta":117464807},{"NoteNumber":81,"Velocity":64,"Duration":99337,"SoundDuration":99337,"Delta":117564145},{"NoteNumber":80,"Velocity":64,"Duration":99337,"SoundDuration":99337,"Delta":117663483},{"NoteNumber":64,"Velocity":50,"Duration":99337,"SoundDuration":99337,"Delta":117663483},{"NoteNumber":60,"Velocity":42,"Duration":99337,"SoundDuration":99337,"Delta":117663483},{"NoteNumber":81,"Velocity":64,"Duration":99337,"SoundDuration":99337,"Delta":117762821},{"NoteNumber":83,"Velocity":69,"Duration":101351,"SoundDuration":101351,"Delta":117862158},{"NoteNumber":57,"Velocity":57,"Duration":101351,"SoundDuration":101351,"Delta":117862158},{"NoteNumber":81,"Velocity":64,"Duration":101351,"SoundDuration":101351,"Delta":117963510},{"NoteNumber":80,"Velocity":64,"Duration":101351,"SoundDuration":101351,"Delta":118064861},{"NoteNumber":64,"Velocity":52,"Duration":101351,"SoundDuration":101351,"Delta":118064861},{"NoteNumber":60,"Velocity":43,"Duration":101351,"SoundDuration":101351,"Delta":118064861},{"NoteNumber":81,"Velocity":64,"Duration":114503,"SoundDuration":114503,"Delta":118166212},{"NoteNumber":84,"Velocity":72,"Duration":426743,"SoundDuration":426743,"Delta":118280716},{"NoteNumber":57,"Velocity":57,"Duration":102040,"SoundDuration":102040,"Delta":118280716},{"NoteNumber":64,"Velocity":50,"Duration":106382,"SoundDuration":106382,"Delta":118484797},{"NoteNumber":60,"Velocity":42,"Duration":106382,"SoundDuration":106382,"Delta":118484797},{"NoteNumber":81,"Velocity":68,"Duration":99337,"SoundDuration":99337,"Delta":118707459},{"NoteNumber":64,"Velocity":50,"Duration":99337,"SoundDuration":99337,"Delta":118707459},{"NoteNumber":60,"Velocity":42,"Duration":99337,"SoundDuration":99337,"Delta":118707459},{"NoteNumber":84,"Velocity":65,"Duration":107142,"SoundDuration":107142,"Delta":118906135},{"NoteNumber":64,"Velocity":50,"Duration":107142,"SoundDuration":107142,"Delta":118906135},{"NoteNumber":60,"Velocity":42,"Duration":107142,"SoundDuration":107142,"Delta":118906135},{"NoteNumber":79,"Velocity":63,"Duration":22321,"SoundDuration":22321,"Delta":119086093},{"NoteNumber":81,"Velocity":63,"Duration":22321,"SoundDuration":22321,"Delta":119108415},{"NoteNumber":83,"Velocity":80,"Duration":101351,"SoundDuration":101351,"Delta":119130736},{"NoteNumber":52,"Velocity":65,"Duration":101351,"SoundDuration":101351,"Delta":119130736},{"NoteNumber":78,"Velocity":54,"Duration":101351,"SoundDuration":101351,"Delta":119333439},{"NoteNumber":81,"Velocity":64,"Duration":101351,"SoundDuration":101351,"Delta":119333439},{"NoteNumber":64,"Velocity":53,"Duration":101351,"SoundDuration":101351,"Delta":119333439},{"NoteNumber":59,"Velocity":44,"Duration":101351,"SoundDuration":101351,"Delta":119333439},{"NoteNumber":76,"Velocity":58,"Duration":99337,"SoundDuration":99337,"Delta":119536141},{"NoteNumber":79,"Velocity":69,"Duration":99337,"SoundDuration":99337,"Delta":119536141},{"NoteNumber":64,"Velocity":53,"Duration":99337,"SoundDuration":99337,"Delta":119536141},{"NoteNumber":59,"Velocity":44,"Duration":99337,"SoundDuration":99337,"Delta":119536141},{"NoteNumber":78,"Velocity":54,"Duration":107142,"SoundDuration":107142,"Delta":119734817},{"NoteNumber":81,"Velocity":64,"Duration":107142,"SoundDuration":107142,"Delta":119734817},{"NoteNumber":64,"Velocity":53,"Duration":107142,"SoundDuration":107142,"Delta":119734817},{"NoteNumber":59,"Velocity":44,"Duration":107142,"SoundDuration":107142,"Delta":119734817},{"NoteNumber":79,"Velocity":65,"Duration":22455,"SoundDuration":22455,"Delta":119913388},{"NoteNumber":81,"Velocity":65,"Duration":22455,"SoundDuration":22455,"Delta":119935843},{"NoteNumber":83,"Velocity":82,"Duration":101351,"SoundDuration":101351,"Delta":119958298},{"NoteNumber":52,"Velocity":66,"Duration":101351,"SoundDuration":101351,"Delta":119958298},{"NoteNumber":78,"Velocity":56,"Duration":101351,"SoundDuration":101351,"Delta":120161001},{"NoteNumber":81,"Velocity":66,"Duration":101351,"SoundDuration":101351,"Delta":120161001},{"NoteNumber":64,"Velocity":52,"Duration":101351,"SoundDuration":101351,"Delta":120161001},{"NoteNumber":59,"Velocity":43,"Duration":101351,"SoundDuration":101351,"Delta":120161001},{"NoteNumber":76,"Velocity":58,"Duration":99337,"SoundDuration":99337,"Delta":120363703},{"NoteNumber":79,"Velocity":69,"Duration":99337,"SoundDuration":99337,"Delta":120363703},{"NoteNumber":64,"Velocity":52,"Duration":99337,"SoundDuration":99337,"Delta":120363703},{"NoteNumber":59,"Velocity":43,"Duration":99337,"SoundDuration":99337,"Delta":120363703},{"NoteNumber":78,"Velocity":55,"Duration":107913,"SoundDuration":107913,"Delta":120562379},{"NoteNumber":81,"Velocity":65,"Duration":107913,"SoundDuration":107913,"Delta":120562379},{"NoteNumber":64,"Velocity":52,"Duration":107913,"SoundDuration":107913,"Delta":120562379},{"NoteNumber":59,"Velocity":43,"Duration":107913,"SoundDuration":107913,"Delta":120562379},{"NoteNumber":79,"Velocity":64,"Duration":22189,"SoundDuration":22189,"Delta":120739100},{"NoteNumber":81,"Velocity":64,"Duration":47189,"SoundDuration":47189,"Delta":120761289},{"NoteNumber":83,"Velocity":79,"Duration":99999,"SoundDuration":99999,"Delta":120783478},{"NoteNumber":52,"Velocity":67,"Duration":99999,"SoundDuration":99999,"Delta":120783478},{"NoteNumber":78,"Velocity":57,"Duration":99999,"SoundDuration":99999,"Delta":120983478},{"NoteNumber":81,"Velocity":68,"Duration":99999,"SoundDuration":99999,"Delta":120983478},{"NoteNumber":64,"Velocity":52,"Duration":99999,"SoundDuration":99999,"Delta":120983478},{"NoteNumber":59,"Velocity":43,"Duration":99999,"SoundDuration":99999,"Delta":120983478},{"NoteNumber":76,"Velocity":58,"Duration":108695,"SoundDuration":108695,"Delta":121183478},{"NoteNumber":79,"Velocity":69,"Duration":108695,"SoundDuration":108695,"Delta":121183478},{"NoteNumber":47,"Velocity":52,"Duration":108695,"SoundDuration":108695,"Delta":121183478},{"NoteNumber":75,"Velocity":56,"Duration":122950,"SoundDuration":122950,"Delta":121400870},{"NoteNumber":78,"Velocity":66,"Duration":122950,"SoundDuration":122950,"Delta":121400870},{"NoteNumber":59,"Velocity":52,"Duration":122950,"SoundDuration":122950,"Delta":121400870},{"NoteNumber":76,"Velocity":69,"Duration":432691,"SoundDuration":432691,"Delta":121646771},{"NoteNumber":52,"Velocity":57,"Duration":432691,"SoundDuration":432691,"Delta":121646771},{"NoteNumber":72,"Velocity":56,"Duration":108695,"SoundDuration":108695,"Delta":122108309},{"NoteNumber":76,"Velocity":56,"Duration":108695,"SoundDuration":108695,"Delta":122108309},{"NoteNumber":74,"Velocity":56,"Duration":106382,"SoundDuration":106382,"Delta":122325701},{"NoteNumber":77,"Velocity":56,"Duration":106382,"SoundDuration":106382,"Delta":122325701},{"NoteNumber":76,"Velocity":66,"Duration":104166,"SoundDuration":104166,"Delta":122538467},{"NoteNumber":79,"Velocity":66,"Duration":104166,"SoundDuration":104166,"Delta":122538467},{"NoteNumber":48,"Velocity":59,"Duration":104166,"SoundDuration":104166,"Delta":122538467},{"NoteNumber":76,"Velocity":57,"Duration":104166,"SoundDuration":104166,"Delta":122746800},{"NoteNumber":79,"Velocity":57,"Duration":104166,"SoundDuration":104166,"Delta":122746800},{"NoteNumber":60,"Velocity":53,"Duration":104166,"SoundDuration":104166,"Delta":122746800},{"NoteNumber":81,"Velocity":64,"Duration":102739,"SoundDuration":102739,"Delta":122955134},{"NoteNumber":52,"Velocity":59,"Duration":102739,"SoundDuration":102739,"Delta":122955134},{"NoteNumber":79,"Velocity":57,"Duration":102739,"SoundDuration":102739,"Delta":123057874},{"NoteNumber":77,"Velocity":57,"Duration":107760,"SoundDuration":107760,"Delta":123160613},{"NoteNumber":64,"Velocity":57,"Duration":107760,"SoundDuration":107760,"Delta":123160613},{"NoteNumber":76,"Velocity":57,"Duration":112781,"SoundDuration":112781,"Delta":123268374},{"NoteNumber":74,"Velocity":65,"Duration":433409,"SoundDuration":433409,"Delta":123381156},{"NoteNumber":71,"Velocity":65,"Duration":215827,"SoundDuration":215827,"Delta":123381156},{"NoteNumber":55,"Velocity":60,"Duration":433409,"SoundDuration":433409,"Delta":123381156},{"NoteNumber":67,"Velocity":59,"Duration":217581,"SoundDuration":217581,"Delta":123596984},{"NoteNumber":72,"Velocity":56,"Duration":108695,"SoundDuration":108695,"Delta":123814566},{"NoteNumber":76,"Velocity":56,"Duration":108695,"SoundDuration":108695,"Delta":123814566},{"NoteNumber":74,"Velocity":56,"Duration":106382,"SoundDuration":106382,"Delta":124031957},{"NoteNumber":77,"Velocity":56,"Duration":106382,"SoundDuration":106382,"Delta":124031957},{"NoteNumber":76,"Velocity":66,"Duration":104166,"SoundDuration":104166,"Delta":124244723},{"NoteNumber":79,"Velocity":66,"Duration":104166,"SoundDuration":104166,"Delta":124244723},{"NoteNumber":48,"Velocity":59,"Duration":104166,"SoundDuration":104166,"Delta":124244723},{"NoteNumber":76,"Velocity":57,"Duration":104166,"SoundDuration":104166,"Delta":124453057},{"NoteNumber":79,"Velocity":57,"Duration":104166,"SoundDuration":104166,"Delta":124453057},{"NoteNumber":60,"Velocity":53,"Duration":104166,"SoundDuration":104166,"Delta":124453057},{"NoteNumber":81,"Velocity":64,"Duration":102739,"SoundDuration":102739,"Delta":124661390},{"NoteNumber":52,"Velocity":59,"Duration":102739,"SoundDuration":102739,"Delta":124661390},{"NoteNumber":79,"Velocity":57,"Duration":102739,"SoundDuration":102739,"Delta":124764130},{"NoteNumber":77,"Velocity":57,"Duration":107760,"SoundDuration":107760,"Delta":124866870},{"NoteNumber":64,"Velocity":57,"Duration":107760,"SoundDuration":107760,"Delta":124866870},{"NoteNumber":76,"Velocity":57,"Duration":112781,"SoundDuration":112781,"Delta":124974630},{"NoteNumber":74,"Velocity":65,"Duration":433409,"SoundDuration":433409,"Delta":125087412},{"NoteNumber":71,"Velocity":65,"Duration":433409,"SoundDuration":433409,"Delta":125087412},{"NoteNumber":55,"Velocity":60,"Duration":433409,"SoundDuration":433409,"Delta":125087412},{"NoteNumber":69,"Velocity":56,"Duration":113636,"SoundDuration":113636,"Delta":125520822},{"NoteNumber":72,"Velocity":56,"Duration":113636,"SoundDuration":113636,"Delta":125520822},{"NoteNumber":71,"Velocity":56,"Duration":106382,"SoundDuration":106382,"Delta":125748094},{"NoteNumber":74,"Velocity":56,"Duration":106382,"SoundDuration":106382,"Delta":125748094},{"NoteNumber":72,"Velocity":66,"Duration":104166,"SoundDuration":104166,"Delta":125960860},{"NoteNumber":76,"Velocity":66,"Duration":104166,"SoundDuration":104166,"Delta":125960860},{"NoteNumber":45,"Velocity":59,"Duration":104166,"SoundDuration":104166,"Delta":125960860},{"NoteNumber":72,"Velocity":57,"Duration":104166,"SoundDuration":104166,"Delta":126169194},{"NoteNumber":76,"Velocity":57,"Duration":104166,"SoundDuration":104166,"Delta":126169194},{"NoteNumber":57,"Velocity":53,"Duration":104166,"SoundDuration":104166,"Delta":126169194},{"NoteNumber":77,"Velocity":64,"Duration":102739,"SoundDuration":102739,"Delta":126377527},{"NoteNumber":48,"Velocity":59,"Duration":102739,"SoundDuration":102739,"Delta":126377527},{"NoteNumber":76,"Velocity":57,"Duration":102739,"SoundDuration":102739,"Delta":126480267},{"NoteNumber":74,"Velocity":57,"Duration":107760,"SoundDuration":107760,"Delta":126583007},{"NoteNumber":60,"Velocity":57,"Duration":107760,"SoundDuration":107760,"Delta":126583007},{"NoteNumber":72,"Velocity":57,"Duration":112781,"SoundDuration":112781,"Delta":126690768},{"NoteNumber":71,"Velocity":65,"Duration":431655,"SoundDuration":431655,"Delta":126803550},{"NoteNumber":68,"Velocity":65,"Duration":215827,"SoundDuration":215827,"Delta":126803550},{"NoteNumber":52,"Velocity":60,"Duration":431655,"SoundDuration":431655,"Delta":126803550},{"NoteNumber":64,"Velocity":59,"Duration":215827,"SoundDuration":215827,"Delta":127019377},{"NoteNumber":69,"Velocity":56,"Duration":108695,"SoundDuration":108695,"Delta":127235205},{"NoteNumber":72,"Velocity":56,"Duration":108695,"SoundDuration":108695,"Delta":127235205},{"NoteNumber":71,"Velocity":56,"Duration":106382,"SoundDuration":106382,"Delta":127452596},{"NoteNumber":74,"Velocity":56,"Duration":106382,"SoundDuration":106382,"Delta":127452596},{"NoteNumber":72,"Velocity":66,"Duration":104166,"SoundDuration":104166,"Delta":127665362},{"NoteNumber":76,"Velocity":66,"Duration":104166,"SoundDuration":104166,"Delta":127665362},{"NoteNumber":45,"Velocity":59,"Duration":104166,"SoundDuration":104166,"Delta":127665362},{"NoteNumber":72,"Velocity":57,"Duration":104166,"SoundDuration":104166,"Delta":127873696},{"NoteNumber":76,"Velocity":57,"Duration":104166,"SoundDuration":104166,"Delta":127873696},{"NoteNumber":57,"Velocity":53,"Duration":104166,"SoundDuration":104166,"Delta":127873696},{"NoteNumber":77,"Velocity":64,"Duration":102739,"SoundDuration":102739,"Delta":128082029},{"NoteNumber":48,"Velocity":59,"Duration":102739,"SoundDuration":102739,"Delta":128082029},{"NoteNumber":76,"Velocity":57,"Duration":102739,"SoundDuration":102739,"Delta":128184769},{"NoteNumber":74,"Velocity":57,"Duration":107760,"SoundDuration":107760,"Delta":128287509},{"NoteNumber":60,"Velocity":57,"Duration":107760,"SoundDuration":107760,"Delta":128287509},{"NoteNumber":72,"Velocity":57,"Duration":112782,"SoundDuration":112782,"Delta":128395270},{"NoteNumber":71,"Velocity":65,"Duration":431655,"SoundDuration":431655,"Delta":128508052},{"NoteNumber":68,"Velocity":65,"Duration":431655,"SoundDuration":431655,"Delta":128508052},{"NoteNumber":52,"Velocity":60,"Duration":431655,"SoundDuration":431655,"Delta":128508052},{"NoteNumber":71,"Velocity":56,"Duration":99337,"SoundDuration":99337,"Delta":128939707},{"NoteNumber":69,"Velocity":56,"Duration":99337,"SoundDuration":99337,"Delta":129039044},{"NoteNumber":68,"Velocity":56,"Duration":99337,"SoundDuration":99337,"Delta":129138382},{"NoteNumber":69,"Velocity":56,"Duration":112782,"SoundDuration":112782,"Delta":129237720},{"NoteNumber":72,"Velocity":59,"Duration":99337,"SoundDuration":99337,"Delta":129350502},{"NoteNumber":57,"Velocity":53,"Duration":99337,"SoundDuration":99337,"Delta":129350502},{"NoteNumber":64,"Velocity":47,"Duration":99337,"SoundDuration":99337,"Delta":129549177},{"NoteNumber":60,"Velocity":47,"Duration":99337,"SoundDuration":99337,"Delta":129549177},{"NoteNumber":74,"Velocity":62,"Duration":99999,"SoundDuration":99999,"Delta":129761297},{"NoteNumber":60,"Velocity":47,"Duration":99999,"SoundDuration":99999,"Delta":129761297},{"NoteNumber":64,"Velocity":47,"Duration":99999,"SoundDuration":99999,"Delta":129761297},{"NoteNumber":72,"Velocity":57,"Duration":99999,"SoundDuration":99999,"Delta":129861297},{"NoteNumber":71,"Velocity":57,"Duration":100000,"SoundDuration":100000,"Delta":129961297},{"NoteNumber":60,"Velocity":47,"Duration":100000,"SoundDuration":100000,"Delta":129961297},{"NoteNumber":64,"Velocity":47,"Duration":100000,"SoundDuration":100000,"Delta":129961297},{"NoteNumber":72,"Velocity":57,"Duration":113636,"SoundDuration":113636,"Delta":130061297},{"NoteNumber":76,"Velocity":66,"Duration":99337,"SoundDuration":99337,"Delta":130174933},{"NoteNumber":57,"Velocity":54,"Duration":99337,"SoundDuration":99337,"Delta":130174933},{"NoteNumber":64,"Velocity":48,"Duration":99337,"SoundDuration":99337,"Delta":130373609},{"NoteNumber":60,"Velocity":48,"Duration":99337,"SoundDuration":99337,"Delta":130373609},{"NoteNumber":77,"Velocity":63,"Duration":99337,"SoundDuration":99337,"Delta":130583241},{"NoteNumber":64,"Velocity":48,"Duration":99337,"SoundDuration":99337,"Delta":130583241},{"NoteNumber":60,"Velocity":48,"Duration":99337,"SoundDuration":99337,"Delta":130583241},{"NoteNumber":76,"Velocity":58,"Duration":99337,"SoundDuration":99337,"Delta":130682578},{"NoteNumber":75,"Velocity":58,"Duration":99337,"SoundDuration":99337,"Delta":130781916},{"NoteNumber":64,"Velocity":48,"Duration":99337,"SoundDuration":99337,"Delta":130781916},{"NoteNumber":60,"Velocity":48,"Duration":99337,"SoundDuration":99337,"Delta":130781916},{"NoteNumber":76,"Velocity":58,"Duration":104166,"SoundDuration":104166,"Delta":130881254},{"NoteNumber":83,"Velocity":70,"Duration":99999,"SoundDuration":99999,"Delta":130985421},{"NoteNumber":57,"Velocity":56,"Duration":99999,"SoundDuration":99999,"Delta":130985421},{"NoteNumber":81,"Velocity":63,"Duration":99999,"SoundDuration":99999,"Delta":131085421},{"NoteNumber":80,"Velocity":63,"Duration":100000,"SoundDuration":100000,"Delta":131185421},{"NoteNumber":64,"Velocity":49,"Duration":100000,"SoundDuration":100000,"Delta":131185421},{"NoteNumber":60,"Velocity":49,"Duration":100000,"SoundDuration":100000,"Delta":131185421},{"NoteNumber":81,"Velocity":63,"Duration":99999,"SoundDuration":99999,"Delta":131285421},{"NoteNumber":83,"Velocity":71,"Duration":103448,"SoundDuration":103448,"Delta":131385421},{"NoteNumber":57,"Velocity":57,"Duration":103448,"SoundDuration":103448,"Delta":131385421},{"NoteNumber":81,"Velocity":64,"Duration":103448,"SoundDuration":103448,"Delta":131488869},{"NoteNumber":80,"Velocity":64,"Duration":103448,"SoundDuration":103448,"Delta":131592317},{"NoteNumber":64,"Velocity":52,"Duration":103448,"SoundDuration":103448,"Delta":131592317},{"NoteNumber":60,"Velocity":43,"Duration":103448,"SoundDuration":103448,"Delta":131592317},{"NoteNumber":81,"Velocity":64,"Duration":128205,"SoundDuration":128205,"Delta":131695765},{"NoteNumber":84,"Velocity":76,"Duration":426743,"SoundDuration":426743,"Delta":131823971},{"NoteNumber":53,"Velocity":57,"Duration":102040,"SoundDuration":102040,"Delta":131823971},{"NoteNumber":63,"Velocity":51,"Duration":106382,"SoundDuration":106382,"Delta":132028052},{"NoteNumber":57,"Velocity":51,"Duration":106382,"SoundDuration":106382,"Delta":132028052},{"NoteNumber":81,"Velocity":62,"Duration":102739,"SoundDuration":102739,"Delta":132250714},{"NoteNumber":63,"Velocity":43,"Duration":102739,"SoundDuration":102739,"Delta":132250714},{"NoteNumber":57,"Velocity":43,"Duration":102739,"SoundDuration":102739,"Delta":132250714},{"NoteNumber":83,"Velocity":62,"Duration":107142,"SoundDuration":107142,"Delta":132456194},{"NoteNumber":63,"Velocity":39,"Duration":107142,"SoundDuration":107142,"Delta":132456194},{"NoteNumber":57,"Velocity":39,"Duration":107142,"SoundDuration":107142,"Delta":132456194},{"NoteNumber":84,"Velocity":70,"Duration":101351,"SoundDuration":101351,"Delta":132670479},{"NoteNumber":52,"Velocity":46,"Duration":101351,"SoundDuration":101351,"Delta":132670479},{"NoteNumber":83,"Velocity":62,"Duration":101351,"SoundDuration":101351,"Delta":132873182},{"NoteNumber":64,"Velocity":42,"Duration":101351,"SoundDuration":101351,"Delta":132873182},{"NoteNumber":57,"Velocity":42,"Duration":101351,"SoundDuration":101351,"Delta":132873182},{"NoteNumber":81,"Velocity":62,"Duration":102739,"SoundDuration":102739,"Delta":133075884},{"NoteNumber":50,"Velocity":42,"Duration":102739,"SoundDuration":102739,"Delta":133075884},{"NoteNumber":80,"Velocity":62,"Duration":107142,"SoundDuration":107142,"Delta":133281364},{"NoteNumber":59,"Velocity":42,"Duration":107142,"SoundDuration":107142,"Delta":133281364},{"NoteNumber":53,"Velocity":42,"Duration":107142,"SoundDuration":107142,"Delta":133281364},{"NoteNumber":81,"Velocity":71,"Duration":101351,"SoundDuration":101351,"Delta":133495649},{"NoteNumber":48,"Velocity":47,"Duration":101351,"SoundDuration":101351,"Delta":133495649},{"NoteNumber":76,"Velocity":64,"Duration":101351,"SoundDuration":101351,"Delta":133698352},{"NoteNumber":57,"Velocity":39,"Duration":101351,"SoundDuration":101351,"Delta":133698352},{"NoteNumber":52,"Velocity":39,"Duration":101351,"SoundDuration":101351,"Delta":133698352},{"NoteNumber":50,"Velocity":41,"Duration":103448,"SoundDuration":103448,"Delta":133901054},{"NoteNumber":77,"Velocity":64,"Duration":103448,"SoundDuration":103448,"Delta":133904502},{"NoteNumber":74,"Velocity":64,"Duration":107913,"SoundDuration":107913,"Delta":134107951},{"NoteNumber":59,"Velocity":41,"Duration":107913,"SoundDuration":107913,"Delta":134107951},{"NoteNumber":53,"Velocity":41,"Duration":107913,"SoundDuration":107913,"Delta":134107951},{"NoteNumber":72,"Velocity":74,"Duration":410958,"SoundDuration":410958,"Delta":134323778},{"NoteNumber":52,"Velocity":48,"Duration":102739,"SoundDuration":102739,"Delta":134323778},{"NoteNumber":57,"Velocity":48,"Duration":102739,"SoundDuration":102739,"Delta":134323778},{"NoteNumber":57,"Velocity":41,"Duration":102739,"SoundDuration":102739,"Delta":134529258},{"NoteNumber":52,"Velocity":41,"Duration":102739,"SoundDuration":102739,"Delta":134529258},{"NoteNumber":52,"Velocity":41,"Duration":108447,"SoundDuration":108447,"Delta":134730456},{"NoteNumber":71,"Velocity":64,"Duration":54347,"SoundDuration":54347,"Delta":134734737},{"NoteNumber":56,"Velocity":41,"Duration":108695,"SoundDuration":108695,"Delta":134734737},{"NoteNumber":72,"Velocity":57,"Duration":54347,"SoundDuration":54347,"Delta":134789085},{"NoteNumber":71,"Velocity":57,"Duration":54347,"SoundDuration":54347,"Delta":134843433},{"NoteNumber":72,"Velocity":57,"Duration":54347,"SoundDuration":54347,"Delta":134897781},{"NoteNumber":71,"Velocity":57,"Duration":3759,"SoundDuration":3759,"Delta":134952129},{"NoteNumber":52,"Velocity":41,"Duration":114223,"SoundDuration":114223,"Delta":134952129},{"NoteNumber":56,"Velocity":41,"Duration":114223,"SoundDuration":114223,"Delta":134952129},{"NoteNumber":72,"Velocity":57,"Duration":37523,"SoundDuration":37523,"Delta":134989723},{"NoteNumber":71,"Velocity":57,"Duration":39105,"SoundDuration":39105,"Delta":135027246},{"NoteNumber":69,"Velocity":64,"Duration":67056,"SoundDuration":67056,"Delta":135066352},{"NoteNumber":71,"Velocity":57,"Duration":75797,"SoundDuration":75797,"Delta":135133409},{"NoteNumber":69,"Velocity":65,"Duration":442913,"SoundDuration":442913,"Delta":135209207},{"NoteNumber":45,"Velocity":46,"Duration":472441,"SoundDuration":472441,"Delta":135209207},{"NoteNumber":57,"Velocity":46,"Duration":442913,"SoundDuration":442913,"Delta":135209207},{"NoteNumber":72,"Velocity":56,"Duration":108695,"SoundDuration":108695,"Delta":135681648},{"NoteNumber":76,"Velocity":56,"Duration":108695,"SoundDuration":108695,"Delta":135681648},{"NoteNumber":74,"Velocity":56,"Duration":106382,"SoundDuration":106382,"Delta":135899039},{"NoteNumber":77,"Velocity":56,"Duration":106382,"SoundDuration":106382,"Delta":135899039},{"NoteNumber":76,"Velocity":66,"Duration":104166,"SoundDuration":104166,"Delta":136111805},{"NoteNumber":79,"Velocity":66,"Duration":104166,"SoundDuration":104166,"Delta":136111805},{"NoteNumber":48,"Velocity":59,"Duration":104166,"SoundDuration":104166,"Delta":136111805},{"NoteNumber":76,"Velocity":57,"Duration":104166,"SoundDuration":104166,"Delta":136320139},{"NoteNumber":79,"Velocity":57,"Duration":104166,"SoundDuration":104166,"Delta":136320139},{"NoteNumber":60,"Velocity":53,"Duration":104166,"SoundDuration":104166,"Delta":136320139},{"NoteNumber":81,"Velocity":64,"Duration":102739,"SoundDuration":102739,"Delta":136528472},{"NoteNumber":52,"Velocity":59,"Duration":102739,"SoundDuration":102739,"Delta":136528472},{"NoteNumber":79,"Velocity":57,"Duration":102739,"SoundDuration":102739,"Delta":136631212},{"NoteNumber":77,"Velocity":57,"Duration":107760,"SoundDuration":107760,"Delta":136733952},{"NoteNumber":64,"Velocity":57,"Duration":107760,"SoundDuration":107760,"Delta":136733952},{"NoteNumber":76,"Velocity":57,"Duration":112782,"SoundDuration":112782,"Delta":136841712},{"NoteNumber":74,"Velocity":65,"Duration":433409,"SoundDuration":433409,"Delta":136954494},{"NoteNumber":71,"Velocity":65,"Duration":215827,"SoundDuration":215827,"Delta":136954494},{"NoteNumber":55,"Velocity":60,"Duration":433409,"SoundDuration":433409,"Delta":136954494},{"NoteNumber":67,"Velocity":59,"Duration":217581,"SoundDuration":217581,"Delta":137170322},{"NoteNumber":72,"Velocity":56,"Duration":108695,"SoundDuration":108695,"Delta":137387904},{"NoteNumber":76,"Velocity":56,"Duration":108695,"SoundDuration":108695,"Delta":137387904},{"NoteNumber":74,"Velocity":56,"Duration":106382,"SoundDuration":106382,"Delta":137605295},{"NoteNumber":77,"Velocity":56,"Duration":106382,"SoundDuration":106382,"Delta":137605295},{"NoteNumber":76,"Velocity":66,"Duration":104166,"SoundDuration":104166,"Delta":137818061},{"NoteNumber":79,"Velocity":66,"Duration":104166,"SoundDuration":104166,"Delta":137818061},{"NoteNumber":48,"Velocity":59,"Duration":104166,"SoundDuration":104166,"Delta":137818061},{"NoteNumber":76,"Velocity":57,"Duration":104166,"SoundDuration":104166,"Delta":138026395},{"NoteNumber":79,"Velocity":57,"Duration":104166,"SoundDuration":104166,"Delta":138026395},{"NoteNumber":60,"Velocity":53,"Duration":104166,"SoundDuration":104166,"Delta":138026395},{"NoteNumber":81,"Velocity":64,"Duration":102739,"SoundDuration":102739,"Delta":138234728},{"NoteNumber":52,"Velocity":59,"Duration":102739,"SoundDuration":102739,"Delta":138234728},{"NoteNumber":79,"Velocity":57,"Duration":102739,"SoundDuration":102739,"Delta":138337468},{"NoteNumber":77,"Velocity":57,"Duration":107760,"SoundDuration":107760,"Delta":138440208},{"NoteNumber":64,"Velocity":57,"Duration":107760,"SoundDuration":107760,"Delta":138440208},{"NoteNumber":76,"Velocity":57,"Duration":112782,"SoundDuration":112782,"Delta":138547969},{"NoteNumber":74,"Velocity":65,"Duration":433409,"SoundDuration":433409,"Delta":138660751},{"NoteNumber":71,"Velocity":65,"Duration":433409,"SoundDuration":433409,"Delta":138660751},{"NoteNumber":55,"Velocity":60,"Duration":433409,"SoundDuration":433409,"Delta":138660751},{"NoteNumber":69,"Velocity":56,"Duration":113636,"SoundDuration":113636,"Delta":139094160},{"NoteNumber":72,"Velocity":56,"Duration":113636,"SoundDuration":113636,"Delta":139094160},{"NoteNumber":71,"Velocity":56,"Duration":106382,"SoundDuration":106382,"Delta":139321432},{"NoteNumber":74,"Velocity":56,"Duration":106382,"SoundDuration":106382,"Delta":139321432},{"NoteNumber":72,"Velocity":66,"Duration":104166,"SoundDuration":104166,"Delta":139534198},{"NoteNumber":76,"Velocity":66,"Duration":104166,"SoundDuration":104166,"Delta":139534198},{"NoteNumber":45,"Velocity":59,"Duration":104166,"SoundDuration":104166,"Delta":139534198},{"NoteNumber":72,"Velocity":57,"Duration":104166,"SoundDuration":104166,"Delta":139742532},{"NoteNumber":76,"Velocity":57,"Duration":104166,"SoundDuration":104166,"Delta":139742532},{"NoteNumber":57,"Velocity":53,"Duration":104166,"SoundDuration":104166,"Delta":139742532},{"NoteNumber":77,"Velocity":64,"Duration":102739,"SoundDuration":102739,"Delta":139950865},{"NoteNumber":48,"Velocity":59,"Duration":102739,"SoundDuration":102739,"Delta":139950865},{"NoteNumber":76,"Velocity":57,"Duration":102739,"SoundDuration":102739,"Delta":140053605},{"NoteNumber":74,"Velocity":57,"Duration":107760,"SoundDuration":107760,"Delta":140156345},{"NoteNumber":60,"Velocity":57,"Duration":107760,"SoundDuration":107760,"Delta":140156345},{"NoteNumber":72,"Velocity":57,"Duration":112782,"SoundDuration":112782,"Delta":140264106},{"NoteNumber":71,"Velocity":65,"Duration":431655,"SoundDuration":431655,"Delta":140376888},{"NoteNumber":68,"Velocity":65,"Duration":215827,"SoundDuration":215827,"Delta":140376888},{"NoteNumber":52,"Velocity":60,"Duration":431655,"SoundDuration":431655,"Delta":140376888},{"NoteNumber":64,"Velocity":59,"Duration":215827,"SoundDuration":215827,"Delta":140592715},{"NoteNumber":69,"Velocity":56,"Duration":108695,"SoundDuration":108695,"Delta":140808543},{"NoteNumber":72,"Velocity":56,"Duration":108695,"SoundDuration":108695,"Delta":140808543},{"NoteNumber":71,"Velocity":56,"Duration":106382,"SoundDuration":106382,"Delta":141025934},{"NoteNumber":74,"Velocity":56,"Duration":106382,"SoundDuration":106382,"Delta":141025934},{"NoteNumber":72,"Velocity":66,"Duration":104166,"SoundDuration":104166,"Delta":141238700},{"NoteNumber":76,"Velocity":66,"Duration":104166,"SoundDuration":104166,"Delta":141238700},{"NoteNumber":45,"Velocity":59,"Duration":104166,"SoundDuration":104166,"Delta":141238700},{"NoteNumber":72,"Velocity":57,"Duration":104166,"SoundDuration":104166,"Delta":141447034},{"NoteNumber":76,"Velocity":57,"Duration":104166,"SoundDuration":104166,"Delta":141447034},{"NoteNumber":57,"Velocity":53,"Duration":104166,"SoundDuration":104166,"Delta":141447034},{"NoteNumber":77,"Velocity":64,"Duration":102739,"SoundDuration":102739,"Delta":141655367},{"NoteNumber":48,"Velocity":59,"Duration":102739,"SoundDuration":102739,"Delta":141655367},{"NoteNumber":76,"Velocity":57,"Duration":102739,"SoundDuration":102739,"Delta":141758107},{"NoteNumber":74,"Velocity":57,"Duration":107760,"SoundDuration":107760,"Delta":141860847},{"NoteNumber":60,"Velocity":57,"Duration":107760,"SoundDuration":107760,"Delta":141860847},{"NoteNumber":72,"Velocity":57,"Duration":112782,"SoundDuration":112782,"Delta":141968608},{"NoteNumber":71,"Velocity":65,"Duration":431655,"SoundDuration":431655,"Delta":142081390},{"NoteNumber":68,"Velocity":65,"Duration":431655,"SoundDuration":431655,"Delta":142081390},{"NoteNumber":52,"Velocity":60,"Duration":431655,"SoundDuration":431655,"Delta":142081390},{"NoteNumber":71,"Velocity":56,"Duration":99337,"SoundDuration":99337,"Delta":142513045},{"NoteNumber":69,"Velocity":56,"Duration":99337,"SoundDuration":99337,"Delta":142612382},{"NoteNumber":68,"Velocity":56,"Duration":99337,"SoundDuration":99337,"Delta":142711720},{"NoteNumber":69,"Velocity":56,"Duration":112782,"SoundDuration":112782,"Delta":142811058},{"NoteNumber":72,"Velocity":59,"Duration":99337,"SoundDuration":99337,"Delta":142923840},{"NoteNumber":57,"Velocity":53,"Duration":99337,"SoundDuration":99337,"Delta":142923840},{"NoteNumber":64,"Velocity":47,"Duration":99337,"SoundDuration":99337,"Delta":143122515},{"NoteNumber":60,"Velocity":47,"Duration":99337,"SoundDuration":99337,"Delta":143122515},{"NoteNumber":74,"Velocity":62,"Duration":99999,"SoundDuration":99999,"Delta":143334635},{"NoteNumber":60,"Velocity":47,"Duration":99999,"SoundDuration":99999,"Delta":143334635},{"NoteNumber":64,"Velocity":47,"Duration":99999,"SoundDuration":99999,"Delta":143334635},{"NoteNumber":72,"Velocity":57,"Duration":99999,"SoundDuration":99999,"Delta":143434635},{"NoteNumber":71,"Velocity":57,"Duration":100000,"SoundDuration":100000,"Delta":143534635},{"NoteNumber":60,"Velocity":47,"Duration":100000,"SoundDuration":100000,"Delta":143534635},{"NoteNumber":64,"Velocity":47,"Duration":100000,"SoundDuration":100000,"Delta":143534635},{"NoteNumber":72,"Velocity":57,"Duration":113636,"SoundDuration":113636,"Delta":143634635},{"NoteNumber":76,"Velocity":66,"Duration":99337,"SoundDuration":99337,"Delta":143748271},{"NoteNumber":57,"Velocity":54,"Duration":99337,"SoundDuration":99337,"Delta":143748271},{"NoteNumber":64,"Velocity":48,"Duration":99337,"SoundDuration":99337,"Delta":143946947},{"NoteNumber":60,"Velocity":48,"Duration":99337,"SoundDuration":99337,"Delta":143946947},{"NoteNumber":77,"Velocity":63,"Duration":99337,"SoundDuration":99337,"Delta":144156579},{"NoteNumber":64,"Velocity":48,"Duration":99337,"SoundDuration":99337,"Delta":144156579},{"NoteNumber":60,"Velocity":48,"Duration":99337,"SoundDuration":99337,"Delta":144156579},{"NoteNumber":76,"Velocity":58,"Duration":99337,"SoundDuration":99337,"Delta":144255916},{"NoteNumber":75,"Velocity":58,"Duration":99337,"SoundDuration":99337,"Delta":144355254},{"NoteNumber":64,"Velocity":48,"Duration":99337,"SoundDuration":99337,"Delta":144355254},{"NoteNumber":60,"Velocity":48,"Duration":99337,"SoundDuration":99337,"Delta":144355254},{"NoteNumber":76,"Velocity":58,"Duration":104166,"SoundDuration":104166,"Delta":144454592},{"NoteNumber":83,"Velocity":70,"Duration":99999,"SoundDuration":99999,"Delta":144558759},{"NoteNumber":57,"Velocity":56,"Duration":99999,"SoundDuration":99999,"Delta":144558759},{"NoteNumber":81,"Velocity":63,"Duration":99999,"SoundDuration":99999,"Delta":144658759},{"NoteNumber":80,"Velocity":63,"Duration":100000,"SoundDuration":100000,"Delta":144758759},{"NoteNumber":64,"Velocity":49,"Duration":100000,"SoundDuration":100000,"Delta":144758759},{"NoteNumber":60,"Velocity":49,"Duration":100000,"SoundDuration":100000,"Delta":144758759},{"NoteNumber":81,"Velocity":63,"Duration":99999,"SoundDuration":99999,"Delta":144858759},{"NoteNumber":83,"Velocity":71,"Duration":103448,"SoundDuration":103448,"Delta":144958759},{"NoteNumber":57,"Velocity":57,"Duration":103448,"SoundDuration":103448,"Delta":144958759},{"NoteNumber":81,"Velocity":64,"Duration":103448,"SoundDuration":103448,"Delta":145062207},{"NoteNumber":80,"Velocity":64,"Duration":103448,"SoundDuration":103448,"Delta":145165655},{"NoteNumber":64,"Velocity":52,"Duration":103448,"SoundDuration":103448,"Delta":145165655},{"NoteNumber":60,"Velocity":43,"Duration":103448,"SoundDuration":103448,"Delta":145165655},{"NoteNumber":81,"Velocity":64,"Duration":128205,"SoundDuration":128205,"Delta":145269103},{"NoteNumber":84,"Velocity":76,"Duration":426743,"SoundDuration":426743,"Delta":145397309},{"NoteNumber":57,"Velocity":57,"Duration":102040,"SoundDuration":102040,"Delta":145397309},{"NoteNumber":63,"Velocity":51,"Duration":106382,"SoundDuration":106382,"Delta":145601390},{"NoteNumber":57,"Velocity":51,"Duration":106382,"SoundDuration":106382,"Delta":145601390},{"NoteNumber":81,"Velocity":62,"Duration":102739,"SoundDuration":102739,"Delta":145824052},{"NoteNumber":63,"Velocity":43,"Duration":102739,"SoundDuration":102739,"Delta":145824052},{"NoteNumber":57,"Velocity":43,"Duration":102739,"SoundDuration":102739,"Delta":145824052},{"NoteNumber":83,"Velocity":62,"Duration":107142,"SoundDuration":107142,"Delta":146029532},{"NoteNumber":63,"Velocity":39,"Duration":107142,"SoundDuration":107142,"Delta":146029532},{"NoteNumber":57,"Velocity":39,"Duration":107142,"SoundDuration":107142,"Delta":146029532},{"NoteNumber":84,"Velocity":70,"Duration":101351,"SoundDuration":101351,"Delta":146243817},{"NoteNumber":52,"Velocity":46,"Duration":101351,"SoundDuration":101351,"Delta":146243817},{"NoteNumber":83,"Velocity":62,"Duration":101351,"SoundDuration":101351,"Delta":146446520},{"NoteNumber":64,"Velocity":42,"Duration":101351,"SoundDuration":101351,"Delta":146446520},{"NoteNumber":57,"Velocity":42,"Duration":101351,"SoundDuration":101351,"Delta":146446520},{"NoteNumber":81,"Velocity":62,"Duration":103448,"SoundDuration":103448,"Delta":146649222},{"NoteNumber":50,"Velocity":42,"Duration":103448,"SoundDuration":103448,"Delta":146649222},{"NoteNumber":80,"Velocity":62,"Duration":107142,"SoundDuration":107142,"Delta":146856119},{"NoteNumber":59,"Velocity":42,"Duration":107142,"SoundDuration":107142,"Delta":146856119},{"NoteNumber":53,"Velocity":42,"Duration":107142,"SoundDuration":107142,"Delta":146856119},{"NoteNumber":81,"Velocity":71,"Duration":101351,"SoundDuration":101351,"Delta":147070404},{"NoteNumber":48,"Velocity":47,"Duration":101351,"SoundDuration":101351,"Delta":147070404},{"NoteNumber":76,"Velocity":64,"Duration":101351,"SoundDuration":101351,"Delta":147273107},{"NoteNumber":57,"Velocity":39,"Duration":101351,"SoundDuration":101351,"Delta":147273107},{"NoteNumber":52,"Velocity":39,"Duration":101351,"SoundDuration":101351,"Delta":147273107},{"NoteNumber":50,"Velocity":41,"Duration":104166,"SoundDuration":104166,"Delta":147475809},{"NoteNumber":77,"Velocity":64,"Duration":104166,"SoundDuration":104166,"Delta":147479281},{"NoteNumber":74,"Velocity":64,"Duration":107913,"SoundDuration":107913,"Delta":147684143},{"NoteNumber":59,"Velocity":41,"Duration":107913,"SoundDuration":107913,"Delta":147684143},{"NoteNumber":53,"Velocity":41,"Duration":107913,"SoundDuration":107913,"Delta":147684143},{"NoteNumber":72,"Velocity":74,"Duration":410958,"SoundDuration":410958,"Delta":147899970},{"NoteNumber":52,"Velocity":48,"Duration":102739,"SoundDuration":102739,"Delta":147899970},{"NoteNumber":57,"Velocity":48,"Duration":102739,"SoundDuration":102739,"Delta":147899970},{"NoteNumber":57,"Velocity":41,"Duration":102739,"SoundDuration":102739,"Delta":148105450},{"NoteNumber":52,"Velocity":41,"Duration":102739,"SoundDuration":102739,"Delta":148105450},{"NoteNumber":52,"Velocity":41,"Duration":108447,"SoundDuration":108447,"Delta":148306648},{"NoteNumber":71,"Velocity":64,"Duration":54347,"SoundDuration":54347,"Delta":148310929},{"NoteNumber":56,"Velocity":41,"Duration":108695,"SoundDuration":108695,"Delta":148310929},{"NoteNumber":72,"Velocity":57,"Duration":54347,"SoundDuration":54347,"Delta":148365277},{"NoteNumber":71,"Velocity":57,"Duration":54347,"SoundDuration":54347,"Delta":148419625},{"NoteNumber":72,"Velocity":57,"Duration":54347,"SoundDuration":54347,"Delta":148473973},{"NoteNumber":71,"Velocity":57,"Duration":3759,"SoundDuration":3759,"Delta":148528321},{"NoteNumber":52,"Velocity":41,"Duration":114223,"SoundDuration":114223,"Delta":148528321},{"NoteNumber":56,"Velocity":41,"Duration":114223,"SoundDuration":114223,"Delta":148528321},{"NoteNumber":72,"Velocity":57,"Duration":37523,"SoundDuration":37523,"Delta":148565915},{"NoteNumber":71,"Velocity":57,"Duration":39105,"SoundDuration":39105,"Delta":148603439},{"NoteNumber":69,"Velocity":64,"Duration":67056,"SoundDuration":67056,"Delta":148642544},{"NoteNumber":71,"Velocity":57,"Duration":75797,"SoundDuration":75797,"Delta":148709601},{"NoteNumber":69,"Velocity":65,"Duration":442913,"SoundDuration":442913,"Delta":148785399},{"NoteNumber":45,"Velocity":46,"Duration":472441,"SoundDuration":472441,"Delta":148785399},{"NoteNumber":57,"Velocity":46,"Duration":442913,"SoundDuration":442913,"Delta":148785399},{"NoteNumber":69,"Velocity":82,"Duration":103448,"SoundDuration":103448,"Delta":149257840},{"NoteNumber":81,"Velocity":79,"Duration":103448,"SoundDuration":103448,"Delta":149361288},{"NoteNumber":71,"Velocity":83,"Duration":107913,"SoundDuration":107913,"Delta":149464736},{"NoteNumber":83,"Velocity":80,"Duration":107913,"SoundDuration":107913,"Delta":149572650},{"NoteNumber":45,"Velocity":64,"Duration":35971,"SoundDuration":35971,"Delta":149572650},{"NoteNumber":49,"Velocity":70,"Duration":35971,"SoundDuration":35971,"Delta":149608621},{"NoteNumber":52,"Velocity":76,"Duration":35971,"SoundDuration":35971,"Delta":149644592},{"NoteNumber":73,"Velocity":89,"Duration":102040,"SoundDuration":102040,"Delta":149680564},{"NoteNumber":57,"Velocity":87,"Duration":102040,"SoundDuration":102040,"Delta":149680564},{"NoteNumber":85,"Velocity":84,"Duration":102040,"SoundDuration":102040,"Delta":149782604},{"NoteNumber":57,"Velocity":69,"Duration":105633,"SoundDuration":105633,"Delta":149884645},{"NoteNumber":69,"Velocity":85,"Duration":103448,"SoundDuration":103448,"Delta":150095913},{"NoteNumber":57,"Velocity":69,"Duration":103448,"SoundDuration":103448,"Delta":150095913},{"NoteNumber":81,"Velocity":73,"Duration":103448,"SoundDuration":103448,"Delta":150199361},{"NoteNumber":71,"Velocity":84,"Duration":105633,"SoundDuration":105633,"Delta":150302809},{"NoteNumber":57,"Velocity":69,"Duration":105633,"SoundDuration":105633,"Delta":150302809},{"NoteNumber":83,"Velocity":72,"Duration":105633,"SoundDuration":105633,"Delta":150408443},{"NoteNumber":45,"Velocity":65,"Duration":35211,"SoundDuration":35211,"Delta":150408443},{"NoteNumber":49,"Velocity":69,"Duration":35211,"SoundDuration":35211,"Delta":150443654},{"NoteNumber":52,"Velocity":73,"Duration":35211,"SoundDuration":35211,"Delta":150478865},{"NoteNumber":73,"Velocity":90,"Duration":102040,"SoundDuration":102040,"Delta":150514077},{"NoteNumber":57,"Velocity":85,"Duration":102040,"SoundDuration":102040,"Delta":150514077},{"NoteNumber":85,"Velocity":75,"Duration":102040,"SoundDuration":102040,"Delta":150616117},{"NoteNumber":71,"Velocity":84,"Duration":102739,"SoundDuration":102739,"Delta":150718158},{"NoteNumber":57,"Velocity":64,"Duration":102739,"SoundDuration":102739,"Delta":150718158},{"NoteNumber":83,"Velocity":73,"Duration":102739,"SoundDuration":102739,"Delta":150820898},{"NoteNumber":69,"Velocity":87,"Duration":102739,"SoundDuration":102739,"Delta":150923638},{"NoteNumber":57,"Velocity":65,"Duration":102739,"SoundDuration":102739,"Delta":150923638},{"NoteNumber":81,"Velocity":74,"Duration":102739,"SoundDuration":102739,"Delta":151026377},{"NoteNumber":68,"Velocity":83,"Duration":111940,"SoundDuration":111940,"Delta":151129117},{"NoteNumber":57,"Velocity":67,"Duration":111940,"SoundDuration":111940,"Delta":151129117},{"NoteNumber":80,"Velocity":76,"Duration":111940,"SoundDuration":111940,"Delta":151241057},{"NoteNumber":38,"Velocity":66,"Duration":37313,"SoundDuration":37313,"Delta":151241057},{"NoteNumber":42,"Velocity":71,"Duration":37313,"SoundDuration":37313,"Delta":151278371},{"NoteNumber":45,"Velocity":77,"Duration":37313,"SoundDuration":37313,"Delta":151315684},{"NoteNumber":66,"Velocity":88,"Duration":102739,"SoundDuration":102739,"Delta":151352998},{"NoteNumber":50,"Velocity":85,"Duration":102739,"SoundDuration":102739,"Delta":151352998},{"NoteNumber":78,"Velocity":75,"Duration":102739,"SoundDuration":102739,"Delta":151455737},{"NoteNumber":68,"Velocity":83,"Duration":104894,"SoundDuration":104894,"Delta":151558477},{"NoteNumber":50,"Velocity":69,"Duration":104894,"SoundDuration":104894,"Delta":151558477},{"NoteNumber":80,"Velocity":69,"Duration":104894,"SoundDuration":104894,"Delta":151663372},{"NoteNumber":39,"Velocity":68,"Duration":34964,"SoundDuration":34964,"Delta":151663372},{"NoteNumber":42,"Velocity":72,"Duration":34964,"SoundDuration":34964,"Delta":151698337},{"NoteNumber":45,"Velocity":75,"Duration":34964,"SoundDuration":34964,"Delta":151733302},{"NoteNumber":69,"Velocity":79,"Duration":107913,"SoundDuration":107913,"Delta":151768267},{"NoteNumber":51,"Velocity":85,"Duration":107913,"SoundDuration":107913,"Delta":151768267},{"NoteNumber":81,"Velocity":71,"Duration":107913,"SoundDuration":107913,"Delta":151876181},{"NoteNumber":71,"Velocity":81,"Duration":111940,"SoundDuration":111940,"Delta":151984095},{"NoteNumber":51,"Velocity":71,"Duration":111940,"SoundDuration":111940,"Delta":151984095},{"NoteNumber":83,"Velocity":73,"Duration":111940,"SoundDuration":111940,"Delta":152096035},{"NoteNumber":40,"Velocity":64,"Duration":37313,"SoundDuration":37313,"Delta":152096035},{"NoteNumber":44,"Velocity":69,"Duration":37313,"SoundDuration":37313,"Delta":152133348},{"NoteNumber":47,"Velocity":74,"Duration":37313,"SoundDuration":37313,"Delta":152170662},{"NoteNumber":68,"Velocity":86,"Duration":106382,"SoundDuration":106382,"Delta":152207975},{"NoteNumber":52,"Velocity":85,"Duration":212765,"SoundDuration":212765,"Delta":152207975},{"NoteNumber":80,"Velocity":73,"Duration":106382,"SoundDuration":106382,"Delta":152314358},{"NoteNumber":64,"Velocity":81,"Duration":113636,"SoundDuration":113636,"Delta":152420741},{"NoteNumber":52,"Velocity":73,"Duration":113636,"SoundDuration":113636,"Delta":152420741},{"NoteNumber":76,"Velocity":72,"Duration":113636,"SoundDuration":113636,"Delta":152534377},{"NoteNumber":69,"Velocity":83,"Duration":99337,"SoundDuration":99337,"Delta":152648014},{"NoteNumber":81,"Velocity":73,"Duration":99337,"SoundDuration":99337,"Delta":152747351},{"NoteNumber":71,"Velocity":82,"Duration":104894,"SoundDuration":104894,"Delta":152846689},{"NoteNumber":83,"Velocity":73,"Duration":104894,"SoundDuration":104894,"Delta":152951584},{"NoteNumber":45,"Velocity":67,"Duration":34964,"SoundDuration":34964,"Delta":152951584},{"NoteNumber":49,"Velocity":71,"Duration":34964,"SoundDuration":34964,"Delta":152986549},{"NoteNumber":52,"Velocity":76,"Duration":34964,"SoundDuration":34964,"Delta":153021514},{"NoteNumber":73,"Velocity":89,"Duration":102040,"SoundDuration":102040,"Delta":153056479},{"NoteNumber":57,"Velocity":84,"Duration":102040,"SoundDuration":102040,"Delta":153056479},{"NoteNumber":85,"Velocity":77,"Duration":102040,"SoundDuration":102040,"Delta":153158520},{"NoteNumber":57,"Velocity":69,"Duration":104894,"SoundDuration":104894,"Delta":153260561},{"NoteNumber":69,"Velocity":85,"Duration":102040,"SoundDuration":102040,"Delta":153470351},{"NoteNumber":57,"Velocity":69,"Duration":102040,"SoundDuration":102040,"Delta":153470351},{"NoteNumber":81,"Velocity":76,"Duration":102040,"SoundDuration":102040,"Delta":153572391},{"NoteNumber":71,"Velocity":84,"Duration":105633,"SoundDuration":105633,"Delta":153674432},{"NoteNumber":57,"Velocity":69,"Duration":105633,"SoundDuration":105633,"Delta":153674432},{"NoteNumber":83,"Velocity":77,"Duration":105633,"SoundDuration":105633,"Delta":153780066},{"NoteNumber":45,"Velocity":61,"Duration":35211,"SoundDuration":35211,"Delta":153780066},{"NoteNumber":49,"Velocity":66,"Duration":35211,"SoundDuration":35211,"Delta":153815277},{"NoteNumber":52,"Velocity":72,"Duration":35211,"SoundDuration":35211,"Delta":153850488},{"NoteNumber":73,"Velocity":92,"Duration":102739,"SoundDuration":102739,"Delta":153885700},{"NoteNumber":57,"Velocity":87,"Duration":102739,"SoundDuration":102739,"Delta":153885700},{"NoteNumber":85,"Velocity":77,"Duration":102739,"SoundDuration":102739,"Delta":153988439},{"NoteNumber":71,"Velocity":84,"Duration":103448,"SoundDuration":103448,"Delta":154091179},{"NoteNumber":57,"Velocity":64,"Duration":103448,"SoundDuration":103448,"Delta":154091179},{"NoteNumber":83,"Velocity":75,"Duration":103448,"SoundDuration":103448,"Delta":154194627},{"NoteNumber":69,"Velocity":88,"Duration":104166,"SoundDuration":104166,"Delta":154298076},{"NoteNumber":57,"Velocity":65,"Duration":104166,"SoundDuration":104166,"Delta":154298076},{"NoteNumber":81,"Velocity":77,"Duration":104166,"SoundDuration":104166,"Delta":154402242},{"NoteNumber":68,"Velocity":84,"Duration":108695,"SoundDuration":108695,"Delta":154506409},{"NoteNumber":57,"Velocity":67,"Duration":108695,"SoundDuration":108695,"Delta":154506409},{"NoteNumber":80,"Velocity":75,"Duration":108695,"SoundDuration":108695,"Delta":154615105},{"NoteNumber":38,"Velocity":68,"Duration":36231,"SoundDuration":36231,"Delta":154615105},{"NoteNumber":42,"Velocity":72,"Duration":36231,"SoundDuration":36231,"Delta":154651337},{"NoteNumber":45,"Velocity":76,"Duration":36231,"SoundDuration":36231,"Delta":154687569},{"NoteNumber":66,"Velocity":91,"Duration":103448,"SoundDuration":103448,"Delta":154723801},{"NoteNumber":50,"Velocity":83,"Duration":103448,"SoundDuration":103448,"Delta":154723801},{"NoteNumber":78,"Velocity":79,"Duration":103448,"SoundDuration":103448,"Delta":154827249},{"NoteNumber":71,"Velocity":82,"Duration":108695,"SoundDuration":108695,"Delta":154930697},{"NoteNumber":50,"Velocity":69,"Duration":108695,"SoundDuration":108695,"Delta":154930697},{"NoteNumber":83,"Velocity":72,"Duration":108695,"SoundDuration":108695,"Delta":155039393},{"NoteNumber":40,"Velocity":67,"Duration":36231,"SoundDuration":36231,"Delta":155039393},{"NoteNumber":44,"Velocity":72,"Duration":36231,"SoundDuration":36231,"Delta":155075625},{"NoteNumber":47,"Velocity":78,"Duration":36231,"SoundDuration":36231,"Delta":155111857},{"NoteNumber":68,"Velocity":86,"Duration":112782,"SoundDuration":112782,"Delta":155148089},{"NoteNumber":52,"Velocity":82,"Duration":112782,"SoundDuration":112782,"Delta":155148089},{"NoteNumber":80,"Velocity":75,"Duration":112781,"SoundDuration":112781,"Delta":155260871},{"NoteNumber":64,"Velocity":80,"Duration":116278,"SoundDuration":116278,"Delta":155373653},{"NoteNumber":52,"Velocity":71,"Duration":116278,"SoundDuration":116278,"Delta":155373653},{"NoteNumber":76,"Velocity":74,"Duration":116279,"SoundDuration":116279,"Delta":155489932},{"NoteNumber":69,"Velocity":78,"Duration":422932,"SoundDuration":422932,"Delta":155606211},{"NoteNumber":81,"Velocity":90,"Duration":422932,"SoundDuration":422932,"Delta":155606211},{"NoteNumber":45,"Velocity":84,"Duration":422932,"SoundDuration":422932,"Delta":155606211},{"NoteNumber":69,"Velocity":82,"Duration":101351,"SoundDuration":101351,"Delta":156057339},{"NoteNumber":81,"Velocity":79,"Duration":101351,"SoundDuration":101351,"Delta":156158690},{"NoteNumber":71,"Velocity":83,"Duration":107913,"SoundDuration":107913,"Delta":156260041},{"NoteNumber":83,"Velocity":80,"Duration":107913,"SoundDuration":107913,"Delta":156367955},{"NoteNumber":45,"Velocity":64,"Duration":35971,"SoundDuration":35971,"Delta":156367955},{"NoteNumber":49,"Velocity":70,"Duration":35971,"SoundDuration":35971,"Delta":156403926},{"NoteNumber":52,"Velocity":76,"Duration":35971,"SoundDuration":35971,"Delta":156439897},{"NoteNumber":73,"Velocity":89,"Duration":102040,"SoundDuration":102040,"Delta":156475869},{"NoteNumber":57,"Velocity":87,"Duration":102040,"SoundDuration":102040,"Delta":156475869},{"NoteNumber":85,"Velocity":84,"Duration":102040,"SoundDuration":102040,"Delta":156577909},{"NoteNumber":57,"Velocity":69,"Duration":105633,"SoundDuration":105633,"Delta":156679950},{"NoteNumber":69,"Velocity":85,"Duration":103448,"SoundDuration":103448,"Delta":156891218},{"NoteNumber":57,"Velocity":69,"Duration":103448,"SoundDuration":103448,"Delta":156891218},{"NoteNumber":81,"Velocity":73,"Duration":103448,"SoundDuration":103448,"Delta":156994666},{"NoteNumber":71,"Velocity":84,"Duration":105633,"SoundDuration":105633,"Delta":157098114},{"NoteNumber":57,"Velocity":69,"Duration":105633,"SoundDuration":105633,"Delta":157098114},{"NoteNumber":83,"Velocity":72,"Duration":105633,"SoundDuration":105633,"Delta":157203748},{"NoteNumber":45,"Velocity":65,"Duration":35211,"SoundDuration":35211,"Delta":157203748},{"NoteNumber":49,"Velocity":69,"Duration":35211,"SoundDuration":35211,"Delta":157238959},{"NoteNumber":52,"Velocity":73,"Duration":35211,"SoundDuration":35211,"Delta":157274170},{"NoteNumber":73,"Velocity":90,"Duration":102040,"SoundDuration":102040,"Delta":157309382},{"NoteNumber":57,"Velocity":85,"Duration":102040,"SoundDuration":102040,"Delta":157309382},{"NoteNumber":85,"Velocity":75,"Duration":102040,"SoundDuration":102040,"Delta":157411422},{"NoteNumber":71,"Velocity":84,"Duration":102739,"SoundDuration":102739,"Delta":157513463},{"NoteNumber":57,"Velocity":64,"Duration":102739,"SoundDuration":102739,"Delta":157513463},{"NoteNumber":83,"Velocity":73,"Duration":102739,"SoundDuration":102739,"Delta":157616203},{"NoteNumber":69,"Velocity":87,"Duration":102739,"SoundDuration":102739,"Delta":157718943},{"NoteNumber":57,"Velocity":65,"Duration":102739,"SoundDuration":102739,"Delta":157718943},{"NoteNumber":81,"Velocity":74,"Duration":102739,"SoundDuration":102739,"Delta":157821682},{"NoteNumber":68,"Velocity":83,"Duration":111940,"SoundDuration":111940,"Delta":157924422},{"NoteNumber":57,"Velocity":67,"Duration":111940,"SoundDuration":111940,"Delta":157924422},{"NoteNumber":80,"Velocity":76,"Duration":111940,"SoundDuration":111940,"Delta":158036362},{"NoteNumber":38,"Velocity":66,"Duration":37313,"SoundDuration":37313,"Delta":158036362},{"NoteNumber":42,"Velocity":71,"Duration":37313,"SoundDuration":37313,"Delta":158073676},{"NoteNumber":45,"Velocity":77,"Duration":37313,"SoundDuration":37313,"Delta":158110989},{"NoteNumber":66,"Velocity":88,"Duration":102739,"SoundDuration":102739,"Delta":158148303},{"NoteNumber":50,"Velocity":85,"Duration":102739,"SoundDuration":102739,"Delta":158148303},{"NoteNumber":78,"Velocity":75,"Duration":102739,"SoundDuration":102739,"Delta":158251042},{"NoteNumber":68,"Velocity":83,"Duration":104894,"SoundDuration":104894,"Delta":158353782},{"NoteNumber":50,"Velocity":69,"Duration":104894,"SoundDuration":104894,"Delta":158353782},{"NoteNumber":80,"Velocity":69,"Duration":104894,"SoundDuration":104894,"Delta":158458677},{"NoteNumber":39,"Velocity":68,"Duration":34964,"SoundDuration":34964,"Delta":158458677},{"NoteNumber":42,"Velocity":72,"Duration":34964,"SoundDuration":34964,"Delta":158493642},{"NoteNumber":45,"Velocity":75,"Duration":34964,"SoundDuration":34964,"Delta":158528607},{"NoteNumber":69,"Velocity":79,"Duration":107913,"SoundDuration":107913,"Delta":158563572},{"NoteNumber":51,"Velocity":85,"Duration":107913,"SoundDuration":107913,"Delta":158563572},{"NoteNumber":81,"Velocity":71,"Duration":107913,"SoundDuration":107913,"Delta":158671486},{"NoteNumber":71,"Velocity":81,"Duration":111940,"SoundDuration":111940,"Delta":158779400},{"NoteNumber":51,"Velocity":71,"Duration":111940,"SoundDuration":111940,"Delta":158779400},{"NoteNumber":83,"Velocity":73,"Duration":111940,"SoundDuration":111940,"Delta":158891340},{"NoteNumber":40,"Velocity":64,"Duration":37313,"SoundDuration":37313,"Delta":158891340},{"NoteNumber":44,"Velocity":69,"Duration":37313,"SoundDuration":37313,"Delta":158928653},{"NoteNumber":47,"Velocity":74,"Duration":37313,"SoundDuration":37313,"Delta":158965967},{"NoteNumber":68,"Velocity":86,"Duration":106382,"SoundDuration":106382,"Delta":159003280},{"NoteNumber":52,"Velocity":85,"Duration":212765,"SoundDuration":212765,"Delta":159003280},{"NoteNumber":80,"Velocity":73,"Duration":106382,"SoundDuration":106382,"Delta":159109663},{"NoteNumber":64,"Velocity":81,"Duration":110294,"SoundDuration":110294,"Delta":159216046},{"NoteNumber":52,"Velocity":73,"Duration":110294,"SoundDuration":110294,"Delta":159216046},{"NoteNumber":76,"Velocity":72,"Duration":110293,"SoundDuration":110293,"Delta":159326340},{"NoteNumber":69,"Velocity":83,"Duration":99337,"SoundDuration":99337,"Delta":159436634},{"NoteNumber":81,"Velocity":73,"Duration":99337,"SoundDuration":99337,"Delta":159535972},{"NoteNumber":71,"Velocity":82,"Duration":104894,"SoundDuration":104894,"Delta":159635310},{"NoteNumber":83,"Velocity":73,"Duration":104894,"SoundDuration":104894,"Delta":159740205},{"NoteNumber":45,"Velocity":67,"Duration":34964,"SoundDuration":34964,"Delta":159740205},{"NoteNumber":49,"Velocity":71,"Duration":34964,"SoundDuration":34964,"Delta":159775170},{"NoteNumber":52,"Velocity":76,"Duration":34964,"SoundDuration":34964,"Delta":159810135},{"NoteNumber":73,"Velocity":89,"Duration":102040,"SoundDuration":102040,"Delta":159845100},{"NoteNumber":57,"Velocity":84,"Duration":102040,"SoundDuration":102040,"Delta":159845100},{"NoteNumber":85,"Velocity":77,"Duration":102040,"SoundDuration":102040,"Delta":159947140},{"NoteNumber":57,"Velocity":69,"Duration":104894,"SoundDuration":104894,"Delta":160049181},{"NoteNumber":69,"Velocity":85,"Duration":102040,"SoundDuration":102040,"Delta":160258971},{"NoteNumber":57,"Velocity":69,"Duration":102040,"SoundDuration":102040,"Delta":160258971},{"NoteNumber":81,"Velocity":76,"Duration":102040,"SoundDuration":102040,"Delta":160361012},{"NoteNumber":71,"Velocity":84,"Duration":105633,"SoundDuration":105633,"Delta":160463053},{"NoteNumber":57,"Velocity":69,"Duration":105633,"SoundDuration":105633,"Delta":160463053},{"NoteNumber":83,"Velocity":77,"Duration":105633,"SoundDuration":105633,"Delta":160568686},{"NoteNumber":45,"Velocity":61,"Duration":35211,"SoundDuration":35211,"Delta":160568686},{"NoteNumber":49,"Velocity":66,"Duration":35211,"SoundDuration":35211,"Delta":160603898},{"NoteNumber":52,"Velocity":72,"Duration":35211,"SoundDuration":35211,"Delta":160639109},{"NoteNumber":73,"Velocity":92,"Duration":102739,"SoundDuration":102739,"Delta":160674320},{"NoteNumber":57,"Velocity":87,"Duration":102739,"SoundDuration":102739,"Delta":160674320},{"NoteNumber":85,"Velocity":77,"Duration":102739,"SoundDuration":102739,"Delta":160777060},{"NoteNumber":71,"Velocity":84,"Duration":103448,"SoundDuration":103448,"Delta":160879800},{"NoteNumber":57,"Velocity":64,"Duration":103448,"SoundDuration":103448,"Delta":160879800},{"NoteNumber":83,"Velocity":75,"Duration":103448,"SoundDuration":103448,"Delta":160983248},{"NoteNumber":69,"Velocity":88,"Duration":104166,"SoundDuration":104166,"Delta":161086696},{"NoteNumber":57,"Velocity":65,"Duration":104166,"SoundDuration":104166,"Delta":161086696},{"NoteNumber":81,"Velocity":77,"Duration":104166,"SoundDuration":104166,"Delta":161190863},{"NoteNumber":68,"Velocity":84,"Duration":108695,"SoundDuration":108695,"Delta":161295030},{"NoteNumber":57,"Velocity":67,"Duration":108695,"SoundDuration":108695,"Delta":161295030},{"NoteNumber":80,"Velocity":75,"Duration":108695,"SoundDuration":108695,"Delta":161403725},{"NoteNumber":38,"Velocity":68,"Duration":36231,"SoundDuration":36231,"Delta":161403725},{"NoteNumber":42,"Velocity":72,"Duration":36231,"SoundDuration":36231,"Delta":161439957},{"NoteNumber":45,"Velocity":76,"Duration":36231,"SoundDuration":36231,"Delta":161476189},{"NoteNumber":66,"Velocity":91,"Duration":103448,"SoundDuration":103448,"Delta":161512421},{"NoteNumber":50,"Velocity":83,"Duration":103448,"SoundDuration":103448,"Delta":161512421},{"NoteNumber":78,"Velocity":79,"Duration":103448,"SoundDuration":103448,"Delta":161615869},{"NoteNumber":71,"Velocity":82,"Duration":108695,"SoundDuration":108695,"Delta":161719318},{"NoteNumber":50,"Velocity":69,"Duration":108695,"SoundDuration":108695,"Delta":161719318},{"NoteNumber":83,"Velocity":72,"Duration":108695,"SoundDuration":108695,"Delta":161828013},{"NoteNumber":40,"Velocity":67,"Duration":36231,"SoundDuration":36231,"Delta":161828013},{"NoteNumber":44,"Velocity":72,"Duration":36231,"SoundDuration":36231,"Delta":161864245},{"NoteNumber":47,"Velocity":78,"Duration":36231,"SoundDuration":36231,"Delta":161900477},{"NoteNumber":68,"Velocity":86,"Duration":112782,"SoundDuration":112782,"Delta":161936709},{"NoteNumber":52,"Velocity":82,"Duration":112782,"SoundDuration":112782,"Delta":161936709},{"NoteNumber":80,"Velocity":75,"Duration":112781,"SoundDuration":112781,"Delta":162049491},{"NoteNumber":64,"Velocity":80,"Duration":116278,"SoundDuration":116278,"Delta":162162273},{"NoteNumber":52,"Velocity":71,"Duration":116278,"SoundDuration":116278,"Delta":162162273},{"NoteNumber":76,"Velocity":74,"Duration":105633,"SoundDuration":105633,"Delta":162278552},{"NoteNumber":45,"Velocity":61,"Duration":35211,"SoundDuration":35211,"Delta":162278552},{"NoteNumber":49,"Velocity":66,"Duration":35211,"SoundDuration":35211,"Delta":162313763},{"NoteNumber":52,"Velocity":72,"Duration":35211,"SoundDuration":35211,"Delta":162348975},{"NoteNumber":69,"Velocity":78,"Duration":412375,"SoundDuration":412375,"Delta":162384186},{"NoteNumber":81,"Velocity":90,"Duration":412375,"SoundDuration":412375,"Delta":162384186},{"NoteNumber":57,"Velocity":87,"Duration":102739,"SoundDuration":102739,"Delta":162384186},{"NoteNumber":57,"Velocity":64,"Duration":103448,"SoundDuration":103448,"Delta":162589665},{"NoteNumber":85,"Velocity":90,"Duration":317029,"SoundDuration":317029,"Delta":162796562},{"NoteNumber":73,"Velocity":78,"Duration":422663,"SoundDuration":422663,"Delta":162796562},{"NoteNumber":57,"Velocity":65,"Duration":104166,"SoundDuration":104166,"Delta":162796562},{"NoteNumber":57,"Velocity":64,"Duration":108695,"SoundDuration":108695,"Delta":163004895},{"NoteNumber":85,"Velocity":90,"Duration":79225,"SoundDuration":79225,"Delta":163113591},{"NoteNumber":45,"Velocity":61,"Duration":35211,"SoundDuration":35211,"Delta":163113591},{"NoteNumber":49,"Velocity":66,"Duration":35211,"SoundDuration":35211,"Delta":163148802},{"NoteNumber":52,"Velocity":72,"Duration":35211,"SoundDuration":35211,"Delta":163184014},{"NoteNumber":73,"Velocity":74,"Duration":438784,"SoundDuration":438784,"Delta":163192816},{"NoteNumber":76,"Velocity":77,"Duration":429981,"SoundDuration":429981,"Delta":163201619},{"NoteNumber":81,"Velocity":80,"Duration":421178,"SoundDuration":421178,"Delta":163210422},{"NoteNumber":85,"Velocity":90,"Duration":835039,"SoundDuration":835039,"Delta":163219225},{"NoteNumber":57,"Velocity":87,"Duration":102739,"SoundDuration":102739,"Delta":163219225},{"NoteNumber":57,"Velocity":68,"Duration":103448,"SoundDuration":103448,"Delta":163424704},{"NoteNumber":57,"Velocity":68,"Duration":104166,"SoundDuration":104166,"Delta":163631601},{"NoteNumber":57,"Velocity":68,"Duration":108695,"SoundDuration":108695,"Delta":163839934},{"NoteNumber":45,"Velocity":61,"Duration":35211,"SoundDuration":35211,"Delta":163948630},{"NoteNumber":49,"Velocity":66,"Duration":35211,"SoundDuration":35211,"Delta":163983841},{"NoteNumber":52,"Velocity":72,"Duration":35211,"SoundDuration":35211,"Delta":164019053},{"NoteNumber":73,"Velocity":74,"Duration":438784,"SoundDuration":438784,"Delta":164027855},{"NoteNumber":76,"Velocity":77,"Duration":429981,"SoundDuration":429981,"Delta":164036658},{"NoteNumber":81,"Velocity":80,"Duration":421178,"SoundDuration":421178,"Delta":164045461},{"NoteNumber":85,"Velocity":90,"Duration":835039,"SoundDuration":835039,"Delta":164054264},{"NoteNumber":57,"Velocity":87,"Duration":102739,"SoundDuration":102739,"Delta":164054264},{"NoteNumber":57,"Velocity":68,"Duration":103448,"SoundDuration":103448,"Delta":164259743},{"NoteNumber":57,"Velocity":68,"Duration":104166,"SoundDuration":104166,"Delta":164466640},{"NoteNumber":57,"Velocity":68,"Duration":108695,"SoundDuration":108695,"Delta":164674973},{"NoteNumber":45,"Velocity":61,"Duration":35211,"SoundDuration":35211,"Delta":164783669},{"NoteNumber":49,"Velocity":66,"Duration":35211,"SoundDuration":35211,"Delta":164818880},{"NoteNumber":52,"Velocity":72,"Duration":35211,"SoundDuration":35211,"Delta":164854092},{"NoteNumber":86,"Velocity":90,"Duration":102739,"SoundDuration":102739,"Delta":164889303},{"NoteNumber":57,"Velocity":87,"Duration":102739,"SoundDuration":102739,"Delta":164889303},{"NoteNumber":85,"Velocity":87,"Duration":102739,"SoundDuration":102739,"Delta":164992043},{"NoteNumber":83,"Velocity":86,"Duration":51724,"SoundDuration":51724,"Delta":165094782},{"NoteNumber":57,"Velocity":67,"Duration":103448,"SoundDuration":103448,"Delta":165094782},{"NoteNumber":85,"Velocity":86,"Duration":51724,"SoundDuration":51724,"Delta":165198231},{"NoteNumber":86,"Velocity":90,"Duration":104166,"SoundDuration":104166,"Delta":165301679},{"NoteNumber":57,"Velocity":67,"Duration":104166,"SoundDuration":104166,"Delta":165301679},{"NoteNumber":85,"Velocity":84,"Duration":104166,"SoundDuration":104166,"Delta":165405846},{"NoteNumber":83,"Velocity":84,"Duration":54347,"SoundDuration":54347,"Delta":165510012},{"NoteNumber":57,"Velocity":67,"Duration":108695,"SoundDuration":108695,"Delta":165510012},{"NoteNumber":85,"Velocity":85,"Duration":58139,"SoundDuration":58139,"Delta":165618708},{"NoteNumber":38,"Velocity":61,"Duration":38759,"SoundDuration":38759,"Delta":165618708},{"NoteNumber":42,"Velocity":66,"Duration":38759,"SoundDuration":38759,"Delta":165657468},{"NoteNumber":45,"Velocity":72,"Duration":38759,"SoundDuration":38759,"Delta":165696227},{"NoteNumber":78,"Velocity":80,"Duration":835039,"SoundDuration":835039,"Delta":165734987},{"NoteNumber":81,"Velocity":80,"Duration":835039,"SoundDuration":835039,"Delta":165734987},{"NoteNumber":86,"Velocity":90,"Duration":835039,"SoundDuration":835039,"Delta":165734987},{"NoteNumber":50,"Velocity":87,"Duration":102739,"SoundDuration":102739,"Delta":165734987},{"NoteNumber":50,"Velocity":67,"Duration":103448,"SoundDuration":103448,"Delta":165940467},{"NoteNumber":50,"Velocity":67,"Duration":104166,"SoundDuration":104166,"Delta":166147363},{"NoteNumber":50,"Velocity":67,"Duration":108431,"SoundDuration":108431,"Delta":166349620},{"NoteNumber":45,"Velocity":61,"Duration":35211,"SoundDuration":35211,"Delta":166464392},{"NoteNumber":49,"Velocity":66,"Duration":35211,"SoundDuration":35211,"Delta":166499604},{"NoteNumber":52,"Velocity":72,"Duration":35211,"SoundDuration":35211,"Delta":166534815},{"NoteNumber":86,"Velocity":76,"Duration":26408,"SoundDuration":26408,"Delta":166543618},{"NoteNumber":76,"Velocity":76,"Duration":52816,"SoundDuration":52816,"Delta":166570026},{"NoteNumber":81,"Velocity":76,"Duration":52816,"SoundDuration":52816,"Delta":166570026},{"NoteNumber":85,"Velocity":90,"Duration":52816,"SoundDuration":52816,"Delta":166570026},{"NoteNumber":57,"Velocity":87,"Duration":52816,"SoundDuration":52816,"Delta":166570026},{"NoteNumber":86,"Velocity":76,"Duration":26408,"SoundDuration":26408,"Delta":166754885},{"NoteNumber":76,"Velocity":72,"Duration":51724,"SoundDuration":51724,"Delta":166781294},{"NoteNumber":81,"Velocity":72,"Duration":51724,"SoundDuration":51724,"Delta":166781294},{"NoteNumber":85,"Velocity":85,"Duration":51724,"SoundDuration":51724,"Delta":166781294},{"NoteNumber":57,"Velocity":67,"Duration":51724,"SoundDuration":51724,"Delta":166781294},{"NoteNumber":86,"Velocity":76,"Duration":25862,"SoundDuration":25862,"Delta":166962328},{"NoteNumber":76,"Velocity":72,"Duration":52083,"SoundDuration":52083,"Delta":166988190},{"NoteNumber":81,"Velocity":72,"Duration":52083,"SoundDuration":52083,"Delta":166988190},{"NoteNumber":85,"Velocity":85,"Duration":52083,"SoundDuration":52083,"Delta":166988190},{"NoteNumber":57,"Velocity":67,"Duration":52083,"SoundDuration":52083,"Delta":166988190},{"NoteNumber":86,"Velocity":76,"Duration":26041,"SoundDuration":26041,"Delta":167170482},{"NoteNumber":76,"Velocity":72,"Duration":54347,"SoundDuration":54347,"Delta":167196524},{"NoteNumber":81,"Velocity":72,"Duration":54347,"SoundDuration":54347,"Delta":167196524},{"NoteNumber":85,"Velocity":85,"Duration":54347,"SoundDuration":54347,"Delta":167196524},{"NoteNumber":57,"Velocity":67,"Duration":54347,"SoundDuration":54347,"Delta":167196524},{"NoteNumber":40,"Velocity":61,"Duration":35211,"SoundDuration":35211,"Delta":167305219},{"NoteNumber":44,"Velocity":66,"Duration":35211,"SoundDuration":35211,"Delta":167340431},{"NoteNumber":47,"Velocity":72,"Duration":35211,"SoundDuration":35211,"Delta":167375642},{"NoteNumber":76,"Velocity":80,"Duration":887253,"SoundDuration":887253,"Delta":167410853},{"NoteNumber":80,"Velocity":80,"Duration":887253,"SoundDuration":887253,"Delta":167410853},{"NoteNumber":83,"Velocity":90,"Duration":731003,"SoundDuration":731003,"Delta":167410853},{"NoteNumber":52,"Velocity":87,"Duration":102739,"SoundDuration":102739,"Delta":167410853},{"NoteNumber":52,"Velocity":66,"Duration":103448,"SoundDuration":103448,"Delta":167616333},{"NoteNumber":52,"Velocity":66,"Duration":104166,"SoundDuration":104166,"Delta":167823229},{"NoteNumber":52,"Velocity":66,"Duration":110294,"SoundDuration":110294,"Delta":168031563},{"NoteNumber":88,"Velocity":103,"Duration":117187,"SoundDuration":117187,"Delta":168141857},{"NoteNumber":45,"Velocity":61,"Duration":52083,"SoundDuration":52083,"Delta":168141857},{"NoteNumber":49,"Velocity":66,"Duration":52083,"SoundDuration":52083,"Delta":168193940},{"NoteNumber":52,"Velocity":72,"Duration":52083,"SoundDuration":52083,"Delta":168246023},{"NoteNumber":73,"Velocity":74,"Duration":451438,"SoundDuration":451438,"Delta":168259044},{"NoteNumber":76,"Velocity":77,"Duration":438417,"SoundDuration":438417,"Delta":168272065},{"NoteNumber":81,"Velocity":80,"Duration":425396,"SoundDuration":425396,"Delta":168285086},{"NoteNumber":85,"Velocity":90,"Duration":835039,"SoundDuration":835039,"Delta":168298107},{"NoteNumber":57,"Velocity":87,"Duration":102739,"SoundDuration":102739,"Delta":168298107},{"NoteNumber":57,"Velocity":68,"Duration":103448,"SoundDuration":103448,"Delta":168503586},{"NoteNumber":57,"Velocity":68,"Duration":104166,"SoundDuration":104166,"Delta":168710483},{"NoteNumber":57,"Velocity":68,"Duration":108695,"SoundDuration":108695,"Delta":168918816},{"NoteNumber":45,"Velocity":61,"Duration":35211,"SoundDuration":35211,"Delta":169027512},{"NoteNumber":49,"Velocity":66,"Duration":35211,"SoundDuration":35211,"Delta":169062723},{"NoteNumber":52,"Velocity":72,"Duration":35211,"SoundDuration":35211,"Delta":169097934},{"NoteNumber":73,"Velocity":74,"Duration":438784,"SoundDuration":438784,"Delta":169106737},{"NoteNumber":76,"Velocity":77,"Duration":429981,"SoundDuration":429981,"Delta":169115540},{"NoteNumber":81,"Velocity":80,"Duration":421178,"SoundDuration":421178,"Delta":169124343},{"NoteNumber":85,"Velocity":90,"Duration":835039,"SoundDuration":835039,"Delta":169133146},{"NoteNumber":57,"Velocity":87,"Duration":102739,"SoundDuration":102739,"Delta":169133146},{"NoteNumber":57,"Velocity":66,"Duration":103448,"SoundDuration":103448,"Delta":169338625},{"NoteNumber":57,"Velocity":66,"Duration":104166,"SoundDuration":104166,"Delta":169545522},{"NoteNumber":57,"Velocity":66,"Duration":108695,"SoundDuration":108695,"Delta":169753855},{"NoteNumber":45,"Velocity":61,"Duration":35211,"SoundDuration":35211,"Delta":169862551},{"NoteNumber":49,"Velocity":66,"Duration":35211,"SoundDuration":35211,"Delta":169897762},{"NoteNumber":52,"Velocity":72,"Duration":35211,"SoundDuration":35211,"Delta":169932973},{"NoteNumber":86,"Velocity":90,"Duration":102739,"SoundDuration":102739,"Delta":169968185},{"NoteNumber":57,"Velocity":87,"Duration":102739,"SoundDuration":102739,"Delta":169968185},{"NoteNumber":85,"Velocity":87,"Duration":102739,"SoundDuration":102739,"Delta":170070924},{"NoteNumber":83,"Velocity":86,"Duration":51724,"SoundDuration":51724,"Delta":170173664},{"NoteNumber":57,"Velocity":66,"Duration":103448,"SoundDuration":103448,"Delta":170173664},{"NoteNumber":85,"Velocity":86,"Duration":51724,"SoundDuration":51724,"Delta":170277112},{"NoteNumber":86,"Velocity":90,"Duration":104166,"SoundDuration":104166,"Delta":170380561},{"NoteNumber":57,"Velocity":66,"Duration":104166,"SoundDuration":104166,"Delta":170380561},{"NoteNumber":85,"Velocity":84,"Duration":104166,"SoundDuration":104166,"Delta":170484727},{"NoteNumber":83,"Velocity":84,"Duration":54347,"SoundDuration":54347,"Delta":170588894},{"NoteNumber":57,"Velocity":66,"Duration":108695,"SoundDuration":108695,"Delta":170588894},{"NoteNumber":85,"Velocity":85,"Duration":58139,"SoundDuration":58139,"Delta":170697590},{"NoteNumber":38,"Velocity":61,"Duration":38759,"SoundDuration":38759,"Delta":170697590},{"NoteNumber":42,"Velocity":66,"Duration":38759,"SoundDuration":38759,"Delta":170736350},{"NoteNumber":45,"Velocity":72,"Duration":38759,"SoundDuration":38759,"Delta":170775109},{"NoteNumber":78,"Velocity":80,"Duration":835039,"SoundDuration":835039,"Delta":170813869},{"NoteNumber":81,"Velocity":80,"Duration":835039,"SoundDuration":835039,"Delta":170813869},{"NoteNumber":86,"Velocity":90,"Duration":835039,"SoundDuration":835039,"Delta":170813869},{"NoteNumber":50,"Velocity":87,"Duration":102739,"SoundDuration":102739,"Delta":170813869},{"NoteNumber":50,"Velocity":66,"Duration":103448,"SoundDuration":103448,"Delta":171019348},{"NoteNumber":50,"Velocity":66,"Duration":104166,"SoundDuration":104166,"Delta":171226245},{"NoteNumber":50,"Velocity":66,"Duration":108431,"SoundDuration":108431,"Delta":171428502},{"NoteNumber":45,"Velocity":61,"Duration":35211,"SoundDuration":35211,"Delta":171543274},{"NoteNumber":49,"Velocity":66,"Duration":35211,"SoundDuration":35211,"Delta":171578485},{"NoteNumber":52,"Velocity":72,"Duration":35211,"SoundDuration":35211,"Delta":171613697},{"NoteNumber":86,"Velocity":76,"Duration":26408,"SoundDuration":26408,"Delta":171622499},{"NoteNumber":76,"Velocity":76,"Duration":840827,"SoundDuration":840827,"Delta":171648908},{"NoteNumber":81,"Velocity":76,"Duration":840827,"SoundDuration":840827,"Delta":171648908},{"NoteNumber":85,"Velocity":90,"Duration":840827,"SoundDuration":840827,"Delta":171648908},{"NoteNumber":57,"Velocity":87,"Duration":105633,"SoundDuration":105633,"Delta":171648908},{"NoteNumber":57,"Velocity":66,"Duration":103448,"SoundDuration":103448,"Delta":171860175},{"NoteNumber":57,"Velocity":66,"Duration":104166,"SoundDuration":104166,"Delta":172067072},{"NoteNumber":57,"Velocity":66,"Duration":108695,"SoundDuration":108695,"Delta":172275405},{"NoteNumber":40,"Velocity":61,"Duration":35211,"SoundDuration":35211,"Delta":172384101},{"NoteNumber":44,"Velocity":66,"Duration":35211,"SoundDuration":35211,"Delta":172419312},{"NoteNumber":47,"Velocity":72,"Duration":35211,"SoundDuration":35211,"Delta":172454524},{"NoteNumber":85,"Velocity":76,"Duration":26408,"SoundDuration":26408,"Delta":172463326},{"NoteNumber":76,"Velocity":76,"Duration":51369,"SoundDuration":51369,"Delta":172489735},{"NoteNumber":80,"Velocity":76,"Duration":51369,"SoundDuration":51369,"Delta":172489735},{"NoteNumber":83,"Velocity":90,"Duration":51369,"SoundDuration":51369,"Delta":172489735},{"NoteNumber":52,"Velocity":87,"Duration":51369,"SoundDuration":51369,"Delta":172489735},{"NoteNumber":85,"Velocity":76,"Duration":25684,"SoundDuration":25684,"Delta":172669529},{"NoteNumber":76,"Velocity":72,"Duration":51724,"SoundDuration":51724,"Delta":172695214},{"NoteNumber":80,"Velocity":72,"Duration":51724,"SoundDuration":51724,"Delta":172695214},{"NoteNumber":83,"Velocity":85,"Duration":51724,"SoundDuration":51724,"Delta":172695214},{"NoteNumber":52,"Velocity":66,"Duration":51724,"SoundDuration":51724,"Delta":172695214},{"NoteNumber":85,"Velocity":76,"Duration":25862,"SoundDuration":25862,"Delta":172876249},{"NoteNumber":76,"Velocity":72,"Duration":52083,"SoundDuration":52083,"Delta":172902111},{"NoteNumber":80,"Velocity":72,"Duration":52083,"SoundDuration":52083,"Delta":172902111},{"NoteNumber":83,"Velocity":85,"Duration":52083,"SoundDuration":52083,"Delta":172902111},{"NoteNumber":52,"Velocity":65,"Duration":52083,"SoundDuration":52083,"Delta":172902111},{"NoteNumber":85,"Velocity":76,"Duration":26041,"SoundDuration":26041,"Delta":173084403},{"NoteNumber":76,"Velocity":72,"Duration":54347,"SoundDuration":54347,"Delta":173110444},{"NoteNumber":80,"Velocity":72,"Duration":54347,"SoundDuration":54347,"Delta":173110444},{"NoteNumber":83,"Velocity":85,"Duration":54347,"SoundDuration":54347,"Delta":173110444},{"NoteNumber":52,"Velocity":65,"Duration":54347,"SoundDuration":54347,"Delta":173110444},{"NoteNumber":81,"Velocity":90,"Duration":380435,"SoundDuration":380435,"Delta":173327836},{"NoteNumber":57,"Velocity":64,"Duration":108695,"SoundDuration":108695,"Delta":173327836},{"NoteNumber":64,"Velocity":54,"Duration":108695,"SoundDuration":108695,"Delta":173436532},{"NoteNumber":61,"Velocity":54,"Duration":108695,"SoundDuration":108695,"Delta":173545227},{"NoteNumber":64,"Velocity":54,"Duration":108695,"SoundDuration":108695,"Delta":173653923},{"NoteNumber":76,"Velocity":55,"Duration":27173,"SoundDuration":27173,"Delta":173708271},{"NoteNumber":81,"Velocity":60,"Duration":27173,"SoundDuration":27173,"Delta":173735445},{"NoteNumber":85,"Velocity":67,"Duration":317029,"SoundDuration":317029,"Delta":173762619},{"NoteNumber":57,"Velocity":40,"Duration":104166,"SoundDuration":104166,"Delta":173762619},{"NoteNumber":64,"Velocity":31,"Duration":104166,"SoundDuration":104166,"Delta":173866786},{"NoteNumber":61,"Velocity":31,"Duration":108695,"SoundDuration":108695,"Delta":173970952},{"NoteNumber":85,"Velocity":63,"Duration":52816,"SoundDuration":52816,"Delta":174079648},{"NoteNumber":64,"Velocity":31,"Duration":105633,"SoundDuration":105633,"Delta":174079648},{"NoteNumber":76,"Velocity":55,"Duration":26408,"SoundDuration":26408,"Delta":174132465},{"NoteNumber":81,"Velocity":60,"Duration":26408,"SoundDuration":26408,"Delta":174158873},{"NoteNumber":85,"Velocity":70,"Duration":782222,"SoundDuration":782222,"Delta":174185282},{"NoteNumber":57,"Velocity":40,"Duration":102739,"SoundDuration":102739,"Delta":174185282},{"NoteNumber":64,"Velocity":31,"Duration":102739,"SoundDuration":102739,"Delta":174288022},{"NoteNumber":61,"Velocity":31,"Duration":103448,"SoundDuration":103448,"Delta":174390761},{"NoteNumber":64,"Velocity":31,"Duration":103448,"SoundDuration":103448,"Delta":174494210},{"NoteNumber":57,"Velocity":40,"Duration":104166,"SoundDuration":104166,"Delta":174597658},{"NoteNumber":64,"Velocity":31,"Duration":104166,"SoundDuration":104166,"Delta":174701825},{"NoteNumber":61,"Velocity":31,"Duration":108695,"SoundDuration":108695,"Delta":174805991},{"NoteNumber":64,"Velocity":31,"Duration":105633,"SoundDuration":105633,"Delta":174914687},{"NoteNumber":76,"Velocity":55,"Duration":26408,"SoundDuration":26408,"Delta":174967504},{"NoteNumber":81,"Velocity":60,"Duration":26408,"SoundDuration":26408,"Delta":174993912},{"NoteNumber":85,"Velocity":69,"Duration":835039,"SoundDuration":835039,"Delta":175020321},{"NoteNumber":57,"Velocity":40,"Duration":102739,"SoundDuration":102739,"Delta":175020321},{"NoteNumber":64,"Velocity":31,"Duration":102739,"SoundDuration":102739,"Delta":175123061},{"NoteNumber":61,"Velocity":31,"Duration":103448,"SoundDuration":103448,"Delta":175225800},{"NoteNumber":64,"Velocity":31,"Duration":103448,"SoundDuration":103448,"Delta":175329249},{"NoteNumber":57,"Velocity":40,"Duration":104166,"SoundDuration":104166,"Delta":175432697},{"NoteNumber":64,"Velocity":31,"Duration":104166,"SoundDuration":104166,"Delta":175536864},{"NoteNumber":61,"Velocity":31,"Duration":108695,"SoundDuration":108695,"Delta":175641030},{"NoteNumber":64,"Velocity":31,"Duration":105633,"SoundDuration":105633,"Delta":175749726},{"NoteNumber":86,"Velocity":69,"Duration":102739,"SoundDuration":102739,"Delta":175855360},{"NoteNumber":57,"Velocity":40,"Duration":102739,"SoundDuration":102739,"Delta":175855360},{"NoteNumber":85,"Velocity":60,"Duration":102739,"SoundDuration":102739,"Delta":175958100},{"NoteNumber":64,"Velocity":31,"Duration":102739,"SoundDuration":102739,"Delta":175958100},{"NoteNumber":83,"Velocity":60,"Duration":51724,"SoundDuration":51724,"Delta":176060839},{"NoteNumber":61,"Velocity":31,"Duration":103448,"SoundDuration":103448,"Delta":176060839},{"NoteNumber":85,"Velocity":60,"Duration":51724,"SoundDuration":51724,"Delta":176164288},{"NoteNumber":64,"Velocity":31,"Duration":103448,"SoundDuration":103448,"Delta":176164288},{"NoteNumber":86,"Velocity":68,"Duration":104166,"SoundDuration":104166,"Delta":176267736},{"NoteNumber":57,"Velocity":40,"Duration":104166,"SoundDuration":104166,"Delta":176267736},{"NoteNumber":85,"Velocity":61,"Duration":104166,"SoundDuration":104166,"Delta":176371903},{"NoteNumber":64,"Velocity":31,"Duration":104166,"SoundDuration":104166,"Delta":176371903},{"NoteNumber":83,"Velocity":61,"Duration":54347,"SoundDuration":54347,"Delta":176476069},{"NoteNumber":61,"Velocity":31,"Duration":108695,"SoundDuration":108695,"Delta":176476069},{"NoteNumber":85,"Velocity":61,"Duration":58139,"SoundDuration":58139,"Delta":176584765},{"NoteNumber":64,"Velocity":31,"Duration":116278,"SoundDuration":116278,"Delta":176584765},{"NoteNumber":86,"Velocity":67,"Duration":835039,"SoundDuration":835039,"Delta":176701044},{"NoteNumber":57,"Velocity":40,"Duration":102739,"SoundDuration":102739,"Delta":176701044},{"NoteNumber":66,"Velocity":31,"Duration":102739,"SoundDuration":102739,"Delta":176803784},{"NoteNumber":62,"Velocity":31,"Duration":103448,"SoundDuration":103448,"Delta":176906524},{"NoteNumber":66,"Velocity":31,"Duration":103448,"SoundDuration":103448,"Delta":177009972},{"NoteNumber":57,"Velocity":40,"Duration":104166,"SoundDuration":104166,"Delta":177113420},{"NoteNumber":66,"Velocity":31,"Duration":104166,"SoundDuration":104166,"Delta":177217587},{"NoteNumber":62,"Velocity":31,"Duration":108695,"SoundDuration":108695,"Delta":177321754},{"NoteNumber":66,"Velocity":31,"Duration":105633,"SoundDuration":105633,"Delta":177430449},{"NoteNumber":86,"Velocity":59,"Duration":26408,"SoundDuration":26408,"Delta":177509675},{"NoteNumber":85,"Velocity":71,"Duration":52816,"SoundDuration":52816,"Delta":177536083},{"NoteNumber":57,"Velocity":40,"Duration":105633,"SoundDuration":105633,"Delta":177536083},{"NoteNumber":64,"Velocity":31,"Duration":105633,"SoundDuration":105633,"Delta":177641717},{"NoteNumber":86,"Velocity":56,"Duration":26408,"SoundDuration":26408,"Delta":177720942},{"NoteNumber":85,"Velocity":64,"Duration":51724,"SoundDuration":51724,"Delta":177747351},{"NoteNumber":61,"Velocity":31,"Duration":103448,"SoundDuration":103448,"Delta":177747351},{"NoteNumber":64,"Velocity":31,"Duration":103448,"SoundDuration":103448,"Delta":177850799},{"NoteNumber":86,"Velocity":57,"Duration":25862,"SoundDuration":25862,"Delta":177928385},{"NoteNumber":85,"Velocity":65,"Duration":52083,"SoundDuration":52083,"Delta":177954247},{"NoteNumber":57,"Velocity":40,"Duration":104166,"SoundDuration":104166,"Delta":177954247},{"NoteNumber":64,"Velocity":31,"Duration":104166,"SoundDuration":104166,"Delta":178058414},{"NoteNumber":86,"Velocity":59,"Duration":26041,"SoundDuration":26041,"Delta":178136539},{"NoteNumber":85,"Velocity":66,"Duration":54347,"SoundDuration":54347,"Delta":178162581},{"NoteNumber":61,"Velocity":31,"Duration":108695,"SoundDuration":108695,"Delta":178162581},{"NoteNumber":64,"Velocity":31,"Duration":105633,"SoundDuration":105633,"Delta":178271276},{"NoteNumber":83,"Velocity":67,"Duration":729405,"SoundDuration":729405,"Delta":178376910},{"NoteNumber":52,"Velocity":40,"Duration":102739,"SoundDuration":102739,"Delta":178376910},{"NoteNumber":64,"Velocity":31,"Duration":102739,"SoundDuration":102739,"Delta":178479650},{"NoteNumber":59,"Velocity":31,"Duration":103448,"SoundDuration":103448,"Delta":178582390},{"NoteNumber":64,"Velocity":31,"Duration":103448,"SoundDuration":103448,"Delta":178685838},{"NoteNumber":52,"Velocity":40,"Duration":104166,"SoundDuration":104166,"Delta":178789286},{"NoteNumber":64,"Velocity":31,"Duration":104166,"SoundDuration":104166,"Delta":178893453},{"NoteNumber":59,"Velocity":31,"Duration":108695,"SoundDuration":108695,"Delta":178997620},{"NoteNumber":88,"Velocity":94,"Duration":107142,"SoundDuration":107142,"Delta":179106315},{"NoteNumber":64,"Velocity":31,"Duration":71428,"SoundDuration":71428,"Delta":179106315},{"NoteNumber":45,"Velocity":61,"Duration":23809,"SoundDuration":23809,"Delta":179177744},{"NoteNumber":49,"Velocity":61,"Duration":23809,"SoundDuration":23809,"Delta":179201554},{"NoteNumber":73,"Velocity":74,"Duration":448090,"SoundDuration":448090,"Delta":179213458},{"NoteNumber":76,"Velocity":77,"Duration":436185,"SoundDuration":436185,"Delta":179225363},{"NoteNumber":52,"Velocity":61,"Duration":23809,"SoundDuration":23809,"Delta":179225363},{"NoteNumber":81,"Velocity":80,"Duration":424280,"SoundDuration":424280,"Delta":179237268},{"NoteNumber":85,"Velocity":90,"Duration":835039,"SoundDuration":835039,"Delta":179249173},{"NoteNumber":57,"Velocity":87,"Duration":102739,"SoundDuration":102739,"Delta":179249173},{"NoteNumber":57,"Velocity":67,"Duration":103448,"SoundDuration":103448,"Delta":179454652},{"NoteNumber":57,"Velocity":67,"Duration":104166,"SoundDuration":104166,"Delta":179661549},{"NoteNumber":57,"Velocity":64,"Duration":108695,"SoundDuration":108695,"Delta":179869882},{"NoteNumber":45,"Velocity":61,"Duration":35211,"SoundDuration":35211,"Delta":179978578},{"NoteNumber":49,"Velocity":66,"Duration":35211,"SoundDuration":35211,"Delta":180013789},{"NoteNumber":52,"Velocity":72,"Duration":35211,"SoundDuration":35211,"Delta":180049000},{"NoteNumber":73,"Velocity":74,"Duration":438784,"SoundDuration":438784,"Delta":180057803},{"NoteNumber":76,"Velocity":77,"Duration":429981,"SoundDuration":429981,"Delta":180066606},{"NoteNumber":81,"Velocity":80,"Duration":421178,"SoundDuration":421178,"Delta":180075409},{"NoteNumber":85,"Velocity":90,"Duration":835039,"SoundDuration":835039,"Delta":180084212},{"NoteNumber":57,"Velocity":87,"Duration":102739,"SoundDuration":102739,"Delta":180084212},{"NoteNumber":57,"Velocity":66,"Duration":103448,"SoundDuration":103448,"Delta":180289691},{"NoteNumber":57,"Velocity":66,"Duration":104166,"SoundDuration":104166,"Delta":180496588},{"NoteNumber":57,"Velocity":66,"Duration":108695,"SoundDuration":108695,"Delta":180704921},{"NoteNumber":45,"Velocity":61,"Duration":35211,"SoundDuration":35211,"Delta":180813617},{"NoteNumber":49,"Velocity":66,"Duration":35211,"SoundDuration":35211,"Delta":180848828},{"NoteNumber":52,"Velocity":72,"Duration":35211,"SoundDuration":35211,"Delta":180884039},{"NoteNumber":86,"Velocity":90,"Duration":102739,"SoundDuration":102739,"Delta":180919251},{"NoteNumber":57,"Velocity":87,"Duration":102739,"SoundDuration":102739,"Delta":180919251},{"NoteNumber":85,"Velocity":87,"Duration":102739,"SoundDuration":102739,"Delta":181021990},{"NoteNumber":83,"Velocity":86,"Duration":51724,"SoundDuration":51724,"Delta":181124730},{"NoteNumber":57,"Velocity":67,"Duration":103448,"SoundDuration":103448,"Delta":181124730},{"NoteNumber":85,"Velocity":86,"Duration":51724,"SoundDuration":51724,"Delta":181228178},{"NoteNumber":86,"Velocity":90,"Duration":104166,"SoundDuration":104166,"Delta":181331627},{"NoteNumber":57,"Velocity":67,"Duration":104166,"SoundDuration":104166,"Delta":181331627},{"NoteNumber":85,"Velocity":84,"Duration":104166,"SoundDuration":104166,"Delta":181435793},{"NoteNumber":83,"Velocity":84,"Duration":54347,"SoundDuration":54347,"Delta":181539960},{"NoteNumber":57,"Velocity":67,"Duration":108695,"SoundDuration":108695,"Delta":181539960},{"NoteNumber":85,"Velocity":85,"Duration":58139,"SoundDuration":58139,"Delta":181648656},{"NoteNumber":38,"Velocity":61,"Duration":38759,"SoundDuration":38759,"Delta":181648656},{"NoteNumber":42,"Velocity":66,"Duration":38759,"SoundDuration":38759,"Delta":181687416},{"NoteNumber":45,"Velocity":72,"Duration":38759,"SoundDuration":38759,"Delta":181726175},{"NoteNumber":78,"Velocity":80,"Duration":835039,"SoundDuration":835039,"Delta":181764935},{"NoteNumber":81,"Velocity":80,"Duration":835039,"SoundDuration":835039,"Delta":181764935},{"NoteNumber":86,"Velocity":90,"Duration":835039,"SoundDuration":835039,"Delta":181764935},{"NoteNumber":50,"Velocity":87,"Duration":102739,"SoundDuration":102739,"Delta":181764935},{"NoteNumber":50,"Velocity":68,"Duration":103448,"SoundDuration":103448,"Delta":181970414},{"NoteNumber":50,"Velocity":68,"Duration":104166,"SoundDuration":104166,"Delta":182177311},{"NoteNumber":50,"Velocity":68,"Duration":108431,"SoundDuration":108431,"Delta":182379568},{"NoteNumber":45,"Velocity":61,"Duration":35211,"SoundDuration":35211,"Delta":182494340},{"NoteNumber":49,"Velocity":66,"Duration":35211,"SoundDuration":35211,"Delta":182529551},{"NoteNumber":52,"Velocity":72,"Duration":35211,"SoundDuration":35211,"Delta":182564763},{"NoteNumber":86,"Velocity":76,"Duration":26408,"SoundDuration":26408,"Delta":182573565},{"NoteNumber":76,"Velocity":76,"Duration":840827,"SoundDuration":840827,"Delta":182599974},{"NoteNumber":81,"Velocity":76,"Duration":840827,"SoundDuration":840827,"Delta":182599974},{"NoteNumber":85,"Velocity":90,"Duration":840827,"SoundDuration":840827,"Delta":182599974},{"NoteNumber":57,"Velocity":87,"Duration":105633,"SoundDuration":105633,"Delta":182599974},{"NoteNumber":57,"Velocity":67,"Duration":103448,"SoundDuration":103448,"Delta":182811241},{"NoteNumber":57,"Velocity":67,"Duration":104166,"SoundDuration":104166,"Delta":183018138},{"NoteNumber":57,"Velocity":67,"Duration":108695,"SoundDuration":108695,"Delta":183226471},{"NoteNumber":40,"Velocity":61,"Duration":35211,"SoundDuration":35211,"Delta":183335167},{"NoteNumber":44,"Velocity":66,"Duration":35211,"SoundDuration":35211,"Delta":183370378},{"NoteNumber":47,"Velocity":72,"Duration":35211,"SoundDuration":35211,"Delta":183405590},{"NoteNumber":85,"Velocity":76,"Duration":26408,"SoundDuration":26408,"Delta":183414392},{"NoteNumber":76,"Velocity":76,"Duration":51369,"SoundDuration":51369,"Delta":183440801},{"NoteNumber":80,"Velocity":76,"Duration":51369,"SoundDuration":51369,"Delta":183440801},{"NoteNumber":83,"Velocity":90,"Duration":51369,"SoundDuration":51369,"Delta":183440801},{"NoteNumber":52,"Velocity":87,"Duration":51369,"SoundDuration":51369,"Delta":183440801},{"NoteNumber":85,"Velocity":76,"Duration":25684,"SoundDuration":25684,"Delta":183620595},{"NoteNumber":76,"Velocity":72,"Duration":51724,"SoundDuration":51724,"Delta":183646280},{"NoteNumber":80,"Velocity":72,"Duration":51724,"SoundDuration":51724,"Delta":183646280},{"NoteNumber":83,"Velocity":85,"Duration":51724,"SoundDuration":51724,"Delta":183646280},{"NoteNumber":52,"Velocity":67,"Duration":51724,"SoundDuration":51724,"Delta":183646280},{"NoteNumber":85,"Velocity":76,"Duration":25862,"SoundDuration":25862,"Delta":183827315},{"NoteNumber":76,"Velocity":72,"Duration":52083,"SoundDuration":52083,"Delta":183853177},{"NoteNumber":80,"Velocity":72,"Duration":52083,"SoundDuration":52083,"Delta":183853177},{"NoteNumber":83,"Velocity":85,"Duration":52083,"SoundDuration":52083,"Delta":183853177},{"NoteNumber":52,"Velocity":67,"Duration":52083,"SoundDuration":52083,"Delta":183853177},{"NoteNumber":85,"Velocity":76,"Duration":26041,"SoundDuration":26041,"Delta":184035469},{"NoteNumber":76,"Velocity":72,"Duration":54347,"SoundDuration":54347,"Delta":184061510},{"NoteNumber":80,"Velocity":72,"Duration":54347,"SoundDuration":54347,"Delta":184061510},{"NoteNumber":83,"Velocity":85,"Duration":54347,"SoundDuration":54347,"Delta":184061510},{"NoteNumber":52,"Velocity":67,"Duration":54347,"SoundDuration":54347,"Delta":184061510},{"NoteNumber":45,"Velocity":61,"Duration":35211,"SoundDuration":35211,"Delta":184170206},{"NoteNumber":49,"Velocity":66,"Duration":35211,"SoundDuration":35211,"Delta":184205417},{"NoteNumber":52,"Velocity":72,"Duration":35211,"SoundDuration":35211,"Delta":184240629},{"NoteNumber":69,"Velocity":90,"Duration":633802,"SoundDuration":633802,"Delta":184275840},{"NoteNumber":73,"Velocity":90,"Duration":633802,"SoundDuration":633802,"Delta":184275840},{"NoteNumber":76,"Velocity":90,"Duration":633802,"SoundDuration":633802,"Delta":184275840},{"NoteNumber":81,"Velocity":90,"Duration":633802,"SoundDuration":633802,"Delta":184275840},{"NoteNumber":57,"Velocity":87,"Duration":105633,"SoundDuration":105633,"Delta":184275840},{"NoteNumber":57,"Velocity":67,"Duration":105633,"SoundDuration":105633,"Delta":184487107},{"NoteNumber":57,"Velocity":67,"Duration":105633,"SoundDuration":105633,"Delta":184698375},{"NoteNumber":73,"Velocity":73,"Duration":57692,"SoundDuration":57692,"Delta":184909642},{"NoteNumber":85,"Velocity":87,"Duration":57692,"SoundDuration":57692,"Delta":184909642},{"NoteNumber":57,"Velocity":67,"Duration":115384,"SoundDuration":115384,"Delta":184909642},{"NoteNumber":45,"Velocity":61,"Duration":38461,"SoundDuration":38461,"Delta":185025027},{"NoteNumber":49,"Velocity":66,"Duration":38461,"SoundDuration":38461,"Delta":185063488},{"NoteNumber":52,"Velocity":72,"Duration":38461,"SoundDuration":38461,"Delta":185101950},{"NoteNumber":69,"Velocity":90,"Duration":633802,"SoundDuration":633802,"Delta":185140411},{"NoteNumber":81,"Velocity":90,"Duration":633802,"SoundDuration":633802,"Delta":185140411},{"NoteNumber":57,"Velocity":87,"Duration":105633,"SoundDuration":105633,"Delta":185140411},{"NoteNumber":57,"Velocity":66,"Duration":105633,"SoundDuration":105633,"Delta":185351679},{"NoteNumber":57,"Velocity":66,"Duration":105633,"SoundDuration":105633,"Delta":185562946},{"NoteNumber":73,"Velocity":73,"Duration":58593,"SoundDuration":58593,"Delta":185774214},{"NoteNumber":85,"Velocity":87,"Duration":58593,"SoundDuration":58593,"Delta":185774214},{"NoteNumber":57,"Velocity":66,"Duration":117187,"SoundDuration":117187,"Delta":185774214},{"NoteNumber":45,"Velocity":61,"Duration":39062,"SoundDuration":39062,"Delta":185891401},{"NoteNumber":49,"Velocity":66,"Duration":39062,"SoundDuration":39062,"Delta":185930464},{"NoteNumber":52,"Velocity":72,"Duration":39062,"SoundDuration":39062,"Delta":185969526},{"NoteNumber":69,"Velocity":90,"Duration":633802,"SoundDuration":633802,"Delta":186008589},{"NoteNumber":81,"Velocity":90,"Duration":633802,"SoundDuration":633802,"Delta":186008589},{"NoteNumber":57,"Velocity":87,"Duration":105633,"SoundDuration":105633,"Delta":186008589},{"NoteNumber":57,"Velocity":67,"Duration":105633,"SoundDuration":105633,"Delta":186219856},{"NoteNumber":57,"Velocity":67,"Duration":105633,"SoundDuration":105633,"Delta":186431124},{"NoteNumber":73,"Velocity":73,"Duration":57251,"SoundDuration":57251,"Delta":186642391},{"NoteNumber":85,"Velocity":87,"Duration":57251,"SoundDuration":57251,"Delta":186642391},{"NoteNumber":57,"Velocity":67,"Duration":114503,"SoundDuration":114503,"Delta":186642391},{"NoteNumber":45,"Velocity":61,"Duration":38167,"SoundDuration":38167,"Delta":186756895},{"NoteNumber":49,"Velocity":66,"Duration":38167,"SoundDuration":38167,"Delta":186795063},{"NoteNumber":52,"Velocity":72,"Duration":38167,"SoundDuration":38167,"Delta":186833231},{"NoteNumber":69,"Velocity":82,"Duration":106382,"SoundDuration":106382,"Delta":186871399},{"NoteNumber":81,"Velocity":97,"Duration":106382,"SoundDuration":106382,"Delta":186871399},{"NoteNumber":57,"Velocity":95,"Duration":106382,"SoundDuration":106382,"Delta":186871399},{"NoteNumber":73,"Velocity":78,"Duration":104166,"SoundDuration":104166,"Delta":187084165},{"NoteNumber":85,"Velocity":92,"Duration":104166,"SoundDuration":104166,"Delta":187084165},{"NoteNumber":57,"Velocity":70,"Duration":104166,"SoundDuration":104166,"Delta":187084165},{"NoteNumber":45,"Velocity":67,"Duration":34722,"SoundDuration":34722,"Delta":187188332},{"NoteNumber":49,"Velocity":72,"Duration":34722,"SoundDuration":34722,"Delta":187223054},{"NoteNumber":52,"Velocity":79,"Duration":34722,"SoundDuration":34722,"Delta":187257776},{"NoteNumber":69,"Velocity":83,"Duration":104166,"SoundDuration":104166,"Delta":187292498},{"NoteNumber":81,"Velocity":99,"Duration":104166,"SoundDuration":104166,"Delta":187292498},{"NoteNumber":57,"Velocity":95,"Duration":104166,"SoundDuration":104166,"Delta":187292498},{"NoteNumber":73,"Velocity":79,"Duration":111940,"SoundDuration":111940,"Delta":187500832},{"NoteNumber":85,"Velocity":93,"Duration":111940,"SoundDuration":111940,"Delta":187500832},{"NoteNumber":57,"Velocity":70,"Duration":111940,"SoundDuration":111940,"Delta":187500832},{"NoteNumber":69,"Velocity":90,"Duration":458014,"SoundDuration":458014,"Delta":187724712},{"NoteNumber":81,"Velocity":108,"Duration":458014,"SoundDuration":458014,"Delta":187724712},{"NoteNumber":45,"Velocity":88,"Duration":458014,"SoundDuration":458014,"Delta":187724712},{"NoteNumber":69,"Velocity":82,"Duration":500000,"SoundDuration":500000,"Delta":188182727},{"NoteNumber":73,"Velocity":82,"Duration":500000,"SoundDuration":500000,"Delta":188182727},{"NoteNumber":76,"Velocity":82,"Duration":500000,"SoundDuration":500000,"Delta":188182727},{"NoteNumber":81,"Velocity":97,"Duration":500000,"SoundDuration":500000,"Delta":188182727},{"NoteNumber":57,"Velocity":88,"Duration":500000,"SoundDuration":500000,"Delta":188182727},{"NoteNumber":69,"Velocity":86,"Duration":500000,"SoundDuration":500000,"Delta":188682727},{"NoteNumber":73,"Velocity":86,"Duration":500000,"SoundDuration":500000,"Delta":188682727},{"NoteNumber":76,"Velocity":86,"Duration":500000,"SoundDuration":500000,"Delta":188682727},{"NoteNumber":81,"Velocity":103,"Duration":500000,"SoundDuration":500000,"Delta":188682727},{"NoteNumber":45,"Velocity":74,"Duration":500000,"SoundDuration":500000,"Delta":188682727},{"NoteNumber":49,"Velocity":74,"Duration":500000,"SoundDuration":500000,"Delta":188682727},{"NoteNumber":52,"Velocity":74,"Duration":500000,"SoundDuration":500000,"Delta":188682727},{"NoteNumber":57,"Velocity":88,"Duration":500000,"SoundDuration":500000,"Delta":188682727}],"license":{"name":"Creative Commons Attribution-ShareAlike 3.0 Germany","url":"http://creativecommons.org/licenses/by-sa/3.0/de/deed.en","text":"The MIDI files in this folder were downloaded from http://www.piano-midi.de and are licensed under the Creative Commons Attribution-ShareAlike 3.0 Germany license by Bernd Krueger.\n\nThe MIDI, audio(MP3, OGG) and video files of Bernd Krueger are licensed under the cc-by-sa Germany License . This means, that you can use and adapt the files, as long as you attribute to the copyright holder Name: Bernd Krueger Source: http://www.piano-midi.de The distribution or public playback of the files is only allowed under identical license conditions . The scores are open source.","attribution":"Bernd Krueger","attributionUrl":"http://www.piano-midi.de"}}