{"title":"Piano Sonata No. 16 in C major, K. 545: I. Allegro","artist":"Mozart","durationMs":261134,"midiSha256":"f556dffca00871ded588d66c599839396ef26f5df14eda64f8b3d3e2d257e65c","midiObject":[{"NoteNumber":72,"Velocity":60,"Duration":878864,"SoundDuration":878864,"Delta":0},{"NoteNumber":60,"Velocity":40,"Duration":219716,"SoundDuration":219716,"Delta":0},{"NoteNumber":67,"Velocity":30,"Duration":219716,"SoundDuration":219716,"Delta":219716},{"NoteNumber":64,"Velocity":30,"Duration":219715,"SoundDuration":219715,"Delta":439432},{"NoteNumber":67,"Velocity":30,"Duration":219716,"SoundDuration":219716,"Delta":659148},{"NoteNumber":76,"Velocity":60,"Duration":433182,"SoundDuration":433182,"Delta":878864},{"NoteNumber":60,"Velocity":40,"Duration":216590,"SoundDuration":216590,"Delta":878864},{"NoteNumber":67,"Velocity":30,"Duration":216591,"SoundDuration":216591,"Delta":1095454},{"NoteNumber":79,"Velocity":60,"Duration":444050,"SoundDuration":444050,"Delta":1312046},{"NoteNumber":64,"Velocity":30,"Duration":222024,"SoundDuration":222024,"Delta":1312046},{"NoteNumber":67,"Velocity":30,"Duration":222025,"SoundDuration":222025,"Delta":1534071},{"NoteNumber":71,"Velocity":60,"Duration":659987,"SoundDuration":659987,"Delta":1756096},{"NoteNumber":62,"Velocity":30,"Duration":222025,"SoundDuration":222025,"Delta":1756096},{"NoteNumber":67,"Velocity":29,"Duration":219590,"SoundDuration":219590,"Delta":1978121},{"NoteNumber":65,"Velocity":31,"Duration":218372,"SoundDuration":218372,"Delta":2197711},{"NoteNumber":72,"Velocity":55,"Duration":109186,"SoundDuration":109186,"Delta":2416083},{"NoteNumber":67,"Velocity":28,"Duration":218372,"SoundDuration":218372,"Delta":2416083},{"NoteNumber":74,"Velocity":51,"Duration":109186,"SoundDuration":109186,"Delta":2525269},{"NoteNumber":72,"Velocity":60,"Duration":440399,"SoundDuration":440399,"Delta":2634456},{"NoteNumber":60,"Velocity":40,"Duration":220199,"SoundDuration":220199,"Delta":2634456},{"NoteNumber":67,"Velocity":29,"Duration":220199,"SoundDuration":220199,"Delta":2854655},{"NoteNumber":64,"Velocity":32,"Duration":220199,"SoundDuration":220199,"Delta":3074855},{"NoteNumber":67,"Velocity":29,"Duration":220199,"SoundDuration":220199,"Delta":3295054},{"NoteNumber":81,"Velocity":64,"Duration":866363,"SoundDuration":866363,"Delta":3515254},{"NoteNumber":60,"Velocity":40,"Duration":216590,"SoundDuration":216590,"Delta":3515254},{"NoteNumber":69,"Velocity":32,"Duration":216591,"SoundDuration":216591,"Delta":3731845},{"NoteNumber":65,"Velocity":32,"Duration":216591,"SoundDuration":216591,"Delta":3948436},{"NoteNumber":69,"Velocity":32,"Duration":216590,"SoundDuration":216590,"Delta":4165027},{"NoteNumber":79,"Velocity":62,"Duration":429646,"SoundDuration":429646,"Delta":4381618},{"NoteNumber":60,"Velocity":40,"Duration":214823,"SoundDuration":214823,"Delta":4381618},{"NoteNumber":67,"Velocity":32,"Duration":214823,"SoundDuration":214823,"Delta":4596441},{"NoteNumber":84,"Velocity":64,"Duration":434940,"SoundDuration":434940,"Delta":4811264},{"NoteNumber":64,"Velocity":32,"Duration":217469,"SoundDuration":217469,"Delta":4811264},{"NoteNumber":67,"Velocity":32,"Duration":217470,"SoundDuration":217470,"Delta":5028733},{"NoteNumber":79,"Velocity":64,"Duration":429646,"SoundDuration":429646,"Delta":5246204},{"NoteNumber":59,"Velocity":40,"Duration":214823,"SoundDuration":214823,"Delta":5246204},{"NoteNumber":67,"Velocity":32,"Duration":214823,"SoundDuration":214823,"Delta":5461027},{"NoteNumber":77,"Velocity":55,"Duration":71607,"SoundDuration":71607,"Delta":5675850},{"NoteNumber":62,"Velocity":32,"Duration":214823,"SoundDuration":214823,"Delta":5675850},{"NoteNumber":79,"Velocity":55,"Duration":71607,"SoundDuration":71607,"Delta":5747457},{"NoteNumber":77,"Velocity":55,"Duration":71607,"SoundDuration":71607,"Delta":5819065},{"NoteNumber":76,"Velocity":59,"Duration":107411,"SoundDuration":107411,"Delta":5890673},{"NoteNumber":67,"Velocity":32,"Duration":214823,"SoundDuration":214823,"Delta":5890673},{"NoteNumber":77,"Velocity":55,"Duration":107411,"SoundDuration":107411,"Delta":5998084},{"NoteNumber":76,"Velocity":60,"Duration":429646,"SoundDuration":429646,"Delta":6105496},{"NoteNumber":60,"Velocity":40,"Duration":214823,"SoundDuration":214823,"Delta":6105496},{"NoteNumber":67,"Velocity":34,"Duration":214823,"SoundDuration":214823,"Delta":6320319},{"NoteNumber":64,"Velocity":34,"Duration":214823,"SoundDuration":214823,"Delta":6535142},{"NoteNumber":67,"Velocity":34,"Duration":222153,"SoundDuration":222153,"Delta":6749965},{"NoteNumber":69,"Velocity":60,"Duration":220596,"SoundDuration":220596,"Delta":6972118},{"NoteNumber":65,"Velocity":40,"Duration":439299,"SoundDuration":439299,"Delta":6972118},{"NoteNumber":71,"Velocity":53,"Duration":120506,"SoundDuration":120506,"Delta":7192715},{"NoteNumber":72,"Velocity":54,"Duration":119988,"SoundDuration":119988,"Delta":7302303},{"NoteNumber":74,"Velocity":55,"Duration":119476,"SoundDuration":119476,"Delta":7411417},{"NoteNumber":76,"Velocity":57,"Duration":118973,"SoundDuration":118973,"Delta":7520065},{"NoteNumber":77,"Velocity":58,"Duration":118467,"SoundDuration":118467,"Delta":7628253},{"NoteNumber":79,"Velocity":59,"Duration":117928,"SoundDuration":117928,"Delta":7735980},{"NoteNumber":81,"Velocity":62,"Duration":117331,"SoundDuration":117331,"Delta":7843253},{"NoteNumber":79,"Velocity":61,"Duration":117890,"SoundDuration":117890,"Delta":7949887},{"NoteNumber":77,"Velocity":60,"Duration":118556,"SoundDuration":118556,"Delta":8057037},{"NoteNumber":76,"Velocity":59,"Duration":119220,"SoundDuration":119220,"Delta":8164782},{"NoteNumber":74,"Velocity":58,"Duration":119886,"SoundDuration":119886,"Delta":8273128},{"NoteNumber":53,"Velocity":40,"Duration":439080,"SoundDuration":439080,"Delta":8273128},{"NoteNumber":60,"Velocity":40,"Duration":439080,"SoundDuration":439080,"Delta":8273128},{"NoteNumber":72,"Velocity":57,"Duration":120483,"SoundDuration":120483,"Delta":8382096},{"NoteNumber":71,"Velocity":55,"Duration":121245,"SoundDuration":121245,"Delta":8491609},{"NoteNumber":69,"Velocity":53,"Duration":121373,"SoundDuration":121373,"Delta":8601799},{"NoteNumber":67,"Velocity":60,"Duration":218956,"SoundDuration":218956,"Delta":8712209},{"NoteNumber":52,"Velocity":40,"Duration":436678,"SoundDuration":436678,"Delta":8712209},{"NoteNumber":60,"Velocity":40,"Duration":436678,"SoundDuration":436678,"Delta":8712209},{"NoteNumber":69,"Velocity":53,"Duration":119860,"SoundDuration":119860,"Delta":8931165},{"NoteNumber":71,"Velocity":54,"Duration":119564,"SoundDuration":119564,"Delta":9040152},{"NoteNumber":72,"Velocity":55,"Duration":119125,"SoundDuration":119125,"Delta":9148887},{"NoteNumber":74,"Velocity":57,"Duration":118762,"SoundDuration":118762,"Delta":9257182},{"NoteNumber":76,"Velocity":58,"Duration":118467,"SoundDuration":118467,"Delta":9365159},{"NoteNumber":77,"Velocity":59,"Duration":117793,"SoundDuration":117793,"Delta":9472886},{"NoteNumber":79,"Velocity":62,"Duration":117599,"SoundDuration":117599,"Delta":9580025},{"NoteNumber":77,"Velocity":61,"Duration":118372,"SoundDuration":118372,"Delta":9686883},{"NoteNumber":76,"Velocity":60,"Duration":119112,"SoundDuration":119112,"Delta":9794470},{"NoteNumber":74,"Velocity":59,"Duration":119988,"SoundDuration":119988,"Delta":9902710},{"NoteNumber":72,"Velocity":58,"Duration":120815,"SoundDuration":120815,"Delta":10011734},{"NoteNumber":52,"Velocity":40,"Duration":442319,"SoundDuration":442319,"Delta":10011734},{"NoteNumber":60,"Velocity":40,"Duration":442319,"SoundDuration":442319,"Delta":10011734},{"NoteNumber":71,"Velocity":57,"Duration":121564,"SoundDuration":121564,"Delta":10121540},{"NoteNumber":69,"Velocity":55,"Duration":122442,"SoundDuration":122442,"Delta":10232003},{"NoteNumber":67,"Velocity":53,"Duration":121674,"SoundDuration":121674,"Delta":10343298},{"NoteNumber":65,"Velocity":60,"Duration":217973,"SoundDuration":217973,"Delta":10454054},{"NoteNumber":50,"Velocity":40,"Duration":434600,"SoundDuration":434600,"Delta":10454054},{"NoteNumber":60,"Velocity":40,"Duration":434600,"SoundDuration":434600,"Delta":10454054},{"NoteNumber":67,"Velocity":53,"Duration":119300,"SoundDuration":119300,"Delta":10672028},{"NoteNumber":69,"Velocity":54,"Duration":118940,"SoundDuration":118940,"Delta":10780499},{"NoteNumber":71,"Velocity":55,"Duration":118636,"SoundDuration":118636,"Delta":10888654},{"NoteNumber":72,"Velocity":57,"Duration":118203,"SoundDuration":118203,"Delta":10996505},{"NoteNumber":74,"Velocity":58,"Duration":117846,"SoundDuration":117846,"Delta":11103968},{"NoteNumber":76,"Velocity":59,"Duration":117177,"SoundDuration":117177,"Delta":11211118},{"NoteNumber":77,"Velocity":62,"Duration":117264,"SoundDuration":117264,"Delta":11317683},{"NoteNumber":76,"Velocity":61,"Duration":117967,"SoundDuration":117967,"Delta":11424250},{"NoteNumber":74,"Velocity":60,"Duration":118770,"SoundDuration":118770,"Delta":11531469},{"NoteNumber":72,"Velocity":59,"Duration":119637,"SoundDuration":119637,"Delta":11639409},{"NoteNumber":71,"Velocity":58,"Duration":120385,"SoundDuration":120385,"Delta":11748128},{"NoteNumber":50,"Velocity":40,"Duration":441491,"SoundDuration":441491,"Delta":11748128},{"NoteNumber":59,"Velocity":40,"Duration":441491,"SoundDuration":441491,"Delta":11748128},{"NoteNumber":69,"Velocity":57,"Duration":121211,"SoundDuration":121211,"Delta":11857549},{"NoteNumber":67,"Velocity":55,"Duration":122003,"SoundDuration":122003,"Delta":11967705},{"NoteNumber":65,"Velocity":53,"Duration":122113,"SoundDuration":122113,"Delta":12078607},{"NoteNumber":64,"Velocity":60,"Duration":221620,"SoundDuration":221620,"Delta":12189619},{"NoteNumber":48,"Velocity":40,"Duration":441273,"SoundDuration":441273,"Delta":12189619},{"NoteNumber":60,"Velocity":40,"Duration":441273,"SoundDuration":441273,"Delta":12189619},{"NoteNumber":65,"Velocity":53,"Duration":121048,"SoundDuration":121048,"Delta":12411240},{"NoteNumber":67,"Velocity":54,"Duration":120487,"SoundDuration":120487,"Delta":12521324},{"NoteNumber":69,"Velocity":55,"Duration":119898,"SoundDuration":119898,"Delta":12630893},{"NoteNumber":71,"Velocity":57,"Duration":119388,"SoundDuration":119388,"Delta":12739917},{"NoteNumber":72,"Velocity":58,"Duration":118814,"SoundDuration":118814,"Delta":12848476},{"NoteNumber":74,"Velocity":59,"Duration":118266,"SoundDuration":118266,"Delta":12956505},{"NoteNumber":76,"Velocity":62,"Duration":117803,"SoundDuration":117803,"Delta":13064075},{"NoteNumber":74,"Velocity":61,"Duration":118449,"SoundDuration":118449,"Delta":13171137},{"NoteNumber":72,"Velocity":60,"Duration":119256,"SoundDuration":119256,"Delta":13278794},{"NoteNumber":71,"Velocity":59,"Duration":119988,"SoundDuration":119988,"Delta":13387177},{"NoteNumber":69,"Velocity":58,"Duration":120815,"SoundDuration":120815,"Delta":13496201},{"NoteNumber":52,"Velocity":40,"Duration":442824,"SoundDuration":442824,"Delta":13496201},{"NoteNumber":48,"Velocity":40,"Duration":442824,"SoundDuration":442824,"Delta":13496201},{"NoteNumber":67,"Velocity":57,"Duration":121564,"SoundDuration":121564,"Delta":13606007},{"NoteNumber":65,"Velocity":55,"Duration":122368,"SoundDuration":122368,"Delta":13716471},{"NoteNumber":64,"Velocity":53,"Duration":122391,"SoundDuration":122391,"Delta":13827691},{"NoteNumber":62,"Velocity":60,"Duration":220782,"SoundDuration":220782,"Delta":13939026},{"NoteNumber":53,"Velocity":40,"Duration":1752609,"SoundDuration":1752609,"Delta":13939026},{"NoteNumber":57,"Velocity":40,"Duration":1752609,"SoundDuration":1752609,"Delta":13939026},{"NoteNumber":64,"Velocity":53,"Duration":120861,"SoundDuration":120861,"Delta":14159809},{"NoteNumber":65,"Velocity":54,"Duration":120559,"SoundDuration":120559,"Delta":14269706},{"NoteNumber":67,"Velocity":55,"Duration":120104,"SoundDuration":120104,"Delta":14379347},{"NoteNumber":69,"Velocity":57,"Duration":119736,"SoundDuration":119736,"Delta":14488534},{"NoteNumber":71,"Velocity":58,"Duration":119370,"SoundDuration":119370,"Delta":14597396},{"NoteNumber":73,"Velocity":59,"Duration":119733,"SoundDuration":119733,"Delta":14705937},{"NoteNumber":74,"Velocity":62,"Duration":114381,"SoundDuration":114381,"Delta":14814233},{"NoteNumber":69,"Velocity":58,"Duration":121153,"SoundDuration":121153,"Delta":14928614},{"NoteNumber":71,"Velocity":61,"Duration":119125,"SoundDuration":119125,"Delta":15038939},{"NoteNumber":73,"Velocity":64,"Duration":119125,"SoundDuration":119125,"Delta":15147234},{"NoteNumber":74,"Velocity":66,"Duration":119125,"SoundDuration":119125,"Delta":15255530},{"NoteNumber":76,"Velocity":67,"Duration":119125,"SoundDuration":119125,"Delta":15363825},{"NoteNumber":77,"Velocity":68,"Duration":120075,"SoundDuration":120075,"Delta":15472121},{"NoteNumber":79,"Velocity":69,"Duration":121210,"SoundDuration":121210,"Delta":15581147},{"NoteNumber":81,"Velocity":70,"Duration":117941,"SoundDuration":117941,"Delta":15691636},{"NoteNumber":53,"Velocity":60,"Duration":643316,"SoundDuration":643316,"Delta":15691636},{"NoteNumber":83,"Velocity":69,"Duration":117941,"SoundDuration":117941,"Delta":15798856},{"NoteNumber":84,"Velocity":71,"Duration":117941,"SoundDuration":117941,"Delta":15906075},{"NoteNumber":83,"Velocity":69,"Duration":117941,"SoundDuration":117941,"Delta":16013295},{"NoteNumber":81,"Velocity":67,"Duration":117941,"SoundDuration":117941,"Delta":16120514},{"NoteNumber":79,"Velocity":65,"Duration":117941,"SoundDuration":117941,"Delta":16227734},{"NoteNumber":77,"Velocity":63,"Duration":119542,"SoundDuration":119542,"Delta":16334953},{"NoteNumber":55,"Velocity":55,"Duration":219364,"SoundDuration":219364,"Delta":16334953},{"NoteNumber":76,"Velocity":66,"Duration":110914,"SoundDuration":110914,"Delta":16443404},{"NoteNumber":77,"Velocity":65,"Duration":117079,"SoundDuration":117079,"Delta":16554318},{"NoteNumber":57,"Velocity":60,"Duration":638614,"SoundDuration":638614,"Delta":16554318},{"NoteNumber":79,"Velocity":66,"Duration":117079,"SoundDuration":117079,"Delta":16660754},{"NoteNumber":81,"Velocity":67,"Duration":117079,"SoundDuration":117079,"Delta":16767190},{"NoteNumber":79,"Velocity":67,"Duration":117079,"SoundDuration":117079,"Delta":16873625},{"NoteNumber":77,"Velocity":68,"Duration":117079,"SoundDuration":117079,"Delta":16980061},{"NoteNumber":76,"Velocity":71,"Duration":117079,"SoundDuration":117079,"Delta":17086497},{"NoteNumber":74,"Velocity":73,"Duration":120307,"SoundDuration":120307,"Delta":17192933},{"NoteNumber":54,"Velocity":54,"Duration":222805,"SoundDuration":222805,"Delta":17192933},{"NoteNumber":72,"Velocity":76,"Duration":124688,"SoundDuration":124688,"Delta":17301852},{"NoteNumber":71,"Velocity":78,"Duration":108022,"SoundDuration":108022,"Delta":17415739},{"NoteNumber":43,"Velocity":65,"Duration":108022,"SoundDuration":108022,"Delta":17415739},{"NoteNumber":47,"Velocity":56,"Duration":108022,"SoundDuration":108022,"Delta":17523761},{"NoteNumber":79,"Velocity":71,"Duration":107511,"SoundDuration":107511,"Delta":17631784},{"NoteNumber":50,"Velocity":56,"Duration":107511,"SoundDuration":107511,"Delta":17631784},{"NoteNumber":55,"Velocity":50,"Duration":107511,"SoundDuration":107511,"Delta":17739295},{"NoteNumber":76,"Velocity":71,"Duration":107511,"SoundDuration":107511,"Delta":17846807},{"NoteNumber":43,"Velocity":65,"Duration":107511,"SoundDuration":107511,"Delta":17846807},{"NoteNumber":48,"Velocity":55,"Duration":107511,"SoundDuration":107511,"Delta":17954318},{"NoteNumber":72,"Velocity":71,"Duration":108993,"SoundDuration":108993,"Delta":18061830},{"NoteNumber":52,"Velocity":55,"Duration":108993,"SoundDuration":108993,"Delta":18061830},{"NoteNumber":55,"Velocity":50,"Duration":111957,"SoundDuration":111957,"Delta":18170823},{"NoteNumber":74,"Velocity":78,"Duration":108022,"SoundDuration":108022,"Delta":18282780},{"NoteNumber":43,"Velocity":65,"Duration":108022,"SoundDuration":108022,"Delta":18282780},{"NoteNumber":47,"Velocity":55,"Duration":108022,"SoundDuration":108022,"Delta":18390802},{"NoteNumber":79,"Velocity":71,"Duration":107905,"SoundDuration":107905,"Delta":18498825},{"NoteNumber":50,"Velocity":55,"Duration":107905,"SoundDuration":107905,"Delta":18498825},{"NoteNumber":55,"Velocity":54,"Duration":107905,"SoundDuration":107905,"Delta":18606731},{"NoteNumber":76,"Velocity":71,"Duration":107905,"SoundDuration":107905,"Delta":18714637},{"NoteNumber":43,"Velocity":65,"Duration":107905,"SoundDuration":107905,"Delta":18714637},{"NoteNumber":48,"Velocity":57,"Duration":107905,"SoundDuration":107905,"Delta":18822543},{"NoteNumber":72,"Velocity":71,"Duration":109098,"SoundDuration":109098,"Delta":18930449},{"NoteNumber":52,"Velocity":56,"Duration":109098,"SoundDuration":109098,"Delta":18930449},{"NoteNumber":55,"Velocity":53,"Duration":111482,"SoundDuration":111482,"Delta":19039547},{"NoteNumber":74,"Velocity":81,"Duration":118624,"SoundDuration":118624,"Delta":19151030},{"NoteNumber":43,"Velocity":65,"Duration":118624,"SoundDuration":118624,"Delta":19151030},{"NoteNumber":71,"Velocity":71,"Duration":120958,"SoundDuration":120958,"Delta":19625526},{"NoteNumber":74,"Velocity":71,"Duration":120958,"SoundDuration":120958,"Delta":19625526},{"NoteNumber":79,"Velocity":71,"Duration":120958,"SoundDuration":120958,"Delta":19625526},{"NoteNumber":55,"Velocity":59,"Duration":120958,"SoundDuration":120958,"Delta":19625526},{"NoteNumber":67,"Velocity":83,"Duration":483831,"SoundDuration":483831,"Delta":20109358},{"NoteNumber":43,"Velocity":61,"Duration":483831,"SoundDuration":483831,"Delta":20109358},{"NoteNumber":61,"Velocity":42,"Duration":119250,"SoundDuration":119250,"Delta":21046773},{"NoteNumber":62,"Velocity":36,"Duration":108250,"SoundDuration":108250,"Delta":21155152},{"NoteNumber":61,"Velocity":42,"Duration":118332,"SoundDuration":118332,"Delta":21263402},{"NoteNumber":62,"Velocity":36,"Duration":107708,"SoundDuration":107708,"Delta":21370945},{"NoteNumber":61,"Velocity":42,"Duration":118542,"SoundDuration":118542,"Delta":21478653},{"NoteNumber":62,"Velocity":38,"Duration":107626,"SoundDuration":107626,"Delta":21586444},{"NoteNumber":61,"Velocity":42,"Duration":118617,"SoundDuration":118617,"Delta":21694071},{"NoteNumber":62,"Velocity":37,"Duration":113395,"SoundDuration":113395,"Delta":21801349},{"NoteNumber":60,"Velocity":42,"Duration":118753,"SoundDuration":118753,"Delta":21914744},{"NoteNumber":62,"Velocity":36,"Duration":107961,"SoundDuration":107961,"Delta":22022667},{"NoteNumber":60,"Velocity":42,"Duration":118332,"SoundDuration":118332,"Delta":22130629},{"NoteNumber":62,"Velocity":37,"Duration":107905,"SoundDuration":107905,"Delta":22238171},{"NoteNumber":60,"Velocity":42,"Duration":118209,"SoundDuration":118209,"Delta":22346077},{"NoteNumber":62,"Velocity":37,"Duration":108277,"SoundDuration":108277,"Delta":22453455},{"NoteNumber":60,"Velocity":42,"Duration":118940,"SoundDuration":118940,"Delta":22561733},{"NoteNumber":62,"Velocity":38,"Duration":114285,"SoundDuration":114285,"Delta":22669244},{"NoteNumber":86,"Velocity":61,"Duration":217438,"SoundDuration":217438,"Delta":22783530},{"NoteNumber":59,"Velocity":42,"Duration":108719,"SoundDuration":108719,"Delta":22783530},{"NoteNumber":62,"Velocity":36,"Duration":108719,"SoundDuration":108719,"Delta":22892249},{"NoteNumber":83,"Velocity":55,"Duration":219073,"SoundDuration":219073,"Delta":23000968},{"NoteNumber":59,"Velocity":42,"Duration":109536,"SoundDuration":109536,"Delta":23000968},{"NoteNumber":62,"Velocity":36,"Duration":109536,"SoundDuration":109536,"Delta":23110505},{"NoteNumber":79,"Velocity":61,"Duration":655586,"SoundDuration":655586,"Delta":23220042},{"NoteNumber":59,"Velocity":42,"Duration":109536,"SoundDuration":109536,"Delta":23220042},{"NoteNumber":62,"Velocity":32,"Duration":109537,"SoundDuration":109537,"Delta":23329579},{"NoteNumber":59,"Velocity":38,"Duration":109536,"SoundDuration":109536,"Delta":23439116},{"NoteNumber":62,"Velocity":33,"Duration":109536,"SoundDuration":109536,"Delta":23548653},{"NoteNumber":59,"Velocity":39,"Duration":108719,"SoundDuration":108719,"Delta":23658190},{"NoteNumber":62,"Velocity":32,"Duration":108719,"SoundDuration":108719,"Delta":23766910},{"NoteNumber":81,"Velocity":53,"Duration":109536,"SoundDuration":109536,"Delta":23875629},{"NoteNumber":59,"Velocity":39,"Duration":109536,"SoundDuration":109536,"Delta":23875629},{"NoteNumber":83,"Velocity":51,"Duration":109536,"SoundDuration":109536,"Delta":23985166},{"NoteNumber":62,"Velocity":34,"Duration":109536,"SoundDuration":109536,"Delta":23985166},{"NoteNumber":81,"Velocity":55,"Duration":219074,"SoundDuration":219074,"Delta":24094703},{"NoteNumber":59,"Velocity":42,"Duration":109536,"SoundDuration":109536,"Delta":24094703},{"NoteNumber":62,"Velocity":37,"Duration":109537,"SoundDuration":109537,"Delta":24204240},{"NoteNumber":79,"Velocity":53,"Duration":109536,"SoundDuration":109536,"Delta":24313777},{"NoteNumber":59,"Velocity":42,"Duration":109536,"SoundDuration":109536,"Delta":24313777},{"NoteNumber":62,"Velocity":38,"Duration":109536,"SoundDuration":109536,"Delta":24423314},{"NoteNumber":79,"Velocity":55,"Duration":55187,"SoundDuration":55187,"Delta":24532851},{"NoteNumber":60,"Velocity":46,"Duration":110375,"SoundDuration":110375,"Delta":24532851},{"NoteNumber":81,"Velocity":51,"Duration":55187,"SoundDuration":55187,"Delta":24588038},{"NoteNumber":79,"Velocity":56,"Duration":55187,"SoundDuration":55187,"Delta":24643226},{"NoteNumber":62,"Velocity":38,"Duration":110375,"SoundDuration":110375,"Delta":24643226},{"NoteNumber":81,"Velocity":51,"Duration":55187,"SoundDuration":55187,"Delta":24698414},{"NoteNumber":79,"Velocity":58,"Duration":110375,"SoundDuration":110375,"Delta":24753601},{"NoteNumber":59,"Velocity":42,"Duration":110375,"SoundDuration":110375,"Delta":24753601},{"NoteNumber":78,"Velocity":52,"Duration":101177,"SoundDuration":101177,"Delta":24863977},{"NoteNumber":62,"Velocity":36,"Duration":110375,"SoundDuration":110375,"Delta":24863977},{"NoteNumber":78,"Velocity":58,"Duration":436491,"SoundDuration":436491,"Delta":24974352},{"NoteNumber":57,"Velocity":39,"Duration":120035,"SoundDuration":120035,"Delta":24974352},{"NoteNumber":62,"Velocity":27,"Duration":109122,"SoundDuration":109122,"Delta":25083475},{"NoteNumber":59,"Velocity":47,"Duration":120035,"SoundDuration":120035,"Delta":25192597},{"NoteNumber":62,"Velocity":35,"Duration":109122,"SoundDuration":109122,"Delta":25301720},{"NoteNumber":60,"Velocity":50,"Duration":120035,"SoundDuration":120035,"Delta":25410843},{"NoteNumber":62,"Velocity":36,"Duration":109122,"SoundDuration":109122,"Delta":25519966},{"NoteNumber":59,"Velocity":44,"Duration":120035,"SoundDuration":120035,"Delta":25629088},{"NoteNumber":62,"Velocity":30,"Duration":109122,"SoundDuration":109122,"Delta":25738211},{"NoteNumber":60,"Velocity":52,"Duration":120949,"SoundDuration":120949,"Delta":25847334},{"NoteNumber":62,"Velocity":31,"Duration":109954,"SoundDuration":109954,"Delta":25957288},{"NoteNumber":57,"Velocity":40,"Duration":121803,"SoundDuration":121803,"Delta":26067243},{"NoteNumber":62,"Velocity":28,"Duration":118492,"SoundDuration":118492,"Delta":26177197},{"NoteNumber":86,"Velocity":61,"Duration":217438,"SoundDuration":217438,"Delta":26295690},{"NoteNumber":59,"Velocity":42,"Duration":108719,"SoundDuration":108719,"Delta":26295690},{"NoteNumber":62,"Velocity":36,"Duration":108719,"SoundDuration":108719,"Delta":26404409},{"NoteNumber":83,"Velocity":55,"Duration":219073,"SoundDuration":219073,"Delta":26513129},{"NoteNumber":59,"Velocity":42,"Duration":109536,"SoundDuration":109536,"Delta":26513129},{"NoteNumber":62,"Velocity":36,"Duration":109536,"SoundDuration":109536,"Delta":26622666},{"NoteNumber":79,"Velocity":61,"Duration":655586,"SoundDuration":655586,"Delta":26732203},{"NoteNumber":59,"Velocity":42,"Duration":109536,"SoundDuration":109536,"Delta":26732203},{"NoteNumber":62,"Velocity":32,"Duration":109537,"SoundDuration":109537,"Delta":26841740},{"NoteNumber":59,"Velocity":38,"Duration":109536,"SoundDuration":109536,"Delta":26951277},{"NoteNumber":62,"Velocity":33,"Duration":109536,"SoundDuration":109536,"Delta":27060814},{"NoteNumber":59,"Velocity":39,"Duration":108719,"SoundDuration":108719,"Delta":27170351},{"NoteNumber":62,"Velocity":32,"Duration":108719,"SoundDuration":108719,"Delta":27279070},{"NoteNumber":81,"Velocity":53,"Duration":109536,"SoundDuration":109536,"Delta":27387789},{"NoteNumber":59,"Velocity":39,"Duration":109536,"SoundDuration":109536,"Delta":27387789},{"NoteNumber":83,"Velocity":51,"Duration":109536,"SoundDuration":109536,"Delta":27497326},{"NoteNumber":62,"Velocity":34,"Duration":109536,"SoundDuration":109536,"Delta":27497326},{"NoteNumber":81,"Velocity":55,"Duration":219074,"SoundDuration":219074,"Delta":27606863},{"NoteNumber":59,"Velocity":42,"Duration":109536,"SoundDuration":109536,"Delta":27606863},{"NoteNumber":62,"Velocity":37,"Duration":109537,"SoundDuration":109537,"Delta":27716400},{"NoteNumber":79,"Velocity":53,"Duration":109536,"SoundDuration":109536,"Delta":27825937},{"NoteNumber":59,"Velocity":42,"Duration":109536,"SoundDuration":109536,"Delta":27825937},{"NoteNumber":62,"Velocity":38,"Duration":109536,"SoundDuration":109536,"Delta":27935474},{"NoteNumber":79,"Velocity":55,"Duration":55187,"SoundDuration":55187,"Delta":28045011},{"NoteNumber":60,"Velocity":42,"Duration":110375,"SoundDuration":110375,"Delta":28045011},{"NoteNumber":81,"Velocity":51,"Duration":55187,"SoundDuration":55187,"Delta":28100199},{"NoteNumber":79,"Velocity":56,"Duration":55187,"SoundDuration":55187,"Delta":28155386},{"NoteNumber":62,"Velocity":36,"Duration":110375,"SoundDuration":110375,"Delta":28155386},{"NoteNumber":81,"Velocity":50,"Duration":55187,"SoundDuration":55187,"Delta":28210574},{"NoteNumber":79,"Velocity":55,"Duration":110375,"SoundDuration":110375,"Delta":28265762},{"NoteNumber":59,"Velocity":42,"Duration":110375,"SoundDuration":110375,"Delta":28265762},{"NoteNumber":78,"Velocity":52,"Duration":82781,"SoundDuration":82781,"Delta":28376137},{"NoteNumber":62,"Velocity":36,"Duration":110375,"SoundDuration":110375,"Delta":28376137},{"NoteNumber":78,"Velocity":58,"Duration":438148,"SoundDuration":438148,"Delta":28486512},{"NoteNumber":57,"Velocity":39,"Duration":120490,"SoundDuration":120490,"Delta":28486512},{"NoteNumber":62,"Velocity":29,"Duration":109536,"SoundDuration":109536,"Delta":28596049},{"NoteNumber":59,"Velocity":42,"Duration":120490,"SoundDuration":120490,"Delta":28705586},{"NoteNumber":62,"Velocity":32,"Duration":109537,"SoundDuration":109537,"Delta":28815123},{"NoteNumber":60,"Velocity":48,"Duration":120490,"SoundDuration":120490,"Delta":28924660},{"NoteNumber":62,"Velocity":36,"Duration":109536,"SoundDuration":109536,"Delta":29034197},{"NoteNumber":59,"Velocity":43,"Duration":120490,"SoundDuration":120490,"Delta":29143734},{"NoteNumber":62,"Velocity":30,"Duration":109536,"SoundDuration":109536,"Delta":29253271},{"NoteNumber":60,"Velocity":48,"Duration":120949,"SoundDuration":120949,"Delta":29362808},{"NoteNumber":62,"Velocity":36,"Duration":109954,"SoundDuration":109954,"Delta":29472763},{"NoteNumber":57,"Velocity":43,"Duration":121660,"SoundDuration":121660,"Delta":29582717},{"NoteNumber":62,"Velocity":30,"Duration":117059,"SoundDuration":117059,"Delta":29692672},{"NoteNumber":86,"Velocity":69,"Duration":451781,"SoundDuration":451781,"Delta":29809731},{"NoteNumber":59,"Velocity":39,"Duration":112396,"SoundDuration":112396,"Delta":29928151},{"NoteNumber":62,"Velocity":42,"Duration":110996,"SoundDuration":110996,"Delta":30040547},{"NoteNumber":67,"Velocity":39,"Duration":109968,"SoundDuration":109968,"Delta":30151544},{"NoteNumber":71,"Velocity":48,"Duration":448652,"SoundDuration":448652,"Delta":30261513},{"NoteNumber":86,"Velocity":61,"Duration":110375,"SoundDuration":110375,"Delta":30379040},{"NoteNumber":83,"Velocity":66,"Duration":110375,"SoundDuration":110375,"Delta":30489415},{"NoteNumber":79,"Velocity":61,"Duration":110375,"SoundDuration":110375,"Delta":30599791},{"NoteNumber":76,"Velocity":68,"Duration":446546,"SoundDuration":446546,"Delta":30710166},{"NoteNumber":60,"Velocity":42,"Duration":111769,"SoundDuration":111769,"Delta":30824452},{"NoteNumber":64,"Velocity":44,"Duration":110770,"SoundDuration":110770,"Delta":30936221},{"NoteNumber":67,"Velocity":41,"Duration":109721,"SoundDuration":109721,"Delta":31046991},{"NoteNumber":72,"Velocity":52,"Duration":442815,"SoundDuration":442815,"Delta":31156713},{"NoteNumber":76,"Velocity":61,"Duration":109954,"SoundDuration":109954,"Delta":31269665},{"NoteNumber":79,"Velocity":66,"Duration":109954,"SoundDuration":109954,"Delta":31379619},{"NoteNumber":76,"Velocity":61,"Duration":109954,"SoundDuration":109954,"Delta":31489574},{"NoteNumber":84,"Velocity":69,"Duration":452801,"SoundDuration":452801,"Delta":31599528},{"NoteNumber":57,"Velocity":39,"Duration":112449,"SoundDuration":112449,"Delta":31717948},{"NoteNumber":60,"Velocity":42,"Duration":111140,"SoundDuration":111140,"Delta":31830398},{"NoteNumber":66,"Velocity":39,"Duration":110790,"SoundDuration":110790,"Delta":31941539},{"NoteNumber":69,"Velocity":48,"Duration":444077,"SoundDuration":444077,"Delta":32052330},{"NoteNumber":84,"Velocity":61,"Duration":110375,"SoundDuration":110375,"Delta":32165282},{"NoteNumber":81,"Velocity":66,"Duration":110375,"SoundDuration":110375,"Delta":32275657},{"NoteNumber":78,"Velocity":61,"Duration":110375,"SoundDuration":110375,"Delta":32386032},{"NoteNumber":74,"Velocity":68,"Duration":444814,"SoundDuration":444814,"Delta":32496407},{"NoteNumber":59,"Velocity":42,"Duration":110752,"SoundDuration":110752,"Delta":32610373},{"NoteNumber":62,"Velocity":44,"Duration":110284,"SoundDuration":110284,"Delta":32721126},{"NoteNumber":66,"Velocity":41,"Duration":109811,"SoundDuration":109811,"Delta":32831410},{"NoteNumber":71,"Velocity":52,"Duration":441904,"SoundDuration":441904,"Delta":32941222},{"NoteNumber":74,"Velocity":61,"Duration":109954,"SoundDuration":109954,"Delta":33053262},{"NoteNumber":78,"Velocity":66,"Duration":109954,"SoundDuration":109954,"Delta":33163217},{"NoteNumber":74,"Velocity":61,"Duration":109954,"SoundDuration":109954,"Delta":33273171},{"NoteNumber":83,"Velocity":68,"Duration":445722,"SoundDuration":445722,"Delta":33383126},{"NoteNumber":55,"Velocity":39,"Duration":111823,"SoundDuration":111823,"Delta":33496010},{"NoteNumber":59,"Velocity":42,"Duration":110941,"SoundDuration":110941,"Delta":33607833},{"NoteNumber":64,"Velocity":39,"Duration":110073,"SoundDuration":110073,"Delta":33718775},{"NoteNumber":67,"Velocity":48,"Duration":444077,"SoundDuration":444077,"Delta":33828848},{"NoteNumber":83,"Velocity":61,"Duration":110375,"SoundDuration":110375,"Delta":33941800},{"NoteNumber":79,"Velocity":66,"Duration":110375,"SoundDuration":110375,"Delta":34052175},{"NoteNumber":76,"Velocity":61,"Duration":110375,"SoundDuration":110375,"Delta":34162550},{"NoteNumber":72,"Velocity":68,"Duration":445534,"SoundDuration":445534,"Delta":34272926},{"NoteNumber":57,"Velocity":42,"Duration":111624,"SoundDuration":111624,"Delta":34387010},{"NoteNumber":60,"Velocity":44,"Duration":110468,"SoundDuration":110468,"Delta":34498634},{"NoteNumber":64,"Velocity":41,"Duration":109358,"SoundDuration":109358,"Delta":34609102},{"NoteNumber":69,"Velocity":52,"Duration":442815,"SoundDuration":442815,"Delta":34718460},{"NoteNumber":72,"Velocity":61,"Duration":109954,"SoundDuration":109954,"Delta":34831412},{"NoteNumber":76,"Velocity":66,"Duration":109954,"SoundDuration":109954,"Delta":34941366},{"NoteNumber":72,"Velocity":61,"Duration":109954,"SoundDuration":109954,"Delta":35051321},{"NoteNumber":81,"Velocity":68,"Duration":450097,"SoundDuration":450097,"Delta":35161275},{"NoteNumber":54,"Velocity":39,"Duration":110375,"SoundDuration":110375,"Delta":35280247},{"NoteNumber":57,"Velocity":42,"Duration":110375,"SoundDuration":110375,"Delta":35390623},{"NoteNumber":62,"Velocity":39,"Duration":110375,"SoundDuration":110375,"Delta":35500998},{"NoteNumber":66,"Velocity":48,"Duration":444077,"SoundDuration":444077,"Delta":35611373},{"NoteNumber":81,"Velocity":61,"Duration":110375,"SoundDuration":110375,"Delta":35724325},{"NoteNumber":78,"Velocity":66,"Duration":110375,"SoundDuration":110375,"Delta":35834700},{"NoteNumber":72,"Velocity":61,"Duration":110375,"SoundDuration":110375,"Delta":35945075},{"NoteNumber":71,"Velocity":68,"Duration":444149,"SoundDuration":444149,"Delta":36055451},{"NoteNumber":55,"Velocity":42,"Duration":109954,"SoundDuration":109954,"Delta":36169736},{"NoteNumber":59,"Velocity":44,"Duration":109954,"SoundDuration":109954,"Delta":36279691},{"NoteNumber":62,"Velocity":41,"Duration":109954,"SoundDuration":109954,"Delta":36389645},{"NoteNumber":67,"Velocity":52,"Duration":442815,"SoundDuration":442815,"Delta":36499600},{"NoteNumber":79,"Velocity":61,"Duration":109954,"SoundDuration":109954,"Delta":36612552},{"NoteNumber":74,"Velocity":66,"Duration":109954,"SoundDuration":109954,"Delta":36722506},{"NoteNumber":71,"Velocity":61,"Duration":109954,"SoundDuration":109954,"Delta":36832461},{"NoteNumber":69,"Velocity":66,"Duration":824658,"SoundDuration":824658,"Delta":36942415},{"NoteNumber":60,"Velocity":44,"Duration":109954,"SoundDuration":109954,"Delta":36942415},{"NoteNumber":64,"Velocity":44,"Duration":109954,"SoundDuration":109954,"Delta":36942415},{"NoteNumber":60,"Velocity":39,"Duration":109954,"SoundDuration":109954,"Delta":37162324},{"NoteNumber":64,"Velocity":39,"Duration":109954,"SoundDuration":109954,"Delta":37162324},{"NoteNumber":60,"Velocity":39,"Duration":109954,"SoundDuration":109954,"Delta":37382233},{"NoteNumber":64,"Velocity":39,"Duration":109954,"SoundDuration":109954,"Delta":37382233},{"NoteNumber":60,"Velocity":39,"Duration":109954,"SoundDuration":109954,"Delta":37602142},{"NoteNumber":64,"Velocity":39,"Duration":109954,"SoundDuration":109954,"Delta":37602142},{"NoteNumber":71,"Velocity":64,"Duration":54977,"SoundDuration":54977,"Delta":37767074},{"NoteNumber":72,"Velocity":69,"Duration":384840,"SoundDuration":384840,"Delta":37822051},{"NoteNumber":60,"Velocity":44,"Duration":109954,"SoundDuration":109954,"Delta":37822051},{"NoteNumber":64,"Velocity":44,"Duration":109954,"SoundDuration":109954,"Delta":37822051},{"NoteNumber":60,"Velocity":40,"Duration":109954,"SoundDuration":109954,"Delta":38041960},{"NoteNumber":64,"Velocity":40,"Duration":109954,"SoundDuration":109954,"Delta":38041960},{"NoteNumber":75,"Velocity":65,"Duration":54977,"SoundDuration":54977,"Delta":38206892},{"NoteNumber":76,"Velocity":72,"Duration":390661,"SoundDuration":390661,"Delta":38261869},{"NoteNumber":60,"Velocity":40,"Duration":109954,"SoundDuration":109954,"Delta":38261869},{"NoteNumber":64,"Velocity":40,"Duration":109954,"SoundDuration":109954,"Delta":38261869},{"NoteNumber":60,"Velocity":41,"Duration":113834,"SoundDuration":113834,"Delta":38481778},{"NoteNumber":64,"Velocity":41,"Duration":113834,"SoundDuration":113834,"Delta":38481778},{"NoteNumber":80,"Velocity":65,"Duration":56917,"SoundDuration":56917,"Delta":38652530},{"NoteNumber":81,"Velocity":71,"Duration":657221,"SoundDuration":657221,"Delta":38709448},{"NoteNumber":60,"Velocity":50,"Duration":109537,"SoundDuration":109537,"Delta":38709448},{"NoteNumber":64,"Velocity":50,"Duration":109537,"SoundDuration":109537,"Delta":38709448},{"NoteNumber":60,"Velocity":44,"Duration":109537,"SoundDuration":109537,"Delta":38928522},{"NoteNumber":64,"Velocity":44,"Duration":109537,"SoundDuration":109537,"Delta":38928522},{"NoteNumber":60,"Velocity":44,"Duration":109537,"SoundDuration":109537,"Delta":39147596},{"NoteNumber":64,"Velocity":44,"Duration":109537,"SoundDuration":109537,"Delta":39147596},{"NoteNumber":83,"Velocity":66,"Duration":54768,"SoundDuration":54768,"Delta":39366670},{"NoteNumber":60,"Velocity":44,"Duration":109537,"SoundDuration":109537,"Delta":39366670},{"NoteNumber":64,"Velocity":44,"Duration":109537,"SoundDuration":109537,"Delta":39366670},{"NoteNumber":81,"Velocity":66,"Duration":54768,"SoundDuration":54768,"Delta":39421438},{"NoteNumber":80,"Velocity":66,"Duration":54768,"SoundDuration":54768,"Delta":39476207},{"NoteNumber":81,"Velocity":66,"Duration":54768,"SoundDuration":54768,"Delta":39530975},{"NoteNumber":84,"Velocity":74,"Duration":219073,"SoundDuration":219073,"Delta":39585744},{"NoteNumber":60,"Velocity":49,"Duration":109536,"SoundDuration":109536,"Delta":39585744},{"NoteNumber":64,"Velocity":49,"Duration":109536,"SoundDuration":109536,"Delta":39585744},{"NoteNumber":81,"Velocity":68,"Duration":219073,"SoundDuration":219073,"Delta":39804818},{"NoteNumber":60,"Velocity":46,"Duration":109536,"SoundDuration":109536,"Delta":39804818},{"NoteNumber":64,"Velocity":46,"Duration":109536,"SoundDuration":109536,"Delta":39804818},{"NoteNumber":84,"Velocity":75,"Duration":219073,"SoundDuration":219073,"Delta":40023892},{"NoteNumber":60,"Velocity":46,"Duration":109536,"SoundDuration":109536,"Delta":40023892},{"NoteNumber":64,"Velocity":46,"Duration":109536,"SoundDuration":109536,"Delta":40023892},{"NoteNumber":81,"Velocity":69,"Duration":223371,"SoundDuration":223371,"Delta":40242966},{"NoteNumber":60,"Velocity":46,"Duration":109536,"SoundDuration":109536,"Delta":40242966},{"NoteNumber":64,"Velocity":46,"Duration":109536,"SoundDuration":109536,"Delta":40242966},{"NoteNumber":83,"Velocity":78,"Duration":218245,"SoundDuration":218245,"Delta":40466337},{"NoteNumber":62,"Velocity":50,"Duration":109122,"SoundDuration":109122,"Delta":40466337},{"NoteNumber":71,"Velocity":42,"Duration":109122,"SoundDuration":109122,"Delta":40575460},{"NoteNumber":79,"Velocity":73,"Duration":223862,"SoundDuration":223862,"Delta":40684583},{"NoteNumber":67,"Velocity":42,"Duration":109122,"SoundDuration":109122,"Delta":40684583},{"NoteNumber":71,"Velocity":42,"Duration":114740,"SoundDuration":114740,"Delta":40793706},{"NoteNumber":86,"Velocity":79,"Duration":872982,"SoundDuration":872982,"Delta":40908446},{"NoteNumber":62,"Velocity":49,"Duration":109122,"SoundDuration":109122,"Delta":40908446},{"NoteNumber":71,"Velocity":42,"Duration":109122,"SoundDuration":109122,"Delta":41017569},{"NoteNumber":67,"Velocity":42,"Duration":109122,"SoundDuration":109122,"Delta":41126691},{"NoteNumber":71,"Velocity":42,"Duration":109122,"SoundDuration":109122,"Delta":41235814},{"NoteNumber":62,"Velocity":48,"Duration":109122,"SoundDuration":109122,"Delta":41344937},{"NoteNumber":71,"Velocity":42,"Duration":109122,"SoundDuration":109122,"Delta":41454060},{"NoteNumber":67,"Velocity":42,"Duration":109122,"SoundDuration":109122,"Delta":41563182},{"NoteNumber":71,"Velocity":42,"Duration":109122,"SoundDuration":109122,"Delta":41672305},{"NoteNumber":84,"Velocity":70,"Duration":109122,"SoundDuration":109122,"Delta":41781428},{"NoteNumber":62,"Velocity":49,"Duration":109122,"SoundDuration":109122,"Delta":41781428},{"NoteNumber":83,"Velocity":68,"Duration":109122,"SoundDuration":109122,"Delta":41890551},{"NoteNumber":71,"Velocity":42,"Duration":109122,"SoundDuration":109122,"Delta":41890551},{"NoteNumber":81,"Velocity":67,"Duration":109122,"SoundDuration":109122,"Delta":41999673},{"NoteNumber":67,"Velocity":42,"Duration":109122,"SoundDuration":109122,"Delta":41999673},{"NoteNumber":79,"Velocity":65,"Duration":116619,"SoundDuration":116619,"Delta":42108796},{"NoteNumber":71,"Velocity":42,"Duration":116619,"SoundDuration":116619,"Delta":42108796},{"NoteNumber":81,"Velocity":49,"Duration":59185,"SoundDuration":59185,"Delta":42225416},{"NoteNumber":62,"Velocity":50,"Duration":117867,"SoundDuration":117867,"Delta":42225416},{"NoteNumber":83,"Velocity":38,"Duration":58681,"SoundDuration":58681,"Delta":42284602},{"NoteNumber":81,"Velocity":49,"Duration":58203,"SoundDuration":58203,"Delta":42343284},{"NoteNumber":72,"Velocity":42,"Duration":115992,"SoundDuration":115992,"Delta":42343284},{"NoteNumber":83,"Velocity":40,"Duration":57789,"SoundDuration":57789,"Delta":42401487},{"NoteNumber":81,"Velocity":50,"Duration":57313,"SoundDuration":57313,"Delta":42459276},{"NoteNumber":66,"Velocity":42,"Duration":114232,"SoundDuration":114232,"Delta":42459276},{"NoteNumber":83,"Velocity":40,"Duration":56918,"SoundDuration":56918,"Delta":42516590},{"NoteNumber":81,"Velocity":50,"Duration":56457,"SoundDuration":56457,"Delta":42573509},{"NoteNumber":72,"Velocity":42,"Duration":112520,"SoundDuration":112520,"Delta":42573509},{"NoteNumber":83,"Velocity":40,"Duration":56062,"SoundDuration":56062,"Delta":42629966},{"NoteNumber":81,"Velocity":52,"Duration":56173,"SoundDuration":56173,"Delta":42686029},{"NoteNumber":62,"Velocity":49,"Duration":112579,"SoundDuration":112579,"Delta":42686029},{"NoteNumber":83,"Velocity":40,"Duration":56406,"SoundDuration":56406,"Delta":42742202},{"NoteNumber":81,"Velocity":52,"Duration":56683,"SoundDuration":56683,"Delta":42798609},{"NoteNumber":72,"Velocity":42,"Duration":113136,"SoundDuration":113136,"Delta":42798609},{"NoteNumber":83,"Velocity":41,"Duration":56453,"SoundDuration":56453,"Delta":42855292},{"NoteNumber":81,"Velocity":53,"Duration":56223,"SoundDuration":56223,"Delta":42911746},{"NoteNumber":66,"Velocity":42,"Duration":112224,"SoundDuration":112224,"Delta":42911746},{"NoteNumber":83,"Velocity":41,"Duration":56001,"SoundDuration":56001,"Delta":42967969},{"NoteNumber":81,"Velocity":53,"Duration":55705,"SoundDuration":55705,"Delta":43023970},{"NoteNumber":72,"Velocity":42,"Duration":111315,"SoundDuration":111315,"Delta":43023970},{"NoteNumber":83,"Velocity":42,"Duration":55609,"SoundDuration":55609,"Delta":43079676},{"NoteNumber":81,"Velocity":54,"Duration":55609,"SoundDuration":55609,"Delta":43135286},{"NoteNumber":62,"Velocity":48,"Duration":111218,"SoundDuration":111218,"Delta":43135286},{"NoteNumber":83,"Velocity":43,"Duration":55609,"SoundDuration":55609,"Delta":43190895},{"NoteNumber":81,"Velocity":54,"Duration":55609,"SoundDuration":55609,"Delta":43246504},{"NoteNumber":72,"Velocity":42,"Duration":111218,"SoundDuration":111218,"Delta":43246504},{"NoteNumber":83,"Velocity":45,"Duration":55609,"SoundDuration":55609,"Delta":43302113},{"NoteNumber":81,"Velocity":54,"Duration":55609,"SoundDuration":55609,"Delta":43357722},{"NoteNumber":66,"Velocity":42,"Duration":111218,"SoundDuration":111218,"Delta":43357722},{"NoteNumber":83,"Velocity":44,"Duration":55609,"SoundDuration":55609,"Delta":43413331},{"NoteNumber":81,"Velocity":54,"Duration":55655,"SoundDuration":55655,"Delta":43468940},{"NoteNumber":72,"Velocity":42,"Duration":111606,"SoundDuration":111606,"Delta":43468940},{"NoteNumber":83,"Velocity":44,"Duration":55950,"SoundDuration":55950,"Delta":43524596},{"NoteNumber":81,"Velocity":53,"Duration":56244,"SoundDuration":56244,"Delta":43580547},{"NoteNumber":62,"Velocity":49,"Duration":112794,"SoundDuration":112794,"Delta":43580547},{"NoteNumber":83,"Velocity":45,"Duration":56549,"SoundDuration":56549,"Delta":43636792},{"NoteNumber":81,"Velocity":53,"Duration":56866,"SoundDuration":56866,"Delta":43693342},{"NoteNumber":72,"Velocity":42,"Duration":114032,"SoundDuration":114032,"Delta":43693342},{"NoteNumber":83,"Velocity":42,"Duration":57165,"SoundDuration":57165,"Delta":43750208},{"NoteNumber":81,"Velocity":53,"Duration":76710,"SoundDuration":76710,"Delta":43807374},{"NoteNumber":66,"Velocity":42,"Duration":115303,"SoundDuration":115303,"Delta":43807374},{"NoteNumber":79,"Velocity":59,"Duration":77298,"SoundDuration":77298,"Delta":43884085},{"NoteNumber":72,"Velocity":42,"Duration":116117,"SoundDuration":116117,"Delta":43922678},{"NoteNumber":81,"Velocity":58,"Duration":77411,"SoundDuration":77411,"Delta":43961384},{"NoteNumber":79,"Velocity":69,"Duration":464467,"SoundDuration":464467,"Delta":44038795},{"NoteNumber":67,"Velocity":49,"Duration":464467,"SoundDuration":464467,"Delta":44038795},{"NoteNumber":71,"Velocity":58,"Duration":464467,"SoundDuration":464467,"Delta":44038795},{"NoteNumber":79,"Velocity":67,"Duration":114740,"SoundDuration":114740,"Delta":44503263},{"NoteNumber":74,"Velocity":59,"Duration":114740,"SoundDuration":114740,"Delta":44618003},{"NoteNumber":79,"Velocity":62,"Duration":114740,"SoundDuration":114740,"Delta":44732743},{"NoteNumber":83,"Velocity":65,"Duration":119464,"SoundDuration":119464,"Delta":44847484},{"NoteNumber":86,"Velocity":68,"Duration":114285,"SoundDuration":114285,"Delta":44966948},{"NoteNumber":83,"Velocity":63,"Duration":114285,"SoundDuration":114285,"Delta":45081234},{"NoteNumber":79,"Velocity":68,"Duration":114285,"SoundDuration":114285,"Delta":45195520},{"NoteNumber":83,"Velocity":63,"Duration":116586,"SoundDuration":116586,"Delta":45309806},{"NoteNumber":84,"Velocity":69,"Duration":113834,"SoundDuration":113834,"Delta":45426392},{"NoteNumber":62,"Velocity":40,"Duration":460968,"SoundDuration":460968,"Delta":45426392},{"NoteNumber":69,"Velocity":40,"Duration":460968,"SoundDuration":460968,"Delta":45426392},{"NoteNumber":72,"Velocity":48,"Duration":460968,"SoundDuration":460968,"Delta":45426392},{"NoteNumber":81,"Velocity":63,"Duration":113834,"SoundDuration":113834,"Delta":45540227},{"NoteNumber":78,"Velocity":69,"Duration":113834,"SoundDuration":113834,"Delta":45654061},{"NoteNumber":81,"Velocity":63,"Duration":119464,"SoundDuration":119464,"Delta":45767896},{"NoteNumber":79,"Velocity":69,"Duration":464467,"SoundDuration":464467,"Delta":45887361},{"NoteNumber":67,"Velocity":49,"Duration":464467,"SoundDuration":464467,"Delta":45887361},{"NoteNumber":71,"Velocity":58,"Duration":464467,"SoundDuration":464467,"Delta":45887361},{"NoteNumber":67,"Velocity":67,"Duration":114740,"SoundDuration":114740,"Delta":46351829},{"NoteNumber":62,"Velocity":59,"Duration":114740,"SoundDuration":114740,"Delta":46466569},{"NoteNumber":67,"Velocity":62,"Duration":114740,"SoundDuration":114740,"Delta":46581309},{"NoteNumber":71,"Velocity":65,"Duration":119464,"SoundDuration":119464,"Delta":46696050},{"NoteNumber":74,"Velocity":68,"Duration":114740,"SoundDuration":114740,"Delta":46815514},{"NoteNumber":71,"Velocity":63,"Duration":114740,"SoundDuration":114740,"Delta":46930255},{"NoteNumber":67,"Velocity":68,"Duration":114740,"SoundDuration":114740,"Delta":47044995},{"NoteNumber":71,"Velocity":63,"Duration":117527,"SoundDuration":117527,"Delta":47159735},{"NoteNumber":72,"Velocity":69,"Duration":113834,"SoundDuration":113834,"Delta":47277262},{"NoteNumber":50,"Velocity":40,"Duration":463485,"SoundDuration":463485,"Delta":47277262},{"NoteNumber":57,"Velocity":40,"Duration":463485,"SoundDuration":463485,"Delta":47277262},{"NoteNumber":60,"Velocity":48,"Duration":463485,"SoundDuration":463485,"Delta":47277262},{"NoteNumber":69,"Velocity":63,"Duration":113834,"SoundDuration":113834,"Delta":47391097},{"NoteNumber":66,"Velocity":69,"Duration":113834,"SoundDuration":113834,"Delta":47504932},{"NoteNumber":69,"Velocity":63,"Duration":121980,"SoundDuration":121980,"Delta":47618767},{"NoteNumber":67,"Velocity":74,"Duration":121981,"SoundDuration":121981,"Delta":47740748},{"NoteNumber":55,"Velocity":44,"Duration":121981,"SoundDuration":121981,"Delta":47740748},{"NoteNumber":59,"Velocity":52,"Duration":121981,"SoundDuration":121981,"Delta":47740748},{"NoteNumber":74,"Velocity":65,"Duration":121981,"SoundDuration":121981,"Delta":48228672},{"NoteNumber":83,"Velocity":77,"Duration":121981,"SoundDuration":121981,"Delta":48228672},{"NoteNumber":43,"Velocity":44,"Duration":121981,"SoundDuration":121981,"Delta":48228672},{"NoteNumber":55,"Velocity":52,"Duration":121981,"SoundDuration":121981,"Delta":48228672},{"NoteNumber":71,"Velocity":62,"Duration":487923,"SoundDuration":487923,"Delta":48716596},{"NoteNumber":79,"Velocity":74,"Duration":487923,"SoundDuration":487923,"Delta":48716596},{"NoteNumber":43,"Velocity":44,"Duration":487923,"SoundDuration":487923,"Delta":48716596},{"NoteNumber":55,"Velocity":52,"Duration":487923,"SoundDuration":487923,"Delta":48716596},{"NoteNumber":72,"Velocity":60,"Duration":878864,"SoundDuration":878864,"Delta":49692444},{"NoteNumber":60,"Velocity":40,"Duration":219715,"SoundDuration":219715,"Delta":49692444},{"NoteNumber":67,"Velocity":30,"Duration":219715,"SoundDuration":219715,"Delta":49912160},{"NoteNumber":64,"Velocity":30,"Duration":219716,"SoundDuration":219716,"Delta":50131876},{"NoteNumber":67,"Velocity":30,"Duration":219715,"SoundDuration":219715,"Delta":50351592},{"NoteNumber":76,"Velocity":60,"Duration":433182,"SoundDuration":433182,"Delta":50571308},{"NoteNumber":60,"Velocity":40,"Duration":216591,"SoundDuration":216591,"Delta":50571308},{"NoteNumber":67,"Velocity":30,"Duration":216591,"SoundDuration":216591,"Delta":50787899},{"NoteNumber":79,"Velocity":60,"Duration":444049,"SoundDuration":444049,"Delta":51004490},{"NoteNumber":64,"Velocity":30,"Duration":222025,"SoundDuration":222025,"Delta":51004490},{"NoteNumber":67,"Velocity":30,"Duration":222024,"SoundDuration":222024,"Delta":51226515},{"NoteNumber":71,"Velocity":60,"Duration":659987,"SoundDuration":659987,"Delta":51448540},{"NoteNumber":62,"Velocity":30,"Duration":222025,"SoundDuration":222025,"Delta":51448540},{"NoteNumber":67,"Velocity":29,"Duration":219590,"SoundDuration":219590,"Delta":51670565},{"NoteNumber":65,"Velocity":31,"Duration":218372,"SoundDuration":218372,"Delta":51890155},{"NoteNumber":72,"Velocity":55,"Duration":109186,"SoundDuration":109186,"Delta":52108527},{"NoteNumber":67,"Velocity":28,"Duration":218372,"SoundDuration":218372,"Delta":52108527},{"NoteNumber":74,"Velocity":51,"Duration":109186,"SoundDuration":109186,"Delta":52217713},{"NoteNumber":72,"Velocity":60,"Duration":440398,"SoundDuration":440398,"Delta":52326900},{"NoteNumber":60,"Velocity":40,"Duration":220199,"SoundDuration":220199,"Delta":52326900},{"NoteNumber":67,"Velocity":29,"Duration":220199,"SoundDuration":220199,"Delta":52547099},{"NoteNumber":64,"Velocity":32,"Duration":220199,"SoundDuration":220199,"Delta":52767299},{"NoteNumber":67,"Velocity":29,"Duration":220199,"SoundDuration":220199,"Delta":52987498},{"NoteNumber":81,"Velocity":64,"Duration":866363,"SoundDuration":866363,"Delta":53207698},{"NoteNumber":60,"Velocity":40,"Duration":216591,"SoundDuration":216591,"Delta":53207698},{"NoteNumber":69,"Velocity":32,"Duration":216591,"SoundDuration":216591,"Delta":53424289},{"NoteNumber":65,"Velocity":32,"Duration":216591,"SoundDuration":216591,"Delta":53640880},{"NoteNumber":69,"Velocity":32,"Duration":216590,"SoundDuration":216590,"Delta":53857471},{"NoteNumber":79,"Velocity":62,"Duration":429645,"SoundDuration":429645,"Delta":54074062},{"NoteNumber":60,"Velocity":40,"Duration":214823,"SoundDuration":214823,"Delta":54074062},{"NoteNumber":67,"Velocity":32,"Duration":214822,"SoundDuration":214822,"Delta":54288885},{"NoteNumber":84,"Velocity":64,"Duration":434939,"SoundDuration":434939,"Delta":54503708},{"NoteNumber":64,"Velocity":32,"Duration":217469,"SoundDuration":217469,"Delta":54503708},{"NoteNumber":67,"Velocity":32,"Duration":217469,"SoundDuration":217469,"Delta":54721178},{"NoteNumber":79,"Velocity":64,"Duration":429645,"SoundDuration":429645,"Delta":54938648},{"NoteNumber":59,"Velocity":40,"Duration":214823,"SoundDuration":214823,"Delta":54938648},{"NoteNumber":67,"Velocity":32,"Duration":214822,"SoundDuration":214822,"Delta":55153471},{"NoteNumber":77,"Velocity":55,"Duration":71607,"SoundDuration":71607,"Delta":55368294},{"NoteNumber":62,"Velocity":32,"Duration":214823,"SoundDuration":214823,"Delta":55368294},{"NoteNumber":79,"Velocity":55,"Duration":71607,"SoundDuration":71607,"Delta":55439901},{"NoteNumber":77,"Velocity":55,"Duration":71607,"SoundDuration":71607,"Delta":55511509},{"NoteNumber":76,"Velocity":59,"Duration":107411,"SoundDuration":107411,"Delta":55583117},{"NoteNumber":67,"Velocity":32,"Duration":214823,"SoundDuration":214823,"Delta":55583117},{"NoteNumber":77,"Velocity":55,"Duration":107411,"SoundDuration":107411,"Delta":55690528},{"NoteNumber":76,"Velocity":60,"Duration":429645,"SoundDuration":429645,"Delta":55797940},{"NoteNumber":60,"Velocity":40,"Duration":214822,"SoundDuration":214822,"Delta":55797940},{"NoteNumber":67,"Velocity":34,"Duration":214823,"SoundDuration":214823,"Delta":56012763},{"NoteNumber":64,"Velocity":34,"Duration":214822,"SoundDuration":214822,"Delta":56227586},{"NoteNumber":67,"Velocity":34,"Duration":222153,"SoundDuration":222153,"Delta":56442409},{"NoteNumber":69,"Velocity":60,"Duration":220596,"SoundDuration":220596,"Delta":56664562},{"NoteNumber":65,"Velocity":40,"Duration":439299,"SoundDuration":439299,"Delta":56664562},{"NoteNumber":71,"Velocity":53,"Duration":120506,"SoundDuration":120506,"Delta":56885159},{"NoteNumber":72,"Velocity":54,"Duration":119988,"SoundDuration":119988,"Delta":56994747},{"NoteNumber":74,"Velocity":55,"Duration":119476,"SoundDuration":119476,"Delta":57103862},{"NoteNumber":76,"Velocity":57,"Duration":118973,"SoundDuration":118973,"Delta":57212509},{"NoteNumber":77,"Velocity":58,"Duration":118467,"SoundDuration":118467,"Delta":57320697},{"NoteNumber":79,"Velocity":59,"Duration":117928,"SoundDuration":117928,"Delta":57428424},{"NoteNumber":81,"Velocity":62,"Duration":117331,"SoundDuration":117331,"Delta":57535697},{"NoteNumber":79,"Velocity":61,"Duration":117890,"SoundDuration":117890,"Delta":57642331},{"NoteNumber":77,"Velocity":60,"Duration":118556,"SoundDuration":118556,"Delta":57749481},{"NoteNumber":76,"Velocity":59,"Duration":119220,"SoundDuration":119220,"Delta":57857226},{"NoteNumber":74,"Velocity":58,"Duration":119886,"SoundDuration":119886,"Delta":57965572},{"NoteNumber":53,"Velocity":40,"Duration":439080,"SoundDuration":439080,"Delta":57965572},{"NoteNumber":60,"Velocity":40,"Duration":439080,"SoundDuration":439080,"Delta":57965572},{"NoteNumber":72,"Velocity":57,"Duration":120483,"SoundDuration":120483,"Delta":58074541},{"NoteNumber":71,"Velocity":55,"Duration":121245,"SoundDuration":121245,"Delta":58184053},{"NoteNumber":69,"Velocity":53,"Duration":121373,"SoundDuration":121373,"Delta":58294243},{"NoteNumber":67,"Velocity":60,"Duration":218956,"SoundDuration":218956,"Delta":58404653},{"NoteNumber":52,"Velocity":40,"Duration":436678,"SoundDuration":436678,"Delta":58404653},{"NoteNumber":60,"Velocity":40,"Duration":436678,"SoundDuration":436678,"Delta":58404653},{"NoteNumber":69,"Velocity":53,"Duration":119860,"SoundDuration":119860,"Delta":58623609},{"NoteNumber":71,"Velocity":54,"Duration":119564,"SoundDuration":119564,"Delta":58732596},{"NoteNumber":72,"Velocity":55,"Duration":119125,"SoundDuration":119125,"Delta":58841331},{"NoteNumber":74,"Velocity":57,"Duration":118762,"SoundDuration":118762,"Delta":58949626},{"NoteNumber":76,"Velocity":58,"Duration":118467,"SoundDuration":118467,"Delta":59057604},{"NoteNumber":77,"Velocity":59,"Duration":117793,"SoundDuration":117793,"Delta":59165330},{"NoteNumber":79,"Velocity":62,"Duration":117599,"SoundDuration":117599,"Delta":59272469},{"NoteNumber":77,"Velocity":61,"Duration":118372,"SoundDuration":118372,"Delta":59379327},{"NoteNumber":76,"Velocity":60,"Duration":119112,"SoundDuration":119112,"Delta":59486915},{"NoteNumber":74,"Velocity":59,"Duration":119988,"SoundDuration":119988,"Delta":59595154},{"NoteNumber":72,"Velocity":58,"Duration":120815,"SoundDuration":120815,"Delta":59704179},{"NoteNumber":52,"Velocity":40,"Duration":442319,"SoundDuration":442319,"Delta":59704179},{"NoteNumber":60,"Velocity":40,"Duration":442319,"SoundDuration":442319,"Delta":59704179},{"NoteNumber":71,"Velocity":57,"Duration":121564,"SoundDuration":121564,"Delta":59813984},{"NoteNumber":69,"Velocity":55,"Duration":122442,"SoundDuration":122442,"Delta":59924448},{"NoteNumber":67,"Velocity":53,"Duration":121674,"SoundDuration":121674,"Delta":60035742},{"NoteNumber":65,"Velocity":60,"Duration":217973,"SoundDuration":217973,"Delta":60146498},{"NoteNumber":50,"Velocity":40,"Duration":434600,"SoundDuration":434600,"Delta":60146498},{"NoteNumber":60,"Velocity":40,"Duration":434600,"SoundDuration":434600,"Delta":60146498},{"NoteNumber":67,"Velocity":53,"Duration":119300,"SoundDuration":119300,"Delta":60364472},{"NoteNumber":69,"Velocity":54,"Duration":118940,"SoundDuration":118940,"Delta":60472943},{"NoteNumber":71,"Velocity":55,"Duration":118636,"SoundDuration":118636,"Delta":60581098},{"NoteNumber":72,"Velocity":57,"Duration":118203,"SoundDuration":118203,"Delta":60688949},{"NoteNumber":74,"Velocity":58,"Duration":117846,"SoundDuration":117846,"Delta":60796412},{"NoteNumber":76,"Velocity":59,"Duration":117177,"SoundDuration":117177,"Delta":60903562},{"NoteNumber":77,"Velocity":62,"Duration":117264,"SoundDuration":117264,"Delta":61010127},{"NoteNumber":76,"Velocity":61,"Duration":117967,"SoundDuration":117967,"Delta":61116694},{"NoteNumber":74,"Velocity":60,"Duration":118770,"SoundDuration":118770,"Delta":61223913},{"NoteNumber":72,"Velocity":59,"Duration":119637,"SoundDuration":119637,"Delta":61331853},{"NoteNumber":71,"Velocity":58,"Duration":120385,"SoundDuration":120385,"Delta":61440572},{"NoteNumber":50,"Velocity":40,"Duration":441491,"SoundDuration":441491,"Delta":61440572},{"NoteNumber":59,"Velocity":40,"Duration":441491,"SoundDuration":441491,"Delta":61440572},{"NoteNumber":69,"Velocity":57,"Duration":121211,"SoundDuration":121211,"Delta":61549993},{"NoteNumber":67,"Velocity":55,"Duration":122003,"SoundDuration":122003,"Delta":61660149},{"NoteNumber":65,"Velocity":53,"Duration":122113,"SoundDuration":122113,"Delta":61771051},{"NoteNumber":64,"Velocity":60,"Duration":221620,"SoundDuration":221620,"Delta":61882063},{"NoteNumber":48,"Velocity":40,"Duration":441273,"SoundDuration":441273,"Delta":61882063},{"NoteNumber":60,"Velocity":40,"Duration":441273,"SoundDuration":441273,"Delta":61882063},{"NoteNumber":65,"Velocity":53,"Duration":121048,"SoundDuration":121048,"Delta":62103684},{"NoteNumber":67,"Velocity":54,"Duration":120487,"SoundDuration":120487,"Delta":62213768},{"NoteNumber":69,"Velocity":55,"Duration":119898,"SoundDuration":119898,"Delta":62323337},{"NoteNumber":71,"Velocity":57,"Duration":119388,"SoundDuration":119388,"Delta":62432361},{"NoteNumber":72,"Velocity":58,"Duration":118814,"SoundDuration":118814,"Delta":62540921},{"NoteNumber":74,"Velocity":59,"Duration":118266,"SoundDuration":118266,"Delta":62648950},{"NoteNumber":76,"Velocity":62,"Duration":117803,"SoundDuration":117803,"Delta":62756519},{"NoteNumber":74,"Velocity":61,"Duration":118449,"SoundDuration":118449,"Delta":62863581},{"NoteNumber":72,"Velocity":60,"Duration":119256,"SoundDuration":119256,"Delta":62971238},{"NoteNumber":71,"Velocity":59,"Duration":119988,"SoundDuration":119988,"Delta":63079621},{"NoteNumber":69,"Velocity":58,"Duration":120815,"SoundDuration":120815,"Delta":63188646},{"NoteNumber":52,"Velocity":40,"Duration":442824,"SoundDuration":442824,"Delta":63188646},{"NoteNumber":48,"Velocity":40,"Duration":442824,"SoundDuration":442824,"Delta":63188646},{"NoteNumber":67,"Velocity":57,"Duration":121564,"SoundDuration":121564,"Delta":63298451},{"NoteNumber":65,"Velocity":55,"Duration":122368,"SoundDuration":122368,"Delta":63408915},{"NoteNumber":64,"Velocity":53,"Duration":122391,"SoundDuration":122391,"Delta":63520135},{"NoteNumber":62,"Velocity":60,"Duration":220782,"SoundDuration":220782,"Delta":63631471},{"NoteNumber":53,"Velocity":40,"Duration":1752609,"SoundDuration":1752609,"Delta":63631471},{"NoteNumber":57,"Velocity":40,"Duration":1752609,"SoundDuration":1752609,"Delta":63631471},{"NoteNumber":64,"Velocity":53,"Duration":120861,"SoundDuration":120861,"Delta":63852253},{"NoteNumber":65,"Velocity":54,"Duration":120559,"SoundDuration":120559,"Delta":63962151},{"NoteNumber":67,"Velocity":55,"Duration":120104,"SoundDuration":120104,"Delta":64071792},{"NoteNumber":69,"Velocity":57,"Duration":119736,"SoundDuration":119736,"Delta":64180978},{"NoteNumber":71,"Velocity":58,"Duration":119370,"SoundDuration":119370,"Delta":64289841},{"NoteNumber":73,"Velocity":59,"Duration":119733,"SoundDuration":119733,"Delta":64398382},{"NoteNumber":74,"Velocity":62,"Duration":114381,"SoundDuration":114381,"Delta":64506677},{"NoteNumber":69,"Velocity":58,"Duration":121153,"SoundDuration":121153,"Delta":64621059},{"NoteNumber":71,"Velocity":61,"Duration":119125,"SoundDuration":119125,"Delta":64731383},{"NoteNumber":73,"Velocity":64,"Duration":119125,"SoundDuration":119125,"Delta":64839678},{"NoteNumber":74,"Velocity":66,"Duration":119125,"SoundDuration":119125,"Delta":64947974},{"NoteNumber":76,"Velocity":67,"Duration":119125,"SoundDuration":119125,"Delta":65056269},{"NoteNumber":77,"Velocity":68,"Duration":120075,"SoundDuration":120075,"Delta":65164565},{"NoteNumber":79,"Velocity":69,"Duration":121210,"SoundDuration":121210,"Delta":65273591},{"NoteNumber":81,"Velocity":70,"Duration":117941,"SoundDuration":117941,"Delta":65384080},{"NoteNumber":53,"Velocity":60,"Duration":643316,"SoundDuration":643316,"Delta":65384080},{"NoteNumber":83,"Velocity":69,"Duration":117941,"SoundDuration":117941,"Delta":65491300},{"NoteNumber":84,"Velocity":71,"Duration":117941,"SoundDuration":117941,"Delta":65598519},{"NoteNumber":83,"Velocity":69,"Duration":117941,"SoundDuration":117941,"Delta":65705739},{"NoteNumber":81,"Velocity":67,"Duration":117941,"SoundDuration":117941,"Delta":65812958},{"NoteNumber":79,"Velocity":65,"Duration":117941,"SoundDuration":117941,"Delta":65920178},{"NoteNumber":77,"Velocity":63,"Duration":119542,"SoundDuration":119542,"Delta":66027397},{"NoteNumber":55,"Velocity":55,"Duration":219364,"SoundDuration":219364,"Delta":66027397},{"NoteNumber":76,"Velocity":66,"Duration":110914,"SoundDuration":110914,"Delta":66135848},{"NoteNumber":77,"Velocity":65,"Duration":117079,"SoundDuration":117079,"Delta":66246762},{"NoteNumber":57,"Velocity":60,"Duration":638614,"SoundDuration":638614,"Delta":66246762},{"NoteNumber":79,"Velocity":66,"Duration":117079,"SoundDuration":117079,"Delta":66353198},{"NoteNumber":81,"Velocity":67,"Duration":117079,"SoundDuration":117079,"Delta":66459634},{"NoteNumber":79,"Velocity":67,"Duration":117079,"SoundDuration":117079,"Delta":66566070},{"NoteNumber":77,"Velocity":68,"Duration":117079,"SoundDuration":117079,"Delta":66672505},{"NoteNumber":76,"Velocity":71,"Duration":117079,"SoundDuration":117079,"Delta":66778941},{"NoteNumber":74,"Velocity":73,"Duration":120307,"SoundDuration":120307,"Delta":66885377},{"NoteNumber":54,"Velocity":54,"Duration":222805,"SoundDuration":222805,"Delta":66885377},{"NoteNumber":72,"Velocity":76,"Duration":124688,"SoundDuration":124688,"Delta":66994296},{"NoteNumber":71,"Velocity":78,"Duration":108022,"SoundDuration":108022,"Delta":67108183},{"NoteNumber":43,"Velocity":65,"Duration":108022,"SoundDuration":108022,"Delta":67108183},{"NoteNumber":47,"Velocity":56,"Duration":108022,"SoundDuration":108022,"Delta":67216205},{"NoteNumber":79,"Velocity":71,"Duration":107511,"SoundDuration":107511,"Delta":67324228},{"NoteNumber":50,"Velocity":56,"Duration":107511,"SoundDuration":107511,"Delta":67324228},{"NoteNumber":55,"Velocity":50,"Duration":107511,"SoundDuration":107511,"Delta":67431739},{"NoteNumber":76,"Velocity":71,"Duration":107511,"SoundDuration":107511,"Delta":67539251},{"NoteNumber":43,"Velocity":65,"Duration":107511,"SoundDuration":107511,"Delta":67539251},{"NoteNumber":48,"Velocity":55,"Duration":107511,"SoundDuration":107511,"Delta":67646762},{"NoteNumber":72,"Velocity":71,"Duration":108993,"SoundDuration":108993,"Delta":67754274},{"NoteNumber":52,"Velocity":55,"Duration":108993,"SoundDuration":108993,"Delta":67754274},{"NoteNumber":55,"Velocity":50,"Duration":111957,"SoundDuration":111957,"Delta":67863267},{"NoteNumber":74,"Velocity":78,"Duration":108022,"SoundDuration":108022,"Delta":67975224},{"NoteNumber":43,"Velocity":65,"Duration":108022,"SoundDuration":108022,"Delta":67975224},{"NoteNumber":47,"Velocity":55,"Duration":108022,"SoundDuration":108022,"Delta":68083247},{"NoteNumber":79,"Velocity":71,"Duration":107905,"SoundDuration":107905,"Delta":68191269},{"NoteNumber":50,"Velocity":55,"Duration":107905,"SoundDuration":107905,"Delta":68191269},{"NoteNumber":55,"Velocity":54,"Duration":107905,"SoundDuration":107905,"Delta":68299175},{"NoteNumber":76,"Velocity":71,"Duration":107905,"SoundDuration":107905,"Delta":68407081},{"NoteNumber":43,"Velocity":65,"Duration":107905,"SoundDuration":107905,"Delta":68407081},{"NoteNumber":48,"Velocity":57,"Duration":107905,"SoundDuration":107905,"Delta":68514987},{"NoteNumber":72,"Velocity":71,"Duration":109098,"SoundDuration":109098,"Delta":68622893},{"NoteNumber":52,"Velocity":56,"Duration":109098,"SoundDuration":109098,"Delta":68622893},{"NoteNumber":55,"Velocity":53,"Duration":111482,"SoundDuration":111482,"Delta":68731991},{"NoteNumber":74,"Velocity":81,"Duration":118623,"SoundDuration":118623,"Delta":68843474},{"NoteNumber":43,"Velocity":65,"Duration":118623,"SoundDuration":118623,"Delta":68843474},{"NoteNumber":71,"Velocity":71,"Duration":120958,"SoundDuration":120958,"Delta":69317970},{"NoteNumber":79,"Velocity":71,"Duration":120958,"SoundDuration":120958,"Delta":69317970},{"NoteNumber":74,"Velocity":71,"Duration":120958,"SoundDuration":120958,"Delta":69317970},{"NoteNumber":55,"Velocity":59,"Duration":120958,"SoundDuration":120958,"Delta":69317970},{"NoteNumber":67,"Velocity":83,"Duration":483831,"SoundDuration":483831,"Delta":69801802},{"NoteNumber":43,"Velocity":61,"Duration":483831,"SoundDuration":483831,"Delta":69801802},{"NoteNumber":61,"Velocity":42,"Duration":119250,"SoundDuration":119250,"Delta":70739217},{"NoteNumber":62,"Velocity":36,"Duration":108250,"SoundDuration":108250,"Delta":70847596},{"NoteNumber":61,"Velocity":42,"Duration":118332,"SoundDuration":118332,"Delta":70955847},{"NoteNumber":62,"Velocity":36,"Duration":107708,"SoundDuration":107708,"Delta":71063389},{"NoteNumber":61,"Velocity":42,"Duration":118542,"SoundDuration":118542,"Delta":71171098},{"NoteNumber":62,"Velocity":38,"Duration":107626,"SoundDuration":107626,"Delta":71278889},{"NoteNumber":61,"Velocity":42,"Duration":118617,"SoundDuration":118617,"Delta":71386515},{"NoteNumber":62,"Velocity":37,"Duration":113395,"SoundDuration":113395,"Delta":71493793},{"NoteNumber":60,"Velocity":42,"Duration":118753,"SoundDuration":118753,"Delta":71607188},{"NoteNumber":62,"Velocity":36,"Duration":107961,"SoundDuration":107961,"Delta":71715111},{"NoteNumber":60,"Velocity":42,"Duration":118332,"SoundDuration":118332,"Delta":71823073},{"NoteNumber":62,"Velocity":37,"Duration":107905,"SoundDuration":107905,"Delta":71930615},{"NoteNumber":60,"Velocity":42,"Duration":118209,"SoundDuration":118209,"Delta":72038521},{"NoteNumber":62,"Velocity":37,"Duration":108277,"SoundDuration":108277,"Delta":72145899},{"NoteNumber":60,"Velocity":42,"Duration":118940,"SoundDuration":118940,"Delta":72254177},{"NoteNumber":62,"Velocity":38,"Duration":114285,"SoundDuration":114285,"Delta":72361688},{"NoteNumber":86,"Velocity":61,"Duration":217438,"SoundDuration":217438,"Delta":72475974},{"NoteNumber":59,"Velocity":42,"Duration":108719,"SoundDuration":108719,"Delta":72475974},{"NoteNumber":62,"Velocity":36,"Duration":108719,"SoundDuration":108719,"Delta":72584693},{"NoteNumber":83,"Velocity":55,"Duration":219074,"SoundDuration":219074,"Delta":72693413},{"NoteNumber":59,"Velocity":42,"Duration":109537,"SoundDuration":109537,"Delta":72693413},{"NoteNumber":62,"Velocity":36,"Duration":109537,"SoundDuration":109537,"Delta":72802950},{"NoteNumber":79,"Velocity":61,"Duration":655586,"SoundDuration":655586,"Delta":72912487},{"NoteNumber":59,"Velocity":42,"Duration":109536,"SoundDuration":109536,"Delta":72912487},{"NoteNumber":62,"Velocity":32,"Duration":109537,"SoundDuration":109537,"Delta":73022024},{"NoteNumber":59,"Velocity":38,"Duration":109537,"SoundDuration":109537,"Delta":73131561},{"NoteNumber":62,"Velocity":33,"Duration":109537,"SoundDuration":109537,"Delta":73241098},{"NoteNumber":59,"Velocity":39,"Duration":108719,"SoundDuration":108719,"Delta":73350635},{"NoteNumber":62,"Velocity":32,"Duration":108719,"SoundDuration":108719,"Delta":73459354},{"NoteNumber":81,"Velocity":53,"Duration":109537,"SoundDuration":109537,"Delta":73568073},{"NoteNumber":59,"Velocity":39,"Duration":109537,"SoundDuration":109537,"Delta":73568073},{"NoteNumber":83,"Velocity":51,"Duration":109537,"SoundDuration":109537,"Delta":73677610},{"NoteNumber":62,"Velocity":34,"Duration":109537,"SoundDuration":109537,"Delta":73677610},{"NoteNumber":81,"Velocity":55,"Duration":219073,"SoundDuration":219073,"Delta":73787147},{"NoteNumber":59,"Velocity":42,"Duration":109536,"SoundDuration":109536,"Delta":73787147},{"NoteNumber":62,"Velocity":37,"Duration":109537,"SoundDuration":109537,"Delta":73896684},{"NoteNumber":79,"Velocity":53,"Duration":109537,"SoundDuration":109537,"Delta":74006221},{"NoteNumber":59,"Velocity":42,"Duration":109537,"SoundDuration":109537,"Delta":74006221},{"NoteNumber":62,"Velocity":38,"Duration":109537,"SoundDuration":109537,"Delta":74115758},{"NoteNumber":79,"Velocity":55,"Duration":55187,"SoundDuration":55187,"Delta":74225295},{"NoteNumber":60,"Velocity":46,"Duration":110375,"SoundDuration":110375,"Delta":74225295},{"NoteNumber":81,"Velocity":51,"Duration":55187,"SoundDuration":55187,"Delta":74280483},{"NoteNumber":79,"Velocity":56,"Duration":55187,"SoundDuration":55187,"Delta":74335670},{"NoteNumber":62,"Velocity":38,"Duration":110375,"SoundDuration":110375,"Delta":74335670},{"NoteNumber":81,"Velocity":51,"Duration":55187,"SoundDuration":55187,"Delta":74390858},{"NoteNumber":79,"Velocity":58,"Duration":110375,"SoundDuration":110375,"Delta":74446046},{"NoteNumber":59,"Velocity":42,"Duration":110375,"SoundDuration":110375,"Delta":74446046},{"NoteNumber":78,"Velocity":52,"Duration":101177,"SoundDuration":101177,"Delta":74556421},{"NoteNumber":62,"Velocity":36,"Duration":110375,"SoundDuration":110375,"Delta":74556421},{"NoteNumber":78,"Velocity":58,"Duration":436491,"SoundDuration":436491,"Delta":74666796},{"NoteNumber":57,"Velocity":39,"Duration":120035,"SoundDuration":120035,"Delta":74666796},{"NoteNumber":62,"Velocity":27,"Duration":109122,"SoundDuration":109122,"Delta":74775919},{"NoteNumber":59,"Velocity":47,"Duration":120035,"SoundDuration":120035,"Delta":74885042},{"NoteNumber":62,"Velocity":35,"Duration":109122,"SoundDuration":109122,"Delta":74994164},{"NoteNumber":60,"Velocity":50,"Duration":120035,"SoundDuration":120035,"Delta":75103287},{"NoteNumber":62,"Velocity":36,"Duration":109122,"SoundDuration":109122,"Delta":75212410},{"NoteNumber":59,"Velocity":44,"Duration":120035,"SoundDuration":120035,"Delta":75321533},{"NoteNumber":62,"Velocity":30,"Duration":109122,"SoundDuration":109122,"Delta":75430655},{"NoteNumber":60,"Velocity":52,"Duration":120949,"SoundDuration":120949,"Delta":75539778},{"NoteNumber":62,"Velocity":31,"Duration":109954,"SoundDuration":109954,"Delta":75649733},{"NoteNumber":57,"Velocity":40,"Duration":121803,"SoundDuration":121803,"Delta":75759687},{"NoteNumber":62,"Velocity":28,"Duration":118492,"SoundDuration":118492,"Delta":75869642},{"NoteNumber":86,"Velocity":61,"Duration":217438,"SoundDuration":217438,"Delta":75988134},{"NoteNumber":59,"Velocity":42,"Duration":108719,"SoundDuration":108719,"Delta":75988134},{"NoteNumber":62,"Velocity":36,"Duration":108719,"SoundDuration":108719,"Delta":76096854},{"NoteNumber":83,"Velocity":55,"Duration":219074,"SoundDuration":219074,"Delta":76205573},{"NoteNumber":59,"Velocity":42,"Duration":109537,"SoundDuration":109537,"Delta":76205573},{"NoteNumber":62,"Velocity":36,"Duration":109537,"SoundDuration":109537,"Delta":76315110},{"NoteNumber":79,"Velocity":61,"Duration":655586,"SoundDuration":655586,"Delta":76424647},{"NoteNumber":59,"Velocity":42,"Duration":109536,"SoundDuration":109536,"Delta":76424647},{"NoteNumber":62,"Velocity":32,"Duration":109537,"SoundDuration":109537,"Delta":76534184},{"NoteNumber":59,"Velocity":38,"Duration":109537,"SoundDuration":109537,"Delta":76643721},{"NoteNumber":62,"Velocity":33,"Duration":109537,"SoundDuration":109537,"Delta":76753258},{"NoteNumber":59,"Velocity":39,"Duration":108719,"SoundDuration":108719,"Delta":76862795},{"NoteNumber":62,"Velocity":32,"Duration":108719,"SoundDuration":108719,"Delta":76971514},{"NoteNumber":81,"Velocity":53,"Duration":109537,"SoundDuration":109537,"Delta":77080233},{"NoteNumber":59,"Velocity":39,"Duration":109537,"SoundDuration":109537,"Delta":77080233},{"NoteNumber":83,"Velocity":51,"Duration":109537,"SoundDuration":109537,"Delta":77189770},{"NoteNumber":62,"Velocity":34,"Duration":109537,"SoundDuration":109537,"Delta":77189770},{"NoteNumber":81,"Velocity":55,"Duration":219073,"SoundDuration":219073,"Delta":77299307},{"NoteNumber":59,"Velocity":42,"Duration":109536,"SoundDuration":109536,"Delta":77299307},{"NoteNumber":62,"Velocity":37,"Duration":109537,"SoundDuration":109537,"Delta":77408844},{"NoteNumber":79,"Velocity":53,"Duration":109537,"SoundDuration":109537,"Delta":77518381},{"NoteNumber":59,"Velocity":42,"Duration":109537,"SoundDuration":109537,"Delta":77518381},{"NoteNumber":62,"Velocity":38,"Duration":109537,"SoundDuration":109537,"Delta":77627918},{"NoteNumber":79,"Velocity":55,"Duration":55187,"SoundDuration":55187,"Delta":77737455},{"NoteNumber":60,"Velocity":42,"Duration":110375,"SoundDuration":110375,"Delta":77737455},{"NoteNumber":81,"Velocity":51,"Duration":55187,"SoundDuration":55187,"Delta":77792643},{"NoteNumber":79,"Velocity":56,"Duration":55187,"SoundDuration":55187,"Delta":77847831},{"NoteNumber":62,"Velocity":36,"Duration":110375,"SoundDuration":110375,"Delta":77847831},{"NoteNumber":81,"Velocity":50,"Duration":55187,"SoundDuration":55187,"Delta":77903018},{"NoteNumber":79,"Velocity":55,"Duration":110375,"SoundDuration":110375,"Delta":77958206},{"NoteNumber":59,"Velocity":42,"Duration":110375,"SoundDuration":110375,"Delta":77958206},{"NoteNumber":78,"Velocity":52,"Duration":82781,"SoundDuration":82781,"Delta":78068581},{"NoteNumber":62,"Velocity":36,"Duration":110375,"SoundDuration":110375,"Delta":78068581},{"NoteNumber":78,"Velocity":58,"Duration":438147,"SoundDuration":438147,"Delta":78178956},{"NoteNumber":57,"Velocity":39,"Duration":120490,"SoundDuration":120490,"Delta":78178956},{"NoteNumber":62,"Velocity":29,"Duration":109537,"SoundDuration":109537,"Delta":78288493},{"NoteNumber":59,"Velocity":42,"Duration":120490,"SoundDuration":120490,"Delta":78398030},{"NoteNumber":62,"Velocity":32,"Duration":109537,"SoundDuration":109537,"Delta":78507567},{"NoteNumber":60,"Velocity":48,"Duration":120490,"SoundDuration":120490,"Delta":78617104},{"NoteNumber":62,"Velocity":36,"Duration":109537,"SoundDuration":109537,"Delta":78726641},{"NoteNumber":59,"Velocity":43,"Duration":120490,"SoundDuration":120490,"Delta":78836178},{"NoteNumber":62,"Velocity":30,"Duration":109537,"SoundDuration":109537,"Delta":78945715},{"NoteNumber":60,"Velocity":48,"Duration":120949,"SoundDuration":120949,"Delta":79055252},{"NoteNumber":62,"Velocity":36,"Duration":109954,"SoundDuration":109954,"Delta":79165207},{"NoteNumber":57,"Velocity":43,"Duration":121660,"SoundDuration":121660,"Delta":79275161},{"NoteNumber":62,"Velocity":30,"Duration":117059,"SoundDuration":117059,"Delta":79385116},{"NoteNumber":86,"Velocity":69,"Duration":451781,"SoundDuration":451781,"Delta":79502175},{"NoteNumber":59,"Velocity":39,"Duration":112396,"SoundDuration":112396,"Delta":79620595},{"NoteNumber":62,"Velocity":42,"Duration":110996,"SoundDuration":110996,"Delta":79732992},{"NoteNumber":67,"Velocity":39,"Duration":109968,"SoundDuration":109968,"Delta":79843989},{"NoteNumber":71,"Velocity":48,"Duration":448652,"SoundDuration":448652,"Delta":79953957},{"NoteNumber":86,"Velocity":61,"Duration":110375,"SoundDuration":110375,"Delta":80071484},{"NoteNumber":83,"Velocity":66,"Duration":110375,"SoundDuration":110375,"Delta":80181860},{"NoteNumber":79,"Velocity":61,"Duration":110375,"SoundDuration":110375,"Delta":80292235},{"NoteNumber":76,"Velocity":68,"Duration":446546,"SoundDuration":446546,"Delta":80402610},{"NoteNumber":60,"Velocity":42,"Duration":111769,"SoundDuration":111769,"Delta":80516896},{"NoteNumber":64,"Velocity":44,"Duration":110770,"SoundDuration":110770,"Delta":80628666},{"NoteNumber":67,"Velocity":41,"Duration":109721,"SoundDuration":109721,"Delta":80739436},{"NoteNumber":72,"Velocity":52,"Duration":442815,"SoundDuration":442815,"Delta":80849157},{"NoteNumber":76,"Velocity":61,"Duration":109954,"SoundDuration":109954,"Delta":80962109},{"NoteNumber":79,"Velocity":66,"Duration":109954,"SoundDuration":109954,"Delta":81072063},{"NoteNumber":76,"Velocity":61,"Duration":109954,"SoundDuration":109954,"Delta":81182018},{"NoteNumber":84,"Velocity":69,"Duration":452801,"SoundDuration":452801,"Delta":81291972},{"NoteNumber":57,"Velocity":39,"Duration":112449,"SoundDuration":112449,"Delta":81410392},{"NoteNumber":60,"Velocity":42,"Duration":111140,"SoundDuration":111140,"Delta":81522842},{"NoteNumber":66,"Velocity":39,"Duration":110791,"SoundDuration":110791,"Delta":81633983},{"NoteNumber":69,"Velocity":48,"Duration":444077,"SoundDuration":444077,"Delta":81744774},{"NoteNumber":84,"Velocity":61,"Duration":110375,"SoundDuration":110375,"Delta":81857726},{"NoteNumber":81,"Velocity":66,"Duration":110375,"SoundDuration":110375,"Delta":81968101},{"NoteNumber":78,"Velocity":61,"Duration":110375,"SoundDuration":110375,"Delta":82078476},{"NoteNumber":74,"Velocity":68,"Duration":442396,"SoundDuration":442396,"Delta":82188852},{"NoteNumber":59,"Velocity":42,"Duration":110752,"SoundDuration":110752,"Delta":82300399},{"NoteNumber":62,"Velocity":44,"Duration":110284,"SoundDuration":110284,"Delta":82411152},{"NoteNumber":66,"Velocity":41,"Duration":109811,"SoundDuration":109811,"Delta":82521436},{"NoteNumber":71,"Velocity":52,"Duration":442815,"SoundDuration":442815,"Delta":82631248},{"NoteNumber":74,"Velocity":61,"Duration":109954,"SoundDuration":109954,"Delta":82744200},{"NoteNumber":78,"Velocity":66,"Duration":109954,"SoundDuration":109954,"Delta":82854154},{"NoteNumber":74,"Velocity":61,"Duration":109954,"SoundDuration":109954,"Delta":82964109},{"NoteNumber":83,"Velocity":68,"Duration":447886,"SoundDuration":447886,"Delta":83074063},{"NoteNumber":55,"Velocity":39,"Duration":111823,"SoundDuration":111823,"Delta":83189111},{"NoteNumber":59,"Velocity":42,"Duration":110941,"SoundDuration":110941,"Delta":83300935},{"NoteNumber":64,"Velocity":39,"Duration":110073,"SoundDuration":110073,"Delta":83411876},{"NoteNumber":67,"Velocity":48,"Duration":442749,"SoundDuration":442749,"Delta":83521950},{"NoteNumber":83,"Velocity":61,"Duration":110375,"SoundDuration":110375,"Delta":83633574},{"NoteNumber":79,"Velocity":66,"Duration":110375,"SoundDuration":110375,"Delta":83743949},{"NoteNumber":76,"Velocity":61,"Duration":110375,"SoundDuration":110375,"Delta":83854324},{"NoteNumber":72,"Velocity":68,"Duration":445534,"SoundDuration":445534,"Delta":83964699},{"NoteNumber":57,"Velocity":42,"Duration":111624,"SoundDuration":111624,"Delta":84078783},{"NoteNumber":60,"Velocity":44,"Duration":110468,"SoundDuration":110468,"Delta":84190408},{"NoteNumber":64,"Velocity":41,"Duration":109358,"SoundDuration":109358,"Delta":84300876},{"NoteNumber":69,"Velocity":52,"Duration":442815,"SoundDuration":442815,"Delta":84410234},{"NoteNumber":72,"Velocity":61,"Duration":109954,"SoundDuration":109954,"Delta":84523186},{"NoteNumber":76,"Velocity":66,"Duration":109954,"SoundDuration":109954,"Delta":84633140},{"NoteNumber":72,"Velocity":61,"Duration":109954,"SoundDuration":109954,"Delta":84743095},{"NoteNumber":81,"Velocity":68,"Duration":450097,"SoundDuration":450097,"Delta":84853049},{"NoteNumber":54,"Velocity":39,"Duration":110375,"SoundDuration":110375,"Delta":84972021},{"NoteNumber":57,"Velocity":42,"Duration":110375,"SoundDuration":110375,"Delta":85082396},{"NoteNumber":62,"Velocity":39,"Duration":110375,"SoundDuration":110375,"Delta":85192772},{"NoteNumber":66,"Velocity":48,"Duration":444077,"SoundDuration":444077,"Delta":85303147},{"NoteNumber":81,"Velocity":61,"Duration":110375,"SoundDuration":110375,"Delta":85416099},{"NoteNumber":78,"Velocity":66,"Duration":110375,"SoundDuration":110375,"Delta":85526474},{"NoteNumber":72,"Velocity":61,"Duration":110375,"SoundDuration":110375,"Delta":85636849},{"NoteNumber":71,"Velocity":68,"Duration":444149,"SoundDuration":444149,"Delta":85747224},{"NoteNumber":55,"Velocity":42,"Duration":109954,"SoundDuration":109954,"Delta":85861510},{"NoteNumber":59,"Velocity":44,"Duration":109954,"SoundDuration":109954,"Delta":85971465},{"NoteNumber":62,"Velocity":41,"Duration":109954,"SoundDuration":109954,"Delta":86081419},{"NoteNumber":67,"Velocity":52,"Duration":442815,"SoundDuration":442815,"Delta":86191374},{"NoteNumber":79,"Velocity":61,"Duration":109954,"SoundDuration":109954,"Delta":86304325},{"NoteNumber":74,"Velocity":66,"Duration":109954,"SoundDuration":109954,"Delta":86414280},{"NoteNumber":71,"Velocity":61,"Duration":109954,"SoundDuration":109954,"Delta":86524234},{"NoteNumber":69,"Velocity":66,"Duration":824658,"SoundDuration":824658,"Delta":86634189},{"NoteNumber":64,"Velocity":44,"Duration":109954,"SoundDuration":109954,"Delta":86634189},{"NoteNumber":60,"Velocity":44,"Duration":109954,"SoundDuration":109954,"Delta":86634189},{"NoteNumber":64,"Velocity":39,"Duration":109954,"SoundDuration":109954,"Delta":86854098},{"NoteNumber":60,"Velocity":39,"Duration":109954,"SoundDuration":109954,"Delta":86854098},{"NoteNumber":64,"Velocity":39,"Duration":109954,"SoundDuration":109954,"Delta":87074007},{"NoteNumber":60,"Velocity":39,"Duration":109954,"SoundDuration":109954,"Delta":87074007},{"NoteNumber":60,"Velocity":39,"Duration":109954,"SoundDuration":109954,"Delta":87293916},{"NoteNumber":64,"Velocity":39,"Duration":109954,"SoundDuration":109954,"Delta":87293916},{"NoteNumber":71,"Velocity":64,"Duration":54977,"SoundDuration":54977,"Delta":87458848},{"NoteNumber":72,"Velocity":69,"Duration":384840,"SoundDuration":384840,"Delta":87513825},{"NoteNumber":60,"Velocity":44,"Duration":109954,"SoundDuration":109954,"Delta":87513825},{"NoteNumber":64,"Velocity":44,"Duration":109954,"SoundDuration":109954,"Delta":87513825},{"NoteNumber":60,"Velocity":40,"Duration":109954,"SoundDuration":109954,"Delta":87733734},{"NoteNumber":64,"Velocity":40,"Duration":109954,"SoundDuration":109954,"Delta":87733734},{"NoteNumber":75,"Velocity":65,"Duration":54977,"SoundDuration":54977,"Delta":87898666},{"NoteNumber":76,"Velocity":72,"Duration":390661,"SoundDuration":390661,"Delta":87953643},{"NoteNumber":64,"Velocity":40,"Duration":109954,"SoundDuration":109954,"Delta":87953643},{"NoteNumber":60,"Velocity":40,"Duration":109954,"SoundDuration":109954,"Delta":87953643},{"NoteNumber":60,"Velocity":41,"Duration":113834,"SoundDuration":113834,"Delta":88173552},{"NoteNumber":64,"Velocity":41,"Duration":113834,"SoundDuration":113834,"Delta":88173552},{"NoteNumber":80,"Velocity":65,"Duration":56917,"SoundDuration":56917,"Delta":88344304},{"NoteNumber":81,"Velocity":71,"Duration":657222,"SoundDuration":657222,"Delta":88401221},{"NoteNumber":64,"Velocity":50,"Duration":109537,"SoundDuration":109537,"Delta":88401221},{"NoteNumber":60,"Velocity":50,"Duration":109537,"SoundDuration":109537,"Delta":88401221},{"NoteNumber":64,"Velocity":44,"Duration":109536,"SoundDuration":109536,"Delta":88620295},{"NoteNumber":60,"Velocity":44,"Duration":109536,"SoundDuration":109536,"Delta":88620295},{"NoteNumber":64,"Velocity":44,"Duration":109537,"SoundDuration":109537,"Delta":88839369},{"NoteNumber":60,"Velocity":44,"Duration":109537,"SoundDuration":109537,"Delta":88839369},{"NoteNumber":83,"Velocity":66,"Duration":54768,"SoundDuration":54768,"Delta":89058443},{"NoteNumber":60,"Velocity":44,"Duration":109536,"SoundDuration":109536,"Delta":89058443},{"NoteNumber":64,"Velocity":44,"Duration":109536,"SoundDuration":109536,"Delta":89058443},{"NoteNumber":81,"Velocity":66,"Duration":54768,"SoundDuration":54768,"Delta":89113212},{"NoteNumber":80,"Velocity":66,"Duration":54768,"SoundDuration":54768,"Delta":89167980},{"NoteNumber":81,"Velocity":66,"Duration":54768,"SoundDuration":54768,"Delta":89222749},{"NoteNumber":84,"Velocity":74,"Duration":219074,"SoundDuration":219074,"Delta":89277517},{"NoteNumber":60,"Velocity":49,"Duration":109537,"SoundDuration":109537,"Delta":89277517},{"NoteNumber":64,"Velocity":49,"Duration":109537,"SoundDuration":109537,"Delta":89277517},{"NoteNumber":81,"Velocity":68,"Duration":219073,"SoundDuration":219073,"Delta":89496591},{"NoteNumber":64,"Velocity":46,"Duration":109537,"SoundDuration":109537,"Delta":89496591},{"NoteNumber":60,"Velocity":46,"Duration":109537,"SoundDuration":109537,"Delta":89496591},{"NoteNumber":84,"Velocity":75,"Duration":219074,"SoundDuration":219074,"Delta":89715665},{"NoteNumber":60,"Velocity":46,"Duration":109537,"SoundDuration":109537,"Delta":89715665},{"NoteNumber":64,"Velocity":46,"Duration":109537,"SoundDuration":109537,"Delta":89715665},{"NoteNumber":81,"Velocity":69,"Duration":223371,"SoundDuration":223371,"Delta":89934739},{"NoteNumber":60,"Velocity":46,"Duration":109537,"SoundDuration":109537,"Delta":89934739},{"NoteNumber":64,"Velocity":46,"Duration":109537,"SoundDuration":109537,"Delta":89934739},{"NoteNumber":83,"Velocity":78,"Duration":218245,"SoundDuration":218245,"Delta":90158111},{"NoteNumber":62,"Velocity":50,"Duration":109122,"SoundDuration":109122,"Delta":90158111},{"NoteNumber":71,"Velocity":42,"Duration":109122,"SoundDuration":109122,"Delta":90267234},{"NoteNumber":79,"Velocity":73,"Duration":223863,"SoundDuration":223863,"Delta":90376357},{"NoteNumber":67,"Velocity":42,"Duration":109122,"SoundDuration":109122,"Delta":90376357},{"NoteNumber":71,"Velocity":42,"Duration":114740,"SoundDuration":114740,"Delta":90485479},{"NoteNumber":86,"Velocity":79,"Duration":872981,"SoundDuration":872981,"Delta":90600220},{"NoteNumber":62,"Velocity":49,"Duration":109122,"SoundDuration":109122,"Delta":90600220},{"NoteNumber":71,"Velocity":42,"Duration":109122,"SoundDuration":109122,"Delta":90709342},{"NoteNumber":67,"Velocity":42,"Duration":109122,"SoundDuration":109122,"Delta":90818465},{"NoteNumber":71,"Velocity":42,"Duration":109122,"SoundDuration":109122,"Delta":90927588},{"NoteNumber":62,"Velocity":48,"Duration":109122,"SoundDuration":109122,"Delta":91036711},{"NoteNumber":71,"Velocity":42,"Duration":109122,"SoundDuration":109122,"Delta":91145833},{"NoteNumber":67,"Velocity":42,"Duration":109122,"SoundDuration":109122,"Delta":91254956},{"NoteNumber":71,"Velocity":42,"Duration":109122,"SoundDuration":109122,"Delta":91364079},{"NoteNumber":84,"Velocity":70,"Duration":109122,"SoundDuration":109122,"Delta":91473202},{"NoteNumber":62,"Velocity":49,"Duration":109122,"SoundDuration":109122,"Delta":91473202},{"NoteNumber":83,"Velocity":68,"Duration":109122,"SoundDuration":109122,"Delta":91582324},{"NoteNumber":71,"Velocity":42,"Duration":109122,"SoundDuration":109122,"Delta":91582324},{"NoteNumber":81,"Velocity":67,"Duration":109122,"SoundDuration":109122,"Delta":91691447},{"NoteNumber":67,"Velocity":42,"Duration":109122,"SoundDuration":109122,"Delta":91691447},{"NoteNumber":79,"Velocity":65,"Duration":116619,"SoundDuration":116619,"Delta":91800570},{"NoteNumber":71,"Velocity":42,"Duration":116619,"SoundDuration":116619,"Delta":91800570},{"NoteNumber":81,"Velocity":49,"Duration":59185,"SoundDuration":59185,"Delta":91917190},{"NoteNumber":62,"Velocity":50,"Duration":117867,"SoundDuration":117867,"Delta":91917190},{"NoteNumber":83,"Velocity":38,"Duration":58681,"SoundDuration":58681,"Delta":91976375},{"NoteNumber":81,"Velocity":49,"Duration":58203,"SoundDuration":58203,"Delta":92035057},{"NoteNumber":72,"Velocity":42,"Duration":115992,"SoundDuration":115992,"Delta":92035057},{"NoteNumber":83,"Velocity":40,"Duration":57789,"SoundDuration":57789,"Delta":92093261},{"NoteNumber":81,"Velocity":50,"Duration":57313,"SoundDuration":57313,"Delta":92151050},{"NoteNumber":66,"Velocity":42,"Duration":114232,"SoundDuration":114232,"Delta":92151050},{"NoteNumber":83,"Velocity":40,"Duration":56918,"SoundDuration":56918,"Delta":92208364},{"NoteNumber":81,"Velocity":50,"Duration":56457,"SoundDuration":56457,"Delta":92265282},{"NoteNumber":72,"Velocity":42,"Duration":112520,"SoundDuration":112520,"Delta":92265282},{"NoteNumber":83,"Velocity":40,"Duration":56062,"SoundDuration":56062,"Delta":92321740},{"NoteNumber":81,"Velocity":52,"Duration":56173,"SoundDuration":56173,"Delta":92377803},{"NoteNumber":62,"Velocity":49,"Duration":112579,"SoundDuration":112579,"Delta":92377803},{"NoteNumber":83,"Velocity":40,"Duration":56406,"SoundDuration":56406,"Delta":92433976},{"NoteNumber":81,"Velocity":52,"Duration":56683,"SoundDuration":56683,"Delta":92490382},{"NoteNumber":72,"Velocity":42,"Duration":113136,"SoundDuration":113136,"Delta":92490382},{"NoteNumber":83,"Velocity":41,"Duration":56453,"SoundDuration":56453,"Delta":92547065},{"NoteNumber":81,"Velocity":53,"Duration":56223,"SoundDuration":56223,"Delta":92603519},{"NoteNumber":66,"Velocity":42,"Duration":112224,"SoundDuration":112224,"Delta":92603519},{"NoteNumber":83,"Velocity":41,"Duration":56001,"SoundDuration":56001,"Delta":92659743},{"NoteNumber":81,"Velocity":53,"Duration":55705,"SoundDuration":55705,"Delta":92715744},{"NoteNumber":72,"Velocity":42,"Duration":111315,"SoundDuration":111315,"Delta":92715744},{"NoteNumber":83,"Velocity":42,"Duration":55609,"SoundDuration":55609,"Delta":92771450},{"NoteNumber":81,"Velocity":54,"Duration":55609,"SoundDuration":55609,"Delta":92827059},{"NoteNumber":62,"Velocity":48,"Duration":111218,"SoundDuration":111218,"Delta":92827059},{"NoteNumber":83,"Velocity":43,"Duration":55609,"SoundDuration":55609,"Delta":92882668},{"NoteNumber":81,"Velocity":54,"Duration":55609,"SoundDuration":55609,"Delta":92938278},{"NoteNumber":72,"Velocity":42,"Duration":111218,"SoundDuration":111218,"Delta":92938278},{"NoteNumber":83,"Velocity":45,"Duration":55609,"SoundDuration":55609,"Delta":92993887},{"NoteNumber":81,"Velocity":54,"Duration":55609,"SoundDuration":55609,"Delta":93049496},{"NoteNumber":66,"Velocity":42,"Duration":111218,"SoundDuration":111218,"Delta":93049496},{"NoteNumber":83,"Velocity":44,"Duration":55609,"SoundDuration":55609,"Delta":93105105},{"NoteNumber":81,"Velocity":54,"Duration":55655,"SoundDuration":55655,"Delta":93160714},{"NoteNumber":72,"Velocity":42,"Duration":111606,"SoundDuration":111606,"Delta":93160714},{"NoteNumber":83,"Velocity":44,"Duration":55950,"SoundDuration":55950,"Delta":93216370},{"NoteNumber":81,"Velocity":53,"Duration":56244,"SoundDuration":56244,"Delta":93272321},{"NoteNumber":62,"Velocity":49,"Duration":112794,"SoundDuration":112794,"Delta":93272321},{"NoteNumber":83,"Velocity":45,"Duration":56549,"SoundDuration":56549,"Delta":93328566},{"NoteNumber":81,"Velocity":53,"Duration":56866,"SoundDuration":56866,"Delta":93385116},{"NoteNumber":72,"Velocity":42,"Duration":114032,"SoundDuration":114032,"Delta":93385116},{"NoteNumber":83,"Velocity":42,"Duration":57165,"SoundDuration":57165,"Delta":93441982},{"NoteNumber":81,"Velocity":53,"Duration":76710,"SoundDuration":76710,"Delta":93499148},{"NoteNumber":66,"Velocity":42,"Duration":115303,"SoundDuration":115303,"Delta":93499148},{"NoteNumber":79,"Velocity":59,"Duration":77298,"SoundDuration":77298,"Delta":93575858},{"NoteNumber":72,"Velocity":42,"Duration":116117,"SoundDuration":116117,"Delta":93614452},{"NoteNumber":81,"Velocity":58,"Duration":77411,"SoundDuration":77411,"Delta":93653157},{"NoteNumber":79,"Velocity":69,"Duration":464468,"SoundDuration":464468,"Delta":93730569},{"NoteNumber":71,"Velocity":58,"Duration":464468,"SoundDuration":464468,"Delta":93730569},{"NoteNumber":67,"Velocity":49,"Duration":464468,"SoundDuration":464468,"Delta":93730569},{"NoteNumber":79,"Velocity":67,"Duration":114740,"SoundDuration":114740,"Delta":94195037},{"NoteNumber":74,"Velocity":59,"Duration":114740,"SoundDuration":114740,"Delta":94309777},{"NoteNumber":79,"Velocity":62,"Duration":114740,"SoundDuration":114740,"Delta":94424517},{"NoteNumber":83,"Velocity":65,"Duration":119464,"SoundDuration":119464,"Delta":94539257},{"NoteNumber":86,"Velocity":68,"Duration":114285,"SoundDuration":114285,"Delta":94658722},{"NoteNumber":83,"Velocity":63,"Duration":114285,"SoundDuration":114285,"Delta":94773008},{"NoteNumber":79,"Velocity":68,"Duration":114285,"SoundDuration":114285,"Delta":94887294},{"NoteNumber":83,"Velocity":63,"Duration":116586,"SoundDuration":116586,"Delta":95001579},{"NoteNumber":84,"Velocity":69,"Duration":113834,"SoundDuration":113834,"Delta":95118166},{"NoteNumber":69,"Velocity":40,"Duration":460969,"SoundDuration":460969,"Delta":95118166},{"NoteNumber":72,"Velocity":48,"Duration":460969,"SoundDuration":460969,"Delta":95118166},{"NoteNumber":62,"Velocity":40,"Duration":460969,"SoundDuration":460969,"Delta":95118166},{"NoteNumber":81,"Velocity":63,"Duration":113834,"SoundDuration":113834,"Delta":95232000},{"NoteNumber":78,"Velocity":69,"Duration":113834,"SoundDuration":113834,"Delta":95345835},{"NoteNumber":81,"Velocity":63,"Duration":119464,"SoundDuration":119464,"Delta":95459670},{"NoteNumber":79,"Velocity":69,"Duration":464467,"SoundDuration":464467,"Delta":95579135},{"NoteNumber":67,"Velocity":49,"Duration":464467,"SoundDuration":464467,"Delta":95579135},{"NoteNumber":71,"Velocity":58,"Duration":464467,"SoundDuration":464467,"Delta":95579135},{"NoteNumber":67,"Velocity":67,"Duration":114740,"SoundDuration":114740,"Delta":96043603},{"NoteNumber":62,"Velocity":59,"Duration":114740,"SoundDuration":114740,"Delta":96158343},{"NoteNumber":67,"Velocity":62,"Duration":114740,"SoundDuration":114740,"Delta":96273083},{"NoteNumber":71,"Velocity":65,"Duration":119464,"SoundDuration":119464,"Delta":96387823},{"NoteNumber":74,"Velocity":68,"Duration":114740,"SoundDuration":114740,"Delta":96507288},{"NoteNumber":71,"Velocity":63,"Duration":114740,"SoundDuration":114740,"Delta":96622028},{"NoteNumber":67,"Velocity":68,"Duration":114740,"SoundDuration":114740,"Delta":96736769},{"NoteNumber":71,"Velocity":63,"Duration":117527,"SoundDuration":117527,"Delta":96851509},{"NoteNumber":72,"Velocity":69,"Duration":113834,"SoundDuration":113834,"Delta":96969036},{"NoteNumber":57,"Velocity":40,"Duration":463485,"SoundDuration":463485,"Delta":96969036},{"NoteNumber":60,"Velocity":48,"Duration":463485,"SoundDuration":463485,"Delta":96969036},{"NoteNumber":50,"Velocity":40,"Duration":463485,"SoundDuration":463485,"Delta":96969036},{"NoteNumber":69,"Velocity":63,"Duration":113834,"SoundDuration":113834,"Delta":97082871},{"NoteNumber":66,"Velocity":69,"Duration":113834,"SoundDuration":113834,"Delta":97196706},{"NoteNumber":69,"Velocity":63,"Duration":121981,"SoundDuration":121981,"Delta":97310540},{"NoteNumber":67,"Velocity":74,"Duration":121980,"SoundDuration":121980,"Delta":97432521},{"NoteNumber":55,"Velocity":44,"Duration":121980,"SoundDuration":121980,"Delta":97432521},{"NoteNumber":59,"Velocity":52,"Duration":121980,"SoundDuration":121980,"Delta":97432521},{"NoteNumber":74,"Velocity":65,"Duration":121981,"SoundDuration":121981,"Delta":97920445},{"NoteNumber":83,"Velocity":77,"Duration":121981,"SoundDuration":121981,"Delta":97920445},{"NoteNumber":43,"Velocity":44,"Duration":121981,"SoundDuration":121981,"Delta":97920445},{"NoteNumber":55,"Velocity":52,"Duration":121981,"SoundDuration":121981,"Delta":97920445},{"NoteNumber":71,"Velocity":62,"Duration":487923,"SoundDuration":487923,"Delta":98408369},{"NoteNumber":79,"Velocity":74,"Duration":487923,"SoundDuration":487923,"Delta":98408369},{"NoteNumber":43,"Velocity":44,"Duration":487923,"SoundDuration":487923,"Delta":98408369},{"NoteNumber":55,"Velocity":52,"Duration":487923,"SoundDuration":487923,"Delta":98408369},{"NoteNumber":67,"Velocity":69,"Duration":462605,"SoundDuration":462605,"Delta":99384217},{"NoteNumber":55,"Velocity":58,"Duration":462605,"SoundDuration":462605,"Delta":99384217},{"NoteNumber":43,"Velocity":49,"Duration":462605,"SoundDuration":462605,"Delta":99384217},{"NoteNumber":79,"Velocity":67,"Duration":114740,"SoundDuration":114740,"Delta":99846823},{"NoteNumber":74,"Velocity":59,"Duration":114740,"SoundDuration":114740,"Delta":99961564},{"NoteNumber":79,"Velocity":62,"Duration":114740,"SoundDuration":114740,"Delta":100076304},{"NoteNumber":82,"Velocity":65,"Duration":119464,"SoundDuration":119464,"Delta":100191044},{"NoteNumber":86,"Velocity":68,"Duration":112494,"SoundDuration":112494,"Delta":100310509},{"NoteNumber":82,"Velocity":63,"Duration":112494,"SoundDuration":112494,"Delta":100423003},{"NoteNumber":79,"Velocity":68,"Duration":112494,"SoundDuration":112494,"Delta":100535498},{"NoteNumber":82,"Velocity":63,"Duration":116586,"SoundDuration":116586,"Delta":100647992},{"NoteNumber":84,"Velocity":69,"Duration":113834,"SoundDuration":113834,"Delta":100764579},{"NoteNumber":69,"Velocity":40,"Duration":460969,"SoundDuration":460969,"Delta":100764579},{"NoteNumber":72,"Velocity":48,"Duration":460969,"SoundDuration":460969,"Delta":100764579},{"NoteNumber":62,"Velocity":40,"Duration":460969,"SoundDuration":460969,"Delta":100764579},{"NoteNumber":81,"Velocity":63,"Duration":113834,"SoundDuration":113834,"Delta":100878413},{"NoteNumber":78,"Velocity":69,"Duration":113834,"SoundDuration":113834,"Delta":100992248},{"NoteNumber":81,"Velocity":63,"Duration":119464,"SoundDuration":119464,"Delta":101106083},{"NoteNumber":79,"Velocity":69,"Duration":462605,"SoundDuration":462605,"Delta":101225548},{"NoteNumber":67,"Velocity":49,"Duration":462605,"SoundDuration":462605,"Delta":101225548},{"NoteNumber":70,"Velocity":58,"Duration":462605,"SoundDuration":462605,"Delta":101225548},{"NoteNumber":67,"Velocity":67,"Duration":114740,"SoundDuration":114740,"Delta":101688154},{"NoteNumber":62,"Velocity":59,"Duration":114740,"SoundDuration":114740,"Delta":101802894},{"NoteNumber":67,"Velocity":62,"Duration":114740,"SoundDuration":114740,"Delta":101917634},{"NoteNumber":70,"Velocity":65,"Duration":119464,"SoundDuration":119464,"Delta":102032374},{"NoteNumber":74,"Velocity":68,"Duration":113378,"SoundDuration":113378,"Delta":102151839},{"NoteNumber":70,"Velocity":63,"Duration":113378,"SoundDuration":113378,"Delta":102265218},{"NoteNumber":67,"Velocity":68,"Duration":113378,"SoundDuration":113378,"Delta":102378597},{"NoteNumber":70,"Velocity":63,"Duration":117527,"SoundDuration":117527,"Delta":102491975},{"NoteNumber":72,"Velocity":69,"Duration":113834,"SoundDuration":113834,"Delta":102609503},{"NoteNumber":57,"Velocity":40,"Duration":463485,"SoundDuration":463485,"Delta":102609503},{"NoteNumber":60,"Velocity":48,"Duration":463485,"SoundDuration":463485,"Delta":102609503},{"NoteNumber":50,"Velocity":40,"Duration":463485,"SoundDuration":463485,"Delta":102609503},{"NoteNumber":69,"Velocity":63,"Duration":113834,"SoundDuration":113834,"Delta":102723337},{"NoteNumber":66,"Velocity":69,"Duration":113834,"SoundDuration":113834,"Delta":102837172},{"NoteNumber":69,"Velocity":63,"Duration":121981,"SoundDuration":121981,"Delta":102951007},{"NoteNumber":67,"Velocity":74,"Duration":475660,"SoundDuration":475660,"Delta":103072988},{"NoteNumber":43,"Velocity":49,"Duration":124716,"SoundDuration":124716,"Delta":103208001},{"NoteNumber":45,"Velocity":51,"Duration":124716,"SoundDuration":124716,"Delta":103321380},{"NoteNumber":46,"Velocity":52,"Duration":125363,"SoundDuration":125363,"Delta":103434759},{"NoteNumber":48,"Velocity":54,"Duration":126773,"SoundDuration":126773,"Delta":103548648},{"NoteNumber":50,"Velocity":56,"Duration":128070,"SoundDuration":128070,"Delta":103663852},{"NoteNumber":52,"Velocity":58,"Duration":129343,"SoundDuration":129343,"Delta":103780217},{"NoteNumber":54,"Velocity":60,"Duration":132184,"SoundDuration":132184,"Delta":103897756},{"NoteNumber":55,"Velocity":61,"Duration":477203,"SoundDuration":477203,"Delta":104016501},{"NoteNumber":79,"Velocity":68,"Duration":125695,"SoundDuration":125695,"Delta":104150897},{"NoteNumber":82,"Velocity":72,"Duration":125695,"SoundDuration":125695,"Delta":104265166},{"NoteNumber":81,"Velocity":70,"Duration":125698,"SoundDuration":125698,"Delta":104379434},{"NoteNumber":79,"Velocity":68,"Duration":126272,"SoundDuration":126272,"Delta":104493704},{"NoteNumber":77,"Velocity":67,"Duration":127556,"SoundDuration":127556,"Delta":104608453},{"NoteNumber":76,"Velocity":65,"Duration":128822,"SoundDuration":128822,"Delta":104724351},{"NoteNumber":74,"Velocity":64,"Duration":131113,"SoundDuration":131113,"Delta":104841416},{"NoteNumber":73,"Velocity":70,"Duration":471937,"SoundDuration":471937,"Delta":104959627},{"NoteNumber":45,"Velocity":53,"Duration":125695,"SoundDuration":125695,"Delta":105088659},{"NoteNumber":47,"Velocity":55,"Duration":125695,"SoundDuration":125695,"Delta":105202927},{"NoteNumber":49,"Velocity":57,"Duration":125888,"SoundDuration":125888,"Delta":105317195},{"NoteNumber":50,"Velocity":60,"Duration":126997,"SoundDuration":126997,"Delta":105431564},{"NoteNumber":52,"Velocity":62,"Duration":127975,"SoundDuration":127975,"Delta":105546993},{"NoteNumber":54,"Velocity":64,"Duration":129010,"SoundDuration":129010,"Delta":105663306},{"NoteNumber":56,"Velocity":66,"Duration":131113,"SoundDuration":131113,"Delta":105780560},{"NoteNumber":57,"Velocity":68,"Duration":473200,"SoundDuration":473200,"Delta":105898770},{"NoteNumber":85,"Velocity":75,"Duration":126195,"SoundDuration":126195,"Delta":106027802},{"NoteNumber":88,"Velocity":79,"Duration":126195,"SoundDuration":126195,"Delta":106142525},{"NoteNumber":86,"Velocity":77,"Duration":126195,"SoundDuration":126195,"Delta":106257248},{"NoteNumber":85,"Velocity":74,"Duration":126585,"SoundDuration":126585,"Delta":106371971},{"NoteNumber":82,"Velocity":72,"Duration":127788,"SoundDuration":127788,"Delta":106486991},{"NoteNumber":81,"Velocity":70,"Duration":129106,"SoundDuration":129106,"Delta":106603117},{"NoteNumber":79,"Velocity":72,"Duration":130064,"SoundDuration":130064,"Delta":106720423},{"NoteNumber":77,"Velocity":85,"Duration":462605,"SoundDuration":462605,"Delta":106838922},{"NoteNumber":50,"Velocity":71,"Duration":462605,"SoundDuration":462605,"Delta":106838922},{"NoteNumber":38,"Velocity":71,"Duration":462605,"SoundDuration":462605,"Delta":106838922},{"NoteNumber":74,"Velocity":73,"Duration":113378,"SoundDuration":113378,"Delta":107301528},{"NoteNumber":69,"Velocity":64,"Duration":113378,"SoundDuration":113378,"Delta":107414907},{"NoteNumber":74,"Velocity":68,"Duration":113378,"SoundDuration":113378,"Delta":107528286},{"NoteNumber":77,"Velocity":71,"Duration":119464,"SoundDuration":119464,"Delta":107641665},{"NoteNumber":81,"Velocity":74,"Duration":113378,"SoundDuration":113378,"Delta":107761129},{"NoteNumber":77,"Velocity":69,"Duration":113378,"SoundDuration":113378,"Delta":107874508},{"NoteNumber":74,"Velocity":74,"Duration":113378,"SoundDuration":113378,"Delta":107987887},{"NoteNumber":77,"Velocity":69,"Duration":116586,"SoundDuration":116586,"Delta":108101266},{"NoteNumber":79,"Velocity":75,"Duration":112934,"SoundDuration":112934,"Delta":108217852},{"NoteNumber":64,"Velocity":44,"Duration":458269,"SoundDuration":458269,"Delta":108217852},{"NoteNumber":67,"Velocity":52,"Duration":458269,"SoundDuration":458269,"Delta":108217852},{"NoteNumber":57,"Velocity":44,"Duration":458269,"SoundDuration":458269,"Delta":108217852},{"NoteNumber":76,"Velocity":69,"Duration":112934,"SoundDuration":112934,"Delta":108330787},{"NoteNumber":73,"Velocity":75,"Duration":112934,"SoundDuration":112934,"Delta":108443721},{"NoteNumber":76,"Velocity":69,"Duration":119464,"SoundDuration":119464,"Delta":108556656},{"NoteNumber":74,"Velocity":75,"Duration":462605,"SoundDuration":462605,"Delta":108676121},{"NoteNumber":62,"Velocity":53,"Duration":457787,"SoundDuration":457787,"Delta":108676121},{"NoteNumber":65,"Velocity":63,"Duration":462605,"SoundDuration":462605,"Delta":108676121},{"NoteNumber":62,"Velocity":67,"Duration":114740,"SoundDuration":114740,"Delta":109138727},{"NoteNumber":57,"Velocity":59,"Duration":114740,"SoundDuration":114740,"Delta":109253467},{"NoteNumber":62,"Velocity":62,"Duration":114740,"SoundDuration":114740,"Delta":109368207},{"NoteNumber":65,"Velocity":65,"Duration":119464,"SoundDuration":119464,"Delta":109482948},{"NoteNumber":69,"Velocity":68,"Duration":113378,"SoundDuration":113378,"Delta":109602412},{"NoteNumber":65,"Velocity":63,"Duration":113378,"SoundDuration":113378,"Delta":109715791},{"NoteNumber":62,"Velocity":68,"Duration":113378,"SoundDuration":113378,"Delta":109829170},{"NoteNumber":65,"Velocity":63,"Duration":117527,"SoundDuration":117527,"Delta":109942549},{"NoteNumber":67,"Velocity":69,"Duration":112934,"SoundDuration":112934,"Delta":110060076},{"NoteNumber":52,"Velocity":40,"Duration":460785,"SoundDuration":460785,"Delta":110060076},{"NoteNumber":55,"Velocity":48,"Duration":460785,"SoundDuration":460785,"Delta":110060076},{"NoteNumber":45,"Velocity":40,"Duration":460785,"SoundDuration":460785,"Delta":110060076},{"NoteNumber":64,"Velocity":63,"Duration":112934,"SoundDuration":112934,"Delta":110173011},{"NoteNumber":61,"Velocity":69,"Duration":112934,"SoundDuration":112934,"Delta":110285945},{"NoteNumber":64,"Velocity":63,"Duration":121981,"SoundDuration":121981,"Delta":110398880},{"NoteNumber":50,"Velocity":62,"Duration":473252,"SoundDuration":473252,"Delta":110520861},{"NoteNumber":53,"Velocity":62,"Duration":473252,"SoundDuration":473252,"Delta":110520861},{"NoteNumber":62,"Velocity":54,"Duration":126195,"SoundDuration":126195,"Delta":110649893},{"NoteNumber":64,"Velocity":56,"Duration":126195,"SoundDuration":126195,"Delta":110764616},{"NoteNumber":65,"Velocity":58,"Duration":126294,"SoundDuration":126294,"Delta":110879339},{"NoteNumber":67,"Velocity":60,"Duration":126997,"SoundDuration":126997,"Delta":110994113},{"NoteNumber":69,"Velocity":61,"Duration":127975,"SoundDuration":127975,"Delta":111109542},{"NoteNumber":71,"Velocity":63,"Duration":129010,"SoundDuration":129010,"Delta":111225855},{"NoteNumber":73,"Velocity":65,"Duration":131345,"SoundDuration":131345,"Delta":111343109},{"NoteNumber":74,"Velocity":66,"Duration":475569,"SoundDuration":475569,"Delta":111461319},{"NoteNumber":62,"Velocity":53,"Duration":126214,"SoundDuration":126214,"Delta":111592668},{"NoteNumber":65,"Velocity":63,"Duration":126214,"SoundDuration":126214,"Delta":111707408},{"NoteNumber":64,"Velocity":61,"Duration":126214,"SoundDuration":126214,"Delta":111822148},{"NoteNumber":62,"Velocity":59,"Duration":126587,"SoundDuration":126587,"Delta":111936888},{"NoteNumber":60,"Velocity":56,"Duration":127788,"SoundDuration":127788,"Delta":112051911},{"NoteNumber":59,"Velocity":54,"Duration":129106,"SoundDuration":129106,"Delta":112168036},{"NoteNumber":57,"Velocity":52,"Duration":131876,"SoundDuration":131876,"Delta":112285342},{"NoteNumber":56,"Velocity":57,"Duration":480678,"SoundDuration":480678,"Delta":112403842},{"NoteNumber":71,"Velocity":58,"Duration":127216,"SoundDuration":127216,"Delta":112537615},{"NoteNumber":72,"Velocity":60,"Duration":127216,"SoundDuration":127216,"Delta":112653266},{"NoteNumber":74,"Velocity":61,"Duration":127122,"SoundDuration":127122,"Delta":112768918},{"NoteNumber":76,"Velocity":63,"Duration":126997,"SoundDuration":126997,"Delta":112884520},{"NoteNumber":78,"Velocity":64,"Duration":127975,"SoundDuration":127975,"Delta":112999949},{"NoteNumber":80,"Velocity":66,"Duration":129010,"SoundDuration":129010,"Delta":113116262},{"NoteNumber":81,"Velocity":67,"Duration":131113,"SoundDuration":131113,"Delta":113233516},{"NoteNumber":83,"Velocity":69,"Duration":473252,"SoundDuration":473252,"Delta":113351726},{"NoteNumber":56,"Velocity":52,"Duration":126214,"SoundDuration":126214,"Delta":113480758},{"NoteNumber":59,"Velocity":61,"Duration":126214,"SoundDuration":126214,"Delta":113595499},{"NoteNumber":57,"Velocity":59,"Duration":126214,"SoundDuration":126214,"Delta":113710239},{"NoteNumber":56,"Velocity":57,"Duration":126587,"SoundDuration":126587,"Delta":113824979},{"NoteNumber":53,"Velocity":55,"Duration":127788,"SoundDuration":127788,"Delta":113940001},{"NoteNumber":52,"Velocity":53,"Duration":129106,"SoundDuration":129106,"Delta":114056127},{"NoteNumber":50,"Velocity":50,"Duration":132000,"SoundDuration":132000,"Delta":114173433},{"NoteNumber":48,"Velocity":57,"Duration":481918,"SoundDuration":481918,"Delta":114291932},{"NoteNumber":81,"Velocity":70,"Duration":127216,"SoundDuration":127216,"Delta":114426946},{"NoteNumber":88,"Velocity":77,"Duration":127216,"SoundDuration":127216,"Delta":114542597},{"NoteNumber":86,"Velocity":70,"Duration":127122,"SoundDuration":127122,"Delta":114658249},{"NoteNumber":84,"Velocity":71,"Duration":126997,"SoundDuration":126997,"Delta":114773851},{"NoteNumber":83,"Velocity":72,"Duration":127975,"SoundDuration":127975,"Delta":114889280},{"NoteNumber":81,"Velocity":73,"Duration":129010,"SoundDuration":129010,"Delta":115005593},{"NoteNumber":79,"Velocity":74,"Duration":131649,"SoundDuration":131649,"Delta":115122847},{"NoteNumber":77,"Velocity":78,"Duration":478617,"SoundDuration":478617,"Delta":115241057},{"NoteNumber":62,"Velocity":58,"Duration":126214,"SoundDuration":126214,"Delta":115375454},{"NoteNumber":69,"Velocity":66,"Duration":126214,"SoundDuration":126214,"Delta":115490194},{"NoteNumber":67,"Velocity":64,"Duration":126214,"SoundDuration":126214,"Delta":115604934},{"NoteNumber":65,"Velocity":62,"Duration":126587,"SoundDuration":126587,"Delta":115719674},{"NoteNumber":64,"Velocity":61,"Duration":127788,"SoundDuration":127788,"Delta":115834697},{"NoteNumber":62,"Velocity":59,"Duration":129106,"SoundDuration":129106,"Delta":115950823},{"NoteNumber":60,"Velocity":58,"Duration":131402,"SoundDuration":131402,"Delta":116068129},{"NoteNumber":59,"Velocity":68,"Duration":475937,"SoundDuration":475937,"Delta":116186628},{"NoteNumber":79,"Velocity":64,"Duration":127216,"SoundDuration":127216,"Delta":116315660},{"NoteNumber":86,"Velocity":69,"Duration":127216,"SoundDuration":127216,"Delta":116431312},{"NoteNumber":84,"Velocity":63,"Duration":127122,"SoundDuration":127122,"Delta":116546963},{"NoteNumber":83,"Velocity":64,"Duration":126997,"SoundDuration":126997,"Delta":116662565},{"NoteNumber":81,"Velocity":66,"Duration":127975,"SoundDuration":127975,"Delta":116777994},{"NoteNumber":79,"Velocity":67,"Duration":129010,"SoundDuration":129010,"Delta":116894307},{"NoteNumber":77,"Velocity":69,"Duration":131649,"SoundDuration":131649,"Delta":117011561},{"NoteNumber":76,"Velocity":71,"Duration":478617,"SoundDuration":478617,"Delta":117129771},{"NoteNumber":60,"Velocity":50,"Duration":126214,"SoundDuration":126214,"Delta":117264168},{"NoteNumber":67,"Velocity":58,"Duration":126214,"SoundDuration":126214,"Delta":117378908},{"NoteNumber":65,"Velocity":56,"Duration":126214,"SoundDuration":126214,"Delta":117493648},{"NoteNumber":64,"Velocity":55,"Duration":126587,"SoundDuration":126587,"Delta":117608389},{"NoteNumber":62,"Velocity":53,"Duration":127788,"SoundDuration":127788,"Delta":117723411},{"NoteNumber":60,"Velocity":51,"Duration":129106,"SoundDuration":129106,"Delta":117839537},{"NoteNumber":59,"Velocity":49,"Duration":131402,"SoundDuration":131402,"Delta":117956843},{"NoteNumber":57,"Velocity":57,"Duration":475937,"SoundDuration":475937,"Delta":118075342},{"NoteNumber":77,"Velocity":60,"Duration":127216,"SoundDuration":127216,"Delta":118204374},{"NoteNumber":84,"Velocity":66,"Duration":127216,"SoundDuration":127216,"Delta":118320026},{"NoteNumber":83,"Velocity":70,"Duration":127122,"SoundDuration":127122,"Delta":118435677},{"NoteNumber":81,"Velocity":69,"Duration":126997,"SoundDuration":126997,"Delta":118551280},{"NoteNumber":79,"Velocity":68,"Duration":127975,"SoundDuration":127975,"Delta":118666708},{"NoteNumber":77,"Velocity":66,"Duration":129010,"SoundDuration":129010,"Delta":118783021},{"NoteNumber":76,"Velocity":65,"Duration":131113,"SoundDuration":131113,"Delta":118900275},{"NoteNumber":74,"Velocity":69,"Duration":473252,"SoundDuration":473252,"Delta":119018485},{"NoteNumber":59,"Velocity":50,"Duration":126214,"SoundDuration":126214,"Delta":119147518},{"NoteNumber":65,"Velocity":56,"Duration":126214,"SoundDuration":126214,"Delta":119262258},{"NoteNumber":64,"Velocity":54,"Duration":126214,"SoundDuration":126214,"Delta":119376998},{"NoteNumber":62,"Velocity":53,"Duration":126587,"SoundDuration":126587,"Delta":119491738},{"NoteNumber":60,"Velocity":51,"Duration":127788,"SoundDuration":127788,"Delta":119606761},{"NoteNumber":59,"Velocity":49,"Duration":129106,"SoundDuration":129106,"Delta":119722887},{"NoteNumber":57,"Velocity":48,"Duration":132000,"SoundDuration":132000,"Delta":119840193},{"NoteNumber":56,"Velocity":54,"Duration":481918,"SoundDuration":481918,"Delta":119958692},{"NoteNumber":76,"Velocity":59,"Duration":127216,"SoundDuration":127216,"Delta":120093705},{"NoteNumber":83,"Velocity":67,"Duration":127216,"SoundDuration":127216,"Delta":120209357},{"NoteNumber":81,"Velocity":67,"Duration":127122,"SoundDuration":127122,"Delta":120325008},{"NoteNumber":80,"Velocity":66,"Duration":126997,"SoundDuration":126997,"Delta":120440611},{"NoteNumber":77,"Velocity":65,"Duration":127975,"SoundDuration":127975,"Delta":120556039},{"NoteNumber":76,"Velocity":64,"Duration":129010,"SoundDuration":129010,"Delta":120672352},{"NoteNumber":74,"Velocity":63,"Duration":131113,"SoundDuration":131113,"Delta":120789606},{"NoteNumber":72,"Velocity":66,"Duration":473252,"SoundDuration":473252,"Delta":120907817},{"NoteNumber":57,"Velocity":44,"Duration":126214,"SoundDuration":126214,"Delta":121036849},{"NoteNumber":60,"Velocity":52,"Duration":126214,"SoundDuration":126214,"Delta":121151589},{"NoteNumber":59,"Velocity":50,"Duration":126214,"SoundDuration":126214,"Delta":121266329},{"NoteNumber":57,"Velocity":48,"Duration":126587,"SoundDuration":126587,"Delta":121381070},{"NoteNumber":55,"Velocity":46,"Duration":127788,"SoundDuration":127788,"Delta":121496092},{"NoteNumber":53,"Velocity":45,"Duration":129106,"SoundDuration":129106,"Delta":121612218},{"NoteNumber":52,"Velocity":43,"Duration":131938,"SoundDuration":131938,"Delta":121729524},{"NoteNumber":50,"Velocity":51,"Duration":948507,"SoundDuration":948507,"Delta":121848023},{"NoteNumber":70,"Velocity":58,"Duration":127216,"SoundDuration":127216,"Delta":121982419},{"NoteNumber":74,"Velocity":64,"Duration":127216,"SoundDuration":127216,"Delta":122098071},{"NoteNumber":72,"Velocity":59,"Duration":127122,"SoundDuration":127122,"Delta":122213722},{"NoteNumber":70,"Velocity":64,"Duration":126997,"SoundDuration":126997,"Delta":122329325},{"NoteNumber":69,"Velocity":63,"Duration":127975,"SoundDuration":127975,"Delta":122444753},{"NoteNumber":67,"Velocity":61,"Duration":129010,"SoundDuration":129010,"Delta":122561066},{"NoteNumber":65,"Velocity":60,"Duration":118210,"SoundDuration":118210,"Delta":122678320},{"NoteNumber":64,"Velocity":59,"Duration":140506,"SoundDuration":140506,"Delta":122796531},{"NoteNumber":48,"Velocity":46,"Duration":961241,"SoundDuration":961241,"Delta":122796531},{"NoteNumber":55,"Velocity":46,"Duration":961241,"SoundDuration":961241,"Delta":122796531},{"NoteNumber":58,"Velocity":57,"Duration":961241,"SoundDuration":961241,"Delta":122796531},{"NoteNumber":65,"Velocity":57,"Duration":126214,"SoundDuration":126214,"Delta":122925563},{"NoteNumber":67,"Velocity":56,"Duration":126214,"SoundDuration":126214,"Delta":123040303},{"NoteNumber":69,"Velocity":55,"Duration":126214,"SoundDuration":126214,"Delta":123155043},{"NoteNumber":70,"Velocity":53,"Duration":126587,"SoundDuration":126587,"Delta":123269784},{"NoteNumber":72,"Velocity":52,"Duration":127788,"SoundDuration":127788,"Delta":123384806},{"NoteNumber":74,"Velocity":50,"Duration":131212,"SoundDuration":131212,"Delta":123500932},{"NoteNumber":76,"Velocity":49,"Duration":139586,"SoundDuration":139586,"Delta":123618186},{"NoteNumber":77,"Velocity":59,"Duration":878863,"SoundDuration":878863,"Delta":123757772},{"NoteNumber":65,"Velocity":40,"Duration":219716,"SoundDuration":219716,"Delta":123757772},{"NoteNumber":72,"Velocity":30,"Duration":219715,"SoundDuration":219715,"Delta":123977488},{"NoteNumber":69,"Velocity":30,"Duration":219716,"SoundDuration":219716,"Delta":124197204},{"NoteNumber":72,"Velocity":30,"Duration":219715,"SoundDuration":219715,"Delta":124416920},{"NoteNumber":81,"Velocity":58,"Duration":433182,"SoundDuration":433182,"Delta":124636636},{"NoteNumber":65,"Velocity":40,"Duration":216590,"SoundDuration":216590,"Delta":124636636},{"NoteNumber":72,"Velocity":30,"Duration":216591,"SoundDuration":216591,"Delta":124853227},{"NoteNumber":84,"Velocity":56,"Duration":444050,"SoundDuration":444050,"Delta":125069818},{"NoteNumber":69,"Velocity":30,"Duration":222025,"SoundDuration":222025,"Delta":125069818},{"NoteNumber":72,"Velocity":30,"Duration":222025,"SoundDuration":222025,"Delta":125291843},{"NoteNumber":76,"Velocity":60,"Duration":659987,"SoundDuration":659987,"Delta":125513868},{"NoteNumber":67,"Velocity":30,"Duration":222025,"SoundDuration":222025,"Delta":125513868},{"NoteNumber":72,"Velocity":29,"Duration":219590,"SoundDuration":219590,"Delta":125735893},{"NoteNumber":70,"Velocity":31,"Duration":218372,"SoundDuration":218372,"Delta":125955483},{"NoteNumber":77,"Velocity":55,"Duration":109186,"SoundDuration":109186,"Delta":126173856},{"NoteNumber":72,"Velocity":28,"Duration":218372,"SoundDuration":218372,"Delta":126173856},{"NoteNumber":79,"Velocity":51,"Duration":109186,"SoundDuration":109186,"Delta":126283042},{"NoteNumber":77,"Velocity":60,"Duration":440398,"SoundDuration":440398,"Delta":126392228},{"NoteNumber":65,"Velocity":40,"Duration":220199,"SoundDuration":220199,"Delta":126392228},{"NoteNumber":72,"Velocity":29,"Duration":220199,"SoundDuration":220199,"Delta":126612428},{"NoteNumber":69,"Velocity":32,"Duration":220199,"SoundDuration":220199,"Delta":126832627},{"NoteNumber":72,"Velocity":29,"Duration":220199,"SoundDuration":220199,"Delta":127052827},{"NoteNumber":86,"Velocity":64,"Duration":866363,"SoundDuration":866363,"Delta":127273026},{"NoteNumber":65,"Velocity":40,"Duration":216590,"SoundDuration":216590,"Delta":127273026},{"NoteNumber":74,"Velocity":32,"Duration":216591,"SoundDuration":216591,"Delta":127489617},{"NoteNumber":70,"Velocity":32,"Duration":216590,"SoundDuration":216590,"Delta":127706208},{"NoteNumber":74,"Velocity":32,"Duration":216590,"SoundDuration":216590,"Delta":127922799},{"NoteNumber":84,"Velocity":62,"Duration":429645,"SoundDuration":429645,"Delta":128139390},{"NoteNumber":65,"Velocity":40,"Duration":214822,"SoundDuration":214822,"Delta":128139390},{"NoteNumber":72,"Velocity":32,"Duration":214822,"SoundDuration":214822,"Delta":128354213},{"NoteNumber":89,"Velocity":64,"Duration":434940,"SoundDuration":434940,"Delta":128569036},{"NoteNumber":69,"Velocity":32,"Duration":217469,"SoundDuration":217469,"Delta":128569036},{"NoteNumber":72,"Velocity":32,"Duration":217470,"SoundDuration":217470,"Delta":128786506},{"NoteNumber":84,"Velocity":64,"Duration":429645,"SoundDuration":429645,"Delta":129003976},{"NoteNumber":64,"Velocity":40,"Duration":214822,"SoundDuration":214822,"Delta":129003976},{"NoteNumber":72,"Velocity":32,"Duration":214822,"SoundDuration":214822,"Delta":129218799},{"NoteNumber":82,"Velocity":55,"Duration":71607,"SoundDuration":71607,"Delta":129433622},{"NoteNumber":67,"Velocity":32,"Duration":214822,"SoundDuration":214822,"Delta":129433622},{"NoteNumber":84,"Velocity":55,"Duration":71607,"SoundDuration":71607,"Delta":129505230},{"NoteNumber":82,"Velocity":55,"Duration":71607,"SoundDuration":71607,"Delta":129576838},{"NoteNumber":81,"Velocity":59,"Duration":107411,"SoundDuration":107411,"Delta":129648445},{"NoteNumber":72,"Velocity":32,"Duration":214823,"SoundDuration":214823,"Delta":129648445},{"NoteNumber":82,"Velocity":55,"Duration":107411,"SoundDuration":107411,"Delta":129755857},{"NoteNumber":81,"Velocity":60,"Duration":429645,"SoundDuration":429645,"Delta":129863268},{"NoteNumber":65,"Velocity":40,"Duration":214822,"SoundDuration":214822,"Delta":129863268},{"NoteNumber":72,"Velocity":34,"Duration":214822,"SoundDuration":214822,"Delta":130078091},{"NoteNumber":69,"Velocity":34,"Duration":214822,"SoundDuration":214822,"Delta":130292914},{"NoteNumber":72,"Velocity":34,"Duration":222153,"SoundDuration":222153,"Delta":130507737},{"NoteNumber":74,"Velocity":60,"Duration":220596,"SoundDuration":220596,"Delta":130729891},{"NoteNumber":70,"Velocity":40,"Duration":439299,"SoundDuration":439299,"Delta":130729891},{"NoteNumber":76,"Velocity":53,"Duration":120506,"SoundDuration":120506,"Delta":130950488},{"NoteNumber":77,"Velocity":54,"Duration":119988,"SoundDuration":119988,"Delta":131060076},{"NoteNumber":79,"Velocity":55,"Duration":119476,"SoundDuration":119476,"Delta":131169190},{"NoteNumber":81,"Velocity":57,"Duration":118973,"SoundDuration":118973,"Delta":131277837},{"NoteNumber":82,"Velocity":58,"Duration":118467,"SoundDuration":118467,"Delta":131386026},{"NoteNumber":84,"Velocity":59,"Duration":117928,"SoundDuration":117928,"Delta":131493752},{"NoteNumber":86,"Velocity":62,"Duration":117331,"SoundDuration":117331,"Delta":131601026},{"NoteNumber":84,"Velocity":61,"Duration":117890,"SoundDuration":117890,"Delta":131707660},{"NoteNumber":82,"Velocity":60,"Duration":118556,"SoundDuration":118556,"Delta":131814809},{"NoteNumber":81,"Velocity":59,"Duration":119220,"SoundDuration":119220,"Delta":131922555},{"NoteNumber":79,"Velocity":58,"Duration":119886,"SoundDuration":119886,"Delta":132030901},{"NoteNumber":58,"Velocity":40,"Duration":439080,"SoundDuration":439080,"Delta":132030901},{"NoteNumber":65,"Velocity":40,"Duration":439080,"SoundDuration":439080,"Delta":132030901},{"NoteNumber":77,"Velocity":57,"Duration":120483,"SoundDuration":120483,"Delta":132139869},{"NoteNumber":76,"Velocity":55,"Duration":121245,"SoundDuration":121245,"Delta":132249382},{"NoteNumber":74,"Velocity":53,"Duration":121373,"SoundDuration":121373,"Delta":132359572},{"NoteNumber":72,"Velocity":60,"Duration":218956,"SoundDuration":218956,"Delta":132469981},{"NoteNumber":57,"Velocity":40,"Duration":436678,"SoundDuration":436678,"Delta":132469981},{"NoteNumber":65,"Velocity":40,"Duration":436678,"SoundDuration":436678,"Delta":132469981},{"NoteNumber":74,"Velocity":53,"Duration":119860,"SoundDuration":119860,"Delta":132688938},{"NoteNumber":76,"Velocity":54,"Duration":119564,"SoundDuration":119564,"Delta":132797925},{"NoteNumber":77,"Velocity":55,"Duration":119125,"SoundDuration":119125,"Delta":132906660},{"NoteNumber":79,"Velocity":57,"Duration":118762,"SoundDuration":118762,"Delta":133014955},{"NoteNumber":81,"Velocity":58,"Duration":118467,"SoundDuration":118467,"Delta":133122932},{"NoteNumber":82,"Velocity":59,"Duration":117793,"SoundDuration":117793,"Delta":133230659},{"NoteNumber":84,"Velocity":62,"Duration":117599,"SoundDuration":117599,"Delta":133337798},{"NoteNumber":82,"Velocity":61,"Duration":118372,"SoundDuration":118372,"Delta":133444656},{"NoteNumber":81,"Velocity":60,"Duration":119112,"SoundDuration":119112,"Delta":133552243},{"NoteNumber":79,"Velocity":59,"Duration":119988,"SoundDuration":119988,"Delta":133660483},{"NoteNumber":77,"Velocity":58,"Duration":120815,"SoundDuration":120815,"Delta":133769507},{"NoteNumber":57,"Velocity":40,"Duration":442319,"SoundDuration":442319,"Delta":133769507},{"NoteNumber":65,"Velocity":40,"Duration":442319,"SoundDuration":442319,"Delta":133769507},{"NoteNumber":76,"Velocity":57,"Duration":121564,"SoundDuration":121564,"Delta":133879313},{"NoteNumber":74,"Velocity":55,"Duration":122442,"SoundDuration":122442,"Delta":133989776},{"NoteNumber":72,"Velocity":53,"Duration":121674,"SoundDuration":121674,"Delta":134101071},{"NoteNumber":70,"Velocity":60,"Duration":217973,"SoundDuration":217973,"Delta":134211827},{"NoteNumber":55,"Velocity":40,"Duration":434600,"SoundDuration":434600,"Delta":134211827},{"NoteNumber":65,"Velocity":40,"Duration":434600,"SoundDuration":434600,"Delta":134211827},{"NoteNumber":72,"Velocity":53,"Duration":119300,"SoundDuration":119300,"Delta":134429800},{"NoteNumber":74,"Velocity":54,"Duration":118940,"SoundDuration":118940,"Delta":134538272},{"NoteNumber":76,"Velocity":55,"Duration":118636,"SoundDuration":118636,"Delta":134646427},{"NoteNumber":77,"Velocity":57,"Duration":118203,"SoundDuration":118203,"Delta":134754278},{"NoteNumber":79,"Velocity":58,"Duration":117846,"SoundDuration":117846,"Delta":134861741},{"NoteNumber":81,"Velocity":59,"Duration":117177,"SoundDuration":117177,"Delta":134968890},{"NoteNumber":82,"Velocity":62,"Duration":117264,"SoundDuration":117264,"Delta":135075455},{"NoteNumber":81,"Velocity":61,"Duration":117967,"SoundDuration":117967,"Delta":135182023},{"NoteNumber":79,"Velocity":60,"Duration":118770,"SoundDuration":118770,"Delta":135289242},{"NoteNumber":77,"Velocity":59,"Duration":119637,"SoundDuration":119637,"Delta":135397182},{"NoteNumber":76,"Velocity":58,"Duration":120385,"SoundDuration":120385,"Delta":135505901},{"NoteNumber":55,"Velocity":40,"Duration":441491,"SoundDuration":441491,"Delta":135505901},{"NoteNumber":64,"Velocity":40,"Duration":441491,"SoundDuration":441491,"Delta":135505901},{"NoteNumber":74,"Velocity":57,"Duration":121211,"SoundDuration":121211,"Delta":135615322},{"NoteNumber":72,"Velocity":55,"Duration":122003,"SoundDuration":122003,"Delta":135725478},{"NoteNumber":70,"Velocity":53,"Duration":122113,"SoundDuration":122113,"Delta":135836380},{"NoteNumber":69,"Velocity":60,"Duration":221620,"SoundDuration":221620,"Delta":135947392},{"NoteNumber":53,"Velocity":40,"Duration":441273,"SoundDuration":441273,"Delta":135947392},{"NoteNumber":65,"Velocity":40,"Duration":441273,"SoundDuration":441273,"Delta":135947392},{"NoteNumber":70,"Velocity":53,"Duration":121048,"SoundDuration":121048,"Delta":136169012},{"NoteNumber":72,"Velocity":54,"Duration":120487,"SoundDuration":120487,"Delta":136279097},{"NoteNumber":74,"Velocity":55,"Duration":119898,"SoundDuration":119898,"Delta":136388666},{"NoteNumber":76,"Velocity":57,"Duration":119388,"SoundDuration":119388,"Delta":136497690},{"NoteNumber":77,"Velocity":58,"Duration":118814,"SoundDuration":118814,"Delta":136606249},{"NoteNumber":79,"Velocity":59,"Duration":118266,"SoundDuration":118266,"Delta":136714278},{"NoteNumber":81,"Velocity":62,"Duration":117803,"SoundDuration":117803,"Delta":136821848},{"NoteNumber":79,"Velocity":61,"Duration":118449,"SoundDuration":118449,"Delta":136928910},{"NoteNumber":77,"Velocity":60,"Duration":119256,"SoundDuration":119256,"Delta":137036567},{"NoteNumber":76,"Velocity":59,"Duration":119988,"SoundDuration":119988,"Delta":137144950},{"NoteNumber":74,"Velocity":58,"Duration":120815,"SoundDuration":120815,"Delta":137253974},{"NoteNumber":72,"Velocity":57,"Duration":121564,"SoundDuration":121564,"Delta":137363780},{"NoteNumber":70,"Velocity":55,"Duration":123188,"SoundDuration":123188,"Delta":137474243},{"NoteNumber":69,"Velocity":53,"Duration":129293,"SoundDuration":129293,"Delta":137585464},{"NoteNumber":81,"Velocity":61,"Duration":439299,"SoundDuration":439299,"Delta":137703702},{"NoteNumber":53,"Velocity":48,"Duration":220596,"SoundDuration":220596,"Delta":137703702},{"NoteNumber":55,"Velocity":42,"Duration":120506,"SoundDuration":120506,"Delta":137924299},{"NoteNumber":57,"Velocity":42,"Duration":119988,"SoundDuration":119988,"Delta":138033887},{"NoteNumber":58,"Velocity":43,"Duration":119476,"SoundDuration":119476,"Delta":138143002},{"NoteNumber":60,"Velocity":45,"Duration":118973,"SoundDuration":118973,"Delta":138251649},{"NoteNumber":62,"Velocity":46,"Duration":118467,"SoundDuration":118467,"Delta":138359837},{"NoteNumber":64,"Velocity":47,"Duration":117928,"SoundDuration":117928,"Delta":138467564},{"NoteNumber":65,"Velocity":49,"Duration":117331,"SoundDuration":117331,"Delta":138574837},{"NoteNumber":64,"Velocity":48,"Duration":117890,"SoundDuration":117890,"Delta":138681471},{"NoteNumber":62,"Velocity":48,"Duration":118556,"SoundDuration":118556,"Delta":138788621},{"NoteNumber":60,"Velocity":47,"Duration":119220,"SoundDuration":119220,"Delta":138896366},{"NoteNumber":72,"Velocity":56,"Duration":439080,"SoundDuration":439080,"Delta":139004713},{"NoteNumber":81,"Velocity":56,"Duration":439080,"SoundDuration":439080,"Delta":139004713},{"NoteNumber":58,"Velocity":46,"Duration":119886,"SoundDuration":119886,"Delta":139004713},{"NoteNumber":57,"Velocity":45,"Duration":120483,"SoundDuration":120483,"Delta":139113681},{"NoteNumber":55,"Velocity":43,"Duration":121245,"SoundDuration":121245,"Delta":139223193},{"NoteNumber":53,"Velocity":42,"Duration":121373,"SoundDuration":121373,"Delta":139333383},{"NoteNumber":72,"Velocity":56,"Duration":436678,"SoundDuration":436678,"Delta":139443793},{"NoteNumber":79,"Velocity":56,"Duration":436678,"SoundDuration":436678,"Delta":139443793},{"NoteNumber":52,"Velocity":48,"Duration":218956,"SoundDuration":218956,"Delta":139443793},{"NoteNumber":53,"Velocity":42,"Duration":119860,"SoundDuration":119860,"Delta":139662749},{"NoteNumber":55,"Velocity":42,"Duration":119564,"SoundDuration":119564,"Delta":139771736},{"NoteNumber":57,"Velocity":43,"Duration":119125,"SoundDuration":119125,"Delta":139880471},{"NoteNumber":59,"Velocity":45,"Duration":118762,"SoundDuration":118762,"Delta":139988766},{"NoteNumber":60,"Velocity":46,"Duration":118467,"SoundDuration":118467,"Delta":140096744},{"NoteNumber":62,"Velocity":47,"Duration":117793,"SoundDuration":117793,"Delta":140204471},{"NoteNumber":64,"Velocity":49,"Duration":117599,"SoundDuration":117599,"Delta":140311609},{"NoteNumber":62,"Velocity":48,"Duration":118372,"SoundDuration":118372,"Delta":140418467},{"NoteNumber":60,"Velocity":48,"Duration":119112,"SoundDuration":119112,"Delta":140526055},{"NoteNumber":59,"Velocity":47,"Duration":119988,"SoundDuration":119988,"Delta":140634294},{"NoteNumber":72,"Velocity":56,"Duration":442319,"SoundDuration":442319,"Delta":140743319},{"NoteNumber":79,"Velocity":56,"Duration":442319,"SoundDuration":442319,"Delta":140743319},{"NoteNumber":57,"Velocity":46,"Duration":120815,"SoundDuration":120815,"Delta":140743319},{"NoteNumber":55,"Velocity":45,"Duration":121564,"SoundDuration":121564,"Delta":140853124},{"NoteNumber":53,"Velocity":43,"Duration":122442,"SoundDuration":122442,"Delta":140963588},{"NoteNumber":52,"Velocity":42,"Duration":121674,"SoundDuration":121674,"Delta":141074882},{"NoteNumber":72,"Velocity":56,"Duration":434600,"SoundDuration":434600,"Delta":141185638},{"NoteNumber":77,"Velocity":56,"Duration":434600,"SoundDuration":434600,"Delta":141185638},{"NoteNumber":50,"Velocity":48,"Duration":217973,"SoundDuration":217973,"Delta":141185638},{"NoteNumber":52,"Velocity":42,"Duration":119300,"SoundDuration":119300,"Delta":141403612},{"NoteNumber":53,"Velocity":42,"Duration":118940,"SoundDuration":118940,"Delta":141512083},{"NoteNumber":55,"Velocity":43,"Duration":118636,"SoundDuration":118636,"Delta":141620238},{"NoteNumber":57,"Velocity":45,"Duration":118203,"SoundDuration":118203,"Delta":141728090},{"NoteNumber":59,"Velocity":46,"Duration":117846,"SoundDuration":117846,"Delta":141835552},{"NoteNumber":60,"Velocity":47,"Duration":117177,"SoundDuration":117177,"Delta":141942702},{"NoteNumber":62,"Velocity":49,"Duration":117264,"SoundDuration":117264,"Delta":142049267},{"NoteNumber":60,"Velocity":48,"Duration":117967,"SoundDuration":117967,"Delta":142155834},{"NoteNumber":59,"Velocity":48,"Duration":118770,"SoundDuration":118770,"Delta":142263053},{"NoteNumber":57,"Velocity":47,"Duration":119637,"SoundDuration":119637,"Delta":142370994},{"NoteNumber":71,"Velocity":56,"Duration":441491,"SoundDuration":441491,"Delta":142479712},{"NoteNumber":77,"Velocity":56,"Duration":441491,"SoundDuration":441491,"Delta":142479712},{"NoteNumber":55,"Velocity":46,"Duration":120385,"SoundDuration":120385,"Delta":142479712},{"NoteNumber":53,"Velocity":45,"Duration":121211,"SoundDuration":121211,"Delta":142589133},{"NoteNumber":52,"Velocity":43,"Duration":122003,"SoundDuration":122003,"Delta":142699289},{"NoteNumber":50,"Velocity":42,"Duration":122113,"SoundDuration":122113,"Delta":142810191},{"NoteNumber":72,"Velocity":56,"Duration":441273,"SoundDuration":441273,"Delta":142921204},{"NoteNumber":76,"Velocity":56,"Duration":441273,"SoundDuration":441273,"Delta":142921204},{"NoteNumber":48,"Velocity":48,"Duration":221620,"SoundDuration":221620,"Delta":142921204},{"NoteNumber":50,"Velocity":42,"Duration":121048,"SoundDuration":121048,"Delta":143142824},{"NoteNumber":52,"Velocity":42,"Duration":120487,"SoundDuration":120487,"Delta":143252908},{"NoteNumber":53,"Velocity":43,"Duration":119898,"SoundDuration":119898,"Delta":143362477},{"NoteNumber":55,"Velocity":45,"Duration":119388,"SoundDuration":119388,"Delta":143471501},{"NoteNumber":57,"Velocity":46,"Duration":118814,"SoundDuration":118814,"Delta":143580061},{"NoteNumber":59,"Velocity":47,"Duration":118266,"SoundDuration":118266,"Delta":143688090},{"NoteNumber":60,"Velocity":49,"Duration":117803,"SoundDuration":117803,"Delta":143795659},{"NoteNumber":59,"Velocity":48,"Duration":118449,"SoundDuration":118449,"Delta":143902721},{"NoteNumber":57,"Velocity":48,"Duration":119256,"SoundDuration":119256,"Delta":144010378},{"NoteNumber":55,"Velocity":47,"Duration":119988,"SoundDuration":119988,"Delta":144118761},{"NoteNumber":72,"Velocity":56,"Duration":442824,"SoundDuration":442824,"Delta":144227786},{"NoteNumber":76,"Velocity":56,"Duration":442824,"SoundDuration":442824,"Delta":144227786},{"NoteNumber":53,"Velocity":46,"Duration":120815,"SoundDuration":120815,"Delta":144227786},{"NoteNumber":52,"Velocity":45,"Duration":121564,"SoundDuration":121564,"Delta":144337591},{"NoteNumber":50,"Velocity":43,"Duration":122368,"SoundDuration":122368,"Delta":144448055},{"NoteNumber":48,"Velocity":42,"Duration":122391,"SoundDuration":122391,"Delta":144559275},{"NoteNumber":74,"Velocity":60,"Duration":110554,"SoundDuration":110554,"Delta":144670611},{"NoteNumber":53,"Velocity":38,"Duration":1752609,"SoundDuration":1752609,"Delta":144670611},{"NoteNumber":57,"Velocity":38,"Duration":1752609,"SoundDuration":1752609,"Delta":144670611},{"NoteNumber":62,"Velocity":53,"Duration":121238,"SoundDuration":121238,"Delta":144781165},{"NoteNumber":64,"Velocity":53,"Duration":120861,"SoundDuration":120861,"Delta":144891394},{"NoteNumber":65,"Velocity":54,"Duration":120559,"SoundDuration":120559,"Delta":145001291},{"NoteNumber":67,"Velocity":55,"Duration":120104,"SoundDuration":120104,"Delta":145110932},{"NoteNumber":69,"Velocity":57,"Duration":119736,"SoundDuration":119736,"Delta":145220118},{"NoteNumber":71,"Velocity":58,"Duration":119370,"SoundDuration":119370,"Delta":145328981},{"NoteNumber":73,"Velocity":59,"Duration":119733,"SoundDuration":119733,"Delta":145437522},{"NoteNumber":74,"Velocity":62,"Duration":114381,"SoundDuration":114381,"Delta":145545817},{"NoteNumber":69,"Velocity":58,"Duration":121153,"SoundDuration":121153,"Delta":145660199},{"NoteNumber":71,"Velocity":61,"Duration":119125,"SoundDuration":119125,"Delta":145770523},{"NoteNumber":73,"Velocity":64,"Duration":119125,"SoundDuration":119125,"Delta":145878818},{"NoteNumber":74,"Velocity":66,"Duration":119125,"SoundDuration":119125,"Delta":145987114},{"NoteNumber":76,"Velocity":67,"Duration":119125,"SoundDuration":119125,"Delta":146095409},{"NoteNumber":77,"Velocity":68,"Duration":120075,"SoundDuration":120075,"Delta":146203705},{"NoteNumber":79,"Velocity":69,"Duration":121210,"SoundDuration":121210,"Delta":146312731},{"NoteNumber":81,"Velocity":70,"Duration":117941,"SoundDuration":117941,"Delta":146423220},{"NoteNumber":53,"Velocity":60,"Duration":643316,"SoundDuration":643316,"Delta":146423220},{"NoteNumber":83,"Velocity":69,"Duration":117941,"SoundDuration":117941,"Delta":146530440},{"NoteNumber":84,"Velocity":71,"Duration":117941,"SoundDuration":117941,"Delta":146637659},{"NoteNumber":83,"Velocity":69,"Duration":117941,"SoundDuration":117941,"Delta":146744879},{"NoteNumber":81,"Velocity":67,"Duration":117941,"SoundDuration":117941,"Delta":146852098},{"NoteNumber":79,"Velocity":65,"Duration":117941,"SoundDuration":117941,"Delta":146959318},{"NoteNumber":77,"Velocity":63,"Duration":119542,"SoundDuration":119542,"Delta":147066537},{"NoteNumber":55,"Velocity":55,"Duration":219365,"SoundDuration":219365,"Delta":147066537},{"NoteNumber":76,"Velocity":66,"Duration":110914,"SoundDuration":110914,"Delta":147174988},{"NoteNumber":77,"Velocity":65,"Duration":117079,"SoundDuration":117079,"Delta":147285902},{"NoteNumber":57,"Velocity":60,"Duration":638614,"SoundDuration":638614,"Delta":147285902},{"NoteNumber":79,"Velocity":66,"Duration":117079,"SoundDuration":117079,"Delta":147392338},{"NoteNumber":81,"Velocity":67,"Duration":117079,"SoundDuration":117079,"Delta":147498774},{"NoteNumber":79,"Velocity":67,"Duration":117079,"SoundDuration":117079,"Delta":147605210},{"NoteNumber":77,"Velocity":68,"Duration":117079,"SoundDuration":117079,"Delta":147711645},{"NoteNumber":76,"Velocity":71,"Duration":117079,"SoundDuration":117079,"Delta":147818081},{"NoteNumber":74,"Velocity":73,"Duration":120307,"SoundDuration":120307,"Delta":147924517},{"NoteNumber":54,"Velocity":54,"Duration":222805,"SoundDuration":222805,"Delta":147924517},{"NoteNumber":72,"Velocity":76,"Duration":124688,"SoundDuration":124688,"Delta":148033436},{"NoteNumber":71,"Velocity":78,"Duration":108022,"SoundDuration":108022,"Delta":148147323},{"NoteNumber":43,"Velocity":65,"Duration":108022,"SoundDuration":108022,"Delta":148147323},{"NoteNumber":47,"Velocity":56,"Duration":108022,"SoundDuration":108022,"Delta":148255345},{"NoteNumber":79,"Velocity":71,"Duration":107511,"SoundDuration":107511,"Delta":148363368},{"NoteNumber":50,"Velocity":56,"Duration":107511,"SoundDuration":107511,"Delta":148363368},{"NoteNumber":55,"Velocity":50,"Duration":107511,"SoundDuration":107511,"Delta":148470879},{"NoteNumber":76,"Velocity":71,"Duration":107511,"SoundDuration":107511,"Delta":148578391},{"NoteNumber":43,"Velocity":65,"Duration":107511,"SoundDuration":107511,"Delta":148578391},{"NoteNumber":48,"Velocity":55,"Duration":107511,"SoundDuration":107511,"Delta":148685902},{"NoteNumber":72,"Velocity":71,"Duration":108993,"SoundDuration":108993,"Delta":148793414},{"NoteNumber":52,"Velocity":55,"Duration":108993,"SoundDuration":108993,"Delta":148793414},{"NoteNumber":55,"Velocity":50,"Duration":111956,"SoundDuration":111956,"Delta":148902407},{"NoteNumber":74,"Velocity":78,"Duration":108022,"SoundDuration":108022,"Delta":149014364},{"NoteNumber":43,"Velocity":65,"Duration":108022,"SoundDuration":108022,"Delta":149014364},{"NoteNumber":47,"Velocity":55,"Duration":108022,"SoundDuration":108022,"Delta":149122387},{"NoteNumber":79,"Velocity":71,"Duration":107906,"SoundDuration":107906,"Delta":149230409},{"NoteNumber":50,"Velocity":55,"Duration":107906,"SoundDuration":107906,"Delta":149230409},{"NoteNumber":55,"Velocity":54,"Duration":107905,"SoundDuration":107905,"Delta":149338315},{"NoteNumber":76,"Velocity":71,"Duration":107906,"SoundDuration":107906,"Delta":149446221},{"NoteNumber":43,"Velocity":65,"Duration":107906,"SoundDuration":107906,"Delta":149446221},{"NoteNumber":48,"Velocity":57,"Duration":107905,"SoundDuration":107905,"Delta":149554127},{"NoteNumber":72,"Velocity":71,"Duration":109098,"SoundDuration":109098,"Delta":149662033},{"NoteNumber":52,"Velocity":56,"Duration":109098,"SoundDuration":109098,"Delta":149662033},{"NoteNumber":55,"Velocity":53,"Duration":111482,"SoundDuration":111482,"Delta":149771131},{"NoteNumber":74,"Velocity":81,"Duration":118624,"SoundDuration":118624,"Delta":149882614},{"NoteNumber":43,"Velocity":65,"Duration":118624,"SoundDuration":118624,"Delta":149882614},{"NoteNumber":74,"Velocity":71,"Duration":120958,"SoundDuration":120958,"Delta":150357110},{"NoteNumber":79,"Velocity":71,"Duration":120958,"SoundDuration":120958,"Delta":150357110},{"NoteNumber":71,"Velocity":71,"Duration":120958,"SoundDuration":120958,"Delta":150357110},{"NoteNumber":55,"Velocity":59,"Duration":120958,"SoundDuration":120958,"Delta":150357110},{"NoteNumber":67,"Velocity":83,"Duration":483832,"SoundDuration":483832,"Delta":150840942},{"NoteNumber":43,"Velocity":61,"Duration":483832,"SoundDuration":483832,"Delta":150840942},{"NoteNumber":66,"Velocity":42,"Duration":119250,"SoundDuration":119250,"Delta":151778357},{"NoteNumber":67,"Velocity":36,"Duration":108250,"SoundDuration":108250,"Delta":151886736},{"NoteNumber":66,"Velocity":42,"Duration":118332,"SoundDuration":118332,"Delta":151994987},{"NoteNumber":67,"Velocity":36,"Duration":107708,"SoundDuration":107708,"Delta":152102529},{"NoteNumber":66,"Velocity":42,"Duration":118542,"SoundDuration":118542,"Delta":152210238},{"NoteNumber":67,"Velocity":38,"Duration":107626,"SoundDuration":107626,"Delta":152318029},{"NoteNumber":66,"Velocity":42,"Duration":118617,"SoundDuration":118617,"Delta":152425655},{"NoteNumber":67,"Velocity":37,"Duration":113395,"SoundDuration":113395,"Delta":152532933},{"NoteNumber":65,"Velocity":42,"Duration":118753,"SoundDuration":118753,"Delta":152646329},{"NoteNumber":67,"Velocity":36,"Duration":107961,"SoundDuration":107961,"Delta":152754251},{"NoteNumber":65,"Velocity":42,"Duration":118332,"SoundDuration":118332,"Delta":152862213},{"NoteNumber":67,"Velocity":37,"Duration":107906,"SoundDuration":107906,"Delta":152969755},{"NoteNumber":65,"Velocity":42,"Duration":118209,"SoundDuration":118209,"Delta":153077661},{"NoteNumber":67,"Velocity":37,"Duration":108277,"SoundDuration":108277,"Delta":153185039},{"NoteNumber":65,"Velocity":42,"Duration":118940,"SoundDuration":118940,"Delta":153293317},{"NoteNumber":67,"Velocity":38,"Duration":114285,"SoundDuration":114285,"Delta":153400828},{"NoteNumber":79,"Velocity":61,"Duration":217438,"SoundDuration":217438,"Delta":153515114},{"NoteNumber":64,"Velocity":42,"Duration":108719,"SoundDuration":108719,"Delta":153515114},{"NoteNumber":67,"Velocity":36,"Duration":108719,"SoundDuration":108719,"Delta":153623833},{"NoteNumber":76,"Velocity":55,"Duration":219074,"SoundDuration":219074,"Delta":153732553},{"NoteNumber":64,"Velocity":42,"Duration":109536,"SoundDuration":109536,"Delta":153732553},{"NoteNumber":67,"Velocity":36,"Duration":109537,"SoundDuration":109537,"Delta":153842090},{"NoteNumber":72,"Velocity":61,"Duration":655586,"SoundDuration":655586,"Delta":153951627},{"NoteNumber":64,"Velocity":42,"Duration":109536,"SoundDuration":109536,"Delta":153951627},{"NoteNumber":67,"Velocity":32,"Duration":109537,"SoundDuration":109537,"Delta":154061164},{"NoteNumber":64,"Velocity":38,"Duration":109536,"SoundDuration":109536,"Delta":154170701},{"NoteNumber":67,"Velocity":33,"Duration":109536,"SoundDuration":109536,"Delta":154280238},{"NoteNumber":64,"Velocity":39,"Duration":108719,"SoundDuration":108719,"Delta":154389775},{"NoteNumber":67,"Velocity":32,"Duration":108719,"SoundDuration":108719,"Delta":154498494},{"NoteNumber":74,"Velocity":53,"Duration":109536,"SoundDuration":109536,"Delta":154607213},{"NoteNumber":64,"Velocity":39,"Duration":109536,"SoundDuration":109536,"Delta":154607213},{"NoteNumber":76,"Velocity":51,"Duration":109537,"SoundDuration":109537,"Delta":154716750},{"NoteNumber":67,"Velocity":34,"Duration":109537,"SoundDuration":109537,"Delta":154716750},{"NoteNumber":74,"Velocity":55,"Duration":219074,"SoundDuration":219074,"Delta":154826287},{"NoteNumber":64,"Velocity":42,"Duration":109536,"SoundDuration":109536,"Delta":154826287},{"NoteNumber":67,"Velocity":37,"Duration":109537,"SoundDuration":109537,"Delta":154935824},{"NoteNumber":72,"Velocity":53,"Duration":109536,"SoundDuration":109536,"Delta":155045361},{"NoteNumber":64,"Velocity":42,"Duration":109536,"SoundDuration":109536,"Delta":155045361},{"NoteNumber":67,"Velocity":38,"Duration":109536,"SoundDuration":109536,"Delta":155154898},{"NoteNumber":72,"Velocity":55,"Duration":55187,"SoundDuration":55187,"Delta":155264435},{"NoteNumber":65,"Velocity":46,"Duration":110375,"SoundDuration":110375,"Delta":155264435},{"NoteNumber":74,"Velocity":51,"Duration":55187,"SoundDuration":55187,"Delta":155319623},{"NoteNumber":72,"Velocity":56,"Duration":55187,"SoundDuration":55187,"Delta":155374810},{"NoteNumber":67,"Velocity":38,"Duration":110375,"SoundDuration":110375,"Delta":155374810},{"NoteNumber":74,"Velocity":51,"Duration":55187,"SoundDuration":55187,"Delta":155429998},{"NoteNumber":72,"Velocity":58,"Duration":110375,"SoundDuration":110375,"Delta":155485186},{"NoteNumber":64,"Velocity":42,"Duration":110375,"SoundDuration":110375,"Delta":155485186},{"NoteNumber":71,"Velocity":52,"Duration":101177,"SoundDuration":101177,"Delta":155595561},{"NoteNumber":67,"Velocity":36,"Duration":110375,"SoundDuration":110375,"Delta":155595561},{"NoteNumber":71,"Velocity":58,"Duration":436490,"SoundDuration":436490,"Delta":155705936},{"NoteNumber":62,"Velocity":39,"Duration":120035,"SoundDuration":120035,"Delta":155705936},{"NoteNumber":67,"Velocity":27,"Duration":109122,"SoundDuration":109122,"Delta":155815059},{"NoteNumber":64,"Velocity":47,"Duration":120035,"SoundDuration":120035,"Delta":155924182},{"NoteNumber":67,"Velocity":35,"Duration":109122,"SoundDuration":109122,"Delta":156033304},{"NoteNumber":65,"Velocity":50,"Duration":120035,"SoundDuration":120035,"Delta":156142427},{"NoteNumber":67,"Velocity":36,"Duration":109122,"SoundDuration":109122,"Delta":156251550},{"NoteNumber":64,"Velocity":44,"Duration":120035,"SoundDuration":120035,"Delta":156360673},{"NoteNumber":67,"Velocity":30,"Duration":109122,"SoundDuration":109122,"Delta":156469795},{"NoteNumber":65,"Velocity":52,"Duration":120949,"SoundDuration":120949,"Delta":156578918},{"NoteNumber":67,"Velocity":31,"Duration":109954,"SoundDuration":109954,"Delta":156688873},{"NoteNumber":62,"Velocity":40,"Duration":121803,"SoundDuration":121803,"Delta":156798827},{"NoteNumber":67,"Velocity":28,"Duration":118492,"SoundDuration":118492,"Delta":156908782},{"NoteNumber":79,"Velocity":61,"Duration":217438,"SoundDuration":217438,"Delta":157027274},{"NoteNumber":64,"Velocity":42,"Duration":108719,"SoundDuration":108719,"Delta":157027274},{"NoteNumber":67,"Velocity":36,"Duration":108719,"SoundDuration":108719,"Delta":157135994},{"NoteNumber":76,"Velocity":55,"Duration":219074,"SoundDuration":219074,"Delta":157244713},{"NoteNumber":64,"Velocity":42,"Duration":109536,"SoundDuration":109536,"Delta":157244713},{"NoteNumber":67,"Velocity":36,"Duration":109537,"SoundDuration":109537,"Delta":157354250},{"NoteNumber":72,"Velocity":61,"Duration":655586,"SoundDuration":655586,"Delta":157463787},{"NoteNumber":64,"Velocity":42,"Duration":109536,"SoundDuration":109536,"Delta":157463787},{"NoteNumber":67,"Velocity":32,"Duration":109537,"SoundDuration":109537,"Delta":157573324},{"NoteNumber":64,"Velocity":38,"Duration":109536,"SoundDuration":109536,"Delta":157682861},{"NoteNumber":67,"Velocity":33,"Duration":109536,"SoundDuration":109536,"Delta":157792398},{"NoteNumber":64,"Velocity":39,"Duration":108719,"SoundDuration":108719,"Delta":157901935},{"NoteNumber":67,"Velocity":32,"Duration":108719,"SoundDuration":108719,"Delta":158010654},{"NoteNumber":74,"Velocity":53,"Duration":109536,"SoundDuration":109536,"Delta":158119373},{"NoteNumber":64,"Velocity":39,"Duration":109536,"SoundDuration":109536,"Delta":158119373},{"NoteNumber":76,"Velocity":51,"Duration":109537,"SoundDuration":109537,"Delta":158228910},{"NoteNumber":67,"Velocity":34,"Duration":109537,"SoundDuration":109537,"Delta":158228910},{"NoteNumber":74,"Velocity":55,"Duration":219074,"SoundDuration":219074,"Delta":158338447},{"NoteNumber":64,"Velocity":42,"Duration":109536,"SoundDuration":109536,"Delta":158338447},{"NoteNumber":67,"Velocity":37,"Duration":109537,"SoundDuration":109537,"Delta":158447984},{"NoteNumber":72,"Velocity":53,"Duration":109536,"SoundDuration":109536,"Delta":158557521},{"NoteNumber":64,"Velocity":42,"Duration":109536,"SoundDuration":109536,"Delta":158557521},{"NoteNumber":67,"Velocity":38,"Duration":109536,"SoundDuration":109536,"Delta":158667058},{"NoteNumber":72,"Velocity":55,"Duration":55187,"SoundDuration":55187,"Delta":158776595},{"NoteNumber":65,"Velocity":42,"Duration":110375,"SoundDuration":110375,"Delta":158776595},{"NoteNumber":74,"Velocity":51,"Duration":55187,"SoundDuration":55187,"Delta":158831783},{"NoteNumber":72,"Velocity":56,"Duration":55187,"SoundDuration":55187,"Delta":158886971},{"NoteNumber":67,"Velocity":36,"Duration":110375,"SoundDuration":110375,"Delta":158886971},{"NoteNumber":74,"Velocity":50,"Duration":55187,"SoundDuration":55187,"Delta":158942158},{"NoteNumber":72,"Velocity":55,"Duration":110375,"SoundDuration":110375,"Delta":158997346},{"NoteNumber":64,"Velocity":42,"Duration":110375,"SoundDuration":110375,"Delta":158997346},{"NoteNumber":71,"Velocity":52,"Duration":82781,"SoundDuration":82781,"Delta":159107721},{"NoteNumber":67,"Velocity":36,"Duration":110375,"SoundDuration":110375,"Delta":159107721},{"NoteNumber":71,"Velocity":58,"Duration":438148,"SoundDuration":438148,"Delta":159218096},{"NoteNumber":62,"Velocity":39,"Duration":120490,"SoundDuration":120490,"Delta":159218096},{"NoteNumber":67,"Velocity":29,"Duration":109537,"SoundDuration":109537,"Delta":159327633},{"NoteNumber":64,"Velocity":42,"Duration":120490,"SoundDuration":120490,"Delta":159437170},{"NoteNumber":67,"Velocity":32,"Duration":109537,"SoundDuration":109537,"Delta":159546707},{"NoteNumber":65,"Velocity":48,"Duration":120490,"SoundDuration":120490,"Delta":159656244},{"NoteNumber":67,"Velocity":36,"Duration":109536,"SoundDuration":109536,"Delta":159765781},{"NoteNumber":64,"Velocity":43,"Duration":120490,"SoundDuration":120490,"Delta":159875318},{"NoteNumber":67,"Velocity":30,"Duration":109536,"SoundDuration":109536,"Delta":159984855},{"NoteNumber":65,"Velocity":48,"Duration":120949,"SoundDuration":120949,"Delta":160094392},{"NoteNumber":67,"Velocity":36,"Duration":109954,"SoundDuration":109954,"Delta":160204347},{"NoteNumber":62,"Velocity":43,"Duration":121660,"SoundDuration":121660,"Delta":160314301},{"NoteNumber":67,"Velocity":30,"Duration":117059,"SoundDuration":117059,"Delta":160424256},{"NoteNumber":79,"Velocity":65,"Duration":451781,"SoundDuration":451781,"Delta":160541315},{"NoteNumber":52,"Velocity":37,"Duration":112396,"SoundDuration":112396,"Delta":160659736},{"NoteNumber":55,"Velocity":39,"Duration":110996,"SoundDuration":110996,"Delta":160772132},{"NoteNumber":60,"Velocity":37,"Duration":109968,"SoundDuration":109968,"Delta":160883129},{"NoteNumber":64,"Velocity":45,"Duration":448653,"SoundDuration":448653,"Delta":160993097},{"NoteNumber":79,"Velocity":57,"Duration":110375,"SoundDuration":110375,"Delta":161110624},{"NoteNumber":76,"Velocity":62,"Duration":110375,"SoundDuration":110375,"Delta":161221000},{"NoteNumber":72,"Velocity":57,"Duration":110375,"SoundDuration":110375,"Delta":161331375},{"NoteNumber":69,"Velocity":64,"Duration":446546,"SoundDuration":446546,"Delta":161441750},{"NoteNumber":53,"Velocity":39,"Duration":111769,"SoundDuration":111769,"Delta":161556036},{"NoteNumber":57,"Velocity":41,"Duration":110770,"SoundDuration":110770,"Delta":161667806},{"NoteNumber":60,"Velocity":38,"Duration":109721,"SoundDuration":109721,"Delta":161778576},{"NoteNumber":65,"Velocity":49,"Duration":442815,"SoundDuration":442815,"Delta":161888297},{"NoteNumber":69,"Velocity":57,"Duration":109954,"SoundDuration":109954,"Delta":162001249},{"NoteNumber":72,"Velocity":62,"Duration":109954,"SoundDuration":109954,"Delta":162111203},{"NoteNumber":69,"Velocity":57,"Duration":109954,"SoundDuration":109954,"Delta":162221158},{"NoteNumber":77,"Velocity":65,"Duration":452801,"SoundDuration":452801,"Delta":162331112},{"NoteNumber":50,"Velocity":37,"Duration":112449,"SoundDuration":112449,"Delta":162449533},{"NoteNumber":53,"Velocity":39,"Duration":111140,"SoundDuration":111140,"Delta":162561982},{"NoteNumber":59,"Velocity":37,"Duration":110791,"SoundDuration":110791,"Delta":162673123},{"NoteNumber":62,"Velocity":45,"Duration":440312,"SoundDuration":440312,"Delta":162783914},{"NoteNumber":77,"Velocity":57,"Duration":110375,"SoundDuration":110375,"Delta":162893100},{"NoteNumber":74,"Velocity":62,"Duration":110375,"SoundDuration":110375,"Delta":163003476},{"NoteNumber":71,"Velocity":57,"Duration":110375,"SoundDuration":110375,"Delta":163113851},{"NoteNumber":67,"Velocity":64,"Duration":452061,"SoundDuration":452061,"Delta":163224226},{"NoteNumber":52,"Velocity":39,"Duration":110752,"SoundDuration":110752,"Delta":163338192},{"NoteNumber":55,"Velocity":41,"Duration":110284,"SoundDuration":110284,"Delta":163448944},{"NoteNumber":59,"Velocity":38,"Duration":117059,"SoundDuration":117059,"Delta":163559229},{"NoteNumber":64,"Velocity":49,"Duration":442815,"SoundDuration":442815,"Delta":163676288},{"NoteNumber":79,"Velocity":64,"Duration":109954,"SoundDuration":109954,"Delta":163789240},{"NoteNumber":83,"Velocity":67,"Duration":109954,"SoundDuration":109954,"Delta":163899194},{"NoteNumber":79,"Velocity":63,"Duration":109954,"SoundDuration":109954,"Delta":164009149},{"NoteNumber":88,"Velocity":72,"Duration":451810,"SoundDuration":451810,"Delta":164119103},{"NoteNumber":60,"Velocity":39,"Duration":111823,"SoundDuration":111823,"Delta":164238075},{"NoteNumber":64,"Velocity":42,"Duration":110941,"SoundDuration":110941,"Delta":164349898},{"NoteNumber":69,"Velocity":39,"Duration":110073,"SoundDuration":110073,"Delta":164460840},{"NoteNumber":72,"Velocity":48,"Duration":444077,"SoundDuration":444077,"Delta":164570914},{"NoteNumber":88,"Velocity":61,"Duration":110375,"SoundDuration":110375,"Delta":164683866},{"NoteNumber":84,"Velocity":66,"Duration":110375,"SoundDuration":110375,"Delta":164794241},{"NoteNumber":81,"Velocity":61,"Duration":110375,"SoundDuration":110375,"Delta":164904616},{"NoteNumber":77,"Velocity":68,"Duration":445534,"SoundDuration":445534,"Delta":165014991},{"NoteNumber":62,"Velocity":42,"Duration":111624,"SoundDuration":111624,"Delta":165129075},{"NoteNumber":65,"Velocity":44,"Duration":110468,"SoundDuration":110468,"Delta":165240700},{"NoteNumber":69,"Velocity":41,"Duration":109358,"SoundDuration":109358,"Delta":165351168},{"NoteNumber":74,"Velocity":52,"Duration":440662,"SoundDuration":440662,"Delta":165460526},{"NoteNumber":77,"Velocity":64,"Duration":109954,"SoundDuration":109954,"Delta":165571325},{"NoteNumber":81,"Velocity":66,"Duration":109954,"SoundDuration":109954,"Delta":165681280},{"NoteNumber":77,"Velocity":64,"Duration":109954,"SoundDuration":109954,"Delta":165791234},{"NoteNumber":86,"Velocity":73,"Duration":445411,"SoundDuration":445411,"Delta":165901189},{"NoteNumber":59,"Velocity":39,"Duration":110375,"SoundDuration":110375,"Delta":166015474},{"NoteNumber":62,"Velocity":42,"Duration":110375,"SoundDuration":110375,"Delta":166125850},{"NoteNumber":67,"Velocity":39,"Duration":110375,"SoundDuration":110375,"Delta":166236225},{"NoteNumber":71,"Velocity":48,"Duration":442483,"SoundDuration":442483,"Delta":166346600},{"NoteNumber":86,"Velocity":61,"Duration":108719,"SoundDuration":108719,"Delta":166459996},{"NoteNumber":83,"Velocity":66,"Duration":108719,"SoundDuration":108719,"Delta":166568715},{"NoteNumber":77,"Velocity":61,"Duration":111648,"SoundDuration":111648,"Delta":166677434},{"NoteNumber":76,"Velocity":68,"Duration":444149,"SoundDuration":444149,"Delta":166789083},{"NoteNumber":60,"Velocity":42,"Duration":109954,"SoundDuration":109954,"Delta":166903369},{"NoteNumber":64,"Velocity":44,"Duration":109954,"SoundDuration":109954,"Delta":167013323},{"NoteNumber":67,"Velocity":41,"Duration":109954,"SoundDuration":109954,"Delta":167123278},{"NoteNumber":72,"Velocity":52,"Duration":442815,"SoundDuration":442815,"Delta":167233232},{"NoteNumber":84,"Velocity":61,"Duration":109954,"SoundDuration":109954,"Delta":167346184},{"NoteNumber":79,"Velocity":66,"Duration":109954,"SoundDuration":109954,"Delta":167456139},{"NoteNumber":76,"Velocity":61,"Duration":109954,"SoundDuration":109954,"Delta":167566093},{"NoteNumber":74,"Velocity":71,"Duration":824658,"SoundDuration":824658,"Delta":167676048},{"NoteNumber":69,"Velocity":39,"Duration":109954,"SoundDuration":109954,"Delta":167895957},{"NoteNumber":65,"Velocity":39,"Duration":109954,"SoundDuration":109954,"Delta":167895957},{"NoteNumber":69,"Velocity":39,"Duration":109954,"SoundDuration":109954,"Delta":168115866},{"NoteNumber":65,"Velocity":39,"Duration":109954,"SoundDuration":109954,"Delta":168115866},{"NoteNumber":65,"Velocity":39,"Duration":109954,"SoundDuration":109954,"Delta":168335775},{"NoteNumber":69,"Velocity":39,"Duration":109954,"SoundDuration":109954,"Delta":168335775},{"NoteNumber":73,"Velocity":64,"Duration":54977,"SoundDuration":54977,"Delta":168500706},{"NoteNumber":74,"Velocity":69,"Duration":384840,"SoundDuration":384840,"Delta":168555684},{"NoteNumber":69,"Velocity":44,"Duration":109954,"SoundDuration":109954,"Delta":168555684},{"NoteNumber":65,"Velocity":44,"Duration":109954,"SoundDuration":109954,"Delta":168555684},{"NoteNumber":65,"Velocity":40,"Duration":109954,"SoundDuration":109954,"Delta":168775593},{"NoteNumber":69,"Velocity":40,"Duration":109954,"SoundDuration":109954,"Delta":168775593},{"NoteNumber":73,"Velocity":65,"Duration":54977,"SoundDuration":54977,"Delta":168940524},{"NoteNumber":74,"Velocity":72,"Duration":447578,"SoundDuration":447578,"Delta":168995502},{"NoteNumber":65,"Velocity":40,"Duration":109954,"SoundDuration":109954,"Delta":168995502},{"NoteNumber":69,"Velocity":40,"Duration":109954,"SoundDuration":109954,"Delta":168995502},{"NoteNumber":65,"Velocity":41,"Duration":113834,"SoundDuration":113834,"Delta":169215411},{"NoteNumber":69,"Velocity":41,"Duration":113834,"SoundDuration":113834,"Delta":169215411},{"NoteNumber":81,"Velocity":77,"Duration":824658,"SoundDuration":824658,"Delta":169443080},{"NoteNumber":54,"Velocity":40,"Duration":109954,"SoundDuration":109954,"Delta":169662989},{"NoteNumber":63,"Velocity":40,"Duration":109954,"SoundDuration":109954,"Delta":169662989},{"NoteNumber":60,"Velocity":40,"Duration":109954,"SoundDuration":109954,"Delta":169662989},{"NoteNumber":54,"Velocity":41,"Duration":109954,"SoundDuration":109954,"Delta":169882898},{"NoteNumber":63,"Velocity":41,"Duration":109954,"SoundDuration":109954,"Delta":169882898},{"NoteNumber":60,"Velocity":41,"Duration":109954,"SoundDuration":109954,"Delta":169882898},{"NoteNumber":54,"Velocity":41,"Duration":109954,"SoundDuration":109954,"Delta":170102807},{"NoteNumber":60,"Velocity":41,"Duration":109954,"SoundDuration":109954,"Delta":170102807},{"NoteNumber":63,"Velocity":41,"Duration":109954,"SoundDuration":109954,"Delta":170102807},{"NoteNumber":80,"Velocity":69,"Duration":54977,"SoundDuration":54977,"Delta":170267739},{"NoteNumber":81,"Velocity":78,"Duration":384840,"SoundDuration":384840,"Delta":170322716},{"NoteNumber":54,"Velocity":47,"Duration":109954,"SoundDuration":109954,"Delta":170322716},{"NoteNumber":60,"Velocity":47,"Duration":109954,"SoundDuration":109954,"Delta":170322716},{"NoteNumber":63,"Velocity":47,"Duration":109954,"SoundDuration":109954,"Delta":170322716},{"NoteNumber":54,"Velocity":43,"Duration":109954,"SoundDuration":109954,"Delta":170542625},{"NoteNumber":60,"Velocity":43,"Duration":109954,"SoundDuration":109954,"Delta":170542625},{"NoteNumber":63,"Velocity":43,"Duration":109954,"SoundDuration":109954,"Delta":170542625},{"NoteNumber":80,"Velocity":69,"Duration":54977,"SoundDuration":54977,"Delta":170707557},{"NoteNumber":81,"Velocity":79,"Duration":447578,"SoundDuration":447578,"Delta":170762534},{"NoteNumber":54,"Velocity":43,"Duration":109954,"SoundDuration":109954,"Delta":170762534},{"NoteNumber":60,"Velocity":43,"Duration":109954,"SoundDuration":109954,"Delta":170762534},{"NoteNumber":63,"Velocity":43,"Duration":109954,"SoundDuration":109954,"Delta":170762534},{"NoteNumber":54,"Velocity":44,"Duration":113834,"SoundDuration":113834,"Delta":170982443},{"NoteNumber":63,"Velocity":44,"Duration":113834,"SoundDuration":113834,"Delta":170982443},{"NoteNumber":60,"Velocity":44,"Duration":113834,"SoundDuration":113834,"Delta":170982443},{"NoteNumber":79,"Velocity":78,"Duration":227669,"SoundDuration":227669,"Delta":171210113},{"NoteNumber":55,"Velocity":54,"Duration":113834,"SoundDuration":113834,"Delta":171210113},{"NoteNumber":64,"Velocity":42,"Duration":113834,"SoundDuration":113834,"Delta":171323947},{"NoteNumber":81,"Velocity":75,"Duration":113834,"SoundDuration":113834,"Delta":171437782},{"NoteNumber":60,"Velocity":42,"Duration":113834,"SoundDuration":113834,"Delta":171437782},{"NoteNumber":83,"Velocity":76,"Duration":114740,"SoundDuration":114740,"Delta":171551617},{"NoteNumber":64,"Velocity":42,"Duration":114740,"SoundDuration":114740,"Delta":171551617},{"NoteNumber":84,"Velocity":79,"Duration":109122,"SoundDuration":109122,"Delta":171666357},{"NoteNumber":55,"Velocity":56,"Duration":109122,"SoundDuration":109122,"Delta":171666357},{"NoteNumber":86,"Velocity":80,"Duration":109122,"SoundDuration":109122,"Delta":171775480},{"NoteNumber":64,"Velocity":44,"Duration":109122,"SoundDuration":109122,"Delta":171775480},{"NoteNumber":88,"Velocity":83,"Duration":109122,"SoundDuration":109122,"Delta":171884603},{"NoteNumber":60,"Velocity":42,"Duration":109122,"SoundDuration":109122,"Delta":171884603},{"NoteNumber":86,"Velocity":82,"Duration":109122,"SoundDuration":109122,"Delta":171993725},{"NoteNumber":64,"Velocity":42,"Duration":109122,"SoundDuration":109122,"Delta":171993725},{"NoteNumber":84,"Velocity":78,"Duration":109122,"SoundDuration":109122,"Delta":172102848},{"NoteNumber":55,"Velocity":48,"Duration":109122,"SoundDuration":109122,"Delta":172102848},{"NoteNumber":83,"Velocity":77,"Duration":109122,"SoundDuration":109122,"Delta":172211971},{"NoteNumber":64,"Velocity":42,"Duration":109122,"SoundDuration":109122,"Delta":172211971},{"NoteNumber":81,"Velocity":75,"Duration":109122,"SoundDuration":109122,"Delta":172321094},{"NoteNumber":60,"Velocity":42,"Duration":109122,"SoundDuration":109122,"Delta":172321094},{"NoteNumber":79,"Velocity":74,"Duration":109122,"SoundDuration":109122,"Delta":172430216},{"NoteNumber":64,"Velocity":42,"Duration":109122,"SoundDuration":109122,"Delta":172430216},{"NoteNumber":77,"Velocity":70,"Duration":109122,"SoundDuration":109122,"Delta":172539339},{"NoteNumber":55,"Velocity":49,"Duration":109122,"SoundDuration":109122,"Delta":172539339},{"NoteNumber":76,"Velocity":68,"Duration":109122,"SoundDuration":109122,"Delta":172648462},{"NoteNumber":64,"Velocity":42,"Duration":109122,"SoundDuration":109122,"Delta":172648462},{"NoteNumber":74,"Velocity":67,"Duration":109122,"SoundDuration":109122,"Delta":172757585},{"NoteNumber":60,"Velocity":42,"Duration":109122,"SoundDuration":109122,"Delta":172757585},{"NoteNumber":72,"Velocity":65,"Duration":116619,"SoundDuration":116619,"Delta":172866707},{"NoteNumber":64,"Velocity":42,"Duration":116619,"SoundDuration":116619,"Delta":172866707},{"NoteNumber":74,"Velocity":49,"Duration":59185,"SoundDuration":59185,"Delta":172983327},{"NoteNumber":55,"Velocity":50,"Duration":117867,"SoundDuration":117867,"Delta":172983327},{"NoteNumber":76,"Velocity":38,"Duration":58681,"SoundDuration":58681,"Delta":173042513},{"NoteNumber":74,"Velocity":49,"Duration":58203,"SoundDuration":58203,"Delta":173101195},{"NoteNumber":65,"Velocity":42,"Duration":115992,"SoundDuration":115992,"Delta":173101195},{"NoteNumber":76,"Velocity":40,"Duration":57789,"SoundDuration":57789,"Delta":173159398},{"NoteNumber":74,"Velocity":50,"Duration":57313,"SoundDuration":57313,"Delta":173217188},{"NoteNumber":59,"Velocity":42,"Duration":114232,"SoundDuration":114232,"Delta":173217188},{"NoteNumber":76,"Velocity":40,"Duration":56918,"SoundDuration":56918,"Delta":173274501},{"NoteNumber":74,"Velocity":50,"Duration":56457,"SoundDuration":56457,"Delta":173331420},{"NoteNumber":65,"Velocity":42,"Duration":112520,"SoundDuration":112520,"Delta":173331420},{"NoteNumber":76,"Velocity":40,"Duration":56062,"SoundDuration":56062,"Delta":173387878},{"NoteNumber":74,"Velocity":52,"Duration":56173,"SoundDuration":56173,"Delta":173443940},{"NoteNumber":55,"Velocity":49,"Duration":112579,"SoundDuration":112579,"Delta":173443940},{"NoteNumber":76,"Velocity":40,"Duration":56406,"SoundDuration":56406,"Delta":173500114},{"NoteNumber":74,"Velocity":52,"Duration":56683,"SoundDuration":56683,"Delta":173556520},{"NoteNumber":65,"Velocity":42,"Duration":113136,"SoundDuration":113136,"Delta":173556520},{"NoteNumber":76,"Velocity":41,"Duration":56453,"SoundDuration":56453,"Delta":173613203},{"NoteNumber":74,"Velocity":53,"Duration":56223,"SoundDuration":56223,"Delta":173669657},{"NoteNumber":59,"Velocity":42,"Duration":112224,"SoundDuration":112224,"Delta":173669657},{"NoteNumber":76,"Velocity":41,"Duration":56001,"SoundDuration":56001,"Delta":173725880},{"NoteNumber":74,"Velocity":53,"Duration":55705,"SoundDuration":55705,"Delta":173781882},{"NoteNumber":65,"Velocity":42,"Duration":111315,"SoundDuration":111315,"Delta":173781882},{"NoteNumber":76,"Velocity":42,"Duration":55609,"SoundDuration":55609,"Delta":173837588},{"NoteNumber":74,"Velocity":54,"Duration":55609,"SoundDuration":55609,"Delta":173893197},{"NoteNumber":55,"Velocity":48,"Duration":111218,"SoundDuration":111218,"Delta":173893197},{"NoteNumber":76,"Velocity":43,"Duration":55609,"SoundDuration":55609,"Delta":173948806},{"NoteNumber":74,"Velocity":54,"Duration":55609,"SoundDuration":55609,"Delta":174004415},{"NoteNumber":65,"Velocity":42,"Duration":111218,"SoundDuration":111218,"Delta":174004415},{"NoteNumber":76,"Velocity":45,"Duration":55609,"SoundDuration":55609,"Delta":174060024},{"NoteNumber":74,"Velocity":54,"Duration":55609,"SoundDuration":55609,"Delta":174115633},{"NoteNumber":59,"Velocity":42,"Duration":111218,"SoundDuration":111218,"Delta":174115633},{"NoteNumber":76,"Velocity":44,"Duration":55609,"SoundDuration":55609,"Delta":174171242},{"NoteNumber":74,"Velocity":54,"Duration":55655,"SoundDuration":55655,"Delta":174226852},{"NoteNumber":65,"Velocity":42,"Duration":111606,"SoundDuration":111606,"Delta":174226852},{"NoteNumber":76,"Velocity":44,"Duration":55950,"SoundDuration":55950,"Delta":174282507},{"NoteNumber":74,"Velocity":53,"Duration":56244,"SoundDuration":56244,"Delta":174338458},{"NoteNumber":55,"Velocity":49,"Duration":112794,"SoundDuration":112794,"Delta":174338458},{"NoteNumber":76,"Velocity":45,"Duration":56549,"SoundDuration":56549,"Delta":174394703},{"NoteNumber":74,"Velocity":53,"Duration":56866,"SoundDuration":56866,"Delta":174451253},{"NoteNumber":65,"Velocity":42,"Duration":114032,"SoundDuration":114032,"Delta":174451253},{"NoteNumber":76,"Velocity":42,"Duration":57165,"SoundDuration":57165,"Delta":174508120},{"NoteNumber":74,"Velocity":53,"Duration":76710,"SoundDuration":76710,"Delta":174565285},{"NoteNumber":59,"Velocity":42,"Duration":115303,"SoundDuration":115303,"Delta":174565285},{"NoteNumber":72,"Velocity":59,"Duration":77298,"SoundDuration":77298,"Delta":174641996},{"NoteNumber":65,"Velocity":42,"Duration":116117,"SoundDuration":116117,"Delta":174680589},{"NoteNumber":74,"Velocity":58,"Duration":77411,"SoundDuration":77411,"Delta":174719295},{"NoteNumber":72,"Velocity":69,"Duration":464468,"SoundDuration":464468,"Delta":174796706},{"NoteNumber":64,"Velocity":58,"Duration":464468,"SoundDuration":464468,"Delta":174796706},{"NoteNumber":60,"Velocity":49,"Duration":464468,"SoundDuration":464468,"Delta":174796706},{"NoteNumber":72,"Velocity":67,"Duration":114740,"SoundDuration":114740,"Delta":175261174},{"NoteNumber":67,"Velocity":59,"Duration":114740,"SoundDuration":114740,"Delta":175375914},{"NoteNumber":72,"Velocity":62,"Duration":114740,"SoundDuration":114740,"Delta":175490655},{"NoteNumber":76,"Velocity":65,"Duration":119464,"SoundDuration":119464,"Delta":175605395},{"NoteNumber":79,"Velocity":68,"Duration":114285,"SoundDuration":114285,"Delta":175724860},{"NoteNumber":76,"Velocity":63,"Duration":114285,"SoundDuration":114285,"Delta":175839145},{"NoteNumber":72,"Velocity":68,"Duration":114285,"SoundDuration":114285,"Delta":175953431},{"NoteNumber":76,"Velocity":63,"Duration":116586,"SoundDuration":116586,"Delta":176067717},{"NoteNumber":77,"Velocity":69,"Duration":113834,"SoundDuration":113834,"Delta":176184303},{"NoteNumber":55,"Velocity":40,"Duration":460969,"SoundDuration":460969,"Delta":176184303},{"NoteNumber":65,"Velocity":48,"Duration":460969,"SoundDuration":460969,"Delta":176184303},{"NoteNumber":62,"Velocity":40,"Duration":460969,"SoundDuration":460969,"Delta":176184303},{"NoteNumber":74,"Velocity":63,"Duration":113834,"SoundDuration":113834,"Delta":176298138},{"NoteNumber":71,"Velocity":69,"Duration":113834,"SoundDuration":113834,"Delta":176411973},{"NoteNumber":74,"Velocity":63,"Duration":119464,"SoundDuration":119464,"Delta":176525807},{"NoteNumber":72,"Velocity":69,"Duration":464468,"SoundDuration":464468,"Delta":176645272},{"NoteNumber":64,"Velocity":58,"Duration":464468,"SoundDuration":464468,"Delta":176645272},{"NoteNumber":60,"Velocity":49,"Duration":464468,"SoundDuration":464468,"Delta":176645272},{"NoteNumber":60,"Velocity":67,"Duration":114740,"SoundDuration":114740,"Delta":177109740},{"NoteNumber":55,"Velocity":59,"Duration":114740,"SoundDuration":114740,"Delta":177224480},{"NoteNumber":60,"Velocity":62,"Duration":114740,"SoundDuration":114740,"Delta":177339221},{"NoteNumber":64,"Velocity":65,"Duration":119464,"SoundDuration":119464,"Delta":177453961},{"NoteNumber":67,"Velocity":68,"Duration":114740,"SoundDuration":114740,"Delta":177573426},{"NoteNumber":64,"Velocity":63,"Duration":114740,"SoundDuration":114740,"Delta":177688166},{"NoteNumber":60,"Velocity":68,"Duration":114740,"SoundDuration":114740,"Delta":177802906},{"NoteNumber":64,"Velocity":63,"Duration":117527,"SoundDuration":117527,"Delta":177917646},{"NoteNumber":65,"Velocity":69,"Duration":113834,"SoundDuration":113834,"Delta":178035174},{"NoteNumber":43,"Velocity":40,"Duration":463485,"SoundDuration":463485,"Delta":178035174},{"NoteNumber":50,"Velocity":40,"Duration":463485,"SoundDuration":463485,"Delta":178035174},{"NoteNumber":53,"Velocity":48,"Duration":463485,"SoundDuration":463485,"Delta":178035174},{"NoteNumber":62,"Velocity":63,"Duration":113834,"SoundDuration":113834,"Delta":178149008},{"NoteNumber":59,"Velocity":69,"Duration":113834,"SoundDuration":113834,"Delta":178262843},{"NoteNumber":62,"Velocity":63,"Duration":121981,"SoundDuration":121981,"Delta":178376678},{"NoteNumber":60,"Velocity":74,"Duration":121981,"SoundDuration":121981,"Delta":178498659},{"NoteNumber":52,"Velocity":52,"Duration":121981,"SoundDuration":121981,"Delta":178498659},{"NoteNumber":48,"Velocity":44,"Duration":121981,"SoundDuration":121981,"Delta":178498659},{"NoteNumber":79,"Velocity":72,"Duration":121981,"SoundDuration":121981,"Delta":178986583},{"NoteNumber":84,"Velocity":85,"Duration":121981,"SoundDuration":121981,"Delta":178986583},{"NoteNumber":76,"Velocity":65,"Duration":121981,"SoundDuration":121981,"Delta":178986583},{"NoteNumber":60,"Velocity":59,"Duration":121981,"SoundDuration":121981,"Delta":178986583},{"NoteNumber":72,"Velocity":83,"Duration":487924,"SoundDuration":487924,"Delta":179474507},{"NoteNumber":48,"Velocity":55,"Duration":487924,"SoundDuration":487924,"Delta":179474507},{"NoteNumber":36,"Velocity":44,"Duration":487924,"SoundDuration":487924,"Delta":179474507},{"NoteNumber":67,"Velocity":69,"Duration":462605,"SoundDuration":462605,"Delta":180450355},{"NoteNumber":55,"Velocity":58,"Duration":462605,"SoundDuration":462605,"Delta":180450355},{"NoteNumber":43,"Velocity":49,"Duration":462605,"SoundDuration":462605,"Delta":180450355},{"NoteNumber":79,"Velocity":67,"Duration":114740,"SoundDuration":114740,"Delta":180912961},{"NoteNumber":74,"Velocity":59,"Duration":114740,"SoundDuration":114740,"Delta":181027701},{"NoteNumber":79,"Velocity":62,"Duration":114740,"SoundDuration":114740,"Delta":181142441},{"NoteNumber":82,"Velocity":65,"Duration":119464,"SoundDuration":119464,"Delta":181257182},{"NoteNumber":86,"Velocity":68,"Duration":112494,"SoundDuration":112494,"Delta":181376646},{"NoteNumber":82,"Velocity":63,"Duration":112494,"SoundDuration":112494,"Delta":181489141},{"NoteNumber":79,"Velocity":68,"Duration":112494,"SoundDuration":112494,"Delta":181601635},{"NoteNumber":82,"Velocity":63,"Duration":116586,"SoundDuration":116586,"Delta":181714130},{"NoteNumber":84,"Velocity":69,"Duration":113834,"SoundDuration":113834,"Delta":181830716},{"NoteNumber":69,"Velocity":40,"Duration":460969,"SoundDuration":460969,"Delta":181830716},{"NoteNumber":72,"Velocity":48,"Duration":460969,"SoundDuration":460969,"Delta":181830716},{"NoteNumber":62,"Velocity":40,"Duration":460969,"SoundDuration":460969,"Delta":181830716},{"NoteNumber":81,"Velocity":63,"Duration":113834,"SoundDuration":113834,"Delta":181944551},{"NoteNumber":78,"Velocity":69,"Duration":113834,"SoundDuration":113834,"Delta":182058386},{"NoteNumber":81,"Velocity":63,"Duration":119464,"SoundDuration":119464,"Delta":182172220},{"NoteNumber":79,"Velocity":69,"Duration":462605,"SoundDuration":462605,"Delta":182291685},{"NoteNumber":67,"Velocity":49,"Duration":462605,"SoundDuration":462605,"Delta":182291685},{"NoteNumber":70,"Velocity":58,"Duration":462605,"SoundDuration":462605,"Delta":182291685},{"NoteNumber":67,"Velocity":67,"Duration":114740,"SoundDuration":114740,"Delta":182754291},{"NoteNumber":62,"Velocity":59,"Duration":114740,"SoundDuration":114740,"Delta":182869031},{"NoteNumber":67,"Velocity":62,"Duration":114740,"SoundDuration":114740,"Delta":182983772},{"NoteNumber":70,"Velocity":65,"Duration":119464,"SoundDuration":119464,"Delta":183098512},{"NoteNumber":74,"Velocity":68,"Duration":113378,"SoundDuration":113378,"Delta":183217977},{"NoteNumber":70,"Velocity":63,"Duration":113378,"SoundDuration":113378,"Delta":183331355},{"NoteNumber":67,"Velocity":68,"Duration":113378,"SoundDuration":113378,"Delta":183444734},{"NoteNumber":70,"Velocity":63,"Duration":117527,"SoundDuration":117527,"Delta":183558113},{"NoteNumber":72,"Velocity":69,"Duration":113834,"SoundDuration":113834,"Delta":183675640},{"NoteNumber":57,"Velocity":40,"Duration":463485,"SoundDuration":463485,"Delta":183675640},{"NoteNumber":60,"Velocity":48,"Duration":463485,"SoundDuration":463485,"Delta":183675640},{"NoteNumber":50,"Velocity":40,"Duration":463485,"SoundDuration":463485,"Delta":183675640},{"NoteNumber":69,"Velocity":63,"Duration":113834,"SoundDuration":113834,"Delta":183789475},{"NoteNumber":66,"Velocity":69,"Duration":113834,"SoundDuration":113834,"Delta":183903310},{"NoteNumber":69,"Velocity":63,"Duration":121981,"SoundDuration":121981,"Delta":184017144},{"NoteNumber":67,"Velocity":74,"Duration":475660,"SoundDuration":475660,"Delta":184139125},{"NoteNumber":43,"Velocity":49,"Duration":124716,"SoundDuration":124716,"Delta":184274139},{"NoteNumber":45,"Velocity":51,"Duration":124716,"SoundDuration":124716,"Delta":184387518},{"NoteNumber":46,"Velocity":52,"Duration":125363,"SoundDuration":125363,"Delta":184500896},{"NoteNumber":48,"Velocity":54,"Duration":126773,"SoundDuration":126773,"Delta":184614785},{"NoteNumber":50,"Velocity":56,"Duration":128070,"SoundDuration":128070,"Delta":184729990},{"NoteNumber":52,"Velocity":58,"Duration":129343,"SoundDuration":129343,"Delta":184846354},{"NoteNumber":54,"Velocity":60,"Duration":132184,"SoundDuration":132184,"Delta":184963893},{"NoteNumber":55,"Velocity":61,"Duration":477203,"SoundDuration":477203,"Delta":185082638},{"NoteNumber":79,"Velocity":68,"Duration":125695,"SoundDuration":125695,"Delta":185217035},{"NoteNumber":82,"Velocity":72,"Duration":125695,"SoundDuration":125695,"Delta":185331303},{"NoteNumber":81,"Velocity":70,"Duration":125698,"SoundDuration":125698,"Delta":185445571},{"NoteNumber":79,"Velocity":68,"Duration":126272,"SoundDuration":126272,"Delta":185559842},{"NoteNumber":77,"Velocity":67,"Duration":127556,"SoundDuration":127556,"Delta":185674591},{"NoteNumber":76,"Velocity":65,"Duration":128822,"SoundDuration":128822,"Delta":185790488},{"NoteNumber":74,"Velocity":64,"Duration":131113,"SoundDuration":131113,"Delta":185907554},{"NoteNumber":73,"Velocity":70,"Duration":471937,"SoundDuration":471937,"Delta":186025764},{"NoteNumber":45,"Velocity":53,"Duration":125695,"SoundDuration":125695,"Delta":186154796},{"NoteNumber":47,"Velocity":55,"Duration":125695,"SoundDuration":125695,"Delta":186269065},{"NoteNumber":49,"Velocity":57,"Duration":125888,"SoundDuration":125888,"Delta":186383333},{"NoteNumber":50,"Velocity":60,"Duration":126997,"SoundDuration":126997,"Delta":186497702},{"NoteNumber":52,"Velocity":62,"Duration":127975,"SoundDuration":127975,"Delta":186613131},{"NoteNumber":54,"Velocity":64,"Duration":129010,"SoundDuration":129010,"Delta":186729443},{"NoteNumber":56,"Velocity":66,"Duration":131113,"SoundDuration":131113,"Delta":186846697},{"NoteNumber":57,"Velocity":68,"Duration":473200,"SoundDuration":473200,"Delta":186964908},{"NoteNumber":85,"Velocity":75,"Duration":126195,"SoundDuration":126195,"Delta":187093940},{"NoteNumber":88,"Velocity":79,"Duration":126195,"SoundDuration":126195,"Delta":187208663},{"NoteNumber":86,"Velocity":77,"Duration":126195,"SoundDuration":126195,"Delta":187323385},{"NoteNumber":85,"Velocity":74,"Duration":126585,"SoundDuration":126585,"Delta":187438108},{"NoteNumber":82,"Velocity":72,"Duration":127788,"SoundDuration":127788,"Delta":187553129},{"NoteNumber":81,"Velocity":70,"Duration":129106,"SoundDuration":129106,"Delta":187669255},{"NoteNumber":79,"Velocity":72,"Duration":130064,"SoundDuration":130064,"Delta":187786561},{"NoteNumber":77,"Velocity":85,"Duration":462605,"SoundDuration":462605,"Delta":187905060},{"NoteNumber":50,"Velocity":71,"Duration":462605,"SoundDuration":462605,"Delta":187905060},{"NoteNumber":38,"Velocity":71,"Duration":462605,"SoundDuration":462605,"Delta":187905060},{"NoteNumber":74,"Velocity":73,"Duration":113378,"SoundDuration":113378,"Delta":188367666},{"NoteNumber":69,"Velocity":64,"Duration":113378,"SoundDuration":113378,"Delta":188481045},{"NoteNumber":74,"Velocity":68,"Duration":113378,"SoundDuration":113378,"Delta":188594423},{"NoteNumber":77,"Velocity":71,"Duration":119464,"SoundDuration":119464,"Delta":188707802},{"NoteNumber":81,"Velocity":74,"Duration":113378,"SoundDuration":113378,"Delta":188827267},{"NoteNumber":77,"Velocity":69,"Duration":113378,"SoundDuration":113378,"Delta":188940646},{"NoteNumber":74,"Velocity":74,"Duration":113378,"SoundDuration":113378,"Delta":189054024},{"NoteNumber":77,"Velocity":69,"Duration":116586,"SoundDuration":116586,"Delta":189167403},{"NoteNumber":79,"Velocity":75,"Duration":112934,"SoundDuration":112934,"Delta":189283989},{"NoteNumber":64,"Velocity":44,"Duration":458269,"SoundDuration":458269,"Delta":189283989},{"NoteNumber":67,"Velocity":52,"Duration":458269,"SoundDuration":458269,"Delta":189283989},{"NoteNumber":57,"Velocity":44,"Duration":458269,"SoundDuration":458269,"Delta":189283989},{"NoteNumber":76,"Velocity":69,"Duration":112934,"SoundDuration":112934,"Delta":189396924},{"NoteNumber":73,"Velocity":75,"Duration":112934,"SoundDuration":112934,"Delta":189509859},{"NoteNumber":76,"Velocity":69,"Duration":119464,"SoundDuration":119464,"Delta":189622794},{"NoteNumber":74,"Velocity":75,"Duration":462605,"SoundDuration":462605,"Delta":189742258},{"NoteNumber":62,"Velocity":53,"Duration":459714,"SoundDuration":459714,"Delta":189742258},{"NoteNumber":65,"Velocity":63,"Duration":462605,"SoundDuration":462605,"Delta":189742258},{"NoteNumber":62,"Velocity":67,"Duration":114740,"SoundDuration":114740,"Delta":190204864},{"NoteNumber":57,"Velocity":59,"Duration":114740,"SoundDuration":114740,"Delta":190319605},{"NoteNumber":62,"Velocity":62,"Duration":114740,"SoundDuration":114740,"Delta":190434345},{"NoteNumber":65,"Velocity":65,"Duration":119464,"SoundDuration":119464,"Delta":190549085},{"NoteNumber":69,"Velocity":68,"Duration":113378,"SoundDuration":113378,"Delta":190668550},{"NoteNumber":65,"Velocity":63,"Duration":113378,"SoundDuration":113378,"Delta":190781929},{"NoteNumber":62,"Velocity":68,"Duration":113378,"SoundDuration":113378,"Delta":190895307},{"NoteNumber":65,"Velocity":63,"Duration":117527,"SoundDuration":117527,"Delta":191008686},{"NoteNumber":67,"Velocity":69,"Duration":112934,"SoundDuration":112934,"Delta":191126213},{"NoteNumber":52,"Velocity":40,"Duration":460785,"SoundDuration":460785,"Delta":191126213},{"NoteNumber":55,"Velocity":48,"Duration":460785,"SoundDuration":460785,"Delta":191126213},{"NoteNumber":45,"Velocity":40,"Duration":460785,"SoundDuration":460785,"Delta":191126213},{"NoteNumber":64,"Velocity":63,"Duration":112934,"SoundDuration":112934,"Delta":191239148},{"NoteNumber":61,"Velocity":69,"Duration":112934,"SoundDuration":112934,"Delta":191352083},{"NoteNumber":64,"Velocity":63,"Duration":121981,"SoundDuration":121981,"Delta":191465018},{"NoteNumber":50,"Velocity":62,"Duration":473252,"SoundDuration":473252,"Delta":191586999},{"NoteNumber":53,"Velocity":62,"Duration":473252,"SoundDuration":473252,"Delta":191586999},{"NoteNumber":62,"Velocity":54,"Duration":126195,"SoundDuration":126195,"Delta":191716031},{"NoteNumber":64,"Velocity":56,"Duration":126195,"SoundDuration":126195,"Delta":191830754},{"NoteNumber":65,"Velocity":58,"Duration":126294,"SoundDuration":126294,"Delta":191945476},{"NoteNumber":67,"Velocity":60,"Duration":126997,"SoundDuration":126997,"Delta":192060251},{"NoteNumber":69,"Velocity":61,"Duration":127975,"SoundDuration":127975,"Delta":192175679},{"NoteNumber":71,"Velocity":63,"Duration":129010,"SoundDuration":129010,"Delta":192291992},{"NoteNumber":73,"Velocity":65,"Duration":131345,"SoundDuration":131345,"Delta":192409246},{"NoteNumber":74,"Velocity":66,"Duration":475569,"SoundDuration":475569,"Delta":192527457},{"NoteNumber":62,"Velocity":53,"Duration":126214,"SoundDuration":126214,"Delta":192658805},{"NoteNumber":65,"Velocity":63,"Duration":126214,"SoundDuration":126214,"Delta":192773545},{"NoteNumber":64,"Velocity":61,"Duration":126214,"SoundDuration":126214,"Delta":192888286},{"NoteNumber":62,"Velocity":59,"Duration":126587,"SoundDuration":126587,"Delta":193003026},{"NoteNumber":60,"Velocity":56,"Duration":127788,"SoundDuration":127788,"Delta":193118048},{"NoteNumber":59,"Velocity":54,"Duration":129106,"SoundDuration":129106,"Delta":193234174},{"NoteNumber":57,"Velocity":52,"Duration":131876,"SoundDuration":131876,"Delta":193351480},{"NoteNumber":56,"Velocity":57,"Duration":480678,"SoundDuration":480678,"Delta":193469979},{"NoteNumber":71,"Velocity":58,"Duration":127216,"SoundDuration":127216,"Delta":193603752},{"NoteNumber":72,"Velocity":60,"Duration":127216,"SoundDuration":127216,"Delta":193719404},{"NoteNumber":74,"Velocity":61,"Duration":127122,"SoundDuration":127122,"Delta":193835055},{"NoteNumber":76,"Velocity":63,"Duration":126997,"SoundDuration":126997,"Delta":193950658},{"NoteNumber":78,"Velocity":64,"Duration":127975,"SoundDuration":127975,"Delta":194066087},{"NoteNumber":80,"Velocity":66,"Duration":129010,"SoundDuration":129010,"Delta":194182399},{"NoteNumber":81,"Velocity":67,"Duration":131113,"SoundDuration":131113,"Delta":194299653},{"NoteNumber":83,"Velocity":69,"Duration":473252,"SoundDuration":473252,"Delta":194417864},{"NoteNumber":56,"Velocity":52,"Duration":126214,"SoundDuration":126214,"Delta":194546896},{"NoteNumber":59,"Velocity":61,"Duration":126214,"SoundDuration":126214,"Delta":194661636},{"NoteNumber":57,"Velocity":59,"Duration":126214,"SoundDuration":126214,"Delta":194776376},{"NoteNumber":56,"Velocity":57,"Duration":126587,"SoundDuration":126587,"Delta":194891117},{"NoteNumber":53,"Velocity":55,"Duration":127788,"SoundDuration":127788,"Delta":195006139},{"NoteNumber":52,"Velocity":53,"Duration":129106,"SoundDuration":129106,"Delta":195122265},{"NoteNumber":50,"Velocity":50,"Duration":132000,"SoundDuration":132000,"Delta":195239571},{"NoteNumber":48,"Velocity":57,"Duration":481918,"SoundDuration":481918,"Delta":195358070},{"NoteNumber":81,"Velocity":70,"Duration":127216,"SoundDuration":127216,"Delta":195493083},{"NoteNumber":88,"Velocity":77,"Duration":127216,"SoundDuration":127216,"Delta":195608735},{"NoteNumber":86,"Velocity":70,"Duration":127122,"SoundDuration":127122,"Delta":195724386},{"NoteNumber":84,"Velocity":71,"Duration":126997,"SoundDuration":126997,"Delta":195839989},{"NoteNumber":83,"Velocity":72,"Duration":127975,"SoundDuration":127975,"Delta":195955418},{"NoteNumber":81,"Velocity":73,"Duration":129010,"SoundDuration":129010,"Delta":196071730},{"NoteNumber":79,"Velocity":74,"Duration":131649,"SoundDuration":131649,"Delta":196188984},{"NoteNumber":77,"Velocity":78,"Duration":478617,"SoundDuration":478617,"Delta":196307195},{"NoteNumber":62,"Velocity":58,"Duration":126214,"SoundDuration":126214,"Delta":196441591},{"NoteNumber":69,"Velocity":66,"Duration":126214,"SoundDuration":126214,"Delta":196556331},{"NoteNumber":67,"Velocity":64,"Duration":126214,"SoundDuration":126214,"Delta":196671072},{"NoteNumber":65,"Velocity":62,"Duration":126587,"SoundDuration":126587,"Delta":196785812},{"NoteNumber":64,"Velocity":61,"Duration":127788,"SoundDuration":127788,"Delta":196900834},{"NoteNumber":62,"Velocity":59,"Duration":129106,"SoundDuration":129106,"Delta":197016960},{"NoteNumber":60,"Velocity":58,"Duration":131402,"SoundDuration":131402,"Delta":197134266},{"NoteNumber":59,"Velocity":68,"Duration":475937,"SoundDuration":475937,"Delta":197252765},{"NoteNumber":79,"Velocity":64,"Duration":127216,"SoundDuration":127216,"Delta":197381798},{"NoteNumber":86,"Velocity":69,"Duration":127216,"SoundDuration":127216,"Delta":197497449},{"NoteNumber":84,"Velocity":63,"Duration":127122,"SoundDuration":127122,"Delta":197613101},{"NoteNumber":83,"Velocity":64,"Duration":126997,"SoundDuration":126997,"Delta":197728703},{"NoteNumber":81,"Velocity":66,"Duration":127975,"SoundDuration":127975,"Delta":197844132},{"NoteNumber":79,"Velocity":67,"Duration":129010,"SoundDuration":129010,"Delta":197960445},{"NoteNumber":77,"Velocity":69,"Duration":131649,"SoundDuration":131649,"Delta":198077698},{"NoteNumber":76,"Velocity":71,"Duration":478617,"SoundDuration":478617,"Delta":198195909},{"NoteNumber":60,"Velocity":50,"Duration":126214,"SoundDuration":126214,"Delta":198330305},{"NoteNumber":67,"Velocity":58,"Duration":126214,"SoundDuration":126214,"Delta":198445046},{"NoteNumber":65,"Velocity":56,"Duration":126214,"SoundDuration":126214,"Delta":198559786},{"NoteNumber":64,"Velocity":55,"Duration":126587,"SoundDuration":126587,"Delta":198674526},{"NoteNumber":62,"Velocity":53,"Duration":127788,"SoundDuration":127788,"Delta":198789548},{"NoteNumber":60,"Velocity":51,"Duration":129106,"SoundDuration":129106,"Delta":198905674},{"NoteNumber":59,"Velocity":49,"Duration":131402,"SoundDuration":131402,"Delta":199022980},{"NoteNumber":57,"Velocity":57,"Duration":475937,"SoundDuration":475937,"Delta":199141479},{"NoteNumber":77,"Velocity":60,"Duration":127216,"SoundDuration":127216,"Delta":199270512},{"NoteNumber":84,"Velocity":66,"Duration":127216,"SoundDuration":127216,"Delta":199386163},{"NoteNumber":83,"Velocity":70,"Duration":127122,"SoundDuration":127122,"Delta":199501815},{"NoteNumber":81,"Velocity":69,"Duration":126997,"SoundDuration":126997,"Delta":199617417},{"NoteNumber":79,"Velocity":68,"Duration":127975,"SoundDuration":127975,"Delta":199732846},{"NoteNumber":77,"Velocity":66,"Duration":129010,"SoundDuration":129010,"Delta":199849159},{"NoteNumber":76,"Velocity":65,"Duration":131113,"SoundDuration":131113,"Delta":199966413},{"NoteNumber":74,"Velocity":69,"Duration":473252,"SoundDuration":473252,"Delta":200084623},{"NoteNumber":59,"Velocity":50,"Duration":126214,"SoundDuration":126214,"Delta":200213655},{"NoteNumber":65,"Velocity":56,"Duration":126214,"SoundDuration":126214,"Delta":200328395},{"NoteNumber":64,"Velocity":54,"Duration":126214,"SoundDuration":126214,"Delta":200443136},{"NoteNumber":62,"Velocity":53,"Duration":126587,"SoundDuration":126587,"Delta":200557876},{"NoteNumber":60,"Velocity":51,"Duration":127788,"SoundDuration":127788,"Delta":200672898},{"NoteNumber":59,"Velocity":49,"Duration":129106,"SoundDuration":129106,"Delta":200789024},{"NoteNumber":57,"Velocity":48,"Duration":132000,"SoundDuration":132000,"Delta":200906330},{"NoteNumber":56,"Velocity":54,"Duration":481918,"SoundDuration":481918,"Delta":201024829},{"NoteNumber":76,"Velocity":59,"Duration":127216,"SoundDuration":127216,"Delta":201159843},{"NoteNumber":83,"Velocity":67,"Duration":127216,"SoundDuration":127216,"Delta":201275494},{"NoteNumber":81,"Velocity":67,"Duration":127122,"SoundDuration":127122,"Delta":201391146},{"NoteNumber":80,"Velocity":66,"Duration":126997,"SoundDuration":126997,"Delta":201506748},{"NoteNumber":77,"Velocity":65,"Duration":127975,"SoundDuration":127975,"Delta":201622177},{"NoteNumber":76,"Velocity":64,"Duration":129010,"SoundDuration":129010,"Delta":201738490},{"NoteNumber":74,"Velocity":63,"Duration":131113,"SoundDuration":131113,"Delta":201855744},{"NoteNumber":72,"Velocity":66,"Duration":473252,"SoundDuration":473252,"Delta":201973954},{"NoteNumber":57,"Velocity":44,"Duration":126214,"SoundDuration":126214,"Delta":202102986},{"NoteNumber":60,"Velocity":52,"Duration":126214,"SoundDuration":126214,"Delta":202217726},{"NoteNumber":59,"Velocity":50,"Duration":126214,"SoundDuration":126214,"Delta":202332467},{"NoteNumber":57,"Velocity":48,"Duration":126587,"SoundDuration":126587,"Delta":202447207},{"NoteNumber":55,"Velocity":46,"Duration":127788,"SoundDuration":127788,"Delta":202562229},{"NoteNumber":53,"Velocity":45,"Duration":129106,"SoundDuration":129106,"Delta":202678355},{"NoteNumber":52,"Velocity":43,"Duration":131938,"SoundDuration":131938,"Delta":202795661},{"NoteNumber":50,"Velocity":51,"Duration":948507,"SoundDuration":948507,"Delta":202914160},{"NoteNumber":70,"Velocity":58,"Duration":127216,"SoundDuration":127216,"Delta":203048557},{"NoteNumber":74,"Velocity":64,"Duration":127216,"SoundDuration":127216,"Delta":203164208},{"NoteNumber":72,"Velocity":59,"Duration":127122,"SoundDuration":127122,"Delta":203279860},{"NoteNumber":70,"Velocity":64,"Duration":126997,"SoundDuration":126997,"Delta":203395462},{"NoteNumber":69,"Velocity":63,"Duration":127975,"SoundDuration":127975,"Delta":203510891},{"NoteNumber":67,"Velocity":61,"Duration":129010,"SoundDuration":129010,"Delta":203627204},{"NoteNumber":65,"Velocity":60,"Duration":118210,"SoundDuration":118210,"Delta":203744458},{"NoteNumber":64,"Velocity":59,"Duration":140506,"SoundDuration":140506,"Delta":203862668},{"NoteNumber":48,"Velocity":46,"Duration":961241,"SoundDuration":961241,"Delta":203862668},{"NoteNumber":55,"Velocity":46,"Duration":961241,"SoundDuration":961241,"Delta":203862668},{"NoteNumber":58,"Velocity":57,"Duration":961241,"SoundDuration":961241,"Delta":203862668},{"NoteNumber":65,"Velocity":57,"Duration":126214,"SoundDuration":126214,"Delta":203991700},{"NoteNumber":67,"Velocity":56,"Duration":126214,"SoundDuration":126214,"Delta":204106441},{"NoteNumber":69,"Velocity":55,"Duration":126214,"SoundDuration":126214,"Delta":204221181},{"NoteNumber":70,"Velocity":53,"Duration":126587,"SoundDuration":126587,"Delta":204335921},{"NoteNumber":72,"Velocity":52,"Duration":127788,"SoundDuration":127788,"Delta":204450943},{"NoteNumber":74,"Velocity":50,"Duration":131212,"SoundDuration":131212,"Delta":204567069},{"NoteNumber":76,"Velocity":49,"Duration":139586,"SoundDuration":139586,"Delta":204684323},{"NoteNumber":77,"Velocity":59,"Duration":878863,"SoundDuration":878863,"Delta":204823910},{"NoteNumber":65,"Velocity":40,"Duration":219716,"SoundDuration":219716,"Delta":204823910},{"NoteNumber":72,"Velocity":30,"Duration":219716,"SoundDuration":219716,"Delta":205043626},{"NoteNumber":69,"Velocity":30,"Duration":219715,"SoundDuration":219715,"Delta":205263342},{"NoteNumber":72,"Velocity":30,"Duration":219716,"SoundDuration":219716,"Delta":205483058},{"NoteNumber":81,"Velocity":58,"Duration":433181,"SoundDuration":433181,"Delta":205702774},{"NoteNumber":65,"Velocity":40,"Duration":216590,"SoundDuration":216590,"Delta":205702774},{"NoteNumber":72,"Velocity":30,"Duration":216590,"SoundDuration":216590,"Delta":205919365},{"NoteNumber":84,"Velocity":56,"Duration":444050,"SoundDuration":444050,"Delta":206135956},{"NoteNumber":69,"Velocity":30,"Duration":222025,"SoundDuration":222025,"Delta":206135956},{"NoteNumber":72,"Velocity":30,"Duration":222025,"SoundDuration":222025,"Delta":206357981},{"NoteNumber":76,"Velocity":60,"Duration":659987,"SoundDuration":659987,"Delta":206580006},{"NoteNumber":67,"Velocity":30,"Duration":222025,"SoundDuration":222025,"Delta":206580006},{"NoteNumber":72,"Velocity":29,"Duration":219589,"SoundDuration":219589,"Delta":206802031},{"NoteNumber":70,"Velocity":31,"Duration":218372,"SoundDuration":218372,"Delta":207021621},{"NoteNumber":77,"Velocity":55,"Duration":109186,"SoundDuration":109186,"Delta":207239993},{"NoteNumber":72,"Velocity":28,"Duration":218372,"SoundDuration":218372,"Delta":207239993},{"NoteNumber":79,"Velocity":51,"Duration":109186,"SoundDuration":109186,"Delta":207349180},{"NoteNumber":77,"Velocity":60,"Duration":440399,"SoundDuration":440399,"Delta":207458366},{"NoteNumber":65,"Velocity":40,"Duration":220199,"SoundDuration":220199,"Delta":207458366},{"NoteNumber":72,"Velocity":29,"Duration":220199,"SoundDuration":220199,"Delta":207678565},{"NoteNumber":69,"Velocity":32,"Duration":220199,"SoundDuration":220199,"Delta":207898765},{"NoteNumber":72,"Velocity":29,"Duration":220199,"SoundDuration":220199,"Delta":208118964},{"NoteNumber":86,"Velocity":64,"Duration":866364,"SoundDuration":866364,"Delta":208339164},{"NoteNumber":65,"Velocity":40,"Duration":216590,"SoundDuration":216590,"Delta":208339164},{"NoteNumber":74,"Velocity":32,"Duration":216590,"SoundDuration":216590,"Delta":208555755},{"NoteNumber":70,"Velocity":32,"Duration":216591,"SoundDuration":216591,"Delta":208772346},{"NoteNumber":74,"Velocity":32,"Duration":216590,"SoundDuration":216590,"Delta":208988937},{"NoteNumber":84,"Velocity":62,"Duration":429645,"SoundDuration":429645,"Delta":209205528},{"NoteNumber":65,"Velocity":40,"Duration":214822,"SoundDuration":214822,"Delta":209205528},{"NoteNumber":72,"Velocity":32,"Duration":214822,"SoundDuration":214822,"Delta":209420351},{"NoteNumber":89,"Velocity":64,"Duration":434940,"SoundDuration":434940,"Delta":209635174},{"NoteNumber":69,"Velocity":32,"Duration":217469,"SoundDuration":217469,"Delta":209635174},{"NoteNumber":72,"Velocity":32,"Duration":217470,"SoundDuration":217470,"Delta":209852644},{"NoteNumber":84,"Velocity":64,"Duration":429645,"SoundDuration":429645,"Delta":210070114},{"NoteNumber":64,"Velocity":40,"Duration":214822,"SoundDuration":214822,"Delta":210070114},{"NoteNumber":72,"Velocity":32,"Duration":214822,"SoundDuration":214822,"Delta":210284937},{"NoteNumber":82,"Velocity":55,"Duration":71607,"SoundDuration":71607,"Delta":210499760},{"NoteNumber":67,"Velocity":32,"Duration":214822,"SoundDuration":214822,"Delta":210499760},{"NoteNumber":84,"Velocity":55,"Duration":71607,"SoundDuration":71607,"Delta":210571368},{"NoteNumber":82,"Velocity":55,"Duration":71607,"SoundDuration":71607,"Delta":210642975},{"NoteNumber":81,"Velocity":59,"Duration":107411,"SoundDuration":107411,"Delta":210714583},{"NoteNumber":72,"Velocity":32,"Duration":214823,"SoundDuration":214823,"Delta":210714583},{"NoteNumber":82,"Velocity":55,"Duration":107411,"SoundDuration":107411,"Delta":210821994},{"NoteNumber":81,"Velocity":60,"Duration":429645,"SoundDuration":429645,"Delta":210929406},{"NoteNumber":65,"Velocity":40,"Duration":214822,"SoundDuration":214822,"Delta":210929406},{"NoteNumber":72,"Velocity":34,"Duration":214822,"SoundDuration":214822,"Delta":211144229},{"NoteNumber":69,"Velocity":34,"Duration":214822,"SoundDuration":214822,"Delta":211359052},{"NoteNumber":72,"Velocity":34,"Duration":222153,"SoundDuration":222153,"Delta":211573875},{"NoteNumber":74,"Velocity":60,"Duration":220596,"SoundDuration":220596,"Delta":211796028},{"NoteNumber":70,"Velocity":40,"Duration":439299,"SoundDuration":439299,"Delta":211796028},{"NoteNumber":76,"Velocity":53,"Duration":120506,"SoundDuration":120506,"Delta":212016625},{"NoteNumber":77,"Velocity":54,"Duration":119988,"SoundDuration":119988,"Delta":212126213},{"NoteNumber":79,"Velocity":55,"Duration":119476,"SoundDuration":119476,"Delta":212235328},{"NoteNumber":81,"Velocity":57,"Duration":118973,"SoundDuration":118973,"Delta":212343975},{"NoteNumber":82,"Velocity":58,"Duration":118467,"SoundDuration":118467,"Delta":212452163},{"NoteNumber":84,"Velocity":59,"Duration":117928,"SoundDuration":117928,"Delta":212559890},{"NoteNumber":86,"Velocity":62,"Duration":117331,"SoundDuration":117331,"Delta":212667163},{"NoteNumber":84,"Velocity":61,"Duration":117890,"SoundDuration":117890,"Delta":212773797},{"NoteNumber":82,"Velocity":60,"Duration":118556,"SoundDuration":118556,"Delta":212880947},{"NoteNumber":81,"Velocity":59,"Duration":119220,"SoundDuration":119220,"Delta":212988692},{"NoteNumber":79,"Velocity":58,"Duration":119886,"SoundDuration":119886,"Delta":213097039},{"NoteNumber":58,"Velocity":40,"Duration":439080,"SoundDuration":439080,"Delta":213097039},{"NoteNumber":65,"Velocity":40,"Duration":439080,"SoundDuration":439080,"Delta":213097039},{"NoteNumber":77,"Velocity":57,"Duration":120483,"SoundDuration":120483,"Delta":213206007},{"NoteNumber":76,"Velocity":55,"Duration":121245,"SoundDuration":121245,"Delta":213315519},{"NoteNumber":74,"Velocity":53,"Duration":121373,"SoundDuration":121373,"Delta":213425709},{"NoteNumber":72,"Velocity":60,"Duration":218956,"SoundDuration":218956,"Delta":213536119},{"NoteNumber":57,"Velocity":40,"Duration":436678,"SoundDuration":436678,"Delta":213536119},{"NoteNumber":65,"Velocity":40,"Duration":436678,"SoundDuration":436678,"Delta":213536119},{"NoteNumber":74,"Velocity":53,"Duration":119860,"SoundDuration":119860,"Delta":213755075},{"NoteNumber":76,"Velocity":54,"Duration":119564,"SoundDuration":119564,"Delta":213864062},{"NoteNumber":77,"Velocity":55,"Duration":119125,"SoundDuration":119125,"Delta":213972797},{"NoteNumber":79,"Velocity":57,"Duration":118762,"SoundDuration":118762,"Delta":214081092},{"NoteNumber":81,"Velocity":58,"Duration":118467,"SoundDuration":118467,"Delta":214189070},{"NoteNumber":82,"Velocity":59,"Duration":117793,"SoundDuration":117793,"Delta":214296797},{"NoteNumber":84,"Velocity":62,"Duration":117599,"SoundDuration":117599,"Delta":214403935},{"NoteNumber":82,"Velocity":61,"Duration":118372,"SoundDuration":118372,"Delta":214510793},{"NoteNumber":81,"Velocity":60,"Duration":119112,"SoundDuration":119112,"Delta":214618381},{"NoteNumber":79,"Velocity":59,"Duration":119988,"SoundDuration":119988,"Delta":214726620},{"NoteNumber":77,"Velocity":58,"Duration":120815,"SoundDuration":120815,"Delta":214835645},{"NoteNumber":57,"Velocity":40,"Duration":442319,"SoundDuration":442319,"Delta":214835645},{"NoteNumber":65,"Velocity":40,"Duration":442319,"SoundDuration":442319,"Delta":214835645},{"NoteNumber":76,"Velocity":57,"Duration":121564,"SoundDuration":121564,"Delta":214945450},{"NoteNumber":74,"Velocity":55,"Duration":122442,"SoundDuration":122442,"Delta":215055914},{"NoteNumber":72,"Velocity":53,"Duration":121674,"SoundDuration":121674,"Delta":215167209},{"NoteNumber":70,"Velocity":60,"Duration":217973,"SoundDuration":217973,"Delta":215277964},{"NoteNumber":55,"Velocity":40,"Duration":434600,"SoundDuration":434600,"Delta":215277964},{"NoteNumber":65,"Velocity":40,"Duration":434600,"SoundDuration":434600,"Delta":215277964},{"NoteNumber":72,"Velocity":53,"Duration":119300,"SoundDuration":119300,"Delta":215495938},{"NoteNumber":74,"Velocity":54,"Duration":118940,"SoundDuration":118940,"Delta":215604409},{"NoteNumber":76,"Velocity":55,"Duration":118636,"SoundDuration":118636,"Delta":215712564},{"NoteNumber":77,"Velocity":57,"Duration":118203,"SoundDuration":118203,"Delta":215820416},{"NoteNumber":79,"Velocity":58,"Duration":117846,"SoundDuration":117846,"Delta":215927878},{"NoteNumber":81,"Velocity":59,"Duration":117177,"SoundDuration":117177,"Delta":216035028},{"NoteNumber":82,"Velocity":62,"Duration":117264,"SoundDuration":117264,"Delta":216141593},{"NoteNumber":81,"Velocity":61,"Duration":117967,"SoundDuration":117967,"Delta":216248160},{"NoteNumber":79,"Velocity":60,"Duration":118770,"SoundDuration":118770,"Delta":216355379},{"NoteNumber":77,"Velocity":59,"Duration":119637,"SoundDuration":119637,"Delta":216463320},{"NoteNumber":76,"Velocity":58,"Duration":120385,"SoundDuration":120385,"Delta":216572038},{"NoteNumber":55,"Velocity":40,"Duration":441491,"SoundDuration":441491,"Delta":216572038},{"NoteNumber":64,"Velocity":40,"Duration":441491,"SoundDuration":441491,"Delta":216572038},{"NoteNumber":74,"Velocity":57,"Duration":121211,"SoundDuration":121211,"Delta":216681459},{"NoteNumber":72,"Velocity":55,"Duration":122003,"SoundDuration":122003,"Delta":216791615},{"NoteNumber":70,"Velocity":53,"Duration":122113,"SoundDuration":122113,"Delta":216902517},{"NoteNumber":69,"Velocity":60,"Duration":221620,"SoundDuration":221620,"Delta":217013530},{"NoteNumber":53,"Velocity":40,"Duration":441273,"SoundDuration":441273,"Delta":217013530},{"NoteNumber":65,"Velocity":40,"Duration":441273,"SoundDuration":441273,"Delta":217013530},{"NoteNumber":70,"Velocity":53,"Duration":121048,"SoundDuration":121048,"Delta":217235150},{"NoteNumber":72,"Velocity":54,"Duration":120487,"SoundDuration":120487,"Delta":217345234},{"NoteNumber":74,"Velocity":55,"Duration":119898,"SoundDuration":119898,"Delta":217454803},{"NoteNumber":76,"Velocity":57,"Duration":119388,"SoundDuration":119388,"Delta":217563828},{"NoteNumber":77,"Velocity":58,"Duration":118814,"SoundDuration":118814,"Delta":217672387},{"NoteNumber":79,"Velocity":59,"Duration":118266,"SoundDuration":118266,"Delta":217780416},{"NoteNumber":81,"Velocity":62,"Duration":117803,"SoundDuration":117803,"Delta":217887985},{"NoteNumber":79,"Velocity":61,"Duration":118449,"SoundDuration":118449,"Delta":217995047},{"NoteNumber":77,"Velocity":60,"Duration":119256,"SoundDuration":119256,"Delta":218102704},{"NoteNumber":76,"Velocity":59,"Duration":119988,"SoundDuration":119988,"Delta":218211087},{"NoteNumber":74,"Velocity":58,"Duration":120815,"SoundDuration":120815,"Delta":218320112},{"NoteNumber":72,"Velocity":57,"Duration":121564,"SoundDuration":121564,"Delta":218429917},{"NoteNumber":70,"Velocity":55,"Duration":123188,"SoundDuration":123188,"Delta":218540381},{"NoteNumber":69,"Velocity":53,"Duration":129293,"SoundDuration":129293,"Delta":218651601},{"NoteNumber":81,"Velocity":61,"Duration":439299,"SoundDuration":439299,"Delta":218769840},{"NoteNumber":53,"Velocity":48,"Duration":220596,"SoundDuration":220596,"Delta":218769840},{"NoteNumber":55,"Velocity":42,"Duration":120506,"SoundDuration":120506,"Delta":218990436},{"NoteNumber":57,"Velocity":42,"Duration":119988,"SoundDuration":119988,"Delta":219100024},{"NoteNumber":58,"Velocity":43,"Duration":119476,"SoundDuration":119476,"Delta":219209139},{"NoteNumber":60,"Velocity":45,"Duration":118973,"SoundDuration":118973,"Delta":219317786},{"NoteNumber":62,"Velocity":46,"Duration":118467,"SoundDuration":118467,"Delta":219425974},{"NoteNumber":64,"Velocity":47,"Duration":117928,"SoundDuration":117928,"Delta":219533701},{"NoteNumber":65,"Velocity":49,"Duration":117331,"SoundDuration":117331,"Delta":219640975},{"NoteNumber":64,"Velocity":48,"Duration":117890,"SoundDuration":117890,"Delta":219747609},{"NoteNumber":62,"Velocity":48,"Duration":118556,"SoundDuration":118556,"Delta":219854758},{"NoteNumber":60,"Velocity":47,"Duration":119220,"SoundDuration":119220,"Delta":219962503},{"NoteNumber":72,"Velocity":56,"Duration":439080,"SoundDuration":439080,"Delta":220070850},{"NoteNumber":81,"Velocity":56,"Duration":439080,"SoundDuration":439080,"Delta":220070850},{"NoteNumber":58,"Velocity":46,"Duration":119886,"SoundDuration":119886,"Delta":220070850},{"NoteNumber":57,"Velocity":45,"Duration":120483,"SoundDuration":120483,"Delta":220179818},{"NoteNumber":55,"Velocity":43,"Duration":121245,"SoundDuration":121245,"Delta":220289330},{"NoteNumber":53,"Velocity":42,"Duration":121373,"SoundDuration":121373,"Delta":220399521},{"NoteNumber":72,"Velocity":56,"Duration":436678,"SoundDuration":436678,"Delta":220509930},{"NoteNumber":79,"Velocity":56,"Duration":436678,"SoundDuration":436678,"Delta":220509930},{"NoteNumber":52,"Velocity":48,"Duration":218956,"SoundDuration":218956,"Delta":220509930},{"NoteNumber":53,"Velocity":42,"Duration":119860,"SoundDuration":119860,"Delta":220728886},{"NoteNumber":55,"Velocity":42,"Duration":119564,"SoundDuration":119564,"Delta":220837873},{"NoteNumber":57,"Velocity":43,"Duration":119125,"SoundDuration":119125,"Delta":220946608},{"NoteNumber":59,"Velocity":45,"Duration":118762,"SoundDuration":118762,"Delta":221054904},{"NoteNumber":60,"Velocity":46,"Duration":118467,"SoundDuration":118467,"Delta":221162881},{"NoteNumber":62,"Velocity":47,"Duration":117793,"SoundDuration":117793,"Delta":221270608},{"NoteNumber":64,"Velocity":49,"Duration":117599,"SoundDuration":117599,"Delta":221377746},{"NoteNumber":62,"Velocity":48,"Duration":118372,"SoundDuration":118372,"Delta":221484605},{"NoteNumber":60,"Velocity":48,"Duration":119112,"SoundDuration":119112,"Delta":221592192},{"NoteNumber":59,"Velocity":47,"Duration":119988,"SoundDuration":119988,"Delta":221700432},{"NoteNumber":72,"Velocity":56,"Duration":442319,"SoundDuration":442319,"Delta":221809456},{"NoteNumber":79,"Velocity":56,"Duration":442319,"SoundDuration":442319,"Delta":221809456},{"NoteNumber":57,"Velocity":46,"Duration":120815,"SoundDuration":120815,"Delta":221809456},{"NoteNumber":55,"Velocity":45,"Duration":121564,"SoundDuration":121564,"Delta":221919262},{"NoteNumber":53,"Velocity":43,"Duration":122442,"SoundDuration":122442,"Delta":222029725},{"NoteNumber":52,"Velocity":42,"Duration":121674,"SoundDuration":121674,"Delta":222141020},{"NoteNumber":72,"Velocity":56,"Duration":434600,"SoundDuration":434600,"Delta":222251775},{"NoteNumber":77,"Velocity":56,"Duration":434600,"SoundDuration":434600,"Delta":222251775},{"NoteNumber":50,"Velocity":48,"Duration":217973,"SoundDuration":217973,"Delta":222251775},{"NoteNumber":52,"Velocity":42,"Duration":119300,"SoundDuration":119300,"Delta":222469749},{"NoteNumber":53,"Velocity":42,"Duration":118940,"SoundDuration":118940,"Delta":222578221},{"NoteNumber":55,"Velocity":43,"Duration":118636,"SoundDuration":118636,"Delta":222686375},{"NoteNumber":57,"Velocity":45,"Duration":118203,"SoundDuration":118203,"Delta":222794227},{"NoteNumber":59,"Velocity":46,"Duration":117846,"SoundDuration":117846,"Delta":222901690},{"NoteNumber":60,"Velocity":47,"Duration":117177,"SoundDuration":117177,"Delta":223008839},{"NoteNumber":62,"Velocity":49,"Duration":117264,"SoundDuration":117264,"Delta":223115404},{"NoteNumber":60,"Velocity":48,"Duration":117967,"SoundDuration":117967,"Delta":223221972},{"NoteNumber":59,"Velocity":48,"Duration":118770,"SoundDuration":118770,"Delta":223329190},{"NoteNumber":57,"Velocity":47,"Duration":119637,"SoundDuration":119637,"Delta":223437131},{"NoteNumber":71,"Velocity":56,"Duration":441491,"SoundDuration":441491,"Delta":223545850},{"NoteNumber":77,"Velocity":56,"Duration":441491,"SoundDuration":441491,"Delta":223545850},{"NoteNumber":55,"Velocity":46,"Duration":120385,"SoundDuration":120385,"Delta":223545850},{"NoteNumber":53,"Velocity":45,"Duration":121211,"SoundDuration":121211,"Delta":223655271},{"NoteNumber":52,"Velocity":43,"Duration":122003,"SoundDuration":122003,"Delta":223765427},{"NoteNumber":50,"Velocity":42,"Duration":122113,"SoundDuration":122113,"Delta":223876329},{"NoteNumber":72,"Velocity":56,"Duration":441273,"SoundDuration":441273,"Delta":223987341},{"NoteNumber":76,"Velocity":56,"Duration":441273,"SoundDuration":441273,"Delta":223987341},{"NoteNumber":48,"Velocity":48,"Duration":221620,"SoundDuration":221620,"Delta":223987341},{"NoteNumber":50,"Velocity":42,"Duration":121048,"SoundDuration":121048,"Delta":224208961},{"NoteNumber":52,"Velocity":42,"Duration":120487,"SoundDuration":120487,"Delta":224319045},{"NoteNumber":53,"Velocity":43,"Duration":119898,"SoundDuration":119898,"Delta":224428614},{"NoteNumber":55,"Velocity":45,"Duration":119388,"SoundDuration":119388,"Delta":224537639},{"NoteNumber":57,"Velocity":46,"Duration":118814,"SoundDuration":118814,"Delta":224646198},{"NoteNumber":59,"Velocity":47,"Duration":118266,"SoundDuration":118266,"Delta":224754227},{"NoteNumber":60,"Velocity":49,"Duration":117803,"SoundDuration":117803,"Delta":224861796},{"NoteNumber":59,"Velocity":48,"Duration":118449,"SoundDuration":118449,"Delta":224968859},{"NoteNumber":57,"Velocity":48,"Duration":119256,"SoundDuration":119256,"Delta":225076516},{"NoteNumber":55,"Velocity":47,"Duration":119988,"SoundDuration":119988,"Delta":225184899},{"NoteNumber":72,"Velocity":56,"Duration":442824,"SoundDuration":442824,"Delta":225293923},{"NoteNumber":76,"Velocity":56,"Duration":442824,"SoundDuration":442824,"Delta":225293923},{"NoteNumber":53,"Velocity":46,"Duration":120815,"SoundDuration":120815,"Delta":225293923},{"NoteNumber":52,"Velocity":45,"Duration":121564,"SoundDuration":121564,"Delta":225403729},{"NoteNumber":50,"Velocity":43,"Duration":122368,"SoundDuration":122368,"Delta":225514192},{"NoteNumber":48,"Velocity":42,"Duration":122391,"SoundDuration":122391,"Delta":225625413},{"NoteNumber":74,"Velocity":60,"Duration":110554,"SoundDuration":110554,"Delta":225736748},{"NoteNumber":53,"Velocity":38,"Duration":1752609,"SoundDuration":1752609,"Delta":225736748},{"NoteNumber":57,"Velocity":38,"Duration":1752609,"SoundDuration":1752609,"Delta":225736748},{"NoteNumber":62,"Velocity":53,"Duration":121238,"SoundDuration":121238,"Delta":225847302},{"NoteNumber":64,"Velocity":53,"Duration":120861,"SoundDuration":120861,"Delta":225957531},{"NoteNumber":65,"Velocity":54,"Duration":120559,"SoundDuration":120559,"Delta":226067428},{"NoteNumber":67,"Velocity":55,"Duration":120104,"SoundDuration":120104,"Delta":226177069},{"NoteNumber":69,"Velocity":57,"Duration":119736,"SoundDuration":119736,"Delta":226286255},{"NoteNumber":71,"Velocity":58,"Duration":119370,"SoundDuration":119370,"Delta":226395118},{"NoteNumber":73,"Velocity":59,"Duration":119733,"SoundDuration":119733,"Delta":226503659},{"NoteNumber":74,"Velocity":62,"Duration":114381,"SoundDuration":114381,"Delta":226611955},{"NoteNumber":69,"Velocity":58,"Duration":121153,"SoundDuration":121153,"Delta":226726336},{"NoteNumber":71,"Velocity":61,"Duration":119125,"SoundDuration":119125,"Delta":226836660},{"NoteNumber":73,"Velocity":64,"Duration":119125,"SoundDuration":119125,"Delta":226944956},{"NoteNumber":74,"Velocity":66,"Duration":119125,"SoundDuration":119125,"Delta":227053251},{"NoteNumber":76,"Velocity":67,"Duration":119125,"SoundDuration":119125,"Delta":227161547},{"NoteNumber":77,"Velocity":68,"Duration":120075,"SoundDuration":120075,"Delta":227269842},{"NoteNumber":79,"Velocity":69,"Duration":121210,"SoundDuration":121210,"Delta":227378869},{"NoteNumber":81,"Velocity":70,"Duration":117941,"SoundDuration":117941,"Delta":227489358},{"NoteNumber":53,"Velocity":60,"Duration":643316,"SoundDuration":643316,"Delta":227489358},{"NoteNumber":83,"Velocity":69,"Duration":117941,"SoundDuration":117941,"Delta":227596577},{"NoteNumber":84,"Velocity":71,"Duration":117941,"SoundDuration":117941,"Delta":227703797},{"NoteNumber":83,"Velocity":69,"Duration":117941,"SoundDuration":117941,"Delta":227811016},{"NoteNumber":81,"Velocity":67,"Duration":117941,"SoundDuration":117941,"Delta":227918236},{"NoteNumber":79,"Velocity":65,"Duration":117941,"SoundDuration":117941,"Delta":228025455},{"NoteNumber":77,"Velocity":63,"Duration":119542,"SoundDuration":119542,"Delta":228132675},{"NoteNumber":55,"Velocity":55,"Duration":219365,"SoundDuration":219365,"Delta":228132675},{"NoteNumber":76,"Velocity":66,"Duration":110914,"SoundDuration":110914,"Delta":228241126},{"NoteNumber":77,"Velocity":65,"Duration":117079,"SoundDuration":117079,"Delta":228352040},{"NoteNumber":57,"Velocity":60,"Duration":638614,"SoundDuration":638614,"Delta":228352040},{"NoteNumber":79,"Velocity":66,"Duration":117079,"SoundDuration":117079,"Delta":228458476},{"NoteNumber":81,"Velocity":67,"Duration":117079,"SoundDuration":117079,"Delta":228564911},{"NoteNumber":79,"Velocity":67,"Duration":117079,"SoundDuration":117079,"Delta":228671347},{"NoteNumber":77,"Velocity":68,"Duration":117079,"SoundDuration":117079,"Delta":228777783},{"NoteNumber":76,"Velocity":71,"Duration":117079,"SoundDuration":117079,"Delta":228884219},{"NoteNumber":74,"Velocity":73,"Duration":120307,"SoundDuration":120307,"Delta":228990654},{"NoteNumber":54,"Velocity":54,"Duration":222805,"SoundDuration":222805,"Delta":228990654},{"NoteNumber":72,"Velocity":76,"Duration":124688,"SoundDuration":124688,"Delta":229099574},{"NoteNumber":71,"Velocity":78,"Duration":108022,"SoundDuration":108022,"Delta":229213460},{"NoteNumber":43,"Velocity":65,"Duration":108022,"SoundDuration":108022,"Delta":229213460},{"NoteNumber":47,"Velocity":56,"Duration":108022,"SoundDuration":108022,"Delta":229321483},{"NoteNumber":79,"Velocity":71,"Duration":107511,"SoundDuration":107511,"Delta":229429505},{"NoteNumber":50,"Velocity":56,"Duration":107511,"SoundDuration":107511,"Delta":229429505},{"NoteNumber":55,"Velocity":50,"Duration":107511,"SoundDuration":107511,"Delta":229537017},{"NoteNumber":76,"Velocity":71,"Duration":107511,"SoundDuration":107511,"Delta":229644528},{"NoteNumber":43,"Velocity":65,"Duration":107511,"SoundDuration":107511,"Delta":229644528},{"NoteNumber":48,"Velocity":55,"Duration":107511,"SoundDuration":107511,"Delta":229752040},{"NoteNumber":72,"Velocity":71,"Duration":108993,"SoundDuration":108993,"Delta":229859551},{"NoteNumber":52,"Velocity":55,"Duration":108993,"SoundDuration":108993,"Delta":229859551},{"NoteNumber":55,"Velocity":50,"Duration":111957,"SoundDuration":111957,"Delta":229968545},{"NoteNumber":74,"Velocity":78,"Duration":108022,"SoundDuration":108022,"Delta":230080502},{"NoteNumber":43,"Velocity":65,"Duration":108022,"SoundDuration":108022,"Delta":230080502},{"NoteNumber":47,"Velocity":55,"Duration":108022,"SoundDuration":108022,"Delta":230188524},{"NoteNumber":79,"Velocity":71,"Duration":107906,"SoundDuration":107906,"Delta":230296547},{"NoteNumber":50,"Velocity":55,"Duration":107906,"SoundDuration":107906,"Delta":230296547},{"NoteNumber":55,"Velocity":54,"Duration":107905,"SoundDuration":107905,"Delta":230404453},{"NoteNumber":76,"Velocity":71,"Duration":107906,"SoundDuration":107906,"Delta":230512359},{"NoteNumber":43,"Velocity":65,"Duration":107906,"SoundDuration":107906,"Delta":230512359},{"NoteNumber":48,"Velocity":57,"Duration":107905,"SoundDuration":107905,"Delta":230620265},{"NoteNumber":72,"Velocity":71,"Duration":109098,"SoundDuration":109098,"Delta":230728171},{"NoteNumber":52,"Velocity":56,"Duration":109098,"SoundDuration":109098,"Delta":230728171},{"NoteNumber":55,"Velocity":53,"Duration":111482,"SoundDuration":111482,"Delta":230837269},{"NoteNumber":74,"Velocity":81,"Duration":118624,"SoundDuration":118624,"Delta":230948752},{"NoteNumber":43,"Velocity":65,"Duration":118624,"SoundDuration":118624,"Delta":230948752},{"NoteNumber":74,"Velocity":71,"Duration":120958,"SoundDuration":120958,"Delta":231423248},{"NoteNumber":79,"Velocity":71,"Duration":120958,"SoundDuration":120958,"Delta":231423248},{"NoteNumber":71,"Velocity":71,"Duration":120958,"SoundDuration":120958,"Delta":231423248},{"NoteNumber":55,"Velocity":59,"Duration":120958,"SoundDuration":120958,"Delta":231423248},{"NoteNumber":67,"Velocity":83,"Duration":483832,"SoundDuration":483832,"Delta":231907080},{"NoteNumber":43,"Velocity":61,"Duration":483832,"SoundDuration":483832,"Delta":231907080},{"NoteNumber":66,"Velocity":42,"Duration":119250,"SoundDuration":119250,"Delta":232844495},{"NoteNumber":67,"Velocity":36,"Duration":108250,"SoundDuration":108250,"Delta":232952874},{"NoteNumber":66,"Velocity":42,"Duration":118332,"SoundDuration":118332,"Delta":233061124},{"NoteNumber":67,"Velocity":36,"Duration":107708,"SoundDuration":107708,"Delta":233168666},{"NoteNumber":66,"Velocity":42,"Duration":118542,"SoundDuration":118542,"Delta":233276375},{"NoteNumber":67,"Velocity":38,"Duration":107626,"SoundDuration":107626,"Delta":233384166},{"NoteNumber":66,"Velocity":42,"Duration":118617,"SoundDuration":118617,"Delta":233491793},{"NoteNumber":67,"Velocity":37,"Duration":113395,"SoundDuration":113395,"Delta":233599070},{"NoteNumber":65,"Velocity":42,"Duration":118753,"SoundDuration":118753,"Delta":233712466},{"NoteNumber":67,"Velocity":36,"Duration":107961,"SoundDuration":107961,"Delta":233820389},{"NoteNumber":65,"Velocity":42,"Duration":118332,"SoundDuration":118332,"Delta":233928350},{"NoteNumber":67,"Velocity":37,"Duration":107906,"SoundDuration":107906,"Delta":234035892},{"NoteNumber":65,"Velocity":42,"Duration":118209,"SoundDuration":118209,"Delta":234143798},{"NoteNumber":67,"Velocity":37,"Duration":108277,"SoundDuration":108277,"Delta":234251177},{"NoteNumber":65,"Velocity":42,"Duration":118940,"SoundDuration":118940,"Delta":234359454},{"NoteNumber":67,"Velocity":38,"Duration":114285,"SoundDuration":114285,"Delta":234466966},{"NoteNumber":79,"Velocity":61,"Duration":217438,"SoundDuration":217438,"Delta":234581252},{"NoteNumber":64,"Velocity":42,"Duration":108719,"SoundDuration":108719,"Delta":234581252},{"NoteNumber":67,"Velocity":36,"Duration":108719,"SoundDuration":108719,"Delta":234689971},{"NoteNumber":76,"Velocity":55,"Duration":219074,"SoundDuration":219074,"Delta":234798690},{"NoteNumber":64,"Velocity":42,"Duration":109536,"SoundDuration":109536,"Delta":234798690},{"NoteNumber":67,"Velocity":36,"Duration":109537,"SoundDuration":109537,"Delta":234908227},{"NoteNumber":72,"Velocity":61,"Duration":655586,"SoundDuration":655586,"Delta":235017764},{"NoteNumber":64,"Velocity":42,"Duration":109536,"SoundDuration":109536,"Delta":235017764},{"NoteNumber":67,"Velocity":32,"Duration":109537,"SoundDuration":109537,"Delta":235127301},{"NoteNumber":64,"Velocity":38,"Duration":109536,"SoundDuration":109536,"Delta":235236838},{"NoteNumber":67,"Velocity":33,"Duration":109536,"SoundDuration":109536,"Delta":235346375},{"NoteNumber":64,"Velocity":39,"Duration":108719,"SoundDuration":108719,"Delta":235455912},{"NoteNumber":67,"Velocity":32,"Duration":108719,"SoundDuration":108719,"Delta":235564631},{"NoteNumber":74,"Velocity":53,"Duration":109536,"SoundDuration":109536,"Delta":235673351},{"NoteNumber":64,"Velocity":39,"Duration":109536,"SoundDuration":109536,"Delta":235673351},{"NoteNumber":76,"Velocity":51,"Duration":109537,"SoundDuration":109537,"Delta":235782888},{"NoteNumber":67,"Velocity":34,"Duration":109537,"SoundDuration":109537,"Delta":235782888},{"NoteNumber":74,"Velocity":55,"Duration":219074,"SoundDuration":219074,"Delta":235892425},{"NoteNumber":64,"Velocity":42,"Duration":109536,"SoundDuration":109536,"Delta":235892425},{"NoteNumber":67,"Velocity":37,"Duration":109537,"SoundDuration":109537,"Delta":236001962},{"NoteNumber":72,"Velocity":53,"Duration":109536,"SoundDuration":109536,"Delta":236111499},{"NoteNumber":64,"Velocity":42,"Duration":109536,"SoundDuration":109536,"Delta":236111499},{"NoteNumber":67,"Velocity":38,"Duration":109536,"SoundDuration":109536,"Delta":236221036},{"NoteNumber":72,"Velocity":55,"Duration":55187,"SoundDuration":55187,"Delta":236330573},{"NoteNumber":65,"Velocity":46,"Duration":110375,"SoundDuration":110375,"Delta":236330573},{"NoteNumber":74,"Velocity":51,"Duration":55187,"SoundDuration":55187,"Delta":236385760},{"NoteNumber":72,"Velocity":56,"Duration":55187,"SoundDuration":55187,"Delta":236440948},{"NoteNumber":67,"Velocity":38,"Duration":110375,"SoundDuration":110375,"Delta":236440948},{"NoteNumber":74,"Velocity":51,"Duration":55187,"SoundDuration":55187,"Delta":236496135},{"NoteNumber":72,"Velocity":58,"Duration":110375,"SoundDuration":110375,"Delta":236551323},{"NoteNumber":64,"Velocity":42,"Duration":110375,"SoundDuration":110375,"Delta":236551323},{"NoteNumber":71,"Velocity":52,"Duration":101177,"SoundDuration":101177,"Delta":236661698},{"NoteNumber":67,"Velocity":36,"Duration":110375,"SoundDuration":110375,"Delta":236661698},{"NoteNumber":71,"Velocity":58,"Duration":436490,"SoundDuration":436490,"Delta":236772074},{"NoteNumber":62,"Velocity":39,"Duration":120035,"SoundDuration":120035,"Delta":236772074},{"NoteNumber":67,"Velocity":27,"Duration":109122,"SoundDuration":109122,"Delta":236881196},{"NoteNumber":64,"Velocity":47,"Duration":120035,"SoundDuration":120035,"Delta":236990319},{"NoteNumber":67,"Velocity":35,"Duration":109122,"SoundDuration":109122,"Delta":237099442},{"NoteNumber":65,"Velocity":50,"Duration":120035,"SoundDuration":120035,"Delta":237208565},{"NoteNumber":67,"Velocity":36,"Duration":109122,"SoundDuration":109122,"Delta":237317687},{"NoteNumber":64,"Velocity":44,"Duration":120035,"SoundDuration":120035,"Delta":237426810},{"NoteNumber":67,"Velocity":30,"Duration":109122,"SoundDuration":109122,"Delta":237535933},{"NoteNumber":65,"Velocity":52,"Duration":120949,"SoundDuration":120949,"Delta":237645056},{"NoteNumber":67,"Velocity":31,"Duration":109954,"SoundDuration":109954,"Delta":237755010},{"NoteNumber":62,"Velocity":40,"Duration":121803,"SoundDuration":121803,"Delta":237864965},{"NoteNumber":67,"Velocity":28,"Duration":118492,"SoundDuration":118492,"Delta":237974919},{"NoteNumber":79,"Velocity":61,"Duration":217438,"SoundDuration":217438,"Delta":238093412},{"NoteNumber":64,"Velocity":42,"Duration":108719,"SoundDuration":108719,"Delta":238093412},{"NoteNumber":67,"Velocity":36,"Duration":108719,"SoundDuration":108719,"Delta":238202131},{"NoteNumber":76,"Velocity":55,"Duration":219074,"SoundDuration":219074,"Delta":238310850},{"NoteNumber":64,"Velocity":42,"Duration":109536,"SoundDuration":109536,"Delta":238310850},{"NoteNumber":67,"Velocity":36,"Duration":109537,"SoundDuration":109537,"Delta":238420387},{"NoteNumber":72,"Velocity":61,"Duration":655586,"SoundDuration":655586,"Delta":238529924},{"NoteNumber":64,"Velocity":42,"Duration":109536,"SoundDuration":109536,"Delta":238529924},{"NoteNumber":67,"Velocity":32,"Duration":109537,"SoundDuration":109537,"Delta":238639461},{"NoteNumber":64,"Velocity":38,"Duration":109536,"SoundDuration":109536,"Delta":238748998},{"NoteNumber":67,"Velocity":33,"Duration":109536,"SoundDuration":109536,"Delta":238858535},{"NoteNumber":64,"Velocity":39,"Duration":108719,"SoundDuration":108719,"Delta":238968072},{"NoteNumber":67,"Velocity":32,"Duration":108719,"SoundDuration":108719,"Delta":239076792},{"NoteNumber":74,"Velocity":53,"Duration":109536,"SoundDuration":109536,"Delta":239185511},{"NoteNumber":64,"Velocity":39,"Duration":109536,"SoundDuration":109536,"Delta":239185511},{"NoteNumber":76,"Velocity":51,"Duration":109537,"SoundDuration":109537,"Delta":239295048},{"NoteNumber":67,"Velocity":34,"Duration":109537,"SoundDuration":109537,"Delta":239295048},{"NoteNumber":74,"Velocity":55,"Duration":219074,"SoundDuration":219074,"Delta":239404585},{"NoteNumber":64,"Velocity":42,"Duration":109536,"SoundDuration":109536,"Delta":239404585},{"NoteNumber":67,"Velocity":37,"Duration":109537,"SoundDuration":109537,"Delta":239514122},{"NoteNumber":72,"Velocity":53,"Duration":109536,"SoundDuration":109536,"Delta":239623659},{"NoteNumber":64,"Velocity":42,"Duration":109536,"SoundDuration":109536,"Delta":239623659},{"NoteNumber":67,"Velocity":38,"Duration":109536,"SoundDuration":109536,"Delta":239733196},{"NoteNumber":72,"Velocity":55,"Duration":55187,"SoundDuration":55187,"Delta":239842733},{"NoteNumber":65,"Velocity":42,"Duration":110375,"SoundDuration":110375,"Delta":239842733},{"NoteNumber":74,"Velocity":51,"Duration":55187,"SoundDuration":55187,"Delta":239897920},{"NoteNumber":72,"Velocity":56,"Duration":55187,"SoundDuration":55187,"Delta":239953108},{"NoteNumber":67,"Velocity":36,"Duration":110375,"SoundDuration":110375,"Delta":239953108},{"NoteNumber":74,"Velocity":50,"Duration":55187,"SoundDuration":55187,"Delta":240008296},{"NoteNumber":72,"Velocity":55,"Duration":110375,"SoundDuration":110375,"Delta":240063483},{"NoteNumber":64,"Velocity":42,"Duration":110375,"SoundDuration":110375,"Delta":240063483},{"NoteNumber":71,"Velocity":52,"Duration":82781,"SoundDuration":82781,"Delta":240173859},{"NoteNumber":67,"Velocity":36,"Duration":110375,"SoundDuration":110375,"Delta":240173859},{"NoteNumber":71,"Velocity":58,"Duration":438148,"SoundDuration":438148,"Delta":240284234},{"NoteNumber":62,"Velocity":39,"Duration":120490,"SoundDuration":120490,"Delta":240284234},{"NoteNumber":67,"Velocity":29,"Duration":109537,"SoundDuration":109537,"Delta":240393771},{"NoteNumber":64,"Velocity":42,"Duration":120490,"SoundDuration":120490,"Delta":240503308},{"NoteNumber":67,"Velocity":32,"Duration":109537,"SoundDuration":109537,"Delta":240612845},{"NoteNumber":65,"Velocity":48,"Duration":120490,"SoundDuration":120490,"Delta":240722382},{"NoteNumber":67,"Velocity":36,"Duration":109536,"SoundDuration":109536,"Delta":240831919},{"NoteNumber":64,"Velocity":43,"Duration":120490,"SoundDuration":120490,"Delta":240941456},{"NoteNumber":67,"Velocity":30,"Duration":109536,"SoundDuration":109536,"Delta":241050993},{"NoteNumber":65,"Velocity":48,"Duration":120949,"SoundDuration":120949,"Delta":241160530},{"NoteNumber":67,"Velocity":36,"Duration":109954,"SoundDuration":109954,"Delta":241270484},{"NoteNumber":62,"Velocity":43,"Duration":121660,"SoundDuration":121660,"Delta":241380439},{"NoteNumber":67,"Velocity":30,"Duration":117059,"SoundDuration":117059,"Delta":241490393},{"NoteNumber":79,"Velocity":65,"Duration":451781,"SoundDuration":451781,"Delta":241607453},{"NoteNumber":52,"Velocity":37,"Duration":112396,"SoundDuration":112396,"Delta":241725873},{"NoteNumber":55,"Velocity":39,"Duration":110996,"SoundDuration":110996,"Delta":241838269},{"NoteNumber":60,"Velocity":37,"Duration":109968,"SoundDuration":109968,"Delta":241949266},{"NoteNumber":64,"Velocity":45,"Duration":448653,"SoundDuration":448653,"Delta":242059235},{"NoteNumber":79,"Velocity":57,"Duration":110375,"SoundDuration":110375,"Delta":242176762},{"NoteNumber":76,"Velocity":62,"Duration":110375,"SoundDuration":110375,"Delta":242287137},{"NoteNumber":72,"Velocity":57,"Duration":110375,"SoundDuration":110375,"Delta":242397512},{"NoteNumber":69,"Velocity":64,"Duration":446546,"SoundDuration":446546,"Delta":242507888},{"NoteNumber":53,"Velocity":39,"Duration":111769,"SoundDuration":111769,"Delta":242622173},{"NoteNumber":57,"Velocity":41,"Duration":110770,"SoundDuration":110770,"Delta":242733943},{"NoteNumber":60,"Velocity":38,"Duration":109721,"SoundDuration":109721,"Delta":242844713},{"NoteNumber":65,"Velocity":49,"Duration":442815,"SoundDuration":442815,"Delta":242954435},{"NoteNumber":69,"Velocity":57,"Duration":109954,"SoundDuration":109954,"Delta":243067386},{"NoteNumber":72,"Velocity":62,"Duration":109954,"SoundDuration":109954,"Delta":243177341},{"NoteNumber":69,"Velocity":57,"Duration":109954,"SoundDuration":109954,"Delta":243287295},{"NoteNumber":77,"Velocity":65,"Duration":452801,"SoundDuration":452801,"Delta":243397250},{"NoteNumber":50,"Velocity":37,"Duration":112449,"SoundDuration":112449,"Delta":243515670},{"NoteNumber":53,"Velocity":39,"Duration":111140,"SoundDuration":111140,"Delta":243628120},{"NoteNumber":59,"Velocity":37,"Duration":110791,"SoundDuration":110791,"Delta":243739261},{"NoteNumber":62,"Velocity":45,"Duration":437978,"SoundDuration":437978,"Delta":243850052},{"NoteNumber":77,"Velocity":57,"Duration":110375,"SoundDuration":110375,"Delta":243956904},{"NoteNumber":74,"Velocity":62,"Duration":110375,"SoundDuration":110375,"Delta":244067280},{"NoteNumber":71,"Velocity":57,"Duration":110375,"SoundDuration":110375,"Delta":244177655},{"NoteNumber":67,"Velocity":64,"Duration":452061,"SoundDuration":452061,"Delta":244288030},{"NoteNumber":52,"Velocity":39,"Duration":110752,"SoundDuration":110752,"Delta":244401996},{"NoteNumber":55,"Velocity":41,"Duration":110284,"SoundDuration":110284,"Delta":244512748},{"NoteNumber":59,"Velocity":38,"Duration":117059,"SoundDuration":117059,"Delta":244623033},{"NoteNumber":64,"Velocity":49,"Duration":442815,"SoundDuration":442815,"Delta":244740092},{"NoteNumber":79,"Velocity":64,"Duration":109954,"SoundDuration":109954,"Delta":244853044},{"NoteNumber":83,"Velocity":67,"Duration":109954,"SoundDuration":109954,"Delta":244962998},{"NoteNumber":79,"Velocity":63,"Duration":109954,"SoundDuration":109954,"Delta":245072953},{"NoteNumber":88,"Velocity":72,"Duration":451810,"SoundDuration":451810,"Delta":245182907},{"NoteNumber":60,"Velocity":39,"Duration":111823,"SoundDuration":111823,"Delta":245301879},{"NoteNumber":64,"Velocity":42,"Duration":110941,"SoundDuration":110941,"Delta":245413702},{"NoteNumber":69,"Velocity":39,"Duration":110073,"SoundDuration":110073,"Delta":245524644},{"NoteNumber":72,"Velocity":48,"Duration":444077,"SoundDuration":444077,"Delta":245634718},{"NoteNumber":88,"Velocity":61,"Duration":110375,"SoundDuration":110375,"Delta":245747670},{"NoteNumber":84,"Velocity":66,"Duration":110375,"SoundDuration":110375,"Delta":245858045},{"NoteNumber":81,"Velocity":61,"Duration":110375,"SoundDuration":110375,"Delta":245968420},{"NoteNumber":77,"Velocity":68,"Duration":445534,"SoundDuration":445534,"Delta":246078795},{"NoteNumber":62,"Velocity":42,"Duration":111624,"SoundDuration":111624,"Delta":246192879},{"NoteNumber":65,"Velocity":44,"Duration":110468,"SoundDuration":110468,"Delta":246304504},{"NoteNumber":69,"Velocity":41,"Duration":109358,"SoundDuration":109358,"Delta":246414972},{"NoteNumber":74,"Velocity":52,"Duration":442815,"SoundDuration":442815,"Delta":246524330},{"NoteNumber":77,"Velocity":64,"Duration":109954,"SoundDuration":109954,"Delta":246637282},{"NoteNumber":81,"Velocity":66,"Duration":109954,"SoundDuration":109954,"Delta":246747236},{"NoteNumber":77,"Velocity":64,"Duration":109954,"SoundDuration":109954,"Delta":246857191},{"NoteNumber":86,"Velocity":73,"Duration":445411,"SoundDuration":445411,"Delta":246967145},{"NoteNumber":59,"Velocity":39,"Duration":110375,"SoundDuration":110375,"Delta":247081431},{"NoteNumber":62,"Velocity":42,"Duration":110375,"SoundDuration":110375,"Delta":247191806},{"NoteNumber":67,"Velocity":39,"Duration":110375,"SoundDuration":110375,"Delta":247302181},{"NoteNumber":71,"Velocity":48,"Duration":442483,"SoundDuration":442483,"Delta":247412557},{"NoteNumber":86,"Velocity":61,"Duration":108719,"SoundDuration":108719,"Delta":247525952},{"NoteNumber":83,"Velocity":66,"Duration":108719,"SoundDuration":108719,"Delta":247634672},{"NoteNumber":77,"Velocity":61,"Duration":111648,"SoundDuration":111648,"Delta":247743391},{"NoteNumber":76,"Velocity":68,"Duration":444149,"SoundDuration":444149,"Delta":247855040},{"NoteNumber":60,"Velocity":42,"Duration":109954,"SoundDuration":109954,"Delta":247969325},{"NoteNumber":64,"Velocity":44,"Duration":109954,"SoundDuration":109954,"Delta":248079280},{"NoteNumber":67,"Velocity":41,"Duration":109954,"SoundDuration":109954,"Delta":248189234},{"NoteNumber":72,"Velocity":52,"Duration":442815,"SoundDuration":442815,"Delta":248299189},{"NoteNumber":84,"Velocity":61,"Duration":109954,"SoundDuration":109954,"Delta":248412141},{"NoteNumber":79,"Velocity":66,"Duration":109954,"SoundDuration":109954,"Delta":248522095},{"NoteNumber":76,"Velocity":61,"Duration":109954,"SoundDuration":109954,"Delta":248632050},{"NoteNumber":74,"Velocity":71,"Duration":824658,"SoundDuration":824658,"Delta":248742004},{"NoteNumber":69,"Velocity":39,"Duration":109954,"SoundDuration":109954,"Delta":248961913},{"NoteNumber":65,"Velocity":39,"Duration":109954,"SoundDuration":109954,"Delta":248961913},{"NoteNumber":69,"Velocity":39,"Duration":109954,"SoundDuration":109954,"Delta":249181822},{"NoteNumber":65,"Velocity":39,"Duration":109954,"SoundDuration":109954,"Delta":249181822},{"NoteNumber":65,"Velocity":39,"Duration":109954,"SoundDuration":109954,"Delta":249401731},{"NoteNumber":69,"Velocity":39,"Duration":109954,"SoundDuration":109954,"Delta":249401731},{"NoteNumber":73,"Velocity":64,"Duration":54977,"SoundDuration":54977,"Delta":249566663},{"NoteNumber":74,"Velocity":69,"Duration":384840,"SoundDuration":384840,"Delta":249621640},{"NoteNumber":69,"Velocity":44,"Duration":109954,"SoundDuration":109954,"Delta":249621640},{"NoteNumber":65,"Velocity":44,"Duration":109954,"SoundDuration":109954,"Delta":249621640},{"NoteNumber":65,"Velocity":40,"Duration":109954,"SoundDuration":109954,"Delta":249841549},{"NoteNumber":69,"Velocity":40,"Duration":109954,"SoundDuration":109954,"Delta":249841549},{"NoteNumber":73,"Velocity":65,"Duration":54977,"SoundDuration":54977,"Delta":250006481},{"NoteNumber":74,"Velocity":72,"Duration":447578,"SoundDuration":447578,"Delta":250061458},{"NoteNumber":65,"Velocity":40,"Duration":109954,"SoundDuration":109954,"Delta":250061458},{"NoteNumber":69,"Velocity":40,"Duration":109954,"SoundDuration":109954,"Delta":250061458},{"NoteNumber":65,"Velocity":41,"Duration":113834,"SoundDuration":113834,"Delta":250281367},{"NoteNumber":69,"Velocity":41,"Duration":113834,"SoundDuration":113834,"Delta":250281367},{"NoteNumber":81,"Velocity":77,"Duration":824658,"SoundDuration":824658,"Delta":250509037},{"NoteNumber":54,"Velocity":40,"Duration":109954,"SoundDuration":109954,"Delta":250728946},{"NoteNumber":63,"Velocity":40,"Duration":109954,"SoundDuration":109954,"Delta":250728946},{"NoteNumber":60,"Velocity":40,"Duration":109954,"SoundDuration":109954,"Delta":250728946},{"NoteNumber":54,"Velocity":41,"Duration":109954,"SoundDuration":109954,"Delta":250948855},{"NoteNumber":63,"Velocity":41,"Duration":109954,"SoundDuration":109954,"Delta":250948855},{"NoteNumber":60,"Velocity":41,"Duration":109954,"SoundDuration":109954,"Delta":250948855},{"NoteNumber":54,"Velocity":41,"Duration":109954,"SoundDuration":109954,"Delta":251168764},{"NoteNumber":60,"Velocity":41,"Duration":109954,"SoundDuration":109954,"Delta":251168764},{"NoteNumber":63,"Velocity":41,"Duration":109954,"SoundDuration":109954,"Delta":251168764},{"NoteNumber":80,"Velocity":69,"Duration":54977,"SoundDuration":54977,"Delta":251333695},{"NoteNumber":81,"Velocity":78,"Duration":384840,"SoundDuration":384840,"Delta":251388673},{"NoteNumber":54,"Velocity":47,"Duration":109954,"SoundDuration":109954,"Delta":251388673},{"NoteNumber":60,"Velocity":47,"Duration":109954,"SoundDuration":109954,"Delta":251388673},{"NoteNumber":63,"Velocity":47,"Duration":109954,"SoundDuration":109954,"Delta":251388673},{"NoteNumber":54,"Velocity":43,"Duration":109954,"SoundDuration":109954,"Delta":251608582},{"NoteNumber":60,"Velocity":43,"Duration":109954,"SoundDuration":109954,"Delta":251608582},{"NoteNumber":63,"Velocity":43,"Duration":109954,"SoundDuration":109954,"Delta":251608582},{"NoteNumber":80,"Velocity":69,"Duration":54977,"SoundDuration":54977,"Delta":251773513},{"NoteNumber":81,"Velocity":79,"Duration":447578,"SoundDuration":447578,"Delta":251828491},{"NoteNumber":54,"Velocity":43,"Duration":109954,"SoundDuration":109954,"Delta":251828491},{"NoteNumber":60,"Velocity":43,"Duration":109954,"SoundDuration":109954,"Delta":251828491},{"NoteNumber":63,"Velocity":43,"Duration":109954,"SoundDuration":109954,"Delta":251828491},{"NoteNumber":54,"Velocity":44,"Duration":113834,"SoundDuration":113834,"Delta":252048400},{"NoteNumber":63,"Velocity":44,"Duration":113834,"SoundDuration":113834,"Delta":252048400},{"NoteNumber":60,"Velocity":44,"Duration":113834,"SoundDuration":113834,"Delta":252048400},{"NoteNumber":79,"Velocity":78,"Duration":227669,"SoundDuration":227669,"Delta":252276069},{"NoteNumber":55,"Velocity":54,"Duration":113834,"SoundDuration":113834,"Delta":252276069},{"NoteNumber":64,"Velocity":42,"Duration":113834,"SoundDuration":113834,"Delta":252389904},{"NoteNumber":81,"Velocity":75,"Duration":113834,"SoundDuration":113834,"Delta":252503739},{"NoteNumber":60,"Velocity":42,"Duration":113834,"SoundDuration":113834,"Delta":252503739},{"NoteNumber":83,"Velocity":76,"Duration":114740,"SoundDuration":114740,"Delta":252617573},{"NoteNumber":64,"Velocity":42,"Duration":114740,"SoundDuration":114740,"Delta":252617573},{"NoteNumber":84,"Velocity":79,"Duration":109122,"SoundDuration":109122,"Delta":252732314},{"NoteNumber":55,"Velocity":56,"Duration":109122,"SoundDuration":109122,"Delta":252732314},{"NoteNumber":86,"Velocity":80,"Duration":109122,"SoundDuration":109122,"Delta":252841436},{"NoteNumber":64,"Velocity":44,"Duration":109122,"SoundDuration":109122,"Delta":252841436},{"NoteNumber":88,"Velocity":83,"Duration":109122,"SoundDuration":109122,"Delta":252950559},{"NoteNumber":60,"Velocity":42,"Duration":109122,"SoundDuration":109122,"Delta":252950559},{"NoteNumber":86,"Velocity":82,"Duration":109122,"SoundDuration":109122,"Delta":253059682},{"NoteNumber":64,"Velocity":42,"Duration":109122,"SoundDuration":109122,"Delta":253059682},{"NoteNumber":84,"Velocity":78,"Duration":109122,"SoundDuration":109122,"Delta":253168805},{"NoteNumber":55,"Velocity":48,"Duration":109122,"SoundDuration":109122,"Delta":253168805},{"NoteNumber":83,"Velocity":77,"Duration":109122,"SoundDuration":109122,"Delta":253277927},{"NoteNumber":64,"Velocity":42,"Duration":109122,"SoundDuration":109122,"Delta":253277927},{"NoteNumber":81,"Velocity":75,"Duration":109122,"SoundDuration":109122,"Delta":253387050},{"NoteNumber":60,"Velocity":42,"Duration":109122,"SoundDuration":109122,"Delta":253387050},{"NoteNumber":79,"Velocity":74,"Duration":109122,"SoundDuration":109122,"Delta":253496173},{"NoteNumber":64,"Velocity":42,"Duration":109122,"SoundDuration":109122,"Delta":253496173},{"NoteNumber":77,"Velocity":70,"Duration":109122,"SoundDuration":109122,"Delta":253605296},{"NoteNumber":55,"Velocity":49,"Duration":109122,"SoundDuration":109122,"Delta":253605296},{"NoteNumber":76,"Velocity":68,"Duration":109122,"SoundDuration":109122,"Delta":253714418},{"NoteNumber":64,"Velocity":42,"Duration":109122,"SoundDuration":109122,"Delta":253714418},{"NoteNumber":74,"Velocity":67,"Duration":109122,"SoundDuration":109122,"Delta":253823541},{"NoteNumber":60,"Velocity":42,"Duration":109122,"SoundDuration":109122,"Delta":253823541},{"NoteNumber":72,"Velocity":65,"Duration":116619,"SoundDuration":116619,"Delta":253932664},{"NoteNumber":64,"Velocity":42,"Duration":116619,"SoundDuration":116619,"Delta":253932664},{"NoteNumber":74,"Velocity":49,"Duration":59185,"SoundDuration":59185,"Delta":254049284},{"NoteNumber":55,"Velocity":50,"Duration":117867,"SoundDuration":117867,"Delta":254049284},{"NoteNumber":76,"Velocity":38,"Duration":58681,"SoundDuration":58681,"Delta":254108469},{"NoteNumber":74,"Velocity":49,"Duration":58203,"SoundDuration":58203,"Delta":254167151},{"NoteNumber":65,"Velocity":42,"Duration":115992,"SoundDuration":115992,"Delta":254167151},{"NoteNumber":76,"Velocity":40,"Duration":57789,"SoundDuration":57789,"Delta":254225354},{"NoteNumber":74,"Velocity":50,"Duration":57313,"SoundDuration":57313,"Delta":254283144},{"NoteNumber":59,"Velocity":42,"Duration":114232,"SoundDuration":114232,"Delta":254283144},{"NoteNumber":76,"Velocity":40,"Duration":56918,"SoundDuration":56918,"Delta":254340458},{"NoteNumber":74,"Velocity":50,"Duration":56457,"SoundDuration":56457,"Delta":254397376},{"NoteNumber":65,"Velocity":42,"Duration":112520,"SoundDuration":112520,"Delta":254397376},{"NoteNumber":76,"Velocity":40,"Duration":56062,"SoundDuration":56062,"Delta":254453834},{"NoteNumber":74,"Velocity":52,"Duration":56173,"SoundDuration":56173,"Delta":254509897},{"NoteNumber":55,"Velocity":49,"Duration":112579,"SoundDuration":112579,"Delta":254509897},{"NoteNumber":76,"Velocity":40,"Duration":56406,"SoundDuration":56406,"Delta":254566070},{"NoteNumber":74,"Velocity":52,"Duration":56683,"SoundDuration":56683,"Delta":254622476},{"NoteNumber":65,"Velocity":42,"Duration":113136,"SoundDuration":113136,"Delta":254622476},{"NoteNumber":76,"Velocity":41,"Duration":56453,"SoundDuration":56453,"Delta":254679159},{"NoteNumber":74,"Velocity":53,"Duration":56223,"SoundDuration":56223,"Delta":254735613},{"NoteNumber":59,"Velocity":42,"Duration":112224,"SoundDuration":112224,"Delta":254735613},{"NoteNumber":76,"Velocity":41,"Duration":56001,"SoundDuration":56001,"Delta":254791837},{"NoteNumber":74,"Velocity":53,"Duration":55705,"SoundDuration":55705,"Delta":254847838},{"NoteNumber":65,"Velocity":42,"Duration":111315,"SoundDuration":111315,"Delta":254847838},{"NoteNumber":76,"Velocity":42,"Duration":55609,"SoundDuration":55609,"Delta":254903544},{"NoteNumber":74,"Velocity":54,"Duration":55609,"SoundDuration":55609,"Delta":254959153},{"NoteNumber":55,"Velocity":48,"Duration":111218,"SoundDuration":111218,"Delta":254959153},{"NoteNumber":76,"Velocity":43,"Duration":55609,"SoundDuration":55609,"Delta":255014762},{"NoteNumber":74,"Velocity":54,"Duration":55609,"SoundDuration":55609,"Delta":255070372},{"NoteNumber":65,"Velocity":42,"Duration":111218,"SoundDuration":111218,"Delta":255070372},{"NoteNumber":76,"Velocity":45,"Duration":55609,"SoundDuration":55609,"Delta":255125981},{"NoteNumber":74,"Velocity":54,"Duration":55609,"SoundDuration":55609,"Delta":255181590},{"NoteNumber":59,"Velocity":42,"Duration":111218,"SoundDuration":111218,"Delta":255181590},{"NoteNumber":76,"Velocity":44,"Duration":55609,"SoundDuration":55609,"Delta":255237199},{"NoteNumber":74,"Velocity":54,"Duration":55655,"SoundDuration":55655,"Delta":255292808},{"NoteNumber":65,"Velocity":42,"Duration":111606,"SoundDuration":111606,"Delta":255292808},{"NoteNumber":76,"Velocity":44,"Duration":55950,"SoundDuration":55950,"Delta":255348464},{"NoteNumber":74,"Velocity":53,"Duration":56244,"SoundDuration":56244,"Delta":255404415},{"NoteNumber":55,"Velocity":49,"Duration":112794,"SoundDuration":112794,"Delta":255404415},{"NoteNumber":76,"Velocity":45,"Duration":56549,"SoundDuration":56549,"Delta":255460660},{"NoteNumber":74,"Velocity":53,"Duration":56866,"SoundDuration":56866,"Delta":255517209},{"NoteNumber":65,"Velocity":42,"Duration":114032,"SoundDuration":114032,"Delta":255517209},{"NoteNumber":76,"Velocity":42,"Duration":57165,"SoundDuration":57165,"Delta":255574076},{"NoteNumber":74,"Velocity":53,"Duration":76710,"SoundDuration":76710,"Delta":255631242},{"NoteNumber":59,"Velocity":42,"Duration":115303,"SoundDuration":115303,"Delta":255631242},{"NoteNumber":72,"Velocity":59,"Duration":77298,"SoundDuration":77298,"Delta":255707952},{"NoteNumber":65,"Velocity":42,"Duration":116117,"SoundDuration":116117,"Delta":255746546},{"NoteNumber":74,"Velocity":58,"Duration":77411,"SoundDuration":77411,"Delta":255785251},{"NoteNumber":72,"Velocity":69,"Duration":464468,"SoundDuration":464468,"Delta":255862663},{"NoteNumber":64,"Velocity":58,"Duration":464468,"SoundDuration":464468,"Delta":255862663},{"NoteNumber":60,"Velocity":49,"Duration":464468,"SoundDuration":464468,"Delta":255862663},{"NoteNumber":72,"Velocity":67,"Duration":114740,"SoundDuration":114740,"Delta":256327131},{"NoteNumber":67,"Velocity":59,"Duration":114740,"SoundDuration":114740,"Delta":256441871},{"NoteNumber":72,"Velocity":62,"Duration":114740,"SoundDuration":114740,"Delta":256556611},{"NoteNumber":76,"Velocity":65,"Duration":119464,"SoundDuration":119464,"Delta":256671351},{"NoteNumber":79,"Velocity":68,"Duration":114285,"SoundDuration":114285,"Delta":256790816},{"NoteNumber":76,"Velocity":63,"Duration":114285,"SoundDuration":114285,"Delta":256905102},{"NoteNumber":72,"Velocity":68,"Duration":114285,"SoundDuration":114285,"Delta":257019388},{"NoteNumber":76,"Velocity":63,"Duration":116586,"SoundDuration":116586,"Delta":257133673},{"NoteNumber":77,"Velocity":69,"Duration":113834,"SoundDuration":113834,"Delta":257250260},{"NoteNumber":55,"Velocity":40,"Duration":460969,"SoundDuration":460969,"Delta":257250260},{"NoteNumber":65,"Velocity":48,"Duration":460969,"SoundDuration":460969,"Delta":257250260},{"NoteNumber":62,"Velocity":40,"Duration":460969,"SoundDuration":460969,"Delta":257250260},{"NoteNumber":74,"Velocity":63,"Duration":113834,"SoundDuration":113834,"Delta":257364094},{"NoteNumber":71,"Velocity":69,"Duration":113834,"SoundDuration":113834,"Delta":257477929},{"NoteNumber":74,"Velocity":63,"Duration":119464,"SoundDuration":119464,"Delta":257591764},{"NoteNumber":72,"Velocity":69,"Duration":464468,"SoundDuration":464468,"Delta":257711229},{"NoteNumber":64,"Velocity":58,"Duration":464468,"SoundDuration":464468,"Delta":257711229},{"NoteNumber":60,"Velocity":49,"Duration":464468,"SoundDuration":464468,"Delta":257711229},{"NoteNumber":60,"Velocity":67,"Duration":114740,"SoundDuration":114740,"Delta":258175697},{"NoteNumber":55,"Velocity":59,"Duration":114740,"SoundDuration":114740,"Delta":258290437},{"NoteNumber":60,"Velocity":62,"Duration":114740,"SoundDuration":114740,"Delta":258405177},{"NoteNumber":64,"Velocity":65,"Duration":119464,"SoundDuration":119464,"Delta":258519917},{"NoteNumber":67,"Velocity":68,"Duration":114740,"SoundDuration":114740,"Delta":258639382},{"NoteNumber":64,"Velocity":63,"Duration":114740,"SoundDuration":114740,"Delta":258754122},{"NoteNumber":60,"Velocity":68,"Duration":114740,"SoundDuration":114740,"Delta":258868863},{"NoteNumber":64,"Velocity":63,"Duration":117527,"SoundDuration":117527,"Delta":258983603},{"NoteNumber":65,"Velocity":69,"Duration":113834,"SoundDuration":113834,"Delta":259101130},{"NoteNumber":43,"Velocity":40,"Duration":463485,"SoundDuration":463485,"Delta":259101130},{"NoteNumber":50,"Velocity":40,"Duration":463485,"SoundDuration":463485,"Delta":259101130},{"NoteNumber":53,"Velocity":48,"Duration":463485,"SoundDuration":463485,"Delta":259101130},{"NoteNumber":62,"Velocity":63,"Duration":113834,"SoundDuration":113834,"Delta":259214965},{"NoteNumber":59,"Velocity":69,"Duration":113834,"SoundDuration":113834,"Delta":259328800},{"NoteNumber":62,"Velocity":63,"Duration":121981,"SoundDuration":121981,"Delta":259442634},{"NoteNumber":60,"Velocity":74,"Duration":132696,"SoundDuration":132696,"Delta":259564615},{"NoteNumber":52,"Velocity":52,"Duration":132696,"SoundDuration":132696,"Delta":259564615},{"NoteNumber":48,"Velocity":44,"Duration":132696,"SoundDuration":132696,"Delta":259564615},{"NoteNumber":79,"Velocity":75,"Duration":129825,"SoundDuration":129825,"Delta":260095401},{"NoteNumber":84,"Velocity":88,"Duration":129825,"SoundDuration":129825,"Delta":260095401},{"NoteNumber":76,"Velocity":65,"Duration":129825,"SoundDuration":129825,"Delta":260095401},{"NoteNumber":60,"Velocity":59,"Duration":129825,"SoundDuration":129825,"Delta":260095401},{"NoteNumber":72,"Velocity":85,"Duration":519301,"SoundDuration":519301,"Delta":260614702},{"NoteNumber":48,"Velocity":58,"Duration":519301,"SoundDuration":519301,"Delta":260614702},{"NoteNumber":36,"Velocity":44,"Duration":519301,"SoundDuration":519301,"Delta":260614702}],"license":{"name":"Creative Commons Attribution-ShareAlike 3.0 Germany","url":"http://creativecommons.org/licenses/by-sa/3.0/de/deed.en","text":"The MIDI files in this folder were downloaded from http://www.piano-midi.de and are licensed under the Creative Commons Attribution-ShareAlike 3.0 Germany license by Bernd Krueger.\n\nThe MIDI, audio(MP3, OGG) and video files of Bernd Krueger are licensed under the cc-by-sa Germany License . This means, that you can use and adapt the files, as long as you attribute to the copyright holder Name: Bernd Krueger Source: http://www.piano-midi.de The distribution or public playback of the files is only allowed under identical license conditions . The scores are open source.","attribution":"Bernd Krueger","attributionUrl":"http://www.piano-midi.de"}}