{"title":"Klaviersonate KV 570 1. Satz","artist":"Mozart","durationMs":476067,"midiSha256":"2c137314216d102e21ef3881b48dbf9d8551c847b43d1c752f61ceb4a3b61fe0","midiObject":[{"NoteNumber":70,"Velocity":50,"Duration":749297,"SoundDuration":749297,"Delta":0},{"NoteNumber":58,"Velocity":40,"Duration":749297,"SoundDuration":749297,"Delta":0},{"NoteNumber":65,"Velocity":45,"Duration":413364,"SoundDuration":413364,"Delta":749297},{"NoteNumber":53,"Velocity":36,"Duration":413364,"SoundDuration":413364,"Delta":749297},{"NoteNumber":62,"Velocity":50,"Duration":742344,"SoundDuration":742344,"Delta":1162662},{"NoteNumber":50,"Velocity":40,"Duration":742344,"SoundDuration":742344,"Delta":1162662},{"NoteNumber":65,"Velocity":48,"Duration":406365,"SoundDuration":406365,"Delta":1905007},{"NoteNumber":53,"Velocity":38,"Duration":406365,"SoundDuration":406365,"Delta":1905007},{"NoteNumber":70,"Velocity":52,"Duration":744647,"SoundDuration":744647,"Delta":2311372},{"NoteNumber":58,"Velocity":41,"Duration":744647,"SoundDuration":744647,"Delta":2311372},{"NoteNumber":74,"Velocity":54,"Duration":395648,"SoundDuration":395648,"Delta":3056020},{"NoteNumber":62,"Velocity":43,"Duration":395648,"SoundDuration":395648,"Delta":3056020},{"NoteNumber":77,"Velocity":57,"Duration":746966,"SoundDuration":746966,"Delta":3451668},{"NoteNumber":65,"Velocity":45,"Duration":746966,"SoundDuration":746966,"Delta":3451668},{"NoteNumber":82,"Velocity":58,"Duration":185585,"SoundDuration":185585,"Delta":4198634},{"NoteNumber":74,"Velocity":51,"Duration":185585,"SoundDuration":185585,"Delta":4384220},{"NoteNumber":77,"Velocity":56,"Duration":188084,"SoundDuration":188084,"Delta":4569806},{"NoteNumber":63,"Velocity":36,"Duration":2179649,"SoundDuration":2179649,"Delta":4569806},{"NoteNumber":53,"Velocity":30,"Duration":2179649,"SoundDuration":2179649,"Delta":4569806},{"NoteNumber":60,"Velocity":30,"Duration":2179649,"SoundDuration":2179649,"Delta":4569806},{"NoteNumber":75,"Velocity":52,"Duration":189701,"SoundDuration":189701,"Delta":4748857},{"NoteNumber":74,"Velocity":51,"Duration":189701,"SoundDuration":189701,"Delta":4929526},{"NoteNumber":72,"Velocity":49,"Duration":189701,"SoundDuration":189701,"Delta":5110194},{"NoteNumber":70,"Velocity":48,"Duration":189976,"SoundDuration":189976,"Delta":5290863},{"NoteNumber":69,"Velocity":47,"Duration":186162,"SoundDuration":186162,"Delta":5471532},{"NoteNumber":67,"Velocity":50,"Duration":189132,"SoundDuration":189132,"Delta":5657694},{"NoteNumber":65,"Velocity":44,"Duration":189730,"SoundDuration":189730,"Delta":5837820},{"NoteNumber":64,"Velocity":44,"Duration":190274,"SoundDuration":190274,"Delta":6018490},{"NoteNumber":65,"Velocity":45,"Duration":190274,"SoundDuration":190274,"Delta":6199704},{"NoteNumber":67,"Velocity":47,"Duration":190580,"SoundDuration":190580,"Delta":6380918},{"NoteNumber":69,"Velocity":50,"Duration":187324,"SoundDuration":187324,"Delta":6562132},{"NoteNumber":70,"Velocity":50,"Duration":45413,"SoundDuration":45413,"Delta":6749456},{"NoteNumber":58,"Velocity":32,"Duration":363305,"SoundDuration":363305,"Delta":6749456},{"NoteNumber":62,"Velocity":38,"Duration":363305,"SoundDuration":363305,"Delta":6749456},{"NoteNumber":72,"Velocity":45,"Duration":45413,"SoundDuration":45413,"Delta":6885696},{"NoteNumber":70,"Velocity":49,"Duration":90826,"SoundDuration":90826,"Delta":6931109},{"NoteNumber":69,"Velocity":46,"Duration":90826,"SoundDuration":90826,"Delta":7021936},{"NoteNumber":70,"Velocity":50,"Duration":45413,"SoundDuration":45413,"Delta":7112762},{"NoteNumber":72,"Velocity":47,"Duration":45413,"SoundDuration":45413,"Delta":7294415},{"NoteNumber":74,"Velocity":49,"Duration":45413,"SoundDuration":45413,"Delta":7476068},{"NoteNumber":75,"Velocity":51,"Duration":48185,"SoundDuration":48185,"Delta":7657721},{"NoteNumber":76,"Velocity":53,"Duration":191897,"SoundDuration":191897,"Delta":7850461},{"NoteNumber":77,"Velocity":50,"Duration":191987,"SoundDuration":191987,"Delta":8033220},{"NoteNumber":79,"Velocity":55,"Duration":193646,"SoundDuration":193646,"Delta":8215980},{"NoteNumber":77,"Velocity":50,"Duration":181763,"SoundDuration":181763,"Delta":8400539},{"NoteNumber":82,"Velocity":59,"Duration":181763,"SoundDuration":181763,"Delta":8582302},{"NoteNumber":74,"Velocity":50,"Duration":192123,"SoundDuration":192123,"Delta":8764065},{"NoteNumber":77,"Velocity":57,"Duration":194264,"SoundDuration":194264,"Delta":8956188},{"NoteNumber":53,"Velocity":30,"Duration":2217471,"SoundDuration":2217471,"Delta":8956188},{"NoteNumber":60,"Velocity":30,"Duration":2217471,"SoundDuration":2217471,"Delta":8956188},{"NoteNumber":63,"Velocity":36,"Duration":2217471,"SoundDuration":2217471,"Delta":8956188},{"NoteNumber":75,"Velocity":55,"Duration":194179,"SoundDuration":194179,"Delta":9141202},{"NoteNumber":74,"Velocity":53,"Duration":192483,"SoundDuration":192483,"Delta":9326216},{"NoteNumber":72,"Velocity":51,"Duration":192483,"SoundDuration":192483,"Delta":9509534},{"NoteNumber":70,"Velocity":49,"Duration":192713,"SoundDuration":192713,"Delta":9692852},{"NoteNumber":69,"Velocity":47,"Duration":187910,"SoundDuration":187910,"Delta":9876170},{"NoteNumber":67,"Velocity":50,"Duration":194264,"SoundDuration":194264,"Delta":10064081},{"NoteNumber":65,"Velocity":43,"Duration":194207,"SoundDuration":194207,"Delta":10249095},{"NoteNumber":64,"Velocity":50,"Duration":193073,"SoundDuration":193073,"Delta":10434109},{"NoteNumber":65,"Velocity":43,"Duration":193073,"SoundDuration":193073,"Delta":10617989},{"NoteNumber":67,"Velocity":50,"Duration":193275,"SoundDuration":193275,"Delta":10801869},{"NoteNumber":69,"Velocity":45,"Duration":187910,"SoundDuration":187910,"Delta":10985748},{"NoteNumber":70,"Velocity":50,"Duration":92222,"SoundDuration":92222,"Delta":11173659},{"NoteNumber":58,"Velocity":34,"Duration":92222,"SoundDuration":92222,"Delta":11173659},{"NoteNumber":62,"Velocity":40,"Duration":92222,"SoundDuration":92222,"Delta":11173659},{"NoteNumber":70,"Velocity":48,"Duration":96680,"SoundDuration":96680,"Delta":11542549},{"NoteNumber":62,"Velocity":38,"Duration":96680,"SoundDuration":96680,"Delta":11542549},{"NoteNumber":58,"Velocity":32,"Duration":96680,"SoundDuration":96680,"Delta":11542549},{"NoteNumber":74,"Velocity":48,"Duration":107028,"SoundDuration":107028,"Delta":11929272},{"NoteNumber":58,"Velocity":32,"Duration":107028,"SoundDuration":107028,"Delta":11929272},{"NoteNumber":65,"Velocity":38,"Duration":107028,"SoundDuration":107028,"Delta":11929272},{"NoteNumber":70,"Velocity":50,"Duration":375821,"SoundDuration":375821,"Delta":12357385},{"NoteNumber":58,"Velocity":34,"Duration":375821,"SoundDuration":375821,"Delta":12357385},{"NoteNumber":62,"Velocity":40,"Duration":375821,"SoundDuration":375821,"Delta":12357385},{"NoteNumber":70,"Velocity":44,"Duration":46977,"SoundDuration":46977,"Delta":13015074},{"NoteNumber":72,"Velocity":50,"Duration":99607,"SoundDuration":99607,"Delta":13109029},{"NoteNumber":70,"Velocity":43,"Duration":99607,"SoundDuration":99607,"Delta":13199582},{"NoteNumber":69,"Velocity":45,"Duration":101067,"SoundDuration":101067,"Delta":13290134},{"NoteNumber":70,"Velocity":42,"Duration":114290,"SoundDuration":114290,"Delta":13380686},{"NoteNumber":79,"Velocity":56,"Duration":365519,"SoundDuration":365519,"Delta":13485839},{"NoteNumber":58,"Velocity":30,"Duration":375821,"SoundDuration":375821,"Delta":13851358},{"NoteNumber":51,"Velocity":25,"Duration":375821,"SoundDuration":375821,"Delta":13851358},{"NoteNumber":55,"Velocity":25,"Duration":375821,"SoundDuration":375821,"Delta":13851358},{"NoteNumber":70,"Velocity":44,"Duration":46977,"SoundDuration":46977,"Delta":14133224},{"NoteNumber":72,"Velocity":50,"Duration":99909,"SoundDuration":99909,"Delta":14227180},{"NoteNumber":70,"Velocity":43,"Duration":99909,"SoundDuration":99909,"Delta":14318006},{"NoteNumber":69,"Velocity":45,"Duration":101341,"SoundDuration":101341,"Delta":14408833},{"NoteNumber":70,"Velocity":42,"Duration":114153,"SoundDuration":114153,"Delta":14499659},{"NoteNumber":77,"Velocity":55,"Duration":360035,"SoundDuration":360035,"Delta":14604812},{"NoteNumber":50,"Velocity":25,"Duration":375821,"SoundDuration":375821,"Delta":14964848},{"NoteNumber":53,"Velocity":25,"Duration":375821,"SoundDuration":375821,"Delta":14964848},{"NoteNumber":58,"Velocity":30,"Duration":375821,"SoundDuration":375821,"Delta":14964848},{"NoteNumber":70,"Velocity":44,"Duration":46977,"SoundDuration":46977,"Delta":15246714},{"NoteNumber":72,"Velocity":50,"Duration":103351,"SoundDuration":103351,"Delta":15340670},{"NoteNumber":70,"Velocity":43,"Duration":103351,"SoundDuration":103351,"Delta":15434625},{"NoteNumber":69,"Velocity":45,"Duration":104470,"SoundDuration":104470,"Delta":15528581},{"NoteNumber":70,"Velocity":42,"Duration":114262,"SoundDuration":114262,"Delta":15622536},{"NoteNumber":72,"Velocity":52,"Duration":364409,"SoundDuration":364409,"Delta":15727689},{"NoteNumber":57,"Velocity":29,"Duration":1126953,"SoundDuration":1126953,"Delta":15727689},{"NoteNumber":65,"Velocity":34,"Duration":1501603,"SoundDuration":1501603,"Delta":15727689},{"NoteNumber":77,"Velocity":49,"Duration":375821,"SoundDuration":375821,"Delta":16092098},{"NoteNumber":75,"Velocity":48,"Duration":386722,"SoundDuration":386722,"Delta":16467920},{"NoteNumber":73,"Velocity":55,"Duration":374649,"SoundDuration":374649,"Delta":16854643},{"NoteNumber":58,"Velocity":34,"Duration":374649,"SoundDuration":374649,"Delta":16854643},{"NoteNumber":74,"Velocity":49,"Duration":201816,"SoundDuration":201816,"Delta":17229292},{"NoteNumber":70,"Velocity":44,"Duration":46977,"SoundDuration":46977,"Delta":17532017},{"NoteNumber":72,"Velocity":50,"Duration":99607,"SoundDuration":99607,"Delta":17625972},{"NoteNumber":70,"Velocity":43,"Duration":99607,"SoundDuration":99607,"Delta":17716524},{"NoteNumber":69,"Velocity":45,"Duration":101067,"SoundDuration":101067,"Delta":17807077},{"NoteNumber":70,"Velocity":42,"Duration":114290,"SoundDuration":114290,"Delta":17897629},{"NoteNumber":79,"Velocity":56,"Duration":365518,"SoundDuration":365518,"Delta":18002781},{"NoteNumber":51,"Velocity":25,"Duration":375821,"SoundDuration":375821,"Delta":18368300},{"NoteNumber":55,"Velocity":25,"Duration":375821,"SoundDuration":375821,"Delta":18368300},{"NoteNumber":58,"Velocity":30,"Duration":375821,"SoundDuration":375821,"Delta":18368300},{"NoteNumber":70,"Velocity":44,"Duration":46977,"SoundDuration":46977,"Delta":18650167},{"NoteNumber":72,"Velocity":50,"Duration":99909,"SoundDuration":99909,"Delta":18744122},{"NoteNumber":70,"Velocity":43,"Duration":99909,"SoundDuration":99909,"Delta":18834949},{"NoteNumber":69,"Velocity":45,"Duration":101341,"SoundDuration":101341,"Delta":18925775},{"NoteNumber":70,"Velocity":42,"Duration":114153,"SoundDuration":114153,"Delta":19016602},{"NoteNumber":77,"Velocity":55,"Duration":360036,"SoundDuration":360036,"Delta":19121754},{"NoteNumber":50,"Velocity":25,"Duration":375821,"SoundDuration":375821,"Delta":19481790},{"NoteNumber":53,"Velocity":25,"Duration":375821,"SoundDuration":375821,"Delta":19481790},{"NoteNumber":58,"Velocity":30,"Duration":375821,"SoundDuration":375821,"Delta":19481790},{"NoteNumber":70,"Velocity":44,"Duration":46977,"SoundDuration":46977,"Delta":19763657},{"NoteNumber":72,"Velocity":50,"Duration":103351,"SoundDuration":103351,"Delta":19857612},{"NoteNumber":70,"Velocity":43,"Duration":103351,"SoundDuration":103351,"Delta":19951568},{"NoteNumber":69,"Velocity":45,"Duration":104470,"SoundDuration":104470,"Delta":20045523},{"NoteNumber":70,"Velocity":42,"Duration":114262,"SoundDuration":114262,"Delta":20139479},{"NoteNumber":72,"Velocity":52,"Duration":364408,"SoundDuration":364408,"Delta":20244631},{"NoteNumber":53,"Velocity":29,"Duration":1133286,"SoundDuration":1133286,"Delta":20244631},{"NoteNumber":57,"Velocity":34,"Duration":364408,"SoundDuration":364408,"Delta":20244631},{"NoteNumber":75,"Velocity":49,"Duration":375821,"SoundDuration":375821,"Delta":20609040},{"NoteNumber":60,"Velocity":31,"Duration":375821,"SoundDuration":375821,"Delta":20609040},{"NoteNumber":69,"Velocity":48,"Duration":393056,"SoundDuration":393056,"Delta":20984862},{"NoteNumber":63,"Velocity":29,"Duration":393056,"SoundDuration":393056,"Delta":20984862},{"NoteNumber":70,"Velocity":55,"Duration":365518,"SoundDuration":365518,"Delta":21377918},{"NoteNumber":62,"Velocity":34,"Duration":365518,"SoundDuration":365518,"Delta":21377918},{"NoteNumber":58,"Velocity":28,"Duration":365518,"SoundDuration":365518,"Delta":21377918},{"NoteNumber":74,"Velocity":64,"Duration":96061,"SoundDuration":96061,"Delta":22474475},{"NoteNumber":70,"Velocity":64,"Duration":96061,"SoundDuration":96061,"Delta":22474475},{"NoteNumber":79,"Velocity":77,"Duration":96061,"SoundDuration":96061,"Delta":22474475},{"NoteNumber":55,"Velocity":73,"Duration":96061,"SoundDuration":96061,"Delta":22474475},{"NoteNumber":67,"Velocity":64,"Duration":94250,"SoundDuration":94250,"Delta":22858721},{"NoteNumber":43,"Velocity":66,"Duration":94250,"SoundDuration":94250,"Delta":22858721},{"NoteNumber":69,"Velocity":63,"Duration":96993,"SoundDuration":96993,"Delta":23612727},{"NoteNumber":66,"Velocity":63,"Duration":96993,"SoundDuration":96993,"Delta":23612727},{"NoteNumber":74,"Velocity":75,"Duration":96993,"SoundDuration":96993,"Delta":23612727},{"NoteNumber":50,"Velocity":73,"Duration":96993,"SoundDuration":96993,"Delta":23612727},{"NoteNumber":62,"Velocity":67,"Duration":94547,"SoundDuration":94547,"Delta":24000700},{"NoteNumber":38,"Velocity":66,"Duration":94547,"SoundDuration":94547,"Delta":24000700},{"NoteNumber":63,"Velocity":43,"Duration":744648,"SoundDuration":744648,"Delta":24757082},{"NoteNumber":51,"Velocity":20,"Duration":1127338,"SoundDuration":1127338,"Delta":24757082},{"NoteNumber":55,"Velocity":33,"Duration":186161,"SoundDuration":186161,"Delta":24757082},{"NoteNumber":58,"Velocity":23,"Duration":186161,"SoundDuration":186161,"Delta":24943244},{"NoteNumber":55,"Velocity":27,"Duration":186161,"SoundDuration":186161,"Delta":25129406},{"NoteNumber":58,"Velocity":22,"Duration":186162,"SoundDuration":186162,"Delta":25315568},{"NoteNumber":65,"Velocity":36,"Duration":102389,"SoundDuration":102389,"Delta":25501730},{"NoteNumber":55,"Velocity":26,"Duration":186161,"SoundDuration":186161,"Delta":25501730},{"NoteNumber":63,"Velocity":36,"Duration":102907,"SoundDuration":102907,"Delta":25594811},{"NoteNumber":62,"Velocity":36,"Duration":108090,"SoundDuration":108090,"Delta":25687892},{"NoteNumber":58,"Velocity":22,"Duration":196528,"SoundDuration":196528,"Delta":25687892},{"NoteNumber":63,"Velocity":36,"Duration":98264,"SoundDuration":98264,"Delta":25786156},{"NoteNumber":72,"Velocity":42,"Duration":185586,"SoundDuration":185586,"Delta":25884420},{"NoteNumber":50,"Velocity":20,"Duration":1131574,"SoundDuration":1131574,"Delta":25884420},{"NoteNumber":56,"Velocity":36,"Duration":185586,"SoundDuration":185586,"Delta":25884420},{"NoteNumber":70,"Velocity":37,"Duration":185586,"SoundDuration":185586,"Delta":26070006},{"NoteNumber":58,"Velocity":23,"Duration":185586,"SoundDuration":185586,"Delta":26070006},{"NoteNumber":70,"Velocity":43,"Duration":371171,"SoundDuration":371171,"Delta":26255592},{"NoteNumber":56,"Velocity":27,"Duration":185585,"SoundDuration":185585,"Delta":26255592},{"NoteNumber":58,"Velocity":23,"Duration":185586,"SoundDuration":185586,"Delta":26441178},{"NoteNumber":70,"Velocity":38,"Duration":389230,"SoundDuration":389230,"Delta":26626764},{"NoteNumber":56,"Velocity":27,"Duration":194615,"SoundDuration":194615,"Delta":26626764},{"NoteNumber":58,"Velocity":24,"Duration":194615,"SoundDuration":194615,"Delta":26821380},{"NoteNumber":70,"Velocity":39,"Duration":196546,"SoundDuration":196546,"Delta":27015995},{"NoteNumber":51,"Velocity":20,"Duration":1123583,"SoundDuration":1123583,"Delta":27015995},{"NoteNumber":55,"Velocity":33,"Duration":187324,"SoundDuration":187324,"Delta":27015995},{"NoteNumber":75,"Velocity":45,"Duration":193667,"SoundDuration":193667,"Delta":27203320},{"NoteNumber":58,"Velocity":23,"Duration":184445,"SoundDuration":184445,"Delta":27203320},{"NoteNumber":74,"Velocity":44,"Duration":193667,"SoundDuration":193667,"Delta":27387765},{"NoteNumber":55,"Velocity":27,"Duration":184445,"SoundDuration":184445,"Delta":27387765},{"NoteNumber":73,"Velocity":42,"Duration":193667,"SoundDuration":193667,"Delta":27572210},{"NoteNumber":58,"Velocity":23,"Duration":184445,"SoundDuration":184445,"Delta":27572210},{"NoteNumber":72,"Velocity":40,"Duration":194368,"SoundDuration":194368,"Delta":27756655},{"NoteNumber":55,"Velocity":27,"Duration":184445,"SoundDuration":184445,"Delta":27756655},{"NoteNumber":71,"Velocity":38,"Duration":207786,"SoundDuration":207786,"Delta":27941100},{"NoteNumber":58,"Velocity":25,"Duration":198478,"SoundDuration":198478,"Delta":27941100},{"NoteNumber":70,"Velocity":41,"Duration":372323,"SoundDuration":372323,"Delta":28139578},{"NoteNumber":50,"Velocity":20,"Duration":1116972,"SoundDuration":1116972,"Delta":28139578},{"NoteNumber":56,"Velocity":33,"Duration":186161,"SoundDuration":186161,"Delta":28139578},{"NoteNumber":58,"Velocity":27,"Duration":186161,"SoundDuration":186161,"Delta":28325740},{"NoteNumber":56,"Velocity":27,"Duration":186161,"SoundDuration":186161,"Delta":28511902},{"NoteNumber":58,"Velocity":24,"Duration":186162,"SoundDuration":186162,"Delta":28698064},{"NoteNumber":56,"Velocity":27,"Duration":186161,"SoundDuration":186161,"Delta":28884226},{"NoteNumber":58,"Velocity":23,"Duration":186161,"SoundDuration":186161,"Delta":29070388},{"NoteNumber":63,"Velocity":45,"Duration":744648,"SoundDuration":744648,"Delta":29256550},{"NoteNumber":51,"Velocity":21,"Duration":1127338,"SoundDuration":1127338,"Delta":29256550},{"NoteNumber":55,"Velocity":35,"Duration":186161,"SoundDuration":186161,"Delta":29256550},{"NoteNumber":58,"Velocity":24,"Duration":186161,"SoundDuration":186161,"Delta":29442712},{"NoteNumber":55,"Velocity":28,"Duration":186161,"SoundDuration":186161,"Delta":29628874},{"NoteNumber":58,"Velocity":23,"Duration":186162,"SoundDuration":186162,"Delta":29815036},{"NoteNumber":65,"Velocity":42,"Duration":102389,"SoundDuration":102389,"Delta":30001198},{"NoteNumber":55,"Velocity":27,"Duration":186161,"SoundDuration":186161,"Delta":30001198},{"NoteNumber":63,"Velocity":39,"Duration":102907,"SoundDuration":102907,"Delta":30094279},{"NoteNumber":62,"Velocity":42,"Duration":108090,"SoundDuration":108090,"Delta":30187360},{"NoteNumber":58,"Velocity":23,"Duration":196528,"SoundDuration":196528,"Delta":30187360},{"NoteNumber":63,"Velocity":40,"Duration":98264,"SoundDuration":98264,"Delta":30285624},{"NoteNumber":72,"Velocity":54,"Duration":194865,"SoundDuration":194865,"Delta":30383888},{"NoteNumber":50,"Velocity":21,"Duration":1131574,"SoundDuration":1131574,"Delta":30383888},{"NoteNumber":53,"Velocity":38,"Duration":185586,"SoundDuration":185586,"Delta":30383888},{"NoteNumber":71,"Velocity":48,"Duration":185586,"SoundDuration":185586,"Delta":30569474},{"NoteNumber":56,"Velocity":24,"Duration":185586,"SoundDuration":185586,"Delta":30569474},{"NoteNumber":71,"Velocity":53,"Duration":371171,"SoundDuration":371171,"Delta":30755060},{"NoteNumber":53,"Velocity":32,"Duration":185585,"SoundDuration":185585,"Delta":30755060},{"NoteNumber":56,"Velocity":28,"Duration":185586,"SoundDuration":185586,"Delta":30940646},{"NoteNumber":71,"Velocity":47,"Duration":389230,"SoundDuration":389230,"Delta":31126232},{"NoteNumber":53,"Velocity":32,"Duration":194615,"SoundDuration":194615,"Delta":31126232},{"NoteNumber":56,"Velocity":27,"Duration":194615,"SoundDuration":194615,"Delta":31320848},{"NoteNumber":72,"Velocity":50,"Duration":196546,"SoundDuration":196546,"Delta":31515463},{"NoteNumber":51,"Velocity":23,"Duration":1123582,"SoundDuration":1123582,"Delta":31515463},{"NoteNumber":55,"Velocity":37,"Duration":187324,"SoundDuration":187324,"Delta":31515463},{"NoteNumber":79,"Velocity":58,"Duration":193667,"SoundDuration":193667,"Delta":31702788},{"NoteNumber":60,"Velocity":32,"Duration":184445,"SoundDuration":184445,"Delta":31702788},{"NoteNumber":75,"Velocity":56,"Duration":193667,"SoundDuration":193667,"Delta":31887233},{"NoteNumber":55,"Velocity":34,"Duration":184444,"SoundDuration":184444,"Delta":31887233},{"NoteNumber":74,"Velocity":54,"Duration":193667,"SoundDuration":193667,"Delta":32071678},{"NoteNumber":60,"Velocity":29,"Duration":184445,"SoundDuration":184445,"Delta":32071678},{"NoteNumber":72,"Velocity":51,"Duration":194368,"SoundDuration":194368,"Delta":32256123},{"NoteNumber":55,"Velocity":30,"Duration":184444,"SoundDuration":184444,"Delta":32256123},{"NoteNumber":70,"Velocity":49,"Duration":207786,"SoundDuration":207786,"Delta":32440568},{"NoteNumber":60,"Velocity":28,"Duration":198478,"SoundDuration":198478,"Delta":32440568},{"NoteNumber":69,"Velocity":50,"Duration":372323,"SoundDuration":372323,"Delta":32639046},{"NoteNumber":51,"Velocity":23,"Duration":1116971,"SoundDuration":1116971,"Delta":32639046},{"NoteNumber":53,"Velocity":37,"Duration":186162,"SoundDuration":186162,"Delta":32639046},{"NoteNumber":60,"Velocity":30,"Duration":186161,"SoundDuration":186161,"Delta":32825208},{"NoteNumber":53,"Velocity":30,"Duration":186162,"SoundDuration":186162,"Delta":33011370},{"NoteNumber":60,"Velocity":27,"Duration":195470,"SoundDuration":195470,"Delta":33197532},{"NoteNumber":53,"Velocity":30,"Duration":186162,"SoundDuration":186162,"Delta":33383694},{"NoteNumber":60,"Velocity":26,"Duration":186161,"SoundDuration":186161,"Delta":33569856},{"NoteNumber":70,"Velocity":59,"Duration":196546,"SoundDuration":196546,"Delta":33756018},{"NoteNumber":50,"Velocity":27,"Duration":1123582,"SoundDuration":1123582,"Delta":33756018},{"NoteNumber":53,"Velocity":44,"Duration":187324,"SoundDuration":187324,"Delta":33756018},{"NoteNumber":86,"Velocity":62,"Duration":193667,"SoundDuration":193667,"Delta":33943343},{"NoteNumber":58,"Velocity":30,"Duration":184444,"SoundDuration":184444,"Delta":33943343},{"NoteNumber":82,"Velocity":61,"Duration":193667,"SoundDuration":193667,"Delta":34127788},{"NoteNumber":53,"Velocity":36,"Duration":184445,"SoundDuration":184445,"Delta":34127788},{"NoteNumber":81,"Velocity":60,"Duration":193667,"SoundDuration":193667,"Delta":34312233},{"NoteNumber":58,"Velocity":30,"Duration":184444,"SoundDuration":184444,"Delta":34312233},{"NoteNumber":79,"Velocity":58,"Duration":194368,"SoundDuration":194368,"Delta":34496678},{"NoteNumber":53,"Velocity":36,"Duration":184444,"SoundDuration":184444,"Delta":34496678},{"NoteNumber":77,"Velocity":57,"Duration":207786,"SoundDuration":207786,"Delta":34681123},{"NoteNumber":58,"Velocity":33,"Duration":198478,"SoundDuration":198478,"Delta":34681123},{"NoteNumber":76,"Velocity":62,"Duration":372323,"SoundDuration":372323,"Delta":34879601},{"NoteNumber":48,"Velocity":27,"Duration":1116971,"SoundDuration":1116971,"Delta":34879601},{"NoteNumber":55,"Velocity":44,"Duration":186162,"SoundDuration":186162,"Delta":34879601},{"NoteNumber":58,"Velocity":36,"Duration":186161,"SoundDuration":186161,"Delta":35065763},{"NoteNumber":55,"Velocity":36,"Duration":186162,"SoundDuration":186162,"Delta":35251925},{"NoteNumber":58,"Velocity":31,"Duration":195470,"SoundDuration":195470,"Delta":35438087},{"NoteNumber":55,"Velocity":36,"Duration":186162,"SoundDuration":186162,"Delta":35624249},{"NoteNumber":58,"Velocity":30,"Duration":186161,"SoundDuration":186161,"Delta":35810411},{"NoteNumber":77,"Velocity":52,"Duration":196546,"SoundDuration":196546,"Delta":35996573},{"NoteNumber":50,"Velocity":27,"Duration":1123582,"SoundDuration":1123582,"Delta":35996573},{"NoteNumber":53,"Velocity":44,"Duration":187324,"SoundDuration":187324,"Delta":35996573},{"NoteNumber":81,"Velocity":58,"Duration":193667,"SoundDuration":193667,"Delta":36183898},{"NoteNumber":57,"Velocity":28,"Duration":184444,"SoundDuration":184444,"Delta":36183898},{"NoteNumber":77,"Velocity":56,"Duration":193667,"SoundDuration":193667,"Delta":36368343},{"NoteNumber":53,"Velocity":36,"Duration":184445,"SoundDuration":184445,"Delta":36368343},{"NoteNumber":76,"Velocity":55,"Duration":193667,"SoundDuration":193667,"Delta":36552788},{"NoteNumber":57,"Velocity":28,"Duration":184444,"SoundDuration":184444,"Delta":36552788},{"NoteNumber":74,"Velocity":53,"Duration":194368,"SoundDuration":194368,"Delta":36737233},{"NoteNumber":53,"Velocity":35,"Duration":184444,"SoundDuration":184444,"Delta":36737233},{"NoteNumber":72,"Velocity":51,"Duration":207786,"SoundDuration":207786,"Delta":36921678},{"NoteNumber":57,"Velocity":27,"Duration":198478,"SoundDuration":198478,"Delta":36921678},{"NoteNumber":71,"Velocity":56,"Duration":372323,"SoundDuration":372323,"Delta":37120156},{"NoteNumber":55,"Velocity":37,"Duration":1118711,"SoundDuration":1118711,"Delta":37120156},{"NoteNumber":62,"Velocity":37,"Duration":186162,"SoundDuration":186162,"Delta":37120156},{"NoteNumber":65,"Velocity":36,"Duration":186161,"SoundDuration":186161,"Delta":37306318},{"NoteNumber":62,"Velocity":36,"Duration":186162,"SoundDuration":186162,"Delta":37492480},{"NoteNumber":65,"Velocity":30,"Duration":195470,"SoundDuration":195470,"Delta":37678642},{"NoteNumber":62,"Velocity":36,"Duration":186162,"SoundDuration":186162,"Delta":37864804},{"NoteNumber":65,"Velocity":30,"Duration":187901,"SoundDuration":187901,"Delta":38050966},{"NoteNumber":60,"Velocity":44,"Duration":383895,"SoundDuration":383895,"Delta":38238868},{"NoteNumber":64,"Velocity":44,"Duration":383895,"SoundDuration":383895,"Delta":38238868},{"NoteNumber":72,"Velocity":46,"Duration":96143,"SoundDuration":96143,"Delta":38335399},{"NoteNumber":71,"Velocity":49,"Duration":95836,"SoundDuration":95836,"Delta":38431542},{"NoteNumber":72,"Velocity":44,"Duration":95384,"SoundDuration":95384,"Delta":38527379},{"NoteNumber":74,"Velocity":49,"Duration":95077,"SoundDuration":95077,"Delta":38622764},{"NoteNumber":72,"Velocity":44,"Duration":94702,"SoundDuration":94702,"Delta":38717841},{"NoteNumber":71,"Velocity":49,"Duration":94404,"SoundDuration":94404,"Delta":38812543},{"NoteNumber":72,"Velocity":44,"Duration":94034,"SoundDuration":94034,"Delta":38906947},{"NoteNumber":70,"Velocity":50,"Duration":187319,"SoundDuration":187319,"Delta":39000982},{"NoteNumber":72,"Velocity":49,"Duration":93652,"SoundDuration":93652,"Delta":39094649},{"NoteNumber":76,"Velocity":54,"Duration":93370,"SoundDuration":93370,"Delta":39188301},{"NoteNumber":72,"Velocity":49,"Duration":93361,"SoundDuration":93361,"Delta":39281672},{"NoteNumber":69,"Velocity":55,"Duration":186162,"SoundDuration":186162,"Delta":39375033},{"NoteNumber":72,"Velocity":53,"Duration":93081,"SoundDuration":93081,"Delta":39468114},{"NoteNumber":77,"Velocity":57,"Duration":93080,"SoundDuration":93080,"Delta":39561195},{"NoteNumber":72,"Velocity":52,"Duration":93080,"SoundDuration":93080,"Delta":39654276},{"NoteNumber":64,"Velocity":59,"Duration":186162,"SoundDuration":186162,"Delta":39747357},{"NoteNumber":72,"Velocity":55,"Duration":93081,"SoundDuration":93081,"Delta":39840438},{"NoteNumber":82,"Velocity":61,"Duration":93080,"SoundDuration":93080,"Delta":39933519},{"NoteNumber":72,"Velocity":57,"Duration":93080,"SoundDuration":93080,"Delta":40026600},{"NoteNumber":65,"Velocity":57,"Duration":186162,"SoundDuration":186162,"Delta":40119681},{"NoteNumber":72,"Velocity":57,"Duration":93080,"SoundDuration":93080,"Delta":40212762},{"NoteNumber":81,"Velocity":64,"Duration":99239,"SoundDuration":99239,"Delta":40305843},{"NoteNumber":72,"Velocity":57,"Duration":99239,"SoundDuration":99239,"Delta":40405082},{"NoteNumber":79,"Velocity":65,"Duration":94415,"SoundDuration":94415,"Delta":40504322},{"NoteNumber":60,"Velocity":62,"Duration":373658,"SoundDuration":373658,"Delta":40504322},{"NoteNumber":76,"Velocity":60,"Duration":93080,"SoundDuration":93080,"Delta":40598737},{"NoteNumber":74,"Velocity":65,"Duration":93080,"SoundDuration":93080,"Delta":40691818},{"NoteNumber":72,"Velocity":60,"Duration":93081,"SoundDuration":93081,"Delta":40784899},{"NoteNumber":71,"Velocity":57,"Duration":93080,"SoundDuration":93080,"Delta":40877980},{"NoteNumber":72,"Velocity":59,"Duration":93080,"SoundDuration":93080,"Delta":40971061},{"NoteNumber":74,"Velocity":60,"Duration":93080,"SoundDuration":93080,"Delta":41064142},{"NoteNumber":72,"Velocity":56,"Duration":94067,"SoundDuration":94067,"Delta":41157223},{"NoteNumber":70,"Velocity":50,"Duration":191464,"SoundDuration":191464,"Delta":41251290},{"NoteNumber":72,"Velocity":49,"Duration":95683,"SoundDuration":95683,"Delta":41347071},{"NoteNumber":76,"Velocity":53,"Duration":95450,"SoundDuration":95450,"Delta":41442755},{"NoteNumber":72,"Velocity":49,"Duration":95228,"SoundDuration":95228,"Delta":41538205},{"NoteNumber":69,"Velocity":58,"Duration":189924,"SoundDuration":189924,"Delta":41633433},{"NoteNumber":72,"Velocity":52,"Duration":94846,"SoundDuration":94846,"Delta":41728510},{"NoteNumber":77,"Velocity":58,"Duration":94702,"SoundDuration":94702,"Delta":41823357},{"NoteNumber":72,"Velocity":54,"Duration":94547,"SoundDuration":94547,"Delta":41918059},{"NoteNumber":64,"Velocity":62,"Duration":188363,"SoundDuration":188363,"Delta":42012607},{"NoteNumber":72,"Velocity":55,"Duration":94108,"SoundDuration":94108,"Delta":42106863},{"NoteNumber":82,"Velocity":61,"Duration":93955,"SoundDuration":93955,"Delta":42200971},{"NoteNumber":72,"Velocity":55,"Duration":93438,"SoundDuration":93438,"Delta":42294926},{"NoteNumber":65,"Velocity":56,"Duration":186369,"SoundDuration":186369,"Delta":42388365},{"NoteNumber":72,"Velocity":49,"Duration":93080,"SoundDuration":93080,"Delta":42481654},{"NoteNumber":81,"Velocity":68,"Duration":96993,"SoundDuration":96993,"Delta":42574735},{"NoteNumber":72,"Velocity":62,"Duration":95722,"SoundDuration":95722,"Delta":42671728},{"NoteNumber":79,"Velocity":73,"Duration":92793,"SoundDuration":92793,"Delta":42767450},{"NoteNumber":60,"Velocity":61,"Duration":371105,"SoundDuration":371105,"Delta":42767450},{"NoteNumber":84,"Velocity":62,"Duration":92793,"SoundDuration":92793,"Delta":42860243},{"NoteNumber":79,"Velocity":69,"Duration":92793,"SoundDuration":92793,"Delta":42953036},{"NoteNumber":76,"Velocity":57,"Duration":92726,"SoundDuration":92726,"Delta":43045829},{"NoteNumber":72,"Velocity":67,"Duration":92645,"SoundDuration":92645,"Delta":43138555},{"NoteNumber":79,"Velocity":55,"Duration":93143,"SoundDuration":93143,"Delta":43231201},{"NoteNumber":76,"Velocity":61,"Duration":93584,"SoundDuration":93584,"Delta":43324344},{"NoteNumber":72,"Velocity":54,"Duration":94093,"SoundDuration":94093,"Delta":43417929},{"NoteNumber":67,"Velocity":63,"Duration":94538,"SoundDuration":94538,"Delta":43512022},{"NoteNumber":72,"Velocity":55,"Duration":94992,"SoundDuration":94992,"Delta":43606561},{"NoteNumber":60,"Velocity":47,"Duration":94992,"SoundDuration":94992,"Delta":43606561},{"NoteNumber":67,"Velocity":65,"Duration":95592,"SoundDuration":95592,"Delta":43701553},{"NoteNumber":55,"Velocity":54,"Duration":95592,"SoundDuration":95592,"Delta":43701553},{"NoteNumber":64,"Velocity":59,"Duration":103698,"SoundDuration":103698,"Delta":43797145},{"NoteNumber":52,"Velocity":47,"Duration":103698,"SoundDuration":103698,"Delta":43797145},{"NoteNumber":60,"Velocity":85,"Duration":100569,"SoundDuration":100569,"Delta":43900844},{"NoteNumber":48,"Velocity":69,"Duration":100569,"SoundDuration":100569,"Delta":43900844},{"NoteNumber":67,"Velocity":62,"Duration":443950,"SoundDuration":443950,"Delta":44303124},{"NoteNumber":64,"Velocity":62,"Duration":443950,"SoundDuration":443950,"Delta":44303124},{"NoteNumber":72,"Velocity":73,"Duration":443950,"SoundDuration":443950,"Delta":44303124},{"NoteNumber":36,"Velocity":59,"Duration":443950,"SoundDuration":443950,"Delta":44303124},{"NoteNumber":53,"Velocity":34,"Duration":766521,"SoundDuration":766521,"Delta":45191026},{"NoteNumber":48,"Velocity":30,"Duration":413364,"SoundDuration":413364,"Delta":45940324},{"NoteNumber":45,"Velocity":34,"Duration":759275,"SoundDuration":759275,"Delta":46353689},{"NoteNumber":48,"Velocity":32,"Duration":406365,"SoundDuration":406365,"Delta":47096033},{"NoteNumber":53,"Velocity":34,"Duration":752601,"SoundDuration":752601,"Delta":47502399},{"NoteNumber":84,"Velocity":45,"Duration":45829,"SoundDuration":45829,"Delta":47688561},{"NoteNumber":84,"Velocity":49,"Duration":45829,"SoundDuration":45829,"Delta":47871879},{"NoteNumber":84,"Velocity":43,"Duration":45829,"SoundDuration":45829,"Delta":48055197},{"NoteNumber":84,"Velocity":46,"Duration":49455,"SoundDuration":49455,"Delta":48238515},{"NoteNumber":57,"Velocity":36,"Duration":395648,"SoundDuration":395648,"Delta":48238515},{"NoteNumber":84,"Velocity":40,"Duration":49456,"SoundDuration":49456,"Delta":48436339},{"NoteNumber":86,"Velocity":45,"Duration":196078,"SoundDuration":196078,"Delta":48634163},{"NoteNumber":60,"Velocity":38,"Duration":373483,"SoundDuration":373483,"Delta":48634163},{"NoteNumber":84,"Velocity":40,"Duration":196078,"SoundDuration":196078,"Delta":48820904},{"NoteNumber":82,"Velocity":43,"Duration":196078,"SoundDuration":196078,"Delta":49007646},{"NoteNumber":81,"Velocity":40,"Duration":196137,"SoundDuration":196137,"Delta":49194387},{"NoteNumber":79,"Velocity":45,"Duration":197579,"SoundDuration":197579,"Delta":49381129},{"NoteNumber":77,"Velocity":39,"Duration":193361,"SoundDuration":193361,"Delta":49569040},{"NoteNumber":77,"Velocity":41,"Duration":48340,"SoundDuration":48340,"Delta":49762401},{"NoteNumber":58,"Velocity":34,"Duration":772558,"SoundDuration":772558,"Delta":49762401},{"NoteNumber":79,"Velocity":39,"Duration":48340,"SoundDuration":48340,"Delta":49810742},{"NoteNumber":77,"Velocity":49,"Duration":96680,"SoundDuration":96680,"Delta":49859082},{"NoteNumber":76,"Velocity":44,"Duration":181080,"SoundDuration":181080,"Delta":49955763},{"NoteNumber":76,"Velocity":46,"Duration":374648,"SoundDuration":374648,"Delta":50143087},{"NoteNumber":55,"Velocity":30,"Duration":413364,"SoundDuration":413364,"Delta":50517736},{"NoteNumber":52,"Velocity":34,"Duration":759275,"SoundDuration":759275,"Delta":50931101},{"NoteNumber":55,"Velocity":32,"Duration":406365,"SoundDuration":406365,"Delta":51673445},{"NoteNumber":58,"Velocity":34,"Duration":752601,"SoundDuration":752601,"Delta":52079811},{"NoteNumber":82,"Velocity":45,"Duration":45829,"SoundDuration":45829,"Delta":52265973},{"NoteNumber":82,"Velocity":48,"Duration":45829,"SoundDuration":45829,"Delta":52449291},{"NoteNumber":82,"Velocity":42,"Duration":45829,"SoundDuration":45829,"Delta":52632609},{"NoteNumber":82,"Velocity":44,"Duration":49455,"SoundDuration":49455,"Delta":52815927},{"NoteNumber":64,"Velocity":36,"Duration":395648,"SoundDuration":395648,"Delta":52815927},{"NoteNumber":82,"Velocity":40,"Duration":49456,"SoundDuration":49456,"Delta":53013751},{"NoteNumber":84,"Velocity":45,"Duration":196078,"SoundDuration":196078,"Delta":53211575},{"NoteNumber":67,"Velocity":38,"Duration":373483,"SoundDuration":373483,"Delta":53211575},{"NoteNumber":82,"Velocity":40,"Duration":196078,"SoundDuration":196078,"Delta":53398317},{"NoteNumber":81,"Velocity":40,"Duration":196078,"SoundDuration":196078,"Delta":53585058},{"NoteNumber":79,"Velocity":40,"Duration":196078,"SoundDuration":196078,"Delta":53771800},{"NoteNumber":77,"Velocity":45,"Duration":197111,"SoundDuration":197111,"Delta":53958541},{"NoteNumber":76,"Velocity":39,"Duration":207397,"SoundDuration":207397,"Delta":54145283},{"NoteNumber":77,"Velocity":47,"Duration":370027,"SoundDuration":370027,"Delta":54352680},{"NoteNumber":69,"Velocity":35,"Duration":185014,"SoundDuration":185014,"Delta":54352680},{"NoteNumber":72,"Velocity":28,"Duration":185013,"SoundDuration":185013,"Delta":54537694},{"NoteNumber":69,"Velocity":35,"Duration":185014,"SoundDuration":185014,"Delta":54722708},{"NoteNumber":81,"Velocity":47,"Duration":191897,"SoundDuration":191897,"Delta":54907722},{"NoteNumber":72,"Velocity":25,"Duration":182759,"SoundDuration":182759,"Delta":54907722},{"NoteNumber":79,"Velocity":45,"Duration":192304,"SoundDuration":192304,"Delta":55090481},{"NoteNumber":69,"Velocity":32,"Duration":182759,"SoundDuration":182759,"Delta":55090481},{"NoteNumber":77,"Velocity":40,"Duration":200151,"SoundDuration":200151,"Delta":55273241},{"NoteNumber":72,"Velocity":24,"Duration":190900,"SoundDuration":190900,"Delta":55273241},{"NoteNumber":76,"Velocity":47,"Duration":370027,"SoundDuration":370027,"Delta":55464141},{"NoteNumber":70,"Velocity":35,"Duration":185014,"SoundDuration":185014,"Delta":55464141},{"NoteNumber":72,"Velocity":31,"Duration":185013,"SoundDuration":185013,"Delta":55649155},{"NoteNumber":70,"Velocity":35,"Duration":185014,"SoundDuration":185014,"Delta":55834169},{"NoteNumber":86,"Velocity":52,"Duration":191897,"SoundDuration":191897,"Delta":56019183},{"NoteNumber":72,"Velocity":26,"Duration":182759,"SoundDuration":182759,"Delta":56019183},{"NoteNumber":84,"Velocity":47,"Duration":192304,"SoundDuration":192304,"Delta":56201943},{"NoteNumber":70,"Velocity":33,"Duration":182759,"SoundDuration":182759,"Delta":56201943},{"NoteNumber":76,"Velocity":42,"Duration":200122,"SoundDuration":200122,"Delta":56384702},{"NoteNumber":72,"Velocity":29,"Duration":190900,"SoundDuration":190900,"Delta":56384702},{"NoteNumber":77,"Velocity":47,"Duration":368890,"SoundDuration":368890,"Delta":56575603},{"NoteNumber":69,"Velocity":35,"Duration":184444,"SoundDuration":184444,"Delta":56575603},{"NoteNumber":72,"Velocity":30,"Duration":184445,"SoundDuration":184445,"Delta":56760048},{"NoteNumber":69,"Velocity":32,"Duration":184444,"SoundDuration":184444,"Delta":56944493},{"NoteNumber":81,"Velocity":47,"Duration":191314,"SoundDuration":191314,"Delta":57128938},{"NoteNumber":72,"Velocity":24,"Duration":182204,"SoundDuration":182204,"Delta":57128938},{"NoteNumber":79,"Velocity":45,"Duration":191810,"SoundDuration":191810,"Delta":57311142},{"NoteNumber":69,"Velocity":32,"Duration":182204,"SoundDuration":182204,"Delta":57311142},{"NoteNumber":77,"Velocity":40,"Duration":201345,"SoundDuration":201345,"Delta":57493347},{"NoteNumber":72,"Velocity":25,"Duration":192123,"SoundDuration":192123,"Delta":57493347},{"NoteNumber":76,"Velocity":47,"Duration":368890,"SoundDuration":368890,"Delta":57685470},{"NoteNumber":70,"Velocity":35,"Duration":184444,"SoundDuration":184444,"Delta":57685470},{"NoteNumber":72,"Velocity":31,"Duration":184445,"SoundDuration":184445,"Delta":57869915},{"NoteNumber":70,"Velocity":35,"Duration":184444,"SoundDuration":184444,"Delta":58054360},{"NoteNumber":86,"Velocity":52,"Duration":191314,"SoundDuration":191314,"Delta":58238805},{"NoteNumber":72,"Velocity":26,"Duration":182204,"SoundDuration":182204,"Delta":58238805},{"NoteNumber":84,"Velocity":47,"Duration":191719,"SoundDuration":191719,"Delta":58421009},{"NoteNumber":70,"Velocity":33,"Duration":182204,"SoundDuration":182204,"Delta":58421009},{"NoteNumber":76,"Velocity":42,"Duration":199517,"SoundDuration":199517,"Delta":58603214},{"NoteNumber":72,"Velocity":29,"Duration":190294,"SoundDuration":190294,"Delta":58603214},{"NoteNumber":77,"Velocity":47,"Duration":368890,"SoundDuration":368890,"Delta":58793509},{"NoteNumber":69,"Velocity":35,"Duration":184444,"SoundDuration":184444,"Delta":58793509},{"NoteNumber":72,"Velocity":30,"Duration":184445,"SoundDuration":184445,"Delta":58977954},{"NoteNumber":69,"Velocity":32,"Duration":189095,"SoundDuration":189095,"Delta":59162399},{"NoteNumber":84,"Velocity":55,"Duration":190159,"SoundDuration":190159,"Delta":59351494},{"NoteNumber":72,"Velocity":28,"Duration":181104,"SoundDuration":181104,"Delta":59351494},{"NoteNumber":81,"Velocity":53,"Duration":190679,"SoundDuration":190679,"Delta":59532599},{"NoteNumber":69,"Velocity":38,"Duration":181104,"SoundDuration":181104,"Delta":59532599},{"NoteNumber":79,"Velocity":50,"Duration":200731,"SoundDuration":200731,"Delta":59713703},{"NoteNumber":72,"Velocity":31,"Duration":191509,"SoundDuration":191509,"Delta":59713703},{"NoteNumber":78,"Velocity":56,"Duration":368890,"SoundDuration":368890,"Delta":59905213},{"NoteNumber":62,"Velocity":40,"Duration":1109867,"SoundDuration":1109867,"Delta":59905213},{"NoteNumber":69,"Velocity":40,"Duration":184444,"SoundDuration":184444,"Delta":59905213},{"NoteNumber":72,"Velocity":34,"Duration":184445,"SoundDuration":184445,"Delta":60089658},{"NoteNumber":69,"Velocity":38,"Duration":184444,"SoundDuration":184444,"Delta":60274103},{"NoteNumber":87,"Velocity":58,"Duration":191314,"SoundDuration":191314,"Delta":60458548},{"NoteNumber":72,"Velocity":32,"Duration":182204,"SoundDuration":182204,"Delta":60458548},{"NoteNumber":86,"Velocity":52,"Duration":191810,"SoundDuration":191810,"Delta":60640752},{"NoteNumber":69,"Velocity":39,"Duration":182204,"SoundDuration":182204,"Delta":60640752},{"NoteNumber":78,"Velocity":48,"Duration":201317,"SoundDuration":201317,"Delta":60822957},{"NoteNumber":72,"Velocity":32,"Duration":192123,"SoundDuration":192123,"Delta":60822957},{"NoteNumber":81,"Velocity":56,"Duration":193074,"SoundDuration":193074,"Delta":61015080},{"NoteNumber":67,"Velocity":39,"Duration":367759,"SoundDuration":367759,"Delta":61015080},{"NoteNumber":70,"Velocity":39,"Duration":367759,"SoundDuration":367759,"Delta":61015080},{"NoteNumber":79,"Velocity":51,"Duration":192935,"SoundDuration":192935,"Delta":61198960},{"NoteNumber":84,"Velocity":55,"Duration":190500,"SoundDuration":190500,"Delta":61382840},{"NoteNumber":72,"Velocity":35,"Duration":739215,"SoundDuration":739215,"Delta":61382840},{"NoteNumber":64,"Velocity":35,"Duration":369015,"SoundDuration":369015,"Delta":61382840},{"NoteNumber":83,"Velocity":51,"Duration":196966,"SoundDuration":196966,"Delta":61563944},{"NoteNumber":82,"Velocity":50,"Duration":190559,"SoundDuration":190559,"Delta":61751855},{"NoteNumber":65,"Velocity":35,"Duration":370200,"SoundDuration":370200,"Delta":61751855},{"NoteNumber":81,"Velocity":49,"Duration":198374,"SoundDuration":198374,"Delta":61932960},{"NoteNumber":79,"Velocity":54,"Duration":278379,"SoundDuration":278379,"Delta":62122055},{"NoteNumber":58,"Velocity":43,"Duration":377618,"SoundDuration":377618,"Delta":62122055},{"NoteNumber":70,"Velocity":43,"Duration":377618,"SoundDuration":377618,"Delta":62122055},{"NoteNumber":81,"Velocity":48,"Duration":99239,"SoundDuration":99239,"Delta":62400434},{"NoteNumber":77,"Velocity":54,"Duration":380589,"SoundDuration":380589,"Delta":62499673},{"NoteNumber":60,"Velocity":40,"Duration":760987,"SoundDuration":760987,"Delta":62499673},{"NoteNumber":69,"Velocity":40,"Duration":380589,"SoundDuration":380589,"Delta":62499673},{"NoteNumber":76,"Velocity":50,"Duration":63431,"SoundDuration":63431,"Delta":62880263},{"NoteNumber":67,"Velocity":40,"Duration":380397,"SoundDuration":380397,"Delta":62880263},{"NoteNumber":77,"Velocity":44,"Duration":63431,"SoundDuration":63431,"Delta":62943695},{"NoteNumber":76,"Velocity":50,"Duration":63431,"SoundDuration":63431,"Delta":63007127},{"NoteNumber":77,"Velocity":44,"Duration":47573,"SoundDuration":47573,"Delta":63070558},{"NoteNumber":76,"Velocity":50,"Duration":47573,"SoundDuration":47573,"Delta":63118132},{"NoteNumber":74,"Velocity":42,"Duration":47573,"SoundDuration":47573,"Delta":63165706},{"NoteNumber":76,"Velocity":45,"Duration":47381,"SoundDuration":47381,"Delta":63213280},{"NoteNumber":77,"Velocity":49,"Duration":93370,"SoundDuration":93370,"Delta":63260661},{"NoteNumber":65,"Velocity":40,"Duration":373161,"SoundDuration":373161,"Delta":63260661},{"NoteNumber":72,"Velocity":46,"Duration":93370,"SoundDuration":93370,"Delta":63354032},{"NoteNumber":71,"Velocity":49,"Duration":93339,"SoundDuration":93339,"Delta":63447402},{"NoteNumber":72,"Velocity":44,"Duration":93081,"SoundDuration":93081,"Delta":63540742},{"NoteNumber":74,"Velocity":49,"Duration":93080,"SoundDuration":93080,"Delta":63633823},{"NoteNumber":72,"Velocity":44,"Duration":93080,"SoundDuration":93080,"Delta":63726904},{"NoteNumber":71,"Velocity":49,"Duration":91102,"SoundDuration":91102,"Delta":63819985},{"NoteNumber":57,"Velocity":49,"Duration":182204,"SoundDuration":182204,"Delta":63819985},{"NoteNumber":72,"Velocity":44,"Duration":91102,"SoundDuration":91102,"Delta":63911087},{"NoteNumber":70,"Velocity":49,"Duration":91102,"SoundDuration":91102,"Delta":64002189},{"NoteNumber":55,"Velocity":55,"Duration":182280,"SoundDuration":182280,"Delta":64002189},{"NoteNumber":72,"Velocity":49,"Duration":91177,"SoundDuration":91177,"Delta":64093292},{"NoteNumber":69,"Velocity":54,"Duration":95450,"SoundDuration":95450,"Delta":64184469},{"NoteNumber":53,"Velocity":48,"Duration":190821,"SoundDuration":190821,"Delta":64184469},{"NoteNumber":72,"Velocity":49,"Duration":95371,"SoundDuration":95371,"Delta":64279920},{"NoteNumber":67,"Velocity":49,"Duration":93370,"SoundDuration":93370,"Delta":64375291},{"NoteNumber":52,"Velocity":48,"Duration":373161,"SoundDuration":373161,"Delta":64375291},{"NoteNumber":72,"Velocity":46,"Duration":93370,"SoundDuration":93370,"Delta":64468662},{"NoteNumber":71,"Velocity":49,"Duration":93339,"SoundDuration":93339,"Delta":64562032},{"NoteNumber":72,"Velocity":44,"Duration":93080,"SoundDuration":93080,"Delta":64655372},{"NoteNumber":74,"Velocity":49,"Duration":93080,"SoundDuration":93080,"Delta":64748453},{"NoteNumber":72,"Velocity":44,"Duration":93081,"SoundDuration":93081,"Delta":64841534},{"NoteNumber":71,"Velocity":49,"Duration":91102,"SoundDuration":91102,"Delta":64934615},{"NoteNumber":62,"Velocity":45,"Duration":182204,"SoundDuration":182204,"Delta":64934615},{"NoteNumber":72,"Velocity":44,"Duration":91102,"SoundDuration":91102,"Delta":65025717},{"NoteNumber":82,"Velocity":49,"Duration":91102,"SoundDuration":91102,"Delta":65116819},{"NoteNumber":60,"Velocity":50,"Duration":182280,"SoundDuration":182280,"Delta":65116819},{"NoteNumber":72,"Velocity":49,"Duration":91177,"SoundDuration":91177,"Delta":65207922},{"NoteNumber":82,"Velocity":54,"Duration":95450,"SoundDuration":95450,"Delta":65299099},{"NoteNumber":52,"Velocity":45,"Duration":190821,"SoundDuration":190821,"Delta":65299099},{"NoteNumber":72,"Velocity":49,"Duration":95371,"SoundDuration":95371,"Delta":65394550},{"NoteNumber":81,"Velocity":49,"Duration":93370,"SoundDuration":93370,"Delta":65489921},{"NoteNumber":53,"Velocity":40,"Duration":373161,"SoundDuration":373161,"Delta":65489921},{"NoteNumber":72,"Velocity":46,"Duration":93370,"SoundDuration":93370,"Delta":65583292},{"NoteNumber":71,"Velocity":49,"Duration":93339,"SoundDuration":93339,"Delta":65676662},{"NoteNumber":72,"Velocity":44,"Duration":93080,"SoundDuration":93080,"Delta":65770002},{"NoteNumber":74,"Velocity":49,"Duration":93080,"SoundDuration":93080,"Delta":65863083},{"NoteNumber":72,"Velocity":44,"Duration":93081,"SoundDuration":93081,"Delta":65956164},{"NoteNumber":71,"Velocity":49,"Duration":91102,"SoundDuration":91102,"Delta":66049245},{"NoteNumber":57,"Velocity":50,"Duration":182204,"SoundDuration":182204,"Delta":66049245},{"NoteNumber":72,"Velocity":44,"Duration":91102,"SoundDuration":91102,"Delta":66140347},{"NoteNumber":70,"Velocity":49,"Duration":91102,"SoundDuration":91102,"Delta":66231449},{"NoteNumber":55,"Velocity":55,"Duration":182280,"SoundDuration":182280,"Delta":66231449},{"NoteNumber":72,"Velocity":49,"Duration":91177,"SoundDuration":91177,"Delta":66322552},{"NoteNumber":69,"Velocity":54,"Duration":95450,"SoundDuration":95450,"Delta":66413729},{"NoteNumber":53,"Velocity":47,"Duration":190821,"SoundDuration":190821,"Delta":66413729},{"NoteNumber":72,"Velocity":49,"Duration":95371,"SoundDuration":95371,"Delta":66509180},{"NoteNumber":67,"Velocity":49,"Duration":93370,"SoundDuration":93370,"Delta":66604551},{"NoteNumber":52,"Velocity":47,"Duration":373161,"SoundDuration":373161,"Delta":66604551},{"NoteNumber":72,"Velocity":46,"Duration":93370,"SoundDuration":93370,"Delta":66697922},{"NoteNumber":71,"Velocity":49,"Duration":93339,"SoundDuration":93339,"Delta":66791292},{"NoteNumber":72,"Velocity":44,"Duration":93080,"SoundDuration":93080,"Delta":66884632},{"NoteNumber":74,"Velocity":49,"Duration":93080,"SoundDuration":93080,"Delta":66977713},{"NoteNumber":72,"Velocity":44,"Duration":93081,"SoundDuration":93081,"Delta":67070794},{"NoteNumber":71,"Velocity":49,"Duration":91102,"SoundDuration":91102,"Delta":67163875},{"NoteNumber":62,"Velocity":45,"Duration":182204,"SoundDuration":182204,"Delta":67163875},{"NoteNumber":72,"Velocity":44,"Duration":91102,"SoundDuration":91102,"Delta":67254977},{"NoteNumber":82,"Velocity":49,"Duration":91102,"SoundDuration":91102,"Delta":67346079},{"NoteNumber":60,"Velocity":50,"Duration":182280,"SoundDuration":182280,"Delta":67346079},{"NoteNumber":72,"Velocity":49,"Duration":91177,"SoundDuration":91177,"Delta":67437182},{"NoteNumber":82,"Velocity":54,"Duration":95450,"SoundDuration":95450,"Delta":67528359},{"NoteNumber":52,"Velocity":45,"Duration":190821,"SoundDuration":190821,"Delta":67528359},{"NoteNumber":72,"Velocity":49,"Duration":95371,"SoundDuration":95371,"Delta":67623810},{"NoteNumber":81,"Velocity":49,"Duration":93370,"SoundDuration":93370,"Delta":67719181},{"NoteNumber":53,"Velocity":40,"Duration":373161,"SoundDuration":373161,"Delta":67719181},{"NoteNumber":72,"Velocity":46,"Duration":93370,"SoundDuration":93370,"Delta":67812552},{"NoteNumber":71,"Velocity":49,"Duration":93339,"SoundDuration":93339,"Delta":67905922},{"NoteNumber":72,"Velocity":44,"Duration":93080,"SoundDuration":93080,"Delta":67999262},{"NoteNumber":74,"Velocity":49,"Duration":93080,"SoundDuration":93080,"Delta":68092343},{"NoteNumber":72,"Velocity":44,"Duration":93081,"SoundDuration":93081,"Delta":68185424},{"NoteNumber":71,"Velocity":49,"Duration":91102,"SoundDuration":91102,"Delta":68278505},{"NoteNumber":60,"Velocity":47,"Duration":182204,"SoundDuration":182204,"Delta":68278505},{"NoteNumber":72,"Velocity":44,"Duration":91102,"SoundDuration":91102,"Delta":68369607},{"NoteNumber":75,"Velocity":49,"Duration":91939,"SoundDuration":91939,"Delta":68460709},{"NoteNumber":57,"Velocity":52,"Duration":183927,"SoundDuration":183927,"Delta":68460709},{"NoteNumber":72,"Velocity":49,"Duration":91987,"SoundDuration":91987,"Delta":68552649},{"NoteNumber":70,"Velocity":54,"Duration":95450,"SoundDuration":95450,"Delta":68644637},{"NoteNumber":55,"Velocity":47,"Duration":190821,"SoundDuration":190821,"Delta":68644637},{"NoteNumber":72,"Velocity":49,"Duration":95371,"SoundDuration":95371,"Delta":68740087},{"NoteNumber":69,"Velocity":49,"Duration":93370,"SoundDuration":93370,"Delta":68835458},{"NoteNumber":54,"Velocity":44,"Duration":373161,"SoundDuration":373161,"Delta":68835458},{"NoteNumber":74,"Velocity":46,"Duration":93370,"SoundDuration":93370,"Delta":68928829},{"NoteNumber":73,"Velocity":49,"Duration":93339,"SoundDuration":93339,"Delta":69022200},{"NoteNumber":74,"Velocity":44,"Duration":93080,"SoundDuration":93080,"Delta":69115539},{"NoteNumber":76,"Velocity":49,"Duration":96369,"SoundDuration":96369,"Delta":69208620},{"NoteNumber":74,"Velocity":44,"Duration":96370,"SoundDuration":96370,"Delta":69304990},{"NoteNumber":73,"Velocity":52,"Duration":91102,"SoundDuration":91102,"Delta":69401360},{"NoteNumber":63,"Velocity":45,"Duration":182204,"SoundDuration":182204,"Delta":69401360},{"NoteNumber":74,"Velocity":44,"Duration":91102,"SoundDuration":91102,"Delta":69492463},{"NoteNumber":84,"Velocity":55,"Duration":92506,"SoundDuration":92506,"Delta":69583565},{"NoteNumber":62,"Velocity":50,"Duration":185042,"SoundDuration":185042,"Delta":69583565},{"NoteNumber":74,"Velocity":49,"Duration":92535,"SoundDuration":92535,"Delta":69676072},{"NoteNumber":84,"Velocity":57,"Duration":96369,"SoundDuration":96369,"Delta":69768608},{"NoteNumber":54,"Velocity":45,"Duration":192630,"SoundDuration":192630,"Delta":69768608},{"NoteNumber":74,"Velocity":49,"Duration":96260,"SoundDuration":96260,"Delta":69864978},{"NoteNumber":83,"Velocity":62,"Duration":367798,"SoundDuration":367798,"Delta":69961238},{"NoteNumber":55,"Velocity":42,"Duration":91836,"SoundDuration":91836,"Delta":69961238},{"NoteNumber":62,"Velocity":33,"Duration":91764,"SoundDuration":91764,"Delta":70053075},{"NoteNumber":59,"Velocity":36,"Duration":91975,"SoundDuration":91975,"Delta":70144839},{"NoteNumber":62,"Velocity":33,"Duration":92222,"SoundDuration":92222,"Delta":70236814},{"NoteNumber":82,"Velocity":60,"Duration":370924,"SoundDuration":370924,"Delta":70329037},{"NoteNumber":52,"Velocity":38,"Duration":92400,"SoundDuration":92400,"Delta":70329037},{"NoteNumber":61,"Velocity":33,"Duration":92614,"SoundDuration":92614,"Delta":70421437},{"NoteNumber":55,"Velocity":36,"Duration":92828,"SoundDuration":92828,"Delta":70514052},{"NoteNumber":61,"Velocity":33,"Duration":93080,"SoundDuration":93080,"Delta":70606881},{"NoteNumber":81,"Velocity":57,"Duration":374396,"SoundDuration":374396,"Delta":70699962},{"NoteNumber":53,"Velocity":39,"Duration":93262,"SoundDuration":93262,"Delta":70699962},{"NoteNumber":60,"Velocity":33,"Duration":93480,"SoundDuration":93480,"Delta":70793224},{"NoteNumber":57,"Velocity":37,"Duration":93698,"SoundDuration":93698,"Delta":70886704},{"NoteNumber":60,"Velocity":37,"Duration":93955,"SoundDuration":93955,"Delta":70980403},{"NoteNumber":79,"Velocity":60,"Duration":92793,"SoundDuration":92793,"Delta":71074358},{"NoteNumber":46,"Velocity":31,"Duration":378279,"SoundDuration":378279,"Delta":71074358},{"NoteNumber":58,"Velocity":37,"Duration":378279,"SoundDuration":378279,"Delta":71074358},{"NoteNumber":86,"Velocity":52,"Duration":92793,"SoundDuration":92793,"Delta":71167151},{"NoteNumber":82,"Velocity":52,"Duration":92793,"SoundDuration":92793,"Delta":71259944},{"NoteNumber":79,"Velocity":52,"Duration":99900,"SoundDuration":99900,"Delta":71352737},{"NoteNumber":77,"Velocity":62,"Duration":92793,"SoundDuration":92793,"Delta":71452637},{"NoteNumber":48,"Velocity":31,"Duration":371172,"SoundDuration":371172,"Delta":71452637},{"NoteNumber":57,"Velocity":37,"Duration":371172,"SoundDuration":371172,"Delta":71452637},{"NoteNumber":84,"Velocity":52,"Duration":92793,"SoundDuration":92793,"Delta":71545430},{"NoteNumber":81,"Velocity":52,"Duration":92793,"SoundDuration":92793,"Delta":71638223},{"NoteNumber":77,"Velocity":52,"Duration":92793,"SoundDuration":92793,"Delta":71731016},{"NoteNumber":76,"Velocity":62,"Duration":92793,"SoundDuration":92793,"Delta":71823809},{"NoteNumber":46,"Velocity":31,"Duration":380835,"SoundDuration":380835,"Delta":71823809},{"NoteNumber":55,"Velocity":37,"Duration":380835,"SoundDuration":380835,"Delta":71823809},{"NoteNumber":82,"Velocity":52,"Duration":92793,"SoundDuration":92793,"Delta":71916602},{"NoteNumber":79,"Velocity":52,"Duration":97624,"SoundDuration":97624,"Delta":72009395},{"NoteNumber":76,"Velocity":52,"Duration":97624,"SoundDuration":97624,"Delta":72107020},{"NoteNumber":77,"Velocity":54,"Duration":104331,"SoundDuration":104331,"Delta":72204644},{"NoteNumber":45,"Velocity":34,"Duration":374707,"SoundDuration":374707,"Delta":72204644},{"NoteNumber":53,"Velocity":40,"Duration":374707,"SoundDuration":374707,"Delta":72204644},{"NoteNumber":81,"Velocity":57,"Duration":104097,"SoundDuration":104097,"Delta":72299491},{"NoteNumber":84,"Velocity":61,"Duration":101757,"SoundDuration":101757,"Delta":72394338},{"NoteNumber":82,"Velocity":60,"Duration":101757,"SoundDuration":101757,"Delta":72486845},{"NoteNumber":81,"Velocity":58,"Duration":101757,"SoundDuration":101757,"Delta":72579352},{"NoteNumber":79,"Velocity":56,"Duration":101757,"SoundDuration":101757,"Delta":72671859},{"NoteNumber":77,"Velocity":54,"Duration":102301,"SoundDuration":102301,"Delta":72764366},{"NoteNumber":76,"Velocity":52,"Duration":107193,"SoundDuration":107193,"Delta":72856873},{"NoteNumber":74,"Velocity":55,"Duration":101757,"SoundDuration":101757,"Delta":72954816},{"NoteNumber":60,"Velocity":37,"Duration":376107,"SoundDuration":376107,"Delta":72954816},{"NoteNumber":57,"Velocity":31,"Duration":376107,"SoundDuration":376107,"Delta":72954816},{"NoteNumber":72,"Velocity":51,"Duration":101757,"SoundDuration":101757,"Delta":73047323},{"NoteNumber":70,"Velocity":50,"Duration":102365,"SoundDuration":102365,"Delta":73139830},{"NoteNumber":69,"Velocity":50,"Duration":98586,"SoundDuration":98586,"Delta":73232337},{"NoteNumber":67,"Velocity":50,"Duration":104002,"SoundDuration":104002,"Delta":73330924},{"NoteNumber":58,"Velocity":37,"Duration":374109,"SoundDuration":374109,"Delta":73330924},{"NoteNumber":62,"Velocity":44,"Duration":374109,"SoundDuration":374109,"Delta":73330924},{"NoteNumber":70,"Velocity":53,"Duration":103798,"SoundDuration":103798,"Delta":73425472},{"NoteNumber":74,"Velocity":56,"Duration":101757,"SoundDuration":101757,"Delta":73520019},{"NoteNumber":72,"Velocity":55,"Duration":101757,"SoundDuration":101757,"Delta":73612526},{"NoteNumber":70,"Velocity":54,"Duration":101757,"SoundDuration":101757,"Delta":73705033},{"NoteNumber":69,"Velocity":53,"Duration":101757,"SoundDuration":101757,"Delta":73797540},{"NoteNumber":67,"Velocity":52,"Duration":101757,"SoundDuration":101757,"Delta":73890047},{"NoteNumber":65,"Velocity":50,"Duration":101757,"SoundDuration":101757,"Delta":73982554},{"NoteNumber":64,"Velocity":49,"Duration":101757,"SoundDuration":101757,"Delta":74075061},{"NoteNumber":50,"Velocity":31,"Duration":374965,"SoundDuration":374965,"Delta":74075061},{"NoteNumber":53,"Velocity":31,"Duration":374965,"SoundDuration":374965,"Delta":74075061},{"NoteNumber":55,"Velocity":37,"Duration":374965,"SoundDuration":374965,"Delta":74075061},{"NoteNumber":62,"Velocity":50,"Duration":101757,"SoundDuration":101757,"Delta":74167568},{"NoteNumber":60,"Velocity":53,"Duration":102301,"SoundDuration":102301,"Delta":74260075},{"NoteNumber":59,"Velocity":56,"Duration":106840,"SoundDuration":106840,"Delta":74352582},{"NoteNumber":60,"Velocity":59,"Duration":93955,"SoundDuration":93955,"Delta":74450027},{"NoteNumber":48,"Velocity":45,"Duration":93955,"SoundDuration":93955,"Delta":74450027},{"NoteNumber":57,"Velocity":37,"Duration":93698,"SoundDuration":93698,"Delta":74543983},{"NoteNumber":72,"Velocity":59,"Duration":93480,"SoundDuration":93480,"Delta":74637682},{"NoteNumber":53,"Velocity":40,"Duration":93480,"SoundDuration":93480,"Delta":74637682},{"NoteNumber":57,"Velocity":37,"Duration":93189,"SoundDuration":93189,"Delta":74731162},{"NoteNumber":77,"Velocity":61,"Duration":92972,"SoundDuration":92972,"Delta":74824351},{"NoteNumber":48,"Velocity":45,"Duration":92972,"SoundDuration":92972,"Delta":74824351},{"NoteNumber":57,"Velocity":37,"Duration":92685,"SoundDuration":92685,"Delta":74917324},{"NoteNumber":81,"Velocity":62,"Duration":92506,"SoundDuration":92506,"Delta":75010010},{"NoteNumber":53,"Velocity":40,"Duration":92506,"SoundDuration":92506,"Delta":75010010},{"NoteNumber":57,"Velocity":37,"Duration":92507,"SoundDuration":92507,"Delta":75102517},{"NoteNumber":84,"Velocity":64,"Duration":92506,"SoundDuration":92506,"Delta":75195024},{"NoteNumber":48,"Velocity":48,"Duration":92506,"SoundDuration":92506,"Delta":75195024},{"NoteNumber":57,"Velocity":37,"Duration":92506,"SoundDuration":92506,"Delta":75287531},{"NoteNumber":89,"Velocity":65,"Duration":92506,"SoundDuration":92506,"Delta":75380038},{"NoteNumber":53,"Velocity":41,"Duration":92506,"SoundDuration":92506,"Delta":75380038},{"NoteNumber":57,"Velocity":37,"Duration":98790,"SoundDuration":98790,"Delta":75472545},{"NoteNumber":79,"Velocity":37,"Duration":48971,"SoundDuration":48971,"Delta":75571336},{"NoteNumber":48,"Velocity":45,"Duration":97823,"SoundDuration":97823,"Delta":75571336},{"NoteNumber":81,"Velocity":31,"Duration":48852,"SoundDuration":48852,"Delta":75620308},{"NoteNumber":79,"Velocity":37,"Duration":48772,"SoundDuration":48772,"Delta":75669160},{"NoteNumber":58,"Velocity":37,"Duration":97387,"SoundDuration":97387,"Delta":75669160},{"NoteNumber":81,"Velocity":31,"Duration":48614,"SoundDuration":48614,"Delta":75717932},{"NoteNumber":79,"Velocity":37,"Duration":48496,"SoundDuration":48496,"Delta":75766547},{"NoteNumber":52,"Velocity":40,"Duration":96876,"SoundDuration":96876,"Delta":75766547},{"NoteNumber":81,"Velocity":32,"Duration":48379,"SoundDuration":48379,"Delta":75815043},{"NoteNumber":79,"Velocity":37,"Duration":48301,"SoundDuration":48301,"Delta":75863423},{"NoteNumber":58,"Velocity":37,"Duration":96447,"SoundDuration":96447,"Delta":75863423},{"NoteNumber":81,"Velocity":33,"Duration":48146,"SoundDuration":48146,"Delta":75911724},{"NoteNumber":79,"Velocity":37,"Duration":48030,"SoundDuration":48030,"Delta":75959871},{"NoteNumber":48,"Velocity":45,"Duration":95946,"SoundDuration":95946,"Delta":75959871},{"NoteNumber":81,"Velocity":32,"Duration":47915,"SoundDuration":47915,"Delta":76007902},{"NoteNumber":79,"Velocity":37,"Duration":47839,"SoundDuration":47839,"Delta":76055817},{"NoteNumber":58,"Velocity":37,"Duration":95526,"SoundDuration":95526,"Delta":76055817},{"NoteNumber":81,"Velocity":32,"Duration":47687,"SoundDuration":47687,"Delta":76103657},{"NoteNumber":79,"Velocity":37,"Duration":47573,"SoundDuration":47573,"Delta":76151344},{"NoteNumber":52,"Velocity":40,"Duration":95034,"SoundDuration":95034,"Delta":76151344},{"NoteNumber":81,"Velocity":31,"Duration":47460,"SoundDuration":47460,"Delta":76198918},{"NoteNumber":79,"Velocity":37,"Duration":47386,"SoundDuration":47386,"Delta":76246379},{"NoteNumber":58,"Velocity":37,"Duration":94622,"SoundDuration":94622,"Delta":76246379},{"NoteNumber":81,"Velocity":33,"Duration":47236,"SoundDuration":47236,"Delta":76293765},{"NoteNumber":79,"Velocity":37,"Duration":47162,"SoundDuration":47162,"Delta":76341001},{"NoteNumber":48,"Velocity":48,"Duration":94473,"SoundDuration":94473,"Delta":76341001},{"NoteNumber":81,"Velocity":32,"Duration":47311,"SoundDuration":47311,"Delta":76388164},{"NoteNumber":79,"Velocity":37,"Duration":63331,"SoundDuration":63331,"Delta":76435475},{"NoteNumber":58,"Velocity":37,"Duration":95148,"SoundDuration":95148,"Delta":76435475},{"NoteNumber":81,"Velocity":32,"Duration":63696,"SoundDuration":63696,"Delta":76498807},{"NoteNumber":52,"Velocity":41,"Duration":95870,"SoundDuration":95870,"Delta":76530623},{"NoteNumber":79,"Velocity":37,"Duration":63990,"SoundDuration":63990,"Delta":76562504},{"NoteNumber":77,"Velocity":33,"Duration":48223,"SoundDuration":48223,"Delta":76626494},{"NoteNumber":58,"Velocity":37,"Duration":96603,"SoundDuration":96603,"Delta":76626494},{"NoteNumber":79,"Velocity":33,"Duration":48379,"SoundDuration":48379,"Delta":76674718},{"NoteNumber":77,"Velocity":49,"Duration":429213,"SoundDuration":429213,"Delta":76723097},{"NoteNumber":53,"Velocity":41,"Duration":238768,"SoundDuration":238768,"Delta":76723097},{"NoteNumber":57,"Velocity":28,"Duration":210167,"SoundDuration":210167,"Delta":76951842},{"NoteNumber":60,"Velocity":35,"Duration":203685,"SoundDuration":203685,"Delta":77152310},{"NoteNumber":65,"Velocity":34,"Duration":203685,"SoundDuration":203685,"Delta":77346297},{"NoteNumber":64,"Velocity":32,"Duration":204043,"SoundDuration":204043,"Delta":77540283},{"NoteNumber":63,"Velocity":30,"Duration":210746,"SoundDuration":210746,"Delta":77734270},{"NoteNumber":82,"Velocity":46,"Duration":384246,"SoundDuration":384246,"Delta":77935410},{"NoteNumber":62,"Velocity":28,"Duration":192122,"SoundDuration":192122,"Delta":77935410},{"NoteNumber":65,"Velocity":21,"Duration":192123,"SoundDuration":192123,"Delta":78127533},{"NoteNumber":84,"Velocity":50,"Duration":384246,"SoundDuration":384246,"Delta":78319656},{"NoteNumber":60,"Velocity":31,"Duration":192122,"SoundDuration":192122,"Delta":78319656},{"NoteNumber":65,"Velocity":24,"Duration":192123,"SoundDuration":192123,"Delta":78511779},{"NoteNumber":86,"Velocity":51,"Duration":391773,"SoundDuration":391773,"Delta":78703902},{"NoteNumber":58,"Velocity":31,"Duration":195886,"SoundDuration":195886,"Delta":78703902},{"NoteNumber":65,"Velocity":25,"Duration":195886,"SoundDuration":195886,"Delta":78899788},{"NoteNumber":84,"Velocity":51,"Duration":578220,"SoundDuration":578220,"Delta":79095675},{"NoteNumber":57,"Velocity":31,"Duration":192740,"SoundDuration":192740,"Delta":79095675},{"NoteNumber":65,"Velocity":28,"Duration":192740,"SoundDuration":192740,"Delta":79288415},{"NoteNumber":64,"Velocity":31,"Duration":192740,"SoundDuration":192740,"Delta":79481155},{"NoteNumber":86,"Velocity":48,"Duration":106007,"SoundDuration":106007,"Delta":79673895},{"NoteNumber":65,"Velocity":28,"Duration":192740,"SoundDuration":192740,"Delta":79673895},{"NoteNumber":84,"Velocity":43,"Duration":106007,"SoundDuration":106007,"Delta":79770265},{"NoteNumber":82,"Velocity":50,"Duration":106006,"SoundDuration":106006,"Delta":79866635},{"NoteNumber":58,"Velocity":31,"Duration":192740,"SoundDuration":192740,"Delta":79866635},{"NoteNumber":81,"Velocity":48,"Duration":106326,"SoundDuration":106326,"Delta":79963005},{"NoteNumber":79,"Velocity":47,"Duration":109525,"SoundDuration":109525,"Delta":80059375},{"NoteNumber":67,"Velocity":27,"Duration":199136,"SoundDuration":199136,"Delta":80059375},{"NoteNumber":77,"Velocity":45,"Duration":99568,"SoundDuration":99568,"Delta":80158943},{"NoteNumber":81,"Velocity":48,"Duration":578220,"SoundDuration":578220,"Delta":80258512},{"NoteNumber":60,"Velocity":31,"Duration":192740,"SoundDuration":192740,"Delta":80258512},{"NoteNumber":69,"Velocity":27,"Duration":192740,"SoundDuration":192740,"Delta":80451252},{"NoteNumber":65,"Velocity":31,"Duration":192740,"SoundDuration":192740,"Delta":80643992},{"NoteNumber":82,"Velocity":40,"Duration":192740,"SoundDuration":192740,"Delta":80836732},{"NoteNumber":69,"Velocity":29,"Duration":192740,"SoundDuration":192740,"Delta":80836732},{"NoteNumber":79,"Velocity":44,"Duration":392539,"SoundDuration":392539,"Delta":81029472},{"NoteNumber":60,"Velocity":31,"Duration":192740,"SoundDuration":192740,"Delta":81029472},{"NoteNumber":70,"Velocity":27,"Duration":199799,"SoundDuration":199799,"Delta":81222212},{"NoteNumber":77,"Velocity":46,"Duration":389946,"SoundDuration":389946,"Delta":81422012},{"NoteNumber":69,"Velocity":31,"Duration":197823,"SoundDuration":197823,"Delta":81422012},{"NoteNumber":65,"Velocity":24,"Duration":192122,"SoundDuration":192122,"Delta":81619836},{"NoteNumber":64,"Velocity":30,"Duration":192123,"SoundDuration":192123,"Delta":81811959},{"NoteNumber":63,"Velocity":26,"Duration":192122,"SoundDuration":192122,"Delta":82004082},{"NoteNumber":62,"Velocity":29,"Duration":192122,"SoundDuration":192122,"Delta":82196205},{"NoteNumber":61,"Velocity":31,"Duration":197823,"SoundDuration":197823,"Delta":82388328},{"NoteNumber":70,"Velocity":52,"Duration":194615,"SoundDuration":194615,"Delta":82586152},{"NoteNumber":62,"Velocity":28,"Duration":194615,"SoundDuration":194615,"Delta":82586152},{"NoteNumber":82,"Velocity":47,"Duration":192122,"SoundDuration":192122,"Delta":82780767},{"NoteNumber":65,"Velocity":27,"Duration":192122,"SoundDuration":192122,"Delta":82780767},{"NoteNumber":72,"Velocity":54,"Duration":192122,"SoundDuration":192122,"Delta":82972890},{"NoteNumber":60,"Velocity":38,"Duration":192122,"SoundDuration":192122,"Delta":82972890},{"NoteNumber":84,"Velocity":47,"Duration":192123,"SoundDuration":192123,"Delta":83165013},{"NoteNumber":64,"Velocity":32,"Duration":192123,"SoundDuration":192123,"Delta":83165013},{"NoteNumber":74,"Velocity":58,"Duration":192122,"SoundDuration":192122,"Delta":83357136},{"NoteNumber":59,"Velocity":40,"Duration":192122,"SoundDuration":192122,"Delta":83357136},{"NoteNumber":86,"Velocity":52,"Duration":196528,"SoundDuration":196528,"Delta":83549259},{"NoteNumber":68,"Velocity":34,"Duration":196528,"SoundDuration":196528,"Delta":83549259},{"NoteNumber":84,"Velocity":61,"Duration":192740,"SoundDuration":192740,"Delta":83745787},{"NoteNumber":60,"Velocity":41,"Duration":192740,"SoundDuration":192740,"Delta":83745787},{"NoteNumber":86,"Velocity":54,"Duration":106007,"SoundDuration":106007,"Delta":83938527},{"NoteNumber":69,"Velocity":35,"Duration":192740,"SoundDuration":192740,"Delta":83938527},{"NoteNumber":88,"Velocity":58,"Duration":106007,"SoundDuration":106007,"Delta":84034897},{"NoteNumber":89,"Velocity":61,"Duration":106007,"SoundDuration":106007,"Delta":84131267},{"NoteNumber":65,"Velocity":38,"Duration":192740,"SoundDuration":192740,"Delta":84131267},{"NoteNumber":88,"Velocity":61,"Duration":106007,"SoundDuration":106007,"Delta":84227637},{"NoteNumber":86,"Velocity":60,"Duration":106007,"SoundDuration":106007,"Delta":84324007},{"NoteNumber":69,"Velocity":33,"Duration":192740,"SoundDuration":192740,"Delta":84324007},{"NoteNumber":84,"Velocity":58,"Duration":106007,"SoundDuration":106007,"Delta":84420377},{"NoteNumber":82,"Velocity":57,"Duration":106006,"SoundDuration":106006,"Delta":84516747},{"NoteNumber":60,"Velocity":40,"Duration":192740,"SoundDuration":192740,"Delta":84516747},{"NoteNumber":81,"Velocity":55,"Duration":106326,"SoundDuration":106326,"Delta":84613117},{"NoteNumber":79,"Velocity":54,"Duration":109525,"SoundDuration":109525,"Delta":84709487},{"NoteNumber":69,"Velocity":35,"Duration":199136,"SoundDuration":199136,"Delta":84709487},{"NoteNumber":77,"Velocity":52,"Duration":99568,"SoundDuration":99568,"Delta":84809056},{"NoteNumber":81,"Velocity":62,"Duration":578220,"SoundDuration":578220,"Delta":84908624},{"NoteNumber":60,"Velocity":41,"Duration":192740,"SoundDuration":192740,"Delta":84908624},{"NoteNumber":72,"Velocity":33,"Duration":192740,"SoundDuration":192740,"Delta":85101364},{"NoteNumber":69,"Velocity":43,"Duration":192740,"SoundDuration":192740,"Delta":85294104},{"NoteNumber":82,"Velocity":56,"Duration":192740,"SoundDuration":192740,"Delta":85486844},{"NoteNumber":72,"Velocity":33,"Duration":192740,"SoundDuration":192740,"Delta":85486844},{"NoteNumber":79,"Velocity":62,"Duration":392539,"SoundDuration":392539,"Delta":85679584},{"NoteNumber":60,"Velocity":45,"Duration":192740,"SoundDuration":192740,"Delta":85679584},{"NoteNumber":70,"Velocity":38,"Duration":199799,"SoundDuration":199799,"Delta":85872324},{"NoteNumber":77,"Velocity":67,"Duration":389946,"SoundDuration":389946,"Delta":86072124},{"NoteNumber":53,"Velocity":54,"Duration":98911,"SoundDuration":98911,"Delta":86171036},{"NoteNumber":57,"Velocity":56,"Duration":96061,"SoundDuration":96061,"Delta":86269948},{"NoteNumber":60,"Velocity":59,"Duration":96061,"SoundDuration":96061,"Delta":86366010},{"NoteNumber":65,"Velocity":61,"Duration":192123,"SoundDuration":192123,"Delta":86462071},{"NoteNumber":84,"Velocity":60,"Duration":96061,"SoundDuration":96061,"Delta":86558133},{"NoteNumber":86,"Velocity":65,"Duration":105667,"SoundDuration":105667,"Delta":86654194},{"NoteNumber":84,"Velocity":60,"Duration":105667,"SoundDuration":105667,"Delta":86750256},{"NoteNumber":82,"Velocity":64,"Duration":105667,"SoundDuration":105667,"Delta":86846317},{"NoteNumber":60,"Velocity":54,"Duration":192122,"SoundDuration":192122,"Delta":86846317},{"NoteNumber":64,"Velocity":54,"Duration":192122,"SoundDuration":192122,"Delta":86846317},{"NoteNumber":81,"Velocity":62,"Duration":107243,"SoundDuration":107243,"Delta":86942379},{"NoteNumber":82,"Velocity":60,"Duration":122996,"SoundDuration":122996,"Delta":87038440},{"NoteNumber":79,"Velocity":58,"Duration":121706,"SoundDuration":121706,"Delta":87150256},{"NoteNumber":77,"Velocity":68,"Duration":389946,"SoundDuration":389946,"Delta":87262071},{"NoteNumber":41,"Velocity":54,"Duration":98911,"SoundDuration":98911,"Delta":87360983},{"NoteNumber":45,"Velocity":56,"Duration":96061,"SoundDuration":96061,"Delta":87459895},{"NoteNumber":48,"Velocity":59,"Duration":96061,"SoundDuration":96061,"Delta":87555956},{"NoteNumber":53,"Velocity":61,"Duration":192123,"SoundDuration":192123,"Delta":87652018},{"NoteNumber":72,"Velocity":60,"Duration":105667,"SoundDuration":105667,"Delta":87748079},{"NoteNumber":74,"Velocity":65,"Duration":105667,"SoundDuration":105667,"Delta":87844141},{"NoteNumber":72,"Velocity":60,"Duration":105667,"SoundDuration":105667,"Delta":87940202},{"NoteNumber":70,"Velocity":64,"Duration":105667,"SoundDuration":105667,"Delta":88036264},{"NoteNumber":48,"Velocity":54,"Duration":192122,"SoundDuration":192122,"Delta":88036264},{"NoteNumber":52,"Velocity":54,"Duration":192122,"SoundDuration":192122,"Delta":88036264},{"NoteNumber":69,"Velocity":62,"Duration":107243,"SoundDuration":107243,"Delta":88132325},{"NoteNumber":70,"Velocity":60,"Duration":122996,"SoundDuration":122996,"Delta":88228387},{"NoteNumber":67,"Velocity":58,"Duration":122996,"SoundDuration":122996,"Delta":88340202},{"NoteNumber":65,"Velocity":71,"Duration":111815,"SoundDuration":111815,"Delta":88452017},{"NoteNumber":53,"Velocity":59,"Duration":111815,"SoundDuration":111815,"Delta":88452017},{"NoteNumber":69,"Velocity":59,"Duration":447260,"SoundDuration":447260,"Delta":88899278},{"NoteNumber":72,"Velocity":59,"Duration":447260,"SoundDuration":447260,"Delta":88899278},{"NoteNumber":77,"Velocity":77,"Duration":447260,"SoundDuration":447260,"Delta":88899278},{"NoteNumber":41,"Velocity":59,"Duration":447260,"SoundDuration":447260,"Delta":88899278},{"NoteNumber":70,"Velocity":50,"Duration":749297,"SoundDuration":749297,"Delta":89793800},{"NoteNumber":58,"Velocity":40,"Duration":749297,"SoundDuration":749297,"Delta":89793800},{"NoteNumber":65,"Velocity":45,"Duration":413364,"SoundDuration":413364,"Delta":90543098},{"NoteNumber":53,"Velocity":36,"Duration":413364,"SoundDuration":413364,"Delta":90543098},{"NoteNumber":62,"Velocity":50,"Duration":742344,"SoundDuration":742344,"Delta":90956463},{"NoteNumber":50,"Velocity":40,"Duration":742344,"SoundDuration":742344,"Delta":90956463},{"NoteNumber":65,"Velocity":48,"Duration":406366,"SoundDuration":406366,"Delta":91698807},{"NoteNumber":53,"Velocity":38,"Duration":406366,"SoundDuration":406366,"Delta":91698807},{"NoteNumber":70,"Velocity":52,"Duration":744647,"SoundDuration":744647,"Delta":92105173},{"NoteNumber":58,"Velocity":41,"Duration":744647,"SoundDuration":744647,"Delta":92105173},{"NoteNumber":74,"Velocity":54,"Duration":395647,"SoundDuration":395647,"Delta":92849821},{"NoteNumber":62,"Velocity":43,"Duration":395647,"SoundDuration":395647,"Delta":92849821},{"NoteNumber":77,"Velocity":57,"Duration":746966,"SoundDuration":746966,"Delta":93245469},{"NoteNumber":65,"Velocity":45,"Duration":746966,"SoundDuration":746966,"Delta":93245469},{"NoteNumber":82,"Velocity":58,"Duration":182871,"SoundDuration":182871,"Delta":93992435},{"NoteNumber":74,"Velocity":51,"Duration":185128,"SoundDuration":185128,"Delta":94175306},{"NoteNumber":77,"Velocity":56,"Duration":189729,"SoundDuration":189729,"Delta":94360434},{"NoteNumber":63,"Velocity":36,"Duration":2184003,"SoundDuration":2184003,"Delta":94360434},{"NoteNumber":53,"Velocity":30,"Duration":2184003,"SoundDuration":2184003,"Delta":94360434},{"NoteNumber":60,"Velocity":30,"Duration":2184003,"SoundDuration":2184003,"Delta":94360434},{"NoteNumber":75,"Velocity":52,"Duration":190274,"SoundDuration":190274,"Delta":94541103},{"NoteNumber":74,"Velocity":51,"Duration":190274,"SoundDuration":190274,"Delta":94722317},{"NoteNumber":72,"Velocity":49,"Duration":190274,"SoundDuration":190274,"Delta":94903531},{"NoteNumber":70,"Velocity":48,"Duration":190522,"SoundDuration":190522,"Delta":95084745},{"NoteNumber":69,"Velocity":47,"Duration":186161,"SoundDuration":186161,"Delta":95265959},{"NoteNumber":67,"Velocity":50,"Duration":188675,"SoundDuration":188675,"Delta":95452121},{"NoteNumber":65,"Velocity":44,"Duration":190823,"SoundDuration":190823,"Delta":95631708},{"NoteNumber":64,"Velocity":44,"Duration":190274,"SoundDuration":190274,"Delta":95813471},{"NoteNumber":65,"Velocity":45,"Duration":190274,"SoundDuration":190274,"Delta":95994685},{"NoteNumber":67,"Velocity":47,"Duration":190580,"SoundDuration":190580,"Delta":96175899},{"NoteNumber":69,"Velocity":50,"Duration":187324,"SoundDuration":187324,"Delta":96357113},{"NoteNumber":70,"Velocity":50,"Duration":45413,"SoundDuration":45413,"Delta":96544437},{"NoteNumber":58,"Velocity":32,"Duration":363305,"SoundDuration":363305,"Delta":96544437},{"NoteNumber":62,"Velocity":38,"Duration":363305,"SoundDuration":363305,"Delta":96544437},{"NoteNumber":72,"Velocity":45,"Duration":45413,"SoundDuration":45413,"Delta":96680677},{"NoteNumber":70,"Velocity":49,"Duration":90826,"SoundDuration":90826,"Delta":96726090},{"NoteNumber":69,"Velocity":46,"Duration":90826,"SoundDuration":90826,"Delta":96816917},{"NoteNumber":70,"Velocity":50,"Duration":45717,"SoundDuration":45717,"Delta":96907743},{"NoteNumber":72,"Velocity":47,"Duration":46139,"SoundDuration":46139,"Delta":97090614},{"NoteNumber":74,"Velocity":49,"Duration":45440,"SoundDuration":45440,"Delta":97275173},{"NoteNumber":75,"Velocity":51,"Duration":48185,"SoundDuration":48185,"Delta":97456936},{"NoteNumber":76,"Velocity":53,"Duration":191897,"SoundDuration":191897,"Delta":97649676},{"NoteNumber":77,"Velocity":50,"Duration":191897,"SoundDuration":191897,"Delta":97832435},{"NoteNumber":79,"Velocity":55,"Duration":191897,"SoundDuration":191897,"Delta":98015195},{"NoteNumber":77,"Velocity":50,"Duration":182759,"SoundDuration":182759,"Delta":98197954},{"NoteNumber":82,"Velocity":59,"Duration":182759,"SoundDuration":182759,"Delta":98380714},{"NoteNumber":74,"Velocity":50,"Duration":192122,"SoundDuration":192122,"Delta":98563473},{"NoteNumber":77,"Velocity":57,"Duration":194264,"SoundDuration":194264,"Delta":98755596},{"NoteNumber":53,"Velocity":30,"Duration":2217472,"SoundDuration":2217472,"Delta":98755596},{"NoteNumber":60,"Velocity":30,"Duration":2217472,"SoundDuration":2217472,"Delta":98755596},{"NoteNumber":63,"Velocity":36,"Duration":2217472,"SoundDuration":2217472,"Delta":98755596},{"NoteNumber":75,"Velocity":55,"Duration":194179,"SoundDuration":194179,"Delta":98940610},{"NoteNumber":74,"Velocity":53,"Duration":192483,"SoundDuration":192483,"Delta":99125624},{"NoteNumber":72,"Velocity":51,"Duration":192483,"SoundDuration":192483,"Delta":99308942},{"NoteNumber":70,"Velocity":49,"Duration":192713,"SoundDuration":192713,"Delta":99492260},{"NoteNumber":69,"Velocity":47,"Duration":187910,"SoundDuration":187910,"Delta":99675578},{"NoteNumber":67,"Velocity":50,"Duration":194264,"SoundDuration":194264,"Delta":99863489},{"NoteNumber":65,"Velocity":43,"Duration":194208,"SoundDuration":194208,"Delta":100048503},{"NoteNumber":64,"Velocity":50,"Duration":193073,"SoundDuration":193073,"Delta":100233517},{"NoteNumber":65,"Velocity":43,"Duration":193073,"SoundDuration":193073,"Delta":100417397},{"NoteNumber":67,"Velocity":50,"Duration":193275,"SoundDuration":193275,"Delta":100601277},{"NoteNumber":69,"Velocity":45,"Duration":187910,"SoundDuration":187910,"Delta":100785157},{"NoteNumber":70,"Velocity":50,"Duration":91435,"SoundDuration":91435,"Delta":100973068},{"NoteNumber":58,"Velocity":34,"Duration":91435,"SoundDuration":91435,"Delta":100973068},{"NoteNumber":62,"Velocity":40,"Duration":91435,"SoundDuration":91435,"Delta":100973068},{"NoteNumber":70,"Velocity":48,"Duration":97370,"SoundDuration":97370,"Delta":101338810},{"NoteNumber":62,"Velocity":38,"Duration":97370,"SoundDuration":97370,"Delta":101338810},{"NoteNumber":58,"Velocity":32,"Duration":97370,"SoundDuration":97370,"Delta":101338810},{"NoteNumber":74,"Velocity":48,"Duration":107028,"SoundDuration":107028,"Delta":101728294},{"NoteNumber":58,"Velocity":32,"Duration":107028,"SoundDuration":107028,"Delta":101728294},{"NoteNumber":65,"Velocity":38,"Duration":107028,"SoundDuration":107028,"Delta":101728294},{"NoteNumber":70,"Velocity":50,"Duration":375821,"SoundDuration":375821,"Delta":102156407},{"NoteNumber":58,"Velocity":34,"Duration":375821,"SoundDuration":375821,"Delta":102156407},{"NoteNumber":62,"Velocity":40,"Duration":375821,"SoundDuration":375821,"Delta":102156407},{"NoteNumber":70,"Velocity":44,"Duration":46977,"SoundDuration":46977,"Delta":102814096},{"NoteNumber":72,"Velocity":50,"Duration":99607,"SoundDuration":99607,"Delta":102908051},{"NoteNumber":70,"Velocity":43,"Duration":99607,"SoundDuration":99607,"Delta":102998604},{"NoteNumber":69,"Velocity":45,"Duration":101067,"SoundDuration":101067,"Delta":103089156},{"NoteNumber":70,"Velocity":42,"Duration":114290,"SoundDuration":114290,"Delta":103179708},{"NoteNumber":79,"Velocity":56,"Duration":365519,"SoundDuration":365519,"Delta":103284861},{"NoteNumber":58,"Velocity":30,"Duration":375821,"SoundDuration":375821,"Delta":103650380},{"NoteNumber":51,"Velocity":25,"Duration":375821,"SoundDuration":375821,"Delta":103650380},{"NoteNumber":55,"Velocity":25,"Duration":375821,"SoundDuration":375821,"Delta":103650380},{"NoteNumber":70,"Velocity":44,"Duration":46977,"SoundDuration":46977,"Delta":103932246},{"NoteNumber":72,"Velocity":50,"Duration":99909,"SoundDuration":99909,"Delta":104026202},{"NoteNumber":70,"Velocity":43,"Duration":99909,"SoundDuration":99909,"Delta":104117028},{"NoteNumber":69,"Velocity":45,"Duration":101341,"SoundDuration":101341,"Delta":104207855},{"NoteNumber":70,"Velocity":42,"Duration":114153,"SoundDuration":114153,"Delta":104298681},{"NoteNumber":77,"Velocity":55,"Duration":360035,"SoundDuration":360035,"Delta":104403834},{"NoteNumber":50,"Velocity":25,"Duration":375821,"SoundDuration":375821,"Delta":104763870},{"NoteNumber":53,"Velocity":25,"Duration":375821,"SoundDuration":375821,"Delta":104763870},{"NoteNumber":58,"Velocity":30,"Duration":375821,"SoundDuration":375821,"Delta":104763870},{"NoteNumber":70,"Velocity":44,"Duration":46977,"SoundDuration":46977,"Delta":105045736},{"NoteNumber":72,"Velocity":50,"Duration":103351,"SoundDuration":103351,"Delta":105139692},{"NoteNumber":70,"Velocity":43,"Duration":103351,"SoundDuration":103351,"Delta":105233647},{"NoteNumber":69,"Velocity":45,"Duration":104470,"SoundDuration":104470,"Delta":105327603},{"NoteNumber":70,"Velocity":42,"Duration":114262,"SoundDuration":114262,"Delta":105421558},{"NoteNumber":72,"Velocity":52,"Duration":364408,"SoundDuration":364408,"Delta":105526711},{"NoteNumber":57,"Velocity":29,"Duration":1126953,"SoundDuration":1126953,"Delta":105526711},{"NoteNumber":65,"Velocity":34,"Duration":1501603,"SoundDuration":1501603,"Delta":105526711},{"NoteNumber":77,"Velocity":49,"Duration":375821,"SoundDuration":375821,"Delta":105891120},{"NoteNumber":75,"Velocity":48,"Duration":386723,"SoundDuration":386723,"Delta":106266942},{"NoteNumber":73,"Velocity":55,"Duration":374649,"SoundDuration":374649,"Delta":106653665},{"NoteNumber":58,"Velocity":34,"Duration":374649,"SoundDuration":374649,"Delta":106653665},{"NoteNumber":74,"Velocity":49,"Duration":201816,"SoundDuration":201816,"Delta":107028314},{"NoteNumber":70,"Velocity":44,"Duration":46977,"SoundDuration":46977,"Delta":107331038},{"NoteNumber":72,"Velocity":50,"Duration":99367,"SoundDuration":99367,"Delta":107424994},{"NoteNumber":70,"Velocity":43,"Duration":99367,"SoundDuration":99367,"Delta":107515328},{"NoteNumber":69,"Velocity":45,"Duration":100849,"SoundDuration":100849,"Delta":107605662},{"NoteNumber":70,"Velocity":42,"Duration":114290,"SoundDuration":114290,"Delta":107695997},{"NoteNumber":79,"Velocity":56,"Duration":365519,"SoundDuration":365519,"Delta":107801149},{"NoteNumber":51,"Velocity":25,"Duration":375821,"SoundDuration":375821,"Delta":108166668},{"NoteNumber":55,"Velocity":25,"Duration":375821,"SoundDuration":375821,"Delta":108166668},{"NoteNumber":58,"Velocity":30,"Duration":375821,"SoundDuration":375821,"Delta":108166668},{"NoteNumber":70,"Velocity":44,"Duration":46977,"SoundDuration":46977,"Delta":108448535},{"NoteNumber":72,"Velocity":50,"Duration":99367,"SoundDuration":99367,"Delta":108542490},{"NoteNumber":70,"Velocity":43,"Duration":99367,"SoundDuration":99367,"Delta":108632824},{"NoteNumber":69,"Velocity":45,"Duration":100849,"SoundDuration":100849,"Delta":108723159},{"NoteNumber":70,"Velocity":42,"Duration":114153,"SoundDuration":114153,"Delta":108813493},{"NoteNumber":77,"Velocity":55,"Duration":360035,"SoundDuration":360035,"Delta":108918645},{"NoteNumber":50,"Velocity":25,"Duration":375821,"SoundDuration":375821,"Delta":109278681},{"NoteNumber":53,"Velocity":25,"Duration":375821,"SoundDuration":375821,"Delta":109278681},{"NoteNumber":58,"Velocity":30,"Duration":375821,"SoundDuration":375821,"Delta":109278681},{"NoteNumber":70,"Velocity":44,"Duration":46977,"SoundDuration":46977,"Delta":109560548},{"NoteNumber":72,"Velocity":50,"Duration":103351,"SoundDuration":103351,"Delta":109654503},{"NoteNumber":70,"Velocity":43,"Duration":103351,"SoundDuration":103351,"Delta":109748459},{"NoteNumber":69,"Velocity":45,"Duration":104470,"SoundDuration":104470,"Delta":109842414},{"NoteNumber":70,"Velocity":42,"Duration":114262,"SoundDuration":114262,"Delta":109936370},{"NoteNumber":72,"Velocity":52,"Duration":364408,"SoundDuration":364408,"Delta":110041522},{"NoteNumber":53,"Velocity":29,"Duration":1133286,"SoundDuration":1133286,"Delta":110041522},{"NoteNumber":57,"Velocity":34,"Duration":364408,"SoundDuration":364408,"Delta":110041522},{"NoteNumber":75,"Velocity":49,"Duration":375821,"SoundDuration":375821,"Delta":110405931},{"NoteNumber":60,"Velocity":31,"Duration":375821,"SoundDuration":375821,"Delta":110405931},{"NoteNumber":69,"Velocity":48,"Duration":393056,"SoundDuration":393056,"Delta":110781753},{"NoteNumber":63,"Velocity":29,"Duration":393056,"SoundDuration":393056,"Delta":110781753},{"NoteNumber":70,"Velocity":55,"Duration":365519,"SoundDuration":365519,"Delta":111174809},{"NoteNumber":62,"Velocity":34,"Duration":365519,"SoundDuration":365519,"Delta":111174809},{"NoteNumber":58,"Velocity":28,"Duration":365519,"SoundDuration":365519,"Delta":111174809},{"NoteNumber":74,"Velocity":64,"Duration":93720,"SoundDuration":93720,"Delta":112271366},{"NoteNumber":70,"Velocity":64,"Duration":93720,"SoundDuration":93720,"Delta":112271366},{"NoteNumber":79,"Velocity":77,"Duration":93720,"SoundDuration":93720,"Delta":112271366},{"NoteNumber":55,"Velocity":73,"Duration":93720,"SoundDuration":93720,"Delta":112271366},{"NoteNumber":67,"Velocity":64,"Duration":94250,"SoundDuration":94250,"Delta":112646249},{"NoteNumber":43,"Velocity":66,"Duration":94250,"SoundDuration":94250,"Delta":112646249},{"NoteNumber":69,"Velocity":63,"Duration":96993,"SoundDuration":96993,"Delta":113400255},{"NoteNumber":66,"Velocity":63,"Duration":96993,"SoundDuration":96993,"Delta":113400255},{"NoteNumber":74,"Velocity":75,"Duration":96993,"SoundDuration":96993,"Delta":113400255},{"NoteNumber":50,"Velocity":73,"Duration":96993,"SoundDuration":96993,"Delta":113400255},{"NoteNumber":62,"Velocity":67,"Duration":94547,"SoundDuration":94547,"Delta":113788228},{"NoteNumber":38,"Velocity":66,"Duration":94547,"SoundDuration":94547,"Delta":113788228},{"NoteNumber":63,"Velocity":43,"Duration":744647,"SoundDuration":744647,"Delta":114544610},{"NoteNumber":51,"Velocity":20,"Duration":1127337,"SoundDuration":1127337,"Delta":114544610},{"NoteNumber":55,"Velocity":33,"Duration":186161,"SoundDuration":186161,"Delta":114544610},{"NoteNumber":58,"Velocity":23,"Duration":186162,"SoundDuration":186162,"Delta":114730772},{"NoteNumber":55,"Velocity":27,"Duration":186161,"SoundDuration":186161,"Delta":114916934},{"NoteNumber":58,"Velocity":22,"Duration":186161,"SoundDuration":186161,"Delta":115103096},{"NoteNumber":65,"Velocity":36,"Duration":102389,"SoundDuration":102389,"Delta":115289258},{"NoteNumber":55,"Velocity":26,"Duration":186161,"SoundDuration":186161,"Delta":115289258},{"NoteNumber":63,"Velocity":36,"Duration":102907,"SoundDuration":102907,"Delta":115382339},{"NoteNumber":62,"Velocity":36,"Duration":108090,"SoundDuration":108090,"Delta":115475420},{"NoteNumber":58,"Velocity":22,"Duration":196528,"SoundDuration":196528,"Delta":115475420},{"NoteNumber":63,"Velocity":36,"Duration":98264,"SoundDuration":98264,"Delta":115573684},{"NoteNumber":72,"Velocity":42,"Duration":185586,"SoundDuration":185586,"Delta":115671948},{"NoteNumber":50,"Velocity":20,"Duration":1131574,"SoundDuration":1131574,"Delta":115671948},{"NoteNumber":56,"Velocity":36,"Duration":185586,"SoundDuration":185586,"Delta":115671948},{"NoteNumber":70,"Velocity":37,"Duration":185586,"SoundDuration":185586,"Delta":115857534},{"NoteNumber":58,"Velocity":23,"Duration":185586,"SoundDuration":185586,"Delta":115857534},{"NoteNumber":70,"Velocity":43,"Duration":371172,"SoundDuration":371172,"Delta":116043120},{"NoteNumber":56,"Velocity":27,"Duration":185586,"SoundDuration":185586,"Delta":116043120},{"NoteNumber":58,"Velocity":23,"Duration":185586,"SoundDuration":185586,"Delta":116228706},{"NoteNumber":70,"Velocity":38,"Duration":389230,"SoundDuration":389230,"Delta":116414292},{"NoteNumber":56,"Velocity":27,"Duration":194615,"SoundDuration":194615,"Delta":116414292},{"NoteNumber":58,"Velocity":24,"Duration":194615,"SoundDuration":194615,"Delta":116608908},{"NoteNumber":70,"Velocity":39,"Duration":196546,"SoundDuration":196546,"Delta":116803523},{"NoteNumber":51,"Velocity":20,"Duration":1123582,"SoundDuration":1123582,"Delta":116803523},{"NoteNumber":55,"Velocity":33,"Duration":187324,"SoundDuration":187324,"Delta":116803523},{"NoteNumber":75,"Velocity":45,"Duration":193667,"SoundDuration":193667,"Delta":116990848},{"NoteNumber":58,"Velocity":23,"Duration":184444,"SoundDuration":184444,"Delta":116990848},{"NoteNumber":74,"Velocity":44,"Duration":193667,"SoundDuration":193667,"Delta":117175293},{"NoteNumber":55,"Velocity":27,"Duration":184444,"SoundDuration":184444,"Delta":117175293},{"NoteNumber":73,"Velocity":42,"Duration":193667,"SoundDuration":193667,"Delta":117359738},{"NoteNumber":58,"Velocity":23,"Duration":184445,"SoundDuration":184445,"Delta":117359738},{"NoteNumber":72,"Velocity":40,"Duration":194368,"SoundDuration":194368,"Delta":117544183},{"NoteNumber":55,"Velocity":27,"Duration":184444,"SoundDuration":184444,"Delta":117544183},{"NoteNumber":71,"Velocity":38,"Duration":207786,"SoundDuration":207786,"Delta":117728628},{"NoteNumber":58,"Velocity":25,"Duration":198478,"SoundDuration":198478,"Delta":117728628},{"NoteNumber":70,"Velocity":41,"Duration":372324,"SoundDuration":372324,"Delta":117927106},{"NoteNumber":50,"Velocity":20,"Duration":1116972,"SoundDuration":1116972,"Delta":117927106},{"NoteNumber":56,"Velocity":33,"Duration":186161,"SoundDuration":186161,"Delta":117927106},{"NoteNumber":58,"Velocity":27,"Duration":186162,"SoundDuration":186162,"Delta":118113268},{"NoteNumber":56,"Velocity":27,"Duration":186161,"SoundDuration":186161,"Delta":118299430},{"NoteNumber":58,"Velocity":24,"Duration":186161,"SoundDuration":186161,"Delta":118485592},{"NoteNumber":56,"Velocity":27,"Duration":186161,"SoundDuration":186161,"Delta":118671754},{"NoteNumber":58,"Velocity":23,"Duration":186162,"SoundDuration":186162,"Delta":118857916},{"NoteNumber":63,"Velocity":45,"Duration":744647,"SoundDuration":744647,"Delta":119044078},{"NoteNumber":51,"Velocity":21,"Duration":1127337,"SoundDuration":1127337,"Delta":119044078},{"NoteNumber":55,"Velocity":35,"Duration":186161,"SoundDuration":186161,"Delta":119044078},{"NoteNumber":58,"Velocity":24,"Duration":186162,"SoundDuration":186162,"Delta":119230240},{"NoteNumber":55,"Velocity":28,"Duration":186161,"SoundDuration":186161,"Delta":119416402},{"NoteNumber":58,"Velocity":23,"Duration":186161,"SoundDuration":186161,"Delta":119602564},{"NoteNumber":65,"Velocity":42,"Duration":102389,"SoundDuration":102389,"Delta":119788726},{"NoteNumber":55,"Velocity":27,"Duration":186161,"SoundDuration":186161,"Delta":119788726},{"NoteNumber":63,"Velocity":39,"Duration":102907,"SoundDuration":102907,"Delta":119881807},{"NoteNumber":62,"Velocity":42,"Duration":108090,"SoundDuration":108090,"Delta":119974888},{"NoteNumber":58,"Velocity":23,"Duration":196528,"SoundDuration":196528,"Delta":119974888},{"NoteNumber":63,"Velocity":40,"Duration":98264,"SoundDuration":98264,"Delta":120073152},{"NoteNumber":72,"Velocity":54,"Duration":194865,"SoundDuration":194865,"Delta":120171416},{"NoteNumber":50,"Velocity":21,"Duration":1131574,"SoundDuration":1131574,"Delta":120171416},{"NoteNumber":53,"Velocity":38,"Duration":185586,"SoundDuration":185586,"Delta":120171416},{"NoteNumber":71,"Velocity":48,"Duration":185586,"SoundDuration":185586,"Delta":120357002},{"NoteNumber":56,"Velocity":24,"Duration":185586,"SoundDuration":185586,"Delta":120357002},{"NoteNumber":71,"Velocity":53,"Duration":371172,"SoundDuration":371172,"Delta":120542588},{"NoteNumber":53,"Velocity":32,"Duration":185586,"SoundDuration":185586,"Delta":120542588},{"NoteNumber":56,"Velocity":28,"Duration":185586,"SoundDuration":185586,"Delta":120728174},{"NoteNumber":71,"Velocity":47,"Duration":389230,"SoundDuration":389230,"Delta":120913760},{"NoteNumber":53,"Velocity":32,"Duration":194615,"SoundDuration":194615,"Delta":120913760},{"NoteNumber":56,"Velocity":27,"Duration":194615,"SoundDuration":194615,"Delta":121108376},{"NoteNumber":72,"Velocity":50,"Duration":196546,"SoundDuration":196546,"Delta":121302991},{"NoteNumber":51,"Velocity":23,"Duration":1123582,"SoundDuration":1123582,"Delta":121302991},{"NoteNumber":55,"Velocity":37,"Duration":187324,"SoundDuration":187324,"Delta":121302991},{"NoteNumber":79,"Velocity":58,"Duration":193667,"SoundDuration":193667,"Delta":121490316},{"NoteNumber":60,"Velocity":32,"Duration":184444,"SoundDuration":184444,"Delta":121490316},{"NoteNumber":75,"Velocity":56,"Duration":193667,"SoundDuration":193667,"Delta":121674761},{"NoteNumber":55,"Velocity":34,"Duration":184444,"SoundDuration":184444,"Delta":121674761},{"NoteNumber":74,"Velocity":54,"Duration":193667,"SoundDuration":193667,"Delta":121859206},{"NoteNumber":60,"Velocity":29,"Duration":184445,"SoundDuration":184445,"Delta":121859206},{"NoteNumber":72,"Velocity":51,"Duration":194368,"SoundDuration":194368,"Delta":122043651},{"NoteNumber":55,"Velocity":30,"Duration":184444,"SoundDuration":184444,"Delta":122043651},{"NoteNumber":70,"Velocity":49,"Duration":207786,"SoundDuration":207786,"Delta":122228096},{"NoteNumber":60,"Velocity":28,"Duration":198478,"SoundDuration":198478,"Delta":122228096},{"NoteNumber":69,"Velocity":50,"Duration":372324,"SoundDuration":372324,"Delta":122426574},{"NoteNumber":51,"Velocity":23,"Duration":1116972,"SoundDuration":1116972,"Delta":122426574},{"NoteNumber":53,"Velocity":37,"Duration":186161,"SoundDuration":186161,"Delta":122426574},{"NoteNumber":60,"Velocity":30,"Duration":186162,"SoundDuration":186162,"Delta":122612736},{"NoteNumber":53,"Velocity":30,"Duration":186161,"SoundDuration":186161,"Delta":122798898},{"NoteNumber":60,"Velocity":27,"Duration":195470,"SoundDuration":195470,"Delta":122985060},{"NoteNumber":53,"Velocity":30,"Duration":186161,"SoundDuration":186161,"Delta":123171222},{"NoteNumber":60,"Velocity":26,"Duration":186162,"SoundDuration":186162,"Delta":123357384},{"NoteNumber":70,"Velocity":59,"Duration":196546,"SoundDuration":196546,"Delta":123543546},{"NoteNumber":50,"Velocity":27,"Duration":1123582,"SoundDuration":1123582,"Delta":123543546},{"NoteNumber":53,"Velocity":44,"Duration":187324,"SoundDuration":187324,"Delta":123543546},{"NoteNumber":86,"Velocity":62,"Duration":193667,"SoundDuration":193667,"Delta":123730871},{"NoteNumber":58,"Velocity":30,"Duration":184444,"SoundDuration":184444,"Delta":123730871},{"NoteNumber":82,"Velocity":61,"Duration":193667,"SoundDuration":193667,"Delta":123915316},{"NoteNumber":53,"Velocity":36,"Duration":184444,"SoundDuration":184444,"Delta":123915316},{"NoteNumber":81,"Velocity":60,"Duration":193667,"SoundDuration":193667,"Delta":124099761},{"NoteNumber":58,"Velocity":30,"Duration":184445,"SoundDuration":184445,"Delta":124099761},{"NoteNumber":79,"Velocity":58,"Duration":194368,"SoundDuration":194368,"Delta":124284206},{"NoteNumber":53,"Velocity":36,"Duration":184444,"SoundDuration":184444,"Delta":124284206},{"NoteNumber":77,"Velocity":57,"Duration":207786,"SoundDuration":207786,"Delta":124468651},{"NoteNumber":58,"Velocity":33,"Duration":198478,"SoundDuration":198478,"Delta":124468651},{"NoteNumber":76,"Velocity":62,"Duration":372324,"SoundDuration":372324,"Delta":124667129},{"NoteNumber":48,"Velocity":27,"Duration":1116972,"SoundDuration":1116972,"Delta":124667129},{"NoteNumber":55,"Velocity":44,"Duration":186161,"SoundDuration":186161,"Delta":124667129},{"NoteNumber":58,"Velocity":36,"Duration":186162,"SoundDuration":186162,"Delta":124853291},{"NoteNumber":55,"Velocity":36,"Duration":186161,"SoundDuration":186161,"Delta":125039453},{"NoteNumber":58,"Velocity":31,"Duration":195470,"SoundDuration":195470,"Delta":125225615},{"NoteNumber":55,"Velocity":36,"Duration":186161,"SoundDuration":186161,"Delta":125411777},{"NoteNumber":58,"Velocity":30,"Duration":186162,"SoundDuration":186162,"Delta":125597939},{"NoteNumber":77,"Velocity":52,"Duration":196546,"SoundDuration":196546,"Delta":125784101},{"NoteNumber":50,"Velocity":27,"Duration":1123582,"SoundDuration":1123582,"Delta":125784101},{"NoteNumber":53,"Velocity":44,"Duration":187324,"SoundDuration":187324,"Delta":125784101},{"NoteNumber":81,"Velocity":58,"Duration":193667,"SoundDuration":193667,"Delta":125971426},{"NoteNumber":57,"Velocity":28,"Duration":184444,"SoundDuration":184444,"Delta":125971426},{"NoteNumber":77,"Velocity":56,"Duration":193667,"SoundDuration":193667,"Delta":126155871},{"NoteNumber":53,"Velocity":36,"Duration":184444,"SoundDuration":184444,"Delta":126155871},{"NoteNumber":76,"Velocity":55,"Duration":193667,"SoundDuration":193667,"Delta":126340316},{"NoteNumber":57,"Velocity":28,"Duration":184445,"SoundDuration":184445,"Delta":126340316},{"NoteNumber":74,"Velocity":53,"Duration":194368,"SoundDuration":194368,"Delta":126524761},{"NoteNumber":53,"Velocity":35,"Duration":184444,"SoundDuration":184444,"Delta":126524761},{"NoteNumber":72,"Velocity":51,"Duration":207786,"SoundDuration":207786,"Delta":126709206},{"NoteNumber":57,"Velocity":27,"Duration":198478,"SoundDuration":198478,"Delta":126709206},{"NoteNumber":71,"Velocity":56,"Duration":372324,"SoundDuration":372324,"Delta":126907684},{"NoteNumber":55,"Velocity":37,"Duration":1118711,"SoundDuration":1118711,"Delta":126907684},{"NoteNumber":62,"Velocity":37,"Duration":186161,"SoundDuration":186161,"Delta":126907684},{"NoteNumber":65,"Velocity":36,"Duration":186162,"SoundDuration":186162,"Delta":127093846},{"NoteNumber":62,"Velocity":36,"Duration":186161,"SoundDuration":186161,"Delta":127280008},{"NoteNumber":65,"Velocity":30,"Duration":195470,"SoundDuration":195470,"Delta":127466170},{"NoteNumber":62,"Velocity":36,"Duration":186161,"SoundDuration":186161,"Delta":127652332},{"NoteNumber":65,"Velocity":30,"Duration":187901,"SoundDuration":187901,"Delta":127838494},{"NoteNumber":60,"Velocity":44,"Duration":383895,"SoundDuration":383895,"Delta":128026396},{"NoteNumber":64,"Velocity":44,"Duration":383895,"SoundDuration":383895,"Delta":128026396},{"NoteNumber":72,"Velocity":46,"Duration":96143,"SoundDuration":96143,"Delta":128122927},{"NoteNumber":71,"Velocity":49,"Duration":95836,"SoundDuration":95836,"Delta":128219071},{"NoteNumber":72,"Velocity":44,"Duration":95384,"SoundDuration":95384,"Delta":128314907},{"NoteNumber":74,"Velocity":49,"Duration":95077,"SoundDuration":95077,"Delta":128410292},{"NoteNumber":72,"Velocity":44,"Duration":94702,"SoundDuration":94702,"Delta":128505369},{"NoteNumber":71,"Velocity":49,"Duration":94404,"SoundDuration":94404,"Delta":128600071},{"NoteNumber":72,"Velocity":44,"Duration":94034,"SoundDuration":94034,"Delta":128694476},{"NoteNumber":70,"Velocity":50,"Duration":187319,"SoundDuration":187319,"Delta":128788510},{"NoteNumber":72,"Velocity":49,"Duration":93652,"SoundDuration":93652,"Delta":128882177},{"NoteNumber":76,"Velocity":54,"Duration":93370,"SoundDuration":93370,"Delta":128975830},{"NoteNumber":72,"Velocity":49,"Duration":93361,"SoundDuration":93361,"Delta":129069200},{"NoteNumber":69,"Velocity":55,"Duration":184558,"SoundDuration":184558,"Delta":129162561},{"NoteNumber":72,"Velocity":53,"Duration":92279,"SoundDuration":92279,"Delta":129254841},{"NoteNumber":77,"Velocity":57,"Duration":92279,"SoundDuration":92279,"Delta":129347120},{"NoteNumber":72,"Velocity":52,"Duration":92279,"SoundDuration":92279,"Delta":129439399},{"NoteNumber":64,"Velocity":59,"Duration":184558,"SoundDuration":184558,"Delta":129531678},{"NoteNumber":72,"Velocity":55,"Duration":92279,"SoundDuration":92279,"Delta":129623958},{"NoteNumber":82,"Velocity":61,"Duration":92279,"SoundDuration":92279,"Delta":129716237},{"NoteNumber":72,"Velocity":57,"Duration":92279,"SoundDuration":92279,"Delta":129808516},{"NoteNumber":65,"Velocity":57,"Duration":185127,"SoundDuration":185127,"Delta":129900795},{"NoteNumber":72,"Velocity":57,"Duration":92563,"SoundDuration":92563,"Delta":129993359},{"NoteNumber":81,"Velocity":64,"Duration":99239,"SoundDuration":99239,"Delta":130085923},{"NoteNumber":72,"Velocity":57,"Duration":99239,"SoundDuration":99239,"Delta":130185163},{"NoteNumber":79,"Velocity":65,"Duration":94415,"SoundDuration":94415,"Delta":130284402},{"NoteNumber":60,"Velocity":62,"Duration":373658,"SoundDuration":373658,"Delta":130284402},{"NoteNumber":76,"Velocity":60,"Duration":93081,"SoundDuration":93081,"Delta":130378817},{"NoteNumber":74,"Velocity":65,"Duration":93081,"SoundDuration":93081,"Delta":130471898},{"NoteNumber":72,"Velocity":60,"Duration":93080,"SoundDuration":93080,"Delta":130564979},{"NoteNumber":71,"Velocity":57,"Duration":93081,"SoundDuration":93081,"Delta":130658060},{"NoteNumber":72,"Velocity":59,"Duration":93080,"SoundDuration":93080,"Delta":130751141},{"NoteNumber":74,"Velocity":60,"Duration":93081,"SoundDuration":93081,"Delta":130844222},{"NoteNumber":72,"Velocity":56,"Duration":94067,"SoundDuration":94067,"Delta":130937303},{"NoteNumber":70,"Velocity":50,"Duration":194166,"SoundDuration":194166,"Delta":131031370},{"NoteNumber":72,"Velocity":49,"Duration":96728,"SoundDuration":96728,"Delta":131128808},{"NoteNumber":76,"Velocity":53,"Duration":95862,"SoundDuration":95862,"Delta":131225537},{"NoteNumber":72,"Velocity":49,"Duration":94997,"SoundDuration":94997,"Delta":131321399},{"NoteNumber":69,"Velocity":58,"Duration":188531,"SoundDuration":188531,"Delta":131416397},{"NoteNumber":72,"Velocity":52,"Duration":94206,"SoundDuration":94206,"Delta":131510722},{"NoteNumber":77,"Velocity":58,"Duration":93931,"SoundDuration":93931,"Delta":131604928},{"NoteNumber":72,"Velocity":54,"Duration":93579,"SoundDuration":93579,"Delta":131698860},{"NoteNumber":64,"Velocity":62,"Duration":186345,"SoundDuration":186345,"Delta":131792439},{"NoteNumber":72,"Velocity":55,"Duration":93037,"SoundDuration":93037,"Delta":131885747},{"NoteNumber":82,"Velocity":61,"Duration":92692,"SoundDuration":92692,"Delta":131978785},{"NoteNumber":72,"Velocity":55,"Duration":92426,"SoundDuration":92426,"Delta":132071478},{"NoteNumber":65,"Velocity":56,"Duration":183984,"SoundDuration":183984,"Delta":132163904},{"NoteNumber":72,"Velocity":49,"Duration":91822,"SoundDuration":91822,"Delta":132256066},{"NoteNumber":81,"Velocity":68,"Duration":96993,"SoundDuration":96993,"Delta":132347888},{"NoteNumber":72,"Velocity":62,"Duration":95722,"SoundDuration":95722,"Delta":132444882},{"NoteNumber":79,"Velocity":73,"Duration":92793,"SoundDuration":92793,"Delta":132540604},{"NoteNumber":60,"Velocity":61,"Duration":371105,"SoundDuration":371105,"Delta":132540604},{"NoteNumber":84,"Velocity":62,"Duration":92793,"SoundDuration":92793,"Delta":132633397},{"NoteNumber":79,"Velocity":69,"Duration":92793,"SoundDuration":92793,"Delta":132726190},{"NoteNumber":76,"Velocity":57,"Duration":92726,"SoundDuration":92726,"Delta":132818983},{"NoteNumber":72,"Velocity":67,"Duration":92645,"SoundDuration":92645,"Delta":132911709},{"NoteNumber":79,"Velocity":55,"Duration":93143,"SoundDuration":93143,"Delta":133004354},{"NoteNumber":76,"Velocity":61,"Duration":93584,"SoundDuration":93584,"Delta":133097498},{"NoteNumber":72,"Velocity":54,"Duration":94093,"SoundDuration":94093,"Delta":133191083},{"NoteNumber":67,"Velocity":63,"Duration":94538,"SoundDuration":94538,"Delta":133285176},{"NoteNumber":72,"Velocity":55,"Duration":94992,"SoundDuration":94992,"Delta":133379714},{"NoteNumber":60,"Velocity":47,"Duration":94992,"SoundDuration":94992,"Delta":133379714},{"NoteNumber":67,"Velocity":65,"Duration":95592,"SoundDuration":95592,"Delta":133474706},{"NoteNumber":55,"Velocity":54,"Duration":95592,"SoundDuration":95592,"Delta":133474706},{"NoteNumber":64,"Velocity":59,"Duration":103698,"SoundDuration":103698,"Delta":133570299},{"NoteNumber":52,"Velocity":47,"Duration":103698,"SoundDuration":103698,"Delta":133570299},{"NoteNumber":60,"Velocity":85,"Duration":101660,"SoundDuration":101660,"Delta":133673997},{"NoteNumber":48,"Velocity":69,"Duration":101660,"SoundDuration":101660,"Delta":133673997},{"NoteNumber":67,"Velocity":62,"Duration":443950,"SoundDuration":443950,"Delta":134080639},{"NoteNumber":64,"Velocity":62,"Duration":443950,"SoundDuration":443950,"Delta":134080639},{"NoteNumber":72,"Velocity":73,"Duration":443950,"SoundDuration":443950,"Delta":134080639},{"NoteNumber":36,"Velocity":59,"Duration":443950,"SoundDuration":443950,"Delta":134080639},{"NoteNumber":53,"Velocity":34,"Duration":766521,"SoundDuration":766521,"Delta":134968541},{"NoteNumber":48,"Velocity":30,"Duration":413364,"SoundDuration":413364,"Delta":135717839},{"NoteNumber":45,"Velocity":34,"Duration":759275,"SoundDuration":759275,"Delta":136131204},{"NoteNumber":48,"Velocity":32,"Duration":406365,"SoundDuration":406365,"Delta":136873548},{"NoteNumber":53,"Velocity":34,"Duration":752601,"SoundDuration":752601,"Delta":137279914},{"NoteNumber":84,"Velocity":45,"Duration":45829,"SoundDuration":45829,"Delta":137466076},{"NoteNumber":84,"Velocity":49,"Duration":45829,"SoundDuration":45829,"Delta":137649394},{"NoteNumber":84,"Velocity":43,"Duration":45829,"SoundDuration":45829,"Delta":137832712},{"NoteNumber":84,"Velocity":46,"Duration":49455,"SoundDuration":49455,"Delta":138016030},{"NoteNumber":57,"Velocity":36,"Duration":395647,"SoundDuration":395647,"Delta":138016030},{"NoteNumber":84,"Velocity":40,"Duration":49455,"SoundDuration":49455,"Delta":138213854},{"NoteNumber":86,"Velocity":45,"Duration":196078,"SoundDuration":196078,"Delta":138411678},{"NoteNumber":60,"Velocity":38,"Duration":373482,"SoundDuration":373482,"Delta":138411678},{"NoteNumber":84,"Velocity":40,"Duration":196078,"SoundDuration":196078,"Delta":138598420},{"NoteNumber":82,"Velocity":43,"Duration":196078,"SoundDuration":196078,"Delta":138785161},{"NoteNumber":81,"Velocity":40,"Duration":196137,"SoundDuration":196137,"Delta":138971903},{"NoteNumber":79,"Velocity":45,"Duration":197579,"SoundDuration":197579,"Delta":139158644},{"NoteNumber":77,"Velocity":39,"Duration":193361,"SoundDuration":193361,"Delta":139346555},{"NoteNumber":77,"Velocity":41,"Duration":48340,"SoundDuration":48340,"Delta":139539917},{"NoteNumber":58,"Velocity":34,"Duration":772558,"SoundDuration":772558,"Delta":139539917},{"NoteNumber":79,"Velocity":39,"Duration":48340,"SoundDuration":48340,"Delta":139588257},{"NoteNumber":77,"Velocity":49,"Duration":96680,"SoundDuration":96680,"Delta":139636597},{"NoteNumber":76,"Velocity":44,"Duration":181080,"SoundDuration":181080,"Delta":139733278},{"NoteNumber":76,"Velocity":46,"Duration":374649,"SoundDuration":374649,"Delta":139920603},{"NoteNumber":55,"Velocity":30,"Duration":413364,"SoundDuration":413364,"Delta":140295252},{"NoteNumber":52,"Velocity":34,"Duration":759275,"SoundDuration":759275,"Delta":140708617},{"NoteNumber":55,"Velocity":32,"Duration":406365,"SoundDuration":406365,"Delta":141450961},{"NoteNumber":58,"Velocity":34,"Duration":750596,"SoundDuration":750596,"Delta":141857327},{"NoteNumber":82,"Velocity":45,"Duration":45829,"SoundDuration":45829,"Delta":142043489},{"NoteNumber":82,"Velocity":48,"Duration":45578,"SoundDuration":45578,"Delta":142226807},{"NoteNumber":82,"Velocity":42,"Duration":45578,"SoundDuration":45578,"Delta":142409122},{"NoteNumber":82,"Velocity":44,"Duration":49455,"SoundDuration":49455,"Delta":142591438},{"NoteNumber":64,"Velocity":36,"Duration":395647,"SoundDuration":395647,"Delta":142591438},{"NoteNumber":82,"Velocity":40,"Duration":49455,"SoundDuration":49455,"Delta":142789262},{"NoteNumber":84,"Velocity":45,"Duration":196078,"SoundDuration":196078,"Delta":142987086},{"NoteNumber":67,"Velocity":38,"Duration":373482,"SoundDuration":373482,"Delta":142987086},{"NoteNumber":82,"Velocity":40,"Duration":196078,"SoundDuration":196078,"Delta":143173827},{"NoteNumber":81,"Velocity":40,"Duration":196078,"SoundDuration":196078,"Delta":143360569},{"NoteNumber":79,"Velocity":40,"Duration":196078,"SoundDuration":196078,"Delta":143547310},{"NoteNumber":77,"Velocity":45,"Duration":197111,"SoundDuration":197111,"Delta":143734052},{"NoteNumber":76,"Velocity":39,"Duration":207396,"SoundDuration":207396,"Delta":143920793},{"NoteNumber":77,"Velocity":47,"Duration":370027,"SoundDuration":370027,"Delta":144128190},{"NoteNumber":69,"Velocity":35,"Duration":185013,"SoundDuration":185013,"Delta":144128190},{"NoteNumber":72,"Velocity":28,"Duration":185013,"SoundDuration":185013,"Delta":144313204},{"NoteNumber":69,"Velocity":35,"Duration":185013,"SoundDuration":185013,"Delta":144498218},{"NoteNumber":81,"Velocity":47,"Duration":191847,"SoundDuration":191847,"Delta":144683232},{"NoteNumber":72,"Velocity":25,"Duration":182759,"SoundDuration":182759,"Delta":144683232},{"NoteNumber":79,"Velocity":45,"Duration":191308,"SoundDuration":191308,"Delta":144865992},{"NoteNumber":69,"Velocity":32,"Duration":181762,"SoundDuration":181762,"Delta":144865992},{"NoteNumber":77,"Velocity":40,"Duration":200151,"SoundDuration":200151,"Delta":145047755},{"NoteNumber":72,"Velocity":24,"Duration":190900,"SoundDuration":190900,"Delta":145047755},{"NoteNumber":76,"Velocity":47,"Duration":370027,"SoundDuration":370027,"Delta":145238655},{"NoteNumber":70,"Velocity":35,"Duration":185013,"SoundDuration":185013,"Delta":145238655},{"NoteNumber":72,"Velocity":31,"Duration":185013,"SoundDuration":185013,"Delta":145423669},{"NoteNumber":70,"Velocity":35,"Duration":185013,"SoundDuration":185013,"Delta":145608683},{"NoteNumber":86,"Velocity":52,"Duration":191847,"SoundDuration":191847,"Delta":145793697},{"NoteNumber":72,"Velocity":26,"Duration":182759,"SoundDuration":182759,"Delta":145793697},{"NoteNumber":84,"Velocity":47,"Duration":191308,"SoundDuration":191308,"Delta":145976457},{"NoteNumber":70,"Velocity":33,"Duration":181762,"SoundDuration":181762,"Delta":145976457},{"NoteNumber":76,"Velocity":42,"Duration":200122,"SoundDuration":200122,"Delta":146158220},{"NoteNumber":72,"Velocity":29,"Duration":190900,"SoundDuration":190900,"Delta":146158220},{"NoteNumber":77,"Velocity":47,"Duration":368889,"SoundDuration":368889,"Delta":146349120},{"NoteNumber":69,"Velocity":35,"Duration":184445,"SoundDuration":184445,"Delta":146349120},{"NoteNumber":72,"Velocity":30,"Duration":184444,"SoundDuration":184444,"Delta":146533565},{"NoteNumber":69,"Velocity":32,"Duration":184445,"SoundDuration":184445,"Delta":146718010},{"NoteNumber":81,"Velocity":47,"Duration":191314,"SoundDuration":191314,"Delta":146902455},{"NoteNumber":72,"Velocity":24,"Duration":182204,"SoundDuration":182204,"Delta":146902455},{"NoteNumber":79,"Velocity":45,"Duration":191810,"SoundDuration":191810,"Delta":147084660},{"NoteNumber":69,"Velocity":32,"Duration":182204,"SoundDuration":182204,"Delta":147084660},{"NoteNumber":77,"Velocity":40,"Duration":201345,"SoundDuration":201345,"Delta":147266864},{"NoteNumber":72,"Velocity":25,"Duration":192123,"SoundDuration":192123,"Delta":147266864},{"NoteNumber":76,"Velocity":47,"Duration":368889,"SoundDuration":368889,"Delta":147458987},{"NoteNumber":70,"Velocity":35,"Duration":184445,"SoundDuration":184445,"Delta":147458987},{"NoteNumber":72,"Velocity":31,"Duration":184444,"SoundDuration":184444,"Delta":147643432},{"NoteNumber":70,"Velocity":35,"Duration":184445,"SoundDuration":184445,"Delta":147827877},{"NoteNumber":86,"Velocity":52,"Duration":191314,"SoundDuration":191314,"Delta":148012322},{"NoteNumber":72,"Velocity":26,"Duration":182204,"SoundDuration":182204,"Delta":148012322},{"NoteNumber":84,"Velocity":47,"Duration":191719,"SoundDuration":191719,"Delta":148194527},{"NoteNumber":70,"Velocity":33,"Duration":182204,"SoundDuration":182204,"Delta":148194527},{"NoteNumber":76,"Velocity":42,"Duration":199517,"SoundDuration":199517,"Delta":148376731},{"NoteNumber":72,"Velocity":29,"Duration":190294,"SoundDuration":190294,"Delta":148376731},{"NoteNumber":77,"Velocity":47,"Duration":368889,"SoundDuration":368889,"Delta":148567026},{"NoteNumber":69,"Velocity":35,"Duration":184445,"SoundDuration":184445,"Delta":148567026},{"NoteNumber":72,"Velocity":30,"Duration":184444,"SoundDuration":184444,"Delta":148751471},{"NoteNumber":69,"Velocity":32,"Duration":189095,"SoundDuration":189095,"Delta":148935916},{"NoteNumber":84,"Velocity":55,"Duration":190159,"SoundDuration":190159,"Delta":149125012},{"NoteNumber":72,"Velocity":28,"Duration":181104,"SoundDuration":181104,"Delta":149125012},{"NoteNumber":81,"Velocity":53,"Duration":190679,"SoundDuration":190679,"Delta":149306116},{"NoteNumber":69,"Velocity":38,"Duration":181104,"SoundDuration":181104,"Delta":149306116},{"NoteNumber":79,"Velocity":50,"Duration":200731,"SoundDuration":200731,"Delta":149487221},{"NoteNumber":72,"Velocity":31,"Duration":191509,"SoundDuration":191509,"Delta":149487221},{"NoteNumber":78,"Velocity":56,"Duration":368889,"SoundDuration":368889,"Delta":149678730},{"NoteNumber":62,"Velocity":40,"Duration":1109867,"SoundDuration":1109867,"Delta":149678730},{"NoteNumber":69,"Velocity":40,"Duration":184445,"SoundDuration":184445,"Delta":149678730},{"NoteNumber":72,"Velocity":34,"Duration":184444,"SoundDuration":184444,"Delta":149863175},{"NoteNumber":69,"Velocity":38,"Duration":184445,"SoundDuration":184445,"Delta":150047620},{"NoteNumber":87,"Velocity":58,"Duration":191314,"SoundDuration":191314,"Delta":150232065},{"NoteNumber":72,"Velocity":32,"Duration":182204,"SoundDuration":182204,"Delta":150232065},{"NoteNumber":86,"Velocity":52,"Duration":191810,"SoundDuration":191810,"Delta":150414270},{"NoteNumber":69,"Velocity":39,"Duration":182204,"SoundDuration":182204,"Delta":150414270},{"NoteNumber":78,"Velocity":48,"Duration":201317,"SoundDuration":201317,"Delta":150596474},{"NoteNumber":72,"Velocity":32,"Duration":192123,"SoundDuration":192123,"Delta":150596474},{"NoteNumber":81,"Velocity":56,"Duration":193073,"SoundDuration":193073,"Delta":150788597},{"NoteNumber":67,"Velocity":39,"Duration":367760,"SoundDuration":367760,"Delta":150788597},{"NoteNumber":70,"Velocity":39,"Duration":367760,"SoundDuration":367760,"Delta":150788597},{"NoteNumber":79,"Velocity":51,"Duration":192935,"SoundDuration":192935,"Delta":150972477},{"NoteNumber":84,"Velocity":55,"Duration":190500,"SoundDuration":190500,"Delta":151156357},{"NoteNumber":72,"Velocity":35,"Duration":739215,"SoundDuration":739215,"Delta":151156357},{"NoteNumber":64,"Velocity":35,"Duration":369015,"SoundDuration":369015,"Delta":151156357},{"NoteNumber":83,"Velocity":51,"Duration":196966,"SoundDuration":196966,"Delta":151337462},{"NoteNumber":82,"Velocity":50,"Duration":190559,"SoundDuration":190559,"Delta":151525373},{"NoteNumber":65,"Velocity":35,"Duration":370200,"SoundDuration":370200,"Delta":151525373},{"NoteNumber":81,"Velocity":49,"Duration":198374,"SoundDuration":198374,"Delta":151706477},{"NoteNumber":79,"Velocity":54,"Duration":278379,"SoundDuration":278379,"Delta":151895573},{"NoteNumber":58,"Velocity":43,"Duration":377618,"SoundDuration":377618,"Delta":151895573},{"NoteNumber":70,"Velocity":43,"Duration":377618,"SoundDuration":377618,"Delta":151895573},{"NoteNumber":81,"Velocity":48,"Duration":99239,"SoundDuration":99239,"Delta":152173952},{"NoteNumber":77,"Velocity":54,"Duration":380590,"SoundDuration":380590,"Delta":152273191},{"NoteNumber":60,"Velocity":40,"Duration":760987,"SoundDuration":760987,"Delta":152273191},{"NoteNumber":69,"Velocity":40,"Duration":380590,"SoundDuration":380590,"Delta":152273191},{"NoteNumber":76,"Velocity":50,"Duration":63431,"SoundDuration":63431,"Delta":152653781},{"NoteNumber":67,"Velocity":40,"Duration":380397,"SoundDuration":380397,"Delta":152653781},{"NoteNumber":77,"Velocity":44,"Duration":63431,"SoundDuration":63431,"Delta":152717213},{"NoteNumber":76,"Velocity":50,"Duration":63431,"SoundDuration":63431,"Delta":152780644},{"NoteNumber":77,"Velocity":44,"Duration":47573,"SoundDuration":47573,"Delta":152844076},{"NoteNumber":76,"Velocity":50,"Duration":47573,"SoundDuration":47573,"Delta":152891650},{"NoteNumber":74,"Velocity":42,"Duration":47573,"SoundDuration":47573,"Delta":152939223},{"NoteNumber":76,"Velocity":45,"Duration":47381,"SoundDuration":47381,"Delta":152986797},{"NoteNumber":77,"Velocity":49,"Duration":93370,"SoundDuration":93370,"Delta":153034178},{"NoteNumber":65,"Velocity":40,"Duration":373161,"SoundDuration":373161,"Delta":153034178},{"NoteNumber":72,"Velocity":46,"Duration":93370,"SoundDuration":93370,"Delta":153127549},{"NoteNumber":71,"Velocity":49,"Duration":93339,"SoundDuration":93339,"Delta":153220920},{"NoteNumber":72,"Velocity":44,"Duration":93081,"SoundDuration":93081,"Delta":153314259},{"NoteNumber":74,"Velocity":49,"Duration":93080,"SoundDuration":93080,"Delta":153407340},{"NoteNumber":72,"Velocity":44,"Duration":93081,"SoundDuration":93081,"Delta":153500421},{"NoteNumber":71,"Velocity":49,"Duration":91102,"SoundDuration":91102,"Delta":153593502},{"NoteNumber":57,"Velocity":49,"Duration":182204,"SoundDuration":182204,"Delta":153593502},{"NoteNumber":72,"Velocity":44,"Duration":91102,"SoundDuration":91102,"Delta":153684605},{"NoteNumber":70,"Velocity":49,"Duration":91102,"SoundDuration":91102,"Delta":153775707},{"NoteNumber":55,"Velocity":55,"Duration":182280,"SoundDuration":182280,"Delta":153775707},{"NoteNumber":72,"Velocity":49,"Duration":91177,"SoundDuration":91177,"Delta":153866809},{"NoteNumber":69,"Velocity":54,"Duration":95450,"SoundDuration":95450,"Delta":153957987},{"NoteNumber":53,"Velocity":48,"Duration":190821,"SoundDuration":190821,"Delta":153957987},{"NoteNumber":72,"Velocity":49,"Duration":95371,"SoundDuration":95371,"Delta":154053437},{"NoteNumber":67,"Velocity":49,"Duration":93370,"SoundDuration":93370,"Delta":154148808},{"NoteNumber":52,"Velocity":48,"Duration":373161,"SoundDuration":373161,"Delta":154148808},{"NoteNumber":72,"Velocity":46,"Duration":93370,"SoundDuration":93370,"Delta":154242179},{"NoteNumber":71,"Velocity":49,"Duration":93339,"SoundDuration":93339,"Delta":154335550},{"NoteNumber":72,"Velocity":44,"Duration":93081,"SoundDuration":93081,"Delta":154428889},{"NoteNumber":74,"Velocity":49,"Duration":93080,"SoundDuration":93080,"Delta":154521970},{"NoteNumber":72,"Velocity":44,"Duration":93081,"SoundDuration":93081,"Delta":154615051},{"NoteNumber":71,"Velocity":49,"Duration":91102,"SoundDuration":91102,"Delta":154708132},{"NoteNumber":62,"Velocity":45,"Duration":182204,"SoundDuration":182204,"Delta":154708132},{"NoteNumber":72,"Velocity":44,"Duration":91102,"SoundDuration":91102,"Delta":154799235},{"NoteNumber":82,"Velocity":49,"Duration":91102,"SoundDuration":91102,"Delta":154890337},{"NoteNumber":60,"Velocity":50,"Duration":182280,"SoundDuration":182280,"Delta":154890337},{"NoteNumber":72,"Velocity":49,"Duration":91177,"SoundDuration":91177,"Delta":154981439},{"NoteNumber":82,"Velocity":54,"Duration":95450,"SoundDuration":95450,"Delta":155072617},{"NoteNumber":52,"Velocity":45,"Duration":190821,"SoundDuration":190821,"Delta":155072617},{"NoteNumber":72,"Velocity":49,"Duration":95371,"SoundDuration":95371,"Delta":155168067},{"NoteNumber":81,"Velocity":49,"Duration":93370,"SoundDuration":93370,"Delta":155263438},{"NoteNumber":53,"Velocity":40,"Duration":373161,"SoundDuration":373161,"Delta":155263438},{"NoteNumber":72,"Velocity":46,"Duration":93370,"SoundDuration":93370,"Delta":155356809},{"NoteNumber":71,"Velocity":49,"Duration":93339,"SoundDuration":93339,"Delta":155450180},{"NoteNumber":72,"Velocity":44,"Duration":93081,"SoundDuration":93081,"Delta":155543519},{"NoteNumber":74,"Velocity":49,"Duration":93080,"SoundDuration":93080,"Delta":155636600},{"NoteNumber":72,"Velocity":44,"Duration":93081,"SoundDuration":93081,"Delta":155729681},{"NoteNumber":71,"Velocity":49,"Duration":91102,"SoundDuration":91102,"Delta":155822762},{"NoteNumber":57,"Velocity":50,"Duration":182204,"SoundDuration":182204,"Delta":155822762},{"NoteNumber":72,"Velocity":44,"Duration":91102,"SoundDuration":91102,"Delta":155913865},{"NoteNumber":70,"Velocity":49,"Duration":90334,"SoundDuration":90334,"Delta":156004967},{"NoteNumber":55,"Velocity":55,"Duration":180769,"SoundDuration":180769,"Delta":156004967},{"NoteNumber":72,"Velocity":49,"Duration":90435,"SoundDuration":90435,"Delta":156095301},{"NoteNumber":69,"Velocity":54,"Duration":95450,"SoundDuration":95450,"Delta":156185737},{"NoteNumber":53,"Velocity":47,"Duration":190821,"SoundDuration":190821,"Delta":156185737},{"NoteNumber":72,"Velocity":49,"Duration":95371,"SoundDuration":95371,"Delta":156281187},{"NoteNumber":67,"Velocity":49,"Duration":93370,"SoundDuration":93370,"Delta":156376558},{"NoteNumber":52,"Velocity":47,"Duration":373161,"SoundDuration":373161,"Delta":156376558},{"NoteNumber":72,"Velocity":46,"Duration":93370,"SoundDuration":93370,"Delta":156469929},{"NoteNumber":71,"Velocity":49,"Duration":93339,"SoundDuration":93339,"Delta":156563300},{"NoteNumber":72,"Velocity":44,"Duration":93081,"SoundDuration":93081,"Delta":156656639},{"NoteNumber":74,"Velocity":49,"Duration":93080,"SoundDuration":93080,"Delta":156749720},{"NoteNumber":72,"Velocity":44,"Duration":93081,"SoundDuration":93081,"Delta":156842801},{"NoteNumber":71,"Velocity":49,"Duration":91102,"SoundDuration":91102,"Delta":156935882},{"NoteNumber":62,"Velocity":45,"Duration":182204,"SoundDuration":182204,"Delta":156935882},{"NoteNumber":72,"Velocity":44,"Duration":91102,"SoundDuration":91102,"Delta":157026984},{"NoteNumber":82,"Velocity":49,"Duration":90607,"SoundDuration":90607,"Delta":157118086},{"NoteNumber":60,"Velocity":50,"Duration":181306,"SoundDuration":181306,"Delta":157118086},{"NoteNumber":72,"Velocity":49,"Duration":90699,"SoundDuration":90699,"Delta":157208693},{"NoteNumber":82,"Velocity":54,"Duration":95450,"SoundDuration":95450,"Delta":157299393},{"NoteNumber":52,"Velocity":45,"Duration":190821,"SoundDuration":190821,"Delta":157299393},{"NoteNumber":72,"Velocity":49,"Duration":95371,"SoundDuration":95371,"Delta":157394843},{"NoteNumber":81,"Velocity":49,"Duration":93370,"SoundDuration":93370,"Delta":157490214},{"NoteNumber":53,"Velocity":40,"Duration":373161,"SoundDuration":373161,"Delta":157490214},{"NoteNumber":72,"Velocity":46,"Duration":93370,"SoundDuration":93370,"Delta":157583585},{"NoteNumber":71,"Velocity":49,"Duration":93339,"SoundDuration":93339,"Delta":157676956},{"NoteNumber":72,"Velocity":44,"Duration":93081,"SoundDuration":93081,"Delta":157770295},{"NoteNumber":74,"Velocity":49,"Duration":93080,"SoundDuration":93080,"Delta":157863376},{"NoteNumber":72,"Velocity":44,"Duration":93081,"SoundDuration":93081,"Delta":157956457},{"NoteNumber":71,"Velocity":49,"Duration":91102,"SoundDuration":91102,"Delta":158049538},{"NoteNumber":60,"Velocity":47,"Duration":182204,"SoundDuration":182204,"Delta":158049538},{"NoteNumber":72,"Velocity":44,"Duration":91102,"SoundDuration":91102,"Delta":158140640},{"NoteNumber":75,"Velocity":49,"Duration":91157,"SoundDuration":91157,"Delta":158231742},{"NoteNumber":57,"Velocity":52,"Duration":182389,"SoundDuration":182389,"Delta":158231742},{"NoteNumber":72,"Velocity":49,"Duration":91231,"SoundDuration":91231,"Delta":158322900},{"NoteNumber":70,"Velocity":54,"Duration":95450,"SoundDuration":95450,"Delta":158414132},{"NoteNumber":55,"Velocity":47,"Duration":190821,"SoundDuration":190821,"Delta":158414132},{"NoteNumber":72,"Velocity":49,"Duration":95371,"SoundDuration":95371,"Delta":158509582},{"NoteNumber":69,"Velocity":49,"Duration":93370,"SoundDuration":93370,"Delta":158604953},{"NoteNumber":54,"Velocity":44,"Duration":373161,"SoundDuration":373161,"Delta":158604953},{"NoteNumber":74,"Velocity":46,"Duration":93370,"SoundDuration":93370,"Delta":158698324},{"NoteNumber":73,"Velocity":49,"Duration":93339,"SoundDuration":93339,"Delta":158791695},{"NoteNumber":74,"Velocity":44,"Duration":93081,"SoundDuration":93081,"Delta":158885034},{"NoteNumber":76,"Velocity":49,"Duration":96370,"SoundDuration":96370,"Delta":158978115},{"NoteNumber":74,"Velocity":44,"Duration":96369,"SoundDuration":96369,"Delta":159074485},{"NoteNumber":73,"Velocity":52,"Duration":91102,"SoundDuration":91102,"Delta":159170855},{"NoteNumber":63,"Velocity":45,"Duration":182204,"SoundDuration":182204,"Delta":159170855},{"NoteNumber":74,"Velocity":44,"Duration":91102,"SoundDuration":91102,"Delta":159261957},{"NoteNumber":84,"Velocity":55,"Duration":91714,"SoundDuration":91714,"Delta":159353060},{"NoteNumber":62,"Velocity":50,"Duration":183485,"SoundDuration":183485,"Delta":159353060},{"NoteNumber":74,"Velocity":49,"Duration":91770,"SoundDuration":91770,"Delta":159444775},{"NoteNumber":84,"Velocity":57,"Duration":96370,"SoundDuration":96370,"Delta":159536545},{"NoteNumber":54,"Velocity":45,"Duration":192630,"SoundDuration":192630,"Delta":159536545},{"NoteNumber":74,"Velocity":49,"Duration":96260,"SoundDuration":96260,"Delta":159632915},{"NoteNumber":83,"Velocity":62,"Duration":367798,"SoundDuration":367798,"Delta":159729175},{"NoteNumber":55,"Velocity":42,"Duration":91836,"SoundDuration":91836,"Delta":159729175},{"NoteNumber":62,"Velocity":33,"Duration":91764,"SoundDuration":91764,"Delta":159821012},{"NoteNumber":59,"Velocity":36,"Duration":91975,"SoundDuration":91975,"Delta":159912776},{"NoteNumber":62,"Velocity":33,"Duration":92222,"SoundDuration":92222,"Delta":160004752},{"NoteNumber":82,"Velocity":60,"Duration":370924,"SoundDuration":370924,"Delta":160096974},{"NoteNumber":52,"Velocity":38,"Duration":92400,"SoundDuration":92400,"Delta":160096974},{"NoteNumber":61,"Velocity":33,"Duration":92614,"SoundDuration":92614,"Delta":160189374},{"NoteNumber":55,"Velocity":36,"Duration":92828,"SoundDuration":92828,"Delta":160281989},{"NoteNumber":61,"Velocity":33,"Duration":93081,"SoundDuration":93081,"Delta":160374818},{"NoteNumber":81,"Velocity":57,"Duration":374396,"SoundDuration":374396,"Delta":160467899},{"NoteNumber":53,"Velocity":39,"Duration":93262,"SoundDuration":93262,"Delta":160467899},{"NoteNumber":60,"Velocity":33,"Duration":93480,"SoundDuration":93480,"Delta":160561161},{"NoteNumber":57,"Velocity":37,"Duration":93698,"SoundDuration":93698,"Delta":160654641},{"NoteNumber":60,"Velocity":37,"Duration":93955,"SoundDuration":93955,"Delta":160748340},{"NoteNumber":79,"Velocity":60,"Duration":92793,"SoundDuration":92793,"Delta":160842295},{"NoteNumber":46,"Velocity":31,"Duration":378278,"SoundDuration":378278,"Delta":160842295},{"NoteNumber":58,"Velocity":37,"Duration":378278,"SoundDuration":378278,"Delta":160842295},{"NoteNumber":86,"Velocity":52,"Duration":92793,"SoundDuration":92793,"Delta":160935088},{"NoteNumber":82,"Velocity":52,"Duration":92793,"SoundDuration":92793,"Delta":161027881},{"NoteNumber":79,"Velocity":52,"Duration":99899,"SoundDuration":99899,"Delta":161120674},{"NoteNumber":77,"Velocity":62,"Duration":92793,"SoundDuration":92793,"Delta":161220574},{"NoteNumber":48,"Velocity":31,"Duration":371172,"SoundDuration":371172,"Delta":161220574},{"NoteNumber":57,"Velocity":37,"Duration":371172,"SoundDuration":371172,"Delta":161220574},{"NoteNumber":84,"Velocity":52,"Duration":92793,"SoundDuration":92793,"Delta":161313367},{"NoteNumber":81,"Velocity":52,"Duration":92793,"SoundDuration":92793,"Delta":161406160},{"NoteNumber":77,"Velocity":52,"Duration":92793,"SoundDuration":92793,"Delta":161498953},{"NoteNumber":76,"Velocity":62,"Duration":92793,"SoundDuration":92793,"Delta":161591746},{"NoteNumber":46,"Velocity":31,"Duration":380834,"SoundDuration":380834,"Delta":161591746},{"NoteNumber":55,"Velocity":37,"Duration":380834,"SoundDuration":380834,"Delta":161591746},{"NoteNumber":82,"Velocity":52,"Duration":92793,"SoundDuration":92793,"Delta":161684539},{"NoteNumber":79,"Velocity":52,"Duration":97624,"SoundDuration":97624,"Delta":161777332},{"NoteNumber":76,"Velocity":52,"Duration":97624,"SoundDuration":97624,"Delta":161874957},{"NoteNumber":77,"Velocity":54,"Duration":104331,"SoundDuration":104331,"Delta":161972581},{"NoteNumber":45,"Velocity":34,"Duration":374707,"SoundDuration":374707,"Delta":161972581},{"NoteNumber":53,"Velocity":40,"Duration":374707,"SoundDuration":374707,"Delta":161972581},{"NoteNumber":81,"Velocity":57,"Duration":104097,"SoundDuration":104097,"Delta":162067428},{"NoteNumber":84,"Velocity":61,"Duration":101757,"SoundDuration":101757,"Delta":162162275},{"NoteNumber":82,"Velocity":60,"Duration":101757,"SoundDuration":101757,"Delta":162254782},{"NoteNumber":81,"Velocity":58,"Duration":101757,"SoundDuration":101757,"Delta":162347289},{"NoteNumber":79,"Velocity":56,"Duration":101757,"SoundDuration":101757,"Delta":162439796},{"NoteNumber":77,"Velocity":54,"Duration":102301,"SoundDuration":102301,"Delta":162532303},{"NoteNumber":76,"Velocity":52,"Duration":107193,"SoundDuration":107193,"Delta":162624810},{"NoteNumber":74,"Velocity":55,"Duration":101757,"SoundDuration":101757,"Delta":162722753},{"NoteNumber":60,"Velocity":37,"Duration":376108,"SoundDuration":376108,"Delta":162722753},{"NoteNumber":57,"Velocity":31,"Duration":376108,"SoundDuration":376108,"Delta":162722753},{"NoteNumber":72,"Velocity":51,"Duration":101757,"SoundDuration":101757,"Delta":162815260},{"NoteNumber":70,"Velocity":50,"Duration":102365,"SoundDuration":102365,"Delta":162907767},{"NoteNumber":69,"Velocity":50,"Duration":98587,"SoundDuration":98587,"Delta":163000274},{"NoteNumber":67,"Velocity":50,"Duration":104002,"SoundDuration":104002,"Delta":163098861},{"NoteNumber":58,"Velocity":37,"Duration":374109,"SoundDuration":374109,"Delta":163098861},{"NoteNumber":62,"Velocity":44,"Duration":374109,"SoundDuration":374109,"Delta":163098861},{"NoteNumber":70,"Velocity":53,"Duration":103798,"SoundDuration":103798,"Delta":163193409},{"NoteNumber":74,"Velocity":56,"Duration":101757,"SoundDuration":101757,"Delta":163287956},{"NoteNumber":72,"Velocity":55,"Duration":101757,"SoundDuration":101757,"Delta":163380463},{"NoteNumber":70,"Velocity":54,"Duration":101757,"SoundDuration":101757,"Delta":163472970},{"NoteNumber":69,"Velocity":53,"Duration":101757,"SoundDuration":101757,"Delta":163565477},{"NoteNumber":67,"Velocity":52,"Duration":101757,"SoundDuration":101757,"Delta":163657984},{"NoteNumber":65,"Velocity":50,"Duration":101757,"SoundDuration":101757,"Delta":163750491},{"NoteNumber":64,"Velocity":49,"Duration":101757,"SoundDuration":101757,"Delta":163842998},{"NoteNumber":50,"Velocity":31,"Duration":374965,"SoundDuration":374965,"Delta":163842998},{"NoteNumber":53,"Velocity":31,"Duration":374965,"SoundDuration":374965,"Delta":163842998},{"NoteNumber":55,"Velocity":37,"Duration":374965,"SoundDuration":374965,"Delta":163842998},{"NoteNumber":62,"Velocity":50,"Duration":101757,"SoundDuration":101757,"Delta":163935505},{"NoteNumber":60,"Velocity":53,"Duration":102301,"SoundDuration":102301,"Delta":164028012},{"NoteNumber":59,"Velocity":56,"Duration":106840,"SoundDuration":106840,"Delta":164120519},{"NoteNumber":60,"Velocity":59,"Duration":95116,"SoundDuration":95116,"Delta":164217964},{"NoteNumber":48,"Velocity":45,"Duration":95116,"SoundDuration":95116,"Delta":164217964},{"NoteNumber":57,"Velocity":37,"Duration":94568,"SoundDuration":94568,"Delta":164313081},{"NoteNumber":72,"Velocity":59,"Duration":93391,"SoundDuration":93391,"Delta":164407650},{"NoteNumber":53,"Velocity":40,"Duration":93391,"SoundDuration":93391,"Delta":164407650},{"NoteNumber":57,"Velocity":37,"Duration":92994,"SoundDuration":92994,"Delta":164501042},{"NoteNumber":77,"Velocity":61,"Duration":92973,"SoundDuration":92973,"Delta":164594037},{"NoteNumber":48,"Velocity":45,"Duration":92973,"SoundDuration":92973,"Delta":164594037},{"NoteNumber":57,"Velocity":37,"Duration":92685,"SoundDuration":92685,"Delta":164687010},{"NoteNumber":81,"Velocity":62,"Duration":92507,"SoundDuration":92507,"Delta":164779695},{"NoteNumber":53,"Velocity":40,"Duration":92507,"SoundDuration":92507,"Delta":164779695},{"NoteNumber":57,"Velocity":37,"Duration":92506,"SoundDuration":92506,"Delta":164872202},{"NoteNumber":84,"Velocity":64,"Duration":92507,"SoundDuration":92507,"Delta":164964709},{"NoteNumber":48,"Velocity":48,"Duration":92507,"SoundDuration":92507,"Delta":164964709},{"NoteNumber":57,"Velocity":37,"Duration":92506,"SoundDuration":92506,"Delta":165057216},{"NoteNumber":89,"Velocity":65,"Duration":92507,"SoundDuration":92507,"Delta":165149723},{"NoteNumber":53,"Velocity":41,"Duration":92507,"SoundDuration":92507,"Delta":165149723},{"NoteNumber":57,"Velocity":37,"Duration":98790,"SoundDuration":98790,"Delta":165242230},{"NoteNumber":79,"Velocity":37,"Duration":48971,"SoundDuration":48971,"Delta":165341021},{"NoteNumber":48,"Velocity":45,"Duration":97823,"SoundDuration":97823,"Delta":165341021},{"NoteNumber":81,"Velocity":31,"Duration":48852,"SoundDuration":48852,"Delta":165389993},{"NoteNumber":79,"Velocity":37,"Duration":48772,"SoundDuration":48772,"Delta":165438845},{"NoteNumber":58,"Velocity":37,"Duration":97387,"SoundDuration":97387,"Delta":165438845},{"NoteNumber":81,"Velocity":31,"Duration":48614,"SoundDuration":48614,"Delta":165487618},{"NoteNumber":79,"Velocity":37,"Duration":48496,"SoundDuration":48496,"Delta":165536232},{"NoteNumber":52,"Velocity":40,"Duration":96876,"SoundDuration":96876,"Delta":165536232},{"NoteNumber":81,"Velocity":32,"Duration":48379,"SoundDuration":48379,"Delta":165584729},{"NoteNumber":79,"Velocity":37,"Duration":48301,"SoundDuration":48301,"Delta":165633108},{"NoteNumber":58,"Velocity":37,"Duration":96447,"SoundDuration":96447,"Delta":165633108},{"NoteNumber":81,"Velocity":33,"Duration":48146,"SoundDuration":48146,"Delta":165681410},{"NoteNumber":79,"Velocity":37,"Duration":48030,"SoundDuration":48030,"Delta":165729556},{"NoteNumber":48,"Velocity":45,"Duration":95946,"SoundDuration":95946,"Delta":165729556},{"NoteNumber":81,"Velocity":32,"Duration":47915,"SoundDuration":47915,"Delta":165777587},{"NoteNumber":79,"Velocity":37,"Duration":47839,"SoundDuration":47839,"Delta":165825503},{"NoteNumber":58,"Velocity":37,"Duration":95526,"SoundDuration":95526,"Delta":165825503},{"NoteNumber":81,"Velocity":32,"Duration":47687,"SoundDuration":47687,"Delta":165873342},{"NoteNumber":79,"Velocity":37,"Duration":47573,"SoundDuration":47573,"Delta":165921029},{"NoteNumber":52,"Velocity":40,"Duration":95034,"SoundDuration":95034,"Delta":165921029},{"NoteNumber":81,"Velocity":31,"Duration":47460,"SoundDuration":47460,"Delta":165968603},{"NoteNumber":79,"Velocity":37,"Duration":47385,"SoundDuration":47385,"Delta":166016064},{"NoteNumber":58,"Velocity":37,"Duration":94622,"SoundDuration":94622,"Delta":166016064},{"NoteNumber":81,"Velocity":33,"Duration":47236,"SoundDuration":47236,"Delta":166063450},{"NoteNumber":79,"Velocity":37,"Duration":47162,"SoundDuration":47162,"Delta":166110687},{"NoteNumber":48,"Velocity":48,"Duration":94473,"SoundDuration":94473,"Delta":166110687},{"NoteNumber":81,"Velocity":32,"Duration":47311,"SoundDuration":47311,"Delta":166157849},{"NoteNumber":79,"Velocity":37,"Duration":63331,"SoundDuration":63331,"Delta":166205160},{"NoteNumber":58,"Velocity":37,"Duration":95148,"SoundDuration":95148,"Delta":166205160},{"NoteNumber":81,"Velocity":32,"Duration":63696,"SoundDuration":63696,"Delta":166268492},{"NoteNumber":52,"Velocity":41,"Duration":95870,"SoundDuration":95870,"Delta":166300309},{"NoteNumber":79,"Velocity":37,"Duration":63990,"SoundDuration":63990,"Delta":166332189},{"NoteNumber":77,"Velocity":33,"Duration":48223,"SoundDuration":48223,"Delta":166396179},{"NoteNumber":58,"Velocity":37,"Duration":96603,"SoundDuration":96603,"Delta":166396179},{"NoteNumber":79,"Velocity":33,"Duration":48379,"SoundDuration":48379,"Delta":166444403},{"NoteNumber":77,"Velocity":49,"Duration":429213,"SoundDuration":429213,"Delta":166492782},{"NoteNumber":53,"Velocity":41,"Duration":238768,"SoundDuration":238768,"Delta":166492782},{"NoteNumber":57,"Velocity":28,"Duration":210268,"SoundDuration":210268,"Delta":166721528},{"NoteNumber":60,"Velocity":35,"Duration":205815,"SoundDuration":205815,"Delta":166921996},{"NoteNumber":65,"Velocity":34,"Duration":205720,"SoundDuration":205720,"Delta":167118010},{"NoteNumber":64,"Velocity":32,"Duration":204168,"SoundDuration":204168,"Delta":167314025},{"NoteNumber":63,"Velocity":30,"Duration":210746,"SoundDuration":210746,"Delta":167508137},{"NoteNumber":82,"Velocity":46,"Duration":384245,"SoundDuration":384245,"Delta":167709277},{"NoteNumber":62,"Velocity":28,"Duration":192123,"SoundDuration":192123,"Delta":167709277},{"NoteNumber":65,"Velocity":21,"Duration":192122,"SoundDuration":192122,"Delta":167901400},{"NoteNumber":84,"Velocity":50,"Duration":384245,"SoundDuration":384245,"Delta":168093523},{"NoteNumber":60,"Velocity":31,"Duration":192123,"SoundDuration":192123,"Delta":168093523},{"NoteNumber":65,"Velocity":24,"Duration":192122,"SoundDuration":192122,"Delta":168285646},{"NoteNumber":86,"Velocity":51,"Duration":391773,"SoundDuration":391773,"Delta":168477769},{"NoteNumber":58,"Velocity":31,"Duration":195886,"SoundDuration":195886,"Delta":168477769},{"NoteNumber":65,"Velocity":25,"Duration":195886,"SoundDuration":195886,"Delta":168673655},{"NoteNumber":84,"Velocity":51,"Duration":578219,"SoundDuration":578219,"Delta":168869542},{"NoteNumber":57,"Velocity":31,"Duration":192739,"SoundDuration":192739,"Delta":168869542},{"NoteNumber":65,"Velocity":28,"Duration":192740,"SoundDuration":192740,"Delta":169062282},{"NoteNumber":64,"Velocity":31,"Duration":192739,"SoundDuration":192739,"Delta":169255022},{"NoteNumber":86,"Velocity":48,"Duration":106007,"SoundDuration":106007,"Delta":169447762},{"NoteNumber":65,"Velocity":28,"Duration":192740,"SoundDuration":192740,"Delta":169447762},{"NoteNumber":84,"Velocity":43,"Duration":106007,"SoundDuration":106007,"Delta":169544132},{"NoteNumber":82,"Velocity":50,"Duration":106007,"SoundDuration":106007,"Delta":169640502},{"NoteNumber":58,"Velocity":31,"Duration":192739,"SoundDuration":192739,"Delta":169640502},{"NoteNumber":81,"Velocity":48,"Duration":106326,"SoundDuration":106326,"Delta":169736872},{"NoteNumber":79,"Velocity":47,"Duration":109525,"SoundDuration":109525,"Delta":169833242},{"NoteNumber":67,"Velocity":27,"Duration":199137,"SoundDuration":199137,"Delta":169833242},{"NoteNumber":77,"Velocity":45,"Duration":99568,"SoundDuration":99568,"Delta":169932810},{"NoteNumber":81,"Velocity":48,"Duration":578219,"SoundDuration":578219,"Delta":170032379},{"NoteNumber":60,"Velocity":31,"Duration":192739,"SoundDuration":192739,"Delta":170032379},{"NoteNumber":69,"Velocity":27,"Duration":192740,"SoundDuration":192740,"Delta":170225119},{"NoteNumber":65,"Velocity":31,"Duration":192739,"SoundDuration":192739,"Delta":170417859},{"NoteNumber":82,"Velocity":40,"Duration":192740,"SoundDuration":192740,"Delta":170610599},{"NoteNumber":69,"Velocity":29,"Duration":192740,"SoundDuration":192740,"Delta":170610599},{"NoteNumber":79,"Velocity":44,"Duration":392539,"SoundDuration":392539,"Delta":170803339},{"NoteNumber":60,"Velocity":31,"Duration":192739,"SoundDuration":192739,"Delta":170803339},{"NoteNumber":70,"Velocity":27,"Duration":199800,"SoundDuration":199800,"Delta":170996079},{"NoteNumber":77,"Velocity":46,"Duration":389947,"SoundDuration":389947,"Delta":171195879},{"NoteNumber":69,"Velocity":31,"Duration":197823,"SoundDuration":197823,"Delta":171195879},{"NoteNumber":65,"Velocity":24,"Duration":192123,"SoundDuration":192123,"Delta":171393703},{"NoteNumber":64,"Velocity":30,"Duration":192184,"SoundDuration":192184,"Delta":171585826},{"NoteNumber":63,"Velocity":26,"Duration":192245,"SoundDuration":192245,"Delta":171778010},{"NoteNumber":62,"Velocity":29,"Duration":192863,"SoundDuration":192863,"Delta":171970256},{"NoteNumber":61,"Velocity":31,"Duration":197823,"SoundDuration":197823,"Delta":172163120},{"NoteNumber":70,"Velocity":52,"Duration":194615,"SoundDuration":194615,"Delta":172360944},{"NoteNumber":62,"Velocity":28,"Duration":194615,"SoundDuration":194615,"Delta":172360944},{"NoteNumber":82,"Velocity":47,"Duration":192123,"SoundDuration":192123,"Delta":172555560},{"NoteNumber":65,"Velocity":27,"Duration":192123,"SoundDuration":192123,"Delta":172555560},{"NoteNumber":72,"Velocity":54,"Duration":192123,"SoundDuration":192123,"Delta":172747683},{"NoteNumber":60,"Velocity":38,"Duration":192123,"SoundDuration":192123,"Delta":172747683},{"NoteNumber":84,"Velocity":47,"Duration":192122,"SoundDuration":192122,"Delta":172939806},{"NoteNumber":64,"Velocity":32,"Duration":192122,"SoundDuration":192122,"Delta":172939806},{"NoteNumber":74,"Velocity":58,"Duration":192123,"SoundDuration":192123,"Delta":173131929},{"NoteNumber":59,"Velocity":40,"Duration":192123,"SoundDuration":192123,"Delta":173131929},{"NoteNumber":86,"Velocity":52,"Duration":196528,"SoundDuration":196528,"Delta":173324052},{"NoteNumber":68,"Velocity":34,"Duration":196528,"SoundDuration":196528,"Delta":173324052},{"NoteNumber":84,"Velocity":61,"Duration":192739,"SoundDuration":192739,"Delta":173520580},{"NoteNumber":60,"Velocity":41,"Duration":192739,"SoundDuration":192739,"Delta":173520580},{"NoteNumber":86,"Velocity":54,"Duration":106007,"SoundDuration":106007,"Delta":173713320},{"NoteNumber":69,"Velocity":35,"Duration":192740,"SoundDuration":192740,"Delta":173713320},{"NoteNumber":88,"Velocity":58,"Duration":106007,"SoundDuration":106007,"Delta":173809690},{"NoteNumber":89,"Velocity":61,"Duration":106007,"SoundDuration":106007,"Delta":173906060},{"NoteNumber":65,"Velocity":38,"Duration":192739,"SoundDuration":192739,"Delta":173906060},{"NoteNumber":88,"Velocity":61,"Duration":106007,"SoundDuration":106007,"Delta":174002430},{"NoteNumber":86,"Velocity":60,"Duration":106007,"SoundDuration":106007,"Delta":174098800},{"NoteNumber":69,"Velocity":33,"Duration":192740,"SoundDuration":192740,"Delta":174098800},{"NoteNumber":84,"Velocity":58,"Duration":106007,"SoundDuration":106007,"Delta":174195170},{"NoteNumber":82,"Velocity":57,"Duration":106007,"SoundDuration":106007,"Delta":174291540},{"NoteNumber":60,"Velocity":40,"Duration":192739,"SoundDuration":192739,"Delta":174291540},{"NoteNumber":81,"Velocity":55,"Duration":106326,"SoundDuration":106326,"Delta":174387910},{"NoteNumber":79,"Velocity":54,"Duration":109525,"SoundDuration":109525,"Delta":174484280},{"NoteNumber":69,"Velocity":35,"Duration":199137,"SoundDuration":199137,"Delta":174484280},{"NoteNumber":77,"Velocity":52,"Duration":99568,"SoundDuration":99568,"Delta":174583848},{"NoteNumber":81,"Velocity":62,"Duration":578219,"SoundDuration":578219,"Delta":174683417},{"NoteNumber":60,"Velocity":41,"Duration":192739,"SoundDuration":192739,"Delta":174683417},{"NoteNumber":72,"Velocity":33,"Duration":192740,"SoundDuration":192740,"Delta":174876157},{"NoteNumber":69,"Velocity":43,"Duration":192739,"SoundDuration":192739,"Delta":175068897},{"NoteNumber":82,"Velocity":56,"Duration":192740,"SoundDuration":192740,"Delta":175261637},{"NoteNumber":72,"Velocity":33,"Duration":192740,"SoundDuration":192740,"Delta":175261637},{"NoteNumber":79,"Velocity":62,"Duration":392539,"SoundDuration":392539,"Delta":175454377},{"NoteNumber":60,"Velocity":45,"Duration":192739,"SoundDuration":192739,"Delta":175454377},{"NoteNumber":70,"Velocity":38,"Duration":199800,"SoundDuration":199800,"Delta":175647117},{"NoteNumber":77,"Velocity":67,"Duration":389947,"SoundDuration":389947,"Delta":175846917},{"NoteNumber":53,"Velocity":54,"Duration":98911,"SoundDuration":98911,"Delta":175945829},{"NoteNumber":57,"Velocity":56,"Duration":96061,"SoundDuration":96061,"Delta":176044741},{"NoteNumber":60,"Velocity":59,"Duration":96061,"SoundDuration":96061,"Delta":176140802},{"NoteNumber":65,"Velocity":61,"Duration":192122,"SoundDuration":192122,"Delta":176236864},{"NoteNumber":84,"Velocity":60,"Duration":96061,"SoundDuration":96061,"Delta":176332925},{"NoteNumber":86,"Velocity":65,"Duration":104728,"SoundDuration":104728,"Delta":176428987},{"NoteNumber":84,"Velocity":60,"Duration":104728,"SoundDuration":104728,"Delta":176524195},{"NoteNumber":82,"Velocity":64,"Duration":104728,"SoundDuration":104728,"Delta":176619402},{"NoteNumber":60,"Velocity":54,"Duration":190415,"SoundDuration":190415,"Delta":176619402},{"NoteNumber":64,"Velocity":54,"Duration":190415,"SoundDuration":190415,"Delta":176619402},{"NoteNumber":81,"Velocity":62,"Duration":106389,"SoundDuration":106389,"Delta":176714610},{"NoteNumber":82,"Velocity":60,"Duration":122996,"SoundDuration":122996,"Delta":176809818},{"NoteNumber":79,"Velocity":58,"Duration":121706,"SoundDuration":121706,"Delta":176921633},{"NoteNumber":77,"Velocity":68,"Duration":389947,"SoundDuration":389947,"Delta":177033448},{"NoteNumber":41,"Velocity":54,"Duration":98911,"SoundDuration":98911,"Delta":177132360},{"NoteNumber":45,"Velocity":56,"Duration":96061,"SoundDuration":96061,"Delta":177231272},{"NoteNumber":48,"Velocity":59,"Duration":96061,"SoundDuration":96061,"Delta":177327334},{"NoteNumber":53,"Velocity":61,"Duration":192122,"SoundDuration":192122,"Delta":177423395},{"NoteNumber":72,"Velocity":60,"Duration":105612,"SoundDuration":105612,"Delta":177519457},{"NoteNumber":74,"Velocity":65,"Duration":105062,"SoundDuration":105062,"Delta":177615518},{"NoteNumber":72,"Velocity":60,"Duration":105062,"SoundDuration":105062,"Delta":177711029},{"NoteNumber":70,"Velocity":64,"Duration":105062,"SoundDuration":105062,"Delta":177806540},{"NoteNumber":48,"Velocity":54,"Duration":191022,"SoundDuration":191022,"Delta":177806540},{"NoteNumber":52,"Velocity":54,"Duration":191022,"SoundDuration":191022,"Delta":177806540},{"NoteNumber":69,"Velocity":62,"Duration":106692,"SoundDuration":106692,"Delta":177902051},{"NoteNumber":70,"Velocity":60,"Duration":122996,"SoundDuration":122996,"Delta":177997562},{"NoteNumber":67,"Velocity":58,"Duration":122996,"SoundDuration":122996,"Delta":178109378},{"NoteNumber":65,"Velocity":71,"Duration":111815,"SoundDuration":111815,"Delta":178221193},{"NoteNumber":53,"Velocity":59,"Duration":111815,"SoundDuration":111815,"Delta":178221193},{"NoteNumber":69,"Velocity":59,"Duration":447260,"SoundDuration":447260,"Delta":178668454},{"NoteNumber":72,"Velocity":59,"Duration":447260,"SoundDuration":447260,"Delta":178668454},{"NoteNumber":77,"Velocity":77,"Duration":447260,"SoundDuration":447260,"Delta":178668454},{"NoteNumber":41,"Velocity":59,"Duration":447260,"SoundDuration":447260,"Delta":178668454},{"NoteNumber":66,"Velocity":71,"Duration":485241,"SoundDuration":485241,"Delta":179562976},{"NoteNumber":51,"Velocity":59,"Duration":485241,"SoundDuration":485241,"Delta":179562976},{"NoteNumber":68,"Velocity":59,"Duration":485241,"SoundDuration":485241,"Delta":180048217},{"NoteNumber":72,"Velocity":59,"Duration":485241,"SoundDuration":485241,"Delta":180048217},{"NoteNumber":78,"Velocity":77,"Duration":485241,"SoundDuration":485241,"Delta":180048217},{"NoteNumber":39,"Velocity":59,"Duration":485241,"SoundDuration":485241,"Delta":180048217},{"NoteNumber":61,"Velocity":43,"Duration":744648,"SoundDuration":744648,"Delta":181018699},{"NoteNumber":49,"Velocity":20,"Duration":1127338,"SoundDuration":1127338,"Delta":181018699},{"NoteNumber":53,"Velocity":33,"Duration":186161,"SoundDuration":186161,"Delta":181018699},{"NoteNumber":56,"Velocity":23,"Duration":186161,"SoundDuration":186161,"Delta":181204861},{"NoteNumber":53,"Velocity":27,"Duration":186161,"SoundDuration":186161,"Delta":181391023},{"NoteNumber":56,"Velocity":22,"Duration":186162,"SoundDuration":186162,"Delta":181577185},{"NoteNumber":63,"Velocity":36,"Duration":102389,"SoundDuration":102389,"Delta":181763347},{"NoteNumber":53,"Velocity":26,"Duration":186161,"SoundDuration":186161,"Delta":181763347},{"NoteNumber":61,"Velocity":36,"Duration":102907,"SoundDuration":102907,"Delta":181856428},{"NoteNumber":60,"Velocity":36,"Duration":108090,"SoundDuration":108090,"Delta":181949509},{"NoteNumber":56,"Velocity":22,"Duration":196528,"SoundDuration":196528,"Delta":181949509},{"NoteNumber":61,"Velocity":36,"Duration":98264,"SoundDuration":98264,"Delta":182047773},{"NoteNumber":70,"Velocity":42,"Duration":185586,"SoundDuration":185586,"Delta":182146037},{"NoteNumber":48,"Velocity":20,"Duration":1131574,"SoundDuration":1131574,"Delta":182146037},{"NoteNumber":54,"Velocity":36,"Duration":185586,"SoundDuration":185586,"Delta":182146037},{"NoteNumber":68,"Velocity":37,"Duration":180946,"SoundDuration":180946,"Delta":182331623},{"NoteNumber":56,"Velocity":23,"Duration":185586,"SoundDuration":185586,"Delta":182331623},{"NoteNumber":68,"Velocity":43,"Duration":371172,"SoundDuration":371172,"Delta":182517209},{"NoteNumber":54,"Velocity":27,"Duration":185586,"SoundDuration":185586,"Delta":182517209},{"NoteNumber":56,"Velocity":23,"Duration":185586,"SoundDuration":185586,"Delta":182702795},{"NoteNumber":68,"Velocity":38,"Duration":389230,"SoundDuration":389230,"Delta":182888381},{"NoteNumber":54,"Velocity":27,"Duration":194615,"SoundDuration":194615,"Delta":182888381},{"NoteNumber":56,"Velocity":24,"Duration":194615,"SoundDuration":194615,"Delta":183082996},{"NoteNumber":68,"Velocity":39,"Duration":196546,"SoundDuration":196546,"Delta":183277612},{"NoteNumber":49,"Velocity":20,"Duration":1122567,"SoundDuration":1122567,"Delta":183277612},{"NoteNumber":53,"Velocity":33,"Duration":187324,"SoundDuration":187324,"Delta":183277612},{"NoteNumber":73,"Velocity":45,"Duration":193667,"SoundDuration":193667,"Delta":183464936},{"NoteNumber":56,"Velocity":23,"Duration":184445,"SoundDuration":184445,"Delta":183464936},{"NoteNumber":72,"Velocity":44,"Duration":193616,"SoundDuration":193616,"Delta":183649381},{"NoteNumber":53,"Velocity":27,"Duration":184444,"SoundDuration":184444,"Delta":183649381},{"NoteNumber":71,"Velocity":41,"Duration":192652,"SoundDuration":192652,"Delta":183833826},{"NoteNumber":56,"Velocity":23,"Duration":183429,"SoundDuration":183429,"Delta":183833826},{"NoteNumber":70,"Velocity":40,"Duration":194368,"SoundDuration":194368,"Delta":184017256},{"NoteNumber":53,"Velocity":27,"Duration":184445,"SoundDuration":184445,"Delta":184017256},{"NoteNumber":69,"Velocity":38,"Duration":207786,"SoundDuration":207786,"Delta":184201701},{"NoteNumber":56,"Velocity":25,"Duration":198478,"SoundDuration":198478,"Delta":184201701},{"NoteNumber":68,"Velocity":41,"Duration":372323,"SoundDuration":372323,"Delta":184400180},{"NoteNumber":48,"Velocity":20,"Duration":1116972,"SoundDuration":1116972,"Delta":184400180},{"NoteNumber":54,"Velocity":31,"Duration":186161,"SoundDuration":186161,"Delta":184400180},{"NoteNumber":56,"Velocity":27,"Duration":186161,"SoundDuration":186161,"Delta":184586342},{"NoteNumber":54,"Velocity":27,"Duration":186161,"SoundDuration":186161,"Delta":184772504},{"NoteNumber":56,"Velocity":24,"Duration":186162,"SoundDuration":186162,"Delta":184958666},{"NoteNumber":54,"Velocity":27,"Duration":186161,"SoundDuration":186161,"Delta":185144828},{"NoteNumber":56,"Velocity":23,"Duration":186161,"SoundDuration":186161,"Delta":185330990},{"NoteNumber":61,"Velocity":45,"Duration":744648,"SoundDuration":744648,"Delta":185517152},{"NoteNumber":49,"Velocity":21,"Duration":1127338,"SoundDuration":1127338,"Delta":185517152},{"NoteNumber":53,"Velocity":35,"Duration":186161,"SoundDuration":186161,"Delta":185517152},{"NoteNumber":56,"Velocity":24,"Duration":186161,"SoundDuration":186161,"Delta":185703314},{"NoteNumber":53,"Velocity":28,"Duration":186161,"SoundDuration":186161,"Delta":185889476},{"NoteNumber":56,"Velocity":23,"Duration":186162,"SoundDuration":186162,"Delta":186075638},{"NoteNumber":63,"Velocity":42,"Duration":102389,"SoundDuration":102389,"Delta":186261800},{"NoteNumber":53,"Velocity":27,"Duration":186161,"SoundDuration":186161,"Delta":186261800},{"NoteNumber":61,"Velocity":39,"Duration":102907,"SoundDuration":102907,"Delta":186354881},{"NoteNumber":60,"Velocity":42,"Duration":108090,"SoundDuration":108090,"Delta":186447962},{"NoteNumber":56,"Velocity":23,"Duration":196528,"SoundDuration":196528,"Delta":186447962},{"NoteNumber":61,"Velocity":40,"Duration":98264,"SoundDuration":98264,"Delta":186546226},{"NoteNumber":70,"Velocity":54,"Duration":185586,"SoundDuration":185586,"Delta":186644490},{"NoteNumber":48,"Velocity":21,"Duration":1131574,"SoundDuration":1131574,"Delta":186644490},{"NoteNumber":51,"Velocity":38,"Duration":185586,"SoundDuration":185586,"Delta":186644490},{"NoteNumber":69,"Velocity":48,"Duration":185586,"SoundDuration":185586,"Delta":186830076},{"NoteNumber":54,"Velocity":24,"Duration":185586,"SoundDuration":185586,"Delta":186830076},{"NoteNumber":69,"Velocity":53,"Duration":371172,"SoundDuration":371172,"Delta":187015662},{"NoteNumber":51,"Velocity":32,"Duration":185586,"SoundDuration":185586,"Delta":187015662},{"NoteNumber":54,"Velocity":28,"Duration":185586,"SoundDuration":185586,"Delta":187201248},{"NoteNumber":69,"Velocity":47,"Duration":389230,"SoundDuration":389230,"Delta":187386834},{"NoteNumber":51,"Velocity":32,"Duration":194615,"SoundDuration":194615,"Delta":187386834},{"NoteNumber":54,"Velocity":27,"Duration":194615,"SoundDuration":194615,"Delta":187581449},{"NoteNumber":70,"Velocity":50,"Duration":196546,"SoundDuration":196546,"Delta":187776065},{"NoteNumber":49,"Velocity":23,"Duration":1123582,"SoundDuration":1123582,"Delta":187776065},{"NoteNumber":53,"Velocity":37,"Duration":187324,"SoundDuration":187324,"Delta":187776065},{"NoteNumber":77,"Velocity":54,"Duration":193667,"SoundDuration":193667,"Delta":187963389},{"NoteNumber":58,"Velocity":32,"Duration":184445,"SoundDuration":184445,"Delta":187963389},{"NoteNumber":73,"Velocity":55,"Duration":193667,"SoundDuration":193667,"Delta":188147834},{"NoteNumber":53,"Velocity":34,"Duration":184444,"SoundDuration":184444,"Delta":188147834},{"NoteNumber":72,"Velocity":53,"Duration":193667,"SoundDuration":193667,"Delta":188332279},{"NoteNumber":58,"Velocity":29,"Duration":184445,"SoundDuration":184445,"Delta":188332279},{"NoteNumber":70,"Velocity":51,"Duration":194368,"SoundDuration":194368,"Delta":188516724},{"NoteNumber":53,"Velocity":30,"Duration":184445,"SoundDuration":184445,"Delta":188516724},{"NoteNumber":68,"Velocity":50,"Duration":207786,"SoundDuration":207786,"Delta":188701169},{"NoteNumber":58,"Velocity":28,"Duration":198478,"SoundDuration":198478,"Delta":188701169},{"NoteNumber":67,"Velocity":50,"Duration":372323,"SoundDuration":372323,"Delta":188899648},{"NoteNumber":52,"Velocity":23,"Duration":1116972,"SoundDuration":1116972,"Delta":188899648},{"NoteNumber":58,"Velocity":37,"Duration":186161,"SoundDuration":186161,"Delta":188899648},{"NoteNumber":61,"Velocity":30,"Duration":186161,"SoundDuration":186161,"Delta":189085810},{"NoteNumber":58,"Velocity":30,"Duration":186161,"SoundDuration":186161,"Delta":189271972},{"NoteNumber":61,"Velocity":27,"Duration":195470,"SoundDuration":195470,"Delta":189458134},{"NoteNumber":58,"Velocity":30,"Duration":186161,"SoundDuration":186161,"Delta":189644296},{"NoteNumber":61,"Velocity":26,"Duration":186161,"SoundDuration":186161,"Delta":189830458},{"NoteNumber":68,"Velocity":59,"Duration":196546,"SoundDuration":196546,"Delta":190016620},{"NoteNumber":53,"Velocity":25,"Duration":1122567,"SoundDuration":1122567,"Delta":190016620},{"NoteNumber":56,"Velocity":40,"Duration":187324,"SoundDuration":187324,"Delta":190016620},{"NoteNumber":80,"Velocity":62,"Duration":193667,"SoundDuration":193667,"Delta":190203944},{"NoteNumber":60,"Velocity":28,"Duration":184445,"SoundDuration":184445,"Delta":190203944},{"NoteNumber":77,"Velocity":61,"Duration":193616,"SoundDuration":193616,"Delta":190388389},{"NoteNumber":56,"Velocity":33,"Duration":184444,"SoundDuration":184444,"Delta":190388389},{"NoteNumber":75,"Velocity":60,"Duration":192652,"SoundDuration":192652,"Delta":190572834},{"NoteNumber":60,"Velocity":28,"Duration":183429,"SoundDuration":183429,"Delta":190572834},{"NoteNumber":74,"Velocity":58,"Duration":194368,"SoundDuration":194368,"Delta":190756264},{"NoteNumber":56,"Velocity":36,"Duration":184445,"SoundDuration":184445,"Delta":190756264},{"NoteNumber":72,"Velocity":57,"Duration":207786,"SoundDuration":207786,"Delta":190940709},{"NoteNumber":60,"Velocity":32,"Duration":198478,"SoundDuration":198478,"Delta":190940709},{"NoteNumber":71,"Velocity":62,"Duration":372323,"SoundDuration":372323,"Delta":191139188},{"NoteNumber":55,"Velocity":36,"Duration":1116972,"SoundDuration":1116972,"Delta":191139188},{"NoteNumber":62,"Velocity":36,"Duration":186161,"SoundDuration":186161,"Delta":191139188},{"NoteNumber":65,"Velocity":29,"Duration":186161,"SoundDuration":186161,"Delta":191325350},{"NoteNumber":62,"Velocity":34,"Duration":186161,"SoundDuration":186161,"Delta":191511512},{"NoteNumber":65,"Velocity":28,"Duration":195470,"SoundDuration":195470,"Delta":191697674},{"NoteNumber":62,"Velocity":35,"Duration":186161,"SoundDuration":186161,"Delta":191883836},{"NoteNumber":65,"Velocity":28,"Duration":186161,"SoundDuration":186161,"Delta":192069998},{"NoteNumber":72,"Velocity":61,"Duration":196546,"SoundDuration":196546,"Delta":192256160},{"NoteNumber":56,"Velocity":42,"Duration":1122567,"SoundDuration":1122567,"Delta":192256160},{"NoteNumber":60,"Velocity":42,"Duration":187324,"SoundDuration":187324,"Delta":192256160},{"NoteNumber":87,"Velocity":64,"Duration":193667,"SoundDuration":193667,"Delta":192443484},{"NoteNumber":63,"Velocity":26,"Duration":184445,"SoundDuration":184445,"Delta":192443484},{"NoteNumber":84,"Velocity":61,"Duration":193667,"SoundDuration":193667,"Delta":192627929},{"NoteNumber":60,"Velocity":38,"Duration":184444,"SoundDuration":184444,"Delta":192627929},{"NoteNumber":82,"Velocity":60,"Duration":193616,"SoundDuration":193616,"Delta":192812374},{"NoteNumber":63,"Velocity":31,"Duration":184445,"SoundDuration":184445,"Delta":192812374},{"NoteNumber":80,"Velocity":55,"Duration":193353,"SoundDuration":193353,"Delta":192996819},{"NoteNumber":60,"Velocity":38,"Duration":183429,"SoundDuration":183429,"Delta":192996819},{"NoteNumber":79,"Velocity":56,"Duration":207786,"SoundDuration":207786,"Delta":193180249},{"NoteNumber":63,"Velocity":35,"Duration":198478,"SoundDuration":198478,"Delta":193180249},{"NoteNumber":78,"Velocity":60,"Duration":372323,"SoundDuration":372323,"Delta":193378728},{"NoteNumber":57,"Velocity":41,"Duration":1118711,"SoundDuration":1118711,"Delta":193378728},{"NoteNumber":60,"Velocity":41,"Duration":186161,"SoundDuration":186161,"Delta":193378728},{"NoteNumber":62,"Velocity":33,"Duration":186161,"SoundDuration":186161,"Delta":193564890},{"NoteNumber":60,"Velocity":37,"Duration":186161,"SoundDuration":186161,"Delta":193751052},{"NoteNumber":62,"Velocity":28,"Duration":195470,"SoundDuration":195470,"Delta":193937214},{"NoteNumber":60,"Velocity":35,"Duration":186161,"SoundDuration":186161,"Delta":194123376},{"NoteNumber":62,"Velocity":28,"Duration":187901,"SoundDuration":187901,"Delta":194309538},{"NoteNumber":79,"Velocity":58,"Duration":196546,"SoundDuration":196546,"Delta":194497440},{"NoteNumber":58,"Velocity":22,"Duration":1123582,"SoundDuration":1123582,"Delta":194497440},{"NoteNumber":62,"Velocity":36,"Duration":187324,"SoundDuration":187324,"Delta":194497440},{"NoteNumber":82,"Velocity":60,"Duration":193667,"SoundDuration":193667,"Delta":194684764},{"NoteNumber":67,"Velocity":29,"Duration":184445,"SoundDuration":184445,"Delta":194684764},{"NoteNumber":79,"Velocity":58,"Duration":193667,"SoundDuration":193667,"Delta":194869209},{"NoteNumber":62,"Velocity":34,"Duration":184444,"SoundDuration":184444,"Delta":194869209},{"NoteNumber":77,"Velocity":55,"Duration":193667,"SoundDuration":193667,"Delta":195053654},{"NoteNumber":67,"Velocity":28,"Duration":184445,"SoundDuration":184445,"Delta":195053654},{"NoteNumber":75,"Velocity":53,"Duration":194368,"SoundDuration":194368,"Delta":195238099},{"NoteNumber":62,"Velocity":34,"Duration":184445,"SoundDuration":184445,"Delta":195238099},{"NoteNumber":74,"Velocity":50,"Duration":207786,"SoundDuration":207786,"Delta":195422544},{"NoteNumber":67,"Velocity":27,"Duration":198478,"SoundDuration":198478,"Delta":195422544},{"NoteNumber":73,"Velocity":57,"Duration":372323,"SoundDuration":372323,"Delta":195621023},{"NoteNumber":63,"Velocity":29,"Duration":1118711,"SoundDuration":1118711,"Delta":195621023},{"NoteNumber":67,"Velocity":36,"Duration":186161,"SoundDuration":186161,"Delta":195621023},{"NoteNumber":69,"Velocity":28,"Duration":186161,"SoundDuration":186161,"Delta":195807185},{"NoteNumber":67,"Velocity":34,"Duration":186161,"SoundDuration":186161,"Delta":195993347},{"NoteNumber":69,"Velocity":27,"Duration":195470,"SoundDuration":195470,"Delta":196179509},{"NoteNumber":67,"Velocity":34,"Duration":186161,"SoundDuration":186161,"Delta":196365671},{"NoteNumber":69,"Velocity":25,"Duration":187901,"SoundDuration":187901,"Delta":196551833},{"NoteNumber":62,"Velocity":44,"Duration":383895,"SoundDuration":383895,"Delta":196739735},{"NoteNumber":66,"Velocity":44,"Duration":383895,"SoundDuration":383895,"Delta":196739735},{"NoteNumber":74,"Velocity":46,"Duration":96143,"SoundDuration":96143,"Delta":196836265},{"NoteNumber":73,"Velocity":49,"Duration":95836,"SoundDuration":95836,"Delta":196932409},{"NoteNumber":74,"Velocity":44,"Duration":95384,"SoundDuration":95384,"Delta":197028245},{"NoteNumber":76,"Velocity":49,"Duration":95077,"SoundDuration":95077,"Delta":197123630},{"NoteNumber":74,"Velocity":44,"Duration":94702,"SoundDuration":94702,"Delta":197218707},{"NoteNumber":73,"Velocity":49,"Duration":94404,"SoundDuration":94404,"Delta":197313410},{"NoteNumber":74,"Velocity":44,"Duration":94034,"SoundDuration":94034,"Delta":197407814},{"NoteNumber":72,"Velocity":47,"Duration":187319,"SoundDuration":187319,"Delta":197501848},{"NoteNumber":74,"Velocity":49,"Duration":93652,"SoundDuration":93652,"Delta":197595515},{"NoteNumber":78,"Velocity":54,"Duration":93370,"SoundDuration":93370,"Delta":197689168},{"NoteNumber":74,"Velocity":49,"Duration":93361,"SoundDuration":93361,"Delta":197782539},{"NoteNumber":70,"Velocity":51,"Duration":186161,"SoundDuration":186161,"Delta":197875900},{"NoteNumber":74,"Velocity":53,"Duration":93080,"SoundDuration":93080,"Delta":197968981},{"NoteNumber":79,"Velocity":57,"Duration":93081,"SoundDuration":93081,"Delta":198062062},{"NoteNumber":74,"Velocity":52,"Duration":93080,"SoundDuration":93080,"Delta":198155143},{"NoteNumber":66,"Velocity":58,"Duration":185127,"SoundDuration":185127,"Delta":198248224},{"NoteNumber":74,"Velocity":55,"Duration":92563,"SoundDuration":92563,"Delta":198340788},{"NoteNumber":84,"Velocity":61,"Duration":92564,"SoundDuration":92564,"Delta":198433352},{"NoteNumber":74,"Velocity":57,"Duration":92564,"SoundDuration":92564,"Delta":198525916},{"NoteNumber":67,"Velocity":54,"Duration":185127,"SoundDuration":185127,"Delta":198618480},{"NoteNumber":74,"Velocity":57,"Duration":92564,"SoundDuration":92564,"Delta":198711044},{"NoteNumber":82,"Velocity":64,"Duration":99239,"SoundDuration":99239,"Delta":198803608},{"NoteNumber":74,"Velocity":57,"Duration":99239,"SoundDuration":99239,"Delta":198902847},{"NoteNumber":81,"Velocity":64,"Duration":94415,"SoundDuration":94415,"Delta":199002086},{"NoteNumber":62,"Velocity":53,"Duration":373658,"SoundDuration":373658,"Delta":199002086},{"NoteNumber":78,"Velocity":57,"Duration":93081,"SoundDuration":93081,"Delta":199096501},{"NoteNumber":76,"Velocity":59,"Duration":93081,"SoundDuration":93081,"Delta":199189582},{"NoteNumber":74,"Velocity":57,"Duration":93080,"SoundDuration":93080,"Delta":199282663},{"NoteNumber":73,"Velocity":57,"Duration":93081,"SoundDuration":93081,"Delta":199375744},{"NoteNumber":74,"Velocity":59,"Duration":93080,"SoundDuration":93080,"Delta":199468825},{"NoteNumber":76,"Velocity":60,"Duration":93081,"SoundDuration":93081,"Delta":199561906},{"NoteNumber":74,"Velocity":56,"Duration":94067,"SoundDuration":94067,"Delta":199654987},{"NoteNumber":72,"Velocity":48,"Duration":191464,"SoundDuration":191464,"Delta":199749055},{"NoteNumber":74,"Velocity":49,"Duration":95683,"SoundDuration":95683,"Delta":199844835},{"NoteNumber":78,"Velocity":53,"Duration":95450,"SoundDuration":95450,"Delta":199940519},{"NoteNumber":74,"Velocity":49,"Duration":95228,"SoundDuration":95228,"Delta":200035969},{"NoteNumber":70,"Velocity":57,"Duration":189924,"SoundDuration":189924,"Delta":200131197},{"NoteNumber":74,"Velocity":52,"Duration":94846,"SoundDuration":94846,"Delta":200226275},{"NoteNumber":79,"Velocity":58,"Duration":94702,"SoundDuration":94702,"Delta":200321122},{"NoteNumber":74,"Velocity":54,"Duration":94547,"SoundDuration":94547,"Delta":200415824},{"NoteNumber":66,"Velocity":59,"Duration":188363,"SoundDuration":188363,"Delta":200510372},{"NoteNumber":74,"Velocity":55,"Duration":94108,"SoundDuration":94108,"Delta":200604627},{"NoteNumber":84,"Velocity":61,"Duration":93955,"SoundDuration":93955,"Delta":200698735},{"NoteNumber":74,"Velocity":55,"Duration":93438,"SoundDuration":93438,"Delta":200792691},{"NoteNumber":67,"Velocity":54,"Duration":186369,"SoundDuration":186369,"Delta":200886130},{"NoteNumber":74,"Velocity":49,"Duration":93081,"SoundDuration":93081,"Delta":200979418},{"NoteNumber":82,"Velocity":68,"Duration":96993,"SoundDuration":96993,"Delta":201072499},{"NoteNumber":74,"Velocity":62,"Duration":95722,"SoundDuration":95722,"Delta":201169492},{"NoteNumber":81,"Velocity":70,"Duration":92793,"SoundDuration":92793,"Delta":201265215},{"NoteNumber":62,"Velocity":58,"Duration":371105,"SoundDuration":371105,"Delta":201265215},{"NoteNumber":86,"Velocity":60,"Duration":92793,"SoundDuration":92793,"Delta":201358008},{"NoteNumber":81,"Velocity":69,"Duration":92793,"SoundDuration":92793,"Delta":201450801},{"NoteNumber":78,"Velocity":57,"Duration":92726,"SoundDuration":92726,"Delta":201543594},{"NoteNumber":74,"Velocity":67,"Duration":92645,"SoundDuration":92645,"Delta":201636320},{"NoteNumber":81,"Velocity":55,"Duration":93143,"SoundDuration":93143,"Delta":201728965},{"NoteNumber":78,"Velocity":61,"Duration":93584,"SoundDuration":93584,"Delta":201822109},{"NoteNumber":74,"Velocity":54,"Duration":94093,"SoundDuration":94093,"Delta":201915693},{"NoteNumber":69,"Velocity":63,"Duration":94538,"SoundDuration":94538,"Delta":202009787},{"NoteNumber":74,"Velocity":55,"Duration":94992,"SoundDuration":94992,"Delta":202104325},{"NoteNumber":62,"Velocity":47,"Duration":94992,"SoundDuration":94992,"Delta":202104325},{"NoteNumber":69,"Velocity":65,"Duration":95592,"SoundDuration":95592,"Delta":202199317},{"NoteNumber":57,"Velocity":54,"Duration":95592,"SoundDuration":95592,"Delta":202199317},{"NoteNumber":66,"Velocity":59,"Duration":103698,"SoundDuration":103698,"Delta":202294910},{"NoteNumber":54,"Velocity":47,"Duration":103698,"SoundDuration":103698,"Delta":202294910},{"NoteNumber":62,"Velocity":85,"Duration":100570,"SoundDuration":100570,"Delta":202398608},{"NoteNumber":50,"Velocity":69,"Duration":100570,"SoundDuration":100570,"Delta":202398608},{"NoteNumber":69,"Velocity":62,"Duration":443950,"SoundDuration":443950,"Delta":202800888},{"NoteNumber":66,"Velocity":62,"Duration":443950,"SoundDuration":443950,"Delta":202800888},{"NoteNumber":74,"Velocity":73,"Duration":443950,"SoundDuration":443950,"Delta":202800888},{"NoteNumber":38,"Velocity":59,"Duration":443950,"SoundDuration":443950,"Delta":202800888},{"NoteNumber":55,"Velocity":34,"Duration":766521,"SoundDuration":766521,"Delta":203688790},{"NoteNumber":50,"Velocity":30,"Duration":413364,"SoundDuration":413364,"Delta":204438088},{"NoteNumber":47,"Velocity":34,"Duration":759275,"SoundDuration":759275,"Delta":204851453},{"NoteNumber":50,"Velocity":32,"Duration":406365,"SoundDuration":406365,"Delta":205593797},{"NoteNumber":55,"Velocity":34,"Duration":752601,"SoundDuration":752601,"Delta":206000163},{"NoteNumber":86,"Velocity":45,"Duration":45829,"SoundDuration":45829,"Delta":206186325},{"NoteNumber":86,"Velocity":49,"Duration":45829,"SoundDuration":45829,"Delta":206369643},{"NoteNumber":86,"Velocity":43,"Duration":45829,"SoundDuration":45829,"Delta":206552961},{"NoteNumber":86,"Velocity":46,"Duration":49455,"SoundDuration":49455,"Delta":206736279},{"NoteNumber":59,"Velocity":36,"Duration":395647,"SoundDuration":395647,"Delta":206736279},{"NoteNumber":86,"Velocity":40,"Duration":49455,"SoundDuration":49455,"Delta":206934103},{"NoteNumber":87,"Velocity":45,"Duration":196078,"SoundDuration":196078,"Delta":207131927},{"NoteNumber":62,"Velocity":38,"Duration":373482,"SoundDuration":373482,"Delta":207131927},{"NoteNumber":86,"Velocity":40,"Duration":196078,"SoundDuration":196078,"Delta":207318669},{"NoteNumber":84,"Velocity":43,"Duration":196078,"SoundDuration":196078,"Delta":207505410},{"NoteNumber":83,"Velocity":40,"Duration":196137,"SoundDuration":196137,"Delta":207692152},{"NoteNumber":80,"Velocity":45,"Duration":197579,"SoundDuration":197579,"Delta":207878893},{"NoteNumber":79,"Velocity":39,"Duration":193361,"SoundDuration":193361,"Delta":208066804},{"NoteNumber":79,"Velocity":41,"Duration":48340,"SoundDuration":48340,"Delta":208260166},{"NoteNumber":55,"Velocity":34,"Duration":772558,"SoundDuration":772558,"Delta":208260166},{"NoteNumber":80,"Velocity":39,"Duration":48340,"SoundDuration":48340,"Delta":208308506},{"NoteNumber":79,"Velocity":49,"Duration":96680,"SoundDuration":96680,"Delta":208356846},{"NoteNumber":77,"Velocity":44,"Duration":179519,"SoundDuration":179519,"Delta":208453527},{"NoteNumber":77,"Velocity":46,"Duration":374649,"SoundDuration":374649,"Delta":208640852},{"NoteNumber":50,"Velocity":30,"Duration":413364,"SoundDuration":413364,"Delta":209015501},{"NoteNumber":47,"Velocity":34,"Duration":759275,"SoundDuration":759275,"Delta":209428866},{"NoteNumber":50,"Velocity":32,"Duration":406365,"SoundDuration":406365,"Delta":210171210},{"NoteNumber":55,"Velocity":34,"Duration":752601,"SoundDuration":752601,"Delta":210577576},{"NoteNumber":77,"Velocity":45,"Duration":45829,"SoundDuration":45829,"Delta":210763738},{"NoteNumber":77,"Velocity":48,"Duration":45829,"SoundDuration":45829,"Delta":210947056},{"NoteNumber":77,"Velocity":42,"Duration":45829,"SoundDuration":45829,"Delta":211130374},{"NoteNumber":77,"Velocity":44,"Duration":49455,"SoundDuration":49455,"Delta":211313692},{"NoteNumber":59,"Velocity":36,"Duration":395647,"SoundDuration":395647,"Delta":211313692},{"NoteNumber":77,"Velocity":40,"Duration":49455,"SoundDuration":49455,"Delta":211511516},{"NoteNumber":79,"Velocity":45,"Duration":196078,"SoundDuration":196078,"Delta":211709340},{"NoteNumber":62,"Velocity":38,"Duration":373482,"SoundDuration":373482,"Delta":211709340},{"NoteNumber":77,"Velocity":40,"Duration":196078,"SoundDuration":196078,"Delta":211896081},{"NoteNumber":75,"Velocity":40,"Duration":196078,"SoundDuration":196078,"Delta":212082823},{"NoteNumber":74,"Velocity":40,"Duration":196078,"SoundDuration":196078,"Delta":212269564},{"NoteNumber":72,"Velocity":45,"Duration":197111,"SoundDuration":197111,"Delta":212456306},{"NoteNumber":71,"Velocity":39,"Duration":207396,"SoundDuration":207396,"Delta":212643047},{"NoteNumber":72,"Velocity":48,"Duration":766521,"SoundDuration":766521,"Delta":212850444},{"NoteNumber":67,"Velocity":42,"Duration":413364,"SoundDuration":413364,"Delta":213599742},{"NoteNumber":63,"Velocity":48,"Duration":759275,"SoundDuration":759275,"Delta":214013107},{"NoteNumber":67,"Velocity":45,"Duration":406365,"SoundDuration":406365,"Delta":214755451},{"NoteNumber":72,"Velocity":50,"Duration":752601,"SoundDuration":752601,"Delta":215161817},{"NoteNumber":55,"Velocity":39,"Duration":45829,"SoundDuration":45829,"Delta":215347979},{"NoteNumber":55,"Velocity":42,"Duration":45829,"SoundDuration":45829,"Delta":215531297},{"NoteNumber":55,"Velocity":37,"Duration":45829,"SoundDuration":45829,"Delta":215714615},{"NoteNumber":75,"Velocity":52,"Duration":395647,"SoundDuration":395647,"Delta":215897933},{"NoteNumber":55,"Velocity":39,"Duration":49455,"SoundDuration":49455,"Delta":215897933},{"NoteNumber":55,"Velocity":35,"Duration":49455,"SoundDuration":49455,"Delta":216095757},{"NoteNumber":79,"Velocity":56,"Duration":373482,"SoundDuration":373482,"Delta":216293581},{"NoteNumber":56,"Velocity":39,"Duration":196078,"SoundDuration":196078,"Delta":216293581},{"NoteNumber":55,"Velocity":35,"Duration":196078,"SoundDuration":196078,"Delta":216480323},{"NoteNumber":53,"Velocity":37,"Duration":196078,"SoundDuration":196078,"Delta":216667064},{"NoteNumber":51,"Velocity":35,"Duration":196137,"SoundDuration":196137,"Delta":216853806},{"NoteNumber":50,"Velocity":39,"Duration":197579,"SoundDuration":197579,"Delta":217040547},{"NoteNumber":48,"Velocity":34,"Duration":193361,"SoundDuration":193361,"Delta":217228458},{"NoteNumber":76,"Velocity":58,"Duration":772558,"SoundDuration":772558,"Delta":217421820},{"NoteNumber":48,"Velocity":35,"Duration":193361,"SoundDuration":193361,"Delta":217421820},{"NoteNumber":46,"Velocity":38,"Duration":187324,"SoundDuration":187324,"Delta":217615181},{"NoteNumber":46,"Velocity":39,"Duration":374649,"SoundDuration":374649,"Delta":217802506},{"NoteNumber":72,"Velocity":52,"Duration":413364,"SoundDuration":413364,"Delta":218177155},{"NoteNumber":67,"Velocity":55,"Duration":759275,"SoundDuration":759275,"Delta":218590520},{"NoteNumber":72,"Velocity":49,"Duration":406365,"SoundDuration":406365,"Delta":219332864},{"NoteNumber":76,"Velocity":53,"Duration":752601,"SoundDuration":752601,"Delta":219739230},{"NoteNumber":58,"Velocity":39,"Duration":45829,"SoundDuration":45829,"Delta":219925392},{"NoteNumber":58,"Velocity":41,"Duration":45829,"SoundDuration":45829,"Delta":220108710},{"NoteNumber":58,"Velocity":36,"Duration":45829,"SoundDuration":45829,"Delta":220292028},{"NoteNumber":79,"Velocity":54,"Duration":395647,"SoundDuration":395647,"Delta":220475346},{"NoteNumber":58,"Velocity":38,"Duration":49455,"SoundDuration":49455,"Delta":220475346},{"NoteNumber":58,"Velocity":35,"Duration":49455,"SoundDuration":49455,"Delta":220673170},{"NoteNumber":82,"Velocity":58,"Duration":373482,"SoundDuration":373482,"Delta":220870994},{"NoteNumber":60,"Velocity":39,"Duration":196078,"SoundDuration":196078,"Delta":220870994},{"NoteNumber":58,"Velocity":35,"Duration":195992,"SoundDuration":195992,"Delta":221057735},{"NoteNumber":56,"Velocity":35,"Duration":194264,"SoundDuration":194264,"Delta":221244477},{"NoteNumber":55,"Velocity":35,"Duration":194264,"SoundDuration":194264,"Delta":221429491},{"NoteNumber":53,"Velocity":39,"Duration":195383,"SoundDuration":195383,"Delta":221614505},{"NoteNumber":52,"Velocity":34,"Duration":207396,"SoundDuration":207396,"Delta":221799519},{"NoteNumber":53,"Velocity":40,"Duration":752601,"SoundDuration":752601,"Delta":222006916},{"NoteNumber":80,"Velocity":45,"Duration":45829,"SoundDuration":45829,"Delta":222193078},{"NoteNumber":80,"Velocity":49,"Duration":45829,"SoundDuration":45829,"Delta":222376396},{"NoteNumber":80,"Velocity":43,"Duration":45829,"SoundDuration":45829,"Delta":222559714},{"NoteNumber":80,"Velocity":46,"Duration":49455,"SoundDuration":49455,"Delta":222743032},{"NoteNumber":80,"Velocity":40,"Duration":49455,"SoundDuration":49455,"Delta":222940856},{"NoteNumber":82,"Velocity":45,"Duration":196078,"SoundDuration":196078,"Delta":223138680},{"NoteNumber":58,"Velocity":28,"Duration":1125927,"SoundDuration":1125927,"Delta":223138680},{"NoteNumber":62,"Velocity":28,"Duration":373482,"SoundDuration":373482,"Delta":223138680},{"NoteNumber":65,"Velocity":34,"Duration":373482,"SoundDuration":373482,"Delta":223138680},{"NoteNumber":80,"Velocity":40,"Duration":196020,"SoundDuration":196020,"Delta":223325421},{"NoteNumber":79,"Velocity":43,"Duration":194865,"SoundDuration":194865,"Delta":223512163},{"NoteNumber":63,"Velocity":28,"Duration":371172,"SoundDuration":371172,"Delta":223512163},{"NoteNumber":67,"Velocity":34,"Duration":371172,"SoundDuration":371172,"Delta":223512163},{"NoteNumber":77,"Velocity":40,"Duration":194981,"SoundDuration":194981,"Delta":223697749},{"NoteNumber":75,"Velocity":45,"Duration":197579,"SoundDuration":197579,"Delta":223883335},{"NoteNumber":65,"Velocity":28,"Duration":381272,"SoundDuration":381272,"Delta":223883335},{"NoteNumber":69,"Velocity":34,"Duration":381272,"SoundDuration":381272,"Delta":223883335},{"NoteNumber":74,"Velocity":39,"Duration":193361,"SoundDuration":193361,"Delta":224071246},{"NoteNumber":63,"Velocity":28,"Duration":369480,"SoundDuration":369480,"Delta":224264607},{"NoteNumber":67,"Velocity":34,"Duration":369480,"SoundDuration":369480,"Delta":224264607},{"NoteNumber":79,"Velocity":45,"Duration":45829,"SoundDuration":45829,"Delta":224450769},{"NoteNumber":79,"Velocity":49,"Duration":45829,"SoundDuration":45829,"Delta":224634087},{"NoteNumber":79,"Velocity":43,"Duration":45829,"SoundDuration":45829,"Delta":224817405},{"NoteNumber":79,"Velocity":46,"Duration":49455,"SoundDuration":49455,"Delta":225000723},{"NoteNumber":79,"Velocity":40,"Duration":49455,"SoundDuration":49455,"Delta":225198547},{"NoteNumber":80,"Velocity":45,"Duration":196078,"SoundDuration":196078,"Delta":225396371},{"NoteNumber":56,"Velocity":28,"Duration":1124783,"SoundDuration":1124783,"Delta":225396371},{"NoteNumber":60,"Velocity":28,"Duration":373482,"SoundDuration":373482,"Delta":225396371},{"NoteNumber":63,"Velocity":34,"Duration":373482,"SoundDuration":373482,"Delta":225396371},{"NoteNumber":79,"Velocity":40,"Duration":195992,"SoundDuration":195992,"Delta":225583113},{"NoteNumber":77,"Velocity":43,"Duration":194264,"SoundDuration":194264,"Delta":225769854},{"NoteNumber":62,"Velocity":28,"Duration":370027,"SoundDuration":370027,"Delta":225769854},{"NoteNumber":65,"Velocity":34,"Duration":370027,"SoundDuration":370027,"Delta":225769854},{"NoteNumber":75,"Velocity":40,"Duration":194409,"SoundDuration":194409,"Delta":225954868},{"NoteNumber":74,"Velocity":45,"Duration":197579,"SoundDuration":197579,"Delta":226139882},{"NoteNumber":63,"Velocity":28,"Duration":381272,"SoundDuration":381272,"Delta":226139882},{"NoteNumber":67,"Velocity":34,"Duration":381272,"SoundDuration":381272,"Delta":226139882},{"NoteNumber":72,"Velocity":39,"Duration":193361,"SoundDuration":193361,"Delta":226327793},{"NoteNumber":62,"Velocity":28,"Duration":369480,"SoundDuration":369480,"Delta":226521155},{"NoteNumber":65,"Velocity":34,"Duration":369480,"SoundDuration":369480,"Delta":226521155},{"NoteNumber":77,"Velocity":45,"Duration":45829,"SoundDuration":45829,"Delta":226707317},{"NoteNumber":77,"Velocity":49,"Duration":45829,"SoundDuration":45829,"Delta":226890635},{"NoteNumber":77,"Velocity":43,"Duration":45829,"SoundDuration":45829,"Delta":227073953},{"NoteNumber":77,"Velocity":46,"Duration":49455,"SoundDuration":49455,"Delta":227257271},{"NoteNumber":77,"Velocity":40,"Duration":49455,"SoundDuration":49455,"Delta":227455095},{"NoteNumber":79,"Velocity":51,"Duration":196078,"SoundDuration":196078,"Delta":227652919},{"NoteNumber":55,"Velocity":28,"Duration":1124783,"SoundDuration":1124783,"Delta":227652919},{"NoteNumber":59,"Velocity":28,"Duration":373482,"SoundDuration":373482,"Delta":227652919},{"NoteNumber":62,"Velocity":34,"Duration":373482,"SoundDuration":373482,"Delta":227652919},{"NoteNumber":77,"Velocity":50,"Duration":195992,"SoundDuration":195992,"Delta":227839660},{"NoteNumber":75,"Velocity":49,"Duration":194264,"SoundDuration":194264,"Delta":228026402},{"NoteNumber":60,"Velocity":28,"Duration":370027,"SoundDuration":370027,"Delta":228026402},{"NoteNumber":63,"Velocity":34,"Duration":370027,"SoundDuration":370027,"Delta":228026402},{"NoteNumber":74,"Velocity":48,"Duration":194409,"SoundDuration":194409,"Delta":228211416},{"NoteNumber":72,"Velocity":47,"Duration":197579,"SoundDuration":197579,"Delta":228396430},{"NoteNumber":62,"Velocity":28,"Duration":381272,"SoundDuration":381272,"Delta":228396430},{"NoteNumber":65,"Velocity":34,"Duration":381272,"SoundDuration":381272,"Delta":228396430},{"NoteNumber":71,"Velocity":47,"Duration":193361,"SoundDuration":193361,"Delta":228584341},{"NoteNumber":77,"Velocity":56,"Duration":196078,"SoundDuration":196078,"Delta":228777702},{"NoteNumber":60,"Velocity":30,"Duration":373482,"SoundDuration":373482,"Delta":228777702},{"NoteNumber":63,"Velocity":37,"Duration":373482,"SoundDuration":373482,"Delta":228777702},{"NoteNumber":75,"Velocity":54,"Duration":195992,"SoundDuration":195992,"Delta":228964444},{"NoteNumber":74,"Velocity":52,"Duration":194264,"SoundDuration":194264,"Delta":229151185},{"NoteNumber":72,"Velocity":51,"Duration":194409,"SoundDuration":194409,"Delta":229336199},{"NoteNumber":70,"Velocity":49,"Duration":197579,"SoundDuration":197579,"Delta":229521213},{"NoteNumber":53,"Velocity":30,"Duration":381272,"SoundDuration":381272,"Delta":229521213},{"NoteNumber":63,"Velocity":37,"Duration":381272,"SoundDuration":381272,"Delta":229521213},{"NoteNumber":69,"Velocity":47,"Duration":193361,"SoundDuration":193361,"Delta":229709124},{"NoteNumber":84,"Velocity":60,"Duration":196078,"SoundDuration":196078,"Delta":229902486},{"NoteNumber":55,"Velocity":30,"Duration":373482,"SoundDuration":373482,"Delta":229902486},{"NoteNumber":62,"Velocity":37,"Duration":373482,"SoundDuration":373482,"Delta":229902486},{"NoteNumber":82,"Velocity":58,"Duration":195992,"SoundDuration":195992,"Delta":230089227},{"NoteNumber":81,"Velocity":56,"Duration":194264,"SoundDuration":194264,"Delta":230275969},{"NoteNumber":79,"Velocity":54,"Duration":194409,"SoundDuration":194409,"Delta":230460983},{"NoteNumber":77,"Velocity":54,"Duration":197579,"SoundDuration":197579,"Delta":230645997},{"NoteNumber":63,"Velocity":30,"Duration":381272,"SoundDuration":381272,"Delta":230645997},{"NoteNumber":67,"Velocity":37,"Duration":381272,"SoundDuration":381272,"Delta":230645997},{"NoteNumber":76,"Velocity":57,"Duration":193361,"SoundDuration":193361,"Delta":230833908},{"NoteNumber":77,"Velocity":61,"Duration":376679,"SoundDuration":376679,"Delta":231027269},{"NoteNumber":65,"Velocity":42,"Duration":45829,"SoundDuration":45829,"Delta":231220631},{"NoteNumber":65,"Velocity":45,"Duration":45829,"SoundDuration":45829,"Delta":231403949},{"NoteNumber":65,"Velocity":39,"Duration":45829,"SoundDuration":45829,"Delta":231587267},{"NoteNumber":69,"Velocity":45,"Duration":395647,"SoundDuration":395647,"Delta":231770585},{"NoteNumber":75,"Velocity":55,"Duration":395647,"SoundDuration":395647,"Delta":231770585},{"NoteNumber":65,"Velocity":41,"Duration":49455,"SoundDuration":49455,"Delta":231770585},{"NoteNumber":65,"Velocity":38,"Duration":49455,"SoundDuration":49455,"Delta":231968409},{"NoteNumber":70,"Velocity":45,"Duration":373482,"SoundDuration":373482,"Delta":232166233},{"NoteNumber":73,"Velocity":60,"Duration":373482,"SoundDuration":373482,"Delta":232166233},{"NoteNumber":66,"Velocity":42,"Duration":196078,"SoundDuration":196078,"Delta":232166233},{"NoteNumber":65,"Velocity":38,"Duration":195992,"SoundDuration":195992,"Delta":232352974},{"NoteNumber":63,"Velocity":38,"Duration":194264,"SoundDuration":194264,"Delta":232539716},{"NoteNumber":61,"Velocity":38,"Duration":194264,"SoundDuration":194264,"Delta":232724730},{"NoteNumber":73,"Velocity":45,"Duration":392410,"SoundDuration":392410,"Delta":232909744},{"NoteNumber":82,"Velocity":55,"Duration":392410,"SoundDuration":392410,"Delta":232909744},{"NoteNumber":60,"Velocity":42,"Duration":195383,"SoundDuration":195383,"Delta":232909744},{"NoteNumber":58,"Velocity":37,"Duration":207396,"SoundDuration":207396,"Delta":233094758},{"NoteNumber":72,"Velocity":45,"Duration":376679,"SoundDuration":376679,"Delta":233302155},{"NoteNumber":81,"Velocity":61,"Duration":376679,"SoundDuration":376679,"Delta":233302155},{"NoteNumber":53,"Velocity":42,"Duration":45829,"SoundDuration":45829,"Delta":233495516},{"NoteNumber":53,"Velocity":45,"Duration":45829,"SoundDuration":45829,"Delta":233678834},{"NoteNumber":53,"Velocity":39,"Duration":45829,"SoundDuration":45829,"Delta":233862152},{"NoteNumber":63,"Velocity":45,"Duration":395647,"SoundDuration":395647,"Delta":234045470},{"NoteNumber":69,"Velocity":55,"Duration":395647,"SoundDuration":395647,"Delta":234045470},{"NoteNumber":53,"Velocity":41,"Duration":49455,"SoundDuration":49455,"Delta":234045470},{"NoteNumber":53,"Velocity":38,"Duration":49455,"SoundDuration":49455,"Delta":234243294},{"NoteNumber":61,"Velocity":45,"Duration":373482,"SoundDuration":373482,"Delta":234441118},{"NoteNumber":70,"Velocity":60,"Duration":373482,"SoundDuration":373482,"Delta":234441118},{"NoteNumber":54,"Velocity":42,"Duration":196078,"SoundDuration":196078,"Delta":234441118},{"NoteNumber":53,"Velocity":38,"Duration":195992,"SoundDuration":195992,"Delta":234627860},{"NoteNumber":51,"Velocity":38,"Duration":194264,"SoundDuration":194264,"Delta":234814601},{"NoteNumber":49,"Velocity":38,"Duration":194264,"SoundDuration":194264,"Delta":234999615},{"NoteNumber":58,"Velocity":45,"Duration":392410,"SoundDuration":392410,"Delta":235184629},{"NoteNumber":61,"Velocity":55,"Duration":392410,"SoundDuration":392410,"Delta":235184629},{"NoteNumber":48,"Velocity":42,"Duration":195383,"SoundDuration":195383,"Delta":235184629},{"NoteNumber":46,"Velocity":37,"Duration":207396,"SoundDuration":207396,"Delta":235369643},{"NoteNumber":57,"Velocity":45,"Duration":207397,"SoundDuration":207397,"Delta":235577040},{"NoteNumber":60,"Velocity":60,"Duration":207397,"SoundDuration":207397,"Delta":235577040},{"NoteNumber":41,"Velocity":42,"Duration":390715,"SoundDuration":390715,"Delta":235577040},{"NoteNumber":65,"Velocity":45,"Duration":45829,"SoundDuration":45829,"Delta":235784437},{"NoteNumber":65,"Velocity":49,"Duration":45829,"SoundDuration":45829,"Delta":235967755},{"NoteNumber":65,"Velocity":43,"Duration":45829,"SoundDuration":45829,"Delta":236151073},{"NoteNumber":65,"Velocity":46,"Duration":49455,"SoundDuration":49455,"Delta":236334391},{"NoteNumber":65,"Velocity":40,"Duration":49455,"SoundDuration":49455,"Delta":236532215},{"NoteNumber":64,"Velocity":44,"Duration":186915,"SoundDuration":186915,"Delta":236730039},{"NoteNumber":53,"Velocity":29,"Duration":2778388,"SoundDuration":2778388,"Delta":236730039},{"NoteNumber":63,"Velocity":37,"Duration":2778388,"SoundDuration":2778388,"Delta":236730039},{"NoteNumber":57,"Velocity":29,"Duration":2778388,"SoundDuration":2778388,"Delta":236730039},{"NoteNumber":65,"Velocity":40,"Duration":194175,"SoundDuration":194175,"Delta":236916955},{"NoteNumber":67,"Velocity":45,"Duration":187500,"SoundDuration":187500,"Delta":237111130},{"NoteNumber":65,"Velocity":40,"Duration":194175,"SoundDuration":194175,"Delta":237298630},{"NoteNumber":70,"Velocity":43,"Duration":191082,"SoundDuration":191082,"Delta":237492805},{"NoteNumber":69,"Velocity":40,"Duration":196721,"SoundDuration":196721,"Delta":237683888},{"NoteNumber":74,"Velocity":44,"Duration":190475,"SoundDuration":190475,"Delta":237880610},{"NoteNumber":72,"Velocity":40,"Duration":200468,"SoundDuration":200468,"Delta":238071086},{"NoteNumber":75,"Velocity":45,"Duration":195248,"SoundDuration":195248,"Delta":238271554},{"NoteNumber":74,"Velocity":40,"Duration":209570,"SoundDuration":209570,"Delta":238466803},{"NoteNumber":79,"Velocity":45,"Duration":201140,"SoundDuration":201140,"Delta":238676373},{"NoteNumber":77,"Velocity":40,"Duration":157728,"SoundDuration":157728,"Delta":238877513},{"NoteNumber":77,"Velocity":45,"Duration":638553,"SoundDuration":638553,"Delta":239087818},{"NoteNumber":76,"Velocity":40,"Duration":217944,"SoundDuration":217944,"Delta":239726372},{"NoteNumber":75,"Velocity":43,"Duration":217943,"SoundDuration":217943,"Delta":239944316},{"NoteNumber":72,"Velocity":40,"Duration":222965,"SoundDuration":222965,"Delta":240162260},{"NoteNumber":70,"Velocity":48,"Duration":749298,"SoundDuration":749298,"Delta":240385226},{"NoteNumber":58,"Velocity":33,"Duration":749298,"SoundDuration":749298,"Delta":240385226},{"NoteNumber":65,"Velocity":41,"Duration":413364,"SoundDuration":413364,"Delta":241134524},{"NoteNumber":53,"Velocity":31,"Duration":413364,"SoundDuration":413364,"Delta":241134524},{"NoteNumber":62,"Velocity":48,"Duration":742344,"SoundDuration":742344,"Delta":241547889},{"NoteNumber":50,"Velocity":37,"Duration":742344,"SoundDuration":742344,"Delta":241547889},{"NoteNumber":65,"Velocity":44,"Duration":406365,"SoundDuration":406365,"Delta":242290233},{"NoteNumber":53,"Velocity":38,"Duration":406365,"SoundDuration":406365,"Delta":242290233},{"NoteNumber":70,"Velocity":48,"Duration":744648,"SoundDuration":744648,"Delta":242696599},{"NoteNumber":58,"Velocity":41,"Duration":744648,"SoundDuration":744648,"Delta":242696599},{"NoteNumber":74,"Velocity":51,"Duration":395647,"SoundDuration":395647,"Delta":243441247},{"NoteNumber":62,"Velocity":43,"Duration":395647,"SoundDuration":395647,"Delta":243441247},{"NoteNumber":77,"Velocity":56,"Duration":746965,"SoundDuration":746965,"Delta":243836895},{"NoteNumber":65,"Velocity":43,"Duration":746965,"SoundDuration":746965,"Delta":243836895},{"NoteNumber":82,"Velocity":58,"Duration":182871,"SoundDuration":182871,"Delta":244583861},{"NoteNumber":74,"Velocity":51,"Duration":190415,"SoundDuration":190415,"Delta":244766732},{"NoteNumber":77,"Velocity":56,"Duration":189132,"SoundDuration":189132,"Delta":244957147},{"NoteNumber":63,"Velocity":36,"Duration":2185645,"SoundDuration":2185645,"Delta":244957147},{"NoteNumber":53,"Velocity":30,"Duration":2185645,"SoundDuration":2185645,"Delta":244957147},{"NoteNumber":60,"Velocity":30,"Duration":2185645,"SoundDuration":2185645,"Delta":244957147},{"NoteNumber":75,"Velocity":52,"Duration":189186,"SoundDuration":189186,"Delta":245137273},{"NoteNumber":74,"Velocity":51,"Duration":190274,"SoundDuration":190274,"Delta":245317399},{"NoteNumber":72,"Velocity":49,"Duration":190274,"SoundDuration":190274,"Delta":245498613},{"NoteNumber":70,"Velocity":48,"Duration":190522,"SoundDuration":190522,"Delta":245679827},{"NoteNumber":69,"Velocity":47,"Duration":186161,"SoundDuration":186161,"Delta":245861041},{"NoteNumber":67,"Velocity":50,"Duration":190735,"SoundDuration":190735,"Delta":246047203},{"NoteNumber":65,"Velocity":44,"Duration":190735,"SoundDuration":190735,"Delta":246228856},{"NoteNumber":64,"Velocity":44,"Duration":190735,"SoundDuration":190735,"Delta":246410509},{"NoteNumber":65,"Velocity":45,"Duration":190735,"SoundDuration":190735,"Delta":246592162},{"NoteNumber":67,"Velocity":47,"Duration":191019,"SoundDuration":191019,"Delta":246773815},{"NoteNumber":69,"Velocity":50,"Duration":187324,"SoundDuration":187324,"Delta":246955468},{"NoteNumber":70,"Velocity":50,"Duration":45413,"SoundDuration":45413,"Delta":247142793},{"NoteNumber":58,"Velocity":32,"Duration":363305,"SoundDuration":363305,"Delta":247142793},{"NoteNumber":62,"Velocity":38,"Duration":363305,"SoundDuration":363305,"Delta":247142793},{"NoteNumber":72,"Velocity":45,"Duration":45413,"SoundDuration":45413,"Delta":247279032},{"NoteNumber":70,"Velocity":49,"Duration":90826,"SoundDuration":90826,"Delta":247324446},{"NoteNumber":69,"Velocity":46,"Duration":90826,"SoundDuration":90826,"Delta":247415272},{"NoteNumber":70,"Velocity":50,"Duration":45413,"SoundDuration":45413,"Delta":247506099},{"NoteNumber":72,"Velocity":47,"Duration":45998,"SoundDuration":45998,"Delta":247687752},{"NoteNumber":74,"Velocity":49,"Duration":45303,"SoundDuration":45303,"Delta":247871744},{"NoteNumber":75,"Velocity":51,"Duration":48184,"SoundDuration":48184,"Delta":248052958},{"NoteNumber":76,"Velocity":53,"Duration":191897,"SoundDuration":191897,"Delta":248245698},{"NoteNumber":77,"Velocity":50,"Duration":191897,"SoundDuration":191897,"Delta":248428458},{"NoteNumber":79,"Velocity":55,"Duration":191897,"SoundDuration":191897,"Delta":248611217},{"NoteNumber":77,"Velocity":50,"Duration":182759,"SoundDuration":182759,"Delta":248793977},{"NoteNumber":82,"Velocity":59,"Duration":182759,"SoundDuration":182759,"Delta":248976736},{"NoteNumber":74,"Velocity":50,"Duration":192123,"SoundDuration":192123,"Delta":249159496},{"NoteNumber":77,"Velocity":57,"Duration":194264,"SoundDuration":194264,"Delta":249351619},{"NoteNumber":53,"Velocity":30,"Duration":2217472,"SoundDuration":2217472,"Delta":249351619},{"NoteNumber":60,"Velocity":30,"Duration":2217472,"SoundDuration":2217472,"Delta":249351619},{"NoteNumber":63,"Velocity":36,"Duration":2217472,"SoundDuration":2217472,"Delta":249351619},{"NoteNumber":75,"Velocity":55,"Duration":194179,"SoundDuration":194179,"Delta":249536633},{"NoteNumber":74,"Velocity":53,"Duration":192483,"SoundDuration":192483,"Delta":249721647},{"NoteNumber":72,"Velocity":51,"Duration":192483,"SoundDuration":192483,"Delta":249904965},{"NoteNumber":70,"Velocity":49,"Duration":192713,"SoundDuration":192713,"Delta":250088283},{"NoteNumber":69,"Velocity":47,"Duration":187911,"SoundDuration":187911,"Delta":250271601},{"NoteNumber":67,"Velocity":50,"Duration":194264,"SoundDuration":194264,"Delta":250459512},{"NoteNumber":65,"Velocity":43,"Duration":194208,"SoundDuration":194208,"Delta":250644526},{"NoteNumber":64,"Velocity":50,"Duration":193073,"SoundDuration":193073,"Delta":250829540},{"NoteNumber":65,"Velocity":43,"Duration":193074,"SoundDuration":193074,"Delta":251013420},{"NoteNumber":67,"Velocity":50,"Duration":193275,"SoundDuration":193275,"Delta":251197300},{"NoteNumber":69,"Velocity":45,"Duration":187911,"SoundDuration":187911,"Delta":251381180},{"NoteNumber":70,"Velocity":50,"Duration":92222,"SoundDuration":92222,"Delta":251569091},{"NoteNumber":58,"Velocity":34,"Duration":92222,"SoundDuration":92222,"Delta":251569091},{"NoteNumber":62,"Velocity":40,"Duration":92222,"SoundDuration":92222,"Delta":251569091},{"NoteNumber":70,"Velocity":48,"Duration":96680,"SoundDuration":96680,"Delta":251937981},{"NoteNumber":62,"Velocity":38,"Duration":96680,"SoundDuration":96680,"Delta":251937981},{"NoteNumber":58,"Velocity":32,"Duration":96680,"SoundDuration":96680,"Delta":251937981},{"NoteNumber":74,"Velocity":48,"Duration":107028,"SoundDuration":107028,"Delta":252324704},{"NoteNumber":58,"Velocity":32,"Duration":107028,"SoundDuration":107028,"Delta":252324704},{"NoteNumber":65,"Velocity":38,"Duration":107028,"SoundDuration":107028,"Delta":252324704},{"NoteNumber":70,"Velocity":50,"Duration":375821,"SoundDuration":375821,"Delta":252752817},{"NoteNumber":58,"Velocity":34,"Duration":375821,"SoundDuration":375821,"Delta":252752817},{"NoteNumber":62,"Velocity":40,"Duration":375821,"SoundDuration":375821,"Delta":252752817},{"NoteNumber":70,"Velocity":44,"Duration":46977,"SoundDuration":46977,"Delta":253410505},{"NoteNumber":72,"Velocity":50,"Duration":99607,"SoundDuration":99607,"Delta":253504461},{"NoteNumber":70,"Velocity":43,"Duration":99607,"SoundDuration":99607,"Delta":253595013},{"NoteNumber":69,"Velocity":45,"Duration":101067,"SoundDuration":101067,"Delta":253685565},{"NoteNumber":70,"Velocity":42,"Duration":114290,"SoundDuration":114290,"Delta":253776117},{"NoteNumber":79,"Velocity":56,"Duration":365519,"SoundDuration":365519,"Delta":253881270},{"NoteNumber":58,"Velocity":30,"Duration":375821,"SoundDuration":375821,"Delta":254246789},{"NoteNumber":51,"Velocity":25,"Duration":375821,"SoundDuration":375821,"Delta":254246789},{"NoteNumber":55,"Velocity":25,"Duration":375821,"SoundDuration":375821,"Delta":254246789},{"NoteNumber":70,"Velocity":44,"Duration":46977,"SoundDuration":46977,"Delta":254528655},{"NoteNumber":72,"Velocity":50,"Duration":99909,"SoundDuration":99909,"Delta":254622611},{"NoteNumber":70,"Velocity":43,"Duration":99909,"SoundDuration":99909,"Delta":254713437},{"NoteNumber":69,"Velocity":45,"Duration":101341,"SoundDuration":101341,"Delta":254804264},{"NoteNumber":70,"Velocity":42,"Duration":114153,"SoundDuration":114153,"Delta":254895090},{"NoteNumber":77,"Velocity":55,"Duration":360036,"SoundDuration":360036,"Delta":255000243},{"NoteNumber":50,"Velocity":25,"Duration":375821,"SoundDuration":375821,"Delta":255360279},{"NoteNumber":53,"Velocity":25,"Duration":375821,"SoundDuration":375821,"Delta":255360279},{"NoteNumber":58,"Velocity":30,"Duration":375821,"SoundDuration":375821,"Delta":255360279},{"NoteNumber":70,"Velocity":44,"Duration":46977,"SoundDuration":46977,"Delta":255642145},{"NoteNumber":72,"Velocity":50,"Duration":103351,"SoundDuration":103351,"Delta":255736101},{"NoteNumber":70,"Velocity":43,"Duration":103351,"SoundDuration":103351,"Delta":255830056},{"NoteNumber":69,"Velocity":45,"Duration":104470,"SoundDuration":104470,"Delta":255924012},{"NoteNumber":70,"Velocity":42,"Duration":114262,"SoundDuration":114262,"Delta":256017967},{"NoteNumber":72,"Velocity":52,"Duration":364409,"SoundDuration":364409,"Delta":256123120},{"NoteNumber":57,"Velocity":29,"Duration":1126954,"SoundDuration":1126954,"Delta":256123120},{"NoteNumber":65,"Velocity":34,"Duration":1501603,"SoundDuration":1501603,"Delta":256123120},{"NoteNumber":77,"Velocity":49,"Duration":375822,"SoundDuration":375822,"Delta":256487529},{"NoteNumber":75,"Velocity":48,"Duration":386723,"SoundDuration":386723,"Delta":256863351},{"NoteNumber":73,"Velocity":55,"Duration":374648,"SoundDuration":374648,"Delta":257250074},{"NoteNumber":58,"Velocity":34,"Duration":374648,"SoundDuration":374648,"Delta":257250074},{"NoteNumber":74,"Velocity":49,"Duration":201816,"SoundDuration":201816,"Delta":257624723},{"NoteNumber":70,"Velocity":44,"Duration":46977,"SoundDuration":46977,"Delta":257927448},{"NoteNumber":72,"Velocity":50,"Duration":99607,"SoundDuration":99607,"Delta":258021403},{"NoteNumber":70,"Velocity":43,"Duration":99607,"SoundDuration":99607,"Delta":258111955},{"NoteNumber":69,"Velocity":45,"Duration":101067,"SoundDuration":101067,"Delta":258202508},{"NoteNumber":70,"Velocity":42,"Duration":114290,"SoundDuration":114290,"Delta":258293060},{"NoteNumber":79,"Velocity":56,"Duration":365519,"SoundDuration":365519,"Delta":258398212},{"NoteNumber":51,"Velocity":25,"Duration":375822,"SoundDuration":375822,"Delta":258763731},{"NoteNumber":55,"Velocity":25,"Duration":375822,"SoundDuration":375822,"Delta":258763731},{"NoteNumber":58,"Velocity":30,"Duration":375822,"SoundDuration":375822,"Delta":258763731},{"NoteNumber":70,"Velocity":44,"Duration":46977,"SoundDuration":46977,"Delta":259045598},{"NoteNumber":72,"Velocity":50,"Duration":99909,"SoundDuration":99909,"Delta":259139553},{"NoteNumber":70,"Velocity":43,"Duration":99909,"SoundDuration":99909,"Delta":259230380},{"NoteNumber":69,"Velocity":45,"Duration":101341,"SoundDuration":101341,"Delta":259321206},{"NoteNumber":70,"Velocity":42,"Duration":114153,"SoundDuration":114153,"Delta":259412033},{"NoteNumber":77,"Velocity":55,"Duration":360035,"SoundDuration":360035,"Delta":259517185},{"NoteNumber":50,"Velocity":25,"Duration":375822,"SoundDuration":375822,"Delta":259877221},{"NoteNumber":53,"Velocity":25,"Duration":375822,"SoundDuration":375822,"Delta":259877221},{"NoteNumber":58,"Velocity":30,"Duration":375822,"SoundDuration":375822,"Delta":259877221},{"NoteNumber":70,"Velocity":44,"Duration":46977,"SoundDuration":46977,"Delta":260159088},{"NoteNumber":72,"Velocity":50,"Duration":103351,"SoundDuration":103351,"Delta":260253043},{"NoteNumber":70,"Velocity":43,"Duration":103351,"SoundDuration":103351,"Delta":260346999},{"NoteNumber":69,"Velocity":45,"Duration":104470,"SoundDuration":104470,"Delta":260440954},{"NoteNumber":70,"Velocity":42,"Duration":114262,"SoundDuration":114262,"Delta":260534910},{"NoteNumber":72,"Velocity":52,"Duration":364409,"SoundDuration":364409,"Delta":260640062},{"NoteNumber":53,"Velocity":29,"Duration":1133287,"SoundDuration":1133287,"Delta":260640062},{"NoteNumber":57,"Velocity":34,"Duration":364409,"SoundDuration":364409,"Delta":260640062},{"NoteNumber":75,"Velocity":49,"Duration":375822,"SoundDuration":375822,"Delta":261004471},{"NoteNumber":60,"Velocity":31,"Duration":375822,"SoundDuration":375822,"Delta":261004471},{"NoteNumber":69,"Velocity":48,"Duration":393056,"SoundDuration":393056,"Delta":261380293},{"NoteNumber":63,"Velocity":29,"Duration":393056,"SoundDuration":393056,"Delta":261380293},{"NoteNumber":70,"Velocity":55,"Duration":365519,"SoundDuration":365519,"Delta":261773349},{"NoteNumber":62,"Velocity":34,"Duration":365519,"SoundDuration":365519,"Delta":261773349},{"NoteNumber":58,"Velocity":28,"Duration":365519,"SoundDuration":365519,"Delta":261773349},{"NoteNumber":74,"Velocity":64,"Duration":96061,"SoundDuration":96061,"Delta":262869906},{"NoteNumber":70,"Velocity":64,"Duration":96061,"SoundDuration":96061,"Delta":262869906},{"NoteNumber":79,"Velocity":77,"Duration":96061,"SoundDuration":96061,"Delta":262869906},{"NoteNumber":55,"Velocity":73,"Duration":96061,"SoundDuration":96061,"Delta":262869906},{"NoteNumber":67,"Velocity":64,"Duration":94250,"SoundDuration":94250,"Delta":263254152},{"NoteNumber":43,"Velocity":66,"Duration":94250,"SoundDuration":94250,"Delta":263254152},{"NoteNumber":69,"Velocity":63,"Duration":96993,"SoundDuration":96993,"Delta":264008158},{"NoteNumber":66,"Velocity":63,"Duration":96993,"SoundDuration":96993,"Delta":264008158},{"NoteNumber":74,"Velocity":75,"Duration":96993,"SoundDuration":96993,"Delta":264008158},{"NoteNumber":50,"Velocity":73,"Duration":96993,"SoundDuration":96993,"Delta":264008158},{"NoteNumber":62,"Velocity":67,"Duration":94547,"SoundDuration":94547,"Delta":264396131},{"NoteNumber":38,"Velocity":66,"Duration":94547,"SoundDuration":94547,"Delta":264396131},{"NoteNumber":63,"Velocity":43,"Duration":744647,"SoundDuration":744647,"Delta":265152513},{"NoteNumber":51,"Velocity":20,"Duration":1127338,"SoundDuration":1127338,"Delta":265152513},{"NoteNumber":55,"Velocity":33,"Duration":186162,"SoundDuration":186162,"Delta":265152513},{"NoteNumber":58,"Velocity":23,"Duration":186161,"SoundDuration":186161,"Delta":265338675},{"NoteNumber":55,"Velocity":27,"Duration":186162,"SoundDuration":186162,"Delta":265524837},{"NoteNumber":58,"Velocity":22,"Duration":186161,"SoundDuration":186161,"Delta":265710999},{"NoteNumber":65,"Velocity":36,"Duration":102389,"SoundDuration":102389,"Delta":265897161},{"NoteNumber":55,"Velocity":26,"Duration":186162,"SoundDuration":186162,"Delta":265897161},{"NoteNumber":63,"Velocity":36,"Duration":102907,"SoundDuration":102907,"Delta":265990242},{"NoteNumber":62,"Velocity":36,"Duration":108090,"SoundDuration":108090,"Delta":266083323},{"NoteNumber":58,"Velocity":22,"Duration":196528,"SoundDuration":196528,"Delta":266083323},{"NoteNumber":63,"Velocity":36,"Duration":98264,"SoundDuration":98264,"Delta":266181587},{"NoteNumber":72,"Velocity":42,"Duration":185586,"SoundDuration":185586,"Delta":266279851},{"NoteNumber":50,"Velocity":20,"Duration":1131574,"SoundDuration":1131574,"Delta":266279851},{"NoteNumber":56,"Velocity":36,"Duration":185586,"SoundDuration":185586,"Delta":266279851},{"NoteNumber":70,"Velocity":37,"Duration":185586,"SoundDuration":185586,"Delta":266465437},{"NoteNumber":58,"Velocity":23,"Duration":185586,"SoundDuration":185586,"Delta":266465437},{"NoteNumber":70,"Velocity":43,"Duration":371172,"SoundDuration":371172,"Delta":266651023},{"NoteNumber":56,"Velocity":27,"Duration":185586,"SoundDuration":185586,"Delta":266651023},{"NoteNumber":58,"Velocity":23,"Duration":185586,"SoundDuration":185586,"Delta":266836609},{"NoteNumber":70,"Velocity":38,"Duration":389230,"SoundDuration":389230,"Delta":267022195},{"NoteNumber":56,"Velocity":27,"Duration":194615,"SoundDuration":194615,"Delta":267022195},{"NoteNumber":58,"Velocity":24,"Duration":194615,"SoundDuration":194615,"Delta":267216811},{"NoteNumber":70,"Velocity":39,"Duration":196546,"SoundDuration":196546,"Delta":267411426},{"NoteNumber":51,"Velocity":20,"Duration":1120438,"SoundDuration":1120438,"Delta":267411426},{"NoteNumber":55,"Velocity":33,"Duration":187324,"SoundDuration":187324,"Delta":267411426},{"NoteNumber":75,"Velocity":45,"Duration":193560,"SoundDuration":193560,"Delta":267598751},{"NoteNumber":58,"Velocity":23,"Duration":184444,"SoundDuration":184444,"Delta":267598751},{"NoteNumber":74,"Velocity":44,"Duration":191486,"SoundDuration":191486,"Delta":267783196},{"NoteNumber":55,"Velocity":27,"Duration":182315,"SoundDuration":182315,"Delta":267783196},{"NoteNumber":73,"Velocity":42,"Duration":192652,"SoundDuration":192652,"Delta":267965511},{"NoteNumber":58,"Velocity":23,"Duration":183429,"SoundDuration":183429,"Delta":267965511},{"NoteNumber":72,"Velocity":40,"Duration":194368,"SoundDuration":194368,"Delta":268148941},{"NoteNumber":55,"Velocity":27,"Duration":184444,"SoundDuration":184444,"Delta":268148941},{"NoteNumber":71,"Velocity":38,"Duration":207786,"SoundDuration":207786,"Delta":268333386},{"NoteNumber":58,"Velocity":25,"Duration":198478,"SoundDuration":198478,"Delta":268333386},{"NoteNumber":70,"Velocity":41,"Duration":372323,"SoundDuration":372323,"Delta":268531865},{"NoteNumber":50,"Velocity":20,"Duration":1116971,"SoundDuration":1116971,"Delta":268531865},{"NoteNumber":56,"Velocity":33,"Duration":186162,"SoundDuration":186162,"Delta":268531865},{"NoteNumber":58,"Velocity":27,"Duration":186161,"SoundDuration":186161,"Delta":268718027},{"NoteNumber":56,"Velocity":27,"Duration":186162,"SoundDuration":186162,"Delta":268904189},{"NoteNumber":58,"Velocity":24,"Duration":186161,"SoundDuration":186161,"Delta":269090351},{"NoteNumber":56,"Velocity":27,"Duration":186162,"SoundDuration":186162,"Delta":269276513},{"NoteNumber":58,"Velocity":23,"Duration":186161,"SoundDuration":186161,"Delta":269462675},{"NoteNumber":63,"Velocity":45,"Duration":744647,"SoundDuration":744647,"Delta":269648837},{"NoteNumber":51,"Velocity":21,"Duration":1127338,"SoundDuration":1127338,"Delta":269648837},{"NoteNumber":55,"Velocity":35,"Duration":186162,"SoundDuration":186162,"Delta":269648837},{"NoteNumber":58,"Velocity":24,"Duration":186161,"SoundDuration":186161,"Delta":269834999},{"NoteNumber":55,"Velocity":28,"Duration":186162,"SoundDuration":186162,"Delta":270021161},{"NoteNumber":58,"Velocity":23,"Duration":186161,"SoundDuration":186161,"Delta":270207323},{"NoteNumber":65,"Velocity":42,"Duration":102389,"SoundDuration":102389,"Delta":270393485},{"NoteNumber":55,"Velocity":27,"Duration":186162,"SoundDuration":186162,"Delta":270393485},{"NoteNumber":63,"Velocity":39,"Duration":102907,"SoundDuration":102907,"Delta":270486566},{"NoteNumber":62,"Velocity":42,"Duration":108090,"SoundDuration":108090,"Delta":270579647},{"NoteNumber":58,"Velocity":23,"Duration":196528,"SoundDuration":196528,"Delta":270579647},{"NoteNumber":63,"Velocity":40,"Duration":98264,"SoundDuration":98264,"Delta":270677911},{"NoteNumber":72,"Velocity":54,"Duration":185586,"SoundDuration":185586,"Delta":270776175},{"NoteNumber":50,"Velocity":21,"Duration":1131574,"SoundDuration":1131574,"Delta":270776175},{"NoteNumber":53,"Velocity":38,"Duration":185586,"SoundDuration":185586,"Delta":270776175},{"NoteNumber":71,"Velocity":48,"Duration":185586,"SoundDuration":185586,"Delta":270961761},{"NoteNumber":56,"Velocity":24,"Duration":185586,"SoundDuration":185586,"Delta":270961761},{"NoteNumber":71,"Velocity":53,"Duration":371172,"SoundDuration":371172,"Delta":271147347},{"NoteNumber":53,"Velocity":32,"Duration":185586,"SoundDuration":185586,"Delta":271147347},{"NoteNumber":56,"Velocity":28,"Duration":185586,"SoundDuration":185586,"Delta":271332933},{"NoteNumber":71,"Velocity":47,"Duration":389230,"SoundDuration":389230,"Delta":271518519},{"NoteNumber":53,"Velocity":32,"Duration":194615,"SoundDuration":194615,"Delta":271518519},{"NoteNumber":56,"Velocity":27,"Duration":194615,"SoundDuration":194615,"Delta":271713134},{"NoteNumber":72,"Velocity":50,"Duration":196546,"SoundDuration":196546,"Delta":271907750},{"NoteNumber":51,"Velocity":23,"Duration":1123582,"SoundDuration":1123582,"Delta":271907750},{"NoteNumber":55,"Velocity":37,"Duration":187324,"SoundDuration":187324,"Delta":271907750},{"NoteNumber":79,"Velocity":58,"Duration":193667,"SoundDuration":193667,"Delta":272095074},{"NoteNumber":60,"Velocity":32,"Duration":184444,"SoundDuration":184444,"Delta":272095074},{"NoteNumber":75,"Velocity":56,"Duration":193667,"SoundDuration":193667,"Delta":272279519},{"NoteNumber":55,"Velocity":34,"Duration":184445,"SoundDuration":184445,"Delta":272279519},{"NoteNumber":74,"Velocity":54,"Duration":193667,"SoundDuration":193667,"Delta":272463964},{"NoteNumber":60,"Velocity":29,"Duration":184444,"SoundDuration":184444,"Delta":272463964},{"NoteNumber":72,"Velocity":51,"Duration":194368,"SoundDuration":194368,"Delta":272648409},{"NoteNumber":55,"Velocity":30,"Duration":184444,"SoundDuration":184444,"Delta":272648409},{"NoteNumber":70,"Velocity":49,"Duration":207786,"SoundDuration":207786,"Delta":272832854},{"NoteNumber":60,"Velocity":28,"Duration":198478,"SoundDuration":198478,"Delta":272832854},{"NoteNumber":69,"Velocity":50,"Duration":372323,"SoundDuration":372323,"Delta":273031333},{"NoteNumber":54,"Velocity":23,"Duration":1116971,"SoundDuration":1116971,"Delta":273031333},{"NoteNumber":60,"Velocity":37,"Duration":186162,"SoundDuration":186162,"Delta":273031333},{"NoteNumber":63,"Velocity":30,"Duration":186161,"SoundDuration":186161,"Delta":273217495},{"NoteNumber":60,"Velocity":30,"Duration":186162,"SoundDuration":186162,"Delta":273403657},{"NoteNumber":63,"Velocity":27,"Duration":195470,"SoundDuration":195470,"Delta":273589819},{"NoteNumber":60,"Velocity":30,"Duration":186162,"SoundDuration":186162,"Delta":273775981},{"NoteNumber":63,"Velocity":26,"Duration":186161,"SoundDuration":186161,"Delta":273962143},{"NoteNumber":70,"Velocity":59,"Duration":196546,"SoundDuration":196546,"Delta":274148305},{"NoteNumber":55,"Velocity":27,"Duration":1120434,"SoundDuration":1120434,"Delta":274148305},{"NoteNumber":58,"Velocity":44,"Duration":187324,"SoundDuration":187324,"Delta":274148305},{"NoteNumber":86,"Velocity":62,"Duration":193588,"SoundDuration":193588,"Delta":274335629},{"NoteNumber":62,"Velocity":30,"Duration":184444,"SoundDuration":184444,"Delta":274335629},{"NoteNumber":82,"Velocity":61,"Duration":192014,"SoundDuration":192014,"Delta":274520074},{"NoteNumber":58,"Velocity":36,"Duration":182870,"SoundDuration":182870,"Delta":274520074},{"NoteNumber":81,"Velocity":60,"Duration":192093,"SoundDuration":192093,"Delta":274702945},{"NoteNumber":62,"Velocity":30,"Duration":182870,"SoundDuration":182870,"Delta":274702945},{"NoteNumber":79,"Velocity":58,"Duration":194368,"SoundDuration":194368,"Delta":274885816},{"NoteNumber":58,"Velocity":36,"Duration":184444,"SoundDuration":184444,"Delta":274885816},{"NoteNumber":77,"Velocity":57,"Duration":207786,"SoundDuration":207786,"Delta":275070261},{"NoteNumber":62,"Velocity":33,"Duration":198478,"SoundDuration":198478,"Delta":275070261},{"NoteNumber":76,"Velocity":62,"Duration":372323,"SoundDuration":372323,"Delta":275268740},{"NoteNumber":60,"Velocity":27,"Duration":1116971,"SoundDuration":1116971,"Delta":275268740},{"NoteNumber":67,"Velocity":44,"Duration":186162,"SoundDuration":186162,"Delta":275268740},{"NoteNumber":70,"Velocity":36,"Duration":186161,"SoundDuration":186161,"Delta":275454902},{"NoteNumber":67,"Velocity":36,"Duration":186162,"SoundDuration":186162,"Delta":275641064},{"NoteNumber":70,"Velocity":31,"Duration":195470,"SoundDuration":195470,"Delta":275827226},{"NoteNumber":67,"Velocity":36,"Duration":186162,"SoundDuration":186162,"Delta":276013388},{"NoteNumber":70,"Velocity":30,"Duration":186161,"SoundDuration":186161,"Delta":276199550},{"NoteNumber":65,"Velocity":44,"Duration":382035,"SoundDuration":382035,"Delta":276385712},{"NoteNumber":69,"Velocity":44,"Duration":382035,"SoundDuration":382035,"Delta":276385712},{"NoteNumber":77,"Velocity":46,"Duration":96143,"SoundDuration":96143,"Delta":276480382},{"NoteNumber":76,"Velocity":49,"Duration":95836,"SoundDuration":95836,"Delta":276576526},{"NoteNumber":77,"Velocity":44,"Duration":95384,"SoundDuration":95384,"Delta":276672363},{"NoteNumber":79,"Velocity":49,"Duration":95077,"SoundDuration":95077,"Delta":276767747},{"NoteNumber":77,"Velocity":44,"Duration":94702,"SoundDuration":94702,"Delta":276862825},{"NoteNumber":76,"Velocity":49,"Duration":94404,"SoundDuration":94404,"Delta":276957527},{"NoteNumber":77,"Velocity":44,"Duration":94034,"SoundDuration":94034,"Delta":277051931},{"NoteNumber":75,"Velocity":46,"Duration":187319,"SoundDuration":187319,"Delta":277145965},{"NoteNumber":77,"Velocity":49,"Duration":93652,"SoundDuration":93652,"Delta":277239633},{"NoteNumber":81,"Velocity":54,"Duration":93370,"SoundDuration":93370,"Delta":277333285},{"NoteNumber":77,"Velocity":49,"Duration":93361,"SoundDuration":93361,"Delta":277426656},{"NoteNumber":74,"Velocity":52,"Duration":186162,"SoundDuration":186162,"Delta":277520017},{"NoteNumber":77,"Velocity":53,"Duration":93081,"SoundDuration":93081,"Delta":277613098},{"NoteNumber":82,"Velocity":57,"Duration":93080,"SoundDuration":93080,"Delta":277706179},{"NoteNumber":77,"Velocity":52,"Duration":93080,"SoundDuration":93080,"Delta":277799260},{"NoteNumber":69,"Velocity":56,"Duration":184558,"SoundDuration":184558,"Delta":277892341},{"NoteNumber":77,"Velocity":55,"Duration":92279,"SoundDuration":92279,"Delta":277984620},{"NoteNumber":87,"Velocity":61,"Duration":92279,"SoundDuration":92279,"Delta":278076899},{"NoteNumber":77,"Velocity":57,"Duration":92279,"SoundDuration":92279,"Delta":278169179},{"NoteNumber":70,"Velocity":53,"Duration":184558,"SoundDuration":184558,"Delta":278261458},{"NoteNumber":77,"Velocity":57,"Duration":92279,"SoundDuration":92279,"Delta":278353737},{"NoteNumber":86,"Velocity":64,"Duration":99239,"SoundDuration":99239,"Delta":278446016},{"NoteNumber":77,"Velocity":57,"Duration":99239,"SoundDuration":99239,"Delta":278545256},{"NoteNumber":84,"Velocity":65,"Duration":94415,"SoundDuration":94415,"Delta":278644495},{"NoteNumber":65,"Velocity":59,"Duration":373658,"SoundDuration":373658,"Delta":278644495},{"NoteNumber":81,"Velocity":60,"Duration":93081,"SoundDuration":93081,"Delta":278738910},{"NoteNumber":79,"Velocity":65,"Duration":93080,"SoundDuration":93080,"Delta":278831991},{"NoteNumber":77,"Velocity":60,"Duration":93080,"SoundDuration":93080,"Delta":278925072},{"NoteNumber":76,"Velocity":57,"Duration":93080,"SoundDuration":93080,"Delta":279018153},{"NoteNumber":77,"Velocity":59,"Duration":93081,"SoundDuration":93081,"Delta":279111234},{"NoteNumber":79,"Velocity":60,"Duration":93080,"SoundDuration":93080,"Delta":279204315},{"NoteNumber":77,"Velocity":56,"Duration":94067,"SoundDuration":94067,"Delta":279297396},{"NoteNumber":75,"Velocity":51,"Duration":191464,"SoundDuration":191464,"Delta":279391464},{"NoteNumber":77,"Velocity":49,"Duration":95683,"SoundDuration":95683,"Delta":279487244},{"NoteNumber":81,"Velocity":53,"Duration":95450,"SoundDuration":95450,"Delta":279582928},{"NoteNumber":77,"Velocity":49,"Duration":95228,"SoundDuration":95228,"Delta":279678378},{"NoteNumber":74,"Velocity":57,"Duration":189924,"SoundDuration":189924,"Delta":279773606},{"NoteNumber":77,"Velocity":52,"Duration":94846,"SoundDuration":94846,"Delta":279868684},{"NoteNumber":82,"Velocity":58,"Duration":94702,"SoundDuration":94702,"Delta":279963530},{"NoteNumber":77,"Velocity":54,"Duration":94547,"SoundDuration":94547,"Delta":280058233},{"NoteNumber":69,"Velocity":59,"Duration":188363,"SoundDuration":188363,"Delta":280152780},{"NoteNumber":77,"Velocity":55,"Duration":94108,"SoundDuration":94108,"Delta":280247036},{"NoteNumber":87,"Velocity":61,"Duration":93955,"SoundDuration":93955,"Delta":280341144},{"NoteNumber":77,"Velocity":55,"Duration":93438,"SoundDuration":93438,"Delta":280435100},{"NoteNumber":70,"Velocity":54,"Duration":186369,"SoundDuration":186369,"Delta":280528538},{"NoteNumber":77,"Velocity":49,"Duration":93080,"SoundDuration":93080,"Delta":280621827},{"NoteNumber":86,"Velocity":68,"Duration":96993,"SoundDuration":96993,"Delta":280714908},{"NoteNumber":77,"Velocity":62,"Duration":95722,"SoundDuration":95722,"Delta":280811901},{"NoteNumber":84,"Velocity":73,"Duration":92792,"SoundDuration":92792,"Delta":280907623},{"NoteNumber":65,"Velocity":62,"Duration":371105,"SoundDuration":371105,"Delta":280907623},{"NoteNumber":89,"Velocity":62,"Duration":92793,"SoundDuration":92793,"Delta":281000416},{"NoteNumber":84,"Velocity":69,"Duration":92792,"SoundDuration":92792,"Delta":281093209},{"NoteNumber":81,"Velocity":57,"Duration":92726,"SoundDuration":92726,"Delta":281186002},{"NoteNumber":77,"Velocity":67,"Duration":92645,"SoundDuration":92645,"Delta":281278729},{"NoteNumber":84,"Velocity":55,"Duration":93143,"SoundDuration":93143,"Delta":281371374},{"NoteNumber":81,"Velocity":61,"Duration":93584,"SoundDuration":93584,"Delta":281464518},{"NoteNumber":77,"Velocity":54,"Duration":94093,"SoundDuration":94093,"Delta":281558102},{"NoteNumber":72,"Velocity":63,"Duration":94538,"SoundDuration":94538,"Delta":281652196},{"NoteNumber":77,"Velocity":55,"Duration":94992,"SoundDuration":94992,"Delta":281746734},{"NoteNumber":65,"Velocity":47,"Duration":94992,"SoundDuration":94992,"Delta":281746734},{"NoteNumber":72,"Velocity":65,"Duration":95592,"SoundDuration":95592,"Delta":281841726},{"NoteNumber":60,"Velocity":54,"Duration":95592,"SoundDuration":95592,"Delta":281841726},{"NoteNumber":69,"Velocity":59,"Duration":103698,"SoundDuration":103698,"Delta":281937318},{"NoteNumber":57,"Velocity":47,"Duration":103698,"SoundDuration":103698,"Delta":281937318},{"NoteNumber":65,"Velocity":85,"Duration":100570,"SoundDuration":100570,"Delta":282041017},{"NoteNumber":53,"Velocity":69,"Duration":100570,"SoundDuration":100570,"Delta":282041017},{"NoteNumber":72,"Velocity":62,"Duration":443951,"SoundDuration":443951,"Delta":282443297},{"NoteNumber":69,"Velocity":62,"Duration":443951,"SoundDuration":443951,"Delta":282443297},{"NoteNumber":77,"Velocity":73,"Duration":443951,"SoundDuration":443951,"Delta":282443297},{"NoteNumber":41,"Velocity":59,"Duration":443951,"SoundDuration":443951,"Delta":282443297},{"NoteNumber":58,"Velocity":34,"Duration":766521,"SoundDuration":766521,"Delta":283331199},{"NoteNumber":53,"Velocity":30,"Duration":413364,"SoundDuration":413364,"Delta":284080497},{"NoteNumber":50,"Velocity":34,"Duration":759275,"SoundDuration":759275,"Delta":284493862},{"NoteNumber":53,"Velocity":32,"Duration":406365,"SoundDuration":406365,"Delta":285236206},{"NoteNumber":58,"Velocity":34,"Duration":752601,"SoundDuration":752601,"Delta":285642572},{"NoteNumber":77,"Velocity":45,"Duration":45829,"SoundDuration":45829,"Delta":285828734},{"NoteNumber":77,"Velocity":49,"Duration":45829,"SoundDuration":45829,"Delta":286012052},{"NoteNumber":77,"Velocity":43,"Duration":45829,"SoundDuration":45829,"Delta":286195370},{"NoteNumber":77,"Velocity":46,"Duration":49456,"SoundDuration":49456,"Delta":286378688},{"NoteNumber":62,"Velocity":36,"Duration":395647,"SoundDuration":395647,"Delta":286378688},{"NoteNumber":77,"Velocity":40,"Duration":49455,"SoundDuration":49455,"Delta":286576512},{"NoteNumber":79,"Velocity":45,"Duration":196078,"SoundDuration":196078,"Delta":286774336},{"NoteNumber":65,"Velocity":38,"Duration":373483,"SoundDuration":373483,"Delta":286774336},{"NoteNumber":77,"Velocity":40,"Duration":196078,"SoundDuration":196078,"Delta":286961077},{"NoteNumber":75,"Velocity":43,"Duration":196078,"SoundDuration":196078,"Delta":287147819},{"NoteNumber":74,"Velocity":40,"Duration":196137,"SoundDuration":196137,"Delta":287334560},{"NoteNumber":72,"Velocity":45,"Duration":197579,"SoundDuration":197579,"Delta":287521302},{"NoteNumber":70,"Velocity":39,"Duration":145021,"SoundDuration":145021,"Delta":287709213},{"NoteNumber":70,"Velocity":41,"Duration":48340,"SoundDuration":48340,"Delta":287902574},{"NoteNumber":51,"Velocity":34,"Duration":772558,"SoundDuration":772558,"Delta":287902574},{"NoteNumber":72,"Velocity":39,"Duration":48340,"SoundDuration":48340,"Delta":287950915},{"NoteNumber":70,"Velocity":49,"Duration":96680,"SoundDuration":96680,"Delta":287999255},{"NoteNumber":69,"Velocity":44,"Duration":187324,"SoundDuration":187324,"Delta":288095936},{"NoteNumber":69,"Velocity":46,"Duration":374649,"SoundDuration":374649,"Delta":288283260},{"NoteNumber":48,"Velocity":30,"Duration":413364,"SoundDuration":413364,"Delta":288657909},{"NoteNumber":45,"Velocity":34,"Duration":759275,"SoundDuration":759275,"Delta":289071274},{"NoteNumber":48,"Velocity":32,"Duration":406365,"SoundDuration":406365,"Delta":289813618},{"NoteNumber":51,"Velocity":34,"Duration":752601,"SoundDuration":752601,"Delta":290219984},{"NoteNumber":75,"Velocity":45,"Duration":45829,"SoundDuration":45829,"Delta":290406146},{"NoteNumber":75,"Velocity":48,"Duration":45829,"SoundDuration":45829,"Delta":290589464},{"NoteNumber":75,"Velocity":42,"Duration":45829,"SoundDuration":45829,"Delta":290772782},{"NoteNumber":75,"Velocity":44,"Duration":49456,"SoundDuration":49456,"Delta":290956100},{"NoteNumber":57,"Velocity":36,"Duration":395647,"SoundDuration":395647,"Delta":290956100},{"NoteNumber":75,"Velocity":40,"Duration":49455,"SoundDuration":49455,"Delta":291153924},{"NoteNumber":77,"Velocity":45,"Duration":196078,"SoundDuration":196078,"Delta":291351748},{"NoteNumber":60,"Velocity":38,"Duration":373483,"SoundDuration":373483,"Delta":291351748},{"NoteNumber":75,"Velocity":40,"Duration":196078,"SoundDuration":196078,"Delta":291538490},{"NoteNumber":74,"Velocity":40,"Duration":196078,"SoundDuration":196078,"Delta":291725231},{"NoteNumber":72,"Velocity":40,"Duration":196078,"SoundDuration":196078,"Delta":291911973},{"NoteNumber":70,"Velocity":45,"Duration":197111,"SoundDuration":197111,"Delta":292098714},{"NoteNumber":69,"Velocity":39,"Duration":207397,"SoundDuration":207397,"Delta":292285456},{"NoteNumber":70,"Velocity":47,"Duration":370027,"SoundDuration":370027,"Delta":292492853},{"NoteNumber":62,"Velocity":35,"Duration":185014,"SoundDuration":185014,"Delta":292492853},{"NoteNumber":65,"Velocity":28,"Duration":185013,"SoundDuration":185013,"Delta":292677867},{"NoteNumber":62,"Velocity":35,"Duration":185014,"SoundDuration":185014,"Delta":292862881},{"NoteNumber":74,"Velocity":47,"Duration":191897,"SoundDuration":191897,"Delta":293047895},{"NoteNumber":65,"Velocity":25,"Duration":182759,"SoundDuration":182759,"Delta":293047895},{"NoteNumber":72,"Velocity":45,"Duration":192304,"SoundDuration":192304,"Delta":293230654},{"NoteNumber":62,"Velocity":32,"Duration":182759,"SoundDuration":182759,"Delta":293230654},{"NoteNumber":70,"Velocity":40,"Duration":200151,"SoundDuration":200151,"Delta":293413414},{"NoteNumber":65,"Velocity":24,"Duration":190900,"SoundDuration":190900,"Delta":293413414},{"NoteNumber":69,"Velocity":47,"Duration":370027,"SoundDuration":370027,"Delta":293604314},{"NoteNumber":63,"Velocity":35,"Duration":185014,"SoundDuration":185014,"Delta":293604314},{"NoteNumber":65,"Velocity":31,"Duration":185013,"SoundDuration":185013,"Delta":293789328},{"NoteNumber":63,"Velocity":35,"Duration":185014,"SoundDuration":185014,"Delta":293974342},{"NoteNumber":79,"Velocity":52,"Duration":191897,"SoundDuration":191897,"Delta":294159356},{"NoteNumber":65,"Velocity":26,"Duration":182759,"SoundDuration":182759,"Delta":294159356},{"NoteNumber":77,"Velocity":47,"Duration":192304,"SoundDuration":192304,"Delta":294342116},{"NoteNumber":63,"Velocity":33,"Duration":182759,"SoundDuration":182759,"Delta":294342116},{"NoteNumber":69,"Velocity":42,"Duration":200122,"SoundDuration":200122,"Delta":294524875},{"NoteNumber":65,"Velocity":29,"Duration":190900,"SoundDuration":190900,"Delta":294524875},{"NoteNumber":70,"Velocity":47,"Duration":368890,"SoundDuration":368890,"Delta":294715776},{"NoteNumber":62,"Velocity":35,"Duration":184444,"SoundDuration":184444,"Delta":294715776},{"NoteNumber":65,"Velocity":30,"Duration":184445,"SoundDuration":184445,"Delta":294900221},{"NoteNumber":62,"Velocity":32,"Duration":184444,"SoundDuration":184444,"Delta":295084666},{"NoteNumber":74,"Velocity":47,"Duration":191314,"SoundDuration":191314,"Delta":295269111},{"NoteNumber":65,"Velocity":24,"Duration":182204,"SoundDuration":182204,"Delta":295269111},{"NoteNumber":72,"Velocity":45,"Duration":191810,"SoundDuration":191810,"Delta":295451315},{"NoteNumber":62,"Velocity":32,"Duration":182204,"SoundDuration":182204,"Delta":295451315},{"NoteNumber":70,"Velocity":40,"Duration":201345,"SoundDuration":201345,"Delta":295633520},{"NoteNumber":65,"Velocity":25,"Duration":192122,"SoundDuration":192122,"Delta":295633520},{"NoteNumber":69,"Velocity":47,"Duration":368890,"SoundDuration":368890,"Delta":295825643},{"NoteNumber":63,"Velocity":35,"Duration":184444,"SoundDuration":184444,"Delta":295825643},{"NoteNumber":65,"Velocity":31,"Duration":184445,"SoundDuration":184445,"Delta":296010088},{"NoteNumber":63,"Velocity":35,"Duration":184444,"SoundDuration":184444,"Delta":296194533},{"NoteNumber":78,"Velocity":52,"Duration":191314,"SoundDuration":191314,"Delta":296378978},{"NoteNumber":65,"Velocity":26,"Duration":182204,"SoundDuration":182204,"Delta":296378978},{"NoteNumber":77,"Velocity":47,"Duration":191719,"SoundDuration":191719,"Delta":296561182},{"NoteNumber":63,"Velocity":33,"Duration":182204,"SoundDuration":182204,"Delta":296561182},{"NoteNumber":69,"Velocity":42,"Duration":199517,"SoundDuration":199517,"Delta":296743387},{"NoteNumber":65,"Velocity":29,"Duration":190294,"SoundDuration":190294,"Delta":296743387},{"NoteNumber":70,"Velocity":47,"Duration":368890,"SoundDuration":368890,"Delta":296933682},{"NoteNumber":61,"Velocity":35,"Duration":184444,"SoundDuration":184444,"Delta":296933682},{"NoteNumber":65,"Velocity":30,"Duration":184445,"SoundDuration":184445,"Delta":297118127},{"NoteNumber":61,"Velocity":32,"Duration":189095,"SoundDuration":189095,"Delta":297302572},{"NoteNumber":77,"Velocity":55,"Duration":190159,"SoundDuration":190159,"Delta":297491667},{"NoteNumber":65,"Velocity":28,"Duration":181104,"SoundDuration":181104,"Delta":297491667},{"NoteNumber":73,"Velocity":53,"Duration":190679,"SoundDuration":190679,"Delta":297672772},{"NoteNumber":61,"Velocity":38,"Duration":181104,"SoundDuration":181104,"Delta":297672772},{"NoteNumber":72,"Velocity":50,"Duration":200731,"SoundDuration":200731,"Delta":297853876},{"NoteNumber":65,"Velocity":31,"Duration":191509,"SoundDuration":191509,"Delta":297853876},{"NoteNumber":71,"Velocity":56,"Duration":368890,"SoundDuration":368890,"Delta":298045386},{"NoteNumber":55,"Velocity":40,"Duration":1109867,"SoundDuration":1109867,"Delta":298045386},{"NoteNumber":62,"Velocity":40,"Duration":184444,"SoundDuration":184444,"Delta":298045386},{"NoteNumber":65,"Velocity":34,"Duration":184445,"SoundDuration":184445,"Delta":298229831},{"NoteNumber":62,"Velocity":38,"Duration":184444,"SoundDuration":184444,"Delta":298414276},{"NoteNumber":80,"Velocity":58,"Duration":191314,"SoundDuration":191314,"Delta":298598721},{"NoteNumber":65,"Velocity":32,"Duration":182204,"SoundDuration":182204,"Delta":298598721},{"NoteNumber":79,"Velocity":52,"Duration":191810,"SoundDuration":191810,"Delta":298780925},{"NoteNumber":62,"Velocity":39,"Duration":182204,"SoundDuration":182204,"Delta":298780925},{"NoteNumber":71,"Velocity":48,"Duration":192122,"SoundDuration":192122,"Delta":298963130},{"NoteNumber":65,"Velocity":32,"Duration":192122,"SoundDuration":192122,"Delta":298963130},{"NoteNumber":74,"Velocity":56,"Duration":193074,"SoundDuration":193074,"Delta":299155253},{"NoteNumber":60,"Velocity":39,"Duration":367759,"SoundDuration":367759,"Delta":299155253},{"NoteNumber":63,"Velocity":39,"Duration":367759,"SoundDuration":367759,"Delta":299155253},{"NoteNumber":72,"Velocity":51,"Duration":192935,"SoundDuration":192935,"Delta":299339133},{"NoteNumber":77,"Velocity":55,"Duration":190500,"SoundDuration":190500,"Delta":299523013},{"NoteNumber":65,"Velocity":35,"Duration":739215,"SoundDuration":739215,"Delta":299523013},{"NoteNumber":57,"Velocity":35,"Duration":369015,"SoundDuration":369015,"Delta":299523013},{"NoteNumber":76,"Velocity":51,"Duration":196966,"SoundDuration":196966,"Delta":299704117},{"NoteNumber":75,"Velocity":50,"Duration":190559,"SoundDuration":190559,"Delta":299892028},{"NoteNumber":58,"Velocity":35,"Duration":370200,"SoundDuration":370200,"Delta":299892028},{"NoteNumber":74,"Velocity":49,"Duration":189095,"SoundDuration":189095,"Delta":300073133},{"NoteNumber":72,"Velocity":54,"Duration":278378,"SoundDuration":278378,"Delta":300262228},{"NoteNumber":51,"Velocity":43,"Duration":377618,"SoundDuration":377618,"Delta":300262228},{"NoteNumber":63,"Velocity":43,"Duration":377618,"SoundDuration":377618,"Delta":300262228},{"NoteNumber":74,"Velocity":48,"Duration":99239,"SoundDuration":99239,"Delta":300540607},{"NoteNumber":70,"Velocity":54,"Duration":380589,"SoundDuration":380589,"Delta":300639847},{"NoteNumber":53,"Velocity":40,"Duration":760987,"SoundDuration":760987,"Delta":300639847},{"NoteNumber":62,"Velocity":40,"Duration":380589,"SoundDuration":380589,"Delta":300639847},{"NoteNumber":69,"Velocity":50,"Duration":63431,"SoundDuration":63431,"Delta":301020437},{"NoteNumber":60,"Velocity":40,"Duration":380397,"SoundDuration":380397,"Delta":301020437},{"NoteNumber":70,"Velocity":44,"Duration":63431,"SoundDuration":63431,"Delta":301083868},{"NoteNumber":69,"Velocity":50,"Duration":63431,"SoundDuration":63431,"Delta":301147300},{"NoteNumber":70,"Velocity":44,"Duration":47573,"SoundDuration":47573,"Delta":301210732},{"NoteNumber":69,"Velocity":50,"Duration":47573,"SoundDuration":47573,"Delta":301258305},{"NoteNumber":67,"Velocity":42,"Duration":47573,"SoundDuration":47573,"Delta":301305879},{"NoteNumber":69,"Velocity":45,"Duration":47381,"SoundDuration":47381,"Delta":301353453},{"NoteNumber":70,"Velocity":49,"Duration":93370,"SoundDuration":93370,"Delta":301400834},{"NoteNumber":58,"Velocity":40,"Duration":373161,"SoundDuration":373161,"Delta":301400834},{"NoteNumber":65,"Velocity":46,"Duration":93370,"SoundDuration":93370,"Delta":301494205},{"NoteNumber":64,"Velocity":49,"Duration":93339,"SoundDuration":93339,"Delta":301587576},{"NoteNumber":65,"Velocity":44,"Duration":93080,"SoundDuration":93080,"Delta":301680915},{"NoteNumber":67,"Velocity":49,"Duration":93081,"SoundDuration":93081,"Delta":301773996},{"NoteNumber":65,"Velocity":44,"Duration":93080,"SoundDuration":93080,"Delta":301867077},{"NoteNumber":64,"Velocity":49,"Duration":91102,"SoundDuration":91102,"Delta":301960158},{"NoteNumber":50,"Velocity":45,"Duration":182204,"SoundDuration":182204,"Delta":301960158},{"NoteNumber":65,"Velocity":44,"Duration":91102,"SoundDuration":91102,"Delta":302051260},{"NoteNumber":63,"Velocity":49,"Duration":91102,"SoundDuration":91102,"Delta":302142363},{"NoteNumber":48,"Velocity":50,"Duration":182280,"SoundDuration":182280,"Delta":302142363},{"NoteNumber":65,"Velocity":49,"Duration":91177,"SoundDuration":91177,"Delta":302233465},{"NoteNumber":62,"Velocity":54,"Duration":95450,"SoundDuration":95450,"Delta":302324643},{"NoteNumber":46,"Velocity":45,"Duration":190821,"SoundDuration":190821,"Delta":302324643},{"NoteNumber":65,"Velocity":49,"Duration":95371,"SoundDuration":95371,"Delta":302420093},{"NoteNumber":60,"Velocity":49,"Duration":93370,"SoundDuration":93370,"Delta":302515464},{"NoteNumber":45,"Velocity":40,"Duration":373161,"SoundDuration":373161,"Delta":302515464},{"NoteNumber":65,"Velocity":46,"Duration":93370,"SoundDuration":93370,"Delta":302608835},{"NoteNumber":64,"Velocity":49,"Duration":93339,"SoundDuration":93339,"Delta":302702206},{"NoteNumber":65,"Velocity":44,"Duration":93080,"SoundDuration":93080,"Delta":302795545},{"NoteNumber":67,"Velocity":49,"Duration":93081,"SoundDuration":93081,"Delta":302888626},{"NoteNumber":65,"Velocity":44,"Duration":93080,"SoundDuration":93080,"Delta":302981707},{"NoteNumber":64,"Velocity":49,"Duration":91102,"SoundDuration":91102,"Delta":303074788},{"NoteNumber":55,"Velocity":45,"Duration":182204,"SoundDuration":182204,"Delta":303074788},{"NoteNumber":65,"Velocity":44,"Duration":91102,"SoundDuration":91102,"Delta":303165890},{"NoteNumber":75,"Velocity":49,"Duration":91102,"SoundDuration":91102,"Delta":303256993},{"NoteNumber":53,"Velocity":50,"Duration":182280,"SoundDuration":182280,"Delta":303256993},{"NoteNumber":65,"Velocity":49,"Duration":91177,"SoundDuration":91177,"Delta":303348095},{"NoteNumber":75,"Velocity":54,"Duration":95450,"SoundDuration":95450,"Delta":303439273},{"NoteNumber":45,"Velocity":45,"Duration":190821,"SoundDuration":190821,"Delta":303439273},{"NoteNumber":65,"Velocity":49,"Duration":95371,"SoundDuration":95371,"Delta":303534723},{"NoteNumber":74,"Velocity":49,"Duration":93370,"SoundDuration":93370,"Delta":303630094},{"NoteNumber":46,"Velocity":40,"Duration":373161,"SoundDuration":373161,"Delta":303630094},{"NoteNumber":77,"Velocity":46,"Duration":93370,"SoundDuration":93370,"Delta":303723465},{"NoteNumber":76,"Velocity":49,"Duration":93339,"SoundDuration":93339,"Delta":303816836},{"NoteNumber":77,"Velocity":44,"Duration":93080,"SoundDuration":93080,"Delta":303910175},{"NoteNumber":79,"Velocity":49,"Duration":93081,"SoundDuration":93081,"Delta":304003256},{"NoteNumber":77,"Velocity":44,"Duration":93080,"SoundDuration":93080,"Delta":304096337},{"NoteNumber":76,"Velocity":49,"Duration":91102,"SoundDuration":91102,"Delta":304189418},{"NoteNumber":62,"Velocity":48,"Duration":182204,"SoundDuration":182204,"Delta":304189418},{"NoteNumber":77,"Velocity":44,"Duration":91102,"SoundDuration":91102,"Delta":304280520},{"NoteNumber":75,"Velocity":49,"Duration":91102,"SoundDuration":91102,"Delta":304371623},{"NoteNumber":60,"Velocity":52,"Duration":182280,"SoundDuration":182280,"Delta":304371623},{"NoteNumber":77,"Velocity":49,"Duration":91177,"SoundDuration":91177,"Delta":304462725},{"NoteNumber":74,"Velocity":54,"Duration":95450,"SoundDuration":95450,"Delta":304553903},{"NoteNumber":58,"Velocity":48,"Duration":190821,"SoundDuration":190821,"Delta":304553903},{"NoteNumber":77,"Velocity":49,"Duration":95371,"SoundDuration":95371,"Delta":304649353},{"NoteNumber":72,"Velocity":49,"Duration":93370,"SoundDuration":93370,"Delta":304744724},{"NoteNumber":57,"Velocity":48,"Duration":373161,"SoundDuration":373161,"Delta":304744724},{"NoteNumber":77,"Velocity":46,"Duration":93370,"SoundDuration":93370,"Delta":304838095},{"NoteNumber":76,"Velocity":49,"Duration":93339,"SoundDuration":93339,"Delta":304931466},{"NoteNumber":77,"Velocity":44,"Duration":93080,"SoundDuration":93080,"Delta":305024805},{"NoteNumber":79,"Velocity":49,"Duration":93081,"SoundDuration":93081,"Delta":305117886},{"NoteNumber":77,"Velocity":44,"Duration":93080,"SoundDuration":93080,"Delta":305210967},{"NoteNumber":76,"Velocity":49,"Duration":91102,"SoundDuration":91102,"Delta":305304048},{"NoteNumber":67,"Velocity":49,"Duration":182204,"SoundDuration":182204,"Delta":305304048},{"NoteNumber":77,"Velocity":44,"Duration":91102,"SoundDuration":91102,"Delta":305395150},{"NoteNumber":87,"Velocity":49,"Duration":91102,"SoundDuration":91102,"Delta":305486253},{"NoteNumber":65,"Velocity":50,"Duration":182280,"SoundDuration":182280,"Delta":305486253},{"NoteNumber":77,"Velocity":49,"Duration":91177,"SoundDuration":91177,"Delta":305577355},{"NoteNumber":87,"Velocity":54,"Duration":95450,"SoundDuration":95450,"Delta":305668533},{"NoteNumber":57,"Velocity":46,"Duration":190821,"SoundDuration":190821,"Delta":305668533},{"NoteNumber":77,"Velocity":49,"Duration":95371,"SoundDuration":95371,"Delta":305763983},{"NoteNumber":86,"Velocity":49,"Duration":93370,"SoundDuration":93370,"Delta":305859354},{"NoteNumber":58,"Velocity":50,"Duration":373161,"SoundDuration":373161,"Delta":305859354},{"NoteNumber":77,"Velocity":46,"Duration":93370,"SoundDuration":93370,"Delta":305952725},{"NoteNumber":76,"Velocity":49,"Duration":93339,"SoundDuration":93339,"Delta":306046096},{"NoteNumber":77,"Velocity":44,"Duration":93080,"SoundDuration":93080,"Delta":306139435},{"NoteNumber":79,"Velocity":49,"Duration":93081,"SoundDuration":93081,"Delta":306232516},{"NoteNumber":77,"Velocity":44,"Duration":93080,"SoundDuration":93080,"Delta":306325597},{"NoteNumber":76,"Velocity":49,"Duration":91102,"SoundDuration":91102,"Delta":306418678},{"NoteNumber":65,"Velocity":50,"Duration":182204,"SoundDuration":182204,"Delta":306418678},{"NoteNumber":77,"Velocity":44,"Duration":91102,"SoundDuration":91102,"Delta":306509780},{"NoteNumber":80,"Velocity":49,"Duration":91940,"SoundDuration":91940,"Delta":306600883},{"NoteNumber":62,"Velocity":54,"Duration":183927,"SoundDuration":183927,"Delta":306600883},{"NoteNumber":77,"Velocity":49,"Duration":91987,"SoundDuration":91987,"Delta":306692823},{"NoteNumber":75,"Velocity":54,"Duration":95450,"SoundDuration":95450,"Delta":306784810},{"NoteNumber":60,"Velocity":51,"Duration":190821,"SoundDuration":190821,"Delta":306784810},{"NoteNumber":77,"Velocity":49,"Duration":95371,"SoundDuration":95371,"Delta":306880261},{"NoteNumber":74,"Velocity":49,"Duration":93370,"SoundDuration":93370,"Delta":306975632},{"NoteNumber":59,"Velocity":54,"Duration":373161,"SoundDuration":373161,"Delta":306975632},{"NoteNumber":79,"Velocity":46,"Duration":93370,"SoundDuration":93370,"Delta":307069003},{"NoteNumber":78,"Velocity":49,"Duration":93339,"SoundDuration":93339,"Delta":307162373},{"NoteNumber":79,"Velocity":44,"Duration":93080,"SoundDuration":93080,"Delta":307255713},{"NoteNumber":81,"Velocity":49,"Duration":96369,"SoundDuration":96369,"Delta":307348794},{"NoteNumber":79,"Velocity":44,"Duration":96370,"SoundDuration":96370,"Delta":307445164},{"NoteNumber":78,"Velocity":52,"Duration":91102,"SoundDuration":91102,"Delta":307541534},{"NoteNumber":68,"Velocity":45,"Duration":182204,"SoundDuration":182204,"Delta":307541534},{"NoteNumber":79,"Velocity":44,"Duration":91102,"SoundDuration":91102,"Delta":307632636},{"NoteNumber":89,"Velocity":55,"Duration":92507,"SoundDuration":92507,"Delta":307723738},{"NoteNumber":67,"Velocity":50,"Duration":185042,"SoundDuration":185042,"Delta":307723738},{"NoteNumber":79,"Velocity":49,"Duration":92535,"SoundDuration":92535,"Delta":307816245},{"NoteNumber":89,"Velocity":57,"Duration":96369,"SoundDuration":96369,"Delta":307908781},{"NoteNumber":59,"Velocity":45,"Duration":192630,"SoundDuration":192630,"Delta":307908781},{"NoteNumber":79,"Velocity":49,"Duration":96260,"SoundDuration":96260,"Delta":308005151},{"NoteNumber":88,"Velocity":62,"Duration":367798,"SoundDuration":367798,"Delta":308101411},{"NoteNumber":60,"Velocity":42,"Duration":91836,"SoundDuration":91836,"Delta":308101411},{"NoteNumber":67,"Velocity":33,"Duration":91764,"SoundDuration":91764,"Delta":308193248},{"NoteNumber":64,"Velocity":36,"Duration":91975,"SoundDuration":91975,"Delta":308285012},{"NoteNumber":67,"Velocity":33,"Duration":92222,"SoundDuration":92222,"Delta":308376988},{"NoteNumber":87,"Velocity":60,"Duration":370924,"SoundDuration":370924,"Delta":308469210},{"NoteNumber":57,"Velocity":38,"Duration":92400,"SoundDuration":92400,"Delta":308469210},{"NoteNumber":66,"Velocity":33,"Duration":92614,"SoundDuration":92614,"Delta":308561611},{"NoteNumber":60,"Velocity":36,"Duration":92828,"SoundDuration":92828,"Delta":308654225},{"NoteNumber":66,"Velocity":33,"Duration":93080,"SoundDuration":93080,"Delta":308747054},{"NoteNumber":86,"Velocity":57,"Duration":374396,"SoundDuration":374396,"Delta":308840135},{"NoteNumber":58,"Velocity":39,"Duration":93262,"SoundDuration":93262,"Delta":308840135},{"NoteNumber":65,"Velocity":33,"Duration":93480,"SoundDuration":93480,"Delta":308933397},{"NoteNumber":62,"Velocity":37,"Duration":93698,"SoundDuration":93698,"Delta":309026877},{"NoteNumber":65,"Velocity":37,"Duration":93955,"SoundDuration":93955,"Delta":309120576},{"NoteNumber":86,"Velocity":60,"Duration":102072,"SoundDuration":102072,"Delta":309214531},{"NoteNumber":51,"Velocity":31,"Duration":378278,"SoundDuration":378278,"Delta":309214531},{"NoteNumber":63,"Velocity":37,"Duration":378278,"SoundDuration":378278,"Delta":309214531},{"NoteNumber":84,"Velocity":52,"Duration":102072,"SoundDuration":102072,"Delta":309307324},{"NoteNumber":87,"Velocity":52,"Duration":102782,"SoundDuration":102782,"Delta":309400117},{"NoteNumber":84,"Velocity":52,"Duration":74925,"SoundDuration":74925,"Delta":309492910},{"NoteNumber":84,"Velocity":62,"Duration":102072,"SoundDuration":102072,"Delta":309592810},{"NoteNumber":53,"Velocity":31,"Duration":371172,"SoundDuration":371172,"Delta":309592810},{"NoteNumber":62,"Velocity":37,"Duration":371172,"SoundDuration":371172,"Delta":309592810},{"NoteNumber":82,"Velocity":52,"Duration":102072,"SoundDuration":102072,"Delta":309685603},{"NoteNumber":86,"Velocity":52,"Duration":102072,"SoundDuration":102072,"Delta":309778396},{"NoteNumber":82,"Velocity":52,"Duration":69594,"SoundDuration":69594,"Delta":309871189},{"NoteNumber":82,"Velocity":62,"Duration":102072,"SoundDuration":102072,"Delta":309963982},{"NoteNumber":51,"Velocity":31,"Duration":380834,"SoundDuration":380834,"Delta":309963982},{"NoteNumber":60,"Velocity":37,"Duration":380834,"SoundDuration":380834,"Delta":309963982},{"NoteNumber":81,"Velocity":52,"Duration":102555,"SoundDuration":102555,"Delta":310056775},{"NoteNumber":84,"Velocity":52,"Duration":107386,"SoundDuration":107386,"Delta":310149568},{"NoteNumber":81,"Velocity":52,"Duration":97624,"SoundDuration":97624,"Delta":310247193},{"NoteNumber":82,"Velocity":54,"Duration":94846,"SoundDuration":94846,"Delta":310344817},{"NoteNumber":50,"Velocity":34,"Duration":374707,"SoundDuration":374707,"Delta":310344817},{"NoteNumber":58,"Velocity":40,"Duration":374707,"SoundDuration":374707,"Delta":310344817},{"NoteNumber":86,"Velocity":57,"Duration":94846,"SoundDuration":94846,"Delta":310439664},{"NoteNumber":89,"Velocity":58,"Duration":92507,"SoundDuration":92507,"Delta":310534511},{"NoteNumber":87,"Velocity":60,"Duration":92507,"SoundDuration":92507,"Delta":310627018},{"NoteNumber":86,"Velocity":58,"Duration":92506,"SoundDuration":92506,"Delta":310719525},{"NoteNumber":84,"Velocity":56,"Duration":92507,"SoundDuration":92507,"Delta":310812032},{"NoteNumber":82,"Velocity":54,"Duration":92507,"SoundDuration":92507,"Delta":310904539},{"NoteNumber":81,"Velocity":52,"Duration":97943,"SoundDuration":97943,"Delta":310997046},{"NoteNumber":79,"Velocity":55,"Duration":92507,"SoundDuration":92507,"Delta":311094989},{"NoteNumber":65,"Velocity":37,"Duration":376107,"SoundDuration":376107,"Delta":311094989},{"NoteNumber":62,"Velocity":31,"Duration":376107,"SoundDuration":376107,"Delta":311094989},{"NoteNumber":77,"Velocity":51,"Duration":92507,"SoundDuration":92507,"Delta":311187496},{"NoteNumber":75,"Velocity":50,"Duration":92506,"SoundDuration":92506,"Delta":311280003},{"NoteNumber":74,"Velocity":50,"Duration":98587,"SoundDuration":98587,"Delta":311372510},{"NoteNumber":72,"Velocity":50,"Duration":94547,"SoundDuration":94547,"Delta":311471097},{"NoteNumber":63,"Velocity":37,"Duration":374109,"SoundDuration":374109,"Delta":311471097},{"NoteNumber":67,"Velocity":44,"Duration":374109,"SoundDuration":374109,"Delta":311471097},{"NoteNumber":75,"Velocity":53,"Duration":94547,"SoundDuration":94547,"Delta":311565645},{"NoteNumber":79,"Velocity":56,"Duration":92507,"SoundDuration":92507,"Delta":311660193},{"NoteNumber":77,"Velocity":55,"Duration":92507,"SoundDuration":92507,"Delta":311752700},{"NoteNumber":75,"Velocity":54,"Duration":92506,"SoundDuration":92506,"Delta":311845207},{"NoteNumber":74,"Velocity":53,"Duration":92507,"SoundDuration":92507,"Delta":311937714},{"NoteNumber":72,"Velocity":52,"Duration":92507,"SoundDuration":92507,"Delta":312030221},{"NoteNumber":70,"Velocity":50,"Duration":92507,"SoundDuration":92507,"Delta":312122728},{"NoteNumber":69,"Velocity":49,"Duration":92507,"SoundDuration":92507,"Delta":312215235},{"NoteNumber":55,"Velocity":31,"Duration":374965,"SoundDuration":374965,"Delta":312215235},{"NoteNumber":58,"Velocity":31,"Duration":374965,"SoundDuration":374965,"Delta":312215235},{"NoteNumber":60,"Velocity":37,"Duration":374965,"SoundDuration":374965,"Delta":312215235},{"NoteNumber":67,"Velocity":50,"Duration":92506,"SoundDuration":92506,"Delta":312307742},{"NoteNumber":65,"Velocity":53,"Duration":92507,"SoundDuration":92507,"Delta":312400249},{"NoteNumber":64,"Velocity":56,"Duration":97444,"SoundDuration":97444,"Delta":312492756},{"NoteNumber":65,"Velocity":59,"Duration":93955,"SoundDuration":93955,"Delta":312590200},{"NoteNumber":53,"Velocity":45,"Duration":93955,"SoundDuration":93955,"Delta":312590200},{"NoteNumber":62,"Velocity":37,"Duration":93698,"SoundDuration":93698,"Delta":312684156},{"NoteNumber":70,"Velocity":59,"Duration":93480,"SoundDuration":93480,"Delta":312777855},{"NoteNumber":58,"Velocity":40,"Duration":93480,"SoundDuration":93480,"Delta":312777855},{"NoteNumber":62,"Velocity":37,"Duration":93189,"SoundDuration":93189,"Delta":312871335},{"NoteNumber":74,"Velocity":61,"Duration":92972,"SoundDuration":92972,"Delta":312964525},{"NoteNumber":53,"Velocity":45,"Duration":92972,"SoundDuration":92972,"Delta":312964525},{"NoteNumber":62,"Velocity":37,"Duration":92685,"SoundDuration":92685,"Delta":313057498},{"NoteNumber":77,"Velocity":62,"Duration":92507,"SoundDuration":92507,"Delta":313150183},{"NoteNumber":58,"Velocity":40,"Duration":92507,"SoundDuration":92507,"Delta":313150183},{"NoteNumber":62,"Velocity":37,"Duration":92507,"SoundDuration":92507,"Delta":313242690},{"NoteNumber":82,"Velocity":64,"Duration":92506,"SoundDuration":92506,"Delta":313335197},{"NoteNumber":53,"Velocity":48,"Duration":92506,"SoundDuration":92506,"Delta":313335197},{"NoteNumber":62,"Velocity":37,"Duration":92507,"SoundDuration":92507,"Delta":313427704},{"NoteNumber":86,"Velocity":65,"Duration":92507,"SoundDuration":92507,"Delta":313520211},{"NoteNumber":58,"Velocity":41,"Duration":92507,"SoundDuration":92507,"Delta":313520211},{"NoteNumber":62,"Velocity":37,"Duration":98790,"SoundDuration":98790,"Delta":313612718},{"NoteNumber":72,"Velocity":37,"Duration":48971,"SoundDuration":48971,"Delta":313711509},{"NoteNumber":53,"Velocity":45,"Duration":97823,"SoundDuration":97823,"Delta":313711509},{"NoteNumber":74,"Velocity":31,"Duration":48852,"SoundDuration":48852,"Delta":313760481},{"NoteNumber":72,"Velocity":37,"Duration":48772,"SoundDuration":48772,"Delta":313809333},{"NoteNumber":63,"Velocity":37,"Duration":97387,"SoundDuration":97387,"Delta":313809333},{"NoteNumber":74,"Velocity":31,"Duration":48614,"SoundDuration":48614,"Delta":313858106},{"NoteNumber":72,"Velocity":37,"Duration":48496,"SoundDuration":48496,"Delta":313906720},{"NoteNumber":57,"Velocity":40,"Duration":96876,"SoundDuration":96876,"Delta":313906720},{"NoteNumber":74,"Velocity":32,"Duration":48379,"SoundDuration":48379,"Delta":313955217},{"NoteNumber":72,"Velocity":37,"Duration":48301,"SoundDuration":48301,"Delta":314003596},{"NoteNumber":63,"Velocity":37,"Duration":96447,"SoundDuration":96447,"Delta":314003596},{"NoteNumber":74,"Velocity":33,"Duration":48146,"SoundDuration":48146,"Delta":314051898},{"NoteNumber":72,"Velocity":37,"Duration":48030,"SoundDuration":48030,"Delta":314100044},{"NoteNumber":53,"Velocity":45,"Duration":95946,"SoundDuration":95946,"Delta":314100044},{"NoteNumber":74,"Velocity":32,"Duration":47915,"SoundDuration":47915,"Delta":314148075},{"NoteNumber":72,"Velocity":37,"Duration":47839,"SoundDuration":47839,"Delta":314195991},{"NoteNumber":63,"Velocity":37,"Duration":95526,"SoundDuration":95526,"Delta":314195991},{"NoteNumber":74,"Velocity":32,"Duration":47687,"SoundDuration":47687,"Delta":314243830},{"NoteNumber":72,"Velocity":37,"Duration":47573,"SoundDuration":47573,"Delta":314291517},{"NoteNumber":57,"Velocity":40,"Duration":95034,"SoundDuration":95034,"Delta":314291517},{"NoteNumber":74,"Velocity":31,"Duration":47460,"SoundDuration":47460,"Delta":314339091},{"NoteNumber":72,"Velocity":37,"Duration":47385,"SoundDuration":47385,"Delta":314386552},{"NoteNumber":63,"Velocity":37,"Duration":94622,"SoundDuration":94622,"Delta":314386552},{"NoteNumber":74,"Velocity":33,"Duration":47236,"SoundDuration":47236,"Delta":314433938},{"NoteNumber":72,"Velocity":37,"Duration":47162,"SoundDuration":47162,"Delta":314481175},{"NoteNumber":53,"Velocity":48,"Duration":94473,"SoundDuration":94473,"Delta":314481175},{"NoteNumber":74,"Velocity":32,"Duration":47311,"SoundDuration":47311,"Delta":314528337},{"NoteNumber":72,"Velocity":37,"Duration":63331,"SoundDuration":63331,"Delta":314575648},{"NoteNumber":63,"Velocity":37,"Duration":95148,"SoundDuration":95148,"Delta":314575648},{"NoteNumber":74,"Velocity":32,"Duration":63696,"SoundDuration":63696,"Delta":314638980},{"NoteNumber":57,"Velocity":41,"Duration":95870,"SoundDuration":95870,"Delta":314670797},{"NoteNumber":72,"Velocity":37,"Duration":63990,"SoundDuration":63990,"Delta":314702677},{"NoteNumber":70,"Velocity":33,"Duration":48223,"SoundDuration":48223,"Delta":314766667},{"NoteNumber":63,"Velocity":37,"Duration":96603,"SoundDuration":96603,"Delta":314766667},{"NoteNumber":72,"Velocity":33,"Duration":48379,"SoundDuration":48379,"Delta":314814891},{"NoteNumber":70,"Velocity":49,"Duration":429213,"SoundDuration":429213,"Delta":314863270},{"NoteNumber":58,"Velocity":41,"Duration":238768,"SoundDuration":238768,"Delta":314863270},{"NoteNumber":62,"Velocity":28,"Duration":210167,"SoundDuration":210167,"Delta":315092016},{"NoteNumber":65,"Velocity":35,"Duration":203685,"SoundDuration":203685,"Delta":315292484},{"NoteNumber":70,"Velocity":34,"Duration":203685,"SoundDuration":203685,"Delta":315486470},{"NoteNumber":69,"Velocity":32,"Duration":204043,"SoundDuration":204043,"Delta":315680457},{"NoteNumber":68,"Velocity":30,"Duration":210746,"SoundDuration":210746,"Delta":315874443},{"NoteNumber":75,"Velocity":46,"Duration":384246,"SoundDuration":384246,"Delta":316075583},{"NoteNumber":67,"Velocity":28,"Duration":192122,"SoundDuration":192122,"Delta":316075583},{"NoteNumber":70,"Velocity":21,"Duration":192123,"SoundDuration":192123,"Delta":316267706},{"NoteNumber":77,"Velocity":50,"Duration":384246,"SoundDuration":384246,"Delta":316459829},{"NoteNumber":65,"Velocity":31,"Duration":192122,"SoundDuration":192122,"Delta":316459829},{"NoteNumber":70,"Velocity":24,"Duration":192123,"SoundDuration":192123,"Delta":316651952},{"NoteNumber":79,"Velocity":51,"Duration":391773,"SoundDuration":391773,"Delta":316844075},{"NoteNumber":63,"Velocity":31,"Duration":195886,"SoundDuration":195886,"Delta":316844075},{"NoteNumber":70,"Velocity":25,"Duration":195886,"SoundDuration":195886,"Delta":317039962},{"NoteNumber":77,"Velocity":51,"Duration":578219,"SoundDuration":578219,"Delta":317235848},{"NoteNumber":62,"Velocity":31,"Duration":192740,"SoundDuration":192740,"Delta":317235848},{"NoteNumber":70,"Velocity":28,"Duration":192739,"SoundDuration":192739,"Delta":317428588},{"NoteNumber":69,"Velocity":31,"Duration":192740,"SoundDuration":192740,"Delta":317621328},{"NoteNumber":79,"Velocity":48,"Duration":106007,"SoundDuration":106007,"Delta":317814068},{"NoteNumber":70,"Velocity":28,"Duration":192740,"SoundDuration":192740,"Delta":317814068},{"NoteNumber":77,"Velocity":43,"Duration":106006,"SoundDuration":106006,"Delta":317910438},{"NoteNumber":75,"Velocity":50,"Duration":106006,"SoundDuration":106006,"Delta":318006808},{"NoteNumber":55,"Velocity":31,"Duration":192740,"SoundDuration":192740,"Delta":318006808},{"NoteNumber":74,"Velocity":48,"Duration":106326,"SoundDuration":106326,"Delta":318103178},{"NoteNumber":72,"Velocity":47,"Duration":109525,"SoundDuration":109525,"Delta":318199548},{"NoteNumber":63,"Velocity":27,"Duration":199137,"SoundDuration":199137,"Delta":318199548},{"NoteNumber":70,"Velocity":45,"Duration":99568,"SoundDuration":99568,"Delta":318299117},{"NoteNumber":74,"Velocity":48,"Duration":578219,"SoundDuration":578219,"Delta":318398685},{"NoteNumber":53,"Velocity":31,"Duration":192740,"SoundDuration":192740,"Delta":318398685},{"NoteNumber":62,"Velocity":27,"Duration":192739,"SoundDuration":192739,"Delta":318591425},{"NoteNumber":58,"Velocity":31,"Duration":192740,"SoundDuration":192740,"Delta":318784165},{"NoteNumber":75,"Velocity":40,"Duration":192740,"SoundDuration":192740,"Delta":318976905},{"NoteNumber":62,"Velocity":29,"Duration":192740,"SoundDuration":192740,"Delta":318976905},{"NoteNumber":72,"Velocity":44,"Duration":392539,"SoundDuration":392539,"Delta":319169645},{"NoteNumber":53,"Velocity":31,"Duration":192740,"SoundDuration":192740,"Delta":319169645},{"NoteNumber":63,"Velocity":27,"Duration":199799,"SoundDuration":199799,"Delta":319362385},{"NoteNumber":70,"Velocity":46,"Duration":389947,"SoundDuration":389947,"Delta":319562185},{"NoteNumber":62,"Velocity":31,"Duration":197824,"SoundDuration":197824,"Delta":319562185},{"NoteNumber":58,"Velocity":24,"Duration":192122,"SoundDuration":192122,"Delta":319760009},{"NoteNumber":57,"Velocity":30,"Duration":192123,"SoundDuration":192123,"Delta":319952132},{"NoteNumber":56,"Velocity":26,"Duration":192122,"SoundDuration":192122,"Delta":320144255},{"NoteNumber":55,"Velocity":29,"Duration":192122,"SoundDuration":192122,"Delta":320336378},{"NoteNumber":54,"Velocity":31,"Duration":197824,"SoundDuration":197824,"Delta":320528501},{"NoteNumber":63,"Velocity":52,"Duration":194615,"SoundDuration":194615,"Delta":320726325},{"NoteNumber":55,"Velocity":28,"Duration":194615,"SoundDuration":194615,"Delta":320726325},{"NoteNumber":75,"Velocity":47,"Duration":192122,"SoundDuration":192122,"Delta":320920941},{"NoteNumber":58,"Velocity":27,"Duration":192122,"SoundDuration":192122,"Delta":320920941},{"NoteNumber":65,"Velocity":54,"Duration":192122,"SoundDuration":192122,"Delta":321113064},{"NoteNumber":53,"Velocity":38,"Duration":192122,"SoundDuration":192122,"Delta":321113064},{"NoteNumber":77,"Velocity":47,"Duration":192123,"SoundDuration":192123,"Delta":321305187},{"NoteNumber":57,"Velocity":32,"Duration":192123,"SoundDuration":192123,"Delta":321305187},{"NoteNumber":67,"Velocity":58,"Duration":192122,"SoundDuration":192122,"Delta":321497310},{"NoteNumber":52,"Velocity":40,"Duration":192122,"SoundDuration":192122,"Delta":321497310},{"NoteNumber":79,"Velocity":52,"Duration":196528,"SoundDuration":196528,"Delta":321689433},{"NoteNumber":61,"Velocity":34,"Duration":196528,"SoundDuration":196528,"Delta":321689433},{"NoteNumber":77,"Velocity":61,"Duration":192740,"SoundDuration":192740,"Delta":321885961},{"NoteNumber":53,"Velocity":41,"Duration":192740,"SoundDuration":192740,"Delta":321885961},{"NoteNumber":79,"Velocity":54,"Duration":96369,"SoundDuration":96369,"Delta":322078701},{"NoteNumber":62,"Velocity":35,"Duration":192739,"SoundDuration":192739,"Delta":322078701},{"NoteNumber":81,"Velocity":58,"Duration":96369,"SoundDuration":96369,"Delta":322175071},{"NoteNumber":82,"Velocity":61,"Duration":96370,"SoundDuration":96370,"Delta":322271441},{"NoteNumber":58,"Velocity":38,"Duration":192740,"SoundDuration":192740,"Delta":322271441},{"NoteNumber":81,"Velocity":61,"Duration":96369,"SoundDuration":96369,"Delta":322367811},{"NoteNumber":79,"Velocity":60,"Duration":96370,"SoundDuration":96370,"Delta":322464181},{"NoteNumber":62,"Velocity":33,"Duration":192740,"SoundDuration":192740,"Delta":322464181},{"NoteNumber":77,"Velocity":58,"Duration":96369,"SoundDuration":96369,"Delta":322560551},{"NoteNumber":75,"Velocity":57,"Duration":96369,"SoundDuration":96369,"Delta":322656921},{"NoteNumber":53,"Velocity":40,"Duration":192740,"SoundDuration":192740,"Delta":322656921},{"NoteNumber":74,"Velocity":55,"Duration":96370,"SoundDuration":96370,"Delta":322753291},{"NoteNumber":72,"Velocity":54,"Duration":99568,"SoundDuration":99568,"Delta":322849661},{"NoteNumber":62,"Velocity":35,"Duration":199137,"SoundDuration":199137,"Delta":322849661},{"NoteNumber":70,"Velocity":52,"Duration":99568,"SoundDuration":99568,"Delta":322949229},{"NoteNumber":74,"Velocity":62,"Duration":578219,"SoundDuration":578219,"Delta":323048798},{"NoteNumber":53,"Velocity":41,"Duration":192740,"SoundDuration":192740,"Delta":323048798},{"NoteNumber":65,"Velocity":33,"Duration":192739,"SoundDuration":192739,"Delta":323241538},{"NoteNumber":62,"Velocity":43,"Duration":192740,"SoundDuration":192740,"Delta":323434278},{"NoteNumber":75,"Velocity":56,"Duration":192740,"SoundDuration":192740,"Delta":323627018},{"NoteNumber":65,"Velocity":33,"Duration":192740,"SoundDuration":192740,"Delta":323627018},{"NoteNumber":72,"Velocity":62,"Duration":392539,"SoundDuration":392539,"Delta":323819758},{"NoteNumber":53,"Velocity":45,"Duration":192740,"SoundDuration":192740,"Delta":323819758},{"NoteNumber":63,"Velocity":38,"Duration":199799,"SoundDuration":199799,"Delta":324012498},{"NoteNumber":70,"Velocity":67,"Duration":389947,"SoundDuration":389947,"Delta":324212298},{"NoteNumber":58,"Velocity":54,"Duration":98912,"SoundDuration":98912,"Delta":324311210},{"NoteNumber":62,"Velocity":56,"Duration":96061,"SoundDuration":96061,"Delta":324410122},{"NoteNumber":65,"Velocity":59,"Duration":96061,"SoundDuration":96061,"Delta":324506183},{"NoteNumber":70,"Velocity":61,"Duration":192123,"SoundDuration":192123,"Delta":324602245},{"NoteNumber":77,"Velocity":60,"Duration":96061,"SoundDuration":96061,"Delta":324698306},{"NoteNumber":79,"Velocity":65,"Duration":96061,"SoundDuration":96061,"Delta":324794368},{"NoteNumber":77,"Velocity":60,"Duration":96061,"SoundDuration":96061,"Delta":324890429},{"NoteNumber":75,"Velocity":64,"Duration":96061,"SoundDuration":96061,"Delta":324986491},{"NoteNumber":53,"Velocity":54,"Duration":192122,"SoundDuration":192122,"Delta":324986491},{"NoteNumber":57,"Velocity":54,"Duration":192122,"SoundDuration":192122,"Delta":324986491},{"NoteNumber":74,"Velocity":62,"Duration":96061,"SoundDuration":96061,"Delta":325082552},{"NoteNumber":75,"Velocity":60,"Duration":111815,"SoundDuration":111815,"Delta":325178614},{"NoteNumber":72,"Velocity":58,"Duration":111815,"SoundDuration":111815,"Delta":325290429},{"NoteNumber":70,"Velocity":68,"Duration":389947,"SoundDuration":389947,"Delta":325402244},{"NoteNumber":46,"Velocity":54,"Duration":98912,"SoundDuration":98912,"Delta":325501156},{"NoteNumber":50,"Velocity":56,"Duration":96061,"SoundDuration":96061,"Delta":325600068},{"NoteNumber":53,"Velocity":59,"Duration":96061,"SoundDuration":96061,"Delta":325696130},{"NoteNumber":58,"Velocity":61,"Duration":192123,"SoundDuration":192123,"Delta":325792191},{"NoteNumber":65,"Velocity":60,"Duration":96061,"SoundDuration":96061,"Delta":325888253},{"NoteNumber":67,"Velocity":65,"Duration":96061,"SoundDuration":96061,"Delta":325984314},{"NoteNumber":65,"Velocity":60,"Duration":96061,"SoundDuration":96061,"Delta":326080376},{"NoteNumber":63,"Velocity":64,"Duration":96061,"SoundDuration":96061,"Delta":326176437},{"NoteNumber":41,"Velocity":54,"Duration":192122,"SoundDuration":192122,"Delta":326176437},{"NoteNumber":45,"Velocity":54,"Duration":192122,"SoundDuration":192122,"Delta":326176437},{"NoteNumber":62,"Velocity":62,"Duration":96061,"SoundDuration":96061,"Delta":326272499},{"NoteNumber":63,"Velocity":60,"Duration":111815,"SoundDuration":111815,"Delta":326368560},{"NoteNumber":60,"Velocity":58,"Duration":111815,"SoundDuration":111815,"Delta":326480375},{"NoteNumber":58,"Velocity":71,"Duration":156541,"SoundDuration":156541,"Delta":326592191},{"NoteNumber":46,"Velocity":59,"Duration":156541,"SoundDuration":156541,"Delta":326592191},{"NoteNumber":74,"Velocity":59,"Duration":447261,"SoundDuration":447261,"Delta":327039452},{"NoteNumber":77,"Velocity":59,"Duration":447261,"SoundDuration":447261,"Delta":327039452},{"NoteNumber":82,"Velocity":77,"Duration":447261,"SoundDuration":447261,"Delta":327039452},{"NoteNumber":34,"Velocity":59,"Duration":447261,"SoundDuration":447261,"Delta":327039452},{"NoteNumber":66,"Velocity":71,"Duration":519255,"SoundDuration":519255,"Delta":327933974},{"NoteNumber":51,"Velocity":59,"Duration":519255,"SoundDuration":519255,"Delta":327933974},{"NoteNumber":68,"Velocity":59,"Duration":485633,"SoundDuration":485633,"Delta":328453230},{"NoteNumber":72,"Velocity":59,"Duration":485633,"SoundDuration":485633,"Delta":328453230},{"NoteNumber":78,"Velocity":77,"Duration":485633,"SoundDuration":485633,"Delta":328453230},{"NoteNumber":39,"Velocity":59,"Duration":485633,"SoundDuration":485633,"Delta":328453230},{"NoteNumber":61,"Velocity":43,"Duration":744647,"SoundDuration":744647,"Delta":329424496},{"NoteNumber":49,"Velocity":20,"Duration":1127338,"SoundDuration":1127338,"Delta":329424496},{"NoteNumber":53,"Velocity":33,"Duration":186162,"SoundDuration":186162,"Delta":329424496},{"NoteNumber":56,"Velocity":23,"Duration":186161,"SoundDuration":186161,"Delta":329610658},{"NoteNumber":53,"Velocity":27,"Duration":186162,"SoundDuration":186162,"Delta":329796820},{"NoteNumber":56,"Velocity":22,"Duration":186161,"SoundDuration":186161,"Delta":329982982},{"NoteNumber":63,"Velocity":36,"Duration":102389,"SoundDuration":102389,"Delta":330169144},{"NoteNumber":53,"Velocity":26,"Duration":186162,"SoundDuration":186162,"Delta":330169144},{"NoteNumber":61,"Velocity":36,"Duration":102907,"SoundDuration":102907,"Delta":330262225},{"NoteNumber":60,"Velocity":36,"Duration":108090,"SoundDuration":108090,"Delta":330355306},{"NoteNumber":56,"Velocity":22,"Duration":196528,"SoundDuration":196528,"Delta":330355306},{"NoteNumber":61,"Velocity":36,"Duration":98264,"SoundDuration":98264,"Delta":330453570},{"NoteNumber":70,"Velocity":42,"Duration":185586,"SoundDuration":185586,"Delta":330551834},{"NoteNumber":48,"Velocity":20,"Duration":1131574,"SoundDuration":1131574,"Delta":330551834},{"NoteNumber":54,"Velocity":36,"Duration":185586,"SoundDuration":185586,"Delta":330551834},{"NoteNumber":68,"Velocity":37,"Duration":180946,"SoundDuration":180946,"Delta":330737420},{"NoteNumber":56,"Velocity":23,"Duration":185586,"SoundDuration":185586,"Delta":330737420},{"NoteNumber":68,"Velocity":43,"Duration":371172,"SoundDuration":371172,"Delta":330923006},{"NoteNumber":54,"Velocity":27,"Duration":185586,"SoundDuration":185586,"Delta":330923006},{"NoteNumber":56,"Velocity":23,"Duration":185586,"SoundDuration":185586,"Delta":331108592},{"NoteNumber":68,"Velocity":38,"Duration":389230,"SoundDuration":389230,"Delta":331294178},{"NoteNumber":54,"Velocity":27,"Duration":194615,"SoundDuration":194615,"Delta":331294178},{"NoteNumber":56,"Velocity":24,"Duration":194615,"SoundDuration":194615,"Delta":331488793},{"NoteNumber":68,"Velocity":39,"Duration":196546,"SoundDuration":196546,"Delta":331683409},{"NoteNumber":49,"Velocity":20,"Duration":1123582,"SoundDuration":1123582,"Delta":331683409},{"NoteNumber":53,"Velocity":33,"Duration":187324,"SoundDuration":187324,"Delta":331683409},{"NoteNumber":73,"Velocity":45,"Duration":193667,"SoundDuration":193667,"Delta":331870733},{"NoteNumber":56,"Velocity":23,"Duration":184444,"SoundDuration":184444,"Delta":331870733},{"NoteNumber":72,"Velocity":44,"Duration":193667,"SoundDuration":193667,"Delta":332055178},{"NoteNumber":53,"Velocity":27,"Duration":184445,"SoundDuration":184445,"Delta":332055178},{"NoteNumber":71,"Velocity":41,"Duration":193667,"SoundDuration":193667,"Delta":332239623},{"NoteNumber":56,"Velocity":23,"Duration":184444,"SoundDuration":184444,"Delta":332239623},{"NoteNumber":70,"Velocity":40,"Duration":194368,"SoundDuration":194368,"Delta":332424068},{"NoteNumber":53,"Velocity":27,"Duration":184444,"SoundDuration":184444,"Delta":332424068},{"NoteNumber":69,"Velocity":38,"Duration":207786,"SoundDuration":207786,"Delta":332608513},{"NoteNumber":56,"Velocity":25,"Duration":198478,"SoundDuration":198478,"Delta":332608513},{"NoteNumber":68,"Velocity":41,"Duration":372323,"SoundDuration":372323,"Delta":332806992},{"NoteNumber":48,"Velocity":20,"Duration":1118838,"SoundDuration":1118838,"Delta":332806992},{"NoteNumber":54,"Velocity":31,"Duration":186162,"SoundDuration":186162,"Delta":332806992},{"NoteNumber":56,"Velocity":27,"Duration":186161,"SoundDuration":186161,"Delta":332993154},{"NoteNumber":54,"Velocity":27,"Duration":186162,"SoundDuration":186162,"Delta":333179316},{"NoteNumber":56,"Velocity":24,"Duration":186161,"SoundDuration":186161,"Delta":333365478},{"NoteNumber":54,"Velocity":27,"Duration":186162,"SoundDuration":186162,"Delta":333551640},{"NoteNumber":56,"Velocity":23,"Duration":188028,"SoundDuration":188028,"Delta":333737802},{"NoteNumber":61,"Velocity":45,"Duration":740512,"SoundDuration":740512,"Delta":333925831},{"NoteNumber":49,"Velocity":21,"Duration":1122167,"SoundDuration":1122167,"Delta":333925831},{"NoteNumber":53,"Velocity":35,"Duration":185128,"SoundDuration":185128,"Delta":333925831},{"NoteNumber":56,"Velocity":24,"Duration":185127,"SoundDuration":185127,"Delta":334110959},{"NoteNumber":53,"Velocity":28,"Duration":185128,"SoundDuration":185128,"Delta":334296087},{"NoteNumber":56,"Velocity":23,"Duration":185128,"SoundDuration":185128,"Delta":334481215},{"NoteNumber":63,"Velocity":42,"Duration":101820,"SoundDuration":101820,"Delta":334666343},{"NoteNumber":53,"Velocity":27,"Duration":185127,"SoundDuration":185127,"Delta":334666343},{"NoteNumber":61,"Velocity":39,"Duration":102390,"SoundDuration":102390,"Delta":334758907},{"NoteNumber":60,"Velocity":42,"Duration":108090,"SoundDuration":108090,"Delta":334851471},{"NoteNumber":56,"Velocity":23,"Duration":196528,"SoundDuration":196528,"Delta":334851471},{"NoteNumber":61,"Velocity":40,"Duration":98264,"SoundDuration":98264,"Delta":334949735},{"NoteNumber":70,"Velocity":54,"Duration":185586,"SoundDuration":185586,"Delta":335047999},{"NoteNumber":48,"Velocity":21,"Duration":1131574,"SoundDuration":1131574,"Delta":335047999},{"NoteNumber":51,"Velocity":38,"Duration":185586,"SoundDuration":185586,"Delta":335047999},{"NoteNumber":69,"Velocity":48,"Duration":185586,"SoundDuration":185586,"Delta":335233585},{"NoteNumber":54,"Velocity":24,"Duration":185586,"SoundDuration":185586,"Delta":335233585},{"NoteNumber":69,"Velocity":53,"Duration":371172,"SoundDuration":371172,"Delta":335419171},{"NoteNumber":51,"Velocity":32,"Duration":185586,"SoundDuration":185586,"Delta":335419171},{"NoteNumber":54,"Velocity":28,"Duration":185586,"SoundDuration":185586,"Delta":335604757},{"NoteNumber":69,"Velocity":47,"Duration":389230,"SoundDuration":389230,"Delta":335790343},{"NoteNumber":51,"Velocity":32,"Duration":194615,"SoundDuration":194615,"Delta":335790343},{"NoteNumber":54,"Velocity":27,"Duration":194615,"SoundDuration":194615,"Delta":335984958},{"NoteNumber":70,"Velocity":50,"Duration":196546,"SoundDuration":196546,"Delta":336179574},{"NoteNumber":49,"Velocity":23,"Duration":1123582,"SoundDuration":1123582,"Delta":336179574},{"NoteNumber":53,"Velocity":37,"Duration":187324,"SoundDuration":187324,"Delta":336179574},{"NoteNumber":77,"Velocity":54,"Duration":193667,"SoundDuration":193667,"Delta":336366898},{"NoteNumber":58,"Velocity":32,"Duration":184444,"SoundDuration":184444,"Delta":336366898},{"NoteNumber":73,"Velocity":55,"Duration":193667,"SoundDuration":193667,"Delta":336551343},{"NoteNumber":53,"Velocity":34,"Duration":184445,"SoundDuration":184445,"Delta":336551343},{"NoteNumber":72,"Velocity":53,"Duration":193667,"SoundDuration":193667,"Delta":336735788},{"NoteNumber":58,"Velocity":29,"Duration":184444,"SoundDuration":184444,"Delta":336735788},{"NoteNumber":70,"Velocity":51,"Duration":194368,"SoundDuration":194368,"Delta":336920233},{"NoteNumber":53,"Velocity":30,"Duration":184444,"SoundDuration":184444,"Delta":336920233},{"NoteNumber":68,"Velocity":50,"Duration":207786,"SoundDuration":207786,"Delta":337104678},{"NoteNumber":58,"Velocity":28,"Duration":198478,"SoundDuration":198478,"Delta":337104678},{"NoteNumber":67,"Velocity":50,"Duration":372323,"SoundDuration":372323,"Delta":337303157},{"NoteNumber":52,"Velocity":23,"Duration":1116971,"SoundDuration":1116971,"Delta":337303157},{"NoteNumber":58,"Velocity":37,"Duration":186162,"SoundDuration":186162,"Delta":337303157},{"NoteNumber":61,"Velocity":30,"Duration":186161,"SoundDuration":186161,"Delta":337489319},{"NoteNumber":58,"Velocity":30,"Duration":186162,"SoundDuration":186162,"Delta":337675481},{"NoteNumber":61,"Velocity":27,"Duration":195470,"SoundDuration":195470,"Delta":337861643},{"NoteNumber":58,"Velocity":30,"Duration":186162,"SoundDuration":186162,"Delta":338047805},{"NoteNumber":61,"Velocity":26,"Duration":186161,"SoundDuration":186161,"Delta":338233967},{"NoteNumber":68,"Velocity":59,"Duration":196546,"SoundDuration":196546,"Delta":338420129},{"NoteNumber":53,"Velocity":25,"Duration":1123582,"SoundDuration":1123582,"Delta":338420129},{"NoteNumber":56,"Velocity":40,"Duration":187324,"SoundDuration":187324,"Delta":338420129},{"NoteNumber":80,"Velocity":62,"Duration":193667,"SoundDuration":193667,"Delta":338607453},{"NoteNumber":60,"Velocity":28,"Duration":184444,"SoundDuration":184444,"Delta":338607453},{"NoteNumber":77,"Velocity":61,"Duration":193667,"SoundDuration":193667,"Delta":338791898},{"NoteNumber":56,"Velocity":33,"Duration":184445,"SoundDuration":184445,"Delta":338791898},{"NoteNumber":75,"Velocity":60,"Duration":193667,"SoundDuration":193667,"Delta":338976343},{"NoteNumber":60,"Velocity":28,"Duration":184444,"SoundDuration":184444,"Delta":338976343},{"NoteNumber":74,"Velocity":58,"Duration":194368,"SoundDuration":194368,"Delta":339160788},{"NoteNumber":56,"Velocity":36,"Duration":184444,"SoundDuration":184444,"Delta":339160788},{"NoteNumber":72,"Velocity":57,"Duration":207786,"SoundDuration":207786,"Delta":339345233},{"NoteNumber":60,"Velocity":32,"Duration":198478,"SoundDuration":198478,"Delta":339345233},{"NoteNumber":71,"Velocity":62,"Duration":372323,"SoundDuration":372323,"Delta":339543712},{"NoteNumber":55,"Velocity":36,"Duration":1116971,"SoundDuration":1116971,"Delta":339543712},{"NoteNumber":62,"Velocity":36,"Duration":186162,"SoundDuration":186162,"Delta":339543712},{"NoteNumber":65,"Velocity":29,"Duration":186161,"SoundDuration":186161,"Delta":339729874},{"NoteNumber":62,"Velocity":34,"Duration":186162,"SoundDuration":186162,"Delta":339916036},{"NoteNumber":65,"Velocity":28,"Duration":195470,"SoundDuration":195470,"Delta":340102198},{"NoteNumber":62,"Velocity":35,"Duration":186162,"SoundDuration":186162,"Delta":340288360},{"NoteNumber":65,"Velocity":28,"Duration":186161,"SoundDuration":186161,"Delta":340474522},{"NoteNumber":72,"Velocity":61,"Duration":196546,"SoundDuration":196546,"Delta":340660684},{"NoteNumber":56,"Velocity":42,"Duration":1123582,"SoundDuration":1123582,"Delta":340660684},{"NoteNumber":60,"Velocity":42,"Duration":187324,"SoundDuration":187324,"Delta":340660684},{"NoteNumber":87,"Velocity":64,"Duration":193667,"SoundDuration":193667,"Delta":340848008},{"NoteNumber":63,"Velocity":26,"Duration":184444,"SoundDuration":184444,"Delta":340848008},{"NoteNumber":84,"Velocity":61,"Duration":193667,"SoundDuration":193667,"Delta":341032453},{"NoteNumber":60,"Velocity":38,"Duration":184445,"SoundDuration":184445,"Delta":341032453},{"NoteNumber":82,"Velocity":60,"Duration":193667,"SoundDuration":193667,"Delta":341216898},{"NoteNumber":63,"Velocity":31,"Duration":184444,"SoundDuration":184444,"Delta":341216898},{"NoteNumber":80,"Velocity":55,"Duration":194368,"SoundDuration":194368,"Delta":341401343},{"NoteNumber":60,"Velocity":38,"Duration":184444,"SoundDuration":184444,"Delta":341401343},{"NoteNumber":79,"Velocity":56,"Duration":207786,"SoundDuration":207786,"Delta":341585788},{"NoteNumber":63,"Velocity":35,"Duration":198478,"SoundDuration":198478,"Delta":341585788},{"NoteNumber":78,"Velocity":60,"Duration":372323,"SoundDuration":372323,"Delta":341784267},{"NoteNumber":57,"Velocity":41,"Duration":1118711,"SoundDuration":1118711,"Delta":341784267},{"NoteNumber":60,"Velocity":41,"Duration":186162,"SoundDuration":186162,"Delta":341784267},{"NoteNumber":62,"Velocity":33,"Duration":186161,"SoundDuration":186161,"Delta":341970429},{"NoteNumber":60,"Velocity":37,"Duration":186162,"SoundDuration":186162,"Delta":342156591},{"NoteNumber":62,"Velocity":28,"Duration":195470,"SoundDuration":195470,"Delta":342342753},{"NoteNumber":60,"Velocity":35,"Duration":186162,"SoundDuration":186162,"Delta":342528915},{"NoteNumber":62,"Velocity":28,"Duration":187901,"SoundDuration":187901,"Delta":342715077},{"NoteNumber":79,"Velocity":58,"Duration":196546,"SoundDuration":196546,"Delta":342902979},{"NoteNumber":58,"Velocity":22,"Duration":1123582,"SoundDuration":1123582,"Delta":342902979},{"NoteNumber":62,"Velocity":36,"Duration":187324,"SoundDuration":187324,"Delta":342902979},{"NoteNumber":82,"Velocity":60,"Duration":193667,"SoundDuration":193667,"Delta":343090303},{"NoteNumber":67,"Velocity":29,"Duration":184444,"SoundDuration":184444,"Delta":343090303},{"NoteNumber":79,"Velocity":58,"Duration":193667,"SoundDuration":193667,"Delta":343274748},{"NoteNumber":62,"Velocity":34,"Duration":184445,"SoundDuration":184445,"Delta":343274748},{"NoteNumber":77,"Velocity":55,"Duration":193667,"SoundDuration":193667,"Delta":343459193},{"NoteNumber":67,"Velocity":28,"Duration":184444,"SoundDuration":184444,"Delta":343459193},{"NoteNumber":75,"Velocity":53,"Duration":194368,"SoundDuration":194368,"Delta":343643638},{"NoteNumber":62,"Velocity":34,"Duration":184444,"SoundDuration":184444,"Delta":343643638},{"NoteNumber":74,"Velocity":50,"Duration":207786,"SoundDuration":207786,"Delta":343828083},{"NoteNumber":67,"Velocity":27,"Duration":198478,"SoundDuration":198478,"Delta":343828083},{"NoteNumber":73,"Velocity":57,"Duration":372323,"SoundDuration":372323,"Delta":344026562},{"NoteNumber":63,"Velocity":29,"Duration":1118711,"SoundDuration":1118711,"Delta":344026562},{"NoteNumber":67,"Velocity":36,"Duration":186162,"SoundDuration":186162,"Delta":344026562},{"NoteNumber":69,"Velocity":28,"Duration":186161,"SoundDuration":186161,"Delta":344212724},{"NoteNumber":67,"Velocity":34,"Duration":186162,"SoundDuration":186162,"Delta":344398886},{"NoteNumber":69,"Velocity":27,"Duration":195470,"SoundDuration":195470,"Delta":344585048},{"NoteNumber":67,"Velocity":34,"Duration":186162,"SoundDuration":186162,"Delta":344771210},{"NoteNumber":69,"Velocity":25,"Duration":187901,"SoundDuration":187901,"Delta":344957372},{"NoteNumber":62,"Velocity":44,"Duration":383895,"SoundDuration":383895,"Delta":345145274},{"NoteNumber":66,"Velocity":44,"Duration":383895,"SoundDuration":383895,"Delta":345145274},{"NoteNumber":74,"Velocity":46,"Duration":96143,"SoundDuration":96143,"Delta":345241804},{"NoteNumber":73,"Velocity":49,"Duration":95836,"SoundDuration":95836,"Delta":345337948},{"NoteNumber":74,"Velocity":44,"Duration":95384,"SoundDuration":95384,"Delta":345433784},{"NoteNumber":76,"Velocity":49,"Duration":95077,"SoundDuration":95077,"Delta":345529169},{"NoteNumber":74,"Velocity":44,"Duration":94702,"SoundDuration":94702,"Delta":345624246},{"NoteNumber":73,"Velocity":49,"Duration":94404,"SoundDuration":94404,"Delta":345718949},{"NoteNumber":74,"Velocity":44,"Duration":94034,"SoundDuration":94034,"Delta":345813353},{"NoteNumber":72,"Velocity":47,"Duration":187319,"SoundDuration":187319,"Delta":345907387},{"NoteNumber":74,"Velocity":49,"Duration":93652,"SoundDuration":93652,"Delta":346001054},{"NoteNumber":78,"Velocity":54,"Duration":93370,"SoundDuration":93370,"Delta":346094707},{"NoteNumber":74,"Velocity":49,"Duration":93361,"SoundDuration":93361,"Delta":346188077},{"NoteNumber":70,"Velocity":51,"Duration":184839,"SoundDuration":184839,"Delta":346281439},{"NoteNumber":74,"Velocity":53,"Duration":92194,"SoundDuration":92194,"Delta":346374084},{"NoteNumber":79,"Velocity":57,"Duration":91757,"SoundDuration":91757,"Delta":346466278},{"NoteNumber":74,"Velocity":52,"Duration":91715,"SoundDuration":91715,"Delta":346558035},{"NoteNumber":66,"Velocity":58,"Duration":183429,"SoundDuration":183429,"Delta":346649750},{"NoteNumber":74,"Velocity":55,"Duration":91714,"SoundDuration":91714,"Delta":346741465},{"NoteNumber":84,"Velocity":61,"Duration":91715,"SoundDuration":91715,"Delta":346833180},{"NoteNumber":74,"Velocity":57,"Duration":91714,"SoundDuration":91714,"Delta":346924895},{"NoteNumber":67,"Velocity":54,"Duration":183430,"SoundDuration":183430,"Delta":347016610},{"NoteNumber":74,"Velocity":57,"Duration":91715,"SoundDuration":91715,"Delta":347108325},{"NoteNumber":82,"Velocity":64,"Duration":99239,"SoundDuration":99239,"Delta":347200040},{"NoteNumber":74,"Velocity":57,"Duration":99239,"SoundDuration":99239,"Delta":347299280},{"NoteNumber":81,"Velocity":64,"Duration":94415,"SoundDuration":94415,"Delta":347398519},{"NoteNumber":62,"Velocity":53,"Duration":373658,"SoundDuration":373658,"Delta":347398519},{"NoteNumber":78,"Velocity":57,"Duration":93081,"SoundDuration":93081,"Delta":347492934},{"NoteNumber":76,"Velocity":59,"Duration":93080,"SoundDuration":93080,"Delta":347586015},{"NoteNumber":74,"Velocity":57,"Duration":93080,"SoundDuration":93080,"Delta":347679096},{"NoteNumber":73,"Velocity":57,"Duration":93080,"SoundDuration":93080,"Delta":347772177},{"NoteNumber":74,"Velocity":59,"Duration":93081,"SoundDuration":93081,"Delta":347865258},{"NoteNumber":76,"Velocity":60,"Duration":93080,"SoundDuration":93080,"Delta":347958339},{"NoteNumber":74,"Velocity":56,"Duration":94067,"SoundDuration":94067,"Delta":348051420},{"NoteNumber":72,"Velocity":48,"Duration":191464,"SoundDuration":191464,"Delta":348145487},{"NoteNumber":74,"Velocity":49,"Duration":95683,"SoundDuration":95683,"Delta":348241268},{"NoteNumber":78,"Velocity":53,"Duration":95450,"SoundDuration":95450,"Delta":348336952},{"NoteNumber":74,"Velocity":49,"Duration":95228,"SoundDuration":95228,"Delta":348432402},{"NoteNumber":70,"Velocity":57,"Duration":189924,"SoundDuration":189924,"Delta":348527630},{"NoteNumber":74,"Velocity":52,"Duration":94846,"SoundDuration":94846,"Delta":348622708},{"NoteNumber":79,"Velocity":58,"Duration":94626,"SoundDuration":94626,"Delta":348717554},{"NoteNumber":74,"Velocity":54,"Duration":94157,"SoundDuration":94157,"Delta":348812181},{"NoteNumber":66,"Velocity":59,"Duration":187145,"SoundDuration":187145,"Delta":348906339},{"NoteNumber":74,"Velocity":55,"Duration":93341,"SoundDuration":93341,"Delta":349000143},{"NoteNumber":84,"Velocity":61,"Duration":92970,"SoundDuration":92970,"Delta":349093485},{"NoteNumber":74,"Velocity":55,"Duration":92626,"SoundDuration":92626,"Delta":349186455},{"NoteNumber":67,"Velocity":54,"Duration":185544,"SoundDuration":185544,"Delta":349279081},{"NoteNumber":74,"Velocity":49,"Duration":93080,"SoundDuration":93080,"Delta":349371545},{"NoteNumber":82,"Velocity":68,"Duration":96993,"SoundDuration":96993,"Delta":349464626},{"NoteNumber":74,"Velocity":62,"Duration":95722,"SoundDuration":95722,"Delta":349561619},{"NoteNumber":81,"Velocity":70,"Duration":92792,"SoundDuration":92792,"Delta":349657342},{"NoteNumber":62,"Velocity":58,"Duration":371105,"SoundDuration":371105,"Delta":349657342},{"NoteNumber":86,"Velocity":60,"Duration":92793,"SoundDuration":92793,"Delta":349750135},{"NoteNumber":81,"Velocity":69,"Duration":92792,"SoundDuration":92792,"Delta":349842928},{"NoteNumber":78,"Velocity":57,"Duration":92726,"SoundDuration":92726,"Delta":349935721},{"NoteNumber":74,"Velocity":67,"Duration":92645,"SoundDuration":92645,"Delta":350028447},{"NoteNumber":81,"Velocity":55,"Duration":93143,"SoundDuration":93143,"Delta":350121092},{"NoteNumber":78,"Velocity":61,"Duration":93584,"SoundDuration":93584,"Delta":350214236},{"NoteNumber":74,"Velocity":54,"Duration":94093,"SoundDuration":94093,"Delta":350307820},{"NoteNumber":69,"Velocity":63,"Duration":94538,"SoundDuration":94538,"Delta":350401914},{"NoteNumber":74,"Velocity":55,"Duration":94992,"SoundDuration":94992,"Delta":350496452},{"NoteNumber":62,"Velocity":47,"Duration":94992,"SoundDuration":94992,"Delta":350496452},{"NoteNumber":69,"Velocity":65,"Duration":95592,"SoundDuration":95592,"Delta":350591444},{"NoteNumber":57,"Velocity":54,"Duration":95592,"SoundDuration":95592,"Delta":350591444},{"NoteNumber":66,"Velocity":59,"Duration":103698,"SoundDuration":103698,"Delta":350687037},{"NoteNumber":54,"Velocity":47,"Duration":103698,"SoundDuration":103698,"Delta":350687037},{"NoteNumber":62,"Velocity":85,"Duration":100570,"SoundDuration":100570,"Delta":350790735},{"NoteNumber":50,"Velocity":69,"Duration":100570,"SoundDuration":100570,"Delta":350790735},{"NoteNumber":69,"Velocity":62,"Duration":443951,"SoundDuration":443951,"Delta":351193015},{"NoteNumber":66,"Velocity":62,"Duration":443951,"SoundDuration":443951,"Delta":351193015},{"NoteNumber":74,"Velocity":73,"Duration":443951,"SoundDuration":443951,"Delta":351193015},{"NoteNumber":38,"Velocity":59,"Duration":443951,"SoundDuration":443951,"Delta":351193015},{"NoteNumber":55,"Velocity":34,"Duration":766521,"SoundDuration":766521,"Delta":352080917},{"NoteNumber":50,"Velocity":30,"Duration":413364,"SoundDuration":413364,"Delta":352830215},{"NoteNumber":47,"Velocity":34,"Duration":759275,"SoundDuration":759275,"Delta":353243580},{"NoteNumber":50,"Velocity":32,"Duration":406365,"SoundDuration":406365,"Delta":353985924},{"NoteNumber":55,"Velocity":34,"Duration":752601,"SoundDuration":752601,"Delta":354392290},{"NoteNumber":86,"Velocity":45,"Duration":45829,"SoundDuration":45829,"Delta":354578452},{"NoteNumber":86,"Velocity":49,"Duration":45829,"SoundDuration":45829,"Delta":354761770},{"NoteNumber":86,"Velocity":43,"Duration":45829,"SoundDuration":45829,"Delta":354945088},{"NoteNumber":86,"Velocity":46,"Duration":49456,"SoundDuration":49456,"Delta":355128406},{"NoteNumber":59,"Velocity":36,"Duration":395647,"SoundDuration":395647,"Delta":355128406},{"NoteNumber":86,"Velocity":40,"Duration":49455,"SoundDuration":49455,"Delta":355326230},{"NoteNumber":87,"Velocity":45,"Duration":196078,"SoundDuration":196078,"Delta":355524054},{"NoteNumber":62,"Velocity":38,"Duration":373483,"SoundDuration":373483,"Delta":355524054},{"NoteNumber":86,"Velocity":40,"Duration":196078,"SoundDuration":196078,"Delta":355710796},{"NoteNumber":84,"Velocity":43,"Duration":196078,"SoundDuration":196078,"Delta":355897537},{"NoteNumber":83,"Velocity":40,"Duration":196137,"SoundDuration":196137,"Delta":356084279},{"NoteNumber":80,"Velocity":45,"Duration":197579,"SoundDuration":197579,"Delta":356271020},{"NoteNumber":79,"Velocity":39,"Duration":193361,"SoundDuration":193361,"Delta":356458931},{"NoteNumber":79,"Velocity":41,"Duration":48340,"SoundDuration":48340,"Delta":356652293},{"NoteNumber":55,"Velocity":34,"Duration":776339,"SoundDuration":776339,"Delta":356652293},{"NoteNumber":80,"Velocity":39,"Duration":48340,"SoundDuration":48340,"Delta":356700633},{"NoteNumber":79,"Velocity":49,"Duration":96680,"SoundDuration":96680,"Delta":356748973},{"NoteNumber":77,"Velocity":44,"Duration":179519,"SoundDuration":179519,"Delta":356845654},{"NoteNumber":77,"Velocity":46,"Duration":378429,"SoundDuration":378429,"Delta":357032979},{"NoteNumber":50,"Velocity":30,"Duration":413364,"SoundDuration":413364,"Delta":357411409},{"NoteNumber":47,"Velocity":34,"Duration":759275,"SoundDuration":759275,"Delta":357824774},{"NoteNumber":50,"Velocity":32,"Duration":406365,"SoundDuration":406365,"Delta":358567118},{"NoteNumber":55,"Velocity":34,"Duration":752601,"SoundDuration":752601,"Delta":358973484},{"NoteNumber":77,"Velocity":45,"Duration":45829,"SoundDuration":45829,"Delta":359159646},{"NoteNumber":77,"Velocity":48,"Duration":45829,"SoundDuration":45829,"Delta":359342964},{"NoteNumber":77,"Velocity":42,"Duration":45829,"SoundDuration":45829,"Delta":359526282},{"NoteNumber":77,"Velocity":44,"Duration":49456,"SoundDuration":49456,"Delta":359709600},{"NoteNumber":59,"Velocity":36,"Duration":395647,"SoundDuration":395647,"Delta":359709600},{"NoteNumber":77,"Velocity":40,"Duration":49455,"SoundDuration":49455,"Delta":359907424},{"NoteNumber":79,"Velocity":45,"Duration":196078,"SoundDuration":196078,"Delta":360105248},{"NoteNumber":62,"Velocity":38,"Duration":373483,"SoundDuration":373483,"Delta":360105248},{"NoteNumber":77,"Velocity":40,"Duration":196078,"SoundDuration":196078,"Delta":360291989},{"NoteNumber":75,"Velocity":40,"Duration":196078,"SoundDuration":196078,"Delta":360478731},{"NoteNumber":74,"Velocity":40,"Duration":196078,"SoundDuration":196078,"Delta":360665472},{"NoteNumber":72,"Velocity":45,"Duration":197111,"SoundDuration":197111,"Delta":360852214},{"NoteNumber":71,"Velocity":39,"Duration":207397,"SoundDuration":207397,"Delta":361038955},{"NoteNumber":72,"Velocity":48,"Duration":766521,"SoundDuration":766521,"Delta":361246352},{"NoteNumber":67,"Velocity":42,"Duration":413364,"SoundDuration":413364,"Delta":361995650},{"NoteNumber":63,"Velocity":48,"Duration":759275,"SoundDuration":759275,"Delta":362409015},{"NoteNumber":67,"Velocity":45,"Duration":406365,"SoundDuration":406365,"Delta":363151359},{"NoteNumber":72,"Velocity":50,"Duration":752601,"SoundDuration":752601,"Delta":363557725},{"NoteNumber":55,"Velocity":39,"Duration":45829,"SoundDuration":45829,"Delta":363743887},{"NoteNumber":55,"Velocity":42,"Duration":45829,"SoundDuration":45829,"Delta":363927205},{"NoteNumber":55,"Velocity":37,"Duration":45829,"SoundDuration":45829,"Delta":364110523},{"NoteNumber":75,"Velocity":52,"Duration":395647,"SoundDuration":395647,"Delta":364293841},{"NoteNumber":55,"Velocity":39,"Duration":49456,"SoundDuration":49456,"Delta":364293841},{"NoteNumber":55,"Velocity":35,"Duration":49455,"SoundDuration":49455,"Delta":364491665},{"NoteNumber":79,"Velocity":56,"Duration":373483,"SoundDuration":373483,"Delta":364689489},{"NoteNumber":56,"Velocity":39,"Duration":196078,"SoundDuration":196078,"Delta":364689489},{"NoteNumber":55,"Velocity":35,"Duration":196078,"SoundDuration":196078,"Delta":364876231},{"NoteNumber":53,"Velocity":37,"Duration":196078,"SoundDuration":196078,"Delta":365062972},{"NoteNumber":51,"Velocity":35,"Duration":196137,"SoundDuration":196137,"Delta":365249714},{"NoteNumber":50,"Velocity":39,"Duration":197579,"SoundDuration":197579,"Delta":365436455},{"NoteNumber":48,"Velocity":34,"Duration":193361,"SoundDuration":193361,"Delta":365624366},{"NoteNumber":76,"Velocity":58,"Duration":772558,"SoundDuration":772558,"Delta":365817728},{"NoteNumber":48,"Velocity":35,"Duration":193361,"SoundDuration":193361,"Delta":365817728},{"NoteNumber":46,"Velocity":38,"Duration":187324,"SoundDuration":187324,"Delta":366011089},{"NoteNumber":46,"Velocity":39,"Duration":374649,"SoundDuration":374649,"Delta":366198414},{"NoteNumber":72,"Velocity":52,"Duration":413364,"SoundDuration":413364,"Delta":366573063},{"NoteNumber":67,"Velocity":55,"Duration":759275,"SoundDuration":759275,"Delta":366986428},{"NoteNumber":72,"Velocity":49,"Duration":406365,"SoundDuration":406365,"Delta":367728772},{"NoteNumber":76,"Velocity":53,"Duration":752601,"SoundDuration":752601,"Delta":368135138},{"NoteNumber":58,"Velocity":39,"Duration":45829,"SoundDuration":45829,"Delta":368321300},{"NoteNumber":58,"Velocity":41,"Duration":45829,"SoundDuration":45829,"Delta":368504618},{"NoteNumber":58,"Velocity":36,"Duration":45829,"SoundDuration":45829,"Delta":368687936},{"NoteNumber":79,"Velocity":54,"Duration":395647,"SoundDuration":395647,"Delta":368871254},{"NoteNumber":58,"Velocity":38,"Duration":49456,"SoundDuration":49456,"Delta":368871254},{"NoteNumber":58,"Velocity":35,"Duration":49455,"SoundDuration":49455,"Delta":369069078},{"NoteNumber":82,"Velocity":58,"Duration":373483,"SoundDuration":373483,"Delta":369266902},{"NoteNumber":60,"Velocity":39,"Duration":196078,"SoundDuration":196078,"Delta":369266902},{"NoteNumber":58,"Velocity":35,"Duration":195992,"SoundDuration":195992,"Delta":369453643},{"NoteNumber":56,"Velocity":35,"Duration":194264,"SoundDuration":194264,"Delta":369640385},{"NoteNumber":55,"Velocity":35,"Duration":194264,"SoundDuration":194264,"Delta":369825399},{"NoteNumber":53,"Velocity":39,"Duration":195383,"SoundDuration":195383,"Delta":370010413},{"NoteNumber":52,"Velocity":34,"Duration":207397,"SoundDuration":207397,"Delta":370195427},{"NoteNumber":53,"Velocity":40,"Duration":752601,"SoundDuration":752601,"Delta":370402824},{"NoteNumber":80,"Velocity":45,"Duration":45829,"SoundDuration":45829,"Delta":370588986},{"NoteNumber":80,"Velocity":49,"Duration":45829,"SoundDuration":45829,"Delta":370772304},{"NoteNumber":80,"Velocity":43,"Duration":45829,"SoundDuration":45829,"Delta":370955622},{"NoteNumber":80,"Velocity":46,"Duration":49456,"SoundDuration":49456,"Delta":371138940},{"NoteNumber":80,"Velocity":40,"Duration":49455,"SoundDuration":49455,"Delta":371336764},{"NoteNumber":82,"Velocity":45,"Duration":196078,"SoundDuration":196078,"Delta":371534588},{"NoteNumber":58,"Velocity":28,"Duration":1125927,"SoundDuration":1125927,"Delta":371534588},{"NoteNumber":62,"Velocity":28,"Duration":373483,"SoundDuration":373483,"Delta":371534588},{"NoteNumber":65,"Velocity":34,"Duration":373483,"SoundDuration":373483,"Delta":371534588},{"NoteNumber":80,"Velocity":40,"Duration":196020,"SoundDuration":196020,"Delta":371721329},{"NoteNumber":79,"Velocity":43,"Duration":194865,"SoundDuration":194865,"Delta":371908071},{"NoteNumber":63,"Velocity":28,"Duration":371172,"SoundDuration":371172,"Delta":371908071},{"NoteNumber":67,"Velocity":34,"Duration":371172,"SoundDuration":371172,"Delta":371908071},{"NoteNumber":77,"Velocity":40,"Duration":194981,"SoundDuration":194981,"Delta":372093657},{"NoteNumber":75,"Velocity":45,"Duration":197579,"SoundDuration":197579,"Delta":372279243},{"NoteNumber":65,"Velocity":28,"Duration":381272,"SoundDuration":381272,"Delta":372279243},{"NoteNumber":69,"Velocity":34,"Duration":381272,"SoundDuration":381272,"Delta":372279243},{"NoteNumber":74,"Velocity":39,"Duration":193361,"SoundDuration":193361,"Delta":372467154},{"NoteNumber":63,"Velocity":28,"Duration":369480,"SoundDuration":369480,"Delta":372660515},{"NoteNumber":67,"Velocity":34,"Duration":369480,"SoundDuration":369480,"Delta":372660515},{"NoteNumber":79,"Velocity":45,"Duration":45829,"SoundDuration":45829,"Delta":372846677},{"NoteNumber":79,"Velocity":49,"Duration":45829,"SoundDuration":45829,"Delta":373029995},{"NoteNumber":79,"Velocity":43,"Duration":45829,"SoundDuration":45829,"Delta":373213313},{"NoteNumber":79,"Velocity":46,"Duration":49456,"SoundDuration":49456,"Delta":373396631},{"NoteNumber":79,"Velocity":40,"Duration":49455,"SoundDuration":49455,"Delta":373594455},{"NoteNumber":80,"Velocity":45,"Duration":196078,"SoundDuration":196078,"Delta":373792279},{"NoteNumber":56,"Velocity":28,"Duration":1124783,"SoundDuration":1124783,"Delta":373792279},{"NoteNumber":60,"Velocity":28,"Duration":373483,"SoundDuration":373483,"Delta":373792279},{"NoteNumber":63,"Velocity":34,"Duration":373483,"SoundDuration":373483,"Delta":373792279},{"NoteNumber":79,"Velocity":40,"Duration":195992,"SoundDuration":195992,"Delta":373979021},{"NoteNumber":77,"Velocity":43,"Duration":194264,"SoundDuration":194264,"Delta":374165762},{"NoteNumber":62,"Velocity":28,"Duration":370027,"SoundDuration":370027,"Delta":374165762},{"NoteNumber":65,"Velocity":34,"Duration":370027,"SoundDuration":370027,"Delta":374165762},{"NoteNumber":75,"Velocity":40,"Duration":194409,"SoundDuration":194409,"Delta":374350776},{"NoteNumber":74,"Velocity":45,"Duration":197579,"SoundDuration":197579,"Delta":374535790},{"NoteNumber":63,"Velocity":28,"Duration":381272,"SoundDuration":381272,"Delta":374535790},{"NoteNumber":67,"Velocity":34,"Duration":381272,"SoundDuration":381272,"Delta":374535790},{"NoteNumber":72,"Velocity":39,"Duration":193361,"SoundDuration":193361,"Delta":374723701},{"NoteNumber":62,"Velocity":28,"Duration":369480,"SoundDuration":369480,"Delta":374917063},{"NoteNumber":65,"Velocity":34,"Duration":369480,"SoundDuration":369480,"Delta":374917063},{"NoteNumber":77,"Velocity":45,"Duration":45829,"SoundDuration":45829,"Delta":375103225},{"NoteNumber":77,"Velocity":49,"Duration":45829,"SoundDuration":45829,"Delta":375286543},{"NoteNumber":77,"Velocity":43,"Duration":45829,"SoundDuration":45829,"Delta":375469861},{"NoteNumber":77,"Velocity":46,"Duration":49456,"SoundDuration":49456,"Delta":375653179},{"NoteNumber":77,"Velocity":40,"Duration":49455,"SoundDuration":49455,"Delta":375851003},{"NoteNumber":79,"Velocity":51,"Duration":196078,"SoundDuration":196078,"Delta":376048827},{"NoteNumber":55,"Velocity":28,"Duration":1124783,"SoundDuration":1124783,"Delta":376048827},{"NoteNumber":59,"Velocity":28,"Duration":373483,"SoundDuration":373483,"Delta":376048827},{"NoteNumber":62,"Velocity":34,"Duration":373483,"SoundDuration":373483,"Delta":376048827},{"NoteNumber":77,"Velocity":50,"Duration":195992,"SoundDuration":195992,"Delta":376235568},{"NoteNumber":75,"Velocity":49,"Duration":194264,"SoundDuration":194264,"Delta":376422310},{"NoteNumber":60,"Velocity":28,"Duration":370027,"SoundDuration":370027,"Delta":376422310},{"NoteNumber":63,"Velocity":34,"Duration":370027,"SoundDuration":370027,"Delta":376422310},{"NoteNumber":74,"Velocity":48,"Duration":194409,"SoundDuration":194409,"Delta":376607324},{"NoteNumber":72,"Velocity":47,"Duration":197579,"SoundDuration":197579,"Delta":376792338},{"NoteNumber":62,"Velocity":28,"Duration":381272,"SoundDuration":381272,"Delta":376792338},{"NoteNumber":65,"Velocity":34,"Duration":381272,"SoundDuration":381272,"Delta":376792338},{"NoteNumber":71,"Velocity":47,"Duration":193361,"SoundDuration":193361,"Delta":376980249},{"NoteNumber":77,"Velocity":56,"Duration":196078,"SoundDuration":196078,"Delta":377173610},{"NoteNumber":60,"Velocity":30,"Duration":373483,"SoundDuration":373483,"Delta":377173610},{"NoteNumber":63,"Velocity":37,"Duration":373483,"SoundDuration":373483,"Delta":377173610},{"NoteNumber":75,"Velocity":54,"Duration":195992,"SoundDuration":195992,"Delta":377360352},{"NoteNumber":74,"Velocity":52,"Duration":194264,"SoundDuration":194264,"Delta":377547093},{"NoteNumber":72,"Velocity":51,"Duration":194409,"SoundDuration":194409,"Delta":377732107},{"NoteNumber":70,"Velocity":49,"Duration":197579,"SoundDuration":197579,"Delta":377917121},{"NoteNumber":53,"Velocity":30,"Duration":381272,"SoundDuration":381272,"Delta":377917121},{"NoteNumber":63,"Velocity":37,"Duration":381272,"SoundDuration":381272,"Delta":377917121},{"NoteNumber":69,"Velocity":47,"Duration":193361,"SoundDuration":193361,"Delta":378105032},{"NoteNumber":84,"Velocity":60,"Duration":196078,"SoundDuration":196078,"Delta":378298394},{"NoteNumber":55,"Velocity":30,"Duration":373483,"SoundDuration":373483,"Delta":378298394},{"NoteNumber":62,"Velocity":37,"Duration":373483,"SoundDuration":373483,"Delta":378298394},{"NoteNumber":82,"Velocity":58,"Duration":195992,"SoundDuration":195992,"Delta":378485135},{"NoteNumber":81,"Velocity":56,"Duration":194264,"SoundDuration":194264,"Delta":378671877},{"NoteNumber":79,"Velocity":54,"Duration":194409,"SoundDuration":194409,"Delta":378856891},{"NoteNumber":77,"Velocity":54,"Duration":197579,"SoundDuration":197579,"Delta":379041905},{"NoteNumber":63,"Velocity":30,"Duration":381272,"SoundDuration":381272,"Delta":379041905},{"NoteNumber":67,"Velocity":37,"Duration":381272,"SoundDuration":381272,"Delta":379041905},{"NoteNumber":76,"Velocity":57,"Duration":193361,"SoundDuration":193361,"Delta":379229816},{"NoteNumber":77,"Velocity":61,"Duration":376679,"SoundDuration":376679,"Delta":379423177},{"NoteNumber":65,"Velocity":42,"Duration":45829,"SoundDuration":45829,"Delta":379616539},{"NoteNumber":65,"Velocity":45,"Duration":45829,"SoundDuration":45829,"Delta":379799857},{"NoteNumber":65,"Velocity":39,"Duration":45829,"SoundDuration":45829,"Delta":379983175},{"NoteNumber":69,"Velocity":45,"Duration":395647,"SoundDuration":395647,"Delta":380166493},{"NoteNumber":75,"Velocity":55,"Duration":395647,"SoundDuration":395647,"Delta":380166493},{"NoteNumber":65,"Velocity":41,"Duration":49456,"SoundDuration":49456,"Delta":380166493},{"NoteNumber":65,"Velocity":38,"Duration":49455,"SoundDuration":49455,"Delta":380364317},{"NoteNumber":70,"Velocity":45,"Duration":373483,"SoundDuration":373483,"Delta":380562141},{"NoteNumber":73,"Velocity":60,"Duration":373483,"SoundDuration":373483,"Delta":380562141},{"NoteNumber":66,"Velocity":42,"Duration":196078,"SoundDuration":196078,"Delta":380562141},{"NoteNumber":65,"Velocity":38,"Duration":195992,"SoundDuration":195992,"Delta":380748882},{"NoteNumber":63,"Velocity":38,"Duration":194264,"SoundDuration":194264,"Delta":380935624},{"NoteNumber":61,"Velocity":38,"Duration":194264,"SoundDuration":194264,"Delta":381120638},{"NoteNumber":73,"Velocity":45,"Duration":392411,"SoundDuration":392411,"Delta":381305652},{"NoteNumber":82,"Velocity":55,"Duration":392411,"SoundDuration":392411,"Delta":381305652},{"NoteNumber":60,"Velocity":42,"Duration":195383,"SoundDuration":195383,"Delta":381305652},{"NoteNumber":58,"Velocity":37,"Duration":207397,"SoundDuration":207397,"Delta":381490666},{"NoteNumber":72,"Velocity":45,"Duration":376679,"SoundDuration":376679,"Delta":381698063},{"NoteNumber":81,"Velocity":61,"Duration":376679,"SoundDuration":376679,"Delta":381698063},{"NoteNumber":53,"Velocity":42,"Duration":45829,"SoundDuration":45829,"Delta":381891424},{"NoteNumber":53,"Velocity":45,"Duration":45829,"SoundDuration":45829,"Delta":382074742},{"NoteNumber":53,"Velocity":39,"Duration":45829,"SoundDuration":45829,"Delta":382258060},{"NoteNumber":63,"Velocity":45,"Duration":395647,"SoundDuration":395647,"Delta":382441378},{"NoteNumber":69,"Velocity":55,"Duration":395647,"SoundDuration":395647,"Delta":382441378},{"NoteNumber":53,"Velocity":41,"Duration":49456,"SoundDuration":49456,"Delta":382441378},{"NoteNumber":53,"Velocity":38,"Duration":49455,"SoundDuration":49455,"Delta":382639202},{"NoteNumber":61,"Velocity":45,"Duration":373483,"SoundDuration":373483,"Delta":382837026},{"NoteNumber":70,"Velocity":60,"Duration":373483,"SoundDuration":373483,"Delta":382837026},{"NoteNumber":54,"Velocity":42,"Duration":196078,"SoundDuration":196078,"Delta":382837026},{"NoteNumber":53,"Velocity":38,"Duration":195992,"SoundDuration":195992,"Delta":383023768},{"NoteNumber":51,"Velocity":38,"Duration":194264,"SoundDuration":194264,"Delta":383210509},{"NoteNumber":49,"Velocity":38,"Duration":194264,"SoundDuration":194264,"Delta":383395523},{"NoteNumber":58,"Velocity":45,"Duration":392411,"SoundDuration":392411,"Delta":383580537},{"NoteNumber":61,"Velocity":55,"Duration":392411,"SoundDuration":392411,"Delta":383580537},{"NoteNumber":48,"Velocity":42,"Duration":195383,"SoundDuration":195383,"Delta":383580537},{"NoteNumber":46,"Velocity":37,"Duration":207397,"SoundDuration":207397,"Delta":383765551},{"NoteNumber":57,"Velocity":45,"Duration":207396,"SoundDuration":207396,"Delta":383972948},{"NoteNumber":60,"Velocity":60,"Duration":207396,"SoundDuration":207396,"Delta":383972948},{"NoteNumber":41,"Velocity":42,"Duration":390714,"SoundDuration":390714,"Delta":383972948},{"NoteNumber":65,"Velocity":45,"Duration":45829,"SoundDuration":45829,"Delta":384180345},{"NoteNumber":65,"Velocity":49,"Duration":45829,"SoundDuration":45829,"Delta":384363663},{"NoteNumber":65,"Velocity":43,"Duration":45829,"SoundDuration":45829,"Delta":384546981},{"NoteNumber":65,"Velocity":46,"Duration":49456,"SoundDuration":49456,"Delta":384730299},{"NoteNumber":65,"Velocity":40,"Duration":49455,"SoundDuration":49455,"Delta":384928123},{"NoteNumber":64,"Velocity":44,"Duration":186915,"SoundDuration":186915,"Delta":385125947},{"NoteNumber":53,"Velocity":29,"Duration":2798640,"SoundDuration":2798640,"Delta":385125947},{"NoteNumber":63,"Velocity":37,"Duration":2798640,"SoundDuration":2798640,"Delta":385125947},{"NoteNumber":57,"Velocity":29,"Duration":2798640,"SoundDuration":2798640,"Delta":385125947},{"NoteNumber":65,"Velocity":40,"Duration":194174,"SoundDuration":194174,"Delta":385312863},{"NoteNumber":67,"Velocity":45,"Duration":187500,"SoundDuration":187500,"Delta":385507038},{"NoteNumber":65,"Velocity":40,"Duration":194174,"SoundDuration":194174,"Delta":385694538},{"NoteNumber":70,"Velocity":43,"Duration":191082,"SoundDuration":191082,"Delta":385888713},{"NoteNumber":69,"Velocity":40,"Duration":196721,"SoundDuration":196721,"Delta":386079796},{"NoteNumber":74,"Velocity":44,"Duration":190475,"SoundDuration":190475,"Delta":386276518},{"NoteNumber":72,"Velocity":40,"Duration":200468,"SoundDuration":200468,"Delta":386466994},{"NoteNumber":75,"Velocity":45,"Duration":201274,"SoundDuration":201274,"Delta":386667462},{"NoteNumber":74,"Velocity":40,"Duration":223796,"SoundDuration":223796,"Delta":386868736},{"NoteNumber":79,"Velocity":45,"Duration":201140,"SoundDuration":201140,"Delta":387092533},{"NoteNumber":77,"Velocity":40,"Duration":157728,"SoundDuration":157728,"Delta":387293673},{"NoteNumber":77,"Velocity":45,"Duration":638553,"SoundDuration":638553,"Delta":387503978},{"NoteNumber":76,"Velocity":40,"Duration":217943,"SoundDuration":217943,"Delta":388142532},{"NoteNumber":75,"Velocity":43,"Duration":217944,"SoundDuration":217944,"Delta":388360476},{"NoteNumber":72,"Velocity":40,"Duration":217943,"SoundDuration":217943,"Delta":388578420},{"NoteNumber":70,"Velocity":48,"Duration":749298,"SoundDuration":749298,"Delta":388796364},{"NoteNumber":58,"Velocity":33,"Duration":749298,"SoundDuration":749298,"Delta":388796364},{"NoteNumber":65,"Velocity":41,"Duration":413364,"SoundDuration":413364,"Delta":389545662},{"NoteNumber":53,"Velocity":31,"Duration":413364,"SoundDuration":413364,"Delta":389545662},{"NoteNumber":62,"Velocity":48,"Duration":742344,"SoundDuration":742344,"Delta":389959027},{"NoteNumber":50,"Velocity":37,"Duration":742344,"SoundDuration":742344,"Delta":389959027},{"NoteNumber":65,"Velocity":44,"Duration":406365,"SoundDuration":406365,"Delta":390701371},{"NoteNumber":53,"Velocity":38,"Duration":406365,"SoundDuration":406365,"Delta":390701371},{"NoteNumber":70,"Velocity":48,"Duration":744647,"SoundDuration":744647,"Delta":391107737},{"NoteNumber":58,"Velocity":41,"Duration":744647,"SoundDuration":744647,"Delta":391107737},{"NoteNumber":74,"Velocity":51,"Duration":395647,"SoundDuration":395647,"Delta":391852385},{"NoteNumber":62,"Velocity":43,"Duration":395647,"SoundDuration":395647,"Delta":391852385},{"NoteNumber":77,"Velocity":56,"Duration":746965,"SoundDuration":746965,"Delta":392248033},{"NoteNumber":65,"Velocity":43,"Duration":746965,"SoundDuration":746965,"Delta":392248033},{"NoteNumber":82,"Velocity":58,"Duration":185586,"SoundDuration":185586,"Delta":392994999},{"NoteNumber":74,"Velocity":51,"Duration":185586,"SoundDuration":185586,"Delta":393180585},{"NoteNumber":77,"Velocity":56,"Duration":190851,"SoundDuration":190851,"Delta":393366171},{"NoteNumber":63,"Velocity":36,"Duration":2188707,"SoundDuration":2188707,"Delta":393366171},{"NoteNumber":53,"Velocity":30,"Duration":2188707,"SoundDuration":2188707,"Delta":393366171},{"NoteNumber":60,"Velocity":30,"Duration":2188707,"SoundDuration":2188707,"Delta":393366171},{"NoteNumber":75,"Velocity":52,"Duration":190851,"SoundDuration":190851,"Delta":393547934},{"NoteNumber":74,"Velocity":51,"Duration":190851,"SoundDuration":190851,"Delta":393729697},{"NoteNumber":72,"Velocity":49,"Duration":190851,"SoundDuration":190851,"Delta":393911460},{"NoteNumber":70,"Velocity":48,"Duration":191071,"SoundDuration":191071,"Delta":394093223},{"NoteNumber":69,"Velocity":47,"Duration":186162,"SoundDuration":186162,"Delta":394274986},{"NoteNumber":67,"Velocity":50,"Duration":190735,"SoundDuration":190735,"Delta":394461148},{"NoteNumber":65,"Velocity":44,"Duration":190686,"SoundDuration":190686,"Delta":394642801},{"NoteNumber":64,"Velocity":44,"Duration":189701,"SoundDuration":189701,"Delta":394824454},{"NoteNumber":65,"Velocity":45,"Duration":189756,"SoundDuration":189756,"Delta":395005123},{"NoteNumber":67,"Velocity":47,"Duration":191129,"SoundDuration":191129,"Delta":395185791},{"NoteNumber":69,"Velocity":50,"Duration":187324,"SoundDuration":187324,"Delta":395367554},{"NoteNumber":70,"Velocity":50,"Duration":45413,"SoundDuration":45413,"Delta":395554879},{"NoteNumber":62,"Velocity":38,"Duration":363306,"SoundDuration":363306,"Delta":395554879},{"NoteNumber":58,"Velocity":32,"Duration":363306,"SoundDuration":363306,"Delta":395554879},{"NoteNumber":72,"Velocity":45,"Duration":45413,"SoundDuration":45413,"Delta":395691118},{"NoteNumber":70,"Velocity":49,"Duration":90826,"SoundDuration":90826,"Delta":395736532},{"NoteNumber":69,"Velocity":46,"Duration":90826,"SoundDuration":90826,"Delta":395827358},{"NoteNumber":70,"Velocity":50,"Duration":45998,"SoundDuration":45998,"Delta":395918185},{"NoteNumber":72,"Velocity":47,"Duration":45578,"SoundDuration":45578,"Delta":396102177},{"NoteNumber":74,"Velocity":49,"Duration":45717,"SoundDuration":45717,"Delta":396284493},{"NoteNumber":75,"Velocity":51,"Duration":48184,"SoundDuration":48184,"Delta":396467364},{"NoteNumber":76,"Velocity":53,"Duration":191897,"SoundDuration":191897,"Delta":396660104},{"NoteNumber":77,"Velocity":50,"Duration":191897,"SoundDuration":191897,"Delta":396842863},{"NoteNumber":79,"Velocity":55,"Duration":191897,"SoundDuration":191897,"Delta":397025623},{"NoteNumber":77,"Velocity":50,"Duration":182759,"SoundDuration":182759,"Delta":397208382},{"NoteNumber":82,"Velocity":59,"Duration":182759,"SoundDuration":182759,"Delta":397391142},{"NoteNumber":74,"Velocity":50,"Duration":192122,"SoundDuration":192122,"Delta":397573901},{"NoteNumber":77,"Velocity":57,"Duration":194264,"SoundDuration":194264,"Delta":397766024},{"NoteNumber":53,"Velocity":30,"Duration":2217471,"SoundDuration":2217471,"Delta":397766024},{"NoteNumber":60,"Velocity":30,"Duration":2217471,"SoundDuration":2217471,"Delta":397766024},{"NoteNumber":63,"Velocity":36,"Duration":2217471,"SoundDuration":2217471,"Delta":397766024},{"NoteNumber":75,"Velocity":55,"Duration":194179,"SoundDuration":194179,"Delta":397951038},{"NoteNumber":74,"Velocity":53,"Duration":192483,"SoundDuration":192483,"Delta":398136052},{"NoteNumber":72,"Velocity":51,"Duration":192483,"SoundDuration":192483,"Delta":398319370},{"NoteNumber":70,"Velocity":49,"Duration":192713,"SoundDuration":192713,"Delta":398502688},{"NoteNumber":69,"Velocity":47,"Duration":187910,"SoundDuration":187910,"Delta":398686006},{"NoteNumber":67,"Velocity":50,"Duration":194264,"SoundDuration":194264,"Delta":398873917},{"NoteNumber":65,"Velocity":43,"Duration":194207,"SoundDuration":194207,"Delta":399058931},{"NoteNumber":64,"Velocity":50,"Duration":193074,"SoundDuration":193074,"Delta":399243945},{"NoteNumber":65,"Velocity":43,"Duration":193074,"SoundDuration":193074,"Delta":399427825},{"NoteNumber":67,"Velocity":50,"Duration":193275,"SoundDuration":193275,"Delta":399611705},{"NoteNumber":69,"Velocity":45,"Duration":187910,"SoundDuration":187910,"Delta":399795585},{"NoteNumber":70,"Velocity":50,"Duration":90606,"SoundDuration":90606,"Delta":399983496},{"NoteNumber":58,"Velocity":34,"Duration":90606,"SoundDuration":90606,"Delta":399983496},{"NoteNumber":62,"Velocity":40,"Duration":90606,"SoundDuration":90606,"Delta":399983496},{"NoteNumber":70,"Velocity":48,"Duration":98651,"SoundDuration":98651,"Delta":400345924},{"NoteNumber":62,"Velocity":38,"Duration":98651,"SoundDuration":98651,"Delta":400345924},{"NoteNumber":58,"Velocity":32,"Duration":98651,"SoundDuration":98651,"Delta":400345924},{"NoteNumber":74,"Velocity":48,"Duration":107028,"SoundDuration":107028,"Delta":400740531},{"NoteNumber":65,"Velocity":38,"Duration":107028,"SoundDuration":107028,"Delta":400740531},{"NoteNumber":58,"Velocity":32,"Duration":107028,"SoundDuration":107028,"Delta":400740531},{"NoteNumber":70,"Velocity":50,"Duration":375822,"SoundDuration":375822,"Delta":401168644},{"NoteNumber":62,"Velocity":40,"Duration":375822,"SoundDuration":375822,"Delta":401168644},{"NoteNumber":58,"Velocity":34,"Duration":375822,"SoundDuration":375822,"Delta":401168644},{"NoteNumber":70,"Velocity":44,"Duration":46977,"SoundDuration":46977,"Delta":401826333},{"NoteNumber":72,"Velocity":50,"Duration":99607,"SoundDuration":99607,"Delta":401920288},{"NoteNumber":70,"Velocity":43,"Duration":99607,"SoundDuration":99607,"Delta":402010840},{"NoteNumber":69,"Velocity":45,"Duration":101067,"SoundDuration":101067,"Delta":402101393},{"NoteNumber":70,"Velocity":42,"Duration":114290,"SoundDuration":114290,"Delta":402191945},{"NoteNumber":79,"Velocity":56,"Duration":365519,"SoundDuration":365519,"Delta":402297097},{"NoteNumber":58,"Velocity":30,"Duration":375822,"SoundDuration":375822,"Delta":402662616},{"NoteNumber":55,"Velocity":25,"Duration":375822,"SoundDuration":375822,"Delta":402662616},{"NoteNumber":51,"Velocity":25,"Duration":375822,"SoundDuration":375822,"Delta":402662616},{"NoteNumber":70,"Velocity":44,"Duration":46977,"SoundDuration":46977,"Delta":402944483},{"NoteNumber":72,"Velocity":50,"Duration":99909,"SoundDuration":99909,"Delta":403038438},{"NoteNumber":70,"Velocity":43,"Duration":99909,"SoundDuration":99909,"Delta":403129265},{"NoteNumber":69,"Velocity":45,"Duration":101341,"SoundDuration":101341,"Delta":403220091},{"NoteNumber":70,"Velocity":42,"Duration":114153,"SoundDuration":114153,"Delta":403310918},{"NoteNumber":77,"Velocity":55,"Duration":360035,"SoundDuration":360035,"Delta":403416070},{"NoteNumber":53,"Velocity":25,"Duration":375822,"SoundDuration":375822,"Delta":403776106},{"NoteNumber":50,"Velocity":25,"Duration":375822,"SoundDuration":375822,"Delta":403776106},{"NoteNumber":58,"Velocity":30,"Duration":375822,"SoundDuration":375822,"Delta":403776106},{"NoteNumber":70,"Velocity":44,"Duration":46977,"SoundDuration":46977,"Delta":404057973},{"NoteNumber":72,"Velocity":50,"Duration":103351,"SoundDuration":103351,"Delta":404151928},{"NoteNumber":70,"Velocity":43,"Duration":103351,"SoundDuration":103351,"Delta":404245884},{"NoteNumber":69,"Velocity":45,"Duration":104470,"SoundDuration":104470,"Delta":404339839},{"NoteNumber":70,"Velocity":42,"Duration":114262,"SoundDuration":114262,"Delta":404433795},{"NoteNumber":72,"Velocity":52,"Duration":364409,"SoundDuration":364409,"Delta":404538947},{"NoteNumber":57,"Velocity":29,"Duration":1126954,"SoundDuration":1126954,"Delta":404538947},{"NoteNumber":65,"Velocity":34,"Duration":1501603,"SoundDuration":1501603,"Delta":404538947},{"NoteNumber":77,"Velocity":49,"Duration":375822,"SoundDuration":375822,"Delta":404903356},{"NoteNumber":75,"Velocity":48,"Duration":386723,"SoundDuration":386723,"Delta":405279178},{"NoteNumber":73,"Velocity":55,"Duration":374648,"SoundDuration":374648,"Delta":405665901},{"NoteNumber":58,"Velocity":34,"Duration":374648,"SoundDuration":374648,"Delta":405665901},{"NoteNumber":74,"Velocity":49,"Duration":201816,"SoundDuration":201816,"Delta":406040550},{"NoteNumber":70,"Velocity":44,"Duration":46977,"SoundDuration":46977,"Delta":406343275},{"NoteNumber":72,"Velocity":50,"Duration":99607,"SoundDuration":99607,"Delta":406437231},{"NoteNumber":70,"Velocity":43,"Duration":99607,"SoundDuration":99607,"Delta":406527783},{"NoteNumber":69,"Velocity":45,"Duration":101067,"SoundDuration":101067,"Delta":406618335},{"NoteNumber":70,"Velocity":42,"Duration":114290,"SoundDuration":114290,"Delta":406708887},{"NoteNumber":79,"Velocity":56,"Duration":365519,"SoundDuration":365519,"Delta":406814040},{"NoteNumber":51,"Velocity":25,"Duration":375822,"SoundDuration":375822,"Delta":407179559},{"NoteNumber":58,"Velocity":30,"Duration":375822,"SoundDuration":375822,"Delta":407179559},{"NoteNumber":55,"Velocity":25,"Duration":375822,"SoundDuration":375822,"Delta":407179559},{"NoteNumber":70,"Velocity":44,"Duration":46977,"SoundDuration":46977,"Delta":407461425},{"NoteNumber":72,"Velocity":50,"Duration":99909,"SoundDuration":99909,"Delta":407555381},{"NoteNumber":70,"Velocity":43,"Duration":99909,"SoundDuration":99909,"Delta":407646207},{"NoteNumber":69,"Velocity":45,"Duration":101341,"SoundDuration":101341,"Delta":407737034},{"NoteNumber":70,"Velocity":42,"Duration":114153,"SoundDuration":114153,"Delta":407827860},{"NoteNumber":77,"Velocity":55,"Duration":360035,"SoundDuration":360035,"Delta":407933013},{"NoteNumber":53,"Velocity":25,"Duration":375822,"SoundDuration":375822,"Delta":408293049},{"NoteNumber":50,"Velocity":25,"Duration":375822,"SoundDuration":375822,"Delta":408293049},{"NoteNumber":58,"Velocity":30,"Duration":375822,"SoundDuration":375822,"Delta":408293049},{"NoteNumber":70,"Velocity":44,"Duration":46977,"SoundDuration":46977,"Delta":408574915},{"NoteNumber":72,"Velocity":50,"Duration":103351,"SoundDuration":103351,"Delta":408668871},{"NoteNumber":70,"Velocity":43,"Duration":103351,"SoundDuration":103351,"Delta":408762826},{"NoteNumber":69,"Velocity":45,"Duration":104470,"SoundDuration":104470,"Delta":408856782},{"NoteNumber":70,"Velocity":42,"Duration":114262,"SoundDuration":114262,"Delta":408950737},{"NoteNumber":72,"Velocity":52,"Duration":364409,"SoundDuration":364409,"Delta":409055890},{"NoteNumber":57,"Velocity":34,"Duration":364409,"SoundDuration":364409,"Delta":409055890},{"NoteNumber":53,"Velocity":29,"Duration":1133287,"SoundDuration":1133287,"Delta":409055890},{"NoteNumber":75,"Velocity":49,"Duration":375822,"SoundDuration":375822,"Delta":409420299},{"NoteNumber":60,"Velocity":31,"Duration":375822,"SoundDuration":375822,"Delta":409420299},{"NoteNumber":69,"Velocity":48,"Duration":393056,"SoundDuration":393056,"Delta":409796121},{"NoteNumber":63,"Velocity":29,"Duration":393056,"SoundDuration":393056,"Delta":409796121},{"NoteNumber":70,"Velocity":55,"Duration":365519,"SoundDuration":365519,"Delta":410189177},{"NoteNumber":62,"Velocity":34,"Duration":365519,"SoundDuration":365519,"Delta":410189177},{"NoteNumber":58,"Velocity":28,"Duration":365519,"SoundDuration":365519,"Delta":410189177},{"NoteNumber":74,"Velocity":64,"Duration":93428,"SoundDuration":93428,"Delta":411285734},{"NoteNumber":70,"Velocity":64,"Duration":93428,"SoundDuration":93428,"Delta":411285734},{"NoteNumber":79,"Velocity":77,"Duration":93428,"SoundDuration":93428,"Delta":411285734},{"NoteNumber":55,"Velocity":73,"Duration":93428,"SoundDuration":93428,"Delta":411285734},{"NoteNumber":67,"Velocity":64,"Duration":94250,"SoundDuration":94250,"Delta":411659449},{"NoteNumber":43,"Velocity":66,"Duration":94250,"SoundDuration":94250,"Delta":411659449},{"NoteNumber":69,"Velocity":63,"Duration":96993,"SoundDuration":96993,"Delta":412413455},{"NoteNumber":66,"Velocity":63,"Duration":96993,"SoundDuration":96993,"Delta":412413455},{"NoteNumber":74,"Velocity":75,"Duration":96993,"SoundDuration":96993,"Delta":412413455},{"NoteNumber":50,"Velocity":73,"Duration":96993,"SoundDuration":96993,"Delta":412413455},{"NoteNumber":62,"Velocity":67,"Duration":94547,"SoundDuration":94547,"Delta":412801428},{"NoteNumber":38,"Velocity":66,"Duration":94547,"SoundDuration":94547,"Delta":412801428},{"NoteNumber":63,"Velocity":43,"Duration":744647,"SoundDuration":744647,"Delta":413557810},{"NoteNumber":51,"Velocity":20,"Duration":1127338,"SoundDuration":1127338,"Delta":413557810},{"NoteNumber":55,"Velocity":33,"Duration":186162,"SoundDuration":186162,"Delta":413557810},{"NoteNumber":58,"Velocity":23,"Duration":186161,"SoundDuration":186161,"Delta":413743972},{"NoteNumber":55,"Velocity":27,"Duration":186162,"SoundDuration":186162,"Delta":413930134},{"NoteNumber":58,"Velocity":22,"Duration":186161,"SoundDuration":186161,"Delta":414116296},{"NoteNumber":65,"Velocity":36,"Duration":102389,"SoundDuration":102389,"Delta":414302458},{"NoteNumber":55,"Velocity":26,"Duration":186162,"SoundDuration":186162,"Delta":414302458},{"NoteNumber":63,"Velocity":36,"Duration":102907,"SoundDuration":102907,"Delta":414395539},{"NoteNumber":62,"Velocity":36,"Duration":108090,"SoundDuration":108090,"Delta":414488620},{"NoteNumber":58,"Velocity":22,"Duration":196528,"SoundDuration":196528,"Delta":414488620},{"NoteNumber":63,"Velocity":36,"Duration":98264,"SoundDuration":98264,"Delta":414586884},{"NoteNumber":72,"Velocity":42,"Duration":185586,"SoundDuration":185586,"Delta":414685148},{"NoteNumber":56,"Velocity":36,"Duration":185586,"SoundDuration":185586,"Delta":414685148},{"NoteNumber":50,"Velocity":20,"Duration":1131574,"SoundDuration":1131574,"Delta":414685148},{"NoteNumber":70,"Velocity":37,"Duration":185586,"SoundDuration":185586,"Delta":414870734},{"NoteNumber":58,"Velocity":23,"Duration":185586,"SoundDuration":185586,"Delta":414870734},{"NoteNumber":70,"Velocity":43,"Duration":371172,"SoundDuration":371172,"Delta":415056320},{"NoteNumber":56,"Velocity":27,"Duration":185586,"SoundDuration":185586,"Delta":415056320},{"NoteNumber":58,"Velocity":23,"Duration":185586,"SoundDuration":185586,"Delta":415241906},{"NoteNumber":70,"Velocity":38,"Duration":389230,"SoundDuration":389230,"Delta":415427492},{"NoteNumber":56,"Velocity":27,"Duration":194615,"SoundDuration":194615,"Delta":415427492},{"NoteNumber":58,"Velocity":24,"Duration":194615,"SoundDuration":194615,"Delta":415622107},{"NoteNumber":70,"Velocity":39,"Duration":196546,"SoundDuration":196546,"Delta":415816723},{"NoteNumber":51,"Velocity":20,"Duration":1123582,"SoundDuration":1123582,"Delta":415816723},{"NoteNumber":55,"Velocity":33,"Duration":187324,"SoundDuration":187324,"Delta":415816723},{"NoteNumber":75,"Velocity":45,"Duration":193667,"SoundDuration":193667,"Delta":416004047},{"NoteNumber":58,"Velocity":23,"Duration":184444,"SoundDuration":184444,"Delta":416004047},{"NoteNumber":74,"Velocity":44,"Duration":193667,"SoundDuration":193667,"Delta":416188492},{"NoteNumber":55,"Velocity":27,"Duration":184445,"SoundDuration":184445,"Delta":416188492},{"NoteNumber":73,"Velocity":42,"Duration":193667,"SoundDuration":193667,"Delta":416372937},{"NoteNumber":58,"Velocity":23,"Duration":184444,"SoundDuration":184444,"Delta":416372937},{"NoteNumber":72,"Velocity":40,"Duration":194368,"SoundDuration":194368,"Delta":416557382},{"NoteNumber":55,"Velocity":27,"Duration":184444,"SoundDuration":184444,"Delta":416557382},{"NoteNumber":71,"Velocity":38,"Duration":207786,"SoundDuration":207786,"Delta":416741827},{"NoteNumber":58,"Velocity":25,"Duration":198478,"SoundDuration":198478,"Delta":416741827},{"NoteNumber":70,"Velocity":41,"Duration":372323,"SoundDuration":372323,"Delta":416940306},{"NoteNumber":50,"Velocity":20,"Duration":1116971,"SoundDuration":1116971,"Delta":416940306},{"NoteNumber":56,"Velocity":33,"Duration":186162,"SoundDuration":186162,"Delta":416940306},{"NoteNumber":58,"Velocity":27,"Duration":186161,"SoundDuration":186161,"Delta":417126468},{"NoteNumber":56,"Velocity":27,"Duration":186162,"SoundDuration":186162,"Delta":417312630},{"NoteNumber":58,"Velocity":24,"Duration":186161,"SoundDuration":186161,"Delta":417498792},{"NoteNumber":56,"Velocity":27,"Duration":186162,"SoundDuration":186162,"Delta":417684954},{"NoteNumber":58,"Velocity":23,"Duration":186161,"SoundDuration":186161,"Delta":417871116},{"NoteNumber":63,"Velocity":45,"Duration":744647,"SoundDuration":744647,"Delta":418057278},{"NoteNumber":51,"Velocity":21,"Duration":1127338,"SoundDuration":1127338,"Delta":418057278},{"NoteNumber":55,"Velocity":35,"Duration":186162,"SoundDuration":186162,"Delta":418057278},{"NoteNumber":58,"Velocity":24,"Duration":186161,"SoundDuration":186161,"Delta":418243440},{"NoteNumber":55,"Velocity":28,"Duration":186162,"SoundDuration":186162,"Delta":418429602},{"NoteNumber":58,"Velocity":23,"Duration":186161,"SoundDuration":186161,"Delta":418615764},{"NoteNumber":65,"Velocity":42,"Duration":102389,"SoundDuration":102389,"Delta":418801926},{"NoteNumber":55,"Velocity":27,"Duration":186162,"SoundDuration":186162,"Delta":418801926},{"NoteNumber":63,"Velocity":39,"Duration":102907,"SoundDuration":102907,"Delta":418895007},{"NoteNumber":62,"Velocity":42,"Duration":108090,"SoundDuration":108090,"Delta":418988088},{"NoteNumber":58,"Velocity":23,"Duration":196528,"SoundDuration":196528,"Delta":418988088},{"NoteNumber":63,"Velocity":40,"Duration":98264,"SoundDuration":98264,"Delta":419086352},{"NoteNumber":72,"Velocity":54,"Duration":185586,"SoundDuration":185586,"Delta":419184616},{"NoteNumber":53,"Velocity":38,"Duration":185586,"SoundDuration":185586,"Delta":419184616},{"NoteNumber":50,"Velocity":21,"Duration":1131574,"SoundDuration":1131574,"Delta":419184616},{"NoteNumber":71,"Velocity":48,"Duration":185586,"SoundDuration":185586,"Delta":419370202},{"NoteNumber":56,"Velocity":24,"Duration":185586,"SoundDuration":185586,"Delta":419370202},{"NoteNumber":71,"Velocity":53,"Duration":371172,"SoundDuration":371172,"Delta":419555788},{"NoteNumber":53,"Velocity":32,"Duration":185586,"SoundDuration":185586,"Delta":419555788},{"NoteNumber":56,"Velocity":28,"Duration":185586,"SoundDuration":185586,"Delta":419741374},{"NoteNumber":71,"Velocity":47,"Duration":389230,"SoundDuration":389230,"Delta":419926960},{"NoteNumber":53,"Velocity":32,"Duration":194615,"SoundDuration":194615,"Delta":419926960},{"NoteNumber":56,"Velocity":27,"Duration":194615,"SoundDuration":194615,"Delta":420121575},{"NoteNumber":72,"Velocity":50,"Duration":196546,"SoundDuration":196546,"Delta":420316191},{"NoteNumber":51,"Velocity":23,"Duration":1123582,"SoundDuration":1123582,"Delta":420316191},{"NoteNumber":55,"Velocity":37,"Duration":187324,"SoundDuration":187324,"Delta":420316191},{"NoteNumber":79,"Velocity":58,"Duration":193667,"SoundDuration":193667,"Delta":420503515},{"NoteNumber":60,"Velocity":32,"Duration":184444,"SoundDuration":184444,"Delta":420503515},{"NoteNumber":75,"Velocity":56,"Duration":193667,"SoundDuration":193667,"Delta":420687960},{"NoteNumber":55,"Velocity":34,"Duration":184445,"SoundDuration":184445,"Delta":420687960},{"NoteNumber":74,"Velocity":54,"Duration":193667,"SoundDuration":193667,"Delta":420872405},{"NoteNumber":60,"Velocity":29,"Duration":184444,"SoundDuration":184444,"Delta":420872405},{"NoteNumber":72,"Velocity":51,"Duration":194368,"SoundDuration":194368,"Delta":421056850},{"NoteNumber":55,"Velocity":30,"Duration":184444,"SoundDuration":184444,"Delta":421056850},{"NoteNumber":70,"Velocity":49,"Duration":207786,"SoundDuration":207786,"Delta":421241295},{"NoteNumber":60,"Velocity":28,"Duration":198478,"SoundDuration":198478,"Delta":421241295},{"NoteNumber":69,"Velocity":50,"Duration":372323,"SoundDuration":372323,"Delta":421439774},{"NoteNumber":54,"Velocity":23,"Duration":1116971,"SoundDuration":1116971,"Delta":421439774},{"NoteNumber":60,"Velocity":37,"Duration":186162,"SoundDuration":186162,"Delta":421439774},{"NoteNumber":63,"Velocity":30,"Duration":186161,"SoundDuration":186161,"Delta":421625936},{"NoteNumber":60,"Velocity":30,"Duration":186162,"SoundDuration":186162,"Delta":421812098},{"NoteNumber":63,"Velocity":27,"Duration":195470,"SoundDuration":195470,"Delta":421998260},{"NoteNumber":60,"Velocity":30,"Duration":186162,"SoundDuration":186162,"Delta":422184422},{"NoteNumber":63,"Velocity":26,"Duration":186161,"SoundDuration":186161,"Delta":422370584},{"NoteNumber":70,"Velocity":59,"Duration":196546,"SoundDuration":196546,"Delta":422556746},{"NoteNumber":58,"Velocity":44,"Duration":187324,"SoundDuration":187324,"Delta":422556746},{"NoteNumber":55,"Velocity":27,"Duration":1123582,"SoundDuration":1123582,"Delta":422556746},{"NoteNumber":86,"Velocity":62,"Duration":193667,"SoundDuration":193667,"Delta":422744070},{"NoteNumber":62,"Velocity":30,"Duration":184444,"SoundDuration":184444,"Delta":422744070},{"NoteNumber":82,"Velocity":61,"Duration":193667,"SoundDuration":193667,"Delta":422928515},{"NoteNumber":58,"Velocity":36,"Duration":184445,"SoundDuration":184445,"Delta":422928515},{"NoteNumber":81,"Velocity":60,"Duration":193667,"SoundDuration":193667,"Delta":423112960},{"NoteNumber":62,"Velocity":30,"Duration":184444,"SoundDuration":184444,"Delta":423112960},{"NoteNumber":79,"Velocity":58,"Duration":194368,"SoundDuration":194368,"Delta":423297405},{"NoteNumber":58,"Velocity":36,"Duration":184444,"SoundDuration":184444,"Delta":423297405},{"NoteNumber":77,"Velocity":57,"Duration":207786,"SoundDuration":207786,"Delta":423481850},{"NoteNumber":62,"Velocity":33,"Duration":198478,"SoundDuration":198478,"Delta":423481850},{"NoteNumber":76,"Velocity":62,"Duration":372323,"SoundDuration":372323,"Delta":423680329},{"NoteNumber":67,"Velocity":44,"Duration":186162,"SoundDuration":186162,"Delta":423680329},{"NoteNumber":60,"Velocity":27,"Duration":1116971,"SoundDuration":1116971,"Delta":423680329},{"NoteNumber":70,"Velocity":36,"Duration":186161,"SoundDuration":186161,"Delta":423866491},{"NoteNumber":67,"Velocity":36,"Duration":186162,"SoundDuration":186162,"Delta":424052653},{"NoteNumber":70,"Velocity":31,"Duration":195470,"SoundDuration":195470,"Delta":424238815},{"NoteNumber":67,"Velocity":36,"Duration":186162,"SoundDuration":186162,"Delta":424424977},{"NoteNumber":70,"Velocity":30,"Duration":186161,"SoundDuration":186161,"Delta":424611139},{"NoteNumber":65,"Velocity":44,"Duration":382035,"SoundDuration":382035,"Delta":424797301},{"NoteNumber":69,"Velocity":44,"Duration":382035,"SoundDuration":382035,"Delta":424797301},{"NoteNumber":77,"Velocity":46,"Duration":96143,"SoundDuration":96143,"Delta":424891971},{"NoteNumber":76,"Velocity":49,"Duration":95836,"SoundDuration":95836,"Delta":424988115},{"NoteNumber":77,"Velocity":44,"Duration":95384,"SoundDuration":95384,"Delta":425083952},{"NoteNumber":79,"Velocity":49,"Duration":95077,"SoundDuration":95077,"Delta":425179336},{"NoteNumber":77,"Velocity":44,"Duration":94702,"SoundDuration":94702,"Delta":425274414},{"NoteNumber":76,"Velocity":49,"Duration":94404,"SoundDuration":94404,"Delta":425369116},{"NoteNumber":77,"Velocity":44,"Duration":94034,"SoundDuration":94034,"Delta":425463520},{"NoteNumber":75,"Velocity":46,"Duration":186795,"SoundDuration":186795,"Delta":425557554},{"NoteNumber":77,"Velocity":49,"Duration":93225,"SoundDuration":93225,"Delta":425651124},{"NoteNumber":81,"Velocity":54,"Duration":92688,"SoundDuration":92688,"Delta":425744350},{"NoteNumber":77,"Velocity":49,"Duration":92142,"SoundDuration":92142,"Delta":425837038},{"NoteNumber":74,"Velocity":52,"Duration":183444,"SoundDuration":183444,"Delta":425929181},{"NoteNumber":77,"Velocity":53,"Duration":91715,"SoundDuration":91715,"Delta":426020910},{"NoteNumber":82,"Velocity":57,"Duration":91715,"SoundDuration":91715,"Delta":426112625},{"NoteNumber":77,"Velocity":52,"Duration":91714,"SoundDuration":91714,"Delta":426204340},{"NoteNumber":69,"Velocity":56,"Duration":182870,"SoundDuration":182870,"Delta":426296055},{"NoteNumber":77,"Velocity":55,"Duration":91435,"SoundDuration":91435,"Delta":426387490},{"NoteNumber":87,"Velocity":61,"Duration":91435,"SoundDuration":91435,"Delta":426478926},{"NoteNumber":77,"Velocity":57,"Duration":91435,"SoundDuration":91435,"Delta":426570361},{"NoteNumber":70,"Velocity":53,"Duration":182870,"SoundDuration":182870,"Delta":426661797},{"NoteNumber":77,"Velocity":57,"Duration":91435,"SoundDuration":91435,"Delta":426753232},{"NoteNumber":86,"Velocity":64,"Duration":99239,"SoundDuration":99239,"Delta":426844668},{"NoteNumber":77,"Velocity":57,"Duration":99239,"SoundDuration":99239,"Delta":426943907},{"NoteNumber":84,"Velocity":65,"Duration":94415,"SoundDuration":94415,"Delta":427043146},{"NoteNumber":65,"Velocity":59,"Duration":373658,"SoundDuration":373658,"Delta":427043146},{"NoteNumber":81,"Velocity":60,"Duration":93081,"SoundDuration":93081,"Delta":427137562},{"NoteNumber":79,"Velocity":65,"Duration":93080,"SoundDuration":93080,"Delta":427230643},{"NoteNumber":77,"Velocity":60,"Duration":93080,"SoundDuration":93080,"Delta":427323724},{"NoteNumber":76,"Velocity":57,"Duration":93080,"SoundDuration":93080,"Delta":427416805},{"NoteNumber":77,"Velocity":59,"Duration":93081,"SoundDuration":93081,"Delta":427509886},{"NoteNumber":79,"Velocity":60,"Duration":93080,"SoundDuration":93080,"Delta":427602967},{"NoteNumber":77,"Velocity":56,"Duration":94067,"SoundDuration":94067,"Delta":427696048},{"NoteNumber":75,"Velocity":51,"Duration":191464,"SoundDuration":191464,"Delta":427790115},{"NoteNumber":77,"Velocity":49,"Duration":95683,"SoundDuration":95683,"Delta":427885896},{"NoteNumber":81,"Velocity":53,"Duration":95450,"SoundDuration":95450,"Delta":427981579},{"NoteNumber":77,"Velocity":49,"Duration":95228,"SoundDuration":95228,"Delta":428077030},{"NoteNumber":74,"Velocity":57,"Duration":189924,"SoundDuration":189924,"Delta":428172258},{"NoteNumber":77,"Velocity":52,"Duration":94846,"SoundDuration":94846,"Delta":428267335},{"NoteNumber":82,"Velocity":58,"Duration":94702,"SoundDuration":94702,"Delta":428362182},{"NoteNumber":77,"Velocity":54,"Duration":94343,"SoundDuration":94343,"Delta":428456884},{"NoteNumber":69,"Velocity":59,"Duration":187252,"SoundDuration":187252,"Delta":428551227},{"NoteNumber":77,"Velocity":55,"Duration":93424,"SoundDuration":93424,"Delta":428645056},{"NoteNumber":87,"Velocity":61,"Duration":92956,"SoundDuration":92956,"Delta":428738480},{"NoteNumber":77,"Velocity":55,"Duration":92559,"SoundDuration":92559,"Delta":428831436},{"NoteNumber":70,"Velocity":54,"Duration":185488,"SoundDuration":185488,"Delta":428923996},{"NoteNumber":77,"Velocity":49,"Duration":93081,"SoundDuration":93081,"Delta":429016403},{"NoteNumber":86,"Velocity":68,"Duration":96993,"SoundDuration":96993,"Delta":429109484},{"NoteNumber":77,"Velocity":62,"Duration":95722,"SoundDuration":95722,"Delta":429206477},{"NoteNumber":84,"Velocity":73,"Duration":92792,"SoundDuration":92792,"Delta":429302199},{"NoteNumber":65,"Velocity":62,"Duration":371105,"SoundDuration":371105,"Delta":429302199},{"NoteNumber":89,"Velocity":62,"Duration":92793,"SoundDuration":92793,"Delta":429394992},{"NoteNumber":84,"Velocity":69,"Duration":92792,"SoundDuration":92792,"Delta":429487785},{"NoteNumber":81,"Velocity":57,"Duration":92726,"SoundDuration":92726,"Delta":429580578},{"NoteNumber":77,"Velocity":67,"Duration":92645,"SoundDuration":92645,"Delta":429673305},{"NoteNumber":84,"Velocity":55,"Duration":93143,"SoundDuration":93143,"Delta":429765950},{"NoteNumber":81,"Velocity":61,"Duration":93584,"SoundDuration":93584,"Delta":429859094},{"NoteNumber":77,"Velocity":54,"Duration":94093,"SoundDuration":94093,"Delta":429952678},{"NoteNumber":72,"Velocity":63,"Duration":94538,"SoundDuration":94538,"Delta":430046772},{"NoteNumber":77,"Velocity":55,"Duration":94992,"SoundDuration":94992,"Delta":430141310},{"NoteNumber":65,"Velocity":47,"Duration":94992,"SoundDuration":94992,"Delta":430141310},{"NoteNumber":72,"Velocity":65,"Duration":95592,"SoundDuration":95592,"Delta":430236302},{"NoteNumber":60,"Velocity":54,"Duration":95592,"SoundDuration":95592,"Delta":430236302},{"NoteNumber":69,"Velocity":59,"Duration":103698,"SoundDuration":103698,"Delta":430331894},{"NoteNumber":57,"Velocity":47,"Duration":103698,"SoundDuration":103698,"Delta":430331894},{"NoteNumber":65,"Velocity":85,"Duration":100570,"SoundDuration":100570,"Delta":430435593},{"NoteNumber":53,"Velocity":69,"Duration":100570,"SoundDuration":100570,"Delta":430435593},{"NoteNumber":72,"Velocity":62,"Duration":443951,"SoundDuration":443951,"Delta":430837873},{"NoteNumber":69,"Velocity":62,"Duration":443951,"SoundDuration":443951,"Delta":430837873},{"NoteNumber":77,"Velocity":73,"Duration":443951,"SoundDuration":443951,"Delta":430837873},{"NoteNumber":41,"Velocity":59,"Duration":443951,"SoundDuration":443951,"Delta":430837873},{"NoteNumber":58,"Velocity":34,"Duration":766521,"SoundDuration":766521,"Delta":431731094},{"NoteNumber":53,"Velocity":30,"Duration":413364,"SoundDuration":413364,"Delta":432480392},{"NoteNumber":50,"Velocity":34,"Duration":759275,"SoundDuration":759275,"Delta":432893757},{"NoteNumber":53,"Velocity":32,"Duration":406365,"SoundDuration":406365,"Delta":433636101},{"NoteNumber":58,"Velocity":34,"Duration":752601,"SoundDuration":752601,"Delta":434042467},{"NoteNumber":77,"Velocity":45,"Duration":45829,"SoundDuration":45829,"Delta":434228629},{"NoteNumber":77,"Velocity":49,"Duration":45829,"SoundDuration":45829,"Delta":434411947},{"NoteNumber":77,"Velocity":43,"Duration":45829,"SoundDuration":45829,"Delta":434595265},{"NoteNumber":77,"Velocity":46,"Duration":49456,"SoundDuration":49456,"Delta":434778583},{"NoteNumber":62,"Velocity":36,"Duration":395647,"SoundDuration":395647,"Delta":434778583},{"NoteNumber":77,"Velocity":40,"Duration":49455,"SoundDuration":49455,"Delta":434976407},{"NoteNumber":79,"Velocity":45,"Duration":196078,"SoundDuration":196078,"Delta":435174231},{"NoteNumber":65,"Velocity":38,"Duration":373483,"SoundDuration":373483,"Delta":435174231},{"NoteNumber":77,"Velocity":40,"Duration":196078,"SoundDuration":196078,"Delta":435360972},{"NoteNumber":75,"Velocity":43,"Duration":196078,"SoundDuration":196078,"Delta":435547714},{"NoteNumber":74,"Velocity":40,"Duration":196137,"SoundDuration":196137,"Delta":435734455},{"NoteNumber":72,"Velocity":45,"Duration":197579,"SoundDuration":197579,"Delta":435921197},{"NoteNumber":70,"Velocity":39,"Duration":145021,"SoundDuration":145021,"Delta":436109108},{"NoteNumber":70,"Velocity":41,"Duration":48340,"SoundDuration":48340,"Delta":436302469},{"NoteNumber":51,"Velocity":34,"Duration":772558,"SoundDuration":772558,"Delta":436302469},{"NoteNumber":72,"Velocity":39,"Duration":48340,"SoundDuration":48340,"Delta":436350810},{"NoteNumber":70,"Velocity":49,"Duration":96680,"SoundDuration":96680,"Delta":436399150},{"NoteNumber":69,"Velocity":44,"Duration":187324,"SoundDuration":187324,"Delta":436495831},{"NoteNumber":69,"Velocity":46,"Duration":374649,"SoundDuration":374649,"Delta":436683155},{"NoteNumber":48,"Velocity":30,"Duration":413364,"SoundDuration":413364,"Delta":437057804},{"NoteNumber":45,"Velocity":34,"Duration":759275,"SoundDuration":759275,"Delta":437471169},{"NoteNumber":48,"Velocity":32,"Duration":406365,"SoundDuration":406365,"Delta":438213513},{"NoteNumber":51,"Velocity":34,"Duration":752601,"SoundDuration":752601,"Delta":438619879},{"NoteNumber":75,"Velocity":45,"Duration":45829,"SoundDuration":45829,"Delta":438806041},{"NoteNumber":75,"Velocity":48,"Duration":45829,"SoundDuration":45829,"Delta":438989359},{"NoteNumber":75,"Velocity":42,"Duration":45829,"SoundDuration":45829,"Delta":439172677},{"NoteNumber":75,"Velocity":44,"Duration":49456,"SoundDuration":49456,"Delta":439355995},{"NoteNumber":57,"Velocity":36,"Duration":395647,"SoundDuration":395647,"Delta":439355995},{"NoteNumber":75,"Velocity":40,"Duration":49455,"SoundDuration":49455,"Delta":439553819},{"NoteNumber":77,"Velocity":45,"Duration":196078,"SoundDuration":196078,"Delta":439751643},{"NoteNumber":60,"Velocity":38,"Duration":373483,"SoundDuration":373483,"Delta":439751643},{"NoteNumber":75,"Velocity":40,"Duration":196078,"SoundDuration":196078,"Delta":439938385},{"NoteNumber":74,"Velocity":40,"Duration":196078,"SoundDuration":196078,"Delta":440125126},{"NoteNumber":72,"Velocity":40,"Duration":196078,"SoundDuration":196078,"Delta":440311868},{"NoteNumber":70,"Velocity":45,"Duration":197111,"SoundDuration":197111,"Delta":440498609},{"NoteNumber":69,"Velocity":39,"Duration":207397,"SoundDuration":207397,"Delta":440685351},{"NoteNumber":70,"Velocity":47,"Duration":370027,"SoundDuration":370027,"Delta":440892748},{"NoteNumber":62,"Velocity":35,"Duration":185014,"SoundDuration":185014,"Delta":440892748},{"NoteNumber":65,"Velocity":28,"Duration":185013,"SoundDuration":185013,"Delta":441077762},{"NoteNumber":62,"Velocity":35,"Duration":185014,"SoundDuration":185014,"Delta":441262776},{"NoteNumber":74,"Velocity":47,"Duration":191897,"SoundDuration":191897,"Delta":441447790},{"NoteNumber":65,"Velocity":25,"Duration":182759,"SoundDuration":182759,"Delta":441447790},{"NoteNumber":72,"Velocity":45,"Duration":192304,"SoundDuration":192304,"Delta":441630549},{"NoteNumber":62,"Velocity":32,"Duration":182759,"SoundDuration":182759,"Delta":441630549},{"NoteNumber":70,"Velocity":40,"Duration":200151,"SoundDuration":200151,"Delta":441813309},{"NoteNumber":65,"Velocity":24,"Duration":190900,"SoundDuration":190900,"Delta":441813309},{"NoteNumber":69,"Velocity":47,"Duration":370027,"SoundDuration":370027,"Delta":442004209},{"NoteNumber":63,"Velocity":35,"Duration":185014,"SoundDuration":185014,"Delta":442004209},{"NoteNumber":65,"Velocity":31,"Duration":185013,"SoundDuration":185013,"Delta":442189223},{"NoteNumber":63,"Velocity":35,"Duration":185014,"SoundDuration":185014,"Delta":442374237},{"NoteNumber":79,"Velocity":52,"Duration":191897,"SoundDuration":191897,"Delta":442559251},{"NoteNumber":65,"Velocity":26,"Duration":182759,"SoundDuration":182759,"Delta":442559251},{"NoteNumber":77,"Velocity":47,"Duration":192304,"SoundDuration":192304,"Delta":442742011},{"NoteNumber":63,"Velocity":33,"Duration":182759,"SoundDuration":182759,"Delta":442742011},{"NoteNumber":69,"Velocity":42,"Duration":200122,"SoundDuration":200122,"Delta":442924770},{"NoteNumber":65,"Velocity":29,"Duration":190900,"SoundDuration":190900,"Delta":442924770},{"NoteNumber":70,"Velocity":47,"Duration":368890,"SoundDuration":368890,"Delta":443115671},{"NoteNumber":62,"Velocity":35,"Duration":184444,"SoundDuration":184444,"Delta":443115671},{"NoteNumber":65,"Velocity":30,"Duration":184445,"SoundDuration":184445,"Delta":443300116},{"NoteNumber":62,"Velocity":32,"Duration":184444,"SoundDuration":184444,"Delta":443484561},{"NoteNumber":74,"Velocity":47,"Duration":191314,"SoundDuration":191314,"Delta":443669006},{"NoteNumber":65,"Velocity":24,"Duration":182204,"SoundDuration":182204,"Delta":443669006},{"NoteNumber":72,"Velocity":45,"Duration":191810,"SoundDuration":191810,"Delta":443851210},{"NoteNumber":62,"Velocity":32,"Duration":182204,"SoundDuration":182204,"Delta":443851210},{"NoteNumber":70,"Velocity":40,"Duration":201345,"SoundDuration":201345,"Delta":444033415},{"NoteNumber":65,"Velocity":25,"Duration":192122,"SoundDuration":192122,"Delta":444033415},{"NoteNumber":69,"Velocity":47,"Duration":368890,"SoundDuration":368890,"Delta":444225538},{"NoteNumber":63,"Velocity":35,"Duration":184444,"SoundDuration":184444,"Delta":444225538},{"NoteNumber":65,"Velocity":31,"Duration":184445,"SoundDuration":184445,"Delta":444409983},{"NoteNumber":63,"Velocity":35,"Duration":184444,"SoundDuration":184444,"Delta":444594428},{"NoteNumber":78,"Velocity":52,"Duration":191314,"SoundDuration":191314,"Delta":444778873},{"NoteNumber":65,"Velocity":26,"Duration":182204,"SoundDuration":182204,"Delta":444778873},{"NoteNumber":77,"Velocity":47,"Duration":191719,"SoundDuration":191719,"Delta":444961077},{"NoteNumber":63,"Velocity":33,"Duration":182204,"SoundDuration":182204,"Delta":444961077},{"NoteNumber":69,"Velocity":42,"Duration":199517,"SoundDuration":199517,"Delta":445143282},{"NoteNumber":65,"Velocity":29,"Duration":190294,"SoundDuration":190294,"Delta":445143282},{"NoteNumber":70,"Velocity":47,"Duration":368890,"SoundDuration":368890,"Delta":445333577},{"NoteNumber":61,"Velocity":35,"Duration":184444,"SoundDuration":184444,"Delta":445333577},{"NoteNumber":65,"Velocity":30,"Duration":184445,"SoundDuration":184445,"Delta":445518022},{"NoteNumber":61,"Velocity":32,"Duration":189095,"SoundDuration":189095,"Delta":445702467},{"NoteNumber":77,"Velocity":55,"Duration":190159,"SoundDuration":190159,"Delta":445891562},{"NoteNumber":65,"Velocity":28,"Duration":181104,"SoundDuration":181104,"Delta":445891562},{"NoteNumber":73,"Velocity":53,"Duration":190679,"SoundDuration":190679,"Delta":446072667},{"NoteNumber":61,"Velocity":38,"Duration":181104,"SoundDuration":181104,"Delta":446072667},{"NoteNumber":72,"Velocity":50,"Duration":200731,"SoundDuration":200731,"Delta":446253771},{"NoteNumber":65,"Velocity":31,"Duration":191509,"SoundDuration":191509,"Delta":446253771},{"NoteNumber":71,"Velocity":56,"Duration":368890,"SoundDuration":368890,"Delta":446445281},{"NoteNumber":55,"Velocity":40,"Duration":1109867,"SoundDuration":1109867,"Delta":446445281},{"NoteNumber":62,"Velocity":40,"Duration":184444,"SoundDuration":184444,"Delta":446445281},{"NoteNumber":65,"Velocity":34,"Duration":184445,"SoundDuration":184445,"Delta":446629726},{"NoteNumber":62,"Velocity":38,"Duration":184444,"SoundDuration":184444,"Delta":446814171},{"NoteNumber":80,"Velocity":58,"Duration":191314,"SoundDuration":191314,"Delta":446998616},{"NoteNumber":65,"Velocity":32,"Duration":182204,"SoundDuration":182204,"Delta":446998616},{"NoteNumber":79,"Velocity":52,"Duration":191810,"SoundDuration":191810,"Delta":447180820},{"NoteNumber":62,"Velocity":39,"Duration":182204,"SoundDuration":182204,"Delta":447180820},{"NoteNumber":71,"Velocity":48,"Duration":192122,"SoundDuration":192122,"Delta":447363025},{"NoteNumber":65,"Velocity":32,"Duration":192122,"SoundDuration":192122,"Delta":447363025},{"NoteNumber":74,"Velocity":56,"Duration":193074,"SoundDuration":193074,"Delta":447555148},{"NoteNumber":63,"Velocity":39,"Duration":367759,"SoundDuration":367759,"Delta":447555148},{"NoteNumber":60,"Velocity":39,"Duration":367759,"SoundDuration":367759,"Delta":447555148},{"NoteNumber":72,"Velocity":51,"Duration":192935,"SoundDuration":192935,"Delta":447739028},{"NoteNumber":77,"Velocity":55,"Duration":190500,"SoundDuration":190500,"Delta":447922908},{"NoteNumber":65,"Velocity":35,"Duration":739215,"SoundDuration":739215,"Delta":447922908},{"NoteNumber":57,"Velocity":35,"Duration":369015,"SoundDuration":369015,"Delta":447922908},{"NoteNumber":76,"Velocity":51,"Duration":196966,"SoundDuration":196966,"Delta":448104012},{"NoteNumber":75,"Velocity":50,"Duration":190559,"SoundDuration":190559,"Delta":448291923},{"NoteNumber":58,"Velocity":35,"Duration":370200,"SoundDuration":370200,"Delta":448291923},{"NoteNumber":74,"Velocity":49,"Duration":189095,"SoundDuration":189095,"Delta":448473028},{"NoteNumber":72,"Velocity":54,"Duration":278378,"SoundDuration":278378,"Delta":448662123},{"NoteNumber":51,"Velocity":43,"Duration":377618,"SoundDuration":377618,"Delta":448662123},{"NoteNumber":63,"Velocity":43,"Duration":377618,"SoundDuration":377618,"Delta":448662123},{"NoteNumber":74,"Velocity":48,"Duration":99239,"SoundDuration":99239,"Delta":448940502},{"NoteNumber":70,"Velocity":54,"Duration":380589,"SoundDuration":380589,"Delta":449039742},{"NoteNumber":62,"Velocity":40,"Duration":380589,"SoundDuration":380589,"Delta":449039742},{"NoteNumber":53,"Velocity":40,"Duration":760987,"SoundDuration":760987,"Delta":449039742},{"NoteNumber":69,"Velocity":50,"Duration":63431,"SoundDuration":63431,"Delta":449420332},{"NoteNumber":60,"Velocity":40,"Duration":380397,"SoundDuration":380397,"Delta":449420332},{"NoteNumber":70,"Velocity":44,"Duration":63431,"SoundDuration":63431,"Delta":449483763},{"NoteNumber":69,"Velocity":50,"Duration":63431,"SoundDuration":63431,"Delta":449547195},{"NoteNumber":70,"Velocity":44,"Duration":47573,"SoundDuration":47573,"Delta":449610627},{"NoteNumber":69,"Velocity":50,"Duration":47573,"SoundDuration":47573,"Delta":449658200},{"NoteNumber":67,"Velocity":42,"Duration":47573,"SoundDuration":47573,"Delta":449705774},{"NoteNumber":69,"Velocity":45,"Duration":47381,"SoundDuration":47381,"Delta":449753348},{"NoteNumber":70,"Velocity":49,"Duration":93370,"SoundDuration":93370,"Delta":449800729},{"NoteNumber":58,"Velocity":40,"Duration":373161,"SoundDuration":373161,"Delta":449800729},{"NoteNumber":65,"Velocity":46,"Duration":93370,"SoundDuration":93370,"Delta":449894100},{"NoteNumber":64,"Velocity":49,"Duration":93339,"SoundDuration":93339,"Delta":449987471},{"NoteNumber":65,"Velocity":44,"Duration":93080,"SoundDuration":93080,"Delta":450080810},{"NoteNumber":67,"Velocity":49,"Duration":93081,"SoundDuration":93081,"Delta":450173891},{"NoteNumber":65,"Velocity":44,"Duration":93081,"SoundDuration":93081,"Delta":450266972},{"NoteNumber":64,"Velocity":49,"Duration":91102,"SoundDuration":91102,"Delta":450360053},{"NoteNumber":50,"Velocity":45,"Duration":182204,"SoundDuration":182204,"Delta":450360053},{"NoteNumber":65,"Velocity":44,"Duration":91102,"SoundDuration":91102,"Delta":450451155},{"NoteNumber":63,"Velocity":49,"Duration":91102,"SoundDuration":91102,"Delta":450542257},{"NoteNumber":48,"Velocity":50,"Duration":182280,"SoundDuration":182280,"Delta":450542257},{"NoteNumber":65,"Velocity":49,"Duration":91177,"SoundDuration":91177,"Delta":450633360},{"NoteNumber":62,"Velocity":54,"Duration":95450,"SoundDuration":95450,"Delta":450724538},{"NoteNumber":46,"Velocity":45,"Duration":190821,"SoundDuration":190821,"Delta":450724538},{"NoteNumber":65,"Velocity":49,"Duration":95371,"SoundDuration":95371,"Delta":450819988},{"NoteNumber":60,"Velocity":49,"Duration":93370,"SoundDuration":93370,"Delta":450915359},{"NoteNumber":45,"Velocity":40,"Duration":373161,"SoundDuration":373161,"Delta":450915359},{"NoteNumber":65,"Velocity":46,"Duration":93370,"SoundDuration":93370,"Delta":451008730},{"NoteNumber":64,"Velocity":49,"Duration":93339,"SoundDuration":93339,"Delta":451102101},{"NoteNumber":65,"Velocity":44,"Duration":93080,"SoundDuration":93080,"Delta":451195440},{"NoteNumber":67,"Velocity":49,"Duration":93081,"SoundDuration":93081,"Delta":451288521},{"NoteNumber":65,"Velocity":44,"Duration":93081,"SoundDuration":93081,"Delta":451381602},{"NoteNumber":64,"Velocity":49,"Duration":91102,"SoundDuration":91102,"Delta":451474683},{"NoteNumber":55,"Velocity":45,"Duration":182204,"SoundDuration":182204,"Delta":451474683},{"NoteNumber":65,"Velocity":44,"Duration":91102,"SoundDuration":91102,"Delta":451565785},{"NoteNumber":75,"Velocity":49,"Duration":91102,"SoundDuration":91102,"Delta":451656887},{"NoteNumber":53,"Velocity":50,"Duration":182280,"SoundDuration":182280,"Delta":451656887},{"NoteNumber":65,"Velocity":49,"Duration":91177,"SoundDuration":91177,"Delta":451747990},{"NoteNumber":75,"Velocity":54,"Duration":95450,"SoundDuration":95450,"Delta":451839168},{"NoteNumber":45,"Velocity":45,"Duration":190821,"SoundDuration":190821,"Delta":451839168},{"NoteNumber":65,"Velocity":49,"Duration":95371,"SoundDuration":95371,"Delta":451934618},{"NoteNumber":74,"Velocity":49,"Duration":93370,"SoundDuration":93370,"Delta":452029989},{"NoteNumber":46,"Velocity":40,"Duration":373161,"SoundDuration":373161,"Delta":452029989},{"NoteNumber":77,"Velocity":46,"Duration":93370,"SoundDuration":93370,"Delta":452123360},{"NoteNumber":76,"Velocity":49,"Duration":93339,"SoundDuration":93339,"Delta":452216731},{"NoteNumber":77,"Velocity":44,"Duration":93080,"SoundDuration":93080,"Delta":452310070},{"NoteNumber":79,"Velocity":49,"Duration":93081,"SoundDuration":93081,"Delta":452403151},{"NoteNumber":77,"Velocity":44,"Duration":93081,"SoundDuration":93081,"Delta":452496232},{"NoteNumber":76,"Velocity":49,"Duration":91102,"SoundDuration":91102,"Delta":452589313},{"NoteNumber":62,"Velocity":48,"Duration":182204,"SoundDuration":182204,"Delta":452589313},{"NoteNumber":77,"Velocity":44,"Duration":91102,"SoundDuration":91102,"Delta":452680415},{"NoteNumber":75,"Velocity":49,"Duration":91102,"SoundDuration":91102,"Delta":452771517},{"NoteNumber":60,"Velocity":52,"Duration":182280,"SoundDuration":182280,"Delta":452771517},{"NoteNumber":77,"Velocity":49,"Duration":91177,"SoundDuration":91177,"Delta":452862620},{"NoteNumber":74,"Velocity":54,"Duration":95450,"SoundDuration":95450,"Delta":452953798},{"NoteNumber":58,"Velocity":48,"Duration":190821,"SoundDuration":190821,"Delta":452953798},{"NoteNumber":77,"Velocity":49,"Duration":95371,"SoundDuration":95371,"Delta":453049248},{"NoteNumber":72,"Velocity":49,"Duration":93370,"SoundDuration":93370,"Delta":453144619},{"NoteNumber":57,"Velocity":48,"Duration":373161,"SoundDuration":373161,"Delta":453144619},{"NoteNumber":77,"Velocity":46,"Duration":93370,"SoundDuration":93370,"Delta":453237990},{"NoteNumber":76,"Velocity":49,"Duration":93339,"SoundDuration":93339,"Delta":453331361},{"NoteNumber":77,"Velocity":44,"Duration":93080,"SoundDuration":93080,"Delta":453424700},{"NoteNumber":79,"Velocity":49,"Duration":93081,"SoundDuration":93081,"Delta":453517781},{"NoteNumber":77,"Velocity":44,"Duration":93081,"SoundDuration":93081,"Delta":453610862},{"NoteNumber":76,"Velocity":49,"Duration":91102,"SoundDuration":91102,"Delta":453703943},{"NoteNumber":67,"Velocity":49,"Duration":182204,"SoundDuration":182204,"Delta":453703943},{"NoteNumber":77,"Velocity":44,"Duration":91102,"SoundDuration":91102,"Delta":453795045},{"NoteNumber":87,"Velocity":49,"Duration":91102,"SoundDuration":91102,"Delta":453886147},{"NoteNumber":65,"Velocity":50,"Duration":182280,"SoundDuration":182280,"Delta":453886147},{"NoteNumber":77,"Velocity":49,"Duration":91177,"SoundDuration":91177,"Delta":453977250},{"NoteNumber":87,"Velocity":54,"Duration":95450,"SoundDuration":95450,"Delta":454068428},{"NoteNumber":57,"Velocity":46,"Duration":190821,"SoundDuration":190821,"Delta":454068428},{"NoteNumber":77,"Velocity":49,"Duration":95371,"SoundDuration":95371,"Delta":454163878},{"NoteNumber":86,"Velocity":49,"Duration":93370,"SoundDuration":93370,"Delta":454259249},{"NoteNumber":58,"Velocity":50,"Duration":373161,"SoundDuration":373161,"Delta":454259249},{"NoteNumber":77,"Velocity":46,"Duration":93370,"SoundDuration":93370,"Delta":454352620},{"NoteNumber":76,"Velocity":49,"Duration":93339,"SoundDuration":93339,"Delta":454445991},{"NoteNumber":77,"Velocity":44,"Duration":93080,"SoundDuration":93080,"Delta":454539330},{"NoteNumber":79,"Velocity":49,"Duration":93081,"SoundDuration":93081,"Delta":454632411},{"NoteNumber":77,"Velocity":44,"Duration":93081,"SoundDuration":93081,"Delta":454725492},{"NoteNumber":76,"Velocity":49,"Duration":91102,"SoundDuration":91102,"Delta":454818573},{"NoteNumber":65,"Velocity":50,"Duration":182204,"SoundDuration":182204,"Delta":454818573},{"NoteNumber":77,"Velocity":44,"Duration":91102,"SoundDuration":91102,"Delta":454909675},{"NoteNumber":80,"Velocity":49,"Duration":91940,"SoundDuration":91940,"Delta":455000777},{"NoteNumber":62,"Velocity":54,"Duration":183927,"SoundDuration":183927,"Delta":455000777},{"NoteNumber":77,"Velocity":49,"Duration":91987,"SoundDuration":91987,"Delta":455092717},{"NoteNumber":75,"Velocity":54,"Duration":95450,"SoundDuration":95450,"Delta":455184705},{"NoteNumber":60,"Velocity":51,"Duration":190821,"SoundDuration":190821,"Delta":455184705},{"NoteNumber":77,"Velocity":49,"Duration":95371,"SoundDuration":95371,"Delta":455280155},{"NoteNumber":74,"Velocity":49,"Duration":93370,"SoundDuration":93370,"Delta":455375527},{"NoteNumber":59,"Velocity":54,"Duration":373161,"SoundDuration":373161,"Delta":455375527},{"NoteNumber":79,"Velocity":46,"Duration":93370,"SoundDuration":93370,"Delta":455468897},{"NoteNumber":78,"Velocity":49,"Duration":93339,"SoundDuration":93339,"Delta":455562268},{"NoteNumber":79,"Velocity":44,"Duration":93081,"SoundDuration":93081,"Delta":455655608},{"NoteNumber":81,"Velocity":49,"Duration":96369,"SoundDuration":96369,"Delta":455748689},{"NoteNumber":79,"Velocity":44,"Duration":96370,"SoundDuration":96370,"Delta":455845059},{"NoteNumber":78,"Velocity":52,"Duration":91102,"SoundDuration":91102,"Delta":455941429},{"NoteNumber":68,"Velocity":45,"Duration":182204,"SoundDuration":182204,"Delta":455941429},{"NoteNumber":79,"Velocity":44,"Duration":91102,"SoundDuration":91102,"Delta":456032531},{"NoteNumber":89,"Velocity":55,"Duration":92507,"SoundDuration":92507,"Delta":456123633},{"NoteNumber":67,"Velocity":50,"Duration":185042,"SoundDuration":185042,"Delta":456123633},{"NoteNumber":79,"Velocity":49,"Duration":92535,"SoundDuration":92535,"Delta":456216140},{"NoteNumber":89,"Velocity":57,"Duration":96369,"SoundDuration":96369,"Delta":456308676},{"NoteNumber":59,"Velocity":45,"Duration":192630,"SoundDuration":192630,"Delta":456308676},{"NoteNumber":79,"Velocity":49,"Duration":96260,"SoundDuration":96260,"Delta":456405046},{"NoteNumber":88,"Velocity":62,"Duration":367798,"SoundDuration":367798,"Delta":456501306},{"NoteNumber":60,"Velocity":42,"Duration":91836,"SoundDuration":91836,"Delta":456501306},{"NoteNumber":67,"Velocity":33,"Duration":91764,"SoundDuration":91764,"Delta":456593143},{"NoteNumber":64,"Velocity":36,"Duration":91975,"SoundDuration":91975,"Delta":456684907},{"NoteNumber":67,"Velocity":33,"Duration":92222,"SoundDuration":92222,"Delta":456776883},{"NoteNumber":87,"Velocity":60,"Duration":370924,"SoundDuration":370924,"Delta":456869105},{"NoteNumber":57,"Velocity":38,"Duration":92400,"SoundDuration":92400,"Delta":456869105},{"NoteNumber":66,"Velocity":33,"Duration":92614,"SoundDuration":92614,"Delta":456961505},{"NoteNumber":60,"Velocity":36,"Duration":92828,"SoundDuration":92828,"Delta":457054120},{"NoteNumber":66,"Velocity":33,"Duration":93080,"SoundDuration":93080,"Delta":457146949},{"NoteNumber":86,"Velocity":57,"Duration":374396,"SoundDuration":374396,"Delta":457240030},{"NoteNumber":58,"Velocity":39,"Duration":93262,"SoundDuration":93262,"Delta":457240030},{"NoteNumber":65,"Velocity":33,"Duration":93480,"SoundDuration":93480,"Delta":457333292},{"NoteNumber":62,"Velocity":37,"Duration":93698,"SoundDuration":93698,"Delta":457426772},{"NoteNumber":65,"Velocity":37,"Duration":93955,"SoundDuration":93955,"Delta":457520471},{"NoteNumber":86,"Velocity":60,"Duration":102072,"SoundDuration":102072,"Delta":457614426},{"NoteNumber":51,"Velocity":31,"Duration":378278,"SoundDuration":378278,"Delta":457614426},{"NoteNumber":63,"Velocity":37,"Duration":378278,"SoundDuration":378278,"Delta":457614426},{"NoteNumber":84,"Velocity":52,"Duration":102072,"SoundDuration":102072,"Delta":457707219},{"NoteNumber":87,"Velocity":52,"Duration":102782,"SoundDuration":102782,"Delta":457800012},{"NoteNumber":84,"Velocity":52,"Duration":74925,"SoundDuration":74925,"Delta":457892805},{"NoteNumber":84,"Velocity":62,"Duration":102072,"SoundDuration":102072,"Delta":457992705},{"NoteNumber":53,"Velocity":31,"Duration":371172,"SoundDuration":371172,"Delta":457992705},{"NoteNumber":62,"Velocity":37,"Duration":371172,"SoundDuration":371172,"Delta":457992705},{"NoteNumber":82,"Velocity":52,"Duration":102072,"SoundDuration":102072,"Delta":458085498},{"NoteNumber":86,"Velocity":52,"Duration":102072,"SoundDuration":102072,"Delta":458178291},{"NoteNumber":82,"Velocity":52,"Duration":69594,"SoundDuration":69594,"Delta":458271084},{"NoteNumber":82,"Velocity":62,"Duration":102072,"SoundDuration":102072,"Delta":458363877},{"NoteNumber":51,"Velocity":31,"Duration":380834,"SoundDuration":380834,"Delta":458363877},{"NoteNumber":60,"Velocity":37,"Duration":380834,"SoundDuration":380834,"Delta":458363877},{"NoteNumber":81,"Velocity":52,"Duration":102555,"SoundDuration":102555,"Delta":458456670},{"NoteNumber":84,"Velocity":52,"Duration":107386,"SoundDuration":107386,"Delta":458549463},{"NoteNumber":81,"Velocity":52,"Duration":97624,"SoundDuration":97624,"Delta":458647088},{"NoteNumber":82,"Velocity":54,"Duration":94846,"SoundDuration":94846,"Delta":458744712},{"NoteNumber":50,"Velocity":34,"Duration":374707,"SoundDuration":374707,"Delta":458744712},{"NoteNumber":58,"Velocity":40,"Duration":374707,"SoundDuration":374707,"Delta":458744712},{"NoteNumber":86,"Velocity":57,"Duration":94846,"SoundDuration":94846,"Delta":458839559},{"NoteNumber":89,"Velocity":58,"Duration":92507,"SoundDuration":92507,"Delta":458934406},{"NoteNumber":87,"Velocity":60,"Duration":92507,"SoundDuration":92507,"Delta":459026913},{"NoteNumber":86,"Velocity":58,"Duration":92506,"SoundDuration":92506,"Delta":459119420},{"NoteNumber":84,"Velocity":56,"Duration":92507,"SoundDuration":92507,"Delta":459211927},{"NoteNumber":82,"Velocity":54,"Duration":92507,"SoundDuration":92507,"Delta":459304434},{"NoteNumber":81,"Velocity":52,"Duration":97943,"SoundDuration":97943,"Delta":459396941},{"NoteNumber":79,"Velocity":55,"Duration":92507,"SoundDuration":92507,"Delta":459494884},{"NoteNumber":65,"Velocity":37,"Duration":376107,"SoundDuration":376107,"Delta":459494884},{"NoteNumber":62,"Velocity":31,"Duration":376107,"SoundDuration":376107,"Delta":459494884},{"NoteNumber":77,"Velocity":51,"Duration":92507,"SoundDuration":92507,"Delta":459587391},{"NoteNumber":75,"Velocity":50,"Duration":92506,"SoundDuration":92506,"Delta":459679898},{"NoteNumber":74,"Velocity":50,"Duration":98587,"SoundDuration":98587,"Delta":459772405},{"NoteNumber":72,"Velocity":50,"Duration":94547,"SoundDuration":94547,"Delta":459870992},{"NoteNumber":63,"Velocity":37,"Duration":374109,"SoundDuration":374109,"Delta":459870992},{"NoteNumber":67,"Velocity":44,"Duration":374109,"SoundDuration":374109,"Delta":459870992},{"NoteNumber":75,"Velocity":53,"Duration":94547,"SoundDuration":94547,"Delta":459965540},{"NoteNumber":79,"Velocity":56,"Duration":92507,"SoundDuration":92507,"Delta":460060088},{"NoteNumber":77,"Velocity":55,"Duration":92507,"SoundDuration":92507,"Delta":460152595},{"NoteNumber":75,"Velocity":54,"Duration":92506,"SoundDuration":92506,"Delta":460245102},{"NoteNumber":74,"Velocity":53,"Duration":92507,"SoundDuration":92507,"Delta":460337609},{"NoteNumber":72,"Velocity":52,"Duration":92507,"SoundDuration":92507,"Delta":460430116},{"NoteNumber":70,"Velocity":50,"Duration":92507,"SoundDuration":92507,"Delta":460522623},{"NoteNumber":69,"Velocity":49,"Duration":92507,"SoundDuration":92507,"Delta":460615130},{"NoteNumber":55,"Velocity":31,"Duration":374965,"SoundDuration":374965,"Delta":460615130},{"NoteNumber":58,"Velocity":31,"Duration":374965,"SoundDuration":374965,"Delta":460615130},{"NoteNumber":60,"Velocity":37,"Duration":374965,"SoundDuration":374965,"Delta":460615130},{"NoteNumber":67,"Velocity":50,"Duration":92506,"SoundDuration":92506,"Delta":460707637},{"NoteNumber":65,"Velocity":53,"Duration":92507,"SoundDuration":92507,"Delta":460800144},{"NoteNumber":64,"Velocity":56,"Duration":97444,"SoundDuration":97444,"Delta":460892651},{"NoteNumber":65,"Velocity":59,"Duration":93955,"SoundDuration":93955,"Delta":460990095},{"NoteNumber":53,"Velocity":45,"Duration":93955,"SoundDuration":93955,"Delta":460990095},{"NoteNumber":62,"Velocity":37,"Duration":93698,"SoundDuration":93698,"Delta":461084051},{"NoteNumber":70,"Velocity":59,"Duration":93480,"SoundDuration":93480,"Delta":461177750},{"NoteNumber":58,"Velocity":40,"Duration":93480,"SoundDuration":93480,"Delta":461177750},{"NoteNumber":62,"Velocity":37,"Duration":93189,"SoundDuration":93189,"Delta":461271230},{"NoteNumber":74,"Velocity":61,"Duration":92972,"SoundDuration":92972,"Delta":461364419},{"NoteNumber":53,"Velocity":45,"Duration":92972,"SoundDuration":92972,"Delta":461364419},{"NoteNumber":62,"Velocity":37,"Duration":92685,"SoundDuration":92685,"Delta":461457392},{"NoteNumber":77,"Velocity":62,"Duration":92507,"SoundDuration":92507,"Delta":461550078},{"NoteNumber":58,"Velocity":40,"Duration":92507,"SoundDuration":92507,"Delta":461550078},{"NoteNumber":62,"Velocity":37,"Duration":92507,"SoundDuration":92507,"Delta":461642585},{"NoteNumber":82,"Velocity":64,"Duration":92506,"SoundDuration":92506,"Delta":461735092},{"NoteNumber":53,"Velocity":48,"Duration":92506,"SoundDuration":92506,"Delta":461735092},{"NoteNumber":62,"Velocity":37,"Duration":92507,"SoundDuration":92507,"Delta":461827599},{"NoteNumber":86,"Velocity":65,"Duration":92507,"SoundDuration":92507,"Delta":461920106},{"NoteNumber":58,"Velocity":41,"Duration":92507,"SoundDuration":92507,"Delta":461920106},{"NoteNumber":62,"Velocity":37,"Duration":110520,"SoundDuration":110520,"Delta":462012613},{"NoteNumber":72,"Velocity":37,"Duration":48971,"SoundDuration":48971,"Delta":462123134},{"NoteNumber":53,"Velocity":45,"Duration":97823,"SoundDuration":97823,"Delta":462123134},{"NoteNumber":74,"Velocity":31,"Duration":48852,"SoundDuration":48852,"Delta":462172106},{"NoteNumber":72,"Velocity":37,"Duration":48772,"SoundDuration":48772,"Delta":462220958},{"NoteNumber":63,"Velocity":37,"Duration":97387,"SoundDuration":97387,"Delta":462220958},{"NoteNumber":74,"Velocity":31,"Duration":48614,"SoundDuration":48614,"Delta":462269730},{"NoteNumber":72,"Velocity":37,"Duration":48496,"SoundDuration":48496,"Delta":462318345},{"NoteNumber":57,"Velocity":40,"Duration":96876,"SoundDuration":96876,"Delta":462318345},{"NoteNumber":74,"Velocity":32,"Duration":48379,"SoundDuration":48379,"Delta":462366841},{"NoteNumber":72,"Velocity":37,"Duration":48301,"SoundDuration":48301,"Delta":462415221},{"NoteNumber":63,"Velocity":37,"Duration":96447,"SoundDuration":96447,"Delta":462415221},{"NoteNumber":74,"Velocity":33,"Duration":48146,"SoundDuration":48146,"Delta":462463522},{"NoteNumber":72,"Velocity":37,"Duration":48030,"SoundDuration":48030,"Delta":462511669},{"NoteNumber":53,"Velocity":45,"Duration":95946,"SoundDuration":95946,"Delta":462511669},{"NoteNumber":74,"Velocity":32,"Duration":47915,"SoundDuration":47915,"Delta":462559700},{"NoteNumber":72,"Velocity":37,"Duration":47839,"SoundDuration":47839,"Delta":462607615},{"NoteNumber":63,"Velocity":37,"Duration":95526,"SoundDuration":95526,"Delta":462607615},{"NoteNumber":74,"Velocity":32,"Duration":47687,"SoundDuration":47687,"Delta":462655455},{"NoteNumber":72,"Velocity":37,"Duration":47573,"SoundDuration":47573,"Delta":462703142},{"NoteNumber":57,"Velocity":40,"Duration":95034,"SoundDuration":95034,"Delta":462703142},{"NoteNumber":74,"Velocity":31,"Duration":47460,"SoundDuration":47460,"Delta":462750716},{"NoteNumber":72,"Velocity":37,"Duration":47385,"SoundDuration":47385,"Delta":462798177},{"NoteNumber":63,"Velocity":37,"Duration":94622,"SoundDuration":94622,"Delta":462798177},{"NoteNumber":74,"Velocity":33,"Duration":47236,"SoundDuration":47236,"Delta":462845563},{"NoteNumber":72,"Velocity":37,"Duration":47162,"SoundDuration":47162,"Delta":462892799},{"NoteNumber":53,"Velocity":48,"Duration":94473,"SoundDuration":94473,"Delta":462892799},{"NoteNumber":74,"Velocity":32,"Duration":47311,"SoundDuration":47311,"Delta":462939962},{"NoteNumber":72,"Velocity":37,"Duration":63331,"SoundDuration":63331,"Delta":462987273},{"NoteNumber":63,"Velocity":37,"Duration":95148,"SoundDuration":95148,"Delta":462987273},{"NoteNumber":74,"Velocity":32,"Duration":63696,"SoundDuration":63696,"Delta":463050605},{"NoteNumber":57,"Velocity":41,"Duration":95870,"SoundDuration":95870,"Delta":463082421},{"NoteNumber":72,"Velocity":37,"Duration":63990,"SoundDuration":63990,"Delta":463114302},{"NoteNumber":70,"Velocity":33,"Duration":48223,"SoundDuration":48223,"Delta":463178292},{"NoteNumber":63,"Velocity":37,"Duration":96603,"SoundDuration":96603,"Delta":463178292},{"NoteNumber":72,"Velocity":33,"Duration":48379,"SoundDuration":48379,"Delta":463226516},{"NoteNumber":70,"Velocity":49,"Duration":429213,"SoundDuration":429213,"Delta":463274895},{"NoteNumber":58,"Velocity":41,"Duration":238768,"SoundDuration":238768,"Delta":463274895},{"NoteNumber":62,"Velocity":28,"Duration":210167,"SoundDuration":210167,"Delta":463503640},{"NoteNumber":65,"Velocity":35,"Duration":207687,"SoundDuration":207687,"Delta":463704108},{"NoteNumber":70,"Velocity":34,"Duration":205054,"SoundDuration":205054,"Delta":463901963},{"NoteNumber":69,"Velocity":32,"Duration":202659,"SoundDuration":202659,"Delta":464097344},{"NoteNumber":68,"Velocity":30,"Duration":210746,"SoundDuration":210746,"Delta":464289946},{"NoteNumber":75,"Velocity":46,"Duration":384246,"SoundDuration":384246,"Delta":464491086},{"NoteNumber":67,"Velocity":28,"Duration":192122,"SoundDuration":192122,"Delta":464491086},{"NoteNumber":70,"Velocity":21,"Duration":192123,"SoundDuration":192123,"Delta":464683209},{"NoteNumber":77,"Velocity":50,"Duration":384246,"SoundDuration":384246,"Delta":464875332},{"NoteNumber":65,"Velocity":31,"Duration":192122,"SoundDuration":192122,"Delta":464875332},{"NoteNumber":70,"Velocity":24,"Duration":192123,"SoundDuration":192123,"Delta":465067455},{"NoteNumber":79,"Velocity":51,"Duration":391773,"SoundDuration":391773,"Delta":465259578},{"NoteNumber":63,"Velocity":31,"Duration":195886,"SoundDuration":195886,"Delta":465259578},{"NoteNumber":70,"Velocity":25,"Duration":195886,"SoundDuration":195886,"Delta":465455465},{"NoteNumber":77,"Velocity":51,"Duration":578219,"SoundDuration":578219,"Delta":465651351},{"NoteNumber":62,"Velocity":31,"Duration":192740,"SoundDuration":192740,"Delta":465651351},{"NoteNumber":70,"Velocity":28,"Duration":192739,"SoundDuration":192739,"Delta":465844091},{"NoteNumber":69,"Velocity":31,"Duration":192740,"SoundDuration":192740,"Delta":466036831},{"NoteNumber":79,"Velocity":48,"Duration":106007,"SoundDuration":106007,"Delta":466229571},{"NoteNumber":70,"Velocity":28,"Duration":192740,"SoundDuration":192740,"Delta":466229571},{"NoteNumber":77,"Velocity":43,"Duration":106006,"SoundDuration":106006,"Delta":466325941},{"NoteNumber":75,"Velocity":50,"Duration":106006,"SoundDuration":106006,"Delta":466422311},{"NoteNumber":55,"Velocity":31,"Duration":192740,"SoundDuration":192740,"Delta":466422311},{"NoteNumber":74,"Velocity":48,"Duration":106326,"SoundDuration":106326,"Delta":466518681},{"NoteNumber":72,"Velocity":47,"Duration":109525,"SoundDuration":109525,"Delta":466615051},{"NoteNumber":63,"Velocity":27,"Duration":199137,"SoundDuration":199137,"Delta":466615051},{"NoteNumber":70,"Velocity":45,"Duration":99568,"SoundDuration":99568,"Delta":466714620},{"NoteNumber":74,"Velocity":48,"Duration":578219,"SoundDuration":578219,"Delta":466814188},{"NoteNumber":53,"Velocity":31,"Duration":192740,"SoundDuration":192740,"Delta":466814188},{"NoteNumber":62,"Velocity":27,"Duration":192739,"SoundDuration":192739,"Delta":467006928},{"NoteNumber":58,"Velocity":31,"Duration":192740,"SoundDuration":192740,"Delta":467199668},{"NoteNumber":75,"Velocity":40,"Duration":192740,"SoundDuration":192740,"Delta":467392408},{"NoteNumber":62,"Velocity":29,"Duration":192740,"SoundDuration":192740,"Delta":467392408},{"NoteNumber":72,"Velocity":44,"Duration":392539,"SoundDuration":392539,"Delta":467585148},{"NoteNumber":53,"Velocity":31,"Duration":192740,"SoundDuration":192740,"Delta":467585148},{"NoteNumber":63,"Velocity":27,"Duration":199799,"SoundDuration":199799,"Delta":467777888},{"NoteNumber":70,"Velocity":46,"Duration":389947,"SoundDuration":389947,"Delta":467977688},{"NoteNumber":62,"Velocity":31,"Duration":197824,"SoundDuration":197824,"Delta":467977688},{"NoteNumber":58,"Velocity":24,"Duration":192122,"SoundDuration":192122,"Delta":468175512},{"NoteNumber":57,"Velocity":30,"Duration":192123,"SoundDuration":192123,"Delta":468367635},{"NoteNumber":56,"Velocity":26,"Duration":192122,"SoundDuration":192122,"Delta":468559758},{"NoteNumber":55,"Velocity":29,"Duration":192122,"SoundDuration":192122,"Delta":468751881},{"NoteNumber":54,"Velocity":31,"Duration":197824,"SoundDuration":197824,"Delta":468944004},{"NoteNumber":63,"Velocity":52,"Duration":194615,"SoundDuration":194615,"Delta":469141828},{"NoteNumber":55,"Velocity":28,"Duration":194615,"SoundDuration":194615,"Delta":469141828},{"NoteNumber":75,"Velocity":47,"Duration":192122,"SoundDuration":192122,"Delta":469336444},{"NoteNumber":58,"Velocity":27,"Duration":192122,"SoundDuration":192122,"Delta":469336444},{"NoteNumber":65,"Velocity":54,"Duration":192122,"SoundDuration":192122,"Delta":469528567},{"NoteNumber":53,"Velocity":38,"Duration":192122,"SoundDuration":192122,"Delta":469528567},{"NoteNumber":77,"Velocity":47,"Duration":192123,"SoundDuration":192123,"Delta":469720690},{"NoteNumber":57,"Velocity":32,"Duration":192123,"SoundDuration":192123,"Delta":469720690},{"NoteNumber":67,"Velocity":58,"Duration":192122,"SoundDuration":192122,"Delta":469912813},{"NoteNumber":52,"Velocity":40,"Duration":192122,"SoundDuration":192122,"Delta":469912813},{"NoteNumber":79,"Velocity":52,"Duration":196528,"SoundDuration":196528,"Delta":470104936},{"NoteNumber":61,"Velocity":34,"Duration":196528,"SoundDuration":196528,"Delta":470104936},{"NoteNumber":77,"Velocity":61,"Duration":192740,"SoundDuration":192740,"Delta":470301464},{"NoteNumber":53,"Velocity":41,"Duration":192740,"SoundDuration":192740,"Delta":470301464},{"NoteNumber":79,"Velocity":54,"Duration":96369,"SoundDuration":96369,"Delta":470494204},{"NoteNumber":62,"Velocity":35,"Duration":192739,"SoundDuration":192739,"Delta":470494204},{"NoteNumber":81,"Velocity":58,"Duration":96369,"SoundDuration":96369,"Delta":470590574},{"NoteNumber":82,"Velocity":61,"Duration":96370,"SoundDuration":96370,"Delta":470686944},{"NoteNumber":58,"Velocity":38,"Duration":192740,"SoundDuration":192740,"Delta":470686944},{"NoteNumber":81,"Velocity":61,"Duration":96369,"SoundDuration":96369,"Delta":470783314},{"NoteNumber":79,"Velocity":60,"Duration":96370,"SoundDuration":96370,"Delta":470879684},{"NoteNumber":62,"Velocity":33,"Duration":192740,"SoundDuration":192740,"Delta":470879684},{"NoteNumber":77,"Velocity":58,"Duration":96369,"SoundDuration":96369,"Delta":470976054},{"NoteNumber":75,"Velocity":57,"Duration":96369,"SoundDuration":96369,"Delta":471072424},{"NoteNumber":53,"Velocity":40,"Duration":192740,"SoundDuration":192740,"Delta":471072424},{"NoteNumber":74,"Velocity":55,"Duration":96370,"SoundDuration":96370,"Delta":471168794},{"NoteNumber":72,"Velocity":54,"Duration":99568,"SoundDuration":99568,"Delta":471265164},{"NoteNumber":62,"Velocity":35,"Duration":199137,"SoundDuration":199137,"Delta":471265164},{"NoteNumber":70,"Velocity":52,"Duration":99568,"SoundDuration":99568,"Delta":471364732},{"NoteNumber":74,"Velocity":62,"Duration":578219,"SoundDuration":578219,"Delta":471464301},{"NoteNumber":53,"Velocity":41,"Duration":192740,"SoundDuration":192740,"Delta":471464301},{"NoteNumber":65,"Velocity":33,"Duration":192739,"SoundDuration":192739,"Delta":471657041},{"NoteNumber":62,"Velocity":43,"Duration":192740,"SoundDuration":192740,"Delta":471849781},{"NoteNumber":75,"Velocity":56,"Duration":192740,"SoundDuration":192740,"Delta":472042521},{"NoteNumber":65,"Velocity":33,"Duration":192740,"SoundDuration":192740,"Delta":472042521},{"NoteNumber":72,"Velocity":62,"Duration":392539,"SoundDuration":392539,"Delta":472235261},{"NoteNumber":53,"Velocity":45,"Duration":192740,"SoundDuration":192740,"Delta":472235261},{"NoteNumber":63,"Velocity":38,"Duration":199799,"SoundDuration":199799,"Delta":472428001},{"NoteNumber":70,"Velocity":67,"Duration":389947,"SoundDuration":389947,"Delta":472627801},{"NoteNumber":58,"Velocity":54,"Duration":98912,"SoundDuration":98912,"Delta":472726713},{"NoteNumber":62,"Velocity":56,"Duration":96061,"SoundDuration":96061,"Delta":472825625},{"NoteNumber":65,"Velocity":59,"Duration":96061,"SoundDuration":96061,"Delta":472921686},{"NoteNumber":70,"Velocity":61,"Duration":192123,"SoundDuration":192123,"Delta":473017748},{"NoteNumber":77,"Velocity":60,"Duration":96061,"SoundDuration":96061,"Delta":473113809},{"NoteNumber":79,"Velocity":65,"Duration":96061,"SoundDuration":96061,"Delta":473209871},{"NoteNumber":77,"Velocity":60,"Duration":96061,"SoundDuration":96061,"Delta":473305932},{"NoteNumber":75,"Velocity":64,"Duration":96061,"SoundDuration":96061,"Delta":473401994},{"NoteNumber":53,"Velocity":54,"Duration":192122,"SoundDuration":192122,"Delta":473401994},{"NoteNumber":57,"Velocity":54,"Duration":192122,"SoundDuration":192122,"Delta":473401994},{"NoteNumber":74,"Velocity":62,"Duration":96061,"SoundDuration":96061,"Delta":473498055},{"NoteNumber":75,"Velocity":60,"Duration":111815,"SoundDuration":111815,"Delta":473594117},{"NoteNumber":72,"Velocity":58,"Duration":111815,"SoundDuration":111815,"Delta":473705932},{"NoteNumber":70,"Velocity":68,"Duration":394998,"SoundDuration":394998,"Delta":473817747},{"NoteNumber":46,"Velocity":54,"Duration":98912,"SoundDuration":98912,"Delta":473916659},{"NoteNumber":50,"Velocity":56,"Duration":98587,"SoundDuration":98587,"Delta":474015571},{"NoteNumber":53,"Velocity":59,"Duration":98587,"SoundDuration":98587,"Delta":474114158},{"NoteNumber":58,"Velocity":61,"Duration":195248,"SoundDuration":195248,"Delta":474212745},{"NoteNumber":65,"Velocity":60,"Duration":97624,"SoundDuration":97624,"Delta":474310370},{"NoteNumber":67,"Velocity":65,"Duration":97624,"SoundDuration":97624,"Delta":474407994},{"NoteNumber":65,"Velocity":60,"Duration":97624,"SoundDuration":97624,"Delta":474505619},{"NoteNumber":63,"Velocity":64,"Duration":107104,"SoundDuration":107104,"Delta":474603243},{"NoteNumber":45,"Velocity":54,"Duration":214208,"SoundDuration":214208,"Delta":474603243},{"NoteNumber":41,"Velocity":54,"Duration":214208,"SoundDuration":214208,"Delta":474603243},{"NoteNumber":62,"Velocity":62,"Duration":107104,"SoundDuration":107104,"Delta":474710348},{"NoteNumber":63,"Velocity":60,"Duration":120919,"SoundDuration":120919,"Delta":474817452},{"NoteNumber":60,"Velocity":58,"Duration":120918,"SoundDuration":120918,"Delta":474938371},{"NoteNumber":58,"Velocity":71,"Duration":176396,"SoundDuration":176396,"Delta":475059290},{"NoteNumber":46,"Velocity":59,"Duration":176396,"SoundDuration":176396,"Delta":475059290},{"NoteNumber":74,"Velocity":59,"Duration":503989,"SoundDuration":503989,"Delta":475563280},{"NoteNumber":77,"Velocity":59,"Duration":503989,"SoundDuration":503989,"Delta":475563280},{"NoteNumber":82,"Velocity":77,"Duration":503989,"SoundDuration":503989,"Delta":475563280},{"NoteNumber":34,"Velocity":59,"Duration":503989,"SoundDuration":503989,"Delta":475563280}],"license":{"name":"Creative Commons Attribution-ShareAlike 3.0 Germany","url":"http://creativecommons.org/licenses/by-sa/3.0/de/deed.en","text":"The MIDI, audio (MP3, OGG) and video files of Bernd Krueger are licensed under the cc-by-sa Germany License. This means that you can use and adapt the files, as long as you attribute the copyright holder.\n\nName: Bernd Krueger\nSource: http://www.piano-midi.de\n\nThe distribution or public playback of the files is only allowed under identical license conditions.\n\nThe scores are open source.","attribution":"MIDI files by Bernd Krueger (piano-midi.de)","attributionUrl":"http://www.piano-midi.de"}}