{"title":"Klaviersonate KV 545 2. Satz","artist":"Mozart","durationMs":344272,"midiSha256":"efe7cef42dde2bed72dc0025053165dbb0c0ae4109a60d51aa3b911d26b54c89","midiObject":[{"NoteNumber":71,"Velocity":50,"Duration":2184598,"SoundDuration":2184598,"Delta":0},{"NoteNumber":55,"Velocity":40,"Duration":273074,"SoundDuration":273074,"Delta":0},{"NoteNumber":62,"Velocity":22,"Duration":273074,"SoundDuration":273074,"Delta":273074},{"NoteNumber":59,"Velocity":25,"Duration":273074,"SoundDuration":273074,"Delta":546149},{"NoteNumber":62,"Velocity":24,"Duration":273074,"SoundDuration":273074,"Delta":819224},{"NoteNumber":55,"Velocity":40,"Duration":273074,"SoundDuration":273074,"Delta":1092299},{"NoteNumber":62,"Velocity":29,"Duration":273074,"SoundDuration":273074,"Delta":1365373},{"NoteNumber":59,"Velocity":35,"Duration":273074,"SoundDuration":273074,"Delta":1638448},{"NoteNumber":62,"Velocity":30,"Duration":273074,"SoundDuration":273074,"Delta":1911523},{"NoteNumber":74,"Velocity":50,"Duration":327689,"SoundDuration":327689,"Delta":2184598},{"NoteNumber":57,"Velocity":40,"Duration":273074,"SoundDuration":273074,"Delta":2184598},{"NoteNumber":72,"Velocity":46,"Duration":327689,"SoundDuration":327689,"Delta":2457672},{"NoteNumber":62,"Velocity":32,"Duration":273074,"SoundDuration":273074,"Delta":2457672},{"NoteNumber":71,"Velocity":46,"Duration":334386,"SoundDuration":334386,"Delta":2730747},{"NoteNumber":60,"Velocity":40,"Duration":273074,"SoundDuration":273074,"Delta":2730747},{"NoteNumber":72,"Velocity":48,"Duration":360682,"SoundDuration":360682,"Delta":3003822},{"NoteNumber":62,"Velocity":35,"Duration":306560,"SoundDuration":306560,"Delta":3003822},{"NoteNumber":74,"Velocity":54,"Duration":811834,"SoundDuration":811834,"Delta":3310382},{"NoteNumber":55,"Velocity":43,"Duration":270611,"SoundDuration":270611,"Delta":3310382},{"NoteNumber":62,"Velocity":28,"Duration":270611,"SoundDuration":270611,"Delta":3580994},{"NoteNumber":59,"Velocity":32,"Duration":270611,"SoundDuration":270611,"Delta":3851605},{"NoteNumber":71,"Velocity":47,"Duration":283393,"SoundDuration":283393,"Delta":4122217},{"NoteNumber":62,"Velocity":28,"Duration":283393,"SoundDuration":283393,"Delta":4122217},{"NoteNumber":67,"Velocity":47,"Duration":1082446,"SoundDuration":1082446,"Delta":4405610},{"NoteNumber":55,"Velocity":40,"Duration":270611,"SoundDuration":270611,"Delta":4405610},{"NoteNumber":62,"Velocity":29,"Duration":270611,"SoundDuration":270611,"Delta":4676222},{"NoteNumber":59,"Velocity":39,"Duration":270611,"SoundDuration":270611,"Delta":4946833},{"NoteNumber":62,"Velocity":36,"Duration":270611,"SoundDuration":270611,"Delta":5217445},{"NoteNumber":55,"Velocity":48,"Duration":270611,"SoundDuration":270611,"Delta":5488056},{"NoteNumber":62,"Velocity":38,"Duration":270611,"SoundDuration":270611,"Delta":5758668},{"NoteNumber":59,"Velocity":48,"Duration":270611,"SoundDuration":270611,"Delta":6029279},{"NoteNumber":62,"Velocity":45,"Duration":297442,"SoundDuration":297442,"Delta":6299891},{"NoteNumber":79,"Velocity":67,"Duration":1639153,"SoundDuration":1639153,"Delta":6597333},{"NoteNumber":55,"Velocity":53,"Duration":270611,"SoundDuration":270611,"Delta":6597333},{"NoteNumber":64,"Velocity":37,"Duration":270611,"SoundDuration":270611,"Delta":6867944},{"NoteNumber":60,"Velocity":47,"Duration":270611,"SoundDuration":270611,"Delta":7138555},{"NoteNumber":64,"Velocity":41,"Duration":270611,"SoundDuration":270611,"Delta":7409167},{"NoteNumber":55,"Velocity":44,"Duration":270611,"SoundDuration":270611,"Delta":7679779},{"NoteNumber":64,"Velocity":34,"Duration":286095,"SoundDuration":286095,"Delta":7950390},{"NoteNumber":81,"Velocity":62,"Duration":270611,"SoundDuration":270611,"Delta":8236486},{"NoteNumber":60,"Velocity":39,"Duration":270611,"SoundDuration":270611,"Delta":8236486},{"NoteNumber":79,"Velocity":55,"Duration":270611,"SoundDuration":270611,"Delta":8507097},{"NoteNumber":64,"Velocity":34,"Duration":270611,"SoundDuration":270611,"Delta":8507097},{"NoteNumber":78,"Velocity":57,"Duration":324733,"SoundDuration":324733,"Delta":8777709},{"NoteNumber":55,"Velocity":40,"Duration":270611,"SoundDuration":270611,"Delta":8777709},{"NoteNumber":76,"Velocity":46,"Duration":324733,"SoundDuration":324733,"Delta":9048320},{"NoteNumber":61,"Velocity":26,"Duration":270611,"SoundDuration":270611,"Delta":9048320},{"NoteNumber":74,"Velocity":51,"Duration":328381,"SoundDuration":328381,"Delta":9318932},{"NoteNumber":58,"Velocity":34,"Duration":270611,"SoundDuration":270611,"Delta":9318932},{"NoteNumber":73,"Velocity":46,"Duration":342972,"SoundDuration":342972,"Delta":9589543},{"NoteNumber":61,"Velocity":27,"Duration":288850,"SoundDuration":288850,"Delta":9589543},{"NoteNumber":74,"Velocity":53,"Duration":811834,"SoundDuration":811834,"Delta":9878394},{"NoteNumber":55,"Velocity":40,"Duration":270611,"SoundDuration":270611,"Delta":9878394},{"NoteNumber":62,"Velocity":26,"Duration":270611,"SoundDuration":270611,"Delta":10149005},{"NoteNumber":59,"Velocity":31,"Duration":270611,"SoundDuration":270611,"Delta":10419617},{"NoteNumber":71,"Velocity":47,"Duration":283393,"SoundDuration":283393,"Delta":10690228},{"NoteNumber":62,"Velocity":27,"Duration":283393,"SoundDuration":283393,"Delta":10690228},{"NoteNumber":67,"Velocity":45,"Duration":1082445,"SoundDuration":1082445,"Delta":10973622},{"NoteNumber":55,"Velocity":40,"Duration":270611,"SoundDuration":270611,"Delta":10973622},{"NoteNumber":62,"Velocity":26,"Duration":270611,"SoundDuration":270611,"Delta":11244233},{"NoteNumber":59,"Velocity":30,"Duration":270611,"SoundDuration":270611,"Delta":11514845},{"NoteNumber":62,"Velocity":27,"Duration":270611,"SoundDuration":270611,"Delta":11785456},{"NoteNumber":55,"Velocity":41,"Duration":268192,"SoundDuration":268192,"Delta":12056068},{"NoteNumber":62,"Velocity":25,"Duration":268192,"SoundDuration":268192,"Delta":12324260},{"NoteNumber":59,"Velocity":30,"Duration":268192,"SoundDuration":268192,"Delta":12592452},{"NoteNumber":62,"Velocity":25,"Duration":268192,"SoundDuration":268192,"Delta":12860645},{"NoteNumber":72,"Velocity":50,"Duration":814341,"SoundDuration":814341,"Delta":13128838},{"NoteNumber":57,"Velocity":40,"Duration":273074,"SoundDuration":273074,"Delta":13128838},{"NoteNumber":62,"Velocity":27,"Duration":273074,"SoundDuration":273074,"Delta":13401912},{"NoteNumber":60,"Velocity":32,"Duration":268192,"SoundDuration":268192,"Delta":13674987},{"NoteNumber":69,"Velocity":47,"Duration":268192,"SoundDuration":268192,"Delta":13943180},{"NoteNumber":62,"Velocity":27,"Duration":268192,"SoundDuration":268192,"Delta":13943180},{"NoteNumber":66,"Velocity":52,"Duration":261187,"SoundDuration":261187,"Delta":14211372},{"NoteNumber":57,"Velocity":40,"Duration":261187,"SoundDuration":261187,"Delta":14211372},{"NoteNumber":62,"Velocity":30,"Duration":261187,"SoundDuration":261187,"Delta":14472560},{"NoteNumber":69,"Velocity":47,"Duration":261187,"SoundDuration":261187,"Delta":14733747},{"NoteNumber":60,"Velocity":33,"Duration":261187,"SoundDuration":261187,"Delta":14733747},{"NoteNumber":62,"Velocity":28,"Duration":261187,"SoundDuration":261187,"Delta":14994935},{"NoteNumber":71,"Velocity":51,"Duration":265815,"SoundDuration":265815,"Delta":15256122},{"NoteNumber":57,"Velocity":44,"Duration":265815,"SoundDuration":265815,"Delta":15256122},{"NoteNumber":62,"Velocity":33,"Duration":270611,"SoundDuration":270611,"Delta":15521938},{"NoteNumber":72,"Velocity":52,"Duration":270611,"SoundDuration":270611,"Delta":15792549},{"NoteNumber":60,"Velocity":40,"Duration":270611,"SoundDuration":270611,"Delta":15792549},{"NoteNumber":62,"Velocity":33,"Duration":291658,"SoundDuration":291658,"Delta":16063161},{"NoteNumber":74,"Velocity":57,"Duration":811834,"SoundDuration":811834,"Delta":16354820},{"NoteNumber":55,"Velocity":46,"Duration":270611,"SoundDuration":270611,"Delta":16354820},{"NoteNumber":62,"Velocity":33,"Duration":270611,"SoundDuration":270611,"Delta":16625431},{"NoteNumber":59,"Velocity":40,"Duration":270611,"SoundDuration":270611,"Delta":16896043},{"NoteNumber":71,"Velocity":61,"Duration":270611,"SoundDuration":270611,"Delta":17166654},{"NoteNumber":62,"Velocity":37,"Duration":270611,"SoundDuration":270611,"Delta":17166654},{"NoteNumber":79,"Velocity":65,"Duration":1063264,"SoundDuration":1063264,"Delta":17437266},{"NoteNumber":52,"Velocity":46,"Duration":265816,"SoundDuration":265816,"Delta":17437266},{"NoteNumber":59,"Velocity":38,"Duration":265815,"SoundDuration":265815,"Delta":17703082},{"NoteNumber":55,"Velocity":42,"Duration":265816,"SoundDuration":265816,"Delta":17968898},{"NoteNumber":59,"Velocity":38,"Duration":265816,"SoundDuration":265816,"Delta":18234714},{"NoteNumber":47,"Velocity":53,"Duration":265816,"SoundDuration":265816,"Delta":18500530},{"NoteNumber":55,"Velocity":44,"Duration":270611,"SoundDuration":270611,"Delta":18766346},{"NoteNumber":50,"Velocity":48,"Duration":270611,"SoundDuration":270611,"Delta":19036957},{"NoteNumber":55,"Velocity":39,"Duration":297442,"SoundDuration":297442,"Delta":19307569},{"NoteNumber":81,"Velocity":68,"Duration":295011,"SoundDuration":295011,"Delta":19605011},{"NoteNumber":48,"Velocity":49,"Duration":2145539,"SoundDuration":2145539,"Delta":19605011},{"NoteNumber":52,"Velocity":58,"Duration":1072769,"SoundDuration":1072769,"Delta":19605011},{"NoteNumber":79,"Velocity":59,"Duration":295011,"SoundDuration":295011,"Delta":19873203},{"NoteNumber":78,"Velocity":64,"Duration":295011,"SoundDuration":295011,"Delta":20141396},{"NoteNumber":79,"Velocity":58,"Duration":268192,"SoundDuration":268192,"Delta":20409588},{"NoteNumber":78,"Velocity":64,"Duration":295011,"SoundDuration":295011,"Delta":20677781},{"NoteNumber":55,"Velocity":34,"Duration":2163443,"SoundDuration":2163443,"Delta":20677781},{"NoteNumber":76,"Velocity":54,"Duration":295011,"SoundDuration":295011,"Delta":20945973},{"NoteNumber":75,"Velocity":59,"Duration":295011,"SoundDuration":295011,"Delta":21214166},{"NoteNumber":76,"Velocity":53,"Duration":268192,"SoundDuration":268192,"Delta":21482358},{"NoteNumber":74,"Velocity":62,"Duration":295011,"SoundDuration":295011,"Delta":21750550},{"NoteNumber":52,"Velocity":34,"Duration":1090673,"SoundDuration":1090673,"Delta":21750550},{"NoteNumber":72,"Velocity":53,"Duration":295011,"SoundDuration":295011,"Delta":22018743},{"NoteNumber":71,"Velocity":56,"Duration":296802,"SoundDuration":296802,"Delta":22286936},{"NoteNumber":72,"Velocity":53,"Duration":286095,"SoundDuration":286095,"Delta":22555128},{"NoteNumber":71,"Velocity":59,"Duration":811834,"SoundDuration":811834,"Delta":22841224},{"NoteNumber":50,"Velocity":36,"Duration":2205411,"SoundDuration":2205411,"Delta":22841224},{"NoteNumber":55,"Velocity":36,"Duration":1082446,"SoundDuration":1082446,"Delta":22841224},{"NoteNumber":72,"Velocity":50,"Duration":135305,"SoundDuration":135305,"Delta":23653058},{"NoteNumber":71,"Velocity":50,"Duration":135305,"SoundDuration":135305,"Delta":23788364},{"NoteNumber":69,"Velocity":57,"Duration":561482,"SoundDuration":561482,"Delta":23923670},{"NoteNumber":54,"Velocity":28,"Duration":1122965,"SoundDuration":1122965,"Delta":23923670},{"NoteNumber":74,"Velocity":54,"Duration":584877,"SoundDuration":584877,"Delta":24485152},{"NoteNumber":73,"Velocity":52,"Duration":584877,"SoundDuration":584877,"Delta":25046635},{"NoteNumber":72,"Velocity":50,"Duration":561482,"SoundDuration":561482,"Delta":25608117},{"NoteNumber":71,"Velocity":50,"Duration":1358115,"SoundDuration":1358115,"Delta":26169600},{"NoteNumber":55,"Velocity":40,"Duration":273074,"SoundDuration":273074,"Delta":26169600},{"NoteNumber":62,"Velocity":25,"Duration":273074,"SoundDuration":273074,"Delta":26442675},{"NoteNumber":59,"Velocity":31,"Duration":273074,"SoundDuration":273074,"Delta":26715749},{"NoteNumber":62,"Velocity":26,"Duration":273074,"SoundDuration":273074,"Delta":26988824},{"NoteNumber":55,"Velocity":40,"Duration":265816,"SoundDuration":265816,"Delta":27261899},{"NoteNumber":67,"Velocity":46,"Duration":265815,"SoundDuration":265815,"Delta":27527715},{"NoteNumber":62,"Velocity":27,"Duration":265815,"SoundDuration":265815,"Delta":27527715},{"NoteNumber":71,"Velocity":48,"Duration":263617,"SoundDuration":263617,"Delta":27778025},{"NoteNumber":59,"Velocity":31,"Duration":263481,"SoundDuration":263481,"Delta":27793531},{"NoteNumber":74,"Velocity":46,"Duration":265679,"SoundDuration":265679,"Delta":28041642},{"NoteNumber":62,"Velocity":26,"Duration":265816,"SoundDuration":265816,"Delta":28057012},{"NoteNumber":72,"Velocity":54,"Duration":265816,"SoundDuration":265816,"Delta":28322828},{"NoteNumber":57,"Velocity":40,"Duration":265816,"SoundDuration":265816,"Delta":28322828},{"NoteNumber":69,"Velocity":46,"Duration":265815,"SoundDuration":265815,"Delta":28588644},{"NoteNumber":62,"Velocity":31,"Duration":265815,"SoundDuration":265815,"Delta":28588644},{"NoteNumber":72,"Velocity":54,"Duration":265816,"SoundDuration":265816,"Delta":28854460},{"NoteNumber":60,"Velocity":36,"Duration":265816,"SoundDuration":265816,"Delta":28854460},{"NoteNumber":76,"Velocity":51,"Duration":306560,"SoundDuration":306560,"Delta":29120276},{"NoteNumber":62,"Velocity":30,"Duration":306560,"SoundDuration":306560,"Delta":29120276},{"NoteNumber":74,"Velocity":58,"Duration":804577,"SoundDuration":804577,"Delta":29426837},{"NoteNumber":55,"Velocity":40,"Duration":268192,"SoundDuration":268192,"Delta":29426837},{"NoteNumber":62,"Velocity":28,"Duration":268192,"SoundDuration":268192,"Delta":29695029},{"NoteNumber":59,"Velocity":32,"Duration":268192,"SoundDuration":268192,"Delta":29963222},{"NoteNumber":71,"Velocity":47,"Duration":273074,"SoundDuration":273074,"Delta":30231414},{"NoteNumber":62,"Velocity":28,"Duration":273074,"SoundDuration":273074,"Delta":30231414},{"NoteNumber":67,"Velocity":47,"Duration":130593,"SoundDuration":130593,"Delta":30504489},{"NoteNumber":55,"Velocity":40,"Duration":261187,"SoundDuration":261187,"Delta":30504489},{"NoteNumber":67,"Velocity":46,"Duration":130593,"SoundDuration":130593,"Delta":30765677},{"NoteNumber":62,"Velocity":33,"Duration":261187,"SoundDuration":261187,"Delta":30765677},{"NoteNumber":69,"Velocity":47,"Duration":130593,"SoundDuration":130593,"Delta":31026864},{"NoteNumber":59,"Velocity":37,"Duration":261187,"SoundDuration":261187,"Delta":31026864},{"NoteNumber":71,"Velocity":48,"Duration":130593,"SoundDuration":130593,"Delta":31288052},{"NoteNumber":62,"Velocity":30,"Duration":261187,"SoundDuration":261187,"Delta":31288052},{"NoteNumber":72,"Velocity":49,"Duration":129252,"SoundDuration":129252,"Delta":31549239},{"NoteNumber":55,"Velocity":47,"Duration":258054,"SoundDuration":258054,"Delta":31549239},{"NoteNumber":74,"Velocity":50,"Duration":129692,"SoundDuration":129692,"Delta":31807294},{"NoteNumber":62,"Velocity":38,"Duration":260744,"SoundDuration":260744,"Delta":31807294},{"NoteNumber":76,"Velocity":51,"Duration":131974,"SoundDuration":131974,"Delta":32068038},{"NoteNumber":59,"Velocity":44,"Duration":265357,"SoundDuration":265357,"Delta":32068038},{"NoteNumber":78,"Velocity":53,"Duration":143047,"SoundDuration":143047,"Delta":32333396},{"NoteNumber":62,"Velocity":42,"Duration":286095,"SoundDuration":286095,"Delta":32333396},{"NoteNumber":79,"Velocity":57,"Duration":318979,"SoundDuration":318979,"Delta":32619492},{"NoteNumber":55,"Velocity":43,"Duration":265816,"SoundDuration":265816,"Delta":32619492},{"NoteNumber":78,"Velocity":50,"Duration":318979,"SoundDuration":318979,"Delta":32885308},{"NoteNumber":64,"Velocity":34,"Duration":265816,"SoundDuration":265816,"Delta":32885308},{"NoteNumber":79,"Velocity":56,"Duration":318979,"SoundDuration":318979,"Delta":33151124},{"NoteNumber":60,"Velocity":38,"Duration":265816,"SoundDuration":265816,"Delta":33151124},{"NoteNumber":78,"Velocity":52,"Duration":318979,"SoundDuration":318979,"Delta":33416940},{"NoteNumber":64,"Velocity":34,"Duration":265815,"SoundDuration":265815,"Delta":33416940},{"NoteNumber":81,"Velocity":59,"Duration":318979,"SoundDuration":318979,"Delta":33682756},{"NoteNumber":55,"Velocity":44,"Duration":265816,"SoundDuration":265816,"Delta":33682756},{"NoteNumber":79,"Velocity":57,"Duration":318979,"SoundDuration":318979,"Delta":33948572},{"NoteNumber":64,"Velocity":34,"Duration":265816,"SoundDuration":265816,"Delta":33948572},{"NoteNumber":78,"Velocity":54,"Duration":318979,"SoundDuration":318979,"Delta":34214388},{"NoteNumber":60,"Velocity":39,"Duration":265816,"SoundDuration":265816,"Delta":34214388},{"NoteNumber":79,"Velocity":49,"Duration":319938,"SoundDuration":319938,"Delta":34480204},{"NoteNumber":64,"Velocity":34,"Duration":265816,"SoundDuration":265816,"Delta":34480204},{"NoteNumber":78,"Velocity":52,"Duration":324733,"SoundDuration":324733,"Delta":34746020},{"NoteNumber":55,"Velocity":40,"Duration":270611,"SoundDuration":270611,"Delta":34746020},{"NoteNumber":76,"Velocity":50,"Duration":324733,"SoundDuration":324733,"Delta":35016631},{"NoteNumber":61,"Velocity":26,"Duration":270611,"SoundDuration":270611,"Delta":35016631},{"NoteNumber":74,"Velocity":48,"Duration":328381,"SoundDuration":328381,"Delta":35287243},{"NoteNumber":58,"Velocity":34,"Duration":270611,"SoundDuration":270611,"Delta":35287243},{"NoteNumber":73,"Velocity":46,"Duration":342013,"SoundDuration":342013,"Delta":35557854},{"NoteNumber":61,"Velocity":27,"Duration":288850,"SoundDuration":288850,"Delta":35557854},{"NoteNumber":74,"Velocity":50,"Duration":265816,"SoundDuration":265816,"Delta":35846705},{"NoteNumber":55,"Velocity":40,"Duration":265816,"SoundDuration":265816,"Delta":35846705},{"NoteNumber":71,"Velocity":43,"Duration":265816,"SoundDuration":265816,"Delta":36112521},{"NoteNumber":62,"Velocity":24,"Duration":265816,"SoundDuration":265816,"Delta":36112521},{"NoteNumber":74,"Velocity":47,"Duration":265816,"SoundDuration":265816,"Delta":36378337},{"NoteNumber":59,"Velocity":31,"Duration":265816,"SoundDuration":265816,"Delta":36378337},{"NoteNumber":71,"Velocity":43,"Duration":283393,"SoundDuration":283393,"Delta":36644153},{"NoteNumber":62,"Velocity":27,"Duration":283393,"SoundDuration":283393,"Delta":36644153},{"NoteNumber":67,"Velocity":47,"Duration":1082445,"SoundDuration":1082445,"Delta":36927546},{"NoteNumber":55,"Velocity":40,"Duration":270611,"SoundDuration":270611,"Delta":36927546},{"NoteNumber":62,"Velocity":26,"Duration":270611,"SoundDuration":270611,"Delta":37198157},{"NoteNumber":59,"Velocity":33,"Duration":270611,"SoundDuration":270611,"Delta":37468769},{"NoteNumber":62,"Velocity":27,"Duration":270611,"SoundDuration":270611,"Delta":37739380},{"NoteNumber":55,"Velocity":41,"Duration":270611,"SoundDuration":270611,"Delta":38009992},{"NoteNumber":62,"Velocity":30,"Duration":270611,"SoundDuration":270611,"Delta":38280603},{"NoteNumber":59,"Velocity":33,"Duration":270611,"SoundDuration":270611,"Delta":38551215},{"NoteNumber":62,"Velocity":29,"Duration":270611,"SoundDuration":270611,"Delta":38821826},{"NoteNumber":72,"Velocity":50,"Duration":268192,"SoundDuration":268192,"Delta":39092438},{"NoteNumber":57,"Velocity":40,"Duration":268192,"SoundDuration":268192,"Delta":39092438},{"NoteNumber":69,"Velocity":46,"Duration":268192,"SoundDuration":268192,"Delta":39360630},{"NoteNumber":62,"Velocity":27,"Duration":268192,"SoundDuration":268192,"Delta":39360630},{"NoteNumber":72,"Velocity":46,"Duration":268192,"SoundDuration":268192,"Delta":39628823},{"NoteNumber":60,"Velocity":32,"Duration":268192,"SoundDuration":268192,"Delta":39628823},{"NoteNumber":69,"Velocity":43,"Duration":266779,"SoundDuration":266779,"Delta":39897015},{"NoteNumber":62,"Velocity":27,"Duration":266779,"SoundDuration":266779,"Delta":39897015},{"NoteNumber":66,"Velocity":50,"Duration":132674,"SoundDuration":132674,"Delta":40163794},{"NoteNumber":57,"Velocity":40,"Duration":265582,"SoundDuration":265582,"Delta":40163794},{"NoteNumber":69,"Velocity":46,"Duration":265816,"SoundDuration":265816,"Delta":40429377},{"NoteNumber":62,"Velocity":30,"Duration":265816,"SoundDuration":265816,"Delta":40429377},{"NoteNumber":68,"Velocity":49,"Duration":265816,"SoundDuration":265816,"Delta":40695193},{"NoteNumber":60,"Velocity":33,"Duration":265816,"SoundDuration":265816,"Delta":40695193},{"NoteNumber":69,"Velocity":51,"Duration":265115,"SoundDuration":265115,"Delta":40961009},{"NoteNumber":62,"Velocity":28,"Duration":265115,"SoundDuration":265115,"Delta":40961009},{"NoteNumber":70,"Velocity":54,"Duration":263481,"SoundDuration":263481,"Delta":41226125},{"NoteNumber":57,"Velocity":40,"Duration":263481,"SoundDuration":263481,"Delta":41226125},{"NoteNumber":71,"Velocity":51,"Duration":265816,"SoundDuration":265816,"Delta":41489606},{"NoteNumber":62,"Velocity":31,"Duration":265816,"SoundDuration":265816,"Delta":41489606},{"NoteNumber":72,"Velocity":54,"Duration":265816,"SoundDuration":265816,"Delta":41755422},{"NoteNumber":60,"Velocity":38,"Duration":265816,"SoundDuration":265816,"Delta":41755422},{"NoteNumber":73,"Velocity":56,"Duration":256717,"SoundDuration":256717,"Delta":42021238},{"NoteNumber":62,"Velocity":33,"Duration":256717,"SoundDuration":256717,"Delta":42021238},{"NoteNumber":74,"Velocity":59,"Duration":258933,"SoundDuration":258933,"Delta":42277956},{"NoteNumber":55,"Velocity":40,"Duration":258933,"SoundDuration":258933,"Delta":42277956},{"NoteNumber":71,"Velocity":51,"Duration":265816,"SoundDuration":265816,"Delta":42536889},{"NoteNumber":62,"Velocity":38,"Duration":265816,"SoundDuration":265816,"Delta":42536889},{"NoteNumber":74,"Velocity":54,"Duration":265816,"SoundDuration":265816,"Delta":42802705},{"NoteNumber":59,"Velocity":42,"Duration":265816,"SoundDuration":265816,"Delta":42802705},{"NoteNumber":71,"Velocity":51,"Duration":265816,"SoundDuration":265816,"Delta":43068521},{"NoteNumber":62,"Velocity":35,"Duration":265816,"SoundDuration":265816,"Delta":43068521},{"NoteNumber":79,"Velocity":63,"Duration":1063263,"SoundDuration":1063263,"Delta":43334337},{"NoteNumber":52,"Velocity":51,"Duration":265816,"SoundDuration":265816,"Delta":43334337},{"NoteNumber":59,"Velocity":46,"Duration":265816,"SoundDuration":265816,"Delta":43600153},{"NoteNumber":55,"Velocity":50,"Duration":265816,"SoundDuration":265816,"Delta":43865969},{"NoteNumber":59,"Velocity":47,"Duration":265815,"SoundDuration":265815,"Delta":44131785},{"NoteNumber":47,"Velocity":54,"Duration":275583,"SoundDuration":275583,"Delta":44397601},{"NoteNumber":83,"Velocity":67,"Duration":324733,"SoundDuration":324733,"Delta":44673184},{"NoteNumber":55,"Velocity":42,"Duration":270611,"SoundDuration":270611,"Delta":44673184},{"NoteNumber":78,"Velocity":62,"Duration":330099,"SoundDuration":330099,"Delta":44943796},{"NoteNumber":50,"Velocity":47,"Duration":270611,"SoundDuration":270611,"Delta":44943796},{"NoteNumber":79,"Velocity":56,"Duration":297441,"SoundDuration":297441,"Delta":45214407},{"NoteNumber":55,"Velocity":34,"Duration":297441,"SoundDuration":297441,"Delta":45214407},{"NoteNumber":75,"Velocity":58,"Duration":324733,"SoundDuration":324733,"Delta":45511849},{"NoteNumber":48,"Velocity":40,"Duration":270611,"SoundDuration":270611,"Delta":45511849},{"NoteNumber":76,"Velocity":49,"Duration":324733,"SoundDuration":324733,"Delta":45782461},{"NoteNumber":57,"Velocity":26,"Duration":270611,"SoundDuration":270611,"Delta":45782461},{"NoteNumber":72,"Velocity":53,"Duration":331303,"SoundDuration":331303,"Delta":46053072},{"NoteNumber":52,"Velocity":33,"Duration":270611,"SoundDuration":270611,"Delta":46053072},{"NoteNumber":69,"Velocity":46,"Duration":303459,"SoundDuration":303459,"Delta":46323684},{"NoteNumber":57,"Velocity":29,"Duration":303459,"SoundDuration":303459,"Delta":46323684},{"NoteNumber":67,"Velocity":53,"Duration":819224,"SoundDuration":819224,"Delta":46627143},{"NoteNumber":50,"Velocity":39,"Duration":273074,"SoundDuration":273074,"Delta":46627143},{"NoteNumber":59,"Velocity":27,"Duration":273074,"SoundDuration":273074,"Delta":46900218},{"NoteNumber":55,"Velocity":33,"Duration":273074,"SoundDuration":273074,"Delta":47173293},{"NoteNumber":67,"Velocity":44,"Duration":273074,"SoundDuration":273074,"Delta":47446367},{"NoteNumber":59,"Velocity":28,"Duration":273074,"SoundDuration":273074,"Delta":47446367},{"NoteNumber":66,"Velocity":47,"Duration":1191632,"SoundDuration":1191632,"Delta":47719442},{"NoteNumber":71,"Velocity":55,"Duration":340071,"SoundDuration":340071,"Delta":47719442},{"NoteNumber":50,"Velocity":39,"Duration":283393,"SoundDuration":283393,"Delta":47719442},{"NoteNumber":69,"Velocity":44,"Duration":340071,"SoundDuration":340071,"Delta":48002835},{"NoteNumber":60,"Velocity":27,"Duration":283393,"SoundDuration":283393,"Delta":48002835},{"NoteNumber":67,"Velocity":49,"Duration":351683,"SoundDuration":351683,"Delta":48286229},{"NoteNumber":57,"Velocity":32,"Duration":283393,"SoundDuration":283393,"Delta":48286229},{"NoteNumber":69,"Velocity":42,"Duration":321534,"SoundDuration":321534,"Delta":48569622},{"NoteNumber":60,"Velocity":27,"Duration":321534,"SoundDuration":321534,"Delta":48569622},{"NoteNumber":66,"Velocity":42,"Duration":1306336,"SoundDuration":1306336,"Delta":48911074},{"NoteNumber":69,"Velocity":53,"Duration":1306336,"SoundDuration":1306336,"Delta":48911074},{"NoteNumber":55,"Velocity":27,"Duration":2324493,"SoundDuration":2324493,"Delta":48911074},{"NoteNumber":60,"Velocity":36,"Duration":1306336,"SoundDuration":1306336,"Delta":48911074},{"NoteNumber":67,"Velocity":48,"Duration":1018157,"SoundDuration":1018157,"Delta":50217410},{"NoteNumber":59,"Velocity":28,"Duration":1018157,"SoundDuration":1018157,"Delta":50217410},{"NoteNumber":71,"Velocity":50,"Duration":2184598,"SoundDuration":2184598,"Delta":52253724},{"NoteNumber":55,"Velocity":40,"Duration":273074,"SoundDuration":273074,"Delta":52253724},{"NoteNumber":62,"Velocity":22,"Duration":273074,"SoundDuration":273074,"Delta":52526799},{"NoteNumber":59,"Velocity":25,"Duration":273074,"SoundDuration":273074,"Delta":52799874},{"NoteNumber":62,"Velocity":24,"Duration":273074,"SoundDuration":273074,"Delta":53072948},{"NoteNumber":55,"Velocity":40,"Duration":273074,"SoundDuration":273074,"Delta":53346023},{"NoteNumber":62,"Velocity":29,"Duration":273074,"SoundDuration":273074,"Delta":53619098},{"NoteNumber":59,"Velocity":35,"Duration":273074,"SoundDuration":273074,"Delta":53892173},{"NoteNumber":62,"Velocity":30,"Duration":273074,"SoundDuration":273074,"Delta":54165247},{"NoteNumber":74,"Velocity":50,"Duration":327689,"SoundDuration":327689,"Delta":54438322},{"NoteNumber":57,"Velocity":40,"Duration":273074,"SoundDuration":273074,"Delta":54438322},{"NoteNumber":72,"Velocity":46,"Duration":327689,"SoundDuration":327689,"Delta":54711397},{"NoteNumber":62,"Velocity":32,"Duration":273074,"SoundDuration":273074,"Delta":54711397},{"NoteNumber":71,"Velocity":46,"Duration":334386,"SoundDuration":334386,"Delta":54984472},{"NoteNumber":60,"Velocity":40,"Duration":273074,"SoundDuration":273074,"Delta":54984472},{"NoteNumber":72,"Velocity":48,"Duration":360682,"SoundDuration":360682,"Delta":55257546},{"NoteNumber":62,"Velocity":35,"Duration":306560,"SoundDuration":306560,"Delta":55257546},{"NoteNumber":74,"Velocity":54,"Duration":811834,"SoundDuration":811834,"Delta":55564107},{"NoteNumber":55,"Velocity":43,"Duration":270611,"SoundDuration":270611,"Delta":55564107},{"NoteNumber":62,"Velocity":28,"Duration":270611,"SoundDuration":270611,"Delta":55834718},{"NoteNumber":59,"Velocity":32,"Duration":270611,"SoundDuration":270611,"Delta":56105330},{"NoteNumber":71,"Velocity":47,"Duration":283393,"SoundDuration":283393,"Delta":56375941},{"NoteNumber":62,"Velocity":28,"Duration":283393,"SoundDuration":283393,"Delta":56375941},{"NoteNumber":67,"Velocity":47,"Duration":1082445,"SoundDuration":1082445,"Delta":56659335},{"NoteNumber":55,"Velocity":40,"Duration":270611,"SoundDuration":270611,"Delta":56659335},{"NoteNumber":62,"Velocity":29,"Duration":270611,"SoundDuration":270611,"Delta":56929946},{"NoteNumber":59,"Velocity":39,"Duration":270611,"SoundDuration":270611,"Delta":57200558},{"NoteNumber":62,"Velocity":36,"Duration":270611,"SoundDuration":270611,"Delta":57471169},{"NoteNumber":55,"Velocity":48,"Duration":265816,"SoundDuration":265816,"Delta":57741781},{"NoteNumber":62,"Velocity":38,"Duration":265816,"SoundDuration":265816,"Delta":58007597},{"NoteNumber":59,"Velocity":48,"Duration":265816,"SoundDuration":265816,"Delta":58273413},{"NoteNumber":62,"Velocity":45,"Duration":297441,"SoundDuration":297441,"Delta":58539229},{"NoteNumber":79,"Velocity":67,"Duration":1639153,"SoundDuration":1639153,"Delta":58836671},{"NoteNumber":55,"Velocity":53,"Duration":270611,"SoundDuration":270611,"Delta":58836671},{"NoteNumber":64,"Velocity":37,"Duration":270611,"SoundDuration":270611,"Delta":59107282},{"NoteNumber":60,"Velocity":47,"Duration":270611,"SoundDuration":270611,"Delta":59377894},{"NoteNumber":64,"Velocity":41,"Duration":270611,"SoundDuration":270611,"Delta":59648505},{"NoteNumber":55,"Velocity":44,"Duration":270611,"SoundDuration":270611,"Delta":59919117},{"NoteNumber":64,"Velocity":34,"Duration":286095,"SoundDuration":286095,"Delta":60189728},{"NoteNumber":81,"Velocity":62,"Duration":270611,"SoundDuration":270611,"Delta":60475824},{"NoteNumber":60,"Velocity":39,"Duration":270611,"SoundDuration":270611,"Delta":60475824},{"NoteNumber":79,"Velocity":55,"Duration":270611,"SoundDuration":270611,"Delta":60746435},{"NoteNumber":64,"Velocity":34,"Duration":270611,"SoundDuration":270611,"Delta":60746435},{"NoteNumber":78,"Velocity":57,"Duration":324733,"SoundDuration":324733,"Delta":61017047},{"NoteNumber":55,"Velocity":40,"Duration":270611,"SoundDuration":270611,"Delta":61017047},{"NoteNumber":76,"Velocity":46,"Duration":324733,"SoundDuration":324733,"Delta":61287658},{"NoteNumber":61,"Velocity":26,"Duration":270611,"SoundDuration":270611,"Delta":61287658},{"NoteNumber":74,"Velocity":51,"Duration":328381,"SoundDuration":328381,"Delta":61558270},{"NoteNumber":58,"Velocity":34,"Duration":270611,"SoundDuration":270611,"Delta":61558270},{"NoteNumber":73,"Velocity":46,"Duration":342972,"SoundDuration":342972,"Delta":61828881},{"NoteNumber":61,"Velocity":27,"Duration":288850,"SoundDuration":288850,"Delta":61828881},{"NoteNumber":74,"Velocity":53,"Duration":811834,"SoundDuration":811834,"Delta":62117732},{"NoteNumber":55,"Velocity":40,"Duration":270611,"SoundDuration":270611,"Delta":62117732},{"NoteNumber":62,"Velocity":26,"Duration":270611,"SoundDuration":270611,"Delta":62388343},{"NoteNumber":59,"Velocity":31,"Duration":270611,"SoundDuration":270611,"Delta":62658955},{"NoteNumber":71,"Velocity":47,"Duration":283393,"SoundDuration":283393,"Delta":62929566},{"NoteNumber":62,"Velocity":27,"Duration":283393,"SoundDuration":283393,"Delta":62929566},{"NoteNumber":67,"Velocity":45,"Duration":1082446,"SoundDuration":1082446,"Delta":63212960},{"NoteNumber":55,"Velocity":40,"Duration":270611,"SoundDuration":270611,"Delta":63212960},{"NoteNumber":62,"Velocity":26,"Duration":270611,"SoundDuration":270611,"Delta":63483571},{"NoteNumber":59,"Velocity":30,"Duration":270611,"SoundDuration":270611,"Delta":63754183},{"NoteNumber":62,"Velocity":27,"Duration":270611,"SoundDuration":270611,"Delta":64024794},{"NoteNumber":55,"Velocity":41,"Duration":265816,"SoundDuration":265816,"Delta":64295406},{"NoteNumber":62,"Velocity":25,"Duration":265816,"SoundDuration":265816,"Delta":64561222},{"NoteNumber":59,"Velocity":30,"Duration":265816,"SoundDuration":265816,"Delta":64827038},{"NoteNumber":62,"Velocity":25,"Duration":265816,"SoundDuration":265816,"Delta":65092854},{"NoteNumber":72,"Velocity":50,"Duration":814341,"SoundDuration":814341,"Delta":65358670},{"NoteNumber":57,"Velocity":40,"Duration":273074,"SoundDuration":273074,"Delta":65358670},{"NoteNumber":62,"Velocity":27,"Duration":273074,"SoundDuration":273074,"Delta":65631744},{"NoteNumber":60,"Velocity":32,"Duration":268192,"SoundDuration":268192,"Delta":65904819},{"NoteNumber":69,"Velocity":47,"Duration":268192,"SoundDuration":268192,"Delta":66173012},{"NoteNumber":62,"Velocity":27,"Duration":268192,"SoundDuration":268192,"Delta":66173012},{"NoteNumber":66,"Velocity":52,"Duration":261187,"SoundDuration":261187,"Delta":66441204},{"NoteNumber":57,"Velocity":40,"Duration":261187,"SoundDuration":261187,"Delta":66441204},{"NoteNumber":62,"Velocity":30,"Duration":261187,"SoundDuration":261187,"Delta":66702392},{"NoteNumber":69,"Velocity":47,"Duration":261187,"SoundDuration":261187,"Delta":66963579},{"NoteNumber":60,"Velocity":33,"Duration":261187,"SoundDuration":261187,"Delta":66963579},{"NoteNumber":62,"Velocity":28,"Duration":261187,"SoundDuration":261187,"Delta":67224767},{"NoteNumber":71,"Velocity":51,"Duration":265816,"SoundDuration":265816,"Delta":67485954},{"NoteNumber":57,"Velocity":44,"Duration":265816,"SoundDuration":265816,"Delta":67485954},{"NoteNumber":62,"Velocity":33,"Duration":270611,"SoundDuration":270611,"Delta":67751770},{"NoteNumber":72,"Velocity":52,"Duration":270611,"SoundDuration":270611,"Delta":68022382},{"NoteNumber":60,"Velocity":40,"Duration":270611,"SoundDuration":270611,"Delta":68022382},{"NoteNumber":62,"Velocity":33,"Duration":286095,"SoundDuration":286095,"Delta":68292993},{"NoteNumber":74,"Velocity":57,"Duration":811834,"SoundDuration":811834,"Delta":68579089},{"NoteNumber":55,"Velocity":46,"Duration":270611,"SoundDuration":270611,"Delta":68579089},{"NoteNumber":62,"Velocity":33,"Duration":270611,"SoundDuration":270611,"Delta":68849700},{"NoteNumber":59,"Velocity":40,"Duration":270611,"SoundDuration":270611,"Delta":69120312},{"NoteNumber":71,"Velocity":61,"Duration":270611,"SoundDuration":270611,"Delta":69390923},{"NoteNumber":62,"Velocity":37,"Duration":270611,"SoundDuration":270611,"Delta":69390923},{"NoteNumber":79,"Velocity":65,"Duration":1063264,"SoundDuration":1063264,"Delta":69661535},{"NoteNumber":52,"Velocity":46,"Duration":265816,"SoundDuration":265816,"Delta":69661535},{"NoteNumber":59,"Velocity":38,"Duration":265816,"SoundDuration":265816,"Delta":69927351},{"NoteNumber":55,"Velocity":42,"Duration":265816,"SoundDuration":265816,"Delta":70193167},{"NoteNumber":59,"Velocity":38,"Duration":265816,"SoundDuration":265816,"Delta":70458983},{"NoteNumber":47,"Velocity":53,"Duration":265816,"SoundDuration":265816,"Delta":70724799},{"NoteNumber":55,"Velocity":44,"Duration":270611,"SoundDuration":270611,"Delta":70990615},{"NoteNumber":50,"Velocity":48,"Duration":270611,"SoundDuration":270611,"Delta":71261226},{"NoteNumber":55,"Velocity":39,"Duration":297442,"SoundDuration":297442,"Delta":71531838},{"NoteNumber":81,"Velocity":68,"Duration":295011,"SoundDuration":295011,"Delta":71829280},{"NoteNumber":52,"Velocity":58,"Duration":1072770,"SoundDuration":1072770,"Delta":71829280},{"NoteNumber":48,"Velocity":49,"Duration":2145540,"SoundDuration":2145540,"Delta":71829280},{"NoteNumber":79,"Velocity":59,"Duration":295011,"SoundDuration":295011,"Delta":72097472},{"NoteNumber":78,"Velocity":64,"Duration":295011,"SoundDuration":295011,"Delta":72365665},{"NoteNumber":79,"Velocity":58,"Duration":268192,"SoundDuration":268192,"Delta":72633857},{"NoteNumber":78,"Velocity":64,"Duration":295011,"SoundDuration":295011,"Delta":72902050},{"NoteNumber":55,"Velocity":34,"Duration":2163443,"SoundDuration":2163443,"Delta":72902050},{"NoteNumber":76,"Velocity":54,"Duration":295011,"SoundDuration":295011,"Delta":73170242},{"NoteNumber":75,"Velocity":59,"Duration":295011,"SoundDuration":295011,"Delta":73438435},{"NoteNumber":76,"Velocity":53,"Duration":268192,"SoundDuration":268192,"Delta":73706627},{"NoteNumber":74,"Velocity":62,"Duration":295011,"SoundDuration":295011,"Delta":73974820},{"NoteNumber":52,"Velocity":34,"Duration":1090673,"SoundDuration":1090673,"Delta":73974820},{"NoteNumber":72,"Velocity":53,"Duration":295011,"SoundDuration":295011,"Delta":74243012},{"NoteNumber":71,"Velocity":56,"Duration":296802,"SoundDuration":296802,"Delta":74511205},{"NoteNumber":72,"Velocity":53,"Duration":286095,"SoundDuration":286095,"Delta":74779397},{"NoteNumber":71,"Velocity":59,"Duration":811834,"SoundDuration":811834,"Delta":75065493},{"NoteNumber":50,"Velocity":36,"Duration":2205410,"SoundDuration":2205410,"Delta":75065493},{"NoteNumber":55,"Velocity":36,"Duration":1082446,"SoundDuration":1082446,"Delta":75065493},{"NoteNumber":72,"Velocity":50,"Duration":135305,"SoundDuration":135305,"Delta":75877328},{"NoteNumber":71,"Velocity":50,"Duration":135305,"SoundDuration":135305,"Delta":76012633},{"NoteNumber":69,"Velocity":57,"Duration":561482,"SoundDuration":561482,"Delta":76147939},{"NoteNumber":54,"Velocity":28,"Duration":1122964,"SoundDuration":1122964,"Delta":76147939},{"NoteNumber":74,"Velocity":54,"Duration":584877,"SoundDuration":584877,"Delta":76709422},{"NoteNumber":73,"Velocity":52,"Duration":584877,"SoundDuration":584877,"Delta":77270904},{"NoteNumber":72,"Velocity":50,"Duration":561482,"SoundDuration":561482,"Delta":77832387},{"NoteNumber":71,"Velocity":50,"Duration":1358114,"SoundDuration":1358114,"Delta":78393869},{"NoteNumber":55,"Velocity":40,"Duration":273074,"SoundDuration":273074,"Delta":78393869},{"NoteNumber":62,"Velocity":25,"Duration":273074,"SoundDuration":273074,"Delta":78666944},{"NoteNumber":59,"Velocity":31,"Duration":273074,"SoundDuration":273074,"Delta":78940019},{"NoteNumber":62,"Velocity":26,"Duration":273074,"SoundDuration":273074,"Delta":79213093},{"NoteNumber":55,"Velocity":40,"Duration":265816,"SoundDuration":265816,"Delta":79486168},{"NoteNumber":67,"Velocity":46,"Duration":265816,"SoundDuration":265816,"Delta":79751984},{"NoteNumber":62,"Velocity":27,"Duration":265816,"SoundDuration":265816,"Delta":79751984},{"NoteNumber":71,"Velocity":48,"Duration":263617,"SoundDuration":263617,"Delta":80002294},{"NoteNumber":59,"Velocity":31,"Duration":263481,"SoundDuration":263481,"Delta":80017800},{"NoteNumber":74,"Velocity":46,"Duration":265679,"SoundDuration":265679,"Delta":80265912},{"NoteNumber":62,"Velocity":26,"Duration":265816,"SoundDuration":265816,"Delta":80281282},{"NoteNumber":72,"Velocity":54,"Duration":265816,"SoundDuration":265816,"Delta":80547098},{"NoteNumber":57,"Velocity":40,"Duration":265816,"SoundDuration":265816,"Delta":80547098},{"NoteNumber":69,"Velocity":46,"Duration":265816,"SoundDuration":265816,"Delta":80812914},{"NoteNumber":62,"Velocity":31,"Duration":265816,"SoundDuration":265816,"Delta":80812914},{"NoteNumber":72,"Velocity":54,"Duration":265816,"SoundDuration":265816,"Delta":81078730},{"NoteNumber":60,"Velocity":36,"Duration":265816,"SoundDuration":265816,"Delta":81078730},{"NoteNumber":76,"Velocity":51,"Duration":306560,"SoundDuration":306560,"Delta":81344546},{"NoteNumber":62,"Velocity":30,"Duration":306560,"SoundDuration":306560,"Delta":81344546},{"NoteNumber":74,"Velocity":58,"Duration":804577,"SoundDuration":804577,"Delta":81651106},{"NoteNumber":55,"Velocity":40,"Duration":268192,"SoundDuration":268192,"Delta":81651106},{"NoteNumber":62,"Velocity":28,"Duration":268192,"SoundDuration":268192,"Delta":81919299},{"NoteNumber":59,"Velocity":32,"Duration":268192,"SoundDuration":268192,"Delta":82187491},{"NoteNumber":71,"Velocity":47,"Duration":273074,"SoundDuration":273074,"Delta":82455684},{"NoteNumber":62,"Velocity":28,"Duration":273074,"SoundDuration":273074,"Delta":82455684},{"NoteNumber":67,"Velocity":47,"Duration":130593,"SoundDuration":130593,"Delta":82728758},{"NoteNumber":55,"Velocity":40,"Duration":261187,"SoundDuration":261187,"Delta":82728758},{"NoteNumber":67,"Velocity":46,"Duration":130593,"SoundDuration":130593,"Delta":82989946},{"NoteNumber":62,"Velocity":33,"Duration":261187,"SoundDuration":261187,"Delta":82989946},{"NoteNumber":69,"Velocity":47,"Duration":129466,"SoundDuration":129466,"Delta":83251133},{"NoteNumber":59,"Velocity":37,"Duration":258933,"SoundDuration":258933,"Delta":83251133},{"NoteNumber":71,"Velocity":48,"Duration":129466,"SoundDuration":129466,"Delta":83510067},{"NoteNumber":62,"Velocity":30,"Duration":258933,"SoundDuration":258933,"Delta":83510067},{"NoteNumber":72,"Velocity":49,"Duration":130405,"SoundDuration":130405,"Delta":83769000},{"NoteNumber":55,"Velocity":47,"Duration":261726,"SoundDuration":261726,"Delta":83769000},{"NoteNumber":74,"Velocity":50,"Duration":132246,"SoundDuration":132246,"Delta":84030726},{"NoteNumber":62,"Velocity":38,"Duration":265431,"SoundDuration":265431,"Delta":84030726},{"NoteNumber":76,"Velocity":51,"Duration":133858,"SoundDuration":133858,"Delta":84296158},{"NoteNumber":59,"Velocity":44,"Duration":267241,"SoundDuration":267241,"Delta":84296158},{"NoteNumber":78,"Velocity":53,"Duration":143047,"SoundDuration":143047,"Delta":84563400},{"NoteNumber":62,"Velocity":42,"Duration":286095,"SoundDuration":286095,"Delta":84563400},{"NoteNumber":79,"Velocity":57,"Duration":318979,"SoundDuration":318979,"Delta":84849495},{"NoteNumber":55,"Velocity":43,"Duration":265816,"SoundDuration":265816,"Delta":84849495},{"NoteNumber":78,"Velocity":50,"Duration":318979,"SoundDuration":318979,"Delta":85115311},{"NoteNumber":64,"Velocity":34,"Duration":265816,"SoundDuration":265816,"Delta":85115311},{"NoteNumber":79,"Velocity":56,"Duration":318979,"SoundDuration":318979,"Delta":85381127},{"NoteNumber":60,"Velocity":38,"Duration":265816,"SoundDuration":265816,"Delta":85381127},{"NoteNumber":78,"Velocity":52,"Duration":318979,"SoundDuration":318979,"Delta":85646943},{"NoteNumber":64,"Velocity":34,"Duration":265816,"SoundDuration":265816,"Delta":85646943},{"NoteNumber":81,"Velocity":59,"Duration":318979,"SoundDuration":318979,"Delta":85912759},{"NoteNumber":55,"Velocity":44,"Duration":265816,"SoundDuration":265816,"Delta":85912759},{"NoteNumber":79,"Velocity":57,"Duration":318979,"SoundDuration":318979,"Delta":86178575},{"NoteNumber":64,"Velocity":34,"Duration":265816,"SoundDuration":265816,"Delta":86178575},{"NoteNumber":78,"Velocity":54,"Duration":318979,"SoundDuration":318979,"Delta":86444391},{"NoteNumber":60,"Velocity":39,"Duration":265816,"SoundDuration":265816,"Delta":86444391},{"NoteNumber":79,"Velocity":49,"Duration":319938,"SoundDuration":319938,"Delta":86710207},{"NoteNumber":64,"Velocity":34,"Duration":265816,"SoundDuration":265816,"Delta":86710207},{"NoteNumber":78,"Velocity":52,"Duration":324733,"SoundDuration":324733,"Delta":86976023},{"NoteNumber":55,"Velocity":40,"Duration":270611,"SoundDuration":270611,"Delta":86976023},{"NoteNumber":76,"Velocity":50,"Duration":324733,"SoundDuration":324733,"Delta":87246635},{"NoteNumber":61,"Velocity":26,"Duration":270611,"SoundDuration":270611,"Delta":87246635},{"NoteNumber":74,"Velocity":48,"Duration":328381,"SoundDuration":328381,"Delta":87517246},{"NoteNumber":58,"Velocity":34,"Duration":270611,"SoundDuration":270611,"Delta":87517246},{"NoteNumber":73,"Velocity":46,"Duration":342013,"SoundDuration":342013,"Delta":87787858},{"NoteNumber":61,"Velocity":27,"Duration":288850,"SoundDuration":288850,"Delta":87787858},{"NoteNumber":74,"Velocity":50,"Duration":265816,"SoundDuration":265816,"Delta":88076708},{"NoteNumber":55,"Velocity":40,"Duration":265816,"SoundDuration":265816,"Delta":88076708},{"NoteNumber":71,"Velocity":43,"Duration":265816,"SoundDuration":265816,"Delta":88342524},{"NoteNumber":62,"Velocity":24,"Duration":265816,"SoundDuration":265816,"Delta":88342524},{"NoteNumber":74,"Velocity":47,"Duration":265816,"SoundDuration":265816,"Delta":88608340},{"NoteNumber":59,"Velocity":31,"Duration":265816,"SoundDuration":265816,"Delta":88608340},{"NoteNumber":71,"Velocity":43,"Duration":283393,"SoundDuration":283393,"Delta":88874156},{"NoteNumber":62,"Velocity":27,"Duration":283393,"SoundDuration":283393,"Delta":88874156},{"NoteNumber":67,"Velocity":47,"Duration":1082446,"SoundDuration":1082446,"Delta":89157550},{"NoteNumber":55,"Velocity":40,"Duration":270611,"SoundDuration":270611,"Delta":89157550},{"NoteNumber":62,"Velocity":26,"Duration":270611,"SoundDuration":270611,"Delta":89428161},{"NoteNumber":59,"Velocity":33,"Duration":270611,"SoundDuration":270611,"Delta":89698773},{"NoteNumber":62,"Velocity":27,"Duration":270611,"SoundDuration":270611,"Delta":89969384},{"NoteNumber":55,"Velocity":41,"Duration":270611,"SoundDuration":270611,"Delta":90239996},{"NoteNumber":62,"Velocity":30,"Duration":270611,"SoundDuration":270611,"Delta":90510607},{"NoteNumber":59,"Velocity":33,"Duration":270611,"SoundDuration":270611,"Delta":90781219},{"NoteNumber":62,"Velocity":29,"Duration":270611,"SoundDuration":270611,"Delta":91051830},{"NoteNumber":72,"Velocity":50,"Duration":268192,"SoundDuration":268192,"Delta":91322442},{"NoteNumber":57,"Velocity":40,"Duration":268192,"SoundDuration":268192,"Delta":91322442},{"NoteNumber":69,"Velocity":46,"Duration":268192,"SoundDuration":268192,"Delta":91590634},{"NoteNumber":62,"Velocity":27,"Duration":268192,"SoundDuration":268192,"Delta":91590634},{"NoteNumber":72,"Velocity":46,"Duration":268192,"SoundDuration":268192,"Delta":91858827},{"NoteNumber":60,"Velocity":32,"Duration":268192,"SoundDuration":268192,"Delta":91858827},{"NoteNumber":69,"Velocity":43,"Duration":266779,"SoundDuration":266779,"Delta":92127019},{"NoteNumber":62,"Velocity":27,"Duration":266779,"SoundDuration":266779,"Delta":92127019},{"NoteNumber":66,"Velocity":50,"Duration":132674,"SoundDuration":132674,"Delta":92393798},{"NoteNumber":57,"Velocity":40,"Duration":265582,"SoundDuration":265582,"Delta":92393798},{"NoteNumber":69,"Velocity":46,"Duration":265816,"SoundDuration":265816,"Delta":92659381},{"NoteNumber":62,"Velocity":30,"Duration":265816,"SoundDuration":265816,"Delta":92659381},{"NoteNumber":68,"Velocity":49,"Duration":265816,"SoundDuration":265816,"Delta":92925197},{"NoteNumber":60,"Velocity":33,"Duration":265816,"SoundDuration":265816,"Delta":92925197},{"NoteNumber":69,"Velocity":51,"Duration":265115,"SoundDuration":265115,"Delta":93191013},{"NoteNumber":62,"Velocity":28,"Duration":265115,"SoundDuration":265115,"Delta":93191013},{"NoteNumber":70,"Velocity":54,"Duration":263481,"SoundDuration":263481,"Delta":93456129},{"NoteNumber":57,"Velocity":40,"Duration":263481,"SoundDuration":263481,"Delta":93456129},{"NoteNumber":71,"Velocity":51,"Duration":265816,"SoundDuration":265816,"Delta":93719610},{"NoteNumber":62,"Velocity":31,"Duration":265816,"SoundDuration":265816,"Delta":93719610},{"NoteNumber":72,"Velocity":54,"Duration":265816,"SoundDuration":265816,"Delta":93985426},{"NoteNumber":60,"Velocity":38,"Duration":265816,"SoundDuration":265816,"Delta":93985426},{"NoteNumber":73,"Velocity":56,"Duration":256717,"SoundDuration":256717,"Delta":94251242},{"NoteNumber":62,"Velocity":33,"Duration":256717,"SoundDuration":256717,"Delta":94251242},{"NoteNumber":74,"Velocity":59,"Duration":258933,"SoundDuration":258933,"Delta":94507960},{"NoteNumber":55,"Velocity":40,"Duration":258933,"SoundDuration":258933,"Delta":94507960},{"NoteNumber":71,"Velocity":51,"Duration":265816,"SoundDuration":265816,"Delta":94766893},{"NoteNumber":62,"Velocity":38,"Duration":265816,"SoundDuration":265816,"Delta":94766893},{"NoteNumber":74,"Velocity":54,"Duration":265816,"SoundDuration":265816,"Delta":95032709},{"NoteNumber":59,"Velocity":42,"Duration":265816,"SoundDuration":265816,"Delta":95032709},{"NoteNumber":71,"Velocity":51,"Duration":265816,"SoundDuration":265816,"Delta":95298525},{"NoteNumber":62,"Velocity":35,"Duration":265816,"SoundDuration":265816,"Delta":95298525},{"NoteNumber":79,"Velocity":63,"Duration":1063264,"SoundDuration":1063264,"Delta":95564341},{"NoteNumber":52,"Velocity":51,"Duration":265816,"SoundDuration":265816,"Delta":95564341},{"NoteNumber":59,"Velocity":46,"Duration":265816,"SoundDuration":265816,"Delta":95830157},{"NoteNumber":55,"Velocity":50,"Duration":265816,"SoundDuration":265816,"Delta":96095973},{"NoteNumber":59,"Velocity":47,"Duration":265816,"SoundDuration":265816,"Delta":96361789},{"NoteNumber":47,"Velocity":54,"Duration":275583,"SoundDuration":275583,"Delta":96627605},{"NoteNumber":83,"Velocity":67,"Duration":324733,"SoundDuration":324733,"Delta":96903188},{"NoteNumber":55,"Velocity":42,"Duration":270611,"SoundDuration":270611,"Delta":96903188},{"NoteNumber":78,"Velocity":62,"Duration":330099,"SoundDuration":330099,"Delta":97173800},{"NoteNumber":50,"Velocity":47,"Duration":270611,"SoundDuration":270611,"Delta":97173800},{"NoteNumber":79,"Velocity":56,"Duration":297442,"SoundDuration":297442,"Delta":97444411},{"NoteNumber":55,"Velocity":34,"Duration":297442,"SoundDuration":297442,"Delta":97444411},{"NoteNumber":75,"Velocity":58,"Duration":324733,"SoundDuration":324733,"Delta":97741853},{"NoteNumber":48,"Velocity":40,"Duration":270611,"SoundDuration":270611,"Delta":97741853},{"NoteNumber":76,"Velocity":49,"Duration":324733,"SoundDuration":324733,"Delta":98012465},{"NoteNumber":57,"Velocity":26,"Duration":270611,"SoundDuration":270611,"Delta":98012465},{"NoteNumber":72,"Velocity":53,"Duration":331303,"SoundDuration":331303,"Delta":98283076},{"NoteNumber":52,"Velocity":33,"Duration":270611,"SoundDuration":270611,"Delta":98283076},{"NoteNumber":69,"Velocity":46,"Duration":303459,"SoundDuration":303459,"Delta":98553688},{"NoteNumber":57,"Velocity":29,"Duration":303459,"SoundDuration":303459,"Delta":98553688},{"NoteNumber":67,"Velocity":53,"Duration":819224,"SoundDuration":819224,"Delta":98857147},{"NoteNumber":50,"Velocity":39,"Duration":273074,"SoundDuration":273074,"Delta":98857147},{"NoteNumber":59,"Velocity":27,"Duration":273074,"SoundDuration":273074,"Delta":99130222},{"NoteNumber":55,"Velocity":33,"Duration":273074,"SoundDuration":273074,"Delta":99403297},{"NoteNumber":67,"Velocity":44,"Duration":273074,"SoundDuration":273074,"Delta":99676371},{"NoteNumber":59,"Velocity":28,"Duration":273074,"SoundDuration":273074,"Delta":99676371},{"NoteNumber":66,"Velocity":47,"Duration":1191631,"SoundDuration":1191631,"Delta":99949446},{"NoteNumber":71,"Velocity":55,"Duration":340071,"SoundDuration":340071,"Delta":99949446},{"NoteNumber":50,"Velocity":39,"Duration":283393,"SoundDuration":283393,"Delta":99949446},{"NoteNumber":69,"Velocity":44,"Duration":340071,"SoundDuration":340071,"Delta":100232839},{"NoteNumber":60,"Velocity":27,"Duration":283393,"SoundDuration":283393,"Delta":100232839},{"NoteNumber":67,"Velocity":49,"Duration":351683,"SoundDuration":351683,"Delta":100516233},{"NoteNumber":57,"Velocity":32,"Duration":283393,"SoundDuration":283393,"Delta":100516233},{"NoteNumber":69,"Velocity":42,"Duration":321534,"SoundDuration":321534,"Delta":100799626},{"NoteNumber":60,"Velocity":27,"Duration":321534,"SoundDuration":321534,"Delta":100799626},{"NoteNumber":69,"Velocity":53,"Duration":1306336,"SoundDuration":1306336,"Delta":101141078},{"NoteNumber":66,"Velocity":42,"Duration":1306336,"SoundDuration":1306336,"Delta":101141078},{"NoteNumber":55,"Velocity":27,"Duration":2324493,"SoundDuration":2324493,"Delta":101141078},{"NoteNumber":60,"Velocity":36,"Duration":1306336,"SoundDuration":1306336,"Delta":101141078},{"NoteNumber":67,"Velocity":48,"Duration":1018157,"SoundDuration":1018157,"Delta":102447414},{"NoteNumber":59,"Velocity":28,"Duration":1018157,"SoundDuration":1018157,"Delta":102447414},{"NoteNumber":74,"Velocity":50,"Duration":1310565,"SoundDuration":1310565,"Delta":104483728},{"NoteNumber":62,"Velocity":40,"Duration":261187,"SoundDuration":261187,"Delta":104483728},{"NoteNumber":69,"Velocity":25,"Duration":261187,"SoundDuration":261187,"Delta":104744916},{"NoteNumber":66,"Velocity":31,"Duration":261187,"SoundDuration":261187,"Delta":105006103},{"NoteNumber":69,"Velocity":26,"Duration":261187,"SoundDuration":261187,"Delta":105267291},{"NoteNumber":62,"Velocity":40,"Duration":265816,"SoundDuration":265816,"Delta":105528478},{"NoteNumber":73,"Velocity":46,"Duration":318512,"SoundDuration":318512,"Delta":105794294},{"NoteNumber":69,"Velocity":27,"Duration":265816,"SoundDuration":265816,"Delta":105794294},{"NoteNumber":76,"Velocity":49,"Duration":316644,"SoundDuration":316644,"Delta":106060110},{"NoteNumber":66,"Velocity":31,"Duration":263481,"SoundDuration":263481,"Delta":106060110},{"NoteNumber":74,"Velocity":46,"Duration":318979,"SoundDuration":318979,"Delta":106323592},{"NoteNumber":69,"Velocity":26,"Duration":265816,"SoundDuration":265816,"Delta":106336882},{"NoteNumber":79,"Velocity":52,"Duration":318979,"SoundDuration":318979,"Delta":106589408},{"NoteNumber":62,"Velocity":40,"Duration":265816,"SoundDuration":265816,"Delta":106589408},{"NoteNumber":78,"Velocity":46,"Duration":318979,"SoundDuration":318979,"Delta":106855224},{"NoteNumber":69,"Velocity":26,"Duration":265816,"SoundDuration":265816,"Delta":106855224},{"NoteNumber":76,"Velocity":49,"Duration":323035,"SoundDuration":323035,"Delta":107121040},{"NoteNumber":66,"Velocity":32,"Duration":265816,"SoundDuration":265816,"Delta":107121040},{"NoteNumber":74,"Velocity":46,"Duration":338333,"SoundDuration":338333,"Delta":107386856},{"NoteNumber":69,"Velocity":27,"Duration":286095,"SoundDuration":286095,"Delta":107386856},{"NoteNumber":73,"Velocity":50,"Duration":783562,"SoundDuration":783562,"Delta":107672951},{"NoteNumber":64,"Velocity":40,"Duration":261187,"SoundDuration":261187,"Delta":107672951},{"NoteNumber":69,"Velocity":28,"Duration":261187,"SoundDuration":261187,"Delta":107934139},{"NoteNumber":67,"Velocity":32,"Duration":261187,"SoundDuration":261187,"Delta":108195326},{"NoteNumber":74,"Velocity":49,"Duration":273074,"SoundDuration":273074,"Delta":108456514},{"NoteNumber":69,"Velocity":28,"Duration":273074,"SoundDuration":273074,"Delta":108456514},{"NoteNumber":76,"Velocity":53,"Duration":1044749,"SoundDuration":1044749,"Delta":108729589},{"NoteNumber":64,"Velocity":36,"Duration":261187,"SoundDuration":261187,"Delta":108729589},{"NoteNumber":69,"Velocity":28,"Duration":261187,"SoundDuration":261187,"Delta":108990776},{"NoteNumber":67,"Velocity":37,"Duration":261187,"SoundDuration":261187,"Delta":109251964},{"NoteNumber":69,"Velocity":29,"Duration":261187,"SoundDuration":261187,"Delta":109513151},{"NoteNumber":64,"Velocity":41,"Duration":258727,"SoundDuration":258727,"Delta":109774339},{"NoteNumber":69,"Velocity":36,"Duration":262334,"SoundDuration":262334,"Delta":110033066},{"NoteNumber":67,"Velocity":38,"Duration":265357,"SoundDuration":265357,"Delta":110295400},{"NoteNumber":69,"Velocity":29,"Duration":286095,"SoundDuration":286095,"Delta":110560758},{"NoteNumber":76,"Velocity":54,"Duration":1308231,"SoundDuration":1308231,"Delta":110846854},{"NoteNumber":61,"Velocity":42,"Duration":263481,"SoundDuration":263481,"Delta":110846854},{"NoteNumber":69,"Velocity":26,"Duration":261187,"SoundDuration":261187,"Delta":111110335},{"NoteNumber":67,"Velocity":32,"Duration":261187,"SoundDuration":261187,"Delta":111371523},{"NoteNumber":69,"Velocity":27,"Duration":261187,"SoundDuration":261187,"Delta":111632710},{"NoteNumber":61,"Velocity":42,"Duration":261187,"SoundDuration":261187,"Delta":111893898},{"NoteNumber":75,"Velocity":46,"Duration":313883,"SoundDuration":313883,"Delta":112155085},{"NoteNumber":69,"Velocity":28,"Duration":261187,"SoundDuration":261187,"Delta":112155085},{"NoteNumber":78,"Velocity":50,"Duration":316644,"SoundDuration":316644,"Delta":112416273},{"NoteNumber":67,"Velocity":32,"Duration":263481,"SoundDuration":263481,"Delta":112416273},{"NoteNumber":76,"Velocity":46,"Duration":318053,"SoundDuration":318053,"Delta":112679754},{"NoteNumber":69,"Velocity":27,"Duration":265584,"SoundDuration":265584,"Delta":112693045},{"NoteNumber":81,"Velocity":54,"Duration":313424,"SoundDuration":313424,"Delta":112945570},{"NoteNumber":61,"Velocity":42,"Duration":261187,"SoundDuration":261187,"Delta":112945570},{"NoteNumber":79,"Velocity":46,"Duration":313424,"SoundDuration":313424,"Delta":113206758},{"NoteNumber":69,"Velocity":27,"Duration":261187,"SoundDuration":261187,"Delta":113206758},{"NoteNumber":78,"Velocity":49,"Duration":318406,"SoundDuration":318406,"Delta":113467945},{"NoteNumber":67,"Velocity":33,"Duration":261187,"SoundDuration":261187,"Delta":113467945},{"NoteNumber":76,"Velocity":49,"Duration":339734,"SoundDuration":339734,"Delta":113729133},{"NoteNumber":69,"Velocity":28,"Duration":286095,"SoundDuration":286095,"Delta":113729133},{"NoteNumber":74,"Velocity":54,"Duration":797572,"SoundDuration":797572,"Delta":114015228},{"NoteNumber":62,"Velocity":42,"Duration":268192,"SoundDuration":268192,"Delta":114015228},{"NoteNumber":69,"Velocity":29,"Duration":268192,"SoundDuration":268192,"Delta":114283421},{"NoteNumber":66,"Velocity":33,"Duration":261187,"SoundDuration":261187,"Delta":114551613},{"NoteNumber":76,"Velocity":52,"Duration":268192,"SoundDuration":268192,"Delta":114812801},{"NoteNumber":69,"Velocity":29,"Duration":268192,"SoundDuration":268192,"Delta":114812801},{"NoteNumber":78,"Velocity":57,"Duration":1035732,"SoundDuration":1035732,"Delta":115080993},{"NoteNumber":61,"Velocity":46,"Duration":258933,"SoundDuration":258933,"Delta":115080993},{"NoteNumber":69,"Velocity":36,"Duration":258933,"SoundDuration":258933,"Delta":115339927},{"NoteNumber":62,"Velocity":42,"Duration":258933,"SoundDuration":258933,"Delta":115598860},{"NoteNumber":69,"Velocity":38,"Duration":258933,"SoundDuration":258933,"Delta":115857793},{"NoteNumber":59,"Velocity":46,"Duration":258727,"SoundDuration":258727,"Delta":116116726},{"NoteNumber":67,"Velocity":44,"Duration":262334,"SoundDuration":262334,"Delta":116375453},{"NoteNumber":62,"Velocity":49,"Duration":265357,"SoundDuration":265357,"Delta":116637788},{"NoteNumber":67,"Velocity":45,"Duration":265816,"SoundDuration":265816,"Delta":116903145},{"NoteNumber":78,"Velocity":70,"Duration":1301548,"SoundDuration":1301548,"Delta":117168961},{"NoteNumber":57,"Velocity":51,"Duration":258933,"SoundDuration":258933,"Delta":117168961},{"NoteNumber":66,"Velocity":44,"Duration":258933,"SoundDuration":258933,"Delta":117427895},{"NoteNumber":62,"Velocity":47,"Duration":258933,"SoundDuration":258933,"Delta":117686828},{"NoteNumber":66,"Velocity":40,"Duration":258933,"SoundDuration":258933,"Delta":117945761},{"NoteNumber":55,"Velocity":50,"Duration":265816,"SoundDuration":265816,"Delta":118204694},{"NoteNumber":76,"Velocity":57,"Duration":318512,"SoundDuration":318512,"Delta":118470510},{"NoteNumber":64,"Velocity":41,"Duration":265816,"SoundDuration":265816,"Delta":118470510},{"NoteNumber":79,"Velocity":61,"Duration":316644,"SoundDuration":316644,"Delta":118736326},{"NoteNumber":61,"Velocity":49,"Duration":263481,"SoundDuration":263481,"Delta":118736326},{"NoteNumber":78,"Velocity":55,"Duration":317602,"SoundDuration":317602,"Delta":118999808},{"NoteNumber":64,"Velocity":41,"Duration":265816,"SoundDuration":265816,"Delta":118999808},{"NoteNumber":83,"Velocity":65,"Duration":310719,"SoundDuration":310719,"Delta":119265624},{"NoteNumber":54,"Velocity":46,"Duration":258933,"SoundDuration":258933,"Delta":119265624},{"NoteNumber":81,"Velocity":53,"Duration":310719,"SoundDuration":310719,"Delta":119524557},{"NoteNumber":62,"Velocity":33,"Duration":258933,"SoundDuration":258933,"Delta":119524557},{"NoteNumber":79,"Velocity":59,"Duration":314049,"SoundDuration":314049,"Delta":119783490},{"NoteNumber":59,"Velocity":42,"Duration":258933,"SoundDuration":258933,"Delta":119783490},{"NoteNumber":78,"Velocity":53,"Duration":327369,"SoundDuration":327369,"Delta":120042424},{"NoteNumber":62,"Velocity":34,"Duration":275583,"SoundDuration":275583,"Delta":120042424},{"NoteNumber":76,"Velocity":64,"Duration":1301548,"SoundDuration":1301548,"Delta":120318007},{"NoteNumber":59,"Velocity":46,"Duration":258933,"SoundDuration":258933,"Delta":120318007},{"NoteNumber":67,"Velocity":33,"Duration":258933,"SoundDuration":258933,"Delta":120576940},{"NoteNumber":64,"Velocity":41,"Duration":258933,"SoundDuration":258933,"Delta":120835873},{"NoteNumber":67,"Velocity":32,"Duration":258933,"SoundDuration":258933,"Delta":121094807},{"NoteNumber":57,"Velocity":40,"Duration":265816,"SoundDuration":265816,"Delta":121353740},{"NoteNumber":75,"Velocity":55,"Duration":318512,"SoundDuration":318512,"Delta":121619556},{"NoteNumber":66,"Velocity":30,"Duration":265816,"SoundDuration":265816,"Delta":121619556},{"NoteNumber":78,"Velocity":60,"Duration":316644,"SoundDuration":316644,"Delta":121885372},{"NoteNumber":63,"Velocity":40,"Duration":263481,"SoundDuration":263481,"Delta":121885372},{"NoteNumber":76,"Velocity":52,"Duration":318979,"SoundDuration":318979,"Delta":122148853},{"NoteNumber":66,"Velocity":30,"Duration":265816,"SoundDuration":265816,"Delta":122148853},{"NoteNumber":81,"Velocity":62,"Duration":318979,"SoundDuration":318979,"Delta":122414669},{"NoteNumber":55,"Velocity":42,"Duration":265816,"SoundDuration":265816,"Delta":122414669},{"NoteNumber":79,"Velocity":51,"Duration":318979,"SoundDuration":318979,"Delta":122680485},{"NoteNumber":64,"Velocity":29,"Duration":265816,"SoundDuration":265816,"Delta":122680485},{"NoteNumber":78,"Velocity":59,"Duration":323035,"SoundDuration":323035,"Delta":122946301},{"NoteNumber":60,"Velocity":35,"Duration":265816,"SoundDuration":265816,"Delta":122946301},{"NoteNumber":76,"Velocity":53,"Duration":274175,"SoundDuration":274175,"Delta":123212117},{"NoteNumber":64,"Velocity":30,"Duration":286095,"SoundDuration":286095,"Delta":123212117},{"NoteNumber":76,"Velocity":63,"Duration":270611,"SoundDuration":270611,"Delta":123498213},{"NoteNumber":57,"Velocity":40,"Duration":270611,"SoundDuration":270611,"Delta":123498213},{"NoteNumber":74,"Velocity":49,"Duration":270611,"SoundDuration":270611,"Delta":123768825},{"NoteNumber":66,"Velocity":26,"Duration":270611,"SoundDuration":270611,"Delta":123768825},{"NoteNumber":74,"Velocity":55,"Duration":824899,"SoundDuration":824899,"Delta":124039436},{"NoteNumber":62,"Velocity":33,"Duration":270611,"SoundDuration":270611,"Delta":124039436},{"NoteNumber":66,"Velocity":29,"Duration":286095,"SoundDuration":286095,"Delta":124310048},{"NoteNumber":57,"Velocity":39,"Duration":268192,"SoundDuration":268192,"Delta":124596143},{"NoteNumber":69,"Velocity":44,"Duration":268192,"SoundDuration":268192,"Delta":124864336},{"NoteNumber":66,"Velocity":29,"Duration":268192,"SoundDuration":268192,"Delta":124864336},{"NoteNumber":74,"Velocity":46,"Duration":268192,"SoundDuration":268192,"Delta":125132528},{"NoteNumber":62,"Velocity":37,"Duration":268192,"SoundDuration":268192,"Delta":125132528},{"NoteNumber":78,"Velocity":43,"Duration":268192,"SoundDuration":268192,"Delta":125400721},{"NoteNumber":66,"Velocity":29,"Duration":268192,"SoundDuration":268192,"Delta":125400721},{"NoteNumber":73,"Velocity":49,"Duration":1191631,"SoundDuration":1191631,"Delta":125668913},{"NoteNumber":78,"Velocity":58,"Duration":340071,"SoundDuration":340071,"Delta":125668913},{"NoteNumber":57,"Velocity":39,"Duration":283393,"SoundDuration":283393,"Delta":125668913},{"NoteNumber":76,"Velocity":44,"Duration":340071,"SoundDuration":340071,"Delta":125952307},{"NoteNumber":67,"Velocity":30,"Duration":283393,"SoundDuration":283393,"Delta":125952307},{"NoteNumber":74,"Velocity":53,"Duration":351683,"SoundDuration":351683,"Delta":126235700},{"NoteNumber":64,"Velocity":36,"Duration":283393,"SoundDuration":283393,"Delta":126235700},{"NoteNumber":76,"Velocity":45,"Duration":327225,"SoundDuration":327225,"Delta":126519093},{"NoteNumber":67,"Velocity":29,"Duration":327225,"SoundDuration":327225,"Delta":126519093},{"NoteNumber":73,"Velocity":51,"Duration":1306335,"SoundDuration":1306335,"Delta":126860545},{"NoteNumber":76,"Velocity":61,"Duration":1306335,"SoundDuration":1306335,"Delta":126860545},{"NoteNumber":62,"Velocity":34,"Duration":2429300,"SoundDuration":2429300,"Delta":126860545},{"NoteNumber":67,"Velocity":40,"Duration":1306335,"SoundDuration":1306335,"Delta":126860545},{"NoteNumber":74,"Velocity":53,"Duration":210555,"SoundDuration":210555,"Delta":128166881},{"NoteNumber":66,"Velocity":28,"Duration":1122964,"SoundDuration":1122964,"Delta":128166881},{"NoteNumber":75,"Velocity":43,"Duration":308815,"SoundDuration":308815,"Delta":128447623},{"NoteNumber":76,"Velocity":48,"Duration":308815,"SoundDuration":308815,"Delta":128728364},{"NoteNumber":75,"Velocity":42,"Duration":309080,"SoundDuration":309080,"Delta":129009105},{"NoteNumber":78,"Velocity":51,"Duration":311732,"SoundDuration":311732,"Delta":129289846},{"NoteNumber":76,"Velocity":48,"Duration":311732,"SoundDuration":311732,"Delta":129573240},{"NoteNumber":74,"Velocity":46,"Duration":315018,"SoundDuration":315018,"Delta":129856633},{"NoteNumber":72,"Velocity":44,"Duration":343562,"SoundDuration":343562,"Delta":130140026},{"NoteNumber":71,"Velocity":48,"Duration":1358114,"SoundDuration":1358114,"Delta":130456282},{"NoteNumber":55,"Velocity":35,"Duration":273074,"SoundDuration":273074,"Delta":130456282},{"NoteNumber":62,"Velocity":23,"Duration":273074,"SoundDuration":273074,"Delta":130729356},{"NoteNumber":59,"Velocity":31,"Duration":273074,"SoundDuration":273074,"Delta":131002431},{"NoteNumber":62,"Velocity":23,"Duration":273074,"SoundDuration":273074,"Delta":131275506},{"NoteNumber":55,"Velocity":40,"Duration":265816,"SoundDuration":265816,"Delta":131548581},{"NoteNumber":67,"Velocity":44,"Duration":265816,"SoundDuration":265816,"Delta":131814397},{"NoteNumber":62,"Velocity":26,"Duration":265816,"SoundDuration":265816,"Delta":131814397},{"NoteNumber":71,"Velocity":44,"Duration":263481,"SoundDuration":263481,"Delta":132080213},{"NoteNumber":59,"Velocity":32,"Duration":263481,"SoundDuration":263481,"Delta":132080213},{"NoteNumber":74,"Velocity":44,"Duration":265679,"SoundDuration":265679,"Delta":132328324},{"NoteNumber":62,"Velocity":26,"Duration":265816,"SoundDuration":265816,"Delta":132343694},{"NoteNumber":72,"Velocity":50,"Duration":265816,"SoundDuration":265816,"Delta":132609510},{"NoteNumber":57,"Velocity":40,"Duration":265816,"SoundDuration":265816,"Delta":132609510},{"NoteNumber":69,"Velocity":44,"Duration":265816,"SoundDuration":265816,"Delta":132875326},{"NoteNumber":62,"Velocity":26,"Duration":265816,"SoundDuration":265816,"Delta":132875326},{"NoteNumber":72,"Velocity":44,"Duration":265816,"SoundDuration":265816,"Delta":133141142},{"NoteNumber":60,"Velocity":32,"Duration":265816,"SoundDuration":265816,"Delta":133141142},{"NoteNumber":76,"Velocity":44,"Duration":306560,"SoundDuration":306560,"Delta":133406958},{"NoteNumber":62,"Velocity":27,"Duration":306560,"SoundDuration":306560,"Delta":133406958},{"NoteNumber":74,"Velocity":50,"Duration":804577,"SoundDuration":804577,"Delta":133713519},{"NoteNumber":55,"Velocity":40,"Duration":268192,"SoundDuration":268192,"Delta":133713519},{"NoteNumber":62,"Velocity":28,"Duration":268192,"SoundDuration":268192,"Delta":133981711},{"NoteNumber":59,"Velocity":32,"Duration":268192,"SoundDuration":268192,"Delta":134249904},{"NoteNumber":71,"Velocity":47,"Duration":273074,"SoundDuration":273074,"Delta":134518096},{"NoteNumber":62,"Velocity":28,"Duration":273074,"SoundDuration":273074,"Delta":134518096},{"NoteNumber":67,"Velocity":47,"Duration":130593,"SoundDuration":130593,"Delta":134791171},{"NoteNumber":55,"Velocity":40,"Duration":261187,"SoundDuration":261187,"Delta":134791171},{"NoteNumber":67,"Velocity":46,"Duration":130593,"SoundDuration":130593,"Delta":135052358},{"NoteNumber":62,"Velocity":29,"Duration":261187,"SoundDuration":261187,"Delta":135052358},{"NoteNumber":69,"Velocity":47,"Duration":130593,"SoundDuration":130593,"Delta":135313546},{"NoteNumber":59,"Velocity":33,"Duration":261187,"SoundDuration":261187,"Delta":135313546},{"NoteNumber":71,"Velocity":48,"Duration":130593,"SoundDuration":130593,"Delta":135574733},{"NoteNumber":62,"Velocity":30,"Duration":261187,"SoundDuration":261187,"Delta":135574733},{"NoteNumber":72,"Velocity":48,"Duration":129252,"SoundDuration":129252,"Delta":135835921},{"NoteNumber":55,"Velocity":41,"Duration":258054,"SoundDuration":258054,"Delta":135835921},{"NoteNumber":74,"Velocity":51,"Duration":129692,"SoundDuration":129692,"Delta":136093976},{"NoteNumber":62,"Velocity":30,"Duration":260744,"SoundDuration":260744,"Delta":136093976},{"NoteNumber":76,"Velocity":52,"Duration":131974,"SoundDuration":131974,"Delta":136354720},{"NoteNumber":59,"Velocity":33,"Duration":265357,"SoundDuration":265357,"Delta":136354720},{"NoteNumber":78,"Velocity":54,"Duration":143047,"SoundDuration":143047,"Delta":136620078},{"NoteNumber":62,"Velocity":29,"Duration":286095,"SoundDuration":286095,"Delta":136620078},{"NoteNumber":79,"Velocity":56,"Duration":318979,"SoundDuration":318979,"Delta":136906173},{"NoteNumber":55,"Velocity":43,"Duration":265816,"SoundDuration":265816,"Delta":136906173},{"NoteNumber":78,"Velocity":50,"Duration":318979,"SoundDuration":318979,"Delta":137171989},{"NoteNumber":64,"Velocity":29,"Duration":265816,"SoundDuration":265816,"Delta":137171989},{"NoteNumber":79,"Velocity":56,"Duration":318979,"SoundDuration":318979,"Delta":137437805},{"NoteNumber":60,"Velocity":34,"Duration":265816,"SoundDuration":265816,"Delta":137437805},{"NoteNumber":78,"Velocity":52,"Duration":318979,"SoundDuration":318979,"Delta":137703621},{"NoteNumber":64,"Velocity":30,"Duration":265816,"SoundDuration":265816,"Delta":137703621},{"NoteNumber":81,"Velocity":56,"Duration":318979,"SoundDuration":318979,"Delta":137969437},{"NoteNumber":55,"Velocity":44,"Duration":265816,"SoundDuration":265816,"Delta":137969437},{"NoteNumber":79,"Velocity":54,"Duration":318979,"SoundDuration":318979,"Delta":138235253},{"NoteNumber":64,"Velocity":34,"Duration":265816,"SoundDuration":265816,"Delta":138235253},{"NoteNumber":78,"Velocity":53,"Duration":318979,"SoundDuration":318979,"Delta":138501069},{"NoteNumber":60,"Velocity":39,"Duration":265816,"SoundDuration":265816,"Delta":138501069},{"NoteNumber":79,"Velocity":49,"Duration":319938,"SoundDuration":319938,"Delta":138766885},{"NoteNumber":64,"Velocity":34,"Duration":265816,"SoundDuration":265816,"Delta":138766885},{"NoteNumber":78,"Velocity":52,"Duration":324733,"SoundDuration":324733,"Delta":139032701},{"NoteNumber":55,"Velocity":40,"Duration":270611,"SoundDuration":270611,"Delta":139032701},{"NoteNumber":76,"Velocity":50,"Duration":324733,"SoundDuration":324733,"Delta":139303313},{"NoteNumber":61,"Velocity":26,"Duration":270611,"SoundDuration":270611,"Delta":139303313},{"NoteNumber":74,"Velocity":48,"Duration":328381,"SoundDuration":328381,"Delta":139573924},{"NoteNumber":58,"Velocity":34,"Duration":270611,"SoundDuration":270611,"Delta":139573924},{"NoteNumber":73,"Velocity":46,"Duration":342013,"SoundDuration":342013,"Delta":139844536},{"NoteNumber":61,"Velocity":27,"Duration":288850,"SoundDuration":288850,"Delta":139844536},{"NoteNumber":74,"Velocity":50,"Duration":265816,"SoundDuration":265816,"Delta":140133386},{"NoteNumber":55,"Velocity":40,"Duration":265816,"SoundDuration":265816,"Delta":140133386},{"NoteNumber":71,"Velocity":43,"Duration":265816,"SoundDuration":265816,"Delta":140399202},{"NoteNumber":62,"Velocity":24,"Duration":265816,"SoundDuration":265816,"Delta":140399202},{"NoteNumber":74,"Velocity":47,"Duration":265816,"SoundDuration":265816,"Delta":140665018},{"NoteNumber":59,"Velocity":31,"Duration":265816,"SoundDuration":265816,"Delta":140665018},{"NoteNumber":71,"Velocity":43,"Duration":283393,"SoundDuration":283393,"Delta":140930834},{"NoteNumber":62,"Velocity":27,"Duration":283393,"SoundDuration":283393,"Delta":140930834},{"NoteNumber":67,"Velocity":47,"Duration":1082446,"SoundDuration":1082446,"Delta":141214228},{"NoteNumber":55,"Velocity":40,"Duration":270611,"SoundDuration":270611,"Delta":141214228},{"NoteNumber":62,"Velocity":26,"Duration":270611,"SoundDuration":270611,"Delta":141484839},{"NoteNumber":59,"Velocity":33,"Duration":270611,"SoundDuration":270611,"Delta":141755451},{"NoteNumber":62,"Velocity":27,"Duration":270611,"SoundDuration":270611,"Delta":142026062},{"NoteNumber":55,"Velocity":41,"Duration":270611,"SoundDuration":270611,"Delta":142296674},{"NoteNumber":62,"Velocity":30,"Duration":270611,"SoundDuration":270611,"Delta":142567285},{"NoteNumber":59,"Velocity":33,"Duration":270611,"SoundDuration":270611,"Delta":142837897},{"NoteNumber":62,"Velocity":29,"Duration":270611,"SoundDuration":270611,"Delta":143108508},{"NoteNumber":72,"Velocity":50,"Duration":268192,"SoundDuration":268192,"Delta":143379120},{"NoteNumber":57,"Velocity":40,"Duration":268192,"SoundDuration":268192,"Delta":143379120},{"NoteNumber":69,"Velocity":46,"Duration":268192,"SoundDuration":268192,"Delta":143647312},{"NoteNumber":62,"Velocity":27,"Duration":268192,"SoundDuration":268192,"Delta":143647312},{"NoteNumber":72,"Velocity":46,"Duration":268192,"SoundDuration":268192,"Delta":143915505},{"NoteNumber":60,"Velocity":32,"Duration":268192,"SoundDuration":268192,"Delta":143915505},{"NoteNumber":69,"Velocity":43,"Duration":266779,"SoundDuration":266779,"Delta":144183697},{"NoteNumber":62,"Velocity":27,"Duration":266779,"SoundDuration":266779,"Delta":144183697},{"NoteNumber":66,"Velocity":50,"Duration":132674,"SoundDuration":132674,"Delta":144450476},{"NoteNumber":57,"Velocity":40,"Duration":265582,"SoundDuration":265582,"Delta":144450476},{"NoteNumber":69,"Velocity":45,"Duration":265816,"SoundDuration":265816,"Delta":144716059},{"NoteNumber":62,"Velocity":30,"Duration":265816,"SoundDuration":265816,"Delta":144716059},{"NoteNumber":68,"Velocity":47,"Duration":265816,"SoundDuration":265816,"Delta":144981875},{"NoteNumber":60,"Velocity":33,"Duration":265816,"SoundDuration":265816,"Delta":144981875},{"NoteNumber":69,"Velocity":49,"Duration":265115,"SoundDuration":265115,"Delta":145247691},{"NoteNumber":62,"Velocity":28,"Duration":265115,"SoundDuration":265115,"Delta":145247691},{"NoteNumber":70,"Velocity":50,"Duration":263481,"SoundDuration":263481,"Delta":145512807},{"NoteNumber":57,"Velocity":40,"Duration":263481,"SoundDuration":263481,"Delta":145512807},{"NoteNumber":71,"Velocity":50,"Duration":265816,"SoundDuration":265816,"Delta":145776288},{"NoteNumber":62,"Velocity":26,"Duration":265816,"SoundDuration":265816,"Delta":145776288},{"NoteNumber":72,"Velocity":53,"Duration":265816,"SoundDuration":265816,"Delta":146042104},{"NoteNumber":60,"Velocity":34,"Duration":265816,"SoundDuration":265816,"Delta":146042104},{"NoteNumber":73,"Velocity":55,"Duration":256717,"SoundDuration":256717,"Delta":146307920},{"NoteNumber":62,"Velocity":27,"Duration":256717,"SoundDuration":256717,"Delta":146307920},{"NoteNumber":74,"Velocity":58,"Duration":258933,"SoundDuration":258933,"Delta":146564638},{"NoteNumber":55,"Velocity":40,"Duration":258933,"SoundDuration":258933,"Delta":146564638},{"NoteNumber":71,"Velocity":51,"Duration":265816,"SoundDuration":265816,"Delta":146823571},{"NoteNumber":62,"Velocity":28,"Duration":265816,"SoundDuration":265816,"Delta":146823571},{"NoteNumber":74,"Velocity":54,"Duration":265816,"SoundDuration":265816,"Delta":147089387},{"NoteNumber":59,"Velocity":36,"Duration":265816,"SoundDuration":265816,"Delta":147089387},{"NoteNumber":71,"Velocity":51,"Duration":265816,"SoundDuration":265816,"Delta":147355203},{"NoteNumber":62,"Velocity":33,"Duration":265816,"SoundDuration":265816,"Delta":147355203},{"NoteNumber":79,"Velocity":61,"Duration":1063264,"SoundDuration":1063264,"Delta":147621019},{"NoteNumber":52,"Velocity":46,"Duration":265816,"SoundDuration":265816,"Delta":147621019},{"NoteNumber":59,"Velocity":42,"Duration":265816,"SoundDuration":265816,"Delta":147886835},{"NoteNumber":55,"Velocity":48,"Duration":265816,"SoundDuration":265816,"Delta":148152651},{"NoteNumber":59,"Velocity":44,"Duration":265816,"SoundDuration":265816,"Delta":148418467},{"NoteNumber":47,"Velocity":51,"Duration":275583,"SoundDuration":275583,"Delta":148684283},{"NoteNumber":83,"Velocity":62,"Duration":324733,"SoundDuration":324733,"Delta":148959866},{"NoteNumber":55,"Velocity":39,"Duration":270611,"SoundDuration":270611,"Delta":148959866},{"NoteNumber":78,"Velocity":59,"Duration":330099,"SoundDuration":330099,"Delta":149230478},{"NoteNumber":50,"Velocity":47,"Duration":270611,"SoundDuration":270611,"Delta":149230478},{"NoteNumber":79,"Velocity":56,"Duration":297441,"SoundDuration":297441,"Delta":149501089},{"NoteNumber":55,"Velocity":34,"Duration":297441,"SoundDuration":297441,"Delta":149501089},{"NoteNumber":75,"Velocity":58,"Duration":324733,"SoundDuration":324733,"Delta":149798531},{"NoteNumber":48,"Velocity":40,"Duration":270611,"SoundDuration":270611,"Delta":149798531},{"NoteNumber":76,"Velocity":49,"Duration":324733,"SoundDuration":324733,"Delta":150069143},{"NoteNumber":57,"Velocity":26,"Duration":270611,"SoundDuration":270611,"Delta":150069143},{"NoteNumber":72,"Velocity":53,"Duration":331303,"SoundDuration":331303,"Delta":150339754},{"NoteNumber":52,"Velocity":33,"Duration":270611,"SoundDuration":270611,"Delta":150339754},{"NoteNumber":69,"Velocity":46,"Duration":358074,"SoundDuration":358074,"Delta":150610366},{"NoteNumber":57,"Velocity":25,"Duration":303459,"SoundDuration":303459,"Delta":150610366},{"NoteNumber":67,"Velocity":53,"Duration":819224,"SoundDuration":819224,"Delta":150913825},{"NoteNumber":50,"Velocity":39,"Duration":273074,"SoundDuration":273074,"Delta":150913825},{"NoteNumber":59,"Velocity":27,"Duration":273074,"SoundDuration":273074,"Delta":151186900},{"NoteNumber":55,"Velocity":32,"Duration":273074,"SoundDuration":273074,"Delta":151459975},{"NoteNumber":67,"Velocity":44,"Duration":273074,"SoundDuration":273074,"Delta":151733049},{"NoteNumber":59,"Velocity":27,"Duration":273074,"SoundDuration":273074,"Delta":151733049},{"NoteNumber":66,"Velocity":47,"Duration":1191631,"SoundDuration":1191631,"Delta":152006124},{"NoteNumber":71,"Velocity":55,"Duration":340071,"SoundDuration":340071,"Delta":152006124},{"NoteNumber":50,"Velocity":39,"Duration":283393,"SoundDuration":283393,"Delta":152006124},{"NoteNumber":69,"Velocity":44,"Duration":340071,"SoundDuration":340071,"Delta":152289517},{"NoteNumber":60,"Velocity":27,"Duration":283393,"SoundDuration":283393,"Delta":152289517},{"NoteNumber":67,"Velocity":49,"Duration":351683,"SoundDuration":351683,"Delta":152572911},{"NoteNumber":57,"Velocity":33,"Duration":283393,"SoundDuration":283393,"Delta":152572911},{"NoteNumber":69,"Velocity":42,"Duration":327225,"SoundDuration":327225,"Delta":152856304},{"NoteNumber":60,"Velocity":29,"Duration":327225,"SoundDuration":327225,"Delta":152856304},{"NoteNumber":66,"Velocity":42,"Duration":1306335,"SoundDuration":1306335,"Delta":153197756},{"NoteNumber":69,"Velocity":53,"Duration":1306335,"SoundDuration":1306335,"Delta":153197756},{"NoteNumber":55,"Velocity":27,"Duration":2324492,"SoundDuration":2324492,"Delta":153197756},{"NoteNumber":60,"Velocity":36,"Duration":1306335,"SoundDuration":1306335,"Delta":153197756},{"NoteNumber":67,"Velocity":48,"Duration":1018157,"SoundDuration":1018157,"Delta":154504092},{"NoteNumber":59,"Velocity":28,"Duration":1018157,"SoundDuration":1018157,"Delta":154504092},{"NoteNumber":74,"Velocity":50,"Duration":1310565,"SoundDuration":1310565,"Delta":156540406},{"NoteNumber":62,"Velocity":40,"Duration":261187,"SoundDuration":261187,"Delta":156540406},{"NoteNumber":69,"Velocity":25,"Duration":261187,"SoundDuration":261187,"Delta":156801594},{"NoteNumber":66,"Velocity":31,"Duration":261187,"SoundDuration":261187,"Delta":157062781},{"NoteNumber":69,"Velocity":26,"Duration":261187,"SoundDuration":261187,"Delta":157323969},{"NoteNumber":62,"Velocity":40,"Duration":265816,"SoundDuration":265816,"Delta":157585156},{"NoteNumber":73,"Velocity":46,"Duration":318512,"SoundDuration":318512,"Delta":157850972},{"NoteNumber":69,"Velocity":27,"Duration":265816,"SoundDuration":265816,"Delta":157850972},{"NoteNumber":76,"Velocity":49,"Duration":316644,"SoundDuration":316644,"Delta":158116788},{"NoteNumber":66,"Velocity":31,"Duration":263481,"SoundDuration":263481,"Delta":158116788},{"NoteNumber":74,"Velocity":46,"Duration":318979,"SoundDuration":318979,"Delta":158380270},{"NoteNumber":69,"Velocity":26,"Duration":265816,"SoundDuration":265816,"Delta":158393560},{"NoteNumber":79,"Velocity":52,"Duration":318979,"SoundDuration":318979,"Delta":158646086},{"NoteNumber":62,"Velocity":40,"Duration":265816,"SoundDuration":265816,"Delta":158646086},{"NoteNumber":78,"Velocity":46,"Duration":318979,"SoundDuration":318979,"Delta":158911902},{"NoteNumber":69,"Velocity":26,"Duration":265816,"SoundDuration":265816,"Delta":158911902},{"NoteNumber":76,"Velocity":49,"Duration":323035,"SoundDuration":323035,"Delta":159177718},{"NoteNumber":66,"Velocity":32,"Duration":265816,"SoundDuration":265816,"Delta":159177718},{"NoteNumber":74,"Velocity":46,"Duration":338333,"SoundDuration":338333,"Delta":159443534},{"NoteNumber":69,"Velocity":27,"Duration":286095,"SoundDuration":286095,"Delta":159443534},{"NoteNumber":73,"Velocity":50,"Duration":783562,"SoundDuration":783562,"Delta":159729629},{"NoteNumber":64,"Velocity":40,"Duration":261187,"SoundDuration":261187,"Delta":159729629},{"NoteNumber":69,"Velocity":28,"Duration":261187,"SoundDuration":261187,"Delta":159990817},{"NoteNumber":67,"Velocity":32,"Duration":261187,"SoundDuration":261187,"Delta":160252004},{"NoteNumber":74,"Velocity":49,"Duration":273074,"SoundDuration":273074,"Delta":160513192},{"NoteNumber":69,"Velocity":28,"Duration":273074,"SoundDuration":273074,"Delta":160513192},{"NoteNumber":76,"Velocity":53,"Duration":1044749,"SoundDuration":1044749,"Delta":160786267},{"NoteNumber":64,"Velocity":36,"Duration":261187,"SoundDuration":261187,"Delta":160786267},{"NoteNumber":69,"Velocity":28,"Duration":261187,"SoundDuration":261187,"Delta":161047454},{"NoteNumber":67,"Velocity":37,"Duration":261187,"SoundDuration":261187,"Delta":161308642},{"NoteNumber":69,"Velocity":29,"Duration":261187,"SoundDuration":261187,"Delta":161569829},{"NoteNumber":64,"Velocity":41,"Duration":258727,"SoundDuration":258727,"Delta":161831017},{"NoteNumber":69,"Velocity":36,"Duration":262334,"SoundDuration":262334,"Delta":162089744},{"NoteNumber":67,"Velocity":38,"Duration":265357,"SoundDuration":265357,"Delta":162352078},{"NoteNumber":69,"Velocity":29,"Duration":286095,"SoundDuration":286095,"Delta":162617436},{"NoteNumber":76,"Velocity":54,"Duration":1308231,"SoundDuration":1308231,"Delta":162903532},{"NoteNumber":61,"Velocity":42,"Duration":263481,"SoundDuration":263481,"Delta":162903532},{"NoteNumber":69,"Velocity":26,"Duration":261187,"SoundDuration":261187,"Delta":163167013},{"NoteNumber":67,"Velocity":32,"Duration":261187,"SoundDuration":261187,"Delta":163428201},{"NoteNumber":69,"Velocity":27,"Duration":261187,"SoundDuration":261187,"Delta":163689388},{"NoteNumber":61,"Velocity":42,"Duration":261187,"SoundDuration":261187,"Delta":163950576},{"NoteNumber":75,"Velocity":46,"Duration":313883,"SoundDuration":313883,"Delta":164211763},{"NoteNumber":69,"Velocity":28,"Duration":261187,"SoundDuration":261187,"Delta":164211763},{"NoteNumber":78,"Velocity":50,"Duration":316644,"SoundDuration":316644,"Delta":164472951},{"NoteNumber":67,"Velocity":32,"Duration":263481,"SoundDuration":263481,"Delta":164472951},{"NoteNumber":76,"Velocity":46,"Duration":318053,"SoundDuration":318053,"Delta":164736432},{"NoteNumber":69,"Velocity":27,"Duration":265584,"SoundDuration":265584,"Delta":164749723},{"NoteNumber":81,"Velocity":54,"Duration":313424,"SoundDuration":313424,"Delta":165002248},{"NoteNumber":61,"Velocity":42,"Duration":261187,"SoundDuration":261187,"Delta":165002248},{"NoteNumber":79,"Velocity":46,"Duration":313424,"SoundDuration":313424,"Delta":165263436},{"NoteNumber":69,"Velocity":27,"Duration":261187,"SoundDuration":261187,"Delta":165263436},{"NoteNumber":78,"Velocity":49,"Duration":318406,"SoundDuration":318406,"Delta":165524623},{"NoteNumber":67,"Velocity":33,"Duration":261187,"SoundDuration":261187,"Delta":165524623},{"NoteNumber":76,"Velocity":49,"Duration":339734,"SoundDuration":339734,"Delta":165785811},{"NoteNumber":69,"Velocity":28,"Duration":286095,"SoundDuration":286095,"Delta":165785811},{"NoteNumber":74,"Velocity":54,"Duration":797572,"SoundDuration":797572,"Delta":166071906},{"NoteNumber":62,"Velocity":42,"Duration":268192,"SoundDuration":268192,"Delta":166071906},{"NoteNumber":69,"Velocity":29,"Duration":268192,"SoundDuration":268192,"Delta":166340099},{"NoteNumber":66,"Velocity":33,"Duration":261187,"SoundDuration":261187,"Delta":166608291},{"NoteNumber":76,"Velocity":52,"Duration":268192,"SoundDuration":268192,"Delta":166869479},{"NoteNumber":69,"Velocity":29,"Duration":268192,"SoundDuration":268192,"Delta":166869479},{"NoteNumber":78,"Velocity":57,"Duration":1035732,"SoundDuration":1035732,"Delta":167137671},{"NoteNumber":61,"Velocity":46,"Duration":258933,"SoundDuration":258933,"Delta":167137671},{"NoteNumber":69,"Velocity":36,"Duration":258933,"SoundDuration":258933,"Delta":167396605},{"NoteNumber":62,"Velocity":42,"Duration":258933,"SoundDuration":258933,"Delta":167655538},{"NoteNumber":69,"Velocity":38,"Duration":258933,"SoundDuration":258933,"Delta":167914471},{"NoteNumber":59,"Velocity":46,"Duration":258727,"SoundDuration":258727,"Delta":168173404},{"NoteNumber":67,"Velocity":44,"Duration":262334,"SoundDuration":262334,"Delta":168432132},{"NoteNumber":62,"Velocity":49,"Duration":265357,"SoundDuration":265357,"Delta":168694466},{"NoteNumber":67,"Velocity":45,"Duration":265816,"SoundDuration":265816,"Delta":168959824},{"NoteNumber":78,"Velocity":70,"Duration":1296920,"SoundDuration":1296920,"Delta":169225640},{"NoteNumber":57,"Velocity":51,"Duration":258933,"SoundDuration":258933,"Delta":169225640},{"NoteNumber":66,"Velocity":44,"Duration":258933,"SoundDuration":258933,"Delta":169484573},{"NoteNumber":62,"Velocity":47,"Duration":258933,"SoundDuration":258933,"Delta":169743506},{"NoteNumber":66,"Velocity":40,"Duration":258933,"SoundDuration":258933,"Delta":170002439},{"NoteNumber":55,"Velocity":50,"Duration":261187,"SoundDuration":261187,"Delta":170261373},{"NoteNumber":76,"Velocity":57,"Duration":313883,"SoundDuration":313883,"Delta":170522560},{"NoteNumber":64,"Velocity":41,"Duration":261187,"SoundDuration":261187,"Delta":170522560},{"NoteNumber":79,"Velocity":61,"Duration":316644,"SoundDuration":316644,"Delta":170783748},{"NoteNumber":61,"Velocity":49,"Duration":263481,"SoundDuration":263481,"Delta":170783748},{"NoteNumber":78,"Velocity":55,"Duration":317602,"SoundDuration":317602,"Delta":171047229},{"NoteNumber":64,"Velocity":41,"Duration":265816,"SoundDuration":265816,"Delta":171047229},{"NoteNumber":83,"Velocity":65,"Duration":310719,"SoundDuration":310719,"Delta":171313045},{"NoteNumber":54,"Velocity":46,"Duration":258933,"SoundDuration":258933,"Delta":171313045},{"NoteNumber":81,"Velocity":53,"Duration":311629,"SoundDuration":311629,"Delta":171571978},{"NoteNumber":62,"Velocity":33,"Duration":258933,"SoundDuration":258933,"Delta":171571978},{"NoteNumber":79,"Velocity":59,"Duration":318598,"SoundDuration":318598,"Delta":171830912},{"NoteNumber":59,"Velocity":42,"Duration":263481,"SoundDuration":263481,"Delta":171830912},{"NoteNumber":78,"Velocity":53,"Duration":327369,"SoundDuration":327369,"Delta":172094393},{"NoteNumber":62,"Velocity":34,"Duration":275583,"SoundDuration":275583,"Delta":172094393},{"NoteNumber":76,"Velocity":64,"Duration":1301548,"SoundDuration":1301548,"Delta":172369976},{"NoteNumber":59,"Velocity":46,"Duration":258933,"SoundDuration":258933,"Delta":172369976},{"NoteNumber":67,"Velocity":33,"Duration":258933,"SoundDuration":258933,"Delta":172628910},{"NoteNumber":64,"Velocity":41,"Duration":258933,"SoundDuration":258933,"Delta":172887843},{"NoteNumber":67,"Velocity":32,"Duration":258933,"SoundDuration":258933,"Delta":173146776},{"NoteNumber":57,"Velocity":40,"Duration":265816,"SoundDuration":265816,"Delta":173405709},{"NoteNumber":75,"Velocity":55,"Duration":318512,"SoundDuration":318512,"Delta":173671525},{"NoteNumber":66,"Velocity":30,"Duration":265816,"SoundDuration":265816,"Delta":173671525},{"NoteNumber":78,"Velocity":60,"Duration":316644,"SoundDuration":316644,"Delta":173937341},{"NoteNumber":63,"Velocity":40,"Duration":263481,"SoundDuration":263481,"Delta":173937341},{"NoteNumber":76,"Velocity":52,"Duration":318512,"SoundDuration":318512,"Delta":174200823},{"NoteNumber":66,"Velocity":30,"Duration":265816,"SoundDuration":265816,"Delta":174200823},{"NoteNumber":81,"Velocity":62,"Duration":317603,"SoundDuration":317603,"Delta":174466639},{"NoteNumber":55,"Velocity":42,"Duration":263481,"SoundDuration":263481,"Delta":174466639},{"NoteNumber":79,"Velocity":51,"Duration":324733,"SoundDuration":324733,"Delta":174730120},{"NoteNumber":64,"Velocity":29,"Duration":270611,"SoundDuration":270611,"Delta":174730120},{"NoteNumber":78,"Velocity":59,"Duration":327830,"SoundDuration":327830,"Delta":175000732},{"NoteNumber":60,"Velocity":35,"Duration":270611,"SoundDuration":270611,"Delta":175000732},{"NoteNumber":76,"Velocity":53,"Duration":274175,"SoundDuration":274175,"Delta":175271343},{"NoteNumber":64,"Velocity":30,"Duration":286095,"SoundDuration":286095,"Delta":175271343},{"NoteNumber":76,"Velocity":63,"Duration":270611,"SoundDuration":270611,"Delta":175557439},{"NoteNumber":57,"Velocity":40,"Duration":270611,"SoundDuration":270611,"Delta":175557439},{"NoteNumber":74,"Velocity":49,"Duration":270611,"SoundDuration":270611,"Delta":175828051},{"NoteNumber":66,"Velocity":26,"Duration":270611,"SoundDuration":270611,"Delta":175828051},{"NoteNumber":74,"Velocity":55,"Duration":824899,"SoundDuration":824899,"Delta":176098662},{"NoteNumber":62,"Velocity":33,"Duration":270611,"SoundDuration":270611,"Delta":176098662},{"NoteNumber":66,"Velocity":29,"Duration":286095,"SoundDuration":286095,"Delta":176369274},{"NoteNumber":57,"Velocity":39,"Duration":268192,"SoundDuration":268192,"Delta":176655369},{"NoteNumber":69,"Velocity":44,"Duration":268192,"SoundDuration":268192,"Delta":176923562},{"NoteNumber":66,"Velocity":29,"Duration":268192,"SoundDuration":268192,"Delta":176923562},{"NoteNumber":74,"Velocity":46,"Duration":268192,"SoundDuration":268192,"Delta":177191754},{"NoteNumber":62,"Velocity":37,"Duration":268192,"SoundDuration":268192,"Delta":177191754},{"NoteNumber":78,"Velocity":43,"Duration":268192,"SoundDuration":268192,"Delta":177459947},{"NoteNumber":66,"Velocity":29,"Duration":268192,"SoundDuration":268192,"Delta":177459947},{"NoteNumber":73,"Velocity":49,"Duration":1191631,"SoundDuration":1191631,"Delta":177728139},{"NoteNumber":78,"Velocity":58,"Duration":340071,"SoundDuration":340071,"Delta":177728139},{"NoteNumber":57,"Velocity":39,"Duration":283393,"SoundDuration":283393,"Delta":177728139},{"NoteNumber":76,"Velocity":44,"Duration":340071,"SoundDuration":340071,"Delta":178011533},{"NoteNumber":67,"Velocity":30,"Duration":283393,"SoundDuration":283393,"Delta":178011533},{"NoteNumber":74,"Velocity":53,"Duration":351683,"SoundDuration":351683,"Delta":178294926},{"NoteNumber":64,"Velocity":36,"Duration":283393,"SoundDuration":283393,"Delta":178294926},{"NoteNumber":76,"Velocity":45,"Duration":327225,"SoundDuration":327225,"Delta":178578319},{"NoteNumber":67,"Velocity":29,"Duration":327225,"SoundDuration":327225,"Delta":178578319},{"NoteNumber":73,"Velocity":51,"Duration":1306335,"SoundDuration":1306335,"Delta":178919771},{"NoteNumber":76,"Velocity":61,"Duration":1306335,"SoundDuration":1306335,"Delta":178919771},{"NoteNumber":67,"Velocity":40,"Duration":1306335,"SoundDuration":1306335,"Delta":178919771},{"NoteNumber":62,"Velocity":34,"Duration":2450823,"SoundDuration":2450823,"Delta":178919771},{"NoteNumber":74,"Velocity":53,"Duration":216637,"SoundDuration":216637,"Delta":180226107},{"NoteNumber":66,"Velocity":28,"Duration":1144487,"SoundDuration":1144487,"Delta":180226107},{"NoteNumber":75,"Velocity":43,"Duration":317189,"SoundDuration":317189,"Delta":180514958},{"NoteNumber":76,"Velocity":48,"Duration":311732,"SoundDuration":311732,"Delta":180803808},{"NoteNumber":75,"Velocity":42,"Duration":311732,"SoundDuration":311732,"Delta":181087202},{"NoteNumber":78,"Velocity":51,"Duration":312002,"SoundDuration":312002,"Delta":181370595},{"NoteNumber":76,"Velocity":48,"Duration":314705,"SoundDuration":314705,"Delta":181653988},{"NoteNumber":74,"Velocity":46,"Duration":317721,"SoundDuration":317721,"Delta":181940084},{"NoteNumber":72,"Velocity":44,"Duration":343562,"SoundDuration":343562,"Delta":182226180},{"NoteNumber":71,"Velocity":48,"Duration":1358114,"SoundDuration":1358114,"Delta":182542435},{"NoteNumber":55,"Velocity":35,"Duration":273074,"SoundDuration":273074,"Delta":182542435},{"NoteNumber":62,"Velocity":23,"Duration":273074,"SoundDuration":273074,"Delta":182815510},{"NoteNumber":59,"Velocity":31,"Duration":273074,"SoundDuration":273074,"Delta":183088585},{"NoteNumber":62,"Velocity":23,"Duration":273074,"SoundDuration":273074,"Delta":183361659},{"NoteNumber":55,"Velocity":40,"Duration":265816,"SoundDuration":265816,"Delta":183634734},{"NoteNumber":67,"Velocity":44,"Duration":265816,"SoundDuration":265816,"Delta":183900550},{"NoteNumber":62,"Velocity":26,"Duration":265816,"SoundDuration":265816,"Delta":183900550},{"NoteNumber":71,"Velocity":44,"Duration":263481,"SoundDuration":263481,"Delta":184166366},{"NoteNumber":59,"Velocity":32,"Duration":263481,"SoundDuration":263481,"Delta":184166366},{"NoteNumber":74,"Velocity":44,"Duration":265679,"SoundDuration":265679,"Delta":184414478},{"NoteNumber":62,"Velocity":26,"Duration":265816,"SoundDuration":265816,"Delta":184429848},{"NoteNumber":72,"Velocity":50,"Duration":265816,"SoundDuration":265816,"Delta":184695664},{"NoteNumber":57,"Velocity":40,"Duration":265816,"SoundDuration":265816,"Delta":184695664},{"NoteNumber":69,"Velocity":44,"Duration":265816,"SoundDuration":265816,"Delta":184961480},{"NoteNumber":62,"Velocity":26,"Duration":265816,"SoundDuration":265816,"Delta":184961480},{"NoteNumber":72,"Velocity":44,"Duration":265816,"SoundDuration":265816,"Delta":185227296},{"NoteNumber":60,"Velocity":32,"Duration":265816,"SoundDuration":265816,"Delta":185227296},{"NoteNumber":76,"Velocity":44,"Duration":306560,"SoundDuration":306560,"Delta":185493112},{"NoteNumber":62,"Velocity":27,"Duration":306560,"SoundDuration":306560,"Delta":185493112},{"NoteNumber":74,"Velocity":50,"Duration":804577,"SoundDuration":804577,"Delta":185799672},{"NoteNumber":55,"Velocity":40,"Duration":268192,"SoundDuration":268192,"Delta":185799672},{"NoteNumber":62,"Velocity":28,"Duration":268192,"SoundDuration":268192,"Delta":186067865},{"NoteNumber":59,"Velocity":32,"Duration":268192,"SoundDuration":268192,"Delta":186336057},{"NoteNumber":71,"Velocity":47,"Duration":273074,"SoundDuration":273074,"Delta":186604250},{"NoteNumber":62,"Velocity":28,"Duration":273074,"SoundDuration":273074,"Delta":186604250},{"NoteNumber":67,"Velocity":47,"Duration":130593,"SoundDuration":130593,"Delta":186877324},{"NoteNumber":55,"Velocity":40,"Duration":261187,"SoundDuration":261187,"Delta":186877324},{"NoteNumber":67,"Velocity":46,"Duration":130593,"SoundDuration":130593,"Delta":187138512},{"NoteNumber":62,"Velocity":29,"Duration":261187,"SoundDuration":261187,"Delta":187138512},{"NoteNumber":69,"Velocity":47,"Duration":130593,"SoundDuration":130593,"Delta":187399699},{"NoteNumber":59,"Velocity":33,"Duration":261187,"SoundDuration":261187,"Delta":187399699},{"NoteNumber":71,"Velocity":48,"Duration":130593,"SoundDuration":130593,"Delta":187660887},{"NoteNumber":62,"Velocity":30,"Duration":261118,"SoundDuration":261118,"Delta":187660887},{"NoteNumber":72,"Velocity":48,"Duration":131740,"SoundDuration":131740,"Delta":187922006},{"NoteNumber":55,"Velocity":41,"Duration":264337,"SoundDuration":264337,"Delta":187922006},{"NoteNumber":74,"Velocity":51,"Duration":133066,"SoundDuration":133066,"Delta":188186343},{"NoteNumber":62,"Velocity":30,"Duration":267162,"SoundDuration":267162,"Delta":188186343},{"NoteNumber":76,"Velocity":52,"Duration":134745,"SoundDuration":134745,"Delta":188453506},{"NoteNumber":59,"Velocity":33,"Duration":268128,"SoundDuration":268128,"Delta":188453506},{"NoteNumber":78,"Velocity":54,"Duration":143047,"SoundDuration":143047,"Delta":188721635},{"NoteNumber":62,"Velocity":29,"Duration":286095,"SoundDuration":286095,"Delta":188721635},{"NoteNumber":79,"Velocity":56,"Duration":318979,"SoundDuration":318979,"Delta":189007731},{"NoteNumber":55,"Velocity":43,"Duration":265816,"SoundDuration":265816,"Delta":189007731},{"NoteNumber":78,"Velocity":50,"Duration":318979,"SoundDuration":318979,"Delta":189273547},{"NoteNumber":64,"Velocity":29,"Duration":265816,"SoundDuration":265816,"Delta":189273547},{"NoteNumber":79,"Velocity":56,"Duration":318979,"SoundDuration":318979,"Delta":189539363},{"NoteNumber":60,"Velocity":34,"Duration":265816,"SoundDuration":265816,"Delta":189539363},{"NoteNumber":78,"Velocity":52,"Duration":318979,"SoundDuration":318979,"Delta":189805179},{"NoteNumber":64,"Velocity":30,"Duration":265816,"SoundDuration":265816,"Delta":189805179},{"NoteNumber":81,"Velocity":56,"Duration":318979,"SoundDuration":318979,"Delta":190070995},{"NoteNumber":55,"Velocity":44,"Duration":265816,"SoundDuration":265816,"Delta":190070995},{"NoteNumber":79,"Velocity":54,"Duration":318979,"SoundDuration":318979,"Delta":190336811},{"NoteNumber":64,"Velocity":34,"Duration":265816,"SoundDuration":265816,"Delta":190336811},{"NoteNumber":78,"Velocity":53,"Duration":318979,"SoundDuration":318979,"Delta":190602627},{"NoteNumber":60,"Velocity":39,"Duration":265816,"SoundDuration":265816,"Delta":190602627},{"NoteNumber":79,"Velocity":49,"Duration":319938,"SoundDuration":319938,"Delta":190868443},{"NoteNumber":64,"Velocity":34,"Duration":265816,"SoundDuration":265816,"Delta":190868443},{"NoteNumber":78,"Velocity":52,"Duration":324733,"SoundDuration":324733,"Delta":191134259},{"NoteNumber":55,"Velocity":40,"Duration":270611,"SoundDuration":270611,"Delta":191134259},{"NoteNumber":76,"Velocity":50,"Duration":324733,"SoundDuration":324733,"Delta":191404870},{"NoteNumber":61,"Velocity":26,"Duration":270611,"SoundDuration":270611,"Delta":191404870},{"NoteNumber":74,"Velocity":48,"Duration":328381,"SoundDuration":328381,"Delta":191675482},{"NoteNumber":58,"Velocity":34,"Duration":270611,"SoundDuration":270611,"Delta":191675482},{"NoteNumber":73,"Velocity":46,"Duration":342013,"SoundDuration":342013,"Delta":191946093},{"NoteNumber":61,"Velocity":27,"Duration":288850,"SoundDuration":288850,"Delta":191946093},{"NoteNumber":74,"Velocity":50,"Duration":265816,"SoundDuration":265816,"Delta":192234944},{"NoteNumber":55,"Velocity":40,"Duration":265816,"SoundDuration":265816,"Delta":192234944},{"NoteNumber":71,"Velocity":43,"Duration":265816,"SoundDuration":265816,"Delta":192500760},{"NoteNumber":62,"Velocity":24,"Duration":265816,"SoundDuration":265816,"Delta":192500760},{"NoteNumber":74,"Velocity":47,"Duration":265816,"SoundDuration":265816,"Delta":192766576},{"NoteNumber":59,"Velocity":31,"Duration":265816,"SoundDuration":265816,"Delta":192766576},{"NoteNumber":71,"Velocity":43,"Duration":283393,"SoundDuration":283393,"Delta":193032392},{"NoteNumber":62,"Velocity":27,"Duration":283393,"SoundDuration":283393,"Delta":193032392},{"NoteNumber":67,"Velocity":47,"Duration":1077607,"SoundDuration":1077607,"Delta":193315785},{"NoteNumber":55,"Velocity":40,"Duration":270611,"SoundDuration":270611,"Delta":193315785},{"NoteNumber":62,"Velocity":26,"Duration":270611,"SoundDuration":270611,"Delta":193586396},{"NoteNumber":59,"Velocity":33,"Duration":268192,"SoundDuration":268192,"Delta":193857008},{"NoteNumber":62,"Velocity":27,"Duration":268192,"SoundDuration":268192,"Delta":194125200},{"NoteNumber":55,"Velocity":41,"Duration":268192,"SoundDuration":268192,"Delta":194393393},{"NoteNumber":62,"Velocity":30,"Duration":268192,"SoundDuration":268192,"Delta":194661585},{"NoteNumber":59,"Velocity":33,"Duration":265816,"SoundDuration":265816,"Delta":194929778},{"NoteNumber":62,"Velocity":29,"Duration":275583,"SoundDuration":275583,"Delta":195195594},{"NoteNumber":72,"Velocity":50,"Duration":268192,"SoundDuration":268192,"Delta":195471177},{"NoteNumber":57,"Velocity":40,"Duration":268192,"SoundDuration":268192,"Delta":195471177},{"NoteNumber":69,"Velocity":46,"Duration":268192,"SoundDuration":268192,"Delta":195739370},{"NoteNumber":62,"Velocity":27,"Duration":268192,"SoundDuration":268192,"Delta":195739370},{"NoteNumber":72,"Velocity":46,"Duration":268192,"SoundDuration":268192,"Delta":196007562},{"NoteNumber":60,"Velocity":32,"Duration":268192,"SoundDuration":268192,"Delta":196007562},{"NoteNumber":69,"Velocity":43,"Duration":266779,"SoundDuration":266779,"Delta":196275755},{"NoteNumber":62,"Velocity":27,"Duration":266779,"SoundDuration":266779,"Delta":196275755},{"NoteNumber":66,"Velocity":50,"Duration":132674,"SoundDuration":132674,"Delta":196542534},{"NoteNumber":57,"Velocity":40,"Duration":265582,"SoundDuration":265582,"Delta":196542534},{"NoteNumber":69,"Velocity":45,"Duration":265816,"SoundDuration":265816,"Delta":196808116},{"NoteNumber":62,"Velocity":30,"Duration":265816,"SoundDuration":265816,"Delta":196808116},{"NoteNumber":68,"Velocity":47,"Duration":265816,"SoundDuration":265816,"Delta":197073932},{"NoteNumber":60,"Velocity":33,"Duration":265816,"SoundDuration":265816,"Delta":197073932},{"NoteNumber":69,"Velocity":49,"Duration":265115,"SoundDuration":265115,"Delta":197339748},{"NoteNumber":62,"Velocity":28,"Duration":265115,"SoundDuration":265115,"Delta":197339748},{"NoteNumber":70,"Velocity":50,"Duration":263481,"SoundDuration":263481,"Delta":197604864},{"NoteNumber":57,"Velocity":40,"Duration":263481,"SoundDuration":263481,"Delta":197604864},{"NoteNumber":71,"Velocity":50,"Duration":265816,"SoundDuration":265816,"Delta":197868345},{"NoteNumber":62,"Velocity":26,"Duration":265816,"SoundDuration":265816,"Delta":197868345},{"NoteNumber":72,"Velocity":53,"Duration":265816,"SoundDuration":265816,"Delta":198134161},{"NoteNumber":60,"Velocity":34,"Duration":265816,"SoundDuration":265816,"Delta":198134161},{"NoteNumber":73,"Velocity":55,"Duration":273074,"SoundDuration":273074,"Delta":198399977},{"NoteNumber":62,"Velocity":27,"Duration":273074,"SoundDuration":273074,"Delta":198399977},{"NoteNumber":74,"Velocity":58,"Duration":258933,"SoundDuration":258933,"Delta":198673052},{"NoteNumber":55,"Velocity":40,"Duration":258933,"SoundDuration":258933,"Delta":198673052},{"NoteNumber":71,"Velocity":51,"Duration":265816,"SoundDuration":265816,"Delta":198931985},{"NoteNumber":62,"Velocity":28,"Duration":265816,"SoundDuration":265816,"Delta":198931985},{"NoteNumber":74,"Velocity":54,"Duration":265816,"SoundDuration":265816,"Delta":199197801},{"NoteNumber":59,"Velocity":36,"Duration":265816,"SoundDuration":265816,"Delta":199197801},{"NoteNumber":71,"Velocity":51,"Duration":265816,"SoundDuration":265816,"Delta":199463617},{"NoteNumber":62,"Velocity":33,"Duration":265816,"SoundDuration":265816,"Delta":199463617},{"NoteNumber":79,"Velocity":61,"Duration":1063264,"SoundDuration":1063264,"Delta":199729433},{"NoteNumber":52,"Velocity":46,"Duration":265816,"SoundDuration":265816,"Delta":199729433},{"NoteNumber":59,"Velocity":42,"Duration":265816,"SoundDuration":265816,"Delta":199995249},{"NoteNumber":55,"Velocity":48,"Duration":265816,"SoundDuration":265816,"Delta":200261065},{"NoteNumber":59,"Velocity":44,"Duration":265816,"SoundDuration":265816,"Delta":200526881},{"NoteNumber":47,"Velocity":51,"Duration":275583,"SoundDuration":275583,"Delta":200792697},{"NoteNumber":83,"Velocity":62,"Duration":324733,"SoundDuration":324733,"Delta":201068281},{"NoteNumber":55,"Velocity":39,"Duration":270611,"SoundDuration":270611,"Delta":201068281},{"NoteNumber":78,"Velocity":59,"Duration":330099,"SoundDuration":330099,"Delta":201338892},{"NoteNumber":50,"Velocity":47,"Duration":270611,"SoundDuration":270611,"Delta":201338892},{"NoteNumber":79,"Velocity":56,"Duration":297441,"SoundDuration":297441,"Delta":201609504},{"NoteNumber":55,"Velocity":34,"Duration":297441,"SoundDuration":297441,"Delta":201609504},{"NoteNumber":75,"Velocity":58,"Duration":324733,"SoundDuration":324733,"Delta":201906946},{"NoteNumber":48,"Velocity":40,"Duration":270611,"SoundDuration":270611,"Delta":201906946},{"NoteNumber":76,"Velocity":49,"Duration":324733,"SoundDuration":324733,"Delta":202177557},{"NoteNumber":57,"Velocity":26,"Duration":270611,"SoundDuration":270611,"Delta":202177557},{"NoteNumber":72,"Velocity":53,"Duration":331303,"SoundDuration":331303,"Delta":202448169},{"NoteNumber":52,"Velocity":33,"Duration":270611,"SoundDuration":270611,"Delta":202448169},{"NoteNumber":69,"Velocity":46,"Duration":358074,"SoundDuration":358074,"Delta":202718780},{"NoteNumber":57,"Velocity":25,"Duration":303459,"SoundDuration":303459,"Delta":202718780},{"NoteNumber":67,"Velocity":53,"Duration":819224,"SoundDuration":819224,"Delta":203022240},{"NoteNumber":50,"Velocity":39,"Duration":273074,"SoundDuration":273074,"Delta":203022240},{"NoteNumber":59,"Velocity":27,"Duration":273074,"SoundDuration":273074,"Delta":203295314},{"NoteNumber":55,"Velocity":32,"Duration":273074,"SoundDuration":273074,"Delta":203568389},{"NoteNumber":67,"Velocity":44,"Duration":273074,"SoundDuration":273074,"Delta":203841464},{"NoteNumber":59,"Velocity":27,"Duration":273074,"SoundDuration":273074,"Delta":203841464},{"NoteNumber":66,"Velocity":47,"Duration":1191631,"SoundDuration":1191631,"Delta":204114539},{"NoteNumber":71,"Velocity":55,"Duration":340071,"SoundDuration":340071,"Delta":204114539},{"NoteNumber":50,"Velocity":39,"Duration":283393,"SoundDuration":283393,"Delta":204114539},{"NoteNumber":69,"Velocity":44,"Duration":340071,"SoundDuration":340071,"Delta":204397932},{"NoteNumber":60,"Velocity":27,"Duration":283393,"SoundDuration":283393,"Delta":204397932},{"NoteNumber":67,"Velocity":49,"Duration":351683,"SoundDuration":351683,"Delta":204681325},{"NoteNumber":57,"Velocity":33,"Duration":283393,"SoundDuration":283393,"Delta":204681325},{"NoteNumber":69,"Velocity":42,"Duration":327225,"SoundDuration":327225,"Delta":204964718},{"NoteNumber":60,"Velocity":29,"Duration":327225,"SoundDuration":327225,"Delta":204964718},{"NoteNumber":66,"Velocity":42,"Duration":1306335,"SoundDuration":1306335,"Delta":205306171},{"NoteNumber":69,"Velocity":53,"Duration":1306335,"SoundDuration":1306335,"Delta":205306171},{"NoteNumber":55,"Velocity":27,"Duration":2324492,"SoundDuration":2324492,"Delta":205306171},{"NoteNumber":60,"Velocity":36,"Duration":1306335,"SoundDuration":1306335,"Delta":205306171},{"NoteNumber":67,"Velocity":48,"Duration":1018157,"SoundDuration":1018157,"Delta":206612507},{"NoteNumber":59,"Velocity":28,"Duration":1018157,"SoundDuration":1018157,"Delta":206612507},{"NoteNumber":70,"Velocity":50,"Duration":1348262,"SoundDuration":1348262,"Delta":208648821},{"NoteNumber":55,"Velocity":40,"Duration":270611,"SoundDuration":270611,"Delta":208648821},{"NoteNumber":62,"Velocity":25,"Duration":270611,"SoundDuration":270611,"Delta":208919432},{"NoteNumber":58,"Velocity":31,"Duration":270611,"SoundDuration":270611,"Delta":209190044},{"NoteNumber":62,"Velocity":26,"Duration":270611,"SoundDuration":270611,"Delta":209460655},{"NoteNumber":55,"Velocity":40,"Duration":265816,"SoundDuration":265816,"Delta":209731267},{"NoteNumber":69,"Velocity":46,"Duration":318512,"SoundDuration":318512,"Delta":209997083},{"NoteNumber":62,"Velocity":27,"Duration":265816,"SoundDuration":265816,"Delta":209997083},{"NoteNumber":72,"Velocity":46,"Duration":316644,"SoundDuration":316644,"Delta":210262899},{"NoteNumber":58,"Velocity":31,"Duration":263481,"SoundDuration":263481,"Delta":210262899},{"NoteNumber":70,"Velocity":46,"Duration":254740,"SoundDuration":254740,"Delta":210526380},{"NoteNumber":62,"Velocity":26,"Duration":265816,"SoundDuration":265816,"Delta":210526380},{"NoteNumber":70,"Velocity":50,"Duration":318979,"SoundDuration":318979,"Delta":210792196},{"NoteNumber":57,"Velocity":40,"Duration":265816,"SoundDuration":265816,"Delta":210792196},{"NoteNumber":69,"Velocity":46,"Duration":318979,"SoundDuration":318979,"Delta":211058012},{"NoteNumber":62,"Velocity":26,"Duration":265816,"SoundDuration":265816,"Delta":211058012},{"NoteNumber":67,"Velocity":46,"Duration":323035,"SoundDuration":323035,"Delta":211323828},{"NoteNumber":60,"Velocity":32,"Duration":265816,"SoundDuration":265816,"Delta":211323828},{"NoteNumber":66,"Velocity":46,"Duration":339734,"SoundDuration":339734,"Delta":211589644},{"NoteNumber":62,"Velocity":27,"Duration":286095,"SoundDuration":286095,"Delta":211589644},{"NoteNumber":67,"Velocity":50,"Duration":804577,"SoundDuration":804577,"Delta":211875740},{"NoteNumber":55,"Velocity":40,"Duration":268192,"SoundDuration":268192,"Delta":211875740},{"NoteNumber":62,"Velocity":31,"Duration":268192,"SoundDuration":268192,"Delta":212143932},{"NoteNumber":58,"Velocity":35,"Duration":268192,"SoundDuration":268192,"Delta":212412125},{"NoteNumber":70,"Velocity":56,"Duration":273074,"SoundDuration":273074,"Delta":212680317},{"NoteNumber":62,"Velocity":28,"Duration":273074,"SoundDuration":273074,"Delta":212680317},{"NoteNumber":74,"Velocity":62,"Duration":1044749,"SoundDuration":1044749,"Delta":212953392},{"NoteNumber":55,"Velocity":47,"Duration":261187,"SoundDuration":261187,"Delta":212953392},{"NoteNumber":62,"Velocity":37,"Duration":261187,"SoundDuration":261187,"Delta":213214580},{"NoteNumber":58,"Velocity":41,"Duration":261187,"SoundDuration":261187,"Delta":213475767},{"NoteNumber":62,"Velocity":39,"Duration":261187,"SoundDuration":261187,"Delta":213736955},{"NoteNumber":55,"Velocity":51,"Duration":258727,"SoundDuration":258727,"Delta":213998142},{"NoteNumber":62,"Velocity":43,"Duration":262334,"SoundDuration":262334,"Delta":214256869},{"NoteNumber":58,"Velocity":46,"Duration":265357,"SoundDuration":265357,"Delta":214519204},{"NoteNumber":62,"Velocity":41,"Duration":286095,"SoundDuration":286095,"Delta":214784561},{"NoteNumber":74,"Velocity":64,"Duration":1329335,"SoundDuration":1329335,"Delta":215070657},{"NoteNumber":54,"Velocity":47,"Duration":273074,"SoundDuration":273074,"Delta":215070657},{"NoteNumber":62,"Velocity":31,"Duration":263481,"SoundDuration":263481,"Delta":215343732},{"NoteNumber":57,"Velocity":40,"Duration":263481,"SoundDuration":263481,"Delta":215607213},{"NoteNumber":62,"Velocity":33,"Duration":263481,"SoundDuration":263481,"Delta":215870695},{"NoteNumber":54,"Velocity":40,"Duration":265816,"SoundDuration":265816,"Delta":216134176},{"NoteNumber":73,"Velocity":57,"Duration":318512,"SoundDuration":318512,"Delta":216399992},{"NoteNumber":62,"Velocity":31,"Duration":265816,"SoundDuration":265816,"Delta":216399992},{"NoteNumber":75,"Velocity":59,"Duration":316644,"SoundDuration":316644,"Delta":216665808},{"NoteNumber":57,"Velocity":37,"Duration":263481,"SoundDuration":263481,"Delta":216665808},{"NoteNumber":74,"Velocity":55,"Duration":254740,"SoundDuration":254740,"Delta":216929290},{"NoteNumber":62,"Velocity":31,"Duration":265816,"SoundDuration":265816,"Delta":216929290},{"NoteNumber":74,"Velocity":62,"Duration":318979,"SoundDuration":318979,"Delta":217195106},{"NoteNumber":50,"Velocity":40,"Duration":265816,"SoundDuration":265816,"Delta":217195106},{"NoteNumber":72,"Velocity":50,"Duration":318979,"SoundDuration":318979,"Delta":217460922},{"NoteNumber":62,"Velocity":30,"Duration":265816,"SoundDuration":265816,"Delta":217460922},{"NoteNumber":70,"Velocity":60,"Duration":323035,"SoundDuration":323035,"Delta":217726738},{"NoteNumber":54,"Velocity":36,"Duration":265816,"SoundDuration":265816,"Delta":217726738},{"NoteNumber":69,"Velocity":54,"Duration":339734,"SoundDuration":339734,"Delta":217992554},{"NoteNumber":62,"Velocity":30,"Duration":286095,"SoundDuration":286095,"Delta":217992554},{"NoteNumber":70,"Velocity":64,"Duration":797572,"SoundDuration":797572,"Delta":218278650},{"NoteNumber":55,"Velocity":40,"Duration":268192,"SoundDuration":268192,"Delta":218278650},{"NoteNumber":62,"Velocity":35,"Duration":268192,"SoundDuration":268192,"Delta":218546842},{"NoteNumber":58,"Velocity":40,"Duration":261187,"SoundDuration":261187,"Delta":218815035},{"NoteNumber":74,"Velocity":64,"Duration":268192,"SoundDuration":268192,"Delta":219076222},{"NoteNumber":62,"Velocity":37,"Duration":268192,"SoundDuration":268192,"Delta":219076222},{"NoteNumber":79,"Velocity":72,"Duration":1044749,"SoundDuration":1044749,"Delta":219344415},{"NoteNumber":55,"Velocity":48,"Duration":261187,"SoundDuration":261187,"Delta":219344415},{"NoteNumber":62,"Velocity":39,"Duration":261187,"SoundDuration":261187,"Delta":219605602},{"NoteNumber":58,"Velocity":47,"Duration":261187,"SoundDuration":261187,"Delta":219866790},{"NoteNumber":62,"Velocity":35,"Duration":261187,"SoundDuration":261187,"Delta":220127977},{"NoteNumber":55,"Velocity":55,"Duration":258727,"SoundDuration":258727,"Delta":220389165},{"NoteNumber":63,"Velocity":48,"Duration":262334,"SoundDuration":262334,"Delta":220647892},{"NoteNumber":58,"Velocity":50,"Duration":265357,"SoundDuration":265357,"Delta":220910226},{"NoteNumber":63,"Velocity":43,"Duration":265816,"SoundDuration":265816,"Delta":221175584},{"NoteNumber":77,"Velocity":69,"Duration":1296920,"SoundDuration":1296920,"Delta":221441400},{"NoteNumber":57,"Velocity":57,"Duration":258933,"SoundDuration":258933,"Delta":221441400},{"NoteNumber":65,"Velocity":39,"Duration":258933,"SoundDuration":258933,"Delta":221700333},{"NoteNumber":60,"Velocity":50,"Duration":258933,"SoundDuration":258933,"Delta":221959266},{"NoteNumber":65,"Velocity":40,"Duration":258933,"SoundDuration":258933,"Delta":222218200},{"NoteNumber":57,"Velocity":48,"Duration":261187,"SoundDuration":261187,"Delta":222477133},{"NoteNumber":81,"Velocity":63,"Duration":313424,"SoundDuration":313424,"Delta":222738320},{"NoteNumber":65,"Velocity":40,"Duration":261187,"SoundDuration":261187,"Delta":222738320},{"NoteNumber":84,"Velocity":71,"Duration":314350,"SoundDuration":314350,"Delta":222999508},{"NoteNumber":60,"Velocity":48,"Duration":261187,"SoundDuration":261187,"Delta":222999508},{"NoteNumber":82,"Velocity":64,"Duration":317602,"SoundDuration":317602,"Delta":223260695},{"NoteNumber":65,"Velocity":39,"Duration":265816,"SoundDuration":265816,"Delta":223260695},{"NoteNumber":81,"Velocity":67,"Duration":310719,"SoundDuration":310719,"Delta":223526511},{"NoteNumber":57,"Velocity":48,"Duration":258933,"SoundDuration":258933,"Delta":223526511},{"NoteNumber":79,"Velocity":53,"Duration":310719,"SoundDuration":310719,"Delta":223785445},{"NoteNumber":65,"Velocity":36,"Duration":258933,"SoundDuration":258933,"Delta":223785445},{"NoteNumber":77,"Velocity":65,"Duration":314049,"SoundDuration":314049,"Delta":224044378},{"NoteNumber":60,"Velocity":42,"Duration":258933,"SoundDuration":258933,"Delta":224044378},{"NoteNumber":75,"Velocity":56,"Duration":327369,"SoundDuration":327369,"Delta":224303311},{"NoteNumber":65,"Velocity":38,"Duration":275583,"SoundDuration":275583,"Delta":224303311},{"NoteNumber":74,"Velocity":63,"Duration":1299214,"SoundDuration":1299214,"Delta":224578894},{"NoteNumber":58,"Velocity":46,"Duration":258933,"SoundDuration":258933,"Delta":224578894},{"NoteNumber":65,"Velocity":29,"Duration":258933,"SoundDuration":258933,"Delta":224837828},{"NoteNumber":62,"Velocity":34,"Duration":258933,"SoundDuration":258933,"Delta":225096761},{"NoteNumber":65,"Velocity":26,"Duration":258933,"SoundDuration":258933,"Delta":225355694},{"NoteNumber":55,"Velocity":40,"Duration":263481,"SoundDuration":263481,"Delta":225614627},{"NoteNumber":79,"Velocity":49,"Duration":315268,"SoundDuration":315268,"Delta":225878109},{"NoteNumber":62,"Velocity":30,"Duration":263481,"SoundDuration":263481,"Delta":225878109},{"NoteNumber":82,"Velocity":54,"Duration":312096,"SoundDuration":312096,"Delta":226141590},{"NoteNumber":58,"Velocity":40,"Duration":258933,"SoundDuration":258933,"Delta":226141590},{"NoteNumber":81,"Velocity":46,"Duration":318512,"SoundDuration":318512,"Delta":226400524},{"NoteNumber":62,"Velocity":30,"Duration":265816,"SoundDuration":265816,"Delta":226400524},{"NoteNumber":79,"Velocity":55,"Duration":316177,"SoundDuration":316177,"Delta":226666340},{"NoteNumber":50,"Velocity":42,"Duration":263481,"SoundDuration":263481,"Delta":226666340},{"NoteNumber":77,"Velocity":46,"Duration":316177,"SoundDuration":316177,"Delta":226929821},{"NoteNumber":58,"Velocity":29,"Duration":263481,"SoundDuration":263481,"Delta":226929821},{"NoteNumber":75,"Velocity":51,"Duration":320700,"SoundDuration":320700,"Delta":227193303},{"NoteNumber":53,"Velocity":35,"Duration":263481,"SoundDuration":263481,"Delta":227193303},{"NoteNumber":74,"Velocity":46,"Duration":340218,"SoundDuration":340218,"Delta":227456784},{"NoteNumber":58,"Velocity":30,"Duration":286095,"SoundDuration":286095,"Delta":227456784},{"NoteNumber":70,"Velocity":57,"Duration":270611,"SoundDuration":270611,"Delta":227742880},{"NoteNumber":51,"Velocity":37,"Duration":270611,"SoundDuration":270611,"Delta":227742880},{"NoteNumber":72,"Velocity":49,"Duration":270611,"SoundDuration":270611,"Delta":228013491},{"NoteNumber":60,"Velocity":26,"Duration":270611,"SoundDuration":270611,"Delta":228013491},{"NoteNumber":75,"Velocity":46,"Duration":270611,"SoundDuration":270611,"Delta":228284103},{"NoteNumber":55,"Velocity":33,"Duration":270611,"SoundDuration":270611,"Delta":228284103},{"NoteNumber":79,"Velocity":46,"Duration":286095,"SoundDuration":286095,"Delta":228554714},{"NoteNumber":60,"Velocity":29,"Duration":286095,"SoundDuration":286095,"Delta":228554714},{"NoteNumber":70,"Velocity":53,"Duration":797448,"SoundDuration":797448,"Delta":228840810},{"NoteNumber":53,"Velocity":39,"Duration":265816,"SoundDuration":265816,"Delta":228840810},{"NoteNumber":62,"Velocity":26,"Duration":265816,"SoundDuration":265816,"Delta":229106626},{"NoteNumber":58,"Velocity":35,"Duration":265816,"SoundDuration":265816,"Delta":229372442},{"NoteNumber":70,"Velocity":46,"Duration":265816,"SoundDuration":265816,"Delta":229638258},{"NoteNumber":62,"Velocity":28,"Duration":265816,"SoundDuration":265816,"Delta":229638258},{"NoteNumber":74,"Velocity":53,"Duration":333765,"SoundDuration":333765,"Delta":229904074},{"NoteNumber":53,"Velocity":39,"Duration":278138,"SoundDuration":278138,"Delta":229904074},{"NoteNumber":72,"Velocity":44,"Duration":333765,"SoundDuration":333765,"Delta":230182212},{"NoteNumber":63,"Velocity":30,"Duration":278138,"SoundDuration":278138,"Delta":230182212},{"NoteNumber":70,"Velocity":52,"Duration":346428,"SoundDuration":346428,"Delta":230460351},{"NoteNumber":60,"Velocity":36,"Duration":278138,"SoundDuration":278138,"Delta":230460351},{"NoteNumber":72,"Velocity":45,"Duration":327225,"SoundDuration":327225,"Delta":230738489},{"NoteNumber":63,"Velocity":29,"Duration":327225,"SoundDuration":327225,"Delta":230738489},{"NoteNumber":69,"Velocity":51,"Duration":1306335,"SoundDuration":1306335,"Delta":231079941},{"NoteNumber":72,"Velocity":61,"Duration":1306335,"SoundDuration":1306335,"Delta":231079941},{"NoteNumber":58,"Velocity":34,"Duration":2369683,"SoundDuration":2369683,"Delta":231079941},{"NoteNumber":63,"Velocity":40,"Duration":1306335,"SoundDuration":1306335,"Delta":231079941},{"NoteNumber":70,"Velocity":53,"Duration":295011,"SoundDuration":295011,"Delta":232386277},{"NoteNumber":62,"Velocity":28,"Duration":1063347,"SoundDuration":1063347,"Delta":232386277},{"NoteNumber":69,"Velocity":43,"Duration":294540,"SoundDuration":294540,"Delta":232654470},{"NoteNumber":72,"Velocity":48,"Duration":289829,"SoundDuration":289829,"Delta":232922662},{"NoteNumber":70,"Velocity":42,"Duration":290300,"SoundDuration":290300,"Delta":233186144},{"NoteNumber":74,"Velocity":48,"Duration":295499,"SoundDuration":295499,"Delta":233449625},{"NoteNumber":72,"Velocity":47,"Duration":300382,"SoundDuration":300382,"Delta":233717818},{"NoteNumber":75,"Velocity":50,"Duration":303420,"SoundDuration":303420,"Delta":233990892},{"NoteNumber":74,"Velocity":53,"Duration":330766,"SoundDuration":330766,"Delta":234263967},{"NoteNumber":77,"Velocity":68,"Duration":1358114,"SoundDuration":1358114,"Delta":234567427},{"NoteNumber":56,"Velocity":47,"Duration":273074,"SoundDuration":273074,"Delta":234567427},{"NoteNumber":65,"Velocity":32,"Duration":273074,"SoundDuration":273074,"Delta":234840501},{"NoteNumber":60,"Velocity":38,"Duration":273074,"SoundDuration":273074,"Delta":235113576},{"NoteNumber":65,"Velocity":31,"Duration":273074,"SoundDuration":273074,"Delta":235386651},{"NoteNumber":55,"Velocity":40,"Duration":265816,"SoundDuration":265816,"Delta":235659726},{"NoteNumber":80,"Velocity":56,"Duration":318512,"SoundDuration":318512,"Delta":235925542},{"NoteNumber":62,"Velocity":32,"Duration":265816,"SoundDuration":265816,"Delta":235925542},{"NoteNumber":79,"Velocity":62,"Duration":316644,"SoundDuration":316644,"Delta":236191358},{"NoteNumber":59,"Velocity":37,"Duration":263481,"SoundDuration":263481,"Delta":236191358},{"NoteNumber":77,"Velocity":57,"Duration":318979,"SoundDuration":318979,"Delta":236454839},{"NoteNumber":62,"Velocity":31,"Duration":265816,"SoundDuration":265816,"Delta":236454839},{"NoteNumber":75,"Velocity":63,"Duration":318979,"SoundDuration":318979,"Delta":236720655},{"NoteNumber":53,"Velocity":40,"Duration":265816,"SoundDuration":265816,"Delta":236720655},{"NoteNumber":74,"Velocity":46,"Duration":318979,"SoundDuration":318979,"Delta":236986471},{"NoteNumber":62,"Velocity":32,"Duration":265816,"SoundDuration":265816,"Delta":236986471},{"NoteNumber":72,"Velocity":57,"Duration":323035,"SoundDuration":323035,"Delta":237252287},{"NoteNumber":55,"Velocity":37,"Duration":265816,"SoundDuration":265816,"Delta":237252287},{"NoteNumber":71,"Velocity":44,"Duration":339734,"SoundDuration":339734,"Delta":237518103},{"NoteNumber":62,"Velocity":32,"Duration":286095,"SoundDuration":286095,"Delta":237518103},{"NoteNumber":72,"Velocity":60,"Duration":804577,"SoundDuration":804577,"Delta":237804199},{"NoteNumber":51,"Velocity":40,"Duration":268192,"SoundDuration":268192,"Delta":237804199},{"NoteNumber":60,"Velocity":33,"Duration":268192,"SoundDuration":268192,"Delta":238072391},{"NoteNumber":55,"Velocity":40,"Duration":268192,"SoundDuration":268192,"Delta":238340584},{"NoteNumber":75,"Velocity":62,"Duration":273074,"SoundDuration":273074,"Delta":238608776},{"NoteNumber":60,"Velocity":28,"Duration":273074,"SoundDuration":273074,"Delta":238608776},{"NoteNumber":79,"Velocity":67,"Duration":1044749,"SoundDuration":1044749,"Delta":238881851},{"NoteNumber":50,"Velocity":44,"Duration":261187,"SoundDuration":261187,"Delta":238881851},{"NoteNumber":59,"Velocity":36,"Duration":261187,"SoundDuration":261187,"Delta":239143039},{"NoteNumber":53,"Velocity":42,"Duration":261187,"SoundDuration":261187,"Delta":239404226},{"NoteNumber":59,"Velocity":33,"Duration":261187,"SoundDuration":261187,"Delta":239665414},{"NoteNumber":48,"Velocity":49,"Duration":258727,"SoundDuration":258727,"Delta":239926601},{"NoteNumber":60,"Velocity":41,"Duration":262334,"SoundDuration":262334,"Delta":240185328},{"NoteNumber":51,"Velocity":49,"Duration":265357,"SoundDuration":265357,"Delta":240447663},{"NoteNumber":60,"Velocity":43,"Duration":286095,"SoundDuration":286095,"Delta":240713020},{"NoteNumber":79,"Velocity":74,"Duration":1329335,"SoundDuration":1329335,"Delta":240999116},{"NoteNumber":49,"Velocity":62,"Duration":273074,"SoundDuration":273074,"Delta":240999116},{"NoteNumber":58,"Velocity":45,"Duration":263481,"SoundDuration":263481,"Delta":241272191},{"NoteNumber":52,"Velocity":53,"Duration":263481,"SoundDuration":263481,"Delta":241535672},{"NoteNumber":58,"Velocity":39,"Duration":263481,"SoundDuration":263481,"Delta":241799154},{"NoteNumber":50,"Velocity":53,"Duration":265816,"SoundDuration":265816,"Delta":242062635},{"NoteNumber":78,"Velocity":64,"Duration":318512,"SoundDuration":318512,"Delta":242328451},{"NoteNumber":58,"Velocity":41,"Duration":265816,"SoundDuration":265816,"Delta":242328451},{"NoteNumber":81,"Velocity":70,"Duration":316644,"SoundDuration":316644,"Delta":242594267},{"NoteNumber":55,"Velocity":48,"Duration":263481,"SoundDuration":263481,"Delta":242594267},{"NoteNumber":79,"Velocity":62,"Duration":265816,"SoundDuration":265816,"Delta":242857749},{"NoteNumber":58,"Velocity":41,"Duration":265816,"SoundDuration":265816,"Delta":242857749},{"NoteNumber":82,"Velocity":70,"Duration":265816,"SoundDuration":265816,"Delta":243123565},{"NoteNumber":51,"Velocity":50,"Duration":265816,"SoundDuration":265816,"Delta":243123565},{"NoteNumber":73,"Velocity":64,"Duration":265816,"SoundDuration":265816,"Delta":243389381},{"NoteNumber":58,"Velocity":33,"Duration":265816,"SoundDuration":265816,"Delta":243389381},{"NoteNumber":82,"Velocity":67,"Duration":265816,"SoundDuration":265816,"Delta":243655197},{"NoteNumber":55,"Velocity":46,"Duration":265816,"SoundDuration":265816,"Delta":243655197},{"NoteNumber":73,"Velocity":50,"Duration":274175,"SoundDuration":274175,"Delta":243921013},{"NoteNumber":58,"Velocity":40,"Duration":286095,"SoundDuration":286095,"Delta":243921013},{"NoteNumber":73,"Velocity":65,"Duration":1065764,"SoundDuration":1065764,"Delta":244207109},{"NoteNumber":50,"Velocity":51,"Duration":268192,"SoundDuration":268192,"Delta":244207109},{"NoteNumber":58,"Velocity":32,"Duration":268192,"SoundDuration":268192,"Delta":244475301},{"NoteNumber":55,"Velocity":36,"Duration":261187,"SoundDuration":261187,"Delta":244743494},{"NoteNumber":58,"Velocity":32,"Duration":268192,"SoundDuration":268192,"Delta":245004681},{"NoteNumber":74,"Velocity":65,"Duration":1044749,"SoundDuration":1044749,"Delta":245272874},{"NoteNumber":50,"Velocity":48,"Duration":261187,"SoundDuration":261187,"Delta":245272874},{"NoteNumber":57,"Velocity":39,"Duration":261187,"SoundDuration":261187,"Delta":245534061},{"NoteNumber":54,"Velocity":49,"Duration":261187,"SoundDuration":261187,"Delta":245795249},{"NoteNumber":57,"Velocity":42,"Duration":261187,"SoundDuration":261187,"Delta":246056436},{"NoteNumber":50,"Velocity":55,"Duration":258727,"SoundDuration":258727,"Delta":246317624},{"NoteNumber":57,"Velocity":46,"Duration":262334,"SoundDuration":262334,"Delta":246576351},{"NoteNumber":54,"Velocity":53,"Duration":265357,"SoundDuration":265357,"Delta":246838685},{"NoteNumber":57,"Velocity":46,"Duration":265816,"SoundDuration":265816,"Delta":247104043},{"NoteNumber":75,"Velocity":73,"Duration":1296920,"SoundDuration":1296920,"Delta":247369859},{"NoteNumber":48,"Velocity":63,"Duration":258933,"SoundDuration":258933,"Delta":247369859},{"NoteNumber":57,"Velocity":47,"Duration":258933,"SoundDuration":258933,"Delta":247628792},{"NoteNumber":54,"Velocity":55,"Duration":258933,"SoundDuration":258933,"Delta":247887725},{"NoteNumber":57,"Velocity":49,"Duration":258933,"SoundDuration":258933,"Delta":248146659},{"NoteNumber":48,"Velocity":58,"Duration":261187,"SoundDuration":261187,"Delta":248405592},{"NoteNumber":72,"Velocity":65,"Duration":261187,"SoundDuration":261187,"Delta":248666779},{"NoteNumber":57,"Velocity":44,"Duration":261187,"SoundDuration":261187,"Delta":248666779},{"NoteNumber":81,"Velocity":74,"Duration":261187,"SoundDuration":261187,"Delta":248927967},{"NoteNumber":54,"Velocity":54,"Duration":261187,"SoundDuration":261187,"Delta":248927967},{"NoteNumber":78,"Velocity":71,"Duration":265816,"SoundDuration":265816,"Delta":249189154},{"NoteNumber":57,"Velocity":47,"Duration":265816,"SoundDuration":265816,"Delta":249189154},{"NoteNumber":84,"Velocity":76,"Duration":258933,"SoundDuration":258933,"Delta":249454970},{"NoteNumber":48,"Velocity":59,"Duration":258933,"SoundDuration":258933,"Delta":249454970},{"NoteNumber":81,"Velocity":73,"Duration":258933,"SoundDuration":258933,"Delta":249713904},{"NoteNumber":57,"Velocity":43,"Duration":258933,"SoundDuration":258933,"Delta":249713904},{"NoteNumber":87,"Velocity":81,"Duration":258933,"SoundDuration":258933,"Delta":249972837},{"NoteNumber":54,"Velocity":50,"Duration":258933,"SoundDuration":258933,"Delta":249972837},{"NoteNumber":78,"Velocity":75,"Duration":275583,"SoundDuration":275583,"Delta":250231770},{"NoteNumber":57,"Velocity":34,"Duration":275583,"SoundDuration":275583,"Delta":250231770},{"NoteNumber":86,"Velocity":85,"Duration":1299214,"SoundDuration":1299214,"Delta":250507353},{"NoteNumber":46,"Velocity":57,"Duration":258933,"SoundDuration":258933,"Delta":250507353},{"NoteNumber":55,"Velocity":44,"Duration":258933,"SoundDuration":258933,"Delta":250766287},{"NoteNumber":50,"Velocity":50,"Duration":258933,"SoundDuration":258933,"Delta":251025220},{"NoteNumber":55,"Velocity":42,"Duration":258933,"SoundDuration":258933,"Delta":251284153},{"NoteNumber":46,"Velocity":50,"Duration":263481,"SoundDuration":263481,"Delta":251543086},{"NoteNumber":81,"Velocity":64,"Duration":315268,"SoundDuration":315268,"Delta":251806568},{"NoteNumber":55,"Velocity":38,"Duration":263481,"SoundDuration":263481,"Delta":251806568},{"NoteNumber":82,"Velocity":70,"Duration":312096,"SoundDuration":312096,"Delta":252070049},{"NoteNumber":50,"Velocity":46,"Duration":258933,"SoundDuration":258933,"Delta":252070049},{"NoteNumber":78,"Velocity":59,"Duration":318512,"SoundDuration":318512,"Delta":252328983},{"NoteNumber":55,"Velocity":37,"Duration":265816,"SoundDuration":265816,"Delta":252328983},{"NoteNumber":79,"Velocity":66,"Duration":316177,"SoundDuration":316177,"Delta":252594799},{"NoteNumber":46,"Velocity":42,"Duration":263481,"SoundDuration":263481,"Delta":252594799},{"NoteNumber":73,"Velocity":54,"Duration":316177,"SoundDuration":316177,"Delta":252858280},{"NoteNumber":55,"Velocity":29,"Duration":263481,"SoundDuration":263481,"Delta":252858280},{"NoteNumber":74,"Velocity":60,"Duration":320700,"SoundDuration":320700,"Delta":253121762},{"NoteNumber":50,"Velocity":35,"Duration":263481,"SoundDuration":263481,"Delta":253121762},{"NoteNumber":70,"Velocity":46,"Duration":274175,"SoundDuration":274175,"Delta":253385243},{"NoteNumber":55,"Velocity":30,"Duration":286095,"SoundDuration":286095,"Delta":253385243},{"NoteNumber":70,"Velocity":57,"Duration":270611,"SoundDuration":270611,"Delta":253671339},{"NoteNumber":48,"Velocity":37,"Duration":270611,"SoundDuration":270611,"Delta":253671339},{"NoteNumber":69,"Velocity":49,"Duration":270611,"SoundDuration":270611,"Delta":253941950},{"NoteNumber":57,"Velocity":26,"Duration":270611,"SoundDuration":270611,"Delta":253941950},{"NoteNumber":72,"Velocity":46,"Duration":270611,"SoundDuration":270611,"Delta":254212562},{"NoteNumber":51,"Velocity":33,"Duration":270611,"SoundDuration":270611,"Delta":254212562},{"NoteNumber":75,"Velocity":46,"Duration":286095,"SoundDuration":286095,"Delta":254483173},{"NoteNumber":57,"Velocity":29,"Duration":286095,"SoundDuration":286095,"Delta":254483173},{"NoteNumber":67,"Velocity":53,"Duration":797448,"SoundDuration":797448,"Delta":254769269},{"NoteNumber":50,"Velocity":39,"Duration":265816,"SoundDuration":265816,"Delta":254769269},{"NoteNumber":58,"Velocity":29,"Duration":265816,"SoundDuration":265816,"Delta":255035085},{"NoteNumber":55,"Velocity":37,"Duration":265816,"SoundDuration":265816,"Delta":255300901},{"NoteNumber":67,"Velocity":46,"Duration":265816,"SoundDuration":265816,"Delta":255566717},{"NoteNumber":58,"Velocity":29,"Duration":265816,"SoundDuration":265816,"Delta":255566717},{"NoteNumber":70,"Velocity":53,"Duration":333765,"SoundDuration":333765,"Delta":255832533},{"NoteNumber":50,"Velocity":39,"Duration":278138,"SoundDuration":278138,"Delta":255832533},{"NoteNumber":69,"Velocity":44,"Duration":333765,"SoundDuration":333765,"Delta":256110671},{"NoteNumber":60,"Velocity":30,"Duration":278138,"SoundDuration":278138,"Delta":256110671},{"NoteNumber":67,"Velocity":52,"Duration":346428,"SoundDuration":346428,"Delta":256388810},{"NoteNumber":57,"Velocity":36,"Duration":278138,"SoundDuration":278138,"Delta":256388810},{"NoteNumber":69,"Velocity":45,"Duration":327225,"SoundDuration":327225,"Delta":256666948},{"NoteNumber":60,"Velocity":29,"Duration":327225,"SoundDuration":327225,"Delta":256666948},{"NoteNumber":66,"Velocity":51,"Duration":1306335,"SoundDuration":1306335,"Delta":257008400},{"NoteNumber":69,"Velocity":61,"Duration":1306335,"SoundDuration":1306335,"Delta":257008400},{"NoteNumber":55,"Velocity":34,"Duration":2403835,"SoundDuration":2403835,"Delta":257008400},{"NoteNumber":60,"Velocity":40,"Duration":1306335,"SoundDuration":1306335,"Delta":257008400},{"NoteNumber":67,"Velocity":53,"Duration":305952,"SoundDuration":305952,"Delta":258314736},{"NoteNumber":58,"Velocity":28,"Duration":1097499,"SoundDuration":1097499,"Delta":258314736},{"NoteNumber":66,"Velocity":43,"Duration":305199,"SoundDuration":305199,"Delta":258592874},{"NoteNumber":67,"Velocity":48,"Duration":297672,"SoundDuration":297672,"Delta":258871013},{"NoteNumber":68,"Velocity":42,"Duration":298425,"SoundDuration":298425,"Delta":259141624},{"NoteNumber":69,"Velocity":48,"Duration":306477,"SoundDuration":306477,"Delta":259412236},{"NoteNumber":68,"Velocity":46,"Duration":311732,"SoundDuration":311732,"Delta":259690374},{"NoteNumber":69,"Velocity":43,"Duration":315018,"SoundDuration":315018,"Delta":259973767},{"NoteNumber":70,"Velocity":41,"Duration":343562,"SoundDuration":343562,"Delta":260257160},{"NoteNumber":71,"Velocity":48,"Duration":2184597,"SoundDuration":2184597,"Delta":260573416},{"NoteNumber":55,"Velocity":36,"Duration":273074,"SoundDuration":273074,"Delta":260573416},{"NoteNumber":62,"Velocity":22,"Duration":273074,"SoundDuration":273074,"Delta":260846491},{"NoteNumber":59,"Velocity":25,"Duration":273074,"SoundDuration":273074,"Delta":261119565},{"NoteNumber":62,"Velocity":24,"Duration":273074,"SoundDuration":273074,"Delta":261392640},{"NoteNumber":55,"Velocity":40,"Duration":273074,"SoundDuration":273074,"Delta":261665715},{"NoteNumber":62,"Velocity":29,"Duration":273074,"SoundDuration":273074,"Delta":261938790},{"NoteNumber":59,"Velocity":35,"Duration":273074,"SoundDuration":273074,"Delta":262211864},{"NoteNumber":62,"Velocity":30,"Duration":273074,"SoundDuration":273074,"Delta":262484939},{"NoteNumber":74,"Velocity":50,"Duration":327689,"SoundDuration":327689,"Delta":262758014},{"NoteNumber":57,"Velocity":40,"Duration":273074,"SoundDuration":273074,"Delta":262758014},{"NoteNumber":72,"Velocity":46,"Duration":327689,"SoundDuration":327689,"Delta":263031089},{"NoteNumber":62,"Velocity":32,"Duration":273074,"SoundDuration":273074,"Delta":263031089},{"NoteNumber":71,"Velocity":46,"Duration":334386,"SoundDuration":334386,"Delta":263304163},{"NoteNumber":60,"Velocity":40,"Duration":273074,"SoundDuration":273074,"Delta":263304163},{"NoteNumber":72,"Velocity":48,"Duration":360682,"SoundDuration":360682,"Delta":263577238},{"NoteNumber":62,"Velocity":35,"Duration":306560,"SoundDuration":306560,"Delta":263577238},{"NoteNumber":74,"Velocity":54,"Duration":811834,"SoundDuration":811834,"Delta":263883799},{"NoteNumber":55,"Velocity":43,"Duration":270611,"SoundDuration":270611,"Delta":263883799},{"NoteNumber":62,"Velocity":28,"Duration":270611,"SoundDuration":270611,"Delta":264154410},{"NoteNumber":59,"Velocity":32,"Duration":270611,"SoundDuration":270611,"Delta":264425022},{"NoteNumber":71,"Velocity":47,"Duration":283393,"SoundDuration":283393,"Delta":264695633},{"NoteNumber":62,"Velocity":28,"Duration":283393,"SoundDuration":283393,"Delta":264695633},{"NoteNumber":67,"Velocity":47,"Duration":1082446,"SoundDuration":1082446,"Delta":264979026},{"NoteNumber":55,"Velocity":40,"Duration":270611,"SoundDuration":270611,"Delta":264979026},{"NoteNumber":62,"Velocity":29,"Duration":270611,"SoundDuration":270611,"Delta":265249638},{"NoteNumber":59,"Velocity":39,"Duration":270611,"SoundDuration":270611,"Delta":265520249},{"NoteNumber":62,"Velocity":36,"Duration":270611,"SoundDuration":270611,"Delta":265790861},{"NoteNumber":55,"Velocity":48,"Duration":270611,"SoundDuration":270611,"Delta":266061472},{"NoteNumber":62,"Velocity":38,"Duration":270611,"SoundDuration":270611,"Delta":266332084},{"NoteNumber":59,"Velocity":48,"Duration":270611,"SoundDuration":270611,"Delta":266602695},{"NoteNumber":62,"Velocity":45,"Duration":297441,"SoundDuration":297441,"Delta":266873307},{"NoteNumber":79,"Velocity":67,"Duration":1639153,"SoundDuration":1639153,"Delta":267170749},{"NoteNumber":55,"Velocity":53,"Duration":270611,"SoundDuration":270611,"Delta":267170749},{"NoteNumber":64,"Velocity":37,"Duration":270611,"SoundDuration":270611,"Delta":267441360},{"NoteNumber":60,"Velocity":47,"Duration":270611,"SoundDuration":270611,"Delta":267711972},{"NoteNumber":64,"Velocity":41,"Duration":270611,"SoundDuration":270611,"Delta":267982583},{"NoteNumber":55,"Velocity":44,"Duration":270611,"SoundDuration":270611,"Delta":268253195},{"NoteNumber":64,"Velocity":34,"Duration":286095,"SoundDuration":286095,"Delta":268523806},{"NoteNumber":81,"Velocity":62,"Duration":324733,"SoundDuration":324733,"Delta":268809902},{"NoteNumber":60,"Velocity":39,"Duration":270611,"SoundDuration":270611,"Delta":268809902},{"NoteNumber":79,"Velocity":55,"Duration":324733,"SoundDuration":324733,"Delta":269080514},{"NoteNumber":64,"Velocity":34,"Duration":270611,"SoundDuration":270611,"Delta":269080514},{"NoteNumber":78,"Velocity":57,"Duration":324733,"SoundDuration":324733,"Delta":269351125},{"NoteNumber":55,"Velocity":40,"Duration":270611,"SoundDuration":270611,"Delta":269351125},{"NoteNumber":76,"Velocity":46,"Duration":324733,"SoundDuration":324733,"Delta":269621737},{"NoteNumber":61,"Velocity":26,"Duration":270611,"SoundDuration":270611,"Delta":269621737},{"NoteNumber":74,"Velocity":51,"Duration":328381,"SoundDuration":328381,"Delta":269892348},{"NoteNumber":58,"Velocity":34,"Duration":270611,"SoundDuration":270611,"Delta":269892348},{"NoteNumber":73,"Velocity":46,"Duration":342972,"SoundDuration":342972,"Delta":270162960},{"NoteNumber":61,"Velocity":27,"Duration":288850,"SoundDuration":288850,"Delta":270162960},{"NoteNumber":74,"Velocity":53,"Duration":811834,"SoundDuration":811834,"Delta":270451810},{"NoteNumber":55,"Velocity":40,"Duration":270611,"SoundDuration":270611,"Delta":270451810},{"NoteNumber":62,"Velocity":26,"Duration":270611,"SoundDuration":270611,"Delta":270722422},{"NoteNumber":59,"Velocity":31,"Duration":270611,"SoundDuration":270611,"Delta":270993033},{"NoteNumber":71,"Velocity":47,"Duration":283393,"SoundDuration":283393,"Delta":271263645},{"NoteNumber":62,"Velocity":27,"Duration":283393,"SoundDuration":283393,"Delta":271263645},{"NoteNumber":67,"Velocity":45,"Duration":1082446,"SoundDuration":1082446,"Delta":271547038},{"NoteNumber":55,"Velocity":40,"Duration":270611,"SoundDuration":270611,"Delta":271547038},{"NoteNumber":62,"Velocity":26,"Duration":270611,"SoundDuration":270611,"Delta":271817649},{"NoteNumber":59,"Velocity":30,"Duration":270611,"SoundDuration":270611,"Delta":272088261},{"NoteNumber":62,"Velocity":27,"Duration":270611,"SoundDuration":270611,"Delta":272358872},{"NoteNumber":55,"Velocity":41,"Duration":268192,"SoundDuration":268192,"Delta":272629484},{"NoteNumber":62,"Velocity":25,"Duration":268192,"SoundDuration":268192,"Delta":272897676},{"NoteNumber":59,"Velocity":30,"Duration":268192,"SoundDuration":268192,"Delta":273165869},{"NoteNumber":62,"Velocity":25,"Duration":268192,"SoundDuration":268192,"Delta":273434061},{"NoteNumber":72,"Velocity":50,"Duration":814342,"SoundDuration":814342,"Delta":273702254},{"NoteNumber":57,"Velocity":40,"Duration":273074,"SoundDuration":273074,"Delta":273702254},{"NoteNumber":62,"Velocity":27,"Duration":273074,"SoundDuration":273074,"Delta":273975329},{"NoteNumber":60,"Velocity":32,"Duration":268192,"SoundDuration":268192,"Delta":274248403},{"NoteNumber":69,"Velocity":47,"Duration":268192,"SoundDuration":268192,"Delta":274516596},{"NoteNumber":62,"Velocity":27,"Duration":268192,"SoundDuration":268192,"Delta":274516596},{"NoteNumber":66,"Velocity":52,"Duration":261187,"SoundDuration":261187,"Delta":274784788},{"NoteNumber":57,"Velocity":40,"Duration":261187,"SoundDuration":261187,"Delta":274784788},{"NoteNumber":62,"Velocity":30,"Duration":261187,"SoundDuration":261187,"Delta":275045976},{"NoteNumber":69,"Velocity":47,"Duration":261187,"SoundDuration":261187,"Delta":275307163},{"NoteNumber":60,"Velocity":33,"Duration":261187,"SoundDuration":261187,"Delta":275307163},{"NoteNumber":62,"Velocity":28,"Duration":261187,"SoundDuration":261187,"Delta":275568351},{"NoteNumber":71,"Velocity":51,"Duration":265815,"SoundDuration":265815,"Delta":275829538},{"NoteNumber":57,"Velocity":44,"Duration":265815,"SoundDuration":265815,"Delta":275829538},{"NoteNumber":62,"Velocity":33,"Duration":270611,"SoundDuration":270611,"Delta":276095354},{"NoteNumber":72,"Velocity":52,"Duration":270611,"SoundDuration":270611,"Delta":276365966},{"NoteNumber":60,"Velocity":40,"Duration":270611,"SoundDuration":270611,"Delta":276365966},{"NoteNumber":62,"Velocity":33,"Duration":291658,"SoundDuration":291658,"Delta":276636577},{"NoteNumber":74,"Velocity":57,"Duration":811834,"SoundDuration":811834,"Delta":276928236},{"NoteNumber":55,"Velocity":46,"Duration":270611,"SoundDuration":270611,"Delta":276928236},{"NoteNumber":62,"Velocity":33,"Duration":270611,"SoundDuration":270611,"Delta":277198847},{"NoteNumber":59,"Velocity":40,"Duration":270611,"SoundDuration":270611,"Delta":277469459},{"NoteNumber":71,"Velocity":61,"Duration":270611,"SoundDuration":270611,"Delta":277740070},{"NoteNumber":62,"Velocity":37,"Duration":270611,"SoundDuration":270611,"Delta":277740070},{"NoteNumber":79,"Velocity":65,"Duration":1063264,"SoundDuration":1063264,"Delta":278010682},{"NoteNumber":52,"Velocity":46,"Duration":265815,"SoundDuration":265815,"Delta":278010682},{"NoteNumber":59,"Velocity":38,"Duration":265816,"SoundDuration":265816,"Delta":278276498},{"NoteNumber":55,"Velocity":42,"Duration":265815,"SoundDuration":265815,"Delta":278542314},{"NoteNumber":59,"Velocity":38,"Duration":265816,"SoundDuration":265816,"Delta":278808130},{"NoteNumber":47,"Velocity":53,"Duration":265815,"SoundDuration":265815,"Delta":279073946},{"NoteNumber":55,"Velocity":44,"Duration":270611,"SoundDuration":270611,"Delta":279339762},{"NoteNumber":50,"Velocity":48,"Duration":270611,"SoundDuration":270611,"Delta":279610373},{"NoteNumber":55,"Velocity":39,"Duration":297441,"SoundDuration":297441,"Delta":279880985},{"NoteNumber":81,"Velocity":68,"Duration":295011,"SoundDuration":295011,"Delta":280178427},{"NoteNumber":48,"Velocity":49,"Duration":2145539,"SoundDuration":2145539,"Delta":280178427},{"NoteNumber":52,"Velocity":58,"Duration":1072769,"SoundDuration":1072769,"Delta":280178427},{"NoteNumber":79,"Velocity":59,"Duration":295011,"SoundDuration":295011,"Delta":280446619},{"NoteNumber":78,"Velocity":64,"Duration":295011,"SoundDuration":295011,"Delta":280714812},{"NoteNumber":79,"Velocity":58,"Duration":268192,"SoundDuration":268192,"Delta":280983004},{"NoteNumber":78,"Velocity":64,"Duration":295011,"SoundDuration":295011,"Delta":281251197},{"NoteNumber":55,"Velocity":34,"Duration":2163443,"SoundDuration":2163443,"Delta":281251197},{"NoteNumber":76,"Velocity":54,"Duration":295011,"SoundDuration":295011,"Delta":281519389},{"NoteNumber":75,"Velocity":59,"Duration":295011,"SoundDuration":295011,"Delta":281787582},{"NoteNumber":76,"Velocity":53,"Duration":268192,"SoundDuration":268192,"Delta":282055774},{"NoteNumber":74,"Velocity":62,"Duration":295011,"SoundDuration":295011,"Delta":282323967},{"NoteNumber":52,"Velocity":34,"Duration":1090673,"SoundDuration":1090673,"Delta":282323967},{"NoteNumber":72,"Velocity":53,"Duration":295011,"SoundDuration":295011,"Delta":282592159},{"NoteNumber":71,"Velocity":56,"Duration":296802,"SoundDuration":296802,"Delta":282860352},{"NoteNumber":72,"Velocity":53,"Duration":286095,"SoundDuration":286095,"Delta":283128544},{"NoteNumber":71,"Velocity":59,"Duration":811834,"SoundDuration":811834,"Delta":283414640},{"NoteNumber":50,"Velocity":36,"Duration":2205411,"SoundDuration":2205411,"Delta":283414640},{"NoteNumber":55,"Velocity":36,"Duration":1082446,"SoundDuration":1082446,"Delta":283414640},{"NoteNumber":72,"Velocity":50,"Duration":135305,"SoundDuration":135305,"Delta":284226475},{"NoteNumber":71,"Velocity":50,"Duration":135305,"SoundDuration":135305,"Delta":284361780},{"NoteNumber":69,"Velocity":57,"Duration":561482,"SoundDuration":561482,"Delta":284497086},{"NoteNumber":54,"Velocity":28,"Duration":1122965,"SoundDuration":1122965,"Delta":284497086},{"NoteNumber":74,"Velocity":54,"Duration":584877,"SoundDuration":584877,"Delta":285058569},{"NoteNumber":73,"Velocity":52,"Duration":584877,"SoundDuration":584877,"Delta":285620051},{"NoteNumber":72,"Velocity":50,"Duration":561482,"SoundDuration":561482,"Delta":286181534},{"NoteNumber":71,"Velocity":50,"Duration":1358114,"SoundDuration":1358114,"Delta":286743016},{"NoteNumber":55,"Velocity":40,"Duration":273074,"SoundDuration":273074,"Delta":286743016},{"NoteNumber":62,"Velocity":25,"Duration":273074,"SoundDuration":273074,"Delta":287016091},{"NoteNumber":59,"Velocity":31,"Duration":273074,"SoundDuration":273074,"Delta":287289166},{"NoteNumber":62,"Velocity":26,"Duration":273074,"SoundDuration":273074,"Delta":287562240},{"NoteNumber":55,"Velocity":40,"Duration":265815,"SoundDuration":265815,"Delta":287835315},{"NoteNumber":67,"Velocity":46,"Duration":265816,"SoundDuration":265816,"Delta":288101131},{"NoteNumber":62,"Velocity":27,"Duration":265816,"SoundDuration":265816,"Delta":288101131},{"NoteNumber":71,"Velocity":48,"Duration":263481,"SoundDuration":263481,"Delta":288366947},{"NoteNumber":59,"Velocity":31,"Duration":263481,"SoundDuration":263481,"Delta":288366947},{"NoteNumber":74,"Velocity":46,"Duration":265679,"SoundDuration":265679,"Delta":288615059},{"NoteNumber":62,"Velocity":26,"Duration":265815,"SoundDuration":265815,"Delta":288630429},{"NoteNumber":72,"Velocity":54,"Duration":265815,"SoundDuration":265815,"Delta":288896245},{"NoteNumber":57,"Velocity":40,"Duration":265815,"SoundDuration":265815,"Delta":288896245},{"NoteNumber":69,"Velocity":46,"Duration":265816,"SoundDuration":265816,"Delta":289162061},{"NoteNumber":62,"Velocity":31,"Duration":265816,"SoundDuration":265816,"Delta":289162061},{"NoteNumber":72,"Velocity":54,"Duration":265815,"SoundDuration":265815,"Delta":289427877},{"NoteNumber":60,"Velocity":36,"Duration":265815,"SoundDuration":265815,"Delta":289427877},{"NoteNumber":76,"Velocity":51,"Duration":306560,"SoundDuration":306560,"Delta":289693693},{"NoteNumber":62,"Velocity":30,"Duration":306560,"SoundDuration":306560,"Delta":289693693},{"NoteNumber":74,"Velocity":58,"Duration":804577,"SoundDuration":804577,"Delta":290000253},{"NoteNumber":55,"Velocity":40,"Duration":268192,"SoundDuration":268192,"Delta":290000253},{"NoteNumber":62,"Velocity":28,"Duration":268192,"SoundDuration":268192,"Delta":290268446},{"NoteNumber":59,"Velocity":32,"Duration":268192,"SoundDuration":268192,"Delta":290536638},{"NoteNumber":71,"Velocity":47,"Duration":273074,"SoundDuration":273074,"Delta":290804831},{"NoteNumber":62,"Velocity":28,"Duration":273074,"SoundDuration":273074,"Delta":290804831},{"NoteNumber":67,"Velocity":47,"Duration":130593,"SoundDuration":130593,"Delta":291077905},{"NoteNumber":55,"Velocity":40,"Duration":261187,"SoundDuration":261187,"Delta":291077905},{"NoteNumber":67,"Velocity":46,"Duration":130593,"SoundDuration":130593,"Delta":291339093},{"NoteNumber":62,"Velocity":33,"Duration":261187,"SoundDuration":261187,"Delta":291339093},{"NoteNumber":69,"Velocity":47,"Duration":130593,"SoundDuration":130593,"Delta":291600280},{"NoteNumber":59,"Velocity":37,"Duration":261187,"SoundDuration":261187,"Delta":291600280},{"NoteNumber":71,"Velocity":48,"Duration":130593,"SoundDuration":130593,"Delta":291861468},{"NoteNumber":62,"Velocity":30,"Duration":261187,"SoundDuration":261187,"Delta":291861468},{"NoteNumber":72,"Velocity":49,"Duration":129252,"SoundDuration":129252,"Delta":292122655},{"NoteNumber":55,"Velocity":47,"Duration":258054,"SoundDuration":258054,"Delta":292122655},{"NoteNumber":74,"Velocity":50,"Duration":129692,"SoundDuration":129692,"Delta":292380710},{"NoteNumber":62,"Velocity":38,"Duration":260744,"SoundDuration":260744,"Delta":292380710},{"NoteNumber":76,"Velocity":51,"Duration":131974,"SoundDuration":131974,"Delta":292641455},{"NoteNumber":59,"Velocity":44,"Duration":265357,"SoundDuration":265357,"Delta":292641455},{"NoteNumber":78,"Velocity":53,"Duration":143047,"SoundDuration":143047,"Delta":292906812},{"NoteNumber":62,"Velocity":42,"Duration":286095,"SoundDuration":286095,"Delta":292906812},{"NoteNumber":79,"Velocity":57,"Duration":318979,"SoundDuration":318979,"Delta":293192908},{"NoteNumber":55,"Velocity":43,"Duration":265815,"SoundDuration":265815,"Delta":293192908},{"NoteNumber":78,"Velocity":50,"Duration":318979,"SoundDuration":318979,"Delta":293458724},{"NoteNumber":64,"Velocity":34,"Duration":265816,"SoundDuration":265816,"Delta":293458724},{"NoteNumber":79,"Velocity":56,"Duration":318979,"SoundDuration":318979,"Delta":293724540},{"NoteNumber":60,"Velocity":38,"Duration":265815,"SoundDuration":265815,"Delta":293724540},{"NoteNumber":78,"Velocity":52,"Duration":318979,"SoundDuration":318979,"Delta":293990356},{"NoteNumber":64,"Velocity":34,"Duration":265816,"SoundDuration":265816,"Delta":293990356},{"NoteNumber":81,"Velocity":59,"Duration":318979,"SoundDuration":318979,"Delta":294256172},{"NoteNumber":55,"Velocity":44,"Duration":265815,"SoundDuration":265815,"Delta":294256172},{"NoteNumber":79,"Velocity":57,"Duration":318979,"SoundDuration":318979,"Delta":294521988},{"NoteNumber":64,"Velocity":34,"Duration":265815,"SoundDuration":265815,"Delta":294521988},{"NoteNumber":78,"Velocity":54,"Duration":318979,"SoundDuration":318979,"Delta":294787804},{"NoteNumber":60,"Velocity":39,"Duration":265815,"SoundDuration":265815,"Delta":294787804},{"NoteNumber":79,"Velocity":49,"Duration":319938,"SoundDuration":319938,"Delta":295053620},{"NoteNumber":64,"Velocity":34,"Duration":265816,"SoundDuration":265816,"Delta":295053620},{"NoteNumber":78,"Velocity":52,"Duration":324733,"SoundDuration":324733,"Delta":295319436},{"NoteNumber":55,"Velocity":40,"Duration":270611,"SoundDuration":270611,"Delta":295319436},{"NoteNumber":76,"Velocity":50,"Duration":324733,"SoundDuration":324733,"Delta":295590047},{"NoteNumber":61,"Velocity":26,"Duration":270611,"SoundDuration":270611,"Delta":295590047},{"NoteNumber":74,"Velocity":48,"Duration":328381,"SoundDuration":328381,"Delta":295860659},{"NoteNumber":58,"Velocity":34,"Duration":270611,"SoundDuration":270611,"Delta":295860659},{"NoteNumber":73,"Velocity":46,"Duration":342013,"SoundDuration":342013,"Delta":296131270},{"NoteNumber":61,"Velocity":27,"Duration":288850,"SoundDuration":288850,"Delta":296131270},{"NoteNumber":74,"Velocity":50,"Duration":265815,"SoundDuration":265815,"Delta":296420121},{"NoteNumber":55,"Velocity":40,"Duration":265815,"SoundDuration":265815,"Delta":296420121},{"NoteNumber":71,"Velocity":43,"Duration":265816,"SoundDuration":265816,"Delta":296685937},{"NoteNumber":62,"Velocity":24,"Duration":265816,"SoundDuration":265816,"Delta":296685937},{"NoteNumber":74,"Velocity":47,"Duration":265815,"SoundDuration":265815,"Delta":296951753},{"NoteNumber":59,"Velocity":31,"Duration":265815,"SoundDuration":265815,"Delta":296951753},{"NoteNumber":71,"Velocity":43,"Duration":283393,"SoundDuration":283393,"Delta":297217569},{"NoteNumber":62,"Velocity":27,"Duration":283393,"SoundDuration":283393,"Delta":297217569},{"NoteNumber":67,"Velocity":47,"Duration":1082446,"SoundDuration":1082446,"Delta":297500962},{"NoteNumber":55,"Velocity":40,"Duration":270611,"SoundDuration":270611,"Delta":297500962},{"NoteNumber":62,"Velocity":26,"Duration":270611,"SoundDuration":270611,"Delta":297771574},{"NoteNumber":59,"Velocity":33,"Duration":270611,"SoundDuration":270611,"Delta":298042185},{"NoteNumber":62,"Velocity":27,"Duration":270611,"SoundDuration":270611,"Delta":298312797},{"NoteNumber":55,"Velocity":41,"Duration":270611,"SoundDuration":270611,"Delta":298583408},{"NoteNumber":62,"Velocity":30,"Duration":270611,"SoundDuration":270611,"Delta":298854020},{"NoteNumber":59,"Velocity":33,"Duration":270611,"SoundDuration":270611,"Delta":299124631},{"NoteNumber":62,"Velocity":29,"Duration":270611,"SoundDuration":270611,"Delta":299395243},{"NoteNumber":72,"Velocity":50,"Duration":268192,"SoundDuration":268192,"Delta":299665854},{"NoteNumber":57,"Velocity":40,"Duration":268192,"SoundDuration":268192,"Delta":299665854},{"NoteNumber":69,"Velocity":46,"Duration":268192,"SoundDuration":268192,"Delta":299934047},{"NoteNumber":62,"Velocity":27,"Duration":268192,"SoundDuration":268192,"Delta":299934047},{"NoteNumber":72,"Velocity":46,"Duration":268192,"SoundDuration":268192,"Delta":300202239},{"NoteNumber":60,"Velocity":32,"Duration":268192,"SoundDuration":268192,"Delta":300202239},{"NoteNumber":69,"Velocity":43,"Duration":266779,"SoundDuration":266779,"Delta":300470432},{"NoteNumber":62,"Velocity":27,"Duration":266779,"SoundDuration":266779,"Delta":300470432},{"NoteNumber":66,"Velocity":50,"Duration":132674,"SoundDuration":132674,"Delta":300737211},{"NoteNumber":57,"Velocity":40,"Duration":265582,"SoundDuration":265582,"Delta":300737211},{"NoteNumber":69,"Velocity":46,"Duration":265816,"SoundDuration":265816,"Delta":301002793},{"NoteNumber":62,"Velocity":30,"Duration":265816,"SoundDuration":265816,"Delta":301002793},{"NoteNumber":68,"Velocity":49,"Duration":263481,"SoundDuration":263481,"Delta":301268609},{"NoteNumber":60,"Velocity":33,"Duration":263481,"SoundDuration":263481,"Delta":301268609},{"NoteNumber":69,"Velocity":51,"Duration":263481,"SoundDuration":263481,"Delta":301532091},{"NoteNumber":62,"Velocity":28,"Duration":263481,"SoundDuration":263481,"Delta":301532091},{"NoteNumber":70,"Velocity":54,"Duration":263481,"SoundDuration":263481,"Delta":301795572},{"NoteNumber":57,"Velocity":40,"Duration":263481,"SoundDuration":263481,"Delta":301795572},{"NoteNumber":71,"Velocity":51,"Duration":265815,"SoundDuration":265815,"Delta":302059054},{"NoteNumber":62,"Velocity":31,"Duration":265815,"SoundDuration":265815,"Delta":302059054},{"NoteNumber":72,"Velocity":54,"Duration":265816,"SoundDuration":265816,"Delta":302324870},{"NoteNumber":60,"Velocity":38,"Duration":265816,"SoundDuration":265816,"Delta":302324870},{"NoteNumber":73,"Velocity":56,"Duration":256717,"SoundDuration":256717,"Delta":302590686},{"NoteNumber":62,"Velocity":33,"Duration":256717,"SoundDuration":256717,"Delta":302590686},{"NoteNumber":74,"Velocity":59,"Duration":258933,"SoundDuration":258933,"Delta":302847403},{"NoteNumber":55,"Velocity":40,"Duration":258933,"SoundDuration":258933,"Delta":302847403},{"NoteNumber":71,"Velocity":51,"Duration":265815,"SoundDuration":265815,"Delta":303106337},{"NoteNumber":62,"Velocity":38,"Duration":265815,"SoundDuration":265815,"Delta":303106337},{"NoteNumber":74,"Velocity":54,"Duration":265816,"SoundDuration":265816,"Delta":303372153},{"NoteNumber":59,"Velocity":42,"Duration":265816,"SoundDuration":265816,"Delta":303372153},{"NoteNumber":71,"Velocity":51,"Duration":265815,"SoundDuration":265815,"Delta":303637969},{"NoteNumber":62,"Velocity":35,"Duration":265815,"SoundDuration":265815,"Delta":303637969},{"NoteNumber":79,"Velocity":63,"Duration":1063264,"SoundDuration":1063264,"Delta":303903785},{"NoteNumber":52,"Velocity":51,"Duration":265815,"SoundDuration":265815,"Delta":303903785},{"NoteNumber":59,"Velocity":46,"Duration":265816,"SoundDuration":265816,"Delta":304169601},{"NoteNumber":55,"Velocity":50,"Duration":265815,"SoundDuration":265815,"Delta":304435417},{"NoteNumber":59,"Velocity":47,"Duration":265816,"SoundDuration":265816,"Delta":304701233},{"NoteNumber":47,"Velocity":54,"Duration":275583,"SoundDuration":275583,"Delta":304967049},{"NoteNumber":83,"Velocity":67,"Duration":324733,"SoundDuration":324733,"Delta":305242632},{"NoteNumber":55,"Velocity":42,"Duration":270611,"SoundDuration":270611,"Delta":305242632},{"NoteNumber":78,"Velocity":62,"Duration":330099,"SoundDuration":330099,"Delta":305513243},{"NoteNumber":50,"Velocity":47,"Duration":270611,"SoundDuration":270611,"Delta":305513243},{"NoteNumber":79,"Velocity":56,"Duration":297441,"SoundDuration":297441,"Delta":305783855},{"NoteNumber":55,"Velocity":34,"Duration":297441,"SoundDuration":297441,"Delta":305783855},{"NoteNumber":75,"Velocity":58,"Duration":324733,"SoundDuration":324733,"Delta":306081297},{"NoteNumber":48,"Velocity":40,"Duration":270611,"SoundDuration":270611,"Delta":306081297},{"NoteNumber":76,"Velocity":49,"Duration":324733,"SoundDuration":324733,"Delta":306351908},{"NoteNumber":57,"Velocity":26,"Duration":270611,"SoundDuration":270611,"Delta":306351908},{"NoteNumber":72,"Velocity":53,"Duration":331303,"SoundDuration":331303,"Delta":306622520},{"NoteNumber":52,"Velocity":33,"Duration":270611,"SoundDuration":270611,"Delta":306622520},{"NoteNumber":69,"Velocity":46,"Duration":358074,"SoundDuration":358074,"Delta":306893131},{"NoteNumber":57,"Velocity":29,"Duration":303459,"SoundDuration":303459,"Delta":306893131},{"NoteNumber":67,"Velocity":53,"Duration":819224,"SoundDuration":819224,"Delta":307196591},{"NoteNumber":50,"Velocity":39,"Duration":273074,"SoundDuration":273074,"Delta":307196591},{"NoteNumber":59,"Velocity":27,"Duration":273074,"SoundDuration":273074,"Delta":307469666},{"NoteNumber":55,"Velocity":33,"Duration":273074,"SoundDuration":273074,"Delta":307742740},{"NoteNumber":67,"Velocity":44,"Duration":273074,"SoundDuration":273074,"Delta":308015815},{"NoteNumber":59,"Velocity":28,"Duration":273074,"SoundDuration":273074,"Delta":308015815},{"NoteNumber":66,"Velocity":47,"Duration":1191631,"SoundDuration":1191631,"Delta":308288890},{"NoteNumber":71,"Velocity":55,"Duration":340071,"SoundDuration":340071,"Delta":308288890},{"NoteNumber":50,"Velocity":39,"Duration":283393,"SoundDuration":283393,"Delta":308288890},{"NoteNumber":69,"Velocity":44,"Duration":340071,"SoundDuration":340071,"Delta":308572283},{"NoteNumber":60,"Velocity":27,"Duration":283393,"SoundDuration":283393,"Delta":308572283},{"NoteNumber":67,"Velocity":49,"Duration":351683,"SoundDuration":351683,"Delta":308855676},{"NoteNumber":57,"Velocity":32,"Duration":283393,"SoundDuration":283393,"Delta":308855676},{"NoteNumber":69,"Velocity":42,"Duration":341452,"SoundDuration":341452,"Delta":309139070},{"NoteNumber":60,"Velocity":27,"Duration":341452,"SoundDuration":341452,"Delta":309139070},{"NoteNumber":67,"Velocity":49,"Duration":275583,"SoundDuration":275583,"Delta":309480522},{"NoteNumber":55,"Velocity":27,"Duration":1087551,"SoundDuration":1087551,"Delta":309480522},{"NoteNumber":59,"Velocity":36,"Duration":1087551,"SoundDuration":1087551,"Delta":309480522},{"NoteNumber":66,"Velocity":43,"Duration":275583,"SoundDuration":275583,"Delta":309756105},{"NoteNumber":69,"Velocity":49,"Duration":268192,"SoundDuration":268192,"Delta":310031688},{"NoteNumber":67,"Velocity":43,"Duration":268192,"SoundDuration":268192,"Delta":310299881},{"NoteNumber":71,"Velocity":49,"Duration":270611,"SoundDuration":270611,"Delta":310568073},{"NoteNumber":69,"Velocity":42,"Duration":270611,"SoundDuration":270611,"Delta":310838685},{"NoteNumber":72,"Velocity":48,"Duration":268192,"SoundDuration":268192,"Delta":311109296},{"NoteNumber":71,"Velocity":40,"Duration":268192,"SoundDuration":268192,"Delta":311377489},{"NoteNumber":74,"Velocity":53,"Duration":270611,"SoundDuration":270611,"Delta":311645681},{"NoteNumber":72,"Velocity":46,"Duration":270611,"SoundDuration":270611,"Delta":311916293},{"NoteNumber":76,"Velocity":56,"Duration":270611,"SoundDuration":270611,"Delta":312186904},{"NoteNumber":74,"Velocity":53,"Duration":303459,"SoundDuration":303459,"Delta":312457516},{"NoteNumber":77,"Velocity":59,"Duration":1623801,"SoundDuration":1623801,"Delta":312760975},{"NoteNumber":57,"Velocity":40,"Duration":273074,"SoundDuration":273074,"Delta":312760975},{"NoteNumber":65,"Velocity":29,"Duration":268192,"SoundDuration":268192,"Delta":313034050},{"NoteNumber":60,"Velocity":35,"Duration":268192,"SoundDuration":268192,"Delta":313302243},{"NoteNumber":65,"Velocity":30,"Duration":268192,"SoundDuration":268192,"Delta":313570435},{"NoteNumber":57,"Velocity":40,"Duration":273074,"SoundDuration":273074,"Delta":313838628},{"NoteNumber":65,"Velocity":31,"Duration":273074,"SoundDuration":273074,"Delta":314111702},{"NoteNumber":79,"Velocity":56,"Duration":316177,"SoundDuration":316177,"Delta":314384777},{"NoteNumber":60,"Velocity":36,"Duration":263481,"SoundDuration":263481,"Delta":314384777},{"NoteNumber":81,"Velocity":50,"Duration":315268,"SoundDuration":315268,"Delta":314648259},{"NoteNumber":65,"Velocity":30,"Duration":263481,"SoundDuration":263481,"Delta":314648259},{"NoteNumber":79,"Velocity":56,"Duration":310719,"SoundDuration":310719,"Delta":314911740},{"NoteNumber":59,"Velocity":40,"Duration":258933,"SoundDuration":258933,"Delta":314911740},{"NoteNumber":77,"Velocity":50,"Duration":313548,"SoundDuration":313548,"Delta":315170673},{"NoteNumber":67,"Velocity":31,"Duration":258933,"SoundDuration":258933,"Delta":315170673},{"NoteNumber":76,"Velocity":54,"Duration":334386,"SoundDuration":334386,"Delta":315429607},{"NoteNumber":62,"Velocity":37,"Duration":273074,"SoundDuration":273074,"Delta":315429607},{"NoteNumber":74,"Velocity":51,"Duration":306560,"SoundDuration":306560,"Delta":315702681},{"NoteNumber":67,"Velocity":31,"Duration":306560,"SoundDuration":306560,"Delta":315702681},{"NoteNumber":75,"Velocity":60,"Duration":1073031,"SoundDuration":1073031,"Delta":316009242},{"NoteNumber":60,"Velocity":40,"Duration":265815,"SoundDuration":265815,"Delta":316009242},{"NoteNumber":67,"Velocity":26,"Duration":265816,"SoundDuration":265816,"Delta":316275058},{"NoteNumber":64,"Velocity":32,"Duration":265815,"SoundDuration":265815,"Delta":316540874},{"NoteNumber":67,"Velocity":27,"Duration":275583,"SoundDuration":275583,"Delta":316806690},{"NoteNumber":76,"Velocity":55,"Duration":1072855,"SoundDuration":1072855,"Delta":317082273},{"NoteNumber":60,"Velocity":36,"Duration":270611,"SoundDuration":270611,"Delta":317082273},{"NoteNumber":67,"Velocity":27,"Duration":270611,"SoundDuration":270611,"Delta":317352885},{"NoteNumber":64,"Velocity":32,"Duration":265815,"SoundDuration":265815,"Delta":317623496},{"NoteNumber":67,"Velocity":29,"Duration":265816,"SoundDuration":265816,"Delta":317889312},{"NoteNumber":60,"Velocity":37,"Duration":270611,"SoundDuration":270611,"Delta":318155128},{"NoteNumber":79,"Velocity":61,"Duration":318979,"SoundDuration":318979,"Delta":318425740},{"NoteNumber":67,"Velocity":28,"Duration":265815,"SoundDuration":265815,"Delta":318425740},{"NoteNumber":78,"Velocity":55,"Duration":325304,"SoundDuration":325304,"Delta":318691556},{"NoteNumber":64,"Velocity":32,"Duration":265816,"SoundDuration":265816,"Delta":318691556},{"NoteNumber":76,"Velocity":58,"Duration":351564,"SoundDuration":351564,"Delta":318957372},{"NoteNumber":67,"Velocity":28,"Duration":297441,"SoundDuration":297441,"Delta":318957372},{"NoteNumber":74,"Velocity":58,"Duration":324733,"SoundDuration":324733,"Delta":319254814},{"NoteNumber":59,"Velocity":40,"Duration":270611,"SoundDuration":270611,"Delta":319254814},{"NoteNumber":71,"Velocity":49,"Duration":324733,"SoundDuration":324733,"Delta":319525425},{"NoteNumber":62,"Velocity":26,"Duration":270611,"SoundDuration":270611,"Delta":319525425},{"NoteNumber":69,"Velocity":53,"Duration":331303,"SoundDuration":331303,"Delta":319796037},{"NoteNumber":60,"Velocity":33,"Duration":270611,"SoundDuration":270611,"Delta":319796037},{"NoteNumber":76,"Velocity":46,"Duration":303459,"SoundDuration":303459,"Delta":320066648},{"NoteNumber":64,"Velocity":29,"Duration":303459,"SoundDuration":303459,"Delta":320066648},{"NoteNumber":67,"Velocity":53,"Duration":819224,"SoundDuration":819224,"Delta":320370108},{"NoteNumber":50,"Velocity":39,"Duration":273074,"SoundDuration":273074,"Delta":320370108},{"NoteNumber":59,"Velocity":29,"Duration":273074,"SoundDuration":273074,"Delta":320643182},{"NoteNumber":55,"Velocity":37,"Duration":273074,"SoundDuration":273074,"Delta":320916257},{"NoteNumber":67,"Velocity":44,"Duration":273074,"SoundDuration":273074,"Delta":321189332},{"NoteNumber":59,"Velocity":29,"Duration":273074,"SoundDuration":273074,"Delta":321189332},{"NoteNumber":66,"Velocity":47,"Duration":1178517,"SoundDuration":1178517,"Delta":321462407},{"NoteNumber":71,"Velocity":55,"Duration":331731,"SoundDuration":331731,"Delta":321462407},{"NoteNumber":50,"Velocity":39,"Duration":275583,"SoundDuration":275583,"Delta":321462407},{"NoteNumber":69,"Velocity":44,"Duration":336889,"SoundDuration":336889,"Delta":321737990},{"NoteNumber":60,"Velocity":30,"Duration":280741,"SoundDuration":280741,"Delta":321737990},{"NoteNumber":67,"Velocity":49,"Duration":349031,"SoundDuration":349031,"Delta":322018731},{"NoteNumber":57,"Velocity":36,"Duration":280741,"SoundDuration":280741,"Delta":322018731},{"NoteNumber":69,"Velocity":42,"Duration":341452,"SoundDuration":341452,"Delta":322299472},{"NoteNumber":60,"Velocity":29,"Duration":341452,"SoundDuration":341452,"Delta":322299472},{"NoteNumber":67,"Velocity":49,"Duration":275583,"SoundDuration":275583,"Delta":322640925},{"NoteNumber":55,"Velocity":27,"Duration":1086098,"SoundDuration":1086098,"Delta":322640925},{"NoteNumber":59,"Velocity":36,"Duration":1086098,"SoundDuration":1086098,"Delta":322640925},{"NoteNumber":66,"Velocity":43,"Duration":274579,"SoundDuration":274579,"Delta":322916508},{"NoteNumber":69,"Velocity":52,"Duration":268613,"SoundDuration":268613,"Delta":323191088},{"NoteNumber":67,"Velocity":47,"Duration":267321,"SoundDuration":267321,"Delta":323459701},{"NoteNumber":71,"Velocity":56,"Duration":268192,"SoundDuration":268192,"Delta":323727023},{"NoteNumber":69,"Velocity":52,"Duration":268192,"SoundDuration":268192,"Delta":323995215},{"NoteNumber":72,"Velocity":57,"Duration":268192,"SoundDuration":268192,"Delta":324263408},{"NoteNumber":71,"Velocity":57,"Duration":268192,"SoundDuration":268192,"Delta":324531600},{"NoteNumber":74,"Velocity":63,"Duration":268192,"SoundDuration":268192,"Delta":324799793},{"NoteNumber":72,"Velocity":62,"Duration":268192,"SoundDuration":268192,"Delta":325067985},{"NoteNumber":76,"Velocity":66,"Duration":268192,"SoundDuration":268192,"Delta":325336178},{"NoteNumber":74,"Velocity":65,"Duration":303459,"SoundDuration":303459,"Delta":325604370},{"NoteNumber":77,"Velocity":75,"Duration":1594896,"SoundDuration":1594896,"Delta":325907830},{"NoteNumber":45,"Velocity":56,"Duration":265815,"SoundDuration":265815,"Delta":325907830},{"NoteNumber":53,"Velocity":45,"Duration":265816,"SoundDuration":265816,"Delta":326173646},{"NoteNumber":48,"Velocity":49,"Duration":265815,"SoundDuration":265815,"Delta":326439462},{"NoteNumber":53,"Velocity":44,"Duration":265816,"SoundDuration":265816,"Delta":326705278},{"NoteNumber":47,"Velocity":55,"Duration":265815,"SoundDuration":265815,"Delta":326971094},{"NoteNumber":55,"Velocity":41,"Duration":265816,"SoundDuration":265816,"Delta":327236910},{"NoteNumber":79,"Velocity":72,"Duration":318979,"SoundDuration":318979,"Delta":327502726},{"NoteNumber":50,"Velocity":50,"Duration":265815,"SoundDuration":265815,"Delta":327502726},{"NoteNumber":81,"Velocity":67,"Duration":318979,"SoundDuration":318979,"Delta":327768542},{"NoteNumber":55,"Velocity":43,"Duration":265816,"SoundDuration":265816,"Delta":327768542},{"NoteNumber":79,"Velocity":75,"Duration":318979,"SoundDuration":318979,"Delta":328034358},{"NoteNumber":43,"Velocity":55,"Duration":265815,"SoundDuration":265815,"Delta":328034358},{"NoteNumber":77,"Velocity":71,"Duration":318979,"SoundDuration":318979,"Delta":328300174},{"NoteNumber":55,"Velocity":41,"Duration":265816,"SoundDuration":265816,"Delta":328300174},{"NoteNumber":76,"Velocity":75,"Duration":327128,"SoundDuration":327128,"Delta":328565990},{"NoteNumber":47,"Velocity":52,"Duration":265815,"SoundDuration":265815,"Delta":328565990},{"NoteNumber":74,"Velocity":73,"Duration":306560,"SoundDuration":306560,"Delta":328831806},{"NoteNumber":55,"Velocity":44,"Duration":306560,"SoundDuration":306560,"Delta":328831806},{"NoteNumber":76,"Velocity":76,"Duration":1087417,"SoundDuration":1087417,"Delta":329138366},{"NoteNumber":48,"Velocity":56,"Duration":270611,"SoundDuration":270611,"Delta":329138366},{"NoteNumber":55,"Velocity":47,"Duration":270611,"SoundDuration":270611,"Delta":329408978},{"NoteNumber":52,"Velocity":49,"Duration":270611,"SoundDuration":270611,"Delta":329679589},{"NoteNumber":55,"Velocity":46,"Duration":275583,"SoundDuration":275583,"Delta":329950201},{"NoteNumber":78,"Velocity":74,"Duration":1082446,"SoundDuration":1082446,"Delta":330225784},{"NoteNumber":48,"Velocity":60,"Duration":270611,"SoundDuration":270611,"Delta":330225784},{"NoteNumber":57,"Velocity":48,"Duration":270611,"SoundDuration":270611,"Delta":330496396},{"NoteNumber":51,"Velocity":56,"Duration":270611,"SoundDuration":270611,"Delta":330767007},{"NoteNumber":57,"Velocity":47,"Duration":270611,"SoundDuration":270611,"Delta":331037619},{"NoteNumber":79,"Velocity":77,"Duration":1109276,"SoundDuration":1109276,"Delta":331308230},{"NoteNumber":49,"Velocity":61,"Duration":270611,"SoundDuration":270611,"Delta":331308230},{"NoteNumber":58,"Velocity":48,"Duration":270611,"SoundDuration":270611,"Delta":331578842},{"NoteNumber":52,"Velocity":56,"Duration":270611,"SoundDuration":270611,"Delta":331849453},{"NoteNumber":58,"Velocity":47,"Duration":297441,"SoundDuration":297441,"Delta":332120065},{"NoteNumber":67,"Velocity":65,"Duration":1661443,"SoundDuration":1661443,"Delta":332417507},{"NoteNumber":50,"Velocity":40,"Duration":270611,"SoundDuration":270611,"Delta":332417507},{"NoteNumber":59,"Velocity":26,"Duration":270611,"SoundDuration":270611,"Delta":332688118},{"NoteNumber":55,"Velocity":33,"Duration":270611,"SoundDuration":270611,"Delta":332958730},{"NoteNumber":59,"Velocity":29,"Duration":303459,"SoundDuration":303459,"Delta":333229341},{"NoteNumber":50,"Velocity":39,"Duration":273074,"SoundDuration":273074,"Delta":333532801},{"NoteNumber":59,"Velocity":29,"Duration":273074,"SoundDuration":273074,"Delta":333805875},{"NoteNumber":69,"Velocity":44,"Duration":136537,"SoundDuration":136537,"Delta":334078950},{"NoteNumber":55,"Velocity":37,"Duration":273074,"SoundDuration":273074,"Delta":334078950},{"NoteNumber":67,"Velocity":44,"Duration":136537,"SoundDuration":136537,"Delta":334215487},{"NoteNumber":66,"Velocity":44,"Duration":136537,"SoundDuration":136537,"Delta":334352025},{"NoteNumber":59,"Velocity":29,"Duration":273074,"SoundDuration":273074,"Delta":334352025},{"NoteNumber":67,"Velocity":44,"Duration":136537,"SoundDuration":136537,"Delta":334488562},{"NoteNumber":66,"Velocity":47,"Duration":1153639,"SoundDuration":1153639,"Delta":334625100},{"NoteNumber":71,"Velocity":55,"Duration":566786,"SoundDuration":566786,"Delta":334625100},{"NoteNumber":50,"Velocity":39,"Duration":283393,"SoundDuration":283393,"Delta":334625100},{"NoteNumber":60,"Velocity":30,"Duration":283393,"SoundDuration":283393,"Delta":334908493},{"NoteNumber":69,"Velocity":49,"Duration":586852,"SoundDuration":586852,"Delta":335191886},{"NoteNumber":57,"Velocity":36,"Duration":283393,"SoundDuration":283393,"Delta":335191886},{"NoteNumber":60,"Velocity":29,"Duration":303459,"SoundDuration":303459,"Delta":335475279},{"NoteNumber":67,"Velocity":49,"Duration":268192,"SoundDuration":268192,"Delta":335778739},{"NoteNumber":55,"Velocity":30,"Duration":1072769,"SoundDuration":1072769,"Delta":335778739},{"NoteNumber":59,"Velocity":36,"Duration":1072769,"SoundDuration":1072769,"Delta":335778739},{"NoteNumber":62,"Velocity":40,"Duration":268192,"SoundDuration":268192,"Delta":336046931},{"NoteNumber":71,"Velocity":44,"Duration":89397,"SoundDuration":89397,"Delta":336315124},{"NoteNumber":71,"Velocity":44,"Duration":89397,"SoundDuration":89397,"Delta":336583316},{"NoteNumber":71,"Velocity":49,"Duration":270611,"SoundDuration":270611,"Delta":336851509},{"NoteNumber":67,"Velocity":41,"Duration":270611,"SoundDuration":270611,"Delta":337122120},{"NoteNumber":74,"Velocity":45,"Duration":90203,"SoundDuration":90203,"Delta":337392732},{"NoteNumber":74,"Velocity":45,"Duration":96283,"SoundDuration":96283,"Delta":337663343},{"NoteNumber":74,"Velocity":49,"Duration":268192,"SoundDuration":268192,"Delta":337952194},{"NoteNumber":71,"Velocity":42,"Duration":268192,"SoundDuration":268192,"Delta":338220386},{"NoteNumber":69,"Velocity":45,"Duration":268192,"SoundDuration":268192,"Delta":338488579},{"NoteNumber":50,"Velocity":30,"Duration":557043,"SoundDuration":557043,"Delta":338488579},{"NoteNumber":60,"Velocity":36,"Duration":557043,"SoundDuration":557043,"Delta":338488579},{"NoteNumber":71,"Velocity":40,"Duration":288850,"SoundDuration":288850,"Delta":338756771},{"NoteNumber":67,"Velocity":49,"Duration":268192,"SoundDuration":268192,"Delta":339045622},{"NoteNumber":55,"Velocity":30,"Duration":1072769,"SoundDuration":1072769,"Delta":339045622},{"NoteNumber":59,"Velocity":36,"Duration":1072769,"SoundDuration":1072769,"Delta":339045622},{"NoteNumber":62,"Velocity":40,"Duration":268192,"SoundDuration":268192,"Delta":339313814},{"NoteNumber":71,"Velocity":44,"Duration":89397,"SoundDuration":89397,"Delta":339582007},{"NoteNumber":71,"Velocity":44,"Duration":89397,"SoundDuration":89397,"Delta":339850199},{"NoteNumber":71,"Velocity":49,"Duration":270611,"SoundDuration":270611,"Delta":340118392},{"NoteNumber":67,"Velocity":41,"Duration":270611,"SoundDuration":270611,"Delta":340389003},{"NoteNumber":74,"Velocity":45,"Duration":90203,"SoundDuration":90203,"Delta":340659615},{"NoteNumber":74,"Velocity":45,"Duration":96283,"SoundDuration":96283,"Delta":340930226},{"NoteNumber":74,"Velocity":49,"Duration":268192,"SoundDuration":268192,"Delta":341219077},{"NoteNumber":71,"Velocity":42,"Duration":268192,"SoundDuration":268192,"Delta":341487269},{"NoteNumber":69,"Velocity":45,"Duration":268192,"SoundDuration":268192,"Delta":341755462},{"NoteNumber":50,"Velocity":30,"Duration":557043,"SoundDuration":557043,"Delta":341755462},{"NoteNumber":60,"Velocity":36,"Duration":557043,"SoundDuration":557043,"Delta":341755462},{"NoteNumber":71,"Velocity":40,"Duration":288850,"SoundDuration":288850,"Delta":342023654},{"NoteNumber":67,"Velocity":45,"Duration":653167,"SoundDuration":653167,"Delta":342312505},{"NoteNumber":55,"Velocity":30,"Duration":653167,"SoundDuration":653167,"Delta":342312505},{"NoteNumber":59,"Velocity":36,"Duration":653167,"SoundDuration":653167,"Delta":342312505},{"NoteNumber":59,"Velocity":38,"Duration":653167,"SoundDuration":653167,"Delta":343618841},{"NoteNumber":67,"Velocity":38,"Duration":653167,"SoundDuration":653167,"Delta":343618841},{"NoteNumber":43,"Velocity":30,"Duration":653167,"SoundDuration":653167,"Delta":343618841}]}