{"title":"Klaviersonate Nr. 8 KV 311 2. Satz","artist":"Mozart","durationMs":278418,"midiSha256":"9b4776ebe922aeac6dfd175554796f25b116a5e2137b37cc4c68bccdc5c51bb6","midiObject":[{"NoteNumber":71,"Velocity":50,"Duration":506870,"SoundDuration":506870,"Delta":0},{"NoteNumber":55,"Velocity":39,"Duration":1317380,"SoundDuration":1317380,"Delta":0},{"NoteNumber":62,"Velocity":39,"Duration":2658295,"SoundDuration":2658295,"Delta":0},{"NoteNumber":74,"Velocity":42,"Duration":152470,"SoundDuration":152470,"Delta":506870},{"NoteNumber":72,"Velocity":50,"Duration":493529,"SoundDuration":493529,"Delta":659341},{"NoteNumber":71,"Velocity":47,"Duration":164509,"SoundDuration":164509,"Delta":1152870},{"NoteNumber":69,"Velocity":50,"Duration":658038,"SoundDuration":658038,"Delta":1317380},{"NoteNumber":54,"Velocity":32,"Duration":658038,"SoundDuration":658038,"Delta":1317380},{"NoteNumber":71,"Velocity":46,"Duration":682876,"SoundDuration":682876,"Delta":1975418},{"NoteNumber":55,"Velocity":32,"Duration":682876,"SoundDuration":682876,"Delta":1975418},{"NoteNumber":72,"Velocity":50,"Duration":658039,"SoundDuration":658039,"Delta":2658295},{"NoteNumber":57,"Velocity":38,"Duration":658039,"SoundDuration":658039,"Delta":2658295},{"NoteNumber":62,"Velocity":38,"Duration":2669994,"SoundDuration":2669994,"Delta":2658295},{"NoteNumber":74,"Velocity":46,"Duration":658038,"SoundDuration":658038,"Delta":3316334},{"NoteNumber":54,"Velocity":33,"Duration":658038,"SoundDuration":658038,"Delta":3316334},{"NoteNumber":72,"Velocity":47,"Duration":323345,"SoundDuration":323345,"Delta":3974373},{"NoteNumber":55,"Velocity":39,"Duration":1353916,"SoundDuration":1353916,"Delta":3974373},{"NoteNumber":71,"Velocity":49,"Duration":334896,"SoundDuration":334896,"Delta":4297719},{"NoteNumber":69,"Velocity":51,"Duration":320581,"SoundDuration":320581,"Delta":4632615},{"NoteNumber":67,"Velocity":53,"Duration":375093,"SoundDuration":375093,"Delta":4953196},{"NoteNumber":67,"Velocity":65,"Duration":353856,"SoundDuration":353856,"Delta":5328290},{"NoteNumber":72,"Velocity":65,"Duration":353856,"SoundDuration":353856,"Delta":5328290},{"NoteNumber":52,"Velocity":49,"Duration":353856,"SoundDuration":353856,"Delta":5328290},{"NoteNumber":64,"Velocity":49,"Duration":353856,"SoundDuration":353856,"Delta":5328290},{"NoteNumber":71,"Velocity":61,"Duration":353856,"SoundDuration":353856,"Delta":6036004},{"NoteNumber":67,"Velocity":61,"Duration":353856,"SoundDuration":353856,"Delta":6036004},{"NoteNumber":50,"Velocity":44,"Duration":353856,"SoundDuration":353856,"Delta":6036004},{"NoteNumber":62,"Velocity":44,"Duration":353856,"SoundDuration":353856,"Delta":6036004},{"NoteNumber":76,"Velocity":67,"Duration":353856,"SoundDuration":353856,"Delta":6743718},{"NoteNumber":67,"Velocity":67,"Duration":353856,"SoundDuration":353856,"Delta":6743718},{"NoteNumber":60,"Velocity":51,"Duration":353856,"SoundDuration":353856,"Delta":6743718},{"NoteNumber":48,"Velocity":51,"Duration":353856,"SoundDuration":353856,"Delta":6743718},{"NoteNumber":74,"Velocity":47,"Duration":326157,"SoundDuration":326157,"Delta":7805289},{"NoteNumber":67,"Velocity":47,"Duration":326157,"SoundDuration":326157,"Delta":7805289},{"NoteNumber":59,"Velocity":37,"Duration":326157,"SoundDuration":326157,"Delta":7805289},{"NoteNumber":72,"Velocity":50,"Duration":320581,"SoundDuration":320581,"Delta":8131447},{"NoteNumber":54,"Velocity":40,"Duration":658495,"SoundDuration":658495,"Delta":8131447},{"NoteNumber":69,"Velocity":42,"Duration":337913,"SoundDuration":337913,"Delta":8452028},{"NoteNumber":71,"Velocity":50,"Duration":326157,"SoundDuration":326157,"Delta":8789942},{"NoteNumber":55,"Velocity":35,"Duration":701251,"SoundDuration":701251,"Delta":8789942},{"NoteNumber":67,"Velocity":42,"Duration":375093,"SoundDuration":375093,"Delta":9116100},{"NoteNumber":67,"Velocity":50,"Duration":707713,"SoundDuration":707713,"Delta":9491193},{"NoteNumber":71,"Velocity":50,"Duration":707713,"SoundDuration":707713,"Delta":9491193},{"NoteNumber":50,"Velocity":39,"Duration":1415428,"SoundDuration":1415428,"Delta":9491193},{"NoteNumber":66,"Velocity":44,"Duration":707714,"SoundDuration":707714,"Delta":10198907},{"NoteNumber":69,"Velocity":44,"Duration":707714,"SoundDuration":707714,"Delta":10198907},{"NoteNumber":71,"Velocity":50,"Duration":497897,"SoundDuration":497897,"Delta":10906621},{"NoteNumber":55,"Velocity":39,"Duration":1303933,"SoundDuration":1303933,"Delta":10906621},{"NoteNumber":62,"Velocity":39,"Duration":2636263,"SoundDuration":2636263,"Delta":10906621},{"NoteNumber":74,"Velocity":42,"Duration":153719,"SoundDuration":153719,"Delta":11404519},{"NoteNumber":72,"Velocity":48,"Duration":489236,"SoundDuration":489236,"Delta":11558239},{"NoteNumber":71,"Velocity":47,"Duration":163078,"SoundDuration":163078,"Delta":12047476},{"NoteNumber":69,"Velocity":50,"Duration":652315,"SoundDuration":652315,"Delta":12210554},{"NoteNumber":54,"Velocity":32,"Duration":652315,"SoundDuration":652315,"Delta":12210554},{"NoteNumber":71,"Velocity":46,"Duration":680014,"SoundDuration":680014,"Delta":12862870},{"NoteNumber":55,"Velocity":32,"Duration":680014,"SoundDuration":680014,"Delta":12862870},{"NoteNumber":72,"Velocity":50,"Duration":658039,"SoundDuration":658039,"Delta":13542885},{"NoteNumber":62,"Velocity":38,"Duration":2681450,"SoundDuration":2681450,"Delta":13542885},{"NoteNumber":57,"Velocity":38,"Duration":658039,"SoundDuration":658039,"Delta":13542885},{"NoteNumber":76,"Velocity":46,"Duration":329019,"SoundDuration":329019,"Delta":14200924},{"NoteNumber":54,"Velocity":33,"Duration":658038,"SoundDuration":658038,"Delta":14200924},{"NoteNumber":74,"Velocity":49,"Duration":329019,"SoundDuration":329019,"Delta":14529943},{"NoteNumber":72,"Velocity":47,"Duration":323345,"SoundDuration":323345,"Delta":14858963},{"NoteNumber":55,"Velocity":39,"Duration":1365372,"SoundDuration":1365372,"Delta":14858963},{"NoteNumber":71,"Velocity":49,"Duration":337913,"SoundDuration":337913,"Delta":15182308},{"NoteNumber":69,"Velocity":51,"Duration":329019,"SoundDuration":329019,"Delta":15520222},{"NoteNumber":67,"Velocity":53,"Duration":375093,"SoundDuration":375093,"Delta":15849242},{"NoteNumber":67,"Velocity":65,"Duration":353857,"SoundDuration":353857,"Delta":16224335},{"NoteNumber":72,"Velocity":65,"Duration":353857,"SoundDuration":353857,"Delta":16224335},{"NoteNumber":52,"Velocity":49,"Duration":353857,"SoundDuration":353857,"Delta":16224335},{"NoteNumber":64,"Velocity":49,"Duration":353857,"SoundDuration":353857,"Delta":16224335},{"NoteNumber":71,"Velocity":61,"Duration":353857,"SoundDuration":353857,"Delta":16932049},{"NoteNumber":67,"Velocity":61,"Duration":353857,"SoundDuration":353857,"Delta":16932049},{"NoteNumber":62,"Velocity":44,"Duration":353857,"SoundDuration":353857,"Delta":16932049},{"NoteNumber":50,"Velocity":44,"Duration":353857,"SoundDuration":353857,"Delta":16932049},{"NoteNumber":76,"Velocity":67,"Duration":344115,"SoundDuration":344115,"Delta":17639763},{"NoteNumber":67,"Velocity":67,"Duration":1032346,"SoundDuration":1032346,"Delta":17639763},{"NoteNumber":48,"Velocity":51,"Duration":688230,"SoundDuration":688230,"Delta":17639763},{"NoteNumber":60,"Velocity":51,"Duration":688230,"SoundDuration":688230,"Delta":17639763},{"NoteNumber":78,"Velocity":62,"Duration":344115,"SoundDuration":344115,"Delta":17983879},{"NoteNumber":79,"Velocity":65,"Duration":344115,"SoundDuration":344115,"Delta":18327994},{"NoteNumber":72,"Velocity":47,"Duration":296130,"SoundDuration":296130,"Delta":18672110},{"NoteNumber":60,"Velocity":37,"Duration":296130,"SoundDuration":296130,"Delta":18672110},{"NoteNumber":64,"Velocity":37,"Duration":296130,"SoundDuration":296130,"Delta":18672110},{"NoteNumber":71,"Velocity":50,"Duration":714455,"SoundDuration":714455,"Delta":19066951},{"NoteNumber":67,"Velocity":40,"Duration":714455,"SoundDuration":714455,"Delta":19066951},{"NoteNumber":62,"Velocity":40,"Duration":1512124,"SoundDuration":1512124,"Delta":19066951},{"NoteNumber":69,"Velocity":47,"Duration":80376,"SoundDuration":80376,"Delta":19781407},{"NoteNumber":66,"Velocity":35,"Duration":797668,"SoundDuration":797668,"Delta":19781407},{"NoteNumber":71,"Velocity":47,"Duration":77399,"SoundDuration":77399,"Delta":19861783},{"NoteNumber":69,"Velocity":47,"Duration":80376,"SoundDuration":80376,"Delta":19939182},{"NoteNumber":71,"Velocity":47,"Duration":80376,"SoundDuration":80376,"Delta":20016582},{"NoteNumber":69,"Velocity":45,"Duration":80749,"SoundDuration":80749,"Delta":20096958},{"NoteNumber":71,"Velocity":45,"Duration":87913,"SoundDuration":87913,"Delta":20177707},{"NoteNumber":69,"Velocity":45,"Duration":87228,"SoundDuration":87228,"Delta":20265621},{"NoteNumber":67,"Velocity":45,"Duration":111056,"SoundDuration":111056,"Delta":20352850},{"NoteNumber":69,"Velocity":50,"Duration":119282,"SoundDuration":119282,"Delta":20459793},{"NoteNumber":67,"Velocity":45,"Duration":1364611,"SoundDuration":1364611,"Delta":20579075},{"NoteNumber":55,"Velocity":39,"Duration":1364611,"SoundDuration":1364611,"Delta":20579075},{"NoteNumber":59,"Velocity":28,"Duration":340986,"SoundDuration":340986,"Delta":20926378},{"NoteNumber":62,"Velocity":32,"Duration":329019,"SoundDuration":329019,"Delta":21267364},{"NoteNumber":59,"Velocity":27,"Duration":347302,"SoundDuration":347302,"Delta":21596384},{"NoteNumber":71,"Velocity":45,"Duration":662486,"SoundDuration":662486,"Delta":21943686},{"NoteNumber":48,"Velocity":39,"Duration":1329419,"SoundDuration":1329419,"Delta":21943686},{"NoteNumber":52,"Velocity":27,"Duration":329019,"SoundDuration":329019,"Delta":22277153},{"NoteNumber":69,"Velocity":45,"Duration":666933,"SoundDuration":666933,"Delta":22606173},{"NoteNumber":57,"Velocity":32,"Duration":329019,"SoundDuration":329019,"Delta":22606173},{"NoteNumber":52,"Velocity":28,"Duration":337914,"SoundDuration":337914,"Delta":22935192},{"NoteNumber":67,"Velocity":45,"Duration":326157,"SoundDuration":326157,"Delta":23273106},{"NoteNumber":50,"Velocity":39,"Duration":1329022,"SoundDuration":1329022,"Delta":23273106},{"NoteNumber":66,"Velocity":41,"Duration":318003,"SoundDuration":318003,"Delta":23599264},{"NoteNumber":60,"Velocity":29,"Duration":326157,"SoundDuration":326157,"Delta":23599264},{"NoteNumber":66,"Velocity":45,"Duration":326157,"SoundDuration":326157,"Delta":23925422},{"NoteNumber":57,"Velocity":32,"Duration":326157,"SoundDuration":326157,"Delta":23925422},{"NoteNumber":62,"Velocity":41,"Duration":350549,"SoundDuration":350549,"Delta":24251579},{"NoteNumber":60,"Velocity":29,"Duration":350549,"SoundDuration":350549,"Delta":24251579},{"NoteNumber":71,"Velocity":51,"Duration":1319459,"SoundDuration":1319459,"Delta":24602129},{"NoteNumber":55,"Velocity":39,"Duration":1319459,"SoundDuration":1319459,"Delta":24602129},{"NoteNumber":59,"Velocity":29,"Duration":326157,"SoundDuration":326157,"Delta":24928286},{"NoteNumber":62,"Velocity":32,"Duration":326157,"SoundDuration":326157,"Delta":25254444},{"NoteNumber":59,"Velocity":29,"Duration":340986,"SoundDuration":340986,"Delta":25580602},{"NoteNumber":67,"Velocity":45,"Duration":652315,"SoundDuration":652315,"Delta":25921588},{"NoteNumber":52,"Velocity":39,"Duration":1352285,"SoundDuration":1352285,"Delta":25921588},{"NoteNumber":55,"Velocity":29,"Duration":326157,"SoundDuration":326157,"Delta":26247746},{"NoteNumber":67,"Velocity":44,"Duration":73385,"SoundDuration":73385,"Delta":26573904},{"NoteNumber":59,"Velocity":32,"Duration":326157,"SoundDuration":326157,"Delta":26573904},{"NoteNumber":69,"Velocity":40,"Duration":70667,"SoundDuration":70667,"Delta":26647289},{"NoteNumber":67,"Velocity":44,"Duration":73385,"SoundDuration":73385,"Delta":26717957},{"NoteNumber":69,"Velocity":39,"Duration":73385,"SoundDuration":73385,"Delta":26788624},{"NoteNumber":67,"Velocity":45,"Duration":70667,"SoundDuration":70667,"Delta":26862010},{"NoteNumber":55,"Velocity":30,"Duration":373812,"SoundDuration":373812,"Delta":26900062},{"NoteNumber":69,"Velocity":41,"Duration":73385,"SoundDuration":73385,"Delta":26932677},{"NoteNumber":67,"Velocity":45,"Duration":74638,"SoundDuration":74638,"Delta":27006063},{"NoteNumber":66,"Velocity":48,"Duration":94830,"SoundDuration":94830,"Delta":27080702},{"NoteNumber":67,"Velocity":42,"Duration":101854,"SoundDuration":101854,"Delta":27172020},{"NoteNumber":71,"Velocity":45,"Duration":329019,"SoundDuration":329019,"Delta":27273874},{"NoteNumber":48,"Velocity":39,"Duration":1324972,"SoundDuration":1324972,"Delta":27273874},{"NoteNumber":69,"Velocity":45,"Duration":323535,"SoundDuration":323535,"Delta":27602893},{"NoteNumber":52,"Velocity":29,"Duration":329019,"SoundDuration":329019,"Delta":27602893},{"NoteNumber":69,"Velocity":45,"Duration":666933,"SoundDuration":666933,"Delta":27931913},{"NoteNumber":57,"Velocity":32,"Duration":329019,"SoundDuration":329019,"Delta":27931913},{"NoteNumber":52,"Velocity":29,"Duration":337914,"SoundDuration":337914,"Delta":28260932},{"NoteNumber":67,"Velocity":45,"Duration":326157,"SoundDuration":326157,"Delta":28598846},{"NoteNumber":50,"Velocity":39,"Duration":1369199,"SoundDuration":1369199,"Delta":28598846},{"NoteNumber":66,"Velocity":41,"Duration":315285,"SoundDuration":315285,"Delta":28925004},{"NoteNumber":60,"Velocity":30,"Duration":326157,"SoundDuration":326157,"Delta":28925004},{"NoteNumber":66,"Velocity":45,"Duration":326157,"SoundDuration":326157,"Delta":29251162},{"NoteNumber":57,"Velocity":32,"Duration":326157,"SoundDuration":326157,"Delta":29251162},{"NoteNumber":62,"Velocity":41,"Duration":390726,"SoundDuration":390726,"Delta":29577320},{"NoteNumber":60,"Velocity":29,"Duration":390726,"SoundDuration":390726,"Delta":29577320},{"NoteNumber":71,"Velocity":47,"Duration":506871,"SoundDuration":506871,"Delta":29968046},{"NoteNumber":55,"Velocity":39,"Duration":1317380,"SoundDuration":1317380,"Delta":29968046},{"NoteNumber":62,"Velocity":39,"Duration":2658295,"SoundDuration":2658295,"Delta":29968046},{"NoteNumber":74,"Velocity":42,"Duration":152470,"SoundDuration":152470,"Delta":30474917},{"NoteNumber":72,"Velocity":50,"Duration":493529,"SoundDuration":493529,"Delta":30627387},{"NoteNumber":71,"Velocity":47,"Duration":164509,"SoundDuration":164509,"Delta":31120917},{"NoteNumber":69,"Velocity":50,"Duration":658039,"SoundDuration":658039,"Delta":31285426},{"NoteNumber":54,"Velocity":32,"Duration":658039,"SoundDuration":658039,"Delta":31285426},{"NoteNumber":71,"Velocity":46,"Duration":682876,"SoundDuration":682876,"Delta":31943465},{"NoteNumber":55,"Velocity":32,"Duration":682876,"SoundDuration":682876,"Delta":31943465},{"NoteNumber":72,"Velocity":50,"Duration":658039,"SoundDuration":658039,"Delta":32626342},{"NoteNumber":62,"Velocity":38,"Duration":2675824,"SoundDuration":2675824,"Delta":32626342},{"NoteNumber":57,"Velocity":38,"Duration":658039,"SoundDuration":658039,"Delta":32626342},{"NoteNumber":74,"Velocity":46,"Duration":658038,"SoundDuration":658038,"Delta":33284381},{"NoteNumber":54,"Velocity":33,"Duration":658038,"SoundDuration":658038,"Delta":33284381},{"NoteNumber":72,"Velocity":47,"Duration":320581,"SoundDuration":320581,"Delta":33942420},{"NoteNumber":55,"Velocity":39,"Duration":1359746,"SoundDuration":1359746,"Delta":33942420},{"NoteNumber":71,"Velocity":49,"Duration":337913,"SoundDuration":337913,"Delta":34263001},{"NoteNumber":69,"Velocity":51,"Duration":326157,"SoundDuration":326157,"Delta":34600915},{"NoteNumber":67,"Velocity":53,"Duration":375093,"SoundDuration":375093,"Delta":34927073},{"NoteNumber":67,"Velocity":65,"Duration":353856,"SoundDuration":353856,"Delta":35302167},{"NoteNumber":72,"Velocity":65,"Duration":353856,"SoundDuration":353856,"Delta":35302167},{"NoteNumber":64,"Velocity":49,"Duration":353856,"SoundDuration":353856,"Delta":35302167},{"NoteNumber":52,"Velocity":49,"Duration":353856,"SoundDuration":353856,"Delta":35302167},{"NoteNumber":71,"Velocity":61,"Duration":353856,"SoundDuration":353856,"Delta":36009881},{"NoteNumber":67,"Velocity":61,"Duration":353856,"SoundDuration":353856,"Delta":36009881},{"NoteNumber":50,"Velocity":44,"Duration":353856,"SoundDuration":353856,"Delta":36009881},{"NoteNumber":62,"Velocity":44,"Duration":353856,"SoundDuration":353856,"Delta":36009881},{"NoteNumber":76,"Velocity":67,"Duration":353857,"SoundDuration":353857,"Delta":36717595},{"NoteNumber":67,"Velocity":67,"Duration":353857,"SoundDuration":353857,"Delta":36717595},{"NoteNumber":60,"Velocity":51,"Duration":353857,"SoundDuration":353857,"Delta":36717595},{"NoteNumber":48,"Velocity":51,"Duration":353857,"SoundDuration":353857,"Delta":36717595},{"NoteNumber":67,"Velocity":47,"Duration":326157,"SoundDuration":326157,"Delta":37779166},{"NoteNumber":74,"Velocity":47,"Duration":326157,"SoundDuration":326157,"Delta":37779166},{"NoteNumber":59,"Velocity":37,"Duration":326157,"SoundDuration":326157,"Delta":37779166},{"NoteNumber":72,"Velocity":50,"Duration":320581,"SoundDuration":320581,"Delta":38105323},{"NoteNumber":54,"Velocity":40,"Duration":658495,"SoundDuration":658495,"Delta":38105323},{"NoteNumber":69,"Velocity":42,"Duration":337913,"SoundDuration":337913,"Delta":38425905},{"NoteNumber":71,"Velocity":50,"Duration":326157,"SoundDuration":326157,"Delta":38763819},{"NoteNumber":55,"Velocity":35,"Duration":701251,"SoundDuration":701251,"Delta":38763819},{"NoteNumber":67,"Velocity":42,"Duration":375093,"SoundDuration":375093,"Delta":39089976},{"NoteNumber":71,"Velocity":50,"Duration":707714,"SoundDuration":707714,"Delta":39465070},{"NoteNumber":67,"Velocity":50,"Duration":707714,"SoundDuration":707714,"Delta":39465070},{"NoteNumber":50,"Velocity":39,"Duration":1415427,"SoundDuration":1415427,"Delta":39465070},{"NoteNumber":66,"Velocity":44,"Duration":707713,"SoundDuration":707713,"Delta":40172784},{"NoteNumber":69,"Velocity":44,"Duration":707713,"SoundDuration":707713,"Delta":40172784},{"NoteNumber":71,"Velocity":50,"Duration":497897,"SoundDuration":497897,"Delta":40880498},{"NoteNumber":62,"Velocity":39,"Duration":2636263,"SoundDuration":2636263,"Delta":40880498},{"NoteNumber":55,"Velocity":39,"Duration":1303933,"SoundDuration":1303933,"Delta":40880498},{"NoteNumber":74,"Velocity":42,"Duration":153719,"SoundDuration":153719,"Delta":41378396},{"NoteNumber":72,"Velocity":48,"Duration":489236,"SoundDuration":489236,"Delta":41532116},{"NoteNumber":71,"Velocity":47,"Duration":163078,"SoundDuration":163078,"Delta":42021352},{"NoteNumber":69,"Velocity":50,"Duration":652315,"SoundDuration":652315,"Delta":42184431},{"NoteNumber":54,"Velocity":32,"Duration":652315,"SoundDuration":652315,"Delta":42184431},{"NoteNumber":71,"Velocity":46,"Duration":680014,"SoundDuration":680014,"Delta":42836747},{"NoteNumber":55,"Velocity":32,"Duration":680014,"SoundDuration":680014,"Delta":42836747},{"NoteNumber":72,"Velocity":50,"Duration":658039,"SoundDuration":658039,"Delta":43516762},{"NoteNumber":57,"Velocity":38,"Duration":658039,"SoundDuration":658039,"Delta":43516762},{"NoteNumber":62,"Velocity":38,"Duration":2681450,"SoundDuration":2681450,"Delta":43516762},{"NoteNumber":76,"Velocity":46,"Duration":329019,"SoundDuration":329019,"Delta":44174801},{"NoteNumber":54,"Velocity":33,"Duration":658038,"SoundDuration":658038,"Delta":44174801},{"NoteNumber":74,"Velocity":49,"Duration":329019,"SoundDuration":329019,"Delta":44503820},{"NoteNumber":72,"Velocity":47,"Duration":323345,"SoundDuration":323345,"Delta":44832840},{"NoteNumber":55,"Velocity":39,"Duration":1365372,"SoundDuration":1365372,"Delta":44832840},{"NoteNumber":71,"Velocity":49,"Duration":337913,"SoundDuration":337913,"Delta":45156185},{"NoteNumber":69,"Velocity":51,"Duration":329019,"SoundDuration":329019,"Delta":45494099},{"NoteNumber":67,"Velocity":53,"Duration":375093,"SoundDuration":375093,"Delta":45823119},{"NoteNumber":67,"Velocity":65,"Duration":353856,"SoundDuration":353856,"Delta":46198212},{"NoteNumber":72,"Velocity":65,"Duration":353856,"SoundDuration":353856,"Delta":46198212},{"NoteNumber":64,"Velocity":49,"Duration":353856,"SoundDuration":353856,"Delta":46198212},{"NoteNumber":52,"Velocity":49,"Duration":353856,"SoundDuration":353856,"Delta":46198212},{"NoteNumber":67,"Velocity":61,"Duration":353856,"SoundDuration":353856,"Delta":46905926},{"NoteNumber":71,"Velocity":61,"Duration":353856,"SoundDuration":353856,"Delta":46905926},{"NoteNumber":62,"Velocity":44,"Duration":353856,"SoundDuration":353856,"Delta":46905926},{"NoteNumber":50,"Velocity":44,"Duration":353856,"SoundDuration":353856,"Delta":46905926},{"NoteNumber":76,"Velocity":67,"Duration":344115,"SoundDuration":344115,"Delta":47613640},{"NoteNumber":67,"Velocity":67,"Duration":1032346,"SoundDuration":1032346,"Delta":47613640},{"NoteNumber":48,"Velocity":51,"Duration":688231,"SoundDuration":688231,"Delta":47613640},{"NoteNumber":60,"Velocity":51,"Duration":688231,"SoundDuration":688231,"Delta":47613640},{"NoteNumber":78,"Velocity":62,"Duration":344115,"SoundDuration":344115,"Delta":47957756},{"NoteNumber":79,"Velocity":65,"Duration":344115,"SoundDuration":344115,"Delta":48301871},{"NoteNumber":72,"Velocity":47,"Duration":296130,"SoundDuration":296130,"Delta":48645987},{"NoteNumber":64,"Velocity":37,"Duration":296130,"SoundDuration":296130,"Delta":48645987},{"NoteNumber":60,"Velocity":37,"Duration":296130,"SoundDuration":296130,"Delta":48645987},{"NoteNumber":71,"Velocity":50,"Duration":714455,"SoundDuration":714455,"Delta":49040828},{"NoteNumber":62,"Velocity":40,"Duration":1512124,"SoundDuration":1512124,"Delta":49040828},{"NoteNumber":67,"Velocity":40,"Duration":714455,"SoundDuration":714455,"Delta":49040828},{"NoteNumber":69,"Velocity":47,"Duration":80376,"SoundDuration":80376,"Delta":49755284},{"NoteNumber":66,"Velocity":35,"Duration":797668,"SoundDuration":797668,"Delta":49755284},{"NoteNumber":71,"Velocity":47,"Duration":77399,"SoundDuration":77399,"Delta":49835660},{"NoteNumber":69,"Velocity":47,"Duration":80376,"SoundDuration":80376,"Delta":49913059},{"NoteNumber":71,"Velocity":47,"Duration":80376,"SoundDuration":80376,"Delta":49990459},{"NoteNumber":69,"Velocity":45,"Duration":80749,"SoundDuration":80749,"Delta":50070835},{"NoteNumber":71,"Velocity":45,"Duration":87913,"SoundDuration":87913,"Delta":50151584},{"NoteNumber":69,"Velocity":45,"Duration":87228,"SoundDuration":87228,"Delta":50239498},{"NoteNumber":67,"Velocity":45,"Duration":111056,"SoundDuration":111056,"Delta":50326727},{"NoteNumber":69,"Velocity":52,"Duration":119282,"SoundDuration":119282,"Delta":50433670},{"NoteNumber":67,"Velocity":45,"Duration":1364610,"SoundDuration":1364610,"Delta":50552952},{"NoteNumber":55,"Velocity":39,"Duration":1364610,"SoundDuration":1364610,"Delta":50552952},{"NoteNumber":59,"Velocity":28,"Duration":340986,"SoundDuration":340986,"Delta":50900255},{"NoteNumber":62,"Velocity":32,"Duration":329019,"SoundDuration":329019,"Delta":51241241},{"NoteNumber":59,"Velocity":27,"Duration":347302,"SoundDuration":347302,"Delta":51570261},{"NoteNumber":71,"Velocity":45,"Duration":662486,"SoundDuration":662486,"Delta":51917563},{"NoteNumber":48,"Velocity":39,"Duration":1329419,"SoundDuration":1329419,"Delta":51917563},{"NoteNumber":52,"Velocity":27,"Duration":329019,"SoundDuration":329019,"Delta":52251030},{"NoteNumber":69,"Velocity":45,"Duration":666933,"SoundDuration":666933,"Delta":52580050},{"NoteNumber":57,"Velocity":32,"Duration":329019,"SoundDuration":329019,"Delta":52580050},{"NoteNumber":52,"Velocity":28,"Duration":337913,"SoundDuration":337913,"Delta":52909069},{"NoteNumber":67,"Velocity":45,"Duration":326157,"SoundDuration":326157,"Delta":53246983},{"NoteNumber":50,"Velocity":39,"Duration":1329022,"SoundDuration":1329022,"Delta":53246983},{"NoteNumber":66,"Velocity":41,"Duration":315285,"SoundDuration":315285,"Delta":53573141},{"NoteNumber":60,"Velocity":29,"Duration":326157,"SoundDuration":326157,"Delta":53573141},{"NoteNumber":66,"Velocity":45,"Duration":326157,"SoundDuration":326157,"Delta":53899299},{"NoteNumber":57,"Velocity":32,"Duration":326157,"SoundDuration":326157,"Delta":53899299},{"NoteNumber":62,"Velocity":41,"Duration":350549,"SoundDuration":350549,"Delta":54225456},{"NoteNumber":60,"Velocity":29,"Duration":350549,"SoundDuration":350549,"Delta":54225456},{"NoteNumber":71,"Velocity":51,"Duration":1319459,"SoundDuration":1319459,"Delta":54576006},{"NoteNumber":55,"Velocity":39,"Duration":1319459,"SoundDuration":1319459,"Delta":54576006},{"NoteNumber":59,"Velocity":29,"Duration":326157,"SoundDuration":326157,"Delta":54902163},{"NoteNumber":62,"Velocity":32,"Duration":326157,"SoundDuration":326157,"Delta":55228321},{"NoteNumber":59,"Velocity":29,"Duration":340986,"SoundDuration":340986,"Delta":55554479},{"NoteNumber":67,"Velocity":45,"Duration":652315,"SoundDuration":652315,"Delta":55895465},{"NoteNumber":52,"Velocity":39,"Duration":1352285,"SoundDuration":1352285,"Delta":55895465},{"NoteNumber":55,"Velocity":29,"Duration":326157,"SoundDuration":326157,"Delta":56221623},{"NoteNumber":67,"Velocity":44,"Duration":73385,"SoundDuration":73385,"Delta":56547781},{"NoteNumber":59,"Velocity":32,"Duration":326157,"SoundDuration":326157,"Delta":56547781},{"NoteNumber":69,"Velocity":40,"Duration":70667,"SoundDuration":70667,"Delta":56621166},{"NoteNumber":67,"Velocity":44,"Duration":73385,"SoundDuration":73385,"Delta":56691834},{"NoteNumber":69,"Velocity":39,"Duration":73385,"SoundDuration":73385,"Delta":56762501},{"NoteNumber":67,"Velocity":45,"Duration":70667,"SoundDuration":70667,"Delta":56835887},{"NoteNumber":55,"Velocity":30,"Duration":373812,"SoundDuration":373812,"Delta":56873939},{"NoteNumber":69,"Velocity":41,"Duration":73385,"SoundDuration":73385,"Delta":56906554},{"NoteNumber":67,"Velocity":45,"Duration":74638,"SoundDuration":74638,"Delta":56979940},{"NoteNumber":66,"Velocity":49,"Duration":94830,"SoundDuration":94830,"Delta":57054579},{"NoteNumber":67,"Velocity":44,"Duration":101854,"SoundDuration":101854,"Delta":57145896},{"NoteNumber":71,"Velocity":49,"Duration":329019,"SoundDuration":329019,"Delta":57247751},{"NoteNumber":48,"Velocity":39,"Duration":1324972,"SoundDuration":1324972,"Delta":57247751},{"NoteNumber":69,"Velocity":45,"Duration":318052,"SoundDuration":318052,"Delta":57576770},{"NoteNumber":52,"Velocity":29,"Duration":329019,"SoundDuration":329019,"Delta":57576770},{"NoteNumber":69,"Velocity":45,"Duration":666933,"SoundDuration":666933,"Delta":57905790},{"NoteNumber":57,"Velocity":32,"Duration":329019,"SoundDuration":329019,"Delta":57905790},{"NoteNumber":52,"Velocity":29,"Duration":337913,"SoundDuration":337913,"Delta":58234809},{"NoteNumber":67,"Velocity":45,"Duration":326157,"SoundDuration":326157,"Delta":58572723},{"NoteNumber":50,"Velocity":39,"Duration":1329022,"SoundDuration":1329022,"Delta":58572723},{"NoteNumber":66,"Velocity":41,"Duration":318003,"SoundDuration":318003,"Delta":58898881},{"NoteNumber":60,"Velocity":30,"Duration":326157,"SoundDuration":326157,"Delta":58898881},{"NoteNumber":66,"Velocity":45,"Duration":326157,"SoundDuration":326157,"Delta":59225039},{"NoteNumber":57,"Velocity":32,"Duration":326157,"SoundDuration":326157,"Delta":59225039},{"NoteNumber":62,"Velocity":41,"Duration":350549,"SoundDuration":350549,"Delta":59551197},{"NoteNumber":60,"Velocity":29,"Duration":350549,"SoundDuration":350549,"Delta":59551197},{"NoteNumber":67,"Velocity":45,"Duration":1316077,"SoundDuration":1316077,"Delta":59901746},{"NoteNumber":59,"Velocity":39,"Duration":1316077,"SoundDuration":1316077,"Delta":59901746},{"NoteNumber":55,"Velocity":33,"Duration":1316077,"SoundDuration":1316077,"Delta":59901746},{"NoteNumber":63,"Velocity":47,"Duration":625137,"SoundDuration":625137,"Delta":61217824},{"NoteNumber":57,"Velocity":38,"Duration":625137,"SoundDuration":625137,"Delta":61217824},{"NoteNumber":54,"Velocity":32,"Duration":625137,"SoundDuration":625137,"Delta":61217824},{"NoteNumber":47,"Velocity":32,"Duration":625137,"SoundDuration":625137,"Delta":61217824},{"NoteNumber":63,"Velocity":47,"Duration":637589,"SoundDuration":637589,"Delta":61875863},{"NoteNumber":47,"Velocity":32,"Duration":637589,"SoundDuration":637589,"Delta":61875863},{"NoteNumber":57,"Velocity":38,"Duration":637589,"SoundDuration":637589,"Delta":61875863},{"NoteNumber":54,"Velocity":32,"Duration":637589,"SoundDuration":637589,"Delta":61875863},{"NoteNumber":64,"Velocity":49,"Duration":329019,"SoundDuration":329019,"Delta":62547244},{"NoteNumber":55,"Velocity":41,"Duration":1318114,"SoundDuration":1318114,"Delta":62547244},{"NoteNumber":52,"Velocity":34,"Duration":1318114,"SoundDuration":1318114,"Delta":62547244},{"NoteNumber":66,"Velocity":44,"Duration":329019,"SoundDuration":329019,"Delta":62876263},{"NoteNumber":67,"Velocity":49,"Duration":323345,"SoundDuration":323345,"Delta":63205283},{"NoteNumber":64,"Velocity":43,"Duration":336730,"SoundDuration":336730,"Delta":63528628},{"NoteNumber":62,"Velocity":49,"Duration":326157,"SoundDuration":326157,"Delta":63865358},{"NoteNumber":55,"Velocity":37,"Duration":652315,"SoundDuration":652315,"Delta":63865358},{"NoteNumber":45,"Velocity":31,"Duration":652315,"SoundDuration":652315,"Delta":63865358},{"NoteNumber":52,"Velocity":31,"Duration":652315,"SoundDuration":652315,"Delta":63865358},{"NoteNumber":61,"Velocity":45,"Duration":318003,"SoundDuration":318003,"Delta":64191516},{"NoteNumber":61,"Velocity":50,"Duration":326157,"SoundDuration":326157,"Delta":64517674},{"NoteNumber":55,"Velocity":42,"Duration":667144,"SoundDuration":667144,"Delta":64517674},{"NoteNumber":52,"Velocity":35,"Duration":667144,"SoundDuration":667144,"Delta":64517674},{"NoteNumber":45,"Velocity":35,"Duration":667144,"SoundDuration":667144,"Delta":64517674},{"NoteNumber":57,"Velocity":46,"Duration":340986,"SoundDuration":340986,"Delta":64843832},{"NoteNumber":69,"Velocity":61,"Duration":1304631,"SoundDuration":1304631,"Delta":65184818},{"NoteNumber":50,"Velocity":37,"Duration":1304631,"SoundDuration":1304631,"Delta":65184818},{"NoteNumber":54,"Velocity":44,"Duration":1304631,"SoundDuration":1304631,"Delta":65184818},{"NoteNumber":74,"Velocity":69,"Duration":619699,"SoundDuration":619699,"Delta":66489449},{"NoteNumber":68,"Velocity":58,"Duration":619699,"SoundDuration":619699,"Delta":66489449},{"NoteNumber":62,"Velocity":58,"Duration":619699,"SoundDuration":619699,"Delta":66489449},{"NoteNumber":47,"Velocity":51,"Duration":619699,"SoundDuration":619699,"Delta":66489449},{"NoteNumber":59,"Velocity":61,"Duration":619699,"SoundDuration":619699,"Delta":66489449},{"NoteNumber":68,"Velocity":56,"Duration":619699,"SoundDuration":619699,"Delta":67141765},{"NoteNumber":74,"Velocity":66,"Duration":619699,"SoundDuration":619699,"Delta":67141765},{"NoteNumber":62,"Velocity":56,"Duration":619699,"SoundDuration":619699,"Delta":67141765},{"NoteNumber":47,"Velocity":48,"Duration":619699,"SoundDuration":619699,"Delta":67141765},{"NoteNumber":59,"Velocity":57,"Duration":619699,"SoundDuration":619699,"Delta":67141765},{"NoteNumber":68,"Velocity":59,"Duration":1216490,"SoundDuration":1216490,"Delta":67794080},{"NoteNumber":74,"Velocity":70,"Duration":1216490,"SoundDuration":1216490,"Delta":67794080},{"NoteNumber":62,"Velocity":59,"Duration":1216490,"SoundDuration":1216490,"Delta":67794080},{"NoteNumber":47,"Velocity":51,"Duration":1216490,"SoundDuration":1216490,"Delta":67794080},{"NoteNumber":59,"Velocity":61,"Duration":1216490,"SoundDuration":1216490,"Delta":67794080},{"NoteNumber":73,"Velocity":40,"Duration":521852,"SoundDuration":521852,"Delta":69145736},{"NoteNumber":81,"Velocity":48,"Duration":521852,"SoundDuration":521852,"Delta":69145736},{"NoteNumber":64,"Velocity":37,"Duration":521852,"SoundDuration":521852,"Delta":69145736},{"NoteNumber":57,"Velocity":31,"Duration":521852,"SoundDuration":521852,"Delta":69145736},{"NoteNumber":81,"Velocity":45,"Duration":521852,"SoundDuration":521852,"Delta":69798052},{"NoteNumber":73,"Velocity":38,"Duration":521852,"SoundDuration":521852,"Delta":69798052},{"NoteNumber":64,"Velocity":35,"Duration":521852,"SoundDuration":521852,"Delta":69798052},{"NoteNumber":57,"Velocity":29,"Duration":521852,"SoundDuration":521852,"Delta":69798052},{"NoteNumber":81,"Velocity":48,"Duration":1304631,"SoundDuration":1304631,"Delta":70450367},{"NoteNumber":73,"Velocity":40,"Duration":1304631,"SoundDuration":1304631,"Delta":70450367},{"NoteNumber":57,"Velocity":31,"Duration":1304631,"SoundDuration":1304631,"Delta":70450367},{"NoteNumber":64,"Velocity":37,"Duration":1304631,"SoundDuration":1304631,"Delta":70450367},{"NoteNumber":78,"Velocity":48,"Duration":77495,"SoundDuration":77495,"Delta":72407314},{"NoteNumber":79,"Velocity":44,"Duration":77495,"SoundDuration":77495,"Delta":72484809},{"NoteNumber":78,"Velocity":48,"Duration":77495,"SoundDuration":77495,"Delta":72562304},{"NoteNumber":76,"Velocity":44,"Duration":77495,"SoundDuration":77495,"Delta":72639800},{"NoteNumber":78,"Velocity":50,"Duration":154990,"SoundDuration":154990,"Delta":72717295},{"NoteNumber":79,"Velocity":45,"Duration":167448,"SoundDuration":167448,"Delta":72872286},{"NoteNumber":81,"Velocity":54,"Duration":652315,"SoundDuration":652315,"Delta":73039734},{"NoteNumber":62,"Velocity":34,"Duration":326157,"SoundDuration":326157,"Delta":73039734},{"NoteNumber":66,"Velocity":29,"Duration":326157,"SoundDuration":326157,"Delta":73365892},{"NoteNumber":81,"Velocity":48,"Duration":978473,"SoundDuration":978473,"Delta":73692049},{"NoteNumber":69,"Velocity":29,"Duration":326157,"SoundDuration":326157,"Delta":73692049},{"NoteNumber":66,"Velocity":29,"Duration":326157,"SoundDuration":326157,"Delta":74018207},{"NoteNumber":62,"Velocity":34,"Duration":326157,"SoundDuration":326157,"Delta":74344365},{"NoteNumber":81,"Velocity":48,"Duration":320675,"SoundDuration":320675,"Delta":74670523},{"NoteNumber":66,"Velocity":30,"Duration":320675,"SoundDuration":320675,"Delta":74670523},{"NoteNumber":81,"Velocity":50,"Duration":78798,"SoundDuration":78798,"Delta":74991198},{"NoteNumber":69,"Velocity":30,"Duration":315192,"SoundDuration":315192,"Delta":74991198},{"NoteNumber":83,"Velocity":44,"Duration":78798,"SoundDuration":78798,"Delta":75069996},{"NoteNumber":81,"Velocity":46,"Duration":78798,"SoundDuration":78798,"Delta":75148794},{"NoteNumber":80,"Velocity":46,"Duration":78798,"SoundDuration":78798,"Delta":75227592},{"NoteNumber":81,"Velocity":53,"Duration":170493,"SoundDuration":170493,"Delta":75306390},{"NoteNumber":66,"Velocity":30,"Duration":340986,"SoundDuration":340986,"Delta":75306390},{"NoteNumber":83,"Velocity":43,"Duration":170493,"SoundDuration":170493,"Delta":75476883},{"NoteNumber":81,"Velocity":53,"Duration":326157,"SoundDuration":326157,"Delta":75647376},{"NoteNumber":62,"Velocity":34,"Duration":326157,"SoundDuration":326157,"Delta":75647376},{"NoteNumber":79,"Velocity":48,"Duration":326157,"SoundDuration":326157,"Delta":75973534},{"NoteNumber":64,"Velocity":31,"Duration":326157,"SoundDuration":326157,"Delta":75973534},{"NoteNumber":79,"Velocity":48,"Duration":978473,"SoundDuration":978473,"Delta":76299692},{"NoteNumber":71,"Velocity":31,"Duration":326157,"SoundDuration":326157,"Delta":76299692},{"NoteNumber":64,"Velocity":31,"Duration":326157,"SoundDuration":326157,"Delta":76625850},{"NoteNumber":62,"Velocity":34,"Duration":326157,"SoundDuration":326157,"Delta":76952007},{"NoteNumber":79,"Velocity":45,"Duration":163078,"SoundDuration":163078,"Delta":77278165},{"NoteNumber":64,"Velocity":30,"Duration":326157,"SoundDuration":326157,"Delta":77278165},{"NoteNumber":78,"Velocity":49,"Duration":163078,"SoundDuration":163078,"Delta":77604323},{"NoteNumber":71,"Velocity":30,"Duration":326157,"SoundDuration":326157,"Delta":77604323},{"NoteNumber":76,"Velocity":45,"Duration":175274,"SoundDuration":175274,"Delta":77930481},{"NoteNumber":64,"Velocity":30,"Duration":350549,"SoundDuration":350549,"Delta":77930481},{"NoteNumber":76,"Velocity":51,"Duration":326157,"SoundDuration":326157,"Delta":78281030},{"NoteNumber":61,"Velocity":34,"Duration":326157,"SoundDuration":326157,"Delta":78281030},{"NoteNumber":81,"Velocity":46,"Duration":326157,"SoundDuration":326157,"Delta":78607188},{"NoteNumber":64,"Velocity":31,"Duration":326157,"SoundDuration":326157,"Delta":78607188},{"NoteNumber":81,"Velocity":46,"Duration":996431,"SoundDuration":996431,"Delta":78933345},{"NoteNumber":69,"Velocity":31,"Duration":326157,"SoundDuration":326157,"Delta":78933345},{"NoteNumber":64,"Velocity":31,"Duration":326157,"SoundDuration":326157,"Delta":79259503},{"NoteNumber":59,"Velocity":34,"Duration":344115,"SoundDuration":344115,"Delta":79585661},{"NoteNumber":83,"Velocity":48,"Duration":161672,"SoundDuration":161672,"Delta":79929776},{"NoteNumber":62,"Velocity":31,"Duration":323345,"SoundDuration":323345,"Delta":79929776},{"NoteNumber":81,"Velocity":44,"Duration":161672,"SoundDuration":161672,"Delta":80091449},{"NoteNumber":81,"Velocity":48,"Duration":161672,"SoundDuration":161672,"Delta":80253122},{"NoteNumber":67,"Velocity":31,"Duration":323345,"SoundDuration":323345,"Delta":80253122},{"NoteNumber":79,"Velocity":44,"Duration":161672,"SoundDuration":161672,"Delta":80414795},{"NoteNumber":78,"Velocity":44,"Duration":161672,"SoundDuration":161672,"Delta":80576467},{"NoteNumber":62,"Velocity":28,"Duration":357036,"SoundDuration":357036,"Delta":80576467},{"NoteNumber":79,"Velocity":44,"Duration":195363,"SoundDuration":195363,"Delta":80738140},{"NoteNumber":79,"Velocity":49,"Duration":334896,"SoundDuration":334896,"Delta":80933504},{"NoteNumber":58,"Velocity":31,"Duration":334896,"SoundDuration":334896,"Delta":80933504},{"NoteNumber":78,"Velocity":45,"Duration":323345,"SoundDuration":323345,"Delta":81268400},{"NoteNumber":61,"Velocity":32,"Duration":323345,"SoundDuration":323345,"Delta":81268400},{"NoteNumber":78,"Velocity":48,"Duration":838066,"SoundDuration":838066,"Delta":81591745},{"NoteNumber":64,"Velocity":32,"Duration":323345,"SoundDuration":323345,"Delta":81591745},{"NoteNumber":58,"Velocity":32,"Duration":323345,"SoundDuration":323345,"Delta":81915091},{"NoteNumber":59,"Velocity":34,"Duration":346366,"SoundDuration":346366,"Delta":82238436},{"NoteNumber":78,"Velocity":44,"Duration":77495,"SoundDuration":77495,"Delta":82429812},{"NoteNumber":79,"Velocity":44,"Duration":77495,"SoundDuration":77495,"Delta":82507307},{"NoteNumber":81,"Velocity":48,"Duration":163078,"SoundDuration":163078,"Delta":82584802},{"NoteNumber":66,"Velocity":32,"Duration":326157,"SoundDuration":326157,"Delta":82584802},{"NoteNumber":79,"Velocity":46,"Duration":163078,"SoundDuration":163078,"Delta":82910960},{"NoteNumber":57,"Velocity":32,"Duration":326157,"SoundDuration":326157,"Delta":82910960},{"NoteNumber":78,"Velocity":46,"Duration":175274,"SoundDuration":175274,"Delta":83237118},{"NoteNumber":62,"Velocity":32,"Duration":350549,"SoundDuration":350549,"Delta":83237118},{"NoteNumber":78,"Velocity":51,"Duration":326157,"SoundDuration":326157,"Delta":83587667},{"NoteNumber":56,"Velocity":34,"Duration":326157,"SoundDuration":326157,"Delta":83587667},{"NoteNumber":76,"Velocity":46,"Duration":326157,"SoundDuration":326157,"Delta":83913825},{"NoteNumber":59,"Velocity":27,"Duration":326157,"SoundDuration":326157,"Delta":83913825},{"NoteNumber":76,"Velocity":46,"Duration":163078,"SoundDuration":163078,"Delta":84239983},{"NoteNumber":62,"Velocity":31,"Duration":326157,"SoundDuration":326157,"Delta":84239983},{"NoteNumber":76,"Velocity":48,"Duration":163078,"SoundDuration":163078,"Delta":84566140},{"NoteNumber":59,"Velocity":28,"Duration":326157,"SoundDuration":326157,"Delta":84566140},{"NoteNumber":76,"Velocity":48,"Duration":652315,"SoundDuration":652315,"Delta":84892298},{"NoteNumber":56,"Velocity":34,"Duration":326157,"SoundDuration":326157,"Delta":84892298},{"NoteNumber":59,"Velocity":29,"Duration":326157,"SoundDuration":326157,"Delta":85218456},{"NoteNumber":76,"Velocity":48,"Duration":496650,"SoundDuration":496650,"Delta":85544614},{"NoteNumber":62,"Velocity":32,"Duration":326157,"SoundDuration":326157,"Delta":85544614},{"NoteNumber":80,"Velocity":48,"Duration":113662,"SoundDuration":113662,"Delta":85870771},{"NoteNumber":59,"Velocity":29,"Duration":361868,"SoundDuration":361868,"Delta":85870771},{"NoteNumber":81,"Velocity":48,"Duration":120622,"SoundDuration":120622,"Delta":85984434},{"NoteNumber":83,"Velocity":48,"Duration":127583,"SoundDuration":127583,"Delta":86105056},{"NoteNumber":81,"Velocity":53,"Duration":1645617,"SoundDuration":1645617,"Delta":86232640},{"NoteNumber":55,"Velocity":34,"Duration":326157,"SoundDuration":326157,"Delta":86232640},{"NoteNumber":61,"Velocity":26,"Duration":326157,"SoundDuration":326157,"Delta":86558798},{"NoteNumber":64,"Velocity":29,"Duration":326157,"SoundDuration":326157,"Delta":86884956},{"NoteNumber":55,"Velocity":25,"Duration":340986,"SoundDuration":340986,"Delta":87211113},{"NoteNumber":54,"Velocity":34,"Duration":326157,"SoundDuration":326157,"Delta":87552100},{"NoteNumber":83,"Velocity":52,"Duration":163078,"SoundDuration":163078,"Delta":87878258},{"NoteNumber":62,"Velocity":26,"Duration":326157,"SoundDuration":326157,"Delta":87878258},{"NoteNumber":81,"Velocity":48,"Duration":163078,"SoundDuration":163078,"Delta":88041336},{"NoteNumber":79,"Velocity":51,"Duration":326157,"SoundDuration":326157,"Delta":88204415},{"NoteNumber":59,"Velocity":29,"Duration":326157,"SoundDuration":326157,"Delta":88204415},{"NoteNumber":78,"Velocity":48,"Duration":329466,"SoundDuration":329466,"Delta":88530573},{"NoteNumber":57,"Velocity":26,"Duration":337913,"SoundDuration":337913,"Delta":88530573},{"NoteNumber":78,"Velocity":53,"Duration":326157,"SoundDuration":326157,"Delta":88868487},{"NoteNumber":59,"Velocity":33,"Duration":1956946,"SoundDuration":1956946,"Delta":88868487},{"NoteNumber":55,"Velocity":33,"Duration":1956946,"SoundDuration":1956946,"Delta":88868487},{"NoteNumber":76,"Velocity":45,"Duration":326157,"SoundDuration":326157,"Delta":89194645},{"NoteNumber":75,"Velocity":50,"Duration":326157,"SoundDuration":326157,"Delta":89520803},{"NoteNumber":76,"Velocity":45,"Duration":326157,"SoundDuration":326157,"Delta":89846960},{"NoteNumber":78,"Velocity":48,"Duration":326157,"SoundDuration":326157,"Delta":90173118},{"NoteNumber":79,"Velocity":44,"Duration":326157,"SoundDuration":326157,"Delta":90499276},{"NoteNumber":71,"Velocity":42,"Duration":326157,"SoundDuration":326157,"Delta":90825434},{"NoteNumber":64,"Velocity":32,"Duration":652315,"SoundDuration":652315,"Delta":90825434},{"NoteNumber":56,"Velocity":32,"Duration":652315,"SoundDuration":652315,"Delta":90825434},{"NoteNumber":76,"Velocity":42,"Duration":326157,"SoundDuration":326157,"Delta":91151591},{"NoteNumber":74,"Velocity":48,"Duration":326157,"SoundDuration":326157,"Delta":91477749},{"NoteNumber":64,"Velocity":35,"Duration":1304631,"SoundDuration":1304631,"Delta":91477749},{"NoteNumber":57,"Velocity":35,"Duration":1304631,"SoundDuration":1304631,"Delta":91477749},{"NoteNumber":73,"Velocity":45,"Duration":326157,"SoundDuration":326157,"Delta":91803907},{"NoteNumber":71,"Velocity":41,"Duration":326157,"SoundDuration":326157,"Delta":92130065},{"NoteNumber":69,"Velocity":41,"Duration":326157,"SoundDuration":326157,"Delta":92456222},{"NoteNumber":71,"Velocity":42,"Duration":326157,"SoundDuration":326157,"Delta":92782380},{"NoteNumber":73,"Velocity":44,"Duration":326157,"SoundDuration":326157,"Delta":93108538},{"NoteNumber":74,"Velocity":47,"Duration":326157,"SoundDuration":326157,"Delta":93434696},{"NoteNumber":76,"Velocity":49,"Duration":326157,"SoundDuration":326157,"Delta":93760853},{"NoteNumber":78,"Velocity":50,"Duration":506871,"SoundDuration":506871,"Delta":94087011},{"NoteNumber":74,"Velocity":36,"Duration":337913,"SoundDuration":337913,"Delta":94087011},{"NoteNumber":69,"Velocity":29,"Duration":321426,"SoundDuration":321426,"Delta":94424925},{"NoteNumber":81,"Velocity":42,"Duration":152469,"SoundDuration":152469,"Delta":94593882},{"NoteNumber":79,"Velocity":50,"Duration":493529,"SoundDuration":493529,"Delta":94746352},{"NoteNumber":74,"Velocity":33,"Duration":329019,"SoundDuration":329019,"Delta":94746352},{"NoteNumber":69,"Velocity":29,"Duration":329019,"SoundDuration":329019,"Delta":95075372},{"NoteNumber":78,"Velocity":47,"Duration":164509,"SoundDuration":164509,"Delta":95239881},{"NoteNumber":76,"Velocity":50,"Duration":658039,"SoundDuration":658039,"Delta":95404391},{"NoteNumber":73,"Velocity":36,"Duration":329019,"SoundDuration":329019,"Delta":95404391},{"NoteNumber":69,"Velocity":28,"Duration":329019,"SoundDuration":329019,"Delta":95733411},{"NoteNumber":78,"Velocity":46,"Duration":682876,"SoundDuration":682876,"Delta":96062430},{"NoteNumber":74,"Velocity":32,"Duration":329019,"SoundDuration":329019,"Delta":96062430},{"NoteNumber":69,"Velocity":28,"Duration":353857,"SoundDuration":353857,"Delta":96391450},{"NoteNumber":79,"Velocity":50,"Duration":658039,"SoundDuration":658039,"Delta":96745307},{"NoteNumber":76,"Velocity":36,"Duration":329019,"SoundDuration":329019,"Delta":96745307},{"NoteNumber":69,"Velocity":28,"Duration":329019,"SoundDuration":329019,"Delta":97074326},{"NoteNumber":81,"Velocity":46,"Duration":658039,"SoundDuration":658039,"Delta":97403346},{"NoteNumber":73,"Velocity":31,"Duration":329019,"SoundDuration":329019,"Delta":97403346},{"NoteNumber":69,"Velocity":28,"Duration":329019,"SoundDuration":329019,"Delta":97732365},{"NoteNumber":79,"Velocity":47,"Duration":657140,"SoundDuration":657140,"Delta":98061385},{"NoteNumber":74,"Velocity":36,"Duration":328121,"SoundDuration":328121,"Delta":98061385},{"NoteNumber":69,"Velocity":29,"Duration":329019,"SoundDuration":329019,"Delta":98389506},{"NoteNumber":78,"Velocity":51,"Duration":704113,"SoundDuration":704113,"Delta":98718525},{"NoteNumber":74,"Velocity":33,"Duration":329019,"SoundDuration":329019,"Delta":98718525},{"NoteNumber":69,"Velocity":29,"Duration":375093,"SoundDuration":375093,"Delta":99047545},{"NoteNumber":81,"Velocity":45,"Duration":84478,"SoundDuration":84478,"Delta":99422638},{"NoteNumber":62,"Velocity":38,"Duration":659340,"SoundDuration":659340,"Delta":99422638},{"NoteNumber":66,"Velocity":45,"Duration":659340,"SoundDuration":659340,"Delta":99422638},{"NoteNumber":83,"Velocity":40,"Duration":84478,"SoundDuration":84478,"Delta":99507117},{"NoteNumber":81,"Velocity":45,"Duration":84478,"SoundDuration":84478,"Delta":99591595},{"NoteNumber":83,"Velocity":41,"Duration":84478,"SoundDuration":84478,"Delta":99676074},{"NoteNumber":81,"Velocity":45,"Duration":84478,"SoundDuration":84478,"Delta":99760552},{"NoteNumber":83,"Velocity":40,"Duration":84478,"SoundDuration":84478,"Delta":99845031},{"NoteNumber":81,"Velocity":45,"Duration":76234,"SoundDuration":76234,"Delta":99929509},{"NoteNumber":83,"Velocity":39,"Duration":76234,"SoundDuration":76234,"Delta":100005744},{"NoteNumber":81,"Velocity":45,"Duration":81351,"SoundDuration":81351,"Delta":100081979},{"NoteNumber":64,"Velocity":38,"Duration":486718,"SoundDuration":486718,"Delta":100081979},{"NoteNumber":67,"Velocity":45,"Duration":486718,"SoundDuration":486718,"Delta":100081979},{"NoteNumber":83,"Velocity":40,"Duration":80490,"SoundDuration":80490,"Delta":100163331},{"NoteNumber":81,"Velocity":45,"Duration":80467,"SoundDuration":80467,"Delta":100243822},{"NoteNumber":83,"Velocity":40,"Duration":81328,"SoundDuration":81328,"Delta":100324290},{"NoteNumber":81,"Velocity":45,"Duration":81539,"SoundDuration":81539,"Delta":100405619},{"NoteNumber":83,"Velocity":40,"Duration":81539,"SoundDuration":81539,"Delta":100487158},{"NoteNumber":81,"Velocity":45,"Duration":80883,"SoundDuration":80883,"Delta":100568697},{"NoteNumber":62,"Velocity":35,"Duration":161467,"SoundDuration":161467,"Delta":100568697},{"NoteNumber":66,"Velocity":42,"Duration":161467,"SoundDuration":161467,"Delta":100568697},{"NoteNumber":83,"Velocity":41,"Duration":80584,"SoundDuration":80584,"Delta":100649581},{"NoteNumber":81,"Velocity":45,"Duration":82183,"SoundDuration":82183,"Delta":100730165},{"NoteNumber":61,"Velocity":38,"Duration":647447,"SoundDuration":647447,"Delta":100730165},{"NoteNumber":64,"Velocity":45,"Duration":647447,"SoundDuration":647447,"Delta":100730165},{"NoteNumber":83,"Velocity":40,"Duration":82254,"SoundDuration":82254,"Delta":100812349},{"NoteNumber":81,"Velocity":45,"Duration":82140,"SoundDuration":82140,"Delta":100894603},{"NoteNumber":83,"Velocity":40,"Duration":79852,"SoundDuration":79852,"Delta":100976744},{"NoteNumber":81,"Velocity":45,"Duration":79466,"SoundDuration":79466,"Delta":101056597},{"NoteNumber":83,"Velocity":41,"Duration":79877,"SoundDuration":79877,"Delta":101136063},{"NoteNumber":81,"Velocity":45,"Duration":80836,"SoundDuration":80836,"Delta":101215940},{"NoteNumber":83,"Velocity":40,"Duration":80836,"SoundDuration":80836,"Delta":101296776},{"NoteNumber":81,"Velocity":45,"Duration":80836,"SoundDuration":80836,"Delta":101377612},{"NoteNumber":62,"Velocity":34,"Duration":654936,"SoundDuration":654936,"Delta":101377612},{"NoteNumber":66,"Velocity":41,"Duration":654936,"SoundDuration":654936,"Delta":101377612},{"NoteNumber":83,"Velocity":40,"Duration":80836,"SoundDuration":80836,"Delta":101458449},{"NoteNumber":81,"Velocity":45,"Duration":80836,"SoundDuration":80836,"Delta":101539285},{"NoteNumber":83,"Velocity":41,"Duration":80836,"SoundDuration":80836,"Delta":101620122},{"NoteNumber":81,"Velocity":45,"Duration":81913,"SoundDuration":81913,"Delta":101700958},{"NoteNumber":83,"Velocity":40,"Duration":82570,"SoundDuration":82570,"Delta":101782871},{"NoteNumber":81,"Velocity":45,"Duration":83674,"SoundDuration":83674,"Delta":101865442},{"NoteNumber":83,"Velocity":41,"Duration":83432,"SoundDuration":83432,"Delta":101949116},{"NoteNumber":81,"Velocity":45,"Duration":82254,"SoundDuration":82254,"Delta":102032549},{"NoteNumber":64,"Velocity":38,"Duration":654175,"SoundDuration":654175,"Delta":102032549},{"NoteNumber":67,"Velocity":45,"Duration":654175,"SoundDuration":654175,"Delta":102032549},{"NoteNumber":83,"Velocity":42,"Duration":82043,"SoundDuration":82043,"Delta":102114804},{"NoteNumber":81,"Velocity":45,"Duration":80145,"SoundDuration":80145,"Delta":102196848},{"NoteNumber":83,"Velocity":41,"Duration":81091,"SoundDuration":81091,"Delta":102276993},{"NoteNumber":81,"Velocity":44,"Duration":82982,"SoundDuration":82982,"Delta":102358084},{"NoteNumber":83,"Velocity":38,"Duration":82982,"SoundDuration":82982,"Delta":102441067},{"NoteNumber":81,"Velocity":44,"Duration":81838,"SoundDuration":81838,"Delta":102524050},{"NoteNumber":83,"Velocity":39,"Duration":80836,"SoundDuration":80836,"Delta":102605888},{"NoteNumber":81,"Velocity":43,"Duration":81909,"SoundDuration":81909,"Delta":102686725},{"NoteNumber":66,"Velocity":34,"Duration":652376,"SoundDuration":652376,"Delta":102686725},{"NoteNumber":69,"Velocity":41,"Duration":652376,"SoundDuration":652376,"Delta":102686725},{"NoteNumber":83,"Velocity":38,"Duration":82982,"SoundDuration":82982,"Delta":102768634},{"NoteNumber":81,"Velocity":42,"Duration":82482,"SoundDuration":82482,"Delta":102851617},{"NoteNumber":83,"Velocity":38,"Duration":80836,"SoundDuration":80836,"Delta":102934099},{"NoteNumber":81,"Velocity":42,"Duration":80836,"SoundDuration":80836,"Delta":103014936},{"NoteNumber":83,"Velocity":39,"Duration":80836,"SoundDuration":80836,"Delta":103095772},{"NoteNumber":81,"Velocity":43,"Duration":80953,"SoundDuration":80953,"Delta":103176609},{"NoteNumber":83,"Velocity":39,"Duration":81539,"SoundDuration":81539,"Delta":103257562},{"NoteNumber":81,"Velocity":43,"Duration":80991,"SoundDuration":80991,"Delta":103339102},{"NoteNumber":64,"Velocity":35,"Duration":655851,"SoundDuration":655851,"Delta":103339102},{"NoteNumber":67,"Velocity":42,"Duration":655851,"SoundDuration":655851,"Delta":103339102},{"NoteNumber":83,"Velocity":38,"Duration":82254,"SoundDuration":82254,"Delta":103420093},{"NoteNumber":81,"Velocity":43,"Duration":83528,"SoundDuration":83528,"Delta":103502347},{"NoteNumber":83,"Velocity":38,"Duration":83724,"SoundDuration":83724,"Delta":103585876},{"NoteNumber":81,"Velocity":43,"Duration":82087,"SoundDuration":82087,"Delta":103669600},{"NoteNumber":83,"Velocity":38,"Duration":80836,"SoundDuration":80836,"Delta":103751687},{"NoteNumber":81,"Velocity":43,"Duration":80836,"SoundDuration":80836,"Delta":103832524},{"NoteNumber":83,"Velocity":39,"Duration":81592,"SoundDuration":81592,"Delta":103913360},{"NoteNumber":81,"Velocity":43,"Duration":109673,"SoundDuration":109673,"Delta":103994953},{"NoteNumber":62,"Velocity":38,"Duration":673135,"SoundDuration":673135,"Delta":103994953},{"NoteNumber":66,"Velocity":45,"Duration":673135,"SoundDuration":673135,"Delta":103994953},{"NoteNumber":83,"Velocity":45,"Duration":109673,"SoundDuration":109673,"Delta":104104626},{"NoteNumber":81,"Velocity":52,"Duration":109673,"SoundDuration":109673,"Delta":104214299},{"NoteNumber":80,"Velocity":58,"Duration":172057,"SoundDuration":172057,"Delta":104323973},{"NoteNumber":81,"Velocity":54,"Duration":172057,"SoundDuration":172057,"Delta":104496030},{"NoteNumber":86,"Velocity":66,"Duration":669792,"SoundDuration":669792,"Delta":104668088},{"NoteNumber":74,"Velocity":56,"Duration":669792,"SoundDuration":669792,"Delta":104668088},{"NoteNumber":66,"Velocity":59,"Duration":669792,"SoundDuration":669792,"Delta":104668088},{"NoteNumber":69,"Velocity":59,"Duration":669792,"SoundDuration":669792,"Delta":104668088},{"NoteNumber":85,"Velocity":60,"Duration":652315,"SoundDuration":652315,"Delta":105337881},{"NoteNumber":73,"Velocity":50,"Duration":652315,"SoundDuration":652315,"Delta":105337881},{"NoteNumber":64,"Velocity":42,"Duration":652315,"SoundDuration":652315,"Delta":105337881},{"NoteNumber":67,"Velocity":42,"Duration":652315,"SoundDuration":652315,"Delta":105337881},{"NoteNumber":70,"Velocity":51,"Duration":652315,"SoundDuration":652315,"Delta":105337881},{"NoteNumber":71,"Velocity":53,"Duration":669792,"SoundDuration":669792,"Delta":105990196},{"NoteNumber":83,"Velocity":62,"Duration":669792,"SoundDuration":669792,"Delta":105990196},{"NoteNumber":62,"Velocity":44,"Duration":669792,"SoundDuration":669792,"Delta":105990196},{"NoteNumber":66,"Velocity":53,"Duration":669792,"SoundDuration":669792,"Delta":105990196},{"NoteNumber":78,"Velocity":40,"Duration":334896,"SoundDuration":334896,"Delta":106994885},{"NoteNumber":71,"Velocity":38,"Duration":675827,"SoundDuration":675827,"Delta":107329781},{"NoteNumber":83,"Velocity":45,"Duration":675827,"SoundDuration":675827,"Delta":107329781},{"NoteNumber":62,"Velocity":29,"Duration":675827,"SoundDuration":675827,"Delta":107329781},{"NoteNumber":66,"Velocity":35,"Duration":675827,"SoundDuration":675827,"Delta":107329781},{"NoteNumber":69,"Velocity":34,"Duration":675828,"SoundDuration":675828,"Delta":108005609},{"NoteNumber":81,"Velocity":40,"Duration":675828,"SoundDuration":675828,"Delta":108005609},{"NoteNumber":60,"Velocity":29,"Duration":675828,"SoundDuration":675828,"Delta":108005609},{"NoteNumber":62,"Velocity":29,"Duration":675828,"SoundDuration":675828,"Delta":108005609},{"NoteNumber":66,"Velocity":35,"Duration":675828,"SoundDuration":675828,"Delta":108005609},{"NoteNumber":67,"Velocity":37,"Duration":675827,"SoundDuration":675827,"Delta":108681437},{"NoteNumber":79,"Velocity":44,"Duration":675827,"SoundDuration":675827,"Delta":108681437},{"NoteNumber":59,"Velocity":29,"Duration":675827,"SoundDuration":675827,"Delta":108681437},{"NoteNumber":62,"Velocity":35,"Duration":675827,"SoundDuration":675827,"Delta":108681437},{"NoteNumber":74,"Velocity":60,"Duration":337913,"SoundDuration":337913,"Delta":109695179},{"NoteNumber":79,"Velocity":66,"Duration":669792,"SoundDuration":669792,"Delta":110033093},{"NoteNumber":67,"Velocity":56,"Duration":669792,"SoundDuration":669792,"Delta":110033093},{"NoteNumber":59,"Velocity":59,"Duration":669792,"SoundDuration":669792,"Delta":110033093},{"NoteNumber":62,"Velocity":59,"Duration":669792,"SoundDuration":669792,"Delta":110033093},{"NoteNumber":78,"Velocity":60,"Duration":652315,"SoundDuration":652315,"Delta":110702886},{"NoteNumber":66,"Velocity":50,"Duration":652315,"SoundDuration":652315,"Delta":110702886},{"NoteNumber":57,"Velocity":42,"Duration":652315,"SoundDuration":652315,"Delta":110702886},{"NoteNumber":60,"Velocity":42,"Duration":652315,"SoundDuration":652315,"Delta":110702886},{"NoteNumber":63,"Velocity":51,"Duration":652315,"SoundDuration":652315,"Delta":110702886},{"NoteNumber":76,"Velocity":62,"Duration":334896,"SoundDuration":334896,"Delta":111355201},{"NoteNumber":55,"Velocity":44,"Duration":1335142,"SoundDuration":1335142,"Delta":111355201},{"NoteNumber":59,"Velocity":44,"Duration":1335142,"SoundDuration":1335142,"Delta":111355201},{"NoteNumber":64,"Velocity":53,"Duration":1335142,"SoundDuration":1335142,"Delta":111355201},{"NoteNumber":83,"Velocity":56,"Duration":334896,"SoundDuration":334896,"Delta":111690097},{"NoteNumber":81,"Velocity":50,"Duration":161672,"SoundDuration":161672,"Delta":112024994},{"NoteNumber":79,"Velocity":46,"Duration":161672,"SoundDuration":161672,"Delta":112186666},{"NoteNumber":78,"Velocity":50,"Duration":161672,"SoundDuration":161672,"Delta":112348339},{"NoteNumber":76,"Velocity":46,"Duration":180331,"SoundDuration":180331,"Delta":112510012},{"NoteNumber":74,"Velocity":50,"Duration":669792,"SoundDuration":669792,"Delta":112690344},{"NoteNumber":66,"Velocity":40,"Duration":669792,"SoundDuration":669792,"Delta":112690344},{"NoteNumber":57,"Velocity":40,"Duration":1339584,"SoundDuration":1339584,"Delta":112690344},{"NoteNumber":76,"Velocity":45,"Duration":669792,"SoundDuration":669792,"Delta":113360136},{"NoteNumber":61,"Velocity":38,"Duration":669792,"SoundDuration":669792,"Delta":113360136},{"NoteNumber":77,"Velocity":53,"Duration":688401,"SoundDuration":688401,"Delta":114029929},{"NoteNumber":61,"Velocity":40,"Duration":688401,"SoundDuration":688401,"Delta":114029929},{"NoteNumber":50,"Velocity":40,"Duration":1358194,"SoundDuration":1358194,"Delta":114029929},{"NoteNumber":78,"Velocity":49,"Duration":669792,"SoundDuration":669792,"Delta":114718330},{"NoteNumber":62,"Velocity":38,"Duration":669792,"SoundDuration":669792,"Delta":114718330},{"NoteNumber":86,"Velocity":66,"Duration":669792,"SoundDuration":669792,"Delta":115388123},{"NoteNumber":66,"Velocity":53,"Duration":669792,"SoundDuration":669792,"Delta":115388123},{"NoteNumber":69,"Velocity":53,"Duration":669792,"SoundDuration":669792,"Delta":115388123},{"NoteNumber":85,"Velocity":60,"Duration":81539,"SoundDuration":81539,"Delta":116057915},{"NoteNumber":64,"Velocity":37,"Duration":652315,"SoundDuration":652315,"Delta":116057915},{"NoteNumber":67,"Velocity":37,"Duration":652315,"SoundDuration":652315,"Delta":116057915},{"NoteNumber":70,"Velocity":45,"Duration":652315,"SoundDuration":652315,"Delta":116057915},{"NoteNumber":86,"Velocity":54,"Duration":81539,"SoundDuration":81539,"Delta":116139455},{"NoteNumber":85,"Velocity":60,"Duration":81539,"SoundDuration":81539,"Delta":116220994},{"NoteNumber":86,"Velocity":55,"Duration":81539,"SoundDuration":81539,"Delta":116302534},{"NoteNumber":85,"Velocity":60,"Duration":81539,"SoundDuration":81539,"Delta":116384073},{"NoteNumber":86,"Velocity":55,"Duration":81539,"SoundDuration":81539,"Delta":116465613},{"NoteNumber":85,"Velocity":60,"Duration":81539,"SoundDuration":81539,"Delta":116547152},{"NoteNumber":86,"Velocity":55,"Duration":81539,"SoundDuration":81539,"Delta":116628692},{"NoteNumber":83,"Velocity":62,"Duration":669792,"SoundDuration":669792,"Delta":116710231},{"NoteNumber":71,"Velocity":47,"Duration":669792,"SoundDuration":669792,"Delta":116710231},{"NoteNumber":62,"Velocity":39,"Duration":669792,"SoundDuration":669792,"Delta":116710231},{"NoteNumber":66,"Velocity":47,"Duration":669792,"SoundDuration":669792,"Delta":116710231},{"NoteNumber":78,"Velocity":40,"Duration":334896,"SoundDuration":334896,"Delta":117714920},{"NoteNumber":83,"Velocity":45,"Duration":675827,"SoundDuration":675827,"Delta":118049816},{"NoteNumber":62,"Velocity":29,"Duration":675827,"SoundDuration":675827,"Delta":118049816},{"NoteNumber":66,"Velocity":35,"Duration":675827,"SoundDuration":675827,"Delta":118049816},{"NoteNumber":81,"Velocity":48,"Duration":84478,"SoundDuration":84478,"Delta":118725644},{"NoteNumber":60,"Velocity":29,"Duration":675828,"SoundDuration":675828,"Delta":118725644},{"NoteNumber":62,"Velocity":29,"Duration":675828,"SoundDuration":675828,"Delta":118725644},{"NoteNumber":66,"Velocity":35,"Duration":675828,"SoundDuration":675828,"Delta":118725644},{"NoteNumber":83,"Velocity":42,"Duration":84478,"SoundDuration":84478,"Delta":118810122},{"NoteNumber":81,"Velocity":50,"Duration":84478,"SoundDuration":84478,"Delta":118894601},{"NoteNumber":83,"Velocity":44,"Duration":84478,"SoundDuration":84478,"Delta":118979079},{"NoteNumber":81,"Velocity":49,"Duration":84478,"SoundDuration":84478,"Delta":119063558},{"NoteNumber":83,"Velocity":42,"Duration":84478,"SoundDuration":84478,"Delta":119148036},{"NoteNumber":81,"Velocity":50,"Duration":84478,"SoundDuration":84478,"Delta":119232515},{"NoteNumber":83,"Velocity":47,"Duration":84478,"SoundDuration":84478,"Delta":119316993},{"NoteNumber":79,"Velocity":44,"Duration":675827,"SoundDuration":675827,"Delta":119401472},{"NoteNumber":67,"Velocity":35,"Duration":675827,"SoundDuration":675827,"Delta":119401472},{"NoteNumber":59,"Velocity":29,"Duration":675827,"SoundDuration":675827,"Delta":119401472},{"NoteNumber":62,"Velocity":35,"Duration":675827,"SoundDuration":675827,"Delta":119401472},{"NoteNumber":74,"Velocity":60,"Duration":337913,"SoundDuration":337913,"Delta":120415214},{"NoteNumber":79,"Velocity":66,"Duration":669792,"SoundDuration":669792,"Delta":120753128},{"NoteNumber":59,"Velocity":59,"Duration":669792,"SoundDuration":669792,"Delta":120753128},{"NoteNumber":62,"Velocity":59,"Duration":669792,"SoundDuration":669792,"Delta":120753128},{"NoteNumber":57,"Velocity":42,"Duration":652315,"SoundDuration":652315,"Delta":121422920},{"NoteNumber":60,"Velocity":42,"Duration":652315,"SoundDuration":652315,"Delta":121422920},{"NoteNumber":63,"Velocity":51,"Duration":652315,"SoundDuration":652315,"Delta":121422920},{"NoteNumber":78,"Velocity":57,"Duration":81539,"SoundDuration":81539,"Delta":121431074},{"NoteNumber":79,"Velocity":54,"Duration":81539,"SoundDuration":81539,"Delta":121512614},{"NoteNumber":78,"Velocity":59,"Duration":81539,"SoundDuration":81539,"Delta":121594153},{"NoteNumber":79,"Velocity":54,"Duration":81539,"SoundDuration":81539,"Delta":121675693},{"NoteNumber":78,"Velocity":57,"Duration":81539,"SoundDuration":81539,"Delta":121757232},{"NoteNumber":79,"Velocity":52,"Duration":81539,"SoundDuration":81539,"Delta":121838772},{"NoteNumber":78,"Velocity":56,"Duration":81539,"SoundDuration":81539,"Delta":121920311},{"NoteNumber":79,"Velocity":52,"Duration":81757,"SoundDuration":81757,"Delta":122001850},{"NoteNumber":76,"Velocity":62,"Duration":334896,"SoundDuration":334896,"Delta":122075236},{"NoteNumber":55,"Velocity":44,"Duration":1335142,"SoundDuration":1335142,"Delta":122075236},{"NoteNumber":59,"Velocity":44,"Duration":1335142,"SoundDuration":1335142,"Delta":122075236},{"NoteNumber":64,"Velocity":53,"Duration":1335142,"SoundDuration":1335142,"Delta":122075236},{"NoteNumber":83,"Velocity":58,"Duration":334896,"SoundDuration":334896,"Delta":122410132},{"NoteNumber":81,"Velocity":55,"Duration":161672,"SoundDuration":161672,"Delta":122745028},{"NoteNumber":79,"Velocity":47,"Duration":161672,"SoundDuration":161672,"Delta":122906701},{"NoteNumber":78,"Velocity":50,"Duration":161672,"SoundDuration":161672,"Delta":123068374},{"NoteNumber":76,"Velocity":46,"Duration":180331,"SoundDuration":180331,"Delta":123230047},{"NoteNumber":74,"Velocity":47,"Duration":167448,"SoundDuration":167448,"Delta":123410378},{"NoteNumber":62,"Velocity":34,"Duration":669792,"SoundDuration":669792,"Delta":123410378},{"NoteNumber":66,"Velocity":40,"Duration":669792,"SoundDuration":669792,"Delta":123410378},{"NoteNumber":57,"Velocity":34,"Duration":669792,"SoundDuration":669792,"Delta":123410378},{"NoteNumber":78,"Velocity":47,"Duration":167448,"SoundDuration":167448,"Delta":123745275},{"NoteNumber":81,"Velocity":53,"Duration":1017094,"SoundDuration":1017094,"Delta":124080171},{"NoteNumber":62,"Velocity":28,"Duration":688401,"SoundDuration":688401,"Delta":124749963},{"NoteNumber":66,"Velocity":33,"Duration":688401,"SoundDuration":688401,"Delta":124749963},{"NoteNumber":57,"Velocity":28,"Duration":688401,"SoundDuration":688401,"Delta":124749963},{"NoteNumber":80,"Velocity":46,"Duration":341099,"SoundDuration":341099,"Delta":125097266},{"NoteNumber":79,"Velocity":46,"Duration":334896,"SoundDuration":334896,"Delta":125438365},{"NoteNumber":78,"Velocity":44,"Duration":334896,"SoundDuration":334896,"Delta":125773262},{"NoteNumber":83,"Velocity":53,"Duration":215563,"SoundDuration":215563,"Delta":126108158},{"NoteNumber":57,"Velocity":28,"Duration":652466,"SoundDuration":652466,"Delta":126108158},{"NoteNumber":62,"Velocity":28,"Duration":652466,"SoundDuration":652466,"Delta":126108158},{"NoteNumber":64,"Velocity":34,"Duration":652466,"SoundDuration":652466,"Delta":126108158},{"NoteNumber":79,"Velocity":48,"Duration":215563,"SoundDuration":215563,"Delta":126323722},{"NoteNumber":76,"Velocity":47,"Duration":212966,"SoundDuration":212966,"Delta":126539285},{"NoteNumber":76,"Velocity":50,"Duration":83724,"SoundDuration":83724,"Delta":126760624},{"NoteNumber":78,"Velocity":45,"Duration":85337,"SoundDuration":85337,"Delta":126844348},{"NoteNumber":76,"Velocity":50,"Duration":85950,"SoundDuration":85950,"Delta":126929686},{"NoteNumber":78,"Velocity":45,"Duration":85016,"SoundDuration":85016,"Delta":127015636},{"NoteNumber":76,"Velocity":50,"Duration":84101,"SoundDuration":84101,"Delta":127100653},{"NoteNumber":78,"Velocity":45,"Duration":83724,"SoundDuration":83724,"Delta":127184754},{"NoteNumber":76,"Velocity":50,"Duration":82984,"SoundDuration":82984,"Delta":127268478},{"NoteNumber":78,"Velocity":45,"Duration":82040,"SoundDuration":82040,"Delta":127351462},{"NoteNumber":76,"Velocity":50,"Duration":81539,"SoundDuration":81539,"Delta":127433502},{"NoteNumber":61,"Velocity":28,"Duration":650319,"SoundDuration":650319,"Delta":127433502},{"NoteNumber":57,"Velocity":28,"Duration":650319,"SoundDuration":650319,"Delta":127433502},{"NoteNumber":67,"Velocity":34,"Duration":650319,"SoundDuration":650319,"Delta":127433502},{"NoteNumber":78,"Velocity":45,"Duration":80563,"SoundDuration":80563,"Delta":127515042},{"NoteNumber":76,"Velocity":50,"Duration":80214,"SoundDuration":80214,"Delta":127595605},{"NoteNumber":78,"Velocity":44,"Duration":80836,"SoundDuration":80836,"Delta":127675820},{"NoteNumber":76,"Velocity":50,"Duration":81187,"SoundDuration":81187,"Delta":127756656},{"NoteNumber":78,"Velocity":45,"Duration":81539,"SoundDuration":81539,"Delta":127837844},{"NoteNumber":76,"Velocity":50,"Duration":82183,"SoundDuration":82183,"Delta":127919384},{"NoteNumber":78,"Velocity":45,"Duration":82254,"SoundDuration":82254,"Delta":128001567},{"NoteNumber":76,"Velocity":50,"Duration":109673,"SoundDuration":109673,"Delta":128083822},{"NoteNumber":78,"Velocity":45,"Duration":110085,"SoundDuration":110085,"Delta":128193495},{"NoteNumber":76,"Velocity":55,"Duration":111685,"SoundDuration":111685,"Delta":128303581},{"NoteNumber":74,"Velocity":62,"Duration":170656,"SoundDuration":170656,"Delta":128415266},{"NoteNumber":76,"Velocity":59,"Duration":173571,"SoundDuration":173571,"Delta":128585923},{"NoteNumber":74,"Velocity":65,"Duration":331931,"SoundDuration":331931,"Delta":128759494},{"NoteNumber":62,"Velocity":28,"Duration":1327727,"SoundDuration":1327727,"Delta":128759494},{"NoteNumber":66,"Velocity":34,"Duration":1327727,"SoundDuration":1327727,"Delta":128759494},{"NoteNumber":73,"Velocity":53,"Duration":331931,"SoundDuration":331931,"Delta":129091426},{"NoteNumber":74,"Velocity":59,"Duration":331931,"SoundDuration":331931,"Delta":129423358},{"NoteNumber":76,"Velocity":54,"Duration":331931,"SoundDuration":331931,"Delta":129755290},{"NoteNumber":74,"Velocity":53,"Duration":331931,"SoundDuration":331931,"Delta":130087221},{"NoteNumber":72,"Velocity":51,"Duration":331931,"SoundDuration":331931,"Delta":130419153},{"NoteNumber":71,"Velocity":48,"Duration":331931,"SoundDuration":331931,"Delta":130751085},{"NoteNumber":70,"Velocity":45,"Duration":331931,"SoundDuration":331931,"Delta":131083017},{"NoteNumber":71,"Velocity":50,"Duration":506870,"SoundDuration":506870,"Delta":131414948},{"NoteNumber":55,"Velocity":39,"Duration":659340,"SoundDuration":659340,"Delta":131414948},{"NoteNumber":62,"Velocity":39,"Duration":2658295,"SoundDuration":2658295,"Delta":131414948},{"NoteNumber":74,"Velocity":42,"Duration":152469,"SoundDuration":152469,"Delta":131921819},{"NoteNumber":72,"Velocity":50,"Duration":493529,"SoundDuration":493529,"Delta":132074289},{"NoteNumber":57,"Velocity":35,"Duration":493529,"SoundDuration":493529,"Delta":132074289},{"NoteNumber":71,"Velocity":47,"Duration":164509,"SoundDuration":164509,"Delta":132567819},{"NoteNumber":55,"Velocity":30,"Duration":164509,"SoundDuration":164509,"Delta":132567819},{"NoteNumber":69,"Velocity":50,"Duration":658039,"SoundDuration":658039,"Delta":132732328},{"NoteNumber":54,"Velocity":32,"Duration":658039,"SoundDuration":658039,"Delta":132732328},{"NoteNumber":71,"Velocity":46,"Duration":682876,"SoundDuration":682876,"Delta":133390367},{"NoteNumber":55,"Velocity":32,"Duration":682876,"SoundDuration":682876,"Delta":133390367},{"NoteNumber":72,"Velocity":50,"Duration":329019,"SoundDuration":329019,"Delta":134073244},{"NoteNumber":57,"Velocity":38,"Duration":666933,"SoundDuration":666933,"Delta":134073244},{"NoteNumber":62,"Velocity":38,"Duration":2689241,"SoundDuration":2689241,"Delta":134073244},{"NoteNumber":74,"Velocity":44,"Duration":84478,"SoundDuration":84478,"Delta":134402263},{"NoteNumber":72,"Velocity":40,"Duration":84478,"SoundDuration":84478,"Delta":134486742},{"NoteNumber":71,"Velocity":44,"Duration":84478,"SoundDuration":84478,"Delta":134571220},{"NoteNumber":72,"Velocity":40,"Duration":84478,"SoundDuration":84478,"Delta":134655699},{"NoteNumber":76,"Velocity":46,"Duration":326157,"SoundDuration":326157,"Delta":134740177},{"NoteNumber":60,"Velocity":40,"Duration":326157,"SoundDuration":326157,"Delta":134740177},{"NoteNumber":74,"Velocity":47,"Duration":334896,"SoundDuration":334896,"Delta":135066335},{"NoteNumber":59,"Velocity":36,"Duration":334896,"SoundDuration":334896,"Delta":135066335},{"NoteNumber":72,"Velocity":47,"Duration":657140,"SoundDuration":657140,"Delta":135401231},{"NoteNumber":57,"Velocity":47,"Duration":657140,"SoundDuration":657140,"Delta":135401231},{"NoteNumber":71,"Velocity":51,"Duration":704113,"SoundDuration":704113,"Delta":136058372},{"NoteNumber":55,"Velocity":51,"Duration":704113,"SoundDuration":704113,"Delta":136058372},{"NoteNumber":67,"Velocity":65,"Duration":353857,"SoundDuration":353857,"Delta":136762485},{"NoteNumber":72,"Velocity":65,"Duration":353857,"SoundDuration":353857,"Delta":136762485},{"NoteNumber":52,"Velocity":49,"Duration":353857,"SoundDuration":353857,"Delta":136762485},{"NoteNumber":64,"Velocity":49,"Duration":353857,"SoundDuration":353857,"Delta":136762485},{"NoteNumber":71,"Velocity":61,"Duration":353856,"SoundDuration":353856,"Delta":137470199},{"NoteNumber":67,"Velocity":61,"Duration":353856,"SoundDuration":353856,"Delta":137470199},{"NoteNumber":50,"Velocity":44,"Duration":353856,"SoundDuration":353856,"Delta":137470199},{"NoteNumber":62,"Velocity":44,"Duration":353856,"SoundDuration":353856,"Delta":137470199},{"NoteNumber":76,"Velocity":67,"Duration":353857,"SoundDuration":353857,"Delta":138177913},{"NoteNumber":67,"Velocity":67,"Duration":353857,"SoundDuration":353857,"Delta":138177913},{"NoteNumber":60,"Velocity":51,"Duration":353857,"SoundDuration":353857,"Delta":138177913},{"NoteNumber":48,"Velocity":51,"Duration":353857,"SoundDuration":353857,"Delta":138177913},{"NoteNumber":74,"Velocity":47,"Duration":326157,"SoundDuration":326157,"Delta":139239484},{"NoteNumber":67,"Velocity":47,"Duration":326157,"SoundDuration":326157,"Delta":139239484},{"NoteNumber":59,"Velocity":37,"Duration":326157,"SoundDuration":326157,"Delta":139239484},{"NoteNumber":72,"Velocity":50,"Duration":320581,"SoundDuration":320581,"Delta":139565642},{"NoteNumber":54,"Velocity":40,"Duration":658495,"SoundDuration":658495,"Delta":139565642},{"NoteNumber":69,"Velocity":42,"Duration":337914,"SoundDuration":337914,"Delta":139886223},{"NoteNumber":71,"Velocity":50,"Duration":326157,"SoundDuration":326157,"Delta":140224137},{"NoteNumber":55,"Velocity":35,"Duration":701251,"SoundDuration":701251,"Delta":140224137},{"NoteNumber":67,"Velocity":42,"Duration":375093,"SoundDuration":375093,"Delta":140550295},{"NoteNumber":67,"Velocity":50,"Duration":707714,"SoundDuration":707714,"Delta":140925389},{"NoteNumber":71,"Velocity":50,"Duration":707714,"SoundDuration":707714,"Delta":140925389},{"NoteNumber":50,"Velocity":39,"Duration":1415427,"SoundDuration":1415427,"Delta":140925389},{"NoteNumber":55,"Velocity":40,"Duration":707713,"SoundDuration":707713,"Delta":140946030},{"NoteNumber":66,"Velocity":44,"Duration":707713,"SoundDuration":707713,"Delta":141633103},{"NoteNumber":69,"Velocity":44,"Duration":707713,"SoundDuration":707713,"Delta":141633103},{"NoteNumber":54,"Velocity":35,"Duration":707713,"SoundDuration":707713,"Delta":141633103},{"NoteNumber":71,"Velocity":50,"Duration":331931,"SoundDuration":331931,"Delta":142340817},{"NoteNumber":62,"Velocity":39,"Duration":2636263,"SoundDuration":2636263,"Delta":142340817},{"NoteNumber":55,"Velocity":39,"Duration":651617,"SoundDuration":651617,"Delta":142340817},{"NoteNumber":72,"Velocity":44,"Duration":82982,"SoundDuration":82982,"Delta":142672749},{"NoteNumber":71,"Velocity":40,"Duration":82982,"SoundDuration":82982,"Delta":142755731},{"NoteNumber":69,"Velocity":44,"Duration":76860,"SoundDuration":76860,"Delta":142838714},{"NoteNumber":71,"Velocity":40,"Duration":76859,"SoundDuration":76859,"Delta":142915574},{"NoteNumber":72,"Velocity":48,"Duration":489236,"SoundDuration":489236,"Delta":142992434},{"NoteNumber":57,"Velocity":35,"Duration":489236,"SoundDuration":489236,"Delta":142992434},{"NoteNumber":71,"Velocity":47,"Duration":163078,"SoundDuration":163078,"Delta":143481671},{"NoteNumber":55,"Velocity":30,"Duration":163078,"SoundDuration":163078,"Delta":143481671},{"NoteNumber":69,"Velocity":50,"Duration":652315,"SoundDuration":652315,"Delta":143644750},{"NoteNumber":54,"Velocity":32,"Duration":652315,"SoundDuration":652315,"Delta":143644750},{"NoteNumber":71,"Velocity":46,"Duration":680014,"SoundDuration":680014,"Delta":144297065},{"NoteNumber":56,"Velocity":32,"Duration":680014,"SoundDuration":680014,"Delta":144297065},{"NoteNumber":72,"Velocity":50,"Duration":329019,"SoundDuration":329019,"Delta":144977080},{"NoteNumber":62,"Velocity":38,"Duration":2681450,"SoundDuration":2681450,"Delta":144977080},{"NoteNumber":57,"Velocity":38,"Duration":658039,"SoundDuration":658039,"Delta":144977080},{"NoteNumber":73,"Velocity":50,"Duration":329019,"SoundDuration":329019,"Delta":145306100},{"NoteNumber":76,"Velocity":46,"Duration":329019,"SoundDuration":329019,"Delta":145635119},{"NoteNumber":54,"Velocity":33,"Duration":658039,"SoundDuration":658039,"Delta":145635119},{"NoteNumber":74,"Velocity":49,"Duration":329019,"SoundDuration":329019,"Delta":145964139},{"NoteNumber":72,"Velocity":47,"Duration":492302,"SoundDuration":492302,"Delta":146293158},{"NoteNumber":55,"Velocity":39,"Duration":1365372,"SoundDuration":1365372,"Delta":146293158},{"NoteNumber":74,"Velocity":47,"Duration":84478,"SoundDuration":84478,"Delta":146785461},{"NoteNumber":72,"Velocity":47,"Duration":84478,"SoundDuration":84478,"Delta":146869939},{"NoteNumber":71,"Velocity":51,"Duration":704113,"SoundDuration":704113,"Delta":146954418},{"NoteNumber":67,"Velocity":65,"Duration":353857,"SoundDuration":353857,"Delta":147658531},{"NoteNumber":72,"Velocity":65,"Duration":353857,"SoundDuration":353857,"Delta":147658531},{"NoteNumber":52,"Velocity":49,"Duration":353857,"SoundDuration":353857,"Delta":147658531},{"NoteNumber":64,"Velocity":49,"Duration":353857,"SoundDuration":353857,"Delta":147658531},{"NoteNumber":71,"Velocity":61,"Duration":353856,"SoundDuration":353856,"Delta":148366245},{"NoteNumber":67,"Velocity":61,"Duration":353856,"SoundDuration":353856,"Delta":148366245},{"NoteNumber":50,"Velocity":44,"Duration":353856,"SoundDuration":353856,"Delta":148366245},{"NoteNumber":62,"Velocity":44,"Duration":353856,"SoundDuration":353856,"Delta":148366245},{"NoteNumber":67,"Velocity":67,"Duration":1032346,"SoundDuration":1032346,"Delta":149073959},{"NoteNumber":76,"Velocity":67,"Duration":344115,"SoundDuration":344115,"Delta":149073959},{"NoteNumber":60,"Velocity":51,"Duration":688231,"SoundDuration":688231,"Delta":149073959},{"NoteNumber":48,"Velocity":51,"Duration":688231,"SoundDuration":688231,"Delta":149073959},{"NoteNumber":78,"Velocity":62,"Duration":344115,"SoundDuration":344115,"Delta":149418074},{"NoteNumber":79,"Velocity":65,"Duration":344115,"SoundDuration":344115,"Delta":149762190},{"NoteNumber":72,"Velocity":47,"Duration":394840,"SoundDuration":394840,"Delta":150106305},{"NoteNumber":64,"Velocity":37,"Duration":394840,"SoundDuration":394840,"Delta":150106305},{"NoteNumber":60,"Velocity":37,"Duration":394840,"SoundDuration":394840,"Delta":150106305},{"NoteNumber":71,"Velocity":50,"Duration":714456,"SoundDuration":714456,"Delta":150501146},{"NoteNumber":62,"Velocity":40,"Duration":1512124,"SoundDuration":1512124,"Delta":150501146},{"NoteNumber":67,"Velocity":40,"Duration":714456,"SoundDuration":714456,"Delta":150501146},{"NoteNumber":69,"Velocity":47,"Duration":80376,"SoundDuration":80376,"Delta":151215602},{"NoteNumber":66,"Velocity":35,"Duration":797668,"SoundDuration":797668,"Delta":151215602},{"NoteNumber":71,"Velocity":47,"Duration":77399,"SoundDuration":77399,"Delta":151295978},{"NoteNumber":69,"Velocity":47,"Duration":80376,"SoundDuration":80376,"Delta":151373378},{"NoteNumber":71,"Velocity":47,"Duration":80376,"SoundDuration":80376,"Delta":151450777},{"NoteNumber":69,"Velocity":45,"Duration":80749,"SoundDuration":80749,"Delta":151531154},{"NoteNumber":71,"Velocity":45,"Duration":87913,"SoundDuration":87913,"Delta":151611903},{"NoteNumber":69,"Velocity":45,"Duration":87228,"SoundDuration":87228,"Delta":151699816},{"NoteNumber":67,"Velocity":45,"Duration":111056,"SoundDuration":111056,"Delta":151787045},{"NoteNumber":69,"Velocity":45,"Duration":119282,"SoundDuration":119282,"Delta":151893988},{"NoteNumber":67,"Velocity":45,"Duration":1364611,"SoundDuration":1364611,"Delta":152013271},{"NoteNumber":55,"Velocity":39,"Duration":1364611,"SoundDuration":1364611,"Delta":152013271},{"NoteNumber":59,"Velocity":28,"Duration":340986,"SoundDuration":340986,"Delta":152360574},{"NoteNumber":62,"Velocity":32,"Duration":329019,"SoundDuration":329019,"Delta":152701560},{"NoteNumber":59,"Velocity":27,"Duration":347302,"SoundDuration":347302,"Delta":153030580},{"NoteNumber":71,"Velocity":45,"Duration":662486,"SoundDuration":662486,"Delta":153377882},{"NoteNumber":48,"Velocity":39,"Duration":1329419,"SoundDuration":1329419,"Delta":153377882},{"NoteNumber":52,"Velocity":27,"Duration":329019,"SoundDuration":329019,"Delta":153711349},{"NoteNumber":69,"Velocity":45,"Duration":666933,"SoundDuration":666933,"Delta":154040368},{"NoteNumber":57,"Velocity":32,"Duration":329019,"SoundDuration":329019,"Delta":154040368},{"NoteNumber":52,"Velocity":28,"Duration":337914,"SoundDuration":337914,"Delta":154369388},{"NoteNumber":67,"Velocity":45,"Duration":326157,"SoundDuration":326157,"Delta":154707302},{"NoteNumber":50,"Velocity":39,"Duration":1329022,"SoundDuration":1329022,"Delta":154707302},{"NoteNumber":66,"Velocity":41,"Duration":315285,"SoundDuration":315285,"Delta":155033460},{"NoteNumber":60,"Velocity":29,"Duration":326157,"SoundDuration":326157,"Delta":155033460},{"NoteNumber":66,"Velocity":45,"Duration":326157,"SoundDuration":326157,"Delta":155359617},{"NoteNumber":57,"Velocity":32,"Duration":326157,"SoundDuration":326157,"Delta":155359617},{"NoteNumber":62,"Velocity":41,"Duration":350549,"SoundDuration":350549,"Delta":155685775},{"NoteNumber":60,"Velocity":29,"Duration":350549,"SoundDuration":350549,"Delta":155685775},{"NoteNumber":71,"Velocity":51,"Duration":1319459,"SoundDuration":1319459,"Delta":156036324},{"NoteNumber":55,"Velocity":39,"Duration":1319459,"SoundDuration":1319459,"Delta":156036324},{"NoteNumber":59,"Velocity":29,"Duration":326157,"SoundDuration":326157,"Delta":156362482},{"NoteNumber":62,"Velocity":32,"Duration":326157,"SoundDuration":326157,"Delta":156688640},{"NoteNumber":59,"Velocity":29,"Duration":340986,"SoundDuration":340986,"Delta":157014798},{"NoteNumber":67,"Velocity":45,"Duration":978473,"SoundDuration":978473,"Delta":157355784},{"NoteNumber":52,"Velocity":39,"Duration":1327241,"SoundDuration":1327241,"Delta":157355784},{"NoteNumber":55,"Velocity":29,"Duration":326157,"SoundDuration":326157,"Delta":157681942},{"NoteNumber":59,"Velocity":32,"Duration":326157,"SoundDuration":326157,"Delta":158008100},{"NoteNumber":69,"Velocity":40,"Duration":81539,"SoundDuration":81539,"Delta":158334257},{"NoteNumber":55,"Velocity":30,"Duration":348768,"SoundDuration":348768,"Delta":158334257},{"NoteNumber":67,"Velocity":35,"Duration":81539,"SoundDuration":81539,"Delta":158415797},{"NoteNumber":66,"Velocity":40,"Duration":92844,"SoundDuration":92844,"Delta":158497336},{"NoteNumber":67,"Velocity":36,"Duration":92844,"SoundDuration":92844,"Delta":158590181},{"NoteNumber":71,"Velocity":45,"Duration":329019,"SoundDuration":329019,"Delta":158683026},{"NoteNumber":48,"Velocity":39,"Duration":1324972,"SoundDuration":1324972,"Delta":158683026},{"NoteNumber":69,"Velocity":45,"Duration":320794,"SoundDuration":320794,"Delta":159012045},{"NoteNumber":52,"Velocity":29,"Duration":329019,"SoundDuration":329019,"Delta":159012045},{"NoteNumber":69,"Velocity":45,"Duration":666933,"SoundDuration":666933,"Delta":159341065},{"NoteNumber":57,"Velocity":32,"Duration":329019,"SoundDuration":329019,"Delta":159341065},{"NoteNumber":52,"Velocity":29,"Duration":337914,"SoundDuration":337914,"Delta":159670084},{"NoteNumber":67,"Velocity":45,"Duration":326157,"SoundDuration":326157,"Delta":160007998},{"NoteNumber":50,"Velocity":39,"Duration":1369200,"SoundDuration":1369200,"Delta":160007998},{"NoteNumber":66,"Velocity":41,"Duration":320721,"SoundDuration":320721,"Delta":160334156},{"NoteNumber":60,"Velocity":30,"Duration":326157,"SoundDuration":326157,"Delta":160334156},{"NoteNumber":66,"Velocity":45,"Duration":326157,"SoundDuration":326157,"Delta":160660314},{"NoteNumber":57,"Velocity":32,"Duration":326157,"SoundDuration":326157,"Delta":160660314},{"NoteNumber":62,"Velocity":43,"Duration":390726,"SoundDuration":390726,"Delta":160986471},{"NoteNumber":60,"Velocity":29,"Duration":390726,"SoundDuration":390726,"Delta":160986471},{"NoteNumber":67,"Velocity":54,"Duration":1304631,"SoundDuration":1304631,"Delta":161377198},{"NoteNumber":59,"Velocity":38,"Duration":1304631,"SoundDuration":1304631,"Delta":161377198},{"NoteNumber":55,"Velocity":38,"Duration":1304631,"SoundDuration":1304631,"Delta":161377198},{"NoteNumber":79,"Velocity":69,"Duration":619699,"SoundDuration":619699,"Delta":162681829},{"NoteNumber":73,"Velocity":58,"Duration":619699,"SoundDuration":619699,"Delta":162681829},{"NoteNumber":67,"Velocity":58,"Duration":619699,"SoundDuration":619699,"Delta":162681829},{"NoteNumber":51,"Velocity":51,"Duration":619699,"SoundDuration":619699,"Delta":162681829},{"NoteNumber":63,"Velocity":61,"Duration":619699,"SoundDuration":619699,"Delta":162681829},{"NoteNumber":73,"Velocity":56,"Duration":619699,"SoundDuration":619699,"Delta":163334145},{"NoteNumber":79,"Velocity":66,"Duration":619699,"SoundDuration":619699,"Delta":163334145},{"NoteNumber":67,"Velocity":56,"Duration":619699,"SoundDuration":619699,"Delta":163334145},{"NoteNumber":51,"Velocity":48,"Duration":619699,"SoundDuration":619699,"Delta":163334145},{"NoteNumber":63,"Velocity":57,"Duration":619699,"SoundDuration":619699,"Delta":163334145},{"NoteNumber":73,"Velocity":59,"Duration":1216490,"SoundDuration":1216490,"Delta":163986460},{"NoteNumber":79,"Velocity":70,"Duration":1216490,"SoundDuration":1216490,"Delta":163986460},{"NoteNumber":67,"Velocity":59,"Duration":1216490,"SoundDuration":1216490,"Delta":163986460},{"NoteNumber":51,"Velocity":51,"Duration":1216490,"SoundDuration":1216490,"Delta":163986460},{"NoteNumber":63,"Velocity":61,"Duration":1216490,"SoundDuration":1216490,"Delta":163986460},{"NoteNumber":78,"Velocity":40,"Duration":521852,"SoundDuration":521852,"Delta":165338116},{"NoteNumber":86,"Velocity":48,"Duration":521852,"SoundDuration":521852,"Delta":165338116},{"NoteNumber":69,"Velocity":37,"Duration":521852,"SoundDuration":521852,"Delta":165338116},{"NoteNumber":62,"Velocity":31,"Duration":521852,"SoundDuration":521852,"Delta":165338116},{"NoteNumber":86,"Velocity":45,"Duration":521852,"SoundDuration":521852,"Delta":165990432},{"NoteNumber":78,"Velocity":38,"Duration":521852,"SoundDuration":521852,"Delta":165990432},{"NoteNumber":69,"Velocity":35,"Duration":521852,"SoundDuration":521852,"Delta":165990432},{"NoteNumber":62,"Velocity":29,"Duration":521852,"SoundDuration":521852,"Delta":165990432},{"NoteNumber":86,"Velocity":48,"Duration":1304631,"SoundDuration":1304631,"Delta":166642747},{"NoteNumber":78,"Velocity":40,"Duration":1304631,"SoundDuration":1304631,"Delta":166642747},{"NoteNumber":62,"Velocity":31,"Duration":1304631,"SoundDuration":1304631,"Delta":166642747},{"NoteNumber":69,"Velocity":37,"Duration":1304631,"SoundDuration":1304631,"Delta":166642747},{"NoteNumber":71,"Velocity":48,"Duration":77495,"SoundDuration":77495,"Delta":168599694},{"NoteNumber":72,"Velocity":44,"Duration":77495,"SoundDuration":77495,"Delta":168677189},{"NoteNumber":71,"Velocity":48,"Duration":77495,"SoundDuration":77495,"Delta":168754684},{"NoteNumber":69,"Velocity":44,"Duration":77495,"SoundDuration":77495,"Delta":168832180},{"NoteNumber":71,"Velocity":50,"Duration":154990,"SoundDuration":154990,"Delta":168909675},{"NoteNumber":72,"Velocity":45,"Duration":167448,"SoundDuration":167448,"Delta":169064666},{"NoteNumber":74,"Velocity":54,"Duration":652315,"SoundDuration":652315,"Delta":169232114},{"NoteNumber":55,"Velocity":34,"Duration":326157,"SoundDuration":326157,"Delta":169232114},{"NoteNumber":59,"Velocity":29,"Duration":326157,"SoundDuration":326157,"Delta":169558272},{"NoteNumber":74,"Velocity":48,"Duration":978473,"SoundDuration":978473,"Delta":169884430},{"NoteNumber":62,"Velocity":29,"Duration":326157,"SoundDuration":326157,"Delta":169884430},{"NoteNumber":59,"Velocity":29,"Duration":326157,"SoundDuration":326157,"Delta":170210587},{"NoteNumber":55,"Velocity":34,"Duration":326157,"SoundDuration":326157,"Delta":170536745},{"NoteNumber":74,"Velocity":48,"Duration":320674,"SoundDuration":320674,"Delta":170862903},{"NoteNumber":59,"Velocity":30,"Duration":320674,"SoundDuration":320674,"Delta":170862903},{"NoteNumber":74,"Velocity":50,"Duration":78798,"SoundDuration":78798,"Delta":171183578},{"NoteNumber":62,"Velocity":30,"Duration":315192,"SoundDuration":315192,"Delta":171183578},{"NoteNumber":76,"Velocity":44,"Duration":78798,"SoundDuration":78798,"Delta":171262376},{"NoteNumber":74,"Velocity":46,"Duration":78798,"SoundDuration":78798,"Delta":171341174},{"NoteNumber":73,"Velocity":46,"Duration":78798,"SoundDuration":78798,"Delta":171419972},{"NoteNumber":74,"Velocity":53,"Duration":170493,"SoundDuration":170493,"Delta":171498770},{"NoteNumber":59,"Velocity":30,"Duration":340986,"SoundDuration":340986,"Delta":171498770},{"NoteNumber":76,"Velocity":43,"Duration":170493,"SoundDuration":170493,"Delta":171669263},{"NoteNumber":74,"Velocity":53,"Duration":326157,"SoundDuration":326157,"Delta":171839757},{"NoteNumber":55,"Velocity":34,"Duration":326157,"SoundDuration":326157,"Delta":171839757},{"NoteNumber":72,"Velocity":48,"Duration":326157,"SoundDuration":326157,"Delta":172165914},{"NoteNumber":57,"Velocity":31,"Duration":326157,"SoundDuration":326157,"Delta":172165914},{"NoteNumber":72,"Velocity":48,"Duration":978473,"SoundDuration":978473,"Delta":172492072},{"NoteNumber":64,"Velocity":31,"Duration":326157,"SoundDuration":326157,"Delta":172492072},{"NoteNumber":57,"Velocity":31,"Duration":326157,"SoundDuration":326157,"Delta":172818230},{"NoteNumber":55,"Velocity":34,"Duration":326157,"SoundDuration":326157,"Delta":173144388},{"NoteNumber":72,"Velocity":45,"Duration":163078,"SoundDuration":163078,"Delta":173470545},{"NoteNumber":57,"Velocity":30,"Duration":326157,"SoundDuration":326157,"Delta":173470545},{"NoteNumber":71,"Velocity":49,"Duration":163078,"SoundDuration":163078,"Delta":173796703},{"NoteNumber":64,"Velocity":30,"Duration":326157,"SoundDuration":326157,"Delta":173796703},{"NoteNumber":69,"Velocity":45,"Duration":175274,"SoundDuration":175274,"Delta":174122861},{"NoteNumber":57,"Velocity":30,"Duration":350549,"SoundDuration":350549,"Delta":174122861},{"NoteNumber":69,"Velocity":51,"Duration":326157,"SoundDuration":326157,"Delta":174473410},{"NoteNumber":54,"Velocity":34,"Duration":326157,"SoundDuration":326157,"Delta":174473410},{"NoteNumber":74,"Velocity":46,"Duration":318003,"SoundDuration":318003,"Delta":174799568},{"NoteNumber":57,"Velocity":31,"Duration":326157,"SoundDuration":326157,"Delta":174799568},{"NoteNumber":74,"Velocity":46,"Duration":996431,"SoundDuration":996431,"Delta":175125726},{"NoteNumber":62,"Velocity":31,"Duration":326157,"SoundDuration":326157,"Delta":175125726},{"NoteNumber":57,"Velocity":31,"Duration":326157,"SoundDuration":326157,"Delta":175451883},{"NoteNumber":52,"Velocity":34,"Duration":344115,"SoundDuration":344115,"Delta":175778041},{"NoteNumber":76,"Velocity":48,"Duration":161672,"SoundDuration":161672,"Delta":176122157},{"NoteNumber":57,"Velocity":31,"Duration":323345,"SoundDuration":323345,"Delta":176122157},{"NoteNumber":74,"Velocity":44,"Duration":161672,"SoundDuration":161672,"Delta":176283829},{"NoteNumber":74,"Velocity":48,"Duration":161672,"SoundDuration":161672,"Delta":176445502},{"NoteNumber":60,"Velocity":31,"Duration":323345,"SoundDuration":323345,"Delta":176445502},{"NoteNumber":72,"Velocity":44,"Duration":161672,"SoundDuration":161672,"Delta":176607175},{"NoteNumber":71,"Velocity":44,"Duration":161672,"SoundDuration":161672,"Delta":176768848},{"NoteNumber":57,"Velocity":28,"Duration":357036,"SoundDuration":357036,"Delta":176768848},{"NoteNumber":72,"Velocity":44,"Duration":195363,"SoundDuration":195363,"Delta":176930520},{"NoteNumber":72,"Velocity":49,"Duration":334896,"SoundDuration":334896,"Delta":177125884},{"NoteNumber":51,"Velocity":31,"Duration":334896,"SoundDuration":334896,"Delta":177125884},{"NoteNumber":71,"Velocity":45,"Duration":315261,"SoundDuration":315261,"Delta":177460780},{"NoteNumber":54,"Velocity":32,"Duration":323345,"SoundDuration":323345,"Delta":177460780},{"NoteNumber":71,"Velocity":48,"Duration":838066,"SoundDuration":838066,"Delta":177784125},{"NoteNumber":57,"Velocity":32,"Duration":323345,"SoundDuration":323345,"Delta":177784125},{"NoteNumber":51,"Velocity":32,"Duration":323345,"SoundDuration":323345,"Delta":178107471},{"NoteNumber":52,"Velocity":34,"Duration":346366,"SoundDuration":346366,"Delta":178430816},{"NoteNumber":71,"Velocity":44,"Duration":77495,"SoundDuration":77495,"Delta":178622192},{"NoteNumber":72,"Velocity":44,"Duration":77495,"SoundDuration":77495,"Delta":178699687},{"NoteNumber":74,"Velocity":48,"Duration":163078,"SoundDuration":163078,"Delta":178777183},{"NoteNumber":59,"Velocity":32,"Duration":326157,"SoundDuration":326157,"Delta":178777183},{"NoteNumber":72,"Velocity":46,"Duration":163078,"SoundDuration":163078,"Delta":179103340},{"NoteNumber":50,"Velocity":32,"Duration":326157,"SoundDuration":326157,"Delta":179103340},{"NoteNumber":71,"Velocity":46,"Duration":175274,"SoundDuration":175274,"Delta":179429498},{"NoteNumber":55,"Velocity":32,"Duration":350549,"SoundDuration":350549,"Delta":179429498},{"NoteNumber":71,"Velocity":51,"Duration":326157,"SoundDuration":326157,"Delta":179780047},{"NoteNumber":49,"Velocity":34,"Duration":326157,"SoundDuration":326157,"Delta":179780047},{"NoteNumber":69,"Velocity":46,"Duration":326157,"SoundDuration":326157,"Delta":180106205},{"NoteNumber":52,"Velocity":27,"Duration":326157,"SoundDuration":326157,"Delta":180106205},{"NoteNumber":69,"Velocity":46,"Duration":163078,"SoundDuration":163078,"Delta":180432363},{"NoteNumber":55,"Velocity":31,"Duration":326157,"SoundDuration":326157,"Delta":180432363},{"NoteNumber":69,"Velocity":48,"Duration":163078,"SoundDuration":163078,"Delta":180758521},{"NoteNumber":52,"Velocity":28,"Duration":326157,"SoundDuration":326157,"Delta":180758521},{"NoteNumber":69,"Velocity":48,"Duration":652315,"SoundDuration":652315,"Delta":181084678},{"NoteNumber":49,"Velocity":34,"Duration":326157,"SoundDuration":326157,"Delta":181084678},{"NoteNumber":52,"Velocity":29,"Duration":326157,"SoundDuration":326157,"Delta":181410836},{"NoteNumber":69,"Velocity":48,"Duration":496651,"SoundDuration":496651,"Delta":181736994},{"NoteNumber":55,"Velocity":32,"Duration":326157,"SoundDuration":326157,"Delta":181736994},{"NoteNumber":73,"Velocity":48,"Duration":113662,"SoundDuration":113662,"Delta":182063152},{"NoteNumber":52,"Velocity":29,"Duration":361868,"SoundDuration":361868,"Delta":182063152},{"NoteNumber":74,"Velocity":48,"Duration":120622,"SoundDuration":120622,"Delta":182176814},{"NoteNumber":76,"Velocity":48,"Duration":127583,"SoundDuration":127583,"Delta":182297437},{"NoteNumber":74,"Velocity":53,"Duration":1645617,"SoundDuration":1645617,"Delta":182425020},{"NoteNumber":48,"Velocity":34,"Duration":326157,"SoundDuration":326157,"Delta":182425020},{"NoteNumber":54,"Velocity":26,"Duration":326157,"SoundDuration":326157,"Delta":182751178},{"NoteNumber":57,"Velocity":29,"Duration":326157,"SoundDuration":326157,"Delta":183077336},{"NoteNumber":48,"Velocity":25,"Duration":340986,"SoundDuration":340986,"Delta":183403493},{"NoteNumber":47,"Velocity":34,"Duration":326157,"SoundDuration":326157,"Delta":183744480},{"NoteNumber":76,"Velocity":52,"Duration":163078,"SoundDuration":163078,"Delta":184070638},{"NoteNumber":55,"Velocity":26,"Duration":326157,"SoundDuration":326157,"Delta":184070638},{"NoteNumber":74,"Velocity":48,"Duration":163078,"SoundDuration":163078,"Delta":184233717},{"NoteNumber":72,"Velocity":51,"Duration":326157,"SoundDuration":326157,"Delta":184396795},{"NoteNumber":52,"Velocity":29,"Duration":326157,"SoundDuration":326157,"Delta":184396795},{"NoteNumber":71,"Velocity":48,"Duration":329466,"SoundDuration":329466,"Delta":184722953},{"NoteNumber":50,"Velocity":26,"Duration":337914,"SoundDuration":337914,"Delta":184722953},{"NoteNumber":71,"Velocity":53,"Duration":326157,"SoundDuration":326157,"Delta":185060867},{"NoteNumber":52,"Velocity":33,"Duration":1956946,"SoundDuration":1956946,"Delta":185060867},{"NoteNumber":48,"Velocity":33,"Duration":1956946,"SoundDuration":1956946,"Delta":185060867},{"NoteNumber":69,"Velocity":45,"Duration":326157,"SoundDuration":326157,"Delta":185387025},{"NoteNumber":68,"Velocity":50,"Duration":326157,"SoundDuration":326157,"Delta":185713183},{"NoteNumber":69,"Velocity":45,"Duration":326157,"SoundDuration":326157,"Delta":186039340},{"NoteNumber":71,"Velocity":48,"Duration":326157,"SoundDuration":326157,"Delta":186365498},{"NoteNumber":72,"Velocity":44,"Duration":326157,"SoundDuration":326157,"Delta":186691656},{"NoteNumber":64,"Velocity":42,"Duration":326157,"SoundDuration":326157,"Delta":187017814},{"NoteNumber":57,"Velocity":32,"Duration":652315,"SoundDuration":652315,"Delta":187017814},{"NoteNumber":49,"Velocity":32,"Duration":652315,"SoundDuration":652315,"Delta":187017814},{"NoteNumber":69,"Velocity":42,"Duration":326157,"SoundDuration":326157,"Delta":187343971},{"NoteNumber":67,"Velocity":48,"Duration":326157,"SoundDuration":326157,"Delta":187670129},{"NoteNumber":57,"Velocity":35,"Duration":1304631,"SoundDuration":1304631,"Delta":187670129},{"NoteNumber":50,"Velocity":35,"Duration":1304631,"SoundDuration":1304631,"Delta":187670129},{"NoteNumber":66,"Velocity":45,"Duration":326157,"SoundDuration":326157,"Delta":187996287},{"NoteNumber":64,"Velocity":41,"Duration":326157,"SoundDuration":326157,"Delta":188322445},{"NoteNumber":62,"Velocity":41,"Duration":326157,"SoundDuration":326157,"Delta":188648602},{"NoteNumber":64,"Velocity":42,"Duration":326157,"SoundDuration":326157,"Delta":188974760},{"NoteNumber":66,"Velocity":44,"Duration":326157,"SoundDuration":326157,"Delta":189300918},{"NoteNumber":67,"Velocity":47,"Duration":326157,"SoundDuration":326157,"Delta":189627076},{"NoteNumber":69,"Velocity":49,"Duration":326157,"SoundDuration":326157,"Delta":189953233},{"NoteNumber":71,"Velocity":50,"Duration":506870,"SoundDuration":506870,"Delta":190279391},{"NoteNumber":67,"Velocity":36,"Duration":337914,"SoundDuration":337914,"Delta":190279391},{"NoteNumber":62,"Velocity":29,"Duration":321426,"SoundDuration":321426,"Delta":190617305},{"NoteNumber":74,"Velocity":42,"Duration":152469,"SoundDuration":152469,"Delta":190786262},{"NoteNumber":72,"Velocity":50,"Duration":493529,"SoundDuration":493529,"Delta":190938732},{"NoteNumber":67,"Velocity":33,"Duration":329019,"SoundDuration":329019,"Delta":190938732},{"NoteNumber":62,"Velocity":29,"Duration":329019,"SoundDuration":329019,"Delta":191267752},{"NoteNumber":71,"Velocity":47,"Duration":164509,"SoundDuration":164509,"Delta":191432261},{"NoteNumber":69,"Velocity":50,"Duration":658039,"SoundDuration":658039,"Delta":191596771},{"NoteNumber":66,"Velocity":36,"Duration":329019,"SoundDuration":329019,"Delta":191596771},{"NoteNumber":62,"Velocity":28,"Duration":329019,"SoundDuration":329019,"Delta":191925791},{"NoteNumber":71,"Velocity":46,"Duration":682876,"SoundDuration":682876,"Delta":192254810},{"NoteNumber":67,"Velocity":32,"Duration":329019,"SoundDuration":329019,"Delta":192254810},{"NoteNumber":62,"Velocity":28,"Duration":353857,"SoundDuration":353857,"Delta":192583830},{"NoteNumber":72,"Velocity":50,"Duration":658039,"SoundDuration":658039,"Delta":192937687},{"NoteNumber":69,"Velocity":36,"Duration":329019,"SoundDuration":329019,"Delta":192937687},{"NoteNumber":62,"Velocity":28,"Duration":329019,"SoundDuration":329019,"Delta":193266706},{"NoteNumber":74,"Velocity":46,"Duration":658039,"SoundDuration":658039,"Delta":193595726},{"NoteNumber":66,"Velocity":31,"Duration":329019,"SoundDuration":329019,"Delta":193595726},{"NoteNumber":62,"Velocity":28,"Duration":329019,"SoundDuration":329019,"Delta":193924745},{"NoteNumber":72,"Velocity":47,"Duration":657140,"SoundDuration":657140,"Delta":194253765},{"NoteNumber":67,"Velocity":36,"Duration":328121,"SoundDuration":328121,"Delta":194253765},{"NoteNumber":62,"Velocity":29,"Duration":329019,"SoundDuration":329019,"Delta":194581886},{"NoteNumber":71,"Velocity":51,"Duration":704113,"SoundDuration":704113,"Delta":194910905},{"NoteNumber":67,"Velocity":33,"Duration":329019,"SoundDuration":329019,"Delta":194910905},{"NoteNumber":62,"Velocity":29,"Duration":375093,"SoundDuration":375093,"Delta":195239925},{"NoteNumber":86,"Velocity":45,"Duration":84478,"SoundDuration":84478,"Delta":195615019},{"NoteNumber":55,"Velocity":38,"Duration":506870,"SoundDuration":506870,"Delta":195615019},{"NoteNumber":59,"Velocity":45,"Duration":506870,"SoundDuration":506870,"Delta":195615019},{"NoteNumber":88,"Velocity":40,"Duration":84478,"SoundDuration":84478,"Delta":195699497},{"NoteNumber":86,"Velocity":45,"Duration":84478,"SoundDuration":84478,"Delta":195783976},{"NoteNumber":88,"Velocity":41,"Duration":84478,"SoundDuration":84478,"Delta":195868454},{"NoteNumber":86,"Velocity":45,"Duration":84478,"SoundDuration":84478,"Delta":195952933},{"NoteNumber":88,"Velocity":40,"Duration":84478,"SoundDuration":84478,"Delta":196037411},{"NoteNumber":86,"Velocity":45,"Duration":76234,"SoundDuration":76234,"Delta":196121890},{"NoteNumber":62,"Velocity":37,"Duration":152469,"SoundDuration":152469,"Delta":196121890},{"NoteNumber":88,"Velocity":39,"Duration":76234,"SoundDuration":76234,"Delta":196198125},{"NoteNumber":86,"Velocity":45,"Duration":81351,"SoundDuration":81351,"Delta":196274360},{"NoteNumber":57,"Velocity":38,"Duration":486718,"SoundDuration":486718,"Delta":196274360},{"NoteNumber":60,"Velocity":45,"Duration":486718,"SoundDuration":486718,"Delta":196274360},{"NoteNumber":88,"Velocity":40,"Duration":80490,"SoundDuration":80490,"Delta":196355711},{"NoteNumber":86,"Velocity":45,"Duration":80467,"SoundDuration":80467,"Delta":196436202},{"NoteNumber":88,"Velocity":40,"Duration":81328,"SoundDuration":81328,"Delta":196516670},{"NoteNumber":86,"Velocity":45,"Duration":81539,"SoundDuration":81539,"Delta":196597999},{"NoteNumber":88,"Velocity":40,"Duration":81539,"SoundDuration":81539,"Delta":196679538},{"NoteNumber":86,"Velocity":45,"Duration":80883,"SoundDuration":80883,"Delta":196761078},{"NoteNumber":55,"Velocity":35,"Duration":161467,"SoundDuration":161467,"Delta":196761078},{"NoteNumber":59,"Velocity":42,"Duration":161467,"SoundDuration":161467,"Delta":196761078},{"NoteNumber":88,"Velocity":41,"Duration":80584,"SoundDuration":80584,"Delta":196841961},{"NoteNumber":86,"Velocity":45,"Duration":82183,"SoundDuration":82183,"Delta":196922545},{"NoteNumber":54,"Velocity":38,"Duration":647447,"SoundDuration":647447,"Delta":196922545},{"NoteNumber":57,"Velocity":45,"Duration":647447,"SoundDuration":647447,"Delta":196922545},{"NoteNumber":88,"Velocity":40,"Duration":82254,"SoundDuration":82254,"Delta":197004729},{"NoteNumber":86,"Velocity":45,"Duration":82140,"SoundDuration":82140,"Delta":197086984},{"NoteNumber":88,"Velocity":40,"Duration":79852,"SoundDuration":79852,"Delta":197169124},{"NoteNumber":86,"Velocity":45,"Duration":79465,"SoundDuration":79465,"Delta":197248977},{"NoteNumber":88,"Velocity":41,"Duration":79877,"SoundDuration":79877,"Delta":197328443},{"NoteNumber":86,"Velocity":45,"Duration":80836,"SoundDuration":80836,"Delta":197408320},{"NoteNumber":88,"Velocity":40,"Duration":80836,"SoundDuration":80836,"Delta":197489156},{"NoteNumber":86,"Velocity":45,"Duration":80836,"SoundDuration":80836,"Delta":197569993},{"NoteNumber":55,"Velocity":34,"Duration":654936,"SoundDuration":654936,"Delta":197569993},{"NoteNumber":59,"Velocity":41,"Duration":654936,"SoundDuration":654936,"Delta":197569993},{"NoteNumber":88,"Velocity":40,"Duration":80836,"SoundDuration":80836,"Delta":197650829},{"NoteNumber":86,"Velocity":45,"Duration":80836,"SoundDuration":80836,"Delta":197731665},{"NoteNumber":88,"Velocity":41,"Duration":80836,"SoundDuration":80836,"Delta":197812502},{"NoteNumber":86,"Velocity":45,"Duration":81913,"SoundDuration":81913,"Delta":197893338},{"NoteNumber":88,"Velocity":40,"Duration":82570,"SoundDuration":82570,"Delta":197975251},{"NoteNumber":86,"Velocity":45,"Duration":83674,"SoundDuration":83674,"Delta":198057822},{"NoteNumber":88,"Velocity":41,"Duration":83432,"SoundDuration":83432,"Delta":198141496},{"NoteNumber":86,"Velocity":45,"Duration":82254,"SoundDuration":82254,"Delta":198224929},{"NoteNumber":57,"Velocity":38,"Duration":654175,"SoundDuration":654175,"Delta":198224929},{"NoteNumber":60,"Velocity":45,"Duration":654175,"SoundDuration":654175,"Delta":198224929},{"NoteNumber":88,"Velocity":42,"Duration":82043,"SoundDuration":82043,"Delta":198307184},{"NoteNumber":86,"Velocity":45,"Duration":80145,"SoundDuration":80145,"Delta":198389228},{"NoteNumber":88,"Velocity":41,"Duration":81091,"SoundDuration":81091,"Delta":198469373},{"NoteNumber":86,"Velocity":44,"Duration":82982,"SoundDuration":82982,"Delta":198550465},{"NoteNumber":88,"Velocity":38,"Duration":82982,"SoundDuration":82982,"Delta":198633447},{"NoteNumber":86,"Velocity":44,"Duration":81838,"SoundDuration":81838,"Delta":198716430},{"NoteNumber":88,"Velocity":39,"Duration":80836,"SoundDuration":80836,"Delta":198798268},{"NoteNumber":86,"Velocity":43,"Duration":81909,"SoundDuration":81909,"Delta":198879105},{"NoteNumber":59,"Velocity":34,"Duration":652376,"SoundDuration":652376,"Delta":198879105},{"NoteNumber":62,"Velocity":41,"Duration":652376,"SoundDuration":652376,"Delta":198879105},{"NoteNumber":88,"Velocity":38,"Duration":82982,"SoundDuration":82982,"Delta":198961015},{"NoteNumber":86,"Velocity":42,"Duration":82482,"SoundDuration":82482,"Delta":199043997},{"NoteNumber":88,"Velocity":38,"Duration":80836,"SoundDuration":80836,"Delta":199126480},{"NoteNumber":86,"Velocity":42,"Duration":80836,"SoundDuration":80836,"Delta":199207316},{"NoteNumber":88,"Velocity":39,"Duration":80836,"SoundDuration":80836,"Delta":199288152},{"NoteNumber":86,"Velocity":43,"Duration":80953,"SoundDuration":80953,"Delta":199368989},{"NoteNumber":88,"Velocity":39,"Duration":81539,"SoundDuration":81539,"Delta":199449942},{"NoteNumber":86,"Velocity":43,"Duration":80991,"SoundDuration":80991,"Delta":199531482},{"NoteNumber":57,"Velocity":35,"Duration":655851,"SoundDuration":655851,"Delta":199531482},{"NoteNumber":60,"Velocity":42,"Duration":655851,"SoundDuration":655851,"Delta":199531482},{"NoteNumber":88,"Velocity":38,"Duration":82254,"SoundDuration":82254,"Delta":199612473},{"NoteNumber":86,"Velocity":43,"Duration":83528,"SoundDuration":83528,"Delta":199694728},{"NoteNumber":88,"Velocity":38,"Duration":83724,"SoundDuration":83724,"Delta":199778256},{"NoteNumber":86,"Velocity":43,"Duration":82087,"SoundDuration":82087,"Delta":199861980},{"NoteNumber":88,"Velocity":38,"Duration":80836,"SoundDuration":80836,"Delta":199944068},{"NoteNumber":86,"Velocity":43,"Duration":80836,"SoundDuration":80836,"Delta":200024904},{"NoteNumber":88,"Velocity":39,"Duration":81592,"SoundDuration":81592,"Delta":200105740},{"NoteNumber":86,"Velocity":43,"Duration":109673,"SoundDuration":109673,"Delta":200187333},{"NoteNumber":55,"Velocity":38,"Duration":673135,"SoundDuration":673135,"Delta":200187333},{"NoteNumber":59,"Velocity":45,"Duration":673135,"SoundDuration":673135,"Delta":200187333},{"NoteNumber":88,"Velocity":45,"Duration":109673,"SoundDuration":109673,"Delta":200297006},{"NoteNumber":86,"Velocity":52,"Duration":109673,"SoundDuration":109673,"Delta":200406680},{"NoteNumber":85,"Velocity":58,"Duration":172057,"SoundDuration":172057,"Delta":200516353},{"NoteNumber":86,"Velocity":54,"Duration":172057,"SoundDuration":172057,"Delta":200688410},{"NoteNumber":79,"Velocity":66,"Duration":669792,"SoundDuration":669792,"Delta":200860468},{"NoteNumber":67,"Velocity":56,"Duration":669792,"SoundDuration":669792,"Delta":200860468},{"NoteNumber":59,"Velocity":59,"Duration":669792,"SoundDuration":669792,"Delta":200860468},{"NoteNumber":62,"Velocity":59,"Duration":669792,"SoundDuration":669792,"Delta":200860468},{"NoteNumber":78,"Velocity":60,"Duration":652315,"SoundDuration":652315,"Delta":201530261},{"NoteNumber":66,"Velocity":50,"Duration":652315,"SoundDuration":652315,"Delta":201530261},{"NoteNumber":57,"Velocity":42,"Duration":652315,"SoundDuration":652315,"Delta":201530261},{"NoteNumber":60,"Velocity":42,"Duration":652315,"SoundDuration":652315,"Delta":201530261},{"NoteNumber":63,"Velocity":51,"Duration":652315,"SoundDuration":652315,"Delta":201530261},{"NoteNumber":64,"Velocity":53,"Duration":669792,"SoundDuration":669792,"Delta":202182576},{"NoteNumber":76,"Velocity":62,"Duration":669792,"SoundDuration":669792,"Delta":202182576},{"NoteNumber":55,"Velocity":44,"Duration":669792,"SoundDuration":669792,"Delta":202182576},{"NoteNumber":59,"Velocity":53,"Duration":669792,"SoundDuration":669792,"Delta":202182576},{"NoteNumber":71,"Velocity":40,"Duration":334896,"SoundDuration":334896,"Delta":203187265},{"NoteNumber":64,"Velocity":38,"Duration":675827,"SoundDuration":675827,"Delta":203522161},{"NoteNumber":76,"Velocity":45,"Duration":675827,"SoundDuration":675827,"Delta":203522161},{"NoteNumber":55,"Velocity":29,"Duration":675827,"SoundDuration":675827,"Delta":203522161},{"NoteNumber":59,"Velocity":35,"Duration":675827,"SoundDuration":675827,"Delta":203522161},{"NoteNumber":62,"Velocity":34,"Duration":675827,"SoundDuration":675827,"Delta":204197989},{"NoteNumber":74,"Velocity":40,"Duration":675827,"SoundDuration":675827,"Delta":204197989},{"NoteNumber":53,"Velocity":29,"Duration":675827,"SoundDuration":675827,"Delta":204197989},{"NoteNumber":55,"Velocity":29,"Duration":675827,"SoundDuration":675827,"Delta":204197989},{"NoteNumber":59,"Velocity":35,"Duration":675827,"SoundDuration":675827,"Delta":204197989},{"NoteNumber":60,"Velocity":37,"Duration":675827,"SoundDuration":675827,"Delta":204873817},{"NoteNumber":72,"Velocity":44,"Duration":675827,"SoundDuration":675827,"Delta":204873817},{"NoteNumber":52,"Velocity":29,"Duration":675827,"SoundDuration":675827,"Delta":204873817},{"NoteNumber":55,"Velocity":35,"Duration":675827,"SoundDuration":675827,"Delta":204873817},{"NoteNumber":67,"Velocity":60,"Duration":337914,"SoundDuration":337914,"Delta":205887559},{"NoteNumber":72,"Velocity":66,"Duration":669792,"SoundDuration":669792,"Delta":206225473},{"NoteNumber":60,"Velocity":56,"Duration":669792,"SoundDuration":669792,"Delta":206225473},{"NoteNumber":52,"Velocity":59,"Duration":669792,"SoundDuration":669792,"Delta":206225473},{"NoteNumber":55,"Velocity":59,"Duration":669792,"SoundDuration":669792,"Delta":206225473},{"NoteNumber":59,"Velocity":50,"Duration":652315,"SoundDuration":652315,"Delta":206895266},{"NoteNumber":71,"Velocity":60,"Duration":652315,"SoundDuration":652315,"Delta":206895266},{"NoteNumber":50,"Velocity":42,"Duration":652315,"SoundDuration":652315,"Delta":206895266},{"NoteNumber":53,"Velocity":42,"Duration":652315,"SoundDuration":652315,"Delta":206895266},{"NoteNumber":56,"Velocity":51,"Duration":652315,"SoundDuration":652315,"Delta":206895266},{"NoteNumber":69,"Velocity":62,"Duration":334896,"SoundDuration":334896,"Delta":207547581},{"NoteNumber":48,"Velocity":44,"Duration":1335142,"SoundDuration":1335142,"Delta":207547581},{"NoteNumber":52,"Velocity":44,"Duration":1335142,"SoundDuration":1335142,"Delta":207547581},{"NoteNumber":57,"Velocity":53,"Duration":1335142,"SoundDuration":1335142,"Delta":207547581},{"NoteNumber":76,"Velocity":56,"Duration":334896,"SoundDuration":334896,"Delta":207882477},{"NoteNumber":74,"Velocity":50,"Duration":161672,"SoundDuration":161672,"Delta":208217374},{"NoteNumber":72,"Velocity":46,"Duration":161672,"SoundDuration":161672,"Delta":208379046},{"NoteNumber":71,"Velocity":50,"Duration":161672,"SoundDuration":161672,"Delta":208540719},{"NoteNumber":69,"Velocity":46,"Duration":180331,"SoundDuration":180331,"Delta":208702392},{"NoteNumber":67,"Velocity":50,"Duration":669792,"SoundDuration":669792,"Delta":208882724},{"NoteNumber":59,"Velocity":40,"Duration":669792,"SoundDuration":669792,"Delta":208882724},{"NoteNumber":50,"Velocity":40,"Duration":1339584,"SoundDuration":1339584,"Delta":208882724},{"NoteNumber":69,"Velocity":45,"Duration":669792,"SoundDuration":669792,"Delta":209552516},{"NoteNumber":54,"Velocity":38,"Duration":664210,"SoundDuration":664210,"Delta":209552516},{"NoteNumber":70,"Velocity":53,"Duration":688401,"SoundDuration":688401,"Delta":210222309},{"NoteNumber":54,"Velocity":40,"Duration":688401,"SoundDuration":688401,"Delta":210222309},{"NoteNumber":43,"Velocity":40,"Duration":1358194,"SoundDuration":1358194,"Delta":210222309},{"NoteNumber":71,"Velocity":49,"Duration":669792,"SoundDuration":669792,"Delta":210910711},{"NoteNumber":55,"Velocity":38,"Duration":669792,"SoundDuration":669792,"Delta":210910711},{"NoteNumber":79,"Velocity":66,"Duration":669792,"SoundDuration":669792,"Delta":211580503},{"NoteNumber":59,"Velocity":53,"Duration":669792,"SoundDuration":669792,"Delta":211580503},{"NoteNumber":62,"Velocity":53,"Duration":669792,"SoundDuration":669792,"Delta":211580503},{"NoteNumber":78,"Velocity":60,"Duration":81539,"SoundDuration":81539,"Delta":212250296},{"NoteNumber":57,"Velocity":37,"Duration":652315,"SoundDuration":652315,"Delta":212250296},{"NoteNumber":60,"Velocity":37,"Duration":652315,"SoundDuration":652315,"Delta":212250296},{"NoteNumber":63,"Velocity":45,"Duration":652315,"SoundDuration":652315,"Delta":212250296},{"NoteNumber":79,"Velocity":54,"Duration":81539,"SoundDuration":81539,"Delta":212331835},{"NoteNumber":78,"Velocity":60,"Duration":81539,"SoundDuration":81539,"Delta":212413374},{"NoteNumber":79,"Velocity":55,"Duration":81539,"SoundDuration":81539,"Delta":212494914},{"NoteNumber":78,"Velocity":60,"Duration":81539,"SoundDuration":81539,"Delta":212576453},{"NoteNumber":79,"Velocity":55,"Duration":81539,"SoundDuration":81539,"Delta":212657993},{"NoteNumber":78,"Velocity":60,"Duration":81539,"SoundDuration":81539,"Delta":212739532},{"NoteNumber":79,"Velocity":55,"Duration":81539,"SoundDuration":81539,"Delta":212821072},{"NoteNumber":76,"Velocity":62,"Duration":669792,"SoundDuration":669792,"Delta":212902611},{"NoteNumber":64,"Velocity":47,"Duration":669792,"SoundDuration":669792,"Delta":212902611},{"NoteNumber":55,"Velocity":39,"Duration":669792,"SoundDuration":669792,"Delta":212902611},{"NoteNumber":59,"Velocity":47,"Duration":669792,"SoundDuration":669792,"Delta":212902611},{"NoteNumber":83,"Velocity":40,"Duration":334896,"SoundDuration":334896,"Delta":213907300},{"NoteNumber":88,"Velocity":45,"Duration":675827,"SoundDuration":675827,"Delta":214242196},{"NoteNumber":67,"Velocity":29,"Duration":675827,"SoundDuration":675827,"Delta":214242196},{"NoteNumber":71,"Velocity":35,"Duration":675827,"SoundDuration":675827,"Delta":214242196},{"NoteNumber":86,"Velocity":48,"Duration":84478,"SoundDuration":84478,"Delta":214918024},{"NoteNumber":65,"Velocity":29,"Duration":675827,"SoundDuration":675827,"Delta":214918024},{"NoteNumber":67,"Velocity":29,"Duration":675827,"SoundDuration":675827,"Delta":214918024},{"NoteNumber":71,"Velocity":35,"Duration":675827,"SoundDuration":675827,"Delta":214918024},{"NoteNumber":88,"Velocity":42,"Duration":84478,"SoundDuration":84478,"Delta":215002503},{"NoteNumber":86,"Velocity":50,"Duration":84478,"SoundDuration":84478,"Delta":215086981},{"NoteNumber":88,"Velocity":44,"Duration":84478,"SoundDuration":84478,"Delta":215171460},{"NoteNumber":86,"Velocity":49,"Duration":84478,"SoundDuration":84478,"Delta":215255938},{"NoteNumber":88,"Velocity":42,"Duration":84478,"SoundDuration":84478,"Delta":215340417},{"NoteNumber":86,"Velocity":50,"Duration":84478,"SoundDuration":84478,"Delta":215424895},{"NoteNumber":88,"Velocity":47,"Duration":84478,"SoundDuration":84478,"Delta":215509374},{"NoteNumber":84,"Velocity":44,"Duration":675827,"SoundDuration":675827,"Delta":215593852},{"NoteNumber":72,"Velocity":35,"Duration":675827,"SoundDuration":675827,"Delta":215593852},{"NoteNumber":64,"Velocity":29,"Duration":675827,"SoundDuration":675827,"Delta":215593852},{"NoteNumber":67,"Velocity":35,"Duration":675827,"SoundDuration":675827,"Delta":215593852},{"NoteNumber":79,"Velocity":60,"Duration":337914,"SoundDuration":337914,"Delta":216607594},{"NoteNumber":84,"Velocity":66,"Duration":669792,"SoundDuration":669792,"Delta":216945508},{"NoteNumber":64,"Velocity":59,"Duration":669792,"SoundDuration":669792,"Delta":216945508},{"NoteNumber":67,"Velocity":59,"Duration":669792,"SoundDuration":669792,"Delta":216945508},{"NoteNumber":62,"Velocity":42,"Duration":652315,"SoundDuration":652315,"Delta":217615301},{"NoteNumber":65,"Velocity":42,"Duration":652315,"SoundDuration":652315,"Delta":217615301},{"NoteNumber":68,"Velocity":51,"Duration":652315,"SoundDuration":652315,"Delta":217615301},{"NoteNumber":83,"Velocity":57,"Duration":81539,"SoundDuration":81539,"Delta":217623454},{"NoteNumber":84,"Velocity":54,"Duration":81539,"SoundDuration":81539,"Delta":217704994},{"NoteNumber":83,"Velocity":59,"Duration":81539,"SoundDuration":81539,"Delta":217786533},{"NoteNumber":84,"Velocity":54,"Duration":81539,"SoundDuration":81539,"Delta":217868073},{"NoteNumber":83,"Velocity":57,"Duration":81539,"SoundDuration":81539,"Delta":217949612},{"NoteNumber":84,"Velocity":52,"Duration":81539,"SoundDuration":81539,"Delta":218031152},{"NoteNumber":83,"Velocity":56,"Duration":81539,"SoundDuration":81539,"Delta":218112691},{"NoteNumber":84,"Velocity":52,"Duration":81757,"SoundDuration":81757,"Delta":218194231},{"NoteNumber":81,"Velocity":62,"Duration":334896,"SoundDuration":334896,"Delta":218267616},{"NoteNumber":60,"Velocity":44,"Duration":1335142,"SoundDuration":1335142,"Delta":218267616},{"NoteNumber":64,"Velocity":44,"Duration":1335142,"SoundDuration":1335142,"Delta":218267616},{"NoteNumber":69,"Velocity":53,"Duration":1335142,"SoundDuration":1335142,"Delta":218267616},{"NoteNumber":88,"Velocity":58,"Duration":334896,"SoundDuration":334896,"Delta":218602512},{"NoteNumber":86,"Velocity":55,"Duration":161672,"SoundDuration":161672,"Delta":218937409},{"NoteNumber":84,"Velocity":47,"Duration":161672,"SoundDuration":161672,"Delta":219099081},{"NoteNumber":83,"Velocity":50,"Duration":161672,"SoundDuration":161672,"Delta":219260754},{"NoteNumber":81,"Velocity":46,"Duration":180331,"SoundDuration":180331,"Delta":219422427},{"NoteNumber":79,"Velocity":47,"Duration":167448,"SoundDuration":167448,"Delta":219602759},{"NoteNumber":67,"Velocity":34,"Duration":669792,"SoundDuration":669792,"Delta":219602759},{"NoteNumber":71,"Velocity":40,"Duration":669792,"SoundDuration":669792,"Delta":219602759},{"NoteNumber":62,"Velocity":34,"Duration":669792,"SoundDuration":669792,"Delta":219602759},{"NoteNumber":81,"Velocity":47,"Duration":167448,"SoundDuration":167448,"Delta":219937655},{"NoteNumber":82,"Velocity":47,"Duration":167448,"SoundDuration":167448,"Delta":220272551},{"NoteNumber":83,"Velocity":47,"Duration":167448,"SoundDuration":167448,"Delta":220607447},{"NoteNumber":84,"Velocity":49,"Duration":173651,"SoundDuration":173651,"Delta":220942344},{"NoteNumber":67,"Velocity":32,"Duration":688401,"SoundDuration":688401,"Delta":220942344},{"NoteNumber":71,"Velocity":37,"Duration":688401,"SoundDuration":688401,"Delta":220942344},{"NoteNumber":62,"Velocity":32,"Duration":688401,"SoundDuration":688401,"Delta":220942344},{"NoteNumber":85,"Velocity":52,"Duration":173651,"SoundDuration":173651,"Delta":221289646},{"NoteNumber":86,"Velocity":55,"Duration":167448,"SoundDuration":167448,"Delta":221630745},{"NoteNumber":87,"Velocity":58,"Duration":502344,"SoundDuration":502344,"Delta":221965642},{"NoteNumber":62,"Velocity":32,"Duration":669792,"SoundDuration":669792,"Delta":222300538},{"NoteNumber":67,"Velocity":32,"Duration":669792,"SoundDuration":669792,"Delta":222300538},{"NoteNumber":72,"Velocity":37,"Duration":669792,"SoundDuration":669792,"Delta":222300538},{"NoteNumber":88,"Velocity":57,"Duration":167448,"SoundDuration":167448,"Delta":222467986},{"NoteNumber":87,"Velocity":65,"Duration":167448,"SoundDuration":167448,"Delta":222635434},{"NoteNumber":88,"Velocity":57,"Duration":167448,"SoundDuration":167448,"Delta":222802882},{"NoteNumber":86,"Velocity":64,"Duration":167448,"SoundDuration":167448,"Delta":222970330},{"NoteNumber":84,"Velocity":61,"Duration":167448,"SoundDuration":167448,"Delta":223137779},{"NoteNumber":83,"Velocity":59,"Duration":167448,"SoundDuration":167448,"Delta":223305227},{"NoteNumber":81,"Velocity":57,"Duration":167448,"SoundDuration":167448,"Delta":223472675},{"NoteNumber":81,"Velocity":50,"Duration":81539,"SoundDuration":81539,"Delta":223640123},{"NoteNumber":66,"Velocity":28,"Duration":650319,"SoundDuration":650319,"Delta":223640123},{"NoteNumber":62,"Velocity":28,"Duration":650319,"SoundDuration":650319,"Delta":223640123},{"NoteNumber":72,"Velocity":34,"Duration":650319,"SoundDuration":650319,"Delta":223640123},{"NoteNumber":83,"Velocity":45,"Duration":80563,"SoundDuration":80563,"Delta":223721662},{"NoteNumber":81,"Velocity":50,"Duration":80214,"SoundDuration":80214,"Delta":223802226},{"NoteNumber":83,"Velocity":44,"Duration":80836,"SoundDuration":80836,"Delta":223882440},{"NoteNumber":81,"Velocity":50,"Duration":81187,"SoundDuration":81187,"Delta":223963277},{"NoteNumber":83,"Velocity":45,"Duration":81539,"SoundDuration":81539,"Delta":224044465},{"NoteNumber":81,"Velocity":50,"Duration":82183,"SoundDuration":82183,"Delta":224126004},{"NoteNumber":83,"Velocity":45,"Duration":82254,"SoundDuration":82254,"Delta":224208187},{"NoteNumber":81,"Velocity":50,"Duration":109673,"SoundDuration":109673,"Delta":224290442},{"NoteNumber":83,"Velocity":45,"Duration":110085,"SoundDuration":110085,"Delta":224400115},{"NoteNumber":81,"Velocity":55,"Duration":111685,"SoundDuration":111685,"Delta":224510201},{"NoteNumber":79,"Velocity":62,"Duration":170656,"SoundDuration":170656,"Delta":224621887},{"NoteNumber":81,"Velocity":59,"Duration":173571,"SoundDuration":173571,"Delta":224792543},{"NoteNumber":79,"Velocity":65,"Duration":110643,"SoundDuration":110643,"Delta":224966115},{"NoteNumber":67,"Velocity":28,"Duration":1327727,"SoundDuration":1327727,"Delta":224966115},{"NoteNumber":71,"Velocity":34,"Duration":1327727,"SoundDuration":1327727,"Delta":224966115},{"NoteNumber":79,"Velocity":61,"Duration":165965,"SoundDuration":165965,"Delta":225132081},{"NoteNumber":78,"Velocity":58,"Duration":165965,"SoundDuration":165965,"Delta":225298047},{"NoteNumber":79,"Velocity":53,"Duration":165965,"SoundDuration":165965,"Delta":225464013},{"NoteNumber":81,"Velocity":59,"Duration":165965,"SoundDuration":165965,"Delta":225629978},{"NoteNumber":79,"Velocity":59,"Duration":165965,"SoundDuration":165965,"Delta":225795944},{"NoteNumber":78,"Velocity":56,"Duration":165965,"SoundDuration":165965,"Delta":225961910},{"NoteNumber":76,"Velocity":54,"Duration":165965,"SoundDuration":165965,"Delta":226127876},{"NoteNumber":74,"Velocity":57,"Duration":110643,"SoundDuration":110643,"Delta":226293842},{"NoteNumber":76,"Velocity":53,"Duration":164970,"SoundDuration":164970,"Delta":226459808},{"NoteNumber":75,"Velocity":51,"Duration":164631,"SoundDuration":164631,"Delta":226624779},{"NoteNumber":76,"Velocity":48,"Duration":165965,"SoundDuration":165965,"Delta":226789410},{"NoteNumber":78,"Velocity":53,"Duration":167275,"SoundDuration":167275,"Delta":226955376},{"NoteNumber":76,"Velocity":48,"Duration":168479,"SoundDuration":168479,"Delta":227122651},{"NoteNumber":74,"Velocity":49,"Duration":169699,"SoundDuration":169699,"Delta":227291130},{"NoteNumber":72,"Velocity":45,"Duration":170493,"SoundDuration":170493,"Delta":227460830},{"NoteNumber":71,"Velocity":48,"Duration":331931,"SoundDuration":331931,"Delta":227631323},{"NoteNumber":62,"Velocity":32,"Duration":1303933,"SoundDuration":1303933,"Delta":227631323},{"NoteNumber":55,"Velocity":39,"Duration":651617,"SoundDuration":651617,"Delta":227631323},{"NoteNumber":72,"Velocity":44,"Duration":66386,"SoundDuration":66386,"Delta":227963255},{"NoteNumber":71,"Velocity":40,"Duration":66386,"SoundDuration":66386,"Delta":228029641},{"NoteNumber":69,"Velocity":44,"Duration":63937,"SoundDuration":63937,"Delta":228096027},{"NoteNumber":71,"Velocity":40,"Duration":61487,"SoundDuration":61487,"Delta":228159964},{"NoteNumber":74,"Velocity":44,"Duration":61487,"SoundDuration":61487,"Delta":228221452},{"NoteNumber":72,"Velocity":48,"Duration":489236,"SoundDuration":489236,"Delta":228282940},{"NoteNumber":57,"Velocity":35,"Duration":489236,"SoundDuration":489236,"Delta":228282940},{"NoteNumber":71,"Velocity":47,"Duration":483660,"SoundDuration":483660,"Delta":228772177},{"NoteNumber":55,"Velocity":30,"Duration":163078,"SoundDuration":163078,"Delta":228772177},{"NoteNumber":62,"Velocity":32,"Duration":1311905,"SoundDuration":1311905,"Delta":228935256},{"NoteNumber":54,"Velocity":36,"Duration":646738,"SoundDuration":646738,"Delta":228935256},{"NoteNumber":69,"Velocity":50,"Duration":644021,"SoundDuration":644021,"Delta":229255837},{"NoteNumber":55,"Velocity":32,"Duration":665166,"SoundDuration":665166,"Delta":229581995},{"NoteNumber":71,"Velocity":46,"Duration":670647,"SoundDuration":670647,"Delta":229899859},{"NoteNumber":62,"Velocity":38,"Duration":1310403,"SoundDuration":1310403,"Delta":230247161},{"NoteNumber":57,"Velocity":40,"Duration":652364,"SoundDuration":652364,"Delta":230247161},{"NoteNumber":72,"Velocity":50,"Duration":493529,"SoundDuration":493529,"Delta":230570507},{"NoteNumber":54,"Velocity":33,"Duration":658039,"SoundDuration":658039,"Delta":230899526},{"NoteNumber":76,"Velocity":45,"Duration":164509,"SoundDuration":164509,"Delta":231064036},{"NoteNumber":74,"Velocity":48,"Duration":329019,"SoundDuration":329019,"Delta":231228546},{"NoteNumber":72,"Velocity":47,"Duration":661259,"SoundDuration":661259,"Delta":231557565},{"NoteNumber":62,"Velocity":38,"Duration":1365372,"SoundDuration":1365372,"Delta":231557565},{"NoteNumber":55,"Velocity":39,"Duration":1365372,"SoundDuration":1365372,"Delta":231557565},{"NoteNumber":71,"Velocity":51,"Duration":704113,"SoundDuration":704113,"Delta":232218825},{"NoteNumber":67,"Velocity":65,"Duration":353857,"SoundDuration":353857,"Delta":232922938},{"NoteNumber":72,"Velocity":65,"Duration":353857,"SoundDuration":353857,"Delta":232922938},{"NoteNumber":52,"Velocity":49,"Duration":353857,"SoundDuration":353857,"Delta":232922938},{"NoteNumber":64,"Velocity":49,"Duration":353857,"SoundDuration":353857,"Delta":232922938},{"NoteNumber":71,"Velocity":61,"Duration":353856,"SoundDuration":353856,"Delta":233630652},{"NoteNumber":67,"Velocity":61,"Duration":353856,"SoundDuration":353856,"Delta":233630652},{"NoteNumber":50,"Velocity":44,"Duration":353856,"SoundDuration":353856,"Delta":233630652},{"NoteNumber":62,"Velocity":44,"Duration":353856,"SoundDuration":353856,"Delta":233630652},{"NoteNumber":76,"Velocity":67,"Duration":334896,"SoundDuration":334896,"Delta":234338366},{"NoteNumber":67,"Velocity":67,"Duration":334896,"SoundDuration":334896,"Delta":234338366},{"NoteNumber":60,"Velocity":51,"Duration":334896,"SoundDuration":334896,"Delta":234338366},{"NoteNumber":48,"Velocity":51,"Duration":334896,"SoundDuration":334896,"Delta":234338366},{"NoteNumber":74,"Velocity":47,"Duration":337914,"SoundDuration":337914,"Delta":235343055},{"NoteNumber":59,"Velocity":37,"Duration":337914,"SoundDuration":337914,"Delta":235343055},{"NoteNumber":74,"Velocity":50,"Duration":160290,"SoundDuration":160290,"Delta":235680969},{"NoteNumber":62,"Velocity":38,"Duration":1393712,"SoundDuration":1393712,"Delta":235680969},{"NoteNumber":54,"Velocity":40,"Duration":658495,"SoundDuration":658495,"Delta":235680969},{"NoteNumber":72,"Velocity":44,"Duration":160290,"SoundDuration":160290,"Delta":235841260},{"NoteNumber":71,"Velocity":44,"Duration":168957,"SoundDuration":168957,"Delta":236001550},{"NoteNumber":69,"Velocity":44,"Duration":168957,"SoundDuration":168957,"Delta":236170507},{"NoteNumber":72,"Velocity":50,"Duration":163078,"SoundDuration":163078,"Delta":236339464},{"NoteNumber":55,"Velocity":35,"Duration":735217,"SoundDuration":735217,"Delta":236339464},{"NoteNumber":71,"Velocity":45,"Duration":163078,"SoundDuration":163078,"Delta":236502543},{"NoteNumber":69,"Velocity":45,"Duration":180331,"SoundDuration":180331,"Delta":236665622},{"NoteNumber":67,"Velocity":45,"Duration":228728,"SoundDuration":228728,"Delta":236845954},{"NoteNumber":67,"Velocity":50,"Duration":707714,"SoundDuration":707714,"Delta":237074682},{"NoteNumber":71,"Velocity":50,"Duration":707714,"SoundDuration":707714,"Delta":237074682},{"NoteNumber":62,"Velocity":38,"Duration":1415427,"SoundDuration":1415427,"Delta":237074682},{"NoteNumber":50,"Velocity":39,"Duration":1415427,"SoundDuration":1415427,"Delta":237074682},{"NoteNumber":66,"Velocity":44,"Duration":707713,"SoundDuration":707713,"Delta":237782396},{"NoteNumber":69,"Velocity":44,"Duration":707713,"SoundDuration":707713,"Delta":237782396},{"NoteNumber":70,"Velocity":50,"Duration":331931,"SoundDuration":331931,"Delta":238490110},{"NoteNumber":62,"Velocity":39,"Duration":1303933,"SoundDuration":1303933,"Delta":238490110},{"NoteNumber":55,"Velocity":39,"Duration":651617,"SoundDuration":651617,"Delta":238490110},{"NoteNumber":71,"Velocity":50,"Duration":242825,"SoundDuration":242825,"Delta":238822042},{"NoteNumber":74,"Velocity":51,"Duration":76859,"SoundDuration":76859,"Delta":239064868},{"NoteNumber":72,"Velocity":51,"Duration":326157,"SoundDuration":326157,"Delta":239141728},{"NoteNumber":57,"Velocity":35,"Duration":326157,"SoundDuration":326157,"Delta":239141728},{"NoteNumber":71,"Velocity":44,"Duration":326157,"SoundDuration":326157,"Delta":239467885},{"NoteNumber":55,"Velocity":30,"Duration":326157,"SoundDuration":326157,"Delta":239467885},{"NoteNumber":68,"Velocity":51,"Duration":326157,"SoundDuration":326157,"Delta":239794043},{"NoteNumber":62,"Velocity":30,"Duration":652315,"SoundDuration":652315,"Delta":239794043},{"NoteNumber":54,"Velocity":36,"Duration":652315,"SoundDuration":652315,"Delta":239794043},{"NoteNumber":69,"Velocity":47,"Duration":326157,"SoundDuration":326157,"Delta":240120201},{"NoteNumber":62,"Velocity":30,"Duration":680014,"SoundDuration":680014,"Delta":240446359},{"NoteNumber":55,"Velocity":32,"Duration":680014,"SoundDuration":680014,"Delta":240446359},{"NoteNumber":72,"Velocity":49,"Duration":176928,"SoundDuration":176928,"Delta":240772516},{"NoteNumber":71,"Velocity":46,"Duration":176928,"SoundDuration":176928,"Delta":240949445},{"NoteNumber":62,"Velocity":38,"Duration":658039,"SoundDuration":658039,"Delta":241126373},{"NoteNumber":57,"Velocity":40,"Duration":658039,"SoundDuration":658039,"Delta":241126373},{"NoteNumber":74,"Velocity":50,"Duration":164509,"SoundDuration":164509,"Delta":241455393},{"NoteNumber":72,"Velocity":45,"Duration":164509,"SoundDuration":164509,"Delta":241619903},{"NoteNumber":62,"Velocity":30,"Duration":658039,"SoundDuration":658039,"Delta":241784412},{"NoteNumber":54,"Velocity":33,"Duration":658039,"SoundDuration":658039,"Delta":241784412},{"NoteNumber":76,"Velocity":46,"Duration":164509,"SoundDuration":164509,"Delta":242113432},{"NoteNumber":74,"Velocity":49,"Duration":164509,"SoundDuration":164509,"Delta":242277942},{"NoteNumber":72,"Velocity":53,"Duration":492302,"SoundDuration":492302,"Delta":242442451},{"NoteNumber":62,"Velocity":38,"Duration":1365372,"SoundDuration":1365372,"Delta":242442451},{"NoteNumber":55,"Velocity":39,"Duration":1365372,"SoundDuration":1365372,"Delta":242442451},{"NoteNumber":74,"Velocity":47,"Duration":84478,"SoundDuration":84478,"Delta":242934754},{"NoteNumber":72,"Velocity":47,"Duration":84478,"SoundDuration":84478,"Delta":243019232},{"NoteNumber":71,"Velocity":56,"Duration":704113,"SoundDuration":704113,"Delta":243103711},{"NoteNumber":72,"Velocity":65,"Duration":353857,"SoundDuration":353857,"Delta":243807824},{"NoteNumber":67,"Velocity":65,"Duration":353857,"SoundDuration":353857,"Delta":243807824},{"NoteNumber":52,"Velocity":49,"Duration":353857,"SoundDuration":353857,"Delta":243807824},{"NoteNumber":64,"Velocity":49,"Duration":353857,"SoundDuration":353857,"Delta":243807824},{"NoteNumber":67,"Velocity":61,"Duration":353856,"SoundDuration":353856,"Delta":244515538},{"NoteNumber":71,"Velocity":61,"Duration":353856,"SoundDuration":353856,"Delta":244515538},{"NoteNumber":50,"Velocity":44,"Duration":353856,"SoundDuration":353856,"Delta":244515538},{"NoteNumber":62,"Velocity":44,"Duration":353856,"SoundDuration":353856,"Delta":244515538},{"NoteNumber":76,"Velocity":67,"Duration":163078,"SoundDuration":163078,"Delta":245223252},{"NoteNumber":60,"Velocity":51,"Duration":670273,"SoundDuration":670273,"Delta":245223252},{"NoteNumber":48,"Velocity":51,"Duration":670273,"SoundDuration":670273,"Delta":245223252},{"NoteNumber":78,"Velocity":54,"Duration":54359,"SoundDuration":54359,"Delta":245386331},{"NoteNumber":76,"Velocity":54,"Duration":54359,"SoundDuration":54359,"Delta":245440691},{"NoteNumber":74,"Velocity":54,"Duration":54359,"SoundDuration":54359,"Delta":245495050},{"NoteNumber":76,"Velocity":63,"Duration":172057,"SoundDuration":172057,"Delta":245549410},{"NoteNumber":78,"Velocity":60,"Duration":172057,"SoundDuration":172057,"Delta":245721468},{"NoteNumber":79,"Velocity":65,"Duration":344115,"SoundDuration":344115,"Delta":245893525},{"NoteNumber":72,"Velocity":47,"Duration":394840,"SoundDuration":394840,"Delta":246237641},{"NoteNumber":64,"Velocity":37,"Duration":394840,"SoundDuration":394840,"Delta":246237641},{"NoteNumber":60,"Velocity":37,"Duration":394840,"SoundDuration":394840,"Delta":246237641},{"NoteNumber":71,"Velocity":50,"Duration":714456,"SoundDuration":714456,"Delta":246632482},{"NoteNumber":62,"Velocity":40,"Duration":1512124,"SoundDuration":1512124,"Delta":246632482},{"NoteNumber":67,"Velocity":40,"Duration":714456,"SoundDuration":714456,"Delta":246632482},{"NoteNumber":69,"Velocity":47,"Duration":80376,"SoundDuration":80376,"Delta":247346938},{"NoteNumber":66,"Velocity":35,"Duration":797668,"SoundDuration":797668,"Delta":247346938},{"NoteNumber":71,"Velocity":47,"Duration":77399,"SoundDuration":77399,"Delta":247427314},{"NoteNumber":69,"Velocity":47,"Duration":80376,"SoundDuration":80376,"Delta":247504713},{"NoteNumber":71,"Velocity":47,"Duration":80376,"SoundDuration":80376,"Delta":247582113},{"NoteNumber":69,"Velocity":45,"Duration":80749,"SoundDuration":80749,"Delta":247662489},{"NoteNumber":71,"Velocity":45,"Duration":87913,"SoundDuration":87913,"Delta":247743238},{"NoteNumber":69,"Velocity":45,"Duration":87228,"SoundDuration":87228,"Delta":247831152},{"NoteNumber":67,"Velocity":45,"Duration":111056,"SoundDuration":111056,"Delta":247918381},{"NoteNumber":69,"Velocity":45,"Duration":119282,"SoundDuration":119282,"Delta":248025324},{"NoteNumber":67,"Velocity":45,"Duration":1364611,"SoundDuration":1364611,"Delta":248144606},{"NoteNumber":55,"Velocity":39,"Duration":1364611,"SoundDuration":1364611,"Delta":248144606},{"NoteNumber":59,"Velocity":28,"Duration":340986,"SoundDuration":340986,"Delta":248491909},{"NoteNumber":62,"Velocity":32,"Duration":329019,"SoundDuration":329019,"Delta":248832895},{"NoteNumber":59,"Velocity":27,"Duration":347302,"SoundDuration":347302,"Delta":249161915},{"NoteNumber":71,"Velocity":45,"Duration":662486,"SoundDuration":662486,"Delta":249509217},{"NoteNumber":48,"Velocity":39,"Duration":1329419,"SoundDuration":1329419,"Delta":249509217},{"NoteNumber":52,"Velocity":27,"Duration":329019,"SoundDuration":329019,"Delta":249842684},{"NoteNumber":69,"Velocity":45,"Duration":666933,"SoundDuration":666933,"Delta":250171704},{"NoteNumber":57,"Velocity":32,"Duration":329019,"SoundDuration":329019,"Delta":250171704},{"NoteNumber":52,"Velocity":28,"Duration":337914,"SoundDuration":337914,"Delta":250500723},{"NoteNumber":67,"Velocity":45,"Duration":326157,"SoundDuration":326157,"Delta":250838637},{"NoteNumber":50,"Velocity":39,"Duration":1329022,"SoundDuration":1329022,"Delta":250838637},{"NoteNumber":66,"Velocity":41,"Duration":318003,"SoundDuration":318003,"Delta":251164795},{"NoteNumber":60,"Velocity":29,"Duration":326157,"SoundDuration":326157,"Delta":251164795},{"NoteNumber":66,"Velocity":45,"Duration":326157,"SoundDuration":326157,"Delta":251490953},{"NoteNumber":57,"Velocity":32,"Duration":326157,"SoundDuration":326157,"Delta":251490953},{"NoteNumber":62,"Velocity":41,"Duration":350549,"SoundDuration":350549,"Delta":251817110},{"NoteNumber":60,"Velocity":29,"Duration":350549,"SoundDuration":350549,"Delta":251817110},{"NoteNumber":71,"Velocity":51,"Duration":1319459,"SoundDuration":1319459,"Delta":252167660},{"NoteNumber":55,"Velocity":39,"Duration":1319459,"SoundDuration":1319459,"Delta":252167660},{"NoteNumber":59,"Velocity":29,"Duration":326157,"SoundDuration":326157,"Delta":252493817},{"NoteNumber":62,"Velocity":32,"Duration":326157,"SoundDuration":326157,"Delta":252819975},{"NoteNumber":59,"Velocity":29,"Duration":340986,"SoundDuration":340986,"Delta":253146133},{"NoteNumber":67,"Velocity":45,"Duration":978473,"SoundDuration":978473,"Delta":253487119},{"NoteNumber":52,"Velocity":39,"Duration":1327241,"SoundDuration":1327241,"Delta":253487119},{"NoteNumber":55,"Velocity":29,"Duration":326157,"SoundDuration":326157,"Delta":253813277},{"NoteNumber":59,"Velocity":32,"Duration":326157,"SoundDuration":326157,"Delta":254139435},{"NoteNumber":69,"Velocity":40,"Duration":81539,"SoundDuration":81539,"Delta":254465593},{"NoteNumber":55,"Velocity":30,"Duration":348768,"SoundDuration":348768,"Delta":254465593},{"NoteNumber":67,"Velocity":35,"Duration":81539,"SoundDuration":81539,"Delta":254547132},{"NoteNumber":66,"Velocity":40,"Duration":92844,"SoundDuration":92844,"Delta":254628672},{"NoteNumber":67,"Velocity":36,"Duration":92844,"SoundDuration":92844,"Delta":254721516},{"NoteNumber":71,"Velocity":45,"Duration":329019,"SoundDuration":329019,"Delta":254814361},{"NoteNumber":48,"Velocity":39,"Duration":1324972,"SoundDuration":1324972,"Delta":254814361},{"NoteNumber":69,"Velocity":45,"Duration":320794,"SoundDuration":320794,"Delta":255143381},{"NoteNumber":52,"Velocity":29,"Duration":329019,"SoundDuration":329019,"Delta":255143381},{"NoteNumber":69,"Velocity":45,"Duration":666933,"SoundDuration":666933,"Delta":255472400},{"NoteNumber":57,"Velocity":32,"Duration":329019,"SoundDuration":329019,"Delta":255472400},{"NoteNumber":52,"Velocity":29,"Duration":337913,"SoundDuration":337913,"Delta":255801420},{"NoteNumber":67,"Velocity":45,"Duration":326157,"SoundDuration":326157,"Delta":256139334},{"NoteNumber":50,"Velocity":39,"Duration":1335701,"SoundDuration":1335701,"Delta":256139334},{"NoteNumber":66,"Velocity":41,"Duration":320721,"SoundDuration":320721,"Delta":256465491},{"NoteNumber":60,"Velocity":30,"Duration":326157,"SoundDuration":326157,"Delta":256465491},{"NoteNumber":66,"Velocity":45,"Duration":326157,"SoundDuration":326157,"Delta":256791649},{"NoteNumber":57,"Velocity":32,"Duration":326157,"SoundDuration":326157,"Delta":256791649},{"NoteNumber":62,"Velocity":43,"Duration":357228,"SoundDuration":357228,"Delta":257117807},{"NoteNumber":60,"Velocity":29,"Duration":357228,"SoundDuration":357228,"Delta":257117807},{"NoteNumber":67,"Velocity":54,"Duration":1322588,"SoundDuration":1322588,"Delta":257475035},{"NoteNumber":43,"Velocity":45,"Duration":1322588,"SoundDuration":1322588,"Delta":257475035},{"NoteNumber":55,"Velocity":37,"Duration":326157,"SoundDuration":326157,"Delta":257801193},{"NoteNumber":59,"Velocity":37,"Duration":326157,"SoundDuration":326157,"Delta":258127350},{"NoteNumber":62,"Velocity":37,"Duration":344115,"SoundDuration":344115,"Delta":258453508},{"NoteNumber":67,"Velocity":47,"Duration":1329022,"SoundDuration":1329022,"Delta":258797624},{"NoteNumber":79,"Velocity":56,"Duration":1329022,"SoundDuration":1329022,"Delta":258797624},{"NoteNumber":40,"Velocity":49,"Duration":1329022,"SoundDuration":1329022,"Delta":258797624},{"NoteNumber":52,"Velocity":39,"Duration":326157,"SoundDuration":326157,"Delta":259123781},{"NoteNumber":55,"Velocity":39,"Duration":326157,"SoundDuration":326157,"Delta":259449939},{"NoteNumber":59,"Velocity":39,"Duration":350549,"SoundDuration":350549,"Delta":259776097},{"NoteNumber":71,"Velocity":45,"Duration":317863,"SoundDuration":317863,"Delta":260126646},{"NoteNumber":83,"Velocity":54,"Duration":317863,"SoundDuration":317863,"Delta":260126646},{"NoteNumber":36,"Velocity":48,"Duration":1296337,"SoundDuration":1296337,"Delta":260126646},{"NoteNumber":69,"Velocity":41,"Duration":978473,"SoundDuration":978473,"Delta":260444510},{"NoteNumber":81,"Velocity":49,"Duration":978473,"SoundDuration":978473,"Delta":260444510},{"NoteNumber":48,"Velocity":38,"Duration":326157,"SoundDuration":326157,"Delta":260444510},{"NoteNumber":52,"Velocity":38,"Duration":326157,"SoundDuration":326157,"Delta":260770668},{"NoteNumber":57,"Velocity":38,"Duration":326157,"SoundDuration":326157,"Delta":261096826},{"NoteNumber":67,"Velocity":48,"Duration":326157,"SoundDuration":326157,"Delta":261422983},{"NoteNumber":79,"Velocity":57,"Duration":326157,"SoundDuration":326157,"Delta":261422983},{"NoteNumber":38,"Velocity":50,"Duration":1329022,"SoundDuration":1329022,"Delta":261422983},{"NoteNumber":66,"Velocity":45,"Duration":309849,"SoundDuration":309849,"Delta":261749141},{"NoteNumber":78,"Velocity":54,"Duration":309849,"SoundDuration":309849,"Delta":261749141},{"NoteNumber":50,"Velocity":42,"Duration":326157,"SoundDuration":326157,"Delta":261749141},{"NoteNumber":66,"Velocity":48,"Duration":326157,"SoundDuration":326157,"Delta":262075299},{"NoteNumber":78,"Velocity":57,"Duration":326157,"SoundDuration":326157,"Delta":262075299},{"NoteNumber":57,"Velocity":42,"Duration":326157,"SoundDuration":326157,"Delta":262075299},{"NoteNumber":74,"Velocity":58,"Duration":350549,"SoundDuration":350549,"Delta":262401457},{"NoteNumber":62,"Velocity":49,"Duration":350549,"SoundDuration":350549,"Delta":262401457},{"NoteNumber":60,"Velocity":42,"Duration":350549,"SoundDuration":350549,"Delta":262401457},{"NoteNumber":86,"Velocity":68,"Duration":1304630,"SoundDuration":1304630,"Delta":262752006},{"NoteNumber":74,"Velocity":57,"Duration":1304630,"SoundDuration":1304630,"Delta":262752006},{"NoteNumber":35,"Velocity":56,"Duration":1304630,"SoundDuration":1304630,"Delta":262752006},{"NoteNumber":47,"Velocity":42,"Duration":326157,"SoundDuration":326157,"Delta":263078164},{"NoteNumber":50,"Velocity":46,"Duration":326157,"SoundDuration":326157,"Delta":263404321},{"NoteNumber":55,"Velocity":42,"Duration":326157,"SoundDuration":326157,"Delta":263730479},{"NoteNumber":67,"Velocity":50,"Duration":619699,"SoundDuration":619699,"Delta":264056637},{"NoteNumber":79,"Velocity":59,"Duration":619699,"SoundDuration":619699,"Delta":264056637},{"NoteNumber":40,"Velocity":52,"Duration":1304630,"SoundDuration":1304630,"Delta":264056637},{"NoteNumber":52,"Velocity":41,"Duration":326157,"SoundDuration":326157,"Delta":264382795},{"NoteNumber":67,"Velocity":50,"Duration":652315,"SoundDuration":652315,"Delta":264708952},{"NoteNumber":79,"Velocity":59,"Duration":652315,"SoundDuration":652315,"Delta":264708952},{"NoteNumber":55,"Velocity":41,"Duration":326157,"SoundDuration":326157,"Delta":264708952},{"NoteNumber":59,"Velocity":41,"Duration":326157,"SoundDuration":326157,"Delta":265035110},{"NoteNumber":71,"Velocity":53,"Duration":317863,"SoundDuration":317863,"Delta":265361268},{"NoteNumber":83,"Velocity":63,"Duration":317863,"SoundDuration":317863,"Delta":265361268},{"NoteNumber":36,"Velocity":48,"Duration":1311165,"SoundDuration":1311165,"Delta":265361268},{"NoteNumber":69,"Velocity":44,"Duration":309849,"SoundDuration":309849,"Delta":265679132},{"NoteNumber":81,"Velocity":52,"Duration":309849,"SoundDuration":309849,"Delta":265679132},{"NoteNumber":48,"Velocity":38,"Duration":326157,"SoundDuration":326157,"Delta":265679132},{"NoteNumber":69,"Velocity":44,"Duration":163078,"SoundDuration":163078,"Delta":266005290},{"NoteNumber":81,"Velocity":52,"Duration":163078,"SoundDuration":163078,"Delta":266005290},{"NoteNumber":52,"Velocity":38,"Duration":326157,"SoundDuration":326157,"Delta":266005290},{"NoteNumber":69,"Velocity":44,"Duration":170493,"SoundDuration":170493,"Delta":266331447},{"NoteNumber":81,"Velocity":52,"Duration":170493,"SoundDuration":170493,"Delta":266331447},{"NoteNumber":57,"Velocity":38,"Duration":340986,"SoundDuration":340986,"Delta":266331447},{"NoteNumber":67,"Velocity":48,"Duration":326157,"SoundDuration":326157,"Delta":266672434},{"NoteNumber":79,"Velocity":57,"Duration":326157,"SoundDuration":326157,"Delta":266672434},{"NoteNumber":38,"Velocity":50,"Duration":1325775,"SoundDuration":1325775,"Delta":266672434},{"NoteNumber":66,"Velocity":45,"Duration":309849,"SoundDuration":309849,"Delta":266998592},{"NoteNumber":78,"Velocity":54,"Duration":309849,"SoundDuration":309849,"Delta":266998592},{"NoteNumber":50,"Velocity":38,"Duration":326157,"SoundDuration":326157,"Delta":266998592},{"NoteNumber":66,"Velocity":48,"Duration":326157,"SoundDuration":326157,"Delta":267324749},{"NoteNumber":78,"Velocity":57,"Duration":326157,"SoundDuration":326157,"Delta":267324749},{"NoteNumber":57,"Velocity":42,"Duration":326157,"SoundDuration":326157,"Delta":267324749},{"NoteNumber":74,"Velocity":60,"Duration":347302,"SoundDuration":347302,"Delta":267650907},{"NoteNumber":62,"Velocity":51,"Duration":347302,"SoundDuration":347302,"Delta":267650907},{"NoteNumber":60,"Velocity":37,"Duration":347302,"SoundDuration":347302,"Delta":267650907},{"NoteNumber":79,"Velocity":68,"Duration":1322588,"SoundDuration":1322588,"Delta":267998210},{"NoteNumber":67,"Velocity":57,"Duration":1322588,"SoundDuration":1322588,"Delta":267998210},{"NoteNumber":55,"Velocity":52,"Duration":326157,"SoundDuration":326157,"Delta":267998210},{"NoteNumber":62,"Velocity":34,"Duration":309849,"SoundDuration":309849,"Delta":268324367},{"NoteNumber":59,"Velocity":28,"Duration":309849,"SoundDuration":309849,"Delta":268324367},{"NoteNumber":62,"Velocity":34,"Duration":309849,"SoundDuration":309849,"Delta":268650525},{"NoteNumber":59,"Velocity":28,"Duration":309849,"SoundDuration":309849,"Delta":268650525},{"NoteNumber":62,"Velocity":34,"Duration":326909,"SoundDuration":326909,"Delta":268976683},{"NoteNumber":59,"Velocity":28,"Duration":326909,"SoundDuration":326909,"Delta":268976683},{"NoteNumber":83,"Velocity":54,"Duration":326157,"SoundDuration":326157,"Delta":269320798},{"NoteNumber":50,"Velocity":36,"Duration":326157,"SoundDuration":326157,"Delta":269320798},{"NoteNumber":81,"Velocity":48,"Duration":318003,"SoundDuration":318003,"Delta":269646956},{"NoteNumber":62,"Velocity":30,"Duration":309849,"SoundDuration":309849,"Delta":269646956},{"NoteNumber":60,"Velocity":25,"Duration":309849,"SoundDuration":309849,"Delta":269646956},{"NoteNumber":81,"Velocity":48,"Duration":326157,"SoundDuration":326157,"Delta":269973114},{"NoteNumber":62,"Velocity":30,"Duration":309849,"SoundDuration":309849,"Delta":269973114},{"NoteNumber":60,"Velocity":25,"Duration":309849,"SoundDuration":309849,"Delta":269973114},{"NoteNumber":78,"Velocity":48,"Duration":347302,"SoundDuration":347302,"Delta":270299272},{"NoteNumber":62,"Velocity":30,"Duration":329937,"SoundDuration":329937,"Delta":270299272},{"NoteNumber":60,"Velocity":25,"Duration":329937,"SoundDuration":329937,"Delta":270299272},{"NoteNumber":79,"Velocity":50,"Duration":326157,"SoundDuration":326157,"Delta":270646574},{"NoteNumber":55,"Velocity":37,"Duration":326157,"SoundDuration":326157,"Delta":270646574},{"NoteNumber":83,"Velocity":52,"Duration":326157,"SoundDuration":326157,"Delta":270972732},{"NoteNumber":62,"Velocity":29,"Duration":309849,"SoundDuration":309849,"Delta":270972732},{"NoteNumber":59,"Velocity":24,"Duration":309849,"SoundDuration":309849,"Delta":270972732},{"NoteNumber":86,"Velocity":58,"Duration":676706,"SoundDuration":676706,"Delta":271298890},{"NoteNumber":62,"Velocity":29,"Duration":309849,"SoundDuration":309849,"Delta":271298890},{"NoteNumber":59,"Velocity":24,"Duration":309849,"SoundDuration":309849,"Delta":271298890},{"NoteNumber":62,"Velocity":29,"Duration":333021,"SoundDuration":333021,"Delta":271625047},{"NoteNumber":59,"Velocity":24,"Duration":333021,"SoundDuration":333021,"Delta":271625047},{"NoteNumber":83,"Velocity":54,"Duration":326157,"SoundDuration":326157,"Delta":271975597},{"NoteNumber":50,"Velocity":36,"Duration":326157,"SoundDuration":326157,"Delta":271975597},{"NoteNumber":81,"Velocity":48,"Duration":320721,"SoundDuration":320721,"Delta":272301754},{"NoteNumber":62,"Velocity":30,"Duration":309849,"SoundDuration":309849,"Delta":272301754},{"NoteNumber":60,"Velocity":25,"Duration":309849,"SoundDuration":309849,"Delta":272301754},{"NoteNumber":81,"Velocity":48,"Duration":326157,"SoundDuration":326157,"Delta":272627912},{"NoteNumber":62,"Velocity":30,"Duration":309849,"SoundDuration":309849,"Delta":272627912},{"NoteNumber":60,"Velocity":25,"Duration":309849,"SoundDuration":309849,"Delta":272627912},{"NoteNumber":78,"Velocity":48,"Duration":360663,"SoundDuration":360663,"Delta":272954070},{"NoteNumber":62,"Velocity":30,"Duration":342630,"SoundDuration":342630,"Delta":272954070},{"NoteNumber":60,"Velocity":25,"Duration":342630,"SoundDuration":342630,"Delta":272954070},{"NoteNumber":67,"Velocity":38,"Duration":340986,"SoundDuration":340986,"Delta":273314733},{"NoteNumber":79,"Velocity":45,"Duration":340986,"SoundDuration":340986,"Delta":273314733},{"NoteNumber":62,"Velocity":33,"Duration":681973,"SoundDuration":681973,"Delta":273314733},{"NoteNumber":59,"Velocity":28,"Duration":681973,"SoundDuration":681973,"Delta":273314733},{"NoteNumber":55,"Velocity":28,"Duration":681973,"SoundDuration":681973,"Delta":273314733},{"NoteNumber":71,"Velocity":39,"Duration":340986,"SoundDuration":340986,"Delta":273655720},{"NoteNumber":83,"Velocity":47,"Duration":340986,"SoundDuration":340986,"Delta":273655720},{"NoteNumber":74,"Velocity":42,"Duration":170493,"SoundDuration":170493,"Delta":273996706},{"NoteNumber":86,"Velocity":50,"Duration":170493,"SoundDuration":170493,"Delta":273996706},{"NoteNumber":50,"Velocity":28,"Duration":716080,"SoundDuration":716080,"Delta":273996706},{"NoteNumber":54,"Velocity":28,"Duration":716080,"SoundDuration":716080,"Delta":273996706},{"NoteNumber":60,"Velocity":34,"Duration":716080,"SoundDuration":716080,"Delta":273996706},{"NoteNumber":74,"Velocity":39,"Duration":187546,"SoundDuration":187546,"Delta":274337693},{"NoteNumber":86,"Velocity":47,"Duration":187546,"SoundDuration":187546,"Delta":274337693},{"NoteNumber":67,"Velocity":32,"Duration":350549,"SoundDuration":350549,"Delta":274712787},{"NoteNumber":79,"Velocity":38,"Duration":350549,"SoundDuration":350549,"Delta":274712787},{"NoteNumber":59,"Velocity":29,"Duration":701098,"SoundDuration":701098,"Delta":274712787},{"NoteNumber":55,"Velocity":24,"Duration":701098,"SoundDuration":701098,"Delta":274712787},{"NoteNumber":71,"Velocity":28,"Duration":350549,"SoundDuration":350549,"Delta":275063336},{"NoteNumber":83,"Velocity":34,"Duration":350549,"SoundDuration":350549,"Delta":275063336},{"NoteNumber":74,"Velocity":32,"Duration":175274,"SoundDuration":175274,"Delta":275413885},{"NoteNumber":86,"Velocity":38,"Duration":175274,"SoundDuration":175274,"Delta":275413885},{"NoteNumber":50,"Velocity":24,"Duration":776806,"SoundDuration":776806,"Delta":275413885},{"NoteNumber":54,"Velocity":24,"Duration":776806,"SoundDuration":776806,"Delta":275413885},{"NoteNumber":60,"Velocity":29,"Duration":776806,"SoundDuration":776806,"Delta":275413885},{"NoteNumber":74,"Velocity":27,"Duration":213128,"SoundDuration":213128,"Delta":275764434},{"NoteNumber":86,"Velocity":32,"Duration":213128,"SoundDuration":213128,"Delta":275764434},{"NoteNumber":74,"Velocity":32,"Duration":1485516,"SoundDuration":1485516,"Delta":276190692},{"NoteNumber":86,"Velocity":38,"Duration":1485516,"SoundDuration":1485516,"Delta":276190692},{"NoteNumber":55,"Velocity":23,"Duration":2228273,"SoundDuration":2228273,"Delta":276190692},{"NoteNumber":59,"Velocity":28,"Duration":2228273,"SoundDuration":2228273,"Delta":276190692},{"NoteNumber":67,"Velocity":26,"Duration":742757,"SoundDuration":742757,"Delta":277676208},{"NoteNumber":79,"Velocity":31,"Duration":742757,"SoundDuration":742757,"Delta":277676208}],"license":{"name":"Creative Commons Attribution-ShareAlike 3.0 Germany","url":"http://creativecommons.org/licenses/by-sa/3.0/de/deed.en","text":"The MIDI, audio (MP3, OGG) and video files of Bernd Krueger are licensed under the cc-by-sa Germany License. This means that you can use and adapt the files, as long as you attribute the copyright holder.\n\nName: Bernd Krueger\nSource: http://www.piano-midi.de\n\nThe distribution or public playback of the files is only allowed under identical license conditions.\n\nThe scores are open source.","attribution":"MIDI files by Bernd Krueger (piano-midi.de)","attributionUrl":"http://www.piano-midi.de"}}