{"title":"Klaviersonate Nr. 11 KV 331 2. Satz","artist":"Mozart","durationMs":365639,"midiSha256":"c4810bd25a0885a54c4b9639779b0e300b10e88147791f3559d5bc8a7e1bd021","midiObject":[{"NoteNumber":61,"Velocity":64,"Duration":66371,"SoundDuration":66371,"Delta":0},{"NoteNumber":64,"Velocity":64,"Duration":66371,"SoundDuration":66371,"Delta":66371},{"NoteNumber":69,"Velocity":76,"Duration":929202,"SoundDuration":929202,"Delta":132743},{"NoteNumber":45,"Velocity":59,"Duration":929202,"SoundDuration":929202,"Delta":132743},{"NoteNumber":57,"Velocity":70,"Duration":929202,"SoundDuration":929202,"Delta":132743},{"NoteNumber":64,"Velocity":70,"Duration":476190,"SoundDuration":476190,"Delta":1061946},{"NoteNumber":40,"Velocity":53,"Duration":476190,"SoundDuration":476190,"Delta":1061946},{"NoteNumber":52,"Velocity":63,"Duration":476190,"SoundDuration":476190,"Delta":1061946},{"NoteNumber":73,"Velocity":72,"Duration":247934,"SoundDuration":247934,"Delta":1538136},{"NoteNumber":49,"Velocity":48,"Duration":480491,"SoundDuration":480491,"Delta":1538136},{"NoteNumber":61,"Velocity":57,"Duration":480491,"SoundDuration":480491,"Delta":1538136},{"NoteNumber":74,"Velocity":74,"Duration":116279,"SoundDuration":116279,"Delta":1786070},{"NoteNumber":71,"Velocity":70,"Duration":116278,"SoundDuration":116278,"Delta":1902349},{"NoteNumber":69,"Velocity":70,"Duration":239999,"SoundDuration":239999,"Delta":2018628},{"NoteNumber":45,"Velocity":45,"Duration":239999,"SoundDuration":239999,"Delta":2018628},{"NoteNumber":57,"Velocity":53,"Duration":239999,"SoundDuration":239999,"Delta":2018628},{"NoteNumber":73,"Velocity":50,"Duration":239999,"SoundDuration":239999,"Delta":2978628},{"NoteNumber":74,"Velocity":52,"Duration":120000,"SoundDuration":120000,"Delta":3218628},{"NoteNumber":71,"Velocity":46,"Duration":120000,"SoundDuration":120000,"Delta":3338628},{"NoteNumber":69,"Velocity":49,"Duration":492101,"SoundDuration":492101,"Delta":3458628},{"NoteNumber":85,"Velocity":57,"Duration":236220,"SoundDuration":236220,"Delta":3950729},{"NoteNumber":57,"Velocity":40,"Duration":236220,"SoundDuration":236220,"Delta":3950729},{"NoteNumber":66,"Velocity":40,"Duration":236220,"SoundDuration":236220,"Delta":3950729},{"NoteNumber":75,"Velocity":50,"Duration":472440,"SoundDuration":472440,"Delta":4432851},{"NoteNumber":59,"Velocity":40,"Duration":472440,"SoundDuration":472440,"Delta":4432851},{"NoteNumber":69,"Velocity":40,"Duration":472440,"SoundDuration":472440,"Delta":4432851},{"NoteNumber":76,"Velocity":52,"Duration":708661,"SoundDuration":708661,"Delta":4905292},{"NoteNumber":64,"Velocity":40,"Duration":472440,"SoundDuration":472440,"Delta":4905292},{"NoteNumber":68,"Velocity":40,"Duration":472440,"SoundDuration":472440,"Delta":4905292},{"NoteNumber":77,"Velocity":51,"Duration":216535,"SoundDuration":216535,"Delta":5613953},{"NoteNumber":80,"Velocity":57,"Duration":232558,"SoundDuration":232558,"Delta":5850174},{"NoteNumber":78,"Velocity":56,"Duration":236220,"SoundDuration":236220,"Delta":6082732},{"NoteNumber":76,"Velocity":54,"Duration":230768,"SoundDuration":230768,"Delta":6318952},{"NoteNumber":74,"Velocity":53,"Duration":234375,"SoundDuration":234375,"Delta":6549721},{"NoteNumber":73,"Velocity":52,"Duration":230768,"SoundDuration":230768,"Delta":6784096},{"NoteNumber":71,"Velocity":51,"Duration":245901,"SoundDuration":245901,"Delta":7014865},{"NoteNumber":69,"Velocity":51,"Duration":236220,"SoundDuration":236220,"Delta":7260766},{"NoteNumber":52,"Velocity":39,"Duration":236220,"SoundDuration":236220,"Delta":7260766},{"NoteNumber":68,"Velocity":46,"Duration":236220,"SoundDuration":236220,"Delta":7496987},{"NoteNumber":62,"Velocity":33,"Duration":236220,"SoundDuration":236220,"Delta":7496987},{"NoteNumber":76,"Velocity":53,"Duration":227272,"SoundDuration":227272,"Delta":7733207},{"NoteNumber":59,"Velocity":33,"Duration":227272,"SoundDuration":227272,"Delta":7733207},{"NoteNumber":74,"Velocity":51,"Duration":230769,"SoundDuration":230769,"Delta":7960480},{"NoteNumber":62,"Velocity":28,"Duration":230769,"SoundDuration":230769,"Delta":7960480},{"NoteNumber":59,"Velocity":31,"Duration":236220,"SoundDuration":236220,"Delta":8191249},{"NoteNumber":62,"Velocity":29,"Duration":236220,"SoundDuration":236220,"Delta":8427470},{"NoteNumber":71,"Velocity":57,"Duration":236220,"SoundDuration":236220,"Delta":8663690},{"NoteNumber":52,"Velocity":40,"Duration":236220,"SoundDuration":236220,"Delta":8663690},{"NoteNumber":69,"Velocity":53,"Duration":236220,"SoundDuration":236220,"Delta":8899911},{"NoteNumber":61,"Velocity":34,"Duration":236220,"SoundDuration":236220,"Delta":8899911},{"NoteNumber":78,"Velocity":57,"Duration":227272,"SoundDuration":227272,"Delta":9136131},{"NoteNumber":57,"Velocity":34,"Duration":227272,"SoundDuration":227272,"Delta":9136131},{"NoteNumber":76,"Velocity":56,"Duration":232557,"SoundDuration":232557,"Delta":9363404},{"NoteNumber":61,"Velocity":30,"Duration":232557,"SoundDuration":232557,"Delta":9363404},{"NoteNumber":57,"Velocity":32,"Duration":232558,"SoundDuration":232558,"Delta":9595961},{"NoteNumber":61,"Velocity":28,"Duration":236220,"SoundDuration":236220,"Delta":9828520},{"NoteNumber":73,"Velocity":63,"Duration":234375,"SoundDuration":234375,"Delta":10064740},{"NoteNumber":50,"Velocity":42,"Duration":234375,"SoundDuration":234375,"Delta":10064740},{"NoteNumber":71,"Velocity":59,"Duration":227272,"SoundDuration":227272,"Delta":10299115},{"NoteNumber":59,"Velocity":36,"Duration":227272,"SoundDuration":227272,"Delta":10299115},{"NoteNumber":79,"Velocity":62,"Duration":229007,"SoundDuration":229007,"Delta":10526387},{"NoteNumber":54,"Velocity":36,"Duration":229007,"SoundDuration":229007,"Delta":10526387},{"NoteNumber":78,"Velocity":59,"Duration":234375,"SoundDuration":234375,"Delta":10755395},{"NoteNumber":59,"Velocity":34,"Duration":234375,"SoundDuration":234375,"Delta":10755395},{"NoteNumber":54,"Velocity":36,"Duration":234375,"SoundDuration":234375,"Delta":10989770},{"NoteNumber":59,"Velocity":34,"Duration":234375,"SoundDuration":234375,"Delta":11224145},{"NoteNumber":66,"Velocity":51,"Duration":468750,"SoundDuration":468750,"Delta":11458520},{"NoteNumber":50,"Velocity":39,"Duration":468750,"SoundDuration":468750,"Delta":11458520},{"NoteNumber":76,"Velocity":53,"Duration":227272,"SoundDuration":227272,"Delta":11927270},{"NoteNumber":74,"Velocity":51,"Duration":230769,"SoundDuration":230769,"Delta":12154542},{"NoteNumber":73,"Velocity":51,"Duration":229007,"SoundDuration":229007,"Delta":12385311},{"NoteNumber":71,"Velocity":49,"Duration":238094,"SoundDuration":238094,"Delta":12614319},{"NoteNumber":69,"Velocity":51,"Duration":234375,"SoundDuration":234375,"Delta":12852414},{"NoteNumber":52,"Velocity":33,"Duration":468750,"SoundDuration":468750,"Delta":12852414},{"NoteNumber":62,"Velocity":39,"Duration":468750,"SoundDuration":468750,"Delta":12852414},{"NoteNumber":68,"Velocity":48,"Duration":234375,"SoundDuration":234375,"Delta":13086789},{"NoteNumber":69,"Velocity":51,"Duration":476190,"SoundDuration":476190,"Delta":13321164},{"NoteNumber":57,"Velocity":33,"Duration":476190,"SoundDuration":476190,"Delta":13321164},{"NoteNumber":61,"Velocity":39,"Duration":476190,"SoundDuration":476190,"Delta":13321164},{"NoteNumber":71,"Velocity":68,"Duration":59523,"SoundDuration":59523,"Delta":14094973},{"NoteNumber":76,"Velocity":71,"Duration":59523,"SoundDuration":59523,"Delta":14154497},{"NoteNumber":80,"Velocity":74,"Duration":59523,"SoundDuration":59523,"Delta":14214020},{"NoteNumber":83,"Velocity":77,"Duration":1406250,"SoundDuration":1406250,"Delta":14273544},{"NoteNumber":52,"Velocity":60,"Duration":234375,"SoundDuration":234375,"Delta":14273544},{"NoteNumber":56,"Velocity":52,"Duration":234375,"SoundDuration":234375,"Delta":14507919},{"NoteNumber":59,"Velocity":56,"Duration":234375,"SoundDuration":234375,"Delta":14742294},{"NoteNumber":56,"Velocity":52,"Duration":234375,"SoundDuration":234375,"Delta":14976669},{"NoteNumber":54,"Velocity":56,"Duration":234375,"SoundDuration":234375,"Delta":15211044},{"NoteNumber":52,"Velocity":51,"Duration":234375,"SoundDuration":234375,"Delta":15445419},{"NoteNumber":83,"Velocity":73,"Duration":115384,"SoundDuration":115384,"Delta":15679794},{"NoteNumber":51,"Velocity":60,"Duration":230769,"SoundDuration":230769,"Delta":15679794},{"NoteNumber":81,"Velocity":72,"Duration":115384,"SoundDuration":115384,"Delta":15795178},{"NoteNumber":80,"Velocity":71,"Duration":115384,"SoundDuration":115384,"Delta":15910563},{"NoteNumber":52,"Velocity":50,"Duration":230768,"SoundDuration":230768,"Delta":15910563},{"NoteNumber":78,"Velocity":70,"Duration":107692,"SoundDuration":107692,"Delta":16025948},{"NoteNumber":78,"Velocity":72,"Duration":115384,"SoundDuration":115384,"Delta":16141332},{"NoteNumber":54,"Velocity":50,"Duration":230769,"SoundDuration":230769,"Delta":16141332},{"NoteNumber":76,"Velocity":71,"Duration":115384,"SoundDuration":115384,"Delta":16256716},{"NoteNumber":75,"Velocity":69,"Duration":115384,"SoundDuration":115384,"Delta":16372101},{"NoteNumber":47,"Velocity":51,"Duration":230768,"SoundDuration":230768,"Delta":16372101},{"NoteNumber":73,"Velocity":68,"Duration":115384,"SoundDuration":115384,"Delta":16487485},{"NoteNumber":71,"Velocity":70,"Duration":117187,"SoundDuration":117187,"Delta":16602870},{"NoteNumber":49,"Velocity":54,"Duration":234375,"SoundDuration":234375,"Delta":16602870},{"NoteNumber":69,"Velocity":67,"Duration":117187,"SoundDuration":117187,"Delta":16720057},{"NoteNumber":68,"Velocity":67,"Duration":119047,"SoundDuration":119047,"Delta":16837245},{"NoteNumber":51,"Velocity":51,"Duration":238095,"SoundDuration":238095,"Delta":16837245},{"NoteNumber":69,"Velocity":67,"Duration":119047,"SoundDuration":119047,"Delta":16956293},{"NoteNumber":68,"Velocity":67,"Duration":116278,"SoundDuration":116278,"Delta":17075340},{"NoteNumber":52,"Velocity":60,"Duration":232558,"SoundDuration":232558,"Delta":17075340},{"NoteNumber":71,"Velocity":69,"Duration":116279,"SoundDuration":116279,"Delta":17191619},{"NoteNumber":76,"Velocity":70,"Duration":116278,"SoundDuration":116278,"Delta":17307898},{"NoteNumber":56,"Velocity":52,"Duration":232557,"SoundDuration":232557,"Delta":17307898},{"NoteNumber":80,"Velocity":72,"Duration":116278,"SoundDuration":116278,"Delta":17424177},{"NoteNumber":83,"Velocity":73,"Duration":916083,"SoundDuration":916083,"Delta":17540456},{"NoteNumber":59,"Velocity":52,"Duration":227272,"SoundDuration":227272,"Delta":17540456},{"NoteNumber":56,"Velocity":52,"Duration":227272,"SoundDuration":227272,"Delta":17767729},{"NoteNumber":54,"Velocity":55,"Duration":230768,"SoundDuration":230768,"Delta":17995001},{"NoteNumber":52,"Velocity":52,"Duration":230769,"SoundDuration":230769,"Delta":18225770},{"NoteNumber":83,"Velocity":73,"Duration":115384,"SoundDuration":115384,"Delta":18456539},{"NoteNumber":51,"Velocity":60,"Duration":230768,"SoundDuration":230768,"Delta":18456539},{"NoteNumber":81,"Velocity":72,"Duration":115384,"SoundDuration":115384,"Delta":18571924},{"NoteNumber":80,"Velocity":71,"Duration":115384,"SoundDuration":115384,"Delta":18687308},{"NoteNumber":52,"Velocity":50,"Duration":230769,"SoundDuration":230769,"Delta":18687308},{"NoteNumber":78,"Velocity":70,"Duration":110576,"SoundDuration":110576,"Delta":18802692},{"NoteNumber":78,"Velocity":72,"Duration":115384,"SoundDuration":115384,"Delta":18918077},{"NoteNumber":54,"Velocity":50,"Duration":230768,"SoundDuration":230768,"Delta":18918077},{"NoteNumber":76,"Velocity":71,"Duration":115384,"SoundDuration":115384,"Delta":19033461},{"NoteNumber":75,"Velocity":69,"Duration":115384,"SoundDuration":115384,"Delta":19148846},{"NoteNumber":47,"Velocity":51,"Duration":230768,"SoundDuration":230768,"Delta":19148846},{"NoteNumber":73,"Velocity":68,"Duration":115384,"SoundDuration":115384,"Delta":19264231},{"NoteNumber":71,"Velocity":70,"Duration":117187,"SoundDuration":117187,"Delta":19379615},{"NoteNumber":49,"Velocity":54,"Duration":234375,"SoundDuration":234375,"Delta":19379615},{"NoteNumber":69,"Velocity":67,"Duration":117187,"SoundDuration":117187,"Delta":19496802},{"NoteNumber":68,"Velocity":67,"Duration":119047,"SoundDuration":119047,"Delta":19613990},{"NoteNumber":51,"Velocity":51,"Duration":238095,"SoundDuration":238095,"Delta":19613990},{"NoteNumber":69,"Velocity":67,"Duration":119047,"SoundDuration":119047,"Delta":19733037},{"NoteNumber":68,"Velocity":67,"Duration":116278,"SoundDuration":116278,"Delta":19852085},{"NoteNumber":52,"Velocity":60,"Duration":461565,"SoundDuration":461565,"Delta":19852085},{"NoteNumber":71,"Velocity":64,"Duration":116279,"SoundDuration":116279,"Delta":19968364},{"NoteNumber":69,"Velocity":70,"Duration":114503,"SoundDuration":114503,"Delta":20084643},{"NoteNumber":68,"Velocity":64,"Duration":114503,"SoundDuration":114503,"Delta":20199147},{"NoteNumber":69,"Velocity":68,"Duration":113686,"SoundDuration":113686,"Delta":20306971},{"NoteNumber":71,"Velocity":68,"Duration":113636,"SoundDuration":113636,"Delta":20427287},{"NoteNumber":73,"Velocity":69,"Duration":113636,"SoundDuration":113636,"Delta":20540923},{"NoteNumber":75,"Velocity":70,"Duration":113636,"SoundDuration":113636,"Delta":20654559},{"NoteNumber":76,"Velocity":70,"Duration":115384,"SoundDuration":115384,"Delta":20768196},{"NoteNumber":78,"Velocity":71,"Duration":115384,"SoundDuration":115384,"Delta":20883580},{"NoteNumber":80,"Velocity":72,"Duration":115384,"SoundDuration":115384,"Delta":20998965},{"NoteNumber":81,"Velocity":72,"Duration":114743,"SoundDuration":114743,"Delta":21114349},{"NoteNumber":83,"Velocity":73,"Duration":113636,"SoundDuration":113636,"Delta":21229092},{"NoteNumber":85,"Velocity":74,"Duration":112810,"SoundDuration":112810,"Delta":21342729},{"NoteNumber":87,"Velocity":74,"Duration":112136,"SoundDuration":112136,"Delta":21455539},{"NoteNumber":88,"Velocity":75,"Duration":111470,"SoundDuration":111470,"Delta":21567676},{"NoteNumber":87,"Velocity":72,"Duration":111111,"SoundDuration":111111,"Delta":21679146},{"NoteNumber":85,"Velocity":70,"Duration":111111,"SoundDuration":111111,"Delta":21790257},{"NoteNumber":83,"Velocity":68,"Duration":111110,"SoundDuration":111110,"Delta":21901368},{"NoteNumber":81,"Velocity":65,"Duration":110516,"SoundDuration":110516,"Delta":22012479},{"NoteNumber":80,"Velocity":63,"Duration":110405,"SoundDuration":110405,"Delta":22122995},{"NoteNumber":78,"Velocity":61,"Duration":112221,"SoundDuration":112221,"Delta":22233401},{"NoteNumber":76,"Velocity":59,"Duration":114246,"SoundDuration":114246,"Delta":22345622},{"NoteNumber":75,"Velocity":57,"Duration":115384,"SoundDuration":115384,"Delta":22459869},{"NoteNumber":73,"Velocity":50,"Duration":232558,"SoundDuration":232558,"Delta":22575253},{"NoteNumber":57,"Velocity":38,"Duration":465115,"SoundDuration":465115,"Delta":22575253},{"NoteNumber":66,"Velocity":45,"Duration":465115,"SoundDuration":465115,"Delta":22575253},{"NoteNumber":85,"Velocity":50,"Duration":116278,"SoundDuration":116278,"Delta":22924090},{"NoteNumber":76,"Velocity":54,"Duration":429957,"SoundDuration":429957,"Delta":23040369},{"NoteNumber":59,"Velocity":33,"Duration":1043314,"SoundDuration":1043314,"Delta":23040369},{"NoteNumber":68,"Velocity":39,"Duration":502773,"SoundDuration":502773,"Delta":23040369},{"NoteNumber":80,"Velocity":50,"Duration":72815,"SoundDuration":72815,"Delta":23470327},{"NoteNumber":75,"Velocity":53,"Duration":540541,"SoundDuration":540541,"Delta":23543143},{"NoteNumber":78,"Velocity":53,"Duration":540541,"SoundDuration":540541,"Delta":23543143},{"NoteNumber":69,"Velocity":39,"Duration":540541,"SoundDuration":540541,"Delta":23543143},{"NoteNumber":76,"Velocity":51,"Duration":540540,"SoundDuration":540540,"Delta":24083684},{"NoteNumber":64,"Velocity":35,"Duration":540540,"SoundDuration":540540,"Delta":24083684},{"NoteNumber":68,"Velocity":42,"Duration":540540,"SoundDuration":540540,"Delta":24083684},{"NoteNumber":52,"Velocity":35,"Duration":540540,"SoundDuration":540540,"Delta":24594945},{"NoteNumber":61,"Velocity":64,"Duration":66371,"SoundDuration":66371,"Delta":25705307},{"NoteNumber":64,"Velocity":64,"Duration":66371,"SoundDuration":66371,"Delta":25771678},{"NoteNumber":69,"Velocity":76,"Duration":929202,"SoundDuration":929202,"Delta":25838050},{"NoteNumber":45,"Velocity":59,"Duration":929202,"SoundDuration":929202,"Delta":25838050},{"NoteNumber":57,"Velocity":70,"Duration":929202,"SoundDuration":929202,"Delta":25838050},{"NoteNumber":64,"Velocity":70,"Duration":476189,"SoundDuration":476189,"Delta":26767253},{"NoteNumber":40,"Velocity":53,"Duration":476189,"SoundDuration":476189,"Delta":26767253},{"NoteNumber":52,"Velocity":63,"Duration":476189,"SoundDuration":476189,"Delta":26767253},{"NoteNumber":73,"Velocity":72,"Duration":247934,"SoundDuration":247934,"Delta":27243443},{"NoteNumber":49,"Velocity":48,"Duration":480492,"SoundDuration":480492,"Delta":27243443},{"NoteNumber":61,"Velocity":57,"Duration":480492,"SoundDuration":480492,"Delta":27243443},{"NoteNumber":74,"Velocity":74,"Duration":116278,"SoundDuration":116278,"Delta":27491377},{"NoteNumber":71,"Velocity":70,"Duration":116279,"SoundDuration":116279,"Delta":27607656},{"NoteNumber":69,"Velocity":70,"Duration":239999,"SoundDuration":239999,"Delta":27723935},{"NoteNumber":45,"Velocity":45,"Duration":239999,"SoundDuration":239999,"Delta":27723935},{"NoteNumber":57,"Velocity":53,"Duration":239999,"SoundDuration":239999,"Delta":27723935},{"NoteNumber":73,"Velocity":50,"Duration":239999,"SoundDuration":239999,"Delta":28683935},{"NoteNumber":74,"Velocity":52,"Duration":120000,"SoundDuration":120000,"Delta":28923935},{"NoteNumber":71,"Velocity":46,"Duration":120000,"SoundDuration":120000,"Delta":29043935},{"NoteNumber":69,"Velocity":49,"Duration":492100,"SoundDuration":492100,"Delta":29163935},{"NoteNumber":85,"Velocity":57,"Duration":236220,"SoundDuration":236220,"Delta":29656036},{"NoteNumber":57,"Velocity":40,"Duration":236220,"SoundDuration":236220,"Delta":29656036},{"NoteNumber":66,"Velocity":40,"Duration":236220,"SoundDuration":236220,"Delta":29656036},{"NoteNumber":75,"Velocity":50,"Duration":472440,"SoundDuration":472440,"Delta":30138158},{"NoteNumber":59,"Velocity":40,"Duration":472440,"SoundDuration":472440,"Delta":30138158},{"NoteNumber":69,"Velocity":40,"Duration":472440,"SoundDuration":472440,"Delta":30138158},{"NoteNumber":76,"Velocity":52,"Duration":708661,"SoundDuration":708661,"Delta":30610599},{"NoteNumber":64,"Velocity":40,"Duration":472440,"SoundDuration":472440,"Delta":30610599},{"NoteNumber":68,"Velocity":40,"Duration":472440,"SoundDuration":472440,"Delta":30610599},{"NoteNumber":77,"Velocity":51,"Duration":216535,"SoundDuration":216535,"Delta":31319260},{"NoteNumber":80,"Velocity":57,"Duration":230768,"SoundDuration":230768,"Delta":31555481},{"NoteNumber":78,"Velocity":56,"Duration":236220,"SoundDuration":236220,"Delta":31786250},{"NoteNumber":76,"Velocity":54,"Duration":232557,"SoundDuration":232557,"Delta":32022470},{"NoteNumber":74,"Velocity":53,"Duration":236220,"SoundDuration":236220,"Delta":32255028},{"NoteNumber":73,"Velocity":52,"Duration":234375,"SoundDuration":234375,"Delta":32491249},{"NoteNumber":71,"Velocity":51,"Duration":245901,"SoundDuration":245901,"Delta":32725624},{"NoteNumber":69,"Velocity":51,"Duration":236220,"SoundDuration":236220,"Delta":32971525},{"NoteNumber":52,"Velocity":39,"Duration":236220,"SoundDuration":236220,"Delta":32971525},{"NoteNumber":68,"Velocity":46,"Duration":236220,"SoundDuration":236220,"Delta":33207746},{"NoteNumber":62,"Velocity":33,"Duration":236220,"SoundDuration":236220,"Delta":33207746},{"NoteNumber":76,"Velocity":53,"Duration":227272,"SoundDuration":227272,"Delta":33443966},{"NoteNumber":59,"Velocity":33,"Duration":227272,"SoundDuration":227272,"Delta":33443966},{"NoteNumber":74,"Velocity":51,"Duration":230769,"SoundDuration":230769,"Delta":33671239},{"NoteNumber":62,"Velocity":28,"Duration":230769,"SoundDuration":230769,"Delta":33671239},{"NoteNumber":59,"Velocity":31,"Duration":236220,"SoundDuration":236220,"Delta":33902008},{"NoteNumber":62,"Velocity":29,"Duration":236220,"SoundDuration":236220,"Delta":34138228},{"NoteNumber":71,"Velocity":57,"Duration":236220,"SoundDuration":236220,"Delta":34374449},{"NoteNumber":52,"Velocity":40,"Duration":236220,"SoundDuration":236220,"Delta":34374449},{"NoteNumber":69,"Velocity":53,"Duration":236220,"SoundDuration":236220,"Delta":34610669},{"NoteNumber":61,"Velocity":34,"Duration":236220,"SoundDuration":236220,"Delta":34610669},{"NoteNumber":78,"Velocity":57,"Duration":227272,"SoundDuration":227272,"Delta":34846890},{"NoteNumber":57,"Velocity":34,"Duration":227272,"SoundDuration":227272,"Delta":34846890},{"NoteNumber":76,"Velocity":56,"Duration":232557,"SoundDuration":232557,"Delta":35074162},{"NoteNumber":61,"Velocity":30,"Duration":232557,"SoundDuration":232557,"Delta":35074162},{"NoteNumber":57,"Velocity":32,"Duration":232558,"SoundDuration":232558,"Delta":35306720},{"NoteNumber":61,"Velocity":28,"Duration":236220,"SoundDuration":236220,"Delta":35539278},{"NoteNumber":73,"Velocity":63,"Duration":234375,"SoundDuration":234375,"Delta":35775499},{"NoteNumber":50,"Velocity":42,"Duration":234375,"SoundDuration":234375,"Delta":35775499},{"NoteNumber":71,"Velocity":59,"Duration":229007,"SoundDuration":229007,"Delta":36009874},{"NoteNumber":59,"Velocity":36,"Duration":229007,"SoundDuration":229007,"Delta":36009874},{"NoteNumber":79,"Velocity":62,"Duration":229007,"SoundDuration":229007,"Delta":36238881},{"NoteNumber":54,"Velocity":36,"Duration":229007,"SoundDuration":229007,"Delta":36238881},{"NoteNumber":78,"Velocity":59,"Duration":234375,"SoundDuration":234375,"Delta":36467889},{"NoteNumber":59,"Velocity":34,"Duration":234375,"SoundDuration":234375,"Delta":36467889},{"NoteNumber":54,"Velocity":36,"Duration":234375,"SoundDuration":234375,"Delta":36702264},{"NoteNumber":59,"Velocity":34,"Duration":234375,"SoundDuration":234375,"Delta":36936639},{"NoteNumber":66,"Velocity":51,"Duration":468750,"SoundDuration":468750,"Delta":37171014},{"NoteNumber":50,"Velocity":39,"Duration":468750,"SoundDuration":468750,"Delta":37171014},{"NoteNumber":76,"Velocity":53,"Duration":227272,"SoundDuration":227272,"Delta":37639764},{"NoteNumber":74,"Velocity":51,"Duration":230769,"SoundDuration":230769,"Delta":37867036},{"NoteNumber":73,"Velocity":51,"Duration":227272,"SoundDuration":227272,"Delta":38097805},{"NoteNumber":71,"Velocity":49,"Duration":238095,"SoundDuration":238095,"Delta":38325078},{"NoteNumber":69,"Velocity":51,"Duration":234375,"SoundDuration":234375,"Delta":38563173},{"NoteNumber":52,"Velocity":33,"Duration":468750,"SoundDuration":468750,"Delta":38563173},{"NoteNumber":62,"Velocity":39,"Duration":468750,"SoundDuration":468750,"Delta":38563173},{"NoteNumber":68,"Velocity":48,"Duration":234375,"SoundDuration":234375,"Delta":38797548},{"NoteNumber":69,"Velocity":51,"Duration":476190,"SoundDuration":476190,"Delta":39031923},{"NoteNumber":57,"Velocity":33,"Duration":476190,"SoundDuration":476190,"Delta":39031923},{"NoteNumber":61,"Velocity":39,"Duration":476190,"SoundDuration":476190,"Delta":39031923},{"NoteNumber":71,"Velocity":68,"Duration":59523,"SoundDuration":59523,"Delta":39805731},{"NoteNumber":76,"Velocity":71,"Duration":59523,"SoundDuration":59523,"Delta":39865255},{"NoteNumber":80,"Velocity":74,"Duration":59523,"SoundDuration":59523,"Delta":39924779},{"NoteNumber":83,"Velocity":77,"Duration":1406250,"SoundDuration":1406250,"Delta":39984303},{"NoteNumber":52,"Velocity":60,"Duration":234375,"SoundDuration":234375,"Delta":39984303},{"NoteNumber":56,"Velocity":52,"Duration":234375,"SoundDuration":234375,"Delta":40218678},{"NoteNumber":59,"Velocity":56,"Duration":234375,"SoundDuration":234375,"Delta":40453053},{"NoteNumber":56,"Velocity":52,"Duration":234375,"SoundDuration":234375,"Delta":40687428},{"NoteNumber":54,"Velocity":56,"Duration":234375,"SoundDuration":234375,"Delta":40921803},{"NoteNumber":52,"Velocity":51,"Duration":234375,"SoundDuration":234375,"Delta":41156178},{"NoteNumber":83,"Velocity":73,"Duration":115384,"SoundDuration":115384,"Delta":41390553},{"NoteNumber":51,"Velocity":60,"Duration":230769,"SoundDuration":230769,"Delta":41390553},{"NoteNumber":81,"Velocity":72,"Duration":115384,"SoundDuration":115384,"Delta":41505937},{"NoteNumber":80,"Velocity":71,"Duration":115384,"SoundDuration":115384,"Delta":41621322},{"NoteNumber":52,"Velocity":50,"Duration":230768,"SoundDuration":230768,"Delta":41621322},{"NoteNumber":78,"Velocity":70,"Duration":115384,"SoundDuration":115384,"Delta":41736706},{"NoteNumber":78,"Velocity":72,"Duration":111538,"SoundDuration":111538,"Delta":41852091},{"NoteNumber":54,"Velocity":50,"Duration":230769,"SoundDuration":230769,"Delta":41852091},{"NoteNumber":76,"Velocity":71,"Duration":115384,"SoundDuration":115384,"Delta":41967475},{"NoteNumber":75,"Velocity":69,"Duration":115384,"SoundDuration":115384,"Delta":42082860},{"NoteNumber":47,"Velocity":51,"Duration":230769,"SoundDuration":230769,"Delta":42082860},{"NoteNumber":73,"Velocity":68,"Duration":115384,"SoundDuration":115384,"Delta":42198244},{"NoteNumber":71,"Velocity":70,"Duration":117187,"SoundDuration":117187,"Delta":42313629},{"NoteNumber":49,"Velocity":54,"Duration":234375,"SoundDuration":234375,"Delta":42313629},{"NoteNumber":69,"Velocity":67,"Duration":117187,"SoundDuration":117187,"Delta":42430816},{"NoteNumber":68,"Velocity":67,"Duration":119047,"SoundDuration":119047,"Delta":42548004},{"NoteNumber":51,"Velocity":51,"Duration":238095,"SoundDuration":238095,"Delta":42548004},{"NoteNumber":69,"Velocity":67,"Duration":119047,"SoundDuration":119047,"Delta":42667051},{"NoteNumber":68,"Velocity":67,"Duration":116278,"SoundDuration":116278,"Delta":42786099},{"NoteNumber":52,"Velocity":60,"Duration":232557,"SoundDuration":232557,"Delta":42786099},{"NoteNumber":71,"Velocity":69,"Duration":116278,"SoundDuration":116278,"Delta":42902378},{"NoteNumber":76,"Velocity":70,"Duration":116279,"SoundDuration":116279,"Delta":43018657},{"NoteNumber":56,"Velocity":52,"Duration":232558,"SoundDuration":232558,"Delta":43018657},{"NoteNumber":80,"Velocity":72,"Duration":116278,"SoundDuration":116278,"Delta":43134936},{"NoteNumber":83,"Velocity":73,"Duration":916083,"SoundDuration":916083,"Delta":43251215},{"NoteNumber":59,"Velocity":52,"Duration":227272,"SoundDuration":227272,"Delta":43251215},{"NoteNumber":56,"Velocity":52,"Duration":227272,"SoundDuration":227272,"Delta":43478487},{"NoteNumber":54,"Velocity":55,"Duration":230769,"SoundDuration":230769,"Delta":43705760},{"NoteNumber":52,"Velocity":52,"Duration":230768,"SoundDuration":230768,"Delta":43936529},{"NoteNumber":83,"Velocity":73,"Duration":115384,"SoundDuration":115384,"Delta":44167298},{"NoteNumber":51,"Velocity":60,"Duration":230769,"SoundDuration":230769,"Delta":44167298},{"NoteNumber":81,"Velocity":72,"Duration":115384,"SoundDuration":115384,"Delta":44282682},{"NoteNumber":80,"Velocity":71,"Duration":115384,"SoundDuration":115384,"Delta":44398067},{"NoteNumber":52,"Velocity":50,"Duration":230768,"SoundDuration":230768,"Delta":44398067},{"NoteNumber":78,"Velocity":70,"Duration":111538,"SoundDuration":111538,"Delta":44513451},{"NoteNumber":78,"Velocity":72,"Duration":115384,"SoundDuration":115384,"Delta":44628836},{"NoteNumber":54,"Velocity":50,"Duration":230769,"SoundDuration":230769,"Delta":44628836},{"NoteNumber":76,"Velocity":71,"Duration":115384,"SoundDuration":115384,"Delta":44744220},{"NoteNumber":75,"Velocity":69,"Duration":115384,"SoundDuration":115384,"Delta":44859605},{"NoteNumber":47,"Velocity":51,"Duration":230769,"SoundDuration":230769,"Delta":44859605},{"NoteNumber":73,"Velocity":68,"Duration":115384,"SoundDuration":115384,"Delta":44974989},{"NoteNumber":71,"Velocity":70,"Duration":117187,"SoundDuration":117187,"Delta":45090374},{"NoteNumber":49,"Velocity":54,"Duration":234375,"SoundDuration":234375,"Delta":45090374},{"NoteNumber":69,"Velocity":67,"Duration":117187,"SoundDuration":117187,"Delta":45207561},{"NoteNumber":68,"Velocity":67,"Duration":119047,"SoundDuration":119047,"Delta":45324749},{"NoteNumber":51,"Velocity":51,"Duration":238095,"SoundDuration":238095,"Delta":45324749},{"NoteNumber":69,"Velocity":67,"Duration":119047,"SoundDuration":119047,"Delta":45443796},{"NoteNumber":68,"Velocity":67,"Duration":116278,"SoundDuration":116278,"Delta":45562844},{"NoteNumber":52,"Velocity":60,"Duration":465116,"SoundDuration":465116,"Delta":45562844},{"NoteNumber":71,"Velocity":64,"Duration":116278,"SoundDuration":116278,"Delta":45679123},{"NoteNumber":69,"Velocity":70,"Duration":116279,"SoundDuration":116279,"Delta":45795402},{"NoteNumber":68,"Velocity":64,"Duration":116278,"SoundDuration":116278,"Delta":45911681},{"NoteNumber":69,"Velocity":68,"Duration":113790,"SoundDuration":113790,"Delta":46021177},{"NoteNumber":71,"Velocity":68,"Duration":113636,"SoundDuration":113636,"Delta":46141596},{"NoteNumber":73,"Velocity":69,"Duration":113636,"SoundDuration":113636,"Delta":46255232},{"NoteNumber":75,"Velocity":70,"Duration":113636,"SoundDuration":113636,"Delta":46368868},{"NoteNumber":76,"Velocity":70,"Duration":115384,"SoundDuration":115384,"Delta":46482505},{"NoteNumber":78,"Velocity":71,"Duration":115384,"SoundDuration":115384,"Delta":46597889},{"NoteNumber":80,"Velocity":72,"Duration":115384,"SoundDuration":115384,"Delta":46713274},{"NoteNumber":81,"Velocity":72,"Duration":114743,"SoundDuration":114743,"Delta":46828658},{"NoteNumber":83,"Velocity":73,"Duration":113636,"SoundDuration":113636,"Delta":46943402},{"NoteNumber":85,"Velocity":74,"Duration":112810,"SoundDuration":112810,"Delta":47057038},{"NoteNumber":87,"Velocity":74,"Duration":112136,"SoundDuration":112136,"Delta":47169848},{"NoteNumber":88,"Velocity":75,"Duration":111470,"SoundDuration":111470,"Delta":47281985},{"NoteNumber":87,"Velocity":72,"Duration":111111,"SoundDuration":111111,"Delta":47393455},{"NoteNumber":85,"Velocity":70,"Duration":111110,"SoundDuration":111110,"Delta":47504566},{"NoteNumber":83,"Velocity":68,"Duration":111111,"SoundDuration":111111,"Delta":47615677},{"NoteNumber":81,"Velocity":65,"Duration":110516,"SoundDuration":110516,"Delta":47726788},{"NoteNumber":80,"Velocity":63,"Duration":110405,"SoundDuration":110405,"Delta":47837305},{"NoteNumber":78,"Velocity":61,"Duration":112221,"SoundDuration":112221,"Delta":47947710},{"NoteNumber":76,"Velocity":59,"Duration":114246,"SoundDuration":114246,"Delta":48059932},{"NoteNumber":75,"Velocity":57,"Duration":115384,"SoundDuration":115384,"Delta":48174178},{"NoteNumber":73,"Velocity":50,"Duration":232557,"SoundDuration":232557,"Delta":48289562},{"NoteNumber":57,"Velocity":38,"Duration":465116,"SoundDuration":465116,"Delta":48289562},{"NoteNumber":66,"Velocity":45,"Duration":465116,"SoundDuration":465116,"Delta":48289562},{"NoteNumber":85,"Velocity":50,"Duration":116278,"SoundDuration":116278,"Delta":48638399},{"NoteNumber":76,"Velocity":54,"Duration":429957,"SoundDuration":429957,"Delta":48754678},{"NoteNumber":59,"Velocity":33,"Duration":1043314,"SoundDuration":1043314,"Delta":48754678},{"NoteNumber":68,"Velocity":39,"Duration":502773,"SoundDuration":502773,"Delta":48754678},{"NoteNumber":80,"Velocity":50,"Duration":72815,"SoundDuration":72815,"Delta":49184636},{"NoteNumber":75,"Velocity":53,"Duration":540540,"SoundDuration":540540,"Delta":49257452},{"NoteNumber":78,"Velocity":53,"Duration":540540,"SoundDuration":540540,"Delta":49257452},{"NoteNumber":69,"Velocity":39,"Duration":540540,"SoundDuration":540540,"Delta":49257452},{"NoteNumber":76,"Velocity":51,"Duration":540541,"SoundDuration":540541,"Delta":49797993},{"NoteNumber":64,"Velocity":35,"Duration":540541,"SoundDuration":540541,"Delta":49797993},{"NoteNumber":68,"Velocity":42,"Duration":540541,"SoundDuration":540541,"Delta":49797993},{"NoteNumber":52,"Velocity":35,"Duration":540541,"SoundDuration":540541,"Delta":50309254},{"NoteNumber":64,"Velocity":61,"Duration":127091,"SoundDuration":127091,"Delta":51352048},{"NoteNumber":76,"Velocity":74,"Duration":416666,"SoundDuration":416666,"Delta":51419616},{"NoteNumber":66,"Velocity":61,"Duration":119047,"SoundDuration":119047,"Delta":51836282},{"NoteNumber":78,"Velocity":70,"Duration":416666,"SoundDuration":416666,"Delta":51895806},{"NoteNumber":67,"Velocity":61,"Duration":119047,"SoundDuration":119047,"Delta":52312472},{"NoteNumber":79,"Velocity":70,"Duration":480030,"SoundDuration":480030,"Delta":52371996},{"NoteNumber":71,"Velocity":56,"Duration":476190,"SoundDuration":476190,"Delta":52852026},{"NoteNumber":54,"Velocity":47,"Duration":238095,"SoundDuration":238095,"Delta":52852026},{"NoteNumber":61,"Velocity":39,"Duration":238095,"SoundDuration":238095,"Delta":53090121},{"NoteNumber":70,"Velocity":52,"Duration":465116,"SoundDuration":465116,"Delta":53328216},{"NoteNumber":66,"Velocity":39,"Duration":232557,"SoundDuration":232557,"Delta":53328216},{"NoteNumber":64,"Velocity":39,"Duration":232558,"SoundDuration":232558,"Delta":53560774},{"NoteNumber":62,"Velocity":39,"Duration":234375,"SoundDuration":234375,"Delta":53793332},{"NoteNumber":61,"Velocity":39,"Duration":241935,"SoundDuration":241935,"Delta":54027707},{"NoteNumber":70,"Velocity":51,"Duration":120967,"SoundDuration":120967,"Delta":54148675},{"NoteNumber":73,"Velocity":57,"Duration":472441,"SoundDuration":472441,"Delta":54269643},{"NoteNumber":54,"Velocity":47,"Duration":236220,"SoundDuration":236220,"Delta":54269643},{"NoteNumber":62,"Velocity":42,"Duration":236220,"SoundDuration":236220,"Delta":54505863},{"NoteNumber":71,"Velocity":56,"Duration":461537,"SoundDuration":461537,"Delta":54742084},{"NoteNumber":66,"Velocity":42,"Duration":230769,"SoundDuration":230769,"Delta":54742084},{"NoteNumber":62,"Velocity":42,"Duration":230768,"SoundDuration":230768,"Delta":54972853},{"NoteNumber":61,"Velocity":42,"Duration":236220,"SoundDuration":236220,"Delta":55203622},{"NoteNumber":59,"Velocity":42,"Duration":236220,"SoundDuration":236220,"Delta":55439842},{"NoteNumber":71,"Velocity":63,"Duration":118110,"SoundDuration":118110,"Delta":55557952},{"NoteNumber":74,"Velocity":66,"Duration":465144,"SoundDuration":465144,"Delta":55676063},{"NoteNumber":54,"Velocity":56,"Duration":230769,"SoundDuration":230769,"Delta":55676063},{"NoteNumber":58,"Velocity":47,"Duration":234375,"SoundDuration":234375,"Delta":55906832},{"NoteNumber":73,"Velocity":60,"Duration":468750,"SoundDuration":468750,"Delta":56141207},{"NoteNumber":64,"Velocity":47,"Duration":234375,"SoundDuration":234375,"Delta":56141207},{"NoteNumber":61,"Velocity":47,"Duration":234375,"SoundDuration":234375,"Delta":56375582},{"NoteNumber":59,"Velocity":47,"Duration":234375,"SoundDuration":234375,"Delta":56609957},{"NoteNumber":58,"Velocity":47,"Duration":234375,"SoundDuration":234375,"Delta":56844332},{"NoteNumber":73,"Velocity":68,"Duration":117187,"SoundDuration":117187,"Delta":56961519},{"NoteNumber":76,"Velocity":72,"Duration":230769,"SoundDuration":230769,"Delta":57078707},{"NoteNumber":59,"Velocity":57,"Duration":468864,"SoundDuration":468864,"Delta":57078707},{"NoteNumber":74,"Velocity":68,"Duration":238095,"SoundDuration":238095,"Delta":57309476},{"NoteNumber":77,"Velocity":72,"Duration":227272,"SoundDuration":227272,"Delta":57547571},{"NoteNumber":76,"Velocity":67,"Duration":236220,"SoundDuration":236220,"Delta":57774843},{"NoteNumber":79,"Velocity":70,"Duration":232557,"SoundDuration":232557,"Delta":58011064},{"NoteNumber":77,"Velocity":66,"Duration":236220,"SoundDuration":236220,"Delta":58243622},{"NoteNumber":69,"Velocity":56,"Duration":472441,"SoundDuration":472441,"Delta":58479842},{"NoteNumber":52,"Velocity":47,"Duration":236220,"SoundDuration":236220,"Delta":58479842},{"NoteNumber":59,"Velocity":39,"Duration":236220,"SoundDuration":236220,"Delta":58716063},{"NoteNumber":68,"Velocity":52,"Duration":465116,"SoundDuration":465116,"Delta":58952283},{"NoteNumber":64,"Velocity":39,"Duration":232557,"SoundDuration":232557,"Delta":58952283},{"NoteNumber":62,"Velocity":39,"Duration":232558,"SoundDuration":232558,"Delta":59184841},{"NoteNumber":60,"Velocity":39,"Duration":234375,"SoundDuration":234375,"Delta":59417399},{"NoteNumber":59,"Velocity":39,"Duration":241935,"SoundDuration":241935,"Delta":59651774},{"NoteNumber":68,"Velocity":51,"Duration":120967,"SoundDuration":120967,"Delta":59772742},{"NoteNumber":71,"Velocity":57,"Duration":472441,"SoundDuration":472441,"Delta":59893710},{"NoteNumber":52,"Velocity":47,"Duration":236220,"SoundDuration":236220,"Delta":59893710},{"NoteNumber":60,"Velocity":42,"Duration":236220,"SoundDuration":236220,"Delta":60129930},{"NoteNumber":69,"Velocity":56,"Duration":461537,"SoundDuration":461537,"Delta":60366151},{"NoteNumber":64,"Velocity":42,"Duration":230769,"SoundDuration":230769,"Delta":60366151},{"NoteNumber":60,"Velocity":42,"Duration":230768,"SoundDuration":230768,"Delta":60596920},{"NoteNumber":59,"Velocity":42,"Duration":236220,"SoundDuration":236220,"Delta":60827689},{"NoteNumber":57,"Velocity":42,"Duration":236220,"SoundDuration":236220,"Delta":61063909},{"NoteNumber":69,"Velocity":63,"Duration":118110,"SoundDuration":118110,"Delta":61182019},{"NoteNumber":72,"Velocity":66,"Duration":468778,"SoundDuration":468778,"Delta":61300130},{"NoteNumber":52,"Velocity":56,"Duration":232557,"SoundDuration":232557,"Delta":61300130},{"NoteNumber":56,"Velocity":47,"Duration":236220,"SoundDuration":236220,"Delta":61532688},{"NoteNumber":71,"Velocity":60,"Duration":472440,"SoundDuration":472440,"Delta":61768908},{"NoteNumber":62,"Velocity":47,"Duration":236220,"SoundDuration":236220,"Delta":61768908},{"NoteNumber":59,"Velocity":47,"Duration":236220,"SoundDuration":236220,"Delta":62005129},{"NoteNumber":57,"Velocity":47,"Duration":236220,"SoundDuration":236220,"Delta":62241349},{"NoteNumber":56,"Velocity":47,"Duration":236220,"SoundDuration":236220,"Delta":62477570},{"NoteNumber":71,"Velocity":68,"Duration":118110,"SoundDuration":118110,"Delta":62595680},{"NoteNumber":74,"Velocity":72,"Duration":230769,"SoundDuration":230769,"Delta":62713790},{"NoteNumber":57,"Velocity":57,"Duration":935853,"SoundDuration":935853,"Delta":62713790},{"NoteNumber":72,"Velocity":68,"Duration":238095,"SoundDuration":238095,"Delta":62944559},{"NoteNumber":71,"Velocity":72,"Duration":230769,"SoundDuration":230769,"Delta":63182654},{"NoteNumber":69,"Velocity":67,"Duration":236220,"SoundDuration":236220,"Delta":63413423},{"NoteNumber":81,"Velocity":73,"Duration":174418,"SoundDuration":174418,"Delta":63649644},{"NoteNumber":43,"Velocity":69,"Duration":468778,"SoundDuration":468778,"Delta":63649644},{"NoteNumber":55,"Velocity":69,"Duration":468778,"SoundDuration":468778,"Delta":63649644},{"NoteNumber":81,"Velocity":70,"Duration":177165,"SoundDuration":177165,"Delta":63882202},{"NoteNumber":83,"Velocity":78,"Duration":236220,"SoundDuration":236220,"Delta":64118422},{"NoteNumber":41,"Velocity":72,"Duration":937556,"SoundDuration":937556,"Delta":64118422},{"NoteNumber":53,"Velocity":72,"Duration":937556,"SoundDuration":937556,"Delta":64118422},{"NoteNumber":81,"Velocity":78,"Duration":236220,"SoundDuration":236220,"Delta":64354643},{"NoteNumber":79,"Velocity":77,"Duration":232557,"SoundDuration":232557,"Delta":64590863},{"NoteNumber":77,"Velocity":75,"Duration":232557,"SoundDuration":232557,"Delta":64823421},{"NoteNumber":76,"Velocity":79,"Duration":236220,"SoundDuration":236220,"Delta":65055979},{"NoteNumber":75,"Velocity":75,"Duration":250000,"SoundDuration":250000,"Delta":65292200},{"NoteNumber":84,"Velocity":81,"Duration":937500,"SoundDuration":937500,"Delta":65542200},{"NoteNumber":57,"Velocity":61,"Duration":234375,"SoundDuration":234375,"Delta":65542200},{"NoteNumber":53,"Velocity":61,"Duration":1425304,"SoundDuration":1425304,"Delta":65542200},{"NoteNumber":56,"Velocity":42,"Duration":234375,"SoundDuration":234375,"Delta":65776575},{"NoteNumber":57,"Velocity":46,"Duration":234375,"SoundDuration":234375,"Delta":66010950},{"NoteNumber":60,"Velocity":41,"Duration":234375,"SoundDuration":234375,"Delta":66245325},{"NoteNumber":75,"Velocity":55,"Duration":487804,"SoundDuration":487804,"Delta":66479700},{"NoteNumber":59,"Velocity":46,"Duration":243902,"SoundDuration":243902,"Delta":66479700},{"NoteNumber":57,"Velocity":41,"Duration":243902,"SoundDuration":243902,"Delta":66723602},{"NoteNumber":76,"Velocity":55,"Duration":703125,"SoundDuration":703125,"Delta":66967505},{"NoteNumber":52,"Velocity":57,"Duration":468750,"SoundDuration":468750,"Delta":66967505},{"NoteNumber":56,"Velocity":57,"Duration":468750,"SoundDuration":468750,"Delta":66967505},{"NoteNumber":78,"Velocity":57,"Duration":120967,"SoundDuration":120967,"Delta":67670630},{"NoteNumber":76,"Velocity":46,"Duration":90725,"SoundDuration":90725,"Delta":67791597},{"NoteNumber":76,"Velocity":55,"Duration":120967,"SoundDuration":120967,"Delta":67912565},{"NoteNumber":74,"Velocity":53,"Duration":120967,"SoundDuration":120967,"Delta":68033533},{"NoteNumber":73,"Velocity":52,"Duration":120967,"SoundDuration":120967,"Delta":68154501},{"NoteNumber":71,"Velocity":51,"Duration":130434,"SoundDuration":130434,"Delta":68275468},{"NoteNumber":61,"Velocity":64,"Duration":66371,"SoundDuration":66371,"Delta":68405903},{"NoteNumber":64,"Velocity":64,"Duration":66371,"SoundDuration":66371,"Delta":68472275},{"NoteNumber":69,"Velocity":76,"Duration":929202,"SoundDuration":929202,"Delta":68538646},{"NoteNumber":45,"Velocity":59,"Duration":929202,"SoundDuration":929202,"Delta":68538646},{"NoteNumber":57,"Velocity":70,"Duration":929202,"SoundDuration":929202,"Delta":68538646},{"NoteNumber":64,"Velocity":70,"Duration":476190,"SoundDuration":476190,"Delta":69467849},{"NoteNumber":40,"Velocity":53,"Duration":476190,"SoundDuration":476190,"Delta":69467849},{"NoteNumber":52,"Velocity":63,"Duration":476190,"SoundDuration":476190,"Delta":69467849},{"NoteNumber":73,"Velocity":72,"Duration":247934,"SoundDuration":247934,"Delta":69944039},{"NoteNumber":49,"Velocity":48,"Duration":480491,"SoundDuration":480491,"Delta":69944039},{"NoteNumber":61,"Velocity":57,"Duration":480491,"SoundDuration":480491,"Delta":69944039},{"NoteNumber":74,"Velocity":74,"Duration":116279,"SoundDuration":116279,"Delta":70191973},{"NoteNumber":71,"Velocity":70,"Duration":116278,"SoundDuration":116278,"Delta":70308252},{"NoteNumber":69,"Velocity":70,"Duration":239999,"SoundDuration":239999,"Delta":70424531},{"NoteNumber":45,"Velocity":45,"Duration":239999,"SoundDuration":239999,"Delta":70424531},{"NoteNumber":57,"Velocity":53,"Duration":239999,"SoundDuration":239999,"Delta":70424531},{"NoteNumber":73,"Velocity":50,"Duration":240000,"SoundDuration":240000,"Delta":71384531},{"NoteNumber":74,"Velocity":52,"Duration":119999,"SoundDuration":119999,"Delta":71624531},{"NoteNumber":71,"Velocity":46,"Duration":120000,"SoundDuration":120000,"Delta":71744531},{"NoteNumber":69,"Velocity":49,"Duration":492101,"SoundDuration":492101,"Delta":71864531},{"NoteNumber":85,"Velocity":57,"Duration":236220,"SoundDuration":236220,"Delta":72356632},{"NoteNumber":57,"Velocity":40,"Duration":236220,"SoundDuration":236220,"Delta":72356632},{"NoteNumber":66,"Velocity":40,"Duration":236220,"SoundDuration":236220,"Delta":72356632},{"NoteNumber":75,"Velocity":50,"Duration":472441,"SoundDuration":472441,"Delta":72838754},{"NoteNumber":59,"Velocity":40,"Duration":472441,"SoundDuration":472441,"Delta":72838754},{"NoteNumber":69,"Velocity":40,"Duration":472441,"SoundDuration":472441,"Delta":72838754},{"NoteNumber":76,"Velocity":52,"Duration":708661,"SoundDuration":708661,"Delta":73311195},{"NoteNumber":64,"Velocity":40,"Duration":472441,"SoundDuration":472441,"Delta":73311195},{"NoteNumber":68,"Velocity":40,"Duration":472441,"SoundDuration":472441,"Delta":73311195},{"NoteNumber":77,"Velocity":51,"Duration":216535,"SoundDuration":216535,"Delta":74019857},{"NoteNumber":80,"Velocity":57,"Duration":229007,"SoundDuration":229007,"Delta":74256077},{"NoteNumber":78,"Velocity":56,"Duration":236220,"SoundDuration":236220,"Delta":74485085},{"NoteNumber":76,"Velocity":54,"Duration":230768,"SoundDuration":230768,"Delta":74721305},{"NoteNumber":74,"Velocity":53,"Duration":236220,"SoundDuration":236220,"Delta":74952074},{"NoteNumber":73,"Velocity":52,"Duration":232557,"SoundDuration":232557,"Delta":75188295},{"NoteNumber":71,"Velocity":51,"Duration":245901,"SoundDuration":245901,"Delta":75420853},{"NoteNumber":69,"Velocity":51,"Duration":236220,"SoundDuration":236220,"Delta":75666754},{"NoteNumber":52,"Velocity":39,"Duration":236220,"SoundDuration":236220,"Delta":75666754},{"NoteNumber":68,"Velocity":46,"Duration":230768,"SoundDuration":230768,"Delta":75902975},{"NoteNumber":62,"Velocity":33,"Duration":230768,"SoundDuration":230768,"Delta":75902975},{"NoteNumber":76,"Velocity":53,"Duration":227272,"SoundDuration":227272,"Delta":76133744},{"NoteNumber":59,"Velocity":33,"Duration":227272,"SoundDuration":227272,"Delta":76133744},{"NoteNumber":74,"Velocity":51,"Duration":230768,"SoundDuration":230768,"Delta":76361016},{"NoteNumber":62,"Velocity":28,"Duration":230768,"SoundDuration":230768,"Delta":76361016},{"NoteNumber":59,"Velocity":31,"Duration":236220,"SoundDuration":236220,"Delta":76591785},{"NoteNumber":62,"Velocity":29,"Duration":236220,"SoundDuration":236220,"Delta":76828006},{"NoteNumber":71,"Velocity":57,"Duration":236220,"SoundDuration":236220,"Delta":77064226},{"NoteNumber":52,"Velocity":40,"Duration":236220,"SoundDuration":236220,"Delta":77064226},{"NoteNumber":69,"Velocity":53,"Duration":232557,"SoundDuration":232557,"Delta":77300447},{"NoteNumber":61,"Velocity":34,"Duration":232557,"SoundDuration":232557,"Delta":77300447},{"NoteNumber":78,"Velocity":57,"Duration":227272,"SoundDuration":227272,"Delta":77533005},{"NoteNumber":57,"Velocity":34,"Duration":227272,"SoundDuration":227272,"Delta":77533005},{"NoteNumber":76,"Velocity":56,"Duration":232557,"SoundDuration":232557,"Delta":77760277},{"NoteNumber":61,"Velocity":30,"Duration":232557,"SoundDuration":232557,"Delta":77760277},{"NoteNumber":57,"Velocity":32,"Duration":232557,"SoundDuration":232557,"Delta":77992835},{"NoteNumber":61,"Velocity":28,"Duration":236220,"SoundDuration":236220,"Delta":78225393},{"NoteNumber":71,"Velocity":63,"Duration":234375,"SoundDuration":234375,"Delta":78461614},{"NoteNumber":52,"Velocity":42,"Duration":234375,"SoundDuration":234375,"Delta":78461614},{"NoteNumber":69,"Velocity":59,"Duration":243902,"SoundDuration":243902,"Delta":78695989},{"NoteNumber":61,"Velocity":36,"Duration":243902,"SoundDuration":243902,"Delta":78695989},{"NoteNumber":81,"Velocity":62,"Duration":229007,"SoundDuration":229007,"Delta":78939891},{"NoteNumber":57,"Velocity":36,"Duration":229007,"SoundDuration":229007,"Delta":78939891},{"NoteNumber":79,"Velocity":59,"Duration":234375,"SoundDuration":234375,"Delta":79168899},{"NoteNumber":61,"Velocity":34,"Duration":234375,"SoundDuration":234375,"Delta":79168899},{"NoteNumber":57,"Velocity":36,"Duration":234375,"SoundDuration":234375,"Delta":79403274},{"NoteNumber":61,"Velocity":34,"Duration":234375,"SoundDuration":234375,"Delta":79637649},{"NoteNumber":79,"Velocity":55,"Duration":232557,"SoundDuration":232557,"Delta":79872024},{"NoteNumber":50,"Velocity":28,"Duration":468778,"SoundDuration":468778,"Delta":79872024},{"NoteNumber":57,"Velocity":28,"Duration":468778,"SoundDuration":468778,"Delta":79872024},{"NoteNumber":62,"Velocity":34,"Duration":468778,"SoundDuration":468778,"Delta":79872024},{"NoteNumber":78,"Velocity":52,"Duration":236220,"SoundDuration":236220,"Delta":80104582},{"NoteNumber":76,"Velocity":51,"Duration":236220,"SoundDuration":236220,"Delta":80340802},{"NoteNumber":74,"Velocity":50,"Duration":236220,"SoundDuration":236220,"Delta":80577023},{"NoteNumber":73,"Velocity":49,"Duration":236220,"SoundDuration":236220,"Delta":80813243},{"NoteNumber":71,"Velocity":47,"Duration":245901,"SoundDuration":245901,"Delta":81049464},{"NoteNumber":76,"Velocity":49,"Duration":122950,"SoundDuration":122950,"Delta":81295365},{"NoteNumber":49,"Velocity":40,"Duration":355508,"SoundDuration":355508,"Delta":81295365},{"NoteNumber":78,"Velocity":45,"Duration":38759,"SoundDuration":38759,"Delta":81418316},{"NoteNumber":76,"Velocity":45,"Duration":38759,"SoundDuration":38759,"Delta":81457076},{"NoteNumber":74,"Velocity":45,"Duration":38759,"SoundDuration":38759,"Delta":81495835},{"NoteNumber":76,"Velocity":51,"Duration":116278,"SoundDuration":116278,"Delta":81534595},{"NoteNumber":78,"Velocity":52,"Duration":137614,"SoundDuration":137614,"Delta":81650874},{"NoteNumber":50,"Velocity":33,"Duration":137614,"SoundDuration":137614,"Delta":81650874},{"NoteNumber":69,"Velocity":51,"Duration":487804,"SoundDuration":487804,"Delta":81788489},{"NoteNumber":52,"Velocity":38,"Duration":971254,"SoundDuration":971254,"Delta":81788489},{"NoteNumber":61,"Velocity":38,"Duration":487804,"SoundDuration":487804,"Delta":81788489},{"NoteNumber":68,"Velocity":48,"Duration":483449,"SoundDuration":483449,"Delta":82276294},{"NoteNumber":59,"Velocity":32,"Duration":483449,"SoundDuration":483449,"Delta":82276294},{"NoteNumber":69,"Velocity":66,"Duration":59523,"SoundDuration":59523,"Delta":82640696},{"NoteNumber":73,"Velocity":67,"Duration":59523,"SoundDuration":59523,"Delta":82700219},{"NoteNumber":76,"Velocity":67,"Duration":463382,"SoundDuration":463382,"Delta":82759743},{"NoteNumber":57,"Velocity":54,"Duration":229007,"SoundDuration":229007,"Delta":82759743},{"NoteNumber":61,"Velocity":46,"Duration":234375,"SoundDuration":234375,"Delta":82988751},{"NoteNumber":76,"Velocity":69,"Duration":933865,"SoundDuration":933865,"Delta":83223126},{"NoteNumber":64,"Velocity":50,"Duration":234375,"SoundDuration":234375,"Delta":83223126},{"NoteNumber":61,"Velocity":46,"Duration":234375,"SoundDuration":234375,"Delta":83457501},{"NoteNumber":59,"Velocity":50,"Duration":232557,"SoundDuration":232557,"Delta":83691876},{"NoteNumber":57,"Velocity":45,"Duration":232557,"SoundDuration":232557,"Delta":83924434},{"NoteNumber":76,"Velocity":65,"Duration":115384,"SoundDuration":115384,"Delta":84156992},{"NoteNumber":56,"Velocity":54,"Duration":230768,"SoundDuration":230768,"Delta":84156992},{"NoteNumber":74,"Velocity":64,"Duration":115384,"SoundDuration":115384,"Delta":84272376},{"NoteNumber":73,"Velocity":63,"Duration":115384,"SoundDuration":115384,"Delta":84387761},{"NoteNumber":57,"Velocity":45,"Duration":230769,"SoundDuration":230769,"Delta":84387761},{"NoteNumber":71,"Velocity":63,"Duration":104807,"SoundDuration":104807,"Delta":84503145},{"NoteNumber":71,"Velocity":64,"Duration":115384,"SoundDuration":115384,"Delta":84618530},{"NoteNumber":59,"Velocity":45,"Duration":230768,"SoundDuration":230768,"Delta":84618530},{"NoteNumber":69,"Velocity":63,"Duration":115384,"SoundDuration":115384,"Delta":84733914},{"NoteNumber":68,"Velocity":62,"Duration":115384,"SoundDuration":115384,"Delta":84849299},{"NoteNumber":52,"Velocity":45,"Duration":230768,"SoundDuration":230768,"Delta":84849299},{"NoteNumber":66,"Velocity":61,"Duration":115384,"SoundDuration":115384,"Delta":84964683},{"NoteNumber":64,"Velocity":63,"Duration":117187,"SoundDuration":117187,"Delta":85080068},{"NoteNumber":54,"Velocity":48,"Duration":234375,"SoundDuration":234375,"Delta":85080068},{"NoteNumber":62,"Velocity":60,"Duration":117187,"SoundDuration":117187,"Delta":85197255},{"NoteNumber":61,"Velocity":60,"Duration":119047,"SoundDuration":119047,"Delta":85314443},{"NoteNumber":56,"Velocity":45,"Duration":238095,"SoundDuration":238095,"Delta":85314443},{"NoteNumber":62,"Velocity":60,"Duration":119047,"SoundDuration":119047,"Delta":85433490},{"NoteNumber":61,"Velocity":60,"Duration":116279,"SoundDuration":116279,"Delta":85552538},{"NoteNumber":57,"Velocity":54,"Duration":232557,"SoundDuration":232557,"Delta":85552538},{"NoteNumber":64,"Velocity":62,"Duration":116278,"SoundDuration":116278,"Delta":85668817},{"NoteNumber":69,"Velocity":63,"Duration":116279,"SoundDuration":116279,"Delta":85785096},{"NoteNumber":61,"Velocity":46,"Duration":232557,"SoundDuration":232557,"Delta":85785096},{"NoteNumber":73,"Velocity":64,"Duration":116278,"SoundDuration":116278,"Delta":85901375},{"NoteNumber":76,"Velocity":65,"Duration":685313,"SoundDuration":685313,"Delta":86017654},{"NoteNumber":64,"Velocity":46,"Duration":227272,"SoundDuration":227272,"Delta":86017654},{"NoteNumber":61,"Velocity":46,"Duration":227272,"SoundDuration":227272,"Delta":86244926},{"NoteNumber":59,"Velocity":49,"Duration":230768,"SoundDuration":230768,"Delta":86472199},{"NoteNumber":88,"Velocity":65,"Duration":226922,"SoundDuration":226922,"Delta":86702968},{"NoteNumber":57,"Velocity":46,"Duration":230769,"SoundDuration":230769,"Delta":86702968},{"NoteNumber":88,"Velocity":70,"Duration":115384,"SoundDuration":115384,"Delta":86933737},{"NoteNumber":56,"Velocity":52,"Duration":230768,"SoundDuration":230768,"Delta":86933737},{"NoteNumber":86,"Velocity":70,"Duration":115384,"SoundDuration":115384,"Delta":87049121},{"NoteNumber":85,"Velocity":69,"Duration":115384,"SoundDuration":115384,"Delta":87164506},{"NoteNumber":57,"Velocity":44,"Duration":230769,"SoundDuration":230769,"Delta":87164506},{"NoteNumber":83,"Velocity":69,"Duration":110576,"SoundDuration":110576,"Delta":87279890},{"NoteNumber":83,"Velocity":68,"Duration":115384,"SoundDuration":115384,"Delta":87395275},{"NoteNumber":59,"Velocity":51,"Duration":230768,"SoundDuration":230768,"Delta":87395275},{"NoteNumber":81,"Velocity":67,"Duration":115384,"SoundDuration":115384,"Delta":87510659},{"NoteNumber":80,"Velocity":67,"Duration":115384,"SoundDuration":115384,"Delta":87626044},{"NoteNumber":52,"Velocity":44,"Duration":230768,"SoundDuration":230768,"Delta":87626044},{"NoteNumber":78,"Velocity":66,"Duration":115384,"SoundDuration":115384,"Delta":87741428},{"NoteNumber":76,"Velocity":66,"Duration":117187,"SoundDuration":117187,"Delta":87856813},{"NoteNumber":54,"Velocity":50,"Duration":234375,"SoundDuration":234375,"Delta":87856813},{"NoteNumber":74,"Velocity":65,"Duration":117187,"SoundDuration":117187,"Delta":87974000},{"NoteNumber":73,"Velocity":65,"Duration":119047,"SoundDuration":119047,"Delta":88091188},{"NoteNumber":56,"Velocity":46,"Duration":238095,"SoundDuration":238095,"Delta":88091188},{"NoteNumber":74,"Velocity":64,"Duration":119047,"SoundDuration":119047,"Delta":88210235},{"NoteNumber":73,"Velocity":63,"Duration":116279,"SoundDuration":116279,"Delta":88329283},{"NoteNumber":57,"Velocity":51,"Duration":463326,"SoundDuration":463326,"Delta":88329283},{"NoteNumber":76,"Velocity":64,"Duration":116278,"SoundDuration":116278,"Delta":88445562},{"NoteNumber":74,"Velocity":60,"Duration":115384,"SoundDuration":115384,"Delta":88561841},{"NoteNumber":73,"Velocity":61,"Duration":115384,"SoundDuration":115384,"Delta":88677225},{"NoteNumber":74,"Velocity":62,"Duration":113636,"SoundDuration":113636,"Delta":88792610},{"NoteNumber":54,"Velocity":40,"Duration":454544,"SoundDuration":454544,"Delta":88792610},{"NoteNumber":57,"Velocity":48,"Duration":454544,"SoundDuration":454544,"Delta":88792610},{"NoteNumber":76,"Velocity":63,"Duration":113636,"SoundDuration":113636,"Delta":88906246},{"NoteNumber":78,"Velocity":64,"Duration":113636,"SoundDuration":113636,"Delta":89019882},{"NoteNumber":80,"Velocity":66,"Duration":113636,"SoundDuration":113636,"Delta":89133518},{"NoteNumber":81,"Velocity":67,"Duration":115384,"SoundDuration":115384,"Delta":89247155},{"NoteNumber":50,"Velocity":44,"Duration":460896,"SoundDuration":460896,"Delta":89247155},{"NoteNumber":54,"Velocity":44,"Duration":460896,"SoundDuration":460896,"Delta":89247155},{"NoteNumber":57,"Velocity":52,"Duration":460896,"SoundDuration":460896,"Delta":89247155},{"NoteNumber":83,"Velocity":68,"Duration":115384,"SoundDuration":115384,"Delta":89362539},{"NoteNumber":85,"Velocity":70,"Duration":115384,"SoundDuration":115384,"Delta":89477924},{"NoteNumber":86,"Velocity":71,"Duration":114743,"SoundDuration":114743,"Delta":89593308},{"NoteNumber":88,"Velocity":72,"Duration":113636,"SoundDuration":113636,"Delta":89708052},{"NoteNumber":49,"Velocity":47,"Duration":450053,"SoundDuration":450053,"Delta":89708052},{"NoteNumber":52,"Velocity":47,"Duration":450053,"SoundDuration":450053,"Delta":89708052},{"NoteNumber":57,"Velocity":56,"Duration":450053,"SoundDuration":450053,"Delta":89708052},{"NoteNumber":86,"Velocity":71,"Duration":112810,"SoundDuration":112810,"Delta":89821688},{"NoteNumber":85,"Velocity":69,"Duration":112136,"SoundDuration":112136,"Delta":89934498},{"NoteNumber":83,"Velocity":68,"Duration":111470,"SoundDuration":111470,"Delta":90046635},{"NoteNumber":81,"Velocity":66,"Duration":111110,"SoundDuration":111110,"Delta":90158105},{"NoteNumber":80,"Velocity":65,"Duration":111111,"SoundDuration":111111,"Delta":90269216},{"NoteNumber":78,"Velocity":63,"Duration":111110,"SoundDuration":111110,"Delta":90380327},{"NoteNumber":76,"Velocity":62,"Duration":110516,"SoundDuration":110516,"Delta":90491438},{"NoteNumber":74,"Velocity":60,"Duration":110405,"SoundDuration":110405,"Delta":90601955},{"NoteNumber":73,"Velocity":59,"Duration":112221,"SoundDuration":112221,"Delta":90712360},{"NoteNumber":71,"Velocity":57,"Duration":114246,"SoundDuration":114246,"Delta":90824582},{"NoteNumber":69,"Velocity":56,"Duration":136363,"SoundDuration":136363,"Delta":90938828},{"NoteNumber":78,"Velocity":59,"Duration":82644,"SoundDuration":82644,"Delta":91075191},{"NoteNumber":50,"Velocity":38,"Duration":495868,"SoundDuration":495868,"Delta":91075191},{"NoteNumber":59,"Velocity":45,"Duration":495868,"SoundDuration":495868,"Delta":91075191},{"NoteNumber":80,"Velocity":55,"Duration":82644,"SoundDuration":82644,"Delta":91157836},{"NoteNumber":78,"Velocity":59,"Duration":82644,"SoundDuration":82644,"Delta":91240481},{"NoteNumber":77,"Velocity":59,"Duration":61983,"SoundDuration":61983,"Delta":91323125},{"NoteNumber":78,"Velocity":55,"Duration":61983,"SoundDuration":61983,"Delta":91385109},{"NoteNumber":80,"Velocity":55,"Duration":61983,"SoundDuration":61983,"Delta":91447092},{"NoteNumber":81,"Velocity":55,"Duration":61983,"SoundDuration":61983,"Delta":91509076},{"NoteNumber":69,"Velocity":59,"Duration":454171,"SoundDuration":454171,"Delta":91571059},{"NoteNumber":52,"Velocity":33,"Duration":1035462,"SoundDuration":1035462,"Delta":91571059},{"NoteNumber":61,"Velocity":39,"Duration":526987,"SoundDuration":526987,"Delta":91571059},{"NoteNumber":73,"Velocity":50,"Duration":72815,"SoundDuration":72815,"Delta":92025231},{"NoteNumber":68,"Velocity":53,"Duration":508475,"SoundDuration":508475,"Delta":92098047},{"NoteNumber":71,"Velocity":53,"Duration":508475,"SoundDuration":508475,"Delta":92098047},{"NoteNumber":62,"Velocity":39,"Duration":508475,"SoundDuration":508475,"Delta":92098047},{"NoteNumber":69,"Velocity":51,"Duration":550459,"SoundDuration":550459,"Delta":92606522},{"NoteNumber":57,"Velocity":35,"Duration":550459,"SoundDuration":550459,"Delta":92606522},{"NoteNumber":61,"Velocity":42,"Duration":550459,"SoundDuration":550459,"Delta":92606522},{"NoteNumber":45,"Velocity":35,"Duration":550458,"SoundDuration":550458,"Delta":93156981},{"NoteNumber":64,"Velocity":61,"Duration":127091,"SoundDuration":127091,"Delta":94189091},{"NoteNumber":76,"Velocity":74,"Duration":416666,"SoundDuration":416666,"Delta":94256659},{"NoteNumber":66,"Velocity":61,"Duration":118117,"SoundDuration":118117,"Delta":94673325},{"NoteNumber":78,"Velocity":70,"Duration":410156,"SoundDuration":410156,"Delta":94732849},{"NoteNumber":67,"Velocity":61,"Duration":117648,"SoundDuration":117648,"Delta":95143005},{"NoteNumber":79,"Velocity":70,"Duration":482122,"SoundDuration":482122,"Delta":95201599},{"NoteNumber":71,"Velocity":56,"Duration":472441,"SoundDuration":472441,"Delta":95683721},{"NoteNumber":54,"Velocity":47,"Duration":236220,"SoundDuration":236220,"Delta":95683721},{"NoteNumber":61,"Velocity":39,"Duration":236220,"SoundDuration":236220,"Delta":95919941},{"NoteNumber":70,"Velocity":52,"Duration":465115,"SoundDuration":465115,"Delta":96156162},{"NoteNumber":66,"Velocity":39,"Duration":232557,"SoundDuration":232557,"Delta":96156162},{"NoteNumber":64,"Velocity":39,"Duration":232557,"SoundDuration":232557,"Delta":96388720},{"NoteNumber":62,"Velocity":39,"Duration":234375,"SoundDuration":234375,"Delta":96621278},{"NoteNumber":61,"Velocity":39,"Duration":241935,"SoundDuration":241935,"Delta":96855653},{"NoteNumber":70,"Velocity":51,"Duration":120967,"SoundDuration":120967,"Delta":96976621},{"NoteNumber":73,"Velocity":57,"Duration":472441,"SoundDuration":472441,"Delta":97097588},{"NoteNumber":54,"Velocity":47,"Duration":236220,"SoundDuration":236220,"Delta":97097588},{"NoteNumber":62,"Velocity":42,"Duration":236220,"SoundDuration":236220,"Delta":97333809},{"NoteNumber":71,"Velocity":56,"Duration":461538,"SoundDuration":461538,"Delta":97570029},{"NoteNumber":66,"Velocity":42,"Duration":230768,"SoundDuration":230768,"Delta":97570029},{"NoteNumber":62,"Velocity":42,"Duration":230769,"SoundDuration":230769,"Delta":97800798},{"NoteNumber":61,"Velocity":42,"Duration":236220,"SoundDuration":236220,"Delta":98031567},{"NoteNumber":59,"Velocity":42,"Duration":236220,"SoundDuration":236220,"Delta":98267788},{"NoteNumber":71,"Velocity":63,"Duration":118110,"SoundDuration":118110,"Delta":98385898},{"NoteNumber":74,"Velocity":66,"Duration":465227,"SoundDuration":465227,"Delta":98504008},{"NoteNumber":54,"Velocity":56,"Duration":229007,"SoundDuration":229007,"Delta":98504008},{"NoteNumber":58,"Velocity":47,"Duration":236220,"SoundDuration":236220,"Delta":98733016},{"NoteNumber":73,"Velocity":60,"Duration":472441,"SoundDuration":472441,"Delta":98969236},{"NoteNumber":64,"Velocity":47,"Duration":236220,"SoundDuration":236220,"Delta":98969236},{"NoteNumber":61,"Velocity":47,"Duration":236220,"SoundDuration":236220,"Delta":99205457},{"NoteNumber":59,"Velocity":47,"Duration":236220,"SoundDuration":236220,"Delta":99441677},{"NoteNumber":58,"Velocity":47,"Duration":236220,"SoundDuration":236220,"Delta":99677898},{"NoteNumber":73,"Velocity":68,"Duration":118110,"SoundDuration":118110,"Delta":99796008},{"NoteNumber":76,"Velocity":72,"Duration":227272,"SoundDuration":227272,"Delta":99914118},{"NoteNumber":59,"Velocity":57,"Duration":465367,"SoundDuration":465367,"Delta":99914118},{"NoteNumber":74,"Velocity":68,"Duration":238095,"SoundDuration":238095,"Delta":100141391},{"NoteNumber":77,"Velocity":72,"Duration":230768,"SoundDuration":230768,"Delta":100379486},{"NoteNumber":76,"Velocity":67,"Duration":236220,"SoundDuration":236220,"Delta":100610255},{"NoteNumber":79,"Velocity":70,"Duration":232557,"SoundDuration":232557,"Delta":100846475},{"NoteNumber":77,"Velocity":66,"Duration":236220,"SoundDuration":236220,"Delta":101079033},{"NoteNumber":69,"Velocity":56,"Duration":466989,"SoundDuration":466989,"Delta":101315254},{"NoteNumber":52,"Velocity":47,"Duration":230768,"SoundDuration":230768,"Delta":101315254},{"NoteNumber":59,"Velocity":39,"Duration":236220,"SoundDuration":236220,"Delta":101546023},{"NoteNumber":68,"Velocity":52,"Duration":459776,"SoundDuration":459776,"Delta":101782243},{"NoteNumber":64,"Velocity":39,"Duration":229007,"SoundDuration":229007,"Delta":101782243},{"NoteNumber":62,"Velocity":39,"Duration":230768,"SoundDuration":230768,"Delta":102011251},{"NoteNumber":60,"Velocity":39,"Duration":234375,"SoundDuration":234375,"Delta":102242020},{"NoteNumber":59,"Velocity":39,"Duration":241935,"SoundDuration":241935,"Delta":102476395},{"NoteNumber":68,"Velocity":51,"Duration":120967,"SoundDuration":120967,"Delta":102597363},{"NoteNumber":71,"Velocity":57,"Duration":472441,"SoundDuration":472441,"Delta":102718330},{"NoteNumber":52,"Velocity":47,"Duration":236220,"SoundDuration":236220,"Delta":102718330},{"NoteNumber":60,"Velocity":42,"Duration":236220,"SoundDuration":236220,"Delta":102954551},{"NoteNumber":69,"Velocity":56,"Duration":461538,"SoundDuration":461538,"Delta":103190771},{"NoteNumber":64,"Velocity":42,"Duration":230768,"SoundDuration":230768,"Delta":103190771},{"NoteNumber":60,"Velocity":42,"Duration":230769,"SoundDuration":230769,"Delta":103421540},{"NoteNumber":59,"Velocity":42,"Duration":236220,"SoundDuration":236220,"Delta":103652309},{"NoteNumber":57,"Velocity":42,"Duration":236220,"SoundDuration":236220,"Delta":103888530},{"NoteNumber":69,"Velocity":63,"Duration":118110,"SoundDuration":118110,"Delta":104006640},{"NoteNumber":72,"Velocity":66,"Duration":472441,"SoundDuration":472441,"Delta":104124750},{"NoteNumber":52,"Velocity":56,"Duration":236220,"SoundDuration":236220,"Delta":104124750},{"NoteNumber":56,"Velocity":47,"Duration":236220,"SoundDuration":236220,"Delta":104360971},{"NoteNumber":71,"Velocity":60,"Duration":465115,"SoundDuration":465115,"Delta":104597191},{"NoteNumber":62,"Velocity":47,"Duration":232557,"SoundDuration":232557,"Delta":104597191},{"NoteNumber":59,"Velocity":47,"Duration":232557,"SoundDuration":232557,"Delta":104829749},{"NoteNumber":57,"Velocity":47,"Duration":236220,"SoundDuration":236220,"Delta":105062307},{"NoteNumber":56,"Velocity":47,"Duration":236220,"SoundDuration":236220,"Delta":105298528},{"NoteNumber":71,"Velocity":68,"Duration":118110,"SoundDuration":118110,"Delta":105416638},{"NoteNumber":74,"Velocity":72,"Duration":230768,"SoundDuration":230768,"Delta":105534748},{"NoteNumber":57,"Velocity":57,"Duration":935853,"SoundDuration":935853,"Delta":105534748},{"NoteNumber":72,"Velocity":68,"Duration":238095,"SoundDuration":238095,"Delta":105765517},{"NoteNumber":71,"Velocity":72,"Duration":230768,"SoundDuration":230768,"Delta":106003612},{"NoteNumber":69,"Velocity":67,"Duration":236220,"SoundDuration":236220,"Delta":106234381},{"NoteNumber":81,"Velocity":73,"Duration":174418,"SoundDuration":174418,"Delta":106470602},{"NoteNumber":43,"Velocity":69,"Duration":468778,"SoundDuration":468778,"Delta":106470602},{"NoteNumber":55,"Velocity":69,"Duration":468778,"SoundDuration":468778,"Delta":106470602},{"NoteNumber":81,"Velocity":70,"Duration":177165,"SoundDuration":177165,"Delta":106703160},{"NoteNumber":83,"Velocity":78,"Duration":230768,"SoundDuration":230768,"Delta":106939380},{"NoteNumber":41,"Velocity":72,"Duration":939430,"SoundDuration":939430,"Delta":106939380},{"NoteNumber":53,"Velocity":72,"Duration":939430,"SoundDuration":939430,"Delta":106939380},{"NoteNumber":81,"Velocity":78,"Duration":236220,"SoundDuration":236220,"Delta":107170149},{"NoteNumber":79,"Velocity":77,"Duration":236220,"SoundDuration":236220,"Delta":107406370},{"NoteNumber":77,"Velocity":75,"Duration":236220,"SoundDuration":236220,"Delta":107642590},{"NoteNumber":76,"Velocity":79,"Duration":236220,"SoundDuration":236220,"Delta":107878811},{"NoteNumber":75,"Velocity":75,"Duration":256410,"SoundDuration":256410,"Delta":108115031},{"NoteNumber":84,"Velocity":81,"Duration":937500,"SoundDuration":937500,"Delta":108371442},{"NoteNumber":57,"Velocity":61,"Duration":234375,"SoundDuration":234375,"Delta":108371442},{"NoteNumber":53,"Velocity":61,"Duration":1425304,"SoundDuration":1425304,"Delta":108371442},{"NoteNumber":56,"Velocity":42,"Duration":234375,"SoundDuration":234375,"Delta":108605817},{"NoteNumber":57,"Velocity":46,"Duration":234375,"SoundDuration":234375,"Delta":108840192},{"NoteNumber":60,"Velocity":41,"Duration":234375,"SoundDuration":234375,"Delta":109074567},{"NoteNumber":75,"Velocity":55,"Duration":487804,"SoundDuration":487804,"Delta":109308942},{"NoteNumber":59,"Velocity":46,"Duration":243902,"SoundDuration":243902,"Delta":109308942},{"NoteNumber":57,"Velocity":41,"Duration":243902,"SoundDuration":243902,"Delta":109552844},{"NoteNumber":76,"Velocity":55,"Duration":703125,"SoundDuration":703125,"Delta":109796747},{"NoteNumber":52,"Velocity":57,"Duration":468750,"SoundDuration":468750,"Delta":109796747},{"NoteNumber":56,"Velocity":57,"Duration":468750,"SoundDuration":468750,"Delta":109796747},{"NoteNumber":78,"Velocity":57,"Duration":120967,"SoundDuration":120967,"Delta":110499872},{"NoteNumber":76,"Velocity":46,"Duration":114919,"SoundDuration":114919,"Delta":110620840},{"NoteNumber":76,"Velocity":55,"Duration":118110,"SoundDuration":118110,"Delta":110741807},{"NoteNumber":74,"Velocity":53,"Duration":118110,"SoundDuration":118110,"Delta":110859918},{"NoteNumber":73,"Velocity":52,"Duration":121951,"SoundDuration":121951,"Delta":110978028},{"NoteNumber":71,"Velocity":51,"Duration":130434,"SoundDuration":130434,"Delta":111099979},{"NoteNumber":61,"Velocity":64,"Duration":66371,"SoundDuration":66371,"Delta":111230414},{"NoteNumber":64,"Velocity":64,"Duration":66371,"SoundDuration":66371,"Delta":111296786},{"NoteNumber":69,"Velocity":76,"Duration":929202,"SoundDuration":929202,"Delta":111363157},{"NoteNumber":45,"Velocity":59,"Duration":929202,"SoundDuration":929202,"Delta":111363157},{"NoteNumber":57,"Velocity":70,"Duration":929202,"SoundDuration":929202,"Delta":111363157},{"NoteNumber":64,"Velocity":70,"Duration":476190,"SoundDuration":476190,"Delta":112292360},{"NoteNumber":40,"Velocity":53,"Duration":476190,"SoundDuration":476190,"Delta":112292360},{"NoteNumber":52,"Velocity":63,"Duration":476190,"SoundDuration":476190,"Delta":112292360},{"NoteNumber":73,"Velocity":72,"Duration":247934,"SoundDuration":247934,"Delta":112768550},{"NoteNumber":49,"Velocity":48,"Duration":480491,"SoundDuration":480491,"Delta":112768550},{"NoteNumber":61,"Velocity":57,"Duration":480491,"SoundDuration":480491,"Delta":112768550},{"NoteNumber":74,"Velocity":74,"Duration":116279,"SoundDuration":116279,"Delta":113016484},{"NoteNumber":71,"Velocity":70,"Duration":116278,"SoundDuration":116278,"Delta":113132763},{"NoteNumber":69,"Velocity":70,"Duration":239999,"SoundDuration":239999,"Delta":113249042},{"NoteNumber":45,"Velocity":45,"Duration":239999,"SoundDuration":239999,"Delta":113249042},{"NoteNumber":57,"Velocity":53,"Duration":239999,"SoundDuration":239999,"Delta":113249042},{"NoteNumber":73,"Velocity":50,"Duration":237157,"SoundDuration":237157,"Delta":114209042},{"NoteNumber":74,"Velocity":52,"Duration":120000,"SoundDuration":120000,"Delta":114446200},{"NoteNumber":71,"Velocity":46,"Duration":119999,"SoundDuration":119999,"Delta":114566200},{"NoteNumber":69,"Velocity":49,"Duration":492101,"SoundDuration":492101,"Delta":114686200},{"NoteNumber":85,"Velocity":57,"Duration":236220,"SoundDuration":236220,"Delta":115178301},{"NoteNumber":57,"Velocity":40,"Duration":236220,"SoundDuration":236220,"Delta":115178301},{"NoteNumber":66,"Velocity":40,"Duration":236220,"SoundDuration":236220,"Delta":115178301},{"NoteNumber":75,"Velocity":50,"Duration":472441,"SoundDuration":472441,"Delta":115660423},{"NoteNumber":59,"Velocity":40,"Duration":472441,"SoundDuration":472441,"Delta":115660423},{"NoteNumber":69,"Velocity":40,"Duration":472441,"SoundDuration":472441,"Delta":115660423},{"NoteNumber":76,"Velocity":52,"Duration":708661,"SoundDuration":708661,"Delta":116132864},{"NoteNumber":64,"Velocity":40,"Duration":472441,"SoundDuration":472441,"Delta":116132864},{"NoteNumber":68,"Velocity":40,"Duration":472441,"SoundDuration":472441,"Delta":116132864},{"NoteNumber":77,"Velocity":51,"Duration":216535,"SoundDuration":216535,"Delta":116841525},{"NoteNumber":80,"Velocity":57,"Duration":229007,"SoundDuration":229007,"Delta":117077746},{"NoteNumber":78,"Velocity":56,"Duration":236220,"SoundDuration":236220,"Delta":117306753},{"NoteNumber":76,"Velocity":54,"Duration":230768,"SoundDuration":230768,"Delta":117542974},{"NoteNumber":74,"Velocity":53,"Duration":236220,"SoundDuration":236220,"Delta":117773743},{"NoteNumber":73,"Velocity":52,"Duration":236220,"SoundDuration":236220,"Delta":118009963},{"NoteNumber":71,"Velocity":51,"Duration":245901,"SoundDuration":245901,"Delta":118246184},{"NoteNumber":69,"Velocity":51,"Duration":236220,"SoundDuration":236220,"Delta":118492085},{"NoteNumber":52,"Velocity":39,"Duration":236220,"SoundDuration":236220,"Delta":118492085},{"NoteNumber":68,"Velocity":46,"Duration":229007,"SoundDuration":229007,"Delta":118728306},{"NoteNumber":62,"Velocity":33,"Duration":229007,"SoundDuration":229007,"Delta":118728306},{"NoteNumber":76,"Velocity":53,"Duration":227272,"SoundDuration":227272,"Delta":118957313},{"NoteNumber":59,"Velocity":33,"Duration":227272,"SoundDuration":227272,"Delta":118957313},{"NoteNumber":74,"Velocity":51,"Duration":230768,"SoundDuration":230768,"Delta":119184586},{"NoteNumber":62,"Velocity":28,"Duration":230768,"SoundDuration":230768,"Delta":119184586},{"NoteNumber":59,"Velocity":31,"Duration":236220,"SoundDuration":236220,"Delta":119415355},{"NoteNumber":62,"Velocity":29,"Duration":236220,"SoundDuration":236220,"Delta":119651575},{"NoteNumber":71,"Velocity":57,"Duration":236220,"SoundDuration":236220,"Delta":119887796},{"NoteNumber":52,"Velocity":40,"Duration":236220,"SoundDuration":236220,"Delta":119887796},{"NoteNumber":69,"Velocity":53,"Duration":232557,"SoundDuration":232557,"Delta":120124016},{"NoteNumber":61,"Velocity":34,"Duration":232557,"SoundDuration":232557,"Delta":120124016},{"NoteNumber":78,"Velocity":57,"Duration":227272,"SoundDuration":227272,"Delta":120356574},{"NoteNumber":57,"Velocity":34,"Duration":227272,"SoundDuration":227272,"Delta":120356574},{"NoteNumber":76,"Velocity":56,"Duration":232557,"SoundDuration":232557,"Delta":120583847},{"NoteNumber":61,"Velocity":30,"Duration":232557,"SoundDuration":232557,"Delta":120583847},{"NoteNumber":57,"Velocity":32,"Duration":232557,"SoundDuration":232557,"Delta":120816405},{"NoteNumber":61,"Velocity":28,"Duration":236220,"SoundDuration":236220,"Delta":121048963},{"NoteNumber":71,"Velocity":63,"Duration":234375,"SoundDuration":234375,"Delta":121285183},{"NoteNumber":52,"Velocity":42,"Duration":234375,"SoundDuration":234375,"Delta":121285183},{"NoteNumber":69,"Velocity":59,"Duration":243902,"SoundDuration":243902,"Delta":121519558},{"NoteNumber":61,"Velocity":36,"Duration":243902,"SoundDuration":243902,"Delta":121519558},{"NoteNumber":81,"Velocity":62,"Duration":229007,"SoundDuration":229007,"Delta":121763461},{"NoteNumber":57,"Velocity":36,"Duration":229007,"SoundDuration":229007,"Delta":121763461},{"NoteNumber":79,"Velocity":59,"Duration":234375,"SoundDuration":234375,"Delta":121992468},{"NoteNumber":61,"Velocity":34,"Duration":234375,"SoundDuration":234375,"Delta":121992468},{"NoteNumber":57,"Velocity":36,"Duration":234375,"SoundDuration":234375,"Delta":122226843},{"NoteNumber":61,"Velocity":34,"Duration":234375,"SoundDuration":234375,"Delta":122461218},{"NoteNumber":79,"Velocity":55,"Duration":232557,"SoundDuration":232557,"Delta":122695593},{"NoteNumber":50,"Velocity":28,"Duration":468778,"SoundDuration":468778,"Delta":122695593},{"NoteNumber":57,"Velocity":28,"Duration":468778,"SoundDuration":468778,"Delta":122695593},{"NoteNumber":62,"Velocity":34,"Duration":468778,"SoundDuration":468778,"Delta":122695593},{"NoteNumber":78,"Velocity":52,"Duration":236220,"SoundDuration":236220,"Delta":122928151},{"NoteNumber":76,"Velocity":51,"Duration":236220,"SoundDuration":236220,"Delta":123164372},{"NoteNumber":74,"Velocity":50,"Duration":236220,"SoundDuration":236220,"Delta":123400592},{"NoteNumber":73,"Velocity":49,"Duration":236220,"SoundDuration":236220,"Delta":123636813},{"NoteNumber":71,"Velocity":47,"Duration":245901,"SoundDuration":245901,"Delta":123873033},{"NoteNumber":76,"Velocity":49,"Duration":122950,"SoundDuration":122950,"Delta":124118935},{"NoteNumber":49,"Velocity":40,"Duration":355508,"SoundDuration":355508,"Delta":124118935},{"NoteNumber":78,"Velocity":45,"Duration":38759,"SoundDuration":38759,"Delta":124241885},{"NoteNumber":76,"Velocity":45,"Duration":38759,"SoundDuration":38759,"Delta":124280645},{"NoteNumber":74,"Velocity":45,"Duration":38759,"SoundDuration":38759,"Delta":124319405},{"NoteNumber":76,"Velocity":51,"Duration":116278,"SoundDuration":116278,"Delta":124358164},{"NoteNumber":78,"Velocity":52,"Duration":137614,"SoundDuration":137614,"Delta":124474443},{"NoteNumber":50,"Velocity":33,"Duration":137614,"SoundDuration":137614,"Delta":124474443},{"NoteNumber":69,"Velocity":51,"Duration":487804,"SoundDuration":487804,"Delta":124612058},{"NoteNumber":52,"Velocity":38,"Duration":971254,"SoundDuration":971254,"Delta":124612058},{"NoteNumber":61,"Velocity":38,"Duration":487804,"SoundDuration":487804,"Delta":124612058},{"NoteNumber":68,"Velocity":48,"Duration":483449,"SoundDuration":483449,"Delta":125099863},{"NoteNumber":59,"Velocity":32,"Duration":483449,"SoundDuration":483449,"Delta":125099863},{"NoteNumber":69,"Velocity":66,"Duration":59523,"SoundDuration":59523,"Delta":125464265},{"NoteNumber":73,"Velocity":67,"Duration":59523,"SoundDuration":59523,"Delta":125523789},{"NoteNumber":76,"Velocity":67,"Duration":468750,"SoundDuration":468750,"Delta":125583313},{"NoteNumber":57,"Velocity":54,"Duration":234375,"SoundDuration":234375,"Delta":125583313},{"NoteNumber":61,"Velocity":46,"Duration":234375,"SoundDuration":234375,"Delta":125817688},{"NoteNumber":76,"Velocity":69,"Duration":933865,"SoundDuration":933865,"Delta":126052063},{"NoteNumber":64,"Velocity":50,"Duration":232557,"SoundDuration":232557,"Delta":126052063},{"NoteNumber":61,"Velocity":46,"Duration":232557,"SoundDuration":232557,"Delta":126284621},{"NoteNumber":59,"Velocity":50,"Duration":234375,"SoundDuration":234375,"Delta":126517179},{"NoteNumber":57,"Velocity":45,"Duration":234375,"SoundDuration":234375,"Delta":126751554},{"NoteNumber":76,"Velocity":65,"Duration":115384,"SoundDuration":115384,"Delta":126985929},{"NoteNumber":56,"Velocity":54,"Duration":230768,"SoundDuration":230768,"Delta":126985929},{"NoteNumber":74,"Velocity":64,"Duration":115384,"SoundDuration":115384,"Delta":127101313},{"NoteNumber":73,"Velocity":63,"Duration":113636,"SoundDuration":113636,"Delta":127216698},{"NoteNumber":57,"Velocity":45,"Duration":227272,"SoundDuration":227272,"Delta":127216698},{"NoteNumber":71,"Velocity":63,"Duration":103219,"SoundDuration":103219,"Delta":127330334},{"NoteNumber":71,"Velocity":64,"Duration":114503,"SoundDuration":114503,"Delta":127443970},{"NoteNumber":59,"Velocity":45,"Duration":229007,"SoundDuration":229007,"Delta":127443970},{"NoteNumber":69,"Velocity":63,"Duration":114503,"SoundDuration":114503,"Delta":127558474},{"NoteNumber":68,"Velocity":62,"Duration":114503,"SoundDuration":114503,"Delta":127672978},{"NoteNumber":52,"Velocity":45,"Duration":229007,"SoundDuration":229007,"Delta":127672978},{"NoteNumber":66,"Velocity":61,"Duration":114503,"SoundDuration":114503,"Delta":127787481},{"NoteNumber":64,"Velocity":63,"Duration":117187,"SoundDuration":117187,"Delta":127901985},{"NoteNumber":54,"Velocity":48,"Duration":234375,"SoundDuration":234375,"Delta":127901985},{"NoteNumber":62,"Velocity":60,"Duration":117187,"SoundDuration":117187,"Delta":128019173},{"NoteNumber":61,"Velocity":60,"Duration":119047,"SoundDuration":119047,"Delta":128136360},{"NoteNumber":56,"Velocity":45,"Duration":238094,"SoundDuration":238094,"Delta":128136360},{"NoteNumber":62,"Velocity":60,"Duration":119047,"SoundDuration":119047,"Delta":128255408},{"NoteNumber":61,"Velocity":60,"Duration":116278,"SoundDuration":116278,"Delta":128374455},{"NoteNumber":57,"Velocity":54,"Duration":232558,"SoundDuration":232558,"Delta":128374455},{"NoteNumber":64,"Velocity":62,"Duration":116279,"SoundDuration":116279,"Delta":128490734},{"NoteNumber":69,"Velocity":63,"Duration":116278,"SoundDuration":116278,"Delta":128607013},{"NoteNumber":61,"Velocity":46,"Duration":232557,"SoundDuration":232557,"Delta":128607013},{"NoteNumber":73,"Velocity":64,"Duration":116278,"SoundDuration":116278,"Delta":128723292},{"NoteNumber":76,"Velocity":65,"Duration":685314,"SoundDuration":685314,"Delta":128839571},{"NoteNumber":64,"Velocity":46,"Duration":227272,"SoundDuration":227272,"Delta":128839571},{"NoteNumber":61,"Velocity":46,"Duration":227272,"SoundDuration":227272,"Delta":129066844},{"NoteNumber":59,"Velocity":49,"Duration":230769,"SoundDuration":230769,"Delta":129294116},{"NoteNumber":88,"Velocity":65,"Duration":225961,"SoundDuration":225961,"Delta":129524885},{"NoteNumber":57,"Velocity":46,"Duration":230768,"SoundDuration":230768,"Delta":129524885},{"NoteNumber":88,"Velocity":70,"Duration":113636,"SoundDuration":113636,"Delta":129755654},{"NoteNumber":56,"Velocity":52,"Duration":227272,"SoundDuration":227272,"Delta":129755654},{"NoteNumber":86,"Velocity":70,"Duration":113636,"SoundDuration":113636,"Delta":129869290},{"NoteNumber":85,"Velocity":69,"Duration":114503,"SoundDuration":114503,"Delta":129982927},{"NoteNumber":57,"Velocity":44,"Duration":229007,"SoundDuration":229007,"Delta":129982927},{"NoteNumber":83,"Velocity":69,"Duration":104961,"SoundDuration":104961,"Delta":130097430},{"NoteNumber":83,"Velocity":68,"Duration":114503,"SoundDuration":114503,"Delta":130211934},{"NoteNumber":59,"Velocity":51,"Duration":229007,"SoundDuration":229007,"Delta":130211934},{"NoteNumber":81,"Velocity":67,"Duration":114503,"SoundDuration":114503,"Delta":130326438},{"NoteNumber":80,"Velocity":67,"Duration":114503,"SoundDuration":114503,"Delta":130440942},{"NoteNumber":52,"Velocity":44,"Duration":229007,"SoundDuration":229007,"Delta":130440942},{"NoteNumber":78,"Velocity":66,"Duration":114503,"SoundDuration":114503,"Delta":130555445},{"NoteNumber":76,"Velocity":66,"Duration":117187,"SoundDuration":117187,"Delta":130669949},{"NoteNumber":54,"Velocity":50,"Duration":234375,"SoundDuration":234375,"Delta":130669949},{"NoteNumber":74,"Velocity":65,"Duration":117187,"SoundDuration":117187,"Delta":130787137},{"NoteNumber":73,"Velocity":65,"Duration":119047,"SoundDuration":119047,"Delta":130904324},{"NoteNumber":56,"Velocity":46,"Duration":238094,"SoundDuration":238094,"Delta":130904324},{"NoteNumber":74,"Velocity":64,"Duration":119047,"SoundDuration":119047,"Delta":131023372},{"NoteNumber":73,"Velocity":63,"Duration":116278,"SoundDuration":116278,"Delta":131142419},{"NoteNumber":57,"Velocity":51,"Duration":465115,"SoundDuration":465115,"Delta":131142419},{"NoteNumber":76,"Velocity":64,"Duration":116279,"SoundDuration":116279,"Delta":131258698},{"NoteNumber":74,"Velocity":60,"Duration":116278,"SoundDuration":116278,"Delta":131374977},{"NoteNumber":73,"Velocity":61,"Duration":116278,"SoundDuration":116278,"Delta":131491256},{"NoteNumber":74,"Velocity":62,"Duration":113636,"SoundDuration":113636,"Delta":131607535},{"NoteNumber":54,"Velocity":40,"Duration":454544,"SoundDuration":454544,"Delta":131607535},{"NoteNumber":57,"Velocity":48,"Duration":454544,"SoundDuration":454544,"Delta":131607535},{"NoteNumber":76,"Velocity":63,"Duration":113636,"SoundDuration":113636,"Delta":131721171},{"NoteNumber":78,"Velocity":64,"Duration":113636,"SoundDuration":113636,"Delta":131834808},{"NoteNumber":80,"Velocity":66,"Duration":113636,"SoundDuration":113636,"Delta":131948444},{"NoteNumber":81,"Velocity":67,"Duration":115384,"SoundDuration":115384,"Delta":132062080},{"NoteNumber":50,"Velocity":44,"Duration":460896,"SoundDuration":460896,"Delta":132062080},{"NoteNumber":54,"Velocity":44,"Duration":460896,"SoundDuration":460896,"Delta":132062080},{"NoteNumber":57,"Velocity":52,"Duration":460896,"SoundDuration":460896,"Delta":132062080},{"NoteNumber":83,"Velocity":68,"Duration":115384,"SoundDuration":115384,"Delta":132177465},{"NoteNumber":85,"Velocity":70,"Duration":115384,"SoundDuration":115384,"Delta":132292849},{"NoteNumber":86,"Velocity":71,"Duration":114743,"SoundDuration":114743,"Delta":132408234},{"NoteNumber":88,"Velocity":72,"Duration":113636,"SoundDuration":113636,"Delta":132522977},{"NoteNumber":49,"Velocity":47,"Duration":450053,"SoundDuration":450053,"Delta":132522977},{"NoteNumber":52,"Velocity":47,"Duration":450053,"SoundDuration":450053,"Delta":132522977},{"NoteNumber":57,"Velocity":56,"Duration":450053,"SoundDuration":450053,"Delta":132522977},{"NoteNumber":86,"Velocity":71,"Duration":112810,"SoundDuration":112810,"Delta":132636613},{"NoteNumber":85,"Velocity":69,"Duration":112136,"SoundDuration":112136,"Delta":132749424},{"NoteNumber":83,"Velocity":68,"Duration":111470,"SoundDuration":111470,"Delta":132861560},{"NoteNumber":81,"Velocity":66,"Duration":111110,"SoundDuration":111110,"Delta":132973031},{"NoteNumber":80,"Velocity":65,"Duration":111110,"SoundDuration":111110,"Delta":133084142},{"NoteNumber":78,"Velocity":63,"Duration":111111,"SoundDuration":111111,"Delta":133195253},{"NoteNumber":76,"Velocity":62,"Duration":110516,"SoundDuration":110516,"Delta":133306364},{"NoteNumber":74,"Velocity":60,"Duration":110405,"SoundDuration":110405,"Delta":133416880},{"NoteNumber":73,"Velocity":59,"Duration":112221,"SoundDuration":112221,"Delta":133527286},{"NoteNumber":71,"Velocity":57,"Duration":114246,"SoundDuration":114246,"Delta":133639507},{"NoteNumber":69,"Velocity":56,"Duration":136363,"SoundDuration":136363,"Delta":133753753},{"NoteNumber":78,"Velocity":59,"Duration":84033,"SoundDuration":84033,"Delta":133890117},{"NoteNumber":50,"Velocity":38,"Duration":504201,"SoundDuration":504201,"Delta":133890117},{"NoteNumber":59,"Velocity":45,"Duration":504201,"SoundDuration":504201,"Delta":133890117},{"NoteNumber":80,"Velocity":55,"Duration":84033,"SoundDuration":84033,"Delta":133974151},{"NoteNumber":78,"Velocity":59,"Duration":84033,"SoundDuration":84033,"Delta":134058184},{"NoteNumber":77,"Velocity":59,"Duration":63025,"SoundDuration":63025,"Delta":134142218},{"NoteNumber":78,"Velocity":55,"Duration":63025,"SoundDuration":63025,"Delta":134205243},{"NoteNumber":80,"Velocity":55,"Duration":63025,"SoundDuration":63025,"Delta":134268268},{"NoteNumber":81,"Velocity":55,"Duration":63025,"SoundDuration":63025,"Delta":134331294},{"NoteNumber":69,"Velocity":59,"Duration":464119,"SoundDuration":464119,"Delta":134394319},{"NoteNumber":52,"Velocity":33,"Duration":1077476,"SoundDuration":1077476,"Delta":134394319},{"NoteNumber":61,"Velocity":39,"Duration":536935,"SoundDuration":536935,"Delta":134394319},{"NoteNumber":73,"Velocity":50,"Duration":72815,"SoundDuration":72815,"Delta":134858439},{"NoteNumber":71,"Velocity":53,"Duration":540540,"SoundDuration":540540,"Delta":134931254},{"NoteNumber":68,"Velocity":53,"Duration":540540,"SoundDuration":540540,"Delta":134931254},{"NoteNumber":62,"Velocity":39,"Duration":540540,"SoundDuration":540540,"Delta":134931254},{"NoteNumber":69,"Velocity":51,"Duration":540541,"SoundDuration":540541,"Delta":135471795},{"NoteNumber":57,"Velocity":35,"Duration":540541,"SoundDuration":540541,"Delta":135471795},{"NoteNumber":61,"Velocity":42,"Duration":540541,"SoundDuration":540541,"Delta":135471795},{"NoteNumber":45,"Velocity":35,"Duration":540540,"SoundDuration":540540,"Delta":136012336},{"NoteNumber":66,"Velocity":42,"Duration":283018,"SoundDuration":283018,"Delta":138715041},{"NoteNumber":69,"Velocity":50,"Duration":283018,"SoundDuration":283018,"Delta":138715041},{"NoteNumber":38,"Velocity":37,"Duration":2089065,"SoundDuration":2089065,"Delta":138715041},{"NoteNumber":50,"Velocity":44,"Duration":2089065,"SoundDuration":2089065,"Delta":138715041},{"NoteNumber":57,"Velocity":45,"Duration":270270,"SoundDuration":270270,"Delta":138998060},{"NoteNumber":62,"Velocity":42,"Duration":256410,"SoundDuration":256410,"Delta":139268331},{"NoteNumber":66,"Velocity":50,"Duration":256410,"SoundDuration":256410,"Delta":139268331},{"NoteNumber":57,"Velocity":47,"Duration":245901,"SoundDuration":245901,"Delta":139524741},{"NoteNumber":64,"Velocity":44,"Duration":252101,"SoundDuration":252101,"Delta":139770643},{"NoteNumber":67,"Velocity":52,"Duration":252101,"SoundDuration":252101,"Delta":139770643},{"NoteNumber":57,"Velocity":49,"Duration":270270,"SoundDuration":270270,"Delta":140022744},{"NoteNumber":69,"Velocity":54,"Duration":263158,"SoundDuration":263158,"Delta":140293014},{"NoteNumber":66,"Velocity":45,"Duration":263158,"SoundDuration":263158,"Delta":140293014},{"NoteNumber":57,"Velocity":48,"Duration":247933,"SoundDuration":247933,"Delta":140556172},{"NoteNumber":62,"Velocity":42,"Duration":247933,"SoundDuration":247933,"Delta":140804106},{"NoteNumber":66,"Velocity":50,"Duration":247933,"SoundDuration":247933,"Delta":140804106},{"NoteNumber":61,"Velocity":39,"Duration":250000,"SoundDuration":250000,"Delta":141052040},{"NoteNumber":64,"Velocity":47,"Duration":250000,"SoundDuration":250000,"Delta":141052040},{"NoteNumber":62,"Velocity":42,"Duration":254237,"SoundDuration":254237,"Delta":141302040},{"NoteNumber":66,"Velocity":50,"Duration":254237,"SoundDuration":254237,"Delta":141302040},{"NoteNumber":64,"Velocity":39,"Duration":250000,"SoundDuration":250000,"Delta":141556278},{"NoteNumber":67,"Velocity":47,"Duration":250000,"SoundDuration":250000,"Delta":141556278},{"NoteNumber":66,"Velocity":42,"Duration":247933,"SoundDuration":247933,"Delta":141806278},{"NoteNumber":69,"Velocity":50,"Duration":247933,"SoundDuration":247933,"Delta":141806278},{"NoteNumber":62,"Velocity":45,"Duration":252101,"SoundDuration":252101,"Delta":142054212},{"NoteNumber":67,"Velocity":45,"Duration":250000,"SoundDuration":250000,"Delta":142306313},{"NoteNumber":71,"Velocity":53,"Duration":250000,"SoundDuration":250000,"Delta":142306313},{"NoteNumber":62,"Velocity":47,"Duration":263158,"SoundDuration":263158,"Delta":142556313},{"NoteNumber":67,"Velocity":45,"Duration":252101,"SoundDuration":252101,"Delta":142819471},{"NoteNumber":73,"Velocity":54,"Duration":252101,"SoundDuration":252101,"Delta":142819471},{"NoteNumber":45,"Velocity":34,"Duration":515259,"SoundDuration":515259,"Delta":142819471},{"NoteNumber":57,"Velocity":41,"Duration":515259,"SoundDuration":515259,"Delta":142819471},{"NoteNumber":64,"Velocity":47,"Duration":263158,"SoundDuration":263158,"Delta":143071572},{"NoteNumber":66,"Velocity":45,"Duration":260869,"SoundDuration":260869,"Delta":143334730},{"NoteNumber":74,"Velocity":54,"Duration":260869,"SoundDuration":260869,"Delta":143334730},{"NoteNumber":38,"Velocity":34,"Duration":521738,"SoundDuration":521738,"Delta":143334730},{"NoteNumber":50,"Velocity":41,"Duration":521738,"SoundDuration":521738,"Delta":143334730},{"NoteNumber":69,"Velocity":49,"Duration":260869,"SoundDuration":260869,"Delta":143595599},{"NoteNumber":62,"Velocity":42,"Duration":247933,"SoundDuration":247933,"Delta":143856469},{"NoteNumber":66,"Velocity":50,"Duration":247933,"SoundDuration":247933,"Delta":143856469},{"NoteNumber":78,"Velocity":55,"Duration":247933,"SoundDuration":247933,"Delta":143856469},{"NoteNumber":61,"Velocity":39,"Duration":250000,"SoundDuration":250000,"Delta":144104403},{"NoteNumber":64,"Velocity":47,"Duration":250000,"SoundDuration":250000,"Delta":144104403},{"NoteNumber":76,"Velocity":46,"Duration":250000,"SoundDuration":250000,"Delta":144104403},{"NoteNumber":62,"Velocity":42,"Duration":254237,"SoundDuration":254237,"Delta":144354403},{"NoteNumber":66,"Velocity":50,"Duration":254237,"SoundDuration":254237,"Delta":144354403},{"NoteNumber":78,"Velocity":54,"Duration":254237,"SoundDuration":254237,"Delta":144354403},{"NoteNumber":64,"Velocity":39,"Duration":250000,"SoundDuration":250000,"Delta":144608640},{"NoteNumber":67,"Velocity":47,"Duration":250000,"SoundDuration":250000,"Delta":144608640},{"NoteNumber":79,"Velocity":47,"Duration":250000,"SoundDuration":250000,"Delta":144608640},{"NoteNumber":66,"Velocity":42,"Duration":247933,"SoundDuration":247933,"Delta":144858640},{"NoteNumber":69,"Velocity":50,"Duration":247933,"SoundDuration":247933,"Delta":144858640},{"NoteNumber":81,"Velocity":53,"Duration":502171,"SoundDuration":502171,"Delta":144858640},{"NoteNumber":62,"Velocity":45,"Duration":254237,"SoundDuration":254237,"Delta":145106574},{"NoteNumber":67,"Velocity":45,"Duration":254237,"SoundDuration":254237,"Delta":145360812},{"NoteNumber":71,"Velocity":53,"Duration":254237,"SoundDuration":254237,"Delta":145360812},{"NoteNumber":83,"Velocity":53,"Duration":515107,"SoundDuration":515107,"Delta":145360812},{"NoteNumber":62,"Velocity":47,"Duration":260869,"SoundDuration":260869,"Delta":145615049},{"NoteNumber":67,"Velocity":45,"Duration":254237,"SoundDuration":254237,"Delta":145875919},{"NoteNumber":73,"Velocity":54,"Duration":254237,"SoundDuration":254237,"Delta":145875919},{"NoteNumber":85,"Velocity":53,"Duration":522094,"SoundDuration":522094,"Delta":145875919},{"NoteNumber":64,"Velocity":47,"Duration":267856,"SoundDuration":267856,"Delta":146130156},{"NoteNumber":66,"Velocity":45,"Duration":267857,"SoundDuration":267857,"Delta":146398013},{"NoteNumber":74,"Velocity":54,"Duration":267857,"SoundDuration":267857,"Delta":146398013},{"NoteNumber":86,"Velocity":54,"Duration":545635,"SoundDuration":545635,"Delta":146398013},{"NoteNumber":69,"Velocity":49,"Duration":277778,"SoundDuration":277778,"Delta":146665870},{"NoteNumber":66,"Velocity":45,"Duration":254237,"SoundDuration":254237,"Delta":146943648},{"NoteNumber":74,"Velocity":54,"Duration":254237,"SoundDuration":254237,"Delta":146943648},{"NoteNumber":64,"Velocity":41,"Duration":258620,"SoundDuration":258620,"Delta":147197886},{"NoteNumber":73,"Velocity":49,"Duration":258620,"SoundDuration":258620,"Delta":147197886},{"NoteNumber":62,"Velocity":41,"Duration":247933,"SoundDuration":247933,"Delta":147456506},{"NoteNumber":71,"Velocity":49,"Duration":247933,"SoundDuration":247933,"Delta":147456506},{"NoteNumber":61,"Velocity":41,"Duration":272727,"SoundDuration":272727,"Delta":147704440},{"NoteNumber":69,"Velocity":49,"Duration":272727,"SoundDuration":272727,"Delta":147704440},{"NoteNumber":59,"Velocity":45,"Duration":256410,"SoundDuration":256410,"Delta":147977168},{"NoteNumber":68,"Velocity":54,"Duration":256410,"SoundDuration":256410,"Delta":147977168},{"NoteNumber":52,"Velocity":41,"Duration":517279,"SoundDuration":517279,"Delta":147977168},{"NoteNumber":64,"Velocity":47,"Duration":260869,"SoundDuration":260869,"Delta":148233578},{"NoteNumber":61,"Velocity":43,"Duration":254237,"SoundDuration":254237,"Delta":148494448},{"NoteNumber":69,"Velocity":51,"Duration":254237,"SoundDuration":254237,"Delta":148494448},{"NoteNumber":49,"Velocity":35,"Duration":512857,"SoundDuration":512857,"Delta":148494448},{"NoteNumber":64,"Velocity":42,"Duration":258620,"SoundDuration":258620,"Delta":148748685},{"NoteNumber":69,"Velocity":44,"Duration":252101,"SoundDuration":252101,"Delta":149007306},{"NoteNumber":73,"Velocity":52,"Duration":252101,"SoundDuration":252101,"Delta":149007306},{"NoteNumber":45,"Velocity":35,"Duration":504201,"SoundDuration":504201,"Delta":149007306},{"NoteNumber":64,"Velocity":42,"Duration":252100,"SoundDuration":252100,"Delta":149259407},{"NoteNumber":68,"Velocity":43,"Duration":252101,"SoundDuration":252101,"Delta":149511508},{"NoteNumber":71,"Velocity":51,"Duration":252101,"SoundDuration":252101,"Delta":149511508},{"NoteNumber":52,"Velocity":40,"Duration":519958,"SoundDuration":519958,"Delta":149511508},{"NoteNumber":64,"Velocity":44,"Duration":267856,"SoundDuration":267856,"Delta":149763609},{"NoteNumber":66,"Velocity":45,"Duration":247933,"SoundDuration":247933,"Delta":150031466},{"NoteNumber":74,"Velocity":54,"Duration":247933,"SoundDuration":247933,"Delta":150031466},{"NoteNumber":86,"Velocity":60,"Duration":247933,"SoundDuration":247933,"Delta":150031466},{"NoteNumber":64,"Velocity":41,"Duration":256410,"SoundDuration":256410,"Delta":150279400},{"NoteNumber":73,"Velocity":49,"Duration":256410,"SoundDuration":256410,"Delta":150279400},{"NoteNumber":85,"Velocity":58,"Duration":256410,"SoundDuration":256410,"Delta":150279400},{"NoteNumber":62,"Velocity":41,"Duration":254237,"SoundDuration":254237,"Delta":150535810},{"NoteNumber":71,"Velocity":49,"Duration":254237,"SoundDuration":254237,"Delta":150535810},{"NoteNumber":83,"Velocity":56,"Duration":254237,"SoundDuration":254237,"Delta":150535810},{"NoteNumber":61,"Velocity":41,"Duration":265486,"SoundDuration":265486,"Delta":150790048},{"NoteNumber":69,"Velocity":49,"Duration":265486,"SoundDuration":265486,"Delta":150790048},{"NoteNumber":81,"Velocity":56,"Duration":199114,"SoundDuration":199114,"Delta":150790048},{"NoteNumber":87,"Velocity":54,"Duration":66371,"SoundDuration":66371,"Delta":150989163},{"NoteNumber":59,"Velocity":45,"Duration":245901,"SoundDuration":245901,"Delta":151055534},{"NoteNumber":68,"Velocity":54,"Duration":245901,"SoundDuration":245901,"Delta":151055534},{"NoteNumber":88,"Velocity":65,"Duration":428828,"SoundDuration":428828,"Delta":151055534},{"NoteNumber":64,"Velocity":47,"Duration":243902,"SoundDuration":243902,"Delta":151301436},{"NoteNumber":87,"Velocity":54,"Duration":60975,"SoundDuration":60975,"Delta":151484363},{"NoteNumber":61,"Velocity":43,"Duration":245901,"SoundDuration":245901,"Delta":151545338},{"NoteNumber":69,"Velocity":51,"Duration":245901,"SoundDuration":245901,"Delta":151545338},{"NoteNumber":88,"Velocity":65,"Duration":427353,"SoundDuration":427353,"Delta":151545338},{"NoteNumber":64,"Velocity":42,"Duration":241935,"SoundDuration":241935,"Delta":151791240},{"NoteNumber":87,"Velocity":54,"Duration":60483,"SoundDuration":60483,"Delta":151972691},{"NoteNumber":69,"Velocity":44,"Duration":243902,"SoundDuration":243902,"Delta":152033175},{"NoteNumber":73,"Velocity":52,"Duration":243902,"SoundDuration":243902,"Delta":152033175},{"NoteNumber":88,"Velocity":66,"Duration":431402,"SoundDuration":431402,"Delta":152033175},{"NoteNumber":64,"Velocity":42,"Duration":250000,"SoundDuration":250000,"Delta":152277078},{"NoteNumber":87,"Velocity":54,"Duration":62500,"SoundDuration":62500,"Delta":152464578},{"NoteNumber":68,"Velocity":43,"Duration":250000,"SoundDuration":250000,"Delta":152527078},{"NoteNumber":71,"Velocity":51,"Duration":250000,"SoundDuration":250000,"Delta":152527078},{"NoteNumber":88,"Velocity":65,"Duration":513158,"SoundDuration":513158,"Delta":152527078},{"NoteNumber":64,"Velocity":44,"Duration":263158,"SoundDuration":263158,"Delta":152777078},{"NoteNumber":64,"Velocity":64,"Duration":1496386,"SoundDuration":1496386,"Delta":153040236},{"NoteNumber":73,"Velocity":64,"Duration":256410,"SoundDuration":256410,"Delta":153040236},{"NoteNumber":45,"Velocity":51,"Duration":256410,"SoundDuration":256410,"Delta":153040236},{"NoteNumber":71,"Velocity":59,"Duration":247933,"SoundDuration":247933,"Delta":153296646},{"NoteNumber":44,"Velocity":47,"Duration":247933,"SoundDuration":247933,"Delta":153296646},{"NoteNumber":73,"Velocity":61,"Duration":243902,"SoundDuration":243902,"Delta":153544580},{"NoteNumber":45,"Velocity":51,"Duration":243902,"SoundDuration":243902,"Delta":153544580},{"NoteNumber":74,"Velocity":54,"Duration":250000,"SoundDuration":250000,"Delta":153788483},{"NoteNumber":47,"Velocity":47,"Duration":250000,"SoundDuration":250000,"Delta":153788483},{"NoteNumber":76,"Velocity":66,"Duration":243902,"SoundDuration":243902,"Delta":154038483},{"NoteNumber":49,"Velocity":51,"Duration":498139,"SoundDuration":498139,"Delta":154038483},{"NoteNumber":69,"Velocity":59,"Duration":254237,"SoundDuration":254237,"Delta":154282385},{"NoteNumber":69,"Velocity":64,"Duration":500312,"SoundDuration":500312,"Delta":154536623},{"NoteNumber":73,"Velocity":64,"Duration":243902,"SoundDuration":243902,"Delta":154536623},{"NoteNumber":52,"Velocity":46,"Duration":500312,"SoundDuration":500312,"Delta":154536623},{"NoteNumber":64,"Velocity":58,"Duration":256410,"SoundDuration":256410,"Delta":154780525},{"NoteNumber":68,"Velocity":64,"Duration":502522,"SoundDuration":502522,"Delta":155036936},{"NoteNumber":71,"Velocity":64,"Duration":243902,"SoundDuration":243902,"Delta":155036936},{"NoteNumber":40,"Velocity":49,"Duration":502522,"SoundDuration":502522,"Delta":155036936},{"NoteNumber":64,"Velocity":58,"Duration":258620,"SoundDuration":258620,"Delta":155280838},{"NoteNumber":69,"Velocity":64,"Duration":247933,"SoundDuration":247933,"Delta":155539459},{"NoteNumber":45,"Velocity":49,"Duration":511091,"SoundDuration":511091,"Delta":155539459},{"NoteNumber":64,"Velocity":58,"Duration":263158,"SoundDuration":263158,"Delta":155787393},{"NoteNumber":69,"Velocity":64,"Duration":256410,"SoundDuration":256410,"Delta":156050551},{"NoteNumber":73,"Velocity":64,"Duration":256410,"SoundDuration":256410,"Delta":156050551},{"NoteNumber":85,"Velocity":58,"Duration":256410,"SoundDuration":256410,"Delta":156050551},{"NoteNumber":68,"Velocity":59,"Duration":247933,"SoundDuration":247933,"Delta":156306961},{"NoteNumber":71,"Velocity":59,"Duration":247933,"SoundDuration":247933,"Delta":156306961},{"NoteNumber":83,"Velocity":53,"Duration":247933,"SoundDuration":247933,"Delta":156306961},{"NoteNumber":69,"Velocity":61,"Duration":252101,"SoundDuration":252101,"Delta":156554895},{"NoteNumber":73,"Velocity":61,"Duration":252101,"SoundDuration":252101,"Delta":156554895},{"NoteNumber":85,"Velocity":59,"Duration":252101,"SoundDuration":252101,"Delta":156554895},{"NoteNumber":71,"Velocity":54,"Duration":250000,"SoundDuration":250000,"Delta":156806996},{"NoteNumber":74,"Velocity":54,"Duration":250000,"SoundDuration":250000,"Delta":156806996},{"NoteNumber":86,"Velocity":52,"Duration":250000,"SoundDuration":250000,"Delta":156806996},{"NoteNumber":73,"Velocity":66,"Duration":243902,"SoundDuration":243902,"Delta":157056996},{"NoteNumber":76,"Velocity":66,"Duration":243902,"SoundDuration":243902,"Delta":157056996},{"NoteNumber":88,"Velocity":58,"Duration":498139,"SoundDuration":498139,"Delta":157056996},{"NoteNumber":64,"Velocity":59,"Duration":254237,"SoundDuration":254237,"Delta":157300899},{"NoteNumber":69,"Velocity":64,"Duration":243902,"SoundDuration":243902,"Delta":157555136},{"NoteNumber":73,"Velocity":64,"Duration":243902,"SoundDuration":243902,"Delta":157555136},{"NoteNumber":85,"Velocity":62,"Duration":500312,"SoundDuration":500312,"Delta":157555136},{"NoteNumber":64,"Velocity":58,"Duration":256410,"SoundDuration":256410,"Delta":157799039},{"NoteNumber":68,"Velocity":64,"Duration":243902,"SoundDuration":243902,"Delta":158055449},{"NoteNumber":71,"Velocity":64,"Duration":243902,"SoundDuration":243902,"Delta":158055449},{"NoteNumber":83,"Velocity":59,"Duration":502522,"SoundDuration":502522,"Delta":158055449},{"NoteNumber":64,"Velocity":58,"Duration":258620,"SoundDuration":258620,"Delta":158299352},{"NoteNumber":69,"Velocity":64,"Duration":247933,"SoundDuration":247933,"Delta":158557972},{"NoteNumber":81,"Velocity":56,"Duration":502171,"SoundDuration":502171,"Delta":158557972},{"NoteNumber":64,"Velocity":58,"Duration":254237,"SoundDuration":254237,"Delta":158805906},{"NoteNumber":66,"Velocity":61,"Duration":243902,"SoundDuration":243902,"Delta":159060144},{"NoteNumber":50,"Velocity":36,"Duration":493902,"SoundDuration":493902,"Delta":159060144},{"NoteNumber":59,"Velocity":43,"Duration":493902,"SoundDuration":493902,"Delta":159060144},{"NoteNumber":74,"Velocity":53,"Duration":250000,"SoundDuration":250000,"Delta":159304046},{"NoteNumber":71,"Velocity":61,"Duration":245901,"SoundDuration":245901,"Delta":159554046},{"NoteNumber":62,"Velocity":38,"Duration":500138,"SoundDuration":500138,"Delta":159554046},{"NoteNumber":52,"Velocity":32,"Duration":500138,"SoundDuration":500138,"Delta":159554046},{"NoteNumber":68,"Velocity":55,"Duration":254237,"SoundDuration":254237,"Delta":159799948},{"NoteNumber":69,"Velocity":59,"Duration":247933,"SoundDuration":247933,"Delta":160054185},{"NoteNumber":61,"Velocity":43,"Duration":495868,"SoundDuration":495868,"Delta":160054185},{"NoteNumber":57,"Velocity":36,"Duration":495868,"SoundDuration":495868,"Delta":160054185},{"NoteNumber":64,"Velocity":50,"Duration":247934,"SoundDuration":247934,"Delta":160302119},{"NoteNumber":66,"Velocity":56,"Duration":250000,"SoundDuration":250000,"Delta":160550053},{"NoteNumber":50,"Velocity":32,"Duration":506410,"SoundDuration":506410,"Delta":160550053},{"NoteNumber":59,"Velocity":38,"Duration":506410,"SoundDuration":506410,"Delta":160550053},{"NoteNumber":74,"Velocity":50,"Duration":256410,"SoundDuration":256410,"Delta":160800053},{"NoteNumber":71,"Velocity":57,"Duration":256410,"SoundDuration":256410,"Delta":161056464},{"NoteNumber":62,"Velocity":43,"Duration":519568,"SoundDuration":519568,"Delta":161056464},{"NoteNumber":52,"Velocity":36,"Duration":519568,"SoundDuration":519568,"Delta":161056464},{"NoteNumber":68,"Velocity":48,"Duration":263158,"SoundDuration":263158,"Delta":161312874},{"NoteNumber":69,"Velocity":52,"Duration":247933,"SoundDuration":247933,"Delta":161576032},{"NoteNumber":57,"Velocity":34,"Duration":495868,"SoundDuration":495868,"Delta":161576032},{"NoteNumber":61,"Velocity":40,"Duration":495868,"SoundDuration":495868,"Delta":161576032},{"NoteNumber":68,"Velocity":46,"Duration":247934,"SoundDuration":247934,"Delta":161823966},{"NoteNumber":69,"Velocity":52,"Duration":247933,"SoundDuration":247933,"Delta":162071900},{"NoteNumber":71,"Velocity":45,"Duration":247934,"SoundDuration":247934,"Delta":162319834},{"NoteNumber":67,"Velocity":48,"Duration":265486,"SoundDuration":265486,"Delta":162567768},{"NoteNumber":64,"Velocity":48,"Duration":306122,"SoundDuration":306122,"Delta":162833255},{"NoteNumber":66,"Velocity":42,"Duration":283018,"SoundDuration":283018,"Delta":163139377},{"NoteNumber":69,"Velocity":50,"Duration":283018,"SoundDuration":283018,"Delta":163139377},{"NoteNumber":38,"Velocity":37,"Duration":2089065,"SoundDuration":2089065,"Delta":163139377},{"NoteNumber":50,"Velocity":44,"Duration":2089065,"SoundDuration":2089065,"Delta":163139377},{"NoteNumber":57,"Velocity":45,"Duration":270270,"SoundDuration":270270,"Delta":163422396},{"NoteNumber":62,"Velocity":42,"Duration":256410,"SoundDuration":256410,"Delta":163692667},{"NoteNumber":66,"Velocity":50,"Duration":256410,"SoundDuration":256410,"Delta":163692667},{"NoteNumber":57,"Velocity":47,"Duration":245901,"SoundDuration":245901,"Delta":163949077},{"NoteNumber":64,"Velocity":44,"Duration":252101,"SoundDuration":252101,"Delta":164194979},{"NoteNumber":67,"Velocity":52,"Duration":252101,"SoundDuration":252101,"Delta":164194979},{"NoteNumber":57,"Velocity":49,"Duration":270270,"SoundDuration":270270,"Delta":164447080},{"NoteNumber":69,"Velocity":54,"Duration":263158,"SoundDuration":263158,"Delta":164717350},{"NoteNumber":66,"Velocity":45,"Duration":263158,"SoundDuration":263158,"Delta":164717350},{"NoteNumber":57,"Velocity":48,"Duration":247933,"SoundDuration":247933,"Delta":164980508},{"NoteNumber":62,"Velocity":42,"Duration":247933,"SoundDuration":247933,"Delta":165228442},{"NoteNumber":66,"Velocity":50,"Duration":247933,"SoundDuration":247933,"Delta":165228442},{"NoteNumber":61,"Velocity":39,"Duration":250000,"SoundDuration":250000,"Delta":165476376},{"NoteNumber":64,"Velocity":47,"Duration":250000,"SoundDuration":250000,"Delta":165476376},{"NoteNumber":62,"Velocity":42,"Duration":254237,"SoundDuration":254237,"Delta":165726376},{"NoteNumber":66,"Velocity":50,"Duration":254237,"SoundDuration":254237,"Delta":165726376},{"NoteNumber":64,"Velocity":39,"Duration":250000,"SoundDuration":250000,"Delta":165980614},{"NoteNumber":67,"Velocity":47,"Duration":250000,"SoundDuration":250000,"Delta":165980614},{"NoteNumber":66,"Velocity":42,"Duration":247933,"SoundDuration":247933,"Delta":166230614},{"NoteNumber":69,"Velocity":50,"Duration":247933,"SoundDuration":247933,"Delta":166230614},{"NoteNumber":62,"Velocity":45,"Duration":252101,"SoundDuration":252101,"Delta":166478548},{"NoteNumber":67,"Velocity":45,"Duration":250000,"SoundDuration":250000,"Delta":166730649},{"NoteNumber":71,"Velocity":53,"Duration":250000,"SoundDuration":250000,"Delta":166730649},{"NoteNumber":62,"Velocity":47,"Duration":263158,"SoundDuration":263158,"Delta":166980649},{"NoteNumber":67,"Velocity":45,"Duration":252101,"SoundDuration":252101,"Delta":167243807},{"NoteNumber":73,"Velocity":54,"Duration":252101,"SoundDuration":252101,"Delta":167243807},{"NoteNumber":45,"Velocity":34,"Duration":515259,"SoundDuration":515259,"Delta":167243807},{"NoteNumber":57,"Velocity":41,"Duration":515259,"SoundDuration":515259,"Delta":167243807},{"NoteNumber":64,"Velocity":47,"Duration":263158,"SoundDuration":263158,"Delta":167495908},{"NoteNumber":66,"Velocity":45,"Duration":260869,"SoundDuration":260869,"Delta":167759066},{"NoteNumber":74,"Velocity":54,"Duration":260869,"SoundDuration":260869,"Delta":167759066},{"NoteNumber":38,"Velocity":34,"Duration":521738,"SoundDuration":521738,"Delta":167759066},{"NoteNumber":50,"Velocity":41,"Duration":521738,"SoundDuration":521738,"Delta":167759066},{"NoteNumber":69,"Velocity":49,"Duration":260869,"SoundDuration":260869,"Delta":168019935},{"NoteNumber":62,"Velocity":42,"Duration":247933,"SoundDuration":247933,"Delta":168280805},{"NoteNumber":66,"Velocity":50,"Duration":247933,"SoundDuration":247933,"Delta":168280805},{"NoteNumber":78,"Velocity":55,"Duration":247933,"SoundDuration":247933,"Delta":168280805},{"NoteNumber":61,"Velocity":39,"Duration":250000,"SoundDuration":250000,"Delta":168528739},{"NoteNumber":64,"Velocity":47,"Duration":250000,"SoundDuration":250000,"Delta":168528739},{"NoteNumber":76,"Velocity":46,"Duration":250000,"SoundDuration":250000,"Delta":168528739},{"NoteNumber":62,"Velocity":42,"Duration":254237,"SoundDuration":254237,"Delta":168778739},{"NoteNumber":66,"Velocity":50,"Duration":254237,"SoundDuration":254237,"Delta":168778739},{"NoteNumber":78,"Velocity":54,"Duration":254237,"SoundDuration":254237,"Delta":168778739},{"NoteNumber":64,"Velocity":39,"Duration":250000,"SoundDuration":250000,"Delta":169032976},{"NoteNumber":67,"Velocity":47,"Duration":250000,"SoundDuration":250000,"Delta":169032976},{"NoteNumber":79,"Velocity":47,"Duration":250000,"SoundDuration":250000,"Delta":169032976},{"NoteNumber":66,"Velocity":42,"Duration":247933,"SoundDuration":247933,"Delta":169282976},{"NoteNumber":69,"Velocity":50,"Duration":247933,"SoundDuration":247933,"Delta":169282976},{"NoteNumber":81,"Velocity":53,"Duration":502171,"SoundDuration":502171,"Delta":169282976},{"NoteNumber":62,"Velocity":45,"Duration":254237,"SoundDuration":254237,"Delta":169530910},{"NoteNumber":67,"Velocity":45,"Duration":254237,"SoundDuration":254237,"Delta":169785148},{"NoteNumber":71,"Velocity":53,"Duration":254237,"SoundDuration":254237,"Delta":169785148},{"NoteNumber":83,"Velocity":53,"Duration":515107,"SoundDuration":515107,"Delta":169785148},{"NoteNumber":62,"Velocity":47,"Duration":260869,"SoundDuration":260869,"Delta":170039385},{"NoteNumber":67,"Velocity":45,"Duration":254237,"SoundDuration":254237,"Delta":170300255},{"NoteNumber":73,"Velocity":54,"Duration":254237,"SoundDuration":254237,"Delta":170300255},{"NoteNumber":85,"Velocity":53,"Duration":522094,"SoundDuration":522094,"Delta":170300255},{"NoteNumber":64,"Velocity":47,"Duration":267856,"SoundDuration":267856,"Delta":170554492},{"NoteNumber":66,"Velocity":45,"Duration":267857,"SoundDuration":267857,"Delta":170822349},{"NoteNumber":74,"Velocity":54,"Duration":267857,"SoundDuration":267857,"Delta":170822349},{"NoteNumber":86,"Velocity":54,"Duration":545635,"SoundDuration":545635,"Delta":170822349},{"NoteNumber":69,"Velocity":49,"Duration":277778,"SoundDuration":277778,"Delta":171090206},{"NoteNumber":66,"Velocity":45,"Duration":254237,"SoundDuration":254237,"Delta":171367984},{"NoteNumber":74,"Velocity":54,"Duration":254237,"SoundDuration":254237,"Delta":171367984},{"NoteNumber":64,"Velocity":41,"Duration":258620,"SoundDuration":258620,"Delta":171622222},{"NoteNumber":73,"Velocity":49,"Duration":258620,"SoundDuration":258620,"Delta":171622222},{"NoteNumber":62,"Velocity":41,"Duration":247933,"SoundDuration":247933,"Delta":171880842},{"NoteNumber":71,"Velocity":49,"Duration":247933,"SoundDuration":247933,"Delta":171880842},{"NoteNumber":61,"Velocity":41,"Duration":272727,"SoundDuration":272727,"Delta":172128776},{"NoteNumber":69,"Velocity":49,"Duration":272727,"SoundDuration":272727,"Delta":172128776},{"NoteNumber":59,"Velocity":45,"Duration":256410,"SoundDuration":256410,"Delta":172401504},{"NoteNumber":68,"Velocity":54,"Duration":256410,"SoundDuration":256410,"Delta":172401504},{"NoteNumber":52,"Velocity":41,"Duration":517279,"SoundDuration":517279,"Delta":172401504},{"NoteNumber":64,"Velocity":47,"Duration":260869,"SoundDuration":260869,"Delta":172657914},{"NoteNumber":61,"Velocity":43,"Duration":254237,"SoundDuration":254237,"Delta":172918784},{"NoteNumber":69,"Velocity":51,"Duration":254237,"SoundDuration":254237,"Delta":172918784},{"NoteNumber":49,"Velocity":35,"Duration":512857,"SoundDuration":512857,"Delta":172918784},{"NoteNumber":64,"Velocity":42,"Duration":258620,"SoundDuration":258620,"Delta":173173021},{"NoteNumber":69,"Velocity":44,"Duration":252101,"SoundDuration":252101,"Delta":173431642},{"NoteNumber":73,"Velocity":52,"Duration":252101,"SoundDuration":252101,"Delta":173431642},{"NoteNumber":45,"Velocity":35,"Duration":504201,"SoundDuration":504201,"Delta":173431642},{"NoteNumber":64,"Velocity":42,"Duration":252100,"SoundDuration":252100,"Delta":173683743},{"NoteNumber":68,"Velocity":43,"Duration":252101,"SoundDuration":252101,"Delta":173935844},{"NoteNumber":71,"Velocity":51,"Duration":252101,"SoundDuration":252101,"Delta":173935844},{"NoteNumber":52,"Velocity":40,"Duration":519958,"SoundDuration":519958,"Delta":173935844},{"NoteNumber":64,"Velocity":44,"Duration":267856,"SoundDuration":267856,"Delta":174187945},{"NoteNumber":66,"Velocity":45,"Duration":247933,"SoundDuration":247933,"Delta":174455802},{"NoteNumber":74,"Velocity":54,"Duration":247933,"SoundDuration":247933,"Delta":174455802},{"NoteNumber":86,"Velocity":60,"Duration":247933,"SoundDuration":247933,"Delta":174455802},{"NoteNumber":64,"Velocity":41,"Duration":256410,"SoundDuration":256410,"Delta":174703736},{"NoteNumber":73,"Velocity":49,"Duration":256410,"SoundDuration":256410,"Delta":174703736},{"NoteNumber":85,"Velocity":58,"Duration":256410,"SoundDuration":256410,"Delta":174703736},{"NoteNumber":62,"Velocity":41,"Duration":254237,"SoundDuration":254237,"Delta":174960146},{"NoteNumber":71,"Velocity":49,"Duration":254237,"SoundDuration":254237,"Delta":174960146},{"NoteNumber":83,"Velocity":56,"Duration":254237,"SoundDuration":254237,"Delta":174960146},{"NoteNumber":61,"Velocity":41,"Duration":265486,"SoundDuration":265486,"Delta":175214384},{"NoteNumber":69,"Velocity":49,"Duration":265486,"SoundDuration":265486,"Delta":175214384},{"NoteNumber":81,"Velocity":56,"Duration":199114,"SoundDuration":199114,"Delta":175214384},{"NoteNumber":87,"Velocity":54,"Duration":66371,"SoundDuration":66371,"Delta":175413499},{"NoteNumber":59,"Velocity":45,"Duration":245901,"SoundDuration":245901,"Delta":175479870},{"NoteNumber":68,"Velocity":54,"Duration":245901,"SoundDuration":245901,"Delta":175479870},{"NoteNumber":88,"Velocity":65,"Duration":428828,"SoundDuration":428828,"Delta":175479870},{"NoteNumber":64,"Velocity":47,"Duration":243902,"SoundDuration":243902,"Delta":175725772},{"NoteNumber":87,"Velocity":54,"Duration":60975,"SoundDuration":60975,"Delta":175908699},{"NoteNumber":61,"Velocity":43,"Duration":245901,"SoundDuration":245901,"Delta":175969674},{"NoteNumber":69,"Velocity":51,"Duration":245901,"SoundDuration":245901,"Delta":175969674},{"NoteNumber":88,"Velocity":65,"Duration":427353,"SoundDuration":427353,"Delta":175969674},{"NoteNumber":64,"Velocity":42,"Duration":241935,"SoundDuration":241935,"Delta":176215576},{"NoteNumber":87,"Velocity":54,"Duration":60483,"SoundDuration":60483,"Delta":176397027},{"NoteNumber":69,"Velocity":44,"Duration":243902,"SoundDuration":243902,"Delta":176457511},{"NoteNumber":73,"Velocity":52,"Duration":243902,"SoundDuration":243902,"Delta":176457511},{"NoteNumber":88,"Velocity":66,"Duration":431402,"SoundDuration":431402,"Delta":176457511},{"NoteNumber":64,"Velocity":42,"Duration":250000,"SoundDuration":250000,"Delta":176701414},{"NoteNumber":87,"Velocity":54,"Duration":62500,"SoundDuration":62500,"Delta":176888914},{"NoteNumber":68,"Velocity":43,"Duration":250000,"SoundDuration":250000,"Delta":176951414},{"NoteNumber":71,"Velocity":51,"Duration":250000,"SoundDuration":250000,"Delta":176951414},{"NoteNumber":88,"Velocity":65,"Duration":513158,"SoundDuration":513158,"Delta":176951414},{"NoteNumber":64,"Velocity":44,"Duration":263158,"SoundDuration":263158,"Delta":177201414},{"NoteNumber":64,"Velocity":64,"Duration":1496386,"SoundDuration":1496386,"Delta":177464572},{"NoteNumber":73,"Velocity":64,"Duration":256410,"SoundDuration":256410,"Delta":177464572},{"NoteNumber":45,"Velocity":51,"Duration":256410,"SoundDuration":256410,"Delta":177464572},{"NoteNumber":71,"Velocity":59,"Duration":247933,"SoundDuration":247933,"Delta":177720982},{"NoteNumber":44,"Velocity":47,"Duration":247933,"SoundDuration":247933,"Delta":177720982},{"NoteNumber":73,"Velocity":61,"Duration":243902,"SoundDuration":243902,"Delta":177968916},{"NoteNumber":45,"Velocity":51,"Duration":243902,"SoundDuration":243902,"Delta":177968916},{"NoteNumber":74,"Velocity":54,"Duration":250000,"SoundDuration":250000,"Delta":178212819},{"NoteNumber":47,"Velocity":47,"Duration":250000,"SoundDuration":250000,"Delta":178212819},{"NoteNumber":76,"Velocity":66,"Duration":243902,"SoundDuration":243902,"Delta":178462819},{"NoteNumber":49,"Velocity":51,"Duration":498139,"SoundDuration":498139,"Delta":178462819},{"NoteNumber":69,"Velocity":59,"Duration":254237,"SoundDuration":254237,"Delta":178706721},{"NoteNumber":69,"Velocity":64,"Duration":500312,"SoundDuration":500312,"Delta":178960959},{"NoteNumber":73,"Velocity":64,"Duration":243902,"SoundDuration":243902,"Delta":178960959},{"NoteNumber":52,"Velocity":46,"Duration":500312,"SoundDuration":500312,"Delta":178960959},{"NoteNumber":64,"Velocity":58,"Duration":256410,"SoundDuration":256410,"Delta":179204861},{"NoteNumber":68,"Velocity":64,"Duration":502522,"SoundDuration":502522,"Delta":179461272},{"NoteNumber":71,"Velocity":64,"Duration":243902,"SoundDuration":243902,"Delta":179461272},{"NoteNumber":40,"Velocity":49,"Duration":502522,"SoundDuration":502522,"Delta":179461272},{"NoteNumber":64,"Velocity":58,"Duration":258620,"SoundDuration":258620,"Delta":179705174},{"NoteNumber":69,"Velocity":64,"Duration":247933,"SoundDuration":247933,"Delta":179963795},{"NoteNumber":45,"Velocity":49,"Duration":511091,"SoundDuration":511091,"Delta":179963795},{"NoteNumber":64,"Velocity":58,"Duration":263158,"SoundDuration":263158,"Delta":180211729},{"NoteNumber":69,"Velocity":64,"Duration":256410,"SoundDuration":256410,"Delta":180474887},{"NoteNumber":73,"Velocity":64,"Duration":256410,"SoundDuration":256410,"Delta":180474887},{"NoteNumber":85,"Velocity":58,"Duration":256410,"SoundDuration":256410,"Delta":180474887},{"NoteNumber":68,"Velocity":59,"Duration":247933,"SoundDuration":247933,"Delta":180731297},{"NoteNumber":71,"Velocity":59,"Duration":247933,"SoundDuration":247933,"Delta":180731297},{"NoteNumber":83,"Velocity":53,"Duration":247933,"SoundDuration":247933,"Delta":180731297},{"NoteNumber":69,"Velocity":61,"Duration":252101,"SoundDuration":252101,"Delta":180979231},{"NoteNumber":73,"Velocity":61,"Duration":252101,"SoundDuration":252101,"Delta":180979231},{"NoteNumber":85,"Velocity":59,"Duration":252101,"SoundDuration":252101,"Delta":180979231},{"NoteNumber":71,"Velocity":54,"Duration":250000,"SoundDuration":250000,"Delta":181231332},{"NoteNumber":74,"Velocity":54,"Duration":250000,"SoundDuration":250000,"Delta":181231332},{"NoteNumber":86,"Velocity":52,"Duration":250000,"SoundDuration":250000,"Delta":181231332},{"NoteNumber":73,"Velocity":66,"Duration":243902,"SoundDuration":243902,"Delta":181481332},{"NoteNumber":76,"Velocity":66,"Duration":243902,"SoundDuration":243902,"Delta":181481332},{"NoteNumber":88,"Velocity":58,"Duration":498139,"SoundDuration":498139,"Delta":181481332},{"NoteNumber":64,"Velocity":59,"Duration":254237,"SoundDuration":254237,"Delta":181725235},{"NoteNumber":69,"Velocity":64,"Duration":243902,"SoundDuration":243902,"Delta":181979472},{"NoteNumber":73,"Velocity":64,"Duration":243902,"SoundDuration":243902,"Delta":181979472},{"NoteNumber":85,"Velocity":62,"Duration":500312,"SoundDuration":500312,"Delta":181979472},{"NoteNumber":64,"Velocity":58,"Duration":256410,"SoundDuration":256410,"Delta":182223375},{"NoteNumber":68,"Velocity":64,"Duration":243902,"SoundDuration":243902,"Delta":182479785},{"NoteNumber":71,"Velocity":64,"Duration":243902,"SoundDuration":243902,"Delta":182479785},{"NoteNumber":83,"Velocity":59,"Duration":502522,"SoundDuration":502522,"Delta":182479785},{"NoteNumber":64,"Velocity":58,"Duration":258620,"SoundDuration":258620,"Delta":182723688},{"NoteNumber":69,"Velocity":64,"Duration":247933,"SoundDuration":247933,"Delta":182982308},{"NoteNumber":81,"Velocity":56,"Duration":502171,"SoundDuration":502171,"Delta":182982308},{"NoteNumber":64,"Velocity":58,"Duration":254237,"SoundDuration":254237,"Delta":183230242},{"NoteNumber":66,"Velocity":61,"Duration":243902,"SoundDuration":243902,"Delta":183484480},{"NoteNumber":50,"Velocity":36,"Duration":493902,"SoundDuration":493902,"Delta":183484480},{"NoteNumber":59,"Velocity":43,"Duration":493902,"SoundDuration":493902,"Delta":183484480},{"NoteNumber":74,"Velocity":53,"Duration":250000,"SoundDuration":250000,"Delta":183728382},{"NoteNumber":71,"Velocity":61,"Duration":245901,"SoundDuration":245901,"Delta":183978382},{"NoteNumber":62,"Velocity":38,"Duration":500138,"SoundDuration":500138,"Delta":183978382},{"NoteNumber":52,"Velocity":32,"Duration":500138,"SoundDuration":500138,"Delta":183978382},{"NoteNumber":68,"Velocity":55,"Duration":254237,"SoundDuration":254237,"Delta":184224284},{"NoteNumber":69,"Velocity":59,"Duration":247933,"SoundDuration":247933,"Delta":184478521},{"NoteNumber":61,"Velocity":43,"Duration":495868,"SoundDuration":495868,"Delta":184478521},{"NoteNumber":57,"Velocity":36,"Duration":495868,"SoundDuration":495868,"Delta":184478521},{"NoteNumber":64,"Velocity":50,"Duration":247934,"SoundDuration":247934,"Delta":184726455},{"NoteNumber":66,"Velocity":56,"Duration":250000,"SoundDuration":250000,"Delta":184974389},{"NoteNumber":50,"Velocity":32,"Duration":506410,"SoundDuration":506410,"Delta":184974389},{"NoteNumber":59,"Velocity":38,"Duration":506410,"SoundDuration":506410,"Delta":184974389},{"NoteNumber":74,"Velocity":50,"Duration":256410,"SoundDuration":256410,"Delta":185224389},{"NoteNumber":71,"Velocity":57,"Duration":256410,"SoundDuration":256410,"Delta":185480800},{"NoteNumber":62,"Velocity":43,"Duration":519568,"SoundDuration":519568,"Delta":185480800},{"NoteNumber":52,"Velocity":36,"Duration":519568,"SoundDuration":519568,"Delta":185480800},{"NoteNumber":68,"Velocity":48,"Duration":263158,"SoundDuration":263158,"Delta":185737210},{"NoteNumber":69,"Velocity":52,"Duration":247933,"SoundDuration":247933,"Delta":186000368},{"NoteNumber":57,"Velocity":34,"Duration":495868,"SoundDuration":495868,"Delta":186000368},{"NoteNumber":61,"Velocity":40,"Duration":495868,"SoundDuration":495868,"Delta":186000368},{"NoteNumber":68,"Velocity":46,"Duration":247934,"SoundDuration":247934,"Delta":186248302},{"NoteNumber":69,"Velocity":52,"Duration":247933,"SoundDuration":247933,"Delta":186496236},{"NoteNumber":71,"Velocity":45,"Duration":247934,"SoundDuration":247934,"Delta":186744170},{"NoteNumber":67,"Velocity":48,"Duration":254237,"SoundDuration":254237,"Delta":186992104},{"NoteNumber":64,"Velocity":48,"Duration":277778,"SoundDuration":277778,"Delta":187246342},{"NoteNumber":66,"Velocity":42,"Duration":283018,"SoundDuration":283018,"Delta":187524120},{"NoteNumber":69,"Velocity":50,"Duration":283018,"SoundDuration":283018,"Delta":187524120},{"NoteNumber":35,"Velocity":37,"Duration":2089065,"SoundDuration":2089065,"Delta":187524120},{"NoteNumber":47,"Velocity":44,"Duration":2089065,"SoundDuration":2089065,"Delta":187524120},{"NoteNumber":59,"Velocity":45,"Duration":270270,"SoundDuration":270270,"Delta":187807139},{"NoteNumber":63,"Velocity":42,"Duration":256410,"SoundDuration":256410,"Delta":188077409},{"NoteNumber":66,"Velocity":50,"Duration":256410,"SoundDuration":256410,"Delta":188077409},{"NoteNumber":59,"Velocity":47,"Duration":245901,"SoundDuration":245901,"Delta":188333820},{"NoteNumber":64,"Velocity":44,"Duration":252101,"SoundDuration":252101,"Delta":188579721},{"NoteNumber":67,"Velocity":52,"Duration":252101,"SoundDuration":252101,"Delta":188579721},{"NoteNumber":59,"Velocity":49,"Duration":270270,"SoundDuration":270270,"Delta":188831822},{"NoteNumber":69,"Velocity":54,"Duration":263158,"SoundDuration":263158,"Delta":189102093},{"NoteNumber":66,"Velocity":45,"Duration":263158,"SoundDuration":263158,"Delta":189102093},{"NoteNumber":59,"Velocity":48,"Duration":247933,"SoundDuration":247933,"Delta":189365251},{"NoteNumber":63,"Velocity":37,"Duration":250000,"SoundDuration":250000,"Delta":189613185},{"NoteNumber":66,"Velocity":45,"Duration":250000,"SoundDuration":250000,"Delta":189613185},{"NoteNumber":84,"Velocity":54,"Duration":250000,"SoundDuration":250000,"Delta":189613185},{"NoteNumber":59,"Velocity":42,"Duration":245901,"SoundDuration":245901,"Delta":189863185},{"NoteNumber":83,"Velocity":50,"Duration":245901,"SoundDuration":245901,"Delta":189863185},{"NoteNumber":64,"Velocity":39,"Duration":247933,"SoundDuration":247933,"Delta":190109086},{"NoteNumber":67,"Velocity":46,"Duration":247933,"SoundDuration":247933,"Delta":190109086},{"NoteNumber":81,"Velocity":54,"Duration":247933,"SoundDuration":247933,"Delta":190109086},{"NoteNumber":59,"Velocity":44,"Duration":258620,"SoundDuration":258620,"Delta":190357020},{"NoteNumber":79,"Velocity":50,"Duration":258620,"SoundDuration":258620,"Delta":190357020},{"NoteNumber":69,"Velocity":48,"Duration":250000,"SoundDuration":250000,"Delta":190615641},{"NoteNumber":66,"Velocity":40,"Duration":250000,"SoundDuration":250000,"Delta":190615641},{"NoteNumber":78,"Velocity":54,"Duration":497933,"SoundDuration":497933,"Delta":190615641},{"NoteNumber":59,"Velocity":43,"Duration":247933,"SoundDuration":247933,"Delta":190865641},{"NoteNumber":63,"Velocity":37,"Duration":247933,"SoundDuration":247933,"Delta":191113575},{"NoteNumber":66,"Velocity":45,"Duration":247933,"SoundDuration":247933,"Delta":191113575},{"NoteNumber":81,"Velocity":54,"Duration":247933,"SoundDuration":247933,"Delta":191113575},{"NoteNumber":59,"Velocity":42,"Duration":245901,"SoundDuration":245901,"Delta":191361509},{"NoteNumber":79,"Velocity":50,"Duration":245901,"SoundDuration":245901,"Delta":191361509},{"NoteNumber":64,"Velocity":39,"Duration":245901,"SoundDuration":245901,"Delta":191607410},{"NoteNumber":67,"Velocity":46,"Duration":245901,"SoundDuration":245901,"Delta":191607410},{"NoteNumber":78,"Velocity":55,"Duration":245901,"SoundDuration":245901,"Delta":191607410},{"NoteNumber":59,"Velocity":44,"Duration":258620,"SoundDuration":258620,"Delta":191853312},{"NoteNumber":76,"Velocity":50,"Duration":258620,"SoundDuration":258620,"Delta":191853312},{"NoteNumber":69,"Velocity":48,"Duration":526680,"SoundDuration":526680,"Delta":192111932},{"NoteNumber":66,"Velocity":40,"Duration":526680,"SoundDuration":526680,"Delta":192111932},{"NoteNumber":75,"Velocity":54,"Duration":526680,"SoundDuration":526680,"Delta":192111932},{"NoteNumber":71,"Velocity":60,"Duration":217741,"SoundDuration":217741,"Delta":192638613},{"NoteNumber":83,"Velocity":71,"Duration":217741,"SoundDuration":217741,"Delta":192638613},{"NoteNumber":47,"Velocity":49,"Duration":217741,"SoundDuration":217741,"Delta":192638613},{"NoteNumber":59,"Velocity":59,"Duration":217741,"SoundDuration":217741,"Delta":192638613},{"NoteNumber":69,"Velocity":56,"Duration":219512,"SoundDuration":219512,"Delta":192880549},{"NoteNumber":81,"Velocity":66,"Duration":219512,"SoundDuration":219512,"Delta":192880549},{"NoteNumber":45,"Velocity":46,"Duration":219512,"SoundDuration":219512,"Delta":192880549},{"NoteNumber":57,"Velocity":55,"Duration":219512,"SoundDuration":219512,"Delta":192880549},{"NoteNumber":67,"Velocity":60,"Duration":223140,"SoundDuration":223140,"Delta":193124451},{"NoteNumber":79,"Velocity":71,"Duration":223140,"SoundDuration":223140,"Delta":193124451},{"NoteNumber":43,"Velocity":49,"Duration":223140,"SoundDuration":223140,"Delta":193124451},{"NoteNumber":55,"Velocity":59,"Duration":223140,"SoundDuration":223140,"Delta":193124451},{"NoteNumber":66,"Velocity":56,"Duration":230769,"SoundDuration":230769,"Delta":193372385},{"NoteNumber":78,"Velocity":67,"Duration":230769,"SoundDuration":230769,"Delta":193372385},{"NoteNumber":42,"Velocity":46,"Duration":230769,"SoundDuration":230769,"Delta":193372385},{"NoteNumber":54,"Velocity":55,"Duration":230769,"SoundDuration":230769,"Delta":193372385},{"NoteNumber":64,"Velocity":62,"Duration":477875,"SoundDuration":477875,"Delta":193628796},{"NoteNumber":76,"Velocity":74,"Duration":477875,"SoundDuration":477875,"Delta":193628796},{"NoteNumber":40,"Velocity":50,"Duration":477875,"SoundDuration":477875,"Delta":193628796},{"NoteNumber":52,"Velocity":60,"Duration":477875,"SoundDuration":477875,"Delta":193628796},{"NoteNumber":64,"Velocity":60,"Duration":461538,"SoundDuration":461538,"Delta":194159769},{"NoteNumber":76,"Velocity":71,"Duration":461538,"SoundDuration":461538,"Delta":194159769},{"NoteNumber":40,"Velocity":46,"Duration":461538,"SoundDuration":461538,"Delta":194159769},{"NoteNumber":52,"Velocity":55,"Duration":461538,"SoundDuration":461538,"Delta":194159769},{"NoteNumber":71,"Velocity":61,"Duration":461538,"SoundDuration":461538,"Delta":194672590},{"NoteNumber":83,"Velocity":73,"Duration":461538,"SoundDuration":461538,"Delta":194672590},{"NoteNumber":47,"Velocity":50,"Duration":461538,"SoundDuration":461538,"Delta":194672590},{"NoteNumber":59,"Velocity":60,"Duration":461538,"SoundDuration":461538,"Delta":194672590},{"NoteNumber":64,"Velocity":60,"Duration":446281,"SoundDuration":446281,"Delta":195185411},{"NoteNumber":76,"Velocity":71,"Duration":446281,"SoundDuration":446281,"Delta":195185411},{"NoteNumber":40,"Velocity":46,"Duration":446281,"SoundDuration":446281,"Delta":195185411},{"NoteNumber":52,"Velocity":55,"Duration":446281,"SoundDuration":446281,"Delta":195185411},{"NoteNumber":71,"Velocity":60,"Duration":219512,"SoundDuration":219512,"Delta":195681279},{"NoteNumber":83,"Velocity":71,"Duration":219512,"SoundDuration":219512,"Delta":195681279},{"NoteNumber":47,"Velocity":49,"Duration":219512,"SoundDuration":219512,"Delta":195681279},{"NoteNumber":59,"Velocity":59,"Duration":219512,"SoundDuration":219512,"Delta":195681279},{"NoteNumber":69,"Velocity":56,"Duration":223140,"SoundDuration":223140,"Delta":195925181},{"NoteNumber":81,"Velocity":66,"Duration":223140,"SoundDuration":223140,"Delta":195925181},{"NoteNumber":45,"Velocity":46,"Duration":223140,"SoundDuration":223140,"Delta":195925181},{"NoteNumber":57,"Velocity":55,"Duration":223140,"SoundDuration":223140,"Delta":195925181},{"NoteNumber":67,"Velocity":60,"Duration":226890,"SoundDuration":226890,"Delta":196173115},{"NoteNumber":79,"Velocity":71,"Duration":226890,"SoundDuration":226890,"Delta":196173115},{"NoteNumber":43,"Velocity":49,"Duration":226890,"SoundDuration":226890,"Delta":196173115},{"NoteNumber":55,"Velocity":59,"Duration":226890,"SoundDuration":226890,"Delta":196173115},{"NoteNumber":66,"Velocity":56,"Duration":234782,"SoundDuration":234782,"Delta":196425216},{"NoteNumber":78,"Velocity":67,"Duration":234782,"SoundDuration":234782,"Delta":196425216},{"NoteNumber":42,"Velocity":46,"Duration":234782,"SoundDuration":234782,"Delta":196425216},{"NoteNumber":54,"Velocity":55,"Duration":234782,"SoundDuration":234782,"Delta":196425216},{"NoteNumber":64,"Velocity":62,"Duration":477875,"SoundDuration":477875,"Delta":196686086},{"NoteNumber":76,"Velocity":74,"Duration":477875,"SoundDuration":477875,"Delta":196686086},{"NoteNumber":40,"Velocity":50,"Duration":477875,"SoundDuration":477875,"Delta":196686086},{"NoteNumber":52,"Velocity":60,"Duration":477875,"SoundDuration":477875,"Delta":196686086},{"NoteNumber":64,"Velocity":60,"Duration":461538,"SoundDuration":461538,"Delta":197217059},{"NoteNumber":76,"Velocity":71,"Duration":461538,"SoundDuration":461538,"Delta":197217059},{"NoteNumber":40,"Velocity":46,"Duration":461538,"SoundDuration":461538,"Delta":197217059},{"NoteNumber":52,"Velocity":55,"Duration":461538,"SoundDuration":461538,"Delta":197217059},{"NoteNumber":71,"Velocity":61,"Duration":461538,"SoundDuration":461538,"Delta":197729880},{"NoteNumber":83,"Velocity":73,"Duration":461538,"SoundDuration":461538,"Delta":197729880},{"NoteNumber":47,"Velocity":50,"Duration":461538,"SoundDuration":461538,"Delta":197729880},{"NoteNumber":59,"Velocity":60,"Duration":461538,"SoundDuration":461538,"Delta":197729880},{"NoteNumber":64,"Velocity":60,"Duration":477875,"SoundDuration":477875,"Delta":198242701},{"NoteNumber":76,"Velocity":71,"Duration":477875,"SoundDuration":477875,"Delta":198242701},{"NoteNumber":40,"Velocity":46,"Duration":477875,"SoundDuration":477875,"Delta":198242701},{"NoteNumber":52,"Velocity":55,"Duration":477875,"SoundDuration":477875,"Delta":198242701},{"NoteNumber":76,"Velocity":50,"Duration":189075,"SoundDuration":189075,"Delta":198773674},{"NoteNumber":74,"Velocity":46,"Duration":193965,"SoundDuration":193965,"Delta":199025775},{"NoteNumber":76,"Velocity":50,"Duration":189075,"SoundDuration":189075,"Delta":199284395},{"NoteNumber":77,"Velocity":47,"Duration":193965,"SoundDuration":193965,"Delta":199536496},{"NoteNumber":79,"Velocity":51,"Duration":512857,"SoundDuration":512857,"Delta":199795117},{"NoteNumber":60,"Velocity":42,"Duration":1021332,"SoundDuration":1021332,"Delta":199795117},{"NoteNumber":64,"Velocity":39,"Duration":254237,"SoundDuration":254237,"Delta":200053737},{"NoteNumber":79,"Velocity":53,"Duration":762712,"SoundDuration":762712,"Delta":200307975},{"NoteNumber":67,"Velocity":42,"Duration":254237,"SoundDuration":254237,"Delta":200307975},{"NoteNumber":64,"Velocity":39,"Duration":254237,"SoundDuration":254237,"Delta":200562212},{"NoteNumber":59,"Velocity":35,"Duration":510648,"SoundDuration":510648,"Delta":200816450},{"NoteNumber":65,"Velocity":42,"Duration":254237,"SoundDuration":254237,"Delta":200816450},{"NoteNumber":79,"Velocity":50,"Duration":256410,"SoundDuration":256410,"Delta":201070687},{"NoteNumber":62,"Velocity":37,"Duration":256410,"SoundDuration":256410,"Delta":201070687},{"NoteNumber":84,"Velocity":55,"Duration":508475,"SoundDuration":508475,"Delta":201327098},{"NoteNumber":60,"Velocity":42,"Duration":1008475,"SoundDuration":1008475,"Delta":201327098},{"NoteNumber":64,"Velocity":37,"Duration":254237,"SoundDuration":254237,"Delta":201581335},{"NoteNumber":79,"Velocity":50,"Duration":500000,"SoundDuration":500000,"Delta":201835573},{"NoteNumber":67,"Velocity":42,"Duration":250000,"SoundDuration":250000,"Delta":201835573},{"NoteNumber":64,"Velocity":37,"Duration":250000,"SoundDuration":250000,"Delta":202085573},{"NoteNumber":59,"Velocity":35,"Duration":508620,"SoundDuration":508620,"Delta":202335573},{"NoteNumber":65,"Velocity":42,"Duration":250000,"SoundDuration":250000,"Delta":202335573},{"NoteNumber":62,"Velocity":38,"Duration":258620,"SoundDuration":258620,"Delta":202585573},{"NoteNumber":79,"Velocity":56,"Duration":498002,"SoundDuration":498002,"Delta":202844193},{"NoteNumber":60,"Velocity":46,"Duration":998002,"SoundDuration":998002,"Delta":202844193},{"NoteNumber":64,"Velocity":42,"Duration":245901,"SoundDuration":245901,"Delta":203096294},{"NoteNumber":79,"Velocity":58,"Duration":754237,"SoundDuration":754237,"Delta":203342196},{"NoteNumber":67,"Velocity":46,"Duration":250000,"SoundDuration":250000,"Delta":203342196},{"NoteNumber":64,"Velocity":42,"Duration":250000,"SoundDuration":250000,"Delta":203592196},{"NoteNumber":59,"Velocity":38,"Duration":508475,"SoundDuration":508475,"Delta":203842196},{"NoteNumber":65,"Velocity":46,"Duration":254237,"SoundDuration":254237,"Delta":203842196},{"NoteNumber":79,"Velocity":55,"Duration":254237,"SoundDuration":254237,"Delta":204096433},{"NoteNumber":62,"Velocity":40,"Duration":254237,"SoundDuration":254237,"Delta":204096433},{"NoteNumber":84,"Velocity":60,"Duration":498002,"SoundDuration":498002,"Delta":204350671},{"NoteNumber":60,"Velocity":46,"Duration":993870,"SoundDuration":993870,"Delta":204350671},{"NoteNumber":64,"Velocity":40,"Duration":245901,"SoundDuration":245901,"Delta":204602772},{"NoteNumber":79,"Velocity":55,"Duration":495868,"SoundDuration":495868,"Delta":204848673},{"NoteNumber":67,"Velocity":46,"Duration":247933,"SoundDuration":247933,"Delta":204848673},{"NoteNumber":64,"Velocity":40,"Duration":247934,"SoundDuration":247934,"Delta":205096607},{"NoteNumber":60,"Velocity":46,"Duration":250000,"SoundDuration":250000,"Delta":205344541},{"NoteNumber":64,"Velocity":41,"Duration":267856,"SoundDuration":267856,"Delta":205594541},{"NoteNumber":79,"Velocity":61,"Duration":133928,"SoundDuration":133928,"Delta":205728470},{"NoteNumber":88,"Velocity":70,"Duration":495901,"SoundDuration":495901,"Delta":205862398},{"NoteNumber":58,"Velocity":53,"Duration":995901,"SoundDuration":995901,"Delta":205862398},{"NoteNumber":60,"Velocity":45,"Duration":245901,"SoundDuration":245901,"Delta":206112398},{"NoteNumber":79,"Velocity":55,"Duration":500000,"SoundDuration":500000,"Delta":206358300},{"NoteNumber":64,"Velocity":51,"Duration":250000,"SoundDuration":250000,"Delta":206358300},{"NoteNumber":67,"Velocity":43,"Duration":250000,"SoundDuration":250000,"Delta":206608300},{"NoteNumber":64,"Velocity":52,"Duration":250000,"SoundDuration":250000,"Delta":206858300},{"NoteNumber":60,"Velocity":46,"Duration":260869,"SoundDuration":260869,"Delta":207108300},{"NoteNumber":79,"Velocity":65,"Duration":130434,"SoundDuration":130434,"Delta":207238734},{"NoteNumber":88,"Velocity":74,"Duration":493902,"SoundDuration":493902,"Delta":207369169},{"NoteNumber":57,"Velocity":58,"Duration":987754,"SoundDuration":987754,"Delta":207369169},{"NoteNumber":61,"Velocity":51,"Duration":243902,"SoundDuration":243902,"Delta":207619169},{"NoteNumber":79,"Velocity":61,"Duration":493852,"SoundDuration":493852,"Delta":207863072},{"NoteNumber":64,"Velocity":58,"Duration":245918,"SoundDuration":245918,"Delta":207863072},{"NoteNumber":67,"Velocity":50,"Duration":247934,"SoundDuration":247934,"Delta":208108990},{"NoteNumber":64,"Velocity":58,"Duration":247933,"SoundDuration":247933,"Delta":208356924},{"NoteNumber":61,"Velocity":51,"Duration":260869,"SoundDuration":260869,"Delta":208604858},{"NoteNumber":79,"Velocity":55,"Duration":130434,"SoundDuration":130434,"Delta":208735293},{"NoteNumber":79,"Velocity":60,"Duration":243902,"SoundDuration":243902,"Delta":208865727},{"NoteNumber":57,"Velocity":48,"Duration":983673,"SoundDuration":983673,"Delta":208865727},{"NoteNumber":62,"Velocity":57,"Duration":983673,"SoundDuration":983673,"Delta":208865727},{"NoteNumber":77,"Velocity":58,"Duration":243902,"SoundDuration":243902,"Delta":209109630},{"NoteNumber":76,"Velocity":58,"Duration":247933,"SoundDuration":247933,"Delta":209353532},{"NoteNumber":77,"Velocity":54,"Duration":247934,"SoundDuration":247934,"Delta":209601466},{"NoteNumber":76,"Velocity":58,"Duration":247933,"SoundDuration":247933,"Delta":209849400},{"NoteNumber":56,"Velocity":41,"Duration":495868,"SoundDuration":495868,"Delta":209849400},{"NoteNumber":64,"Velocity":49,"Duration":247933,"SoundDuration":247933,"Delta":209849400},{"NoteNumber":74,"Velocity":55,"Duration":247934,"SoundDuration":247934,"Delta":210097334},{"NoteNumber":65,"Velocity":43,"Duration":247934,"SoundDuration":247934,"Delta":210097334},{"NoteNumber":73,"Velocity":58,"Duration":245901,"SoundDuration":245901,"Delta":210345268},{"NoteNumber":57,"Velocity":44,"Duration":498002,"SoundDuration":498002,"Delta":210345268},{"NoteNumber":64,"Velocity":52,"Duration":498002,"SoundDuration":498002,"Delta":210345268},{"NoteNumber":80,"Velocity":55,"Duration":252101,"SoundDuration":252101,"Delta":210591170},{"NoteNumber":81,"Velocity":58,"Duration":241935,"SoundDuration":241935,"Delta":210843271},{"NoteNumber":80,"Velocity":55,"Duration":245901,"SoundDuration":245901,"Delta":211085206},{"NoteNumber":81,"Velocity":58,"Duration":245901,"SoundDuration":245901,"Delta":211331108},{"NoteNumber":76,"Velocity":55,"Duration":245901,"SoundDuration":245901,"Delta":211577009},{"NoteNumber":79,"Velocity":60,"Duration":243902,"SoundDuration":243902,"Delta":211822911},{"NoteNumber":62,"Velocity":43,"Duration":1479541,"SoundDuration":1479541,"Delta":211822911},{"NoteNumber":58,"Velocity":43,"Duration":1479541,"SoundDuration":1479541,"Delta":211822911},{"NoteNumber":68,"Velocity":51,"Duration":1479541,"SoundDuration":1479541,"Delta":211822911},{"NoteNumber":77,"Velocity":58,"Duration":243902,"SoundDuration":243902,"Delta":212066813},{"NoteNumber":76,"Velocity":58,"Duration":247933,"SoundDuration":247933,"Delta":212310716},{"NoteNumber":77,"Velocity":54,"Duration":247934,"SoundDuration":247934,"Delta":212558650},{"NoteNumber":76,"Velocity":58,"Duration":247933,"SoundDuration":247933,"Delta":212806584},{"NoteNumber":74,"Velocity":55,"Duration":247934,"SoundDuration":247934,"Delta":213054518},{"NoteNumber":81,"Velocity":58,"Duration":243902,"SoundDuration":243902,"Delta":213302452},{"NoteNumber":61,"Velocity":44,"Duration":496003,"SoundDuration":496003,"Delta":213302452},{"NoteNumber":57,"Velocity":44,"Duration":496003,"SoundDuration":496003,"Delta":213302452},{"NoteNumber":69,"Velocity":52,"Duration":496003,"SoundDuration":496003,"Delta":213302452},{"NoteNumber":80,"Velocity":55,"Duration":252101,"SoundDuration":252101,"Delta":213546354},{"NoteNumber":81,"Velocity":58,"Duration":241935,"SoundDuration":241935,"Delta":213798455},{"NoteNumber":76,"Velocity":55,"Duration":247933,"SoundDuration":247933,"Delta":214040391},{"NoteNumber":77,"Velocity":58,"Duration":247934,"SoundDuration":247934,"Delta":214288325},{"NoteNumber":57,"Velocity":37,"Duration":495868,"SoundDuration":495868,"Delta":214288325},{"NoteNumber":62,"Velocity":37,"Duration":495868,"SoundDuration":495868,"Delta":214288325},{"NoteNumber":65,"Velocity":44,"Duration":495868,"SoundDuration":495868,"Delta":214288325},{"NoteNumber":74,"Velocity":55,"Duration":247933,"SoundDuration":247933,"Delta":214536259},{"NoteNumber":81,"Velocity":58,"Duration":243902,"SoundDuration":243902,"Delta":214784193},{"NoteNumber":61,"Velocity":44,"Duration":496003,"SoundDuration":496003,"Delta":214784193},{"NoteNumber":57,"Velocity":44,"Duration":496003,"SoundDuration":496003,"Delta":214784193},{"NoteNumber":64,"Velocity":52,"Duration":496003,"SoundDuration":496003,"Delta":214784193},{"NoteNumber":80,"Velocity":55,"Duration":252101,"SoundDuration":252101,"Delta":215028095},{"NoteNumber":81,"Velocity":58,"Duration":241935,"SoundDuration":241935,"Delta":215280196},{"NoteNumber":76,"Velocity":55,"Duration":245901,"SoundDuration":245901,"Delta":215522132},{"NoteNumber":77,"Velocity":58,"Duration":245901,"SoundDuration":245901,"Delta":215768033},{"NoteNumber":57,"Velocity":37,"Duration":491871,"SoundDuration":491871,"Delta":215768033},{"NoteNumber":62,"Velocity":37,"Duration":491871,"SoundDuration":491871,"Delta":215768033},{"NoteNumber":65,"Velocity":44,"Duration":491871,"SoundDuration":491871,"Delta":215768033},{"NoteNumber":74,"Velocity":49,"Duration":245969,"SoundDuration":245969,"Delta":216013935},{"NoteNumber":69,"Velocity":51,"Duration":250035,"SoundDuration":250035,"Delta":216259905},{"NoteNumber":57,"Velocity":44,"Duration":502385,"SoundDuration":502385,"Delta":216259905},{"NoteNumber":61,"Velocity":44,"Duration":502385,"SoundDuration":502385,"Delta":216259905},{"NoteNumber":64,"Velocity":52,"Duration":502385,"SoundDuration":502385,"Delta":216259905},{"NoteNumber":68,"Velocity":45,"Duration":252350,"SoundDuration":252350,"Delta":216509940},{"NoteNumber":69,"Velocity":51,"Duration":254273,"SoundDuration":254273,"Delta":216762290},{"NoteNumber":68,"Velocity":47,"Duration":256410,"SoundDuration":256410,"Delta":217016564},{"NoteNumber":69,"Velocity":51,"Duration":260586,"SoundDuration":260586,"Delta":217272974},{"NoteNumber":68,"Velocity":44,"Duration":316223,"SoundDuration":316223,"Delta":217533561},{"NoteNumber":66,"Velocity":42,"Duration":283018,"SoundDuration":283018,"Delta":217849785},{"NoteNumber":69,"Velocity":50,"Duration":283018,"SoundDuration":283018,"Delta":217849785},{"NoteNumber":38,"Velocity":37,"Duration":2089065,"SoundDuration":2089065,"Delta":217849785},{"NoteNumber":50,"Velocity":44,"Duration":2089065,"SoundDuration":2089065,"Delta":217849785},{"NoteNumber":57,"Velocity":45,"Duration":270270,"SoundDuration":270270,"Delta":218132804},{"NoteNumber":62,"Velocity":42,"Duration":256410,"SoundDuration":256410,"Delta":218403074},{"NoteNumber":66,"Velocity":50,"Duration":256410,"SoundDuration":256410,"Delta":218403074},{"NoteNumber":57,"Velocity":47,"Duration":245901,"SoundDuration":245901,"Delta":218659485},{"NoteNumber":64,"Velocity":44,"Duration":252101,"SoundDuration":252101,"Delta":218905386},{"NoteNumber":67,"Velocity":52,"Duration":252101,"SoundDuration":252101,"Delta":218905386},{"NoteNumber":57,"Velocity":49,"Duration":270270,"SoundDuration":270270,"Delta":219157487},{"NoteNumber":69,"Velocity":54,"Duration":263158,"SoundDuration":263158,"Delta":219427758},{"NoteNumber":66,"Velocity":45,"Duration":263158,"SoundDuration":263158,"Delta":219427758},{"NoteNumber":62,"Velocity":48,"Duration":247933,"SoundDuration":247933,"Delta":219690916},{"NoteNumber":71,"Velocity":42,"Duration":247933,"SoundDuration":247933,"Delta":219938850},{"NoteNumber":74,"Velocity":50,"Duration":247933,"SoundDuration":247933,"Delta":219938850},{"NoteNumber":69,"Velocity":39,"Duration":250000,"SoundDuration":250000,"Delta":220186784},{"NoteNumber":73,"Velocity":47,"Duration":250000,"SoundDuration":250000,"Delta":220186784},{"NoteNumber":67,"Velocity":42,"Duration":254237,"SoundDuration":254237,"Delta":220436784},{"NoteNumber":71,"Velocity":50,"Duration":254237,"SoundDuration":254237,"Delta":220436784},{"NoteNumber":66,"Velocity":39,"Duration":250000,"SoundDuration":250000,"Delta":220691021},{"NoteNumber":69,"Velocity":47,"Duration":250000,"SoundDuration":250000,"Delta":220691021},{"NoteNumber":67,"Velocity":50,"Duration":247933,"SoundDuration":247933,"Delta":220941021},{"NoteNumber":47,"Velocity":53,"Duration":500034,"SoundDuration":500034,"Delta":220941021},{"NoteNumber":62,"Velocity":45,"Duration":252101,"SoundDuration":252101,"Delta":221188955},{"NoteNumber":66,"Velocity":45,"Duration":250000,"SoundDuration":250000,"Delta":221441056},{"NoteNumber":69,"Velocity":53,"Duration":250000,"SoundDuration":250000,"Delta":221441056},{"NoteNumber":45,"Velocity":49,"Duration":513158,"SoundDuration":513158,"Delta":221441056},{"NoteNumber":62,"Velocity":47,"Duration":263158,"SoundDuration":263158,"Delta":221691056},{"NoteNumber":67,"Velocity":45,"Duration":252101,"SoundDuration":252101,"Delta":221954214},{"NoteNumber":71,"Velocity":54,"Duration":252101,"SoundDuration":252101,"Delta":221954214},{"NoteNumber":43,"Velocity":47,"Duration":515259,"SoundDuration":515259,"Delta":221954214},{"NoteNumber":62,"Velocity":47,"Duration":263158,"SoundDuration":263158,"Delta":222206315},{"NoteNumber":69,"Velocity":54,"Duration":263158,"SoundDuration":263158,"Delta":222469473},{"NoteNumber":66,"Velocity":45,"Duration":263158,"SoundDuration":263158,"Delta":222469473},{"NoteNumber":50,"Velocity":53,"Duration":511091,"SoundDuration":511091,"Delta":222469473},{"NoteNumber":62,"Velocity":48,"Duration":247933,"SoundDuration":247933,"Delta":222732631},{"NoteNumber":71,"Velocity":39,"Duration":247933,"SoundDuration":247933,"Delta":222980565},{"NoteNumber":74,"Velocity":47,"Duration":247933,"SoundDuration":247933,"Delta":222980565},{"NoteNumber":86,"Velocity":55,"Duration":247933,"SoundDuration":247933,"Delta":222980565},{"NoteNumber":69,"Velocity":37,"Duration":250000,"SoundDuration":250000,"Delta":223228499},{"NoteNumber":73,"Velocity":44,"Duration":250000,"SoundDuration":250000,"Delta":223228499},{"NoteNumber":85,"Velocity":51,"Duration":250000,"SoundDuration":250000,"Delta":223228499},{"NoteNumber":67,"Velocity":39,"Duration":254237,"SoundDuration":254237,"Delta":223478499},{"NoteNumber":71,"Velocity":47,"Duration":254237,"SoundDuration":254237,"Delta":223478499},{"NoteNumber":83,"Velocity":55,"Duration":254237,"SoundDuration":254237,"Delta":223478499},{"NoteNumber":66,"Velocity":37,"Duration":250000,"SoundDuration":250000,"Delta":223732737},{"NoteNumber":69,"Velocity":44,"Duration":250000,"SoundDuration":250000,"Delta":223732737},{"NoteNumber":81,"Velocity":51,"Duration":250000,"SoundDuration":250000,"Delta":223732737},{"NoteNumber":64,"Velocity":42,"Duration":247933,"SoundDuration":247933,"Delta":223982737},{"NoteNumber":67,"Velocity":47,"Duration":247933,"SoundDuration":247933,"Delta":223982737},{"NoteNumber":79,"Velocity":55,"Duration":500034,"SoundDuration":500034,"Delta":223982737},{"NoteNumber":62,"Velocity":42,"Duration":252101,"SoundDuration":252101,"Delta":224230671},{"NoteNumber":66,"Velocity":42,"Duration":250000,"SoundDuration":250000,"Delta":224482772},{"NoteNumber":69,"Velocity":50,"Duration":250000,"SoundDuration":250000,"Delta":224482772},{"NoteNumber":81,"Velocity":58,"Duration":513158,"SoundDuration":513158,"Delta":224482772},{"NoteNumber":62,"Velocity":44,"Duration":263158,"SoundDuration":263158,"Delta":224732772},{"NoteNumber":67,"Velocity":42,"Duration":252101,"SoundDuration":252101,"Delta":224995930},{"NoteNumber":71,"Velocity":51,"Duration":252101,"SoundDuration":252101,"Delta":224995930},{"NoteNumber":83,"Velocity":59,"Duration":515259,"SoundDuration":515259,"Delta":224995930},{"NoteNumber":62,"Velocity":44,"Duration":263158,"SoundDuration":263158,"Delta":225248031},{"NoteNumber":69,"Velocity":51,"Duration":263158,"SoundDuration":263158,"Delta":225511189},{"NoteNumber":66,"Velocity":42,"Duration":263158,"SoundDuration":263158,"Delta":225511189},{"NoteNumber":81,"Velocity":59,"Duration":511091,"SoundDuration":511091,"Delta":225511189},{"NoteNumber":62,"Velocity":45,"Duration":247933,"SoundDuration":247933,"Delta":225774347},{"NoteNumber":67,"Velocity":42,"Duration":247933,"SoundDuration":247933,"Delta":226022281},{"NoteNumber":71,"Velocity":50,"Duration":247933,"SoundDuration":247933,"Delta":226022281},{"NoteNumber":66,"Velocity":39,"Duration":250000,"SoundDuration":250000,"Delta":226270215},{"NoteNumber":69,"Velocity":47,"Duration":250000,"SoundDuration":250000,"Delta":226270215},{"NoteNumber":64,"Velocity":42,"Duration":254237,"SoundDuration":254237,"Delta":226520215},{"NoteNumber":67,"Velocity":50,"Duration":254237,"SoundDuration":254237,"Delta":226520215},{"NoteNumber":62,"Velocity":39,"Duration":250000,"SoundDuration":250000,"Delta":226774452},{"NoteNumber":66,"Velocity":47,"Duration":250000,"SoundDuration":250000,"Delta":226774452},{"NoteNumber":61,"Velocity":45,"Duration":247933,"SoundDuration":247933,"Delta":227024452},{"NoteNumber":64,"Velocity":50,"Duration":247933,"SoundDuration":247933,"Delta":227024452},{"NoteNumber":45,"Velocity":53,"Duration":500034,"SoundDuration":500034,"Delta":227024452},{"NoteNumber":57,"Velocity":45,"Duration":252101,"SoundDuration":252101,"Delta":227272386},{"NoteNumber":62,"Velocity":45,"Duration":250000,"SoundDuration":250000,"Delta":227524487},{"NoteNumber":69,"Velocity":53,"Duration":250000,"SoundDuration":250000,"Delta":227524487},{"NoteNumber":42,"Velocity":49,"Duration":513158,"SoundDuration":513158,"Delta":227524487},{"NoteNumber":57,"Velocity":47,"Duration":263158,"SoundDuration":263158,"Delta":227774487},{"NoteNumber":62,"Velocity":45,"Duration":252101,"SoundDuration":252101,"Delta":228037645},{"NoteNumber":66,"Velocity":54,"Duration":252101,"SoundDuration":252101,"Delta":228037645},{"NoteNumber":38,"Velocity":47,"Duration":515259,"SoundDuration":515259,"Delta":228037645},{"NoteNumber":57,"Velocity":47,"Duration":263158,"SoundDuration":263158,"Delta":228289746},{"NoteNumber":64,"Velocity":54,"Duration":263158,"SoundDuration":263158,"Delta":228552904},{"NoteNumber":61,"Velocity":45,"Duration":263158,"SoundDuration":263158,"Delta":228552904},{"NoteNumber":45,"Velocity":53,"Duration":511091,"SoundDuration":511091,"Delta":228552904},{"NoteNumber":57,"Velocity":48,"Duration":247933,"SoundDuration":247933,"Delta":228816062},{"NoteNumber":67,"Velocity":39,"Duration":247933,"SoundDuration":247933,"Delta":229063996},{"NoteNumber":71,"Velocity":47,"Duration":247933,"SoundDuration":247933,"Delta":229063996},{"NoteNumber":83,"Velocity":55,"Duration":247933,"SoundDuration":247933,"Delta":229063996},{"NoteNumber":66,"Velocity":37,"Duration":250000,"SoundDuration":250000,"Delta":229311930},{"NoteNumber":69,"Velocity":44,"Duration":250000,"SoundDuration":250000,"Delta":229311930},{"NoteNumber":81,"Velocity":51,"Duration":250000,"SoundDuration":250000,"Delta":229311930},{"NoteNumber":64,"Velocity":39,"Duration":254237,"SoundDuration":254237,"Delta":229561930},{"NoteNumber":67,"Velocity":47,"Duration":254237,"SoundDuration":254237,"Delta":229561930},{"NoteNumber":79,"Velocity":55,"Duration":254237,"SoundDuration":254237,"Delta":229561930},{"NoteNumber":62,"Velocity":37,"Duration":250000,"SoundDuration":250000,"Delta":229816168},{"NoteNumber":66,"Velocity":44,"Duration":250000,"SoundDuration":250000,"Delta":229816168},{"NoteNumber":78,"Velocity":51,"Duration":187500,"SoundDuration":187500,"Delta":229816168},{"NoteNumber":80,"Velocity":48,"Duration":62500,"SoundDuration":62500,"Delta":230003668},{"NoteNumber":61,"Velocity":42,"Duration":245901,"SoundDuration":245901,"Delta":230066168},{"NoteNumber":64,"Velocity":47,"Duration":245901,"SoundDuration":245901,"Delta":230066168},{"NoteNumber":81,"Velocity":63,"Duration":371951,"SoundDuration":371951,"Delta":230066168},{"NoteNumber":57,"Velocity":42,"Duration":252101,"SoundDuration":252101,"Delta":230312069},{"NoteNumber":80,"Velocity":48,"Duration":63025,"SoundDuration":63025,"Delta":230501145},{"NoteNumber":66,"Velocity":42,"Duration":245901,"SoundDuration":245901,"Delta":230564170},{"NoteNumber":69,"Velocity":50,"Duration":245901,"SoundDuration":245901,"Delta":230564170},{"NoteNumber":81,"Velocity":63,"Duration":371951,"SoundDuration":371951,"Delta":230564170},{"NoteNumber":57,"Velocity":44,"Duration":252101,"SoundDuration":252101,"Delta":230810072},{"NoteNumber":80,"Velocity":48,"Duration":63025,"SoundDuration":63025,"Delta":230999147},{"NoteNumber":62,"Velocity":42,"Duration":247933,"SoundDuration":247933,"Delta":231062173},{"NoteNumber":66,"Velocity":51,"Duration":247933,"SoundDuration":247933,"Delta":231062173},{"NoteNumber":81,"Velocity":64,"Duration":373984,"SoundDuration":373984,"Delta":231062173},{"NoteNumber":57,"Velocity":44,"Duration":252101,"SoundDuration":252101,"Delta":231310107},{"NoteNumber":80,"Velocity":48,"Duration":63025,"SoundDuration":63025,"Delta":231499182},{"NoteNumber":64,"Velocity":51,"Duration":263158,"SoundDuration":263158,"Delta":231562208},{"NoteNumber":61,"Velocity":42,"Duration":263158,"SoundDuration":263158,"Delta":231562208},{"NoteNumber":81,"Velocity":64,"Duration":511091,"SoundDuration":511091,"Delta":231562208},{"NoteNumber":69,"Velocity":45,"Duration":247933,"SoundDuration":247933,"Delta":231825366},{"NoteNumber":62,"Velocity":50,"Duration":1242149,"SoundDuration":1242149,"Delta":232073300},{"NoteNumber":74,"Velocity":64,"Duration":256410,"SoundDuration":256410,"Delta":232073300},{"NoteNumber":59,"Velocity":46,"Duration":256410,"SoundDuration":256410,"Delta":232073300},{"NoteNumber":73,"Velocity":59,"Duration":247933,"SoundDuration":247933,"Delta":232329710},{"NoteNumber":58,"Velocity":41,"Duration":247933,"SoundDuration":247933,"Delta":232329710},{"NoteNumber":74,"Velocity":61,"Duration":243902,"SoundDuration":243902,"Delta":232577644},{"NoteNumber":59,"Velocity":47,"Duration":243902,"SoundDuration":243902,"Delta":232577644},{"NoteNumber":71,"Velocity":54,"Duration":250000,"SoundDuration":250000,"Delta":232821547},{"NoteNumber":55,"Velocity":41,"Duration":250000,"SoundDuration":250000,"Delta":232821547},{"NoteNumber":69,"Velocity":63,"Duration":243902,"SoundDuration":243902,"Delta":233071547},{"NoteNumber":54,"Velocity":48,"Duration":498139,"SoundDuration":498139,"Delta":233071547},{"NoteNumber":57,"Velocity":55,"Duration":254237,"SoundDuration":254237,"Delta":233315449},{"NoteNumber":67,"Velocity":61,"Duration":500312,"SoundDuration":500312,"Delta":233569687},{"NoteNumber":64,"Velocity":54,"Duration":243902,"SoundDuration":243902,"Delta":233569687},{"NoteNumber":52,"Velocity":44,"Duration":500312,"SoundDuration":500312,"Delta":233569687},{"NoteNumber":59,"Velocity":54,"Duration":256410,"SoundDuration":256410,"Delta":233813589},{"NoteNumber":64,"Velocity":61,"Duration":502522,"SoundDuration":502522,"Delta":234070000},{"NoteNumber":61,"Velocity":54,"Duration":243902,"SoundDuration":243902,"Delta":234070000},{"NoteNumber":45,"Velocity":44,"Duration":502522,"SoundDuration":502522,"Delta":234070000},{"NoteNumber":57,"Velocity":51,"Duration":258620,"SoundDuration":258620,"Delta":234313902},{"NoteNumber":62,"Velocity":52,"Duration":368548,"SoundDuration":368548,"Delta":234572523},{"NoteNumber":66,"Velocity":64,"Duration":247933,"SoundDuration":247933,"Delta":234572523},{"NoteNumber":50,"Velocity":49,"Duration":511091,"SoundDuration":511091,"Delta":234572523},{"NoteNumber":69,"Velocity":55,"Duration":263158,"SoundDuration":263158,"Delta":234820457},{"NoteNumber":71,"Velocity":64,"Duration":256410,"SoundDuration":256410,"Delta":235083615},{"NoteNumber":74,"Velocity":64,"Duration":256410,"SoundDuration":256410,"Delta":235083615},{"NoteNumber":86,"Velocity":58,"Duration":256410,"SoundDuration":256410,"Delta":235083615},{"NoteNumber":70,"Velocity":56,"Duration":247933,"SoundDuration":247933,"Delta":235340025},{"NoteNumber":73,"Velocity":56,"Duration":247933,"SoundDuration":247933,"Delta":235340025},{"NoteNumber":85,"Velocity":53,"Duration":247933,"SoundDuration":247933,"Delta":235340025},{"NoteNumber":71,"Velocity":61,"Duration":252101,"SoundDuration":252101,"Delta":235587959},{"NoteNumber":74,"Velocity":61,"Duration":252101,"SoundDuration":252101,"Delta":235587959},{"NoteNumber":86,"Velocity":59,"Duration":252101,"SoundDuration":252101,"Delta":235587959},{"NoteNumber":67,"Velocity":54,"Duration":250000,"SoundDuration":250000,"Delta":235840060},{"NoteNumber":71,"Velocity":54,"Duration":250000,"SoundDuration":250000,"Delta":235840060},{"NoteNumber":83,"Velocity":52,"Duration":250000,"SoundDuration":250000,"Delta":235840060},{"NoteNumber":66,"Velocity":56,"Duration":243902,"SoundDuration":243902,"Delta":236090060},{"NoteNumber":69,"Velocity":66,"Duration":243902,"SoundDuration":243902,"Delta":236090060},{"NoteNumber":81,"Velocity":58,"Duration":498139,"SoundDuration":498139,"Delta":236090060},{"NoteNumber":62,"Velocity":51,"Duration":254237,"SoundDuration":254237,"Delta":236333963},{"NoteNumber":64,"Velocity":54,"Duration":243902,"SoundDuration":243902,"Delta":236588200},{"NoteNumber":67,"Velocity":64,"Duration":243902,"SoundDuration":243902,"Delta":236588200},{"NoteNumber":79,"Velocity":62,"Duration":500312,"SoundDuration":500312,"Delta":236588200},{"NoteNumber":59,"Velocity":51,"Duration":256410,"SoundDuration":256410,"Delta":236832103},{"NoteNumber":61,"Velocity":54,"Duration":243902,"SoundDuration":243902,"Delta":237088513},{"NoteNumber":64,"Velocity":64,"Duration":243902,"SoundDuration":243902,"Delta":237088513},{"NoteNumber":76,"Velocity":59,"Duration":502522,"SoundDuration":502522,"Delta":237088513},{"NoteNumber":57,"Velocity":52,"Duration":258620,"SoundDuration":258620,"Delta":237332416},{"NoteNumber":62,"Velocity":54,"Duration":247933,"SoundDuration":247933,"Delta":237591036},{"NoteNumber":66,"Velocity":64,"Duration":247933,"SoundDuration":247933,"Delta":237591036},{"NoteNumber":74,"Velocity":56,"Duration":502171,"SoundDuration":502171,"Delta":237591036},{"NoteNumber":69,"Velocity":54,"Duration":254237,"SoundDuration":254237,"Delta":237838970},{"NoteNumber":59,"Velocity":50,"Duration":368902,"SoundDuration":368902,"Delta":238093208},{"NoteNumber":69,"Velocity":61,"Duration":243902,"SoundDuration":243902,"Delta":238093208},{"NoteNumber":43,"Velocity":43,"Duration":493902,"SoundDuration":493902,"Delta":238093208},{"NoteNumber":67,"Velocity":51,"Duration":250000,"SoundDuration":250000,"Delta":238337110},{"NoteNumber":64,"Velocity":61,"Duration":245901,"SoundDuration":245901,"Delta":238587110},{"NoteNumber":55,"Velocity":38,"Duration":500138,"SoundDuration":500138,"Delta":238587110},{"NoteNumber":45,"Velocity":32,"Duration":500138,"SoundDuration":500138,"Delta":238587110},{"NoteNumber":61,"Velocity":52,"Duration":254237,"SoundDuration":254237,"Delta":238833012},{"NoteNumber":62,"Velocity":59,"Duration":247933,"SoundDuration":247933,"Delta":239087249},{"NoteNumber":54,"Velocity":43,"Duration":495868,"SoundDuration":495868,"Delta":239087249},{"NoteNumber":50,"Velocity":36,"Duration":495868,"SoundDuration":495868,"Delta":239087249},{"NoteNumber":66,"Velocity":50,"Duration":247934,"SoundDuration":247934,"Delta":239335183},{"NoteNumber":59,"Velocity":50,"Duration":378205,"SoundDuration":378205,"Delta":239583117},{"NoteNumber":69,"Velocity":56,"Duration":250000,"SoundDuration":250000,"Delta":239583117},{"NoteNumber":43,"Velocity":38,"Duration":506410,"SoundDuration":506410,"Delta":239583117},{"NoteNumber":67,"Velocity":50,"Duration":256410,"SoundDuration":256410,"Delta":239833117},{"NoteNumber":64,"Velocity":57,"Duration":256410,"SoundDuration":256410,"Delta":240089528},{"NoteNumber":55,"Velocity":43,"Duration":519568,"SoundDuration":519568,"Delta":240089528},{"NoteNumber":45,"Velocity":36,"Duration":519568,"SoundDuration":519568,"Delta":240089528},{"NoteNumber":61,"Velocity":48,"Duration":263158,"SoundDuration":263158,"Delta":240345938},{"NoteNumber":62,"Velocity":52,"Duration":247933,"SoundDuration":247933,"Delta":240609096},{"NoteNumber":50,"Velocity":34,"Duration":495868,"SoundDuration":495868,"Delta":240609096},{"NoteNumber":54,"Velocity":40,"Duration":495868,"SoundDuration":495868,"Delta":240609096},{"NoteNumber":61,"Velocity":46,"Duration":247934,"SoundDuration":247934,"Delta":240857030},{"NoteNumber":62,"Velocity":52,"Duration":247933,"SoundDuration":247933,"Delta":241104964},{"NoteNumber":64,"Velocity":45,"Duration":247934,"SoundDuration":247934,"Delta":241352898},{"NoteNumber":66,"Velocity":48,"Duration":272727,"SoundDuration":272727,"Delta":241600832},{"NoteNumber":67,"Velocity":48,"Duration":309278,"SoundDuration":309278,"Delta":241873560},{"NoteNumber":66,"Velocity":42,"Duration":283018,"SoundDuration":283018,"Delta":242182838},{"NoteNumber":69,"Velocity":50,"Duration":283018,"SoundDuration":283018,"Delta":242182838},{"NoteNumber":35,"Velocity":37,"Duration":2089065,"SoundDuration":2089065,"Delta":242182838},{"NoteNumber":47,"Velocity":44,"Duration":2089065,"SoundDuration":2089065,"Delta":242182838},{"NoteNumber":59,"Velocity":45,"Duration":270270,"SoundDuration":270270,"Delta":242465857},{"NoteNumber":63,"Velocity":42,"Duration":256410,"SoundDuration":256410,"Delta":242736128},{"NoteNumber":66,"Velocity":50,"Duration":256410,"SoundDuration":256410,"Delta":242736128},{"NoteNumber":59,"Velocity":47,"Duration":245901,"SoundDuration":245901,"Delta":242992538},{"NoteNumber":64,"Velocity":44,"Duration":252101,"SoundDuration":252101,"Delta":243238440},{"NoteNumber":67,"Velocity":52,"Duration":252101,"SoundDuration":252101,"Delta":243238440},{"NoteNumber":59,"Velocity":49,"Duration":270270,"SoundDuration":270270,"Delta":243490541},{"NoteNumber":69,"Velocity":54,"Duration":263158,"SoundDuration":263158,"Delta":243760811},{"NoteNumber":66,"Velocity":45,"Duration":263158,"SoundDuration":263158,"Delta":243760811},{"NoteNumber":59,"Velocity":48,"Duration":247933,"SoundDuration":247933,"Delta":244023969},{"NoteNumber":63,"Velocity":37,"Duration":250000,"SoundDuration":250000,"Delta":244271903},{"NoteNumber":66,"Velocity":45,"Duration":250000,"SoundDuration":250000,"Delta":244271903},{"NoteNumber":84,"Velocity":54,"Duration":250000,"SoundDuration":250000,"Delta":244271903},{"NoteNumber":59,"Velocity":42,"Duration":245901,"SoundDuration":245901,"Delta":244521903},{"NoteNumber":83,"Velocity":50,"Duration":245901,"SoundDuration":245901,"Delta":244521903},{"NoteNumber":64,"Velocity":39,"Duration":247933,"SoundDuration":247933,"Delta":244767805},{"NoteNumber":67,"Velocity":46,"Duration":247933,"SoundDuration":247933,"Delta":244767805},{"NoteNumber":81,"Velocity":54,"Duration":247933,"SoundDuration":247933,"Delta":244767805},{"NoteNumber":59,"Velocity":44,"Duration":258620,"SoundDuration":258620,"Delta":245015739},{"NoteNumber":79,"Velocity":50,"Duration":258620,"SoundDuration":258620,"Delta":245015739},{"NoteNumber":69,"Velocity":48,"Duration":250000,"SoundDuration":250000,"Delta":245274359},{"NoteNumber":66,"Velocity":40,"Duration":250000,"SoundDuration":250000,"Delta":245274359},{"NoteNumber":78,"Velocity":54,"Duration":497933,"SoundDuration":497933,"Delta":245274359},{"NoteNumber":59,"Velocity":43,"Duration":247933,"SoundDuration":247933,"Delta":245524359},{"NoteNumber":63,"Velocity":37,"Duration":247933,"SoundDuration":247933,"Delta":245772293},{"NoteNumber":66,"Velocity":45,"Duration":247933,"SoundDuration":247933,"Delta":245772293},{"NoteNumber":81,"Velocity":54,"Duration":247933,"SoundDuration":247933,"Delta":245772293},{"NoteNumber":59,"Velocity":42,"Duration":245901,"SoundDuration":245901,"Delta":246020227},{"NoteNumber":79,"Velocity":50,"Duration":245901,"SoundDuration":245901,"Delta":246020227},{"NoteNumber":64,"Velocity":39,"Duration":245901,"SoundDuration":245901,"Delta":246266129},{"NoteNumber":67,"Velocity":46,"Duration":245901,"SoundDuration":245901,"Delta":246266129},{"NoteNumber":78,"Velocity":55,"Duration":245901,"SoundDuration":245901,"Delta":246266129},{"NoteNumber":59,"Velocity":44,"Duration":258620,"SoundDuration":258620,"Delta":246512030},{"NoteNumber":76,"Velocity":50,"Duration":258620,"SoundDuration":258620,"Delta":246512030},{"NoteNumber":69,"Velocity":48,"Duration":526680,"SoundDuration":526680,"Delta":246770651},{"NoteNumber":66,"Velocity":40,"Duration":526680,"SoundDuration":526680,"Delta":246770651},{"NoteNumber":75,"Velocity":54,"Duration":526680,"SoundDuration":526680,"Delta":246770651},{"NoteNumber":71,"Velocity":60,"Duration":217741,"SoundDuration":217741,"Delta":247297332},{"NoteNumber":83,"Velocity":71,"Duration":217741,"SoundDuration":217741,"Delta":247297332},{"NoteNumber":47,"Velocity":49,"Duration":217741,"SoundDuration":217741,"Delta":247297332},{"NoteNumber":59,"Velocity":59,"Duration":217741,"SoundDuration":217741,"Delta":247297332},{"NoteNumber":69,"Velocity":56,"Duration":219512,"SoundDuration":219512,"Delta":247539267},{"NoteNumber":81,"Velocity":66,"Duration":219512,"SoundDuration":219512,"Delta":247539267},{"NoteNumber":45,"Velocity":46,"Duration":219512,"SoundDuration":219512,"Delta":247539267},{"NoteNumber":57,"Velocity":55,"Duration":219512,"SoundDuration":219512,"Delta":247539267},{"NoteNumber":67,"Velocity":60,"Duration":223140,"SoundDuration":223140,"Delta":247783170},{"NoteNumber":79,"Velocity":71,"Duration":223140,"SoundDuration":223140,"Delta":247783170},{"NoteNumber":43,"Velocity":49,"Duration":223140,"SoundDuration":223140,"Delta":247783170},{"NoteNumber":55,"Velocity":59,"Duration":223140,"SoundDuration":223140,"Delta":247783170},{"NoteNumber":66,"Velocity":56,"Duration":230769,"SoundDuration":230769,"Delta":248031104},{"NoteNumber":78,"Velocity":67,"Duration":230769,"SoundDuration":230769,"Delta":248031104},{"NoteNumber":42,"Velocity":46,"Duration":230769,"SoundDuration":230769,"Delta":248031104},{"NoteNumber":54,"Velocity":55,"Duration":230769,"SoundDuration":230769,"Delta":248031104},{"NoteNumber":64,"Velocity":62,"Duration":477875,"SoundDuration":477875,"Delta":248287514},{"NoteNumber":76,"Velocity":74,"Duration":477875,"SoundDuration":477875,"Delta":248287514},{"NoteNumber":40,"Velocity":50,"Duration":477875,"SoundDuration":477875,"Delta":248287514},{"NoteNumber":52,"Velocity":60,"Duration":477875,"SoundDuration":477875,"Delta":248287514},{"NoteNumber":64,"Velocity":60,"Duration":461538,"SoundDuration":461538,"Delta":248818487},{"NoteNumber":76,"Velocity":71,"Duration":461538,"SoundDuration":461538,"Delta":248818487},{"NoteNumber":40,"Velocity":46,"Duration":461538,"SoundDuration":461538,"Delta":248818487},{"NoteNumber":52,"Velocity":55,"Duration":461538,"SoundDuration":461538,"Delta":248818487},{"NoteNumber":71,"Velocity":61,"Duration":461538,"SoundDuration":461538,"Delta":249331308},{"NoteNumber":83,"Velocity":73,"Duration":461538,"SoundDuration":461538,"Delta":249331308},{"NoteNumber":47,"Velocity":50,"Duration":461538,"SoundDuration":461538,"Delta":249331308},{"NoteNumber":59,"Velocity":60,"Duration":461538,"SoundDuration":461538,"Delta":249331308},{"NoteNumber":64,"Velocity":60,"Duration":446281,"SoundDuration":446281,"Delta":249844129},{"NoteNumber":76,"Velocity":71,"Duration":446281,"SoundDuration":446281,"Delta":249844129},{"NoteNumber":40,"Velocity":46,"Duration":446281,"SoundDuration":446281,"Delta":249844129},{"NoteNumber":52,"Velocity":55,"Duration":446281,"SoundDuration":446281,"Delta":249844129},{"NoteNumber":71,"Velocity":60,"Duration":219512,"SoundDuration":219512,"Delta":250339997},{"NoteNumber":83,"Velocity":71,"Duration":219512,"SoundDuration":219512,"Delta":250339997},{"NoteNumber":47,"Velocity":49,"Duration":219512,"SoundDuration":219512,"Delta":250339997},{"NoteNumber":59,"Velocity":59,"Duration":219512,"SoundDuration":219512,"Delta":250339997},{"NoteNumber":69,"Velocity":56,"Duration":223140,"SoundDuration":223140,"Delta":250583900},{"NoteNumber":81,"Velocity":66,"Duration":223140,"SoundDuration":223140,"Delta":250583900},{"NoteNumber":45,"Velocity":46,"Duration":223140,"SoundDuration":223140,"Delta":250583900},{"NoteNumber":57,"Velocity":55,"Duration":223140,"SoundDuration":223140,"Delta":250583900},{"NoteNumber":67,"Velocity":60,"Duration":226890,"SoundDuration":226890,"Delta":250831834},{"NoteNumber":79,"Velocity":71,"Duration":226890,"SoundDuration":226890,"Delta":250831834},{"NoteNumber":43,"Velocity":49,"Duration":226890,"SoundDuration":226890,"Delta":250831834},{"NoteNumber":55,"Velocity":59,"Duration":226890,"SoundDuration":226890,"Delta":250831834},{"NoteNumber":66,"Velocity":56,"Duration":234782,"SoundDuration":234782,"Delta":251083935},{"NoteNumber":78,"Velocity":67,"Duration":234782,"SoundDuration":234782,"Delta":251083935},{"NoteNumber":42,"Velocity":46,"Duration":234782,"SoundDuration":234782,"Delta":251083935},{"NoteNumber":54,"Velocity":55,"Duration":234782,"SoundDuration":234782,"Delta":251083935},{"NoteNumber":64,"Velocity":62,"Duration":477875,"SoundDuration":477875,"Delta":251344804},{"NoteNumber":76,"Velocity":74,"Duration":477875,"SoundDuration":477875,"Delta":251344804},{"NoteNumber":40,"Velocity":50,"Duration":477875,"SoundDuration":477875,"Delta":251344804},{"NoteNumber":52,"Velocity":60,"Duration":477875,"SoundDuration":477875,"Delta":251344804},{"NoteNumber":64,"Velocity":60,"Duration":461538,"SoundDuration":461538,"Delta":251875777},{"NoteNumber":76,"Velocity":71,"Duration":461538,"SoundDuration":461538,"Delta":251875777},{"NoteNumber":40,"Velocity":46,"Duration":461538,"SoundDuration":461538,"Delta":251875777},{"NoteNumber":52,"Velocity":55,"Duration":461538,"SoundDuration":461538,"Delta":251875777},{"NoteNumber":71,"Velocity":61,"Duration":461538,"SoundDuration":461538,"Delta":252388598},{"NoteNumber":83,"Velocity":73,"Duration":461538,"SoundDuration":461538,"Delta":252388598},{"NoteNumber":47,"Velocity":50,"Duration":461538,"SoundDuration":461538,"Delta":252388598},{"NoteNumber":59,"Velocity":60,"Duration":461538,"SoundDuration":461538,"Delta":252388598},{"NoteNumber":64,"Velocity":60,"Duration":477875,"SoundDuration":477875,"Delta":252901419},{"NoteNumber":76,"Velocity":71,"Duration":477875,"SoundDuration":477875,"Delta":252901419},{"NoteNumber":40,"Velocity":46,"Duration":477875,"SoundDuration":477875,"Delta":252901419},{"NoteNumber":52,"Velocity":55,"Duration":477875,"SoundDuration":477875,"Delta":252901419},{"NoteNumber":76,"Velocity":50,"Duration":189075,"SoundDuration":189075,"Delta":253432392},{"NoteNumber":74,"Velocity":46,"Duration":193965,"SoundDuration":193965,"Delta":253684493},{"NoteNumber":76,"Velocity":50,"Duration":189075,"SoundDuration":189075,"Delta":253943114},{"NoteNumber":77,"Velocity":47,"Duration":193965,"SoundDuration":193965,"Delta":254195215},{"NoteNumber":79,"Velocity":51,"Duration":512857,"SoundDuration":512857,"Delta":254453835},{"NoteNumber":60,"Velocity":42,"Duration":1021332,"SoundDuration":1021332,"Delta":254453835},{"NoteNumber":64,"Velocity":39,"Duration":254237,"SoundDuration":254237,"Delta":254712456},{"NoteNumber":79,"Velocity":53,"Duration":762712,"SoundDuration":762712,"Delta":254966693},{"NoteNumber":67,"Velocity":42,"Duration":254237,"SoundDuration":254237,"Delta":254966693},{"NoteNumber":64,"Velocity":39,"Duration":254237,"SoundDuration":254237,"Delta":255220931},{"NoteNumber":59,"Velocity":35,"Duration":510648,"SoundDuration":510648,"Delta":255475168},{"NoteNumber":65,"Velocity":42,"Duration":254237,"SoundDuration":254237,"Delta":255475168},{"NoteNumber":79,"Velocity":50,"Duration":256410,"SoundDuration":256410,"Delta":255729406},{"NoteNumber":62,"Velocity":37,"Duration":256410,"SoundDuration":256410,"Delta":255729406},{"NoteNumber":84,"Velocity":55,"Duration":508474,"SoundDuration":508474,"Delta":255985816},{"NoteNumber":60,"Velocity":42,"Duration":1008474,"SoundDuration":1008474,"Delta":255985816},{"NoteNumber":64,"Velocity":37,"Duration":254237,"SoundDuration":254237,"Delta":256240054},{"NoteNumber":79,"Velocity":50,"Duration":500000,"SoundDuration":500000,"Delta":256494291},{"NoteNumber":67,"Velocity":42,"Duration":250000,"SoundDuration":250000,"Delta":256494291},{"NoteNumber":64,"Velocity":37,"Duration":250000,"SoundDuration":250000,"Delta":256744291},{"NoteNumber":59,"Velocity":35,"Duration":508620,"SoundDuration":508620,"Delta":256994291},{"NoteNumber":65,"Velocity":42,"Duration":250000,"SoundDuration":250000,"Delta":256994291},{"NoteNumber":62,"Velocity":38,"Duration":258620,"SoundDuration":258620,"Delta":257244291},{"NoteNumber":79,"Velocity":56,"Duration":498002,"SoundDuration":498002,"Delta":257502912},{"NoteNumber":60,"Velocity":46,"Duration":998002,"SoundDuration":998002,"Delta":257502912},{"NoteNumber":64,"Velocity":42,"Duration":245901,"SoundDuration":245901,"Delta":257755013},{"NoteNumber":79,"Velocity":58,"Duration":754237,"SoundDuration":754237,"Delta":258000914},{"NoteNumber":67,"Velocity":46,"Duration":250000,"SoundDuration":250000,"Delta":258000914},{"NoteNumber":64,"Velocity":42,"Duration":250000,"SoundDuration":250000,"Delta":258250914},{"NoteNumber":59,"Velocity":38,"Duration":508474,"SoundDuration":508474,"Delta":258500914},{"NoteNumber":65,"Velocity":46,"Duration":254237,"SoundDuration":254237,"Delta":258500914},{"NoteNumber":79,"Velocity":55,"Duration":254237,"SoundDuration":254237,"Delta":258755152},{"NoteNumber":62,"Velocity":40,"Duration":254237,"SoundDuration":254237,"Delta":258755152},{"NoteNumber":84,"Velocity":60,"Duration":498002,"SoundDuration":498002,"Delta":259009389},{"NoteNumber":60,"Velocity":46,"Duration":993870,"SoundDuration":993870,"Delta":259009389},{"NoteNumber":64,"Velocity":40,"Duration":245901,"SoundDuration":245901,"Delta":259261490},{"NoteNumber":79,"Velocity":55,"Duration":495867,"SoundDuration":495867,"Delta":259507392},{"NoteNumber":67,"Velocity":46,"Duration":247933,"SoundDuration":247933,"Delta":259507392},{"NoteNumber":64,"Velocity":40,"Duration":247933,"SoundDuration":247933,"Delta":259755326},{"NoteNumber":60,"Velocity":46,"Duration":250000,"SoundDuration":250000,"Delta":260003260},{"NoteNumber":64,"Velocity":41,"Duration":267856,"SoundDuration":267856,"Delta":260253260},{"NoteNumber":79,"Velocity":61,"Duration":133928,"SoundDuration":133928,"Delta":260387188},{"NoteNumber":88,"Velocity":70,"Duration":495901,"SoundDuration":495901,"Delta":260521117},{"NoteNumber":58,"Velocity":53,"Duration":995901,"SoundDuration":995901,"Delta":260521117},{"NoteNumber":60,"Velocity":45,"Duration":245901,"SoundDuration":245901,"Delta":260771117},{"NoteNumber":79,"Velocity":55,"Duration":500000,"SoundDuration":500000,"Delta":261017018},{"NoteNumber":64,"Velocity":51,"Duration":250000,"SoundDuration":250000,"Delta":261017018},{"NoteNumber":67,"Velocity":43,"Duration":250000,"SoundDuration":250000,"Delta":261267018},{"NoteNumber":64,"Velocity":52,"Duration":250000,"SoundDuration":250000,"Delta":261517018},{"NoteNumber":60,"Velocity":46,"Duration":260869,"SoundDuration":260869,"Delta":261767018},{"NoteNumber":79,"Velocity":65,"Duration":130434,"SoundDuration":130434,"Delta":261897453},{"NoteNumber":88,"Velocity":74,"Duration":493902,"SoundDuration":493902,"Delta":262027888},{"NoteNumber":57,"Velocity":58,"Duration":987754,"SoundDuration":987754,"Delta":262027888},{"NoteNumber":61,"Velocity":51,"Duration":243902,"SoundDuration":243902,"Delta":262277888},{"NoteNumber":79,"Velocity":61,"Duration":493852,"SoundDuration":493852,"Delta":262521790},{"NoteNumber":64,"Velocity":58,"Duration":245918,"SoundDuration":245918,"Delta":262521790},{"NoteNumber":67,"Velocity":50,"Duration":247933,"SoundDuration":247933,"Delta":262767708},{"NoteNumber":64,"Velocity":58,"Duration":247933,"SoundDuration":247933,"Delta":263015642},{"NoteNumber":61,"Velocity":51,"Duration":260869,"SoundDuration":260869,"Delta":263263576},{"NoteNumber":79,"Velocity":55,"Duration":130434,"SoundDuration":130434,"Delta":263394011},{"NoteNumber":79,"Velocity":60,"Duration":243902,"SoundDuration":243902,"Delta":263524446},{"NoteNumber":57,"Velocity":48,"Duration":983672,"SoundDuration":983672,"Delta":263524446},{"NoteNumber":62,"Velocity":57,"Duration":983672,"SoundDuration":983672,"Delta":263524446},{"NoteNumber":77,"Velocity":58,"Duration":243902,"SoundDuration":243902,"Delta":263768348},{"NoteNumber":76,"Velocity":58,"Duration":247933,"SoundDuration":247933,"Delta":264012251},{"NoteNumber":77,"Velocity":54,"Duration":247933,"SoundDuration":247933,"Delta":264260185},{"NoteNumber":76,"Velocity":58,"Duration":247934,"SoundDuration":247934,"Delta":264508119},{"NoteNumber":56,"Velocity":41,"Duration":495868,"SoundDuration":495868,"Delta":264508119},{"NoteNumber":64,"Velocity":49,"Duration":247934,"SoundDuration":247934,"Delta":264508119},{"NoteNumber":74,"Velocity":55,"Duration":247933,"SoundDuration":247933,"Delta":264756053},{"NoteNumber":65,"Velocity":43,"Duration":247933,"SoundDuration":247933,"Delta":264756053},{"NoteNumber":73,"Velocity":58,"Duration":245901,"SoundDuration":245901,"Delta":265003987},{"NoteNumber":57,"Velocity":44,"Duration":498002,"SoundDuration":498002,"Delta":265003987},{"NoteNumber":64,"Velocity":52,"Duration":498002,"SoundDuration":498002,"Delta":265003987},{"NoteNumber":80,"Velocity":55,"Duration":252100,"SoundDuration":252100,"Delta":265249888},{"NoteNumber":81,"Velocity":58,"Duration":241935,"SoundDuration":241935,"Delta":265501989},{"NoteNumber":80,"Velocity":55,"Duration":245901,"SoundDuration":245901,"Delta":265743925},{"NoteNumber":81,"Velocity":58,"Duration":245901,"SoundDuration":245901,"Delta":265989826},{"NoteNumber":76,"Velocity":55,"Duration":245901,"SoundDuration":245901,"Delta":266235728},{"NoteNumber":79,"Velocity":60,"Duration":243902,"SoundDuration":243902,"Delta":266481629},{"NoteNumber":62,"Velocity":43,"Duration":1479540,"SoundDuration":1479540,"Delta":266481629},{"NoteNumber":58,"Velocity":43,"Duration":1479540,"SoundDuration":1479540,"Delta":266481629},{"NoteNumber":68,"Velocity":51,"Duration":1479540,"SoundDuration":1479540,"Delta":266481629},{"NoteNumber":77,"Velocity":58,"Duration":243902,"SoundDuration":243902,"Delta":266725532},{"NoteNumber":76,"Velocity":58,"Duration":247933,"SoundDuration":247933,"Delta":266969434},{"NoteNumber":77,"Velocity":54,"Duration":247933,"SoundDuration":247933,"Delta":267217368},{"NoteNumber":76,"Velocity":58,"Duration":247934,"SoundDuration":247934,"Delta":267465302},{"NoteNumber":74,"Velocity":55,"Duration":247933,"SoundDuration":247933,"Delta":267713236},{"NoteNumber":81,"Velocity":58,"Duration":243902,"SoundDuration":243902,"Delta":267961170},{"NoteNumber":61,"Velocity":44,"Duration":496003,"SoundDuration":496003,"Delta":267961170},{"NoteNumber":57,"Velocity":44,"Duration":496003,"SoundDuration":496003,"Delta":267961170},{"NoteNumber":69,"Velocity":52,"Duration":496003,"SoundDuration":496003,"Delta":267961170},{"NoteNumber":80,"Velocity":55,"Duration":252100,"SoundDuration":252100,"Delta":268205073},{"NoteNumber":81,"Velocity":58,"Duration":241935,"SoundDuration":241935,"Delta":268457174},{"NoteNumber":76,"Velocity":55,"Duration":247933,"SoundDuration":247933,"Delta":268699109},{"NoteNumber":77,"Velocity":58,"Duration":247933,"SoundDuration":247933,"Delta":268947043},{"NoteNumber":57,"Velocity":37,"Duration":495868,"SoundDuration":495868,"Delta":268947043},{"NoteNumber":62,"Velocity":37,"Duration":495868,"SoundDuration":495868,"Delta":268947043},{"NoteNumber":65,"Velocity":44,"Duration":495868,"SoundDuration":495868,"Delta":268947043},{"NoteNumber":74,"Velocity":55,"Duration":247934,"SoundDuration":247934,"Delta":269194977},{"NoteNumber":81,"Velocity":58,"Duration":243902,"SoundDuration":243902,"Delta":269442911},{"NoteNumber":61,"Velocity":44,"Duration":496003,"SoundDuration":496003,"Delta":269442911},{"NoteNumber":57,"Velocity":44,"Duration":496003,"SoundDuration":496003,"Delta":269442911},{"NoteNumber":64,"Velocity":52,"Duration":496003,"SoundDuration":496003,"Delta":269442911},{"NoteNumber":80,"Velocity":55,"Duration":252100,"SoundDuration":252100,"Delta":269686814},{"NoteNumber":81,"Velocity":58,"Duration":241935,"SoundDuration":241935,"Delta":269938915},{"NoteNumber":76,"Velocity":55,"Duration":245901,"SoundDuration":245901,"Delta":270180850},{"NoteNumber":77,"Velocity":58,"Duration":245901,"SoundDuration":245901,"Delta":270426752},{"NoteNumber":57,"Velocity":37,"Duration":491871,"SoundDuration":491871,"Delta":270426752},{"NoteNumber":62,"Velocity":37,"Duration":491871,"SoundDuration":491871,"Delta":270426752},{"NoteNumber":65,"Velocity":44,"Duration":491871,"SoundDuration":491871,"Delta":270426752},{"NoteNumber":74,"Velocity":49,"Duration":245969,"SoundDuration":245969,"Delta":270672653},{"NoteNumber":69,"Velocity":51,"Duration":250035,"SoundDuration":250035,"Delta":270918623},{"NoteNumber":57,"Velocity":44,"Duration":502385,"SoundDuration":502385,"Delta":270918623},{"NoteNumber":61,"Velocity":44,"Duration":502385,"SoundDuration":502385,"Delta":270918623},{"NoteNumber":64,"Velocity":52,"Duration":502385,"SoundDuration":502385,"Delta":270918623},{"NoteNumber":68,"Velocity":45,"Duration":252350,"SoundDuration":252350,"Delta":271168658},{"NoteNumber":69,"Velocity":51,"Duration":254273,"SoundDuration":254273,"Delta":271421009},{"NoteNumber":68,"Velocity":47,"Duration":256410,"SoundDuration":256410,"Delta":271675282},{"NoteNumber":69,"Velocity":51,"Duration":262218,"SoundDuration":262218,"Delta":271931693},{"NoteNumber":68,"Velocity":44,"Duration":300000,"SoundDuration":300000,"Delta":272193911},{"NoteNumber":66,"Velocity":42,"Duration":283019,"SoundDuration":283019,"Delta":272493911},{"NoteNumber":69,"Velocity":50,"Duration":283019,"SoundDuration":283019,"Delta":272493911},{"NoteNumber":38,"Velocity":37,"Duration":2089064,"SoundDuration":2089064,"Delta":272493911},{"NoteNumber":50,"Velocity":44,"Duration":2089064,"SoundDuration":2089064,"Delta":272493911},{"NoteNumber":57,"Velocity":45,"Duration":270270,"SoundDuration":270270,"Delta":272776930},{"NoteNumber":62,"Velocity":42,"Duration":256410,"SoundDuration":256410,"Delta":273047200},{"NoteNumber":66,"Velocity":50,"Duration":256410,"SoundDuration":256410,"Delta":273047200},{"NoteNumber":57,"Velocity":47,"Duration":245901,"SoundDuration":245901,"Delta":273303611},{"NoteNumber":64,"Velocity":44,"Duration":252100,"SoundDuration":252100,"Delta":273549512},{"NoteNumber":67,"Velocity":52,"Duration":252100,"SoundDuration":252100,"Delta":273549512},{"NoteNumber":57,"Velocity":49,"Duration":270270,"SoundDuration":270270,"Delta":273801613},{"NoteNumber":69,"Velocity":54,"Duration":263157,"SoundDuration":263157,"Delta":274071884},{"NoteNumber":66,"Velocity":45,"Duration":263157,"SoundDuration":263157,"Delta":274071884},{"NoteNumber":62,"Velocity":48,"Duration":247933,"SoundDuration":247933,"Delta":274335042},{"NoteNumber":71,"Velocity":42,"Duration":247933,"SoundDuration":247933,"Delta":274582976},{"NoteNumber":74,"Velocity":50,"Duration":247933,"SoundDuration":247933,"Delta":274582976},{"NoteNumber":69,"Velocity":39,"Duration":250000,"SoundDuration":250000,"Delta":274830910},{"NoteNumber":73,"Velocity":47,"Duration":250000,"SoundDuration":250000,"Delta":274830910},{"NoteNumber":67,"Velocity":42,"Duration":254237,"SoundDuration":254237,"Delta":275080910},{"NoteNumber":71,"Velocity":50,"Duration":254237,"SoundDuration":254237,"Delta":275080910},{"NoteNumber":66,"Velocity":39,"Duration":250000,"SoundDuration":250000,"Delta":275335147},{"NoteNumber":69,"Velocity":47,"Duration":250000,"SoundDuration":250000,"Delta":275335147},{"NoteNumber":67,"Velocity":50,"Duration":247933,"SoundDuration":247933,"Delta":275585147},{"NoteNumber":47,"Velocity":53,"Duration":500034,"SoundDuration":500034,"Delta":275585147},{"NoteNumber":62,"Velocity":45,"Duration":252100,"SoundDuration":252100,"Delta":275833081},{"NoteNumber":66,"Velocity":45,"Duration":250000,"SoundDuration":250000,"Delta":276085182},{"NoteNumber":69,"Velocity":53,"Duration":250000,"SoundDuration":250000,"Delta":276085182},{"NoteNumber":45,"Velocity":49,"Duration":513157,"SoundDuration":513157,"Delta":276085182},{"NoteNumber":62,"Velocity":47,"Duration":263157,"SoundDuration":263157,"Delta":276335182},{"NoteNumber":67,"Velocity":45,"Duration":252100,"SoundDuration":252100,"Delta":276598340},{"NoteNumber":71,"Velocity":54,"Duration":252100,"SoundDuration":252100,"Delta":276598340},{"NoteNumber":43,"Velocity":47,"Duration":515258,"SoundDuration":515258,"Delta":276598340},{"NoteNumber":62,"Velocity":47,"Duration":263157,"SoundDuration":263157,"Delta":276850441},{"NoteNumber":69,"Velocity":54,"Duration":263157,"SoundDuration":263157,"Delta":277113599},{"NoteNumber":66,"Velocity":45,"Duration":263157,"SoundDuration":263157,"Delta":277113599},{"NoteNumber":50,"Velocity":53,"Duration":511091,"SoundDuration":511091,"Delta":277113599},{"NoteNumber":62,"Velocity":48,"Duration":247933,"SoundDuration":247933,"Delta":277376757},{"NoteNumber":71,"Velocity":39,"Duration":247933,"SoundDuration":247933,"Delta":277624691},{"NoteNumber":74,"Velocity":47,"Duration":247933,"SoundDuration":247933,"Delta":277624691},{"NoteNumber":86,"Velocity":55,"Duration":247933,"SoundDuration":247933,"Delta":277624691},{"NoteNumber":69,"Velocity":37,"Duration":250000,"SoundDuration":250000,"Delta":277872625},{"NoteNumber":73,"Velocity":44,"Duration":250000,"SoundDuration":250000,"Delta":277872625},{"NoteNumber":85,"Velocity":51,"Duration":250000,"SoundDuration":250000,"Delta":277872625},{"NoteNumber":67,"Velocity":39,"Duration":254237,"SoundDuration":254237,"Delta":278122625},{"NoteNumber":71,"Velocity":47,"Duration":254237,"SoundDuration":254237,"Delta":278122625},{"NoteNumber":83,"Velocity":55,"Duration":254237,"SoundDuration":254237,"Delta":278122625},{"NoteNumber":66,"Velocity":37,"Duration":250000,"SoundDuration":250000,"Delta":278376863},{"NoteNumber":69,"Velocity":44,"Duration":250000,"SoundDuration":250000,"Delta":278376863},{"NoteNumber":81,"Velocity":51,"Duration":250000,"SoundDuration":250000,"Delta":278376863},{"NoteNumber":64,"Velocity":42,"Duration":247933,"SoundDuration":247933,"Delta":278626863},{"NoteNumber":67,"Velocity":47,"Duration":247933,"SoundDuration":247933,"Delta":278626863},{"NoteNumber":79,"Velocity":55,"Duration":500034,"SoundDuration":500034,"Delta":278626863},{"NoteNumber":62,"Velocity":42,"Duration":252100,"SoundDuration":252100,"Delta":278874797},{"NoteNumber":66,"Velocity":42,"Duration":250000,"SoundDuration":250000,"Delta":279126898},{"NoteNumber":69,"Velocity":50,"Duration":250000,"SoundDuration":250000,"Delta":279126898},{"NoteNumber":81,"Velocity":58,"Duration":513157,"SoundDuration":513157,"Delta":279126898},{"NoteNumber":62,"Velocity":44,"Duration":263157,"SoundDuration":263157,"Delta":279376898},{"NoteNumber":67,"Velocity":42,"Duration":252100,"SoundDuration":252100,"Delta":279640056},{"NoteNumber":71,"Velocity":51,"Duration":252100,"SoundDuration":252100,"Delta":279640056},{"NoteNumber":83,"Velocity":59,"Duration":515258,"SoundDuration":515258,"Delta":279640056},{"NoteNumber":62,"Velocity":44,"Duration":263157,"SoundDuration":263157,"Delta":279892157},{"NoteNumber":69,"Velocity":51,"Duration":263157,"SoundDuration":263157,"Delta":280155315},{"NoteNumber":66,"Velocity":42,"Duration":263157,"SoundDuration":263157,"Delta":280155315},{"NoteNumber":81,"Velocity":59,"Duration":511091,"SoundDuration":511091,"Delta":280155315},{"NoteNumber":62,"Velocity":45,"Duration":247933,"SoundDuration":247933,"Delta":280418473},{"NoteNumber":67,"Velocity":42,"Duration":247933,"SoundDuration":247933,"Delta":280666407},{"NoteNumber":71,"Velocity":50,"Duration":247933,"SoundDuration":247933,"Delta":280666407},{"NoteNumber":66,"Velocity":39,"Duration":250000,"SoundDuration":250000,"Delta":280914341},{"NoteNumber":69,"Velocity":47,"Duration":250000,"SoundDuration":250000,"Delta":280914341},{"NoteNumber":64,"Velocity":42,"Duration":254237,"SoundDuration":254237,"Delta":281164341},{"NoteNumber":67,"Velocity":50,"Duration":254237,"SoundDuration":254237,"Delta":281164341},{"NoteNumber":62,"Velocity":39,"Duration":250000,"SoundDuration":250000,"Delta":281418578},{"NoteNumber":66,"Velocity":47,"Duration":250000,"SoundDuration":250000,"Delta":281418578},{"NoteNumber":61,"Velocity":45,"Duration":247933,"SoundDuration":247933,"Delta":281668578},{"NoteNumber":64,"Velocity":50,"Duration":247933,"SoundDuration":247933,"Delta":281668578},{"NoteNumber":45,"Velocity":53,"Duration":500034,"SoundDuration":500034,"Delta":281668578},{"NoteNumber":57,"Velocity":45,"Duration":252100,"SoundDuration":252100,"Delta":281916512},{"NoteNumber":62,"Velocity":45,"Duration":250000,"SoundDuration":250000,"Delta":282168613},{"NoteNumber":69,"Velocity":53,"Duration":250000,"SoundDuration":250000,"Delta":282168613},{"NoteNumber":42,"Velocity":49,"Duration":513157,"SoundDuration":513157,"Delta":282168613},{"NoteNumber":57,"Velocity":47,"Duration":263157,"SoundDuration":263157,"Delta":282418613},{"NoteNumber":62,"Velocity":45,"Duration":252100,"SoundDuration":252100,"Delta":282681771},{"NoteNumber":66,"Velocity":54,"Duration":252100,"SoundDuration":252100,"Delta":282681771},{"NoteNumber":38,"Velocity":47,"Duration":515258,"SoundDuration":515258,"Delta":282681771},{"NoteNumber":57,"Velocity":47,"Duration":263157,"SoundDuration":263157,"Delta":282933872},{"NoteNumber":64,"Velocity":54,"Duration":263157,"SoundDuration":263157,"Delta":283197030},{"NoteNumber":61,"Velocity":45,"Duration":263157,"SoundDuration":263157,"Delta":283197030},{"NoteNumber":45,"Velocity":53,"Duration":511091,"SoundDuration":511091,"Delta":283197030},{"NoteNumber":57,"Velocity":48,"Duration":247933,"SoundDuration":247933,"Delta":283460188},{"NoteNumber":67,"Velocity":39,"Duration":247933,"SoundDuration":247933,"Delta":283708122},{"NoteNumber":71,"Velocity":47,"Duration":247933,"SoundDuration":247933,"Delta":283708122},{"NoteNumber":83,"Velocity":55,"Duration":247933,"SoundDuration":247933,"Delta":283708122},{"NoteNumber":66,"Velocity":37,"Duration":250000,"SoundDuration":250000,"Delta":283956056},{"NoteNumber":69,"Velocity":44,"Duration":250000,"SoundDuration":250000,"Delta":283956056},{"NoteNumber":81,"Velocity":51,"Duration":250000,"SoundDuration":250000,"Delta":283956056},{"NoteNumber":64,"Velocity":39,"Duration":254237,"SoundDuration":254237,"Delta":284206056},{"NoteNumber":67,"Velocity":47,"Duration":254237,"SoundDuration":254237,"Delta":284206056},{"NoteNumber":79,"Velocity":55,"Duration":254237,"SoundDuration":254237,"Delta":284206056},{"NoteNumber":62,"Velocity":37,"Duration":250000,"SoundDuration":250000,"Delta":284460294},{"NoteNumber":66,"Velocity":44,"Duration":250000,"SoundDuration":250000,"Delta":284460294},{"NoteNumber":78,"Velocity":51,"Duration":187500,"SoundDuration":187500,"Delta":284460294},{"NoteNumber":80,"Velocity":48,"Duration":62500,"SoundDuration":62500,"Delta":284647794},{"NoteNumber":61,"Velocity":42,"Duration":245901,"SoundDuration":245901,"Delta":284710294},{"NoteNumber":64,"Velocity":47,"Duration":245901,"SoundDuration":245901,"Delta":284710294},{"NoteNumber":81,"Velocity":63,"Duration":371952,"SoundDuration":371952,"Delta":284710294},{"NoteNumber":57,"Velocity":42,"Duration":252100,"SoundDuration":252100,"Delta":284956195},{"NoteNumber":80,"Velocity":48,"Duration":63025,"SoundDuration":63025,"Delta":285145271},{"NoteNumber":66,"Velocity":42,"Duration":245901,"SoundDuration":245901,"Delta":285208296},{"NoteNumber":69,"Velocity":50,"Duration":245901,"SoundDuration":245901,"Delta":285208296},{"NoteNumber":81,"Velocity":63,"Duration":371952,"SoundDuration":371952,"Delta":285208296},{"NoteNumber":57,"Velocity":44,"Duration":252100,"SoundDuration":252100,"Delta":285454198},{"NoteNumber":80,"Velocity":48,"Duration":63025,"SoundDuration":63025,"Delta":285643274},{"NoteNumber":62,"Velocity":42,"Duration":247933,"SoundDuration":247933,"Delta":285706299},{"NoteNumber":66,"Velocity":51,"Duration":247933,"SoundDuration":247933,"Delta":285706299},{"NoteNumber":81,"Velocity":64,"Duration":373984,"SoundDuration":373984,"Delta":285706299},{"NoteNumber":57,"Velocity":44,"Duration":252100,"SoundDuration":252100,"Delta":285954233},{"NoteNumber":80,"Velocity":48,"Duration":63025,"SoundDuration":63025,"Delta":286143309},{"NoteNumber":64,"Velocity":51,"Duration":263157,"SoundDuration":263157,"Delta":286206334},{"NoteNumber":61,"Velocity":42,"Duration":263157,"SoundDuration":263157,"Delta":286206334},{"NoteNumber":81,"Velocity":64,"Duration":511091,"SoundDuration":511091,"Delta":286206334},{"NoteNumber":69,"Velocity":45,"Duration":247933,"SoundDuration":247933,"Delta":286469492},{"NoteNumber":62,"Velocity":50,"Duration":1242149,"SoundDuration":1242149,"Delta":286717426},{"NoteNumber":74,"Velocity":64,"Duration":256410,"SoundDuration":256410,"Delta":286717426},{"NoteNumber":59,"Velocity":46,"Duration":256410,"SoundDuration":256410,"Delta":286717426},{"NoteNumber":73,"Velocity":59,"Duration":247933,"SoundDuration":247933,"Delta":286973836},{"NoteNumber":58,"Velocity":41,"Duration":247933,"SoundDuration":247933,"Delta":286973836},{"NoteNumber":74,"Velocity":61,"Duration":243902,"SoundDuration":243902,"Delta":287221770},{"NoteNumber":59,"Velocity":47,"Duration":243902,"SoundDuration":243902,"Delta":287221770},{"NoteNumber":71,"Velocity":54,"Duration":250000,"SoundDuration":250000,"Delta":287465673},{"NoteNumber":55,"Velocity":41,"Duration":250000,"SoundDuration":250000,"Delta":287465673},{"NoteNumber":69,"Velocity":63,"Duration":243902,"SoundDuration":243902,"Delta":287715673},{"NoteNumber":54,"Velocity":48,"Duration":498139,"SoundDuration":498139,"Delta":287715673},{"NoteNumber":57,"Velocity":55,"Duration":254237,"SoundDuration":254237,"Delta":287959575},{"NoteNumber":67,"Velocity":61,"Duration":500313,"SoundDuration":500313,"Delta":288213813},{"NoteNumber":64,"Velocity":54,"Duration":243902,"SoundDuration":243902,"Delta":288213813},{"NoteNumber":52,"Velocity":44,"Duration":500313,"SoundDuration":500313,"Delta":288213813},{"NoteNumber":59,"Velocity":54,"Duration":256410,"SoundDuration":256410,"Delta":288457715},{"NoteNumber":64,"Velocity":61,"Duration":502522,"SoundDuration":502522,"Delta":288714126},{"NoteNumber":61,"Velocity":54,"Duration":243902,"SoundDuration":243902,"Delta":288714126},{"NoteNumber":45,"Velocity":44,"Duration":502522,"SoundDuration":502522,"Delta":288714126},{"NoteNumber":57,"Velocity":51,"Duration":258620,"SoundDuration":258620,"Delta":288958028},{"NoteNumber":62,"Velocity":52,"Duration":368548,"SoundDuration":368548,"Delta":289216649},{"NoteNumber":66,"Velocity":64,"Duration":247933,"SoundDuration":247933,"Delta":289216649},{"NoteNumber":50,"Velocity":49,"Duration":511091,"SoundDuration":511091,"Delta":289216649},{"NoteNumber":69,"Velocity":55,"Duration":263157,"SoundDuration":263157,"Delta":289464583},{"NoteNumber":71,"Velocity":64,"Duration":256410,"SoundDuration":256410,"Delta":289727741},{"NoteNumber":74,"Velocity":64,"Duration":256410,"SoundDuration":256410,"Delta":289727741},{"NoteNumber":86,"Velocity":58,"Duration":256410,"SoundDuration":256410,"Delta":289727741},{"NoteNumber":70,"Velocity":56,"Duration":247933,"SoundDuration":247933,"Delta":289984151},{"NoteNumber":73,"Velocity":56,"Duration":247933,"SoundDuration":247933,"Delta":289984151},{"NoteNumber":85,"Velocity":53,"Duration":247933,"SoundDuration":247933,"Delta":289984151},{"NoteNumber":71,"Velocity":61,"Duration":252100,"SoundDuration":252100,"Delta":290232085},{"NoteNumber":74,"Velocity":61,"Duration":252100,"SoundDuration":252100,"Delta":290232085},{"NoteNumber":86,"Velocity":59,"Duration":252100,"SoundDuration":252100,"Delta":290232085},{"NoteNumber":67,"Velocity":54,"Duration":250000,"SoundDuration":250000,"Delta":290484186},{"NoteNumber":71,"Velocity":54,"Duration":250000,"SoundDuration":250000,"Delta":290484186},{"NoteNumber":83,"Velocity":52,"Duration":250000,"SoundDuration":250000,"Delta":290484186},{"NoteNumber":66,"Velocity":56,"Duration":243902,"SoundDuration":243902,"Delta":290734186},{"NoteNumber":69,"Velocity":66,"Duration":243902,"SoundDuration":243902,"Delta":290734186},{"NoteNumber":81,"Velocity":58,"Duration":498139,"SoundDuration":498139,"Delta":290734186},{"NoteNumber":62,"Velocity":51,"Duration":254237,"SoundDuration":254237,"Delta":290978089},{"NoteNumber":64,"Velocity":54,"Duration":243902,"SoundDuration":243902,"Delta":291232326},{"NoteNumber":67,"Velocity":64,"Duration":243902,"SoundDuration":243902,"Delta":291232326},{"NoteNumber":79,"Velocity":62,"Duration":500313,"SoundDuration":500313,"Delta":291232326},{"NoteNumber":59,"Velocity":51,"Duration":256410,"SoundDuration":256410,"Delta":291476229},{"NoteNumber":61,"Velocity":54,"Duration":243902,"SoundDuration":243902,"Delta":291732639},{"NoteNumber":64,"Velocity":64,"Duration":243902,"SoundDuration":243902,"Delta":291732639},{"NoteNumber":76,"Velocity":59,"Duration":502522,"SoundDuration":502522,"Delta":291732639},{"NoteNumber":57,"Velocity":52,"Duration":258620,"SoundDuration":258620,"Delta":291976542},{"NoteNumber":62,"Velocity":54,"Duration":247933,"SoundDuration":247933,"Delta":292235162},{"NoteNumber":66,"Velocity":64,"Duration":247933,"SoundDuration":247933,"Delta":292235162},{"NoteNumber":74,"Velocity":56,"Duration":502171,"SoundDuration":502171,"Delta":292235162},{"NoteNumber":69,"Velocity":54,"Duration":254237,"SoundDuration":254237,"Delta":292483096},{"NoteNumber":59,"Velocity":50,"Duration":368902,"SoundDuration":368902,"Delta":292737334},{"NoteNumber":69,"Velocity":61,"Duration":243902,"SoundDuration":243902,"Delta":292737334},{"NoteNumber":43,"Velocity":43,"Duration":493902,"SoundDuration":493902,"Delta":292737334},{"NoteNumber":67,"Velocity":51,"Duration":250000,"SoundDuration":250000,"Delta":292981236},{"NoteNumber":64,"Velocity":61,"Duration":245901,"SoundDuration":245901,"Delta":293231236},{"NoteNumber":55,"Velocity":38,"Duration":500138,"SoundDuration":500138,"Delta":293231236},{"NoteNumber":45,"Velocity":32,"Duration":500138,"SoundDuration":500138,"Delta":293231236},{"NoteNumber":61,"Velocity":52,"Duration":254237,"SoundDuration":254237,"Delta":293477138},{"NoteNumber":62,"Velocity":59,"Duration":247933,"SoundDuration":247933,"Delta":293731375},{"NoteNumber":54,"Velocity":43,"Duration":495867,"SoundDuration":495867,"Delta":293731375},{"NoteNumber":50,"Velocity":36,"Duration":495867,"SoundDuration":495867,"Delta":293731375},{"NoteNumber":66,"Velocity":50,"Duration":247933,"SoundDuration":247933,"Delta":293979309},{"NoteNumber":59,"Velocity":50,"Duration":378205,"SoundDuration":378205,"Delta":294227243},{"NoteNumber":69,"Velocity":56,"Duration":250000,"SoundDuration":250000,"Delta":294227243},{"NoteNumber":43,"Velocity":38,"Duration":506410,"SoundDuration":506410,"Delta":294227243},{"NoteNumber":67,"Velocity":50,"Duration":256410,"SoundDuration":256410,"Delta":294477243},{"NoteNumber":64,"Velocity":57,"Duration":256410,"SoundDuration":256410,"Delta":294733654},{"NoteNumber":55,"Velocity":43,"Duration":519568,"SoundDuration":519568,"Delta":294733654},{"NoteNumber":45,"Velocity":36,"Duration":519568,"SoundDuration":519568,"Delta":294733654},{"NoteNumber":61,"Velocity":48,"Duration":263157,"SoundDuration":263157,"Delta":294990064},{"NoteNumber":62,"Velocity":52,"Duration":618557,"SoundDuration":618557,"Delta":295253222},{"NoteNumber":50,"Velocity":34,"Duration":618557,"SoundDuration":618557,"Delta":295253222},{"NoteNumber":54,"Velocity":40,"Duration":618557,"SoundDuration":618557,"Delta":295253222},{"NoteNumber":38,"Velocity":40,"Duration":309278,"SoundDuration":309278,"Delta":295871779},{"NoteNumber":61,"Velocity":64,"Duration":66371,"SoundDuration":66371,"Delta":297108893},{"NoteNumber":64,"Velocity":64,"Duration":66371,"SoundDuration":66371,"Delta":297175265},{"NoteNumber":69,"Velocity":76,"Duration":929202,"SoundDuration":929202,"Delta":297241637},{"NoteNumber":45,"Velocity":59,"Duration":929202,"SoundDuration":929202,"Delta":297241637},{"NoteNumber":57,"Velocity":70,"Duration":929202,"SoundDuration":929202,"Delta":297241637},{"NoteNumber":64,"Velocity":70,"Duration":476189,"SoundDuration":476189,"Delta":298170839},{"NoteNumber":40,"Velocity":53,"Duration":476189,"SoundDuration":476189,"Delta":298170839},{"NoteNumber":52,"Velocity":63,"Duration":476189,"SoundDuration":476189,"Delta":298170839},{"NoteNumber":73,"Velocity":72,"Duration":247933,"SoundDuration":247933,"Delta":298647029},{"NoteNumber":49,"Velocity":48,"Duration":480491,"SoundDuration":480491,"Delta":298647029},{"NoteNumber":61,"Velocity":57,"Duration":480491,"SoundDuration":480491,"Delta":298647029},{"NoteNumber":74,"Velocity":74,"Duration":116279,"SoundDuration":116279,"Delta":298894963},{"NoteNumber":71,"Velocity":70,"Duration":116278,"SoundDuration":116278,"Delta":299011242},{"NoteNumber":69,"Velocity":70,"Duration":240000,"SoundDuration":240000,"Delta":299127521},{"NoteNumber":45,"Velocity":45,"Duration":240000,"SoundDuration":240000,"Delta":299127521},{"NoteNumber":57,"Velocity":53,"Duration":240000,"SoundDuration":240000,"Delta":299127521},{"NoteNumber":73,"Velocity":50,"Duration":240000,"SoundDuration":240000,"Delta":300087521},{"NoteNumber":74,"Velocity":52,"Duration":120000,"SoundDuration":120000,"Delta":300327521},{"NoteNumber":71,"Velocity":46,"Duration":120000,"SoundDuration":120000,"Delta":300447521},{"NoteNumber":69,"Velocity":49,"Duration":492100,"SoundDuration":492100,"Delta":300567521},{"NoteNumber":85,"Velocity":57,"Duration":236220,"SoundDuration":236220,"Delta":301059622},{"NoteNumber":57,"Velocity":40,"Duration":236220,"SoundDuration":236220,"Delta":301059622},{"NoteNumber":66,"Velocity":40,"Duration":236220,"SoundDuration":236220,"Delta":301059622},{"NoteNumber":75,"Velocity":50,"Duration":472441,"SoundDuration":472441,"Delta":301541744},{"NoteNumber":59,"Velocity":40,"Duration":472441,"SoundDuration":472441,"Delta":301541744},{"NoteNumber":69,"Velocity":40,"Duration":472441,"SoundDuration":472441,"Delta":301541744},{"NoteNumber":76,"Velocity":52,"Duration":708661,"SoundDuration":708661,"Delta":302014185},{"NoteNumber":64,"Velocity":40,"Duration":472441,"SoundDuration":472441,"Delta":302014185},{"NoteNumber":68,"Velocity":40,"Duration":472441,"SoundDuration":472441,"Delta":302014185},{"NoteNumber":77,"Velocity":51,"Duration":216535,"SoundDuration":216535,"Delta":302722847},{"NoteNumber":80,"Velocity":57,"Duration":229007,"SoundDuration":229007,"Delta":302959067},{"NoteNumber":78,"Velocity":56,"Duration":236220,"SoundDuration":236220,"Delta":303188075},{"NoteNumber":76,"Velocity":54,"Duration":227272,"SoundDuration":227272,"Delta":303424295},{"NoteNumber":74,"Velocity":53,"Duration":236220,"SoundDuration":236220,"Delta":303651568},{"NoteNumber":73,"Velocity":52,"Duration":236220,"SoundDuration":236220,"Delta":303887788},{"NoteNumber":71,"Velocity":51,"Duration":245901,"SoundDuration":245901,"Delta":304124009},{"NoteNumber":69,"Velocity":51,"Duration":236220,"SoundDuration":236220,"Delta":304369910},{"NoteNumber":52,"Velocity":39,"Duration":236220,"SoundDuration":236220,"Delta":304369910},{"NoteNumber":68,"Velocity":46,"Duration":236220,"SoundDuration":236220,"Delta":304606131},{"NoteNumber":62,"Velocity":33,"Duration":236220,"SoundDuration":236220,"Delta":304606131},{"NoteNumber":76,"Velocity":53,"Duration":227272,"SoundDuration":227272,"Delta":304842351},{"NoteNumber":59,"Velocity":33,"Duration":227272,"SoundDuration":227272,"Delta":304842351},{"NoteNumber":74,"Velocity":51,"Duration":230769,"SoundDuration":230769,"Delta":305069624},{"NoteNumber":62,"Velocity":28,"Duration":230769,"SoundDuration":230769,"Delta":305069624},{"NoteNumber":59,"Velocity":31,"Duration":236220,"SoundDuration":236220,"Delta":305300393},{"NoteNumber":62,"Velocity":29,"Duration":236220,"SoundDuration":236220,"Delta":305536613},{"NoteNumber":71,"Velocity":57,"Duration":236220,"SoundDuration":236220,"Delta":305772834},{"NoteNumber":52,"Velocity":40,"Duration":236220,"SoundDuration":236220,"Delta":305772834},{"NoteNumber":69,"Velocity":53,"Duration":236220,"SoundDuration":236220,"Delta":306009054},{"NoteNumber":61,"Velocity":34,"Duration":236220,"SoundDuration":236220,"Delta":306009054},{"NoteNumber":78,"Velocity":57,"Duration":227272,"SoundDuration":227272,"Delta":306245275},{"NoteNumber":57,"Velocity":34,"Duration":227272,"SoundDuration":227272,"Delta":306245275},{"NoteNumber":76,"Velocity":56,"Duration":232557,"SoundDuration":232557,"Delta":306472547},{"NoteNumber":61,"Velocity":30,"Duration":232557,"SoundDuration":232557,"Delta":306472547},{"NoteNumber":57,"Velocity":32,"Duration":232558,"SoundDuration":232558,"Delta":306705105},{"NoteNumber":61,"Velocity":28,"Duration":236220,"SoundDuration":236220,"Delta":306937663},{"NoteNumber":73,"Velocity":63,"Duration":234375,"SoundDuration":234375,"Delta":307173884},{"NoteNumber":50,"Velocity":42,"Duration":234375,"SoundDuration":234375,"Delta":307173884},{"NoteNumber":71,"Velocity":59,"Duration":227272,"SoundDuration":227272,"Delta":307408259},{"NoteNumber":59,"Velocity":36,"Duration":227272,"SoundDuration":227272,"Delta":307408259},{"NoteNumber":79,"Velocity":62,"Duration":229007,"SoundDuration":229007,"Delta":307635531},{"NoteNumber":54,"Velocity":36,"Duration":229007,"SoundDuration":229007,"Delta":307635531},{"NoteNumber":78,"Velocity":59,"Duration":234375,"SoundDuration":234375,"Delta":307864539},{"NoteNumber":59,"Velocity":34,"Duration":234375,"SoundDuration":234375,"Delta":307864539},{"NoteNumber":54,"Velocity":36,"Duration":234375,"SoundDuration":234375,"Delta":308098914},{"NoteNumber":59,"Velocity":34,"Duration":234375,"SoundDuration":234375,"Delta":308333289},{"NoteNumber":66,"Velocity":51,"Duration":468750,"SoundDuration":468750,"Delta":308567664},{"NoteNumber":50,"Velocity":39,"Duration":468750,"SoundDuration":468750,"Delta":308567664},{"NoteNumber":76,"Velocity":53,"Duration":225564,"SoundDuration":225564,"Delta":309036414},{"NoteNumber":74,"Velocity":51,"Duration":232557,"SoundDuration":232557,"Delta":309261978},{"NoteNumber":73,"Velocity":51,"Duration":232558,"SoundDuration":232558,"Delta":309494536},{"NoteNumber":71,"Velocity":49,"Duration":238094,"SoundDuration":238094,"Delta":309727094},{"NoteNumber":69,"Velocity":51,"Duration":234375,"SoundDuration":234375,"Delta":309965189},{"NoteNumber":52,"Velocity":33,"Duration":468750,"SoundDuration":468750,"Delta":309965189},{"NoteNumber":62,"Velocity":39,"Duration":468750,"SoundDuration":468750,"Delta":309965189},{"NoteNumber":68,"Velocity":48,"Duration":234375,"SoundDuration":234375,"Delta":310199564},{"NoteNumber":69,"Velocity":51,"Duration":476189,"SoundDuration":476189,"Delta":310433939},{"NoteNumber":57,"Velocity":33,"Duration":476189,"SoundDuration":476189,"Delta":310433939},{"NoteNumber":61,"Velocity":39,"Duration":476189,"SoundDuration":476189,"Delta":310433939},{"NoteNumber":71,"Velocity":68,"Duration":59523,"SoundDuration":59523,"Delta":311207748},{"NoteNumber":76,"Velocity":71,"Duration":59523,"SoundDuration":59523,"Delta":311267271},{"NoteNumber":80,"Velocity":74,"Duration":59523,"SoundDuration":59523,"Delta":311326795},{"NoteNumber":83,"Velocity":77,"Duration":1406250,"SoundDuration":1406250,"Delta":311386319},{"NoteNumber":52,"Velocity":60,"Duration":234375,"SoundDuration":234375,"Delta":311386319},{"NoteNumber":56,"Velocity":52,"Duration":234375,"SoundDuration":234375,"Delta":311620694},{"NoteNumber":59,"Velocity":56,"Duration":234375,"SoundDuration":234375,"Delta":311855069},{"NoteNumber":56,"Velocity":52,"Duration":234375,"SoundDuration":234375,"Delta":312089444},{"NoteNumber":54,"Velocity":56,"Duration":234375,"SoundDuration":234375,"Delta":312323819},{"NoteNumber":52,"Velocity":51,"Duration":234375,"SoundDuration":234375,"Delta":312558194},{"NoteNumber":83,"Velocity":73,"Duration":115384,"SoundDuration":115384,"Delta":312792569},{"NoteNumber":51,"Velocity":60,"Duration":230769,"SoundDuration":230769,"Delta":312792569},{"NoteNumber":81,"Velocity":72,"Duration":115384,"SoundDuration":115384,"Delta":312907953},{"NoteNumber":80,"Velocity":71,"Duration":115384,"SoundDuration":115384,"Delta":313023338},{"NoteNumber":52,"Velocity":50,"Duration":230769,"SoundDuration":230769,"Delta":313023338},{"NoteNumber":78,"Velocity":70,"Duration":103846,"SoundDuration":103846,"Delta":313138722},{"NoteNumber":78,"Velocity":72,"Duration":115384,"SoundDuration":115384,"Delta":313254107},{"NoteNumber":54,"Velocity":50,"Duration":230769,"SoundDuration":230769,"Delta":313254107},{"NoteNumber":76,"Velocity":71,"Duration":115384,"SoundDuration":115384,"Delta":313369491},{"NoteNumber":75,"Velocity":69,"Duration":115384,"SoundDuration":115384,"Delta":313484876},{"NoteNumber":47,"Velocity":51,"Duration":230768,"SoundDuration":230768,"Delta":313484876},{"NoteNumber":73,"Velocity":68,"Duration":115384,"SoundDuration":115384,"Delta":313600260},{"NoteNumber":71,"Velocity":70,"Duration":117187,"SoundDuration":117187,"Delta":313715645},{"NoteNumber":49,"Velocity":54,"Duration":234375,"SoundDuration":234375,"Delta":313715645},{"NoteNumber":69,"Velocity":67,"Duration":117187,"SoundDuration":117187,"Delta":313832832},{"NoteNumber":68,"Velocity":67,"Duration":119047,"SoundDuration":119047,"Delta":313950020},{"NoteNumber":51,"Velocity":51,"Duration":238094,"SoundDuration":238094,"Delta":313950020},{"NoteNumber":69,"Velocity":67,"Duration":119047,"SoundDuration":119047,"Delta":314069067},{"NoteNumber":68,"Velocity":67,"Duration":116279,"SoundDuration":116279,"Delta":314188115},{"NoteNumber":52,"Velocity":60,"Duration":232557,"SoundDuration":232557,"Delta":314188115},{"NoteNumber":71,"Velocity":69,"Duration":116278,"SoundDuration":116278,"Delta":314304394},{"NoteNumber":76,"Velocity":70,"Duration":116279,"SoundDuration":116279,"Delta":314420673},{"NoteNumber":56,"Velocity":52,"Duration":232558,"SoundDuration":232558,"Delta":314420673},{"NoteNumber":80,"Velocity":72,"Duration":116279,"SoundDuration":116279,"Delta":314536952},{"NoteNumber":83,"Velocity":73,"Duration":916083,"SoundDuration":916083,"Delta":314653231},{"NoteNumber":59,"Velocity":52,"Duration":227272,"SoundDuration":227272,"Delta":314653231},{"NoteNumber":56,"Velocity":52,"Duration":227272,"SoundDuration":227272,"Delta":314880503},{"NoteNumber":54,"Velocity":55,"Duration":230769,"SoundDuration":230769,"Delta":315107776},{"NoteNumber":52,"Velocity":52,"Duration":230769,"SoundDuration":230769,"Delta":315338545},{"NoteNumber":83,"Velocity":73,"Duration":115384,"SoundDuration":115384,"Delta":315569314},{"NoteNumber":51,"Velocity":60,"Duration":230769,"SoundDuration":230769,"Delta":315569314},{"NoteNumber":81,"Velocity":72,"Duration":115384,"SoundDuration":115384,"Delta":315684698},{"NoteNumber":80,"Velocity":71,"Duration":115384,"SoundDuration":115384,"Delta":315800083},{"NoteNumber":52,"Velocity":50,"Duration":230769,"SoundDuration":230769,"Delta":315800083},{"NoteNumber":78,"Velocity":70,"Duration":105769,"SoundDuration":105769,"Delta":315915467},{"NoteNumber":78,"Velocity":72,"Duration":115384,"SoundDuration":115384,"Delta":316030852},{"NoteNumber":54,"Velocity":50,"Duration":230769,"SoundDuration":230769,"Delta":316030852},{"NoteNumber":76,"Velocity":71,"Duration":115384,"SoundDuration":115384,"Delta":316146236},{"NoteNumber":75,"Velocity":69,"Duration":115384,"SoundDuration":115384,"Delta":316261621},{"NoteNumber":47,"Velocity":51,"Duration":230768,"SoundDuration":230768,"Delta":316261621},{"NoteNumber":73,"Velocity":68,"Duration":115384,"SoundDuration":115384,"Delta":316377005},{"NoteNumber":71,"Velocity":70,"Duration":117187,"SoundDuration":117187,"Delta":316492390},{"NoteNumber":49,"Velocity":54,"Duration":234375,"SoundDuration":234375,"Delta":316492390},{"NoteNumber":69,"Velocity":67,"Duration":117187,"SoundDuration":117187,"Delta":316609577},{"NoteNumber":68,"Velocity":67,"Duration":119047,"SoundDuration":119047,"Delta":316726765},{"NoteNumber":51,"Velocity":51,"Duration":238094,"SoundDuration":238094,"Delta":316726765},{"NoteNumber":69,"Velocity":67,"Duration":119047,"SoundDuration":119047,"Delta":316845812},{"NoteNumber":68,"Velocity":67,"Duration":116279,"SoundDuration":116279,"Delta":316964860},{"NoteNumber":52,"Velocity":60,"Duration":461565,"SoundDuration":461565,"Delta":316964860},{"NoteNumber":71,"Velocity":64,"Duration":116278,"SoundDuration":116278,"Delta":317081139},{"NoteNumber":69,"Velocity":70,"Duration":114503,"SoundDuration":114503,"Delta":317197418},{"NoteNumber":68,"Velocity":64,"Duration":114503,"SoundDuration":114503,"Delta":317311922},{"NoteNumber":69,"Velocity":68,"Duration":113686,"SoundDuration":113686,"Delta":317419746},{"NoteNumber":71,"Velocity":68,"Duration":113636,"SoundDuration":113636,"Delta":317540062},{"NoteNumber":73,"Velocity":69,"Duration":113636,"SoundDuration":113636,"Delta":317653698},{"NoteNumber":75,"Velocity":70,"Duration":113636,"SoundDuration":113636,"Delta":317767334},{"NoteNumber":76,"Velocity":70,"Duration":115384,"SoundDuration":115384,"Delta":317880970},{"NoteNumber":78,"Velocity":71,"Duration":115384,"SoundDuration":115384,"Delta":317996355},{"NoteNumber":80,"Velocity":72,"Duration":115384,"SoundDuration":115384,"Delta":318111739},{"NoteNumber":81,"Velocity":72,"Duration":114743,"SoundDuration":114743,"Delta":318227124},{"NoteNumber":83,"Velocity":73,"Duration":113636,"SoundDuration":113636,"Delta":318341867},{"NoteNumber":85,"Velocity":74,"Duration":112810,"SoundDuration":112810,"Delta":318455504},{"NoteNumber":87,"Velocity":74,"Duration":112136,"SoundDuration":112136,"Delta":318568314},{"NoteNumber":88,"Velocity":75,"Duration":111470,"SoundDuration":111470,"Delta":318680451},{"NoteNumber":87,"Velocity":72,"Duration":111110,"SoundDuration":111110,"Delta":318791921},{"NoteNumber":85,"Velocity":70,"Duration":111110,"SoundDuration":111110,"Delta":318903032},{"NoteNumber":83,"Velocity":68,"Duration":111110,"SoundDuration":111110,"Delta":319014143},{"NoteNumber":81,"Velocity":65,"Duration":110516,"SoundDuration":110516,"Delta":319125254},{"NoteNumber":80,"Velocity":63,"Duration":110405,"SoundDuration":110405,"Delta":319235770},{"NoteNumber":78,"Velocity":61,"Duration":112221,"SoundDuration":112221,"Delta":319346176},{"NoteNumber":76,"Velocity":59,"Duration":114246,"SoundDuration":114246,"Delta":319458397},{"NoteNumber":75,"Velocity":57,"Duration":115384,"SoundDuration":115384,"Delta":319572644},{"NoteNumber":73,"Velocity":50,"Duration":232557,"SoundDuration":232557,"Delta":319688028},{"NoteNumber":57,"Velocity":38,"Duration":465116,"SoundDuration":465116,"Delta":319688028},{"NoteNumber":66,"Velocity":45,"Duration":465116,"SoundDuration":465116,"Delta":319688028},{"NoteNumber":85,"Velocity":50,"Duration":116279,"SoundDuration":116279,"Delta":320036865},{"NoteNumber":76,"Velocity":54,"Duration":429957,"SoundDuration":429957,"Delta":320153144},{"NoteNumber":59,"Velocity":33,"Duration":1043314,"SoundDuration":1043314,"Delta":320153144},{"NoteNumber":68,"Velocity":39,"Duration":502773,"SoundDuration":502773,"Delta":320153144},{"NoteNumber":80,"Velocity":50,"Duration":72815,"SoundDuration":72815,"Delta":320583102},{"NoteNumber":75,"Velocity":53,"Duration":540541,"SoundDuration":540541,"Delta":320655918},{"NoteNumber":78,"Velocity":53,"Duration":540541,"SoundDuration":540541,"Delta":320655918},{"NoteNumber":69,"Velocity":39,"Duration":540541,"SoundDuration":540541,"Delta":320655918},{"NoteNumber":76,"Velocity":51,"Duration":540540,"SoundDuration":540540,"Delta":321196459},{"NoteNumber":64,"Velocity":35,"Duration":540540,"SoundDuration":540540,"Delta":321196459},{"NoteNumber":68,"Velocity":42,"Duration":540540,"SoundDuration":540540,"Delta":321196459},{"NoteNumber":52,"Velocity":35,"Duration":540541,"SoundDuration":540541,"Delta":321707720},{"NoteNumber":64,"Velocity":61,"Duration":127091,"SoundDuration":127091,"Delta":322750514},{"NoteNumber":76,"Velocity":74,"Duration":416666,"SoundDuration":416666,"Delta":322818082},{"NoteNumber":66,"Velocity":61,"Duration":118117,"SoundDuration":118117,"Delta":323234748},{"NoteNumber":78,"Velocity":70,"Duration":410156,"SoundDuration":410156,"Delta":323294272},{"NoteNumber":67,"Velocity":61,"Duration":117648,"SoundDuration":117648,"Delta":323704428},{"NoteNumber":79,"Velocity":70,"Duration":482122,"SoundDuration":482122,"Delta":323763022},{"NoteNumber":71,"Velocity":56,"Duration":472441,"SoundDuration":472441,"Delta":324245144},{"NoteNumber":54,"Velocity":47,"Duration":236220,"SoundDuration":236220,"Delta":324245144},{"NoteNumber":61,"Velocity":39,"Duration":236220,"SoundDuration":236220,"Delta":324481364},{"NoteNumber":70,"Velocity":52,"Duration":465116,"SoundDuration":465116,"Delta":324717585},{"NoteNumber":66,"Velocity":39,"Duration":232557,"SoundDuration":232557,"Delta":324717585},{"NoteNumber":64,"Velocity":39,"Duration":232558,"SoundDuration":232558,"Delta":324950143},{"NoteNumber":62,"Velocity":39,"Duration":234375,"SoundDuration":234375,"Delta":325182701},{"NoteNumber":61,"Velocity":39,"Duration":241935,"SoundDuration":241935,"Delta":325417076},{"NoteNumber":70,"Velocity":51,"Duration":120967,"SoundDuration":120967,"Delta":325538043},{"NoteNumber":73,"Velocity":57,"Duration":472441,"SoundDuration":472441,"Delta":325659011},{"NoteNumber":54,"Velocity":47,"Duration":236220,"SoundDuration":236220,"Delta":325659011},{"NoteNumber":62,"Velocity":42,"Duration":236220,"SoundDuration":236220,"Delta":325895232},{"NoteNumber":71,"Velocity":56,"Duration":461538,"SoundDuration":461538,"Delta":326131452},{"NoteNumber":66,"Velocity":42,"Duration":230769,"SoundDuration":230769,"Delta":326131452},{"NoteNumber":62,"Velocity":42,"Duration":230769,"SoundDuration":230769,"Delta":326362221},{"NoteNumber":61,"Velocity":42,"Duration":236220,"SoundDuration":236220,"Delta":326592990},{"NoteNumber":59,"Velocity":42,"Duration":236220,"SoundDuration":236220,"Delta":326829211},{"NoteNumber":71,"Velocity":63,"Duration":118110,"SoundDuration":118110,"Delta":326947321},{"NoteNumber":74,"Velocity":66,"Duration":465228,"SoundDuration":465228,"Delta":327065431},{"NoteNumber":54,"Velocity":56,"Duration":229007,"SoundDuration":229007,"Delta":327065431},{"NoteNumber":58,"Velocity":47,"Duration":236220,"SoundDuration":236220,"Delta":327294439},{"NoteNumber":73,"Velocity":60,"Duration":472441,"SoundDuration":472441,"Delta":327530659},{"NoteNumber":64,"Velocity":47,"Duration":236220,"SoundDuration":236220,"Delta":327530659},{"NoteNumber":61,"Velocity":47,"Duration":236220,"SoundDuration":236220,"Delta":327766880},{"NoteNumber":59,"Velocity":47,"Duration":236220,"SoundDuration":236220,"Delta":328003100},{"NoteNumber":58,"Velocity":47,"Duration":236220,"SoundDuration":236220,"Delta":328239321},{"NoteNumber":73,"Velocity":68,"Duration":118110,"SoundDuration":118110,"Delta":328357431},{"NoteNumber":76,"Velocity":72,"Duration":227272,"SoundDuration":227272,"Delta":328475541},{"NoteNumber":59,"Velocity":57,"Duration":465367,"SoundDuration":465367,"Delta":328475541},{"NoteNumber":74,"Velocity":68,"Duration":238094,"SoundDuration":238094,"Delta":328702814},{"NoteNumber":77,"Velocity":72,"Duration":230769,"SoundDuration":230769,"Delta":328940909},{"NoteNumber":76,"Velocity":67,"Duration":236220,"SoundDuration":236220,"Delta":329171678},{"NoteNumber":79,"Velocity":70,"Duration":232557,"SoundDuration":232557,"Delta":329407898},{"NoteNumber":77,"Velocity":66,"Duration":236220,"SoundDuration":236220,"Delta":329640456},{"NoteNumber":69,"Velocity":56,"Duration":466989,"SoundDuration":466989,"Delta":329876677},{"NoteNumber":52,"Velocity":47,"Duration":230769,"SoundDuration":230769,"Delta":329876677},{"NoteNumber":59,"Velocity":39,"Duration":236220,"SoundDuration":236220,"Delta":330107446},{"NoteNumber":68,"Velocity":52,"Duration":459776,"SoundDuration":459776,"Delta":330343666},{"NoteNumber":64,"Velocity":39,"Duration":229007,"SoundDuration":229007,"Delta":330343666},{"NoteNumber":62,"Velocity":39,"Duration":230769,"SoundDuration":230769,"Delta":330572674},{"NoteNumber":60,"Velocity":39,"Duration":234375,"SoundDuration":234375,"Delta":330803443},{"NoteNumber":59,"Velocity":39,"Duration":241935,"SoundDuration":241935,"Delta":331037818},{"NoteNumber":68,"Velocity":51,"Duration":120967,"SoundDuration":120967,"Delta":331158785},{"NoteNumber":71,"Velocity":57,"Duration":472441,"SoundDuration":472441,"Delta":331279753},{"NoteNumber":52,"Velocity":47,"Duration":236220,"SoundDuration":236220,"Delta":331279753},{"NoteNumber":60,"Velocity":42,"Duration":236220,"SoundDuration":236220,"Delta":331515974},{"NoteNumber":69,"Velocity":56,"Duration":461538,"SoundDuration":461538,"Delta":331752194},{"NoteNumber":64,"Velocity":42,"Duration":230769,"SoundDuration":230769,"Delta":331752194},{"NoteNumber":60,"Velocity":42,"Duration":230769,"SoundDuration":230769,"Delta":331982963},{"NoteNumber":59,"Velocity":42,"Duration":236220,"SoundDuration":236220,"Delta":332213732},{"NoteNumber":57,"Velocity":42,"Duration":236220,"SoundDuration":236220,"Delta":332449953},{"NoteNumber":69,"Velocity":63,"Duration":118110,"SoundDuration":118110,"Delta":332568063},{"NoteNumber":72,"Velocity":66,"Duration":472441,"SoundDuration":472441,"Delta":332686173},{"NoteNumber":52,"Velocity":56,"Duration":236220,"SoundDuration":236220,"Delta":332686173},{"NoteNumber":56,"Velocity":47,"Duration":236220,"SoundDuration":236220,"Delta":332922394},{"NoteNumber":71,"Velocity":60,"Duration":465116,"SoundDuration":465116,"Delta":333158614},{"NoteNumber":62,"Velocity":47,"Duration":232557,"SoundDuration":232557,"Delta":333158614},{"NoteNumber":59,"Velocity":47,"Duration":232558,"SoundDuration":232558,"Delta":333391172},{"NoteNumber":57,"Velocity":47,"Duration":236220,"SoundDuration":236220,"Delta":333623730},{"NoteNumber":56,"Velocity":47,"Duration":236220,"SoundDuration":236220,"Delta":333859951},{"NoteNumber":71,"Velocity":68,"Duration":118110,"SoundDuration":118110,"Delta":333978061},{"NoteNumber":74,"Velocity":72,"Duration":230769,"SoundDuration":230769,"Delta":334096171},{"NoteNumber":57,"Velocity":57,"Duration":935853,"SoundDuration":935853,"Delta":334096171},{"NoteNumber":72,"Velocity":68,"Duration":238094,"SoundDuration":238094,"Delta":334326940},{"NoteNumber":71,"Velocity":72,"Duration":230769,"SoundDuration":230769,"Delta":334565035},{"NoteNumber":69,"Velocity":67,"Duration":236220,"SoundDuration":236220,"Delta":334795804},{"NoteNumber":81,"Velocity":73,"Duration":174418,"SoundDuration":174418,"Delta":335032025},{"NoteNumber":43,"Velocity":69,"Duration":468778,"SoundDuration":468778,"Delta":335032025},{"NoteNumber":55,"Velocity":69,"Duration":468778,"SoundDuration":468778,"Delta":335032025},{"NoteNumber":81,"Velocity":70,"Duration":177165,"SoundDuration":177165,"Delta":335264583},{"NoteNumber":83,"Velocity":78,"Duration":230769,"SoundDuration":230769,"Delta":335500803},{"NoteNumber":41,"Velocity":72,"Duration":939430,"SoundDuration":939430,"Delta":335500803},{"NoteNumber":53,"Velocity":72,"Duration":939430,"SoundDuration":939430,"Delta":335500803},{"NoteNumber":81,"Velocity":78,"Duration":236220,"SoundDuration":236220,"Delta":335731572},{"NoteNumber":79,"Velocity":77,"Duration":236220,"SoundDuration":236220,"Delta":335967793},{"NoteNumber":77,"Velocity":75,"Duration":236220,"SoundDuration":236220,"Delta":336204013},{"NoteNumber":76,"Velocity":79,"Duration":236220,"SoundDuration":236220,"Delta":336440234},{"NoteNumber":75,"Velocity":75,"Duration":256410,"SoundDuration":256410,"Delta":336676454},{"NoteNumber":84,"Velocity":81,"Duration":937500,"SoundDuration":937500,"Delta":336932865},{"NoteNumber":57,"Velocity":61,"Duration":234375,"SoundDuration":234375,"Delta":336932865},{"NoteNumber":53,"Velocity":61,"Duration":1425304,"SoundDuration":1425304,"Delta":336932865},{"NoteNumber":56,"Velocity":42,"Duration":234375,"SoundDuration":234375,"Delta":337167240},{"NoteNumber":57,"Velocity":46,"Duration":234375,"SoundDuration":234375,"Delta":337401615},{"NoteNumber":60,"Velocity":41,"Duration":234375,"SoundDuration":234375,"Delta":337635990},{"NoteNumber":75,"Velocity":55,"Duration":487804,"SoundDuration":487804,"Delta":337870365},{"NoteNumber":59,"Velocity":46,"Duration":243902,"SoundDuration":243902,"Delta":337870365},{"NoteNumber":57,"Velocity":41,"Duration":243902,"SoundDuration":243902,"Delta":338114267},{"NoteNumber":76,"Velocity":55,"Duration":703125,"SoundDuration":703125,"Delta":338358170},{"NoteNumber":52,"Velocity":57,"Duration":468750,"SoundDuration":468750,"Delta":338358170},{"NoteNumber":56,"Velocity":57,"Duration":468750,"SoundDuration":468750,"Delta":338358170},{"NoteNumber":78,"Velocity":57,"Duration":120967,"SoundDuration":120967,"Delta":339061295},{"NoteNumber":76,"Velocity":46,"Duration":90725,"SoundDuration":90725,"Delta":339182262},{"NoteNumber":76,"Velocity":55,"Duration":118110,"SoundDuration":118110,"Delta":339303230},{"NoteNumber":74,"Velocity":53,"Duration":118110,"SoundDuration":118110,"Delta":339421340},{"NoteNumber":73,"Velocity":52,"Duration":121951,"SoundDuration":121951,"Delta":339539451},{"NoteNumber":71,"Velocity":51,"Duration":130434,"SoundDuration":130434,"Delta":339661402},{"NoteNumber":61,"Velocity":64,"Duration":66371,"SoundDuration":66371,"Delta":339791837},{"NoteNumber":64,"Velocity":64,"Duration":66371,"SoundDuration":66371,"Delta":339858208},{"NoteNumber":69,"Velocity":76,"Duration":929202,"SoundDuration":929202,"Delta":339924580},{"NoteNumber":45,"Velocity":59,"Duration":929202,"SoundDuration":929202,"Delta":339924580},{"NoteNumber":57,"Velocity":70,"Duration":929202,"SoundDuration":929202,"Delta":339924580},{"NoteNumber":64,"Velocity":70,"Duration":476189,"SoundDuration":476189,"Delta":340853783},{"NoteNumber":40,"Velocity":53,"Duration":476189,"SoundDuration":476189,"Delta":340853783},{"NoteNumber":52,"Velocity":63,"Duration":476189,"SoundDuration":476189,"Delta":340853783},{"NoteNumber":73,"Velocity":72,"Duration":247933,"SoundDuration":247933,"Delta":341329973},{"NoteNumber":49,"Velocity":48,"Duration":480491,"SoundDuration":480491,"Delta":341329973},{"NoteNumber":61,"Velocity":57,"Duration":480491,"SoundDuration":480491,"Delta":341329973},{"NoteNumber":74,"Velocity":74,"Duration":116279,"SoundDuration":116279,"Delta":341577907},{"NoteNumber":71,"Velocity":70,"Duration":116278,"SoundDuration":116278,"Delta":341694186},{"NoteNumber":69,"Velocity":70,"Duration":240000,"SoundDuration":240000,"Delta":341810465},{"NoteNumber":45,"Velocity":45,"Duration":240000,"SoundDuration":240000,"Delta":341810465},{"NoteNumber":57,"Velocity":53,"Duration":240000,"SoundDuration":240000,"Delta":341810465},{"NoteNumber":73,"Velocity":50,"Duration":237157,"SoundDuration":237157,"Delta":342770465},{"NoteNumber":74,"Velocity":52,"Duration":120000,"SoundDuration":120000,"Delta":343007622},{"NoteNumber":71,"Velocity":46,"Duration":120000,"SoundDuration":120000,"Delta":343127622},{"NoteNumber":69,"Velocity":49,"Duration":492100,"SoundDuration":492100,"Delta":343247622},{"NoteNumber":85,"Velocity":57,"Duration":236220,"SoundDuration":236220,"Delta":343739723},{"NoteNumber":57,"Velocity":40,"Duration":236220,"SoundDuration":236220,"Delta":343739723},{"NoteNumber":66,"Velocity":40,"Duration":236220,"SoundDuration":236220,"Delta":343739723},{"NoteNumber":75,"Velocity":50,"Duration":472441,"SoundDuration":472441,"Delta":344221845},{"NoteNumber":59,"Velocity":40,"Duration":472441,"SoundDuration":472441,"Delta":344221845},{"NoteNumber":69,"Velocity":40,"Duration":472441,"SoundDuration":472441,"Delta":344221845},{"NoteNumber":76,"Velocity":52,"Duration":708661,"SoundDuration":708661,"Delta":344694286},{"NoteNumber":64,"Velocity":40,"Duration":472441,"SoundDuration":472441,"Delta":344694286},{"NoteNumber":68,"Velocity":40,"Duration":472441,"SoundDuration":472441,"Delta":344694286},{"NoteNumber":77,"Velocity":51,"Duration":216535,"SoundDuration":216535,"Delta":345402948},{"NoteNumber":80,"Velocity":57,"Duration":227272,"SoundDuration":227272,"Delta":345639168},{"NoteNumber":78,"Velocity":56,"Duration":236220,"SoundDuration":236220,"Delta":345866441},{"NoteNumber":76,"Velocity":54,"Duration":227272,"SoundDuration":227272,"Delta":346102661},{"NoteNumber":74,"Velocity":53,"Duration":236220,"SoundDuration":236220,"Delta":346329934},{"NoteNumber":73,"Velocity":52,"Duration":229007,"SoundDuration":229007,"Delta":346566154},{"NoteNumber":71,"Velocity":51,"Duration":245901,"SoundDuration":245901,"Delta":346795162},{"NoteNumber":69,"Velocity":51,"Duration":236220,"SoundDuration":236220,"Delta":347041063},{"NoteNumber":52,"Velocity":39,"Duration":236220,"SoundDuration":236220,"Delta":347041063},{"NoteNumber":68,"Velocity":46,"Duration":229007,"SoundDuration":229007,"Delta":347277284},{"NoteNumber":62,"Velocity":33,"Duration":229007,"SoundDuration":229007,"Delta":347277284},{"NoteNumber":76,"Velocity":53,"Duration":227272,"SoundDuration":227272,"Delta":347506291},{"NoteNumber":59,"Velocity":33,"Duration":227272,"SoundDuration":227272,"Delta":347506291},{"NoteNumber":74,"Velocity":51,"Duration":230769,"SoundDuration":230769,"Delta":347733564},{"NoteNumber":62,"Velocity":28,"Duration":230769,"SoundDuration":230769,"Delta":347733564},{"NoteNumber":59,"Velocity":31,"Duration":236220,"SoundDuration":236220,"Delta":347964333},{"NoteNumber":62,"Velocity":29,"Duration":236220,"SoundDuration":236220,"Delta":348200553},{"NoteNumber":71,"Velocity":57,"Duration":236220,"SoundDuration":236220,"Delta":348436774},{"NoteNumber":52,"Velocity":40,"Duration":236220,"SoundDuration":236220,"Delta":348436774},{"NoteNumber":69,"Velocity":53,"Duration":232557,"SoundDuration":232557,"Delta":348672994},{"NoteNumber":61,"Velocity":34,"Duration":232557,"SoundDuration":232557,"Delta":348672994},{"NoteNumber":78,"Velocity":57,"Duration":227272,"SoundDuration":227272,"Delta":348905552},{"NoteNumber":57,"Velocity":34,"Duration":227272,"SoundDuration":227272,"Delta":348905552},{"NoteNumber":76,"Velocity":56,"Duration":232557,"SoundDuration":232557,"Delta":349132825},{"NoteNumber":61,"Velocity":30,"Duration":232557,"SoundDuration":232557,"Delta":349132825},{"NoteNumber":57,"Velocity":32,"Duration":232558,"SoundDuration":232558,"Delta":349365383},{"NoteNumber":61,"Velocity":28,"Duration":236220,"SoundDuration":236220,"Delta":349597941},{"NoteNumber":71,"Velocity":63,"Duration":234375,"SoundDuration":234375,"Delta":349834161},{"NoteNumber":52,"Velocity":42,"Duration":234375,"SoundDuration":234375,"Delta":349834161},{"NoteNumber":69,"Velocity":59,"Duration":243902,"SoundDuration":243902,"Delta":350068536},{"NoteNumber":61,"Velocity":36,"Duration":243902,"SoundDuration":243902,"Delta":350068536},{"NoteNumber":81,"Velocity":62,"Duration":229007,"SoundDuration":229007,"Delta":350312439},{"NoteNumber":57,"Velocity":36,"Duration":229007,"SoundDuration":229007,"Delta":350312439},{"NoteNumber":79,"Velocity":59,"Duration":234375,"SoundDuration":234375,"Delta":350541446},{"NoteNumber":61,"Velocity":34,"Duration":234375,"SoundDuration":234375,"Delta":350541446},{"NoteNumber":57,"Velocity":36,"Duration":234375,"SoundDuration":234375,"Delta":350775821},{"NoteNumber":61,"Velocity":34,"Duration":234375,"SoundDuration":234375,"Delta":351010196},{"NoteNumber":79,"Velocity":55,"Duration":232557,"SoundDuration":232557,"Delta":351244571},{"NoteNumber":50,"Velocity":28,"Duration":468778,"SoundDuration":468778,"Delta":351244571},{"NoteNumber":57,"Velocity":28,"Duration":468778,"SoundDuration":468778,"Delta":351244571},{"NoteNumber":62,"Velocity":34,"Duration":468778,"SoundDuration":468778,"Delta":351244571},{"NoteNumber":78,"Velocity":52,"Duration":236220,"SoundDuration":236220,"Delta":351477129},{"NoteNumber":76,"Velocity":51,"Duration":236220,"SoundDuration":236220,"Delta":351713350},{"NoteNumber":74,"Velocity":50,"Duration":236220,"SoundDuration":236220,"Delta":351949570},{"NoteNumber":73,"Velocity":49,"Duration":236220,"SoundDuration":236220,"Delta":352185791},{"NoteNumber":71,"Velocity":47,"Duration":245901,"SoundDuration":245901,"Delta":352422011},{"NoteNumber":76,"Velocity":49,"Duration":122950,"SoundDuration":122950,"Delta":352667913},{"NoteNumber":49,"Velocity":40,"Duration":355508,"SoundDuration":355508,"Delta":352667913},{"NoteNumber":78,"Velocity":45,"Duration":38759,"SoundDuration":38759,"Delta":352790864},{"NoteNumber":76,"Velocity":45,"Duration":38759,"SoundDuration":38759,"Delta":352829623},{"NoteNumber":74,"Velocity":45,"Duration":38759,"SoundDuration":38759,"Delta":352868383},{"NoteNumber":76,"Velocity":51,"Duration":116278,"SoundDuration":116278,"Delta":352907143},{"NoteNumber":78,"Velocity":52,"Duration":137614,"SoundDuration":137614,"Delta":353023422},{"NoteNumber":50,"Velocity":33,"Duration":137614,"SoundDuration":137614,"Delta":353023422},{"NoteNumber":69,"Velocity":51,"Duration":487804,"SoundDuration":487804,"Delta":353161036},{"NoteNumber":52,"Velocity":38,"Duration":971254,"SoundDuration":971254,"Delta":353161036},{"NoteNumber":61,"Velocity":38,"Duration":487804,"SoundDuration":487804,"Delta":353161036},{"NoteNumber":68,"Velocity":48,"Duration":483449,"SoundDuration":483449,"Delta":353648841},{"NoteNumber":59,"Velocity":32,"Duration":483449,"SoundDuration":483449,"Delta":353648841},{"NoteNumber":69,"Velocity":66,"Duration":59523,"SoundDuration":59523,"Delta":354013243},{"NoteNumber":73,"Velocity":67,"Duration":59523,"SoundDuration":59523,"Delta":354072767},{"NoteNumber":76,"Velocity":67,"Duration":468750,"SoundDuration":468750,"Delta":354132291},{"NoteNumber":57,"Velocity":54,"Duration":234375,"SoundDuration":234375,"Delta":354132291},{"NoteNumber":61,"Velocity":46,"Duration":234375,"SoundDuration":234375,"Delta":354366666},{"NoteNumber":76,"Velocity":69,"Duration":933866,"SoundDuration":933866,"Delta":354601041},{"NoteNumber":64,"Velocity":50,"Duration":232557,"SoundDuration":232557,"Delta":354601041},{"NoteNumber":61,"Velocity":46,"Duration":232558,"SoundDuration":232558,"Delta":354833599},{"NoteNumber":59,"Velocity":50,"Duration":234375,"SoundDuration":234375,"Delta":355066157},{"NoteNumber":57,"Velocity":45,"Duration":234375,"SoundDuration":234375,"Delta":355300532},{"NoteNumber":76,"Velocity":65,"Duration":115384,"SoundDuration":115384,"Delta":355534907},{"NoteNumber":56,"Velocity":54,"Duration":230769,"SoundDuration":230769,"Delta":355534907},{"NoteNumber":74,"Velocity":64,"Duration":115384,"SoundDuration":115384,"Delta":355650291},{"NoteNumber":73,"Velocity":63,"Duration":113636,"SoundDuration":113636,"Delta":355765676},{"NoteNumber":57,"Velocity":45,"Duration":227272,"SoundDuration":227272,"Delta":355765676},{"NoteNumber":71,"Velocity":63,"Duration":105113,"SoundDuration":105113,"Delta":355879312},{"NoteNumber":71,"Velocity":64,"Duration":114503,"SoundDuration":114503,"Delta":355992948},{"NoteNumber":59,"Velocity":45,"Duration":229007,"SoundDuration":229007,"Delta":355992948},{"NoteNumber":69,"Velocity":63,"Duration":114503,"SoundDuration":114503,"Delta":356107452},{"NoteNumber":68,"Velocity":62,"Duration":114503,"SoundDuration":114503,"Delta":356221956},{"NoteNumber":52,"Velocity":45,"Duration":229007,"SoundDuration":229007,"Delta":356221956},{"NoteNumber":66,"Velocity":61,"Duration":114503,"SoundDuration":114503,"Delta":356336459},{"NoteNumber":64,"Velocity":63,"Duration":117187,"SoundDuration":117187,"Delta":356450963},{"NoteNumber":54,"Velocity":48,"Duration":234375,"SoundDuration":234375,"Delta":356450963},{"NoteNumber":62,"Velocity":60,"Duration":117187,"SoundDuration":117187,"Delta":356568151},{"NoteNumber":61,"Velocity":60,"Duration":119047,"SoundDuration":119047,"Delta":356685338},{"NoteNumber":56,"Velocity":45,"Duration":238094,"SoundDuration":238094,"Delta":356685338},{"NoteNumber":62,"Velocity":60,"Duration":119047,"SoundDuration":119047,"Delta":356804386},{"NoteNumber":61,"Velocity":60,"Duration":116279,"SoundDuration":116279,"Delta":356923433},{"NoteNumber":57,"Velocity":54,"Duration":232557,"SoundDuration":232557,"Delta":356923433},{"NoteNumber":64,"Velocity":62,"Duration":116278,"SoundDuration":116278,"Delta":357039712},{"NoteNumber":69,"Velocity":63,"Duration":116279,"SoundDuration":116279,"Delta":357155991},{"NoteNumber":61,"Velocity":46,"Duration":232558,"SoundDuration":232558,"Delta":357155991},{"NoteNumber":73,"Velocity":64,"Duration":116279,"SoundDuration":116279,"Delta":357272270},{"NoteNumber":76,"Velocity":65,"Duration":685314,"SoundDuration":685314,"Delta":357388549},{"NoteNumber":64,"Velocity":46,"Duration":227272,"SoundDuration":227272,"Delta":357388549},{"NoteNumber":61,"Velocity":46,"Duration":227272,"SoundDuration":227272,"Delta":357615822},{"NoteNumber":59,"Velocity":49,"Duration":230769,"SoundDuration":230769,"Delta":357843094},{"NoteNumber":88,"Velocity":65,"Duration":220192,"SoundDuration":220192,"Delta":358073863},{"NoteNumber":57,"Velocity":46,"Duration":230769,"SoundDuration":230769,"Delta":358073863},{"NoteNumber":88,"Velocity":70,"Duration":113636,"SoundDuration":113636,"Delta":358304632},{"NoteNumber":56,"Velocity":52,"Duration":227272,"SoundDuration":227272,"Delta":358304632},{"NoteNumber":86,"Velocity":70,"Duration":113636,"SoundDuration":113636,"Delta":358418268},{"NoteNumber":85,"Velocity":69,"Duration":114503,"SoundDuration":114503,"Delta":358531905},{"NoteNumber":57,"Velocity":44,"Duration":229007,"SoundDuration":229007,"Delta":358531905},{"NoteNumber":83,"Velocity":69,"Duration":105915,"SoundDuration":105915,"Delta":358646408},{"NoteNumber":83,"Velocity":68,"Duration":114503,"SoundDuration":114503,"Delta":358760912},{"NoteNumber":59,"Velocity":51,"Duration":229007,"SoundDuration":229007,"Delta":358760912},{"NoteNumber":81,"Velocity":67,"Duration":114503,"SoundDuration":114503,"Delta":358875416},{"NoteNumber":80,"Velocity":67,"Duration":114503,"SoundDuration":114503,"Delta":358989920},{"NoteNumber":52,"Velocity":44,"Duration":229007,"SoundDuration":229007,"Delta":358989920},{"NoteNumber":78,"Velocity":66,"Duration":114503,"SoundDuration":114503,"Delta":359104423},{"NoteNumber":76,"Velocity":66,"Duration":117187,"SoundDuration":117187,"Delta":359218927},{"NoteNumber":54,"Velocity":50,"Duration":234375,"SoundDuration":234375,"Delta":359218927},{"NoteNumber":74,"Velocity":65,"Duration":117187,"SoundDuration":117187,"Delta":359336115},{"NoteNumber":73,"Velocity":65,"Duration":119047,"SoundDuration":119047,"Delta":359453302},{"NoteNumber":56,"Velocity":46,"Duration":238094,"SoundDuration":238094,"Delta":359453302},{"NoteNumber":74,"Velocity":64,"Duration":119047,"SoundDuration":119047,"Delta":359572350},{"NoteNumber":73,"Velocity":63,"Duration":116279,"SoundDuration":116279,"Delta":359691397},{"NoteNumber":57,"Velocity":51,"Duration":465116,"SoundDuration":465116,"Delta":359691397},{"NoteNumber":76,"Velocity":64,"Duration":116278,"SoundDuration":116278,"Delta":359807676},{"NoteNumber":74,"Velocity":60,"Duration":116279,"SoundDuration":116279,"Delta":359923955},{"NoteNumber":73,"Velocity":61,"Duration":116279,"SoundDuration":116279,"Delta":360040234},{"NoteNumber":74,"Velocity":62,"Duration":113636,"SoundDuration":113636,"Delta":360156513},{"NoteNumber":54,"Velocity":40,"Duration":454544,"SoundDuration":454544,"Delta":360156513},{"NoteNumber":57,"Velocity":48,"Duration":454544,"SoundDuration":454544,"Delta":360156513},{"NoteNumber":76,"Velocity":63,"Duration":113636,"SoundDuration":113636,"Delta":360270149},{"NoteNumber":78,"Velocity":64,"Duration":113636,"SoundDuration":113636,"Delta":360383786},{"NoteNumber":80,"Velocity":66,"Duration":113636,"SoundDuration":113636,"Delta":360497422},{"NoteNumber":81,"Velocity":67,"Duration":115384,"SoundDuration":115384,"Delta":360611058},{"NoteNumber":50,"Velocity":44,"Duration":460896,"SoundDuration":460896,"Delta":360611058},{"NoteNumber":54,"Velocity":44,"Duration":460896,"SoundDuration":460896,"Delta":360611058},{"NoteNumber":57,"Velocity":52,"Duration":460896,"SoundDuration":460896,"Delta":360611058},{"NoteNumber":83,"Velocity":68,"Duration":115384,"SoundDuration":115384,"Delta":360726443},{"NoteNumber":85,"Velocity":70,"Duration":115384,"SoundDuration":115384,"Delta":360841827},{"NoteNumber":86,"Velocity":71,"Duration":114743,"SoundDuration":114743,"Delta":360957212},{"NoteNumber":88,"Velocity":72,"Duration":113636,"SoundDuration":113636,"Delta":361071955},{"NoteNumber":49,"Velocity":47,"Duration":450053,"SoundDuration":450053,"Delta":361071955},{"NoteNumber":52,"Velocity":47,"Duration":450053,"SoundDuration":450053,"Delta":361071955},{"NoteNumber":57,"Velocity":56,"Duration":450053,"SoundDuration":450053,"Delta":361071955},{"NoteNumber":86,"Velocity":71,"Duration":112810,"SoundDuration":112810,"Delta":361185591},{"NoteNumber":85,"Velocity":69,"Duration":112136,"SoundDuration":112136,"Delta":361298402},{"NoteNumber":83,"Velocity":68,"Duration":111470,"SoundDuration":111470,"Delta":361410538},{"NoteNumber":81,"Velocity":66,"Duration":111110,"SoundDuration":111110,"Delta":361522009},{"NoteNumber":80,"Velocity":65,"Duration":111110,"SoundDuration":111110,"Delta":361633120},{"NoteNumber":78,"Velocity":63,"Duration":111110,"SoundDuration":111110,"Delta":361744231},{"NoteNumber":76,"Velocity":62,"Duration":110516,"SoundDuration":110516,"Delta":361855342},{"NoteNumber":74,"Velocity":60,"Duration":110405,"SoundDuration":110405,"Delta":361965858},{"NoteNumber":73,"Velocity":59,"Duration":112221,"SoundDuration":112221,"Delta":362076264},{"NoteNumber":71,"Velocity":57,"Duration":114246,"SoundDuration":114246,"Delta":362188485},{"NoteNumber":69,"Velocity":56,"Duration":136363,"SoundDuration":136363,"Delta":362302731},{"NoteNumber":78,"Velocity":59,"Duration":84033,"SoundDuration":84033,"Delta":362439095},{"NoteNumber":50,"Velocity":38,"Duration":504202,"SoundDuration":504202,"Delta":362439095},{"NoteNumber":59,"Velocity":45,"Duration":504202,"SoundDuration":504202,"Delta":362439095},{"NoteNumber":80,"Velocity":55,"Duration":84033,"SoundDuration":84033,"Delta":362523129},{"NoteNumber":78,"Velocity":59,"Duration":84033,"SoundDuration":84033,"Delta":362607162},{"NoteNumber":77,"Velocity":59,"Duration":63025,"SoundDuration":63025,"Delta":362691196},{"NoteNumber":78,"Velocity":55,"Duration":63025,"SoundDuration":63025,"Delta":362754221},{"NoteNumber":80,"Velocity":55,"Duration":63025,"SoundDuration":63025,"Delta":362817246},{"NoteNumber":81,"Velocity":55,"Duration":63025,"SoundDuration":63025,"Delta":362880272},{"NoteNumber":69,"Velocity":59,"Duration":464119,"SoundDuration":464119,"Delta":362943297},{"NoteNumber":52,"Velocity":33,"Duration":1161935,"SoundDuration":1161935,"Delta":362943297},{"NoteNumber":61,"Velocity":39,"Duration":536935,"SoundDuration":536935,"Delta":362943297},{"NoteNumber":73,"Velocity":50,"Duration":72815,"SoundDuration":72815,"Delta":363407417},{"NoteNumber":71,"Velocity":53,"Duration":625000,"SoundDuration":625000,"Delta":363480232},{"NoteNumber":68,"Velocity":53,"Duration":625000,"SoundDuration":625000,"Delta":363480232},{"NoteNumber":62,"Velocity":39,"Duration":625000,"SoundDuration":625000,"Delta":363480232},{"NoteNumber":69,"Velocity":51,"Duration":689655,"SoundDuration":689655,"Delta":364105232},{"NoteNumber":57,"Velocity":35,"Duration":689655,"SoundDuration":689655,"Delta":364105232},{"NoteNumber":61,"Velocity":42,"Duration":689655,"SoundDuration":689655,"Delta":364105232},{"NoteNumber":45,"Velocity":35,"Duration":845070,"SoundDuration":845070,"Delta":364794887}]}